0, 0, Header, 0, 1, 480
1, 0, Start_track
1, 0, Title_t, "Sonate XVI:35 1. Satz"
1, 0, Copyright_t, "Copyright © 2009 by Bernd Krueger"
1, 0, Text_t, "Joseph Haydn"
1, 0, Text_t, "Allegro con brio"
1, 0, Text_t, "Erstellt: 10.1.09\012"
1, 0, Text_t, "Update: 4.12.2011\012"
1, 0, Text_t, "Dauer: 5:47 Minuten\012"
1, 0, Time_signature, 4, 2, 24, 8
1, 0, Key_signature, 0, "major"
1, 0, Tempo, 345742
1, 0, Marker_t, "Teil 1"
1, 0, Program_c, 0, 0
1, 0, Program_c, 0, 0
1, 0, Program_c, 0, 0
1, 1440, Tempo, 349589
1, 1440, Note_on_c, 0, 72, 50
1, 1461, Control_c, 0, 64, 127
1, 1800, Tempo, 372093
1, 1800, Note_on_c, 0, 72, 0
1, 1800, Note_on_c, 0, 76, 50
1, 1920, Tempo, 354946
1, 1920, Note_on_c, 0, 76, 0
1, 1920, Note_on_c, 0, 79, 57
1, 1920, Note_on_c, 0, 60, 44
1, 1920, Note_on_c, 0, 64, 52
1, 1924, Control_c, 0, 64, 0
1, 2040, Note_on_c, 0, 64, 0
1, 2040, Note_on_c, 0, 60, 0
1, 2040, Note_on_c, 0, 79, 0
1, 2400, Note_on_c, 0, 79, 50
1, 2520, Note_on_c, 0, 79, 0
1, 2880, Tempo, 366211
1, 2880, Note_on_c, 0, 79, 50
1, 3000, Note_on_c, 0, 79, 0
1, 3300, Note_on_c, 0, 83, 60
1, 3360, Tempo, 353586
1, 3360, Note_on_c, 0, 83, 0
1, 3360, Note_on_c, 0, 84, 71
1, 3480, Note_on_c, 0, 84, 0
1, 3840, Note_on_c, 0, 79, 50
1, 3840, Note_on_c, 0, 60, 44
1, 3840, Note_on_c, 0, 64, 52
1, 3960, Note_on_c, 0, 64, 0
1, 3960, Note_on_c, 0, 60, 0
1, 3960, Note_on_c, 0, 79, 0
1, 4320, Note_on_c, 0, 79, 43
1, 4440, Note_on_c, 0, 79, 0
1, 4800, Tempo, 367670
1, 4800, Note_on_c, 0, 79, 43
1, 4920, Note_on_c, 0, 79, 0
1, 5280, Tempo, 348270
1, 5280, Note_on_c, 0, 76, 50
1, 5414, Control_c, 0, 64, 127
1, 5640, Tempo, 372093
1, 5640, Note_on_c, 0, 76, 0
1, 5640, Note_on_c, 0, 72, 50
1, 5760, Tempo, 350918
1, 5760, Note_on_c, 0, 72, 0
1, 5760, Note_on_c, 0, 71, 57
1, 5760, Note_on_c, 0, 55, 44
1, 5760, Note_on_c, 0, 65, 52
1, 5760, Note_on_c, 0, 62, 44
1, 5760, Control_c, 0, 64, 0
1, 5880, Note_on_c, 0, 62, 0
1, 5880, Note_on_c, 0, 71, 0
1, 5880, Note_on_c, 0, 55, 0
1, 5880, Note_on_c, 0, 65, 0
1, 6240, Note_on_c, 0, 71, 53
1, 6240, Note_on_c, 0, 65, 45
1, 6240, Note_on_c, 0, 62, 38
1, 6240, Note_on_c, 0, 55, 38
1, 6360, Note_on_c, 0, 55, 0
1, 6360, Note_on_c, 0, 71, 0
1, 6360, Note_on_c, 0, 65, 0
1, 6360, Note_on_c, 0, 62, 0
1, 6720, Tempo, 360274
1, 6720, Note_on_c, 0, 72, 57
1, 6720, Note_on_c, 0, 60, 44
1, 6720, Note_on_c, 0, 64, 52
1, 6720, Note_on_c, 0, 55, 44
1, 6840, Note_on_c, 0, 55, 0
1, 6840, Note_on_c, 0, 72, 0
1, 6840, Note_on_c, 0, 60, 0
1, 6840, Note_on_c, 0, 64, 0
1, 7200, Tempo, 422535
1, 7200, Note_on_c, 0, 72, 52
1, 7200, Note_on_c, 0, 60, 39
1, 7200, Note_on_c, 0, 55, 39
1, 7200, Note_on_c, 0, 64, 47
1, 7320, Note_on_c, 0, 64, 0
1, 7320, Note_on_c, 0, 72, 0
1, 7320, Note_on_c, 0, 60, 0
1, 7320, Note_on_c, 0, 55, 0
1, 7680, Tempo, 350918
1, 7680, Note_on_c, 0, 74, 57
1, 7680, Note_on_c, 0, 55, 44
1, 7680, Note_on_c, 0, 59, 44
1, 7680, Note_on_c, 0, 62, 52
1, 8160, Note_on_c, 0, 62, 0
1, 8160, Note_on_c, 0, 74, 0
1, 8160, Note_on_c, 0, 55, 0
1, 8160, Note_on_c, 0, 59, 0
1, 9120, Tempo, 348270
1, 9120, Note_on_c, 0, 67, 50
1, 9240, Control_c, 0, 64, 127
1, 9480, Tempo, 392054
1, 9480, Note_on_c, 0, 67, 0
1, 9480, Note_on_c, 0, 74, 47
1, 9600, Tempo, 345662
1, 9600, Note_on_c, 0, 74, 0
1, 9600, Note_on_c, 0, 77, 58
1, 9600, Note_on_c, 0, 67, 48
1, 9600, Note_on_c, 0, 59, 40
1, 9600, Control_c, 0, 64, 0
1, 9720, Note_on_c, 0, 59, 0
1, 9720, Note_on_c, 0, 67, 0
1, 9720, Note_on_c, 0, 77, 0
1, 10080, Tempo, 348270
1, 10080, Note_on_c, 0, 77, 50
1, 10207, Control_c, 0, 64, 127
1, 10440, Tempo, 410846
1, 10440, Note_on_c, 0, 77, 0
1, 10440, Note_on_c, 0, 79, 48
1, 10560, Tempo, 348270
1, 10560, Note_on_c, 0, 79, 0
1, 10560, Note_on_c, 0, 76, 58
1, 10560, Note_on_c, 0, 67, 48
1, 10560, Note_on_c, 0, 60, 40
1, 10567, Control_c, 0, 64, 0
1, 10680, Note_on_c, 0, 60, 0
1, 10680, Note_on_c, 0, 67, 0
1, 10680, Note_on_c, 0, 76, 0
1, 11040, Tempo, 345662
1, 11040, Note_on_c, 0, 76, 50
1, 11167, Control_c, 0, 64, 127
1, 11400, Tempo, 410846
1, 11400, Note_on_c, 0, 76, 0
1, 11400, Note_on_c, 0, 77, 50
1, 11520, Tempo, 344372
1, 11520, Note_on_c, 0, 77, 0
1, 11520, Note_on_c, 0, 74, 59
1, 11520, Note_on_c, 0, 65, 40
1, 11520, Note_on_c, 0, 67, 48
1, 11537, Control_c, 0, 64, 0
1, 11640, Note_on_c, 0, 67, 0
1, 11640, Note_on_c, 0, 65, 0
1, 11640, Note_on_c, 0, 74, 0
1, 12000, Tempo, 349589
1, 12000, Note_on_c, 0, 74, 50
1, 12146, Control_c, 0, 64, 127
1, 12360, Tempo, 408052
1, 12360, Note_on_c, 0, 74, 0
1, 12360, Note_on_c, 0, 76, 47
1, 12480, Tempo, 343092
1, 12480, Note_on_c, 0, 76, 0
1, 12480, Note_on_c, 0, 72, 57
1, 12480, Note_on_c, 0, 67, 45
1, 12480, Note_on_c, 0, 64, 38
1, 12492, Control_c, 0, 64, 0
1, 12600, Note_on_c, 0, 64, 0
1, 12600, Note_on_c, 0, 67, 0
1, 12600, Note_on_c, 0, 72, 0
1, 12960, Tempo, 346961
1, 12960, Note_on_c, 0, 72, 52
1, 13080, Note_on_c, 0, 72, 0
1, 13320, Tempo, 405296
1, 13440, Tempo, 345662
1, 13440, Note_on_c, 0, 74, 57
1, 13440, Note_on_c, 0, 65, 56
1, 13440, Note_on_c, 0, 53, 47
1, 13560, Note_on_c, 0, 53, 0
1, 13560, Note_on_c, 0, 65, 0
1, 13560, Note_on_c, 0, 74, 0
1, 13920, Note_on_c, 0, 74, 52
1, 13920, Note_on_c, 0, 53, 44
1, 13920, Note_on_c, 0, 65, 52
1, 14040, Note_on_c, 0, 65, 0
1, 14040, Note_on_c, 0, 53, 0
1, 14040, Note_on_c, 0, 74, 0
1, 14400, Note_on_c, 0, 71, 58
1, 14400, Note_on_c, 0, 55, 49
1, 14400, Note_on_c, 0, 62, 58
1, 14520, Note_on_c, 0, 62, 0
1, 14520, Note_on_c, 0, 55, 0
1, 14520, Note_on_c, 0, 71, 0
1, 14880, Tempo, 362450
1, 14880, Note_on_c, 0, 71, 52
1, 14880, Note_on_c, 0, 55, 44
1, 14880, Note_on_c, 0, 62, 52
1, 15000, Note_on_c, 0, 62, 0
1, 15000, Note_on_c, 0, 55, 0
1, 15000, Note_on_c, 0, 71, 0
1, 15360, Tempo, 342779
1, 15360, Note_on_c, 0, 72, 63
1, 15360, Note_on_c, 0, 60, 48
1, 15473, Control_c, 0, 64, 127
1, 15520, Note_on_c, 0, 60, 0
1, 15520, Note_on_c, 0, 64, 36
1, 15680, Note_on_c, 0, 64, 0
1, 15680, Note_on_c, 0, 67, 36
1, 15840, Note_on_c, 0, 67, 0
1, 15840, Note_on_c, 0, 72, 0
1, 15840, Note_on_c, 0, 60, 49
1, 16000, Note_on_c, 0, 60, 0
1, 16000, Note_on_c, 0, 64, 38
1, 16160, Note_on_c, 0, 64, 0
1, 16160, Note_on_c, 0, 67, 38
1, 16320, Note_on_c, 0, 67, 0
1, 16320, Note_on_c, 0, 60, 53
1, 16480, Note_on_c, 0, 60, 0
1, 16480, Note_on_c, 0, 64, 43
1, 16640, Note_on_c, 0, 64, 0
1, 16640, Note_on_c, 0, 67, 43
1, 16800, Tempo, 349589
1, 16800, Note_on_c, 0, 67, 0
1, 16800, Note_on_c, 0, 72, 69
1, 16800, Note_on_c, 0, 60, 54
1, 16960, Note_on_c, 0, 60, 0
1, 16960, Note_on_c, 0, 64, 44
1, 17120, Note_on_c, 0, 64, 0
1, 17120, Note_on_c, 0, 67, 44
1, 17160, Tempo, 402576
1, 17160, Note_on_c, 0, 72, 0
1, 17160, Note_on_c, 0, 76, 71
1, 17280, Tempo, 354946
1, 17280, Note_on_c, 0, 76, 0
1, 17280, Note_on_c, 0, 67, 0
1, 17280, Note_on_c, 0, 79, 83
1, 17280, Note_on_c, 0, 60, 56
1, 17291, Control_c, 0, 64, 0
1, 17347, Control_c, 0, 64, 127
1, 17400, Note_on_c, 0, 79, 0
1, 17440, Note_on_c, 0, 60, 0
1, 17440, Note_on_c, 0, 64, 43
1, 17600, Note_on_c, 0, 64, 0
1, 17600, Note_on_c, 0, 67, 43
1, 17760, Note_on_c, 0, 67, 0
1, 17760, Note_on_c, 0, 79, 75
1, 17760, Note_on_c, 0, 60, 56
1, 17880, Note_on_c, 0, 79, 0
1, 17920, Note_on_c, 0, 60, 0
1, 17920, Note_on_c, 0, 64, 45
1, 18080, Note_on_c, 0, 64, 0
1, 18080, Note_on_c, 0, 67, 46
1, 18240, Tempo, 356316
1, 18240, Note_on_c, 0, 67, 0
1, 18240, Note_on_c, 0, 79, 76
1, 18240, Note_on_c, 0, 60, 55
1, 18360, Note_on_c, 0, 79, 0
1, 18400, Note_on_c, 0, 60, 0
1, 18400, Note_on_c, 0, 64, 44
1, 18560, Note_on_c, 0, 64, 0
1, 18560, Note_on_c, 0, 67, 45
1, 18660, Note_on_c, 0, 83, 78
1, 18720, Tempo, 353586
1, 18720, Note_on_c, 0, 83, 0
1, 18720, Note_on_c, 0, 67, 0
1, 18720, Note_on_c, 0, 84, 92
1, 18720, Note_on_c, 0, 60, 72
1, 18880, Note_on_c, 0, 60, 0
1, 18880, Note_on_c, 0, 64, 57
1, 19040, Note_on_c, 0, 64, 0
1, 19040, Note_on_c, 0, 67, 57
1, 19200, Note_on_c, 0, 67, 0
1, 19200, Note_on_c, 0, 84, 0
1, 19200, Note_on_c, 0, 79, 85
1, 19200, Note_on_c, 0, 60, 56
1, 19200, Control_c, 0, 64, 0
1, 19278, Control_c, 0, 64, 127
1, 19320, Note_on_c, 0, 79, 0
1, 19360, Note_on_c, 0, 60, 0
1, 19360, Note_on_c, 0, 64, 41
1, 19520, Note_on_c, 0, 64, 0
1, 19520, Note_on_c, 0, 67, 41
1, 19680, Note_on_c, 0, 67, 0
1, 19680, Note_on_c, 0, 79, 74
1, 19680, Note_on_c, 0, 60, 56
1, 19800, Note_on_c, 0, 79, 0
1, 19840, Note_on_c, 0, 60, 0
1, 19840, Note_on_c, 0, 64, 44
1, 20000, Note_on_c, 0, 64, 0
1, 20000, Note_on_c, 0, 67, 44
1, 20160, Tempo, 356316
1, 20160, Note_on_c, 0, 67, 0
1, 20160, Note_on_c, 0, 79, 74
1, 20160, Note_on_c, 0, 60, 56
1, 20280, Note_on_c, 0, 79, 0
1, 20320, Note_on_c, 0, 60, 0
1, 20320, Note_on_c, 0, 64, 44
1, 20480, Note_on_c, 0, 64, 0
1, 20480, Note_on_c, 0, 67, 45
1, 20520, Tempo, 415110
1, 20640, Tempo, 348270
1, 20640, Note_on_c, 0, 67, 0
1, 20640, Note_on_c, 0, 77, 69
1, 20640, Note_on_c, 0, 60, 56
1, 20760, Note_on_c, 0, 77, 0
1, 20760, Note_on_c, 0, 76, 60
1, 20800, Note_on_c, 0, 60, 0
1, 20800, Note_on_c, 0, 64, 44
1, 20880, Note_on_c, 0, 76, 0
1, 20880, Note_on_c, 0, 74, 60
1, 20960, Note_on_c, 0, 64, 0
1, 20960, Note_on_c, 0, 67, 44
1, 21000, Tempo, 372093
1, 21000, Note_on_c, 0, 74, 0
1, 21000, Note_on_c, 0, 72, 60
1, 21120, Tempo, 350918
1, 21120, Note_on_c, 0, 72, 0
1, 21120, Note_on_c, 0, 67, 0
1, 21120, Note_on_c, 0, 71, 74
1, 21120, Note_on_c, 0, 62, 56
1, 21120, Control_c, 0, 64, 0
1, 21226, Control_c, 0, 64, 127
1, 21240, Note_on_c, 0, 71, 0
1, 21280, Note_on_c, 0, 62, 0
1, 21280, Note_on_c, 0, 65, 42
1, 21440, Note_on_c, 0, 65, 0
1, 21440, Note_on_c, 0, 67, 45
1, 21600, Note_on_c, 0, 67, 0
1, 21600, Note_on_c, 0, 71, 68
1, 21600, Note_on_c, 0, 62, 56
1, 21720, Note_on_c, 0, 71, 0
1, 21760, Note_on_c, 0, 62, 0
1, 21760, Note_on_c, 0, 65, 45
1, 21920, Note_on_c, 0, 65, 0
1, 21920, Note_on_c, 0, 67, 45
1, 22080, Note_on_c, 0, 67, 0
1, 22080, Note_on_c, 0, 72, 74
1, 22080, Note_on_c, 0, 60, 56
1, 22089, Control_c, 0, 64, 0
1, 22193, Control_c, 0, 64, 127
1, 22200, Note_on_c, 0, 72, 0
1, 22240, Note_on_c, 0, 60, 0
1, 22240, Note_on_c, 0, 64, 46
1, 22400, Note_on_c, 0, 64, 0
1, 22400, Note_on_c, 0, 67, 50
1, 22560, Tempo, 350918
1, 22560, Note_on_c, 0, 67, 0
1, 22560, Note_on_c, 0, 72, 67
1, 22560, Note_on_c, 0, 60, 56
1, 22680, Note_on_c, 0, 72, 0
1, 22720, Note_on_c, 0, 60, 0
1, 22720, Note_on_c, 0, 64, 46
1, 22880, Note_on_c, 0, 64, 0
1, 22880, Note_on_c, 0, 67, 46
1, 22920, Tempo, 597015
1, 23040, Tempo, 350918
1, 23040, Note_on_c, 0, 67, 0
1, 23040, Note_on_c, 0, 74, 74
1, 23040, Note_on_c, 0, 59, 63
1, 23040, Control_c, 0, 64, 0
1, 23520, Note_on_c, 0, 59, 0
1, 23520, Note_on_c, 0, 74, 0
1, 24480, Tempo, 348270
1, 24480, Note_on_c, 0, 67, 65
1, 24558, Control_c, 0, 64, 127
1, 24840, Tempo, 360490
1, 24840, Note_on_c, 0, 67, 0
1, 24840, Note_on_c, 0, 74, 61
1, 24960, Tempo, 345662
1, 24960, Note_on_c, 0, 74, 0
1, 24960, Note_on_c, 0, 77, 75
1, 24960, Note_on_c, 0, 55, 56
1, 24960, Control_c, 0, 64, 0
1, 25080, Note_on_c, 0, 77, 0
1, 25094, Control_c, 0, 64, 127
1, 25120, Note_on_c, 0, 55, 0
1, 25120, Note_on_c, 0, 59, 43
1, 25280, Note_on_c, 0, 59, 0
1, 25280, Note_on_c, 0, 62, 45
1, 25440, Tempo, 348270
1, 25440, Note_on_c, 0, 62, 0
1, 25440, Note_on_c, 0, 77, 65
1, 25440, Note_on_c, 0, 55, 56
1, 25600, Note_on_c, 0, 55, 0
1, 25600, Note_on_c, 0, 59, 45
1, 25760, Note_on_c, 0, 59, 0
1, 25760, Note_on_c, 0, 62, 45
1, 25800, Tempo, 405296
1, 25800, Note_on_c, 0, 77, 0
1, 25800, Note_on_c, 0, 79, 62
1, 25920, Tempo, 348270
1, 25920, Note_on_c, 0, 79, 0
1, 25920, Note_on_c, 0, 62, 0
1, 25920, Note_on_c, 0, 76, 75
1, 25920, Note_on_c, 0, 55, 54
1, 25934, Control_c, 0, 64, 0
1, 26040, Note_on_c, 0, 76, 0
1, 26068, Control_c, 0, 64, 127
1, 26080, Note_on_c, 0, 55, 0
1, 26080, Note_on_c, 0, 60, 43
1, 26240, Note_on_c, 0, 60, 0
1, 26240, Note_on_c, 0, 64, 44
1, 26400, Tempo, 345662
1, 26400, Note_on_c, 0, 64, 0
1, 26400, Note_on_c, 0, 76, 65
1, 26400, Note_on_c, 0, 55, 56
1, 26560, Note_on_c, 0, 55, 0
1, 26560, Note_on_c, 0, 60, 46
1, 26720, Note_on_c, 0, 60, 0
1, 26720, Note_on_c, 0, 64, 46
1, 26760, Tempo, 402576
1, 26760, Note_on_c, 0, 76, 0
1, 26760, Note_on_c, 0, 77, 65
1, 26880, Tempo, 344372
1, 26880, Note_on_c, 0, 77, 0
1, 26880, Note_on_c, 0, 64, 0
1, 26880, Note_on_c, 0, 74, 76
1, 26880, Note_on_c, 0, 55, 56
1, 26892, Control_c, 0, 64, 0
1, 26979, Control_c, 0, 64, 127
1, 27000, Note_on_c, 0, 74, 0
1, 27040, Note_on_c, 0, 55, 0
1, 27040, Note_on_c, 0, 62, 47
1, 27200, Note_on_c, 0, 62, 0
1, 27200, Note_on_c, 0, 65, 47
1, 27360, Tempo, 349589
1, 27360, Note_on_c, 0, 65, 0
1, 27360, Note_on_c, 0, 74, 65
1, 27360, Note_on_c, 0, 55, 56
1, 27520, Note_on_c, 0, 55, 0
1, 27520, Note_on_c, 0, 62, 44
1, 27680, Note_on_c, 0, 62, 0
1, 27680, Note_on_c, 0, 65, 44
1, 27720, Tempo, 395935
1, 27720, Note_on_c, 0, 74, 0
1, 27720, Note_on_c, 0, 76, 61
1, 27840, Tempo, 343092
1, 27840, Note_on_c, 0, 76, 0
1, 27840, Note_on_c, 0, 65, 0
1, 27840, Note_on_c, 0, 72, 74
1, 27840, Note_on_c, 0, 57, 56
1, 27853, Control_c, 0, 64, 0
1, 27946, Control_c, 0, 64, 127
1, 27960, Note_on_c, 0, 72, 0
1, 28000, Note_on_c, 0, 57, 0
1, 28000, Note_on_c, 0, 60, 46
1, 28160, Note_on_c, 0, 60, 0
1, 28160, Note_on_c, 0, 64, 46
1, 28200, Tempo, 402576
1, 28320, Tempo, 347745
1, 28320, Note_on_c, 0, 64, 0
1, 28320, Note_on_c, 0, 72, 67
1, 28320, Note_on_c, 0, 57, 56
1, 28440, Note_on_c, 0, 72, 0
1, 28480, Note_on_c, 0, 57, 0
1, 28480, Note_on_c, 0, 60, 45
1, 28640, Note_on_c, 0, 60, 0
1, 28640, Note_on_c, 0, 64, 45
1, 28680, Tempo, 405296
1, 28800, Tempo, 345662
1, 28800, Note_on_c, 0, 64, 0
1, 28800, Note_on_c, 0, 74, 74
1, 28800, Note_on_c, 0, 53, 56
1, 28828, Control_c, 0, 64, 0
1, 28913, Control_c, 0, 64, 127
1, 28920, Note_on_c, 0, 74, 0
1, 28960, Note_on_c, 0, 53, 0
1, 28960, Note_on_c, 0, 57, 45
1, 29120, Note_on_c, 0, 57, 0
1, 29120, Note_on_c, 0, 62, 47
1, 29280, Tempo, 354946
1, 29280, Note_on_c, 0, 62, 0
1, 29280, Note_on_c, 0, 74, 67
1, 29280, Note_on_c, 0, 53, 56
1, 29400, Note_on_c, 0, 74, 0
1, 29440, Note_on_c, 0, 53, 0
1, 29440, Note_on_c, 0, 57, 46
1, 29600, Note_on_c, 0, 57, 0
1, 29600, Note_on_c, 0, 62, 46
1, 29760, Tempo, 344372
1, 29760, Note_on_c, 0, 62, 0
1, 29760, Note_on_c, 0, 71, 75
1, 29760, Note_on_c, 0, 55, 56
1, 29772, Control_c, 0, 64, 0
1, 29866, Control_c, 0, 64, 127
1, 29880, Note_on_c, 0, 71, 0
1, 29920, Note_on_c, 0, 55, 0
1, 29920, Note_on_c, 0, 62, 43
1, 30080, Note_on_c, 0, 62, 0
1, 30080, Note_on_c, 0, 65, 43
1, 30240, Tempo, 404040
1, 30240, Note_on_c, 0, 65, 0
1, 30240, Note_on_c, 0, 71, 67
1, 30240, Note_on_c, 0, 55, 56
1, 30360, Note_on_c, 0, 71, 0
1, 30400, Note_on_c, 0, 55, 0
1, 30400, Note_on_c, 0, 62, 44
1, 30560, Note_on_c, 0, 62, 0
1, 30560, Note_on_c, 0, 65, 45
1, 30720, Tempo, 359195
1, 30720, Note_on_c, 0, 65, 0
1, 30720, Note_on_c, 0, 72, 81
1, 30720, Note_on_c, 0, 64, 45
1, 30720, Note_on_c, 0, 60, 60
1, 30720, Control_c, 0, 64, 0
1, 30996, Control_c, 0, 64, 127
1, 31680, Tempo, 351824
1, 31680, Note_on_c, 0, 64, 0
1, 31680, Note_on_c, 0, 70, 43
1, 32160, Tempo, 342779
1, 32160, Note_on_c, 0, 72, 0
1, 32160, Note_on_c, 0, 76, 50
1, 32520, Tempo, 377264
1, 32520, Note_on_c, 0, 76, 0
1, 32520, Note_on_c, 0, 79, 46
1, 32640, Tempo, 345662
1, 32640, Note_on_c, 0, 79, 0
1, 32640, Note_on_c, 0, 70, 0
1, 32640, Note_on_c, 0, 77, 50
1, 32640, Note_on_c, 0, 69, 45
1, 32640, Control_c, 0, 64, 0
1, 32760, Note_on_c, 0, 77, 0
1, 33120, Tempo, 348270
1, 33120, Note_on_c, 0, 77, 50
1, 33184, Control_c, 0, 64, 127
1, 33480, Tempo, 405296
1, 33480, Note_on_c, 0, 77, 0
1, 33480, Note_on_c, 0, 81, 45
1, 33600, Tempo, 348270
1, 33600, Note_on_c, 0, 81, 0
1, 33600, Note_on_c, 0, 69, 0
1, 33600, Note_on_c, 0, 71, 50
1, 33600, Note_on_c, 0, 65, 42
1, 33610, Control_c, 0, 64, 0
1, 33720, Note_on_c, 0, 71, 0
1, 34080, Tempo, 345662
1, 34080, Note_on_c, 0, 71, 50
1, 34158, Control_c, 0, 64, 127
1, 34440, Tempo, 402576
1, 34440, Note_on_c, 0, 71, 0
1, 34440, Note_on_c, 0, 74, 45
1, 34560, Tempo, 345662
1, 34560, Note_on_c, 0, 74, 0
1, 34560, Note_on_c, 0, 65, 0
1, 34560, Note_on_c, 0, 60, 0
1, 34560, Note_on_c, 0, 72, 50
1, 34560, Note_on_c, 0, 60, 39
1, 34560, Note_on_c, 0, 64, 45
1, 34560, Control_c, 0, 64, 0
1, 34680, Note_on_c, 0, 72, 0
1, 35040, Tempo, 348270
1, 35040, Note_on_c, 0, 72, 50
1, 35153, Control_c, 0, 64, 127
1, 35400, Tempo, 405296
1, 35400, Note_on_c, 0, 72, 0
1, 35400, Note_on_c, 0, 76, 50
1, 35520, Tempo, 348270
1, 35520, Note_on_c, 0, 76, 0
1, 35520, Note_on_c, 0, 64, 0
1, 35520, Note_on_c, 0, 79, 61
1, 35520, Note_on_c, 0, 70, 43
1, 35538, Control_c, 0, 64, 0
1, 35640, Note_on_c, 0, 79, 0
1, 36000, Tempo, 342779
1, 36000, Note_on_c, 0, 84, 57
1, 36078, Control_c, 0, 64, 127
1, 36360, Tempo, 377264
1, 36360, Note_on_c, 0, 84, 0
1, 36360, Note_on_c, 0, 76, 50
1, 36480, Tempo, 345662
1, 36480, Note_on_c, 0, 76, 0
1, 36480, Note_on_c, 0, 70, 0
1, 36480, Note_on_c, 0, 77, 60
1, 36480, Note_on_c, 0, 69, 45
1, 36482, Control_c, 0, 64, 0
1, 36600, Note_on_c, 0, 77, 0
1, 36960, Tempo, 348270
1, 36960, Note_on_c, 0, 81, 58
1, 37066, Control_c, 0, 64, 127
1, 37320, Tempo, 405296
1, 37320, Note_on_c, 0, 81, 0
1, 37320, Note_on_c, 0, 72, 49
1, 37440, Tempo, 348270
1, 37440, Note_on_c, 0, 72, 0
1, 37440, Note_on_c, 0, 69, 0
1, 37440, Note_on_c, 0, 71, 59
1, 37440, Note_on_c, 0, 65, 42
1, 37457, Control_c, 0, 64, 0
1, 37560, Note_on_c, 0, 71, 0
1, 37920, Tempo, 345662
1, 37920, Note_on_c, 0, 77, 60
1, 38111, Control_c, 0, 64, 127
1, 38280, Tempo, 402576
1, 38280, Note_on_c, 0, 77, 0
1, 38280, Note_on_c, 0, 71, 54
1, 38400, Tempo, 354946
1, 38400, Note_on_c, 0, 71, 0
1, 38400, Note_on_c, 0, 65, 0
1, 38400, Note_on_c, 0, 60, 0
1, 38400, Note_on_c, 0, 72, 66
1, 38400, Note_on_c, 0, 60, 45
1, 38411, Control_c, 0, 64, 0
1, 38499, Control_c, 0, 64, 127
1, 38520, Note_on_c, 0, 72, 0
1, 38560, Note_on_c, 0, 60, 0
1, 38560, Note_on_c, 0, 64, 36
1, 38720, Note_on_c, 0, 64, 0
1, 38720, Note_on_c, 0, 67, 36
1, 38880, Note_on_c, 0, 67, 0
1, 38880, Note_on_c, 0, 72, 52
1, 38880, Note_on_c, 0, 60, 45
1, 39000, Note_on_c, 0, 72, 0
1, 39040, Note_on_c, 0, 60, 0
1, 39040, Note_on_c, 0, 64, 38
1, 39200, Note_on_c, 0, 64, 0
1, 39200, Note_on_c, 0, 67, 38
1, 39360, Tempo, 356316
1, 39360, Note_on_c, 0, 67, 0
1, 39360, Note_on_c, 0, 72, 51
1, 39360, Note_on_c, 0, 60, 45
1, 39480, Note_on_c, 0, 72, 0
1, 39520, Note_on_c, 0, 60, 0
1, 39520, Note_on_c, 0, 64, 36
1, 39680, Note_on_c, 0, 64, 0
1, 39680, Note_on_c, 0, 67, 36
1, 39840, Tempo, 353586
1, 39840, Note_on_c, 0, 67, 0
1, 39840, Note_on_c, 0, 76, 57
1, 39840, Note_on_c, 0, 59, 45
1, 39854, Control_c, 0, 64, 0
1, 39960, Note_on_c, 0, 76, 0
1, 39960, Note_on_c, 0, 74, 50
1, 39967, Control_c, 0, 64, 127
1, 40000, Note_on_c, 0, 59, 0
1, 40000, Note_on_c, 0, 62, 36
1, 40080, Note_on_c, 0, 74, 0
1, 40080, Note_on_c, 0, 72, 50
1, 40160, Note_on_c, 0, 62, 0
1, 40160, Note_on_c, 0, 67, 37
1, 40200, Note_on_c, 0, 72, 0
1, 40200, Note_on_c, 0, 74, 50
1, 40320, Tempo, 354946
1, 40320, Note_on_c, 0, 74, 0
1, 40320, Note_on_c, 0, 67, 0
1, 40320, Note_on_c, 0, 76, 63
1, 40320, Note_on_c, 0, 60, 45
1, 40320, Control_c, 0, 64, 0
1, 40426, Control_c, 0, 64, 127
1, 40440, Note_on_c, 0, 76, 0
1, 40480, Note_on_c, 0, 60, 0
1, 40480, Note_on_c, 0, 64, 36
1, 40640, Note_on_c, 0, 64, 0
1, 40640, Note_on_c, 0, 67, 36
1, 40800, Note_on_c, 0, 67, 0
1, 40800, Note_on_c, 0, 72, 52
1, 40800, Note_on_c, 0, 60, 45
1, 40920, Note_on_c, 0, 72, 0
1, 40960, Note_on_c, 0, 60, 0
1, 40960, Note_on_c, 0, 64, 38
1, 41120, Note_on_c, 0, 64, 0
1, 41120, Note_on_c, 0, 67, 38
1, 41280, Tempo, 356316
1, 41280, Note_on_c, 0, 67, 0
1, 41280, Note_on_c, 0, 72, 51
1, 41280, Note_on_c, 0, 60, 45
1, 41400, Note_on_c, 0, 72, 0
1, 41440, Note_on_c, 0, 60, 0
1, 41440, Note_on_c, 0, 64, 36
1, 41600, Note_on_c, 0, 64, 0
1, 41600, Note_on_c, 0, 67, 36
1, 41760, Tempo, 353586
1, 41760, Note_on_c, 0, 67, 0
1, 41760, Note_on_c, 0, 76, 57
1, 41760, Note_on_c, 0, 59, 45
1, 41769, Control_c, 0, 64, 0
1, 41852, Control_c, 0, 64, 127
1, 41880, Note_on_c, 0, 76, 0
1, 41880, Note_on_c, 0, 74, 50
1, 41920, Note_on_c, 0, 59, 0
1, 41920, Note_on_c, 0, 62, 36
1, 42000, Note_on_c, 0, 74, 0
1, 42000, Note_on_c, 0, 72, 50
1, 42080, Note_on_c, 0, 62, 0
1, 42080, Note_on_c, 0, 67, 37
1, 42120, Note_on_c, 0, 72, 0
1, 42120, Note_on_c, 0, 74, 50
1, 42240, Tempo, 354946
1, 42240, Note_on_c, 0, 74, 0
1, 42240, Note_on_c, 0, 67, 0
1, 42240, Note_on_c, 0, 76, 63
1, 42240, Note_on_c, 0, 60, 45
1, 42240, Control_c, 0, 64, 0
1, 42360, Note_on_c, 0, 76, 0
1, 42360, Control_c, 0, 64, 127
1, 42400, Note_on_c, 0, 60, 0
1, 42400, Note_on_c, 0, 64, 36
1, 42560, Note_on_c, 0, 64, 0
1, 42560, Note_on_c, 0, 67, 36
1, 42720, Note_on_c, 0, 67, 0
1, 42720, Note_on_c, 0, 72, 52
1, 42720, Note_on_c, 0, 60, 45
1, 42840, Note_on_c, 0, 72, 0
1, 42880, Note_on_c, 0, 60, 0
1, 42880, Note_on_c, 0, 64, 38
1, 43040, Note_on_c, 0, 64, 0
1, 43040, Note_on_c, 0, 67, 38
1, 43200, Tempo, 356316
1, 43200, Note_on_c, 0, 67, 0
1, 43200, Note_on_c, 0, 72, 51
1, 43200, Note_on_c, 0, 60, 45
1, 43320, Note_on_c, 0, 72, 0
1, 43360, Note_on_c, 0, 60, 0
1, 43360, Note_on_c, 0, 64, 36
1, 43520, Note_on_c, 0, 64, 0
1, 43520, Note_on_c, 0, 67, 36
1, 43680, Tempo, 353586
1, 43680, Note_on_c, 0, 67, 0
1, 43680, Note_on_c, 0, 76, 57
1, 43680, Note_on_c, 0, 59, 45
1, 43694, Control_c, 0, 64, 0
1, 43800, Note_on_c, 0, 76, 0
1, 43800, Note_on_c, 0, 74, 50
1, 43800, Control_c, 0, 64, 127
1, 43840, Note_on_c, 0, 59, 0
1, 43840, Note_on_c, 0, 62, 36
1, 43920, Note_on_c, 0, 74, 0
1, 43920, Note_on_c, 0, 72, 50
1, 44000, Note_on_c, 0, 62, 0
1, 44000, Note_on_c, 0, 67, 37
1, 44040, Note_on_c, 0, 72, 0
1, 44040, Note_on_c, 0, 74, 50
1, 44160, Note_on_c, 0, 74, 0
1, 44160, Note_on_c, 0, 67, 0
1, 44160, Note_on_c, 0, 76, 63
1, 44160, Note_on_c, 0, 60, 45
1, 44189, Control_c, 0, 64, 0
1, 44257, Control_c, 0, 64, 127
1, 44280, Note_on_c, 0, 76, 0
1, 44320, Note_on_c, 0, 60, 0
1, 44320, Note_on_c, 0, 64, 36
1, 44480, Note_on_c, 0, 64, 0
1, 44480, Note_on_c, 0, 67, 36
1, 44640, Note_on_c, 0, 67, 0
1, 44640, Note_on_c, 0, 76, 53
1, 44640, Note_on_c, 0, 60, 45
1, 44760, Note_on_c, 0, 76, 0
1, 44800, Note_on_c, 0, 60, 0
1, 44800, Note_on_c, 0, 64, 38
1, 44960, Note_on_c, 0, 64, 0
1, 44960, Note_on_c, 0, 67, 39
1, 45120, Tempo, 356316
1, 45120, Note_on_c, 0, 67, 0
1, 45120, Note_on_c, 0, 76, 53
1, 45120, Note_on_c, 0, 60, 46
1, 45240, Note_on_c, 0, 76, 0
1, 45280, Note_on_c, 0, 60, 0
1, 45280, Note_on_c, 0, 64, 37
1, 45440, Note_on_c, 0, 64, 0
1, 45440, Note_on_c, 0, 67, 37
1, 45600, Tempo, 353586
1, 45600, Note_on_c, 0, 67, 0
1, 45600, Note_on_c, 0, 79, 60
1, 45600, Note_on_c, 0, 60, 47
1, 45603, Control_c, 0, 64, 0
1, 45697, Control_c, 0, 64, 127
1, 45720, Note_on_c, 0, 79, 0
1, 45720, Note_on_c, 0, 78, 53
1, 45760, Note_on_c, 0, 60, 0
1, 45760, Note_on_c, 0, 62, 38
1, 45840, Note_on_c, 0, 78, 0
1, 45840, Note_on_c, 0, 76, 53
1, 45920, Note_on_c, 0, 62, 0
1, 45920, Note_on_c, 0, 66, 39
1, 45960, Note_on_c, 0, 76, 0
1, 45960, Note_on_c, 0, 78, 53
1, 46080, Tempo, 354946
1, 46080, Note_on_c, 0, 78, 0
1, 46080, Note_on_c, 0, 66, 0
1, 46080, Note_on_c, 0, 79, 68
1, 46080, Note_on_c, 0, 59, 48
1, 46085, Control_c, 0, 64, 0
1, 46143, Control_c, 0, 64, 127
1, 46200, Note_on_c, 0, 79, 0
1, 46240, Note_on_c, 0, 59, 0
1, 46240, Note_on_c, 0, 62, 38
1, 46400, Note_on_c, 0, 62, 0
1, 46400, Note_on_c, 0, 67, 39
1, 46560, Note_on_c, 0, 67, 0
1, 46560, Note_on_c, 0, 79, 57
1, 46560, Note_on_c, 0, 59, 49
1, 46680, Note_on_c, 0, 79, 0
1, 46720, Note_on_c, 0, 59, 0
1, 46720, Note_on_c, 0, 62, 41
1, 46880, Note_on_c, 0, 62, 0
1, 46880, Note_on_c, 0, 67, 42
1, 47040, Tempo, 356316
1, 47040, Note_on_c, 0, 67, 0
1, 47040, Note_on_c, 0, 79, 57
1, 47040, Note_on_c, 0, 59, 50
1, 47160, Note_on_c, 0, 79, 0
1, 47200, Note_on_c, 0, 59, 0
1, 47200, Note_on_c, 0, 62, 40
1, 47360, Note_on_c, 0, 62, 0
1, 47360, Note_on_c, 0, 67, 40
1, 47520, Tempo, 353586
1, 47520, Note_on_c, 0, 67, 0
1, 47520, Note_on_c, 0, 83, 64
1, 47520, Note_on_c, 0, 54, 51
1, 47531, Control_c, 0, 64, 0
1, 47623, Control_c, 0, 64, 127
1, 47640, Note_on_c, 0, 83, 0
1, 47640, Note_on_c, 0, 81, 57
1, 47680, Note_on_c, 0, 54, 0
1, 47680, Note_on_c, 0, 57, 41
1, 47760, Note_on_c, 0, 81, 0
1, 47760, Note_on_c, 0, 79, 57
1, 47840, Note_on_c, 0, 57, 0
1, 47840, Note_on_c, 0, 62, 42
1, 47880, Note_on_c, 0, 79, 0
1, 47880, Note_on_c, 0, 81, 57
1, 48000, Tempo, 354946
1, 48000, Note_on_c, 0, 81, 0
1, 48000, Note_on_c, 0, 62, 0
1, 48000, Note_on_c, 0, 83, 73
1, 48000, Note_on_c, 0, 55, 52
1, 48000, Control_c, 0, 64, 0
1, 48080, Control_c, 0, 64, 127
1, 48120, Note_on_c, 0, 83, 0
1, 48160, Note_on_c, 0, 55, 0
1, 48160, Note_on_c, 0, 59, 41
1, 48320, Note_on_c, 0, 59, 0
1, 48320, Note_on_c, 0, 62, 42
1, 48480, Note_on_c, 0, 62, 0
1, 48480, Note_on_c, 0, 79, 64
1, 48480, Note_on_c, 0, 55, 53
1, 48600, Note_on_c, 0, 79, 0
1, 48640, Note_on_c, 0, 55, 0
1, 48640, Note_on_c, 0, 59, 44
1, 48800, Note_on_c, 0, 59, 0
1, 48800, Note_on_c, 0, 62, 45
1, 48960, Tempo, 356316
1, 48960, Note_on_c, 0, 62, 0
1, 48960, Note_on_c, 0, 79, 64
1, 48960, Note_on_c, 0, 55, 54
1, 49080, Note_on_c, 0, 79, 0
1, 49120, Note_on_c, 0, 55, 0
1, 49120, Note_on_c, 0, 59, 43
1, 49280, Note_on_c, 0, 59, 0
1, 49280, Note_on_c, 0, 62, 43
1, 49440, Tempo, 353586
1, 49440, Note_on_c, 0, 62, 0
1, 49440, Note_on_c, 0, 83, 69
1, 49440, Note_on_c, 0, 54, 54
1, 49454, Control_c, 0, 64, 0
1, 49555, Control_c, 0, 64, 127
1, 49560, Note_on_c, 0, 83, 0
1, 49560, Note_on_c, 0, 81, 61
1, 49600, Note_on_c, 0, 54, 0
1, 49600, Note_on_c, 0, 57, 43
1, 49680, Note_on_c, 0, 81, 0
1, 49680, Note_on_c, 0, 79, 61
1, 49760, Note_on_c, 0, 57, 0
1, 49760, Note_on_c, 0, 62, 45
1, 49800, Note_on_c, 0, 79, 0
1, 49800, Note_on_c, 0, 81, 61
1, 49920, Tempo, 354946
1, 49920, Note_on_c, 0, 81, 0
1, 49920, Note_on_c, 0, 62, 0
1, 49920, Note_on_c, 0, 83, 78
1, 49920, Note_on_c, 0, 55, 55
1, 49920, Control_c, 0, 64, 0
1, 50040, Note_on_c, 0, 83, 0
1, 50040, Control_c, 0, 64, 127
1, 50080, Note_on_c, 0, 55, 0
1, 50080, Note_on_c, 0, 59, 44
1, 50240, Note_on_c, 0, 59, 0
1, 50240, Note_on_c, 0, 62, 45
1, 50400, Note_on_c, 0, 62, 0
1, 50400, Note_on_c, 0, 79, 65
1, 50400, Note_on_c, 0, 55, 56
1, 50520, Note_on_c, 0, 79, 0
1, 50560, Note_on_c, 0, 55, 0
1, 50560, Note_on_c, 0, 59, 47
1, 50720, Note_on_c, 0, 59, 0
1, 50720, Note_on_c, 0, 62, 48
1, 50880, Tempo, 356316
1, 50880, Note_on_c, 0, 62, 0
1, 50880, Note_on_c, 0, 79, 65
1, 50880, Note_on_c, 0, 55, 57
1, 51000, Note_on_c, 0, 79, 0
1, 51040, Note_on_c, 0, 55, 0
1, 51040, Note_on_c, 0, 59, 46
1, 51200, Note_on_c, 0, 59, 0
1, 51200, Note_on_c, 0, 62, 46
1, 51360, Tempo, 353586
1, 51360, Note_on_c, 0, 62, 0
1, 51360, Note_on_c, 0, 79, 75
1, 51360, Note_on_c, 0, 55, 57
1, 51520, Note_on_c, 0, 55, 0
1, 51520, Note_on_c, 0, 79, 0
1, 51520, Note_on_c, 0, 83, 69
1, 51520, Note_on_c, 0, 59, 50
1, 51680, Note_on_c, 0, 59, 0
1, 51680, Note_on_c, 0, 83, 0
1, 51680, Note_on_c, 0, 86, 71
1, 51680, Note_on_c, 0, 62, 50
1, 51840, Tempo, 345662
1, 51840, Note_on_c, 0, 62, 0
1, 51840, Note_on_c, 0, 86, 0
1, 51840, Note_on_c, 0, 84, 75
1, 51840, Note_on_c, 0, 54, 64
1, 51840, Control_c, 0, 64, 0
1, 51974, Control_c, 0, 64, 127
1, 52000, Note_on_c, 0, 54, 0
1, 52000, Note_on_c, 0, 57, 53
1, 52160, Note_on_c, 0, 57, 0
1, 52160, Note_on_c, 0, 62, 45
1, 52320, Tempo, 348270
1, 52320, Note_on_c, 0, 62, 0
1, 52320, Note_on_c, 0, 84, 0
1, 52320, Note_on_c, 0, 84, 69
1, 52320, Note_on_c, 0, 54, 56
1, 52480, Note_on_c, 0, 54, 0
1, 52480, Note_on_c, 0, 57, 45
1, 52640, Note_on_c, 0, 57, 0
1, 52640, Note_on_c, 0, 62, 45
1, 52680, Tempo, 405296
1, 52680, Note_on_c, 0, 84, 0
1, 52680, Note_on_c, 0, 86, 65
1, 52800, Tempo, 348270
1, 52800, Note_on_c, 0, 86, 0
1, 52800, Note_on_c, 0, 62, 0
1, 52800, Note_on_c, 0, 83, 75
1, 52800, Note_on_c, 0, 55, 56
1, 52814, Control_c, 0, 64, 0
1, 52897, Control_c, 0, 64, 127
1, 52920, Note_on_c, 0, 83, 0
1, 52960, Note_on_c, 0, 55, 0
1, 52960, Note_on_c, 0, 59, 43
1, 53120, Note_on_c, 0, 59, 0
1, 53120, Note_on_c, 0, 62, 44
1, 53280, Tempo, 345662
1, 53280, Note_on_c, 0, 62, 0
1, 53280, Note_on_c, 0, 83, 75
1, 53280, Note_on_c, 0, 55, 56
1, 53440, Note_on_c, 0, 55, 0
1, 53440, Note_on_c, 0, 59, 46
1, 53600, Note_on_c, 0, 59, 0
1, 53600, Note_on_c, 0, 62, 46
1, 53640, Tempo, 402576
1, 53640, Note_on_c, 0, 83, 0
1, 53640, Note_on_c, 0, 84, 70
1, 53760, Tempo, 345662
1, 53760, Note_on_c, 0, 84, 0
1, 53760, Note_on_c, 0, 62, 0
1, 53760, Note_on_c, 0, 81, 75
1, 53760, Note_on_c, 0, 60, 56
1, 53760, Control_c, 0, 64, 0
1, 53880, Note_on_c, 0, 81, 0
1, 53894, Control_c, 0, 64, 127
1, 53920, Note_on_c, 0, 60, 0
1, 53920, Note_on_c, 0, 62, 43
1, 54080, Note_on_c, 0, 62, 0
1, 54080, Note_on_c, 0, 66, 45
1, 54240, Tempo, 348270
1, 54240, Note_on_c, 0, 66, 0
1, 54240, Note_on_c, 0, 81, 69
1, 54240, Note_on_c, 0, 60, 56
1, 54400, Note_on_c, 0, 60, 0
1, 54400, Note_on_c, 0, 62, 45
1, 54560, Note_on_c, 0, 62, 0
1, 54560, Note_on_c, 0, 66, 45
1, 54600, Tempo, 405296
1, 54600, Note_on_c, 0, 81, 0
1, 54600, Note_on_c, 0, 83, 65
1, 54720, Tempo, 348270
1, 54720, Note_on_c, 0, 83, 0
1, 54720, Note_on_c, 0, 66, 0
1, 54720, Note_on_c, 0, 79, 75
1, 54720, Note_on_c, 0, 59, 56
1, 54734, Control_c, 0, 64, 0
1, 54840, Note_on_c, 0, 79, 0
1, 54868, Control_c, 0, 64, 127
1, 54880, Note_on_c, 0, 59, 0
1, 54880, Note_on_c, 0, 62, 43
1, 55040, Note_on_c, 0, 62, 0
1, 55040, Note_on_c, 0, 67, 44
1, 55200, Tempo, 353586
1, 55200, Note_on_c, 0, 67, 0
1, 55200, Note_on_c, 0, 79, 57
1, 55200, Note_on_c, 0, 59, 39
1, 55360, Note_on_c, 0, 59, 0
1, 55360, Note_on_c, 0, 79, 0
1, 55360, Note_on_c, 0, 83, 52
1, 55360, Note_on_c, 0, 62, 35
1, 55520, Note_on_c, 0, 62, 0
1, 55520, Note_on_c, 0, 83, 0
1, 55520, Note_on_c, 0, 86, 53
1, 55520, Note_on_c, 0, 67, 35
1, 55680, Tempo, 345662
1, 55680, Note_on_c, 0, 67, 0
1, 55680, Note_on_c, 0, 86, 0
1, 55680, Note_on_c, 0, 84, 57
1, 55680, Note_on_c, 0, 54, 39
1, 55680, Control_c, 0, 64, 0
1, 55814, Control_c, 0, 64, 127
1, 55840, Note_on_c, 0, 54, 0
1, 55840, Note_on_c, 0, 57, 30
1, 55920, Note_on_c, 0, 84, 0
1, 55920, Note_on_c, 0, 86, 57
1, 56000, Note_on_c, 0, 86, 0
1, 56000, Note_on_c, 0, 57, 0
1, 56000, Note_on_c, 0, 84, 49
1, 56000, Note_on_c, 0, 62, 31
1, 56080, Note_on_c, 0, 84, 0
1, 56080, Note_on_c, 0, 83, 49
1, 56160, Tempo, 348270
1, 56160, Note_on_c, 0, 83, 0
1, 56160, Note_on_c, 0, 62, 0
1, 56160, Note_on_c, 0, 84, 52
1, 56160, Note_on_c, 0, 54, 39
1, 56320, Note_on_c, 0, 54, 0
1, 56320, Note_on_c, 0, 57, 31
1, 56480, Note_on_c, 0, 57, 0
1, 56480, Note_on_c, 0, 62, 31
1, 56520, Tempo, 405296
1, 56520, Note_on_c, 0, 84, 0
1, 56520, Note_on_c, 0, 86, 49
1, 56640, Tempo, 348270
1, 56640, Note_on_c, 0, 86, 0
1, 56640, Note_on_c, 0, 62, 0
1, 56640, Note_on_c, 0, 83, 57
1, 56640, Note_on_c, 0, 55, 39
1, 56654, Control_c, 0, 64, 0
1, 56788, Control_c, 0, 64, 127
1, 56800, Note_on_c, 0, 55, 0
1, 56800, Note_on_c, 0, 59, 30
1, 56880, Note_on_c, 0, 83, 0
1, 56880, Note_on_c, 0, 84, 57
1, 56960, Note_on_c, 0, 84, 0
1, 56960, Note_on_c, 0, 59, 0
1, 56960, Note_on_c, 0, 83, 50
1, 56960, Note_on_c, 0, 62, 30
1, 57040, Note_on_c, 0, 83, 0
1, 57040, Note_on_c, 0, 81, 50
1, 57120, Tempo, 345662
1, 57120, Note_on_c, 0, 81, 0
1, 57120, Note_on_c, 0, 62, 0
1, 57120, Note_on_c, 0, 83, 57
1, 57120, Note_on_c, 0, 55, 39
1, 57280, Note_on_c, 0, 55, 0
1, 57280, Note_on_c, 0, 59, 32
1, 57440, Note_on_c, 0, 59, 0
1, 57440, Note_on_c, 0, 62, 32
1, 57480, Tempo, 402576
1, 57480, Note_on_c, 0, 83, 0
1, 57480, Note_on_c, 0, 84, 53
1, 57600, Tempo, 345662
1, 57600, Note_on_c, 0, 84, 0
1, 57600, Note_on_c, 0, 62, 0
1, 57600, Note_on_c, 0, 81, 57
1, 57600, Note_on_c, 0, 60, 39
1, 57600, Control_c, 0, 64, 0
1, 57734, Control_c, 0, 64, 127
1, 57760, Note_on_c, 0, 60, 0
1, 57760, Note_on_c, 0, 62, 30
1, 57840, Note_on_c, 0, 81, 0
1, 57840, Note_on_c, 0, 83, 57
1, 57920, Note_on_c, 0, 83, 0
1, 57920, Note_on_c, 0, 62, 0
1, 57920, Note_on_c, 0, 81, 51
1, 57920, Note_on_c, 0, 66, 31
1, 58000, Note_on_c, 0, 81, 0
1, 58000, Note_on_c, 0, 79, 51
1, 58080, Tempo, 348270
1, 58080, Note_on_c, 0, 79, 0
1, 58080, Note_on_c, 0, 66, 0
1, 58080, Note_on_c, 0, 81, 52
1, 58080, Note_on_c, 0, 60, 39
1, 58240, Note_on_c, 0, 60, 0
1, 58240, Note_on_c, 0, 62, 31
1, 58400, Note_on_c, 0, 62, 0
1, 58400, Note_on_c, 0, 66, 31
1, 58440, Tempo, 405296
1, 58440, Note_on_c, 0, 81, 0
1, 58440, Note_on_c, 0, 83, 49
1, 58560, Tempo, 348270
1, 58560, Note_on_c, 0, 83, 0
1, 58560, Note_on_c, 0, 66, 0
1, 58560, Note_on_c, 0, 79, 57
1, 58560, Note_on_c, 0, 59, 39
1, 58574, Control_c, 0, 64, 0
1, 58708, Control_c, 0, 64, 127
1, 58720, Note_on_c, 0, 59, 0
1, 58720, Note_on_c, 0, 62, 30
1, 58880, Note_on_c, 0, 62, 0
1, 58880, Note_on_c, 0, 67, 30
1, 59040, Note_on_c, 0, 67, 0
1, 59040, Note_on_c, 0, 79, 0
1, 59040, Note_on_c, 0, 86, 66
1, 59040, Note_on_c, 0, 59, 54
1, 59200, Note_on_c, 0, 59, 0
1, 59200, Note_on_c, 0, 62, 43
1, 59360, Note_on_c, 0, 62, 0
1, 59360, Note_on_c, 0, 67, 44
1, 59400, Note_on_c, 0, 86, 0
1, 59400, Note_on_c, 0, 83, 55
1, 59520, Tempo, 345662
1, 59520, Note_on_c, 0, 83, 0
1, 59520, Note_on_c, 0, 67, 0
1, 59520, Note_on_c, 0, 81, 74
1, 59520, Note_on_c, 0, 60, 54
1, 59520, Control_c, 0, 64, 0
1, 59654, Control_c, 0, 64, 127
1, 59680, Note_on_c, 0, 60, 0
1, 59680, Note_on_c, 0, 64, 40
1, 59760, Note_on_c, 0, 81, 0
1, 59760, Note_on_c, 0, 83, 68
1, 59840, Note_on_c, 0, 83, 0
1, 59840, Note_on_c, 0, 64, 0
1, 59840, Note_on_c, 0, 81, 59
1, 59840, Note_on_c, 0, 69, 41
1, 59920, Note_on_c, 0, 81, 0
1, 59920, Note_on_c, 0, 79, 59
1, 60000, Tempo, 348270
1, 60000, Note_on_c, 0, 79, 0
1, 60000, Note_on_c, 0, 69, 0
1, 60000, Note_on_c, 0, 81, 62
1, 60000, Note_on_c, 0, 60, 55
1, 60006, Control_c, 0, 64, 0
1, 60069, Control_c, 0, 64, 127
1, 60160, Note_on_c, 0, 60, 0
1, 60160, Note_on_c, 0, 64, 42
1, 60320, Note_on_c, 0, 64, 0
1, 60320, Note_on_c, 0, 69, 42
1, 60360, Tempo, 405296
1, 60360, Note_on_c, 0, 81, 0
1, 60360, Note_on_c, 0, 83, 59
1, 60480, Tempo, 348270
1, 60480, Note_on_c, 0, 83, 0
1, 60480, Note_on_c, 0, 69, 0
1, 60480, Note_on_c, 0, 79, 68
1, 60480, Note_on_c, 0, 61, 53
1, 60494, Control_c, 0, 64, 0
1, 60628, Control_c, 0, 64, 127
1, 60640, Note_on_c, 0, 61, 0
1, 60640, Note_on_c, 0, 64, 41
1, 60720, Note_on_c, 0, 79, 0
1, 60720, Note_on_c, 0, 81, 68
1, 60800, Note_on_c, 0, 81, 0
1, 60800, Note_on_c, 0, 64, 0
1, 60800, Note_on_c, 0, 79, 60
1, 60800, Note_on_c, 0, 69, 41
1, 60880, Note_on_c, 0, 79, 0
1, 60880, Note_on_c, 0, 78, 60
1, 60960, Tempo, 345662
1, 60960, Note_on_c, 0, 78, 0
1, 60960, Note_on_c, 0, 69, 0
1, 60960, Note_on_c, 0, 79, 68
1, 60960, Note_on_c, 0, 61, 51
1, 60975, Control_c, 0, 64, 0
1, 61060, Control_c, 0, 64, 127
1, 61120, Note_on_c, 0, 61, 0
1, 61120, Note_on_c, 0, 64, 42
1, 61280, Note_on_c, 0, 64, 0
1, 61280, Note_on_c, 0, 69, 43
1, 61320, Tempo, 402576
1, 61320, Note_on_c, 0, 79, 0
1, 61320, Note_on_c, 0, 81, 63
1, 61440, Note_on_c, 0, 81, 0
1, 61440, Note_on_c, 0, 69, 0
1, 61440, Note_on_c, 0, 78, 74
1, 61440, Note_on_c, 0, 62, 58
1, 61443, Control_c, 0, 64, 0
1, 61920, Tempo, 382068
1, 61920, Note_on_c, 0, 62, 0
1, 61920, Note_on_c, 0, 78, 0
1, 62280, Note_on_c, 0, 74, 68
1, 62280, Note_on_c, 0, 62, 62
1, 62358, Control_c, 0, 64, 127
1, 62400, Note_on_c, 0, 62, 0
1, 62400, Note_on_c, 0, 74, 0
1, 62400, Note_on_c, 0, 78, 79
1, 62400, Note_on_c, 0, 66, 68
1, 62760, Note_on_c, 0, 66, 0
1, 62760, Note_on_c, 0, 78, 0
1, 62760, Note_on_c, 0, 74, 68
1, 62760, Note_on_c, 0, 62, 62
1, 62880, Note_on_c, 0, 62, 0
1, 62880, Note_on_c, 0, 74, 0
1, 62880, Note_on_c, 0, 81, 74
1, 62880, Note_on_c, 0, 69, 68
1, 63240, Tempo, 444313
1, 63240, Note_on_c, 0, 69, 0
1, 63240, Note_on_c, 0, 81, 0
1, 63240, Note_on_c, 0, 78, 68
1, 63240, Note_on_c, 0, 66, 64
1, 63325, Control_c, 0, 64, 0
1, 63360, Tempo, 380856
1, 63360, Note_on_c, 0, 66, 0
1, 63360, Note_on_c, 0, 78, 0
1, 63360, Note_on_c, 0, 86, 86
1, 63360, Note_on_c, 0, 74, 80
1, 63360, Control_c, 0, 64, 127
1, 63817, Control_c, 0, 64, 0
1, 63840, Note_on_c, 0, 74, 0
1, 63840, Note_on_c, 0, 86, 0
1, 64200, Note_on_c, 0, 62, 66
1, 64200, Note_on_c, 0, 50, 62
1, 64297, Control_c, 0, 64, 127
1, 64320, Note_on_c, 0, 50, 0
1, 64320, Note_on_c, 0, 62, 0
1, 64320, Note_on_c, 0, 66, 77
1, 64320, Note_on_c, 0, 54, 71
1, 64480, Note_on_c, 0, 54, 0
1, 64480, Note_on_c, 0, 66, 0
1, 64480, Note_on_c, 0, 62, 69
1, 64480, Note_on_c, 0, 50, 62
1, 64640, Note_on_c, 0, 50, 0
1, 64640, Note_on_c, 0, 62, 0
1, 64640, Note_on_c, 0, 66, 69
1, 64640, Note_on_c, 0, 54, 62
1, 64800, Note_on_c, 0, 54, 0
1, 64800, Note_on_c, 0, 66, 0
1, 64800, Note_on_c, 0, 69, 80
1, 64800, Note_on_c, 0, 57, 68
1, 64960, Note_on_c, 0, 57, 0
1, 64960, Note_on_c, 0, 69, 0
1, 64960, Note_on_c, 0, 66, 70
1, 64960, Note_on_c, 0, 54, 64
1, 65120, Note_on_c, 0, 54, 0
1, 65120, Note_on_c, 0, 66, 0
1, 65120, Note_on_c, 0, 69, 70
1, 65120, Note_on_c, 0, 57, 64
1, 65160, Tempo, 444313
1, 65280, Tempo, 380856
1, 65280, Note_on_c, 0, 57, 0
1, 65280, Note_on_c, 0, 69, 0
1, 65280, Note_on_c, 0, 74, 84
1, 65280, Note_on_c, 0, 62, 74
1, 65280, Control_c, 0, 64, 0
1, 65574, Control_c, 0, 64, 127
1, 65760, Note_on_c, 0, 62, 0
1, 65760, Note_on_c, 0, 74, 0
1, 65887, Control_c, 0, 64, 0
1, 66240, Note_on_c, 0, 50, 95
1, 66240, Note_on_c, 0, 38, 84
1, 66410, Control_c, 0, 64, 127
1, 66960, Note_on_c, 0, 38, 0
1, 66960, Note_on_c, 0, 50, 0
1, 66960, Note_on_c, 0, 50, 89
1, 66960, Note_on_c, 0, 38, 78
1, 67200, Note_on_c, 0, 38, 0
1, 67200, Note_on_c, 0, 50, 0
1, 67200, Note_on_c, 0, 50, 97
1, 67200, Note_on_c, 0, 38, 84
1, 67680, Note_on_c, 0, 38, 0
1, 67680, Note_on_c, 0, 50, 0
1, 67814, Control_c, 0, 64, 0
1, 69120, Tempo, 354946
1, 69120, Note_on_c, 0, 59, 40
1, 69120, Control_c, 0, 64, 0
1, 69240, Control_c, 0, 64, 127
1, 69280, Note_on_c, 0, 59, 0
1, 69283, Note_on_c, 0, 62, 32
1, 69440, Note_on_c, 0, 67, 32
1, 69443, Note_on_c, 0, 62, 0
1, 69600, Note_on_c, 0, 67, 0
1, 69600, Note_on_c, 0, 59, 40
1, 69760, Note_on_c, 0, 59, 0
1, 69763, Note_on_c, 0, 62, 34
1, 69920, Note_on_c, 0, 67, 34
1, 69923, Note_on_c, 0, 62, 0
1, 70080, Tempo, 356316
1, 70080, Note_on_c, 0, 67, 0
1, 70080, Note_on_c, 0, 59, 40
1, 70240, Note_on_c, 0, 59, 0
1, 70243, Note_on_c, 0, 62, 32
1, 70400, Note_on_c, 0, 67, 32
1, 70403, Note_on_c, 0, 62, 0
1, 70560, Tempo, 353586
1, 70560, Note_on_c, 0, 67, 0
1, 70560, Note_on_c, 0, 76, 57
1, 70560, Note_on_c, 0, 60, 40
1, 70574, Control_c, 0, 64, 0
1, 70680, Note_on_c, 0, 76, 0
1, 70680, Note_on_c, 0, 74, 50
1, 70680, Control_c, 0, 64, 127
1, 70720, Note_on_c, 0, 60, 0
1, 70720, Note_on_c, 0, 62, 32
1, 70800, Note_on_c, 0, 74, 0
1, 70800, Note_on_c, 0, 73, 50
1, 70880, Note_on_c, 0, 62, 0
1, 70880, Note_on_c, 0, 66, 33
1, 70920, Note_on_c, 0, 73, 0
1, 70920, Note_on_c, 0, 74, 50
1, 71040, Note_on_c, 0, 74, 0
1, 71040, Note_on_c, 0, 66, 0
1, 71040, Note_on_c, 0, 79, 63
1, 71040, Note_on_c, 0, 59, 40
1, 71069, Control_c, 0, 64, 0
1, 71137, Control_c, 0, 64, 127
1, 71160, Note_on_c, 0, 79, 0
1, 71195, Note_on_c, 0, 62, 32
1, 71200, Note_on_c, 0, 59, 0
1, 71355, Note_on_c, 0, 62, 0
1, 71360, Note_on_c, 0, 67, 32
1, 71520, Note_on_c, 0, 67, 0
1, 71520, Note_on_c, 0, 79, 53
1, 71520, Note_on_c, 0, 59, 41
1, 71640, Note_on_c, 0, 79, 0
1, 71675, Note_on_c, 0, 62, 35
1, 71680, Note_on_c, 0, 59, 0
1, 71835, Note_on_c, 0, 62, 0
1, 71840, Note_on_c, 0, 67, 36
1, 72000, Tempo, 356316
1, 72000, Note_on_c, 0, 67, 0
1, 72000, Note_on_c, 0, 59, 43
1, 72160, Note_on_c, 0, 59, 0
1, 72160, Note_on_c, 0, 62, 35
1, 72320, Note_on_c, 0, 62, 0
1, 72320, Note_on_c, 0, 67, 35
1, 72480, Tempo, 353586
1, 72480, Note_on_c, 0, 67, 0
1, 72480, Note_on_c, 0, 76, 60
1, 72480, Note_on_c, 0, 60, 45
1, 72483, Control_c, 0, 64, 0
1, 72577, Control_c, 0, 64, 127
1, 72600, Note_on_c, 0, 76, 0
1, 72600, Note_on_c, 0, 74, 53
1, 72640, Note_on_c, 0, 60, 0
1, 72640, Note_on_c, 0, 62, 37
1, 72720, Note_on_c, 0, 74, 0
1, 72720, Note_on_c, 0, 73, 53
1, 72800, Note_on_c, 0, 62, 0
1, 72800, Note_on_c, 0, 66, 38
1, 72840, Note_on_c, 0, 73, 0
1, 72840, Note_on_c, 0, 74, 53
1, 72960, Tempo, 354946
1, 72960, Note_on_c, 0, 74, 0
1, 72960, Note_on_c, 0, 66, 0
1, 72960, Note_on_c, 0, 79, 68
1, 72960, Note_on_c, 0, 59, 47
1, 72965, Control_c, 0, 64, 0
1, 73023, Control_c, 0, 64, 127
1, 73080, Note_on_c, 0, 79, 0
1, 73120, Note_on_c, 0, 59, 0
1, 73120, Note_on_c, 0, 62, 38
1, 73280, Note_on_c, 0, 62, 0
1, 73280, Note_on_c, 0, 67, 39
1, 73440, Note_on_c, 0, 67, 0
1, 73440, Note_on_c, 0, 79, 57
1, 73440, Note_on_c, 0, 59, 49
1, 73560, Note_on_c, 0, 79, 0
1, 73600, Note_on_c, 0, 59, 0
1, 73600, Note_on_c, 0, 62, 41
1, 73760, Note_on_c, 0, 62, 0
1, 73760, Note_on_c, 0, 67, 42
1, 73920, Tempo, 356316
1, 73920, Note_on_c, 0, 67, 0
1, 73920, Note_on_c, 0, 59, 50
1, 74080, Note_on_c, 0, 59, 0
1, 74080, Note_on_c, 0, 62, 40
1, 74240, Note_on_c, 0, 62, 0
1, 74240, Note_on_c, 0, 67, 40
1, 74400, Tempo, 353586
1, 74400, Note_on_c, 0, 67, 0
1, 74400, Note_on_c, 0, 76, 64
1, 74400, Note_on_c, 0, 60, 51
1, 74411, Control_c, 0, 64, 0
1, 74503, Control_c, 0, 64, 127
1, 74520, Note_on_c, 0, 76, 0
1, 74520, Note_on_c, 0, 74, 57
1, 74560, Note_on_c, 0, 60, 0
1, 74560, Note_on_c, 0, 62, 41
1, 74640, Note_on_c, 0, 74, 0
1, 74640, Note_on_c, 0, 73, 57
1, 74720, Note_on_c, 0, 62, 0
1, 74720, Note_on_c, 0, 66, 42
1, 74760, Note_on_c, 0, 73, 0
1, 74760, Note_on_c, 0, 74, 57
1, 74880, Tempo, 354946
1, 74880, Note_on_c, 0, 74, 0
1, 74880, Note_on_c, 0, 66, 0
1, 74880, Note_on_c, 0, 79, 73
1, 74880, Note_on_c, 0, 59, 52
1, 74880, Control_c, 0, 64, 0
1, 74960, Control_c, 0, 64, 127
1, 75040, Note_on_c, 0, 59, 0
1, 75040, Note_on_c, 0, 62, 41
1, 75200, Note_on_c, 0, 62, 0
1, 75200, Note_on_c, 0, 67, 42
1, 75360, Note_on_c, 0, 67, 0
1, 75360, Note_on_c, 0, 79, 0
1, 75360, Note_on_c, 0, 81, 75
1, 75360, Note_on_c, 0, 59, 54
1, 75480, Note_on_c, 0, 81, 0
1, 75480, Note_on_c, 0, 79, 63
1, 75520, Note_on_c, 0, 59, 0
1, 75520, Note_on_c, 0, 62, 45
1, 75600, Note_on_c, 0, 79, 0
1, 75600, Note_on_c, 0, 78, 63
1, 75680, Note_on_c, 0, 62, 0
1, 75680, Note_on_c, 0, 67, 46
1, 75720, Note_on_c, 0, 78, 0
1, 75720, Note_on_c, 0, 79, 63
1, 75840, Tempo, 356316
1, 75840, Note_on_c, 0, 79, 0
1, 75840, Note_on_c, 0, 67, 0
1, 75840, Note_on_c, 0, 81, 75
1, 75840, Note_on_c, 0, 54, 56
1, 75848, Control_c, 0, 64, 0
1, 75932, Control_c, 0, 64, 127
1, 76000, Note_on_c, 0, 54, 0
1, 76000, Note_on_c, 0, 57, 45
1, 76160, Note_on_c, 0, 57, 0
1, 76160, Note_on_c, 0, 62, 45
1, 76320, Tempo, 353586
1, 76320, Note_on_c, 0, 62, 0
1, 76320, Note_on_c, 0, 81, 0
1, 76320, Note_on_c, 0, 83, 75
1, 76320, Note_on_c, 0, 54, 57
1, 76440, Note_on_c, 0, 83, 0
1, 76440, Note_on_c, 0, 81, 66
1, 76480, Note_on_c, 0, 54, 0
1, 76480, Note_on_c, 0, 57, 46
1, 76560, Note_on_c, 0, 81, 0
1, 76560, Note_on_c, 0, 79, 66
1, 76640, Note_on_c, 0, 57, 0
1, 76640, Note_on_c, 0, 62, 48
1, 76680, Note_on_c, 0, 79, 0
1, 76680, Note_on_c, 0, 81, 66
1, 76800, Tempo, 354946
1, 76800, Note_on_c, 0, 81, 0
1, 76800, Note_on_c, 0, 62, 0
1, 76800, Note_on_c, 0, 83, 78
1, 76800, Note_on_c, 0, 55, 59
1, 76807, Control_c, 0, 64, 0
1, 76920, Control_c, 0, 64, 127
1, 76960, Note_on_c, 0, 55, 0
1, 76960, Note_on_c, 0, 59, 48
1, 77120, Note_on_c, 0, 59, 0
1, 77120, Note_on_c, 0, 62, 49
1, 77280, Note_on_c, 0, 62, 0
1, 77280, Note_on_c, 0, 83, 0
1, 77280, Note_on_c, 0, 84, 77
1, 77280, Note_on_c, 0, 55, 62
1, 77400, Note_on_c, 0, 84, 0
1, 77400, Note_on_c, 0, 83, 70
1, 77440, Note_on_c, 0, 55, 0
1, 77440, Note_on_c, 0, 59, 52
1, 77520, Note_on_c, 0, 83, 0
1, 77520, Note_on_c, 0, 81, 70
1, 77600, Note_on_c, 0, 59, 0
1, 77600, Note_on_c, 0, 62, 54
1, 77640, Note_on_c, 0, 81, 0
1, 77640, Note_on_c, 0, 83, 71
1, 77760, Tempo, 356316
1, 77760, Note_on_c, 0, 83, 0
1, 77760, Note_on_c, 0, 62, 0
1, 77760, Note_on_c, 0, 84, 81
1, 77760, Note_on_c, 0, 52, 64
1, 77766, Control_c, 0, 64, 0
1, 77880, Control_c, 0, 64, 127
1, 77920, Note_on_c, 0, 52, 0
1, 77920, Note_on_c, 0, 55, 52
1, 78080, Note_on_c, 0, 55, 0
1, 78080, Note_on_c, 0, 60, 52
1, 78240, Tempo, 362450
1, 78240, Note_on_c, 0, 60, 0
1, 78240, Note_on_c, 0, 84, 0
1, 78240, Note_on_c, 0, 86, 87
1, 78240, Note_on_c, 0, 52, 66
1, 78360, Note_on_c, 0, 86, 0
1, 78360, Note_on_c, 0, 84, 75
1, 78400, Note_on_c, 0, 52, 0
1, 78400, Note_on_c, 0, 55, 58
1, 78480, Note_on_c, 0, 84, 0
1, 78480, Note_on_c, 0, 83, 78
1, 78560, Note_on_c, 0, 55, 0
1, 78560, Note_on_c, 0, 60, 59
1, 78600, Tempo, 437828
1, 78600, Note_on_c, 0, 83, 0
1, 78600, Note_on_c, 0, 84, 76
1, 78720, Tempo, 361359
1, 78720, Note_on_c, 0, 84, 0
1, 78720, Note_on_c, 0, 60, 0
1, 78720, Note_on_c, 0, 86, 105
1, 78720, Note_on_c, 0, 47, 67
1, 78720, Control_c, 0, 64, 0
1, 78833, Control_c, 0, 64, 127
1, 78879, Note_on_c, 0, 50, 60
1, 78880, Note_on_c, 0, 47, 0
1, 79038, Note_on_c, 0, 55, 61
1, 79039, Note_on_c, 0, 50, 0
1, 79197, Note_on_c, 0, 47, 68
1, 79197, Tempo, 363548
1, 79198, Note_on_c, 0, 55, 0
1, 79255, Tempo, 364653
1, 79313, Tempo, 365764
1, 79356, Note_on_c, 0, 50, 62
1, 79357, Note_on_c, 0, 47, 0
1, 79370, Tempo, 366883
1, 79428, Tempo, 368008
1, 79466, Tempo, 369140
1, 79516, Note_on_c, 0, 50, 0
1, 79518, Note_on_c, 0, 55, 62
1, 79524, Tempo, 370279
1, 79581, Tempo, 371425
1, 79639, Tempo, 372578
1, 79677, Tempo, 373739
1, 79678, Note_on_c, 0, 55, 0
1, 79680, Note_on_c, 0, 47, 71
1, 79735, Tempo, 374906
1, 79793, Tempo, 376081
1, 79850, Tempo, 377264
1, 79889, Tempo, 378453
1, 79946, Tempo, 379651
1, 80004, Tempo, 380856
1, 80061, Tempo, 382068
1, 80100, Tempo, 383289
1, 80160, Tempo, 398565
1, 80160, Note_on_c, 0, 47, 0
1, 80160, Note_on_c, 0, 86, 0
1, 80160, Note_on_c, 0, 75, 86
1, 80160, Note_on_c, 0, 87, 103
1, 80160, Control_c, 0, 64, 0
1, 80231, Control_c, 0, 64, 127
1, 80640, Tempo, 369140
1, 80640, Note_on_c, 0, 87, 0
1, 80640, Note_on_c, 0, 75, 0
1, 80640, Note_on_c, 0, 76, 92
1, 80640, Note_on_c, 0, 88, 108
1, 80640, Note_on_c, 0, 48, 72
1, 80640, Note_on_c, 0, 36, 72
1, 80640, Control_c, 0, 64, 0
1, 80869, Control_c, 0, 64, 127
1, 81120, Note_on_c, 0, 36, 0
1, 81120, Note_on_c, 0, 76, 0
1, 81120, Note_on_c, 0, 88, 0
1, 81120, Note_on_c, 0, 48, 0
1, 81120, Note_on_c, 0, 68, 64
1, 81120, Note_on_c, 0, 80, 75
1, 81132, Control_c, 0, 64, 0
1, 81326, Control_c, 0, 64, 127
1, 81600, Note_on_c, 0, 80, 0
1, 81600, Note_on_c, 0, 68, 0
1, 81600, Note_on_c, 0, 69, 69
1, 81600, Note_on_c, 0, 81, 82
1, 81608, Control_c, 0, 64, 0
1, 81783, Control_c, 0, 64, 127
1, 82080, Note_on_c, 0, 81, 0
1, 82080, Note_on_c, 0, 69, 0
1, 82080, Note_on_c, 0, 83, 89
1, 82080, Note_on_c, 0, 71, 75
1, 82098, Control_c, 0, 64, 0
1, 82286, Control_c, 0, 64, 127
1, 82560, Note_on_c, 0, 71, 0
1, 82560, Note_on_c, 0, 83, 0
1, 82560, Note_on_c, 0, 72, 80
1, 82560, Note_on_c, 0, 84, 95
1, 82560, Control_c, 0, 64, 0
1, 82854, Control_c, 0, 64, 127
1, 83040, Tempo, 394633
1, 83520, Tempo, 377264
1, 83520, Note_on_c, 0, 84, 0
1, 83520, Note_on_c, 0, 72, 0
1, 83520, Note_on_c, 0, 74, 76
1, 83520, Note_on_c, 0, 86, 90
1, 83527, Control_c, 0, 64, 0
1, 83734, Control_c, 0, 64, 127
1, 84000, Tempo, 422416
1, 84000, Note_on_c, 0, 86, 0
1, 84000, Note_on_c, 0, 74, 0
1, 84000, Note_on_c, 0, 76, 72
1, 84000, Note_on_c, 0, 88, 86
1, 84010, Control_c, 0, 64, 0
1, 84187, Control_c, 0, 64, 127
1, 84480, Tempo, 371425
1, 84480, Note_on_c, 0, 88, 0
1, 84480, Note_on_c, 0, 76, 0
1, 84480, Note_on_c, 0, 79, 70
1, 84480, Note_on_c, 0, 74, 59
1, 84480, Note_on_c, 0, 71, 42
1, 84480, Note_on_c, 0, 62, 42
1, 84480, Control_c, 0, 64, 0
1, 84597, Control_c, 0, 64, 127
1, 85380, Note_on_c, 0, 74, 0
1, 85380, Note_on_c, 0, 79, 0
1, 85380, Note_on_c, 0, 83, 58
1, 85440, Tempo, 376081
1, 85440, Note_on_c, 0, 83, 0
1, 85440, Note_on_c, 0, 71, 0
1, 85440, Note_on_c, 0, 78, 66
1, 85440, Note_on_c, 0, 81, 66
1, 85440, Note_on_c, 0, 72, 43
1, 85461, Control_c, 0, 64, 0
1, 85578, Control_c, 0, 64, 127
1, 86160, Tempo, 418002
1, 86160, Note_on_c, 0, 81, 0
1, 86160, Note_on_c, 0, 79, 56
1, 86400, Tempo, 370279
1, 86400, Note_on_c, 0, 79, 0
1, 86400, Note_on_c, 0, 72, 0
1, 86400, Note_on_c, 0, 78, 0
1, 86400, Note_on_c, 0, 62, 0
1, 86400, Note_on_c, 0, 79, 66
1, 86400, Note_on_c, 0, 67, 40
1, 86400, Note_on_c, 0, 71, 40
1, 86400, Control_c, 0, 64, 0
1, 86880, Note_on_c, 0, 71, 0
1, 86880, Note_on_c, 0, 67, 0
1, 86880, Note_on_c, 0, 79, 0
1, 87840, Tempo, 359195
1, 87840, Note_on_c, 0, 83, 57
1, 87840, Note_on_c, 0, 79, 36
1, 87880, Control_c, 0, 64, 127
1, 87880, Control_c, 0, 64, 127
1, 88000, Note_on_c, 0, 83, 0
1, 88000, Note_on_c, 0, 87, 61
1, 88160, Tempo, 405296
1, 88160, Note_on_c, 0, 87, 0
1, 88160, Note_on_c, 0, 88, 61
1, 88320, Tempo, 359195
1, 88320, Note_on_c, 0, 88, 0
1, 88320, Note_on_c, 0, 79, 0
1, 88320, Note_on_c, 0, 86, 58
1, 88320, Note_on_c, 0, 78, 38
1, 88320, Note_on_c, 0, 81, 38
1, 88332, Control_c, 0, 64, 0
1, 88332, Control_c, 0, 64, 0
1, 88440, Note_on_c, 0, 81, 0
1, 88440, Note_on_c, 0, 78, 0
1, 88440, Note_on_c, 0, 86, 0
1, 88800, Note_on_c, 0, 86, 49
1, 88920, Note_on_c, 0, 86, 0
1, 89280, Note_on_c, 0, 86, 49
1, 89400, Note_on_c, 0, 86, 0
1, 89600, Tempo, 399893
1, 89760, Tempo, 359195
1, 89760, Note_on_c, 0, 79, 57
1, 89760, Note_on_c, 0, 76, 36
1, 89800, Control_c, 0, 64, 127
1, 89920, Note_on_c, 0, 79, 0
1, 89920, Note_on_c, 0, 83, 44
1, 90080, Tempo, 405296
1, 90080, Note_on_c, 0, 83, 0
1, 90080, Note_on_c, 0, 84, 44
1, 90240, Tempo, 359195
1, 90240, Note_on_c, 0, 84, 0
1, 90240, Note_on_c, 0, 76, 0
1, 90240, Note_on_c, 0, 83, 58
1, 90240, Note_on_c, 0, 78, 38
1, 90240, Note_on_c, 0, 74, 38
1, 90252, Control_c, 0, 64, 0
1, 90360, Note_on_c, 0, 74, 0
1, 90360, Note_on_c, 0, 78, 0
1, 90360, Note_on_c, 0, 83, 0
1, 90720, Note_on_c, 0, 83, 49
1, 90840, Note_on_c, 0, 83, 0
1, 91200, Note_on_c, 0, 83, 49
1, 91320, Note_on_c, 0, 83, 0
1, 91680, Tempo, 359195
1, 91680, Note_on_c, 0, 76, 57
1, 91680, Note_on_c, 0, 72, 36
1, 91720, Control_c, 0, 64, 127
1, 91840, Note_on_c, 0, 76, 0
1, 91840, Note_on_c, 0, 80, 44
1, 92000, Tempo, 405296
1, 92000, Note_on_c, 0, 80, 0
1, 92000, Note_on_c, 0, 81, 44
1, 92160, Tempo, 359195
1, 92160, Note_on_c, 0, 81, 0
1, 92160, Note_on_c, 0, 72, 0
1, 92160, Note_on_c, 0, 79, 58
1, 92160, Note_on_c, 0, 71, 38
1, 92160, Note_on_c, 0, 74, 38
1, 92172, Control_c, 0, 64, 0
1, 92280, Note_on_c, 0, 74, 0
1, 92280, Note_on_c, 0, 71, 0
1, 92280, Note_on_c, 0, 79, 0
1, 92640, Note_on_c, 0, 79, 49
1, 92760, Note_on_c, 0, 79, 0
1, 93120, Note_on_c, 0, 79, 49
1, 93240, Note_on_c, 0, 79, 0
1, 93600, Tempo, 353899
1, 93600, Note_on_c, 0, 83, 61
1, 93600, Note_on_c, 0, 71, 36
1, 93600, Note_on_c, 0, 67, 36
1, 93650, Control_c, 0, 64, 127
1, 93960, Note_on_c, 0, 83, 0
1, 93960, Note_on_c, 0, 79, 54
1, 94080, Note_on_c, 0, 79, 0
1, 94080, Note_on_c, 0, 67, 0
1, 94080, Note_on_c, 0, 71, 0
1, 94080, Note_on_c, 0, 76, 62
1, 94080, Note_on_c, 0, 72, 41
1, 94080, Note_on_c, 0, 60, 41
1, 94080, Control_c, 0, 64, 0
1, 94200, Note_on_c, 0, 60, 0
1, 94200, Note_on_c, 0, 72, 0
1, 94200, Note_on_c, 0, 76, 0
1, 94320, Tempo, 373739
1, 94560, Tempo, 358123
1, 94560, Note_on_c, 0, 84, 61
1, 94669, Control_c, 0, 64, 127
1, 94920, Note_on_c, 0, 84, 0
1, 94920, Note_on_c, 0, 81, 53
1, 95040, Note_on_c, 0, 81, 0
1, 95040, Note_on_c, 0, 78, 61
1, 95040, Note_on_c, 0, 69, 38
1, 95040, Note_on_c, 0, 62, 38
1, 95057, Control_c, 0, 64, 0
1, 95160, Note_on_c, 0, 62, 0
1, 95160, Note_on_c, 0, 69, 0
1, 95160, Note_on_c, 0, 78, 0
1, 95280, Tempo, 370279
1, 95520, Tempo, 355999
1, 95520, Note_on_c, 0, 81, 60
1, 95629, Control_c, 0, 64, 127
1, 95760, Tempo, 365764
1, 95880, Note_on_c, 0, 81, 0
1, 95880, Note_on_c, 0, 78, 54
1, 96000, Tempo, 354946
1, 96000, Note_on_c, 0, 78, 0
1, 96000, Note_on_c, 0, 79, 61
1, 96000, Note_on_c, 0, 71, 41
1, 96000, Note_on_c, 0, 67, 41
1, 96029, Control_c, 0, 64, 0
1, 96120, Note_on_c, 0, 67, 0
1, 96120, Note_on_c, 0, 71, 0
1, 96120, Note_on_c, 0, 79, 0
1, 97440, Tempo, 359195
1, 97440, Note_on_c, 0, 83, 88
1, 97440, Note_on_c, 0, 79, 70
1, 97480, Control_c, 0, 64, 127
1, 97600, Note_on_c, 0, 83, 0
1, 97600, Note_on_c, 0, 87, 61
1, 97760, Tempo, 405296
1, 97760, Note_on_c, 0, 87, 0
1, 97760, Note_on_c, 0, 88, 61
1, 97920, Tempo, 359195
1, 97920, Note_on_c, 0, 88, 0
1, 97920, Note_on_c, 0, 79, 0
1, 97920, Note_on_c, 0, 81, 72
1, 97920, Note_on_c, 0, 78, 44
1, 97932, Control_c, 0, 64, 0
1, 98006, Control_c, 0, 64, 127
1, 98040, Note_on_c, 0, 78, 0
1, 98080, Note_on_c, 0, 81, 0
1, 98080, Note_on_c, 0, 85, 47
1, 98240, Note_on_c, 0, 85, 0
1, 98240, Note_on_c, 0, 86, 47
1, 98315, Control_c, 0, 64, 0
1, 98400, Note_on_c, 0, 86, 0
1, 98400, Note_on_c, 0, 81, 66
1, 98400, Note_on_c, 0, 78, 35
1, 98509, Control_c, 0, 64, 127
1, 98520, Note_on_c, 0, 78, 0
1, 98560, Note_on_c, 0, 81, 0
1, 98560, Note_on_c, 0, 85, 47
1, 98720, Note_on_c, 0, 85, 0
1, 98720, Note_on_c, 0, 86, 47
1, 98737, Control_c, 0, 64, 0
1, 98880, Note_on_c, 0, 86, 0
1, 98880, Note_on_c, 0, 81, 66
1, 98880, Note_on_c, 0, 78, 35
1, 98955, Control_c, 0, 64, 127
1, 99000, Note_on_c, 0, 78, 0
1, 99040, Note_on_c, 0, 81, 0
1, 99040, Note_on_c, 0, 85, 51
1, 99200, Tempo, 399893
1, 99200, Note_on_c, 0, 85, 0
1, 99200, Note_on_c, 0, 86, 52
1, 99223, Control_c, 0, 64, 0
1, 99360, Tempo, 359195
1, 99360, Note_on_c, 0, 86, 0
1, 99360, Note_on_c, 0, 83, 88
1, 99360, Note_on_c, 0, 79, 70
1, 99400, Control_c, 0, 64, 127
1, 99520, Note_on_c, 0, 83, 0
1, 99520, Note_on_c, 0, 87, 61
1, 99680, Tempo, 405296
1, 99680, Note_on_c, 0, 87, 0
1, 99680, Note_on_c, 0, 88, 61
1, 99840, Tempo, 359195
1, 99840, Note_on_c, 0, 88, 0
1, 99840, Note_on_c, 0, 79, 0
1, 99840, Note_on_c, 0, 81, 69
1, 99840, Note_on_c, 0, 78, 44
1, 99852, Control_c, 0, 64, 0
1, 99937, Control_c, 0, 64, 127
1, 99960, Note_on_c, 0, 78, 0
1, 100000, Note_on_c, 0, 81, 0
1, 100000, Note_on_c, 0, 85, 54
1, 100160, Note_on_c, 0, 85, 0
1, 100160, Note_on_c, 0, 86, 55
1, 100206, Control_c, 0, 64, 0
1, 100320, Note_on_c, 0, 86, 0
1, 100320, Note_on_c, 0, 81, 70
1, 100320, Note_on_c, 0, 78, 32
1, 100400, Control_c, 0, 64, 127
1, 100440, Note_on_c, 0, 78, 0
1, 100480, Note_on_c, 0, 81, 0
1, 100480, Note_on_c, 0, 85, 47
1, 100640, Note_on_c, 0, 85, 0
1, 100640, Note_on_c, 0, 86, 47
1, 100680, Control_c, 0, 64, 0
1, 100800, Note_on_c, 0, 86, 0
1, 100800, Note_on_c, 0, 81, 67
1, 100800, Note_on_c, 0, 78, 32
1, 100880, Control_c, 0, 64, 127
1, 100920, Note_on_c, 0, 78, 0
1, 100960, Note_on_c, 0, 81, 0
1, 100960, Note_on_c, 0, 85, 46
1, 101120, Tempo, 399893
1, 101120, Note_on_c, 0, 85, 0
1, 101120, Note_on_c, 0, 86, 49
1, 101189, Control_c, 0, 64, 0
1, 101280, Tempo, 359195
1, 101280, Note_on_c, 0, 86, 0
1, 101280, Note_on_c, 0, 79, 64
1, 101280, Note_on_c, 0, 76, 63
1, 101320, Control_c, 0, 64, 127
1, 101440, Note_on_c, 0, 79, 0
1, 101440, Note_on_c, 0, 83, 50
1, 101600, Tempo, 405296
1, 101600, Note_on_c, 0, 83, 0
1, 101600, Note_on_c, 0, 84, 50
1, 101760, Tempo, 359195
1, 101760, Note_on_c, 0, 84, 0
1, 101760, Note_on_c, 0, 76, 0
1, 101760, Note_on_c, 0, 78, 69
1, 101760, Note_on_c, 0, 74, 39
1, 101772, Control_c, 0, 64, 0
1, 101857, Control_c, 0, 64, 127
1, 101880, Note_on_c, 0, 74, 0
1, 101920, Note_on_c, 0, 78, 0
1, 101920, Note_on_c, 0, 82, 50
1, 102046, Control_c, 0, 64, 0
1, 102080, Note_on_c, 0, 82, 0
1, 102080, Note_on_c, 0, 83, 50
1, 102240, Note_on_c, 0, 83, 0
1, 102240, Note_on_c, 0, 78, 66
1, 102240, Note_on_c, 0, 74, 30
1, 102303, Control_c, 0, 64, 127
1, 102360, Note_on_c, 0, 74, 0
1, 102400, Note_on_c, 0, 78, 0
1, 102400, Note_on_c, 0, 82, 46
1, 102560, Note_on_c, 0, 82, 0
1, 102560, Note_on_c, 0, 83, 46
1, 102612, Control_c, 0, 64, 0
1, 102720, Note_on_c, 0, 83, 0
1, 102720, Note_on_c, 0, 78, 64
1, 102720, Note_on_c, 0, 74, 30
1, 102795, Control_c, 0, 64, 127
1, 102840, Note_on_c, 0, 74, 0
1, 102880, Note_on_c, 0, 78, 0
1, 102880, Note_on_c, 0, 82, 46
1, 103040, Tempo, 399893
1, 103040, Note_on_c, 0, 82, 0
1, 103040, Note_on_c, 0, 83, 46
1, 103200, Tempo, 359195
1, 103200, Note_on_c, 0, 83, 0
1, 103200, Note_on_c, 0, 79, 75
1, 103200, Note_on_c, 0, 76, 58
1, 103212, Control_c, 0, 64, 0
1, 103315, Control_c, 0, 64, 127
1, 103360, Note_on_c, 0, 79, 0
1, 103360, Note_on_c, 0, 83, 54
1, 103520, Tempo, 405296
1, 103520, Note_on_c, 0, 83, 0
1, 103520, Note_on_c, 0, 84, 54
1, 103680, Tempo, 359195
1, 103680, Note_on_c, 0, 84, 0
1, 103680, Note_on_c, 0, 76, 0
1, 103680, Note_on_c, 0, 78, 69
1, 103680, Note_on_c, 0, 74, 39
1, 103692, Control_c, 0, 64, 0
1, 103777, Control_c, 0, 64, 127
1, 103800, Note_on_c, 0, 74, 0
1, 103840, Note_on_c, 0, 78, 0
1, 103840, Note_on_c, 0, 82, 50
1, 104000, Note_on_c, 0, 82, 0
1, 104000, Note_on_c, 0, 83, 50
1, 104040, Control_c, 0, 64, 0
1, 104160, Note_on_c, 0, 83, 0
1, 104160, Note_on_c, 0, 78, 66
1, 104160, Note_on_c, 0, 74, 28
1, 104275, Control_c, 0, 64, 127
1, 104280, Note_on_c, 0, 74, 0
1, 104320, Note_on_c, 0, 78, 0
1, 104320, Note_on_c, 0, 82, 47
1, 104480, Note_on_c, 0, 82, 0
1, 104480, Note_on_c, 0, 83, 47
1, 104503, Control_c, 0, 64, 0
1, 104640, Note_on_c, 0, 83, 0
1, 104640, Note_on_c, 0, 78, 64
1, 104640, Note_on_c, 0, 74, 28
1, 104715, Control_c, 0, 64, 127
1, 104760, Note_on_c, 0, 74, 0
1, 104800, Note_on_c, 0, 78, 0
1, 104800, Note_on_c, 0, 82, 47
1, 104960, Tempo, 399893
1, 104960, Note_on_c, 0, 82, 0
1, 104960, Note_on_c, 0, 83, 48
1, 105012, Control_c, 0, 64, 0
1, 105120, Tempo, 359195
1, 105120, Note_on_c, 0, 83, 0
1, 105120, Note_on_c, 0, 76, 70
1, 105120, Note_on_c, 0, 72, 56
1, 105132, Control_c, 0, 64, 0
1, 105235, Control_c, 0, 64, 127
1, 105280, Note_on_c, 0, 76, 0
1, 105280, Note_on_c, 0, 80, 54
1, 105440, Tempo, 405296
1, 105440, Note_on_c, 0, 80, 0
1, 105440, Note_on_c, 0, 81, 54
1, 105600, Tempo, 359195
1, 105600, Note_on_c, 0, 81, 0
1, 105600, Note_on_c, 0, 72, 0
1, 105600, Note_on_c, 0, 74, 59
1, 105600, Note_on_c, 0, 71, 39
1, 105612, Control_c, 0, 64, 0
1, 105697, Control_c, 0, 64, 127
1, 105720, Note_on_c, 0, 71, 0
1, 105760, Note_on_c, 0, 74, 0
1, 105760, Note_on_c, 0, 78, 48
1, 105920, Note_on_c, 0, 78, 0
1, 105920, Note_on_c, 0, 79, 46
1, 105960, Control_c, 0, 64, 0
1, 106080, Note_on_c, 0, 79, 0
1, 106080, Note_on_c, 0, 74, 61
1, 106080, Note_on_c, 0, 71, 28
1, 106195, Control_c, 0, 64, 127
1, 106200, Note_on_c, 0, 71, 0
1, 106240, Note_on_c, 0, 74, 0
1, 106240, Note_on_c, 0, 78, 47
1, 106400, Note_on_c, 0, 78, 0
1, 106400, Note_on_c, 0, 79, 50
1, 106423, Control_c, 0, 64, 0
1, 106560, Note_on_c, 0, 79, 0
1, 106560, Note_on_c, 0, 74, 62
1, 106560, Note_on_c, 0, 71, 29
1, 106635, Control_c, 0, 64, 127
1, 106680, Note_on_c, 0, 71, 0
1, 106720, Note_on_c, 0, 74, 0
1, 106720, Note_on_c, 0, 78, 49
1, 106880, Tempo, 399893
1, 106880, Note_on_c, 0, 78, 0
1, 106880, Note_on_c, 0, 79, 49
1, 106932, Control_c, 0, 64, 0
1, 107040, Tempo, 359195
1, 107040, Note_on_c, 0, 79, 0
1, 107040, Note_on_c, 0, 76, 70
1, 107040, Note_on_c, 0, 72, 56
1, 107052, Control_c, 0, 64, 0
1, 107155, Control_c, 0, 64, 127
1, 107200, Note_on_c, 0, 76, 0
1, 107200, Note_on_c, 0, 80, 54
1, 107360, Tempo, 405296
1, 107360, Note_on_c, 0, 80, 0
1, 107360, Note_on_c, 0, 81, 54
1, 107520, Tempo, 359195
1, 107520, Note_on_c, 0, 81, 0
1, 107520, Note_on_c, 0, 72, 0
1, 107520, Note_on_c, 0, 74, 59
1, 107520, Note_on_c, 0, 71, 39
1, 107532, Control_c, 0, 64, 0
1, 107617, Control_c, 0, 64, 127
1, 107640, Note_on_c, 0, 71, 0
1, 107680, Note_on_c, 0, 74, 0
1, 107680, Note_on_c, 0, 78, 48
1, 107840, Note_on_c, 0, 78, 0
1, 107840, Note_on_c, 0, 79, 46
1, 107880, Control_c, 0, 64, 0
1, 108000, Note_on_c, 0, 79, 0
1, 108000, Note_on_c, 0, 74, 61
1, 108000, Note_on_c, 0, 71, 28
1, 108115, Control_c, 0, 64, 127
1, 108120, Note_on_c, 0, 71, 0
1, 108160, Note_on_c, 0, 74, 0
1, 108160, Note_on_c, 0, 78, 47
1, 108320, Note_on_c, 0, 78, 0
1, 108320, Note_on_c, 0, 79, 50
1, 108343, Control_c, 0, 64, 0
1, 108480, Note_on_c, 0, 79, 0
1, 108480, Note_on_c, 0, 74, 62
1, 108480, Note_on_c, 0, 71, 29
1, 108555, Control_c, 0, 64, 127
1, 108600, Note_on_c, 0, 71, 0
1, 108640, Note_on_c, 0, 74, 0
1, 108640, Note_on_c, 0, 78, 49
1, 108800, Tempo, 399893
1, 108800, Note_on_c, 0, 78, 0
1, 108800, Note_on_c, 0, 79, 49
1, 108852, Control_c, 0, 64, 0
1, 108960, Tempo, 359195
1, 108960, Note_on_c, 0, 79, 0
1, 108960, Note_on_c, 0, 76, 70
1, 108960, Note_on_c, 0, 72, 56
1, 108972, Control_c, 0, 64, 0
1, 109075, Control_c, 0, 64, 127
1, 109120, Note_on_c, 0, 76, 0
1, 109120, Note_on_c, 0, 80, 54
1, 109280, Tempo, 405296
1, 109280, Note_on_c, 0, 80, 0
1, 109280, Note_on_c, 0, 81, 54
1, 109440, Tempo, 359195
1, 109440, Note_on_c, 0, 81, 0
1, 109440, Note_on_c, 0, 72, 0
1, 109440, Note_on_c, 0, 74, 72
1, 109440, Note_on_c, 0, 71, 39
1, 109452, Control_c, 0, 64, 0
1, 109537, Control_c, 0, 64, 127
1, 109560, Note_on_c, 0, 71, 0
1, 109600, Note_on_c, 0, 74, 0
1, 109600, Note_on_c, 0, 78, 56
1, 109760, Note_on_c, 0, 78, 0
1, 109760, Note_on_c, 0, 79, 56
1, 109800, Control_c, 0, 64, 0
1, 109920, Note_on_c, 0, 79, 0
1, 109920, Note_on_c, 0, 74, 73
1, 109920, Note_on_c, 0, 66, 36
1, 110035, Control_c, 0, 64, 127
1, 110040, Note_on_c, 0, 66, 0
1, 110080, Note_on_c, 0, 74, 0
1, 110080, Note_on_c, 0, 80, 62
1, 110240, Note_on_c, 0, 80, 0
1, 110240, Note_on_c, 0, 81, 62
1, 110263, Control_c, 0, 64, 0
1, 110400, Note_on_c, 0, 81, 0
1, 110400, Note_on_c, 0, 74, 80
1, 110400, Note_on_c, 0, 67, 41
1, 110475, Control_c, 0, 64, 127
1, 110520, Note_on_c, 0, 67, 0
1, 110560, Note_on_c, 0, 74, 0
1, 110560, Note_on_c, 0, 82, 69
1, 110720, Tempo, 399893
1, 110720, Note_on_c, 0, 82, 0
1, 110720, Note_on_c, 0, 83, 65
1, 110772, Control_c, 0, 64, 0
1, 110880, Tempo, 362450
1, 110880, Note_on_c, 0, 83, 0
1, 110880, Note_on_c, 0, 74, 83
1, 110880, Note_on_c, 0, 69, 47
1, 110920, Control_c, 0, 64, 127
1, 111000, Note_on_c, 0, 69, 0
1, 111040, Note_on_c, 0, 74, 0
1, 111040, Note_on_c, 0, 83, 74
1, 111200, Note_on_c, 0, 83, 0
1, 111200, Note_on_c, 0, 84, 74
1, 111240, Tempo, 402576
1, 111252, Control_c, 0, 64, 0
1, 111360, Tempo, 405296
1, 111360, Note_on_c, 0, 84, 0
1, 111360, Note_on_c, 0, 74, 86
1, 111360, Note_on_c, 0, 71, 60
1, 111366, Control_c, 0, 64, 127
1, 111480, Tempo, 354946
1, 111491, Tempo, 349773
1, 111520, Note_on_c, 0, 74, 0
1, 111520, Note_on_c, 0, 85, 93
1, 111607, Tempo, 350795
1, 111680, Note_on_c, 0, 85, 0
1, 111680, Note_on_c, 0, 86, 92
1, 111722, Tempo, 351824
1, 111837, Tempo, 352858
1, 111840, Note_on_c, 0, 86, 0
1, 111840, Note_on_c, 0, 71, 0
1, 111840, Note_on_c, 0, 84, 89
1, 111843, Control_c, 0, 64, 0
1, 111915, Control_c, 0, 64, 127
1, 111952, Tempo, 353899
1, 112000, Note_on_c, 0, 84, 0
1, 112000, Note_on_c, 0, 83, 88
1, 112067, Tempo, 354946
1, 112160, Note_on_c, 0, 83, 0
1, 112160, Note_on_c, 0, 81, 86
1, 112183, Tempo, 355999
1, 112298, Tempo, 357058
1, 112320, Note_on_c, 0, 81, 0
1, 112320, Note_on_c, 0, 79, 83
1, 112413, Tempo, 358123
1, 112480, Note_on_c, 0, 79, 0
1, 112480, Note_on_c, 0, 78, 82
1, 112528, Tempo, 359195
1, 112640, Note_on_c, 0, 78, 0
1, 112640, Note_on_c, 0, 76, 80
1, 112643, Tempo, 360274
1, 112759, Tempo, 361359
1, 112800, Note_on_c, 0, 76, 0
1, 112800, Note_on_c, 0, 74, 78
1, 112874, Tempo, 362450
1, 112960, Note_on_c, 0, 74, 0
1, 112960, Note_on_c, 0, 72, 76
1, 112989, Tempo, 363548
1, 113104, Tempo, 364653
1, 113120, Note_on_c, 0, 72, 0
1, 113120, Note_on_c, 0, 71, 74
1, 113219, Tempo, 365764
1, 113280, Tempo, 384517
1, 113280, Note_on_c, 0, 71, 0
1, 113280, Note_on_c, 0, 69, 70
1, 113280, Note_on_c, 0, 48, 65
1, 113280, Control_c, 0, 64, 0
1, 113355, Control_c, 0, 64, 127
1, 113440, Note_on_c, 0, 69, 0
1, 113440, Note_on_c, 0, 76, 78
1, 113520, Tempo, 353899
1, 113546, Tempo, 354946
1, 113600, Note_on_c, 0, 76, 0
1, 113600, Note_on_c, 0, 74, 76
1, 113603, Tempo, 355999
1, 113642, Tempo, 357058
1, 113680, Tempo, 358123
1, 113719, Tempo, 359195
1, 113757, Tempo, 360274
1, 113760, Note_on_c, 0, 74, 0
1, 113760, Note_on_c, 0, 72, 73
1, 113760, Note_on_c, 0, 60, 55
1, 113795, Tempo, 361359
1, 113834, Tempo, 362450
1, 113872, Tempo, 363548
1, 113920, Note_on_c, 0, 72, 0
1, 113920, Note_on_c, 0, 71, 71
1, 113930, Tempo, 364653
1, 113968, Tempo, 365764
1, 114007, Tempo, 366883
1, 114045, Tempo, 368008
1, 114080, Note_on_c, 0, 71, 0
1, 114080, Note_on_c, 0, 69, 69
1, 114083, Tempo, 369140
1, 114122, Tempo, 370279
1, 114160, Tempo, 371425
1, 114199, Tempo, 372578
1, 114240, Tempo, 360274
1, 114240, Note_on_c, 0, 69, 0
1, 114240, Note_on_c, 0, 60, 0
1, 114240, Note_on_c, 0, 48, 0
1, 114240, Note_on_c, 0, 67, 83
1, 114240, Note_on_c, 0, 50, 54
1, 114240, Note_on_c, 0, 59, 54
1, 114248, Control_c, 0, 64, 0
1, 114400, Control_c, 0, 64, 127
1, 114698, Tempo, 358123
1, 114720, Note_on_c, 0, 59, 0
1, 114720, Note_on_c, 0, 67, 0
1, 114720, Note_on_c, 0, 66, 75
1, 114720, Note_on_c, 0, 57, 46
1, 114734, Control_c, 0, 64, 0
1, 114755, Tempo, 359195
1, 114794, Tempo, 360274
1, 114795, Control_c, 0, 64, 127
1, 114840, Note_on_c, 0, 66, 0
1, 114840, Note_on_c, 0, 67, 67
1, 114851, Tempo, 361359
1, 114890, Tempo, 362450
1, 114928, Tempo, 363548
1, 114960, Note_on_c, 0, 67, 0
1, 114960, Note_on_c, 0, 66, 75
1, 114986, Tempo, 364653
1, 115024, Tempo, 365764
1, 115082, Tempo, 366883
1, 115120, Tempo, 368008
1, 115159, Tempo, 369140
1, 115200, Tempo, 415225
1, 115200, Note_on_c, 0, 66, 0
1, 115200, Note_on_c, 0, 57, 0
1, 115200, Note_on_c, 0, 50, 0
1, 115200, Note_on_c, 0, 55, 56
1, 115200, Note_on_c, 0, 50, 56
1, 115200, Note_on_c, 0, 47, 56
1, 115200, Control_c, 0, 64, 0
1, 115315, Control_c, 0, 64, 127
1, 115320, Tempo, 354946
1, 115331, Tempo, 349773
1, 115360, Note_on_c, 0, 85, 78
1, 115447, Tempo, 350795
1, 115520, Note_on_c, 0, 85, 0
1, 115520, Note_on_c, 0, 86, 78
1, 115562, Tempo, 351824
1, 115677, Tempo, 352858
1, 115680, Note_on_c, 0, 86, 0
1, 115680, Note_on_c, 0, 84, 84
1, 115683, Control_c, 0, 64, 0
1, 115755, Control_c, 0, 64, 127
1, 115792, Tempo, 353899
1, 115840, Note_on_c, 0, 84, 0
1, 115840, Note_on_c, 0, 83, 83
1, 115907, Tempo, 354946
1, 116000, Note_on_c, 0, 83, 0
1, 116000, Note_on_c, 0, 81, 81
1, 116023, Tempo, 355999
1, 116138, Tempo, 357058
1, 116160, Note_on_c, 0, 81, 0
1, 116160, Note_on_c, 0, 55, 0
1, 116160, Note_on_c, 0, 50, 0
1, 116160, Note_on_c, 0, 47, 0
1, 116160, Note_on_c, 0, 79, 80
1, 116253, Tempo, 358123
1, 116320, Note_on_c, 0, 79, 0
1, 116320, Note_on_c, 0, 78, 78
1, 116368, Tempo, 359195
1, 116480, Note_on_c, 0, 78, 0
1, 116480, Note_on_c, 0, 76, 77
1, 116483, Tempo, 360274
1, 116599, Tempo, 361359
1, 116640, Note_on_c, 0, 76, 0
1, 116640, Note_on_c, 0, 74, 75
1, 116714, Tempo, 362450
1, 116800, Note_on_c, 0, 74, 0
1, 116800, Note_on_c, 0, 72, 73
1, 116829, Tempo, 363548
1, 116944, Tempo, 364653
1, 116960, Note_on_c, 0, 72, 0
1, 116960, Note_on_c, 0, 71, 72
1, 117059, Tempo, 365764
1, 117120, Tempo, 384517
1, 117120, Note_on_c, 0, 71, 0
1, 117120, Note_on_c, 0, 69, 70
1, 117120, Note_on_c, 0, 48, 65
1, 117120, Control_c, 0, 64, 0
1, 117195, Control_c, 0, 64, 127
1, 117280, Note_on_c, 0, 69, 0
1, 117280, Note_on_c, 0, 76, 78
1, 117360, Tempo, 353899
1, 117386, Tempo, 354946
1, 117440, Note_on_c, 0, 76, 0
1, 117440, Note_on_c, 0, 74, 76
1, 117443, Tempo, 355999
1, 117482, Tempo, 357058
1, 117520, Tempo, 358123
1, 117559, Tempo, 359195
1, 117597, Tempo, 360274
1, 117600, Note_on_c, 0, 74, 0
1, 117600, Note_on_c, 0, 72, 73
1, 117600, Note_on_c, 0, 60, 55
1, 117635, Tempo, 361359
1, 117674, Tempo, 362450
1, 117712, Tempo, 363548
1, 117760, Note_on_c, 0, 72, 0
1, 117760, Note_on_c, 0, 71, 71
1, 117770, Tempo, 364653
1, 117808, Tempo, 365764
1, 117847, Tempo, 366883
1, 117885, Tempo, 368008
1, 117920, Note_on_c, 0, 71, 0
1, 117920, Note_on_c, 0, 69, 69
1, 117923, Tempo, 369140
1, 117962, Tempo, 370279
1, 118000, Tempo, 371425
1, 118039, Tempo, 372578
1, 118080, Tempo, 360274
1, 118080, Note_on_c, 0, 69, 0
1, 118080, Note_on_c, 0, 60, 0
1, 118080, Note_on_c, 0, 48, 0
1, 118080, Note_on_c, 0, 67, 83
1, 118080, Note_on_c, 0, 50, 54
1, 118080, Note_on_c, 0, 59, 54
1, 118088, Control_c, 0, 64, 0
1, 118240, Control_c, 0, 64, 127
1, 118538, Tempo, 358123
1, 118560, Note_on_c, 0, 59, 0
1, 118560, Note_on_c, 0, 67, 0
1, 118560, Note_on_c, 0, 66, 75
1, 118560, Note_on_c, 0, 57, 46
1, 118574, Control_c, 0, 64, 0
1, 118595, Tempo, 359195
1, 118634, Tempo, 360274
1, 118635, Control_c, 0, 64, 127
1, 118680, Note_on_c, 0, 66, 0
1, 118680, Note_on_c, 0, 67, 67
1, 118691, Tempo, 361359
1, 118730, Tempo, 362450
1, 118768, Tempo, 363548
1, 118800, Note_on_c, 0, 67, 0
1, 118800, Note_on_c, 0, 66, 75
1, 118826, Tempo, 364653
1, 118864, Tempo, 365764
1, 118922, Tempo, 366883
1, 118960, Tempo, 368008
1, 118999, Tempo, 369140
1, 119040, Tempo, 354946
1, 119040, Note_on_c, 0, 66, 0
1, 119040, Note_on_c, 0, 57, 0
1, 119040, Note_on_c, 0, 50, 0
1, 119040, Note_on_c, 0, 67, 63
1, 119040, Note_on_c, 0, 55, 40
1, 119051, Control_c, 0, 64, 0
1, 119139, Control_c, 0, 64, 127
1, 119200, Note_on_c, 0, 55, 0
1, 119200, Note_on_c, 0, 59, 32
1, 119360, Note_on_c, 0, 59, 0
1, 119360, Note_on_c, 0, 62, 32
1, 119520, Note_on_c, 0, 62, 0
1, 119520, Note_on_c, 0, 67, 0
1, 119520, Note_on_c, 0, 55, 40
1, 119680, Note_on_c, 0, 55, 0
1, 119680, Note_on_c, 0, 59, 34
1, 119840, Note_on_c, 0, 59, 0
1, 119840, Note_on_c, 0, 62, 34
1, 120000, Tempo, 356316
1, 120000, Note_on_c, 0, 62, 0
1, 120000, Note_on_c, 0, 55, 40
1, 120160, Note_on_c, 0, 55, 0
1, 120160, Note_on_c, 0, 59, 32
1, 120320, Note_on_c, 0, 59, 0
1, 120320, Note_on_c, 0, 62, 32
1, 120480, Tempo, 353586
1, 120480, Note_on_c, 0, 62, 0
1, 120480, Note_on_c, 0, 74, 57
1, 120480, Note_on_c, 0, 50, 40
1, 120494, Control_c, 0, 64, 0
1, 120607, Control_c, 0, 64, 127
1, 120640, Note_on_c, 0, 50, 0
1, 120640, Note_on_c, 0, 54, 32
1, 120800, Note_on_c, 0, 54, 0
1, 120800, Note_on_c, 0, 62, 33
1, 120840, Note_on_c, 0, 74, 0
1, 120840, Note_on_c, 0, 78, 57
1, 120960, Tempo, 354946
1, 120960, Note_on_c, 0, 78, 0
1, 120960, Note_on_c, 0, 62, 0
1, 120960, Note_on_c, 0, 79, 64
1, 120960, Note_on_c, 0, 55, 39
1, 120960, Control_c, 0, 64, 0
1, 121066, Control_c, 0, 64, 127
1, 121080, Note_on_c, 0, 79, 0
1, 121120, Note_on_c, 0, 55, 0
1, 121120, Note_on_c, 0, 59, 29
1, 121280, Note_on_c, 0, 59, 0
1, 121280, Note_on_c, 0, 62, 29
1, 121440, Note_on_c, 0, 62, 0
1, 121440, Note_on_c, 0, 79, 57
1, 121440, Note_on_c, 0, 55, 39
1, 121560, Note_on_c, 0, 79, 0
1, 121600, Note_on_c, 0, 55, 0
1, 121600, Note_on_c, 0, 59, 30
1, 121760, Note_on_c, 0, 59, 0
1, 121760, Note_on_c, 0, 62, 30
1, 121920, Tempo, 356316
1, 121920, Note_on_c, 0, 62, 0
1, 121920, Note_on_c, 0, 79, 57
1, 121920, Note_on_c, 0, 55, 39
1, 122040, Note_on_c, 0, 79, 0
1, 122080, Note_on_c, 0, 55, 0
1, 122080, Note_on_c, 0, 59, 30
1, 122160, Note_on_c, 0, 83, 54
1, 122240, Note_on_c, 0, 83, 0
1, 122240, Note_on_c, 0, 59, 0
1, 122240, Note_on_c, 0, 81, 51
1, 122240, Note_on_c, 0, 62, 30
1, 122320, Note_on_c, 0, 81, 0
1, 122320, Note_on_c, 0, 79, 51
1, 122400, Tempo, 353586
1, 122400, Note_on_c, 0, 79, 0
1, 122400, Note_on_c, 0, 62, 0
1, 122400, Note_on_c, 0, 81, 61
1, 122400, Note_on_c, 0, 50, 39
1, 122409, Control_c, 0, 64, 0
1, 122492, Control_c, 0, 64, 127
1, 122560, Note_on_c, 0, 50, 0
1, 122560, Note_on_c, 0, 54, 33
1, 122720, Note_on_c, 0, 54, 0
1, 122720, Note_on_c, 0, 62, 33
1, 122760, Note_on_c, 0, 81, 0
1, 122760, Note_on_c, 0, 86, 57
1, 122880, Tempo, 354946
1, 122880, Note_on_c, 0, 86, 0
1, 122880, Note_on_c, 0, 62, 0
1, 122880, Note_on_c, 0, 83, 63
1, 122880, Note_on_c, 0, 55, 40
1, 122891, Control_c, 0, 64, 0
1, 122979, Control_c, 0, 64, 127
1, 123000, Note_on_c, 0, 83, 0
1, 123040, Note_on_c, 0, 55, 0
1, 123040, Note_on_c, 0, 59, 32
1, 123200, Note_on_c, 0, 59, 0
1, 123200, Note_on_c, 0, 62, 32
1, 123360, Note_on_c, 0, 62, 0
1, 123360, Note_on_c, 0, 79, 57
1, 123360, Note_on_c, 0, 55, 40
1, 123480, Note_on_c, 0, 79, 0
1, 123520, Note_on_c, 0, 55, 0
1, 123520, Note_on_c, 0, 59, 34
1, 123680, Note_on_c, 0, 59, 0
1, 123680, Note_on_c, 0, 62, 34
1, 123840, Tempo, 363636
1, 123840, Note_on_c, 0, 62, 0
1, 123840, Note_on_c, 0, 79, 57
1, 123840, Note_on_c, 0, 55, 40
1, 123960, Note_on_c, 0, 79, 0
1, 124000, Note_on_c, 0, 55, 0
1, 124000, Note_on_c, 0, 59, 32
1, 124160, Note_on_c, 0, 59, 0
1, 124160, Note_on_c, 0, 62, 32
1, 124320, Tempo, 353586
1, 124320, Note_on_c, 0, 62, 0
1, 124320, Note_on_c, 0, 74, 81
1, 124320, Note_on_c, 0, 50, 63
1, 124334, Control_c, 0, 64, 0
1, 124447, Control_c, 0, 64, 127
1, 124480, Note_on_c, 0, 50, 0
1, 124480, Note_on_c, 0, 54, 50
1, 124640, Note_on_c, 0, 54, 0
1, 124640, Note_on_c, 0, 62, 52
1, 124680, Note_on_c, 0, 74, 0
1, 124680, Note_on_c, 0, 78, 81
1, 124800, Tempo, 354946
1, 124800, Note_on_c, 0, 78, 0
1, 124800, Note_on_c, 0, 62, 0
1, 124800, Note_on_c, 0, 79, 91
1, 124800, Note_on_c, 0, 55, 62
1, 124800, Control_c, 0, 64, 0
1, 124906, Control_c, 0, 64, 127
1, 124920, Note_on_c, 0, 79, 0
1, 124960, Note_on_c, 0, 55, 0
1, 124960, Note_on_c, 0, 59, 46
1, 125120, Note_on_c, 0, 59, 0
1, 125120, Note_on_c, 0, 62, 46
1, 125280, Note_on_c, 0, 62, 0
1, 125280, Note_on_c, 0, 79, 81
1, 125280, Note_on_c, 0, 55, 62
1, 125400, Note_on_c, 0, 79, 0
1, 125440, Note_on_c, 0, 55, 0
1, 125440, Note_on_c, 0, 59, 48
1, 125600, Note_on_c, 0, 59, 0
1, 125600, Note_on_c, 0, 62, 48
1, 125760, Tempo, 356316
1, 125760, Note_on_c, 0, 62, 0
1, 125760, Note_on_c, 0, 79, 81
1, 125760, Note_on_c, 0, 55, 62
1, 125880, Note_on_c, 0, 79, 0
1, 125920, Note_on_c, 0, 55, 0
1, 125920, Note_on_c, 0, 59, 48
1, 126000, Note_on_c, 0, 83, 77
1, 126080, Note_on_c, 0, 83, 0
1, 126080, Note_on_c, 0, 59, 0
1, 126080, Note_on_c, 0, 81, 72
1, 126080, Note_on_c, 0, 62, 48
1, 126160, Note_on_c, 0, 81, 0
1, 126160, Note_on_c, 0, 79, 72
1, 126240, Tempo, 353586
1, 126240, Note_on_c, 0, 79, 0
1, 126240, Note_on_c, 0, 62, 0
1, 126240, Note_on_c, 0, 81, 86
1, 126240, Note_on_c, 0, 50, 62
1, 126249, Control_c, 0, 64, 0
1, 126332, Control_c, 0, 64, 127
1, 126400, Note_on_c, 0, 50, 0
1, 126400, Note_on_c, 0, 54, 52
1, 126560, Note_on_c, 0, 54, 0
1, 126560, Note_on_c, 0, 62, 52
1, 126600, Note_on_c, 0, 81, 0
1, 126600, Note_on_c, 0, 83, 81
1, 126720, Tempo, 354946
1, 126720, Note_on_c, 0, 83, 0
1, 126720, Note_on_c, 0, 62, 0
1, 126720, Note_on_c, 0, 79, 91
1, 126720, Note_on_c, 0, 55, 62
1, 126720, Control_c, 0, 64, 0
1, 126826, Control_c, 0, 64, 127
1, 126880, Note_on_c, 0, 55, 0
1, 126880, Note_on_c, 0, 59, 46
1, 127040, Note_on_c, 0, 59, 0
1, 127040, Note_on_c, 0, 62, 46
1, 127200, Note_on_c, 0, 62, 0
1, 127200, Note_on_c, 0, 79, 0
1, 127200, Note_on_c, 0, 55, 62
1, 127202, Tempo, 359195
1, 127360, Note_on_c, 0, 55, 0
1, 127360, Note_on_c, 0, 59, 48
1, 127520, Note_on_c, 0, 59, 0
1, 127520, Note_on_c, 0, 62, 48
1, 127662, Tempo, 366883
1, 127680, Note_on_c, 0, 62, 0
1, 127680, Note_on_c, 0, 74, 81
1, 127680, Note_on_c, 0, 71, 81
1, 127680, Note_on_c, 0, 55, 62
1, 127840, Note_on_c, 0, 55, 0
1, 127840, Note_on_c, 0, 59, 48
1, 128000, Note_on_c, 0, 59, 0
1, 128000, Note_on_c, 0, 62, 48
1, 128142, Tempo, 376081
1, 128160, Note_on_c, 0, 62, 0
1, 128160, Note_on_c, 0, 71, 0
1, 128160, Note_on_c, 0, 74, 0
1, 128160, Note_on_c, 0, 55, 62
1, 128181, Tempo, 377264
1, 128200, Tempo, 378453
1, 128219, Tempo, 379651
1, 128238, Tempo, 380856
1, 128258, Tempo, 382068
1, 128277, Tempo, 383289
1, 128296, Tempo, 384517
1, 128315, Tempo, 385753
1, 128320, Note_on_c, 0, 55, 0
1, 128320, Note_on_c, 0, 59, 52
1, 128334, Tempo, 386997
1, 128354, Tempo, 388249
1, 128373, Tempo, 389509
1, 128392, Tempo, 390778
1, 128411, Tempo, 392054
1, 128430, Tempo, 393339
1, 128450, Tempo, 394633
1, 128480, Tempo, 500000
1, 128480, Note_on_c, 0, 59, 0
1, 128480, Note_on_c, 0, 62, 52
1, 128640, Tempo, 361359
1, 128640, Note_on_c, 0, 62, 0
1, 128640, Note_on_c, 0, 71, 81
1, 128640, Note_on_c, 0, 67, 81
1, 128640, Note_on_c, 0, 55, 62
1, 129120, Note_on_c, 0, 55, 0
1, 129120, Note_on_c, 0, 67, 0
1, 129120, Note_on_c, 0, 71, 0
1, 129156, Control_c, 0, 64, 0
1, 130080, Tempo, 349589
1, 130080, Marker_t, "Teil 1 Wiederholung"
1, 130080, Note_on_c, 0, 72, 50
1, 130101, Control_c, 0, 64, 127
1, 130440, Tempo, 372093
1, 130440, Note_on_c, 0, 72, 0
1, 130440, Note_on_c, 0, 76, 50
1, 130560, Tempo, 354946
1, 130560, Note_on_c, 0, 76, 0
1, 130560, Note_on_c, 0, 79, 57
1, 130560, Note_on_c, 0, 64, 52
1, 130560, Note_on_c, 0, 60, 44
1, 130564, Control_c, 0, 64, 0
1, 130680, Note_on_c, 0, 60, 0
1, 130680, Note_on_c, 0, 64, 0
1, 130680, Note_on_c, 0, 79, 0
1, 131040, Note_on_c, 0, 79, 50
1, 131160, Note_on_c, 0, 79, 0
1, 131520, Tempo, 366211
1, 131520, Note_on_c, 0, 79, 50
1, 131640, Note_on_c, 0, 79, 0
1, 131940, Note_on_c, 0, 83, 60
1, 132000, Tempo, 353586
1, 132000, Note_on_c, 0, 83, 0
1, 132000, Note_on_c, 0, 84, 71
1, 132120, Note_on_c, 0, 84, 0
1, 132480, Note_on_c, 0, 79, 50
1, 132480, Note_on_c, 0, 64, 52
1, 132480, Note_on_c, 0, 60, 44
1, 132600, Note_on_c, 0, 60, 0
1, 132600, Note_on_c, 0, 64, 0
1, 132600, Note_on_c, 0, 79, 0
1, 132960, Note_on_c, 0, 79, 43
1, 133080, Note_on_c, 0, 79, 0
1, 133440, Tempo, 367670
1, 133440, Note_on_c, 0, 79, 43
1, 133560, Note_on_c, 0, 79, 0
1, 133920, Tempo, 348270
1, 133920, Note_on_c, 0, 76, 50
1, 134054, Control_c, 0, 64, 127
1, 134280, Tempo, 372093
1, 134280, Note_on_c, 0, 76, 0
1, 134280, Note_on_c, 0, 72, 50
1, 134400, Tempo, 350918
1, 134400, Note_on_c, 0, 72, 0
1, 134400, Note_on_c, 0, 71, 57
1, 134400, Note_on_c, 0, 65, 52
1, 134400, Note_on_c, 0, 55, 44
1, 134400, Note_on_c, 0, 62, 44
1, 134400, Control_c, 0, 64, 0
1, 134520, Note_on_c, 0, 62, 0
1, 134520, Note_on_c, 0, 71, 0
1, 134520, Note_on_c, 0, 65, 0
1, 134520, Note_on_c, 0, 55, 0
1, 134880, Note_on_c, 0, 71, 53
1, 134880, Note_on_c, 0, 55, 38
1, 134880, Note_on_c, 0, 62, 38
1, 134880, Note_on_c, 0, 65, 45
1, 135000, Note_on_c, 0, 65, 0
1, 135000, Note_on_c, 0, 71, 0
1, 135000, Note_on_c, 0, 55, 0
1, 135000, Note_on_c, 0, 62, 0
1, 135360, Tempo, 360274
1, 135360, Note_on_c, 0, 72, 57
1, 135360, Note_on_c, 0, 60, 44
1, 135360, Note_on_c, 0, 55, 44
1, 135360, Note_on_c, 0, 64, 52
1, 135480, Note_on_c, 0, 64, 0
1, 135480, Note_on_c, 0, 72, 0
1, 135480, Note_on_c, 0, 60, 0
1, 135480, Note_on_c, 0, 55, 0
1, 135840, Tempo, 431655
1, 135840, Note_on_c, 0, 72, 52
1, 135840, Note_on_c, 0, 60, 39
1, 135840, Note_on_c, 0, 64, 47
1, 135840, Note_on_c, 0, 55, 39
1, 135960, Note_on_c, 0, 55, 0
1, 135960, Note_on_c, 0, 72, 0
1, 135960, Note_on_c, 0, 60, 0
1, 135960, Note_on_c, 0, 64, 0
1, 136320, Tempo, 350918
1, 136320, Note_on_c, 0, 74, 57
1, 136320, Note_on_c, 0, 59, 44
1, 136320, Note_on_c, 0, 55, 44
1, 136320, Note_on_c, 0, 62, 52
1, 136800, Note_on_c, 0, 62, 0
1, 136800, Note_on_c, 0, 74, 0
1, 136800, Note_on_c, 0, 59, 0
1, 136800, Note_on_c, 0, 55, 0
1, 137760, Tempo, 348270
1, 137760, Note_on_c, 0, 67, 50
1, 137880, Control_c, 0, 64, 127
1, 138120, Tempo, 392054
1, 138120, Note_on_c, 0, 67, 0
1, 138120, Note_on_c, 0, 74, 47
1, 138240, Tempo, 345662
1, 138240, Note_on_c, 0, 74, 0
1, 138240, Note_on_c, 0, 77, 58
1, 138240, Note_on_c, 0, 59, 40
1, 138240, Note_on_c, 0, 67, 48
1, 138240, Control_c, 0, 64, 0
1, 138360, Note_on_c, 0, 67, 0
1, 138360, Note_on_c, 0, 59, 0
1, 138360, Note_on_c, 0, 77, 0
1, 138720, Tempo, 348270
1, 138720, Note_on_c, 0, 77, 50
1, 138847, Control_c, 0, 64, 127
1, 139080, Tempo, 410846
1, 139080, Note_on_c, 0, 77, 0
1, 139080, Note_on_c, 0, 79, 48
1, 139200, Tempo, 348270
1, 139200, Note_on_c, 0, 79, 0
1, 139200, Note_on_c, 0, 76, 58
1, 139200, Note_on_c, 0, 67, 48
1, 139200, Note_on_c, 0, 60, 40
1, 139207, Control_c, 0, 64, 0
1, 139320, Note_on_c, 0, 60, 0
1, 139320, Note_on_c, 0, 67, 0
1, 139320, Note_on_c, 0, 76, 0
1, 139680, Tempo, 345662
1, 139680, Note_on_c, 0, 76, 50
1, 139807, Control_c, 0, 64, 127
1, 140040, Tempo, 410846
1, 140040, Note_on_c, 0, 76, 0
1, 140040, Note_on_c, 0, 77, 50
1, 140160, Tempo, 344372
1, 140160, Note_on_c, 0, 77, 0
1, 140160, Note_on_c, 0, 74, 59
1, 140160, Note_on_c, 0, 65, 40
1, 140160, Note_on_c, 0, 67, 48
1, 140177, Control_c, 0, 64, 0
1, 140280, Note_on_c, 0, 67, 0
1, 140280, Note_on_c, 0, 65, 0
1, 140280, Note_on_c, 0, 74, 0
1, 140640, Tempo, 349589
1, 140640, Note_on_c, 0, 74, 50
1, 140786, Control_c, 0, 64, 127
1, 141000, Tempo, 408052
1, 141000, Note_on_c, 0, 74, 0
1, 141000, Note_on_c, 0, 76, 47
1, 141120, Tempo, 343092
1, 141120, Note_on_c, 0, 76, 0
1, 141120, Note_on_c, 0, 72, 57
1, 141120, Note_on_c, 0, 67, 45
1, 141120, Note_on_c, 0, 64, 38
1, 141132, Control_c, 0, 64, 0
1, 141240, Note_on_c, 0, 64, 0
1, 141240, Note_on_c, 0, 67, 0
1, 141240, Note_on_c, 0, 72, 0
1, 141600, Tempo, 346961
1, 141600, Note_on_c, 0, 72, 52
1, 141720, Note_on_c, 0, 72, 0
1, 141960, Tempo, 405296
1, 142080, Tempo, 345662
1, 142080, Note_on_c, 0, 74, 57
1, 142080, Note_on_c, 0, 53, 47
1, 142080, Note_on_c, 0, 65, 56
1, 142200, Note_on_c, 0, 65, 0
1, 142200, Note_on_c, 0, 53, 0
1, 142200, Note_on_c, 0, 74, 0
1, 142560, Note_on_c, 0, 74, 52
1, 142560, Note_on_c, 0, 65, 52
1, 142560, Note_on_c, 0, 53, 44
1, 142680, Note_on_c, 0, 53, 0
1, 142680, Note_on_c, 0, 65, 0
1, 142680, Note_on_c, 0, 74, 0
1, 143040, Note_on_c, 0, 71, 58
1, 143040, Note_on_c, 0, 55, 49
1, 143040, Note_on_c, 0, 62, 58
1, 143160, Note_on_c, 0, 62, 0
1, 143160, Note_on_c, 0, 55, 0
1, 143160, Note_on_c, 0, 71, 0
1, 143520, Tempo, 362450
1, 143520, Note_on_c, 0, 71, 52
1, 143520, Note_on_c, 0, 62, 52
1, 143520, Note_on_c, 0, 55, 44
1, 143640, Note_on_c, 0, 55, 0
1, 143640, Note_on_c, 0, 62, 0
1, 143640, Note_on_c, 0, 71, 0
1, 144000, Tempo, 342779
1, 144000, Note_on_c, 0, 72, 63
1, 144000, Note_on_c, 0, 60, 49
1, 144113, Control_c, 0, 64, 127
1, 144160, Note_on_c, 0, 60, 0
1, 144160, Note_on_c, 0, 64, 36
1, 144320, Note_on_c, 0, 64, 0
1, 144320, Note_on_c, 0, 67, 36
1, 144480, Note_on_c, 0, 67, 0
1, 144480, Note_on_c, 0, 72, 0
1, 144480, Note_on_c, 0, 60, 50
1, 144640, Note_on_c, 0, 60, 0
1, 144640, Note_on_c, 0, 64, 38
1, 144800, Note_on_c, 0, 64, 0
1, 144800, Note_on_c, 0, 67, 38
1, 144960, Note_on_c, 0, 67, 0
1, 144960, Note_on_c, 0, 60, 52
1, 145120, Note_on_c, 0, 60, 0
1, 145120, Note_on_c, 0, 64, 43
1, 145280, Note_on_c, 0, 64, 0
1, 145280, Note_on_c, 0, 67, 43
1, 145440, Tempo, 349589
1, 145440, Note_on_c, 0, 67, 0
1, 145440, Note_on_c, 0, 72, 69
1, 145440, Note_on_c, 0, 60, 53
1, 145600, Note_on_c, 0, 60, 0
1, 145600, Note_on_c, 0, 64, 44
1, 145760, Note_on_c, 0, 64, 0
1, 145760, Note_on_c, 0, 67, 44
1, 145800, Tempo, 402576
1, 145800, Note_on_c, 0, 72, 0
1, 145800, Note_on_c, 0, 76, 71
1, 145920, Tempo, 354946
1, 145920, Note_on_c, 0, 76, 0
1, 145920, Note_on_c, 0, 67, 0
1, 145920, Note_on_c, 0, 79, 83
1, 145920, Note_on_c, 0, 60, 56
1, 145931, Control_c, 0, 64, 0
1, 145987, Control_c, 0, 64, 127
1, 146040, Note_on_c, 0, 79, 0
1, 146080, Note_on_c, 0, 60, 0
1, 146080, Note_on_c, 0, 64, 43
1, 146240, Note_on_c, 0, 64, 0
1, 146240, Note_on_c, 0, 67, 43
1, 146400, Note_on_c, 0, 67, 0
1, 146400, Note_on_c, 0, 79, 75
1, 146400, Note_on_c, 0, 60, 56
1, 146520, Note_on_c, 0, 79, 0
1, 146560, Note_on_c, 0, 60, 0
1, 146560, Note_on_c, 0, 64, 45
1, 146720, Note_on_c, 0, 64, 0
1, 146720, Note_on_c, 0, 67, 46
1, 146880, Tempo, 356316
1, 146880, Note_on_c, 0, 67, 0
1, 146880, Note_on_c, 0, 79, 76
1, 146880, Note_on_c, 0, 60, 55
1, 147000, Note_on_c, 0, 79, 0
1, 147040, Note_on_c, 0, 60, 0
1, 147040, Note_on_c, 0, 64, 44
1, 147200, Note_on_c, 0, 64, 0
1, 147200, Note_on_c, 0, 67, 45
1, 147300, Note_on_c, 0, 83, 78
1, 147360, Tempo, 353586
1, 147360, Note_on_c, 0, 83, 0
1, 147360, Note_on_c, 0, 67, 0
1, 147360, Note_on_c, 0, 84, 92
1, 147360, Note_on_c, 0, 60, 69
1, 147520, Note_on_c, 0, 60, 0
1, 147520, Note_on_c, 0, 64, 60
1, 147680, Note_on_c, 0, 64, 0
1, 147680, Note_on_c, 0, 67, 60
1, 147840, Note_on_c, 0, 67, 0
1, 147840, Note_on_c, 0, 84, 0
1, 147840, Note_on_c, 0, 79, 85
1, 147840, Note_on_c, 0, 60, 56
1, 147840, Control_c, 0, 64, 0
1, 147918, Control_c, 0, 64, 127
1, 147960, Note_on_c, 0, 79, 0
1, 148000, Note_on_c, 0, 60, 0
1, 148000, Note_on_c, 0, 64, 41
1, 148160, Note_on_c, 0, 64, 0
1, 148160, Note_on_c, 0, 67, 41
1, 148320, Note_on_c, 0, 67, 0
1, 148320, Note_on_c, 0, 79, 74
1, 148320, Note_on_c, 0, 60, 56
1, 148440, Note_on_c, 0, 79, 0
1, 148480, Note_on_c, 0, 60, 0
1, 148480, Note_on_c, 0, 64, 44
1, 148640, Note_on_c, 0, 64, 0
1, 148640, Note_on_c, 0, 67, 44
1, 148800, Tempo, 356316
1, 148800, Note_on_c, 0, 67, 0
1, 148800, Note_on_c, 0, 79, 74
1, 148800, Note_on_c, 0, 60, 56
1, 148920, Note_on_c, 0, 79, 0
1, 148960, Note_on_c, 0, 60, 0
1, 148960, Note_on_c, 0, 64, 44
1, 149120, Note_on_c, 0, 64, 0
1, 149120, Note_on_c, 0, 67, 45
1, 149160, Tempo, 415110
1, 149280, Tempo, 348270
1, 149280, Note_on_c, 0, 67, 0
1, 149280, Note_on_c, 0, 77, 69
1, 149280, Note_on_c, 0, 60, 56
1, 149400, Note_on_c, 0, 77, 0
1, 149400, Note_on_c, 0, 76, 60
1, 149440, Note_on_c, 0, 60, 0
1, 149440, Note_on_c, 0, 64, 44
1, 149520, Note_on_c, 0, 76, 0
1, 149520, Note_on_c, 0, 74, 60
1, 149600, Note_on_c, 0, 64, 0
1, 149600, Note_on_c, 0, 67, 44
1, 149640, Tempo, 372093
1, 149640, Note_on_c, 0, 74, 0
1, 149640, Note_on_c, 0, 72, 60
1, 149760, Tempo, 350918
1, 149760, Note_on_c, 0, 72, 0
1, 149760, Note_on_c, 0, 67, 0
1, 149760, Note_on_c, 0, 71, 74
1, 149760, Note_on_c, 0, 62, 56
1, 149760, Control_c, 0, 64, 0
1, 149866, Control_c, 0, 64, 127
1, 149880, Note_on_c, 0, 71, 0
1, 149920, Note_on_c, 0, 62, 0
1, 149920, Note_on_c, 0, 65, 42
1, 150080, Note_on_c, 0, 65, 0
1, 150080, Note_on_c, 0, 67, 45
1, 150240, Note_on_c, 0, 67, 0
1, 150240, Note_on_c, 0, 71, 68
1, 150240, Note_on_c, 0, 62, 56
1, 150360, Note_on_c, 0, 71, 0
1, 150400, Note_on_c, 0, 62, 0
1, 150400, Note_on_c, 0, 65, 45
1, 150560, Note_on_c, 0, 65, 0
1, 150560, Note_on_c, 0, 67, 45
1, 150720, Note_on_c, 0, 67, 0
1, 150720, Note_on_c, 0, 72, 74
1, 150720, Note_on_c, 0, 60, 56
1, 150729, Control_c, 0, 64, 0
1, 150833, Control_c, 0, 64, 127
1, 150840, Note_on_c, 0, 72, 0
1, 150880, Note_on_c, 0, 60, 0
1, 150880, Note_on_c, 0, 64, 46
1, 151040, Note_on_c, 0, 64, 0
1, 151040, Note_on_c, 0, 67, 50
1, 151200, Tempo, 350918
1, 151200, Note_on_c, 0, 67, 0
1, 151200, Note_on_c, 0, 72, 67
1, 151200, Note_on_c, 0, 60, 56
1, 151320, Note_on_c, 0, 72, 0
1, 151360, Note_on_c, 0, 60, 0
1, 151360, Note_on_c, 0, 64, 46
1, 151520, Note_on_c, 0, 64, 0
1, 151520, Note_on_c, 0, 67, 46
1, 151560, Tempo, 631579
1, 151680, Tempo, 350918
1, 151680, Note_on_c, 0, 67, 0
1, 151680, Note_on_c, 0, 74, 74
1, 151680, Note_on_c, 0, 59, 63
1, 151680, Control_c, 0, 64, 0
1, 152160, Note_on_c, 0, 59, 0
1, 152160, Note_on_c, 0, 74, 0
1, 153120, Tempo, 348270
1, 153120, Note_on_c, 0, 67, 65
1, 153198, Control_c, 0, 64, 127
1, 153480, Tempo, 360490
1, 153480, Note_on_c, 0, 67, 0
1, 153480, Note_on_c, 0, 74, 61
1, 153600, Tempo, 345662
1, 153600, Note_on_c, 0, 74, 0
1, 153600, Note_on_c, 0, 77, 75
1, 153600, Note_on_c, 0, 55, 56
1, 153600, Control_c, 0, 64, 0
1, 153720, Note_on_c, 0, 77, 0
1, 153734, Control_c, 0, 64, 127
1, 153760, Note_on_c, 0, 55, 0
1, 153760, Note_on_c, 0, 59, 43
1, 153920, Note_on_c, 0, 59, 0
1, 153920, Note_on_c, 0, 62, 45
1, 154080, Tempo, 348270
1, 154080, Note_on_c, 0, 62, 0
1, 154080, Note_on_c, 0, 77, 65
1, 154080, Note_on_c, 0, 55, 56
1, 154240, Note_on_c, 0, 55, 0
1, 154240, Note_on_c, 0, 59, 45
1, 154400, Note_on_c, 0, 59, 0
1, 154400, Note_on_c, 0, 62, 45
1, 154440, Tempo, 405296
1, 154440, Note_on_c, 0, 77, 0
1, 154440, Note_on_c, 0, 79, 62
1, 154560, Tempo, 348270
1, 154560, Note_on_c, 0, 79, 0
1, 154560, Note_on_c, 0, 62, 0
1, 154560, Note_on_c, 0, 76, 75
1, 154560, Note_on_c, 0, 55, 56
1, 154574, Control_c, 0, 64, 0
1, 154680, Note_on_c, 0, 76, 0
1, 154708, Control_c, 0, 64, 127
1, 154720, Note_on_c, 0, 55, 0
1, 154720, Note_on_c, 0, 60, 43
1, 154880, Note_on_c, 0, 60, 0
1, 154880, Note_on_c, 0, 64, 44
1, 155040, Tempo, 345662
1, 155040, Note_on_c, 0, 64, 0
1, 155040, Note_on_c, 0, 76, 65
1, 155040, Note_on_c, 0, 55, 56
1, 155200, Note_on_c, 0, 55, 0
1, 155200, Note_on_c, 0, 60, 46
1, 155360, Note_on_c, 0, 60, 0
1, 155360, Note_on_c, 0, 64, 46
1, 155400, Tempo, 402576
1, 155400, Note_on_c, 0, 76, 0
1, 155400, Note_on_c, 0, 77, 65
1, 155520, Tempo, 344372
1, 155520, Note_on_c, 0, 77, 0
1, 155520, Note_on_c, 0, 64, 0
1, 155520, Note_on_c, 0, 74, 76
1, 155520, Note_on_c, 0, 55, 56
1, 155532, Control_c, 0, 64, 0
1, 155619, Control_c, 0, 64, 127
1, 155640, Note_on_c, 0, 74, 0
1, 155680, Note_on_c, 0, 55, 0
1, 155680, Note_on_c, 0, 62, 47
1, 155840, Note_on_c, 0, 62, 0
1, 155840, Note_on_c, 0, 65, 47
1, 156000, Tempo, 349589
1, 156000, Note_on_c, 0, 65, 0
1, 156000, Note_on_c, 0, 74, 65
1, 156000, Note_on_c, 0, 55, 56
1, 156160, Note_on_c, 0, 55, 0
1, 156160, Note_on_c, 0, 62, 44
1, 156320, Note_on_c, 0, 62, 0
1, 156320, Note_on_c, 0, 65, 44
1, 156360, Tempo, 395935
1, 156360, Note_on_c, 0, 74, 0
1, 156360, Note_on_c, 0, 76, 61
1, 156480, Tempo, 343092
1, 156480, Note_on_c, 0, 76, 0
1, 156480, Note_on_c, 0, 65, 0
1, 156480, Note_on_c, 0, 72, 74
1, 156480, Note_on_c, 0, 57, 56
1, 156493, Control_c, 0, 64, 0
1, 156586, Control_c, 0, 64, 127
1, 156600, Note_on_c, 0, 72, 0
1, 156640, Note_on_c, 0, 57, 0
1, 156640, Note_on_c, 0, 60, 46
1, 156800, Note_on_c, 0, 60, 0
1, 156800, Note_on_c, 0, 64, 46
1, 156840, Tempo, 402576
1, 156960, Tempo, 347745
1, 156960, Note_on_c, 0, 64, 0
1, 156960, Note_on_c, 0, 72, 67
1, 156960, Note_on_c, 0, 57, 56
1, 157080, Note_on_c, 0, 72, 0
1, 157120, Note_on_c, 0, 57, 0
1, 157120, Note_on_c, 0, 60, 45
1, 157280, Note_on_c, 0, 60, 0
1, 157280, Note_on_c, 0, 64, 45
1, 157320, Tempo, 405296
1, 157440, Tempo, 345662
1, 157440, Note_on_c, 0, 64, 0
1, 157440, Note_on_c, 0, 74, 74
1, 157440, Note_on_c, 0, 53, 56
1, 157468, Control_c, 0, 64, 0
1, 157553, Control_c, 0, 64, 127
1, 157560, Note_on_c, 0, 74, 0
1, 157600, Note_on_c, 0, 53, 0
1, 157600, Note_on_c, 0, 57, 45
1, 157760, Note_on_c, 0, 57, 0
1, 157760, Note_on_c, 0, 62, 47
1, 157920, Tempo, 354946
1, 157920, Note_on_c, 0, 62, 0
1, 157920, Note_on_c, 0, 74, 67
1, 157920, Note_on_c, 0, 53, 56
1, 158040, Note_on_c, 0, 74, 0
1, 158080, Note_on_c, 0, 53, 0
1, 158080, Note_on_c, 0, 57, 46
1, 158240, Note_on_c, 0, 57, 0
1, 158240, Note_on_c, 0, 62, 46
1, 158400, Tempo, 344372
1, 158400, Note_on_c, 0, 62, 0
1, 158400, Note_on_c, 0, 71, 75
1, 158400, Note_on_c, 0, 55, 56
1, 158412, Control_c, 0, 64, 0
1, 158506, Control_c, 0, 64, 127
1, 158520, Note_on_c, 0, 71, 0
1, 158560, Note_on_c, 0, 55, 0
1, 158560, Note_on_c, 0, 62, 43
1, 158720, Note_on_c, 0, 62, 0
1, 158720, Note_on_c, 0, 65, 43
1, 158880, Tempo, 401338
1, 158880, Note_on_c, 0, 65, 0
1, 158880, Note_on_c, 0, 71, 67
1, 158880, Note_on_c, 0, 55, 56
1, 159000, Note_on_c, 0, 71, 0
1, 159040, Note_on_c, 0, 55, 0
1, 159040, Note_on_c, 0, 62, 44
1, 159200, Note_on_c, 0, 62, 0
1, 159200, Note_on_c, 0, 65, 45
1, 159360, Tempo, 359195
1, 159360, Note_on_c, 0, 65, 0
1, 159360, Note_on_c, 0, 72, 81
1, 159360, Note_on_c, 0, 60, 60
1, 159360, Note_on_c, 0, 64, 45
1, 159360, Control_c, 0, 64, 0
1, 159636, Control_c, 0, 64, 127
1, 160320, Tempo, 351824
1, 160320, Note_on_c, 0, 64, 0
1, 160320, Note_on_c, 0, 70, 43
1, 160800, Tempo, 342779
1, 160800, Note_on_c, 0, 72, 0
1, 160800, Note_on_c, 0, 76, 50
1, 161160, Tempo, 377264
1, 161160, Note_on_c, 0, 76, 0
1, 161160, Note_on_c, 0, 79, 46
1, 161280, Tempo, 345662
1, 161280, Note_on_c, 0, 79, 0
1, 161280, Note_on_c, 0, 70, 0
1, 161280, Note_on_c, 0, 77, 50
1, 161280, Note_on_c, 0, 69, 45
1, 161280, Control_c, 0, 64, 0
1, 161400, Note_on_c, 0, 77, 0
1, 161760, Tempo, 348270
1, 161760, Note_on_c, 0, 77, 50
1, 161824, Control_c, 0, 64, 127
1, 162120, Tempo, 405296
1, 162120, Note_on_c, 0, 77, 0
1, 162120, Note_on_c, 0, 81, 45
1, 162240, Tempo, 348270
1, 162240, Note_on_c, 0, 81, 0
1, 162240, Note_on_c, 0, 69, 0
1, 162240, Note_on_c, 0, 71, 50
1, 162240, Note_on_c, 0, 65, 42
1, 162250, Control_c, 0, 64, 0
1, 162360, Note_on_c, 0, 71, 0
1, 162720, Tempo, 345662
1, 162720, Note_on_c, 0, 71, 50
1, 162798, Control_c, 0, 64, 127
1, 163080, Tempo, 402576
1, 163080, Note_on_c, 0, 71, 0
1, 163080, Note_on_c, 0, 74, 45
1, 163200, Tempo, 345662
1, 163200, Note_on_c, 0, 74, 0
1, 163200, Note_on_c, 0, 65, 0
1, 163200, Note_on_c, 0, 60, 0
1, 163200, Note_on_c, 0, 72, 50
1, 163200, Note_on_c, 0, 60, 39
1, 163200, Note_on_c, 0, 64, 45
1, 163200, Control_c, 0, 64, 0
1, 163320, Note_on_c, 0, 72, 0
1, 163680, Tempo, 348270
1, 163680, Note_on_c, 0, 72, 50
1, 163793, Control_c, 0, 64, 127
1, 164040, Tempo, 405296
1, 164040, Note_on_c, 0, 72, 0
1, 164040, Note_on_c, 0, 76, 50
1, 164160, Tempo, 348270
1, 164160, Note_on_c, 0, 76, 0
1, 164160, Note_on_c, 0, 64, 0
1, 164160, Note_on_c, 0, 79, 61
1, 164160, Note_on_c, 0, 70, 43
1, 164178, Control_c, 0, 64, 0
1, 164280, Note_on_c, 0, 79, 0
1, 164640, Tempo, 342779
1, 164640, Note_on_c, 0, 84, 57
1, 164718, Control_c, 0, 64, 127
1, 165000, Tempo, 377264
1, 165000, Note_on_c, 0, 84, 0
1, 165000, Note_on_c, 0, 76, 50
1, 165120, Tempo, 345662
1, 165120, Note_on_c, 0, 76, 0
1, 165120, Note_on_c, 0, 70, 0
1, 165120, Note_on_c, 0, 77, 60
1, 165120, Note_on_c, 0, 69, 45
1, 165122, Control_c, 0, 64, 0
1, 165240, Note_on_c, 0, 77, 0
1, 165600, Tempo, 348270
1, 165600, Note_on_c, 0, 81, 58
1, 165706, Control_c, 0, 64, 127
1, 165960, Tempo, 405296
1, 165960, Note_on_c, 0, 81, 0
1, 165960, Note_on_c, 0, 72, 49
1, 166080, Tempo, 348270
1, 166080, Note_on_c, 0, 72, 0
1, 166080, Note_on_c, 0, 69, 0
1, 166080, Note_on_c, 0, 71, 59
1, 166080, Note_on_c, 0, 65, 42
1, 166097, Control_c, 0, 64, 0
1, 166200, Note_on_c, 0, 71, 0
1, 166560, Tempo, 345662
1, 166560, Note_on_c, 0, 77, 60
1, 166751, Control_c, 0, 64, 127
1, 166920, Tempo, 402576
1, 166920, Note_on_c, 0, 77, 0
1, 166920, Note_on_c, 0, 71, 54
1, 167040, Tempo, 354946
1, 167040, Note_on_c, 0, 71, 0
1, 167040, Note_on_c, 0, 65, 0
1, 167040, Note_on_c, 0, 60, 0
1, 167040, Note_on_c, 0, 72, 66
1, 167040, Note_on_c, 0, 60, 45
1, 167051, Control_c, 0, 64, 0
1, 167139, Control_c, 0, 64, 127
1, 167160, Note_on_c, 0, 72, 0
1, 167200, Note_on_c, 0, 60, 0
1, 167200, Note_on_c, 0, 64, 35
1, 167360, Note_on_c, 0, 64, 0
1, 167360, Note_on_c, 0, 67, 35
1, 167520, Note_on_c, 0, 67, 0
1, 167520, Note_on_c, 0, 72, 52
1, 167520, Note_on_c, 0, 60, 45
1, 167640, Note_on_c, 0, 72, 0
1, 167680, Note_on_c, 0, 60, 0
1, 167680, Note_on_c, 0, 64, 34
1, 167840, Note_on_c, 0, 64, 0
1, 167840, Note_on_c, 0, 67, 34
1, 168000, Tempo, 356316
1, 168000, Note_on_c, 0, 67, 0
1, 168000, Note_on_c, 0, 72, 51
1, 168000, Note_on_c, 0, 60, 45
1, 168120, Note_on_c, 0, 72, 0
1, 168160, Note_on_c, 0, 60, 0
1, 168160, Note_on_c, 0, 64, 36
1, 168320, Note_on_c, 0, 64, 0
1, 168320, Note_on_c, 0, 67, 36
1, 168480, Tempo, 353586
1, 168480, Note_on_c, 0, 67, 0
1, 168480, Note_on_c, 0, 76, 57
1, 168480, Note_on_c, 0, 59, 45
1, 168494, Control_c, 0, 64, 0
1, 168600, Note_on_c, 0, 76, 0
1, 168600, Note_on_c, 0, 74, 50
1, 168607, Control_c, 0, 64, 127
1, 168640, Note_on_c, 0, 59, 0
1, 168640, Note_on_c, 0, 62, 36
1, 168720, Note_on_c, 0, 74, 0
1, 168720, Note_on_c, 0, 72, 50
1, 168800, Note_on_c, 0, 62, 0
1, 168800, Note_on_c, 0, 67, 37
1, 168840, Note_on_c, 0, 72, 0
1, 168840, Note_on_c, 0, 74, 50
1, 168960, Tempo, 354946
1, 168960, Note_on_c, 0, 74, 0
1, 168960, Note_on_c, 0, 67, 0
1, 168960, Note_on_c, 0, 76, 63
1, 168960, Note_on_c, 0, 60, 45
1, 168960, Control_c, 0, 64, 0
1, 169066, Control_c, 0, 64, 127
1, 169080, Note_on_c, 0, 76, 0
1, 169120, Note_on_c, 0, 60, 0
1, 169120, Note_on_c, 0, 64, 36
1, 169280, Note_on_c, 0, 64, 0
1, 169280, Note_on_c, 0, 67, 36
1, 169440, Note_on_c, 0, 67, 0
1, 169440, Note_on_c, 0, 72, 52
1, 169440, Note_on_c, 0, 60, 45
1, 169560, Note_on_c, 0, 72, 0
1, 169600, Note_on_c, 0, 60, 0
1, 169600, Note_on_c, 0, 64, 38
1, 169760, Note_on_c, 0, 64, 0
1, 169760, Note_on_c, 0, 67, 38
1, 169920, Tempo, 356316
1, 169920, Note_on_c, 0, 67, 0
1, 169920, Note_on_c, 0, 72, 51
1, 169920, Note_on_c, 0, 60, 45
1, 170040, Note_on_c, 0, 72, 0
1, 170080, Note_on_c, 0, 60, 0
1, 170080, Note_on_c, 0, 64, 36
1, 170240, Note_on_c, 0, 64, 0
1, 170240, Note_on_c, 0, 67, 36
1, 170400, Tempo, 353586
1, 170400, Note_on_c, 0, 67, 0
1, 170400, Note_on_c, 0, 76, 57
1, 170400, Note_on_c, 0, 59, 45
1, 170409, Control_c, 0, 64, 0
1, 170492, Control_c, 0, 64, 127
1, 170520, Note_on_c, 0, 76, 0
1, 170520, Note_on_c, 0, 74, 50
1, 170560, Note_on_c, 0, 59, 0
1, 170560, Note_on_c, 0, 62, 36
1, 170640, Note_on_c, 0, 74, 0
1, 170640, Note_on_c, 0, 72, 50
1, 170720, Note_on_c, 0, 62, 0
1, 170720, Note_on_c, 0, 67, 37
1, 170760, Note_on_c, 0, 72, 0
1, 170760, Note_on_c, 0, 74, 50
1, 170880, Tempo, 354946
1, 170880, Note_on_c, 0, 74, 0
1, 170880, Note_on_c, 0, 67, 0
1, 170880, Note_on_c, 0, 76, 63
1, 170880, Note_on_c, 0, 60, 45
1, 170880, Control_c, 0, 64, 0
1, 171000, Note_on_c, 0, 76, 0
1, 171000, Control_c, 0, 64, 127
1, 171040, Note_on_c, 0, 60, 0
1, 171040, Note_on_c, 0, 64, 36
1, 171200, Note_on_c, 0, 64, 0
1, 171200, Note_on_c, 0, 67, 36
1, 171360, Note_on_c, 0, 67, 0
1, 171360, Note_on_c, 0, 72, 52
1, 171360, Note_on_c, 0, 60, 45
1, 171480, Note_on_c, 0, 72, 0
1, 171520, Note_on_c, 0, 60, 0
1, 171520, Note_on_c, 0, 64, 38
1, 171680, Note_on_c, 0, 64, 0
1, 171680, Note_on_c, 0, 67, 38
1, 171840, Tempo, 356316
1, 171840, Note_on_c, 0, 67, 0
1, 171840, Note_on_c, 0, 72, 51
1, 171840, Note_on_c, 0, 60, 45
1, 171960, Note_on_c, 0, 72, 0
1, 172000, Note_on_c, 0, 60, 0
1, 172000, Note_on_c, 0, 64, 36
1, 172160, Note_on_c, 0, 64, 0
1, 172160, Note_on_c, 0, 67, 36
1, 172320, Tempo, 353586
1, 172320, Note_on_c, 0, 67, 0
1, 172320, Note_on_c, 0, 76, 57
1, 172320, Note_on_c, 0, 59, 45
1, 172334, Control_c, 0, 64, 0
1, 172440, Note_on_c, 0, 76, 0
1, 172440, Note_on_c, 0, 74, 50
1, 172440, Control_c, 0, 64, 127
1, 172480, Note_on_c, 0, 59, 0
1, 172480, Note_on_c, 0, 62, 36
1, 172560, Note_on_c, 0, 74, 0
1, 172560, Note_on_c, 0, 72, 50
1, 172640, Note_on_c, 0, 62, 0
1, 172640, Note_on_c, 0, 67, 37
1, 172680, Note_on_c, 0, 72, 0
1, 172680, Note_on_c, 0, 74, 50
1, 172800, Note_on_c, 0, 74, 0
1, 172800, Note_on_c, 0, 67, 0
1, 172800, Note_on_c, 0, 76, 63
1, 172800, Note_on_c, 0, 60, 45
1, 172829, Control_c, 0, 64, 0
1, 172897, Control_c, 0, 64, 127
1, 172920, Note_on_c, 0, 76, 0
1, 172960, Note_on_c, 0, 60, 0
1, 172960, Note_on_c, 0, 64, 36
1, 173120, Note_on_c, 0, 64, 0
1, 173120, Note_on_c, 0, 67, 36
1, 173280, Note_on_c, 0, 67, 0
1, 173280, Note_on_c, 0, 76, 55
1, 173280, Note_on_c, 0, 60, 45
1, 173400, Note_on_c, 0, 76, 0
1, 173440, Note_on_c, 0, 60, 0
1, 173440, Note_on_c, 0, 64, 38
1, 173600, Note_on_c, 0, 64, 0
1, 173600, Note_on_c, 0, 67, 39
1, 173760, Tempo, 356316
1, 173760, Note_on_c, 0, 67, 0
1, 173760, Note_on_c, 0, 76, 55
1, 173760, Note_on_c, 0, 60, 46
1, 173880, Note_on_c, 0, 76, 0
1, 173920, Note_on_c, 0, 60, 0
1, 173920, Note_on_c, 0, 64, 37
1, 174080, Note_on_c, 0, 64, 0
1, 174080, Note_on_c, 0, 67, 37
1, 174240, Tempo, 353586
1, 174240, Note_on_c, 0, 67, 0
1, 174240, Note_on_c, 0, 79, 60
1, 174240, Note_on_c, 0, 60, 47
1, 174243, Control_c, 0, 64, 0
1, 174337, Control_c, 0, 64, 127
1, 174360, Note_on_c, 0, 79, 0
1, 174360, Note_on_c, 0, 78, 53
1, 174400, Note_on_c, 0, 60, 0
1, 174400, Note_on_c, 0, 62, 38
1, 174480, Note_on_c, 0, 78, 0
1, 174480, Note_on_c, 0, 76, 53
1, 174560, Note_on_c, 0, 62, 0
1, 174560, Note_on_c, 0, 66, 39
1, 174600, Note_on_c, 0, 76, 0
1, 174600, Note_on_c, 0, 78, 53
1, 174720, Tempo, 354946
1, 174720, Note_on_c, 0, 78, 0
1, 174720, Note_on_c, 0, 66, 0
1, 174720, Note_on_c, 0, 79, 68
1, 174720, Note_on_c, 0, 59, 48
1, 174725, Control_c, 0, 64, 0
1, 174783, Control_c, 0, 64, 127
1, 174840, Note_on_c, 0, 79, 0
1, 174880, Note_on_c, 0, 59, 0
1, 174880, Note_on_c, 0, 62, 38
1, 175040, Note_on_c, 0, 62, 0
1, 175040, Note_on_c, 0, 67, 39
1, 175200, Note_on_c, 0, 67, 0
1, 175200, Note_on_c, 0, 79, 57
1, 175200, Note_on_c, 0, 59, 49
1, 175320, Note_on_c, 0, 79, 0
1, 175360, Note_on_c, 0, 59, 0
1, 175360, Note_on_c, 0, 62, 41
1, 175520, Note_on_c, 0, 62, 0
1, 175520, Note_on_c, 0, 67, 42
1, 175680, Tempo, 356316
1, 175680, Note_on_c, 0, 67, 0
1, 175680, Note_on_c, 0, 79, 57
1, 175680, Note_on_c, 0, 59, 50
1, 175800, Note_on_c, 0, 79, 0
1, 175840, Note_on_c, 0, 59, 0
1, 175840, Note_on_c, 0, 62, 40
1, 176000, Note_on_c, 0, 62, 0
1, 176000, Note_on_c, 0, 67, 40
1, 176160, Tempo, 353586
1, 176160, Note_on_c, 0, 67, 0
1, 176160, Note_on_c, 0, 83, 64
1, 176160, Note_on_c, 0, 54, 51
1, 176171, Control_c, 0, 64, 0
1, 176263, Control_c, 0, 64, 127
1, 176280, Note_on_c, 0, 83, 0
1, 176280, Note_on_c, 0, 81, 57
1, 176320, Note_on_c, 0, 54, 0
1, 176320, Note_on_c, 0, 57, 41
1, 176400, Note_on_c, 0, 81, 0
1, 176400, Note_on_c, 0, 79, 57
1, 176480, Note_on_c, 0, 57, 0
1, 176480, Note_on_c, 0, 62, 42
1, 176520, Note_on_c, 0, 79, 0
1, 176520, Note_on_c, 0, 81, 57
1, 176640, Tempo, 354946
1, 176640, Note_on_c, 0, 81, 0
1, 176640, Note_on_c, 0, 62, 0
1, 176640, Note_on_c, 0, 83, 73
1, 176640, Note_on_c, 0, 55, 52
1, 176640, Control_c, 0, 64, 0
1, 176720, Control_c, 0, 64, 127
1, 176760, Note_on_c, 0, 83, 0
1, 176800, Note_on_c, 0, 55, 0
1, 176800, Note_on_c, 0, 59, 41
1, 176960, Note_on_c, 0, 59, 0
1, 176960, Note_on_c, 0, 62, 42
1, 177120, Note_on_c, 0, 62, 0
1, 177120, Note_on_c, 0, 79, 61
1, 177120, Note_on_c, 0, 55, 53
1, 177240, Note_on_c, 0, 79, 0
1, 177280, Note_on_c, 0, 55, 0
1, 177280, Note_on_c, 0, 59, 44
1, 177440, Note_on_c, 0, 59, 0
1, 177440, Note_on_c, 0, 62, 45
1, 177600, Tempo, 356316
1, 177600, Note_on_c, 0, 62, 0
1, 177600, Note_on_c, 0, 79, 61
1, 177600, Note_on_c, 0, 55, 54
1, 177720, Note_on_c, 0, 79, 0
1, 177760, Note_on_c, 0, 55, 0
1, 177760, Note_on_c, 0, 59, 43
1, 177920, Note_on_c, 0, 59, 0
1, 177920, Note_on_c, 0, 62, 43
1, 178080, Tempo, 353586
1, 178080, Note_on_c, 0, 62, 0
1, 178080, Note_on_c, 0, 83, 69
1, 178080, Note_on_c, 0, 54, 54
1, 178094, Control_c, 0, 64, 0
1, 178195, Control_c, 0, 64, 127
1, 178200, Note_on_c, 0, 83, 0
1, 178200, Note_on_c, 0, 81, 61
1, 178240, Note_on_c, 0, 54, 0
1, 178240, Note_on_c, 0, 57, 43
1, 178320, Note_on_c, 0, 81, 0
1, 178320, Note_on_c, 0, 79, 61
1, 178400, Note_on_c, 0, 57, 0
1, 178400, Note_on_c, 0, 62, 45
1, 178440, Note_on_c, 0, 79, 0
1, 178440, Note_on_c, 0, 81, 61
1, 178560, Tempo, 354946
1, 178560, Note_on_c, 0, 81, 0
1, 178560, Note_on_c, 0, 62, 0
1, 178560, Note_on_c, 0, 83, 78
1, 178560, Note_on_c, 0, 55, 55
1, 178560, Control_c, 0, 64, 0
1, 178680, Note_on_c, 0, 83, 0
1, 178680, Control_c, 0, 64, 127
1, 178720, Note_on_c, 0, 55, 0
1, 178720, Note_on_c, 0, 59, 44
1, 178880, Note_on_c, 0, 59, 0
1, 178880, Note_on_c, 0, 62, 45
1, 179040, Note_on_c, 0, 62, 0
1, 179040, Note_on_c, 0, 79, 65
1, 179040, Note_on_c, 0, 55, 56
1, 179160, Note_on_c, 0, 79, 0
1, 179200, Note_on_c, 0, 55, 0
1, 179200, Note_on_c, 0, 59, 47
1, 179360, Note_on_c, 0, 59, 0
1, 179360, Note_on_c, 0, 62, 48
1, 179520, Tempo, 356316
1, 179520, Note_on_c, 0, 62, 0
1, 179520, Note_on_c, 0, 79, 65
1, 179520, Note_on_c, 0, 55, 57
1, 179640, Note_on_c, 0, 79, 0
1, 179680, Note_on_c, 0, 55, 0
1, 179680, Note_on_c, 0, 59, 46
1, 179840, Note_on_c, 0, 59, 0
1, 179840, Note_on_c, 0, 62, 46
1, 180000, Tempo, 353586
1, 180000, Note_on_c, 0, 62, 0
1, 180000, Note_on_c, 0, 79, 75
1, 180000, Note_on_c, 0, 55, 57
1, 180160, Note_on_c, 0, 55, 0
1, 180160, Note_on_c, 0, 79, 0
1, 180160, Note_on_c, 0, 83, 69
1, 180160, Note_on_c, 0, 59, 50
1, 180320, Note_on_c, 0, 59, 0
1, 180320, Note_on_c, 0, 83, 0
1, 180320, Note_on_c, 0, 86, 71
1, 180320, Note_on_c, 0, 62, 50
1, 180480, Tempo, 345662
1, 180480, Note_on_c, 0, 62, 0
1, 180480, Note_on_c, 0, 86, 0
1, 180480, Note_on_c, 0, 84, 75
1, 180480, Note_on_c, 0, 54, 56
1, 180480, Control_c, 0, 64, 0
1, 180614, Control_c, 0, 64, 127
1, 180640, Note_on_c, 0, 54, 0
1, 180640, Note_on_c, 0, 57, 43
1, 180800, Note_on_c, 0, 57, 0
1, 180800, Note_on_c, 0, 62, 45
1, 180960, Tempo, 348270
1, 180960, Note_on_c, 0, 62, 0
1, 180960, Note_on_c, 0, 84, 0
1, 180960, Note_on_c, 0, 84, 69
1, 180960, Note_on_c, 0, 54, 56
1, 181120, Note_on_c, 0, 54, 0
1, 181120, Note_on_c, 0, 57, 45
1, 181280, Note_on_c, 0, 57, 0
1, 181280, Note_on_c, 0, 62, 45
1, 181320, Tempo, 405296
1, 181320, Note_on_c, 0, 84, 0
1, 181320, Note_on_c, 0, 86, 65
1, 181440, Tempo, 348270
1, 181440, Note_on_c, 0, 86, 0
1, 181440, Note_on_c, 0, 62, 0
1, 181440, Note_on_c, 0, 83, 75
1, 181440, Note_on_c, 0, 55, 56
1, 181454, Control_c, 0, 64, 0
1, 181537, Control_c, 0, 64, 127
1, 181560, Note_on_c, 0, 83, 0
1, 181600, Note_on_c, 0, 55, 0
1, 181600, Note_on_c, 0, 59, 43
1, 181760, Note_on_c, 0, 59, 0
1, 181760, Note_on_c, 0, 62, 44
1, 181920, Tempo, 345662
1, 181920, Note_on_c, 0, 62, 0
1, 181920, Note_on_c, 0, 83, 75
1, 181920, Note_on_c, 0, 55, 56
1, 182080, Note_on_c, 0, 55, 0
1, 182080, Note_on_c, 0, 59, 46
1, 182240, Note_on_c, 0, 59, 0
1, 182240, Note_on_c, 0, 62, 46
1, 182280, Tempo, 402576
1, 182280, Note_on_c, 0, 83, 0
1, 182280, Note_on_c, 0, 84, 70
1, 182400, Tempo, 345662
1, 182400, Note_on_c, 0, 84, 0
1, 182400, Note_on_c, 0, 62, 0
1, 182400, Note_on_c, 0, 81, 75
1, 182400, Note_on_c, 0, 60, 56
1, 182400, Control_c, 0, 64, 0
1, 182520, Note_on_c, 0, 81, 0
1, 182534, Control_c, 0, 64, 127
1, 182560, Note_on_c, 0, 60, 0
1, 182560, Note_on_c, 0, 62, 43
1, 182720, Note_on_c, 0, 62, 0
1, 182720, Note_on_c, 0, 66, 45
1, 182880, Tempo, 348270
1, 182880, Note_on_c, 0, 66, 0
1, 182880, Note_on_c, 0, 81, 69
1, 182880, Note_on_c, 0, 60, 56
1, 183040, Note_on_c, 0, 60, 0
1, 183040, Note_on_c, 0, 62, 45
1, 183200, Note_on_c, 0, 62, 0
1, 183200, Note_on_c, 0, 66, 45
1, 183240, Tempo, 405296
1, 183240, Note_on_c, 0, 81, 0
1, 183240, Note_on_c, 0, 83, 65
1, 183360, Tempo, 348270
1, 183360, Note_on_c, 0, 83, 0
1, 183360, Note_on_c, 0, 66, 0
1, 183360, Note_on_c, 0, 79, 75
1, 183360, Note_on_c, 0, 59, 56
1, 183374, Control_c, 0, 64, 0
1, 183480, Note_on_c, 0, 79, 0
1, 183508, Control_c, 0, 64, 127
1, 183520, Note_on_c, 0, 59, 0
1, 183520, Note_on_c, 0, 62, 43
1, 183680, Note_on_c, 0, 62, 0
1, 183680, Note_on_c, 0, 67, 44
1, 183840, Tempo, 353586
1, 183840, Note_on_c, 0, 67, 0
1, 183840, Note_on_c, 0, 79, 57
1, 183840, Note_on_c, 0, 59, 39
1, 184000, Note_on_c, 0, 59, 0
1, 184000, Note_on_c, 0, 79, 0
1, 184000, Note_on_c, 0, 83, 52
1, 184000, Note_on_c, 0, 62, 35
1, 184160, Note_on_c, 0, 62, 0
1, 184160, Note_on_c, 0, 83, 0
1, 184160, Note_on_c, 0, 86, 53
1, 184160, Note_on_c, 0, 67, 35
1, 184320, Tempo, 345662
1, 184320, Note_on_c, 0, 67, 0
1, 184320, Note_on_c, 0, 86, 0
1, 184320, Note_on_c, 0, 84, 57
1, 184320, Note_on_c, 0, 54, 39
1, 184320, Control_c, 0, 64, 0
1, 184454, Control_c, 0, 64, 127
1, 184480, Note_on_c, 0, 54, 0
1, 184480, Note_on_c, 0, 57, 30
1, 184560, Note_on_c, 0, 84, 0
1, 184560, Note_on_c, 0, 86, 57
1, 184640, Note_on_c, 0, 86, 0
1, 184640, Note_on_c, 0, 57, 0
1, 184640, Note_on_c, 0, 84, 49
1, 184640, Note_on_c, 0, 62, 31
1, 184720, Note_on_c, 0, 84, 0
1, 184720, Note_on_c, 0, 83, 49
1, 184800, Tempo, 348270
1, 184800, Note_on_c, 0, 83, 0
1, 184800, Note_on_c, 0, 62, 0
1, 184800, Note_on_c, 0, 84, 52
1, 184800, Note_on_c, 0, 54, 39
1, 184960, Note_on_c, 0, 54, 0
1, 184960, Note_on_c, 0, 57, 31
1, 185120, Note_on_c, 0, 57, 0
1, 185120, Note_on_c, 0, 62, 31
1, 185160, Tempo, 405296
1, 185160, Note_on_c, 0, 84, 0
1, 185160, Note_on_c, 0, 86, 49
1, 185280, Tempo, 348270
1, 185280, Note_on_c, 0, 86, 0
1, 185280, Note_on_c, 0, 62, 0
1, 185280, Note_on_c, 0, 83, 57
1, 185280, Note_on_c, 0, 55, 39
1, 185294, Control_c, 0, 64, 0
1, 185428, Control_c, 0, 64, 127
1, 185440, Note_on_c, 0, 55, 0
1, 185440, Note_on_c, 0, 59, 30
1, 185520, Note_on_c, 0, 83, 0
1, 185520, Note_on_c, 0, 84, 57
1, 185600, Note_on_c, 0, 84, 0
1, 185600, Note_on_c, 0, 59, 0
1, 185600, Note_on_c, 0, 83, 50
1, 185600, Note_on_c, 0, 62, 30
1, 185680, Note_on_c, 0, 83, 0
1, 185680, Note_on_c, 0, 81, 50
1, 185760, Tempo, 345662
1, 185760, Note_on_c, 0, 81, 0
1, 185760, Note_on_c, 0, 62, 0
1, 185760, Note_on_c, 0, 83, 57
1, 185760, Note_on_c, 0, 55, 39
1, 185920, Note_on_c, 0, 55, 0
1, 185920, Note_on_c, 0, 59, 32
1, 186080, Note_on_c, 0, 59, 0
1, 186080, Note_on_c, 0, 62, 32
1, 186120, Tempo, 402576
1, 186120, Note_on_c, 0, 83, 0
1, 186120, Note_on_c, 0, 84, 53
1, 186240, Tempo, 345662
1, 186240, Note_on_c, 0, 84, 0
1, 186240, Note_on_c, 0, 62, 0
1, 186240, Note_on_c, 0, 81, 57
1, 186240, Note_on_c, 0, 60, 39
1, 186240, Control_c, 0, 64, 0
1, 186374, Control_c, 0, 64, 127
1, 186400, Note_on_c, 0, 60, 0
1, 186400, Note_on_c, 0, 62, 30
1, 186480, Note_on_c, 0, 81, 0
1, 186480, Note_on_c, 0, 83, 57
1, 186560, Note_on_c, 0, 83, 0
1, 186560, Note_on_c, 0, 62, 0
1, 186560, Note_on_c, 0, 81, 51
1, 186560, Note_on_c, 0, 66, 31
1, 186640, Note_on_c, 0, 81, 0
1, 186640, Note_on_c, 0, 79, 51
1, 186720, Tempo, 348270
1, 186720, Note_on_c, 0, 79, 0
1, 186720, Note_on_c, 0, 66, 0
1, 186720, Note_on_c, 0, 81, 52
1, 186720, Note_on_c, 0, 60, 39
1, 186880, Note_on_c, 0, 60, 0
1, 186880, Note_on_c, 0, 62, 31
1, 187040, Note_on_c, 0, 62, 0
1, 187040, Note_on_c, 0, 66, 31
1, 187080, Tempo, 405296
1, 187080, Note_on_c, 0, 81, 0
1, 187080, Note_on_c, 0, 83, 49
1, 187200, Tempo, 348270
1, 187200, Note_on_c, 0, 83, 0
1, 187200, Note_on_c, 0, 66, 0
1, 187200, Note_on_c, 0, 79, 57
1, 187200, Note_on_c, 0, 59, 39
1, 187214, Control_c, 0, 64, 0
1, 187348, Control_c, 0, 64, 127
1, 187360, Note_on_c, 0, 59, 0
1, 187360, Note_on_c, 0, 62, 30
1, 187520, Note_on_c, 0, 62, 0
1, 187520, Note_on_c, 0, 67, 30
1, 187680, Note_on_c, 0, 67, 0
1, 187680, Note_on_c, 0, 79, 0
1, 187680, Note_on_c, 0, 86, 66
1, 187680, Note_on_c, 0, 59, 54
1, 187840, Note_on_c, 0, 59, 0
1, 187840, Note_on_c, 0, 62, 43
1, 188000, Note_on_c, 0, 62, 0
1, 188000, Note_on_c, 0, 67, 44
1, 188040, Note_on_c, 0, 86, 0
1, 188040, Note_on_c, 0, 83, 55
1, 188160, Tempo, 345662
1, 188160, Note_on_c, 0, 83, 0
1, 188160, Note_on_c, 0, 67, 0
1, 188160, Note_on_c, 0, 81, 74
1, 188160, Note_on_c, 0, 60, 54
1, 188160, Control_c, 0, 64, 0
1, 188294, Control_c, 0, 64, 127
1, 188320, Note_on_c, 0, 60, 0
1, 188320, Note_on_c, 0, 64, 40
1, 188400, Note_on_c, 0, 81, 0
1, 188400, Note_on_c, 0, 83, 68
1, 188480, Note_on_c, 0, 83, 0
1, 188480, Note_on_c, 0, 64, 0
1, 188480, Note_on_c, 0, 81, 59
1, 188480, Note_on_c, 0, 69, 41
1, 188560, Note_on_c, 0, 81, 0
1, 188560, Note_on_c, 0, 79, 59
1, 188640, Tempo, 348270
1, 188640, Note_on_c, 0, 79, 0
1, 188640, Note_on_c, 0, 69, 0
1, 188640, Note_on_c, 0, 81, 62
1, 188640, Note_on_c, 0, 60, 55
1, 188800, Note_on_c, 0, 60, 0
1, 188800, Note_on_c, 0, 64, 42
1, 188960, Note_on_c, 0, 64, 0
1, 188960, Note_on_c, 0, 69, 42
1, 189000, Tempo, 405296
1, 189000, Note_on_c, 0, 81, 0
1, 189000, Note_on_c, 0, 83, 59
1, 189120, Tempo, 348270
1, 189120, Note_on_c, 0, 83, 0
1, 189120, Note_on_c, 0, 69, 0
1, 189120, Note_on_c, 0, 79, 68
1, 189120, Note_on_c, 0, 61, 53
1, 189134, Control_c, 0, 64, 0
1, 189268, Control_c, 0, 64, 127
1, 189280, Note_on_c, 0, 61, 0
1, 189280, Note_on_c, 0, 64, 41
1, 189360, Note_on_c, 0, 79, 0
1, 189360, Note_on_c, 0, 81, 68
1, 189440, Note_on_c, 0, 81, 0
1, 189440, Note_on_c, 0, 64, 0
1, 189440, Note_on_c, 0, 79, 60
1, 189440, Note_on_c, 0, 69, 41
1, 189520, Note_on_c, 0, 79, 0
1, 189520, Note_on_c, 0, 78, 60
1, 189600, Tempo, 345662
1, 189600, Note_on_c, 0, 78, 0
1, 189600, Note_on_c, 0, 69, 0
1, 189600, Note_on_c, 0, 79, 68
1, 189600, Note_on_c, 0, 61, 51
1, 189760, Note_on_c, 0, 61, 0
1, 189760, Note_on_c, 0, 64, 42
1, 189920, Note_on_c, 0, 64, 0
1, 189920, Note_on_c, 0, 69, 43
1, 189960, Tempo, 402576
1, 189960, Note_on_c, 0, 79, 0
1, 189960, Note_on_c, 0, 81, 63
1, 190080, Note_on_c, 0, 81, 0
1, 190080, Note_on_c, 0, 69, 0
1, 190080, Note_on_c, 0, 78, 74
1, 190080, Note_on_c, 0, 62, 58
1, 190083, Control_c, 0, 64, 0
1, 190560, Tempo, 382068
1, 190560, Note_on_c, 0, 62, 0
1, 190560, Note_on_c, 0, 78, 0
1, 190920, Note_on_c, 0, 74, 68
1, 190920, Note_on_c, 0, 62, 62
1, 190998, Control_c, 0, 64, 127
1, 191040, Note_on_c, 0, 62, 0
1, 191040, Note_on_c, 0, 74, 0
1, 191040, Note_on_c, 0, 78, 79
1, 191040, Note_on_c, 0, 66, 68
1, 191400, Note_on_c, 0, 66, 0
1, 191400, Note_on_c, 0, 78, 0
1, 191400, Note_on_c, 0, 74, 68
1, 191400, Note_on_c, 0, 62, 62
1, 191520, Note_on_c, 0, 62, 0
1, 191520, Note_on_c, 0, 74, 0
1, 191520, Note_on_c, 0, 81, 74
1, 191520, Note_on_c, 0, 69, 68
1, 191880, Tempo, 444313
1, 191880, Note_on_c, 0, 69, 0
1, 191880, Note_on_c, 0, 81, 0
1, 191880, Note_on_c, 0, 78, 68
1, 191880, Note_on_c, 0, 66, 64
1, 191965, Control_c, 0, 64, 0
1, 192000, Tempo, 380856
1, 192000, Note_on_c, 0, 66, 0
1, 192000, Note_on_c, 0, 78, 0
1, 192000, Note_on_c, 0, 86, 86
1, 192000, Note_on_c, 0, 74, 80
1, 192000, Control_c, 0, 64, 127
1, 192457, Control_c, 0, 64, 0
1, 192480, Note_on_c, 0, 74, 0
1, 192480, Note_on_c, 0, 86, 0
1, 192840, Note_on_c, 0, 62, 66
1, 192840, Note_on_c, 0, 50, 62
1, 192937, Control_c, 0, 64, 127
1, 192960, Note_on_c, 0, 50, 0
1, 192960, Note_on_c, 0, 62, 0
1, 192960, Note_on_c, 0, 66, 77
1, 192960, Note_on_c, 0, 54, 71
1, 193120, Note_on_c, 0, 54, 0
1, 193120, Note_on_c, 0, 66, 0
1, 193120, Note_on_c, 0, 62, 69
1, 193120, Note_on_c, 0, 50, 62
1, 193280, Note_on_c, 0, 50, 0
1, 193280, Note_on_c, 0, 62, 0
1, 193280, Note_on_c, 0, 66, 69
1, 193280, Note_on_c, 0, 54, 62
1, 193440, Note_on_c, 0, 54, 0
1, 193440, Note_on_c, 0, 66, 0
1, 193440, Note_on_c, 0, 69, 80
1, 193440, Note_on_c, 0, 57, 68
1, 193600, Note_on_c, 0, 57, 0
1, 193600, Note_on_c, 0, 69, 0
1, 193600, Note_on_c, 0, 66, 70
1, 193600, Note_on_c, 0, 54, 64
1, 193760, Note_on_c, 0, 54, 0
1, 193760, Note_on_c, 0, 66, 0
1, 193760, Note_on_c, 0, 69, 70
1, 193760, Note_on_c, 0, 57, 64
1, 193800, Tempo, 444313
1, 193920, Tempo, 380856
1, 193920, Note_on_c, 0, 57, 0
1, 193920, Note_on_c, 0, 69, 0
1, 193920, Note_on_c, 0, 74, 84
1, 193920, Note_on_c, 0, 62, 74
1, 193920, Control_c, 0, 64, 0
1, 194214, Control_c, 0, 64, 127
1, 194400, Note_on_c, 0, 62, 0
1, 194400, Note_on_c, 0, 74, 0
1, 194527, Control_c, 0, 64, 0
1, 194880, Note_on_c, 0, 50, 95
1, 194880, Note_on_c, 0, 38, 84
1, 195050, Control_c, 0, 64, 127
1, 195600, Note_on_c, 0, 38, 0
1, 195600, Note_on_c, 0, 50, 0
1, 195600, Note_on_c, 0, 50, 89
1, 195600, Note_on_c, 0, 38, 78
1, 195840, Note_on_c, 0, 38, 0
1, 195840, Note_on_c, 0, 50, 0
1, 195840, Note_on_c, 0, 50, 97
1, 195840, Note_on_c, 0, 38, 84
1, 196320, Note_on_c, 0, 38, 0
1, 196320, Note_on_c, 0, 50, 0
1, 196454, Control_c, 0, 64, 0
1, 197760, Tempo, 354946
1, 197760, Note_on_c, 0, 59, 40
1, 197760, Control_c, 0, 64, 0
1, 197880, Control_c, 0, 64, 127
1, 197920, Note_on_c, 0, 59, 0
1, 197923, Note_on_c, 0, 62, 32
1, 198080, Note_on_c, 0, 67, 32
1, 198083, Note_on_c, 0, 62, 0
1, 198240, Note_on_c, 0, 67, 0
1, 198240, Note_on_c, 0, 59, 40
1, 198400, Note_on_c, 0, 59, 0
1, 198403, Note_on_c, 0, 62, 34
1, 198560, Note_on_c, 0, 67, 34
1, 198563, Note_on_c, 0, 62, 0
1, 198720, Tempo, 356316
1, 198720, Note_on_c, 0, 67, 0
1, 198720, Note_on_c, 0, 59, 40
1, 198880, Note_on_c, 0, 59, 0
1, 198883, Note_on_c, 0, 62, 32
1, 199040, Note_on_c, 0, 67, 32
1, 199043, Note_on_c, 0, 62, 0
1, 199200, Tempo, 353586
1, 199200, Note_on_c, 0, 67, 0
1, 199200, Note_on_c, 0, 76, 57
1, 199200, Note_on_c, 0, 60, 40
1, 199214, Control_c, 0, 64, 0
1, 199320, Note_on_c, 0, 76, 0
1, 199320, Note_on_c, 0, 74, 50
1, 199320, Control_c, 0, 64, 127
1, 199360, Note_on_c, 0, 60, 0
1, 199360, Note_on_c, 0, 62, 32
1, 199440, Note_on_c, 0, 74, 0
1, 199440, Note_on_c, 0, 73, 50
1, 199520, Note_on_c, 0, 62, 0
1, 199520, Note_on_c, 0, 66, 33
1, 199560, Note_on_c, 0, 73, 0
1, 199560, Note_on_c, 0, 74, 50
1, 199680, Note_on_c, 0, 74, 0
1, 199680, Note_on_c, 0, 66, 0
1, 199680, Note_on_c, 0, 79, 63
1, 199680, Note_on_c, 0, 59, 40
1, 199709, Control_c, 0, 64, 0
1, 199800, Note_on_c, 0, 79, 0
1, 199800, Control_c, 0, 64, 127
1, 199835, Note_on_c, 0, 62, 32
1, 199840, Note_on_c, 0, 59, 0
1, 199995, Note_on_c, 0, 62, 0
1, 200000, Note_on_c, 0, 67, 32
1, 200160, Note_on_c, 0, 67, 0
1, 200160, Note_on_c, 0, 79, 53
1, 200160, Note_on_c, 0, 59, 41
1, 200280, Note_on_c, 0, 79, 0
1, 200315, Note_on_c, 0, 62, 35
1, 200320, Note_on_c, 0, 59, 0
1, 200475, Note_on_c, 0, 62, 0
1, 200480, Note_on_c, 0, 67, 36
1, 200640, Tempo, 356316
1, 200640, Note_on_c, 0, 67, 0
1, 200640, Note_on_c, 0, 59, 43
1, 200800, Note_on_c, 0, 59, 0
1, 200800, Note_on_c, 0, 62, 35
1, 200960, Note_on_c, 0, 62, 0
1, 200960, Note_on_c, 0, 67, 35
1, 201120, Tempo, 353586
1, 201120, Note_on_c, 0, 67, 0
1, 201120, Note_on_c, 0, 76, 60
1, 201120, Note_on_c, 0, 60, 45
1, 201123, Control_c, 0, 64, 0
1, 201217, Control_c, 0, 64, 127
1, 201240, Note_on_c, 0, 76, 0
1, 201240, Note_on_c, 0, 74, 53
1, 201280, Note_on_c, 0, 60, 0
1, 201280, Note_on_c, 0, 62, 37
1, 201360, Note_on_c, 0, 74, 0
1, 201360, Note_on_c, 0, 73, 53
1, 201440, Note_on_c, 0, 62, 0
1, 201440, Note_on_c, 0, 66, 38
1, 201480, Note_on_c, 0, 73, 0
1, 201480, Note_on_c, 0, 74, 53
1, 201600, Tempo, 354946
1, 201600, Note_on_c, 0, 74, 0
1, 201600, Note_on_c, 0, 66, 0
1, 201600, Note_on_c, 0, 79, 68
1, 201600, Note_on_c, 0, 59, 48
1, 201605, Control_c, 0, 64, 0
1, 201709, Control_c, 0, 64, 127
1, 201720, Note_on_c, 0, 79, 0
1, 201760, Note_on_c, 0, 59, 0
1, 201760, Note_on_c, 0, 62, 38
1, 201920, Note_on_c, 0, 62, 0
1, 201920, Note_on_c, 0, 67, 39
1, 202080, Note_on_c, 0, 67, 0
1, 202080, Note_on_c, 0, 79, 57
1, 202080, Note_on_c, 0, 59, 49
1, 202200, Note_on_c, 0, 79, 0
1, 202240, Note_on_c, 0, 59, 0
1, 202240, Note_on_c, 0, 62, 41
1, 202400, Note_on_c, 0, 62, 0
1, 202400, Note_on_c, 0, 67, 42
1, 202560, Tempo, 356316
1, 202560, Note_on_c, 0, 67, 0
1, 202560, Note_on_c, 0, 59, 50
1, 202720, Note_on_c, 0, 59, 0
1, 202720, Note_on_c, 0, 62, 40
1, 202880, Note_on_c, 0, 62, 0
1, 202880, Note_on_c, 0, 67, 40
1, 203040, Tempo, 353586
1, 203040, Note_on_c, 0, 67, 0
1, 203040, Note_on_c, 0, 76, 64
1, 203040, Note_on_c, 0, 60, 51
1, 203051, Control_c, 0, 64, 0
1, 203143, Control_c, 0, 64, 127
1, 203160, Note_on_c, 0, 76, 0
1, 203160, Note_on_c, 0, 74, 57
1, 203200, Note_on_c, 0, 60, 0
1, 203200, Note_on_c, 0, 62, 41
1, 203280, Note_on_c, 0, 74, 0
1, 203280, Note_on_c, 0, 73, 57
1, 203360, Note_on_c, 0, 62, 0
1, 203360, Note_on_c, 0, 66, 42
1, 203400, Note_on_c, 0, 73, 0
1, 203400, Note_on_c, 0, 74, 57
1, 203520, Tempo, 354946
1, 203520, Note_on_c, 0, 74, 0
1, 203520, Note_on_c, 0, 66, 0
1, 203520, Note_on_c, 0, 79, 73
1, 203520, Note_on_c, 0, 59, 52
1, 203520, Control_c, 0, 64, 0
1, 203635, Control_c, 0, 64, 127
1, 203680, Note_on_c, 0, 59, 0
1, 203680, Note_on_c, 0, 62, 41
1, 203840, Note_on_c, 0, 62, 0
1, 203840, Note_on_c, 0, 67, 42
1, 204000, Note_on_c, 0, 67, 0
1, 204000, Note_on_c, 0, 79, 0
1, 204000, Note_on_c, 0, 81, 75
1, 204000, Note_on_c, 0, 59, 54
1, 204120, Note_on_c, 0, 81, 0
1, 204120, Note_on_c, 0, 79, 63
1, 204160, Note_on_c, 0, 59, 0
1, 204160, Note_on_c, 0, 62, 45
1, 204240, Note_on_c, 0, 79, 0
1, 204240, Note_on_c, 0, 78, 63
1, 204320, Note_on_c, 0, 62, 0
1, 204320, Note_on_c, 0, 67, 46
1, 204360, Note_on_c, 0, 78, 0
1, 204360, Note_on_c, 0, 79, 63
1, 204480, Tempo, 356316
1, 204480, Note_on_c, 0, 79, 0
1, 204480, Note_on_c, 0, 67, 0
1, 204480, Note_on_c, 0, 81, 75
1, 204480, Note_on_c, 0, 54, 56
1, 204488, Control_c, 0, 64, 0
1, 204595, Control_c, 0, 64, 127
1, 204640, Note_on_c, 0, 54, 0
1, 204640, Note_on_c, 0, 57, 45
1, 204800, Note_on_c, 0, 57, 0
1, 204800, Note_on_c, 0, 62, 45
1, 204960, Tempo, 353586
1, 204960, Note_on_c, 0, 62, 0
1, 204960, Note_on_c, 0, 81, 0
1, 204960, Note_on_c, 0, 83, 75
1, 204960, Note_on_c, 0, 54, 57
1, 205080, Note_on_c, 0, 83, 0
1, 205080, Note_on_c, 0, 81, 66
1, 205120, Note_on_c, 0, 54, 0
1, 205120, Note_on_c, 0, 57, 46
1, 205200, Note_on_c, 0, 81, 0
1, 205200, Note_on_c, 0, 79, 66
1, 205280, Note_on_c, 0, 57, 0
1, 205280, Note_on_c, 0, 62, 48
1, 205320, Note_on_c, 0, 79, 0
1, 205320, Note_on_c, 0, 81, 66
1, 205440, Tempo, 354946
1, 205440, Note_on_c, 0, 81, 0
1, 205440, Note_on_c, 0, 62, 0
1, 205440, Note_on_c, 0, 83, 78
1, 205440, Note_on_c, 0, 55, 59
1, 205447, Control_c, 0, 64, 0
1, 205581, Control_c, 0, 64, 127
1, 205600, Note_on_c, 0, 55, 0
1, 205600, Note_on_c, 0, 59, 48
1, 205760, Note_on_c, 0, 59, 0
1, 205760, Note_on_c, 0, 62, 49
1, 205920, Note_on_c, 0, 62, 0
1, 205920, Note_on_c, 0, 83, 0
1, 205920, Note_on_c, 0, 84, 77
1, 205920, Note_on_c, 0, 55, 62
1, 206040, Note_on_c, 0, 84, 0
1, 206040, Note_on_c, 0, 83, 70
1, 206080, Note_on_c, 0, 55, 0
1, 206080, Note_on_c, 0, 59, 52
1, 206160, Note_on_c, 0, 83, 0
1, 206160, Note_on_c, 0, 81, 70
1, 206240, Note_on_c, 0, 59, 0
1, 206240, Note_on_c, 0, 62, 54
1, 206280, Note_on_c, 0, 81, 0
1, 206280, Note_on_c, 0, 83, 71
1, 206400, Tempo, 356316
1, 206400, Note_on_c, 0, 83, 0
1, 206400, Note_on_c, 0, 62, 0
1, 206400, Note_on_c, 0, 84, 81
1, 206400, Note_on_c, 0, 52, 64
1, 206406, Control_c, 0, 64, 0
1, 206520, Control_c, 0, 64, 127
1, 206560, Note_on_c, 0, 52, 0
1, 206560, Note_on_c, 0, 55, 52
1, 206720, Note_on_c, 0, 55, 0
1, 206720, Note_on_c, 0, 60, 52
1, 206880, Tempo, 362450
1, 206880, Note_on_c, 0, 60, 0
1, 206880, Note_on_c, 0, 84, 0
1, 206880, Note_on_c, 0, 86, 87
1, 206880, Note_on_c, 0, 52, 66
1, 207000, Note_on_c, 0, 86, 0
1, 207000, Note_on_c, 0, 84, 75
1, 207040, Note_on_c, 0, 52, 0
1, 207040, Note_on_c, 0, 55, 58
1, 207120, Note_on_c, 0, 84, 0
1, 207120, Note_on_c, 0, 83, 78
1, 207200, Note_on_c, 0, 55, 0
1, 207200, Note_on_c, 0, 60, 59
1, 207240, Tempo, 437828
1, 207240, Note_on_c, 0, 83, 0
1, 207240, Note_on_c, 0, 84, 76
1, 207360, Tempo, 361359
1, 207360, Note_on_c, 0, 84, 0
1, 207360, Note_on_c, 0, 60, 0
1, 207360, Note_on_c, 0, 86, 105
1, 207360, Note_on_c, 0, 47, 67
1, 207360, Control_c, 0, 64, 0
1, 207516, Control_c, 0, 64, 127
1, 207519, Note_on_c, 0, 50, 60
1, 207520, Note_on_c, 0, 47, 0
1, 207678, Note_on_c, 0, 55, 61
1, 207679, Note_on_c, 0, 50, 0
1, 207837, Note_on_c, 0, 47, 68
1, 207837, Tempo, 363548
1, 207838, Note_on_c, 0, 55, 0
1, 207895, Tempo, 364653
1, 207953, Tempo, 365764
1, 207996, Note_on_c, 0, 50, 62
1, 207997, Note_on_c, 0, 47, 0
1, 208010, Tempo, 366883
1, 208068, Tempo, 368008
1, 208106, Tempo, 369140
1, 208156, Note_on_c, 0, 50, 0
1, 208158, Note_on_c, 0, 55, 62
1, 208164, Tempo, 370279
1, 208221, Tempo, 371425
1, 208279, Tempo, 372578
1, 208317, Tempo, 373739
1, 208318, Note_on_c, 0, 55, 0
1, 208320, Note_on_c, 0, 47, 71
1, 208375, Tempo, 374906
1, 208433, Tempo, 376081
1, 208490, Tempo, 377264
1, 208529, Tempo, 378453
1, 208586, Tempo, 379651
1, 208644, Tempo, 380856
1, 208701, Tempo, 382068
1, 208740, Tempo, 383289
1, 208800, Tempo, 398565
1, 208800, Note_on_c, 0, 47, 0
1, 208800, Note_on_c, 0, 86, 0
1, 208800, Note_on_c, 0, 75, 86
1, 208800, Note_on_c, 0, 87, 103
1, 208800, Control_c, 0, 64, 0
1, 208871, Control_c, 0, 64, 127
1, 209280, Tempo, 369140
1, 209280, Note_on_c, 0, 87, 0
1, 209280, Note_on_c, 0, 75, 0
1, 209280, Note_on_c, 0, 88, 108
1, 209280, Note_on_c, 0, 76, 92
1, 209280, Note_on_c, 0, 48, 72
1, 209280, Note_on_c, 0, 36, 72
1, 209280, Control_c, 0, 64, 0
1, 209509, Control_c, 0, 64, 127
1, 209760, Note_on_c, 0, 36, 0
1, 209760, Note_on_c, 0, 88, 0
1, 209760, Note_on_c, 0, 76, 0
1, 209760, Note_on_c, 0, 48, 0
1, 209760, Note_on_c, 0, 80, 75
1, 209760, Note_on_c, 0, 68, 64
1, 209772, Control_c, 0, 64, 0
1, 209966, Control_c, 0, 64, 127
1, 210240, Note_on_c, 0, 68, 0
1, 210240, Note_on_c, 0, 80, 0
1, 210240, Note_on_c, 0, 81, 82
1, 210240, Note_on_c, 0, 69, 69
1, 210248, Control_c, 0, 64, 0
1, 210423, Control_c, 0, 64, 127
1, 210720, Note_on_c, 0, 69, 0
1, 210720, Note_on_c, 0, 81, 0
1, 210720, Note_on_c, 0, 83, 89
1, 210720, Note_on_c, 0, 71, 75
1, 210738, Control_c, 0, 64, 0
1, 210926, Control_c, 0, 64, 127
1, 211200, Note_on_c, 0, 71, 0
1, 211200, Note_on_c, 0, 83, 0
1, 211200, Note_on_c, 0, 84, 95
1, 211200, Note_on_c, 0, 72, 80
1, 211200, Control_c, 0, 64, 0
1, 211494, Control_c, 0, 64, 127
1, 211680, Tempo, 394633
1, 212160, Tempo, 377264
1, 212160, Note_on_c, 0, 72, 0
1, 212160, Note_on_c, 0, 84, 0
1, 212160, Note_on_c, 0, 86, 95
1, 212160, Note_on_c, 0, 74, 80
1, 212167, Control_c, 0, 64, 0
1, 212374, Control_c, 0, 64, 127
1, 212640, Tempo, 422416
1, 212640, Note_on_c, 0, 74, 0
1, 212640, Note_on_c, 0, 86, 0
1, 212640, Note_on_c, 0, 76, 76
1, 212640, Note_on_c, 0, 88, 91
1, 212650, Control_c, 0, 64, 0
1, 212827, Control_c, 0, 64, 127
1, 213120, Tempo, 371425
1, 213120, Note_on_c, 0, 88, 0
1, 213120, Note_on_c, 0, 76, 0
1, 213120, Note_on_c, 0, 74, 59
1, 213120, Note_on_c, 0, 79, 70
1, 213120, Note_on_c, 0, 71, 42
1, 213120, Note_on_c, 0, 62, 42
1, 213120, Control_c, 0, 64, 0
1, 213237, Control_c, 0, 64, 127
1, 214020, Note_on_c, 0, 79, 0
1, 214020, Note_on_c, 0, 74, 0
1, 214020, Note_on_c, 0, 83, 58
1, 214080, Tempo, 376081
1, 214080, Note_on_c, 0, 83, 0
1, 214080, Note_on_c, 0, 71, 0
1, 214080, Note_on_c, 0, 81, 66
1, 214080, Note_on_c, 0, 78, 66
1, 214080, Note_on_c, 0, 72, 43
1, 214101, Control_c, 0, 64, 0
1, 214218, Control_c, 0, 64, 127
1, 214800, Tempo, 418002
1, 214800, Note_on_c, 0, 81, 0
1, 214800, Note_on_c, 0, 79, 56
1, 215040, Tempo, 370279
1, 215040, Note_on_c, 0, 79, 0
1, 215040, Note_on_c, 0, 72, 0
1, 215040, Note_on_c, 0, 78, 0
1, 215040, Note_on_c, 0, 62, 0
1, 215040, Note_on_c, 0, 79, 66
1, 215040, Note_on_c, 0, 67, 40
1, 215040, Note_on_c, 0, 71, 40
1, 215040, Control_c, 0, 64, 0
1, 215520, Note_on_c, 0, 71, 0
1, 215520, Note_on_c, 0, 67, 0
1, 215520, Note_on_c, 0, 79, 0
1, 216480, Tempo, 359195
1, 216480, Note_on_c, 0, 83, 57
1, 216480, Note_on_c, 0, 79, 36
1, 216520, Control_c, 0, 64, 127
1, 216520, Control_c, 0, 64, 127
1, 216640, Note_on_c, 0, 83, 0
1, 216640, Note_on_c, 0, 87, 61
1, 216800, Tempo, 405296
1, 216800, Note_on_c, 0, 87, 0
1, 216800, Note_on_c, 0, 88, 61
1, 216960, Tempo, 359195
1, 216960, Note_on_c, 0, 88, 0
1, 216960, Note_on_c, 0, 79, 0
1, 216960, Note_on_c, 0, 86, 58
1, 216960, Note_on_c, 0, 78, 38
1, 216960, Note_on_c, 0, 81, 38
1, 216972, Control_c, 0, 64, 0
1, 216972, Control_c, 0, 64, 0
1, 217080, Note_on_c, 0, 81, 0
1, 217080, Note_on_c, 0, 78, 0
1, 217080, Note_on_c, 0, 86, 0
1, 217440, Note_on_c, 0, 86, 49
1, 217560, Note_on_c, 0, 86, 0
1, 217920, Note_on_c, 0, 86, 49
1, 218040, Note_on_c, 0, 86, 0
1, 218240, Tempo, 399893
1, 218400, Tempo, 359195
1, 218400, Note_on_c, 0, 79, 57
1, 218400, Note_on_c, 0, 76, 36
1, 218440, Control_c, 0, 64, 127
1, 218560, Note_on_c, 0, 79, 0
1, 218560, Note_on_c, 0, 83, 44
1, 218720, Tempo, 405296
1, 218720, Note_on_c, 0, 83, 0
1, 218720, Note_on_c, 0, 84, 44
1, 218880, Tempo, 359195
1, 218880, Note_on_c, 0, 84, 0
1, 218880, Note_on_c, 0, 76, 0
1, 218880, Note_on_c, 0, 83, 58
1, 218880, Note_on_c, 0, 78, 38
1, 218880, Note_on_c, 0, 74, 38
1, 218892, Control_c, 0, 64, 0
1, 219000, Note_on_c, 0, 74, 0
1, 219000, Note_on_c, 0, 78, 0
1, 219000, Note_on_c, 0, 83, 0
1, 219360, Note_on_c, 0, 83, 49
1, 219480, Note_on_c, 0, 83, 0
1, 219840, Note_on_c, 0, 83, 49
1, 219960, Note_on_c, 0, 83, 0
1, 220320, Tempo, 359195
1, 220320, Note_on_c, 0, 76, 57
1, 220320, Note_on_c, 0, 72, 36
1, 220360, Control_c, 0, 64, 127
1, 220480, Note_on_c, 0, 76, 0
1, 220480, Note_on_c, 0, 80, 44
1, 220640, Tempo, 405296
1, 220640, Note_on_c, 0, 80, 0
1, 220640, Note_on_c, 0, 81, 44
1, 220800, Tempo, 359195
1, 220800, Note_on_c, 0, 81, 0
1, 220800, Note_on_c, 0, 72, 0
1, 220800, Note_on_c, 0, 79, 58
1, 220800, Note_on_c, 0, 74, 38
1, 220800, Note_on_c, 0, 71, 38
1, 220812, Control_c, 0, 64, 0
1, 220920, Note_on_c, 0, 71, 0
1, 220920, Note_on_c, 0, 74, 0
1, 220920, Note_on_c, 0, 79, 0
1, 221280, Note_on_c, 0, 79, 49
1, 221400, Note_on_c, 0, 79, 0
1, 221760, Note_on_c, 0, 79, 49
1, 221880, Note_on_c, 0, 79, 0
1, 222240, Tempo, 353899
1, 222240, Note_on_c, 0, 83, 61
1, 222240, Note_on_c, 0, 71, 36
1, 222240, Note_on_c, 0, 67, 36
1, 222290, Control_c, 0, 64, 127
1, 222600, Note_on_c, 0, 83, 0
1, 222600, Note_on_c, 0, 79, 54
1, 222720, Note_on_c, 0, 79, 0
1, 222720, Note_on_c, 0, 67, 0
1, 222720, Note_on_c, 0, 71, 0
1, 222720, Note_on_c, 0, 76, 62
1, 222720, Note_on_c, 0, 72, 41
1, 222720, Note_on_c, 0, 60, 41
1, 222720, Control_c, 0, 64, 0
1, 222840, Note_on_c, 0, 60, 0
1, 222840, Note_on_c, 0, 72, 0
1, 222840, Note_on_c, 0, 76, 0
1, 222960, Tempo, 373739
1, 223200, Tempo, 358123
1, 223200, Note_on_c, 0, 84, 61
1, 223309, Control_c, 0, 64, 127
1, 223560, Note_on_c, 0, 84, 0
1, 223560, Note_on_c, 0, 81, 53
1, 223680, Note_on_c, 0, 81, 0
1, 223680, Note_on_c, 0, 78, 61
1, 223680, Note_on_c, 0, 62, 38
1, 223680, Note_on_c, 0, 69, 38
1, 223697, Control_c, 0, 64, 0
1, 223800, Note_on_c, 0, 69, 0
1, 223800, Note_on_c, 0, 62, 0
1, 223800, Note_on_c, 0, 78, 0
1, 223920, Tempo, 370279
1, 224160, Tempo, 355999
1, 224160, Note_on_c, 0, 81, 60
1, 224269, Control_c, 0, 64, 127
1, 224400, Tempo, 365764
1, 224520, Note_on_c, 0, 81, 0
1, 224520, Note_on_c, 0, 78, 54
1, 224640, Tempo, 354946
1, 224640, Note_on_c, 0, 78, 0
1, 224640, Note_on_c, 0, 79, 61
1, 224640, Note_on_c, 0, 71, 41
1, 224640, Note_on_c, 0, 67, 41
1, 224669, Control_c, 0, 64, 0
1, 224760, Note_on_c, 0, 67, 0
1, 224760, Note_on_c, 0, 71, 0
1, 224760, Note_on_c, 0, 79, 0
1, 226080, Tempo, 359195
1, 226080, Note_on_c, 0, 83, 88
1, 226080, Note_on_c, 0, 79, 70
1, 226120, Control_c, 0, 64, 127
1, 226240, Note_on_c, 0, 83, 0
1, 226240, Note_on_c, 0, 87, 61
1, 226400, Tempo, 405296
1, 226400, Note_on_c, 0, 87, 0
1, 226400, Note_on_c, 0, 88, 61
1, 226560, Tempo, 359195
1, 226560, Note_on_c, 0, 88, 0
1, 226560, Note_on_c, 0, 79, 0
1, 226560, Note_on_c, 0, 81, 72
1, 226560, Note_on_c, 0, 78, 44
1, 226572, Control_c, 0, 64, 0
1, 226646, Control_c, 0, 64, 127
1, 226680, Note_on_c, 0, 78, 0
1, 226720, Note_on_c, 0, 81, 0
1, 226720, Note_on_c, 0, 85, 47
1, 226880, Note_on_c, 0, 85, 0
1, 226880, Note_on_c, 0, 86, 47
1, 226955, Control_c, 0, 64, 0
1, 227040, Note_on_c, 0, 86, 0
1, 227040, Note_on_c, 0, 81, 66
1, 227040, Note_on_c, 0, 78, 35
1, 227149, Control_c, 0, 64, 127
1, 227160, Note_on_c, 0, 78, 0
1, 227200, Note_on_c, 0, 81, 0
1, 227200, Note_on_c, 0, 85, 47
1, 227360, Note_on_c, 0, 85, 0
1, 227360, Note_on_c, 0, 86, 47
1, 227377, Control_c, 0, 64, 0
1, 227520, Note_on_c, 0, 86, 0
1, 227520, Note_on_c, 0, 81, 66
1, 227520, Note_on_c, 0, 78, 35
1, 227595, Control_c, 0, 64, 127
1, 227640, Note_on_c, 0, 78, 0
1, 227680, Note_on_c, 0, 81, 0
1, 227680, Note_on_c, 0, 85, 51
1, 227840, Tempo, 399893
1, 227840, Note_on_c, 0, 85, 0
1, 227840, Note_on_c, 0, 86, 52
1, 227863, Control_c, 0, 64, 0
1, 228000, Tempo, 359195
1, 228000, Note_on_c, 0, 86, 0
1, 228000, Note_on_c, 0, 83, 88
1, 228000, Note_on_c, 0, 79, 70
1, 228040, Control_c, 0, 64, 127
1, 228160, Note_on_c, 0, 83, 0
1, 228160, Note_on_c, 0, 87, 61
1, 228320, Tempo, 405296
1, 228320, Note_on_c, 0, 87, 0
1, 228320, Note_on_c, 0, 88, 61
1, 228480, Tempo, 359195
1, 228480, Note_on_c, 0, 88, 0
1, 228480, Note_on_c, 0, 79, 0
1, 228480, Note_on_c, 0, 81, 69
1, 228480, Note_on_c, 0, 78, 44
1, 228492, Control_c, 0, 64, 0
1, 228577, Control_c, 0, 64, 127
1, 228600, Note_on_c, 0, 78, 0
1, 228640, Note_on_c, 0, 81, 0
1, 228640, Note_on_c, 0, 85, 54
1, 228800, Note_on_c, 0, 85, 0
1, 228800, Note_on_c, 0, 86, 55
1, 228846, Control_c, 0, 64, 0
1, 228960, Note_on_c, 0, 86, 0
1, 228960, Note_on_c, 0, 81, 70
1, 228960, Note_on_c, 0, 78, 32
1, 229040, Control_c, 0, 64, 127
1, 229080, Note_on_c, 0, 78, 0
1, 229120, Note_on_c, 0, 81, 0
1, 229120, Note_on_c, 0, 85, 47
1, 229280, Note_on_c, 0, 85, 0
1, 229280, Note_on_c, 0, 86, 47
1, 229320, Control_c, 0, 64, 0
1, 229440, Note_on_c, 0, 86, 0
1, 229440, Note_on_c, 0, 81, 67
1, 229440, Note_on_c, 0, 78, 32
1, 229520, Control_c, 0, 64, 127
1, 229560, Note_on_c, 0, 78, 0
1, 229600, Note_on_c, 0, 81, 0
1, 229600, Note_on_c, 0, 85, 46
1, 229760, Tempo, 399893
1, 229760, Note_on_c, 0, 85, 0
1, 229760, Note_on_c, 0, 86, 49
1, 229829, Control_c, 0, 64, 0
1, 229920, Tempo, 359195
1, 229920, Note_on_c, 0, 86, 0
1, 229920, Note_on_c, 0, 79, 64
1, 229920, Note_on_c, 0, 76, 63
1, 229960, Control_c, 0, 64, 127
1, 230080, Note_on_c, 0, 79, 0
1, 230080, Note_on_c, 0, 83, 50
1, 230240, Tempo, 405296
1, 230240, Note_on_c, 0, 83, 0
1, 230240, Note_on_c, 0, 84, 50
1, 230400, Tempo, 359195
1, 230400, Note_on_c, 0, 84, 0
1, 230400, Note_on_c, 0, 76, 0
1, 230400, Note_on_c, 0, 78, 70
1, 230400, Note_on_c, 0, 74, 39
1, 230412, Control_c, 0, 64, 0
1, 230497, Control_c, 0, 64, 127
1, 230520, Note_on_c, 0, 74, 0
1, 230560, Note_on_c, 0, 78, 0
1, 230560, Note_on_c, 0, 82, 50
1, 230686, Control_c, 0, 64, 0
1, 230720, Note_on_c, 0, 82, 0
1, 230720, Note_on_c, 0, 83, 50
1, 230880, Note_on_c, 0, 83, 0
1, 230880, Note_on_c, 0, 78, 66
1, 230880, Note_on_c, 0, 74, 30
1, 230943, Control_c, 0, 64, 127
1, 231000, Note_on_c, 0, 74, 0
1, 231040, Note_on_c, 0, 78, 0
1, 231040, Note_on_c, 0, 82, 46
1, 231200, Note_on_c, 0, 82, 0
1, 231200, Note_on_c, 0, 83, 46
1, 231252, Control_c, 0, 64, 0
1, 231360, Note_on_c, 0, 83, 0
1, 231360, Note_on_c, 0, 78, 64
1, 231360, Note_on_c, 0, 74, 30
1, 231435, Control_c, 0, 64, 127
1, 231480, Note_on_c, 0, 74, 0
1, 231520, Note_on_c, 0, 78, 0
1, 231520, Note_on_c, 0, 82, 46
1, 231680, Tempo, 399893
1, 231680, Note_on_c, 0, 82, 0
1, 231680, Note_on_c, 0, 83, 46
1, 231840, Tempo, 359195
1, 231840, Note_on_c, 0, 83, 0
1, 231840, Note_on_c, 0, 79, 75
1, 231840, Note_on_c, 0, 76, 58
1, 231852, Control_c, 0, 64, 0
1, 231955, Control_c, 0, 64, 127
1, 232000, Note_on_c, 0, 79, 0
1, 232000, Note_on_c, 0, 83, 54
1, 232160, Tempo, 405296
1, 232160, Note_on_c, 0, 83, 0
1, 232160, Note_on_c, 0, 84, 54
1, 232320, Tempo, 359195
1, 232320, Note_on_c, 0, 84, 0
1, 232320, Note_on_c, 0, 76, 0
1, 232320, Note_on_c, 0, 78, 72
1, 232320, Note_on_c, 0, 74, 39
1, 232332, Control_c, 0, 64, 0
1, 232417, Control_c, 0, 64, 127
1, 232440, Note_on_c, 0, 74, 0
1, 232480, Note_on_c, 0, 78, 0
1, 232480, Note_on_c, 0, 82, 50
1, 232640, Note_on_c, 0, 82, 0
1, 232640, Note_on_c, 0, 83, 50
1, 232680, Control_c, 0, 64, 0
1, 232800, Note_on_c, 0, 83, 0
1, 232800, Note_on_c, 0, 78, 66
1, 232800, Note_on_c, 0, 74, 28
1, 232915, Control_c, 0, 64, 127
1, 232920, Note_on_c, 0, 74, 0
1, 232960, Note_on_c, 0, 78, 0
1, 232960, Note_on_c, 0, 82, 47
1, 233120, Note_on_c, 0, 82, 0
1, 233120, Note_on_c, 0, 83, 47
1, 233143, Control_c, 0, 64, 0
1, 233280, Note_on_c, 0, 83, 0
1, 233280, Note_on_c, 0, 78, 64
1, 233280, Note_on_c, 0, 74, 28
1, 233355, Control_c, 0, 64, 127
1, 233400, Note_on_c, 0, 74, 0
1, 233440, Note_on_c, 0, 78, 0
1, 233440, Note_on_c, 0, 82, 47
1, 233600, Tempo, 399893
1, 233600, Note_on_c, 0, 82, 0
1, 233600, Note_on_c, 0, 83, 48
1, 233652, Control_c, 0, 64, 0
1, 233760, Tempo, 359195
1, 233760, Note_on_c, 0, 83, 0
1, 233760, Note_on_c, 0, 76, 70
1, 233760, Note_on_c, 0, 72, 56
1, 233772, Control_c, 0, 64, 0
1, 233875, Control_c, 0, 64, 127
1, 233920, Note_on_c, 0, 76, 0
1, 233920, Note_on_c, 0, 80, 54
1, 234080, Tempo, 405296
1, 234080, Note_on_c, 0, 80, 0
1, 234080, Note_on_c, 0, 81, 54
1, 234240, Tempo, 359195
1, 234240, Note_on_c, 0, 81, 0
1, 234240, Note_on_c, 0, 72, 0
1, 234240, Note_on_c, 0, 74, 59
1, 234240, Note_on_c, 0, 71, 39
1, 234252, Control_c, 0, 64, 0
1, 234337, Control_c, 0, 64, 127
1, 234360, Note_on_c, 0, 71, 0
1, 234400, Note_on_c, 0, 74, 0
1, 234400, Note_on_c, 0, 78, 48
1, 234560, Note_on_c, 0, 78, 0
1, 234560, Note_on_c, 0, 79, 46
1, 234600, Control_c, 0, 64, 0
1, 234720, Note_on_c, 0, 79, 0
1, 234720, Note_on_c, 0, 74, 61
1, 234720, Note_on_c, 0, 71, 28
1, 234835, Control_c, 0, 64, 127
1, 234840, Note_on_c, 0, 71, 0
1, 234880, Note_on_c, 0, 74, 0
1, 234880, Note_on_c, 0, 78, 47
1, 235040, Note_on_c, 0, 78, 0
1, 235040, Note_on_c, 0, 79, 50
1, 235063, Control_c, 0, 64, 0
1, 235200, Note_on_c, 0, 79, 0
1, 235200, Note_on_c, 0, 74, 62
1, 235200, Note_on_c, 0, 71, 29
1, 235275, Control_c, 0, 64, 127
1, 235320, Note_on_c, 0, 71, 0
1, 235360, Note_on_c, 0, 74, 0
1, 235360, Note_on_c, 0, 78, 49
1, 235520, Tempo, 399893
1, 235520, Note_on_c, 0, 78, 0
1, 235520, Note_on_c, 0, 79, 49
1, 235572, Control_c, 0, 64, 0
1, 235680, Tempo, 359195
1, 235680, Note_on_c, 0, 79, 0
1, 235680, Note_on_c, 0, 76, 70
1, 235680, Note_on_c, 0, 72, 56
1, 235795, Control_c, 0, 64, 127
1, 235840, Note_on_c, 0, 76, 0
1, 235840, Note_on_c, 0, 80, 54
1, 236000, Tempo, 405296
1, 236000, Note_on_c, 0, 80, 0
1, 236000, Note_on_c, 0, 81, 54
1, 236160, Tempo, 359195
1, 236160, Note_on_c, 0, 81, 0
1, 236160, Note_on_c, 0, 72, 0
1, 236160, Note_on_c, 0, 74, 59
1, 236160, Note_on_c, 0, 71, 39
1, 236172, Control_c, 0, 64, 0
1, 236257, Control_c, 0, 64, 127
1, 236280, Note_on_c, 0, 71, 0
1, 236320, Note_on_c, 0, 74, 0
1, 236320, Note_on_c, 0, 78, 48
1, 236480, Note_on_c, 0, 78, 0
1, 236480, Note_on_c, 0, 79, 46
1, 236520, Control_c, 0, 64, 0
1, 236640, Note_on_c, 0, 79, 0
1, 236640, Note_on_c, 0, 74, 61
1, 236640, Note_on_c, 0, 71, 28
1, 236755, Control_c, 0, 64, 127
1, 236760, Note_on_c, 0, 71, 0
1, 236800, Note_on_c, 0, 74, 0
1, 236800, Note_on_c, 0, 78, 47
1, 236960, Note_on_c, 0, 78, 0
1, 236960, Note_on_c, 0, 79, 50
1, 236983, Control_c, 0, 64, 0
1, 237120, Note_on_c, 0, 79, 0
1, 237120, Note_on_c, 0, 74, 62
1, 237120, Note_on_c, 0, 71, 29
1, 237195, Control_c, 0, 64, 127
1, 237240, Note_on_c, 0, 71, 0
1, 237280, Note_on_c, 0, 74, 0
1, 237280, Note_on_c, 0, 78, 49
1, 237440, Tempo, 399893
1, 237440, Note_on_c, 0, 78, 0
1, 237440, Note_on_c, 0, 79, 49
1, 237492, Control_c, 0, 64, 0
1, 237600, Tempo, 359195
1, 237600, Note_on_c, 0, 79, 0
1, 237600, Note_on_c, 0, 76, 70
1, 237600, Note_on_c, 0, 72, 56
1, 237715, Control_c, 0, 64, 127
1, 237760, Note_on_c, 0, 76, 0
1, 237760, Note_on_c, 0, 80, 54
1, 237920, Tempo, 405296
1, 237920, Note_on_c, 0, 80, 0
1, 237920, Note_on_c, 0, 81, 54
1, 238080, Tempo, 359195
1, 238080, Note_on_c, 0, 81, 0
1, 238080, Note_on_c, 0, 72, 0
1, 238080, Note_on_c, 0, 74, 72
1, 238080, Note_on_c, 0, 71, 39
1, 238092, Control_c, 0, 64, 0
1, 238177, Control_c, 0, 64, 127
1, 238200, Note_on_c, 0, 71, 0
1, 238240, Note_on_c, 0, 74, 0
1, 238240, Note_on_c, 0, 78, 56
1, 238400, Note_on_c, 0, 78, 0
1, 238400, Note_on_c, 0, 79, 56
1, 238440, Control_c, 0, 64, 0
1, 238560, Note_on_c, 0, 79, 0
1, 238560, Note_on_c, 0, 74, 73
1, 238560, Note_on_c, 0, 66, 36
1, 238675, Control_c, 0, 64, 127
1, 238680, Note_on_c, 0, 66, 0
1, 238720, Note_on_c, 0, 74, 0
1, 238720, Note_on_c, 0, 80, 62
1, 238880, Note_on_c, 0, 80, 0
1, 238880, Note_on_c, 0, 81, 62
1, 238903, Control_c, 0, 64, 0
1, 239040, Note_on_c, 0, 81, 0
1, 239040, Note_on_c, 0, 74, 80
1, 239040, Note_on_c, 0, 67, 41
1, 239115, Control_c, 0, 64, 127
1, 239160, Note_on_c, 0, 67, 0
1, 239200, Note_on_c, 0, 74, 0
1, 239200, Note_on_c, 0, 82, 69
1, 239360, Tempo, 399893
1, 239360, Note_on_c, 0, 82, 0
1, 239360, Note_on_c, 0, 83, 65
1, 239412, Control_c, 0, 64, 0
1, 239520, Tempo, 362450
1, 239520, Note_on_c, 0, 83, 0
1, 239520, Note_on_c, 0, 74, 83
1, 239520, Note_on_c, 0, 69, 47
1, 239560, Control_c, 0, 64, 127
1, 239640, Note_on_c, 0, 69, 0
1, 239680, Note_on_c, 0, 74, 0
1, 239680, Note_on_c, 0, 83, 74
1, 239840, Note_on_c, 0, 83, 0
1, 239840, Note_on_c, 0, 84, 74
1, 239880, Tempo, 402576
1, 239892, Control_c, 0, 64, 0
1, 240000, Tempo, 416667
1, 240000, Note_on_c, 0, 84, 0
1, 240000, Note_on_c, 0, 74, 86
1, 240000, Note_on_c, 0, 71, 60
1, 240006, Control_c, 0, 64, 127
1, 240120, Tempo, 354946
1, 240131, Tempo, 349773
1, 240160, Note_on_c, 0, 74, 0
1, 240160, Note_on_c, 0, 85, 93
1, 240247, Tempo, 350795
1, 240320, Note_on_c, 0, 85, 0
1, 240320, Note_on_c, 0, 86, 92
1, 240362, Tempo, 351824
1, 240477, Tempo, 352858
1, 240480, Note_on_c, 0, 86, 0
1, 240480, Note_on_c, 0, 71, 0
1, 240480, Note_on_c, 0, 84, 89
1, 240483, Control_c, 0, 64, 0
1, 240555, Control_c, 0, 64, 127
1, 240592, Tempo, 353899
1, 240640, Note_on_c, 0, 84, 0
1, 240640, Note_on_c, 0, 83, 88
1, 240707, Tempo, 354946
1, 240800, Note_on_c, 0, 83, 0
1, 240800, Note_on_c, 0, 81, 86
1, 240823, Tempo, 355999
1, 240938, Tempo, 357058
1, 240960, Note_on_c, 0, 81, 0
1, 240960, Note_on_c, 0, 79, 83
1, 241053, Tempo, 358123
1, 241120, Note_on_c, 0, 79, 0
1, 241120, Note_on_c, 0, 78, 82
1, 241168, Tempo, 359195
1, 241280, Note_on_c, 0, 78, 0
1, 241280, Note_on_c, 0, 76, 80
1, 241283, Tempo, 360274
1, 241399, Tempo, 361359
1, 241440, Note_on_c, 0, 76, 0
1, 241440, Note_on_c, 0, 74, 78
1, 241514, Tempo, 362450
1, 241600, Note_on_c, 0, 74, 0
1, 241600, Note_on_c, 0, 72, 76
1, 241629, Tempo, 363548
1, 241744, Tempo, 364653
1, 241760, Note_on_c, 0, 72, 0
1, 241760, Note_on_c, 0, 71, 74
1, 241859, Tempo, 365764
1, 241920, Tempo, 384517
1, 241920, Note_on_c, 0, 71, 0
1, 241920, Note_on_c, 0, 69, 70
1, 241920, Note_on_c, 0, 48, 65
1, 241920, Control_c, 0, 64, 0
1, 241995, Control_c, 0, 64, 127
1, 242080, Note_on_c, 0, 69, 0
1, 242080, Note_on_c, 0, 76, 78
1, 242160, Tempo, 353899
1, 242186, Tempo, 354946
1, 242240, Note_on_c, 0, 76, 0
1, 242240, Note_on_c, 0, 74, 76
1, 242243, Tempo, 355999
1, 242282, Tempo, 357058
1, 242320, Tempo, 358123
1, 242359, Tempo, 359195
1, 242397, Tempo, 360274
1, 242400, Note_on_c, 0, 74, 0
1, 242400, Note_on_c, 0, 72, 73
1, 242400, Note_on_c, 0, 60, 55
1, 242435, Tempo, 361359
1, 242474, Tempo, 362450
1, 242512, Tempo, 363548
1, 242560, Note_on_c, 0, 72, 0
1, 242560, Note_on_c, 0, 71, 71
1, 242570, Tempo, 364653
1, 242608, Tempo, 365764
1, 242647, Tempo, 366883
1, 242685, Tempo, 368008
1, 242720, Note_on_c, 0, 71, 0
1, 242720, Note_on_c, 0, 69, 69
1, 242723, Tempo, 369140
1, 242762, Tempo, 370279
1, 242800, Tempo, 371425
1, 242839, Tempo, 372578
1, 242880, Tempo, 360274
1, 242880, Note_on_c, 0, 69, 0
1, 242880, Note_on_c, 0, 60, 0
1, 242880, Note_on_c, 0, 48, 0
1, 242880, Note_on_c, 0, 67, 83
1, 242880, Note_on_c, 0, 59, 54
1, 242880, Note_on_c, 0, 50, 54
1, 242888, Control_c, 0, 64, 0
1, 243040, Control_c, 0, 64, 127
1, 243338, Tempo, 358123
1, 243360, Note_on_c, 0, 59, 0
1, 243360, Note_on_c, 0, 67, 0
1, 243360, Note_on_c, 0, 66, 75
1, 243360, Note_on_c, 0, 57, 46
1, 243374, Control_c, 0, 64, 0
1, 243395, Tempo, 359195
1, 243434, Tempo, 360274
1, 243435, Control_c, 0, 64, 127
1, 243480, Note_on_c, 0, 66, 0
1, 243480, Note_on_c, 0, 67, 67
1, 243491, Tempo, 361359
1, 243530, Tempo, 362450
1, 243568, Tempo, 363548
1, 243600, Note_on_c, 0, 67, 0
1, 243600, Note_on_c, 0, 66, 75
1, 243626, Tempo, 364653
1, 243664, Tempo, 365764
1, 243722, Tempo, 366883
1, 243760, Tempo, 368008
1, 243799, Tempo, 369140
1, 243840, Tempo, 405296
1, 243840, Note_on_c, 0, 66, 0
1, 243840, Note_on_c, 0, 57, 0
1, 243840, Note_on_c, 0, 50, 0
1, 243840, Note_on_c, 0, 55, 56
1, 243840, Note_on_c, 0, 47, 56
1, 243840, Note_on_c, 0, 50, 56
1, 243840, Control_c, 0, 64, 0
1, 243955, Control_c, 0, 64, 127
1, 243960, Tempo, 354946
1, 243971, Tempo, 349773
1, 244000, Note_on_c, 0, 85, 78
1, 244087, Tempo, 350795
1, 244160, Note_on_c, 0, 85, 0
1, 244160, Note_on_c, 0, 86, 78
1, 244202, Tempo, 351824
1, 244317, Tempo, 352858
1, 244320, Note_on_c, 0, 86, 0
1, 244320, Note_on_c, 0, 84, 84
1, 244323, Control_c, 0, 64, 0
1, 244395, Control_c, 0, 64, 127
1, 244432, Tempo, 353899
1, 244480, Note_on_c, 0, 84, 0
1, 244480, Note_on_c, 0, 83, 83
1, 244547, Tempo, 354946
1, 244640, Note_on_c, 0, 83, 0
1, 244640, Note_on_c, 0, 81, 81
1, 244663, Tempo, 355999
1, 244778, Tempo, 357058
1, 244800, Note_on_c, 0, 81, 0
1, 244800, Note_on_c, 0, 55, 0
1, 244800, Note_on_c, 0, 47, 0
1, 244800, Note_on_c, 0, 50, 0
1, 244800, Note_on_c, 0, 79, 80
1, 244893, Tempo, 358123
1, 244960, Note_on_c, 0, 79, 0
1, 244960, Note_on_c, 0, 78, 78
1, 245008, Tempo, 359195
1, 245120, Note_on_c, 0, 78, 0
1, 245120, Note_on_c, 0, 76, 77
1, 245123, Tempo, 360274
1, 245239, Tempo, 361359
1, 245280, Note_on_c, 0, 76, 0
1, 245280, Note_on_c, 0, 74, 75
1, 245354, Tempo, 362450
1, 245440, Note_on_c, 0, 74, 0
1, 245440, Note_on_c, 0, 72, 73
1, 245469, Tempo, 363548
1, 245584, Tempo, 364653
1, 245600, Note_on_c, 0, 72, 0
1, 245600, Note_on_c, 0, 71, 72
1, 245699, Tempo, 365764
1, 245760, Tempo, 384517
1, 245760, Note_on_c, 0, 71, 0
1, 245760, Note_on_c, 0, 69, 70
1, 245760, Note_on_c, 0, 48, 65
1, 245760, Control_c, 0, 64, 0
1, 245857, Control_c, 0, 64, 127
1, 245920, Note_on_c, 0, 69, 0
1, 245920, Note_on_c, 0, 76, 78
1, 246000, Tempo, 353899
1, 246026, Tempo, 354946
1, 246080, Note_on_c, 0, 76, 0
1, 246080, Note_on_c, 0, 74, 76
1, 246083, Tempo, 355999
1, 246122, Tempo, 357058
1, 246160, Tempo, 358123
1, 246199, Tempo, 359195
1, 246237, Tempo, 360274
1, 246240, Note_on_c, 0, 74, 0
1, 246240, Note_on_c, 0, 72, 73
1, 246240, Note_on_c, 0, 60, 55
1, 246275, Tempo, 361359
1, 246314, Tempo, 362450
1, 246352, Tempo, 363548
1, 246400, Note_on_c, 0, 72, 0
1, 246400, Note_on_c, 0, 71, 71
1, 246410, Tempo, 364653
1, 246448, Tempo, 365764
1, 246487, Tempo, 366883
1, 246525, Tempo, 368008
1, 246560, Note_on_c, 0, 71, 0
1, 246560, Note_on_c, 0, 69, 69
1, 246563, Tempo, 369140
1, 246602, Tempo, 370279
1, 246640, Tempo, 371425
1, 246679, Tempo, 372578
1, 246720, Tempo, 360274
1, 246720, Note_on_c, 0, 69, 0
1, 246720, Note_on_c, 0, 60, 0
1, 246720, Note_on_c, 0, 48, 0
1, 246720, Note_on_c, 0, 67, 83
1, 246720, Note_on_c, 0, 50, 54
1, 246720, Note_on_c, 0, 59, 54
1, 246728, Control_c, 0, 64, 0
1, 246880, Control_c, 0, 64, 127
1, 247178, Tempo, 358123
1, 247200, Note_on_c, 0, 59, 0
1, 247200, Note_on_c, 0, 67, 0
1, 247200, Note_on_c, 0, 66, 75
1, 247200, Note_on_c, 0, 57, 46
1, 247214, Control_c, 0, 64, 0
1, 247235, Tempo, 359195
1, 247274, Tempo, 360274
1, 247309, Control_c, 0, 64, 127
1, 247320, Note_on_c, 0, 66, 0
1, 247320, Note_on_c, 0, 67, 67
1, 247331, Tempo, 361359
1, 247370, Tempo, 362450
1, 247408, Tempo, 363548
1, 247440, Note_on_c, 0, 67, 0
1, 247440, Note_on_c, 0, 66, 75
1, 247466, Tempo, 364653
1, 247504, Tempo, 365764
1, 247562, Tempo, 366883
1, 247600, Tempo, 368008
1, 247639, Tempo, 369140
1, 247680, Tempo, 354946
1, 247680, Note_on_c, 0, 66, 0
1, 247680, Note_on_c, 0, 57, 0
1, 247680, Note_on_c, 0, 50, 0
1, 247680, Note_on_c, 0, 67, 63
1, 247680, Note_on_c, 0, 55, 40
1, 247691, Control_c, 0, 64, 0
1, 247779, Control_c, 0, 64, 127
1, 247840, Note_on_c, 0, 55, 0
1, 247840, Note_on_c, 0, 59, 32
1, 248000, Note_on_c, 0, 59, 0
1, 248000, Note_on_c, 0, 62, 32
1, 248160, Note_on_c, 0, 62, 0
1, 248160, Note_on_c, 0, 67, 0
1, 248160, Note_on_c, 0, 55, 40
1, 248320, Note_on_c, 0, 55, 0
1, 248320, Note_on_c, 0, 59, 34
1, 248480, Note_on_c, 0, 59, 0
1, 248480, Note_on_c, 0, 62, 34
1, 248640, Tempo, 356316
1, 248640, Note_on_c, 0, 62, 0
1, 248640, Note_on_c, 0, 55, 40
1, 248800, Note_on_c, 0, 55, 0
1, 248800, Note_on_c, 0, 59, 32
1, 248960, Note_on_c, 0, 59, 0
1, 248960, Note_on_c, 0, 62, 32
1, 249120, Tempo, 353586
1, 249120, Note_on_c, 0, 62, 0
1, 249120, Note_on_c, 0, 74, 57
1, 249120, Note_on_c, 0, 50, 40
1, 249134, Control_c, 0, 64, 0
1, 249247, Control_c, 0, 64, 127
1, 249280, Note_on_c, 0, 50, 0
1, 249280, Note_on_c, 0, 54, 32
1, 249440, Note_on_c, 0, 54, 0
1, 249440, Note_on_c, 0, 62, 33
1, 249480, Note_on_c, 0, 74, 0
1, 249480, Note_on_c, 0, 78, 57
1, 249600, Tempo, 354946
1, 249600, Note_on_c, 0, 78, 0
1, 249600, Note_on_c, 0, 62, 0
1, 249600, Note_on_c, 0, 79, 64
1, 249600, Note_on_c, 0, 55, 39
1, 249600, Control_c, 0, 64, 0
1, 249706, Control_c, 0, 64, 127
1, 249720, Note_on_c, 0, 79, 0
1, 249760, Note_on_c, 0, 55, 0
1, 249760, Note_on_c, 0, 59, 29
1, 249920, Note_on_c, 0, 59, 0
1, 249920, Note_on_c, 0, 62, 29
1, 250080, Note_on_c, 0, 62, 0
1, 250080, Note_on_c, 0, 79, 57
1, 250080, Note_on_c, 0, 55, 39
1, 250200, Note_on_c, 0, 79, 0
1, 250240, Note_on_c, 0, 55, 0
1, 250240, Note_on_c, 0, 59, 30
1, 250400, Note_on_c, 0, 59, 0
1, 250400, Note_on_c, 0, 62, 30
1, 250560, Tempo, 356316
1, 250560, Note_on_c, 0, 62, 0
1, 250560, Note_on_c, 0, 79, 57
1, 250560, Note_on_c, 0, 55, 39
1, 250680, Note_on_c, 0, 79, 0
1, 250720, Note_on_c, 0, 55, 0
1, 250720, Note_on_c, 0, 59, 30
1, 250800, Note_on_c, 0, 83, 54
1, 250880, Note_on_c, 0, 83, 0
1, 250880, Note_on_c, 0, 59, 0
1, 250880, Note_on_c, 0, 81, 51
1, 250880, Note_on_c, 0, 62, 30
1, 250960, Note_on_c, 0, 81, 0
1, 250960, Note_on_c, 0, 79, 51
1, 251040, Tempo, 353586
1, 251040, Note_on_c, 0, 79, 0
1, 251040, Note_on_c, 0, 62, 0
1, 251040, Note_on_c, 0, 81, 61
1, 251040, Note_on_c, 0, 50, 39
1, 251049, Control_c, 0, 64, 0
1, 251132, Control_c, 0, 64, 127
1, 251200, Note_on_c, 0, 50, 0
1, 251200, Note_on_c, 0, 54, 33
1, 251360, Note_on_c, 0, 54, 0
1, 251360, Note_on_c, 0, 62, 33
1, 251400, Note_on_c, 0, 81, 0
1, 251400, Note_on_c, 0, 86, 57
1, 251520, Tempo, 354946
1, 251520, Note_on_c, 0, 86, 0
1, 251520, Note_on_c, 0, 62, 0
1, 251520, Note_on_c, 0, 83, 63
1, 251520, Note_on_c, 0, 55, 40
1, 251531, Control_c, 0, 64, 0
1, 251619, Control_c, 0, 64, 127
1, 251640, Note_on_c, 0, 83, 0
1, 251680, Note_on_c, 0, 55, 0
1, 251680, Note_on_c, 0, 59, 32
1, 251840, Note_on_c, 0, 59, 0
1, 251840, Note_on_c, 0, 62, 32
1, 252000, Note_on_c, 0, 62, 0
1, 252000, Note_on_c, 0, 79, 57
1, 252000, Note_on_c, 0, 55, 40
1, 252120, Note_on_c, 0, 79, 0
1, 252160, Note_on_c, 0, 55, 0
1, 252160, Note_on_c, 0, 59, 34
1, 252320, Note_on_c, 0, 59, 0
1, 252320, Note_on_c, 0, 62, 34
1, 252480, Tempo, 356316
1, 252480, Note_on_c, 0, 62, 0
1, 252480, Note_on_c, 0, 79, 57
1, 252480, Note_on_c, 0, 55, 40
1, 252600, Note_on_c, 0, 79, 0
1, 252640, Note_on_c, 0, 55, 0
1, 252640, Note_on_c, 0, 59, 32
1, 252800, Note_on_c, 0, 59, 0
1, 252800, Note_on_c, 0, 62, 32
1, 252960, Tempo, 353586
1, 252960, Note_on_c, 0, 62, 0
1, 252960, Note_on_c, 0, 74, 81
1, 252960, Note_on_c, 0, 50, 63
1, 252974, Control_c, 0, 64, 0
1, 253087, Control_c, 0, 64, 127
1, 253120, Note_on_c, 0, 50, 0
1, 253120, Note_on_c, 0, 54, 50
1, 253280, Note_on_c, 0, 54, 0
1, 253280, Note_on_c, 0, 62, 52
1, 253320, Note_on_c, 0, 74, 0
1, 253320, Note_on_c, 0, 78, 81
1, 253440, Tempo, 354946
1, 253440, Note_on_c, 0, 78, 0
1, 253440, Note_on_c, 0, 62, 0
1, 253440, Note_on_c, 0, 79, 91
1, 253440, Note_on_c, 0, 55, 62
1, 253440, Control_c, 0, 64, 0
1, 253546, Control_c, 0, 64, 127
1, 253560, Note_on_c, 0, 79, 0
1, 253600, Note_on_c, 0, 55, 0
1, 253600, Note_on_c, 0, 59, 46
1, 253760, Note_on_c, 0, 59, 0
1, 253760, Note_on_c, 0, 62, 46
1, 253920, Note_on_c, 0, 62, 0
1, 253920, Note_on_c, 0, 79, 81
1, 253920, Note_on_c, 0, 55, 62
1, 254040, Note_on_c, 0, 79, 0
1, 254080, Note_on_c, 0, 55, 0
1, 254080, Note_on_c, 0, 59, 48
1, 254240, Note_on_c, 0, 59, 0
1, 254240, Note_on_c, 0, 62, 48
1, 254400, Tempo, 356316
1, 254400, Note_on_c, 0, 62, 0
1, 254400, Note_on_c, 0, 79, 81
1, 254400, Note_on_c, 0, 55, 62
1, 254520, Note_on_c, 0, 79, 0
1, 254560, Note_on_c, 0, 55, 0
1, 254560, Note_on_c, 0, 59, 48
1, 254640, Note_on_c, 0, 83, 77
1, 254720, Note_on_c, 0, 83, 0
1, 254720, Note_on_c, 0, 59, 0
1, 254720, Note_on_c, 0, 81, 72
1, 254720, Note_on_c, 0, 62, 48
1, 254800, Note_on_c, 0, 81, 0
1, 254800, Note_on_c, 0, 79, 72
1, 254880, Tempo, 353586
1, 254880, Note_on_c, 0, 79, 0
1, 254880, Note_on_c, 0, 62, 0
1, 254880, Note_on_c, 0, 81, 86
1, 254880, Note_on_c, 0, 50, 62
1, 254889, Control_c, 0, 64, 0
1, 254972, Control_c, 0, 64, 127
1, 255040, Note_on_c, 0, 50, 0
1, 255040, Note_on_c, 0, 54, 52
1, 255200, Note_on_c, 0, 54, 0
1, 255200, Note_on_c, 0, 62, 52
1, 255240, Note_on_c, 0, 81, 0
1, 255240, Note_on_c, 0, 83, 81
1, 255360, Tempo, 354946
1, 255360, Note_on_c, 0, 83, 0
1, 255360, Note_on_c, 0, 62, 0
1, 255360, Note_on_c, 0, 79, 91
1, 255360, Note_on_c, 0, 55, 62
1, 255360, Control_c, 0, 64, 0
1, 255487, Control_c, 0, 64, 127
1, 255520, Note_on_c, 0, 55, 0
1, 255520, Note_on_c, 0, 59, 46
1, 255680, Note_on_c, 0, 59, 0
1, 255680, Note_on_c, 0, 62, 46
1, 255840, Note_on_c, 0, 62, 0
1, 255840, Note_on_c, 0, 79, 0
1, 255840, Note_on_c, 0, 55, 62
1, 255842, Tempo, 359195
1, 256000, Note_on_c, 0, 55, 0
1, 256000, Note_on_c, 0, 59, 48
1, 256160, Note_on_c, 0, 59, 0
1, 256160, Note_on_c, 0, 62, 48
1, 256302, Tempo, 366883
1, 256320, Note_on_c, 0, 62, 0
1, 256320, Note_on_c, 0, 74, 81
1, 256320, Note_on_c, 0, 71, 81
1, 256320, Note_on_c, 0, 55, 62
1, 256480, Note_on_c, 0, 55, 0
1, 256480, Note_on_c, 0, 59, 48
1, 256640, Note_on_c, 0, 59, 0
1, 256640, Note_on_c, 0, 62, 48
1, 256782, Tempo, 376081
1, 256800, Note_on_c, 0, 62, 0
1, 256800, Note_on_c, 0, 71, 0
1, 256800, Note_on_c, 0, 74, 0
1, 256800, Note_on_c, 0, 55, 62
1, 256821, Tempo, 377264
1, 256840, Tempo, 378453
1, 256859, Tempo, 379651
1, 256878, Tempo, 380856
1, 256898, Tempo, 382068
1, 256917, Tempo, 383289
1, 256936, Tempo, 384517
1, 256955, Tempo, 385753
1, 256960, Note_on_c, 0, 55, 0
1, 256960, Note_on_c, 0, 59, 52
1, 256974, Tempo, 386997
1, 256994, Tempo, 388249
1, 257013, Tempo, 389509
1, 257032, Tempo, 390778
1, 257051, Tempo, 392054
1, 257070, Tempo, 393339
1, 257090, Tempo, 394633
1, 257120, Tempo, 519481
1, 257120, Note_on_c, 0, 59, 0
1, 257120, Note_on_c, 0, 62, 52
1, 257280, Tempo, 361359
1, 257280, Note_on_c, 0, 62, 0
1, 257280, Note_on_c, 0, 71, 81
1, 257280, Note_on_c, 0, 67, 81
1, 257280, Note_on_c, 0, 55, 62
1, 257760, Note_on_c, 0, 55, 0
1, 257760, Note_on_c, 0, 67, 0
1, 257760, Note_on_c, 0, 71, 0
1, 257951, Control_c, 0, 64, 0
1, 258720, Tempo, 348270
1, 258720, Marker_t, "Teil 2"
1, 258720, Note_on_c, 0, 79, 50
1, 258840, Control_c, 0, 64, 127
1, 259080, Tempo, 392054
1, 259080, Note_on_c, 0, 79, 0
1, 259080, Note_on_c, 0, 81, 47
1, 259200, Tempo, 345662
1, 259200, Note_on_c, 0, 81, 0
1, 259200, Note_on_c, 0, 77, 58
1, 259200, Note_on_c, 0, 67, 48
1, 259200, Note_on_c, 0, 59, 40
1, 259200, Control_c, 0, 64, 0
1, 259320, Note_on_c, 0, 59, 0
1, 259320, Note_on_c, 0, 67, 0
1, 259320, Note_on_c, 0, 77, 0
1, 259680, Tempo, 348270
1, 259680, Note_on_c, 0, 77, 50
1, 259807, Control_c, 0, 64, 127
1, 260040, Tempo, 410846
1, 260040, Note_on_c, 0, 77, 0
1, 260040, Note_on_c, 0, 79, 48
1, 260160, Tempo, 348270
1, 260160, Note_on_c, 0, 79, 0
1, 260160, Note_on_c, 0, 76, 58
1, 260160, Note_on_c, 0, 60, 40
1, 260160, Note_on_c, 0, 67, 48
1, 260167, Control_c, 0, 64, 0
1, 260280, Note_on_c, 0, 67, 0
1, 260280, Note_on_c, 0, 60, 0
1, 260280, Note_on_c, 0, 76, 0
1, 260640, Tempo, 345662
1, 260640, Note_on_c, 0, 76, 50
1, 260767, Control_c, 0, 64, 127
1, 261000, Tempo, 410846
1, 261000, Note_on_c, 0, 76, 0
1, 261000, Note_on_c, 0, 77, 50
1, 261120, Tempo, 344372
1, 261120, Note_on_c, 0, 77, 0
1, 261120, Note_on_c, 0, 74, 59
1, 261120, Note_on_c, 0, 67, 48
1, 261120, Note_on_c, 0, 65, 40
1, 261137, Control_c, 0, 64, 0
1, 261240, Note_on_c, 0, 65, 0
1, 261240, Note_on_c, 0, 67, 0
1, 261240, Note_on_c, 0, 74, 0
1, 261600, Tempo, 349589
1, 261600, Note_on_c, 0, 74, 50
1, 261746, Control_c, 0, 64, 127
1, 261960, Tempo, 408052
1, 261960, Note_on_c, 0, 74, 0
1, 261960, Note_on_c, 0, 76, 47
1, 262080, Tempo, 343092
1, 262080, Note_on_c, 0, 76, 0
1, 262080, Note_on_c, 0, 72, 57
1, 262080, Note_on_c, 0, 67, 45
1, 262080, Note_on_c, 0, 64, 38
1, 262092, Control_c, 0, 64, 0
1, 262200, Note_on_c, 0, 64, 0
1, 262200, Note_on_c, 0, 67, 0
1, 262200, Note_on_c, 0, 72, 0
1, 262560, Tempo, 345662
1, 262560, Note_on_c, 0, 76, 63
1, 262560, Note_on_c, 0, 72, 53
1, 262687, Control_c, 0, 64, 127
1, 262920, Tempo, 410846
1, 262920, Note_on_c, 0, 76, 0
1, 262920, Note_on_c, 0, 77, 57
1, 263040, Tempo, 344372
1, 263040, Note_on_c, 0, 77, 0
1, 263040, Note_on_c, 0, 72, 0
1, 263040, Note_on_c, 0, 71, 56
1, 263040, Note_on_c, 0, 74, 67
1, 263040, Note_on_c, 0, 52, 66
1, 263040, Note_on_c, 0, 40, 56
1, 263057, Control_c, 0, 64, 0
1, 263160, Note_on_c, 0, 74, 0
1, 263160, Note_on_c, 0, 71, 0
1, 263520, Tempo, 349589
1, 263520, Note_on_c, 0, 52, 0
1, 263520, Note_on_c, 0, 40, 0
1, 263520, Note_on_c, 0, 71, 53
1, 263520, Note_on_c, 0, 74, 63
1, 263666, Control_c, 0, 64, 127
1, 263880, Tempo, 408052
1, 263880, Note_on_c, 0, 74, 0
1, 263880, Note_on_c, 0, 76, 60
1, 264000, Tempo, 366883
1, 264000, Note_on_c, 0, 76, 0
1, 264000, Note_on_c, 0, 71, 0
1, 264000, Note_on_c, 0, 69, 56
1, 264000, Note_on_c, 0, 72, 67
1, 264000, Note_on_c, 0, 40, 55
1, 264000, Note_on_c, 0, 52, 65
1, 264012, Control_c, 0, 64, 0
1, 264120, Note_on_c, 0, 72, 0
1, 264120, Note_on_c, 0, 69, 0
1, 264480, Tempo, 386997
1, 264480, Note_on_c, 0, 40, 0
1, 264480, Note_on_c, 0, 52, 0
1, 264480, Note_on_c, 0, 72, 63
1, 264480, Note_on_c, 0, 69, 53
1, 264626, Control_c, 0, 64, 127
1, 264840, Tempo, 585138
1, 264840, Note_on_c, 0, 72, 0
1, 264840, Note_on_c, 0, 74, 60
1, 264960, Tempo, 412258
1, 264960, Note_on_c, 0, 74, 0
1, 264960, Note_on_c, 0, 69, 0
1, 264960, Note_on_c, 0, 71, 67
1, 264960, Note_on_c, 0, 68, 56
1, 264960, Note_on_c, 0, 52, 65
1, 264960, Note_on_c, 0, 40, 55
1, 264972, Control_c, 0, 64, 0
1, 265179, Control_c, 0, 64, 127
1, 266386, Control_c, 0, 64, 0
1, 266400, Tempo, 349589
1, 266400, Note_on_c, 0, 40, 0
1, 266400, Note_on_c, 0, 71, 0
1, 266400, Note_on_c, 0, 68, 0
1, 266400, Note_on_c, 0, 52, 0
1, 266400, Note_on_c, 0, 77, 71
1, 266520, Note_on_c, 0, 77, 0
1, 266520, Note_on_c, 0, 79, 73
1, 266640, Note_on_c, 0, 79, 0
1, 266640, Note_on_c, 0, 81, 75
1, 266760, Tempo, 402576
1, 266760, Note_on_c, 0, 81, 0
1, 266760, Note_on_c, 0, 82, 78
1, 266880, Tempo, 354946
1, 266880, Note_on_c, 0, 82, 0
1, 266880, Note_on_c, 0, 84, 83
1, 266880, Note_on_c, 0, 53, 56
1, 266891, Control_c, 0, 64, 0
1, 266947, Control_c, 0, 64, 127
1, 267000, Note_on_c, 0, 84, 0
1, 267040, Note_on_c, 0, 53, 0
1, 267040, Note_on_c, 0, 57, 43
1, 267200, Note_on_c, 0, 57, 0
1, 267200, Note_on_c, 0, 60, 43
1, 267360, Note_on_c, 0, 60, 0
1, 267360, Note_on_c, 0, 84, 75
1, 267360, Note_on_c, 0, 53, 56
1, 267480, Note_on_c, 0, 84, 0
1, 267520, Note_on_c, 0, 53, 0
1, 267520, Note_on_c, 0, 57, 45
1, 267680, Note_on_c, 0, 57, 0
1, 267680, Note_on_c, 0, 60, 46
1, 267840, Tempo, 356316
1, 267840, Note_on_c, 0, 60, 0
1, 267840, Note_on_c, 0, 84, 76
1, 267840, Note_on_c, 0, 53, 55
1, 267960, Note_on_c, 0, 84, 0
1, 268000, Note_on_c, 0, 53, 0
1, 268000, Note_on_c, 0, 57, 44
1, 268160, Note_on_c, 0, 57, 0
1, 268160, Note_on_c, 0, 60, 45
1, 268260, Note_on_c, 0, 88, 78
1, 268320, Tempo, 353586
1, 268320, Note_on_c, 0, 88, 0
1, 268320, Note_on_c, 0, 60, 0
1, 268320, Note_on_c, 0, 89, 92
1, 268320, Note_on_c, 0, 53, 56
1, 268480, Note_on_c, 0, 53, 0
1, 268480, Note_on_c, 0, 57, 51
1, 268640, Note_on_c, 0, 57, 0
1, 268640, Note_on_c, 0, 60, 51
1, 268800, Note_on_c, 0, 60, 0
1, 268800, Note_on_c, 0, 89, 0
1, 268800, Note_on_c, 0, 84, 85
1, 268800, Note_on_c, 0, 53, 56
1, 268800, Control_c, 0, 64, 0
1, 268878, Control_c, 0, 64, 127
1, 268920, Note_on_c, 0, 84, 0
1, 268960, Note_on_c, 0, 53, 0
1, 268960, Note_on_c, 0, 57, 41
1, 269120, Note_on_c, 0, 57, 0
1, 269120, Note_on_c, 0, 60, 41
1, 269280, Note_on_c, 0, 60, 0
1, 269280, Note_on_c, 0, 84, 76
1, 269280, Note_on_c, 0, 53, 56
1, 269400, Note_on_c, 0, 84, 0
1, 269440, Note_on_c, 0, 53, 0
1, 269440, Note_on_c, 0, 57, 44
1, 269600, Note_on_c, 0, 57, 0
1, 269600, Note_on_c, 0, 60, 44
1, 269760, Tempo, 356316
1, 269760, Note_on_c, 0, 60, 0
1, 269760, Note_on_c, 0, 84, 76
1, 269760, Note_on_c, 0, 53, 56
1, 269880, Note_on_c, 0, 84, 0
1, 269920, Note_on_c, 0, 53, 0
1, 269920, Note_on_c, 0, 57, 44
1, 270080, Note_on_c, 0, 57, 0
1, 270080, Note_on_c, 0, 60, 45
1, 270120, Tempo, 415110
1, 270240, Tempo, 348270
1, 270240, Note_on_c, 0, 60, 0
1, 270240, Note_on_c, 0, 82, 66
1, 270240, Note_on_c, 0, 53, 56
1, 270360, Note_on_c, 0, 82, 0
1, 270360, Note_on_c, 0, 81, 68
1, 270400, Note_on_c, 0, 53, 0
1, 270400, Note_on_c, 0, 57, 44
1, 270480, Note_on_c, 0, 81, 0
1, 270480, Note_on_c, 0, 79, 71
1, 270560, Note_on_c, 0, 57, 0
1, 270560, Note_on_c, 0, 60, 44
1, 270600, Tempo, 372093
1, 270600, Note_on_c, 0, 79, 0
1, 270600, Note_on_c, 0, 77, 73
1, 270720, Tempo, 350918
1, 270720, Note_on_c, 0, 77, 0
1, 270720, Note_on_c, 0, 60, 0
1, 270720, Note_on_c, 0, 76, 81
1, 270720, Note_on_c, 0, 55, 56
1, 270720, Control_c, 0, 64, 0
1, 270826, Control_c, 0, 64, 127
1, 270840, Note_on_c, 0, 76, 0
1, 270880, Note_on_c, 0, 55, 0
1, 270880, Note_on_c, 0, 58, 42
1, 271040, Note_on_c, 0, 58, 0
1, 271040, Note_on_c, 0, 60, 45
1, 271200, Note_on_c, 0, 60, 0
1, 271200, Note_on_c, 0, 76, 73
1, 271200, Note_on_c, 0, 55, 56
1, 271320, Note_on_c, 0, 76, 0
1, 271360, Note_on_c, 0, 55, 0
1, 271360, Note_on_c, 0, 58, 45
1, 271520, Note_on_c, 0, 58, 0
1, 271520, Note_on_c, 0, 60, 45
1, 271680, Note_on_c, 0, 60, 0
1, 271680, Note_on_c, 0, 77, 81
1, 271680, Note_on_c, 0, 53, 56
1, 271689, Control_c, 0, 64, 0
1, 271793, Control_c, 0, 64, 127
1, 271800, Note_on_c, 0, 77, 0
1, 271840, Note_on_c, 0, 53, 0
1, 271840, Note_on_c, 0, 57, 46
1, 272000, Note_on_c, 0, 57, 0
1, 272000, Note_on_c, 0, 60, 50
1, 272160, Tempo, 350918
1, 272160, Note_on_c, 0, 60, 0
1, 272160, Note_on_c, 0, 77, 73
1, 272160, Note_on_c, 0, 53, 56
1, 272280, Note_on_c, 0, 77, 0
1, 272320, Note_on_c, 0, 53, 0
1, 272320, Note_on_c, 0, 57, 46
1, 272480, Note_on_c, 0, 57, 0
1, 272480, Note_on_c, 0, 60, 46
1, 272520, Tempo, 638298
1, 272640, Tempo, 350918
1, 272640, Note_on_c, 0, 60, 0
1, 272640, Note_on_c, 0, 79, 79
1, 272640, Note_on_c, 0, 52, 56
1, 272640, Control_c, 0, 64, 0
1, 272800, Note_on_c, 0, 52, 0
1, 272800, Note_on_c, 0, 55, 42
1, 272806, Control_c, 0, 64, 127
1, 272960, Note_on_c, 0, 55, 0
1, 272960, Note_on_c, 0, 60, 42
1, 273120, Note_on_c, 0, 60, 0
1, 273120, Note_on_c, 0, 79, 0
1, 273120, Note_on_c, 0, 52, 51
1, 273280, Note_on_c, 0, 52, 0
1, 273280, Note_on_c, 0, 55, 42
1, 273440, Note_on_c, 0, 55, 0
1, 273440, Note_on_c, 0, 60, 43
1, 273600, Note_on_c, 0, 60, 0
1, 273600, Note_on_c, 0, 52, 54
1, 273760, Note_on_c, 0, 52, 0
1, 273760, Note_on_c, 0, 55, 44
1, 273920, Note_on_c, 0, 55, 0
1, 273920, Note_on_c, 0, 60, 45
1, 274080, Tempo, 348270
1, 274080, Note_on_c, 0, 60, 0
1, 274080, Note_on_c, 0, 72, 75
1, 274080, Note_on_c, 0, 52, 56
1, 274240, Note_on_c, 0, 52, 0
1, 274240, Note_on_c, 0, 55, 46
1, 274400, Note_on_c, 0, 55, 0
1, 274400, Note_on_c, 0, 60, 46
1, 274440, Tempo, 360490
1, 274440, Note_on_c, 0, 72, 0
1, 274440, Note_on_c, 0, 79, 67
1, 274560, Tempo, 345662
1, 274560, Note_on_c, 0, 79, 0
1, 274560, Note_on_c, 0, 60, 0
1, 274560, Note_on_c, 0, 82, 78
1, 274560, Note_on_c, 0, 52, 56
1, 274560, Control_c, 0, 64, 0
1, 274680, Note_on_c, 0, 82, 0
1, 274694, Control_c, 0, 64, 127
1, 274715, Note_on_c, 0, 55, 43
1, 274720, Note_on_c, 0, 52, 0
1, 274875, Note_on_c, 0, 55, 0
1, 274880, Note_on_c, 0, 60, 45
1, 275040, Tempo, 348270
1, 275040, Note_on_c, 0, 60, 0
1, 275040, Note_on_c, 0, 82, 71
1, 275040, Note_on_c, 0, 52, 56
1, 275195, Note_on_c, 0, 55, 45
1, 275200, Note_on_c, 0, 52, 0
1, 275355, Note_on_c, 0, 55, 0
1, 275360, Note_on_c, 0, 60, 45
1, 275400, Tempo, 405296
1, 275400, Note_on_c, 0, 82, 0
1, 275400, Note_on_c, 0, 84, 66
1, 275520, Tempo, 348270
1, 275520, Note_on_c, 0, 84, 0
1, 275520, Note_on_c, 0, 60, 0
1, 275520, Note_on_c, 0, 81, 78
1, 275520, Note_on_c, 0, 53, 56
1, 275534, Control_c, 0, 64, 0
1, 275640, Note_on_c, 0, 81, 0
1, 275668, Control_c, 0, 64, 127
1, 275680, Note_on_c, 0, 53, 0
1, 275680, Note_on_c, 0, 57, 43
1, 275840, Note_on_c, 0, 57, 0
1, 275840, Note_on_c, 0, 60, 44
1, 276000, Tempo, 345662
1, 276000, Note_on_c, 0, 60, 0
1, 276000, Note_on_c, 0, 81, 72
1, 276000, Note_on_c, 0, 53, 56
1, 276160, Note_on_c, 0, 53, 0
1, 276160, Note_on_c, 0, 57, 46
1, 276320, Note_on_c, 0, 57, 0
1, 276320, Note_on_c, 0, 60, 46
1, 276360, Tempo, 402576
1, 276360, Note_on_c, 0, 81, 0
1, 276360, Note_on_c, 0, 82, 65
1, 276480, Tempo, 344372
1, 276480, Note_on_c, 0, 82, 0
1, 276480, Note_on_c, 0, 60, 0
1, 276480, Note_on_c, 0, 79, 78
1, 276480, Note_on_c, 0, 58, 56
1, 276492, Control_c, 0, 64, 0
1, 276579, Control_c, 0, 64, 127
1, 276600, Note_on_c, 0, 79, 0
1, 276640, Note_on_c, 0, 58, 0
1, 276640, Note_on_c, 0, 60, 47
1, 276800, Note_on_c, 0, 60, 0
1, 276800, Note_on_c, 0, 64, 47
1, 276960, Tempo, 349589
1, 276960, Note_on_c, 0, 64, 0
1, 276960, Note_on_c, 0, 79, 65
1, 276960, Note_on_c, 0, 58, 56
1, 277120, Note_on_c, 0, 58, 0
1, 277120, Note_on_c, 0, 60, 44
1, 277280, Note_on_c, 0, 60, 0
1, 277280, Note_on_c, 0, 64, 44
1, 277320, Tempo, 395935
1, 277320, Note_on_c, 0, 79, 0
1, 277320, Note_on_c, 0, 81, 61
1, 277440, Tempo, 343092
1, 277440, Note_on_c, 0, 81, 0
1, 277440, Note_on_c, 0, 64, 0
1, 277440, Note_on_c, 0, 77, 74
1, 277440, Note_on_c, 0, 57, 56
1, 277453, Control_c, 0, 64, 0
1, 277546, Control_c, 0, 64, 127
1, 277560, Note_on_c, 0, 77, 0
1, 277600, Note_on_c, 0, 57, 0
1, 277600, Note_on_c, 0, 60, 46
1, 277760, Note_on_c, 0, 60, 0
1, 277760, Note_on_c, 0, 65, 46
1, 277800, Tempo, 402576
1, 277920, Tempo, 347745
1, 277920, Note_on_c, 0, 65, 0
1, 277920, Note_on_c, 0, 77, 67
1, 277920, Note_on_c, 0, 57, 56
1, 278040, Note_on_c, 0, 77, 0
1, 278080, Note_on_c, 0, 57, 0
1, 278080, Note_on_c, 0, 60, 45
1, 278240, Note_on_c, 0, 60, 0
1, 278240, Note_on_c, 0, 65, 45
1, 278280, Tempo, 405296
1, 278400, Tempo, 345662
1, 278400, Note_on_c, 0, 65, 0
1, 278400, Note_on_c, 0, 79, 74
1, 278400, Note_on_c, 0, 58, 56
1, 278428, Control_c, 0, 64, 0
1, 278513, Control_c, 0, 64, 127
1, 278520, Note_on_c, 0, 79, 0
1, 278560, Note_on_c, 0, 58, 0
1, 278560, Note_on_c, 0, 62, 45
1, 278720, Note_on_c, 0, 62, 0
1, 278720, Note_on_c, 0, 67, 47
1, 278880, Tempo, 354946
1, 278880, Note_on_c, 0, 67, 0
1, 278880, Note_on_c, 0, 79, 67
1, 278880, Note_on_c, 0, 58, 56
1, 279000, Note_on_c, 0, 79, 0
1, 279040, Note_on_c, 0, 58, 0
1, 279040, Note_on_c, 0, 62, 46
1, 279200, Note_on_c, 0, 62, 0
1, 279200, Note_on_c, 0, 67, 46
1, 279360, Tempo, 344372
1, 279360, Note_on_c, 0, 67, 0
1, 279360, Note_on_c, 0, 76, 75
1, 279360, Note_on_c, 0, 60, 56
1, 279372, Control_c, 0, 64, 0
1, 279466, Control_c, 0, 64, 127
1, 279480, Note_on_c, 0, 76, 0
1, 279520, Note_on_c, 0, 60, 0
1, 279520, Note_on_c, 0, 64, 43
1, 279680, Note_on_c, 0, 64, 0
1, 279680, Note_on_c, 0, 67, 43
1, 279840, Tempo, 388249
1, 279840, Note_on_c, 0, 67, 0
1, 279840, Note_on_c, 0, 76, 67
1, 279840, Note_on_c, 0, 60, 56
1, 279960, Note_on_c, 0, 76, 0
1, 280000, Note_on_c, 0, 60, 0
1, 280000, Note_on_c, 0, 64, 44
1, 280160, Tempo, 439560
1, 280160, Note_on_c, 0, 64, 0
1, 280160, Note_on_c, 0, 67, 45
1, 280320, Tempo, 346741
1, 280320, Note_on_c, 0, 67, 0
1, 280320, Note_on_c, 0, 77, 66
1, 280320, Note_on_c, 0, 65, 61
1, 280334, Control_c, 0, 64, 0
1, 280406, Control_c, 0, 64, 127
1, 280440, Note_on_c, 0, 65, 0
1, 280480, Note_on_c, 0, 77, 0
1, 280480, Note_on_c, 0, 72, 47
1, 280640, Note_on_c, 0, 72, 0
1, 280640, Note_on_c, 0, 69, 47
1, 280800, Note_on_c, 0, 69, 0
1, 280800, Note_on_c, 0, 77, 67
1, 280960, Note_on_c, 0, 77, 0
1, 280960, Note_on_c, 0, 72, 48
1, 281120, Note_on_c, 0, 72, 0
1, 281120, Note_on_c, 0, 69, 48
1, 281280, Note_on_c, 0, 69, 0
1, 281280, Note_on_c, 0, 77, 65
1, 281440, Note_on_c, 0, 77, 0
1, 281440, Note_on_c, 0, 72, 47
1, 281600, Tempo, 394633
1, 281600, Note_on_c, 0, 72, 0
1, 281600, Note_on_c, 0, 69, 47
1, 281760, Tempo, 357058
1, 281760, Note_on_c, 0, 69, 0
1, 281760, Note_on_c, 0, 76, 69
1, 281760, Note_on_c, 0, 60, 57
1, 281760, Note_on_c, 0, 67, 68
1, 281774, Control_c, 0, 64, 0
1, 281852, Control_c, 0, 64, 127
1, 281920, Note_on_c, 0, 76, 0
1, 281920, Note_on_c, 0, 72, 56
1, 282080, Tempo, 397246
1, 282080, Note_on_c, 0, 72, 0
1, 282080, Note_on_c, 0, 70, 56
1, 282240, Tempo, 346741
1, 282240, Note_on_c, 0, 70, 0
1, 282240, Note_on_c, 0, 67, 0
1, 282240, Note_on_c, 0, 60, 0
1, 282240, Note_on_c, 0, 77, 66
1, 282240, Note_on_c, 0, 65, 61
1, 282254, Control_c, 0, 64, 0
1, 282326, Control_c, 0, 64, 127
1, 282360, Note_on_c, 0, 65, 0
1, 282400, Note_on_c, 0, 77, 0
1, 282400, Note_on_c, 0, 72, 47
1, 282560, Note_on_c, 0, 72, 0
1, 282560, Note_on_c, 0, 69, 47
1, 282720, Note_on_c, 0, 69, 0
1, 282720, Note_on_c, 0, 77, 67
1, 282880, Note_on_c, 0, 77, 0
1, 282880, Note_on_c, 0, 72, 48
1, 283040, Note_on_c, 0, 72, 0
1, 283040, Note_on_c, 0, 69, 48
1, 283200, Note_on_c, 0, 69, 0
1, 283200, Note_on_c, 0, 77, 65
1, 283360, Note_on_c, 0, 77, 0
1, 283360, Note_on_c, 0, 72, 47
1, 283520, Tempo, 394633
1, 283520, Note_on_c, 0, 72, 0
1, 283520, Note_on_c, 0, 69, 47
1, 283680, Tempo, 357058
1, 283680, Note_on_c, 0, 69, 0
1, 283680, Note_on_c, 0, 76, 69
1, 283680, Note_on_c, 0, 67, 68
1, 283680, Note_on_c, 0, 60, 57
1, 283694, Control_c, 0, 64, 0
1, 283772, Control_c, 0, 64, 127
1, 283840, Note_on_c, 0, 76, 0
1, 283840, Note_on_c, 0, 72, 56
1, 284000, Tempo, 397246
1, 284000, Note_on_c, 0, 72, 0
1, 284000, Note_on_c, 0, 70, 56
1, 284160, Tempo, 346741
1, 284160, Note_on_c, 0, 70, 0
1, 284160, Note_on_c, 0, 60, 0
1, 284160, Note_on_c, 0, 67, 0
1, 284160, Note_on_c, 0, 77, 66
1, 284160, Note_on_c, 0, 65, 61
1, 284174, Control_c, 0, 64, 0
1, 284246, Control_c, 0, 64, 127
1, 284280, Note_on_c, 0, 65, 0
1, 284320, Note_on_c, 0, 77, 0
1, 284320, Note_on_c, 0, 72, 47
1, 284480, Note_on_c, 0, 72, 0
1, 284480, Note_on_c, 0, 69, 47
1, 284640, Note_on_c, 0, 69, 0
1, 284640, Note_on_c, 0, 77, 67
1, 284800, Note_on_c, 0, 77, 0
1, 284800, Note_on_c, 0, 72, 48
1, 284960, Note_on_c, 0, 72, 0
1, 284960, Note_on_c, 0, 69, 48
1, 285120, Note_on_c, 0, 69, 0
1, 285120, Note_on_c, 0, 77, 65
1, 285280, Note_on_c, 0, 77, 0
1, 285280, Note_on_c, 0, 72, 47
1, 285440, Tempo, 369231
1, 285440, Note_on_c, 0, 72, 0
1, 285440, Note_on_c, 0, 69, 47
1, 285600, Tempo, 357058
1, 285600, Note_on_c, 0, 69, 0
1, 285600, Note_on_c, 0, 78, 69
1, 285600, Note_on_c, 0, 62, 57
1, 285600, Note_on_c, 0, 69, 68
1, 285614, Control_c, 0, 64, 0
1, 285692, Control_c, 0, 64, 127
1, 285760, Note_on_c, 0, 78, 0
1, 285760, Note_on_c, 0, 74, 56
1, 285920, Tempo, 397246
1, 285920, Note_on_c, 0, 74, 0
1, 285920, Note_on_c, 0, 72, 56
1, 286080, Tempo, 346741
1, 286080, Note_on_c, 0, 72, 0
1, 286080, Note_on_c, 0, 69, 0
1, 286080, Note_on_c, 0, 62, 0
1, 286080, Note_on_c, 0, 79, 66
1, 286080, Note_on_c, 0, 67, 61
1, 286094, Control_c, 0, 64, 0
1, 286166, Control_c, 0, 64, 127
1, 286200, Note_on_c, 0, 67, 0
1, 286240, Note_on_c, 0, 79, 0
1, 286240, Note_on_c, 0, 74, 51
1, 286400, Note_on_c, 0, 74, 0
1, 286400, Note_on_c, 0, 71, 51
1, 286560, Note_on_c, 0, 71, 0
1, 286560, Note_on_c, 0, 79, 67
1, 286720, Note_on_c, 0, 79, 0
1, 286720, Note_on_c, 0, 74, 51
1, 286880, Note_on_c, 0, 74, 0
1, 286880, Note_on_c, 0, 71, 51
1, 287040, Note_on_c, 0, 71, 0
1, 287040, Note_on_c, 0, 79, 65
1, 287200, Note_on_c, 0, 79, 0
1, 287200, Note_on_c, 0, 74, 50
1, 287360, Tempo, 376176
1, 287360, Note_on_c, 0, 74, 0
1, 287360, Note_on_c, 0, 71, 50
1, 287520, Tempo, 357058
1, 287520, Note_on_c, 0, 71, 0
1, 287520, Note_on_c, 0, 80, 69
1, 287520, Note_on_c, 0, 71, 68
1, 287520, Note_on_c, 0, 64, 57
1, 287534, Control_c, 0, 64, 0
1, 287612, Control_c, 0, 64, 127
1, 287680, Note_on_c, 0, 80, 0
1, 287680, Note_on_c, 0, 76, 56
1, 287840, Tempo, 397246
1, 287840, Note_on_c, 0, 76, 0
1, 287840, Note_on_c, 0, 74, 56
1, 288000, Tempo, 346741
1, 288000, Note_on_c, 0, 74, 0
1, 288000, Note_on_c, 0, 64, 0
1, 288000, Note_on_c, 0, 71, 0
1, 288000, Note_on_c, 0, 81, 67
1, 288000, Note_on_c, 0, 69, 61
1, 288014, Control_c, 0, 64, 0
1, 288086, Control_c, 0, 64, 127
1, 288120, Note_on_c, 0, 69, 0
1, 288160, Note_on_c, 0, 81, 0
1, 288160, Note_on_c, 0, 76, 53
1, 288320, Note_on_c, 0, 76, 0
1, 288320, Note_on_c, 0, 72, 53
1, 288480, Note_on_c, 0, 72, 0
1, 288480, Note_on_c, 0, 81, 68
1, 288640, Note_on_c, 0, 81, 0
1, 288640, Note_on_c, 0, 76, 54
1, 288800, Note_on_c, 0, 76, 0
1, 288800, Note_on_c, 0, 72, 54
1, 288960, Note_on_c, 0, 72, 0
1, 288960, Note_on_c, 0, 81, 68
1, 289120, Note_on_c, 0, 81, 0
1, 289120, Note_on_c, 0, 76, 52
1, 289280, Tempo, 371517
1, 289280, Note_on_c, 0, 76, 0
1, 289280, Note_on_c, 0, 72, 52
1, 289440, Tempo, 357058
1, 289440, Note_on_c, 0, 72, 0
1, 289440, Note_on_c, 0, 83, 69
1, 289440, Note_on_c, 0, 68, 68
1, 289454, Control_c, 0, 64, 0
1, 289532, Control_c, 0, 64, 127
1, 289560, Note_on_c, 0, 68, 0
1, 289600, Note_on_c, 0, 83, 0
1, 289600, Note_on_c, 0, 80, 56
1, 289760, Tempo, 397246
1, 289760, Note_on_c, 0, 80, 0
1, 289760, Note_on_c, 0, 76, 56
1, 289920, Tempo, 346741
1, 289920, Note_on_c, 0, 76, 0
1, 289920, Note_on_c, 0, 84, 68
1, 289920, Note_on_c, 0, 69, 61
1, 289934, Control_c, 0, 64, 0
1, 290006, Control_c, 0, 64, 127
1, 290040, Note_on_c, 0, 69, 0
1, 290080, Note_on_c, 0, 84, 0
1, 290080, Note_on_c, 0, 81, 52
1, 290240, Note_on_c, 0, 81, 0
1, 290240, Note_on_c, 0, 76, 54
1, 290400, Note_on_c, 0, 76, 0
1, 290400, Note_on_c, 0, 86, 73
1, 290400, Note_on_c, 0, 71, 64
1, 290412, Control_c, 0, 64, 0
1, 290485, Control_c, 0, 64, 127
1, 290560, Note_on_c, 0, 86, 0
1, 290560, Note_on_c, 0, 83, 54
1, 290720, Note_on_c, 0, 83, 0
1, 290720, Note_on_c, 0, 76, 54
1, 290880, Note_on_c, 0, 76, 0
1, 290880, Note_on_c, 0, 71, 0
1, 290880, Note_on_c, 0, 88, 74
1, 290880, Note_on_c, 0, 72, 67
1, 290887, Control_c, 0, 64, 0
1, 290951, Control_c, 0, 64, 127
1, 291040, Note_on_c, 0, 88, 0
1, 291040, Note_on_c, 0, 84, 54
1, 291200, Tempo, 364742
1, 291200, Note_on_c, 0, 84, 0
1, 291200, Note_on_c, 0, 76, 54
1, 291360, Tempo, 357058
1, 291360, Note_on_c, 0, 76, 0
1, 291360, Note_on_c, 0, 72, 0
1, 291360, Note_on_c, 0, 84, 70
1, 291360, Note_on_c, 0, 69, 60
1, 291374, Control_c, 0, 64, 0
1, 291452, Control_c, 0, 64, 127
1, 291480, Note_on_c, 0, 69, 0
1, 291520, Note_on_c, 0, 84, 0
1, 291520, Note_on_c, 0, 81, 53
1, 291680, Tempo, 383387
1, 291680, Note_on_c, 0, 81, 0
1, 291680, Note_on_c, 0, 76, 54
1, 291840, Tempo, 346741
1, 291840, Note_on_c, 0, 76, 0
1, 291840, Note_on_c, 0, 83, 62
1, 291840, Note_on_c, 0, 64, 39
1, 291840, Note_on_c, 0, 68, 57
1, 291854, Control_c, 0, 64, 0
1, 291926, Control_c, 0, 64, 127
1, 292000, Note_on_c, 0, 83, 0
1, 292000, Note_on_c, 0, 80, 47
1, 292160, Note_on_c, 0, 80, 0
1, 292160, Note_on_c, 0, 76, 47
1, 292320, Note_on_c, 0, 76, 0
1, 292320, Note_on_c, 0, 68, 0
1, 292320, Note_on_c, 0, 84, 61
1, 292320, Note_on_c, 0, 69, 51
1, 292332, Control_c, 0, 64, 0
1, 292405, Control_c, 0, 64, 127
1, 292480, Note_on_c, 0, 84, 0
1, 292480, Note_on_c, 0, 81, 46
1, 292640, Note_on_c, 0, 81, 0
1, 292640, Note_on_c, 0, 76, 46
1, 292800, Note_on_c, 0, 76, 0
1, 292800, Note_on_c, 0, 69, 0
1, 292800, Note_on_c, 0, 83, 61
1, 292800, Note_on_c, 0, 68, 51
1, 292807, Control_c, 0, 64, 0
1, 292871, Control_c, 0, 64, 127
1, 292960, Note_on_c, 0, 83, 0
1, 292960, Note_on_c, 0, 80, 47
1, 293120, Tempo, 364742
1, 293120, Note_on_c, 0, 80, 0
1, 293120, Note_on_c, 0, 76, 48
1, 293280, Tempo, 357058
1, 293280, Note_on_c, 0, 76, 0
1, 293280, Note_on_c, 0, 68, 0
1, 293280, Note_on_c, 0, 64, 0
1, 293280, Note_on_c, 0, 88, 59
1, 293280, Note_on_c, 0, 64, 33
1, 293294, Control_c, 0, 64, 0
1, 293372, Control_c, 0, 64, 127
1, 293440, Note_on_c, 0, 88, 0
1, 293440, Note_on_c, 0, 83, 45
1, 293600, Tempo, 415225
1, 293600, Note_on_c, 0, 83, 0
1, 293600, Note_on_c, 0, 80, 45
1, 293759, Tempo, 359281
1, 293760, Note_on_c, 0, 80, 0
1, 293760, Note_on_c, 0, 64, 0
1, 293760, Note_on_c, 0, 88, 57
1, 293760, Note_on_c, 0, 65, 40
1, 293774, Control_c, 0, 64, 0
1, 293777, Tempo, 358209
1, 293846, Control_c, 0, 64, 127
1, 293849, Tempo, 357143
1, 293880, Note_on_c, 0, 65, 0
1, 293920, Note_on_c, 0, 88, 0
1, 293920, Note_on_c, 0, 84, 44
1, 293921, Tempo, 356083
1, 293969, Tempo, 355030
1, 294041, Tempo, 353982
1, 294080, Note_on_c, 0, 84, 0
1, 294080, Note_on_c, 0, 81, 45
1, 294089, Tempo, 352941
1, 294161, Tempo, 351906
1, 294185, Tempo, 353982
1, 294240, Note_on_c, 0, 81, 0
1, 294240, Note_on_c, 0, 88, 57
1, 294240, Note_on_c, 0, 69, 33
1, 294252, Control_c, 0, 64, 0
1, 294325, Control_c, 0, 64, 127
1, 294360, Note_on_c, 0, 69, 0
1, 294400, Note_on_c, 0, 88, 0
1, 294400, Note_on_c, 0, 84, 41
1, 294560, Note_on_c, 0, 84, 0
1, 294560, Note_on_c, 0, 81, 41
1, 294720, Note_on_c, 0, 81, 0
1, 294720, Note_on_c, 0, 86, 56
1, 294720, Note_on_c, 0, 71, 41
1, 294727, Control_c, 0, 64, 0
1, 294791, Control_c, 0, 64, 127
1, 294840, Note_on_c, 0, 71, 0
1, 294880, Note_on_c, 0, 86, 0
1, 294880, Note_on_c, 0, 83, 39
1, 295040, Tempo, 364742
1, 295040, Note_on_c, 0, 83, 0
1, 295040, Note_on_c, 0, 81, 39
1, 295200, Tempo, 357058
1, 295200, Note_on_c, 0, 81, 0
1, 295200, Note_on_c, 0, 86, 58
1, 295200, Note_on_c, 0, 74, 33
1, 295214, Control_c, 0, 64, 0
1, 295292, Control_c, 0, 64, 127
1, 295360, Note_on_c, 0, 86, 0
1, 295360, Note_on_c, 0, 83, 39
1, 295520, Tempo, 400000
1, 295520, Note_on_c, 0, 83, 0
1, 295520, Note_on_c, 0, 81, 40
1, 295679, Tempo, 358209
1, 295680, Note_on_c, 0, 81, 0
1, 295680, Note_on_c, 0, 74, 0
1, 295680, Note_on_c, 0, 86, 62
1, 295680, Note_on_c, 0, 64, 40
1, 295694, Control_c, 0, 64, 0
1, 295721, Tempo, 358209
1, 295766, Control_c, 0, 64, 127
1, 295793, Tempo, 357143
1, 295800, Note_on_c, 0, 64, 0
1, 295840, Note_on_c, 0, 86, 0
1, 295840, Note_on_c, 0, 83, 44
1, 295865, Tempo, 356083
1, 295937, Tempo, 355030
1, 296000, Note_on_c, 0, 83, 0
1, 296000, Note_on_c, 0, 80, 46
1, 296009, Tempo, 353982
1, 296081, Tempo, 352941
1, 296153, Tempo, 351906
1, 296160, Note_on_c, 0, 80, 0
1, 296160, Note_on_c, 0, 86, 55
1, 296160, Note_on_c, 0, 68, 33
1, 296172, Control_c, 0, 64, 0
1, 296177, Tempo, 351906
1, 296245, Control_c, 0, 64, 127
1, 296280, Note_on_c, 0, 68, 0
1, 296320, Note_on_c, 0, 86, 0
1, 296320, Note_on_c, 0, 83, 42
1, 296480, Note_on_c, 0, 83, 0
1, 296480, Note_on_c, 0, 80, 43
1, 296640, Note_on_c, 0, 80, 0
1, 296640, Note_on_c, 0, 85, 58
1, 296640, Note_on_c, 0, 69, 41
1, 296647, Control_c, 0, 64, 0
1, 296732, Control_c, 0, 64, 127
1, 296760, Note_on_c, 0, 69, 0
1, 296800, Note_on_c, 0, 85, 0
1, 296800, Note_on_c, 0, 81, 44
1, 296960, Tempo, 363636
1, 296960, Note_on_c, 0, 81, 0
1, 296960, Note_on_c, 0, 79, 45
1, 297120, Tempo, 357058
1, 297120, Note_on_c, 0, 79, 0
1, 297120, Note_on_c, 0, 85, 55
1, 297120, Note_on_c, 0, 73, 35
1, 297134, Control_c, 0, 64, 0
1, 297212, Control_c, 0, 64, 127
1, 297280, Note_on_c, 0, 85, 0
1, 297280, Note_on_c, 0, 81, 46
1, 297440, Tempo, 369231
1, 297440, Note_on_c, 0, 81, 0
1, 297440, Note_on_c, 0, 79, 46
1, 297599, Tempo, 359281
1, 297600, Note_on_c, 0, 79, 0
1, 297600, Note_on_c, 0, 73, 0
1, 297600, Note_on_c, 0, 84, 66
1, 297600, Note_on_c, 0, 62, 44
1, 297614, Control_c, 0, 64, 0
1, 297671, Tempo, 358209
1, 297686, Control_c, 0, 64, 127
1, 297719, Tempo, 357143
1, 297720, Note_on_c, 0, 62, 0
1, 297760, Note_on_c, 0, 84, 0
1, 297760, Note_on_c, 0, 81, 48
1, 297767, Tempo, 356083
1, 297815, Tempo, 355030
1, 297863, Tempo, 353982
1, 297911, Tempo, 352941
1, 297920, Note_on_c, 0, 81, 0
1, 297920, Note_on_c, 0, 78, 51
1, 297983, Tempo, 351906
1, 298031, Tempo, 350877
1, 298079, Tempo, 349854
1, 298080, Note_on_c, 0, 78, 0
1, 298080, Note_on_c, 0, 84, 60
1, 298080, Note_on_c, 0, 66, 37
1, 298092, Control_c, 0, 64, 0
1, 298127, Tempo, 348837
1, 298165, Control_c, 0, 64, 127
1, 298175, Tempo, 347826
1, 298200, Note_on_c, 0, 66, 0
1, 298223, Tempo, 346821
1, 298240, Note_on_c, 0, 84, 0
1, 298240, Note_on_c, 0, 81, 47
1, 298400, Note_on_c, 0, 81, 0
1, 298400, Note_on_c, 0, 78, 47
1, 298560, Note_on_c, 0, 78, 0
1, 298560, Note_on_c, 0, 83, 67
1, 298560, Note_on_c, 0, 67, 48
1, 298567, Control_c, 0, 64, 0
1, 298657, Control_c, 0, 64, 127
1, 298680, Note_on_c, 0, 67, 0
1, 298720, Note_on_c, 0, 83, 0
1, 298720, Note_on_c, 0, 79, 46
1, 298880, Tempo, 370370
1, 298880, Note_on_c, 0, 79, 0
1, 298880, Note_on_c, 0, 77, 46
1, 299040, Tempo, 357058
1, 299040, Note_on_c, 0, 77, 0
1, 299040, Note_on_c, 0, 83, 61
1, 299040, Note_on_c, 0, 71, 39
1, 299054, Control_c, 0, 64, 0
1, 299132, Control_c, 0, 64, 127
1, 299200, Note_on_c, 0, 83, 0
1, 299200, Note_on_c, 0, 79, 47
1, 299360, Tempo, 397246
1, 299360, Note_on_c, 0, 79, 0
1, 299360, Note_on_c, 0, 77, 48
1, 299520, Tempo, 346741
1, 299520, Note_on_c, 0, 77, 0
1, 299520, Note_on_c, 0, 71, 0
1, 299520, Note_on_c, 0, 82, 67
1, 299520, Note_on_c, 0, 60, 48
1, 299534, Control_c, 0, 64, 0
1, 299606, Control_c, 0, 64, 127
1, 299640, Note_on_c, 0, 60, 0
1, 299680, Note_on_c, 0, 82, 0
1, 299680, Note_on_c, 0, 79, 53
1, 299840, Note_on_c, 0, 79, 0
1, 299840, Note_on_c, 0, 76, 55
1, 300000, Note_on_c, 0, 76, 0
1, 300000, Note_on_c, 0, 82, 66
1, 300000, Note_on_c, 0, 64, 40
1, 300012, Control_c, 0, 64, 0
1, 300085, Control_c, 0, 64, 127
1, 300120, Note_on_c, 0, 64, 0
1, 300160, Note_on_c, 0, 82, 0
1, 300160, Note_on_c, 0, 79, 51
1, 300320, Note_on_c, 0, 79, 0
1, 300320, Note_on_c, 0, 76, 51
1, 300480, Note_on_c, 0, 76, 0
1, 300480, Note_on_c, 0, 81, 67
1, 300480, Note_on_c, 0, 65, 51
1, 300487, Control_c, 0, 64, 0
1, 300566, Control_c, 0, 64, 127
1, 300600, Note_on_c, 0, 65, 0
1, 300640, Note_on_c, 0, 81, 0
1, 300640, Note_on_c, 0, 77, 50
1, 300800, Tempo, 371517
1, 300800, Note_on_c, 0, 77, 0
1, 300800, Note_on_c, 0, 72, 50
1, 300960, Tempo, 357058
1, 300960, Note_on_c, 0, 72, 0
1, 300960, Note_on_c, 0, 81, 66
1, 300960, Note_on_c, 0, 69, 42
1, 300974, Control_c, 0, 64, 0
1, 301052, Control_c, 0, 64, 127
1, 301080, Note_on_c, 0, 69, 0
1, 301120, Note_on_c, 0, 81, 0
1, 301120, Note_on_c, 0, 77, 51
1, 301280, Tempo, 373832
1, 301280, Note_on_c, 0, 77, 0
1, 301280, Note_on_c, 0, 72, 52
1, 301440, Tempo, 346741
1, 301440, Note_on_c, 0, 72, 0
1, 301440, Note_on_c, 0, 82, 73
1, 301440, Note_on_c, 0, 64, 60
1, 301454, Control_c, 0, 64, 0
1, 301526, Control_c, 0, 64, 127
1, 301560, Note_on_c, 0, 64, 0
1, 301600, Note_on_c, 0, 82, 0
1, 301600, Note_on_c, 0, 79, 57
1, 301760, Note_on_c, 0, 79, 0
1, 301760, Note_on_c, 0, 72, 60
1, 301920, Note_on_c, 0, 72, 0
1, 301920, Note_on_c, 0, 82, 72
1, 301920, Note_on_c, 0, 60, 51
1, 301932, Control_c, 0, 64, 0
1, 302005, Control_c, 0, 64, 127
1, 302040, Note_on_c, 0, 60, 0
1, 302080, Note_on_c, 0, 82, 0
1, 302080, Note_on_c, 0, 79, 55
1, 302240, Note_on_c, 0, 79, 0
1, 302240, Note_on_c, 0, 72, 55
1, 302400, Note_on_c, 0, 72, 0
1, 302400, Note_on_c, 0, 81, 73
1, 302400, Note_on_c, 0, 65, 65
1, 302407, Control_c, 0, 64, 0
1, 302497, Control_c, 0, 64, 127
1, 302520, Note_on_c, 0, 65, 0
1, 302560, Note_on_c, 0, 81, 0
1, 302560, Note_on_c, 0, 77, 54
1, 302720, Tempo, 358209
1, 302720, Note_on_c, 0, 77, 0
1, 302720, Note_on_c, 0, 72, 54
1, 302880, Tempo, 357058
1, 302880, Note_on_c, 0, 72, 0
1, 302880, Note_on_c, 0, 81, 71
1, 302880, Note_on_c, 0, 69, 57
1, 302894, Control_c, 0, 64, 0
1, 302972, Control_c, 0, 64, 127
1, 303000, Note_on_c, 0, 69, 0
1, 303040, Note_on_c, 0, 81, 0
1, 303040, Note_on_c, 0, 77, 55
1, 303200, Tempo, 397246
1, 303200, Note_on_c, 0, 77, 0
1, 303200, Note_on_c, 0, 72, 57
1, 303360, Tempo, 346741
1, 303360, Note_on_c, 0, 72, 0
1, 303360, Note_on_c, 0, 81, 82
1, 303360, Note_on_c, 0, 41, 62
1, 303360, Note_on_c, 0, 53, 73
1, 303374, Control_c, 0, 64, 0
1, 303446, Control_c, 0, 64, 127
1, 303480, Note_on_c, 0, 53, 0
1, 303480, Note_on_c, 0, 41, 0
1, 303520, Note_on_c, 0, 81, 0
1, 303520, Note_on_c, 0, 77, 65
1, 303680, Note_on_c, 0, 77, 0
1, 303680, Note_on_c, 0, 72, 67
1, 303840, Note_on_c, 0, 72, 0
1, 303840, Note_on_c, 0, 81, 80
1, 303840, Note_on_c, 0, 45, 56
1, 303840, Note_on_c, 0, 57, 67
1, 303852, Control_c, 0, 64, 0
1, 303925, Control_c, 0, 64, 127
1, 303960, Note_on_c, 0, 57, 0
1, 303960, Note_on_c, 0, 45, 0
1, 304000, Note_on_c, 0, 81, 0
1, 304000, Note_on_c, 0, 77, 61
1, 304160, Note_on_c, 0, 77, 0
1, 304160, Note_on_c, 0, 72, 61
1, 304320, Note_on_c, 0, 72, 0
1, 304320, Note_on_c, 0, 81, 80
1, 304320, Note_on_c, 0, 52, 75
1, 304320, Note_on_c, 0, 40, 63
1, 304327, Control_c, 0, 64, 0
1, 304391, Control_c, 0, 64, 127
1, 304440, Note_on_c, 0, 40, 0
1, 304440, Note_on_c, 0, 52, 0
1, 304480, Note_on_c, 0, 81, 0
1, 304480, Note_on_c, 0, 76, 58
1, 304640, Tempo, 365854
1, 304640, Note_on_c, 0, 76, 0
1, 304640, Note_on_c, 0, 72, 58
1, 304800, Tempo, 357058
1, 304800, Note_on_c, 0, 72, 0
1, 304800, Note_on_c, 0, 81, 76
1, 304800, Note_on_c, 0, 45, 57
1, 304800, Note_on_c, 0, 57, 68
1, 304814, Control_c, 0, 64, 0
1, 304892, Control_c, 0, 64, 127
1, 304920, Note_on_c, 0, 57, 0
1, 304920, Note_on_c, 0, 45, 0
1, 304960, Note_on_c, 0, 81, 0
1, 304960, Note_on_c, 0, 76, 58
1, 305120, Tempo, 397246
1, 305120, Note_on_c, 0, 76, 0
1, 305120, Note_on_c, 0, 72, 60
1, 305280, Tempo, 346741
1, 305280, Note_on_c, 0, 72, 0
1, 305280, Note_on_c, 0, 81, 82
1, 305280, Note_on_c, 0, 39, 66
1, 305280, Note_on_c, 0, 51, 78
1, 305294, Control_c, 0, 64, 0
1, 305366, Control_c, 0, 64, 127
1, 305400, Note_on_c, 0, 51, 0
1, 305400, Note_on_c, 0, 39, 0
1, 305440, Note_on_c, 0, 81, 0
1, 305440, Note_on_c, 0, 78, 65
1, 305600, Note_on_c, 0, 78, 0
1, 305600, Note_on_c, 0, 72, 67
1, 305760, Note_on_c, 0, 72, 0
1, 305760, Note_on_c, 0, 81, 80
1, 305760, Note_on_c, 0, 42, 61
1, 305760, Note_on_c, 0, 54, 72
1, 305880, Note_on_c, 0, 54, 0
1, 305880, Note_on_c, 0, 42, 0
1, 305920, Note_on_c, 0, 81, 0
1, 305920, Note_on_c, 0, 78, 61
1, 306080, Note_on_c, 0, 78, 0
1, 306080, Note_on_c, 0, 72, 61
1, 306240, Note_on_c, 0, 72, 0
1, 306240, Note_on_c, 0, 81, 80
1, 306240, Note_on_c, 0, 45, 64
1, 306240, Note_on_c, 0, 57, 76
1, 306360, Note_on_c, 0, 57, 0
1, 306360, Note_on_c, 0, 45, 0
1, 306400, Note_on_c, 0, 81, 0
1, 306400, Note_on_c, 0, 78, 58
1, 306560, Tempo, 359281
1, 306560, Note_on_c, 0, 78, 0
1, 306560, Note_on_c, 0, 72, 58
1, 306720, Tempo, 350877
1, 306720, Note_on_c, 0, 72, 0
1, 306720, Note_on_c, 0, 81, 76
1, 306720, Note_on_c, 0, 60, 70
1, 306720, Note_on_c, 0, 48, 59
1, 306840, Note_on_c, 0, 48, 0
1, 306840, Note_on_c, 0, 60, 0
1, 306880, Note_on_c, 0, 81, 0
1, 306880, Note_on_c, 0, 78, 58
1, 307040, Tempo, 364742
1, 307040, Note_on_c, 0, 78, 0
1, 307040, Note_on_c, 0, 72, 60
1, 307200, Tempo, 346741
1, 307200, Note_on_c, 0, 72, 0
1, 307200, Note_on_c, 0, 81, 82
1, 307200, Note_on_c, 0, 63, 76
1, 307200, Note_on_c, 0, 51, 64
1, 307320, Note_on_c, 0, 51, 0
1, 307320, Note_on_c, 0, 63, 0
1, 307360, Note_on_c, 0, 81, 0
1, 307360, Note_on_c, 0, 78, 65
1, 307520, Note_on_c, 0, 78, 0
1, 307520, Note_on_c, 0, 72, 67
1, 307680, Note_on_c, 0, 72, 0
1, 307680, Note_on_c, 0, 81, 80
1, 307680, Note_on_c, 0, 54, 57
1, 307680, Note_on_c, 0, 66, 68
1, 307800, Note_on_c, 0, 66, 0
1, 307800, Note_on_c, 0, 54, 0
1, 307840, Note_on_c, 0, 81, 0
1, 307840, Note_on_c, 0, 78, 61
1, 308000, Note_on_c, 0, 78, 0
1, 308000, Note_on_c, 0, 72, 61
1, 308160, Note_on_c, 0, 72, 0
1, 308160, Note_on_c, 0, 81, 80
1, 308160, Note_on_c, 0, 69, 79
1, 308160, Note_on_c, 0, 57, 67
1, 308280, Note_on_c, 0, 57, 0
1, 308280, Note_on_c, 0, 69, 0
1, 308320, Note_on_c, 0, 81, 0
1, 308320, Note_on_c, 0, 78, 58
1, 308480, Tempo, 355030
1, 308480, Note_on_c, 0, 78, 0
1, 308480, Note_on_c, 0, 72, 58
1, 308640, Tempo, 357058
1, 308640, Note_on_c, 0, 72, 0
1, 308640, Note_on_c, 0, 81, 76
1, 308640, Note_on_c, 0, 51, 71
1, 308640, Note_on_c, 0, 39, 60
1, 308800, Note_on_c, 0, 81, 0
1, 308800, Note_on_c, 0, 78, 58
1, 308960, Tempo, 430108
1, 308960, Note_on_c, 0, 78, 0
1, 308960, Note_on_c, 0, 72, 60
1, 309120, Tempo, 341880
1, 309120, Note_on_c, 0, 72, 0
1, 309120, Note_on_c, 0, 39, 0
1, 309120, Note_on_c, 0, 51, 0
1, 309120, Note_on_c, 0, 81, 89
1, 309120, Note_on_c, 0, 52, 82
1, 309120, Note_on_c, 0, 40, 69
1, 309120, Control_c, 0, 64, 0
1, 309223, Control_c, 0, 64, 127
1, 309280, Note_on_c, 0, 81, 0
1, 309280, Note_on_c, 0, 76, 66
1, 309440, Note_on_c, 0, 76, 0
1, 309440, Note_on_c, 0, 72, 65
1, 309600, Note_on_c, 0, 72, 0
1, 309600, Note_on_c, 0, 81, 84
1, 309760, Note_on_c, 0, 81, 0
1, 309760, Note_on_c, 0, 76, 66
1, 309920, Note_on_c, 0, 76, 0
1, 309920, Note_on_c, 0, 72, 66
1, 310080, Note_on_c, 0, 72, 0
1, 310080, Note_on_c, 0, 80, 86
1, 310085, Control_c, 0, 64, 0
1, 310160, Control_c, 0, 64, 127
1, 310235, Note_on_c, 0, 74, 63
1, 310240, Note_on_c, 0, 80, 0
1, 310395, Note_on_c, 0, 74, 0
1, 310400, Note_on_c, 0, 71, 63
1, 310560, Note_on_c, 0, 71, 0
1, 310560, Note_on_c, 0, 80, 82
1, 310720, Note_on_c, 0, 80, 0
1, 310720, Note_on_c, 0, 74, 60
1, 310880, Tempo, 351906
1, 310880, Note_on_c, 0, 74, 0
1, 310880, Note_on_c, 0, 71, 64
1, 311040, Tempo, 342857
1, 311040, Note_on_c, 0, 71, 0
1, 311040, Note_on_c, 0, 77, 75
1, 311040, Control_c, 0, 64, 0
1, 311149, Control_c, 0, 64, 127
1, 311200, Note_on_c, 0, 77, 0
1, 311200, Note_on_c, 0, 72, 55
1, 311360, Note_on_c, 0, 72, 0
1, 311360, Note_on_c, 0, 69, 54
1, 311520, Note_on_c, 0, 69, 0
1, 311520, Note_on_c, 0, 77, 74
1, 311680, Note_on_c, 0, 77, 0
1, 311680, Note_on_c, 0, 72, 53
1, 311840, Note_on_c, 0, 72, 0
1, 311840, Note_on_c, 0, 69, 54
1, 312000, Note_on_c, 0, 69, 0
1, 312000, Note_on_c, 0, 76, 72
1, 312019, Control_c, 0, 64, 0
1, 312115, Control_c, 0, 64, 127
1, 312160, Note_on_c, 0, 76, 0
1, 312160, Note_on_c, 0, 71, 52
1, 312320, Note_on_c, 0, 71, 0
1, 312320, Note_on_c, 0, 68, 52
1, 312480, Note_on_c, 0, 68, 0
1, 312480, Note_on_c, 0, 76, 68
1, 312640, Note_on_c, 0, 76, 0
1, 312640, Note_on_c, 0, 71, 52
1, 312800, Tempo, 350877
1, 312800, Note_on_c, 0, 71, 0
1, 312800, Note_on_c, 0, 68, 55
1, 312960, Tempo, 343840
1, 312960, Note_on_c, 0, 68, 0
1, 312960, Note_on_c, 0, 75, 71
1, 312960, Control_c, 0, 64, 0
1, 313063, Control_c, 0, 64, 127
1, 313120, Note_on_c, 0, 75, 0
1, 313120, Note_on_c, 0, 69, 49
1, 313280, Note_on_c, 0, 69, 0
1, 313280, Note_on_c, 0, 66, 49
1, 313440, Note_on_c, 0, 66, 0
1, 313440, Note_on_c, 0, 75, 67
1, 313600, Note_on_c, 0, 75, 0
1, 313600, Note_on_c, 0, 69, 47
1, 313760, Note_on_c, 0, 69, 0
1, 313760, Note_on_c, 0, 66, 53
1, 313920, Note_on_c, 0, 66, 0
1, 313920, Note_on_c, 0, 74, 69
1, 313928, Control_c, 0, 64, 0
1, 314052, Control_c, 0, 64, 127
1, 314080, Note_on_c, 0, 74, 0
1, 314080, Note_on_c, 0, 71, 50
1, 314240, Note_on_c, 0, 71, 0
1, 314240, Note_on_c, 0, 68, 50
1, 314400, Note_on_c, 0, 68, 0
1, 314400, Note_on_c, 0, 74, 63
1, 314560, Note_on_c, 0, 74, 0
1, 314560, Note_on_c, 0, 71, 47
1, 314720, Tempo, 357143
1, 314720, Note_on_c, 0, 71, 0
1, 314720, Note_on_c, 0, 68, 46
1, 314880, Tempo, 343840
1, 314880, Note_on_c, 0, 68, 0
1, 314880, Note_on_c, 0, 40, 0
1, 314880, Note_on_c, 0, 52, 0
1, 314880, Note_on_c, 0, 72, 58
1, 314880, Note_on_c, 0, 57, 40
1, 314880, Note_on_c, 0, 45, 40
1, 314880, Control_c, 0, 64, 0
1, 315000, Control_c, 0, 64, 127
1, 315040, Note_on_c, 0, 72, 0
1, 315040, Note_on_c, 0, 69, 44
1, 315200, Note_on_c, 0, 69, 0
1, 315200, Note_on_c, 0, 64, 47
1, 315360, Note_on_c, 0, 64, 0
1, 315360, Note_on_c, 0, 72, 53
1, 315515, Note_on_c, 0, 69, 43
1, 315520, Note_on_c, 0, 72, 0
1, 315675, Note_on_c, 0, 69, 0
1, 315680, Tempo, 357143
1, 315680, Note_on_c, 0, 64, 45
1, 315840, Tempo, 343840
1, 315840, Note_on_c, 0, 64, 0
1, 315840, Note_on_c, 0, 45, 0
1, 315840, Note_on_c, 0, 57, 0
1, 315840, Note_on_c, 0, 69, 58
1, 315840, Note_on_c, 0, 36, 38
1, 315840, Note_on_c, 0, 48, 38
1, 316000, Note_on_c, 0, 69, 0
1, 316000, Note_on_c, 0, 64, 46
1, 316160, Note_on_c, 0, 64, 0
1, 316160, Note_on_c, 0, 60, 46
1, 316320, Note_on_c, 0, 60, 0
1, 316320, Note_on_c, 0, 69, 53
1, 316480, Note_on_c, 0, 69, 0
1, 316480, Note_on_c, 0, 64, 44
1, 316640, Tempo, 357143
1, 316640, Note_on_c, 0, 64, 0
1, 316640, Note_on_c, 0, 60, 44
1, 316800, Tempo, 343840
1, 316800, Note_on_c, 0, 60, 0
1, 316800, Note_on_c, 0, 48, 0
1, 316800, Note_on_c, 0, 36, 0
1, 316800, Note_on_c, 0, 70, 58
1, 316800, Note_on_c, 0, 38, 40
1, 316800, Note_on_c, 0, 50, 40
1, 316800, Control_c, 0, 64, 0
1, 316886, Control_c, 0, 64, 127
1, 316960, Note_on_c, 0, 70, 0
1, 316960, Note_on_c, 0, 65, 47
1, 317120, Note_on_c, 0, 65, 0
1, 317120, Note_on_c, 0, 62, 47
1, 317280, Note_on_c, 0, 62, 0
1, 317280, Note_on_c, 0, 70, 53
1, 317440, Note_on_c, 0, 70, 0
1, 317440, Note_on_c, 0, 65, 45
1, 317600, Tempo, 357143
1, 317600, Note_on_c, 0, 65, 0
1, 317600, Note_on_c, 0, 62, 45
1, 317760, Tempo, 343840
1, 317760, Note_on_c, 0, 62, 0
1, 317760, Note_on_c, 0, 50, 0
1, 317760, Note_on_c, 0, 38, 0
1, 317760, Note_on_c, 0, 68, 54
1, 317760, Note_on_c, 0, 52, 36
1, 317760, Note_on_c, 0, 40, 36
1, 317769, Control_c, 0, 64, 0
1, 317886, Control_c, 0, 64, 127
1, 317920, Note_on_c, 0, 68, 0
1, 317920, Note_on_c, 0, 62, 43
1, 318080, Note_on_c, 0, 62, 0
1, 318080, Note_on_c, 0, 59, 43
1, 318240, Note_on_c, 0, 59, 0
1, 318240, Note_on_c, 0, 68, 53
1, 318400, Note_on_c, 0, 68, 0
1, 318400, Note_on_c, 0, 62, 38
1, 318560, Tempo, 357143
1, 318560, Note_on_c, 0, 62, 0
1, 318560, Note_on_c, 0, 59, 38
1, 318704, Tempo, 345821
1, 318720, Note_on_c, 0, 59, 0
1, 318720, Note_on_c, 0, 40, 0
1, 318720, Note_on_c, 0, 52, 0
1, 318720, Note_on_c, 0, 67, 43
1, 318720, Note_on_c, 0, 45, 40
1, 318720, Control_c, 0, 64, 0
1, 318776, Tempo, 346821
1, 318824, Tempo, 347826
1, 318835, Control_c, 0, 64, 127
1, 318872, Tempo, 348837
1, 318880, Note_on_c, 0, 67, 0
1, 318880, Note_on_c, 0, 64, 36
1, 318944, Tempo, 349854
1, 318992, Tempo, 350877
1, 319040, Tempo, 351906
1, 319040, Note_on_c, 0, 64, 0
1, 319040, Note_on_c, 0, 61, 36
1, 319112, Tempo, 352941
1, 319160, Tempo, 353982
1, 319200, Note_on_c, 0, 61, 0
1, 319200, Note_on_c, 0, 67, 43
1, 319200, Note_on_c, 0, 49, 34
1, 319208, Tempo, 355030
1, 319280, Tempo, 356083
1, 319328, Tempo, 357143
1, 319360, Note_on_c, 0, 67, 0
1, 319360, Note_on_c, 0, 64, 37
1, 319376, Tempo, 358209
1, 319448, Tempo, 359281
1, 319496, Tempo, 360360
1, 319520, Note_on_c, 0, 64, 0
1, 319520, Note_on_c, 0, 61, 37
1, 319544, Tempo, 361446
1, 319616, Tempo, 362538
1, 319664, Tempo, 363636
1, 319680, Note_on_c, 0, 61, 0
1, 319680, Note_on_c, 0, 67, 48
1, 319680, Note_on_c, 0, 52, 37
1, 319712, Tempo, 364742
1, 319784, Tempo, 365854
1, 319832, Tempo, 366972
1, 319840, Note_on_c, 0, 67, 0
1, 319840, Note_on_c, 0, 64, 35
1, 319880, Tempo, 368098
1, 319952, Tempo, 369231
1, 320000, Tempo, 370370
1, 320000, Note_on_c, 0, 64, 0
1, 320000, Note_on_c, 0, 61, 36
1, 320048, Tempo, 371517
1, 320160, Tempo, 419580
1, 320160, Note_on_c, 0, 61, 0
1, 320160, Note_on_c, 0, 67, 48
1, 320160, Note_on_c, 0, 55, 40
1, 320320, Note_on_c, 0, 67, 0
1, 320320, Note_on_c, 0, 64, 36
1, 320480, Note_on_c, 0, 64, 0
1, 320480, Note_on_c, 0, 61, 37
1, 320640, Tempo, 1132075
1, 320640, Note_on_c, 0, 61, 0
1, 320640, Note_on_c, 0, 55, 0
1, 320640, Note_on_c, 0, 61, 53
1, 320640, Note_on_c, 0, 64, 53
1, 320640, Note_on_c, 0, 67, 53
1, 320640, Note_on_c, 0, 58, 43
1, 321600, Tempo, 764331
1, 321600, Note_on_c, 0, 58, 0
1, 321600, Note_on_c, 0, 64, 0
1, 321600, Note_on_c, 0, 61, 0
1, 321600, Note_on_c, 0, 67, 0
1, 321600, Note_on_c, 0, 65, 48
1, 321600, Note_on_c, 0, 57, 37
1, 321600, Control_c, 0, 64, 0
1, 322080, Tempo, 851064
1, 322080, Note_on_c, 0, 57, 0
1, 322080, Note_on_c, 0, 65, 0
1, 322080, Note_on_c, 0, 64, 45
1, 322080, Note_on_c, 0, 55, 32
1, 322560, Tempo, 343840
1, 322560, Note_on_c, 0, 55, 0
1, 322560, Note_on_c, 0, 49, 0
1, 322560, Note_on_c, 0, 45, 0
1, 322560, Note_on_c, 0, 52, 0
1, 322560, Note_on_c, 0, 64, 0
1, 322560, Note_on_c, 0, 65, 41
1, 322560, Note_on_c, 0, 50, 30
1, 322560, Note_on_c, 0, 53, 36
1, 322560, Control_c, 0, 64, 0
1, 322720, Note_on_c, 0, 65, 0
1, 322720, Note_on_c, 0, 62, 32
1, 322730, Control_c, 0, 64, 127
1, 322880, Note_on_c, 0, 62, 0
1, 322880, Note_on_c, 0, 57, 33
1, 323040, Note_on_c, 0, 57, 0
1, 323040, Note_on_c, 0, 65, 41
1, 323200, Note_on_c, 0, 65, 0
1, 323200, Note_on_c, 0, 62, 35
1, 323360, Tempo, 357143
1, 323360, Note_on_c, 0, 62, 0
1, 323360, Note_on_c, 0, 57, 35
1, 323520, Tempo, 343840
1, 323520, Note_on_c, 0, 57, 0
1, 323520, Note_on_c, 0, 65, 41
1, 323680, Note_on_c, 0, 65, 0
1, 323680, Note_on_c, 0, 62, 35
1, 323840, Note_on_c, 0, 62, 0
1, 323840, Note_on_c, 0, 57, 35
1, 324000, Note_on_c, 0, 57, 0
1, 324000, Note_on_c, 0, 53, 0
1, 324000, Note_on_c, 0, 50, 0
1, 324000, Note_on_c, 0, 65, 41
1, 324000, Note_on_c, 0, 52, 32
1, 324000, Note_on_c, 0, 48, 27
1, 324008, Control_c, 0, 64, 0
1, 324127, Control_c, 0, 64, 127
1, 324160, Note_on_c, 0, 65, 0
1, 324160, Note_on_c, 0, 62, 34
1, 324320, Tempo, 357143
1, 324320, Note_on_c, 0, 62, 0
1, 324320, Note_on_c, 0, 57, 34
1, 324480, Tempo, 343840
1, 324480, Note_on_c, 0, 57, 0
1, 324480, Note_on_c, 0, 48, 0
1, 324480, Note_on_c, 0, 52, 0
1, 324480, Note_on_c, 0, 65, 41
1, 324480, Note_on_c, 0, 50, 36
1, 324480, Note_on_c, 0, 47, 30
1, 324480, Control_c, 0, 64, 0
1, 324537, Tempo, 343840
1, 324579, Control_c, 0, 64, 127
1, 324609, Tempo, 344828
1, 324640, Note_on_c, 0, 65, 0
1, 324640, Note_on_c, 0, 62, 32
1, 324657, Tempo, 345821
1, 324729, Tempo, 346821
1, 324777, Tempo, 347826
1, 324800, Note_on_c, 0, 62, 0
1, 324800, Note_on_c, 0, 55, 33
1, 324849, Tempo, 348837
1, 324897, Tempo, 349854
1, 324945, Tempo, 350877
1, 324960, Note_on_c, 0, 55, 0
1, 324960, Note_on_c, 0, 65, 41
1, 325017, Tempo, 351906
1, 325065, Tempo, 352941
1, 325120, Note_on_c, 0, 65, 0
1, 325120, Note_on_c, 0, 62, 35
1, 325137, Tempo, 353982
1, 325185, Tempo, 355030
1, 325233, Tempo, 356083
1, 325280, Tempo, 376176
1, 325280, Note_on_c, 0, 62, 0
1, 325280, Note_on_c, 0, 55, 35
1, 325414, Tempo, 359281
1, 325438, Tempo, 360360
1, 325440, Note_on_c, 0, 55, 0
1, 325440, Note_on_c, 0, 65, 41
1, 325462, Tempo, 361446
1, 325486, Tempo, 362538
1, 325510, Tempo, 363636
1, 325534, Tempo, 364742
1, 325558, Tempo, 365854
1, 325582, Tempo, 366972
1, 325600, Note_on_c, 0, 65, 0
1, 325600, Note_on_c, 0, 62, 35
1, 325606, Tempo, 369231
1, 325630, Tempo, 370370
1, 325654, Tempo, 371517
1, 325678, Tempo, 372671
1, 325702, Tempo, 373832
1, 325726, Tempo, 375000
1, 325750, Tempo, 376176
1, 325760, Note_on_c, 0, 62, 0
1, 325760, Note_on_c, 0, 55, 35
1, 325774, Tempo, 377358
1, 325798, Tempo, 379747
1, 325822, Tempo, 380952
1, 325846, Tempo, 382166
1, 325870, Tempo, 383387
1, 325894, Tempo, 384615
1, 325908, Tempo, 385852
1, 325917, Tempo, 389610
1, 325920, Note_on_c, 0, 55, 0
1, 325920, Note_on_c, 0, 47, 0
1, 325920, Note_on_c, 0, 50, 0
1, 325920, Note_on_c, 0, 65, 41
1, 325920, Note_on_c, 0, 45, 27
1, 325920, Note_on_c, 0, 48, 32
1, 325927, Tempo, 393443
1, 325936, Tempo, 397351
1, 325938, Control_c, 0, 64, 0
1, 325946, Tempo, 402685
1, 325956, Tempo, 406780
1, 325965, Tempo, 410959
1, 325975, Tempo, 415225
1, 325984, Tempo, 421053
1, 325994, Tempo, 425532
1, 326004, Tempo, 430108
1, 326013, Tempo, 436364
1, 326023, Tempo, 441176
1, 326032, Tempo, 446097
1, 326042, Tempo, 451128
1, 326052, Tempo, 458015
1, 326061, Tempo, 463320
1, 326068, Control_c, 0, 64, 127
1, 326071, Tempo, 468750
1, 326080, Tempo, 474308
1, 326080, Note_on_c, 0, 65, 0
1, 326080, Note_on_c, 0, 62, 34
1, 326090, Tempo, 481928
1, 326100, Tempo, 487805
1, 326109, Tempo, 493827
1, 326119, Tempo, 502092
1, 326128, Tempo, 508475
1, 326138, Tempo, 515021
1, 326148, Tempo, 521739
1, 326157, Tempo, 530973
1, 326167, Tempo, 538117
1, 326176, Tempo, 545455
1, 326186, Tempo, 552995
1, 326196, Tempo, 563380
1, 326205, Tempo, 571429
1, 326215, Tempo, 579710
1, 326224, Tempo, 591133
1, 326240, Tempo, 1121495
1, 326240, Note_on_c, 0, 62, 0
1, 326240, Note_on_c, 0, 55, 34
1, 326400, Tempo, 681818
1, 326400, Note_on_c, 0, 55, 0
1, 326400, Note_on_c, 0, 48, 0
1, 326400, Note_on_c, 0, 45, 0
1, 326400, Note_on_c, 0, 62, 34
1, 326400, Note_on_c, 0, 65, 41
1, 326400, Note_on_c, 0, 55, 34
1, 326400, Note_on_c, 0, 43, 27
1, 326400, Note_on_c, 0, 47, 32
1, 326400, Control_c, 0, 64, 0
1, 326667, Control_c, 0, 64, 127
1, 327520, Tempo, 444444
1, 327600, Note_on_c, 0, 47, 0
1, 327600, Note_on_c, 0, 55, 0
1, 327600, Note_on_c, 0, 62, 0
1, 327600, Note_on_c, 0, 65, 0
1, 327600, Note_on_c, 0, 43, 0
1, 327627, Control_c, 0, 64, 0
1, 327840, Tempo, 349589
1, 327840, Note_on_c, 0, 60, 50
1, 327861, Control_c, 0, 64, 127
1, 328200, Tempo, 372093
1, 328200, Note_on_c, 0, 60, 0
1, 328200, Note_on_c, 0, 64, 50
1, 328320, Tempo, 354946
1, 328320, Note_on_c, 0, 64, 0
1, 328320, Note_on_c, 0, 67, 57
1, 328320, Note_on_c, 0, 52, 52
1, 328320, Note_on_c, 0, 48, 44
1, 328324, Control_c, 0, 64, 0
1, 328440, Note_on_c, 0, 48, 0
1, 328440, Note_on_c, 0, 52, 0
1, 328440, Note_on_c, 0, 67, 0
1, 328800, Note_on_c, 0, 67, 50
1, 328920, Note_on_c, 0, 67, 0
1, 329280, Tempo, 366211
1, 329280, Note_on_c, 0, 67, 50
1, 329400, Note_on_c, 0, 67, 0
1, 329700, Note_on_c, 0, 71, 60
1, 329760, Tempo, 353586
1, 329760, Note_on_c, 0, 71, 0
1, 329760, Note_on_c, 0, 72, 71
1, 329880, Note_on_c, 0, 72, 0
1, 330240, Note_on_c, 0, 67, 50
1, 330240, Note_on_c, 0, 52, 52
1, 330240, Note_on_c, 0, 48, 44
1, 330360, Note_on_c, 0, 48, 0
1, 330360, Note_on_c, 0, 52, 0
1, 330360, Note_on_c, 0, 67, 0
1, 330720, Note_on_c, 0, 67, 43
1, 330840, Note_on_c, 0, 67, 0
1, 331200, Tempo, 367670
1, 331200, Note_on_c, 0, 67, 43
1, 331320, Note_on_c, 0, 67, 0
1, 331680, Tempo, 348270
1, 331680, Note_on_c, 0, 64, 50
1, 331814, Control_c, 0, 64, 127
1, 332040, Tempo, 372093
1, 332040, Note_on_c, 0, 64, 0
1, 332040, Note_on_c, 0, 60, 50
1, 332160, Tempo, 350918
1, 332160, Note_on_c, 0, 60, 0
1, 332160, Note_on_c, 0, 59, 57
1, 332160, Note_on_c, 0, 43, 44
1, 332160, Note_on_c, 0, 50, 44
1, 332160, Note_on_c, 0, 53, 52
1, 332160, Control_c, 0, 64, 0
1, 332280, Note_on_c, 0, 53, 0
1, 332280, Note_on_c, 0, 59, 0
1, 332280, Note_on_c, 0, 43, 0
1, 332280, Note_on_c, 0, 50, 0
1, 332640, Note_on_c, 0, 59, 53
1, 332640, Note_on_c, 0, 50, 38
1, 332640, Note_on_c, 0, 43, 38
1, 332640, Note_on_c, 0, 53, 45
1, 332760, Note_on_c, 0, 53, 0
1, 332760, Note_on_c, 0, 59, 0
1, 332760, Note_on_c, 0, 50, 0
1, 332760, Note_on_c, 0, 43, 0
1, 333120, Tempo, 360274
1, 333120, Note_on_c, 0, 60, 57
1, 333120, Note_on_c, 0, 43, 44
1, 333120, Note_on_c, 0, 48, 44
1, 333120, Note_on_c, 0, 52, 52
1, 333240, Note_on_c, 0, 52, 0
1, 333240, Note_on_c, 0, 60, 0
1, 333240, Note_on_c, 0, 43, 0
1, 333240, Note_on_c, 0, 48, 0
1, 333600, Tempo, 428571
1, 333600, Note_on_c, 0, 60, 52
1, 333600, Note_on_c, 0, 52, 47
1, 333600, Note_on_c, 0, 43, 39
1, 333600, Note_on_c, 0, 48, 39
1, 333720, Note_on_c, 0, 48, 0
1, 333720, Note_on_c, 0, 60, 0
1, 333720, Note_on_c, 0, 52, 0
1, 333720, Note_on_c, 0, 43, 0
1, 334080, Tempo, 350918
1, 334080, Note_on_c, 0, 62, 57
1, 334080, Note_on_c, 0, 47, 44
1, 334080, Note_on_c, 0, 50, 52
1, 334080, Note_on_c, 0, 43, 44
1, 334560, Note_on_c, 0, 43, 0
1, 334560, Note_on_c, 0, 62, 0
1, 334560, Note_on_c, 0, 47, 0
1, 334560, Note_on_c, 0, 50, 0
1, 335520, Tempo, 348270
1, 335520, Note_on_c, 0, 55, 50
1, 335640, Control_c, 0, 64, 127
1, 335880, Tempo, 392054
1, 335880, Note_on_c, 0, 55, 0
1, 335880, Note_on_c, 0, 62, 47
1, 336000, Tempo, 345662
1, 336000, Note_on_c, 0, 62, 0
1, 336000, Note_on_c, 0, 65, 58
1, 336000, Note_on_c, 0, 55, 48
1, 336000, Note_on_c, 0, 47, 40
1, 336000, Control_c, 0, 64, 0
1, 336120, Note_on_c, 0, 47, 0
1, 336120, Note_on_c, 0, 55, 0
1, 336120, Note_on_c, 0, 65, 0
1, 336480, Tempo, 348270
1, 336480, Note_on_c, 0, 65, 50
1, 336607, Control_c, 0, 64, 127
1, 336840, Tempo, 410846
1, 336840, Note_on_c, 0, 65, 0
1, 336840, Note_on_c, 0, 67, 48
1, 336960, Tempo, 348270
1, 336960, Note_on_c, 0, 67, 0
1, 336960, Note_on_c, 0, 64, 58
1, 336960, Note_on_c, 0, 55, 48
1, 336960, Note_on_c, 0, 48, 40
1, 336967, Control_c, 0, 64, 0
1, 337080, Note_on_c, 0, 48, 0
1, 337080, Note_on_c, 0, 55, 0
1, 337080, Note_on_c, 0, 64, 0
1, 337440, Tempo, 345662
1, 337440, Note_on_c, 0, 64, 50
1, 337567, Control_c, 0, 64, 127
1, 337800, Tempo, 410846
1, 337800, Note_on_c, 0, 64, 0
1, 337800, Note_on_c, 0, 65, 50
1, 337920, Tempo, 344372
1, 337920, Note_on_c, 0, 65, 0
1, 337920, Note_on_c, 0, 62, 59
1, 337920, Note_on_c, 0, 55, 48
1, 337920, Note_on_c, 0, 53, 40
1, 337937, Control_c, 0, 64, 0
1, 338040, Note_on_c, 0, 53, 0
1, 338040, Note_on_c, 0, 55, 0
1, 338040, Note_on_c, 0, 62, 0
1, 338400, Tempo, 349589
1, 338400, Note_on_c, 0, 62, 50
1, 338546, Control_c, 0, 64, 127
1, 338760, Tempo, 408052
1, 338760, Note_on_c, 0, 62, 0
1, 338760, Note_on_c, 0, 64, 47
1, 338880, Tempo, 343092
1, 338880, Note_on_c, 0, 64, 0
1, 338880, Note_on_c, 0, 60, 57
1, 338880, Note_on_c, 0, 52, 38
1, 338880, Note_on_c, 0, 55, 45
1, 338892, Control_c, 0, 64, 0
1, 339000, Note_on_c, 0, 55, 0
1, 339000, Note_on_c, 0, 52, 0
1, 339000, Note_on_c, 0, 60, 0
1, 339360, Tempo, 346961
1, 339360, Note_on_c, 0, 60, 52
1, 339480, Note_on_c, 0, 60, 0
1, 339720, Tempo, 405296
1, 339840, Tempo, 345662
1, 339840, Note_on_c, 0, 62, 57
1, 339840, Note_on_c, 0, 41, 47
1, 339840, Note_on_c, 0, 53, 56
1, 339960, Note_on_c, 0, 53, 0
1, 339960, Note_on_c, 0, 41, 0
1, 339960, Note_on_c, 0, 62, 0
1, 340320, Note_on_c, 0, 62, 52
1, 340320, Note_on_c, 0, 53, 52
1, 340320, Note_on_c, 0, 41, 44
1, 340440, Note_on_c, 0, 41, 0
1, 340440, Note_on_c, 0, 53, 0
1, 340440, Note_on_c, 0, 62, 0
1, 340800, Note_on_c, 0, 59, 58
1, 340800, Note_on_c, 0, 43, 49
1, 340800, Note_on_c, 0, 50, 58
1, 340920, Note_on_c, 0, 50, 0
1, 340920, Note_on_c, 0, 43, 0
1, 340920, Note_on_c, 0, 59, 0
1, 341280, Tempo, 362450
1, 341280, Note_on_c, 0, 59, 52
1, 341280, Note_on_c, 0, 43, 44
1, 341280, Note_on_c, 0, 50, 52
1, 341400, Note_on_c, 0, 50, 0
1, 341400, Note_on_c, 0, 43, 0
1, 341400, Note_on_c, 0, 59, 0
1, 341760, Note_on_c, 0, 60, 55
1, 341771, Control_c, 0, 64, 0
1, 341827, Control_c, 0, 64, 127
1, 341920, Note_on_c, 0, 60, 0
1, 341920, Note_on_c, 0, 63, 43
1, 342080, Note_on_c, 0, 63, 0
1, 342080, Note_on_c, 0, 67, 43
1, 342240, Note_on_c, 0, 67, 0
1, 342240, Note_on_c, 0, 60, 56
1, 342400, Note_on_c, 0, 60, 0
1, 342400, Note_on_c, 0, 63, 42
1, 342560, Note_on_c, 0, 63, 0
1, 342560, Note_on_c, 0, 67, 42
1, 342720, Note_on_c, 0, 67, 0
1, 342720, Note_on_c, 0, 60, 55
1, 342880, Note_on_c, 0, 60, 0
1, 342880, Note_on_c, 0, 63, 44
1, 343040, Note_on_c, 0, 63, 0
1, 343040, Note_on_c, 0, 67, 45
1, 343200, Tempo, 349589
1, 343200, Note_on_c, 0, 67, 0
1, 343200, Note_on_c, 0, 72, 71
1, 343200, Note_on_c, 0, 60, 56
1, 343320, Note_on_c, 0, 72, 0
1, 343320, Note_on_c, 0, 74, 73
1, 343360, Note_on_c, 0, 60, 0
1, 343360, Note_on_c, 0, 63, 51
1, 343440, Note_on_c, 0, 74, 0
1, 343440, Note_on_c, 0, 75, 75
1, 343520, Note_on_c, 0, 63, 0
1, 343520, Note_on_c, 0, 67, 51
1, 343560, Tempo, 402576
1, 343560, Note_on_c, 0, 75, 0
1, 343560, Note_on_c, 0, 77, 78
1, 343680, Tempo, 354946
1, 343680, Note_on_c, 0, 77, 0
1, 343680, Note_on_c, 0, 67, 0
1, 343680, Note_on_c, 0, 79, 83
1, 343680, Note_on_c, 0, 60, 56
1, 343691, Control_c, 0, 64, 0
1, 343747, Control_c, 0, 64, 127
1, 343800, Note_on_c, 0, 79, 0
1, 343840, Note_on_c, 0, 60, 0
1, 343840, Note_on_c, 0, 63, 43
1, 344000, Note_on_c, 0, 63, 0
1, 344000, Note_on_c, 0, 67, 43
1, 344160, Note_on_c, 0, 67, 0
1, 344160, Note_on_c, 0, 79, 75
1, 344160, Note_on_c, 0, 60, 56
1, 344280, Note_on_c, 0, 79, 0
1, 344320, Note_on_c, 0, 60, 0
1, 344320, Note_on_c, 0, 63, 45
1, 344480, Note_on_c, 0, 63, 0
1, 344480, Note_on_c, 0, 67, 46
1, 344640, Tempo, 356316
1, 344640, Note_on_c, 0, 67, 0
1, 344640, Note_on_c, 0, 79, 76
1, 344640, Note_on_c, 0, 60, 55
1, 344760, Note_on_c, 0, 79, 0
1, 344800, Note_on_c, 0, 60, 0
1, 344800, Note_on_c, 0, 63, 44
1, 344960, Note_on_c, 0, 63, 0
1, 344960, Note_on_c, 0, 67, 45
1, 345060, Note_on_c, 0, 83, 78
1, 345120, Tempo, 353586
1, 345120, Note_on_c, 0, 83, 0
1, 345120, Note_on_c, 0, 67, 0
1, 345120, Note_on_c, 0, 84, 92
1, 345120, Note_on_c, 0, 60, 56
1, 345280, Note_on_c, 0, 60, 0
1, 345280, Note_on_c, 0, 63, 51
1, 345440, Note_on_c, 0, 63, 0
1, 345440, Note_on_c, 0, 67, 51
1, 345600, Note_on_c, 0, 67, 0
1, 345600, Note_on_c, 0, 84, 0
1, 345600, Note_on_c, 0, 79, 85
1, 345600, Note_on_c, 0, 60, 56
1, 345600, Control_c, 0, 64, 0
1, 345678, Control_c, 0, 64, 127
1, 345720, Note_on_c, 0, 79, 0
1, 345760, Note_on_c, 0, 60, 0
1, 345760, Note_on_c, 0, 63, 41
1, 345920, Note_on_c, 0, 63, 0
1, 345920, Note_on_c, 0, 67, 41
1, 346080, Note_on_c, 0, 67, 0
1, 346080, Note_on_c, 0, 79, 74
1, 346080, Note_on_c, 0, 60, 56
1, 346200, Note_on_c, 0, 79, 0
1, 346240, Note_on_c, 0, 60, 0
1, 346240, Note_on_c, 0, 63, 44
1, 346400, Note_on_c, 0, 63, 0
1, 346400, Note_on_c, 0, 67, 44
1, 346560, Tempo, 356316
1, 346560, Note_on_c, 0, 67, 0
1, 346560, Note_on_c, 0, 79, 74
1, 346560, Note_on_c, 0, 60, 56
1, 346680, Note_on_c, 0, 79, 0
1, 346720, Note_on_c, 0, 60, 0
1, 346720, Note_on_c, 0, 63, 44
1, 346880, Note_on_c, 0, 63, 0
1, 346880, Note_on_c, 0, 67, 45
1, 346920, Tempo, 415110
1, 347040, Tempo, 348270
1, 347040, Note_on_c, 0, 67, 0
1, 347040, Note_on_c, 0, 72, 71
1, 347040, Note_on_c, 0, 60, 56
1, 347160, Note_on_c, 0, 72, 0
1, 347160, Note_on_c, 0, 74, 73
1, 347200, Note_on_c, 0, 60, 0
1, 347200, Note_on_c, 0, 63, 44
1, 347280, Note_on_c, 0, 74, 0
1, 347280, Note_on_c, 0, 75, 75
1, 347360, Note_on_c, 0, 63, 0
1, 347360, Note_on_c, 0, 67, 44
1, 347400, Tempo, 372093
1, 347400, Note_on_c, 0, 75, 0
1, 347400, Note_on_c, 0, 77, 78
1, 347520, Tempo, 354946
1, 347520, Note_on_c, 0, 77, 0
1, 347520, Note_on_c, 0, 67, 0
1, 347520, Note_on_c, 0, 79, 83
1, 347520, Note_on_c, 0, 58, 56
1, 347531, Control_c, 0, 64, 0
1, 347630, Control_c, 0, 64, 127
1, 347640, Note_on_c, 0, 79, 0
1, 347680, Note_on_c, 0, 58, 0
1, 347680, Note_on_c, 0, 64, 43
1, 347840, Note_on_c, 0, 64, 0
1, 347840, Note_on_c, 0, 67, 43
1, 348000, Note_on_c, 0, 67, 0
1, 348000, Note_on_c, 0, 79, 75
1, 348000, Note_on_c, 0, 58, 56
1, 348120, Note_on_c, 0, 79, 0
1, 348160, Note_on_c, 0, 58, 0
1, 348160, Note_on_c, 0, 64, 45
1, 348320, Note_on_c, 0, 64, 0
1, 348320, Note_on_c, 0, 67, 46
1, 348480, Tempo, 356316
1, 348480, Note_on_c, 0, 67, 0
1, 348480, Note_on_c, 0, 79, 76
1, 348480, Note_on_c, 0, 58, 55
1, 348600, Note_on_c, 0, 79, 0
1, 348640, Note_on_c, 0, 58, 0
1, 348640, Note_on_c, 0, 64, 44
1, 348800, Note_on_c, 0, 64, 0
1, 348800, Note_on_c, 0, 67, 45
1, 348900, Note_on_c, 0, 83, 78
1, 348960, Tempo, 353586
1, 348960, Note_on_c, 0, 83, 0
1, 348960, Note_on_c, 0, 67, 0
1, 348960, Note_on_c, 0, 84, 92
1, 348960, Note_on_c, 0, 58, 56
1, 349120, Note_on_c, 0, 58, 0
1, 349120, Note_on_c, 0, 64, 51
1, 349280, Note_on_c, 0, 64, 0
1, 349280, Note_on_c, 0, 67, 51
1, 349440, Note_on_c, 0, 67, 0
1, 349440, Note_on_c, 0, 84, 0
1, 349440, Note_on_c, 0, 79, 85
1, 349440, Note_on_c, 0, 58, 56
1, 349440, Control_c, 0, 64, 0
1, 349543, Control_c, 0, 64, 127
1, 349560, Note_on_c, 0, 79, 0
1, 349600, Note_on_c, 0, 58, 0
1, 349600, Note_on_c, 0, 64, 41
1, 349760, Note_on_c, 0, 64, 0
1, 349760, Note_on_c, 0, 67, 41
1, 349920, Note_on_c, 0, 67, 0
1, 349920, Note_on_c, 0, 79, 74
1, 349920, Note_on_c, 0, 58, 56
1, 350040, Note_on_c, 0, 79, 0
1, 350080, Note_on_c, 0, 58, 0
1, 350080, Note_on_c, 0, 64, 44
1, 350240, Note_on_c, 0, 64, 0
1, 350240, Note_on_c, 0, 67, 44
1, 350400, Tempo, 356316
1, 350400, Note_on_c, 0, 67, 0
1, 350400, Note_on_c, 0, 79, 74
1, 350400, Note_on_c, 0, 58, 56
1, 350520, Note_on_c, 0, 79, 0
1, 350560, Note_on_c, 0, 58, 0
1, 350560, Note_on_c, 0, 64, 44
1, 350720, Note_on_c, 0, 64, 0
1, 350720, Note_on_c, 0, 67, 45
1, 350760, Tempo, 415110
1, 350880, Tempo, 348270
1, 350880, Note_on_c, 0, 67, 0
1, 350880, Note_on_c, 0, 73, 71
1, 350880, Note_on_c, 0, 58, 56
1, 351000, Note_on_c, 0, 73, 0
1, 351000, Note_on_c, 0, 74, 73
1, 351040, Note_on_c, 0, 58, 0
1, 351040, Note_on_c, 0, 64, 44
1, 351120, Note_on_c, 0, 74, 0
1, 351120, Note_on_c, 0, 76, 75
1, 351200, Note_on_c, 0, 64, 0
1, 351200, Note_on_c, 0, 67, 44
1, 351240, Tempo, 372093
1, 351240, Note_on_c, 0, 76, 0
1, 351240, Note_on_c, 0, 77, 78
1, 351360, Tempo, 353586
1, 351360, Note_on_c, 0, 77, 0
1, 351360, Note_on_c, 0, 67, 0
1, 351360, Note_on_c, 0, 79, 85
1, 351360, Note_on_c, 0, 57, 50
1, 351360, Control_c, 0, 64, 0
1, 351438, Control_c, 0, 64, 127
1, 351480, Note_on_c, 0, 79, 0
1, 351520, Note_on_c, 0, 57, 0
1, 351520, Note_on_c, 0, 64, 38
1, 351680, Note_on_c, 0, 64, 0
1, 351680, Note_on_c, 0, 67, 38
1, 351840, Note_on_c, 0, 67, 0
1, 351840, Note_on_c, 0, 79, 76
1, 351840, Note_on_c, 0, 57, 50
1, 351960, Note_on_c, 0, 79, 0
1, 352000, Note_on_c, 0, 57, 0
1, 352000, Note_on_c, 0, 64, 39
1, 352160, Note_on_c, 0, 64, 0
1, 352160, Note_on_c, 0, 67, 39
1, 352320, Tempo, 356316
1, 352320, Note_on_c, 0, 67, 0
1, 352320, Note_on_c, 0, 79, 76
1, 352320, Note_on_c, 0, 57, 50
1, 352440, Note_on_c, 0, 79, 0
1, 352480, Note_on_c, 0, 57, 0
1, 352480, Note_on_c, 0, 64, 39
1, 352640, Note_on_c, 0, 64, 0
1, 352640, Note_on_c, 0, 67, 40
1, 352680, Tempo, 415110
1, 352800, Tempo, 348270
1, 352800, Note_on_c, 0, 67, 0
1, 352800, Note_on_c, 0, 79, 80
1, 352800, Note_on_c, 0, 57, 50
1, 352960, Note_on_c, 0, 57, 0
1, 352960, Note_on_c, 0, 79, 0
1, 352960, Note_on_c, 0, 85, 73
1, 352960, Note_on_c, 0, 64, 39
1, 353120, Note_on_c, 0, 64, 0
1, 353120, Note_on_c, 0, 85, 0
1, 353120, Note_on_c, 0, 88, 73
1, 353120, Note_on_c, 0, 67, 39
1, 353160, Tempo, 372093
1, 353280, Tempo, 353586
1, 353280, Note_on_c, 0, 67, 0
1, 353280, Note_on_c, 0, 88, 0
1, 353280, Note_on_c, 0, 77, 85
1, 353280, Note_on_c, 0, 57, 50
1, 353280, Control_c, 0, 64, 0
1, 353379, Control_c, 0, 64, 127
1, 353400, Note_on_c, 0, 77, 0
1, 353440, Note_on_c, 0, 57, 0
1, 353440, Note_on_c, 0, 62, 36
1, 353600, Note_on_c, 0, 62, 0
1, 353600, Note_on_c, 0, 65, 36
1, 353760, Note_on_c, 0, 65, 0
1, 353760, Note_on_c, 0, 77, 74
1, 353760, Note_on_c, 0, 57, 50
1, 353880, Note_on_c, 0, 77, 0
1, 353920, Note_on_c, 0, 57, 0
1, 353920, Note_on_c, 0, 62, 39
1, 354080, Note_on_c, 0, 62, 0
1, 354080, Note_on_c, 0, 65, 39
1, 354240, Tempo, 356316
1, 354240, Note_on_c, 0, 65, 0
1, 354240, Note_on_c, 0, 77, 74
1, 354240, Note_on_c, 0, 57, 50
1, 354360, Note_on_c, 0, 77, 0
1, 354400, Note_on_c, 0, 57, 0
1, 354400, Note_on_c, 0, 62, 39
1, 354560, Note_on_c, 0, 62, 0
1, 354560, Note_on_c, 0, 65, 40
1, 354600, Tempo, 415110
1, 354720, Tempo, 348270
1, 354720, Note_on_c, 0, 65, 0
1, 354720, Note_on_c, 0, 77, 80
1, 354720, Note_on_c, 0, 57, 50
1, 354880, Note_on_c, 0, 57, 0
1, 354880, Note_on_c, 0, 77, 0
1, 354880, Note_on_c, 0, 81, 73
1, 354880, Note_on_c, 0, 62, 39
1, 355040, Note_on_c, 0, 62, 0
1, 355040, Note_on_c, 0, 81, 0
1, 355040, Note_on_c, 0, 86, 73
1, 355040, Note_on_c, 0, 65, 39
1, 355080, Tempo, 372093
1, 355200, Tempo, 345662
1, 355200, Note_on_c, 0, 65, 0
1, 355200, Note_on_c, 0, 86, 0
1, 355200, Note_on_c, 0, 77, 75
1, 355200, Note_on_c, 0, 55, 50
1, 355200, Control_c, 0, 64, 0
1, 355334, Control_c, 0, 64, 127
1, 355360, Note_on_c, 0, 55, 0
1, 355360, Note_on_c, 0, 59, 38
1, 355520, Note_on_c, 0, 59, 0
1, 355520, Note_on_c, 0, 62, 40
1, 355680, Tempo, 348270
1, 355680, Note_on_c, 0, 62, 0
1, 355680, Note_on_c, 0, 77, 0
1, 355680, Note_on_c, 0, 77, 69
1, 355680, Note_on_c, 0, 55, 50
1, 355840, Note_on_c, 0, 55, 0
1, 355840, Note_on_c, 0, 59, 40
1, 356000, Note_on_c, 0, 59, 0
1, 356000, Note_on_c, 0, 62, 40
1, 356040, Tempo, 405296
1, 356040, Note_on_c, 0, 77, 0
1, 356040, Note_on_c, 0, 79, 65
1, 356160, Tempo, 348270
1, 356160, Note_on_c, 0, 79, 0
1, 356160, Note_on_c, 0, 62, 0
1, 356160, Note_on_c, 0, 76, 75
1, 356160, Note_on_c, 0, 55, 50
1, 356174, Control_c, 0, 64, 0
1, 356257, Control_c, 0, 64, 127
1, 356280, Note_on_c, 0, 76, 0
1, 356320, Note_on_c, 0, 55, 0
1, 356320, Note_on_c, 0, 60, 38
1, 356480, Note_on_c, 0, 60, 0
1, 356480, Note_on_c, 0, 64, 39
1, 356640, Tempo, 345662
1, 356640, Note_on_c, 0, 64, 0
1, 356640, Note_on_c, 0, 76, 75
1, 356640, Note_on_c, 0, 55, 50
1, 356800, Note_on_c, 0, 55, 0
1, 356800, Note_on_c, 0, 60, 41
1, 356960, Note_on_c, 0, 60, 0
1, 356960, Note_on_c, 0, 64, 41
1, 357000, Tempo, 402576
1, 357000, Note_on_c, 0, 76, 0
1, 357000, Note_on_c, 0, 77, 70
1, 357120, Tempo, 345662
1, 357120, Note_on_c, 0, 77, 0
1, 357120, Note_on_c, 0, 64, 0
1, 357120, Note_on_c, 0, 74, 75
1, 357120, Note_on_c, 0, 55, 50
1, 357120, Control_c, 0, 64, 0
1, 357240, Note_on_c, 0, 74, 0
1, 357254, Control_c, 0, 64, 127
1, 357280, Note_on_c, 0, 55, 0
1, 357280, Note_on_c, 0, 62, 38
1, 357440, Note_on_c, 0, 62, 0
1, 357440, Note_on_c, 0, 65, 40
1, 357600, Tempo, 348270
1, 357600, Note_on_c, 0, 65, 0
1, 357600, Note_on_c, 0, 74, 69
1, 357600, Note_on_c, 0, 55, 50
1, 357760, Note_on_c, 0, 55, 0
1, 357760, Note_on_c, 0, 62, 40
1, 357920, Note_on_c, 0, 62, 0
1, 357920, Note_on_c, 0, 65, 40
1, 357960, Tempo, 405296
1, 357960, Note_on_c, 0, 74, 0
1, 357960, Note_on_c, 0, 76, 65
1, 358080, Tempo, 348270
1, 358080, Note_on_c, 0, 76, 0
1, 358080, Note_on_c, 0, 65, 0
1, 358080, Note_on_c, 0, 72, 75
1, 358080, Note_on_c, 0, 55, 50
1, 358094, Control_c, 0, 64, 0
1, 358200, Note_on_c, 0, 72, 0
1, 358228, Control_c, 0, 64, 127
1, 358240, Note_on_c, 0, 55, 0
1, 358240, Note_on_c, 0, 60, 43
1, 358400, Note_on_c, 0, 60, 0
1, 358400, Note_on_c, 0, 64, 44
1, 358560, Tempo, 353586
1, 358560, Note_on_c, 0, 64, 0
1, 358560, Note_on_c, 0, 72, 57
1, 358560, Note_on_c, 0, 55, 39
1, 358720, Note_on_c, 0, 55, 0
1, 358720, Note_on_c, 0, 72, 0
1, 358720, Note_on_c, 0, 76, 52
1, 358720, Note_on_c, 0, 60, 35
1, 358880, Note_on_c, 0, 60, 0
1, 358880, Note_on_c, 0, 76, 0
1, 358880, Note_on_c, 0, 79, 53
1, 358880, Note_on_c, 0, 64, 35
1, 359040, Tempo, 345662
1, 359040, Note_on_c, 0, 64, 0
1, 359040, Note_on_c, 0, 79, 0
1, 359040, Note_on_c, 0, 77, 57
1, 359040, Note_on_c, 0, 55, 39
1, 359040, Control_c, 0, 64, 0
1, 359174, Control_c, 0, 64, 127
1, 359200, Note_on_c, 0, 55, 0
1, 359200, Note_on_c, 0, 59, 30
1, 359280, Note_on_c, 0, 77, 0
1, 359280, Note_on_c, 0, 79, 57
1, 359360, Note_on_c, 0, 79, 0
1, 359360, Note_on_c, 0, 59, 0
1, 359360, Note_on_c, 0, 77, 49
1, 359360, Note_on_c, 0, 62, 31
1, 359440, Note_on_c, 0, 77, 0
1, 359440, Note_on_c, 0, 76, 49
1, 359520, Tempo, 348270
1, 359520, Note_on_c, 0, 76, 0
1, 359520, Note_on_c, 0, 62, 0
1, 359520, Note_on_c, 0, 77, 52
1, 359520, Note_on_c, 0, 55, 39
1, 359680, Note_on_c, 0, 55, 0
1, 359680, Note_on_c, 0, 59, 31
1, 359840, Note_on_c, 0, 59, 0
1, 359840, Note_on_c, 0, 62, 31
1, 359880, Tempo, 405296
1, 359880, Note_on_c, 0, 77, 0
1, 359880, Note_on_c, 0, 79, 49
1, 360000, Tempo, 348270
1, 360000, Note_on_c, 0, 79, 0
1, 360000, Note_on_c, 0, 62, 0
1, 360000, Note_on_c, 0, 76, 57
1, 360000, Note_on_c, 0, 55, 39
1, 360014, Control_c, 0, 64, 0
1, 360148, Control_c, 0, 64, 127
1, 360160, Note_on_c, 0, 55, 0
1, 360160, Note_on_c, 0, 60, 30
1, 360240, Note_on_c, 0, 76, 0
1, 360240, Note_on_c, 0, 77, 57
1, 360320, Note_on_c, 0, 77, 0
1, 360320, Note_on_c, 0, 60, 0
1, 360320, Note_on_c, 0, 76, 50
1, 360320, Note_on_c, 0, 64, 30
1, 360400, Note_on_c, 0, 76, 0
1, 360400, Note_on_c, 0, 74, 50
1, 360480, Tempo, 345662
1, 360480, Note_on_c, 0, 74, 0
1, 360480, Note_on_c, 0, 64, 0
1, 360480, Note_on_c, 0, 76, 57
1, 360480, Note_on_c, 0, 55, 39
1, 360640, Note_on_c, 0, 55, 0
1, 360640, Note_on_c, 0, 60, 32
1, 360800, Note_on_c, 0, 60, 0
1, 360800, Note_on_c, 0, 64, 32
1, 360840, Tempo, 402576
1, 360840, Note_on_c, 0, 76, 0
1, 360840, Note_on_c, 0, 77, 53
1, 360960, Tempo, 345662
1, 360960, Note_on_c, 0, 77, 0
1, 360960, Note_on_c, 0, 64, 0
1, 360960, Note_on_c, 0, 74, 57
1, 360960, Note_on_c, 0, 55, 39
1, 360960, Control_c, 0, 64, 0
1, 361094, Control_c, 0, 64, 127
1, 361120, Note_on_c, 0, 55, 0
1, 361120, Note_on_c, 0, 62, 30
1, 361200, Note_on_c, 0, 74, 0
1, 361200, Note_on_c, 0, 76, 61
1, 361280, Note_on_c, 0, 76, 0
1, 361280, Note_on_c, 0, 62, 0
1, 361280, Note_on_c, 0, 74, 53
1, 361280, Note_on_c, 0, 65, 31
1, 361360, Note_on_c, 0, 74, 0
1, 361360, Note_on_c, 0, 72, 53
1, 361440, Tempo, 348270
1, 361440, Note_on_c, 0, 72, 0
1, 361440, Note_on_c, 0, 65, 0
1, 361440, Note_on_c, 0, 74, 53
1, 361440, Note_on_c, 0, 55, 45
1, 361600, Note_on_c, 0, 55, 0
1, 361600, Note_on_c, 0, 62, 36
1, 361760, Note_on_c, 0, 62, 0
1, 361760, Note_on_c, 0, 65, 36
1, 361800, Tempo, 405296
1, 361800, Note_on_c, 0, 74, 0
1, 361800, Note_on_c, 0, 76, 55
1, 361920, Tempo, 348270
1, 361920, Note_on_c, 0, 76, 0
1, 361920, Note_on_c, 0, 65, 0
1, 361920, Note_on_c, 0, 72, 65
1, 361920, Note_on_c, 0, 55, 50
1, 361934, Control_c, 0, 64, 0
1, 362026, Control_c, 0, 64, 127
1, 362080, Note_on_c, 0, 55, 0
1, 362080, Note_on_c, 0, 60, 38
1, 362160, Note_on_c, 0, 72, 0
1, 362160, Note_on_c, 0, 74, 61
1, 362240, Note_on_c, 0, 74, 0
1, 362240, Note_on_c, 0, 60, 0
1, 362240, Note_on_c, 0, 72, 55
1, 362240, Note_on_c, 0, 64, 38
1, 362320, Note_on_c, 0, 72, 0
1, 362320, Note_on_c, 0, 71, 56
1, 362400, Note_on_c, 0, 71, 0
1, 362400, Note_on_c, 0, 64, 0
1, 362400, Note_on_c, 0, 72, 57
1, 362400, Note_on_c, 0, 55, 54
1, 362560, Note_on_c, 0, 55, 0
1, 362560, Note_on_c, 0, 60, 43
1, 362720, Note_on_c, 0, 60, 0
1, 362720, Note_on_c, 0, 64, 44
1, 362760, Note_on_c, 0, 72, 0
1, 362760, Note_on_c, 0, 74, 61
1, 362880, Note_on_c, 0, 74, 0
1, 362880, Note_on_c, 0, 64, 0
1, 362880, Note_on_c, 0, 71, 74
1, 362880, Note_on_c, 0, 55, 58
1, 362883, Control_c, 0, 64, 0
1, 363360, Tempo, 382068
1, 363360, Note_on_c, 0, 55, 0
1, 363360, Note_on_c, 0, 71, 0
1, 363720, Note_on_c, 0, 67, 68
1, 363720, Note_on_c, 0, 55, 62
1, 363798, Control_c, 0, 64, 127
1, 363840, Note_on_c, 0, 55, 0
1, 363840, Note_on_c, 0, 67, 0
1, 363840, Note_on_c, 0, 71, 79
1, 363840, Note_on_c, 0, 59, 68
1, 364200, Note_on_c, 0, 59, 0
1, 364200, Note_on_c, 0, 71, 0
1, 364200, Note_on_c, 0, 67, 68
1, 364200, Note_on_c, 0, 55, 62
1, 364320, Note_on_c, 0, 55, 0
1, 364320, Note_on_c, 0, 67, 0
1, 364320, Note_on_c, 0, 74, 74
1, 364320, Note_on_c, 0, 62, 68
1, 364680, Tempo, 444313
1, 364680, Note_on_c, 0, 62, 0
1, 364680, Note_on_c, 0, 74, 0
1, 364680, Note_on_c, 0, 71, 68
1, 364680, Note_on_c, 0, 59, 64
1, 364765, Control_c, 0, 64, 0
1, 364800, Tempo, 380856
1, 364800, Note_on_c, 0, 59, 0
1, 364800, Note_on_c, 0, 71, 0
1, 364800, Note_on_c, 0, 79, 86
1, 364800, Note_on_c, 0, 67, 80
1, 364800, Control_c, 0, 64, 127
1, 365257, Control_c, 0, 64, 0
1, 365280, Note_on_c, 0, 67, 0
1, 365280, Note_on_c, 0, 79, 0
1, 365640, Note_on_c, 0, 55, 66
1, 365640, Note_on_c, 0, 43, 62
1, 365737, Control_c, 0, 64, 127
1, 365760, Note_on_c, 0, 43, 0
1, 365760, Note_on_c, 0, 55, 0
1, 365760, Note_on_c, 0, 59, 77
1, 365760, Note_on_c, 0, 47, 71
1, 365920, Note_on_c, 0, 47, 0
1, 365920, Note_on_c, 0, 59, 0
1, 365920, Note_on_c, 0, 55, 69
1, 365920, Note_on_c, 0, 43, 62
1, 366080, Note_on_c, 0, 43, 0
1, 366080, Note_on_c, 0, 55, 0
1, 366080, Note_on_c, 0, 59, 69
1, 366080, Note_on_c, 0, 47, 62
1, 366240, Note_on_c, 0, 47, 0
1, 366240, Note_on_c, 0, 59, 0
1, 366240, Note_on_c, 0, 62, 80
1, 366240, Note_on_c, 0, 50, 68
1, 366400, Note_on_c, 0, 50, 0
1, 366400, Note_on_c, 0, 62, 0
1, 366400, Note_on_c, 0, 59, 70
1, 366400, Note_on_c, 0, 47, 64
1, 366560, Note_on_c, 0, 47, 0
1, 366560, Note_on_c, 0, 59, 0
1, 366560, Note_on_c, 0, 62, 70
1, 366560, Note_on_c, 0, 50, 64
1, 366600, Tempo, 444313
1, 366720, Tempo, 380856
1, 366720, Note_on_c, 0, 50, 0
1, 366720, Note_on_c, 0, 62, 0
1, 366720, Note_on_c, 0, 67, 84
1, 366720, Note_on_c, 0, 55, 74
1, 366720, Control_c, 0, 64, 0
1, 367014, Control_c, 0, 64, 127
1, 367200, Note_on_c, 0, 55, 0
1, 367200, Note_on_c, 0, 67, 0
1, 367327, Control_c, 0, 64, 0
1, 367680, Note_on_c, 0, 43, 95
1, 367680, Note_on_c, 0, 31, 84
1, 367850, Control_c, 0, 64, 127
1, 368400, Note_on_c, 0, 31, 0
1, 368400, Note_on_c, 0, 43, 0
1, 368400, Note_on_c, 0, 43, 89
1, 368400, Note_on_c, 0, 31, 78
1, 368640, Note_on_c, 0, 31, 0
1, 368640, Note_on_c, 0, 43, 0
1, 368640, Note_on_c, 0, 43, 97
1, 368640, Note_on_c, 0, 31, 84
1, 369120, Note_on_c, 0, 31, 0
1, 369120, Note_on_c, 0, 43, 0
1, 369254, Control_c, 0, 64, 0
1, 370560, Tempo, 354946
1, 370560, Note_on_c, 0, 52, 45
1, 370560, Control_c, 0, 64, 0
1, 370680, Control_c, 0, 64, 127
1, 370720, Note_on_c, 0, 52, 0
1, 370723, Note_on_c, 0, 55, 36
1, 370880, Note_on_c, 0, 60, 36
1, 370883, Note_on_c, 0, 55, 0
1, 371040, Note_on_c, 0, 60, 0
1, 371040, Note_on_c, 0, 52, 45
1, 371200, Note_on_c, 0, 52, 0
1, 371203, Note_on_c, 0, 55, 38
1, 371360, Note_on_c, 0, 60, 38
1, 371363, Note_on_c, 0, 55, 0
1, 371520, Tempo, 356316
1, 371520, Note_on_c, 0, 60, 0
1, 371520, Note_on_c, 0, 52, 45
1, 371680, Note_on_c, 0, 52, 0
1, 371683, Note_on_c, 0, 55, 36
1, 371840, Note_on_c, 0, 60, 36
1, 371843, Note_on_c, 0, 55, 0
1, 372000, Tempo, 353586
1, 372000, Note_on_c, 0, 60, 0
1, 372000, Note_on_c, 0, 69, 57
1, 372000, Note_on_c, 0, 53, 45
1, 372014, Control_c, 0, 64, 0
1, 372120, Note_on_c, 0, 69, 0
1, 372120, Note_on_c, 0, 67, 50
1, 372120, Control_c, 0, 64, 127
1, 372160, Note_on_c, 0, 53, 0
1, 372160, Note_on_c, 0, 55, 36
1, 372240, Note_on_c, 0, 67, 0
1, 372240, Note_on_c, 0, 66, 50
1, 372320, Note_on_c, 0, 55, 0
1, 372320, Note_on_c, 0, 59, 37
1, 372360, Note_on_c, 0, 66, 0
1, 372360, Note_on_c, 0, 67, 50
1, 372480, Note_on_c, 0, 67, 0
1, 372480, Note_on_c, 0, 59, 0
1, 372480, Note_on_c, 0, 72, 63
1, 372480, Note_on_c, 0, 52, 45
1, 372493, Control_c, 0, 64, 0
1, 372600, Note_on_c, 0, 72, 0
1, 372623, Control_c, 0, 64, 127
1, 372635, Note_on_c, 0, 55, 36
1, 372640, Note_on_c, 0, 52, 0
1, 372795, Note_on_c, 0, 55, 0
1, 372800, Note_on_c, 0, 60, 36
1, 372960, Note_on_c, 0, 60, 0
1, 372960, Note_on_c, 0, 72, 53
1, 372960, Note_on_c, 0, 52, 45
1, 373080, Note_on_c, 0, 72, 0
1, 373115, Note_on_c, 0, 55, 38
1, 373120, Note_on_c, 0, 52, 0
1, 373275, Note_on_c, 0, 55, 0
1, 373280, Note_on_c, 0, 60, 39
1, 373440, Tempo, 356316
1, 373440, Note_on_c, 0, 60, 0
1, 373440, Note_on_c, 0, 52, 46
1, 373600, Note_on_c, 0, 52, 0
1, 373600, Note_on_c, 0, 55, 37
1, 373760, Note_on_c, 0, 55, 0
1, 373760, Note_on_c, 0, 60, 37
1, 373920, Tempo, 353586
1, 373920, Note_on_c, 0, 60, 0
1, 373920, Note_on_c, 0, 69, 60
1, 373920, Note_on_c, 0, 53, 47
1, 373923, Control_c, 0, 64, 0
1, 374017, Control_c, 0, 64, 127
1, 374040, Note_on_c, 0, 69, 0
1, 374040, Note_on_c, 0, 67, 53
1, 374080, Note_on_c, 0, 53, 0
1, 374080, Note_on_c, 0, 55, 38
1, 374160, Note_on_c, 0, 67, 0
1, 374160, Note_on_c, 0, 66, 53
1, 374240, Note_on_c, 0, 55, 0
1, 374240, Note_on_c, 0, 59, 39
1, 374280, Note_on_c, 0, 66, 0
1, 374280, Note_on_c, 0, 67, 53
1, 374400, Tempo, 354946
1, 374400, Note_on_c, 0, 67, 0
1, 374400, Note_on_c, 0, 59, 0
1, 374400, Note_on_c, 0, 72, 68
1, 374400, Note_on_c, 0, 52, 48
1, 374405, Control_c, 0, 64, 0
1, 374520, Note_on_c, 0, 72, 0
1, 374532, Control_c, 0, 64, 127
1, 374560, Note_on_c, 0, 52, 0
1, 374560, Note_on_c, 0, 55, 38
1, 374720, Note_on_c, 0, 55, 0
1, 374720, Note_on_c, 0, 60, 39
1, 374880, Note_on_c, 0, 60, 0
1, 374880, Note_on_c, 0, 72, 57
1, 374880, Note_on_c, 0, 52, 49
1, 375000, Note_on_c, 0, 72, 0
1, 375040, Note_on_c, 0, 52, 0
1, 375040, Note_on_c, 0, 55, 41
1, 375200, Note_on_c, 0, 55, 0
1, 375200, Note_on_c, 0, 60, 42
1, 375360, Tempo, 356316
1, 375360, Note_on_c, 0, 60, 0
1, 375360, Note_on_c, 0, 52, 50
1, 375520, Note_on_c, 0, 52, 0
1, 375520, Note_on_c, 0, 55, 40
1, 375680, Note_on_c, 0, 55, 0
1, 375680, Note_on_c, 0, 60, 40
1, 375840, Tempo, 353586
1, 375840, Note_on_c, 0, 60, 0
1, 375840, Note_on_c, 0, 69, 64
1, 375840, Note_on_c, 0, 53, 51
1, 375851, Control_c, 0, 64, 0
1, 375943, Control_c, 0, 64, 127
1, 375960, Note_on_c, 0, 69, 0
1, 375960, Note_on_c, 0, 67, 57
1, 376000, Note_on_c, 0, 53, 0
1, 376000, Note_on_c, 0, 55, 41
1, 376080, Note_on_c, 0, 67, 0
1, 376080, Note_on_c, 0, 66, 57
1, 376160, Note_on_c, 0, 55, 0
1, 376160, Note_on_c, 0, 59, 42
1, 376200, Note_on_c, 0, 66, 0
1, 376200, Note_on_c, 0, 67, 57
1, 376320, Tempo, 354946
1, 376320, Note_on_c, 0, 67, 0
1, 376320, Note_on_c, 0, 59, 0
1, 376320, Note_on_c, 0, 72, 73
1, 376320, Note_on_c, 0, 52, 52
1, 376320, Control_c, 0, 64, 0
1, 376447, Control_c, 0, 64, 127
1, 376480, Note_on_c, 0, 52, 0
1, 376480, Note_on_c, 0, 55, 41
1, 376640, Note_on_c, 0, 55, 0
1, 376640, Note_on_c, 0, 60, 42
1, 376800, Note_on_c, 0, 60, 0
1, 376800, Note_on_c, 0, 72, 0
1, 376800, Note_on_c, 0, 74, 78
1, 376800, Note_on_c, 0, 52, 54
1, 376920, Note_on_c, 0, 74, 0
1, 376920, Note_on_c, 0, 72, 65
1, 376960, Note_on_c, 0, 52, 0
1, 376960, Note_on_c, 0, 55, 45
1, 377040, Note_on_c, 0, 72, 0
1, 377040, Note_on_c, 0, 71, 66
1, 377120, Note_on_c, 0, 55, 0
1, 377120, Note_on_c, 0, 60, 46
1, 377160, Note_on_c, 0, 71, 0
1, 377160, Note_on_c, 0, 72, 66
1, 377280, Tempo, 356316
1, 377280, Note_on_c, 0, 72, 0
1, 377280, Note_on_c, 0, 60, 0
1, 377280, Note_on_c, 0, 74, 80
1, 377280, Note_on_c, 0, 47, 61
1, 377288, Control_c, 0, 64, 0
1, 377414, Control_c, 0, 64, 127
1, 377440, Note_on_c, 0, 47, 0
1, 377440, Note_on_c, 0, 50, 51
1, 377600, Note_on_c, 0, 50, 0
1, 377600, Note_on_c, 0, 55, 52
1, 377760, Tempo, 353586
1, 377760, Note_on_c, 0, 55, 0
1, 377760, Note_on_c, 0, 74, 0
1, 377760, Note_on_c, 0, 76, 82
1, 377760, Note_on_c, 0, 47, 62
1, 377880, Note_on_c, 0, 76, 0
1, 377880, Note_on_c, 0, 74, 68
1, 377920, Note_on_c, 0, 47, 0
1, 377920, Note_on_c, 0, 50, 52
1, 378000, Note_on_c, 0, 74, 0
1, 378000, Note_on_c, 0, 72, 68
1, 378080, Note_on_c, 0, 50, 0
1, 378080, Note_on_c, 0, 55, 52
1, 378120, Note_on_c, 0, 72, 0
1, 378120, Note_on_c, 0, 74, 69
1, 378240, Tempo, 354946
1, 378240, Note_on_c, 0, 74, 0
1, 378240, Note_on_c, 0, 55, 0
1, 378240, Note_on_c, 0, 76, 85
1, 378240, Note_on_c, 0, 48, 65
1, 378247, Control_c, 0, 64, 0
1, 378396, Control_c, 0, 64, 127
1, 378400, Note_on_c, 0, 48, 0
1, 378400, Note_on_c, 0, 52, 54
1, 378560, Note_on_c, 0, 52, 0
1, 378560, Note_on_c, 0, 55, 52
1, 378720, Note_on_c, 0, 55, 0
1, 378720, Note_on_c, 0, 76, 0
1, 378720, Note_on_c, 0, 77, 86
1, 378720, Note_on_c, 0, 48, 69
1, 378840, Note_on_c, 0, 77, 0
1, 378840, Note_on_c, 0, 76, 75
1, 378880, Note_on_c, 0, 48, 0
1, 378880, Note_on_c, 0, 52, 52
1, 378960, Note_on_c, 0, 76, 0
1, 378960, Note_on_c, 0, 74, 75
1, 379040, Note_on_c, 0, 52, 0
1, 379040, Note_on_c, 0, 55, 54
1, 379080, Note_on_c, 0, 74, 0
1, 379080, Note_on_c, 0, 76, 76
1, 379200, Tempo, 356316
1, 379200, Note_on_c, 0, 76, 0
1, 379200, Note_on_c, 0, 55, 0
1, 379200, Note_on_c, 0, 77, 85
1, 379200, Note_on_c, 0, 50, 66
1, 379206, Control_c, 0, 64, 0
1, 379356, Control_c, 0, 64, 127
1, 379360, Note_on_c, 0, 50, 0
1, 379360, Note_on_c, 0, 53, 56
1, 379520, Note_on_c, 0, 53, 0
1, 379520, Note_on_c, 0, 59, 56
1, 379680, Tempo, 362450
1, 379680, Note_on_c, 0, 59, 0
1, 379680, Note_on_c, 0, 77, 0
1, 379680, Note_on_c, 0, 79, 87
1, 379680, Note_on_c, 0, 50, 71
1, 379800, Note_on_c, 0, 79, 0
1, 379800, Note_on_c, 0, 77, 75
1, 379840, Note_on_c, 0, 50, 0
1, 379840, Note_on_c, 0, 53, 58
1, 379920, Note_on_c, 0, 77, 0
1, 379920, Note_on_c, 0, 76, 78
1, 380000, Note_on_c, 0, 53, 0
1, 380000, Note_on_c, 0, 59, 59
1, 380040, Tempo, 437828
1, 380040, Note_on_c, 0, 76, 0
1, 380040, Note_on_c, 0, 77, 76
1, 380160, Tempo, 361359
1, 380160, Note_on_c, 0, 77, 0
1, 380160, Note_on_c, 0, 59, 0
1, 380160, Note_on_c, 0, 79, 98
1, 380160, Note_on_c, 0, 52, 74
1, 380160, Control_c, 0, 64, 0
1, 380301, Control_c, 0, 64, 127
1, 380319, Note_on_c, 0, 55, 60
1, 380320, Note_on_c, 0, 52, 0
1, 380478, Note_on_c, 0, 60, 61
1, 380479, Note_on_c, 0, 55, 0
1, 380637, Note_on_c, 0, 52, 73
1, 380637, Tempo, 363548
1, 380638, Note_on_c, 0, 60, 0
1, 380695, Tempo, 364653
1, 380753, Tempo, 365764
1, 380796, Note_on_c, 0, 55, 62
1, 380797, Note_on_c, 0, 52, 0
1, 380810, Tempo, 366883
1, 380868, Tempo, 368008
1, 380906, Tempo, 369140
1, 380956, Note_on_c, 0, 55, 0
1, 380958, Note_on_c, 0, 60, 62
1, 380964, Tempo, 370279
1, 381021, Tempo, 371425
1, 381079, Tempo, 372578
1, 381117, Tempo, 373739
1, 381118, Note_on_c, 0, 60, 0
1, 381120, Note_on_c, 0, 52, 76
1, 381175, Tempo, 374906
1, 381233, Tempo, 376081
1, 381290, Tempo, 377264
1, 381329, Tempo, 378453
1, 381386, Tempo, 379651
1, 381444, Tempo, 380856
1, 381501, Tempo, 382068
1, 381540, Tempo, 383289
1, 381600, Tempo, 398565
1, 381600, Note_on_c, 0, 52, 0
1, 381600, Note_on_c, 0, 79, 0
1, 381600, Note_on_c, 0, 68, 77
1, 381600, Note_on_c, 0, 80, 92
1, 381600, Control_c, 0, 64, 0
1, 381671, Control_c, 0, 64, 127
1, 382080, Tempo, 369140
1, 382080, Note_on_c, 0, 80, 0
1, 382080, Note_on_c, 0, 68, 0
1, 382080, Note_on_c, 0, 69, 82
1, 382080, Note_on_c, 0, 81, 97
1, 382080, Note_on_c, 0, 53, 72
1, 382080, Note_on_c, 0, 41, 72
1, 382080, Control_c, 0, 64, 0
1, 382309, Control_c, 0, 64, 127
1, 382560, Note_on_c, 0, 41, 0
1, 382560, Note_on_c, 0, 69, 0
1, 382560, Note_on_c, 0, 81, 0
1, 382560, Note_on_c, 0, 53, 0
1, 382560, Note_on_c, 0, 71, 71
1, 382560, Note_on_c, 0, 83, 84
1, 382572, Control_c, 0, 64, 0
1, 382766, Control_c, 0, 64, 127
1, 383040, Note_on_c, 0, 83, 0
1, 383040, Note_on_c, 0, 71, 0
1, 383040, Note_on_c, 0, 84, 88
1, 383040, Note_on_c, 0, 72, 75
1, 383048, Control_c, 0, 64, 0
1, 383223, Control_c, 0, 64, 127
1, 383520, Note_on_c, 0, 72, 0
1, 383520, Note_on_c, 0, 84, 0
1, 383520, Note_on_c, 0, 85, 90
1, 383520, Note_on_c, 0, 73, 76
1, 383538, Control_c, 0, 64, 0
1, 383726, Control_c, 0, 64, 127
1, 384000, Note_on_c, 0, 73, 0
1, 384000, Note_on_c, 0, 85, 0
1, 384000, Note_on_c, 0, 74, 81
1, 384000, Note_on_c, 0, 86, 96
1, 384000, Control_c, 0, 64, 0
1, 384294, Control_c, 0, 64, 127
1, 384480, Tempo, 394633
1, 384480, Note_on_c, 0, 86, 0
1, 384480, Note_on_c, 0, 74, 0
1, 384480, Note_on_c, 0, 76, 81
1, 384480, Note_on_c, 0, 88, 96
1, 384960, Tempo, 377264
1, 384960, Note_on_c, 0, 88, 0
1, 384960, Note_on_c, 0, 76, 0
1, 384960, Note_on_c, 0, 77, 80
1, 384960, Note_on_c, 0, 89, 95
1, 384967, Control_c, 0, 64, 0
1, 385174, Control_c, 0, 64, 127
1, 385440, Tempo, 422416
1, 385440, Note_on_c, 0, 89, 0
1, 385440, Note_on_c, 0, 86, 93
1, 385450, Control_c, 0, 64, 0
1, 385627, Control_c, 0, 64, 127
1, 385920, Tempo, 371425
1, 385920, Note_on_c, 0, 86, 0
1, 385920, Note_on_c, 0, 77, 0
1, 385920, Note_on_c, 0, 84, 70
1, 385920, Note_on_c, 0, 79, 59
1, 385920, Note_on_c, 0, 67, 42
1, 385920, Note_on_c, 0, 76, 42
1, 385920, Control_c, 0, 64, 0
1, 386037, Control_c, 0, 64, 127
1, 386820, Note_on_c, 0, 79, 0
1, 386820, Note_on_c, 0, 84, 0
1, 386820, Note_on_c, 0, 88, 58
1, 386880, Tempo, 376081
1, 386880, Note_on_c, 0, 88, 0
1, 386880, Note_on_c, 0, 76, 0
1, 386880, Note_on_c, 0, 86, 66
1, 386880, Note_on_c, 0, 83, 66
1, 386880, Note_on_c, 0, 77, 43
1, 386901, Control_c, 0, 64, 0
1, 387018, Control_c, 0, 64, 127
1, 387600, Tempo, 418002
1, 387600, Note_on_c, 0, 86, 0
1, 387600, Note_on_c, 0, 84, 56
1, 387840, Tempo, 370279
1, 387840, Note_on_c, 0, 84, 0
1, 387840, Note_on_c, 0, 77, 0
1, 387840, Note_on_c, 0, 83, 0
1, 387840, Note_on_c, 0, 67, 0
1, 387840, Note_on_c, 0, 84, 66
1, 387840, Note_on_c, 0, 76, 40
1, 387840, Note_on_c, 0, 72, 40
1, 387840, Control_c, 0, 64, 0
1, 388320, Note_on_c, 0, 72, 0
1, 388320, Note_on_c, 0, 76, 0
1, 388320, Note_on_c, 0, 84, 0
1, 389280, Tempo, 359195
1, 389280, Note_on_c, 0, 76, 57
1, 389280, Note_on_c, 0, 72, 36
1, 389320, Control_c, 0, 64, 127
1, 389320, Control_c, 0, 64, 127
1, 389440, Note_on_c, 0, 76, 0
1, 389440, Note_on_c, 0, 80, 61
1, 389600, Tempo, 405296
1, 389600, Note_on_c, 0, 80, 0
1, 389600, Note_on_c, 0, 81, 61
1, 389760, Tempo, 359195
1, 389760, Note_on_c, 0, 81, 0
1, 389760, Note_on_c, 0, 72, 0
1, 389760, Note_on_c, 0, 79, 58
1, 389760, Note_on_c, 0, 74, 38
1, 389760, Note_on_c, 0, 71, 38
1, 389772, Control_c, 0, 64, 0
1, 389772, Control_c, 0, 64, 0
1, 389880, Note_on_c, 0, 71, 0
1, 389880, Note_on_c, 0, 74, 0
1, 389880, Note_on_c, 0, 79, 0
1, 390240, Note_on_c, 0, 79, 49
1, 390360, Note_on_c, 0, 79, 0
1, 390720, Note_on_c, 0, 79, 49
1, 390840, Note_on_c, 0, 79, 0
1, 391040, Tempo, 399893
1, 391200, Tempo, 359195
1, 391200, Note_on_c, 0, 72, 57
1, 391200, Note_on_c, 0, 69, 36
1, 391240, Control_c, 0, 64, 127
1, 391360, Note_on_c, 0, 72, 0
1, 391360, Note_on_c, 0, 76, 44
1, 391520, Tempo, 405296
1, 391520, Note_on_c, 0, 76, 0
1, 391520, Note_on_c, 0, 77, 44
1, 391680, Tempo, 359195
1, 391680, Note_on_c, 0, 77, 0
1, 391680, Note_on_c, 0, 69, 0
1, 391680, Note_on_c, 0, 76, 58
1, 391680, Note_on_c, 0, 71, 38
1, 391680, Note_on_c, 0, 67, 38
1, 391692, Control_c, 0, 64, 0
1, 391800, Note_on_c, 0, 67, 0
1, 391800, Note_on_c, 0, 71, 0
1, 391800, Note_on_c, 0, 76, 0
1, 392160, Note_on_c, 0, 76, 49
1, 392280, Note_on_c, 0, 76, 0
1, 392640, Note_on_c, 0, 76, 49
1, 392760, Note_on_c, 0, 76, 0
1, 393120, Tempo, 359195
1, 393120, Note_on_c, 0, 69, 57
1, 393120, Note_on_c, 0, 65, 36
1, 393160, Control_c, 0, 64, 127
1, 393280, Note_on_c, 0, 69, 0
1, 393280, Note_on_c, 0, 73, 44
1, 393440, Tempo, 405296
1, 393440, Note_on_c, 0, 73, 0
1, 393440, Note_on_c, 0, 74, 44
1, 393600, Tempo, 359195
1, 393600, Note_on_c, 0, 74, 0
1, 393600, Note_on_c, 0, 65, 0
1, 393600, Note_on_c, 0, 72, 58
1, 393600, Note_on_c, 0, 67, 38
1, 393600, Note_on_c, 0, 64, 38
1, 393612, Control_c, 0, 64, 0
1, 393720, Note_on_c, 0, 64, 0
1, 393720, Note_on_c, 0, 67, 0
1, 393720, Note_on_c, 0, 72, 0
1, 394080, Note_on_c, 0, 72, 49
1, 394200, Note_on_c, 0, 72, 0
1, 394560, Note_on_c, 0, 72, 49
1, 394680, Note_on_c, 0, 72, 0
1, 395040, Tempo, 353899
1, 395040, Note_on_c, 0, 76, 61
1, 395040, Note_on_c, 0, 60, 36
1, 395040, Note_on_c, 0, 64, 36
1, 395090, Control_c, 0, 64, 127
1, 395400, Note_on_c, 0, 76, 0
1, 395400, Note_on_c, 0, 72, 54
1, 395520, Note_on_c, 0, 72, 0
1, 395520, Note_on_c, 0, 64, 0
1, 395520, Note_on_c, 0, 60, 0
1, 395520, Note_on_c, 0, 69, 62
1, 395520, Note_on_c, 0, 65, 41
1, 395520, Note_on_c, 0, 53, 41
1, 395520, Control_c, 0, 64, 0
1, 395640, Note_on_c, 0, 53, 0
1, 395640, Note_on_c, 0, 65, 0
1, 395640, Note_on_c, 0, 69, 0
1, 395760, Tempo, 373739
1, 396000, Tempo, 358123
1, 396000, Note_on_c, 0, 77, 61
1, 396109, Control_c, 0, 64, 127
1, 396360, Note_on_c, 0, 77, 0
1, 396360, Note_on_c, 0, 74, 53
1, 396480, Note_on_c, 0, 74, 0
1, 396480, Note_on_c, 0, 71, 61
1, 396480, Note_on_c, 0, 55, 38
1, 396480, Note_on_c, 0, 62, 38
1, 396497, Control_c, 0, 64, 0
1, 396600, Note_on_c, 0, 62, 0
1, 396600, Note_on_c, 0, 55, 0
1, 396600, Note_on_c, 0, 71, 0
1, 396720, Tempo, 370279
1, 396960, Tempo, 355999
1, 396960, Note_on_c, 0, 74, 60
1, 397069, Control_c, 0, 64, 127
1, 397200, Tempo, 365764
1, 397320, Note_on_c, 0, 74, 0
1, 397320, Note_on_c, 0, 71, 54
1, 397440, Tempo, 354946
1, 397440, Note_on_c, 0, 71, 0
1, 397440, Note_on_c, 0, 72, 61
1, 397440, Note_on_c, 0, 64, 41
1, 397440, Note_on_c, 0, 60, 41
1, 397469, Control_c, 0, 64, 0
1, 397560, Note_on_c, 0, 60, 0
1, 397560, Note_on_c, 0, 64, 0
1, 397560, Note_on_c, 0, 72, 0
1, 398880, Tempo, 359195
1, 398880, Note_on_c, 0, 76, 88
1, 398880, Note_on_c, 0, 72, 70
1, 398920, Control_c, 0, 64, 127
1, 399040, Note_on_c, 0, 76, 0
1, 399040, Note_on_c, 0, 80, 61
1, 399200, Tempo, 405296
1, 399200, Note_on_c, 0, 80, 0
1, 399200, Note_on_c, 0, 81, 61
1, 399360, Tempo, 359195
1, 399360, Note_on_c, 0, 81, 0
1, 399360, Note_on_c, 0, 72, 0
1, 399360, Note_on_c, 0, 74, 72
1, 399360, Note_on_c, 0, 71, 44
1, 399372, Control_c, 0, 64, 0
1, 399446, Control_c, 0, 64, 127
1, 399480, Note_on_c, 0, 71, 0
1, 399520, Note_on_c, 0, 74, 0
1, 399520, Note_on_c, 0, 78, 47
1, 399680, Note_on_c, 0, 78, 0
1, 399680, Note_on_c, 0, 79, 47
1, 399755, Control_c, 0, 64, 0
1, 399840, Note_on_c, 0, 79, 0
1, 399840, Note_on_c, 0, 74, 66
1, 399840, Note_on_c, 0, 71, 35
1, 399949, Control_c, 0, 64, 127
1, 399960, Note_on_c, 0, 71, 0
1, 400000, Note_on_c, 0, 74, 0
1, 400000, Note_on_c, 0, 78, 47
1, 400160, Note_on_c, 0, 78, 0
1, 400160, Note_on_c, 0, 79, 47
1, 400177, Control_c, 0, 64, 0
1, 400320, Note_on_c, 0, 79, 0
1, 400320, Note_on_c, 0, 74, 66
1, 400320, Note_on_c, 0, 71, 35
1, 400395, Control_c, 0, 64, 127
1, 400440, Note_on_c, 0, 71, 0
1, 400480, Note_on_c, 0, 74, 0
1, 400480, Note_on_c, 0, 78, 51
1, 400640, Tempo, 399893
1, 400640, Note_on_c, 0, 78, 0
1, 400640, Note_on_c, 0, 79, 52
1, 400663, Control_c, 0, 64, 0
1, 400800, Tempo, 359195
1, 400800, Note_on_c, 0, 79, 0
1, 400800, Note_on_c, 0, 76, 88
1, 400800, Note_on_c, 0, 72, 70
1, 400840, Control_c, 0, 64, 127
1, 400960, Note_on_c, 0, 76, 0
1, 400960, Note_on_c, 0, 80, 61
1, 401120, Tempo, 405296
1, 401120, Note_on_c, 0, 80, 0
1, 401120, Note_on_c, 0, 81, 61
1, 401280, Tempo, 359195
1, 401280, Note_on_c, 0, 81, 0
1, 401280, Note_on_c, 0, 72, 0
1, 401280, Note_on_c, 0, 74, 69
1, 401280, Note_on_c, 0, 71, 44
1, 401292, Control_c, 0, 64, 0
1, 401377, Control_c, 0, 64, 127
1, 401400, Note_on_c, 0, 71, 0
1, 401440, Note_on_c, 0, 74, 0
1, 401440, Note_on_c, 0, 78, 54
1, 401600, Note_on_c, 0, 78, 0
1, 401600, Note_on_c, 0, 79, 55
1, 401646, Control_c, 0, 64, 0
1, 401760, Note_on_c, 0, 79, 0
1, 401760, Note_on_c, 0, 74, 70
1, 401760, Note_on_c, 0, 71, 32
1, 401840, Control_c, 0, 64, 127
1, 401880, Note_on_c, 0, 71, 0
1, 401920, Note_on_c, 0, 74, 0
1, 401920, Note_on_c, 0, 78, 47
1, 402080, Note_on_c, 0, 78, 0
1, 402080, Note_on_c, 0, 79, 47
1, 402120, Control_c, 0, 64, 0
1, 402240, Note_on_c, 0, 79, 0
1, 402240, Note_on_c, 0, 74, 67
1, 402240, Note_on_c, 0, 71, 32
1, 402320, Control_c, 0, 64, 127
1, 402360, Note_on_c, 0, 71, 0
1, 402400, Note_on_c, 0, 74, 0
1, 402400, Note_on_c, 0, 78, 46
1, 402560, Tempo, 399893
1, 402560, Note_on_c, 0, 78, 0
1, 402560, Note_on_c, 0, 79, 49
1, 402629, Control_c, 0, 64, 0
1, 402720, Tempo, 359195
1, 402720, Note_on_c, 0, 79, 0
1, 402720, Note_on_c, 0, 72, 64
1, 402720, Note_on_c, 0, 69, 63
1, 402760, Control_c, 0, 64, 127
1, 402880, Note_on_c, 0, 72, 0
1, 402880, Note_on_c, 0, 76, 50
1, 403040, Tempo, 405296
1, 403040, Note_on_c, 0, 76, 0
1, 403040, Note_on_c, 0, 77, 50
1, 403200, Tempo, 359195
1, 403200, Note_on_c, 0, 77, 0
1, 403200, Note_on_c, 0, 69, 0
1, 403200, Note_on_c, 0, 71, 65
1, 403200, Note_on_c, 0, 67, 39
1, 403212, Control_c, 0, 64, 0
1, 403297, Control_c, 0, 64, 127
1, 403320, Note_on_c, 0, 67, 0
1, 403360, Note_on_c, 0, 71, 0
1, 403360, Note_on_c, 0, 75, 50
1, 403486, Control_c, 0, 64, 0
1, 403520, Note_on_c, 0, 75, 0
1, 403520, Note_on_c, 0, 76, 50
1, 403680, Note_on_c, 0, 76, 0
1, 403680, Note_on_c, 0, 71, 66
1, 403680, Note_on_c, 0, 67, 30
1, 403743, Control_c, 0, 64, 127
1, 403800, Note_on_c, 0, 67, 0
1, 403840, Note_on_c, 0, 71, 0
1, 403840, Note_on_c, 0, 75, 46
1, 404000, Note_on_c, 0, 75, 0
1, 404000, Note_on_c, 0, 76, 46
1, 404052, Control_c, 0, 64, 0
1, 404160, Note_on_c, 0, 76, 0
1, 404160, Note_on_c, 0, 71, 64
1, 404160, Note_on_c, 0, 67, 30
1, 404235, Control_c, 0, 64, 127
1, 404280, Note_on_c, 0, 67, 0
1, 404320, Note_on_c, 0, 71, 0
1, 404320, Note_on_c, 0, 75, 46
1, 404480, Tempo, 399893
1, 404480, Note_on_c, 0, 75, 0
1, 404480, Note_on_c, 0, 76, 46
1, 404640, Tempo, 359195
1, 404640, Note_on_c, 0, 76, 0
1, 404640, Note_on_c, 0, 72, 75
1, 404640, Note_on_c, 0, 69, 58
1, 404652, Control_c, 0, 64, 0
1, 404755, Control_c, 0, 64, 127
1, 404800, Note_on_c, 0, 72, 0
1, 404800, Note_on_c, 0, 76, 54
1, 404960, Tempo, 405296
1, 404960, Note_on_c, 0, 76, 0
1, 404960, Note_on_c, 0, 77, 54
1, 405120, Tempo, 359195
1, 405120, Note_on_c, 0, 77, 0
1, 405120, Note_on_c, 0, 69, 0
1, 405120, Note_on_c, 0, 71, 69
1, 405120, Note_on_c, 0, 67, 39
1, 405132, Control_c, 0, 64, 0
1, 405217, Control_c, 0, 64, 127
1, 405240, Note_on_c, 0, 67, 0
1, 405280, Note_on_c, 0, 71, 0
1, 405280, Note_on_c, 0, 75, 50
1, 405440, Note_on_c, 0, 75, 0
1, 405440, Note_on_c, 0, 76, 50
1, 405480, Control_c, 0, 64, 0
1, 405600, Note_on_c, 0, 76, 0
1, 405600, Note_on_c, 0, 71, 66
1, 405600, Note_on_c, 0, 67, 28
1, 405715, Control_c, 0, 64, 127
1, 405720, Note_on_c, 0, 67, 0
1, 405760, Note_on_c, 0, 71, 0
1, 405760, Note_on_c, 0, 75, 47
1, 405920, Note_on_c, 0, 75, 0
1, 405920, Note_on_c, 0, 76, 47
1, 405943, Control_c, 0, 64, 0
1, 406080, Note_on_c, 0, 76, 0
1, 406080, Note_on_c, 0, 71, 64
1, 406080, Note_on_c, 0, 67, 28
1, 406155, Control_c, 0, 64, 127
1, 406200, Note_on_c, 0, 67, 0
1, 406240, Note_on_c, 0, 71, 0
1, 406240, Note_on_c, 0, 75, 47
1, 406400, Tempo, 399893
1, 406400, Note_on_c, 0, 75, 0
1, 406400, Note_on_c, 0, 76, 48
1, 406452, Control_c, 0, 64, 0
1, 406560, Tempo, 359195
1, 406560, Note_on_c, 0, 76, 0
1, 406560, Note_on_c, 0, 69, 70
1, 406560, Note_on_c, 0, 65, 56
1, 406572, Control_c, 0, 64, 0
1, 406675, Control_c, 0, 64, 127
1, 406720, Note_on_c, 0, 69, 0
1, 406720, Note_on_c, 0, 73, 54
1, 406880, Tempo, 405296
1, 406880, Note_on_c, 0, 73, 0
1, 406880, Note_on_c, 0, 74, 54
1, 407040, Tempo, 359195
1, 407040, Note_on_c, 0, 74, 0
1, 407040, Note_on_c, 0, 65, 0
1, 407040, Note_on_c, 0, 67, 59
1, 407040, Note_on_c, 0, 64, 39
1, 407052, Control_c, 0, 64, 0
1, 407137, Control_c, 0, 64, 127
1, 407160, Note_on_c, 0, 64, 0
1, 407200, Note_on_c, 0, 67, 0
1, 407200, Note_on_c, 0, 71, 48
1, 407360, Note_on_c, 0, 71, 0
1, 407360, Note_on_c, 0, 72, 46
1, 407400, Control_c, 0, 64, 0
1, 407520, Note_on_c, 0, 72, 0
1, 407520, Note_on_c, 0, 67, 61
1, 407520, Note_on_c, 0, 64, 28
1, 407635, Control_c, 0, 64, 127
1, 407640, Note_on_c, 0, 64, 0
1, 407680, Note_on_c, 0, 67, 0
1, 407680, Note_on_c, 0, 71, 47
1, 407840, Note_on_c, 0, 71, 0
1, 407840, Note_on_c, 0, 72, 50
1, 407863, Control_c, 0, 64, 0
1, 408000, Note_on_c, 0, 72, 0
1, 408000, Note_on_c, 0, 67, 62
1, 408000, Note_on_c, 0, 64, 29
1, 408075, Control_c, 0, 64, 127
1, 408120, Note_on_c, 0, 64, 0
1, 408160, Note_on_c, 0, 67, 0
1, 408160, Note_on_c, 0, 71, 49
1, 408320, Tempo, 399893
1, 408320, Note_on_c, 0, 71, 0
1, 408320, Note_on_c, 0, 72, 49
1, 408372, Control_c, 0, 64, 0
1, 408480, Tempo, 359195
1, 408480, Note_on_c, 0, 72, 0
1, 408480, Note_on_c, 0, 69, 70
1, 408480, Note_on_c, 0, 65, 56
1, 408492, Control_c, 0, 64, 0
1, 408595, Control_c, 0, 64, 127
1, 408640, Note_on_c, 0, 69, 0
1, 408640, Note_on_c, 0, 73, 54
1, 408800, Tempo, 405296
1, 408800, Note_on_c, 0, 73, 0
1, 408800, Note_on_c, 0, 74, 54
1, 408960, Tempo, 359195
1, 408960, Note_on_c, 0, 74, 0
1, 408960, Note_on_c, 0, 65, 0
1, 408960, Note_on_c, 0, 67, 59
1, 408960, Note_on_c, 0, 64, 39
1, 408972, Control_c, 0, 64, 0
1, 409057, Control_c, 0, 64, 127
1, 409080, Note_on_c, 0, 64, 0
1, 409120, Note_on_c, 0, 67, 0
1, 409120, Note_on_c, 0, 71, 48
1, 409280, Note_on_c, 0, 71, 0
1, 409280, Note_on_c, 0, 72, 46
1, 409320, Control_c, 0, 64, 0
1, 409440, Note_on_c, 0, 72, 0
1, 409440, Note_on_c, 0, 67, 61
1, 409440, Note_on_c, 0, 64, 28
1, 409555, Control_c, 0, 64, 127
1, 409560, Note_on_c, 0, 64, 0
1, 409600, Note_on_c, 0, 67, 0
1, 409600, Note_on_c, 0, 71, 47
1, 409760, Note_on_c, 0, 71, 0
1, 409760, Note_on_c, 0, 72, 50
1, 409783, Control_c, 0, 64, 0
1, 409920, Note_on_c, 0, 72, 0
1, 409920, Note_on_c, 0, 67, 62
1, 409920, Note_on_c, 0, 64, 29
1, 409995, Control_c, 0, 64, 127
1, 410040, Note_on_c, 0, 64, 0
1, 410080, Note_on_c, 0, 67, 0
1, 410080, Note_on_c, 0, 71, 49
1, 410240, Tempo, 399893
1, 410240, Note_on_c, 0, 71, 0
1, 410240, Note_on_c, 0, 72, 49
1, 410292, Control_c, 0, 64, 0
1, 410400, Tempo, 359195
1, 410400, Note_on_c, 0, 72, 0
1, 410400, Note_on_c, 0, 69, 70
1, 410400, Note_on_c, 0, 65, 56
1, 410412, Control_c, 0, 64, 0
1, 410515, Control_c, 0, 64, 127
1, 410560, Note_on_c, 0, 69, 0
1, 410560, Note_on_c, 0, 73, 54
1, 410720, Tempo, 405296
1, 410720, Note_on_c, 0, 73, 0
1, 410720, Note_on_c, 0, 74, 54
1, 410880, Tempo, 359195
1, 410880, Note_on_c, 0, 74, 0
1, 410880, Note_on_c, 0, 65, 0
1, 410880, Note_on_c, 0, 67, 72
1, 410880, Note_on_c, 0, 64, 39
1, 410892, Control_c, 0, 64, 0
1, 410977, Control_c, 0, 64, 127
1, 411000, Note_on_c, 0, 64, 0
1, 411040, Note_on_c, 0, 67, 0
1, 411040, Note_on_c, 0, 71, 60
1, 411200, Note_on_c, 0, 71, 0
1, 411200, Note_on_c, 0, 72, 61
1, 411240, Control_c, 0, 64, 0
1, 411360, Note_on_c, 0, 72, 0
1, 411360, Note_on_c, 0, 67, 73
1, 411360, Note_on_c, 0, 59, 36
1, 411475, Control_c, 0, 64, 127
1, 411480, Note_on_c, 0, 59, 0
1, 411520, Note_on_c, 0, 67, 0
1, 411520, Note_on_c, 0, 73, 65
1, 411680, Note_on_c, 0, 73, 0
1, 411680, Note_on_c, 0, 74, 65
1, 411703, Control_c, 0, 64, 0
1, 411840, Note_on_c, 0, 74, 0
1, 411840, Note_on_c, 0, 67, 80
1, 411840, Note_on_c, 0, 60, 41
1, 411915, Control_c, 0, 64, 127
1, 411960, Note_on_c, 0, 60, 0
1, 412000, Note_on_c, 0, 67, 0
1, 412000, Note_on_c, 0, 75, 72
1, 412160, Tempo, 399893
1, 412160, Note_on_c, 0, 75, 0
1, 412160, Note_on_c, 0, 76, 72
1, 412212, Control_c, 0, 64, 0
1, 412320, Tempo, 362450
1, 412320, Note_on_c, 0, 76, 0
1, 412320, Note_on_c, 0, 67, 87
1, 412320, Note_on_c, 0, 62, 47
1, 412360, Control_c, 0, 64, 127
1, 412440, Note_on_c, 0, 62, 0
1, 412480, Note_on_c, 0, 67, 0
1, 412480, Note_on_c, 0, 76, 77
1, 412640, Note_on_c, 0, 76, 0
1, 412640, Note_on_c, 0, 77, 78
1, 412680, Tempo, 402576
1, 412692, Control_c, 0, 64, 0
1, 412800, Tempo, 405296
1, 412800, Note_on_c, 0, 77, 0
1, 412800, Note_on_c, 0, 67, 86
1, 412800, Note_on_c, 0, 64, 60
1, 412806, Control_c, 0, 64, 127
1, 412920, Tempo, 354946
1, 412931, Tempo, 349773
1, 412960, Note_on_c, 0, 67, 0
1, 412960, Note_on_c, 0, 78, 93
1, 413047, Tempo, 350795
1, 413120, Note_on_c, 0, 78, 0
1, 413120, Note_on_c, 0, 79, 92
1, 413162, Tempo, 351824
1, 413277, Tempo, 352858
1, 413280, Note_on_c, 0, 79, 0
1, 413280, Note_on_c, 0, 64, 0
1, 413280, Note_on_c, 0, 77, 89
1, 413283, Control_c, 0, 64, 0
1, 413355, Control_c, 0, 64, 127
1, 413392, Tempo, 353899
1, 413440, Note_on_c, 0, 77, 0
1, 413440, Note_on_c, 0, 76, 88
1, 413507, Tempo, 354946
1, 413600, Note_on_c, 0, 76, 0
1, 413600, Note_on_c, 0, 74, 86
1, 413623, Tempo, 355999
1, 413738, Tempo, 357058
1, 413760, Note_on_c, 0, 74, 0
1, 413760, Note_on_c, 0, 72, 83
1, 413853, Tempo, 358123
1, 413920, Note_on_c, 0, 72, 0
1, 413920, Note_on_c, 0, 71, 82
1, 413968, Tempo, 359195
1, 414080, Note_on_c, 0, 71, 0
1, 414080, Note_on_c, 0, 69, 80
1, 414083, Tempo, 360274
1, 414199, Tempo, 361359
1, 414240, Note_on_c, 0, 69, 0
1, 414240, Note_on_c, 0, 67, 78
1, 414314, Tempo, 362450
1, 414400, Note_on_c, 0, 67, 0
1, 414400, Note_on_c, 0, 65, 76
1, 414429, Tempo, 363548
1, 414544, Tempo, 364653
1, 414560, Note_on_c, 0, 65, 0
1, 414560, Note_on_c, 0, 64, 74
1, 414659, Tempo, 365764
1, 414720, Tempo, 384517
1, 414720, Note_on_c, 0, 64, 0
1, 414720, Note_on_c, 0, 62, 70
1, 414720, Note_on_c, 0, 41, 65
1, 414720, Control_c, 0, 64, 0
1, 414795, Control_c, 0, 64, 127
1, 414880, Note_on_c, 0, 62, 0
1, 414880, Note_on_c, 0, 69, 78
1, 414960, Tempo, 353899
1, 414986, Tempo, 354946
1, 415040, Note_on_c, 0, 69, 0
1, 415040, Note_on_c, 0, 67, 76
1, 415043, Tempo, 355999
1, 415082, Tempo, 357058
1, 415120, Tempo, 358123
1, 415159, Tempo, 359195
1, 415197, Tempo, 360274
1, 415200, Note_on_c, 0, 67, 0
1, 415200, Note_on_c, 0, 65, 73
1, 415200, Note_on_c, 0, 53, 55
1, 415235, Tempo, 361359
1, 415274, Tempo, 362450
1, 415312, Tempo, 363548
1, 415360, Note_on_c, 0, 65, 0
1, 415360, Note_on_c, 0, 64, 71
1, 415370, Tempo, 364653
1, 415408, Tempo, 365764
1, 415447, Tempo, 366883
1, 415485, Tempo, 368008
1, 415520, Note_on_c, 0, 64, 0
1, 415520, Note_on_c, 0, 62, 69
1, 415523, Tempo, 369140
1, 415562, Tempo, 370279
1, 415600, Tempo, 371425
1, 415639, Tempo, 372578
1, 415680, Tempo, 360274
1, 415680, Note_on_c, 0, 62, 0
1, 415680, Note_on_c, 0, 53, 0
1, 415680, Note_on_c, 0, 41, 0
1, 415680, Note_on_c, 0, 60, 83
1, 415680, Note_on_c, 0, 52, 54
1, 415680, Note_on_c, 0, 43, 54
1, 415688, Control_c, 0, 64, 0
1, 415840, Control_c, 0, 64, 127
1, 416138, Tempo, 358123
1, 416160, Note_on_c, 0, 52, 0
1, 416160, Note_on_c, 0, 60, 0
1, 416160, Note_on_c, 0, 59, 75
1, 416160, Note_on_c, 0, 50, 46
1, 416174, Control_c, 0, 64, 0
1, 416195, Tempo, 359195
1, 416234, Tempo, 360274
1, 416235, Control_c, 0, 64, 127
1, 416280, Note_on_c, 0, 59, 0
1, 416280, Note_on_c, 0, 60, 67
1, 416291, Tempo, 361359
1, 416330, Tempo, 362450
1, 416368, Tempo, 363548
1, 416400, Note_on_c, 0, 60, 0
1, 416400, Note_on_c, 0, 59, 75
1, 416426, Tempo, 364653
1, 416464, Tempo, 365764
1, 416522, Tempo, 366883
1, 416560, Tempo, 368008
1, 416599, Tempo, 369140
1, 416640, Tempo, 405296
1, 416640, Note_on_c, 0, 59, 0
1, 416640, Note_on_c, 0, 50, 0
1, 416640, Note_on_c, 0, 43, 0
1, 416640, Note_on_c, 0, 40, 70
1, 416640, Note_on_c, 0, 43, 70
1, 416640, Note_on_c, 0, 48, 70
1, 416640, Control_c, 0, 64, 0
1, 416755, Control_c, 0, 64, 127
1, 416760, Tempo, 354946
1, 416771, Tempo, 349773
1, 416800, Note_on_c, 0, 78, 78
1, 416887, Tempo, 350795
1, 416960, Note_on_c, 0, 78, 0
1, 416960, Note_on_c, 0, 79, 89
1, 417002, Tempo, 351824
1, 417117, Tempo, 352858
1, 417120, Note_on_c, 0, 79, 0
1, 417120, Note_on_c, 0, 77, 84
1, 417123, Control_c, 0, 64, 0
1, 417195, Control_c, 0, 64, 127
1, 417232, Tempo, 353899
1, 417280, Note_on_c, 0, 77, 0
1, 417280, Note_on_c, 0, 76, 83
1, 417347, Tempo, 354946
1, 417440, Note_on_c, 0, 76, 0
1, 417440, Note_on_c, 0, 74, 81
1, 417463, Tempo, 355999
1, 417578, Tempo, 357058
1, 417600, Note_on_c, 0, 74, 0
1, 417600, Note_on_c, 0, 40, 0
1, 417600, Note_on_c, 0, 43, 0
1, 417600, Note_on_c, 0, 48, 0
1, 417600, Note_on_c, 0, 72, 80
1, 417693, Tempo, 358123
1, 417760, Note_on_c, 0, 72, 0
1, 417760, Note_on_c, 0, 71, 78
1, 417808, Tempo, 359195
1, 417920, Note_on_c, 0, 71, 0
1, 417920, Note_on_c, 0, 69, 77
1, 417923, Tempo, 360274
1, 418039, Tempo, 361359
1, 418080, Note_on_c, 0, 69, 0
1, 418080, Note_on_c, 0, 67, 79
1, 418154, Tempo, 362450
1, 418240, Note_on_c, 0, 67, 0
1, 418240, Note_on_c, 0, 65, 81
1, 418269, Tempo, 363548
1, 418384, Tempo, 364653
1, 418400, Note_on_c, 0, 65, 0
1, 418400, Note_on_c, 0, 64, 83
1, 418499, Tempo, 365764
1, 418560, Tempo, 393443
1, 418560, Note_on_c, 0, 64, 0
1, 418560, Note_on_c, 0, 62, 86
1, 418560, Note_on_c, 0, 53, 73
1, 418560, Note_on_c, 0, 57, 73
1, 418560, Control_c, 0, 64, 0
1, 418846, Control_c, 0, 64, 127
1, 419520, Tempo, 909091
1, 419520, Note_on_c, 0, 57, 0
1, 419520, Note_on_c, 0, 53, 0
1, 419520, Note_on_c, 0, 62, 0
1, 419520, Note_on_c, 0, 81, 82
1, 419520, Note_on_c, 0, 72, 69
1, 419520, Note_on_c, 0, 75, 69
1, 419520, Note_on_c, 0, 78, 69
1, 419520, Note_on_c, 0, 63, 73
1, 419520, Note_on_c, 0, 57, 62
1, 419520, Note_on_c, 0, 60, 62
1, 419520, Note_on_c, 0, 54, 62
1, 419528, Control_c, 0, 64, 0
1, 419832, Control_c, 0, 64, 127
1, 420480, Tempo, 356083
1, 420480, Note_on_c, 0, 54, 0
1, 420480, Note_on_c, 0, 81, 0
1, 420480, Note_on_c, 0, 63, 0
1, 420480, Note_on_c, 0, 72, 0
1, 420480, Note_on_c, 0, 75, 0
1, 420480, Note_on_c, 0, 78, 0
1, 420480, Note_on_c, 0, 57, 0
1, 420480, Note_on_c, 0, 60, 0
1, 420480, Note_on_c, 0, 55, 42
1, 420480, Control_c, 0, 64, 0
1, 420640, Note_on_c, 0, 55, 0
1, 420640, Note_on_c, 0, 60, 32
1, 420640, Control_c, 0, 64, 127
1, 420800, Note_on_c, 0, 60, 0
1, 420800, Note_on_c, 0, 64, 32
1, 420960, Note_on_c, 0, 64, 0
1, 420960, Note_on_c, 0, 55, 42
1, 421120, Note_on_c, 0, 55, 0
1, 421120, Note_on_c, 0, 60, 34
1, 421280, Note_on_c, 0, 60, 0
1, 421280, Note_on_c, 0, 64, 34
1, 421440, Note_on_c, 0, 64, 0
1, 421440, Note_on_c, 0, 55, 42
1, 421600, Note_on_c, 0, 55, 0
1, 421600, Note_on_c, 0, 60, 33
1, 421760, Note_on_c, 0, 60, 0
1, 421760, Note_on_c, 0, 64, 33
1, 421920, Tempo, 349589
1, 421920, Note_on_c, 0, 64, 0
1, 421920, Note_on_c, 0, 72, 57
1, 421920, Note_on_c, 0, 55, 45
1, 422040, Note_on_c, 0, 72, 0
1, 422040, Note_on_c, 0, 74, 60
1, 422080, Note_on_c, 0, 55, 0
1, 422080, Note_on_c, 0, 60, 34
1, 422160, Note_on_c, 0, 74, 0
1, 422160, Note_on_c, 0, 76, 62
1, 422240, Note_on_c, 0, 60, 0
1, 422240, Note_on_c, 0, 64, 34
1, 422280, Tempo, 402576
1, 422280, Note_on_c, 0, 76, 0
1, 422280, Note_on_c, 0, 77, 65
1, 422400, Tempo, 354946
1, 422400, Note_on_c, 0, 77, 0
1, 422400, Note_on_c, 0, 64, 0
1, 422400, Note_on_c, 0, 79, 75
1, 422400, Note_on_c, 0, 55, 47
1, 422411, Control_c, 0, 64, 0
1, 422467, Control_c, 0, 64, 127
1, 422520, Note_on_c, 0, 79, 0
1, 422560, Note_on_c, 0, 55, 0
1, 422560, Note_on_c, 0, 60, 34
1, 422720, Note_on_c, 0, 60, 0
1, 422720, Note_on_c, 0, 64, 34
1, 422880, Note_on_c, 0, 64, 0
1, 422880, Note_on_c, 0, 79, 64
1, 422880, Note_on_c, 0, 55, 47
1, 423000, Note_on_c, 0, 79, 0
1, 423040, Note_on_c, 0, 55, 0
1, 423040, Note_on_c, 0, 60, 36
1, 423200, Note_on_c, 0, 60, 0
1, 423200, Note_on_c, 0, 64, 36
1, 423360, Tempo, 356316
1, 423360, Note_on_c, 0, 64, 0
1, 423360, Note_on_c, 0, 79, 64
1, 423360, Note_on_c, 0, 55, 50
1, 423480, Note_on_c, 0, 79, 0
1, 423520, Note_on_c, 0, 55, 0
1, 423520, Note_on_c, 0, 60, 36
1, 423680, Note_on_c, 0, 60, 0
1, 423680, Note_on_c, 0, 64, 36
1, 423780, Note_on_c, 0, 83, 78
1, 423840, Tempo, 353586
1, 423840, Note_on_c, 0, 83, 0
1, 423840, Note_on_c, 0, 64, 0
1, 423840, Note_on_c, 0, 84, 92
1, 423840, Note_on_c, 0, 55, 69
1, 424000, Note_on_c, 0, 55, 0
1, 424000, Note_on_c, 0, 60, 56
1, 424160, Note_on_c, 0, 60, 0
1, 424160, Note_on_c, 0, 64, 56
1, 424320, Note_on_c, 0, 64, 0
1, 424320, Note_on_c, 0, 84, 0
1, 424320, Note_on_c, 0, 79, 85
1, 424320, Note_on_c, 0, 55, 47
1, 424320, Control_c, 0, 64, 0
1, 424440, Note_on_c, 0, 79, 0
1, 424440, Control_c, 0, 64, 127
1, 424480, Note_on_c, 0, 55, 0
1, 424480, Note_on_c, 0, 60, 34
1, 424640, Note_on_c, 0, 60, 0
1, 424640, Note_on_c, 0, 64, 34
1, 424800, Note_on_c, 0, 64, 0
1, 424800, Note_on_c, 0, 79, 67
1, 424800, Note_on_c, 0, 55, 47
1, 424920, Note_on_c, 0, 79, 0
1, 424960, Note_on_c, 0, 55, 0
1, 424960, Note_on_c, 0, 60, 37
1, 425120, Note_on_c, 0, 60, 0
1, 425120, Note_on_c, 0, 64, 37
1, 425280, Tempo, 356316
1, 425280, Note_on_c, 0, 64, 0
1, 425280, Note_on_c, 0, 79, 67
1, 425280, Note_on_c, 0, 55, 47
1, 425400, Note_on_c, 0, 79, 0
1, 425440, Note_on_c, 0, 55, 0
1, 425440, Note_on_c, 0, 60, 37
1, 425600, Note_on_c, 0, 60, 0
1, 425600, Note_on_c, 0, 64, 38
1, 425640, Tempo, 415110
1, 425760, Tempo, 348270
1, 425760, Note_on_c, 0, 64, 0
1, 425760, Note_on_c, 0, 77, 67
1, 425760, Note_on_c, 0, 55, 47
1, 425880, Note_on_c, 0, 77, 0
1, 425880, Note_on_c, 0, 76, 54
1, 425920, Note_on_c, 0, 55, 0
1, 425920, Note_on_c, 0, 60, 37
1, 426000, Note_on_c, 0, 76, 0
1, 426000, Note_on_c, 0, 74, 54
1, 426080, Note_on_c, 0, 60, 0
1, 426080, Note_on_c, 0, 64, 37
1, 426120, Tempo, 372093
1, 426120, Note_on_c, 0, 74, 0
1, 426120, Note_on_c, 0, 72, 58
1, 426240, Tempo, 350918
1, 426240, Note_on_c, 0, 72, 0
1, 426240, Note_on_c, 0, 64, 0
1, 426240, Note_on_c, 0, 71, 70
1, 426240, Note_on_c, 0, 55, 47
1, 426240, Control_c, 0, 64, 0
1, 426346, Control_c, 0, 64, 127
1, 426360, Note_on_c, 0, 71, 0
1, 426400, Note_on_c, 0, 55, 0
1, 426400, Note_on_c, 0, 62, 35
1, 426560, Note_on_c, 0, 62, 0
1, 426560, Note_on_c, 0, 65, 38
1, 426720, Note_on_c, 0, 65, 0
1, 426720, Note_on_c, 0, 71, 59
1, 426720, Note_on_c, 0, 55, 47
1, 426840, Note_on_c, 0, 71, 0
1, 426880, Note_on_c, 0, 55, 0
1, 426880, Note_on_c, 0, 62, 38
1, 427040, Note_on_c, 0, 62, 0
1, 427040, Note_on_c, 0, 65, 38
1, 427200, Note_on_c, 0, 65, 0
1, 427200, Note_on_c, 0, 72, 66
1, 427200, Note_on_c, 0, 55, 47
1, 427209, Control_c, 0, 64, 0
1, 427313, Control_c, 0, 64, 127
1, 427320, Note_on_c, 0, 72, 0
1, 427360, Note_on_c, 0, 55, 0
1, 427360, Note_on_c, 0, 60, 39
1, 427520, Note_on_c, 0, 60, 0
1, 427520, Note_on_c, 0, 64, 42
1, 427680, Tempo, 350918
1, 427680, Note_on_c, 0, 64, 0
1, 427680, Note_on_c, 0, 72, 57
1, 427680, Note_on_c, 0, 55, 47
1, 427800, Note_on_c, 0, 72, 0
1, 427840, Note_on_c, 0, 55, 0
1, 427840, Note_on_c, 0, 60, 39
1, 428000, Tempo, 594059
1, 428000, Note_on_c, 0, 60, 0
1, 428000, Note_on_c, 0, 64, 39
1, 428143, Tempo, 368098
1, 428160, Note_on_c, 0, 64, 0
1, 428160, Note_on_c, 0, 74, 70
1, 428160, Note_on_c, 0, 55, 47
1, 428160, Control_c, 0, 64, 0
1, 428167, Tempo, 366972
1, 428191, Tempo, 365854
1, 428215, Tempo, 364742
1, 428239, Tempo, 363636
1, 428263, Tempo, 362538
1, 428287, Tempo, 361446
1, 428311, Tempo, 360360
1, 428320, Note_on_c, 0, 55, 0
1, 428320, Note_on_c, 0, 59, 35
1, 428326, Control_c, 0, 64, 127
1, 428335, Tempo, 359281
1, 428359, Tempo, 358209
1, 428383, Tempo, 357143
1, 428407, Tempo, 356083
1, 428431, Tempo, 355030
1, 428455, Tempo, 353982
1, 428479, Tempo, 352941
1, 428480, Note_on_c, 0, 59, 0
1, 428480, Note_on_c, 0, 62, 38
1, 428503, Tempo, 351906
1, 428527, Tempo, 350877
1, 428551, Tempo, 348837
1, 428640, Note_on_c, 0, 62, 0
1, 428640, Note_on_c, 0, 74, 0
1, 428640, Note_on_c, 0, 55, 47
1, 428800, Note_on_c, 0, 55, 0
1, 428800, Note_on_c, 0, 59, 38
1, 428960, Note_on_c, 0, 59, 0
1, 428960, Note_on_c, 0, 62, 38
1, 429120, Note_on_c, 0, 62, 0
1, 429120, Note_on_c, 0, 55, 47
1, 429280, Note_on_c, 0, 55, 0
1, 429280, Note_on_c, 0, 59, 39
1, 429440, Note_on_c, 0, 59, 0
1, 429440, Note_on_c, 0, 62, 42
1, 429600, Tempo, 348270
1, 429600, Note_on_c, 0, 62, 0
1, 429600, Note_on_c, 0, 67, 70
1, 429600, Note_on_c, 0, 55, 47
1, 429760, Note_on_c, 0, 55, 0
1, 429760, Note_on_c, 0, 59, 39
1, 429920, Note_on_c, 0, 59, 0
1, 429920, Note_on_c, 0, 62, 39
1, 429960, Tempo, 360490
1, 429960, Note_on_c, 0, 67, 0
1, 429960, Note_on_c, 0, 74, 54
1, 430080, Tempo, 345662
1, 430080, Note_on_c, 0, 74, 0
1, 430080, Note_on_c, 0, 62, 0
1, 430080, Note_on_c, 0, 77, 67
1, 430080, Note_on_c, 0, 55, 47
1, 430080, Control_c, 0, 64, 0
1, 430179, Control_c, 0, 64, 127
1, 430200, Note_on_c, 0, 77, 0
1, 430240, Note_on_c, 0, 55, 0
1, 430240, Note_on_c, 0, 59, 36
1, 430400, Note_on_c, 0, 59, 0
1, 430400, Note_on_c, 0, 62, 38
1, 430560, Tempo, 348270
1, 430560, Note_on_c, 0, 62, 0
1, 430560, Note_on_c, 0, 77, 58
1, 430560, Note_on_c, 0, 55, 54
1, 430720, Note_on_c, 0, 55, 0
1, 430720, Note_on_c, 0, 59, 41
1, 430880, Note_on_c, 0, 59, 0
1, 430880, Note_on_c, 0, 62, 41
1, 430920, Tempo, 405296
1, 430920, Note_on_c, 0, 77, 0
1, 430920, Note_on_c, 0, 79, 55
1, 431040, Tempo, 348270
1, 431040, Note_on_c, 0, 79, 0
1, 431040, Note_on_c, 0, 62, 0
1, 431040, Note_on_c, 0, 76, 67
1, 431040, Note_on_c, 0, 55, 51
1, 431054, Control_c, 0, 64, 0
1, 431160, Note_on_c, 0, 76, 0
1, 431188, Control_c, 0, 64, 127
1, 431200, Note_on_c, 0, 55, 0
1, 431200, Note_on_c, 0, 60, 39
1, 431360, Note_on_c, 0, 60, 0
1, 431360, Note_on_c, 0, 64, 40
1, 431520, Tempo, 345662
1, 431520, Note_on_c, 0, 64, 0
1, 431520, Note_on_c, 0, 76, 58
1, 431520, Note_on_c, 0, 55, 47
1, 431680, Note_on_c, 0, 55, 0
1, 431680, Note_on_c, 0, 60, 39
1, 431840, Note_on_c, 0, 60, 0
1, 431840, Note_on_c, 0, 64, 39
1, 431880, Tempo, 402576
1, 431880, Note_on_c, 0, 76, 0
1, 431880, Note_on_c, 0, 77, 58
1, 432000, Tempo, 344372
1, 432000, Note_on_c, 0, 77, 0
1, 432000, Note_on_c, 0, 64, 0
1, 432000, Note_on_c, 0, 74, 68
1, 432000, Note_on_c, 0, 55, 47
1, 432012, Control_c, 0, 64, 0
1, 432099, Control_c, 0, 64, 127
1, 432120, Note_on_c, 0, 74, 0
1, 432160, Note_on_c, 0, 55, 0
1, 432160, Note_on_c, 0, 62, 39
1, 432320, Note_on_c, 0, 62, 0
1, 432320, Note_on_c, 0, 65, 39
1, 432480, Tempo, 349589
1, 432480, Note_on_c, 0, 65, 0
1, 432480, Note_on_c, 0, 74, 58
1, 432480, Note_on_c, 0, 55, 53
1, 432640, Note_on_c, 0, 55, 0
1, 432640, Note_on_c, 0, 62, 40
1, 432800, Note_on_c, 0, 62, 0
1, 432800, Note_on_c, 0, 65, 37
1, 432840, Tempo, 395935
1, 432840, Note_on_c, 0, 74, 0
1, 432840, Note_on_c, 0, 76, 54
1, 432960, Tempo, 343092
1, 432960, Note_on_c, 0, 76, 0
1, 432960, Note_on_c, 0, 65, 0
1, 432960, Note_on_c, 0, 72, 66
1, 432960, Note_on_c, 0, 57, 51
1, 432973, Control_c, 0, 64, 0
1, 433066, Control_c, 0, 64, 127
1, 433080, Note_on_c, 0, 72, 0
1, 433120, Note_on_c, 0, 57, 0
1, 433120, Note_on_c, 0, 60, 39
1, 433280, Note_on_c, 0, 60, 0
1, 433280, Note_on_c, 0, 64, 39
1, 433320, Tempo, 402576
1, 433440, Tempo, 347745
1, 433440, Note_on_c, 0, 64, 0
1, 433440, Note_on_c, 0, 72, 60
1, 433440, Note_on_c, 0, 57, 47
1, 433560, Note_on_c, 0, 72, 0
1, 433600, Note_on_c, 0, 57, 0
1, 433600, Note_on_c, 0, 60, 38
1, 433760, Note_on_c, 0, 60, 0
1, 433760, Note_on_c, 0, 64, 38
1, 433800, Tempo, 405296
1, 433920, Tempo, 345662
1, 433920, Note_on_c, 0, 64, 0
1, 433920, Note_on_c, 0, 74, 66
1, 433920, Note_on_c, 0, 53, 47
1, 433948, Control_c, 0, 64, 0
1, 434033, Control_c, 0, 64, 127
1, 434040, Note_on_c, 0, 74, 0
1, 434080, Note_on_c, 0, 53, 0
1, 434080, Note_on_c, 0, 57, 38
1, 434240, Note_on_c, 0, 57, 0
1, 434240, Note_on_c, 0, 62, 39
1, 434400, Tempo, 354946
1, 434400, Note_on_c, 0, 62, 0
1, 434400, Note_on_c, 0, 74, 60
1, 434400, Note_on_c, 0, 53, 47
1, 434520, Note_on_c, 0, 74, 0
1, 434560, Note_on_c, 0, 53, 0
1, 434560, Note_on_c, 0, 57, 39
1, 434720, Note_on_c, 0, 57, 0
1, 434720, Note_on_c, 0, 62, 39
1, 434880, Tempo, 344372
1, 434880, Note_on_c, 0, 62, 0
1, 434880, Note_on_c, 0, 71, 67
1, 434880, Note_on_c, 0, 55, 47
1, 434892, Control_c, 0, 64, 0
1, 434986, Control_c, 0, 64, 127
1, 435000, Note_on_c, 0, 71, 0
1, 435040, Note_on_c, 0, 55, 0
1, 435040, Note_on_c, 0, 62, 36
1, 435200, Note_on_c, 0, 62, 0
1, 435200, Note_on_c, 0, 65, 36
1, 435360, Tempo, 388249
1, 435360, Note_on_c, 0, 65, 0
1, 435360, Note_on_c, 0, 71, 60
1, 435360, Note_on_c, 0, 55, 47
1, 435480, Note_on_c, 0, 71, 0
1, 435520, Note_on_c, 0, 55, 0
1, 435520, Note_on_c, 0, 62, 37
1, 435680, Note_on_c, 0, 62, 0
1, 435680, Note_on_c, 0, 65, 38
1, 435840, Tempo, 354946
1, 435840, Note_on_c, 0, 65, 0
1, 435840, Note_on_c, 0, 72, 87
1, 435840, Note_on_c, 0, 60, 70
1, 435851, Control_c, 0, 64, 0
1, 435939, Control_c, 0, 64, 127
1, 436000, Note_on_c, 0, 60, 0
1, 436000, Note_on_c, 0, 64, 52
1, 436160, Note_on_c, 0, 64, 0
1, 436160, Note_on_c, 0, 67, 51
1, 436320, Note_on_c, 0, 67, 0
1, 436320, Note_on_c, 0, 72, 0
1, 436320, Note_on_c, 0, 60, 65
1, 436480, Note_on_c, 0, 60, 0
1, 436480, Note_on_c, 0, 64, 51
1, 436640, Note_on_c, 0, 64, 0
1, 436640, Note_on_c, 0, 67, 51
1, 436800, Tempo, 356316
1, 436800, Note_on_c, 0, 67, 0
1, 436800, Note_on_c, 0, 60, 68
1, 436960, Note_on_c, 0, 60, 0
1, 436960, Note_on_c, 0, 64, 55
1, 437120, Note_on_c, 0, 64, 0
1, 437120, Note_on_c, 0, 67, 55
1, 437280, Tempo, 353586
1, 437280, Note_on_c, 0, 67, 0
1, 437280, Note_on_c, 0, 79, 79
1, 437280, Note_on_c, 0, 55, 69
1, 437294, Control_c, 0, 64, 0
1, 437407, Control_c, 0, 64, 127
1, 437440, Note_on_c, 0, 55, 0
1, 437440, Note_on_c, 0, 59, 57
1, 437600, Note_on_c, 0, 59, 0
1, 437600, Note_on_c, 0, 67, 58
1, 437640, Note_on_c, 0, 79, 0
1, 437640, Note_on_c, 0, 83, 78
1, 437760, Tempo, 354946
1, 437760, Note_on_c, 0, 83, 0
1, 437760, Note_on_c, 0, 67, 0
1, 437760, Note_on_c, 0, 84, 91
1, 437760, Note_on_c, 0, 60, 79
1, 437760, Control_c, 0, 64, 0
1, 437866, Control_c, 0, 64, 127
1, 437880, Note_on_c, 0, 84, 0
1, 437920, Note_on_c, 0, 60, 0
1, 437920, Note_on_c, 0, 64, 59
1, 438080, Note_on_c, 0, 64, 0
1, 438080, Note_on_c, 0, 67, 59
1, 438240, Note_on_c, 0, 67, 0
1, 438240, Note_on_c, 0, 84, 80
1, 438240, Note_on_c, 0, 60, 66
1, 438360, Note_on_c, 0, 84, 0
1, 438400, Note_on_c, 0, 60, 0
1, 438400, Note_on_c, 0, 64, 55
1, 438560, Note_on_c, 0, 64, 0
1, 438560, Note_on_c, 0, 67, 55
1, 438720, Tempo, 356316
1, 438720, Note_on_c, 0, 67, 0
1, 438720, Note_on_c, 0, 84, 79
1, 438720, Note_on_c, 0, 60, 67
1, 438840, Note_on_c, 0, 84, 0
1, 438880, Note_on_c, 0, 60, 0
1, 438880, Note_on_c, 0, 64, 55
1, 439040, Note_on_c, 0, 64, 0
1, 439040, Note_on_c, 0, 67, 54
1, 439200, Tempo, 353586
1, 439200, Note_on_c, 0, 67, 0
1, 439200, Note_on_c, 0, 88, 87
1, 439200, Note_on_c, 0, 55, 70
1, 439209, Control_c, 0, 64, 0
1, 439292, Control_c, 0, 64, 127
1, 439320, Note_on_c, 0, 88, 0
1, 439320, Note_on_c, 0, 86, 82
1, 439360, Note_on_c, 0, 55, 0
1, 439360, Note_on_c, 0, 59, 58
1, 439440, Note_on_c, 0, 86, 0
1, 439440, Note_on_c, 0, 84, 82
1, 439520, Note_on_c, 0, 59, 0
1, 439520, Note_on_c, 0, 67, 56
1, 439560, Note_on_c, 0, 84, 0
1, 439560, Note_on_c, 0, 86, 82
1, 439680, Tempo, 354946
1, 439680, Note_on_c, 0, 86, 0
1, 439680, Note_on_c, 0, 67, 0
1, 439680, Note_on_c, 0, 88, 91
1, 439680, Note_on_c, 0, 60, 79
1, 439691, Control_c, 0, 64, 0
1, 439779, Control_c, 0, 64, 127
1, 439800, Note_on_c, 0, 88, 0
1, 439840, Note_on_c, 0, 60, 0
1, 439840, Note_on_c, 0, 64, 60
1, 440000, Note_on_c, 0, 64, 0
1, 440000, Note_on_c, 0, 67, 58
1, 440160, Note_on_c, 0, 67, 0
1, 440160, Note_on_c, 0, 84, 76
1, 440160, Note_on_c, 0, 60, 74
1, 440280, Note_on_c, 0, 84, 0
1, 440320, Note_on_c, 0, 60, 0
1, 440320, Note_on_c, 0, 64, 59
1, 440480, Note_on_c, 0, 64, 0
1, 440480, Note_on_c, 0, 67, 60
1, 440640, Tempo, 356316
1, 440640, Note_on_c, 0, 67, 0
1, 440640, Note_on_c, 0, 84, 76
1, 440640, Note_on_c, 0, 60, 71
1, 440760, Note_on_c, 0, 84, 0
1, 440800, Note_on_c, 0, 60, 0
1, 440800, Note_on_c, 0, 64, 59
1, 440960, Note_on_c, 0, 64, 0
1, 440960, Note_on_c, 0, 67, 59
1, 441120, Tempo, 353586
1, 441120, Note_on_c, 0, 67, 0
1, 441120, Note_on_c, 0, 79, 81
1, 441120, Note_on_c, 0, 55, 75
1, 441134, Control_c, 0, 64, 0
1, 441247, Control_c, 0, 64, 127
1, 441280, Note_on_c, 0, 55, 0
1, 441280, Note_on_c, 0, 59, 60
1, 441440, Note_on_c, 0, 59, 0
1, 441440, Note_on_c, 0, 67, 60
1, 441480, Note_on_c, 0, 79, 0
1, 441480, Note_on_c, 0, 83, 81
1, 441600, Tempo, 354946
1, 441600, Note_on_c, 0, 83, 0
1, 441600, Note_on_c, 0, 67, 0
1, 441600, Note_on_c, 0, 84, 91
1, 441600, Note_on_c, 0, 60, 74
1, 441600, Control_c, 0, 64, 0
1, 441706, Control_c, 0, 64, 127
1, 441720, Note_on_c, 0, 84, 0
1, 441760, Note_on_c, 0, 60, 0
1, 441760, Note_on_c, 0, 64, 55
1, 441920, Note_on_c, 0, 64, 0
1, 441920, Note_on_c, 0, 67, 55
1, 442080, Note_on_c, 0, 67, 0
1, 442080, Note_on_c, 0, 84, 81
1, 442080, Note_on_c, 0, 60, 74
1, 442200, Note_on_c, 0, 84, 0
1, 442240, Note_on_c, 0, 60, 0
1, 442240, Note_on_c, 0, 64, 57
1, 442400, Note_on_c, 0, 64, 0
1, 442400, Note_on_c, 0, 67, 57
1, 442560, Tempo, 356316
1, 442560, Note_on_c, 0, 67, 0
1, 442560, Note_on_c, 0, 84, 81
1, 442560, Note_on_c, 0, 60, 74
1, 442680, Note_on_c, 0, 84, 0
1, 442720, Note_on_c, 0, 60, 0
1, 442720, Note_on_c, 0, 64, 57
1, 442800, Note_on_c, 0, 88, 77
1, 442880, Note_on_c, 0, 88, 0
1, 442880, Note_on_c, 0, 64, 0
1, 442880, Note_on_c, 0, 86, 72
1, 442880, Note_on_c, 0, 67, 57
1, 442960, Note_on_c, 0, 86, 0
1, 442960, Note_on_c, 0, 84, 72
1, 443040, Tempo, 353586
1, 443040, Note_on_c, 0, 84, 0
1, 443040, Note_on_c, 0, 67, 0
1, 443040, Note_on_c, 0, 86, 86
1, 443040, Note_on_c, 0, 55, 74
1, 443049, Control_c, 0, 64, 0
1, 443132, Control_c, 0, 64, 127
1, 443200, Note_on_c, 0, 55, 0
1, 443200, Note_on_c, 0, 59, 62
1, 443360, Note_on_c, 0, 59, 0
1, 443360, Note_on_c, 0, 67, 62
1, 443400, Note_on_c, 0, 86, 0
1, 443400, Note_on_c, 0, 88, 81
1, 443520, Tempo, 354946
1, 443520, Note_on_c, 0, 88, 0
1, 443520, Note_on_c, 0, 67, 0
1, 443520, Note_on_c, 0, 84, 87
1, 443520, Note_on_c, 0, 60, 70
1, 443531, Control_c, 0, 64, 0
1, 443661, Control_c, 0, 64, 127
1, 443680, Note_on_c, 0, 60, 0
1, 443680, Note_on_c, 0, 64, 41
1, 443840, Note_on_c, 0, 64, 0
1, 443840, Note_on_c, 0, 67, 41
1, 444000, Note_on_c, 0, 67, 0
1, 444000, Note_on_c, 0, 84, 0
1, 444000, Note_on_c, 0, 60, 49
1, 444160, Note_on_c, 0, 60, 0
1, 444160, Note_on_c, 0, 64, 37
1, 444320, Note_on_c, 0, 64, 0
1, 444320, Note_on_c, 0, 67, 36
1, 444480, Tempo, 356316
1, 444480, Note_on_c, 0, 67, 0
1, 444480, Note_on_c, 0, 60, 45
1, 444640, Note_on_c, 0, 60, 0
1, 444640, Note_on_c, 0, 64, 34
1, 444800, Note_on_c, 0, 64, 0
1, 444800, Note_on_c, 0, 67, 34
1, 444960, Tempo, 353586
1, 444960, Note_on_c, 0, 67, 0
1, 444960, Note_on_c, 0, 79, 63
1, 444960, Note_on_c, 0, 55, 41
1, 444974, Control_c, 0, 64, 0
1, 445087, Control_c, 0, 64, 127
1, 445120, Note_on_c, 0, 55, 0
1, 445120, Note_on_c, 0, 59, 34
1, 445280, Note_on_c, 0, 59, 0
1, 445280, Note_on_c, 0, 67, 34
1, 445320, Note_on_c, 0, 79, 0
1, 445320, Note_on_c, 0, 83, 62
1, 445440, Tempo, 354946
1, 445440, Note_on_c, 0, 83, 0
1, 445440, Note_on_c, 0, 67, 0
1, 445440, Note_on_c, 0, 84, 72
1, 445440, Note_on_c, 0, 60, 47
1, 445440, Control_c, 0, 64, 0
1, 445546, Control_c, 0, 64, 127
1, 445560, Note_on_c, 0, 84, 0
1, 445600, Note_on_c, 0, 60, 0
1, 445600, Note_on_c, 0, 64, 35
1, 445760, Note_on_c, 0, 64, 0
1, 445760, Note_on_c, 0, 67, 35
1, 445920, Note_on_c, 0, 67, 0
1, 445920, Note_on_c, 0, 84, 64
1, 445920, Note_on_c, 0, 60, 39
1, 446040, Note_on_c, 0, 84, 0
1, 446080, Note_on_c, 0, 60, 0
1, 446080, Note_on_c, 0, 64, 33
1, 446240, Note_on_c, 0, 64, 0
1, 446240, Note_on_c, 0, 67, 33
1, 446400, Tempo, 356316
1, 446400, Note_on_c, 0, 67, 0
1, 446400, Note_on_c, 0, 84, 63
1, 446400, Note_on_c, 0, 60, 40
1, 446520, Note_on_c, 0, 84, 0
1, 446560, Note_on_c, 0, 60, 0
1, 446560, Note_on_c, 0, 64, 33
1, 446720, Note_on_c, 0, 64, 0
1, 446720, Note_on_c, 0, 67, 33
1, 446880, Tempo, 353586
1, 446880, Note_on_c, 0, 67, 0
1, 446880, Note_on_c, 0, 88, 69
1, 446880, Note_on_c, 0, 55, 42
1, 446889, Control_c, 0, 64, 0
1, 446972, Control_c, 0, 64, 127
1, 447000, Note_on_c, 0, 88, 0
1, 447000, Note_on_c, 0, 86, 65
1, 447040, Note_on_c, 0, 55, 0
1, 447040, Note_on_c, 0, 59, 34
1, 447120, Note_on_c, 0, 86, 0
1, 447120, Note_on_c, 0, 84, 65
1, 447200, Note_on_c, 0, 59, 0
1, 447200, Note_on_c, 0, 67, 34
1, 447240, Note_on_c, 0, 84, 0
1, 447240, Note_on_c, 0, 86, 65
1, 447360, Tempo, 354946
1, 447360, Note_on_c, 0, 86, 0
1, 447360, Note_on_c, 0, 67, 0
1, 447360, Note_on_c, 0, 88, 72
1, 447360, Note_on_c, 0, 60, 47
1, 447371, Control_c, 0, 64, 0
1, 447459, Control_c, 0, 64, 127
1, 447480, Note_on_c, 0, 88, 0
1, 447520, Note_on_c, 0, 60, 0
1, 447520, Note_on_c, 0, 64, 36
1, 447680, Note_on_c, 0, 64, 0
1, 447680, Note_on_c, 0, 67, 34
1, 447840, Note_on_c, 0, 67, 0
1, 447840, Note_on_c, 0, 84, 60
1, 447840, Note_on_c, 0, 60, 44
1, 447960, Note_on_c, 0, 84, 0
1, 448000, Note_on_c, 0, 60, 0
1, 448000, Note_on_c, 0, 64, 35
1, 448160, Note_on_c, 0, 64, 0
1, 448160, Note_on_c, 0, 67, 36
1, 448320, Tempo, 356316
1, 448320, Note_on_c, 0, 67, 0
1, 448320, Note_on_c, 0, 84, 60
1, 448320, Note_on_c, 0, 60, 42
1, 448440, Note_on_c, 0, 84, 0
1, 448480, Note_on_c, 0, 60, 0
1, 448480, Note_on_c, 0, 64, 35
1, 448640, Note_on_c, 0, 64, 0
1, 448640, Note_on_c, 0, 67, 35
1, 448800, Tempo, 353586
1, 448800, Note_on_c, 0, 67, 0
1, 448800, Note_on_c, 0, 79, 64
1, 448800, Note_on_c, 0, 55, 45
1, 448814, Control_c, 0, 64, 0
1, 448927, Control_c, 0, 64, 127
1, 448960, Note_on_c, 0, 55, 0
1, 448960, Note_on_c, 0, 59, 36
1, 449120, Note_on_c, 0, 59, 0
1, 449120, Note_on_c, 0, 67, 36
1, 449160, Note_on_c, 0, 79, 0
1, 449160, Note_on_c, 0, 83, 64
1, 449280, Tempo, 354946
1, 449280, Note_on_c, 0, 83, 0
1, 449280, Note_on_c, 0, 67, 0
1, 449280, Note_on_c, 0, 84, 72
1, 449280, Note_on_c, 0, 60, 44
1, 449280, Control_c, 0, 64, 0
1, 449386, Control_c, 0, 64, 127
1, 449400, Note_on_c, 0, 84, 0
1, 449440, Note_on_c, 0, 60, 0
1, 449440, Note_on_c, 0, 64, 33
1, 449600, Note_on_c, 0, 64, 0
1, 449600, Note_on_c, 0, 67, 33
1, 449760, Note_on_c, 0, 67, 0
1, 449760, Note_on_c, 0, 84, 64
1, 449760, Note_on_c, 0, 60, 44
1, 449880, Note_on_c, 0, 84, 0
1, 449920, Note_on_c, 0, 60, 0
1, 449920, Note_on_c, 0, 64, 34
1, 450080, Note_on_c, 0, 64, 0
1, 450080, Note_on_c, 0, 67, 34
1, 450240, Tempo, 356316
1, 450240, Note_on_c, 0, 67, 0
1, 450240, Note_on_c, 0, 84, 64
1, 450240, Note_on_c, 0, 60, 44
1, 450360, Note_on_c, 0, 84, 0
1, 450400, Note_on_c, 0, 60, 0
1, 450400, Note_on_c, 0, 64, 34
1, 450480, Note_on_c, 0, 88, 61
1, 450560, Note_on_c, 0, 88, 0
1, 450560, Note_on_c, 0, 64, 0
1, 450560, Note_on_c, 0, 86, 57
1, 450560, Note_on_c, 0, 67, 34
1, 450640, Note_on_c, 0, 86, 0
1, 450640, Note_on_c, 0, 84, 57
1, 450720, Tempo, 353586
1, 450720, Note_on_c, 0, 84, 0
1, 450720, Note_on_c, 0, 67, 0
1, 450720, Note_on_c, 0, 86, 68
1, 450720, Note_on_c, 0, 55, 44
1, 450729, Control_c, 0, 64, 0
1, 450812, Control_c, 0, 64, 127
1, 450880, Note_on_c, 0, 55, 0
1, 450880, Note_on_c, 0, 59, 37
1, 451040, Note_on_c, 0, 59, 0
1, 451040, Note_on_c, 0, 67, 37
1, 451080, Note_on_c, 0, 86, 0
1, 451080, Note_on_c, 0, 88, 64
1, 451200, Tempo, 354946
1, 451200, Note_on_c, 0, 88, 0
1, 451200, Note_on_c, 0, 67, 0
1, 451200, Note_on_c, 0, 84, 70
1, 451200, Note_on_c, 0, 60, 62
1, 451200, Control_c, 0, 64, 0
1, 451306, Control_c, 0, 64, 127
1, 451360, Note_on_c, 0, 60, 0
1, 451360, Note_on_c, 0, 64, 44
1, 451520, Note_on_c, 0, 64, 0
1, 451520, Note_on_c, 0, 67, 47
1, 451680, Tempo, 357143
1, 451680, Note_on_c, 0, 67, 0
1, 451680, Note_on_c, 0, 84, 0
1, 451680, Note_on_c, 0, 60, 65
1, 451840, Note_on_c, 0, 60, 0
1, 451840, Note_on_c, 0, 64, 50
1, 452000, Note_on_c, 0, 64, 0
1, 452000, Note_on_c, 0, 67, 54
1, 452160, Tempo, 352941
1, 452160, Note_on_c, 0, 67, 0
1, 452160, Note_on_c, 0, 79, 81
1, 452160, Note_on_c, 0, 76, 68
1, 452160, Note_on_c, 0, 60, 69
1, 452320, Note_on_c, 0, 60, 0
1, 452320, Note_on_c, 0, 64, 56
1, 452480, Note_on_c, 0, 64, 0
1, 452480, Note_on_c, 0, 67, 56
1, 452640, Note_on_c, 0, 67, 0
1, 452640, Note_on_c, 0, 76, 0
1, 452640, Note_on_c, 0, 79, 0
1, 452640, Note_on_c, 0, 60, 69
1, 452800, Note_on_c, 0, 60, 0
1, 452800, Note_on_c, 0, 64, 58
1, 452960, Note_on_c, 0, 64, 0
1, 452960, Note_on_c, 0, 67, 58
1, 453120, Tempo, 354946
1, 453120, Note_on_c, 0, 67, 0
1, 453120, Note_on_c, 0, 76, 79
1, 453120, Note_on_c, 0, 72, 67
1, 453120, Note_on_c, 0, 60, 70
1, 453280, Note_on_c, 0, 60, 0
1, 453280, Note_on_c, 0, 64, 56
1, 453440, Note_on_c, 0, 64, 0
1, 453440, Note_on_c, 0, 67, 56
1, 453600, Note_on_c, 0, 67, 0
1, 453600, Note_on_c, 0, 72, 0
1, 453600, Note_on_c, 0, 76, 0
1, 453600, Note_on_c, 0, 60, 67
1, 453602, Tempo, 359195
1, 453760, Note_on_c, 0, 60, 0
1, 453760, Note_on_c, 0, 64, 52
1, 453920, Tempo, 456274
1, 453920, Note_on_c, 0, 64, 0
1, 453920, Note_on_c, 0, 67, 52
1, 454062, Tempo, 366883
1, 454080, Note_on_c, 0, 67, 0
1, 454080, Note_on_c, 0, 52, 63
1, 454080, Note_on_c, 0, 55, 75
1, 454080, Note_on_c, 0, 60, 68
1, 454240, Note_on_c, 0, 60, 0
1, 454240, Note_on_c, 0, 64, 52
1, 454400, Note_on_c, 0, 64, 0
1, 454400, Note_on_c, 0, 67, 52
1, 454542, Tempo, 376081
1, 454560, Note_on_c, 0, 67, 0
1, 454560, Note_on_c, 0, 55, 0
1, 454560, Note_on_c, 0, 52, 0
1, 454560, Note_on_c, 0, 60, 66
1, 454581, Tempo, 377264
1, 454600, Tempo, 378453
1, 454619, Tempo, 379651
1, 454638, Tempo, 380856
1, 454658, Tempo, 382068
1, 454677, Tempo, 383289
1, 454696, Tempo, 384517
1, 454715, Tempo, 385753
1, 454720, Note_on_c, 0, 60, 0
1, 454720, Note_on_c, 0, 64, 52
1, 454734, Tempo, 386997
1, 454754, Tempo, 388249
1, 454773, Tempo, 389509
1, 454792, Tempo, 390778
1, 454811, Tempo, 392054
1, 454830, Tempo, 393339
1, 454850, Tempo, 394633
1, 454880, Tempo, 582524
1, 454880, Note_on_c, 0, 64, 0
1, 454880, Note_on_c, 0, 67, 52
1, 455040, Tempo, 454545
1, 455040, Note_on_c, 0, 67, 0
1, 455040, Note_on_c, 0, 52, 70
1, 455040, Note_on_c, 0, 48, 59
1, 455040, Note_on_c, 0, 60, 82
1, 455520, Note_on_c, 0, 60, 0
1, 455520, Note_on_c, 0, 48, 0
1, 455520, Note_on_c, 0, 52, 0
1, 455680, Control_c, 0, 64, 0
1, 455680, End_track
0, 0, End_of_file
