0, 0, Header, 0, 1, 480
1, 0, Start_track
1, 0, Title_t, "Sonate XVI:35 2. Satz"
1, 0, Copyright_t, "Copyright © 2009 by Bernd Krueger"
1, 0, Text_t, "Joseph Haydn"
1, 0, Text_t, "Adagio"
1, 0, Text_t, "Erstellt: 18.1.2009\012"
1, 0, Text_t, "Update: 5.12.2011\012"
1, 0, Text_t, "Dauer: 6:35 Minuten\012"
1, 0, Time_signature, 4, 2, 24, 8
1, 0, Key_signature, -1, "major"
1, 0, Tempo, 500000
1, 0, Program_c, 0, 0
1, 0, Program_c, 0, 0
1, 0, Program_c, 0, 0
1, 1440, Tempo, 1212121
1, 1680, Marker_t, "Teil 1"
1, 1875, Note_on_c, 0, 41, 45
1, 1890, Note_on_c, 0, 45, 48
1, 1905, Note_on_c, 0, 48, 51
1, 1920, Tempo, 1200000
1, 1920, Note_on_c, 0, 57, 51
1, 1920, Note_on_c, 0, 65, 60
1, 1920, Note_on_c, 0, 60, 51
1, 1920, Note_on_c, 0, 53, 53
1, 1920, Control_c, 0, 64, 127
1, 2040, Note_on_c, 0, 53, 0
1, 2040, Note_on_c, 0, 57, 0
1, 2040, Note_on_c, 0, 45, 0
1, 2040, Note_on_c, 0, 48, 0
1, 2040, Note_on_c, 0, 41, 0
1, 2040, Note_on_c, 0, 60, 0
1, 2280, Note_on_c, 0, 65, 0
1, 2280, Note_on_c, 0, 60, 56
1, 2400, Tempo, 1188119
1, 2400, Note_on_c, 0, 60, 0
1, 2400, Note_on_c, 0, 70, 60
1, 2410, Control_c, 0, 64, 0
1, 2520, Note_on_c, 0, 70, 0
1, 2520, Note_on_c, 0, 69, 54
1, 2580, Tempo, 1176471
1, 2640, Note_on_c, 0, 69, 0
1, 2640, Note_on_c, 0, 67, 54
1, 2760, Tempo, 1250000
1, 2760, Note_on_c, 0, 67, 0
1, 2760, Note_on_c, 0, 65, 54
1, 2880, Tempo, 1200000
1, 2880, Note_on_c, 0, 65, 0
1, 2880, Note_on_c, 0, 64, 60
1, 2880, Note_on_c, 0, 55, 42
1, 2880, Note_on_c, 0, 48, 42
1, 2880, Note_on_c, 0, 58, 50
1, 3000, Note_on_c, 0, 58, 0
1, 3000, Note_on_c, 0, 64, 0
1, 3000, Note_on_c, 0, 55, 0
1, 3000, Note_on_c, 0, 48, 0
1, 3120, Note_on_c, 0, 65, 57
1, 3240, Note_on_c, 0, 65, 0
1, 3360, Note_on_c, 0, 67, 60
1, 3480, Note_on_c, 0, 67, 0
1, 3600, Tempo, 1263158
1, 3600, Note_on_c, 0, 69, 55
1, 3720, Note_on_c, 0, 69, 0
1, 3795, Note_on_c, 0, 52, 45
1, 3810, Note_on_c, 0, 55, 48
1, 3825, Note_on_c, 0, 58, 51
1, 3840, Tempo, 1212121
1, 3840, Note_on_c, 0, 67, 51
1, 3840, Note_on_c, 0, 64, 51
1, 3840, Note_on_c, 0, 70, 60
1, 3840, Note_on_c, 0, 60, 53
1, 3840, Control_c, 0, 64, 127
1, 3960, Note_on_c, 0, 60, 0
1, 3960, Note_on_c, 0, 55, 0
1, 3960, Note_on_c, 0, 67, 0
1, 3960, Note_on_c, 0, 58, 0
1, 3960, Note_on_c, 0, 52, 0
1, 3960, Note_on_c, 0, 64, 0
1, 4200, Note_on_c, 0, 70, 0
1, 4200, Note_on_c, 0, 67, 56
1, 4320, Tempo, 1188119
1, 4320, Note_on_c, 0, 67, 0
1, 4320, Note_on_c, 0, 76, 60
1, 4331, Control_c, 0, 64, 0
1, 4440, Note_on_c, 0, 76, 0
1, 4440, Note_on_c, 0, 74, 54
1, 4500, Tempo, 1200000
1, 4560, Note_on_c, 0, 74, 0
1, 4560, Note_on_c, 0, 72, 54
1, 4680, Tempo, 1250000
1, 4680, Note_on_c, 0, 72, 0
1, 4680, Note_on_c, 0, 70, 54
1, 4800, Tempo, 1212121
1, 4800, Note_on_c, 0, 70, 0
1, 4800, Note_on_c, 0, 69, 60
1, 4800, Note_on_c, 0, 60, 50
1, 4800, Note_on_c, 0, 53, 42
1, 4920, Note_on_c, 0, 53, 0
1, 4920, Note_on_c, 0, 60, 0
1, 4920, Note_on_c, 0, 69, 0
1, 5040, Note_on_c, 0, 70, 57
1, 5160, Note_on_c, 0, 70, 0
1, 5280, Note_on_c, 0, 72, 60
1, 5400, Note_on_c, 0, 72, 0
1, 5520, Tempo, 1250000
1, 5520, Note_on_c, 0, 73, 61
1, 5640, Note_on_c, 0, 73, 0
1, 5760, Tempo, 1200000
1, 5760, Note_on_c, 0, 74, 55
1, 5760, Note_on_c, 0, 65, 44
1, 5760, Note_on_c, 0, 58, 44
1, 5792, Control_c, 0, 64, 127
1, 6120, Note_on_c, 0, 74, 0
1, 6120, Note_on_c, 0, 76, 48
1, 6240, Note_on_c, 0, 76, 0
1, 6240, Note_on_c, 0, 79, 55
1, 6246, Control_c, 0, 64, 0
1, 6303, Control_c, 0, 64, 127
1, 6360, Note_on_c, 0, 79, 0
1, 6360, Note_on_c, 0, 77, 51
1, 6480, Note_on_c, 0, 77, 0
1, 6480, Note_on_c, 0, 76, 51
1, 6600, Note_on_c, 0, 76, 0
1, 6600, Note_on_c, 0, 74, 51
1, 6720, Tempo, 1250000
1, 6720, Note_on_c, 0, 74, 0
1, 6720, Note_on_c, 0, 58, 0
1, 6720, Note_on_c, 0, 72, 55
1, 6720, Note_on_c, 0, 57, 44
1, 6722, Control_c, 0, 64, 0
1, 6900, Note_on_c, 0, 72, 0
1, 6960, Tempo, 1200000
1, 6960, Note_on_c, 0, 57, 0
1, 6960, Note_on_c, 0, 65, 0
1, 6960, Note_on_c, 0, 72, 49
1, 7200, Note_on_c, 0, 72, 0
1, 7200, Note_on_c, 0, 70, 49
1, 7230, Note_on_c, 0, 70, 0
1, 7230, Note_on_c, 0, 72, 44
1, 7241, Control_c, 0, 64, 127
1, 7260, Note_on_c, 0, 72, 0
1, 7260, Note_on_c, 0, 70, 49
1, 7290, Note_on_c, 0, 70, 0
1, 7290, Note_on_c, 0, 72, 42
1, 7320, Note_on_c, 0, 72, 0
1, 7320, Note_on_c, 0, 70, 49
1, 7360, Note_on_c, 0, 70, 0
1, 7360, Note_on_c, 0, 72, 45
1, 7400, Note_on_c, 0, 72, 0
1, 7400, Note_on_c, 0, 70, 45
1, 7440, Tempo, 1263158
1, 7440, Note_on_c, 0, 70, 0
1, 7440, Note_on_c, 0, 69, 49
1, 7445, Control_c, 0, 64, 0
1, 7491, Control_c, 0, 64, 127
1, 7680, Tempo, 1200000
1, 7680, Note_on_c, 0, 69, 0
1, 7680, Note_on_c, 0, 67, 54
1, 7680, Note_on_c, 0, 58, 43
1, 7680, Note_on_c, 0, 46, 43
1, 7680, Control_c, 0, 64, 0
1, 7860, Note_on_c, 0, 67, 0
1, 7920, Note_on_c, 0, 69, 49
1, 7980, Note_on_c, 0, 69, 0
1, 7980, Note_on_c, 0, 67, 43
1, 8040, Note_on_c, 0, 67, 0
1, 8040, Note_on_c, 0, 66, 44
1, 8100, Note_on_c, 0, 66, 0
1, 8100, Note_on_c, 0, 67, 44
1, 8160, Note_on_c, 0, 67, 0
1, 8160, Note_on_c, 0, 70, 49
1, 8180, Control_c, 0, 64, 127
1, 8400, Tempo, 1263158
1, 8400, Note_on_c, 0, 70, 0
1, 8400, Note_on_c, 0, 74, 44
1, 8640, Tempo, 1212121
1, 8640, Note_on_c, 0, 74, 0
1, 8640, Note_on_c, 0, 46, 0
1, 8640, Note_on_c, 0, 58, 0
1, 8640, Note_on_c, 0, 65, 44
1, 8640, Note_on_c, 0, 48, 37
1, 8640, Note_on_c, 0, 57, 37
1, 8657, Control_c, 0, 64, 0
1, 8715, Control_c, 0, 64, 127
1, 9120, Note_on_c, 0, 57, 0
1, 9120, Note_on_c, 0, 55, 33
1, 9360, Tempo, 1290323
1, 9360, Note_on_c, 0, 65, 0
1, 9360, Note_on_c, 0, 64, 42
1, 9374, Control_c, 0, 64, 0
1, 9420, Note_on_c, 0, 64, 0
1, 9420, Note_on_c, 0, 65, 38
1, 9480, Note_on_c, 0, 65, 0
1, 9480, Note_on_c, 0, 64, 42
1, 9540, Note_on_c, 0, 55, 0
1, 9540, Note_on_c, 0, 48, 0
1, 9555, Note_on_c, 0, 41, 45
1, 9570, Note_on_c, 0, 45, 48
1, 9585, Note_on_c, 0, 48, 51
1, 9600, Tempo, 1224490
1, 9600, Note_on_c, 0, 64, 0
1, 9600, Note_on_c, 0, 65, 60
1, 9600, Note_on_c, 0, 57, 51
1, 9600, Note_on_c, 0, 60, 51
1, 9600, Note_on_c, 0, 53, 53
1, 9664, Control_c, 0, 64, 127
1, 9720, Note_on_c, 0, 53, 0
1, 9720, Note_on_c, 0, 57, 0
1, 9720, Note_on_c, 0, 45, 0
1, 9720, Note_on_c, 0, 48, 0
1, 9720, Note_on_c, 0, 41, 0
1, 9720, Note_on_c, 0, 60, 0
1, 9960, Note_on_c, 0, 65, 0
1, 9960, Note_on_c, 0, 60, 56
1, 10080, Tempo, 1188119
1, 10080, Note_on_c, 0, 60, 0
1, 10080, Note_on_c, 0, 70, 60
1, 10087, Control_c, 0, 64, 0
1, 10133, Control_c, 0, 64, 127
1, 10200, Note_on_c, 0, 70, 0
1, 10200, Note_on_c, 0, 69, 54
1, 10320, Note_on_c, 0, 69, 0
1, 10320, Note_on_c, 0, 67, 54
1, 10336, Control_c, 0, 64, 0
1, 10377, Control_c, 0, 64, 127
1, 10440, Tempo, 1263158
1, 10440, Note_on_c, 0, 67, 0
1, 10440, Note_on_c, 0, 65, 54
1, 10560, Tempo, 1176471
1, 10560, Note_on_c, 0, 65, 0
1, 10560, Note_on_c, 0, 64, 60
1, 10560, Note_on_c, 0, 58, 50
1, 10560, Note_on_c, 0, 48, 42
1, 10574, Control_c, 0, 64, 0
1, 10634, Control_c, 0, 64, 127
1, 10740, Tempo, 1263158
1, 10740, Note_on_c, 0, 64, 0
1, 10740, Note_on_c, 0, 60, 53
1, 10800, Tempo, 1176471
1, 10800, Note_on_c, 0, 60, 0
1, 10800, Note_on_c, 0, 58, 0
1, 10800, Note_on_c, 0, 65, 57
1, 10800, Note_on_c, 0, 57, 50
1, 10810, Control_c, 0, 64, 0
1, 10850, Control_c, 0, 64, 127
1, 10980, Tempo, 1276596
1, 10980, Note_on_c, 0, 65, 0
1, 10980, Note_on_c, 0, 60, 53
1, 11040, Tempo, 1176471
1, 11040, Note_on_c, 0, 60, 0
1, 11040, Note_on_c, 0, 57, 0
1, 11040, Note_on_c, 0, 67, 60
1, 11040, Note_on_c, 0, 55, 50
1, 11050, Control_c, 0, 64, 0
1, 11090, Control_c, 0, 64, 127
1, 11220, Tempo, 1263158
1, 11220, Note_on_c, 0, 67, 0
1, 11220, Note_on_c, 0, 60, 53
1, 11280, Tempo, 1176471
1, 11280, Note_on_c, 0, 60, 0
1, 11280, Note_on_c, 0, 55, 0
1, 11280, Note_on_c, 0, 69, 55
1, 11280, Note_on_c, 0, 53, 50
1, 11294, Control_c, 0, 64, 0
1, 11340, Control_c, 0, 64, 127
1, 11400, Tempo, 1212121
1, 11460, Tempo, 1318681
1, 11460, Note_on_c, 0, 69, 0
1, 11460, Note_on_c, 0, 60, 53
1, 11520, Tempo, 1188119
1, 11520, Note_on_c, 0, 60, 0
1, 11520, Note_on_c, 0, 53, 0
1, 11520, Note_on_c, 0, 70, 60
1, 11520, Note_on_c, 0, 55, 53
1, 11520, Note_on_c, 0, 52, 48
1, 11520, Control_c, 0, 64, 0
1, 11629, Control_c, 0, 64, 127
1, 11880, Note_on_c, 0, 70, 0
1, 11880, Note_on_c, 0, 67, 56
1, 12000, Tempo, 1188119
1, 12000, Note_on_c, 0, 67, 0
1, 12000, Note_on_c, 0, 76, 60
1, 12011, Control_c, 0, 64, 0
1, 12120, Note_on_c, 0, 76, 0
1, 12120, Note_on_c, 0, 74, 54
1, 12240, Tempo, 1153846
1, 12240, Note_on_c, 0, 74, 0
1, 12240, Note_on_c, 0, 72, 54
1, 12360, Tempo, 1250000
1, 12360, Note_on_c, 0, 72, 0
1, 12360, Note_on_c, 0, 70, 54
1, 12480, Tempo, 1200000
1, 12480, Note_on_c, 0, 70, 0
1, 12480, Note_on_c, 0, 52, 0
1, 12480, Note_on_c, 0, 55, 0
1, 12480, Note_on_c, 0, 48, 0
1, 12480, Note_on_c, 0, 69, 60
1, 12480, Note_on_c, 0, 53, 50
1, 12480, Note_on_c, 0, 41, 42
1, 12600, Note_on_c, 0, 41, 0
1, 12600, Note_on_c, 0, 53, 0
1, 12720, Note_on_c, 0, 69, 0
1, 12720, Note_on_c, 0, 70, 57
1, 12960, Note_on_c, 0, 70, 0
1, 12960, Note_on_c, 0, 72, 60
1, 13200, Tempo, 1250000
1, 13200, Note_on_c, 0, 72, 0
1, 13200, Note_on_c, 0, 73, 61
1, 13440, Tempo, 1200000
1, 13440, Note_on_c, 0, 73, 0
1, 13440, Note_on_c, 0, 58, 44
1, 13440, Note_on_c, 0, 46, 44
1, 13560, Note_on_c, 0, 73, 55
1, 13680, Note_on_c, 0, 73, 0
1, 13680, Note_on_c, 0, 74, 58
1, 13800, Note_on_c, 0, 74, 0
1, 13800, Note_on_c, 0, 76, 55
1, 13920, Note_on_c, 0, 76, 0
1, 13920, Note_on_c, 0, 46, 0
1, 13920, Note_on_c, 0, 58, 0
1, 13920, Note_on_c, 0, 77, 57
1, 14040, Note_on_c, 0, 77, 0
1, 14040, Note_on_c, 0, 78, 59
1, 14160, Note_on_c, 0, 78, 0
1, 14160, Note_on_c, 0, 79, 61
1, 14280, Note_on_c, 0, 79, 0
1, 14280, Note_on_c, 0, 81, 63
1, 14400, Tempo, 1188119
1, 14400, Note_on_c, 0, 81, 0
1, 14400, Note_on_c, 0, 82, 65
1, 14496, Tempo, 1176471
1, 14520, Note_on_c, 0, 82, 0
1, 14520, Note_on_c, 0, 83, 68
1, 14573, Tempo, 1165049
1, 14640, Note_on_c, 0, 83, 0
1, 14640, Note_on_c, 0, 84, 70
1, 14650, Tempo, 1153846
1, 14760, Note_on_c, 0, 84, 0
1, 14760, Note_on_c, 0, 85, 68
1, 14765, Tempo, 1250000
1, 14880, Tempo, 1153846
1, 14880, Note_on_c, 0, 85, 0
1, 14880, Note_on_c, 0, 86, 75
1, 14880, Note_on_c, 0, 58, 30
1, 14880, Note_on_c, 0, 70, 36
1, 14966, Control_c, 0, 64, 127
1, 15000, Note_on_c, 0, 86, 0
1, 15000, Note_on_c, 0, 81, 63
1, 15120, Note_on_c, 0, 81, 0
1, 15120, Note_on_c, 0, 82, 66
1, 15139, Control_c, 0, 64, 0
1, 15200, Control_c, 0, 64, 127
1, 15240, Tempo, 1395349
1, 15240, Note_on_c, 0, 82, 0
1, 15240, Note_on_c, 0, 79, 61
1, 15360, Tempo, 1224490
1, 15360, Note_on_c, 0, 79, 0
1, 15360, Note_on_c, 0, 70, 0
1, 15360, Note_on_c, 0, 58, 0
1, 15360, Note_on_c, 0, 77, 71
1, 15360, Note_on_c, 0, 69, 40
1, 15360, Note_on_c, 0, 60, 34
1, 15360, Control_c, 0, 64, 0
1, 15600, Control_c, 0, 64, 127
1, 16080, Tempo, 1237113
1, 16080, Note_on_c, 0, 77, 0
1, 16080, Note_on_c, 0, 79, 41
1, 16091, Control_c, 0, 64, 0
1, 16158, Control_c, 0, 64, 127
1, 16200, Tempo, 1518987
1, 16200, Note_on_c, 0, 79, 0
1, 16200, Note_on_c, 0, 77, 35
1, 16320, Tempo, 1263158
1, 16320, Note_on_c, 0, 77, 0
1, 16320, Note_on_c, 0, 69, 0
1, 16320, Note_on_c, 0, 76, 39
1, 16320, Note_on_c, 0, 67, 32
1, 16327, Control_c, 0, 64, 0
1, 16800, Tempo, 1200000
1, 16800, Note_on_c, 0, 67, 0
1, 16800, Note_on_c, 0, 76, 0
1, 16800, Note_on_c, 0, 60, 0
1, 17280, Tempo, 1188119
1, 17280, Note_on_c, 0, 79, 60
1, 17280, Note_on_c, 0, 60, 40
1, 17280, Control_c, 0, 64, 127
1, 17400, Note_on_c, 0, 60, 0
1, 17400, Note_on_c, 0, 67, 32
1, 17520, Note_on_c, 0, 67, 0
1, 17520, Note_on_c, 0, 64, 32
1, 17640, Note_on_c, 0, 64, 0
1, 17640, Note_on_c, 0, 67, 32
1, 17760, Tempo, 1176471
1, 17760, Note_on_c, 0, 67, 0
1, 17760, Note_on_c, 0, 79, 0
1, 17760, Note_on_c, 0, 77, 55
1, 17760, Note_on_c, 0, 60, 40
1, 17774, Control_c, 0, 64, 0
1, 17806, Control_c, 0, 64, 127
1, 17880, Note_on_c, 0, 60, 0
1, 17880, Note_on_c, 0, 77, 0
1, 17880, Note_on_c, 0, 76, 50
1, 17880, Note_on_c, 0, 67, 31
1, 18000, Note_on_c, 0, 67, 0
1, 18000, Note_on_c, 0, 76, 0
1, 18000, Note_on_c, 0, 74, 55
1, 18000, Note_on_c, 0, 64, 31
1, 18120, Tempo, 1276596
1, 18120, Note_on_c, 0, 64, 0
1, 18120, Note_on_c, 0, 74, 0
1, 18120, Note_on_c, 0, 72, 49
1, 18120, Note_on_c, 0, 67, 31
1, 18210, Note_on_c, 0, 72, 0
1, 18240, Tempo, 1176471
1, 18240, Note_on_c, 0, 67, 0
1, 18240, Note_on_c, 0, 72, 55
1, 18240, Note_on_c, 0, 62, 40
1, 18251, Control_c, 0, 64, 0
1, 18283, Control_c, 0, 64, 127
1, 18360, Note_on_c, 0, 62, 0
1, 18360, Note_on_c, 0, 67, 30
1, 18480, Note_on_c, 0, 67, 0
1, 18480, Note_on_c, 0, 65, 30
1, 18600, Note_on_c, 0, 65, 0
1, 18600, Note_on_c, 0, 67, 30
1, 18720, Tempo, 1111111
1, 18720, Note_on_c, 0, 67, 0
1, 18720, Note_on_c, 0, 72, 0
1, 18720, Note_on_c, 0, 71, 55
1, 18720, Note_on_c, 0, 62, 40
1, 18727, Control_c, 0, 64, 0
1, 18780, Note_on_c, 0, 71, 0
1, 18780, Note_on_c, 0, 72, 51
1, 18840, Tempo, 1176471
1, 18840, Note_on_c, 0, 72, 0
1, 18840, Note_on_c, 0, 62, 0
1, 18840, Note_on_c, 0, 71, 57
1, 18840, Note_on_c, 0, 67, 33
1, 18860, Control_c, 0, 64, 127
1, 18960, Note_on_c, 0, 67, 0
1, 18960, Note_on_c, 0, 65, 33
1, 19080, Note_on_c, 0, 65, 0
1, 19080, Note_on_c, 0, 71, 0
1, 19080, Note_on_c, 0, 71, 51
1, 19080, Note_on_c, 0, 67, 33
1, 19200, Tempo, 1165049
1, 19200, Note_on_c, 0, 67, 0
1, 19200, Note_on_c, 0, 71, 0
1, 19200, Note_on_c, 0, 72, 55
1, 19200, Note_on_c, 0, 60, 40
1, 19200, Control_c, 0, 64, 0
1, 19250, Control_c, 0, 64, 127
1, 19320, Note_on_c, 0, 60, 0
1, 19320, Note_on_c, 0, 72, 0
1, 19320, Note_on_c, 0, 74, 52
1, 19320, Note_on_c, 0, 67, 32
1, 19440, Note_on_c, 0, 67, 0
1, 19440, Note_on_c, 0, 74, 0
1, 19440, Note_on_c, 0, 76, 54
1, 19440, Note_on_c, 0, 64, 32
1, 19560, Note_on_c, 0, 64, 0
1, 19560, Note_on_c, 0, 76, 0
1, 19560, Note_on_c, 0, 77, 55
1, 19560, Note_on_c, 0, 67, 32
1, 19680, Tempo, 1153846
1, 19680, Note_on_c, 0, 67, 0
1, 19680, Note_on_c, 0, 77, 0
1, 19680, Note_on_c, 0, 79, 59
1, 19680, Note_on_c, 0, 60, 40
1, 19687, Control_c, 0, 64, 0
1, 19747, Control_c, 0, 64, 127
1, 19800, Note_on_c, 0, 60, 0
1, 19800, Note_on_c, 0, 79, 0
1, 19800, Note_on_c, 0, 81, 61
1, 19800, Note_on_c, 0, 67, 33
1, 19920, Note_on_c, 0, 67, 0
1, 19920, Note_on_c, 0, 81, 0
1, 19920, Note_on_c, 0, 83, 64
1, 19920, Note_on_c, 0, 64, 35
1, 20040, Tempo, 1237113
1, 20040, Note_on_c, 0, 64, 0
1, 20040, Note_on_c, 0, 83, 0
1, 20040, Note_on_c, 0, 84, 66
1, 20040, Note_on_c, 0, 67, 37
1, 20130, Note_on_c, 0, 84, 0
1, 20160, Tempo, 1153846
1, 20160, Note_on_c, 0, 67, 0
1, 20160, Note_on_c, 0, 84, 66
1, 20160, Note_on_c, 0, 62, 47
1, 20164, Control_c, 0, 64, 0
1, 20210, Control_c, 0, 64, 127
1, 20280, Note_on_c, 0, 62, 0
1, 20280, Note_on_c, 0, 84, 0
1, 20280, Note_on_c, 0, 83, 64
1, 20280, Note_on_c, 0, 67, 35
1, 20393, Control_c, 0, 64, 0
1, 20400, Tempo, 1132075
1, 20400, Note_on_c, 0, 67, 0
1, 20400, Note_on_c, 0, 83, 0
1, 20400, Note_on_c, 0, 81, 61
1, 20400, Note_on_c, 0, 65, 35
1, 20460, Note_on_c, 0, 65, 0
1, 20460, Note_on_c, 0, 81, 0
1, 20520, Note_on_c, 0, 79, 59
1, 20520, Note_on_c, 0, 67, 35
1, 20580, Note_on_c, 0, 67, 0
1, 20580, Note_on_c, 0, 79, 0
1, 20640, Note_on_c, 0, 79, 57
1, 20640, Note_on_c, 0, 62, 44
1, 20679, Control_c, 0, 64, 127
1, 20760, Note_on_c, 0, 62, 0
1, 20760, Note_on_c, 0, 79, 0
1, 20760, Note_on_c, 0, 77, 55
1, 20760, Note_on_c, 0, 67, 33
1, 20880, Note_on_c, 0, 67, 0
1, 20880, Note_on_c, 0, 77, 0
1, 20880, Note_on_c, 0, 76, 52
1, 20880, Note_on_c, 0, 65, 33
1, 20886, Control_c, 0, 64, 0
1, 20940, Note_on_c, 0, 65, 0
1, 20940, Note_on_c, 0, 76, 0
1, 21000, Tempo, 1276596
1, 21000, Note_on_c, 0, 74, 50
1, 21000, Note_on_c, 0, 67, 33
1, 21060, Note_on_c, 0, 67, 0
1, 21060, Note_on_c, 0, 74, 0
1, 21120, Tempo, 1153846
1, 21120, Note_on_c, 0, 79, 64
1, 21120, Note_on_c, 0, 60, 40
1, 21163, Control_c, 0, 64, 127
1, 21240, Note_on_c, 0, 60, 0
1, 21240, Note_on_c, 0, 67, 32
1, 21360, Note_on_c, 0, 67, 0
1, 21360, Note_on_c, 0, 64, 32
1, 21480, Note_on_c, 0, 64, 0
1, 21480, Note_on_c, 0, 79, 0
1, 21480, Note_on_c, 0, 81, 59
1, 21480, Note_on_c, 0, 67, 32
1, 21540, Note_on_c, 0, 81, 0
1, 21540, Note_on_c, 0, 79, 55
1, 21600, Tempo, 1142857
1, 21600, Note_on_c, 0, 79, 0
1, 21600, Note_on_c, 0, 67, 0
1, 21600, Note_on_c, 0, 77, 62
1, 21600, Note_on_c, 0, 60, 40
1, 21609, Control_c, 0, 64, 0
1, 21649, Control_c, 0, 64, 127
1, 21720, Note_on_c, 0, 60, 0
1, 21720, Note_on_c, 0, 77, 0
1, 21720, Note_on_c, 0, 76, 55
1, 21720, Note_on_c, 0, 67, 31
1, 21840, Note_on_c, 0, 67, 0
1, 21840, Note_on_c, 0, 76, 0
1, 21840, Note_on_c, 0, 74, 57
1, 21840, Note_on_c, 0, 64, 31
1, 21960, Tempo, 1250000
1, 21960, Note_on_c, 0, 64, 0
1, 21960, Note_on_c, 0, 74, 0
1, 21960, Note_on_c, 0, 72, 55
1, 21960, Note_on_c, 0, 67, 31
1, 22050, Note_on_c, 0, 72, 0
1, 22080, Tempo, 1153846
1, 22080, Note_on_c, 0, 67, 0
1, 22080, Note_on_c, 0, 72, 61
1, 22080, Note_on_c, 0, 62, 40
1, 22087, Control_c, 0, 64, 0
1, 22126, Control_c, 0, 64, 127
1, 22200, Note_on_c, 0, 62, 0
1, 22200, Note_on_c, 0, 67, 30
1, 22320, Note_on_c, 0, 67, 0
1, 22320, Note_on_c, 0, 65, 30
1, 22440, Note_on_c, 0, 65, 0
1, 22440, Note_on_c, 0, 67, 30
1, 22560, Tempo, 1081081
1, 22560, Note_on_c, 0, 67, 0
1, 22560, Note_on_c, 0, 72, 0
1, 22560, Note_on_c, 0, 71, 55
1, 22560, Note_on_c, 0, 62, 40
1, 22571, Control_c, 0, 64, 0
1, 22620, Note_on_c, 0, 71, 0
1, 22620, Note_on_c, 0, 72, 51
1, 22680, Tempo, 1132075
1, 22680, Note_on_c, 0, 72, 0
1, 22680, Note_on_c, 0, 62, 0
1, 22680, Note_on_c, 0, 71, 55
1, 22680, Note_on_c, 0, 67, 33
1, 22729, Control_c, 0, 64, 127
1, 22800, Note_on_c, 0, 67, 0
1, 22800, Note_on_c, 0, 65, 33
1, 22920, Note_on_c, 0, 65, 0
1, 22920, Note_on_c, 0, 71, 0
1, 22920, Note_on_c, 0, 77, 52
1, 22920, Note_on_c, 0, 67, 33
1, 23040, Tempo, 1121495
1, 23040, Note_on_c, 0, 67, 0
1, 23040, Note_on_c, 0, 77, 0
1, 23040, Note_on_c, 0, 76, 60
1, 23040, Note_on_c, 0, 60, 40
1, 23040, Control_c, 0, 64, 0
1, 23100, Note_on_c, 0, 60, 0
1, 23100, Note_on_c, 0, 76, 0
1, 23160, Tempo, 1121495
1, 23160, Note_on_c, 0, 77, 55
1, 23160, Note_on_c, 0, 67, 32
1, 23220, Note_on_c, 0, 67, 0
1, 23220, Note_on_c, 0, 77, 0
1, 23280, Tempo, 1132075
1, 23280, Note_on_c, 0, 79, 60
1, 23280, Note_on_c, 0, 64, 32
1, 23340, Note_on_c, 0, 64, 0
1, 23340, Note_on_c, 0, 79, 0
1, 23400, Tempo, 1121495
1, 23400, Note_on_c, 0, 81, 61
1, 23400, Note_on_c, 0, 67, 32
1, 23460, Note_on_c, 0, 67, 0
1, 23460, Note_on_c, 0, 81, 0
1, 23520, Tempo, 1111111
1, 23520, Note_on_c, 0, 83, 70
1, 23520, Note_on_c, 0, 60, 46
1, 23580, Note_on_c, 0, 60, 0
1, 23580, Note_on_c, 0, 83, 0
1, 23640, Tempo, 1121495
1, 23640, Note_on_c, 0, 84, 65
1, 23640, Note_on_c, 0, 67, 35
1, 23700, Note_on_c, 0, 67, 0
1, 23700, Note_on_c, 0, 84, 0
1, 23760, Tempo, 1132075
1, 23760, Note_on_c, 0, 83, 68
1, 23760, Note_on_c, 0, 64, 36
1, 23820, Note_on_c, 0, 64, 0
1, 23820, Note_on_c, 0, 83, 0
1, 23880, Tempo, 1200000
1, 23880, Note_on_c, 0, 84, 66
1, 23880, Note_on_c, 0, 67, 38
1, 23940, Note_on_c, 0, 67, 0
1, 23940, Note_on_c, 0, 84, 0
1, 24000, Tempo, 1142857
1, 24000, Note_on_c, 0, 84, 73
1, 24000, Note_on_c, 0, 62, 49
1, 24043, Control_c, 0, 64, 127
1, 24120, Note_on_c, 0, 62, 0
1, 24120, Note_on_c, 0, 84, 0
1, 24120, Note_on_c, 0, 83, 66
1, 24120, Note_on_c, 0, 67, 39
1, 24240, Note_on_c, 0, 67, 0
1, 24240, Note_on_c, 0, 83, 0
1, 24240, Note_on_c, 0, 81, 67
1, 24240, Note_on_c, 0, 65, 39
1, 24360, Note_on_c, 0, 65, 0
1, 24360, Note_on_c, 0, 81, 0
1, 24360, Note_on_c, 0, 79, 64
1, 24360, Note_on_c, 0, 67, 39
1, 24450, Note_on_c, 0, 79, 0
1, 24480, Note_on_c, 0, 67, 0
1, 24480, Note_on_c, 0, 79, 69
1, 24480, Note_on_c, 0, 62, 50
1, 24490, Control_c, 0, 64, 0
1, 24526, Control_c, 0, 64, 127
1, 24600, Note_on_c, 0, 62, 0
1, 24600, Note_on_c, 0, 79, 0
1, 24600, Note_on_c, 0, 77, 64
1, 24600, Note_on_c, 0, 67, 40
1, 24720, Note_on_c, 0, 67, 0
1, 24720, Note_on_c, 0, 77, 0
1, 24720, Note_on_c, 0, 76, 62
1, 24720, Note_on_c, 0, 65, 40
1, 24840, Tempo, 1224490
1, 24840, Note_on_c, 0, 65, 0
1, 24840, Note_on_c, 0, 76, 0
1, 24840, Note_on_c, 0, 74, 61
1, 24840, Note_on_c, 0, 67, 40
1, 24960, Tempo, 1142857
1, 24960, Note_on_c, 0, 67, 0
1, 24960, Note_on_c, 0, 74, 0
1, 24960, Note_on_c, 0, 76, 62
1, 24960, Note_on_c, 0, 60, 48
1, 24960, Control_c, 0, 64, 0
1, 25080, Tempo, 1153846
1, 25080, Note_on_c, 0, 60, 0
1, 25080, Note_on_c, 0, 76, 0
1, 25080, Note_on_c, 0, 77, 62
1, 25080, Note_on_c, 0, 67, 32
1, 25101, Control_c, 0, 64, 127
1, 25200, Tempo, 1153846
1, 25200, Note_on_c, 0, 67, 0
1, 25200, Note_on_c, 0, 77, 0
1, 25200, Note_on_c, 0, 76, 69
1, 25200, Note_on_c, 0, 64, 32
1, 25320, Tempo, 1142857
1, 25320, Note_on_c, 0, 64, 0
1, 25320, Note_on_c, 0, 76, 0
1, 25320, Note_on_c, 0, 77, 68
1, 25320, Note_on_c, 0, 67, 32
1, 25440, Tempo, 1153846
1, 25440, Note_on_c, 0, 67, 0
1, 25440, Note_on_c, 0, 77, 0
1, 25440, Note_on_c, 0, 79, 76
1, 25440, Note_on_c, 0, 60, 52
1, 25458, Control_c, 0, 64, 0
1, 25518, Control_c, 0, 64, 127
1, 25560, Tempo, 1188119
1, 25560, Note_on_c, 0, 60, 0
1, 25560, Note_on_c, 0, 79, 0
1, 25560, Note_on_c, 0, 81, 74
1, 25560, Note_on_c, 0, 67, 39
1, 25680, Tempo, 1153846
1, 25680, Note_on_c, 0, 67, 0
1, 25680, Note_on_c, 0, 81, 0
1, 25680, Note_on_c, 0, 79, 83
1, 25680, Note_on_c, 0, 64, 42
1, 25800, Tempo, 1304348
1, 25800, Note_on_c, 0, 64, 0
1, 25800, Note_on_c, 0, 79, 0
1, 25800, Note_on_c, 0, 81, 78
1, 25800, Note_on_c, 0, 67, 45
1, 25920, Tempo, 1153846
1, 25920, Note_on_c, 0, 67, 0
1, 25920, Note_on_c, 0, 81, 0
1, 25920, Note_on_c, 0, 82, 89
1, 25920, Note_on_c, 0, 70, 75
1, 25920, Note_on_c, 0, 52, 65
1, 25927, Control_c, 0, 64, 0
1, 26040, Note_on_c, 0, 52, 0
1, 26040, Note_on_c, 0, 60, 55
1, 26040, Control_c, 0, 64, 127
1, 26160, Note_on_c, 0, 60, 0
1, 26160, Note_on_c, 0, 55, 55
1, 26280, Note_on_c, 0, 55, 0
1, 26280, Note_on_c, 0, 60, 55
1, 26400, Note_on_c, 0, 60, 0
1, 26400, Note_on_c, 0, 52, 63
1, 26520, Note_on_c, 0, 52, 0
1, 26520, Note_on_c, 0, 60, 51
1, 26640, Note_on_c, 0, 60, 0
1, 26640, Note_on_c, 0, 55, 51
1, 26760, Tempo, 1250000
1, 26760, Note_on_c, 0, 55, 0
1, 26760, Note_on_c, 0, 60, 51
1, 26880, Tempo, 1165049
1, 26880, Note_on_c, 0, 60, 0
1, 26880, Note_on_c, 0, 70, 0
1, 26880, Note_on_c, 0, 82, 0
1, 26880, Note_on_c, 0, 53, 58
1, 26880, Control_c, 0, 64, 0
1, 26947, Control_c, 0, 64, 127
1, 27000, Tempo, 1142857
1, 27000, Note_on_c, 0, 53, 0
1, 27000, Note_on_c, 0, 81, 70
1, 27000, Note_on_c, 0, 60, 45
1, 27120, Note_on_c, 0, 60, 0
1, 27120, Note_on_c, 0, 81, 0
1, 27120, Note_on_c, 0, 80, 75
1, 27120, Note_on_c, 0, 57, 45
1, 27240, Note_on_c, 0, 57, 0
1, 27240, Note_on_c, 0, 80, 0
1, 27240, Note_on_c, 0, 81, 68
1, 27240, Note_on_c, 0, 60, 45
1, 27360, Note_on_c, 0, 60, 0
1, 27360, Note_on_c, 0, 81, 0
1, 27360, Note_on_c, 0, 52, 51
1, 27369, Control_c, 0, 64, 0
1, 27434, Control_c, 0, 64, 127
1, 27480, Note_on_c, 0, 52, 0
1, 27480, Note_on_c, 0, 79, 67
1, 27480, Note_on_c, 0, 61, 44
1, 27600, Note_on_c, 0, 61, 0
1, 27600, Note_on_c, 0, 79, 0
1, 27600, Note_on_c, 0, 78, 76
1, 27600, Note_on_c, 0, 55, 44
1, 27720, Tempo, 1188119
1, 27720, Note_on_c, 0, 55, 0
1, 27720, Note_on_c, 0, 78, 0
1, 27720, Note_on_c, 0, 79, 67
1, 27720, Note_on_c, 0, 61, 44
1, 27840, Tempo, 1142857
1, 27840, Note_on_c, 0, 61, 0
1, 27840, Note_on_c, 0, 79, 0
1, 27840, Note_on_c, 0, 50, 51
1, 27851, Control_c, 0, 64, 0
1, 27921, Control_c, 0, 64, 127
1, 27960, Note_on_c, 0, 50, 0
1, 27960, Note_on_c, 0, 78, 70
1, 27960, Note_on_c, 0, 60, 43
1, 28080, Tempo, 1090909
1, 28080, Note_on_c, 0, 60, 0
1, 28080, Note_on_c, 0, 78, 0
1, 28080, Note_on_c, 0, 78, 69
1, 28080, Note_on_c, 0, 57, 43
1, 28140, Note_on_c, 0, 78, 0
1, 28140, Note_on_c, 0, 79, 63
1, 28200, Tempo, 1165049
1, 28200, Note_on_c, 0, 79, 0
1, 28200, Note_on_c, 0, 57, 0
1, 28200, Note_on_c, 0, 78, 68
1, 28200, Note_on_c, 0, 60, 43
1, 28320, Tempo, 1132075
1, 28320, Note_on_c, 0, 60, 0
1, 28320, Note_on_c, 0, 78, 0
1, 28320, Note_on_c, 0, 55, 51
1, 28326, Control_c, 0, 64, 0
1, 28391, Control_c, 0, 64, 127
1, 28440, Note_on_c, 0, 55, 0
1, 28440, Note_on_c, 0, 77, 72
1, 28440, Note_on_c, 0, 62, 43
1, 28560, Tempo, 1090909
1, 28560, Note_on_c, 0, 62, 0
1, 28560, Note_on_c, 0, 77, 0
1, 28560, Note_on_c, 0, 77, 72
1, 28560, Note_on_c, 0, 59, 43
1, 28620, Note_on_c, 0, 77, 0
1, 28620, Note_on_c, 0, 79, 65
1, 28680, Tempo, 1188119
1, 28680, Note_on_c, 0, 79, 0
1, 28680, Note_on_c, 0, 59, 0
1, 28680, Note_on_c, 0, 77, 75
1, 28680, Note_on_c, 0, 62, 43
1, 28800, Tempo, 1132075
1, 28800, Note_on_c, 0, 62, 0
1, 28800, Note_on_c, 0, 77, 0
1, 28800, Note_on_c, 0, 48, 47
1, 28800, Control_c, 0, 64, 0
1, 28847, Control_c, 0, 64, 127
1, 28920, Note_on_c, 0, 48, 0
1, 28920, Note_on_c, 0, 76, 67
1, 28920, Note_on_c, 0, 60, 41
1, 29040, Note_on_c, 0, 60, 0
1, 29040, Note_on_c, 0, 76, 0
1, 29040, Note_on_c, 0, 77, 70
1, 29040, Note_on_c, 0, 52, 41
1, 29160, Tempo, 1212121
1, 29160, Note_on_c, 0, 52, 0
1, 29160, Note_on_c, 0, 77, 0
1, 29160, Note_on_c, 0, 79, 72
1, 29160, Note_on_c, 0, 60, 41
1, 29250, Note_on_c, 0, 79, 0
1, 29280, Tempo, 1142857
1, 29280, Note_on_c, 0, 60, 0
1, 29280, Note_on_c, 0, 79, 72
1, 29280, Note_on_c, 0, 53, 47
1, 29289, Control_c, 0, 64, 0
1, 29322, Control_c, 0, 64, 127
1, 29400, Note_on_c, 0, 53, 0
1, 29400, Note_on_c, 0, 79, 0
1, 29400, Note_on_c, 0, 69, 66
1, 29400, Note_on_c, 0, 62, 41
1, 29520, Note_on_c, 0, 62, 0
1, 29520, Note_on_c, 0, 69, 0
1, 29520, Note_on_c, 0, 77, 72
1, 29520, Note_on_c, 0, 57, 41
1, 29640, Note_on_c, 0, 57, 0
1, 29640, Note_on_c, 0, 77, 0
1, 29640, Note_on_c, 0, 74, 65
1, 29640, Note_on_c, 0, 62, 41
1, 29760, Note_on_c, 0, 62, 0
1, 29760, Note_on_c, 0, 74, 0
1, 29760, Note_on_c, 0, 72, 72
1, 29760, Note_on_c, 0, 55, 47
1, 29766, Control_c, 0, 64, 0
1, 29806, Control_c, 0, 64, 127
1, 29880, Note_on_c, 0, 55, 0
1, 29880, Note_on_c, 0, 64, 40
1, 30000, Note_on_c, 0, 64, 0
1, 30000, Note_on_c, 0, 60, 40
1, 30120, Note_on_c, 0, 60, 0
1, 30120, Note_on_c, 0, 64, 40
1, 30221, Tempo, 1165049
1, 30240, Note_on_c, 0, 64, 0
1, 30240, Note_on_c, 0, 72, 0
1, 30240, Note_on_c, 0, 71, 68
1, 30240, Note_on_c, 0, 55, 47
1, 30248, Control_c, 0, 64, 0
1, 30266, Tempo, 1153846
1, 30278, Control_c, 0, 64, 127
1, 30280, Note_on_c, 0, 71, 0
1, 30280, Note_on_c, 0, 72, 60
1, 30296, Tempo, 1142857
1, 30320, Note_on_c, 0, 72, 0
1, 30320, Note_on_c, 0, 71, 68
1, 30326, Tempo, 1132075
1, 30356, Tempo, 1121495
1, 30360, Note_on_c, 0, 71, 0
1, 30360, Note_on_c, 0, 55, 0
1, 30360, Note_on_c, 0, 72, 61
1, 30360, Note_on_c, 0, 65, 42
1, 30386, Tempo, 1111111
1, 30400, Note_on_c, 0, 72, 0
1, 30400, Note_on_c, 0, 71, 68
1, 30440, Note_on_c, 0, 71, 0
1, 30440, Note_on_c, 0, 72, 61
1, 30476, Tempo, 1121495
1, 30480, Note_on_c, 0, 72, 0
1, 30480, Note_on_c, 0, 65, 0
1, 30480, Note_on_c, 0, 71, 68
1, 30480, Note_on_c, 0, 62, 42
1, 30551, Tempo, 1132075
1, 30600, Note_on_c, 0, 62, 0
1, 30600, Note_on_c, 0, 65, 42
1, 30626, Tempo, 1142857
1, 30701, Tempo, 1153846
1, 30720, Tempo, 1132075
1, 30720, Note_on_c, 0, 65, 0
1, 30720, Note_on_c, 0, 71, 0
1, 30720, Note_on_c, 0, 52, 47
1, 30728, Control_c, 0, 64, 0
1, 30793, Control_c, 0, 64, 127
1, 30840, Note_on_c, 0, 52, 0
1, 30840, Note_on_c, 0, 84, 72
1, 30840, Note_on_c, 0, 60, 41
1, 30960, Note_on_c, 0, 60, 0
1, 30960, Note_on_c, 0, 84, 0
1, 30960, Note_on_c, 0, 88, 78
1, 30960, Note_on_c, 0, 55, 41
1, 31080, Tempo, 1200000
1, 31080, Note_on_c, 0, 55, 0
1, 31080, Note_on_c, 0, 88, 0
1, 31080, Note_on_c, 0, 84, 72
1, 31080, Note_on_c, 0, 60, 41
1, 31200, Tempo, 1132075
1, 31200, Note_on_c, 0, 60, 0
1, 31200, Note_on_c, 0, 84, 0
1, 31200, Note_on_c, 0, 83, 77
1, 31200, Note_on_c, 0, 53, 47
1, 31211, Control_c, 0, 64, 0
1, 31267, Control_c, 0, 64, 127
1, 31320, Note_on_c, 0, 53, 0
1, 31320, Note_on_c, 0, 83, 0
1, 31320, Note_on_c, 0, 81, 69
1, 31320, Note_on_c, 0, 60, 41
1, 31440, Note_on_c, 0, 60, 0
1, 31440, Note_on_c, 0, 81, 0
1, 31440, Note_on_c, 0, 79, 76
1, 31440, Note_on_c, 0, 57, 41
1, 31560, Note_on_c, 0, 57, 0
1, 31560, Note_on_c, 0, 79, 0
1, 31560, Note_on_c, 0, 77, 67
1, 31560, Note_on_c, 0, 60, 41
1, 31680, Note_on_c, 0, 60, 0
1, 31680, Note_on_c, 0, 77, 0
1, 31680, Note_on_c, 0, 76, 75
1, 31680, Note_on_c, 0, 55, 47
1, 31693, Control_c, 0, 64, 0
1, 31756, Control_c, 0, 64, 127
1, 31800, Note_on_c, 0, 55, 0
1, 31800, Note_on_c, 0, 64, 40
1, 31920, Note_on_c, 0, 64, 0
1, 31920, Note_on_c, 0, 60, 40
1, 32040, Note_on_c, 0, 60, 0
1, 32040, Note_on_c, 0, 64, 40
1, 32160, Note_on_c, 0, 64, 0
1, 32160, Note_on_c, 0, 76, 0
1, 32160, Note_on_c, 0, 74, 68
1, 32160, Note_on_c, 0, 55, 47
1, 32171, Tempo, 1165049
1, 32172, Control_c, 0, 64, 0
1, 32200, Note_on_c, 0, 74, 0
1, 32200, Note_on_c, 0, 76, 60
1, 32216, Tempo, 1153846
1, 32223, Control_c, 0, 64, 127
1, 32240, Note_on_c, 0, 76, 0
1, 32240, Note_on_c, 0, 74, 68
1, 32261, Tempo, 1142857
1, 32280, Note_on_c, 0, 74, 0
1, 32280, Note_on_c, 0, 55, 0
1, 32280, Note_on_c, 0, 76, 61
1, 32280, Note_on_c, 0, 65, 42
1, 32306, Tempo, 1132075
1, 32320, Note_on_c, 0, 76, 0
1, 32320, Note_on_c, 0, 74, 68
1, 32336, Tempo, 1121495
1, 32360, Note_on_c, 0, 74, 0
1, 32360, Note_on_c, 0, 76, 61
1, 32394, Note_on_c, 0, 74, 68
1, 32400, Note_on_c, 0, 76, 0
1, 32400, Note_on_c, 0, 65, 0
1, 32400, Note_on_c, 0, 62, 42
1, 32434, Note_on_c, 0, 74, 0
1, 32435, Note_on_c, 0, 76, 60
1, 32441, Tempo, 1132075
1, 32474, Note_on_c, 0, 74, 68
1, 32475, Note_on_c, 0, 76, 0
1, 32514, Note_on_c, 0, 74, 0
1, 32517, Note_on_c, 0, 72, 63
1, 32520, Note_on_c, 0, 62, 0
1, 32520, Note_on_c, 0, 65, 42
1, 32531, Tempo, 1142857
1, 32546, Tempo, 1165049
1, 32561, Tempo, 1188119
1, 32576, Tempo, 1212121
1, 32577, Note_on_c, 0, 72, 0
1, 32577, Note_on_c, 0, 74, 62
1, 32591, Tempo, 1237113
1, 32606, Tempo, 1263158
1, 32621, Tempo, 1290323
1, 32637, Note_on_c, 0, 74, 0
1, 32640, Tempo, 1142857
1, 32640, Note_on_c, 0, 65, 0
1, 32640, Note_on_c, 0, 72, 68
1, 32640, Note_on_c, 0, 64, 47
1, 32640, Note_on_c, 0, 60, 39
1, 32643, Control_c, 0, 64, 0
1, 32760, Note_on_c, 0, 72, 0
1, 32880, Note_on_c, 0, 76, 48
1, 32880, Note_on_c, 0, 72, 40
1, 33000, Note_on_c, 0, 72, 0
1, 33000, Note_on_c, 0, 76, 0
1, 33120, Note_on_c, 0, 60, 0
1, 33120, Note_on_c, 0, 64, 0
1, 33120, Note_on_c, 0, 76, 48
1, 33120, Note_on_c, 0, 72, 40
1, 33240, Note_on_c, 0, 72, 0
1, 33240, Note_on_c, 0, 76, 0
1, 33360, Note_on_c, 0, 76, 48
1, 33360, Note_on_c, 0, 72, 40
1, 33480, Note_on_c, 0, 72, 0
1, 33480, Note_on_c, 0, 76, 0
1, 33600, Tempo, 1061947
1, 33600, Note_on_c, 0, 77, 52
1, 33600, Note_on_c, 0, 72, 44
1, 33607, Control_c, 0, 64, 127
1, 33660, Note_on_c, 0, 77, 0
1, 33660, Note_on_c, 0, 76, 47
1, 33720, Tempo, 1121495
1, 33720, Note_on_c, 0, 76, 0
1, 33720, Note_on_c, 0, 74, 47
1, 33780, Note_on_c, 0, 74, 0
1, 33780, Note_on_c, 0, 76, 48
1, 33840, Note_on_c, 0, 76, 0
1, 33840, Note_on_c, 0, 72, 0
1, 33840, Note_on_c, 0, 79, 52
1, 33840, Note_on_c, 0, 76, 44
1, 33850, Control_c, 0, 64, 0
1, 33904, Control_c, 0, 64, 127
1, 34080, Note_on_c, 0, 76, 0
1, 34080, Note_on_c, 0, 79, 0
1, 34080, Note_on_c, 0, 72, 51
1, 34080, Note_on_c, 0, 76, 60
1, 34095, Control_c, 0, 64, 0
1, 34151, Control_c, 0, 64, 127
1, 34320, Tempo, 1276596
1, 34320, Note_on_c, 0, 76, 0
1, 34320, Note_on_c, 0, 72, 0
1, 34320, Note_on_c, 0, 72, 66
1, 34320, Note_on_c, 0, 69, 55
1, 34560, Tempo, 1121495
1, 34560, Note_on_c, 0, 69, 0
1, 34560, Note_on_c, 0, 72, 0
1, 34560, Note_on_c, 0, 69, 72
1, 34560, Note_on_c, 0, 65, 60
1, 34560, Control_c, 0, 64, 0
1, 34606, Control_c, 0, 64, 127
1, 35040, Tempo, 1111111
1, 35040, Note_on_c, 0, 53, 70
1, 35040, Note_on_c, 0, 41, 59
1, 35057, Control_c, 0, 64, 0
1, 35160, Note_on_c, 0, 41, 0
1, 35160, Note_on_c, 0, 69, 0
1, 35160, Note_on_c, 0, 65, 0
1, 35160, Note_on_c, 0, 53, 0
1, 35160, Note_on_c, 0, 65, 49
1, 35160, Note_on_c, 0, 69, 58
1, 35280, Note_on_c, 0, 69, 0
1, 35280, Note_on_c, 0, 65, 0
1, 35280, Note_on_c, 0, 67, 49
1, 35280, Note_on_c, 0, 71, 58
1, 35309, Control_c, 0, 64, 127
1, 35400, Tempo, 1212121
1, 35400, Note_on_c, 0, 71, 0
1, 35400, Note_on_c, 0, 67, 0
1, 35400, Note_on_c, 0, 69, 49
1, 35400, Note_on_c, 0, 72, 58
1, 35508, Note_on_c, 0, 72, 0
1, 35508, Note_on_c, 0, 69, 0
1, 35520, Tempo, 1111111
1, 35520, Note_on_c, 0, 69, 53
1, 35520, Note_on_c, 0, 72, 63
1, 35520, Note_on_c, 0, 55, 63
1, 35520, Note_on_c, 0, 43, 53
1, 35537, Control_c, 0, 64, 0
1, 35595, Control_c, 0, 64, 127
1, 35640, Note_on_c, 0, 43, 0
1, 35640, Note_on_c, 0, 69, 0
1, 35640, Note_on_c, 0, 72, 0
1, 35640, Note_on_c, 0, 55, 0
1, 35640, Note_on_c, 0, 67, 50
1, 35640, Note_on_c, 0, 71, 59
1, 35760, Note_on_c, 0, 71, 0
1, 35760, Note_on_c, 0, 67, 0
1, 35760, Note_on_c, 0, 69, 59
1, 35760, Note_on_c, 0, 65, 50
1, 35765, Control_c, 0, 64, 0
1, 35880, Tempo, 1165049
1, 35880, Note_on_c, 0, 65, 0
1, 35880, Note_on_c, 0, 69, 0
1, 35880, Note_on_c, 0, 64, 50
1, 35880, Note_on_c, 0, 67, 59
1, 35988, Note_on_c, 0, 67, 0
1, 35988, Note_on_c, 0, 64, 0
1, 36000, Tempo, 1132075
1, 36000, Note_on_c, 0, 64, 53
1, 36000, Note_on_c, 0, 67, 63
1, 36000, Note_on_c, 0, 43, 53
1, 36000, Note_on_c, 0, 55, 63
1, 36080, Control_c, 0, 64, 127
1, 36120, Note_on_c, 0, 55, 0
1, 36120, Note_on_c, 0, 64, 0
1, 36120, Note_on_c, 0, 67, 0
1, 36120, Note_on_c, 0, 43, 0
1, 36120, Note_on_c, 0, 62, 45
1, 36120, Note_on_c, 0, 65, 53
1, 36240, Note_on_c, 0, 65, 0
1, 36240, Note_on_c, 0, 62, 0
1, 36240, Note_on_c, 0, 60, 45
1, 36240, Note_on_c, 0, 64, 53
1, 36257, Control_c, 0, 64, 0
1, 36360, Tempo, 1263158
1, 36360, Note_on_c, 0, 64, 0
1, 36360, Note_on_c, 0, 60, 0
1, 36360, Note_on_c, 0, 62, 53
1, 36360, Note_on_c, 0, 59, 45
1, 36468, Note_on_c, 0, 59, 0
1, 36468, Note_on_c, 0, 62, 0
1, 36480, Tempo, 1142857
1, 36480, Note_on_c, 0, 36, 63
1, 36480, Note_on_c, 0, 48, 63
1, 36544, Control_c, 0, 64, 127
1, 36720, Note_on_c, 0, 72, 63
1, 36800, Note_on_c, 0, 72, 0
1, 36800, Note_on_c, 0, 76, 57
1, 36880, Note_on_c, 0, 76, 0
1, 36880, Note_on_c, 0, 84, 57
1, 36960, Tempo, 1132075
1, 36960, Note_on_c, 0, 84, 0
1, 36960, Note_on_c, 0, 48, 0
1, 36960, Note_on_c, 0, 36, 0
1, 36960, Note_on_c, 0, 72, 63
1, 37040, Note_on_c, 0, 72, 0
1, 37040, Note_on_c, 0, 76, 55
1, 37120, Note_on_c, 0, 76, 0
1, 37120, Note_on_c, 0, 84, 55
1, 37200, Note_on_c, 0, 84, 0
1, 37200, Note_on_c, 0, 72, 63
1, 37280, Note_on_c, 0, 72, 0
1, 37280, Note_on_c, 0, 76, 55
1, 37360, Note_on_c, 0, 76, 0
1, 37360, Note_on_c, 0, 84, 55
1, 37440, Tempo, 1111111
1, 37440, Note_on_c, 0, 84, 0
1, 37440, Note_on_c, 0, 72, 69
1, 37520, Note_on_c, 0, 72, 0
1, 37520, Note_on_c, 0, 76, 59
1, 37600, Note_on_c, 0, 76, 0
1, 37600, Note_on_c, 0, 84, 61
1, 37680, Note_on_c, 0, 84, 0
1, 37680, Note_on_c, 0, 76, 72
1, 37760, Note_on_c, 0, 76, 0
1, 37760, Note_on_c, 0, 79, 64
1, 37840, Note_on_c, 0, 79, 0
1, 37840, Note_on_c, 0, 88, 66
1, 37920, Tempo, 1100917
1, 37920, Note_on_c, 0, 88, 0
1, 37920, Note_on_c, 0, 72, 75
1, 38000, Note_on_c, 0, 72, 0
1, 38000, Note_on_c, 0, 76, 66
1, 38080, Note_on_c, 0, 76, 0
1, 38080, Note_on_c, 0, 84, 69
1, 38160, Note_on_c, 0, 84, 0
1, 38160, Note_on_c, 0, 69, 80
1, 38240, Note_on_c, 0, 69, 0
1, 38240, Note_on_c, 0, 72, 69
1, 38320, Tempo, 1643836
1, 38320, Note_on_c, 0, 72, 0
1, 38320, Note_on_c, 0, 81, 71
1, 38400, Tempo, 1132075
1, 38400, Note_on_c, 0, 81, 0
1, 38400, Note_on_c, 0, 65, 81
1, 38406, Control_c, 0, 64, 0
1, 38509, Control_c, 0, 64, 127
1, 38880, Note_on_c, 0, 53, 70
1, 38880, Note_on_c, 0, 41, 59
1, 38887, Control_c, 0, 64, 0
1, 39000, Tempo, 1165049
1, 39000, Note_on_c, 0, 41, 0
1, 39000, Note_on_c, 0, 53, 0
1, 39000, Note_on_c, 0, 65, 0
1, 39000, Note_on_c, 0, 72, 66
1, 39000, Note_on_c, 0, 69, 56
1, 39120, Note_on_c, 0, 69, 0
1, 39120, Note_on_c, 0, 72, 0
1, 39120, Note_on_c, 0, 71, 68
1, 39120, Note_on_c, 0, 67, 57
1, 39200, Control_c, 0, 64, 127
1, 39240, Tempo, 1237113
1, 39240, Note_on_c, 0, 67, 0
1, 39240, Note_on_c, 0, 71, 0
1, 39240, Note_on_c, 0, 65, 53
1, 39240, Note_on_c, 0, 69, 63
1, 39348, Note_on_c, 0, 69, 0
1, 39348, Note_on_c, 0, 65, 0
1, 39360, Tempo, 1200000
1, 39360, Note_on_c, 0, 65, 56
1, 39360, Note_on_c, 0, 69, 67
1, 39360, Note_on_c, 0, 55, 63
1, 39360, Note_on_c, 0, 43, 53
1, 39370, Control_c, 0, 64, 0
1, 39440, Control_c, 0, 64, 127
1, 39480, Note_on_c, 0, 43, 0
1, 39480, Note_on_c, 0, 65, 0
1, 39480, Note_on_c, 0, 69, 0
1, 39480, Note_on_c, 0, 55, 0
1, 39480, Note_on_c, 0, 67, 65
1, 39480, Note_on_c, 0, 64, 55
1, 39600, Note_on_c, 0, 64, 0
1, 39600, Note_on_c, 0, 67, 0
1, 39600, Note_on_c, 0, 62, 53
1, 39600, Note_on_c, 0, 65, 63
1, 39604, Control_c, 0, 64, 0
1, 39720, Note_on_c, 0, 65, 0
1, 39720, Note_on_c, 0, 62, 0
1, 39720, Note_on_c, 0, 64, 61
1, 39720, Note_on_c, 0, 60, 51
1, 39828, Note_on_c, 0, 60, 0
1, 39828, Note_on_c, 0, 64, 0
1, 39840, Note_on_c, 0, 64, 63
1, 39840, Note_on_c, 0, 53, 63
1, 39846, Note_on_c, 0, 43, 53
1, 39903, Control_c, 0, 64, 127
1, 39960, Note_on_c, 0, 64, 0
1, 39960, Note_on_c, 0, 62, 56
1, 40080, Note_on_c, 0, 62, 0
1, 40080, Note_on_c, 0, 53, 0
1, 40080, Note_on_c, 0, 60, 56
1, 40086, Note_on_c, 0, 43, 0
1, 40088, Control_c, 0, 64, 0
1, 40200, Tempo, 1764706
1, 40200, Note_on_c, 0, 60, 0
1, 40200, Note_on_c, 0, 53, 47
1, 40200, Note_on_c, 0, 59, 56
1, 40308, Note_on_c, 0, 59, 0
1, 40308, Note_on_c, 0, 53, 0
1, 40320, Tempo, 1290323
1, 40320, Note_on_c, 0, 53, 59
1, 40320, Note_on_c, 0, 59, 59
1, 40320, Note_on_c, 0, 48, 56
1, 40352, Control_c, 0, 64, 127
1, 41235, Note_on_c, 0, 48, 0
1, 41235, Note_on_c, 0, 59, 0
1, 41235, Note_on_c, 0, 53, 0
1, 41235, Note_on_c, 0, 36, 49
1, 41250, Note_on_c, 0, 40, 53
1, 41259, Control_c, 0, 64, 0
1, 41265, Note_on_c, 0, 43, 56
1, 41280, Note_on_c, 0, 55, 52
1, 41280, Note_on_c, 0, 52, 52
1, 41280, Note_on_c, 0, 60, 52
1, 41280, Note_on_c, 0, 48, 60
1, 41305, Control_c, 0, 64, 127
1, 41500, Note_on_c, 0, 40, 0
1, 41520, Note_on_c, 0, 60, 0
1, 41520, Note_on_c, 0, 43, 0
1, 41520, Note_on_c, 0, 55, 0
1, 41520, Note_on_c, 0, 36, 0
1, 41520, Note_on_c, 0, 48, 0
1, 41520, Note_on_c, 0, 52, 0
1, 41700, Control_c, 0, 64, 0
1, 42000, Marker_t, "Teil 1 Wiederholung"
1, 42120, Tempo, 1212121
1, 42195, Note_on_c, 0, 41, 45
1, 42210, Note_on_c, 0, 45, 48
1, 42225, Note_on_c, 0, 48, 51
1, 42240, Tempo, 1200000
1, 42240, Note_on_c, 0, 60, 51
1, 42240, Note_on_c, 0, 65, 60
1, 42240, Note_on_c, 0, 57, 51
1, 42240, Note_on_c, 0, 53, 53
1, 42240, Control_c, 0, 64, 127
1, 42360, Note_on_c, 0, 53, 0
1, 42360, Note_on_c, 0, 60, 0
1, 42360, Note_on_c, 0, 45, 0
1, 42360, Note_on_c, 0, 48, 0
1, 42360, Note_on_c, 0, 41, 0
1, 42360, Note_on_c, 0, 57, 0
1, 42600, Note_on_c, 0, 65, 0
1, 42600, Note_on_c, 0, 60, 56
1, 42720, Tempo, 1188119
1, 42720, Note_on_c, 0, 60, 0
1, 42720, Note_on_c, 0, 70, 60
1, 42730, Control_c, 0, 64, 0
1, 42840, Note_on_c, 0, 70, 0
1, 42840, Note_on_c, 0, 69, 54
1, 42900, Tempo, 1176471
1, 42960, Note_on_c, 0, 69, 0
1, 42960, Note_on_c, 0, 67, 54
1, 43080, Tempo, 1250000
1, 43080, Note_on_c, 0, 67, 0
1, 43080, Note_on_c, 0, 65, 54
1, 43200, Tempo, 1200000
1, 43200, Note_on_c, 0, 65, 0
1, 43200, Note_on_c, 0, 64, 60
1, 43200, Note_on_c, 0, 55, 42
1, 43200, Note_on_c, 0, 58, 50
1, 43200, Note_on_c, 0, 48, 42
1, 43320, Note_on_c, 0, 48, 0
1, 43320, Note_on_c, 0, 64, 0
1, 43320, Note_on_c, 0, 55, 0
1, 43320, Note_on_c, 0, 58, 0
1, 43440, Note_on_c, 0, 65, 57
1, 43560, Note_on_c, 0, 65, 0
1, 43680, Note_on_c, 0, 67, 60
1, 43800, Note_on_c, 0, 67, 0
1, 43920, Tempo, 1263158
1, 43920, Note_on_c, 0, 69, 55
1, 44040, Note_on_c, 0, 69, 0
1, 44115, Note_on_c, 0, 52, 45
1, 44130, Note_on_c, 0, 55, 48
1, 44145, Note_on_c, 0, 58, 51
1, 44160, Tempo, 1212121
1, 44160, Note_on_c, 0, 67, 51
1, 44160, Note_on_c, 0, 64, 51
1, 44160, Note_on_c, 0, 70, 60
1, 44160, Note_on_c, 0, 60, 53
1, 44160, Control_c, 0, 64, 127
1, 44280, Note_on_c, 0, 60, 0
1, 44280, Note_on_c, 0, 55, 0
1, 44280, Note_on_c, 0, 67, 0
1, 44280, Note_on_c, 0, 58, 0
1, 44280, Note_on_c, 0, 52, 0
1, 44280, Note_on_c, 0, 64, 0
1, 44520, Note_on_c, 0, 70, 0
1, 44520, Note_on_c, 0, 67, 56
1, 44640, Tempo, 1188119
1, 44640, Note_on_c, 0, 67, 0
1, 44640, Note_on_c, 0, 76, 60
1, 44651, Control_c, 0, 64, 0
1, 44760, Note_on_c, 0, 76, 0
1, 44760, Note_on_c, 0, 74, 54
1, 44820, Tempo, 1200000
1, 44880, Note_on_c, 0, 74, 0
1, 44880, Note_on_c, 0, 72, 54
1, 45000, Tempo, 1250000
1, 45000, Note_on_c, 0, 72, 0
1, 45000, Note_on_c, 0, 70, 54
1, 45120, Tempo, 1212121
1, 45120, Note_on_c, 0, 70, 0
1, 45120, Note_on_c, 0, 69, 60
1, 45120, Note_on_c, 0, 60, 50
1, 45120, Note_on_c, 0, 53, 42
1, 45240, Note_on_c, 0, 53, 0
1, 45240, Note_on_c, 0, 60, 0
1, 45240, Note_on_c, 0, 69, 0
1, 45360, Note_on_c, 0, 70, 57
1, 45480, Note_on_c, 0, 70, 0
1, 45600, Note_on_c, 0, 72, 60
1, 45720, Note_on_c, 0, 72, 0
1, 45840, Tempo, 1250000
1, 45840, Note_on_c, 0, 73, 61
1, 45960, Note_on_c, 0, 73, 0
1, 46080, Tempo, 1200000
1, 46080, Note_on_c, 0, 74, 55
1, 46080, Note_on_c, 0, 58, 44
1, 46080, Note_on_c, 0, 65, 44
1, 46112, Control_c, 0, 64, 127
1, 46440, Note_on_c, 0, 74, 0
1, 46440, Note_on_c, 0, 76, 48
1, 46560, Note_on_c, 0, 76, 0
1, 46560, Note_on_c, 0, 79, 55
1, 46566, Control_c, 0, 64, 0
1, 46623, Control_c, 0, 64, 127
1, 46680, Note_on_c, 0, 79, 0
1, 46680, Note_on_c, 0, 77, 51
1, 46800, Note_on_c, 0, 77, 0
1, 46800, Note_on_c, 0, 76, 51
1, 46920, Note_on_c, 0, 76, 0
1, 46920, Note_on_c, 0, 74, 51
1, 47040, Tempo, 1250000
1, 47040, Note_on_c, 0, 74, 0
1, 47040, Note_on_c, 0, 58, 0
1, 47040, Note_on_c, 0, 72, 55
1, 47040, Note_on_c, 0, 57, 44
1, 47042, Control_c, 0, 64, 0
1, 47220, Note_on_c, 0, 72, 0
1, 47280, Tempo, 1200000
1, 47280, Note_on_c, 0, 57, 0
1, 47280, Note_on_c, 0, 65, 0
1, 47280, Note_on_c, 0, 72, 49
1, 47520, Note_on_c, 0, 72, 0
1, 47520, Note_on_c, 0, 70, 49
1, 47550, Note_on_c, 0, 70, 0
1, 47550, Note_on_c, 0, 72, 44
1, 47561, Control_c, 0, 64, 127
1, 47580, Note_on_c, 0, 72, 0
1, 47580, Note_on_c, 0, 70, 49
1, 47610, Note_on_c, 0, 70, 0
1, 47610, Note_on_c, 0, 72, 42
1, 47640, Note_on_c, 0, 72, 0
1, 47640, Note_on_c, 0, 70, 49
1, 47680, Note_on_c, 0, 70, 0
1, 47680, Note_on_c, 0, 72, 45
1, 47720, Note_on_c, 0, 72, 0
1, 47720, Note_on_c, 0, 70, 45
1, 47760, Tempo, 1263158
1, 47760, Note_on_c, 0, 70, 0
1, 47760, Note_on_c, 0, 69, 49
1, 47765, Control_c, 0, 64, 0
1, 47811, Control_c, 0, 64, 127
1, 48000, Tempo, 1200000
1, 48000, Note_on_c, 0, 69, 0
1, 48000, Note_on_c, 0, 67, 54
1, 48000, Note_on_c, 0, 46, 43
1, 48000, Note_on_c, 0, 58, 43
1, 48000, Control_c, 0, 64, 0
1, 48180, Note_on_c, 0, 67, 0
1, 48240, Note_on_c, 0, 69, 49
1, 48300, Note_on_c, 0, 69, 0
1, 48300, Note_on_c, 0, 67, 43
1, 48360, Note_on_c, 0, 67, 0
1, 48360, Note_on_c, 0, 66, 44
1, 48420, Note_on_c, 0, 66, 0
1, 48420, Note_on_c, 0, 67, 44
1, 48480, Note_on_c, 0, 67, 0
1, 48480, Note_on_c, 0, 70, 49
1, 48500, Control_c, 0, 64, 127
1, 48720, Tempo, 1263158
1, 48720, Note_on_c, 0, 70, 0
1, 48720, Note_on_c, 0, 74, 44
1, 48960, Tempo, 1212121
1, 48960, Note_on_c, 0, 74, 0
1, 48960, Note_on_c, 0, 58, 0
1, 48960, Note_on_c, 0, 46, 0
1, 48960, Note_on_c, 0, 65, 44
1, 48960, Note_on_c, 0, 57, 37
1, 48960, Note_on_c, 0, 48, 37
1, 48977, Control_c, 0, 64, 0
1, 49035, Control_c, 0, 64, 127
1, 49440, Note_on_c, 0, 57, 0
1, 49440, Note_on_c, 0, 55, 33
1, 49680, Tempo, 1290323
1, 49680, Note_on_c, 0, 65, 0
1, 49680, Note_on_c, 0, 64, 42
1, 49694, Control_c, 0, 64, 0
1, 49740, Note_on_c, 0, 64, 0
1, 49740, Note_on_c, 0, 65, 38
1, 49800, Note_on_c, 0, 65, 0
1, 49800, Note_on_c, 0, 64, 42
1, 49860, Note_on_c, 0, 55, 0
1, 49860, Note_on_c, 0, 48, 0
1, 49875, Note_on_c, 0, 41, 45
1, 49890, Note_on_c, 0, 45, 48
1, 49905, Note_on_c, 0, 48, 51
1, 49920, Tempo, 1224490
1, 49920, Note_on_c, 0, 64, 0
1, 49920, Note_on_c, 0, 60, 51
1, 49920, Note_on_c, 0, 65, 60
1, 49920, Note_on_c, 0, 57, 51
1, 49920, Note_on_c, 0, 53, 53
1, 49973, Control_c, 0, 64, 127
1, 50040, Note_on_c, 0, 53, 0
1, 50040, Note_on_c, 0, 60, 0
1, 50040, Note_on_c, 0, 45, 0
1, 50040, Note_on_c, 0, 41, 0
1, 50040, Note_on_c, 0, 48, 0
1, 50040, Note_on_c, 0, 57, 0
1, 50280, Note_on_c, 0, 65, 0
1, 50280, Note_on_c, 0, 60, 56
1, 50400, Tempo, 1188119
1, 50400, Note_on_c, 0, 60, 0
1, 50400, Note_on_c, 0, 70, 60
1, 50407, Control_c, 0, 64, 0
1, 50453, Control_c, 0, 64, 127
1, 50520, Note_on_c, 0, 70, 0
1, 50520, Note_on_c, 0, 69, 54
1, 50640, Note_on_c, 0, 69, 0
1, 50640, Note_on_c, 0, 67, 54
1, 50656, Control_c, 0, 64, 0
1, 50697, Control_c, 0, 64, 127
1, 50760, Tempo, 1263158
1, 50760, Note_on_c, 0, 67, 0
1, 50760, Note_on_c, 0, 65, 54
1, 50880, Tempo, 1176471
1, 50880, Note_on_c, 0, 65, 0
1, 50880, Note_on_c, 0, 64, 60
1, 50880, Note_on_c, 0, 58, 50
1, 50880, Note_on_c, 0, 48, 42
1, 50894, Control_c, 0, 64, 0
1, 50954, Control_c, 0, 64, 127
1, 51060, Tempo, 1263158
1, 51060, Note_on_c, 0, 64, 0
1, 51060, Note_on_c, 0, 60, 53
1, 51120, Tempo, 1176471
1, 51120, Note_on_c, 0, 60, 0
1, 51120, Note_on_c, 0, 58, 0
1, 51120, Note_on_c, 0, 65, 57
1, 51120, Note_on_c, 0, 57, 50
1, 51130, Control_c, 0, 64, 0
1, 51170, Control_c, 0, 64, 127
1, 51300, Tempo, 1276596
1, 51300, Note_on_c, 0, 65, 0
1, 51300, Note_on_c, 0, 60, 53
1, 51360, Tempo, 1176471
1, 51360, Note_on_c, 0, 60, 0
1, 51360, Note_on_c, 0, 57, 0
1, 51360, Note_on_c, 0, 67, 60
1, 51360, Note_on_c, 0, 55, 50
1, 51370, Control_c, 0, 64, 0
1, 51410, Control_c, 0, 64, 127
1, 51540, Tempo, 1263158
1, 51540, Note_on_c, 0, 67, 0
1, 51540, Note_on_c, 0, 60, 53
1, 51600, Tempo, 1176471
1, 51600, Note_on_c, 0, 60, 0
1, 51600, Note_on_c, 0, 55, 0
1, 51600, Note_on_c, 0, 69, 55
1, 51600, Note_on_c, 0, 53, 50
1, 51614, Control_c, 0, 64, 0
1, 51660, Control_c, 0, 64, 127
1, 51720, Tempo, 1212121
1, 51780, Tempo, 1318681
1, 51780, Note_on_c, 0, 69, 0
1, 51780, Note_on_c, 0, 60, 53
1, 51840, Tempo, 1188119
1, 51840, Note_on_c, 0, 60, 0
1, 51840, Note_on_c, 0, 53, 0
1, 51840, Note_on_c, 0, 70, 60
1, 51840, Note_on_c, 0, 55, 53
1, 51840, Note_on_c, 0, 52, 48
1, 51840, Control_c, 0, 64, 0
1, 51949, Control_c, 0, 64, 127
1, 52200, Note_on_c, 0, 70, 0
1, 52200, Note_on_c, 0, 67, 56
1, 52320, Tempo, 1188119
1, 52320, Note_on_c, 0, 67, 0
1, 52320, Note_on_c, 0, 76, 60
1, 52331, Control_c, 0, 64, 0
1, 52423, Control_c, 0, 64, 127
1, 52440, Note_on_c, 0, 76, 0
1, 52440, Note_on_c, 0, 74, 54
1, 52560, Tempo, 1153846
1, 52560, Note_on_c, 0, 74, 0
1, 52560, Note_on_c, 0, 72, 54
1, 52680, Tempo, 1250000
1, 52680, Note_on_c, 0, 72, 0
1, 52680, Note_on_c, 0, 70, 54
1, 52800, Tempo, 1200000
1, 52800, Note_on_c, 0, 70, 0
1, 52800, Note_on_c, 0, 52, 0
1, 52800, Note_on_c, 0, 55, 0
1, 52800, Note_on_c, 0, 48, 0
1, 52800, Note_on_c, 0, 69, 60
1, 52800, Note_on_c, 0, 53, 50
1, 52800, Note_on_c, 0, 41, 42
1, 52805, Control_c, 0, 64, 0
1, 52920, Note_on_c, 0, 41, 0
1, 52920, Note_on_c, 0, 53, 0
1, 53040, Note_on_c, 0, 69, 0
1, 53040, Note_on_c, 0, 70, 57
1, 53280, Note_on_c, 0, 70, 0
1, 53280, Note_on_c, 0, 72, 60
1, 53520, Tempo, 1250000
1, 53520, Note_on_c, 0, 72, 0
1, 53520, Note_on_c, 0, 73, 61
1, 53760, Tempo, 1200000
1, 53760, Note_on_c, 0, 73, 0
1, 53760, Note_on_c, 0, 58, 44
1, 53760, Note_on_c, 0, 46, 44
1, 53880, Note_on_c, 0, 73, 55
1, 54000, Note_on_c, 0, 73, 0
1, 54000, Note_on_c, 0, 74, 58
1, 54120, Note_on_c, 0, 74, 0
1, 54120, Note_on_c, 0, 76, 55
1, 54240, Note_on_c, 0, 76, 0
1, 54240, Note_on_c, 0, 46, 0
1, 54240, Note_on_c, 0, 58, 0
1, 54240, Note_on_c, 0, 77, 57
1, 54360, Note_on_c, 0, 77, 0
1, 54360, Note_on_c, 0, 78, 59
1, 54480, Note_on_c, 0, 78, 0
1, 54480, Note_on_c, 0, 79, 61
1, 54600, Note_on_c, 0, 79, 0
1, 54600, Note_on_c, 0, 81, 63
1, 54720, Tempo, 1188119
1, 54720, Note_on_c, 0, 81, 0
1, 54720, Note_on_c, 0, 82, 65
1, 54816, Tempo, 1176471
1, 54840, Note_on_c, 0, 82, 0
1, 54840, Note_on_c, 0, 83, 68
1, 54893, Tempo, 1165049
1, 54960, Note_on_c, 0, 83, 0
1, 54960, Note_on_c, 0, 84, 70
1, 54970, Tempo, 1153846
1, 55080, Note_on_c, 0, 84, 0
1, 55080, Note_on_c, 0, 85, 68
1, 55085, Tempo, 1250000
1, 55200, Tempo, 1153846
1, 55200, Note_on_c, 0, 85, 0
1, 55200, Note_on_c, 0, 86, 75
1, 55200, Note_on_c, 0, 70, 36
1, 55200, Note_on_c, 0, 58, 30
1, 55286, Control_c, 0, 64, 127
1, 55320, Note_on_c, 0, 86, 0
1, 55320, Note_on_c, 0, 81, 63
1, 55440, Note_on_c, 0, 81, 0
1, 55440, Note_on_c, 0, 82, 66
1, 55452, Control_c, 0, 64, 0
1, 55555, Control_c, 0, 64, 127
1, 55560, Tempo, 1395349
1, 55560, Note_on_c, 0, 82, 0
1, 55560, Note_on_c, 0, 79, 61
1, 55680, Tempo, 1224490
1, 55680, Note_on_c, 0, 79, 0
1, 55680, Note_on_c, 0, 58, 0
1, 55680, Note_on_c, 0, 70, 0
1, 55680, Note_on_c, 0, 77, 71
1, 55680, Note_on_c, 0, 69, 40
1, 55680, Note_on_c, 0, 60, 34
1, 55692, Control_c, 0, 64, 0
1, 55920, Control_c, 0, 64, 127
1, 56400, Tempo, 1237113
1, 56400, Note_on_c, 0, 77, 0
1, 56400, Note_on_c, 0, 79, 41
1, 56411, Control_c, 0, 64, 0
1, 56478, Control_c, 0, 64, 127
1, 56520, Tempo, 1518987
1, 56520, Note_on_c, 0, 79, 0
1, 56520, Note_on_c, 0, 77, 35
1, 56640, Tempo, 1263158
1, 56640, Note_on_c, 0, 77, 0
1, 56640, Note_on_c, 0, 69, 0
1, 56640, Note_on_c, 0, 76, 39
1, 56640, Note_on_c, 0, 67, 32
1, 56647, Control_c, 0, 64, 0
1, 57120, Tempo, 1200000
1, 57120, Note_on_c, 0, 67, 0
1, 57120, Note_on_c, 0, 76, 0
1, 57120, Note_on_c, 0, 60, 0
1, 57600, Tempo, 1188119
1, 57600, Note_on_c, 0, 79, 60
1, 57600, Note_on_c, 0, 60, 40
1, 57600, Control_c, 0, 64, 127
1, 57720, Note_on_c, 0, 60, 0
1, 57720, Note_on_c, 0, 67, 32
1, 57840, Note_on_c, 0, 67, 0
1, 57840, Note_on_c, 0, 64, 32
1, 57960, Note_on_c, 0, 64, 0
1, 57960, Note_on_c, 0, 67, 32
1, 58080, Tempo, 1176471
1, 58080, Note_on_c, 0, 67, 0
1, 58080, Note_on_c, 0, 79, 0
1, 58080, Note_on_c, 0, 77, 55
1, 58080, Note_on_c, 0, 60, 40
1, 58094, Control_c, 0, 64, 0
1, 58126, Control_c, 0, 64, 127
1, 58200, Note_on_c, 0, 60, 0
1, 58200, Note_on_c, 0, 77, 0
1, 58200, Note_on_c, 0, 76, 50
1, 58200, Note_on_c, 0, 67, 31
1, 58320, Note_on_c, 0, 67, 0
1, 58320, Note_on_c, 0, 76, 0
1, 58320, Note_on_c, 0, 74, 55
1, 58320, Note_on_c, 0, 64, 31
1, 58440, Tempo, 1276596
1, 58440, Note_on_c, 0, 64, 0
1, 58440, Note_on_c, 0, 74, 0
1, 58440, Note_on_c, 0, 72, 49
1, 58440, Note_on_c, 0, 67, 31
1, 58530, Note_on_c, 0, 72, 0
1, 58560, Tempo, 1176471
1, 58560, Note_on_c, 0, 67, 0
1, 58560, Note_on_c, 0, 72, 55
1, 58560, Note_on_c, 0, 62, 40
1, 58571, Control_c, 0, 64, 0
1, 58603, Control_c, 0, 64, 127
1, 58680, Note_on_c, 0, 62, 0
1, 58680, Note_on_c, 0, 67, 30
1, 58800, Note_on_c, 0, 67, 0
1, 58800, Note_on_c, 0, 65, 30
1, 58920, Note_on_c, 0, 65, 0
1, 58920, Note_on_c, 0, 67, 30
1, 59040, Tempo, 1111111
1, 59040, Note_on_c, 0, 67, 0
1, 59040, Note_on_c, 0, 72, 0
1, 59040, Note_on_c, 0, 71, 55
1, 59040, Note_on_c, 0, 62, 40
1, 59047, Control_c, 0, 64, 0
1, 59100, Note_on_c, 0, 71, 0
1, 59100, Note_on_c, 0, 72, 51
1, 59160, Tempo, 1176471
1, 59160, Note_on_c, 0, 72, 0
1, 59160, Note_on_c, 0, 62, 0
1, 59160, Note_on_c, 0, 71, 57
1, 59160, Note_on_c, 0, 67, 33
1, 59180, Control_c, 0, 64, 127
1, 59280, Note_on_c, 0, 67, 0
1, 59280, Note_on_c, 0, 65, 33
1, 59400, Note_on_c, 0, 65, 0
1, 59400, Note_on_c, 0, 71, 0
1, 59400, Note_on_c, 0, 71, 51
1, 59400, Note_on_c, 0, 67, 33
1, 59520, Tempo, 1165049
1, 59520, Note_on_c, 0, 67, 0
1, 59520, Note_on_c, 0, 71, 0
1, 59520, Note_on_c, 0, 72, 55
1, 59520, Note_on_c, 0, 60, 40
1, 59520, Control_c, 0, 64, 0
1, 59570, Control_c, 0, 64, 127
1, 59640, Note_on_c, 0, 60, 0
1, 59640, Note_on_c, 0, 72, 0
1, 59640, Note_on_c, 0, 74, 52
1, 59640, Note_on_c, 0, 67, 32
1, 59760, Note_on_c, 0, 67, 0
1, 59760, Note_on_c, 0, 74, 0
1, 59760, Note_on_c, 0, 76, 54
1, 59760, Note_on_c, 0, 64, 32
1, 59880, Note_on_c, 0, 64, 0
1, 59880, Note_on_c, 0, 76, 0
1, 59880, Note_on_c, 0, 77, 55
1, 59880, Note_on_c, 0, 67, 32
1, 60000, Tempo, 1153846
1, 60000, Note_on_c, 0, 67, 0
1, 60000, Note_on_c, 0, 77, 0
1, 60000, Note_on_c, 0, 79, 59
1, 60000, Note_on_c, 0, 60, 40
1, 60007, Control_c, 0, 64, 0
1, 60067, Control_c, 0, 64, 127
1, 60120, Note_on_c, 0, 60, 0
1, 60120, Note_on_c, 0, 79, 0
1, 60120, Note_on_c, 0, 81, 61
1, 60120, Note_on_c, 0, 67, 33
1, 60240, Note_on_c, 0, 67, 0
1, 60240, Note_on_c, 0, 81, 0
1, 60240, Note_on_c, 0, 83, 64
1, 60240, Note_on_c, 0, 64, 35
1, 60360, Tempo, 1237113
1, 60360, Note_on_c, 0, 64, 0
1, 60360, Note_on_c, 0, 83, 0
1, 60360, Note_on_c, 0, 84, 66
1, 60360, Note_on_c, 0, 67, 37
1, 60450, Note_on_c, 0, 84, 0
1, 60480, Tempo, 1153846
1, 60480, Note_on_c, 0, 67, 0
1, 60480, Note_on_c, 0, 84, 66
1, 60480, Note_on_c, 0, 62, 47
1, 60484, Control_c, 0, 64, 0
1, 60530, Control_c, 0, 64, 127
1, 60600, Note_on_c, 0, 62, 0
1, 60600, Note_on_c, 0, 84, 0
1, 60600, Note_on_c, 0, 83, 64
1, 60600, Note_on_c, 0, 67, 35
1, 60713, Control_c, 0, 64, 0
1, 60720, Tempo, 1132075
1, 60720, Note_on_c, 0, 67, 0
1, 60720, Note_on_c, 0, 83, 0
1, 60720, Note_on_c, 0, 81, 61
1, 60720, Note_on_c, 0, 65, 35
1, 60780, Note_on_c, 0, 65, 0
1, 60780, Note_on_c, 0, 81, 0
1, 60840, Note_on_c, 0, 79, 59
1, 60840, Note_on_c, 0, 67, 35
1, 60900, Note_on_c, 0, 67, 0
1, 60900, Note_on_c, 0, 79, 0
1, 60960, Note_on_c, 0, 79, 57
1, 60960, Note_on_c, 0, 62, 44
1, 60999, Control_c, 0, 64, 127
1, 61080, Note_on_c, 0, 62, 0
1, 61080, Note_on_c, 0, 79, 0
1, 61080, Note_on_c, 0, 77, 55
1, 61080, Note_on_c, 0, 67, 33
1, 61200, Note_on_c, 0, 67, 0
1, 61200, Note_on_c, 0, 77, 0
1, 61200, Note_on_c, 0, 76, 52
1, 61200, Note_on_c, 0, 65, 33
1, 61206, Control_c, 0, 64, 0
1, 61260, Note_on_c, 0, 65, 0
1, 61260, Note_on_c, 0, 76, 0
1, 61320, Tempo, 1276596
1, 61320, Note_on_c, 0, 74, 50
1, 61320, Note_on_c, 0, 67, 33
1, 61380, Note_on_c, 0, 67, 0
1, 61380, Note_on_c, 0, 74, 0
1, 61440, Tempo, 1153846
1, 61440, Note_on_c, 0, 79, 64
1, 61440, Note_on_c, 0, 60, 40
1, 61483, Control_c, 0, 64, 127
1, 61560, Note_on_c, 0, 60, 0
1, 61560, Note_on_c, 0, 67, 32
1, 61680, Note_on_c, 0, 67, 0
1, 61680, Note_on_c, 0, 64, 32
1, 61800, Note_on_c, 0, 64, 0
1, 61800, Note_on_c, 0, 79, 0
1, 61800, Note_on_c, 0, 81, 59
1, 61800, Note_on_c, 0, 67, 32
1, 61860, Note_on_c, 0, 81, 0
1, 61860, Note_on_c, 0, 79, 55
1, 61920, Tempo, 1142857
1, 61920, Note_on_c, 0, 79, 0
1, 61920, Note_on_c, 0, 67, 0
1, 61920, Note_on_c, 0, 77, 62
1, 61920, Note_on_c, 0, 60, 40
1, 61929, Control_c, 0, 64, 0
1, 61969, Control_c, 0, 64, 127
1, 62040, Note_on_c, 0, 60, 0
1, 62040, Note_on_c, 0, 77, 0
1, 62040, Note_on_c, 0, 76, 55
1, 62040, Note_on_c, 0, 67, 31
1, 62160, Note_on_c, 0, 67, 0
1, 62160, Note_on_c, 0, 76, 0
1, 62160, Note_on_c, 0, 74, 57
1, 62160, Note_on_c, 0, 64, 31
1, 62280, Tempo, 1250000
1, 62280, Note_on_c, 0, 64, 0
1, 62280, Note_on_c, 0, 74, 0
1, 62280, Note_on_c, 0, 72, 55
1, 62280, Note_on_c, 0, 67, 31
1, 62370, Note_on_c, 0, 72, 0
1, 62400, Tempo, 1153846
1, 62400, Note_on_c, 0, 67, 0
1, 62400, Note_on_c, 0, 72, 61
1, 62400, Note_on_c, 0, 62, 40
1, 62407, Control_c, 0, 64, 0
1, 62446, Control_c, 0, 64, 127
1, 62520, Note_on_c, 0, 62, 0
1, 62520, Note_on_c, 0, 67, 30
1, 62640, Note_on_c, 0, 67, 0
1, 62640, Note_on_c, 0, 65, 30
1, 62760, Note_on_c, 0, 65, 0
1, 62760, Note_on_c, 0, 67, 30
1, 62880, Tempo, 1081081
1, 62880, Note_on_c, 0, 67, 0
1, 62880, Note_on_c, 0, 72, 0
1, 62880, Note_on_c, 0, 71, 55
1, 62880, Note_on_c, 0, 62, 40
1, 62891, Control_c, 0, 64, 0
1, 62940, Note_on_c, 0, 71, 0
1, 62940, Note_on_c, 0, 72, 51
1, 63000, Tempo, 1132075
1, 63000, Note_on_c, 0, 72, 0
1, 63000, Note_on_c, 0, 62, 0
1, 63000, Note_on_c, 0, 71, 55
1, 63000, Note_on_c, 0, 67, 33
1, 63049, Control_c, 0, 64, 127
1, 63120, Note_on_c, 0, 67, 0
1, 63120, Note_on_c, 0, 65, 33
1, 63240, Note_on_c, 0, 65, 0
1, 63240, Note_on_c, 0, 71, 0
1, 63240, Note_on_c, 0, 77, 52
1, 63240, Note_on_c, 0, 67, 33
1, 63360, Tempo, 1121495
1, 63360, Note_on_c, 0, 67, 0
1, 63360, Note_on_c, 0, 77, 0
1, 63360, Note_on_c, 0, 76, 60
1, 63360, Note_on_c, 0, 60, 40
1, 63360, Control_c, 0, 64, 0
1, 63420, Note_on_c, 0, 60, 0
1, 63420, Note_on_c, 0, 76, 0
1, 63480, Tempo, 1121495
1, 63480, Note_on_c, 0, 77, 55
1, 63480, Note_on_c, 0, 67, 32
1, 63540, Note_on_c, 0, 67, 0
1, 63540, Note_on_c, 0, 77, 0
1, 63600, Tempo, 1132075
1, 63600, Note_on_c, 0, 79, 60
1, 63600, Note_on_c, 0, 64, 32
1, 63660, Note_on_c, 0, 64, 0
1, 63660, Note_on_c, 0, 79, 0
1, 63720, Tempo, 1121495
1, 63720, Note_on_c, 0, 81, 61
1, 63720, Note_on_c, 0, 67, 32
1, 63780, Note_on_c, 0, 67, 0
1, 63780, Note_on_c, 0, 81, 0
1, 63840, Tempo, 1111111
1, 63840, Note_on_c, 0, 83, 70
1, 63840, Note_on_c, 0, 60, 46
1, 63900, Note_on_c, 0, 60, 0
1, 63900, Note_on_c, 0, 83, 0
1, 63960, Tempo, 1121495
1, 63960, Note_on_c, 0, 84, 65
1, 63960, Note_on_c, 0, 67, 35
1, 64020, Note_on_c, 0, 67, 0
1, 64020, Note_on_c, 0, 84, 0
1, 64080, Tempo, 1132075
1, 64080, Note_on_c, 0, 83, 68
1, 64080, Note_on_c, 0, 64, 36
1, 64140, Note_on_c, 0, 64, 0
1, 64140, Note_on_c, 0, 83, 0
1, 64200, Tempo, 1200000
1, 64200, Note_on_c, 0, 84, 66
1, 64200, Note_on_c, 0, 67, 38
1, 64260, Note_on_c, 0, 67, 0
1, 64260, Note_on_c, 0, 84, 0
1, 64320, Tempo, 1142857
1, 64320, Note_on_c, 0, 84, 73
1, 64320, Note_on_c, 0, 62, 49
1, 64363, Control_c, 0, 64, 127
1, 64440, Note_on_c, 0, 62, 0
1, 64440, Note_on_c, 0, 84, 0
1, 64440, Note_on_c, 0, 83, 66
1, 64440, Note_on_c, 0, 67, 39
1, 64560, Note_on_c, 0, 67, 0
1, 64560, Note_on_c, 0, 83, 0
1, 64560, Note_on_c, 0, 81, 67
1, 64560, Note_on_c, 0, 65, 39
1, 64680, Note_on_c, 0, 65, 0
1, 64680, Note_on_c, 0, 81, 0
1, 64680, Note_on_c, 0, 79, 64
1, 64680, Note_on_c, 0, 67, 39
1, 64770, Note_on_c, 0, 79, 0
1, 64800, Note_on_c, 0, 67, 0
1, 64800, Note_on_c, 0, 79, 69
1, 64800, Note_on_c, 0, 62, 50
1, 64810, Control_c, 0, 64, 0
1, 64846, Control_c, 0, 64, 127
1, 64920, Note_on_c, 0, 62, 0
1, 64920, Note_on_c, 0, 79, 0
1, 64920, Note_on_c, 0, 77, 64
1, 64920, Note_on_c, 0, 67, 40
1, 65040, Note_on_c, 0, 67, 0
1, 65040, Note_on_c, 0, 77, 0
1, 65040, Note_on_c, 0, 76, 62
1, 65040, Note_on_c, 0, 65, 40
1, 65160, Tempo, 1224490
1, 65160, Note_on_c, 0, 65, 0
1, 65160, Note_on_c, 0, 76, 0
1, 65160, Note_on_c, 0, 74, 61
1, 65160, Note_on_c, 0, 67, 40
1, 65280, Tempo, 1142857
1, 65280, Note_on_c, 0, 67, 0
1, 65280, Note_on_c, 0, 74, 0
1, 65280, Note_on_c, 0, 76, 62
1, 65280, Note_on_c, 0, 60, 48
1, 65280, Control_c, 0, 64, 0
1, 65400, Tempo, 1153846
1, 65400, Note_on_c, 0, 60, 0
1, 65400, Note_on_c, 0, 76, 0
1, 65400, Note_on_c, 0, 77, 62
1, 65400, Note_on_c, 0, 67, 32
1, 65421, Control_c, 0, 64, 127
1, 65520, Tempo, 1153846
1, 65520, Note_on_c, 0, 67, 0
1, 65520, Note_on_c, 0, 77, 0
1, 65520, Note_on_c, 0, 76, 69
1, 65520, Note_on_c, 0, 64, 32
1, 65640, Tempo, 1142857
1, 65640, Note_on_c, 0, 64, 0
1, 65640, Note_on_c, 0, 76, 0
1, 65640, Note_on_c, 0, 77, 68
1, 65640, Note_on_c, 0, 67, 32
1, 65760, Tempo, 1153846
1, 65760, Note_on_c, 0, 67, 0
1, 65760, Note_on_c, 0, 77, 0
1, 65760, Note_on_c, 0, 79, 76
1, 65760, Note_on_c, 0, 60, 52
1, 65778, Control_c, 0, 64, 0
1, 65838, Control_c, 0, 64, 127
1, 65880, Tempo, 1188119
1, 65880, Note_on_c, 0, 60, 0
1, 65880, Note_on_c, 0, 79, 0
1, 65880, Note_on_c, 0, 81, 74
1, 65880, Note_on_c, 0, 67, 39
1, 66000, Tempo, 1153846
1, 66000, Note_on_c, 0, 67, 0
1, 66000, Note_on_c, 0, 81, 0
1, 66000, Note_on_c, 0, 79, 83
1, 66000, Note_on_c, 0, 64, 42
1, 66120, Tempo, 1304348
1, 66120, Note_on_c, 0, 64, 0
1, 66120, Note_on_c, 0, 79, 0
1, 66120, Note_on_c, 0, 81, 78
1, 66120, Note_on_c, 0, 67, 45
1, 66240, Tempo, 1153846
1, 66240, Note_on_c, 0, 67, 0
1, 66240, Note_on_c, 0, 81, 0
1, 66240, Note_on_c, 0, 70, 75
1, 66240, Note_on_c, 0, 82, 89
1, 66240, Note_on_c, 0, 52, 65
1, 66247, Control_c, 0, 64, 0
1, 66360, Note_on_c, 0, 52, 0
1, 66360, Note_on_c, 0, 60, 55
1, 66360, Control_c, 0, 64, 127
1, 66480, Note_on_c, 0, 60, 0
1, 66480, Note_on_c, 0, 55, 55
1, 66600, Note_on_c, 0, 55, 0
1, 66600, Note_on_c, 0, 60, 55
1, 66720, Note_on_c, 0, 60, 0
1, 66720, Note_on_c, 0, 52, 63
1, 66840, Note_on_c, 0, 52, 0
1, 66840, Note_on_c, 0, 60, 51
1, 66960, Note_on_c, 0, 60, 0
1, 66960, Note_on_c, 0, 55, 51
1, 67080, Tempo, 1250000
1, 67080, Note_on_c, 0, 55, 0
1, 67080, Note_on_c, 0, 60, 51
1, 67200, Tempo, 1165049
1, 67200, Note_on_c, 0, 60, 0
1, 67200, Note_on_c, 0, 82, 0
1, 67200, Note_on_c, 0, 70, 0
1, 67200, Note_on_c, 0, 53, 58
1, 67200, Control_c, 0, 64, 0
1, 67267, Control_c, 0, 64, 127
1, 67320, Tempo, 1142857
1, 67320, Note_on_c, 0, 53, 0
1, 67320, Note_on_c, 0, 81, 70
1, 67320, Note_on_c, 0, 60, 45
1, 67440, Note_on_c, 0, 60, 0
1, 67440, Note_on_c, 0, 81, 0
1, 67440, Note_on_c, 0, 80, 75
1, 67440, Note_on_c, 0, 57, 45
1, 67560, Note_on_c, 0, 57, 0
1, 67560, Note_on_c, 0, 80, 0
1, 67560, Note_on_c, 0, 81, 68
1, 67560, Note_on_c, 0, 60, 45
1, 67680, Note_on_c, 0, 60, 0
1, 67680, Note_on_c, 0, 81, 0
1, 67680, Note_on_c, 0, 52, 51
1, 67689, Control_c, 0, 64, 0
1, 67754, Control_c, 0, 64, 127
1, 67800, Note_on_c, 0, 52, 0
1, 67800, Note_on_c, 0, 79, 67
1, 67800, Note_on_c, 0, 61, 44
1, 67920, Note_on_c, 0, 61, 0
1, 67920, Note_on_c, 0, 79, 0
1, 67920, Note_on_c, 0, 78, 76
1, 67920, Note_on_c, 0, 55, 44
1, 68040, Tempo, 1188119
1, 68040, Note_on_c, 0, 55, 0
1, 68040, Note_on_c, 0, 78, 0
1, 68040, Note_on_c, 0, 79, 67
1, 68040, Note_on_c, 0, 61, 44
1, 68160, Tempo, 1142857
1, 68160, Note_on_c, 0, 61, 0
1, 68160, Note_on_c, 0, 79, 0
1, 68160, Note_on_c, 0, 50, 51
1, 68171, Control_c, 0, 64, 0
1, 68241, Control_c, 0, 64, 127
1, 68280, Note_on_c, 0, 50, 0
1, 68280, Note_on_c, 0, 78, 70
1, 68280, Note_on_c, 0, 60, 43
1, 68400, Tempo, 1090909
1, 68400, Note_on_c, 0, 60, 0
1, 68400, Note_on_c, 0, 78, 0
1, 68400, Note_on_c, 0, 78, 69
1, 68400, Note_on_c, 0, 57, 43
1, 68460, Note_on_c, 0, 78, 0
1, 68460, Note_on_c, 0, 79, 63
1, 68520, Tempo, 1165049
1, 68520, Note_on_c, 0, 79, 0
1, 68520, Note_on_c, 0, 57, 0
1, 68520, Note_on_c, 0, 78, 68
1, 68520, Note_on_c, 0, 60, 43
1, 68640, Tempo, 1132075
1, 68640, Note_on_c, 0, 60, 0
1, 68640, Note_on_c, 0, 78, 0
1, 68640, Note_on_c, 0, 55, 51
1, 68646, Control_c, 0, 64, 0
1, 68711, Control_c, 0, 64, 127
1, 68760, Note_on_c, 0, 55, 0
1, 68760, Note_on_c, 0, 77, 72
1, 68760, Note_on_c, 0, 62, 43
1, 68880, Tempo, 1090909
1, 68880, Note_on_c, 0, 62, 0
1, 68880, Note_on_c, 0, 77, 0
1, 68880, Note_on_c, 0, 77, 72
1, 68880, Note_on_c, 0, 59, 43
1, 68940, Note_on_c, 0, 77, 0
1, 68940, Note_on_c, 0, 79, 65
1, 69000, Tempo, 1188119
1, 69000, Note_on_c, 0, 79, 0
1, 69000, Note_on_c, 0, 59, 0
1, 69000, Note_on_c, 0, 77, 75
1, 69000, Note_on_c, 0, 62, 43
1, 69120, Tempo, 1132075
1, 69120, Note_on_c, 0, 62, 0
1, 69120, Note_on_c, 0, 77, 0
1, 69120, Note_on_c, 0, 48, 47
1, 69120, Control_c, 0, 64, 0
1, 69167, Control_c, 0, 64, 127
1, 69240, Note_on_c, 0, 48, 0
1, 69240, Note_on_c, 0, 76, 67
1, 69240, Note_on_c, 0, 60, 41
1, 69360, Note_on_c, 0, 60, 0
1, 69360, Note_on_c, 0, 76, 0
1, 69360, Note_on_c, 0, 77, 70
1, 69360, Note_on_c, 0, 52, 41
1, 69480, Tempo, 1212121
1, 69480, Note_on_c, 0, 52, 0
1, 69480, Note_on_c, 0, 77, 0
1, 69480, Note_on_c, 0, 79, 72
1, 69480, Note_on_c, 0, 60, 41
1, 69570, Note_on_c, 0, 79, 0
1, 69600, Tempo, 1142857
1, 69600, Note_on_c, 0, 60, 0
1, 69600, Note_on_c, 0, 79, 72
1, 69600, Note_on_c, 0, 53, 47
1, 69609, Control_c, 0, 64, 0
1, 69642, Control_c, 0, 64, 127
1, 69720, Note_on_c, 0, 53, 0
1, 69720, Note_on_c, 0, 79, 0
1, 69720, Note_on_c, 0, 69, 66
1, 69720, Note_on_c, 0, 62, 41
1, 69840, Note_on_c, 0, 62, 0
1, 69840, Note_on_c, 0, 69, 0
1, 69840, Note_on_c, 0, 77, 72
1, 69840, Note_on_c, 0, 57, 41
1, 69960, Note_on_c, 0, 57, 0
1, 69960, Note_on_c, 0, 77, 0
1, 69960, Note_on_c, 0, 74, 65
1, 69960, Note_on_c, 0, 62, 41
1, 70080, Note_on_c, 0, 62, 0
1, 70080, Note_on_c, 0, 74, 0
1, 70080, Note_on_c, 0, 72, 72
1, 70080, Note_on_c, 0, 55, 47
1, 70086, Control_c, 0, 64, 0
1, 70126, Control_c, 0, 64, 127
1, 70200, Note_on_c, 0, 55, 0
1, 70200, Note_on_c, 0, 64, 40
1, 70320, Note_on_c, 0, 64, 0
1, 70320, Note_on_c, 0, 60, 40
1, 70440, Note_on_c, 0, 60, 0
1, 70440, Note_on_c, 0, 64, 40
1, 70541, Tempo, 1165049
1, 70560, Note_on_c, 0, 64, 0
1, 70560, Note_on_c, 0, 72, 0
1, 70560, Note_on_c, 0, 71, 68
1, 70560, Note_on_c, 0, 55, 47
1, 70568, Control_c, 0, 64, 0
1, 70586, Tempo, 1153846
1, 70598, Control_c, 0, 64, 127
1, 70600, Note_on_c, 0, 71, 0
1, 70600, Note_on_c, 0, 72, 60
1, 70616, Tempo, 1142857
1, 70640, Note_on_c, 0, 72, 0
1, 70640, Note_on_c, 0, 71, 68
1, 70646, Tempo, 1132075
1, 70676, Tempo, 1121495
1, 70680, Note_on_c, 0, 71, 0
1, 70680, Note_on_c, 0, 55, 0
1, 70680, Note_on_c, 0, 72, 61
1, 70680, Note_on_c, 0, 65, 42
1, 70706, Tempo, 1111111
1, 70720, Note_on_c, 0, 72, 0
1, 70720, Note_on_c, 0, 71, 68
1, 70760, Note_on_c, 0, 71, 0
1, 70760, Note_on_c, 0, 72, 61
1, 70796, Tempo, 1121495
1, 70800, Note_on_c, 0, 72, 0
1, 70800, Note_on_c, 0, 65, 0
1, 70800, Note_on_c, 0, 71, 68
1, 70800, Note_on_c, 0, 62, 42
1, 70871, Tempo, 1132075
1, 70920, Note_on_c, 0, 62, 0
1, 70920, Note_on_c, 0, 65, 42
1, 70946, Tempo, 1142857
1, 71021, Tempo, 1153846
1, 71040, Tempo, 1132075
1, 71040, Note_on_c, 0, 65, 0
1, 71040, Note_on_c, 0, 71, 0
1, 71040, Note_on_c, 0, 52, 47
1, 71048, Control_c, 0, 64, 0
1, 71113, Control_c, 0, 64, 127
1, 71160, Note_on_c, 0, 52, 0
1, 71160, Note_on_c, 0, 84, 72
1, 71160, Note_on_c, 0, 60, 41
1, 71280, Note_on_c, 0, 60, 0
1, 71280, Note_on_c, 0, 84, 0
1, 71280, Note_on_c, 0, 88, 78
1, 71280, Note_on_c, 0, 55, 41
1, 71400, Tempo, 1200000
1, 71400, Note_on_c, 0, 55, 0
1, 71400, Note_on_c, 0, 88, 0
1, 71400, Note_on_c, 0, 84, 72
1, 71400, Note_on_c, 0, 60, 41
1, 71520, Tempo, 1132075
1, 71520, Note_on_c, 0, 60, 0
1, 71520, Note_on_c, 0, 84, 0
1, 71520, Note_on_c, 0, 83, 77
1, 71520, Note_on_c, 0, 53, 47
1, 71531, Control_c, 0, 64, 0
1, 71587, Control_c, 0, 64, 127
1, 71640, Note_on_c, 0, 53, 0
1, 71640, Note_on_c, 0, 83, 0
1, 71640, Note_on_c, 0, 81, 69
1, 71640, Note_on_c, 0, 60, 41
1, 71760, Note_on_c, 0, 60, 0
1, 71760, Note_on_c, 0, 81, 0
1, 71760, Note_on_c, 0, 79, 76
1, 71760, Note_on_c, 0, 57, 41
1, 71880, Note_on_c, 0, 57, 0
1, 71880, Note_on_c, 0, 79, 0
1, 71880, Note_on_c, 0, 77, 67
1, 71880, Note_on_c, 0, 60, 41
1, 72000, Note_on_c, 0, 60, 0
1, 72000, Note_on_c, 0, 77, 0
1, 72000, Note_on_c, 0, 76, 75
1, 72000, Note_on_c, 0, 55, 47
1, 72013, Control_c, 0, 64, 0
1, 72076, Control_c, 0, 64, 127
1, 72120, Note_on_c, 0, 55, 0
1, 72120, Note_on_c, 0, 64, 40
1, 72240, Note_on_c, 0, 64, 0
1, 72240, Note_on_c, 0, 60, 40
1, 72360, Note_on_c, 0, 60, 0
1, 72360, Note_on_c, 0, 64, 40
1, 72480, Note_on_c, 0, 64, 0
1, 72480, Note_on_c, 0, 76, 0
1, 72480, Note_on_c, 0, 74, 68
1, 72480, Note_on_c, 0, 55, 47
1, 72491, Tempo, 1165049
1, 72492, Control_c, 0, 64, 0
1, 72520, Note_on_c, 0, 74, 0
1, 72520, Note_on_c, 0, 76, 60
1, 72536, Tempo, 1153846
1, 72543, Control_c, 0, 64, 127
1, 72560, Note_on_c, 0, 76, 0
1, 72560, Note_on_c, 0, 74, 68
1, 72581, Tempo, 1142857
1, 72600, Note_on_c, 0, 74, 0
1, 72600, Note_on_c, 0, 55, 0
1, 72600, Note_on_c, 0, 76, 61
1, 72600, Note_on_c, 0, 65, 42
1, 72626, Tempo, 1132075
1, 72640, Note_on_c, 0, 76, 0
1, 72640, Note_on_c, 0, 74, 68
1, 72656, Tempo, 1121495
1, 72680, Note_on_c, 0, 74, 0
1, 72680, Note_on_c, 0, 76, 61
1, 72714, Note_on_c, 0, 74, 68
1, 72720, Note_on_c, 0, 76, 0
1, 72720, Note_on_c, 0, 65, 0
1, 72720, Note_on_c, 0, 62, 42
1, 72754, Note_on_c, 0, 74, 0
1, 72755, Note_on_c, 0, 76, 60
1, 72761, Tempo, 1132075
1, 72794, Note_on_c, 0, 74, 68
1, 72795, Note_on_c, 0, 76, 0
1, 72834, Note_on_c, 0, 74, 0
1, 72837, Note_on_c, 0, 72, 63
1, 72840, Note_on_c, 0, 62, 0
1, 72840, Note_on_c, 0, 65, 42
1, 72851, Tempo, 1142857
1, 72866, Tempo, 1165049
1, 72881, Tempo, 1188119
1, 72896, Tempo, 1212121
1, 72897, Note_on_c, 0, 72, 0
1, 72897, Note_on_c, 0, 74, 62
1, 72911, Tempo, 1237113
1, 72926, Tempo, 1263158
1, 72941, Tempo, 1290323
1, 72957, Note_on_c, 0, 74, 0
1, 72960, Tempo, 1142857
1, 72960, Note_on_c, 0, 65, 0
1, 72960, Note_on_c, 0, 72, 68
1, 72960, Note_on_c, 0, 60, 39
1, 72960, Note_on_c, 0, 64, 47
1, 72963, Control_c, 0, 64, 0
1, 73080, Note_on_c, 0, 72, 0
1, 73200, Note_on_c, 0, 76, 48
1, 73200, Note_on_c, 0, 72, 40
1, 73320, Note_on_c, 0, 72, 0
1, 73320, Note_on_c, 0, 76, 0
1, 73440, Note_on_c, 0, 64, 0
1, 73440, Note_on_c, 0, 60, 0
1, 73440, Note_on_c, 0, 76, 48
1, 73440, Note_on_c, 0, 72, 40
1, 73560, Note_on_c, 0, 72, 0
1, 73560, Note_on_c, 0, 76, 0
1, 73680, Note_on_c, 0, 76, 48
1, 73680, Note_on_c, 0, 72, 40
1, 73800, Note_on_c, 0, 72, 0
1, 73800, Note_on_c, 0, 76, 0
1, 73920, Tempo, 1061947
1, 73920, Note_on_c, 0, 77, 52
1, 73920, Note_on_c, 0, 72, 44
1, 73927, Control_c, 0, 64, 127
1, 73980, Note_on_c, 0, 77, 0
1, 73980, Note_on_c, 0, 76, 47
1, 74040, Tempo, 1121495
1, 74040, Note_on_c, 0, 76, 0
1, 74040, Note_on_c, 0, 74, 47
1, 74100, Note_on_c, 0, 74, 0
1, 74100, Note_on_c, 0, 76, 48
1, 74160, Note_on_c, 0, 76, 0
1, 74160, Note_on_c, 0, 72, 0
1, 74160, Note_on_c, 0, 76, 44
1, 74160, Note_on_c, 0, 79, 52
1, 74170, Control_c, 0, 64, 0
1, 74224, Control_c, 0, 64, 127
1, 74400, Note_on_c, 0, 79, 0
1, 74400, Note_on_c, 0, 76, 0
1, 74400, Note_on_c, 0, 76, 60
1, 74400, Note_on_c, 0, 72, 51
1, 74415, Control_c, 0, 64, 0
1, 74471, Control_c, 0, 64, 127
1, 74640, Tempo, 1276596
1, 74640, Note_on_c, 0, 72, 0
1, 74640, Note_on_c, 0, 76, 0
1, 74640, Note_on_c, 0, 72, 66
1, 74640, Note_on_c, 0, 69, 55
1, 74880, Tempo, 1121495
1, 74880, Note_on_c, 0, 69, 0
1, 74880, Note_on_c, 0, 72, 0
1, 74880, Note_on_c, 0, 65, 60
1, 74880, Note_on_c, 0, 69, 72
1, 74880, Control_c, 0, 64, 0
1, 74926, Control_c, 0, 64, 127
1, 75360, Tempo, 1111111
1, 75360, Note_on_c, 0, 41, 59
1, 75360, Note_on_c, 0, 53, 70
1, 75377, Control_c, 0, 64, 0
1, 75480, Note_on_c, 0, 53, 0
1, 75480, Note_on_c, 0, 65, 0
1, 75480, Note_on_c, 0, 69, 0
1, 75480, Note_on_c, 0, 41, 0
1, 75480, Note_on_c, 0, 69, 58
1, 75480, Note_on_c, 0, 65, 49
1, 75600, Note_on_c, 0, 65, 0
1, 75600, Note_on_c, 0, 69, 0
1, 75600, Note_on_c, 0, 67, 49
1, 75600, Note_on_c, 0, 71, 58
1, 75629, Control_c, 0, 64, 127
1, 75720, Tempo, 1212121
1, 75720, Note_on_c, 0, 71, 0
1, 75720, Note_on_c, 0, 67, 0
1, 75720, Note_on_c, 0, 69, 49
1, 75720, Note_on_c, 0, 72, 58
1, 75828, Note_on_c, 0, 72, 0
1, 75828, Note_on_c, 0, 69, 0
1, 75840, Tempo, 1111111
1, 75840, Note_on_c, 0, 72, 63
1, 75840, Note_on_c, 0, 69, 53
1, 75840, Note_on_c, 0, 55, 63
1, 75840, Note_on_c, 0, 43, 53
1, 75857, Control_c, 0, 64, 0
1, 75915, Control_c, 0, 64, 127
1, 75960, Note_on_c, 0, 43, 0
1, 75960, Note_on_c, 0, 72, 0
1, 75960, Note_on_c, 0, 69, 0
1, 75960, Note_on_c, 0, 55, 0
1, 75960, Note_on_c, 0, 67, 50
1, 75960, Note_on_c, 0, 71, 59
1, 76080, Note_on_c, 0, 71, 0
1, 76080, Note_on_c, 0, 67, 0
1, 76080, Note_on_c, 0, 65, 50
1, 76080, Note_on_c, 0, 69, 59
1, 76085, Control_c, 0, 64, 0
1, 76200, Tempo, 1165049
1, 76200, Note_on_c, 0, 69, 0
1, 76200, Note_on_c, 0, 65, 0
1, 76200, Note_on_c, 0, 64, 50
1, 76200, Note_on_c, 0, 67, 59
1, 76308, Note_on_c, 0, 67, 0
1, 76308, Note_on_c, 0, 64, 0
1, 76320, Tempo, 1132075
1, 76320, Note_on_c, 0, 64, 53
1, 76320, Note_on_c, 0, 67, 63
1, 76320, Note_on_c, 0, 43, 53
1, 76320, Note_on_c, 0, 55, 63
1, 76400, Control_c, 0, 64, 127
1, 76440, Note_on_c, 0, 55, 0
1, 76440, Note_on_c, 0, 64, 0
1, 76440, Note_on_c, 0, 67, 0
1, 76440, Note_on_c, 0, 43, 0
1, 76440, Note_on_c, 0, 65, 53
1, 76440, Note_on_c, 0, 62, 45
1, 76560, Note_on_c, 0, 62, 0
1, 76560, Note_on_c, 0, 65, 0
1, 76560, Note_on_c, 0, 64, 53
1, 76560, Note_on_c, 0, 60, 45
1, 76577, Control_c, 0, 64, 0
1, 76680, Tempo, 1263158
1, 76680, Note_on_c, 0, 60, 0
1, 76680, Note_on_c, 0, 64, 0
1, 76680, Note_on_c, 0, 59, 45
1, 76680, Note_on_c, 0, 62, 53
1, 76788, Note_on_c, 0, 62, 0
1, 76788, Note_on_c, 0, 59, 0
1, 76800, Tempo, 1142857
1, 76800, Note_on_c, 0, 36, 63
1, 76800, Note_on_c, 0, 48, 63
1, 76828, Control_c, 0, 64, 127
1, 77040, Note_on_c, 0, 72, 63
1, 77120, Note_on_c, 0, 72, 0
1, 77120, Note_on_c, 0, 76, 57
1, 77200, Note_on_c, 0, 76, 0
1, 77200, Note_on_c, 0, 84, 57
1, 77280, Tempo, 1132075
1, 77280, Note_on_c, 0, 84, 0
1, 77280, Note_on_c, 0, 48, 0
1, 77280, Note_on_c, 0, 36, 0
1, 77280, Note_on_c, 0, 72, 63
1, 77360, Note_on_c, 0, 72, 0
1, 77360, Note_on_c, 0, 76, 55
1, 77440, Note_on_c, 0, 76, 0
1, 77440, Note_on_c, 0, 84, 55
1, 77520, Note_on_c, 0, 84, 0
1, 77520, Note_on_c, 0, 72, 63
1, 77600, Note_on_c, 0, 72, 0
1, 77600, Note_on_c, 0, 76, 55
1, 77680, Note_on_c, 0, 76, 0
1, 77680, Note_on_c, 0, 84, 55
1, 77760, Tempo, 1111111
1, 77760, Note_on_c, 0, 84, 0
1, 77760, Note_on_c, 0, 72, 69
1, 77840, Note_on_c, 0, 72, 0
1, 77840, Note_on_c, 0, 76, 59
1, 77920, Note_on_c, 0, 76, 0
1, 77920, Note_on_c, 0, 84, 61
1, 78000, Note_on_c, 0, 84, 0
1, 78000, Note_on_c, 0, 76, 72
1, 78080, Note_on_c, 0, 76, 0
1, 78080, Note_on_c, 0, 79, 64
1, 78160, Note_on_c, 0, 79, 0
1, 78160, Note_on_c, 0, 88, 66
1, 78240, Tempo, 1100917
1, 78240, Note_on_c, 0, 88, 0
1, 78240, Note_on_c, 0, 72, 75
1, 78320, Note_on_c, 0, 72, 0
1, 78320, Note_on_c, 0, 76, 66
1, 78400, Note_on_c, 0, 76, 0
1, 78400, Note_on_c, 0, 84, 69
1, 78480, Note_on_c, 0, 84, 0
1, 78480, Note_on_c, 0, 69, 80
1, 78560, Note_on_c, 0, 69, 0
1, 78560, Note_on_c, 0, 72, 69
1, 78640, Tempo, 1643836
1, 78640, Note_on_c, 0, 72, 0
1, 78640, Note_on_c, 0, 81, 71
1, 78720, Tempo, 1132075
1, 78720, Note_on_c, 0, 81, 0
1, 78720, Note_on_c, 0, 65, 81
1, 78726, Control_c, 0, 64, 0
1, 78829, Control_c, 0, 64, 127
1, 79200, Note_on_c, 0, 41, 59
1, 79200, Note_on_c, 0, 53, 70
1, 79207, Control_c, 0, 64, 0
1, 79320, Tempo, 1165049
1, 79320, Note_on_c, 0, 53, 0
1, 79320, Note_on_c, 0, 41, 0
1, 79320, Note_on_c, 0, 65, 0
1, 79320, Note_on_c, 0, 72, 66
1, 79320, Note_on_c, 0, 69, 56
1, 79440, Note_on_c, 0, 69, 0
1, 79440, Note_on_c, 0, 72, 0
1, 79440, Note_on_c, 0, 67, 57
1, 79440, Note_on_c, 0, 71, 68
1, 79520, Control_c, 0, 64, 127
1, 79560, Tempo, 1237113
1, 79560, Note_on_c, 0, 71, 0
1, 79560, Note_on_c, 0, 67, 0
1, 79560, Note_on_c, 0, 69, 63
1, 79560, Note_on_c, 0, 65, 53
1, 79668, Note_on_c, 0, 65, 0
1, 79668, Note_on_c, 0, 69, 0
1, 79680, Tempo, 1200000
1, 79680, Note_on_c, 0, 69, 67
1, 79680, Note_on_c, 0, 65, 56
1, 79680, Note_on_c, 0, 55, 63
1, 79680, Note_on_c, 0, 43, 53
1, 79690, Control_c, 0, 64, 0
1, 79760, Control_c, 0, 64, 127
1, 79800, Note_on_c, 0, 43, 0
1, 79800, Note_on_c, 0, 69, 0
1, 79800, Note_on_c, 0, 65, 0
1, 79800, Note_on_c, 0, 55, 0
1, 79800, Note_on_c, 0, 67, 65
1, 79800, Note_on_c, 0, 64, 55
1, 79920, Note_on_c, 0, 64, 0
1, 79920, Note_on_c, 0, 67, 0
1, 79920, Note_on_c, 0, 62, 53
1, 79920, Note_on_c, 0, 65, 63
1, 79924, Control_c, 0, 64, 0
1, 80040, Note_on_c, 0, 65, 0
1, 80040, Note_on_c, 0, 62, 0
1, 80040, Note_on_c, 0, 60, 51
1, 80040, Note_on_c, 0, 64, 61
1, 80148, Note_on_c, 0, 64, 0
1, 80148, Note_on_c, 0, 60, 0
1, 80160, Note_on_c, 0, 64, 63
1, 80160, Note_on_c, 0, 53, 63
1, 80166, Note_on_c, 0, 43, 53
1, 80223, Control_c, 0, 64, 127
1, 80280, Note_on_c, 0, 64, 0
1, 80280, Note_on_c, 0, 62, 56
1, 80400, Note_on_c, 0, 62, 0
1, 80400, Note_on_c, 0, 53, 0
1, 80400, Note_on_c, 0, 60, 56
1, 80406, Note_on_c, 0, 43, 0
1, 80408, Control_c, 0, 64, 0
1, 80520, Tempo, 1764706
1, 80520, Note_on_c, 0, 60, 0
1, 80520, Note_on_c, 0, 59, 56
1, 80520, Note_on_c, 0, 53, 47
1, 80628, Note_on_c, 0, 53, 0
1, 80628, Note_on_c, 0, 59, 0
1, 80640, Tempo, 1290323
1, 80640, Note_on_c, 0, 59, 59
1, 80640, Note_on_c, 0, 53, 59
1, 80640, Note_on_c, 0, 48, 56
1, 80672, Control_c, 0, 64, 127
1, 81555, Note_on_c, 0, 48, 0
1, 81555, Note_on_c, 0, 53, 0
1, 81555, Note_on_c, 0, 59, 0
1, 81555, Note_on_c, 0, 36, 49
1, 81570, Note_on_c, 0, 40, 53
1, 81579, Control_c, 0, 64, 0
1, 81585, Note_on_c, 0, 43, 56
1, 81600, Note_on_c, 0, 55, 52
1, 81600, Note_on_c, 0, 52, 52
1, 81600, Note_on_c, 0, 60, 52
1, 81600, Note_on_c, 0, 48, 60
1, 81625, Control_c, 0, 64, 127
1, 81820, Note_on_c, 0, 40, 0
1, 81840, Note_on_c, 0, 60, 0
1, 81840, Note_on_c, 0, 43, 0
1, 81840, Note_on_c, 0, 55, 0
1, 81840, Note_on_c, 0, 36, 0
1, 81840, Note_on_c, 0, 48, 0
1, 81840, Note_on_c, 0, 52, 0
1, 82020, Control_c, 0, 64, 0
1, 82320, Marker_t, "Teil 2"
1, 82500, Tempo, 1212121
1, 82515, Note_on_c, 0, 48, 45
1, 82530, Note_on_c, 0, 52, 48
1, 82545, Note_on_c, 0, 55, 51
1, 82560, Tempo, 1200000
1, 82560, Note_on_c, 0, 72, 60
1, 82560, Note_on_c, 0, 67, 51
1, 82560, Note_on_c, 0, 64, 51
1, 82560, Note_on_c, 0, 60, 53
1, 82560, Control_c, 0, 64, 127
1, 82680, Note_on_c, 0, 60, 0
1, 82680, Note_on_c, 0, 67, 0
1, 82680, Note_on_c, 0, 52, 0
1, 82680, Note_on_c, 0, 48, 0
1, 82680, Note_on_c, 0, 55, 0
1, 82680, Note_on_c, 0, 64, 0
1, 82920, Note_on_c, 0, 72, 0
1, 82920, Note_on_c, 0, 67, 56
1, 83040, Tempo, 1188119
1, 83040, Note_on_c, 0, 67, 0
1, 83040, Note_on_c, 0, 77, 60
1, 83050, Control_c, 0, 64, 0
1, 83160, Note_on_c, 0, 77, 0
1, 83160, Note_on_c, 0, 76, 54
1, 83220, Tempo, 1176471
1, 83280, Note_on_c, 0, 76, 0
1, 83280, Note_on_c, 0, 74, 54
1, 83400, Tempo, 1250000
1, 83400, Note_on_c, 0, 74, 0
1, 83400, Note_on_c, 0, 72, 54
1, 83520, Tempo, 1165049
1, 83520, Note_on_c, 0, 72, 0
1, 83520, Note_on_c, 0, 79, 60
1, 83520, Note_on_c, 0, 60, 44
1, 83556, Control_c, 0, 64, 127
1, 83640, Note_on_c, 0, 60, 0
1, 83640, Note_on_c, 0, 79, 0
1, 83640, Note_on_c, 0, 70, 37
1, 83760, Tempo, 1165049
1, 83760, Note_on_c, 0, 70, 0
1, 83760, Note_on_c, 0, 67, 37
1, 83880, Note_on_c, 0, 67, 0
1, 83880, Note_on_c, 0, 70, 37
1, 84000, Note_on_c, 0, 70, 0
1, 84000, Note_on_c, 0, 60, 44
1, 84120, Note_on_c, 0, 60, 0
1, 84120, Note_on_c, 0, 70, 39
1, 84240, Note_on_c, 0, 70, 0
1, 84240, Note_on_c, 0, 67, 39
1, 84360, Tempo, 1224490
1, 84360, Note_on_c, 0, 67, 0
1, 84360, Note_on_c, 0, 70, 39
1, 84480, Tempo, 1153846
1, 84480, Note_on_c, 0, 70, 0
1, 84480, Note_on_c, 0, 77, 60
1, 84480, Note_on_c, 0, 60, 44
1, 84480, Control_c, 0, 64, 0
1, 84565, Control_c, 0, 64, 127
1, 84600, Note_on_c, 0, 60, 0
1, 84600, Note_on_c, 0, 69, 37
1, 84720, Note_on_c, 0, 69, 0
1, 84720, Note_on_c, 0, 65, 37
1, 84840, Note_on_c, 0, 65, 0
1, 84840, Note_on_c, 0, 77, 0
1, 84840, Note_on_c, 0, 72, 56
1, 84840, Note_on_c, 0, 69, 37
1, 84960, Tempo, 1153846
1, 84960, Note_on_c, 0, 69, 0
1, 84960, Note_on_c, 0, 72, 0
1, 84960, Note_on_c, 0, 82, 60
1, 84960, Note_on_c, 0, 60, 44
1, 85080, Tempo, 1132075
1, 85080, Note_on_c, 0, 60, 0
1, 85080, Note_on_c, 0, 82, 0
1, 85080, Note_on_c, 0, 81, 54
1, 85080, Note_on_c, 0, 69, 39
1, 85140, Tempo, 1176471
1, 85200, Note_on_c, 0, 69, 0
1, 85200, Note_on_c, 0, 81, 0
1, 85200, Note_on_c, 0, 79, 54
1, 85200, Note_on_c, 0, 65, 39
1, 85320, Tempo, 1224490
1, 85320, Note_on_c, 0, 65, 0
1, 85320, Note_on_c, 0, 79, 0
1, 85320, Note_on_c, 0, 77, 54
1, 85320, Note_on_c, 0, 69, 39
1, 85440, Tempo, 1176471
1, 85440, Note_on_c, 0, 69, 0
1, 85440, Note_on_c, 0, 77, 0
1, 85440, Note_on_c, 0, 84, 60
1, 85440, Note_on_c, 0, 60, 44
1, 85449, Control_c, 0, 64, 0
1, 85560, Note_on_c, 0, 60, 0
1, 85560, Note_on_c, 0, 84, 0
1, 85560, Note_on_c, 0, 67, 37
1, 85620, Control_c, 0, 64, 127
1, 85680, Tempo, 1165049
1, 85680, Note_on_c, 0, 67, 0
1, 85680, Note_on_c, 0, 64, 37
1, 85800, Note_on_c, 0, 64, 0
1, 85800, Note_on_c, 0, 67, 37
1, 85920, Note_on_c, 0, 67, 0
1, 85920, Note_on_c, 0, 60, 44
1, 86040, Note_on_c, 0, 60, 0
1, 86040, Note_on_c, 0, 67, 39
1, 86160, Note_on_c, 0, 67, 0
1, 86160, Note_on_c, 0, 64, 39
1, 86280, Note_on_c, 0, 64, 0
1, 86280, Note_on_c, 0, 83, 60
1, 86280, Note_on_c, 0, 67, 39
1, 86320, Note_on_c, 0, 83, 0
1, 86320, Note_on_c, 0, 84, 62
1, 86360, Note_on_c, 0, 84, 0
1, 86361, Note_on_c, 0, 86, 64
1, 86400, Tempo, 1142857
1, 86400, Note_on_c, 0, 67, 0
1, 86400, Note_on_c, 0, 84, 67
1, 86400, Note_on_c, 0, 57, 44
1, 86400, Control_c, 0, 64, 0
1, 86401, Note_on_c, 0, 86, 0
1, 86457, Control_c, 0, 64, 127
1, 86520, Note_on_c, 0, 57, 0
1, 86520, Note_on_c, 0, 63, 39
1, 86640, Note_on_c, 0, 63, 0
1, 86640, Note_on_c, 0, 60, 39
1, 86760, Note_on_c, 0, 60, 0
1, 86760, Note_on_c, 0, 63, 39
1, 86880, Note_on_c, 0, 63, 0
1, 86880, Note_on_c, 0, 57, 44
1, 87000, Note_on_c, 0, 57, 0
1, 87000, Note_on_c, 0, 63, 39
1, 87120, Note_on_c, 0, 63, 0
1, 87120, Note_on_c, 0, 60, 39
1, 87240, Note_on_c, 0, 60, 0
1, 87240, Note_on_c, 0, 84, 0
1, 87240, Note_on_c, 0, 82, 60
1, 87240, Note_on_c, 0, 63, 39
1, 87280, Note_on_c, 0, 82, 0
1, 87280, Note_on_c, 0, 81, 60
1, 87320, Note_on_c, 0, 81, 0
1, 87321, Note_on_c, 0, 79, 60
1, 87360, Note_on_c, 0, 63, 0
1, 87360, Note_on_c, 0, 78, 68
1, 87360, Note_on_c, 0, 57, 44
1, 87361, Note_on_c, 0, 79, 0
1, 87373, Control_c, 0, 64, 0
1, 87420, Control_c, 0, 64, 127
1, 87480, Note_on_c, 0, 57, 0
1, 87480, Note_on_c, 0, 78, 0
1, 87480, Note_on_c, 0, 75, 63
1, 87480, Note_on_c, 0, 63, 40
1, 87600, Note_on_c, 0, 63, 0
1, 87600, Note_on_c, 0, 75, 0
1, 87600, Note_on_c, 0, 74, 63
1, 87600, Note_on_c, 0, 60, 41
1, 87720, Note_on_c, 0, 60, 0
1, 87720, Note_on_c, 0, 74, 0
1, 87720, Note_on_c, 0, 72, 64
1, 87720, Note_on_c, 0, 63, 42
1, 87840, Note_on_c, 0, 63, 0
1, 87840, Note_on_c, 0, 72, 0
1, 87840, Note_on_c, 0, 70, 68
1, 87840, Note_on_c, 0, 57, 49
1, 87848, Control_c, 0, 64, 0
1, 87888, Control_c, 0, 64, 127
1, 87960, Note_on_c, 0, 57, 0
1, 87960, Note_on_c, 0, 70, 0
1, 87960, Note_on_c, 0, 69, 70
1, 87960, Note_on_c, 0, 63, 45
1, 88080, Note_on_c, 0, 63, 0
1, 88080, Note_on_c, 0, 69, 0
1, 88080, Note_on_c, 0, 67, 71
1, 88080, Note_on_c, 0, 60, 46
1, 88200, Tempo, 1263158
1, 88200, Note_on_c, 0, 60, 0
1, 88200, Note_on_c, 0, 67, 0
1, 88200, Note_on_c, 0, 66, 73
1, 88200, Note_on_c, 0, 63, 47
1, 88320, Tempo, 1100917
1, 88320, Note_on_c, 0, 63, 0
1, 88320, Note_on_c, 0, 66, 0
1, 88320, Note_on_c, 0, 67, 74
1, 88320, Note_on_c, 0, 58, 55
1, 88334, Control_c, 0, 64, 0
1, 88384, Control_c, 0, 64, 127
1, 88437, Note_on_c, 0, 67, 0
1, 88440, Note_on_c, 0, 58, 0
1, 88440, Note_on_c, 0, 67, 48
1, 88560, Tempo, 1142857
1, 88560, Note_on_c, 0, 67, 0
1, 88560, Note_on_c, 0, 70, 77
1, 88560, Note_on_c, 0, 62, 48
1, 88680, Note_on_c, 0, 62, 0
1, 88680, Note_on_c, 0, 70, 0
1, 88680, Note_on_c, 0, 67, 48
1, 88800, Tempo, 1100917
1, 88800, Note_on_c, 0, 67, 0
1, 88800, Note_on_c, 0, 74, 82
1, 88800, Note_on_c, 0, 58, 55
1, 88920, Note_on_c, 0, 58, 0
1, 88920, Note_on_c, 0, 74, 0
1, 88920, Note_on_c, 0, 67, 48
1, 89040, Tempo, 1121495
1, 89040, Note_on_c, 0, 67, 0
1, 89040, Note_on_c, 0, 79, 84
1, 89040, Note_on_c, 0, 62, 48
1, 89160, Tempo, 1250000
1, 89160, Note_on_c, 0, 62, 0
1, 89160, Note_on_c, 0, 79, 0
1, 89160, Note_on_c, 0, 67, 48
1, 89280, Tempo, 1121495
1, 89280, Note_on_c, 0, 67, 0
1, 89280, Note_on_c, 0, 82, 86
1, 89280, Note_on_c, 0, 58, 55
1, 89308, Control_c, 0, 64, 0
1, 89358, Control_c, 0, 64, 127
1, 89400, Note_on_c, 0, 58, 0
1, 89400, Note_on_c, 0, 82, 0
1, 89400, Note_on_c, 0, 67, 48
1, 89520, Note_on_c, 0, 67, 0
1, 89520, Note_on_c, 0, 62, 48
1, 89640, Note_on_c, 0, 62, 0
1, 89640, Note_on_c, 0, 67, 48
1, 89760, Note_on_c, 0, 67, 0
1, 89760, Note_on_c, 0, 58, 55
1, 89880, Note_on_c, 0, 58, 0
1, 89880, Note_on_c, 0, 67, 48
1, 90000, Note_on_c, 0, 67, 0
1, 90000, Note_on_c, 0, 62, 48
1, 90120, Note_on_c, 0, 62, 0
1, 90120, Note_on_c, 0, 67, 48
1, 90240, Tempo, 1142857
1, 90240, Note_on_c, 0, 67, 0
1, 90240, Note_on_c, 0, 86, 90
1, 90240, Note_on_c, 0, 58, 55
1, 90254, Control_c, 0, 64, 0
1, 90304, Control_c, 0, 64, 127
1, 90360, Note_on_c, 0, 58, 0
1, 90360, Note_on_c, 0, 86, 0
1, 90360, Note_on_c, 0, 67, 45
1, 90480, Note_on_c, 0, 67, 0
1, 90480, Note_on_c, 0, 86, 90
1, 90480, Note_on_c, 0, 64, 45
1, 90600, Note_on_c, 0, 64, 0
1, 90600, Note_on_c, 0, 67, 45
1, 90720, Tempo, 1132075
1, 90720, Note_on_c, 0, 67, 0
1, 90720, Note_on_c, 0, 58, 52
1, 90840, Note_on_c, 0, 58, 0
1, 90840, Note_on_c, 0, 67, 42
1, 90960, Note_on_c, 0, 67, 0
1, 90960, Note_on_c, 0, 86, 0
1, 90960, Note_on_c, 0, 84, 72
1, 90960, Note_on_c, 0, 64, 42
1, 91020, Note_on_c, 0, 84, 0
1, 91020, Note_on_c, 0, 82, 73
1, 91080, Tempo, 1250000
1, 91080, Note_on_c, 0, 82, 0
1, 91080, Note_on_c, 0, 64, 0
1, 91080, Note_on_c, 0, 81, 74
1, 91080, Note_on_c, 0, 67, 42
1, 91140, Note_on_c, 0, 81, 0
1, 91140, Note_on_c, 0, 79, 74
1, 91200, Tempo, 1121495
1, 91200, Note_on_c, 0, 79, 0
1, 91200, Note_on_c, 0, 67, 0
1, 91200, Note_on_c, 0, 84, 84
1, 91200, Note_on_c, 0, 57, 55
1, 91228, Control_c, 0, 64, 0
1, 91278, Control_c, 0, 64, 127
1, 91320, Note_on_c, 0, 57, 0
1, 91320, Note_on_c, 0, 84, 0
1, 91320, Note_on_c, 0, 65, 46
1, 91440, Note_on_c, 0, 65, 0
1, 91440, Note_on_c, 0, 84, 84
1, 91440, Note_on_c, 0, 60, 46
1, 91560, Note_on_c, 0, 60, 0
1, 91560, Note_on_c, 0, 65, 46
1, 91680, Note_on_c, 0, 65, 0
1, 91680, Note_on_c, 0, 57, 55
1, 91800, Note_on_c, 0, 57, 0
1, 91800, Note_on_c, 0, 65, 48
1, 91920, Note_on_c, 0, 65, 0
1, 91920, Note_on_c, 0, 84, 0
1, 91920, Note_on_c, 0, 82, 70
1, 91920, Note_on_c, 0, 60, 48
1, 91980, Note_on_c, 0, 82, 0
1, 91980, Note_on_c, 0, 81, 72
1, 92040, Tempo, 1224490
1, 92040, Note_on_c, 0, 81, 0
1, 92040, Note_on_c, 0, 60, 0
1, 92040, Note_on_c, 0, 79, 73
1, 92040, Note_on_c, 0, 65, 43
1, 92100, Note_on_c, 0, 79, 0
1, 92100, Note_on_c, 0, 77, 75
1, 92160, Tempo, 1121495
1, 92160, Note_on_c, 0, 77, 0
1, 92160, Note_on_c, 0, 65, 0
1, 92160, Note_on_c, 0, 84, 77
1, 92160, Note_on_c, 0, 52, 50
1, 92160, Control_c, 0, 64, 0
1, 92259, Control_c, 0, 64, 127
1, 92280, Note_on_c, 0, 52, 0
1, 92280, Note_on_c, 0, 84, 0
1, 92280, Note_on_c, 0, 82, 68
1, 92280, Note_on_c, 0, 60, 38
1, 92370, Note_on_c, 0, 82, 0
1, 92400, Note_on_c, 0, 60, 0
1, 92400, Note_on_c, 0, 82, 72
1, 92400, Note_on_c, 0, 55, 38
1, 92520, Note_on_c, 0, 55, 0
1, 92520, Note_on_c, 0, 82, 0
1, 92520, Note_on_c, 0, 81, 67
1, 92520, Note_on_c, 0, 60, 38
1, 92610, Note_on_c, 0, 81, 0
1, 92640, Note_on_c, 0, 60, 0
1, 92640, Note_on_c, 0, 81, 72
1, 92640, Note_on_c, 0, 53, 48
1, 92649, Control_c, 0, 64, 0
1, 92739, Control_c, 0, 64, 127
1, 92760, Note_on_c, 0, 53, 0
1, 92760, Note_on_c, 0, 60, 40
1, 92880, Note_on_c, 0, 60, 0
1, 92880, Note_on_c, 0, 81, 0
1, 92880, Note_on_c, 0, 57, 40
1, 93000, Tempo, 1176471
1, 93000, Note_on_c, 0, 57, 0
1, 93000, Note_on_c, 0, 60, 34
1, 93120, Tempo, 1111111
1, 93120, Note_on_c, 0, 60, 0
1, 93120, Note_on_c, 0, 84, 61
1, 93120, Note_on_c, 0, 52, 40
1, 93127, Control_c, 0, 64, 0
1, 93226, Control_c, 0, 64, 127
1, 93240, Note_on_c, 0, 52, 0
1, 93240, Note_on_c, 0, 84, 0
1, 93240, Note_on_c, 0, 82, 57
1, 93240, Note_on_c, 0, 60, 31
1, 93330, Note_on_c, 0, 82, 0
1, 93360, Note_on_c, 0, 60, 0
1, 93360, Note_on_c, 0, 82, 61
1, 93360, Note_on_c, 0, 55, 31
1, 93480, Note_on_c, 0, 55, 0
1, 93480, Note_on_c, 0, 82, 0
1, 93480, Note_on_c, 0, 81, 54
1, 93480, Note_on_c, 0, 60, 31
1, 93570, Note_on_c, 0, 81, 0
1, 93600, Note_on_c, 0, 60, 0
1, 93600, Note_on_c, 0, 81, 60
1, 93600, Note_on_c, 0, 53, 34
1, 93615, Control_c, 0, 64, 0
1, 93720, Note_on_c, 0, 53, 0
1, 93720, Note_on_c, 0, 60, 27
1, 93720, Control_c, 0, 64, 127
1, 93840, Note_on_c, 0, 60, 0
1, 93840, Note_on_c, 0, 81, 0
1, 93840, Note_on_c, 0, 57, 27
1, 93960, Note_on_c, 0, 57, 0
1, 93960, Note_on_c, 0, 60, 27
1, 94080, Tempo, 1121495
1, 94080, Note_on_c, 0, 60, 0
1, 94080, Note_on_c, 0, 84, 69
1, 94080, Note_on_c, 0, 52, 53
1, 94080, Control_c, 0, 64, 0
1, 94110, Note_on_c, 0, 84, 0
1, 94110, Note_on_c, 0, 86, 63
1, 94140, Note_on_c, 0, 86, 0
1, 94140, Note_on_c, 0, 84, 69
1, 94170, Note_on_c, 0, 84, 0
1, 94170, Note_on_c, 0, 86, 61
1, 94179, Control_c, 0, 64, 127
1, 94200, Note_on_c, 0, 86, 0
1, 94200, Note_on_c, 0, 52, 0
1, 94200, Note_on_c, 0, 82, 68
1, 94200, Note_on_c, 0, 60, 40
1, 94290, Note_on_c, 0, 82, 0
1, 94320, Note_on_c, 0, 60, 0
1, 94320, Note_on_c, 0, 82, 68
1, 94320, Note_on_c, 0, 55, 40
1, 94350, Note_on_c, 0, 82, 0
1, 94350, Note_on_c, 0, 84, 61
1, 94380, Note_on_c, 0, 84, 0
1, 94380, Note_on_c, 0, 82, 68
1, 94410, Note_on_c, 0, 82, 0
1, 94410, Note_on_c, 0, 84, 62
1, 94440, Note_on_c, 0, 84, 0
1, 94440, Note_on_c, 0, 55, 0
1, 94440, Note_on_c, 0, 81, 67
1, 94440, Note_on_c, 0, 60, 40
1, 94530, Note_on_c, 0, 81, 0
1, 94560, Note_on_c, 0, 60, 0
1, 94560, Note_on_c, 0, 81, 72
1, 94560, Note_on_c, 0, 53, 48
1, 94569, Control_c, 0, 64, 0
1, 94659, Control_c, 0, 64, 127
1, 94680, Note_on_c, 0, 53, 0
1, 94680, Note_on_c, 0, 60, 40
1, 94800, Note_on_c, 0, 60, 0
1, 94800, Note_on_c, 0, 81, 0
1, 94800, Note_on_c, 0, 57, 40
1, 94920, Tempo, 1176471
1, 94920, Note_on_c, 0, 57, 0
1, 94920, Note_on_c, 0, 60, 34
1, 95010, Note_on_c, 0, 82, 62
1, 95040, Tempo, 1111111
1, 95040, Note_on_c, 0, 82, 0
1, 95040, Note_on_c, 0, 60, 0
1, 95040, Note_on_c, 0, 81, 70
1, 95040, Note_on_c, 0, 58, 46
1, 95047, Control_c, 0, 64, 0
1, 95146, Control_c, 0, 64, 127
1, 95160, Note_on_c, 0, 58, 0
1, 95160, Note_on_c, 0, 81, 0
1, 95160, Note_on_c, 0, 79, 65
1, 95160, Note_on_c, 0, 67, 35
1, 95250, Note_on_c, 0, 79, 0
1, 95250, Note_on_c, 0, 81, 62
1, 95280, Note_on_c, 0, 81, 0
1, 95280, Note_on_c, 0, 67, 0
1, 95280, Note_on_c, 0, 79, 70
1, 95280, Note_on_c, 0, 62, 35
1, 95400, Note_on_c, 0, 62, 0
1, 95400, Note_on_c, 0, 79, 0
1, 95400, Note_on_c, 0, 77, 62
1, 95400, Note_on_c, 0, 67, 35
1, 95520, Note_on_c, 0, 67, 0
1, 95520, Note_on_c, 0, 77, 0
1, 95520, Note_on_c, 0, 77, 69
1, 95520, Note_on_c, 0, 59, 45
1, 95535, Control_c, 0, 64, 0
1, 95640, Note_on_c, 0, 59, 0
1, 95640, Note_on_c, 0, 67, 36
1, 95640, Control_c, 0, 64, 127
1, 95760, Note_on_c, 0, 67, 0
1, 95760, Note_on_c, 0, 77, 0
1, 95760, Note_on_c, 0, 62, 36
1, 95880, Note_on_c, 0, 62, 0
1, 95880, Note_on_c, 0, 67, 36
1, 96000, Tempo, 1142857
1, 96000, Note_on_c, 0, 67, 0
1, 96000, Note_on_c, 0, 77, 65
1, 96000, Note_on_c, 0, 60, 43
1, 96007, Control_c, 0, 64, 0
1, 96106, Control_c, 0, 64, 127
1, 96120, Note_on_c, 0, 60, 0
1, 96120, Note_on_c, 0, 77, 0
1, 96120, Note_on_c, 0, 76, 57
1, 96120, Note_on_c, 0, 67, 34
1, 96240, Note_on_c, 0, 67, 0
1, 96240, Note_on_c, 0, 76, 0
1, 96240, Note_on_c, 0, 74, 61
1, 96240, Note_on_c, 0, 64, 34
1, 96360, Note_on_c, 0, 64, 0
1, 96360, Note_on_c, 0, 74, 0
1, 96360, Note_on_c, 0, 72, 54
1, 96360, Note_on_c, 0, 67, 34
1, 96450, Note_on_c, 0, 72, 0
1, 96480, Tempo, 1132075
1, 96480, Note_on_c, 0, 67, 0
1, 96480, Note_on_c, 0, 72, 60
1, 96480, Note_on_c, 0, 60, 42
1, 96495, Control_c, 0, 64, 0
1, 96600, Note_on_c, 0, 60, 0
1, 96600, Note_on_c, 0, 67, 32
1, 96600, Control_c, 0, 64, 127
1, 96720, Note_on_c, 0, 67, 0
1, 96720, Note_on_c, 0, 72, 0
1, 96720, Note_on_c, 0, 72, 54
1, 96720, Note_on_c, 0, 64, 32
1, 96840, Note_on_c, 0, 64, 0
1, 96840, Note_on_c, 0, 67, 32
1, 96960, Tempo, 1165049
1, 96960, Note_on_c, 0, 67, 0
1, 96960, Note_on_c, 0, 72, 0
1, 96960, Note_on_c, 0, 74, 54
1, 96960, Note_on_c, 0, 60, 37
1, 97017, Control_c, 0, 64, 0
1, 97020, Note_on_c, 0, 74, 0
1, 97020, Note_on_c, 0, 72, 54
1, 97080, Note_on_c, 0, 72, 0
1, 97080, Note_on_c, 0, 60, 0
1, 97080, Note_on_c, 0, 71, 54
1, 97080, Note_on_c, 0, 62, 29
1, 97140, Note_on_c, 0, 71, 0
1, 97140, Note_on_c, 0, 72, 60
1, 97200, Note_on_c, 0, 62, 0
1, 97200, Note_on_c, 0, 58, 38
1, 97320, Note_on_c, 0, 58, 0
1, 97320, Note_on_c, 0, 60, 32
1, 97340, Note_on_c, 0, 72, 0
1, 97384, Tempo, 1165049
1, 97440, Note_on_c, 0, 60, 0
1, 97440, Note_on_c, 0, 57, 34
1, 97461, Tempo, 1176471
1, 97538, Tempo, 1188119
1, 97560, Note_on_c, 0, 57, 0
1, 97560, Note_on_c, 0, 58, 27
1, 97615, Tempo, 1200000
1, 97672, Tempo, 1212121
1, 97680, Note_on_c, 0, 58, 0
1, 97680, Note_on_c, 0, 55, 34
1, 97749, Tempo, 1224490
1, 97800, Note_on_c, 0, 55, 0
1, 97800, Note_on_c, 0, 57, 28
1, 97826, Tempo, 1237113
1, 97883, Tempo, 1250000
1, 97903, Tempo, 1188119
1, 97920, Tempo, 1188119
1, 97920, Note_on_c, 0, 57, 0
1, 97920, Note_on_c, 0, 72, 60
1, 97920, Note_on_c, 0, 53, 37
1, 97963, Control_c, 0, 64, 127
1, 98040, Note_on_c, 0, 53, 0
1, 98040, Note_on_c, 0, 60, 31
1, 98160, Note_on_c, 0, 60, 0
1, 98160, Note_on_c, 0, 57, 28
1, 98280, Note_on_c, 0, 57, 0
1, 98280, Note_on_c, 0, 60, 28
1, 98400, Tempo, 1176471
1, 98400, Note_on_c, 0, 60, 0
1, 98400, Note_on_c, 0, 72, 0
1, 98400, Note_on_c, 0, 70, 55
1, 98400, Note_on_c, 0, 53, 40
1, 98414, Control_c, 0, 64, 0
1, 98467, Control_c, 0, 64, 127
1, 98520, Note_on_c, 0, 53, 0
1, 98520, Note_on_c, 0, 70, 0
1, 98520, Note_on_c, 0, 69, 50
1, 98520, Note_on_c, 0, 60, 31
1, 98640, Note_on_c, 0, 60, 0
1, 98640, Note_on_c, 0, 69, 0
1, 98640, Note_on_c, 0, 67, 55
1, 98640, Note_on_c, 0, 57, 31
1, 98760, Tempo, 1276596
1, 98760, Note_on_c, 0, 57, 0
1, 98760, Note_on_c, 0, 67, 0
1, 98760, Note_on_c, 0, 65, 49
1, 98760, Note_on_c, 0, 60, 31
1, 98850, Note_on_c, 0, 65, 0
1, 98880, Tempo, 1176471
1, 98880, Note_on_c, 0, 60, 0
1, 98880, Note_on_c, 0, 65, 55
1, 98880, Note_on_c, 0, 55, 40
1, 98891, Control_c, 0, 64, 0
1, 98923, Control_c, 0, 64, 127
1, 99000, Note_on_c, 0, 55, 0
1, 99000, Note_on_c, 0, 60, 30
1, 99120, Note_on_c, 0, 60, 0
1, 99120, Note_on_c, 0, 58, 30
1, 99240, Note_on_c, 0, 58, 0
1, 99240, Note_on_c, 0, 60, 30
1, 99360, Tempo, 1111111
1, 99360, Note_on_c, 0, 60, 0
1, 99360, Note_on_c, 0, 65, 0
1, 99360, Note_on_c, 0, 64, 55
1, 99360, Note_on_c, 0, 55, 40
1, 99367, Control_c, 0, 64, 0
1, 99420, Note_on_c, 0, 64, 0
1, 99420, Note_on_c, 0, 65, 51
1, 99480, Tempo, 1176471
1, 99480, Note_on_c, 0, 65, 0
1, 99480, Note_on_c, 0, 55, 0
1, 99480, Note_on_c, 0, 64, 57
1, 99480, Note_on_c, 0, 60, 33
1, 99500, Control_c, 0, 64, 127
1, 99600, Note_on_c, 0, 60, 0
1, 99600, Note_on_c, 0, 58, 33
1, 99720, Note_on_c, 0, 58, 0
1, 99720, Note_on_c, 0, 64, 0
1, 99720, Note_on_c, 0, 64, 51
1, 99720, Note_on_c, 0, 60, 33
1, 99840, Tempo, 1165049
1, 99840, Note_on_c, 0, 60, 0
1, 99840, Note_on_c, 0, 64, 0
1, 99840, Note_on_c, 0, 65, 55
1, 99840, Note_on_c, 0, 53, 40
1, 99840, Control_c, 0, 64, 0
1, 99890, Control_c, 0, 64, 127
1, 99960, Note_on_c, 0, 53, 0
1, 99960, Note_on_c, 0, 65, 0
1, 99960, Note_on_c, 0, 67, 52
1, 99960, Note_on_c, 0, 60, 32
1, 100080, Note_on_c, 0, 60, 0
1, 100080, Note_on_c, 0, 67, 0
1, 100080, Note_on_c, 0, 69, 54
1, 100080, Note_on_c, 0, 57, 32
1, 100200, Note_on_c, 0, 57, 0
1, 100200, Note_on_c, 0, 69, 0
1, 100200, Note_on_c, 0, 70, 55
1, 100200, Note_on_c, 0, 60, 32
1, 100320, Tempo, 1153846
1, 100320, Note_on_c, 0, 60, 0
1, 100320, Note_on_c, 0, 70, 0
1, 100320, Note_on_c, 0, 72, 59
1, 100320, Note_on_c, 0, 53, 40
1, 100327, Control_c, 0, 64, 0
1, 100387, Control_c, 0, 64, 127
1, 100440, Note_on_c, 0, 53, 0
1, 100440, Note_on_c, 0, 72, 0
1, 100440, Note_on_c, 0, 74, 61
1, 100440, Note_on_c, 0, 60, 33
1, 100560, Note_on_c, 0, 60, 0
1, 100560, Note_on_c, 0, 74, 0
1, 100560, Note_on_c, 0, 76, 64
1, 100560, Note_on_c, 0, 57, 35
1, 100680, Tempo, 1237113
1, 100680, Note_on_c, 0, 57, 0
1, 100680, Note_on_c, 0, 76, 0
1, 100680, Note_on_c, 0, 77, 66
1, 100680, Note_on_c, 0, 60, 37
1, 100770, Note_on_c, 0, 77, 0
1, 100800, Tempo, 1153846
1, 100800, Note_on_c, 0, 60, 0
1, 100800, Note_on_c, 0, 77, 66
1, 100800, Note_on_c, 0, 55, 47
1, 100804, Control_c, 0, 64, 0
1, 100850, Control_c, 0, 64, 127
1, 100920, Note_on_c, 0, 55, 0
1, 100920, Note_on_c, 0, 77, 0
1, 100920, Note_on_c, 0, 76, 64
1, 100920, Note_on_c, 0, 60, 35
1, 101033, Control_c, 0, 64, 0
1, 101040, Tempo, 1132075
1, 101040, Note_on_c, 0, 60, 0
1, 101040, Note_on_c, 0, 76, 0
1, 101040, Note_on_c, 0, 74, 61
1, 101040, Note_on_c, 0, 58, 35
1, 101100, Note_on_c, 0, 58, 0
1, 101100, Note_on_c, 0, 74, 0
1, 101160, Note_on_c, 0, 72, 59
1, 101160, Note_on_c, 0, 60, 35
1, 101220, Note_on_c, 0, 60, 0
1, 101220, Note_on_c, 0, 72, 0
1, 101280, Note_on_c, 0, 72, 57
1, 101280, Note_on_c, 0, 55, 44
1, 101319, Control_c, 0, 64, 127
1, 101400, Note_on_c, 0, 55, 0
1, 101400, Note_on_c, 0, 72, 0
1, 101400, Note_on_c, 0, 70, 55
1, 101400, Note_on_c, 0, 60, 33
1, 101520, Note_on_c, 0, 60, 0
1, 101520, Note_on_c, 0, 70, 0
1, 101520, Note_on_c, 0, 69, 52
1, 101520, Note_on_c, 0, 58, 33
1, 101526, Control_c, 0, 64, 0
1, 101580, Note_on_c, 0, 58, 0
1, 101580, Note_on_c, 0, 69, 0
1, 101640, Tempo, 1395349
1, 101640, Note_on_c, 0, 67, 50
1, 101640, Note_on_c, 0, 60, 33
1, 101700, Note_on_c, 0, 60, 0
1, 101700, Note_on_c, 0, 67, 0
1, 101760, Tempo, 1153846
1, 101760, Note_on_c, 0, 84, 72
1, 101760, Note_on_c, 0, 53, 40
1, 101803, Control_c, 0, 64, 127
1, 101880, Note_on_c, 0, 53, 0
1, 101880, Note_on_c, 0, 60, 32
1, 102000, Note_on_c, 0, 60, 0
1, 102000, Note_on_c, 0, 57, 32
1, 102120, Note_on_c, 0, 57, 0
1, 102120, Note_on_c, 0, 84, 0
1, 102120, Note_on_c, 0, 86, 64
1, 102120, Note_on_c, 0, 60, 32
1, 102180, Note_on_c, 0, 86, 0
1, 102180, Note_on_c, 0, 84, 60
1, 102240, Tempo, 1142857
1, 102240, Note_on_c, 0, 84, 0
1, 102240, Note_on_c, 0, 60, 0
1, 102240, Note_on_c, 0, 82, 68
1, 102240, Note_on_c, 0, 53, 40
1, 102249, Control_c, 0, 64, 0
1, 102289, Control_c, 0, 64, 127
1, 102360, Note_on_c, 0, 53, 0
1, 102360, Note_on_c, 0, 82, 0
1, 102360, Note_on_c, 0, 81, 60
1, 102360, Note_on_c, 0, 60, 31
1, 102480, Note_on_c, 0, 60, 0
1, 102480, Note_on_c, 0, 81, 0
1, 102480, Note_on_c, 0, 79, 62
1, 102480, Note_on_c, 0, 57, 31
1, 102600, Tempo, 1250000
1, 102600, Note_on_c, 0, 57, 0
1, 102600, Note_on_c, 0, 79, 0
1, 102600, Note_on_c, 0, 77, 60
1, 102600, Note_on_c, 0, 60, 31
1, 102690, Note_on_c, 0, 77, 0
1, 102720, Tempo, 1153846
1, 102720, Note_on_c, 0, 60, 0
1, 102720, Note_on_c, 0, 77, 70
1, 102720, Note_on_c, 0, 55, 40
1, 102727, Control_c, 0, 64, 0
1, 102766, Control_c, 0, 64, 127
1, 102840, Note_on_c, 0, 55, 0
1, 102840, Note_on_c, 0, 60, 30
1, 102960, Note_on_c, 0, 60, 0
1, 102960, Note_on_c, 0, 58, 30
1, 103080, Note_on_c, 0, 58, 0
1, 103080, Note_on_c, 0, 60, 30
1, 103200, Tempo, 1081081
1, 103200, Note_on_c, 0, 60, 0
1, 103200, Note_on_c, 0, 77, 0
1, 103200, Note_on_c, 0, 76, 60
1, 103200, Note_on_c, 0, 55, 40
1, 103211, Control_c, 0, 64, 0
1, 103260, Note_on_c, 0, 76, 0
1, 103260, Note_on_c, 0, 77, 56
1, 103320, Tempo, 1132075
1, 103320, Note_on_c, 0, 77, 0
1, 103320, Note_on_c, 0, 55, 0
1, 103320, Note_on_c, 0, 76, 60
1, 103320, Note_on_c, 0, 60, 33
1, 103369, Control_c, 0, 64, 127
1, 103440, Note_on_c, 0, 60, 0
1, 103440, Note_on_c, 0, 58, 33
1, 103560, Note_on_c, 0, 58, 0
1, 103560, Note_on_c, 0, 76, 0
1, 103560, Note_on_c, 0, 82, 57
1, 103560, Note_on_c, 0, 60, 33
1, 103680, Tempo, 1121495
1, 103680, Note_on_c, 0, 60, 0
1, 103680, Note_on_c, 0, 82, 0
1, 103680, Note_on_c, 0, 81, 66
1, 103680, Note_on_c, 0, 53, 40
1, 103680, Control_c, 0, 64, 0
1, 103740, Note_on_c, 0, 53, 0
1, 103740, Note_on_c, 0, 81, 0
1, 103800, Tempo, 1121495
1, 103800, Note_on_c, 0, 82, 60
1, 103800, Note_on_c, 0, 60, 32
1, 103860, Note_on_c, 0, 60, 0
1, 103860, Note_on_c, 0, 82, 0
1, 103920, Tempo, 1132075
1, 103920, Note_on_c, 0, 84, 66
1, 103920, Note_on_c, 0, 57, 32
1, 103980, Note_on_c, 0, 57, 0
1, 103980, Note_on_c, 0, 84, 0
1, 104040, Tempo, 1121495
1, 104040, Note_on_c, 0, 86, 67
1, 104040, Note_on_c, 0, 60, 32
1, 104100, Note_on_c, 0, 60, 0
1, 104100, Note_on_c, 0, 86, 0
1, 104160, Tempo, 1111111
1, 104160, Note_on_c, 0, 88, 77
1, 104160, Note_on_c, 0, 53, 46
1, 104220, Note_on_c, 0, 53, 0
1, 104220, Note_on_c, 0, 88, 0
1, 104280, Tempo, 1121495
1, 104280, Note_on_c, 0, 89, 71
1, 104280, Note_on_c, 0, 60, 35
1, 104340, Note_on_c, 0, 60, 0
1, 104340, Note_on_c, 0, 89, 0
1, 104400, Tempo, 1132075
1, 104400, Note_on_c, 0, 88, 74
1, 104400, Note_on_c, 0, 57, 36
1, 104460, Note_on_c, 0, 57, 0
1, 104460, Note_on_c, 0, 88, 0
1, 104520, Tempo, 1200000
1, 104520, Note_on_c, 0, 89, 72
1, 104520, Note_on_c, 0, 60, 38
1, 104580, Note_on_c, 0, 60, 0
1, 104580, Note_on_c, 0, 89, 0
1, 104640, Tempo, 1142857
1, 104640, Note_on_c, 0, 89, 80
1, 104640, Note_on_c, 0, 55, 49
1, 104683, Control_c, 0, 64, 127
1, 104760, Note_on_c, 0, 55, 0
1, 104760, Note_on_c, 0, 89, 0
1, 104760, Note_on_c, 0, 88, 72
1, 104760, Note_on_c, 0, 60, 39
1, 104880, Note_on_c, 0, 60, 0
1, 104880, Note_on_c, 0, 88, 0
1, 104880, Note_on_c, 0, 86, 73
1, 104880, Note_on_c, 0, 58, 39
1, 105000, Note_on_c, 0, 58, 0
1, 105000, Note_on_c, 0, 86, 0
1, 105000, Note_on_c, 0, 84, 70
1, 105000, Note_on_c, 0, 60, 39
1, 105090, Note_on_c, 0, 84, 0
1, 105120, Note_on_c, 0, 60, 0
1, 105120, Note_on_c, 0, 84, 75
1, 105120, Note_on_c, 0, 55, 50
1, 105130, Control_c, 0, 64, 0
1, 105166, Control_c, 0, 64, 127
1, 105240, Note_on_c, 0, 55, 0
1, 105240, Note_on_c, 0, 84, 0
1, 105240, Note_on_c, 0, 82, 70
1, 105240, Note_on_c, 0, 60, 40
1, 105360, Note_on_c, 0, 60, 0
1, 105360, Note_on_c, 0, 82, 0
1, 105360, Note_on_c, 0, 81, 68
1, 105360, Note_on_c, 0, 58, 40
1, 105480, Tempo, 1224490
1, 105480, Note_on_c, 0, 58, 0
1, 105480, Note_on_c, 0, 81, 0
1, 105480, Note_on_c, 0, 79, 67
1, 105480, Note_on_c, 0, 60, 40
1, 105600, Tempo, 1142857
1, 105600, Note_on_c, 0, 60, 0
1, 105600, Note_on_c, 0, 79, 0
1, 105600, Note_on_c, 0, 81, 68
1, 105600, Note_on_c, 0, 53, 48
1, 105600, Control_c, 0, 64, 0
1, 105720, Tempo, 1153846
1, 105720, Note_on_c, 0, 53, 0
1, 105720, Note_on_c, 0, 81, 0
1, 105720, Note_on_c, 0, 82, 68
1, 105720, Note_on_c, 0, 60, 32
1, 105741, Control_c, 0, 64, 127
1, 105840, Tempo, 1153846
1, 105840, Note_on_c, 0, 60, 0
1, 105840, Note_on_c, 0, 82, 0
1, 105840, Note_on_c, 0, 81, 75
1, 105840, Note_on_c, 0, 57, 32
1, 105960, Tempo, 1142857
1, 105960, Note_on_c, 0, 57, 0
1, 105960, Note_on_c, 0, 81, 0
1, 105960, Note_on_c, 0, 82, 74
1, 105960, Note_on_c, 0, 60, 32
1, 106080, Tempo, 1153846
1, 106080, Note_on_c, 0, 60, 0
1, 106080, Note_on_c, 0, 82, 0
1, 106080, Note_on_c, 0, 84, 83
1, 106080, Note_on_c, 0, 53, 52
1, 106098, Control_c, 0, 64, 0
1, 106158, Control_c, 0, 64, 127
1, 106200, Tempo, 1188119
1, 106200, Note_on_c, 0, 53, 0
1, 106200, Note_on_c, 0, 84, 0
1, 106200, Note_on_c, 0, 86, 81
1, 106200, Note_on_c, 0, 60, 39
1, 106320, Tempo, 1153846
1, 106320, Note_on_c, 0, 60, 0
1, 106320, Note_on_c, 0, 86, 0
1, 106320, Note_on_c, 0, 84, 91
1, 106320, Note_on_c, 0, 57, 42
1, 106440, Tempo, 1304348
1, 106440, Note_on_c, 0, 57, 0
1, 106440, Note_on_c, 0, 84, 0
1, 106440, Note_on_c, 0, 86, 85
1, 106440, Note_on_c, 0, 60, 45
1, 106560, Tempo, 1153846
1, 106560, Note_on_c, 0, 60, 0
1, 106560, Note_on_c, 0, 86, 0
1, 106560, Note_on_c, 0, 87, 97
1, 106560, Note_on_c, 0, 75, 82
1, 106560, Note_on_c, 0, 57, 65
1, 106567, Control_c, 0, 64, 0
1, 106680, Note_on_c, 0, 57, 0
1, 106680, Note_on_c, 0, 65, 55
1, 106680, Control_c, 0, 64, 127
1, 106800, Note_on_c, 0, 65, 0
1, 106800, Note_on_c, 0, 60, 55
1, 106920, Note_on_c, 0, 60, 0
1, 106920, Note_on_c, 0, 65, 55
1, 107040, Note_on_c, 0, 65, 0
1, 107040, Note_on_c, 0, 57, 63
1, 107160, Note_on_c, 0, 57, 0
1, 107160, Note_on_c, 0, 65, 51
1, 107280, Note_on_c, 0, 65, 0
1, 107280, Note_on_c, 0, 60, 51
1, 107400, Tempo, 1250000
1, 107400, Note_on_c, 0, 60, 0
1, 107400, Note_on_c, 0, 65, 51
1, 107520, Tempo, 1165049
1, 107520, Note_on_c, 0, 65, 0
1, 107520, Note_on_c, 0, 75, 0
1, 107520, Note_on_c, 0, 87, 0
1, 107520, Note_on_c, 0, 58, 58
1, 107520, Control_c, 0, 64, 0
1, 107587, Control_c, 0, 64, 127
1, 107640, Tempo, 1142857
1, 107640, Note_on_c, 0, 58, 0
1, 107640, Note_on_c, 0, 86, 70
1, 107640, Note_on_c, 0, 65, 45
1, 107760, Note_on_c, 0, 65, 0
1, 107760, Note_on_c, 0, 86, 0
1, 107760, Note_on_c, 0, 85, 75
1, 107760, Note_on_c, 0, 62, 45
1, 107880, Note_on_c, 0, 62, 0
1, 107880, Note_on_c, 0, 85, 0
1, 107880, Note_on_c, 0, 86, 68
1, 107880, Note_on_c, 0, 65, 45
1, 108000, Note_on_c, 0, 65, 0
1, 108000, Note_on_c, 0, 86, 0
1, 108000, Note_on_c, 0, 57, 51
1, 108009, Control_c, 0, 64, 0
1, 108074, Control_c, 0, 64, 127
1, 108120, Note_on_c, 0, 57, 0
1, 108120, Note_on_c, 0, 84, 67
1, 108120, Note_on_c, 0, 66, 44
1, 108240, Note_on_c, 0, 66, 0
1, 108240, Note_on_c, 0, 84, 0
1, 108240, Note_on_c, 0, 83, 76
1, 108240, Note_on_c, 0, 60, 44
1, 108360, Tempo, 1188119
1, 108360, Note_on_c, 0, 60, 0
1, 108360, Note_on_c, 0, 83, 0
1, 108360, Note_on_c, 0, 84, 67
1, 108360, Note_on_c, 0, 66, 44
1, 108480, Tempo, 1142857
1, 108480, Note_on_c, 0, 66, 0
1, 108480, Note_on_c, 0, 84, 0
1, 108480, Note_on_c, 0, 55, 51
1, 108491, Control_c, 0, 64, 0
1, 108561, Control_c, 0, 64, 127
1, 108600, Note_on_c, 0, 55, 0
1, 108600, Note_on_c, 0, 83, 70
1, 108600, Note_on_c, 0, 65, 43
1, 108720, Tempo, 1090909
1, 108720, Note_on_c, 0, 65, 0
1, 108720, Note_on_c, 0, 83, 0
1, 108720, Note_on_c, 0, 83, 69
1, 108720, Note_on_c, 0, 62, 43
1, 108780, Note_on_c, 0, 83, 0
1, 108780, Note_on_c, 0, 84, 63
1, 108840, Tempo, 1165049
1, 108840, Note_on_c, 0, 84, 0
1, 108840, Note_on_c, 0, 62, 0
1, 108840, Note_on_c, 0, 83, 68
1, 108840, Note_on_c, 0, 65, 43
1, 108960, Tempo, 1132075
1, 108960, Note_on_c, 0, 65, 0
1, 108960, Note_on_c, 0, 83, 0
1, 108960, Note_on_c, 0, 60, 51
1, 108966, Control_c, 0, 64, 0
1, 109031, Control_c, 0, 64, 127
1, 109080, Note_on_c, 0, 60, 0
1, 109080, Note_on_c, 0, 82, 72
1, 109080, Note_on_c, 0, 67, 43
1, 109200, Tempo, 1090909
1, 109200, Note_on_c, 0, 67, 0
1, 109200, Note_on_c, 0, 82, 0
1, 109200, Note_on_c, 0, 82, 72
1, 109200, Note_on_c, 0, 64, 43
1, 109260, Note_on_c, 0, 82, 0
1, 109260, Note_on_c, 0, 84, 65
1, 109320, Tempo, 1188119
1, 109320, Note_on_c, 0, 84, 0
1, 109320, Note_on_c, 0, 64, 0
1, 109320, Note_on_c, 0, 82, 75
1, 109320, Note_on_c, 0, 67, 43
1, 109440, Tempo, 1132075
1, 109440, Note_on_c, 0, 67, 0
1, 109440, Note_on_c, 0, 82, 0
1, 109440, Note_on_c, 0, 53, 47
1, 109440, Control_c, 0, 64, 0
1, 109487, Control_c, 0, 64, 127
1, 109560, Note_on_c, 0, 53, 0
1, 109560, Note_on_c, 0, 81, 67
1, 109560, Note_on_c, 0, 65, 41
1, 109680, Note_on_c, 0, 65, 0
1, 109680, Note_on_c, 0, 81, 0
1, 109680, Note_on_c, 0, 82, 70
1, 109680, Note_on_c, 0, 57, 41
1, 109800, Tempo, 1212121
1, 109800, Note_on_c, 0, 57, 0
1, 109800, Note_on_c, 0, 82, 0
1, 109800, Note_on_c, 0, 84, 72
1, 109800, Note_on_c, 0, 65, 41
1, 109890, Note_on_c, 0, 84, 0
1, 109920, Tempo, 1142857
1, 109920, Note_on_c, 0, 65, 0
1, 109920, Note_on_c, 0, 84, 72
1, 109920, Note_on_c, 0, 58, 47
1, 109929, Control_c, 0, 64, 0
1, 109962, Control_c, 0, 64, 127
1, 110040, Note_on_c, 0, 58, 0
1, 110040, Note_on_c, 0, 84, 0
1, 110040, Note_on_c, 0, 74, 66
1, 110040, Note_on_c, 0, 67, 41
1, 110160, Note_on_c, 0, 67, 0
1, 110160, Note_on_c, 0, 74, 0
1, 110160, Note_on_c, 0, 82, 72
1, 110160, Note_on_c, 0, 62, 41
1, 110280, Note_on_c, 0, 62, 0
1, 110280, Note_on_c, 0, 82, 0
1, 110280, Note_on_c, 0, 79, 65
1, 110280, Note_on_c, 0, 67, 41
1, 110400, Note_on_c, 0, 67, 0
1, 110400, Note_on_c, 0, 79, 0
1, 110400, Note_on_c, 0, 77, 72
1, 110400, Note_on_c, 0, 60, 47
1, 110406, Control_c, 0, 64, 0
1, 110446, Control_c, 0, 64, 127
1, 110520, Note_on_c, 0, 60, 0
1, 110520, Note_on_c, 0, 69, 40
1, 110640, Note_on_c, 0, 69, 0
1, 110640, Note_on_c, 0, 65, 40
1, 110760, Note_on_c, 0, 65, 0
1, 110760, Note_on_c, 0, 69, 40
1, 110861, Tempo, 1165049
1, 110880, Note_on_c, 0, 69, 0
1, 110880, Note_on_c, 0, 77, 0
1, 110880, Note_on_c, 0, 76, 68
1, 110880, Note_on_c, 0, 60, 47
1, 110888, Control_c, 0, 64, 0
1, 110906, Tempo, 1153846
1, 110918, Control_c, 0, 64, 127
1, 110920, Note_on_c, 0, 76, 0
1, 110920, Note_on_c, 0, 77, 60
1, 110936, Tempo, 1142857
1, 110960, Note_on_c, 0, 77, 0
1, 110960, Note_on_c, 0, 76, 68
1, 110966, Tempo, 1132075
1, 110996, Tempo, 1121495
1, 111000, Note_on_c, 0, 76, 0
1, 111000, Note_on_c, 0, 60, 0
1, 111000, Note_on_c, 0, 77, 61
1, 111000, Note_on_c, 0, 67, 42
1, 111026, Tempo, 1111111
1, 111040, Note_on_c, 0, 77, 0
1, 111040, Note_on_c, 0, 76, 68
1, 111080, Note_on_c, 0, 76, 0
1, 111080, Note_on_c, 0, 77, 61
1, 111116, Tempo, 1121495
1, 111120, Note_on_c, 0, 77, 0
1, 111120, Note_on_c, 0, 67, 0
1, 111120, Note_on_c, 0, 76, 68
1, 111120, Note_on_c, 0, 64, 42
1, 111191, Tempo, 1132075
1, 111240, Note_on_c, 0, 64, 0
1, 111240, Note_on_c, 0, 67, 42
1, 111266, Tempo, 1142857
1, 111341, Tempo, 1153846
1, 111360, Tempo, 1132075
1, 111360, Note_on_c, 0, 67, 0
1, 111360, Note_on_c, 0, 76, 0
1, 111360, Note_on_c, 0, 57, 47
1, 111368, Control_c, 0, 64, 0
1, 111433, Control_c, 0, 64, 127
1, 111480, Note_on_c, 0, 57, 0
1, 111480, Note_on_c, 0, 84, 72
1, 111480, Note_on_c, 0, 65, 41
1, 111600, Note_on_c, 0, 65, 0
1, 111600, Note_on_c, 0, 84, 0
1, 111600, Note_on_c, 0, 81, 75
1, 111600, Note_on_c, 0, 60, 41
1, 111720, Tempo, 1200000
1, 111720, Note_on_c, 0, 60, 0
1, 111720, Note_on_c, 0, 81, 0
1, 111720, Note_on_c, 0, 77, 67
1, 111720, Note_on_c, 0, 65, 41
1, 111840, Tempo, 1132075
1, 111840, Note_on_c, 0, 65, 0
1, 111840, Note_on_c, 0, 77, 0
1, 111840, Note_on_c, 0, 75, 77
1, 111840, Note_on_c, 0, 58, 47
1, 111851, Control_c, 0, 64, 0
1, 111907, Control_c, 0, 64, 127
1, 111960, Note_on_c, 0, 58, 0
1, 111960, Note_on_c, 0, 75, 0
1, 111960, Note_on_c, 0, 74, 69
1, 111960, Note_on_c, 0, 65, 41
1, 112080, Note_on_c, 0, 65, 0
1, 112080, Note_on_c, 0, 74, 0
1, 112080, Note_on_c, 0, 85, 82
1, 112080, Note_on_c, 0, 62, 41
1, 112200, Note_on_c, 0, 62, 0
1, 112200, Note_on_c, 0, 85, 0
1, 112200, Note_on_c, 0, 86, 76
1, 112200, Note_on_c, 0, 65, 41
1, 112320, Note_on_c, 0, 65, 0
1, 112320, Note_on_c, 0, 86, 0
1, 112320, Note_on_c, 0, 77, 75
1, 112320, Note_on_c, 0, 60, 47
1, 112333, Control_c, 0, 64, 0
1, 112396, Control_c, 0, 64, 127
1, 112440, Note_on_c, 0, 60, 0
1, 112440, Note_on_c, 0, 69, 38
1, 112560, Note_on_c, 0, 69, 0
1, 112560, Note_on_c, 0, 65, 38
1, 112680, Note_on_c, 0, 65, 0
1, 112680, Note_on_c, 0, 69, 38
1, 112800, Note_on_c, 0, 69, 0
1, 112800, Note_on_c, 0, 77, 0
1, 112800, Note_on_c, 0, 79, 68
1, 112800, Note_on_c, 0, 60, 47
1, 112811, Tempo, 1165049
1, 112812, Control_c, 0, 64, 0
1, 112840, Note_on_c, 0, 79, 0
1, 112840, Note_on_c, 0, 81, 60
1, 112856, Tempo, 1153846
1, 112863, Control_c, 0, 64, 127
1, 112880, Note_on_c, 0, 81, 0
1, 112880, Note_on_c, 0, 79, 68
1, 112901, Tempo, 1142857
1, 112920, Note_on_c, 0, 79, 0
1, 112920, Note_on_c, 0, 60, 0
1, 112920, Note_on_c, 0, 81, 61
1, 112920, Note_on_c, 0, 64, 42
1, 112946, Tempo, 1132075
1, 112960, Note_on_c, 0, 81, 0
1, 112960, Note_on_c, 0, 79, 68
1, 112976, Tempo, 1121495
1, 113000, Note_on_c, 0, 79, 0
1, 113000, Note_on_c, 0, 81, 61
1, 113034, Note_on_c, 0, 79, 68
1, 113040, Note_on_c, 0, 81, 0
1, 113040, Note_on_c, 0, 64, 0
1, 113040, Note_on_c, 0, 60, 42
1, 113074, Note_on_c, 0, 79, 0
1, 113075, Note_on_c, 0, 81, 60
1, 113081, Tempo, 1132075
1, 113114, Note_on_c, 0, 79, 68
1, 113115, Note_on_c, 0, 81, 0
1, 113154, Note_on_c, 0, 79, 0
1, 113157, Note_on_c, 0, 77, 63
1, 113160, Note_on_c, 0, 60, 0
1, 113160, Note_on_c, 0, 64, 42
1, 113171, Tempo, 1142857
1, 113186, Tempo, 1165049
1, 113201, Tempo, 1188119
1, 113216, Tempo, 1212121
1, 113217, Note_on_c, 0, 77, 0
1, 113217, Note_on_c, 0, 79, 62
1, 113231, Tempo, 1237113
1, 113246, Tempo, 1263158
1, 113261, Tempo, 1290323
1, 113277, Note_on_c, 0, 79, 0
1, 113280, Tempo, 1142857
1, 113280, Note_on_c, 0, 64, 0
1, 113280, Note_on_c, 0, 77, 68
1, 113280, Note_on_c, 0, 53, 39
1, 113280, Note_on_c, 0, 65, 47
1, 113283, Control_c, 0, 64, 0
1, 113400, Note_on_c, 0, 77, 0
1, 113518, Note_on_c, 0, 65, 0
1, 113520, Note_on_c, 0, 65, 40
1, 113520, Note_on_c, 0, 69, 48
1, 113640, Note_on_c, 0, 69, 0
1, 113640, Note_on_c, 0, 65, 0
1, 113760, Note_on_c, 0, 53, 0
1, 113760, Note_on_c, 0, 69, 48
1, 113760, Note_on_c, 0, 65, 40
1, 113880, Note_on_c, 0, 65, 0
1, 113880, Note_on_c, 0, 69, 0
1, 114000, Note_on_c, 0, 65, 40
1, 114000, Note_on_c, 0, 69, 48
1, 114120, Note_on_c, 0, 69, 0
1, 114120, Note_on_c, 0, 65, 0
1, 114240, Tempo, 1061947
1, 114240, Note_on_c, 0, 70, 52
1, 114240, Note_on_c, 0, 65, 44
1, 114247, Control_c, 0, 64, 127
1, 114300, Note_on_c, 0, 70, 0
1, 114300, Note_on_c, 0, 69, 47
1, 114360, Tempo, 1121495
1, 114360, Note_on_c, 0, 69, 0
1, 114360, Note_on_c, 0, 67, 47
1, 114420, Note_on_c, 0, 67, 0
1, 114420, Note_on_c, 0, 69, 48
1, 114480, Note_on_c, 0, 69, 0
1, 114480, Note_on_c, 0, 65, 0
1, 114480, Note_on_c, 0, 69, 44
1, 114480, Note_on_c, 0, 72, 52
1, 114490, Control_c, 0, 64, 0
1, 114544, Control_c, 0, 64, 127
1, 114720, Note_on_c, 0, 72, 0
1, 114720, Note_on_c, 0, 69, 0
1, 114720, Note_on_c, 0, 65, 51
1, 114720, Note_on_c, 0, 69, 60
1, 114735, Control_c, 0, 64, 0
1, 114791, Control_c, 0, 64, 127
1, 114960, Tempo, 1276596
1, 114960, Note_on_c, 0, 69, 0
1, 114960, Note_on_c, 0, 65, 0
1, 114960, Note_on_c, 0, 62, 55
1, 114960, Note_on_c, 0, 65, 66
1, 115200, Tempo, 1121495
1, 115200, Note_on_c, 0, 65, 0
1, 115200, Note_on_c, 0, 62, 0
1, 115200, Note_on_c, 0, 62, 72
1, 115200, Note_on_c, 0, 58, 60
1, 115200, Control_c, 0, 64, 0
1, 115246, Control_c, 0, 64, 127
1, 115680, Tempo, 1111111
1, 115680, Note_on_c, 0, 34, 59
1, 115680, Note_on_c, 0, 46, 70
1, 115697, Control_c, 0, 64, 0
1, 115800, Note_on_c, 0, 46, 0
1, 115800, Note_on_c, 0, 62, 0
1, 115800, Note_on_c, 0, 58, 0
1, 115800, Note_on_c, 0, 34, 0
1, 115800, Note_on_c, 0, 62, 58
1, 115800, Note_on_c, 0, 58, 49
1, 115920, Note_on_c, 0, 58, 0
1, 115920, Note_on_c, 0, 62, 0
1, 115920, Note_on_c, 0, 64, 58
1, 115920, Note_on_c, 0, 60, 49
1, 115949, Control_c, 0, 64, 127
1, 116040, Tempo, 1212121
1, 116040, Note_on_c, 0, 60, 0
1, 116040, Note_on_c, 0, 64, 0
1, 116040, Note_on_c, 0, 65, 58
1, 116040, Note_on_c, 0, 62, 49
1, 116148, Note_on_c, 0, 62, 0
1, 116148, Note_on_c, 0, 65, 0
1, 116160, Tempo, 1111111
1, 116160, Note_on_c, 0, 62, 53
1, 116160, Note_on_c, 0, 65, 63
1, 116160, Note_on_c, 0, 36, 53
1, 116160, Note_on_c, 0, 48, 63
1, 116177, Control_c, 0, 64, 0
1, 116235, Control_c, 0, 64, 127
1, 116280, Note_on_c, 0, 48, 0
1, 116280, Note_on_c, 0, 62, 0
1, 116280, Note_on_c, 0, 65, 0
1, 116280, Note_on_c, 0, 36, 0
1, 116280, Note_on_c, 0, 60, 50
1, 116280, Note_on_c, 0, 64, 59
1, 116400, Note_on_c, 0, 64, 0
1, 116400, Note_on_c, 0, 60, 0
1, 116400, Note_on_c, 0, 62, 59
1, 116400, Note_on_c, 0, 58, 50
1, 116405, Control_c, 0, 64, 0
1, 116520, Tempo, 1165049
1, 116520, Note_on_c, 0, 58, 0
1, 116520, Note_on_c, 0, 62, 0
1, 116520, Note_on_c, 0, 60, 59
1, 116520, Note_on_c, 0, 57, 50
1, 116628, Note_on_c, 0, 57, 0
1, 116628, Note_on_c, 0, 60, 0
1, 116640, Tempo, 1132075
1, 116640, Note_on_c, 0, 57, 53
1, 116640, Note_on_c, 0, 60, 63
1, 116640, Note_on_c, 0, 48, 63
1, 116640, Note_on_c, 0, 36, 53
1, 116720, Control_c, 0, 64, 127
1, 116760, Note_on_c, 0, 36, 0
1, 116760, Note_on_c, 0, 57, 0
1, 116760, Note_on_c, 0, 60, 0
1, 116760, Note_on_c, 0, 48, 0
1, 116760, Note_on_c, 0, 55, 45
1, 116760, Note_on_c, 0, 58, 53
1, 116880, Note_on_c, 0, 58, 0
1, 116880, Note_on_c, 0, 55, 0
1, 116880, Note_on_c, 0, 53, 45
1, 116880, Note_on_c, 0, 57, 53
1, 116897, Control_c, 0, 64, 0
1, 117000, Tempo, 1263158
1, 117000, Note_on_c, 0, 57, 0
1, 117000, Note_on_c, 0, 53, 0
1, 117000, Note_on_c, 0, 52, 45
1, 117000, Note_on_c, 0, 55, 53
1, 117120, Tempo, 1142857
1, 117120, Note_on_c, 0, 55, 0
1, 117120, Note_on_c, 0, 52, 0
1, 117120, Note_on_c, 0, 29, 50
1, 117120, Note_on_c, 0, 41, 50
1, 117148, Control_c, 0, 64, 127
1, 117360, Note_on_c, 0, 65, 50
1, 117440, Note_on_c, 0, 65, 0
1, 117440, Note_on_c, 0, 69, 46
1, 117520, Note_on_c, 0, 69, 0
1, 117520, Note_on_c, 0, 77, 46
1, 117600, Tempo, 1132075
1, 117600, Note_on_c, 0, 77, 0
1, 117600, Note_on_c, 0, 41, 0
1, 117600, Note_on_c, 0, 29, 0
1, 117600, Note_on_c, 0, 65, 52
1, 117680, Note_on_c, 0, 65, 0
1, 117680, Note_on_c, 0, 69, 46
1, 117760, Note_on_c, 0, 69, 0
1, 117760, Note_on_c, 0, 77, 46
1, 117840, Note_on_c, 0, 77, 0
1, 117840, Note_on_c, 0, 65, 54
1, 117920, Note_on_c, 0, 65, 0
1, 117920, Note_on_c, 0, 69, 47
1, 118000, Note_on_c, 0, 69, 0
1, 118000, Note_on_c, 0, 77, 47
1, 118080, Tempo, 1111111
1, 118080, Note_on_c, 0, 77, 0
1, 118080, Note_on_c, 0, 65, 60
1, 118160, Note_on_c, 0, 65, 0
1, 118160, Note_on_c, 0, 69, 52
1, 118240, Note_on_c, 0, 69, 0
1, 118240, Note_on_c, 0, 77, 54
1, 118320, Note_on_c, 0, 77, 0
1, 118320, Note_on_c, 0, 69, 65
1, 118400, Note_on_c, 0, 69, 0
1, 118400, Note_on_c, 0, 72, 58
1, 118480, Note_on_c, 0, 72, 0
1, 118480, Note_on_c, 0, 81, 61
1, 118560, Tempo, 1100917
1, 118560, Note_on_c, 0, 81, 0
1, 118560, Note_on_c, 0, 65, 69
1, 118640, Note_on_c, 0, 65, 0
1, 118640, Note_on_c, 0, 69, 62
1, 118720, Note_on_c, 0, 69, 0
1, 118720, Note_on_c, 0, 77, 65
1, 118800, Note_on_c, 0, 77, 0
1, 118800, Note_on_c, 0, 62, 76
1, 118880, Note_on_c, 0, 62, 0
1, 118880, Note_on_c, 0, 65, 66
1, 118960, Tempo, 1643836
1, 118960, Note_on_c, 0, 65, 0
1, 118960, Note_on_c, 0, 74, 69
1, 119040, Tempo, 1132075
1, 119040, Note_on_c, 0, 74, 0
1, 119040, Note_on_c, 0, 58, 80
1, 119046, Control_c, 0, 64, 0
1, 119149, Control_c, 0, 64, 127
1, 119520, Note_on_c, 0, 34, 59
1, 119520, Note_on_c, 0, 46, 70
1, 119527, Control_c, 0, 64, 0
1, 119640, Tempo, 1165049
1, 119640, Note_on_c, 0, 46, 0
1, 119640, Note_on_c, 0, 34, 0
1, 119640, Note_on_c, 0, 58, 0
1, 119640, Note_on_c, 0, 74, 56
1, 119640, Note_on_c, 0, 77, 66
1, 119760, Note_on_c, 0, 77, 0
1, 119760, Note_on_c, 0, 74, 0
1, 119760, Note_on_c, 0, 76, 68
1, 119760, Note_on_c, 0, 72, 57
1, 119840, Control_c, 0, 64, 127
1, 119880, Tempo, 1237113
1, 119880, Note_on_c, 0, 72, 0
1, 119880, Note_on_c, 0, 76, 0
1, 119880, Note_on_c, 0, 70, 53
1, 119880, Note_on_c, 0, 74, 63
1, 119988, Note_on_c, 0, 74, 0
1, 119988, Note_on_c, 0, 70, 0
1, 120000, Tempo, 1200000
1, 120000, Note_on_c, 0, 70, 56
1, 120000, Note_on_c, 0, 74, 67
1, 120000, Note_on_c, 0, 36, 53
1, 120000, Note_on_c, 0, 48, 63
1, 120010, Control_c, 0, 64, 0
1, 120080, Control_c, 0, 64, 127
1, 120120, Note_on_c, 0, 48, 0
1, 120120, Note_on_c, 0, 70, 0
1, 120120, Note_on_c, 0, 74, 0
1, 120120, Note_on_c, 0, 36, 0
1, 120120, Note_on_c, 0, 69, 55
1, 120120, Note_on_c, 0, 72, 65
1, 120240, Note_on_c, 0, 72, 0
1, 120240, Note_on_c, 0, 69, 0
1, 120240, Note_on_c, 0, 67, 53
1, 120240, Note_on_c, 0, 70, 63
1, 120244, Control_c, 0, 64, 0
1, 120360, Note_on_c, 0, 70, 0
1, 120360, Note_on_c, 0, 67, 0
1, 120360, Note_on_c, 0, 69, 61
1, 120360, Note_on_c, 0, 65, 51
1, 120468, Note_on_c, 0, 65, 0
1, 120468, Note_on_c, 0, 69, 0
1, 120480, Note_on_c, 0, 69, 63
1, 120480, Note_on_c, 0, 58, 63
1, 120480, Note_on_c, 0, 48, 53
1, 120543, Control_c, 0, 64, 127
1, 120600, Note_on_c, 0, 69, 0
1, 120600, Note_on_c, 0, 67, 56
1, 120720, Note_on_c, 0, 67, 0
1, 120720, Note_on_c, 0, 48, 0
1, 120720, Note_on_c, 0, 58, 0
1, 120720, Note_on_c, 0, 65, 56
1, 120728, Control_c, 0, 64, 0
1, 120840, Tempo, 1764706
1, 120840, Note_on_c, 0, 65, 0
1, 120840, Note_on_c, 0, 58, 47
1, 120840, Note_on_c, 0, 64, 56
1, 120948, Note_on_c, 0, 64, 0
1, 120948, Note_on_c, 0, 58, 0
1, 120960, Tempo, 1290323
1, 120960, Note_on_c, 0, 58, 59
1, 120960, Note_on_c, 0, 64, 59
1, 120960, Note_on_c, 0, 53, 56
1, 120992, Control_c, 0, 64, 127
1, 121875, Note_on_c, 0, 53, 0
1, 121875, Note_on_c, 0, 64, 0
1, 121875, Note_on_c, 0, 58, 0
1, 121875, Note_on_c, 0, 41, 49
1, 121890, Note_on_c, 0, 45, 53
1, 121899, Control_c, 0, 64, 0
1, 121905, Note_on_c, 0, 48, 56
1, 121920, Note_on_c, 0, 57, 52
1, 121920, Note_on_c, 0, 65, 52
1, 121920, Note_on_c, 0, 60, 52
1, 121920, Note_on_c, 0, 53, 60
1, 121945, Control_c, 0, 64, 127
1, 122140, Note_on_c, 0, 45, 0
1, 122160, Note_on_c, 0, 60, 0
1, 122160, Note_on_c, 0, 48, 0
1, 122160, Note_on_c, 0, 57, 0
1, 122160, Note_on_c, 0, 41, 0
1, 122160, Note_on_c, 0, 53, 0
1, 122160, Note_on_c, 0, 65, 0
1, 122340, Control_c, 0, 64, 0
1, 122640, Tempo, 1290323
1, 122640, Marker_t, "Teil 2 Wiederholung"
1, 122820, Tempo, 1212121
1, 122835, Note_on_c, 0, 48, 45
1, 122850, Note_on_c, 0, 52, 48
1, 122865, Note_on_c, 0, 55, 51
1, 122880, Tempo, 1200000
1, 122880, Note_on_c, 0, 72, 60
1, 122880, Note_on_c, 0, 67, 51
1, 122880, Note_on_c, 0, 64, 51
1, 122880, Note_on_c, 0, 60, 53
1, 122880, Control_c, 0, 64, 127
1, 123000, Note_on_c, 0, 60, 0
1, 123000, Note_on_c, 0, 67, 0
1, 123000, Note_on_c, 0, 52, 0
1, 123000, Note_on_c, 0, 48, 0
1, 123000, Note_on_c, 0, 55, 0
1, 123000, Note_on_c, 0, 64, 0
1, 123240, Note_on_c, 0, 72, 0
1, 123240, Note_on_c, 0, 67, 56
1, 123360, Tempo, 1188119
1, 123360, Note_on_c, 0, 67, 0
1, 123360, Note_on_c, 0, 77, 60
1, 123370, Control_c, 0, 64, 0
1, 123480, Note_on_c, 0, 77, 0
1, 123480, Note_on_c, 0, 76, 54
1, 123540, Tempo, 1176471
1, 123600, Note_on_c, 0, 76, 0
1, 123600, Note_on_c, 0, 74, 54
1, 123720, Tempo, 1250000
1, 123720, Note_on_c, 0, 74, 0
1, 123720, Note_on_c, 0, 72, 54
1, 123840, Tempo, 1165049
1, 123840, Note_on_c, 0, 72, 0
1, 123840, Note_on_c, 0, 79, 60
1, 123840, Note_on_c, 0, 60, 44
1, 123876, Control_c, 0, 64, 127
1, 123960, Note_on_c, 0, 60, 0
1, 123960, Note_on_c, 0, 79, 0
1, 123960, Note_on_c, 0, 70, 37
1, 124080, Tempo, 1165049
1, 124080, Note_on_c, 0, 70, 0
1, 124080, Note_on_c, 0, 67, 37
1, 124200, Note_on_c, 0, 67, 0
1, 124200, Note_on_c, 0, 70, 37
1, 124320, Note_on_c, 0, 70, 0
1, 124320, Note_on_c, 0, 60, 44
1, 124440, Note_on_c, 0, 60, 0
1, 124440, Note_on_c, 0, 70, 39
1, 124560, Note_on_c, 0, 70, 0
1, 124560, Note_on_c, 0, 67, 39
1, 124680, Tempo, 1224490
1, 124680, Note_on_c, 0, 67, 0
1, 124680, Note_on_c, 0, 70, 39
1, 124800, Tempo, 1153846
1, 124800, Note_on_c, 0, 70, 0
1, 124800, Note_on_c, 0, 77, 60
1, 124800, Note_on_c, 0, 60, 44
1, 124800, Control_c, 0, 64, 0
1, 124885, Control_c, 0, 64, 127
1, 124920, Note_on_c, 0, 60, 0
1, 124920, Note_on_c, 0, 69, 37
1, 125040, Note_on_c, 0, 69, 0
1, 125040, Note_on_c, 0, 65, 37
1, 125160, Note_on_c, 0, 65, 0
1, 125160, Note_on_c, 0, 77, 0
1, 125160, Note_on_c, 0, 72, 56
1, 125160, Note_on_c, 0, 69, 37
1, 125280, Tempo, 1153846
1, 125280, Note_on_c, 0, 69, 0
1, 125280, Note_on_c, 0, 72, 0
1, 125280, Note_on_c, 0, 82, 60
1, 125280, Note_on_c, 0, 60, 44
1, 125400, Tempo, 1132075
1, 125400, Note_on_c, 0, 60, 0
1, 125400, Note_on_c, 0, 82, 0
1, 125400, Note_on_c, 0, 81, 54
1, 125400, Note_on_c, 0, 69, 39
1, 125460, Tempo, 1176471
1, 125520, Note_on_c, 0, 69, 0
1, 125520, Note_on_c, 0, 81, 0
1, 125520, Note_on_c, 0, 79, 54
1, 125520, Note_on_c, 0, 65, 39
1, 125640, Tempo, 1224490
1, 125640, Note_on_c, 0, 65, 0
1, 125640, Note_on_c, 0, 79, 0
1, 125640, Note_on_c, 0, 77, 54
1, 125640, Note_on_c, 0, 69, 39
1, 125760, Tempo, 1176471
1, 125760, Note_on_c, 0, 69, 0
1, 125760, Note_on_c, 0, 77, 0
1, 125760, Note_on_c, 0, 84, 60
1, 125760, Note_on_c, 0, 60, 44
1, 125769, Control_c, 0, 64, 0
1, 125880, Note_on_c, 0, 60, 0
1, 125880, Note_on_c, 0, 84, 0
1, 125880, Note_on_c, 0, 67, 37
1, 125940, Control_c, 0, 64, 127
1, 126000, Tempo, 1165049
1, 126000, Note_on_c, 0, 67, 0
1, 126000, Note_on_c, 0, 64, 37
1, 126120, Note_on_c, 0, 64, 0
1, 126120, Note_on_c, 0, 67, 37
1, 126240, Note_on_c, 0, 67, 0
1, 126240, Note_on_c, 0, 60, 44
1, 126360, Note_on_c, 0, 60, 0
1, 126360, Note_on_c, 0, 67, 39
1, 126480, Note_on_c, 0, 67, 0
1, 126480, Note_on_c, 0, 64, 39
1, 126600, Note_on_c, 0, 64, 0
1, 126600, Note_on_c, 0, 83, 60
1, 126600, Note_on_c, 0, 67, 39
1, 126640, Note_on_c, 0, 83, 0
1, 126640, Note_on_c, 0, 84, 62
1, 126680, Note_on_c, 0, 84, 0
1, 126681, Note_on_c, 0, 86, 64
1, 126720, Tempo, 1142857
1, 126720, Note_on_c, 0, 67, 0
1, 126720, Note_on_c, 0, 84, 67
1, 126720, Note_on_c, 0, 57, 44
1, 126720, Control_c, 0, 64, 0
1, 126721, Note_on_c, 0, 86, 0
1, 126777, Control_c, 0, 64, 127
1, 126840, Note_on_c, 0, 57, 0
1, 126840, Note_on_c, 0, 63, 39
1, 126960, Note_on_c, 0, 63, 0
1, 126960, Note_on_c, 0, 60, 39
1, 127080, Note_on_c, 0, 60, 0
1, 127080, Note_on_c, 0, 63, 39
1, 127200, Note_on_c, 0, 63, 0
1, 127200, Note_on_c, 0, 57, 44
1, 127320, Note_on_c, 0, 57, 0
1, 127320, Note_on_c, 0, 63, 39
1, 127440, Note_on_c, 0, 63, 0
1, 127440, Note_on_c, 0, 60, 39
1, 127560, Note_on_c, 0, 60, 0
1, 127560, Note_on_c, 0, 84, 0
1, 127560, Note_on_c, 0, 82, 60
1, 127560, Note_on_c, 0, 63, 39
1, 127600, Note_on_c, 0, 82, 0
1, 127600, Note_on_c, 0, 81, 60
1, 127640, Note_on_c, 0, 81, 0
1, 127641, Note_on_c, 0, 79, 60
1, 127680, Note_on_c, 0, 63, 0
1, 127680, Note_on_c, 0, 78, 68
1, 127680, Note_on_c, 0, 57, 44
1, 127681, Note_on_c, 0, 79, 0
1, 127693, Control_c, 0, 64, 0
1, 127740, Control_c, 0, 64, 127
1, 127800, Note_on_c, 0, 57, 0
1, 127800, Note_on_c, 0, 78, 0
1, 127800, Note_on_c, 0, 75, 63
1, 127800, Note_on_c, 0, 63, 40
1, 127920, Note_on_c, 0, 63, 0
1, 127920, Note_on_c, 0, 75, 0
1, 127920, Note_on_c, 0, 74, 63
1, 127920, Note_on_c, 0, 60, 41
1, 128040, Note_on_c, 0, 60, 0
1, 128040, Note_on_c, 0, 74, 0
1, 128040, Note_on_c, 0, 72, 64
1, 128040, Note_on_c, 0, 63, 42
1, 128160, Note_on_c, 0, 63, 0
1, 128160, Note_on_c, 0, 72, 0
1, 128160, Note_on_c, 0, 70, 68
1, 128160, Note_on_c, 0, 57, 49
1, 128168, Control_c, 0, 64, 0
1, 128208, Control_c, 0, 64, 127
1, 128280, Note_on_c, 0, 57, 0
1, 128280, Note_on_c, 0, 70, 0
1, 128280, Note_on_c, 0, 69, 70
1, 128280, Note_on_c, 0, 63, 45
1, 128400, Note_on_c, 0, 63, 0
1, 128400, Note_on_c, 0, 69, 0
1, 128400, Note_on_c, 0, 67, 71
1, 128400, Note_on_c, 0, 60, 46
1, 128520, Tempo, 1263158
1, 128520, Note_on_c, 0, 60, 0
1, 128520, Note_on_c, 0, 67, 0
1, 128520, Note_on_c, 0, 66, 73
1, 128520, Note_on_c, 0, 63, 47
1, 128640, Tempo, 1100917
1, 128640, Note_on_c, 0, 63, 0
1, 128640, Note_on_c, 0, 66, 0
1, 128640, Note_on_c, 0, 67, 74
1, 128640, Note_on_c, 0, 58, 55
1, 128654, Control_c, 0, 64, 0
1, 128704, Control_c, 0, 64, 127
1, 128755, Note_on_c, 0, 67, 0
1, 128760, Note_on_c, 0, 58, 0
1, 128760, Note_on_c, 0, 67, 48
1, 128880, Tempo, 1142857
1, 128880, Note_on_c, 0, 67, 0
1, 128880, Note_on_c, 0, 70, 77
1, 128880, Note_on_c, 0, 62, 48
1, 129000, Note_on_c, 0, 62, 0
1, 129000, Note_on_c, 0, 70, 0
1, 129000, Note_on_c, 0, 67, 48
1, 129120, Tempo, 1100917
1, 129120, Note_on_c, 0, 67, 0
1, 129120, Note_on_c, 0, 74, 82
1, 129120, Note_on_c, 0, 58, 55
1, 129240, Note_on_c, 0, 58, 0
1, 129240, Note_on_c, 0, 74, 0
1, 129240, Note_on_c, 0, 67, 48
1, 129360, Tempo, 1121495
1, 129360, Note_on_c, 0, 67, 0
1, 129360, Note_on_c, 0, 79, 84
1, 129360, Note_on_c, 0, 62, 48
1, 129480, Tempo, 1250000
1, 129480, Note_on_c, 0, 62, 0
1, 129480, Note_on_c, 0, 79, 0
1, 129480, Note_on_c, 0, 67, 48
1, 129600, Tempo, 1121495
1, 129600, Note_on_c, 0, 67, 0
1, 129600, Note_on_c, 0, 82, 86
1, 129600, Note_on_c, 0, 58, 55
1, 129628, Control_c, 0, 64, 0
1, 129678, Control_c, 0, 64, 127
1, 129720, Note_on_c, 0, 58, 0
1, 129720, Note_on_c, 0, 82, 0
1, 129720, Note_on_c, 0, 67, 48
1, 129840, Note_on_c, 0, 67, 0
1, 129840, Note_on_c, 0, 62, 48
1, 129960, Note_on_c, 0, 62, 0
1, 129960, Note_on_c, 0, 67, 48
1, 130080, Note_on_c, 0, 67, 0
1, 130080, Note_on_c, 0, 58, 55
1, 130200, Note_on_c, 0, 58, 0
1, 130200, Note_on_c, 0, 67, 48
1, 130320, Note_on_c, 0, 67, 0
1, 130320, Note_on_c, 0, 62, 48
1, 130440, Note_on_c, 0, 62, 0
1, 130440, Note_on_c, 0, 67, 48
1, 130560, Tempo, 1142857
1, 130560, Note_on_c, 0, 67, 0
1, 130560, Note_on_c, 0, 86, 90
1, 130560, Note_on_c, 0, 58, 55
1, 130574, Control_c, 0, 64, 0
1, 130624, Control_c, 0, 64, 127
1, 130680, Note_on_c, 0, 58, 0
1, 130680, Note_on_c, 0, 86, 0
1, 130680, Note_on_c, 0, 67, 45
1, 130800, Note_on_c, 0, 67, 0
1, 130800, Note_on_c, 0, 86, 90
1, 130800, Note_on_c, 0, 64, 45
1, 130920, Note_on_c, 0, 64, 0
1, 130920, Note_on_c, 0, 67, 45
1, 131040, Tempo, 1132075
1, 131040, Note_on_c, 0, 67, 0
1, 131040, Note_on_c, 0, 58, 52
1, 131160, Note_on_c, 0, 58, 0
1, 131160, Note_on_c, 0, 67, 42
1, 131280, Note_on_c, 0, 67, 0
1, 131280, Note_on_c, 0, 86, 0
1, 131280, Note_on_c, 0, 84, 72
1, 131280, Note_on_c, 0, 64, 42
1, 131340, Note_on_c, 0, 84, 0
1, 131340, Note_on_c, 0, 82, 73
1, 131400, Tempo, 1250000
1, 131400, Note_on_c, 0, 82, 0
1, 131400, Note_on_c, 0, 64, 0
1, 131400, Note_on_c, 0, 81, 74
1, 131400, Note_on_c, 0, 67, 42
1, 131460, Note_on_c, 0, 81, 0
1, 131460, Note_on_c, 0, 79, 74
1, 131520, Tempo, 1121495
1, 131520, Note_on_c, 0, 79, 0
1, 131520, Note_on_c, 0, 67, 0
1, 131520, Note_on_c, 0, 84, 84
1, 131520, Note_on_c, 0, 57, 55
1, 131548, Control_c, 0, 64, 0
1, 131598, Control_c, 0, 64, 127
1, 131640, Note_on_c, 0, 57, 0
1, 131640, Note_on_c, 0, 84, 0
1, 131640, Note_on_c, 0, 65, 46
1, 131760, Note_on_c, 0, 65, 0
1, 131760, Note_on_c, 0, 84, 84
1, 131760, Note_on_c, 0, 60, 46
1, 131880, Note_on_c, 0, 60, 0
1, 131880, Note_on_c, 0, 65, 46
1, 132000, Note_on_c, 0, 65, 0
1, 132000, Note_on_c, 0, 57, 55
1, 132120, Note_on_c, 0, 57, 0
1, 132120, Note_on_c, 0, 65, 48
1, 132240, Note_on_c, 0, 65, 0
1, 132240, Note_on_c, 0, 84, 0
1, 132240, Note_on_c, 0, 82, 70
1, 132240, Note_on_c, 0, 60, 48
1, 132300, Note_on_c, 0, 82, 0
1, 132300, Note_on_c, 0, 81, 72
1, 132360, Tempo, 1224490
1, 132360, Note_on_c, 0, 81, 0
1, 132360, Note_on_c, 0, 60, 0
1, 132360, Note_on_c, 0, 79, 73
1, 132360, Note_on_c, 0, 65, 43
1, 132420, Note_on_c, 0, 79, 0
1, 132420, Note_on_c, 0, 77, 75
1, 132480, Tempo, 1121495
1, 132480, Note_on_c, 0, 77, 0
1, 132480, Note_on_c, 0, 65, 0
1, 132480, Note_on_c, 0, 84, 77
1, 132480, Note_on_c, 0, 52, 50
1, 132480, Control_c, 0, 64, 0
1, 132579, Control_c, 0, 64, 127
1, 132600, Note_on_c, 0, 52, 0
1, 132600, Note_on_c, 0, 84, 0
1, 132600, Note_on_c, 0, 82, 68
1, 132600, Note_on_c, 0, 60, 38
1, 132690, Note_on_c, 0, 82, 0
1, 132720, Note_on_c, 0, 60, 0
1, 132720, Note_on_c, 0, 82, 72
1, 132720, Note_on_c, 0, 55, 38
1, 132840, Note_on_c, 0, 55, 0
1, 132840, Note_on_c, 0, 82, 0
1, 132840, Note_on_c, 0, 81, 67
1, 132840, Note_on_c, 0, 60, 38
1, 132930, Note_on_c, 0, 81, 0
1, 132960, Note_on_c, 0, 60, 0
1, 132960, Note_on_c, 0, 81, 72
1, 132960, Note_on_c, 0, 53, 48
1, 132969, Control_c, 0, 64, 0
1, 133059, Control_c, 0, 64, 127
1, 133080, Note_on_c, 0, 53, 0
1, 133080, Note_on_c, 0, 60, 40
1, 133200, Note_on_c, 0, 60, 0
1, 133200, Note_on_c, 0, 81, 0
1, 133200, Note_on_c, 0, 57, 40
1, 133320, Tempo, 1176471
1, 133320, Note_on_c, 0, 57, 0
1, 133320, Note_on_c, 0, 60, 34
1, 133440, Tempo, 1111111
1, 133440, Note_on_c, 0, 60, 0
1, 133440, Note_on_c, 0, 84, 61
1, 133440, Note_on_c, 0, 52, 40
1, 133447, Control_c, 0, 64, 0
1, 133546, Control_c, 0, 64, 127
1, 133560, Note_on_c, 0, 52, 0
1, 133560, Note_on_c, 0, 84, 0
1, 133560, Note_on_c, 0, 82, 57
1, 133560, Note_on_c, 0, 60, 31
1, 133650, Note_on_c, 0, 82, 0
1, 133680, Note_on_c, 0, 60, 0
1, 133680, Note_on_c, 0, 82, 61
1, 133680, Note_on_c, 0, 55, 31
1, 133800, Note_on_c, 0, 55, 0
1, 133800, Note_on_c, 0, 82, 0
1, 133800, Note_on_c, 0, 81, 54
1, 133800, Note_on_c, 0, 60, 31
1, 133890, Note_on_c, 0, 81, 0
1, 133920, Note_on_c, 0, 60, 0
1, 133920, Note_on_c, 0, 81, 60
1, 133920, Note_on_c, 0, 53, 34
1, 133935, Control_c, 0, 64, 0
1, 134040, Note_on_c, 0, 53, 0
1, 134040, Note_on_c, 0, 60, 27
1, 134040, Control_c, 0, 64, 127
1, 134160, Note_on_c, 0, 60, 0
1, 134160, Note_on_c, 0, 81, 0
1, 134160, Note_on_c, 0, 57, 27
1, 134280, Note_on_c, 0, 57, 0
1, 134280, Note_on_c, 0, 60, 27
1, 134400, Tempo, 1121495
1, 134400, Note_on_c, 0, 60, 0
1, 134400, Note_on_c, 0, 84, 69
1, 134400, Note_on_c, 0, 52, 53
1, 134400, Control_c, 0, 64, 0
1, 134430, Note_on_c, 0, 84, 0
1, 134430, Note_on_c, 0, 86, 63
1, 134460, Note_on_c, 0, 86, 0
1, 134460, Note_on_c, 0, 84, 69
1, 134490, Note_on_c, 0, 84, 0
1, 134490, Note_on_c, 0, 86, 61
1, 134499, Control_c, 0, 64, 127
1, 134520, Note_on_c, 0, 86, 0
1, 134520, Note_on_c, 0, 52, 0
1, 134520, Note_on_c, 0, 82, 68
1, 134520, Note_on_c, 0, 60, 40
1, 134610, Note_on_c, 0, 82, 0
1, 134640, Note_on_c, 0, 60, 0
1, 134640, Note_on_c, 0, 82, 68
1, 134640, Note_on_c, 0, 55, 40
1, 134670, Note_on_c, 0, 82, 0
1, 134670, Note_on_c, 0, 84, 61
1, 134700, Note_on_c, 0, 84, 0
1, 134700, Note_on_c, 0, 82, 68
1, 134730, Note_on_c, 0, 82, 0
1, 134730, Note_on_c, 0, 84, 62
1, 134760, Note_on_c, 0, 84, 0
1, 134760, Note_on_c, 0, 55, 0
1, 134760, Note_on_c, 0, 81, 67
1, 134760, Note_on_c, 0, 60, 40
1, 134850, Note_on_c, 0, 81, 0
1, 134880, Note_on_c, 0, 60, 0
1, 134880, Note_on_c, 0, 81, 72
1, 134880, Note_on_c, 0, 53, 48
1, 134889, Control_c, 0, 64, 0
1, 134979, Control_c, 0, 64, 127
1, 135000, Note_on_c, 0, 53, 0
1, 135000, Note_on_c, 0, 60, 40
1, 135120, Note_on_c, 0, 60, 0
1, 135120, Note_on_c, 0, 81, 0
1, 135120, Note_on_c, 0, 57, 40
1, 135240, Tempo, 1176471
1, 135240, Note_on_c, 0, 57, 0
1, 135240, Note_on_c, 0, 60, 34
1, 135330, Note_on_c, 0, 82, 62
1, 135360, Tempo, 1111111
1, 135360, Note_on_c, 0, 82, 0
1, 135360, Note_on_c, 0, 60, 0
1, 135360, Note_on_c, 0, 81, 70
1, 135360, Note_on_c, 0, 58, 46
1, 135367, Control_c, 0, 64, 0
1, 135466, Control_c, 0, 64, 127
1, 135480, Note_on_c, 0, 58, 0
1, 135480, Note_on_c, 0, 81, 0
1, 135480, Note_on_c, 0, 79, 65
1, 135480, Note_on_c, 0, 67, 35
1, 135570, Note_on_c, 0, 79, 0
1, 135570, Note_on_c, 0, 81, 62
1, 135600, Note_on_c, 0, 81, 0
1, 135600, Note_on_c, 0, 67, 0
1, 135600, Note_on_c, 0, 79, 70
1, 135600, Note_on_c, 0, 62, 35
1, 135720, Note_on_c, 0, 62, 0
1, 135720, Note_on_c, 0, 79, 0
1, 135720, Note_on_c, 0, 77, 62
1, 135720, Note_on_c, 0, 67, 35
1, 135810, Note_on_c, 0, 77, 0
1, 135840, Note_on_c, 0, 67, 0
1, 135840, Note_on_c, 0, 77, 69
1, 135840, Note_on_c, 0, 59, 45
1, 135855, Control_c, 0, 64, 0
1, 135960, Note_on_c, 0, 59, 0
1, 135960, Note_on_c, 0, 67, 36
1, 135960, Control_c, 0, 64, 127
1, 136080, Note_on_c, 0, 67, 0
1, 136080, Note_on_c, 0, 77, 0
1, 136080, Note_on_c, 0, 62, 36
1, 136200, Note_on_c, 0, 62, 0
1, 136200, Note_on_c, 0, 67, 36
1, 136320, Tempo, 1142857
1, 136320, Note_on_c, 0, 67, 0
1, 136320, Note_on_c, 0, 77, 65
1, 136320, Note_on_c, 0, 60, 43
1, 136327, Control_c, 0, 64, 0
1, 136426, Control_c, 0, 64, 127
1, 136440, Note_on_c, 0, 60, 0
1, 136440, Note_on_c, 0, 77, 0
1, 136440, Note_on_c, 0, 76, 57
1, 136440, Note_on_c, 0, 67, 34
1, 136560, Note_on_c, 0, 67, 0
1, 136560, Note_on_c, 0, 76, 0
1, 136560, Note_on_c, 0, 74, 61
1, 136560, Note_on_c, 0, 64, 34
1, 136680, Note_on_c, 0, 64, 0
1, 136680, Note_on_c, 0, 74, 0
1, 136680, Note_on_c, 0, 72, 54
1, 136680, Note_on_c, 0, 67, 34
1, 136770, Note_on_c, 0, 72, 0
1, 136800, Tempo, 1132075
1, 136800, Note_on_c, 0, 67, 0
1, 136800, Note_on_c, 0, 72, 60
1, 136800, Note_on_c, 0, 60, 42
1, 136815, Control_c, 0, 64, 0
1, 136920, Note_on_c, 0, 60, 0
1, 136920, Note_on_c, 0, 67, 32
1, 136920, Control_c, 0, 64, 127
1, 137040, Note_on_c, 0, 67, 0
1, 137040, Note_on_c, 0, 72, 0
1, 137040, Note_on_c, 0, 72, 54
1, 137040, Note_on_c, 0, 64, 32
1, 137160, Note_on_c, 0, 64, 0
1, 137160, Note_on_c, 0, 67, 32
1, 137280, Tempo, 1165049
1, 137280, Note_on_c, 0, 67, 0
1, 137280, Note_on_c, 0, 72, 0
1, 137280, Note_on_c, 0, 74, 54
1, 137280, Note_on_c, 0, 60, 37
1, 137337, Control_c, 0, 64, 0
1, 137340, Note_on_c, 0, 74, 0
1, 137340, Note_on_c, 0, 72, 54
1, 137400, Note_on_c, 0, 72, 0
1, 137400, Note_on_c, 0, 60, 0
1, 137400, Note_on_c, 0, 71, 54
1, 137400, Note_on_c, 0, 62, 29
1, 137460, Note_on_c, 0, 71, 0
1, 137460, Note_on_c, 0, 72, 60
1, 137520, Note_on_c, 0, 62, 0
1, 137520, Note_on_c, 0, 58, 38
1, 137640, Note_on_c, 0, 58, 0
1, 137640, Note_on_c, 0, 60, 32
1, 137660, Note_on_c, 0, 72, 0
1, 137704, Tempo, 1165049
1, 137760, Note_on_c, 0, 60, 0
1, 137760, Note_on_c, 0, 57, 34
1, 137781, Tempo, 1176471
1, 137858, Tempo, 1188119
1, 137880, Note_on_c, 0, 57, 0
1, 137880, Note_on_c, 0, 58, 27
1, 137935, Tempo, 1200000
1, 137992, Tempo, 1212121
1, 138000, Note_on_c, 0, 58, 0
1, 138000, Note_on_c, 0, 55, 34
1, 138069, Tempo, 1224490
1, 138120, Note_on_c, 0, 55, 0
1, 138120, Note_on_c, 0, 57, 28
1, 138146, Tempo, 1237113
1, 138203, Tempo, 1250000
1, 138223, Tempo, 1188119
1, 138240, Tempo, 1188119
1, 138240, Note_on_c, 0, 57, 0
1, 138240, Note_on_c, 0, 72, 60
1, 138240, Note_on_c, 0, 53, 37
1, 138293, Control_c, 0, 64, 127
1, 138360, Note_on_c, 0, 53, 0
1, 138360, Note_on_c, 0, 60, 31
1, 138480, Note_on_c, 0, 60, 0
1, 138480, Note_on_c, 0, 57, 28
1, 138600, Note_on_c, 0, 57, 0
1, 138600, Note_on_c, 0, 60, 28
1, 138720, Tempo, 1176471
1, 138720, Note_on_c, 0, 60, 0
1, 138720, Note_on_c, 0, 72, 0
1, 138720, Note_on_c, 0, 70, 55
1, 138720, Note_on_c, 0, 53, 40
1, 138734, Control_c, 0, 64, 0
1, 138766, Control_c, 0, 64, 127
1, 138840, Note_on_c, 0, 53, 0
1, 138840, Note_on_c, 0, 70, 0
1, 138840, Note_on_c, 0, 69, 50
1, 138840, Note_on_c, 0, 60, 31
1, 138960, Note_on_c, 0, 60, 0
1, 138960, Note_on_c, 0, 69, 0
1, 138960, Note_on_c, 0, 67, 55
1, 138960, Note_on_c, 0, 57, 31
1, 139080, Tempo, 1276596
1, 139080, Note_on_c, 0, 57, 0
1, 139080, Note_on_c, 0, 67, 0
1, 139080, Note_on_c, 0, 65, 49
1, 139080, Note_on_c, 0, 60, 31
1, 139170, Note_on_c, 0, 65, 0
1, 139200, Tempo, 1176471
1, 139200, Note_on_c, 0, 60, 0
1, 139200, Note_on_c, 0, 65, 55
1, 139200, Note_on_c, 0, 55, 40
1, 139211, Control_c, 0, 64, 0
1, 139243, Control_c, 0, 64, 127
1, 139320, Note_on_c, 0, 55, 0
1, 139320, Note_on_c, 0, 60, 30
1, 139440, Note_on_c, 0, 60, 0
1, 139440, Note_on_c, 0, 58, 30
1, 139560, Note_on_c, 0, 58, 0
1, 139560, Note_on_c, 0, 60, 30
1, 139680, Tempo, 1111111
1, 139680, Note_on_c, 0, 60, 0
1, 139680, Note_on_c, 0, 65, 0
1, 139680, Note_on_c, 0, 64, 55
1, 139680, Note_on_c, 0, 55, 40
1, 139687, Control_c, 0, 64, 0
1, 139740, Note_on_c, 0, 64, 0
1, 139740, Note_on_c, 0, 65, 51
1, 139800, Tempo, 1176471
1, 139800, Note_on_c, 0, 65, 0
1, 139800, Note_on_c, 0, 55, 0
1, 139800, Note_on_c, 0, 64, 57
1, 139800, Note_on_c, 0, 60, 33
1, 139820, Control_c, 0, 64, 127
1, 139920, Note_on_c, 0, 60, 0
1, 139920, Note_on_c, 0, 58, 33
1, 140040, Note_on_c, 0, 58, 0
1, 140040, Note_on_c, 0, 64, 0
1, 140040, Note_on_c, 0, 64, 51
1, 140040, Note_on_c, 0, 60, 33
1, 140160, Tempo, 1165049
1, 140160, Note_on_c, 0, 60, 0
1, 140160, Note_on_c, 0, 64, 0
1, 140160, Note_on_c, 0, 65, 55
1, 140160, Note_on_c, 0, 53, 40
1, 140160, Control_c, 0, 64, 0
1, 140210, Control_c, 0, 64, 127
1, 140280, Note_on_c, 0, 53, 0
1, 140280, Note_on_c, 0, 65, 0
1, 140280, Note_on_c, 0, 67, 52
1, 140280, Note_on_c, 0, 60, 32
1, 140400, Note_on_c, 0, 60, 0
1, 140400, Note_on_c, 0, 67, 0
1, 140400, Note_on_c, 0, 69, 54
1, 140400, Note_on_c, 0, 57, 32
1, 140520, Note_on_c, 0, 57, 0
1, 140520, Note_on_c, 0, 69, 0
1, 140520, Note_on_c, 0, 70, 55
1, 140520, Note_on_c, 0, 60, 32
1, 140640, Tempo, 1153846
1, 140640, Note_on_c, 0, 60, 0
1, 140640, Note_on_c, 0, 70, 0
1, 140640, Note_on_c, 0, 72, 59
1, 140640, Note_on_c, 0, 53, 40
1, 140647, Control_c, 0, 64, 0
1, 140707, Control_c, 0, 64, 127
1, 140760, Note_on_c, 0, 53, 0
1, 140760, Note_on_c, 0, 72, 0
1, 140760, Note_on_c, 0, 74, 61
1, 140760, Note_on_c, 0, 60, 33
1, 140880, Note_on_c, 0, 60, 0
1, 140880, Note_on_c, 0, 74, 0
1, 140880, Note_on_c, 0, 76, 64
1, 140880, Note_on_c, 0, 57, 35
1, 141000, Tempo, 1237113
1, 141000, Note_on_c, 0, 57, 0
1, 141000, Note_on_c, 0, 76, 0
1, 141000, Note_on_c, 0, 77, 66
1, 141000, Note_on_c, 0, 60, 37
1, 141090, Note_on_c, 0, 77, 0
1, 141120, Tempo, 1153846
1, 141120, Note_on_c, 0, 60, 0
1, 141120, Note_on_c, 0, 77, 66
1, 141120, Note_on_c, 0, 55, 47
1, 141124, Control_c, 0, 64, 0
1, 141170, Control_c, 0, 64, 127
1, 141240, Note_on_c, 0, 55, 0
1, 141240, Note_on_c, 0, 77, 0
1, 141240, Note_on_c, 0, 76, 64
1, 141240, Note_on_c, 0, 60, 35
1, 141353, Control_c, 0, 64, 0
1, 141360, Tempo, 1132075
1, 141360, Note_on_c, 0, 60, 0
1, 141360, Note_on_c, 0, 76, 0
1, 141360, Note_on_c, 0, 74, 61
1, 141360, Note_on_c, 0, 58, 35
1, 141420, Note_on_c, 0, 58, 0
1, 141420, Note_on_c, 0, 74, 0
1, 141480, Note_on_c, 0, 72, 59
1, 141480, Note_on_c, 0, 60, 35
1, 141540, Note_on_c, 0, 60, 0
1, 141540, Note_on_c, 0, 72, 0
1, 141600, Note_on_c, 0, 72, 57
1, 141600, Note_on_c, 0, 55, 44
1, 141639, Control_c, 0, 64, 127
1, 141720, Note_on_c, 0, 55, 0
1, 141720, Note_on_c, 0, 72, 0
1, 141720, Note_on_c, 0, 70, 55
1, 141720, Note_on_c, 0, 60, 33
1, 141840, Note_on_c, 0, 60, 0
1, 141840, Note_on_c, 0, 70, 0
1, 141840, Note_on_c, 0, 69, 52
1, 141840, Note_on_c, 0, 58, 33
1, 141846, Control_c, 0, 64, 0
1, 141900, Note_on_c, 0, 58, 0
1, 141900, Note_on_c, 0, 69, 0
1, 141960, Tempo, 1395349
1, 141960, Note_on_c, 0, 67, 50
1, 141960, Note_on_c, 0, 60, 33
1, 142020, Note_on_c, 0, 60, 0
1, 142020, Note_on_c, 0, 67, 0
1, 142080, Tempo, 1153846
1, 142080, Note_on_c, 0, 84, 72
1, 142080, Note_on_c, 0, 53, 40
1, 142123, Control_c, 0, 64, 127
1, 142200, Note_on_c, 0, 53, 0
1, 142200, Note_on_c, 0, 60, 32
1, 142320, Note_on_c, 0, 60, 0
1, 142320, Note_on_c, 0, 57, 32
1, 142440, Note_on_c, 0, 57, 0
1, 142440, Note_on_c, 0, 84, 0
1, 142440, Note_on_c, 0, 86, 64
1, 142440, Note_on_c, 0, 60, 32
1, 142500, Note_on_c, 0, 86, 0
1, 142500, Note_on_c, 0, 84, 60
1, 142560, Tempo, 1142857
1, 142560, Note_on_c, 0, 84, 0
1, 142560, Note_on_c, 0, 60, 0
1, 142560, Note_on_c, 0, 82, 68
1, 142560, Note_on_c, 0, 53, 40
1, 142569, Control_c, 0, 64, 0
1, 142609, Control_c, 0, 64, 127
1, 142680, Note_on_c, 0, 53, 0
1, 142680, Note_on_c, 0, 82, 0
1, 142680, Note_on_c, 0, 81, 60
1, 142680, Note_on_c, 0, 60, 31
1, 142800, Note_on_c, 0, 60, 0
1, 142800, Note_on_c, 0, 81, 0
1, 142800, Note_on_c, 0, 79, 62
1, 142800, Note_on_c, 0, 57, 31
1, 142920, Tempo, 1250000
1, 142920, Note_on_c, 0, 57, 0
1, 142920, Note_on_c, 0, 79, 0
1, 142920, Note_on_c, 0, 77, 60
1, 142920, Note_on_c, 0, 60, 31
1, 143010, Note_on_c, 0, 77, 0
1, 143040, Tempo, 1153846
1, 143040, Note_on_c, 0, 60, 0
1, 143040, Note_on_c, 0, 77, 70
1, 143040, Note_on_c, 0, 55, 40
1, 143047, Control_c, 0, 64, 0
1, 143086, Control_c, 0, 64, 127
1, 143160, Note_on_c, 0, 55, 0
1, 143160, Note_on_c, 0, 60, 30
1, 143280, Note_on_c, 0, 60, 0
1, 143280, Note_on_c, 0, 58, 30
1, 143400, Note_on_c, 0, 58, 0
1, 143400, Note_on_c, 0, 60, 30
1, 143520, Tempo, 1081081
1, 143520, Note_on_c, 0, 60, 0
1, 143520, Note_on_c, 0, 77, 0
1, 143520, Note_on_c, 0, 76, 60
1, 143520, Note_on_c, 0, 55, 40
1, 143531, Control_c, 0, 64, 0
1, 143580, Note_on_c, 0, 76, 0
1, 143580, Note_on_c, 0, 77, 56
1, 143640, Tempo, 1132075
1, 143640, Note_on_c, 0, 77, 0
1, 143640, Note_on_c, 0, 55, 0
1, 143640, Note_on_c, 0, 76, 60
1, 143640, Note_on_c, 0, 60, 33
1, 143689, Control_c, 0, 64, 127
1, 143760, Note_on_c, 0, 60, 0
1, 143760, Note_on_c, 0, 58, 33
1, 143880, Note_on_c, 0, 58, 0
1, 143880, Note_on_c, 0, 76, 0
1, 143880, Note_on_c, 0, 82, 57
1, 143880, Note_on_c, 0, 60, 33
1, 144000, Tempo, 1121495
1, 144000, Note_on_c, 0, 60, 0
1, 144000, Note_on_c, 0, 82, 0
1, 144000, Note_on_c, 0, 81, 66
1, 144000, Note_on_c, 0, 53, 40
1, 144000, Control_c, 0, 64, 0
1, 144060, Note_on_c, 0, 53, 0
1, 144060, Note_on_c, 0, 81, 0
1, 144120, Tempo, 1121495
1, 144120, Note_on_c, 0, 82, 60
1, 144120, Note_on_c, 0, 60, 32
1, 144180, Note_on_c, 0, 60, 0
1, 144180, Note_on_c, 0, 82, 0
1, 144240, Tempo, 1132075
1, 144240, Note_on_c, 0, 84, 66
1, 144240, Note_on_c, 0, 57, 32
1, 144300, Note_on_c, 0, 57, 0
1, 144300, Note_on_c, 0, 84, 0
1, 144360, Tempo, 1121495
1, 144360, Note_on_c, 0, 86, 67
1, 144360, Note_on_c, 0, 60, 32
1, 144420, Note_on_c, 0, 60, 0
1, 144420, Note_on_c, 0, 86, 0
1, 144480, Tempo, 1111111
1, 144480, Note_on_c, 0, 88, 77
1, 144480, Note_on_c, 0, 53, 46
1, 144540, Note_on_c, 0, 53, 0
1, 144540, Note_on_c, 0, 88, 0
1, 144600, Tempo, 1121495
1, 144600, Note_on_c, 0, 89, 71
1, 144600, Note_on_c, 0, 60, 35
1, 144660, Note_on_c, 0, 60, 0
1, 144660, Note_on_c, 0, 89, 0
1, 144720, Tempo, 1132075
1, 144720, Note_on_c, 0, 88, 74
1, 144720, Note_on_c, 0, 57, 36
1, 144780, Note_on_c, 0, 57, 0
1, 144780, Note_on_c, 0, 88, 0
1, 144840, Tempo, 1200000
1, 144840, Note_on_c, 0, 89, 72
1, 144840, Note_on_c, 0, 60, 38
1, 144900, Note_on_c, 0, 60, 0
1, 144900, Note_on_c, 0, 89, 0
1, 144960, Tempo, 1142857
1, 144960, Note_on_c, 0, 89, 80
1, 144960, Note_on_c, 0, 55, 49
1, 145003, Control_c, 0, 64, 127
1, 145080, Note_on_c, 0, 55, 0
1, 145080, Note_on_c, 0, 89, 0
1, 145080, Note_on_c, 0, 88, 72
1, 145080, Note_on_c, 0, 60, 39
1, 145200, Note_on_c, 0, 60, 0
1, 145200, Note_on_c, 0, 88, 0
1, 145200, Note_on_c, 0, 86, 73
1, 145200, Note_on_c, 0, 58, 39
1, 145320, Note_on_c, 0, 58, 0
1, 145320, Note_on_c, 0, 86, 0
1, 145320, Note_on_c, 0, 84, 70
1, 145320, Note_on_c, 0, 60, 39
1, 145410, Note_on_c, 0, 84, 0
1, 145440, Note_on_c, 0, 60, 0
1, 145440, Note_on_c, 0, 84, 75
1, 145440, Note_on_c, 0, 55, 50
1, 145450, Control_c, 0, 64, 0
1, 145486, Control_c, 0, 64, 127
1, 145560, Note_on_c, 0, 55, 0
1, 145560, Note_on_c, 0, 84, 0
1, 145560, Note_on_c, 0, 82, 70
1, 145560, Note_on_c, 0, 60, 40
1, 145680, Note_on_c, 0, 60, 0
1, 145680, Note_on_c, 0, 82, 0
1, 145680, Note_on_c, 0, 81, 68
1, 145680, Note_on_c, 0, 58, 40
1, 145800, Tempo, 1224490
1, 145800, Note_on_c, 0, 58, 0
1, 145800, Note_on_c, 0, 81, 0
1, 145800, Note_on_c, 0, 79, 67
1, 145800, Note_on_c, 0, 60, 40
1, 145920, Tempo, 1142857
1, 145920, Note_on_c, 0, 60, 0
1, 145920, Note_on_c, 0, 79, 0
1, 145920, Note_on_c, 0, 81, 68
1, 145920, Note_on_c, 0, 53, 48
1, 145920, Control_c, 0, 64, 0
1, 146040, Tempo, 1153846
1, 146040, Note_on_c, 0, 53, 0
1, 146040, Note_on_c, 0, 81, 0
1, 146040, Note_on_c, 0, 82, 68
1, 146040, Note_on_c, 0, 60, 32
1, 146061, Control_c, 0, 64, 127
1, 146160, Tempo, 1153846
1, 146160, Note_on_c, 0, 60, 0
1, 146160, Note_on_c, 0, 82, 0
1, 146160, Note_on_c, 0, 81, 75
1, 146160, Note_on_c, 0, 57, 32
1, 146280, Tempo, 1142857
1, 146280, Note_on_c, 0, 57, 0
1, 146280, Note_on_c, 0, 81, 0
1, 146280, Note_on_c, 0, 82, 74
1, 146280, Note_on_c, 0, 60, 32
1, 146400, Tempo, 1153846
1, 146400, Note_on_c, 0, 60, 0
1, 146400, Note_on_c, 0, 82, 0
1, 146400, Note_on_c, 0, 84, 83
1, 146400, Note_on_c, 0, 53, 52
1, 146418, Control_c, 0, 64, 0
1, 146478, Control_c, 0, 64, 127
1, 146520, Tempo, 1188119
1, 146520, Note_on_c, 0, 53, 0
1, 146520, Note_on_c, 0, 84, 0
1, 146520, Note_on_c, 0, 86, 81
1, 146520, Note_on_c, 0, 60, 39
1, 146640, Tempo, 1153846
1, 146640, Note_on_c, 0, 60, 0
1, 146640, Note_on_c, 0, 86, 0
1, 146640, Note_on_c, 0, 84, 91
1, 146640, Note_on_c, 0, 57, 42
1, 146760, Tempo, 1304348
1, 146760, Note_on_c, 0, 57, 0
1, 146760, Note_on_c, 0, 84, 0
1, 146760, Note_on_c, 0, 86, 85
1, 146760, Note_on_c, 0, 60, 45
1, 146880, Tempo, 1153846
1, 146880, Note_on_c, 0, 60, 0
1, 146880, Note_on_c, 0, 86, 0
1, 146880, Note_on_c, 0, 87, 97
1, 146880, Note_on_c, 0, 75, 82
1, 146880, Note_on_c, 0, 57, 65
1, 146887, Control_c, 0, 64, 0
1, 147000, Note_on_c, 0, 57, 0
1, 147000, Note_on_c, 0, 65, 55
1, 147000, Control_c, 0, 64, 127
1, 147120, Note_on_c, 0, 65, 0
1, 147120, Note_on_c, 0, 60, 55
1, 147240, Note_on_c, 0, 60, 0
1, 147240, Note_on_c, 0, 65, 55
1, 147360, Note_on_c, 0, 65, 0
1, 147360, Note_on_c, 0, 57, 63
1, 147480, Note_on_c, 0, 57, 0
1, 147480, Note_on_c, 0, 65, 51
1, 147600, Note_on_c, 0, 65, 0
1, 147600, Note_on_c, 0, 60, 51
1, 147720, Tempo, 1250000
1, 147720, Note_on_c, 0, 60, 0
1, 147720, Note_on_c, 0, 65, 51
1, 147840, Tempo, 1165049
1, 147840, Note_on_c, 0, 65, 0
1, 147840, Note_on_c, 0, 75, 0
1, 147840, Note_on_c, 0, 87, 0
1, 147840, Note_on_c, 0, 58, 58
1, 147840, Control_c, 0, 64, 0
1, 147907, Control_c, 0, 64, 127
1, 147960, Tempo, 1142857
1, 147960, Note_on_c, 0, 58, 0
1, 147960, Note_on_c, 0, 86, 70
1, 147960, Note_on_c, 0, 65, 45
1, 148080, Note_on_c, 0, 65, 0
1, 148080, Note_on_c, 0, 86, 0
1, 148080, Note_on_c, 0, 85, 75
1, 148080, Note_on_c, 0, 62, 45
1, 148200, Note_on_c, 0, 62, 0
1, 148200, Note_on_c, 0, 85, 0
1, 148200, Note_on_c, 0, 86, 68
1, 148200, Note_on_c, 0, 65, 45
1, 148320, Note_on_c, 0, 65, 0
1, 148320, Note_on_c, 0, 86, 0
1, 148320, Note_on_c, 0, 57, 51
1, 148329, Control_c, 0, 64, 0
1, 148394, Control_c, 0, 64, 127
1, 148440, Note_on_c, 0, 57, 0
1, 148440, Note_on_c, 0, 84, 67
1, 148440, Note_on_c, 0, 66, 44
1, 148560, Note_on_c, 0, 66, 0
1, 148560, Note_on_c, 0, 84, 0
1, 148560, Note_on_c, 0, 83, 76
1, 148560, Note_on_c, 0, 60, 44
1, 148680, Tempo, 1188119
1, 148680, Note_on_c, 0, 60, 0
1, 148680, Note_on_c, 0, 83, 0
1, 148680, Note_on_c, 0, 84, 67
1, 148680, Note_on_c, 0, 66, 44
1, 148800, Tempo, 1142857
1, 148800, Note_on_c, 0, 66, 0
1, 148800, Note_on_c, 0, 84, 0
1, 148800, Note_on_c, 0, 55, 51
1, 148811, Control_c, 0, 64, 0
1, 148881, Control_c, 0, 64, 127
1, 148920, Note_on_c, 0, 55, 0
1, 148920, Note_on_c, 0, 83, 70
1, 148920, Note_on_c, 0, 65, 43
1, 149040, Tempo, 1090909
1, 149040, Note_on_c, 0, 65, 0
1, 149040, Note_on_c, 0, 83, 0
1, 149040, Note_on_c, 0, 83, 69
1, 149040, Note_on_c, 0, 62, 43
1, 149100, Note_on_c, 0, 83, 0
1, 149100, Note_on_c, 0, 84, 63
1, 149160, Tempo, 1165049
1, 149160, Note_on_c, 0, 84, 0
1, 149160, Note_on_c, 0, 62, 0
1, 149160, Note_on_c, 0, 83, 68
1, 149160, Note_on_c, 0, 65, 43
1, 149280, Tempo, 1132075
1, 149280, Note_on_c, 0, 65, 0
1, 149280, Note_on_c, 0, 83, 0
1, 149280, Note_on_c, 0, 60, 51
1, 149286, Control_c, 0, 64, 0
1, 149351, Control_c, 0, 64, 127
1, 149400, Note_on_c, 0, 60, 0
1, 149400, Note_on_c, 0, 82, 72
1, 149400, Note_on_c, 0, 67, 43
1, 149520, Tempo, 1090909
1, 149520, Note_on_c, 0, 67, 0
1, 149520, Note_on_c, 0, 82, 0
1, 149520, Note_on_c, 0, 82, 72
1, 149520, Note_on_c, 0, 64, 43
1, 149580, Note_on_c, 0, 82, 0
1, 149580, Note_on_c, 0, 84, 65
1, 149640, Tempo, 1188119
1, 149640, Note_on_c, 0, 84, 0
1, 149640, Note_on_c, 0, 64, 0
1, 149640, Note_on_c, 0, 82, 75
1, 149640, Note_on_c, 0, 67, 43
1, 149760, Tempo, 1132075
1, 149760, Note_on_c, 0, 67, 0
1, 149760, Note_on_c, 0, 82, 0
1, 149760, Note_on_c, 0, 53, 47
1, 149760, Control_c, 0, 64, 0
1, 149807, Control_c, 0, 64, 127
1, 149880, Note_on_c, 0, 53, 0
1, 149880, Note_on_c, 0, 81, 67
1, 149880, Note_on_c, 0, 65, 41
1, 150000, Note_on_c, 0, 65, 0
1, 150000, Note_on_c, 0, 81, 0
1, 150000, Note_on_c, 0, 82, 70
1, 150000, Note_on_c, 0, 57, 41
1, 150120, Tempo, 1212121
1, 150120, Note_on_c, 0, 57, 0
1, 150120, Note_on_c, 0, 82, 0
1, 150120, Note_on_c, 0, 84, 72
1, 150120, Note_on_c, 0, 65, 41
1, 150210, Note_on_c, 0, 84, 0
1, 150240, Tempo, 1142857
1, 150240, Note_on_c, 0, 65, 0
1, 150240, Note_on_c, 0, 84, 72
1, 150240, Note_on_c, 0, 58, 47
1, 150249, Control_c, 0, 64, 0
1, 150282, Control_c, 0, 64, 127
1, 150360, Note_on_c, 0, 58, 0
1, 150360, Note_on_c, 0, 84, 0
1, 150360, Note_on_c, 0, 74, 66
1, 150360, Note_on_c, 0, 67, 41
1, 150480, Note_on_c, 0, 67, 0
1, 150480, Note_on_c, 0, 74, 0
1, 150480, Note_on_c, 0, 82, 72
1, 150480, Note_on_c, 0, 62, 41
1, 150600, Note_on_c, 0, 62, 0
1, 150600, Note_on_c, 0, 82, 0
1, 150600, Note_on_c, 0, 79, 65
1, 150600, Note_on_c, 0, 67, 41
1, 150720, Note_on_c, 0, 67, 0
1, 150720, Note_on_c, 0, 79, 0
1, 150720, Note_on_c, 0, 77, 72
1, 150720, Note_on_c, 0, 60, 47
1, 150726, Control_c, 0, 64, 0
1, 150766, Control_c, 0, 64, 127
1, 150840, Note_on_c, 0, 60, 0
1, 150840, Note_on_c, 0, 69, 40
1, 150960, Note_on_c, 0, 69, 0
1, 150960, Note_on_c, 0, 65, 40
1, 151080, Note_on_c, 0, 65, 0
1, 151080, Note_on_c, 0, 69, 40
1, 151181, Tempo, 1165049
1, 151200, Note_on_c, 0, 69, 0
1, 151200, Note_on_c, 0, 77, 0
1, 151200, Note_on_c, 0, 76, 68
1, 151200, Note_on_c, 0, 60, 47
1, 151208, Control_c, 0, 64, 0
1, 151226, Tempo, 1153846
1, 151238, Control_c, 0, 64, 127
1, 151240, Note_on_c, 0, 76, 0
1, 151240, Note_on_c, 0, 77, 60
1, 151256, Tempo, 1142857
1, 151280, Note_on_c, 0, 77, 0
1, 151280, Note_on_c, 0, 76, 68
1, 151286, Tempo, 1132075
1, 151316, Tempo, 1121495
1, 151320, Note_on_c, 0, 76, 0
1, 151320, Note_on_c, 0, 60, 0
1, 151320, Note_on_c, 0, 77, 61
1, 151320, Note_on_c, 0, 67, 42
1, 151346, Tempo, 1111111
1, 151360, Note_on_c, 0, 77, 0
1, 151360, Note_on_c, 0, 76, 68
1, 151400, Note_on_c, 0, 76, 0
1, 151400, Note_on_c, 0, 77, 61
1, 151436, Tempo, 1121495
1, 151440, Note_on_c, 0, 77, 0
1, 151440, Note_on_c, 0, 67, 0
1, 151440, Note_on_c, 0, 76, 68
1, 151440, Note_on_c, 0, 64, 42
1, 151511, Tempo, 1132075
1, 151560, Note_on_c, 0, 64, 0
1, 151560, Note_on_c, 0, 67, 42
1, 151586, Tempo, 1142857
1, 151661, Tempo, 1153846
1, 151680, Tempo, 1132075
1, 151680, Note_on_c, 0, 67, 0
1, 151680, Note_on_c, 0, 76, 0
1, 151680, Note_on_c, 0, 57, 47
1, 151688, Control_c, 0, 64, 0
1, 151753, Control_c, 0, 64, 127
1, 151800, Note_on_c, 0, 57, 0
1, 151800, Note_on_c, 0, 84, 72
1, 151800, Note_on_c, 0, 65, 41
1, 151920, Note_on_c, 0, 65, 0
1, 151920, Note_on_c, 0, 84, 0
1, 151920, Note_on_c, 0, 81, 75
1, 151920, Note_on_c, 0, 60, 41
1, 152040, Tempo, 1200000
1, 152040, Note_on_c, 0, 60, 0
1, 152040, Note_on_c, 0, 81, 0
1, 152040, Note_on_c, 0, 77, 67
1, 152040, Note_on_c, 0, 65, 41
1, 152160, Tempo, 1132075
1, 152160, Note_on_c, 0, 65, 0
1, 152160, Note_on_c, 0, 77, 0
1, 152160, Note_on_c, 0, 75, 77
1, 152160, Note_on_c, 0, 58, 47
1, 152171, Control_c, 0, 64, 0
1, 152227, Control_c, 0, 64, 127
1, 152280, Note_on_c, 0, 58, 0
1, 152280, Note_on_c, 0, 75, 0
1, 152280, Note_on_c, 0, 74, 69
1, 152280, Note_on_c, 0, 65, 41
1, 152400, Note_on_c, 0, 65, 0
1, 152400, Note_on_c, 0, 74, 0
1, 152400, Note_on_c, 0, 85, 82
1, 152400, Note_on_c, 0, 62, 41
1, 152520, Note_on_c, 0, 62, 0
1, 152520, Note_on_c, 0, 85, 0
1, 152520, Note_on_c, 0, 86, 76
1, 152520, Note_on_c, 0, 65, 41
1, 152640, Note_on_c, 0, 65, 0
1, 152640, Note_on_c, 0, 86, 0
1, 152640, Note_on_c, 0, 77, 75
1, 152640, Note_on_c, 0, 60, 47
1, 152653, Control_c, 0, 64, 0
1, 152716, Control_c, 0, 64, 127
1, 152760, Note_on_c, 0, 60, 0
1, 152760, Note_on_c, 0, 69, 38
1, 152880, Note_on_c, 0, 69, 0
1, 152880, Note_on_c, 0, 65, 38
1, 153000, Note_on_c, 0, 65, 0
1, 153000, Note_on_c, 0, 69, 38
1, 153120, Note_on_c, 0, 69, 0
1, 153120, Note_on_c, 0, 77, 0
1, 153120, Note_on_c, 0, 79, 68
1, 153120, Note_on_c, 0, 60, 47
1, 153131, Tempo, 1165049
1, 153132, Control_c, 0, 64, 0
1, 153160, Note_on_c, 0, 79, 0
1, 153160, Note_on_c, 0, 81, 60
1, 153176, Tempo, 1153846
1, 153183, Control_c, 0, 64, 127
1, 153200, Note_on_c, 0, 81, 0
1, 153200, Note_on_c, 0, 79, 68
1, 153221, Tempo, 1142857
1, 153240, Note_on_c, 0, 79, 0
1, 153240, Note_on_c, 0, 60, 0
1, 153240, Note_on_c, 0, 81, 61
1, 153240, Note_on_c, 0, 64, 42
1, 153266, Tempo, 1132075
1, 153280, Note_on_c, 0, 81, 0
1, 153280, Note_on_c, 0, 79, 68
1, 153296, Tempo, 1121495
1, 153320, Note_on_c, 0, 79, 0
1, 153320, Note_on_c, 0, 81, 61
1, 153354, Note_on_c, 0, 79, 68
1, 153360, Note_on_c, 0, 81, 0
1, 153360, Note_on_c, 0, 64, 0
1, 153360, Note_on_c, 0, 60, 42
1, 153394, Note_on_c, 0, 79, 0
1, 153395, Note_on_c, 0, 81, 60
1, 153401, Tempo, 1132075
1, 153434, Note_on_c, 0, 79, 68
1, 153435, Note_on_c, 0, 81, 0
1, 153474, Note_on_c, 0, 79, 0
1, 153477, Note_on_c, 0, 77, 63
1, 153480, Note_on_c, 0, 60, 0
1, 153480, Note_on_c, 0, 64, 42
1, 153491, Tempo, 1142857
1, 153506, Tempo, 1165049
1, 153521, Tempo, 1188119
1, 153536, Tempo, 1212121
1, 153537, Note_on_c, 0, 77, 0
1, 153537, Note_on_c, 0, 79, 62
1, 153551, Tempo, 1237113
1, 153566, Tempo, 1263158
1, 153581, Tempo, 1290323
1, 153597, Note_on_c, 0, 79, 0
1, 153600, Tempo, 1142857
1, 153600, Note_on_c, 0, 64, 0
1, 153600, Note_on_c, 0, 77, 68
1, 153600, Note_on_c, 0, 65, 47
1, 153600, Note_on_c, 0, 53, 39
1, 153603, Control_c, 0, 64, 0
1, 153720, Note_on_c, 0, 77, 0
1, 153838, Note_on_c, 0, 65, 0
1, 153840, Note_on_c, 0, 69, 48
1, 153840, Note_on_c, 0, 65, 40
1, 153960, Note_on_c, 0, 65, 0
1, 153960, Note_on_c, 0, 69, 0
1, 154080, Note_on_c, 0, 53, 0
1, 154080, Note_on_c, 0, 69, 48
1, 154080, Note_on_c, 0, 65, 40
1, 154200, Note_on_c, 0, 65, 0
1, 154200, Note_on_c, 0, 69, 0
1, 154320, Note_on_c, 0, 65, 40
1, 154320, Note_on_c, 0, 69, 48
1, 154440, Note_on_c, 0, 69, 0
1, 154440, Note_on_c, 0, 65, 0
1, 154560, Tempo, 1061947
1, 154560, Note_on_c, 0, 65, 44
1, 154560, Note_on_c, 0, 70, 52
1, 154567, Control_c, 0, 64, 127
1, 154620, Note_on_c, 0, 70, 0
1, 154620, Note_on_c, 0, 69, 47
1, 154680, Tempo, 1121495
1, 154680, Note_on_c, 0, 69, 0
1, 154680, Note_on_c, 0, 67, 47
1, 154740, Note_on_c, 0, 67, 0
1, 154740, Note_on_c, 0, 69, 48
1, 154800, Note_on_c, 0, 69, 0
1, 154800, Note_on_c, 0, 65, 0
1, 154800, Note_on_c, 0, 69, 44
1, 154800, Note_on_c, 0, 72, 52
1, 154810, Control_c, 0, 64, 0
1, 154864, Control_c, 0, 64, 127
1, 155040, Note_on_c, 0, 72, 0
1, 155040, Note_on_c, 0, 69, 0
1, 155040, Note_on_c, 0, 65, 51
1, 155040, Note_on_c, 0, 69, 60
1, 155055, Control_c, 0, 64, 0
1, 155111, Control_c, 0, 64, 127
1, 155280, Tempo, 1276596
1, 155280, Note_on_c, 0, 69, 0
1, 155280, Note_on_c, 0, 65, 0
1, 155280, Note_on_c, 0, 65, 66
1, 155280, Note_on_c, 0, 62, 55
1, 155520, Tempo, 1121495
1, 155520, Note_on_c, 0, 62, 0
1, 155520, Note_on_c, 0, 65, 0
1, 155520, Note_on_c, 0, 62, 72
1, 155520, Note_on_c, 0, 58, 60
1, 155520, Control_c, 0, 64, 0
1, 155566, Control_c, 0, 64, 127
1, 156000, Tempo, 1111111
1, 156000, Note_on_c, 0, 46, 70
1, 156000, Note_on_c, 0, 34, 59
1, 156017, Control_c, 0, 64, 0
1, 156120, Note_on_c, 0, 34, 0
1, 156120, Note_on_c, 0, 62, 0
1, 156120, Note_on_c, 0, 58, 0
1, 156120, Note_on_c, 0, 46, 0
1, 156120, Note_on_c, 0, 58, 49
1, 156120, Note_on_c, 0, 62, 58
1, 156240, Note_on_c, 0, 62, 0
1, 156240, Note_on_c, 0, 58, 0
1, 156240, Note_on_c, 0, 64, 58
1, 156240, Note_on_c, 0, 60, 49
1, 156269, Control_c, 0, 64, 127
1, 156360, Tempo, 1212121
1, 156360, Note_on_c, 0, 60, 0
1, 156360, Note_on_c, 0, 64, 0
1, 156360, Note_on_c, 0, 65, 58
1, 156360, Note_on_c, 0, 62, 49
1, 156468, Note_on_c, 0, 62, 0
1, 156468, Note_on_c, 0, 65, 0
1, 156480, Tempo, 1111111
1, 156480, Note_on_c, 0, 65, 63
1, 156480, Note_on_c, 0, 62, 53
1, 156480, Note_on_c, 0, 36, 53
1, 156480, Note_on_c, 0, 48, 63
1, 156497, Control_c, 0, 64, 0
1, 156555, Control_c, 0, 64, 127
1, 156600, Note_on_c, 0, 48, 0
1, 156600, Note_on_c, 0, 65, 0
1, 156600, Note_on_c, 0, 62, 0
1, 156600, Note_on_c, 0, 36, 0
1, 156600, Note_on_c, 0, 64, 59
1, 156600, Note_on_c, 0, 60, 50
1, 156720, Note_on_c, 0, 60, 0
1, 156720, Note_on_c, 0, 64, 0
1, 156720, Note_on_c, 0, 62, 59
1, 156720, Note_on_c, 0, 58, 50
1, 156725, Control_c, 0, 64, 0
1, 156840, Tempo, 1165049
1, 156840, Note_on_c, 0, 58, 0
1, 156840, Note_on_c, 0, 62, 0
1, 156840, Note_on_c, 0, 60, 59
1, 156840, Note_on_c, 0, 57, 50
1, 156948, Note_on_c, 0, 57, 0
1, 156948, Note_on_c, 0, 60, 0
1, 156960, Tempo, 1132075
1, 156960, Note_on_c, 0, 57, 53
1, 156960, Note_on_c, 0, 60, 63
1, 156960, Note_on_c, 0, 48, 63
1, 156960, Note_on_c, 0, 36, 53
1, 157040, Control_c, 0, 64, 127
1, 157080, Note_on_c, 0, 36, 0
1, 157080, Note_on_c, 0, 57, 0
1, 157080, Note_on_c, 0, 60, 0
1, 157080, Note_on_c, 0, 48, 0
1, 157080, Note_on_c, 0, 58, 53
1, 157080, Note_on_c, 0, 55, 45
1, 157200, Note_on_c, 0, 55, 0
1, 157200, Note_on_c, 0, 58, 0
1, 157200, Note_on_c, 0, 57, 53
1, 157200, Note_on_c, 0, 53, 45
1, 157217, Control_c, 0, 64, 0
1, 157320, Tempo, 1263158
1, 157320, Note_on_c, 0, 53, 0
1, 157320, Note_on_c, 0, 57, 0
1, 157320, Note_on_c, 0, 55, 53
1, 157320, Note_on_c, 0, 52, 45
1, 157440, Tempo, 1142857
1, 157440, Note_on_c, 0, 52, 0
1, 157440, Note_on_c, 0, 55, 0
1, 157440, Note_on_c, 0, 29, 50
1, 157440, Note_on_c, 0, 41, 50
1, 157468, Control_c, 0, 64, 127
1, 157680, Note_on_c, 0, 65, 50
1, 157760, Note_on_c, 0, 65, 0
1, 157760, Note_on_c, 0, 69, 46
1, 157840, Note_on_c, 0, 69, 0
1, 157840, Note_on_c, 0, 77, 46
1, 157920, Tempo, 1132075
1, 157920, Note_on_c, 0, 77, 0
1, 157920, Note_on_c, 0, 41, 0
1, 157920, Note_on_c, 0, 29, 0
1, 157920, Note_on_c, 0, 65, 52
1, 158000, Note_on_c, 0, 65, 0
1, 158000, Note_on_c, 0, 69, 46
1, 158080, Note_on_c, 0, 69, 0
1, 158080, Note_on_c, 0, 77, 46
1, 158160, Note_on_c, 0, 77, 0
1, 158160, Note_on_c, 0, 65, 54
1, 158240, Note_on_c, 0, 65, 0
1, 158240, Note_on_c, 0, 69, 47
1, 158320, Note_on_c, 0, 69, 0
1, 158320, Note_on_c, 0, 77, 47
1, 158400, Tempo, 1111111
1, 158400, Note_on_c, 0, 77, 0
1, 158400, Note_on_c, 0, 65, 60
1, 158480, Note_on_c, 0, 65, 0
1, 158480, Note_on_c, 0, 69, 52
1, 158560, Note_on_c, 0, 69, 0
1, 158560, Note_on_c, 0, 77, 54
1, 158640, Note_on_c, 0, 77, 0
1, 158640, Note_on_c, 0, 69, 65
1, 158720, Note_on_c, 0, 69, 0
1, 158720, Note_on_c, 0, 72, 58
1, 158800, Note_on_c, 0, 72, 0
1, 158800, Note_on_c, 0, 81, 61
1, 158880, Tempo, 1100917
1, 158880, Note_on_c, 0, 81, 0
1, 158880, Note_on_c, 0, 65, 69
1, 158960, Note_on_c, 0, 65, 0
1, 158960, Note_on_c, 0, 69, 62
1, 159040, Note_on_c, 0, 69, 0
1, 159040, Note_on_c, 0, 77, 65
1, 159120, Note_on_c, 0, 77, 0
1, 159120, Note_on_c, 0, 62, 76
1, 159200, Note_on_c, 0, 62, 0
1, 159200, Note_on_c, 0, 65, 66
1, 159280, Tempo, 1643836
1, 159280, Note_on_c, 0, 65, 0
1, 159280, Note_on_c, 0, 74, 69
1, 159360, Tempo, 1132075
1, 159360, Note_on_c, 0, 74, 0
1, 159360, Note_on_c, 0, 58, 80
1, 159366, Control_c, 0, 64, 0
1, 159469, Control_c, 0, 64, 127
1, 159840, Tempo, 1188119
1, 159840, Note_on_c, 0, 46, 70
1, 159840, Note_on_c, 0, 34, 59
1, 159847, Control_c, 0, 64, 0
1, 159960, Tempo, 1276596
1, 159960, Note_on_c, 0, 34, 0
1, 159960, Note_on_c, 0, 46, 0
1, 159960, Note_on_c, 0, 58, 0
1, 159960, Note_on_c, 0, 77, 66
1, 159960, Note_on_c, 0, 74, 56
1, 160080, Note_on_c, 0, 74, 0
1, 160080, Note_on_c, 0, 77, 0
1, 160080, Note_on_c, 0, 76, 68
1, 160080, Note_on_c, 0, 72, 57
1, 160160, Control_c, 0, 64, 127
1, 160200, Tempo, 1411765
1, 160200, Note_on_c, 0, 72, 0
1, 160200, Note_on_c, 0, 76, 0
1, 160200, Note_on_c, 0, 74, 63
1, 160200, Note_on_c, 0, 70, 53
1, 160308, Note_on_c, 0, 70, 0
1, 160308, Note_on_c, 0, 74, 0
1, 160320, Tempo, 1276596
1, 160320, Note_on_c, 0, 74, 67
1, 160320, Note_on_c, 0, 70, 56
1, 160320, Note_on_c, 0, 36, 53
1, 160320, Note_on_c, 0, 48, 63
1, 160330, Control_c, 0, 64, 0
1, 160400, Control_c, 0, 64, 127
1, 160440, Note_on_c, 0, 48, 0
1, 160440, Note_on_c, 0, 74, 0
1, 160440, Note_on_c, 0, 70, 0
1, 160440, Note_on_c, 0, 36, 0
1, 160440, Note_on_c, 0, 69, 55
1, 160440, Note_on_c, 0, 72, 65
1, 160560, Note_on_c, 0, 72, 0
1, 160560, Note_on_c, 0, 69, 0
1, 160560, Note_on_c, 0, 67, 53
1, 160560, Note_on_c, 0, 70, 63
1, 160564, Control_c, 0, 64, 0
1, 160680, Note_on_c, 0, 70, 0
1, 160680, Note_on_c, 0, 67, 0
1, 160680, Note_on_c, 0, 65, 51
1, 160680, Note_on_c, 0, 69, 61
1, 160788, Note_on_c, 0, 69, 0
1, 160788, Note_on_c, 0, 65, 0
1, 160800, Note_on_c, 0, 69, 63
1, 160800, Note_on_c, 0, 48, 53
1, 160800, Note_on_c, 0, 58, 63
1, 160863, Control_c, 0, 64, 127
1, 160920, Note_on_c, 0, 69, 0
1, 160920, Note_on_c, 0, 67, 56
1, 161040, Note_on_c, 0, 67, 0
1, 161040, Note_on_c, 0, 58, 0
1, 161040, Note_on_c, 0, 48, 0
1, 161040, Note_on_c, 0, 65, 56
1, 161048, Control_c, 0, 64, 0
1, 161160, Tempo, 2142857
1, 161160, Note_on_c, 0, 65, 0
1, 161160, Note_on_c, 0, 58, 47
1, 161160, Note_on_c, 0, 64, 56
1, 161268, Note_on_c, 0, 64, 0
1, 161268, Note_on_c, 0, 58, 0
1, 161280, Tempo, 1463415
1, 161280, Note_on_c, 0, 58, 59
1, 161280, Note_on_c, 0, 64, 59
1, 161280, Note_on_c, 0, 53, 56
1, 161312, Control_c, 0, 64, 127
1, 162195, Note_on_c, 0, 53, 0
1, 162195, Note_on_c, 0, 64, 0
1, 162195, Note_on_c, 0, 58, 0
1, 162195, Note_on_c, 0, 41, 49
1, 162210, Note_on_c, 0, 45, 53
1, 162219, Control_c, 0, 64, 0
1, 162225, Note_on_c, 0, 48, 56
1, 162240, Note_on_c, 0, 60, 52
1, 162240, Note_on_c, 0, 65, 52
1, 162240, Note_on_c, 0, 57, 52
1, 162240, Note_on_c, 0, 53, 60
1, 162265, Control_c, 0, 64, 127
1, 162460, Note_on_c, 0, 45, 0
1, 162480, Note_on_c, 0, 57, 0
1, 162480, Note_on_c, 0, 48, 0
1, 162480, Note_on_c, 0, 60, 0
1, 162480, Note_on_c, 0, 41, 0
1, 162480, Note_on_c, 0, 53, 0
1, 162480, Note_on_c, 0, 65, 0
1, 162660, Control_c, 0, 64, 0
1, 162660, End_track
0, 0, End_of_file
