0, 0, Header, 0, 1, 480
1, 0, Start_track
1, 0, Title_t, "Islamei"
1, 0, Title_t, "Orientalische Fantasie"
1, 0, Copyright_t, "Copyright © 2000 by Bernd Krueger"
1, 0, Text_t, "Mili Balakirew"
1, 0, Text_t, "Presto con fuoco"
1, 0, Text_t, "Fertiggestellt am 3.5.2000\012"
1, 0, Text_t, "Update am 7.5.2000\012"
1, 0, Text_t, "Update am 23.8.2000\012"
1, 0, Text_t, "Normierung: 23.12.2002\012"
1, 0, Text_t, "Update am 11.3.2014\012"
1, 0, Text_t, "Dauer: 8:18 Minuten\012"
1, 0, SMPTE_offset, 96, 0, 3, 0, 0
1, 0, Time_signature, 12, 4, 6, 8
1, 0, Key_signature, -5, "major"
1, 0, Tempo, 465694
1, 0, Marker_t, "Presto con fuoco"
1, 0, Program_c, 0, 0
1, 0, Control_c, 0, 7, 127
1, 0, Control_c, 0, 10, 64
1, 0, Control_c, 0, 91, 127
1, 0, Control_c, 0, 91, 127
1, 0, Text_t, "bdca426d104a26ac9dcb070447587523"
1, 0, Program_c, 0, 0
1, 0, Control_c, 0, 7, 127
1, 0, Control_c, 0, 10, 64
1, 0, Control_c, 0, 64, 0
1, 0, Control_c, 0, 91, 127
1, 0, Note_on_c, 0, 58, 89
1, 0, Control_c, 0, 64, 0
1, 90, Note_on_c, 0, 58, 0
1, 120, Note_on_c, 0, 58, 81
1, 210, Note_on_c, 0, 58, 0
1, 240, Note_on_c, 0, 58, 77
1, 330, Note_on_c, 0, 58, 0
1, 360, Note_on_c, 0, 58, 84
1, 450, Note_on_c, 0, 58, 0
1, 480, Note_on_c, 0, 57, 77
1, 570, Note_on_c, 0, 57, 0
1, 600, Note_on_c, 0, 58, 73
1, 690, Note_on_c, 0, 58, 0
1, 720, Note_on_c, 0, 54, 82
1, 810, Note_on_c, 0, 54, 0
1, 840, Note_on_c, 0, 54, 84
1, 930, Note_on_c, 0, 54, 0
1, 960, Tempo, 518135
1, 960, Note_on_c, 0, 57, 77
1, 1050, Note_on_c, 0, 57, 0
1, 1080, Tempo, 465694
1, 1080, Note_on_c, 0, 58, 86
1, 1170, Note_on_c, 0, 58, 0
1, 1200, Note_on_c, 0, 61, 87
1, 1290, Note_on_c, 0, 61, 0
1, 1320, Note_on_c, 0, 60, 87
1, 1410, Note_on_c, 0, 60, 0
1, 1440, Tempo, 469153
1, 1440, Note_on_c, 0, 56, 81
1, 1530, Note_on_c, 0, 56, 0
1, 1560, Note_on_c, 0, 56, 75
1, 1650, Note_on_c, 0, 56, 0
1, 1680, Note_on_c, 0, 56, 73
1, 1770, Note_on_c, 0, 56, 0
1, 1800, Note_on_c, 0, 56, 81
1, 1890, Note_on_c, 0, 56, 0
1, 1920, Note_on_c, 0, 53, 74
1, 2010, Note_on_c, 0, 53, 0
1, 2040, Note_on_c, 0, 54, 71
1, 2130, Note_on_c, 0, 54, 0
1, 2160, Tempo, 486066
1, 2160, Note_on_c, 0, 56, 80
1, 2184, Tempo, 487845
1, 2212, Tempo, 489636
1, 2224, Tempo, 491360
1, 2250, Note_on_c, 0, 56, 0
1, 2252, Tempo, 493178
1, 2264, Tempo, 495009
1, 2280, Note_on_c, 0, 58, 72
1, 2292, Tempo, 496853
1, 2304, Tempo, 498670
1, 2332, Tempo, 500542
1, 2360, Tempo, 502428
1, 2370, Note_on_c, 0, 58, 0
1, 2372, Tempo, 504286
1, 2400, Tempo, 506201
1, 2400, Note_on_c, 0, 56, 67
1, 2412, Tempo, 508087
1, 2440, Tempo, 509987
1, 2452, Tempo, 511902
1, 2480, Tempo, 513875
1, 2490, Note_on_c, 0, 56, 0
1, 2492, Tempo, 515863
1, 2510, Tempo, 475737
1, 2520, Tempo, 556328
1, 2520, Note_on_c, 0, 53, 90
1, 2880, Tempo, 465694
1, 2880, Note_on_c, 0, 53, 0
1, 2880, Note_on_c, 0, 58, 53
1, 2970, Note_on_c, 0, 58, 0
1, 3000, Note_on_c, 0, 58, 49
1, 3090, Note_on_c, 0, 58, 0
1, 3120, Note_on_c, 0, 58, 47
1, 3210, Note_on_c, 0, 58, 0
1, 3240, Note_on_c, 0, 58, 50
1, 3330, Note_on_c, 0, 58, 0
1, 3360, Note_on_c, 0, 57, 45
1, 3450, Note_on_c, 0, 57, 0
1, 3480, Note_on_c, 0, 58, 45
1, 3570, Note_on_c, 0, 58, 0
1, 3600, Note_on_c, 0, 54, 49
1, 3690, Note_on_c, 0, 54, 0
1, 3720, Note_on_c, 0, 54, 46
1, 3810, Note_on_c, 0, 54, 0
1, 3840, Tempo, 508001
1, 3840, Note_on_c, 0, 57, 45
1, 3930, Note_on_c, 0, 57, 0
1, 3960, Tempo, 465694
1, 3960, Note_on_c, 0, 58, 49
1, 4050, Note_on_c, 0, 58, 0
1, 4080, Note_on_c, 0, 61, 47
1, 4170, Note_on_c, 0, 61, 0
1, 4200, Note_on_c, 0, 60, 47
1, 4290, Note_on_c, 0, 60, 0
1, 4320, Tempo, 474083
1, 4320, Note_on_c, 0, 56, 51
1, 4410, Note_on_c, 0, 56, 0
1, 4440, Note_on_c, 0, 56, 46
1, 4530, Note_on_c, 0, 56, 0
1, 4560, Note_on_c, 0, 56, 45
1, 4650, Note_on_c, 0, 56, 0
1, 4680, Note_on_c, 0, 56, 49
1, 4770, Note_on_c, 0, 56, 0
1, 4800, Note_on_c, 0, 53, 45
1, 4890, Note_on_c, 0, 53, 0
1, 4920, Note_on_c, 0, 54, 45
1, 5010, Note_on_c, 0, 54, 0
1, 5040, Tempo, 491360
1, 5040, Note_on_c, 0, 56, 49
1, 5064, Tempo, 493178
1, 5092, Tempo, 495009
1, 5104, Tempo, 496853
1, 5130, Note_on_c, 0, 56, 0
1, 5132, Tempo, 498670
1, 5160, Tempo, 500542
1, 5160, Note_on_c, 0, 58, 43
1, 5172, Tempo, 502428
1, 5200, Tempo, 504286
1, 5224, Tempo, 506201
1, 5240, Tempo, 508087
1, 5250, Note_on_c, 0, 58, 0
1, 5264, Tempo, 509987
1, 5280, Note_on_c, 0, 56, 43
1, 5292, Tempo, 511902
1, 5304, Tempo, 513875
1, 5332, Tempo, 515863
1, 5360, Tempo, 517822
1, 5370, Note_on_c, 0, 56, 0
1, 5372, Tempo, 519841
1, 5400, Tempo, 561010
1, 5400, Note_on_c, 0, 53, 54
1, 5760, Tempo, 465694
1, 5760, Note_on_c, 0, 53, 0
1, 5760, Note_on_c, 0, 54, 80
1, 5850, Note_on_c, 0, 54, 0
1, 5880, Note_on_c, 0, 54, 72
1, 5970, Note_on_c, 0, 54, 0
1, 6000, Note_on_c, 0, 57, 71
1, 6090, Note_on_c, 0, 57, 0
1, 6120, Note_on_c, 0, 58, 82
1, 6210, Note_on_c, 0, 58, 0
1, 6240, Note_on_c, 0, 58, 80
1, 6330, Note_on_c, 0, 58, 0
1, 6360, Note_on_c, 0, 60, 80
1, 6450, Note_on_c, 0, 60, 0
1, 6480, Note_on_c, 0, 63, 85
1, 6570, Note_on_c, 0, 63, 0
1, 6600, Note_on_c, 0, 63, 85
1, 6690, Note_on_c, 0, 63, 0
1, 6720, Tempo, 518135
1, 6720, Note_on_c, 0, 61, 80
1, 6810, Note_on_c, 0, 61, 0
1, 6840, Tempo, 465694
1, 6840, Note_on_c, 0, 60, 81
1, 6930, Note_on_c, 0, 60, 0
1, 6960, Note_on_c, 0, 60, 77
1, 7050, Note_on_c, 0, 60, 0
1, 7080, Note_on_c, 0, 58, 71
1, 7170, Note_on_c, 0, 58, 0
1, 7200, Note_on_c, 0, 56, 83
1, 7290, Note_on_c, 0, 56, 0
1, 7320, Note_on_c, 0, 56, 81
1, 7410, Note_on_c, 0, 56, 0
1, 7440, Note_on_c, 0, 56, 79
1, 7530, Note_on_c, 0, 56, 0
1, 7560, Note_on_c, 0, 61, 80
1, 7650, Note_on_c, 0, 61, 0
1, 7680, Note_on_c, 0, 61, 79
1, 7770, Note_on_c, 0, 61, 0
1, 7800, Note_on_c, 0, 60, 84
1, 7890, Note_on_c, 0, 60, 0
1, 7920, Tempo, 484301
1, 7920, Note_on_c, 0, 58, 80
1, 7960, Tempo, 486066
1, 7984, Tempo, 487845
1, 8010, Note_on_c, 0, 58, 0
1, 8012, Tempo, 489636
1, 8040, Note_on_c, 0, 56, 79
1, 8052, Tempo, 491360
1, 8080, Tempo, 493178
1, 8104, Tempo, 495009
1, 8130, Note_on_c, 0, 56, 0
1, 8132, Tempo, 496853
1, 8160, Note_on_c, 0, 58, 79
1, 8172, Tempo, 498670
1, 8200, Tempo, 500542
1, 8224, Tempo, 502428
1, 8250, Note_on_c, 0, 58, 0
1, 8252, Tempo, 504286
1, 8280, Tempo, 556586
1, 8280, Note_on_c, 0, 53, 89
1, 8640, Tempo, 465694
1, 8640, Note_on_c, 0, 53, 0
1, 8640, Note_on_c, 0, 54, 47
1, 8730, Note_on_c, 0, 54, 0
1, 8760, Note_on_c, 0, 54, 43
1, 8850, Note_on_c, 0, 54, 0
1, 8880, Note_on_c, 0, 57, 43
1, 8970, Note_on_c, 0, 57, 0
1, 9000, Note_on_c, 0, 58, 49
1, 9090, Note_on_c, 0, 58, 0
1, 9120, Note_on_c, 0, 58, 45
1, 9210, Note_on_c, 0, 58, 0
1, 9240, Note_on_c, 0, 60, 45
1, 9330, Note_on_c, 0, 60, 0
1, 9360, Note_on_c, 0, 63, 50
1, 9450, Note_on_c, 0, 63, 0
1, 9480, Note_on_c, 0, 63, 47
1, 9570, Note_on_c, 0, 63, 0
1, 9600, Tempo, 518135
1, 9600, Note_on_c, 0, 61, 47
1, 9690, Note_on_c, 0, 61, 0
1, 9720, Tempo, 465694
1, 9720, Note_on_c, 0, 60, 47
1, 9810, Note_on_c, 0, 60, 0
1, 9840, Note_on_c, 0, 60, 45
1, 9930, Note_on_c, 0, 60, 0
1, 9960, Note_on_c, 0, 58, 45
1, 10050, Note_on_c, 0, 58, 0
1, 10080, Note_on_c, 0, 56, 50
1, 10170, Note_on_c, 0, 56, 0
1, 10200, Note_on_c, 0, 56, 49
1, 10290, Note_on_c, 0, 56, 0
1, 10320, Note_on_c, 0, 56, 49
1, 10410, Note_on_c, 0, 56, 0
1, 10440, Note_on_c, 0, 61, 47
1, 10530, Note_on_c, 0, 61, 0
1, 10560, Note_on_c, 0, 61, 46
1, 10650, Note_on_c, 0, 61, 0
1, 10680, Note_on_c, 0, 60, 46
1, 10770, Note_on_c, 0, 60, 0
1, 10800, Tempo, 479118
1, 10800, Note_on_c, 0, 58, 47
1, 10824, Tempo, 480846
1, 10852, Tempo, 482587
1, 10864, Tempo, 484301
1, 10890, Note_on_c, 0, 58, 0
1, 10892, Tempo, 486066
1, 10904, Tempo, 487845
1, 10920, Note_on_c, 0, 56, 46
1, 10932, Tempo, 489636
1, 10944, Tempo, 491360
1, 10972, Tempo, 493178
1, 11000, Tempo, 495009
1, 11010, Note_on_c, 0, 56, 0
1, 11012, Tempo, 496853
1, 11040, Tempo, 498670
1, 11040, Note_on_c, 0, 58, 46
1, 11052, Tempo, 500542
1, 11080, Tempo, 502428
1, 11092, Tempo, 504286
1, 11120, Tempo, 506201
1, 11130, Note_on_c, 0, 58, 0
1, 11132, Tempo, 508087
1, 11160, Tempo, 572956
1, 11160, Note_on_c, 0, 53, 57
1, 11520, Tempo, 524292
1, 11520, Note_on_c, 0, 53, 0
1, 11520, Note_on_c, 0, 66, 62
1, 11520, Note_on_c, 0, 70, 70
1, 11520, Note_on_c, 0, 56, 67
1, 11520, Control_c, 0, 64, 127
1, 11520, Note_on_c, 0, 61, 76
1, 11610, Note_on_c, 0, 61, 0
1, 11610, Note_on_c, 0, 66, 0
1, 11610, Note_on_c, 0, 70, 0
1, 11610, Note_on_c, 0, 56, 0
1, 11640, Note_on_c, 0, 66, 55
1, 11640, Note_on_c, 0, 70, 62
1, 11640, Control_c, 0, 64, 0
1, 11730, Note_on_c, 0, 70, 0
1, 11730, Note_on_c, 0, 66, 0
1, 11760, Tempo, 521875
1, 11760, Note_on_c, 0, 66, 57
1, 11760, Note_on_c, 0, 70, 63
1, 11850, Note_on_c, 0, 70, 0
1, 11850, Note_on_c, 0, 66, 0
1, 11874, Tempo, 484301
1, 11880, Note_on_c, 0, 70, 71
1, 11880, Note_on_c, 0, 66, 63
1, 11880, Note_on_c, 0, 56, 87
1, 11880, Note_on_c, 0, 49, 76
1, 11909, Control_c, 0, 64, 127
1, 11930, Tempo, 482587
1, 11970, Note_on_c, 0, 66, 0
1, 11970, Note_on_c, 0, 70, 0
1, 11982, Tempo, 480846
1, 12000, Note_on_c, 0, 65, 64
1, 12034, Tempo, 479118
1, 12090, Tempo, 477441
1, 12090, Note_on_c, 0, 65, 0
1, 12120, Note_on_c, 0, 70, 70
1, 12120, Note_on_c, 0, 66, 62
1, 12142, Tempo, 475737
1, 12194, Tempo, 474083
1, 12210, Note_on_c, 0, 66, 0
1, 12210, Note_on_c, 0, 70, 0
1, 12234, Tempo, 472404
1, 12240, Note_on_c, 0, 62, 63
1, 12263, Control_c, 0, 64, 0
1, 12303, Control_c, 0, 64, 127
1, 12330, Note_on_c, 0, 62, 0
1, 12360, Note_on_c, 0, 63, 57
1, 12360, Note_on_c, 0, 66, 63
1, 12450, Note_on_c, 0, 66, 0
1, 12450, Note_on_c, 0, 63, 0
1, 12480, Tempo, 489636
1, 12480, Note_on_c, 0, 65, 64
1, 12520, Control_c, 0, 64, 0
1, 12570, Note_on_c, 0, 65, 0
1, 12600, Tempo, 477631
1, 12600, Note_on_c, 0, 56, 0
1, 12600, Note_on_c, 0, 49, 0
1, 12600, Note_on_c, 0, 66, 62
1, 12600, Note_on_c, 0, 70, 70
1, 12600, Note_on_c, 0, 49, 70
1, 12600, Note_on_c, 0, 37, 62
1, 12640, Control_c, 0, 64, 127
1, 12690, Note_on_c, 0, 37, 0
1, 12690, Note_on_c, 0, 49, 0
1, 12690, Note_on_c, 0, 70, 0
1, 12703, Control_c, 0, 64, 0
1, 12720, Note_on_c, 0, 73, 69
1, 12810, Note_on_c, 0, 73, 0
1, 12840, Note_on_c, 0, 66, 0
1, 12840, Note_on_c, 0, 68, 59
1, 12840, Note_on_c, 0, 72, 65
1, 12930, Note_on_c, 0, 72, 0
1, 12930, Note_on_c, 0, 68, 0
1, 12960, Tempo, 489636
1, 12960, Note_on_c, 0, 68, 65
1, 12960, Note_on_c, 0, 65, 59
1, 12960, Note_on_c, 0, 61, 65
1, 12960, Note_on_c, 0, 56, 59
1, 12967, Control_c, 0, 64, 127
1, 13050, Note_on_c, 0, 56, 0
1, 13050, Note_on_c, 0, 68, 0
1, 13050, Note_on_c, 0, 65, 0
1, 13050, Note_on_c, 0, 61, 0
1, 13080, Note_on_c, 0, 65, 57
1, 13080, Note_on_c, 0, 68, 63
1, 13170, Note_on_c, 0, 68, 0
1, 13170, Note_on_c, 0, 65, 0
1, 13172, Control_c, 0, 64, 0
1, 13200, Tempo, 513875
1, 13200, Note_on_c, 0, 65, 63
1, 13200, Note_on_c, 0, 68, 63
1, 13290, Note_on_c, 0, 68, 0
1, 13290, Note_on_c, 0, 65, 0
1, 13320, Tempo, 470810
1, 13320, Note_on_c, 0, 68, 73
1, 13320, Note_on_c, 0, 65, 65
1, 13320, Note_on_c, 0, 49, 77
1, 13320, Note_on_c, 0, 56, 86
1, 13369, Control_c, 0, 64, 127
1, 13410, Note_on_c, 0, 65, 0
1, 13410, Note_on_c, 0, 68, 0
1, 13412, Tempo, 472404
1, 13440, Note_on_c, 0, 61, 67
1, 13504, Tempo, 474083
1, 13530, Note_on_c, 0, 61, 0
1, 13560, Note_on_c, 0, 66, 65
1, 13560, Note_on_c, 0, 63, 65
1, 13600, Tempo, 475737
1, 13650, Note_on_c, 0, 63, 0
1, 13650, Note_on_c, 0, 66, 0
1, 13680, Tempo, 482587
1, 13680, Note_on_c, 0, 65, 72
1, 13720, Tempo, 484301
1, 13744, Tempo, 486066
1, 13744, Control_c, 0, 64, 0
1, 13770, Note_on_c, 0, 65, 0
1, 13772, Tempo, 487845
1, 13800, Note_on_c, 0, 66, 57
1, 13800, Note_on_c, 0, 70, 64
1, 13812, Tempo, 489636
1, 13821, Control_c, 0, 64, 127
1, 13840, Tempo, 491360
1, 13864, Tempo, 493178
1, 13890, Note_on_c, 0, 70, 0
1, 13890, Note_on_c, 0, 66, 0
1, 13892, Tempo, 495009
1, 13920, Note_on_c, 0, 65, 65
1, 13932, Tempo, 496853
1, 13960, Tempo, 498670
1, 13984, Tempo, 500542
1, 14010, Note_on_c, 0, 65, 0
1, 14012, Tempo, 502428
1, 14040, Tempo, 549501
1, 14040, Note_on_c, 0, 49, 0
1, 14040, Note_on_c, 0, 56, 0
1, 14040, Note_on_c, 0, 61, 74
1, 14040, Note_on_c, 0, 65, 82
1, 14040, Note_on_c, 0, 37, 62
1, 14040, Control_c, 0, 64, 0
1, 14040, Note_on_c, 0, 49, 70
1, 14130, Note_on_c, 0, 49, 0
1, 14130, Note_on_c, 0, 37, 0
1, 14153, Control_c, 0, 64, 127
1, 14280, Control_c, 0, 64, 0
1, 14400, Tempo, 515110
1, 14400, Note_on_c, 0, 65, 0
1, 14400, Note_on_c, 0, 61, 0
1, 14400, Note_on_c, 0, 66, 41
1, 14400, Note_on_c, 0, 70, 45
1, 14400, Note_on_c, 0, 56, 36
1, 14400, Note_on_c, 0, 61, 42
1, 14423, Control_c, 0, 64, 127
1, 14490, Note_on_c, 0, 61, 0
1, 14490, Note_on_c, 0, 66, 0
1, 14490, Note_on_c, 0, 70, 0
1, 14490, Note_on_c, 0, 56, 0
1, 14509, Control_c, 0, 64, 0
1, 14520, Note_on_c, 0, 66, 29
1, 14520, Note_on_c, 0, 70, 33
1, 14610, Note_on_c, 0, 70, 0
1, 14610, Note_on_c, 0, 66, 0
1, 14640, Tempo, 521875
1, 14640, Note_on_c, 0, 66, 31
1, 14640, Note_on_c, 0, 70, 35
1, 14730, Note_on_c, 0, 70, 0
1, 14730, Note_on_c, 0, 66, 0
1, 14754, Tempo, 480846
1, 14760, Note_on_c, 0, 70, 40
1, 14760, Note_on_c, 0, 66, 35
1, 14760, Note_on_c, 0, 49, 44
1, 14760, Note_on_c, 0, 56, 49
1, 14770, Tempo, 484301
1, 14794, Tempo, 482587
1, 14822, Tempo, 480846
1, 14850, Tempo, 479118
1, 14850, Note_on_c, 0, 66, 0
1, 14850, Note_on_c, 0, 70, 0
1, 14862, Tempo, 477441
1, 14880, Note_on_c, 0, 65, 35
1, 14890, Tempo, 475737
1, 14914, Tempo, 474083
1, 14914, Control_c, 0, 64, 127
1, 14930, Tempo, 472404
1, 14954, Tempo, 470810
1, 14970, Note_on_c, 0, 65, 0
1, 14982, Tempo, 469153
1, 14994, Tempo, 467508
1, 15000, Note_on_c, 0, 70, 36
1, 15000, Note_on_c, 0, 66, 32
1, 15090, Note_on_c, 0, 66, 0
1, 15090, Note_on_c, 0, 70, 0
1, 15120, Note_on_c, 0, 62, 36
1, 15129, Control_c, 0, 64, 0
1, 15154, Control_c, 0, 64, 127
1, 15210, Note_on_c, 0, 62, 0
1, 15240, Note_on_c, 0, 66, 33
1, 15240, Note_on_c, 0, 63, 29
1, 15330, Note_on_c, 0, 63, 0
1, 15330, Note_on_c, 0, 66, 0
1, 15360, Tempo, 489636
1, 15360, Note_on_c, 0, 65, 42
1, 15383, Control_c, 0, 64, 0
1, 15450, Note_on_c, 0, 65, 0
1, 15480, Tempo, 477631
1, 15480, Note_on_c, 0, 49, 0
1, 15480, Note_on_c, 0, 56, 0
1, 15480, Note_on_c, 0, 66, 33
1, 15480, Note_on_c, 0, 70, 37
1, 15480, Note_on_c, 0, 49, 35
1, 15480, Note_on_c, 0, 37, 31
1, 15549, Control_c, 0, 64, 127
1, 15570, Note_on_c, 0, 37, 0
1, 15570, Note_on_c, 0, 49, 0
1, 15570, Note_on_c, 0, 70, 0
1, 15600, Note_on_c, 0, 73, 45
1, 15617, Control_c, 0, 64, 0
1, 15690, Note_on_c, 0, 73, 0
1, 15720, Note_on_c, 0, 66, 0
1, 15720, Note_on_c, 0, 68, 39
1, 15720, Note_on_c, 0, 72, 39
1, 15810, Note_on_c, 0, 72, 0
1, 15810, Note_on_c, 0, 68, 0
1, 15840, Tempo, 489636
1, 15840, Note_on_c, 0, 65, 36
1, 15840, Note_on_c, 0, 68, 41
1, 15840, Note_on_c, 0, 61, 34
1, 15840, Note_on_c, 0, 56, 30
1, 15861, Control_c, 0, 64, 127
1, 15930, Note_on_c, 0, 56, 0
1, 15930, Note_on_c, 0, 65, 0
1, 15930, Note_on_c, 0, 68, 0
1, 15930, Note_on_c, 0, 61, 0
1, 15960, Note_on_c, 0, 68, 33
1, 15960, Note_on_c, 0, 65, 29
1, 16016, Control_c, 0, 64, 0
1, 16050, Note_on_c, 0, 65, 0
1, 16050, Note_on_c, 0, 68, 0
1, 16080, Tempo, 513875
1, 16080, Note_on_c, 0, 65, 29
1, 16080, Note_on_c, 0, 68, 33
1, 16170, Note_on_c, 0, 68, 0
1, 16170, Note_on_c, 0, 65, 0
1, 16200, Tempo, 470810
1, 16200, Note_on_c, 0, 68, 36
1, 16200, Note_on_c, 0, 65, 32
1, 16200, Note_on_c, 0, 56, 46
1, 16200, Note_on_c, 0, 49, 42
1, 16271, Control_c, 0, 64, 127
1, 16290, Note_on_c, 0, 65, 0
1, 16290, Note_on_c, 0, 68, 0
1, 16292, Tempo, 472404
1, 16320, Note_on_c, 0, 61, 36
1, 16384, Tempo, 474083
1, 16410, Note_on_c, 0, 61, 0
1, 16440, Note_on_c, 0, 66, 36
1, 16440, Note_on_c, 0, 63, 36
1, 16480, Tempo, 475737
1, 16530, Note_on_c, 0, 63, 0
1, 16530, Note_on_c, 0, 66, 0
1, 16560, Tempo, 486066
1, 16560, Note_on_c, 0, 65, 42
1, 16574, Control_c, 0, 64, 0
1, 16584, Tempo, 487845
1, 16612, Tempo, 489636
1, 16640, Tempo, 491360
1, 16650, Note_on_c, 0, 65, 0
1, 16664, Tempo, 493178
1, 16680, Note_on_c, 0, 70, 41
1, 16680, Note_on_c, 0, 66, 36
1, 16687, Control_c, 0, 64, 127
1, 16692, Tempo, 495009
1, 16720, Tempo, 496853
1, 16744, Tempo, 498670
1, 16770, Note_on_c, 0, 66, 0
1, 16770, Note_on_c, 0, 70, 0
1, 16772, Tempo, 500542
1, 16800, Tempo, 502428
1, 16800, Note_on_c, 0, 65, 36
1, 16814, Control_c, 0, 64, 0
1, 16824, Tempo, 504286
1, 16852, Tempo, 506201
1, 16880, Tempo, 508087
1, 16890, Note_on_c, 0, 65, 0
1, 16892, Tempo, 509987
1, 16920, Tempo, 572956
1, 16920, Note_on_c, 0, 56, 0
1, 16920, Note_on_c, 0, 49, 0
1, 16920, Note_on_c, 0, 61, 41
1, 16920, Note_on_c, 0, 65, 45
1, 16920, Note_on_c, 0, 37, 29
1, 16920, Note_on_c, 0, 49, 33
1, 16984, Control_c, 0, 64, 127
1, 17010, Note_on_c, 0, 49, 0
1, 17010, Note_on_c, 0, 37, 0
1, 17104, Control_c, 0, 64, 0
1, 17280, Tempo, 482664
1, 17280, Note_on_c, 0, 65, 0
1, 17280, Note_on_c, 0, 61, 0
1, 17280, Note_on_c, 0, 62, 72
1, 17280, Note_on_c, 0, 54, 62
1, 17280, Note_on_c, 0, 58, 62
1, 17280, Note_on_c, 0, 49, 55
1, 17360, Tempo, 481000
1, 17370, Note_on_c, 0, 62, 0
1, 17371, Control_c, 0, 64, 127
1, 17400, Note_on_c, 0, 66, 69
1, 17400, Note_on_c, 0, 63, 69
1, 17424, Tempo, 479272
1, 17490, Note_on_c, 0, 63, 0
1, 17490, Note_on_c, 0, 66, 0
1, 17504, Tempo, 477593
1, 17520, Note_on_c, 0, 65, 69
1, 17572, Tempo, 475926
1, 17610, Note_on_c, 0, 65, 0
1, 17640, Tempo, 474346
1, 17640, Note_on_c, 0, 54, 0
1, 17640, Note_on_c, 0, 58, 0
1, 17640, Note_on_c, 0, 49, 0
1, 17640, Note_on_c, 0, 70, 80
1, 17640, Note_on_c, 0, 66, 80
1, 17640, Note_on_c, 0, 37, 46
1, 17640, Note_on_c, 0, 49, 53
1, 17650, Control_c, 0, 64, 0
1, 17703, Control_c, 0, 64, 127
1, 17730, Note_on_c, 0, 66, 0
1, 17730, Note_on_c, 0, 70, 0
1, 17760, Note_on_c, 0, 69, 74
1, 17850, Note_on_c, 0, 69, 0
1, 17880, Tempo, 505817
1, 17880, Note_on_c, 0, 70, 75
1, 17880, Note_on_c, 0, 73, 75
1, 17970, Note_on_c, 0, 73, 0
1, 17970, Note_on_c, 0, 70, 0
1, 18000, Tempo, 474346
1, 18000, Note_on_c, 0, 37, 0
1, 18000, Note_on_c, 0, 49, 0
1, 18000, Note_on_c, 0, 71, 84
1, 18000, Note_on_c, 0, 63, 63
1, 18000, Note_on_c, 0, 56, 57
1, 18000, Note_on_c, 0, 66, 63
1, 18006, Control_c, 0, 64, 0
1, 18051, Control_c, 0, 64, 127
1, 18090, Note_on_c, 0, 71, 0
1, 18120, Note_on_c, 0, 75, 74
1, 18120, Note_on_c, 0, 72, 74
1, 18210, Note_on_c, 0, 72, 0
1, 18210, Note_on_c, 0, 75, 0
1, 18240, Note_on_c, 0, 73, 75
1, 18240, Note_on_c, 0, 70, 75
1, 18330, Note_on_c, 0, 70, 0
1, 18330, Note_on_c, 0, 73, 0
1, 18360, Note_on_c, 0, 63, 0
1, 18360, Note_on_c, 0, 56, 0
1, 18360, Note_on_c, 0, 66, 0
1, 18360, Note_on_c, 0, 72, 74
1, 18360, Note_on_c, 0, 68, 74
1, 18360, Note_on_c, 0, 49, 53
1, 18360, Note_on_c, 0, 37, 46
1, 18369, Control_c, 0, 64, 0
1, 18400, Control_c, 0, 64, 127
1, 18450, Note_on_c, 0, 68, 0
1, 18480, Note_on_c, 0, 67, 72
1, 18570, Note_on_c, 0, 67, 0
1, 18600, Note_on_c, 0, 72, 0
1, 18600, Note_on_c, 0, 70, 70
1, 18600, Note_on_c, 0, 66, 70
1, 18690, Note_on_c, 0, 66, 0
1, 18720, Tempo, 484340
1, 18720, Note_on_c, 0, 37, 0
1, 18720, Note_on_c, 0, 49, 0
1, 18720, Note_on_c, 0, 64, 74
1, 18720, Control_c, 0, 64, 0
1, 18720, Note_on_c, 0, 56, 44
1, 18720, Note_on_c, 0, 61, 44
1, 18720, Note_on_c, 0, 49, 39
1, 18771, Control_c, 0, 64, 127
1, 18810, Note_on_c, 0, 49, 0
1, 18810, Note_on_c, 0, 56, 0
1, 18810, Note_on_c, 0, 61, 0
1, 18810, Note_on_c, 0, 64, 0
1, 18840, Note_on_c, 0, 70, 0
1, 18840, Note_on_c, 0, 65, 71
1, 18897, Control_c, 0, 64, 0
1, 18930, Note_on_c, 0, 65, 0
1, 18960, Note_on_c, 0, 67, 70
1, 19050, Note_on_c, 0, 67, 0
1, 19080, Tempo, 474346
1, 19080, Note_on_c, 0, 73, 81
1, 19080, Note_on_c, 0, 68, 81
1, 19080, Note_on_c, 0, 66, 61
1, 19080, Note_on_c, 0, 63, 61
1, 19080, Note_on_c, 0, 61, 53
1, 19149, Control_c, 0, 64, 127
1, 19170, Note_on_c, 0, 68, 0
1, 19200, Note_on_c, 0, 69, 66
1, 19320, Note_on_c, 0, 73, 0
1, 19320, Note_on_c, 0, 72, 72
1, 19410, Note_on_c, 0, 72, 0
1, 19440, Tempo, 491320
1, 19440, Note_on_c, 0, 69, 0
1, 19440, Note_on_c, 0, 63, 0
1, 19440, Note_on_c, 0, 66, 0
1, 19440, Note_on_c, 0, 70, 69
1, 19440, Note_on_c, 0, 65, 50
1, 19448, Control_c, 0, 64, 0
1, 19515, Control_c, 0, 64, 127
1, 19530, Note_on_c, 0, 65, 0
1, 19530, Note_on_c, 0, 70, 0
1, 19560, Note_on_c, 0, 61, 0
1, 19560, Note_on_c, 0, 68, 65
1, 19650, Note_on_c, 0, 68, 0
1, 19680, Tempo, 507743
1, 19680, Note_on_c, 0, 70, 63
1, 19770, Note_on_c, 0, 70, 0
1, 19800, Tempo, 548346
1, 19800, Note_on_c, 0, 62, 57
1, 19800, Note_on_c, 0, 65, 64
1, 19800, Note_on_c, 0, 59, 53
1, 19800, Note_on_c, 0, 49, 47
1, 19800, Note_on_c, 0, 56, 53
1, 19803, Control_c, 0, 64, 0
1, 19891, Control_c, 0, 64, 127
1, 20160, Tempo, 481000
1, 20160, Note_on_c, 0, 56, 0
1, 20160, Note_on_c, 0, 59, 0
1, 20160, Note_on_c, 0, 62, 0
1, 20160, Note_on_c, 0, 65, 0
1, 20160, Note_on_c, 0, 49, 0
1, 20160, Note_on_c, 0, 62, 40
1, 20160, Control_c, 0, 64, 0
1, 20160, Note_on_c, 0, 49, 29
1, 20160, Note_on_c, 0, 58, 33
1, 20160, Note_on_c, 0, 54, 33
1, 20240, Tempo, 479272
1, 20250, Note_on_c, 0, 62, 0
1, 20280, Note_on_c, 0, 66, 41
1, 20280, Note_on_c, 0, 63, 36
1, 20291, Control_c, 0, 64, 127
1, 20304, Tempo, 477593
1, 20370, Note_on_c, 0, 63, 0
1, 20370, Note_on_c, 0, 66, 0
1, 20384, Tempo, 475926
1, 20400, Note_on_c, 0, 65, 37
1, 20452, Tempo, 474346
1, 20490, Note_on_c, 0, 65, 0
1, 20520, Tempo, 472701
1, 20520, Note_on_c, 0, 49, 0
1, 20520, Note_on_c, 0, 58, 0
1, 20520, Note_on_c, 0, 54, 0
1, 20520, Note_on_c, 0, 70, 44
1, 20520, Note_on_c, 0, 66, 44
1, 20520, Note_on_c, 0, 37, 25
1, 20520, Note_on_c, 0, 49, 27
1, 20531, Control_c, 0, 64, 0
1, 20610, Note_on_c, 0, 66, 0
1, 20610, Note_on_c, 0, 70, 0
1, 20611, Control_c, 0, 64, 127
1, 20640, Note_on_c, 0, 69, 41
1, 20730, Note_on_c, 0, 69, 0
1, 20760, Tempo, 505817
1, 20760, Note_on_c, 0, 73, 47
1, 20760, Note_on_c, 0, 70, 47
1, 20850, Note_on_c, 0, 70, 0
1, 20850, Note_on_c, 0, 73, 0
1, 20880, Tempo, 474346
1, 20880, Note_on_c, 0, 37, 0
1, 20880, Note_on_c, 0, 49, 0
1, 20880, Note_on_c, 0, 71, 49
1, 20880, Note_on_c, 0, 66, 35
1, 20880, Note_on_c, 0, 56, 31
1, 20880, Note_on_c, 0, 63, 35
1, 20892, Control_c, 0, 64, 0
1, 20914, Control_c, 0, 64, 127
1, 20970, Note_on_c, 0, 71, 0
1, 21000, Note_on_c, 0, 75, 46
1, 21000, Note_on_c, 0, 72, 46
1, 21090, Note_on_c, 0, 72, 0
1, 21090, Note_on_c, 0, 75, 0
1, 21120, Note_on_c, 0, 73, 44
1, 21120, Note_on_c, 0, 70, 44
1, 21210, Note_on_c, 0, 70, 0
1, 21210, Note_on_c, 0, 73, 0
1, 21240, Note_on_c, 0, 66, 0
1, 21240, Note_on_c, 0, 56, 0
1, 21240, Note_on_c, 0, 63, 0
1, 21240, Note_on_c, 0, 68, 41
1, 21240, Note_on_c, 0, 72, 41
1, 21240, Note_on_c, 0, 49, 27
1, 21240, Note_on_c, 0, 37, 25
1, 21247, Control_c, 0, 64, 0
1, 21330, Note_on_c, 0, 68, 0
1, 21332, Control_c, 0, 64, 127
1, 21360, Note_on_c, 0, 67, 45
1, 21450, Note_on_c, 0, 67, 0
1, 21480, Note_on_c, 0, 72, 0
1, 21480, Note_on_c, 0, 70, 42
1, 21480, Note_on_c, 0, 66, 42
1, 21570, Note_on_c, 0, 66, 0
1, 21600, Tempo, 484340
1, 21600, Note_on_c, 0, 37, 0
1, 21600, Note_on_c, 0, 49, 0
1, 21600, Note_on_c, 0, 64, 44
1, 21600, Control_c, 0, 64, 0
1, 21600, Note_on_c, 0, 56, 23
1, 21600, Note_on_c, 0, 49, 20
1, 21600, Note_on_c, 0, 61, 23
1, 21634, Control_c, 0, 64, 127
1, 21690, Note_on_c, 0, 61, 0
1, 21690, Note_on_c, 0, 56, 0
1, 21690, Note_on_c, 0, 49, 0
1, 21690, Note_on_c, 0, 64, 0
1, 21720, Note_on_c, 0, 70, 0
1, 21720, Note_on_c, 0, 65, 41
1, 21760, Control_c, 0, 64, 0
1, 21810, Note_on_c, 0, 65, 0
1, 21840, Note_on_c, 0, 67, 39
1, 21930, Note_on_c, 0, 67, 0
1, 21960, Tempo, 474346
1, 21960, Note_on_c, 0, 73, 42
1, 21960, Note_on_c, 0, 68, 42
1, 21960, Note_on_c, 0, 66, 30
1, 21960, Note_on_c, 0, 61, 26
1, 21960, Note_on_c, 0, 63, 30
1, 22046, Control_c, 0, 64, 127
1, 22050, Note_on_c, 0, 68, 0
1, 22080, Note_on_c, 0, 69, 36
1, 22200, Note_on_c, 0, 73, 0
1, 22200, Note_on_c, 0, 72, 43
1, 22290, Note_on_c, 0, 72, 0
1, 22320, Tempo, 482664
1, 22320, Note_on_c, 0, 69, 0
1, 22320, Note_on_c, 0, 63, 0
1, 22320, Note_on_c, 0, 66, 0
1, 22320, Note_on_c, 0, 70, 40
1, 22320, Note_on_c, 0, 65, 26
1, 22337, Control_c, 0, 64, 0
1, 22344, Tempo, 484340
1, 22372, Tempo, 486066
1, 22400, Tempo, 487805
1, 22410, Note_on_c, 0, 65, 0
1, 22410, Note_on_c, 0, 70, 0
1, 22423, Control_c, 0, 64, 127
1, 22424, Tempo, 489556
1, 22440, Note_on_c, 0, 61, 0
1, 22440, Note_on_c, 0, 68, 36
1, 22452, Tempo, 491320
1, 22480, Tempo, 493097
1, 22504, Tempo, 494886
1, 22530, Note_on_c, 0, 68, 0
1, 22532, Tempo, 496689
1, 22560, Tempo, 498504
1, 22560, Note_on_c, 0, 70, 37
1, 22584, Tempo, 500292
1, 22612, Tempo, 502050
1, 22640, Tempo, 503948
1, 22650, Note_on_c, 0, 70, 0
1, 22652, Tempo, 505817
1, 22680, Tempo, 550509
1, 22680, Note_on_c, 0, 61, 37
1, 22680, Note_on_c, 0, 65, 43
1, 22680, Note_on_c, 0, 55, 22
1, 22680, Note_on_c, 0, 46, 19
1, 22703, Control_c, 0, 64, 0
1, 22754, Control_c, 0, 64, 127
1, 23040, Tempo, 500167
1, 23040, Note_on_c, 0, 46, 0
1, 23040, Note_on_c, 0, 61, 0
1, 23040, Note_on_c, 0, 65, 0
1, 23040, Note_on_c, 0, 55, 0
1, 23040, Note_on_c, 0, 60, 32
1, 23040, Note_on_c, 0, 65, 32
1, 23040, Control_c, 0, 64, 0
1, 23040, Note_on_c, 0, 41, 27
1, 23040, Note_on_c, 0, 53, 27
1, 23160, Note_on_c, 0, 53, 0
1, 23160, Note_on_c, 0, 60, 0
1, 23160, Note_on_c, 0, 65, 0
1, 23160, Note_on_c, 0, 41, 0
1, 23160, Note_on_c, 0, 60, 27
1, 23160, Note_on_c, 0, 53, 27
1, 23280, Note_on_c, 0, 53, 0
1, 23280, Note_on_c, 0, 60, 0
1, 23280, Note_on_c, 0, 65, 32
1, 23280, Note_on_c, 0, 60, 32
1, 23380, Tempo, 498173
1, 23400, Note_on_c, 0, 60, 0
1, 23400, Note_on_c, 0, 65, 0
1, 23400, Note_on_c, 0, 58, 31
1, 23400, Note_on_c, 0, 65, 31
1, 23460, Tempo, 496196
1, 23520, Tempo, 494275
1, 23520, Note_on_c, 0, 65, 0
1, 23520, Note_on_c, 0, 58, 0
1, 23520, Note_on_c, 0, 53, 29
1, 23520, Note_on_c, 0, 58, 29
1, 23580, Tempo, 492368
1, 23640, Tempo, 490436
1, 23640, Note_on_c, 0, 58, 0
1, 23640, Note_on_c, 0, 53, 0
1, 23640, Note_on_c, 0, 60, 36
1, 23640, Note_on_c, 0, 65, 36
1, 23700, Tempo, 488520
1, 23760, Tempo, 486657
1, 23760, Note_on_c, 0, 65, 0
1, 23760, Note_on_c, 0, 60, 0
1, 23760, Note_on_c, 0, 65, 39
1, 23760, Note_on_c, 0, 61, 39
1, 23820, Tempo, 484848
1, 23880, Tempo, 482975
1, 23880, Note_on_c, 0, 61, 0
1, 23880, Note_on_c, 0, 65, 0
1, 23880, Note_on_c, 0, 53, 30
1, 23880, Note_on_c, 0, 61, 30
1, 23940, Tempo, 481116
1, 24000, Note_on_c, 0, 61, 0
1, 24000, Note_on_c, 0, 53, 0
1, 24000, Note_on_c, 0, 65, 33
1, 24000, Note_on_c, 0, 63, 33
1, 24120, Note_on_c, 0, 63, 0
1, 24120, Note_on_c, 0, 65, 0
1, 24120, Note_on_c, 0, 60, 32
1, 24120, Note_on_c, 0, 65, 32
1, 24240, Note_on_c, 0, 65, 0
1, 24240, Note_on_c, 0, 60, 0
1, 24240, Note_on_c, 0, 60, 27
1, 24240, Note_on_c, 0, 53, 27
1, 24360, Note_on_c, 0, 53, 0
1, 24360, Note_on_c, 0, 60, 0
1, 24360, Note_on_c, 0, 61, 32
1, 24360, Note_on_c, 0, 65, 32
1, 24480, Note_on_c, 0, 65, 0
1, 24480, Note_on_c, 0, 61, 0
1, 24480, Note_on_c, 0, 58, 31
1, 24480, Note_on_c, 0, 63, 31
1, 24600, Note_on_c, 0, 63, 0
1, 24600, Note_on_c, 0, 58, 0
1, 24600, Note_on_c, 0, 58, 31
1, 24600, Note_on_c, 0, 51, 31
1, 24720, Note_on_c, 0, 51, 0
1, 24720, Note_on_c, 0, 58, 0
1, 24720, Note_on_c, 0, 56, 41
1, 24720, Note_on_c, 0, 63, 33
1, 24840, Note_on_c, 0, 63, 0
1, 24840, Note_on_c, 0, 56, 0
1, 24840, Note_on_c, 0, 61, 46
1, 24840, Note_on_c, 0, 63, 37
1, 24960, Tempo, 479272
1, 24960, Note_on_c, 0, 63, 0
1, 24960, Note_on_c, 0, 61, 0
1, 24960, Note_on_c, 0, 51, 27
1, 24960, Note_on_c, 0, 61, 27
1, 25040, Tempo, 481116
1, 25080, Note_on_c, 0, 61, 0
1, 25080, Note_on_c, 0, 51, 0
1, 25080, Note_on_c, 0, 63, 34
1, 25080, Note_on_c, 0, 60, 34
1, 25100, Tempo, 482975
1, 25180, Tempo, 484848
1, 25200, Note_on_c, 0, 60, 0
1, 25200, Note_on_c, 0, 63, 0
1, 25200, Note_on_c, 0, 63, 33
1, 25200, Note_on_c, 0, 58, 33
1, 25240, Tempo, 486657
1, 25320, Tempo, 488520
1, 25320, Note_on_c, 0, 58, 0
1, 25320, Note_on_c, 0, 63, 0
1, 25320, Note_on_c, 0, 58, 27
1, 25320, Note_on_c, 0, 51, 27
1, 25360, Tempo, 492368
1, 25400, Tempo, 494275
1, 25420, Tempo, 496196
1, 25440, Tempo, 498173
1, 25440, Note_on_c, 0, 51, 0
1, 25440, Note_on_c, 0, 58, 0
1, 25440, Note_on_c, 0, 60, 31
1, 25440, Note_on_c, 0, 63, 31
1, 25480, Tempo, 500167
1, 25500, Tempo, 502134
1, 25520, Tempo, 504117
1, 25540, Tempo, 506201
1, 25560, Note_on_c, 0, 63, 0
1, 25560, Note_on_c, 0, 60, 0
1, 25560, Note_on_c, 0, 61, 32
1, 25560, Note_on_c, 0, 63, 32
1, 25680, Note_on_c, 0, 63, 0
1, 25680, Note_on_c, 0, 61, 0
1, 25680, Note_on_c, 0, 51, 27
1, 25680, Note_on_c, 0, 61, 27
1, 25800, Tempo, 552588
1, 25800, Note_on_c, 0, 61, 0
1, 25800, Note_on_c, 0, 51, 0
1, 25800, Note_on_c, 0, 58, 32
1, 25800, Note_on_c, 0, 63, 32
1, 25920, Tempo, 498173
1, 25920, Note_on_c, 0, 63, 0
1, 25920, Note_on_c, 0, 58, 0
1, 25920, Note_on_c, 0, 65, 32
1, 25920, Note_on_c, 0, 60, 32
1, 26040, Note_on_c, 0, 60, 0
1, 26040, Note_on_c, 0, 65, 0
1, 26040, Note_on_c, 0, 60, 27
1, 26040, Note_on_c, 0, 53, 27
1, 26160, Note_on_c, 0, 53, 0
1, 26160, Note_on_c, 0, 60, 0
1, 26160, Note_on_c, 0, 60, 32
1, 26160, Note_on_c, 0, 65, 32
1, 26280, Note_on_c, 0, 65, 0
1, 26280, Note_on_c, 0, 60, 0
1, 26280, Note_on_c, 0, 58, 34
1, 26280, Note_on_c, 0, 65, 34
1, 26320, Tempo, 496196
1, 26380, Tempo, 494275
1, 26400, Note_on_c, 0, 65, 0
1, 26400, Note_on_c, 0, 58, 0
1, 26400, Note_on_c, 0, 58, 31
1, 26400, Note_on_c, 0, 53, 31
1, 26440, Tempo, 492368
1, 26480, Tempo, 490436
1, 26520, Note_on_c, 0, 53, 0
1, 26520, Note_on_c, 0, 58, 0
1, 26520, Note_on_c, 0, 60, 35
1, 26520, Note_on_c, 0, 65, 35
1, 26540, Tempo, 488520
1, 26580, Tempo, 486657
1, 26640, Tempo, 484848
1, 26640, Note_on_c, 0, 65, 0
1, 26640, Note_on_c, 0, 60, 0
1, 26640, Note_on_c, 0, 61, 40
1, 26640, Note_on_c, 0, 65, 40
1, 26680, Tempo, 482975
1, 26740, Tempo, 481116
1, 26760, Note_on_c, 0, 65, 0
1, 26760, Note_on_c, 0, 61, 0
1, 26760, Note_on_c, 0, 61, 33
1, 26760, Note_on_c, 0, 53, 33
1, 26780, Tempo, 479272
1, 26880, Note_on_c, 0, 53, 0
1, 26880, Note_on_c, 0, 61, 0
1, 26880, Note_on_c, 0, 63, 34
1, 26880, Note_on_c, 0, 65, 34
1, 27000, Note_on_c, 0, 65, 0
1, 27000, Note_on_c, 0, 63, 0
1, 27000, Note_on_c, 0, 65, 32
1, 27000, Note_on_c, 0, 60, 32
1, 27120, Note_on_c, 0, 60, 0
1, 27120, Note_on_c, 0, 65, 0
1, 27120, Note_on_c, 0, 60, 29
1, 27120, Note_on_c, 0, 53, 29
1, 27240, Note_on_c, 0, 53, 0
1, 27240, Note_on_c, 0, 60, 0
1, 27240, Note_on_c, 0, 61, 36
1, 27240, Note_on_c, 0, 65, 36
1, 27360, Note_on_c, 0, 65, 0
1, 27360, Note_on_c, 0, 61, 0
1, 27360, Note_on_c, 0, 58, 33
1, 27360, Note_on_c, 0, 63, 33
1, 27480, Note_on_c, 0, 63, 0
1, 27480, Note_on_c, 0, 58, 0
1, 27480, Note_on_c, 0, 51, 32
1, 27480, Note_on_c, 0, 58, 32
1, 27600, Note_on_c, 0, 58, 0
1, 27600, Note_on_c, 0, 51, 0
1, 27600, Note_on_c, 0, 56, 42
1, 27600, Note_on_c, 0, 63, 33
1, 27720, Note_on_c, 0, 63, 0
1, 27720, Note_on_c, 0, 56, 0
1, 27720, Note_on_c, 0, 63, 39
1, 27720, Note_on_c, 0, 61, 49
1, 27840, Note_on_c, 0, 61, 0
1, 27840, Note_on_c, 0, 63, 0
1, 27840, Note_on_c, 0, 61, 29
1, 27840, Note_on_c, 0, 51, 29
1, 27960, Tempo, 477517
1, 27960, Note_on_c, 0, 51, 0
1, 27960, Note_on_c, 0, 61, 0
1, 27960, Note_on_c, 0, 60, 32
1, 27960, Note_on_c, 0, 63, 32
1, 28020, Tempo, 479272
1, 28080, Tempo, 481116
1, 28080, Note_on_c, 0, 63, 0
1, 28080, Note_on_c, 0, 60, 0
1, 28080, Note_on_c, 0, 58, 32
1, 28080, Note_on_c, 0, 63, 32
1, 28120, Tempo, 482975
1, 28180, Tempo, 484848
1, 28200, Note_on_c, 0, 63, 0
1, 28200, Note_on_c, 0, 58, 0
1, 28200, Note_on_c, 0, 51, 29
1, 28200, Note_on_c, 0, 58, 29
1, 28240, Tempo, 486657
1, 28280, Tempo, 488520
1, 28320, Note_on_c, 0, 58, 0
1, 28320, Note_on_c, 0, 51, 0
1, 28320, Note_on_c, 0, 60, 32
1, 28320, Note_on_c, 0, 63, 32
1, 28340, Tempo, 490436
1, 28400, Tempo, 492368
1, 28440, Tempo, 494275
1, 28440, Note_on_c, 0, 63, 0
1, 28440, Note_on_c, 0, 60, 0
1, 28440, Note_on_c, 0, 61, 32
1, 28440, Note_on_c, 0, 63, 32
1, 28560, Note_on_c, 0, 63, 0
1, 28560, Note_on_c, 0, 61, 0
1, 28560, Note_on_c, 0, 61, 29
1, 28560, Note_on_c, 0, 51, 29
1, 28680, Tempo, 572574
1, 28680, Note_on_c, 0, 51, 0
1, 28680, Note_on_c, 0, 61, 0
1, 28680, Note_on_c, 0, 58, 32
1, 28680, Note_on_c, 0, 63, 32
1, 28800, Tempo, 500167
1, 28800, Note_on_c, 0, 63, 0
1, 28800, Note_on_c, 0, 58, 0
1, 28800, Note_on_c, 0, 53, 27
1, 28800, Note_on_c, 0, 60, 32
1, 28920, Note_on_c, 0, 60, 0
1, 28920, Note_on_c, 0, 53, 0
1, 28920, Note_on_c, 0, 60, 27
1, 28948, Control_c, 0, 64, 127
1, 29040, Note_on_c, 0, 60, 0
1, 29040, Note_on_c, 0, 72, 32
1, 29040, Note_on_c, 0, 65, 32
1, 29089, Control_c, 0, 64, 0
1, 29140, Tempo, 498173
1, 29160, Note_on_c, 0, 65, 0
1, 29160, Note_on_c, 0, 72, 0
1, 29160, Note_on_c, 0, 53, 29
1, 29160, Note_on_c, 0, 58, 29
1, 29220, Tempo, 496196
1, 29273, Control_c, 0, 64, 127
1, 29280, Tempo, 494275
1, 29280, Note_on_c, 0, 58, 0
1, 29280, Note_on_c, 0, 53, 0
1, 29280, Note_on_c, 0, 58, 31
1, 29280, Note_on_c, 0, 65, 31
1, 29280, Note_on_c, 0, 70, 31
1, 29340, Tempo, 492368
1, 29400, Tempo, 490436
1, 29400, Note_on_c, 0, 70, 0
1, 29400, Note_on_c, 0, 58, 0
1, 29400, Note_on_c, 0, 60, 36
1, 29400, Note_on_c, 0, 72, 36
1, 29460, Tempo, 488520
1, 29492, Control_c, 0, 64, 0
1, 29520, Tempo, 486657
1, 29520, Note_on_c, 0, 72, 0
1, 29520, Note_on_c, 0, 60, 0
1, 29520, Note_on_c, 0, 65, 0
1, 29520, Note_on_c, 0, 53, 36
1, 29520, Note_on_c, 0, 61, 36
1, 29580, Tempo, 484848
1, 29640, Tempo, 482975
1, 29640, Note_on_c, 0, 61, 0
1, 29640, Note_on_c, 0, 53, 0
1, 29640, Note_on_c, 0, 73, 35
1, 29640, Note_on_c, 0, 65, 35
1, 29640, Note_on_c, 0, 61, 35
1, 29661, Control_c, 0, 64, 127
1, 29700, Tempo, 481116
1, 29760, Note_on_c, 0, 61, 0
1, 29760, Note_on_c, 0, 73, 0
1, 29760, Note_on_c, 0, 75, 32
1, 29760, Note_on_c, 0, 63, 32
1, 29845, Control_c, 0, 64, 0
1, 29880, Note_on_c, 0, 63, 0
1, 29880, Note_on_c, 0, 75, 0
1, 29880, Note_on_c, 0, 65, 0
1, 29880, Note_on_c, 0, 60, 27
1, 29880, Note_on_c, 0, 53, 27
1, 30000, Note_on_c, 0, 53, 0
1, 30000, Note_on_c, 0, 60, 0
1, 30000, Note_on_c, 0, 60, 32
1, 30000, Note_on_c, 0, 72, 32
1, 30000, Note_on_c, 0, 65, 32
1, 30049, Control_c, 0, 64, 127
1, 30120, Note_on_c, 0, 72, 0
1, 30120, Note_on_c, 0, 60, 0
1, 30120, Note_on_c, 0, 61, 32
1, 30120, Note_on_c, 0, 73, 32
1, 30162, Control_c, 0, 64, 0
1, 30240, Note_on_c, 0, 73, 0
1, 30240, Note_on_c, 0, 61, 0
1, 30240, Note_on_c, 0, 65, 0
1, 30240, Note_on_c, 0, 58, 32
1, 30240, Note_on_c, 0, 51, 32
1, 30353, Control_c, 0, 64, 127
1, 30360, Note_on_c, 0, 51, 0
1, 30360, Note_on_c, 0, 58, 0
1, 30360, Note_on_c, 0, 58, 33
1, 30360, Note_on_c, 0, 63, 33
1, 30360, Note_on_c, 0, 70, 33
1, 30480, Note_on_c, 0, 70, 0
1, 30480, Note_on_c, 0, 58, 0
1, 30480, Note_on_c, 0, 56, 43
1, 30480, Note_on_c, 0, 68, 34
1, 30522, Control_c, 0, 64, 0
1, 30600, Note_on_c, 0, 68, 0
1, 30600, Note_on_c, 0, 56, 0
1, 30600, Note_on_c, 0, 63, 0
1, 30600, Note_on_c, 0, 51, 48
1, 30600, Note_on_c, 0, 61, 48
1, 30720, Tempo, 479272
1, 30720, Note_on_c, 0, 61, 0
1, 30720, Note_on_c, 0, 51, 0
1, 30720, Note_on_c, 0, 61, 37
1, 30720, Note_on_c, 0, 63, 37
1, 30720, Note_on_c, 0, 73, 29
1, 30769, Control_c, 0, 64, 127
1, 30800, Tempo, 481116
1, 30840, Note_on_c, 0, 73, 0
1, 30840, Note_on_c, 0, 61, 0
1, 30840, Note_on_c, 0, 60, 34
1, 30840, Note_on_c, 0, 72, 34
1, 30860, Tempo, 482975
1, 30868, Control_c, 0, 64, 0
1, 30940, Tempo, 484848
1, 30960, Note_on_c, 0, 72, 0
1, 30960, Note_on_c, 0, 60, 0
1, 30960, Note_on_c, 0, 63, 0
1, 30960, Note_on_c, 0, 51, 32
1, 30960, Note_on_c, 0, 58, 32
1, 31000, Tempo, 486657
1, 31080, Tempo, 488520
1, 31080, Note_on_c, 0, 58, 0
1, 31080, Note_on_c, 0, 51, 0
1, 31080, Note_on_c, 0, 63, 34
1, 31080, Note_on_c, 0, 70, 34
1, 31080, Note_on_c, 0, 58, 34
1, 31115, Control_c, 0, 64, 127
1, 31120, Tempo, 492368
1, 31160, Tempo, 494275
1, 31180, Tempo, 496196
1, 31200, Tempo, 498173
1, 31200, Note_on_c, 0, 58, 0
1, 31200, Note_on_c, 0, 70, 0
1, 31200, Note_on_c, 0, 60, 32
1, 31200, Note_on_c, 0, 72, 32
1, 31240, Tempo, 500167
1, 31260, Tempo, 502134
1, 31280, Tempo, 504117
1, 31292, Control_c, 0, 64, 0
1, 31300, Tempo, 506201
1, 31320, Note_on_c, 0, 72, 0
1, 31320, Note_on_c, 0, 60, 0
1, 31320, Note_on_c, 0, 63, 0
1, 31320, Note_on_c, 0, 51, 31
1, 31320, Note_on_c, 0, 61, 31
1, 31440, Note_on_c, 0, 61, 0
1, 31440, Note_on_c, 0, 51, 0
1, 31440, Note_on_c, 0, 61, 32
1, 31440, Note_on_c, 0, 63, 32
1, 31440, Note_on_c, 0, 73, 32
1, 31454, Control_c, 0, 64, 127
1, 31560, Tempo, 552588
1, 31560, Note_on_c, 0, 73, 0
1, 31560, Note_on_c, 0, 61, 0
1, 31560, Note_on_c, 0, 70, 32
1, 31560, Note_on_c, 0, 58, 32
1, 31616, Control_c, 0, 64, 0
1, 31680, Tempo, 500167
1, 31680, Note_on_c, 0, 58, 0
1, 31680, Note_on_c, 0, 70, 0
1, 31680, Note_on_c, 0, 63, 0
1, 31680, Note_on_c, 0, 60, 37
1, 31680, Note_on_c, 0, 53, 34
1, 31786, Control_c, 0, 64, 127
1, 31800, Note_on_c, 0, 60, 0
1, 31800, Note_on_c, 0, 60, 34
1, 31920, Note_on_c, 0, 60, 0
1, 31920, Note_on_c, 0, 53, 0
1, 31920, Note_on_c, 0, 72, 37
1, 31920, Note_on_c, 0, 65, 37
1, 31920, Note_on_c, 0, 53, 27
1, 31920, Note_on_c, 0, 41, 27
1, 31993, Control_c, 0, 64, 0
1, 32020, Tempo, 498173
1, 32040, Note_on_c, 0, 41, 0
1, 32040, Note_on_c, 0, 72, 0
1, 32040, Note_on_c, 0, 65, 0
1, 32040, Note_on_c, 0, 53, 0
1, 32040, Note_on_c, 0, 58, 35
1, 32040, Note_on_c, 0, 53, 35
1, 32100, Tempo, 496196
1, 32146, Control_c, 0, 64, 127
1, 32160, Tempo, 494275
1, 32160, Note_on_c, 0, 58, 0
1, 32160, Note_on_c, 0, 70, 37
1, 32160, Note_on_c, 0, 65, 37
1, 32160, Note_on_c, 0, 58, 37
1, 32220, Tempo, 492368
1, 32280, Tempo, 490436
1, 32280, Note_on_c, 0, 58, 0
1, 32280, Note_on_c, 0, 53, 0
1, 32280, Note_on_c, 0, 70, 0
1, 32280, Note_on_c, 0, 60, 44
1, 32280, Note_on_c, 0, 72, 44
1, 32280, Note_on_c, 0, 41, 27
1, 32280, Note_on_c, 0, 53, 27
1, 32340, Tempo, 488520
1, 32358, Control_c, 0, 64, 0
1, 32400, Tempo, 486657
1, 32400, Note_on_c, 0, 53, 0
1, 32400, Note_on_c, 0, 72, 0
1, 32400, Note_on_c, 0, 65, 0
1, 32400, Note_on_c, 0, 60, 0
1, 32400, Note_on_c, 0, 41, 0
1, 32400, Note_on_c, 0, 61, 44
1, 32400, Note_on_c, 0, 53, 44
1, 32460, Tempo, 484848
1, 32520, Tempo, 482975
1, 32520, Note_on_c, 0, 61, 0
1, 32520, Note_on_c, 0, 61, 45
1, 32520, Note_on_c, 0, 65, 45
1, 32520, Note_on_c, 0, 73, 45
1, 32534, Control_c, 0, 64, 127
1, 32580, Tempo, 481116
1, 32640, Note_on_c, 0, 73, 0
1, 32640, Note_on_c, 0, 53, 0
1, 32640, Note_on_c, 0, 61, 0
1, 32640, Note_on_c, 0, 75, 43
1, 32640, Note_on_c, 0, 63, 43
1, 32640, Note_on_c, 0, 41, 35
1, 32640, Note_on_c, 0, 53, 35
1, 32704, Control_c, 0, 64, 0
1, 32760, Note_on_c, 0, 53, 0
1, 32760, Note_on_c, 0, 63, 0
1, 32760, Note_on_c, 0, 65, 0
1, 32760, Note_on_c, 0, 75, 0
1, 32760, Note_on_c, 0, 41, 0
1, 32760, Note_on_c, 0, 53, 40
1, 32760, Note_on_c, 0, 60, 40
1, 32880, Note_on_c, 0, 60, 0
1, 32880, Note_on_c, 0, 60, 45
1, 32880, Note_on_c, 0, 72, 45
1, 32880, Note_on_c, 0, 65, 45
1, 32901, Control_c, 0, 64, 127
1, 33000, Note_on_c, 0, 72, 0
1, 33000, Note_on_c, 0, 53, 0
1, 33000, Note_on_c, 0, 60, 0
1, 33000, Note_on_c, 0, 73, 45
1, 33000, Note_on_c, 0, 61, 45
1, 33000, Note_on_c, 0, 53, 35
1, 33000, Note_on_c, 0, 41, 35
1, 33049, Control_c, 0, 64, 0
1, 33120, Note_on_c, 0, 41, 0
1, 33120, Note_on_c, 0, 61, 0
1, 33120, Note_on_c, 0, 65, 0
1, 33120, Note_on_c, 0, 73, 0
1, 33120, Note_on_c, 0, 53, 0
1, 33120, Note_on_c, 0, 51, 50
1, 33120, Note_on_c, 0, 58, 50
1, 33212, Control_c, 0, 64, 127
1, 33240, Note_on_c, 0, 58, 0
1, 33240, Note_on_c, 0, 58, 49
1, 33240, Note_on_c, 0, 70, 49
1, 33240, Note_on_c, 0, 63, 49
1, 33360, Note_on_c, 0, 70, 0
1, 33360, Note_on_c, 0, 51, 0
1, 33360, Note_on_c, 0, 58, 0
1, 33360, Note_on_c, 0, 68, 52
1, 33360, Note_on_c, 0, 56, 65
1, 33360, Note_on_c, 0, 51, 29
1, 33360, Note_on_c, 0, 39, 29
1, 33416, Control_c, 0, 64, 0
1, 33480, Note_on_c, 0, 39, 0
1, 33480, Note_on_c, 0, 56, 0
1, 33480, Note_on_c, 0, 63, 0
1, 33480, Note_on_c, 0, 68, 0
1, 33480, Note_on_c, 0, 51, 0
1, 33480, Note_on_c, 0, 61, 56
1, 33480, Note_on_c, 0, 51, 56
1, 33600, Tempo, 479272
1, 33600, Note_on_c, 0, 61, 0
1, 33600, Note_on_c, 0, 73, 42
1, 33600, Note_on_c, 0, 63, 53
1, 33600, Note_on_c, 0, 61, 53
1, 33628, Control_c, 0, 64, 127
1, 33680, Tempo, 481116
1, 33720, Note_on_c, 0, 61, 0
1, 33720, Note_on_c, 0, 51, 0
1, 33720, Note_on_c, 0, 73, 0
1, 33720, Note_on_c, 0, 60, 49
1, 33720, Note_on_c, 0, 72, 49
1, 33720, Note_on_c, 0, 51, 37
1, 33720, Note_on_c, 0, 39, 37
1, 33740, Tempo, 482975
1, 33820, Tempo, 484848
1, 33826, Control_c, 0, 64, 0
1, 33840, Note_on_c, 0, 39, 0
1, 33840, Note_on_c, 0, 72, 0
1, 33840, Note_on_c, 0, 63, 0
1, 33840, Note_on_c, 0, 60, 0
1, 33840, Note_on_c, 0, 51, 0
1, 33840, Note_on_c, 0, 51, 51
1, 33840, Note_on_c, 0, 58, 51
1, 33880, Tempo, 486657
1, 33960, Tempo, 488520
1, 33960, Note_on_c, 0, 58, 0
1, 33960, Note_on_c, 0, 70, 49
1, 33960, Note_on_c, 0, 58, 49
1, 33960, Note_on_c, 0, 63, 49
1, 33995, Control_c, 0, 64, 127
1, 34000, Tempo, 492368
1, 34040, Tempo, 494275
1, 34060, Tempo, 496196
1, 34080, Tempo, 498173
1, 34080, Note_on_c, 0, 58, 0
1, 34080, Note_on_c, 0, 51, 0
1, 34080, Note_on_c, 0, 70, 0
1, 34080, Note_on_c, 0, 60, 50
1, 34080, Note_on_c, 0, 72, 50
1, 34080, Note_on_c, 0, 39, 42
1, 34080, Note_on_c, 0, 51, 42
1, 34120, Tempo, 500167
1, 34140, Tempo, 502134
1, 34160, Tempo, 504117
1, 34172, Control_c, 0, 64, 0
1, 34180, Tempo, 506201
1, 34200, Note_on_c, 0, 51, 0
1, 34200, Note_on_c, 0, 72, 0
1, 34200, Note_on_c, 0, 63, 0
1, 34200, Note_on_c, 0, 60, 0
1, 34200, Note_on_c, 0, 39, 0
1, 34200, Note_on_c, 0, 61, 50
1, 34200, Note_on_c, 0, 57, 50
1, 34200, Note_on_c, 0, 51, 50
1, 34299, Control_c, 0, 64, 127
1, 34320, Note_on_c, 0, 61, 0
1, 34320, Note_on_c, 0, 61, 52
1, 34433, Control_c, 0, 64, 0
1, 34440, Tempo, 591308
1, 34440, Note_on_c, 0, 61, 0
1, 34440, Note_on_c, 0, 73, 52
1, 34440, Note_on_c, 0, 63, 52
1, 34440, Note_on_c, 0, 66, 52
1, 34560, Tempo, 508087
1, 34560, Note_on_c, 0, 66, 0
1, 34560, Note_on_c, 0, 73, 0
1, 34560, Note_on_c, 0, 57, 0
1, 34560, Note_on_c, 0, 51, 0
1, 34560, Note_on_c, 0, 63, 0
1, 34560, Note_on_c, 0, 66, 62
1, 34560, Note_on_c, 0, 70, 70
1, 34560, Note_on_c, 0, 61, 64
1, 34646, Control_c, 0, 64, 127
1, 34650, Note_on_c, 0, 61, 0
1, 34650, Note_on_c, 0, 70, 0
1, 34650, Note_on_c, 0, 66, 0
1, 34680, Note_on_c, 0, 66, 55
1, 34680, Note_on_c, 0, 70, 62
1, 34680, Note_on_c, 0, 54, 61
1, 34770, Note_on_c, 0, 54, 0
1, 34770, Note_on_c, 0, 70, 0
1, 34770, Note_on_c, 0, 66, 0
1, 34800, Tempo, 521875
1, 34800, Note_on_c, 0, 66, 57
1, 34800, Note_on_c, 0, 70, 63
1, 34800, Note_on_c, 0, 51, 61
1, 34890, Note_on_c, 0, 51, 0
1, 34890, Note_on_c, 0, 70, 0
1, 34890, Note_on_c, 0, 66, 0
1, 34914, Tempo, 484301
1, 34920, Note_on_c, 0, 70, 80
1, 34920, Note_on_c, 0, 66, 71
1, 34920, Note_on_c, 0, 44, 72
1, 34920, Note_on_c, 0, 37, 64
1, 34925, Control_c, 0, 64, 0
1, 34949, Control_c, 0, 64, 127
1, 34970, Tempo, 482587
1, 35010, Note_on_c, 0, 66, 0
1, 35010, Note_on_c, 0, 70, 0
1, 35022, Tempo, 480846
1, 35040, Note_on_c, 0, 65, 64
1, 35040, Note_on_c, 0, 62, 60
1, 35074, Tempo, 479118
1, 35130, Tempo, 477441
1, 35130, Note_on_c, 0, 62, 0
1, 35130, Note_on_c, 0, 65, 0
1, 35160, Note_on_c, 0, 70, 70
1, 35160, Note_on_c, 0, 66, 70
1, 35160, Note_on_c, 0, 63, 53
1, 35182, Tempo, 475737
1, 35234, Tempo, 474083
1, 35250, Note_on_c, 0, 63, 0
1, 35250, Note_on_c, 0, 70, 0
1, 35250, Note_on_c, 0, 66, 0
1, 35274, Tempo, 472404
1, 35280, Note_on_c, 0, 44, 0
1, 35280, Note_on_c, 0, 37, 0
1, 35280, Note_on_c, 0, 62, 63
1, 35280, Note_on_c, 0, 59, 62
1, 35280, Note_on_c, 0, 56, 55
1, 35287, Control_c, 0, 64, 0
1, 35326, Control_c, 0, 64, 127
1, 35370, Note_on_c, 0, 56, 0
1, 35370, Note_on_c, 0, 59, 0
1, 35370, Note_on_c, 0, 62, 0
1, 35400, Note_on_c, 0, 63, 57
1, 35400, Note_on_c, 0, 66, 63
1, 35400, Note_on_c, 0, 58, 56
1, 35400, Note_on_c, 0, 54, 50
1, 35490, Note_on_c, 0, 54, 0
1, 35490, Note_on_c, 0, 63, 0
1, 35490, Note_on_c, 0, 66, 0
1, 35490, Note_on_c, 0, 58, 0
1, 35520, Tempo, 489636
1, 35520, Note_on_c, 0, 65, 64
1, 35520, Note_on_c, 0, 56, 56
1, 35520, Note_on_c, 0, 53, 50
1, 35610, Note_on_c, 0, 53, 0
1, 35610, Note_on_c, 0, 56, 0
1, 35610, Note_on_c, 0, 65, 0
1, 35640, Tempo, 481193
1, 35640, Note_on_c, 0, 66, 70
1, 35640, Note_on_c, 0, 70, 70
1, 35640, Control_c, 0, 64, 0
1, 35640, Note_on_c, 0, 51, 57
1, 35640, Note_on_c, 0, 54, 64
1, 35709, Control_c, 0, 64, 127
1, 35730, Note_on_c, 0, 54, 0
1, 35730, Note_on_c, 0, 70, 0
1, 35760, Note_on_c, 0, 73, 69
1, 35760, Note_on_c, 0, 58, 61
1, 35850, Note_on_c, 0, 58, 0
1, 35850, Note_on_c, 0, 73, 0
1, 35880, Note_on_c, 0, 51, 0
1, 35880, Note_on_c, 0, 72, 65
1, 35880, Note_on_c, 0, 56, 61
1, 35970, Note_on_c, 0, 56, 0
1, 35970, Note_on_c, 0, 72, 0
1, 36000, Tempo, 489636
1, 36000, Note_on_c, 0, 66, 0
1, 36000, Note_on_c, 0, 65, 59
1, 36000, Note_on_c, 0, 68, 65
1, 36000, Control_c, 0, 64, 0
1, 36000, Note_on_c, 0, 61, 64
1, 36042, Control_c, 0, 64, 127
1, 36090, Note_on_c, 0, 61, 0
1, 36090, Note_on_c, 0, 68, 0
1, 36090, Note_on_c, 0, 65, 0
1, 36120, Note_on_c, 0, 65, 57
1, 36120, Note_on_c, 0, 68, 63
1, 36120, Note_on_c, 0, 56, 61
1, 36210, Note_on_c, 0, 56, 0
1, 36210, Note_on_c, 0, 68, 0
1, 36210, Note_on_c, 0, 65, 0
1, 36240, Tempo, 513875
1, 36240, Note_on_c, 0, 68, 63
1, 36240, Note_on_c, 0, 65, 63
1, 36240, Note_on_c, 0, 53, 61
1, 36330, Note_on_c, 0, 53, 0
1, 36330, Note_on_c, 0, 65, 0
1, 36330, Note_on_c, 0, 68, 0
1, 36360, Tempo, 470810
1, 36360, Note_on_c, 0, 68, 73
1, 36360, Note_on_c, 0, 65, 65
1, 36360, Note_on_c, 0, 37, 69
1, 36360, Note_on_c, 0, 44, 77
1, 36367, Control_c, 0, 64, 0
1, 36402, Control_c, 0, 64, 127
1, 36450, Note_on_c, 0, 65, 0
1, 36450, Note_on_c, 0, 68, 0
1, 36452, Tempo, 472404
1, 36480, Note_on_c, 0, 61, 67
1, 36480, Note_on_c, 0, 53, 60
1, 36544, Tempo, 474083
1, 36570, Note_on_c, 0, 53, 0
1, 36570, Note_on_c, 0, 61, 0
1, 36600, Note_on_c, 0, 66, 65
1, 36600, Note_on_c, 0, 63, 59
1, 36600, Note_on_c, 0, 56, 53
1, 36640, Tempo, 475737
1, 36690, Note_on_c, 0, 56, 0
1, 36690, Note_on_c, 0, 66, 0
1, 36690, Note_on_c, 0, 63, 0
1, 36720, Tempo, 482587
1, 36720, Note_on_c, 0, 37, 0
1, 36720, Note_on_c, 0, 44, 0
1, 36720, Note_on_c, 0, 65, 77
1, 36720, Note_on_c, 0, 61, 62
1, 36760, Tempo, 484301
1, 36784, Tempo, 486066
1, 36810, Note_on_c, 0, 61, 0
1, 36810, Note_on_c, 0, 65, 0
1, 36812, Tempo, 487845
1, 36840, Note_on_c, 0, 66, 59
1, 36840, Note_on_c, 0, 70, 70
1, 36840, Note_on_c, 0, 49, 56
1, 36852, Tempo, 489636
1, 36880, Tempo, 491360
1, 36904, Tempo, 493178
1, 36930, Note_on_c, 0, 49, 0
1, 36930, Note_on_c, 0, 70, 0
1, 36930, Note_on_c, 0, 66, 0
1, 36932, Tempo, 495009
1, 36960, Tempo, 524246
1, 36960, Note_on_c, 0, 65, 71
1, 36960, Note_on_c, 0, 56, 56
1, 37050, Note_on_c, 0, 56, 0
1, 37050, Note_on_c, 0, 65, 0
1, 37080, Tempo, 549501
1, 37080, Note_on_c, 0, 61, 89
1, 37080, Note_on_c, 0, 65, 72
1, 37099, Control_c, 0, 64, 0
1, 37100, Tempo, 556586
1, 37186, Control_c, 0, 64, 127
1, 37327, Control_c, 0, 64, 0
1, 37440, Tempo, 508087
1, 37440, Note_on_c, 0, 65, 0
1, 37440, Note_on_c, 0, 61, 0
1, 37440, Note_on_c, 0, 78, 43
1, 37440, Note_on_c, 0, 81, 43
1, 37440, Note_on_c, 0, 73, 40
1, 37530, Note_on_c, 0, 73, 0
1, 37530, Note_on_c, 0, 81, 0
1, 37530, Note_on_c, 0, 78, 0
1, 37550, Control_c, 0, 64, 127
1, 37560, Note_on_c, 0, 78, 37
1, 37560, Note_on_c, 0, 81, 37
1, 37560, Note_on_c, 0, 66, 36
1, 37650, Note_on_c, 0, 66, 0
1, 37650, Note_on_c, 0, 81, 0
1, 37650, Note_on_c, 0, 78, 0
1, 37680, Tempo, 521875
1, 37680, Note_on_c, 0, 78, 39
1, 37680, Note_on_c, 0, 81, 39
1, 37680, Note_on_c, 0, 63, 36
1, 37762, Control_c, 0, 64, 0
1, 37770, Note_on_c, 0, 63, 0
1, 37770, Note_on_c, 0, 81, 0
1, 37770, Note_on_c, 0, 78, 0
1, 37794, Tempo, 484301
1, 37800, Note_on_c, 0, 81, 45
1, 37800, Note_on_c, 0, 78, 45
1, 37800, Note_on_c, 0, 56, 41
1, 37800, Note_on_c, 0, 49, 36
1, 37850, Tempo, 482587
1, 37890, Note_on_c, 0, 78, 0
1, 37890, Note_on_c, 0, 81, 0
1, 37902, Tempo, 480846
1, 37915, Control_c, 0, 64, 127
1, 37920, Note_on_c, 0, 77, 40
1, 37920, Note_on_c, 0, 74, 36
1, 37954, Tempo, 479118
1, 38010, Tempo, 477441
1, 38010, Note_on_c, 0, 74, 0
1, 38010, Note_on_c, 0, 77, 0
1, 38040, Note_on_c, 0, 81, 43
1, 38040, Note_on_c, 0, 78, 43
1, 38040, Note_on_c, 0, 75, 32
1, 38062, Tempo, 475737
1, 38114, Tempo, 474083
1, 38130, Note_on_c, 0, 75, 0
1, 38130, Note_on_c, 0, 81, 0
1, 38130, Note_on_c, 0, 78, 0
1, 38130, Control_c, 0, 64, 0
1, 38154, Tempo, 472404
1, 38160, Note_on_c, 0, 56, 0
1, 38160, Note_on_c, 0, 49, 0
1, 38160, Note_on_c, 0, 74, 39
1, 38160, Note_on_c, 0, 71, 37
1, 38160, Note_on_c, 0, 68, 37
1, 38210, Control_c, 0, 64, 127
1, 38250, Note_on_c, 0, 68, 0
1, 38250, Note_on_c, 0, 71, 0
1, 38250, Note_on_c, 0, 74, 0
1, 38280, Note_on_c, 0, 78, 39
1, 38280, Note_on_c, 0, 75, 39
1, 38280, Note_on_c, 0, 69, 34
1, 38280, Note_on_c, 0, 66, 34
1, 38370, Note_on_c, 0, 66, 0
1, 38370, Note_on_c, 0, 78, 0
1, 38370, Note_on_c, 0, 75, 0
1, 38370, Note_on_c, 0, 69, 0
1, 38400, Tempo, 489636
1, 38400, Note_on_c, 0, 77, 40
1, 38400, Note_on_c, 0, 68, 34
1, 38400, Note_on_c, 0, 65, 34
1, 38490, Note_on_c, 0, 65, 0
1, 38490, Note_on_c, 0, 68, 0
1, 38490, Note_on_c, 0, 77, 0
1, 38520, Tempo, 477631
1, 38520, Note_on_c, 0, 81, 43
1, 38520, Note_on_c, 0, 78, 43
1, 38520, Control_c, 0, 64, 0
1, 38520, Note_on_c, 0, 63, 40
1, 38520, Note_on_c, 0, 66, 40
1, 38570, Control_c, 0, 64, 127
1, 38610, Note_on_c, 0, 66, 0
1, 38610, Note_on_c, 0, 81, 0
1, 38640, Note_on_c, 0, 85, 42
1, 38640, Note_on_c, 0, 69, 36
1, 38730, Note_on_c, 0, 69, 0
1, 38730, Note_on_c, 0, 85, 0
1, 38760, Note_on_c, 0, 63, 0
1, 38760, Note_on_c, 0, 84, 40
1, 38760, Note_on_c, 0, 68, 36
1, 38850, Note_on_c, 0, 68, 0
1, 38850, Note_on_c, 0, 84, 0
1, 38880, Tempo, 489636
1, 38880, Note_on_c, 0, 78, 0
1, 38880, Note_on_c, 0, 76, 40
1, 38880, Note_on_c, 0, 80, 40
1, 38880, Note_on_c, 0, 73, 40
1, 38887, Control_c, 0, 64, 0
1, 38938, Control_c, 0, 64, 127
1, 38970, Note_on_c, 0, 73, 0
1, 38970, Note_on_c, 0, 80, 0
1, 38970, Note_on_c, 0, 76, 0
1, 39000, Note_on_c, 0, 76, 39
1, 39000, Note_on_c, 0, 80, 39
1, 39000, Note_on_c, 0, 68, 36
1, 39090, Note_on_c, 0, 68, 0
1, 39090, Note_on_c, 0, 80, 0
1, 39090, Note_on_c, 0, 76, 0
1, 39120, Tempo, 513875
1, 39120, Note_on_c, 0, 76, 39
1, 39120, Note_on_c, 0, 80, 39
1, 39120, Note_on_c, 0, 64, 36
1, 39197, Control_c, 0, 64, 0
1, 39210, Note_on_c, 0, 64, 0
1, 39210, Note_on_c, 0, 80, 0
1, 39210, Note_on_c, 0, 76, 0
1, 39240, Tempo, 470810
1, 39240, Note_on_c, 0, 80, 44
1, 39240, Note_on_c, 0, 76, 44
1, 39240, Note_on_c, 0, 49, 36
1, 39240, Note_on_c, 0, 56, 41
1, 39327, Control_c, 0, 64, 127
1, 39330, Note_on_c, 0, 76, 0
1, 39330, Note_on_c, 0, 80, 0
1, 39332, Tempo, 472404
1, 39360, Note_on_c, 0, 73, 41
1, 39360, Note_on_c, 0, 64, 36
1, 39424, Tempo, 474083
1, 39450, Note_on_c, 0, 64, 0
1, 39450, Note_on_c, 0, 73, 0
1, 39480, Note_on_c, 0, 78, 40
1, 39480, Note_on_c, 0, 75, 40
1, 39480, Note_on_c, 0, 68, 32
1, 39520, Tempo, 475737
1, 39570, Note_on_c, 0, 68, 0
1, 39570, Note_on_c, 0, 78, 0
1, 39570, Note_on_c, 0, 75, 0
1, 39600, Tempo, 482587
1, 39600, Note_on_c, 0, 76, 46
1, 39600, Note_on_c, 0, 73, 37
1, 39640, Tempo, 484301
1, 39664, Tempo, 486066
1, 39690, Note_on_c, 0, 73, 0
1, 39690, Note_on_c, 0, 76, 0
1, 39692, Tempo, 487845
1, 39720, Note_on_c, 0, 81, 43
1, 39720, Note_on_c, 0, 78, 43
1, 39720, Note_on_c, 0, 61, 34
1, 39732, Tempo, 489636
1, 39760, Tempo, 491360
1, 39784, Tempo, 493178
1, 39810, Note_on_c, 0, 61, 0
1, 39810, Note_on_c, 0, 81, 0
1, 39810, Note_on_c, 0, 78, 0
1, 39812, Tempo, 495009
1, 39840, Note_on_c, 0, 76, 44
1, 39840, Note_on_c, 0, 68, 34
1, 39852, Tempo, 496853
1, 39880, Tempo, 498670
1, 39904, Tempo, 500542
1, 39930, Note_on_c, 0, 68, 0
1, 39930, Note_on_c, 0, 76, 0
1, 39932, Tempo, 502428
1, 39960, Tempo, 563169
1, 39960, Note_on_c, 0, 49, 0
1, 39960, Note_on_c, 0, 56, 0
1, 39960, Note_on_c, 0, 73, 53
1, 39960, Note_on_c, 0, 76, 46
1, 39975, Control_c, 0, 64, 0
1, 40045, Control_c, 0, 64, 127
1, 40245, Control_c, 0, 64, 0
1, 40320, Tempo, 482664
1, 40320, Note_on_c, 0, 76, 0
1, 40320, Note_on_c, 0, 73, 0
1, 40320, Note_on_c, 0, 62, 72
1, 40320, Note_on_c, 0, 56, 54
1, 40320, Note_on_c, 0, 59, 62
1, 40354, Control_c, 0, 64, 127
1, 40400, Tempo, 481000
1, 40410, Note_on_c, 0, 59, 0
1, 40410, Note_on_c, 0, 56, 0
1, 40410, Note_on_c, 0, 62, 0
1, 40440, Note_on_c, 0, 63, 69
1, 40440, Note_on_c, 0, 66, 69
1, 40440, Note_on_c, 0, 54, 50
1, 40440, Note_on_c, 0, 58, 56
1, 40464, Tempo, 479272
1, 40530, Note_on_c, 0, 58, 0
1, 40530, Note_on_c, 0, 63, 0
1, 40530, Note_on_c, 0, 66, 0
1, 40530, Note_on_c, 0, 54, 0
1, 40544, Tempo, 477593
1, 40560, Note_on_c, 0, 65, 69
1, 40560, Note_on_c, 0, 53, 50
1, 40560, Note_on_c, 0, 56, 56
1, 40612, Tempo, 475926
1, 40650, Note_on_c, 0, 56, 0
1, 40650, Note_on_c, 0, 53, 0
1, 40650, Note_on_c, 0, 65, 0
1, 40680, Tempo, 474346
1, 40680, Note_on_c, 0, 70, 80
1, 40680, Note_on_c, 0, 66, 80
1, 40680, Note_on_c, 0, 51, 46
1, 40680, Note_on_c, 0, 54, 53
1, 40686, Control_c, 0, 64, 0
1, 40743, Control_c, 0, 64, 127
1, 40770, Note_on_c, 0, 66, 0
1, 40770, Note_on_c, 0, 70, 0
1, 40800, Note_on_c, 0, 69, 74
1, 40890, Note_on_c, 0, 69, 0
1, 40920, Tempo, 505817
1, 40920, Note_on_c, 0, 73, 75
1, 40920, Note_on_c, 0, 70, 75
1, 40920, Note_on_c, 0, 49, 53
1, 40920, Note_on_c, 0, 37, 46
1, 40954, Control_c, 0, 64, 0
1, 41010, Note_on_c, 0, 70, 0
1, 41010, Note_on_c, 0, 73, 0
1, 41040, Tempo, 474346
1, 41040, Note_on_c, 0, 54, 0
1, 41040, Note_on_c, 0, 51, 0
1, 41040, Note_on_c, 0, 71, 84
1, 41040, Note_on_c, 0, 55, 59
1, 41069, Control_c, 0, 64, 127
1, 41130, Note_on_c, 0, 55, 0
1, 41130, Note_on_c, 0, 71, 0
1, 41160, Note_on_c, 0, 75, 74
1, 41160, Note_on_c, 0, 72, 65
1, 41160, Note_on_c, 0, 56, 57
1, 41250, Note_on_c, 0, 56, 0
1, 41250, Note_on_c, 0, 75, 0
1, 41250, Note_on_c, 0, 72, 0
1, 41280, Note_on_c, 0, 73, 75
1, 41280, Note_on_c, 0, 70, 66
1, 41280, Note_on_c, 0, 57, 55
1, 41370, Note_on_c, 0, 57, 0
1, 41370, Note_on_c, 0, 73, 0
1, 41370, Note_on_c, 0, 70, 0
1, 41400, Note_on_c, 0, 72, 74
1, 41400, Note_on_c, 0, 68, 74
1, 41400, Note_on_c, 0, 58, 54
1, 41490, Note_on_c, 0, 58, 0
1, 41490, Note_on_c, 0, 68, 0
1, 41520, Note_on_c, 0, 67, 72
1, 41520, Note_on_c, 0, 59, 53
1, 41610, Note_on_c, 0, 59, 0
1, 41610, Note_on_c, 0, 67, 0
1, 41640, Note_on_c, 0, 72, 0
1, 41640, Note_on_c, 0, 70, 70
1, 41640, Note_on_c, 0, 66, 70
1, 41640, Note_on_c, 0, 60, 51
1, 41730, Note_on_c, 0, 60, 0
1, 41730, Note_on_c, 0, 66, 0
1, 41760, Tempo, 484340
1, 41760, Note_on_c, 0, 49, 0
1, 41760, Note_on_c, 0, 37, 0
1, 41760, Note_on_c, 0, 64, 74
1, 41760, Note_on_c, 0, 61, 53
1, 41765, Control_c, 0, 64, 0
1, 41806, Control_c, 0, 64, 127
1, 41850, Note_on_c, 0, 64, 0
1, 41880, Note_on_c, 0, 70, 0
1, 41880, Note_on_c, 0, 65, 71
1, 41880, Note_on_c, 0, 56, 52
1, 41970, Note_on_c, 0, 56, 0
1, 41970, Note_on_c, 0, 65, 0
1, 42000, Note_on_c, 0, 67, 70
1, 42000, Note_on_c, 0, 49, 52
1, 42090, Note_on_c, 0, 49, 0
1, 42090, Note_on_c, 0, 67, 0
1, 42120, Tempo, 474346
1, 42120, Note_on_c, 0, 61, 0
1, 42120, Note_on_c, 0, 73, 81
1, 42120, Note_on_c, 0, 68, 81
1, 42120, Note_on_c, 0, 63, 61
1, 42171, Control_c, 0, 64, 0
1, 42210, Note_on_c, 0, 68, 0
1, 42240, Note_on_c, 0, 69, 66
1, 42240, Note_on_c, 0, 54, 52
1, 42251, Control_c, 0, 64, 127
1, 42330, Note_on_c, 0, 54, 0
1, 42360, Note_on_c, 0, 73, 0
1, 42360, Note_on_c, 0, 72, 72
1, 42360, Note_on_c, 0, 49, 53
1, 42450, Note_on_c, 0, 49, 0
1, 42450, Note_on_c, 0, 72, 0
1, 42480, Tempo, 491320
1, 42480, Note_on_c, 0, 69, 0
1, 42480, Note_on_c, 0, 63, 0
1, 42480, Note_on_c, 0, 70, 69
1, 42480, Note_on_c, 0, 65, 50
1, 42570, Note_on_c, 0, 70, 0
1, 42600, Note_on_c, 0, 68, 65
1, 42600, Note_on_c, 0, 53, 45
1, 42690, Note_on_c, 0, 53, 0
1, 42690, Note_on_c, 0, 68, 0
1, 42720, Note_on_c, 0, 70, 63
1, 42720, Note_on_c, 0, 49, 40
1, 42722, Tempo, 511771
1, 42810, Note_on_c, 0, 70, 0
1, 42840, Tempo, 553965
1, 42840, Note_on_c, 0, 65, 0
1, 42840, Note_on_c, 0, 62, 62
1, 42840, Note_on_c, 0, 65, 70
1, 42840, Note_on_c, 0, 56, 42
1, 42840, Note_on_c, 0, 59, 46
1, 42857, Control_c, 0, 64, 0
1, 42954, Control_c, 0, 64, 127
1, 43114, Control_c, 0, 64, 0
1, 43200, Key_signature, 4, "major"
1, 43200, Tempo, 482664
1, 43200, Note_on_c, 0, 59, 0
1, 43200, Note_on_c, 0, 65, 0
1, 43200, Note_on_c, 0, 49, 0
1, 43200, Note_on_c, 0, 62, 0
1, 43200, Note_on_c, 0, 56, 0
1, 43200, Note_on_c, 0, 74, 44
1, 43200, Note_on_c, 0, 68, 33
1, 43200, Note_on_c, 0, 71, 37
1, 43280, Tempo, 481000
1, 43290, Note_on_c, 0, 71, 0
1, 43290, Note_on_c, 0, 68, 0
1, 43290, Note_on_c, 0, 74, 0
1, 43320, Note_on_c, 0, 78, 43
1, 43320, Note_on_c, 0, 75, 43
1, 43320, Note_on_c, 0, 69, 35
1, 43320, Note_on_c, 0, 66, 31
1, 43344, Tempo, 479272
1, 43354, Control_c, 0, 64, 127
1, 43410, Note_on_c, 0, 66, 0
1, 43410, Note_on_c, 0, 78, 0
1, 43410, Note_on_c, 0, 75, 0
1, 43410, Note_on_c, 0, 69, 0
1, 43424, Tempo, 477593
1, 43440, Note_on_c, 0, 77, 43
1, 43440, Note_on_c, 0, 65, 31
1, 43440, Note_on_c, 0, 68, 35
1, 43492, Tempo, 475926
1, 43530, Note_on_c, 0, 68, 0
1, 43530, Note_on_c, 0, 65, 0
1, 43530, Note_on_c, 0, 77, 0
1, 43560, Tempo, 474346
1, 43560, Note_on_c, 0, 82, 49
1, 43560, Note_on_c, 0, 78, 49
1, 43560, Note_on_c, 0, 63, 27
1, 43560, Note_on_c, 0, 66, 32
1, 43581, Control_c, 0, 64, 0
1, 43650, Note_on_c, 0, 78, 0
1, 43650, Note_on_c, 0, 82, 0
1, 43680, Note_on_c, 0, 81, 45
1, 43691, Control_c, 0, 64, 127
1, 43770, Note_on_c, 0, 81, 0
1, 43800, Tempo, 505817
1, 43800, Note_on_c, 0, 85, 45
1, 43800, Note_on_c, 0, 82, 45
1, 43800, Note_on_c, 0, 61, 32
1, 43800, Note_on_c, 0, 49, 27
1, 43890, Note_on_c, 0, 82, 0
1, 43890, Note_on_c, 0, 85, 0
1, 43920, Tempo, 474346
1, 43920, Note_on_c, 0, 66, 0
1, 43920, Note_on_c, 0, 63, 0
1, 43920, Note_on_c, 0, 83, 52
1, 43920, Note_on_c, 0, 67, 36
1, 44010, Note_on_c, 0, 67, 0
1, 44010, Note_on_c, 0, 83, 0
1, 44040, Note_on_c, 0, 87, 45
1, 44040, Note_on_c, 0, 84, 45
1, 44040, Note_on_c, 0, 68, 35
1, 44130, Note_on_c, 0, 68, 0
1, 44130, Note_on_c, 0, 87, 0
1, 44130, Note_on_c, 0, 84, 0
1, 44160, Note_on_c, 0, 85, 45
1, 44160, Note_on_c, 0, 81, 45
1, 44160, Note_on_c, 0, 69, 34
1, 44250, Note_on_c, 0, 69, 0
1, 44250, Note_on_c, 0, 85, 0
1, 44250, Note_on_c, 0, 81, 0
1, 44280, Note_on_c, 0, 84, 45
1, 44280, Note_on_c, 0, 80, 45
1, 44280, Note_on_c, 0, 70, 33
1, 44292, Control_c, 0, 64, 0
1, 44355, Control_c, 0, 64, 127
1, 44370, Note_on_c, 0, 70, 0
1, 44370, Note_on_c, 0, 80, 0
1, 44400, Note_on_c, 0, 79, 44
1, 44400, Note_on_c, 0, 71, 32
1, 44490, Note_on_c, 0, 71, 0
1, 44490, Note_on_c, 0, 79, 0
1, 44520, Note_on_c, 0, 84, 0
1, 44520, Note_on_c, 0, 78, 44
1, 44520, Note_on_c, 0, 81, 44
1, 44520, Note_on_c, 0, 72, 31
1, 44610, Note_on_c, 0, 72, 0
1, 44610, Note_on_c, 0, 78, 0
1, 44640, Tempo, 484340
1, 44640, Note_on_c, 0, 61, 0
1, 44640, Note_on_c, 0, 49, 0
1, 44640, Note_on_c, 0, 75, 45
1, 44640, Control_c, 0, 64, 0
1, 44640, Note_on_c, 0, 73, 32
1, 44692, Control_c, 0, 64, 127
1, 44730, Note_on_c, 0, 75, 0
1, 44760, Note_on_c, 0, 81, 0
1, 44760, Note_on_c, 0, 76, 44
1, 44760, Note_on_c, 0, 68, 32
1, 44850, Note_on_c, 0, 68, 0
1, 44850, Note_on_c, 0, 76, 0
1, 44880, Note_on_c, 0, 78, 44
1, 44880, Note_on_c, 0, 61, 32
1, 44970, Note_on_c, 0, 61, 0
1, 44970, Note_on_c, 0, 78, 0
1, 45000, Tempo, 488480
1, 45000, Note_on_c, 0, 73, 0
1, 45000, Note_on_c, 0, 76, 50
1, 45000, Note_on_c, 0, 85, 50
1, 45000, Note_on_c, 0, 79, 50
1, 45000, Note_on_c, 0, 74, 41
1, 45016, Control_c, 0, 64, 0
1, 45074, Control_c, 0, 64, 127
1, 45090, Note_on_c, 0, 79, 0
1, 45120, Note_on_c, 0, 80, 41
1, 45120, Note_on_c, 0, 68, 32
1, 45210, Note_on_c, 0, 68, 0
1, 45240, Note_on_c, 0, 85, 0
1, 45240, Note_on_c, 0, 83, 44
1, 45240, Note_on_c, 0, 64, 32
1, 45330, Note_on_c, 0, 64, 0
1, 45330, Note_on_c, 0, 83, 0
1, 45360, Tempo, 507743
1, 45360, Note_on_c, 0, 80, 0
1, 45360, Note_on_c, 0, 76, 0
1, 45360, Note_on_c, 0, 74, 0
1, 45360, Note_on_c, 0, 81, 46
1, 45360, Note_on_c, 0, 76, 46
1, 45360, Note_on_c, 0, 73, 30
1, 45450, Note_on_c, 0, 81, 0
1, 45480, Note_on_c, 0, 80, 41
1, 45480, Note_on_c, 0, 64, 27
1, 45570, Note_on_c, 0, 64, 0
1, 45570, Note_on_c, 0, 80, 0
1, 45600, Note_on_c, 0, 81, 39
1, 45600, Note_on_c, 0, 57, 24
1, 45602, Tempo, 539617
1, 45690, Note_on_c, 0, 81, 0
1, 45720, Tempo, 586224
1, 45720, Note_on_c, 0, 76, 0
1, 45720, Note_on_c, 0, 73, 0
1, 45720, Note_on_c, 0, 69, 42
1, 45720, Note_on_c, 0, 76, 46
1, 45720, Note_on_c, 0, 64, 32
1, 45720, Note_on_c, 0, 73, 36
1, 45726, Control_c, 0, 64, 0
1, 45829, Control_c, 0, 64, 127
1, 46080, Tempo, 508087
1, 46080, Note_on_c, 0, 73, 0
1, 46080, Note_on_c, 0, 76, 0
1, 46080, Note_on_c, 0, 57, 0
1, 46080, Note_on_c, 0, 69, 0
1, 46080, Note_on_c, 0, 64, 0
1, 46080, Control_c, 0, 64, 0
1, 46080, Note_on_c, 0, 45, 65
1, 46080, Note_on_c, 0, 50, 74
1, 46080, Note_on_c, 0, 54, 74
1, 46080, Note_on_c, 0, 42, 65
1, 46170, Note_on_c, 0, 42, 0
1, 46170, Note_on_c, 0, 45, 0
1, 46170, Note_on_c, 0, 50, 0
1, 46170, Note_on_c, 0, 54, 0
1, 46200, Note_on_c, 0, 57, 59
1, 46200, Note_on_c, 0, 62, 65
1, 46223, Control_c, 0, 64, 127
1, 46290, Note_on_c, 0, 62, 0
1, 46290, Note_on_c, 0, 57, 0
1, 46320, Tempo, 521875
1, 46320, Note_on_c, 0, 69, 61
1, 46320, Note_on_c, 0, 66, 53
1, 46410, Note_on_c, 0, 66, 0
1, 46410, Note_on_c, 0, 69, 0
1, 46434, Tempo, 484301
1, 46440, Note_on_c, 0, 78, 90
1, 46440, Note_on_c, 0, 74, 81
1, 46474, Control_c, 0, 64, 0
1, 46490, Tempo, 482587
1, 46530, Note_on_c, 0, 74, 0
1, 46530, Note_on_c, 0, 78, 0
1, 46542, Tempo, 480846
1, 46560, Note_on_c, 0, 65, 54
1, 46560, Note_on_c, 0, 61, 49
1, 46594, Tempo, 479118
1, 46650, Tempo, 477441
1, 46650, Note_on_c, 0, 61, 0
1, 46650, Note_on_c, 0, 65, 0
1, 46680, Note_on_c, 0, 62, 44
1, 46680, Note_on_c, 0, 66, 50
1, 46702, Tempo, 475737
1, 46754, Tempo, 474083
1, 46770, Note_on_c, 0, 66, 0
1, 46770, Note_on_c, 0, 62, 0
1, 46794, Tempo, 472404
1, 46800, Note_on_c, 0, 61, 65
1, 46800, Note_on_c, 0, 58, 59
1, 46890, Note_on_c, 0, 58, 0
1, 46890, Note_on_c, 0, 61, 0
1, 46920, Note_on_c, 0, 59, 51
1, 46920, Note_on_c, 0, 62, 57
1, 47010, Note_on_c, 0, 62, 0
1, 47010, Note_on_c, 0, 59, 0
1, 47040, Tempo, 489636
1, 47040, Note_on_c, 0, 61, 49
1, 47040, Note_on_c, 0, 65, 55
1, 47130, Note_on_c, 0, 65, 0
1, 47130, Note_on_c, 0, 61, 0
1, 47160, Tempo, 477631
1, 47160, Note_on_c, 0, 62, 62
1, 47160, Note_on_c, 0, 66, 69
1, 47250, Note_on_c, 0, 66, 0
1, 47280, Note_on_c, 0, 69, 65
1, 47370, Note_on_c, 0, 69, 0
1, 47400, Note_on_c, 0, 62, 0
1, 47400, Note_on_c, 0, 64, 54
1, 47400, Note_on_c, 0, 68, 62
1, 47490, Note_on_c, 0, 68, 0
1, 47490, Note_on_c, 0, 64, 0
1, 47520, Tempo, 501798
1, 47520, Note_on_c, 0, 44, 56
1, 47520, Note_on_c, 0, 56, 63
1, 47520, Note_on_c, 0, 51, 63
1, 47610, Note_on_c, 0, 51, 0
1, 47610, Note_on_c, 0, 56, 0
1, 47610, Note_on_c, 0, 44, 0
1, 47640, Note_on_c, 0, 63, 62
1, 47640, Note_on_c, 0, 60, 54
1, 47674, Control_c, 0, 64, 127
1, 47730, Note_on_c, 0, 60, 0
1, 47730, Note_on_c, 0, 63, 0
1, 47760, Tempo, 513875
1, 47760, Note_on_c, 0, 72, 55
1, 47760, Note_on_c, 0, 66, 49
1, 47850, Note_on_c, 0, 66, 0
1, 47850, Note_on_c, 0, 72, 0
1, 47880, Tempo, 470810
1, 47880, Note_on_c, 0, 75, 81
1, 47880, Note_on_c, 0, 78, 90
1, 47966, Control_c, 0, 64, 0
1, 47970, Note_on_c, 0, 78, 0
1, 47970, Note_on_c, 0, 75, 0
1, 47972, Tempo, 472404
1, 48000, Note_on_c, 0, 60, 52
1, 48000, Note_on_c, 0, 63, 59
1, 48064, Tempo, 474083
1, 48090, Note_on_c, 0, 63, 0
1, 48090, Note_on_c, 0, 60, 0
1, 48120, Note_on_c, 0, 61, 46
1, 48120, Note_on_c, 0, 64, 53
1, 48160, Tempo, 475737
1, 48210, Note_on_c, 0, 64, 0
1, 48210, Note_on_c, 0, 61, 0
1, 48240, Tempo, 482587
1, 48240, Note_on_c, 0, 66, 62
1, 48240, Note_on_c, 0, 63, 54
1, 48280, Tempo, 484301
1, 48304, Tempo, 486066
1, 48330, Note_on_c, 0, 63, 0
1, 48330, Note_on_c, 0, 66, 0
1, 48332, Tempo, 487845
1, 48360, Note_on_c, 0, 64, 46
1, 48360, Note_on_c, 0, 68, 53
1, 48372, Tempo, 489636
1, 48400, Tempo, 491360
1, 48424, Tempo, 493178
1, 48450, Note_on_c, 0, 68, 0
1, 48450, Note_on_c, 0, 64, 0
1, 48452, Tempo, 495009
1, 48480, Note_on_c, 0, 63, 44
1, 48480, Note_on_c, 0, 66, 50
1, 48492, Tempo, 496853
1, 48520, Tempo, 498670
1, 48544, Tempo, 500542
1, 48570, Note_on_c, 0, 66, 0
1, 48570, Note_on_c, 0, 63, 0
1, 48572, Tempo, 502428
1, 48600, Tempo, 556586
1, 48600, Note_on_c, 0, 60, 62
1, 48600, Note_on_c, 0, 63, 69
1, 48960, Tempo, 508087
1, 48960, Note_on_c, 0, 63, 0
1, 48960, Note_on_c, 0, 60, 0
1, 48960, Note_on_c, 0, 54, 44
1, 48960, Note_on_c, 0, 62, 50
1, 48960, Note_on_c, 0, 66, 50
1, 48960, Note_on_c, 0, 57, 44
1, 49050, Note_on_c, 0, 57, 0
1, 49050, Note_on_c, 0, 54, 0
1, 49050, Note_on_c, 0, 62, 0
1, 49050, Note_on_c, 0, 66, 0
1, 49080, Note_on_c, 0, 69, 36
1, 49080, Note_on_c, 0, 74, 41
1, 49086, Control_c, 0, 64, 127
1, 49170, Note_on_c, 0, 74, 0
1, 49170, Note_on_c, 0, 69, 0
1, 49200, Tempo, 521875
1, 49200, Note_on_c, 0, 81, 36
1, 49200, Note_on_c, 0, 78, 36
1, 49290, Note_on_c, 0, 78, 0
1, 49290, Note_on_c, 0, 81, 0
1, 49314, Tempo, 484301
1, 49320, Note_on_c, 0, 86, 44
1, 49320, Note_on_c, 0, 90, 50
1, 49320, Control_c, 0, 64, 0
1, 49370, Tempo, 482587
1, 49410, Note_on_c, 0, 90, 0
1, 49410, Note_on_c, 0, 86, 0
1, 49422, Tempo, 480846
1, 49440, Note_on_c, 0, 77, 33
1, 49440, Note_on_c, 0, 73, 29
1, 49474, Tempo, 479118
1, 49530, Tempo, 477441
1, 49530, Note_on_c, 0, 73, 0
1, 49530, Note_on_c, 0, 77, 0
1, 49560, Note_on_c, 0, 74, 26
1, 49560, Note_on_c, 0, 78, 30
1, 49582, Tempo, 475737
1, 49634, Tempo, 474083
1, 49650, Note_on_c, 0, 78, 0
1, 49650, Note_on_c, 0, 74, 0
1, 49674, Tempo, 472404
1, 49680, Note_on_c, 0, 70, 36
1, 49680, Note_on_c, 0, 73, 41
1, 49770, Note_on_c, 0, 73, 0
1, 49770, Note_on_c, 0, 70, 0
1, 49800, Note_on_c, 0, 74, 35
1, 49800, Note_on_c, 0, 71, 31
1, 49890, Note_on_c, 0, 71, 0
1, 49890, Note_on_c, 0, 74, 0
1, 49920, Tempo, 489636
1, 49920, Note_on_c, 0, 73, 30
1, 49920, Note_on_c, 0, 77, 34
1, 50010, Note_on_c, 0, 77, 0
1, 50010, Note_on_c, 0, 73, 0
1, 50040, Tempo, 477631
1, 50040, Note_on_c, 0, 74, 43
1, 50040, Note_on_c, 0, 78, 43
1, 50130, Note_on_c, 0, 78, 0
1, 50160, Note_on_c, 0, 81, 41
1, 50250, Note_on_c, 0, 81, 0
1, 50280, Note_on_c, 0, 74, 0
1, 50280, Note_on_c, 0, 76, 37
1, 50280, Note_on_c, 0, 80, 37
1, 50370, Note_on_c, 0, 80, 0
1, 50370, Note_on_c, 0, 76, 0
1, 50400, Tempo, 501798
1, 50400, Note_on_c, 0, 63, 34
1, 50400, Note_on_c, 0, 68, 39
1, 50400, Note_on_c, 0, 56, 34
1, 50481, Control_c, 0, 64, 127
1, 50490, Note_on_c, 0, 56, 0
1, 50490, Note_on_c, 0, 68, 0
1, 50490, Note_on_c, 0, 63, 0
1, 50520, Note_on_c, 0, 72, 33
1, 50520, Note_on_c, 0, 75, 37
1, 50610, Note_on_c, 0, 75, 0
1, 50610, Note_on_c, 0, 72, 0
1, 50640, Tempo, 513875
1, 50640, Note_on_c, 0, 84, 34
1, 50640, Note_on_c, 0, 78, 30
1, 50730, Note_on_c, 0, 78, 0
1, 50730, Note_on_c, 0, 84, 0
1, 50760, Tempo, 470810
1, 50760, Note_on_c, 0, 90, 55
1, 50760, Note_on_c, 0, 87, 49
1, 50831, Control_c, 0, 64, 0
1, 50850, Note_on_c, 0, 87, 0
1, 50850, Note_on_c, 0, 90, 0
1, 50852, Tempo, 472404
1, 50880, Note_on_c, 0, 75, 36
1, 50880, Note_on_c, 0, 72, 32
1, 50944, Tempo, 474083
1, 50970, Note_on_c, 0, 72, 0
1, 50970, Note_on_c, 0, 75, 0
1, 51000, Note_on_c, 0, 73, 27
1, 51000, Note_on_c, 0, 76, 32
1, 51040, Tempo, 475737
1, 51090, Note_on_c, 0, 76, 0
1, 51090, Note_on_c, 0, 73, 0
1, 51120, Tempo, 482587
1, 51120, Note_on_c, 0, 78, 37
1, 51120, Note_on_c, 0, 75, 33
1, 51160, Tempo, 484301
1, 51184, Tempo, 486066
1, 51210, Note_on_c, 0, 75, 0
1, 51210, Note_on_c, 0, 78, 0
1, 51212, Tempo, 487845
1, 51240, Note_on_c, 0, 76, 27
1, 51240, Note_on_c, 0, 80, 32
1, 51252, Tempo, 489636
1, 51280, Tempo, 491360
1, 51304, Tempo, 493178
1, 51330, Note_on_c, 0, 80, 0
1, 51330, Note_on_c, 0, 76, 0
1, 51332, Tempo, 495009
1, 51360, Note_on_c, 0, 75, 26
1, 51360, Note_on_c, 0, 78, 30
1, 51372, Tempo, 496853
1, 51400, Tempo, 498670
1, 51424, Tempo, 500542
1, 51450, Note_on_c, 0, 78, 0
1, 51450, Note_on_c, 0, 75, 0
1, 51452, Tempo, 502428
1, 51480, Tempo, 583544
1, 51480, Note_on_c, 0, 75, 42
1, 51480, Note_on_c, 0, 72, 36
1, 51780, Note_on_c, 0, 72, 0
1, 51780, Note_on_c, 0, 75, 0
1, 51780, Note_on_c, 0, 42, 65
1, 51810, Note_on_c, 0, 50, 65
1, 51840, Tempo, 482664
1, 51840, Note_on_c, 0, 57, 74
1, 51920, Tempo, 481000
1, 51921, Control_c, 0, 64, 127
1, 51930, Note_on_c, 0, 57, 0
1, 51930, Note_on_c, 0, 50, 0
1, 51930, Note_on_c, 0, 42, 0
1, 51960, Note_on_c, 0, 62, 72
1, 51960, Note_on_c, 0, 57, 64
1, 51984, Tempo, 479272
1, 52020, Tempo, 535141
1, 52050, Note_on_c, 0, 57, 0
1, 52050, Note_on_c, 0, 62, 0
1, 52064, Tempo, 477593
1, 52080, Note_on_c, 0, 64, 67
1, 52080, Note_on_c, 0, 61, 61
1, 52100, Tempo, 477631
1, 52101, Control_c, 0, 64, 0
1, 52132, Tempo, 475926
1, 52140, Note_on_c, 0, 50, 64
1, 52170, Note_on_c, 0, 61, 0
1, 52170, Note_on_c, 0, 64, 0
1, 52170, Note_on_c, 0, 57, 64
1, 52200, Tempo, 474346
1, 52200, Note_on_c, 0, 62, 72
1, 52290, Note_on_c, 0, 62, 0
1, 52290, Note_on_c, 0, 57, 0
1, 52290, Note_on_c, 0, 50, 0
1, 52320, Note_on_c, 0, 66, 59
1, 52320, Note_on_c, 0, 62, 52
1, 52320, Control_c, 0, 64, 127
1, 52410, Note_on_c, 0, 62, 0
1, 52410, Note_on_c, 0, 66, 0
1, 52440, Note_on_c, 0, 64, 49
1, 52440, Note_on_c, 0, 68, 54
1, 52440, Control_c, 0, 64, 0
1, 52530, Note_on_c, 0, 68, 0
1, 52530, Note_on_c, 0, 64, 0
1, 52560, Tempo, 474346
1, 52560, Note_on_c, 0, 62, 59
1, 52560, Note_on_c, 0, 66, 65
1, 52650, Note_on_c, 0, 66, 0
1, 52650, Note_on_c, 0, 62, 0
1, 52680, Note_on_c, 0, 66, 50
1, 52680, Note_on_c, 0, 69, 56
1, 52684, Control_c, 0, 64, 127
1, 52770, Note_on_c, 0, 69, 0
1, 52770, Note_on_c, 0, 66, 0
1, 52800, Note_on_c, 0, 64, 49
1, 52800, Note_on_c, 0, 68, 54
1, 52874, Control_c, 0, 64, 0
1, 52890, Note_on_c, 0, 68, 0
1, 52890, Note_on_c, 0, 64, 0
1, 52920, Note_on_c, 0, 57, 49
1, 52920, Note_on_c, 0, 62, 55
1, 53010, Note_on_c, 0, 62, 0
1, 53010, Note_on_c, 0, 57, 0
1, 53040, Note_on_c, 0, 62, 59
1, 53040, Note_on_c, 0, 66, 65
1, 53065, Control_c, 0, 64, 127
1, 53130, Note_on_c, 0, 66, 0
1, 53130, Note_on_c, 0, 62, 0
1, 53160, Note_on_c, 0, 61, 54
1, 53160, Note_on_c, 0, 64, 62
1, 53181, Control_c, 0, 64, 0
1, 53220, Tempo, 528541
1, 53220, Note_on_c, 0, 44, 56
1, 53250, Note_on_c, 0, 64, 0
1, 53250, Note_on_c, 0, 61, 0
1, 53250, Note_on_c, 0, 51, 56
1, 53280, Tempo, 484340
1, 53280, Note_on_c, 0, 60, 63
1, 53370, Note_on_c, 0, 60, 0
1, 53370, Note_on_c, 0, 51, 0
1, 53370, Note_on_c, 0, 44, 0
1, 53400, Note_on_c, 0, 60, 57
1, 53400, Note_on_c, 0, 68, 63
1, 53418, Control_c, 0, 64, 127
1, 53460, Tempo, 535141
1, 53490, Note_on_c, 0, 68, 0
1, 53490, Note_on_c, 0, 60, 0
1, 53513, Control_c, 0, 64, 0
1, 53520, Tempo, 483014
1, 53520, Note_on_c, 0, 70, 61
1, 53520, Note_on_c, 0, 63, 53
1, 53580, Note_on_c, 0, 56, 54
1, 53610, Note_on_c, 0, 63, 0
1, 53610, Note_on_c, 0, 70, 0
1, 53610, Note_on_c, 0, 63, 54
1, 53640, Tempo, 488480
1, 53640, Note_on_c, 0, 68, 62
1, 53730, Note_on_c, 0, 68, 0
1, 53730, Note_on_c, 0, 63, 0
1, 53730, Note_on_c, 0, 56, 0
1, 53756, Control_c, 0, 64, 127
1, 53760, Note_on_c, 0, 72, 61
1, 53760, Note_on_c, 0, 68, 53
1, 53850, Note_on_c, 0, 68, 0
1, 53850, Note_on_c, 0, 72, 0
1, 53880, Note_on_c, 0, 70, 49
1, 53880, Note_on_c, 0, 73, 55
1, 53965, Control_c, 0, 64, 0
1, 53970, Note_on_c, 0, 73, 0
1, 53970, Note_on_c, 0, 70, 0
1, 54000, Tempo, 497925
1, 54000, Note_on_c, 0, 68, 62
1, 54000, Note_on_c, 0, 72, 69
1, 54060, Tempo, 499833
1, 54090, Note_on_c, 0, 72, 0
1, 54090, Note_on_c, 0, 68, 0
1, 54100, Tempo, 501798
1, 54120, Note_on_c, 0, 72, 64
1, 54120, Note_on_c, 0, 75, 72
1, 54140, Tempo, 503778
1, 54162, Control_c, 0, 64, 127
1, 54200, Tempo, 505732
1, 54210, Note_on_c, 0, 75, 0
1, 54210, Note_on_c, 0, 72, 0
1, 54240, Tempo, 507743
1, 54240, Note_on_c, 0, 73, 59
1, 54240, Note_on_c, 0, 76, 65
1, 54280, Tempo, 509727
1, 54304, Control_c, 0, 64, 0
1, 54320, Tempo, 511771
1, 54330, Note_on_c, 0, 76, 0
1, 54330, Note_on_c, 0, 73, 0
1, 54360, Tempo, 583544
1, 54360, Note_on_c, 0, 78, 72
1, 54360, Note_on_c, 0, 75, 64
1, 54438, Control_c, 0, 64, 127
1, 54551, Control_c, 0, 64, 0
1, 54660, Note_on_c, 0, 75, 0
1, 54660, Note_on_c, 0, 78, 0
1, 54660, Note_on_c, 0, 54, 49
1, 54690, Note_on_c, 0, 62, 49
1, 54720, Tempo, 482664
1, 54720, Note_on_c, 0, 69, 62
1, 54800, Tempo, 481000
1, 54810, Note_on_c, 0, 69, 0
1, 54810, Note_on_c, 0, 62, 0
1, 54810, Note_on_c, 0, 54, 0
1, 54840, Note_on_c, 0, 74, 59
1, 54840, Note_on_c, 0, 69, 52
1, 54847, Control_c, 0, 64, 127
1, 54864, Tempo, 479272
1, 54900, Tempo, 535141
1, 54930, Note_on_c, 0, 69, 0
1, 54930, Note_on_c, 0, 74, 0
1, 54944, Tempo, 477593
1, 54960, Note_on_c, 0, 76, 54
1, 54960, Note_on_c, 0, 73, 49
1, 54980, Tempo, 477631
1, 54995, Control_c, 0, 64, 0
1, 55012, Tempo, 475926
1, 55020, Note_on_c, 0, 62, 46
1, 55050, Note_on_c, 0, 73, 0
1, 55050, Note_on_c, 0, 76, 0
1, 55050, Note_on_c, 0, 69, 46
1, 55080, Tempo, 474346
1, 55080, Note_on_c, 0, 74, 59
1, 55170, Note_on_c, 0, 74, 0
1, 55170, Note_on_c, 0, 69, 0
1, 55170, Note_on_c, 0, 62, 0
1, 55200, Note_on_c, 0, 78, 46
1, 55200, Note_on_c, 0, 74, 42
1, 55239, Control_c, 0, 64, 127
1, 55290, Note_on_c, 0, 74, 0
1, 55290, Note_on_c, 0, 78, 0
1, 55320, Note_on_c, 0, 76, 40
1, 55320, Note_on_c, 0, 80, 44
1, 55410, Note_on_c, 0, 80, 0
1, 55410, Note_on_c, 0, 76, 0
1, 55415, Control_c, 0, 64, 0
1, 55440, Tempo, 474346
1, 55440, Note_on_c, 0, 74, 47
1, 55440, Note_on_c, 0, 78, 53
1, 55530, Note_on_c, 0, 78, 0
1, 55530, Note_on_c, 0, 74, 0
1, 55560, Note_on_c, 0, 78, 41
1, 55560, Note_on_c, 0, 81, 45
1, 55592, Control_c, 0, 64, 127
1, 55650, Note_on_c, 0, 81, 0
1, 55650, Note_on_c, 0, 78, 0
1, 55680, Note_on_c, 0, 76, 40
1, 55680, Note_on_c, 0, 80, 44
1, 55754, Control_c, 0, 64, 0
1, 55770, Note_on_c, 0, 80, 0
1, 55770, Note_on_c, 0, 76, 0
1, 55800, Note_on_c, 0, 74, 44
1, 55800, Note_on_c, 0, 69, 40
1, 55890, Note_on_c, 0, 69, 0
1, 55890, Note_on_c, 0, 74, 0
1, 55920, Note_on_c, 0, 78, 53
1, 55920, Note_on_c, 0, 74, 47
1, 55945, Control_c, 0, 64, 127
1, 56010, Note_on_c, 0, 74, 0
1, 56010, Note_on_c, 0, 78, 0
1, 56040, Note_on_c, 0, 73, 44
1, 56040, Note_on_c, 0, 76, 50
1, 56072, Control_c, 0, 64, 0
1, 56100, Tempo, 528541
1, 56100, Note_on_c, 0, 56, 41
1, 56130, Note_on_c, 0, 76, 0
1, 56130, Note_on_c, 0, 73, 0
1, 56130, Note_on_c, 0, 63, 42
1, 56160, Tempo, 484340
1, 56160, Note_on_c, 0, 72, 52
1, 56250, Note_on_c, 0, 72, 0
1, 56250, Note_on_c, 0, 63, 0
1, 56250, Note_on_c, 0, 56, 0
1, 56280, Note_on_c, 0, 72, 46
1, 56280, Note_on_c, 0, 80, 53
1, 56308, Control_c, 0, 64, 127
1, 56340, Tempo, 535141
1, 56370, Note_on_c, 0, 80, 0
1, 56370, Note_on_c, 0, 72, 0
1, 56400, Tempo, 483014
1, 56400, Note_on_c, 0, 82, 47
1, 56400, Note_on_c, 0, 75, 43
1, 56439, Control_c, 0, 64, 0
1, 56460, Note_on_c, 0, 68, 41
1, 56490, Note_on_c, 0, 75, 0
1, 56490, Note_on_c, 0, 82, 0
1, 56490, Note_on_c, 0, 75, 41
1, 56520, Tempo, 488480
1, 56520, Note_on_c, 0, 80, 50
1, 56610, Note_on_c, 0, 80, 0
1, 56610, Note_on_c, 0, 75, 0
1, 56610, Note_on_c, 0, 68, 0
1, 56640, Note_on_c, 0, 84, 47
1, 56640, Note_on_c, 0, 80, 43
1, 56661, Control_c, 0, 64, 127
1, 56730, Note_on_c, 0, 80, 0
1, 56730, Note_on_c, 0, 84, 0
1, 56760, Note_on_c, 0, 85, 44
1, 56760, Note_on_c, 0, 82, 40
1, 56848, Control_c, 0, 64, 0
1, 56850, Note_on_c, 0, 82, 0
1, 56850, Note_on_c, 0, 85, 0
1, 56880, Tempo, 497925
1, 56880, Note_on_c, 0, 84, 55
1, 56880, Note_on_c, 0, 80, 49
1, 56940, Tempo, 499833
1, 56970, Note_on_c, 0, 80, 0
1, 56970, Note_on_c, 0, 84, 0
1, 56980, Tempo, 501798
1, 57000, Note_on_c, 0, 84, 52
1, 57000, Note_on_c, 0, 87, 59
1, 57020, Tempo, 503778
1, 57046, Control_c, 0, 64, 127
1, 57080, Tempo, 505732
1, 57090, Note_on_c, 0, 87, 0
1, 57090, Note_on_c, 0, 84, 0
1, 57120, Tempo, 507743
1, 57120, Note_on_c, 0, 85, 47
1, 57120, Note_on_c, 0, 88, 53
1, 57160, Tempo, 509727
1, 57191, Control_c, 0, 64, 0
1, 57200, Tempo, 511771
1, 57210, Note_on_c, 0, 88, 0
1, 57210, Note_on_c, 0, 85, 0
1, 57240, Tempo, 548346
1, 57240, Note_on_c, 0, 90, 59
1, 57240, Note_on_c, 0, 87, 52
1, 57321, Control_c, 0, 64, 127
1, 57480, Tempo, 644884
1, 57522, Control_c, 0, 64, 0
1, 57540, Note_on_c, 0, 87, 0
1, 57540, Note_on_c, 0, 90, 0
1, 57540, Note_on_c, 0, 66, 37
1, 57570, Note_on_c, 0, 74, 39
1, 57600, Tempo, 482664
1, 57600, Note_on_c, 0, 81, 47
1, 57680, Tempo, 481000
1, 57690, Note_on_c, 0, 81, 0
1, 57690, Note_on_c, 0, 74, 0
1, 57690, Note_on_c, 0, 66, 0
1, 57720, Note_on_c, 0, 81, 43
1, 57720, Note_on_c, 0, 86, 47
1, 57727, Control_c, 0, 64, 127
1, 57744, Tempo, 479272
1, 57780, Tempo, 535141
1, 57810, Note_on_c, 0, 86, 0
1, 57810, Note_on_c, 0, 81, 0
1, 57824, Tempo, 477593
1, 57840, Note_on_c, 0, 85, 40
1, 57840, Note_on_c, 0, 88, 44
1, 57860, Tempo, 477631
1, 57875, Control_c, 0, 64, 0
1, 57892, Tempo, 475926
1, 57900, Note_on_c, 0, 74, 37
1, 57930, Note_on_c, 0, 88, 0
1, 57930, Note_on_c, 0, 85, 0
1, 57930, Note_on_c, 0, 81, 37
1, 57960, Tempo, 474346
1, 57960, Note_on_c, 0, 86, 46
1, 58050, Note_on_c, 0, 86, 0
1, 58050, Note_on_c, 0, 81, 0
1, 58050, Note_on_c, 0, 74, 0
1, 58080, Note_on_c, 0, 90, 42
1, 58080, Note_on_c, 0, 86, 36
1, 58119, Control_c, 0, 64, 127
1, 58170, Note_on_c, 0, 86, 0
1, 58170, Note_on_c, 0, 90, 0
1, 58200, Note_on_c, 0, 88, 35
1, 58200, Note_on_c, 0, 92, 40
1, 58290, Note_on_c, 0, 92, 0
1, 58290, Note_on_c, 0, 88, 0
1, 58295, Control_c, 0, 64, 0
1, 58320, Tempo, 474346
1, 58320, Note_on_c, 0, 90, 46
1, 58320, Note_on_c, 0, 86, 42
1, 58410, Note_on_c, 0, 86, 0
1, 58410, Note_on_c, 0, 90, 0
1, 58440, Note_on_c, 0, 90, 36
1, 58440, Note_on_c, 0, 93, 41
1, 58472, Control_c, 0, 64, 127
1, 58560, Note_on_c, 0, 93, 0
1, 58560, Note_on_c, 0, 90, 0
1, 58560, Note_on_c, 0, 88, 35
1, 58560, Note_on_c, 0, 92, 40
1, 58634, Control_c, 0, 64, 0
1, 58654, Tempo, 472367
1, 58680, Note_on_c, 0, 92, 0
1, 58680, Note_on_c, 0, 88, 0
1, 58680, Note_on_c, 0, 86, 35
1, 58680, Note_on_c, 0, 90, 40
1, 58710, Tempo, 474121
1, 58762, Tempo, 475888
1, 58800, Note_on_c, 0, 90, 0
1, 58800, Note_on_c, 0, 86, 0
1, 58800, Note_on_c, 0, 88, 45
1, 58800, Note_on_c, 0, 85, 41
1, 58814, Tempo, 477631
1, 58825, Control_c, 0, 64, 127
1, 58870, Tempo, 479425
1, 58920, Note_on_c, 0, 85, 0
1, 58920, Note_on_c, 0, 88, 0
1, 58920, Note_on_c, 0, 83, 36
1, 58920, Note_on_c, 0, 86, 42
1, 58922, Tempo, 481193
1, 58952, Control_c, 0, 64, 0
1, 58974, Tempo, 483014
1, 59014, Tempo, 483014
1, 59040, Note_on_c, 0, 79, 52
1, 59040, Note_on_c, 0, 76, 45
1, 59050, Control_c, 0, 64, 127
1, 59094, Tempo, 481193
1, 59160, Note_on_c, 0, 86, 0
1, 59160, Note_on_c, 0, 83, 0
1, 59160, Note_on_c, 0, 82, 44
1, 59160, Note_on_c, 0, 85, 49
1, 59174, Tempo, 479425
1, 59220, Note_on_c, 0, 79, 0
1, 59220, Note_on_c, 0, 76, 0
1, 59220, Note_on_c, 0, 80, 52
1, 59220, Note_on_c, 0, 77, 45
1, 59254, Tempo, 477631
1, 59280, Note_on_c, 0, 82, 0
1, 59280, Note_on_c, 0, 85, 0
1, 59280, Note_on_c, 0, 86, 50
1, 59280, Note_on_c, 0, 83, 44
1, 59322, Tempo, 475888
1, 59400, Note_on_c, 0, 80, 0
1, 59400, Note_on_c, 0, 77, 0
1, 59400, Note_on_c, 0, 81, 53
1, 59400, Note_on_c, 0, 78, 46
1, 59402, Tempo, 474121
1, 59482, Tempo, 472367
1, 59520, Note_on_c, 0, 86, 0
1, 59520, Note_on_c, 0, 83, 0
1, 59520, Note_on_c, 0, 87, 51
1, 59520, Note_on_c, 0, 84, 45
1, 59562, Tempo, 470662
1, 59580, Note_on_c, 0, 81, 0
1, 59580, Note_on_c, 0, 78, 0
1, 59580, Note_on_c, 0, 82, 54
1, 59580, Note_on_c, 0, 79, 49
1, 59630, Tempo, 468933
1, 59640, Note_on_c, 0, 87, 0
1, 59640, Note_on_c, 0, 84, 0
1, 59640, Note_on_c, 0, 88, 52
1, 59640, Note_on_c, 0, 85, 45
1, 59760, Note_on_c, 0, 82, 0
1, 59760, Note_on_c, 0, 79, 0
1, 59760, Note_on_c, 0, 80, 49
1, 59760, Note_on_c, 0, 83, 54
1, 59880, Note_on_c, 0, 88, 0
1, 59880, Note_on_c, 0, 85, 0
1, 59880, Note_on_c, 0, 89, 53
1, 59880, Note_on_c, 0, 86, 46
1, 59940, Note_on_c, 0, 80, 0
1, 59940, Note_on_c, 0, 83, 0
1, 59940, Note_on_c, 0, 84, 55
1, 59940, Note_on_c, 0, 81, 49
1, 60000, Note_on_c, 0, 89, 0
1, 60000, Note_on_c, 0, 86, 0
1, 60000, Note_on_c, 0, 87, 47
1, 60000, Note_on_c, 0, 90, 53
1, 60120, Note_on_c, 0, 84, 0
1, 60120, Note_on_c, 0, 81, 0
1, 60120, Note_on_c, 0, 82, 50
1, 60120, Note_on_c, 0, 85, 56
1, 60240, Note_on_c, 0, 87, 0
1, 60240, Note_on_c, 0, 90, 0
1, 60240, Note_on_c, 0, 91, 55
1, 60240, Note_on_c, 0, 88, 49
1, 60300, Note_on_c, 0, 82, 0
1, 60300, Note_on_c, 0, 85, 0
1, 60300, Note_on_c, 0, 83, 51
1, 60300, Note_on_c, 0, 86, 57
1, 60360, Note_on_c, 0, 91, 0
1, 60360, Note_on_c, 0, 88, 0
1, 60360, Note_on_c, 0, 92, 56
1, 60360, Note_on_c, 0, 89, 50
1, 60480, Note_on_c, 0, 83, 0
1, 60480, Note_on_c, 0, 86, 0
1, 60480, Note_on_c, 0, 84, 51
1, 60480, Note_on_c, 0, 87, 57
1, 60590, Tempo, 467253
1, 60600, Note_on_c, 0, 92, 0
1, 60600, Note_on_c, 0, 89, 0
1, 60600, Note_on_c, 0, 93, 57
1, 60600, Note_on_c, 0, 90, 51
1, 60660, Note_on_c, 0, 84, 0
1, 60660, Note_on_c, 0, 87, 0
1, 60660, Note_on_c, 0, 85, 52
1, 60660, Note_on_c, 0, 88, 59
1, 60710, Tempo, 468933
1, 60720, Note_on_c, 0, 93, 0
1, 60720, Note_on_c, 0, 90, 0
1, 60720, Note_on_c, 0, 94, 59
1, 60720, Note_on_c, 0, 91, 52
1, 60814, Tempo, 467253
1, 60840, Note_on_c, 0, 85, 0
1, 60840, Note_on_c, 0, 88, 0
1, 60840, Note_on_c, 0, 86, 53
1, 60840, Note_on_c, 0, 89, 61
1, 60854, Tempo, 468933
1, 60882, Tempo, 470662
1, 60910, Tempo, 472367
1, 60950, Tempo, 474121
1, 60960, Note_on_c, 0, 94, 0
1, 60960, Note_on_c, 0, 91, 0
1, 60960, Note_on_c, 0, 95, 60
1, 60960, Note_on_c, 0, 92, 53
1, 60974, Tempo, 475888
1, 61002, Tempo, 477631
1, 61020, Note_on_c, 0, 86, 0
1, 61020, Note_on_c, 0, 89, 0
1, 61020, Note_on_c, 0, 87, 54
1, 61020, Note_on_c, 0, 90, 62
1, 61042, Tempo, 479425
1, 61070, Tempo, 481193
1, 61080, Note_on_c, 0, 95, 0
1, 61080, Note_on_c, 0, 92, 0
1, 61080, Note_on_c, 0, 96, 61
1, 61080, Note_on_c, 0, 93, 53
1, 61094, Tempo, 483014
1, 61122, Tempo, 484809
1, 61162, Tempo, 486657
1, 61190, Tempo, 488480
1, 61200, Note_on_c, 0, 93, 0
1, 61200, Note_on_c, 0, 90, 0
1, 61200, Note_on_c, 0, 87, 0
1, 61200, Note_on_c, 0, 96, 0
1, 61200, Note_on_c, 0, 94, 54
1, 61200, Note_on_c, 0, 97, 62
1, 61200, Note_on_c, 0, 91, 62
1, 61200, Note_on_c, 0, 88, 54
1, 61214, Tempo, 490356
1, 61254, Tempo, 492207
1, 61282, Tempo, 494112
1, 61310, Tempo, 495991
1, 61320, Note_on_c, 0, 88, 0
1, 61320, Note_on_c, 0, 94, 0
1, 61320, Note_on_c, 0, 97, 0
1, 61320, Note_on_c, 0, 91, 0
1, 61320, Note_on_c, 0, 98, 62
1, 61320, Note_on_c, 0, 95, 55
1, 61320, Note_on_c, 0, 89, 55
1, 61320, Note_on_c, 0, 92, 62
1, 61334, Tempo, 497925
1, 61374, Tempo, 499833
1, 61402, Tempo, 501798
1, 61430, Tempo, 503778
1, 61440, Note_on_c, 0, 92, 0
1, 61440, Note_on_c, 0, 98, 0
1, 61440, Note_on_c, 0, 95, 0
1, 61440, Note_on_c, 0, 89, 0
1, 61440, Note_on_c, 0, 99, 62
1, 61440, Note_on_c, 0, 96, 55
1, 61440, Note_on_c, 0, 93, 62
1, 61440, Note_on_c, 0, 90, 55
1, 61470, Tempo, 505732
1, 61494, Tempo, 507743
1, 61522, Tempo, 509727
1, 61550, Tempo, 511771
1, 61560, Note_on_c, 0, 90, 0
1, 61560, Note_on_c, 0, 99, 0
1, 61560, Note_on_c, 0, 96, 0
1, 61560, Note_on_c, 0, 93, 0
1, 61560, Note_on_c, 0, 100, 73
1, 61560, Note_on_c, 0, 97, 65
1, 61560, Note_on_c, 0, 91, 77
1, 61560, Note_on_c, 0, 94, 77
1, 61575, Control_c, 0, 64, 0
1, 61604, Control_c, 0, 64, 127
1, 61761, Control_c, 0, 64, 0
1, 61800, Note_on_c, 0, 94, 0
1, 61800, Note_on_c, 0, 100, 0
1, 61800, Note_on_c, 0, 97, 0
1, 61800, Note_on_c, 0, 91, 0
1, 61802, Tempo, 466056
1, 63360, Key_signature, -5, "major"
1, 63360, Tempo, 577201
1, 63360, Note_on_c, 0, 60, 45
1, 63360, Control_c, 0, 64, 127
1, 63360, Note_on_c, 0, 42, 40
1, 63480, Note_on_c, 0, 42, 0
1, 63480, Note_on_c, 0, 44, 31
1, 63600, Note_on_c, 0, 44, 0
1, 63600, Note_on_c, 0, 60, 0
1, 63600, Note_on_c, 0, 60, 42
1, 63600, Note_on_c, 0, 56, 36
1, 63720, Note_on_c, 0, 60, 0
1, 63720, Note_on_c, 0, 58, 45
1, 63720, Control_c, 0, 64, 0
1, 63769, Control_c, 0, 64, 127
1, 63840, Note_on_c, 0, 56, 0
1, 63840, Note_on_c, 0, 44, 32
1, 63960, Tempo, 595888
1, 63960, Note_on_c, 0, 44, 0
1, 63960, Note_on_c, 0, 58, 0
1, 63960, Note_on_c, 0, 60, 42
1, 63960, Note_on_c, 0, 42, 36
1, 64080, Tempo, 564493
1, 64080, Note_on_c, 0, 60, 0
1, 64080, Note_on_c, 0, 61, 47
1, 64108, Control_c, 0, 64, 0
1, 64165, Control_c, 0, 64, 127
1, 64200, Note_on_c, 0, 42, 0
1, 64200, Note_on_c, 0, 44, 30
1, 64320, Note_on_c, 0, 44, 0
1, 64320, Note_on_c, 0, 61, 0
1, 64320, Note_on_c, 0, 63, 44
1, 64320, Note_on_c, 0, 56, 36
1, 64440, Note_on_c, 0, 63, 0
1, 64440, Note_on_c, 0, 60, 47
1, 64560, Note_on_c, 0, 56, 0
1, 64560, Note_on_c, 0, 44, 33
1, 64680, Tempo, 582411
1, 64680, Note_on_c, 0, 44, 0
1, 64680, Note_on_c, 0, 60, 0
1, 64680, Note_on_c, 0, 61, 44
1, 64680, Note_on_c, 0, 42, 33
1, 64800, Tempo, 569530
1, 64800, Note_on_c, 0, 61, 0
1, 64800, Note_on_c, 0, 58, 45
1, 64800, Control_c, 0, 64, 0
1, 64851, Control_c, 0, 64, 127
1, 64920, Note_on_c, 0, 42, 0
1, 64920, Note_on_c, 0, 44, 36
1, 65040, Tempo, 615890
1, 65040, Note_on_c, 0, 44, 0
1, 65040, Note_on_c, 0, 58, 0
1, 65040, Note_on_c, 0, 56, 43
1, 65160, Tempo, 559597
1, 65160, Note_on_c, 0, 61, 47
1, 65280, Note_on_c, 0, 56, 0
1, 65280, Note_on_c, 0, 44, 36
1, 65400, Note_on_c, 0, 44, 0
1, 65400, Note_on_c, 0, 61, 0
1, 65400, Note_on_c, 0, 60, 44
1, 65400, Note_on_c, 0, 41, 32
1, 65520, Tempo, 656599
1, 65520, Note_on_c, 0, 60, 0
1, 65520, Note_on_c, 0, 56, 47
1, 65520, Note_on_c, 0, 58, 47
1, 65526, Control_c, 0, 64, 0
1, 65600, Control_c, 0, 64, 127
1, 65640, Tempo, 587717
1, 65640, Note_on_c, 0, 41, 0
1, 65640, Note_on_c, 0, 44, 36
1, 65760, Note_on_c, 0, 44, 0
1, 65760, Note_on_c, 0, 58, 0
1, 65760, Note_on_c, 0, 60, 44
1, 65760, Note_on_c, 0, 56, 31
1, 65880, Tempo, 601504
1, 65880, Note_on_c, 0, 60, 0
1, 65880, Note_on_c, 0, 56, 0
1, 65880, Note_on_c, 0, 55, 47
1, 65880, Note_on_c, 0, 61, 47
1, 66000, Note_on_c, 0, 56, 0
1, 66000, Note_on_c, 0, 44, 36
1, 66120, Tempo, 637213
1, 66120, Note_on_c, 0, 44, 0
1, 66120, Note_on_c, 0, 61, 0
1, 66120, Note_on_c, 0, 61, 45
1, 66120, Note_on_c, 0, 40, 36
1, 66240, Tempo, 579766
1, 66240, Note_on_c, 0, 40, 0
1, 66240, Note_on_c, 0, 61, 0
1, 66240, Note_on_c, 0, 55, 0
1, 66240, Note_on_c, 0, 54, 47
1, 66240, Note_on_c, 0, 60, 45
1, 66240, Note_on_c, 0, 39, 40
1, 66246, Control_c, 0, 64, 0
1, 66360, Note_on_c, 0, 39, 0
1, 66360, Control_c, 0, 64, 127
1, 66360, Note_on_c, 0, 44, 31
1, 66480, Note_on_c, 0, 44, 0
1, 66480, Note_on_c, 0, 60, 0
1, 66480, Note_on_c, 0, 60, 42
1, 66480, Note_on_c, 0, 56, 36
1, 66600, Note_on_c, 0, 60, 0
1, 66600, Note_on_c, 0, 58, 45
1, 66600, Control_c, 0, 64, 0
1, 66649, Control_c, 0, 64, 127
1, 66720, Note_on_c, 0, 56, 0
1, 66720, Note_on_c, 0, 44, 32
1, 66840, Tempo, 595888
1, 66840, Note_on_c, 0, 44, 0
1, 66840, Note_on_c, 0, 58, 0
1, 66840, Note_on_c, 0, 60, 42
1, 66840, Note_on_c, 0, 39, 36
1, 66960, Tempo, 572028
1, 66960, Note_on_c, 0, 60, 0
1, 66960, Note_on_c, 0, 54, 0
1, 66960, Note_on_c, 0, 54, 36
1, 66960, Note_on_c, 0, 61, 47
1, 66988, Control_c, 0, 64, 0
1, 67045, Control_c, 0, 64, 127
1, 67080, Note_on_c, 0, 39, 0
1, 67080, Note_on_c, 0, 44, 30
1, 67200, Note_on_c, 0, 44, 0
1, 67200, Note_on_c, 0, 61, 0
1, 67200, Note_on_c, 0, 54, 0
1, 67200, Note_on_c, 0, 63, 44
1, 67200, Note_on_c, 0, 56, 36
1, 67320, Tempo, 590435
1, 67320, Note_on_c, 0, 63, 0
1, 67320, Note_on_c, 0, 54, 36
1, 67320, Note_on_c, 0, 60, 47
1, 67440, Note_on_c, 0, 56, 0
1, 67440, Note_on_c, 0, 44, 33
1, 67560, Tempo, 610066
1, 67560, Note_on_c, 0, 44, 0
1, 67560, Note_on_c, 0, 60, 0
1, 67560, Note_on_c, 0, 54, 0
1, 67560, Note_on_c, 0, 61, 44
1, 67560, Note_on_c, 0, 39, 33
1, 67680, Tempo, 574603
1, 67680, Note_on_c, 0, 39, 0
1, 67680, Note_on_c, 0, 61, 0
1, 67680, Note_on_c, 0, 53, 47
1, 67680, Note_on_c, 0, 58, 47
1, 67680, Note_on_c, 0, 37, 41
1, 67680, Control_c, 0, 64, 0
1, 67731, Control_c, 0, 64, 127
1, 67800, Note_on_c, 0, 37, 0
1, 67800, Note_on_c, 0, 44, 36
1, 67920, Tempo, 615890
1, 67920, Note_on_c, 0, 44, 0
1, 67920, Note_on_c, 0, 58, 0
1, 67920, Note_on_c, 0, 56, 43
1, 68040, Tempo, 574603
1, 68040, Note_on_c, 0, 61, 47
1, 68047, Control_c, 0, 64, 0
1, 68069, Control_c, 0, 64, 127
1, 68160, Note_on_c, 0, 56, 0
1, 68160, Note_on_c, 0, 57, 36
1, 68280, Note_on_c, 0, 57, 0
1, 68280, Note_on_c, 0, 61, 0
1, 68280, Note_on_c, 0, 60, 44
1, 68280, Note_on_c, 0, 45, 32
1, 68400, Tempo, 656599
1, 68400, Note_on_c, 0, 45, 0
1, 68400, Note_on_c, 0, 60, 0
1, 68400, Note_on_c, 0, 53, 0
1, 68400, Note_on_c, 0, 53, 47
1, 68400, Note_on_c, 0, 58, 47
1, 68400, Note_on_c, 0, 37, 41
1, 68417, Control_c, 0, 64, 0
1, 68492, Control_c, 0, 64, 127
1, 68520, Tempo, 598683
1, 68520, Note_on_c, 0, 37, 0
1, 68520, Note_on_c, 0, 46, 36
1, 68640, Note_on_c, 0, 46, 0
1, 68640, Note_on_c, 0, 58, 0
1, 68640, Note_on_c, 0, 60, 44
1, 68640, Note_on_c, 0, 58, 31
1, 68760, Tempo, 624870
1, 68760, Note_on_c, 0, 60, 0
1, 68760, Note_on_c, 0, 53, 0
1, 68760, Note_on_c, 0, 53, 47
1, 68760, Note_on_c, 0, 61, 47
1, 68880, Note_on_c, 0, 58, 0
1, 68880, Note_on_c, 0, 46, 36
1, 69000, Tempo, 691962
1, 69000, Note_on_c, 0, 46, 0
1, 69000, Note_on_c, 0, 61, 0
1, 69000, Note_on_c, 0, 63, 45
1, 69000, Note_on_c, 0, 37, 36
1, 69120, Tempo, 590435
1, 69120, Note_on_c, 0, 63, 0
1, 69120, Note_on_c, 0, 53, 0
1, 69120, Note_on_c, 0, 59, 50
1, 69120, Note_on_c, 0, 65, 50
1, 69125, Control_c, 0, 64, 0
1, 69195, Control_c, 0, 64, 127
1, 69240, Note_on_c, 0, 37, 0
1, 69240, Note_on_c, 0, 49, 34
1, 69360, Note_on_c, 0, 49, 0
1, 69360, Note_on_c, 0, 65, 0
1, 69360, Note_on_c, 0, 65, 45
1, 69360, Note_on_c, 0, 61, 40
1, 69480, Note_on_c, 0, 65, 0
1, 69480, Note_on_c, 0, 63, 50
1, 69480, Control_c, 0, 64, 0
1, 69529, Control_c, 0, 64, 127
1, 69600, Note_on_c, 0, 61, 0
1, 69600, Note_on_c, 0, 49, 35
1, 69720, Tempo, 595888
1, 69720, Note_on_c, 0, 49, 0
1, 69720, Note_on_c, 0, 63, 0
1, 69720, Note_on_c, 0, 65, 45
1, 69720, Note_on_c, 0, 47, 40
1, 69840, Tempo, 572028
1, 69840, Note_on_c, 0, 65, 0
1, 69840, Note_on_c, 0, 59, 0
1, 69840, Note_on_c, 0, 56, 50
1, 69840, Note_on_c, 0, 66, 53
1, 69858, Control_c, 0, 64, 0
1, 69925, Control_c, 0, 64, 127
1, 69960, Note_on_c, 0, 47, 0
1, 69960, Note_on_c, 0, 49, 33
1, 70080, Note_on_c, 0, 49, 0
1, 70080, Note_on_c, 0, 66, 0
1, 70080, Note_on_c, 0, 68, 46
1, 70080, Note_on_c, 0, 59, 40
1, 70200, Note_on_c, 0, 68, 0
1, 70200, Note_on_c, 0, 65, 53
1, 70320, Note_on_c, 0, 59, 0
1, 70320, Note_on_c, 0, 49, 36
1, 70440, Tempo, 582411
1, 70440, Note_on_c, 0, 49, 0
1, 70440, Note_on_c, 0, 65, 0
1, 70440, Note_on_c, 0, 66, 47
1, 70440, Note_on_c, 0, 47, 36
1, 70560, Tempo, 569530
1, 70560, Note_on_c, 0, 47, 0
1, 70560, Note_on_c, 0, 66, 0
1, 70560, Note_on_c, 0, 56, 0
1, 70560, Note_on_c, 0, 54, 50
1, 70560, Note_on_c, 0, 63, 50
1, 70560, Note_on_c, 0, 46, 41
1, 70560, Control_c, 0, 64, 0
1, 70611, Control_c, 0, 64, 127
1, 70680, Note_on_c, 0, 46, 0
1, 70680, Note_on_c, 0, 49, 40
1, 70800, Tempo, 615890
1, 70800, Note_on_c, 0, 49, 0
1, 70800, Note_on_c, 0, 63, 0
1, 70800, Note_on_c, 0, 61, 45
1, 70800, Note_on_c, 0, 58, 35
1, 70920, Tempo, 567001
1, 70920, Note_on_c, 0, 61, 0
1, 70920, Note_on_c, 0, 66, 53
1, 71040, Note_on_c, 0, 58, 0
1, 71040, Note_on_c, 0, 50, 40
1, 71160, Note_on_c, 0, 50, 0
1, 71160, Note_on_c, 0, 66, 0
1, 71160, Note_on_c, 0, 65, 47
1, 71160, Note_on_c, 0, 46, 35
1, 71280, Tempo, 656599
1, 71280, Note_on_c, 0, 65, 0
1, 71280, Note_on_c, 0, 54, 0
1, 71280, Note_on_c, 0, 54, 53
1, 71280, Note_on_c, 0, 63, 53
1, 71286, Control_c, 0, 64, 0
1, 71337, Control_c, 0, 64, 127
1, 71400, Tempo, 587717
1, 71400, Note_on_c, 0, 46, 0
1, 71400, Note_on_c, 0, 51, 40
1, 71520, Note_on_c, 0, 51, 0
1, 71520, Note_on_c, 0, 63, 0
1, 71520, Note_on_c, 0, 65, 47
1, 71520, Note_on_c, 0, 58, 34
1, 71640, Tempo, 598683
1, 71640, Note_on_c, 0, 65, 0
1, 71640, Note_on_c, 0, 54, 0
1, 71640, Note_on_c, 0, 63, 53
1, 71640, Note_on_c, 0, 66, 53
1, 71760, Note_on_c, 0, 58, 0
1, 71760, Note_on_c, 0, 51, 40
1, 71880, Tempo, 637213
1, 71880, Note_on_c, 0, 51, 0
1, 71880, Note_on_c, 0, 66, 0
1, 71880, Note_on_c, 0, 66, 50
1, 71880, Note_on_c, 0, 46, 40
1, 72000, Tempo, 577201
1, 72000, Note_on_c, 0, 66, 0
1, 72000, Note_on_c, 0, 63, 0
1, 72000, Note_on_c, 0, 61, 54
1, 72000, Note_on_c, 0, 67, 54
1, 72008, Control_c, 0, 64, 0
1, 72120, Note_on_c, 0, 46, 0
1, 72120, Control_c, 0, 64, 127
1, 72120, Note_on_c, 0, 52, 36
1, 72240, Note_on_c, 0, 52, 0
1, 72240, Note_on_c, 0, 67, 0
1, 72240, Note_on_c, 0, 67, 50
1, 72240, Note_on_c, 0, 58, 44
1, 72360, Note_on_c, 0, 67, 0
1, 72360, Note_on_c, 0, 65, 54
1, 72480, Note_on_c, 0, 58, 0
1, 72480, Note_on_c, 0, 52, 37
1, 72600, Tempo, 595888
1, 72600, Note_on_c, 0, 52, 0
1, 72600, Note_on_c, 0, 65, 0
1, 72600, Note_on_c, 0, 67, 50
1, 72600, Note_on_c, 0, 46, 44
1, 72720, Tempo, 564493
1, 72720, Note_on_c, 0, 67, 0
1, 72720, Note_on_c, 0, 61, 0
1, 72720, Note_on_c, 0, 61, 54
1, 72720, Note_on_c, 0, 68, 57
1, 72738, Control_c, 0, 64, 0
1, 72805, Control_c, 0, 64, 127
1, 72840, Note_on_c, 0, 46, 0
1, 72840, Note_on_c, 0, 52, 36
1, 72960, Note_on_c, 0, 52, 0
1, 72960, Note_on_c, 0, 68, 0
1, 72960, Note_on_c, 0, 70, 52
1, 72960, Note_on_c, 0, 58, 44
1, 73080, Note_on_c, 0, 70, 0
1, 73080, Note_on_c, 0, 67, 57
1, 73200, Note_on_c, 0, 58, 0
1, 73200, Note_on_c, 0, 52, 40
1, 73320, Tempo, 582411
1, 73320, Note_on_c, 0, 52, 0
1, 73320, Note_on_c, 0, 67, 0
1, 73320, Note_on_c, 0, 68, 53
1, 73320, Note_on_c, 0, 46, 40
1, 73440, Tempo, 569530
1, 73440, Note_on_c, 0, 68, 0
1, 73440, Note_on_c, 0, 61, 0
1, 73440, Note_on_c, 0, 61, 54
1, 73440, Note_on_c, 0, 65, 54
1, 73440, Control_c, 0, 64, 0
1, 73491, Control_c, 0, 64, 127
1, 73560, Note_on_c, 0, 46, 0
1, 73560, Note_on_c, 0, 53, 44
1, 73680, Tempo, 615890
1, 73680, Note_on_c, 0, 53, 0
1, 73680, Note_on_c, 0, 65, 0
1, 73680, Note_on_c, 0, 64, 52
1, 73680, Note_on_c, 0, 58, 37
1, 73800, Tempo, 559597
1, 73800, Note_on_c, 0, 64, 0
1, 73800, Note_on_c, 0, 68, 59
1, 73820, Control_c, 0, 64, 0
1, 73860, Control_c, 0, 64, 127
1, 73920, Note_on_c, 0, 58, 0
1, 73920, Note_on_c, 0, 53, 44
1, 74040, Note_on_c, 0, 53, 0
1, 74040, Note_on_c, 0, 68, 0
1, 74040, Note_on_c, 0, 67, 54
1, 74040, Note_on_c, 0, 46, 41
1, 74160, Tempo, 656599
1, 74160, Note_on_c, 0, 67, 0
1, 74160, Note_on_c, 0, 61, 0
1, 74160, Note_on_c, 0, 61, 61
1, 74160, Note_on_c, 0, 65, 61
1, 74172, Control_c, 0, 64, 0
1, 74246, Control_c, 0, 64, 127
1, 74280, Tempo, 587717
1, 74280, Note_on_c, 0, 46, 0
1, 74280, Note_on_c, 0, 53, 45
1, 74400, Note_on_c, 0, 53, 0
1, 74400, Note_on_c, 0, 65, 0
1, 74400, Note_on_c, 0, 67, 55
1, 74400, Note_on_c, 0, 58, 40
1, 74520, Note_on_c, 0, 67, 0
1, 74520, Note_on_c, 0, 61, 0
1, 74520, Note_on_c, 0, 65, 62
1, 74520, Note_on_c, 0, 61, 62
1, 74520, Note_on_c, 0, 68, 62
1, 74640, Note_on_c, 0, 58, 0
1, 74640, Note_on_c, 0, 52, 45
1, 74760, Tempo, 637213
1, 74760, Note_on_c, 0, 52, 0
1, 74760, Note_on_c, 0, 68, 0
1, 74760, Note_on_c, 0, 65, 0
1, 74760, Note_on_c, 0, 67, 59
1, 74760, Note_on_c, 0, 70, 59
1, 74760, Note_on_c, 0, 46, 45
1, 74760, Note_on_c, 0, 51, 45
1, 74766, Control_c, 0, 64, 0
1, 74880, Tempo, 497636
1, 74880, Note_on_c, 0, 51, 0
1, 74880, Note_on_c, 0, 70, 0
1, 74880, Note_on_c, 0, 61, 0
1, 74880, Note_on_c, 0, 67, 0
1, 74880, Note_on_c, 0, 46, 0
1, 74880, Note_on_c, 0, 37, 49
1, 74880, Note_on_c, 0, 44, 59
1, 74940, Tempo, 495540
1, 74980, Tempo, 493462
1, 75000, Note_on_c, 0, 60, 44
1, 75000, Note_on_c, 0, 63, 44
1, 75000, Note_on_c, 0, 66, 50
1, 75000, Note_on_c, 0, 72, 50
1, 75000, Control_c, 0, 64, 127
1, 75020, Tempo, 491400
1, 75060, Tempo, 489356
1, 75090, Note_on_c, 0, 72, 0
1, 75090, Note_on_c, 0, 63, 0
1, 75090, Note_on_c, 0, 60, 0
1, 75090, Note_on_c, 0, 66, 0
1, 75100, Tempo, 487329
1, 75120, Note_on_c, 0, 61, 53
1, 75160, Tempo, 485319
1, 75200, Tempo, 483325
1, 75210, Note_on_c, 0, 61, 0
1, 75240, Tempo, 481309
1, 75240, Note_on_c, 0, 60, 44
1, 75240, Note_on_c, 0, 63, 44
1, 75240, Note_on_c, 0, 66, 50
1, 75240, Note_on_c, 0, 72, 50
1, 75280, Tempo, 479348
1, 75320, Tempo, 477403
1, 75330, Note_on_c, 0, 72, 0
1, 75330, Note_on_c, 0, 63, 0
1, 75330, Note_on_c, 0, 60, 0
1, 75330, Note_on_c, 0, 66, 0
1, 75360, Tempo, 477403
1, 75360, Note_on_c, 0, 58, 53
1, 75400, Tempo, 479348
1, 75420, Tempo, 481309
1, 75440, Tempo, 483325
1, 75450, Note_on_c, 0, 58, 0
1, 75460, Tempo, 485319
1, 75480, Tempo, 487329
1, 75480, Note_on_c, 0, 60, 51
1, 75480, Note_on_c, 0, 63, 51
1, 75480, Note_on_c, 0, 66, 57
1, 75480, Note_on_c, 0, 72, 57
1, 75500, Tempo, 489356
1, 75520, Tempo, 491400
1, 75540, Tempo, 493462
1, 75560, Tempo, 495540
1, 75570, Note_on_c, 0, 72, 0
1, 75570, Note_on_c, 0, 63, 0
1, 75570, Note_on_c, 0, 60, 0
1, 75570, Note_on_c, 0, 66, 0
1, 75580, Tempo, 497636
1, 75600, Tempo, 524292
1, 75600, Note_on_c, 0, 61, 53
1, 75690, Note_on_c, 0, 61, 0
1, 75720, Tempo, 462392
1, 75720, Note_on_c, 0, 75, 62
1, 75720, Note_on_c, 0, 66, 55
1, 75720, Note_on_c, 0, 63, 55
1, 75800, Tempo, 504838
1, 75810, Note_on_c, 0, 63, 0
1, 75810, Note_on_c, 0, 75, 0
1, 75810, Note_on_c, 0, 66, 0
1, 75840, Tempo, 490838
1, 75840, Note_on_c, 0, 61, 55
1, 75930, Note_on_c, 0, 61, 0
1, 75960, Note_on_c, 0, 60, 47
1, 75960, Note_on_c, 0, 63, 47
1, 75960, Note_on_c, 0, 66, 53
1, 75960, Note_on_c, 0, 72, 53
1, 76050, Note_on_c, 0, 72, 0
1, 76050, Note_on_c, 0, 63, 0
1, 76050, Note_on_c, 0, 60, 0
1, 76050, Note_on_c, 0, 66, 0
1, 76080, Note_on_c, 0, 61, 47
1, 76170, Note_on_c, 0, 61, 0
1, 76200, Tempo, 556586
1, 76200, Note_on_c, 0, 60, 41
1, 76200, Note_on_c, 0, 63, 41
1, 76200, Note_on_c, 0, 66, 45
1, 76200, Note_on_c, 0, 72, 45
1, 76214, Control_c, 0, 64, 0
1, 76290, Note_on_c, 0, 72, 0
1, 76290, Note_on_c, 0, 63, 0
1, 76290, Note_on_c, 0, 60, 0
1, 76290, Note_on_c, 0, 66, 0
1, 76320, Tempo, 499750
1, 76320, Note_on_c, 0, 37, 0
1, 76320, Note_on_c, 0, 44, 0
1, 76320, Note_on_c, 0, 37, 49
1, 76320, Note_on_c, 0, 44, 59
1, 76380, Tempo, 497636
1, 76420, Tempo, 495540
1, 76430, Control_c, 0, 64, 127
1, 76440, Note_on_c, 0, 58, 44
1, 76440, Note_on_c, 0, 61, 44
1, 76440, Note_on_c, 0, 65, 50
1, 76440, Note_on_c, 0, 70, 50
1, 76480, Tempo, 493462
1, 76520, Tempo, 491400
1, 76530, Note_on_c, 0, 70, 0
1, 76530, Note_on_c, 0, 61, 0
1, 76530, Note_on_c, 0, 58, 0
1, 76530, Note_on_c, 0, 65, 0
1, 76560, Tempo, 489356
1, 76560, Note_on_c, 0, 56, 53
1, 76620, Tempo, 487329
1, 76650, Note_on_c, 0, 56, 0
1, 76660, Tempo, 485319
1, 76680, Note_on_c, 0, 61, 44
1, 76680, Note_on_c, 0, 65, 44
1, 76680, Note_on_c, 0, 68, 50
1, 76680, Note_on_c, 0, 73, 50
1, 76720, Tempo, 483325
1, 76760, Tempo, 481309
1, 76770, Note_on_c, 0, 73, 0
1, 76770, Note_on_c, 0, 65, 0
1, 76770, Note_on_c, 0, 61, 0
1, 76770, Note_on_c, 0, 68, 0
1, 76800, Tempo, 479348
1, 76800, Note_on_c, 0, 60, 53
1, 76860, Tempo, 481309
1, 76890, Note_on_c, 0, 60, 0
1, 76900, Tempo, 483325
1, 76920, Note_on_c, 0, 61, 44
1, 76920, Note_on_c, 0, 65, 44
1, 76920, Note_on_c, 0, 68, 50
1, 76920, Note_on_c, 0, 73, 50
1, 76960, Tempo, 485319
1, 77000, Tempo, 487329
1, 77010, Note_on_c, 0, 73, 0
1, 77010, Note_on_c, 0, 65, 0
1, 77010, Note_on_c, 0, 61, 0
1, 77010, Note_on_c, 0, 68, 0
1, 77040, Note_on_c, 0, 57, 53
1, 77060, Tempo, 489356
1, 77100, Tempo, 491400
1, 77130, Note_on_c, 0, 57, 0
1, 77160, Tempo, 493462
1, 77160, Note_on_c, 0, 67, 53
1, 77160, Note_on_c, 0, 70, 53
1, 77160, Note_on_c, 0, 64, 53
1, 77160, Note_on_c, 0, 58, 46
1, 77200, Tempo, 495540
1, 77250, Note_on_c, 0, 58, 0
1, 77250, Note_on_c, 0, 70, 0
1, 77250, Note_on_c, 0, 67, 0
1, 77250, Note_on_c, 0, 64, 0
1, 77260, Tempo, 497636
1, 77280, Note_on_c, 0, 60, 62
1, 77300, Tempo, 499750
1, 77370, Note_on_c, 0, 60, 0
1, 77400, Tempo, 492773
1, 77400, Note_on_c, 0, 61, 55
1, 77400, Note_on_c, 0, 64, 55
1, 77400, Note_on_c, 0, 67, 62
1, 77400, Note_on_c, 0, 73, 62
1, 77490, Note_on_c, 0, 73, 0
1, 77490, Note_on_c, 0, 64, 0
1, 77490, Note_on_c, 0, 61, 0
1, 77490, Note_on_c, 0, 67, 0
1, 77520, Tempo, 491400
1, 77520, Note_on_c, 0, 60, 52
1, 77610, Note_on_c, 0, 60, 0
1, 77640, Tempo, 618111
1, 77640, Note_on_c, 0, 58, 47
1, 77640, Note_on_c, 0, 64, 47
1, 77640, Note_on_c, 0, 67, 53
1, 77640, Note_on_c, 0, 70, 53
1, 77685, Control_c, 0, 64, 0
1, 77730, Note_on_c, 0, 70, 0
1, 77730, Note_on_c, 0, 64, 0
1, 77730, Note_on_c, 0, 58, 0
1, 77730, Note_on_c, 0, 67, 0
1, 77740, Tempo, 508431
1, 77760, Tempo, 495540
1, 77760, Note_on_c, 0, 44, 0
1, 77760, Note_on_c, 0, 37, 0
1, 77760, Note_on_c, 0, 37, 53
1, 77760, Note_on_c, 0, 44, 63
1, 77840, Tempo, 493462
1, 77880, Note_on_c, 0, 60, 44
1, 77880, Note_on_c, 0, 63, 44
1, 77880, Note_on_c, 0, 66, 49
1, 77880, Note_on_c, 0, 72, 54
1, 77900, Tempo, 491400
1, 77951, Control_c, 0, 64, 127
1, 77970, Note_on_c, 0, 72, 0
1, 77970, Note_on_c, 0, 63, 0
1, 77970, Note_on_c, 0, 60, 0
1, 77970, Note_on_c, 0, 66, 0
1, 77980, Tempo, 489356
1, 78000, Note_on_c, 0, 61, 59
1, 78040, Tempo, 487329
1, 78090, Note_on_c, 0, 61, 0
1, 78120, Tempo, 485319
1, 78120, Note_on_c, 0, 60, 43
1, 78120, Note_on_c, 0, 63, 43
1, 78120, Note_on_c, 0, 66, 47
1, 78120, Note_on_c, 0, 72, 53
1, 78180, Tempo, 483325
1, 78210, Note_on_c, 0, 72, 0
1, 78210, Note_on_c, 0, 63, 0
1, 78210, Note_on_c, 0, 60, 0
1, 78210, Note_on_c, 0, 66, 0
1, 78240, Tempo, 481309
1, 78240, Note_on_c, 0, 58, 57
1, 78280, Tempo, 483325
1, 78320, Tempo, 485319
1, 78330, Note_on_c, 0, 58, 0
1, 78360, Tempo, 487329
1, 78360, Note_on_c, 0, 60, 47
1, 78360, Note_on_c, 0, 63, 47
1, 78360, Note_on_c, 0, 66, 53
1, 78360, Note_on_c, 0, 72, 61
1, 78400, Tempo, 489356
1, 78440, Tempo, 491400
1, 78450, Note_on_c, 0, 72, 0
1, 78450, Note_on_c, 0, 63, 0
1, 78450, Note_on_c, 0, 60, 0
1, 78450, Note_on_c, 0, 66, 0
1, 78480, Tempo, 493462
1, 78480, Note_on_c, 0, 61, 59
1, 78520, Tempo, 495540
1, 78570, Note_on_c, 0, 61, 0
1, 78600, Note_on_c, 0, 75, 62
1, 78600, Note_on_c, 0, 66, 49
1, 78600, Note_on_c, 0, 63, 49
1, 78640, Tempo, 502807
1, 78680, Tempo, 504838
1, 78690, Note_on_c, 0, 63, 0
1, 78690, Note_on_c, 0, 75, 0
1, 78690, Note_on_c, 0, 66, 0
1, 78720, Tempo, 490838
1, 78720, Note_on_c, 0, 61, 62
1, 78810, Note_on_c, 0, 61, 0
1, 78840, Tempo, 466056
1, 78840, Note_on_c, 0, 60, 42
1, 78840, Note_on_c, 0, 63, 42
1, 78840, Note_on_c, 0, 66, 46
1, 78840, Note_on_c, 0, 72, 53
1, 78930, Note_on_c, 0, 72, 0
1, 78930, Note_on_c, 0, 63, 0
1, 78930, Note_on_c, 0, 60, 0
1, 78930, Note_on_c, 0, 66, 0
1, 78960, Note_on_c, 0, 61, 53
1, 79050, Note_on_c, 0, 61, 0
1, 79080, Tempo, 618111
1, 79080, Note_on_c, 0, 60, 40
1, 79080, Note_on_c, 0, 63, 40
1, 79080, Note_on_c, 0, 66, 44
1, 79080, Note_on_c, 0, 72, 50
1, 79158, Control_c, 0, 64, 0
1, 79170, Note_on_c, 0, 72, 0
1, 79170, Note_on_c, 0, 63, 0
1, 79170, Note_on_c, 0, 60, 0
1, 79170, Note_on_c, 0, 66, 0
1, 79200, Tempo, 497636
1, 79200, Note_on_c, 0, 37, 0
1, 79200, Note_on_c, 0, 44, 0
1, 79200, Note_on_c, 0, 37, 53
1, 79200, Note_on_c, 0, 44, 63
1, 79260, Tempo, 495540
1, 79288, Control_c, 0, 64, 127
1, 79300, Tempo, 493462
1, 79320, Note_on_c, 0, 58, 44
1, 79320, Note_on_c, 0, 61, 44
1, 79320, Note_on_c, 0, 65, 49
1, 79320, Note_on_c, 0, 70, 54
1, 79360, Tempo, 491400
1, 79400, Tempo, 489356
1, 79410, Note_on_c, 0, 70, 0
1, 79410, Note_on_c, 0, 61, 0
1, 79410, Note_on_c, 0, 58, 0
1, 79410, Note_on_c, 0, 65, 0
1, 79440, Tempo, 487329
1, 79440, Note_on_c, 0, 56, 59
1, 79500, Tempo, 485319
1, 79530, Note_on_c, 0, 56, 0
1, 79540, Tempo, 483325
1, 79560, Note_on_c, 0, 61, 43
1, 79560, Note_on_c, 0, 65, 43
1, 79560, Note_on_c, 0, 68, 53
1, 79560, Note_on_c, 0, 73, 53
1, 79600, Tempo, 481309
1, 79640, Tempo, 479348
1, 79650, Note_on_c, 0, 73, 0
1, 79650, Note_on_c, 0, 65, 0
1, 79650, Note_on_c, 0, 61, 0
1, 79650, Note_on_c, 0, 68, 0
1, 79680, Tempo, 477403
1, 79680, Note_on_c, 0, 60, 57
1, 79740, Tempo, 479348
1, 79770, Note_on_c, 0, 60, 0
1, 79780, Tempo, 481309
1, 79800, Note_on_c, 0, 61, 43
1, 79800, Note_on_c, 0, 65, 43
1, 79800, Note_on_c, 0, 68, 47
1, 79800, Note_on_c, 0, 73, 53
1, 79820, Tempo, 483325
1, 79880, Tempo, 485319
1, 79890, Note_on_c, 0, 73, 0
1, 79890, Note_on_c, 0, 65, 0
1, 79890, Note_on_c, 0, 61, 0
1, 79890, Note_on_c, 0, 68, 0
1, 79920, Tempo, 487329
1, 79920, Note_on_c, 0, 57, 59
1, 79960, Tempo, 489356
1, 80010, Note_on_c, 0, 57, 0
1, 80020, Tempo, 491400
1, 80040, Note_on_c, 0, 64, 44
1, 80040, Note_on_c, 0, 67, 49
1, 80040, Note_on_c, 0, 70, 54
1, 80040, Note_on_c, 0, 58, 44
1, 80060, Tempo, 493462
1, 80100, Tempo, 495540
1, 80130, Note_on_c, 0, 58, 0
1, 80130, Note_on_c, 0, 67, 0
1, 80130, Note_on_c, 0, 64, 0
1, 80130, Note_on_c, 0, 70, 0
1, 80140, Tempo, 497636
1, 80160, Note_on_c, 0, 60, 61
1, 80250, Note_on_c, 0, 60, 0
1, 80280, Tempo, 492773
1, 80280, Note_on_c, 0, 61, 52
1, 80280, Note_on_c, 0, 65, 52
1, 80280, Note_on_c, 0, 73, 65
1, 80370, Note_on_c, 0, 73, 0
1, 80370, Note_on_c, 0, 61, 0
1, 80370, Note_on_c, 0, 65, 0
1, 80400, Note_on_c, 0, 60, 56
1, 80490, Note_on_c, 0, 60, 0
1, 80520, Tempo, 584283
1, 80520, Note_on_c, 0, 58, 44
1, 80520, Note_on_c, 0, 66, 49
1, 80520, Note_on_c, 0, 70, 54
1, 80565, Control_c, 0, 64, 0
1, 80610, Note_on_c, 0, 70, 0
1, 80610, Note_on_c, 0, 58, 0
1, 80610, Note_on_c, 0, 66, 0
1, 80620, Tempo, 493462
1, 80640, Note_on_c, 0, 44, 0
1, 80640, Note_on_c, 0, 37, 0
1, 80640, Note_on_c, 0, 56, 62
1, 80640, Note_on_c, 0, 49, 62
1, 80640, Note_on_c, 0, 59, 73
1, 80680, Tempo, 491400
1, 80720, Tempo, 489356
1, 80760, Tempo, 487329
1, 80760, Note_on_c, 0, 65, 49
1, 80760, Note_on_c, 0, 68, 49
1, 80760, Note_on_c, 0, 71, 56
1, 80760, Note_on_c, 0, 77, 63
1, 80800, Tempo, 485319
1, 80831, Control_c, 0, 64, 127
1, 80840, Tempo, 483325
1, 80850, Note_on_c, 0, 77, 0
1, 80850, Note_on_c, 0, 68, 0
1, 80850, Note_on_c, 0, 65, 0
1, 80850, Note_on_c, 0, 71, 0
1, 80880, Tempo, 481309
1, 80880, Note_on_c, 0, 66, 66
1, 80920, Tempo, 479348
1, 80960, Tempo, 477403
1, 80970, Note_on_c, 0, 66, 0
1, 81000, Tempo, 475473
1, 81000, Note_on_c, 0, 77, 63
1, 81000, Note_on_c, 0, 65, 47
1, 81000, Note_on_c, 0, 68, 47
1, 81000, Note_on_c, 0, 71, 54
1, 81040, Tempo, 473560
1, 81080, Tempo, 471661
1, 81090, Note_on_c, 0, 71, 0
1, 81090, Note_on_c, 0, 65, 0
1, 81090, Note_on_c, 0, 77, 0
1, 81090, Note_on_c, 0, 68, 0
1, 81120, Tempo, 469778
1, 81120, Note_on_c, 0, 63, 66
1, 81180, Tempo, 475473
1, 81210, Note_on_c, 0, 63, 0
1, 81240, Tempo, 477403
1, 81240, Note_on_c, 0, 65, 53
1, 81240, Note_on_c, 0, 68, 53
1, 81240, Note_on_c, 0, 71, 61
1, 81240, Note_on_c, 0, 77, 67
1, 81300, Tempo, 479348
1, 81330, Note_on_c, 0, 77, 0
1, 81330, Note_on_c, 0, 68, 0
1, 81330, Note_on_c, 0, 65, 0
1, 81330, Note_on_c, 0, 71, 0
1, 81340, Tempo, 481309
1, 81360, Tempo, 519660
1, 81360, Note_on_c, 0, 66, 67
1, 81450, Note_on_c, 0, 66, 0
1, 81480, Tempo, 467909
1, 81480, Note_on_c, 0, 80, 74
1, 81480, Note_on_c, 0, 71, 65
1, 81480, Note_on_c, 0, 68, 60
1, 81570, Note_on_c, 0, 68, 0
1, 81570, Note_on_c, 0, 80, 0
1, 81570, Note_on_c, 0, 71, 0
1, 81600, Tempo, 490838
1, 81600, Note_on_c, 0, 66, 70
1, 81690, Note_on_c, 0, 66, 0
1, 81720, Tempo, 479348
1, 81720, Note_on_c, 0, 65, 52
1, 81720, Note_on_c, 0, 68, 52
1, 81720, Note_on_c, 0, 71, 57
1, 81720, Note_on_c, 0, 77, 64
1, 81810, Note_on_c, 0, 77, 0
1, 81810, Note_on_c, 0, 68, 0
1, 81810, Note_on_c, 0, 65, 0
1, 81810, Note_on_c, 0, 71, 0
1, 81840, Note_on_c, 0, 66, 62
1, 81930, Note_on_c, 0, 66, 0
1, 81960, Tempo, 537731
1, 81960, Note_on_c, 0, 65, 45
1, 81960, Note_on_c, 0, 68, 45
1, 81960, Note_on_c, 0, 71, 51
1, 81960, Note_on_c, 0, 77, 57
1, 82038, Control_c, 0, 64, 0
1, 82050, Note_on_c, 0, 77, 0
1, 82050, Note_on_c, 0, 68, 0
1, 82050, Note_on_c, 0, 65, 0
1, 82050, Note_on_c, 0, 71, 0
1, 82080, Tempo, 493462
1, 82080, Note_on_c, 0, 56, 0
1, 82080, Note_on_c, 0, 49, 0
1, 82080, Note_on_c, 0, 59, 0
1, 82080, Note_on_c, 0, 49, 62
1, 82080, Note_on_c, 0, 54, 62
1, 82080, Note_on_c, 0, 58, 73
1, 82120, Tempo, 491400
1, 82160, Tempo, 489356
1, 82168, Control_c, 0, 64, 127
1, 82200, Tempo, 487329
1, 82200, Note_on_c, 0, 63, 49
1, 82200, Note_on_c, 0, 66, 49
1, 82200, Note_on_c, 0, 70, 56
1, 82200, Note_on_c, 0, 75, 63
1, 82240, Tempo, 485319
1, 82280, Tempo, 483325
1, 82290, Note_on_c, 0, 75, 0
1, 82290, Note_on_c, 0, 66, 0
1, 82290, Note_on_c, 0, 63, 0
1, 82290, Note_on_c, 0, 70, 0
1, 82320, Tempo, 481309
1, 82320, Note_on_c, 0, 61, 66
1, 82360, Tempo, 479348
1, 82400, Tempo, 477403
1, 82410, Note_on_c, 0, 61, 0
1, 82440, Tempo, 475473
1, 82440, Note_on_c, 0, 66, 47
1, 82440, Note_on_c, 0, 70, 47
1, 82440, Note_on_c, 0, 73, 54
1, 82440, Note_on_c, 0, 78, 62
1, 82480, Tempo, 473560
1, 82520, Tempo, 471661
1, 82530, Note_on_c, 0, 78, 0
1, 82530, Note_on_c, 0, 70, 0
1, 82530, Note_on_c, 0, 66, 0
1, 82530, Note_on_c, 0, 73, 0
1, 82560, Tempo, 469778
1, 82560, Note_on_c, 0, 65, 65
1, 82620, Tempo, 471661
1, 82650, Note_on_c, 0, 65, 0
1, 82660, Tempo, 473560
1, 82680, Note_on_c, 0, 66, 47
1, 82680, Note_on_c, 0, 70, 47
1, 82680, Note_on_c, 0, 73, 54
1, 82680, Note_on_c, 0, 78, 62
1, 82700, Tempo, 475473
1, 82760, Tempo, 477403
1, 82770, Note_on_c, 0, 78, 0
1, 82770, Note_on_c, 0, 70, 0
1, 82770, Note_on_c, 0, 66, 0
1, 82770, Note_on_c, 0, 73, 0
1, 82800, Tempo, 479348
1, 82800, Note_on_c, 0, 62, 66
1, 82840, Tempo, 481309
1, 82890, Note_on_c, 0, 62, 0
1, 82900, Tempo, 483325
1, 82920, Note_on_c, 0, 66, 49
1, 82920, Note_on_c, 0, 70, 56
1, 82920, Note_on_c, 0, 75, 63
1, 82920, Note_on_c, 0, 63, 49
1, 82940, Tempo, 485319
1, 82980, Tempo, 487329
1, 83010, Note_on_c, 0, 63, 0
1, 83010, Note_on_c, 0, 70, 0
1, 83010, Note_on_c, 0, 66, 0
1, 83010, Note_on_c, 0, 75, 0
1, 83020, Tempo, 497636
1, 83040, Note_on_c, 0, 65, 74
1, 83130, Note_on_c, 0, 65, 0
1, 83160, Tempo, 492773
1, 83160, Note_on_c, 0, 66, 62
1, 83160, Note_on_c, 0, 70, 62
1, 83160, Note_on_c, 0, 78, 79
1, 83250, Note_on_c, 0, 78, 0
1, 83250, Note_on_c, 0, 66, 0
1, 83250, Note_on_c, 0, 70, 0
1, 83280, Tempo, 479348
1, 83280, Note_on_c, 0, 65, 64
1, 83370, Note_on_c, 0, 65, 0
1, 83400, Tempo, 567376
1, 83400, Note_on_c, 0, 66, 49
1, 83400, Note_on_c, 0, 63, 49
1, 83400, Note_on_c, 0, 70, 56
1, 83400, Note_on_c, 0, 75, 63
1, 83445, Control_c, 0, 64, 0
1, 83490, Note_on_c, 0, 75, 0
1, 83490, Note_on_c, 0, 63, 0
1, 83490, Note_on_c, 0, 66, 0
1, 83490, Note_on_c, 0, 70, 0
1, 83520, Tempo, 491400
1, 83520, Note_on_c, 0, 49, 0
1, 83520, Note_on_c, 0, 54, 0
1, 83520, Note_on_c, 0, 58, 0
1, 83520, Note_on_c, 0, 52, 67
1, 83520, Note_on_c, 0, 49, 67
1, 83520, Note_on_c, 0, 58, 81
1, 83580, Tempo, 489356
1, 83620, Tempo, 487329
1, 83640, Note_on_c, 0, 67, 54
1, 83640, Note_on_c, 0, 70, 54
1, 83640, Note_on_c, 0, 73, 62
1, 83640, Note_on_c, 0, 79, 69
1, 83660, Tempo, 485319
1, 83711, Control_c, 0, 64, 127
1, 83720, Tempo, 483325
1, 83730, Note_on_c, 0, 79, 0
1, 83730, Note_on_c, 0, 70, 0
1, 83730, Note_on_c, 0, 67, 0
1, 83730, Note_on_c, 0, 73, 0
1, 83760, Tempo, 481309
1, 83760, Note_on_c, 0, 68, 73
1, 83800, Tempo, 479348
1, 83850, Note_on_c, 0, 68, 0
1, 83860, Tempo, 477403
1, 83880, Note_on_c, 0, 79, 70
1, 83880, Note_on_c, 0, 67, 53
1, 83880, Note_on_c, 0, 70, 53
1, 83880, Note_on_c, 0, 73, 60
1, 83900, Tempo, 475473
1, 83940, Tempo, 473560
1, 83970, Note_on_c, 0, 73, 0
1, 83970, Note_on_c, 0, 67, 0
1, 83970, Note_on_c, 0, 79, 0
1, 83970, Note_on_c, 0, 70, 0
1, 83980, Tempo, 471661
1, 84000, Tempo, 475473
1, 84000, Note_on_c, 0, 65, 73
1, 84080, Tempo, 477403
1, 84090, Note_on_c, 0, 65, 0
1, 84120, Note_on_c, 0, 67, 61
1, 84120, Note_on_c, 0, 70, 61
1, 84120, Note_on_c, 0, 73, 66
1, 84120, Note_on_c, 0, 79, 75
1, 84160, Tempo, 479348
1, 84210, Note_on_c, 0, 79, 0
1, 84210, Note_on_c, 0, 70, 0
1, 84210, Note_on_c, 0, 67, 0
1, 84210, Note_on_c, 0, 73, 0
1, 84240, Tempo, 481309
1, 84240, Note_on_c, 0, 68, 74
1, 84330, Note_on_c, 0, 68, 0
1, 84360, Tempo, 473560
1, 84360, Note_on_c, 0, 82, 81
1, 84360, Note_on_c, 0, 73, 72
1, 84360, Note_on_c, 0, 70, 63
1, 84440, Tempo, 504838
1, 84450, Note_on_c, 0, 70, 0
1, 84450, Note_on_c, 0, 82, 0
1, 84450, Note_on_c, 0, 73, 0
1, 84480, Tempo, 490838
1, 84480, Note_on_c, 0, 68, 77
1, 84570, Note_on_c, 0, 68, 0
1, 84600, Note_on_c, 0, 67, 62
1, 84600, Note_on_c, 0, 70, 62
1, 84600, Note_on_c, 0, 73, 69
1, 84600, Note_on_c, 0, 79, 77
1, 84690, Note_on_c, 0, 79, 0
1, 84690, Note_on_c, 0, 70, 0
1, 84690, Note_on_c, 0, 67, 0
1, 84690, Note_on_c, 0, 73, 0
1, 84720, Note_on_c, 0, 68, 66
1, 84810, Note_on_c, 0, 68, 0
1, 84840, Tempo, 537731
1, 84840, Note_on_c, 0, 67, 53
1, 84840, Note_on_c, 0, 70, 53
1, 84840, Note_on_c, 0, 73, 60
1, 84840, Note_on_c, 0, 79, 66
1, 84918, Control_c, 0, 64, 0
1, 84930, Note_on_c, 0, 79, 0
1, 84930, Note_on_c, 0, 70, 0
1, 84930, Note_on_c, 0, 67, 0
1, 84930, Note_on_c, 0, 73, 0
1, 84940, Tempo, 501882
1, 84960, Tempo, 489356
1, 84960, Note_on_c, 0, 52, 0
1, 84960, Note_on_c, 0, 49, 0
1, 84960, Note_on_c, 0, 58, 0
1, 84960, Note_on_c, 0, 49, 71
1, 84960, Note_on_c, 0, 53, 71
1, 84960, Note_on_c, 0, 58, 84
1, 85020, Tempo, 487329
1, 85048, Control_c, 0, 64, 127
1, 85060, Tempo, 485319
1, 85080, Note_on_c, 0, 65, 60
1, 85080, Note_on_c, 0, 70, 60
1, 85080, Note_on_c, 0, 73, 66
1, 85080, Note_on_c, 0, 77, 75
1, 85100, Tempo, 483325
1, 85140, Tempo, 481309
1, 85170, Note_on_c, 0, 77, 0
1, 85170, Note_on_c, 0, 70, 0
1, 85170, Note_on_c, 0, 65, 0
1, 85170, Note_on_c, 0, 73, 0
1, 85180, Tempo, 479348
1, 85200, Note_on_c, 0, 64, 79
1, 85240, Tempo, 477403
1, 85280, Tempo, 475473
1, 85290, Note_on_c, 0, 64, 0
1, 85320, Tempo, 473560
1, 85320, Note_on_c, 0, 68, 56
1, 85320, Note_on_c, 0, 70, 56
1, 85320, Note_on_c, 0, 73, 63
1, 85320, Note_on_c, 0, 80, 71
1, 85360, Tempo, 471661
1, 85400, Tempo, 469778
1, 85410, Note_on_c, 0, 80, 0
1, 85410, Note_on_c, 0, 70, 0
1, 85410, Note_on_c, 0, 68, 0
1, 85410, Note_on_c, 0, 73, 0
1, 85420, Tempo, 467909
1, 85440, Note_on_c, 0, 67, 73
1, 85460, Tempo, 469778
1, 85500, Tempo, 471661
1, 85530, Note_on_c, 0, 67, 0
1, 85540, Tempo, 473560
1, 85560, Note_on_c, 0, 68, 56
1, 85560, Note_on_c, 0, 70, 56
1, 85560, Note_on_c, 0, 73, 63
1, 85560, Note_on_c, 0, 80, 71
1, 85580, Tempo, 475473
1, 85620, Tempo, 477403
1, 85650, Note_on_c, 0, 80, 0
1, 85650, Note_on_c, 0, 70, 0
1, 85650, Note_on_c, 0, 68, 0
1, 85650, Note_on_c, 0, 73, 0
1, 85660, Tempo, 479348
1, 85680, Note_on_c, 0, 64, 81
1, 85700, Tempo, 481309
1, 85740, Tempo, 483325
1, 85770, Note_on_c, 0, 64, 0
1, 85780, Tempo, 485319
1, 85800, Note_on_c, 0, 70, 60
1, 85800, Note_on_c, 0, 73, 66
1, 85800, Note_on_c, 0, 77, 75
1, 85800, Note_on_c, 0, 66, 60
1, 85820, Tempo, 487329
1, 85860, Tempo, 489356
1, 85880, Tempo, 491400
1, 85890, Note_on_c, 0, 66, 0
1, 85890, Note_on_c, 0, 73, 0
1, 85890, Note_on_c, 0, 70, 0
1, 85890, Note_on_c, 0, 77, 0
1, 85920, Tempo, 501882
1, 85920, Note_on_c, 0, 66, 81
1, 86010, Note_on_c, 0, 66, 0
1, 86040, Note_on_c, 0, 73, 63
1, 86040, Note_on_c, 0, 67, 63
1, 86040, Note_on_c, 0, 77, 79
1, 86040, Note_on_c, 0, 79, 79
1, 86130, Note_on_c, 0, 79, 0
1, 86130, Note_on_c, 0, 67, 0
1, 86130, Note_on_c, 0, 73, 0
1, 86130, Note_on_c, 0, 77, 0
1, 86160, Note_on_c, 0, 68, 75
1, 86250, Note_on_c, 0, 68, 0
1, 86280, Note_on_c, 0, 73, 65
1, 86280, Note_on_c, 0, 69, 65
1, 86280, Note_on_c, 0, 77, 74
1, 86280, Note_on_c, 0, 81, 83
1, 86325, Control_c, 0, 64, 0
1, 86370, Note_on_c, 0, 81, 0
1, 86370, Note_on_c, 0, 69, 0
1, 86370, Note_on_c, 0, 73, 0
1, 86370, Note_on_c, 0, 77, 0
1, 86400, Tempo, 508087
1, 86400, Note_on_c, 0, 49, 0
1, 86400, Note_on_c, 0, 53, 0
1, 86400, Note_on_c, 0, 58, 0
1, 86400, Note_on_c, 0, 44, 71
1, 86400, Note_on_c, 0, 49, 71
1, 86400, Note_on_c, 0, 54, 89
1, 86490, Note_on_c, 0, 54, 0
1, 86490, Note_on_c, 0, 49, 0
1, 86490, Note_on_c, 0, 44, 0
1, 86520, Note_on_c, 0, 58, 80
1, 86520, Note_on_c, 0, 61, 86
1, 86543, Control_c, 0, 64, 127
1, 86610, Note_on_c, 0, 61, 0
1, 86610, Note_on_c, 0, 58, 0
1, 86640, Tempo, 521875
1, 86640, Note_on_c, 0, 70, 80
1, 86640, Note_on_c, 0, 66, 72
1, 86730, Note_on_c, 0, 66, 0
1, 86730, Note_on_c, 0, 70, 0
1, 86754, Tempo, 484301
1, 86760, Note_on_c, 0, 82, 99
1, 86760, Note_on_c, 0, 78, 89
1, 86794, Control_c, 0, 64, 0
1, 86810, Tempo, 482587
1, 86850, Note_on_c, 0, 78, 0
1, 86850, Note_on_c, 0, 82, 0
1, 86862, Tempo, 480846
1, 86880, Note_on_c, 0, 69, 71
1, 86880, Note_on_c, 0, 65, 71
1, 86914, Tempo, 479118
1, 86970, Tempo, 477441
1, 86970, Note_on_c, 0, 65, 0
1, 86970, Note_on_c, 0, 69, 0
1, 87000, Note_on_c, 0, 70, 65
1, 87000, Note_on_c, 0, 66, 61
1, 87022, Tempo, 475737
1, 87074, Tempo, 474083
1, 87090, Note_on_c, 0, 66, 0
1, 87090, Note_on_c, 0, 70, 0
1, 87114, Tempo, 472404
1, 87120, Note_on_c, 0, 62, 64
1, 87120, Note_on_c, 0, 65, 72
1, 87137, Control_c, 0, 64, 127
1, 87210, Note_on_c, 0, 65, 0
1, 87210, Note_on_c, 0, 62, 0
1, 87240, Note_on_c, 0, 66, 75
1, 87240, Note_on_c, 0, 63, 69
1, 87330, Note_on_c, 0, 63, 0
1, 87330, Note_on_c, 0, 66, 0
1, 87360, Tempo, 489636
1, 87360, Note_on_c, 0, 65, 60
1, 87360, Note_on_c, 0, 69, 66
1, 87420, Control_c, 0, 64, 0
1, 87450, Note_on_c, 0, 69, 0
1, 87450, Note_on_c, 0, 65, 0
1, 87480, Tempo, 477631
1, 87480, Note_on_c, 0, 66, 75
1, 87480, Note_on_c, 0, 70, 84
1, 87532, Control_c, 0, 64, 127
1, 87570, Note_on_c, 0, 70, 0
1, 87600, Note_on_c, 0, 73, 82
1, 87690, Note_on_c, 0, 73, 0
1, 87720, Note_on_c, 0, 66, 0
1, 87720, Note_on_c, 0, 68, 71
1, 87720, Note_on_c, 0, 72, 80
1, 87766, Control_c, 0, 64, 0
1, 87810, Note_on_c, 0, 72, 0
1, 87810, Note_on_c, 0, 68, 0
1, 87840, Tempo, 501798
1, 87840, Note_on_c, 0, 44, 60
1, 87840, Note_on_c, 0, 49, 60
1, 87840, Note_on_c, 0, 53, 75
1, 87930, Note_on_c, 0, 53, 0
1, 87930, Note_on_c, 0, 49, 0
1, 87930, Note_on_c, 0, 44, 0
1, 87960, Note_on_c, 0, 56, 73
1, 87960, Note_on_c, 0, 61, 81
1, 87994, Control_c, 0, 64, 127
1, 88050, Note_on_c, 0, 61, 0
1, 88050, Note_on_c, 0, 56, 0
1, 88080, Tempo, 513875
1, 88080, Note_on_c, 0, 68, 73
1, 88080, Note_on_c, 0, 65, 66
1, 88170, Note_on_c, 0, 65, 0
1, 88170, Note_on_c, 0, 68, 0
1, 88200, Tempo, 470810
1, 88200, Note_on_c, 0, 77, 90
1, 88200, Note_on_c, 0, 80, 101
1, 88216, Control_c, 0, 64, 0
1, 88290, Note_on_c, 0, 80, 0
1, 88290, Note_on_c, 0, 77, 0
1, 88292, Tempo, 472404
1, 88320, Note_on_c, 0, 61, 71
1, 88320, Note_on_c, 0, 65, 77
1, 88384, Tempo, 474083
1, 88410, Note_on_c, 0, 65, 0
1, 88410, Note_on_c, 0, 61, 0
1, 88440, Note_on_c, 0, 63, 63
1, 88440, Note_on_c, 0, 66, 69
1, 88480, Tempo, 475737
1, 88530, Note_on_c, 0, 66, 0
1, 88530, Note_on_c, 0, 63, 0
1, 88560, Tempo, 482587
1, 88560, Note_on_c, 0, 65, 65
1, 88560, Note_on_c, 0, 68, 73
1, 88567, Control_c, 0, 64, 127
1, 88600, Tempo, 484301
1, 88624, Tempo, 486066
1, 88650, Note_on_c, 0, 68, 0
1, 88650, Note_on_c, 0, 65, 0
1, 88652, Tempo, 487845
1, 88680, Note_on_c, 0, 66, 63
1, 88680, Note_on_c, 0, 70, 69
1, 88692, Tempo, 489636
1, 88720, Tempo, 491360
1, 88744, Tempo, 493178
1, 88770, Note_on_c, 0, 70, 0
1, 88770, Note_on_c, 0, 66, 0
1, 88772, Tempo, 495009
1, 88800, Note_on_c, 0, 65, 61
1, 88800, Note_on_c, 0, 68, 65
1, 88812, Tempo, 496853
1, 88814, Control_c, 0, 64, 0
1, 88840, Tempo, 498670
1, 88864, Tempo, 500542
1, 88890, Note_on_c, 0, 68, 0
1, 88890, Note_on_c, 0, 65, 0
1, 88892, Tempo, 502428
1, 88920, Tempo, 549501
1, 88920, Note_on_c, 0, 61, 74
1, 88920, Note_on_c, 0, 65, 82
1, 89118, Control_c, 0, 64, 127
1, 89231, Control_c, 0, 64, 0
1, 89280, Tempo, 508087
1, 89280, Note_on_c, 0, 65, 0
1, 89280, Note_on_c, 0, 61, 0
1, 89280, Note_on_c, 0, 56, 72
1, 89280, Note_on_c, 0, 61, 72
1, 89280, Note_on_c, 0, 66, 81
1, 89370, Note_on_c, 0, 66, 0
1, 89370, Note_on_c, 0, 61, 0
1, 89370, Note_on_c, 0, 56, 0
1, 89400, Note_on_c, 0, 70, 71
1, 89400, Note_on_c, 0, 73, 79
1, 89423, Control_c, 0, 64, 127
1, 89490, Note_on_c, 0, 73, 0
1, 89490, Note_on_c, 0, 70, 0
1, 89520, Tempo, 521875
1, 89520, Note_on_c, 0, 82, 71
1, 89520, Note_on_c, 0, 78, 63
1, 89610, Note_on_c, 0, 78, 0
1, 89610, Note_on_c, 0, 82, 0
1, 89634, Tempo, 484301
1, 89640, Note_on_c, 0, 94, 85
1, 89640, Note_on_c, 0, 90, 76
1, 89674, Control_c, 0, 64, 0
1, 89690, Tempo, 482587
1, 89730, Note_on_c, 0, 90, 0
1, 89730, Note_on_c, 0, 94, 0
1, 89742, Tempo, 480846
1, 89760, Note_on_c, 0, 81, 63
1, 89760, Note_on_c, 0, 77, 59
1, 89794, Tempo, 479118
1, 89850, Tempo, 477441
1, 89850, Note_on_c, 0, 77, 0
1, 89850, Note_on_c, 0, 81, 0
1, 89880, Note_on_c, 0, 82, 59
1, 89880, Note_on_c, 0, 78, 53
1, 89902, Tempo, 475737
1, 89954, Tempo, 474083
1, 89970, Note_on_c, 0, 78, 0
1, 89970, Note_on_c, 0, 82, 0
1, 89994, Tempo, 472404
1, 90000, Note_on_c, 0, 74, 63
1, 90000, Note_on_c, 0, 77, 71
1, 90017, Control_c, 0, 64, 127
1, 90090, Note_on_c, 0, 77, 0
1, 90090, Note_on_c, 0, 74, 0
1, 90120, Note_on_c, 0, 78, 67
1, 90120, Note_on_c, 0, 75, 62
1, 90210, Note_on_c, 0, 75, 0
1, 90210, Note_on_c, 0, 78, 0
1, 90240, Tempo, 489636
1, 90240, Note_on_c, 0, 77, 53
1, 90240, Note_on_c, 0, 81, 61
1, 90261, Control_c, 0, 64, 0
1, 90330, Note_on_c, 0, 81, 0
1, 90330, Note_on_c, 0, 77, 0
1, 90337, Control_c, 0, 64, 127
1, 90360, Tempo, 477631
1, 90360, Note_on_c, 0, 78, 70
1, 90360, Note_on_c, 0, 82, 79
1, 90450, Note_on_c, 0, 82, 0
1, 90480, Note_on_c, 0, 85, 74
1, 90570, Note_on_c, 0, 85, 0
1, 90600, Note_on_c, 0, 78, 0
1, 90600, Note_on_c, 0, 80, 63
1, 90600, Note_on_c, 0, 84, 71
1, 90623, Control_c, 0, 64, 0
1, 90690, Note_on_c, 0, 84, 0
1, 90690, Note_on_c, 0, 80, 0
1, 90720, Tempo, 501798
1, 90720, Note_on_c, 0, 56, 60
1, 90720, Note_on_c, 0, 61, 60
1, 90720, Note_on_c, 0, 65, 66
1, 90810, Note_on_c, 0, 65, 0
1, 90810, Note_on_c, 0, 61, 0
1, 90810, Note_on_c, 0, 56, 0
1, 90840, Note_on_c, 0, 68, 64
1, 90840, Note_on_c, 0, 73, 71
1, 90874, Control_c, 0, 64, 127
1, 90930, Note_on_c, 0, 73, 0
1, 90930, Note_on_c, 0, 68, 0
1, 90960, Tempo, 513875
1, 90960, Note_on_c, 0, 80, 65
1, 90960, Note_on_c, 0, 77, 61
1, 91050, Note_on_c, 0, 77, 0
1, 91050, Note_on_c, 0, 80, 0
1, 91080, Tempo, 470810
1, 91080, Note_on_c, 0, 89, 79
1, 91080, Note_on_c, 0, 92, 87
1, 91166, Control_c, 0, 64, 0
1, 91170, Note_on_c, 0, 92, 0
1, 91170, Note_on_c, 0, 89, 0
1, 91172, Tempo, 472404
1, 91200, Note_on_c, 0, 73, 63
1, 91200, Note_on_c, 0, 77, 69
1, 91264, Tempo, 474083
1, 91290, Note_on_c, 0, 77, 0
1, 91290, Note_on_c, 0, 73, 0
1, 91320, Note_on_c, 0, 75, 55
1, 91320, Note_on_c, 0, 78, 62
1, 91360, Tempo, 475737
1, 91410, Note_on_c, 0, 78, 0
1, 91410, Note_on_c, 0, 75, 0
1, 91440, Tempo, 482587
1, 91440, Control_c, 0, 64, 127
1, 91440, Note_on_c, 0, 77, 57
1, 91440, Note_on_c, 0, 80, 64
1, 91480, Tempo, 484301
1, 91504, Tempo, 486066
1, 91530, Note_on_c, 0, 80, 0
1, 91530, Note_on_c, 0, 77, 0
1, 91532, Tempo, 487845
1, 91560, Note_on_c, 0, 78, 55
1, 91560, Note_on_c, 0, 82, 62
1, 91572, Tempo, 489636
1, 91600, Tempo, 491360
1, 91624, Tempo, 493178
1, 91650, Note_on_c, 0, 82, 0
1, 91650, Note_on_c, 0, 78, 0
1, 91652, Tempo, 495009
1, 91680, Note_on_c, 0, 77, 53
1, 91680, Note_on_c, 0, 80, 59
1, 91692, Tempo, 496853
1, 91720, Tempo, 498670
1, 91744, Tempo, 500542
1, 91770, Note_on_c, 0, 80, 0
1, 91770, Note_on_c, 0, 77, 0
1, 91772, Tempo, 502428
1, 91800, Tempo, 549501
1, 91800, Note_on_c, 0, 73, 65
1, 91800, Note_on_c, 0, 77, 73
1, 91821, Control_c, 0, 64, 0
1, 91892, Control_c, 0, 64, 127
1, 92047, Control_c, 0, 64, 0
1, 92140, Tempo, 489356
1, 92160, Tempo, 515818
1, 92160, Note_on_c, 0, 77, 0
1, 92160, Note_on_c, 0, 73, 0
1, 92160, Note_on_c, 0, 66, 79
1, 92160, Note_on_c, 0, 63, 71
1, 92160, Note_on_c, 0, 58, 71
1, 92240, Tempo, 513655
1, 92251, Control_c, 0, 64, 127
1, 92280, Note_on_c, 0, 66, 77
1, 92280, Note_on_c, 0, 70, 77
1, 92280, Note_on_c, 0, 78, 86
1, 92280, Note_on_c, 0, 75, 86
1, 92320, Tempo, 511553
1, 92340, Note_on_c, 0, 58, 0
1, 92340, Note_on_c, 0, 66, 0
1, 92340, Note_on_c, 0, 63, 0
1, 92340, Note_on_c, 0, 49, 71
1, 92370, Note_on_c, 0, 70, 0
1, 92370, Note_on_c, 0, 75, 0
1, 92370, Note_on_c, 0, 66, 0
1, 92370, Note_on_c, 0, 78, 0
1, 92400, Tempo, 509468
1, 92400, Note_on_c, 0, 80, 81
1, 92400, Note_on_c, 0, 68, 81
1, 92500, Tempo, 507357
1, 92520, Note_on_c, 0, 49, 0
1, 92520, Note_on_c, 0, 66, 79
1, 92520, Note_on_c, 0, 63, 71
1, 92520, Note_on_c, 0, 58, 71
1, 92531, Control_c, 0, 64, 0
1, 92580, Tempo, 505263
1, 92583, Control_c, 0, 64, 127
1, 92640, Tempo, 531773
1, 92640, Note_on_c, 0, 68, 0
1, 92640, Note_on_c, 0, 80, 0
1, 92640, Note_on_c, 0, 81, 94
1, 92640, Note_on_c, 0, 78, 94
1, 92640, Note_on_c, 0, 75, 83
1, 92640, Note_on_c, 0, 69, 83
1, 92700, Note_on_c, 0, 63, 0
1, 92700, Note_on_c, 0, 58, 0
1, 92700, Note_on_c, 0, 66, 0
1, 92700, Note_on_c, 0, 37, 69
1, 92730, Note_on_c, 0, 78, 0
1, 92730, Note_on_c, 0, 69, 0
1, 92730, Note_on_c, 0, 81, 0
1, 92730, Note_on_c, 0, 75, 0
1, 92760, Tempo, 574823
1, 92760, Note_on_c, 0, 82, 86
1, 92760, Note_on_c, 0, 70, 77
1, 92850, Note_on_c, 0, 70, 0
1, 92850, Note_on_c, 0, 82, 0
1, 92880, Tempo, 529054
1, 92880, Note_on_c, 0, 37, 0
1, 92880, Note_on_c, 0, 87, 103
1, 92880, Note_on_c, 0, 78, 92
1, 92880, Note_on_c, 0, 75, 92
1, 92880, Note_on_c, 0, 56, 75
1, 92880, Note_on_c, 0, 63, 75
1, 92880, Note_on_c, 0, 66, 84
1, 92886, Control_c, 0, 64, 0
1, 92900, Tempo, 526778
1, 92920, Tempo, 522330
1, 92931, Control_c, 0, 64, 127
1, 92940, Tempo, 520156
1, 92960, Tempo, 515818
1, 92970, Note_on_c, 0, 75, 0
1, 92970, Note_on_c, 0, 87, 0
1, 92970, Note_on_c, 0, 78, 0
1, 92980, Tempo, 511553
1, 93000, Note_on_c, 0, 86, 87
1, 93000, Note_on_c, 0, 74, 79
1, 93020, Tempo, 507357
1, 93060, Note_on_c, 0, 56, 0
1, 93060, Note_on_c, 0, 66, 0
1, 93060, Note_on_c, 0, 63, 0
1, 93060, Note_on_c, 0, 49, 61
1, 93080, Tempo, 505263
1, 93090, Note_on_c, 0, 86, 0
1, 93090, Note_on_c, 0, 74, 0
1, 93120, Note_on_c, 0, 85, 95
1, 93120, Note_on_c, 0, 73, 84
1, 93140, Tempo, 503271
1, 93210, Note_on_c, 0, 73, 0
1, 93210, Note_on_c, 0, 85, 0
1, 93240, Note_on_c, 0, 49, 0
1, 93240, Note_on_c, 0, 72, 76
1, 93240, Note_on_c, 0, 84, 85
1, 93240, Note_on_c, 0, 56, 63
1, 93240, Note_on_c, 0, 63, 63
1, 93240, Note_on_c, 0, 66, 72
1, 93247, Control_c, 0, 64, 0
1, 93318, Control_c, 0, 64, 127
1, 93330, Note_on_c, 0, 84, 0
1, 93330, Note_on_c, 0, 72, 0
1, 93360, Tempo, 501211
1, 93360, Note_on_c, 0, 71, 79
1, 93360, Note_on_c, 0, 83, 87
1, 93420, Tempo, 503271
1, 93420, Note_on_c, 0, 63, 0
1, 93420, Note_on_c, 0, 66, 0
1, 93420, Note_on_c, 0, 56, 0
1, 93420, Note_on_c, 0, 37, 63
1, 93450, Note_on_c, 0, 71, 0
1, 93450, Note_on_c, 0, 83, 0
1, 93480, Tempo, 505263
1, 93480, Note_on_c, 0, 82, 87
1, 93480, Note_on_c, 0, 70, 79
1, 93526, Control_c, 0, 64, 0
1, 93540, Tempo, 507357
1, 93570, Note_on_c, 0, 70, 0
1, 93570, Note_on_c, 0, 82, 0
1, 93580, Tempo, 509468
1, 93600, Tempo, 520156
1, 93600, Note_on_c, 0, 37, 0
1, 93600, Note_on_c, 0, 81, 86
1, 93600, Note_on_c, 0, 77, 86
1, 93600, Note_on_c, 0, 69, 77
1, 93600, Note_on_c, 0, 65, 64
1, 93600, Note_on_c, 0, 61, 57
1, 93600, Note_on_c, 0, 56, 57
1, 93651, Control_c, 0, 64, 127
1, 93690, Note_on_c, 0, 69, 0
1, 93690, Note_on_c, 0, 81, 0
1, 93690, Note_on_c, 0, 77, 0
1, 93720, Note_on_c, 0, 80, 79
1, 93720, Note_on_c, 0, 68, 71
1, 93777, Control_c, 0, 64, 0
1, 93780, Note_on_c, 0, 65, 0
1, 93780, Note_on_c, 0, 56, 0
1, 93780, Note_on_c, 0, 61, 0
1, 93780, Note_on_c, 0, 49, 54
1, 93810, Note_on_c, 0, 80, 0
1, 93810, Note_on_c, 0, 68, 0
1, 93840, Note_on_c, 0, 73, 79
1, 93840, Note_on_c, 0, 85, 87
1, 93960, Tempo, 503271
1, 93960, Note_on_c, 0, 49, 0
1, 93960, Note_on_c, 0, 66, 55
1, 93960, Note_on_c, 0, 63, 50
1, 93960, Note_on_c, 0, 57, 50
1, 94029, Control_c, 0, 64, 127
1, 94080, Note_on_c, 0, 85, 0
1, 94080, Note_on_c, 0, 73, 0
1, 94080, Note_on_c, 0, 84, 73
1, 94080, Note_on_c, 0, 78, 73
1, 94080, Note_on_c, 0, 72, 66
1, 94140, Note_on_c, 0, 63, 0
1, 94140, Note_on_c, 0, 57, 0
1, 94140, Note_on_c, 0, 66, 0
1, 94140, Note_on_c, 0, 37, 44
1, 94200, Note_on_c, 0, 83, 77
1, 94200, Note_on_c, 0, 71, 69
1, 94243, Control_c, 0, 64, 0
1, 94290, Note_on_c, 0, 71, 0
1, 94290, Note_on_c, 0, 83, 0
1, 94320, Tempo, 531303
1, 94320, Note_on_c, 0, 84, 0
1, 94320, Note_on_c, 0, 72, 0
1, 94320, Note_on_c, 0, 78, 0
1, 94320, Note_on_c, 0, 37, 0
1, 94320, Note_on_c, 0, 82, 72
1, 94320, Note_on_c, 0, 77, 72
1, 94320, Note_on_c, 0, 70, 64
1, 94320, Note_on_c, 0, 65, 52
1, 94320, Note_on_c, 0, 61, 45
1, 94320, Note_on_c, 0, 58, 45
1, 94349, Control_c, 0, 64, 127
1, 94410, Note_on_c, 0, 70, 0
1, 94410, Note_on_c, 0, 82, 0
1, 94410, Note_on_c, 0, 77, 0
1, 94440, Note_on_c, 0, 80, 70
1, 94440, Note_on_c, 0, 68, 62
1, 94500, Note_on_c, 0, 65, 0
1, 94500, Note_on_c, 0, 58, 0
1, 94500, Note_on_c, 0, 61, 0
1, 94500, Note_on_c, 0, 49, 45
1, 94530, Note_on_c, 0, 80, 0
1, 94530, Note_on_c, 0, 68, 0
1, 94560, Tempo, 550257
1, 94560, Note_on_c, 0, 82, 64
1, 94560, Note_on_c, 0, 70, 59
1, 94650, Note_on_c, 0, 70, 0
1, 94650, Note_on_c, 0, 82, 0
1, 94680, Tempo, 578035
1, 94680, Note_on_c, 0, 77, 70
1, 94680, Note_on_c, 0, 74, 70
1, 94680, Note_on_c, 0, 68, 63
1, 94680, Note_on_c, 0, 65, 63
1, 94680, Note_on_c, 0, 62, 57
1, 94680, Note_on_c, 0, 59, 57
1, 94680, Note_on_c, 0, 56, 51
1, 94691, Control_c, 0, 64, 0
1, 94771, Control_c, 0, 64, 127
1, 94920, Tempo, 614880
1, 95040, Tempo, 522330
1, 95040, Note_on_c, 0, 56, 0
1, 95040, Note_on_c, 0, 49, 0
1, 95040, Note_on_c, 0, 65, 0
1, 95040, Note_on_c, 0, 77, 0
1, 95040, Note_on_c, 0, 74, 0
1, 95040, Note_on_c, 0, 68, 0
1, 95040, Note_on_c, 0, 62, 0
1, 95040, Note_on_c, 0, 59, 0
1, 95040, Control_c, 0, 64, 0
1, 95040, Note_on_c, 0, 66, 79
1, 95040, Note_on_c, 0, 63, 71
1, 95040, Note_on_c, 0, 58, 71
1, 95120, Tempo, 513655
1, 95131, Control_c, 0, 64, 127
1, 95160, Note_on_c, 0, 78, 73
1, 95160, Note_on_c, 0, 82, 73
1, 95160, Note_on_c, 0, 90, 81
1, 95160, Note_on_c, 0, 87, 81
1, 95200, Tempo, 511553
1, 95220, Note_on_c, 0, 58, 0
1, 95220, Note_on_c, 0, 66, 0
1, 95220, Note_on_c, 0, 63, 0
1, 95220, Note_on_c, 0, 49, 71
1, 95250, Note_on_c, 0, 82, 0
1, 95250, Note_on_c, 0, 87, 0
1, 95250, Note_on_c, 0, 78, 0
1, 95250, Note_on_c, 0, 90, 0
1, 95280, Tempo, 509468
1, 95280, Note_on_c, 0, 92, 76
1, 95280, Note_on_c, 0, 80, 67
1, 95380, Tempo, 507357
1, 95400, Note_on_c, 0, 49, 0
1, 95400, Note_on_c, 0, 66, 79
1, 95400, Note_on_c, 0, 63, 71
1, 95400, Note_on_c, 0, 58, 71
1, 95411, Control_c, 0, 64, 0
1, 95460, Tempo, 505263
1, 95463, Control_c, 0, 64, 127
1, 95520, Tempo, 536529
1, 95520, Note_on_c, 0, 80, 0
1, 95520, Note_on_c, 0, 92, 0
1, 95520, Note_on_c, 0, 93, 89
1, 95520, Note_on_c, 0, 90, 89
1, 95520, Note_on_c, 0, 87, 89
1, 95520, Note_on_c, 0, 81, 89
1, 95580, Note_on_c, 0, 63, 0
1, 95580, Note_on_c, 0, 58, 0
1, 95580, Note_on_c, 0, 66, 0
1, 95580, Note_on_c, 0, 37, 69
1, 95610, Note_on_c, 0, 90, 0
1, 95610, Note_on_c, 0, 81, 0
1, 95610, Note_on_c, 0, 93, 0
1, 95610, Note_on_c, 0, 87, 0
1, 95640, Tempo, 561430
1, 95640, Note_on_c, 0, 94, 81
1, 95640, Note_on_c, 0, 82, 73
1, 95730, Note_on_c, 0, 82, 0
1, 95730, Note_on_c, 0, 94, 0
1, 95760, Tempo, 526778
1, 95760, Note_on_c, 0, 37, 0
1, 95760, Note_on_c, 0, 99, 94
1, 95760, Note_on_c, 0, 90, 90
1, 95760, Note_on_c, 0, 87, 90
1, 95760, Note_on_c, 0, 56, 75
1, 95760, Note_on_c, 0, 63, 75
1, 95760, Note_on_c, 0, 66, 84
1, 95766, Control_c, 0, 64, 0
1, 95780, Tempo, 524567
1, 95800, Tempo, 522330
1, 95811, Control_c, 0, 64, 127
1, 95820, Tempo, 520156
1, 95840, Tempo, 517956
1, 95850, Note_on_c, 0, 87, 0
1, 95850, Note_on_c, 0, 99, 0
1, 95850, Note_on_c, 0, 90, 0
1, 95860, Tempo, 515818
1, 95880, Tempo, 511553
1, 95880, Note_on_c, 0, 98, 82
1, 95880, Note_on_c, 0, 86, 74
1, 95940, Note_on_c, 0, 56, 0
1, 95940, Note_on_c, 0, 66, 0
1, 95940, Note_on_c, 0, 63, 0
1, 95940, Note_on_c, 0, 49, 64
1, 95970, Note_on_c, 0, 98, 0
1, 95970, Note_on_c, 0, 86, 0
1, 95980, Tempo, 507357
1, 96000, Note_on_c, 0, 97, 90
1, 96000, Note_on_c, 0, 85, 80
1, 96080, Tempo, 505263
1, 96090, Note_on_c, 0, 85, 0
1, 96090, Note_on_c, 0, 97, 0
1, 96120, Note_on_c, 0, 49, 0
1, 96120, Note_on_c, 0, 84, 74
1, 96120, Note_on_c, 0, 96, 83
1, 96120, Note_on_c, 0, 56, 63
1, 96120, Note_on_c, 0, 63, 63
1, 96120, Note_on_c, 0, 66, 72
1, 96127, Control_c, 0, 64, 0
1, 96140, Tempo, 505263
1, 96160, Control_c, 0, 64, 127
1, 96210, Note_on_c, 0, 96, 0
1, 96210, Note_on_c, 0, 84, 0
1, 96220, Tempo, 507357
1, 96240, Note_on_c, 0, 83, 76
1, 96240, Note_on_c, 0, 95, 85
1, 96300, Tempo, 509468
1, 96300, Note_on_c, 0, 63, 0
1, 96300, Note_on_c, 0, 66, 0
1, 96300, Note_on_c, 0, 56, 0
1, 96300, Note_on_c, 0, 37, 63
1, 96330, Note_on_c, 0, 83, 0
1, 96330, Note_on_c, 0, 95, 0
1, 96360, Note_on_c, 0, 94, 82
1, 96360, Note_on_c, 0, 82, 74
1, 96380, Tempo, 511553
1, 96406, Control_c, 0, 64, 0
1, 96450, Note_on_c, 0, 82, 0
1, 96450, Note_on_c, 0, 94, 0
1, 96460, Tempo, 513655
1, 96480, Tempo, 520156
1, 96480, Note_on_c, 0, 37, 0
1, 96480, Note_on_c, 0, 93, 85
1, 96480, Note_on_c, 0, 89, 85
1, 96480, Note_on_c, 0, 81, 76
1, 96480, Note_on_c, 0, 65, 64
1, 96480, Note_on_c, 0, 61, 57
1, 96480, Note_on_c, 0, 56, 57
1, 96531, Control_c, 0, 64, 127
1, 96570, Note_on_c, 0, 81, 0
1, 96570, Note_on_c, 0, 93, 0
1, 96570, Note_on_c, 0, 89, 0
1, 96600, Note_on_c, 0, 92, 75
1, 96600, Note_on_c, 0, 80, 67
1, 96657, Control_c, 0, 64, 0
1, 96660, Note_on_c, 0, 65, 0
1, 96660, Note_on_c, 0, 56, 0
1, 96660, Note_on_c, 0, 61, 0
1, 96660, Note_on_c, 0, 49, 54
1, 96690, Note_on_c, 0, 92, 0
1, 96690, Note_on_c, 0, 80, 0
1, 96720, Note_on_c, 0, 85, 74
1, 96720, Note_on_c, 0, 97, 82
1, 96840, Tempo, 503271
1, 96840, Note_on_c, 0, 49, 0
1, 96840, Note_on_c, 0, 66, 55
1, 96840, Note_on_c, 0, 63, 50
1, 96840, Note_on_c, 0, 57, 50
1, 96909, Control_c, 0, 64, 127
1, 96960, Note_on_c, 0, 97, 0
1, 96960, Note_on_c, 0, 85, 0
1, 96960, Note_on_c, 0, 96, 65
1, 96960, Note_on_c, 0, 90, 59
1, 96960, Note_on_c, 0, 84, 57
1, 97020, Note_on_c, 0, 63, 0
1, 97020, Note_on_c, 0, 57, 0
1, 97020, Note_on_c, 0, 66, 0
1, 97020, Note_on_c, 0, 37, 44
1, 97080, Note_on_c, 0, 95, 74
1, 97080, Note_on_c, 0, 83, 65
1, 97166, Control_c, 0, 64, 0
1, 97170, Note_on_c, 0, 83, 0
1, 97170, Note_on_c, 0, 95, 0
1, 97200, Tempo, 531303
1, 97200, Note_on_c, 0, 96, 0
1, 97200, Note_on_c, 0, 84, 0
1, 97200, Note_on_c, 0, 90, 0
1, 97200, Note_on_c, 0, 37, 0
1, 97200, Note_on_c, 0, 94, 70
1, 97200, Note_on_c, 0, 89, 70
1, 97200, Note_on_c, 0, 82, 63
1, 97200, Note_on_c, 0, 65, 52
1, 97200, Note_on_c, 0, 61, 45
1, 97200, Note_on_c, 0, 58, 45
1, 97229, Control_c, 0, 64, 127
1, 97290, Note_on_c, 0, 82, 0
1, 97290, Note_on_c, 0, 94, 0
1, 97290, Note_on_c, 0, 89, 0
1, 97320, Note_on_c, 0, 92, 66
1, 97320, Note_on_c, 0, 80, 59
1, 97380, Note_on_c, 0, 65, 0
1, 97380, Note_on_c, 0, 58, 0
1, 97380, Note_on_c, 0, 61, 0
1, 97380, Note_on_c, 0, 49, 45
1, 97410, Note_on_c, 0, 92, 0
1, 97410, Note_on_c, 0, 80, 0
1, 97440, Tempo, 550257
1, 97440, Note_on_c, 0, 94, 63
1, 97440, Note_on_c, 0, 82, 55
1, 97530, Note_on_c, 0, 82, 0
1, 97530, Note_on_c, 0, 94, 0
1, 97560, Tempo, 590203
1, 97560, Note_on_c, 0, 49, 0
1, 97560, Note_on_c, 0, 89, 63
1, 97560, Note_on_c, 0, 86, 63
1, 97560, Note_on_c, 0, 80, 56
1, 97560, Note_on_c, 0, 77, 56
1, 97560, Note_on_c, 0, 62, 51
1, 97560, Note_on_c, 0, 71, 57
1, 97560, Note_on_c, 0, 68, 57
1, 97560, Note_on_c, 0, 59, 51
1, 97567, Control_c, 0, 64, 0
1, 97651, Control_c, 0, 64, 127
1, 97900, Tempo, 495540
1, 97920, Note_on_c, 0, 59, 0
1, 97920, Note_on_c, 0, 89, 0
1, 97920, Note_on_c, 0, 62, 0
1, 97920, Note_on_c, 0, 86, 0
1, 97920, Note_on_c, 0, 80, 0
1, 97920, Note_on_c, 0, 77, 0
1, 97920, Note_on_c, 0, 71, 0
1, 97920, Note_on_c, 0, 68, 0
1, 97920, Note_on_c, 0, 50, 51
1, 97920, Control_c, 0, 64, 0
1, 97920, Note_on_c, 0, 37, 41
1, 97980, Tempo, 493462
1, 98010, Note_on_c, 0, 37, 0
1, 98010, Note_on_c, 0, 50, 0
1, 98011, Control_c, 0, 64, 127
1, 98040, Tempo, 491400
1, 98040, Note_on_c, 0, 54, 47
1, 98040, Note_on_c, 0, 51, 47
1, 98040, Note_on_c, 0, 44, 36
1, 98100, Tempo, 489356
1, 98130, Note_on_c, 0, 44, 0
1, 98130, Note_on_c, 0, 51, 0
1, 98130, Note_on_c, 0, 54, 0
1, 98160, Tempo, 487329
1, 98160, Note_on_c, 0, 53, 47
1, 98160, Note_on_c, 0, 37, 41
1, 98220, Tempo, 485319
1, 98250, Note_on_c, 0, 37, 0
1, 98250, Note_on_c, 0, 53, 0
1, 98280, Tempo, 483325
1, 98280, Note_on_c, 0, 58, 54
1, 98280, Note_on_c, 0, 54, 54
1, 98280, Note_on_c, 0, 44, 36
1, 98370, Note_on_c, 0, 44, 0
1, 98370, Note_on_c, 0, 54, 0
1, 98370, Note_on_c, 0, 58, 0
1, 98400, Note_on_c, 0, 57, 52
1, 98400, Note_on_c, 0, 37, 43
1, 98490, Note_on_c, 0, 37, 0
1, 98490, Note_on_c, 0, 57, 0
1, 98520, Tempo, 512864
1, 98520, Note_on_c, 0, 58, 52
1, 98520, Note_on_c, 0, 61, 52
1, 98520, Note_on_c, 0, 44, 40
1, 98610, Note_on_c, 0, 44, 0
1, 98610, Note_on_c, 0, 61, 0
1, 98610, Note_on_c, 0, 58, 0
1, 98640, Tempo, 483325
1, 98640, Note_on_c, 0, 59, 52
1, 98640, Note_on_c, 0, 37, 45
1, 98657, Control_c, 0, 64, 0
1, 98730, Note_on_c, 0, 37, 0
1, 98730, Note_on_c, 0, 59, 0
1, 98737, Control_c, 0, 64, 127
1, 98760, Note_on_c, 0, 60, 46
1, 98760, Note_on_c, 0, 63, 60
1, 98760, Note_on_c, 0, 44, 41
1, 98850, Note_on_c, 0, 44, 0
1, 98850, Note_on_c, 0, 63, 0
1, 98850, Note_on_c, 0, 60, 0
1, 98880, Note_on_c, 0, 58, 41
1, 98880, Note_on_c, 0, 61, 52
1, 98880, Note_on_c, 0, 49, 41
1, 98970, Note_on_c, 0, 49, 0
1, 98970, Note_on_c, 0, 61, 0
1, 98970, Note_on_c, 0, 58, 0
1, 99000, Tempo, 471661
1, 99000, Note_on_c, 0, 56, 41
1, 99000, Note_on_c, 0, 60, 52
1, 99000, Note_on_c, 0, 56, 44
1, 99020, Tempo, 479348
1, 99060, Tempo, 481309
1, 99090, Note_on_c, 0, 56, 0
1, 99090, Note_on_c, 0, 60, 0
1, 99090, Note_on_c, 0, 56, 0
1, 99100, Tempo, 483325
1, 99120, Note_on_c, 0, 55, 52
1, 99120, Note_on_c, 0, 49, 41
1, 99140, Tempo, 485319
1, 99180, Tempo, 487329
1, 99210, Note_on_c, 0, 49, 0
1, 99210, Note_on_c, 0, 55, 0
1, 99220, Tempo, 489356
1, 99240, Note_on_c, 0, 54, 51
1, 99240, Note_on_c, 0, 58, 51
1, 99240, Note_on_c, 0, 44, 41
1, 99260, Tempo, 491400
1, 99300, Tempo, 493462
1, 99330, Note_on_c, 0, 44, 0
1, 99330, Note_on_c, 0, 58, 0
1, 99330, Note_on_c, 0, 54, 0
1, 99340, Tempo, 493462
1, 99360, Note_on_c, 0, 52, 51
1, 99360, Note_on_c, 0, 37, 41
1, 99370, Control_c, 0, 64, 0
1, 99403, Control_c, 0, 64, 127
1, 99420, Tempo, 491400
1, 99450, Note_on_c, 0, 37, 0
1, 99450, Note_on_c, 0, 52, 0
1, 99480, Note_on_c, 0, 53, 47
1, 99480, Note_on_c, 0, 56, 47
1, 99480, Note_on_c, 0, 44, 36
1, 99500, Tempo, 489356
1, 99570, Note_on_c, 0, 44, 0
1, 99570, Note_on_c, 0, 56, 0
1, 99570, Note_on_c, 0, 53, 0
1, 99580, Tempo, 487329
1, 99600, Note_on_c, 0, 55, 47
1, 99600, Note_on_c, 0, 37, 41
1, 99660, Tempo, 485319
1, 99690, Note_on_c, 0, 37, 0
1, 99690, Note_on_c, 0, 55, 0
1, 99720, Tempo, 483325
1, 99720, Note_on_c, 0, 56, 56
1, 99720, Note_on_c, 0, 60, 56
1, 99720, Note_on_c, 0, 44, 36
1, 99810, Note_on_c, 0, 44, 0
1, 99810, Note_on_c, 0, 60, 0
1, 99810, Note_on_c, 0, 56, 0
1, 99840, Note_on_c, 0, 59, 53
1, 99840, Note_on_c, 0, 37, 43
1, 99930, Note_on_c, 0, 37, 0
1, 99930, Note_on_c, 0, 59, 0
1, 99960, Tempo, 512864
1, 99960, Note_on_c, 0, 60, 53
1, 99960, Note_on_c, 0, 63, 53
1, 99960, Note_on_c, 0, 44, 40
1, 100050, Note_on_c, 0, 44, 0
1, 100050, Note_on_c, 0, 63, 0
1, 100050, Note_on_c, 0, 60, 0
1, 100080, Tempo, 483325
1, 100080, Note_on_c, 0, 60, 52
1, 100080, Note_on_c, 0, 37, 45
1, 100103, Control_c, 0, 64, 0
1, 100167, Control_c, 0, 64, 127
1, 100170, Note_on_c, 0, 37, 0
1, 100170, Note_on_c, 0, 60, 0
1, 100200, Note_on_c, 0, 61, 46
1, 100200, Note_on_c, 0, 65, 60
1, 100200, Note_on_c, 0, 44, 41
1, 100290, Note_on_c, 0, 44, 0
1, 100290, Note_on_c, 0, 65, 0
1, 100290, Note_on_c, 0, 61, 0
1, 100320, Note_on_c, 0, 60, 44
1, 100320, Note_on_c, 0, 63, 55
1, 100320, Note_on_c, 0, 49, 41
1, 100400, Tempo, 481309
1, 100410, Note_on_c, 0, 49, 0
1, 100410, Note_on_c, 0, 63, 0
1, 100410, Note_on_c, 0, 60, 0
1, 100440, Note_on_c, 0, 58, 45
1, 100440, Note_on_c, 0, 61, 57
1, 100440, Note_on_c, 0, 56, 44
1, 100460, Tempo, 483325
1, 100500, Tempo, 485319
1, 100530, Note_on_c, 0, 56, 0
1, 100530, Note_on_c, 0, 61, 0
1, 100530, Note_on_c, 0, 58, 0
1, 100560, Tempo, 487329
1, 100560, Note_on_c, 0, 57, 53
1, 100560, Note_on_c, 0, 49, 41
1, 100600, Tempo, 489356
1, 100640, Tempo, 491400
1, 100650, Note_on_c, 0, 49, 0
1, 100650, Note_on_c, 0, 57, 0
1, 100680, Note_on_c, 0, 56, 53
1, 100680, Note_on_c, 0, 60, 53
1, 100680, Note_on_c, 0, 44, 41
1, 100700, Tempo, 493462
1, 100740, Tempo, 495540
1, 100770, Note_on_c, 0, 44, 0
1, 100770, Note_on_c, 0, 60, 0
1, 100770, Note_on_c, 0, 56, 0
1, 100780, Tempo, 497636
1, 100800, Tempo, 482664
1, 100800, Note_on_c, 0, 53, 51
1, 100800, Note_on_c, 0, 37, 41
1, 100821, Control_c, 0, 64, 0
1, 100852, Control_c, 0, 64, 127
1, 100880, Tempo, 481000
1, 100890, Note_on_c, 0, 37, 0
1, 100890, Note_on_c, 0, 53, 0
1, 100920, Note_on_c, 0, 54, 47
1, 100920, Note_on_c, 0, 58, 47
1, 100920, Note_on_c, 0, 44, 36
1, 100944, Tempo, 479272
1, 101010, Note_on_c, 0, 44, 0
1, 101010, Note_on_c, 0, 58, 0
1, 101010, Note_on_c, 0, 54, 0
1, 101024, Tempo, 477593
1, 101040, Note_on_c, 0, 57, 47
1, 101040, Note_on_c, 0, 37, 41
1, 101092, Tempo, 475926
1, 101130, Note_on_c, 0, 37, 0
1, 101130, Note_on_c, 0, 57, 0
1, 101160, Tempo, 474346
1, 101160, Note_on_c, 0, 58, 54
1, 101160, Note_on_c, 0, 61, 54
1, 101160, Note_on_c, 0, 44, 36
1, 101250, Note_on_c, 0, 44, 0
1, 101250, Note_on_c, 0, 61, 0
1, 101250, Note_on_c, 0, 58, 0
1, 101280, Note_on_c, 0, 60, 52
1, 101280, Note_on_c, 0, 37, 43
1, 101370, Note_on_c, 0, 37, 0
1, 101370, Note_on_c, 0, 60, 0
1, 101400, Tempo, 505817
1, 101400, Note_on_c, 0, 65, 52
1, 101400, Note_on_c, 0, 61, 52
1, 101400, Note_on_c, 0, 44, 40
1, 101490, Note_on_c, 0, 44, 0
1, 101490, Note_on_c, 0, 61, 0
1, 101490, Note_on_c, 0, 65, 0
1, 101520, Tempo, 474346
1, 101520, Note_on_c, 0, 62, 52
1, 101520, Note_on_c, 0, 37, 45
1, 101542, Control_c, 0, 64, 0
1, 101610, Note_on_c, 0, 37, 0
1, 101610, Note_on_c, 0, 62, 0
1, 101617, Control_c, 0, 64, 127
1, 101640, Note_on_c, 0, 66, 60
1, 101640, Note_on_c, 0, 63, 46
1, 101640, Note_on_c, 0, 44, 41
1, 101730, Note_on_c, 0, 44, 0
1, 101730, Note_on_c, 0, 63, 0
1, 101730, Note_on_c, 0, 66, 0
1, 101760, Note_on_c, 0, 65, 52
1, 101760, Note_on_c, 0, 61, 41
1, 101760, Note_on_c, 0, 49, 41
1, 101850, Note_on_c, 0, 49, 0
1, 101850, Note_on_c, 0, 61, 0
1, 101850, Note_on_c, 0, 65, 0
1, 101880, Tempo, 471661
1, 101880, Note_on_c, 0, 63, 52
1, 101880, Note_on_c, 0, 60, 41
1, 101880, Note_on_c, 0, 56, 44
1, 101960, Tempo, 473560
1, 101970, Note_on_c, 0, 56, 0
1, 101970, Note_on_c, 0, 60, 0
1, 101970, Note_on_c, 0, 63, 0
1, 102000, Note_on_c, 0, 59, 52
1, 102000, Note_on_c, 0, 49, 41
1, 102020, Tempo, 475473
1, 102090, Note_on_c, 0, 49, 0
1, 102090, Note_on_c, 0, 59, 0
1, 102100, Tempo, 477403
1, 102120, Tempo, 499750
1, 102120, Note_on_c, 0, 61, 51
1, 102120, Note_on_c, 0, 58, 51
1, 102120, Note_on_c, 0, 44, 41
1, 102210, Note_on_c, 0, 44, 0
1, 102210, Note_on_c, 0, 58, 0
1, 102210, Note_on_c, 0, 61, 0
1, 102220, Tempo, 481309
1, 102240, Tempo, 474346
1, 102240, Note_on_c, 0, 64, 52
1, 102240, Note_on_c, 0, 37, 45
1, 102244, Control_c, 0, 64, 0
1, 102307, Control_c, 0, 64, 127
1, 102330, Note_on_c, 0, 37, 0
1, 102330, Note_on_c, 0, 64, 0
1, 102360, Note_on_c, 0, 68, 60
1, 102360, Note_on_c, 0, 65, 46
1, 102360, Note_on_c, 0, 44, 41
1, 102450, Note_on_c, 0, 44, 0
1, 102450, Note_on_c, 0, 65, 0
1, 102450, Note_on_c, 0, 68, 0
1, 102480, Note_on_c, 0, 66, 52
1, 102480, Note_on_c, 0, 63, 41
1, 102480, Note_on_c, 0, 49, 41
1, 102570, Note_on_c, 0, 49, 0
1, 102570, Note_on_c, 0, 63, 0
1, 102570, Note_on_c, 0, 66, 0
1, 102600, Tempo, 471661
1, 102600, Note_on_c, 0, 65, 52
1, 102600, Note_on_c, 0, 61, 41
1, 102600, Note_on_c, 0, 56, 44
1, 102680, Tempo, 473560
1, 102690, Note_on_c, 0, 56, 0
1, 102690, Note_on_c, 0, 61, 0
1, 102690, Note_on_c, 0, 65, 0
1, 102720, Note_on_c, 0, 59, 52
1, 102720, Note_on_c, 0, 49, 41
1, 102740, Tempo, 475473
1, 102810, Note_on_c, 0, 49, 0
1, 102810, Note_on_c, 0, 59, 0
1, 102820, Tempo, 477403
1, 102840, Note_on_c, 0, 63, 51
1, 102840, Note_on_c, 0, 60, 51
1, 102840, Note_on_c, 0, 44, 41
1, 102852, Tempo, 479348
1, 102864, Tempo, 481309
1, 102880, Tempo, 485319
1, 102892, Tempo, 489356
1, 102904, Tempo, 493462
1, 102920, Tempo, 497636
1, 102930, Note_on_c, 0, 44, 0
1, 102930, Note_on_c, 0, 60, 0
1, 102930, Note_on_c, 0, 63, 0
1, 102932, Tempo, 501882
1, 102944, Tempo, 506244
1, 102960, Tempo, 474346
1, 102960, Note_on_c, 0, 65, 52
1, 102960, Note_on_c, 0, 37, 45
1, 102979, Control_c, 0, 64, 0
1, 103023, Control_c, 0, 64, 127
1, 103050, Note_on_c, 0, 37, 0
1, 103050, Note_on_c, 0, 65, 0
1, 103080, Note_on_c, 0, 70, 60
1, 103080, Note_on_c, 0, 66, 46
1, 103080, Note_on_c, 0, 44, 41
1, 103170, Note_on_c, 0, 44, 0
1, 103170, Note_on_c, 0, 66, 0
1, 103170, Note_on_c, 0, 70, 0
1, 103200, Note_on_c, 0, 68, 52
1, 103200, Note_on_c, 0, 65, 41
1, 103200, Note_on_c, 0, 49, 41
1, 103290, Note_on_c, 0, 49, 0
1, 103290, Note_on_c, 0, 65, 0
1, 103290, Note_on_c, 0, 68, 0
1, 103320, Tempo, 471661
1, 103320, Note_on_c, 0, 66, 52
1, 103320, Note_on_c, 0, 63, 41
1, 103320, Note_on_c, 0, 56, 44
1, 103400, Tempo, 473560
1, 103410, Note_on_c, 0, 56, 0
1, 103410, Note_on_c, 0, 63, 0
1, 103410, Note_on_c, 0, 66, 0
1, 103440, Note_on_c, 0, 62, 52
1, 103440, Note_on_c, 0, 49, 41
1, 103460, Tempo, 475473
1, 103530, Note_on_c, 0, 49, 0
1, 103530, Note_on_c, 0, 62, 0
1, 103540, Tempo, 477403
1, 103560, Note_on_c, 0, 65, 51
1, 103560, Note_on_c, 0, 61, 51
1, 103560, Note_on_c, 0, 44, 41
1, 103600, Tempo, 479348
1, 103650, Note_on_c, 0, 44, 0
1, 103650, Note_on_c, 0, 61, 0
1, 103650, Note_on_c, 0, 65, 0
1, 103660, Tempo, 481309
1, 103680, Tempo, 473709
1, 103680, Note_on_c, 0, 62, 53
1, 103680, Note_on_c, 0, 37, 43
1, 103720, Control_c, 0, 64, 0
1, 103760, Tempo, 472069
1, 103770, Note_on_c, 0, 62, 0
1, 103771, Control_c, 0, 64, 127
1, 103800, Note_on_c, 0, 66, 50
1, 103800, Note_on_c, 0, 63, 50
1, 103800, Note_on_c, 0, 49, 37
1, 103824, Tempo, 470404
1, 103890, Note_on_c, 0, 49, 0
1, 103890, Note_on_c, 0, 63, 0
1, 103890, Note_on_c, 0, 66, 0
1, 103904, Tempo, 468750
1, 103920, Note_on_c, 0, 37, 0
1, 103920, Note_on_c, 0, 65, 50
1, 103920, Note_on_c, 0, 54, 64
1, 103972, Tempo, 467108
1, 104010, Note_on_c, 0, 65, 0
1, 104040, Tempo, 465513
1, 104040, Note_on_c, 0, 70, 57
1, 104040, Note_on_c, 0, 66, 57
1, 104040, Note_on_c, 0, 42, 39
1, 104130, Note_on_c, 0, 42, 0
1, 104130, Note_on_c, 0, 66, 0
1, 104130, Note_on_c, 0, 70, 0
1, 104160, Note_on_c, 0, 54, 0
1, 104160, Note_on_c, 0, 69, 53
1, 104160, Note_on_c, 0, 51, 62
1, 104250, Note_on_c, 0, 69, 0
1, 104280, Tempo, 496483
1, 104280, Note_on_c, 0, 70, 54
1, 104280, Note_on_c, 0, 73, 54
1, 104280, Note_on_c, 0, 39, 42
1, 104370, Note_on_c, 0, 39, 0
1, 104370, Note_on_c, 0, 73, 0
1, 104370, Note_on_c, 0, 70, 0
1, 104400, Tempo, 465513
1, 104400, Note_on_c, 0, 51, 0
1, 104400, Note_on_c, 0, 71, 54
1, 104400, Note_on_c, 0, 37, 47
1, 104490, Note_on_c, 0, 71, 0
1, 104520, Note_on_c, 0, 72, 50
1, 104520, Note_on_c, 0, 75, 63
1, 104520, Note_on_c, 0, 49, 43
1, 104610, Note_on_c, 0, 49, 0
1, 104610, Note_on_c, 0, 75, 0
1, 104610, Note_on_c, 0, 72, 0
1, 104640, Note_on_c, 0, 37, 0
1, 104640, Note_on_c, 0, 70, 44
1, 104640, Note_on_c, 0, 73, 54
1, 104640, Note_on_c, 0, 56, 72
1, 104730, Note_on_c, 0, 73, 0
1, 104730, Note_on_c, 0, 70, 0
1, 104760, Tempo, 462927
1, 104760, Note_on_c, 0, 68, 44
1, 104760, Note_on_c, 0, 72, 54
1, 104760, Note_on_c, 0, 44, 45
1, 104840, Tempo, 464792
1, 104850, Note_on_c, 0, 44, 0
1, 104850, Note_on_c, 0, 72, 0
1, 104850, Note_on_c, 0, 68, 0
1, 104880, Note_on_c, 0, 56, 0
1, 104880, Note_on_c, 0, 67, 55
1, 104880, Note_on_c, 0, 60, 67
1, 104900, Tempo, 466672
1, 104970, Note_on_c, 0, 67, 0
1, 104980, Tempo, 468567
1, 105000, Note_on_c, 0, 66, 54
1, 105000, Note_on_c, 0, 70, 54
1, 105000, Note_on_c, 0, 48, 46
1, 105040, Tempo, 470478
1, 105090, Note_on_c, 0, 48, 0
1, 105090, Note_on_c, 0, 70, 0
1, 105090, Note_on_c, 0, 66, 0
1, 105100, Tempo, 472404
1, 105120, Tempo, 473709
1, 105120, Note_on_c, 0, 60, 0
1, 105120, Note_on_c, 0, 64, 59
1, 105120, Note_on_c, 0, 37, 45
1, 105140, Control_c, 0, 64, 0
1, 105200, Tempo, 472069
1, 105210, Note_on_c, 0, 64, 0
1, 105211, Control_c, 0, 64, 127
1, 105240, Note_on_c, 0, 65, 54
1, 105240, Note_on_c, 0, 68, 54
1, 105240, Note_on_c, 0, 49, 42
1, 105264, Tempo, 470404
1, 105330, Note_on_c, 0, 49, 0
1, 105330, Note_on_c, 0, 68, 0
1, 105330, Note_on_c, 0, 65, 0
1, 105344, Tempo, 468750
1, 105360, Note_on_c, 0, 37, 0
1, 105360, Note_on_c, 0, 67, 54
1, 105360, Note_on_c, 0, 56, 73
1, 105412, Tempo, 467108
1, 105450, Note_on_c, 0, 67, 0
1, 105480, Tempo, 465513
1, 105480, Note_on_c, 0, 68, 65
1, 105480, Note_on_c, 0, 72, 65
1, 105480, Note_on_c, 0, 44, 43
1, 105570, Note_on_c, 0, 44, 0
1, 105570, Note_on_c, 0, 72, 0
1, 105570, Note_on_c, 0, 68, 0
1, 105600, Note_on_c, 0, 56, 0
1, 105600, Note_on_c, 0, 71, 62
1, 105600, Note_on_c, 0, 53, 67
1, 105690, Note_on_c, 0, 71, 0
1, 105720, Tempo, 496483
1, 105720, Note_on_c, 0, 72, 62
1, 105720, Note_on_c, 0, 75, 62
1, 105720, Note_on_c, 0, 41, 45
1, 105810, Note_on_c, 0, 41, 0
1, 105810, Note_on_c, 0, 75, 0
1, 105810, Note_on_c, 0, 72, 0
1, 105840, Tempo, 465513
1, 105840, Note_on_c, 0, 53, 0
1, 105840, Note_on_c, 0, 72, 61
1, 105840, Note_on_c, 0, 37, 53
1, 105851, Control_c, 0, 64, 0
1, 105912, Control_c, 0, 64, 127
1, 105930, Note_on_c, 0, 72, 0
1, 105960, Note_on_c, 0, 73, 54
1, 105960, Note_on_c, 0, 77, 69
1, 105960, Note_on_c, 0, 49, 46
1, 106050, Note_on_c, 0, 49, 0
1, 106050, Note_on_c, 0, 77, 0
1, 106050, Note_on_c, 0, 73, 0
1, 106080, Note_on_c, 0, 37, 0
1, 106080, Note_on_c, 0, 72, 52
1, 106080, Note_on_c, 0, 75, 65
1, 106080, Note_on_c, 0, 58, 80
1, 106170, Note_on_c, 0, 75, 0
1, 106170, Note_on_c, 0, 72, 0
1, 106200, Tempo, 462927
1, 106200, Note_on_c, 0, 70, 53
1, 106200, Note_on_c, 0, 73, 67
1, 106200, Note_on_c, 0, 46, 51
1, 106280, Tempo, 464792
1, 106290, Note_on_c, 0, 46, 0
1, 106290, Note_on_c, 0, 73, 0
1, 106290, Note_on_c, 0, 70, 0
1, 106320, Note_on_c, 0, 58, 0
1, 106320, Note_on_c, 0, 69, 63
1, 106320, Note_on_c, 0, 61, 72
1, 106340, Tempo, 466672
1, 106410, Note_on_c, 0, 69, 0
1, 106420, Tempo, 468567
1, 106440, Note_on_c, 0, 68, 62
1, 106440, Note_on_c, 0, 72, 62
1, 106440, Note_on_c, 0, 49, 47
1, 106480, Tempo, 470478
1, 106530, Note_on_c, 0, 49, 0
1, 106530, Note_on_c, 0, 72, 0
1, 106530, Note_on_c, 0, 68, 0
1, 106540, Tempo, 472404
1, 106560, Tempo, 463285
1, 106560, Note_on_c, 0, 61, 0
1, 106560, Note_on_c, 0, 65, 63
1, 106560, Note_on_c, 0, 37, 51
1, 106576, Control_c, 0, 64, 0
1, 106640, Tempo, 461681
1, 106650, Note_on_c, 0, 65, 0
1, 106651, Control_c, 0, 64, 127
1, 106680, Note_on_c, 0, 66, 61
1, 106680, Note_on_c, 0, 70, 61
1, 106680, Note_on_c, 0, 49, 45
1, 106704, Tempo, 460052
1, 106770, Note_on_c, 0, 49, 0
1, 106770, Note_on_c, 0, 70, 0
1, 106770, Note_on_c, 0, 66, 0
1, 106784, Tempo, 458435
1, 106800, Note_on_c, 0, 37, 0
1, 106800, Note_on_c, 0, 69, 61
1, 106800, Note_on_c, 0, 58, 83
1, 106852, Tempo, 456830
1, 106890, Note_on_c, 0, 69, 0
1, 106920, Tempo, 455270
1, 106920, Note_on_c, 0, 70, 70
1, 106920, Note_on_c, 0, 73, 70
1, 106920, Note_on_c, 0, 46, 46
1, 107010, Note_on_c, 0, 46, 0
1, 107010, Note_on_c, 0, 73, 0
1, 107010, Note_on_c, 0, 70, 0
1, 107040, Note_on_c, 0, 58, 0
1, 107040, Note_on_c, 0, 72, 66
1, 107040, Note_on_c, 0, 54, 81
1, 107130, Note_on_c, 0, 72, 0
1, 107160, Tempo, 485555
1, 107160, Note_on_c, 0, 77, 66
1, 107160, Note_on_c, 0, 73, 66
1, 107160, Note_on_c, 0, 42, 52
1, 107250, Note_on_c, 0, 42, 0
1, 107250, Note_on_c, 0, 73, 0
1, 107250, Note_on_c, 0, 77, 0
1, 107280, Tempo, 455270
1, 107280, Note_on_c, 0, 54, 0
1, 107280, Note_on_c, 0, 74, 66
1, 107280, Note_on_c, 0, 37, 59
1, 107285, Control_c, 0, 64, 0
1, 107355, Control_c, 0, 64, 127
1, 107370, Note_on_c, 0, 74, 0
1, 107400, Note_on_c, 0, 78, 79
1, 107400, Note_on_c, 0, 75, 62
1, 107400, Note_on_c, 0, 49, 53
1, 107490, Note_on_c, 0, 49, 0
1, 107490, Note_on_c, 0, 75, 0
1, 107490, Note_on_c, 0, 78, 0
1, 107520, Note_on_c, 0, 37, 0
1, 107520, Note_on_c, 0, 77, 69
1, 107520, Note_on_c, 0, 73, 54
1, 107520, Note_on_c, 0, 63, 89
1, 107610, Note_on_c, 0, 73, 0
1, 107610, Note_on_c, 0, 77, 0
1, 107640, Tempo, 452728
1, 107640, Note_on_c, 0, 75, 69
1, 107640, Note_on_c, 0, 72, 54
1, 107640, Note_on_c, 0, 51, 57
1, 107720, Tempo, 454545
1, 107730, Note_on_c, 0, 51, 0
1, 107730, Note_on_c, 0, 72, 0
1, 107730, Note_on_c, 0, 75, 0
1, 107760, Note_on_c, 0, 63, 0
1, 107760, Note_on_c, 0, 71, 70
1, 107760, Note_on_c, 0, 66, 84
1, 107780, Tempo, 456413
1, 107850, Note_on_c, 0, 71, 0
1, 107860, Tempo, 458260
1, 107880, Note_on_c, 0, 73, 69
1, 107880, Note_on_c, 0, 70, 69
1, 107880, Note_on_c, 0, 54, 57
1, 107920, Tempo, 460123
1, 107970, Note_on_c, 0, 54, 0
1, 107970, Note_on_c, 0, 70, 0
1, 107970, Note_on_c, 0, 73, 0
1, 107980, Tempo, 462000
1, 108000, Tempo, 463285
1, 108000, Note_on_c, 0, 66, 0
1, 108000, Note_on_c, 0, 76, 74
1, 108000, Note_on_c, 0, 37, 59
1, 108035, Control_c, 0, 64, 0
1, 108080, Tempo, 461681
1, 108090, Note_on_c, 0, 76, 0
1, 108091, Control_c, 0, 64, 127
1, 108120, Note_on_c, 0, 80, 85
1, 108120, Note_on_c, 0, 77, 67
1, 108120, Note_on_c, 0, 49, 52
1, 108144, Tempo, 460052
1, 108210, Note_on_c, 0, 49, 0
1, 108210, Note_on_c, 0, 77, 0
1, 108210, Note_on_c, 0, 80, 0
1, 108224, Tempo, 458435
1, 108240, Note_on_c, 0, 37, 0
1, 108240, Note_on_c, 0, 78, 74
1, 108240, Note_on_c, 0, 75, 59
1, 108240, Note_on_c, 0, 58, 97
1, 108292, Tempo, 456830
1, 108330, Note_on_c, 0, 75, 0
1, 108330, Note_on_c, 0, 78, 0
1, 108360, Tempo, 455270
1, 108360, Note_on_c, 0, 77, 75
1, 108360, Note_on_c, 0, 73, 60
1, 108360, Note_on_c, 0, 46, 53
1, 108372, Tempo, 454545
1, 108424, Tempo, 456413
1, 108450, Note_on_c, 0, 46, 0
1, 108450, Note_on_c, 0, 73, 0
1, 108450, Note_on_c, 0, 77, 0
1, 108480, Tempo, 458260
1, 108480, Note_on_c, 0, 58, 0
1, 108480, Note_on_c, 0, 71, 75
1, 108480, Note_on_c, 0, 60, 89
1, 108532, Tempo, 460123
1, 108570, Note_on_c, 0, 71, 0
1, 108572, Tempo, 462000
1, 108600, Tempo, 485555
1, 108600, Note_on_c, 0, 75, 74
1, 108600, Note_on_c, 0, 72, 74
1, 108600, Note_on_c, 0, 48, 59
1, 108690, Note_on_c, 0, 48, 0
1, 108690, Note_on_c, 0, 72, 0
1, 108690, Note_on_c, 0, 75, 0
1, 108720, Tempo, 455270
1, 108720, Note_on_c, 0, 60, 0
1, 108720, Note_on_c, 0, 77, 80
1, 108720, Note_on_c, 0, 37, 70
1, 108726, Control_c, 0, 64, 0
1, 108771, Control_c, 0, 64, 127
1, 108810, Note_on_c, 0, 77, 0
1, 108840, Note_on_c, 0, 82, 90
1, 108840, Note_on_c, 0, 78, 72
1, 108840, Note_on_c, 0, 49, 62
1, 108930, Note_on_c, 0, 49, 0
1, 108930, Note_on_c, 0, 78, 0
1, 108930, Note_on_c, 0, 82, 0
1, 108960, Note_on_c, 0, 37, 0
1, 108960, Note_on_c, 0, 80, 80
1, 108960, Note_on_c, 0, 77, 63
1, 108960, Note_on_c, 0, 60, 97
1, 109050, Note_on_c, 0, 77, 0
1, 109050, Note_on_c, 0, 80, 0
1, 109080, Tempo, 452728
1, 109080, Note_on_c, 0, 78, 80
1, 109080, Note_on_c, 0, 75, 63
1, 109080, Note_on_c, 0, 48, 66
1, 109160, Tempo, 454545
1, 109170, Note_on_c, 0, 48, 0
1, 109170, Note_on_c, 0, 75, 0
1, 109170, Note_on_c, 0, 78, 0
1, 109200, Note_on_c, 0, 60, 0
1, 109200, Note_on_c, 0, 74, 81
1, 109200, Note_on_c, 0, 61, 92
1, 109220, Tempo, 456413
1, 109290, Note_on_c, 0, 74, 0
1, 109300, Tempo, 458260
1, 109320, Tempo, 512426
1, 109320, Note_on_c, 0, 77, 79
1, 109320, Note_on_c, 0, 73, 79
1, 109320, Note_on_c, 0, 49, 63
1, 109370, Tempo, 523926
1, 109410, Note_on_c, 0, 73, 0
1, 109410, Note_on_c, 0, 77, 0
1, 109420, Tempo, 472404
1, 109440, Key_signature, 3, "major"
1, 109440, Tempo, 508087
1, 109440, Note_on_c, 0, 61, 0
1, 109440, Note_on_c, 0, 66, 103
1, 109440, Control_c, 0, 64, 0
1, 109440, Note_on_c, 0, 50, 66
1, 109440, Note_on_c, 0, 62, 74
1, 109440, Note_on_c, 0, 57, 74
1, 109440, Note_on_c, 0, 54, 66
1, 109530, Note_on_c, 0, 66, 0
1, 109560, Note_on_c, 0, 74, 87
1, 109560, Note_on_c, 0, 78, 100
1, 109583, Control_c, 0, 64, 127
1, 109650, Note_on_c, 0, 78, 0
1, 109650, Note_on_c, 0, 74, 0
1, 109680, Tempo, 521875
1, 109680, Note_on_c, 0, 78, 79
1, 109794, Tempo, 484301
1, 109800, Note_on_c, 0, 54, 0
1, 109800, Note_on_c, 0, 57, 0
1, 109800, Note_on_c, 0, 62, 0
1, 109800, Note_on_c, 0, 49, 0
1, 109800, Note_on_c, 0, 50, 0
1, 109800, Note_on_c, 0, 90, 91
1, 109800, Note_on_c, 0, 86, 79
1, 109800, Note_on_c, 0, 37, 69
1, 109800, Note_on_c, 0, 49, 69
1, 109834, Control_c, 0, 64, 0
1, 109850, Tempo, 482587
1, 109890, Note_on_c, 0, 86, 0
1, 109890, Note_on_c, 0, 90, 0
1, 109902, Tempo, 480846
1, 109920, Note_on_c, 0, 78, 0
1, 109920, Note_on_c, 0, 85, 68
1, 109920, Note_on_c, 0, 89, 78
1, 109920, Note_on_c, 0, 77, 68
1, 109954, Tempo, 479118
1, 110010, Tempo, 477441
1, 110010, Note_on_c, 0, 77, 0
1, 110010, Note_on_c, 0, 85, 0
1, 110010, Note_on_c, 0, 89, 0
1, 110040, Note_on_c, 0, 86, 66
1, 110040, Note_on_c, 0, 90, 77
1, 110040, Note_on_c, 0, 78, 66
1, 110062, Tempo, 475737
1, 110130, Note_on_c, 0, 78, 0
1, 110130, Note_on_c, 0, 86, 0
1, 110130, Note_on_c, 0, 90, 0
1, 110160, Note_on_c, 0, 49, 0
1, 110160, Note_on_c, 0, 37, 0
1, 110160, Note_on_c, 0, 85, 96
1, 110160, Note_on_c, 0, 82, 82
1, 110160, Note_on_c, 0, 73, 82
1, 110160, Note_on_c, 0, 66, 71
1, 110160, Note_on_c, 0, 62, 71
1, 110160, Note_on_c, 0, 56, 63
1, 110177, Control_c, 0, 64, 127
1, 110250, Note_on_c, 0, 73, 0
1, 110250, Note_on_c, 0, 85, 0
1, 110250, Note_on_c, 0, 82, 0
1, 110280, Note_on_c, 0, 74, 72
1, 110280, Note_on_c, 0, 86, 83
1, 110280, Note_on_c, 0, 83, 72
1, 110370, Note_on_c, 0, 83, 0
1, 110370, Note_on_c, 0, 74, 0
1, 110370, Note_on_c, 0, 86, 0
1, 110400, Tempo, 489636
1, 110400, Note_on_c, 0, 89, 79
1, 110400, Note_on_c, 0, 77, 68
1, 110490, Note_on_c, 0, 77, 0
1, 110490, Note_on_c, 0, 89, 0
1, 110520, Tempo, 487329
1, 110520, Note_on_c, 0, 62, 0
1, 110520, Note_on_c, 0, 66, 0
1, 110520, Note_on_c, 0, 56, 0
1, 110520, Note_on_c, 0, 90, 91
1, 110520, Note_on_c, 0, 86, 79
1, 110520, Note_on_c, 0, 78, 79
1, 110520, Note_on_c, 0, 37, 62
1, 110520, Note_on_c, 0, 49, 69
1, 110544, Control_c, 0, 64, 0
1, 110610, Note_on_c, 0, 78, 0
1, 110610, Note_on_c, 0, 90, 0
1, 110610, Note_on_c, 0, 86, 0
1, 110612, Control_c, 0, 64, 127
1, 110640, Tempo, 497636
1, 110640, Note_on_c, 0, 93, 87
1, 110640, Note_on_c, 0, 90, 77
1, 110640, Note_on_c, 0, 81, 77
1, 110730, Note_on_c, 0, 81, 0
1, 110730, Note_on_c, 0, 93, 0
1, 110730, Note_on_c, 0, 90, 0
1, 110760, Note_on_c, 0, 88, 77
1, 110760, Note_on_c, 0, 92, 87
1, 110760, Note_on_c, 0, 80, 77
1, 110806, Control_c, 0, 64, 0
1, 110850, Note_on_c, 0, 80, 0
1, 110850, Note_on_c, 0, 88, 0
1, 110850, Note_on_c, 0, 92, 0
1, 110880, Tempo, 501798
1, 110880, Note_on_c, 0, 37, 0
1, 110880, Note_on_c, 0, 49, 0
1, 110880, Note_on_c, 0, 64, 98
1, 110880, Note_on_c, 0, 64, 79
1, 110880, Note_on_c, 0, 61, 79
1, 110880, Note_on_c, 0, 57, 69
1, 110970, Note_on_c, 0, 64, 0
1, 111000, Note_on_c, 0, 73, 81
1, 111000, Note_on_c, 0, 76, 94
1, 111034, Control_c, 0, 64, 127
1, 111090, Note_on_c, 0, 76, 0
1, 111090, Note_on_c, 0, 73, 0
1, 111120, Tempo, 513875
1, 111120, Note_on_c, 0, 76, 74
1, 111240, Tempo, 479348
1, 111240, Note_on_c, 0, 57, 0
1, 111240, Note_on_c, 0, 64, 0
1, 111240, Note_on_c, 0, 61, 0
1, 111240, Note_on_c, 0, 88, 101
1, 111240, Note_on_c, 0, 85, 87
1, 111240, Note_on_c, 0, 37, 62
1, 111240, Note_on_c, 0, 49, 69
1, 111256, Control_c, 0, 64, 0
1, 111330, Note_on_c, 0, 85, 0
1, 111330, Note_on_c, 0, 88, 0
1, 111340, Tempo, 481309
1, 111360, Note_on_c, 0, 76, 0
1, 111360, Note_on_c, 0, 73, 68
1, 111360, Note_on_c, 0, 81, 68
1, 111360, Note_on_c, 0, 85, 78
1, 111420, Tempo, 483325
1, 111450, Note_on_c, 0, 85, 0
1, 111450, Note_on_c, 0, 73, 0
1, 111450, Note_on_c, 0, 81, 0
1, 111480, Note_on_c, 0, 74, 64
1, 111480, Note_on_c, 0, 83, 64
1, 111480, Note_on_c, 0, 86, 74
1, 111500, Tempo, 485319
1, 111570, Note_on_c, 0, 86, 0
1, 111570, Note_on_c, 0, 74, 0
1, 111570, Note_on_c, 0, 83, 0
1, 111580, Tempo, 487329
1, 111600, Tempo, 506244
1, 111600, Note_on_c, 0, 49, 0
1, 111600, Note_on_c, 0, 37, 0
1, 111600, Note_on_c, 0, 88, 96
1, 111600, Note_on_c, 0, 85, 83
1, 111600, Note_on_c, 0, 76, 83
1, 111600, Note_on_c, 0, 68, 71
1, 111600, Note_on_c, 0, 64, 71
1, 111600, Note_on_c, 0, 61, 63
1, 111600, Note_on_c, 0, 56, 63
1, 111607, Control_c, 0, 64, 127
1, 111690, Note_on_c, 0, 76, 0
1, 111690, Note_on_c, 0, 88, 0
1, 111690, Note_on_c, 0, 85, 0
1, 111720, Tempo, 517375
1, 111720, Note_on_c, 0, 78, 68
1, 111720, Note_on_c, 0, 90, 79
1, 111810, Note_on_c, 0, 90, 0
1, 111810, Note_on_c, 0, 78, 0
1, 111840, Note_on_c, 0, 76, 66
1, 111840, Note_on_c, 0, 88, 77
1, 111930, Note_on_c, 0, 88, 0
1, 111930, Note_on_c, 0, 76, 0
1, 111940, Tempo, 512864
1, 111960, Tempo, 575705
1, 111960, Note_on_c, 0, 64, 0
1, 111960, Note_on_c, 0, 68, 0
1, 111960, Note_on_c, 0, 61, 0
1, 111960, Note_on_c, 0, 56, 0
1, 111960, Note_on_c, 0, 73, 74
1, 111960, Note_on_c, 0, 85, 86
1, 111960, Note_on_c, 0, 81, 74
1, 111960, Note_on_c, 0, 67, 69
1, 111960, Note_on_c, 0, 64, 69
1, 111960, Note_on_c, 0, 61, 62
1, 111960, Note_on_c, 0, 57, 62
1, 111973, Control_c, 0, 64, 0
1, 112158, Control_c, 0, 64, 127
1, 112320, Tempo, 482664
1, 112320, Note_on_c, 0, 57, 0
1, 112320, Note_on_c, 0, 64, 0
1, 112320, Note_on_c, 0, 85, 0
1, 112320, Note_on_c, 0, 81, 0
1, 112320, Note_on_c, 0, 73, 0
1, 112320, Note_on_c, 0, 61, 0
1, 112320, Note_on_c, 0, 67, 0
1, 112320, Note_on_c, 0, 61, 55
1, 112320, Note_on_c, 0, 55, 36
1, 112320, Note_on_c, 0, 58, 42
1, 112326, Control_c, 0, 64, 0
1, 112340, Tempo, 479348
1, 112354, Control_c, 0, 64, 127
1, 112400, Tempo, 477403
1, 112410, Note_on_c, 0, 58, 0
1, 112410, Note_on_c, 0, 55, 0
1, 112410, Note_on_c, 0, 61, 0
1, 112440, Tempo, 475473
1, 112440, Note_on_c, 0, 66, 51
1, 112440, Note_on_c, 0, 62, 51
1, 112440, Note_on_c, 0, 54, 34
1, 112440, Note_on_c, 0, 57, 39
1, 112480, Tempo, 473560
1, 112520, Tempo, 471661
1, 112530, Note_on_c, 0, 57, 0
1, 112530, Note_on_c, 0, 66, 0
1, 112530, Note_on_c, 0, 62, 0
1, 112530, Note_on_c, 0, 54, 0
1, 112560, Note_on_c, 0, 64, 46
1, 112560, Note_on_c, 0, 52, 34
1, 112560, Note_on_c, 0, 55, 39
1, 112580, Tempo, 469778
1, 112620, Tempo, 467909
1, 112650, Note_on_c, 0, 55, 0
1, 112650, Note_on_c, 0, 52, 0
1, 112650, Note_on_c, 0, 64, 0
1, 112660, Tempo, 466056
1, 112680, Note_on_c, 0, 69, 60
1, 112680, Note_on_c, 0, 66, 60
1, 112680, Note_on_c, 0, 50, 32
1, 112680, Note_on_c, 0, 54, 36
1, 112700, Tempo, 464217
1, 112770, Note_on_c, 0, 66, 0
1, 112770, Note_on_c, 0, 69, 0
1, 112800, Note_on_c, 0, 68, 56
1, 112890, Note_on_c, 0, 68, 0
1, 112920, Tempo, 505817
1, 112920, Note_on_c, 0, 74, 60
1, 112920, Note_on_c, 0, 69, 60
1, 112920, Note_on_c, 0, 37, 53
1, 112920, Note_on_c, 0, 49, 53
1, 113010, Note_on_c, 0, 69, 0
1, 113010, Note_on_c, 0, 74, 0
1, 113040, Tempo, 464217
1, 113040, Note_on_c, 0, 54, 0
1, 113040, Note_on_c, 0, 50, 0
1, 113040, Note_on_c, 0, 71, 63
1, 113040, Note_on_c, 0, 55, 55
1, 113046, Control_c, 0, 64, 0
1, 113115, Control_c, 0, 64, 127
1, 113130, Note_on_c, 0, 55, 0
1, 113130, Note_on_c, 0, 71, 0
1, 113160, Note_on_c, 0, 75, 60
1, 113160, Note_on_c, 0, 73, 60
1, 113160, Note_on_c, 0, 56, 57
1, 113250, Note_on_c, 0, 56, 0
1, 113250, Note_on_c, 0, 75, 0
1, 113250, Note_on_c, 0, 73, 0
1, 113280, Note_on_c, 0, 73, 62
1, 113280, Note_on_c, 0, 70, 62
1, 113280, Note_on_c, 0, 57, 60
1, 113370, Note_on_c, 0, 57, 0
1, 113370, Note_on_c, 0, 73, 0
1, 113370, Note_on_c, 0, 70, 0
1, 113400, Note_on_c, 0, 73, 56
1, 113400, Note_on_c, 0, 68, 56
1, 113400, Note_on_c, 0, 58, 54
1, 113490, Note_on_c, 0, 58, 0
1, 113490, Note_on_c, 0, 68, 0
1, 113520, Note_on_c, 0, 67, 53
1, 113520, Note_on_c, 0, 59, 53
1, 113610, Note_on_c, 0, 59, 0
1, 113610, Note_on_c, 0, 67, 0
1, 113640, Note_on_c, 0, 73, 0
1, 113640, Note_on_c, 0, 71, 51
1, 113640, Note_on_c, 0, 66, 51
1, 113640, Note_on_c, 0, 61, 50
1, 113730, Note_on_c, 0, 61, 0
1, 113730, Note_on_c, 0, 66, 0
1, 113760, Tempo, 484340
1, 113760, Note_on_c, 0, 37, 0
1, 113760, Note_on_c, 0, 49, 0
1, 113760, Note_on_c, 0, 64, 53
1, 113760, Note_on_c, 0, 61, 47
1, 113764, Control_c, 0, 64, 0
1, 113806, Control_c, 0, 64, 127
1, 113850, Note_on_c, 0, 64, 0
1, 113880, Note_on_c, 0, 71, 0
1, 113880, Note_on_c, 0, 68, 53
1, 113880, Note_on_c, 0, 65, 53
1, 113880, Note_on_c, 0, 56, 40
1, 113970, Note_on_c, 0, 56, 0
1, 113970, Note_on_c, 0, 65, 0
1, 113970, Note_on_c, 0, 68, 0
1, 114000, Note_on_c, 0, 67, 52
1, 114000, Note_on_c, 0, 49, 40
1, 114090, Note_on_c, 0, 49, 0
1, 114090, Note_on_c, 0, 67, 0
1, 114120, Tempo, 474346
1, 114120, Note_on_c, 0, 61, 0
1, 114120, Note_on_c, 0, 73, 60
1, 114120, Note_on_c, 0, 68, 60
1, 114120, Note_on_c, 0, 63, 46
1, 114137, Control_c, 0, 64, 0
1, 114200, Control_c, 0, 64, 127
1, 114210, Note_on_c, 0, 68, 0
1, 114240, Note_on_c, 0, 69, 50
1, 114240, Note_on_c, 0, 54, 40
1, 114330, Note_on_c, 0, 54, 0
1, 114360, Note_on_c, 0, 73, 0
1, 114360, Note_on_c, 0, 73, 51
1, 114360, Note_on_c, 0, 49, 41
1, 114450, Note_on_c, 0, 49, 0
1, 114450, Note_on_c, 0, 73, 0
1, 114480, Tempo, 491320
1, 114480, Note_on_c, 0, 69, 0
1, 114480, Note_on_c, 0, 63, 0
1, 114480, Note_on_c, 0, 70, 49
1, 114480, Note_on_c, 0, 65, 39
1, 114570, Note_on_c, 0, 70, 0
1, 114600, Note_on_c, 0, 68, 46
1, 114600, Note_on_c, 0, 53, 36
1, 114690, Note_on_c, 0, 53, 0
1, 114690, Note_on_c, 0, 68, 0
1, 114720, Note_on_c, 0, 70, 45
1, 114720, Note_on_c, 0, 49, 32
1, 114722, Tempo, 511771
1, 114810, Note_on_c, 0, 70, 0
1, 114840, Tempo, 556586
1, 114840, Note_on_c, 0, 65, 0
1, 114840, Note_on_c, 0, 62, 54
1, 114840, Note_on_c, 0, 65, 54
1, 114840, Note_on_c, 0, 59, 42
1, 114840, Note_on_c, 0, 56, 42
1, 114857, Control_c, 0, 64, 0
1, 114954, Control_c, 0, 64, 127
1, 115200, Tempo, 508087
1, 115200, Note_on_c, 0, 56, 0
1, 115200, Note_on_c, 0, 65, 0
1, 115200, Note_on_c, 0, 49, 0
1, 115200, Note_on_c, 0, 62, 0
1, 115200, Note_on_c, 0, 59, 0
1, 115200, Note_on_c, 0, 78, 93
1, 115200, Control_c, 0, 64, 0
1, 115200, Note_on_c, 0, 66, 74
1, 115200, Note_on_c, 0, 62, 74
1, 115200, Note_on_c, 0, 57, 66
1, 115200, Note_on_c, 0, 54, 66
1, 115290, Note_on_c, 0, 78, 0
1, 115320, Note_on_c, 0, 86, 72
1, 115320, Note_on_c, 0, 90, 81
1, 115343, Control_c, 0, 64, 127
1, 115410, Note_on_c, 0, 90, 0
1, 115410, Note_on_c, 0, 86, 0
1, 115440, Tempo, 521875
1, 115440, Note_on_c, 0, 90, 74
1, 115554, Tempo, 484301
1, 115560, Note_on_c, 0, 54, 0
1, 115560, Note_on_c, 0, 57, 0
1, 115560, Note_on_c, 0, 66, 0
1, 115560, Note_on_c, 0, 62, 0
1, 115560, Note_on_c, 0, 102, 77
1, 115560, Note_on_c, 0, 98, 74
1, 115560, Note_on_c, 0, 37, 62
1, 115560, Note_on_c, 0, 49, 69
1, 115594, Control_c, 0, 64, 0
1, 115610, Tempo, 482587
1, 115650, Note_on_c, 0, 98, 0
1, 115650, Note_on_c, 0, 102, 0
1, 115662, Tempo, 480846
1, 115680, Note_on_c, 0, 90, 0
1, 115680, Note_on_c, 0, 97, 64
1, 115680, Note_on_c, 0, 101, 66
1, 115680, Note_on_c, 0, 89, 57
1, 115714, Tempo, 479118
1, 115770, Tempo, 477441
1, 115770, Note_on_c, 0, 89, 0
1, 115770, Note_on_c, 0, 97, 0
1, 115770, Note_on_c, 0, 101, 0
1, 115800, Note_on_c, 0, 98, 62
1, 115800, Note_on_c, 0, 102, 64
1, 115800, Note_on_c, 0, 90, 55
1, 115822, Tempo, 475737
1, 115890, Note_on_c, 0, 90, 0
1, 115890, Note_on_c, 0, 98, 0
1, 115890, Note_on_c, 0, 102, 0
1, 115920, Note_on_c, 0, 49, 0
1, 115920, Note_on_c, 0, 37, 0
1, 115920, Note_on_c, 0, 97, 78
1, 115920, Note_on_c, 0, 94, 78
1, 115920, Note_on_c, 0, 85, 70
1, 115920, Note_on_c, 0, 68, 71
1, 115920, Note_on_c, 0, 66, 71
1, 115920, Note_on_c, 0, 62, 63
1, 115920, Note_on_c, 0, 56, 63
1, 115937, Control_c, 0, 64, 127
1, 116010, Note_on_c, 0, 85, 0
1, 116010, Note_on_c, 0, 97, 0
1, 116010, Note_on_c, 0, 94, 0
1, 116040, Note_on_c, 0, 86, 61
1, 116040, Note_on_c, 0, 98, 69
1, 116040, Note_on_c, 0, 95, 69
1, 116130, Note_on_c, 0, 95, 0
1, 116130, Note_on_c, 0, 86, 0
1, 116130, Note_on_c, 0, 98, 0
1, 116160, Tempo, 489636
1, 116160, Note_on_c, 0, 101, 66
1, 116160, Note_on_c, 0, 89, 58
1, 116250, Note_on_c, 0, 89, 0
1, 116250, Note_on_c, 0, 101, 0
1, 116280, Tempo, 487329
1, 116280, Note_on_c, 0, 66, 0
1, 116280, Note_on_c, 0, 68, 0
1, 116280, Note_on_c, 0, 62, 0
1, 116280, Note_on_c, 0, 56, 0
1, 116280, Note_on_c, 0, 102, 77
1, 116280, Note_on_c, 0, 98, 74
1, 116280, Note_on_c, 0, 90, 67
1, 116280, Note_on_c, 0, 37, 62
1, 116280, Note_on_c, 0, 49, 69
1, 116290, Control_c, 0, 64, 0
1, 116345, Control_c, 0, 64, 127
1, 116370, Note_on_c, 0, 90, 0
1, 116370, Note_on_c, 0, 102, 0
1, 116370, Note_on_c, 0, 98, 0
1, 116400, Tempo, 497636
1, 116400, Note_on_c, 0, 105, 74
1, 116400, Note_on_c, 0, 102, 74
1, 116400, Note_on_c, 0, 93, 63
1, 116490, Note_on_c, 0, 93, 0
1, 116490, Note_on_c, 0, 105, 0
1, 116490, Note_on_c, 0, 102, 0
1, 116520, Note_on_c, 0, 100, 74
1, 116520, Note_on_c, 0, 104, 74
1, 116520, Note_on_c, 0, 92, 63
1, 116566, Control_c, 0, 64, 0
1, 116610, Note_on_c, 0, 92, 0
1, 116610, Note_on_c, 0, 100, 0
1, 116610, Note_on_c, 0, 104, 0
1, 116640, Tempo, 501798
1, 116640, Note_on_c, 0, 37, 0
1, 116640, Note_on_c, 0, 49, 0
1, 116640, Note_on_c, 0, 76, 93
1, 116640, Note_on_c, 0, 69, 79
1, 116640, Note_on_c, 0, 64, 79
1, 116640, Note_on_c, 0, 61, 69
1, 116640, Note_on_c, 0, 57, 69
1, 116700, Control_c, 0, 64, 127
1, 116730, Note_on_c, 0, 76, 0
1, 116760, Note_on_c, 0, 85, 69
1, 116760, Note_on_c, 0, 88, 77
1, 116850, Note_on_c, 0, 88, 0
1, 116850, Note_on_c, 0, 85, 0
1, 116880, Tempo, 513875
1, 116880, Note_on_c, 0, 88, 70
1, 117000, Tempo, 479348
1, 117000, Note_on_c, 0, 57, 0
1, 117000, Note_on_c, 0, 61, 0
1, 117000, Note_on_c, 0, 69, 0
1, 117000, Note_on_c, 0, 64, 0
1, 117000, Note_on_c, 0, 100, 85
1, 117000, Note_on_c, 0, 97, 77
1, 117000, Note_on_c, 0, 37, 62
1, 117000, Note_on_c, 0, 49, 69
1, 117086, Control_c, 0, 64, 0
1, 117090, Note_on_c, 0, 97, 0
1, 117090, Note_on_c, 0, 100, 0
1, 117100, Tempo, 481309
1, 117120, Note_on_c, 0, 88, 0
1, 117120, Note_on_c, 0, 85, 57
1, 117120, Note_on_c, 0, 93, 64
1, 117120, Note_on_c, 0, 97, 64
1, 117180, Tempo, 483325
1, 117210, Note_on_c, 0, 97, 0
1, 117210, Note_on_c, 0, 85, 0
1, 117210, Note_on_c, 0, 93, 0
1, 117240, Note_on_c, 0, 86, 54
1, 117240, Note_on_c, 0, 95, 61
1, 117240, Note_on_c, 0, 98, 61
1, 117260, Tempo, 485319
1, 117330, Note_on_c, 0, 98, 0
1, 117330, Note_on_c, 0, 86, 0
1, 117330, Note_on_c, 0, 95, 0
1, 117340, Tempo, 487329
1, 117360, Tempo, 506244
1, 117360, Note_on_c, 0, 49, 0
1, 117360, Note_on_c, 0, 37, 0
1, 117360, Note_on_c, 0, 100, 81
1, 117360, Note_on_c, 0, 97, 78
1, 117360, Note_on_c, 0, 88, 71
1, 117360, Note_on_c, 0, 68, 71
1, 117360, Note_on_c, 0, 64, 71
1, 117360, Note_on_c, 0, 61, 63
1, 117360, Note_on_c, 0, 56, 63
1, 117367, Control_c, 0, 64, 127
1, 117450, Note_on_c, 0, 88, 0
1, 117450, Note_on_c, 0, 100, 0
1, 117450, Note_on_c, 0, 97, 0
1, 117480, Tempo, 517375
1, 117480, Note_on_c, 0, 90, 58
1, 117480, Note_on_c, 0, 102, 66
1, 117570, Note_on_c, 0, 102, 0
1, 117570, Note_on_c, 0, 90, 0
1, 117600, Note_on_c, 0, 88, 55
1, 117600, Note_on_c, 0, 100, 64
1, 117690, Note_on_c, 0, 100, 0
1, 117690, Note_on_c, 0, 88, 0
1, 117700, Tempo, 512864
1, 117720, Tempo, 575705
1, 117720, Note_on_c, 0, 64, 0
1, 117720, Note_on_c, 0, 68, 0
1, 117720, Note_on_c, 0, 61, 0
1, 117720, Note_on_c, 0, 56, 0
1, 117720, Note_on_c, 0, 85, 62
1, 117720, Note_on_c, 0, 97, 70
1, 117720, Note_on_c, 0, 93, 70
1, 117720, Note_on_c, 0, 67, 69
1, 117720, Note_on_c, 0, 64, 69
1, 117720, Note_on_c, 0, 61, 62
1, 117720, Note_on_c, 0, 57, 62
1, 117737, Control_c, 0, 64, 0
1, 117918, Control_c, 0, 64, 127
1, 118080, Key_signature, -5, "major"
1, 118080, Tempo, 477403
1, 118080, Note_on_c, 0, 57, 0
1, 118080, Note_on_c, 0, 64, 0
1, 118080, Note_on_c, 0, 97, 0
1, 118080, Note_on_c, 0, 93, 0
1, 118080, Note_on_c, 0, 85, 0
1, 118080, Note_on_c, 0, 61, 0
1, 118080, Note_on_c, 0, 67, 0
1, 118080, Note_on_c, 0, 73, 53
1, 118080, Control_c, 0, 64, 0
1, 118080, Note_on_c, 0, 67, 36
1, 118080, Note_on_c, 0, 70, 42
1, 118114, Control_c, 0, 64, 127
1, 118140, Tempo, 475473
1, 118170, Note_on_c, 0, 70, 0
1, 118170, Note_on_c, 0, 67, 0
1, 118170, Note_on_c, 0, 73, 0
1, 118200, Tempo, 473560
1, 118200, Note_on_c, 0, 78, 49
1, 118200, Note_on_c, 0, 74, 49
1, 118200, Note_on_c, 0, 66, 34
1, 118200, Note_on_c, 0, 69, 39
1, 118240, Tempo, 471661
1, 118290, Note_on_c, 0, 69, 0
1, 118290, Note_on_c, 0, 78, 0
1, 118290, Note_on_c, 0, 74, 0
1, 118290, Note_on_c, 0, 66, 0
1, 118300, Tempo, 469778
1, 118320, Note_on_c, 0, 76, 46
1, 118320, Note_on_c, 0, 64, 39
1, 118320, Note_on_c, 0, 67, 39
1, 118340, Tempo, 467909
1, 118400, Tempo, 466056
1, 118410, Note_on_c, 0, 67, 0
1, 118410, Note_on_c, 0, 64, 0
1, 118410, Note_on_c, 0, 76, 0
1, 118440, Tempo, 464217
1, 118440, Note_on_c, 0, 81, 61
1, 118440, Note_on_c, 0, 78, 61
1, 118440, Note_on_c, 0, 62, 32
1, 118440, Note_on_c, 0, 66, 36
1, 118530, Note_on_c, 0, 78, 0
1, 118530, Note_on_c, 0, 81, 0
1, 118560, Note_on_c, 0, 80, 53
1, 118650, Note_on_c, 0, 80, 0
1, 118680, Tempo, 495540
1, 118680, Note_on_c, 0, 86, 55
1, 118680, Note_on_c, 0, 81, 55
1, 118680, Note_on_c, 0, 49, 54
1, 118680, Note_on_c, 0, 61, 54
1, 118714, Control_c, 0, 64, 0
1, 118770, Note_on_c, 0, 81, 0
1, 118770, Note_on_c, 0, 86, 0
1, 118800, Tempo, 464217
1, 118800, Note_on_c, 0, 66, 0
1, 118800, Note_on_c, 0, 62, 0
1, 118800, Note_on_c, 0, 83, 62
1, 118800, Note_on_c, 0, 67, 56
1, 118829, Control_c, 0, 64, 127
1, 118890, Note_on_c, 0, 67, 0
1, 118890, Note_on_c, 0, 83, 0
1, 118920, Note_on_c, 0, 87, 53
1, 118920, Note_on_c, 0, 84, 53
1, 118920, Note_on_c, 0, 68, 60
1, 119010, Note_on_c, 0, 68, 0
1, 119010, Note_on_c, 0, 87, 0
1, 119010, Note_on_c, 0, 84, 0
1, 119040, Note_on_c, 0, 85, 60
1, 119040, Note_on_c, 0, 82, 60
1, 119040, Note_on_c, 0, 69, 59
1, 119130, Note_on_c, 0, 69, 0
1, 119130, Note_on_c, 0, 85, 0
1, 119130, Note_on_c, 0, 82, 0
1, 119160, Note_on_c, 0, 84, 53
1, 119160, Note_on_c, 0, 80, 53
1, 119160, Note_on_c, 0, 70, 56
1, 119250, Note_on_c, 0, 70, 0
1, 119250, Note_on_c, 0, 80, 0
1, 119280, Note_on_c, 0, 79, 52
1, 119280, Note_on_c, 0, 71, 54
1, 119370, Note_on_c, 0, 71, 0
1, 119370, Note_on_c, 0, 79, 0
1, 119400, Note_on_c, 0, 84, 0
1, 119400, Note_on_c, 0, 83, 50
1, 119400, Note_on_c, 0, 78, 50
1, 119400, Note_on_c, 0, 73, 52
1, 119490, Note_on_c, 0, 73, 0
1, 119490, Note_on_c, 0, 78, 0
1, 119520, Tempo, 484340
1, 119520, Note_on_c, 0, 49, 0
1, 119520, Note_on_c, 0, 61, 0
1, 119520, Note_on_c, 0, 76, 52
1, 119520, Note_on_c, 0, 73, 50
1, 119526, Control_c, 0, 64, 0
1, 119610, Note_on_c, 0, 76, 0
1, 119623, Control_c, 0, 64, 127
1, 119640, Note_on_c, 0, 83, 0
1, 119640, Note_on_c, 0, 80, 49
1, 119640, Note_on_c, 0, 77, 44
1, 119640, Note_on_c, 0, 68, 39
1, 119730, Note_on_c, 0, 68, 0
1, 119730, Note_on_c, 0, 77, 0
1, 119730, Note_on_c, 0, 80, 0
1, 119760, Note_on_c, 0, 79, 47
1, 119760, Note_on_c, 0, 61, 39
1, 119850, Note_on_c, 0, 61, 0
1, 119850, Note_on_c, 0, 79, 0
1, 119880, Tempo, 474346
1, 119880, Note_on_c, 0, 73, 0
1, 119880, Note_on_c, 0, 85, 61
1, 119880, Note_on_c, 0, 80, 61
1, 119880, Note_on_c, 0, 75, 45
1, 119931, Control_c, 0, 64, 0
1, 119970, Note_on_c, 0, 80, 0
1, 120000, Note_on_c, 0, 81, 55
1, 120000, Note_on_c, 0, 66, 39
1, 120011, Control_c, 0, 64, 127
1, 120090, Note_on_c, 0, 66, 0
1, 120120, Note_on_c, 0, 85, 0
1, 120120, Note_on_c, 0, 85, 53
1, 120120, Note_on_c, 0, 61, 39
1, 120210, Note_on_c, 0, 61, 0
1, 120210, Note_on_c, 0, 85, 0
1, 120240, Tempo, 491320
1, 120240, Note_on_c, 0, 81, 0
1, 120240, Note_on_c, 0, 75, 0
1, 120240, Note_on_c, 0, 82, 50
1, 120240, Note_on_c, 0, 77, 34
1, 120330, Note_on_c, 0, 82, 0
1, 120360, Note_on_c, 0, 80, 49
1, 120360, Note_on_c, 0, 65, 33
1, 120450, Note_on_c, 0, 65, 0
1, 120450, Note_on_c, 0, 80, 0
1, 120480, Note_on_c, 0, 82, 46
1, 120480, Note_on_c, 0, 61, 29
1, 120482, Tempo, 511771
1, 120570, Note_on_c, 0, 82, 0
1, 120600, Tempo, 548346
1, 120600, Note_on_c, 0, 77, 0
1, 120600, Note_on_c, 0, 73, 54
1, 120600, Note_on_c, 0, 77, 54
1, 120600, Note_on_c, 0, 69, 37
1, 120617, Control_c, 0, 64, 0
1, 120714, Control_c, 0, 64, 127
1, 120960, Tempo, 517375
1, 120960, Note_on_c, 0, 69, 0
1, 120960, Note_on_c, 0, 61, 0
1, 120960, Note_on_c, 0, 73, 0
1, 120960, Note_on_c, 0, 77, 0
1, 120960, Note_on_c, 0, 94, 67
1, 120960, Note_on_c, 0, 85, 61
1, 120960, Note_on_c, 0, 82, 52
1, 120960, Note_on_c, 0, 78, 45
1, 120965, Control_c, 0, 64, 0
1, 121059, Control_c, 0, 64, 127
1, 121080, Note_on_c, 0, 94, 0
1, 121080, Note_on_c, 0, 92, 56
1, 121200, Note_on_c, 0, 92, 0
1, 121200, Note_on_c, 0, 94, 56
1, 121320, Tempo, 538745
1, 121320, Note_on_c, 0, 94, 0
1, 121320, Note_on_c, 0, 85, 0
1, 121320, Note_on_c, 0, 82, 0
1, 121320, Note_on_c, 0, 78, 0
1, 121320, Note_on_c, 0, 89, 66
1, 121320, Note_on_c, 0, 85, 60
1, 121320, Note_on_c, 0, 73, 53
1, 121320, Note_on_c, 0, 80, 60
1, 121338, Control_c, 0, 64, 0
1, 121461, Control_c, 0, 64, 127
1, 121680, Tempo, 515110
1, 121680, Note_on_c, 0, 80, 0
1, 121680, Note_on_c, 0, 89, 0
1, 121680, Note_on_c, 0, 85, 0
1, 121680, Note_on_c, 0, 73, 0
1, 121680, Note_on_c, 0, 61, 60
1, 121680, Note_on_c, 0, 70, 66
1, 121680, Note_on_c, 0, 65, 52
1, 121680, Note_on_c, 0, 58, 45
1, 121688, Control_c, 0, 64, 0
1, 121786, Control_c, 0, 64, 127
1, 121800, Note_on_c, 0, 70, 0
1, 121800, Note_on_c, 0, 68, 59
1, 121920, Note_on_c, 0, 68, 0
1, 121920, Note_on_c, 0, 70, 57
1, 122040, Tempo, 548797
1, 122040, Note_on_c, 0, 70, 0
1, 122040, Note_on_c, 0, 61, 0
1, 122040, Note_on_c, 0, 65, 0
1, 122040, Note_on_c, 0, 58, 0
1, 122040, Note_on_c, 0, 65, 64
1, 122040, Note_on_c, 0, 61, 57
1, 122040, Note_on_c, 0, 55, 52
1, 122040, Note_on_c, 0, 58, 59
1, 122056, Control_c, 0, 64, 0
1, 122217, Control_c, 0, 64, 127
1, 122400, Tempo, 529007
1, 122400, Note_on_c, 0, 58, 0
1, 122400, Note_on_c, 0, 65, 0
1, 122400, Note_on_c, 0, 61, 0
1, 122400, Note_on_c, 0, 55, 0
1, 122400, Control_c, 0, 64, 0
1, 122400, Note_on_c, 0, 29, 72
1, 122400, Note_on_c, 0, 41, 72
1, 122400, Note_on_c, 0, 53, 86
1, 122492, Control_c, 0, 64, 127
1, 122520, Note_on_c, 0, 53, 0
1, 122520, Note_on_c, 0, 41, 0
1, 122520, Note_on_c, 0, 29, 0
1, 122520, Note_on_c, 0, 27, 69
1, 122520, Note_on_c, 0, 39, 69
1, 122520, Note_on_c, 0, 51, 81
1, 122640, Tempo, 581395
1, 122640, Note_on_c, 0, 51, 0
1, 122640, Note_on_c, 0, 39, 0
1, 122640, Note_on_c, 0, 27, 0
1, 122640, Note_on_c, 0, 29, 71
1, 122640, Note_on_c, 0, 41, 71
1, 122640, Note_on_c, 0, 53, 84
1, 122760, Tempo, 667334
1, 122760, Note_on_c, 0, 53, 0
1, 122760, Note_on_c, 0, 41, 0
1, 122760, Note_on_c, 0, 29, 0
1, 122760, Note_on_c, 0, 25, 74
1, 122760, Note_on_c, 0, 37, 74
1, 122760, Note_on_c, 0, 49, 89
1, 122776, Control_c, 0, 64, 0
1, 122951, Control_c, 0, 64, 127
1, 123120, Note_on_c, 0, 53, 75
1, 123120, Note_on_c, 0, 56, 75
1, 123120, Note_on_c, 0, 61, 75
1, 123120, Note_on_c, 0, 65, 75
1, 123120, Note_on_c, 0, 85, 90
1, 123120, Note_on_c, 0, 80, 90
1, 123120, Note_on_c, 0, 73, 90
1, 125040, Note_on_c, 0, 73, 0
1, 125040, Note_on_c, 0, 49, 0
1, 125040, Note_on_c, 0, 53, 0
1, 125040, Note_on_c, 0, 25, 0
1, 125040, Note_on_c, 0, 56, 0
1, 125040, Note_on_c, 0, 37, 0
1, 125040, Note_on_c, 0, 85, 0
1, 125040, Note_on_c, 0, 65, 0
1, 125040, Note_on_c, 0, 61, 0
1, 125040, Note_on_c, 0, 80, 0
1, 125120, Control_c, 0, 64, 0
1, 125280, Tempo, 659703
1, 125280, Note_on_c, 0, 61, 45
1, 125280, Note_on_c, 0, 49, 42
1, 125480, Control_c, 0, 64, 127
1, 126000, Note_on_c, 0, 59, 44
1, 126000, Note_on_c, 0, 32, 41
1, 126000, Note_on_c, 0, 44, 41
1, 126020, Control_c, 0, 64, 0
1, 126170, Control_c, 0, 64, 127
1, 126720, Note_on_c, 0, 44, 0
1, 126720, Note_on_c, 0, 59, 0
1, 126720, Note_on_c, 0, 32, 0
1, 126720, Note_on_c, 0, 58, 45
1, 126720, Note_on_c, 0, 30, 36
1, 126720, Note_on_c, 0, 42, 36
1, 126726, Control_c, 0, 64, 0
1, 126940, Control_c, 0, 64, 127
1, 127440, Note_on_c, 0, 42, 0
1, 127440, Note_on_c, 0, 58, 0
1, 127440, Note_on_c, 0, 61, 0
1, 127440, Note_on_c, 0, 49, 0
1, 127440, Note_on_c, 0, 30, 0
1, 127440, Note_on_c, 0, 57, 44
1, 127440, Note_on_c, 0, 62, 44
1, 127440, Note_on_c, 0, 29, 43
1, 127440, Note_on_c, 0, 41, 43
1, 127440, Note_on_c, 0, 50, 43
1, 127458, Control_c, 0, 64, 0
1, 127650, Control_c, 0, 64, 127
1, 128160, Tempo, 681741
1, 128160, Note_on_c, 0, 50, 0
1, 128160, Note_on_c, 0, 29, 0
1, 128160, Note_on_c, 0, 57, 0
1, 128160, Note_on_c, 0, 62, 0
1, 128160, Note_on_c, 0, 41, 0
1, 128160, Note_on_c, 0, 59, 41
1, 128160, Note_on_c, 0, 56, 41
1, 128160, Note_on_c, 0, 64, 41
1, 128160, Note_on_c, 0, 28, 31
1, 128160, Note_on_c, 0, 40, 31
1, 128160, Note_on_c, 0, 50, 31
1, 128166, Control_c, 0, 64, 0
1, 128410, Control_c, 0, 64, 127
1, 128880, Note_on_c, 0, 59, 0
1, 128880, Note_on_c, 0, 58, 48
1, 129600, Note_on_c, 0, 56, 0
1, 129600, Note_on_c, 0, 55, 45
1, 129609, Control_c, 0, 64, 0
1, 129651, Control_c, 0, 64, 127
1, 129720, Note_on_c, 0, 33, 36
1, 129840, Note_on_c, 0, 33, 0
1, 129840, Note_on_c, 0, 45, 34
1, 129960, Note_on_c, 0, 45, 0
1, 129960, Note_on_c, 0, 49, 36
1, 130080, Note_on_c, 0, 49, 0
1, 130080, Note_on_c, 0, 55, 36
1, 130200, Note_on_c, 0, 55, 0
1, 130200, Note_on_c, 0, 57, 36
1, 130320, Tempo, 766969
1, 130320, Note_on_c, 0, 57, 0
1, 130320, Note_on_c, 0, 50, 0
1, 130320, Note_on_c, 0, 58, 0
1, 130320, Note_on_c, 0, 40, 0
1, 130320, Note_on_c, 0, 28, 0
1, 130320, Note_on_c, 0, 55, 0
1, 130320, Note_on_c, 0, 64, 0
1, 130320, Note_on_c, 0, 65, 44
1, 130920, Tempo, 1252087
1, 131040, Time_signature, 6, 3, 12, 8
1, 131040, Key_signature, 2, "major"
1, 131040, Tempo, 681741
1, 131040, Note_on_c, 0, 65, 0
1, 131040, Control_c, 0, 64, 0
1, 131040, Note_on_c, 0, 26, 41
1, 131280, Note_on_c, 0, 26, 0
1, 131520, Note_on_c, 0, 66, 47
1, 131760, Tempo, 666815
1, 131760, Note_on_c, 0, 66, 0
1, 131760, Note_on_c, 0, 57, 36
1, 131760, Note_on_c, 0, 64, 52
1, 131760, Note_on_c, 0, 38, 32
1, 131760, Note_on_c, 0, 54, 36
1, 131907, Control_c, 0, 64, 127
1, 132000, Note_on_c, 0, 64, 0
1, 132000, Note_on_c, 0, 66, 44
1, 132240, Tempo, 681741
1, 132240, Note_on_c, 0, 66, 0
1, 132240, Note_on_c, 0, 62, 44
1, 132960, Tempo, 697188
1, 132960, Note_on_c, 0, 62, 0
1, 132960, Note_on_c, 0, 69, 51
1, 132967, Control_c, 0, 64, 0
1, 133017, Control_c, 0, 64, 127
1, 133200, Tempo, 681741
1, 133200, Note_on_c, 0, 69, 0
1, 133200, Note_on_c, 0, 69, 53
1, 133680, Tempo, 743679
1, 133680, Note_on_c, 0, 69, 0
1, 133680, Note_on_c, 0, 71, 47
1, 133800, Tempo, 681741
1, 133800, Note_on_c, 0, 71, 0
1, 133800, Note_on_c, 0, 69, 36
1, 133860, Note_on_c, 0, 69, 0
1, 133860, Note_on_c, 0, 71, 36
1, 133920, Tempo, 681741
1, 133920, Note_on_c, 0, 71, 0
1, 133920, Note_on_c, 0, 69, 53
1, 133927, Control_c, 0, 64, 0
1, 134083, Control_c, 0, 64, 127
1, 134280, Note_on_c, 0, 69, 0
1, 134280, Note_on_c, 0, 67, 47
1, 134400, Note_on_c, 0, 67, 0
1, 134400, Note_on_c, 0, 66, 47
1, 134640, Note_on_c, 0, 66, 0
1, 134640, Note_on_c, 0, 57, 0
1, 134640, Note_on_c, 0, 38, 0
1, 134640, Note_on_c, 0, 54, 0
1, 134640, Note_on_c, 0, 57, 36
1, 134640, Note_on_c, 0, 69, 36
1, 134640, Note_on_c, 0, 64, 52
1, 134640, Note_on_c, 0, 38, 26
1, 134640, Note_on_c, 0, 54, 30
1, 134656, Control_c, 0, 64, 0
1, 134660, Tempo, 670541
1, 134831, Control_c, 0, 64, 127
1, 134880, Note_on_c, 0, 64, 0
1, 134880, Note_on_c, 0, 66, 45
1, 135120, Tempo, 713436
1, 135120, Note_on_c, 0, 66, 0
1, 135120, Note_on_c, 0, 62, 44
1, 135360, Note_on_c, 0, 26, 30
1, 135600, Note_on_c, 0, 26, 0
1, 135692, Control_c, 0, 64, 0
1, 135840, Tempo, 697188
1, 135840, Note_on_c, 0, 62, 0
1, 135840, Note_on_c, 0, 66, 47
1, 136080, Note_on_c, 0, 66, 0
1, 136080, Note_on_c, 0, 54, 0
1, 136080, Note_on_c, 0, 57, 0
1, 136080, Note_on_c, 0, 69, 0
1, 136080, Note_on_c, 0, 38, 0
1, 136080, Note_on_c, 0, 70, 36
1, 136080, Note_on_c, 0, 66, 53
1, 136080, Note_on_c, 0, 38, 26
1, 136080, Note_on_c, 0, 54, 30
1, 136253, Control_c, 0, 64, 127
1, 136560, Tempo, 713436
1, 136560, Note_on_c, 0, 66, 0
1, 136560, Note_on_c, 0, 64, 47
1, 136800, Tempo, 693241
1, 136800, Note_on_c, 0, 64, 0
1, 136800, Note_on_c, 0, 64, 52
1, 137280, Note_on_c, 0, 64, 0
1, 137280, Note_on_c, 0, 61, 47
1, 137520, Tempo, 685558
1, 137520, Note_on_c, 0, 61, 0
1, 137520, Note_on_c, 0, 54, 0
1, 137520, Note_on_c, 0, 38, 0
1, 137520, Note_on_c, 0, 70, 0
1, 137520, Note_on_c, 0, 59, 36
1, 137520, Note_on_c, 0, 71, 36
1, 137520, Note_on_c, 0, 62, 52
1, 137520, Note_on_c, 0, 38, 26
1, 137520, Note_on_c, 0, 54, 30
1, 137541, Control_c, 0, 64, 0
1, 137689, Control_c, 0, 64, 127
1, 137880, Note_on_c, 0, 62, 0
1, 137880, Note_on_c, 0, 61, 47
1, 138000, Tempo, 781555
1, 138000, Note_on_c, 0, 61, 0
1, 138000, Note_on_c, 0, 59, 47
1, 138240, Tempo, 730371
1, 138240, Note_on_c, 0, 59, 0
1, 138240, Note_on_c, 0, 38, 0
1, 138240, Note_on_c, 0, 59, 0
1, 138240, Note_on_c, 0, 71, 0
1, 138240, Note_on_c, 0, 54, 0
1, 138240, Control_c, 0, 64, 0
1, 138240, Note_on_c, 0, 26, 31
1, 138373, Control_c, 0, 64, 127
1, 138480, Note_on_c, 0, 26, 0
1, 138520, Control_c, 0, 64, 0
1, 138720, Tempo, 709304
1, 138720, Note_on_c, 0, 66, 47
1, 138960, Tempo, 697188
1, 138960, Note_on_c, 0, 66, 0
1, 138960, Note_on_c, 0, 70, 36
1, 138960, Note_on_c, 0, 66, 53
1, 138960, Note_on_c, 0, 38, 26
1, 138960, Note_on_c, 0, 54, 30
1, 139133, Control_c, 0, 64, 127
1, 139440, Tempo, 713436
1, 139440, Note_on_c, 0, 66, 0
1, 139440, Note_on_c, 0, 64, 47
1, 139680, Tempo, 693241
1, 139680, Note_on_c, 0, 64, 0
1, 139680, Note_on_c, 0, 64, 52
1, 140160, Note_on_c, 0, 64, 0
1, 140160, Note_on_c, 0, 61, 47
1, 140400, Tempo, 685558
1, 140400, Note_on_c, 0, 61, 0
1, 140400, Note_on_c, 0, 54, 0
1, 140400, Note_on_c, 0, 38, 0
1, 140400, Note_on_c, 0, 70, 0
1, 140400, Note_on_c, 0, 59, 36
1, 140400, Note_on_c, 0, 71, 36
1, 140400, Note_on_c, 0, 62, 52
1, 140400, Note_on_c, 0, 38, 26
1, 140400, Note_on_c, 0, 54, 30
1, 140421, Control_c, 0, 64, 0
1, 140569, Control_c, 0, 64, 127
1, 140760, Note_on_c, 0, 62, 0
1, 140760, Note_on_c, 0, 61, 47
1, 140880, Tempo, 730371
1, 140880, Note_on_c, 0, 61, 0
1, 140880, Note_on_c, 0, 59, 47
1, 141120, Note_on_c, 0, 59, 0
1, 141360, Note_on_c, 0, 38, 0
1, 141360, Note_on_c, 0, 59, 0
1, 141360, Note_on_c, 0, 71, 0
1, 141360, Note_on_c, 0, 54, 0
1, 141400, Control_c, 0, 64, 0
1, 141600, Note_on_c, 0, 57, 45
1, 141600, Note_on_c, 0, 45, 44
1, 141840, Note_on_c, 0, 45, 0
1, 141840, Note_on_c, 0, 57, 0
1, 141840, Note_on_c, 0, 59, 47
1, 141840, Note_on_c, 0, 47, 46
1, 141907, Control_c, 0, 64, 127
1, 142320, Tempo, 762098
1, 142560, Tempo, 730371
1, 142560, Note_on_c, 0, 47, 0
1, 142560, Note_on_c, 0, 59, 0
1, 142560, Note_on_c, 0, 38, 32
1, 142560, Note_on_c, 0, 45, 32
1, 142579, Control_c, 0, 64, 0
1, 142800, Tempo, 681741
1, 142800, Note_on_c, 0, 45, 0
1, 142800, Note_on_c, 0, 38, 0
1, 143040, Tempo, 717532
1, 143040, Note_on_c, 0, 57, 45
1, 143040, Note_on_c, 0, 69, 36
1, 143040, Note_on_c, 0, 67, 36
1, 143040, Note_on_c, 0, 61, 30
1, 143047, Control_c, 0, 64, 127
1, 143280, Tempo, 681741
1, 143280, Note_on_c, 0, 61, 0
1, 143280, Note_on_c, 0, 57, 0
1, 143280, Note_on_c, 0, 61, 47
1, 143520, Tempo, 663203
1, 143640, Note_on_c, 0, 61, 0
1, 143640, Note_on_c, 0, 62, 45
1, 143760, Tempo, 701180
1, 143760, Note_on_c, 0, 62, 0
1, 143760, Note_on_c, 0, 67, 0
1, 143760, Note_on_c, 0, 69, 0
1, 143760, Note_on_c, 0, 64, 45
1, 143760, Note_on_c, 0, 67, 31
1, 143760, Note_on_c, 0, 69, 31
1, 143767, Control_c, 0, 64, 0
1, 143887, Control_c, 0, 64, 127
1, 144000, Tempo, 681741
1, 144000, Note_on_c, 0, 64, 0
1, 144000, Note_on_c, 0, 61, 50
1, 144480, Tempo, 705219
1, 144480, Note_on_c, 0, 61, 0
1, 144480, Note_on_c, 0, 69, 0
1, 144480, Note_on_c, 0, 67, 0
1, 144480, Note_on_c, 0, 57, 44
1, 144480, Note_on_c, 0, 61, 26
1, 144480, Note_on_c, 0, 67, 31
1, 144480, Note_on_c, 0, 69, 31
1, 144499, Control_c, 0, 64, 0
1, 144720, Tempo, 689338
1, 144720, Note_on_c, 0, 69, 0
1, 144720, Note_on_c, 0, 57, 0
1, 144720, Note_on_c, 0, 61, 0
1, 144720, Note_on_c, 0, 67, 0
1, 144720, Note_on_c, 0, 59, 45
1, 144872, Control_c, 0, 64, 127
1, 145200, Tempo, 734754
1, 145200, Note_on_c, 0, 69, 36
1, 145200, Note_on_c, 0, 67, 36
1, 145200, Note_on_c, 0, 62, 36
1, 145200, Note_on_c, 0, 38, 26
1, 145200, Note_on_c, 0, 45, 31
1, 145440, Tempo, 709304
1, 145440, Note_on_c, 0, 45, 0
1, 145440, Note_on_c, 0, 38, 0
1, 145440, Note_on_c, 0, 26, 24
1, 145440, Note_on_c, 0, 38, 27
1, 145680, Note_on_c, 0, 38, 0
1, 145680, Note_on_c, 0, 26, 0
1, 145832, Control_c, 0, 64, 0
1, 145920, Tempo, 721761
1, 145920, Note_on_c, 0, 62, 0
1, 145920, Note_on_c, 0, 59, 0
1, 145920, Note_on_c, 0, 69, 0
1, 145920, Note_on_c, 0, 67, 0
1, 145920, Note_on_c, 0, 57, 45
1, 145920, Note_on_c, 0, 69, 36
1, 145920, Note_on_c, 0, 67, 36
1, 145920, Note_on_c, 0, 61, 30
1, 145998, Control_c, 0, 64, 127
1, 146160, Tempo, 685558
1, 146160, Note_on_c, 0, 61, 0
1, 146160, Note_on_c, 0, 57, 0
1, 146160, Note_on_c, 0, 61, 47
1, 146520, Tempo, 659703
1, 146520, Note_on_c, 0, 61, 0
1, 146520, Note_on_c, 0, 62, 45
1, 146640, Note_on_c, 0, 62, 0
1, 146640, Note_on_c, 0, 67, 0
1, 146640, Note_on_c, 0, 69, 0
1, 146640, Note_on_c, 0, 64, 45
1, 146640, Note_on_c, 0, 67, 31
1, 146640, Note_on_c, 0, 69, 31
1, 146654, Control_c, 0, 64, 0
1, 146680, Tempo, 705219
1, 146739, Control_c, 0, 64, 127
1, 146760, Tempo, 635728
1, 146760, Note_on_c, 0, 64, 0
1, 146760, Note_on_c, 0, 61, 43
1, 146820, Note_on_c, 0, 61, 0
1, 146820, Note_on_c, 0, 62, 36
1, 146880, Tempo, 670541
1, 146880, Note_on_c, 0, 62, 0
1, 146880, Note_on_c, 0, 61, 49
1, 146880, Control_c, 0, 64, 0
1, 146970, Note_on_c, 0, 61, 0
1, 147120, Tempo, 685558
1, 147120, Note_on_c, 0, 59, 44
1, 147210, Note_on_c, 0, 59, 0
1, 147360, Tempo, 701180
1, 147360, Note_on_c, 0, 69, 0
1, 147360, Note_on_c, 0, 67, 0
1, 147360, Note_on_c, 0, 57, 44
1, 147360, Note_on_c, 0, 61, 26
1, 147360, Note_on_c, 0, 67, 31
1, 147360, Note_on_c, 0, 69, 31
1, 147480, Note_on_c, 0, 57, 0
1, 147600, Tempo, 701180
1, 147600, Note_on_c, 0, 61, 0
1, 147600, Note_on_c, 0, 67, 0
1, 147600, Note_on_c, 0, 69, 0
1, 147600, Note_on_c, 0, 59, 44
1, 147714, Control_c, 0, 64, 127
1, 148080, Tempo, 739189
1, 148080, Note_on_c, 0, 62, 36
1, 148080, Note_on_c, 0, 67, 36
1, 148080, Note_on_c, 0, 69, 36
1, 148080, Note_on_c, 0, 38, 25
1, 148080, Note_on_c, 0, 45, 30
1, 148320, Tempo, 717532
1, 148320, Note_on_c, 0, 45, 0
1, 148320, Note_on_c, 0, 38, 0
1, 148320, Note_on_c, 0, 26, 24
1, 148320, Note_on_c, 0, 38, 27
1, 148560, Note_on_c, 0, 38, 0
1, 148560, Note_on_c, 0, 26, 0
1, 148674, Control_c, 0, 64, 0
1, 148800, Tempo, 721761
1, 148800, Note_on_c, 0, 69, 0
1, 148800, Note_on_c, 0, 59, 0
1, 148800, Note_on_c, 0, 62, 0
1, 148800, Note_on_c, 0, 67, 0
1, 148800, Note_on_c, 0, 57, 45
1, 148800, Note_on_c, 0, 69, 36
1, 148800, Note_on_c, 0, 67, 36
1, 148800, Note_on_c, 0, 61, 30
1, 148878, Control_c, 0, 64, 127
1, 149040, Tempo, 685558
1, 149040, Note_on_c, 0, 61, 0
1, 149040, Note_on_c, 0, 57, 0
1, 149040, Note_on_c, 0, 69, 0
1, 149040, Note_on_c, 0, 67, 0
1, 149040, Note_on_c, 0, 61, 47
1, 149400, Tempo, 659703
1, 149400, Note_on_c, 0, 61, 0
1, 149400, Note_on_c, 0, 62, 45
1, 149520, Tempo, 674233
1, 149520, Note_on_c, 0, 62, 0
1, 149520, Note_on_c, 0, 64, 45
1, 149538, Control_c, 0, 64, 0
1, 149697, Control_c, 0, 64, 127
1, 149760, Tempo, 689338
1, 149760, Note_on_c, 0, 64, 0
1, 149760, Note_on_c, 0, 61, 49
1, 150000, Tempo, 701180
1, 150000, Note_on_c, 0, 61, 0
1, 150000, Note_on_c, 0, 59, 44
1, 150240, Tempo, 726041
1, 150240, Note_on_c, 0, 59, 0
1, 150240, Note_on_c, 0, 57, 44
1, 150240, Note_on_c, 0, 49, 26
1, 150240, Note_on_c, 0, 52, 31
1, 150254, Control_c, 0, 64, 0
1, 150480, Tempo, 701180
1, 150480, Note_on_c, 0, 52, 0
1, 150480, Note_on_c, 0, 49, 0
1, 150480, Note_on_c, 0, 57, 0
1, 150480, Note_on_c, 0, 59, 47
1, 150480, Note_on_c, 0, 47, 29
1, 150480, Note_on_c, 0, 50, 29
1, 150480, Note_on_c, 0, 54, 35
1, 150613, Control_c, 0, 64, 127
1, 151680, Note_on_c, 0, 54, 0
1, 151680, Note_on_c, 0, 59, 0
1, 151680, Note_on_c, 0, 47, 0
1, 151680, Note_on_c, 0, 50, 0
1, 151680, Note_on_c, 0, 66, 49
1, 151680, Note_on_c, 0, 71, 49
1, 151680, Control_c, 0, 64, 0
1, 151680, Note_on_c, 0, 62, 41
1, 151680, Note_on_c, 0, 59, 34
1, 151920, Tempo, 681741
1, 151920, Note_on_c, 0, 59, 0
1, 151920, Note_on_c, 0, 66, 0
1, 151920, Note_on_c, 0, 71, 0
1, 151920, Note_on_c, 0, 62, 0
1, 151920, Note_on_c, 0, 64, 53
1, 151920, Note_on_c, 0, 68, 53
1, 151920, Note_on_c, 0, 74, 53
1, 151920, Note_on_c, 0, 62, 44
1, 151920, Note_on_c, 0, 59, 36
1, 153120, Note_on_c, 0, 59, 0
1, 153120, Note_on_c, 0, 74, 0
1, 153120, Note_on_c, 0, 64, 0
1, 153120, Note_on_c, 0, 68, 0
1, 153120, Note_on_c, 0, 62, 0
1, 153120, Note_on_c, 0, 64, 52
1, 153120, Note_on_c, 0, 67, 52
1, 153120, Note_on_c, 0, 76, 52
1, 153120, Note_on_c, 0, 62, 47
1, 153120, Note_on_c, 0, 58, 47
1, 153360, Tempo, 717532
1, 153570, Tempo, 681741
1, 153610, Tempo, 677966
1, 153630, Tempo, 674233
1, 153650, Tempo, 670541
1, 153660, Note_on_c, 0, 58, 0
1, 153660, Note_on_c, 0, 76, 0
1, 153660, Note_on_c, 0, 64, 0
1, 153660, Note_on_c, 0, 67, 0
1, 153660, Note_on_c, 0, 62, 0
1, 153660, Note_on_c, 0, 45, 42
1, 153667, Control_c, 0, 64, 127
1, 153670, Tempo, 666815
1, 153690, Tempo, 663203
1, 153690, Note_on_c, 0, 55, 42
1, 153710, Tempo, 659703
1, 153720, Note_on_c, 0, 57, 42
1, 153730, Tempo, 656168
1, 153750, Tempo, 652671
1, 153750, Note_on_c, 0, 61, 45
1, 153770, Tempo, 649210
1, 153780, Note_on_c, 0, 67, 45
1, 153790, Tempo, 645786
1, 153810, Note_on_c, 0, 69, 46
1, 153840, Tempo, 834725
1, 153840, Note_on_c, 0, 77, 52
1, 154080, Tempo, 681741
1, 154080, Note_on_c, 0, 77, 0
1, 154080, Note_on_c, 0, 67, 0
1, 154080, Note_on_c, 0, 55, 0
1, 154080, Note_on_c, 0, 57, 0
1, 154080, Note_on_c, 0, 45, 0
1, 154080, Note_on_c, 0, 69, 0
1, 154080, Note_on_c, 0, 61, 0
1, 154080, Control_c, 0, 64, 0
1, 154080, Note_on_c, 0, 38, 41
1, 154080, Note_on_c, 0, 45, 47
1, 154158, Control_c, 0, 64, 127
1, 154320, Tempo, 616586
1, 154320, Note_on_c, 0, 45, 0
1, 154320, Note_on_c, 0, 38, 0
1, 154320, Note_on_c, 0, 66, 44
1, 154400, Note_on_c, 0, 62, 40
1, 154480, Note_on_c, 0, 62, 0
1, 154480, Note_on_c, 0, 57, 40
1, 154560, Tempo, 681741
1, 154560, Note_on_c, 0, 57, 0
1, 154560, Note_on_c, 0, 66, 0
1, 154560, Note_on_c, 0, 90, 57
1, 154560, Note_on_c, 0, 78, 53
1, 154560, Note_on_c, 0, 54, 36
1, 154560, Note_on_c, 0, 66, 44
1, 154564, Control_c, 0, 64, 0
1, 154634, Control_c, 0, 64, 127
1, 154800, Tempo, 666815
1, 154800, Note_on_c, 0, 66, 0
1, 154800, Note_on_c, 0, 90, 0
1, 154800, Note_on_c, 0, 78, 0
1, 154800, Note_on_c, 0, 54, 0
1, 154800, Note_on_c, 0, 88, 62
1, 154800, Note_on_c, 0, 81, 40
1, 154800, Note_on_c, 0, 76, 56
1, 154800, Note_on_c, 0, 62, 44
1, 154800, Note_on_c, 0, 57, 36
1, 154800, Note_on_c, 0, 66, 44
1, 155040, Note_on_c, 0, 66, 0
1, 155040, Note_on_c, 0, 62, 0
1, 155040, Note_on_c, 0, 57, 0
1, 155040, Note_on_c, 0, 54, 34
1, 155040, Note_on_c, 0, 66, 41
1, 155160, Note_on_c, 0, 88, 0
1, 155160, Note_on_c, 0, 76, 0
1, 155160, Note_on_c, 0, 78, 47
1, 155160, Note_on_c, 0, 90, 53
1, 155280, Tempo, 681741
1, 155280, Note_on_c, 0, 90, 0
1, 155280, Note_on_c, 0, 66, 0
1, 155280, Note_on_c, 0, 78, 0
1, 155280, Note_on_c, 0, 54, 0
1, 155280, Note_on_c, 0, 86, 53
1, 155280, Note_on_c, 0, 74, 47
1, 155280, Note_on_c, 0, 62, 44
1, 155280, Note_on_c, 0, 57, 36
1, 155280, Note_on_c, 0, 66, 44
1, 155520, Note_on_c, 0, 66, 0
1, 155520, Note_on_c, 0, 62, 0
1, 155520, Note_on_c, 0, 81, 0
1, 155520, Note_on_c, 0, 57, 0
1, 155520, Note_on_c, 0, 81, 67
1, 155520, Note_on_c, 0, 38, 41
1, 155520, Note_on_c, 0, 45, 47
1, 155526, Control_c, 0, 64, 0
1, 155612, Control_c, 0, 64, 127
1, 155760, Tempo, 622859
1, 155760, Note_on_c, 0, 45, 0
1, 155760, Note_on_c, 0, 38, 0
1, 155760, Note_on_c, 0, 66, 44
1, 155840, Note_on_c, 0, 62, 36
1, 155920, Note_on_c, 0, 62, 0
1, 155920, Note_on_c, 0, 57, 36
1, 155947, Control_c, 0, 64, 0
1, 156000, Tempo, 697188
1, 156000, Note_on_c, 0, 57, 0
1, 156000, Note_on_c, 0, 66, 0
1, 156000, Note_on_c, 0, 81, 0
1, 156000, Note_on_c, 0, 86, 0
1, 156000, Note_on_c, 0, 74, 0
1, 156000, Note_on_c, 0, 93, 62
1, 156000, Note_on_c, 0, 81, 55
1, 156000, Note_on_c, 0, 54, 36
1, 156000, Note_on_c, 0, 66, 44
1, 156007, Control_c, 0, 64, 127
1, 156090, Note_on_c, 0, 74, 47
1, 156120, Tempo, 717532
1, 156120, Note_on_c, 0, 74, 0
1, 156120, Note_on_c, 0, 81, 47
1, 156150, Note_on_c, 0, 81, 0
1, 156150, Note_on_c, 0, 86, 47
1, 156180, Note_on_c, 0, 86, 0
1, 156180, Note_on_c, 0, 81, 47
1, 156210, Note_on_c, 0, 81, 0
1, 156210, Note_on_c, 0, 86, 47
1, 156240, Tempo, 681741
1, 156240, Note_on_c, 0, 66, 0
1, 156240, Note_on_c, 0, 54, 0
1, 156240, Note_on_c, 0, 93, 0
1, 156240, Note_on_c, 0, 81, 0
1, 156240, Note_on_c, 0, 93, 63
1, 156240, Note_on_c, 0, 81, 57
1, 156240, Note_on_c, 0, 62, 44
1, 156240, Note_on_c, 0, 57, 36
1, 156240, Note_on_c, 0, 66, 44
1, 156480, Note_on_c, 0, 66, 0
1, 156480, Note_on_c, 0, 62, 0
1, 156480, Note_on_c, 0, 57, 0
1, 156480, Note_on_c, 0, 54, 40
1, 156480, Note_on_c, 0, 66, 40
1, 156720, Tempo, 743679
1, 156720, Note_on_c, 0, 66, 0
1, 156720, Note_on_c, 0, 93, 0
1, 156720, Note_on_c, 0, 54, 0
1, 156720, Note_on_c, 0, 81, 0
1, 156720, Note_on_c, 0, 95, 57
1, 156720, Note_on_c, 0, 83, 53
1, 156720, Note_on_c, 0, 57, 36
1, 156720, Note_on_c, 0, 62, 44
1, 156720, Note_on_c, 0, 66, 44
1, 156829, Control_c, 0, 64, 0
1, 156840, Tempo, 681741
1, 156870, Note_on_c, 0, 81, 49
1, 156872, Control_c, 0, 64, 127
1, 156900, Note_on_c, 0, 81, 0
1, 156900, Note_on_c, 0, 86, 0
1, 156900, Note_on_c, 0, 86, 49
1, 156930, Note_on_c, 0, 95, 50
1, 156960, Tempo, 681741
1, 156960, Note_on_c, 0, 95, 0
1, 156960, Note_on_c, 0, 66, 0
1, 156960, Note_on_c, 0, 62, 0
1, 156960, Note_on_c, 0, 57, 0
1, 156960, Note_on_c, 0, 95, 0
1, 156960, Note_on_c, 0, 83, 0
1, 156960, Note_on_c, 0, 93, 63
1, 156960, Note_on_c, 0, 81, 57
1, 156960, Note_on_c, 0, 38, 41
1, 156960, Note_on_c, 0, 45, 47
1, 157200, Tempo, 622859
1, 157200, Note_on_c, 0, 45, 0
1, 157200, Note_on_c, 0, 38, 0
1, 157200, Note_on_c, 0, 66, 46
1, 157280, Note_on_c, 0, 62, 40
1, 157320, Note_on_c, 0, 81, 0
1, 157320, Note_on_c, 0, 93, 0
1, 157320, Note_on_c, 0, 91, 57
1, 157320, Note_on_c, 0, 79, 53
1, 157360, Note_on_c, 0, 62, 0
1, 157360, Note_on_c, 0, 57, 40
1, 157440, Tempo, 681741
1, 157440, Note_on_c, 0, 57, 0
1, 157440, Note_on_c, 0, 79, 0
1, 157440, Note_on_c, 0, 91, 0
1, 157440, Note_on_c, 0, 66, 0
1, 157440, Note_on_c, 0, 90, 57
1, 157440, Note_on_c, 0, 78, 53
1, 157440, Note_on_c, 0, 54, 36
1, 157440, Note_on_c, 0, 66, 44
1, 157680, Note_on_c, 0, 66, 0
1, 157680, Note_on_c, 0, 78, 0
1, 157680, Note_on_c, 0, 86, 0
1, 157680, Note_on_c, 0, 90, 0
1, 157680, Note_on_c, 0, 54, 0
1, 157680, Note_on_c, 0, 88, 62
1, 157680, Note_on_c, 0, 81, 40
1, 157680, Note_on_c, 0, 76, 56
1, 157680, Note_on_c, 0, 62, 44
1, 157680, Note_on_c, 0, 57, 36
1, 157680, Note_on_c, 0, 66, 44
1, 157691, Control_c, 0, 64, 0
1, 157700, Tempo, 670541
1, 157772, Control_c, 0, 64, 127
1, 157920, Note_on_c, 0, 66, 0
1, 157920, Note_on_c, 0, 88, 0
1, 157920, Note_on_c, 0, 76, 0
1, 157920, Note_on_c, 0, 62, 0
1, 157920, Note_on_c, 0, 57, 0
1, 157920, Note_on_c, 0, 90, 54
1, 157920, Note_on_c, 0, 78, 50
1, 157920, Note_on_c, 0, 54, 31
1, 157920, Note_on_c, 0, 66, 37
1, 158160, Tempo, 713436
1, 158160, Note_on_c, 0, 66, 0
1, 158160, Note_on_c, 0, 78, 0
1, 158160, Note_on_c, 0, 54, 0
1, 158160, Note_on_c, 0, 90, 0
1, 158160, Note_on_c, 0, 86, 52
1, 158160, Note_on_c, 0, 74, 46
1, 158160, Note_on_c, 0, 62, 36
1, 158160, Note_on_c, 0, 57, 30
1, 158160, Note_on_c, 0, 66, 36
1, 158400, Tempo, 666815
1, 158400, Note_on_c, 0, 66, 0
1, 158400, Note_on_c, 0, 86, 0
1, 158400, Note_on_c, 0, 74, 0
1, 158400, Note_on_c, 0, 81, 0
1, 158400, Note_on_c, 0, 57, 0
1, 158400, Note_on_c, 0, 62, 0
1, 158400, Note_on_c, 0, 38, 47
1, 158409, Control_c, 0, 64, 0
1, 158475, Control_c, 0, 64, 127
1, 158640, Tempo, 613497
1, 158640, Note_on_c, 0, 38, 0
1, 158640, Note_on_c, 0, 66, 44
1, 158720, Note_on_c, 0, 62, 36
1, 158800, Note_on_c, 0, 62, 0
1, 158800, Note_on_c, 0, 58, 36
1, 158880, Tempo, 697188
1, 158880, Note_on_c, 0, 58, 0
1, 158880, Note_on_c, 0, 66, 0
1, 158880, Note_on_c, 0, 90, 57
1, 158880, Note_on_c, 0, 78, 53
1, 158880, Note_on_c, 0, 54, 36
1, 158880, Note_on_c, 0, 66, 44
1, 158900, Control_c, 0, 64, 0
1, 158917, Control_c, 0, 64, 127
1, 159120, Note_on_c, 0, 66, 0
1, 159120, Note_on_c, 0, 90, 0
1, 159120, Note_on_c, 0, 78, 0
1, 159120, Note_on_c, 0, 54, 0
1, 159120, Note_on_c, 0, 90, 63
1, 159120, Note_on_c, 0, 82, 40
1, 159120, Note_on_c, 0, 78, 57
1, 159120, Note_on_c, 0, 62, 44
1, 159120, Note_on_c, 0, 58, 36
1, 159120, Note_on_c, 0, 66, 44
1, 159360, Note_on_c, 0, 66, 0
1, 159360, Note_on_c, 0, 62, 0
1, 159360, Note_on_c, 0, 58, 0
1, 159360, Note_on_c, 0, 54, 34
1, 159360, Note_on_c, 0, 66, 41
1, 159600, Tempo, 713436
1, 159600, Note_on_c, 0, 66, 0
1, 159600, Note_on_c, 0, 90, 0
1, 159600, Note_on_c, 0, 54, 0
1, 159600, Note_on_c, 0, 78, 0
1, 159600, Note_on_c, 0, 88, 57
1, 159600, Note_on_c, 0, 76, 53
1, 159600, Note_on_c, 0, 62, 44
1, 159600, Note_on_c, 0, 58, 36
1, 159600, Note_on_c, 0, 66, 44
1, 159840, Tempo, 693241
1, 159840, Note_on_c, 0, 76, 0
1, 159840, Note_on_c, 0, 88, 0
1, 159840, Note_on_c, 0, 88, 62
1, 159840, Note_on_c, 0, 76, 56
1, 159846, Control_c, 0, 64, 0
1, 159904, Control_c, 0, 64, 127
1, 160080, Tempo, 639046
1, 160080, Note_on_c, 0, 62, 0
1, 160080, Note_on_c, 0, 58, 0
1, 160080, Note_on_c, 0, 82, 0
1, 160080, Note_on_c, 0, 66, 0
1, 160080, Note_on_c, 0, 66, 44
1, 160160, Note_on_c, 0, 62, 36
1, 160240, Note_on_c, 0, 62, 0
1, 160240, Note_on_c, 0, 58, 36
1, 160320, Tempo, 685558
1, 160320, Note_on_c, 0, 58, 0
1, 160320, Note_on_c, 0, 66, 0
1, 160320, Note_on_c, 0, 76, 0
1, 160320, Note_on_c, 0, 88, 0
1, 160320, Note_on_c, 0, 85, 57
1, 160320, Note_on_c, 0, 73, 53
1, 160320, Note_on_c, 0, 54, 36
1, 160320, Note_on_c, 0, 66, 44
1, 160560, Tempo, 685558
1, 160560, Note_on_c, 0, 66, 0
1, 160560, Note_on_c, 0, 85, 0
1, 160560, Note_on_c, 0, 73, 0
1, 160560, Note_on_c, 0, 54, 0
1, 160560, Note_on_c, 0, 86, 62
1, 160560, Note_on_c, 0, 71, 40
1, 160560, Note_on_c, 0, 83, 40
1, 160560, Note_on_c, 0, 74, 56
1, 160560, Note_on_c, 0, 62, 44
1, 160560, Note_on_c, 0, 59, 36
1, 160560, Note_on_c, 0, 66, 44
1, 160574, Control_c, 0, 64, 0
1, 160663, Control_c, 0, 64, 127
1, 160800, Note_on_c, 0, 66, 0
1, 160800, Note_on_c, 0, 62, 0
1, 160800, Note_on_c, 0, 59, 0
1, 160800, Note_on_c, 0, 54, 34
1, 160800, Note_on_c, 0, 66, 41
1, 160920, Note_on_c, 0, 86, 0
1, 160920, Note_on_c, 0, 74, 0
1, 160920, Note_on_c, 0, 85, 57
1, 160920, Note_on_c, 0, 73, 53
1, 161040, Tempo, 730371
1, 161040, Note_on_c, 0, 73, 0
1, 161040, Note_on_c, 0, 66, 0
1, 161040, Note_on_c, 0, 54, 0
1, 161040, Note_on_c, 0, 85, 0
1, 161040, Note_on_c, 0, 83, 57
1, 161040, Note_on_c, 0, 71, 53
1, 161040, Note_on_c, 0, 62, 44
1, 161040, Note_on_c, 0, 59, 36
1, 161040, Note_on_c, 0, 66, 44
1, 161280, Note_on_c, 0, 66, 0
1, 161280, Note_on_c, 0, 62, 0
1, 161280, Note_on_c, 0, 71, 0
1, 161280, Note_on_c, 0, 83, 0
1, 161280, Note_on_c, 0, 83, 0
1, 161280, Note_on_c, 0, 59, 0
1, 161280, Note_on_c, 0, 71, 0
1, 161280, Note_on_c, 0, 38, 47
1, 161284, Control_c, 0, 64, 0
1, 161352, Control_c, 0, 64, 127
1, 161520, Tempo, 639046
1, 161520, Note_on_c, 0, 38, 0
1, 161520, Note_on_c, 0, 66, 52
1, 161600, Note_on_c, 0, 62, 47
1, 161680, Note_on_c, 0, 62, 0
1, 161680, Note_on_c, 0, 58, 45
1, 161760, Tempo, 709304
1, 161760, Note_on_c, 0, 58, 0
1, 161760, Note_on_c, 0, 66, 0
1, 161760, Note_on_c, 0, 90, 57
1, 161760, Note_on_c, 0, 78, 53
1, 161760, Note_on_c, 0, 54, 36
1, 161760, Note_on_c, 0, 66, 44
1, 161771, Control_c, 0, 64, 0
1, 161835, Control_c, 0, 64, 127
1, 162000, Tempo, 697188
1, 162000, Note_on_c, 0, 66, 0
1, 162000, Note_on_c, 0, 90, 0
1, 162000, Note_on_c, 0, 78, 0
1, 162000, Note_on_c, 0, 54, 0
1, 162000, Note_on_c, 0, 90, 63
1, 162000, Note_on_c, 0, 82, 40
1, 162000, Note_on_c, 0, 78, 57
1, 162000, Note_on_c, 0, 62, 44
1, 162000, Note_on_c, 0, 58, 36
1, 162000, Note_on_c, 0, 66, 44
1, 162240, Note_on_c, 0, 66, 0
1, 162240, Note_on_c, 0, 62, 0
1, 162240, Note_on_c, 0, 58, 0
1, 162240, Note_on_c, 0, 54, 34
1, 162240, Note_on_c, 0, 66, 41
1, 162480, Tempo, 713436
1, 162480, Note_on_c, 0, 66, 0
1, 162480, Note_on_c, 0, 90, 0
1, 162480, Note_on_c, 0, 54, 0
1, 162480, Note_on_c, 0, 78, 0
1, 162480, Note_on_c, 0, 88, 57
1, 162480, Note_on_c, 0, 76, 53
1, 162480, Note_on_c, 0, 62, 44
1, 162480, Note_on_c, 0, 58, 36
1, 162480, Note_on_c, 0, 66, 44
1, 162720, Tempo, 693241
1, 162720, Note_on_c, 0, 76, 0
1, 162720, Note_on_c, 0, 88, 0
1, 162720, Note_on_c, 0, 88, 62
1, 162720, Note_on_c, 0, 76, 56
1, 162725, Control_c, 0, 64, 0
1, 162816, Control_c, 0, 64, 127
1, 162960, Tempo, 626043
1, 162960, Note_on_c, 0, 62, 0
1, 162960, Note_on_c, 0, 58, 0
1, 162960, Note_on_c, 0, 82, 0
1, 162960, Note_on_c, 0, 66, 0
1, 162960, Note_on_c, 0, 66, 44
1, 163040, Note_on_c, 0, 62, 36
1, 163120, Note_on_c, 0, 62, 0
1, 163120, Note_on_c, 0, 58, 36
1, 163200, Tempo, 689338
1, 163200, Note_on_c, 0, 58, 0
1, 163200, Note_on_c, 0, 66, 0
1, 163200, Note_on_c, 0, 76, 0
1, 163200, Note_on_c, 0, 88, 0
1, 163200, Note_on_c, 0, 85, 57
1, 163200, Note_on_c, 0, 73, 53
1, 163200, Note_on_c, 0, 54, 36
1, 163200, Note_on_c, 0, 66, 44
1, 163220, Control_c, 0, 64, 0
1, 163249, Control_c, 0, 64, 127
1, 163320, Tempo, 870196
1, 163340, Tempo, 864055
1, 163350, Note_on_c, 0, 74, 49
1, 163360, Tempo, 852152
1, 163380, Tempo, 846262
1, 163380, Note_on_c, 0, 78, 49
1, 163400, Tempo, 834725
1, 163410, Note_on_c, 0, 88, 50
1, 163420, Tempo, 823497
1, 163440, Tempo, 685558
1, 163440, Note_on_c, 0, 88, 0
1, 163440, Note_on_c, 0, 73, 0
1, 163440, Note_on_c, 0, 54, 0
1, 163440, Note_on_c, 0, 85, 0
1, 163440, Note_on_c, 0, 66, 0
1, 163440, Note_on_c, 0, 86, 62
1, 163440, Note_on_c, 0, 71, 40
1, 163440, Note_on_c, 0, 62, 44
1, 163440, Note_on_c, 0, 59, 36
1, 163440, Note_on_c, 0, 66, 44
1, 163680, Note_on_c, 0, 66, 0
1, 163680, Note_on_c, 0, 62, 0
1, 163680, Note_on_c, 0, 59, 0
1, 163680, Note_on_c, 0, 54, 34
1, 163680, Note_on_c, 0, 66, 41
1, 163800, Note_on_c, 0, 86, 0
1, 163800, Note_on_c, 0, 74, 0
1, 163800, Note_on_c, 0, 85, 57
1, 163800, Note_on_c, 0, 73, 53
1, 163920, Tempo, 730371
1, 163920, Note_on_c, 0, 73, 0
1, 163920, Note_on_c, 0, 66, 0
1, 163920, Note_on_c, 0, 54, 0
1, 163920, Note_on_c, 0, 85, 0
1, 163920, Note_on_c, 0, 83, 57
1, 163920, Note_on_c, 0, 71, 53
1, 163920, Note_on_c, 0, 62, 44
1, 163920, Note_on_c, 0, 59, 36
1, 163920, Note_on_c, 0, 66, 44
1, 164160, Note_on_c, 0, 66, 0
1, 164160, Note_on_c, 0, 62, 0
1, 164160, Note_on_c, 0, 78, 0
1, 164160, Note_on_c, 0, 83, 0
1, 164160, Note_on_c, 0, 71, 0
1, 164160, Note_on_c, 0, 59, 0
1, 164160, Note_on_c, 0, 71, 0
1, 164160, Note_on_c, 0, 50, 47
1, 164160, Note_on_c, 0, 38, 41
1, 164165, Control_c, 0, 64, 0
1, 164266, Control_c, 0, 64, 127
1, 164400, Tempo, 642398
1, 164400, Note_on_c, 0, 38, 0
1, 164400, Note_on_c, 0, 50, 0
1, 164400, Note_on_c, 0, 66, 46
1, 164480, Note_on_c, 0, 62, 41
1, 164560, Note_on_c, 0, 62, 0
1, 164560, Note_on_c, 0, 57, 41
1, 164640, Tempo, 730371
1, 164640, Note_on_c, 0, 57, 0
1, 164640, Note_on_c, 0, 66, 0
1, 164640, Note_on_c, 0, 78, 61
1, 164640, Note_on_c, 0, 81, 61
1, 164640, Note_on_c, 0, 69, 61
1, 164640, Note_on_c, 0, 54, 36
1, 164640, Note_on_c, 0, 66, 44
1, 164647, Control_c, 0, 64, 0
1, 164677, Control_c, 0, 64, 127
1, 164880, Note_on_c, 0, 66, 0
1, 164880, Note_on_c, 0, 69, 0
1, 164880, Note_on_c, 0, 78, 0
1, 164880, Note_on_c, 0, 81, 0
1, 164880, Note_on_c, 0, 54, 0
1, 164880, Note_on_c, 0, 78, 64
1, 164880, Note_on_c, 0, 83, 64
1, 164880, Note_on_c, 0, 71, 64
1, 164880, Note_on_c, 0, 62, 50
1, 164880, Note_on_c, 0, 56, 42
1, 164880, Note_on_c, 0, 66, 50
1, 165120, Note_on_c, 0, 66, 0
1, 165120, Note_on_c, 0, 62, 0
1, 165120, Note_on_c, 0, 56, 0
1, 165120, Note_on_c, 0, 54, 40
1, 165120, Note_on_c, 0, 66, 46
1, 165360, Note_on_c, 0, 66, 0
1, 165360, Note_on_c, 0, 54, 0
1, 165360, Note_on_c, 0, 62, 45
1, 165360, Note_on_c, 0, 56, 37
1, 165360, Note_on_c, 0, 66, 45
1, 165600, Note_on_c, 0, 66, 0
1, 165600, Note_on_c, 0, 71, 0
1, 165600, Note_on_c, 0, 83, 0
1, 165600, Note_on_c, 0, 62, 0
1, 165600, Note_on_c, 0, 56, 0
1, 165600, Note_on_c, 0, 73, 66
1, 165600, Note_on_c, 0, 85, 66
1, 165600, Note_on_c, 0, 37, 51
1, 165600, Note_on_c, 0, 49, 51
1, 165603, Control_c, 0, 64, 0
1, 165840, Note_on_c, 0, 49, 0
1, 165840, Note_on_c, 0, 85, 0
1, 165840, Note_on_c, 0, 78, 0
1, 165840, Note_on_c, 0, 73, 0
1, 165840, Note_on_c, 0, 37, 0
1, 166080, Tempo, 717532
1, 166080, Note_on_c, 0, 70, 30
1, 166080, Note_on_c, 0, 73, 30
1, 166080, Note_on_c, 0, 61, 45
1, 166080, Note_on_c, 0, 58, 30
1, 166080, Note_on_c, 0, 49, 30
1, 166087, Control_c, 0, 64, 127
1, 166320, Tempo, 681741
1, 166320, Note_on_c, 0, 61, 0
1, 166320, Note_on_c, 0, 65, 47
1, 166560, Tempo, 663203
1, 166680, Note_on_c, 0, 65, 0
1, 166680, Note_on_c, 0, 66, 45
1, 166800, Tempo, 701180
1, 166800, Note_on_c, 0, 66, 0
1, 166800, Note_on_c, 0, 58, 0
1, 166800, Note_on_c, 0, 70, 0
1, 166800, Note_on_c, 0, 73, 0
1, 166800, Note_on_c, 0, 49, 0
1, 166800, Note_on_c, 0, 73, 26
1, 166800, Note_on_c, 0, 68, 45
1, 166800, Note_on_c, 0, 49, 26
1, 166800, Note_on_c, 0, 59, 26
1, 166809, Control_c, 0, 64, 0
1, 166934, Control_c, 0, 64, 127
1, 167040, Tempo, 681741
1, 167040, Note_on_c, 0, 68, 0
1, 167040, Note_on_c, 0, 65, 50
1, 167520, Tempo, 705219
1, 167520, Note_on_c, 0, 65, 0
1, 167520, Note_on_c, 0, 59, 0
1, 167520, Note_on_c, 0, 49, 0
1, 167520, Note_on_c, 0, 73, 0
1, 167520, Note_on_c, 0, 71, 30
1, 167520, Note_on_c, 0, 73, 30
1, 167520, Note_on_c, 0, 61, 44
1, 167520, Note_on_c, 0, 56, 26
1, 167520, Note_on_c, 0, 49, 26
1, 167520, Note_on_c, 0, 59, 26
1, 167540, Control_c, 0, 64, 0
1, 167760, Tempo, 689338
1, 167760, Note_on_c, 0, 61, 0
1, 167760, Note_on_c, 0, 63, 45
1, 167912, Control_c, 0, 64, 127
1, 168240, Tempo, 734754
1, 168240, Note_on_c, 0, 73, 0
1, 168240, Note_on_c, 0, 49, 0
1, 168240, Note_on_c, 0, 56, 0
1, 168240, Note_on_c, 0, 71, 0
1, 168240, Note_on_c, 0, 59, 0
1, 168240, Note_on_c, 0, 71, 30
1, 168240, Note_on_c, 0, 73, 30
1, 168240, Note_on_c, 0, 68, 30
1, 168240, Note_on_c, 0, 41, 29
1, 168240, Note_on_c, 0, 49, 29
1, 168480, Tempo, 709304
1, 168480, Note_on_c, 0, 41, 0
1, 168480, Note_on_c, 0, 68, 0
1, 168480, Note_on_c, 0, 73, 0
1, 168480, Note_on_c, 0, 71, 0
1, 168480, Note_on_c, 0, 42, 35
1, 168872, Control_c, 0, 64, 0
1, 168960, Tempo, 721761
1, 168960, Note_on_c, 0, 42, 0
1, 168960, Note_on_c, 0, 63, 0
1, 168960, Note_on_c, 0, 49, 0
1, 168960, Note_on_c, 0, 70, 30
1, 168960, Note_on_c, 0, 73, 30
1, 168960, Note_on_c, 0, 61, 45
1, 168960, Note_on_c, 0, 49, 26
1, 168960, Note_on_c, 0, 58, 26
1, 169038, Control_c, 0, 64, 127
1, 169200, Tempo, 685558
1, 169200, Note_on_c, 0, 61, 0
1, 169200, Note_on_c, 0, 65, 47
1, 169560, Tempo, 659703
1, 169560, Note_on_c, 0, 65, 0
1, 169560, Note_on_c, 0, 66, 45
1, 169680, Note_on_c, 0, 66, 0
1, 169680, Note_on_c, 0, 49, 0
1, 169680, Note_on_c, 0, 70, 0
1, 169680, Note_on_c, 0, 73, 0
1, 169680, Note_on_c, 0, 58, 0
1, 169680, Note_on_c, 0, 73, 30
1, 169680, Note_on_c, 0, 68, 45
1, 169680, Note_on_c, 0, 49, 26
1, 169680, Note_on_c, 0, 59, 26
1, 169684, Control_c, 0, 64, 0
1, 169720, Tempo, 705219
1, 169729, Control_c, 0, 64, 127
1, 169800, Tempo, 635728
1, 169800, Note_on_c, 0, 59, 0
1, 169800, Note_on_c, 0, 73, 0
1, 169800, Note_on_c, 0, 68, 0
1, 169800, Note_on_c, 0, 49, 0
1, 169800, Note_on_c, 0, 65, 43
1, 169860, Note_on_c, 0, 65, 0
1, 169860, Note_on_c, 0, 66, 36
1, 169920, Tempo, 670541
1, 169920, Note_on_c, 0, 66, 0
1, 169920, Note_on_c, 0, 65, 49
1, 169924, Control_c, 0, 64, 0
1, 170010, Note_on_c, 0, 65, 0
1, 170160, Tempo, 685558
1, 170160, Note_on_c, 0, 63, 44
1, 170250, Note_on_c, 0, 63, 0
1, 170400, Tempo, 701180
1, 170400, Note_on_c, 0, 71, 30
1, 170400, Note_on_c, 0, 73, 30
1, 170400, Note_on_c, 0, 65, 30
1, 170400, Note_on_c, 0, 61, 44
1, 170400, Note_on_c, 0, 59, 22
1, 170400, Note_on_c, 0, 49, 22
1, 170400, Note_on_c, 0, 56, 22
1, 170490, Note_on_c, 0, 61, 0
1, 170640, Tempo, 701180
1, 170640, Note_on_c, 0, 49, 0
1, 170640, Note_on_c, 0, 73, 0
1, 170640, Note_on_c, 0, 65, 0
1, 170640, Note_on_c, 0, 71, 0
1, 170640, Note_on_c, 0, 56, 0
1, 170640, Note_on_c, 0, 59, 0
1, 170640, Note_on_c, 0, 63, 43
1, 170754, Control_c, 0, 64, 127
1, 171120, Tempo, 739189
1, 171120, Note_on_c, 0, 66, 33
1, 171120, Note_on_c, 0, 71, 33
1, 171120, Note_on_c, 0, 73, 33
1, 171120, Note_on_c, 0, 49, 23
1, 171120, Note_on_c, 0, 54, 23
1, 171120, Note_on_c, 0, 59, 23
1, 171360, Tempo, 717532
1, 171600, Note_on_c, 0, 59, 0
1, 171600, Note_on_c, 0, 49, 0
1, 171600, Note_on_c, 0, 54, 0
1, 171714, Control_c, 0, 64, 0
1, 171840, Tempo, 721761
1, 171840, Note_on_c, 0, 71, 0
1, 171840, Note_on_c, 0, 63, 0
1, 171840, Note_on_c, 0, 66, 0
1, 171840, Note_on_c, 0, 73, 0
1, 171840, Note_on_c, 0, 68, 39
1, 171840, Note_on_c, 0, 71, 39
1, 171840, Note_on_c, 0, 73, 39
1, 171840, Note_on_c, 0, 61, 45
1, 171840, Note_on_c, 0, 49, 25
1, 171840, Note_on_c, 0, 53, 25
1, 171840, Note_on_c, 0, 59, 25
1, 171918, Control_c, 0, 64, 127
1, 172080, Tempo, 685558
1, 172080, Note_on_c, 0, 59, 0
1, 172080, Note_on_c, 0, 49, 0
1, 172080, Note_on_c, 0, 71, 0
1, 172080, Note_on_c, 0, 73, 0
1, 172080, Note_on_c, 0, 68, 0
1, 172080, Note_on_c, 0, 53, 0
1, 172080, Note_on_c, 0, 61, 0
1, 172080, Note_on_c, 0, 65, 47
1, 172440, Tempo, 659703
1, 172440, Note_on_c, 0, 65, 0
1, 172440, Note_on_c, 0, 66, 45
1, 172560, Tempo, 674233
1, 172560, Note_on_c, 0, 66, 0
1, 172560, Note_on_c, 0, 68, 45
1, 172800, Tempo, 689338
1, 172800, Note_on_c, 0, 68, 0
1, 172800, Note_on_c, 0, 65, 49
1, 172802, Control_c, 0, 64, 0
1, 172915, Control_c, 0, 64, 127
1, 173040, Tempo, 701180
1, 173040, Note_on_c, 0, 65, 0
1, 173040, Note_on_c, 0, 63, 44
1, 173280, Tempo, 726041
1, 173280, Note_on_c, 0, 63, 0
1, 173280, Note_on_c, 0, 56, 36
1, 173280, Note_on_c, 0, 61, 44
1, 173280, Note_on_c, 0, 53, 31
1, 173280, Note_on_c, 0, 49, 26
1, 173520, Tempo, 701180
1, 173520, Note_on_c, 0, 49, 0
1, 173520, Note_on_c, 0, 56, 0
1, 173520, Note_on_c, 0, 61, 0
1, 173520, Note_on_c, 0, 53, 0
1, 173520, Note_on_c, 0, 59, 41
1, 173520, Note_on_c, 0, 63, 47
1, 173520, Note_on_c, 0, 47, 29
1, 173520, Note_on_c, 0, 54, 35
1, 173537, Control_c, 0, 64, 0
1, 173749, Control_c, 0, 64, 127
1, 174720, Tempo, 1291712
1, 174720, Note_on_c, 0, 54, 0
1, 174720, Note_on_c, 0, 59, 0
1, 174720, Note_on_c, 0, 63, 0
1, 174720, Note_on_c, 0, 47, 0
1, 174720, Note_on_c, 0, 56, 47
1, 174720, Note_on_c, 0, 59, 47
1, 174720, Note_on_c, 0, 63, 47
1, 174720, Note_on_c, 0, 44, 35
1, 174720, Note_on_c, 0, 51, 35
1, 174729, Control_c, 0, 64, 0
1, 174810, Tempo, 876424
1, 174810, Note_on_c, 0, 51, 0
1, 174810, Note_on_c, 0, 63, 0
1, 174810, Note_on_c, 0, 56, 0
1, 174810, Note_on_c, 0, 59, 0
1, 174810, Note_on_c, 0, 44, 0
1, 174810, Note_on_c, 0, 39, 25
1, 174840, Note_on_c, 0, 46, 27
1, 174870, Note_on_c, 0, 51, 29
1, 174900, Note_on_c, 0, 54, 36
1, 174930, Note_on_c, 0, 58, 39
1, 174960, Tempo, 701180
1, 174960, Note_on_c, 0, 66, 41
1, 175435, Note_on_c, 0, 66, 0
1, 175435, Note_on_c, 0, 46, 0
1, 175435, Note_on_c, 0, 51, 0
1, 175435, Note_on_c, 0, 39, 0
1, 175435, Note_on_c, 0, 58, 0
1, 175435, Note_on_c, 0, 54, 0
1, 175440, Tempo, 642398
1, 175440, Note_on_c, 0, 66, 36
1, 175440, Note_on_c, 0, 54, 36
1, 175514, Control_c, 0, 64, 127
1, 176155, Note_on_c, 0, 54, 0
1, 176155, Note_on_c, 0, 66, 0
1, 176160, Note_on_c, 0, 54, 32
1, 176160, Note_on_c, 0, 66, 32
1, 176403, Control_c, 0, 64, 0
1, 176760, Tempo, 882742
1, 176760, Note_on_c, 0, 66, 0
1, 176760, Note_on_c, 0, 54, 0
1, 176760, Note_on_c, 0, 51, 40
1, 176772, Tempo, 870196
1, 176784, Tempo, 858124
1, 176790, Note_on_c, 0, 57, 40
1, 176800, Tempo, 846262
1, 176812, Tempo, 829073
1, 176820, Note_on_c, 0, 59, 44
1, 176824, Tempo, 817996
1, 176840, Tempo, 807320
1, 176850, Note_on_c, 0, 66, 44
1, 176852, Tempo, 796813
1, 176864, Tempo, 781555
1, 176880, Tempo, 791661
1, 176880, Note_on_c, 0, 71, 44
1, 177120, Tempo, 681741
1, 177120, Note_on_c, 0, 71, 0
1, 177120, Note_on_c, 0, 59, 0
1, 177120, Note_on_c, 0, 51, 0
1, 177120, Note_on_c, 0, 57, 0
1, 177120, Note_on_c, 0, 66, 0
1, 177120, Note_on_c, 0, 40, 53
1, 177152, Control_c, 0, 64, 127
1, 177360, Tempo, 616586
1, 177600, Tempo, 681741
1, 177600, Note_on_c, 0, 40, 0
1, 177600, Note_on_c, 0, 67, 40
1, 177600, Note_on_c, 0, 71, 40
1, 177600, Note_on_c, 0, 79, 57
1, 177600, Note_on_c, 0, 52, 33
1, 177600, Note_on_c, 0, 59, 33
1, 177600, Note_on_c, 0, 64, 33
1, 177620, Control_c, 0, 64, 0
1, 177800, Control_c, 0, 64, 127
1, 177840, Tempo, 666815
1, 177840, Note_on_c, 0, 79, 0
1, 177840, Note_on_c, 0, 78, 62
1, 178080, Note_on_c, 0, 78, 0
1, 178080, Note_on_c, 0, 79, 53
1, 178320, Tempo, 681741
1, 178320, Note_on_c, 0, 79, 0
1, 178320, Note_on_c, 0, 71, 0
1, 178320, Note_on_c, 0, 52, 0
1, 178320, Note_on_c, 0, 67, 0
1, 178320, Note_on_c, 0, 64, 0
1, 178320, Note_on_c, 0, 59, 0
1, 178320, Note_on_c, 0, 64, 40
1, 178320, Note_on_c, 0, 71, 40
1, 178320, Note_on_c, 0, 76, 53
1, 178320, Note_on_c, 0, 59, 40
1, 178320, Note_on_c, 0, 52, 40
1, 178320, Note_on_c, 0, 67, 53
1, 178334, Control_c, 0, 64, 0
1, 178560, Tempo, 666815
1, 178560, Note_on_c, 0, 67, 0
1, 178560, Note_on_c, 0, 66, 56
1, 178571, Control_c, 0, 64, 127
1, 178800, Note_on_c, 0, 66, 0
1, 178800, Note_on_c, 0, 67, 47
1, 179040, Tempo, 681741
1, 179040, Note_on_c, 0, 67, 0
1, 179040, Note_on_c, 0, 71, 0
1, 179040, Note_on_c, 0, 76, 0
1, 179040, Note_on_c, 0, 64, 0
1, 179040, Note_on_c, 0, 52, 0
1, 179040, Note_on_c, 0, 59, 0
1, 179040, Note_on_c, 0, 83, 57
1, 179040, Note_on_c, 0, 67, 40
1, 179040, Note_on_c, 0, 76, 40
1, 179040, Note_on_c, 0, 52, 34
1, 179040, Note_on_c, 0, 59, 34
1, 179040, Note_on_c, 0, 64, 47
1, 179068, Control_c, 0, 64, 0
1, 179118, Control_c, 0, 64, 127
1, 179280, Note_on_c, 0, 83, 0
1, 179280, Note_on_c, 0, 83, 63
1, 179760, Tempo, 663203
1, 179760, Note_on_c, 0, 83, 0
1, 179760, Note_on_c, 0, 64, 0
1, 179760, Note_on_c, 0, 52, 0
1, 179760, Note_on_c, 0, 67, 0
1, 179760, Note_on_c, 0, 76, 0
1, 179760, Note_on_c, 0, 59, 0
1, 179760, Note_on_c, 0, 85, 61
1, 179760, Note_on_c, 0, 47, 34
1, 179880, Note_on_c, 0, 85, 0
1, 179880, Note_on_c, 0, 83, 61
1, 179940, Note_on_c, 0, 83, 0
1, 179940, Note_on_c, 0, 85, 62
1, 179951, Control_c, 0, 64, 0
1, 180000, Tempo, 674233
1, 180000, Note_on_c, 0, 85, 0
1, 180000, Note_on_c, 0, 47, 0
1, 180000, Note_on_c, 0, 83, 67
1, 180000, Note_on_c, 0, 40, 53
1, 180099, Control_c, 0, 64, 127
1, 180360, Tempo, 652671
1, 180360, Note_on_c, 0, 83, 0
1, 180360, Note_on_c, 0, 81, 63
1, 180480, Tempo, 674233
1, 180480, Note_on_c, 0, 81, 0
1, 180480, Note_on_c, 0, 40, 0
1, 180480, Note_on_c, 0, 79, 63
1, 180480, Note_on_c, 0, 52, 36
1, 180480, Note_on_c, 0, 59, 36
1, 180720, Tempo, 674233
1, 180720, Note_on_c, 0, 79, 0
1, 180720, Note_on_c, 0, 78, 66
1, 180720, Note_on_c, 0, 71, 56
1, 180741, Control_c, 0, 64, 0
1, 180854, Control_c, 0, 64, 127
1, 180960, Note_on_c, 0, 78, 0
1, 180960, Note_on_c, 0, 79, 63
1, 181080, Tempo, 652671
1, 181080, Note_on_c, 0, 71, 0
1, 181080, Note_on_c, 0, 69, 53
1, 181200, Tempo, 674233
1, 181200, Note_on_c, 0, 69, 0
1, 181200, Note_on_c, 0, 79, 0
1, 181200, Note_on_c, 0, 59, 0
1, 181200, Note_on_c, 0, 52, 0
1, 181200, Note_on_c, 0, 71, 40
1, 181200, Note_on_c, 0, 76, 62
1, 181200, Note_on_c, 0, 67, 53
1, 181440, Tempo, 663203
1, 181440, Note_on_c, 0, 67, 0
1, 181440, Note_on_c, 0, 66, 55
1, 181443, Control_c, 0, 64, 0
1, 181533, Control_c, 0, 64, 127
1, 181680, Tempo, 677966
1, 181680, Note_on_c, 0, 66, 0
1, 181680, Note_on_c, 0, 67, 53
1, 181920, Tempo, 717532
1, 181920, Note_on_c, 0, 67, 0
1, 181920, Note_on_c, 0, 76, 0
1, 181920, Note_on_c, 0, 71, 0
1, 181920, Note_on_c, 0, 67, 40
1, 181920, Note_on_c, 0, 71, 40
1, 181920, Note_on_c, 0, 79, 64
1, 181920, Note_on_c, 0, 52, 36
1, 181920, Note_on_c, 0, 59, 36
1, 181920, Note_on_c, 0, 64, 51
1, 181928, Control_c, 0, 64, 0
1, 182067, Control_c, 0, 64, 127
1, 182160, Tempo, 677966
1, 182160, Note_on_c, 0, 79, 0
1, 182160, Note_on_c, 0, 79, 67
1, 182400, Tempo, 705219
1, 182640, Tempo, 709304
1, 182640, Note_on_c, 0, 79, 0
1, 182640, Note_on_c, 0, 64, 0
1, 182640, Note_on_c, 0, 52, 0
1, 182640, Note_on_c, 0, 67, 0
1, 182640, Note_on_c, 0, 71, 0
1, 182640, Note_on_c, 0, 59, 0
1, 182640, Note_on_c, 0, 67, 40
1, 182640, Note_on_c, 0, 71, 40
1, 182640, Note_on_c, 0, 78, 59
1, 182640, Note_on_c, 0, 52, 36
1, 182640, Note_on_c, 0, 62, 41
1, 182640, Note_on_c, 0, 59, 36
1, 182850, Note_on_c, 0, 45, 32
1, 182880, Tempo, 705219
1, 182880, Note_on_c, 0, 59, 0
1, 182880, Note_on_c, 0, 52, 0
1, 182880, Note_on_c, 0, 71, 0
1, 182880, Note_on_c, 0, 78, 0
1, 182880, Note_on_c, 0, 67, 0
1, 182880, Note_on_c, 0, 62, 0
1, 182880, Note_on_c, 0, 67, 33
1, 182880, Note_on_c, 0, 71, 33
1, 182880, Note_on_c, 0, 78, 62
1, 182880, Note_on_c, 0, 62, 45
1, 182885, Control_c, 0, 64, 0
1, 182986, Control_c, 0, 64, 127
1, 183120, Tempo, 717532
1, 183360, Tempo, 681741
1, 183360, Note_on_c, 0, 62, 0
1, 183360, Note_on_c, 0, 78, 0
1, 183360, Note_on_c, 0, 74, 63
1, 183360, Note_on_c, 0, 59, 44
1, 183600, Note_on_c, 0, 59, 0
1, 183600, Note_on_c, 0, 45, 0
1, 183600, Note_on_c, 0, 71, 0
1, 183600, Note_on_c, 0, 67, 0
1, 183600, Note_on_c, 0, 74, 0
1, 183600, Note_on_c, 0, 69, 40
1, 183600, Note_on_c, 0, 67, 40
1, 183600, Note_on_c, 0, 76, 67
1, 183600, Note_on_c, 0, 57, 51
1, 183600, Note_on_c, 0, 61, 51
1, 183609, Control_c, 0, 64, 0
1, 183741, Control_c, 0, 64, 127
1, 183960, Tempo, 659703
1, 183960, Note_on_c, 0, 61, 0
1, 183960, Note_on_c, 0, 76, 0
1, 183960, Note_on_c, 0, 74, 62
1, 183960, Note_on_c, 0, 59, 47
1, 184080, Tempo, 681741
1, 184080, Note_on_c, 0, 59, 0
1, 184080, Note_on_c, 0, 74, 0
1, 184080, Note_on_c, 0, 73, 59
1, 184080, Note_on_c, 0, 57, 45
1, 184200, Tempo, 726041
1, 184320, Tempo, 666815
1, 184320, Note_on_c, 0, 57, 0
1, 184320, Note_on_c, 0, 57, 0
1, 184320, Note_on_c, 0, 69, 0
1, 184320, Note_on_c, 0, 67, 0
1, 184320, Note_on_c, 0, 73, 0
1, 184320, Note_on_c, 0, 40, 53
1, 184326, Control_c, 0, 64, 0
1, 184467, Control_c, 0, 64, 127
1, 184560, Tempo, 681741
1, 184560, Note_on_c, 0, 40, 0
1, 184560, Note_on_c, 0, 52, 36
1, 184560, Note_on_c, 0, 59, 36
1, 184787, Control_c, 0, 64, 0
1, 184800, Tempo, 717532
1, 184800, Note_on_c, 0, 67, 40
1, 184800, Note_on_c, 0, 71, 40
1, 184800, Note_on_c, 0, 79, 64
1, 184800, Note_on_c, 0, 64, 47
1, 184947, Control_c, 0, 64, 127
1, 185040, Tempo, 677966
1, 185040, Note_on_c, 0, 79, 0
1, 185040, Note_on_c, 0, 79, 67
1, 185280, Tempo, 705219
1, 185520, Tempo, 709304
1, 185520, Note_on_c, 0, 79, 0
1, 185520, Note_on_c, 0, 64, 0
1, 185520, Note_on_c, 0, 67, 0
1, 185520, Note_on_c, 0, 52, 0
1, 185520, Note_on_c, 0, 59, 0
1, 185520, Note_on_c, 0, 71, 0
1, 185520, Note_on_c, 0, 67, 40
1, 185520, Note_on_c, 0, 71, 40
1, 185520, Note_on_c, 0, 78, 59
1, 185520, Note_on_c, 0, 52, 30
1, 185520, Note_on_c, 0, 62, 36
1, 185520, Note_on_c, 0, 59, 30
1, 185730, Note_on_c, 0, 45, 44
1, 185760, Tempo, 705219
1, 185760, Note_on_c, 0, 59, 0
1, 185760, Note_on_c, 0, 52, 0
1, 185760, Note_on_c, 0, 71, 0
1, 185760, Note_on_c, 0, 78, 0
1, 185760, Note_on_c, 0, 67, 0
1, 185760, Note_on_c, 0, 62, 0
1, 185760, Note_on_c, 0, 67, 40
1, 185760, Note_on_c, 0, 71, 40
1, 185760, Note_on_c, 0, 78, 62
1, 185760, Note_on_c, 0, 62, 44
1, 185766, Control_c, 0, 64, 0
1, 185866, Control_c, 0, 64, 127
1, 186000, Tempo, 717532
1, 186240, Tempo, 681741
1, 186240, Note_on_c, 0, 62, 0
1, 186240, Note_on_c, 0, 78, 0
1, 186240, Note_on_c, 0, 74, 63
1, 186240, Note_on_c, 0, 59, 42
1, 186480, Note_on_c, 0, 59, 0
1, 186480, Note_on_c, 0, 45, 0
1, 186480, Note_on_c, 0, 71, 0
1, 186480, Note_on_c, 0, 67, 0
1, 186480, Note_on_c, 0, 74, 0
1, 186480, Note_on_c, 0, 69, 40
1, 186480, Note_on_c, 0, 67, 40
1, 186480, Note_on_c, 0, 73, 67
1, 186480, Note_on_c, 0, 57, 40
1, 186480, Note_on_c, 0, 64, 52
1, 186489, Control_c, 0, 64, 0
1, 186621, Control_c, 0, 64, 127
1, 186840, Tempo, 659703
1, 186840, Note_on_c, 0, 64, 0
1, 186840, Note_on_c, 0, 73, 0
1, 186840, Note_on_c, 0, 71, 62
1, 186840, Note_on_c, 0, 62, 47
1, 186960, Tempo, 681741
1, 186960, Note_on_c, 0, 62, 0
1, 186960, Note_on_c, 0, 71, 0
1, 186960, Note_on_c, 0, 69, 59
1, 186960, Note_on_c, 0, 61, 45
1, 187080, Tempo, 726041
1, 187200, Tempo, 681741
1, 187200, Note_on_c, 0, 61, 0
1, 187200, Note_on_c, 0, 57, 0
1, 187200, Note_on_c, 0, 69, 0
1, 187200, Note_on_c, 0, 67, 0
1, 187200, Note_on_c, 0, 69, 0
1, 187200, Note_on_c, 0, 45, 53
1, 187208, Control_c, 0, 64, 0
1, 187680, Note_on_c, 0, 45, 0
1, 187680, Note_on_c, 0, 69, 41
1, 187680, Note_on_c, 0, 67, 41
1, 187680, Note_on_c, 0, 64, 35
1, 187680, Note_on_c, 0, 61, 35
1, 187800, Note_on_c, 0, 61, 0
1, 187800, Note_on_c, 0, 69, 0
1, 187800, Note_on_c, 0, 67, 0
1, 187800, Note_on_c, 0, 64, 0
1, 187920, Note_on_c, 0, 71, 41
1, 187920, Note_on_c, 0, 67, 41
1, 187920, Note_on_c, 0, 64, 35
1, 187920, Note_on_c, 0, 62, 35
1, 188400, Tempo, 709304
1, 188400, Note_on_c, 0, 40, 37
1, 188438, Control_c, 0, 64, 127
1, 188640, Note_on_c, 0, 40, 0
1, 188640, Note_on_c, 0, 64, 0
1, 188640, Note_on_c, 0, 71, 0
1, 188640, Note_on_c, 0, 67, 0
1, 188640, Note_on_c, 0, 62, 0
1, 188640, Note_on_c, 0, 33, 29
1, 188640, Note_on_c, 0, 45, 39
1, 188845, Tempo, 678887
1, 188866, Control_c, 0, 64, 0
1, 188880, Note_on_c, 0, 45, 0
1, 188880, Note_on_c, 0, 33, 0
1, 189120, Tempo, 693561
1, 189120, Note_on_c, 0, 67, 42
1, 189120, Note_on_c, 0, 69, 42
1, 189120, Note_on_c, 0, 57, 53
1, 189127, Control_c, 0, 64, 127
1, 189360, Tempo, 663570
1, 189360, Note_on_c, 0, 57, 0
1, 189360, Note_on_c, 0, 61, 54
1, 189600, Tempo, 645300
1, 189720, Note_on_c, 0, 61, 0
1, 189720, Note_on_c, 0, 62, 53
1, 189840, Tempo, 678887
1, 189840, Note_on_c, 0, 62, 0
1, 189840, Note_on_c, 0, 69, 0
1, 189840, Note_on_c, 0, 67, 0
1, 189840, Note_on_c, 0, 67, 36
1, 189840, Note_on_c, 0, 64, 53
1, 189840, Note_on_c, 0, 69, 36
1, 189847, Control_c, 0, 64, 0
1, 189889, Control_c, 0, 64, 127
1, 190080, Tempo, 652458
1, 190080, Note_on_c, 0, 64, 0
1, 190080, Note_on_c, 0, 61, 57
1, 190320, Tempo, 663570
1, 190320, Note_on_c, 0, 69, 46
1, 190322, Control_c, 0, 64, 0
1, 190355, Control_c, 0, 64, 127
1, 190400, Tempo, 659776
1, 190400, Note_on_c, 0, 69, 0
1, 190400, Note_on_c, 0, 76, 49
1, 190480, Tempo, 656096
1, 190480, Note_on_c, 0, 76, 0
1, 190480, Note_on_c, 0, 81, 51
1, 190480, Note_on_c, 0, 79, 51
1, 190560, Tempo, 652458
1, 190560, Note_on_c, 0, 79, 0
1, 190560, Note_on_c, 0, 61, 0
1, 190560, Note_on_c, 0, 67, 0
1, 190560, Note_on_c, 0, 69, 0
1, 190560, Note_on_c, 0, 81, 0
1, 190560, Note_on_c, 0, 81, 53
1, 190560, Note_on_c, 0, 61, 42
1, 190560, Note_on_c, 0, 69, 42
1, 190560, Note_on_c, 0, 67, 42
1, 190560, Note_on_c, 0, 57, 51
1, 190640, Tempo, 648859
1, 190640, Note_on_c, 0, 81, 0
1, 190640, Note_on_c, 0, 85, 54
1, 190720, Tempo, 645300
1, 190720, Note_on_c, 0, 85, 0
1, 190720, Note_on_c, 0, 93, 56
1, 190720, Note_on_c, 0, 91, 45
1, 190780, Tempo, 634853
1, 190800, Note_on_c, 0, 91, 0
1, 190800, Note_on_c, 0, 69, 0
1, 190800, Note_on_c, 0, 67, 0
1, 190800, Note_on_c, 0, 61, 0
1, 190800, Note_on_c, 0, 93, 0
1, 190800, Note_on_c, 0, 57, 0
1, 190800, Note_on_c, 0, 91, 45
1, 190800, Note_on_c, 0, 93, 56
1, 190800, Note_on_c, 0, 62, 42
1, 190800, Note_on_c, 0, 69, 42
1, 190800, Note_on_c, 0, 67, 42
1, 190800, Note_on_c, 0, 59, 53
1, 190811, Control_c, 0, 64, 0
1, 190835, Control_c, 0, 64, 127
1, 190860, Tempo, 638298
1, 190880, Note_on_c, 0, 93, 0
1, 190880, Note_on_c, 0, 86, 57
1, 190920, Note_on_c, 0, 91, 0
1, 190940, Tempo, 641780
1, 190960, Note_on_c, 0, 86, 0
1, 190960, Note_on_c, 0, 83, 56
1, 191020, Tempo, 645300
1, 191040, Note_on_c, 0, 83, 0
1, 191040, Note_on_c, 0, 81, 55
1, 191040, Note_on_c, 0, 79, 45
1, 191100, Tempo, 648859
1, 191120, Note_on_c, 0, 79, 0
1, 191120, Note_on_c, 0, 81, 0
1, 191120, Note_on_c, 0, 74, 54
1, 191180, Tempo, 652458
1, 191200, Note_on_c, 0, 74, 0
1, 191200, Note_on_c, 0, 71, 53
1, 191260, Tempo, 656096
1, 191280, Tempo, 703235
1, 191280, Note_on_c, 0, 71, 0
1, 191280, Note_on_c, 0, 67, 0
1, 191280, Note_on_c, 0, 69, 0
1, 191280, Note_on_c, 0, 59, 0
1, 191280, Note_on_c, 0, 62, 0
1, 191280, Note_on_c, 0, 69, 53
1, 191280, Note_on_c, 0, 67, 44
1, 191280, Note_on_c, 0, 40, 40
1, 191360, Note_on_c, 0, 67, 0
1, 191360, Note_on_c, 0, 62, 52
1, 191400, Note_on_c, 0, 69, 0
1, 191440, Note_on_c, 0, 62, 0
1, 191440, Note_on_c, 0, 59, 51
1, 191520, Tempo, 678887
1, 191520, Note_on_c, 0, 59, 0
1, 191520, Note_on_c, 0, 40, 0
1, 191520, Note_on_c, 0, 45, 44
1, 191520, Note_on_c, 0, 33, 44
1, 191523, Control_c, 0, 64, 0
1, 191760, Note_on_c, 0, 33, 0
1, 191760, Note_on_c, 0, 45, 0
1, 191780, Tempo, 690846
1, 192000, Tempo, 694927
1, 192000, Note_on_c, 0, 67, 42
1, 192000, Note_on_c, 0, 69, 42
1, 192000, Note_on_c, 0, 57, 53
1, 192007, Control_c, 0, 64, 127
1, 192240, Tempo, 667334
1, 192240, Note_on_c, 0, 57, 0
1, 192240, Note_on_c, 0, 61, 54
1, 192480, Tempo, 648859
1, 192600, Note_on_c, 0, 61, 0
1, 192600, Note_on_c, 0, 62, 53
1, 192720, Tempo, 671141
1, 192720, Note_on_c, 0, 62, 0
1, 192720, Note_on_c, 0, 69, 0
1, 192720, Note_on_c, 0, 67, 0
1, 192720, Note_on_c, 0, 67, 36
1, 192720, Note_on_c, 0, 64, 53
1, 192720, Note_on_c, 0, 69, 36
1, 192729, Control_c, 0, 64, 0
1, 192833, Control_c, 0, 64, 127
1, 192960, Tempo, 652458
1, 192960, Note_on_c, 0, 64, 0
1, 192960, Note_on_c, 0, 61, 57
1, 193200, Tempo, 671141
1, 193200, Note_on_c, 0, 69, 46
1, 193202, Control_c, 0, 64, 0
1, 193260, Tempo, 667334
1, 193279, Control_c, 0, 64, 127
1, 193280, Note_on_c, 0, 69, 0
1, 193280, Note_on_c, 0, 76, 49
1, 193320, Tempo, 663570
1, 193360, Tempo, 659776
1, 193360, Note_on_c, 0, 76, 0
1, 193360, Note_on_c, 0, 81, 51
1, 193360, Note_on_c, 0, 79, 51
1, 193420, Tempo, 656096
1, 193440, Note_on_c, 0, 79, 0
1, 193440, Note_on_c, 0, 61, 0
1, 193440, Note_on_c, 0, 67, 0
1, 193440, Note_on_c, 0, 69, 0
1, 193440, Note_on_c, 0, 81, 0
1, 193440, Note_on_c, 0, 81, 53
1, 193440, Note_on_c, 0, 61, 42
1, 193440, Note_on_c, 0, 69, 42
1, 193440, Note_on_c, 0, 67, 42
1, 193440, Note_on_c, 0, 57, 51
1, 193480, Tempo, 652458
1, 193520, Tempo, 648859
1, 193520, Note_on_c, 0, 81, 0
1, 193520, Note_on_c, 0, 85, 54
1, 193580, Tempo, 645300
1, 193600, Note_on_c, 0, 85, 0
1, 193600, Note_on_c, 0, 93, 56
1, 193600, Note_on_c, 0, 91, 45
1, 193640, Tempo, 641780
1, 193680, Tempo, 638298
1, 193680, Note_on_c, 0, 91, 0
1, 193680, Note_on_c, 0, 69, 0
1, 193680, Note_on_c, 0, 67, 0
1, 193680, Note_on_c, 0, 61, 0
1, 193680, Note_on_c, 0, 93, 0
1, 193680, Note_on_c, 0, 57, 0
1, 193680, Note_on_c, 0, 91, 45
1, 193680, Note_on_c, 0, 93, 56
1, 193680, Note_on_c, 0, 62, 42
1, 193680, Note_on_c, 0, 69, 42
1, 193680, Note_on_c, 0, 67, 42
1, 193680, Note_on_c, 0, 59, 53
1, 193691, Control_c, 0, 64, 0
1, 193724, Control_c, 0, 64, 127
1, 193760, Tempo, 641780
1, 193760, Note_on_c, 0, 93, 0
1, 193760, Note_on_c, 0, 86, 57
1, 193800, Note_on_c, 0, 91, 0
1, 193840, Tempo, 645300
1, 193840, Note_on_c, 0, 86, 0
1, 193840, Note_on_c, 0, 83, 56
1, 193920, Tempo, 648859
1, 193920, Note_on_c, 0, 83, 0
1, 193920, Note_on_c, 0, 81, 55
1, 193920, Note_on_c, 0, 79, 44
1, 194000, Tempo, 652458
1, 194000, Note_on_c, 0, 79, 0
1, 194000, Note_on_c, 0, 81, 0
1, 194000, Note_on_c, 0, 74, 54
1, 194080, Tempo, 656096
1, 194080, Note_on_c, 0, 74, 0
1, 194080, Note_on_c, 0, 71, 53
1, 194140, Tempo, 659776
1, 194160, Tempo, 703235
1, 194160, Note_on_c, 0, 71, 0
1, 194160, Note_on_c, 0, 67, 0
1, 194160, Note_on_c, 0, 69, 0
1, 194160, Note_on_c, 0, 59, 0
1, 194160, Note_on_c, 0, 62, 0
1, 194160, Note_on_c, 0, 69, 53
1, 194160, Note_on_c, 0, 67, 43
1, 194160, Note_on_c, 0, 40, 40
1, 194240, Note_on_c, 0, 67, 0
1, 194240, Note_on_c, 0, 62, 52
1, 194280, Note_on_c, 0, 69, 0
1, 194320, Note_on_c, 0, 62, 0
1, 194320, Note_on_c, 0, 59, 51
1, 194400, Tempo, 678887
1, 194400, Note_on_c, 0, 59, 0
1, 194400, Note_on_c, 0, 40, 0
1, 194400, Note_on_c, 0, 57, 44
1, 194400, Control_c, 0, 64, 0
1, 194400, Note_on_c, 0, 45, 44
1, 194400, Note_on_c, 0, 33, 44
1, 194640, Tempo, 690846
1, 194640, Note_on_c, 0, 33, 0
1, 194640, Note_on_c, 0, 45, 0
1, 194640, Note_on_c, 0, 57, 0
1, 194880, Tempo, 686813
1, 194880, Note_on_c, 0, 69, 59
1, 194880, Note_on_c, 0, 67, 43
1, 194880, Note_on_c, 0, 45, 43
1, 194880, Note_on_c, 0, 52, 43
1, 194880, Note_on_c, 0, 57, 53
1, 194887, Control_c, 0, 64, 127
1, 195120, Tempo, 652458
1, 195120, Note_on_c, 0, 57, 0
1, 195120, Note_on_c, 0, 45, 0
1, 195120, Note_on_c, 0, 52, 0
1, 195120, Note_on_c, 0, 69, 0
1, 195120, Note_on_c, 0, 73, 62
1, 195120, Note_on_c, 0, 69, 43
1, 195120, Note_on_c, 0, 57, 36
1, 195120, Note_on_c, 0, 61, 49
1, 195360, Tempo, 634853
1, 195480, Note_on_c, 0, 61, 0
1, 195480, Note_on_c, 0, 73, 0
1, 195480, Note_on_c, 0, 74, 59
1, 195480, Note_on_c, 0, 62, 46
1, 195600, Tempo, 671141
1, 195600, Note_on_c, 0, 62, 0
1, 195600, Note_on_c, 0, 67, 0
1, 195600, Note_on_c, 0, 57, 0
1, 195600, Note_on_c, 0, 69, 0
1, 195600, Note_on_c, 0, 74, 0
1, 195600, Note_on_c, 0, 67, 36
1, 195600, Note_on_c, 0, 76, 59
1, 195600, Note_on_c, 0, 69, 36
1, 195600, Note_on_c, 0, 64, 46
1, 195600, Note_on_c, 0, 57, 32
1, 195607, Control_c, 0, 64, 0
1, 195649, Control_c, 0, 64, 127
1, 195720, Note_on_c, 0, 69, 0
1, 195720, Note_on_c, 0, 67, 0
1, 195720, Note_on_c, 0, 76, 0
1, 195720, Note_on_c, 0, 73, 53
1, 195780, Note_on_c, 0, 73, 0
1, 195780, Note_on_c, 0, 74, 53
1, 195840, Tempo, 652458
1, 195840, Note_on_c, 0, 74, 0
1, 195840, Note_on_c, 0, 64, 0
1, 195840, Note_on_c, 0, 73, 63
1, 195840, Note_on_c, 0, 61, 52
1, 196080, Tempo, 671141
1, 196080, Note_on_c, 0, 61, 0
1, 196080, Note_on_c, 0, 57, 0
1, 196080, Note_on_c, 0, 69, 46
1, 196080, Note_on_c, 0, 59, 43
1, 196080, Note_on_c, 0, 71, 45
1, 196080, Control_c, 0, 64, 0
1, 196115, Control_c, 0, 64, 127
1, 196140, Tempo, 667334
1, 196160, Note_on_c, 0, 69, 0
1, 196160, Note_on_c, 0, 76, 49
1, 196200, Tempo, 663570
1, 196240, Tempo, 659776
1, 196240, Note_on_c, 0, 76, 0
1, 196240, Note_on_c, 0, 81, 52
1, 196240, Note_on_c, 0, 79, 52
1, 196300, Tempo, 656096
1, 196320, Note_on_c, 0, 79, 0
1, 196320, Note_on_c, 0, 71, 0
1, 196320, Note_on_c, 0, 73, 0
1, 196320, Note_on_c, 0, 59, 0
1, 196320, Note_on_c, 0, 81, 0
1, 196320, Note_on_c, 0, 81, 53
1, 196320, Note_on_c, 0, 61, 43
1, 196320, Note_on_c, 0, 69, 45
1, 196320, Note_on_c, 0, 67, 43
1, 196320, Note_on_c, 0, 57, 52
1, 196360, Tempo, 652458
1, 196400, Tempo, 648859
1, 196400, Note_on_c, 0, 81, 0
1, 196400, Note_on_c, 0, 85, 55
1, 196460, Tempo, 645300
1, 196470, Note_on_c, 0, 67, 0
1, 196470, Note_on_c, 0, 57, 0
1, 196470, Note_on_c, 0, 61, 0
1, 196470, Note_on_c, 0, 69, 0
1, 196470, Note_on_c, 0, 55, 43
1, 196472, Tempo, 707547
1, 196480, Note_on_c, 0, 85, 0
1, 196480, Note_on_c, 0, 91, 57
1, 196480, Note_on_c, 0, 93, 57
1, 196500, Note_on_c, 0, 62, 43
1, 196530, Note_on_c, 0, 67, 47
1, 196560, Tempo, 638298
1, 196560, Note_on_c, 0, 93, 0
1, 196560, Note_on_c, 0, 91, 0
1, 196560, Note_on_c, 0, 95, 57
1, 196560, Note_on_c, 0, 91, 57
1, 196560, Note_on_c, 0, 71, 53
1, 196571, Control_c, 0, 64, 0
1, 196598, Control_c, 0, 64, 127
1, 196640, Tempo, 641780
1, 196640, Note_on_c, 0, 95, 0
1, 196640, Note_on_c, 0, 86, 59
1, 196680, Note_on_c, 0, 91, 0
1, 196720, Tempo, 645300
1, 196720, Note_on_c, 0, 86, 0
1, 196720, Note_on_c, 0, 83, 57
1, 196800, Tempo, 648859
1, 196800, Note_on_c, 0, 83, 0
1, 196800, Note_on_c, 0, 62, 0
1, 196800, Note_on_c, 0, 67, 0
1, 196800, Note_on_c, 0, 71, 0
1, 196800, Note_on_c, 0, 55, 0
1, 196800, Note_on_c, 0, 83, 55
1, 196800, Note_on_c, 0, 79, 55
1, 196880, Tempo, 652458
1, 196880, Note_on_c, 0, 79, 0
1, 196880, Note_on_c, 0, 83, 0
1, 196880, Note_on_c, 0, 74, 55
1, 196960, Tempo, 656096
1, 196960, Note_on_c, 0, 74, 0
1, 196960, Note_on_c, 0, 71, 54
1, 197020, Tempo, 659776
1, 197040, Tempo, 703235
1, 197040, Note_on_c, 0, 71, 0
1, 197040, Note_on_c, 0, 71, 53
1, 197040, Note_on_c, 0, 67, 53
1, 197120, Note_on_c, 0, 67, 0
1, 197120, Note_on_c, 0, 62, 53
1, 197160, Note_on_c, 0, 71, 0
1, 197200, Note_on_c, 0, 62, 0
1, 197200, Note_on_c, 0, 59, 52
1, 197280, Note_on_c, 0, 59, 0
1, 197280, Control_c, 0, 64, 0
1, 197280, Note_on_c, 0, 43, 55
1, 197305, Control_c, 0, 64, 127
1, 197312, Tempo, 648859
1, 197360, Note_on_c, 0, 43, 0
1, 197360, Note_on_c, 0, 50, 55
1, 197372, Tempo, 645300
1, 197412, Tempo, 641780
1, 197440, Note_on_c, 0, 50, 0
1, 197440, Note_on_c, 0, 55, 55
1, 197472, Tempo, 638298
1, 197520, Note_on_c, 0, 55, 0
1, 197520, Note_on_c, 0, 59, 57
1, 197532, Tempo, 634853
1, 197572, Tempo, 631446
1, 197600, Note_on_c, 0, 59, 0
1, 197600, Note_on_c, 0, 62, 59
1, 197632, Tempo, 628075
1, 197672, Tempo, 624740
1, 197680, Note_on_c, 0, 62, 0
1, 197680, Note_on_c, 0, 71, 61
1, 197680, Note_on_c, 0, 67, 61
1, 197760, Note_on_c, 0, 67, 0
1, 197760, Note_on_c, 0, 71, 0
1, 197760, Note_on_c, 0, 71, 62
1, 197840, Note_on_c, 0, 71, 0
1, 197840, Note_on_c, 0, 74, 62
1, 197880, Tempo, 645300
1, 197920, Note_on_c, 0, 74, 0
1, 197920, Note_on_c, 0, 83, 63
1, 197920, Note_on_c, 0, 79, 63
1, 198000, Tempo, 587199
1, 198000, Note_on_c, 0, 79, 0
1, 198000, Note_on_c, 0, 83, 0
1, 198000, Note_on_c, 0, 47, 59
1, 198015, Control_c, 0, 64, 0
1, 198032, Tempo, 648859
1, 198067, Control_c, 0, 64, 127
1, 198080, Note_on_c, 0, 47, 0
1, 198080, Note_on_c, 0, 54, 59
1, 198092, Tempo, 645300
1, 198132, Tempo, 641780
1, 198160, Note_on_c, 0, 54, 0
1, 198160, Note_on_c, 0, 59, 59
1, 198192, Tempo, 638298
1, 198240, Note_on_c, 0, 59, 0
1, 198240, Note_on_c, 0, 62, 61
1, 198252, Tempo, 634853
1, 198292, Tempo, 631446
1, 198320, Note_on_c, 0, 62, 0
1, 198320, Note_on_c, 0, 66, 62
1, 198352, Tempo, 628075
1, 198392, Tempo, 624740
1, 198400, Note_on_c, 0, 66, 0
1, 198400, Note_on_c, 0, 74, 63
1, 198400, Note_on_c, 0, 71, 63
1, 198480, Note_on_c, 0, 71, 0
1, 198480, Note_on_c, 0, 74, 0
1, 198480, Note_on_c, 0, 74, 63
1, 198560, Note_on_c, 0, 74, 0
1, 198560, Note_on_c, 0, 78, 64
1, 198600, Tempo, 645300
1, 198640, Note_on_c, 0, 78, 0
1, 198640, Note_on_c, 0, 83, 65
1, 198640, Note_on_c, 0, 86, 65
1, 198720, Tempo, 587199
1, 198720, Note_on_c, 0, 86, 0
1, 198720, Note_on_c, 0, 83, 0
1, 198720, Note_on_c, 0, 46, 62
1, 198726, Control_c, 0, 64, 0
1, 198752, Tempo, 648859
1, 198786, Control_c, 0, 64, 127
1, 198800, Note_on_c, 0, 46, 0
1, 198800, Note_on_c, 0, 56, 62
1, 198812, Tempo, 645300
1, 198852, Tempo, 641780
1, 198880, Note_on_c, 0, 56, 0
1, 198880, Note_on_c, 0, 62, 62
1, 198912, Tempo, 638298
1, 198960, Note_on_c, 0, 62, 0
1, 198960, Note_on_c, 0, 64, 63
1, 198972, Tempo, 634853
1, 199012, Tempo, 631446
1, 199040, Note_on_c, 0, 64, 0
1, 199040, Note_on_c, 0, 68, 63
1, 199072, Tempo, 628075
1, 199112, Tempo, 624740
1, 199120, Note_on_c, 0, 68, 0
1, 199120, Note_on_c, 0, 76, 65
1, 199120, Note_on_c, 0, 74, 65
1, 199200, Note_on_c, 0, 74, 0
1, 199200, Note_on_c, 0, 76, 0
1, 199200, Note_on_c, 0, 76, 66
1, 199280, Note_on_c, 0, 76, 0
1, 199280, Note_on_c, 0, 80, 67
1, 199320, Tempo, 674992
1, 199360, Note_on_c, 0, 80, 0
1, 199360, Note_on_c, 0, 88, 69
1, 199360, Note_on_c, 0, 86, 69
1, 199440, Tempo, 587199
1, 199440, Note_on_c, 0, 86, 0
1, 199440, Note_on_c, 0, 88, 0
1, 199440, Note_on_c, 0, 45, 63
1, 199454, Control_c, 0, 64, 0
1, 199472, Tempo, 648859
1, 199509, Control_c, 0, 64, 127
1, 199520, Note_on_c, 0, 45, 0
1, 199520, Note_on_c, 0, 55, 63
1, 199532, Tempo, 645300
1, 199572, Tempo, 641780
1, 199600, Note_on_c, 0, 55, 0
1, 199600, Note_on_c, 0, 61, 63
1, 199632, Tempo, 638298
1, 199680, Note_on_c, 0, 61, 0
1, 199680, Note_on_c, 0, 65, 65
1, 199692, Tempo, 634853
1, 199732, Tempo, 631446
1, 199760, Note_on_c, 0, 65, 0
1, 199760, Note_on_c, 0, 69, 66
1, 199792, Tempo, 628075
1, 199832, Tempo, 624740
1, 199840, Note_on_c, 0, 69, 0
1, 199840, Note_on_c, 0, 77, 69
1, 199840, Note_on_c, 0, 73, 69
1, 199920, Note_on_c, 0, 73, 0
1, 199920, Note_on_c, 0, 77, 0
1, 199920, Note_on_c, 0, 77, 70
1, 200000, Note_on_c, 0, 77, 0
1, 200000, Note_on_c, 0, 81, 71
1, 200040, Tempo, 674992
1, 200080, Note_on_c, 0, 81, 0
1, 200080, Note_on_c, 0, 89, 71
1, 200080, Note_on_c, 0, 85, 71
1, 200160, Tempo, 638298
1, 200160, Note_on_c, 0, 85, 0
1, 200160, Note_on_c, 0, 89, 0
1, 200160, Note_on_c, 0, 50, 77
1, 200160, Note_on_c, 0, 38, 69
1, 200166, Control_c, 0, 64, 0
1, 200231, Control_c, 0, 64, 127
1, 200400, Tempo, 628075
1, 200400, Note_on_c, 0, 38, 0
1, 200400, Note_on_c, 0, 50, 0
1, 200400, Note_on_c, 0, 66, 65
1, 200480, Note_on_c, 0, 66, 0
1, 200480, Note_on_c, 0, 69, 69
1, 200560, Note_on_c, 0, 69, 0
1, 200560, Note_on_c, 0, 78, 71
1, 200640, Tempo, 686813
1, 200640, Note_on_c, 0, 78, 0
1, 200640, Note_on_c, 0, 78, 74
1, 200640, Note_on_c, 0, 54, 65
1, 200640, Note_on_c, 0, 57, 65
1, 200640, Note_on_c, 0, 66, 74
1, 200720, Note_on_c, 0, 78, 0
1, 200720, Note_on_c, 0, 81, 77
1, 200800, Note_on_c, 0, 81, 0
1, 200800, Note_on_c, 0, 90, 77
1, 200880, Tempo, 652458
1, 200880, Note_on_c, 0, 90, 0
1, 200880, Note_on_c, 0, 54, 0
1, 200880, Note_on_c, 0, 57, 0
1, 200880, Note_on_c, 0, 66, 0
1, 200880, Note_on_c, 0, 88, 81
1, 200880, Note_on_c, 0, 86, 77
1, 200880, Note_on_c, 0, 52, 69
1, 200880, Note_on_c, 0, 57, 69
1, 200880, Note_on_c, 0, 64, 77
1, 200887, Control_c, 0, 64, 0
1, 200960, Note_on_c, 0, 81, 76
1, 200961, Control_c, 0, 64, 127
1, 201000, Note_on_c, 0, 86, 0
1, 201040, Note_on_c, 0, 81, 0
1, 201040, Note_on_c, 0, 76, 72
1, 201120, Tempo, 634853
1, 201120, Note_on_c, 0, 76, 0
1, 201120, Note_on_c, 0, 76, 79
1, 201200, Note_on_c, 0, 76, 0
1, 201200, Note_on_c, 0, 81, 77
1, 201240, Note_on_c, 0, 57, 0
1, 201240, Note_on_c, 0, 64, 0
1, 201240, Note_on_c, 0, 88, 0
1, 201240, Note_on_c, 0, 52, 0
1, 201240, Note_on_c, 0, 90, 76
1, 201240, Note_on_c, 0, 54, 65
1, 201240, Note_on_c, 0, 66, 74
1, 201280, Note_on_c, 0, 81, 0
1, 201280, Note_on_c, 0, 76, 75
1, 201360, Tempo, 671141
1, 201360, Note_on_c, 0, 76, 0
1, 201360, Note_on_c, 0, 66, 0
1, 201360, Note_on_c, 0, 54, 0
1, 201360, Note_on_c, 0, 90, 0
1, 201360, Note_on_c, 0, 86, 73
1, 201360, Note_on_c, 0, 50, 65
1, 201360, Note_on_c, 0, 62, 74
1, 201440, Note_on_c, 0, 81, 72
1, 201440, Note_on_c, 0, 78, 72
1, 201480, Note_on_c, 0, 86, 0
1, 201520, Note_on_c, 0, 81, 0
1, 201520, Note_on_c, 0, 78, 0
1, 201520, Note_on_c, 0, 74, 71
1, 201600, Tempo, 652458
1, 201600, Note_on_c, 0, 74, 0
1, 201600, Note_on_c, 0, 62, 0
1, 201600, Note_on_c, 0, 50, 0
1, 201600, Control_c, 0, 64, 0
1, 201600, Note_on_c, 0, 26, 70
1, 201600, Note_on_c, 0, 38, 83
1, 201674, Control_c, 0, 64, 127
1, 201840, Tempo, 663570
1, 201840, Note_on_c, 0, 38, 0
1, 201840, Note_on_c, 0, 26, 0
1, 201840, Note_on_c, 0, 69, 65
1, 201920, Tempo, 659776
1, 201920, Note_on_c, 0, 69, 0
1, 201920, Note_on_c, 0, 74, 69
1, 202000, Tempo, 656096
1, 202000, Note_on_c, 0, 74, 0
1, 202000, Note_on_c, 0, 81, 71
1, 202000, Note_on_c, 0, 78, 71
1, 202080, Tempo, 652458
1, 202080, Note_on_c, 0, 78, 0
1, 202080, Note_on_c, 0, 81, 0
1, 202080, Note_on_c, 0, 81, 74
1, 202080, Note_on_c, 0, 69, 75
1, 202080, Note_on_c, 0, 66, 66
1, 202080, Note_on_c, 0, 62, 66
1, 202080, Note_on_c, 0, 57, 66
1, 202101, Control_c, 0, 64, 0
1, 202151, Control_c, 0, 64, 127
1, 202160, Tempo, 648859
1, 202160, Note_on_c, 0, 81, 0
1, 202160, Note_on_c, 0, 86, 77
1, 202240, Tempo, 645300
1, 202240, Note_on_c, 0, 86, 0
1, 202240, Note_on_c, 0, 93, 80
1, 202240, Note_on_c, 0, 90, 80
1, 202300, Tempo, 634853
1, 202320, Note_on_c, 0, 90, 0
1, 202320, Note_on_c, 0, 66, 0
1, 202320, Note_on_c, 0, 62, 0
1, 202320, Note_on_c, 0, 69, 0
1, 202320, Note_on_c, 0, 93, 0
1, 202320, Note_on_c, 0, 57, 0
1, 202320, Note_on_c, 0, 93, 89
1, 202320, Note_on_c, 0, 90, 89
1, 202320, Note_on_c, 0, 69, 74
1, 202320, Note_on_c, 0, 66, 65
1, 202320, Note_on_c, 0, 62, 65
1, 202320, Note_on_c, 0, 57, 65
1, 202380, Tempo, 638298
1, 202400, Note_on_c, 0, 93, 0
1, 202400, Note_on_c, 0, 86, 77
1, 202440, Note_on_c, 0, 90, 0
1, 202460, Tempo, 641780
1, 202480, Note_on_c, 0, 86, 0
1, 202480, Note_on_c, 0, 81, 74
1, 202540, Tempo, 645300
1, 202560, Note_on_c, 0, 81, 0
1, 202560, Note_on_c, 0, 81, 79
1, 202560, Note_on_c, 0, 38, 71
1, 202560, Note_on_c, 0, 50, 71
1, 202564, Control_c, 0, 64, 0
1, 202599, Control_c, 0, 64, 127
1, 202620, Tempo, 648859
1, 202640, Note_on_c, 0, 81, 0
1, 202640, Note_on_c, 0, 86, 77
1, 202700, Tempo, 652458
1, 202720, Note_on_c, 0, 86, 0
1, 202720, Note_on_c, 0, 90, 75
1, 202780, Tempo, 656096
1, 202800, Tempo, 703235
1, 202800, Note_on_c, 0, 90, 0
1, 202800, Note_on_c, 0, 69, 0
1, 202800, Note_on_c, 0, 66, 0
1, 202800, Note_on_c, 0, 62, 0
1, 202800, Note_on_c, 0, 57, 0
1, 202800, Note_on_c, 0, 95, 84
1, 202800, Note_on_c, 0, 71, 74
1, 202800, Note_on_c, 0, 66, 65
1, 202800, Note_on_c, 0, 62, 65
1, 202800, Note_on_c, 0, 59, 65
1, 202880, Note_on_c, 0, 86, 72
1, 202920, Note_on_c, 0, 95, 0
1, 202960, Note_on_c, 0, 86, 0
1, 202960, Note_on_c, 0, 83, 71
1, 203040, Tempo, 638298
1, 203040, Note_on_c, 0, 83, 0
1, 203040, Note_on_c, 0, 59, 0
1, 203040, Note_on_c, 0, 66, 0
1, 203040, Note_on_c, 0, 71, 0
1, 203040, Note_on_c, 0, 62, 0
1, 203040, Note_on_c, 0, 93, 84
1, 203040, Note_on_c, 0, 69, 79
1, 203040, Note_on_c, 0, 66, 79
1, 203040, Note_on_c, 0, 62, 79
1, 203040, Note_on_c, 0, 57, 79
1, 203044, Control_c, 0, 64, 0
1, 203107, Control_c, 0, 64, 127
1, 203120, Note_on_c, 0, 86, 64
1, 203200, Note_on_c, 0, 86, 0
1, 203200, Note_on_c, 0, 81, 64
1, 203280, Tempo, 652458
1, 203280, Note_on_c, 0, 81, 0
1, 203280, Note_on_c, 0, 69, 0
1, 203280, Note_on_c, 0, 66, 0
1, 203280, Note_on_c, 0, 38, 0
1, 203280, Note_on_c, 0, 93, 0
1, 203280, Note_on_c, 0, 57, 0
1, 203280, Note_on_c, 0, 62, 0
1, 203280, Note_on_c, 0, 50, 0
1, 203280, Note_on_c, 0, 91, 83
1, 203280, Note_on_c, 0, 67, 72
1, 203280, Note_on_c, 0, 55, 64
1, 203287, Control_c, 0, 64, 0
1, 203330, Control_c, 0, 64, 127
1, 203360, Note_on_c, 0, 86, 65
1, 203440, Note_on_c, 0, 86, 0
1, 203440, Note_on_c, 0, 79, 71
1, 203520, Tempo, 667334
1, 203520, Note_on_c, 0, 79, 0
1, 203520, Note_on_c, 0, 55, 0
1, 203520, Note_on_c, 0, 67, 0
1, 203520, Note_on_c, 0, 91, 0
1, 203520, Note_on_c, 0, 90, 81
1, 203520, Note_on_c, 0, 66, 64
1, 203520, Note_on_c, 0, 54, 57
1, 203527, Control_c, 0, 64, 0
1, 203587, Control_c, 0, 64, 127
1, 203600, Note_on_c, 0, 86, 66
1, 203680, Note_on_c, 0, 86, 0
1, 203680, Note_on_c, 0, 78, 70
1, 203760, Note_on_c, 0, 78, 0
1, 203760, Note_on_c, 0, 54, 0
1, 203760, Note_on_c, 0, 66, 0
1, 203760, Note_on_c, 0, 90, 0
1, 203760, Note_on_c, 0, 88, 86
1, 203760, Note_on_c, 0, 64, 74
1, 203760, Note_on_c, 0, 57, 65
1, 203760, Note_on_c, 0, 52, 65
1, 203771, Control_c, 0, 64, 0
1, 203824, Control_c, 0, 64, 127
1, 203840, Note_on_c, 0, 86, 69
1, 203920, Note_on_c, 0, 86, 0
1, 203920, Note_on_c, 0, 76, 69
1, 204000, Tempo, 656096
1, 204000, Note_on_c, 0, 76, 0
1, 204000, Note_on_c, 0, 52, 0
1, 204000, Note_on_c, 0, 88, 0
1, 204000, Note_on_c, 0, 64, 0
1, 204000, Note_on_c, 0, 57, 0
1, 204000, Note_on_c, 0, 90, 81
1, 204000, Note_on_c, 0, 66, 66
1, 204000, Note_on_c, 0, 54, 60
1, 204011, Control_c, 0, 64, 0
1, 204060, Control_c, 0, 64, 127
1, 204080, Note_on_c, 0, 81, 63
1, 204160, Note_on_c, 0, 81, 0
1, 204160, Note_on_c, 0, 78, 64
1, 204240, Tempo, 671141
1, 204240, Note_on_c, 0, 78, 0
1, 204240, Note_on_c, 0, 54, 0
1, 204240, Note_on_c, 0, 66, 0
1, 204240, Note_on_c, 0, 90, 0
1, 204240, Note_on_c, 0, 86, 84
1, 204240, Note_on_c, 0, 50, 63
1, 204240, Note_on_c, 0, 57, 63
1, 204240, Note_on_c, 0, 62, 71
1, 204254, Control_c, 0, 64, 0
1, 204297, Control_c, 0, 64, 127
1, 204320, Note_on_c, 0, 78, 65
1, 204400, Note_on_c, 0, 78, 0
1, 204400, Note_on_c, 0, 74, 66
1, 204480, Tempo, 652458
1, 204480, Note_on_c, 0, 74, 0
1, 204480, Note_on_c, 0, 62, 0
1, 204480, Note_on_c, 0, 86, 0
1, 204480, Note_on_c, 0, 50, 0
1, 204480, Note_on_c, 0, 57, 0
1, 204480, Note_on_c, 0, 38, 62
1, 204480, Note_on_c, 0, 50, 83
1, 204486, Control_c, 0, 64, 0
1, 204576, Control_c, 0, 64, 127
1, 204720, Tempo, 663570
1, 204720, Note_on_c, 0, 50, 0
1, 204720, Note_on_c, 0, 38, 0
1, 204720, Note_on_c, 0, 66, 65
1, 204800, Tempo, 659776
1, 204800, Note_on_c, 0, 66, 0
1, 204800, Note_on_c, 0, 69, 69
1, 204880, Tempo, 656096
1, 204880, Note_on_c, 0, 69, 0
1, 204880, Note_on_c, 0, 78, 71
1, 204960, Tempo, 652458
1, 204960, Note_on_c, 0, 78, 0
1, 204960, Note_on_c, 0, 78, 74
1, 204960, Note_on_c, 0, 66, 75
1, 204960, Note_on_c, 0, 57, 66
1, 204960, Note_on_c, 0, 54, 66
1, 204967, Control_c, 0, 64, 0
1, 205034, Control_c, 0, 64, 127
1, 205040, Tempo, 648859
1, 205040, Note_on_c, 0, 78, 0
1, 205040, Note_on_c, 0, 81, 77
1, 205120, Tempo, 645300
1, 205120, Note_on_c, 0, 81, 0
1, 205120, Note_on_c, 0, 90, 80
1, 205180, Tempo, 634853
1, 205200, Note_on_c, 0, 90, 0
1, 205200, Note_on_c, 0, 66, 0
1, 205200, Note_on_c, 0, 57, 0
1, 205200, Note_on_c, 0, 54, 0
1, 205200, Note_on_c, 0, 90, 89
1, 205200, Note_on_c, 0, 66, 74
1, 205200, Note_on_c, 0, 57, 65
1, 205200, Note_on_c, 0, 54, 65
1, 205260, Tempo, 638298
1, 205280, Note_on_c, 0, 81, 77
1, 205320, Note_on_c, 0, 90, 0
1, 205340, Tempo, 641780
1, 205360, Note_on_c, 0, 81, 0
1, 205360, Note_on_c, 0, 78, 72
1, 205420, Tempo, 645300
1, 205440, Note_on_c, 0, 78, 0
1, 205440, Note_on_c, 0, 78, 79
1, 205440, Note_on_c, 0, 38, 71
1, 205440, Note_on_c, 0, 50, 71
1, 205447, Control_c, 0, 64, 0
1, 205500, Tempo, 648859
1, 205518, Control_c, 0, 64, 127
1, 205520, Note_on_c, 0, 78, 0
1, 205520, Note_on_c, 0, 81, 77
1, 205580, Tempo, 652458
1, 205600, Note_on_c, 0, 81, 0
1, 205600, Note_on_c, 0, 90, 75
1, 205660, Tempo, 656096
1, 205680, Tempo, 682827
1, 205680, Note_on_c, 0, 90, 0
1, 205680, Note_on_c, 0, 54, 0
1, 205680, Note_on_c, 0, 66, 0
1, 205680, Note_on_c, 0, 57, 0
1, 205680, Note_on_c, 0, 90, 82
1, 205680, Note_on_c, 0, 64, 74
1, 205680, Note_on_c, 0, 58, 65
1, 205680, Note_on_c, 0, 54, 65
1, 205680, Note_on_c, 0, 52, 65
1, 205760, Note_on_c, 0, 94, 72
1, 205800, Note_on_c, 0, 90, 0
1, 205840, Note_on_c, 0, 94, 0
1, 205840, Note_on_c, 0, 102, 71
1, 205920, Tempo, 638298
1, 205920, Note_on_c, 0, 102, 0
1, 205920, Note_on_c, 0, 52, 0
1, 205920, Note_on_c, 0, 58, 0
1, 205920, Note_on_c, 0, 64, 0
1, 205920, Note_on_c, 0, 54, 0
1, 205920, Note_on_c, 0, 102, 86
1, 205920, Note_on_c, 0, 64, 79
1, 205920, Note_on_c, 0, 58, 79
1, 205920, Note_on_c, 0, 54, 79
1, 205920, Note_on_c, 0, 52, 79
1, 205929, Control_c, 0, 64, 0
1, 205992, Control_c, 0, 64, 127
1, 206000, Note_on_c, 0, 102, 0
1, 206000, Note_on_c, 0, 94, 66
1, 206080, Note_on_c, 0, 94, 0
1, 206080, Note_on_c, 0, 90, 67
1, 206160, Tempo, 652458
1, 206160, Note_on_c, 0, 90, 0
1, 206160, Note_on_c, 0, 54, 0
1, 206160, Note_on_c, 0, 38, 0
1, 206160, Note_on_c, 0, 64, 0
1, 206160, Note_on_c, 0, 50, 0
1, 206160, Note_on_c, 0, 52, 0
1, 206160, Note_on_c, 0, 58, 0
1, 206160, Note_on_c, 0, 90, 82
1, 206160, Note_on_c, 0, 50, 72
1, 206160, Note_on_c, 0, 38, 64
1, 206175, Control_c, 0, 64, 0
1, 206226, Control_c, 0, 64, 127
1, 206240, Note_on_c, 0, 90, 0
1, 206240, Note_on_c, 0, 78, 66
1, 206320, Note_on_c, 0, 78, 0
1, 206320, Note_on_c, 0, 90, 71
1, 206400, Tempo, 671141
1, 206400, Note_on_c, 0, 90, 0
1, 206400, Note_on_c, 0, 38, 0
1, 206400, Note_on_c, 0, 50, 0
1, 206400, Note_on_c, 0, 78, 83
1, 206400, Note_on_c, 0, 54, 57
1, 206400, Note_on_c, 0, 61, 64
1, 206400, Note_on_c, 0, 49, 57
1, 206403, Control_c, 0, 64, 0
1, 206449, Control_c, 0, 64, 127
1, 206480, Note_on_c, 0, 78, 0
1, 206480, Note_on_c, 0, 85, 67
1, 206560, Note_on_c, 0, 85, 0
1, 206560, Note_on_c, 0, 90, 67
1, 206640, Tempo, 656096
1, 206640, Note_on_c, 0, 90, 0
1, 206640, Note_on_c, 0, 54, 0
1, 206640, Note_on_c, 0, 61, 0
1, 206640, Note_on_c, 0, 49, 0
1, 206640, Note_on_c, 0, 78, 87
1, 206640, Note_on_c, 0, 62, 74
1, 206640, Note_on_c, 0, 54, 65
1, 206640, Note_on_c, 0, 50, 65
1, 206657, Control_c, 0, 64, 0
1, 206697, Control_c, 0, 64, 127
1, 206720, Note_on_c, 0, 78, 0
1, 206720, Note_on_c, 0, 86, 69
1, 206800, Note_on_c, 0, 86, 0
1, 206800, Note_on_c, 0, 90, 69
1, 206880, Tempo, 659776
1, 206880, Note_on_c, 0, 90, 0
1, 206880, Note_on_c, 0, 62, 0
1, 206880, Note_on_c, 0, 54, 0
1, 206880, Note_on_c, 0, 50, 0
1, 206880, Note_on_c, 0, 78, 83
1, 206880, Note_on_c, 0, 54, 60
1, 206880, Note_on_c, 0, 61, 66
1, 206880, Note_on_c, 0, 49, 60
1, 206889, Control_c, 0, 64, 0
1, 206932, Control_c, 0, 64, 127
1, 206960, Note_on_c, 0, 78, 0
1, 206960, Note_on_c, 0, 85, 66
1, 207040, Note_on_c, 0, 85, 0
1, 207040, Note_on_c, 0, 90, 66
1, 207095, Control_c, 0, 64, 0
1, 207120, Tempo, 671141
1, 207120, Note_on_c, 0, 90, 0
1, 207120, Note_on_c, 0, 54, 0
1, 207120, Note_on_c, 0, 61, 0
1, 207120, Note_on_c, 0, 49, 0
1, 207120, Note_on_c, 0, 78, 81
1, 207120, Note_on_c, 0, 47, 63
1, 207120, Note_on_c, 0, 54, 63
1, 207120, Note_on_c, 0, 59, 71
1, 207141, Control_c, 0, 64, 127
1, 207200, Note_on_c, 0, 78, 0
1, 207200, Note_on_c, 0, 83, 69
1, 207280, Note_on_c, 0, 83, 0
1, 207280, Note_on_c, 0, 90, 70
1, 207360, Tempo, 652458
1, 207360, Note_on_c, 0, 90, 0
1, 207360, Note_on_c, 0, 47, 0
1, 207360, Note_on_c, 0, 54, 0
1, 207360, Note_on_c, 0, 59, 0
1, 207360, Note_on_c, 0, 26, 62
1, 207360, Note_on_c, 0, 38, 83
1, 207364, Control_c, 0, 64, 0
1, 207441, Control_c, 0, 64, 127
1, 207600, Tempo, 663570
1, 207600, Note_on_c, 0, 38, 0
1, 207600, Note_on_c, 0, 26, 0
1, 207600, Note_on_c, 0, 66, 65
1, 207680, Tempo, 659776
1, 207680, Note_on_c, 0, 66, 0
1, 207680, Note_on_c, 0, 69, 69
1, 207760, Tempo, 656096
1, 207760, Note_on_c, 0, 69, 0
1, 207760, Note_on_c, 0, 78, 71
1, 207840, Tempo, 652458
1, 207840, Note_on_c, 0, 78, 0
1, 207840, Note_on_c, 0, 78, 74
1, 207840, Note_on_c, 0, 66, 75
1, 207840, Note_on_c, 0, 57, 66
1, 207840, Note_on_c, 0, 54, 66
1, 207845, Control_c, 0, 64, 0
1, 207914, Control_c, 0, 64, 127
1, 207920, Tempo, 648859
1, 207920, Note_on_c, 0, 78, 0
1, 207920, Note_on_c, 0, 81, 77
1, 208000, Tempo, 645300
1, 208000, Note_on_c, 0, 81, 0
1, 208000, Note_on_c, 0, 90, 80
1, 208060, Tempo, 634853
1, 208080, Note_on_c, 0, 90, 0
1, 208080, Note_on_c, 0, 66, 0
1, 208080, Note_on_c, 0, 57, 0
1, 208080, Note_on_c, 0, 54, 0
1, 208080, Note_on_c, 0, 90, 89
1, 208080, Note_on_c, 0, 66, 74
1, 208080, Note_on_c, 0, 57, 65
1, 208080, Note_on_c, 0, 54, 65
1, 208140, Tempo, 638298
1, 208160, Note_on_c, 0, 81, 77
1, 208200, Note_on_c, 0, 90, 0
1, 208220, Tempo, 641780
1, 208240, Note_on_c, 0, 81, 0
1, 208240, Note_on_c, 0, 78, 73
1, 208300, Tempo, 645300
1, 208320, Note_on_c, 0, 78, 0
1, 208320, Note_on_c, 0, 78, 79
1, 208320, Note_on_c, 0, 38, 71
1, 208320, Note_on_c, 0, 50, 71
1, 208327, Control_c, 0, 64, 0
1, 208380, Tempo, 648859
1, 208391, Control_c, 0, 64, 127
1, 208400, Note_on_c, 0, 78, 0
1, 208400, Note_on_c, 0, 81, 77
1, 208460, Tempo, 652458
1, 208480, Note_on_c, 0, 81, 0
1, 208480, Note_on_c, 0, 90, 75
1, 208540, Tempo, 656096
1, 208560, Tempo, 674992
1, 208560, Note_on_c, 0, 90, 0
1, 208560, Note_on_c, 0, 54, 0
1, 208560, Note_on_c, 0, 66, 0
1, 208560, Note_on_c, 0, 57, 0
1, 208560, Note_on_c, 0, 90, 83
1, 208560, Note_on_c, 0, 64, 65
1, 208560, Note_on_c, 0, 58, 59
1, 208560, Note_on_c, 0, 54, 59
1, 208560, Note_on_c, 0, 52, 59
1, 208640, Note_on_c, 0, 94, 72
1, 208680, Note_on_c, 0, 90, 0
1, 208720, Note_on_c, 0, 94, 0
1, 208720, Note_on_c, 0, 102, 71
1, 208800, Tempo, 641780
1, 208800, Note_on_c, 0, 102, 0
1, 208800, Note_on_c, 0, 52, 0
1, 208800, Note_on_c, 0, 58, 0
1, 208800, Note_on_c, 0, 64, 0
1, 208800, Note_on_c, 0, 54, 0
1, 208800, Note_on_c, 0, 102, 84
1, 208800, Note_on_c, 0, 64, 79
1, 208800, Note_on_c, 0, 58, 79
1, 208800, Note_on_c, 0, 54, 79
1, 208800, Note_on_c, 0, 52, 79
1, 208809, Control_c, 0, 64, 0
1, 208869, Control_c, 0, 64, 127
1, 208880, Note_on_c, 0, 102, 0
1, 208880, Note_on_c, 0, 94, 67
1, 208960, Note_on_c, 0, 94, 0
1, 208960, Note_on_c, 0, 90, 67
1, 209040, Tempo, 656096
1, 209040, Note_on_c, 0, 90, 0
1, 209040, Note_on_c, 0, 54, 0
1, 209040, Note_on_c, 0, 38, 0
1, 209040, Note_on_c, 0, 64, 0
1, 209040, Note_on_c, 0, 50, 0
1, 209040, Note_on_c, 0, 52, 0
1, 209040, Note_on_c, 0, 58, 0
1, 209040, Note_on_c, 0, 90, 81
1, 209040, Note_on_c, 0, 50, 72
1, 209040, Note_on_c, 0, 38, 54
1, 209052, Control_c, 0, 64, 0
1, 209103, Control_c, 0, 64, 127
1, 209120, Note_on_c, 0, 90, 0
1, 209120, Note_on_c, 0, 78, 66
1, 209200, Note_on_c, 0, 78, 0
1, 209200, Note_on_c, 0, 90, 66
1, 209280, Tempo, 671141
1, 209280, Note_on_c, 0, 90, 0
1, 209280, Note_on_c, 0, 38, 0
1, 209280, Note_on_c, 0, 50, 0
1, 209280, Note_on_c, 0, 85, 86
1, 209280, Note_on_c, 0, 54, 49
1, 209280, Note_on_c, 0, 61, 64
1, 209280, Note_on_c, 0, 49, 49
1, 209286, Control_c, 0, 64, 0
1, 209340, Control_c, 0, 64, 127
1, 209360, Note_on_c, 0, 90, 70
1, 209440, Note_on_c, 0, 90, 0
1, 209440, Note_on_c, 0, 97, 69
1, 209520, Tempo, 652458
1, 209520, Note_on_c, 0, 97, 0
1, 209520, Note_on_c, 0, 49, 0
1, 209520, Note_on_c, 0, 85, 0
1, 209520, Note_on_c, 0, 54, 0
1, 209520, Note_on_c, 0, 61, 0
1, 209520, Note_on_c, 0, 86, 90
1, 209520, Note_on_c, 0, 62, 74
1, 209520, Note_on_c, 0, 54, 55
1, 209520, Note_on_c, 0, 50, 55
1, 209537, Control_c, 0, 64, 0
1, 209575, Control_c, 0, 64, 127
1, 209600, Note_on_c, 0, 90, 70
1, 209680, Note_on_c, 0, 90, 0
1, 209680, Note_on_c, 0, 98, 71
1, 209760, Tempo, 671141
1, 209760, Note_on_c, 0, 98, 0
1, 209760, Note_on_c, 0, 50, 0
1, 209760, Note_on_c, 0, 86, 0
1, 209760, Note_on_c, 0, 62, 0
1, 209760, Note_on_c, 0, 54, 0
1, 209760, Note_on_c, 0, 85, 89
1, 209760, Note_on_c, 0, 54, 50
1, 209760, Note_on_c, 0, 61, 66
1, 209760, Note_on_c, 0, 49, 50
1, 209775, Control_c, 0, 64, 0
1, 209823, Control_c, 0, 64, 127
1, 209840, Note_on_c, 0, 90, 66
1, 209920, Note_on_c, 0, 90, 0
1, 209920, Note_on_c, 0, 97, 66
1, 210000, Tempo, 686813
1, 210000, Note_on_c, 0, 97, 0
1, 210000, Note_on_c, 0, 49, 0
1, 210000, Note_on_c, 0, 85, 0
1, 210000, Note_on_c, 0, 54, 0
1, 210000, Note_on_c, 0, 61, 0
1, 210000, Note_on_c, 0, 83, 87
1, 210000, Note_on_c, 0, 47, 53
1, 210000, Note_on_c, 0, 54, 53
1, 210000, Note_on_c, 0, 59, 71
1, 210003, Control_c, 0, 64, 0
1, 210057, Control_c, 0, 64, 127
1, 210080, Note_on_c, 0, 90, 66
1, 210160, Note_on_c, 0, 90, 0
1, 210160, Note_on_c, 0, 95, 66
1, 210240, Tempo, 686813
1, 210240, Note_on_c, 0, 95, 0
1, 210240, Note_on_c, 0, 59, 0
1, 210240, Note_on_c, 0, 83, 0
1, 210240, Note_on_c, 0, 47, 0
1, 210240, Note_on_c, 0, 54, 0
1, 210240, Control_c, 0, 64, 0
1, 210240, Note_on_c, 0, 45, 46
1, 210240, Note_on_c, 0, 38, 89
1, 210280, Control_c, 0, 64, 127
1, 210320, Note_on_c, 0, 45, 0
1, 210320, Note_on_c, 0, 46, 52
1, 210400, Note_on_c, 0, 46, 0
1, 210400, Note_on_c, 0, 49, 52
1, 210480, Tempo, 667334
1, 210480, Note_on_c, 0, 49, 0
1, 210480, Note_on_c, 0, 38, 0
1, 210480, Note_on_c, 0, 86, 63
1, 210480, Note_on_c, 0, 90, 83
1, 210480, Note_on_c, 0, 78, 63
1, 210480, Note_on_c, 0, 50, 53
1, 210483, Control_c, 0, 64, 0
1, 210520, Control_c, 0, 64, 127
1, 210560, Note_on_c, 0, 50, 0
1, 210560, Note_on_c, 0, 52, 53
1, 210600, Note_on_c, 0, 86, 0
1, 210600, Note_on_c, 0, 78, 0
1, 210600, Note_on_c, 0, 90, 0
1, 210640, Note_on_c, 0, 52, 0
1, 210640, Note_on_c, 0, 53, 53
1, 210720, Tempo, 634853
1, 210720, Note_on_c, 0, 53, 0
1, 210720, Note_on_c, 0, 92, 89
1, 210720, Note_on_c, 0, 90, 66
1, 210720, Note_on_c, 0, 80, 66
1, 210720, Note_on_c, 0, 54, 54
1, 210732, Control_c, 0, 64, 0
1, 210760, Control_c, 0, 64, 127
1, 210800, Note_on_c, 0, 54, 0
1, 210800, Note_on_c, 0, 55, 55
1, 210840, Note_on_c, 0, 92, 0
1, 210840, Note_on_c, 0, 80, 0
1, 210840, Note_on_c, 0, 90, 0
1, 210880, Note_on_c, 0, 55, 0
1, 210880, Note_on_c, 0, 56, 55
1, 210900, Note_on_c, 0, 95, 83
1, 210960, Tempo, 645300
1, 210960, Note_on_c, 0, 95, 0
1, 210960, Note_on_c, 0, 56, 0
1, 210960, Note_on_c, 0, 93, 92
1, 210960, Note_on_c, 0, 90, 72
1, 210960, Note_on_c, 0, 81, 72
1, 210960, Note_on_c, 0, 57, 55
1, 210969, Control_c, 0, 64, 0
1, 211009, Control_c, 0, 64, 127
1, 211040, Note_on_c, 0, 57, 0
1, 211040, Note_on_c, 0, 58, 56
1, 211120, Note_on_c, 0, 58, 0
1, 211120, Note_on_c, 0, 61, 57
1, 211200, Tempo, 663570
1, 211200, Note_on_c, 0, 61, 0
1, 211200, Note_on_c, 0, 93, 0
1, 211200, Note_on_c, 0, 90, 0
1, 211200, Note_on_c, 0, 81, 0
1, 211200, Note_on_c, 0, 80, 62
1, 211200, Note_on_c, 0, 92, 80
1, 211200, Note_on_c, 0, 62, 57
1, 211209, Control_c, 0, 64, 0
1, 211243, Control_c, 0, 64, 127
1, 211280, Note_on_c, 0, 62, 0
1, 211280, Note_on_c, 0, 64, 59
1, 211360, Note_on_c, 0, 64, 0
1, 211360, Note_on_c, 0, 65, 61
1, 211440, Tempo, 682827
1, 211440, Note_on_c, 0, 65, 0
1, 211440, Note_on_c, 0, 92, 0
1, 211440, Note_on_c, 0, 80, 0
1, 211440, Note_on_c, 0, 78, 56
1, 211440, Note_on_c, 0, 90, 74
1, 211440, Note_on_c, 0, 66, 66
1, 211457, Control_c, 0, 64, 0
1, 211486, Control_c, 0, 64, 127
1, 211560, Note_on_c, 0, 66, 0
1, 211560, Note_on_c, 0, 90, 0
1, 211560, Note_on_c, 0, 78, 0
1, 211617, Control_c, 0, 64, 0
1, 211680, Tempo, 678887
1, 211680, Note_on_c, 0, 38, 74
1, 211680, Note_on_c, 0, 50, 89
1, 211697, Control_c, 0, 64, 127
1, 211920, Tempo, 652458
1, 211920, Note_on_c, 0, 50, 0
1, 211920, Note_on_c, 0, 38, 0
1, 211920, Note_on_c, 0, 66, 55
1, 211920, Note_on_c, 0, 64, 83
1, 211920, Note_on_c, 0, 54, 63
1, 211920, Note_on_c, 0, 52, 63
1, 211926, Control_c, 0, 64, 0
1, 211977, Control_c, 0, 64, 127
1, 211980, Note_on_c, 0, 66, 0
1, 211980, Note_on_c, 0, 67, 55
1, 212040, Note_on_c, 0, 67, 0
1, 212040, Note_on_c, 0, 52, 0
1, 212040, Note_on_c, 0, 54, 0
1, 212040, Note_on_c, 0, 64, 0
1, 212040, Note_on_c, 0, 70, 55
1, 212100, Note_on_c, 0, 70, 0
1, 212100, Note_on_c, 0, 71, 55
1, 212160, Tempo, 641780
1, 212160, Note_on_c, 0, 71, 0
1, 212160, Note_on_c, 0, 73, 56
1, 212160, Note_on_c, 0, 61, 79
1, 212160, Note_on_c, 0, 49, 61
1, 212172, Control_c, 0, 64, 0
1, 212212, Control_c, 0, 64, 127
1, 212220, Note_on_c, 0, 73, 0
1, 212220, Note_on_c, 0, 74, 56
1, 212280, Note_on_c, 0, 74, 0
1, 212280, Note_on_c, 0, 49, 0
1, 212280, Note_on_c, 0, 61, 0
1, 212280, Note_on_c, 0, 76, 57
1, 212340, Note_on_c, 0, 76, 0
1, 212340, Note_on_c, 0, 78, 59
1, 212400, Tempo, 652458
1, 212400, Note_on_c, 0, 78, 0
1, 212400, Note_on_c, 0, 79, 59
1, 212400, Note_on_c, 0, 54, 63
1, 212400, Note_on_c, 0, 50, 63
1, 212400, Note_on_c, 0, 62, 82
1, 212417, Control_c, 0, 64, 0
1, 212460, Note_on_c, 0, 79, 0
1, 212460, Note_on_c, 0, 82, 61
1, 212463, Control_c, 0, 64, 127
1, 212520, Note_on_c, 0, 82, 0
1, 212520, Note_on_c, 0, 83, 61
1, 212580, Note_on_c, 0, 83, 0
1, 212580, Note_on_c, 0, 85, 61
1, 212640, Tempo, 678887
1, 212640, Note_on_c, 0, 85, 0
1, 212640, Note_on_c, 0, 62, 0
1, 212640, Note_on_c, 0, 50, 0
1, 212640, Note_on_c, 0, 86, 62
1, 212640, Note_on_c, 0, 49, 62
1, 212640, Note_on_c, 0, 61, 80
1, 212643, Control_c, 0, 64, 0
1, 212692, Control_c, 0, 64, 127
1, 212700, Note_on_c, 0, 86, 0
1, 212700, Note_on_c, 0, 88, 62
1, 212760, Note_on_c, 0, 88, 0
1, 212760, Note_on_c, 0, 90, 62
1, 212820, Note_on_c, 0, 90, 0
1, 212820, Note_on_c, 0, 91, 62
1, 212880, Tempo, 671141
1, 212880, Note_on_c, 0, 91, 0
1, 212880, Note_on_c, 0, 61, 0
1, 212880, Note_on_c, 0, 49, 0
1, 212880, Note_on_c, 0, 54, 0
1, 212880, Note_on_c, 0, 94, 63
1, 212880, Note_on_c, 0, 47, 62
1, 212880, Note_on_c, 0, 54, 72
1, 212880, Note_on_c, 0, 59, 80
1, 212892, Control_c, 0, 64, 0
1, 212920, Tempo, 674992
1, 212928, Note_on_c, 0, 94, 0
1, 212928, Note_on_c, 0, 95, 63
1, 212929, Control_c, 0, 64, 127
1, 212940, Tempo, 678887
1, 212960, Tempo, 682827
1, 212976, Note_on_c, 0, 95, 0
1, 212976, Note_on_c, 0, 97, 63
1, 212980, Tempo, 686813
1, 213000, Tempo, 690846
1, 213000, Note_on_c, 0, 59, 0
1, 213000, Note_on_c, 0, 47, 0
1, 213000, Note_on_c, 0, 54, 0
1, 213020, Tempo, 694927
1, 213024, Note_on_c, 0, 97, 0
1, 213024, Note_on_c, 0, 98, 63
1, 213040, Tempo, 699056
1, 213060, Tempo, 703235
1, 213072, Note_on_c, 0, 98, 0
1, 213076, Note_on_c, 0, 100, 60
1, 213080, Tempo, 707547
1, 213100, Tempo, 711828
1, 213120, Tempo, 678887
1, 213120, Note_on_c, 0, 102, 75
1, 213120, Note_on_c, 0, 45, 46
1, 213120, Note_on_c, 0, 38, 89
1, 213124, Note_on_c, 0, 100, 0
1, 213125, Control_c, 0, 64, 0
1, 213172, Control_c, 0, 64, 127
1, 213200, Note_on_c, 0, 45, 0
1, 213200, Note_on_c, 0, 46, 52
1, 213280, Note_on_c, 0, 46, 0
1, 213280, Note_on_c, 0, 49, 52
1, 213360, Tempo, 656096
1, 213360, Note_on_c, 0, 49, 0
1, 213360, Note_on_c, 0, 102, 0
1, 213360, Note_on_c, 0, 38, 0
1, 213360, Note_on_c, 0, 86, 63
1, 213360, Note_on_c, 0, 90, 83
1, 213360, Note_on_c, 0, 78, 63
1, 213360, Note_on_c, 0, 50, 53
1, 213366, Control_c, 0, 64, 0
1, 213395, Control_c, 0, 64, 127
1, 213440, Note_on_c, 0, 50, 0
1, 213440, Note_on_c, 0, 52, 53
1, 213480, Note_on_c, 0, 86, 0
1, 213480, Note_on_c, 0, 78, 0
1, 213480, Note_on_c, 0, 90, 0
1, 213520, Note_on_c, 0, 52, 0
1, 213520, Note_on_c, 0, 53, 53
1, 213600, Tempo, 641780
1, 213600, Note_on_c, 0, 53, 0
1, 213600, Note_on_c, 0, 92, 89
1, 213600, Note_on_c, 0, 90, 66
1, 213600, Note_on_c, 0, 80, 66
1, 213600, Note_on_c, 0, 54, 54
1, 213609, Control_c, 0, 64, 0
1, 213643, Control_c, 0, 64, 127
1, 213680, Note_on_c, 0, 54, 0
1, 213680, Note_on_c, 0, 55, 55
1, 213720, Note_on_c, 0, 92, 0
1, 213720, Note_on_c, 0, 80, 0
1, 213720, Note_on_c, 0, 90, 0
1, 213760, Note_on_c, 0, 55, 0
1, 213760, Note_on_c, 0, 56, 55
1, 213780, Note_on_c, 0, 95, 83
1, 213840, Tempo, 645300
1, 213840, Note_on_c, 0, 95, 0
1, 213840, Note_on_c, 0, 56, 0
1, 213840, Note_on_c, 0, 93, 92
1, 213840, Note_on_c, 0, 90, 72
1, 213840, Note_on_c, 0, 81, 72
1, 213840, Note_on_c, 0, 57, 55
1, 213849, Control_c, 0, 64, 0
1, 213895, Control_c, 0, 64, 127
1, 213920, Note_on_c, 0, 57, 0
1, 213920, Note_on_c, 0, 58, 56
1, 214000, Note_on_c, 0, 58, 0
1, 214000, Note_on_c, 0, 61, 57
1, 214080, Tempo, 659776
1, 214080, Note_on_c, 0, 61, 0
1, 214080, Note_on_c, 0, 93, 0
1, 214080, Note_on_c, 0, 90, 0
1, 214080, Note_on_c, 0, 81, 0
1, 214080, Note_on_c, 0, 80, 62
1, 214080, Note_on_c, 0, 92, 80
1, 214080, Note_on_c, 0, 62, 57
1, 214089, Control_c, 0, 64, 0
1, 214123, Control_c, 0, 64, 127
1, 214160, Note_on_c, 0, 62, 0
1, 214160, Note_on_c, 0, 64, 59
1, 214240, Note_on_c, 0, 64, 0
1, 214240, Note_on_c, 0, 65, 61
1, 214320, Tempo, 682827
1, 214320, Note_on_c, 0, 65, 0
1, 214320, Note_on_c, 0, 92, 0
1, 214320, Note_on_c, 0, 80, 0
1, 214320, Note_on_c, 0, 78, 56
1, 214320, Note_on_c, 0, 90, 74
1, 214320, Note_on_c, 0, 66, 66
1, 214329, Control_c, 0, 64, 0
1, 214377, Control_c, 0, 64, 127
1, 214440, Note_on_c, 0, 66, 0
1, 214440, Note_on_c, 0, 90, 0
1, 214440, Note_on_c, 0, 78, 0
1, 214497, Control_c, 0, 64, 0
1, 214560, Tempo, 674992
1, 214560, Note_on_c, 0, 38, 74
1, 214560, Note_on_c, 0, 50, 89
1, 214580, Tempo, 667334
1, 214609, Control_c, 0, 64, 127
1, 214800, Tempo, 645300
1, 214800, Note_on_c, 0, 50, 0
1, 214800, Note_on_c, 0, 38, 0
1, 214800, Note_on_c, 0, 66, 55
1, 214800, Note_on_c, 0, 64, 83
1, 214800, Note_on_c, 0, 54, 63
1, 214800, Note_on_c, 0, 52, 63
1, 214817, Control_c, 0, 64, 0
1, 214860, Note_on_c, 0, 66, 0
1, 214860, Note_on_c, 0, 67, 55
1, 214866, Control_c, 0, 64, 127
1, 214920, Note_on_c, 0, 67, 0
1, 214920, Note_on_c, 0, 52, 0
1, 214920, Note_on_c, 0, 54, 0
1, 214920, Note_on_c, 0, 64, 0
1, 214920, Note_on_c, 0, 70, 55
1, 214980, Note_on_c, 0, 70, 0
1, 214980, Note_on_c, 0, 71, 55
1, 215040, Tempo, 671141
1, 215040, Note_on_c, 0, 71, 0
1, 215040, Note_on_c, 0, 73, 56
1, 215040, Note_on_c, 0, 61, 79
1, 215040, Note_on_c, 0, 49, 61
1, 215052, Control_c, 0, 64, 0
1, 215095, Control_c, 0, 64, 127
1, 215100, Note_on_c, 0, 73, 0
1, 215100, Note_on_c, 0, 74, 56
1, 215160, Note_on_c, 0, 74, 0
1, 215160, Note_on_c, 0, 49, 0
1, 215160, Note_on_c, 0, 61, 0
1, 215160, Note_on_c, 0, 76, 57
1, 215220, Note_on_c, 0, 76, 0
1, 215220, Note_on_c, 0, 78, 59
1, 215280, Tempo, 638298
1, 215280, Note_on_c, 0, 78, 0
1, 215280, Note_on_c, 0, 79, 59
1, 215280, Note_on_c, 0, 54, 63
1, 215280, Note_on_c, 0, 50, 63
1, 215280, Note_on_c, 0, 62, 82
1, 215297, Control_c, 0, 64, 0
1, 215337, Control_c, 0, 64, 127
1, 215340, Note_on_c, 0, 79, 0
1, 215340, Note_on_c, 0, 82, 61
1, 215400, Note_on_c, 0, 82, 0
1, 215400, Note_on_c, 0, 83, 61
1, 215460, Note_on_c, 0, 83, 0
1, 215460, Note_on_c, 0, 85, 61
1, 215520, Tempo, 659776
1, 215520, Note_on_c, 0, 85, 0
1, 215520, Note_on_c, 0, 62, 0
1, 215520, Note_on_c, 0, 50, 0
1, 215520, Note_on_c, 0, 86, 62
1, 215520, Note_on_c, 0, 49, 62
1, 215520, Note_on_c, 0, 61, 80
1, 215535, Control_c, 0, 64, 0
1, 215568, Note_on_c, 0, 86, 0
1, 215568, Note_on_c, 0, 88, 62
1, 215572, Control_c, 0, 64, 127
1, 215616, Note_on_c, 0, 88, 0
1, 215616, Note_on_c, 0, 90, 62
1, 215664, Note_on_c, 0, 90, 0
1, 215664, Note_on_c, 0, 91, 62
1, 215712, Note_on_c, 0, 91, 0
1, 215716, Note_on_c, 0, 94, 62
1, 215760, Tempo, 667334
1, 215760, Note_on_c, 0, 61, 0
1, 215760, Note_on_c, 0, 54, 0
1, 215760, Note_on_c, 0, 49, 0
1, 215760, Note_on_c, 0, 95, 63
1, 215760, Note_on_c, 0, 47, 62
1, 215760, Note_on_c, 0, 54, 72
1, 215760, Note_on_c, 0, 59, 80
1, 215764, Note_on_c, 0, 94, 0
1, 215766, Control_c, 0, 64, 0
1, 215808, Note_on_c, 0, 95, 0
1, 215808, Note_on_c, 0, 97, 63
1, 215812, Control_c, 0, 64, 127
1, 215856, Note_on_c, 0, 97, 0
1, 215856, Note_on_c, 0, 98, 63
1, 215880, Note_on_c, 0, 59, 0
1, 215880, Note_on_c, 0, 54, 0
1, 215880, Note_on_c, 0, 47, 0
1, 215904, Note_on_c, 0, 98, 0
1, 215904, Note_on_c, 0, 100, 63
1, 215952, Note_on_c, 0, 100, 0
1, 215956, Note_on_c, 0, 102, 63
1, 216000, Key_signature, -6, "major"
1, 216000, Tempo, 682827
1, 216000, Control_c, 0, 64, 0
1, 216000, Note_on_c, 0, 49, 46
1, 216000, Note_on_c, 0, 42, 89
1, 216004, Note_on_c, 0, 102, 0
1, 216080, Note_on_c, 0, 49, 0
1, 216080, Note_on_c, 0, 50, 52
1, 216089, Control_c, 0, 64, 127
1, 216160, Note_on_c, 0, 50, 0
1, 216160, Note_on_c, 0, 53, 52
1, 216240, Tempo, 659776
1, 216240, Note_on_c, 0, 53, 0
1, 216240, Note_on_c, 0, 42, 0
1, 216240, Note_on_c, 0, 78, 67
1, 216240, Note_on_c, 0, 82, 89
1, 216240, Note_on_c, 0, 70, 67
1, 216240, Note_on_c, 0, 54, 53
1, 216250, Control_c, 0, 64, 0
1, 216260, Tempo, 641780
1, 216279, Control_c, 0, 64, 127
1, 216320, Note_on_c, 0, 54, 0
1, 216320, Note_on_c, 0, 56, 53
1, 216360, Note_on_c, 0, 78, 0
1, 216360, Note_on_c, 0, 70, 0
1, 216360, Note_on_c, 0, 82, 0
1, 216400, Note_on_c, 0, 56, 0
1, 216400, Note_on_c, 0, 57, 53
1, 216480, Tempo, 624740
1, 216480, Note_on_c, 0, 57, 0
1, 216480, Note_on_c, 0, 84, 93
1, 216480, Note_on_c, 0, 82, 71
1, 216480, Note_on_c, 0, 72, 71
1, 216480, Note_on_c, 0, 58, 54
1, 216492, Control_c, 0, 64, 0
1, 216519, Control_c, 0, 64, 127
1, 216560, Note_on_c, 0, 58, 0
1, 216560, Note_on_c, 0, 59, 55
1, 216600, Note_on_c, 0, 84, 0
1, 216600, Note_on_c, 0, 72, 0
1, 216600, Note_on_c, 0, 82, 0
1, 216640, Note_on_c, 0, 59, 0
1, 216640, Note_on_c, 0, 60, 55
1, 216660, Note_on_c, 0, 87, 89
1, 216720, Tempo, 634853
1, 216720, Note_on_c, 0, 87, 0
1, 216720, Note_on_c, 0, 60, 0
1, 216720, Note_on_c, 0, 85, 97
1, 216720, Note_on_c, 0, 82, 75
1, 216720, Note_on_c, 0, 73, 75
1, 216720, Note_on_c, 0, 61, 55
1, 216725, Control_c, 0, 64, 0
1, 216759, Control_c, 0, 64, 127
1, 216800, Note_on_c, 0, 61, 0
1, 216800, Note_on_c, 0, 62, 56
1, 216880, Note_on_c, 0, 62, 0
1, 216880, Note_on_c, 0, 65, 57
1, 216960, Tempo, 648859
1, 216960, Note_on_c, 0, 65, 0
1, 216960, Note_on_c, 0, 85, 0
1, 216960, Note_on_c, 0, 82, 0
1, 216960, Note_on_c, 0, 73, 0
1, 216960, Note_on_c, 0, 72, 65
1, 216960, Note_on_c, 0, 84, 84
1, 216960, Note_on_c, 0, 66, 57
1, 216977, Control_c, 0, 64, 0
1, 217003, Control_c, 0, 64, 127
1, 217040, Note_on_c, 0, 66, 0
1, 217040, Note_on_c, 0, 68, 59
1, 217120, Note_on_c, 0, 68, 0
1, 217120, Note_on_c, 0, 69, 61
1, 217189, Control_c, 0, 64, 0
1, 217200, Tempo, 678887
1, 217200, Note_on_c, 0, 69, 0
1, 217200, Note_on_c, 0, 84, 0
1, 217200, Note_on_c, 0, 72, 0
1, 217200, Note_on_c, 0, 70, 61
1, 217200, Note_on_c, 0, 82, 80
1, 217200, Note_on_c, 0, 70, 66
1, 217211, Control_c, 0, 64, 127
1, 217320, Note_on_c, 0, 70, 0
1, 217320, Note_on_c, 0, 82, 0
1, 217320, Note_on_c, 0, 70, 0
1, 217377, Control_c, 0, 64, 0
1, 217440, Tempo, 659776
1, 217440, Note_on_c, 0, 42, 74
1, 217440, Note_on_c, 0, 54, 89
1, 217460, Tempo, 659776
1, 217500, Control_c, 0, 64, 127
1, 217680, Tempo, 634853
1, 217680, Note_on_c, 0, 54, 0
1, 217680, Note_on_c, 0, 42, 0
1, 217680, Note_on_c, 0, 70, 55
1, 217680, Note_on_c, 0, 68, 83
1, 217680, Note_on_c, 0, 58, 63
1, 217680, Note_on_c, 0, 56, 63
1, 217686, Control_c, 0, 64, 0
1, 217731, Control_c, 0, 64, 127
1, 217740, Note_on_c, 0, 70, 0
1, 217740, Note_on_c, 0, 71, 55
1, 217800, Note_on_c, 0, 71, 0
1, 217800, Note_on_c, 0, 56, 0
1, 217800, Note_on_c, 0, 58, 0
1, 217800, Note_on_c, 0, 68, 0
1, 217800, Note_on_c, 0, 74, 55
1, 217860, Note_on_c, 0, 74, 0
1, 217860, Note_on_c, 0, 75, 55
1, 217920, Tempo, 652458
1, 217920, Note_on_c, 0, 75, 0
1, 217920, Note_on_c, 0, 77, 56
1, 217920, Note_on_c, 0, 58, 61
1, 217920, Note_on_c, 0, 65, 79
1, 217920, Note_on_c, 0, 53, 61
1, 217925, Control_c, 0, 64, 0
1, 217971, Control_c, 0, 64, 127
1, 217980, Note_on_c, 0, 77, 0
1, 217980, Note_on_c, 0, 78, 56
1, 218040, Note_on_c, 0, 78, 0
1, 218040, Note_on_c, 0, 53, 0
1, 218040, Note_on_c, 0, 65, 0
1, 218040, Note_on_c, 0, 58, 0
1, 218040, Note_on_c, 0, 80, 57
1, 218100, Note_on_c, 0, 80, 0
1, 218100, Note_on_c, 0, 81, 59
1, 218160, Tempo, 634853
1, 218160, Note_on_c, 0, 81, 0
1, 218160, Note_on_c, 0, 82, 59
1, 218160, Note_on_c, 0, 58, 63
1, 218160, Note_on_c, 0, 51, 63
1, 218160, Note_on_c, 0, 66, 82
1, 218170, Control_c, 0, 64, 0
1, 218220, Note_on_c, 0, 82, 0
1, 218220, Note_on_c, 0, 83, 61
1, 218220, Control_c, 0, 64, 127
1, 218280, Note_on_c, 0, 83, 0
1, 218280, Note_on_c, 0, 84, 61
1, 218340, Note_on_c, 0, 84, 0
1, 218340, Note_on_c, 0, 85, 61
1, 218400, Tempo, 652458
1, 218400, Note_on_c, 0, 85, 0
1, 218400, Note_on_c, 0, 66, 0
1, 218400, Note_on_c, 0, 51, 0
1, 218400, Note_on_c, 0, 86, 62
1, 218400, Note_on_c, 0, 53, 62
1, 218400, Note_on_c, 0, 65, 80
1, 218403, Control_c, 0, 64, 0
1, 218446, Control_c, 0, 64, 127
1, 218460, Note_on_c, 0, 86, 0
1, 218460, Note_on_c, 0, 87, 62
1, 218520, Note_on_c, 0, 87, 0
1, 218520, Note_on_c, 0, 88, 62
1, 218580, Note_on_c, 0, 88, 0
1, 218580, Note_on_c, 0, 89, 62
1, 218640, Tempo, 667334
1, 218640, Note_on_c, 0, 89, 0
1, 218640, Note_on_c, 0, 65, 0
1, 218640, Note_on_c, 0, 53, 0
1, 218640, Note_on_c, 0, 58, 0
1, 218640, Note_on_c, 0, 90, 63
1, 218640, Note_on_c, 0, 51, 62
1, 218640, Note_on_c, 0, 58, 72
1, 218640, Note_on_c, 0, 63, 80
1, 218645, Control_c, 0, 64, 0
1, 218680, Tempo, 648859
1, 218688, Note_on_c, 0, 90, 0
1, 218700, Note_on_c, 0, 91, 63
1, 218700, Control_c, 0, 64, 127
1, 218720, Tempo, 652458
1, 218748, Note_on_c, 0, 91, 0
1, 218760, Tempo, 656096
1, 218760, Note_on_c, 0, 63, 0
1, 218760, Note_on_c, 0, 58, 0
1, 218760, Note_on_c, 0, 51, 0
1, 218760, Note_on_c, 0, 92, 63
1, 218800, Tempo, 659776
1, 218808, Note_on_c, 0, 92, 0
1, 218820, Note_on_c, 0, 93, 63
1, 218840, Tempo, 663570
1, 218860, Tempo, 667334
1, 218868, Note_on_c, 0, 93, 0
1, 218880, Tempo, 652458
1, 218880, Note_on_c, 0, 87, 81
1, 218880, Note_on_c, 0, 82, 80
1, 218880, Note_on_c, 0, 94, 89
1, 218880, Control_c, 0, 64, 0
1, 218880, Note_on_c, 0, 37, 72
1, 218880, Note_on_c, 0, 42, 81
1, 218880, Note_on_c, 0, 30, 72
1, 218972, Control_c, 0, 64, 127
1, 219120, Tempo, 631446
1, 219120, Note_on_c, 0, 30, 0
1, 219120, Note_on_c, 0, 82, 0
1, 219120, Note_on_c, 0, 94, 0
1, 219120, Note_on_c, 0, 87, 0
1, 219120, Note_on_c, 0, 42, 0
1, 219120, Note_on_c, 0, 37, 0
1, 219120, Note_on_c, 0, 66, 61
1, 219120, Note_on_c, 0, 61, 66
1, 219120, Note_on_c, 0, 54, 61
1, 219139, Control_c, 0, 64, 0
1, 219240, Note_on_c, 0, 54, 0
1, 219240, Note_on_c, 0, 61, 0
1, 219240, Note_on_c, 0, 66, 0
1, 219240, Note_on_c, 0, 82, 76
1, 219240, Note_on_c, 0, 78, 76
1, 219240, Note_on_c, 0, 70, 67
1, 219240, Control_c, 0, 64, 127
1, 219360, Tempo, 628075
1, 219360, Note_on_c, 0, 70, 0
1, 219360, Note_on_c, 0, 78, 0
1, 219360, Note_on_c, 0, 82, 0
1, 219360, Note_on_c, 0, 66, 65
1, 219360, Note_on_c, 0, 60, 74
1, 219360, Note_on_c, 0, 54, 65
1, 219480, Note_on_c, 0, 54, 0
1, 219480, Note_on_c, 0, 60, 0
1, 219480, Note_on_c, 0, 66, 0
1, 219480, Note_on_c, 0, 84, 81
1, 219480, Note_on_c, 0, 78, 81
1, 219480, Note_on_c, 0, 72, 72
1, 219600, Tempo, 648859
1, 219600, Note_on_c, 0, 72, 0
1, 219600, Note_on_c, 0, 78, 0
1, 219600, Note_on_c, 0, 84, 0
1, 219600, Note_on_c, 0, 66, 72
1, 219600, Note_on_c, 0, 58, 81
1, 219600, Note_on_c, 0, 54, 72
1, 219617, Control_c, 0, 64, 0
1, 219715, Control_c, 0, 64, 127
1, 219720, Note_on_c, 0, 54, 0
1, 219720, Note_on_c, 0, 58, 0
1, 219720, Note_on_c, 0, 66, 0
1, 219720, Note_on_c, 0, 73, 75
1, 219720, Note_on_c, 0, 78, 84
1, 219720, Note_on_c, 0, 85, 84
1, 219840, Note_on_c, 0, 85, 0
1, 219840, Note_on_c, 0, 78, 0
1, 219840, Note_on_c, 0, 73, 0
1, 219840, Note_on_c, 0, 66, 67
1, 219840, Note_on_c, 0, 60, 76
1, 219840, Note_on_c, 0, 54, 67
1, 219960, Note_on_c, 0, 54, 0
1, 219960, Note_on_c, 0, 60, 0
1, 219960, Note_on_c, 0, 66, 0
1, 219960, Note_on_c, 0, 72, 73
1, 219960, Note_on_c, 0, 78, 81
1, 219960, Note_on_c, 0, 84, 81
1, 220080, Tempo, 634853
1, 220080, Note_on_c, 0, 84, 0
1, 220080, Note_on_c, 0, 78, 0
1, 220080, Note_on_c, 0, 72, 0
1, 220080, Note_on_c, 0, 66, 63
1, 220080, Note_on_c, 0, 61, 73
1, 220080, Note_on_c, 0, 54, 63
1, 220200, Note_on_c, 0, 54, 0
1, 220200, Note_on_c, 0, 61, 0
1, 220200, Note_on_c, 0, 66, 0
1, 220200, Note_on_c, 0, 82, 79
1, 220200, Note_on_c, 0, 78, 79
1, 220200, Note_on_c, 0, 70, 69
1, 220320, Tempo, 667334
1, 220320, Note_on_c, 0, 70, 0
1, 220320, Note_on_c, 0, 78, 0
1, 220320, Note_on_c, 0, 82, 0
1, 220320, Note_on_c, 0, 94, 81
1, 220320, Note_on_c, 0, 96, 89
1, 220320, Note_on_c, 0, 88, 80
1, 220320, Note_on_c, 0, 84, 80
1, 220320, Control_c, 0, 64, 0
1, 220320, Note_on_c, 0, 36, 79
1, 220320, Note_on_c, 0, 42, 89
1, 220320, Note_on_c, 0, 30, 79
1, 220383, Control_c, 0, 64, 127
1, 220560, Tempo, 628075
1, 220560, Note_on_c, 0, 30, 0
1, 220560, Note_on_c, 0, 36, 0
1, 220560, Note_on_c, 0, 96, 0
1, 220560, Note_on_c, 0, 88, 0
1, 220560, Note_on_c, 0, 94, 0
1, 220560, Note_on_c, 0, 42, 0
1, 220560, Note_on_c, 0, 84, 0
1, 220560, Note_on_c, 0, 54, 77
1, 220560, Note_on_c, 0, 66, 77
1, 220580, Control_c, 0, 64, 0
1, 220680, Note_on_c, 0, 66, 0
1, 220680, Note_on_c, 0, 54, 0
1, 220680, Note_on_c, 0, 80, 82
1, 220680, Note_on_c, 0, 68, 82
1, 220686, Control_c, 0, 64, 127
1, 220720, Tempo, 624740
1, 220800, Note_on_c, 0, 68, 0
1, 220800, Note_on_c, 0, 80, 0
1, 220800, Note_on_c, 0, 58, 79
1, 220800, Note_on_c, 0, 70, 79
1, 220880, Tempo, 621375
1, 220920, Note_on_c, 0, 70, 0
1, 220920, Note_on_c, 0, 58, 0
1, 220920, Note_on_c, 0, 83, 84
1, 220920, Note_on_c, 0, 71, 84
1, 221040, Tempo, 618111
1, 221040, Note_on_c, 0, 71, 0
1, 221040, Note_on_c, 0, 83, 0
1, 221040, Note_on_c, 0, 60, 80
1, 221040, Note_on_c, 0, 72, 80
1, 221057, Control_c, 0, 64, 0
1, 221097, Control_c, 0, 64, 127
1, 221160, Note_on_c, 0, 72, 0
1, 221160, Note_on_c, 0, 60, 0
1, 221160, Note_on_c, 0, 85, 85
1, 221160, Note_on_c, 0, 73, 85
1, 221200, Tempo, 614880
1, 221280, Note_on_c, 0, 73, 0
1, 221280, Note_on_c, 0, 85, 0
1, 221280, Note_on_c, 0, 62, 81
1, 221280, Note_on_c, 0, 74, 81
1, 221360, Tempo, 611683
1, 221400, Note_on_c, 0, 74, 0
1, 221400, Note_on_c, 0, 62, 0
1, 221400, Note_on_c, 0, 87, 87
1, 221400, Note_on_c, 0, 75, 87
1, 221520, Tempo, 608519
1, 221520, Note_on_c, 0, 75, 0
1, 221520, Note_on_c, 0, 87, 0
1, 221520, Note_on_c, 0, 64, 81
1, 221520, Note_on_c, 0, 76, 81
1, 221640, Note_on_c, 0, 76, 0
1, 221640, Note_on_c, 0, 64, 0
1, 221691, Control_c, 0, 64, 0
1, 221760, Time_signature, 12, 4, 6, 8
1, 221760, Key_signature, -2, "major"
1, 221760, Tempo, 465694
1, 221760, Note_on_c, 0, 101, 89
1, 221760, Note_on_c, 0, 93, 89
1, 221760, Note_on_c, 0, 89, 89
1, 221760, Note_on_c, 0, 29, 89
1, 221760, Note_on_c, 0, 36, 89
1, 221760, Control_c, 0, 64, 0
1, 221760, Note_on_c, 0, 41, 89
1, 221850, Note_on_c, 0, 41, 0
1, 221850, Note_on_c, 0, 93, 0
1, 221850, Note_on_c, 0, 89, 0
1, 221850, Note_on_c, 0, 101, 0
1, 221850, Note_on_c, 0, 36, 0
1, 221850, Note_on_c, 0, 29, 0
1, 222120, Note_on_c, 0, 89, 71
1, 222210, Note_on_c, 0, 89, 0
1, 222240, Note_on_c, 0, 89, 64
1, 222330, Note_on_c, 0, 89, 0
1, 222360, Note_on_c, 0, 101, 62
1, 222450, Note_on_c, 0, 101, 0
1, 222480, Note_on_c, 0, 77, 70
1, 222570, Note_on_c, 0, 77, 0
1, 222600, Note_on_c, 0, 77, 71
1, 222690, Note_on_c, 0, 77, 0
1, 222720, Tempo, 518135
1, 222720, Note_on_c, 0, 89, 64
1, 222810, Note_on_c, 0, 89, 0
1, 222840, Tempo, 465694
1, 222840, Note_on_c, 0, 65, 72
1, 222930, Note_on_c, 0, 65, 0
1, 222960, Note_on_c, 0, 65, 73
1, 223050, Note_on_c, 0, 65, 0
1, 223080, Note_on_c, 0, 77, 73
1, 223170, Note_on_c, 0, 77, 0
1, 223200, Tempo, 469153
1, 223200, Note_on_c, 0, 53, 69
1, 223290, Note_on_c, 0, 53, 0
1, 223320, Note_on_c, 0, 53, 63
1, 223410, Note_on_c, 0, 53, 0
1, 223440, Note_on_c, 0, 65, 62
1, 223530, Note_on_c, 0, 65, 0
1, 223560, Note_on_c, 0, 41, 69
1, 223650, Note_on_c, 0, 41, 0
1, 223680, Note_on_c, 0, 41, 62
1, 223770, Note_on_c, 0, 41, 0
1, 223800, Note_on_c, 0, 53, 61
1, 223890, Note_on_c, 0, 53, 0
1, 223920, Tempo, 486066
1, 223920, Note_on_c, 0, 29, 66
1, 223920, Note_on_c, 0, 41, 66
1, 223944, Tempo, 487845
1, 223972, Tempo, 489636
1, 223984, Tempo, 491360
1, 224010, Note_on_c, 0, 41, 0
1, 224010, Note_on_c, 0, 29, 0
1, 224012, Tempo, 493178
1, 224024, Tempo, 495009
1, 224040, Note_on_c, 0, 53, 62
1, 224052, Tempo, 496853
1, 224064, Tempo, 498670
1, 224092, Tempo, 500542
1, 224120, Tempo, 502428
1, 224130, Note_on_c, 0, 53, 0
1, 224132, Tempo, 504286
1, 224160, Tempo, 506201
1, 224160, Note_on_c, 0, 65, 56
1, 224172, Tempo, 508087
1, 224200, Tempo, 509987
1, 224212, Tempo, 511902
1, 224240, Tempo, 513875
1, 224250, Note_on_c, 0, 65, 0
1, 224252, Tempo, 515863
1, 224270, Tempo, 475737
1, 224280, Tempo, 531444
1, 224280, Note_on_c, 0, 65, 69
1, 224340, Tempo, 533855
1, 224370, Note_on_c, 0, 65, 0
1, 224380, Tempo, 536289
1, 224400, Note_on_c, 0, 65, 62
1, 224440, Tempo, 538745
1, 224480, Tempo, 541223
1, 224490, Note_on_c, 0, 65, 0
1, 224520, Note_on_c, 0, 66, 62
1, 224540, Tempo, 543725
1, 224580, Tempo, 546249
1, 224610, Note_on_c, 0, 66, 0
1, 224610, Note_on_c, 0, 56, 42
1, 224620, Tempo, 548797
1, 224640, Tempo, 524292
1, 224640, Note_on_c, 0, 56, 0
1, 224640, Note_on_c, 0, 63, 62
1, 224640, Note_on_c, 0, 67, 70
1, 224640, Control_c, 0, 64, 127
1, 224640, Note_on_c, 0, 57, 53
1, 224640, Note_on_c, 0, 60, 61
1, 224697, Control_c, 0, 64, 0
1, 224730, Note_on_c, 0, 60, 0
1, 224730, Note_on_c, 0, 63, 0
1, 224730, Note_on_c, 0, 67, 0
1, 224730, Note_on_c, 0, 57, 0
1, 224760, Note_on_c, 0, 63, 55
1, 224760, Note_on_c, 0, 67, 62
1, 224850, Note_on_c, 0, 67, 0
1, 224850, Note_on_c, 0, 63, 0
1, 224880, Tempo, 521875
1, 224880, Note_on_c, 0, 63, 57
1, 224880, Note_on_c, 0, 67, 63
1, 224970, Note_on_c, 0, 67, 0
1, 224970, Note_on_c, 0, 63, 0
1, 224970, Note_on_c, 0, 52, 46
1, 224994, Tempo, 484301
1, 225000, Note_on_c, 0, 52, 0
1, 225000, Note_on_c, 0, 67, 71
1, 225000, Note_on_c, 0, 63, 63
1, 225000, Note_on_c, 0, 53, 55
1, 225000, Note_on_c, 0, 57, 62
1, 225050, Tempo, 482587
1, 225090, Note_on_c, 0, 57, 0
1, 225090, Note_on_c, 0, 67, 0
1, 225090, Note_on_c, 0, 63, 0
1, 225090, Note_on_c, 0, 53, 0
1, 225102, Tempo, 480846
1, 225120, Note_on_c, 0, 62, 64
1, 225149, Control_c, 0, 64, 127
1, 225154, Tempo, 479118
1, 225210, Tempo, 477441
1, 225210, Note_on_c, 0, 62, 0
1, 225240, Note_on_c, 0, 67, 70
1, 225240, Note_on_c, 0, 63, 62
1, 225262, Tempo, 475737
1, 225292, Control_c, 0, 64, 0
1, 225314, Tempo, 474083
1, 225330, Note_on_c, 0, 63, 0
1, 225330, Note_on_c, 0, 67, 0
1, 225330, Note_on_c, 0, 44, 45
1, 225354, Tempo, 472404
1, 225360, Note_on_c, 0, 44, 0
1, 225360, Note_on_c, 0, 59, 63
1, 225360, Note_on_c, 0, 45, 53
1, 225450, Note_on_c, 0, 45, 0
1, 225450, Note_on_c, 0, 59, 0
1, 225480, Note_on_c, 0, 63, 63
1, 225480, Note_on_c, 0, 60, 57
1, 225480, Control_c, 0, 64, 127
1, 225570, Note_on_c, 0, 60, 0
1, 225570, Note_on_c, 0, 63, 0
1, 225600, Tempo, 489636
1, 225600, Note_on_c, 0, 62, 64
1, 225640, Control_c, 0, 64, 0
1, 225690, Note_on_c, 0, 62, 0
1, 225690, Note_on_c, 0, 40, 45
1, 225720, Tempo, 477631
1, 225720, Note_on_c, 0, 40, 0
1, 225720, Note_on_c, 0, 63, 62
1, 225720, Note_on_c, 0, 67, 70
1, 225720, Note_on_c, 0, 41, 53
1, 225760, Control_c, 0, 64, 127
1, 225810, Note_on_c, 0, 41, 0
1, 225810, Note_on_c, 0, 67, 0
1, 225823, Control_c, 0, 64, 0
1, 225840, Note_on_c, 0, 70, 69
1, 225930, Note_on_c, 0, 70, 0
1, 225960, Note_on_c, 0, 63, 0
1, 225960, Note_on_c, 0, 65, 59
1, 225960, Note_on_c, 0, 69, 65
1, 226050, Note_on_c, 0, 69, 0
1, 226050, Note_on_c, 0, 65, 0
1, 226050, Note_on_c, 0, 45, 45
1, 226080, Tempo, 489636
1, 226080, Note_on_c, 0, 45, 0
1, 226080, Note_on_c, 0, 62, 59
1, 226080, Note_on_c, 0, 65, 65
1, 226080, Note_on_c, 0, 46, 51
1, 226087, Control_c, 0, 64, 127
1, 226170, Note_on_c, 0, 65, 0
1, 226170, Note_on_c, 0, 62, 0
1, 226175, Control_c, 0, 64, 0
1, 226200, Note_on_c, 0, 62, 57
1, 226200, Note_on_c, 0, 65, 63
1, 226290, Note_on_c, 0, 65, 0
1, 226290, Note_on_c, 0, 62, 0
1, 226320, Tempo, 513875
1, 226320, Note_on_c, 0, 46, 0
1, 226320, Note_on_c, 0, 62, 63
1, 226320, Note_on_c, 0, 65, 63
1, 226410, Note_on_c, 0, 65, 0
1, 226410, Note_on_c, 0, 62, 0
1, 226410, Note_on_c, 0, 49, 47
1, 226440, Tempo, 470810
1, 226440, Note_on_c, 0, 49, 0
1, 226440, Note_on_c, 0, 65, 73
1, 226440, Note_on_c, 0, 62, 65
1, 226440, Note_on_c, 0, 50, 55
1, 226489, Control_c, 0, 64, 127
1, 226530, Note_on_c, 0, 50, 0
1, 226530, Note_on_c, 0, 62, 0
1, 226530, Note_on_c, 0, 65, 0
1, 226532, Tempo, 472404
1, 226557, Control_c, 0, 64, 0
1, 226560, Note_on_c, 0, 58, 67
1, 226624, Tempo, 474083
1, 226650, Note_on_c, 0, 58, 0
1, 226680, Note_on_c, 0, 63, 65
1, 226680, Note_on_c, 0, 60, 65
1, 226720, Tempo, 475737
1, 226770, Note_on_c, 0, 60, 0
1, 226770, Note_on_c, 0, 63, 0
1, 226770, Note_on_c, 0, 52, 50
1, 226800, Tempo, 482587
1, 226800, Note_on_c, 0, 52, 0
1, 226800, Note_on_c, 0, 62, 72
1, 226800, Note_on_c, 0, 53, 54
1, 226835, Control_c, 0, 64, 127
1, 226840, Tempo, 484301
1, 226864, Tempo, 486066
1, 226890, Note_on_c, 0, 53, 0
1, 226890, Note_on_c, 0, 62, 0
1, 226892, Tempo, 487845
1, 226920, Note_on_c, 0, 67, 64
1, 226920, Note_on_c, 0, 63, 57
1, 226932, Tempo, 489636
1, 226935, Control_c, 0, 64, 0
1, 226960, Tempo, 491360
1, 226984, Tempo, 493178
1, 227010, Note_on_c, 0, 63, 0
1, 227010, Note_on_c, 0, 67, 0
1, 227012, Tempo, 495009
1, 227040, Note_on_c, 0, 65, 65
1, 227040, Note_on_c, 0, 62, 65
1, 227052, Tempo, 496853
1, 227080, Tempo, 498670
1, 227104, Tempo, 500542
1, 227130, Note_on_c, 0, 62, 0
1, 227130, Note_on_c, 0, 65, 0
1, 227130, Note_on_c, 0, 57, 56
1, 227132, Tempo, 502428
1, 227160, Tempo, 549501
1, 227160, Note_on_c, 0, 57, 0
1, 227160, Note_on_c, 0, 62, 74
1, 227160, Note_on_c, 0, 58, 65
1, 227273, Control_c, 0, 64, 127
1, 227400, Control_c, 0, 64, 0
1, 227460, Tempo, 546249
1, 227460, Note_on_c, 0, 58, 0
1, 227460, Note_on_c, 0, 62, 0
1, 227490, Note_on_c, 0, 80, 31
1, 227500, Tempo, 548797
1, 227520, Tempo, 524292
1, 227520, Note_on_c, 0, 80, 0
1, 227520, Note_on_c, 0, 87, 49
1, 227520, Note_on_c, 0, 90, 54
1, 227520, Control_c, 0, 64, 127
1, 227520, Note_on_c, 0, 81, 37
1, 227520, Note_on_c, 0, 84, 43
1, 227540, Tempo, 517375
1, 227597, Control_c, 0, 64, 0
1, 227610, Note_on_c, 0, 84, 0
1, 227610, Note_on_c, 0, 87, 0
1, 227610, Note_on_c, 0, 90, 0
1, 227610, Note_on_c, 0, 81, 0
1, 227640, Note_on_c, 0, 87, 44
1, 227640, Note_on_c, 0, 90, 49
1, 227730, Note_on_c, 0, 90, 0
1, 227730, Note_on_c, 0, 87, 0
1, 227760, Tempo, 508431
1, 227760, Note_on_c, 0, 87, 45
1, 227760, Note_on_c, 0, 90, 51
1, 227850, Note_on_c, 0, 90, 0
1, 227850, Note_on_c, 0, 87, 0
1, 227850, Note_on_c, 0, 76, 32
1, 227874, Tempo, 484301
1, 227880, Note_on_c, 0, 76, 0
1, 227880, Note_on_c, 0, 90, 55
1, 227880, Note_on_c, 0, 87, 50
1, 227880, Note_on_c, 0, 77, 39
1, 227880, Note_on_c, 0, 81, 44
1, 227930, Tempo, 482587
1, 227970, Note_on_c, 0, 81, 0
1, 227970, Note_on_c, 0, 90, 0
1, 227970, Note_on_c, 0, 87, 0
1, 227970, Note_on_c, 0, 77, 0
1, 227982, Tempo, 480846
1, 228000, Note_on_c, 0, 86, 51
1, 228029, Control_c, 0, 64, 127
1, 228034, Tempo, 479118
1, 228090, Tempo, 477441
1, 228090, Note_on_c, 0, 86, 0
1, 228120, Note_on_c, 0, 90, 54
1, 228120, Note_on_c, 0, 87, 49
1, 228142, Tempo, 475737
1, 228175, Control_c, 0, 64, 0
1, 228194, Tempo, 474083
1, 228210, Note_on_c, 0, 87, 0
1, 228210, Note_on_c, 0, 90, 0
1, 228210, Note_on_c, 0, 68, 32
1, 228234, Tempo, 472404
1, 228240, Tempo, 469778
1, 228240, Note_on_c, 0, 68, 0
1, 228240, Note_on_c, 0, 83, 51
1, 228240, Note_on_c, 0, 69, 36
1, 228283, Control_c, 0, 64, 127
1, 228330, Note_on_c, 0, 69, 0
1, 228330, Note_on_c, 0, 83, 0
1, 228343, Control_c, 0, 64, 0
1, 228360, Note_on_c, 0, 87, 51
1, 228360, Note_on_c, 0, 84, 45
1, 228450, Note_on_c, 0, 84, 0
1, 228450, Note_on_c, 0, 87, 0
1, 228480, Tempo, 489636
1, 228480, Note_on_c, 0, 86, 51
1, 228570, Note_on_c, 0, 86, 0
1, 228570, Note_on_c, 0, 64, 32
1, 228600, Tempo, 477403
1, 228600, Note_on_c, 0, 64, 0
1, 228600, Note_on_c, 0, 87, 49
1, 228600, Note_on_c, 0, 90, 54
1, 228600, Note_on_c, 0, 65, 36
1, 228640, Control_c, 0, 64, 127
1, 228690, Note_on_c, 0, 65, 0
1, 228690, Note_on_c, 0, 90, 0
1, 228703, Control_c, 0, 64, 0
1, 228720, Note_on_c, 0, 94, 54
1, 228810, Note_on_c, 0, 94, 0
1, 228840, Note_on_c, 0, 87, 0
1, 228840, Note_on_c, 0, 89, 45
1, 228840, Note_on_c, 0, 93, 52
1, 228930, Note_on_c, 0, 93, 0
1, 228930, Note_on_c, 0, 89, 0
1, 228930, Note_on_c, 0, 69, 32
1, 228960, Tempo, 489636
1, 228960, Note_on_c, 0, 69, 0
1, 228960, Note_on_c, 0, 85, 45
1, 228960, Note_on_c, 0, 89, 52
1, 228960, Note_on_c, 0, 70, 36
1, 229040, Control_c, 0, 64, 127
1, 229050, Note_on_c, 0, 70, 0
1, 229050, Note_on_c, 0, 89, 0
1, 229050, Note_on_c, 0, 85, 0
1, 229080, Note_on_c, 0, 85, 45
1, 229080, Note_on_c, 0, 89, 51
1, 229089, Control_c, 0, 64, 0
1, 229170, Note_on_c, 0, 89, 0
1, 229170, Note_on_c, 0, 85, 0
1, 229200, Tempo, 513875
1, 229200, Note_on_c, 0, 85, 51
1, 229200, Note_on_c, 0, 89, 51
1, 229290, Note_on_c, 0, 89, 0
1, 229290, Note_on_c, 0, 85, 0
1, 229290, Note_on_c, 0, 72, 32
1, 229320, Tempo, 470810
1, 229320, Note_on_c, 0, 72, 0
1, 229320, Note_on_c, 0, 89, 59
1, 229320, Note_on_c, 0, 85, 52
1, 229320, Note_on_c, 0, 73, 39
1, 229369, Control_c, 0, 64, 127
1, 229410, Note_on_c, 0, 73, 0
1, 229410, Note_on_c, 0, 85, 0
1, 229410, Note_on_c, 0, 89, 0
1, 229412, Tempo, 472404
1, 229440, Note_on_c, 0, 82, 53
1, 229443, Control_c, 0, 64, 0
1, 229504, Tempo, 474083
1, 229530, Note_on_c, 0, 82, 0
1, 229560, Note_on_c, 0, 87, 52
1, 229560, Note_on_c, 0, 84, 52
1, 229600, Tempo, 475737
1, 229650, Note_on_c, 0, 84, 0
1, 229650, Note_on_c, 0, 87, 0
1, 229650, Note_on_c, 0, 76, 35
1, 229680, Tempo, 482587
1, 229680, Note_on_c, 0, 76, 0
1, 229680, Note_on_c, 0, 85, 57
1, 229680, Note_on_c, 0, 77, 39
1, 229720, Tempo, 484301
1, 229744, Tempo, 486066
1, 229758, Control_c, 0, 64, 127
1, 229770, Note_on_c, 0, 77, 0
1, 229770, Note_on_c, 0, 85, 0
1, 229772, Tempo, 487845
1, 229800, Note_on_c, 0, 90, 51
1, 229800, Note_on_c, 0, 87, 45
1, 229812, Tempo, 489636
1, 229840, Tempo, 491360
1, 229846, Control_c, 0, 64, 0
1, 229864, Tempo, 493178
1, 229890, Note_on_c, 0, 87, 0
1, 229890, Note_on_c, 0, 90, 0
1, 229892, Tempo, 495009
1, 229920, Note_on_c, 0, 89, 52
1, 229920, Note_on_c, 0, 85, 52
1, 229932, Tempo, 496853
1, 229960, Tempo, 498670
1, 229984, Tempo, 500542
1, 230010, Note_on_c, 0, 85, 0
1, 230010, Note_on_c, 0, 89, 0
1, 230010, Note_on_c, 0, 81, 35
1, 230012, Tempo, 502428
1, 230040, Tempo, 549501
1, 230040, Note_on_c, 0, 81, 0
1, 230040, Note_on_c, 0, 85, 45
1, 230040, Note_on_c, 0, 82, 41
1, 230153, Control_c, 0, 64, 127
1, 230280, Control_c, 0, 64, 0
1, 230340, Note_on_c, 0, 82, 0
1, 230340, Note_on_c, 0, 85, 0
1, 230400, Tempo, 482664
1, 230400, Note_on_c, 0, 71, 72
1, 230400, Note_on_c, 0, 65, 54
1, 230400, Note_on_c, 0, 68, 62
1, 230434, Control_c, 0, 64, 127
1, 230480, Tempo, 481000
1, 230490, Note_on_c, 0, 68, 0
1, 230490, Note_on_c, 0, 65, 0
1, 230490, Note_on_c, 0, 71, 0
1, 230520, Note_on_c, 0, 75, 69
1, 230520, Note_on_c, 0, 72, 69
1, 230520, Note_on_c, 0, 63, 50
1, 230520, Note_on_c, 0, 67, 56
1, 230544, Tempo, 479272
1, 230610, Note_on_c, 0, 67, 0
1, 230610, Note_on_c, 0, 75, 0
1, 230610, Note_on_c, 0, 72, 0
1, 230610, Note_on_c, 0, 63, 0
1, 230624, Tempo, 477593
1, 230640, Note_on_c, 0, 74, 69
1, 230640, Note_on_c, 0, 62, 50
1, 230640, Note_on_c, 0, 65, 56
1, 230692, Tempo, 475926
1, 230730, Note_on_c, 0, 65, 0
1, 230730, Note_on_c, 0, 62, 0
1, 230730, Note_on_c, 0, 74, 0
1, 230760, Tempo, 474346
1, 230760, Note_on_c, 0, 79, 80
1, 230760, Note_on_c, 0, 75, 80
1, 230760, Note_on_c, 0, 60, 46
1, 230760, Note_on_c, 0, 63, 53
1, 230766, Control_c, 0, 64, 0
1, 230823, Control_c, 0, 64, 127
1, 230850, Note_on_c, 0, 75, 0
1, 230850, Note_on_c, 0, 79, 0
1, 230880, Note_on_c, 0, 78, 74
1, 230970, Note_on_c, 0, 78, 0
1, 231000, Tempo, 505817
1, 231000, Note_on_c, 0, 82, 75
1, 231000, Note_on_c, 0, 79, 75
1, 231000, Note_on_c, 0, 52, 46
1, 231000, Note_on_c, 0, 61, 53
1, 231014, Control_c, 0, 64, 0
1, 231090, Note_on_c, 0, 61, 0
1, 231090, Note_on_c, 0, 79, 0
1, 231090, Note_on_c, 0, 82, 0
1, 231090, Note_on_c, 0, 52, 0
1, 231120, Tempo, 474346
1, 231120, Note_on_c, 0, 63, 0
1, 231120, Note_on_c, 0, 60, 0
1, 231120, Note_on_c, 0, 80, 84
1, 231120, Note_on_c, 0, 60, 53
1, 231120, Note_on_c, 0, 53, 59
1, 231149, Control_c, 0, 64, 127
1, 231210, Note_on_c, 0, 80, 0
1, 231240, Note_on_c, 0, 84, 74
1, 231240, Note_on_c, 0, 81, 65
1, 231330, Note_on_c, 0, 81, 0
1, 231330, Note_on_c, 0, 84, 0
1, 231360, Note_on_c, 0, 53, 0
1, 231360, Note_on_c, 0, 82, 75
1, 231360, Note_on_c, 0, 79, 66
1, 231360, Note_on_c, 0, 54, 55
1, 231450, Note_on_c, 0, 54, 0
1, 231450, Note_on_c, 0, 79, 0
1, 231450, Note_on_c, 0, 82, 0
1, 231480, Note_on_c, 0, 60, 0
1, 231480, Note_on_c, 0, 81, 74
1, 231480, Note_on_c, 0, 77, 74
1, 231480, Note_on_c, 0, 60, 54
1, 231480, Note_on_c, 0, 55, 54
1, 231570, Note_on_c, 0, 55, 0
1, 231570, Note_on_c, 0, 60, 0
1, 231570, Note_on_c, 0, 77, 0
1, 231600, Note_on_c, 0, 76, 72
1, 231600, Note_on_c, 0, 56, 53
1, 231690, Note_on_c, 0, 56, 0
1, 231690, Note_on_c, 0, 76, 0
1, 231720, Note_on_c, 0, 81, 0
1, 231720, Note_on_c, 0, 79, 70
1, 231720, Note_on_c, 0, 75, 70
1, 231720, Note_on_c, 0, 57, 51
1, 231810, Note_on_c, 0, 57, 0
1, 231810, Note_on_c, 0, 75, 0
1, 231810, Note_on_c, 0, 79, 0
1, 231840, Tempo, 484340
1, 231840, Note_on_c, 0, 73, 74
1, 231840, Note_on_c, 0, 64, 54
1, 231840, Note_on_c, 0, 58, 53
1, 231847, Control_c, 0, 64, 0
1, 231886, Control_c, 0, 64, 127
1, 231930, Note_on_c, 0, 64, 0
1, 231930, Note_on_c, 0, 73, 0
1, 231960, Note_on_c, 0, 77, 71
1, 231960, Note_on_c, 0, 74, 71
1, 231960, Note_on_c, 0, 65, 54
1, 232050, Note_on_c, 0, 65, 0
1, 232050, Note_on_c, 0, 74, 0
1, 232050, Note_on_c, 0, 77, 0
1, 232080, Note_on_c, 0, 58, 0
1, 232080, Note_on_c, 0, 75, 70
1, 232080, Note_on_c, 0, 66, 54
1, 232170, Note_on_c, 0, 66, 0
1, 232170, Note_on_c, 0, 75, 0
1, 232200, Tempo, 474346
1, 232200, Note_on_c, 0, 71, 61
1, 232200, Note_on_c, 0, 82, 86
1, 232200, Note_on_c, 0, 76, 61
1, 232200, Note_on_c, 0, 67, 54
1, 232200, Note_on_c, 0, 61, 54
1, 232215, Control_c, 0, 64, 0
1, 232290, Note_on_c, 0, 67, 0
1, 232290, Note_on_c, 0, 76, 0
1, 232320, Note_on_c, 0, 77, 62
1, 232320, Note_on_c, 0, 68, 54
1, 232331, Control_c, 0, 64, 127
1, 232440, Note_on_c, 0, 82, 0
1, 232440, Note_on_c, 0, 80, 61
1, 232530, Note_on_c, 0, 80, 0
1, 232560, Tempo, 491320
1, 232560, Note_on_c, 0, 68, 0
1, 232560, Note_on_c, 0, 61, 0
1, 232560, Note_on_c, 0, 71, 0
1, 232560, Note_on_c, 0, 77, 0
1, 232560, Note_on_c, 0, 73, 59
1, 232560, Note_on_c, 0, 78, 69
1, 232560, Note_on_c, 0, 70, 50
1, 232560, Note_on_c, 0, 66, 50
1, 232650, Note_on_c, 0, 78, 0
1, 232650, Note_on_c, 0, 73, 0
1, 232680, Note_on_c, 0, 70, 0
1, 232680, Note_on_c, 0, 77, 65
1, 232770, Note_on_c, 0, 77, 0
1, 232800, Note_on_c, 0, 78, 63
1, 232802, Tempo, 511771
1, 232860, Note_on_c, 0, 54, 40
1, 232890, Note_on_c, 0, 78, 0
1, 232890, Note_on_c, 0, 61, 42
1, 232920, Tempo, 548346
1, 232920, Note_on_c, 0, 66, 0
1, 232920, Note_on_c, 0, 66, 62
1, 232920, Note_on_c, 0, 73, 70
1, 232920, Note_on_c, 0, 70, 46
1, 232937, Control_c, 0, 64, 0
1, 233034, Control_c, 0, 64, 127
1, 233280, Tempo, 482664
1, 233280, Note_on_c, 0, 70, 0
1, 233280, Note_on_c, 0, 66, 0
1, 233280, Note_on_c, 0, 54, 0
1, 233280, Note_on_c, 0, 61, 0
1, 233280, Note_on_c, 0, 73, 0
1, 233280, Note_on_c, 0, 79, 45
1, 233280, Note_on_c, 0, 73, 34
1, 233280, Note_on_c, 0, 76, 37
1, 233282, Control_c, 0, 64, 0
1, 233314, Control_c, 0, 64, 127
1, 233360, Tempo, 481000
1, 233370, Note_on_c, 0, 76, 0
1, 233370, Note_on_c, 0, 73, 0
1, 233370, Note_on_c, 0, 79, 0
1, 233400, Note_on_c, 0, 83, 44
1, 233400, Note_on_c, 0, 80, 44
1, 233400, Note_on_c, 0, 71, 31
1, 233400, Note_on_c, 0, 75, 35
1, 233424, Tempo, 479272
1, 233490, Note_on_c, 0, 75, 0
1, 233490, Note_on_c, 0, 83, 0
1, 233490, Note_on_c, 0, 80, 0
1, 233490, Note_on_c, 0, 71, 0
1, 233504, Tempo, 477593
1, 233520, Note_on_c, 0, 82, 44
1, 233520, Note_on_c, 0, 70, 31
1, 233520, Note_on_c, 0, 73, 35
1, 233572, Tempo, 475926
1, 233610, Note_on_c, 0, 73, 0
1, 233610, Note_on_c, 0, 70, 0
1, 233610, Note_on_c, 0, 82, 0
1, 233640, Tempo, 474346
1, 233640, Note_on_c, 0, 87, 49
1, 233640, Note_on_c, 0, 83, 49
1, 233640, Note_on_c, 0, 68, 27
1, 233640, Note_on_c, 0, 71, 32
1, 233646, Control_c, 0, 64, 0
1, 233703, Control_c, 0, 64, 127
1, 233730, Note_on_c, 0, 83, 0
1, 233730, Note_on_c, 0, 87, 0
1, 233760, Note_on_c, 0, 86, 45
1, 233850, Note_on_c, 0, 86, 0
1, 233880, Tempo, 505817
1, 233880, Note_on_c, 0, 90, 46
1, 233880, Note_on_c, 0, 87, 46
1, 233880, Note_on_c, 0, 60, 27
1, 233880, Note_on_c, 0, 69, 32
1, 233894, Control_c, 0, 64, 0
1, 233970, Note_on_c, 0, 69, 0
1, 233970, Note_on_c, 0, 87, 0
1, 233970, Note_on_c, 0, 90, 0
1, 233970, Note_on_c, 0, 60, 0
1, 234000, Tempo, 474346
1, 234000, Note_on_c, 0, 71, 0
1, 234000, Note_on_c, 0, 68, 0
1, 234000, Note_on_c, 0, 88, 53
1, 234000, Note_on_c, 0, 68, 32
1, 234000, Note_on_c, 0, 61, 36
1, 234029, Control_c, 0, 64, 127
1, 234090, Note_on_c, 0, 88, 0
1, 234120, Note_on_c, 0, 92, 45
1, 234120, Note_on_c, 0, 89, 41
1, 234210, Note_on_c, 0, 89, 0
1, 234210, Note_on_c, 0, 92, 0
1, 234240, Note_on_c, 0, 61, 0
1, 234240, Note_on_c, 0, 90, 46
1, 234240, Note_on_c, 0, 87, 42
1, 234240, Note_on_c, 0, 62, 34
1, 234330, Note_on_c, 0, 62, 0
1, 234330, Note_on_c, 0, 87, 0
1, 234330, Note_on_c, 0, 90, 0
1, 234360, Note_on_c, 0, 68, 0
1, 234360, Note_on_c, 0, 89, 45
1, 234360, Note_on_c, 0, 85, 45
1, 234360, Note_on_c, 0, 68, 34
1, 234360, Note_on_c, 0, 63, 34
1, 234450, Note_on_c, 0, 63, 0
1, 234450, Note_on_c, 0, 68, 0
1, 234450, Note_on_c, 0, 85, 0
1, 234480, Note_on_c, 0, 84, 45
1, 234480, Note_on_c, 0, 64, 32
1, 234570, Note_on_c, 0, 64, 0
1, 234570, Note_on_c, 0, 84, 0
1, 234600, Note_on_c, 0, 89, 0
1, 234600, Note_on_c, 0, 87, 44
1, 234600, Note_on_c, 0, 83, 44
1, 234600, Note_on_c, 0, 65, 31
1, 234690, Note_on_c, 0, 65, 0
1, 234690, Note_on_c, 0, 83, 0
1, 234690, Note_on_c, 0, 87, 0
1, 234720, Tempo, 484340
1, 234720, Note_on_c, 0, 81, 45
1, 234720, Note_on_c, 0, 72, 34
1, 234720, Note_on_c, 0, 66, 32
1, 234722, Control_c, 0, 64, 0
1, 234766, Control_c, 0, 64, 127
1, 234810, Note_on_c, 0, 72, 0
1, 234810, Note_on_c, 0, 81, 0
1, 234840, Note_on_c, 0, 85, 44
1, 234840, Note_on_c, 0, 82, 44
1, 234840, Note_on_c, 0, 73, 34
1, 234930, Note_on_c, 0, 73, 0
1, 234930, Note_on_c, 0, 82, 0
1, 234930, Note_on_c, 0, 85, 0
1, 234960, Note_on_c, 0, 66, 0
1, 234960, Note_on_c, 0, 83, 44
1, 234960, Note_on_c, 0, 74, 34
1, 235050, Note_on_c, 0, 74, 0
1, 235050, Note_on_c, 0, 83, 0
1, 235080, Tempo, 474346
1, 235080, Note_on_c, 0, 79, 36
1, 235080, Note_on_c, 0, 90, 46
1, 235080, Note_on_c, 0, 84, 36
1, 235080, Note_on_c, 0, 75, 34
1, 235080, Note_on_c, 0, 69, 34
1, 235101, Control_c, 0, 64, 0
1, 235170, Note_on_c, 0, 75, 0
1, 235170, Note_on_c, 0, 84, 0
1, 235200, Note_on_c, 0, 85, 37
1, 235200, Note_on_c, 0, 76, 34
1, 235211, Control_c, 0, 64, 127
1, 235320, Note_on_c, 0, 90, 0
1, 235320, Note_on_c, 0, 88, 36
1, 235410, Note_on_c, 0, 88, 0
1, 235440, Tempo, 491320
1, 235440, Note_on_c, 0, 76, 0
1, 235440, Note_on_c, 0, 69, 0
1, 235440, Note_on_c, 0, 79, 0
1, 235440, Note_on_c, 0, 85, 0
1, 235440, Note_on_c, 0, 81, 36
1, 235440, Note_on_c, 0, 86, 44
1, 235440, Note_on_c, 0, 78, 31
1, 235440, Note_on_c, 0, 74, 31
1, 235530, Note_on_c, 0, 86, 0
1, 235530, Note_on_c, 0, 81, 0
1, 235560, Note_on_c, 0, 78, 0
1, 235560, Note_on_c, 0, 85, 41
1, 235650, Note_on_c, 0, 85, 0
1, 235680, Note_on_c, 0, 86, 40
1, 235682, Tempo, 511771
1, 235770, Note_on_c, 0, 86, 0
1, 235800, Tempo, 548346
1, 235800, Note_on_c, 0, 74, 0
1, 235800, Note_on_c, 0, 81, 44
1, 235800, Note_on_c, 0, 78, 39
1, 235817, Control_c, 0, 64, 0
1, 235914, Control_c, 0, 64, 127
1, 236074, Control_c, 0, 64, 0
1, 236160, Key_signature, 2, "major"
1, 236160, Tempo, 508087
1, 236160, Note_on_c, 0, 78, 0
1, 236160, Note_on_c, 0, 81, 0
1, 236160, Note_on_c, 0, 45, 65
1, 236160, Note_on_c, 0, 50, 74
1, 236160, Note_on_c, 0, 55, 74
1, 236250, Note_on_c, 0, 55, 0
1, 236250, Note_on_c, 0, 50, 0
1, 236250, Note_on_c, 0, 45, 0
1, 236280, Note_on_c, 0, 59, 59
1, 236280, Note_on_c, 0, 62, 65
1, 236303, Control_c, 0, 64, 127
1, 236370, Note_on_c, 0, 62, 0
1, 236370, Note_on_c, 0, 59, 0
1, 236400, Tempo, 521875
1, 236400, Note_on_c, 0, 71, 61
1, 236400, Note_on_c, 0, 67, 53
1, 236490, Note_on_c, 0, 67, 0
1, 236490, Note_on_c, 0, 71, 0
1, 236514, Tempo, 484301
1, 236520, Note_on_c, 0, 83, 81
1, 236520, Note_on_c, 0, 79, 90
1, 236554, Control_c, 0, 64, 0
1, 236570, Tempo, 482587
1, 236610, Note_on_c, 0, 79, 0
1, 236610, Note_on_c, 0, 83, 0
1, 236622, Tempo, 480846
1, 236640, Note_on_c, 0, 70, 54
1, 236640, Note_on_c, 0, 66, 49
1, 236674, Tempo, 479118
1, 236730, Tempo, 477441
1, 236730, Note_on_c, 0, 66, 0
1, 236730, Note_on_c, 0, 70, 0
1, 236760, Note_on_c, 0, 67, 44
1, 236760, Note_on_c, 0, 71, 50
1, 236782, Tempo, 475737
1, 236834, Tempo, 474083
1, 236850, Note_on_c, 0, 71, 0
1, 236850, Note_on_c, 0, 67, 0
1, 236874, Tempo, 472404
1, 236880, Note_on_c, 0, 66, 65
1, 236880, Note_on_c, 0, 63, 59
1, 236970, Note_on_c, 0, 63, 0
1, 236970, Note_on_c, 0, 66, 0
1, 237000, Note_on_c, 0, 64, 51
1, 237000, Note_on_c, 0, 67, 57
1, 237090, Note_on_c, 0, 67, 0
1, 237090, Note_on_c, 0, 64, 0
1, 237120, Tempo, 489636
1, 237120, Note_on_c, 0, 70, 55
1, 237120, Note_on_c, 0, 66, 49
1, 237210, Note_on_c, 0, 66, 0
1, 237210, Note_on_c, 0, 70, 0
1, 237240, Tempo, 477631
1, 237240, Note_on_c, 0, 67, 62
1, 237240, Note_on_c, 0, 71, 69
1, 237330, Note_on_c, 0, 71, 0
1, 237360, Note_on_c, 0, 74, 65
1, 237450, Note_on_c, 0, 74, 0
1, 237480, Note_on_c, 0, 67, 0
1, 237480, Note_on_c, 0, 69, 54
1, 237480, Note_on_c, 0, 73, 62
1, 237570, Note_on_c, 0, 73, 0
1, 237570, Note_on_c, 0, 69, 0
1, 237600, Tempo, 501798
1, 237600, Note_on_c, 0, 45, 56
1, 237600, Note_on_c, 0, 50, 63
1, 237600, Note_on_c, 0, 54, 63
1, 237690, Note_on_c, 0, 54, 0
1, 237690, Note_on_c, 0, 50, 0
1, 237690, Note_on_c, 0, 45, 0
1, 237720, Note_on_c, 0, 57, 54
1, 237720, Note_on_c, 0, 62, 62
1, 237754, Control_c, 0, 64, 127
1, 237810, Note_on_c, 0, 62, 0
1, 237810, Note_on_c, 0, 57, 0
1, 237840, Tempo, 513875
1, 237840, Note_on_c, 0, 69, 55
1, 237840, Note_on_c, 0, 66, 49
1, 237930, Note_on_c, 0, 66, 0
1, 237930, Note_on_c, 0, 69, 0
1, 237960, Tempo, 470810
1, 237960, Note_on_c, 0, 78, 81
1, 237960, Note_on_c, 0, 81, 90
1, 238046, Control_c, 0, 64, 0
1, 238050, Note_on_c, 0, 81, 0
1, 238050, Note_on_c, 0, 78, 0
1, 238052, Tempo, 472404
1, 238080, Note_on_c, 0, 62, 52
1, 238080, Note_on_c, 0, 66, 59
1, 238144, Tempo, 474083
1, 238170, Note_on_c, 0, 66, 0
1, 238170, Note_on_c, 0, 62, 0
1, 238200, Note_on_c, 0, 64, 46
1, 238200, Note_on_c, 0, 67, 53
1, 238240, Tempo, 475737
1, 238290, Note_on_c, 0, 67, 0
1, 238290, Note_on_c, 0, 64, 0
1, 238320, Tempo, 482587
1, 238320, Note_on_c, 0, 66, 54
1, 238320, Note_on_c, 0, 69, 62
1, 238360, Tempo, 484301
1, 238384, Tempo, 486066
1, 238410, Note_on_c, 0, 69, 0
1, 238410, Note_on_c, 0, 66, 0
1, 238412, Tempo, 487845
1, 238440, Note_on_c, 0, 67, 46
1, 238440, Note_on_c, 0, 71, 53
1, 238452, Tempo, 489636
1, 238480, Tempo, 491360
1, 238504, Tempo, 493178
1, 238530, Note_on_c, 0, 71, 0
1, 238530, Note_on_c, 0, 67, 0
1, 238532, Tempo, 495009
1, 238560, Note_on_c, 0, 66, 44
1, 238560, Note_on_c, 0, 69, 50
1, 238572, Tempo, 496853
1, 238600, Tempo, 498670
1, 238624, Tempo, 500542
1, 238650, Note_on_c, 0, 69, 0
1, 238650, Note_on_c, 0, 66, 0
1, 238652, Tempo, 502428
1, 238680, Tempo, 556586
1, 238680, Note_on_c, 0, 62, 62
1, 238680, Note_on_c, 0, 66, 69
1, 239040, Tempo, 508087
1, 239040, Note_on_c, 0, 66, 0
1, 239040, Note_on_c, 0, 62, 0
1, 239040, Note_on_c, 0, 57, 44
1, 239040, Note_on_c, 0, 62, 50
1, 239040, Note_on_c, 0, 67, 50
1, 239130, Note_on_c, 0, 67, 0
1, 239130, Note_on_c, 0, 62, 0
1, 239130, Note_on_c, 0, 57, 0
1, 239160, Note_on_c, 0, 71, 36
1, 239160, Note_on_c, 0, 74, 41
1, 239166, Control_c, 0, 64, 127
1, 239250, Note_on_c, 0, 74, 0
1, 239250, Note_on_c, 0, 71, 0
1, 239280, Tempo, 521875
1, 239280, Note_on_c, 0, 83, 36
1, 239280, Note_on_c, 0, 79, 36
1, 239370, Note_on_c, 0, 79, 0
1, 239370, Note_on_c, 0, 83, 0
1, 239394, Tempo, 484301
1, 239400, Control_c, 0, 64, 0
1, 239400, Note_on_c, 0, 91, 44
1, 239400, Note_on_c, 0, 95, 50
1, 239450, Tempo, 482587
1, 239490, Note_on_c, 0, 95, 0
1, 239490, Note_on_c, 0, 91, 0
1, 239502, Tempo, 480846
1, 239520, Note_on_c, 0, 82, 33
1, 239520, Note_on_c, 0, 78, 29
1, 239554, Tempo, 479118
1, 239610, Tempo, 477441
1, 239610, Note_on_c, 0, 78, 0
1, 239610, Note_on_c, 0, 82, 0
1, 239640, Note_on_c, 0, 79, 26
1, 239640, Note_on_c, 0, 83, 30
1, 239662, Tempo, 475737
1, 239714, Tempo, 474083
1, 239730, Note_on_c, 0, 83, 0
1, 239730, Note_on_c, 0, 79, 0
1, 239754, Tempo, 472404
1, 239760, Note_on_c, 0, 78, 41
1, 239760, Note_on_c, 0, 75, 36
1, 239850, Note_on_c, 0, 75, 0
1, 239850, Note_on_c, 0, 78, 0
1, 239880, Note_on_c, 0, 76, 31
1, 239880, Note_on_c, 0, 79, 35
1, 239970, Note_on_c, 0, 79, 0
1, 239970, Note_on_c, 0, 76, 0
1, 240000, Tempo, 489636
1, 240000, Note_on_c, 0, 82, 34
1, 240000, Note_on_c, 0, 78, 30
1, 240090, Note_on_c, 0, 78, 0
1, 240090, Note_on_c, 0, 82, 0
1, 240120, Tempo, 477631
1, 240120, Note_on_c, 0, 79, 43
1, 240120, Note_on_c, 0, 83, 43
1, 240210, Note_on_c, 0, 83, 0
1, 240240, Note_on_c, 0, 86, 41
1, 240330, Note_on_c, 0, 86, 0
1, 240360, Note_on_c, 0, 79, 0
1, 240360, Note_on_c, 0, 81, 37
1, 240360, Note_on_c, 0, 85, 37
1, 240450, Note_on_c, 0, 85, 0
1, 240450, Note_on_c, 0, 81, 0
1, 240480, Tempo, 501798
1, 240480, Note_on_c, 0, 57, 34
1, 240480, Note_on_c, 0, 62, 34
1, 240480, Note_on_c, 0, 66, 39
1, 240561, Control_c, 0, 64, 127
1, 240570, Note_on_c, 0, 66, 0
1, 240570, Note_on_c, 0, 62, 0
1, 240570, Note_on_c, 0, 57, 0
1, 240600, Note_on_c, 0, 69, 33
1, 240600, Note_on_c, 0, 74, 37
1, 240690, Note_on_c, 0, 74, 0
1, 240690, Note_on_c, 0, 69, 0
1, 240720, Tempo, 513875
1, 240720, Note_on_c, 0, 81, 34
1, 240720, Note_on_c, 0, 78, 30
1, 240810, Note_on_c, 0, 78, 0
1, 240810, Note_on_c, 0, 81, 0
1, 240840, Tempo, 470810
1, 240840, Note_on_c, 0, 90, 49
1, 240840, Note_on_c, 0, 93, 55
1, 240911, Control_c, 0, 64, 0
1, 240930, Note_on_c, 0, 93, 0
1, 240930, Note_on_c, 0, 90, 0
1, 240932, Tempo, 472404
1, 240960, Note_on_c, 0, 74, 32
1, 240960, Note_on_c, 0, 78, 36
1, 241024, Tempo, 474083
1, 241050, Note_on_c, 0, 78, 0
1, 241050, Note_on_c, 0, 74, 0
1, 241080, Note_on_c, 0, 76, 27
1, 241080, Note_on_c, 0, 79, 32
1, 241120, Tempo, 475737
1, 241170, Note_on_c, 0, 79, 0
1, 241170, Note_on_c, 0, 76, 0
1, 241200, Tempo, 482587
1, 241200, Note_on_c, 0, 78, 33
1, 241200, Note_on_c, 0, 81, 37
1, 241240, Tempo, 484301
1, 241264, Tempo, 486066
1, 241290, Note_on_c, 0, 81, 0
1, 241290, Note_on_c, 0, 78, 0
1, 241292, Tempo, 487845
1, 241320, Note_on_c, 0, 79, 27
1, 241320, Note_on_c, 0, 83, 32
1, 241332, Tempo, 489636
1, 241360, Tempo, 491360
1, 241384, Tempo, 493178
1, 241410, Note_on_c, 0, 83, 0
1, 241410, Note_on_c, 0, 79, 0
1, 241412, Tempo, 495009
1, 241440, Note_on_c, 0, 78, 26
1, 241440, Note_on_c, 0, 81, 30
1, 241452, Tempo, 496853
1, 241480, Tempo, 498670
1, 241504, Tempo, 500542
1, 241530, Note_on_c, 0, 81, 0
1, 241530, Note_on_c, 0, 78, 0
1, 241532, Tempo, 502428
1, 241560, Tempo, 583544
1, 241560, Note_on_c, 0, 74, 36
1, 241560, Note_on_c, 0, 78, 42
1, 241860, Note_on_c, 0, 78, 0
1, 241860, Note_on_c, 0, 74, 0
1, 241920, Tempo, 482664
1, 241920, Note_on_c, 0, 66, 66
1, 241920, Note_on_c, 0, 63, 60
1, 241920, Note_on_c, 0, 50, 51
1, 241920, Note_on_c, 0, 55, 57
1, 241920, Note_on_c, 0, 59, 57
1, 242000, Tempo, 481000
1, 242010, Note_on_c, 0, 63, 0
1, 242010, Note_on_c, 0, 66, 0
1, 242011, Control_c, 0, 64, 127
1, 242040, Note_on_c, 0, 67, 63
1, 242040, Note_on_c, 0, 64, 57
1, 242064, Tempo, 479272
1, 242130, Note_on_c, 0, 64, 0
1, 242130, Note_on_c, 0, 67, 0
1, 242144, Tempo, 477593
1, 242160, Note_on_c, 0, 70, 63
1, 242160, Note_on_c, 0, 66, 63
1, 242212, Tempo, 475926
1, 242250, Note_on_c, 0, 66, 0
1, 242250, Note_on_c, 0, 70, 0
1, 242280, Tempo, 474346
1, 242280, Note_on_c, 0, 55, 0
1, 242280, Note_on_c, 0, 50, 0
1, 242280, Note_on_c, 0, 59, 0
1, 242280, Note_on_c, 0, 71, 72
1, 242280, Note_on_c, 0, 67, 72
1, 242280, Note_on_c, 0, 38, 44
1, 242280, Note_on_c, 0, 50, 47
1, 242300, Control_c, 0, 64, 0
1, 242370, Note_on_c, 0, 67, 0
1, 242370, Note_on_c, 0, 71, 0
1, 242389, Control_c, 0, 64, 127
1, 242400, Note_on_c, 0, 73, 69
1, 242400, Note_on_c, 0, 70, 61
1, 242490, Note_on_c, 0, 70, 0
1, 242490, Note_on_c, 0, 73, 0
1, 242520, Tempo, 505817
1, 242520, Note_on_c, 0, 74, 70
1, 242520, Note_on_c, 0, 71, 70
1, 242610, Note_on_c, 0, 71, 0
1, 242610, Note_on_c, 0, 74, 0
1, 242640, Tempo, 474346
1, 242640, Note_on_c, 0, 38, 0
1, 242640, Note_on_c, 0, 50, 0
1, 242640, Note_on_c, 0, 72, 69
1, 242640, Note_on_c, 0, 75, 79
1, 242640, Note_on_c, 0, 67, 60
1, 242640, Note_on_c, 0, 64, 60
1, 242640, Note_on_c, 0, 57, 53
1, 242646, Control_c, 0, 64, 0
1, 242691, Control_c, 0, 64, 127
1, 242730, Note_on_c, 0, 75, 0
1, 242730, Note_on_c, 0, 72, 0
1, 242760, Note_on_c, 0, 76, 69
1, 242760, Note_on_c, 0, 73, 69
1, 242850, Note_on_c, 0, 73, 0
1, 242850, Note_on_c, 0, 76, 0
1, 242880, Note_on_c, 0, 74, 70
1, 242880, Note_on_c, 0, 71, 70
1, 242970, Note_on_c, 0, 71, 0
1, 242970, Note_on_c, 0, 74, 0
1, 243000, Note_on_c, 0, 64, 0
1, 243000, Note_on_c, 0, 67, 0
1, 243000, Note_on_c, 0, 57, 0
1, 243000, Note_on_c, 0, 73, 69
1, 243000, Note_on_c, 0, 69, 69
1, 243000, Note_on_c, 0, 38, 44
1, 243000, Note_on_c, 0, 50, 47
1, 243017, Control_c, 0, 64, 0
1, 243086, Control_c, 0, 64, 127
1, 243090, Note_on_c, 0, 69, 0
1, 243120, Note_on_c, 0, 68, 66
1, 243210, Note_on_c, 0, 68, 0
1, 243240, Note_on_c, 0, 73, 0
1, 243240, Note_on_c, 0, 71, 63
1, 243240, Note_on_c, 0, 67, 63
1, 243330, Note_on_c, 0, 67, 0
1, 243360, Tempo, 484340
1, 243360, Note_on_c, 0, 50, 0
1, 243360, Note_on_c, 0, 38, 0
1, 243360, Note_on_c, 0, 65, 69
1, 243360, Control_c, 0, 64, 0
1, 243360, Note_on_c, 0, 50, 35
1, 243360, Note_on_c, 0, 57, 40
1, 243360, Note_on_c, 0, 62, 40
1, 243411, Control_c, 0, 64, 127
1, 243450, Note_on_c, 0, 62, 0
1, 243450, Note_on_c, 0, 50, 0
1, 243450, Note_on_c, 0, 57, 0
1, 243450, Note_on_c, 0, 65, 0
1, 243480, Note_on_c, 0, 71, 0
1, 243480, Note_on_c, 0, 69, 65
1, 243480, Note_on_c, 0, 66, 59
1, 243537, Control_c, 0, 64, 0
1, 243570, Note_on_c, 0, 66, 0
1, 243570, Note_on_c, 0, 69, 0
1, 243600, Note_on_c, 0, 68, 63
1, 243690, Note_on_c, 0, 68, 0
1, 243720, Tempo, 474346
1, 243720, Note_on_c, 0, 74, 74
1, 243720, Note_on_c, 0, 69, 74
1, 243720, Note_on_c, 0, 62, 49
1, 243720, Note_on_c, 0, 67, 55
1, 243720, Note_on_c, 0, 64, 55
1, 243789, Control_c, 0, 64, 127
1, 243810, Note_on_c, 0, 69, 0
1, 243840, Note_on_c, 0, 70, 62
1, 243960, Note_on_c, 0, 74, 0
1, 243960, Note_on_c, 0, 73, 66
1, 244050, Note_on_c, 0, 73, 0
1, 244080, Tempo, 491320
1, 244080, Note_on_c, 0, 70, 0
1, 244080, Note_on_c, 0, 67, 0
1, 244080, Note_on_c, 0, 64, 0
1, 244080, Note_on_c, 0, 71, 63
1, 244080, Note_on_c, 0, 66, 45
1, 244084, Control_c, 0, 64, 0
1, 244147, Control_c, 0, 64, 127
1, 244170, Note_on_c, 0, 66, 0
1, 244170, Note_on_c, 0, 71, 0
1, 244200, Note_on_c, 0, 69, 61
1, 244290, Note_on_c, 0, 69, 0
1, 244290, Note_on_c, 0, 62, 0
1, 244320, Tempo, 507743
1, 244320, Note_on_c, 0, 71, 59
1, 244383, Control_c, 0, 64, 0
1, 244410, Note_on_c, 0, 71, 0
1, 244440, Tempo, 575705
1, 244440, Note_on_c, 0, 62, 53
1, 244440, Note_on_c, 0, 66, 61
1, 244440, Note_on_c, 0, 50, 44
1, 244440, Note_on_c, 0, 59, 49
1, 244531, Control_c, 0, 64, 127
1, 244710, Note_on_c, 0, 59, 0
1, 244710, Note_on_c, 0, 50, 0
1, 244710, Note_on_c, 0, 52, 46
1, 244740, Note_on_c, 0, 55, 47
1, 244760, Control_c, 0, 64, 0
1, 244770, Note_on_c, 0, 62, 47
1, 244800, Tempo, 482664
1, 244800, Note_on_c, 0, 66, 0
1, 244800, Note_on_c, 0, 62, 0
1, 244800, Note_on_c, 0, 78, 60
1, 244800, Note_on_c, 0, 75, 53
1, 244800, Note_on_c, 0, 67, 51
1, 244880, Tempo, 481000
1, 244890, Note_on_c, 0, 75, 0
1, 244890, Note_on_c, 0, 78, 0
1, 244891, Control_c, 0, 64, 127
1, 244920, Note_on_c, 0, 79, 56
1, 244920, Note_on_c, 0, 76, 51
1, 244944, Tempo, 479272
1, 245010, Note_on_c, 0, 76, 0
1, 245010, Note_on_c, 0, 79, 0
1, 245024, Tempo, 477593
1, 245040, Note_on_c, 0, 82, 56
1, 245040, Note_on_c, 0, 78, 56
1, 245092, Tempo, 475926
1, 245130, Note_on_c, 0, 78, 0
1, 245130, Note_on_c, 0, 82, 0
1, 245160, Tempo, 474346
1, 245160, Note_on_c, 0, 55, 0
1, 245160, Note_on_c, 0, 62, 0
1, 245160, Note_on_c, 0, 67, 0
1, 245160, Note_on_c, 0, 52, 0
1, 245160, Note_on_c, 0, 83, 64
1, 245160, Note_on_c, 0, 79, 64
1, 245160, Note_on_c, 0, 35, 39
1, 245160, Note_on_c, 0, 47, 43
1, 245174, Control_c, 0, 64, 0
1, 245223, Control_c, 0, 64, 127
1, 245250, Note_on_c, 0, 79, 0
1, 245250, Note_on_c, 0, 83, 0
1, 245280, Note_on_c, 0, 85, 62
1, 245280, Note_on_c, 0, 82, 53
1, 245370, Note_on_c, 0, 82, 0
1, 245370, Note_on_c, 0, 85, 0
1, 245400, Tempo, 505817
1, 245400, Note_on_c, 0, 86, 62
1, 245400, Note_on_c, 0, 83, 62
1, 245430, Note_on_c, 0, 52, 44
1, 245460, Note_on_c, 0, 55, 44
1, 245490, Note_on_c, 0, 83, 0
1, 245490, Note_on_c, 0, 86, 0
1, 245490, Note_on_c, 0, 62, 44
1, 245520, Tempo, 474346
1, 245520, Note_on_c, 0, 47, 0
1, 245520, Note_on_c, 0, 35, 0
1, 245520, Note_on_c, 0, 81, 70
1, 245520, Note_on_c, 0, 67, 53
1, 245526, Control_c, 0, 64, 0
1, 245571, Control_c, 0, 64, 127
1, 245610, Note_on_c, 0, 81, 0
1, 245640, Note_on_c, 0, 86, 62
1, 245640, Note_on_c, 0, 82, 62
1, 245730, Note_on_c, 0, 82, 0
1, 245730, Note_on_c, 0, 86, 0
1, 245760, Note_on_c, 0, 85, 62
1, 245850, Note_on_c, 0, 85, 0
1, 245880, Note_on_c, 0, 55, 0
1, 245880, Note_on_c, 0, 62, 0
1, 245880, Note_on_c, 0, 52, 0
1, 245880, Note_on_c, 0, 67, 0
1, 245880, Note_on_c, 0, 91, 65
1, 245880, Note_on_c, 0, 86, 59
1, 245880, Note_on_c, 0, 34, 39
1, 245880, Note_on_c, 0, 46, 43
1, 245884, Control_c, 0, 64, 0
1, 245965, Control_c, 0, 64, 127
1, 245970, Note_on_c, 0, 86, 0
1, 246000, Note_on_c, 0, 90, 65
1, 246090, Note_on_c, 0, 90, 0
1, 246120, Note_on_c, 0, 91, 0
1, 246120, Note_on_c, 0, 94, 65
1, 246120, Note_on_c, 0, 91, 65
1, 246150, Tempo, 587199
1, 246150, Note_on_c, 0, 52, 42
1, 246166, Control_c, 0, 64, 0
1, 246180, Note_on_c, 0, 57, 43
1, 246210, Note_on_c, 0, 91, 0
1, 246210, Note_on_c, 0, 94, 0
1, 246210, Note_on_c, 0, 61, 43
1, 246240, Tempo, 508431
1, 246240, Note_on_c, 0, 46, 0
1, 246240, Note_on_c, 0, 34, 0
1, 246240, Note_on_c, 0, 85, 72
1, 246240, Note_on_c, 0, 67, 65
1, 246360, Note_on_c, 0, 85, 0
1, 246360, Note_on_c, 0, 94, 45
1, 246360, Note_on_c, 0, 91, 56
1, 246480, Note_on_c, 0, 91, 0
1, 246480, Note_on_c, 0, 94, 0
1, 246480, Note_on_c, 0, 90, 56
1, 246600, Tempo, 504032
1, 246600, Note_on_c, 0, 90, 0
1, 246600, Note_on_c, 0, 57, 0
1, 246600, Note_on_c, 0, 61, 0
1, 246600, Note_on_c, 0, 52, 0
1, 246600, Note_on_c, 0, 67, 0
1, 246600, Note_on_c, 0, 94, 45
1, 246600, Note_on_c, 0, 91, 54
1, 246600, Control_c, 0, 64, 127
1, 246600, Note_on_c, 0, 33, 54
1, 246720, Note_on_c, 0, 91, 0
1, 246720, Note_on_c, 0, 94, 0
1, 246720, Note_on_c, 0, 85, 60
1, 246760, Tempo, 501882
1, 246780, Note_on_c, 0, 45, 53
1, 246840, Note_on_c, 0, 85, 0
1, 246840, Note_on_c, 0, 94, 44
1, 246840, Note_on_c, 0, 91, 53
1, 246920, Tempo, 499750
1, 246960, Note_on_c, 0, 91, 0
1, 246960, Note_on_c, 0, 94, 0
1, 246960, Note_on_c, 0, 45, 0
1, 246960, Note_on_c, 0, 90, 53
1, 246960, Note_on_c, 0, 49, 52
1, 247080, Tempo, 497636
1, 247080, Note_on_c, 0, 90, 0
1, 247080, Note_on_c, 0, 33, 0
1, 247080, Note_on_c, 0, 94, 44
1, 247080, Note_on_c, 0, 91, 53
1, 247136, Control_c, 0, 64, 0
1, 247140, Note_on_c, 0, 49, 0
1, 247140, Note_on_c, 0, 52, 52
1, 247172, Control_c, 0, 64, 127
1, 247200, Note_on_c, 0, 91, 0
1, 247200, Note_on_c, 0, 94, 0
1, 247200, Note_on_c, 0, 85, 57
1, 247220, Tempo, 495540
1, 247320, Note_on_c, 0, 85, 0
1, 247320, Note_on_c, 0, 52, 0
1, 247320, Note_on_c, 0, 94, 42
1, 247320, Note_on_c, 0, 91, 50
1, 247320, Note_on_c, 0, 55, 51
1, 247380, Tempo, 493462
1, 247440, Note_on_c, 0, 91, 0
1, 247440, Note_on_c, 0, 94, 0
1, 247440, Note_on_c, 0, 90, 50
1, 247500, Note_on_c, 0, 55, 0
1, 247500, Note_on_c, 0, 57, 50
1, 247540, Tempo, 491400
1, 247560, Note_on_c, 0, 90, 0
1, 247560, Note_on_c, 0, 94, 43
1, 247560, Note_on_c, 0, 91, 51
1, 247624, Control_c, 0, 64, 0
1, 247680, Tempo, 489356
1, 247680, Note_on_c, 0, 91, 0
1, 247680, Note_on_c, 0, 94, 0
1, 247680, Note_on_c, 0, 57, 0
1, 247680, Note_on_c, 0, 85, 49
1, 247680, Note_on_c, 0, 61, 49
1, 247705, Control_c, 0, 64, 127
1, 247800, Note_on_c, 0, 85, 0
1, 247800, Note_on_c, 0, 94, 36
1, 247800, Note_on_c, 0, 91, 44
1, 247860, Note_on_c, 0, 61, 0
1, 247860, Note_on_c, 0, 64, 45
1, 247920, Note_on_c, 0, 91, 0
1, 247920, Note_on_c, 0, 94, 0
1, 247920, Note_on_c, 0, 90, 44
1, 248036, Control_c, 0, 64, 0
1, 248040, Note_on_c, 0, 90, 0
1, 248040, Note_on_c, 0, 64, 0
1, 248040, Note_on_c, 0, 94, 36
1, 248040, Note_on_c, 0, 91, 43
1, 248040, Note_on_c, 0, 67, 45
1, 248082, Control_c, 0, 64, 127
1, 248160, Note_on_c, 0, 91, 0
1, 248160, Note_on_c, 0, 94, 0
1, 248160, Note_on_c, 0, 85, 45
1, 248220, Note_on_c, 0, 67, 0
1, 248220, Note_on_c, 0, 73, 44
1, 248280, Note_on_c, 0, 85, 0
1, 248280, Note_on_c, 0, 94, 35
1, 248280, Note_on_c, 0, 91, 42
1, 248400, Tempo, 495540
1, 248400, Note_on_c, 0, 91, 0
1, 248400, Note_on_c, 0, 94, 0
1, 248400, Note_on_c, 0, 73, 0
1, 248400, Note_on_c, 0, 90, 42
1, 248400, Note_on_c, 0, 76, 44
1, 248440, Tempo, 497636
1, 248480, Tempo, 499750
1, 248500, Tempo, 501882
1, 248520, Note_on_c, 0, 90, 0
1, 248520, Note_on_c, 0, 94, 35
1, 248520, Note_on_c, 0, 91, 42
1, 248540, Tempo, 504032
1, 248560, Tempo, 506244
1, 248580, Note_on_c, 0, 76, 0
1, 248580, Note_on_c, 0, 79, 44
1, 248600, Tempo, 508431
1, 248620, Tempo, 510638
1, 248640, Note_on_c, 0, 91, 0
1, 248640, Note_on_c, 0, 94, 0
1, 248640, Note_on_c, 0, 85, 44
1, 248660, Tempo, 512864
1, 248680, Tempo, 515110
1, 248720, Tempo, 517375
1, 248732, Control_c, 0, 64, 0
1, 248740, Tempo, 519660
1, 248760, Tempo, 536289
1, 248760, Note_on_c, 0, 85, 0
1, 248760, Note_on_c, 0, 79, 0
1, 248760, Note_on_c, 0, 94, 32
1, 248760, Note_on_c, 0, 91, 39
1, 248760, Note_on_c, 0, 82, 43
1, 248774, Control_c, 0, 64, 127
1, 248880, Note_on_c, 0, 91, 0
1, 248880, Note_on_c, 0, 94, 0
1, 248880, Note_on_c, 0, 90, 39
1, 249000, Note_on_c, 0, 90, 0
1, 249000, Note_on_c, 0, 94, 31
1, 249000, Note_on_c, 0, 91, 37
1, 249120, Tempo, 508431
1, 249120, Note_on_c, 0, 91, 0
1, 249120, Note_on_c, 0, 94, 0
1, 249120, Note_on_c, 0, 82, 0
1, 249120, Note_on_c, 0, 84, 44
1, 249120, Control_c, 0, 64, 0
1, 249120, Note_on_c, 0, 52, 40
1, 249120, Note_on_c, 0, 58, 40
1, 249120, Note_on_c, 0, 60, 40
1, 249120, Note_on_c, 0, 67, 40
1, 249240, Note_on_c, 0, 84, 0
1, 249240, Note_on_c, 0, 94, 31
1, 249240, Note_on_c, 0, 91, 37
1, 249360, Note_on_c, 0, 91, 0
1, 249360, Note_on_c, 0, 94, 0
1, 249360, Note_on_c, 0, 90, 37
1, 249480, Tempo, 508431
1, 249480, Note_on_c, 0, 90, 0
1, 249480, Note_on_c, 0, 60, 0
1, 249480, Note_on_c, 0, 52, 0
1, 249480, Note_on_c, 0, 58, 0
1, 249480, Note_on_c, 0, 67, 0
1, 249480, Note_on_c, 0, 94, 32
1, 249480, Note_on_c, 0, 91, 39
1, 249480, Control_c, 0, 64, 127
1, 249480, Note_on_c, 0, 36, 40
1, 249600, Tempo, 506244
1, 249600, Note_on_c, 0, 91, 0
1, 249600, Note_on_c, 0, 94, 0
1, 249600, Note_on_c, 0, 84, 44
1, 249660, Note_on_c, 0, 48, 40
1, 249700, Tempo, 504032
1, 249720, Note_on_c, 0, 84, 0
1, 249720, Note_on_c, 0, 94, 30
1, 249720, Note_on_c, 0, 91, 36
1, 249820, Tempo, 501882
1, 249840, Note_on_c, 0, 91, 0
1, 249840, Note_on_c, 0, 94, 0
1, 249840, Note_on_c, 0, 48, 0
1, 249840, Note_on_c, 0, 90, 36
1, 249840, Note_on_c, 0, 52, 40
1, 249920, Tempo, 499750
1, 249960, Note_on_c, 0, 90, 0
1, 249960, Note_on_c, 0, 36, 0
1, 249960, Note_on_c, 0, 94, 31
1, 249960, Note_on_c, 0, 91, 37
1, 250016, Control_c, 0, 64, 0
1, 250020, Tempo, 497636
1, 250020, Note_on_c, 0, 52, 0
1, 250020, Note_on_c, 0, 55, 40
1, 250052, Control_c, 0, 64, 127
1, 250080, Note_on_c, 0, 91, 0
1, 250080, Note_on_c, 0, 94, 0
1, 250080, Note_on_c, 0, 84, 44
1, 250140, Tempo, 495540
1, 250200, Note_on_c, 0, 84, 0
1, 250200, Note_on_c, 0, 55, 0
1, 250200, Note_on_c, 0, 94, 31
1, 250200, Note_on_c, 0, 91, 37
1, 250200, Note_on_c, 0, 58, 40
1, 250240, Tempo, 493462
1, 250320, Note_on_c, 0, 91, 0
1, 250320, Note_on_c, 0, 94, 0
1, 250320, Note_on_c, 0, 90, 37
1, 250360, Tempo, 491400
1, 250380, Note_on_c, 0, 58, 0
1, 250380, Note_on_c, 0, 60, 40
1, 250440, Note_on_c, 0, 90, 0
1, 250440, Note_on_c, 0, 94, 32
1, 250440, Note_on_c, 0, 91, 39
1, 250460, Tempo, 489356
1, 250504, Control_c, 0, 64, 0
1, 250560, Tempo, 487329
1, 250560, Note_on_c, 0, 91, 0
1, 250560, Note_on_c, 0, 94, 0
1, 250560, Note_on_c, 0, 60, 0
1, 250560, Note_on_c, 0, 84, 44
1, 250560, Note_on_c, 0, 64, 40
1, 250585, Control_c, 0, 64, 127
1, 250680, Note_on_c, 0, 84, 0
1, 250680, Note_on_c, 0, 94, 30
1, 250680, Note_on_c, 0, 91, 36
1, 250740, Note_on_c, 0, 64, 0
1, 250740, Note_on_c, 0, 67, 40
1, 250800, Note_on_c, 0, 91, 0
1, 250800, Note_on_c, 0, 94, 0
1, 250800, Note_on_c, 0, 90, 36
1, 250916, Control_c, 0, 64, 0
1, 250920, Note_on_c, 0, 90, 0
1, 250920, Note_on_c, 0, 67, 0
1, 250920, Note_on_c, 0, 94, 29
1, 250920, Note_on_c, 0, 91, 36
1, 250920, Note_on_c, 0, 70, 40
1, 250962, Control_c, 0, 64, 127
1, 251040, Note_on_c, 0, 91, 0
1, 251040, Note_on_c, 0, 94, 0
1, 251040, Note_on_c, 0, 84, 42
1, 251100, Note_on_c, 0, 70, 0
1, 251100, Note_on_c, 0, 72, 40
1, 251160, Note_on_c, 0, 84, 0
1, 251160, Note_on_c, 0, 94, 29
1, 251160, Note_on_c, 0, 91, 36
1, 251280, Tempo, 495540
1, 251280, Note_on_c, 0, 91, 0
1, 251280, Note_on_c, 0, 94, 0
1, 251280, Note_on_c, 0, 72, 0
1, 251280, Note_on_c, 0, 90, 35
1, 251280, Note_on_c, 0, 76, 40
1, 251320, Tempo, 497636
1, 251340, Tempo, 499750
1, 251380, Tempo, 501882
1, 251400, Tempo, 504032
1, 251400, Note_on_c, 0, 90, 0
1, 251400, Note_on_c, 0, 94, 27
1, 251400, Note_on_c, 0, 91, 35
1, 251440, Tempo, 506244
1, 251460, Tempo, 508431
1, 251460, Note_on_c, 0, 76, 0
1, 251460, Note_on_c, 0, 79, 40
1, 251480, Tempo, 510638
1, 251520, Tempo, 512864
1, 251520, Note_on_c, 0, 91, 0
1, 251520, Note_on_c, 0, 94, 0
1, 251520, Note_on_c, 0, 84, 41
1, 251540, Tempo, 515110
1, 251580, Tempo, 517375
1, 251600, Tempo, 519660
1, 251612, Control_c, 0, 64, 0
1, 251620, Tempo, 521966
1, 251640, Tempo, 533855
1, 251640, Note_on_c, 0, 84, 0
1, 251640, Note_on_c, 0, 79, 0
1, 251640, Note_on_c, 0, 94, 29
1, 251640, Note_on_c, 0, 91, 35
1, 251640, Note_on_c, 0, 82, 40
1, 251654, Control_c, 0, 64, 127
1, 251760, Note_on_c, 0, 91, 0
1, 251760, Note_on_c, 0, 94, 0
1, 251760, Note_on_c, 0, 90, 35
1, 251880, Note_on_c, 0, 90, 0
1, 251880, Note_on_c, 0, 94, 27
1, 251880, Note_on_c, 0, 91, 33
1, 251880, Control_c, 0, 64, 0
1, 251910, Note_on_c, 0, 82, 0
1, 251910, Note_on_c, 0, 51, 36
1, 251940, Note_on_c, 0, 56, 36
1, 251970, Note_on_c, 0, 60, 36
1, 252000, Key_signature, -5, "major"
1, 252000, Tempo, 508431
1, 252000, Note_on_c, 0, 91, 0
1, 252000, Note_on_c, 0, 94, 0
1, 252000, Note_on_c, 0, 84, 37
1, 252000, Note_on_c, 0, 66, 36
1, 252120, Note_on_c, 0, 84, 0
1, 252120, Note_on_c, 0, 94, 27
1, 252120, Note_on_c, 0, 90, 33
1, 252240, Note_on_c, 0, 90, 0
1, 252240, Note_on_c, 0, 94, 0
1, 252240, Note_on_c, 0, 89, 33
1, 252360, Tempo, 506244
1, 252360, Note_on_c, 0, 89, 0
1, 252360, Note_on_c, 0, 56, 0
1, 252360, Note_on_c, 0, 60, 0
1, 252360, Note_on_c, 0, 51, 0
1, 252360, Note_on_c, 0, 66, 0
1, 252360, Note_on_c, 0, 94, 27
1, 252360, Note_on_c, 0, 90, 35
1, 252360, Control_c, 0, 64, 127
1, 252360, Note_on_c, 0, 32, 36
1, 252480, Tempo, 504032
1, 252480, Note_on_c, 0, 90, 0
1, 252480, Note_on_c, 0, 94, 0
1, 252480, Note_on_c, 0, 84, 37
1, 252540, Note_on_c, 0, 44, 36
1, 252600, Tempo, 501882
1, 252600, Note_on_c, 0, 84, 0
1, 252600, Note_on_c, 0, 94, 27
1, 252600, Note_on_c, 0, 90, 32
1, 252720, Tempo, 499750
1, 252720, Note_on_c, 0, 90, 0
1, 252720, Note_on_c, 0, 94, 0
1, 252720, Note_on_c, 0, 44, 0
1, 252720, Note_on_c, 0, 89, 32
1, 252720, Note_on_c, 0, 48, 36
1, 252840, Tempo, 497636
1, 252840, Note_on_c, 0, 89, 0
1, 252840, Note_on_c, 0, 32, 0
1, 252840, Note_on_c, 0, 94, 27
1, 252840, Note_on_c, 0, 90, 33
1, 252900, Note_on_c, 0, 48, 0
1, 252900, Note_on_c, 0, 51, 36
1, 252940, Tempo, 495540
1, 252960, Note_on_c, 0, 90, 0
1, 252960, Note_on_c, 0, 94, 0
1, 252960, Note_on_c, 0, 84, 37
1, 253060, Tempo, 493462
1, 253080, Note_on_c, 0, 84, 0
1, 253080, Note_on_c, 0, 51, 0
1, 253080, Note_on_c, 0, 94, 27
1, 253080, Note_on_c, 0, 90, 33
1, 253080, Note_on_c, 0, 54, 39
1, 253180, Tempo, 491400
1, 253200, Note_on_c, 0, 90, 0
1, 253200, Note_on_c, 0, 94, 0
1, 253200, Note_on_c, 0, 89, 33
1, 253260, Note_on_c, 0, 54, 0
1, 253260, Note_on_c, 0, 56, 43
1, 253300, Tempo, 489356
1, 253320, Note_on_c, 0, 89, 0
1, 253320, Note_on_c, 0, 94, 27
1, 253320, Note_on_c, 0, 90, 35
1, 253420, Tempo, 487329
1, 253440, Note_on_c, 0, 90, 0
1, 253440, Note_on_c, 0, 94, 0
1, 253440, Note_on_c, 0, 56, 0
1, 253440, Note_on_c, 0, 84, 37
1, 253440, Note_on_c, 0, 60, 44
1, 253520, Tempo, 485319
1, 253560, Note_on_c, 0, 84, 0
1, 253560, Note_on_c, 0, 94, 27
1, 253560, Note_on_c, 0, 90, 32
1, 253620, Note_on_c, 0, 60, 0
1, 253620, Note_on_c, 0, 63, 42
1, 253680, Note_on_c, 0, 90, 0
1, 253680, Note_on_c, 0, 94, 0
1, 253680, Note_on_c, 0, 89, 32
1, 253800, Note_on_c, 0, 89, 0
1, 253800, Note_on_c, 0, 63, 0
1, 253800, Note_on_c, 0, 94, 27
1, 253800, Note_on_c, 0, 90, 32
1, 253800, Note_on_c, 0, 66, 39
1, 253920, Note_on_c, 0, 90, 0
1, 253920, Note_on_c, 0, 94, 0
1, 253920, Note_on_c, 0, 84, 37
1, 253980, Note_on_c, 0, 66, 0
1, 253980, Note_on_c, 0, 68, 36
1, 254040, Note_on_c, 0, 84, 0
1, 254040, Note_on_c, 0, 94, 27
1, 254040, Note_on_c, 0, 90, 33
1, 254160, Tempo, 495540
1, 254160, Note_on_c, 0, 90, 0
1, 254160, Note_on_c, 0, 94, 0
1, 254160, Note_on_c, 0, 68, 0
1, 254160, Note_on_c, 0, 89, 33
1, 254160, Note_on_c, 0, 72, 36
1, 254200, Tempo, 497636
1, 254220, Tempo, 499750
1, 254260, Tempo, 501882
1, 254280, Tempo, 504032
1, 254280, Note_on_c, 0, 89, 0
1, 254280, Note_on_c, 0, 94, 27
1, 254280, Note_on_c, 0, 90, 33
1, 254320, Tempo, 506244
1, 254340, Tempo, 508431
1, 254340, Note_on_c, 0, 72, 0
1, 254340, Note_on_c, 0, 75, 36
1, 254360, Tempo, 510638
1, 254400, Tempo, 512864
1, 254400, Note_on_c, 0, 90, 0
1, 254400, Note_on_c, 0, 94, 0
1, 254400, Note_on_c, 0, 84, 39
1, 254420, Tempo, 515110
1, 254460, Tempo, 517375
1, 254480, Tempo, 519660
1, 254500, Tempo, 521966
1, 254520, Tempo, 533855
1, 254520, Note_on_c, 0, 84, 0
1, 254520, Note_on_c, 0, 75, 0
1, 254520, Note_on_c, 0, 94, 27
1, 254520, Note_on_c, 0, 90, 35
1, 254520, Note_on_c, 0, 78, 36
1, 254640, Note_on_c, 0, 90, 0
1, 254640, Note_on_c, 0, 94, 0
1, 254640, Note_on_c, 0, 89, 35
1, 254700, Note_on_c, 0, 78, 0
1, 254700, Note_on_c, 0, 80, 36
1, 254760, Note_on_c, 0, 89, 0
1, 254760, Note_on_c, 0, 94, 27
1, 254760, Note_on_c, 0, 90, 33
1, 254880, Tempo, 510638
1, 254880, Note_on_c, 0, 90, 0
1, 254880, Note_on_c, 0, 94, 0
1, 254880, Note_on_c, 0, 80, 0
1, 254880, Note_on_c, 0, 89, 45
1, 254880, Control_c, 0, 64, 0
1, 254880, Note_on_c, 0, 81, 33
1, 255000, Note_on_c, 0, 81, 0
1, 255000, Note_on_c, 0, 89, 0
1, 255000, Note_on_c, 0, 93, 51
1, 255000, Note_on_c, 0, 90, 43
1, 255000, Control_c, 0, 64, 127
1, 255000, Note_on_c, 0, 84, 41
1, 255020, Tempo, 508431
1, 255120, Note_on_c, 0, 84, 0
1, 255120, Note_on_c, 0, 90, 0
1, 255120, Note_on_c, 0, 93, 0
1, 255120, Note_on_c, 0, 86, 51
1, 255120, Note_on_c, 0, 78, 34
1, 255160, Tempo, 506244
1, 255240, Note_on_c, 0, 78, 0
1, 255240, Note_on_c, 0, 86, 0
1, 255240, Note_on_c, 0, 90, 51
1, 255240, Note_on_c, 0, 87, 43
1, 255240, Note_on_c, 0, 81, 41
1, 255300, Tempo, 504032
1, 255360, Note_on_c, 0, 81, 0
1, 255360, Note_on_c, 0, 87, 0
1, 255360, Note_on_c, 0, 90, 0
1, 255360, Note_on_c, 0, 83, 51
1, 255360, Note_on_c, 0, 75, 33
1, 255440, Tempo, 501882
1, 255480, Note_on_c, 0, 75, 0
1, 255480, Note_on_c, 0, 83, 0
1, 255480, Note_on_c, 0, 87, 51
1, 255480, Note_on_c, 0, 84, 43
1, 255480, Note_on_c, 0, 78, 41
1, 255486, Control_c, 0, 64, 0
1, 255505, Control_c, 0, 64, 127
1, 255580, Tempo, 499750
1, 255600, Note_on_c, 0, 78, 0
1, 255600, Note_on_c, 0, 84, 0
1, 255600, Note_on_c, 0, 87, 0
1, 255600, Note_on_c, 0, 80, 51
1, 255600, Note_on_c, 0, 72, 34
1, 255720, Tempo, 497636
1, 255720, Note_on_c, 0, 72, 0
1, 255720, Note_on_c, 0, 80, 0
1, 255720, Note_on_c, 0, 84, 51
1, 255720, Note_on_c, 0, 81, 43
1, 255720, Note_on_c, 0, 75, 41
1, 255840, Note_on_c, 0, 75, 0
1, 255840, Note_on_c, 0, 81, 0
1, 255840, Note_on_c, 0, 84, 0
1, 255840, Note_on_c, 0, 77, 51
1, 255840, Note_on_c, 0, 69, 34
1, 255960, Note_on_c, 0, 69, 0
1, 255960, Note_on_c, 0, 77, 0
1, 255960, Note_on_c, 0, 81, 51
1, 255960, Note_on_c, 0, 78, 43
1, 255960, Note_on_c, 0, 72, 41
1, 255987, Control_c, 0, 64, 0
1, 256030, Control_c, 0, 64, 127
1, 256080, Note_on_c, 0, 72, 0
1, 256080, Note_on_c, 0, 78, 0
1, 256080, Note_on_c, 0, 81, 0
1, 256080, Note_on_c, 0, 74, 51
1, 256080, Note_on_c, 0, 66, 34
1, 256200, Note_on_c, 0, 66, 0
1, 256200, Note_on_c, 0, 74, 0
1, 256200, Note_on_c, 0, 78, 51
1, 256200, Note_on_c, 0, 75, 43
1, 256200, Note_on_c, 0, 69, 41
1, 256320, Note_on_c, 0, 69, 0
1, 256320, Note_on_c, 0, 75, 0
1, 256320, Note_on_c, 0, 78, 0
1, 256320, Note_on_c, 0, 71, 51
1, 256320, Note_on_c, 0, 63, 34
1, 256440, Note_on_c, 0, 63, 0
1, 256440, Note_on_c, 0, 71, 0
1, 256440, Note_on_c, 0, 75, 51
1, 256440, Note_on_c, 0, 72, 43
1, 256440, Note_on_c, 0, 66, 41
1, 256445, Control_c, 0, 64, 0
1, 256475, Control_c, 0, 64, 127
1, 256560, Note_on_c, 0, 66, 0
1, 256560, Note_on_c, 0, 72, 0
1, 256560, Note_on_c, 0, 75, 0
1, 256560, Note_on_c, 0, 68, 51
1, 256560, Note_on_c, 0, 60, 34
1, 256680, Note_on_c, 0, 60, 0
1, 256680, Note_on_c, 0, 68, 0
1, 256680, Note_on_c, 0, 72, 51
1, 256680, Note_on_c, 0, 69, 43
1, 256680, Note_on_c, 0, 63, 42
1, 256800, Note_on_c, 0, 63, 0
1, 256800, Note_on_c, 0, 69, 0
1, 256800, Note_on_c, 0, 72, 0
1, 256800, Note_on_c, 0, 65, 51
1, 256800, Note_on_c, 0, 57, 35
1, 256920, Note_on_c, 0, 57, 0
1, 256920, Note_on_c, 0, 65, 0
1, 256920, Note_on_c, 0, 70, 51
1, 256920, Note_on_c, 0, 66, 43
1, 256920, Control_c, 0, 64, 0
1, 256920, Note_on_c, 0, 60, 42
1, 256961, Control_c, 0, 64, 127
1, 257040, Note_on_c, 0, 60, 0
1, 257040, Note_on_c, 0, 66, 0
1, 257040, Note_on_c, 0, 70, 0
1, 257040, Note_on_c, 0, 62, 51
1, 257040, Note_on_c, 0, 54, 33
1, 257160, Note_on_c, 0, 54, 0
1, 257160, Note_on_c, 0, 62, 0
1, 257160, Note_on_c, 0, 66, 51
1, 257160, Note_on_c, 0, 63, 43
1, 257160, Note_on_c, 0, 57, 42
1, 257280, Note_on_c, 0, 57, 0
1, 257280, Note_on_c, 0, 63, 0
1, 257280, Note_on_c, 0, 66, 0
1, 257280, Note_on_c, 0, 59, 51
1, 257280, Note_on_c, 0, 51, 33
1, 257400, Note_on_c, 0, 51, 0
1, 257400, Note_on_c, 0, 59, 0
1, 257400, Note_on_c, 0, 60, 51
1, 257400, Note_on_c, 0, 56, 43
1, 257400, Note_on_c, 0, 54, 42
1, 257410, Control_c, 0, 64, 0
1, 257455, Control_c, 0, 64, 127
1, 257520, Note_on_c, 0, 54, 0
1, 257520, Note_on_c, 0, 56, 0
1, 257520, Note_on_c, 0, 60, 0
1, 257520, Note_on_c, 0, 56, 51
1, 257520, Note_on_c, 0, 48, 35
1, 257640, Note_on_c, 0, 48, 0
1, 257640, Note_on_c, 0, 56, 0
1, 257640, Note_on_c, 0, 60, 51
1, 257640, Note_on_c, 0, 57, 43
1, 257640, Note_on_c, 0, 51, 43
1, 257760, Note_on_c, 0, 51, 0
1, 257760, Note_on_c, 0, 57, 0
1, 257760, Note_on_c, 0, 60, 0
1, 257760, Note_on_c, 0, 53, 51
1, 257760, Note_on_c, 0, 45, 36
1, 257880, Note_on_c, 0, 45, 0
1, 257880, Note_on_c, 0, 53, 0
1, 257880, Note_on_c, 0, 57, 51
1, 257880, Note_on_c, 0, 54, 43
1, 257880, Note_on_c, 0, 48, 44
1, 257900, Control_c, 0, 64, 0
1, 257960, Control_c, 0, 64, 127
1, 258000, Note_on_c, 0, 48, 0
1, 258000, Note_on_c, 0, 54, 0
1, 258000, Note_on_c, 0, 57, 0
1, 258000, Note_on_c, 0, 50, 51
1, 258000, Note_on_c, 0, 42, 36
1, 258120, Note_on_c, 0, 42, 0
1, 258120, Note_on_c, 0, 50, 0
1, 258120, Note_on_c, 0, 54, 51
1, 258120, Note_on_c, 0, 51, 43
1, 258120, Note_on_c, 0, 45, 44
1, 258240, Note_on_c, 0, 45, 0
1, 258240, Note_on_c, 0, 51, 0
1, 258240, Note_on_c, 0, 54, 0
1, 258240, Note_on_c, 0, 47, 51
1, 258240, Note_on_c, 0, 39, 35
1, 258360, Note_on_c, 0, 39, 0
1, 258360, Note_on_c, 0, 47, 0
1, 258360, Note_on_c, 0, 51, 51
1, 258360, Note_on_c, 0, 48, 43
1, 258360, Note_on_c, 0, 42, 44
1, 258385, Control_c, 0, 64, 0
1, 258405, Control_c, 0, 64, 127
1, 258480, Tempo, 495540
1, 258480, Note_on_c, 0, 42, 0
1, 258480, Note_on_c, 0, 48, 0
1, 258480, Note_on_c, 0, 51, 0
1, 258480, Note_on_c, 0, 44, 51
1, 258480, Note_on_c, 0, 36, 34
1, 258540, Tempo, 497636
1, 258600, Tempo, 499750
1, 258600, Note_on_c, 0, 36, 0
1, 258600, Note_on_c, 0, 44, 0
1, 258600, Note_on_c, 0, 48, 51
1, 258600, Note_on_c, 0, 45, 43
1, 258600, Note_on_c, 0, 39, 44
1, 258660, Tempo, 501882
1, 258720, Tempo, 504032
1, 258720, Note_on_c, 0, 39, 0
1, 258720, Note_on_c, 0, 45, 0
1, 258720, Note_on_c, 0, 48, 0
1, 258720, Note_on_c, 0, 41, 51
1, 258720, Note_on_c, 0, 33, 35
1, 258760, Tempo, 506244
1, 258820, Tempo, 508431
1, 258840, Note_on_c, 0, 33, 0
1, 258840, Note_on_c, 0, 41, 0
1, 258840, Note_on_c, 0, 46, 51
1, 258840, Note_on_c, 0, 42, 43
1, 258840, Note_on_c, 0, 36, 44
1, 258880, Tempo, 510638
1, 258940, Tempo, 512864
1, 258960, Note_on_c, 0, 36, 0
1, 258960, Note_on_c, 0, 42, 0
1, 258960, Note_on_c, 0, 46, 0
1, 258960, Note_on_c, 0, 38, 51
1, 258960, Note_on_c, 0, 30, 34
1, 258980, Tempo, 515110
1, 258981, Control_c, 0, 64, 0
1, 259019, Control_c, 0, 64, 127
1, 259040, Tempo, 517375
1, 259080, Note_on_c, 0, 30, 0
1, 259080, Note_on_c, 0, 38, 0
1, 259080, Note_on_c, 0, 42, 50
1, 259080, Note_on_c, 0, 39, 42
1, 259080, Note_on_c, 0, 33, 44
1, 259100, Tempo, 519660
1, 259160, Tempo, 521966
1, 259200, Tempo, 524292
1, 259200, Note_on_c, 0, 33, 0
1, 259200, Note_on_c, 0, 39, 0
1, 259200, Note_on_c, 0, 42, 0
1, 259200, Control_c, 0, 64, 0
1, 259200, Note_on_c, 0, 32, 30
1, 259269, Control_c, 0, 64, 127
1, 259320, Note_on_c, 0, 32, 0
1, 259320, Note_on_c, 0, 31, 30
1, 259440, Note_on_c, 0, 31, 0
1, 259440, Note_on_c, 0, 32, 30
1, 259560, Note_on_c, 0, 32, 0
1, 259560, Note_on_c, 0, 44, 45
1, 259586, Control_c, 0, 64, 0
1, 259652, Control_c, 0, 64, 127
1, 259680, Note_on_c, 0, 32, 31
1, 259800, Note_on_c, 0, 32, 0
1, 259800, Note_on_c, 0, 31, 31
1, 259920, Note_on_c, 0, 31, 0
1, 259920, Note_on_c, 0, 32, 31
1, 260040, Note_on_c, 0, 32, 0
1, 260040, Note_on_c, 0, 31, 30
1, 260160, Note_on_c, 0, 31, 0
1, 260160, Note_on_c, 0, 32, 30
1, 260280, Note_on_c, 0, 32, 0
1, 260280, Note_on_c, 0, 44, 0
1, 260280, Note_on_c, 0, 44, 45
1, 260301, Control_c, 0, 64, 0
1, 260377, Control_c, 0, 64, 127
1, 260400, Note_on_c, 0, 32, 30
1, 260520, Note_on_c, 0, 32, 0
1, 260520, Note_on_c, 0, 31, 30
1, 260640, Note_on_c, 0, 31, 0
1, 260640, Note_on_c, 0, 32, 30
1, 260760, Note_on_c, 0, 32, 0
1, 260760, Note_on_c, 0, 31, 30
1, 260880, Note_on_c, 0, 31, 0
1, 260880, Note_on_c, 0, 32, 30
1, 261000, Note_on_c, 0, 32, 0
1, 261000, Note_on_c, 0, 44, 0
1, 261000, Note_on_c, 0, 44, 45
1, 261020, Control_c, 0, 64, 0
1, 261069, Control_c, 0, 64, 127
1, 261120, Note_on_c, 0, 32, 30
1, 261240, Note_on_c, 0, 32, 0
1, 261240, Note_on_c, 0, 31, 30
1, 261360, Note_on_c, 0, 31, 0
1, 261360, Note_on_c, 0, 32, 30
1, 261480, Note_on_c, 0, 32, 0
1, 261480, Note_on_c, 0, 31, 30
1, 261600, Note_on_c, 0, 31, 0
1, 261600, Note_on_c, 0, 32, 30
1, 261720, Note_on_c, 0, 32, 0
1, 261720, Note_on_c, 0, 44, 0
1, 261720, Note_on_c, 0, 44, 45
1, 261729, Control_c, 0, 64, 0
1, 261777, Control_c, 0, 64, 127
1, 261840, Note_on_c, 0, 32, 30
1, 261960, Note_on_c, 0, 32, 0
1, 261960, Note_on_c, 0, 31, 30
1, 262080, Tempo, 528821
1, 262080, Note_on_c, 0, 31, 0
1, 262080, Note_on_c, 0, 60, 56
1, 262080, Note_on_c, 0, 51, 46
1, 262080, Note_on_c, 0, 54, 46
1, 262080, Note_on_c, 0, 32, 30
1, 262200, Note_on_c, 0, 32, 0
1, 262200, Note_on_c, 0, 31, 30
1, 262320, Tempo, 515331
1, 262320, Note_on_c, 0, 31, 0
1, 262320, Note_on_c, 0, 60, 0
1, 262320, Note_on_c, 0, 60, 51
1, 262320, Note_on_c, 0, 32, 30
1, 262440, Tempo, 510638
1, 262440, Note_on_c, 0, 32, 0
1, 262440, Note_on_c, 0, 44, 0
1, 262440, Note_on_c, 0, 60, 0
1, 262440, Note_on_c, 0, 58, 56
1, 262440, Note_on_c, 0, 44, 45
1, 262458, Control_c, 0, 64, 0
1, 262509, Control_c, 0, 64, 127
1, 262530, Note_on_c, 0, 58, 0
1, 262560, Note_on_c, 0, 60, 51
1, 262560, Note_on_c, 0, 32, 31
1, 262650, Note_on_c, 0, 60, 0
1, 262680, Note_on_c, 0, 32, 0
1, 262680, Note_on_c, 0, 56, 51
1, 262680, Note_on_c, 0, 31, 31
1, 262685, Control_c, 0, 64, 0
1, 262740, Note_on_c, 0, 56, 0
1, 262768, Control_c, 0, 64, 127
1, 262800, Tempo, 526639
1, 262800, Note_on_c, 0, 54, 0
1, 262800, Note_on_c, 0, 31, 0
1, 262800, Note_on_c, 0, 51, 0
1, 262800, Note_on_c, 0, 32, 31
1, 262920, Tempo, 538261
1, 262920, Note_on_c, 0, 32, 0
1, 262920, Note_on_c, 0, 31, 30
1, 263040, Tempo, 526547
1, 263040, Note_on_c, 0, 31, 0
1, 263040, Note_on_c, 0, 63, 49
1, 263040, Note_on_c, 0, 32, 30
1, 263160, Note_on_c, 0, 32, 0
1, 263160, Note_on_c, 0, 63, 0
1, 263160, Note_on_c, 0, 44, 0
1, 263160, Note_on_c, 0, 54, 44
1, 263160, Note_on_c, 0, 57, 44
1, 263160, Note_on_c, 0, 63, 53
1, 263160, Note_on_c, 0, 44, 46
1, 263185, Control_c, 0, 64, 0
1, 263257, Control_c, 0, 64, 127
1, 263280, Note_on_c, 0, 32, 30
1, 263400, Note_on_c, 0, 32, 0
1, 263400, Note_on_c, 0, 63, 0
1, 263400, Note_on_c, 0, 65, 49
1, 263400, Note_on_c, 0, 31, 30
1, 263520, Note_on_c, 0, 31, 0
1, 263520, Note_on_c, 0, 65, 0
1, 263520, Note_on_c, 0, 63, 54
1, 263520, Note_on_c, 0, 32, 30
1, 263640, Note_on_c, 0, 32, 0
1, 263640, Note_on_c, 0, 63, 0
1, 263640, Note_on_c, 0, 61, 46
1, 263640, Note_on_c, 0, 31, 30
1, 263760, Note_on_c, 0, 31, 0
1, 263760, Note_on_c, 0, 61, 0
1, 263760, Note_on_c, 0, 60, 46
1, 263760, Note_on_c, 0, 32, 30
1, 263880, Tempo, 517554
1, 263880, Note_on_c, 0, 32, 0
1, 263880, Note_on_c, 0, 44, 0
1, 263880, Note_on_c, 0, 54, 0
1, 263880, Note_on_c, 0, 57, 0
1, 263880, Note_on_c, 0, 60, 0
1, 263880, Note_on_c, 0, 54, 44
1, 263880, Note_on_c, 0, 58, 53
1, 263880, Note_on_c, 0, 44, 45
1, 263900, Control_c, 0, 64, 0
1, 263966, Control_c, 0, 64, 127
1, 263970, Note_on_c, 0, 58, 0
1, 263970, Note_on_c, 0, 54, 0
1, 264000, Tempo, 510638
1, 264000, Note_on_c, 0, 60, 50
1, 264000, Note_on_c, 0, 32, 30
1, 264063, Control_c, 0, 64, 0
1, 264090, Note_on_c, 0, 60, 0
1, 264120, Note_on_c, 0, 32, 0
1, 264120, Note_on_c, 0, 56, 50
1, 264120, Note_on_c, 0, 31, 30
1, 264180, Note_on_c, 0, 56, 0
1, 264240, Tempo, 529007
1, 264240, Note_on_c, 0, 31, 0
1, 264240, Note_on_c, 0, 32, 30
1, 264257, Control_c, 0, 64, 127
1, 264360, Tempo, 540687
1, 264360, Note_on_c, 0, 32, 0
1, 264360, Note_on_c, 0, 31, 30
1, 264480, Tempo, 528821
1, 264480, Note_on_c, 0, 31, 0
1, 264480, Note_on_c, 0, 60, 49
1, 264480, Note_on_c, 0, 32, 30
1, 264500, Control_c, 0, 64, 0
1, 264600, Note_on_c, 0, 32, 0
1, 264600, Note_on_c, 0, 60, 0
1, 264600, Note_on_c, 0, 44, 0
1, 264600, Note_on_c, 0, 51, 44
1, 264600, Note_on_c, 0, 54, 44
1, 264600, Note_on_c, 0, 60, 53
1, 264600, Note_on_c, 0, 44, 45
1, 264623, Control_c, 0, 64, 127
1, 264720, Note_on_c, 0, 32, 30
1, 264840, Note_on_c, 0, 32, 0
1, 264840, Note_on_c, 0, 60, 0
1, 264840, Note_on_c, 0, 58, 49
1, 264840, Note_on_c, 0, 31, 30
1, 264960, Note_on_c, 0, 31, 0
1, 264960, Note_on_c, 0, 51, 0
1, 264960, Note_on_c, 0, 58, 0
1, 264960, Note_on_c, 0, 54, 0
1, 264960, Note_on_c, 0, 52, 44
1, 264960, Note_on_c, 0, 55, 44
1, 264960, Note_on_c, 0, 58, 52
1, 264960, Note_on_c, 0, 32, 30
1, 265080, Note_on_c, 0, 32, 0
1, 265080, Note_on_c, 0, 31, 30
1, 265200, Tempo, 524246
1, 265200, Note_on_c, 0, 31, 0
1, 265200, Note_on_c, 0, 58, 0
1, 265200, Note_on_c, 0, 55, 0
1, 265200, Note_on_c, 0, 55, 46
1, 265200, Note_on_c, 0, 32, 30
1, 265320, Tempo, 515110
1, 265320, Note_on_c, 0, 32, 0
1, 265320, Note_on_c, 0, 44, 0
1, 265320, Note_on_c, 0, 52, 0
1, 265320, Note_on_c, 0, 55, 0
1, 265320, Note_on_c, 0, 53, 44
1, 265320, Note_on_c, 0, 56, 52
1, 265320, Note_on_c, 0, 44, 45
1, 265324, Control_c, 0, 64, 0
1, 265360, Control_c, 0, 64, 127
1, 265410, Note_on_c, 0, 56, 0
1, 265410, Note_on_c, 0, 53, 0
1, 265440, Note_on_c, 0, 55, 49
1, 265440, Note_on_c, 0, 32, 31
1, 265530, Note_on_c, 0, 55, 0
1, 265537, Control_c, 0, 64, 0
1, 265560, Note_on_c, 0, 32, 0
1, 265560, Note_on_c, 0, 53, 49
1, 265560, Note_on_c, 0, 31, 31
1, 265620, Note_on_c, 0, 53, 0
1, 265680, Tempo, 526639
1, 265680, Note_on_c, 0, 31, 0
1, 265680, Note_on_c, 0, 32, 31
1, 265703, Control_c, 0, 64, 127
1, 265800, Tempo, 524246
1, 265800, Note_on_c, 0, 32, 0
1, 265800, Note_on_c, 0, 31, 30
1, 265920, Note_on_c, 0, 31, 0
1, 265920, Note_on_c, 0, 60, 46
1, 265920, Note_on_c, 0, 32, 30
1, 266040, Note_on_c, 0, 32, 0
1, 266040, Note_on_c, 0, 60, 0
1, 266040, Note_on_c, 0, 44, 0
1, 266040, Note_on_c, 0, 51, 43
1, 266040, Note_on_c, 0, 54, 43
1, 266040, Note_on_c, 0, 60, 51
1, 266040, Note_on_c, 0, 44, 44
1, 266060, Control_c, 0, 64, 0
1, 266149, Control_c, 0, 64, 127
1, 266160, Note_on_c, 0, 32, 30
1, 266280, Note_on_c, 0, 32, 0
1, 266280, Note_on_c, 0, 60, 0
1, 266280, Note_on_c, 0, 58, 46
1, 266280, Note_on_c, 0, 31, 30
1, 266400, Note_on_c, 0, 31, 0
1, 266400, Note_on_c, 0, 51, 0
1, 266400, Note_on_c, 0, 58, 0
1, 266400, Note_on_c, 0, 54, 0
1, 266400, Note_on_c, 0, 55, 44
1, 266400, Note_on_c, 0, 52, 44
1, 266400, Note_on_c, 0, 58, 52
1, 266400, Note_on_c, 0, 32, 30
1, 266520, Tempo, 543085
1, 266520, Note_on_c, 0, 32, 0
1, 266520, Note_on_c, 0, 31, 30
1, 266589, Control_c, 0, 64, 0
1, 266640, Tempo, 528821
1, 266640, Note_on_c, 0, 31, 0
1, 266640, Note_on_c, 0, 58, 0
1, 266640, Note_on_c, 0, 55, 0
1, 266640, Note_on_c, 0, 55, 45
1, 266640, Note_on_c, 0, 32, 30
1, 266760, Tempo, 535906
1, 266760, Note_on_c, 0, 32, 0
1, 266760, Note_on_c, 0, 44, 0
1, 266760, Note_on_c, 0, 52, 0
1, 266760, Note_on_c, 0, 55, 0
1, 266760, Note_on_c, 0, 56, 53
1, 266760, Note_on_c, 0, 44, 44
1, 266789, Control_c, 0, 64, 127
1, 266850, Note_on_c, 0, 56, 0
1, 266880, Note_on_c, 0, 55, 45
1, 266880, Note_on_c, 0, 32, 30
1, 266970, Note_on_c, 0, 55, 0
1, 267000, Tempo, 624740
1, 267000, Note_on_c, 0, 32, 0
1, 267000, Note_on_c, 0, 53, 45
1, 267000, Note_on_c, 0, 31, 30
1, 267051, Control_c, 0, 64, 0
1, 267090, Note_on_c, 0, 53, 0
1, 267120, Tempo, 528821
1, 267120, Note_on_c, 0, 31, 0
1, 267120, Note_on_c, 0, 65, 62
1, 267120, Note_on_c, 0, 56, 52
1, 267120, Note_on_c, 0, 59, 52
1, 267120, Note_on_c, 0, 32, 33
1, 267177, Control_c, 0, 64, 127
1, 267240, Note_on_c, 0, 32, 0
1, 267240, Note_on_c, 0, 31, 33
1, 267360, Tempo, 515331
1, 267360, Note_on_c, 0, 31, 0
1, 267360, Note_on_c, 0, 65, 0
1, 267360, Note_on_c, 0, 65, 55
1, 267360, Note_on_c, 0, 32, 33
1, 267480, Tempo, 508431
1, 267480, Note_on_c, 0, 32, 0
1, 267480, Note_on_c, 0, 44, 0
1, 267480, Note_on_c, 0, 65, 0
1, 267480, Note_on_c, 0, 63, 62
1, 267480, Note_on_c, 0, 44, 50
1, 267498, Control_c, 0, 64, 0
1, 267531, Control_c, 0, 64, 127
1, 267570, Note_on_c, 0, 63, 0
1, 267600, Note_on_c, 0, 65, 55
1, 267600, Note_on_c, 0, 43, 34
1, 267669, Control_c, 0, 64, 0
1, 267690, Note_on_c, 0, 65, 0
1, 267720, Tempo, 526639
1, 267720, Note_on_c, 0, 44, 0
1, 267720, Note_on_c, 0, 43, 0
1, 267720, Note_on_c, 0, 61, 55
1, 267720, Note_on_c, 0, 53, 39
1, 267720, Note_on_c, 0, 44, 34
1, 267780, Note_on_c, 0, 53, 0
1, 267780, Note_on_c, 0, 61, 0
1, 267840, Note_on_c, 0, 59, 0
1, 267840, Note_on_c, 0, 56, 0
1, 267840, Note_on_c, 0, 44, 0
1, 267840, Note_on_c, 0, 51, 34
1, 267900, Control_c, 0, 64, 127
1, 267960, Tempo, 538261
1, 267960, Note_on_c, 0, 51, 0
1, 267960, Note_on_c, 0, 53, 33
1, 268080, Tempo, 526547
1, 268080, Note_on_c, 0, 53, 0
1, 268080, Note_on_c, 0, 68, 53
1, 268080, Note_on_c, 0, 49, 33
1, 268200, Note_on_c, 0, 49, 0
1, 268200, Note_on_c, 0, 68, 0
1, 268200, Note_on_c, 0, 59, 47
1, 268200, Note_on_c, 0, 62, 47
1, 268200, Note_on_c, 0, 68, 57
1, 268200, Note_on_c, 0, 44, 52
1, 268220, Control_c, 0, 64, 0
1, 268297, Control_c, 0, 64, 127
1, 268320, Note_on_c, 0, 44, 0
1, 268320, Note_on_c, 0, 43, 33
1, 268440, Note_on_c, 0, 43, 0
1, 268440, Note_on_c, 0, 68, 0
1, 268440, Note_on_c, 0, 70, 54
1, 268440, Note_on_c, 0, 44, 34
1, 268560, Note_on_c, 0, 44, 0
1, 268560, Note_on_c, 0, 70, 0
1, 268560, Note_on_c, 0, 68, 62
1, 268560, Note_on_c, 0, 32, 34
1, 268680, Note_on_c, 0, 32, 0
1, 268680, Note_on_c, 0, 68, 0
1, 268680, Note_on_c, 0, 66, 53
1, 268680, Note_on_c, 0, 31, 34
1, 268800, Tempo, 515110
1, 268800, Note_on_c, 0, 31, 0
1, 268800, Note_on_c, 0, 66, 0
1, 268800, Note_on_c, 0, 65, 54
1, 268800, Note_on_c, 0, 32, 35
1, 268920, Tempo, 508431
1, 268920, Note_on_c, 0, 32, 0
1, 268920, Note_on_c, 0, 59, 0
1, 268920, Note_on_c, 0, 62, 0
1, 268920, Note_on_c, 0, 65, 0
1, 268920, Note_on_c, 0, 59, 51
1, 268920, Note_on_c, 0, 63, 62
1, 268920, Note_on_c, 0, 44, 53
1, 268937, Control_c, 0, 64, 0
1, 269010, Note_on_c, 0, 63, 0
1, 269010, Note_on_c, 0, 59, 0
1, 269017, Control_c, 0, 64, 127
1, 269040, Tempo, 510638
1, 269040, Note_on_c, 0, 44, 0
1, 269040, Note_on_c, 0, 65, 59
1, 269040, Note_on_c, 0, 43, 35
1, 269130, Note_on_c, 0, 65, 0
1, 269137, Control_c, 0, 64, 0
1, 269160, Tempo, 529007
1, 269160, Note_on_c, 0, 43, 0
1, 269160, Note_on_c, 0, 53, 52
1, 269160, Note_on_c, 0, 61, 55
1, 269160, Note_on_c, 0, 44, 36
1, 269220, Note_on_c, 0, 61, 0
1, 269220, Note_on_c, 0, 53, 0
1, 269280, Note_on_c, 0, 44, 0
1, 269280, Note_on_c, 0, 51, 36
1, 269297, Control_c, 0, 64, 127
1, 269400, Tempo, 540687
1, 269400, Note_on_c, 0, 51, 0
1, 269400, Note_on_c, 0, 53, 36
1, 269520, Tempo, 528821
1, 269520, Note_on_c, 0, 53, 0
1, 269520, Note_on_c, 0, 65, 59
1, 269520, Note_on_c, 0, 49, 36
1, 269640, Note_on_c, 0, 49, 0
1, 269640, Note_on_c, 0, 65, 0
1, 269640, Note_on_c, 0, 56, 53
1, 269640, Note_on_c, 0, 59, 53
1, 269640, Note_on_c, 0, 65, 63
1, 269640, Note_on_c, 0, 44, 55
1, 269654, Control_c, 0, 64, 0
1, 269700, Control_c, 0, 64, 127
1, 269760, Note_on_c, 0, 44, 0
1, 269760, Note_on_c, 0, 43, 36
1, 269880, Note_on_c, 0, 43, 0
1, 269880, Note_on_c, 0, 65, 0
1, 269880, Note_on_c, 0, 63, 59
1, 269880, Note_on_c, 0, 44, 36
1, 270000, Note_on_c, 0, 44, 0
1, 270000, Note_on_c, 0, 56, 0
1, 270000, Note_on_c, 0, 59, 0
1, 270000, Note_on_c, 0, 63, 0
1, 270000, Note_on_c, 0, 57, 52
1, 270000, Note_on_c, 0, 60, 52
1, 270000, Note_on_c, 0, 63, 62
1, 270000, Note_on_c, 0, 32, 36
1, 270120, Note_on_c, 0, 32, 0
1, 270120, Note_on_c, 0, 31, 36
1, 270240, Tempo, 524246
1, 270240, Note_on_c, 0, 31, 0
1, 270240, Note_on_c, 0, 63, 0
1, 270240, Note_on_c, 0, 60, 0
1, 270240, Note_on_c, 0, 60, 56
1, 270240, Note_on_c, 0, 32, 36
1, 270360, Tempo, 510638
1, 270360, Note_on_c, 0, 32, 0
1, 270360, Note_on_c, 0, 60, 0
1, 270360, Note_on_c, 0, 57, 0
1, 270360, Note_on_c, 0, 58, 52
1, 270360, Note_on_c, 0, 61, 62
1, 270360, Note_on_c, 0, 44, 55
1, 270371, Control_c, 0, 64, 0
1, 270406, Control_c, 0, 64, 127
1, 270450, Note_on_c, 0, 61, 0
1, 270450, Note_on_c, 0, 58, 0
1, 270480, Note_on_c, 0, 44, 0
1, 270480, Note_on_c, 0, 60, 59
1, 270480, Note_on_c, 0, 43, 36
1, 270566, Control_c, 0, 64, 0
1, 270570, Note_on_c, 0, 60, 0
1, 270600, Tempo, 529007
1, 270600, Note_on_c, 0, 43, 0
1, 270600, Note_on_c, 0, 58, 59
1, 270600, Note_on_c, 0, 44, 36
1, 270660, Note_on_c, 0, 58, 0
1, 270720, Tempo, 536289
1, 270720, Note_on_c, 0, 44, 0
1, 270720, Note_on_c, 0, 49, 36
1, 270743, Control_c, 0, 64, 127
1, 270840, Tempo, 524246
1, 270840, Note_on_c, 0, 49, 0
1, 270840, Note_on_c, 0, 48, 36
1, 270960, Note_on_c, 0, 48, 0
1, 270960, Note_on_c, 0, 65, 56
1, 270960, Note_on_c, 0, 46, 36
1, 271080, Note_on_c, 0, 46, 0
1, 271080, Note_on_c, 0, 65, 0
1, 271080, Note_on_c, 0, 56, 51
1, 271080, Note_on_c, 0, 59, 51
1, 271080, Note_on_c, 0, 65, 62
1, 271080, Note_on_c, 0, 44, 53
1, 271094, Control_c, 0, 64, 0
1, 271177, Control_c, 0, 64, 127
1, 271200, Note_on_c, 0, 44, 0
1, 271200, Note_on_c, 0, 43, 36
1, 271320, Note_on_c, 0, 43, 0
1, 271320, Note_on_c, 0, 65, 0
1, 271320, Note_on_c, 0, 63, 56
1, 271320, Note_on_c, 0, 44, 36
1, 271440, Note_on_c, 0, 44, 0
1, 271440, Note_on_c, 0, 56, 0
1, 271440, Note_on_c, 0, 59, 0
1, 271440, Note_on_c, 0, 63, 0
1, 271440, Note_on_c, 0, 60, 52
1, 271440, Note_on_c, 0, 57, 52
1, 271440, Note_on_c, 0, 63, 62
1, 271440, Note_on_c, 0, 32, 36
1, 271560, Tempo, 543085
1, 271560, Note_on_c, 0, 32, 0
1, 271560, Note_on_c, 0, 31, 36
1, 271680, Tempo, 517375
1, 271680, Note_on_c, 0, 31, 0
1, 271680, Note_on_c, 0, 63, 0
1, 271680, Note_on_c, 0, 60, 0
1, 271680, Note_on_c, 0, 60, 55
1, 271680, Note_on_c, 0, 32, 36
1, 271800, Note_on_c, 0, 32, 0
1, 271800, Note_on_c, 0, 60, 0
1, 271800, Note_on_c, 0, 57, 0
1, 271800, Note_on_c, 0, 61, 63
1, 271800, Note_on_c, 0, 44, 53
1, 271818, Control_c, 0, 64, 0
1, 271871, Control_c, 0, 64, 127
1, 271890, Note_on_c, 0, 61, 0
1, 271920, Note_on_c, 0, 44, 0
1, 271920, Note_on_c, 0, 60, 55
1, 271920, Note_on_c, 0, 43, 36
1, 272010, Note_on_c, 0, 60, 0
1, 272011, Control_c, 0, 64, 0
1, 272040, Tempo, 621375
1, 272040, Note_on_c, 0, 43, 0
1, 272040, Note_on_c, 0, 58, 55
1, 272040, Note_on_c, 0, 44, 36
1, 272100, Note_on_c, 0, 58, 0
1, 272160, Tempo, 515818
1, 272160, Note_on_c, 0, 44, 0
1, 272160, Note_on_c, 0, 62, 65
1, 272160, Note_on_c, 0, 66, 65
1, 272160, Note_on_c, 0, 71, 65
1, 272160, Note_on_c, 0, 74, 79
1, 272160, Note_on_c, 0, 32, 54
1, 272195, Control_c, 0, 64, 127
1, 272280, Note_on_c, 0, 32, 0
1, 272280, Note_on_c, 0, 44, 51
1, 272400, Tempo, 502639
1, 272400, Note_on_c, 0, 44, 0
1, 272400, Note_on_c, 0, 74, 0
1, 272400, Note_on_c, 0, 62, 0
1, 272400, Note_on_c, 0, 66, 0
1, 272400, Note_on_c, 0, 71, 0
1, 272400, Note_on_c, 0, 62, 59
1, 272400, Note_on_c, 0, 74, 70
1, 272400, Note_on_c, 0, 44, 51
1, 272520, Tempo, 515818
1, 272520, Note_on_c, 0, 44, 0
1, 272520, Note_on_c, 0, 74, 0
1, 272520, Note_on_c, 0, 62, 0
1, 272520, Note_on_c, 0, 66, 65
1, 272520, Note_on_c, 0, 61, 65
1, 272520, Note_on_c, 0, 73, 79
1, 272520, Note_on_c, 0, 50, 49
1, 272520, Note_on_c, 0, 54, 49
1, 272520, Note_on_c, 0, 59, 55
1, 272529, Control_c, 0, 64, 0
1, 272563, Control_c, 0, 64, 127
1, 272610, Note_on_c, 0, 73, 0
1, 272610, Note_on_c, 0, 61, 0
1, 272640, Note_on_c, 0, 50, 0
1, 272640, Note_on_c, 0, 54, 0
1, 272640, Note_on_c, 0, 59, 0
1, 272640, Note_on_c, 0, 62, 59
1, 272640, Note_on_c, 0, 74, 70
1, 272640, Note_on_c, 0, 44, 52
1, 272730, Note_on_c, 0, 74, 0
1, 272730, Note_on_c, 0, 62, 0
1, 272760, Note_on_c, 0, 44, 0
1, 272760, Note_on_c, 0, 59, 59
1, 272760, Note_on_c, 0, 71, 70
1, 272760, Note_on_c, 0, 44, 52
1, 272850, Note_on_c, 0, 71, 0
1, 272850, Note_on_c, 0, 59, 0
1, 272880, Note_on_c, 0, 66, 0
1, 272880, Note_on_c, 0, 44, 0
1, 272880, Note_on_c, 0, 32, 57
1, 272904, Control_c, 0, 64, 0
1, 272957, Control_c, 0, 64, 127
1, 273000, Tempo, 525026
1, 273000, Note_on_c, 0, 32, 0
1, 273000, Note_on_c, 0, 44, 53
1, 273120, Tempo, 513611
1, 273120, Note_on_c, 0, 44, 0
1, 273120, Note_on_c, 0, 66, 56
1, 273120, Note_on_c, 0, 78, 66
1, 273120, Note_on_c, 0, 50, 53
1, 273240, Note_on_c, 0, 50, 0
1, 273240, Note_on_c, 0, 78, 0
1, 273240, Note_on_c, 0, 66, 0
1, 273240, Note_on_c, 0, 66, 61
1, 273240, Note_on_c, 0, 71, 51
1, 273240, Note_on_c, 0, 78, 71
1, 273240, Note_on_c, 0, 62, 59
1, 273240, Note_on_c, 0, 59, 59
1, 273240, Note_on_c, 0, 54, 59
1, 273255, Control_c, 0, 64, 0
1, 273290, Control_c, 0, 64, 127
1, 273360, Note_on_c, 0, 54, 0
1, 273360, Note_on_c, 0, 62, 0
1, 273360, Note_on_c, 0, 59, 0
1, 273360, Note_on_c, 0, 50, 51
1, 273480, Note_on_c, 0, 50, 0
1, 273480, Note_on_c, 0, 66, 0
1, 273480, Note_on_c, 0, 78, 0
1, 273480, Note_on_c, 0, 68, 57
1, 273480, Note_on_c, 0, 80, 69
1, 273480, Note_on_c, 0, 44, 51
1, 273600, Note_on_c, 0, 44, 0
1, 273600, Note_on_c, 0, 80, 0
1, 273600, Note_on_c, 0, 68, 0
1, 273600, Note_on_c, 0, 66, 65
1, 273600, Note_on_c, 0, 78, 79
1, 273600, Control_c, 0, 64, 0
1, 273600, Note_on_c, 0, 32, 54
1, 273635, Control_c, 0, 64, 127
1, 273720, Note_on_c, 0, 32, 0
1, 273720, Note_on_c, 0, 78, 0
1, 273720, Note_on_c, 0, 66, 0
1, 273720, Note_on_c, 0, 64, 56
1, 273720, Note_on_c, 0, 76, 66
1, 273720, Note_on_c, 0, 44, 51
1, 273840, Note_on_c, 0, 44, 0
1, 273840, Note_on_c, 0, 76, 0
1, 273840, Note_on_c, 0, 64, 0
1, 273840, Note_on_c, 0, 62, 56
1, 273840, Note_on_c, 0, 74, 69
1, 273840, Note_on_c, 0, 44, 51
1, 273960, Tempo, 504838
1, 273960, Note_on_c, 0, 44, 0
1, 273960, Note_on_c, 0, 71, 0
1, 273960, Note_on_c, 0, 62, 0
1, 273960, Note_on_c, 0, 74, 0
1, 273960, Note_on_c, 0, 61, 56
1, 273960, Note_on_c, 0, 73, 76
1, 273960, Note_on_c, 0, 50, 49
1, 273960, Note_on_c, 0, 59, 55
1, 273960, Note_on_c, 0, 54, 49
1, 273962, Control_c, 0, 64, 0
1, 274018, Control_c, 0, 64, 127
1, 274050, Note_on_c, 0, 73, 0
1, 274050, Note_on_c, 0, 61, 0
1, 274080, Tempo, 518090
1, 274080, Note_on_c, 0, 59, 0
1, 274080, Note_on_c, 0, 50, 0
1, 274080, Note_on_c, 0, 54, 0
1, 274080, Note_on_c, 0, 62, 56
1, 274080, Note_on_c, 0, 74, 73
1, 274080, Note_on_c, 0, 44, 52
1, 274170, Note_on_c, 0, 74, 0
1, 274170, Note_on_c, 0, 62, 0
1, 274200, Note_on_c, 0, 44, 0
1, 274200, Note_on_c, 0, 59, 62
1, 274200, Note_on_c, 0, 71, 74
1, 274200, Note_on_c, 0, 44, 52
1, 274290, Note_on_c, 0, 71, 0
1, 274290, Note_on_c, 0, 59, 0
1, 274310, Control_c, 0, 64, 0
1, 274310, Note_on_c, 0, 32, 54
1, 274320, Note_on_c, 0, 44, 0
1, 274330, Control_c, 0, 64, 0
1, 274392, Control_c, 0, 64, 127
1, 274430, Note_on_c, 0, 32, 0
1, 274430, Note_on_c, 0, 44, 51
1, 274440, Tempo, 527380
1, 274550, Note_on_c, 0, 44, 0
1, 274560, Tempo, 515818
1, 274560, Note_on_c, 0, 62, 62
1, 274560, Note_on_c, 0, 74, 73
1, 274560, Note_on_c, 0, 44, 51
1, 274680, Note_on_c, 0, 44, 0
1, 274680, Note_on_c, 0, 74, 0
1, 274680, Note_on_c, 0, 62, 0
1, 274680, Note_on_c, 0, 66, 66
1, 274680, Note_on_c, 0, 71, 66
1, 274680, Note_on_c, 0, 62, 66
1, 274680, Note_on_c, 0, 74, 80
1, 274680, Note_on_c, 0, 50, 55
1, 274680, Note_on_c, 0, 54, 55
1, 274680, Note_on_c, 0, 59, 55
1, 274685, Control_c, 0, 64, 0
1, 274743, Control_c, 0, 64, 127
1, 274800, Note_on_c, 0, 59, 0
1, 274800, Note_on_c, 0, 50, 0
1, 274800, Note_on_c, 0, 54, 0
1, 274800, Note_on_c, 0, 44, 52
1, 274920, Note_on_c, 0, 44, 0
1, 274920, Note_on_c, 0, 74, 0
1, 274920, Note_on_c, 0, 62, 0
1, 274920, Note_on_c, 0, 61, 62
1, 274920, Note_on_c, 0, 73, 73
1, 274920, Note_on_c, 0, 44, 52
1, 275040, Note_on_c, 0, 73, 0
1, 275040, Note_on_c, 0, 61, 0
1, 275040, Note_on_c, 0, 66, 0
1, 275040, Note_on_c, 0, 71, 0
1, 275040, Note_on_c, 0, 60, 65
1, 275040, Note_on_c, 0, 63, 65
1, 275040, Note_on_c, 0, 68, 65
1, 275040, Note_on_c, 0, 66, 65
1, 275040, Note_on_c, 0, 72, 79
1, 275040, Note_on_c, 0, 32, 52
1, 275049, Control_c, 0, 64, 0
1, 275122, Control_c, 0, 64, 127
1, 275160, Note_on_c, 0, 72, 0
1, 275160, Note_on_c, 0, 68, 0
1, 275160, Note_on_c, 0, 60, 0
1, 275160, Note_on_c, 0, 63, 0
1, 275160, Note_on_c, 0, 66, 0
1, 275280, Tempo, 511335
1, 275280, Note_on_c, 0, 44, 0
1, 275280, Note_on_c, 0, 32, 0
1, 275280, Note_on_c, 0, 48, 71
1, 275280, Note_on_c, 0, 36, 60
1, 275337, Control_c, 0, 64, 0
1, 275400, Tempo, 527380
1, 275400, Note_on_c, 0, 36, 0
1, 275400, Note_on_c, 0, 48, 0
1, 275400, Note_on_c, 0, 54, 65
1, 275400, Note_on_c, 0, 58, 65
1, 275400, Note_on_c, 0, 60, 65
1, 275400, Note_on_c, 0, 34, 65
1, 275400, Note_on_c, 0, 46, 79
1, 275490, Note_on_c, 0, 46, 0
1, 275490, Note_on_c, 0, 34, 0
1, 275520, Note_on_c, 0, 54, 0
1, 275520, Note_on_c, 0, 58, 0
1, 275520, Note_on_c, 0, 60, 0
1, 275520, Note_on_c, 0, 36, 62
1, 275520, Note_on_c, 0, 48, 73
1, 275610, Note_on_c, 0, 48, 0
1, 275610, Note_on_c, 0, 36, 0
1, 275640, Note_on_c, 0, 32, 62
1, 275640, Note_on_c, 0, 44, 73
1, 275730, Note_on_c, 0, 44, 0
1, 275730, Note_on_c, 0, 32, 0
1, 275760, Note_on_c, 0, 56, 65
1, 275760, Note_on_c, 0, 60, 65
1, 275760, Note_on_c, 0, 66, 65
1, 275760, Note_on_c, 0, 68, 79
1, 275880, Note_on_c, 0, 68, 0
1, 275880, Note_on_c, 0, 56, 0
1, 275880, Note_on_c, 0, 60, 0
1, 275880, Note_on_c, 0, 66, 0
1, 276000, Tempo, 513611
1, 276000, Note_on_c, 0, 39, 56
1, 276000, Note_on_c, 0, 51, 66
1, 276120, Note_on_c, 0, 51, 0
1, 276120, Note_on_c, 0, 39, 0
1, 276120, Note_on_c, 0, 68, 65
1, 276120, Note_on_c, 0, 72, 65
1, 276120, Note_on_c, 0, 80, 65
1, 276120, Note_on_c, 0, 78, 65
1, 276120, Note_on_c, 0, 39, 61
1, 276120, Note_on_c, 0, 51, 71
1, 276171, Control_c, 0, 64, 127
1, 276240, Note_on_c, 0, 78, 0
1, 276240, Note_on_c, 0, 80, 0
1, 276240, Note_on_c, 0, 68, 0
1, 276240, Note_on_c, 0, 72, 0
1, 276360, Note_on_c, 0, 51, 0
1, 276360, Note_on_c, 0, 39, 0
1, 276360, Note_on_c, 0, 41, 57
1, 276360, Note_on_c, 0, 53, 69
1, 276411, Control_c, 0, 64, 0
1, 276480, Note_on_c, 0, 53, 0
1, 276480, Note_on_c, 0, 41, 0
1, 276480, Note_on_c, 0, 92, 65
1, 276480, Note_on_c, 0, 90, 65
1, 276480, Note_on_c, 0, 84, 65
1, 276480, Note_on_c, 0, 80, 65
1, 276480, Note_on_c, 0, 39, 65
1, 276480, Note_on_c, 0, 51, 79
1, 276500, Control_c, 0, 64, 127
1, 276570, Note_on_c, 0, 51, 0
1, 276570, Note_on_c, 0, 39, 0
1, 276600, Note_on_c, 0, 84, 0
1, 276600, Note_on_c, 0, 92, 0
1, 276600, Note_on_c, 0, 90, 0
1, 276600, Note_on_c, 0, 80, 0
1, 276600, Note_on_c, 0, 37, 56
1, 276600, Note_on_c, 0, 49, 66
1, 276690, Note_on_c, 0, 49, 0
1, 276690, Note_on_c, 0, 37, 0
1, 276720, Note_on_c, 0, 36, 56
1, 276720, Note_on_c, 0, 48, 69
1, 276810, Note_on_c, 0, 48, 0
1, 276810, Note_on_c, 0, 36, 0
1, 276840, Tempo, 504838
1, 276840, Note_on_c, 0, 102, 75
1, 276840, Note_on_c, 0, 104, 75
1, 276840, Note_on_c, 0, 99, 75
1, 276840, Note_on_c, 0, 92, 75
1, 276840, Note_on_c, 0, 34, 56
1, 276840, Note_on_c, 0, 46, 76
1, 276848, Control_c, 0, 64, 0
1, 276875, Control_c, 0, 64, 127
1, 276930, Note_on_c, 0, 46, 0
1, 276930, Note_on_c, 0, 34, 0
1, 276960, Tempo, 518090
1, 276960, Note_on_c, 0, 99, 0
1, 276960, Note_on_c, 0, 102, 0
1, 276960, Note_on_c, 0, 104, 0
1, 276960, Note_on_c, 0, 92, 0
1, 276960, Note_on_c, 0, 36, 56
1, 276960, Note_on_c, 0, 48, 73
1, 277050, Note_on_c, 0, 48, 0
1, 277050, Note_on_c, 0, 36, 0
1, 277080, Tempo, 557207
1, 277080, Note_on_c, 0, 32, 62
1, 277080, Note_on_c, 0, 44, 74
1, 277131, Control_c, 0, 64, 0
1, 277170, Note_on_c, 0, 44, 0
1, 277170, Note_on_c, 0, 32, 0
1, 277200, Tempo, 513611
1, 277200, Note_on_c, 0, 66, 65
1, 277200, Note_on_c, 0, 58, 65
1, 277200, Note_on_c, 0, 70, 79
1, 277290, Note_on_c, 0, 70, 0
1, 277290, Note_on_c, 0, 58, 0
1, 277320, Note_on_c, 0, 60, 56
1, 277320, Note_on_c, 0, 72, 66
1, 277410, Note_on_c, 0, 72, 0
1, 277410, Note_on_c, 0, 60, 0
1, 277440, Tempo, 532104
1, 277440, Note_on_c, 0, 56, 56
1, 277440, Note_on_c, 0, 68, 69
1, 277530, Note_on_c, 0, 68, 0
1, 277530, Note_on_c, 0, 56, 0
1, 277560, Tempo, 524292
1, 277560, Note_on_c, 0, 66, 0
1, 277560, Note_on_c, 0, 54, 65
1, 277560, Note_on_c, 0, 45, 56
1, 277560, Note_on_c, 0, 57, 76
1, 277650, Note_on_c, 0, 57, 0
1, 277650, Note_on_c, 0, 45, 0
1, 277680, Note_on_c, 0, 47, 56
1, 277680, Note_on_c, 0, 59, 73
1, 277770, Note_on_c, 0, 59, 0
1, 277770, Note_on_c, 0, 47, 0
1, 277800, Tempo, 605388
1, 277800, Note_on_c, 0, 44, 62
1, 277800, Note_on_c, 0, 56, 74
1, 277890, Note_on_c, 0, 56, 0
1, 277890, Note_on_c, 0, 44, 0
1, 277920, Tempo, 515818
1, 277920, Note_on_c, 0, 54, 0
1, 277920, Note_on_c, 0, 74, 80
1, 277920, Note_on_c, 0, 78, 80
1, 277920, Note_on_c, 0, 83, 80
1, 277920, Note_on_c, 0, 86, 94
1, 277920, Note_on_c, 0, 32, 65
1, 277920, Control_c, 0, 64, 0
1, 277955, Control_c, 0, 64, 127
1, 278040, Note_on_c, 0, 32, 0
1, 278040, Note_on_c, 0, 44, 62
1, 278160, Tempo, 502639
1, 278160, Note_on_c, 0, 44, 0
1, 278160, Note_on_c, 0, 86, 0
1, 278160, Note_on_c, 0, 74, 0
1, 278160, Note_on_c, 0, 78, 0
1, 278160, Note_on_c, 0, 83, 0
1, 278160, Note_on_c, 0, 74, 71
1, 278160, Note_on_c, 0, 86, 85
1, 278160, Note_on_c, 0, 50, 63
1, 278280, Tempo, 515818
1, 278280, Note_on_c, 0, 86, 0
1, 278280, Note_on_c, 0, 74, 0
1, 278280, Note_on_c, 0, 78, 80
1, 278280, Note_on_c, 0, 73, 80
1, 278280, Note_on_c, 0, 85, 94
1, 278280, Note_on_c, 0, 66, 66
1, 278280, Note_on_c, 0, 54, 66
1, 278280, Note_on_c, 0, 59, 66
1, 278290, Control_c, 0, 64, 0
1, 278338, Control_c, 0, 64, 127
1, 278370, Note_on_c, 0, 85, 0
1, 278370, Note_on_c, 0, 73, 0
1, 278400, Note_on_c, 0, 74, 70
1, 278400, Note_on_c, 0, 86, 83
1, 278490, Note_on_c, 0, 86, 0
1, 278490, Note_on_c, 0, 74, 0
1, 278520, Tempo, 546847
1, 278520, Note_on_c, 0, 59, 0
1, 278520, Note_on_c, 0, 66, 0
1, 278520, Note_on_c, 0, 54, 0
1, 278520, Note_on_c, 0, 50, 0
1, 278520, Note_on_c, 0, 71, 70
1, 278520, Note_on_c, 0, 83, 83
1, 278520, Note_on_c, 0, 62, 62
1, 278520, Note_on_c, 0, 50, 62
1, 278610, Note_on_c, 0, 83, 0
1, 278610, Note_on_c, 0, 71, 0
1, 278640, Tempo, 515818
1, 278640, Note_on_c, 0, 78, 0
1, 278640, Note_on_c, 0, 62, 0
1, 278640, Note_on_c, 0, 50, 0
1, 278640, Note_on_c, 0, 54, 70
1, 278640, Note_on_c, 0, 49, 70
1, 278640, Note_on_c, 0, 61, 78
1, 278650, Control_c, 0, 64, 0
1, 278722, Control_c, 0, 64, 127
1, 278760, Tempo, 525026
1, 278760, Note_on_c, 0, 61, 0
1, 278760, Note_on_c, 0, 49, 0
1, 278760, Note_on_c, 0, 50, 63
1, 278760, Note_on_c, 0, 62, 71
1, 278880, Tempo, 513611
1, 278880, Note_on_c, 0, 62, 0
1, 278880, Note_on_c, 0, 50, 0
1, 278880, Note_on_c, 0, 78, 67
1, 278880, Note_on_c, 0, 90, 80
1, 278880, Note_on_c, 0, 47, 63
1, 278880, Note_on_c, 0, 59, 71
1, 279000, Note_on_c, 0, 59, 0
1, 279000, Note_on_c, 0, 90, 0
1, 279000, Note_on_c, 0, 54, 0
1, 279000, Note_on_c, 0, 78, 0
1, 279000, Note_on_c, 0, 47, 0
1, 279000, Note_on_c, 0, 78, 72
1, 279000, Note_on_c, 0, 83, 62
1, 279000, Note_on_c, 0, 90, 85
1, 279000, Note_on_c, 0, 59, 70
1, 279000, Note_on_c, 0, 54, 70
1, 279000, Note_on_c, 0, 50, 70
1, 279015, Control_c, 0, 64, 0
1, 279050, Control_c, 0, 64, 127
1, 279120, Note_on_c, 0, 50, 0
1, 279120, Note_on_c, 0, 59, 0
1, 279120, Note_on_c, 0, 54, 0
1, 279120, Note_on_c, 0, 44, 62
1, 279240, Note_on_c, 0, 44, 0
1, 279240, Note_on_c, 0, 78, 0
1, 279240, Note_on_c, 0, 90, 0
1, 279240, Note_on_c, 0, 80, 69
1, 279240, Note_on_c, 0, 92, 82
1, 279240, Note_on_c, 0, 44, 62
1, 279360, Note_on_c, 0, 44, 0
1, 279360, Note_on_c, 0, 92, 0
1, 279360, Note_on_c, 0, 80, 0
1, 279360, Note_on_c, 0, 78, 80
1, 279360, Note_on_c, 0, 90, 94
1, 279360, Note_on_c, 0, 32, 65
1, 279360, Control_c, 0, 64, 0
1, 279395, Control_c, 0, 64, 127
1, 279480, Note_on_c, 0, 32, 0
1, 279480, Note_on_c, 0, 90, 0
1, 279480, Note_on_c, 0, 78, 0
1, 279480, Note_on_c, 0, 76, 67
1, 279480, Note_on_c, 0, 88, 80
1, 279480, Note_on_c, 0, 44, 62
1, 279600, Note_on_c, 0, 44, 0
1, 279600, Note_on_c, 0, 88, 0
1, 279600, Note_on_c, 0, 76, 0
1, 279600, Note_on_c, 0, 74, 67
1, 279600, Note_on_c, 0, 86, 82
1, 279600, Note_on_c, 0, 50, 62
1, 279720, Tempo, 504838
1, 279720, Note_on_c, 0, 86, 0
1, 279720, Note_on_c, 0, 83, 0
1, 279720, Note_on_c, 0, 74, 0
1, 279720, Note_on_c, 0, 78, 80
1, 279720, Note_on_c, 0, 73, 67
1, 279720, Note_on_c, 0, 85, 90
1, 279720, Note_on_c, 0, 66, 66
1, 279720, Note_on_c, 0, 54, 66
1, 279720, Note_on_c, 0, 59, 66
1, 279725, Control_c, 0, 64, 0
1, 279787, Control_c, 0, 64, 127
1, 279810, Note_on_c, 0, 85, 0
1, 279810, Note_on_c, 0, 73, 0
1, 279840, Tempo, 518090
1, 279840, Note_on_c, 0, 74, 67
1, 279840, Note_on_c, 0, 86, 89
1, 279930, Note_on_c, 0, 86, 0
1, 279930, Note_on_c, 0, 74, 0
1, 279960, Tempo, 554580
1, 279960, Note_on_c, 0, 59, 0
1, 279960, Note_on_c, 0, 66, 0
1, 279960, Note_on_c, 0, 54, 0
1, 279960, Note_on_c, 0, 50, 0
1, 279960, Note_on_c, 0, 71, 74
1, 279960, Note_on_c, 0, 83, 89
1, 279960, Note_on_c, 0, 62, 62
1, 279960, Note_on_c, 0, 50, 62
1, 280050, Note_on_c, 0, 83, 0
1, 280050, Note_on_c, 0, 71, 0
1, 280080, Tempo, 518090
1, 280080, Note_on_c, 0, 78, 0
1, 280080, Note_on_c, 0, 62, 0
1, 280080, Note_on_c, 0, 50, 0
1, 280080, Note_on_c, 0, 54, 70
1, 280080, Note_on_c, 0, 49, 70
1, 280080, Note_on_c, 0, 61, 78
1, 280095, Control_c, 0, 64, 0
1, 280147, Control_c, 0, 64, 127
1, 280170, Note_on_c, 0, 61, 0
1, 280170, Note_on_c, 0, 49, 0
1, 280200, Tempo, 527380
1, 280200, Note_on_c, 0, 50, 63
1, 280200, Note_on_c, 0, 62, 71
1, 280290, Note_on_c, 0, 62, 0
1, 280290, Note_on_c, 0, 50, 0
1, 280320, Tempo, 515818
1, 280320, Note_on_c, 0, 74, 74
1, 280320, Note_on_c, 0, 86, 89
1, 280320, Note_on_c, 0, 47, 63
1, 280320, Note_on_c, 0, 59, 71
1, 280410, Note_on_c, 0, 59, 0
1, 280410, Note_on_c, 0, 47, 0
1, 280440, Note_on_c, 0, 54, 0
1, 280440, Note_on_c, 0, 74, 0
1, 280440, Note_on_c, 0, 86, 0
1, 280440, Note_on_c, 0, 78, 80
1, 280440, Note_on_c, 0, 83, 80
1, 280440, Note_on_c, 0, 74, 80
1, 280440, Note_on_c, 0, 86, 95
1, 280440, Note_on_c, 0, 59, 70
1, 280440, Note_on_c, 0, 54, 70
1, 280440, Note_on_c, 0, 50, 70
1, 280455, Control_c, 0, 64, 0
1, 280490, Control_c, 0, 64, 127
1, 280560, Note_on_c, 0, 50, 0
1, 280560, Note_on_c, 0, 59, 0
1, 280560, Note_on_c, 0, 54, 0
1, 280560, Note_on_c, 0, 44, 62
1, 280680, Note_on_c, 0, 44, 0
1, 280680, Note_on_c, 0, 86, 0
1, 280680, Note_on_c, 0, 74, 0
1, 280680, Note_on_c, 0, 73, 74
1, 280680, Note_on_c, 0, 85, 89
1, 280680, Note_on_c, 0, 44, 62
1, 280800, Note_on_c, 0, 85, 0
1, 280800, Note_on_c, 0, 73, 0
1, 280800, Note_on_c, 0, 78, 0
1, 280800, Note_on_c, 0, 83, 0
1, 280800, Note_on_c, 0, 84, 89
1, 280800, Note_on_c, 0, 80, 74
1, 280800, Note_on_c, 0, 78, 74
1, 280800, Note_on_c, 0, 72, 74
1, 280800, Note_on_c, 0, 75, 74
1, 280800, Note_on_c, 0, 32, 71
1, 280806, Control_c, 0, 64, 0
1, 280863, Control_c, 0, 64, 127
1, 280920, Note_on_c, 0, 32, 0
1, 280920, Note_on_c, 0, 72, 0
1, 280920, Note_on_c, 0, 84, 0
1, 280920, Note_on_c, 0, 80, 0
1, 280920, Note_on_c, 0, 44, 0
1, 280920, Note_on_c, 0, 75, 0
1, 280920, Note_on_c, 0, 78, 0
1, 280920, Note_on_c, 0, 39, 69
1, 280920, Note_on_c, 0, 51, 69
1, 281040, Note_on_c, 0, 51, 0
1, 281040, Note_on_c, 0, 39, 0
1, 281040, Note_on_c, 0, 60, 71
1, 281040, Note_on_c, 0, 72, 85
1, 281040, Note_on_c, 0, 41, 69
1, 281040, Note_on_c, 0, 53, 69
1, 281160, Note_on_c, 0, 53, 0
1, 281160, Note_on_c, 0, 60, 0
1, 281160, Note_on_c, 0, 72, 0
1, 281160, Note_on_c, 0, 41, 0
1, 281160, Note_on_c, 0, 63, 73
1, 281160, Note_on_c, 0, 66, 73
1, 281160, Note_on_c, 0, 58, 71
1, 281160, Note_on_c, 0, 70, 85
1, 281160, Note_on_c, 0, 42, 76
1, 281160, Note_on_c, 0, 54, 76
1, 281168, Control_c, 0, 64, 0
1, 281230, Control_c, 0, 64, 127
1, 281250, Note_on_c, 0, 70, 0
1, 281250, Note_on_c, 0, 58, 0
1, 281280, Note_on_c, 0, 60, 71
1, 281280, Note_on_c, 0, 72, 85
1, 281370, Note_on_c, 0, 72, 0
1, 281370, Note_on_c, 0, 60, 0
1, 281400, Tempo, 544366
1, 281400, Note_on_c, 0, 42, 0
1, 281400, Note_on_c, 0, 54, 0
1, 281400, Note_on_c, 0, 56, 71
1, 281400, Note_on_c, 0, 68, 85
1, 281400, Note_on_c, 0, 48, 71
1, 281400, Note_on_c, 0, 60, 71
1, 281490, Note_on_c, 0, 68, 0
1, 281490, Note_on_c, 0, 56, 0
1, 281520, Tempo, 515818
1, 281520, Note_on_c, 0, 48, 0
1, 281520, Note_on_c, 0, 66, 0
1, 281520, Note_on_c, 0, 60, 0
1, 281520, Note_on_c, 0, 63, 0
1, 281520, Note_on_c, 0, 80, 80
1, 281520, Note_on_c, 0, 78, 66
1, 281520, Note_on_c, 0, 75, 66
1, 281520, Note_on_c, 0, 68, 66
1, 281520, Note_on_c, 0, 51, 69
1, 281520, Note_on_c, 0, 54, 69
1, 281520, Note_on_c, 0, 46, 72
1, 281520, Note_on_c, 0, 58, 72
1, 281527, Control_c, 0, 64, 0
1, 281596, Control_c, 0, 64, 127
1, 281610, Note_on_c, 0, 58, 0
1, 281610, Note_on_c, 0, 46, 0
1, 281640, Note_on_c, 0, 78, 0
1, 281640, Note_on_c, 0, 80, 0
1, 281640, Note_on_c, 0, 75, 0
1, 281640, Note_on_c, 0, 68, 0
1, 281640, Note_on_c, 0, 48, 66
1, 281640, Note_on_c, 0, 60, 66
1, 281730, Note_on_c, 0, 60, 0
1, 281730, Note_on_c, 0, 48, 0
1, 281760, Note_on_c, 0, 54, 0
1, 281760, Note_on_c, 0, 51, 0
1, 281760, Note_on_c, 0, 44, 66
1, 281760, Note_on_c, 0, 56, 66
1, 281850, Note_on_c, 0, 56, 0
1, 281850, Note_on_c, 0, 44, 0
1, 281880, Note_on_c, 0, 92, 80
1, 281880, Note_on_c, 0, 90, 66
1, 281880, Note_on_c, 0, 84, 66
1, 281880, Note_on_c, 0, 80, 66
1, 281880, Note_on_c, 0, 51, 79
1, 281880, Note_on_c, 0, 63, 79
1, 281899, Control_c, 0, 64, 0
1, 281956, Control_c, 0, 64, 127
1, 282000, Note_on_c, 0, 80, 0
1, 282000, Note_on_c, 0, 84, 0
1, 282000, Note_on_c, 0, 92, 0
1, 282000, Note_on_c, 0, 90, 0
1, 282120, Tempo, 506971
1, 282120, Note_on_c, 0, 63, 0
1, 282120, Note_on_c, 0, 51, 0
1, 282120, Note_on_c, 0, 53, 73
1, 282120, Note_on_c, 0, 65, 73
1, 282240, Note_on_c, 0, 65, 0
1, 282240, Note_on_c, 0, 53, 0
1, 282240, Note_on_c, 0, 102, 66
1, 282240, Note_on_c, 0, 104, 80
1, 282240, Note_on_c, 0, 96, 66
1, 282240, Note_on_c, 0, 92, 66
1, 282240, Note_on_c, 0, 51, 80
1, 282240, Note_on_c, 0, 63, 80
1, 282248, Control_c, 0, 64, 0
1, 282290, Control_c, 0, 64, 127
1, 282330, Note_on_c, 0, 63, 0
1, 282330, Note_on_c, 0, 51, 0
1, 282360, Tempo, 515818
1, 282360, Note_on_c, 0, 96, 0
1, 282360, Note_on_c, 0, 102, 0
1, 282360, Note_on_c, 0, 104, 0
1, 282360, Note_on_c, 0, 92, 0
1, 282360, Note_on_c, 0, 49, 74
1, 282360, Note_on_c, 0, 61, 74
1, 282450, Note_on_c, 0, 61, 0
1, 282450, Note_on_c, 0, 49, 0
1, 282480, Note_on_c, 0, 48, 74
1, 282480, Note_on_c, 0, 60, 74
1, 282570, Note_on_c, 0, 60, 0
1, 282570, Note_on_c, 0, 48, 0
1, 282600, Note_on_c, 0, 90, 66
1, 282600, Note_on_c, 0, 92, 80
1, 282600, Note_on_c, 0, 87, 66
1, 282600, Note_on_c, 0, 80, 66
1, 282600, Note_on_c, 0, 51, 80
1, 282600, Note_on_c, 0, 54, 80
1, 282600, Note_on_c, 0, 46, 80
1, 282600, Note_on_c, 0, 58, 80
1, 282615, Control_c, 0, 64, 0
1, 282663, Control_c, 0, 64, 127
1, 282690, Note_on_c, 0, 58, 0
1, 282690, Note_on_c, 0, 46, 0
1, 282690, Note_on_c, 0, 51, 0
1, 282690, Note_on_c, 0, 54, 0
1, 282720, Note_on_c, 0, 87, 0
1, 282720, Note_on_c, 0, 80, 0
1, 282720, Note_on_c, 0, 92, 0
1, 282720, Note_on_c, 0, 90, 0
1, 282720, Note_on_c, 0, 48, 72
1, 282720, Note_on_c, 0, 60, 72
1, 282810, Note_on_c, 0, 60, 0
1, 282810, Note_on_c, 0, 48, 0
1, 282840, Tempo, 556070
1, 282840, Note_on_c, 0, 44, 72
1, 282840, Note_on_c, 0, 56, 72
1, 282930, Note_on_c, 0, 56, 0
1, 282930, Note_on_c, 0, 44, 0
1, 282960, Tempo, 545504
1, 282960, Note_on_c, 0, 78, 71
1, 282960, Note_on_c, 0, 70, 71
1, 282960, Note_on_c, 0, 82, 80
1, 282960, Note_on_c, 0, 58, 71
1, 282974, Control_c, 0, 64, 0
1, 283010, Control_c, 0, 64, 127
1, 283050, Note_on_c, 0, 58, 0
1, 283050, Note_on_c, 0, 82, 0
1, 283050, Note_on_c, 0, 70, 0
1, 283080, Note_on_c, 0, 72, 65
1, 283080, Note_on_c, 0, 84, 73
1, 283080, Note_on_c, 0, 60, 65
1, 283170, Note_on_c, 0, 60, 0
1, 283170, Note_on_c, 0, 84, 0
1, 283170, Note_on_c, 0, 72, 0
1, 283200, Note_on_c, 0, 68, 65
1, 283200, Note_on_c, 0, 80, 73
1, 283200, Note_on_c, 0, 56, 65
1, 283290, Note_on_c, 0, 56, 0
1, 283290, Note_on_c, 0, 80, 0
1, 283290, Note_on_c, 0, 68, 0
1, 283320, Tempo, 570125
1, 283320, Note_on_c, 0, 78, 0
1, 283320, Note_on_c, 0, 57, 75
1, 283320, Note_on_c, 0, 33, 66
1, 283320, Note_on_c, 0, 45, 66
1, 283320, Note_on_c, 0, 54, 75
1, 283325, Control_c, 0, 64, 0
1, 283410, Note_on_c, 0, 45, 0
1, 283410, Note_on_c, 0, 57, 0
1, 283410, Note_on_c, 0, 33, 0
1, 283440, Note_on_c, 0, 59, 67
1, 283440, Note_on_c, 0, 35, 61
1, 283440, Note_on_c, 0, 47, 61
1, 283530, Note_on_c, 0, 47, 0
1, 283530, Note_on_c, 0, 35, 0
1, 283530, Note_on_c, 0, 59, 0
1, 283560, Note_on_c, 0, 56, 70
1, 283560, Note_on_c, 0, 32, 62
1, 283560, Note_on_c, 0, 44, 62
1, 283650, Note_on_c, 0, 44, 0
1, 283650, Note_on_c, 0, 32, 0
1, 283650, Note_on_c, 0, 56, 0
1, 283660, Tempo, 519660
1, 283680, Note_on_c, 0, 54, 0
1, 283680, Note_on_c, 0, 37, 49
1, 283680, Note_on_c, 0, 44, 59
1, 283700, Tempo, 510638
1, 283740, Tempo, 508431
1, 283780, Tempo, 506244
1, 283800, Tempo, 504032
1, 283800, Note_on_c, 0, 60, 44
1, 283800, Note_on_c, 0, 63, 44
1, 283800, Note_on_c, 0, 66, 50
1, 283800, Note_on_c, 0, 72, 50
1, 283800, Control_c, 0, 64, 127
1, 283840, Tempo, 501882
1, 283880, Tempo, 499750
1, 283890, Note_on_c, 0, 72, 0
1, 283890, Note_on_c, 0, 63, 0
1, 283890, Note_on_c, 0, 60, 0
1, 283890, Note_on_c, 0, 66, 0
1, 283900, Tempo, 497636
1, 283920, Note_on_c, 0, 61, 53
1, 283940, Tempo, 495540
1, 283980, Tempo, 493462
1, 284000, Tempo, 491400
1, 284010, Note_on_c, 0, 61, 0
1, 284040, Tempo, 489356
1, 284040, Note_on_c, 0, 60, 44
1, 284040, Note_on_c, 0, 63, 44
1, 284040, Note_on_c, 0, 66, 50
1, 284040, Note_on_c, 0, 72, 50
1, 284080, Tempo, 487329
1, 284100, Tempo, 485319
1, 284130, Note_on_c, 0, 72, 0
1, 284130, Note_on_c, 0, 63, 0
1, 284130, Note_on_c, 0, 60, 0
1, 284130, Note_on_c, 0, 66, 0
1, 284140, Tempo, 483325
1, 284160, Tempo, 483325
1, 284160, Note_on_c, 0, 58, 53
1, 284200, Tempo, 485319
1, 284240, Tempo, 487329
1, 284250, Note_on_c, 0, 58, 0
1, 284280, Tempo, 489356
1, 284280, Note_on_c, 0, 60, 51
1, 284280, Note_on_c, 0, 63, 51
1, 284280, Note_on_c, 0, 66, 57
1, 284280, Note_on_c, 0, 72, 57
1, 284320, Tempo, 491400
1, 284360, Tempo, 493462
1, 284370, Note_on_c, 0, 72, 0
1, 284370, Note_on_c, 0, 63, 0
1, 284370, Note_on_c, 0, 60, 0
1, 284370, Note_on_c, 0, 66, 0
1, 284400, Tempo, 495540
1, 284400, Note_on_c, 0, 61, 53
1, 284420, Tempo, 510638
1, 284490, Note_on_c, 0, 61, 0
1, 284520, Tempo, 462392
1, 284520, Note_on_c, 0, 75, 62
1, 284520, Note_on_c, 0, 66, 55
1, 284520, Note_on_c, 0, 63, 55
1, 284600, Tempo, 504838
1, 284610, Note_on_c, 0, 63, 0
1, 284610, Note_on_c, 0, 75, 0
1, 284610, Note_on_c, 0, 66, 0
1, 284640, Tempo, 490838
1, 284640, Note_on_c, 0, 61, 55
1, 284730, Note_on_c, 0, 61, 0
1, 284760, Note_on_c, 0, 60, 47
1, 284760, Note_on_c, 0, 63, 47
1, 284760, Note_on_c, 0, 66, 53
1, 284760, Note_on_c, 0, 72, 53
1, 284850, Note_on_c, 0, 72, 0
1, 284850, Note_on_c, 0, 63, 0
1, 284850, Note_on_c, 0, 60, 0
1, 284850, Note_on_c, 0, 66, 0
1, 284880, Note_on_c, 0, 61, 47
1, 284970, Note_on_c, 0, 61, 0
1, 285000, Tempo, 556586
1, 285000, Note_on_c, 0, 60, 41
1, 285000, Note_on_c, 0, 63, 41
1, 285000, Note_on_c, 0, 66, 45
1, 285000, Note_on_c, 0, 72, 45
1, 285014, Control_c, 0, 64, 0
1, 285090, Note_on_c, 0, 72, 0
1, 285090, Note_on_c, 0, 63, 0
1, 285090, Note_on_c, 0, 60, 0
1, 285090, Note_on_c, 0, 66, 0
1, 285100, Tempo, 512864
1, 285120, Tempo, 501882
1, 285120, Note_on_c, 0, 37, 0
1, 285120, Note_on_c, 0, 44, 0
1, 285120, Note_on_c, 0, 37, 49
1, 285120, Note_on_c, 0, 44, 59
1, 285160, Tempo, 499750
1, 285200, Tempo, 497636
1, 285230, Control_c, 0, 64, 127
1, 285240, Tempo, 495540
1, 285240, Note_on_c, 0, 58, 44
1, 285240, Note_on_c, 0, 61, 44
1, 285240, Note_on_c, 0, 65, 50
1, 285240, Note_on_c, 0, 70, 50
1, 285280, Tempo, 493462
1, 285320, Tempo, 491400
1, 285330, Note_on_c, 0, 70, 0
1, 285330, Note_on_c, 0, 61, 0
1, 285330, Note_on_c, 0, 58, 0
1, 285330, Note_on_c, 0, 65, 0
1, 285360, Tempo, 489356
1, 285360, Note_on_c, 0, 56, 53
1, 285400, Tempo, 487329
1, 285440, Tempo, 485319
1, 285450, Note_on_c, 0, 56, 0
1, 285480, Tempo, 483325
1, 285480, Note_on_c, 0, 61, 44
1, 285480, Note_on_c, 0, 65, 44
1, 285480, Note_on_c, 0, 68, 50
1, 285480, Note_on_c, 0, 73, 50
1, 285520, Tempo, 481309
1, 285560, Tempo, 479348
1, 285570, Note_on_c, 0, 73, 0
1, 285570, Note_on_c, 0, 65, 0
1, 285570, Note_on_c, 0, 61, 0
1, 285570, Note_on_c, 0, 68, 0
1, 285600, Tempo, 477403
1, 285600, Note_on_c, 0, 60, 53
1, 285660, Tempo, 479348
1, 285690, Note_on_c, 0, 60, 0
1, 285720, Tempo, 481309
1, 285720, Note_on_c, 0, 61, 44
1, 285720, Note_on_c, 0, 65, 44
1, 285720, Note_on_c, 0, 68, 50
1, 285720, Note_on_c, 0, 73, 50
1, 285780, Tempo, 483325
1, 285810, Note_on_c, 0, 73, 0
1, 285810, Note_on_c, 0, 65, 0
1, 285810, Note_on_c, 0, 61, 0
1, 285810, Note_on_c, 0, 68, 0
1, 285840, Tempo, 485319
1, 285840, Note_on_c, 0, 57, 53
1, 285880, Tempo, 487329
1, 285930, Note_on_c, 0, 57, 0
1, 285940, Tempo, 489356
1, 285960, Note_on_c, 0, 67, 53
1, 285960, Note_on_c, 0, 70, 53
1, 285960, Note_on_c, 0, 64, 53
1, 285960, Note_on_c, 0, 58, 46
1, 286000, Tempo, 491400
1, 286050, Note_on_c, 0, 58, 0
1, 286050, Note_on_c, 0, 70, 0
1, 286050, Note_on_c, 0, 67, 0
1, 286050, Note_on_c, 0, 64, 0
1, 286060, Tempo, 493462
1, 286080, Note_on_c, 0, 60, 62
1, 286100, Tempo, 495540
1, 286160, Tempo, 508431
1, 286170, Note_on_c, 0, 60, 0
1, 286200, Tempo, 492773
1, 286200, Note_on_c, 0, 61, 55
1, 286200, Note_on_c, 0, 64, 55
1, 286200, Note_on_c, 0, 67, 62
1, 286200, Note_on_c, 0, 73, 62
1, 286290, Note_on_c, 0, 73, 0
1, 286290, Note_on_c, 0, 64, 0
1, 286290, Note_on_c, 0, 61, 0
1, 286290, Note_on_c, 0, 67, 0
1, 286320, Tempo, 491400
1, 286320, Note_on_c, 0, 60, 52
1, 286410, Note_on_c, 0, 60, 0
1, 286440, Tempo, 618111
1, 286440, Note_on_c, 0, 58, 47
1, 286440, Note_on_c, 0, 64, 47
1, 286440, Note_on_c, 0, 67, 53
1, 286440, Note_on_c, 0, 70, 53
1, 286485, Control_c, 0, 64, 0
1, 286530, Note_on_c, 0, 70, 0
1, 286530, Note_on_c, 0, 64, 0
1, 286530, Note_on_c, 0, 58, 0
1, 286530, Note_on_c, 0, 67, 0
1, 286560, Tempo, 491400
1, 286560, Note_on_c, 0, 44, 0
1, 286560, Note_on_c, 0, 37, 0
1, 286560, Note_on_c, 0, 37, 53
1, 286560, Note_on_c, 0, 44, 63
1, 286620, Tempo, 489356
1, 286680, Tempo, 487329
1, 286680, Note_on_c, 0, 60, 44
1, 286680, Note_on_c, 0, 63, 44
1, 286680, Note_on_c, 0, 66, 49
1, 286680, Note_on_c, 0, 72, 54
1, 286740, Tempo, 485319
1, 286751, Control_c, 0, 64, 127
1, 286770, Note_on_c, 0, 72, 0
1, 286770, Note_on_c, 0, 63, 0
1, 286770, Note_on_c, 0, 60, 0
1, 286770, Note_on_c, 0, 66, 0
1, 286800, Tempo, 483325
1, 286800, Note_on_c, 0, 61, 59
1, 286860, Tempo, 481309
1, 286890, Note_on_c, 0, 61, 0
1, 286920, Tempo, 479348
1, 286920, Note_on_c, 0, 60, 43
1, 286920, Note_on_c, 0, 63, 43
1, 286920, Note_on_c, 0, 66, 47
1, 286920, Note_on_c, 0, 72, 53
1, 286980, Tempo, 477403
1, 287010, Note_on_c, 0, 72, 0
1, 287010, Note_on_c, 0, 63, 0
1, 287010, Note_on_c, 0, 60, 0
1, 287010, Note_on_c, 0, 66, 0
1, 287040, Tempo, 475473
1, 287040, Note_on_c, 0, 58, 57
1, 287080, Tempo, 477403
1, 287120, Tempo, 479348
1, 287130, Note_on_c, 0, 58, 0
1, 287140, Tempo, 481309
1, 287160, Note_on_c, 0, 60, 47
1, 287160, Note_on_c, 0, 63, 47
1, 287160, Note_on_c, 0, 66, 53
1, 287160, Note_on_c, 0, 72, 61
1, 287180, Tempo, 483325
1, 287200, Tempo, 485319
1, 287240, Tempo, 487329
1, 287250, Note_on_c, 0, 72, 0
1, 287250, Note_on_c, 0, 63, 0
1, 287250, Note_on_c, 0, 60, 0
1, 287250, Note_on_c, 0, 66, 0
1, 287260, Tempo, 489356
1, 287280, Tempo, 519660
1, 287280, Note_on_c, 0, 61, 59
1, 287370, Note_on_c, 0, 61, 0
1, 287400, Note_on_c, 0, 75, 62
1, 287400, Note_on_c, 0, 66, 49
1, 287400, Note_on_c, 0, 63, 49
1, 287440, Tempo, 502807
1, 287480, Tempo, 504838
1, 287490, Note_on_c, 0, 63, 0
1, 287490, Note_on_c, 0, 75, 0
1, 287490, Note_on_c, 0, 66, 0
1, 287520, Tempo, 490838
1, 287520, Note_on_c, 0, 61, 62
1, 287610, Note_on_c, 0, 61, 0
1, 287640, Tempo, 466056
1, 287640, Note_on_c, 0, 60, 42
1, 287640, Note_on_c, 0, 63, 42
1, 287640, Note_on_c, 0, 66, 46
1, 287640, Note_on_c, 0, 72, 53
1, 287730, Note_on_c, 0, 72, 0
1, 287730, Note_on_c, 0, 63, 0
1, 287730, Note_on_c, 0, 60, 0
1, 287730, Note_on_c, 0, 66, 0
1, 287760, Note_on_c, 0, 61, 53
1, 287850, Note_on_c, 0, 61, 0
1, 287880, Tempo, 618111
1, 287880, Note_on_c, 0, 60, 40
1, 287880, Note_on_c, 0, 63, 40
1, 287880, Note_on_c, 0, 66, 44
1, 287880, Note_on_c, 0, 72, 50
1, 287958, Control_c, 0, 64, 0
1, 287970, Note_on_c, 0, 72, 0
1, 287970, Note_on_c, 0, 63, 0
1, 287970, Note_on_c, 0, 60, 0
1, 287970, Note_on_c, 0, 66, 0
1, 288000, Tempo, 495540
1, 288000, Note_on_c, 0, 37, 0
1, 288000, Note_on_c, 0, 44, 0
1, 288000, Note_on_c, 0, 37, 53
1, 288000, Note_on_c, 0, 44, 63
1, 288060, Tempo, 493462
1, 288088, Control_c, 0, 64, 127
1, 288120, Tempo, 491400
1, 288120, Note_on_c, 0, 58, 44
1, 288120, Note_on_c, 0, 61, 44
1, 288120, Note_on_c, 0, 65, 49
1, 288120, Note_on_c, 0, 70, 54
1, 288180, Tempo, 489356
1, 288210, Note_on_c, 0, 70, 0
1, 288210, Note_on_c, 0, 61, 0
1, 288210, Note_on_c, 0, 58, 0
1, 288210, Note_on_c, 0, 65, 0
1, 288240, Tempo, 487329
1, 288240, Note_on_c, 0, 56, 59
1, 288300, Tempo, 485319
1, 288330, Note_on_c, 0, 56, 0
1, 288360, Tempo, 483325
1, 288360, Note_on_c, 0, 61, 43
1, 288360, Note_on_c, 0, 65, 43
1, 288360, Note_on_c, 0, 68, 53
1, 288360, Note_on_c, 0, 73, 53
1, 288420, Tempo, 481309
1, 288450, Note_on_c, 0, 73, 0
1, 288450, Note_on_c, 0, 65, 0
1, 288450, Note_on_c, 0, 61, 0
1, 288450, Note_on_c, 0, 68, 0
1, 288480, Tempo, 479348
1, 288480, Note_on_c, 0, 60, 57
1, 288540, Tempo, 481309
1, 288570, Note_on_c, 0, 60, 0
1, 288580, Tempo, 483325
1, 288600, Note_on_c, 0, 61, 43
1, 288600, Note_on_c, 0, 65, 43
1, 288600, Note_on_c, 0, 68, 47
1, 288600, Note_on_c, 0, 73, 53
1, 288620, Tempo, 485319
1, 288660, Tempo, 487329
1, 288690, Note_on_c, 0, 73, 0
1, 288690, Note_on_c, 0, 65, 0
1, 288690, Note_on_c, 0, 61, 0
1, 288690, Note_on_c, 0, 68, 0
1, 288700, Tempo, 489356
1, 288720, Note_on_c, 0, 57, 59
1, 288760, Tempo, 491400
1, 288800, Tempo, 493462
1, 288810, Note_on_c, 0, 57, 0
1, 288840, Tempo, 495540
1, 288840, Note_on_c, 0, 64, 44
1, 288840, Note_on_c, 0, 67, 49
1, 288840, Note_on_c, 0, 70, 54
1, 288840, Note_on_c, 0, 58, 44
1, 288880, Tempo, 497636
1, 288920, Tempo, 499750
1, 288930, Note_on_c, 0, 58, 0
1, 288930, Note_on_c, 0, 67, 0
1, 288930, Note_on_c, 0, 64, 0
1, 288930, Note_on_c, 0, 70, 0
1, 288960, Tempo, 506244
1, 288960, Note_on_c, 0, 60, 61
1, 289050, Note_on_c, 0, 60, 0
1, 289080, Tempo, 492773
1, 289080, Note_on_c, 0, 61, 52
1, 289080, Note_on_c, 0, 65, 52
1, 289080, Note_on_c, 0, 73, 65
1, 289170, Note_on_c, 0, 73, 0
1, 289170, Note_on_c, 0, 61, 0
1, 289170, Note_on_c, 0, 65, 0
1, 289200, Note_on_c, 0, 60, 56
1, 289290, Note_on_c, 0, 60, 0
1, 289320, Tempo, 584283
1, 289320, Note_on_c, 0, 58, 44
1, 289320, Note_on_c, 0, 66, 49
1, 289320, Note_on_c, 0, 70, 54
1, 289365, Control_c, 0, 64, 0
1, 289410, Note_on_c, 0, 70, 0
1, 289410, Note_on_c, 0, 58, 0
1, 289410, Note_on_c, 0, 66, 0
1, 289440, Tempo, 481309
1, 289440, Note_on_c, 0, 44, 0
1, 289440, Note_on_c, 0, 37, 0
1, 289440, Note_on_c, 0, 56, 62
1, 289440, Note_on_c, 0, 49, 62
1, 289440, Note_on_c, 0, 59, 73
1, 289540, Tempo, 479348
1, 289560, Note_on_c, 0, 65, 49
1, 289560, Note_on_c, 0, 68, 49
1, 289560, Note_on_c, 0, 71, 56
1, 289560, Note_on_c, 0, 77, 63
1, 289620, Tempo, 477403
1, 289631, Control_c, 0, 64, 127
1, 289650, Note_on_c, 0, 77, 0
1, 289650, Note_on_c, 0, 68, 0
1, 289650, Note_on_c, 0, 65, 0
1, 289650, Note_on_c, 0, 71, 0
1, 289680, Note_on_c, 0, 66, 66
1, 289720, Tempo, 475473
1, 289770, Note_on_c, 0, 66, 0
1, 289800, Tempo, 473560
1, 289800, Note_on_c, 0, 77, 63
1, 289800, Note_on_c, 0, 65, 47
1, 289800, Note_on_c, 0, 68, 47
1, 289800, Note_on_c, 0, 71, 54
1, 289880, Tempo, 471661
1, 289890, Note_on_c, 0, 71, 0
1, 289890, Note_on_c, 0, 65, 0
1, 289890, Note_on_c, 0, 77, 0
1, 289890, Note_on_c, 0, 68, 0
1, 289900, Tempo, 488878
1, 289920, Tempo, 473560
1, 289920, Note_on_c, 0, 63, 66
1, 289980, Tempo, 475473
1, 290010, Note_on_c, 0, 63, 0
1, 290020, Tempo, 477403
1, 290040, Note_on_c, 0, 65, 53
1, 290040, Note_on_c, 0, 68, 53
1, 290040, Note_on_c, 0, 71, 61
1, 290040, Note_on_c, 0, 77, 67
1, 290060, Tempo, 479348
1, 290100, Tempo, 481309
1, 290130, Note_on_c, 0, 77, 0
1, 290130, Note_on_c, 0, 68, 0
1, 290130, Note_on_c, 0, 65, 0
1, 290130, Note_on_c, 0, 71, 0
1, 290140, Tempo, 483325
1, 290160, Tempo, 519660
1, 290160, Note_on_c, 0, 66, 67
1, 290250, Note_on_c, 0, 66, 0
1, 290280, Tempo, 467909
1, 290280, Note_on_c, 0, 80, 74
1, 290280, Note_on_c, 0, 71, 65
1, 290280, Note_on_c, 0, 68, 60
1, 290370, Note_on_c, 0, 68, 0
1, 290370, Note_on_c, 0, 80, 0
1, 290370, Note_on_c, 0, 71, 0
1, 290400, Tempo, 490838
1, 290400, Note_on_c, 0, 66, 70
1, 290490, Note_on_c, 0, 66, 0
1, 290520, Tempo, 479348
1, 290520, Note_on_c, 0, 65, 52
1, 290520, Note_on_c, 0, 68, 52
1, 290520, Note_on_c, 0, 71, 57
1, 290520, Note_on_c, 0, 77, 64
1, 290610, Note_on_c, 0, 77, 0
1, 290610, Note_on_c, 0, 68, 0
1, 290610, Note_on_c, 0, 65, 0
1, 290610, Note_on_c, 0, 71, 0
1, 290640, Note_on_c, 0, 66, 62
1, 290730, Note_on_c, 0, 66, 0
1, 290760, Tempo, 537731
1, 290760, Note_on_c, 0, 65, 45
1, 290760, Note_on_c, 0, 68, 45
1, 290760, Note_on_c, 0, 71, 51
1, 290760, Note_on_c, 0, 77, 57
1, 290838, Control_c, 0, 64, 0
1, 290850, Note_on_c, 0, 77, 0
1, 290850, Note_on_c, 0, 68, 0
1, 290850, Note_on_c, 0, 65, 0
1, 290850, Note_on_c, 0, 71, 0
1, 290880, Tempo, 487329
1, 290880, Note_on_c, 0, 56, 0
1, 290880, Note_on_c, 0, 49, 0
1, 290880, Note_on_c, 0, 59, 0
1, 290880, Note_on_c, 0, 49, 62
1, 290880, Note_on_c, 0, 54, 62
1, 290880, Note_on_c, 0, 58, 73
1, 290940, Tempo, 485319
1, 290968, Control_c, 0, 64, 127
1, 290980, Tempo, 483325
1, 291000, Note_on_c, 0, 63, 49
1, 291000, Note_on_c, 0, 66, 49
1, 291000, Note_on_c, 0, 70, 56
1, 291000, Note_on_c, 0, 75, 63
1, 291040, Tempo, 481309
1, 291080, Tempo, 479348
1, 291090, Note_on_c, 0, 75, 0
1, 291090, Note_on_c, 0, 66, 0
1, 291090, Note_on_c, 0, 63, 0
1, 291090, Note_on_c, 0, 70, 0
1, 291120, Note_on_c, 0, 61, 66
1, 291140, Tempo, 477403
1, 291180, Tempo, 475473
1, 291210, Note_on_c, 0, 61, 0
1, 291240, Tempo, 473560
1, 291240, Note_on_c, 0, 66, 47
1, 291240, Note_on_c, 0, 70, 47
1, 291240, Note_on_c, 0, 73, 54
1, 291240, Note_on_c, 0, 78, 62
1, 291280, Tempo, 471661
1, 291330, Note_on_c, 0, 78, 0
1, 291330, Note_on_c, 0, 70, 0
1, 291330, Note_on_c, 0, 66, 0
1, 291330, Note_on_c, 0, 73, 0
1, 291340, Tempo, 469778
1, 291360, Note_on_c, 0, 65, 65
1, 291380, Tempo, 467909
1, 291440, Tempo, 469778
1, 291450, Note_on_c, 0, 65, 0
1, 291480, Note_on_c, 0, 66, 47
1, 291480, Note_on_c, 0, 70, 47
1, 291480, Note_on_c, 0, 73, 54
1, 291480, Note_on_c, 0, 78, 62
1, 291500, Tempo, 471661
1, 291560, Tempo, 473560
1, 291570, Note_on_c, 0, 78, 0
1, 291570, Note_on_c, 0, 70, 0
1, 291570, Note_on_c, 0, 66, 0
1, 291570, Note_on_c, 0, 73, 0
1, 291600, Tempo, 475473
1, 291600, Note_on_c, 0, 62, 66
1, 291660, Tempo, 477403
1, 291690, Note_on_c, 0, 62, 0
1, 291720, Tempo, 479348
1, 291720, Note_on_c, 0, 66, 49
1, 291720, Note_on_c, 0, 70, 56
1, 291720, Note_on_c, 0, 75, 63
1, 291720, Note_on_c, 0, 63, 49
1, 291780, Tempo, 481309
1, 291810, Note_on_c, 0, 63, 0
1, 291810, Note_on_c, 0, 70, 0
1, 291810, Note_on_c, 0, 66, 0
1, 291810, Note_on_c, 0, 75, 0
1, 291820, Tempo, 483325
1, 291840, Tempo, 495540
1, 291840, Note_on_c, 0, 65, 74
1, 291930, Note_on_c, 0, 65, 0
1, 291960, Tempo, 492773
1, 291960, Note_on_c, 0, 66, 62
1, 291960, Note_on_c, 0, 70, 62
1, 291960, Note_on_c, 0, 78, 79
1, 292050, Note_on_c, 0, 78, 0
1, 292050, Note_on_c, 0, 66, 0
1, 292050, Note_on_c, 0, 70, 0
1, 292080, Tempo, 479348
1, 292080, Note_on_c, 0, 65, 64
1, 292170, Note_on_c, 0, 65, 0
1, 292200, Tempo, 567376
1, 292200, Note_on_c, 0, 66, 49
1, 292200, Note_on_c, 0, 63, 49
1, 292200, Note_on_c, 0, 70, 56
1, 292200, Note_on_c, 0, 75, 63
1, 292245, Control_c, 0, 64, 0
1, 292290, Note_on_c, 0, 75, 0
1, 292290, Note_on_c, 0, 63, 0
1, 292290, Note_on_c, 0, 66, 0
1, 292290, Note_on_c, 0, 70, 0
1, 292320, Tempo, 487329
1, 292320, Note_on_c, 0, 49, 0
1, 292320, Note_on_c, 0, 54, 0
1, 292320, Note_on_c, 0, 58, 0
1, 292320, Note_on_c, 0, 52, 67
1, 292320, Note_on_c, 0, 49, 67
1, 292320, Note_on_c, 0, 58, 81
1, 292380, Tempo, 485319
1, 292440, Tempo, 483325
1, 292440, Note_on_c, 0, 67, 54
1, 292440, Note_on_c, 0, 70, 54
1, 292440, Note_on_c, 0, 73, 62
1, 292440, Note_on_c, 0, 79, 69
1, 292480, Tempo, 481309
1, 292511, Control_c, 0, 64, 127
1, 292530, Note_on_c, 0, 79, 0
1, 292530, Note_on_c, 0, 70, 0
1, 292530, Note_on_c, 0, 67, 0
1, 292530, Note_on_c, 0, 73, 0
1, 292540, Tempo, 479348
1, 292560, Note_on_c, 0, 68, 73
1, 292580, Tempo, 477403
1, 292640, Tempo, 475473
1, 292650, Note_on_c, 0, 68, 0
1, 292680, Tempo, 473560
1, 292680, Note_on_c, 0, 79, 70
1, 292680, Note_on_c, 0, 67, 53
1, 292680, Note_on_c, 0, 70, 53
1, 292680, Note_on_c, 0, 73, 60
1, 292740, Tempo, 471661
1, 292770, Note_on_c, 0, 73, 0
1, 292770, Note_on_c, 0, 67, 0
1, 292770, Note_on_c, 0, 79, 0
1, 292770, Note_on_c, 0, 70, 0
1, 292780, Tempo, 469778
1, 292800, Tempo, 469778
1, 292800, Note_on_c, 0, 65, 73
1, 292840, Tempo, 471661
1, 292880, Tempo, 473560
1, 292890, Note_on_c, 0, 65, 0
1, 292920, Tempo, 475473
1, 292920, Note_on_c, 0, 67, 61
1, 292920, Note_on_c, 0, 70, 61
1, 292920, Note_on_c, 0, 73, 66
1, 292920, Note_on_c, 0, 79, 75
1, 292960, Tempo, 477403
1, 293000, Tempo, 479348
1, 293010, Note_on_c, 0, 79, 0
1, 293010, Note_on_c, 0, 70, 0
1, 293010, Note_on_c, 0, 67, 0
1, 293010, Note_on_c, 0, 73, 0
1, 293020, Tempo, 481309
1, 293040, Tempo, 519660
1, 293040, Note_on_c, 0, 68, 74
1, 293130, Note_on_c, 0, 68, 0
1, 293160, Tempo, 473560
1, 293160, Note_on_c, 0, 82, 81
1, 293160, Note_on_c, 0, 73, 72
1, 293160, Note_on_c, 0, 70, 63
1, 293240, Tempo, 504838
1, 293250, Note_on_c, 0, 70, 0
1, 293250, Note_on_c, 0, 82, 0
1, 293250, Note_on_c, 0, 73, 0
1, 293280, Tempo, 490838
1, 293280, Note_on_c, 0, 68, 77
1, 293370, Note_on_c, 0, 68, 0
1, 293400, Note_on_c, 0, 67, 62
1, 293400, Note_on_c, 0, 70, 62
1, 293400, Note_on_c, 0, 73, 69
1, 293400, Note_on_c, 0, 79, 77
1, 293490, Note_on_c, 0, 79, 0
1, 293490, Note_on_c, 0, 70, 0
1, 293490, Note_on_c, 0, 67, 0
1, 293490, Note_on_c, 0, 73, 0
1, 293520, Note_on_c, 0, 68, 66
1, 293610, Note_on_c, 0, 68, 0
1, 293640, Tempo, 537731
1, 293640, Note_on_c, 0, 67, 53
1, 293640, Note_on_c, 0, 70, 53
1, 293640, Note_on_c, 0, 73, 60
1, 293640, Note_on_c, 0, 79, 66
1, 293718, Control_c, 0, 64, 0
1, 293730, Note_on_c, 0, 79, 0
1, 293730, Note_on_c, 0, 70, 0
1, 293730, Note_on_c, 0, 67, 0
1, 293730, Note_on_c, 0, 73, 0
1, 293760, Tempo, 491400
1, 293760, Note_on_c, 0, 52, 0
1, 293760, Note_on_c, 0, 49, 0
1, 293760, Note_on_c, 0, 58, 0
1, 293760, Note_on_c, 0, 49, 71
1, 293760, Note_on_c, 0, 53, 71
1, 293760, Note_on_c, 0, 58, 84
1, 293800, Tempo, 489356
1, 293840, Tempo, 487329
1, 293848, Control_c, 0, 64, 127
1, 293880, Tempo, 485319
1, 293880, Note_on_c, 0, 65, 60
1, 293880, Note_on_c, 0, 70, 60
1, 293880, Note_on_c, 0, 73, 66
1, 293880, Note_on_c, 0, 77, 75
1, 293920, Tempo, 483325
1, 293960, Tempo, 481309
1, 293970, Note_on_c, 0, 77, 0
1, 293970, Note_on_c, 0, 70, 0
1, 293970, Note_on_c, 0, 65, 0
1, 293970, Note_on_c, 0, 73, 0
1, 294000, Tempo, 479348
1, 294000, Note_on_c, 0, 64, 79
1, 294040, Tempo, 477403
1, 294080, Tempo, 475473
1, 294090, Note_on_c, 0, 64, 0
1, 294120, Tempo, 473560
1, 294120, Note_on_c, 0, 68, 56
1, 294120, Note_on_c, 0, 70, 56
1, 294120, Note_on_c, 0, 73, 63
1, 294120, Note_on_c, 0, 80, 71
1, 294160, Tempo, 471661
1, 294200, Tempo, 469778
1, 294210, Note_on_c, 0, 80, 0
1, 294210, Note_on_c, 0, 70, 0
1, 294210, Note_on_c, 0, 68, 0
1, 294210, Note_on_c, 0, 73, 0
1, 294240, Tempo, 467909
1, 294240, Note_on_c, 0, 67, 73
1, 294260, Tempo, 466056
1, 294300, Tempo, 467909
1, 294330, Note_on_c, 0, 67, 0
1, 294340, Tempo, 469778
1, 294360, Note_on_c, 0, 68, 56
1, 294360, Note_on_c, 0, 70, 56
1, 294360, Note_on_c, 0, 73, 63
1, 294360, Note_on_c, 0, 80, 71
1, 294380, Tempo, 471661
1, 294400, Tempo, 473560
1, 294440, Tempo, 475473
1, 294450, Note_on_c, 0, 80, 0
1, 294450, Note_on_c, 0, 70, 0
1, 294450, Note_on_c, 0, 68, 0
1, 294450, Note_on_c, 0, 73, 0
1, 294480, Tempo, 477403
1, 294480, Note_on_c, 0, 64, 81
1, 294520, Tempo, 479348
1, 294540, Tempo, 481309
1, 294570, Note_on_c, 0, 64, 0
1, 294580, Tempo, 483325
1, 294600, Note_on_c, 0, 70, 60
1, 294600, Note_on_c, 0, 73, 66
1, 294600, Note_on_c, 0, 77, 75
1, 294600, Note_on_c, 0, 66, 60
1, 294620, Tempo, 485319
1, 294660, Tempo, 487329
1, 294680, Tempo, 489356
1, 294690, Note_on_c, 0, 66, 0
1, 294690, Note_on_c, 0, 73, 0
1, 294690, Note_on_c, 0, 70, 0
1, 294690, Note_on_c, 0, 77, 0
1, 294700, Tempo, 511073
1, 294720, Note_on_c, 0, 67, 81
1, 294810, Note_on_c, 0, 67, 0
1, 294840, Note_on_c, 0, 70, 63
1, 294840, Note_on_c, 0, 68, 63
1, 294840, Note_on_c, 0, 73, 79
1, 294840, Note_on_c, 0, 80, 79
1, 294930, Note_on_c, 0, 80, 0
1, 294930, Note_on_c, 0, 68, 0
1, 294930, Note_on_c, 0, 70, 0
1, 294930, Note_on_c, 0, 73, 0
1, 294960, Note_on_c, 0, 68, 75
1, 295050, Note_on_c, 0, 68, 0
1, 295080, Tempo, 543725
1, 295080, Note_on_c, 0, 70, 65
1, 295080, Note_on_c, 0, 65, 65
1, 295080, Note_on_c, 0, 73, 74
1, 295080, Note_on_c, 0, 77, 83
1, 295125, Control_c, 0, 64, 0
1, 295170, Note_on_c, 0, 77, 0
1, 295170, Note_on_c, 0, 65, 0
1, 295170, Note_on_c, 0, 70, 0
1, 295170, Note_on_c, 0, 73, 0
1, 295180, Tempo, 481309
1, 295200, Note_on_c, 0, 49, 0
1, 295200, Note_on_c, 0, 53, 0
1, 295200, Note_on_c, 0, 58, 0
1, 295200, Note_on_c, 0, 49, 70
1, 295200, Note_on_c, 0, 55, 70
1, 295200, Note_on_c, 0, 58, 70
1, 295200, Note_on_c, 0, 63, 84
1, 295240, Tempo, 479348
1, 295300, Tempo, 477403
1, 295320, Note_on_c, 0, 75, 59
1, 295320, Note_on_c, 0, 79, 59
1, 295320, Note_on_c, 0, 82, 65
1, 295320, Note_on_c, 0, 87, 73
1, 295320, Control_c, 0, 64, 127
1, 295340, Tempo, 475473
1, 295400, Tempo, 473560
1, 295410, Note_on_c, 0, 87, 0
1, 295410, Note_on_c, 0, 82, 0
1, 295410, Note_on_c, 0, 75, 0
1, 295410, Note_on_c, 0, 79, 0
1, 295440, Tempo, 471661
1, 295440, Note_on_c, 0, 67, 60
1, 295440, Note_on_c, 0, 70, 60
1, 295440, Note_on_c, 0, 76, 69
1, 295500, Tempo, 469778
1, 295530, Note_on_c, 0, 76, 0
1, 295530, Note_on_c, 0, 67, 0
1, 295530, Note_on_c, 0, 70, 0
1, 295560, Tempo, 467909
1, 295560, Note_on_c, 0, 75, 59
1, 295560, Note_on_c, 0, 79, 59
1, 295560, Note_on_c, 0, 82, 65
1, 295560, Note_on_c, 0, 87, 73
1, 295600, Tempo, 466056
1, 295650, Note_on_c, 0, 87, 0
1, 295650, Note_on_c, 0, 82, 0
1, 295650, Note_on_c, 0, 75, 0
1, 295650, Note_on_c, 0, 79, 0
1, 295660, Tempo, 464217
1, 295680, Note_on_c, 0, 67, 60
1, 295680, Note_on_c, 0, 70, 60
1, 295680, Note_on_c, 0, 73, 67
1, 295700, Tempo, 462392
1, 295770, Note_on_c, 0, 73, 0
1, 295770, Note_on_c, 0, 67, 0
1, 295770, Note_on_c, 0, 70, 0
1, 295800, Note_on_c, 0, 75, 66
1, 295800, Note_on_c, 0, 79, 66
1, 295800, Note_on_c, 0, 82, 75
1, 295800, Note_on_c, 0, 87, 84
1, 295890, Note_on_c, 0, 87, 0
1, 295890, Note_on_c, 0, 82, 0
1, 295890, Note_on_c, 0, 75, 0
1, 295890, Note_on_c, 0, 79, 0
1, 295900, Tempo, 521966
1, 295920, Tempo, 512864
1, 295920, Note_on_c, 0, 67, 60
1, 295920, Note_on_c, 0, 70, 60
1, 295920, Note_on_c, 0, 76, 69
1, 296010, Note_on_c, 0, 76, 0
1, 296010, Note_on_c, 0, 67, 0
1, 296010, Note_on_c, 0, 70, 0
1, 296040, Tempo, 462392
1, 296040, Note_on_c, 0, 85, 64
1, 296040, Note_on_c, 0, 90, 81
1, 296040, Note_on_c, 0, 82, 64
1, 296040, Note_on_c, 0, 78, 64
1, 296120, Tempo, 504838
1, 296130, Note_on_c, 0, 78, 0
1, 296130, Note_on_c, 0, 82, 0
1, 296130, Note_on_c, 0, 85, 0
1, 296130, Note_on_c, 0, 90, 0
1, 296160, Tempo, 490838
1, 296160, Note_on_c, 0, 67, 60
1, 296160, Note_on_c, 0, 70, 60
1, 296160, Note_on_c, 0, 76, 71
1, 296250, Note_on_c, 0, 76, 0
1, 296250, Note_on_c, 0, 67, 0
1, 296250, Note_on_c, 0, 70, 0
1, 296280, Note_on_c, 0, 75, 63
1, 296280, Note_on_c, 0, 79, 63
1, 296280, Note_on_c, 0, 82, 70
1, 296280, Note_on_c, 0, 87, 80
1, 296370, Note_on_c, 0, 87, 0
1, 296370, Note_on_c, 0, 82, 0
1, 296370, Note_on_c, 0, 75, 0
1, 296370, Note_on_c, 0, 79, 0
1, 296400, Note_on_c, 0, 67, 60
1, 296400, Note_on_c, 0, 70, 60
1, 296400, Note_on_c, 0, 76, 62
1, 296490, Note_on_c, 0, 76, 0
1, 296490, Note_on_c, 0, 67, 0
1, 296490, Note_on_c, 0, 70, 0
1, 296520, Tempo, 517375
1, 296520, Note_on_c, 0, 75, 53
1, 296520, Note_on_c, 0, 79, 53
1, 296520, Note_on_c, 0, 82, 61
1, 296520, Note_on_c, 0, 87, 66
1, 296534, Control_c, 0, 64, 0
1, 296610, Note_on_c, 0, 87, 0
1, 296610, Note_on_c, 0, 82, 0
1, 296610, Note_on_c, 0, 75, 0
1, 296610, Note_on_c, 0, 79, 0
1, 296640, Tempo, 481309
1, 296640, Note_on_c, 0, 58, 0
1, 296640, Note_on_c, 0, 49, 0
1, 296640, Note_on_c, 0, 55, 0
1, 296640, Note_on_c, 0, 63, 0
1, 296640, Note_on_c, 0, 49, 70
1, 296640, Note_on_c, 0, 54, 70
1, 296640, Note_on_c, 0, 58, 70
1, 296640, Note_on_c, 0, 64, 84
1, 296700, Tempo, 479348
1, 296750, Control_c, 0, 64, 127
1, 296760, Tempo, 477403
1, 296760, Note_on_c, 0, 73, 59
1, 296760, Note_on_c, 0, 78, 59
1, 296760, Note_on_c, 0, 82, 65
1, 296760, Note_on_c, 0, 85, 73
1, 296820, Tempo, 475473
1, 296850, Note_on_c, 0, 85, 0
1, 296850, Note_on_c, 0, 82, 0
1, 296850, Note_on_c, 0, 73, 0
1, 296850, Note_on_c, 0, 78, 0
1, 296880, Tempo, 473560
1, 296880, Note_on_c, 0, 66, 60
1, 296880, Note_on_c, 0, 70, 60
1, 296880, Note_on_c, 0, 72, 69
1, 296920, Tempo, 471661
1, 296970, Note_on_c, 0, 72, 0
1, 296970, Note_on_c, 0, 66, 0
1, 296970, Note_on_c, 0, 70, 0
1, 296980, Tempo, 469778
1, 297000, Note_on_c, 0, 76, 59
1, 297000, Note_on_c, 0, 82, 59
1, 297000, Note_on_c, 0, 85, 65
1, 297000, Note_on_c, 0, 88, 73
1, 297040, Tempo, 467909
1, 297090, Note_on_c, 0, 88, 0
1, 297090, Note_on_c, 0, 85, 0
1, 297090, Note_on_c, 0, 76, 0
1, 297090, Note_on_c, 0, 82, 0
1, 297100, Tempo, 466056
1, 297120, Note_on_c, 0, 66, 57
1, 297120, Note_on_c, 0, 70, 57
1, 297120, Note_on_c, 0, 75, 67
1, 297140, Tempo, 464217
1, 297210, Note_on_c, 0, 75, 0
1, 297210, Note_on_c, 0, 66, 0
1, 297210, Note_on_c, 0, 70, 0
1, 297240, Note_on_c, 0, 76, 59
1, 297240, Note_on_c, 0, 82, 59
1, 297240, Note_on_c, 0, 85, 65
1, 297240, Note_on_c, 0, 88, 73
1, 297330, Note_on_c, 0, 88, 0
1, 297330, Note_on_c, 0, 85, 0
1, 297330, Note_on_c, 0, 76, 0
1, 297330, Note_on_c, 0, 82, 0
1, 297360, Note_on_c, 0, 66, 60
1, 297360, Note_on_c, 0, 70, 60
1, 297360, Note_on_c, 0, 72, 69
1, 297450, Note_on_c, 0, 72, 0
1, 297450, Note_on_c, 0, 66, 0
1, 297450, Note_on_c, 0, 70, 0
1, 297480, Note_on_c, 0, 82, 69
1, 297480, Note_on_c, 0, 85, 79
1, 297480, Note_on_c, 0, 78, 69
1, 297480, Note_on_c, 0, 73, 62
1, 297570, Note_on_c, 0, 73, 0
1, 297570, Note_on_c, 0, 78, 0
1, 297570, Note_on_c, 0, 82, 0
1, 297570, Note_on_c, 0, 85, 0
1, 297600, Tempo, 473560
1, 297600, Note_on_c, 0, 66, 66
1, 297600, Note_on_c, 0, 70, 66
1, 297600, Note_on_c, 0, 75, 73
1, 297690, Note_on_c, 0, 75, 0
1, 297690, Note_on_c, 0, 66, 0
1, 297690, Note_on_c, 0, 70, 0
1, 297720, Tempo, 492773
1, 297720, Note_on_c, 0, 76, 66
1, 297720, Note_on_c, 0, 82, 66
1, 297720, Note_on_c, 0, 85, 74
1, 297720, Note_on_c, 0, 88, 83
1, 297810, Note_on_c, 0, 88, 0
1, 297810, Note_on_c, 0, 85, 0
1, 297810, Note_on_c, 0, 76, 0
1, 297810, Note_on_c, 0, 82, 0
1, 297840, Tempo, 491400
1, 297840, Note_on_c, 0, 66, 55
1, 297840, Note_on_c, 0, 70, 55
1, 297840, Note_on_c, 0, 75, 66
1, 297930, Note_on_c, 0, 75, 0
1, 297930, Note_on_c, 0, 66, 0
1, 297930, Note_on_c, 0, 70, 0
1, 297960, Tempo, 533855
1, 297960, Note_on_c, 0, 73, 63
1, 297960, Note_on_c, 0, 78, 63
1, 297960, Note_on_c, 0, 82, 70
1, 297960, Note_on_c, 0, 85, 80
1, 298005, Control_c, 0, 64, 0
1, 298050, Note_on_c, 0, 85, 0
1, 298050, Note_on_c, 0, 82, 0
1, 298050, Note_on_c, 0, 73, 0
1, 298050, Note_on_c, 0, 78, 0
1, 298080, Tempo, 481309
1, 298080, Note_on_c, 0, 58, 0
1, 298080, Note_on_c, 0, 49, 0
1, 298080, Note_on_c, 0, 54, 0
1, 298080, Note_on_c, 0, 64, 0
1, 298080, Note_on_c, 0, 49, 70
1, 298080, Note_on_c, 0, 55, 70
1, 298080, Note_on_c, 0, 58, 70
1, 298080, Note_on_c, 0, 63, 84
1, 298140, Tempo, 479348
1, 298180, Tempo, 477403
1, 298200, Note_on_c, 0, 75, 59
1, 298200, Note_on_c, 0, 79, 59
1, 298200, Note_on_c, 0, 82, 65
1, 298200, Note_on_c, 0, 87, 73
1, 298200, Control_c, 0, 64, 127
1, 298220, Tempo, 475473
1, 298260, Tempo, 473560
1, 298290, Note_on_c, 0, 87, 0
1, 298290, Note_on_c, 0, 82, 0
1, 298290, Note_on_c, 0, 75, 0
1, 298290, Note_on_c, 0, 79, 0
1, 298320, Tempo, 471661
1, 298320, Note_on_c, 0, 67, 60
1, 298320, Note_on_c, 0, 70, 60
1, 298320, Note_on_c, 0, 76, 69
1, 298360, Tempo, 469778
1, 298400, Tempo, 467909
1, 298410, Note_on_c, 0, 76, 0
1, 298410, Note_on_c, 0, 67, 0
1, 298410, Note_on_c, 0, 70, 0
1, 298440, Tempo, 466056
1, 298440, Note_on_c, 0, 75, 59
1, 298440, Note_on_c, 0, 79, 59
1, 298440, Note_on_c, 0, 82, 65
1, 298440, Note_on_c, 0, 87, 73
1, 298530, Note_on_c, 0, 87, 0
1, 298530, Note_on_c, 0, 82, 0
1, 298530, Note_on_c, 0, 75, 0
1, 298530, Note_on_c, 0, 79, 0
1, 298560, Note_on_c, 0, 67, 60
1, 298560, Note_on_c, 0, 70, 60
1, 298560, Note_on_c, 0, 73, 67
1, 298650, Note_on_c, 0, 73, 0
1, 298650, Note_on_c, 0, 67, 0
1, 298650, Note_on_c, 0, 70, 0
1, 298680, Note_on_c, 0, 75, 66
1, 298680, Note_on_c, 0, 79, 66
1, 298680, Note_on_c, 0, 82, 75
1, 298680, Note_on_c, 0, 87, 84
1, 298770, Note_on_c, 0, 87, 0
1, 298770, Note_on_c, 0, 82, 0
1, 298770, Note_on_c, 0, 75, 0
1, 298770, Note_on_c, 0, 79, 0
1, 298780, Tempo, 521966
1, 298800, Tempo, 512864
1, 298800, Note_on_c, 0, 67, 60
1, 298800, Note_on_c, 0, 70, 60
1, 298800, Note_on_c, 0, 76, 69
1, 298890, Note_on_c, 0, 76, 0
1, 298890, Note_on_c, 0, 67, 0
1, 298890, Note_on_c, 0, 70, 0
1, 298920, Tempo, 462392
1, 298920, Note_on_c, 0, 85, 64
1, 298920, Note_on_c, 0, 90, 81
1, 298920, Note_on_c, 0, 82, 64
1, 298920, Note_on_c, 0, 78, 64
1, 299000, Tempo, 504838
1, 299010, Note_on_c, 0, 78, 0
1, 299010, Note_on_c, 0, 82, 0
1, 299010, Note_on_c, 0, 85, 0
1, 299010, Note_on_c, 0, 90, 0
1, 299040, Tempo, 490838
1, 299040, Note_on_c, 0, 67, 60
1, 299040, Note_on_c, 0, 70, 60
1, 299040, Note_on_c, 0, 76, 71
1, 299130, Note_on_c, 0, 76, 0
1, 299130, Note_on_c, 0, 67, 0
1, 299130, Note_on_c, 0, 70, 0
1, 299160, Note_on_c, 0, 75, 63
1, 299160, Note_on_c, 0, 79, 63
1, 299160, Note_on_c, 0, 82, 70
1, 299160, Note_on_c, 0, 87, 80
1, 299250, Note_on_c, 0, 87, 0
1, 299250, Note_on_c, 0, 82, 0
1, 299250, Note_on_c, 0, 75, 0
1, 299250, Note_on_c, 0, 79, 0
1, 299280, Note_on_c, 0, 67, 60
1, 299280, Note_on_c, 0, 70, 60
1, 299280, Note_on_c, 0, 76, 62
1, 299370, Note_on_c, 0, 76, 0
1, 299370, Note_on_c, 0, 67, 0
1, 299370, Note_on_c, 0, 70, 0
1, 299400, Tempo, 517375
1, 299400, Note_on_c, 0, 75, 53
1, 299400, Note_on_c, 0, 79, 53
1, 299400, Note_on_c, 0, 82, 61
1, 299400, Note_on_c, 0, 87, 66
1, 299414, Control_c, 0, 64, 0
1, 299490, Note_on_c, 0, 87, 0
1, 299490, Note_on_c, 0, 82, 0
1, 299490, Note_on_c, 0, 75, 0
1, 299490, Note_on_c, 0, 79, 0
1, 299520, Tempo, 483325
1, 299520, Note_on_c, 0, 58, 0
1, 299520, Note_on_c, 0, 49, 0
1, 299520, Note_on_c, 0, 55, 0
1, 299520, Note_on_c, 0, 63, 0
1, 299520, Note_on_c, 0, 49, 70
1, 299520, Note_on_c, 0, 54, 70
1, 299520, Note_on_c, 0, 58, 70
1, 299520, Note_on_c, 0, 64, 84
1, 299580, Tempo, 481309
1, 299620, Tempo, 479348
1, 299630, Control_c, 0, 64, 127
1, 299640, Note_on_c, 0, 73, 59
1, 299640, Note_on_c, 0, 78, 59
1, 299640, Note_on_c, 0, 82, 65
1, 299640, Note_on_c, 0, 85, 73
1, 299680, Tempo, 477403
1, 299720, Tempo, 475473
1, 299730, Note_on_c, 0, 85, 0
1, 299730, Note_on_c, 0, 82, 0
1, 299730, Note_on_c, 0, 73, 0
1, 299730, Note_on_c, 0, 78, 0
1, 299760, Note_on_c, 0, 66, 60
1, 299760, Note_on_c, 0, 70, 60
1, 299760, Note_on_c, 0, 72, 69
1, 299780, Tempo, 473560
1, 299820, Tempo, 471661
1, 299850, Note_on_c, 0, 72, 0
1, 299850, Note_on_c, 0, 66, 0
1, 299850, Note_on_c, 0, 70, 0
1, 299880, Tempo, 469778
1, 299880, Note_on_c, 0, 76, 59
1, 299880, Note_on_c, 0, 82, 59
1, 299880, Note_on_c, 0, 85, 65
1, 299880, Note_on_c, 0, 88, 73
1, 299920, Tempo, 467909
1, 299970, Note_on_c, 0, 88, 0
1, 299970, Note_on_c, 0, 85, 0
1, 299970, Note_on_c, 0, 76, 0
1, 299970, Note_on_c, 0, 82, 0
1, 299980, Tempo, 466056
1, 300000, Note_on_c, 0, 66, 57
1, 300000, Note_on_c, 0, 70, 57
1, 300000, Note_on_c, 0, 75, 67
1, 300020, Tempo, 464217
1, 300090, Note_on_c, 0, 75, 0
1, 300090, Note_on_c, 0, 66, 0
1, 300090, Note_on_c, 0, 70, 0
1, 300120, Note_on_c, 0, 76, 59
1, 300120, Note_on_c, 0, 82, 59
1, 300120, Note_on_c, 0, 85, 65
1, 300120, Note_on_c, 0, 88, 73
1, 300210, Note_on_c, 0, 88, 0
1, 300210, Note_on_c, 0, 85, 0
1, 300210, Note_on_c, 0, 76, 0
1, 300210, Note_on_c, 0, 82, 0
1, 300240, Note_on_c, 0, 66, 60
1, 300240, Note_on_c, 0, 70, 60
1, 300240, Note_on_c, 0, 72, 69
1, 300330, Note_on_c, 0, 72, 0
1, 300330, Note_on_c, 0, 66, 0
1, 300330, Note_on_c, 0, 70, 0
1, 300360, Note_on_c, 0, 82, 69
1, 300360, Note_on_c, 0, 85, 79
1, 300360, Note_on_c, 0, 78, 69
1, 300360, Note_on_c, 0, 73, 62
1, 300450, Note_on_c, 0, 73, 0
1, 300450, Note_on_c, 0, 78, 0
1, 300450, Note_on_c, 0, 82, 0
1, 300450, Note_on_c, 0, 85, 0
1, 300480, Tempo, 473560
1, 300480, Note_on_c, 0, 66, 66
1, 300480, Note_on_c, 0, 70, 66
1, 300480, Note_on_c, 0, 75, 73
1, 300570, Note_on_c, 0, 75, 0
1, 300570, Note_on_c, 0, 66, 0
1, 300570, Note_on_c, 0, 70, 0
1, 300600, Tempo, 492773
1, 300600, Note_on_c, 0, 76, 66
1, 300600, Note_on_c, 0, 82, 66
1, 300600, Note_on_c, 0, 85, 74
1, 300600, Note_on_c, 0, 88, 83
1, 300690, Note_on_c, 0, 88, 0
1, 300690, Note_on_c, 0, 85, 0
1, 300690, Note_on_c, 0, 76, 0
1, 300690, Note_on_c, 0, 82, 0
1, 300720, Tempo, 491400
1, 300720, Note_on_c, 0, 66, 55
1, 300720, Note_on_c, 0, 70, 55
1, 300720, Note_on_c, 0, 75, 66
1, 300810, Note_on_c, 0, 75, 0
1, 300810, Note_on_c, 0, 66, 0
1, 300810, Note_on_c, 0, 70, 0
1, 300840, Tempo, 618111
1, 300840, Note_on_c, 0, 73, 63
1, 300840, Note_on_c, 0, 78, 63
1, 300840, Note_on_c, 0, 82, 70
1, 300840, Note_on_c, 0, 85, 80
1, 300885, Control_c, 0, 64, 0
1, 300930, Note_on_c, 0, 85, 0
1, 300930, Note_on_c, 0, 82, 0
1, 300930, Note_on_c, 0, 73, 0
1, 300930, Note_on_c, 0, 78, 0
1, 300960, Key_signature, 1, "major"
1, 300960, Tempo, 473560
1, 300960, Note_on_c, 0, 58, 0
1, 300960, Note_on_c, 0, 49, 0
1, 300960, Note_on_c, 0, 54, 0
1, 300960, Note_on_c, 0, 64, 0
1, 300960, Note_on_c, 0, 47, 73
1, 300960, Note_on_c, 0, 54, 73
1, 300960, Note_on_c, 0, 57, 73
1, 300960, Note_on_c, 0, 63, 89
1, 301000, Tempo, 471661
1, 301040, Tempo, 469778
1, 301080, Tempo, 467909
1, 301080, Note_on_c, 0, 83, 57
1, 301080, Note_on_c, 0, 90, 57
1, 301080, Note_on_c, 0, 93, 65
1, 301080, Note_on_c, 0, 95, 73
1, 301080, Control_c, 0, 64, 127
1, 301120, Tempo, 466056
1, 301160, Tempo, 464217
1, 301170, Note_on_c, 0, 95, 0
1, 301170, Note_on_c, 0, 93, 0
1, 301170, Note_on_c, 0, 83, 0
1, 301170, Note_on_c, 0, 90, 0
1, 301200, Tempo, 462392
1, 301200, Note_on_c, 0, 75, 58
1, 301200, Note_on_c, 0, 78, 58
1, 301200, Note_on_c, 0, 84, 68
1, 301240, Tempo, 460547
1, 301280, Tempo, 458751
1, 301290, Note_on_c, 0, 84, 0
1, 301290, Note_on_c, 0, 75, 0
1, 301290, Note_on_c, 0, 78, 0
1, 301320, Tempo, 456969
1, 301320, Note_on_c, 0, 83, 57
1, 301320, Note_on_c, 0, 90, 57
1, 301320, Note_on_c, 0, 93, 65
1, 301320, Note_on_c, 0, 95, 73
1, 301340, Tempo, 455201
1, 301410, Note_on_c, 0, 95, 0
1, 301410, Note_on_c, 0, 93, 0
1, 301410, Note_on_c, 0, 83, 0
1, 301410, Note_on_c, 0, 90, 0
1, 301440, Note_on_c, 0, 75, 58
1, 301440, Note_on_c, 0, 78, 58
1, 301440, Note_on_c, 0, 82, 67
1, 301530, Note_on_c, 0, 82, 0
1, 301530, Note_on_c, 0, 75, 0
1, 301530, Note_on_c, 0, 78, 0
1, 301560, Note_on_c, 0, 83, 66
1, 301560, Note_on_c, 0, 90, 66
1, 301560, Note_on_c, 0, 93, 76
1, 301560, Note_on_c, 0, 95, 84
1, 301650, Note_on_c, 0, 95, 0
1, 301650, Note_on_c, 0, 93, 0
1, 301650, Note_on_c, 0, 83, 0
1, 301650, Note_on_c, 0, 90, 0
1, 301660, Tempo, 521966
1, 301680, Tempo, 512864
1, 301680, Note_on_c, 0, 75, 58
1, 301680, Note_on_c, 0, 78, 58
1, 301680, Note_on_c, 0, 84, 68
1, 301770, Note_on_c, 0, 84, 0
1, 301770, Note_on_c, 0, 75, 0
1, 301770, Note_on_c, 0, 78, 0
1, 301800, Tempo, 462392
1, 301800, Note_on_c, 0, 93, 63
1, 301800, Note_on_c, 0, 98, 80
1, 301800, Note_on_c, 0, 90, 63
1, 301800, Note_on_c, 0, 86, 63
1, 301880, Tempo, 504838
1, 301890, Note_on_c, 0, 86, 0
1, 301890, Note_on_c, 0, 90, 0
1, 301890, Note_on_c, 0, 93, 0
1, 301890, Note_on_c, 0, 98, 0
1, 301920, Tempo, 490838
1, 301920, Note_on_c, 0, 75, 58
1, 301920, Note_on_c, 0, 78, 58
1, 301920, Note_on_c, 0, 84, 70
1, 302010, Note_on_c, 0, 84, 0
1, 302010, Note_on_c, 0, 75, 0
1, 302010, Note_on_c, 0, 78, 0
1, 302040, Note_on_c, 0, 83, 61
1, 302040, Note_on_c, 0, 90, 61
1, 302040, Note_on_c, 0, 93, 70
1, 302040, Note_on_c, 0, 95, 77
1, 302130, Note_on_c, 0, 95, 0
1, 302130, Note_on_c, 0, 93, 0
1, 302130, Note_on_c, 0, 83, 0
1, 302130, Note_on_c, 0, 90, 0
1, 302160, Note_on_c, 0, 75, 58
1, 302160, Note_on_c, 0, 78, 58
1, 302160, Note_on_c, 0, 84, 59
1, 302250, Note_on_c, 0, 84, 0
1, 302250, Note_on_c, 0, 75, 0
1, 302250, Note_on_c, 0, 78, 0
1, 302280, Tempo, 517375
1, 302280, Note_on_c, 0, 83, 53
1, 302280, Note_on_c, 0, 90, 53
1, 302280, Note_on_c, 0, 93, 59
1, 302280, Note_on_c, 0, 95, 67
1, 302294, Control_c, 0, 64, 0
1, 302370, Note_on_c, 0, 95, 0
1, 302370, Note_on_c, 0, 93, 0
1, 302370, Note_on_c, 0, 83, 0
1, 302370, Note_on_c, 0, 90, 0
1, 302400, Tempo, 508087
1, 302400, Note_on_c, 0, 57, 0
1, 302400, Note_on_c, 0, 47, 0
1, 302400, Note_on_c, 0, 54, 0
1, 302400, Note_on_c, 0, 63, 0
1, 302400, Note_on_c, 0, 45, 80
1, 302400, Note_on_c, 0, 53, 80
1, 302400, Note_on_c, 0, 57, 80
1, 302400, Note_on_c, 0, 65, 89
1, 302490, Note_on_c, 0, 65, 0
1, 302490, Note_on_c, 0, 45, 0
1, 302490, Note_on_c, 0, 53, 0
1, 302490, Note_on_c, 0, 57, 0
1, 302520, Note_on_c, 0, 69, 80
1, 302520, Note_on_c, 0, 72, 86
1, 302543, Control_c, 0, 64, 127
1, 302610, Note_on_c, 0, 72, 0
1, 302610, Note_on_c, 0, 69, 0
1, 302640, Tempo, 521875
1, 302640, Note_on_c, 0, 81, 80
1, 302640, Note_on_c, 0, 77, 72
1, 302730, Note_on_c, 0, 77, 0
1, 302730, Note_on_c, 0, 81, 0
1, 302754, Tempo, 484301
1, 302760, Note_on_c, 0, 83, 95
1, 302760, Note_on_c, 0, 80, 95
1, 302780, Control_c, 0, 64, 0
1, 302850, Note_on_c, 0, 80, 0
1, 302850, Note_on_c, 0, 83, 0
1, 302863, Control_c, 0, 64, 127
1, 302880, Note_on_c, 0, 81, 63
1, 302880, Note_on_c, 0, 93, 71
1, 302880, Note_on_c, 0, 84, 63
1, 302970, Note_on_c, 0, 84, 0
1, 302970, Note_on_c, 0, 93, 0
1, 302970, Note_on_c, 0, 81, 0
1, 303000, Note_on_c, 0, 80, 75
1, 303000, Note_on_c, 0, 76, 75
1, 303021, Control_c, 0, 64, 0
1, 303090, Note_on_c, 0, 76, 0
1, 303090, Note_on_c, 0, 80, 0
1, 303120, Note_on_c, 0, 77, 69
1, 303120, Note_on_c, 0, 81, 69
1, 303120, Note_on_c, 0, 89, 75
1, 303137, Control_c, 0, 64, 127
1, 303210, Note_on_c, 0, 89, 0
1, 303210, Note_on_c, 0, 81, 0
1, 303210, Note_on_c, 0, 77, 0
1, 303240, Note_on_c, 0, 71, 70
1, 303240, Note_on_c, 0, 74, 70
1, 303330, Note_on_c, 0, 74, 0
1, 303330, Note_on_c, 0, 71, 0
1, 303360, Tempo, 489636
1, 303360, Note_on_c, 0, 72, 62
1, 303360, Note_on_c, 0, 77, 62
1, 303360, Note_on_c, 0, 84, 69
1, 303450, Note_on_c, 0, 84, 0
1, 303450, Note_on_c, 0, 77, 0
1, 303450, Note_on_c, 0, 72, 0
1, 303480, Tempo, 477631
1, 303480, Note_on_c, 0, 68, 60
1, 303480, Note_on_c, 0, 71, 66
1, 303486, Control_c, 0, 64, 0
1, 303555, Control_c, 0, 64, 127
1, 303570, Note_on_c, 0, 71, 0
1, 303570, Note_on_c, 0, 68, 0
1, 303600, Note_on_c, 0, 69, 57
1, 303600, Note_on_c, 0, 72, 57
1, 303600, Note_on_c, 0, 81, 64
1, 303690, Note_on_c, 0, 81, 0
1, 303690, Note_on_c, 0, 69, 0
1, 303720, Note_on_c, 0, 77, 61
1, 303810, Note_on_c, 0, 77, 0
1, 303840, Tempo, 473560
1, 303840, Note_on_c, 0, 72, 0
1, 303840, Control_c, 0, 64, 0
1, 303840, Note_on_c, 0, 47, 73
1, 303840, Note_on_c, 0, 54, 73
1, 303840, Note_on_c, 0, 57, 73
1, 303840, Note_on_c, 0, 63, 89
1, 303900, Tempo, 471661
1, 303960, Tempo, 469778
1, 303960, Note_on_c, 0, 71, 61
1, 303960, Note_on_c, 0, 78, 61
1, 303960, Note_on_c, 0, 81, 69
1, 303960, Note_on_c, 0, 83, 77
1, 303960, Control_c, 0, 64, 127
1, 304000, Tempo, 467909
1, 304050, Note_on_c, 0, 83, 0
1, 304050, Note_on_c, 0, 81, 0
1, 304050, Note_on_c, 0, 71, 0
1, 304050, Note_on_c, 0, 78, 0
1, 304060, Tempo, 466056
1, 304077, Note_on_c, 0, 63, 0
1, 304080, Note_on_c, 0, 63, 55
1, 304080, Note_on_c, 0, 66, 55
1, 304080, Note_on_c, 0, 72, 64
1, 304100, Tempo, 464217
1, 304160, Tempo, 462392
1, 304170, Note_on_c, 0, 72, 0
1, 304170, Note_on_c, 0, 63, 0
1, 304170, Note_on_c, 0, 66, 0
1, 304200, Tempo, 460547
1, 304200, Note_on_c, 0, 71, 61
1, 304200, Note_on_c, 0, 78, 61
1, 304200, Note_on_c, 0, 81, 69
1, 304200, Note_on_c, 0, 83, 77
1, 304260, Tempo, 458751
1, 304290, Note_on_c, 0, 83, 0
1, 304290, Note_on_c, 0, 78, 0
1, 304290, Note_on_c, 0, 71, 0
1, 304290, Note_on_c, 0, 81, 0
1, 304300, Tempo, 456969
1, 304320, Note_on_c, 0, 63, 55
1, 304320, Note_on_c, 0, 66, 55
1, 304320, Note_on_c, 0, 70, 63
1, 304410, Note_on_c, 0, 70, 0
1, 304410, Note_on_c, 0, 63, 0
1, 304410, Note_on_c, 0, 66, 0
1, 304440, Note_on_c, 0, 71, 70
1, 304440, Note_on_c, 0, 78, 70
1, 304440, Note_on_c, 0, 81, 80
1, 304440, Note_on_c, 0, 83, 89
1, 304530, Note_on_c, 0, 83, 0
1, 304530, Note_on_c, 0, 78, 0
1, 304530, Note_on_c, 0, 71, 0
1, 304530, Note_on_c, 0, 81, 0
1, 304540, Tempo, 521966
1, 304560, Tempo, 512864
1, 304560, Note_on_c, 0, 63, 55
1, 304560, Note_on_c, 0, 66, 55
1, 304560, Note_on_c, 0, 72, 64
1, 304650, Note_on_c, 0, 72, 0
1, 304650, Note_on_c, 0, 63, 0
1, 304650, Note_on_c, 0, 66, 0
1, 304680, Tempo, 462392
1, 304680, Note_on_c, 0, 81, 67
1, 304680, Note_on_c, 0, 86, 85
1, 304680, Note_on_c, 0, 78, 67
1, 304680, Note_on_c, 0, 74, 67
1, 304760, Tempo, 504838
1, 304770, Note_on_c, 0, 74, 0
1, 304770, Note_on_c, 0, 86, 0
1, 304770, Note_on_c, 0, 81, 0
1, 304770, Note_on_c, 0, 78, 0
1, 304800, Tempo, 490838
1, 304800, Note_on_c, 0, 63, 55
1, 304800, Note_on_c, 0, 66, 55
1, 304800, Note_on_c, 0, 72, 65
1, 304890, Note_on_c, 0, 72, 0
1, 304890, Note_on_c, 0, 63, 0
1, 304890, Note_on_c, 0, 66, 0
1, 304920, Note_on_c, 0, 71, 65
1, 304920, Note_on_c, 0, 78, 65
1, 304920, Note_on_c, 0, 81, 74
1, 304920, Note_on_c, 0, 83, 82
1, 305010, Note_on_c, 0, 83, 0
1, 305010, Note_on_c, 0, 78, 0
1, 305010, Note_on_c, 0, 71, 0
1, 305010, Note_on_c, 0, 81, 0
1, 305040, Note_on_c, 0, 63, 55
1, 305040, Note_on_c, 0, 66, 55
1, 305040, Note_on_c, 0, 72, 57
1, 305130, Note_on_c, 0, 72, 0
1, 305130, Note_on_c, 0, 63, 0
1, 305130, Note_on_c, 0, 66, 0
1, 305160, Tempo, 536289
1, 305160, Note_on_c, 0, 71, 56
1, 305160, Note_on_c, 0, 78, 56
1, 305160, Note_on_c, 0, 81, 63
1, 305160, Note_on_c, 0, 83, 71
1, 305250, Note_on_c, 0, 83, 0
1, 305250, Note_on_c, 0, 78, 0
1, 305250, Note_on_c, 0, 71, 0
1, 305250, Note_on_c, 0, 81, 0
1, 305280, Tempo, 508087
1, 305280, Note_on_c, 0, 57, 0
1, 305280, Note_on_c, 0, 47, 0
1, 305280, Note_on_c, 0, 54, 0
1, 305280, Control_c, 0, 64, 0
1, 305280, Note_on_c, 0, 45, 80
1, 305280, Note_on_c, 0, 53, 80
1, 305280, Note_on_c, 0, 57, 80
1, 305280, Note_on_c, 0, 65, 89
1, 305370, Note_on_c, 0, 65, 0
1, 305370, Note_on_c, 0, 45, 0
1, 305370, Note_on_c, 0, 53, 0
1, 305370, Note_on_c, 0, 57, 0
1, 305400, Note_on_c, 0, 69, 80
1, 305400, Note_on_c, 0, 72, 86
1, 305423, Control_c, 0, 64, 127
1, 305490, Note_on_c, 0, 72, 0
1, 305490, Note_on_c, 0, 69, 0
1, 305520, Tempo, 521875
1, 305520, Note_on_c, 0, 81, 80
1, 305520, Note_on_c, 0, 77, 72
1, 305610, Note_on_c, 0, 77, 0
1, 305610, Note_on_c, 0, 81, 0
1, 305634, Tempo, 484301
1, 305640, Note_on_c, 0, 71, 84
1, 305640, Note_on_c, 0, 68, 84
1, 305660, Control_c, 0, 64, 0
1, 305730, Note_on_c, 0, 68, 0
1, 305730, Note_on_c, 0, 71, 0
1, 305743, Control_c, 0, 64, 127
1, 305760, Note_on_c, 0, 69, 57
1, 305760, Note_on_c, 0, 81, 63
1, 305760, Note_on_c, 0, 72, 57
1, 305850, Note_on_c, 0, 72, 0
1, 305850, Note_on_c, 0, 81, 0
1, 305850, Note_on_c, 0, 69, 0
1, 305880, Note_on_c, 0, 68, 66
1, 305880, Note_on_c, 0, 64, 66
1, 305897, Control_c, 0, 64, 0
1, 305966, Control_c, 0, 64, 127
1, 305970, Note_on_c, 0, 64, 0
1, 305970, Note_on_c, 0, 68, 0
1, 306000, Note_on_c, 0, 65, 62
1, 306000, Note_on_c, 0, 69, 62
1, 306000, Note_on_c, 0, 77, 66
1, 306090, Note_on_c, 0, 77, 0
1, 306090, Note_on_c, 0, 69, 0
1, 306090, Note_on_c, 0, 65, 0
1, 306120, Note_on_c, 0, 59, 62
1, 306120, Note_on_c, 0, 62, 62
1, 306210, Note_on_c, 0, 62, 0
1, 306210, Note_on_c, 0, 59, 0
1, 306240, Tempo, 489636
1, 306240, Note_on_c, 0, 60, 54
1, 306240, Note_on_c, 0, 65, 54
1, 306240, Note_on_c, 0, 72, 62
1, 306330, Note_on_c, 0, 72, 0
1, 306330, Note_on_c, 0, 65, 0
1, 306330, Note_on_c, 0, 60, 0
1, 306360, Tempo, 477631
1, 306360, Note_on_c, 0, 56, 53
1, 306360, Note_on_c, 0, 59, 60
1, 306372, Control_c, 0, 64, 0
1, 306446, Control_c, 0, 64, 127
1, 306450, Note_on_c, 0, 59, 0
1, 306450, Note_on_c, 0, 56, 0
1, 306480, Note_on_c, 0, 57, 51
1, 306480, Note_on_c, 0, 60, 51
1, 306480, Note_on_c, 0, 69, 57
1, 306570, Note_on_c, 0, 69, 0
1, 306570, Note_on_c, 0, 57, 0
1, 306600, Note_on_c, 0, 65, 53
1, 306690, Note_on_c, 0, 65, 0
1, 306720, Tempo, 479348
1, 306720, Note_on_c, 0, 60, 0
1, 306720, Note_on_c, 0, 47, 73
1, 306720, Note_on_c, 0, 54, 73
1, 306720, Note_on_c, 0, 57, 73
1, 306720, Note_on_c, 0, 63, 89
1, 306726, Control_c, 0, 64, 0
1, 306780, Tempo, 477403
1, 306810, Note_on_c, 0, 63, 0
1, 306810, Note_on_c, 0, 47, 0
1, 306810, Note_on_c, 0, 54, 0
1, 306810, Note_on_c, 0, 57, 0
1, 306820, Tempo, 475473
1, 306840, Note_on_c, 0, 59, 53
1, 306840, Note_on_c, 0, 66, 53
1, 306840, Note_on_c, 0, 69, 62
1, 306840, Note_on_c, 0, 71, 69
1, 306840, Control_c, 0, 64, 127
1, 306860, Tempo, 473560
1, 306920, Tempo, 471661
1, 306930, Note_on_c, 0, 71, 0
1, 306930, Note_on_c, 0, 59, 0
1, 306930, Note_on_c, 0, 66, 0
1, 306930, Note_on_c, 0, 69, 0
1, 306960, Tempo, 469778
1, 306960, Note_on_c, 0, 51, 49
1, 306960, Note_on_c, 0, 54, 49
1, 306960, Note_on_c, 0, 60, 57
1, 307000, Tempo, 467909
1, 307050, Note_on_c, 0, 60, 0
1, 307050, Note_on_c, 0, 54, 0
1, 307050, Note_on_c, 0, 51, 0
1, 307060, Tempo, 466056
1, 307080, Note_on_c, 0, 59, 53
1, 307080, Note_on_c, 0, 66, 53
1, 307080, Note_on_c, 0, 69, 62
1, 307080, Note_on_c, 0, 71, 69
1, 307100, Tempo, 464217
1, 307170, Note_on_c, 0, 71, 0
1, 307170, Note_on_c, 0, 59, 0
1, 307170, Note_on_c, 0, 66, 0
1, 307170, Note_on_c, 0, 69, 0
1, 307200, Note_on_c, 0, 51, 49
1, 307200, Note_on_c, 0, 54, 49
1, 307200, Note_on_c, 0, 58, 57
1, 307290, Note_on_c, 0, 58, 0
1, 307290, Note_on_c, 0, 54, 0
1, 307290, Note_on_c, 0, 51, 0
1, 307320, Note_on_c, 0, 59, 52
1, 307320, Note_on_c, 0, 66, 52
1, 307320, Note_on_c, 0, 69, 60
1, 307320, Note_on_c, 0, 71, 68
1, 307410, Note_on_c, 0, 71, 0
1, 307410, Note_on_c, 0, 59, 0
1, 307410, Note_on_c, 0, 66, 0
1, 307410, Note_on_c, 0, 69, 0
1, 307420, Tempo, 521966
1, 307440, Tempo, 512864
1, 307440, Note_on_c, 0, 51, 49
1, 307440, Note_on_c, 0, 54, 49
1, 307440, Note_on_c, 0, 60, 57
1, 307530, Note_on_c, 0, 60, 0
1, 307530, Note_on_c, 0, 54, 0
1, 307530, Note_on_c, 0, 51, 0
1, 307560, Tempo, 462392
1, 307560, Note_on_c, 0, 69, 61
1, 307560, Note_on_c, 0, 74, 76
1, 307560, Note_on_c, 0, 66, 61
1, 307560, Note_on_c, 0, 62, 61
1, 307640, Tempo, 504838
1, 307650, Note_on_c, 0, 62, 0
1, 307650, Note_on_c, 0, 69, 0
1, 307650, Note_on_c, 0, 74, 0
1, 307650, Note_on_c, 0, 66, 0
1, 307680, Tempo, 490838
1, 307680, Note_on_c, 0, 51, 49
1, 307680, Note_on_c, 0, 54, 49
1, 307680, Note_on_c, 0, 60, 59
1, 307770, Note_on_c, 0, 60, 0
1, 307770, Note_on_c, 0, 54, 0
1, 307770, Note_on_c, 0, 51, 0
1, 307800, Note_on_c, 0, 59, 50
1, 307800, Note_on_c, 0, 66, 50
1, 307800, Note_on_c, 0, 69, 55
1, 307800, Note_on_c, 0, 71, 62
1, 307890, Note_on_c, 0, 71, 0
1, 307890, Note_on_c, 0, 59, 0
1, 307890, Note_on_c, 0, 66, 0
1, 307890, Note_on_c, 0, 69, 0
1, 307920, Note_on_c, 0, 51, 49
1, 307920, Note_on_c, 0, 54, 49
1, 307920, Note_on_c, 0, 60, 51
1, 308010, Note_on_c, 0, 60, 0
1, 308010, Note_on_c, 0, 54, 0
1, 308010, Note_on_c, 0, 51, 0
1, 308040, Tempo, 517375
1, 308040, Note_on_c, 0, 59, 50
1, 308040, Note_on_c, 0, 66, 50
1, 308040, Note_on_c, 0, 69, 56
1, 308040, Note_on_c, 0, 71, 63
1, 308130, Note_on_c, 0, 71, 0
1, 308130, Note_on_c, 0, 59, 0
1, 308130, Note_on_c, 0, 66, 0
1, 308130, Note_on_c, 0, 69, 0
1, 308140, Tempo, 495540
1, 308160, Tempo, 497636
1, 308160, Note_on_c, 0, 57, 62
1, 308165, Control_c, 0, 64, 0
1, 308199, Control_c, 0, 64, 127
1, 308250, Note_on_c, 0, 57, 0
1, 308280, Note_on_c, 0, 69, 59
1, 308320, Tempo, 495540
1, 308370, Note_on_c, 0, 69, 0
1, 308400, Note_on_c, 0, 56, 57
1, 308400, Note_on_c, 0, 57, 63
1, 308460, Tempo, 493462
1, 308490, Note_on_c, 0, 57, 0
1, 308490, Note_on_c, 0, 56, 0
1, 308520, Note_on_c, 0, 68, 54
1, 308520, Note_on_c, 0, 69, 62
1, 308600, Tempo, 491400
1, 308610, Note_on_c, 0, 69, 0
1, 308610, Note_on_c, 0, 68, 0
1, 308640, Note_on_c, 0, 57, 65
1, 308640, Note_on_c, 0, 55, 60
1, 308730, Note_on_c, 0, 55, 0
1, 308730, Note_on_c, 0, 57, 0
1, 308740, Tempo, 489356
1, 308760, Note_on_c, 0, 69, 64
1, 308760, Note_on_c, 0, 67, 59
1, 308850, Note_on_c, 0, 67, 0
1, 308850, Note_on_c, 0, 69, 0
1, 308880, Tempo, 487329
1, 308880, Note_on_c, 0, 54, 62
1, 308880, Note_on_c, 0, 57, 69
1, 308970, Note_on_c, 0, 57, 0
1, 308970, Note_on_c, 0, 54, 0
1, 309000, Note_on_c, 0, 66, 62
1, 309000, Note_on_c, 0, 69, 69
1, 309040, Tempo, 485319
1, 309090, Note_on_c, 0, 69, 0
1, 309090, Note_on_c, 0, 66, 0
1, 309120, Note_on_c, 0, 53, 63
1, 309120, Note_on_c, 0, 54, 63
1, 309120, Note_on_c, 0, 57, 71
1, 309180, Tempo, 483325
1, 309210, Note_on_c, 0, 57, 0
1, 309210, Note_on_c, 0, 54, 0
1, 309210, Note_on_c, 0, 53, 0
1, 309240, Note_on_c, 0, 65, 63
1, 309240, Note_on_c, 0, 66, 63
1, 309240, Note_on_c, 0, 69, 71
1, 309320, Tempo, 481309
1, 309330, Note_on_c, 0, 69, 0
1, 309330, Note_on_c, 0, 66, 0
1, 309330, Note_on_c, 0, 65, 0
1, 309360, Note_on_c, 0, 52, 65
1, 309360, Note_on_c, 0, 54, 65
1, 309360, Note_on_c, 0, 57, 73
1, 309450, Note_on_c, 0, 57, 0
1, 309450, Note_on_c, 0, 54, 0
1, 309450, Note_on_c, 0, 52, 0
1, 309460, Tempo, 479348
1, 309480, Note_on_c, 0, 64, 67
1, 309480, Note_on_c, 0, 66, 67
1, 309480, Note_on_c, 0, 69, 75
1, 309570, Note_on_c, 0, 69, 0
1, 309570, Note_on_c, 0, 66, 0
1, 309570, Note_on_c, 0, 64, 0
1, 309600, Tempo, 477403
1, 309600, Note_on_c, 0, 51, 66
1, 309600, Note_on_c, 0, 54, 66
1, 309600, Note_on_c, 0, 57, 74
1, 309608, Control_c, 0, 64, 0
1, 309686, Control_c, 0, 64, 127
1, 309690, Note_on_c, 0, 57, 0
1, 309690, Note_on_c, 0, 54, 0
1, 309690, Note_on_c, 0, 51, 0
1, 309720, Note_on_c, 0, 63, 69
1, 309720, Note_on_c, 0, 66, 69
1, 309720, Note_on_c, 0, 69, 77
1, 309810, Note_on_c, 0, 69, 0
1, 309810, Note_on_c, 0, 66, 0
1, 309810, Note_on_c, 0, 63, 0
1, 309840, Note_on_c, 0, 52, 65
1, 309840, Note_on_c, 0, 54, 65
1, 309840, Note_on_c, 0, 57, 73
1, 309930, Note_on_c, 0, 57, 0
1, 309930, Note_on_c, 0, 54, 0
1, 309930, Note_on_c, 0, 52, 0
1, 309960, Note_on_c, 0, 64, 65
1, 309960, Note_on_c, 0, 66, 65
1, 309960, Note_on_c, 0, 69, 73
1, 310050, Note_on_c, 0, 69, 0
1, 310050, Note_on_c, 0, 66, 0
1, 310050, Note_on_c, 0, 64, 0
1, 310080, Note_on_c, 0, 51, 64
1, 310080, Note_on_c, 0, 54, 64
1, 310080, Note_on_c, 0, 57, 72
1, 310097, Control_c, 0, 64, 0
1, 310131, Control_c, 0, 64, 127
1, 310170, Note_on_c, 0, 57, 0
1, 310170, Note_on_c, 0, 54, 0
1, 310170, Note_on_c, 0, 51, 0
1, 310200, Note_on_c, 0, 63, 63
1, 310200, Note_on_c, 0, 66, 63
1, 310200, Note_on_c, 0, 69, 71
1, 310280, Tempo, 477403
1, 310290, Note_on_c, 0, 69, 0
1, 310290, Note_on_c, 0, 66, 0
1, 310290, Note_on_c, 0, 63, 0
1, 310320, Note_on_c, 0, 50, 63
1, 310320, Note_on_c, 0, 54, 63
1, 310320, Note_on_c, 0, 57, 71
1, 310410, Note_on_c, 0, 57, 0
1, 310410, Note_on_c, 0, 54, 0
1, 310410, Note_on_c, 0, 50, 0
1, 310440, Tempo, 475473
1, 310440, Note_on_c, 0, 62, 63
1, 310440, Note_on_c, 0, 66, 63
1, 310440, Note_on_c, 0, 69, 71
1, 310530, Note_on_c, 0, 69, 0
1, 310530, Note_on_c, 0, 66, 0
1, 310530, Note_on_c, 0, 62, 0
1, 310549, Control_c, 0, 64, 0
1, 310560, Note_on_c, 0, 49, 62
1, 310560, Note_on_c, 0, 54, 62
1, 310560, Note_on_c, 0, 57, 70
1, 310589, Control_c, 0, 64, 127
1, 310600, Tempo, 473560
1, 310650, Note_on_c, 0, 57, 0
1, 310650, Note_on_c, 0, 54, 0
1, 310650, Note_on_c, 0, 49, 0
1, 310680, Note_on_c, 0, 61, 62
1, 310680, Note_on_c, 0, 66, 62
1, 310680, Note_on_c, 0, 69, 69
1, 310740, Tempo, 471661
1, 310770, Note_on_c, 0, 69, 0
1, 310770, Note_on_c, 0, 66, 0
1, 310770, Note_on_c, 0, 61, 0
1, 310800, Note_on_c, 0, 48, 61
1, 310800, Note_on_c, 0, 54, 61
1, 310800, Note_on_c, 0, 57, 67
1, 310890, Note_on_c, 0, 57, 0
1, 310890, Note_on_c, 0, 54, 0
1, 310890, Note_on_c, 0, 48, 0
1, 310900, Tempo, 469778
1, 310920, Note_on_c, 0, 60, 61
1, 310920, Note_on_c, 0, 66, 61
1, 310920, Note_on_c, 0, 69, 67
1, 311010, Note_on_c, 0, 69, 0
1, 311010, Note_on_c, 0, 66, 0
1, 311010, Note_on_c, 0, 60, 0
1, 311040, Tempo, 475473
1, 311040, Note_on_c, 0, 47, 61
1, 311040, Note_on_c, 0, 51, 61
1, 311040, Note_on_c, 0, 54, 61
1, 311040, Note_on_c, 0, 57, 66
1, 311042, Control_c, 0, 64, 0
1, 311109, Control_c, 0, 64, 127
1, 311130, Note_on_c, 0, 57, 0
1, 311130, Note_on_c, 0, 47, 0
1, 311130, Note_on_c, 0, 51, 0
1, 311130, Note_on_c, 0, 54, 0
1, 311160, Note_on_c, 0, 59, 57
1, 311160, Note_on_c, 0, 63, 57
1, 311160, Note_on_c, 0, 66, 57
1, 311160, Note_on_c, 0, 69, 63
1, 311250, Note_on_c, 0, 69, 0
1, 311250, Note_on_c, 0, 59, 0
1, 311250, Note_on_c, 0, 63, 0
1, 311250, Note_on_c, 0, 66, 0
1, 311280, Note_on_c, 0, 47, 61
1, 311280, Note_on_c, 0, 51, 61
1, 311280, Note_on_c, 0, 54, 61
1, 311280, Note_on_c, 0, 57, 67
1, 311370, Note_on_c, 0, 57, 0
1, 311370, Note_on_c, 0, 47, 0
1, 311370, Note_on_c, 0, 51, 0
1, 311370, Note_on_c, 0, 54, 0
1, 311400, Note_on_c, 0, 59, 60
1, 311400, Note_on_c, 0, 63, 60
1, 311400, Note_on_c, 0, 66, 60
1, 311400, Note_on_c, 0, 69, 67
1, 311490, Note_on_c, 0, 69, 0
1, 311490, Note_on_c, 0, 59, 0
1, 311490, Note_on_c, 0, 63, 0
1, 311490, Note_on_c, 0, 66, 0
1, 311520, Note_on_c, 0, 47, 63
1, 311520, Note_on_c, 0, 51, 63
1, 311520, Note_on_c, 0, 54, 63
1, 311520, Note_on_c, 0, 57, 70
1, 311530, Control_c, 0, 64, 0
1, 311560, Control_c, 0, 64, 127
1, 311610, Note_on_c, 0, 57, 0
1, 311610, Note_on_c, 0, 47, 0
1, 311610, Note_on_c, 0, 51, 0
1, 311610, Note_on_c, 0, 54, 0
1, 311640, Tempo, 473560
1, 311640, Note_on_c, 0, 59, 63
1, 311640, Note_on_c, 0, 63, 63
1, 311640, Note_on_c, 0, 66, 63
1, 311640, Note_on_c, 0, 69, 72
1, 311700, Tempo, 475473
1, 311730, Note_on_c, 0, 69, 0
1, 311730, Note_on_c, 0, 59, 0
1, 311730, Note_on_c, 0, 63, 0
1, 311730, Note_on_c, 0, 66, 0
1, 311740, Tempo, 477403
1, 311760, Note_on_c, 0, 47, 66
1, 311760, Note_on_c, 0, 51, 66
1, 311760, Note_on_c, 0, 54, 66
1, 311760, Note_on_c, 0, 57, 75
1, 311800, Tempo, 479348
1, 311840, Tempo, 481309
1, 311850, Note_on_c, 0, 57, 0
1, 311850, Note_on_c, 0, 47, 0
1, 311850, Note_on_c, 0, 51, 0
1, 311850, Note_on_c, 0, 54, 0
1, 311880, Note_on_c, 0, 59, 67
1, 311880, Note_on_c, 0, 63, 67
1, 311880, Note_on_c, 0, 66, 67
1, 311880, Note_on_c, 0, 69, 75
1, 311900, Tempo, 483325
1, 311940, Tempo, 485319
1, 311970, Note_on_c, 0, 69, 0
1, 311970, Note_on_c, 0, 59, 0
1, 311970, Note_on_c, 0, 63, 0
1, 311970, Note_on_c, 0, 66, 0
1, 311980, Tempo, 487329
1, 312000, Note_on_c, 0, 47, 67
1, 312000, Note_on_c, 0, 51, 67
1, 312000, Note_on_c, 0, 54, 67
1, 312000, Note_on_c, 0, 57, 76
1, 312021, Control_c, 0, 64, 0
1, 312040, Tempo, 489356
1, 312080, Tempo, 491400
1, 312086, Control_c, 0, 64, 127
1, 312090, Note_on_c, 0, 57, 0
1, 312090, Note_on_c, 0, 47, 0
1, 312090, Note_on_c, 0, 51, 0
1, 312090, Note_on_c, 0, 54, 0
1, 312120, Note_on_c, 0, 59, 72
1, 312120, Note_on_c, 0, 63, 72
1, 312120, Note_on_c, 0, 66, 72
1, 312120, Note_on_c, 0, 69, 80
1, 312140, Tempo, 493462
1, 312180, Tempo, 495540
1, 312210, Note_on_c, 0, 69, 0
1, 312210, Note_on_c, 0, 59, 0
1, 312210, Note_on_c, 0, 63, 0
1, 312210, Note_on_c, 0, 66, 0
1, 312220, Tempo, 499750
1, 312240, Tempo, 506244
1, 312240, Note_on_c, 0, 47, 74
1, 312240, Note_on_c, 0, 51, 74
1, 312240, Note_on_c, 0, 54, 74
1, 312240, Note_on_c, 0, 57, 82
1, 312260, Tempo, 512864
1, 312280, Tempo, 519660
1, 312300, Tempo, 526639
1, 312320, Tempo, 533855
1, 312330, Note_on_c, 0, 57, 0
1, 312330, Note_on_c, 0, 47, 0
1, 312330, Note_on_c, 0, 51, 0
1, 312330, Note_on_c, 0, 54, 0
1, 312340, Tempo, 541223
1, 312360, Tempo, 548797
1, 312360, Note_on_c, 0, 59, 75
1, 312360, Note_on_c, 0, 63, 75
1, 312360, Note_on_c, 0, 66, 75
1, 312360, Note_on_c, 0, 69, 84
1, 312380, Tempo, 556586
1, 312400, Tempo, 564653
1, 312420, Tempo, 572902
1, 312440, Tempo, 581395
1, 312450, Note_on_c, 0, 69, 0
1, 312450, Note_on_c, 0, 59, 0
1, 312450, Note_on_c, 0, 63, 0
1, 312450, Note_on_c, 0, 66, 0
1, 312460, Tempo, 590203
1, 312480, Key_signature, -5, "major"
1, 312480, Tempo, 498215
1, 312480, Control_c, 0, 64, 0
1, 312480, Note_on_c, 0, 48, 70
1, 312480, Note_on_c, 0, 51, 77
1, 312480, Note_on_c, 0, 54, 77
1, 312480, Note_on_c, 0, 58, 87
1, 312566, Control_c, 0, 64, 127
1, 312570, Note_on_c, 0, 58, 0
1, 312570, Note_on_c, 0, 48, 0
1, 312570, Note_on_c, 0, 51, 0
1, 312570, Note_on_c, 0, 54, 0
1, 312600, Note_on_c, 0, 60, 95
1, 312690, Note_on_c, 0, 60, 0
1, 312720, Tempo, 511727
1, 312720, Note_on_c, 0, 63, 86
1, 312720, Note_on_c, 0, 70, 86
1, 312720, Note_on_c, 0, 66, 80
1, 312810, Note_on_c, 0, 66, 0
1, 312810, Note_on_c, 0, 70, 0
1, 312810, Note_on_c, 0, 63, 0
1, 312834, Tempo, 474909
1, 312840, Note_on_c, 0, 72, 77
1, 312840, Note_on_c, 0, 75, 77
1, 312840, Note_on_c, 0, 78, 86
1, 312840, Note_on_c, 0, 82, 97
1, 312840, Note_on_c, 0, 32, 77
1, 312840, Note_on_c, 0, 44, 86
1, 312874, Control_c, 0, 64, 0
1, 312890, Tempo, 473223
1, 312930, Note_on_c, 0, 44, 0
1, 312930, Note_on_c, 0, 75, 0
1, 312930, Note_on_c, 0, 78, 0
1, 312930, Note_on_c, 0, 72, 0
1, 312930, Note_on_c, 0, 32, 0
1, 312930, Note_on_c, 0, 82, 0
1, 312960, Note_on_c, 0, 69, 79
1, 312960, Note_on_c, 0, 65, 79
1, 313050, Note_on_c, 0, 65, 0
1, 313050, Note_on_c, 0, 69, 0
1, 313080, Note_on_c, 0, 70, 69
1, 313080, Note_on_c, 0, 66, 62
1, 313154, Tempo, 464900
1, 313170, Note_on_c, 0, 66, 0
1, 313170, Note_on_c, 0, 70, 0
1, 313194, Tempo, 463249
1, 313200, Tempo, 475473
1, 313200, Note_on_c, 0, 62, 67
1, 313200, Note_on_c, 0, 65, 74
1, 313217, Control_c, 0, 64, 127
1, 313290, Note_on_c, 0, 65, 0
1, 313290, Note_on_c, 0, 62, 0
1, 313320, Note_on_c, 0, 66, 79
1, 313320, Note_on_c, 0, 63, 71
1, 313410, Note_on_c, 0, 63, 0
1, 313410, Note_on_c, 0, 66, 0
1, 313440, Tempo, 480154
1, 313440, Note_on_c, 0, 65, 62
1, 313440, Note_on_c, 0, 69, 70
1, 313500, Control_c, 0, 64, 0
1, 313530, Note_on_c, 0, 69, 0
1, 313530, Note_on_c, 0, 65, 0
1, 313549, Control_c, 0, 64, 127
1, 313560, Tempo, 468384
1, 313560, Note_on_c, 0, 66, 79
1, 313560, Note_on_c, 0, 70, 87
1, 313650, Note_on_c, 0, 70, 0
1, 313680, Note_on_c, 0, 73, 86
1, 313770, Note_on_c, 0, 73, 0
1, 313800, Note_on_c, 0, 66, 0
1, 313800, Note_on_c, 0, 68, 72
1, 313800, Note_on_c, 0, 72, 81
1, 313890, Note_on_c, 0, 72, 0
1, 313890, Note_on_c, 0, 68, 0
1, 313920, Tempo, 492045
1, 313920, Control_c, 0, 64, 0
1, 313920, Note_on_c, 0, 49, 65
1, 313920, Note_on_c, 0, 53, 73
1, 313920, Note_on_c, 0, 56, 82
1, 314010, Note_on_c, 0, 56, 0
1, 314010, Note_on_c, 0, 53, 0
1, 314010, Note_on_c, 0, 49, 0
1, 314033, Control_c, 0, 64, 127
1, 314040, Note_on_c, 0, 61, 81
1, 314040, Note_on_c, 0, 65, 89
1, 314130, Note_on_c, 0, 65, 0
1, 314130, Note_on_c, 0, 61, 0
1, 314160, Tempo, 503905
1, 314160, Note_on_c, 0, 73, 81
1, 314160, Note_on_c, 0, 68, 73
1, 314250, Note_on_c, 0, 68, 0
1, 314250, Note_on_c, 0, 73, 0
1, 314280, Tempo, 461645
1, 314280, Note_on_c, 0, 68, 80
1, 314280, Note_on_c, 0, 72, 80
1, 314280, Note_on_c, 0, 77, 89
1, 314280, Note_on_c, 0, 80, 99
1, 314280, Note_on_c, 0, 32, 77
1, 314280, Note_on_c, 0, 44, 86
1, 314366, Control_c, 0, 64, 0
1, 314370, Note_on_c, 0, 44, 0
1, 314370, Note_on_c, 0, 72, 0
1, 314370, Note_on_c, 0, 77, 0
1, 314370, Note_on_c, 0, 68, 0
1, 314370, Note_on_c, 0, 32, 0
1, 314370, Note_on_c, 0, 80, 0
1, 314372, Tempo, 463249
1, 314400, Note_on_c, 0, 65, 75
1, 314400, Note_on_c, 0, 61, 69
1, 314464, Tempo, 464900
1, 314490, Note_on_c, 0, 61, 0
1, 314490, Note_on_c, 0, 65, 0
1, 314520, Note_on_c, 0, 63, 69
1, 314520, Note_on_c, 0, 66, 75
1, 314560, Tempo, 466527
1, 314610, Note_on_c, 0, 66, 0
1, 314610, Note_on_c, 0, 63, 0
1, 314640, Tempo, 473223
1, 314640, Note_on_c, 0, 65, 64
1, 314640, Note_on_c, 0, 68, 72
1, 314647, Control_c, 0, 64, 127
1, 314680, Tempo, 474909
1, 314704, Tempo, 476644
1, 314730, Note_on_c, 0, 68, 0
1, 314730, Note_on_c, 0, 65, 0
1, 314732, Tempo, 478393
1, 314760, Note_on_c, 0, 66, 62
1, 314760, Note_on_c, 0, 70, 66
1, 314772, Tempo, 480154
1, 314800, Tempo, 481812
1, 314824, Tempo, 483598
1, 314850, Note_on_c, 0, 70, 0
1, 314850, Note_on_c, 0, 66, 0
1, 314852, Tempo, 485398
1, 314880, Note_on_c, 0, 65, 59
1, 314880, Note_on_c, 0, 68, 64
1, 314892, Tempo, 487211
1, 314920, Tempo, 488998
1, 314944, Tempo, 490838
1, 314944, Control_c, 0, 64, 0
1, 314970, Note_on_c, 0, 68, 0
1, 314970, Note_on_c, 0, 65, 0
1, 314972, Tempo, 492692
1, 315000, Tempo, 546249
1, 315000, Note_on_c, 0, 61, 73
1, 315000, Note_on_c, 0, 65, 81
1, 315198, Control_c, 0, 64, 127
1, 315360, Tempo, 498215
1, 315360, Note_on_c, 0, 65, 0
1, 315360, Note_on_c, 0, 61, 0
1, 315360, Note_on_c, 0, 73, 86
1, 315360, Control_c, 0, 64, 0
1, 315360, Note_on_c, 0, 54, 79
1, 315360, Note_on_c, 0, 58, 79
1, 315360, Note_on_c, 0, 63, 87
1, 315417, Control_c, 0, 64, 127
1, 315450, Note_on_c, 0, 63, 0
1, 315450, Note_on_c, 0, 73, 0
1, 315450, Note_on_c, 0, 54, 0
1, 315450, Note_on_c, 0, 58, 0
1, 315480, Note_on_c, 0, 73, 69
1, 315480, Note_on_c, 0, 78, 69
1, 315480, Note_on_c, 0, 82, 75
1, 315480, Note_on_c, 0, 54, 70
1, 315570, Note_on_c, 0, 54, 0
1, 315570, Note_on_c, 0, 73, 0
1, 315570, Note_on_c, 0, 78, 0
1, 315570, Note_on_c, 0, 82, 0
1, 315600, Tempo, 511727
1, 315600, Note_on_c, 0, 82, 96
1, 315600, Note_on_c, 0, 44, 89
1, 315714, Tempo, 474909
1, 315720, Note_on_c, 0, 85, 70
1, 315720, Note_on_c, 0, 90, 77
1, 315720, Note_on_c, 0, 94, 87
1, 315720, Note_on_c, 0, 32, 70
1, 315754, Control_c, 0, 64, 0
1, 315770, Tempo, 473223
1, 315810, Note_on_c, 0, 32, 0
1, 315810, Note_on_c, 0, 90, 0
1, 315810, Note_on_c, 0, 85, 0
1, 315810, Note_on_c, 0, 94, 0
1, 315840, Note_on_c, 0, 82, 0
1, 315840, Note_on_c, 0, 44, 0
1, 315840, Note_on_c, 0, 72, 79
1, 315840, Note_on_c, 0, 69, 79
1, 315930, Note_on_c, 0, 69, 0
1, 315930, Note_on_c, 0, 72, 0
1, 315960, Note_on_c, 0, 70, 62
1, 315960, Note_on_c, 0, 82, 69
1, 315960, Note_on_c, 0, 73, 62
1, 316034, Tempo, 464900
1, 316050, Note_on_c, 0, 73, 0
1, 316050, Note_on_c, 0, 82, 0
1, 316050, Note_on_c, 0, 70, 0
1, 316074, Tempo, 463249
1, 316080, Tempo, 473560
1, 316080, Note_on_c, 0, 65, 67
1, 316080, Note_on_c, 0, 69, 74
1, 316097, Control_c, 0, 64, 127
1, 316170, Note_on_c, 0, 69, 0
1, 316170, Note_on_c, 0, 65, 0
1, 316200, Note_on_c, 0, 66, 71
1, 316200, Note_on_c, 0, 78, 79
1, 316200, Note_on_c, 0, 70, 71
1, 316290, Note_on_c, 0, 70, 0
1, 316290, Note_on_c, 0, 78, 0
1, 316290, Note_on_c, 0, 66, 0
1, 316320, Tempo, 480154
1, 316320, Note_on_c, 0, 69, 62
1, 316320, Note_on_c, 0, 72, 70
1, 316340, Control_c, 0, 64, 0
1, 316410, Note_on_c, 0, 72, 0
1, 316410, Note_on_c, 0, 69, 0
1, 316429, Control_c, 0, 64, 127
1, 316440, Tempo, 468384
1, 316440, Note_on_c, 0, 73, 87
1, 316440, Note_on_c, 0, 70, 79
1, 316530, Note_on_c, 0, 70, 0
1, 316530, Note_on_c, 0, 73, 0
1, 316560, Note_on_c, 0, 73, 64
1, 316560, Note_on_c, 0, 82, 64
1, 316560, Note_on_c, 0, 85, 77
1, 316650, Note_on_c, 0, 85, 0
1, 316650, Note_on_c, 0, 82, 0
1, 316650, Note_on_c, 0, 73, 0
1, 316680, Note_on_c, 0, 72, 64
1, 316680, Note_on_c, 0, 80, 64
1, 316680, Note_on_c, 0, 84, 72
1, 316726, Control_c, 0, 64, 0
1, 316770, Note_on_c, 0, 84, 0
1, 316770, Note_on_c, 0, 80, 0
1, 316770, Note_on_c, 0, 72, 0
1, 316800, Tempo, 492045
1, 316800, Note_on_c, 0, 68, 86
1, 316800, Note_on_c, 0, 56, 65
1, 316800, Note_on_c, 0, 61, 73
1, 316800, Note_on_c, 0, 65, 82
1, 316828, Control_c, 0, 64, 127
1, 316890, Note_on_c, 0, 65, 0
1, 316890, Note_on_c, 0, 68, 0
1, 316890, Note_on_c, 0, 56, 0
1, 316890, Note_on_c, 0, 61, 0
1, 316920, Note_on_c, 0, 73, 63
1, 316920, Note_on_c, 0, 77, 63
1, 316920, Note_on_c, 0, 80, 70
1, 316920, Note_on_c, 0, 53, 70
1, 317010, Note_on_c, 0, 53, 0
1, 317010, Note_on_c, 0, 73, 0
1, 317010, Note_on_c, 0, 77, 0
1, 317010, Note_on_c, 0, 80, 0
1, 317040, Tempo, 503905
1, 317040, Note_on_c, 0, 80, 95
1, 317040, Note_on_c, 0, 44, 89
1, 317140, Tempo, 466273
1, 317160, Note_on_c, 0, 89, 80
1, 317160, Note_on_c, 0, 85, 80
1, 317160, Note_on_c, 0, 92, 89
1, 317160, Note_on_c, 0, 32, 70
1, 317246, Control_c, 0, 64, 0
1, 317250, Note_on_c, 0, 32, 0
1, 317250, Note_on_c, 0, 85, 0
1, 317250, Note_on_c, 0, 89, 0
1, 317250, Note_on_c, 0, 92, 0
1, 317260, Tempo, 468165
1, 317280, Note_on_c, 0, 80, 0
1, 317280, Note_on_c, 0, 44, 0
1, 317280, Note_on_c, 0, 65, 84
1, 317280, Note_on_c, 0, 61, 77
1, 317370, Note_on_c, 0, 61, 0
1, 317370, Note_on_c, 0, 65, 0
1, 317380, Tempo, 470072
1, 317400, Note_on_c, 0, 66, 62
1, 317400, Note_on_c, 0, 75, 62
1, 317400, Note_on_c, 0, 78, 66
1, 317490, Note_on_c, 0, 78, 0
1, 317490, Note_on_c, 0, 75, 0
1, 317490, Note_on_c, 0, 66, 0
1, 317500, Tempo, 471995
1, 317520, Tempo, 473223
1, 317520, Note_on_c, 0, 65, 72
1, 317520, Note_on_c, 0, 68, 81
1, 317527, Control_c, 0, 64, 127
1, 317560, Tempo, 474909
1, 317584, Tempo, 476644
1, 317610, Note_on_c, 0, 68, 0
1, 317610, Note_on_c, 0, 65, 0
1, 317612, Tempo, 478393
1, 317640, Note_on_c, 0, 78, 69
1, 317640, Note_on_c, 0, 82, 75
1, 317652, Tempo, 480154
1, 317680, Tempo, 481812
1, 317704, Tempo, 483598
1, 317730, Note_on_c, 0, 82, 0
1, 317730, Note_on_c, 0, 78, 0
1, 317732, Tempo, 485398
1, 317760, Note_on_c, 0, 77, 65
1, 317760, Note_on_c, 0, 80, 72
1, 317772, Tempo, 487211
1, 317800, Tempo, 488998
1, 317824, Tempo, 490838
1, 317850, Note_on_c, 0, 80, 0
1, 317850, Note_on_c, 0, 77, 0
1, 317852, Tempo, 492692
1, 317880, Tempo, 548797
1, 317880, Note_on_c, 0, 61, 69
1, 317880, Note_on_c, 0, 65, 77
1, 317923, Control_c, 0, 64, 0
1, 318078, Control_c, 0, 64, 127
1, 318240, Tempo, 515818
1, 318240, Note_on_c, 0, 65, 0
1, 318240, Note_on_c, 0, 61, 0
1, 318240, Control_c, 0, 64, 0
1, 318240, Note_on_c, 0, 66, 79
1, 318240, Note_on_c, 0, 63, 71
1, 318240, Note_on_c, 0, 58, 71
1, 318320, Tempo, 513655
1, 318331, Control_c, 0, 64, 127
1, 318360, Note_on_c, 0, 66, 77
1, 318360, Note_on_c, 0, 70, 77
1, 318360, Note_on_c, 0, 78, 86
1, 318360, Note_on_c, 0, 75, 86
1, 318400, Tempo, 511553
1, 318420, Note_on_c, 0, 58, 0
1, 318420, Note_on_c, 0, 66, 0
1, 318420, Note_on_c, 0, 63, 0
1, 318420, Note_on_c, 0, 49, 71
1, 318450, Note_on_c, 0, 70, 0
1, 318450, Note_on_c, 0, 75, 0
1, 318450, Note_on_c, 0, 66, 0
1, 318450, Note_on_c, 0, 78, 0
1, 318480, Tempo, 509468
1, 318480, Note_on_c, 0, 80, 81
1, 318480, Note_on_c, 0, 68, 81
1, 318580, Tempo, 507357
1, 318600, Note_on_c, 0, 49, 0
1, 318600, Note_on_c, 0, 66, 79
1, 318600, Note_on_c, 0, 63, 71
1, 318600, Note_on_c, 0, 58, 71
1, 318611, Control_c, 0, 64, 0
1, 318660, Tempo, 505263
1, 318663, Control_c, 0, 64, 127
1, 318720, Tempo, 531773
1, 318720, Note_on_c, 0, 68, 0
1, 318720, Note_on_c, 0, 80, 0
1, 318720, Note_on_c, 0, 81, 94
1, 318720, Note_on_c, 0, 78, 94
1, 318720, Note_on_c, 0, 75, 83
1, 318720, Note_on_c, 0, 69, 83
1, 318780, Note_on_c, 0, 63, 0
1, 318780, Note_on_c, 0, 58, 0
1, 318780, Note_on_c, 0, 66, 0
1, 318780, Note_on_c, 0, 37, 69
1, 318810, Note_on_c, 0, 78, 0
1, 318810, Note_on_c, 0, 69, 0
1, 318810, Note_on_c, 0, 81, 0
1, 318810, Note_on_c, 0, 75, 0
1, 318840, Tempo, 574823
1, 318840, Note_on_c, 0, 82, 86
1, 318840, Note_on_c, 0, 70, 77
1, 318930, Note_on_c, 0, 70, 0
1, 318930, Note_on_c, 0, 82, 0
1, 318960, Tempo, 529054
1, 318960, Note_on_c, 0, 37, 0
1, 318960, Note_on_c, 0, 87, 103
1, 318960, Note_on_c, 0, 78, 92
1, 318960, Note_on_c, 0, 75, 92
1, 318960, Note_on_c, 0, 56, 75
1, 318960, Note_on_c, 0, 63, 75
1, 318960, Note_on_c, 0, 66, 84
1, 318966, Control_c, 0, 64, 0
1, 318980, Tempo, 526778
1, 319000, Tempo, 522330
1, 319011, Control_c, 0, 64, 127
1, 319020, Tempo, 520156
1, 319040, Tempo, 515818
1, 319050, Note_on_c, 0, 75, 0
1, 319050, Note_on_c, 0, 87, 0
1, 319050, Note_on_c, 0, 78, 0
1, 319060, Tempo, 511553
1, 319080, Note_on_c, 0, 86, 87
1, 319080, Note_on_c, 0, 74, 79
1, 319100, Tempo, 507357
1, 319140, Note_on_c, 0, 56, 0
1, 319140, Note_on_c, 0, 66, 0
1, 319140, Note_on_c, 0, 63, 0
1, 319140, Note_on_c, 0, 49, 61
1, 319160, Tempo, 505263
1, 319170, Note_on_c, 0, 86, 0
1, 319170, Note_on_c, 0, 74, 0
1, 319200, Note_on_c, 0, 85, 95
1, 319200, Note_on_c, 0, 73, 84
1, 319220, Tempo, 503271
1, 319290, Note_on_c, 0, 73, 0
1, 319290, Note_on_c, 0, 85, 0
1, 319320, Note_on_c, 0, 49, 0
1, 319320, Note_on_c, 0, 72, 76
1, 319320, Note_on_c, 0, 84, 85
1, 319320, Note_on_c, 0, 56, 63
1, 319320, Note_on_c, 0, 63, 63
1, 319320, Note_on_c, 0, 66, 72
1, 319330, Control_c, 0, 64, 0
1, 319360, Control_c, 0, 64, 127
1, 319410, Note_on_c, 0, 84, 0
1, 319410, Note_on_c, 0, 72, 0
1, 319440, Tempo, 501211
1, 319440, Note_on_c, 0, 71, 79
1, 319440, Note_on_c, 0, 83, 87
1, 319500, Tempo, 503271
1, 319500, Note_on_c, 0, 63, 0
1, 319500, Note_on_c, 0, 66, 0
1, 319500, Note_on_c, 0, 56, 0
1, 319500, Note_on_c, 0, 37, 63
1, 319530, Note_on_c, 0, 71, 0
1, 319530, Note_on_c, 0, 83, 0
1, 319560, Tempo, 505263
1, 319560, Note_on_c, 0, 82, 87
1, 319560, Note_on_c, 0, 70, 79
1, 319620, Tempo, 507357
1, 319650, Note_on_c, 0, 70, 0
1, 319650, Note_on_c, 0, 82, 0
1, 319660, Tempo, 509468
1, 319680, Tempo, 520156
1, 319680, Note_on_c, 0, 37, 0
1, 319680, Note_on_c, 0, 81, 86
1, 319680, Note_on_c, 0, 77, 86
1, 319680, Note_on_c, 0, 69, 77
1, 319680, Control_c, 0, 64, 0
1, 319680, Note_on_c, 0, 65, 64
1, 319680, Note_on_c, 0, 61, 57
1, 319680, Note_on_c, 0, 56, 57
1, 319731, Control_c, 0, 64, 127
1, 319770, Note_on_c, 0, 69, 0
1, 319770, Note_on_c, 0, 81, 0
1, 319770, Note_on_c, 0, 77, 0
1, 319800, Note_on_c, 0, 80, 79
1, 319800, Note_on_c, 0, 68, 71
1, 319857, Control_c, 0, 64, 0
1, 319860, Note_on_c, 0, 65, 0
1, 319860, Note_on_c, 0, 56, 0
1, 319860, Note_on_c, 0, 61, 0
1, 319860, Note_on_c, 0, 49, 54
1, 319890, Note_on_c, 0, 80, 0
1, 319890, Note_on_c, 0, 68, 0
1, 319920, Note_on_c, 0, 73, 79
1, 319920, Note_on_c, 0, 85, 87
1, 320040, Tempo, 503271
1, 320040, Note_on_c, 0, 49, 0
1, 320040, Note_on_c, 0, 66, 55
1, 320040, Note_on_c, 0, 63, 50
1, 320040, Note_on_c, 0, 57, 50
1, 320109, Control_c, 0, 64, 127
1, 320160, Note_on_c, 0, 85, 0
1, 320160, Note_on_c, 0, 73, 0
1, 320160, Note_on_c, 0, 84, 73
1, 320160, Note_on_c, 0, 78, 73
1, 320160, Note_on_c, 0, 72, 66
1, 320220, Note_on_c, 0, 63, 0
1, 320220, Note_on_c, 0, 57, 0
1, 320220, Note_on_c, 0, 66, 0
1, 320220, Note_on_c, 0, 37, 44
1, 320280, Note_on_c, 0, 83, 77
1, 320280, Note_on_c, 0, 71, 69
1, 320370, Note_on_c, 0, 71, 0
1, 320370, Note_on_c, 0, 83, 0
1, 320400, Tempo, 531303
1, 320400, Note_on_c, 0, 84, 0
1, 320400, Note_on_c, 0, 72, 0
1, 320400, Note_on_c, 0, 78, 0
1, 320400, Note_on_c, 0, 37, 0
1, 320400, Note_on_c, 0, 82, 72
1, 320400, Note_on_c, 0, 77, 72
1, 320400, Note_on_c, 0, 70, 64
1, 320400, Note_on_c, 0, 65, 52
1, 320400, Note_on_c, 0, 61, 45
1, 320400, Note_on_c, 0, 58, 45
1, 320411, Control_c, 0, 64, 0
1, 320460, Control_c, 0, 64, 127
1, 320490, Note_on_c, 0, 70, 0
1, 320490, Note_on_c, 0, 82, 0
1, 320490, Note_on_c, 0, 77, 0
1, 320520, Note_on_c, 0, 80, 70
1, 320520, Note_on_c, 0, 68, 62
1, 320580, Note_on_c, 0, 65, 0
1, 320580, Note_on_c, 0, 58, 0
1, 320580, Note_on_c, 0, 61, 0
1, 320580, Note_on_c, 0, 49, 45
1, 320610, Note_on_c, 0, 80, 0
1, 320610, Note_on_c, 0, 68, 0
1, 320640, Tempo, 550257
1, 320640, Note_on_c, 0, 82, 64
1, 320640, Note_on_c, 0, 70, 59
1, 320730, Note_on_c, 0, 70, 0
1, 320730, Note_on_c, 0, 82, 0
1, 320760, Tempo, 578035
1, 320760, Note_on_c, 0, 77, 70
1, 320760, Note_on_c, 0, 74, 70
1, 320760, Note_on_c, 0, 68, 63
1, 320760, Note_on_c, 0, 65, 63
1, 320760, Note_on_c, 0, 62, 57
1, 320760, Note_on_c, 0, 59, 57
1, 320760, Note_on_c, 0, 56, 51
1, 320780, Control_c, 0, 64, 0
1, 320851, Control_c, 0, 64, 127
1, 321000, Tempo, 600962
1, 321120, Key_signature, 4, "major"
1, 321120, Tempo, 522330
1, 321120, Note_on_c, 0, 56, 0
1, 321120, Note_on_c, 0, 49, 0
1, 321120, Note_on_c, 0, 65, 0
1, 321120, Note_on_c, 0, 77, 0
1, 321120, Note_on_c, 0, 74, 0
1, 321120, Note_on_c, 0, 68, 0
1, 321120, Note_on_c, 0, 62, 0
1, 321120, Note_on_c, 0, 59, 0
1, 321120, Control_c, 0, 64, 0
1, 321120, Note_on_c, 0, 63, 79
1, 321120, Note_on_c, 0, 58, 71
1, 321120, Note_on_c, 0, 54, 71
1, 321200, Tempo, 513655
1, 321211, Control_c, 0, 64, 127
1, 321240, Note_on_c, 0, 78, 77
1, 321240, Note_on_c, 0, 82, 77
1, 321240, Note_on_c, 0, 90, 86
1, 321240, Note_on_c, 0, 87, 86
1, 321280, Tempo, 511553
1, 321300, Note_on_c, 0, 54, 0
1, 321300, Note_on_c, 0, 63, 0
1, 321300, Note_on_c, 0, 58, 0
1, 321300, Note_on_c, 0, 49, 71
1, 321330, Note_on_c, 0, 82, 0
1, 321330, Note_on_c, 0, 87, 0
1, 321330, Note_on_c, 0, 78, 0
1, 321330, Note_on_c, 0, 90, 0
1, 321360, Tempo, 509468
1, 321360, Note_on_c, 0, 92, 81
1, 321360, Note_on_c, 0, 80, 72
1, 321460, Tempo, 507357
1, 321480, Note_on_c, 0, 49, 0
1, 321480, Note_on_c, 0, 63, 79
1, 321480, Note_on_c, 0, 58, 71
1, 321480, Note_on_c, 0, 54, 71
1, 321494, Control_c, 0, 64, 0
1, 321540, Tempo, 505263
1, 321543, Control_c, 0, 64, 127
1, 321600, Tempo, 536529
1, 321600, Note_on_c, 0, 80, 0
1, 321600, Note_on_c, 0, 92, 0
1, 321600, Note_on_c, 0, 93, 93
1, 321600, Note_on_c, 0, 90, 93
1, 321600, Note_on_c, 0, 87, 79
1, 321600, Note_on_c, 0, 81, 79
1, 321660, Note_on_c, 0, 58, 0
1, 321660, Note_on_c, 0, 54, 0
1, 321660, Note_on_c, 0, 63, 0
1, 321660, Note_on_c, 0, 37, 69
1, 321690, Note_on_c, 0, 90, 0
1, 321690, Note_on_c, 0, 81, 0
1, 321690, Note_on_c, 0, 93, 0
1, 321690, Note_on_c, 0, 87, 0
1, 321720, Tempo, 561430
1, 321720, Note_on_c, 0, 94, 86
1, 321720, Note_on_c, 0, 82, 77
1, 321810, Note_on_c, 0, 82, 0
1, 321810, Note_on_c, 0, 94, 0
1, 321840, Tempo, 526778
1, 321840, Note_on_c, 0, 37, 0
1, 321840, Note_on_c, 0, 99, 94
1, 321840, Note_on_c, 0, 91, 84
1, 321840, Note_on_c, 0, 87, 84
1, 321840, Note_on_c, 0, 55, 67
1, 321840, Note_on_c, 0, 58, 67
1, 321840, Note_on_c, 0, 64, 75
1, 321846, Control_c, 0, 64, 0
1, 321860, Tempo, 524567
1, 321880, Tempo, 522330
1, 321891, Control_c, 0, 64, 127
1, 321900, Tempo, 520156
1, 321920, Tempo, 517956
1, 321930, Note_on_c, 0, 87, 0
1, 321930, Note_on_c, 0, 99, 0
1, 321930, Note_on_c, 0, 91, 0
1, 321940, Tempo, 515818
1, 321960, Tempo, 511553
1, 321960, Note_on_c, 0, 98, 87
1, 321960, Note_on_c, 0, 86, 79
1, 322020, Note_on_c, 0, 55, 0
1, 322020, Note_on_c, 0, 64, 0
1, 322020, Note_on_c, 0, 58, 0
1, 322020, Note_on_c, 0, 49, 64
1, 322050, Note_on_c, 0, 98, 0
1, 322050, Note_on_c, 0, 86, 0
1, 322060, Tempo, 507357
1, 322080, Note_on_c, 0, 97, 95
1, 322080, Note_on_c, 0, 85, 84
1, 322160, Tempo, 505263
1, 322170, Note_on_c, 0, 85, 0
1, 322170, Note_on_c, 0, 97, 0
1, 322200, Note_on_c, 0, 49, 0
1, 322200, Note_on_c, 0, 84, 80
1, 322200, Note_on_c, 0, 96, 89
1, 322200, Control_c, 0, 64, 0
1, 322200, Note_on_c, 0, 55, 63
1, 322200, Note_on_c, 0, 58, 63
1, 322200, Note_on_c, 0, 64, 72
1, 322220, Tempo, 505263
1, 322240, Control_c, 0, 64, 127
1, 322290, Note_on_c, 0, 96, 0
1, 322290, Note_on_c, 0, 84, 0
1, 322300, Tempo, 507357
1, 322320, Note_on_c, 0, 83, 81
1, 322320, Note_on_c, 0, 95, 90
1, 322380, Tempo, 509468
1, 322380, Note_on_c, 0, 58, 0
1, 322380, Note_on_c, 0, 64, 0
1, 322380, Note_on_c, 0, 55, 0
1, 322380, Note_on_c, 0, 37, 63
1, 322410, Note_on_c, 0, 83, 0
1, 322410, Note_on_c, 0, 95, 0
1, 322440, Note_on_c, 0, 94, 87
1, 322440, Note_on_c, 0, 82, 79
1, 322460, Tempo, 511553
1, 322530, Note_on_c, 0, 82, 0
1, 322530, Note_on_c, 0, 94, 0
1, 322540, Tempo, 513655
1, 322560, Tempo, 520156
1, 322560, Note_on_c, 0, 37, 0
1, 322560, Note_on_c, 0, 93, 90
1, 322560, Note_on_c, 0, 88, 90
1, 322560, Note_on_c, 0, 81, 81
1, 322560, Note_on_c, 0, 64, 64
1, 322560, Note_on_c, 0, 59, 57
1, 322560, Note_on_c, 0, 56, 57
1, 322570, Control_c, 0, 64, 0
1, 322611, Control_c, 0, 64, 127
1, 322650, Note_on_c, 0, 81, 0
1, 322650, Note_on_c, 0, 93, 0
1, 322650, Note_on_c, 0, 88, 0
1, 322680, Note_on_c, 0, 92, 81
1, 322680, Note_on_c, 0, 80, 72
1, 322737, Control_c, 0, 64, 0
1, 322740, Note_on_c, 0, 64, 0
1, 322740, Note_on_c, 0, 56, 0
1, 322740, Note_on_c, 0, 59, 0
1, 322740, Note_on_c, 0, 35, 54
1, 322770, Note_on_c, 0, 92, 0
1, 322770, Note_on_c, 0, 80, 0
1, 322800, Note_on_c, 0, 85, 79
1, 322800, Note_on_c, 0, 97, 87
1, 322920, Tempo, 503271
1, 322920, Note_on_c, 0, 35, 0
1, 322920, Note_on_c, 0, 63, 55
1, 322920, Note_on_c, 0, 59, 50
1, 322920, Note_on_c, 0, 57, 50
1, 322989, Control_c, 0, 64, 127
1, 323040, Note_on_c, 0, 97, 0
1, 323040, Note_on_c, 0, 85, 0
1, 323040, Note_on_c, 0, 95, 70
1, 323040, Note_on_c, 0, 87, 70
1, 323040, Note_on_c, 0, 83, 62
1, 323100, Note_on_c, 0, 59, 0
1, 323100, Note_on_c, 0, 57, 0
1, 323100, Note_on_c, 0, 63, 0
1, 323100, Note_on_c, 0, 47, 44
1, 323160, Note_on_c, 0, 93, 79
1, 323160, Note_on_c, 0, 81, 70
1, 323250, Note_on_c, 0, 81, 0
1, 323250, Note_on_c, 0, 93, 0
1, 323280, Tempo, 531303
1, 323280, Note_on_c, 0, 95, 0
1, 323280, Note_on_c, 0, 83, 0
1, 323280, Note_on_c, 0, 87, 0
1, 323280, Note_on_c, 0, 47, 0
1, 323280, Note_on_c, 0, 92, 73
1, 323280, Note_on_c, 0, 88, 73
1, 323280, Note_on_c, 0, 80, 66
1, 323280, Note_on_c, 0, 64, 52
1, 323280, Note_on_c, 0, 59, 45
1, 323280, Note_on_c, 0, 56, 45
1, 323298, Control_c, 0, 64, 0
1, 323358, Control_c, 0, 64, 127
1, 323370, Note_on_c, 0, 80, 0
1, 323370, Note_on_c, 0, 92, 0
1, 323370, Note_on_c, 0, 88, 0
1, 323400, Note_on_c, 0, 90, 71
1, 323400, Note_on_c, 0, 78, 63
1, 323460, Note_on_c, 0, 64, 0
1, 323460, Note_on_c, 0, 56, 0
1, 323460, Note_on_c, 0, 59, 0
1, 323460, Note_on_c, 0, 49, 45
1, 323490, Note_on_c, 0, 90, 0
1, 323490, Note_on_c, 0, 78, 0
1, 323520, Tempo, 550257
1, 323520, Note_on_c, 0, 92, 67
1, 323520, Note_on_c, 0, 80, 60
1, 323610, Note_on_c, 0, 80, 0
1, 323610, Note_on_c, 0, 92, 0
1, 323640, Tempo, 584283
1, 323640, Note_on_c, 0, 49, 0
1, 323640, Note_on_c, 0, 88, 67
1, 323640, Note_on_c, 0, 80, 61
1, 323640, Note_on_c, 0, 76, 61
1, 323640, Note_on_c, 0, 64, 51
1, 323640, Note_on_c, 0, 71, 57
1, 323640, Note_on_c, 0, 68, 57
1, 323640, Note_on_c, 0, 59, 51
1, 323662, Control_c, 0, 64, 0
1, 323731, Control_c, 0, 64, 127
1, 323980, Tempo, 495540
1, 324000, Tempo, 508087
1, 324000, Note_on_c, 0, 59, 0
1, 324000, Note_on_c, 0, 71, 0
1, 324000, Note_on_c, 0, 80, 0
1, 324000, Note_on_c, 0, 76, 0
1, 324000, Note_on_c, 0, 88, 0
1, 324000, Note_on_c, 0, 68, 0
1, 324000, Note_on_c, 0, 64, 0
1, 324000, Control_c, 0, 64, 0
1, 324000, Note_on_c, 0, 47, 72
1, 324000, Note_on_c, 0, 52, 81
1, 324000, Note_on_c, 0, 57, 81
1, 324090, Note_on_c, 0, 57, 0
1, 324090, Note_on_c, 0, 52, 0
1, 324090, Note_on_c, 0, 47, 0
1, 324120, Note_on_c, 0, 61, 63
1, 324120, Note_on_c, 0, 64, 72
1, 324143, Control_c, 0, 64, 127
1, 324210, Note_on_c, 0, 64, 0
1, 324210, Note_on_c, 0, 61, 0
1, 324240, Tempo, 521875
1, 324240, Note_on_c, 0, 73, 65
1, 324240, Note_on_c, 0, 69, 59
1, 324330, Note_on_c, 0, 69, 0
1, 324330, Note_on_c, 0, 73, 0
1, 324354, Tempo, 484301
1, 324360, Note_on_c, 0, 85, 94
1, 324360, Note_on_c, 0, 81, 84
1, 324394, Control_c, 0, 64, 0
1, 324410, Tempo, 482587
1, 324450, Note_on_c, 0, 81, 0
1, 324450, Note_on_c, 0, 85, 0
1, 324462, Tempo, 480846
1, 324480, Note_on_c, 0, 72, 61
1, 324480, Note_on_c, 0, 68, 53
1, 324514, Tempo, 479118
1, 324570, Tempo, 477441
1, 324570, Note_on_c, 0, 68, 0
1, 324570, Note_on_c, 0, 72, 0
1, 324600, Note_on_c, 0, 69, 47
1, 324600, Note_on_c, 0, 73, 54
1, 324622, Tempo, 475737
1, 324674, Tempo, 474083
1, 324690, Note_on_c, 0, 73, 0
1, 324690, Note_on_c, 0, 69, 0
1, 324714, Tempo, 472404
1, 324720, Note_on_c, 0, 68, 72
1, 324720, Note_on_c, 0, 65, 63
1, 324810, Note_on_c, 0, 65, 0
1, 324810, Note_on_c, 0, 68, 0
1, 324840, Note_on_c, 0, 66, 55
1, 324840, Note_on_c, 0, 69, 63
1, 324930, Note_on_c, 0, 69, 0
1, 324930, Note_on_c, 0, 66, 0
1, 324960, Tempo, 489636
1, 324960, Note_on_c, 0, 72, 62
1, 324960, Note_on_c, 0, 68, 53
1, 325050, Note_on_c, 0, 68, 0
1, 325050, Note_on_c, 0, 72, 0
1, 325080, Tempo, 477631
1, 325080, Note_on_c, 0, 69, 66
1, 325080, Note_on_c, 0, 73, 75
1, 325170, Note_on_c, 0, 73, 0
1, 325200, Note_on_c, 0, 76, 72
1, 325290, Note_on_c, 0, 76, 0
1, 325320, Note_on_c, 0, 69, 0
1, 325320, Note_on_c, 0, 71, 61
1, 325320, Note_on_c, 0, 75, 66
1, 325410, Note_on_c, 0, 75, 0
1, 325410, Note_on_c, 0, 71, 0
1, 325440, Tempo, 501798
1, 325440, Note_on_c, 0, 47, 62
1, 325440, Note_on_c, 0, 52, 69
1, 325440, Note_on_c, 0, 56, 69
1, 325530, Note_on_c, 0, 56, 0
1, 325530, Note_on_c, 0, 52, 0
1, 325530, Note_on_c, 0, 47, 0
1, 325560, Note_on_c, 0, 59, 61
1, 325560, Note_on_c, 0, 68, 66
1, 325594, Control_c, 0, 64, 127
1, 325650, Note_on_c, 0, 68, 0
1, 325650, Note_on_c, 0, 59, 0
1, 325680, Tempo, 513875
1, 325680, Note_on_c, 0, 71, 62
1, 325680, Note_on_c, 0, 68, 53
1, 325770, Note_on_c, 0, 68, 0
1, 325770, Note_on_c, 0, 71, 0
1, 325800, Tempo, 470810
1, 325800, Note_on_c, 0, 80, 84
1, 325800, Note_on_c, 0, 83, 94
1, 325886, Control_c, 0, 64, 0
1, 325890, Note_on_c, 0, 83, 0
1, 325890, Note_on_c, 0, 80, 0
1, 325892, Tempo, 472404
1, 325920, Note_on_c, 0, 64, 56
1, 325920, Note_on_c, 0, 68, 63
1, 325984, Tempo, 474083
1, 326010, Note_on_c, 0, 68, 0
1, 326010, Note_on_c, 0, 64, 0
1, 326040, Note_on_c, 0, 66, 52
1, 326040, Note_on_c, 0, 69, 57
1, 326080, Tempo, 475737
1, 326130, Note_on_c, 0, 69, 0
1, 326130, Note_on_c, 0, 66, 0
1, 326160, Tempo, 482587
1, 326160, Note_on_c, 0, 68, 61
1, 326160, Note_on_c, 0, 71, 66
1, 326200, Tempo, 484301
1, 326224, Tempo, 486066
1, 326250, Note_on_c, 0, 71, 0
1, 326250, Note_on_c, 0, 68, 0
1, 326252, Tempo, 487845
1, 326280, Note_on_c, 0, 69, 52
1, 326280, Note_on_c, 0, 73, 57
1, 326292, Tempo, 489636
1, 326320, Tempo, 491360
1, 326344, Tempo, 493178
1, 326370, Note_on_c, 0, 73, 0
1, 326370, Note_on_c, 0, 69, 0
1, 326372, Tempo, 495009
1, 326400, Note_on_c, 0, 71, 54
1, 326400, Note_on_c, 0, 68, 47
1, 326412, Tempo, 496853
1, 326440, Tempo, 498670
1, 326464, Tempo, 500542
1, 326490, Note_on_c, 0, 68, 0
1, 326490, Note_on_c, 0, 71, 0
1, 326492, Tempo, 502428
1, 326520, Tempo, 549501
1, 326520, Note_on_c, 0, 64, 66
1, 326520, Note_on_c, 0, 68, 75
1, 326880, Tempo, 508087
1, 326880, Note_on_c, 0, 68, 0
1, 326880, Note_on_c, 0, 64, 0
1, 326880, Note_on_c, 0, 59, 47
1, 326880, Note_on_c, 0, 64, 54
1, 326880, Note_on_c, 0, 69, 54
1, 326970, Note_on_c, 0, 69, 0
1, 326970, Note_on_c, 0, 64, 0
1, 326970, Note_on_c, 0, 59, 0
1, 327000, Note_on_c, 0, 73, 40
1, 327000, Note_on_c, 0, 76, 44
1, 327006, Control_c, 0, 64, 127
1, 327090, Note_on_c, 0, 76, 0
1, 327090, Note_on_c, 0, 73, 0
1, 327120, Tempo, 521875
1, 327120, Note_on_c, 0, 85, 41
1, 327120, Note_on_c, 0, 81, 41
1, 327210, Note_on_c, 0, 81, 0
1, 327210, Note_on_c, 0, 85, 0
1, 327234, Tempo, 484301
1, 327240, Control_c, 0, 64, 0
1, 327240, Note_on_c, 0, 93, 47
1, 327240, Note_on_c, 0, 97, 54
1, 327290, Tempo, 482587
1, 327330, Note_on_c, 0, 97, 0
1, 327330, Note_on_c, 0, 93, 0
1, 327342, Tempo, 480846
1, 327360, Note_on_c, 0, 84, 36
1, 327360, Note_on_c, 0, 80, 32
1, 327394, Tempo, 479118
1, 327450, Tempo, 477441
1, 327450, Note_on_c, 0, 80, 0
1, 327450, Note_on_c, 0, 84, 0
1, 327480, Note_on_c, 0, 81, 29
1, 327480, Note_on_c, 0, 85, 33
1, 327502, Tempo, 475737
1, 327554, Tempo, 474083
1, 327570, Note_on_c, 0, 85, 0
1, 327570, Note_on_c, 0, 81, 0
1, 327594, Tempo, 472404
1, 327600, Note_on_c, 0, 80, 44
1, 327600, Note_on_c, 0, 77, 40
1, 327690, Note_on_c, 0, 77, 0
1, 327690, Note_on_c, 0, 80, 0
1, 327720, Note_on_c, 0, 78, 34
1, 327720, Note_on_c, 0, 81, 37
1, 327810, Note_on_c, 0, 81, 0
1, 327810, Note_on_c, 0, 78, 0
1, 327840, Tempo, 489636
1, 327840, Note_on_c, 0, 84, 36
1, 327840, Note_on_c, 0, 80, 33
1, 327930, Note_on_c, 0, 80, 0
1, 327930, Note_on_c, 0, 84, 0
1, 327960, Tempo, 477631
1, 327960, Note_on_c, 0, 81, 45
1, 327960, Note_on_c, 0, 85, 45
1, 328050, Note_on_c, 0, 85, 0
1, 328080, Note_on_c, 0, 88, 44
1, 328170, Note_on_c, 0, 88, 0
1, 328200, Note_on_c, 0, 81, 0
1, 328200, Note_on_c, 0, 83, 42
1, 328200, Note_on_c, 0, 87, 42
1, 328290, Note_on_c, 0, 87, 0
1, 328290, Note_on_c, 0, 83, 0
1, 328320, Tempo, 501798
1, 328320, Note_on_c, 0, 59, 36
1, 328320, Note_on_c, 0, 64, 36
1, 328320, Note_on_c, 0, 68, 43
1, 328401, Control_c, 0, 64, 127
1, 328410, Note_on_c, 0, 68, 0
1, 328410, Note_on_c, 0, 64, 0
1, 328410, Note_on_c, 0, 59, 0
1, 328440, Note_on_c, 0, 71, 36
1, 328440, Note_on_c, 0, 76, 42
1, 328530, Note_on_c, 0, 76, 0
1, 328530, Note_on_c, 0, 71, 0
1, 328560, Tempo, 513875
1, 328560, Note_on_c, 0, 83, 36
1, 328560, Note_on_c, 0, 80, 33
1, 328650, Note_on_c, 0, 80, 0
1, 328650, Note_on_c, 0, 83, 0
1, 328680, Tempo, 470810
1, 328680, Note_on_c, 0, 92, 53
1, 328680, Note_on_c, 0, 95, 62
1, 328751, Control_c, 0, 64, 0
1, 328770, Note_on_c, 0, 95, 0
1, 328770, Note_on_c, 0, 92, 0
1, 328772, Tempo, 472404
1, 328800, Note_on_c, 0, 76, 35
1, 328800, Note_on_c, 0, 80, 40
1, 328864, Tempo, 474083
1, 328890, Note_on_c, 0, 80, 0
1, 328890, Note_on_c, 0, 76, 0
1, 328920, Note_on_c, 0, 78, 31
1, 328920, Note_on_c, 0, 81, 35
1, 328960, Tempo, 475737
1, 329010, Note_on_c, 0, 81, 0
1, 329010, Note_on_c, 0, 78, 0
1, 329040, Tempo, 482587
1, 329040, Note_on_c, 0, 80, 36
1, 329040, Note_on_c, 0, 83, 42
1, 329080, Tempo, 484301
1, 329104, Tempo, 486066
1, 329130, Note_on_c, 0, 83, 0
1, 329130, Note_on_c, 0, 80, 0
1, 329132, Tempo, 487845
1, 329160, Note_on_c, 0, 81, 31
1, 329160, Note_on_c, 0, 85, 35
1, 329172, Tempo, 489636
1, 329200, Tempo, 491360
1, 329224, Tempo, 493178
1, 329250, Note_on_c, 0, 85, 0
1, 329250, Note_on_c, 0, 81, 0
1, 329252, Tempo, 495009
1, 329280, Note_on_c, 0, 80, 29
1, 329280, Note_on_c, 0, 83, 33
1, 329292, Tempo, 496853
1, 329320, Tempo, 498670
1, 329344, Tempo, 500542
1, 329370, Note_on_c, 0, 83, 0
1, 329370, Note_on_c, 0, 80, 0
1, 329372, Tempo, 502428
1, 329400, Tempo, 583544
1, 329400, Note_on_c, 0, 76, 41
1, 329400, Note_on_c, 0, 80, 45
1, 329700, Note_on_c, 0, 80, 0
1, 329700, Note_on_c, 0, 76, 0
1, 329760, Tempo, 515818
1, 329760, Note_on_c, 0, 66, 79
1, 329760, Note_on_c, 0, 61, 71
1, 329760, Note_on_c, 0, 57, 71
1, 329840, Tempo, 513655
1, 329851, Control_c, 0, 64, 127
1, 329880, Note_on_c, 0, 69, 69
1, 329880, Note_on_c, 0, 73, 69
1, 329880, Note_on_c, 0, 81, 77
1, 329880, Note_on_c, 0, 78, 77
1, 329920, Tempo, 511553
1, 329940, Note_on_c, 0, 57, 0
1, 329940, Note_on_c, 0, 66, 0
1, 329940, Note_on_c, 0, 61, 0
1, 329940, Note_on_c, 0, 52, 71
1, 329970, Note_on_c, 0, 73, 0
1, 329970, Note_on_c, 0, 78, 0
1, 329970, Note_on_c, 0, 69, 0
1, 329970, Note_on_c, 0, 81, 0
1, 330000, Tempo, 509468
1, 330000, Note_on_c, 0, 83, 81
1, 330000, Note_on_c, 0, 71, 81
1, 330100, Tempo, 507357
1, 330120, Note_on_c, 0, 52, 0
1, 330120, Note_on_c, 0, 66, 79
1, 330120, Note_on_c, 0, 61, 71
1, 330120, Note_on_c, 0, 57, 71
1, 330131, Control_c, 0, 64, 0
1, 330180, Tempo, 505263
1, 330183, Control_c, 0, 64, 127
1, 330240, Tempo, 531773
1, 330240, Note_on_c, 0, 71, 0
1, 330240, Note_on_c, 0, 83, 0
1, 330240, Note_on_c, 0, 84, 89
1, 330240, Note_on_c, 0, 81, 89
1, 330240, Note_on_c, 0, 78, 80
1, 330240, Note_on_c, 0, 72, 80
1, 330300, Note_on_c, 0, 61, 0
1, 330300, Note_on_c, 0, 57, 0
1, 330300, Note_on_c, 0, 66, 0
1, 330300, Note_on_c, 0, 40, 69
1, 330330, Note_on_c, 0, 81, 0
1, 330330, Note_on_c, 0, 72, 0
1, 330330, Note_on_c, 0, 84, 0
1, 330330, Note_on_c, 0, 78, 0
1, 330360, Tempo, 574823
1, 330360, Note_on_c, 0, 85, 86
1, 330360, Note_on_c, 0, 73, 77
1, 330450, Note_on_c, 0, 73, 0
1, 330450, Note_on_c, 0, 85, 0
1, 330480, Tempo, 529054
1, 330480, Note_on_c, 0, 40, 0
1, 330480, Note_on_c, 0, 90, 97
1, 330480, Note_on_c, 0, 81, 87
1, 330480, Note_on_c, 0, 78, 87
1, 330480, Note_on_c, 0, 56, 71
1, 330480, Note_on_c, 0, 59, 71
1, 330480, Note_on_c, 0, 66, 80
1, 330486, Control_c, 0, 64, 0
1, 330500, Tempo, 526778
1, 330520, Tempo, 522330
1, 330531, Control_c, 0, 64, 127
1, 330540, Tempo, 520156
1, 330560, Tempo, 515818
1, 330570, Note_on_c, 0, 78, 0
1, 330570, Note_on_c, 0, 90, 0
1, 330570, Note_on_c, 0, 81, 0
1, 330580, Tempo, 511553
1, 330600, Note_on_c, 0, 89, 87
1, 330600, Note_on_c, 0, 77, 79
1, 330620, Tempo, 507357
1, 330660, Note_on_c, 0, 56, 0
1, 330660, Note_on_c, 0, 66, 0
1, 330660, Note_on_c, 0, 59, 0
1, 330660, Note_on_c, 0, 52, 61
1, 330680, Tempo, 505263
1, 330690, Note_on_c, 0, 89, 0
1, 330690, Note_on_c, 0, 77, 0
1, 330720, Note_on_c, 0, 88, 95
1, 330720, Note_on_c, 0, 76, 84
1, 330740, Tempo, 503271
1, 330810, Note_on_c, 0, 76, 0
1, 330810, Note_on_c, 0, 88, 0
1, 330840, Note_on_c, 0, 52, 0
1, 330840, Note_on_c, 0, 75, 76
1, 330840, Note_on_c, 0, 87, 85
1, 330840, Note_on_c, 0, 56, 63
1, 330840, Note_on_c, 0, 59, 63
1, 330840, Note_on_c, 0, 66, 72
1, 330847, Control_c, 0, 64, 0
1, 330907, Control_c, 0, 64, 127
1, 330930, Note_on_c, 0, 87, 0
1, 330930, Note_on_c, 0, 75, 0
1, 330960, Tempo, 501211
1, 330960, Note_on_c, 0, 74, 79
1, 330960, Note_on_c, 0, 86, 87
1, 331020, Tempo, 503271
1, 331020, Note_on_c, 0, 59, 0
1, 331020, Note_on_c, 0, 66, 0
1, 331020, Note_on_c, 0, 56, 0
1, 331020, Note_on_c, 0, 40, 63
1, 331050, Note_on_c, 0, 74, 0
1, 331050, Note_on_c, 0, 86, 0
1, 331080, Tempo, 505263
1, 331080, Note_on_c, 0, 85, 87
1, 331080, Note_on_c, 0, 73, 79
1, 331140, Tempo, 507357
1, 331170, Note_on_c, 0, 73, 0
1, 331170, Note_on_c, 0, 85, 0
1, 331180, Tempo, 509468
1, 331200, Tempo, 520156
1, 331200, Note_on_c, 0, 40, 0
1, 331200, Note_on_c, 0, 84, 86
1, 331200, Note_on_c, 0, 80, 86
1, 331200, Note_on_c, 0, 72, 77
1, 331200, Note_on_c, 0, 68, 64
1, 331200, Note_on_c, 0, 64, 57
1, 331200, Note_on_c, 0, 59, 57
1, 331202, Control_c, 0, 64, 0
1, 331251, Control_c, 0, 64, 127
1, 331290, Note_on_c, 0, 72, 0
1, 331290, Note_on_c, 0, 84, 0
1, 331290, Note_on_c, 0, 80, 0
1, 331320, Note_on_c, 0, 83, 79
1, 331320, Note_on_c, 0, 71, 71
1, 331377, Control_c, 0, 64, 0
1, 331380, Note_on_c, 0, 68, 0
1, 331380, Note_on_c, 0, 59, 0
1, 331380, Note_on_c, 0, 64, 0
1, 331380, Note_on_c, 0, 52, 54
1, 331410, Note_on_c, 0, 83, 0
1, 331410, Note_on_c, 0, 71, 0
1, 331440, Note_on_c, 0, 76, 79
1, 331440, Note_on_c, 0, 88, 87
1, 331560, Tempo, 503271
1, 331560, Note_on_c, 0, 52, 0
1, 331560, Note_on_c, 0, 69, 55
1, 331560, Note_on_c, 0, 66, 50
1, 331560, Note_on_c, 0, 60, 50
1, 331629, Control_c, 0, 64, 127
1, 331680, Note_on_c, 0, 88, 0
1, 331680, Note_on_c, 0, 76, 0
1, 331680, Note_on_c, 0, 87, 73
1, 331680, Note_on_c, 0, 81, 73
1, 331680, Note_on_c, 0, 75, 66
1, 331740, Note_on_c, 0, 66, 0
1, 331740, Note_on_c, 0, 60, 0
1, 331740, Note_on_c, 0, 69, 0
1, 331740, Note_on_c, 0, 40, 44
1, 331800, Note_on_c, 0, 74, 77
1, 331800, Note_on_c, 0, 86, 77
1, 331890, Note_on_c, 0, 86, 0
1, 331890, Note_on_c, 0, 74, 0
1, 331920, Tempo, 531303
1, 331920, Note_on_c, 0, 87, 0
1, 331920, Note_on_c, 0, 75, 0
1, 331920, Note_on_c, 0, 81, 0
1, 331920, Note_on_c, 0, 40, 0
1, 331920, Note_on_c, 0, 85, 72
1, 331920, Note_on_c, 0, 80, 72
1, 331920, Note_on_c, 0, 73, 64
1, 331920, Note_on_c, 0, 68, 52
1, 331920, Note_on_c, 0, 64, 45
1, 331920, Note_on_c, 0, 61, 45
1, 331939, Control_c, 0, 64, 0
1, 331994, Control_c, 0, 64, 127
1, 332010, Note_on_c, 0, 73, 0
1, 332010, Note_on_c, 0, 85, 0
1, 332010, Note_on_c, 0, 80, 0
1, 332040, Note_on_c, 0, 83, 70
1, 332040, Note_on_c, 0, 71, 62
1, 332100, Note_on_c, 0, 68, 0
1, 332100, Note_on_c, 0, 61, 0
1, 332100, Note_on_c, 0, 64, 0
1, 332100, Note_on_c, 0, 52, 45
1, 332130, Note_on_c, 0, 83, 0
1, 332130, Note_on_c, 0, 71, 0
1, 332160, Tempo, 550257
1, 332160, Note_on_c, 0, 85, 64
1, 332160, Note_on_c, 0, 73, 59
1, 332250, Note_on_c, 0, 73, 0
1, 332250, Note_on_c, 0, 85, 0
1, 332280, Tempo, 578035
1, 332280, Note_on_c, 0, 80, 70
1, 332280, Note_on_c, 0, 77, 70
1, 332280, Note_on_c, 0, 71, 63
1, 332280, Note_on_c, 0, 68, 63
1, 332280, Note_on_c, 0, 65, 57
1, 332280, Note_on_c, 0, 62, 57
1, 332280, Note_on_c, 0, 59, 51
1, 332303, Control_c, 0, 64, 0
1, 332371, Control_c, 0, 64, 127
1, 332520, Tempo, 631446
1, 332640, Tempo, 515818
1, 332640, Note_on_c, 0, 59, 0
1, 332640, Note_on_c, 0, 52, 0
1, 332640, Note_on_c, 0, 68, 0
1, 332640, Note_on_c, 0, 80, 0
1, 332640, Note_on_c, 0, 77, 0
1, 332640, Note_on_c, 0, 71, 0
1, 332640, Note_on_c, 0, 65, 0
1, 332640, Note_on_c, 0, 62, 0
1, 332640, Control_c, 0, 64, 0
1, 332640, Note_on_c, 0, 66, 79
1, 332640, Note_on_c, 0, 61, 71
1, 332640, Note_on_c, 0, 57, 71
1, 332720, Tempo, 513655
1, 332731, Control_c, 0, 64, 127
1, 332760, Note_on_c, 0, 81, 64
1, 332760, Note_on_c, 0, 85, 64
1, 332760, Note_on_c, 0, 93, 73
1, 332760, Note_on_c, 0, 90, 73
1, 332800, Tempo, 511553
1, 332820, Note_on_c, 0, 57, 0
1, 332820, Note_on_c, 0, 66, 0
1, 332820, Note_on_c, 0, 61, 0
1, 332820, Note_on_c, 0, 52, 71
1, 332850, Note_on_c, 0, 85, 0
1, 332850, Note_on_c, 0, 90, 0
1, 332850, Note_on_c, 0, 81, 0
1, 332850, Note_on_c, 0, 93, 0
1, 332880, Tempo, 509468
1, 332880, Note_on_c, 0, 95, 76
1, 332880, Note_on_c, 0, 83, 76
1, 332980, Tempo, 507357
1, 333000, Note_on_c, 0, 52, 0
1, 333000, Note_on_c, 0, 66, 79
1, 333000, Note_on_c, 0, 61, 71
1, 333000, Note_on_c, 0, 57, 71
1, 333011, Control_c, 0, 64, 0
1, 333060, Tempo, 505263
1, 333063, Control_c, 0, 64, 127
1, 333120, Tempo, 531773
1, 333120, Note_on_c, 0, 83, 0
1, 333120, Note_on_c, 0, 95, 0
1, 333120, Note_on_c, 0, 96, 83
1, 333120, Note_on_c, 0, 93, 83
1, 333120, Note_on_c, 0, 90, 74
1, 333120, Note_on_c, 0, 84, 74
1, 333180, Note_on_c, 0, 61, 0
1, 333180, Note_on_c, 0, 57, 0
1, 333180, Note_on_c, 0, 66, 0
1, 333180, Note_on_c, 0, 40, 69
1, 333210, Note_on_c, 0, 93, 0
1, 333210, Note_on_c, 0, 84, 0
1, 333210, Note_on_c, 0, 96, 0
1, 333210, Note_on_c, 0, 90, 0
1, 333240, Tempo, 574823
1, 333240, Note_on_c, 0, 97, 76
1, 333240, Note_on_c, 0, 85, 67
1, 333330, Note_on_c, 0, 85, 0
1, 333330, Note_on_c, 0, 97, 0
1, 333360, Tempo, 529054
1, 333360, Note_on_c, 0, 40, 0
1, 333360, Note_on_c, 0, 102, 84
1, 333360, Note_on_c, 0, 93, 77
1, 333360, Note_on_c, 0, 90, 77
1, 333360, Note_on_c, 0, 59, 66
1, 333360, Note_on_c, 0, 63, 66
1, 333360, Note_on_c, 0, 69, 75
1, 333366, Control_c, 0, 64, 0
1, 333380, Tempo, 526778
1, 333400, Tempo, 522330
1, 333411, Control_c, 0, 64, 127
1, 333420, Tempo, 520156
1, 333440, Tempo, 515818
1, 333450, Note_on_c, 0, 90, 0
1, 333450, Note_on_c, 0, 102, 0
1, 333450, Note_on_c, 0, 93, 0
1, 333460, Tempo, 511553
1, 333480, Note_on_c, 0, 101, 80
1, 333480, Note_on_c, 0, 89, 74
1, 333500, Tempo, 507357
1, 333540, Note_on_c, 0, 59, 0
1, 333540, Note_on_c, 0, 69, 0
1, 333540, Note_on_c, 0, 63, 0
1, 333540, Note_on_c, 0, 52, 61
1, 333560, Tempo, 505263
1, 333570, Note_on_c, 0, 101, 0
1, 333570, Note_on_c, 0, 89, 0
1, 333600, Note_on_c, 0, 88, 80
1, 333600, Note_on_c, 0, 100, 87
1, 333620, Tempo, 503271
1, 333690, Note_on_c, 0, 100, 0
1, 333690, Note_on_c, 0, 88, 0
1, 333720, Note_on_c, 0, 52, 0
1, 333720, Note_on_c, 0, 87, 72
1, 333720, Note_on_c, 0, 99, 81
1, 333720, Note_on_c, 0, 59, 63
1, 333720, Note_on_c, 0, 63, 63
1, 333720, Note_on_c, 0, 69, 72
1, 333727, Control_c, 0, 64, 0
1, 333760, Control_c, 0, 64, 127
1, 333810, Note_on_c, 0, 99, 0
1, 333810, Note_on_c, 0, 87, 0
1, 333840, Tempo, 501211
1, 333840, Note_on_c, 0, 86, 74
1, 333840, Note_on_c, 0, 98, 82
1, 333900, Tempo, 503271
1, 333900, Note_on_c, 0, 63, 0
1, 333900, Note_on_c, 0, 69, 0
1, 333900, Note_on_c, 0, 59, 0
1, 333900, Note_on_c, 0, 40, 63
1, 333930, Note_on_c, 0, 86, 0
1, 333930, Note_on_c, 0, 98, 0
1, 333960, Tempo, 505263
1, 333960, Note_on_c, 0, 97, 82
1, 333960, Note_on_c, 0, 85, 74
1, 334020, Tempo, 507357
1, 334050, Note_on_c, 0, 85, 0
1, 334050, Note_on_c, 0, 97, 0
1, 334060, Tempo, 509468
1, 334080, Tempo, 520156
1, 334080, Note_on_c, 0, 40, 0
1, 334080, Note_on_c, 0, 96, 81
1, 334080, Note_on_c, 0, 92, 81
1, 334080, Note_on_c, 0, 84, 73
1, 334080, Note_on_c, 0, 68, 64
1, 334080, Note_on_c, 0, 64, 57
1, 334080, Note_on_c, 0, 59, 57
1, 334087, Control_c, 0, 64, 0
1, 334131, Control_c, 0, 64, 127
1, 334170, Note_on_c, 0, 84, 0
1, 334170, Note_on_c, 0, 96, 0
1, 334170, Note_on_c, 0, 92, 0
1, 334200, Note_on_c, 0, 95, 74
1, 334200, Note_on_c, 0, 83, 66
1, 334257, Control_c, 0, 64, 0
1, 334260, Note_on_c, 0, 68, 0
1, 334260, Note_on_c, 0, 59, 0
1, 334260, Note_on_c, 0, 64, 0
1, 334260, Note_on_c, 0, 52, 54
1, 334290, Note_on_c, 0, 95, 0
1, 334290, Note_on_c, 0, 83, 0
1, 334320, Note_on_c, 0, 88, 74
1, 334320, Note_on_c, 0, 100, 82
1, 334440, Tempo, 503271
1, 334440, Note_on_c, 0, 52, 0
1, 334440, Note_on_c, 0, 69, 55
1, 334440, Note_on_c, 0, 66, 50
1, 334440, Note_on_c, 0, 60, 50
1, 334509, Control_c, 0, 64, 127
1, 334560, Note_on_c, 0, 100, 0
1, 334560, Note_on_c, 0, 88, 0
1, 334560, Note_on_c, 0, 99, 70
1, 334560, Note_on_c, 0, 93, 70
1, 334560, Note_on_c, 0, 87, 63
1, 334620, Note_on_c, 0, 66, 0
1, 334620, Note_on_c, 0, 60, 0
1, 334620, Note_on_c, 0, 69, 0
1, 334620, Note_on_c, 0, 40, 44
1, 334680, Note_on_c, 0, 86, 73
1, 334680, Note_on_c, 0, 98, 73
1, 334770, Note_on_c, 0, 98, 0
1, 334770, Note_on_c, 0, 86, 0
1, 334800, Tempo, 531303
1, 334800, Note_on_c, 0, 99, 0
1, 334800, Note_on_c, 0, 87, 0
1, 334800, Note_on_c, 0, 93, 0
1, 334800, Note_on_c, 0, 40, 0
1, 334800, Note_on_c, 0, 97, 67
1, 334800, Note_on_c, 0, 92, 67
1, 334800, Note_on_c, 0, 85, 61
1, 334800, Note_on_c, 0, 68, 52
1, 334800, Note_on_c, 0, 64, 45
1, 334800, Note_on_c, 0, 61, 45
1, 334814, Control_c, 0, 64, 0
1, 334864, Control_c, 0, 64, 127
1, 334890, Note_on_c, 0, 85, 0
1, 334890, Note_on_c, 0, 97, 0
1, 334890, Note_on_c, 0, 92, 0
1, 334920, Note_on_c, 0, 95, 65
1, 334920, Note_on_c, 0, 83, 57
1, 334980, Note_on_c, 0, 68, 0
1, 334980, Note_on_c, 0, 61, 0
1, 334980, Note_on_c, 0, 64, 0
1, 334980, Note_on_c, 0, 52, 45
1, 335010, Note_on_c, 0, 95, 0
1, 335010, Note_on_c, 0, 83, 0
1, 335040, Tempo, 550257
1, 335040, Note_on_c, 0, 97, 61
1, 335040, Note_on_c, 0, 85, 55
1, 335130, Note_on_c, 0, 85, 0
1, 335130, Note_on_c, 0, 97, 0
1, 335160, Tempo, 578035
1, 335160, Note_on_c, 0, 52, 0
1, 335160, Note_on_c, 0, 92, 57
1, 335160, Note_on_c, 0, 89, 57
1, 335160, Note_on_c, 0, 83, 54
1, 335160, Note_on_c, 0, 80, 54
1, 335160, Note_on_c, 0, 62, 45
1, 335160, Note_on_c, 0, 74, 51
1, 335160, Note_on_c, 0, 71, 51
1, 335160, Note_on_c, 0, 65, 45
1, 335184, Control_c, 0, 64, 0
1, 335251, Control_c, 0, 64, 127
1, 335400, Tempo, 600962
1, 335520, Key_signature, -5, "major"
1, 335520, Tempo, 587199
1, 335520, Note_on_c, 0, 65, 0
1, 335520, Note_on_c, 0, 92, 0
1, 335520, Note_on_c, 0, 62, 0
1, 335520, Note_on_c, 0, 89, 0
1, 335520, Note_on_c, 0, 83, 0
1, 335520, Note_on_c, 0, 80, 0
1, 335520, Note_on_c, 0, 74, 0
1, 335520, Note_on_c, 0, 71, 0
1, 335520, Note_on_c, 0, 44, 47
1, 335520, Control_c, 0, 64, 0
1, 335520, Note_on_c, 0, 37, 41
1, 335580, Tempo, 493462
1, 335610, Note_on_c, 0, 37, 0
1, 335610, Note_on_c, 0, 44, 0
1, 335611, Control_c, 0, 64, 127
1, 335640, Tempo, 491400
1, 335640, Note_on_c, 0, 54, 47
1, 335640, Note_on_c, 0, 49, 47
1, 335640, Note_on_c, 0, 45, 36
1, 335700, Tempo, 489356
1, 335730, Note_on_c, 0, 45, 0
1, 335730, Note_on_c, 0, 49, 0
1, 335730, Note_on_c, 0, 54, 0
1, 335760, Tempo, 487329
1, 335760, Note_on_c, 0, 53, 47
1, 335760, Note_on_c, 0, 37, 41
1, 335820, Tempo, 485319
1, 335850, Note_on_c, 0, 37, 0
1, 335850, Note_on_c, 0, 53, 0
1, 335880, Tempo, 483325
1, 335880, Note_on_c, 0, 57, 54
1, 335880, Note_on_c, 0, 54, 54
1, 335880, Note_on_c, 0, 45, 36
1, 335897, Control_c, 0, 64, 0
1, 335943, Control_c, 0, 64, 127
1, 335970, Note_on_c, 0, 45, 0
1, 335970, Note_on_c, 0, 54, 0
1, 335970, Note_on_c, 0, 57, 0
1, 336000, Note_on_c, 0, 56, 52
1, 336000, Note_on_c, 0, 37, 43
1, 336090, Note_on_c, 0, 37, 0
1, 336090, Note_on_c, 0, 56, 0
1, 336120, Tempo, 512864
1, 336120, Note_on_c, 0, 57, 52
1, 336120, Note_on_c, 0, 61, 52
1, 336120, Note_on_c, 0, 45, 40
1, 336210, Note_on_c, 0, 45, 0
1, 336210, Note_on_c, 0, 61, 0
1, 336210, Note_on_c, 0, 57, 0
1, 336240, Tempo, 483325
1, 336240, Note_on_c, 0, 59, 52
1, 336240, Note_on_c, 0, 37, 45
1, 336246, Control_c, 0, 64, 0
1, 336291, Control_c, 0, 64, 127
1, 336330, Note_on_c, 0, 37, 0
1, 336330, Note_on_c, 0, 59, 0
1, 336360, Note_on_c, 0, 60, 46
1, 336360, Note_on_c, 0, 63, 60
1, 336360, Note_on_c, 0, 44, 41
1, 336450, Note_on_c, 0, 44, 0
1, 336450, Note_on_c, 0, 63, 0
1, 336450, Note_on_c, 0, 60, 0
1, 336480, Note_on_c, 0, 58, 41
1, 336480, Note_on_c, 0, 61, 52
1, 336480, Note_on_c, 0, 49, 41
1, 336570, Note_on_c, 0, 49, 0
1, 336570, Note_on_c, 0, 61, 0
1, 336570, Note_on_c, 0, 58, 0
1, 336600, Tempo, 471661
1, 336600, Note_on_c, 0, 56, 41
1, 336600, Note_on_c, 0, 60, 52
1, 336600, Note_on_c, 0, 56, 44
1, 336611, Control_c, 0, 64, 0
1, 336620, Tempo, 479348
1, 336640, Control_c, 0, 64, 127
1, 336660, Tempo, 481309
1, 336690, Note_on_c, 0, 56, 0
1, 336690, Note_on_c, 0, 60, 0
1, 336690, Note_on_c, 0, 56, 0
1, 336700, Tempo, 483325
1, 336720, Note_on_c, 0, 55, 52
1, 336720, Note_on_c, 0, 49, 41
1, 336740, Tempo, 485319
1, 336780, Tempo, 487329
1, 336810, Note_on_c, 0, 49, 0
1, 336810, Note_on_c, 0, 55, 0
1, 336820, Tempo, 489356
1, 336840, Note_on_c, 0, 54, 51
1, 336840, Note_on_c, 0, 58, 51
1, 336840, Note_on_c, 0, 44, 41
1, 336860, Tempo, 491400
1, 336900, Tempo, 493462
1, 336930, Note_on_c, 0, 44, 0
1, 336930, Note_on_c, 0, 58, 0
1, 336930, Note_on_c, 0, 54, 0
1, 336940, Tempo, 493462
1, 336960, Note_on_c, 0, 52, 51
1, 336960, Note_on_c, 0, 37, 41
1, 337005, Control_c, 0, 64, 0
1, 337020, Tempo, 491400
1, 337050, Note_on_c, 0, 37, 0
1, 337050, Note_on_c, 0, 52, 0
1, 337051, Control_c, 0, 64, 127
1, 337080, Note_on_c, 0, 53, 47
1, 337080, Note_on_c, 0, 56, 47
1, 337080, Note_on_c, 0, 44, 36
1, 337100, Tempo, 489356
1, 337170, Note_on_c, 0, 44, 0
1, 337170, Note_on_c, 0, 56, 0
1, 337170, Note_on_c, 0, 53, 0
1, 337180, Tempo, 487329
1, 337200, Note_on_c, 0, 55, 47
1, 337200, Note_on_c, 0, 37, 41
1, 337260, Tempo, 485319
1, 337290, Note_on_c, 0, 37, 0
1, 337290, Note_on_c, 0, 55, 0
1, 337320, Tempo, 483325
1, 337320, Note_on_c, 0, 56, 56
1, 337320, Note_on_c, 0, 60, 56
1, 337320, Note_on_c, 0, 44, 36
1, 337340, Control_c, 0, 64, 0
1, 337383, Control_c, 0, 64, 127
1, 337410, Note_on_c, 0, 44, 0
1, 337410, Note_on_c, 0, 60, 0
1, 337410, Note_on_c, 0, 56, 0
1, 337440, Note_on_c, 0, 59, 53
1, 337440, Note_on_c, 0, 37, 43
1, 337530, Note_on_c, 0, 37, 0
1, 337530, Note_on_c, 0, 59, 0
1, 337560, Tempo, 512864
1, 337560, Note_on_c, 0, 60, 53
1, 337560, Note_on_c, 0, 63, 53
1, 337560, Note_on_c, 0, 44, 40
1, 337650, Note_on_c, 0, 44, 0
1, 337650, Note_on_c, 0, 63, 0
1, 337650, Note_on_c, 0, 60, 0
1, 337680, Tempo, 483325
1, 337680, Note_on_c, 0, 60, 52
1, 337680, Note_on_c, 0, 37, 45
1, 337686, Control_c, 0, 64, 0
1, 337731, Control_c, 0, 64, 127
1, 337770, Note_on_c, 0, 37, 0
1, 337770, Note_on_c, 0, 60, 0
1, 337800, Note_on_c, 0, 61, 46
1, 337800, Note_on_c, 0, 65, 60
1, 337800, Note_on_c, 0, 44, 41
1, 337890, Note_on_c, 0, 44, 0
1, 337890, Note_on_c, 0, 65, 0
1, 337890, Note_on_c, 0, 61, 0
1, 337920, Note_on_c, 0, 60, 44
1, 337920, Note_on_c, 0, 63, 55
1, 337920, Note_on_c, 0, 49, 41
1, 338000, Tempo, 481309
1, 338010, Note_on_c, 0, 49, 0
1, 338010, Note_on_c, 0, 63, 0
1, 338010, Note_on_c, 0, 60, 0
1, 338040, Note_on_c, 0, 58, 45
1, 338040, Note_on_c, 0, 61, 57
1, 338040, Note_on_c, 0, 56, 44
1, 338045, Control_c, 0, 64, 0
1, 338060, Tempo, 483325
1, 338080, Control_c, 0, 64, 127
1, 338100, Tempo, 485319
1, 338130, Note_on_c, 0, 56, 0
1, 338130, Note_on_c, 0, 61, 0
1, 338130, Note_on_c, 0, 58, 0
1, 338160, Tempo, 487329
1, 338160, Note_on_c, 0, 57, 53
1, 338160, Note_on_c, 0, 49, 41
1, 338200, Tempo, 489356
1, 338240, Tempo, 491400
1, 338250, Note_on_c, 0, 49, 0
1, 338250, Note_on_c, 0, 57, 0
1, 338280, Note_on_c, 0, 56, 53
1, 338280, Note_on_c, 0, 60, 53
1, 338280, Note_on_c, 0, 44, 41
1, 338300, Tempo, 493462
1, 338340, Tempo, 495540
1, 338370, Note_on_c, 0, 44, 0
1, 338370, Note_on_c, 0, 60, 0
1, 338370, Note_on_c, 0, 56, 0
1, 338380, Tempo, 497636
1, 338400, Tempo, 482664
1, 338400, Note_on_c, 0, 53, 51
1, 338400, Note_on_c, 0, 37, 41
1, 338451, Control_c, 0, 64, 0
1, 338480, Tempo, 481000
1, 338490, Note_on_c, 0, 37, 0
1, 338490, Note_on_c, 0, 53, 0
1, 338491, Control_c, 0, 64, 127
1, 338520, Note_on_c, 0, 54, 47
1, 338520, Note_on_c, 0, 58, 47
1, 338520, Note_on_c, 0, 44, 36
1, 338544, Tempo, 479272
1, 338610, Note_on_c, 0, 44, 0
1, 338610, Note_on_c, 0, 58, 0
1, 338610, Note_on_c, 0, 54, 0
1, 338624, Tempo, 477593
1, 338640, Note_on_c, 0, 57, 47
1, 338640, Note_on_c, 0, 37, 41
1, 338692, Tempo, 475926
1, 338730, Note_on_c, 0, 37, 0
1, 338730, Note_on_c, 0, 57, 0
1, 338760, Tempo, 474346
1, 338760, Note_on_c, 0, 58, 54
1, 338760, Note_on_c, 0, 61, 54
1, 338760, Note_on_c, 0, 44, 36
1, 338780, Control_c, 0, 64, 0
1, 338823, Control_c, 0, 64, 127
1, 338850, Note_on_c, 0, 44, 0
1, 338850, Note_on_c, 0, 61, 0
1, 338850, Note_on_c, 0, 58, 0
1, 338880, Note_on_c, 0, 60, 52
1, 338880, Note_on_c, 0, 37, 43
1, 338970, Note_on_c, 0, 37, 0
1, 338970, Note_on_c, 0, 60, 0
1, 339000, Tempo, 505817
1, 339000, Note_on_c, 0, 65, 52
1, 339000, Note_on_c, 0, 61, 52
1, 339000, Note_on_c, 0, 44, 40
1, 339090, Note_on_c, 0, 44, 0
1, 339090, Note_on_c, 0, 61, 0
1, 339090, Note_on_c, 0, 65, 0
1, 339120, Tempo, 474346
1, 339120, Note_on_c, 0, 62, 52
1, 339120, Note_on_c, 0, 37, 45
1, 339126, Control_c, 0, 64, 0
1, 339171, Control_c, 0, 64, 127
1, 339210, Note_on_c, 0, 37, 0
1, 339210, Note_on_c, 0, 62, 0
1, 339240, Note_on_c, 0, 66, 60
1, 339240, Note_on_c, 0, 63, 46
1, 339240, Note_on_c, 0, 44, 41
1, 339330, Note_on_c, 0, 44, 0
1, 339330, Note_on_c, 0, 63, 0
1, 339330, Note_on_c, 0, 66, 0
1, 339360, Note_on_c, 0, 65, 52
1, 339360, Note_on_c, 0, 61, 41
1, 339360, Note_on_c, 0, 49, 41
1, 339450, Note_on_c, 0, 49, 0
1, 339450, Note_on_c, 0, 61, 0
1, 339450, Note_on_c, 0, 65, 0
1, 339480, Tempo, 471661
1, 339480, Note_on_c, 0, 63, 52
1, 339480, Note_on_c, 0, 60, 41
1, 339480, Note_on_c, 0, 56, 44
1, 339490, Control_c, 0, 64, 0
1, 339520, Control_c, 0, 64, 127
1, 339560, Tempo, 473560
1, 339570, Note_on_c, 0, 56, 0
1, 339570, Note_on_c, 0, 60, 0
1, 339570, Note_on_c, 0, 63, 0
1, 339600, Note_on_c, 0, 59, 52
1, 339600, Note_on_c, 0, 49, 41
1, 339620, Tempo, 475473
1, 339690, Note_on_c, 0, 49, 0
1, 339690, Note_on_c, 0, 59, 0
1, 339700, Tempo, 477403
1, 339720, Tempo, 499750
1, 339720, Note_on_c, 0, 61, 51
1, 339720, Note_on_c, 0, 58, 51
1, 339720, Note_on_c, 0, 44, 41
1, 339810, Note_on_c, 0, 44, 0
1, 339810, Note_on_c, 0, 58, 0
1, 339810, Note_on_c, 0, 61, 0
1, 339820, Tempo, 481309
1, 339840, Tempo, 474346
1, 339840, Note_on_c, 0, 64, 52
1, 339840, Note_on_c, 0, 37, 45
1, 339846, Control_c, 0, 64, 0
1, 339891, Control_c, 0, 64, 127
1, 339930, Note_on_c, 0, 37, 0
1, 339930, Note_on_c, 0, 64, 0
1, 339960, Note_on_c, 0, 68, 60
1, 339960, Note_on_c, 0, 65, 46
1, 339960, Note_on_c, 0, 44, 41
1, 340050, Note_on_c, 0, 44, 0
1, 340050, Note_on_c, 0, 65, 0
1, 340050, Note_on_c, 0, 68, 0
1, 340080, Note_on_c, 0, 66, 52
1, 340080, Note_on_c, 0, 63, 41
1, 340080, Note_on_c, 0, 49, 41
1, 340170, Note_on_c, 0, 49, 0
1, 340170, Note_on_c, 0, 63, 0
1, 340170, Note_on_c, 0, 66, 0
1, 340200, Tempo, 471661
1, 340200, Note_on_c, 0, 65, 52
1, 340200, Note_on_c, 0, 61, 41
1, 340200, Note_on_c, 0, 56, 44
1, 340210, Control_c, 0, 64, 0
1, 340240, Control_c, 0, 64, 127
1, 340280, Tempo, 473560
1, 340290, Note_on_c, 0, 56, 0
1, 340290, Note_on_c, 0, 61, 0
1, 340290, Note_on_c, 0, 65, 0
1, 340320, Note_on_c, 0, 59, 52
1, 340320, Note_on_c, 0, 49, 41
1, 340340, Tempo, 475473
1, 340410, Note_on_c, 0, 49, 0
1, 340410, Note_on_c, 0, 59, 0
1, 340420, Tempo, 477403
1, 340440, Note_on_c, 0, 63, 51
1, 340440, Note_on_c, 0, 60, 51
1, 340440, Note_on_c, 0, 44, 41
1, 340452, Tempo, 479348
1, 340464, Tempo, 481309
1, 340480, Tempo, 485319
1, 340492, Tempo, 489356
1, 340504, Tempo, 493462
1, 340520, Tempo, 497636
1, 340530, Note_on_c, 0, 44, 0
1, 340530, Note_on_c, 0, 60, 0
1, 340530, Note_on_c, 0, 63, 0
1, 340532, Tempo, 501882
1, 340544, Tempo, 506244
1, 340560, Tempo, 474346
1, 340560, Note_on_c, 0, 65, 52
1, 340560, Note_on_c, 0, 37, 45
1, 340566, Control_c, 0, 64, 0
1, 340611, Control_c, 0, 64, 127
1, 340650, Note_on_c, 0, 37, 0
1, 340650, Note_on_c, 0, 65, 0
1, 340680, Note_on_c, 0, 70, 60
1, 340680, Note_on_c, 0, 66, 46
1, 340680, Note_on_c, 0, 44, 41
1, 340770, Note_on_c, 0, 44, 0
1, 340770, Note_on_c, 0, 66, 0
1, 340770, Note_on_c, 0, 70, 0
1, 340800, Note_on_c, 0, 68, 52
1, 340800, Note_on_c, 0, 65, 41
1, 340800, Note_on_c, 0, 49, 41
1, 340890, Note_on_c, 0, 49, 0
1, 340890, Note_on_c, 0, 65, 0
1, 340890, Note_on_c, 0, 68, 0
1, 340920, Tempo, 471661
1, 340920, Note_on_c, 0, 66, 52
1, 340920, Note_on_c, 0, 63, 41
1, 340920, Note_on_c, 0, 56, 44
1, 340925, Control_c, 0, 64, 0
1, 340960, Control_c, 0, 64, 127
1, 341000, Tempo, 473560
1, 341010, Note_on_c, 0, 56, 0
1, 341010, Note_on_c, 0, 63, 0
1, 341010, Note_on_c, 0, 66, 0
1, 341040, Note_on_c, 0, 62, 52
1, 341040, Note_on_c, 0, 49, 41
1, 341060, Tempo, 475473
1, 341130, Note_on_c, 0, 49, 0
1, 341130, Note_on_c, 0, 62, 0
1, 341140, Tempo, 477403
1, 341160, Note_on_c, 0, 65, 51
1, 341160, Note_on_c, 0, 61, 51
1, 341160, Note_on_c, 0, 44, 41
1, 341200, Tempo, 479348
1, 341250, Note_on_c, 0, 44, 0
1, 341250, Note_on_c, 0, 61, 0
1, 341250, Note_on_c, 0, 65, 0
1, 341260, Tempo, 481309
1, 341280, Tempo, 473709
1, 341280, Note_on_c, 0, 62, 53
1, 341280, Note_on_c, 0, 37, 43
1, 341300, Control_c, 0, 64, 0
1, 341360, Tempo, 472069
1, 341370, Note_on_c, 0, 37, 0
1, 341370, Note_on_c, 0, 62, 0
1, 341371, Control_c, 0, 64, 127
1, 341400, Note_on_c, 0, 66, 50
1, 341400, Note_on_c, 0, 62, 50
1, 341400, Note_on_c, 0, 49, 37
1, 341424, Tempo, 470404
1, 341490, Note_on_c, 0, 49, 0
1, 341490, Note_on_c, 0, 62, 0
1, 341490, Note_on_c, 0, 66, 0
1, 341504, Tempo, 468750
1, 341520, Note_on_c, 0, 65, 50
1, 341520, Note_on_c, 0, 57, 64
1, 341572, Tempo, 467108
1, 341610, Note_on_c, 0, 65, 0
1, 341640, Tempo, 465513
1, 341640, Note_on_c, 0, 69, 57
1, 341640, Note_on_c, 0, 66, 57
1, 341640, Note_on_c, 0, 45, 39
1, 341674, Control_c, 0, 64, 0
1, 341703, Control_c, 0, 64, 127
1, 341730, Note_on_c, 0, 45, 0
1, 341730, Note_on_c, 0, 66, 0
1, 341730, Note_on_c, 0, 69, 0
1, 341760, Note_on_c, 0, 57, 0
1, 341760, Note_on_c, 0, 68, 53
1, 341760, Note_on_c, 0, 54, 62
1, 341850, Note_on_c, 0, 68, 0
1, 341880, Tempo, 496483
1, 341880, Note_on_c, 0, 70, 54
1, 341880, Note_on_c, 0, 74, 54
1, 341880, Note_on_c, 0, 42, 42
1, 341970, Note_on_c, 0, 42, 0
1, 341970, Note_on_c, 0, 74, 0
1, 341970, Note_on_c, 0, 70, 0
1, 342000, Tempo, 465513
1, 342000, Note_on_c, 0, 54, 0
1, 342000, Note_on_c, 0, 73, 54
1, 342000, Note_on_c, 0, 37, 47
1, 342006, Control_c, 0, 64, 0
1, 342051, Control_c, 0, 64, 127
1, 342090, Note_on_c, 0, 37, 0
1, 342090, Note_on_c, 0, 73, 0
1, 342120, Note_on_c, 0, 74, 50
1, 342120, Note_on_c, 0, 78, 63
1, 342120, Note_on_c, 0, 49, 43
1, 342210, Note_on_c, 0, 49, 0
1, 342210, Note_on_c, 0, 78, 0
1, 342210, Note_on_c, 0, 74, 0
1, 342240, Note_on_c, 0, 73, 44
1, 342240, Note_on_c, 0, 76, 54
1, 342240, Note_on_c, 0, 62, 71
1, 342330, Note_on_c, 0, 76, 0
1, 342330, Note_on_c, 0, 73, 0
1, 342360, Tempo, 462927
1, 342360, Note_on_c, 0, 71, 44
1, 342360, Note_on_c, 0, 74, 54
1, 342360, Note_on_c, 0, 50, 45
1, 342366, Control_c, 0, 64, 0
1, 342400, Control_c, 0, 64, 127
1, 342440, Tempo, 464792
1, 342450, Note_on_c, 0, 50, 0
1, 342450, Note_on_c, 0, 74, 0
1, 342450, Note_on_c, 0, 71, 0
1, 342480, Note_on_c, 0, 62, 0
1, 342480, Note_on_c, 0, 70, 55
1, 342480, Note_on_c, 0, 66, 66
1, 342500, Tempo, 466672
1, 342570, Note_on_c, 0, 70, 0
1, 342580, Tempo, 468567
1, 342600, Note_on_c, 0, 69, 54
1, 342600, Note_on_c, 0, 73, 54
1, 342600, Note_on_c, 0, 54, 46
1, 342640, Tempo, 470478
1, 342690, Note_on_c, 0, 54, 0
1, 342690, Note_on_c, 0, 73, 0
1, 342690, Note_on_c, 0, 69, 0
1, 342700, Tempo, 472404
1, 342720, Tempo, 473709
1, 342720, Note_on_c, 0, 66, 0
1, 342720, Note_on_c, 0, 67, 59
1, 342720, Note_on_c, 0, 37, 45
1, 342735, Control_c, 0, 64, 0
1, 342800, Tempo, 472069
1, 342810, Note_on_c, 0, 37, 0
1, 342810, Note_on_c, 0, 67, 0
1, 342811, Control_c, 0, 64, 127
1, 342840, Note_on_c, 0, 68, 54
1, 342840, Note_on_c, 0, 71, 54
1, 342840, Note_on_c, 0, 49, 42
1, 342864, Tempo, 470404
1, 342930, Note_on_c, 0, 49, 0
1, 342930, Note_on_c, 0, 71, 0
1, 342930, Note_on_c, 0, 68, 0
1, 342944, Tempo, 468750
1, 342960, Note_on_c, 0, 70, 54
1, 342960, Note_on_c, 0, 59, 76
1, 343012, Tempo, 467108
1, 343050, Note_on_c, 0, 70, 0
1, 343080, Tempo, 465513
1, 343080, Note_on_c, 0, 71, 65
1, 343080, Note_on_c, 0, 74, 65
1, 343080, Note_on_c, 0, 47, 43
1, 343095, Control_c, 0, 64, 0
1, 343143, Control_c, 0, 64, 127
1, 343170, Note_on_c, 0, 47, 0
1, 343170, Note_on_c, 0, 74, 0
1, 343170, Note_on_c, 0, 71, 0
1, 343200, Note_on_c, 0, 59, 0
1, 343200, Note_on_c, 0, 73, 62
1, 343200, Note_on_c, 0, 56, 71
1, 343290, Note_on_c, 0, 73, 0
1, 343320, Tempo, 496483
1, 343320, Note_on_c, 0, 74, 62
1, 343320, Note_on_c, 0, 78, 62
1, 343320, Note_on_c, 0, 44, 45
1, 343410, Note_on_c, 0, 44, 0
1, 343410, Note_on_c, 0, 78, 0
1, 343410, Note_on_c, 0, 74, 0
1, 343440, Tempo, 465513
1, 343440, Note_on_c, 0, 56, 0
1, 343440, Note_on_c, 0, 76, 61
1, 343440, Note_on_c, 0, 37, 53
1, 343446, Control_c, 0, 64, 0
1, 343491, Control_c, 0, 64, 127
1, 343530, Note_on_c, 0, 37, 0
1, 343530, Note_on_c, 0, 76, 0
1, 343560, Note_on_c, 0, 77, 54
1, 343560, Note_on_c, 0, 80, 69
1, 343560, Note_on_c, 0, 49, 46
1, 343650, Note_on_c, 0, 49, 0
1, 343650, Note_on_c, 0, 80, 0
1, 343650, Note_on_c, 0, 77, 0
1, 343680, Note_on_c, 0, 74, 52
1, 343680, Note_on_c, 0, 78, 65
1, 343680, Note_on_c, 0, 61, 80
1, 343770, Note_on_c, 0, 78, 0
1, 343770, Note_on_c, 0, 74, 0
1, 343800, Tempo, 462927
1, 343800, Note_on_c, 0, 73, 53
1, 343800, Note_on_c, 0, 77, 67
1, 343800, Control_c, 0, 64, 0
1, 343800, Note_on_c, 0, 49, 51
1, 343880, Tempo, 464792
1, 343885, Control_c, 0, 64, 127
1, 343890, Note_on_c, 0, 49, 0
1, 343890, Note_on_c, 0, 73, 0
1, 343920, Note_on_c, 0, 61, 0
1, 343920, Note_on_c, 0, 72, 63
1, 343920, Note_on_c, 0, 65, 71
1, 343940, Tempo, 466672
1, 344010, Note_on_c, 0, 72, 0
1, 344020, Tempo, 468567
1, 344040, Tempo, 499750
1, 344040, Note_on_c, 0, 77, 0
1, 344040, Note_on_c, 0, 71, 62
1, 344040, Note_on_c, 0, 74, 62
1, 344040, Note_on_c, 0, 53, 47
1, 344130, Note_on_c, 0, 53, 0
1, 344130, Note_on_c, 0, 74, 0
1, 344130, Note_on_c, 0, 71, 0
1, 344140, Tempo, 472404
1, 344160, Tempo, 469778
1, 344160, Note_on_c, 0, 65, 0
1, 344160, Note_on_c, 0, 68, 59
1, 344160, Note_on_c, 0, 66, 79
1, 344160, Note_on_c, 0, 57, 79
1, 344162, Control_c, 0, 64, 0
1, 344227, Control_c, 0, 64, 127
1, 344250, Note_on_c, 0, 57, 0
1, 344250, Note_on_c, 0, 68, 0
1, 344280, Note_on_c, 0, 69, 61
1, 344280, Note_on_c, 0, 73, 61
1, 344280, Note_on_c, 0, 61, 71
1, 344370, Note_on_c, 0, 61, 0
1, 344370, Note_on_c, 0, 73, 0
1, 344370, Note_on_c, 0, 69, 0
1, 344400, Note_on_c, 0, 72, 61
1, 344400, Note_on_c, 0, 54, 71
1, 344420, Tempo, 477403
1, 344490, Note_on_c, 0, 54, 0
1, 344490, Note_on_c, 0, 72, 0
1, 344520, Tempo, 466056
1, 344520, Note_on_c, 0, 66, 0
1, 344520, Note_on_c, 0, 73, 72
1, 344520, Note_on_c, 0, 78, 72
1, 344520, Note_on_c, 0, 37, 81
1, 344520, Note_on_c, 0, 49, 81
1, 344525, Control_c, 0, 64, 0
1, 344578, Control_c, 0, 64, 127
1, 344610, Note_on_c, 0, 78, 0
1, 344610, Note_on_c, 0, 73, 0
1, 344640, Note_on_c, 0, 77, 66
1, 344730, Note_on_c, 0, 77, 0
1, 344760, Tempo, 496483
1, 344760, Note_on_c, 0, 78, 67
1, 344760, Note_on_c, 0, 81, 67
1, 344850, Note_on_c, 0, 81, 0
1, 344850, Note_on_c, 0, 78, 0
1, 344880, Tempo, 471661
1, 344880, Note_on_c, 0, 37, 0
1, 344880, Note_on_c, 0, 49, 0
1, 344880, Note_on_c, 0, 73, 63
1, 344880, Note_on_c, 0, 59, 81
1, 344880, Note_on_c, 0, 66, 81
1, 344890, Control_c, 0, 64, 0
1, 344915, Control_c, 0, 64, 127
1, 344970, Note_on_c, 0, 59, 0
1, 344970, Note_on_c, 0, 73, 0
1, 345000, Note_on_c, 0, 74, 61
1, 345000, Note_on_c, 0, 78, 61
1, 345000, Note_on_c, 0, 62, 75
1, 345090, Note_on_c, 0, 62, 0
1, 345090, Note_on_c, 0, 78, 0
1, 345090, Note_on_c, 0, 74, 0
1, 345120, Tempo, 479348
1, 345120, Note_on_c, 0, 77, 61
1, 345120, Note_on_c, 0, 54, 75
1, 345210, Note_on_c, 0, 54, 0
1, 345210, Note_on_c, 0, 77, 0
1, 345240, Tempo, 471661
1, 345240, Note_on_c, 0, 66, 0
1, 345240, Note_on_c, 0, 78, 72
1, 345240, Note_on_c, 0, 83, 72
1, 345240, Note_on_c, 0, 37, 81
1, 345240, Note_on_c, 0, 49, 81
1, 345255, Control_c, 0, 64, 0
1, 345312, Control_c, 0, 64, 127
1, 345330, Note_on_c, 0, 83, 0
1, 345330, Note_on_c, 0, 78, 0
1, 345360, Note_on_c, 0, 82, 66
1, 345450, Note_on_c, 0, 82, 0
1, 345480, Tempo, 496483
1, 345480, Note_on_c, 0, 83, 67
1, 345480, Note_on_c, 0, 86, 67
1, 345570, Note_on_c, 0, 86, 0
1, 345570, Note_on_c, 0, 83, 0
1, 345600, Tempo, 462392
1, 345600, Note_on_c, 0, 37, 0
1, 345600, Note_on_c, 0, 49, 0
1, 345600, Note_on_c, 0, 79, 62
1, 345600, Note_on_c, 0, 71, 81
1, 345600, Note_on_c, 0, 62, 81
1, 345607, Control_c, 0, 64, 0
1, 345677, Control_c, 0, 64, 127
1, 345690, Note_on_c, 0, 62, 0
1, 345690, Note_on_c, 0, 79, 0
1, 345720, Note_on_c, 0, 80, 63
1, 345720, Note_on_c, 0, 83, 63
1, 345720, Note_on_c, 0, 66, 74
1, 345810, Note_on_c, 0, 66, 0
1, 345810, Note_on_c, 0, 83, 0
1, 345810, Note_on_c, 0, 80, 0
1, 345840, Note_on_c, 0, 82, 63
1, 345840, Note_on_c, 0, 56, 74
1, 345860, Tempo, 477403
1, 345930, Note_on_c, 0, 56, 0
1, 345930, Note_on_c, 0, 82, 0
1, 345960, Tempo, 466056
1, 345960, Note_on_c, 0, 71, 0
1, 345960, Note_on_c, 0, 83, 75
1, 345960, Note_on_c, 0, 86, 75
1, 345960, Note_on_c, 0, 37, 84
1, 345960, Note_on_c, 0, 49, 84
1, 345975, Control_c, 0, 64, 0
1, 346050, Note_on_c, 0, 86, 0
1, 346050, Note_on_c, 0, 83, 0
1, 346051, Control_c, 0, 64, 127
1, 346080, Note_on_c, 0, 85, 70
1, 346170, Note_on_c, 0, 85, 0
1, 346200, Tempo, 496483
1, 346200, Note_on_c, 0, 86, 71
1, 346200, Note_on_c, 0, 90, 71
1, 346290, Note_on_c, 0, 90, 0
1, 346290, Note_on_c, 0, 86, 0
1, 346320, Tempo, 466056
1, 346320, Note_on_c, 0, 37, 0
1, 346320, Note_on_c, 0, 49, 0
1, 346320, Note_on_c, 0, 83, 71
1, 346320, Note_on_c, 0, 63, 89
1, 346320, Note_on_c, 0, 72, 89
1, 346332, Control_c, 0, 64, 0
1, 346383, Control_c, 0, 64, 127
1, 346410, Note_on_c, 0, 63, 0
1, 346410, Note_on_c, 0, 83, 0
1, 346440, Note_on_c, 0, 87, 65
1, 346440, Note_on_c, 0, 84, 65
1, 346440, Note_on_c, 0, 92, 65
1, 346440, Note_on_c, 0, 66, 82
1, 346530, Note_on_c, 0, 66, 0
1, 346530, Note_on_c, 0, 84, 0
1, 346530, Note_on_c, 0, 92, 0
1, 346530, Note_on_c, 0, 87, 0
1, 346560, Tempo, 479348
1, 346560, Note_on_c, 0, 86, 65
1, 346560, Note_on_c, 0, 56, 82
1, 346650, Note_on_c, 0, 56, 0
1, 346650, Note_on_c, 0, 86, 0
1, 346680, Tempo, 489356
1, 346680, Note_on_c, 0, 72, 0
1, 346680, Note_on_c, 0, 90, 74
1, 346680, Note_on_c, 0, 87, 74
1, 346680, Note_on_c, 0, 96, 74
1, 346680, Note_on_c, 0, 37, 89
1, 346680, Note_on_c, 0, 49, 89
1, 346699, Control_c, 0, 64, 0
1, 346752, Control_c, 0, 64, 127
1, 346770, Note_on_c, 0, 96, 0
1, 346770, Note_on_c, 0, 90, 0
1, 346770, Note_on_c, 0, 87, 0
1, 346800, Tempo, 508431
1, 346800, Note_on_c, 0, 89, 70
1, 346890, Note_on_c, 0, 89, 0
1, 346920, Tempo, 659776
1, 346920, Note_on_c, 0, 96, 71
1, 346920, Note_on_c, 0, 90, 71
1, 346920, Note_on_c, 0, 99, 74
1, 347010, Note_on_c, 0, 99, 0
1, 347010, Note_on_c, 0, 96, 0
1, 347010, Note_on_c, 0, 90, 0
1, 347040, Time_signature, 2, 2, 24, 8
1, 347040, Tempo, 541223
1, 347040, Note_on_c, 0, 37, 0
1, 347040, Note_on_c, 0, 49, 0
1, 347040, Note_on_c, 0, 101, 101
1, 347040, Note_on_c, 0, 97, 93
1, 347040, Note_on_c, 0, 89, 93
1, 347040, Control_c, 0, 64, 0
1, 347040, Note_on_c, 0, 25, 73
1, 347040, Note_on_c, 0, 32, 73
1, 347040, Note_on_c, 0, 37, 82
1, 347280, Tempo, 493462
1, 347280, Note_on_c, 0, 37, 0
1, 347280, Note_on_c, 0, 97, 0
1, 347280, Note_on_c, 0, 89, 0
1, 347280, Note_on_c, 0, 101, 0
1, 347280, Note_on_c, 0, 32, 0
1, 347280, Note_on_c, 0, 25, 0
1, 347280, Note_on_c, 0, 65, 82
1, 347280, Note_on_c, 0, 68, 82
1, 347280, Note_on_c, 0, 77, 104
1, 347280, Note_on_c, 0, 49, 82
1, 347280, Note_on_c, 0, 56, 82
1, 347280, Note_on_c, 0, 61, 90
1, 347435, Control_c, 0, 64, 127
1, 347520, Tempo, 508431
1, 347520, Note_on_c, 0, 61, 0
1, 347520, Note_on_c, 0, 77, 0
1, 347520, Note_on_c, 0, 75, 99
1, 347520, Note_on_c, 0, 63, 85
1, 347610, Note_on_c, 0, 63, 0
1, 347610, Note_on_c, 0, 75, 0
1, 347640, Note_on_c, 0, 77, 93
1, 347640, Note_on_c, 0, 65, 79
1, 347730, Note_on_c, 0, 65, 0
1, 347730, Note_on_c, 0, 77, 0
1, 347760, Tempo, 495540
1, 347760, Note_on_c, 0, 49, 0
1, 347760, Note_on_c, 0, 65, 0
1, 347760, Note_on_c, 0, 68, 0
1, 347760, Note_on_c, 0, 56, 0
1, 347760, Note_on_c, 0, 65, 69
1, 347760, Note_on_c, 0, 68, 69
1, 347760, Note_on_c, 0, 73, 93
1, 347760, Note_on_c, 0, 49, 69
1, 347760, Note_on_c, 0, 56, 69
1, 347760, Note_on_c, 0, 61, 79
1, 348000, Tempo, 485319
1, 348000, Note_on_c, 0, 61, 0
1, 348000, Note_on_c, 0, 68, 0
1, 348000, Note_on_c, 0, 73, 0
1, 348000, Note_on_c, 0, 65, 0
1, 348000, Note_on_c, 0, 56, 0
1, 348000, Note_on_c, 0, 49, 0
1, 348000, Note_on_c, 0, 61, 93
1, 348000, Control_c, 0, 64, 0
1, 348000, Note_on_c, 0, 37, 70
1, 348000, Note_on_c, 0, 49, 80
1, 348240, Tempo, 477403
1, 348240, Note_on_c, 0, 49, 0
1, 348240, Note_on_c, 0, 37, 0
1, 348240, Note_on_c, 0, 61, 0
1, 348240, Note_on_c, 0, 68, 90
1, 348240, Note_on_c, 0, 73, 90
1, 348240, Note_on_c, 0, 80, 101
1, 348240, Note_on_c, 0, 53, 80
1, 348240, Note_on_c, 0, 61, 89
1, 348240, Note_on_c, 0, 65, 89
1, 348268, Control_c, 0, 64, 127
1, 348720, Tempo, 504032
1, 348720, Note_on_c, 0, 65, 0
1, 348720, Note_on_c, 0, 73, 0
1, 348720, Note_on_c, 0, 80, 0
1, 348720, Note_on_c, 0, 68, 0
1, 348720, Note_on_c, 0, 61, 0
1, 348720, Note_on_c, 0, 53, 0
1, 348720, Note_on_c, 0, 70, 85
1, 348720, Note_on_c, 0, 73, 85
1, 348720, Note_on_c, 0, 82, 95
1, 348720, Note_on_c, 0, 61, 77
1, 348720, Note_on_c, 0, 54, 67
1, 348720, Note_on_c, 0, 66, 77
1, 348847, Control_c, 0, 64, 0
1, 348960, Tempo, 439850
1, 348960, Note_on_c, 0, 66, 0
1, 348960, Note_on_c, 0, 73, 0
1, 348960, Note_on_c, 0, 82, 0
1, 348960, Note_on_c, 0, 70, 0
1, 348960, Note_on_c, 0, 54, 0
1, 348960, Note_on_c, 0, 61, 0
1, 348960, Note_on_c, 0, 73, 83
1, 348960, Note_on_c, 0, 80, 83
1, 348960, Note_on_c, 0, 68, 74
1, 348960, Note_on_c, 0, 65, 82
1, 348960, Note_on_c, 0, 61, 82
1, 348960, Note_on_c, 0, 53, 73
1, 348975, Control_c, 0, 64, 127
1, 349050, Note_on_c, 0, 68, 0
1, 349050, Note_on_c, 0, 80, 0
1, 349080, Note_on_c, 0, 79, 73
1, 349080, Note_on_c, 0, 67, 65
1, 349120, Tempo, 438212
1, 349170, Note_on_c, 0, 67, 0
1, 349170, Note_on_c, 0, 79, 0
1, 349200, Note_on_c, 0, 61, 0
1, 349200, Note_on_c, 0, 65, 0
1, 349200, Note_on_c, 0, 53, 0
1, 349200, Note_on_c, 0, 66, 81
1, 349240, Tempo, 436586
1, 349290, Note_on_c, 0, 66, 0
1, 349320, Note_on_c, 0, 77, 72
1, 349320, Note_on_c, 0, 65, 72
1, 349360, Tempo, 434972
1, 349410, Note_on_c, 0, 65, 0
1, 349410, Note_on_c, 0, 77, 0
1, 349440, Note_on_c, 0, 73, 0
1, 349440, Note_on_c, 0, 64, 75
1, 349480, Tempo, 433369
1, 349530, Note_on_c, 0, 64, 0
1, 349560, Note_on_c, 0, 75, 73
1, 349560, Note_on_c, 0, 63, 66
1, 349600, Tempo, 431779
1, 349650, Note_on_c, 0, 63, 0
1, 349650, Note_on_c, 0, 75, 0
1, 349680, Note_on_c, 0, 62, 73
1, 349720, Tempo, 430200
1, 349770, Note_on_c, 0, 62, 0
1, 349800, Tempo, 504032
1, 349800, Note_on_c, 0, 73, 71
1, 349800, Note_on_c, 0, 61, 63
1, 349890, Note_on_c, 0, 61, 0
1, 349890, Note_on_c, 0, 73, 0
1, 349920, Tempo, 466056
1, 349920, Control_c, 0, 64, 0
1, 349920, Note_on_c, 0, 37, 77
1, 349920, Note_on_c, 0, 49, 86
1, 350160, Note_on_c, 0, 49, 0
1, 350160, Note_on_c, 0, 37, 0
1, 350160, Note_on_c, 0, 65, 83
1, 350160, Note_on_c, 0, 77, 93
1, 350160, Note_on_c, 0, 49, 70
1, 350160, Note_on_c, 0, 56, 79
1, 350160, Note_on_c, 0, 61, 79
1, 350180, Tempo, 453446
1, 350188, Control_c, 0, 64, 127
1, 350640, Tempo, 469851
1, 350640, Note_on_c, 0, 61, 0
1, 350640, Note_on_c, 0, 49, 0
1, 350640, Note_on_c, 0, 65, 0
1, 350640, Note_on_c, 0, 77, 0
1, 350640, Note_on_c, 0, 56, 0
1, 350640, Note_on_c, 0, 66, 79
1, 350640, Note_on_c, 0, 75, 87
1, 350640, Note_on_c, 0, 57, 62
1, 350640, Note_on_c, 0, 49, 54
1, 350640, Note_on_c, 0, 60, 62
1, 350767, Control_c, 0, 64, 0
1, 350880, Tempo, 436586
1, 350880, Note_on_c, 0, 60, 0
1, 350880, Note_on_c, 0, 57, 0
1, 350880, Note_on_c, 0, 66, 0
1, 350880, Note_on_c, 0, 75, 0
1, 350880, Note_on_c, 0, 49, 0
1, 350880, Note_on_c, 0, 66, 80
1, 350880, Note_on_c, 0, 75, 89
1, 350880, Note_on_c, 0, 49, 61
1, 350880, Note_on_c, 0, 60, 67
1, 350880, Note_on_c, 0, 57, 61
1, 350889, Control_c, 0, 64, 127
1, 350970, Note_on_c, 0, 75, 0
1, 351000, Note_on_c, 0, 74, 79
1, 351090, Note_on_c, 0, 74, 0
1, 351120, Note_on_c, 0, 57, 0
1, 351120, Note_on_c, 0, 60, 0
1, 351120, Note_on_c, 0, 49, 0
1, 351120, Note_on_c, 0, 73, 79
1, 351120, Note_on_c, 0, 37, 53
1, 351120, Note_on_c, 0, 49, 61
1, 351210, Note_on_c, 0, 73, 0
1, 351240, Note_on_c, 0, 72, 74
1, 351330, Note_on_c, 0, 72, 0
1, 351360, Tempo, 462392
1, 351360, Note_on_c, 0, 49, 0
1, 351360, Note_on_c, 0, 37, 0
1, 351360, Note_on_c, 0, 66, 0
1, 351360, Note_on_c, 0, 65, 70
1, 351360, Note_on_c, 0, 73, 80
1, 351360, Note_on_c, 0, 49, 36
1, 351360, Note_on_c, 0, 58, 45
1, 351360, Note_on_c, 0, 61, 52
1, 351370, Control_c, 0, 64, 0
1, 351423, Control_c, 0, 64, 127
1, 351450, Note_on_c, 0, 73, 0
1, 351480, Note_on_c, 0, 72, 70
1, 351570, Note_on_c, 0, 72, 0
1, 351600, Tempo, 554888
1, 351600, Note_on_c, 0, 61, 0
1, 351600, Note_on_c, 0, 65, 0
1, 351600, Note_on_c, 0, 49, 0
1, 351600, Note_on_c, 0, 58, 0
1, 351600, Note_on_c, 0, 70, 71
1, 351600, Note_on_c, 0, 37, 46
1, 351600, Note_on_c, 0, 49, 53
1, 351700, Tempo, 455892
1, 351720, Tempo, 471661
1, 351726, Control_c, 0, 64, 0
1, 351750, Note_on_c, 0, 49, 0
1, 351750, Note_on_c, 0, 37, 0
1, 351750, Note_on_c, 0, 49, 57
1, 351780, Note_on_c, 0, 56, 57
1, 351810, Note_on_c, 0, 61, 62
1, 351840, Tempo, 462392
1, 351840, Note_on_c, 0, 70, 0
1, 351840, Note_on_c, 0, 65, 67
1, 351964, Control_c, 0, 64, 127
1, 352080, Tempo, 453446
1, 352080, Note_on_c, 0, 65, 0
1, 352080, Note_on_c, 0, 61, 0
1, 352080, Note_on_c, 0, 56, 0
1, 352080, Note_on_c, 0, 49, 0
1, 352080, Note_on_c, 0, 65, 65
1, 352080, Note_on_c, 0, 68, 79
1, 352560, Tempo, 469851
1, 352560, Note_on_c, 0, 68, 0
1, 352560, Note_on_c, 0, 65, 0
1, 352560, Note_on_c, 0, 69, 76
1, 352560, Note_on_c, 0, 63, 63
1, 352596, Control_c, 0, 64, 0
1, 352740, Note_on_c, 0, 63, 0
1, 352740, Note_on_c, 0, 49, 52
1, 352800, Tempo, 455892
1, 352800, Note_on_c, 0, 49, 0
1, 352800, Note_on_c, 0, 69, 0
1, 352800, Note_on_c, 0, 65, 62
1, 352800, Note_on_c, 0, 69, 80
1, 352800, Note_on_c, 0, 63, 65
1, 352825, Control_c, 0, 64, 127
1, 352920, Note_on_c, 0, 63, 0
1, 352920, Note_on_c, 0, 69, 0
1, 352920, Note_on_c, 0, 70, 74
1, 352920, Note_on_c, 0, 62, 59
1, 353040, Note_on_c, 0, 62, 0
1, 353040, Note_on_c, 0, 70, 0
1, 353040, Note_on_c, 0, 71, 74
1, 353040, Note_on_c, 0, 61, 53
1, 353160, Tempo, 475285
1, 353160, Note_on_c, 0, 61, 0
1, 353160, Note_on_c, 0, 71, 0
1, 353160, Note_on_c, 0, 72, 74
1, 353160, Note_on_c, 0, 60, 53
1, 353280, Tempo, 455892
1, 353280, Note_on_c, 0, 60, 0
1, 353280, Note_on_c, 0, 72, 0
1, 353280, Note_on_c, 0, 65, 0
1, 353280, Note_on_c, 0, 65, 70
1, 353280, Note_on_c, 0, 70, 81
1, 353280, Note_on_c, 0, 61, 56
1, 353295, Control_c, 0, 64, 0
1, 353371, Control_c, 0, 64, 127
1, 353400, Note_on_c, 0, 61, 0
1, 353400, Note_on_c, 0, 70, 0
1, 353400, Note_on_c, 0, 72, 74
1, 353400, Note_on_c, 0, 60, 52
1, 353520, Note_on_c, 0, 60, 0
1, 353520, Note_on_c, 0, 72, 0
1, 353520, Note_on_c, 0, 65, 0
1, 353520, Note_on_c, 0, 73, 74
1, 353520, Note_on_c, 0, 58, 70
1, 353640, Note_on_c, 0, 73, 0
1, 353640, Note_on_c, 0, 77, 74
1, 353760, Note_on_c, 0, 77, 0
1, 353760, Note_on_c, 0, 82, 82
1, 353763, Control_c, 0, 64, 0
1, 353880, Note_on_c, 0, 82, 0
1, 353880, Note_on_c, 0, 84, 76
1, 353894, Control_c, 0, 64, 127
1, 354000, Note_on_c, 0, 84, 0
1, 354000, Note_on_c, 0, 58, 0
1, 354000, Note_on_c, 0, 85, 76
1, 354000, Note_on_c, 0, 68, 59
1, 354000, Note_on_c, 0, 65, 59
1, 354000, Note_on_c, 0, 56, 59
1, 354120, Tempo, 479004
1, 354120, Note_on_c, 0, 85, 0
1, 354120, Note_on_c, 0, 89, 76
1, 354240, Tempo, 461007
1, 354240, Note_on_c, 0, 89, 0
1, 354240, Note_on_c, 0, 56, 0
1, 354240, Note_on_c, 0, 65, 0
1, 354240, Note_on_c, 0, 68, 0
1, 354240, Note_on_c, 0, 94, 82
1, 354240, Note_on_c, 0, 70, 59
1, 354240, Note_on_c, 0, 67, 59
1, 354240, Note_on_c, 0, 65, 59
1, 354240, Note_on_c, 0, 58, 59
1, 354257, Control_c, 0, 64, 0
1, 354280, Tempo, 462749
1, 354320, Tempo, 466273
1, 354360, Tempo, 468055
1, 354360, Note_on_c, 0, 94, 0
1, 354360, Note_on_c, 0, 96, 79
1, 354388, Control_c, 0, 64, 127
1, 354400, Tempo, 471661
1, 354440, Tempo, 473485
1, 354480, Tempo, 487329
1, 354480, Note_on_c, 0, 96, 0
1, 354480, Note_on_c, 0, 58, 0
1, 354480, Note_on_c, 0, 70, 0
1, 354480, Note_on_c, 0, 67, 0
1, 354480, Note_on_c, 0, 65, 0
1, 354480, Note_on_c, 0, 97, 79
1, 354480, Note_on_c, 0, 37, 66
1, 354480, Note_on_c, 0, 49, 66
1, 354600, Note_on_c, 0, 97, 0
1, 354600, Note_on_c, 0, 101, 79
1, 354720, Tempo, 578536
1, 354720, Note_on_c, 0, 101, 0
1, 354720, Note_on_c, 0, 49, 0
1, 354720, Note_on_c, 0, 37, 0
1, 354720, Note_on_c, 0, 36, 71
1, 354720, Note_on_c, 0, 48, 71
1, 354722, Control_c, 0, 64, 0
1, 354772, Control_c, 0, 64, 127
1, 354840, Tempo, 529007
1, 354840, Note_on_c, 0, 48, 0
1, 354840, Note_on_c, 0, 36, 0
1, 354840, Note_on_c, 0, 48, 54
1, 354870, Note_on_c, 0, 57, 62
1, 354897, Control_c, 0, 64, 0
1, 354900, Note_on_c, 0, 60, 62
1, 354930, Note_on_c, 0, 65, 65
1, 354940, Tempo, 529007
1, 354960, Note_on_c, 0, 72, 69
1, 354977, Control_c, 0, 64, 127
1, 354980, Tempo, 526639
1, 355000, Tempo, 524292
1, 355040, Tempo, 521966
1, 355060, Tempo, 519660
1, 355100, Tempo, 517375
1, 355120, Tempo, 515110
1, 355143, Control_c, 0, 64, 0
1, 355160, Tempo, 512864
1, 355180, Tempo, 510638
1, 355200, Tempo, 484692
1, 355200, Note_on_c, 0, 72, 0
1, 355200, Note_on_c, 0, 60, 0
1, 355200, Note_on_c, 0, 48, 0
1, 355200, Note_on_c, 0, 57, 0
1, 355200, Note_on_c, 0, 65, 0
1, 355200, Note_on_c, 0, 64, 71
1, 355320, Note_on_c, 0, 64, 0
1, 355320, Note_on_c, 0, 75, 65
1, 355320, Note_on_c, 0, 72, 65
1, 355320, Note_on_c, 0, 69, 59
1, 355320, Note_on_c, 0, 65, 59
1, 355360, Tempo, 482781
1, 355440, Note_on_c, 0, 65, 0
1, 355440, Note_on_c, 0, 75, 0
1, 355440, Note_on_c, 0, 72, 0
1, 355440, Note_on_c, 0, 69, 0
1, 355440, Note_on_c, 0, 65, 66
1, 355520, Tempo, 480885
1, 355560, Note_on_c, 0, 65, 0
1, 355560, Note_on_c, 0, 79, 64
1, 355560, Note_on_c, 0, 67, 57
1, 355680, Tempo, 479004
1, 355680, Note_on_c, 0, 67, 0
1, 355680, Note_on_c, 0, 79, 0
1, 355680, Note_on_c, 0, 64, 56
1, 355680, Note_on_c, 0, 67, 56
1, 355680, Note_on_c, 0, 70, 63
1, 355680, Note_on_c, 0, 76, 63
1, 355800, Note_on_c, 0, 76, 0
1, 355800, Note_on_c, 0, 64, 0
1, 355800, Note_on_c, 0, 67, 0
1, 355800, Note_on_c, 0, 70, 0
1, 355800, Note_on_c, 0, 62, 56
1, 355840, Tempo, 477137
1, 355920, Note_on_c, 0, 62, 0
1, 355920, Note_on_c, 0, 62, 52
1, 355920, Note_on_c, 0, 67, 52
1, 355920, Note_on_c, 0, 70, 59
1, 355920, Note_on_c, 0, 74, 59
1, 356000, Tempo, 475285
1, 356040, Note_on_c, 0, 74, 0
1, 356040, Note_on_c, 0, 62, 0
1, 356040, Note_on_c, 0, 67, 0
1, 356040, Note_on_c, 0, 70, 0
1, 356040, Note_on_c, 0, 60, 53
1, 356160, Tempo, 473485
1, 356160, Note_on_c, 0, 60, 0
1, 356160, Note_on_c, 0, 70, 62
1, 356160, Note_on_c, 0, 74, 71
1, 356191, Control_c, 0, 64, 127
1, 356240, Tempo, 475285
1, 356240, Note_on_c, 0, 70, 0
1, 356240, Note_on_c, 0, 67, 62
1, 356280, Tempo, 477137
1, 356320, Note_on_c, 0, 67, 0
1, 356320, Note_on_c, 0, 62, 62
1, 356360, Tempo, 479004
1, 356400, Tempo, 480885
1, 356400, Note_on_c, 0, 62, 0
1, 356400, Note_on_c, 0, 58, 57
1, 356406, Control_c, 0, 64, 0
1, 356440, Tempo, 482781
1, 356443, Control_c, 0, 64, 127
1, 356480, Note_on_c, 0, 58, 0
1, 356480, Note_on_c, 0, 48, 51
1, 356520, Tempo, 484692
1, 356560, Tempo, 486618
1, 356560, Note_on_c, 0, 48, 0
1, 356560, Note_on_c, 0, 40, 50
1, 356600, Tempo, 488560
1, 356640, Note_on_c, 0, 40, 0
1, 356640, Note_on_c, 0, 74, 0
1, 356640, Note_on_c, 0, 41, 63
1, 356646, Control_c, 0, 64, 0
1, 356720, Note_on_c, 0, 41, 0
1, 356720, Note_on_c, 0, 48, 52
1, 356746, Control_c, 0, 64, 127
1, 356800, Note_on_c, 0, 48, 0
1, 356800, Note_on_c, 0, 57, 52
1, 356880, Note_on_c, 0, 57, 0
1, 356880, Note_on_c, 0, 60, 65
1, 356960, Note_on_c, 0, 60, 0
1, 356960, Note_on_c, 0, 65, 59
1, 357040, Note_on_c, 0, 65, 0
1, 357040, Note_on_c, 0, 72, 59
1, 357040, Note_on_c, 0, 69, 59
1, 357120, Tempo, 486618
1, 357120, Note_on_c, 0, 69, 0
1, 357120, Note_on_c, 0, 72, 0
1, 357120, Note_on_c, 0, 76, 81
1, 357137, Control_c, 0, 64, 0
1, 357240, Note_on_c, 0, 76, 0
1, 357240, Note_on_c, 0, 89, 57
1, 357240, Note_on_c, 0, 84, 57
1, 357240, Note_on_c, 0, 81, 57
1, 357240, Note_on_c, 0, 77, 57
1, 357280, Tempo, 484692
1, 357360, Note_on_c, 0, 77, 0
1, 357360, Note_on_c, 0, 89, 0
1, 357360, Note_on_c, 0, 84, 0
1, 357360, Note_on_c, 0, 81, 0
1, 357360, Note_on_c, 0, 77, 76
1, 357440, Tempo, 482781
1, 357480, Note_on_c, 0, 77, 0
1, 357480, Note_on_c, 0, 91, 62
1, 357480, Note_on_c, 0, 79, 62
1, 357600, Tempo, 480885
1, 357600, Note_on_c, 0, 79, 0
1, 357600, Note_on_c, 0, 91, 0
1, 357600, Note_on_c, 0, 88, 69
1, 357600, Note_on_c, 0, 82, 69
1, 357600, Note_on_c, 0, 79, 62
1, 357600, Note_on_c, 0, 76, 62
1, 357720, Note_on_c, 0, 76, 0
1, 357720, Note_on_c, 0, 88, 0
1, 357720, Note_on_c, 0, 82, 0
1, 357720, Note_on_c, 0, 79, 0
1, 357720, Note_on_c, 0, 74, 65
1, 357760, Tempo, 479004
1, 357840, Note_on_c, 0, 74, 0
1, 357840, Note_on_c, 0, 86, 57
1, 357840, Note_on_c, 0, 82, 51
1, 357840, Note_on_c, 0, 79, 57
1, 357840, Note_on_c, 0, 74, 51
1, 357920, Tempo, 477137
1, 357960, Note_on_c, 0, 74, 0
1, 357960, Note_on_c, 0, 86, 0
1, 357960, Note_on_c, 0, 82, 0
1, 357960, Note_on_c, 0, 79, 0
1, 357960, Note_on_c, 0, 72, 56
1, 358040, Tempo, 475285
1, 358080, Tempo, 473485
1, 358080, Note_on_c, 0, 72, 0
1, 358080, Note_on_c, 0, 82, 64
1, 358080, Note_on_c, 0, 86, 72
1, 358091, Control_c, 0, 64, 127
1, 358160, Tempo, 475285
1, 358160, Note_on_c, 0, 82, 0
1, 358160, Note_on_c, 0, 79, 57
1, 358240, Tempo, 477137
1, 358240, Note_on_c, 0, 79, 0
1, 358240, Note_on_c, 0, 74, 57
1, 358320, Tempo, 517375
1, 358320, Note_on_c, 0, 74, 0
1, 358320, Note_on_c, 0, 70, 56
1, 358329, Control_c, 0, 64, 0
1, 358355, Control_c, 0, 64, 127
1, 358380, Note_on_c, 0, 70, 0
1, 358380, Note_on_c, 0, 60, 50
1, 358440, Note_on_c, 0, 60, 0
1, 358440, Note_on_c, 0, 52, 50
1, 358480, Tempo, 690846
1, 358485, Note_on_c, 0, 53, 49
1, 358500, Note_on_c, 0, 52, 0
1, 358500, Note_on_c, 0, 60, 52
1, 358506, Control_c, 0, 64, 0
1, 358515, Note_on_c, 0, 69, 53
1, 358530, Note_on_c, 0, 72, 54
1, 358545, Note_on_c, 0, 81, 57
1, 358560, Tempo, 561956
1, 358560, Note_on_c, 0, 86, 0
1, 358560, Note_on_c, 0, 84, 63
1, 358760, Tempo, 506244
1, 358800, Tempo, 504032
1, 358800, Note_on_c, 0, 84, 0
1, 358800, Note_on_c, 0, 81, 0
1, 358800, Note_on_c, 0, 69, 0
1, 358800, Note_on_c, 0, 53, 0
1, 358800, Note_on_c, 0, 60, 0
1, 358800, Note_on_c, 0, 72, 0
1, 358800, Note_on_c, 0, 93, 93
1, 358800, Note_on_c, 0, 89, 93
1, 358800, Note_on_c, 0, 84, 82
1, 358800, Note_on_c, 0, 81, 82
1, 358823, Control_c, 0, 64, 127
1, 358840, Tempo, 501882
1, 358880, Tempo, 499750
1, 358920, Tempo, 497636
1, 358920, Note_on_c, 0, 81, 0
1, 358920, Note_on_c, 0, 93, 0
1, 358920, Note_on_c, 0, 89, 0
1, 358920, Note_on_c, 0, 84, 0
1, 358920, Note_on_c, 0, 67, 62
1, 358920, Note_on_c, 0, 79, 69
1, 358960, Tempo, 495540
1, 359000, Tempo, 493462
1, 359040, Tempo, 491400
1, 359040, Note_on_c, 0, 79, 0
1, 359040, Note_on_c, 0, 67, 0
1, 359040, Note_on_c, 0, 91, 87
1, 359040, Note_on_c, 0, 79, 79
1, 359080, Tempo, 485319
1, 359160, Note_on_c, 0, 79, 0
1, 359160, Note_on_c, 0, 91, 0
1, 359160, Note_on_c, 0, 65, 62
1, 359160, Note_on_c, 0, 77, 69
1, 359240, Tempo, 483325
1, 359280, Note_on_c, 0, 77, 0
1, 359280, Note_on_c, 0, 65, 0
1, 359280, Note_on_c, 0, 89, 86
1, 359280, Note_on_c, 0, 77, 77
1, 359297, Control_c, 0, 64, 0
1, 359355, Control_c, 0, 64, 127
1, 359360, Tempo, 481309
1, 359400, Note_on_c, 0, 77, 0
1, 359400, Note_on_c, 0, 89, 0
1, 359400, Note_on_c, 0, 62, 62
1, 359400, Note_on_c, 0, 74, 69
1, 359520, Tempo, 479348
1, 359520, Note_on_c, 0, 74, 0
1, 359520, Note_on_c, 0, 62, 0
1, 359520, Note_on_c, 0, 86, 85
1, 359520, Note_on_c, 0, 74, 76
1, 359640, Tempo, 477403
1, 359640, Note_on_c, 0, 74, 0
1, 359640, Note_on_c, 0, 86, 0
1, 359640, Note_on_c, 0, 60, 62
1, 359640, Note_on_c, 0, 72, 69
1, 359760, Note_on_c, 0, 72, 0
1, 359760, Note_on_c, 0, 60, 0
1, 359760, Note_on_c, 0, 84, 85
1, 359760, Note_on_c, 0, 72, 76
1, 359766, Control_c, 0, 64, 0
1, 359783, Control_c, 0, 64, 127
1, 359800, Tempo, 475473
1, 359880, Note_on_c, 0, 72, 0
1, 359880, Note_on_c, 0, 84, 0
1, 359880, Note_on_c, 0, 69, 67
1, 359880, Note_on_c, 0, 57, 61
1, 359920, Tempo, 473560
1, 359960, Tempo, 467909
1, 360000, Note_on_c, 0, 57, 0
1, 360000, Note_on_c, 0, 69, 0
1, 360000, Note_on_c, 0, 81, 84
1, 360000, Note_on_c, 0, 69, 75
1, 360040, Tempo, 466056
1, 360120, Tempo, 464217
1, 360120, Note_on_c, 0, 69, 0
1, 360120, Note_on_c, 0, 81, 0
1, 360120, Note_on_c, 0, 67, 67
1, 360120, Note_on_c, 0, 55, 61
1, 360240, Note_on_c, 0, 55, 0
1, 360240, Note_on_c, 0, 67, 0
1, 360240, Note_on_c, 0, 79, 83
1, 360240, Note_on_c, 0, 67, 74
1, 360241, Control_c, 0, 64, 0
1, 360286, Control_c, 0, 64, 127
1, 360360, Note_on_c, 0, 67, 0
1, 360360, Note_on_c, 0, 79, 0
1, 360360, Note_on_c, 0, 65, 67
1, 360360, Note_on_c, 0, 53, 61
1, 360480, Tempo, 462392
1, 360480, Note_on_c, 0, 53, 0
1, 360480, Note_on_c, 0, 65, 0
1, 360480, Note_on_c, 0, 65, 74
1, 360480, Note_on_c, 0, 77, 83
1, 360600, Note_on_c, 0, 77, 0
1, 360600, Note_on_c, 0, 65, 0
1, 360600, Note_on_c, 0, 50, 60
1, 360600, Note_on_c, 0, 62, 66
1, 360720, Note_on_c, 0, 62, 0
1, 360720, Note_on_c, 0, 50, 0
1, 360720, Note_on_c, 0, 62, 74
1, 360720, Note_on_c, 0, 74, 82
1, 360724, Control_c, 0, 64, 0
1, 360777, Control_c, 0, 64, 127
1, 360800, Tempo, 460547
1, 360840, Note_on_c, 0, 74, 0
1, 360840, Note_on_c, 0, 62, 0
1, 360840, Note_on_c, 0, 48, 59
1, 360840, Note_on_c, 0, 60, 65
1, 360960, Note_on_c, 0, 60, 0
1, 360960, Note_on_c, 0, 48, 0
1, 360960, Note_on_c, 0, 60, 73
1, 360960, Note_on_c, 0, 72, 81
1, 361080, Note_on_c, 0, 72, 0
1, 361080, Note_on_c, 0, 60, 0
1, 361080, Note_on_c, 0, 45, 57
1, 361080, Note_on_c, 0, 57, 64
1, 361120, Tempo, 458751
1, 361200, Note_on_c, 0, 57, 0
1, 361200, Note_on_c, 0, 45, 0
1, 361200, Note_on_c, 0, 57, 72
1, 361200, Note_on_c, 0, 69, 81
1, 361212, Control_c, 0, 64, 0
1, 361292, Control_c, 0, 64, 127
1, 361320, Note_on_c, 0, 69, 0
1, 361320, Note_on_c, 0, 57, 0
1, 361320, Note_on_c, 0, 43, 57
1, 361320, Note_on_c, 0, 55, 64
1, 361440, Time_signature, 3, 2, 24, 8
1, 361440, Tempo, 473560
1, 361440, Note_on_c, 0, 55, 0
1, 361440, Note_on_c, 0, 43, 0
1, 361440, Note_on_c, 0, 55, 77
1, 361440, Note_on_c, 0, 67, 86
1, 361560, Tempo, 246731
1, 361560, Note_on_c, 0, 67, 0
1, 361560, Note_on_c, 0, 55, 0
1, 361560, Note_on_c, 0, 41, 63
1, 361560, Note_on_c, 0, 53, 71
1, 361606, Control_c, 0, 64, 0
1, 361620, Note_on_c, 0, 53, 55
1, 361620, Note_on_c, 0, 65, 63
1, 361640, Tempo, 246204
1, 361649, Control_c, 0, 64, 127
1, 361680, Note_on_c, 0, 65, 0
1, 361680, Note_on_c, 0, 41, 0
1, 361680, Note_on_c, 0, 53, 0
1, 361680, Note_on_c, 0, 53, 0
1, 361680, Note_on_c, 0, 55, 56
1, 361680, Note_on_c, 0, 67, 63
1, 361720, Tempo, 245690
1, 361740, Note_on_c, 0, 67, 0
1, 361740, Note_on_c, 0, 55, 0
1, 361740, Note_on_c, 0, 57, 56
1, 361740, Note_on_c, 0, 69, 63
1, 361780, Tempo, 245178
1, 361800, Note_on_c, 0, 69, 0
1, 361800, Note_on_c, 0, 57, 0
1, 361800, Note_on_c, 0, 59, 57
1, 361800, Note_on_c, 0, 71, 63
1, 361860, Tempo, 244668
1, 361860, Note_on_c, 0, 71, 0
1, 361860, Note_on_c, 0, 59, 0
1, 361860, Note_on_c, 0, 60, 59
1, 361860, Note_on_c, 0, 72, 65
1, 361920, Note_on_c, 0, 72, 0
1, 361920, Note_on_c, 0, 60, 0
1, 361920, Note_on_c, 0, 62, 59
1, 361920, Note_on_c, 0, 74, 66
1, 361940, Tempo, 244160
1, 361980, Note_on_c, 0, 74, 0
1, 361980, Note_on_c, 0, 62, 0
1, 361980, Note_on_c, 0, 64, 59
1, 361980, Note_on_c, 0, 76, 66
1, 362000, Tempo, 243655
1, 362040, Note_on_c, 0, 76, 0
1, 362040, Note_on_c, 0, 64, 0
1, 362040, Note_on_c, 0, 65, 60
1, 362040, Note_on_c, 0, 77, 67
1, 362080, Tempo, 243151
1, 362100, Note_on_c, 0, 77, 0
1, 362100, Note_on_c, 0, 65, 0
1, 362100, Note_on_c, 0, 67, 61
1, 362100, Note_on_c, 0, 79, 69
1, 362140, Tempo, 242650
1, 362160, Note_on_c, 0, 79, 0
1, 362160, Note_on_c, 0, 67, 0
1, 362160, Note_on_c, 0, 69, 62
1, 362160, Note_on_c, 0, 81, 70
1, 362220, Tempo, 242150
1, 362220, Note_on_c, 0, 81, 0
1, 362220, Note_on_c, 0, 69, 0
1, 362220, Note_on_c, 0, 71, 62
1, 362220, Note_on_c, 0, 83, 71
1, 362280, Note_on_c, 0, 83, 0
1, 362280, Note_on_c, 0, 71, 0
1, 362280, Note_on_c, 0, 72, 62
1, 362280, Note_on_c, 0, 84, 71
1, 362300, Tempo, 241653
1, 362340, Note_on_c, 0, 84, 0
1, 362340, Note_on_c, 0, 72, 0
1, 362340, Note_on_c, 0, 74, 63
1, 362340, Note_on_c, 0, 86, 71
1, 362360, Tempo, 241158
1, 362400, Note_on_c, 0, 86, 0
1, 362400, Note_on_c, 0, 74, 0
1, 362400, Note_on_c, 0, 88, 71
1, 362400, Note_on_c, 0, 76, 63
1, 362440, Tempo, 240163
1, 362460, Note_on_c, 0, 76, 0
1, 362460, Note_on_c, 0, 88, 0
1, 362460, Note_on_c, 0, 89, 72
1, 362460, Note_on_c, 0, 77, 63
1, 362480, Tempo, 241653
1, 362520, Tempo, 243151
1, 362520, Note_on_c, 0, 77, 0
1, 362520, Note_on_c, 0, 89, 0
1, 362520, Note_on_c, 0, 91, 72
1, 362520, Note_on_c, 0, 79, 65
1, 362560, Tempo, 244668
1, 362580, Note_on_c, 0, 79, 0
1, 362580, Note_on_c, 0, 91, 0
1, 362580, Note_on_c, 0, 93, 72
1, 362580, Note_on_c, 0, 81, 65
1, 362600, Tempo, 246204
1, 362640, Tempo, 247770
1, 362640, Note_on_c, 0, 81, 0
1, 362640, Note_on_c, 0, 93, 0
1, 362640, Note_on_c, 0, 95, 73
1, 362640, Note_on_c, 0, 83, 66
1, 362680, Tempo, 249345
1, 362700, Note_on_c, 0, 83, 0
1, 362700, Note_on_c, 0, 95, 0
1, 362700, Note_on_c, 0, 96, 74
1, 362700, Note_on_c, 0, 84, 66
1, 362720, Tempo, 250941
1, 362760, Tempo, 252557
1, 362760, Note_on_c, 0, 84, 0
1, 362760, Note_on_c, 0, 96, 0
1, 362760, Note_on_c, 0, 98, 75
1, 362760, Note_on_c, 0, 86, 67
1, 362800, Tempo, 254205
1, 362820, Tempo, 970717
1, 362820, Note_on_c, 0, 86, 0
1, 362820, Note_on_c, 0, 98, 0
1, 362820, Note_on_c, 0, 100, 76
1, 362820, Note_on_c, 0, 88, 69
1, 362880, Time_signature, 2, 2, 24, 8
1, 362880, Tempo, 521966
1, 362880, Note_on_c, 0, 88, 0
1, 362880, Note_on_c, 0, 100, 0
1, 362880, Note_on_c, 0, 101, 93
1, 362880, Note_on_c, 0, 89, 87
1, 362880, Control_c, 0, 64, 0
1, 362880, Note_on_c, 0, 25, 67
1, 362880, Note_on_c, 0, 37, 75
1, 363120, Tempo, 508475
1, 363120, Note_on_c, 0, 37, 0
1, 363120, Note_on_c, 0, 101, 0
1, 363120, Note_on_c, 0, 89, 0
1, 363120, Note_on_c, 0, 25, 0
1, 363120, Note_on_c, 0, 80, 89
1, 363120, Note_on_c, 0, 85, 89
1, 363120, Note_on_c, 0, 89, 99
1, 363120, Note_on_c, 0, 77, 89
1, 363120, Note_on_c, 0, 56, 79
1, 363120, Note_on_c, 0, 53, 79
1, 363120, Note_on_c, 0, 61, 79
1, 363120, Note_on_c, 0, 65, 88
1, 363275, Control_c, 0, 64, 127
1, 363360, Tempo, 519481
1, 363360, Note_on_c, 0, 65, 0
1, 363360, Note_on_c, 0, 80, 0
1, 363360, Note_on_c, 0, 56, 0
1, 363360, Note_on_c, 0, 85, 0
1, 363360, Note_on_c, 0, 89, 0
1, 363360, Note_on_c, 0, 77, 0
1, 363360, Note_on_c, 0, 53, 0
1, 363360, Note_on_c, 0, 61, 0
1, 363360, Note_on_c, 0, 87, 94
1, 363360, Note_on_c, 0, 75, 83
1, 363360, Note_on_c, 0, 51, 72
1, 363360, Note_on_c, 0, 63, 81
1, 363450, Note_on_c, 0, 63, 0
1, 363450, Note_on_c, 0, 87, 0
1, 363450, Note_on_c, 0, 75, 0
1, 363450, Note_on_c, 0, 51, 0
1, 363480, Note_on_c, 0, 89, 89
1, 363480, Note_on_c, 0, 77, 79
1, 363480, Note_on_c, 0, 53, 67
1, 363480, Note_on_c, 0, 65, 75
1, 363570, Note_on_c, 0, 65, 0
1, 363570, Note_on_c, 0, 89, 0
1, 363570, Note_on_c, 0, 77, 0
1, 363570, Note_on_c, 0, 53, 0
1, 363600, Tempo, 504202
1, 363600, Note_on_c, 0, 85, 89
1, 363600, Note_on_c, 0, 73, 79
1, 363600, Note_on_c, 0, 49, 59
1, 363600, Note_on_c, 0, 61, 75
1, 363840, Tempo, 489796
1, 363840, Note_on_c, 0, 61, 0
1, 363840, Note_on_c, 0, 85, 0
1, 363840, Note_on_c, 0, 73, 0
1, 363840, Note_on_c, 0, 49, 0
1, 363840, Note_on_c, 0, 61, 89
1, 363840, Control_c, 0, 64, 0
1, 363840, Note_on_c, 0, 37, 68
1, 363840, Note_on_c, 0, 49, 77
1, 364080, Tempo, 480000
1, 364080, Note_on_c, 0, 49, 0
1, 364080, Note_on_c, 0, 37, 0
1, 364080, Note_on_c, 0, 61, 0
1, 364080, Note_on_c, 0, 80, 88
1, 364080, Note_on_c, 0, 85, 88
1, 364080, Note_on_c, 0, 89, 88
1, 364080, Note_on_c, 0, 92, 97
1, 364080, Note_on_c, 0, 61, 74
1, 364080, Note_on_c, 0, 56, 74
1, 364080, Note_on_c, 0, 65, 81
1, 364080, Note_on_c, 0, 68, 81
1, 364108, Control_c, 0, 64, 127
1, 364320, Tempo, 487805
1, 364560, Tempo, 496483
1, 364560, Note_on_c, 0, 68, 0
1, 364560, Note_on_c, 0, 80, 0
1, 364560, Note_on_c, 0, 61, 0
1, 364560, Note_on_c, 0, 85, 0
1, 364560, Note_on_c, 0, 89, 0
1, 364560, Note_on_c, 0, 92, 0
1, 364560, Note_on_c, 0, 56, 0
1, 364560, Note_on_c, 0, 65, 0
1, 364560, Note_on_c, 0, 82, 80
1, 364560, Note_on_c, 0, 85, 80
1, 364560, Note_on_c, 0, 89, 80
1, 364560, Note_on_c, 0, 94, 91
1, 364560, Note_on_c, 0, 61, 62
1, 364560, Note_on_c, 0, 65, 69
1, 364560, Note_on_c, 0, 58, 62
1, 364560, Note_on_c, 0, 70, 69
1, 364580, Control_c, 0, 64, 0
1, 364800, Tempo, 483325
1, 364800, Note_on_c, 0, 70, 0
1, 364800, Note_on_c, 0, 82, 0
1, 364800, Note_on_c, 0, 61, 0
1, 364800, Note_on_c, 0, 85, 0
1, 364800, Note_on_c, 0, 89, 0
1, 364800, Note_on_c, 0, 94, 0
1, 364800, Note_on_c, 0, 65, 0
1, 364800, Note_on_c, 0, 58, 0
1, 364800, Note_on_c, 0, 85, 77
1, 364800, Note_on_c, 0, 89, 84
1, 364800, Note_on_c, 0, 80, 77
1, 364800, Note_on_c, 0, 92, 84
1, 364800, Note_on_c, 0, 61, 59
1, 364800, Note_on_c, 0, 65, 59
1, 364800, Note_on_c, 0, 68, 68
1, 364800, Note_on_c, 0, 56, 59
1, 364830, Control_c, 0, 64, 127
1, 364880, Tempo, 481309
1, 364920, Tempo, 479348
1, 364920, Note_on_c, 0, 56, 0
1, 364920, Note_on_c, 0, 85, 0
1, 364920, Note_on_c, 0, 61, 0
1, 364920, Note_on_c, 0, 89, 0
1, 364920, Note_on_c, 0, 80, 0
1, 364920, Note_on_c, 0, 92, 0
1, 364920, Note_on_c, 0, 65, 0
1, 364920, Note_on_c, 0, 68, 0
1, 364920, Note_on_c, 0, 79, 77
1, 364920, Note_on_c, 0, 91, 84
1, 364920, Note_on_c, 0, 55, 59
1, 364920, Note_on_c, 0, 67, 68
1, 365000, Tempo, 477403
1, 365040, Tempo, 475473
1, 365040, Note_on_c, 0, 67, 0
1, 365040, Note_on_c, 0, 79, 0
1, 365040, Note_on_c, 0, 91, 0
1, 365040, Note_on_c, 0, 55, 0
1, 365040, Note_on_c, 0, 78, 75
1, 365040, Note_on_c, 0, 90, 83
1, 365040, Note_on_c, 0, 54, 59
1, 365040, Note_on_c, 0, 66, 68
1, 365120, Tempo, 473560
1, 365160, Tempo, 471661
1, 365160, Note_on_c, 0, 66, 0
1, 365160, Note_on_c, 0, 78, 0
1, 365160, Note_on_c, 0, 90, 0
1, 365160, Note_on_c, 0, 54, 0
1, 365160, Note_on_c, 0, 77, 73
1, 365160, Note_on_c, 0, 89, 82
1, 365160, Note_on_c, 0, 53, 59
1, 365160, Note_on_c, 0, 65, 67
1, 365200, Tempo, 469778
1, 365240, Tempo, 472441
1, 365280, Note_on_c, 0, 65, 0
1, 365280, Note_on_c, 0, 77, 0
1, 365280, Note_on_c, 0, 89, 0
1, 365280, Note_on_c, 0, 53, 0
1, 365280, Note_on_c, 0, 76, 72
1, 365280, Note_on_c, 0, 88, 81
1, 365280, Note_on_c, 0, 52, 58
1, 365280, Note_on_c, 0, 64, 66
1, 365320, Tempo, 470588
1, 365400, Tempo, 468750
1, 365400, Note_on_c, 0, 64, 0
1, 365400, Note_on_c, 0, 76, 0
1, 365400, Note_on_c, 0, 88, 0
1, 365400, Note_on_c, 0, 52, 0
1, 365400, Note_on_c, 0, 75, 72
1, 365400, Note_on_c, 0, 87, 80
1, 365400, Note_on_c, 0, 51, 58
1, 365400, Note_on_c, 0, 63, 64
1, 365480, Tempo, 466926
1, 365520, Tempo, 465116
1, 365520, Note_on_c, 0, 63, 0
1, 365520, Note_on_c, 0, 75, 0
1, 365520, Note_on_c, 0, 87, 0
1, 365520, Note_on_c, 0, 51, 0
1, 365520, Note_on_c, 0, 74, 71
1, 365520, Note_on_c, 0, 86, 79
1, 365520, Note_on_c, 0, 50, 57
1, 365520, Note_on_c, 0, 62, 62
1, 365600, Tempo, 463320
1, 365640, Note_on_c, 0, 62, 0
1, 365640, Note_on_c, 0, 74, 0
1, 365640, Note_on_c, 0, 86, 0
1, 365640, Note_on_c, 0, 50, 0
1, 365640, Note_on_c, 0, 73, 69
1, 365640, Note_on_c, 0, 85, 79
1, 365640, Control_c, 0, 64, 0
1, 365640, Note_on_c, 0, 49, 57
1, 365640, Note_on_c, 0, 61, 61
1, 365680, Tempo, 461538
1, 365720, Tempo, 459770
1, 365740, Tempo, 456969
1, 365760, Tempo, 477403
1, 365760, Note_on_c, 0, 61, 0
1, 365760, Note_on_c, 0, 73, 0
1, 365760, Note_on_c, 0, 85, 0
1, 365760, Note_on_c, 0, 49, 0
1, 365760, Note_on_c, 0, 37, 88
1, 365760, Note_on_c, 0, 49, 88
1, 366000, Tempo, 466926
1, 366000, Note_on_c, 0, 49, 0
1, 366000, Note_on_c, 0, 37, 0
1, 366000, Note_on_c, 0, 89, 97
1, 366000, Note_on_c, 0, 77, 88
1, 366000, Note_on_c, 0, 80, 88
1, 366000, Note_on_c, 0, 61, 78
1, 366000, Note_on_c, 0, 56, 78
1, 366000, Note_on_c, 0, 65, 86
1, 366000, Note_on_c, 0, 68, 86
1, 366028, Control_c, 0, 64, 127
1, 366480, Tempo, 496483
1, 366480, Note_on_c, 0, 68, 0
1, 366480, Note_on_c, 0, 56, 0
1, 366480, Note_on_c, 0, 77, 0
1, 366480, Note_on_c, 0, 80, 0
1, 366480, Note_on_c, 0, 89, 0
1, 366480, Note_on_c, 0, 65, 0
1, 366480, Note_on_c, 0, 61, 0
1, 366480, Note_on_c, 0, 75, 89
1, 366480, Note_on_c, 0, 78, 89
1, 366480, Note_on_c, 0, 87, 100
1, 366480, Note_on_c, 0, 60, 71
1, 366480, Note_on_c, 0, 63, 80
1, 366480, Note_on_c, 0, 57, 71
1, 366480, Note_on_c, 0, 66, 80
1, 366507, Control_c, 0, 64, 0
1, 366720, Tempo, 473560
1, 366720, Note_on_c, 0, 66, 0
1, 366720, Note_on_c, 0, 63, 0
1, 366720, Note_on_c, 0, 78, 0
1, 366720, Note_on_c, 0, 87, 0
1, 366720, Note_on_c, 0, 75, 0
1, 366720, Note_on_c, 0, 57, 0
1, 366720, Note_on_c, 0, 60, 0
1, 366720, Note_on_c, 0, 75, 80
1, 366720, Note_on_c, 0, 87, 91
1, 366720, Note_on_c, 0, 63, 67
1, 366720, Note_on_c, 0, 66, 75
1, 366720, Note_on_c, 0, 57, 67
1, 366750, Control_c, 0, 64, 127
1, 366840, Tempo, 471661
1, 366840, Note_on_c, 0, 87, 0
1, 366840, Note_on_c, 0, 75, 0
1, 366840, Note_on_c, 0, 74, 75
1, 366840, Note_on_c, 0, 86, 83
1, 366920, Tempo, 469778
1, 366960, Note_on_c, 0, 86, 0
1, 366960, Note_on_c, 0, 66, 0
1, 366960, Note_on_c, 0, 57, 0
1, 366960, Note_on_c, 0, 63, 0
1, 366960, Note_on_c, 0, 74, 0
1, 366960, Note_on_c, 0, 73, 77
1, 366960, Note_on_c, 0, 85, 84
1, 366960, Note_on_c, 0, 37, 57
1, 366960, Note_on_c, 0, 49, 62
1, 367040, Tempo, 467909
1, 367080, Note_on_c, 0, 85, 0
1, 367080, Note_on_c, 0, 73, 0
1, 367080, Note_on_c, 0, 72, 69
1, 367080, Note_on_c, 0, 84, 78
1, 367120, Tempo, 466056
1, 367200, Tempo, 475473
1, 367200, Note_on_c, 0, 84, 0
1, 367200, Note_on_c, 0, 49, 0
1, 367200, Note_on_c, 0, 37, 0
1, 367200, Note_on_c, 0, 72, 0
1, 367200, Note_on_c, 0, 73, 75
1, 367200, Note_on_c, 0, 85, 83
1, 367200, Note_on_c, 0, 58, 69
1, 367200, Note_on_c, 0, 61, 69
1, 367200, Note_on_c, 0, 65, 69
1, 367209, Control_c, 0, 64, 0
1, 367286, Control_c, 0, 64, 127
1, 367320, Tempo, 473560
1, 367320, Note_on_c, 0, 85, 0
1, 367320, Note_on_c, 0, 73, 0
1, 367320, Note_on_c, 0, 72, 69
1, 367320, Note_on_c, 0, 84, 78
1, 367400, Tempo, 471661
1, 367440, Note_on_c, 0, 84, 0
1, 367440, Note_on_c, 0, 61, 0
1, 367440, Note_on_c, 0, 65, 0
1, 367440, Note_on_c, 0, 58, 0
1, 367440, Note_on_c, 0, 72, 0
1, 367440, Note_on_c, 0, 71, 69
1, 367440, Note_on_c, 0, 83, 78
1, 367440, Note_on_c, 0, 37, 53
1, 367440, Note_on_c, 0, 49, 59
1, 367520, Tempo, 469778
1, 367560, Note_on_c, 0, 83, 0
1, 367560, Note_on_c, 0, 71, 0
1, 367560, Note_on_c, 0, 70, 69
1, 367560, Note_on_c, 0, 82, 78
1, 367600, Tempo, 467909
1, 367680, Tempo, 466056
1, 367680, Note_on_c, 0, 82, 0
1, 367680, Note_on_c, 0, 49, 0
1, 367680, Note_on_c, 0, 37, 0
1, 367680, Note_on_c, 0, 70, 0
1, 367680, Control_c, 0, 64, 0
1, 367680, Note_on_c, 0, 29, 86
1, 367680, Note_on_c, 0, 41, 86
1, 367920, Note_on_c, 0, 41, 0
1, 367920, Note_on_c, 0, 29, 0
1, 367920, Note_on_c, 0, 77, 83
1, 367920, Note_on_c, 0, 80, 93
1, 367920, Note_on_c, 0, 68, 83
1, 367920, Note_on_c, 0, 73, 83
1, 367920, Note_on_c, 0, 56, 73
1, 367920, Note_on_c, 0, 53, 73
1, 367920, Note_on_c, 0, 61, 82
1, 367920, Note_on_c, 0, 65, 82
1, 367948, Control_c, 0, 64, 127
1, 368400, Tempo, 496483
1, 368400, Note_on_c, 0, 65, 0
1, 368400, Note_on_c, 0, 77, 0
1, 368400, Note_on_c, 0, 56, 0
1, 368400, Note_on_c, 0, 80, 0
1, 368400, Note_on_c, 0, 68, 0
1, 368400, Note_on_c, 0, 73, 0
1, 368400, Note_on_c, 0, 53, 0
1, 368400, Note_on_c, 0, 61, 0
1, 368400, Note_on_c, 0, 78, 78
1, 368400, Note_on_c, 0, 69, 78
1, 368400, Note_on_c, 0, 72, 78
1, 368400, Note_on_c, 0, 81, 88
1, 368400, Note_on_c, 0, 54, 61
1, 368400, Note_on_c, 0, 60, 69
1, 368400, Note_on_c, 0, 51, 61
1, 368400, Note_on_c, 0, 63, 69
1, 368466, Control_c, 0, 64, 0
1, 368640, Tempo, 467909
1, 368640, Note_on_c, 0, 63, 0
1, 368640, Note_on_c, 0, 78, 0
1, 368640, Note_on_c, 0, 54, 0
1, 368640, Note_on_c, 0, 69, 0
1, 368640, Note_on_c, 0, 72, 0
1, 368640, Note_on_c, 0, 81, 0
1, 368640, Note_on_c, 0, 60, 0
1, 368640, Note_on_c, 0, 51, 0
1, 368640, Note_on_c, 0, 78, 80
1, 368640, Note_on_c, 0, 72, 80
1, 368640, Note_on_c, 0, 69, 80
1, 368640, Note_on_c, 0, 81, 91
1, 368640, Note_on_c, 0, 60, 60
1, 368640, Note_on_c, 0, 54, 60
1, 368640, Note_on_c, 0, 51, 60
1, 368640, Note_on_c, 0, 63, 69
1, 368670, Control_c, 0, 64, 127
1, 368760, Note_on_c, 0, 63, 0
1, 368760, Note_on_c, 0, 78, 0
1, 368760, Note_on_c, 0, 60, 0
1, 368760, Note_on_c, 0, 72, 0
1, 368760, Note_on_c, 0, 69, 0
1, 368760, Note_on_c, 0, 81, 0
1, 368760, Note_on_c, 0, 54, 0
1, 368760, Note_on_c, 0, 51, 0
1, 368760, Note_on_c, 0, 70, 75
1, 368760, Note_on_c, 0, 82, 83
1, 368760, Note_on_c, 0, 50, 57
1, 368760, Note_on_c, 0, 62, 62
1, 368800, Tempo, 466056
1, 368880, Note_on_c, 0, 62, 0
1, 368880, Note_on_c, 0, 70, 0
1, 368880, Note_on_c, 0, 82, 0
1, 368880, Note_on_c, 0, 50, 0
1, 368880, Note_on_c, 0, 71, 77
1, 368880, Note_on_c, 0, 83, 84
1, 368880, Note_on_c, 0, 49, 57
1, 368880, Note_on_c, 0, 61, 62
1, 368960, Tempo, 464217
1, 369000, Note_on_c, 0, 61, 0
1, 369000, Note_on_c, 0, 71, 0
1, 369000, Note_on_c, 0, 83, 0
1, 369000, Note_on_c, 0, 49, 0
1, 369000, Note_on_c, 0, 72, 69
1, 369000, Note_on_c, 0, 84, 78
1, 369000, Note_on_c, 0, 48, 57
1, 369000, Note_on_c, 0, 60, 62
1, 369080, Tempo, 462392
1, 369120, Tempo, 469778
1, 369120, Note_on_c, 0, 60, 0
1, 369120, Note_on_c, 0, 72, 0
1, 369120, Note_on_c, 0, 84, 0
1, 369120, Note_on_c, 0, 48, 0
1, 369120, Note_on_c, 0, 77, 75
1, 369120, Note_on_c, 0, 70, 75
1, 369120, Note_on_c, 0, 82, 83
1, 369120, Note_on_c, 0, 49, 60
1, 369120, Note_on_c, 0, 61, 69
1, 369128, Control_c, 0, 64, 0
1, 369199, Control_c, 0, 64, 127
1, 369240, Note_on_c, 0, 61, 0
1, 369240, Note_on_c, 0, 82, 0
1, 369240, Note_on_c, 0, 77, 0
1, 369240, Note_on_c, 0, 70, 0
1, 369240, Note_on_c, 0, 49, 0
1, 369240, Note_on_c, 0, 72, 69
1, 369240, Note_on_c, 0, 84, 78
1, 369240, Note_on_c, 0, 48, 59
1, 369240, Note_on_c, 0, 60, 66
1, 369280, Tempo, 467909
1, 369360, Note_on_c, 0, 60, 0
1, 369360, Note_on_c, 0, 72, 0
1, 369360, Note_on_c, 0, 84, 0
1, 369360, Note_on_c, 0, 48, 0
1, 369360, Note_on_c, 0, 73, 69
1, 369360, Note_on_c, 0, 85, 78
1, 369360, Note_on_c, 0, 46, 59
1, 369360, Note_on_c, 0, 58, 67
1, 369400, Tempo, 466056
1, 369480, Note_on_c, 0, 85, 0
1, 369480, Note_on_c, 0, 73, 0
1, 369480, Note_on_c, 0, 77, 69
1, 369480, Note_on_c, 0, 89, 78
1, 369520, Tempo, 464217
1, 369560, Tempo, 471661
1, 369600, Note_on_c, 0, 89, 0
1, 369600, Note_on_c, 0, 58, 0
1, 369600, Note_on_c, 0, 46, 0
1, 369600, Note_on_c, 0, 77, 0
1, 369600, Note_on_c, 0, 34, 59
1, 369600, Note_on_c, 0, 46, 59
1, 369609, Control_c, 0, 64, 0
1, 369709, Control_c, 0, 64, 127
1, 369720, Note_on_c, 0, 46, 0
1, 369720, Note_on_c, 0, 34, 0
1, 369720, Note_on_c, 0, 36, 60
1, 369720, Note_on_c, 0, 48, 60
1, 369840, Note_on_c, 0, 48, 0
1, 369840, Note_on_c, 0, 36, 0
1, 369840, Note_on_c, 0, 80, 92
1, 369840, Note_on_c, 0, 89, 92
1, 369840, Note_on_c, 0, 92, 92
1, 369840, Note_on_c, 0, 37, 64
1, 369840, Note_on_c, 0, 49, 64
1, 369960, Note_on_c, 0, 49, 0
1, 369960, Note_on_c, 0, 37, 0
1, 369960, Note_on_c, 0, 41, 68
1, 369960, Note_on_c, 0, 53, 68
1, 370080, Tempo, 483325
1, 370080, Note_on_c, 0, 53, 0
1, 370080, Note_on_c, 0, 80, 0
1, 370080, Note_on_c, 0, 92, 0
1, 370080, Note_on_c, 0, 89, 0
1, 370080, Note_on_c, 0, 41, 0
1, 370080, Note_on_c, 0, 82, 100
1, 370080, Note_on_c, 0, 88, 100
1, 370080, Note_on_c, 0, 94, 100
1, 370080, Note_on_c, 0, 43, 69
1, 370080, Note_on_c, 0, 55, 69
1, 370095, Control_c, 0, 64, 0
1, 370200, Note_on_c, 0, 55, 0
1, 370200, Note_on_c, 0, 43, 0
1, 370200, Control_c, 0, 64, 127
1, 370200, Note_on_c, 0, 40, 69
1, 370200, Note_on_c, 0, 52, 69
1, 370320, Note_on_c, 0, 52, 0
1, 370320, Note_on_c, 0, 40, 0
1, 370320, Note_on_c, 0, 39, 68
1, 370320, Note_on_c, 0, 51, 68
1, 370440, Note_on_c, 0, 51, 0
1, 370440, Note_on_c, 0, 39, 0
1, 370440, Note_on_c, 0, 37, 67
1, 370440, Note_on_c, 0, 49, 67
1, 370560, Tempo, 618111
1, 370560, Note_on_c, 0, 49, 0
1, 370560, Note_on_c, 0, 82, 0
1, 370560, Note_on_c, 0, 94, 0
1, 370560, Note_on_c, 0, 88, 0
1, 370560, Note_on_c, 0, 37, 0
1, 370560, Note_on_c, 0, 83, 95
1, 370560, Note_on_c, 0, 88, 95
1, 370560, Note_on_c, 0, 95, 95
1, 370560, Control_c, 0, 64, 0
1, 370560, Note_on_c, 0, 35, 67
1, 370560, Note_on_c, 0, 47, 67
1, 370680, Tempo, 541223
1, 370680, Note_on_c, 0, 47, 0
1, 370680, Note_on_c, 0, 95, 0
1, 370680, Note_on_c, 0, 83, 0
1, 370680, Note_on_c, 0, 88, 0
1, 370680, Note_on_c, 0, 35, 0
1, 370680, Note_on_c, 0, 47, 62
1, 370710, Note_on_c, 0, 56, 63
1, 370737, Control_c, 0, 64, 0
1, 370740, Note_on_c, 0, 59, 61
1, 370760, Tempo, 538745
1, 370770, Note_on_c, 0, 64, 63
1, 370800, Tempo, 536289
1, 370800, Note_on_c, 0, 71, 72
1, 370817, Control_c, 0, 64, 127
1, 370820, Tempo, 533855
1, 370860, Tempo, 531444
1, 370880, Tempo, 529007
1, 370920, Tempo, 526639
1, 370940, Tempo, 524292
1, 370980, Tempo, 521966
1, 371000, Tempo, 519660
1, 371020, Tempo, 504032
1, 371040, Tempo, 484692
1, 371040, Note_on_c, 0, 71, 0
1, 371040, Note_on_c, 0, 59, 0
1, 371040, Note_on_c, 0, 47, 0
1, 371040, Note_on_c, 0, 56, 0
1, 371040, Note_on_c, 0, 64, 0
1, 371040, Note_on_c, 0, 63, 71
1, 371063, Control_c, 0, 64, 0
1, 371160, Note_on_c, 0, 63, 0
1, 371160, Note_on_c, 0, 75, 65
1, 371160, Note_on_c, 0, 71, 65
1, 371160, Note_on_c, 0, 68, 59
1, 371160, Note_on_c, 0, 64, 59
1, 371200, Tempo, 482781
1, 371280, Note_on_c, 0, 64, 0
1, 371280, Note_on_c, 0, 75, 0
1, 371280, Note_on_c, 0, 71, 0
1, 371280, Note_on_c, 0, 68, 0
1, 371280, Note_on_c, 0, 64, 66
1, 371360, Tempo, 480885
1, 371400, Note_on_c, 0, 64, 0
1, 371400, Note_on_c, 0, 78, 64
1, 371400, Note_on_c, 0, 66, 57
1, 371520, Tempo, 479004
1, 371520, Note_on_c, 0, 66, 0
1, 371520, Note_on_c, 0, 78, 0
1, 371520, Note_on_c, 0, 63, 56
1, 371520, Note_on_c, 0, 66, 56
1, 371520, Note_on_c, 0, 69, 63
1, 371520, Note_on_c, 0, 75, 63
1, 371640, Note_on_c, 0, 75, 0
1, 371640, Note_on_c, 0, 63, 0
1, 371640, Note_on_c, 0, 66, 0
1, 371640, Note_on_c, 0, 69, 0
1, 371640, Note_on_c, 0, 61, 56
1, 371680, Tempo, 477137
1, 371760, Note_on_c, 0, 61, 0
1, 371760, Note_on_c, 0, 61, 52
1, 371760, Note_on_c, 0, 66, 52
1, 371760, Note_on_c, 0, 69, 59
1, 371760, Note_on_c, 0, 73, 59
1, 371840, Tempo, 475285
1, 371880, Note_on_c, 0, 73, 0
1, 371880, Note_on_c, 0, 61, 0
1, 371880, Note_on_c, 0, 66, 0
1, 371880, Note_on_c, 0, 69, 0
1, 371880, Note_on_c, 0, 59, 53
1, 372000, Tempo, 473485
1, 372000, Note_on_c, 0, 59, 0
1, 372000, Note_on_c, 0, 69, 62
1, 372000, Note_on_c, 0, 73, 71
1, 372031, Control_c, 0, 64, 127
1, 372080, Tempo, 475285
1, 372080, Note_on_c, 0, 69, 0
1, 372080, Note_on_c, 0, 66, 62
1, 372120, Tempo, 477137
1, 372160, Note_on_c, 0, 66, 0
1, 372160, Note_on_c, 0, 61, 62
1, 372200, Tempo, 479004
1, 372240, Tempo, 480885
1, 372240, Note_on_c, 0, 61, 0
1, 372240, Note_on_c, 0, 57, 57
1, 372245, Control_c, 0, 64, 0
1, 372271, Control_c, 0, 64, 127
1, 372280, Tempo, 482781
1, 372320, Note_on_c, 0, 57, 0
1, 372320, Note_on_c, 0, 47, 51
1, 372360, Tempo, 484692
1, 372400, Tempo, 486618
1, 372400, Note_on_c, 0, 47, 0
1, 372400, Note_on_c, 0, 39, 50
1, 372440, Tempo, 488560
1, 372480, Note_on_c, 0, 39, 0
1, 372480, Note_on_c, 0, 73, 0
1, 372480, Note_on_c, 0, 40, 63
1, 372485, Control_c, 0, 64, 0
1, 372532, Control_c, 0, 64, 127
1, 372560, Note_on_c, 0, 40, 0
1, 372560, Note_on_c, 0, 47, 52
1, 372640, Note_on_c, 0, 47, 0
1, 372640, Note_on_c, 0, 56, 52
1, 372720, Note_on_c, 0, 56, 0
1, 372720, Note_on_c, 0, 59, 65
1, 372732, Control_c, 0, 64, 0
1, 372780, Control_c, 0, 64, 127
1, 372800, Note_on_c, 0, 59, 0
1, 372800, Note_on_c, 0, 64, 59
1, 372880, Note_on_c, 0, 64, 0
1, 372880, Note_on_c, 0, 71, 59
1, 372880, Note_on_c, 0, 68, 59
1, 372960, Tempo, 486618
1, 372960, Note_on_c, 0, 68, 0
1, 372960, Note_on_c, 0, 71, 0
1, 372960, Note_on_c, 0, 75, 81
1, 372972, Control_c, 0, 64, 0
1, 373080, Note_on_c, 0, 75, 0
1, 373080, Note_on_c, 0, 88, 57
1, 373080, Note_on_c, 0, 83, 57
1, 373080, Note_on_c, 0, 80, 57
1, 373080, Note_on_c, 0, 76, 57
1, 373120, Tempo, 484692
1, 373200, Note_on_c, 0, 76, 0
1, 373200, Note_on_c, 0, 88, 0
1, 373200, Note_on_c, 0, 83, 0
1, 373200, Note_on_c, 0, 80, 0
1, 373200, Note_on_c, 0, 76, 76
1, 373280, Tempo, 482781
1, 373320, Note_on_c, 0, 76, 0
1, 373320, Note_on_c, 0, 90, 62
1, 373320, Note_on_c, 0, 78, 62
1, 373440, Tempo, 480885
1, 373440, Note_on_c, 0, 78, 0
1, 373440, Note_on_c, 0, 90, 0
1, 373440, Note_on_c, 0, 87, 69
1, 373440, Note_on_c, 0, 81, 69
1, 373440, Note_on_c, 0, 78, 62
1, 373440, Note_on_c, 0, 75, 62
1, 373560, Note_on_c, 0, 75, 0
1, 373560, Note_on_c, 0, 87, 0
1, 373560, Note_on_c, 0, 81, 0
1, 373560, Note_on_c, 0, 78, 0
1, 373560, Note_on_c, 0, 73, 65
1, 373600, Tempo, 479004
1, 373680, Note_on_c, 0, 73, 0
1, 373680, Note_on_c, 0, 85, 57
1, 373680, Note_on_c, 0, 81, 51
1, 373680, Note_on_c, 0, 78, 57
1, 373680, Note_on_c, 0, 73, 51
1, 373760, Tempo, 477137
1, 373800, Note_on_c, 0, 73, 0
1, 373800, Note_on_c, 0, 85, 0
1, 373800, Note_on_c, 0, 81, 0
1, 373800, Note_on_c, 0, 78, 0
1, 373800, Note_on_c, 0, 71, 56
1, 373880, Tempo, 475285
1, 373920, Tempo, 473485
1, 373920, Note_on_c, 0, 71, 0
1, 373920, Note_on_c, 0, 82, 64
1, 373920, Note_on_c, 0, 85, 72
1, 373931, Control_c, 0, 64, 127
1, 373980, Note_on_c, 0, 82, 0
1, 373980, Note_on_c, 0, 76, 61
1, 374000, Tempo, 475285
1, 374040, Note_on_c, 0, 76, 0
1, 374040, Note_on_c, 0, 73, 63
1, 374080, Tempo, 477137
1, 374100, Note_on_c, 0, 73, 0
1, 374100, Note_on_c, 0, 70, 62
1, 374160, Tempo, 479004
1, 374160, Note_on_c, 0, 70, 0
1, 374160, Note_on_c, 0, 64, 64
1, 374200, Tempo, 480885
1, 374220, Note_on_c, 0, 64, 0
1, 374220, Note_on_c, 0, 61, 66
1, 374280, Tempo, 482781
1, 374280, Note_on_c, 0, 61, 0
1, 374280, Note_on_c, 0, 55, 70
1, 374340, Note_on_c, 0, 55, 0
1, 374360, Tempo, 484692
1, 374400, Tempo, 510638
1, 374400, Note_on_c, 0, 85, 0
1, 374400, Note_on_c, 0, 32, 70
1, 374407, Control_c, 0, 64, 0
1, 374471, Control_c, 0, 64, 127
1, 374520, Note_on_c, 0, 32, 0
1, 374520, Note_on_c, 0, 41, 63
1, 374640, Tempo, 489356
1, 374640, Note_on_c, 0, 41, 0
1, 374640, Note_on_c, 0, 44, 76
1, 374760, Note_on_c, 0, 44, 0
1, 374760, Note_on_c, 0, 49, 59
1, 374760, Note_on_c, 0, 56, 67
1, 374837, Control_c, 0, 64, 0
1, 374840, Tempo, 487329
1, 374880, Note_on_c, 0, 56, 0
1, 374880, Note_on_c, 0, 49, 0
1, 374880, Note_on_c, 0, 48, 85
1, 375000, Note_on_c, 0, 48, 0
1, 375000, Note_on_c, 0, 61, 59
1, 375000, Note_on_c, 0, 56, 52
1, 375000, Note_on_c, 0, 53, 52
1, 375000, Note_on_c, 0, 49, 52
1, 375080, Tempo, 485319
1, 375120, Note_on_c, 0, 49, 0
1, 375120, Note_on_c, 0, 61, 0
1, 375120, Note_on_c, 0, 56, 0
1, 375120, Note_on_c, 0, 53, 0
1, 375120, Note_on_c, 0, 49, 79
1, 375240, Tempo, 508431
1, 375240, Note_on_c, 0, 49, 0
1, 375240, Note_on_c, 0, 63, 56
1, 375240, Note_on_c, 0, 51, 56
1, 375360, Tempo, 485319
1, 375360, Note_on_c, 0, 51, 0
1, 375360, Note_on_c, 0, 63, 0
1, 375360, Note_on_c, 0, 60, 75
1, 375360, Note_on_c, 0, 54, 56
1, 375360, Note_on_c, 0, 51, 56
1, 375360, Note_on_c, 0, 48, 56
1, 375480, Tempo, 481309
1, 375480, Note_on_c, 0, 48, 0
1, 375480, Note_on_c, 0, 60, 0
1, 375480, Note_on_c, 0, 54, 0
1, 375480, Note_on_c, 0, 51, 0
1, 375480, Note_on_c, 0, 46, 62
1, 375600, Note_on_c, 0, 46, 0
1, 375600, Note_on_c, 0, 58, 70
1, 375600, Note_on_c, 0, 46, 47
1, 375680, Tempo, 479348
1, 375720, Note_on_c, 0, 46, 0
1, 375720, Note_on_c, 0, 58, 0
1, 375720, Note_on_c, 0, 44, 58
1, 375840, Tempo, 477403
1, 375840, Note_on_c, 0, 44, 0
1, 375840, Note_on_c, 0, 52, 63
1, 375840, Note_on_c, 0, 58, 85
1, 375851, Control_c, 0, 64, 127
1, 375960, Note_on_c, 0, 52, 0
1, 375960, Note_on_c, 0, 46, 59
1, 376000, Tempo, 479348
1, 376080, Note_on_c, 0, 46, 0
1, 376080, Note_on_c, 0, 42, 58
1, 376093, Control_c, 0, 64, 0
1, 376120, Tempo, 481309
1, 376137, Control_c, 0, 64, 127
1, 376200, Note_on_c, 0, 42, 0
1, 376200, Note_on_c, 0, 30, 51
1, 376240, Tempo, 483325
1, 376280, Tempo, 484692
1, 376320, Tempo, 510638
1, 376320, Note_on_c, 0, 30, 0
1, 376320, Note_on_c, 0, 58, 0
1, 376320, Note_on_c, 0, 29, 70
1, 376323, Control_c, 0, 64, 0
1, 376412, Control_c, 0, 64, 127
1, 376440, Note_on_c, 0, 29, 0
1, 376440, Note_on_c, 0, 46, 63
1, 376560, Tempo, 489356
1, 376560, Note_on_c, 0, 46, 0
1, 376560, Note_on_c, 0, 50, 76
1, 376580, Control_c, 0, 64, 0
1, 376680, Note_on_c, 0, 50, 0
1, 376680, Note_on_c, 0, 58, 59
1, 376680, Note_on_c, 0, 65, 67
1, 376692, Control_c, 0, 64, 127
1, 376760, Tempo, 487329
1, 376800, Note_on_c, 0, 65, 0
1, 376800, Note_on_c, 0, 58, 0
1, 376800, Note_on_c, 0, 57, 85
1, 376823, Control_c, 0, 64, 0
1, 376920, Note_on_c, 0, 57, 0
1, 376920, Note_on_c, 0, 70, 63
1, 376920, Note_on_c, 0, 65, 52
1, 376920, Note_on_c, 0, 62, 52
1, 376920, Note_on_c, 0, 58, 52
1, 377000, Tempo, 485319
1, 377040, Note_on_c, 0, 58, 0
1, 377040, Note_on_c, 0, 70, 0
1, 377040, Note_on_c, 0, 65, 0
1, 377040, Note_on_c, 0, 62, 0
1, 377040, Note_on_c, 0, 58, 79
1, 377160, Tempo, 508431
1, 377160, Note_on_c, 0, 58, 0
1, 377160, Note_on_c, 0, 72, 59
1, 377160, Note_on_c, 0, 60, 56
1, 377280, Tempo, 485319
1, 377280, Note_on_c, 0, 60, 0
1, 377280, Note_on_c, 0, 72, 0
1, 377280, Note_on_c, 0, 69, 75
1, 377280, Note_on_c, 0, 63, 56
1, 377280, Note_on_c, 0, 60, 56
1, 377280, Note_on_c, 0, 57, 56
1, 377400, Tempo, 481309
1, 377400, Note_on_c, 0, 57, 0
1, 377400, Note_on_c, 0, 69, 0
1, 377400, Note_on_c, 0, 63, 0
1, 377400, Note_on_c, 0, 60, 0
1, 377400, Note_on_c, 0, 55, 62
1, 377520, Note_on_c, 0, 55, 0
1, 377520, Note_on_c, 0, 67, 70
1, 377520, Note_on_c, 0, 55, 47
1, 377600, Tempo, 479348
1, 377640, Note_on_c, 0, 55, 0
1, 377640, Note_on_c, 0, 67, 0
1, 377640, Note_on_c, 0, 53, 58
1, 377760, Tempo, 477403
1, 377760, Note_on_c, 0, 53, 0
1, 377760, Note_on_c, 0, 61, 63
1, 377760, Note_on_c, 0, 67, 76
1, 377771, Control_c, 0, 64, 127
1, 377880, Note_on_c, 0, 61, 0
1, 377880, Note_on_c, 0, 52, 59
1, 377920, Tempo, 479348
1, 378000, Note_on_c, 0, 52, 0
1, 378000, Note_on_c, 0, 49, 58
1, 378005, Control_c, 0, 64, 0
1, 378040, Tempo, 481309
1, 378048, Control_c, 0, 64, 127
1, 378120, Note_on_c, 0, 49, 0
1, 378120, Note_on_c, 0, 33, 51
1, 378160, Tempo, 483325
1, 378200, Tempo, 484692
1, 378240, Tempo, 510638
1, 378240, Note_on_c, 0, 33, 0
1, 378240, Note_on_c, 0, 67, 0
1, 378240, Note_on_c, 0, 32, 70
1, 378246, Control_c, 0, 64, 0
1, 378325, Control_c, 0, 64, 127
1, 378360, Note_on_c, 0, 32, 0
1, 378360, Note_on_c, 0, 49, 63
1, 378480, Tempo, 489356
1, 378480, Note_on_c, 0, 49, 0
1, 378480, Note_on_c, 0, 53, 76
1, 378488, Control_c, 0, 64, 0
1, 378544, Control_c, 0, 64, 127
1, 378600, Note_on_c, 0, 53, 0
1, 378600, Note_on_c, 0, 61, 59
1, 378600, Note_on_c, 0, 68, 67
1, 378680, Tempo, 487329
1, 378720, Note_on_c, 0, 68, 0
1, 378720, Note_on_c, 0, 61, 0
1, 378720, Note_on_c, 0, 60, 85
1, 378734, Control_c, 0, 64, 0
1, 378840, Note_on_c, 0, 60, 0
1, 378840, Note_on_c, 0, 73, 63
1, 378840, Note_on_c, 0, 68, 52
1, 378840, Note_on_c, 0, 65, 52
1, 378840, Note_on_c, 0, 61, 52
1, 378920, Tempo, 485319
1, 378960, Note_on_c, 0, 61, 0
1, 378960, Note_on_c, 0, 73, 0
1, 378960, Note_on_c, 0, 68, 0
1, 378960, Note_on_c, 0, 65, 0
1, 378960, Note_on_c, 0, 61, 79
1, 379080, Tempo, 508431
1, 379080, Note_on_c, 0, 61, 0
1, 379080, Note_on_c, 0, 75, 59
1, 379080, Note_on_c, 0, 63, 56
1, 379200, Tempo, 485319
1, 379200, Note_on_c, 0, 63, 0
1, 379200, Note_on_c, 0, 75, 0
1, 379200, Note_on_c, 0, 72, 75
1, 379200, Note_on_c, 0, 66, 56
1, 379200, Note_on_c, 0, 63, 56
1, 379200, Note_on_c, 0, 60, 56
1, 379320, Tempo, 481309
1, 379320, Note_on_c, 0, 60, 0
1, 379320, Note_on_c, 0, 72, 0
1, 379320, Note_on_c, 0, 66, 0
1, 379320, Note_on_c, 0, 63, 0
1, 379320, Note_on_c, 0, 58, 62
1, 379440, Note_on_c, 0, 58, 0
1, 379440, Note_on_c, 0, 70, 70
1, 379440, Note_on_c, 0, 58, 47
1, 379520, Tempo, 479348
1, 379560, Note_on_c, 0, 58, 0
1, 379560, Note_on_c, 0, 70, 0
1, 379560, Note_on_c, 0, 56, 58
1, 379680, Tempo, 477403
1, 379680, Note_on_c, 0, 56, 0
1, 379680, Note_on_c, 0, 64, 63
1, 379680, Note_on_c, 0, 70, 85
1, 379691, Control_c, 0, 64, 127
1, 379800, Note_on_c, 0, 64, 0
1, 379800, Note_on_c, 0, 58, 59
1, 379840, Tempo, 479348
1, 379920, Note_on_c, 0, 58, 0
1, 379920, Note_on_c, 0, 54, 58
1, 379960, Tempo, 481309
1, 380040, Note_on_c, 0, 54, 0
1, 380040, Note_on_c, 0, 42, 51
1, 380080, Tempo, 483325
1, 380120, Tempo, 484692
1, 380159, Tempo, 510638
1, 380160, Note_on_c, 0, 42, 0
1, 380160, Note_on_c, 0, 70, 0
1, 380160, Note_on_c, 0, 41, 73
1, 380162, Control_c, 0, 64, 0
1, 380223, Control_c, 0, 64, 127
1, 380280, Note_on_c, 0, 41, 0
1, 380280, Note_on_c, 0, 58, 67
1, 380388, Control_c, 0, 64, 0
1, 380399, Tempo, 489356
1, 380400, Note_on_c, 0, 58, 0
1, 380400, Note_on_c, 0, 62, 80
1, 380419, Control_c, 0, 64, 127
1, 380520, Note_on_c, 0, 62, 0
1, 380520, Note_on_c, 0, 70, 62
1, 380520, Note_on_c, 0, 77, 70
1, 380599, Tempo, 487329
1, 380640, Note_on_c, 0, 77, 0
1, 380640, Note_on_c, 0, 70, 0
1, 380640, Note_on_c, 0, 69, 89
1, 380663, Control_c, 0, 64, 0
1, 380760, Note_on_c, 0, 69, 0
1, 380760, Note_on_c, 0, 70, 57
1, 380760, Note_on_c, 0, 77, 57
1, 380760, Note_on_c, 0, 74, 57
1, 380760, Note_on_c, 0, 82, 67
1, 380839, Tempo, 485319
1, 380880, Note_on_c, 0, 82, 0
1, 380880, Note_on_c, 0, 70, 0
1, 380880, Note_on_c, 0, 77, 0
1, 380880, Note_on_c, 0, 74, 0
1, 380880, Note_on_c, 0, 70, 84
1, 380999, Tempo, 508431
1, 381000, Note_on_c, 0, 70, 0
1, 381000, Note_on_c, 0, 84, 61
1, 381000, Note_on_c, 0, 72, 58
1, 381119, Tempo, 485319
1, 381120, Note_on_c, 0, 72, 0
1, 381120, Note_on_c, 0, 84, 0
1, 381120, Note_on_c, 0, 81, 81
1, 381120, Note_on_c, 0, 75, 60
1, 381120, Note_on_c, 0, 72, 60
1, 381120, Note_on_c, 0, 69, 60
1, 381239, Tempo, 481309
1, 381240, Note_on_c, 0, 69, 0
1, 381240, Note_on_c, 0, 81, 0
1, 381240, Note_on_c, 0, 75, 0
1, 381240, Note_on_c, 0, 72, 0
1, 381240, Note_on_c, 0, 67, 66
1, 381360, Note_on_c, 0, 67, 0
1, 381360, Note_on_c, 0, 79, 75
1, 381360, Note_on_c, 0, 67, 49
1, 381439, Tempo, 479348
1, 381480, Note_on_c, 0, 67, 0
1, 381480, Note_on_c, 0, 79, 0
1, 381480, Note_on_c, 0, 65, 60
1, 381599, Tempo, 477403
1, 381600, Note_on_c, 0, 65, 0
1, 381600, Note_on_c, 0, 73, 67
1, 381600, Note_on_c, 0, 79, 90
1, 381610, Control_c, 0, 64, 127
1, 381720, Note_on_c, 0, 73, 0
1, 381720, Note_on_c, 0, 64, 61
1, 381759, Tempo, 479348
1, 381840, Note_on_c, 0, 64, 0
1, 381840, Note_on_c, 0, 52, 58
1, 381840, Note_on_c, 0, 61, 60
1, 381850, Control_c, 0, 64, 0
1, 381879, Tempo, 481309
1, 381883, Control_c, 0, 64, 127
1, 381960, Note_on_c, 0, 61, 0
1, 381960, Note_on_c, 0, 52, 0
1, 381960, Note_on_c, 0, 45, 52
1, 381999, Tempo, 483325
1, 382039, Tempo, 484692
1, 382080, Tempo, 497636
1, 382080, Note_on_c, 0, 45, 0
1, 382080, Note_on_c, 0, 79, 0
1, 382080, Note_on_c, 0, 49, 81
1, 382080, Note_on_c, 0, 44, 73
1, 382087, Control_c, 0, 64, 0
1, 382151, Control_c, 0, 64, 127
1, 382200, Note_on_c, 0, 44, 0
1, 382200, Note_on_c, 0, 49, 0
1, 382200, Note_on_c, 0, 61, 75
1, 382319, Tempo, 489356
1, 382320, Note_on_c, 0, 61, 0
1, 382320, Note_on_c, 0, 65, 89
1, 382440, Note_on_c, 0, 65, 0
1, 382440, Note_on_c, 0, 73, 69
1, 382440, Note_on_c, 0, 80, 77
1, 382519, Tempo, 487329
1, 382560, Note_on_c, 0, 80, 0
1, 382560, Note_on_c, 0, 73, 0
1, 382560, Note_on_c, 0, 72, 94
1, 382610, Control_c, 0, 64, 0
1, 382680, Note_on_c, 0, 72, 0
1, 382680, Note_on_c, 0, 73, 62
1, 382680, Note_on_c, 0, 85, 69
1, 382759, Tempo, 485319
1, 382800, Note_on_c, 0, 85, 0
1, 382800, Note_on_c, 0, 73, 0
1, 382800, Note_on_c, 0, 73, 87
1, 382919, Tempo, 508431
1, 382920, Note_on_c, 0, 73, 0
1, 382920, Note_on_c, 0, 87, 65
1, 382920, Note_on_c, 0, 75, 65
1, 383039, Tempo, 485319
1, 383040, Note_on_c, 0, 75, 0
1, 383040, Note_on_c, 0, 87, 0
1, 383040, Note_on_c, 0, 84, 85
1, 383040, Note_on_c, 0, 78, 67
1, 383040, Note_on_c, 0, 75, 67
1, 383040, Note_on_c, 0, 72, 67
1, 383040, Note_on_c, 0, 44, 59
1, 383040, Note_on_c, 0, 51, 59
1, 383040, Note_on_c, 0, 54, 59
1, 383040, Note_on_c, 0, 60, 67
1, 383043, Control_c, 0, 64, 127
1, 383159, Tempo, 481309
1, 383160, Note_on_c, 0, 60, 0
1, 383160, Note_on_c, 0, 84, 0
1, 383160, Note_on_c, 0, 44, 0
1, 383160, Note_on_c, 0, 78, 0
1, 383160, Note_on_c, 0, 75, 0
1, 383160, Note_on_c, 0, 72, 0
1, 383160, Note_on_c, 0, 51, 0
1, 383160, Note_on_c, 0, 54, 0
1, 383160, Note_on_c, 0, 70, 59
1, 383160, Note_on_c, 0, 58, 59
1, 383280, Note_on_c, 0, 58, 0
1, 383280, Note_on_c, 0, 70, 0
1, 383280, Note_on_c, 0, 82, 76
1, 383280, Note_on_c, 0, 70, 54
1, 383292, Control_c, 0, 64, 0
1, 383339, Control_c, 0, 64, 127
1, 383400, Tempo, 504032
1, 383400, Note_on_c, 0, 70, 0
1, 383400, Note_on_c, 0, 82, 0
1, 383400, Note_on_c, 0, 68, 57
1, 383400, Note_on_c, 0, 56, 57
1, 383520, Tempo, 481309
1, 383520, Note_on_c, 0, 56, 0
1, 383520, Note_on_c, 0, 68, 0
1, 383520, Note_on_c, 0, 86, 85
1, 383520, Note_on_c, 0, 80, 67
1, 383520, Note_on_c, 0, 77, 67
1, 383520, Note_on_c, 0, 74, 67
1, 383532, Control_c, 0, 64, 0
1, 383590, Control_c, 0, 64, 127
1, 383639, Tempo, 481309
1, 383640, Note_on_c, 0, 74, 0
1, 383640, Note_on_c, 0, 86, 0
1, 383640, Note_on_c, 0, 80, 0
1, 383640, Note_on_c, 0, 77, 0
1, 383640, Note_on_c, 0, 73, 59
1, 383640, Note_on_c, 0, 61, 59
1, 383760, Note_on_c, 0, 61, 0
1, 383760, Note_on_c, 0, 73, 0
1, 383760, Note_on_c, 0, 85, 77
1, 383760, Note_on_c, 0, 73, 56
1, 383775, Control_c, 0, 64, 0
1, 383825, Control_c, 0, 64, 127
1, 383880, Tempo, 497636
1, 383880, Note_on_c, 0, 73, 0
1, 383880, Note_on_c, 0, 85, 0
1, 383880, Note_on_c, 0, 71, 57
1, 383880, Note_on_c, 0, 59, 57
1, 384000, Tempo, 481309
1, 384000, Note_on_c, 0, 59, 0
1, 384000, Note_on_c, 0, 71, 0
1, 384000, Note_on_c, 0, 88, 87
1, 384000, Note_on_c, 0, 82, 69
1, 384000, Note_on_c, 0, 79, 69
1, 384000, Note_on_c, 0, 76, 69
1, 384000, Control_c, 0, 64, 0
1, 384059, Control_c, 0, 64, 127
1, 384120, Note_on_c, 0, 76, 0
1, 384120, Note_on_c, 0, 88, 0
1, 384120, Note_on_c, 0, 82, 0
1, 384120, Note_on_c, 0, 79, 0
1, 384120, Note_on_c, 0, 75, 59
1, 384120, Note_on_c, 0, 63, 59
1, 384240, Note_on_c, 0, 63, 0
1, 384240, Note_on_c, 0, 75, 0
1, 384240, Note_on_c, 0, 87, 79
1, 384240, Note_on_c, 0, 75, 57
1, 384259, Control_c, 0, 64, 0
1, 384351, Control_c, 0, 64, 127
1, 384360, Tempo, 497636
1, 384360, Note_on_c, 0, 75, 0
1, 384360, Note_on_c, 0, 87, 0
1, 384360, Note_on_c, 0, 73, 58
1, 384360, Note_on_c, 0, 61, 58
1, 384480, Tempo, 481309
1, 384480, Note_on_c, 0, 61, 0
1, 384480, Note_on_c, 0, 73, 0
1, 384480, Note_on_c, 0, 89, 89
1, 384480, Note_on_c, 0, 83, 70
1, 384480, Note_on_c, 0, 80, 70
1, 384480, Note_on_c, 0, 77, 70
1, 384506, Control_c, 0, 64, 0
1, 384600, Note_on_c, 0, 77, 0
1, 384600, Note_on_c, 0, 89, 0
1, 384600, Note_on_c, 0, 83, 0
1, 384600, Note_on_c, 0, 80, 0
1, 384600, Note_on_c, 0, 75, 61
1, 384600, Note_on_c, 0, 63, 61
1, 384613, Control_c, 0, 64, 127
1, 384720, Note_on_c, 0, 63, 0
1, 384720, Note_on_c, 0, 75, 0
1, 384720, Note_on_c, 0, 87, 80
1, 384720, Note_on_c, 0, 75, 57
1, 384734, Control_c, 0, 64, 0
1, 384785, Control_c, 0, 64, 127
1, 384840, Tempo, 501882
1, 384840, Note_on_c, 0, 75, 0
1, 384840, Note_on_c, 0, 87, 0
1, 384840, Note_on_c, 0, 74, 59
1, 384840, Note_on_c, 0, 62, 59
1, 384960, Tempo, 481309
1, 384960, Note_on_c, 0, 62, 0
1, 384960, Note_on_c, 0, 74, 0
1, 384960, Note_on_c, 0, 81, 71
1, 384960, Note_on_c, 0, 85, 71
1, 384960, Note_on_c, 0, 87, 71
1, 384960, Note_on_c, 0, 93, 90
1, 384960, Control_c, 0, 64, 0
1, 384960, Note_on_c, 0, 56, 61
1, 384960, Note_on_c, 0, 63, 61
1, 384960, Note_on_c, 0, 66, 61
1, 384960, Note_on_c, 0, 73, 70
1, 385037, Control_c, 0, 64, 127
1, 385080, Note_on_c, 0, 73, 0
1, 385080, Note_on_c, 0, 81, 0
1, 385080, Note_on_c, 0, 56, 0
1, 385080, Note_on_c, 0, 85, 0
1, 385080, Note_on_c, 0, 87, 0
1, 385080, Note_on_c, 0, 93, 0
1, 385080, Note_on_c, 0, 63, 0
1, 385080, Note_on_c, 0, 66, 0
1, 385080, Note_on_c, 0, 80, 67
1, 385200, Note_on_c, 0, 80, 0
1, 385200, Note_on_c, 0, 80, 58
1, 385200, Note_on_c, 0, 92, 81
1, 385320, Tempo, 497636
1, 385320, Note_on_c, 0, 92, 0
1, 385320, Note_on_c, 0, 80, 0
1, 385320, Note_on_c, 0, 78, 58
1, 385320, Note_on_c, 0, 90, 66
1, 385440, Tempo, 479348
1, 385440, Note_on_c, 0, 90, 0
1, 385440, Note_on_c, 0, 78, 0
1, 385440, Note_on_c, 0, 84, 73
1, 385440, Note_on_c, 0, 87, 73
1, 385440, Note_on_c, 0, 90, 73
1, 385440, Note_on_c, 0, 96, 92
1, 385440, Note_on_c, 0, 56, 63
1, 385440, Note_on_c, 0, 63, 63
1, 385440, Note_on_c, 0, 66, 63
1, 385440, Note_on_c, 0, 72, 71
1, 385448, Control_c, 0, 64, 0
1, 385513, Control_c, 0, 64, 127
1, 385560, Note_on_c, 0, 72, 0
1, 385560, Note_on_c, 0, 84, 0
1, 385560, Note_on_c, 0, 56, 0
1, 385560, Note_on_c, 0, 87, 0
1, 385560, Note_on_c, 0, 90, 0
1, 385560, Note_on_c, 0, 96, 0
1, 385560, Note_on_c, 0, 63, 0
1, 385560, Note_on_c, 0, 66, 0
1, 385560, Note_on_c, 0, 82, 67
1, 385680, Tempo, 504032
1, 385680, Note_on_c, 0, 82, 0
1, 385680, Note_on_c, 0, 82, 59
1, 385680, Note_on_c, 0, 94, 84
1, 385800, Note_on_c, 0, 94, 0
1, 385800, Note_on_c, 0, 82, 0
1, 385800, Note_on_c, 0, 80, 59
1, 385800, Note_on_c, 0, 92, 84
1, 385920, Tempo, 512864
1, 385920, Note_on_c, 0, 92, 0
1, 385920, Note_on_c, 0, 80, 0
1, 385920, Note_on_c, 0, 85, 70
1, 385920, Note_on_c, 0, 89, 70
1, 385920, Note_on_c, 0, 97, 100
1, 385920, Control_c, 0, 64, 0
1, 385920, Note_on_c, 0, 65, 70
1, 385920, Note_on_c, 0, 70, 70
1, 385927, Note_on_c, 0, 58, 70
1, 386160, Tempo, 467909
1, 386160, Note_on_c, 0, 70, 0
1, 386160, Note_on_c, 0, 65, 0
1, 386160, Note_on_c, 0, 97, 0
1, 386160, Note_on_c, 0, 85, 0
1, 386160, Note_on_c, 0, 89, 0
1, 386160, Note_on_c, 0, 56, 61
1, 386160, Note_on_c, 0, 61, 61
1, 386167, Note_on_c, 0, 58, 0
1, 386250, Note_on_c, 0, 61, 0
1, 386250, Note_on_c, 0, 56, 0
1, 386280, Note_on_c, 0, 56, 54
1, 386280, Note_on_c, 0, 61, 54
1, 386370, Note_on_c, 0, 61, 0
1, 386370, Note_on_c, 0, 56, 0
1, 386400, Note_on_c, 0, 49, 55
1, 386400, Note_on_c, 0, 54, 55
1, 386490, Note_on_c, 0, 54, 0
1, 386490, Note_on_c, 0, 49, 0
1, 386520, Note_on_c, 0, 49, 55
1, 386520, Note_on_c, 0, 54, 55
1, 386560, Tempo, 464217
1, 386610, Note_on_c, 0, 54, 0
1, 386610, Note_on_c, 0, 49, 0
1, 386640, Note_on_c, 0, 56, 61
1, 386640, Note_on_c, 0, 61, 61
1, 386680, Tempo, 462392
1, 386730, Note_on_c, 0, 61, 0
1, 386730, Note_on_c, 0, 56, 0
1, 386760, Note_on_c, 0, 56, 56
1, 386760, Note_on_c, 0, 61, 56
1, 386800, Tempo, 460547
1, 386850, Note_on_c, 0, 61, 0
1, 386850, Note_on_c, 0, 56, 0
1, 386880, Tempo, 458751
1, 386880, Note_on_c, 0, 49, 65
1, 386880, Note_on_c, 0, 57, 65
1, 386970, Note_on_c, 0, 57, 0
1, 386970, Note_on_c, 0, 49, 0
1, 387000, Note_on_c, 0, 49, 61
1, 387000, Note_on_c, 0, 57, 61
1, 387090, Note_on_c, 0, 57, 0
1, 387090, Note_on_c, 0, 49, 0
1, 387120, Note_on_c, 0, 59, 61
1, 387120, Note_on_c, 0, 61, 61
1, 387210, Note_on_c, 0, 61, 0
1, 387210, Note_on_c, 0, 59, 0
1, 387240, Note_on_c, 0, 59, 56
1, 387240, Note_on_c, 0, 61, 56
1, 387330, Note_on_c, 0, 61, 0
1, 387330, Note_on_c, 0, 59, 0
1, 387360, Note_on_c, 0, 49, 63
1, 387360, Note_on_c, 0, 56, 63
1, 387450, Note_on_c, 0, 56, 0
1, 387450, Note_on_c, 0, 49, 0
1, 387480, Note_on_c, 0, 49, 61
1, 387480, Note_on_c, 0, 56, 61
1, 387570, Note_on_c, 0, 56, 0
1, 387570, Note_on_c, 0, 49, 0
1, 387600, Note_on_c, 0, 57, 61
1, 387600, Note_on_c, 0, 61, 61
1, 387690, Note_on_c, 0, 61, 0
1, 387690, Note_on_c, 0, 57, 0
1, 387720, Note_on_c, 0, 57, 56
1, 387720, Note_on_c, 0, 61, 56
1, 387810, Note_on_c, 0, 61, 0
1, 387810, Note_on_c, 0, 57, 0
1, 387840, Note_on_c, 0, 47, 63
1, 387840, Note_on_c, 0, 54, 63
1, 387930, Note_on_c, 0, 54, 0
1, 387930, Note_on_c, 0, 47, 0
1, 387960, Note_on_c, 0, 54, 61
1, 387960, Note_on_c, 0, 59, 61
1, 388050, Note_on_c, 0, 59, 0
1, 388050, Note_on_c, 0, 54, 0
1, 388080, Note_on_c, 0, 52, 56
1, 388080, Note_on_c, 0, 59, 56
1, 388170, Note_on_c, 0, 59, 0
1, 388170, Note_on_c, 0, 52, 0
1, 388200, Note_on_c, 0, 47, 61
1, 388200, Note_on_c, 0, 52, 61
1, 388290, Note_on_c, 0, 52, 0
1, 388290, Note_on_c, 0, 47, 0
1, 388320, Note_on_c, 0, 47, 63
1, 388320, Note_on_c, 0, 57, 63
1, 388410, Note_on_c, 0, 57, 0
1, 388410, Note_on_c, 0, 47, 0
1, 388440, Note_on_c, 0, 57, 56
1, 388440, Note_on_c, 0, 59, 56
1, 388530, Note_on_c, 0, 59, 0
1, 388530, Note_on_c, 0, 57, 0
1, 388560, Tempo, 462392
1, 388560, Note_on_c, 0, 56, 62
1, 388560, Note_on_c, 0, 59, 62
1, 388650, Note_on_c, 0, 59, 0
1, 388650, Note_on_c, 0, 56, 0
1, 388680, Note_on_c, 0, 47, 61
1, 388680, Note_on_c, 0, 56, 61
1, 388770, Note_on_c, 0, 56, 0
1, 388770, Note_on_c, 0, 47, 0
1, 388800, Note_on_c, 0, 47, 62
1, 388800, Note_on_c, 0, 54, 62
1, 388890, Note_on_c, 0, 54, 0
1, 388890, Note_on_c, 0, 47, 0
1, 388920, Note_on_c, 0, 54, 56
1, 388920, Note_on_c, 0, 59, 56
1, 389010, Note_on_c, 0, 59, 0
1, 389010, Note_on_c, 0, 54, 0
1, 389040, Note_on_c, 0, 56, 61
1, 389040, Note_on_c, 0, 59, 61
1, 389130, Note_on_c, 0, 59, 0
1, 389130, Note_on_c, 0, 56, 0
1, 389160, Note_on_c, 0, 47, 61
1, 389160, Note_on_c, 0, 56, 61
1, 389240, Tempo, 483325
1, 389250, Note_on_c, 0, 56, 0
1, 389250, Note_on_c, 0, 47, 0
1, 389280, Tempo, 467909
1, 389280, Note_on_c, 0, 47, 61
1, 389280, Note_on_c, 0, 57, 61
1, 389370, Note_on_c, 0, 57, 0
1, 389370, Note_on_c, 0, 47, 0
1, 389400, Note_on_c, 0, 57, 61
1, 389400, Note_on_c, 0, 59, 61
1, 389490, Note_on_c, 0, 59, 0
1, 389490, Note_on_c, 0, 57, 0
1, 389520, Tempo, 479348
1, 389520, Note_on_c, 0, 42, 61
1, 389520, Note_on_c, 0, 54, 61
1, 389610, Note_on_c, 0, 54, 0
1, 389610, Note_on_c, 0, 42, 0
1, 389640, Note_on_c, 0, 69, 84
1, 389640, Note_on_c, 0, 81, 95
1, 389640, Note_on_c, 0, 75, 84
1, 389652, Control_c, 0, 64, 127
1, 389730, Note_on_c, 0, 75, 0
1, 389730, Note_on_c, 0, 81, 0
1, 389730, Note_on_c, 0, 69, 0
1, 389760, Tempo, 467909
1, 389760, Note_on_c, 0, 73, 84
1, 389760, Note_on_c, 0, 77, 84
1, 389760, Note_on_c, 0, 85, 95
1, 389760, Note_on_c, 0, 37, 70
1, 389760, Note_on_c, 0, 44, 70
1, 389760, Note_on_c, 0, 49, 79
1, 389767, Control_c, 0, 64, 0
1, 389831, Control_c, 0, 64, 127
1, 389979, Control_c, 0, 64, 0
1, 390000, Note_on_c, 0, 49, 0
1, 390000, Note_on_c, 0, 77, 0
1, 390000, Note_on_c, 0, 85, 0
1, 390000, Note_on_c, 0, 73, 0
1, 390000, Note_on_c, 0, 44, 0
1, 390000, Note_on_c, 0, 37, 0
1, 390000, Note_on_c, 0, 56, 61
1, 390000, Note_on_c, 0, 61, 61
1, 390090, Note_on_c, 0, 61, 0
1, 390090, Note_on_c, 0, 56, 0
1, 390120, Note_on_c, 0, 56, 54
1, 390120, Note_on_c, 0, 61, 54
1, 390210, Note_on_c, 0, 61, 0
1, 390210, Note_on_c, 0, 56, 0
1, 390240, Note_on_c, 0, 49, 55
1, 390240, Note_on_c, 0, 54, 55
1, 390320, Tempo, 467909
1, 390330, Note_on_c, 0, 54, 0
1, 390330, Note_on_c, 0, 49, 0
1, 390360, Note_on_c, 0, 49, 55
1, 390360, Note_on_c, 0, 54, 55
1, 390440, Tempo, 466056
1, 390450, Note_on_c, 0, 54, 0
1, 390450, Note_on_c, 0, 49, 0
1, 390480, Note_on_c, 0, 56, 61
1, 390480, Note_on_c, 0, 61, 61
1, 390520, Tempo, 464217
1, 390570, Note_on_c, 0, 61, 0
1, 390570, Note_on_c, 0, 56, 0
1, 390600, Note_on_c, 0, 56, 56
1, 390600, Note_on_c, 0, 61, 56
1, 390640, Tempo, 462392
1, 390690, Note_on_c, 0, 61, 0
1, 390690, Note_on_c, 0, 56, 0
1, 390720, Tempo, 460547
1, 390720, Note_on_c, 0, 49, 65
1, 390720, Note_on_c, 0, 57, 65
1, 390810, Note_on_c, 0, 57, 0
1, 390810, Note_on_c, 0, 49, 0
1, 390840, Note_on_c, 0, 49, 61
1, 390840, Note_on_c, 0, 57, 61
1, 390930, Note_on_c, 0, 57, 0
1, 390930, Note_on_c, 0, 49, 0
1, 390960, Note_on_c, 0, 59, 61
1, 390960, Note_on_c, 0, 61, 61
1, 391050, Note_on_c, 0, 61, 0
1, 391050, Note_on_c, 0, 59, 0
1, 391080, Note_on_c, 0, 59, 56
1, 391080, Note_on_c, 0, 61, 56
1, 391170, Note_on_c, 0, 61, 0
1, 391170, Note_on_c, 0, 59, 0
1, 391200, Note_on_c, 0, 49, 63
1, 391200, Note_on_c, 0, 56, 63
1, 391290, Note_on_c, 0, 56, 0
1, 391290, Note_on_c, 0, 49, 0
1, 391320, Note_on_c, 0, 49, 61
1, 391320, Note_on_c, 0, 56, 61
1, 391410, Note_on_c, 0, 56, 0
1, 391410, Note_on_c, 0, 49, 0
1, 391440, Note_on_c, 0, 57, 61
1, 391440, Note_on_c, 0, 61, 61
1, 391530, Note_on_c, 0, 61, 0
1, 391530, Note_on_c, 0, 57, 0
1, 391560, Note_on_c, 0, 57, 56
1, 391560, Note_on_c, 0, 61, 56
1, 391650, Note_on_c, 0, 61, 0
1, 391650, Note_on_c, 0, 57, 0
1, 391680, Note_on_c, 0, 49, 63
1, 391680, Note_on_c, 0, 54, 63
1, 391770, Note_on_c, 0, 54, 0
1, 391770, Note_on_c, 0, 49, 0
1, 391800, Note_on_c, 0, 54, 61
1, 391800, Note_on_c, 0, 57, 61
1, 391890, Note_on_c, 0, 57, 0
1, 391890, Note_on_c, 0, 54, 0
1, 391920, Tempo, 466056
1, 391920, Note_on_c, 0, 52, 56
1, 391920, Note_on_c, 0, 57, 56
1, 392010, Note_on_c, 0, 57, 0
1, 392010, Note_on_c, 0, 52, 0
1, 392040, Note_on_c, 0, 49, 61
1, 392040, Note_on_c, 0, 52, 61
1, 392130, Note_on_c, 0, 52, 0
1, 392130, Note_on_c, 0, 49, 0
1, 392160, Note_on_c, 0, 49, 63
1, 392160, Note_on_c, 0, 55, 63
1, 392250, Note_on_c, 0, 55, 0
1, 392250, Note_on_c, 0, 49, 0
1, 392280, Note_on_c, 0, 55, 56
1, 392280, Note_on_c, 0, 57, 56
1, 392370, Note_on_c, 0, 57, 0
1, 392370, Note_on_c, 0, 55, 0
1, 392400, Tempo, 464217
1, 392400, Note_on_c, 0, 54, 62
1, 392400, Note_on_c, 0, 57, 62
1, 392490, Note_on_c, 0, 57, 0
1, 392490, Note_on_c, 0, 54, 0
1, 392520, Note_on_c, 0, 49, 61
1, 392520, Note_on_c, 0, 54, 61
1, 392610, Note_on_c, 0, 54, 0
1, 392610, Note_on_c, 0, 49, 0
1, 392640, Note_on_c, 0, 49, 62
1, 392640, Note_on_c, 0, 52, 62
1, 392730, Note_on_c, 0, 52, 0
1, 392730, Note_on_c, 0, 49, 0
1, 392760, Note_on_c, 0, 52, 56
1, 392760, Note_on_c, 0, 57, 56
1, 392850, Note_on_c, 0, 57, 0
1, 392850, Note_on_c, 0, 52, 0
1, 392880, Note_on_c, 0, 54, 61
1, 392880, Note_on_c, 0, 57, 61
1, 392970, Note_on_c, 0, 57, 0
1, 392970, Note_on_c, 0, 54, 0
1, 393000, Note_on_c, 0, 49, 61
1, 393000, Note_on_c, 0, 54, 61
1, 393080, Tempo, 483325
1, 393090, Note_on_c, 0, 54, 0
1, 393090, Note_on_c, 0, 49, 0
1, 393120, Tempo, 469778
1, 393120, Note_on_c, 0, 49, 61
1, 393120, Note_on_c, 0, 55, 61
1, 393210, Note_on_c, 0, 55, 0
1, 393210, Note_on_c, 0, 49, 0
1, 393240, Note_on_c, 0, 55, 61
1, 393240, Note_on_c, 0, 57, 61
1, 393330, Note_on_c, 0, 57, 0
1, 393330, Note_on_c, 0, 55, 0
1, 393360, Tempo, 481309
1, 393360, Note_on_c, 0, 37, 61
1, 393360, Note_on_c, 0, 49, 61
1, 393450, Note_on_c, 0, 49, 0
1, 393480, Note_on_c, 0, 57, 84
1, 393480, Note_on_c, 0, 69, 95
1, 393498, Control_c, 0, 64, 127
1, 393570, Note_on_c, 0, 69, 0
1, 393570, Note_on_c, 0, 57, 0
1, 393600, Note_on_c, 0, 66, 84
1, 393600, Note_on_c, 0, 69, 84
1, 393600, Note_on_c, 0, 74, 84
1, 393600, Note_on_c, 0, 78, 95
1, 393600, Note_on_c, 0, 49, 70
1, 393600, Note_on_c, 0, 54, 70
1, 393600, Note_on_c, 0, 57, 70
1, 393600, Note_on_c, 0, 62, 79
1, 393609, Control_c, 0, 64, 0
1, 393635, Control_c, 0, 64, 127
1, 393765, Control_c, 0, 64, 0
1, 393840, Tempo, 469778
1, 393840, Note_on_c, 0, 62, 0
1, 393840, Note_on_c, 0, 74, 0
1, 393840, Note_on_c, 0, 37, 0
1, 393840, Note_on_c, 0, 78, 0
1, 393840, Note_on_c, 0, 66, 0
1, 393840, Note_on_c, 0, 69, 0
1, 393840, Note_on_c, 0, 54, 0
1, 393840, Note_on_c, 0, 49, 0
1, 393840, Note_on_c, 0, 57, 0
1, 393840, Note_on_c, 0, 62, 61
1, 393840, Note_on_c, 0, 69, 61
1, 393930, Note_on_c, 0, 69, 0
1, 393930, Note_on_c, 0, 62, 0
1, 393960, Note_on_c, 0, 62, 54
1, 393960, Note_on_c, 0, 69, 54
1, 394050, Note_on_c, 0, 69, 0
1, 394050, Note_on_c, 0, 62, 0
1, 394080, Note_on_c, 0, 54, 55
1, 394080, Note_on_c, 0, 61, 55
1, 394170, Note_on_c, 0, 61, 0
1, 394170, Note_on_c, 0, 54, 0
1, 394200, Tempo, 471661
1, 394200, Note_on_c, 0, 54, 55
1, 394200, Note_on_c, 0, 61, 55
1, 394280, Tempo, 469778
1, 394290, Note_on_c, 0, 61, 0
1, 394290, Note_on_c, 0, 54, 0
1, 394320, Tempo, 467909
1, 394320, Note_on_c, 0, 62, 61
1, 394320, Note_on_c, 0, 69, 61
1, 394400, Tempo, 466056
1, 394410, Note_on_c, 0, 69, 0
1, 394410, Note_on_c, 0, 62, 0
1, 394440, Tempo, 464217
1, 394440, Note_on_c, 0, 62, 56
1, 394440, Note_on_c, 0, 69, 56
1, 394480, Tempo, 462392
1, 394530, Note_on_c, 0, 69, 0
1, 394530, Note_on_c, 0, 62, 0
1, 394560, Tempo, 458751
1, 394560, Note_on_c, 0, 54, 65
1, 394560, Note_on_c, 0, 64, 65
1, 394650, Note_on_c, 0, 64, 0
1, 394650, Note_on_c, 0, 54, 0
1, 394680, Note_on_c, 0, 54, 61
1, 394680, Note_on_c, 0, 64, 61
1, 394770, Note_on_c, 0, 64, 0
1, 394770, Note_on_c, 0, 54, 0
1, 394800, Note_on_c, 0, 66, 61
1, 394800, Note_on_c, 0, 69, 61
1, 394890, Note_on_c, 0, 69, 0
1, 394890, Note_on_c, 0, 66, 0
1, 394920, Note_on_c, 0, 66, 56
1, 394920, Note_on_c, 0, 69, 56
1, 395010, Note_on_c, 0, 69, 0
1, 395010, Note_on_c, 0, 66, 0
1, 395040, Note_on_c, 0, 54, 63
1, 395040, Note_on_c, 0, 62, 63
1, 395130, Note_on_c, 0, 62, 0
1, 395130, Note_on_c, 0, 54, 0
1, 395160, Note_on_c, 0, 54, 61
1, 395160, Note_on_c, 0, 62, 61
1, 395250, Note_on_c, 0, 62, 0
1, 395250, Note_on_c, 0, 54, 0
1, 395280, Note_on_c, 0, 66, 61
1, 395280, Note_on_c, 0, 61, 61
1, 395280, Note_on_c, 0, 69, 61
1, 395370, Note_on_c, 0, 69, 0
1, 395370, Note_on_c, 0, 61, 0
1, 395370, Note_on_c, 0, 66, 0
1, 395400, Note_on_c, 0, 66, 56
1, 395400, Note_on_c, 0, 61, 56
1, 395400, Note_on_c, 0, 69, 56
1, 395490, Note_on_c, 0, 69, 0
1, 395490, Note_on_c, 0, 61, 0
1, 395490, Note_on_c, 0, 66, 0
1, 395520, Tempo, 487329
1, 395520, Note_on_c, 0, 71, 84
1, 395520, Note_on_c, 0, 74, 84
1, 395520, Note_on_c, 0, 79, 84
1, 395520, Note_on_c, 0, 83, 95
1, 395520, Note_on_c, 0, 49, 70
1, 395520, Note_on_c, 0, 55, 70
1, 395520, Note_on_c, 0, 59, 70
1, 395520, Note_on_c, 0, 62, 79
1, 395550, Control_c, 0, 64, 127
1, 395760, Tempo, 466056
1, 395760, Note_on_c, 0, 62, 0
1, 395760, Note_on_c, 0, 71, 0
1, 395760, Note_on_c, 0, 49, 0
1, 395760, Note_on_c, 0, 74, 0
1, 395760, Note_on_c, 0, 79, 0
1, 395760, Note_on_c, 0, 83, 0
1, 395760, Note_on_c, 0, 55, 0
1, 395760, Note_on_c, 0, 59, 0
1, 395760, Note_on_c, 0, 67, 61
1, 395760, Note_on_c, 0, 74, 61
1, 395760, Control_c, 0, 64, 0
1, 395850, Note_on_c, 0, 74, 0
1, 395850, Note_on_c, 0, 67, 0
1, 395880, Note_on_c, 0, 67, 54
1, 395880, Note_on_c, 0, 74, 54
1, 395970, Note_on_c, 0, 74, 0
1, 395970, Note_on_c, 0, 67, 0
1, 396000, Note_on_c, 0, 59, 55
1, 396000, Note_on_c, 0, 66, 55
1, 396090, Note_on_c, 0, 66, 0
1, 396090, Note_on_c, 0, 59, 0
1, 396120, Note_on_c, 0, 59, 55
1, 396120, Note_on_c, 0, 66, 55
1, 396160, Tempo, 466056
1, 396200, Tempo, 464217
1, 396210, Note_on_c, 0, 66, 0
1, 396210, Note_on_c, 0, 59, 0
1, 396240, Note_on_c, 0, 67, 61
1, 396240, Note_on_c, 0, 74, 61
1, 396320, Tempo, 462392
1, 396330, Note_on_c, 0, 74, 0
1, 396330, Note_on_c, 0, 67, 0
1, 396360, Note_on_c, 0, 67, 56
1, 396360, Note_on_c, 0, 74, 56
1, 396440, Tempo, 460547
1, 396450, Note_on_c, 0, 74, 0
1, 396450, Note_on_c, 0, 67, 0
1, 396480, Note_on_c, 0, 59, 65
1, 396480, Note_on_c, 0, 69, 65
1, 396520, Tempo, 458751
1, 396570, Note_on_c, 0, 69, 0
1, 396570, Note_on_c, 0, 59, 0
1, 396600, Note_on_c, 0, 59, 61
1, 396600, Note_on_c, 0, 69, 61
1, 396690, Note_on_c, 0, 69, 0
1, 396690, Note_on_c, 0, 59, 0
1, 396720, Note_on_c, 0, 71, 61
1, 396720, Note_on_c, 0, 74, 61
1, 396810, Note_on_c, 0, 74, 0
1, 396810, Note_on_c, 0, 71, 0
1, 396840, Note_on_c, 0, 71, 56
1, 396840, Note_on_c, 0, 74, 56
1, 396930, Note_on_c, 0, 74, 0
1, 396930, Note_on_c, 0, 71, 0
1, 396960, Note_on_c, 0, 59, 63
1, 396960, Note_on_c, 0, 67, 63
1, 397050, Note_on_c, 0, 67, 0
1, 397050, Note_on_c, 0, 59, 0
1, 397080, Note_on_c, 0, 59, 61
1, 397080, Note_on_c, 0, 67, 61
1, 397170, Note_on_c, 0, 67, 0
1, 397170, Note_on_c, 0, 59, 0
1, 397200, Tempo, 489356
1, 397200, Note_on_c, 0, 71, 61
1, 397200, Note_on_c, 0, 66, 61
1, 397200, Note_on_c, 0, 74, 61
1, 397400, Tempo, 477403
1, 397440, Note_on_c, 0, 74, 0
1, 397440, Note_on_c, 0, 66, 0
1, 397440, Note_on_c, 0, 71, 0
1, 397440, Note_on_c, 0, 53, 65
1, 397440, Note_on_c, 0, 65, 65
1, 397456, Control_c, 0, 64, 127
1, 397560, Note_on_c, 0, 59, 62
1, 397560, Note_on_c, 0, 61, 62
1, 397680, Note_on_c, 0, 61, 0
1, 397680, Note_on_c, 0, 59, 0
1, 397680, Note_on_c, 0, 37, 51
1, 397680, Note_on_c, 0, 44, 51
1, 397680, Note_on_c, 0, 49, 55
1, 397800, Tempo, 489356
1, 397800, Note_on_c, 0, 49, 0
1, 397800, Note_on_c, 0, 37, 0
1, 397800, Note_on_c, 0, 53, 0
1, 397800, Note_on_c, 0, 65, 0
1, 397800, Note_on_c, 0, 44, 0
1, 397800, Note_on_c, 0, 54, 63
1, 397800, Note_on_c, 0, 66, 63
1, 397920, Tempo, 477403
1, 397920, Note_on_c, 0, 66, 0
1, 397920, Note_on_c, 0, 54, 0
1, 397920, Note_on_c, 0, 67, 67
1, 397920, Note_on_c, 0, 55, 67
1, 397936, Control_c, 0, 64, 0
1, 397998, Control_c, 0, 64, 127
1, 398040, Tempo, 475473
1, 398040, Note_on_c, 0, 61, 63
1, 398040, Note_on_c, 0, 65, 63
1, 398160, Note_on_c, 0, 65, 0
1, 398160, Note_on_c, 0, 61, 0
1, 398160, Note_on_c, 0, 71, 52
1, 398160, Note_on_c, 0, 73, 56
1, 398160, Note_on_c, 0, 77, 56
1, 398280, Tempo, 487329
1, 398280, Note_on_c, 0, 77, 0
1, 398280, Note_on_c, 0, 71, 0
1, 398280, Note_on_c, 0, 67, 0
1, 398280, Note_on_c, 0, 55, 0
1, 398280, Note_on_c, 0, 73, 0
1, 398280, Note_on_c, 0, 56, 66
1, 398280, Note_on_c, 0, 68, 66
1, 398400, Tempo, 475473
1, 398400, Note_on_c, 0, 68, 0
1, 398400, Note_on_c, 0, 56, 0
1, 398400, Note_on_c, 0, 57, 72
1, 398400, Note_on_c, 0, 69, 72
1, 398409, Control_c, 0, 64, 0
1, 398470, Control_c, 0, 64, 127
1, 398520, Note_on_c, 0, 61, 66
1, 398520, Note_on_c, 0, 66, 66
1, 398640, Note_on_c, 0, 66, 0
1, 398640, Note_on_c, 0, 61, 0
1, 398640, Note_on_c, 0, 49, 51
1, 398640, Note_on_c, 0, 54, 56
1, 398680, Tempo, 473560
1, 398760, Tempo, 483325
1, 398760, Note_on_c, 0, 54, 0
1, 398760, Note_on_c, 0, 57, 0
1, 398760, Note_on_c, 0, 69, 0
1, 398760, Note_on_c, 0, 49, 0
1, 398760, Note_on_c, 0, 59, 71
1, 398760, Note_on_c, 0, 71, 71
1, 398880, Tempo, 473560
1, 398880, Note_on_c, 0, 71, 0
1, 398880, Note_on_c, 0, 59, 0
1, 398880, Note_on_c, 0, 60, 76
1, 398880, Note_on_c, 0, 72, 76
1, 398885, Control_c, 0, 64, 0
1, 398935, Control_c, 0, 64, 127
1, 399000, Note_on_c, 0, 66, 67
1, 399000, Note_on_c, 0, 70, 67
1, 399120, Note_on_c, 0, 70, 0
1, 399120, Note_on_c, 0, 66, 0
1, 399120, Note_on_c, 0, 81, 62
1, 399120, Note_on_c, 0, 78, 55
1, 399240, Tempo, 481309
1, 399240, Note_on_c, 0, 78, 0
1, 399240, Note_on_c, 0, 60, 0
1, 399240, Note_on_c, 0, 72, 0
1, 399240, Note_on_c, 0, 81, 0
1, 399240, Note_on_c, 0, 61, 74
1, 399240, Note_on_c, 0, 73, 74
1, 399320, Tempo, 471661
1, 399360, Tempo, 471661
1, 399360, Note_on_c, 0, 73, 0
1, 399360, Note_on_c, 0, 61, 0
1, 399360, Note_on_c, 0, 62, 80
1, 399360, Note_on_c, 0, 74, 80
1, 399367, Control_c, 0, 64, 0
1, 399398, Control_c, 0, 64, 127
1, 399480, Note_on_c, 0, 69, 72
1, 399480, Note_on_c, 0, 66, 72
1, 399600, Note_on_c, 0, 66, 0
1, 399600, Note_on_c, 0, 69, 0
1, 399600, Note_on_c, 0, 60, 59
1, 399600, Note_on_c, 0, 57, 59
1, 399600, Note_on_c, 0, 54, 52
1, 399600, Note_on_c, 0, 49, 52
1, 399720, Tempo, 481309
1, 399720, Note_on_c, 0, 49, 0
1, 399720, Note_on_c, 0, 74, 0
1, 399720, Note_on_c, 0, 60, 0
1, 399720, Note_on_c, 0, 62, 0
1, 399720, Note_on_c, 0, 54, 0
1, 399720, Note_on_c, 0, 57, 0
1, 399720, Note_on_c, 0, 64, 76
1, 399720, Note_on_c, 0, 76, 76
1, 399840, Tempo, 471661
1, 399840, Note_on_c, 0, 76, 0
1, 399840, Note_on_c, 0, 64, 0
1, 399840, Note_on_c, 0, 65, 84
1, 399840, Note_on_c, 0, 77, 84
1, 399855, Control_c, 0, 64, 0
1, 399922, Control_c, 0, 64, 127
1, 399960, Tempo, 469778
1, 399960, Note_on_c, 0, 69, 75
1, 399960, Note_on_c, 0, 72, 75
1, 400080, Note_on_c, 0, 72, 0
1, 400080, Note_on_c, 0, 69, 0
1, 400080, Note_on_c, 0, 86, 69
1, 400080, Note_on_c, 0, 84, 60
1, 400080, Note_on_c, 0, 81, 60
1, 400200, Tempo, 479348
1, 400200, Note_on_c, 0, 81, 0
1, 400200, Note_on_c, 0, 86, 0
1, 400200, Note_on_c, 0, 65, 0
1, 400200, Note_on_c, 0, 77, 0
1, 400200, Note_on_c, 0, 84, 0
1, 400200, Note_on_c, 0, 66, 81
1, 400200, Note_on_c, 0, 78, 81
1, 400320, Tempo, 467909
1, 400320, Note_on_c, 0, 78, 0
1, 400320, Note_on_c, 0, 66, 0
1, 400320, Note_on_c, 0, 68, 87
1, 400320, Note_on_c, 0, 80, 87
1, 400326, Control_c, 0, 64, 0
1, 400429, Control_c, 0, 64, 127
1, 400440, Note_on_c, 0, 75, 80
1, 400440, Note_on_c, 0, 78, 80
1, 400560, Note_on_c, 0, 78, 0
1, 400560, Note_on_c, 0, 75, 0
1, 400560, Note_on_c, 0, 60, 63
1, 400560, Note_on_c, 0, 56, 63
1, 400560, Note_on_c, 0, 54, 55
1, 400560, Note_on_c, 0, 49, 55
1, 400600, Tempo, 467909
1, 400680, Tempo, 479348
1, 400680, Note_on_c, 0, 49, 0
1, 400680, Note_on_c, 0, 80, 0
1, 400680, Note_on_c, 0, 60, 0
1, 400680, Note_on_c, 0, 68, 0
1, 400680, Note_on_c, 0, 54, 0
1, 400680, Note_on_c, 0, 56, 0
1, 400680, Note_on_c, 0, 70, 85
1, 400680, Note_on_c, 0, 82, 85
1, 400800, Tempo, 467909
1, 400800, Note_on_c, 0, 82, 0
1, 400800, Note_on_c, 0, 70, 0
1, 400800, Note_on_c, 0, 71, 92
1, 400800, Note_on_c, 0, 83, 92
1, 400817, Control_c, 0, 64, 0
1, 400920, Note_on_c, 0, 75, 84
1, 400920, Note_on_c, 0, 78, 84
1, 400926, Control_c, 0, 64, 127
1, 401040, Note_on_c, 0, 78, 0
1, 401040, Note_on_c, 0, 75, 0
1, 401040, Note_on_c, 0, 92, 74
1, 401040, Note_on_c, 0, 90, 74
1, 401040, Note_on_c, 0, 87, 63
1, 401160, Tempo, 479348
1, 401160, Note_on_c, 0, 87, 0
1, 401160, Note_on_c, 0, 92, 0
1, 401160, Note_on_c, 0, 71, 0
1, 401160, Note_on_c, 0, 83, 0
1, 401160, Note_on_c, 0, 90, 0
1, 401160, Note_on_c, 0, 72, 90
1, 401160, Note_on_c, 0, 84, 90
1, 401240, Tempo, 466056
1, 401280, Key_signature, 2, "major"
1, 401280, Tempo, 477403
1, 401280, Note_on_c, 0, 84, 0
1, 401280, Note_on_c, 0, 72, 0
1, 401280, Note_on_c, 0, 73, 96
1, 401280, Note_on_c, 0, 77, 96
1, 401280, Note_on_c, 0, 85, 106
1, 401280, Control_c, 0, 64, 0
1, 401280, Note_on_c, 0, 37, 79
1, 401280, Note_on_c, 0, 44, 79
1, 401280, Note_on_c, 0, 49, 87
1, 401351, Control_c, 0, 64, 127
1, 401520, Note_on_c, 0, 49, 0
1, 401520, Note_on_c, 0, 77, 0
1, 401520, Note_on_c, 0, 85, 0
1, 401520, Note_on_c, 0, 73, 0
1, 401520, Note_on_c, 0, 44, 0
1, 401520, Note_on_c, 0, 37, 0
1, 401520, Note_on_c, 0, 56, 55
1, 401520, Note_on_c, 0, 61, 55
1, 401560, Tempo, 466056
1, 401566, Control_c, 0, 64, 0
1, 401640, Note_on_c, 0, 61, 0
1, 401640, Note_on_c, 0, 56, 0
1, 401640, Note_on_c, 0, 73, 50
1, 401640, Note_on_c, 0, 68, 50
1, 401640, Note_on_c, 0, 61, 50
1, 401760, Tempo, 464217
1, 401760, Note_on_c, 0, 61, 0
1, 401760, Note_on_c, 0, 68, 0
1, 401760, Note_on_c, 0, 73, 0
1, 401760, Note_on_c, 0, 59, 53
1, 401760, Note_on_c, 0, 56, 53
1, 401880, Note_on_c, 0, 56, 0
1, 401880, Note_on_c, 0, 59, 0
1, 401880, Note_on_c, 0, 71, 51
1, 401880, Note_on_c, 0, 68, 51
1, 401880, Note_on_c, 0, 59, 51
1, 401920, Tempo, 462392
1, 402000, Note_on_c, 0, 59, 0
1, 402000, Note_on_c, 0, 68, 0
1, 402000, Note_on_c, 0, 71, 0
1, 402000, Note_on_c, 0, 56, 55
1, 402000, Note_on_c, 0, 61, 55
1, 402080, Tempo, 460547
1, 402120, Note_on_c, 0, 61, 0
1, 402120, Note_on_c, 0, 56, 0
1, 402120, Note_on_c, 0, 73, 52
1, 402120, Note_on_c, 0, 68, 52
1, 402120, Note_on_c, 0, 61, 52
1, 402240, Tempo, 458751
1, 402240, Note_on_c, 0, 61, 0
1, 402240, Note_on_c, 0, 68, 0
1, 402240, Note_on_c, 0, 73, 0
1, 402240, Note_on_c, 0, 54, 61
1, 402240, Note_on_c, 0, 62, 61
1, 402360, Note_on_c, 0, 62, 0
1, 402360, Note_on_c, 0, 54, 0
1, 402360, Note_on_c, 0, 74, 55
1, 402360, Note_on_c, 0, 66, 55
1, 402360, Note_on_c, 0, 62, 55
1, 402480, Note_on_c, 0, 62, 0
1, 402480, Note_on_c, 0, 66, 0
1, 402480, Note_on_c, 0, 74, 0
1, 402480, Note_on_c, 0, 64, 55
1, 402480, Note_on_c, 0, 54, 55
1, 402600, Note_on_c, 0, 54, 0
1, 402600, Note_on_c, 0, 64, 0
1, 402600, Note_on_c, 0, 76, 53
1, 402600, Note_on_c, 0, 64, 53
1, 402600, Note_on_c, 0, 66, 53
1, 402720, Note_on_c, 0, 66, 0
1, 402720, Note_on_c, 0, 64, 0
1, 402720, Note_on_c, 0, 76, 0
1, 402720, Note_on_c, 0, 61, 61
1, 402720, Note_on_c, 0, 54, 61
1, 402840, Note_on_c, 0, 54, 0
1, 402840, Note_on_c, 0, 61, 0
1, 402840, Note_on_c, 0, 73, 53
1, 402840, Note_on_c, 0, 66, 53
1, 402840, Note_on_c, 0, 61, 53
1, 402960, Note_on_c, 0, 61, 0
1, 402960, Note_on_c, 0, 66, 0
1, 402960, Note_on_c, 0, 73, 0
1, 402960, Note_on_c, 0, 62, 55
1, 402960, Note_on_c, 0, 54, 55
1, 403080, Note_on_c, 0, 54, 0
1, 403080, Note_on_c, 0, 62, 0
1, 403080, Note_on_c, 0, 74, 51
1, 403080, Note_on_c, 0, 66, 51
1, 403080, Note_on_c, 0, 62, 51
1, 403200, Note_on_c, 0, 62, 0
1, 403200, Note_on_c, 0, 66, 0
1, 403200, Note_on_c, 0, 74, 0
1, 403200, Note_on_c, 0, 52, 63
1, 403200, Note_on_c, 0, 59, 63
1, 403320, Note_on_c, 0, 59, 0
1, 403320, Note_on_c, 0, 52, 0
1, 403320, Note_on_c, 0, 71, 55
1, 403320, Note_on_c, 0, 64, 55
1, 403320, Note_on_c, 0, 59, 55
1, 403440, Note_on_c, 0, 59, 0
1, 403440, Note_on_c, 0, 64, 0
1, 403440, Note_on_c, 0, 71, 0
1, 403440, Note_on_c, 0, 69, 51
1, 403440, Note_on_c, 0, 64, 51
1, 403440, Note_on_c, 0, 57, 51
1, 403560, Note_on_c, 0, 57, 0
1, 403560, Note_on_c, 0, 64, 0
1, 403560, Note_on_c, 0, 69, 0
1, 403560, Note_on_c, 0, 52, 52
1, 403560, Note_on_c, 0, 57, 52
1, 403680, Note_on_c, 0, 57, 0
1, 403680, Note_on_c, 0, 52, 0
1, 403680, Note_on_c, 0, 52, 63
1, 403680, Note_on_c, 0, 62, 63
1, 403800, Note_on_c, 0, 62, 0
1, 403800, Note_on_c, 0, 52, 0
1, 403800, Note_on_c, 0, 62, 55
1, 403800, Note_on_c, 0, 64, 55
1, 403800, Note_on_c, 0, 74, 55
1, 403920, Note_on_c, 0, 74, 0
1, 403920, Note_on_c, 0, 64, 0
1, 403920, Note_on_c, 0, 62, 0
1, 403920, Note_on_c, 0, 73, 51
1, 403920, Note_on_c, 0, 64, 51
1, 403920, Note_on_c, 0, 61, 51
1, 404040, Note_on_c, 0, 61, 0
1, 404040, Note_on_c, 0, 64, 0
1, 404040, Note_on_c, 0, 73, 0
1, 404040, Note_on_c, 0, 52, 51
1, 404040, Note_on_c, 0, 61, 51
1, 404160, Tempo, 460547
1, 404160, Note_on_c, 0, 61, 0
1, 404160, Note_on_c, 0, 52, 0
1, 404160, Note_on_c, 0, 52, 62
1, 404160, Note_on_c, 0, 59, 62
1, 404280, Note_on_c, 0, 59, 0
1, 404280, Note_on_c, 0, 52, 0
1, 404280, Note_on_c, 0, 59, 52
1, 404280, Note_on_c, 0, 64, 52
1, 404280, Note_on_c, 0, 71, 52
1, 404320, Tempo, 462392
1, 404400, Note_on_c, 0, 71, 0
1, 404400, Note_on_c, 0, 64, 0
1, 404400, Note_on_c, 0, 59, 0
1, 404400, Note_on_c, 0, 61, 49
1, 404400, Note_on_c, 0, 64, 49
1, 404400, Note_on_c, 0, 73, 49
1, 404440, Tempo, 464217
1, 404520, Note_on_c, 0, 73, 0
1, 404520, Note_on_c, 0, 64, 0
1, 404520, Note_on_c, 0, 61, 0
1, 404520, Note_on_c, 0, 52, 55
1, 404520, Note_on_c, 0, 61, 55
1, 404600, Tempo, 466056
1, 404640, Note_on_c, 0, 61, 0
1, 404640, Note_on_c, 0, 52, 0
1, 404640, Note_on_c, 0, 52, 63
1, 404640, Note_on_c, 0, 62, 63
1, 404720, Tempo, 467909
1, 404760, Note_on_c, 0, 62, 0
1, 404760, Note_on_c, 0, 52, 0
1, 404760, Note_on_c, 0, 62, 55
1, 404760, Note_on_c, 0, 64, 55
1, 404760, Note_on_c, 0, 74, 55
1, 404880, Tempo, 469778
1, 404880, Note_on_c, 0, 74, 0
1, 404880, Note_on_c, 0, 64, 0
1, 404880, Note_on_c, 0, 62, 0
1, 404880, Note_on_c, 0, 38, 62
1, 404880, Note_on_c, 0, 44, 62
1, 404880, Note_on_c, 0, 50, 62
1, 405000, Tempo, 471661
1, 405000, Note_on_c, 0, 50, 0
1, 405000, Note_on_c, 0, 44, 0
1, 405000, Note_on_c, 0, 38, 0
1, 405000, Note_on_c, 0, 68, 73
1, 405000, Note_on_c, 0, 78, 73
1, 405000, Note_on_c, 0, 80, 73
1, 405037, Control_c, 0, 64, 127
1, 405120, Tempo, 479348
1, 405120, Note_on_c, 0, 80, 0
1, 405120, Note_on_c, 0, 78, 0
1, 405120, Note_on_c, 0, 68, 0
1, 405120, Note_on_c, 0, 73, 84
1, 405120, Note_on_c, 0, 77, 84
1, 405120, Note_on_c, 0, 85, 95
1, 405120, Note_on_c, 0, 37, 70
1, 405120, Note_on_c, 0, 44, 70
1, 405120, Note_on_c, 0, 49, 79
1, 405126, Control_c, 0, 64, 0
1, 405191, Control_c, 0, 64, 127
1, 405360, Note_on_c, 0, 49, 0
1, 405360, Note_on_c, 0, 77, 0
1, 405360, Note_on_c, 0, 85, 0
1, 405360, Note_on_c, 0, 73, 0
1, 405360, Note_on_c, 0, 44, 0
1, 405360, Note_on_c, 0, 37, 0
1, 405360, Note_on_c, 0, 56, 55
1, 405360, Note_on_c, 0, 61, 55
1, 405395, Control_c, 0, 64, 0
1, 405400, Tempo, 469778
1, 405480, Note_on_c, 0, 61, 0
1, 405480, Note_on_c, 0, 56, 0
1, 405480, Note_on_c, 0, 73, 50
1, 405480, Note_on_c, 0, 68, 50
1, 405480, Note_on_c, 0, 61, 50
1, 405520, Tempo, 467909
1, 405600, Note_on_c, 0, 61, 0
1, 405600, Note_on_c, 0, 68, 0
1, 405600, Note_on_c, 0, 73, 0
1, 405600, Note_on_c, 0, 59, 53
1, 405600, Note_on_c, 0, 56, 53
1, 405640, Tempo, 466056
1, 405720, Note_on_c, 0, 56, 0
1, 405720, Note_on_c, 0, 59, 0
1, 405720, Note_on_c, 0, 71, 51
1, 405720, Note_on_c, 0, 68, 51
1, 405720, Note_on_c, 0, 59, 51
1, 405760, Tempo, 464217
1, 405840, Note_on_c, 0, 59, 0
1, 405840, Note_on_c, 0, 68, 0
1, 405840, Note_on_c, 0, 71, 0
1, 405840, Note_on_c, 0, 56, 55
1, 405840, Note_on_c, 0, 61, 55
1, 405880, Tempo, 462392
1, 405960, Note_on_c, 0, 61, 0
1, 405960, Note_on_c, 0, 56, 0
1, 405960, Note_on_c, 0, 73, 52
1, 405960, Note_on_c, 0, 68, 52
1, 405960, Note_on_c, 0, 61, 52
1, 406000, Tempo, 460547
1, 406080, Tempo, 458751
1, 406080, Note_on_c, 0, 61, 0
1, 406080, Note_on_c, 0, 68, 0
1, 406080, Note_on_c, 0, 73, 0
1, 406080, Note_on_c, 0, 54, 61
1, 406080, Note_on_c, 0, 62, 61
1, 406200, Note_on_c, 0, 62, 0
1, 406200, Note_on_c, 0, 54, 0
1, 406200, Note_on_c, 0, 74, 55
1, 406200, Note_on_c, 0, 66, 55
1, 406200, Note_on_c, 0, 62, 55
1, 406320, Note_on_c, 0, 62, 0
1, 406320, Note_on_c, 0, 66, 0
1, 406320, Note_on_c, 0, 74, 0
1, 406320, Note_on_c, 0, 64, 55
1, 406320, Note_on_c, 0, 54, 55
1, 406440, Note_on_c, 0, 54, 0
1, 406440, Note_on_c, 0, 64, 0
1, 406440, Note_on_c, 0, 76, 53
1, 406440, Note_on_c, 0, 64, 53
1, 406440, Note_on_c, 0, 66, 53
1, 406560, Note_on_c, 0, 66, 0
1, 406560, Note_on_c, 0, 64, 0
1, 406560, Note_on_c, 0, 76, 0
1, 406560, Note_on_c, 0, 61, 61
1, 406560, Note_on_c, 0, 54, 61
1, 406680, Note_on_c, 0, 54, 0
1, 406680, Note_on_c, 0, 61, 0
1, 406680, Note_on_c, 0, 73, 53
1, 406680, Note_on_c, 0, 66, 53
1, 406680, Note_on_c, 0, 61, 53
1, 406800, Note_on_c, 0, 61, 0
1, 406800, Note_on_c, 0, 66, 0
1, 406800, Note_on_c, 0, 73, 0
1, 406800, Note_on_c, 0, 62, 55
1, 406800, Note_on_c, 0, 54, 55
1, 406920, Note_on_c, 0, 54, 0
1, 406920, Note_on_c, 0, 62, 0
1, 406920, Note_on_c, 0, 74, 51
1, 406920, Note_on_c, 0, 66, 51
1, 406920, Note_on_c, 0, 62, 51
1, 407040, Note_on_c, 0, 62, 0
1, 407040, Note_on_c, 0, 66, 0
1, 407040, Note_on_c, 0, 74, 0
1, 407040, Note_on_c, 0, 52, 63
1, 407040, Note_on_c, 0, 59, 63
1, 407160, Note_on_c, 0, 59, 0
1, 407160, Note_on_c, 0, 52, 0
1, 407160, Note_on_c, 0, 71, 55
1, 407160, Note_on_c, 0, 64, 55
1, 407160, Note_on_c, 0, 59, 55
1, 407280, Note_on_c, 0, 59, 0
1, 407280, Note_on_c, 0, 64, 0
1, 407280, Note_on_c, 0, 71, 0
1, 407280, Note_on_c, 0, 69, 51
1, 407280, Note_on_c, 0, 64, 51
1, 407280, Note_on_c, 0, 57, 51
1, 407400, Note_on_c, 0, 57, 0
1, 407400, Note_on_c, 0, 64, 0
1, 407400, Note_on_c, 0, 69, 0
1, 407400, Note_on_c, 0, 52, 52
1, 407400, Note_on_c, 0, 57, 52
1, 407520, Note_on_c, 0, 57, 0
1, 407520, Note_on_c, 0, 52, 0
1, 407520, Note_on_c, 0, 52, 63
1, 407520, Note_on_c, 0, 60, 63
1, 407640, Note_on_c, 0, 60, 0
1, 407640, Note_on_c, 0, 52, 0
1, 407640, Note_on_c, 0, 60, 55
1, 407640, Note_on_c, 0, 64, 55
1, 407640, Note_on_c, 0, 72, 55
1, 407760, Note_on_c, 0, 72, 0
1, 407760, Note_on_c, 0, 64, 0
1, 407760, Note_on_c, 0, 60, 0
1, 407760, Note_on_c, 0, 71, 51
1, 407760, Note_on_c, 0, 64, 51
1, 407760, Note_on_c, 0, 59, 51
1, 407880, Note_on_c, 0, 59, 0
1, 407880, Note_on_c, 0, 64, 0
1, 407880, Note_on_c, 0, 71, 0
1, 407880, Note_on_c, 0, 52, 51
1, 407880, Note_on_c, 0, 59, 51
1, 408000, Tempo, 460547
1, 408000, Note_on_c, 0, 59, 0
1, 408000, Note_on_c, 0, 52, 0
1, 408000, Note_on_c, 0, 52, 62
1, 408000, Note_on_c, 0, 57, 62
1, 408120, Note_on_c, 0, 57, 0
1, 408120, Note_on_c, 0, 52, 0
1, 408120, Note_on_c, 0, 57, 52
1, 408120, Note_on_c, 0, 64, 52
1, 408120, Note_on_c, 0, 69, 52
1, 408160, Tempo, 462392
1, 408240, Note_on_c, 0, 69, 0
1, 408240, Note_on_c, 0, 64, 0
1, 408240, Note_on_c, 0, 57, 0
1, 408240, Note_on_c, 0, 59, 49
1, 408240, Note_on_c, 0, 64, 49
1, 408240, Note_on_c, 0, 71, 49
1, 408280, Tempo, 464217
1, 408360, Note_on_c, 0, 71, 0
1, 408360, Note_on_c, 0, 64, 0
1, 408360, Note_on_c, 0, 59, 0
1, 408360, Note_on_c, 0, 52, 55
1, 408360, Note_on_c, 0, 59, 55
1, 408440, Tempo, 466056
1, 408480, Note_on_c, 0, 59, 0
1, 408480, Note_on_c, 0, 52, 0
1, 408480, Note_on_c, 0, 50, 63
1, 408480, Note_on_c, 0, 60, 63
1, 408560, Tempo, 467909
1, 408600, Note_on_c, 0, 60, 0
1, 408600, Note_on_c, 0, 50, 0
1, 408600, Note_on_c, 0, 60, 55
1, 408600, Note_on_c, 0, 62, 55
1, 408600, Note_on_c, 0, 72, 55
1, 408720, Tempo, 469778
1, 408720, Note_on_c, 0, 72, 0
1, 408720, Note_on_c, 0, 62, 0
1, 408720, Note_on_c, 0, 60, 0
1, 408720, Note_on_c, 0, 38, 62
1, 408720, Note_on_c, 0, 50, 62
1, 408840, Tempo, 471661
1, 408840, Note_on_c, 0, 50, 0
1, 408840, Note_on_c, 0, 38, 0
1, 408840, Note_on_c, 0, 66, 73
1, 408840, Note_on_c, 0, 62, 73
1, 408840, Note_on_c, 0, 72, 73
1, 408840, Note_on_c, 0, 74, 73
1, 408886, Control_c, 0, 64, 127
1, 408960, Tempo, 531444
1, 408960, Note_on_c, 0, 74, 0
1, 408960, Note_on_c, 0, 66, 0
1, 408960, Note_on_c, 0, 62, 0
1, 408960, Note_on_c, 0, 72, 0
1, 408960, Note_on_c, 0, 71, 84
1, 408960, Note_on_c, 0, 74, 84
1, 408960, Note_on_c, 0, 79, 84
1, 408960, Note_on_c, 0, 83, 95
1, 408960, Note_on_c, 0, 31, 70
1, 408960, Note_on_c, 0, 38, 70
1, 408960, Note_on_c, 0, 43, 79
1, 408967, Control_c, 0, 64, 0
1, 409045, Control_c, 0, 64, 127
1, 409200, Tempo, 466056
1, 409200, Note_on_c, 0, 43, 0
1, 409200, Note_on_c, 0, 31, 0
1, 409200, Note_on_c, 0, 74, 0
1, 409200, Note_on_c, 0, 79, 0
1, 409200, Note_on_c, 0, 71, 0
1, 409200, Note_on_c, 0, 38, 0
1, 409200, Note_on_c, 0, 83, 0
1, 409200, Note_on_c, 0, 67, 61
1, 409200, Note_on_c, 0, 74, 61
1, 409214, Control_c, 0, 64, 0
1, 409290, Note_on_c, 0, 74, 0
1, 409290, Note_on_c, 0, 67, 0
1, 409320, Note_on_c, 0, 67, 54
1, 409320, Note_on_c, 0, 74, 54
1, 409400, Tempo, 464217
1, 409410, Note_on_c, 0, 74, 0
1, 409410, Note_on_c, 0, 67, 0
1, 409440, Note_on_c, 0, 59, 55
1, 409440, Note_on_c, 0, 66, 55
1, 409530, Note_on_c, 0, 66, 0
1, 409530, Note_on_c, 0, 59, 0
1, 409560, Tempo, 462392
1, 409560, Note_on_c, 0, 59, 55
1, 409560, Note_on_c, 0, 66, 55
1, 409650, Note_on_c, 0, 66, 0
1, 409650, Note_on_c, 0, 59, 0
1, 409680, Note_on_c, 0, 67, 61
1, 409680, Note_on_c, 0, 74, 61
1, 409720, Tempo, 460547
1, 409770, Note_on_c, 0, 74, 0
1, 409770, Note_on_c, 0, 67, 0
1, 409800, Note_on_c, 0, 67, 56
1, 409800, Note_on_c, 0, 74, 56
1, 409880, Tempo, 458751
1, 409890, Note_on_c, 0, 74, 0
1, 409890, Note_on_c, 0, 67, 0
1, 409920, Tempo, 456969
1, 409920, Note_on_c, 0, 59, 65
1, 409920, Note_on_c, 0, 69, 65
1, 410010, Note_on_c, 0, 69, 0
1, 410010, Note_on_c, 0, 59, 0
1, 410040, Note_on_c, 0, 59, 61
1, 410040, Note_on_c, 0, 69, 61
1, 410130, Note_on_c, 0, 69, 0
1, 410130, Note_on_c, 0, 59, 0
1, 410160, Note_on_c, 0, 71, 61
1, 410160, Note_on_c, 0, 74, 61
1, 410250, Note_on_c, 0, 74, 0
1, 410250, Note_on_c, 0, 71, 0
1, 410280, Note_on_c, 0, 71, 56
1, 410280, Note_on_c, 0, 74, 56
1, 410370, Note_on_c, 0, 74, 0
1, 410370, Note_on_c, 0, 71, 0
1, 410400, Note_on_c, 0, 59, 63
1, 410400, Note_on_c, 0, 67, 63
1, 410490, Note_on_c, 0, 67, 0
1, 410490, Note_on_c, 0, 59, 0
1, 410520, Note_on_c, 0, 59, 61
1, 410520, Note_on_c, 0, 67, 61
1, 410610, Note_on_c, 0, 67, 0
1, 410610, Note_on_c, 0, 59, 0
1, 410640, Note_on_c, 0, 71, 61
1, 410640, Note_on_c, 0, 66, 61
1, 410640, Note_on_c, 0, 74, 61
1, 410730, Note_on_c, 0, 74, 0
1, 410730, Note_on_c, 0, 66, 0
1, 410730, Note_on_c, 0, 71, 0
1, 410760, Note_on_c, 0, 71, 56
1, 410760, Note_on_c, 0, 66, 56
1, 410760, Note_on_c, 0, 74, 56
1, 410850, Note_on_c, 0, 74, 0
1, 410850, Note_on_c, 0, 66, 0
1, 410850, Note_on_c, 0, 71, 0
1, 410880, Tempo, 508431
1, 410880, Note_on_c, 0, 76, 84
1, 410880, Note_on_c, 0, 79, 84
1, 410880, Note_on_c, 0, 84, 84
1, 410880, Note_on_c, 0, 88, 95
1, 410880, Note_on_c, 0, 40, 70
1, 410880, Note_on_c, 0, 43, 70
1, 410880, Note_on_c, 0, 48, 70
1, 410880, Note_on_c, 0, 52, 79
1, 410910, Control_c, 0, 64, 127
1, 411120, Tempo, 471661
1, 411120, Note_on_c, 0, 52, 0
1, 411120, Note_on_c, 0, 76, 0
1, 411120, Note_on_c, 0, 40, 0
1, 411120, Note_on_c, 0, 79, 0
1, 411120, Note_on_c, 0, 84, 0
1, 411120, Note_on_c, 0, 88, 0
1, 411120, Note_on_c, 0, 43, 0
1, 411120, Note_on_c, 0, 48, 0
1, 411120, Note_on_c, 0, 72, 61
1, 411120, Note_on_c, 0, 79, 61
1, 411132, Control_c, 0, 64, 0
1, 411210, Note_on_c, 0, 79, 0
1, 411210, Note_on_c, 0, 72, 0
1, 411240, Note_on_c, 0, 72, 54
1, 411240, Note_on_c, 0, 79, 54
1, 411330, Note_on_c, 0, 79, 0
1, 411330, Note_on_c, 0, 72, 0
1, 411360, Note_on_c, 0, 64, 55
1, 411360, Note_on_c, 0, 71, 55
1, 411450, Note_on_c, 0, 71, 0
1, 411450, Note_on_c, 0, 64, 0
1, 411480, Tempo, 471661
1, 411480, Note_on_c, 0, 64, 55
1, 411480, Note_on_c, 0, 71, 55
1, 411560, Tempo, 469778
1, 411570, Note_on_c, 0, 71, 0
1, 411570, Note_on_c, 0, 64, 0
1, 411600, Tempo, 467909
1, 411600, Note_on_c, 0, 72, 61
1, 411600, Note_on_c, 0, 79, 61
1, 411640, Tempo, 466056
1, 411680, Tempo, 464217
1, 411690, Note_on_c, 0, 79, 0
1, 411690, Note_on_c, 0, 72, 0
1, 411720, Tempo, 462392
1, 411720, Note_on_c, 0, 72, 56
1, 411720, Note_on_c, 0, 79, 56
1, 411760, Tempo, 460547
1, 411800, Tempo, 458751
1, 411810, Note_on_c, 0, 79, 0
1, 411810, Note_on_c, 0, 72, 0
1, 411840, Tempo, 456969
1, 411840, Note_on_c, 0, 64, 65
1, 411840, Note_on_c, 0, 74, 65
1, 411930, Note_on_c, 0, 74, 0
1, 411930, Note_on_c, 0, 64, 0
1, 411960, Note_on_c, 0, 64, 61
1, 411960, Note_on_c, 0, 74, 61
1, 412050, Note_on_c, 0, 74, 0
1, 412050, Note_on_c, 0, 64, 0
1, 412080, Note_on_c, 0, 76, 61
1, 412080, Note_on_c, 0, 79, 61
1, 412170, Note_on_c, 0, 79, 0
1, 412170, Note_on_c, 0, 76, 0
1, 412200, Note_on_c, 0, 76, 56
1, 412200, Note_on_c, 0, 79, 56
1, 412290, Note_on_c, 0, 79, 0
1, 412290, Note_on_c, 0, 76, 0
1, 412320, Note_on_c, 0, 64, 63
1, 412320, Note_on_c, 0, 72, 63
1, 412410, Note_on_c, 0, 72, 0
1, 412410, Note_on_c, 0, 64, 0
1, 412440, Note_on_c, 0, 64, 61
1, 412440, Note_on_c, 0, 72, 61
1, 412530, Note_on_c, 0, 72, 0
1, 412530, Note_on_c, 0, 64, 0
1, 412560, Tempo, 489356
1, 412560, Note_on_c, 0, 76, 61
1, 412560, Note_on_c, 0, 71, 61
1, 412560, Note_on_c, 0, 79, 61
1, 412760, Tempo, 477403
1, 412800, Note_on_c, 0, 79, 0
1, 412800, Note_on_c, 0, 71, 0
1, 412800, Note_on_c, 0, 76, 0
1, 412800, Note_on_c, 0, 58, 65
1, 412800, Note_on_c, 0, 70, 65
1, 412816, Control_c, 0, 64, 127
1, 412920, Note_on_c, 0, 64, 62
1, 412920, Note_on_c, 0, 66, 62
1, 413040, Note_on_c, 0, 66, 0
1, 413040, Note_on_c, 0, 64, 0
1, 413040, Note_on_c, 0, 49, 51
1, 413040, Note_on_c, 0, 54, 56
1, 413160, Tempo, 489356
1, 413160, Note_on_c, 0, 54, 0
1, 413160, Note_on_c, 0, 58, 0
1, 413160, Note_on_c, 0, 70, 0
1, 413160, Note_on_c, 0, 49, 0
1, 413160, Note_on_c, 0, 59, 64
1, 413160, Note_on_c, 0, 71, 64
1, 413280, Tempo, 477403
1, 413280, Note_on_c, 0, 71, 0
1, 413280, Note_on_c, 0, 59, 0
1, 413280, Note_on_c, 0, 72, 70
1, 413280, Note_on_c, 0, 60, 70
1, 413284, Control_c, 0, 64, 0
1, 413325, Control_c, 0, 64, 127
1, 413400, Tempo, 475473
1, 413400, Note_on_c, 0, 66, 65
1, 413400, Note_on_c, 0, 70, 65
1, 413520, Note_on_c, 0, 70, 0
1, 413520, Note_on_c, 0, 66, 0
1, 413520, Note_on_c, 0, 76, 53
1, 413520, Note_on_c, 0, 78, 60
1, 413520, Note_on_c, 0, 82, 60
1, 413640, Tempo, 487329
1, 413640, Note_on_c, 0, 82, 0
1, 413640, Note_on_c, 0, 76, 0
1, 413640, Note_on_c, 0, 72, 0
1, 413640, Note_on_c, 0, 60, 0
1, 413640, Note_on_c, 0, 78, 0
1, 413640, Note_on_c, 0, 61, 70
1, 413640, Note_on_c, 0, 73, 70
1, 413760, Tempo, 475473
1, 413760, Note_on_c, 0, 73, 0
1, 413760, Note_on_c, 0, 61, 0
1, 413760, Note_on_c, 0, 62, 74
1, 413760, Note_on_c, 0, 74, 74
1, 413769, Control_c, 0, 64, 0
1, 413880, Note_on_c, 0, 66, 70
1, 413880, Note_on_c, 0, 71, 70
1, 413894, Control_c, 0, 64, 127
1, 414000, Note_on_c, 0, 71, 0
1, 414000, Note_on_c, 0, 66, 0
1, 414000, Note_on_c, 0, 49, 53
1, 414000, Note_on_c, 0, 54, 53
1, 414000, Note_on_c, 0, 59, 61
1, 414040, Tempo, 473560
1, 414120, Tempo, 483325
1, 414120, Note_on_c, 0, 59, 0
1, 414120, Note_on_c, 0, 49, 0
1, 414120, Note_on_c, 0, 62, 0
1, 414120, Note_on_c, 0, 74, 0
1, 414120, Note_on_c, 0, 54, 0
1, 414120, Note_on_c, 0, 64, 73
1, 414120, Note_on_c, 0, 76, 73
1, 414240, Tempo, 473560
1, 414240, Note_on_c, 0, 76, 0
1, 414240, Note_on_c, 0, 64, 0
1, 414240, Note_on_c, 0, 65, 80
1, 414240, Note_on_c, 0, 77, 80
1, 414245, Control_c, 0, 64, 0
1, 414346, Control_c, 0, 64, 127
1, 414360, Note_on_c, 0, 71, 73
1, 414360, Note_on_c, 0, 74, 73
1, 414480, Note_on_c, 0, 74, 0
1, 414480, Note_on_c, 0, 71, 0
1, 414480, Note_on_c, 0, 86, 65
1, 414480, Note_on_c, 0, 83, 61
1, 414600, Tempo, 481309
1, 414600, Note_on_c, 0, 83, 0
1, 414600, Note_on_c, 0, 65, 0
1, 414600, Note_on_c, 0, 77, 0
1, 414600, Note_on_c, 0, 86, 0
1, 414600, Note_on_c, 0, 66, 78
1, 414600, Note_on_c, 0, 78, 78
1, 414680, Tempo, 471661
1, 414720, Tempo, 471661
1, 414720, Note_on_c, 0, 78, 0
1, 414720, Note_on_c, 0, 66, 0
1, 414720, Note_on_c, 0, 68, 84
1, 414720, Note_on_c, 0, 80, 84
1, 414726, Control_c, 0, 64, 0
1, 414789, Control_c, 0, 64, 127
1, 414840, Note_on_c, 0, 76, 78
1, 414840, Note_on_c, 0, 74, 78
1, 414960, Note_on_c, 0, 74, 0
1, 414960, Note_on_c, 0, 76, 0
1, 414960, Note_on_c, 0, 64, 64
1, 414960, Note_on_c, 0, 59, 64
1, 414960, Note_on_c, 0, 56, 57
1, 414960, Note_on_c, 0, 49, 57
1, 415080, Tempo, 481309
1, 415080, Note_on_c, 0, 49, 0
1, 415080, Note_on_c, 0, 80, 0
1, 415080, Note_on_c, 0, 64, 0
1, 415080, Note_on_c, 0, 68, 0
1, 415080, Note_on_c, 0, 56, 0
1, 415080, Note_on_c, 0, 59, 0
1, 415080, Note_on_c, 0, 69, 81
1, 415080, Note_on_c, 0, 81, 81
1, 415200, Tempo, 471661
1, 415200, Note_on_c, 0, 81, 0
1, 415200, Note_on_c, 0, 69, 0
1, 415200, Note_on_c, 0, 70, 89
1, 415200, Note_on_c, 0, 82, 89
1, 415217, Control_c, 0, 64, 0
1, 415280, Control_c, 0, 64, 127
1, 415320, Tempo, 469778
1, 415320, Note_on_c, 0, 74, 79
1, 415320, Note_on_c, 0, 80, 79
1, 415440, Note_on_c, 0, 80, 0
1, 415440, Note_on_c, 0, 74, 0
1, 415440, Note_on_c, 0, 88, 75
1, 415440, Note_on_c, 0, 86, 66
1, 415560, Tempo, 479348
1, 415560, Note_on_c, 0, 86, 0
1, 415560, Note_on_c, 0, 70, 0
1, 415560, Note_on_c, 0, 82, 0
1, 415560, Note_on_c, 0, 88, 0
1, 415560, Note_on_c, 0, 71, 87
1, 415560, Note_on_c, 0, 83, 87
1, 415680, Key_signature, -5, "major"
1, 415680, Tempo, 467909
1, 415680, Note_on_c, 0, 83, 0
1, 415680, Note_on_c, 0, 71, 0
1, 415680, Note_on_c, 0, 72, 94
1, 415680, Note_on_c, 0, 84, 94
1, 415680, Control_c, 0, 64, 0
1, 415777, Control_c, 0, 64, 127
1, 415800, Note_on_c, 0, 78, 86
1, 415800, Note_on_c, 0, 80, 86
1, 415920, Note_on_c, 0, 80, 0
1, 415920, Note_on_c, 0, 78, 0
1, 415920, Note_on_c, 0, 63, 72
1, 415920, Note_on_c, 0, 56, 63
1, 415920, Note_on_c, 0, 49, 63
1, 415960, Tempo, 467909
1, 416040, Tempo, 479348
1, 416040, Note_on_c, 0, 49, 0
1, 416040, Note_on_c, 0, 63, 0
1, 416040, Note_on_c, 0, 72, 0
1, 416040, Note_on_c, 0, 84, 0
1, 416040, Note_on_c, 0, 56, 0
1, 416040, Note_on_c, 0, 73, 93
1, 416040, Note_on_c, 0, 85, 93
1, 416160, Tempo, 467909
1, 416160, Note_on_c, 0, 85, 0
1, 416160, Note_on_c, 0, 73, 0
1, 416160, Note_on_c, 0, 75, 100
1, 416160, Note_on_c, 0, 87, 100
1, 416177, Control_c, 0, 64, 0
1, 416280, Note_on_c, 0, 80, 92
1, 416280, Note_on_c, 0, 84, 92
1, 416286, Control_c, 0, 64, 127
1, 416400, Note_on_c, 0, 84, 0
1, 416400, Note_on_c, 0, 80, 0
1, 416400, Note_on_c, 0, 92, 83
1, 416400, Note_on_c, 0, 90, 83
1, 416520, Tempo, 479348
1, 416520, Note_on_c, 0, 90, 0
1, 416520, Note_on_c, 0, 75, 0
1, 416520, Note_on_c, 0, 87, 0
1, 416520, Note_on_c, 0, 92, 0
1, 416520, Note_on_c, 0, 76, 99
1, 416520, Note_on_c, 0, 88, 99
1, 416600, Tempo, 466056
1, 416640, Tempo, 499750
1, 416640, Note_on_c, 0, 88, 0
1, 416640, Note_on_c, 0, 76, 0
1, 416640, Control_c, 0, 64, 0
1, 416640, Note_on_c, 0, 25, 75
1, 416640, Note_on_c, 0, 37, 102
1, 416746, Control_c, 0, 64, 127
1, 416880, Tempo, 485319
1, 416880, Note_on_c, 0, 37, 0
1, 416880, Note_on_c, 0, 25, 0
1, 416880, Note_on_c, 0, 80, 93
1, 416880, Note_on_c, 0, 85, 106
1, 416880, Note_on_c, 0, 89, 106
1, 416880, Note_on_c, 0, 77, 93
1, 416880, Note_on_c, 0, 49, 74
1, 416880, Note_on_c, 0, 44, 74
1, 416880, Note_on_c, 0, 56, 83
1, 417120, Tempo, 499750
1, 417120, Note_on_c, 0, 56, 0
1, 417120, Note_on_c, 0, 49, 0
1, 417120, Note_on_c, 0, 85, 0
1, 417120, Note_on_c, 0, 89, 0
1, 417120, Note_on_c, 0, 80, 0
1, 417120, Note_on_c, 0, 44, 0
1, 417120, Note_on_c, 0, 77, 0
1, 417120, Note_on_c, 0, 87, 99
1, 417120, Note_on_c, 0, 75, 90
1, 417120, Note_on_c, 0, 49, 55
1, 417120, Note_on_c, 0, 56, 55
1, 417120, Note_on_c, 0, 61, 79
1, 417210, Note_on_c, 0, 75, 0
1, 417210, Note_on_c, 0, 87, 0
1, 417240, Note_on_c, 0, 89, 93
1, 417240, Note_on_c, 0, 77, 83
1, 417330, Note_on_c, 0, 77, 0
1, 417330, Note_on_c, 0, 89, 0
1, 417360, Tempo, 487329
1, 417360, Note_on_c, 0, 61, 0
1, 417360, Note_on_c, 0, 49, 0
1, 417360, Note_on_c, 0, 56, 0
1, 417360, Note_on_c, 0, 85, 93
1, 417360, Note_on_c, 0, 73, 83
1, 417360, Note_on_c, 0, 56, 55
1, 417360, Note_on_c, 0, 61, 62
1, 417360, Note_on_c, 0, 53, 55
1, 417360, Note_on_c, 0, 65, 79
1, 417560, Tempo, 489356
1, 417600, Note_on_c, 0, 65, 0
1, 417600, Note_on_c, 0, 73, 0
1, 417600, Note_on_c, 0, 56, 0
1, 417600, Note_on_c, 0, 85, 0
1, 417600, Note_on_c, 0, 53, 0
1, 417600, Note_on_c, 0, 61, 0
1, 417600, Note_on_c, 0, 37, 61
1, 417600, Note_on_c, 0, 49, 77
1, 417608, Control_c, 0, 64, 0
1, 417640, Tempo, 487329
1, 417675, Control_c, 0, 64, 127
1, 417720, Tempo, 485319
1, 417720, Note_on_c, 0, 49, 0
1, 417720, Note_on_c, 0, 37, 0
1, 417720, Note_on_c, 0, 40, 61
1, 417720, Note_on_c, 0, 52, 70
1, 417760, Tempo, 483325
1, 417840, Tempo, 481309
1, 417840, Note_on_c, 0, 52, 0
1, 417840, Note_on_c, 0, 40, 0
1, 417840, Note_on_c, 0, 82, 78
1, 417840, Note_on_c, 0, 88, 78
1, 417840, Note_on_c, 0, 94, 94
1, 417840, Note_on_c, 0, 43, 62
1, 417840, Note_on_c, 0, 55, 71
1, 417920, Tempo, 479348
1, 417960, Tempo, 477403
1, 417960, Note_on_c, 0, 55, 0
1, 417960, Note_on_c, 0, 43, 0
1, 417960, Note_on_c, 0, 46, 63
1, 417960, Note_on_c, 0, 58, 72
1, 418040, Tempo, 475473
1, 418080, Tempo, 473560
1, 418080, Note_on_c, 0, 58, 0
1, 418080, Note_on_c, 0, 46, 0
1, 418080, Note_on_c, 0, 49, 63
1, 418080, Note_on_c, 0, 61, 72
1, 418180, Tempo, 473560
1, 418200, Note_on_c, 0, 61, 0
1, 418200, Note_on_c, 0, 49, 0
1, 418200, Note_on_c, 0, 52, 66
1, 418200, Note_on_c, 0, 64, 74
1, 418280, Tempo, 471661
1, 418320, Tempo, 501882
1, 418320, Note_on_c, 0, 64, 0
1, 418320, Note_on_c, 0, 82, 0
1, 418320, Note_on_c, 0, 94, 0
1, 418320, Note_on_c, 0, 88, 0
1, 418320, Note_on_c, 0, 52, 0
1, 418320, Note_on_c, 0, 84, 71
1, 418320, Note_on_c, 0, 88, 71
1, 418320, Note_on_c, 0, 96, 82
1, 418320, Note_on_c, 0, 55, 66
1, 418320, Note_on_c, 0, 67, 74
1, 418560, Tempo, 483325
1, 418560, Note_on_c, 0, 67, 0
1, 418560, Note_on_c, 0, 96, 0
1, 418560, Note_on_c, 0, 84, 0
1, 418560, Note_on_c, 0, 88, 0
1, 418560, Note_on_c, 0, 55, 0
1, 418560, Note_on_c, 0, 85, 73
1, 418560, Note_on_c, 0, 89, 84
1, 418560, Note_on_c, 0, 80, 73
1, 418560, Note_on_c, 0, 92, 84
1, 418560, Note_on_c, 0, 25, 77
1, 418560, Note_on_c, 0, 37, 93
1, 418568, Control_c, 0, 64, 0
1, 418580, Tempo, 493462
1, 418640, Tempo, 491400
1, 418663, Control_c, 0, 64, 127
1, 418680, Note_on_c, 0, 92, 0
1, 418680, Note_on_c, 0, 80, 0
1, 418680, Note_on_c, 0, 85, 0
1, 418680, Note_on_c, 0, 89, 0
1, 418680, Note_on_c, 0, 79, 73
1, 418680, Note_on_c, 0, 91, 84
1, 418700, Tempo, 489356
1, 418740, Tempo, 487329
1, 418800, Tempo, 485319
1, 418800, Note_on_c, 0, 91, 0
1, 418800, Note_on_c, 0, 25, 0
1, 418800, Note_on_c, 0, 37, 0
1, 418800, Note_on_c, 0, 79, 0
1, 418800, Note_on_c, 0, 78, 72
1, 418800, Note_on_c, 0, 90, 82
1, 418800, Note_on_c, 0, 61, 73
1, 418800, Note_on_c, 0, 65, 81
1, 418800, Note_on_c, 0, 68, 81
1, 418800, Note_on_c, 0, 56, 73
1, 418840, Tempo, 483325
1, 418900, Tempo, 481309
1, 418920, Note_on_c, 0, 90, 0
1, 418920, Note_on_c, 0, 78, 0
1, 418920, Note_on_c, 0, 77, 72
1, 418920, Note_on_c, 0, 89, 80
1, 418940, Tempo, 479348
1, 419000, Tempo, 477403
1, 419040, Note_on_c, 0, 89, 0
1, 419040, Note_on_c, 0, 77, 0
1, 419040, Note_on_c, 0, 76, 71
1, 419040, Note_on_c, 0, 88, 80
1, 419057, Control_c, 0, 64, 0
1, 419132, Control_c, 0, 64, 127
1, 419160, Note_on_c, 0, 88, 0
1, 419160, Note_on_c, 0, 76, 0
1, 419160, Note_on_c, 0, 77, 71
1, 419160, Note_on_c, 0, 89, 78
1, 419280, Note_on_c, 0, 89, 0
1, 419280, Note_on_c, 0, 56, 0
1, 419280, Note_on_c, 0, 61, 0
1, 419280, Note_on_c, 0, 65, 0
1, 419280, Note_on_c, 0, 77, 0
1, 419280, Note_on_c, 0, 68, 0
1, 419280, Note_on_c, 0, 75, 70
1, 419280, Note_on_c, 0, 87, 77
1, 419280, Note_on_c, 0, 56, 60
1, 419280, Note_on_c, 0, 61, 60
1, 419280, Note_on_c, 0, 53, 60
1, 419280, Note_on_c, 0, 65, 76
1, 419400, Note_on_c, 0, 87, 0
1, 419400, Note_on_c, 0, 75, 0
1, 419400, Note_on_c, 0, 73, 69
1, 419400, Note_on_c, 0, 85, 76
1, 419520, Tempo, 481309
1, 419520, Note_on_c, 0, 85, 0
1, 419520, Note_on_c, 0, 65, 0
1, 419520, Note_on_c, 0, 56, 0
1, 419520, Note_on_c, 0, 61, 0
1, 419520, Note_on_c, 0, 73, 0
1, 419520, Note_on_c, 0, 53, 0
1, 419520, Control_c, 0, 64, 0
1, 419520, Note_on_c, 0, 37, 55
1, 419520, Note_on_c, 0, 49, 72
1, 419623, Control_c, 0, 64, 127
1, 419640, Note_on_c, 0, 49, 0
1, 419640, Note_on_c, 0, 37, 0
1, 419640, Note_on_c, 0, 42, 55
1, 419640, Note_on_c, 0, 54, 63
1, 419760, Tempo, 479348
1, 419760, Note_on_c, 0, 54, 0
1, 419760, Note_on_c, 0, 42, 0
1, 419760, Note_on_c, 0, 77, 81
1, 419760, Note_on_c, 0, 81, 81
1, 419760, Note_on_c, 0, 89, 92
1, 419760, Note_on_c, 0, 45, 56
1, 419760, Note_on_c, 0, 57, 63
1, 419880, Tempo, 477403
1, 419880, Note_on_c, 0, 57, 0
1, 419880, Note_on_c, 0, 45, 0
1, 419880, Note_on_c, 0, 48, 57
1, 419880, Note_on_c, 0, 60, 64
1, 419980, Tempo, 475473
1, 420000, Note_on_c, 0, 60, 0
1, 420000, Note_on_c, 0, 48, 0
1, 420000, Note_on_c, 0, 51, 57
1, 420000, Note_on_c, 0, 63, 65
1, 420100, Tempo, 473560
1, 420120, Note_on_c, 0, 63, 0
1, 420120, Note_on_c, 0, 51, 0
1, 420120, Note_on_c, 0, 54, 60
1, 420120, Note_on_c, 0, 66, 66
1, 420200, Tempo, 471661
1, 420240, Tempo, 499750
1, 420240, Note_on_c, 0, 66, 0
1, 420240, Note_on_c, 0, 77, 0
1, 420240, Note_on_c, 0, 89, 0
1, 420240, Note_on_c, 0, 81, 0
1, 420240, Note_on_c, 0, 54, 0
1, 420240, Note_on_c, 0, 75, 76
1, 420240, Note_on_c, 0, 87, 85
1, 420240, Note_on_c, 0, 57, 61
1, 420240, Note_on_c, 0, 69, 67
1, 420480, Tempo, 483325
1, 420480, Note_on_c, 0, 69, 0
1, 420480, Note_on_c, 0, 75, 0
1, 420480, Note_on_c, 0, 87, 0
1, 420480, Note_on_c, 0, 57, 0
1, 420480, Note_on_c, 0, 78, 72
1, 420480, Note_on_c, 0, 75, 72
1, 420480, Note_on_c, 0, 87, 90
1, 420480, Note_on_c, 0, 25, 87
1, 420480, Note_on_c, 0, 37, 87
1, 420485, Control_c, 0, 64, 0
1, 420500, Tempo, 493462
1, 420560, Tempo, 491400
1, 420560, Control_c, 0, 64, 127
1, 420600, Note_on_c, 0, 87, 0
1, 420600, Note_on_c, 0, 78, 0
1, 420600, Note_on_c, 0, 75, 0
1, 420600, Note_on_c, 0, 74, 76
1, 420600, Note_on_c, 0, 86, 85
1, 420620, Tempo, 489356
1, 420660, Tempo, 487329
1, 420720, Tempo, 485319
1, 420720, Note_on_c, 0, 86, 0
1, 420720, Note_on_c, 0, 37, 0
1, 420720, Note_on_c, 0, 25, 0
1, 420720, Note_on_c, 0, 74, 0
1, 420720, Note_on_c, 0, 73, 74
1, 420720, Note_on_c, 0, 85, 83
1, 420720, Note_on_c, 0, 63, 71
1, 420720, Note_on_c, 0, 66, 79
1, 420720, Note_on_c, 0, 57, 63
1, 420760, Tempo, 483325
1, 420820, Tempo, 481309
1, 420840, Note_on_c, 0, 85, 0
1, 420840, Note_on_c, 0, 73, 0
1, 420840, Note_on_c, 0, 72, 72
1, 420840, Note_on_c, 0, 84, 81
1, 420860, Tempo, 479348
1, 420920, Tempo, 477403
1, 420960, Note_on_c, 0, 84, 0
1, 420960, Note_on_c, 0, 72, 0
1, 420960, Note_on_c, 0, 73, 65
1, 420960, Note_on_c, 0, 85, 74
1, 420963, Control_c, 0, 64, 0
1, 421057, Control_c, 0, 64, 127
1, 421080, Note_on_c, 0, 85, 0
1, 421080, Note_on_c, 0, 73, 0
1, 421080, Note_on_c, 0, 72, 63
1, 421080, Note_on_c, 0, 84, 72
1, 421200, Note_on_c, 0, 84, 0
1, 421200, Note_on_c, 0, 66, 0
1, 421200, Note_on_c, 0, 57, 0
1, 421200, Note_on_c, 0, 63, 0
1, 421200, Note_on_c, 0, 72, 0
1, 421200, Note_on_c, 0, 78, 70
1, 421200, Note_on_c, 0, 70, 62
1, 421200, Note_on_c, 0, 82, 70
1, 421200, Note_on_c, 0, 61, 63
1, 421200, Note_on_c, 0, 58, 63
1, 421200, Note_on_c, 0, 66, 71
1, 421440, Tempo, 489356
1, 421440, Note_on_c, 0, 66, 0
1, 421440, Note_on_c, 0, 70, 0
1, 421440, Note_on_c, 0, 82, 0
1, 421440, Note_on_c, 0, 78, 0
1, 421440, Note_on_c, 0, 58, 0
1, 421440, Note_on_c, 0, 61, 0
1, 421440, Note_on_c, 0, 37, 61
1, 421440, Note_on_c, 0, 49, 77
1, 421448, Control_c, 0, 64, 0
1, 421520, Tempo, 487329
1, 421555, Control_c, 0, 64, 127
1, 421560, Tempo, 485319
1, 421560, Note_on_c, 0, 49, 0
1, 421560, Note_on_c, 0, 37, 0
1, 421560, Note_on_c, 0, 40, 61
1, 421560, Note_on_c, 0, 52, 70
1, 421640, Tempo, 483325
1, 421680, Tempo, 481309
1, 421680, Note_on_c, 0, 52, 0
1, 421680, Note_on_c, 0, 40, 0
1, 421680, Note_on_c, 0, 82, 83
1, 421680, Note_on_c, 0, 88, 83
1, 421680, Note_on_c, 0, 94, 93
1, 421680, Note_on_c, 0, 43, 62
1, 421680, Note_on_c, 0, 55, 71
1, 421760, Tempo, 479348
1, 421800, Tempo, 477403
1, 421800, Note_on_c, 0, 55, 0
1, 421800, Note_on_c, 0, 43, 0
1, 421800, Note_on_c, 0, 46, 63
1, 421800, Note_on_c, 0, 58, 72
1, 421840, Tempo, 475473
1, 421900, Tempo, 475473
1, 421920, Note_on_c, 0, 58, 0
1, 421920, Note_on_c, 0, 46, 0
1, 421920, Note_on_c, 0, 49, 63
1, 421920, Note_on_c, 0, 61, 72
1, 422020, Tempo, 473560
1, 422040, Note_on_c, 0, 61, 0
1, 422040, Note_on_c, 0, 49, 0
1, 422040, Note_on_c, 0, 52, 66
1, 422040, Note_on_c, 0, 64, 74
1, 422120, Tempo, 471661
1, 422160, Tempo, 496483
1, 422160, Note_on_c, 0, 64, 0
1, 422160, Note_on_c, 0, 82, 0
1, 422160, Note_on_c, 0, 94, 0
1, 422160, Note_on_c, 0, 88, 0
1, 422160, Note_on_c, 0, 52, 0
1, 422160, Note_on_c, 0, 84, 75
1, 422160, Note_on_c, 0, 88, 75
1, 422160, Note_on_c, 0, 96, 83
1, 422160, Note_on_c, 0, 55, 66
1, 422160, Note_on_c, 0, 67, 74
1, 422400, Tempo, 483325
1, 422400, Note_on_c, 0, 67, 0
1, 422400, Note_on_c, 0, 96, 0
1, 422400, Note_on_c, 0, 84, 0
1, 422400, Note_on_c, 0, 88, 0
1, 422400, Note_on_c, 0, 55, 0
1, 422400, Note_on_c, 0, 85, 74
1, 422400, Note_on_c, 0, 89, 82
1, 422400, Note_on_c, 0, 80, 74
1, 422400, Note_on_c, 0, 92, 82
1, 422400, Note_on_c, 0, 56, 74
1, 422400, Note_on_c, 0, 61, 74
1, 422400, Note_on_c, 0, 65, 74
1, 422400, Note_on_c, 0, 68, 89
1, 422408, Control_c, 0, 64, 0
1, 422420, Tempo, 493462
1, 422480, Tempo, 491400
1, 422515, Control_c, 0, 64, 127
1, 422520, Note_on_c, 0, 92, 0
1, 422520, Note_on_c, 0, 80, 0
1, 422520, Note_on_c, 0, 85, 0
1, 422520, Note_on_c, 0, 89, 0
1, 422520, Note_on_c, 0, 79, 74
1, 422520, Note_on_c, 0, 91, 82
1, 422540, Tempo, 489356
1, 422580, Tempo, 487329
1, 422640, Tempo, 485319
1, 422640, Note_on_c, 0, 91, 0
1, 422640, Note_on_c, 0, 61, 0
1, 422640, Note_on_c, 0, 65, 0
1, 422640, Note_on_c, 0, 68, 0
1, 422640, Note_on_c, 0, 79, 0
1, 422640, Note_on_c, 0, 56, 0
1, 422640, Note_on_c, 0, 78, 73
1, 422640, Note_on_c, 0, 90, 82
1, 422640, Note_on_c, 0, 44, 86
1, 422640, Note_on_c, 0, 32, 77
1, 422680, Tempo, 483325
1, 422740, Tempo, 481309
1, 422760, Note_on_c, 0, 90, 0
1, 422760, Note_on_c, 0, 78, 0
1, 422760, Note_on_c, 0, 77, 73
1, 422760, Note_on_c, 0, 89, 81
1, 422780, Tempo, 479348
1, 422840, Tempo, 477403
1, 422880, Note_on_c, 0, 89, 0
1, 422880, Note_on_c, 0, 32, 0
1, 422880, Note_on_c, 0, 44, 0
1, 422880, Note_on_c, 0, 77, 0
1, 422880, Note_on_c, 0, 76, 72
1, 422880, Note_on_c, 0, 88, 81
1, 422880, Note_on_c, 0, 64, 66
1, 422895, Control_c, 0, 64, 0
1, 422989, Control_c, 0, 64, 127
1, 423000, Note_on_c, 0, 64, 0
1, 423000, Note_on_c, 0, 88, 0
1, 423000, Note_on_c, 0, 76, 0
1, 423000, Note_on_c, 0, 77, 72
1, 423000, Note_on_c, 0, 89, 80
1, 423000, Note_on_c, 0, 65, 61
1, 423120, Note_on_c, 0, 65, 0
1, 423120, Note_on_c, 0, 89, 0
1, 423120, Note_on_c, 0, 77, 0
1, 423120, Note_on_c, 0, 75, 71
1, 423120, Note_on_c, 0, 87, 79
1, 423120, Note_on_c, 0, 63, 66
1, 423240, Tempo, 491400
1, 423240, Note_on_c, 0, 63, 0
1, 423240, Note_on_c, 0, 87, 0
1, 423240, Note_on_c, 0, 75, 0
1, 423240, Note_on_c, 0, 73, 69
1, 423240, Note_on_c, 0, 85, 77
1, 423240, Note_on_c, 0, 61, 62
1, 423360, Tempo, 477403
1, 423360, Note_on_c, 0, 61, 0
1, 423360, Note_on_c, 0, 85, 0
1, 423360, Note_on_c, 0, 73, 0
1, 423360, Note_on_c, 0, 67, 70
1, 423360, Note_on_c, 0, 79, 79
1, 423360, Control_c, 0, 64, 0
1, 423360, Note_on_c, 0, 55, 67
1, 423480, Note_on_c, 0, 55, 0
1, 423480, Note_on_c, 0, 79, 0
1, 423480, Note_on_c, 0, 67, 0
1, 423480, Note_on_c, 0, 68, 63
1, 423480, Note_on_c, 0, 80, 71
1, 423480, Note_on_c, 0, 56, 61
1, 423600, Note_on_c, 0, 56, 0
1, 423600, Note_on_c, 0, 80, 0
1, 423600, Note_on_c, 0, 68, 0
1, 423600, Note_on_c, 0, 66, 70
1, 423600, Note_on_c, 0, 78, 79
1, 423600, Note_on_c, 0, 54, 65
1, 423720, Note_on_c, 0, 54, 0
1, 423720, Note_on_c, 0, 78, 0
1, 423720, Note_on_c, 0, 66, 0
1, 423720, Note_on_c, 0, 65, 63
1, 423720, Note_on_c, 0, 77, 71
1, 423720, Note_on_c, 0, 53, 60
1, 423840, Note_on_c, 0, 53, 0
1, 423840, Note_on_c, 0, 77, 0
1, 423840, Note_on_c, 0, 65, 0
1, 423840, Note_on_c, 0, 64, 70
1, 423840, Note_on_c, 0, 76, 79
1, 423840, Note_on_c, 0, 52, 66
1, 423960, Note_on_c, 0, 52, 0
1, 423960, Note_on_c, 0, 76, 0
1, 423960, Note_on_c, 0, 64, 0
1, 423960, Note_on_c, 0, 65, 64
1, 423960, Note_on_c, 0, 77, 72
1, 423960, Note_on_c, 0, 53, 62
1, 424080, Note_on_c, 0, 53, 0
1, 424080, Note_on_c, 0, 77, 0
1, 424080, Note_on_c, 0, 65, 0
1, 424080, Note_on_c, 0, 63, 70
1, 424080, Note_on_c, 0, 75, 79
1, 424080, Note_on_c, 0, 51, 64
1, 424200, Tempo, 493462
1, 424200, Note_on_c, 0, 51, 0
1, 424200, Note_on_c, 0, 75, 0
1, 424200, Note_on_c, 0, 63, 0
1, 424200, Note_on_c, 0, 61, 63
1, 424200, Note_on_c, 0, 73, 71
1, 424200, Note_on_c, 0, 49, 62
1, 424320, Tempo, 477403
1, 424320, Note_on_c, 0, 49, 0
1, 424320, Note_on_c, 0, 73, 0
1, 424320, Note_on_c, 0, 61, 0
1, 424320, Note_on_c, 0, 67, 73
1, 424320, Note_on_c, 0, 43, 54
1, 424320, Note_on_c, 0, 55, 62
1, 424440, Note_on_c, 0, 55, 0
1, 424440, Note_on_c, 0, 43, 0
1, 424440, Note_on_c, 0, 67, 0
1, 424440, Note_on_c, 0, 68, 63
1, 424440, Note_on_c, 0, 44, 45
1, 424440, Note_on_c, 0, 56, 51
1, 424560, Note_on_c, 0, 56, 0
1, 424560, Note_on_c, 0, 44, 0
1, 424560, Note_on_c, 0, 68, 0
1, 424560, Note_on_c, 0, 66, 71
1, 424560, Note_on_c, 0, 42, 49
1, 424560, Note_on_c, 0, 54, 54
1, 424680, Note_on_c, 0, 54, 0
1, 424680, Note_on_c, 0, 42, 0
1, 424680, Note_on_c, 0, 66, 0
1, 424680, Note_on_c, 0, 65, 64
1, 424680, Note_on_c, 0, 41, 44
1, 424680, Note_on_c, 0, 53, 50
1, 424800, Note_on_c, 0, 53, 0
1, 424800, Note_on_c, 0, 41, 0
1, 424800, Note_on_c, 0, 65, 0
1, 424800, Note_on_c, 0, 64, 71
1, 424800, Note_on_c, 0, 40, 47
1, 424800, Note_on_c, 0, 52, 53
1, 424920, Note_on_c, 0, 52, 0
1, 424920, Note_on_c, 0, 40, 0
1, 424920, Note_on_c, 0, 64, 0
1, 424920, Note_on_c, 0, 65, 60
1, 424920, Note_on_c, 0, 41, 39
1, 424920, Note_on_c, 0, 53, 44
1, 425040, Note_on_c, 0, 53, 0
1, 425040, Note_on_c, 0, 41, 0
1, 425040, Note_on_c, 0, 65, 0
1, 425040, Note_on_c, 0, 63, 65
1, 425040, Note_on_c, 0, 39, 45
1, 425040, Note_on_c, 0, 51, 51
1, 425160, Tempo, 497636
1, 425160, Note_on_c, 0, 51, 0
1, 425160, Note_on_c, 0, 39, 0
1, 425160, Note_on_c, 0, 63, 0
1, 425160, Note_on_c, 0, 61, 60
1, 425160, Note_on_c, 0, 37, 39
1, 425160, Note_on_c, 0, 49, 44
1, 425280, Tempo, 479348
1, 425280, Note_on_c, 0, 49, 0
1, 425280, Note_on_c, 0, 37, 0
1, 425280, Note_on_c, 0, 61, 0
1, 425280, Note_on_c, 0, 37, 45
1, 425280, Note_on_c, 0, 46, 45
1, 425400, Tempo, 477403
1, 425400, Note_on_c, 0, 46, 0
1, 425400, Note_on_c, 0, 47, 47
1, 425520, Tempo, 475473
1, 425520, Note_on_c, 0, 47, 0
1, 425520, Note_on_c, 0, 37, 0
1, 425520, Note_on_c, 0, 54, 51
1, 425520, Note_on_c, 0, 58, 51
1, 425520, Note_on_c, 0, 65, 62
1, 425520, Note_on_c, 0, 48, 51
1, 425572, Control_c, 0, 64, 127
1, 425640, Tempo, 473560
1, 425640, Note_on_c, 0, 48, 0
1, 425640, Note_on_c, 0, 49, 53
1, 425750, Note_on_c, 0, 49, 0
1, 425760, Tempo, 471661
1, 425760, Note_on_c, 0, 49, 54
1, 425880, Note_on_c, 0, 49, 0
1, 425880, Note_on_c, 0, 48, 53
1, 425960, Tempo, 473560
1, 426000, Note_on_c, 0, 48, 0
1, 426000, Note_on_c, 0, 65, 0
1, 426000, Note_on_c, 0, 63, 52
1, 426000, Note_on_c, 0, 47, 52
1, 426120, Tempo, 475473
1, 426120, Note_on_c, 0, 47, 0
1, 426120, Note_on_c, 0, 46, 50
1, 426240, Note_on_c, 0, 46, 0
1, 426240, Note_on_c, 0, 63, 0
1, 426240, Note_on_c, 0, 58, 0
1, 426240, Note_on_c, 0, 54, 0
1, 426240, Note_on_c, 0, 54, 52
1, 426240, Note_on_c, 0, 63, 52
1, 426240, Control_c, 0, 64, 0
1, 426240, Note_on_c, 0, 37, 47
1, 426240, Note_on_c, 0, 45, 47
1, 426280, Tempo, 477403
1, 426332, Control_c, 0, 64, 127
1, 426360, Note_on_c, 0, 45, 0
1, 426360, Note_on_c, 0, 63, 0
1, 426360, Note_on_c, 0, 62, 51
1, 426360, Note_on_c, 0, 46, 46
1, 426480, Note_on_c, 0, 46, 0
1, 426480, Note_on_c, 0, 54, 0
1, 426480, Note_on_c, 0, 37, 0
1, 426480, Note_on_c, 0, 62, 0
1, 426480, Note_on_c, 0, 61, 51
1, 426480, Note_on_c, 0, 47, 46
1, 426600, Note_on_c, 0, 47, 0
1, 426600, Note_on_c, 0, 61, 0
1, 426600, Note_on_c, 0, 60, 50
1, 426600, Note_on_c, 0, 48, 45
1, 426720, Note_on_c, 0, 48, 0
1, 426720, Note_on_c, 0, 60, 0
1, 426720, Note_on_c, 0, 54, 53
1, 426720, Note_on_c, 0, 61, 53
1, 426720, Note_on_c, 0, 37, 47
1, 426720, Note_on_c, 0, 46, 47
1, 426726, Control_c, 0, 64, 0
1, 426829, Control_c, 0, 64, 127
1, 426840, Note_on_c, 0, 46, 0
1, 426840, Note_on_c, 0, 61, 0
1, 426840, Note_on_c, 0, 60, 52
1, 426840, Note_on_c, 0, 47, 47
1, 426960, Note_on_c, 0, 47, 0
1, 426960, Note_on_c, 0, 54, 0
1, 426960, Note_on_c, 0, 37, 0
1, 426960, Note_on_c, 0, 60, 0
1, 426960, Note_on_c, 0, 59, 51
1, 426960, Note_on_c, 0, 48, 46
1, 427080, Note_on_c, 0, 48, 0
1, 427080, Note_on_c, 0, 59, 0
1, 427080, Note_on_c, 0, 58, 50
1, 427080, Note_on_c, 0, 49, 46
1, 427200, Tempo, 479348
1, 427200, Note_on_c, 0, 49, 0
1, 427200, Note_on_c, 0, 58, 0
1, 427200, Note_on_c, 0, 37, 45
1, 427200, Note_on_c, 0, 46, 45
1, 427203, Control_c, 0, 64, 0
1, 427320, Tempo, 477403
1, 427320, Note_on_c, 0, 46, 0
1, 427320, Note_on_c, 0, 47, 47
1, 427440, Tempo, 475473
1, 427440, Note_on_c, 0, 47, 0
1, 427440, Note_on_c, 0, 37, 0
1, 427440, Note_on_c, 0, 54, 51
1, 427440, Note_on_c, 0, 58, 51
1, 427440, Note_on_c, 0, 65, 60
1, 427440, Note_on_c, 0, 48, 51
1, 427446, Control_c, 0, 64, 127
1, 427560, Tempo, 473560
1, 427560, Note_on_c, 0, 48, 0
1, 427560, Note_on_c, 0, 49, 53
1, 427670, Note_on_c, 0, 49, 0
1, 427680, Tempo, 471661
1, 427680, Note_on_c, 0, 49, 54
1, 427800, Note_on_c, 0, 49, 0
1, 427800, Note_on_c, 0, 48, 53
1, 427880, Tempo, 473560
1, 427920, Note_on_c, 0, 48, 0
1, 427920, Note_on_c, 0, 65, 0
1, 427920, Note_on_c, 0, 63, 52
1, 427920, Note_on_c, 0, 47, 52
1, 428040, Tempo, 475473
1, 428040, Note_on_c, 0, 47, 0
1, 428040, Note_on_c, 0, 46, 50
1, 428160, Note_on_c, 0, 46, 0
1, 428160, Note_on_c, 0, 63, 0
1, 428160, Note_on_c, 0, 58, 0
1, 428160, Note_on_c, 0, 54, 0
1, 428160, Note_on_c, 0, 53, 52
1, 428160, Note_on_c, 0, 63, 52
1, 428160, Control_c, 0, 64, 0
1, 428160, Note_on_c, 0, 37, 47
1, 428160, Note_on_c, 0, 45, 47
1, 428194, Control_c, 0, 64, 127
1, 428200, Tempo, 477403
1, 428280, Note_on_c, 0, 45, 0
1, 428280, Note_on_c, 0, 63, 0
1, 428280, Note_on_c, 0, 62, 51
1, 428280, Note_on_c, 0, 46, 46
1, 428400, Note_on_c, 0, 46, 0
1, 428400, Note_on_c, 0, 53, 0
1, 428400, Note_on_c, 0, 37, 0
1, 428400, Note_on_c, 0, 62, 0
1, 428400, Note_on_c, 0, 61, 51
1, 428400, Note_on_c, 0, 47, 46
1, 428520, Note_on_c, 0, 47, 0
1, 428520, Note_on_c, 0, 61, 0
1, 428520, Note_on_c, 0, 60, 50
1, 428520, Note_on_c, 0, 48, 45
1, 428640, Note_on_c, 0, 48, 0
1, 428640, Note_on_c, 0, 60, 0
1, 428640, Note_on_c, 0, 52, 53
1, 428640, Note_on_c, 0, 61, 53
1, 428640, Note_on_c, 0, 37, 47
1, 428640, Note_on_c, 0, 45, 47
1, 428648, Control_c, 0, 64, 0
1, 428727, Control_c, 0, 64, 127
1, 428760, Note_on_c, 0, 45, 0
1, 428760, Note_on_c, 0, 61, 0
1, 428760, Note_on_c, 0, 59, 52
1, 428760, Note_on_c, 0, 47, 47
1, 428880, Note_on_c, 0, 47, 0
1, 428880, Note_on_c, 0, 52, 0
1, 428880, Note_on_c, 0, 37, 0
1, 428880, Note_on_c, 0, 59, 0
1, 428880, Note_on_c, 0, 58, 51
1, 428880, Note_on_c, 0, 48, 46
1, 429000, Note_on_c, 0, 48, 0
1, 429000, Note_on_c, 0, 58, 0
1, 429000, Note_on_c, 0, 57, 50
1, 429000, Note_on_c, 0, 49, 46
1, 429120, Tempo, 479348
1, 429120, Note_on_c, 0, 49, 0
1, 429120, Note_on_c, 0, 57, 0
1, 429120, Note_on_c, 0, 37, 47
1, 429120, Note_on_c, 0, 45, 47
1, 429124, Control_c, 0, 64, 0
1, 429240, Tempo, 477403
1, 429240, Note_on_c, 0, 45, 0
1, 429240, Note_on_c, 0, 46, 50
1, 429360, Tempo, 475473
1, 429360, Note_on_c, 0, 46, 0
1, 429360, Note_on_c, 0, 37, 0
1, 429360, Note_on_c, 0, 56, 53
1, 429360, Note_on_c, 0, 61, 53
1, 429360, Note_on_c, 0, 68, 67
1, 429360, Note_on_c, 0, 47, 53
1, 429366, Control_c, 0, 64, 127
1, 429480, Tempo, 473560
1, 429480, Note_on_c, 0, 47, 0
1, 429480, Note_on_c, 0, 48, 55
1, 429600, Tempo, 471661
1, 429600, Note_on_c, 0, 48, 0
1, 429600, Note_on_c, 0, 49, 57
1, 429720, Note_on_c, 0, 49, 0
1, 429720, Note_on_c, 0, 48, 55
1, 429800, Tempo, 473560
1, 429840, Note_on_c, 0, 48, 0
1, 429840, Note_on_c, 0, 68, 0
1, 429840, Note_on_c, 0, 56, 0
1, 429840, Note_on_c, 0, 54, 49
1, 429840, Note_on_c, 0, 66, 55
1, 429840, Note_on_c, 0, 47, 53
1, 429960, Tempo, 475473
1, 429960, Note_on_c, 0, 47, 0
1, 429960, Note_on_c, 0, 46, 52
1, 430080, Tempo, 587199
1, 430080, Note_on_c, 0, 46, 0
1, 430080, Note_on_c, 0, 66, 0
1, 430080, Note_on_c, 0, 54, 0
1, 430080, Note_on_c, 0, 61, 0
1, 430080, Note_on_c, 0, 66, 61
1, 430080, Note_on_c, 0, 62, 61
1, 430080, Note_on_c, 0, 45, 50
1, 430086, Control_c, 0, 64, 0
1, 430088, Tempo, 477403
1, 430114, Control_c, 0, 64, 127
1, 430120, Tempo, 477403
1, 430200, Note_on_c, 0, 45, 0
1, 430200, Note_on_c, 0, 62, 0
1, 430200, Note_on_c, 0, 63, 54
1, 430200, Note_on_c, 0, 54, 45
1, 430320, Note_on_c, 0, 54, 0
1, 430320, Note_on_c, 0, 63, 0
1, 430320, Note_on_c, 0, 66, 0
1, 430320, Note_on_c, 0, 61, 54
1, 430320, Note_on_c, 0, 45, 49
1, 430388, Tempo, 477403
1, 430420, Tempo, 479348
1, 430440, Tempo, 481309
1, 430440, Note_on_c, 0, 45, 0
1, 430440, Note_on_c, 0, 61, 0
1, 430440, Note_on_c, 0, 60, 53
1, 430440, Note_on_c, 0, 37, 46
1, 430468, Tempo, 483325
1, 430560, Tempo, 469778
1, 430560, Note_on_c, 0, 37, 0
1, 430560, Note_on_c, 0, 60, 0
1, 430560, Note_on_c, 0, 69, 64
1, 430560, Note_on_c, 0, 65, 64
1, 430560, Note_on_c, 0, 45, 53
1, 430570, Control_c, 0, 64, 0
1, 430642, Control_c, 0, 64, 127
1, 430680, Note_on_c, 0, 45, 0
1, 430680, Note_on_c, 0, 65, 0
1, 430680, Note_on_c, 0, 66, 60
1, 430680, Note_on_c, 0, 51, 50
1, 430800, Note_on_c, 0, 51, 0
1, 430800, Note_on_c, 0, 66, 0
1, 430800, Note_on_c, 0, 69, 0
1, 430800, Note_on_c, 0, 64, 61
1, 430800, Note_on_c, 0, 45, 53
1, 430920, Tempo, 481309
1, 430920, Note_on_c, 0, 45, 0
1, 430920, Note_on_c, 0, 64, 0
1, 430920, Note_on_c, 0, 63, 59
1, 430920, Note_on_c, 0, 37, 50
1, 431040, Tempo, 460547
1, 431040, Note_on_c, 0, 37, 0
1, 431040, Note_on_c, 0, 63, 0
1, 431040, Note_on_c, 0, 72, 70
1, 431040, Note_on_c, 0, 69, 70
1, 431040, Note_on_c, 0, 44, 57
1, 431047, Control_c, 0, 64, 0
1, 431120, Control_c, 0, 64, 127
1, 431160, Note_on_c, 0, 44, 0
1, 431160, Note_on_c, 0, 69, 0
1, 431160, Note_on_c, 0, 70, 63
1, 431160, Note_on_c, 0, 54, 53
1, 431280, Note_on_c, 0, 54, 0
1, 431280, Note_on_c, 0, 70, 0
1, 431280, Note_on_c, 0, 72, 0
1, 431280, Note_on_c, 0, 68, 64
1, 431280, Note_on_c, 0, 44, 57
1, 431400, Tempo, 473560
1, 431400, Note_on_c, 0, 44, 0
1, 431400, Note_on_c, 0, 68, 0
1, 431400, Note_on_c, 0, 66, 63
1, 431400, Note_on_c, 0, 37, 55
1, 431520, Tempo, 451705
1, 431520, Note_on_c, 0, 37, 0
1, 431520, Note_on_c, 0, 66, 0
1, 431520, Note_on_c, 0, 75, 75
1, 431520, Note_on_c, 0, 71, 75
1, 431520, Note_on_c, 0, 44, 63
1, 431532, Control_c, 0, 64, 0
1, 431589, Control_c, 0, 64, 127
1, 431640, Note_on_c, 0, 44, 0
1, 431640, Note_on_c, 0, 71, 0
1, 431640, Note_on_c, 0, 72, 69
1, 431640, Note_on_c, 0, 51, 57
1, 431760, Note_on_c, 0, 51, 0
1, 431760, Note_on_c, 0, 72, 0
1, 431760, Note_on_c, 0, 75, 0
1, 431760, Note_on_c, 0, 70, 70
1, 431760, Note_on_c, 0, 44, 62
1, 431880, Tempo, 466056
1, 431880, Note_on_c, 0, 44, 0
1, 431880, Note_on_c, 0, 70, 0
1, 431880, Note_on_c, 0, 68, 69
1, 431880, Note_on_c, 0, 37, 59
1, 432000, Tempo, 443197
1, 432000, Note_on_c, 0, 37, 0
1, 432000, Note_on_c, 0, 68, 0
1, 432000, Note_on_c, 0, 78, 81
1, 432000, Note_on_c, 0, 74, 81
1, 432000, Note_on_c, 0, 44, 67
1, 432008, Control_c, 0, 64, 0
1, 432069, Control_c, 0, 64, 127
1, 432120, Note_on_c, 0, 44, 0
1, 432120, Note_on_c, 0, 74, 0
1, 432120, Note_on_c, 0, 75, 75
1, 432120, Note_on_c, 0, 54, 63
1, 432240, Note_on_c, 0, 54, 0
1, 432240, Note_on_c, 0, 75, 0
1, 432240, Note_on_c, 0, 78, 0
1, 432240, Note_on_c, 0, 73, 75
1, 432240, Note_on_c, 0, 44, 67
1, 432360, Tempo, 458751
1, 432360, Note_on_c, 0, 44, 0
1, 432360, Note_on_c, 0, 73, 0
1, 432360, Note_on_c, 0, 72, 73
1, 432360, Note_on_c, 0, 37, 63
1, 432480, Tempo, 436586
1, 432480, Note_on_c, 0, 37, 0
1, 432480, Note_on_c, 0, 72, 0
1, 432480, Note_on_c, 0, 84, 85
1, 432480, Note_on_c, 0, 81, 85
1, 432480, Note_on_c, 0, 44, 71
1, 432501, Control_c, 0, 64, 0
1, 432595, Control_c, 0, 64, 127
1, 432600, Note_on_c, 0, 44, 0
1, 432600, Note_on_c, 0, 81, 0
1, 432600, Note_on_c, 0, 82, 80
1, 432600, Note_on_c, 0, 51, 66
1, 432720, Note_on_c, 0, 51, 0
1, 432720, Note_on_c, 0, 82, 0
1, 432720, Note_on_c, 0, 84, 0
1, 432720, Note_on_c, 0, 80, 81
1, 432720, Note_on_c, 0, 44, 72
1, 432840, Tempo, 446561
1, 432840, Note_on_c, 0, 44, 0
1, 432840, Note_on_c, 0, 80, 0
1, 432840, Note_on_c, 0, 78, 79
1, 432840, Note_on_c, 0, 37, 67
1, 432960, Tempo, 471661
1, 432960, Note_on_c, 0, 78, 0
1, 432960, Note_on_c, 0, 89, 96
1, 432960, Note_on_c, 0, 85, 96
1, 432960, Note_on_c, 0, 77, 96
1, 432960, Note_on_c, 0, 44, 80
1, 432960, Note_on_c, 0, 49, 80
1, 432977, Control_c, 0, 64, 0
1, 433177, Control_c, 0, 64, 127
1, 433200, Tempo, 458751
1, 433200, Note_on_c, 0, 49, 0
1, 433200, Note_on_c, 0, 89, 0
1, 433200, Note_on_c, 0, 85, 0
1, 433200, Note_on_c, 0, 77, 0
1, 433200, Note_on_c, 0, 44, 0
1, 433200, Note_on_c, 0, 101, 96
1, 433200, Note_on_c, 0, 97, 81
1, 433200, Note_on_c, 0, 92, 81
1, 433320, Note_on_c, 0, 92, 0
1, 433320, Note_on_c, 0, 97, 0
1, 433320, Note_on_c, 0, 101, 0
1, 433320, Note_on_c, 0, 88, 70
1, 433320, Note_on_c, 0, 91, 82
1, 433360, Tempo, 456969
1, 433440, Note_on_c, 0, 91, 0
1, 433440, Note_on_c, 0, 88, 0
1, 433440, Note_on_c, 0, 37, 0
1, 433440, Note_on_c, 0, 97, 90
1, 433440, Note_on_c, 0, 92, 76
1, 433440, Note_on_c, 0, 89, 76
1, 433520, Tempo, 455201
1, 433560, Note_on_c, 0, 89, 0
1, 433560, Note_on_c, 0, 92, 0
1, 433560, Note_on_c, 0, 97, 0
1, 433560, Note_on_c, 0, 84, 66
1, 433560, Note_on_c, 0, 88, 80
1, 433660, Tempo, 453446
1, 433680, Note_on_c, 0, 88, 0
1, 433680, Note_on_c, 0, 84, 0
1, 433680, Note_on_c, 0, 85, 72
1, 433680, Note_on_c, 0, 89, 72
1, 433680, Note_on_c, 0, 92, 86
1, 433800, Note_on_c, 0, 92, 0
1, 433800, Note_on_c, 0, 89, 0
1, 433800, Note_on_c, 0, 85, 0
1, 433800, Note_on_c, 0, 79, 63
1, 433800, Note_on_c, 0, 82, 76
1, 433820, Tempo, 451705
1, 433880, Tempo, 449978
1, 433920, Note_on_c, 0, 82, 0
1, 433920, Note_on_c, 0, 79, 0
1, 433920, Note_on_c, 0, 89, 89
1, 433920, Note_on_c, 0, 85, 74
1, 433920, Note_on_c, 0, 80, 74
1, 433966, Control_c, 0, 64, 0
1, 434006, Control_c, 0, 64, 127
1, 434040, Note_on_c, 0, 80, 0
1, 434040, Note_on_c, 0, 85, 0
1, 434040, Note_on_c, 0, 89, 0
1, 434040, Note_on_c, 0, 76, 64
1, 434040, Note_on_c, 0, 79, 77
1, 434160, Note_on_c, 0, 79, 0
1, 434160, Note_on_c, 0, 76, 0
1, 434160, Note_on_c, 0, 85, 87
1, 434160, Note_on_c, 0, 80, 73
1, 434160, Note_on_c, 0, 77, 73
1, 434280, Note_on_c, 0, 77, 0
1, 434280, Note_on_c, 0, 80, 0
1, 434280, Note_on_c, 0, 85, 0
1, 434280, Note_on_c, 0, 72, 62
1, 434280, Note_on_c, 0, 76, 73
1, 434400, Note_on_c, 0, 76, 0
1, 434400, Note_on_c, 0, 72, 0
1, 434400, Note_on_c, 0, 73, 72
1, 434400, Note_on_c, 0, 77, 72
1, 434400, Note_on_c, 0, 80, 86
1, 434520, Note_on_c, 0, 80, 0
1, 434520, Note_on_c, 0, 77, 0
1, 434520, Note_on_c, 0, 73, 0
1, 434520, Note_on_c, 0, 67, 62
1, 434520, Note_on_c, 0, 70, 74
1, 434640, Note_on_c, 0, 70, 0
1, 434640, Note_on_c, 0, 67, 0
1, 434640, Note_on_c, 0, 68, 71
1, 434640, Note_on_c, 0, 73, 71
1, 434640, Note_on_c, 0, 77, 84
1, 434700, Tempo, 458751
1, 434760, Note_on_c, 0, 77, 0
1, 434760, Note_on_c, 0, 73, 0
1, 434760, Note_on_c, 0, 68, 0
1, 434760, Note_on_c, 0, 64, 60
1, 434760, Note_on_c, 0, 67, 71
1, 434820, Tempo, 453446
1, 434840, Tempo, 462392
1, 434880, Note_on_c, 0, 67, 0
1, 434880, Note_on_c, 0, 64, 0
1, 434880, Note_on_c, 0, 65, 71
1, 434880, Note_on_c, 0, 68, 71
1, 434880, Note_on_c, 0, 73, 84
1, 434960, Tempo, 460547
1, 435000, Note_on_c, 0, 73, 0
1, 435000, Note_on_c, 0, 68, 0
1, 435000, Note_on_c, 0, 65, 0
1, 435000, Note_on_c, 0, 49, 63
1, 435000, Note_on_c, 0, 61, 76
1, 435080, Tempo, 458751
1, 435120, Note_on_c, 0, 61, 0
1, 435120, Note_on_c, 0, 49, 0
1, 435120, Note_on_c, 0, 77, 85
1, 435120, Note_on_c, 0, 73, 72
1, 435120, Note_on_c, 0, 68, 72
1, 435137, Control_c, 0, 64, 0
1, 435200, Tempo, 456969
1, 435217, Control_c, 0, 64, 127
1, 435240, Note_on_c, 0, 68, 0
1, 435240, Note_on_c, 0, 73, 0
1, 435240, Note_on_c, 0, 77, 0
1, 435240, Note_on_c, 0, 64, 62
1, 435240, Note_on_c, 0, 67, 74
1, 435320, Tempo, 455201
1, 435360, Note_on_c, 0, 67, 0
1, 435360, Note_on_c, 0, 64, 0
1, 435360, Note_on_c, 0, 73, 81
1, 435360, Note_on_c, 0, 68, 67
1, 435360, Note_on_c, 0, 65, 67
1, 435400, Tempo, 453446
1, 435480, Note_on_c, 0, 65, 0
1, 435480, Note_on_c, 0, 68, 0
1, 435480, Note_on_c, 0, 73, 0
1, 435480, Note_on_c, 0, 60, 60
1, 435480, Note_on_c, 0, 64, 71
1, 435520, Tempo, 451705
1, 435600, Note_on_c, 0, 64, 0
1, 435600, Note_on_c, 0, 60, 0
1, 435600, Note_on_c, 0, 61, 64
1, 435600, Note_on_c, 0, 65, 64
1, 435600, Note_on_c, 0, 68, 77
1, 435640, Tempo, 449978
1, 435720, Note_on_c, 0, 68, 0
1, 435720, Note_on_c, 0, 65, 0
1, 435720, Note_on_c, 0, 61, 0
1, 435720, Note_on_c, 0, 55, 57
1, 435720, Note_on_c, 0, 58, 67
1, 435760, Tempo, 448263
1, 435840, Tempo, 446561
1, 435840, Note_on_c, 0, 58, 0
1, 435840, Note_on_c, 0, 55, 0
1, 435840, Note_on_c, 0, 65, 80
1, 435840, Note_on_c, 0, 61, 65
1, 435840, Note_on_c, 0, 56, 65
1, 435960, Note_on_c, 0, 56, 0
1, 435960, Note_on_c, 0, 61, 0
1, 435960, Note_on_c, 0, 65, 0
1, 435960, Note_on_c, 0, 52, 57
1, 435960, Note_on_c, 0, 55, 69
1, 436080, Note_on_c, 0, 55, 0
1, 436080, Note_on_c, 0, 52, 0
1, 436080, Note_on_c, 0, 61, 79
1, 436080, Note_on_c, 0, 56, 65
1, 436080, Note_on_c, 0, 53, 65
1, 436200, Note_on_c, 0, 53, 0
1, 436200, Note_on_c, 0, 56, 0
1, 436200, Note_on_c, 0, 61, 0
1, 436200, Note_on_c, 0, 48, 55
1, 436200, Note_on_c, 0, 52, 65
1, 436320, Note_on_c, 0, 52, 0
1, 436320, Note_on_c, 0, 48, 0
1, 436320, Note_on_c, 0, 49, 64
1, 436320, Note_on_c, 0, 53, 64
1, 436320, Note_on_c, 0, 56, 77
1, 436440, Note_on_c, 0, 56, 0
1, 436440, Note_on_c, 0, 53, 0
1, 436440, Note_on_c, 0, 49, 0
1, 436440, Note_on_c, 0, 43, 55
1, 436440, Note_on_c, 0, 46, 65
1, 436560, Note_on_c, 0, 46, 0
1, 436560, Note_on_c, 0, 43, 0
1, 436560, Note_on_c, 0, 44, 63
1, 436560, Note_on_c, 0, 49, 63
1, 436560, Note_on_c, 0, 53, 75
1, 436680, Note_on_c, 0, 53, 0
1, 436680, Note_on_c, 0, 49, 0
1, 436680, Note_on_c, 0, 44, 0
1, 436680, Note_on_c, 0, 40, 53
1, 436680, Note_on_c, 0, 43, 63
1, 436800, Note_on_c, 0, 43, 0
1, 436800, Note_on_c, 0, 40, 0
1, 436800, Note_on_c, 0, 41, 63
1, 436800, Note_on_c, 0, 44, 63
1, 436800, Note_on_c, 0, 49, 75
1, 436920, Note_on_c, 0, 49, 0
1, 436920, Note_on_c, 0, 44, 0
1, 436920, Note_on_c, 0, 41, 0
1, 436920, Note_on_c, 0, 25, 61
1, 436920, Note_on_c, 0, 37, 75
1, 437000, Tempo, 434972
1, 437040, Tempo, 451705
1, 437040, Note_on_c, 0, 37, 0
1, 437040, Note_on_c, 0, 25, 0
1, 437040, Note_on_c, 0, 41, 48
1, 437040, Note_on_c, 0, 49, 46
1, 437040, Note_on_c, 0, 53, 56
1, 437058, Control_c, 0, 64, 0
1, 437109, Control_c, 0, 64, 127
1, 437120, Tempo, 453446
1, 437160, Note_on_c, 0, 53, 0
1, 437160, Note_on_c, 0, 49, 0
1, 437160, Note_on_c, 0, 41, 0
1, 437160, Note_on_c, 0, 36, 61
1, 437160, Note_on_c, 0, 48, 75
1, 437280, Tempo, 453446
1, 437280, Note_on_c, 0, 48, 0
1, 437280, Note_on_c, 0, 36, 0
1, 437280, Note_on_c, 0, 41, 48
1, 437280, Note_on_c, 0, 49, 48
1, 437280, Note_on_c, 0, 53, 58
1, 437303, Control_c, 0, 64, 0
1, 437343, Control_c, 0, 64, 127
1, 437400, Note_on_c, 0, 53, 0
1, 437400, Note_on_c, 0, 49, 0
1, 437400, Note_on_c, 0, 41, 0
1, 437400, Note_on_c, 0, 35, 63
1, 437400, Note_on_c, 0, 47, 76
1, 437440, Tempo, 451705
1, 437520, Note_on_c, 0, 47, 0
1, 437520, Note_on_c, 0, 35, 0
1, 437520, Note_on_c, 0, 41, 50
1, 437520, Note_on_c, 0, 49, 50
1, 437520, Note_on_c, 0, 53, 59
1, 437531, Control_c, 0, 64, 0
1, 437571, Control_c, 0, 64, 127
1, 437600, Tempo, 449978
1, 437640, Note_on_c, 0, 53, 0
1, 437640, Note_on_c, 0, 49, 0
1, 437640, Note_on_c, 0, 41, 0
1, 437640, Note_on_c, 0, 34, 67
1, 437640, Note_on_c, 0, 46, 79
1, 437760, Tempo, 448263
1, 437760, Note_on_c, 0, 46, 0
1, 437760, Note_on_c, 0, 34, 0
1, 437760, Note_on_c, 0, 41, 52
1, 437760, Note_on_c, 0, 49, 52
1, 437760, Note_on_c, 0, 53, 61
1, 437760, Control_c, 0, 64, 0
1, 437827, Control_c, 0, 64, 127
1, 437880, Note_on_c, 0, 53, 0
1, 437880, Note_on_c, 0, 49, 0
1, 437880, Note_on_c, 0, 41, 0
1, 437880, Note_on_c, 0, 33, 69
1, 437880, Note_on_c, 0, 45, 81
1, 437920, Tempo, 446561
1, 438000, Note_on_c, 0, 45, 0
1, 438000, Note_on_c, 0, 33, 0
1, 438000, Note_on_c, 0, 41, 53
1, 438000, Note_on_c, 0, 49, 53
1, 438000, Note_on_c, 0, 53, 63
1, 438017, Control_c, 0, 64, 0
1, 438050, Control_c, 0, 64, 127
1, 438080, Tempo, 444873
1, 438120, Note_on_c, 0, 53, 0
1, 438120, Note_on_c, 0, 49, 0
1, 438120, Note_on_c, 0, 41, 0
1, 438120, Note_on_c, 0, 32, 71
1, 438120, Note_on_c, 0, 44, 85
1, 438240, Tempo, 443197
1, 438240, Note_on_c, 0, 44, 0
1, 438240, Note_on_c, 0, 32, 0
1, 438240, Note_on_c, 0, 41, 56
1, 438240, Note_on_c, 0, 49, 56
1, 438240, Note_on_c, 0, 53, 66
1, 438259, Control_c, 0, 64, 0
1, 438317, Control_c, 0, 64, 127
1, 438360, Note_on_c, 0, 53, 0
1, 438360, Note_on_c, 0, 49, 0
1, 438360, Note_on_c, 0, 41, 0
1, 438360, Note_on_c, 0, 33, 75
1, 438360, Note_on_c, 0, 45, 87
1, 438400, Tempo, 441501
1, 438480, Note_on_c, 0, 45, 0
1, 438480, Note_on_c, 0, 33, 0
1, 438480, Note_on_c, 0, 41, 58
1, 438480, Note_on_c, 0, 49, 58
1, 438480, Note_on_c, 0, 53, 68
1, 438501, Control_c, 0, 64, 0
1, 438560, Tempo, 439850
1, 438571, Control_c, 0, 64, 127
1, 438600, Note_on_c, 0, 53, 0
1, 438600, Note_on_c, 0, 49, 0
1, 438600, Note_on_c, 0, 41, 0
1, 438600, Note_on_c, 0, 34, 76
1, 438600, Note_on_c, 0, 46, 91
1, 438720, Tempo, 439850
1, 438720, Note_on_c, 0, 46, 0
1, 438720, Note_on_c, 0, 34, 0
1, 438720, Note_on_c, 0, 41, 58
1, 438720, Note_on_c, 0, 49, 58
1, 438720, Note_on_c, 0, 53, 69
1, 438730, Control_c, 0, 64, 0
1, 438787, Control_c, 0, 64, 127
1, 438840, Note_on_c, 0, 53, 0
1, 438840, Note_on_c, 0, 49, 0
1, 438840, Note_on_c, 0, 41, 0
1, 438840, Note_on_c, 0, 33, 77
1, 438840, Note_on_c, 0, 45, 92
1, 438960, Note_on_c, 0, 45, 0
1, 438960, Note_on_c, 0, 33, 0
1, 438960, Note_on_c, 0, 41, 58
1, 438960, Note_on_c, 0, 49, 58
1, 438960, Note_on_c, 0, 53, 68
1, 438970, Control_c, 0, 64, 0
1, 439000, Tempo, 441501
1, 439042, Control_c, 0, 64, 127
1, 439080, Note_on_c, 0, 53, 0
1, 439080, Note_on_c, 0, 49, 0
1, 439080, Note_on_c, 0, 41, 0
1, 439080, Note_on_c, 0, 32, 76
1, 439080, Note_on_c, 0, 44, 92
1, 439200, Note_on_c, 0, 44, 0
1, 439200, Note_on_c, 0, 32, 0
1, 439200, Note_on_c, 0, 41, 57
1, 439200, Note_on_c, 0, 49, 57
1, 439200, Note_on_c, 0, 53, 67
1, 439210, Control_c, 0, 64, 0
1, 439245, Control_c, 0, 64, 127
1, 439280, Tempo, 443197
1, 439320, Note_on_c, 0, 53, 0
1, 439320, Note_on_c, 0, 49, 0
1, 439320, Note_on_c, 0, 41, 0
1, 439320, Note_on_c, 0, 31, 76
1, 439320, Note_on_c, 0, 43, 90
1, 439440, Note_on_c, 0, 43, 0
1, 439440, Note_on_c, 0, 31, 0
1, 439440, Note_on_c, 0, 41, 54
1, 439440, Note_on_c, 0, 49, 54
1, 439440, Note_on_c, 0, 53, 65
1, 439450, Control_c, 0, 64, 0
1, 439505, Control_c, 0, 64, 127
1, 439520, Tempo, 444873
1, 439560, Note_on_c, 0, 53, 0
1, 439560, Note_on_c, 0, 49, 0
1, 439560, Note_on_c, 0, 41, 0
1, 439560, Note_on_c, 0, 30, 76
1, 439560, Note_on_c, 0, 42, 89
1, 439680, Note_on_c, 0, 42, 0
1, 439680, Note_on_c, 0, 30, 0
1, 439680, Note_on_c, 0, 41, 53
1, 439680, Note_on_c, 0, 49, 53
1, 439680, Note_on_c, 0, 53, 63
1, 439686, Control_c, 0, 64, 0
1, 439714, Control_c, 0, 64, 127
1, 439800, Tempo, 446561
1, 439800, Note_on_c, 0, 53, 0
1, 439800, Note_on_c, 0, 49, 0
1, 439800, Note_on_c, 0, 41, 0
1, 439800, Note_on_c, 0, 29, 73
1, 439800, Note_on_c, 0, 41, 85
1, 439920, Note_on_c, 0, 41, 0
1, 439920, Note_on_c, 0, 29, 0
1, 439920, Note_on_c, 0, 41, 52
1, 439920, Note_on_c, 0, 49, 52
1, 439920, Note_on_c, 0, 53, 61
1, 439930, Control_c, 0, 64, 0
1, 439983, Control_c, 0, 64, 127
1, 440040, Tempo, 448263
1, 440040, Note_on_c, 0, 53, 0
1, 440040, Note_on_c, 0, 49, 0
1, 440040, Note_on_c, 0, 41, 0
1, 440040, Note_on_c, 0, 28, 70
1, 440040, Note_on_c, 0, 40, 84
1, 440160, Note_on_c, 0, 40, 0
1, 440160, Note_on_c, 0, 28, 0
1, 440160, Note_on_c, 0, 41, 51
1, 440160, Note_on_c, 0, 49, 51
1, 440160, Note_on_c, 0, 53, 59
1, 440174, Control_c, 0, 64, 0
1, 440237, Control_c, 0, 64, 127
1, 440280, Note_on_c, 0, 53, 0
1, 440280, Note_on_c, 0, 49, 0
1, 440280, Note_on_c, 0, 41, 0
1, 440280, Note_on_c, 0, 27, 70
1, 440280, Note_on_c, 0, 39, 84
1, 440320, Tempo, 449978
1, 440400, Note_on_c, 0, 39, 0
1, 440400, Note_on_c, 0, 27, 0
1, 440400, Note_on_c, 0, 41, 49
1, 440400, Note_on_c, 0, 49, 49
1, 440400, Note_on_c, 0, 53, 58
1, 440413, Control_c, 0, 64, 0
1, 440515, Control_c, 0, 64, 127
1, 440520, Note_on_c, 0, 53, 0
1, 440520, Note_on_c, 0, 49, 0
1, 440520, Note_on_c, 0, 41, 0
1, 440520, Note_on_c, 0, 26, 68
1, 440520, Note_on_c, 0, 38, 80
1, 440560, Tempo, 451705
1, 440600, Tempo, 451705
1, 440640, Tempo, 593178
1, 440640, Note_on_c, 0, 38, 0
1, 440640, Note_on_c, 0, 26, 0
1, 440640, Note_on_c, 0, 41, 48
1, 440640, Note_on_c, 0, 49, 48
1, 440640, Note_on_c, 0, 53, 58
1, 440640, Control_c, 0, 64, 0
1, 440640, Note_on_c, 0, 25, 67
1, 440640, Note_on_c, 0, 37, 79
1, 440820, Note_on_c, 0, 37, 0
1, 440820, Note_on_c, 0, 53, 0
1, 440820, Note_on_c, 0, 41, 0
1, 440820, Note_on_c, 0, 49, 0
1, 440820, Note_on_c, 0, 25, 0
1, 440880, Tempo, 355893
1, 440940, Control_c, 0, 64, 127
1, 440940, Note_on_c, 0, 45, 50
1, 440970, Note_on_c, 0, 53, 52
1, 441000, Note_on_c, 0, 57, 58
1, 441030, Note_on_c, 0, 63, 61
1, 441060, Note_on_c, 0, 65, 67
1, 441090, Note_on_c, 0, 72, 71
1, 441120, Tempo, 382555
1, 441120, Note_on_c, 0, 77, 80
1, 441205, Control_c, 0, 64, 0
1, 441360, Note_on_c, 0, 77, 0
1, 441360, Note_on_c, 0, 65, 0
1, 441360, Note_on_c, 0, 53, 0
1, 441360, Note_on_c, 0, 57, 0
1, 441360, Note_on_c, 0, 45, 0
1, 441360, Note_on_c, 0, 72, 0
1, 441360, Note_on_c, 0, 63, 0
1, 441600, Tempo, 439850
1, 441600, Note_on_c, 0, 85, 79
1, 441600, Note_on_c, 0, 81, 79
1, 441600, Note_on_c, 0, 73, 67
1, 441600, Note_on_c, 0, 76, 67
1, 441600, Note_on_c, 0, 64, 76
1, 441600, Note_on_c, 0, 57, 63
1, 441600, Note_on_c, 0, 52, 63
1, 441600, Note_on_c, 0, 45, 63
1, 441840, Note_on_c, 0, 45, 0
1, 441840, Note_on_c, 0, 85, 0
1, 441840, Note_on_c, 0, 64, 0
1, 441840, Note_on_c, 0, 81, 0
1, 441840, Note_on_c, 0, 73, 0
1, 441840, Note_on_c, 0, 76, 0
1, 441840, Note_on_c, 0, 57, 0
1, 441840, Note_on_c, 0, 52, 0
1, 442050, Note_on_c, 0, 42, 63
1, 442080, Tempo, 449978
1, 442080, Note_on_c, 0, 81, 67
1, 442080, Note_on_c, 0, 85, 67
1, 442080, Note_on_c, 0, 87, 79
1, 442080, Note_on_c, 0, 93, 79
1, 442080, Note_on_c, 0, 66, 76
1, 442080, Note_on_c, 0, 61, 76
1, 442080, Note_on_c, 0, 54, 63
1, 442320, Note_on_c, 0, 54, 0
1, 442320, Note_on_c, 0, 42, 0
1, 442320, Note_on_c, 0, 93, 0
1, 442320, Note_on_c, 0, 81, 0
1, 442320, Note_on_c, 0, 85, 0
1, 442320, Note_on_c, 0, 87, 0
1, 442320, Note_on_c, 0, 66, 0
1, 442320, Note_on_c, 0, 61, 0
1, 442530, Note_on_c, 0, 37, 67
1, 442530, Note_on_c, 0, 49, 67
1, 442560, Note_on_c, 0, 101, 84
1, 442560, Note_on_c, 0, 97, 84
1, 442560, Note_on_c, 0, 92, 70
1, 442560, Note_on_c, 0, 89, 70
1, 442560, Note_on_c, 0, 68, 80
1, 442560, Note_on_c, 0, 65, 80
1, 442560, Note_on_c, 0, 61, 80
1, 442560, Note_on_c, 0, 56, 67
1, 442800, Note_on_c, 0, 56, 0
1, 442800, Note_on_c, 0, 101, 0
1, 442800, Note_on_c, 0, 97, 0
1, 442800, Note_on_c, 0, 37, 0
1, 442800, Note_on_c, 0, 92, 0
1, 442800, Note_on_c, 0, 49, 0
1, 442800, Note_on_c, 0, 65, 0
1, 442800, Note_on_c, 0, 68, 0
1, 442800, Note_on_c, 0, 89, 0
1, 442800, Note_on_c, 0, 61, 0
1, 443520, Note_on_c, 0, 97, 90
1, 443520, Note_on_c, 0, 92, 76
1, 443520, Note_on_c, 0, 85, 76
1, 443520, Note_on_c, 0, 65, 70
1, 443520, Note_on_c, 0, 68, 70
1, 443520, Note_on_c, 0, 73, 84
1, 443520, Note_on_c, 0, 77, 84
1, 443760, Note_on_c, 0, 77, 0
1, 443760, Note_on_c, 0, 68, 0
1, 443760, Note_on_c, 0, 92, 0
1, 443760, Note_on_c, 0, 85, 0
1, 443760, Note_on_c, 0, 97, 0
1, 443760, Note_on_c, 0, 73, 0
1, 443760, Note_on_c, 0, 65, 0
1, 444240, Tempo, 441501
1, 444300, Note_on_c, 0, 80, 81
1, 444300, Note_on_c, 0, 56, 76
1, 444360, Note_on_c, 0, 56, 0
1, 444360, Note_on_c, 0, 80, 0
1, 444360, Note_on_c, 0, 81, 82
1, 444360, Note_on_c, 0, 57, 76
1, 444420, Note_on_c, 0, 57, 0
1, 444420, Note_on_c, 0, 81, 0
1, 444420, Note_on_c, 0, 84, 82
1, 444420, Note_on_c, 0, 60, 76
1, 444480, Note_on_c, 0, 60, 0
1, 444480, Note_on_c, 0, 84, 0
1, 444480, Note_on_c, 0, 73, 82
1, 444480, Note_on_c, 0, 85, 92
1, 444480, Note_on_c, 0, 49, 75
1, 444480, Note_on_c, 0, 61, 82
1, 444600, Note_on_c, 0, 61, 0
1, 444600, Note_on_c, 0, 73, 0
1, 444600, Note_on_c, 0, 85, 0
1, 444600, Note_on_c, 0, 49, 0
1, 444720, Note_on_c, 0, 49, 85
1, 444720, Note_on_c, 0, 25, 69
1, 444720, Note_on_c, 0, 37, 76
1, 444960, Marker_t, "Fine"
1, 444960, Note_on_c, 0, 37, 0
1, 444960, Note_on_c, 0, 25, 0
1, 444960, Note_on_c, 0, 49, 0
1, 444962, Tempo, 451128
1, 445440, Tempo, 461538
1, 446400, Tempo, 500000
1, 446400, End_track
0, 0, End_of_file
