0, 0, Header, 0, 1, 480
1, 0, Start_track
1, 0, Title_t, "Rhapsodie Nr. 12"
1, 0, Copyright_t, "Copyright © 2005 von Bernd Krüger. "
1, 0, Text_t, "Franz Liszt"
1, 0, Text_t, "Fertiggestellt am  4.7.2005\012"
1, 0, Text_t, "Update am 17.4.2011\012"
1, 0, Text_t, "Update am 9.3.2014\012"
1, 0, Text_t, "Dauer:  8:43 Minuten\012"
1, 0, Text_t, "Takt 8: 4/4 statt 2/4\012"
1, 0, Text_t, "Takt 13: 6/4 statt 3/4\012"
1, 0, Text_t, "Takt 16: 8/4 stat 4/4\012"
1, 0, Text_t, "Takt 23: 4/4 statt 2/4\012"
1, 0, Text_t, "Takt 90: Zusätzlicher Leertakt wegen Verzählen\012"
1, 0, Time_signature, 4, 2, 24, 8
1, 0, Key_signature, 4, "major"
1, 0, Tempo, 441176
1, 0, Program_c, 0, 0
1, 0, Control_c, 0, 7, 100
1, 0, Control_c, 0, 10, 64
1, 0, Program_c, 0, 0
1, 0, Control_c, 0, 7, 100
1, 0, Control_c, 0, 10, 64
1, 0, Program_c, 0, 0
1, 1800, Tempo, 1105991
1, 1860, Control_c, 0, 64, 127
1, 1880, Marker_t, "Introduzione"
1, 1880, Note_on_c, 0, 49, 65
1, 1880, Note_on_c, 0, 61, 74
1, 1910, Note_on_c, 0, 61, 0
1, 1910, Note_on_c, 0, 49, 0
1, 1920, Tempo, 1090909
1, 1920, Note_on_c, 0, 49, 72
1, 1920, Note_on_c, 0, 61, 82
1, 2340, Note_on_c, 0, 61, 0
1, 2340, Note_on_c, 0, 49, 0
1, 2360, Note_on_c, 0, 54, 72
1, 2360, Note_on_c, 0, 66, 72
1, 2370, Control_c, 0, 64, 0
1, 2390, Note_on_c, 0, 66, 0
1, 2390, Note_on_c, 0, 54, 0
1, 2397, Control_c, 0, 64, 127
1, 2400, Note_on_c, 0, 66, 81
1, 2400, Note_on_c, 0, 54, 81
1, 2820, Note_on_c, 0, 54, 0
1, 2820, Note_on_c, 0, 66, 0
1, 2840, Note_on_c, 0, 52, 64
1, 2840, Note_on_c, 0, 64, 73
1, 2850, Control_c, 0, 64, 0
1, 2869, Control_c, 0, 64, 127
1, 2870, Note_on_c, 0, 64, 0
1, 2870, Note_on_c, 0, 52, 0
1, 2880, Tempo, 1153846
1, 2880, Note_on_c, 0, 52, 70
1, 2880, Note_on_c, 0, 64, 80
1, 3060, Note_on_c, 0, 64, 0
1, 3060, Note_on_c, 0, 52, 0
1, 3080, Note_on_c, 0, 51, 65
1, 3080, Note_on_c, 0, 63, 65
1, 3090, Control_c, 0, 64, 0
1, 3110, Note_on_c, 0, 63, 0
1, 3110, Note_on_c, 0, 51, 0
1, 3115, Control_c, 0, 64, 127
1, 3120, Note_on_c, 0, 51, 70
1, 3120, Note_on_c, 0, 63, 80
1, 3300, Note_on_c, 0, 63, 0
1, 3300, Note_on_c, 0, 51, 0
1, 3320, Note_on_c, 0, 49, 65
1, 3320, Note_on_c, 0, 61, 74
1, 3330, Control_c, 0, 64, 0
1, 3348, Control_c, 0, 64, 127
1, 3350, Note_on_c, 0, 61, 0
1, 3350, Note_on_c, 0, 49, 0
1, 3360, Tempo, 1105991
1, 3360, Note_on_c, 0, 49, 71
1, 3360, Note_on_c, 0, 61, 81
1, 3540, Note_on_c, 0, 61, 0
1, 3540, Note_on_c, 0, 49, 0
1, 3560, Note_on_c, 0, 48, 64
1, 3560, Note_on_c, 0, 60, 73
1, 3570, Control_c, 0, 64, 0
1, 3590, Note_on_c, 0, 60, 0
1, 3590, Note_on_c, 0, 48, 0
1, 3591, Control_c, 0, 64, 127
1, 3600, Tempo, 1188119
1, 3600, Note_on_c, 0, 48, 70
1, 3600, Note_on_c, 0, 60, 80
1, 3780, Note_on_c, 0, 60, 0
1, 3780, Note_on_c, 0, 48, 0
1, 3800, Note_on_c, 0, 49, 63
1, 3800, Note_on_c, 0, 61, 72
1, 3810, Control_c, 0, 64, 0
1, 3830, Note_on_c, 0, 61, 0
1, 3830, Note_on_c, 0, 49, 0
1, 3840, Tempo, 1589404
1, 3840, Note_on_c, 0, 49, 71
1, 3840, Note_on_c, 0, 61, 81
1, 3883, Control_c, 0, 64, 127
1, 3912, Control_c, 0, 64, 0
1, 3960, Note_on_c, 0, 61, 0
1, 3960, Note_on_c, 0, 49, 0
1, 4018, Control_c, 0, 91, 127
1, 4018, Text_t, "bdca426d104a26ac9dcb070447587523"
1, 4080, Note_on_c, 0, 46, 44
1, 4080, Note_on_c, 0, 31, 40
1, 4090, Tempo, 1105991
1, 4095, Control_c, 0, 64, 127
1, 4120, Note_on_c, 0, 31, 0
1, 4120, Note_on_c, 0, 46, 0
1, 4120, Note_on_c, 0, 49, 38
1, 4120, Note_on_c, 0, 40, 29
1, 4160, Note_on_c, 0, 40, 0
1, 4160, Note_on_c, 0, 49, 0
1, 4160, Note_on_c, 0, 46, 45
1, 4160, Note_on_c, 0, 31, 40
1, 4186, Tempo, 1090909
1, 4200, Note_on_c, 0, 31, 0
1, 4200, Note_on_c, 0, 46, 0
1, 4200, Note_on_c, 0, 49, 39
1, 4200, Note_on_c, 0, 40, 31
1, 4240, Note_on_c, 0, 40, 0
1, 4240, Note_on_c, 0, 49, 0
1, 4240, Note_on_c, 0, 46, 46
1, 4240, Note_on_c, 0, 31, 39
1, 4262, Tempo, 1076233
1, 4280, Note_on_c, 0, 31, 0
1, 4280, Note_on_c, 0, 49, 42
1, 4280, Note_on_c, 0, 40, 30
1, 4300, Note_on_c, 0, 46, 0
1, 4320, Note_on_c, 0, 40, 0
1, 4320, Note_on_c, 0, 49, 0
1, 4320, Note_on_c, 0, 46, 47
1, 4320, Note_on_c, 0, 31, 39
1, 4339, Tempo, 1061947
1, 4360, Note_on_c, 0, 31, 0
1, 4360, Note_on_c, 0, 46, 0
1, 4360, Note_on_c, 0, 49, 42
1, 4360, Note_on_c, 0, 40, 34
1, 4400, Note_on_c, 0, 40, 0
1, 4400, Note_on_c, 0, 49, 0
1, 4400, Note_on_c, 0, 46, 48
1, 4400, Note_on_c, 0, 31, 41
1, 4416, Tempo, 1048035
1, 4440, Note_on_c, 0, 31, 0
1, 4440, Note_on_c, 0, 46, 0
1, 4440, Note_on_c, 0, 49, 44
1, 4440, Note_on_c, 0, 40, 37
1, 4480, Note_on_c, 0, 40, 0
1, 4480, Note_on_c, 0, 49, 0
1, 4480, Note_on_c, 0, 46, 50
1, 4480, Note_on_c, 0, 31, 43
1, 4512, Tempo, 1034483
1, 4520, Note_on_c, 0, 31, 0
1, 4520, Note_on_c, 0, 49, 45
1, 4520, Note_on_c, 0, 40, 38
1, 4540, Note_on_c, 0, 46, 0
1, 4560, Note_on_c, 0, 40, 0
1, 4560, Note_on_c, 0, 49, 0
1, 4560, Note_on_c, 0, 46, 51
1, 4560, Note_on_c, 0, 31, 44
1, 4589, Tempo, 1021277
1, 4600, Note_on_c, 0, 31, 0
1, 4600, Note_on_c, 0, 46, 0
1, 4600, Note_on_c, 0, 49, 46
1, 4600, Note_on_c, 0, 40, 41
1, 4640, Note_on_c, 0, 40, 0
1, 4640, Note_on_c, 0, 49, 0
1, 4640, Note_on_c, 0, 46, 52
1, 4640, Note_on_c, 0, 31, 46
1, 4656, Control_c, 0, 64, 0
1, 4666, Tempo, 1008403
1, 4680, Note_on_c, 0, 31, 0
1, 4680, Note_on_c, 0, 46, 0
1, 4680, Note_on_c, 0, 49, 47
1, 4680, Note_on_c, 0, 40, 42
1, 4720, Note_on_c, 0, 40, 0
1, 4720, Note_on_c, 0, 49, 0
1, 4720, Note_on_c, 0, 46, 53
1, 4720, Note_on_c, 0, 31, 48
1, 4742, Tempo, 995851
1, 4760, Note_on_c, 0, 31, 0
1, 4760, Note_on_c, 0, 49, 48
1, 4760, Note_on_c, 0, 40, 43
1, 4762, Tempo, 983607
1, 4780, Note_on_c, 0, 46, 0
1, 4800, Note_on_c, 0, 40, 0
1, 4800, Note_on_c, 0, 49, 0
1, 4800, Note_on_c, 0, 46, 55
1, 4800, Note_on_c, 0, 31, 49
1, 4840, Note_on_c, 0, 31, 0
1, 4840, Note_on_c, 0, 46, 0
1, 4840, Note_on_c, 0, 49, 49
1, 4840, Note_on_c, 0, 40, 45
1, 4858, Tempo, 971660
1, 4880, Note_on_c, 0, 40, 0
1, 4880, Note_on_c, 0, 49, 0
1, 4880, Note_on_c, 0, 46, 56
1, 4880, Note_on_c, 0, 31, 51
1, 4920, Note_on_c, 0, 31, 0
1, 4920, Note_on_c, 0, 46, 0
1, 4920, Note_on_c, 0, 49, 50
1, 4920, Note_on_c, 0, 40, 45
1, 4934, Tempo, 960000
1, 4960, Note_on_c, 0, 40, 0
1, 4960, Note_on_c, 0, 49, 0
1, 4960, Note_on_c, 0, 46, 57
1, 4960, Note_on_c, 0, 31, 53
1, 5000, Note_on_c, 0, 31, 0
1, 5000, Note_on_c, 0, 49, 51
1, 5000, Note_on_c, 0, 40, 47
1, 5011, Tempo, 948617
1, 5020, Note_on_c, 0, 46, 0
1, 5040, Note_on_c, 0, 40, 0
1, 5040, Note_on_c, 0, 49, 0
1, 5040, Note_on_c, 0, 46, 58
1, 5040, Note_on_c, 0, 31, 54
1, 5080, Note_on_c, 0, 31, 0
1, 5080, Note_on_c, 0, 46, 0
1, 5080, Note_on_c, 0, 49, 55
1, 5080, Note_on_c, 0, 40, 49
1, 5088, Tempo, 937500
1, 5120, Note_on_c, 0, 40, 0
1, 5120, Note_on_c, 0, 49, 0
1, 5120, Note_on_c, 0, 46, 60
1, 5120, Note_on_c, 0, 31, 56
1, 5126, Tempo, 948617
1, 5146, Tempo, 960000
1, 5160, Note_on_c, 0, 31, 0
1, 5160, Note_on_c, 0, 46, 0
1, 5160, Note_on_c, 0, 49, 53
1, 5160, Note_on_c, 0, 40, 52
1, 5184, Tempo, 971660
1, 5200, Note_on_c, 0, 40, 0
1, 5200, Note_on_c, 0, 49, 0
1, 5200, Note_on_c, 0, 46, 61
1, 5200, Note_on_c, 0, 31, 57
1, 5203, Tempo, 983607
1, 5240, Note_on_c, 0, 31, 0
1, 5240, Note_on_c, 0, 49, 54
1, 5240, Note_on_c, 0, 40, 58
1, 5242, Tempo, 995851
1, 5260, Note_on_c, 0, 46, 0
1, 5261, Tempo, 1008403
1, 5280, Tempo, 960000
1, 5280, Note_on_c, 0, 40, 0
1, 5280, Note_on_c, 0, 49, 0
1, 5280, Note_on_c, 0, 46, 62
1, 5280, Note_on_c, 0, 31, 59
1, 5320, Note_on_c, 0, 31, 0
1, 5320, Note_on_c, 0, 46, 0
1, 5320, Note_on_c, 0, 49, 58
1, 5320, Note_on_c, 0, 40, 60
1, 5360, Note_on_c, 0, 40, 0
1, 5360, Note_on_c, 0, 49, 0
1, 5360, Note_on_c, 0, 46, 63
1, 5360, Note_on_c, 0, 31, 61
1, 5400, Note_on_c, 0, 31, 0
1, 5400, Note_on_c, 0, 46, 0
1, 5400, Note_on_c, 0, 49, 59
1, 5400, Note_on_c, 0, 40, 62
1, 5440, Note_on_c, 0, 40, 0
1, 5440, Note_on_c, 0, 49, 0
1, 5440, Note_on_c, 0, 46, 67
1, 5440, Note_on_c, 0, 31, 62
1, 5480, Note_on_c, 0, 31, 0
1, 5480, Note_on_c, 0, 49, 70
1, 5480, Note_on_c, 0, 40, 63
1, 5500, Note_on_c, 0, 46, 0
1, 5510, Tempo, 948617
1, 5520, Note_on_c, 0, 40, 0
1, 5520, Note_on_c, 0, 49, 0
1, 5520, Note_on_c, 0, 46, 73
1, 5520, Note_on_c, 0, 31, 64
1, 5549, Tempo, 960000
1, 5560, Note_on_c, 0, 31, 0
1, 5560, Note_on_c, 0, 46, 0
1, 5560, Note_on_c, 0, 49, 76
1, 5560, Note_on_c, 0, 40, 65
1, 5568, Tempo, 971660
1, 5587, Tempo, 983607
1, 5600, Note_on_c, 0, 40, 0
1, 5600, Note_on_c, 0, 49, 0
1, 5600, Note_on_c, 0, 46, 79
1, 5600, Note_on_c, 0, 31, 67
1, 5626, Tempo, 995851
1, 5640, Note_on_c, 0, 31, 0
1, 5640, Note_on_c, 0, 46, 0
1, 5640, Note_on_c, 0, 49, 82
1, 5640, Note_on_c, 0, 40, 68
1, 5645, Tempo, 1008403
1, 5664, Tempo, 1021277
1, 5680, Note_on_c, 0, 40, 0
1, 5680, Note_on_c, 0, 49, 0
1, 5680, Note_on_c, 0, 46, 85
1, 5680, Note_on_c, 0, 31, 69
1, 5702, Tempo, 1034483
1, 5720, Note_on_c, 0, 31, 0
1, 5720, Note_on_c, 0, 49, 88
1, 5720, Note_on_c, 0, 40, 70
1, 5722, Tempo, 1048035
1, 5740, Note_on_c, 0, 46, 0
1, 5741, Tempo, 1061947
1, 5760, Tempo, 1188119
1, 5760, Note_on_c, 0, 40, 0
1, 5760, Note_on_c, 0, 49, 0
1, 5766, Control_c, 0, 64, 0
1, 5780, Note_on_c, 0, 45, 84
1, 5780, Note_on_c, 0, 48, 94
1, 5780, Note_on_c, 0, 30, 67
1, 5780, Note_on_c, 0, 39, 72
1, 5820, Note_on_c, 0, 39, 0
1, 5820, Note_on_c, 0, 45, 0
1, 5820, Note_on_c, 0, 48, 0
1, 5820, Note_on_c, 0, 30, 0
1, 5820, Note_on_c, 0, 46, 90
1, 5820, Note_on_c, 0, 49, 100
1, 5820, Note_on_c, 0, 31, 78
1, 5820, Note_on_c, 0, 40, 82
1, 5940, Note_on_c, 0, 40, 0
1, 5940, Note_on_c, 0, 46, 0
1, 5940, Note_on_c, 0, 49, 0
1, 5940, Note_on_c, 0, 31, 0
1, 6240, Tempo, 418118
1, 7620, Tempo, 1076233
1, 7620, Control_c, 0, 64, 127
1, 7640, Note_on_c, 0, 68, 74
1, 7640, Note_on_c, 0, 56, 65
1, 7670, Note_on_c, 0, 56, 0
1, 7670, Note_on_c, 0, 68, 0
1, 7680, Tempo, 1076233
1, 7680, Note_on_c, 0, 56, 72
1, 7680, Note_on_c, 0, 68, 82
1, 8100, Note_on_c, 0, 68, 0
1, 8100, Note_on_c, 0, 56, 0
1, 8120, Note_on_c, 0, 61, 63
1, 8120, Note_on_c, 0, 73, 72
1, 8136, Control_c, 0, 64, 0
1, 8149, Control_c, 0, 64, 127
1, 8150, Note_on_c, 0, 73, 0
1, 8150, Note_on_c, 0, 61, 0
1, 8160, Note_on_c, 0, 61, 71
1, 8160, Note_on_c, 0, 73, 81
1, 8400, Tempo, 1137441
1, 8580, Note_on_c, 0, 73, 0
1, 8580, Note_on_c, 0, 61, 0
1, 8600, Note_on_c, 0, 59, 64
1, 8600, Note_on_c, 0, 71, 73
1, 8606, Control_c, 0, 64, 0
1, 8630, Note_on_c, 0, 71, 0
1, 8630, Note_on_c, 0, 59, 0
1, 8635, Control_c, 0, 64, 127
1, 8640, Note_on_c, 0, 59, 70
1, 8640, Note_on_c, 0, 71, 80
1, 8820, Note_on_c, 0, 71, 0
1, 8820, Note_on_c, 0, 59, 0
1, 8840, Note_on_c, 0, 58, 65
1, 8840, Note_on_c, 0, 70, 74
1, 8850, Control_c, 0, 64, 0
1, 8870, Note_on_c, 0, 70, 0
1, 8870, Note_on_c, 0, 58, 0
1, 8875, Control_c, 0, 64, 127
1, 8880, Note_on_c, 0, 58, 70
1, 8880, Note_on_c, 0, 70, 80
1, 9060, Note_on_c, 0, 70, 0
1, 9060, Note_on_c, 0, 58, 0
1, 9080, Note_on_c, 0, 56, 65
1, 9080, Note_on_c, 0, 68, 74
1, 9090, Control_c, 0, 64, 0
1, 9110, Note_on_c, 0, 68, 0
1, 9110, Note_on_c, 0, 56, 0
1, 9113, Control_c, 0, 64, 127
1, 9120, Tempo, 1105991
1, 9120, Note_on_c, 0, 56, 71
1, 9120, Note_on_c, 0, 68, 81
1, 9300, Note_on_c, 0, 68, 0
1, 9300, Note_on_c, 0, 56, 0
1, 9320, Note_on_c, 0, 67, 73
1, 9320, Note_on_c, 0, 55, 64
1, 9330, Control_c, 0, 64, 0
1, 9350, Note_on_c, 0, 55, 0
1, 9350, Note_on_c, 0, 67, 0
1, 9354, Control_c, 0, 64, 127
1, 9360, Tempo, 1188119
1, 9360, Note_on_c, 0, 55, 70
1, 9360, Note_on_c, 0, 67, 80
1, 9540, Note_on_c, 0, 67, 0
1, 9540, Note_on_c, 0, 55, 0
1, 9560, Note_on_c, 0, 56, 63
1, 9560, Note_on_c, 0, 68, 72
1, 9570, Control_c, 0, 64, 0
1, 9590, Note_on_c, 0, 68, 0
1, 9590, Note_on_c, 0, 56, 0
1, 9600, Tempo, 1348315
1, 9600, Note_on_c, 0, 56, 71
1, 9600, Note_on_c, 0, 68, 81
1, 9643, Control_c, 0, 64, 127
1, 9672, Control_c, 0, 64, 0
1, 9720, Note_on_c, 0, 68, 0
1, 9720, Note_on_c, 0, 56, 0
1, 9840, Note_on_c, 0, 50, 44
1, 9840, Note_on_c, 0, 47, 44
1, 9840, Note_on_c, 0, 29, 40
1, 9850, Tempo, 1121495
1, 9855, Control_c, 0, 64, 127
1, 9880, Note_on_c, 0, 29, 0
1, 9880, Note_on_c, 0, 47, 0
1, 9880, Note_on_c, 0, 50, 0
1, 9880, Note_on_c, 0, 56, 38
1, 9880, Note_on_c, 0, 38, 29
1, 9920, Note_on_c, 0, 38, 0
1, 9920, Note_on_c, 0, 56, 0
1, 9920, Note_on_c, 0, 50, 45
1, 9920, Note_on_c, 0, 47, 45
1, 9920, Note_on_c, 0, 29, 40
1, 9960, Note_on_c, 0, 29, 0
1, 9960, Note_on_c, 0, 47, 0
1, 9960, Note_on_c, 0, 50, 0
1, 9960, Note_on_c, 0, 56, 39
1, 9960, Note_on_c, 0, 38, 31
1, 9965, Tempo, 1105991
1, 10000, Note_on_c, 0, 38, 0
1, 10000, Note_on_c, 0, 56, 0
1, 10000, Note_on_c, 0, 50, 46
1, 10000, Note_on_c, 0, 47, 46
1, 10000, Note_on_c, 0, 29, 39
1, 10040, Note_on_c, 0, 29, 0
1, 10040, Note_on_c, 0, 56, 42
1, 10040, Note_on_c, 0, 38, 30
1, 10060, Note_on_c, 0, 47, 0
1, 10060, Note_on_c, 0, 50, 0
1, 10061, Tempo, 1090909
1, 10080, Note_on_c, 0, 56, 0
1, 10080, Note_on_c, 0, 38, 0
1, 10080, Note_on_c, 0, 50, 47
1, 10080, Note_on_c, 0, 47, 47
1, 10080, Note_on_c, 0, 29, 39
1, 10120, Note_on_c, 0, 29, 0
1, 10120, Note_on_c, 0, 47, 0
1, 10120, Note_on_c, 0, 50, 0
1, 10120, Note_on_c, 0, 56, 42
1, 10120, Note_on_c, 0, 38, 34
1, 10157, Tempo, 1076233
1, 10160, Note_on_c, 0, 38, 0
1, 10160, Note_on_c, 0, 56, 0
1, 10160, Note_on_c, 0, 50, 48
1, 10160, Note_on_c, 0, 47, 48
1, 10160, Note_on_c, 0, 29, 41
1, 10200, Note_on_c, 0, 29, 0
1, 10200, Note_on_c, 0, 47, 0
1, 10200, Note_on_c, 0, 50, 0
1, 10200, Note_on_c, 0, 56, 44
1, 10200, Note_on_c, 0, 38, 37
1, 10240, Note_on_c, 0, 38, 0
1, 10240, Note_on_c, 0, 56, 0
1, 10240, Note_on_c, 0, 50, 50
1, 10240, Note_on_c, 0, 47, 50
1, 10240, Note_on_c, 0, 29, 43
1, 10272, Tempo, 1061947
1, 10280, Note_on_c, 0, 29, 0
1, 10280, Note_on_c, 0, 56, 45
1, 10280, Note_on_c, 0, 38, 38
1, 10300, Note_on_c, 0, 47, 0
1, 10300, Note_on_c, 0, 50, 0
1, 10320, Note_on_c, 0, 56, 0
1, 10320, Note_on_c, 0, 38, 0
1, 10320, Note_on_c, 0, 50, 51
1, 10320, Note_on_c, 0, 47, 51
1, 10320, Note_on_c, 0, 29, 44
1, 10360, Note_on_c, 0, 29, 0
1, 10360, Note_on_c, 0, 47, 0
1, 10360, Note_on_c, 0, 50, 0
1, 10360, Note_on_c, 0, 56, 46
1, 10360, Note_on_c, 0, 38, 41
1, 10368, Tempo, 1048035
1, 10400, Note_on_c, 0, 38, 0
1, 10400, Note_on_c, 0, 56, 0
1, 10400, Note_on_c, 0, 50, 52
1, 10400, Note_on_c, 0, 47, 52
1, 10400, Note_on_c, 0, 29, 46
1, 10440, Note_on_c, 0, 29, 0
1, 10440, Note_on_c, 0, 47, 0
1, 10440, Note_on_c, 0, 50, 0
1, 10440, Note_on_c, 0, 56, 47
1, 10440, Note_on_c, 0, 38, 42
1, 10464, Tempo, 1034483
1, 10480, Note_on_c, 0, 38, 0
1, 10480, Note_on_c, 0, 56, 0
1, 10480, Note_on_c, 0, 50, 53
1, 10480, Note_on_c, 0, 47, 53
1, 10480, Note_on_c, 0, 29, 48
1, 10520, Note_on_c, 0, 29, 0
1, 10520, Note_on_c, 0, 56, 48
1, 10520, Note_on_c, 0, 38, 43
1, 10540, Note_on_c, 0, 47, 0
1, 10540, Note_on_c, 0, 50, 0
1, 10560, Tempo, 1021277
1, 10560, Note_on_c, 0, 56, 0
1, 10560, Note_on_c, 0, 38, 0
1, 10560, Note_on_c, 0, 50, 55
1, 10560, Note_on_c, 0, 47, 55
1, 10560, Note_on_c, 0, 29, 49
1, 10598, Tempo, 1008403
1, 10600, Note_on_c, 0, 29, 0
1, 10600, Note_on_c, 0, 47, 0
1, 10600, Note_on_c, 0, 50, 0
1, 10600, Note_on_c, 0, 56, 49
1, 10600, Note_on_c, 0, 38, 45
1, 10637, Tempo, 995851
1, 10640, Note_on_c, 0, 38, 0
1, 10640, Note_on_c, 0, 56, 0
1, 10640, Note_on_c, 0, 50, 56
1, 10640, Note_on_c, 0, 47, 56
1, 10640, Note_on_c, 0, 29, 51
1, 10675, Tempo, 983607
1, 10680, Note_on_c, 0, 29, 0
1, 10680, Note_on_c, 0, 47, 0
1, 10680, Note_on_c, 0, 50, 0
1, 10680, Note_on_c, 0, 56, 50
1, 10680, Note_on_c, 0, 38, 45
1, 10714, Tempo, 971660
1, 10720, Note_on_c, 0, 38, 0
1, 10720, Note_on_c, 0, 56, 0
1, 10720, Note_on_c, 0, 50, 57
1, 10720, Note_on_c, 0, 47, 57
1, 10720, Note_on_c, 0, 29, 53
1, 10752, Tempo, 960000
1, 10760, Note_on_c, 0, 29, 0
1, 10760, Note_on_c, 0, 56, 51
1, 10760, Note_on_c, 0, 38, 47
1, 10780, Note_on_c, 0, 47, 0
1, 10780, Note_on_c, 0, 50, 0
1, 10790, Tempo, 948617
1, 10800, Note_on_c, 0, 56, 0
1, 10800, Note_on_c, 0, 38, 0
1, 10800, Note_on_c, 0, 50, 58
1, 10800, Note_on_c, 0, 47, 58
1, 10800, Note_on_c, 0, 29, 54
1, 10829, Tempo, 937500
1, 10840, Note_on_c, 0, 29, 0
1, 10840, Note_on_c, 0, 47, 0
1, 10840, Note_on_c, 0, 50, 0
1, 10840, Note_on_c, 0, 56, 55
1, 10840, Note_on_c, 0, 38, 49
1, 10867, Tempo, 926641
1, 10880, Note_on_c, 0, 38, 0
1, 10880, Note_on_c, 0, 56, 0
1, 10880, Note_on_c, 0, 50, 60
1, 10880, Note_on_c, 0, 47, 60
1, 10880, Note_on_c, 0, 29, 56
1, 10906, Tempo, 937500
1, 10920, Note_on_c, 0, 29, 0
1, 10920, Note_on_c, 0, 47, 0
1, 10920, Note_on_c, 0, 50, 0
1, 10920, Note_on_c, 0, 56, 53
1, 10920, Note_on_c, 0, 38, 52
1, 10925, Tempo, 948617
1, 10960, Note_on_c, 0, 38, 0
1, 10960, Note_on_c, 0, 56, 0
1, 10960, Note_on_c, 0, 50, 61
1, 10960, Note_on_c, 0, 47, 61
1, 10960, Note_on_c, 0, 29, 57
1, 10963, Tempo, 960000
1, 10982, Tempo, 971660
1, 11000, Note_on_c, 0, 29, 0
1, 11000, Note_on_c, 0, 56, 54
1, 11000, Note_on_c, 0, 38, 58
1, 11020, Note_on_c, 0, 47, 0
1, 11020, Note_on_c, 0, 50, 0
1, 11021, Tempo, 983607
1, 11040, Tempo, 995851
1, 11040, Note_on_c, 0, 56, 0
1, 11040, Note_on_c, 0, 38, 0
1, 11040, Note_on_c, 0, 50, 62
1, 11040, Note_on_c, 0, 47, 62
1, 11040, Note_on_c, 0, 29, 59
1, 11059, Tempo, 1008403
1, 11080, Note_on_c, 0, 29, 0
1, 11080, Note_on_c, 0, 47, 0
1, 11080, Note_on_c, 0, 50, 0
1, 11080, Note_on_c, 0, 56, 58
1, 11080, Note_on_c, 0, 38, 60
1, 11098, Tempo, 995851
1, 11120, Note_on_c, 0, 38, 0
1, 11120, Note_on_c, 0, 56, 0
1, 11120, Note_on_c, 0, 50, 63
1, 11120, Note_on_c, 0, 47, 63
1, 11120, Note_on_c, 0, 29, 61
1, 11136, Tempo, 983607
1, 11155, Tempo, 971660
1, 11160, Note_on_c, 0, 29, 0
1, 11160, Note_on_c, 0, 47, 0
1, 11160, Note_on_c, 0, 50, 0
1, 11160, Note_on_c, 0, 56, 59
1, 11160, Note_on_c, 0, 38, 63
1, 11194, Tempo, 960000
1, 11200, Note_on_c, 0, 38, 0
1, 11200, Note_on_c, 0, 56, 0
1, 11200, Note_on_c, 0, 50, 67
1, 11200, Note_on_c, 0, 47, 67
1, 11200, Note_on_c, 0, 29, 64
1, 11232, Tempo, 948617
1, 11240, Note_on_c, 0, 29, 0
1, 11240, Note_on_c, 0, 56, 70
1, 11240, Note_on_c, 0, 38, 65
1, 11251, Tempo, 937500
1, 11260, Note_on_c, 0, 47, 0
1, 11260, Note_on_c, 0, 50, 0
1, 11280, Note_on_c, 0, 56, 0
1, 11280, Note_on_c, 0, 38, 0
1, 11280, Note_on_c, 0, 50, 73
1, 11280, Note_on_c, 0, 47, 73
1, 11280, Note_on_c, 0, 29, 66
1, 11290, Tempo, 926641
1, 11309, Tempo, 916031
1, 11320, Note_on_c, 0, 29, 0
1, 11320, Note_on_c, 0, 47, 0
1, 11320, Note_on_c, 0, 50, 0
1, 11320, Note_on_c, 0, 56, 77
1, 11320, Note_on_c, 0, 38, 67
1, 11347, Tempo, 926641
1, 11360, Note_on_c, 0, 38, 0
1, 11360, Note_on_c, 0, 56, 0
1, 11360, Note_on_c, 0, 50, 80
1, 11360, Note_on_c, 0, 47, 80
1, 11360, Note_on_c, 0, 29, 68
1, 11386, Tempo, 937500
1, 11400, Note_on_c, 0, 29, 0
1, 11400, Note_on_c, 0, 47, 0
1, 11400, Note_on_c, 0, 50, 0
1, 11400, Note_on_c, 0, 56, 83
1, 11400, Note_on_c, 0, 38, 69
1, 11405, Tempo, 948617
1, 11440, Note_on_c, 0, 38, 0
1, 11440, Note_on_c, 0, 56, 0
1, 11440, Note_on_c, 0, 50, 86
1, 11440, Note_on_c, 0, 47, 86
1, 11440, Note_on_c, 0, 29, 70
1, 11443, Tempo, 960000
1, 11480, Note_on_c, 0, 29, 0
1, 11480, Note_on_c, 0, 56, 89
1, 11480, Note_on_c, 0, 38, 71
1, 11482, Tempo, 971660
1, 11500, Note_on_c, 0, 47, 0
1, 11500, Note_on_c, 0, 50, 0
1, 11501, Tempo, 983607
1, 11520, Tempo, 1076233
1, 11520, Note_on_c, 0, 56, 0
1, 11520, Note_on_c, 0, 38, 0
1, 11520, Note_on_c, 0, 49, 83
1, 11520, Note_on_c, 0, 55, 93
1, 11520, Note_on_c, 0, 37, 72
1, 11520, Note_on_c, 0, 28, 65
1, 11525, Control_c, 0, 64, 0
1, 11540, Note_on_c, 0, 46, 74
1, 11560, Note_on_c, 0, 28, 0
1, 11560, Note_on_c, 0, 37, 0
1, 11560, Note_on_c, 0, 55, 0
1, 11580, Note_on_c, 0, 49, 0
1, 11580, Note_on_c, 0, 46, 0
1, 11580, Note_on_c, 0, 47, 78
1, 11580, Note_on_c, 0, 50, 90
1, 11580, Note_on_c, 0, 56, 98
1, 11580, Note_on_c, 0, 29, 75
1, 11580, Note_on_c, 0, 38, 81
1, 11700, Note_on_c, 0, 38, 0
1, 11700, Note_on_c, 0, 56, 0
1, 11700, Note_on_c, 0, 47, 0
1, 11700, Note_on_c, 0, 50, 0
1, 11700, Note_on_c, 0, 29, 0
1, 12000, Tempo, 415945
1, 13320, Tempo, 916031
1, 13380, Note_on_c, 0, 56, 73
1, 13440, Tempo, 866426
1, 13440, Note_on_c, 0, 56, 0
1, 13440, Note_on_c, 0, 56, 73
1, 13460, Control_c, 0, 64, 127
1, 13680, Tempo, 789474
1, 13815, Note_on_c, 0, 40, 39
1, 13830, Note_on_c, 0, 47, 44
1, 13845, Note_on_c, 0, 50, 47
1, 13860, Note_on_c, 0, 56, 51
1, 13875, Note_on_c, 0, 62, 57
1, 13890, Note_on_c, 0, 68, 59
1, 13905, Note_on_c, 0, 71, 63
1, 13920, Tempo, 875912
1, 13920, Note_on_c, 0, 76, 66
1, 14160, Note_on_c, 0, 76, 0
1, 14160, Note_on_c, 0, 50, 0
1, 14160, Note_on_c, 0, 71, 0
1, 14160, Note_on_c, 0, 56, 0
1, 14160, Note_on_c, 0, 40, 0
1, 14160, Note_on_c, 0, 47, 0
1, 14160, Note_on_c, 0, 68, 0
1, 14160, Note_on_c, 0, 62, 0
1, 14280, Tempo, 738462
1, 14280, Note_on_c, 0, 56, 0
1, 14280, Note_on_c, 0, 57, 73
1, 14340, Note_on_c, 0, 57, 0
1, 14340, Note_on_c, 0, 59, 73
1, 14400, Tempo, 916031
1, 14400, Note_on_c, 0, 59, 0
1, 14400, Note_on_c, 0, 52, 73
1, 14416, Control_c, 0, 64, 0
1, 14509, Control_c, 0, 64, 127
1, 14640, Tempo, 805369
1, 14775, Note_on_c, 0, 40, 39
1, 14790, Note_on_c, 0, 47, 44
1, 14805, Note_on_c, 0, 50, 47
1, 14820, Note_on_c, 0, 56, 51
1, 14835, Note_on_c, 0, 62, 57
1, 14850, Note_on_c, 0, 68, 59
1, 14865, Note_on_c, 0, 71, 63
1, 14880, Tempo, 875912
1, 14880, Note_on_c, 0, 52, 0
1, 14880, Note_on_c, 0, 76, 66
1, 15120, Note_on_c, 0, 76, 0
1, 15120, Note_on_c, 0, 56, 0
1, 15120, Note_on_c, 0, 62, 0
1, 15120, Note_on_c, 0, 47, 0
1, 15120, Note_on_c, 0, 50, 0
1, 15120, Note_on_c, 0, 71, 0
1, 15120, Note_on_c, 0, 68, 0
1, 15120, Note_on_c, 0, 40, 0
1, 15240, Tempo, 839161
1, 15240, Note_on_c, 0, 52, 73
1, 15360, Tempo, 926641
1, 15360, Note_on_c, 0, 52, 0
1, 15360, Note_on_c, 0, 54, 73
1, 15377, Control_c, 0, 64, 0
1, 15406, Control_c, 0, 64, 127
1, 15600, Tempo, 821918
1, 15735, Note_on_c, 0, 40, 39
1, 15750, Note_on_c, 0, 47, 44
1, 15765, Note_on_c, 0, 50, 47
1, 15780, Note_on_c, 0, 54, 51
1, 15795, Note_on_c, 0, 62, 57
1, 15810, Note_on_c, 0, 66, 59
1, 15825, Note_on_c, 0, 69, 63
1, 15840, Tempo, 916031
1, 15840, Note_on_c, 0, 76, 66
1, 16020, Tempo, 813559
1, 16020, Note_on_c, 0, 54, 0
1, 16020, Note_on_c, 0, 57, 73
1, 16080, Tempo, 813559
1, 16080, Note_on_c, 0, 57, 0
1, 16080, Note_on_c, 0, 69, 0
1, 16080, Note_on_c, 0, 40, 0
1, 16080, Note_on_c, 0, 62, 0
1, 16080, Note_on_c, 0, 47, 0
1, 16080, Note_on_c, 0, 50, 0
1, 16080, Note_on_c, 0, 76, 0
1, 16080, Note_on_c, 0, 66, 0
1, 16080, Note_on_c, 0, 54, 0
1, 16080, Note_on_c, 0, 56, 73
1, 16140, Note_on_c, 0, 56, 0
1, 16140, Note_on_c, 0, 54, 73
1, 16200, Note_on_c, 0, 54, 0
1, 16200, Note_on_c, 0, 56, 73
1, 16260, Note_on_c, 0, 56, 0
1, 16260, Note_on_c, 0, 57, 73
1, 16320, Tempo, 916031
1, 16320, Note_on_c, 0, 57, 0
1, 16320, Note_on_c, 0, 56, 73
1, 16338, Control_c, 0, 64, 0
1, 16460, Control_c, 0, 64, 127
1, 16560, Tempo, 813559
1, 16680, Tempo, 821918
1, 16695, Note_on_c, 0, 40, 39
1, 16710, Note_on_c, 0, 47, 44
1, 16725, Note_on_c, 0, 50, 47
1, 16740, Note_on_c, 0, 56, 51
1, 16755, Note_on_c, 0, 62, 57
1, 16770, Note_on_c, 0, 68, 59
1, 16785, Note_on_c, 0, 71, 63
1, 16800, Tempo, 885609
1, 16800, Note_on_c, 0, 56, 0
1, 16800, Note_on_c, 0, 76, 66
1, 17040, Note_on_c, 0, 76, 0
1, 17040, Note_on_c, 0, 56, 0
1, 17040, Note_on_c, 0, 62, 0
1, 17040, Note_on_c, 0, 47, 0
1, 17040, Note_on_c, 0, 50, 0
1, 17040, Note_on_c, 0, 71, 0
1, 17040, Note_on_c, 0, 68, 0
1, 17040, Note_on_c, 0, 40, 0
1, 17160, Note_on_c, 0, 52, 73
1, 17280, Tempo, 905660
1, 17280, Note_on_c, 0, 52, 0
1, 17280, Note_on_c, 0, 61, 73
1, 17296, Control_c, 0, 64, 0
1, 17369, Control_c, 0, 64, 127
1, 17520, Tempo, 805369
1, 17655, Note_on_c, 0, 40, 43
1, 17670, Note_on_c, 0, 49, 47
1, 17685, Note_on_c, 0, 52, 50
1, 17700, Note_on_c, 0, 57, 54
1, 17715, Note_on_c, 0, 64, 60
1, 17730, Note_on_c, 0, 69, 64
1, 17745, Note_on_c, 0, 73, 67
1, 17760, Tempo, 875912
1, 17760, Note_on_c, 0, 81, 70
1, 18000, Note_on_c, 0, 81, 0
1, 18000, Note_on_c, 0, 52, 0
1, 18000, Note_on_c, 0, 73, 0
1, 18000, Note_on_c, 0, 57, 0
1, 18000, Note_on_c, 0, 40, 0
1, 18000, Note_on_c, 0, 49, 0
1, 18000, Note_on_c, 0, 69, 0
1, 18000, Note_on_c, 0, 64, 0
1, 18120, Tempo, 738462
1, 18120, Note_on_c, 0, 61, 0
1, 18120, Note_on_c, 0, 62, 73
1, 18180, Note_on_c, 0, 62, 0
1, 18180, Note_on_c, 0, 64, 73
1, 18240, Tempo, 916031
1, 18240, Note_on_c, 0, 64, 0
1, 18240, Note_on_c, 0, 57, 73
1, 18258, Control_c, 0, 64, 0
1, 18349, Control_c, 0, 64, 127
1, 18480, Tempo, 830450
1, 18615, Note_on_c, 0, 40, 43
1, 18630, Note_on_c, 0, 49, 47
1, 18645, Note_on_c, 0, 52, 50
1, 18660, Note_on_c, 0, 57, 54
1, 18675, Note_on_c, 0, 64, 60
1, 18690, Note_on_c, 0, 69, 64
1, 18705, Note_on_c, 0, 73, 67
1, 18720, Tempo, 885609
1, 18720, Note_on_c, 0, 57, 0
1, 18720, Note_on_c, 0, 81, 70
1, 18960, Note_on_c, 0, 81, 0
1, 18960, Note_on_c, 0, 57, 0
1, 18960, Note_on_c, 0, 64, 0
1, 18960, Note_on_c, 0, 49, 0
1, 18960, Note_on_c, 0, 52, 0
1, 18960, Note_on_c, 0, 73, 0
1, 18960, Note_on_c, 0, 69, 0
1, 18960, Note_on_c, 0, 40, 0
1, 19080, Tempo, 839161
1, 19080, Note_on_c, 0, 57, 75
1, 19200, Tempo, 926641
1, 19200, Note_on_c, 0, 57, 0
1, 19200, Note_on_c, 0, 60, 77
1, 19217, Control_c, 0, 64, 0
1, 19300, Control_c, 0, 64, 127
1, 19440, Tempo, 866426
1, 19575, Note_on_c, 0, 40, 43
1, 19590, Note_on_c, 0, 48, 47
1, 19605, Note_on_c, 0, 51, 50
1, 19620, Note_on_c, 0, 57, 54
1, 19635, Note_on_c, 0, 66, 60
1, 19650, Note_on_c, 0, 72, 64
1, 19665, Note_on_c, 0, 75, 67
1, 19680, Tempo, 926641
1, 19680, Note_on_c, 0, 81, 70
1, 19860, Tempo, 813559
1, 19860, Note_on_c, 0, 60, 0
1, 19860, Note_on_c, 0, 63, 73
1, 19920, Tempo, 813559
1, 19920, Note_on_c, 0, 63, 0
1, 19920, Note_on_c, 0, 75, 0
1, 19920, Note_on_c, 0, 40, 0
1, 19920, Note_on_c, 0, 66, 0
1, 19920, Note_on_c, 0, 48, 0
1, 19920, Note_on_c, 0, 51, 0
1, 19920, Note_on_c, 0, 81, 0
1, 19920, Note_on_c, 0, 72, 0
1, 19920, Note_on_c, 0, 57, 0
1, 19920, Note_on_c, 0, 61, 73
1, 19980, Note_on_c, 0, 61, 0
1, 19980, Note_on_c, 0, 60, 73
1, 20040, Tempo, 866426
1, 20040, Note_on_c, 0, 60, 0
1, 20040, Note_on_c, 0, 61, 73
1, 20100, Note_on_c, 0, 61, 0
1, 20100, Note_on_c, 0, 63, 73
1, 20160, Tempo, 916031
1, 20160, Note_on_c, 0, 63, 0
1, 20160, Note_on_c, 0, 61, 73
1, 20177, Control_c, 0, 64, 0
1, 20300, Control_c, 0, 64, 127
1, 20535, Note_on_c, 0, 40, 43
1, 20550, Note_on_c, 0, 49, 47
1, 20565, Note_on_c, 0, 52, 50
1, 20580, Note_on_c, 0, 57, 54
1, 20595, Note_on_c, 0, 64, 60
1, 20610, Note_on_c, 0, 69, 64
1, 20625, Note_on_c, 0, 73, 67
1, 20640, Tempo, 960000
1, 20640, Note_on_c, 0, 61, 0
1, 20640, Note_on_c, 0, 81, 70
1, 20880, Tempo, 905660
1, 20880, Note_on_c, 0, 81, 0
1, 20880, Note_on_c, 0, 57, 0
1, 20880, Note_on_c, 0, 64, 0
1, 20880, Note_on_c, 0, 49, 0
1, 20880, Note_on_c, 0, 52, 0
1, 20880, Note_on_c, 0, 73, 0
1, 20880, Note_on_c, 0, 69, 0
1, 20880, Note_on_c, 0, 40, 0
1, 20970, Note_on_c, 0, 61, 69
1, 21030, Note_on_c, 0, 61, 0
1, 21030, Note_on_c, 0, 39, 48
1, 21045, Note_on_c, 0, 49, 49
1, 21060, Note_on_c, 0, 54, 51
1, 21075, Note_on_c, 0, 57, 59
1, 21090, Note_on_c, 0, 61, 63
1, 21105, Note_on_c, 0, 66, 64
1, 21120, Tempo, 789474
1, 21120, Note_on_c, 0, 69, 77
1, 21137, Control_c, 0, 64, 0
1, 21226, Control_c, 0, 64, 127
1, 21840, Tempo, 628272
1, 21840, Note_on_c, 0, 69, 0
1, 21840, Note_on_c, 0, 71, 69
1, 21960, Note_on_c, 0, 71, 0
1, 21960, Note_on_c, 0, 73, 69
1, 22069, Note_on_c, 0, 57, 0
1, 22080, Note_on_c, 0, 66, 0
1, 22080, Note_on_c, 0, 73, 0
1, 22080, Note_on_c, 0, 73, 73
1, 22090, Note_on_c, 0, 61, 0
1, 22200, Note_on_c, 0, 73, 0
1, 22200, Note_on_c, 0, 66, 68
1, 22560, Note_on_c, 0, 66, 0
1, 22800, Control_c, 0, 64, 0
1, 22980, Note_on_c, 0, 66, 63
1, 23020, Note_on_c, 0, 66, 0
1, 23040, Time_signature, 6, 2, 24, 8
1, 23040, Tempo, 578313
1, 23040, Note_on_c, 0, 39, 0
1, 23040, Note_on_c, 0, 49, 0
1, 23040, Note_on_c, 0, 54, 0
1, 23040, Note_on_c, 0, 66, 78
1, 23760, Tempo, 429338
1, 23760, Note_on_c, 0, 66, 0
1, 23760, Note_on_c, 0, 68, 65
1, 23827, Control_c, 0, 64, 127
1, 23880, Note_on_c, 0, 69, 65
1, 23900, Note_on_c, 0, 68, 0
1, 24000, Tempo, 554273
1, 24000, Note_on_c, 0, 61, 70
1, 24020, Note_on_c, 0, 69, 0
1, 24021, Control_c, 0, 64, 0
1, 24360, Tempo, 591133
1, 24360, Note_on_c, 0, 61, 0
1, 24360, Note_on_c, 0, 63, 64
1, 24388, Control_c, 0, 64, 127
1, 24420, Note_on_c, 0, 64, 64
1, 24440, Note_on_c, 0, 63, 0
1, 24480, Tempo, 532151
1, 24480, Note_on_c, 0, 57, 70
1, 24500, Note_on_c, 0, 64, 0
1, 24502, Control_c, 0, 64, 0
1, 24840, Tempo, 562061
1, 24840, Note_on_c, 0, 57, 0
1, 24840, Note_on_c, 0, 59, 63
1, 24850, Control_c, 0, 64, 127
1, 24900, Note_on_c, 0, 61, 63
1, 24920, Note_on_c, 0, 59, 0
1, 24960, Tempo, 511727
1, 24960, Note_on_c, 0, 54, 70
1, 24978, Control_c, 0, 64, 0
1, 24980, Note_on_c, 0, 61, 0
1, 25320, Tempo, 535714
1, 25320, Note_on_c, 0, 54, 0
1, 25320, Note_on_c, 0, 56, 65
1, 25337, Control_c, 0, 64, 127
1, 25380, Note_on_c, 0, 57, 66
1, 25400, Note_on_c, 0, 56, 0
1, 25440, Tempo, 492813
1, 25440, Note_on_c, 0, 49, 70
1, 25460, Note_on_c, 0, 57, 0
1, 25461, Control_c, 0, 64, 0
1, 25800, Tempo, 518359
1, 25800, Note_on_c, 0, 49, 0
1, 25800, Note_on_c, 0, 51, 63
1, 25805, Control_c, 0, 64, 127
1, 25860, Note_on_c, 0, 52, 63
1, 25880, Note_on_c, 0, 51, 0
1, 25920, Tempo, 486815
1, 25920, Note_on_c, 0, 45, 70
1, 25940, Note_on_c, 0, 52, 0
1, 25943, Control_c, 0, 64, 0
1, 26280, Tempo, 505263
1, 26280, Note_on_c, 0, 45, 0
1, 26280, Note_on_c, 0, 47, 66
1, 26293, Control_c, 0, 64, 127
1, 26340, Note_on_c, 0, 49, 66
1, 26360, Note_on_c, 0, 47, 0
1, 26400, Tempo, 492813
1, 26400, Note_on_c, 0, 42, 70
1, 26420, Note_on_c, 0, 49, 0
1, 26420, Control_c, 0, 64, 0
1, 26760, Tempo, 518359
1, 26760, Note_on_c, 0, 42, 0
1, 26760, Note_on_c, 0, 44, 62
1, 26774, Control_c, 0, 64, 127
1, 26820, Note_on_c, 0, 45, 62
1, 26840, Note_on_c, 0, 44, 0
1, 26880, Tempo, 546697
1, 26880, Note_on_c, 0, 39, 68
1, 26894, Control_c, 0, 64, 0
1, 26900, Note_on_c, 0, 45, 0
1, 26947, Control_c, 0, 64, 127
1, 27120, Note_on_c, 0, 39, 0
1, 27120, Note_on_c, 0, 40, 55
1, 27156, Tempo, 586797
1, 27168, Tempo, 582524
1, 27180, Tempo, 578313
1, 27180, Note_on_c, 0, 40, 0
1, 27180, Note_on_c, 0, 39, 49
1, 27228, Tempo, 582524
1, 27240, Tempo, 604534
1, 27240, Note_on_c, 0, 39, 0
1, 27240, Note_on_c, 0, 40, 55
1, 27300, Note_on_c, 0, 40, 0
1, 27300, Note_on_c, 0, 39, 48
1, 27324, Tempo, 600000
1, 27336, Tempo, 591133
1, 27348, Tempo, 586797
1, 27360, Tempo, 578313
1, 27360, Note_on_c, 0, 39, 0
1, 27360, Note_on_c, 0, 40, 55
1, 27372, Tempo, 574163
1, 27384, Tempo, 570071
1, 27420, Tempo, 574163
1, 27420, Note_on_c, 0, 40, 0
1, 27420, Note_on_c, 0, 39, 50
1, 27444, Tempo, 578313
1, 27456, Tempo, 586797
1, 27480, Tempo, 566038
1, 27480, Note_on_c, 0, 39, 0
1, 27480, Note_on_c, 0, 40, 55
1, 27492, Tempo, 558140
1, 27504, Tempo, 554273
1, 27516, Tempo, 550459
1, 27528, Tempo, 546697
1, 27540, Note_on_c, 0, 40, 0
1, 27540, Note_on_c, 0, 39, 51
1, 27552, Tempo, 539326
1, 27564, Tempo, 542986
1, 27576, Tempo, 546697
1, 27588, Tempo, 554273
1, 27600, Tempo, 558140
1, 27600, Note_on_c, 0, 39, 0
1, 27600, Note_on_c, 0, 40, 55
1, 27612, Tempo, 562061
1, 27648, Tempo, 546697
1, 27660, Tempo, 542986
1, 27660, Note_on_c, 0, 40, 0
1, 27660, Note_on_c, 0, 39, 50
1, 27684, Tempo, 539326
1, 27720, Tempo, 535714
1, 27720, Note_on_c, 0, 39, 0
1, 27720, Note_on_c, 0, 40, 55
1, 27744, Tempo, 539326
1, 27756, Tempo, 558140
1, 27768, Tempo, 562061
1, 27780, Note_on_c, 0, 40, 0
1, 27780, Note_on_c, 0, 39, 52
1, 27792, Tempo, 558140
1, 27804, Tempo, 550459
1, 27816, Tempo, 542986
1, 27828, Tempo, 535714
1, 27840, Tempo, 532151
1, 27840, Note_on_c, 0, 39, 0
1, 27840, Note_on_c, 0, 40, 55
1, 27852, Tempo, 528634
1, 27864, Tempo, 525164
1, 27876, Tempo, 521739
1, 27900, Note_on_c, 0, 40, 0
1, 27900, Note_on_c, 0, 39, 50
1, 27924, Tempo, 535714
1, 27936, Tempo, 539326
1, 27948, Tempo, 562061
1, 27960, Tempo, 566038
1, 27960, Note_on_c, 0, 39, 0
1, 27960, Note_on_c, 0, 40, 55
1, 27984, Tempo, 558140
1, 27996, Tempo, 539326
1, 28008, Tempo, 535714
1, 28020, Tempo, 532151
1, 28020, Note_on_c, 0, 40, 0
1, 28020, Note_on_c, 0, 39, 51
1, 28032, Tempo, 528634
1, 28080, Note_on_c, 0, 39, 0
1, 28080, Note_on_c, 0, 40, 55
1, 28092, Tempo, 535714
1, 28116, Tempo, 542986
1, 28128, Tempo, 554273
1, 28140, Note_on_c, 0, 40, 0
1, 28140, Note_on_c, 0, 39, 50
1, 28176, Tempo, 550459
1, 28188, Tempo, 546697
1, 28200, Tempo, 539326
1, 28200, Note_on_c, 0, 39, 0
1, 28200, Note_on_c, 0, 40, 55
1, 28224, Tempo, 535714
1, 28236, Tempo, 532151
1, 28248, Tempo, 528634
1, 28260, Note_on_c, 0, 40, 0
1, 28260, Note_on_c, 0, 39, 52
1, 28284, Tempo, 525164
1, 28320, Note_on_c, 0, 39, 0
1, 28320, Note_on_c, 0, 40, 55
1, 28332, Tempo, 521739
1, 28368, Tempo, 539326
1, 28380, Note_on_c, 0, 40, 0
1, 28380, Note_on_c, 0, 39, 50
1, 28392, Tempo, 542986
1, 28416, Tempo, 539326
1, 28428, Tempo, 535714
1, 28440, Tempo, 528634
1, 28440, Note_on_c, 0, 39, 0
1, 28440, Note_on_c, 0, 40, 55
1, 28452, Tempo, 525164
1, 28464, Tempo, 521739
1, 28500, Tempo, 518359
1, 28500, Note_on_c, 0, 40, 0
1, 28500, Note_on_c, 0, 39, 51
1, 28560, Note_on_c, 0, 39, 0
1, 28560, Note_on_c, 0, 40, 55
1, 28572, Tempo, 554273
1, 28620, Tempo, 550459
1, 28620, Note_on_c, 0, 40, 0
1, 28620, Note_on_c, 0, 39, 50
1, 28632, Tempo, 539326
1, 28644, Tempo, 535714
1, 28668, Tempo, 532151
1, 28680, Note_on_c, 0, 39, 0
1, 28680, Note_on_c, 0, 40, 55
1, 28704, Tempo, 539326
1, 28716, Tempo, 570071
1, 28728, Tempo, 574163
1, 28740, Note_on_c, 0, 40, 0
1, 28740, Note_on_c, 0, 39, 52
1, 28764, Tempo, 562061
1, 28800, Time_signature, 5, 2, 24, 8
1, 28800, Tempo, 638298
1, 28800, Note_on_c, 0, 39, 0
1, 28800, Note_on_c, 0, 38, 55
1, 28820, Control_c, 0, 64, 0
1, 28860, Note_on_c, 0, 39, 52
1, 28872, Note_on_c, 0, 38, 0
1, 28920, Note_on_c, 0, 40, 55
1, 28932, Note_on_c, 0, 39, 0
1, 28980, Note_on_c, 0, 39, 50
1, 28992, Note_on_c, 0, 40, 0
1, 29040, Note_on_c, 0, 37, 51
1, 29052, Note_on_c, 0, 39, 0
1, 29100, Note_on_c, 0, 35, 53
1, 29112, Note_on_c, 0, 37, 0
1, 29160, Note_on_c, 0, 33, 54
1, 29172, Note_on_c, 0, 35, 0
1, 29220, Note_on_c, 0, 32, 56
1, 29232, Note_on_c, 0, 33, 0
1, 29280, Note_on_c, 0, 33, 57
1, 29292, Note_on_c, 0, 32, 0
1, 29340, Tempo, 670391
1, 29340, Note_on_c, 0, 29, 59
1, 29352, Note_on_c, 0, 33, 0
1, 29520, Note_on_c, 0, 29, 0
1, 29520, Note_on_c, 0, 30, 51
1, 29580, Tempo, 745342
1, 29587, Note_on_c, 0, 32, 51
1, 29601, Note_on_c, 0, 30, 0
1, 29655, Note_on_c, 0, 33, 51
1, 29668, Note_on_c, 0, 32, 0
1, 29722, Note_on_c, 0, 35, 52
1, 29735, Note_on_c, 0, 33, 0
1, 29748, Tempo, 738462
1, 29789, Note_on_c, 0, 37, 52
1, 29802, Note_on_c, 0, 35, 0
1, 29808, Tempo, 731707
1, 29856, Tempo, 725076
1, 29856, Note_on_c, 0, 37, 0
1, 29856, Note_on_c, 0, 39, 54
1, 29904, Tempo, 718563
1, 29923, Note_on_c, 0, 40, 54
1, 29937, Note_on_c, 0, 39, 0
1, 29952, Tempo, 712166
1, 29991, Note_on_c, 0, 42, 54
1, 30000, Tempo, 705882
1, 30004, Note_on_c, 0, 40, 0
1, 30058, Note_on_c, 0, 44, 55
1, 30071, Note_on_c, 0, 42, 0
1, 30072, Tempo, 699708
1, 30125, Note_on_c, 0, 45, 55
1, 30138, Note_on_c, 0, 44, 0
1, 30144, Tempo, 693642
1, 30192, Note_on_c, 0, 47, 56
1, 30206, Note_on_c, 0, 45, 0
1, 30216, Tempo, 687679
1, 30259, Note_on_c, 0, 49, 56
1, 30273, Note_on_c, 0, 47, 0
1, 30327, Note_on_c, 0, 51, 57
1, 30340, Note_on_c, 0, 49, 0
1, 30394, Note_on_c, 0, 52, 57
1, 30407, Note_on_c, 0, 51, 0
1, 30461, Note_on_c, 0, 48, 64
1, 30474, Note_on_c, 0, 52, 0
1, 30528, Note_on_c, 0, 51, 60
1, 30542, Note_on_c, 0, 48, 0
1, 30595, Note_on_c, 0, 49, 65
1, 30609, Note_on_c, 0, 51, 0
1, 30663, Note_on_c, 0, 47, 67
1, 30676, Note_on_c, 0, 49, 0
1, 30720, Tempo, 693642
1, 30730, Note_on_c, 0, 45, 72
1, 30743, Note_on_c, 0, 47, 0
1, 30780, Tempo, 699708
1, 30797, Note_on_c, 0, 44, 75
1, 30810, Note_on_c, 0, 45, 0
1, 30828, Tempo, 705882
1, 30864, Note_on_c, 0, 45, 78
1, 30878, Note_on_c, 0, 44, 0
1, 30888, Tempo, 712166
1, 30931, Note_on_c, 0, 41, 81
1, 30936, Tempo, 718563
1, 30945, Note_on_c, 0, 45, 0
1, 30984, Tempo, 725076
1, 30999, Note_on_c, 0, 42, 84
1, 31011, Note_on_c, 0, 41, 0
1, 31020, Tempo, 718563
1, 31032, Tempo, 725076
1, 31044, Tempo, 731707
1, 31056, Tempo, 738462
1, 31065, Note_on_c, 0, 43, 87
1, 31068, Tempo, 745342
1, 31079, Note_on_c, 0, 42, 0
1, 31080, Tempo, 752351
1, 31092, Tempo, 759494
1, 31104, Tempo, 766773
1, 31116, Tempo, 774194
1, 31128, Tempo, 781759
1, 31133, Note_on_c, 0, 44, 89
1, 31140, Tempo, 789474
1, 31145, Note_on_c, 0, 43, 0
1, 31152, Tempo, 797342
1, 31164, Tempo, 805369
1, 31176, Tempo, 813559
1, 31188, Tempo, 830450
1, 31194, Tempo, 659341
1, 31197, Note_on_c, 0, 44, 0
1, 31200, Time_signature, 8, 2, 24, 8
1, 31200, Note_on_c, 0, 44, 93
1, 31200, Control_c, 0, 64, 0
1, 31285, Control_c, 0, 64, 127
1, 31440, Note_on_c, 0, 44, 0
1, 31680, Note_on_c, 0, 32, 92
1, 31821, Control_c, 0, 64, 0
1, 31920, Note_on_c, 0, 32, 0
1, 32040, Tempo, 498960
1, 32040, Note_on_c, 0, 85, 73
1, 32040, Note_on_c, 0, 88, 73
1, 32040, Note_on_c, 0, 76, 61
1, 32040, Note_on_c, 0, 64, 50
1, 32040, Note_on_c, 0, 73, 50
1, 32040, Note_on_c, 0, 61, 42
1, 32083, Control_c, 0, 64, 127
1, 32130, Note_on_c, 0, 61, 0
1, 32130, Note_on_c, 0, 88, 0
1, 32130, Note_on_c, 0, 76, 0
1, 32130, Note_on_c, 0, 85, 0
1, 32130, Note_on_c, 0, 73, 0
1, 32130, Note_on_c, 0, 64, 0
1, 32160, Tempo, 505263
1, 32160, Note_on_c, 0, 88, 83
1, 32160, Note_on_c, 0, 85, 83
1, 32160, Note_on_c, 0, 76, 70
1, 32160, Note_on_c, 0, 73, 58
1, 32160, Note_on_c, 0, 61, 49
1, 32160, Note_on_c, 0, 64, 49
1, 33480, Note_on_c, 0, 64, 0
1, 33480, Note_on_c, 0, 85, 0
1, 33480, Note_on_c, 0, 76, 0
1, 33480, Note_on_c, 0, 88, 0
1, 33480, Note_on_c, 0, 61, 0
1, 33480, Note_on_c, 0, 73, 0
1, 33480, Note_on_c, 0, 87, 73
1, 33480, Note_on_c, 0, 83, 73
1, 33480, Note_on_c, 0, 75, 61
1, 33480, Note_on_c, 0, 71, 50
1, 33480, Note_on_c, 0, 59, 42
1, 33480, Note_on_c, 0, 63, 42
1, 33490, Control_c, 0, 64, 0
1, 33570, Note_on_c, 0, 63, 0
1, 33570, Note_on_c, 0, 83, 0
1, 33570, Note_on_c, 0, 75, 0
1, 33570, Note_on_c, 0, 87, 0
1, 33570, Note_on_c, 0, 59, 0
1, 33570, Note_on_c, 0, 71, 0
1, 33588, Tempo, 489796
1, 33590, Tempo, 475248
1, 33600, Note_on_c, 0, 87, 83
1, 33600, Note_on_c, 0, 83, 83
1, 33600, Note_on_c, 0, 75, 70
1, 33600, Note_on_c, 0, 71, 58
1, 33600, Note_on_c, 0, 59, 49
1, 33600, Note_on_c, 0, 63, 49
1, 33621, Control_c, 0, 64, 127
1, 33690, Tempo, 472441
1, 33790, Tempo, 469667
1, 33870, Tempo, 466926
1, 33960, Note_on_c, 0, 63, 0
1, 33960, Note_on_c, 0, 83, 0
1, 33960, Note_on_c, 0, 75, 0
1, 33960, Note_on_c, 0, 87, 0
1, 33960, Note_on_c, 0, 59, 0
1, 33960, Note_on_c, 0, 71, 0
1, 33960, Note_on_c, 0, 85, 73
1, 33960, Note_on_c, 0, 81, 73
1, 33960, Note_on_c, 0, 73, 61
1, 33960, Note_on_c, 0, 69, 50
1, 33960, Note_on_c, 0, 57, 42
1, 33960, Note_on_c, 0, 61, 42
1, 33970, Tempo, 464217
1, 33970, Control_c, 0, 64, 0
1, 34050, Note_on_c, 0, 61, 0
1, 34050, Note_on_c, 0, 81, 0
1, 34050, Note_on_c, 0, 73, 0
1, 34050, Note_on_c, 0, 85, 0
1, 34050, Note_on_c, 0, 57, 0
1, 34050, Note_on_c, 0, 69, 0
1, 34070, Tempo, 461538
1, 34080, Note_on_c, 0, 81, 80
1, 34080, Note_on_c, 0, 85, 80
1, 34080, Note_on_c, 0, 73, 68
1, 34080, Note_on_c, 0, 69, 56
1, 34080, Note_on_c, 0, 57, 47
1, 34080, Note_on_c, 0, 61, 47
1, 34108, Control_c, 0, 64, 127
1, 34150, Tempo, 458891
1, 34250, Tempo, 456274
1, 34350, Tempo, 453686
1, 34430, Tempo, 451128
1, 34440, Note_on_c, 0, 61, 0
1, 34440, Note_on_c, 0, 85, 0
1, 34440, Note_on_c, 0, 73, 0
1, 34440, Note_on_c, 0, 81, 0
1, 34440, Note_on_c, 0, 57, 0
1, 34440, Note_on_c, 0, 69, 0
1, 34440, Note_on_c, 0, 81, 73
1, 34440, Note_on_c, 0, 78, 73
1, 34440, Note_on_c, 0, 69, 61
1, 34440, Note_on_c, 0, 66, 50
1, 34440, Note_on_c, 0, 54, 42
1, 34440, Note_on_c, 0, 57, 42
1, 34454, Control_c, 0, 64, 0
1, 34530, Tempo, 448598
1, 34530, Note_on_c, 0, 57, 0
1, 34530, Note_on_c, 0, 78, 0
1, 34530, Note_on_c, 0, 69, 0
1, 34530, Note_on_c, 0, 81, 0
1, 34530, Note_on_c, 0, 54, 0
1, 34530, Note_on_c, 0, 66, 0
1, 34560, Note_on_c, 0, 81, 80
1, 34560, Note_on_c, 0, 78, 80
1, 34560, Note_on_c, 0, 69, 68
1, 34560, Note_on_c, 0, 66, 56
1, 34560, Note_on_c, 0, 54, 47
1, 34560, Note_on_c, 0, 57, 47
1, 34588, Control_c, 0, 64, 127
1, 34610, Tempo, 446097
1, 34670, Tempo, 443623
1, 34730, Tempo, 441176
1, 34790, Tempo, 438757
1, 34850, Tempo, 436364
1, 34910, Tempo, 433996
1, 34920, Note_on_c, 0, 57, 0
1, 34920, Note_on_c, 0, 78, 0
1, 34920, Note_on_c, 0, 69, 0
1, 34920, Note_on_c, 0, 81, 0
1, 34920, Note_on_c, 0, 54, 0
1, 34920, Note_on_c, 0, 66, 0
1, 34920, Note_on_c, 0, 80, 75
1, 34920, Note_on_c, 0, 76, 75
1, 34920, Note_on_c, 0, 68, 63
1, 34920, Note_on_c, 0, 64, 52
1, 34920, Note_on_c, 0, 52, 44
1, 34920, Note_on_c, 0, 56, 44
1, 34934, Control_c, 0, 64, 0
1, 34970, Tempo, 431655
1, 35010, Note_on_c, 0, 56, 0
1, 35010, Note_on_c, 0, 76, 0
1, 35010, Note_on_c, 0, 68, 0
1, 35010, Note_on_c, 0, 80, 0
1, 35010, Note_on_c, 0, 52, 0
1, 35010, Note_on_c, 0, 64, 0
1, 35030, Tempo, 429338
1, 35040, Note_on_c, 0, 80, 83
1, 35040, Note_on_c, 0, 76, 83
1, 35040, Note_on_c, 0, 68, 70
1, 35040, Note_on_c, 0, 64, 58
1, 35040, Note_on_c, 0, 52, 49
1, 35040, Note_on_c, 0, 56, 49
1, 35040, Control_c, 0, 64, 127
1, 35090, Tempo, 427046
1, 35350, Tempo, 427046
1, 35400, Note_on_c, 0, 56, 0
1, 35400, Note_on_c, 0, 76, 0
1, 35400, Note_on_c, 0, 68, 0
1, 35400, Note_on_c, 0, 80, 0
1, 35400, Note_on_c, 0, 52, 0
1, 35400, Note_on_c, 0, 64, 0
1, 35400, Note_on_c, 0, 76, 73
1, 35400, Note_on_c, 0, 73, 73
1, 35400, Note_on_c, 0, 64, 61
1, 35400, Note_on_c, 0, 61, 50
1, 35400, Note_on_c, 0, 49, 42
1, 35400, Note_on_c, 0, 52, 42
1, 35409, Control_c, 0, 64, 0
1, 35490, Note_on_c, 0, 52, 0
1, 35490, Note_on_c, 0, 73, 0
1, 35490, Note_on_c, 0, 64, 0
1, 35490, Note_on_c, 0, 76, 0
1, 35490, Note_on_c, 0, 49, 0
1, 35490, Note_on_c, 0, 61, 0
1, 35520, Note_on_c, 0, 73, 80
1, 35520, Note_on_c, 0, 76, 80
1, 35520, Note_on_c, 0, 64, 68
1, 35520, Note_on_c, 0, 61, 56
1, 35520, Note_on_c, 0, 49, 47
1, 35520, Note_on_c, 0, 52, 47
1, 35526, Control_c, 0, 64, 127
1, 35650, Tempo, 424779
1, 35880, Note_on_c, 0, 52, 0
1, 35880, Note_on_c, 0, 76, 0
1, 35880, Note_on_c, 0, 64, 0
1, 35880, Note_on_c, 0, 73, 0
1, 35880, Note_on_c, 0, 49, 0
1, 35880, Note_on_c, 0, 61, 0
1, 35880, Note_on_c, 0, 75, 73
1, 35880, Note_on_c, 0, 71, 73
1, 35880, Note_on_c, 0, 63, 61
1, 35880, Note_on_c, 0, 59, 50
1, 35880, Note_on_c, 0, 47, 42
1, 35880, Note_on_c, 0, 51, 42
1, 35894, Control_c, 0, 64, 0
1, 35950, Tempo, 422535
1, 35970, Tempo, 427046
1, 35970, Note_on_c, 0, 51, 0
1, 35970, Note_on_c, 0, 71, 0
1, 35970, Note_on_c, 0, 63, 0
1, 35970, Note_on_c, 0, 75, 0
1, 35970, Note_on_c, 0, 47, 0
1, 35970, Note_on_c, 0, 59, 0
1, 35990, Tempo, 422535
1, 36000, Note_on_c, 0, 75, 81
1, 36000, Note_on_c, 0, 71, 81
1, 36000, Note_on_c, 0, 63, 69
1, 36000, Note_on_c, 0, 59, 57
1, 36000, Note_on_c, 0, 47, 47
1, 36000, Note_on_c, 0, 51, 47
1, 36003, Control_c, 0, 64, 127
1, 36360, Note_on_c, 0, 51, 0
1, 36360, Note_on_c, 0, 71, 0
1, 36360, Note_on_c, 0, 63, 0
1, 36360, Note_on_c, 0, 75, 0
1, 36360, Note_on_c, 0, 47, 0
1, 36360, Note_on_c, 0, 59, 0
1, 36360, Note_on_c, 0, 73, 78
1, 36360, Note_on_c, 0, 69, 78
1, 36360, Note_on_c, 0, 61, 66
1, 36360, Note_on_c, 0, 57, 53
1, 36360, Note_on_c, 0, 45, 45
1, 36360, Note_on_c, 0, 49, 45
1, 36368, Control_c, 0, 64, 0
1, 36450, Note_on_c, 0, 49, 0
1, 36450, Note_on_c, 0, 69, 0
1, 36450, Note_on_c, 0, 61, 0
1, 36450, Note_on_c, 0, 73, 0
1, 36450, Note_on_c, 0, 45, 0
1, 36450, Note_on_c, 0, 57, 0
1, 36480, Note_on_c, 0, 73, 82
1, 36480, Note_on_c, 0, 69, 82
1, 36480, Note_on_c, 0, 61, 70
1, 36480, Note_on_c, 0, 57, 58
1, 36480, Note_on_c, 0, 45, 48
1, 36480, Note_on_c, 0, 49, 48
1, 36487, Control_c, 0, 64, 127
1, 36840, Note_on_c, 0, 49, 0
1, 36840, Note_on_c, 0, 69, 0
1, 36840, Note_on_c, 0, 61, 0
1, 36840, Note_on_c, 0, 73, 0
1, 36840, Note_on_c, 0, 45, 0
1, 36840, Note_on_c, 0, 57, 0
1, 36840, Note_on_c, 0, 69, 80
1, 36840, Note_on_c, 0, 66, 80
1, 36840, Note_on_c, 0, 57, 67
1, 36840, Note_on_c, 0, 54, 55
1, 36840, Note_on_c, 0, 42, 46
1, 36840, Note_on_c, 0, 45, 46
1, 36851, Control_c, 0, 64, 0
1, 36930, Note_on_c, 0, 45, 0
1, 36930, Note_on_c, 0, 66, 0
1, 36930, Note_on_c, 0, 57, 0
1, 36930, Note_on_c, 0, 69, 0
1, 36930, Note_on_c, 0, 42, 0
1, 36930, Note_on_c, 0, 54, 0
1, 36960, Note_on_c, 0, 69, 85
1, 36960, Note_on_c, 0, 66, 85
1, 36960, Note_on_c, 0, 57, 72
1, 36960, Note_on_c, 0, 54, 59
1, 36960, Note_on_c, 0, 42, 50
1, 36960, Note_on_c, 0, 45, 50
1, 36996, Control_c, 0, 64, 127
1, 37320, Note_on_c, 0, 45, 0
1, 37320, Note_on_c, 0, 66, 0
1, 37320, Note_on_c, 0, 57, 0
1, 37320, Note_on_c, 0, 69, 0
1, 37320, Note_on_c, 0, 42, 0
1, 37320, Note_on_c, 0, 54, 0
1, 37320, Note_on_c, 0, 68, 81
1, 37320, Note_on_c, 0, 64, 81
1, 37320, Note_on_c, 0, 56, 68
1, 37320, Note_on_c, 0, 52, 56
1, 37320, Note_on_c, 0, 40, 47
1, 37320, Note_on_c, 0, 44, 47
1, 37333, Control_c, 0, 64, 0
1, 37410, Note_on_c, 0, 44, 0
1, 37410, Note_on_c, 0, 64, 0
1, 37410, Note_on_c, 0, 56, 0
1, 37410, Note_on_c, 0, 68, 0
1, 37410, Note_on_c, 0, 40, 0
1, 37410, Note_on_c, 0, 52, 0
1, 37440, Note_on_c, 0, 68, 86
1, 37440, Note_on_c, 0, 64, 86
1, 37440, Note_on_c, 0, 56, 73
1, 37440, Note_on_c, 0, 52, 60
1, 37440, Note_on_c, 0, 40, 50
1, 37440, Note_on_c, 0, 44, 50
1, 37451, Control_c, 0, 64, 127
1, 37800, Note_on_c, 0, 44, 0
1, 37800, Note_on_c, 0, 64, 0
1, 37800, Note_on_c, 0, 56, 0
1, 37800, Note_on_c, 0, 68, 0
1, 37800, Note_on_c, 0, 40, 0
1, 37800, Note_on_c, 0, 52, 0
1, 37800, Note_on_c, 0, 64, 83
1, 37800, Note_on_c, 0, 61, 83
1, 37800, Note_on_c, 0, 52, 70
1, 37800, Note_on_c, 0, 49, 58
1, 37800, Note_on_c, 0, 37, 48
1, 37800, Note_on_c, 0, 40, 48
1, 37812, Control_c, 0, 64, 0
1, 37850, Tempo, 420315
1, 37890, Note_on_c, 0, 40, 0
1, 37890, Note_on_c, 0, 61, 0
1, 37890, Note_on_c, 0, 52, 0
1, 37890, Note_on_c, 0, 64, 0
1, 37890, Note_on_c, 0, 37, 0
1, 37890, Note_on_c, 0, 49, 0
1, 37920, Note_on_c, 0, 64, 89
1, 37920, Note_on_c, 0, 61, 89
1, 37920, Note_on_c, 0, 52, 74
1, 37920, Note_on_c, 0, 49, 61
1, 37920, Note_on_c, 0, 37, 51
1, 37920, Note_on_c, 0, 40, 51
1, 37927, Control_c, 0, 64, 127
1, 38280, Note_on_c, 0, 40, 0
1, 38280, Note_on_c, 0, 61, 0
1, 38280, Note_on_c, 0, 52, 0
1, 38280, Note_on_c, 0, 64, 0
1, 38280, Note_on_c, 0, 37, 0
1, 38280, Note_on_c, 0, 49, 0
1, 38280, Note_on_c, 0, 63, 84
1, 38280, Note_on_c, 0, 59, 84
1, 38280, Note_on_c, 0, 51, 71
1, 38280, Note_on_c, 0, 47, 59
1, 38280, Note_on_c, 0, 35, 49
1, 38280, Note_on_c, 0, 39, 49
1, 38290, Control_c, 0, 64, 0
1, 38370, Note_on_c, 0, 39, 0
1, 38370, Note_on_c, 0, 59, 0
1, 38370, Note_on_c, 0, 51, 0
1, 38370, Note_on_c, 0, 63, 0
1, 38370, Note_on_c, 0, 35, 0
1, 38370, Note_on_c, 0, 47, 0
1, 38400, Note_on_c, 0, 63, 91
1, 38400, Note_on_c, 0, 59, 91
1, 38400, Note_on_c, 0, 51, 77
1, 38400, Note_on_c, 0, 47, 63
1, 38400, Note_on_c, 0, 35, 53
1, 38400, Note_on_c, 0, 39, 53
1, 38414, Control_c, 0, 64, 127
1, 38450, Tempo, 422535
1, 38470, Tempo, 424779
1, 38490, Tempo, 427046
1, 38510, Tempo, 429338
1, 38530, Tempo, 431655
1, 38550, Tempo, 433996
1, 38570, Tempo, 436364
1, 38590, Tempo, 438757
1, 38610, Tempo, 443623
1, 38630, Tempo, 446097
1, 38650, Tempo, 448598
1, 38670, Tempo, 451128
1, 38690, Tempo, 453686
1, 38710, Tempo, 456274
1, 38730, Tempo, 458891
1, 38750, Tempo, 461538
1, 38760, Note_on_c, 0, 39, 0
1, 38760, Note_on_c, 0, 59, 0
1, 38760, Note_on_c, 0, 51, 0
1, 38760, Note_on_c, 0, 63, 0
1, 38760, Note_on_c, 0, 35, 0
1, 38760, Note_on_c, 0, 47, 0
1, 38760, Note_on_c, 0, 61, 86
1, 38760, Note_on_c, 0, 57, 86
1, 38760, Note_on_c, 0, 49, 72
1, 38760, Note_on_c, 0, 45, 60
1, 38760, Note_on_c, 0, 33, 50
1, 38760, Note_on_c, 0, 40, 50
1, 38770, Tempo, 466926
1, 38772, Control_c, 0, 64, 0
1, 38790, Tempo, 461538
1, 38850, Note_on_c, 0, 40, 0
1, 38850, Note_on_c, 0, 57, 0
1, 38850, Note_on_c, 0, 49, 0
1, 38850, Note_on_c, 0, 61, 0
1, 38850, Note_on_c, 0, 33, 0
1, 38850, Note_on_c, 0, 45, 0
1, 38874, Control_c, 0, 64, 127
1, 38880, Note_on_c, 0, 61, 91
1, 38880, Note_on_c, 0, 49, 78
1, 38880, Note_on_c, 0, 57, 78
1, 38880, Note_on_c, 0, 45, 81
1, 38880, Note_on_c, 0, 33, 68
1, 38880, Note_on_c, 0, 40, 68
1, 38910, Tempo, 464217
1, 39010, Tempo, 466926
1, 39110, Tempo, 469667
1, 39210, Tempo, 472441
1, 39330, Tempo, 475248
1, 39360, Note_on_c, 0, 40, 0
1, 39360, Note_on_c, 0, 45, 0
1, 39360, Note_on_c, 0, 33, 0
1, 39360, Note_on_c, 0, 43, 80
1, 39360, Note_on_c, 0, 31, 68
1, 39430, Tempo, 478088
1, 39530, Tempo, 480962
1, 39630, Tempo, 483871
1, 39730, Tempo, 486815
1, 39840, Note_on_c, 0, 31, 0
1, 39840, Note_on_c, 0, 61, 0
1, 39840, Note_on_c, 0, 49, 0
1, 39840, Note_on_c, 0, 57, 0
1, 39840, Note_on_c, 0, 43, 0
1, 39840, Note_on_c, 0, 62, 86
1, 39840, Note_on_c, 0, 50, 72
1, 39840, Note_on_c, 0, 53, 72
1, 39840, Note_on_c, 0, 57, 72
1, 39840, Note_on_c, 0, 41, 84
1, 39840, Note_on_c, 0, 29, 71
1, 39852, Tempo, 505263
1, 39854, Control_c, 0, 64, 0
1, 40035, Control_c, 0, 64, 127
1, 40320, Note_on_c, 0, 29, 0
1, 40320, Note_on_c, 0, 41, 0
1, 40320, Note_on_c, 0, 40, 84
1, 40320, Note_on_c, 0, 28, 71
1, 40800, Note_on_c, 0, 28, 0
1, 40800, Note_on_c, 0, 50, 0
1, 40800, Note_on_c, 0, 57, 0
1, 40800, Note_on_c, 0, 62, 0
1, 40800, Note_on_c, 0, 40, 0
1, 40800, Note_on_c, 0, 53, 0
1, 40800, Note_on_c, 0, 66, 95
1, 40800, Note_on_c, 0, 54, 80
1, 40800, Note_on_c, 0, 57, 80
1, 40800, Note_on_c, 0, 62, 80
1, 40800, Note_on_c, 0, 38, 83
1, 40800, Note_on_c, 0, 26, 70
1, 40812, Tempo, 525164
1, 40816, Control_c, 0, 64, 0
1, 40937, Control_c, 0, 64, 127
1, 41280, Note_on_c, 0, 26, 0
1, 41280, Note_on_c, 0, 38, 0
1, 41280, Note_on_c, 0, 37, 80
1, 41280, Note_on_c, 0, 25, 68
1, 41760, Tempo, 797342
1, 41760, Note_on_c, 0, 25, 0
1, 41760, Note_on_c, 0, 54, 0
1, 41760, Note_on_c, 0, 62, 0
1, 41760, Note_on_c, 0, 66, 0
1, 41760, Note_on_c, 0, 37, 0
1, 41760, Note_on_c, 0, 57, 0
1, 41760, Note_on_c, 0, 68, 98
1, 41760, Note_on_c, 0, 54, 63
1, 41760, Note_on_c, 0, 56, 70
1, 41760, Note_on_c, 0, 60, 70
1, 41760, Note_on_c, 0, 63, 78
1, 41760, Note_on_c, 0, 36, 85
1, 41760, Note_on_c, 0, 24, 72
1, 41774, Control_c, 0, 64, 0
1, 41831, Control_c, 0, 64, 127
1, 42000, Tempo, 1283422
1, 42000, Note_on_c, 0, 24, 0
1, 42000, Note_on_c, 0, 36, 0
1, 42000, Note_on_c, 0, 45, 81
1, 42000, Note_on_c, 0, 33, 69
1, 42013, Control_c, 0, 64, 0
1, 42060, Tempo, 1690141
1, 42096, Control_c, 0, 64, 127
1, 42480, Tempo, 5217391
1, 42480, Note_on_c, 0, 33, 0
1, 42480, Note_on_c, 0, 45, 0
1, 42480, Note_on_c, 0, 44, 79
1, 42480, Note_on_c, 0, 32, 67
1, 42493, Control_c, 0, 64, 0
1, 42600, Note_on_c, 0, 32, 0
1, 42600, Note_on_c, 0, 44, 0
1, 42660, Tempo, 1105991
1, 42660, Note_on_c, 0, 54, 0
1, 42660, Note_on_c, 0, 56, 0
1, 42660, Note_on_c, 0, 68, 0
1, 42660, Note_on_c, 0, 63, 0
1, 42660, Note_on_c, 0, 60, 0
1, 42660, Control_c, 0, 64, 127
1, 42680, Marker_t, "Adagio"
1, 42680, Note_on_c, 0, 61, 65
1, 42710, Note_on_c, 0, 61, 0
1, 42720, Time_signature, 4, 2, 24, 8
1, 42720, Tempo, 1090909
1, 42720, Note_on_c, 0, 61, 72
1, 42720, Note_on_c, 0, 56, 61
1, 42720, Note_on_c, 0, 52, 61
1, 42720, Note_on_c, 0, 49, 63
1, 42720, Note_on_c, 0, 37, 53
1, 42720, Note_on_c, 0, 44, 53
1, 43140, Note_on_c, 0, 52, 0
1, 43140, Note_on_c, 0, 61, 0
1, 43140, Note_on_c, 0, 56, 0
1, 43160, Note_on_c, 0, 66, 70
1, 43165, Control_c, 0, 64, 0
1, 43190, Note_on_c, 0, 66, 0
1, 43200, Note_on_c, 0, 44, 0
1, 43200, Note_on_c, 0, 37, 0
1, 43200, Note_on_c, 0, 49, 0
1, 43200, Note_on_c, 0, 66, 71
1, 43200, Note_on_c, 0, 57, 60
1, 43200, Note_on_c, 0, 54, 60
1, 43200, Note_on_c, 0, 51, 62
1, 43200, Note_on_c, 0, 36, 52
1, 43200, Note_on_c, 0, 45, 52
1, 43226, Control_c, 0, 64, 127
1, 43620, Note_on_c, 0, 54, 0
1, 43620, Note_on_c, 0, 66, 0
1, 43620, Note_on_c, 0, 57, 0
1, 43640, Note_on_c, 0, 64, 69
1, 43646, Control_c, 0, 64, 0
1, 43670, Note_on_c, 0, 64, 0
1, 43680, Tempo, 1153846
1, 43680, Note_on_c, 0, 45, 0
1, 43680, Note_on_c, 0, 36, 0
1, 43680, Note_on_c, 0, 51, 0
1, 43680, Note_on_c, 0, 64, 70
1, 43680, Note_on_c, 0, 56, 59
1, 43680, Note_on_c, 0, 52, 59
1, 43680, Note_on_c, 0, 49, 59
1, 43680, Note_on_c, 0, 37, 50
1, 43680, Note_on_c, 0, 44, 50
1, 43715, Control_c, 0, 64, 127
1, 43860, Note_on_c, 0, 52, 0
1, 43860, Note_on_c, 0, 64, 0
1, 43860, Note_on_c, 0, 56, 0
1, 43880, Note_on_c, 0, 63, 67
1, 43890, Control_c, 0, 64, 0
1, 43910, Note_on_c, 0, 63, 0
1, 43920, Note_on_c, 0, 44, 0
1, 43920, Note_on_c, 0, 37, 0
1, 43920, Note_on_c, 0, 49, 0
1, 43920, Note_on_c, 0, 63, 70
1, 43920, Note_on_c, 0, 54, 59
1, 43920, Note_on_c, 0, 51, 59
1, 43920, Note_on_c, 0, 45, 52
1, 43920, Note_on_c, 0, 30, 44
1, 43920, Note_on_c, 0, 42, 44
1, 43952, Control_c, 0, 64, 127
1, 44100, Note_on_c, 0, 51, 0
1, 44100, Note_on_c, 0, 63, 0
1, 44100, Note_on_c, 0, 54, 0
1, 44120, Note_on_c, 0, 61, 68
1, 44130, Control_c, 0, 64, 0
1, 44150, Note_on_c, 0, 61, 0
1, 44160, Tempo, 1105991
1, 44160, Note_on_c, 0, 42, 0
1, 44160, Note_on_c, 0, 30, 0
1, 44160, Note_on_c, 0, 45, 0
1, 44160, Note_on_c, 0, 61, 71
1, 44160, Note_on_c, 0, 52, 60
1, 44160, Note_on_c, 0, 49, 60
1, 44160, Note_on_c, 0, 44, 60
1, 44160, Note_on_c, 0, 32, 51
1, 44160, Note_on_c, 0, 40, 51
1, 44200, Control_c, 0, 64, 127
1, 44340, Note_on_c, 0, 49, 0
1, 44340, Note_on_c, 0, 61, 0
1, 44340, Note_on_c, 0, 52, 0
1, 44360, Note_on_c, 0, 60, 68
1, 44379, Control_c, 0, 64, 0
1, 44390, Note_on_c, 0, 60, 0
1, 44400, Tempo, 1188119
1, 44400, Note_on_c, 0, 40, 0
1, 44400, Note_on_c, 0, 32, 0
1, 44400, Note_on_c, 0, 44, 0
1, 44400, Note_on_c, 0, 60, 70
1, 44400, Note_on_c, 0, 51, 59
1, 44400, Note_on_c, 0, 48, 59
1, 44400, Note_on_c, 0, 44, 57
1, 44400, Note_on_c, 0, 42, 48
1, 44400, Note_on_c, 0, 39, 48
1, 44400, Note_on_c, 0, 32, 48
1, 44440, Control_c, 0, 64, 127
1, 44580, Note_on_c, 0, 48, 0
1, 44580, Note_on_c, 0, 60, 0
1, 44580, Note_on_c, 0, 51, 0
1, 44600, Note_on_c, 0, 61, 70
1, 44610, Control_c, 0, 64, 0
1, 44630, Note_on_c, 0, 61, 0
1, 44640, Tempo, 1589404
1, 44640, Note_on_c, 0, 32, 0
1, 44640, Note_on_c, 0, 44, 0
1, 44640, Note_on_c, 0, 39, 0
1, 44640, Note_on_c, 0, 42, 0
1, 44640, Note_on_c, 0, 61, 71
1, 44640, Note_on_c, 0, 52, 60
1, 44640, Note_on_c, 0, 49, 60
1, 44640, Note_on_c, 0, 37, 52
1, 44640, Note_on_c, 0, 40, 52
1, 44640, Note_on_c, 0, 44, 57
1, 44683, Control_c, 0, 64, 127
1, 44712, Control_c, 0, 64, 0
1, 44760, Note_on_c, 0, 44, 0
1, 44760, Note_on_c, 0, 52, 0
1, 44760, Note_on_c, 0, 49, 0
1, 44760, Note_on_c, 0, 61, 0
1, 44760, Note_on_c, 0, 40, 0
1, 44760, Note_on_c, 0, 37, 0
1, 44820, Note_on_c, 0, 49, 70
1, 44880, Tempo, 857143
1, 44880, Note_on_c, 0, 49, 0
1, 44880, Note_on_c, 0, 45, 66
1, 44880, Note_on_c, 0, 51, 66
1, 44880, Note_on_c, 0, 30, 52
1, 44880, Note_on_c, 0, 37, 52
1, 44880, Note_on_c, 0, 42, 57
1, 44886, Control_c, 0, 64, 127
1, 44890, Tempo, 1105991
1, 44892, Tempo, 839161
1, 44940, Note_on_c, 0, 51, 0
1, 44940, Note_on_c, 0, 49, 61
1, 44964, Tempo, 830450
1, 45000, Note_on_c, 0, 49, 0
1, 45000, Note_on_c, 0, 42, 0
1, 45000, Note_on_c, 0, 37, 0
1, 45000, Note_on_c, 0, 30, 0
1, 45000, Note_on_c, 0, 51, 66
1, 45012, Tempo, 821918
1, 45060, Tempo, 813559
1, 45060, Note_on_c, 0, 51, 0
1, 45060, Note_on_c, 0, 49, 61
1, 45084, Tempo, 797342
1, 45120, Note_on_c, 0, 49, 0
1, 45120, Note_on_c, 0, 51, 66
1, 45180, Tempo, 789474
1, 45180, Note_on_c, 0, 51, 0
1, 45180, Note_on_c, 0, 49, 60
1, 45240, Note_on_c, 0, 49, 0
1, 45240, Note_on_c, 0, 51, 66
1, 45252, Tempo, 781759
1, 45300, Note_on_c, 0, 51, 0
1, 45300, Note_on_c, 0, 49, 61
1, 45324, Tempo, 774194
1, 45360, Note_on_c, 0, 49, 0
1, 45360, Note_on_c, 0, 51, 66
1, 45384, Tempo, 781759
1, 45408, Tempo, 805369
1, 45420, Note_on_c, 0, 51, 0
1, 45420, Note_on_c, 0, 49, 61
1, 45432, Tempo, 830450
1, 45456, Tempo, 857143
1, 45480, Tempo, 885609
1, 45480, Note_on_c, 0, 49, 0
1, 45480, Note_on_c, 0, 48, 66
1, 45504, Tempo, 916031
1, 45528, Tempo, 948617
1, 45540, Note_on_c, 0, 48, 0
1, 45540, Note_on_c, 0, 49, 61
1, 45552, Tempo, 983607
1, 45588, Tempo, 848057
1, 45600, Tempo, 830450
1, 45600, Note_on_c, 0, 49, 0
1, 45600, Note_on_c, 0, 45, 0
1, 45600, Note_on_c, 0, 52, 71
1, 45620, Control_c, 0, 64, 0
1, 45624, Tempo, 839161
1, 45648, Tempo, 848057
1, 45657, Control_c, 0, 64, 127
1, 45672, Tempo, 866426
1, 45680, Note_on_c, 0, 52, 0
1, 45680, Note_on_c, 0, 51, 65
1, 45696, Tempo, 875912
1, 45720, Tempo, 885609
1, 45744, Tempo, 905660
1, 45760, Note_on_c, 0, 51, 0
1, 45760, Note_on_c, 0, 49, 65
1, 45768, Tempo, 916031
1, 45792, Tempo, 937500
1, 45840, Tempo, 1021277
1, 45840, Note_on_c, 0, 49, 0
1, 45840, Note_on_c, 0, 44, 70
1, 45840, Note_on_c, 0, 49, 70
1, 45840, Note_on_c, 0, 37, 52
1, 45840, Note_on_c, 0, 40, 57
1, 45852, Control_c, 0, 64, 0
1, 45883, Control_c, 0, 64, 127
1, 45900, Note_on_c, 0, 40, 0
1, 45900, Note_on_c, 0, 44, 0
1, 45900, Note_on_c, 0, 49, 0
1, 45900, Note_on_c, 0, 37, 0
1, 45940, Control_c, 0, 64, 0
1, 46080, Tempo, 839161
1, 46500, Tempo, 1105991
1, 46500, Control_c, 0, 64, 127
1, 46520, Note_on_c, 0, 68, 65
1, 46560, Tempo, 1090909
1, 46560, Note_on_c, 0, 68, 0
1, 46560, Note_on_c, 0, 68, 72
1, 46560, Note_on_c, 0, 63, 61
1, 46560, Note_on_c, 0, 59, 61
1, 46560, Note_on_c, 0, 56, 63
1, 46560, Note_on_c, 0, 44, 53
1, 46560, Note_on_c, 0, 51, 53
1, 46980, Note_on_c, 0, 59, 0
1, 46980, Note_on_c, 0, 68, 0
1, 46980, Note_on_c, 0, 63, 0
1, 47000, Note_on_c, 0, 73, 70
1, 47005, Control_c, 0, 64, 0
1, 47030, Note_on_c, 0, 73, 0
1, 47040, Tempo, 1153846
1, 47040, Note_on_c, 0, 51, 0
1, 47040, Note_on_c, 0, 44, 0
1, 47040, Note_on_c, 0, 56, 0
1, 47040, Note_on_c, 0, 73, 71
1, 47040, Note_on_c, 0, 64, 60
1, 47040, Note_on_c, 0, 61, 60
1, 47040, Note_on_c, 0, 58, 62
1, 47040, Note_on_c, 0, 43, 52
1, 47040, Note_on_c, 0, 52, 52
1, 47066, Control_c, 0, 64, 127
1, 47460, Note_on_c, 0, 61, 0
1, 47460, Note_on_c, 0, 73, 0
1, 47460, Note_on_c, 0, 64, 0
1, 47480, Note_on_c, 0, 71, 69
1, 47486, Control_c, 0, 64, 0
1, 47520, Tempo, 1121495
1, 47520, Note_on_c, 0, 71, 0
1, 47520, Note_on_c, 0, 52, 0
1, 47520, Note_on_c, 0, 43, 0
1, 47520, Note_on_c, 0, 58, 0
1, 47520, Note_on_c, 0, 71, 70
1, 47520, Note_on_c, 0, 63, 59
1, 47520, Note_on_c, 0, 59, 59
1, 47520, Note_on_c, 0, 56, 59
1, 47520, Note_on_c, 0, 44, 50
1, 47520, Note_on_c, 0, 51, 50
1, 47555, Control_c, 0, 64, 127
1, 47700, Tempo, 1061947
1, 47700, Note_on_c, 0, 59, 0
1, 47700, Note_on_c, 0, 71, 0
1, 47700, Note_on_c, 0, 63, 0
1, 47720, Note_on_c, 0, 69, 67
1, 47730, Control_c, 0, 64, 0
1, 47750, Note_on_c, 0, 69, 0
1, 47760, Note_on_c, 0, 51, 0
1, 47760, Note_on_c, 0, 44, 0
1, 47760, Note_on_c, 0, 56, 0
1, 47760, Note_on_c, 0, 69, 70
1, 47760, Note_on_c, 0, 61, 59
1, 47760, Note_on_c, 0, 57, 59
1, 47760, Note_on_c, 0, 52, 52
1, 47760, Note_on_c, 0, 37, 44
1, 47760, Note_on_c, 0, 49, 44
1, 47792, Control_c, 0, 64, 127
1, 47940, Note_on_c, 0, 57, 0
1, 47940, Note_on_c, 0, 69, 0
1, 47940, Note_on_c, 0, 61, 0
1, 47960, Note_on_c, 0, 56, 68
1, 47960, Note_on_c, 0, 68, 68
1, 47970, Control_c, 0, 64, 0
1, 47990, Note_on_c, 0, 68, 0
1, 47990, Note_on_c, 0, 56, 0
1, 48000, Tempo, 1105991
1, 48000, Note_on_c, 0, 49, 0
1, 48000, Note_on_c, 0, 37, 0
1, 48000, Note_on_c, 0, 52, 0
1, 48000, Note_on_c, 0, 68, 71
1, 48000, Note_on_c, 0, 59, 60
1, 48000, Note_on_c, 0, 56, 60
1, 48000, Note_on_c, 0, 51, 60
1, 48000, Note_on_c, 0, 39, 51
1, 48000, Note_on_c, 0, 47, 51
1, 48040, Control_c, 0, 64, 127
1, 48180, Note_on_c, 0, 56, 0
1, 48180, Note_on_c, 0, 68, 0
1, 48180, Note_on_c, 0, 59, 0
1, 48200, Note_on_c, 0, 67, 68
1, 48219, Control_c, 0, 64, 0
1, 48230, Note_on_c, 0, 67, 0
1, 48240, Tempo, 1206030
1, 48240, Note_on_c, 0, 47, 0
1, 48240, Note_on_c, 0, 39, 0
1, 48240, Note_on_c, 0, 51, 0
1, 48240, Note_on_c, 0, 67, 70
1, 48240, Note_on_c, 0, 58, 59
1, 48240, Note_on_c, 0, 55, 59
1, 48240, Note_on_c, 0, 51, 57
1, 48240, Note_on_c, 0, 49, 48
1, 48240, Note_on_c, 0, 46, 48
1, 48240, Note_on_c, 0, 39, 48
1, 48280, Control_c, 0, 64, 127
1, 48420, Note_on_c, 0, 55, 0
1, 48420, Note_on_c, 0, 67, 0
1, 48420, Note_on_c, 0, 58, 0
1, 48440, Note_on_c, 0, 68, 70
1, 48450, Control_c, 0, 64, 0
1, 48470, Note_on_c, 0, 68, 0
1, 48480, Tempo, 1589404
1, 48480, Note_on_c, 0, 39, 0
1, 48480, Note_on_c, 0, 51, 0
1, 48480, Note_on_c, 0, 46, 0
1, 48480, Note_on_c, 0, 49, 0
1, 48480, Note_on_c, 0, 68, 71
1, 48480, Note_on_c, 0, 59, 60
1, 48480, Note_on_c, 0, 56, 60
1, 48480, Note_on_c, 0, 44, 52
1, 48480, Note_on_c, 0, 47, 52
1, 48480, Note_on_c, 0, 51, 57
1, 48523, Control_c, 0, 64, 127
1, 48552, Control_c, 0, 64, 0
1, 48600, Note_on_c, 0, 51, 0
1, 48600, Note_on_c, 0, 59, 0
1, 48600, Note_on_c, 0, 56, 0
1, 48600, Note_on_c, 0, 68, 0
1, 48600, Note_on_c, 0, 47, 0
1, 48600, Note_on_c, 0, 44, 0
1, 48660, Note_on_c, 0, 56, 63
1, 48720, Tempo, 857143
1, 48720, Note_on_c, 0, 56, 0
1, 48720, Note_on_c, 0, 52, 59
1, 48720, Note_on_c, 0, 58, 59
1, 48720, Note_on_c, 0, 37, 46
1, 48720, Note_on_c, 0, 46, 50
1, 48726, Control_c, 0, 64, 127
1, 48730, Tempo, 1105991
1, 48732, Tempo, 839161
1, 48780, Note_on_c, 0, 46, 0
1, 48780, Note_on_c, 0, 58, 0
1, 48780, Note_on_c, 0, 56, 54
1, 48780, Note_on_c, 0, 44, 45
1, 48804, Tempo, 830450
1, 48840, Note_on_c, 0, 44, 0
1, 48840, Note_on_c, 0, 56, 0
1, 48840, Note_on_c, 0, 58, 59
1, 48840, Note_on_c, 0, 46, 50
1, 48852, Tempo, 821918
1, 48900, Tempo, 813559
1, 48900, Note_on_c, 0, 46, 0
1, 48900, Note_on_c, 0, 58, 0
1, 48900, Note_on_c, 0, 56, 54
1, 48900, Note_on_c, 0, 44, 45
1, 48924, Tempo, 797342
1, 48960, Note_on_c, 0, 44, 0
1, 48960, Note_on_c, 0, 56, 0
1, 48960, Note_on_c, 0, 58, 59
1, 48960, Note_on_c, 0, 46, 50
1, 49020, Tempo, 789474
1, 49020, Note_on_c, 0, 46, 0
1, 49020, Note_on_c, 0, 58, 0
1, 49020, Note_on_c, 0, 56, 54
1, 49020, Note_on_c, 0, 44, 45
1, 49080, Note_on_c, 0, 44, 0
1, 49080, Note_on_c, 0, 56, 0
1, 49080, Note_on_c, 0, 58, 59
1, 49080, Note_on_c, 0, 46, 50
1, 49092, Tempo, 781759
1, 49140, Note_on_c, 0, 46, 0
1, 49140, Note_on_c, 0, 58, 0
1, 49140, Note_on_c, 0, 56, 54
1, 49140, Note_on_c, 0, 44, 45
1, 49164, Tempo, 774194
1, 49200, Note_on_c, 0, 44, 0
1, 49200, Note_on_c, 0, 56, 0
1, 49200, Note_on_c, 0, 58, 59
1, 49200, Note_on_c, 0, 46, 50
1, 49224, Tempo, 781759
1, 49248, Tempo, 805369
1, 49260, Note_on_c, 0, 46, 0
1, 49260, Note_on_c, 0, 58, 0
1, 49260, Note_on_c, 0, 56, 54
1, 49260, Note_on_c, 0, 44, 45
1, 49272, Tempo, 830450
1, 49296, Tempo, 857143
1, 49320, Tempo, 885609
1, 49320, Note_on_c, 0, 44, 0
1, 49320, Note_on_c, 0, 56, 0
1, 49320, Note_on_c, 0, 55, 59
1, 49320, Note_on_c, 0, 43, 50
1, 49344, Tempo, 916031
1, 49368, Tempo, 948617
1, 49380, Note_on_c, 0, 43, 0
1, 49380, Note_on_c, 0, 55, 0
1, 49380, Note_on_c, 0, 56, 54
1, 49380, Note_on_c, 0, 44, 45
1, 49392, Tempo, 983607
1, 49428, Tempo, 848057
1, 49440, Tempo, 830450
1, 49440, Note_on_c, 0, 44, 0
1, 49440, Note_on_c, 0, 52, 0
1, 49440, Note_on_c, 0, 37, 0
1, 49440, Note_on_c, 0, 56, 0
1, 49440, Note_on_c, 0, 59, 63
1, 49440, Note_on_c, 0, 47, 54
1, 49460, Control_c, 0, 64, 0
1, 49464, Tempo, 839161
1, 49488, Tempo, 848057
1, 49497, Control_c, 0, 64, 127
1, 49512, Tempo, 866426
1, 49520, Note_on_c, 0, 47, 0
1, 49520, Note_on_c, 0, 59, 0
1, 49520, Note_on_c, 0, 58, 58
1, 49520, Note_on_c, 0, 46, 49
1, 49536, Tempo, 875912
1, 49560, Tempo, 885609
1, 49584, Tempo, 905660
1, 49600, Note_on_c, 0, 46, 0
1, 49600, Note_on_c, 0, 58, 0
1, 49600, Note_on_c, 0, 56, 58
1, 49600, Note_on_c, 0, 44, 49
1, 49608, Tempo, 916031
1, 49632, Tempo, 937500
1, 49680, Note_on_c, 0, 44, 0
1, 49680, Note_on_c, 0, 56, 0
1, 49680, Note_on_c, 0, 47, 56
1, 49680, Note_on_c, 0, 51, 56
1, 49680, Note_on_c, 0, 56, 56
1, 49680, Note_on_c, 0, 32, 41
1, 49680, Note_on_c, 0, 39, 41
1, 49680, Note_on_c, 0, 44, 45
1, 49692, Control_c, 0, 64, 0
1, 49723, Control_c, 0, 64, 127
1, 49740, Note_on_c, 0, 56, 0
1, 49740, Note_on_c, 0, 47, 0
1, 49740, Note_on_c, 0, 51, 0
1, 49795, Control_c, 0, 64, 0
1, 49800, Note_on_c, 0, 32, 0
1, 49800, Note_on_c, 0, 39, 0
1, 49800, Note_on_c, 0, 44, 0
1, 49920, Tempo, 1395349
1, 50280, Tempo, 1889764
1, 50280, Marker_t, "Un poco piu lento"
1, 50280, Note_on_c, 0, 68, 52
1, 50314, Control_c, 0, 64, 127
1, 50325, Note_on_c, 0, 40, 44
1, 50340, Note_on_c, 0, 68, 0
1, 50340, Note_on_c, 0, 47, 46
1, 50355, Note_on_c, 0, 56, 48
1, 50370, Note_on_c, 0, 59, 48
1, 50385, Note_on_c, 0, 64, 50
1, 50400, Tempo, 839161
1, 50400, Note_on_c, 0, 68, 55
1, 50640, Tempo, 789474
1, 50880, Tempo, 821918
1, 51120, Note_on_c, 0, 68, 0
1, 51120, Note_on_c, 0, 69, 52
1, 51240, Tempo, 752351
1, 51240, Note_on_c, 0, 69, 0
1, 51240, Note_on_c, 0, 71, 52
1, 51340, Note_on_c, 0, 71, 0
1, 51360, Tempo, 848057
1, 51360, Note_on_c, 0, 71, 52
1, 51420, Note_on_c, 0, 71, 0
1, 51420, Note_on_c, 0, 64, 56
1, 51600, Tempo, 805369
1, 52200, Tempo, 839161
1, 52200, Note_on_c, 0, 64, 0
1, 52200, Note_on_c, 0, 63, 56
1, 52214, Control_c, 0, 64, 0
1, 52300, Note_on_c, 0, 63, 0
1, 52320, Tempo, 1348315
1, 52320, Note_on_c, 0, 64, 0
1, 52320, Note_on_c, 0, 56, 0
1, 52320, Note_on_c, 0, 40, 0
1, 52320, Note_on_c, 0, 47, 0
1, 52320, Note_on_c, 0, 59, 0
1, 52320, Note_on_c, 0, 63, 56
1, 52320, Note_on_c, 0, 51, 46
1, 52320, Note_on_c, 0, 35, 39
1, 52320, Control_c, 0, 64, 127
1, 52380, Tempo, 848057
1, 52380, Note_on_c, 0, 57, 47
1, 52380, Note_on_c, 0, 66, 54
1, 52440, Tempo, 848057
1, 52440, Note_on_c, 0, 63, 0
1, 52800, Tempo, 839161
1, 52800, Note_on_c, 0, 64, 44
1, 52920, Note_on_c, 0, 64, 0
1, 52920, Note_on_c, 0, 66, 43
1, 53040, Note_on_c, 0, 66, 0
1, 53040, Note_on_c, 0, 68, 46
1, 53078, Tempo, 1061947
1, 53108, Tempo, 1076233
1, 53120, Note_on_c, 0, 68, 0
1, 53120, Note_on_c, 0, 66, 44
1, 53123, Tempo, 1090909
1, 53153, Tempo, 1105991
1, 53168, Tempo, 1121495
1, 53198, Tempo, 1137441
1, 53200, Note_on_c, 0, 66, 0
1, 53200, Note_on_c, 0, 64, 44
1, 53213, Tempo, 1153846
1, 53228, Tempo, 1170732
1, 53243, Tempo, 1500000
1, 53258, Tempo, 1558442
1, 53280, Tempo, 866426
1, 53280, Note_on_c, 0, 64, 0
1, 53280, Note_on_c, 0, 66, 0
1, 53280, Note_on_c, 0, 51, 0
1, 53280, Note_on_c, 0, 35, 0
1, 53280, Note_on_c, 0, 57, 0
1, 53280, Note_on_c, 0, 56, 39
1, 53280, Note_on_c, 0, 64, 44
1, 53280, Note_on_c, 0, 47, 39
1, 53280, Note_on_c, 0, 40, 32
1, 53319, Control_c, 0, 64, 0
1, 53460, Control_c, 0, 64, 127
1, 54120, Tempo, 1283422
1, 54127, Control_c, 0, 64, 0
1, 54160, Note_on_c, 0, 40, 0
1, 54160, Note_on_c, 0, 56, 0
1, 54160, Note_on_c, 0, 64, 0
1, 54160, Note_on_c, 0, 47, 0
1, 54180, Note_on_c, 0, 68, 52
1, 54180, Note_on_c, 0, 56, 33
1, 54180, Note_on_c, 0, 64, 33
1, 54180, Note_on_c, 0, 52, 52
1, 54184, Control_c, 0, 64, 127
1, 54234, Note_on_c, 0, 52, 0
1, 54234, Note_on_c, 0, 68, 0
1, 54234, Note_on_c, 0, 56, 0
1, 54234, Note_on_c, 0, 64, 0
1, 54240, Tempo, 813559
1, 54240, Note_on_c, 0, 68, 55
1, 54240, Note_on_c, 0, 56, 35
1, 54240, Note_on_c, 0, 64, 35
1, 54240, Note_on_c, 0, 40, 37
1, 54240, Note_on_c, 0, 47, 40
1, 54240, Note_on_c, 0, 52, 44
1, 54480, Tempo, 789474
1, 54720, Tempo, 774194
1, 54960, Tempo, 745342
1, 54960, Note_on_c, 0, 52, 0
1, 54960, Note_on_c, 0, 56, 0
1, 54960, Note_on_c, 0, 68, 0
1, 54960, Note_on_c, 0, 64, 0
1, 54960, Note_on_c, 0, 69, 52
1, 54960, Note_on_c, 0, 66, 44
1, 54960, Note_on_c, 0, 54, 35
1, 54967, Note_on_c, 0, 57, 44
1, 55080, Tempo, 905660
1, 55080, Note_on_c, 0, 54, 0
1, 55080, Note_on_c, 0, 66, 0
1, 55080, Note_on_c, 0, 69, 0
1, 55080, Note_on_c, 0, 71, 55
1, 55080, Note_on_c, 0, 59, 46
1, 55080, Note_on_c, 0, 68, 46
1, 55080, Note_on_c, 0, 56, 38
1, 55087, Note_on_c, 0, 57, 0
1, 55200, Tempo, 848057
1, 55200, Note_on_c, 0, 68, 0
1, 55200, Note_on_c, 0, 47, 0
1, 55200, Note_on_c, 0, 71, 0
1, 55200, Note_on_c, 0, 40, 0
1, 55200, Note_on_c, 0, 56, 0
1, 55200, Note_on_c, 0, 59, 0
1, 55200, Note_on_c, 0, 73, 59
1, 55200, Note_on_c, 0, 61, 49
1, 55200, Note_on_c, 0, 69, 49
1, 55200, Note_on_c, 0, 45, 37
1, 55200, Note_on_c, 0, 52, 40
1, 55200, Note_on_c, 0, 57, 41
1, 55225, Control_c, 0, 64, 0
1, 55281, Control_c, 0, 64, 127
1, 55440, Tempo, 766773
1, 55520, Note_on_c, 0, 57, 0
1, 55520, Note_on_c, 0, 61, 0
1, 55520, Note_on_c, 0, 73, 0
1, 55520, Note_on_c, 0, 69, 0
1, 55520, Note_on_c, 0, 73, 54
1, 55520, Note_on_c, 0, 61, 45
1, 55520, Note_on_c, 0, 69, 45
1, 55520, Note_on_c, 0, 57, 40
1, 55560, Tempo, 738462
1, 55680, Tempo, 693642
1, 55680, Note_on_c, 0, 57, 0
1, 55680, Note_on_c, 0, 61, 0
1, 55680, Note_on_c, 0, 73, 0
1, 55680, Note_on_c, 0, 69, 0
1, 55680, Note_on_c, 0, 73, 57
1, 55680, Note_on_c, 0, 61, 48
1, 55680, Note_on_c, 0, 69, 48
1, 55680, Note_on_c, 0, 57, 44
1, 55800, Tempo, 670391
1, 55808, Note_on_c, 0, 57, 0
1, 55808, Note_on_c, 0, 61, 0
1, 55808, Note_on_c, 0, 73, 0
1, 55808, Note_on_c, 0, 69, 0
1, 55840, Note_on_c, 0, 71, 55
1, 55840, Note_on_c, 0, 59, 46
1, 55840, Note_on_c, 0, 68, 46
1, 55840, Note_on_c, 0, 56, 43
1, 55920, Tempo, 718563
1, 55968, Note_on_c, 0, 56, 0
1, 55968, Note_on_c, 0, 59, 0
1, 55968, Note_on_c, 0, 71, 0
1, 55968, Note_on_c, 0, 68, 0
1, 56000, Tempo, 805369
1, 56000, Note_on_c, 0, 70, 52
1, 56000, Note_on_c, 0, 58, 44
1, 56000, Note_on_c, 0, 67, 44
1, 56000, Note_on_c, 0, 55, 41
1, 56128, Note_on_c, 0, 55, 0
1, 56128, Note_on_c, 0, 58, 0
1, 56128, Note_on_c, 0, 70, 0
1, 56128, Note_on_c, 0, 67, 0
1, 56160, Tempo, 738462
1, 56160, Note_on_c, 0, 45, 0
1, 56160, Note_on_c, 0, 52, 0
1, 56160, Note_on_c, 0, 71, 57
1, 56160, Note_on_c, 0, 59, 48
1, 56160, Note_on_c, 0, 68, 48
1, 56160, Note_on_c, 0, 56, 44
1, 56160, Note_on_c, 0, 44, 36
1, 56160, Note_on_c, 0, 52, 36
1, 56160, Control_c, 0, 64, 0
1, 56280, Control_c, 0, 64, 127
1, 56637, Note_on_c, 0, 56, 0
1, 56640, Tempo, 821918
1, 56640, Note_on_c, 0, 59, 0
1, 56640, Note_on_c, 0, 68, 0
1, 56640, Note_on_c, 0, 71, 0
1, 56640, Note_on_c, 0, 52, 0
1, 56640, Note_on_c, 0, 44, 0
1, 56640, Note_on_c, 0, 64, 52
1, 56640, Note_on_c, 0, 56, 44
1, 56640, Note_on_c, 0, 61, 44
1, 56640, Note_on_c, 0, 52, 38
1, 56640, Note_on_c, 0, 37, 32
1, 56649, Control_c, 0, 64, 0
1, 56693, Control_c, 0, 64, 127
1, 56820, Note_on_c, 0, 63, 44
1, 56880, Tempo, 805369
1, 56880, Note_on_c, 0, 63, 0
1, 56880, Note_on_c, 0, 64, 45
1, 56940, Note_on_c, 0, 64, 0
1, 56940, Note_on_c, 0, 66, 44
1, 57000, Note_on_c, 0, 66, 0
1, 57000, Note_on_c, 0, 64, 46
1, 57060, Note_on_c, 0, 64, 0
1, 57060, Note_on_c, 0, 63, 48
1, 57120, Tempo, 745342
1, 57120, Note_on_c, 0, 63, 0
1, 57120, Note_on_c, 0, 56, 0
1, 57120, Note_on_c, 0, 61, 0
1, 57120, Note_on_c, 0, 64, 0
1, 57120, Note_on_c, 0, 37, 0
1, 57120, Note_on_c, 0, 52, 0
1, 57120, Note_on_c, 0, 63, 52
1, 57120, Note_on_c, 0, 57, 44
1, 57120, Note_on_c, 0, 54, 40
1, 57120, Note_on_c, 0, 35, 33
1, 57135, Control_c, 0, 64, 0
1, 57212, Control_c, 0, 64, 127
1, 57480, Note_on_c, 0, 63, 0
1, 57480, Note_on_c, 0, 64, 49
1, 57520, Note_on_c, 0, 64, 0
1, 57520, Note_on_c, 0, 68, 55
1, 57600, Tempo, 830450
1, 57600, Note_on_c, 0, 68, 0
1, 57600, Note_on_c, 0, 57, 0
1, 57600, Note_on_c, 0, 54, 0
1, 57600, Note_on_c, 0, 35, 0
1, 57600, Note_on_c, 0, 66, 52
1, 57600, Note_on_c, 0, 57, 44
1, 57600, Note_on_c, 0, 51, 37
1, 57600, Note_on_c, 0, 47, 31
1, 57612, Control_c, 0, 64, 0
1, 57650, Control_c, 0, 64, 127
1, 57840, Tempo, 885609
1, 57960, Tempo, 1021277
1, 57960, Note_on_c, 0, 66, 0
1, 57960, Note_on_c, 0, 64, 52
1, 58060, Note_on_c, 0, 64, 0
1, 58080, Tempo, 848057
1, 58080, Note_on_c, 0, 47, 0
1, 58080, Note_on_c, 0, 51, 0
1, 58080, Note_on_c, 0, 57, 0
1, 58080, Note_on_c, 0, 64, 52
1, 58080, Note_on_c, 0, 56, 44
1, 58080, Note_on_c, 0, 52, 42
1, 58080, Note_on_c, 0, 40, 36
1, 58080, Note_on_c, 0, 47, 36
1, 58091, Control_c, 0, 64, 0
1, 58374, Control_c, 0, 64, 127
1, 58560, Note_on_c, 0, 47, 0
1, 58560, Note_on_c, 0, 52, 0
1, 58560, Note_on_c, 0, 64, 0
1, 58560, Note_on_c, 0, 56, 0
1, 58560, Note_on_c, 0, 40, 0
1, 58987, Control_c, 0, 64, 0
1, 59880, Tempo, 1889764
1, 59895, Note_on_c, 0, 76, 52
1, 59914, Control_c, 0, 64, 127
1, 59955, Note_on_c, 0, 76, 0
1, 59955, Note_on_c, 0, 64, 48
1, 59970, Note_on_c, 0, 68, 48
1, 59985, Note_on_c, 0, 73, 50
1, 60000, Tempo, 839161
1, 60000, Note_on_c, 0, 76, 55
1, 60000, Note_on_c, 0, 37, 48
1, 60195, Note_on_c, 0, 64, 0
1, 60240, Tempo, 789474
1, 60240, Note_on_c, 0, 37, 0
1, 60240, Note_on_c, 0, 64, 43
1, 60240, Note_on_c, 0, 61, 36
1, 60240, Note_on_c, 0, 56, 36
1, 60240, Note_on_c, 0, 52, 36
1, 60480, Tempo, 821918
1, 60720, Note_on_c, 0, 76, 0
1, 60720, Note_on_c, 0, 78, 52
1, 60840, Tempo, 752351
1, 60840, Note_on_c, 0, 78, 0
1, 60840, Note_on_c, 0, 80, 52
1, 60940, Note_on_c, 0, 80, 0
1, 60960, Tempo, 848057
1, 60960, Note_on_c, 0, 56, 0
1, 60960, Note_on_c, 0, 73, 0
1, 60960, Note_on_c, 0, 64, 0
1, 60960, Note_on_c, 0, 68, 0
1, 60960, Note_on_c, 0, 52, 0
1, 60960, Note_on_c, 0, 61, 0
1, 60960, Note_on_c, 0, 80, 52
1, 60960, Note_on_c, 0, 37, 48
1, 60996, Control_c, 0, 64, 0
1, 61020, Note_on_c, 0, 80, 0
1, 61020, Note_on_c, 0, 73, 56
1, 61059, Control_c, 0, 64, 127
1, 61200, Tempo, 805369
1, 61200, Note_on_c, 0, 37, 0
1, 61200, Note_on_c, 0, 68, 43
1, 61200, Note_on_c, 0, 64, 36
1, 61200, Note_on_c, 0, 61, 36
1, 61200, Note_on_c, 0, 56, 36
1, 61800, Tempo, 839161
1, 61800, Note_on_c, 0, 73, 0
1, 61800, Note_on_c, 0, 72, 56
1, 61814, Control_c, 0, 64, 0
1, 61920, Tempo, 1348315
1, 61920, Note_on_c, 0, 72, 0
1, 61920, Note_on_c, 0, 56, 0
1, 61920, Note_on_c, 0, 68, 0
1, 61920, Note_on_c, 0, 64, 0
1, 61920, Note_on_c, 0, 61, 0
1, 61920, Note_on_c, 0, 72, 56
1, 61935, Note_on_c, 0, 60, 47
1, 61936, Control_c, 0, 64, 127
1, 61950, Note_on_c, 0, 66, 47
1, 61965, Note_on_c, 0, 68, 47
1, 61980, Tempo, 1021277
1, 61980, Note_on_c, 0, 75, 54
1, 61980, Note_on_c, 0, 32, 48
1, 61980, Note_on_c, 0, 44, 48
1, 62040, Tempo, 848057
1, 62040, Note_on_c, 0, 72, 0
1, 62160, Tempo, 839161
1, 62160, Note_on_c, 0, 32, 0
1, 62160, Note_on_c, 0, 44, 0
1, 62160, Note_on_c, 0, 54, 36
1, 62160, Note_on_c, 0, 56, 36
1, 62160, Note_on_c, 0, 60, 36
1, 62160, Note_on_c, 0, 63, 43
1, 62175, Note_on_c, 0, 60, 0
1, 62400, Tempo, 895522
1, 62400, Note_on_c, 0, 73, 46
1, 62480, Note_on_c, 0, 73, 0
1, 62480, Note_on_c, 0, 75, 46
1, 62560, Note_on_c, 0, 75, 0
1, 62560, Note_on_c, 0, 76, 46
1, 62640, Note_on_c, 0, 76, 0
1, 62640, Note_on_c, 0, 75, 46
1, 62659, Tempo, 937500
1, 62680, Note_on_c, 0, 75, 0
1, 62690, Note_on_c, 0, 75, 46
1, 62695, Tempo, 948617
1, 62719, Tempo, 960000
1, 62720, Note_on_c, 0, 75, 0
1, 62720, Note_on_c, 0, 73, 48
1, 62755, Tempo, 971660
1, 62779, Tempo, 983607
1, 62800, Note_on_c, 0, 73, 0
1, 62800, Note_on_c, 0, 72, 44
1, 62815, Tempo, 995851
1, 62839, Tempo, 1008403
1, 62863, Tempo, 1021277
1, 62880, Tempo, 960000
1, 62880, Note_on_c, 0, 72, 0
1, 62880, Note_on_c, 0, 54, 0
1, 62880, Note_on_c, 0, 56, 0
1, 62880, Note_on_c, 0, 66, 0
1, 62880, Note_on_c, 0, 75, 0
1, 62880, Note_on_c, 0, 63, 0
1, 62880, Note_on_c, 0, 60, 0
1, 62880, Note_on_c, 0, 68, 0
1, 62880, Note_on_c, 0, 64, 39
1, 62895, Note_on_c, 0, 68, 39
1, 62895, Control_c, 0, 64, 0
1, 62910, Note_on_c, 0, 73, 44
1, 62910, Note_on_c, 0, 37, 48
1, 62910, Note_on_c, 0, 49, 48
1, 62940, Tempo, 916031
1, 62965, Control_c, 0, 64, 127
1, 63120, Tempo, 857143
1, 63120, Note_on_c, 0, 49, 0
1, 63120, Note_on_c, 0, 64, 0
1, 63120, Note_on_c, 0, 37, 0
1, 63120, Note_on_c, 0, 52, 36
1, 63120, Note_on_c, 0, 56, 36
1, 63120, Note_on_c, 0, 61, 36
1, 63120, Note_on_c, 0, 64, 43
1, 63600, Note_on_c, 0, 64, 0
1, 63600, Note_on_c, 0, 73, 0
1, 63600, Note_on_c, 0, 52, 0
1, 63600, Note_on_c, 0, 68, 0
1, 63600, Note_on_c, 0, 61, 0
1, 63600, Note_on_c, 0, 56, 0
1, 63720, Note_on_c, 0, 65, 82
1, 63720, Note_on_c, 0, 59, 69
1, 63720, Note_on_c, 0, 61, 69
1, 63720, Note_on_c, 0, 56, 61
1, 63720, Note_on_c, 0, 49, 51
1, 63727, Control_c, 0, 64, 0
1, 63840, Tempo, 766773
1, 63840, Note_on_c, 0, 49, 0
1, 63840, Note_on_c, 0, 61, 0
1, 63840, Note_on_c, 0, 65, 0
1, 63840, Note_on_c, 0, 59, 0
1, 63840, Note_on_c, 0, 56, 0
1, 63840, Note_on_c, 0, 66, 90
1, 63840, Note_on_c, 0, 57, 76
1, 63840, Note_on_c, 0, 61, 76
1, 63840, Note_on_c, 0, 54, 67
1, 63840, Note_on_c, 0, 42, 56
1, 63840, Note_on_c, 0, 49, 56
1, 64080, Control_c, 0, 64, 127
1, 64560, Tempo, 821918
1, 64560, Note_on_c, 0, 49, 0
1, 64560, Note_on_c, 0, 57, 0
1, 64560, Note_on_c, 0, 61, 0
1, 64560, Note_on_c, 0, 66, 0
1, 64560, Note_on_c, 0, 42, 0
1, 64560, Note_on_c, 0, 54, 0
1, 64560, Note_on_c, 0, 81, 80
1, 64560, Note_on_c, 0, 69, 68
1, 64560, Note_on_c, 0, 78, 68
1, 64560, Note_on_c, 0, 66, 66
1, 64780, Note_on_c, 0, 66, 0
1, 64780, Note_on_c, 0, 81, 0
1, 64780, Note_on_c, 0, 69, 0
1, 64780, Note_on_c, 0, 78, 0
1, 64800, Tempo, 759494
1, 64800, Note_on_c, 0, 78, 85
1, 64800, Note_on_c, 0, 81, 85
1, 64800, Note_on_c, 0, 69, 72
1, 64800, Note_on_c, 0, 66, 70
1, 64980, Note_on_c, 0, 66, 0
1, 64980, Note_on_c, 0, 78, 0
1, 64980, Note_on_c, 0, 81, 0
1, 64980, Note_on_c, 0, 69, 0
1, 64980, Note_on_c, 0, 80, 79
1, 64980, Note_on_c, 0, 68, 67
1, 64980, Note_on_c, 0, 76, 67
1, 64980, Note_on_c, 0, 64, 67
1, 65025, Note_on_c, 0, 64, 0
1, 65025, Note_on_c, 0, 80, 0
1, 65025, Note_on_c, 0, 68, 0
1, 65025, Note_on_c, 0, 76, 0
1, 65040, Note_on_c, 0, 80, 85
1, 65040, Note_on_c, 0, 68, 72
1, 65040, Note_on_c, 0, 76, 72
1, 65040, Note_on_c, 0, 64, 70
1, 65052, Control_c, 0, 64, 0
1, 65078, Tempo, 805369
1, 65160, Tempo, 926641
1, 65220, Note_on_c, 0, 64, 0
1, 65220, Note_on_c, 0, 80, 0
1, 65220, Note_on_c, 0, 68, 0
1, 65220, Note_on_c, 0, 76, 0
1, 65220, Note_on_c, 0, 78, 81
1, 65220, Note_on_c, 0, 66, 68
1, 65220, Note_on_c, 0, 75, 68
1, 65220, Note_on_c, 0, 63, 67
1, 65265, Note_on_c, 0, 63, 0
1, 65265, Note_on_c, 0, 78, 0
1, 65265, Note_on_c, 0, 66, 0
1, 65265, Note_on_c, 0, 75, 0
1, 65280, Tempo, 1021277
1, 65280, Note_on_c, 0, 78, 81
1, 65280, Note_on_c, 0, 66, 68
1, 65280, Note_on_c, 0, 75, 68
1, 65280, Note_on_c, 0, 63, 67
1, 65520, Tempo, 3934426
1, 65520, Note_on_c, 0, 63, 0
1, 65520, Note_on_c, 0, 78, 0
1, 65520, Note_on_c, 0, 66, 0
1, 65520, Note_on_c, 0, 75, 0
1, 65580, Tempo, 839161
1, 65640, Note_on_c, 0, 75, 53
1, 65640, Note_on_c, 0, 66, 45
1, 65640, Note_on_c, 0, 69, 45
1, 65640, Note_on_c, 0, 63, 45
1, 65640, Note_on_c, 0, 54, 38
1, 65640, Note_on_c, 0, 57, 38
1, 65730, Note_on_c, 0, 57, 0
1, 65730, Note_on_c, 0, 66, 0
1, 65730, Note_on_c, 0, 69, 0
1, 65730, Note_on_c, 0, 75, 0
1, 65730, Note_on_c, 0, 54, 0
1, 65730, Note_on_c, 0, 63, 0
1, 65730, Note_on_c, 0, 44, 58
1, 65760, Tempo, 875912
1, 65760, Note_on_c, 0, 76, 58
1, 65760, Note_on_c, 0, 64, 49
1, 65760, Note_on_c, 0, 68, 49
1, 65760, Note_on_c, 0, 61, 52
1, 65880, Control_c, 0, 64, 127
1, 66000, Tempo, 774194
1, 66000, Note_on_c, 0, 68, 0
1, 66000, Note_on_c, 0, 64, 0
1, 66000, Note_on_c, 0, 76, 0
1, 66000, Note_on_c, 0, 75, 48
1, 66060, Note_on_c, 0, 75, 0
1, 66060, Note_on_c, 0, 76, 50
1, 66120, Note_on_c, 0, 76, 0
1, 66120, Note_on_c, 0, 78, 51
1, 66180, Note_on_c, 0, 78, 0
1, 66180, Note_on_c, 0, 76, 50
1, 66240, Tempo, 813559
1, 66240, Note_on_c, 0, 76, 0
1, 66240, Note_on_c, 0, 44, 0
1, 66240, Note_on_c, 0, 61, 0
1, 66240, Note_on_c, 0, 75, 54
1, 66240, Note_on_c, 0, 68, 45
1, 66240, Note_on_c, 0, 64, 50
1, 66240, Note_on_c, 0, 56, 42
1, 66258, Control_c, 0, 64, 0
1, 66480, Note_on_c, 0, 56, 0
1, 66480, Note_on_c, 0, 75, 0
1, 66480, Note_on_c, 0, 68, 0
1, 66480, Note_on_c, 0, 64, 0
1, 66600, Note_on_c, 0, 73, 48
1, 66690, Note_on_c, 0, 44, 43
1, 66720, Tempo, 759494
1, 66720, Note_on_c, 0, 73, 0
1, 66720, Note_on_c, 0, 75, 53
1, 66720, Note_on_c, 0, 66, 45
1, 66720, Note_on_c, 0, 68, 45
1, 66720, Note_on_c, 0, 60, 51
1, 66743, Control_c, 0, 64, 127
1, 66960, Note_on_c, 0, 60, 0
1, 66960, Note_on_c, 0, 75, 0
1, 66960, Note_on_c, 0, 44, 0
1, 66960, Note_on_c, 0, 68, 0
1, 66960, Note_on_c, 0, 68, 50
1, 67200, Tempo, 759494
1, 67200, Note_on_c, 0, 68, 0
1, 67200, Note_on_c, 0, 66, 0
1, 67200, Note_on_c, 0, 80, 54
1, 67200, Note_on_c, 0, 66, 45
1, 67200, Note_on_c, 0, 72, 45
1, 67200, Note_on_c, 0, 63, 44
1, 67200, Note_on_c, 0, 56, 37
1, 67200, Control_c, 0, 64, 0
1, 67440, Note_on_c, 0, 56, 0
1, 67440, Note_on_c, 0, 63, 0
1, 67560, Note_on_c, 0, 80, 0
1, 67560, Note_on_c, 0, 66, 0
1, 67560, Note_on_c, 0, 72, 0
1, 67560, Note_on_c, 0, 72, 44
1, 67680, Tempo, 866426
1, 67680, Note_on_c, 0, 72, 0
1, 67680, Note_on_c, 0, 73, 51
1, 67680, Note_on_c, 0, 64, 43
1, 67680, Note_on_c, 0, 68, 43
1, 67680, Note_on_c, 0, 61, 51
1, 67680, Note_on_c, 0, 49, 43
1, 67680, Note_on_c, 0, 56, 43
1, 67732, Control_c, 0, 64, 127
1, 67920, Tempo, 752351
1, 67920, Note_on_c, 0, 68, 0
1, 67920, Note_on_c, 0, 73, 0
1, 67920, Note_on_c, 0, 64, 0
1, 67920, Note_on_c, 0, 72, 51
1, 68000, Note_on_c, 0, 72, 0
1, 68000, Note_on_c, 0, 73, 51
1, 68080, Note_on_c, 0, 73, 0
1, 68080, Note_on_c, 0, 75, 51
1, 68160, Tempo, 813559
1, 68160, Note_on_c, 0, 75, 0
1, 68160, Note_on_c, 0, 56, 0
1, 68160, Note_on_c, 0, 49, 0
1, 68160, Note_on_c, 0, 61, 0
1, 68160, Note_on_c, 0, 73, 55
1, 68160, Note_on_c, 0, 63, 46
1, 68160, Note_on_c, 0, 68, 46
1, 68160, Note_on_c, 0, 54, 50
1, 68160, Note_on_c, 0, 44, 42
1, 68171, Control_c, 0, 64, 0
1, 68217, Control_c, 0, 64, 127
1, 68520, Tempo, 1034483
1, 68520, Note_on_c, 0, 73, 0
1, 68520, Note_on_c, 0, 72, 51
1, 68640, Tempo, 866426
1, 68640, Note_on_c, 0, 72, 0
1, 68640, Note_on_c, 0, 44, 0
1, 68640, Note_on_c, 0, 63, 0
1, 68640, Note_on_c, 0, 68, 0
1, 68640, Note_on_c, 0, 54, 0
1, 68640, Note_on_c, 0, 73, 55
1, 68640, Note_on_c, 0, 61, 46
1, 68640, Note_on_c, 0, 68, 46
1, 68640, Note_on_c, 0, 52, 50
1, 68640, Note_on_c, 0, 37, 42
1, 68651, Control_c, 0, 64, 0
1, 68686, Control_c, 0, 64, 127
1, 68880, Note_on_c, 0, 37, 0
1, 68880, Note_on_c, 0, 68, 0
1, 68880, Note_on_c, 0, 73, 0
1, 68880, Note_on_c, 0, 61, 0
1, 68880, Note_on_c, 0, 52, 0
1, 69135, Control_c, 0, 64, 0
1, 69540, Tempo, 1105991
1, 69540, Control_c, 0, 64, 127
1, 69560, Note_on_c, 0, 61, 65
1, 69590, Note_on_c, 0, 61, 0
1, 69600, Tempo, 1243523
1, 69600, Note_on_c, 0, 61, 72
1, 69600, Note_on_c, 0, 56, 61
1, 69600, Note_on_c, 0, 52, 61
1, 69600, Note_on_c, 0, 49, 61
1, 69600, Note_on_c, 0, 37, 55
1, 69660, Note_on_c, 0, 49, 0
1, 69660, Note_on_c, 0, 48, 61
1, 69720, Note_on_c, 0, 48, 0
1, 69720, Note_on_c, 0, 47, 60
1, 69780, Note_on_c, 0, 47, 0
1, 69780, Note_on_c, 0, 46, 59
1, 69840, Note_on_c, 0, 46, 0
1, 69840, Note_on_c, 0, 45, 58
1, 69900, Note_on_c, 0, 45, 0
1, 69900, Note_on_c, 0, 44, 57
1, 69960, Note_on_c, 0, 44, 0
1, 69960, Note_on_c, 0, 43, 56
1, 70020, Note_on_c, 0, 43, 0
1, 70020, Note_on_c, 0, 52, 0
1, 70020, Note_on_c, 0, 61, 0
1, 70020, Note_on_c, 0, 56, 0
1, 70020, Note_on_c, 0, 44, 55
1, 70040, Note_on_c, 0, 66, 70
1, 70070, Note_on_c, 0, 66, 0
1, 70080, Note_on_c, 0, 44, 0
1, 70080, Note_on_c, 0, 37, 0
1, 70080, Note_on_c, 0, 66, 71
1, 70080, Note_on_c, 0, 57, 60
1, 70080, Note_on_c, 0, 54, 60
1, 70080, Note_on_c, 0, 45, 60
1, 70080, Note_on_c, 0, 36, 55
1, 70089, Control_c, 0, 64, 0
1, 70132, Control_c, 0, 64, 127
1, 70140, Note_on_c, 0, 45, 0
1, 70140, Note_on_c, 0, 44, 53
1, 70200, Note_on_c, 0, 44, 0
1, 70200, Note_on_c, 0, 43, 53
1, 70260, Note_on_c, 0, 43, 0
1, 70260, Note_on_c, 0, 42, 53
1, 70320, Note_on_c, 0, 42, 0
1, 70320, Note_on_c, 0, 41, 53
1, 70380, Note_on_c, 0, 41, 0
1, 70380, Note_on_c, 0, 40, 53
1, 70440, Note_on_c, 0, 40, 0
1, 70440, Note_on_c, 0, 39, 53
1, 70500, Note_on_c, 0, 39, 0
1, 70500, Note_on_c, 0, 54, 0
1, 70500, Note_on_c, 0, 66, 0
1, 70500, Note_on_c, 0, 57, 0
1, 70500, Note_on_c, 0, 36, 53
1, 70520, Note_on_c, 0, 64, 69
1, 70550, Note_on_c, 0, 64, 0
1, 70560, Tempo, 1348315
1, 70560, Note_on_c, 0, 36, 0
1, 70560, Note_on_c, 0, 36, 0
1, 70560, Note_on_c, 0, 64, 70
1, 70560, Note_on_c, 0, 56, 59
1, 70560, Note_on_c, 0, 52, 59
1, 70560, Note_on_c, 0, 37, 52
1, 70563, Control_c, 0, 64, 0
1, 70595, Control_c, 0, 64, 127
1, 70620, Note_on_c, 0, 38, 52
1, 70680, Note_on_c, 0, 38, 0
1, 70680, Note_on_c, 0, 39, 53
1, 70740, Note_on_c, 0, 39, 0
1, 70740, Note_on_c, 0, 52, 0
1, 70740, Note_on_c, 0, 64, 0
1, 70740, Note_on_c, 0, 56, 0
1, 70740, Note_on_c, 0, 40, 54
1, 70760, Note_on_c, 0, 62, 69
1, 70800, Note_on_c, 0, 62, 0
1, 70800, Note_on_c, 0, 40, 0
1, 70800, Note_on_c, 0, 37, 0
1, 70800, Note_on_c, 0, 54, 61
1, 70800, Note_on_c, 0, 62, 72
1, 70800, Note_on_c, 0, 57, 61
1, 70800, Note_on_c, 0, 41, 54
1, 70800, Note_on_c, 0, 30, 51
1, 70823, Control_c, 0, 64, 0
1, 70860, Note_on_c, 0, 41, 0
1, 70860, Note_on_c, 0, 42, 55
1, 70866, Control_c, 0, 64, 127
1, 70920, Note_on_c, 0, 42, 0
1, 70920, Note_on_c, 0, 41, 56
1, 70980, Note_on_c, 0, 41, 0
1, 70980, Note_on_c, 0, 57, 0
1, 70980, Note_on_c, 0, 54, 0
1, 70980, Note_on_c, 0, 62, 0
1, 70980, Note_on_c, 0, 42, 56
1, 71000, Note_on_c, 0, 61, 72
1, 71040, Tempo, 1283422
1, 71040, Note_on_c, 0, 61, 0
1, 71040, Note_on_c, 0, 42, 0
1, 71040, Note_on_c, 0, 30, 0
1, 71040, Note_on_c, 0, 61, 76
1, 71040, Note_on_c, 0, 56, 64
1, 71040, Note_on_c, 0, 52, 64
1, 71040, Note_on_c, 0, 32, 51
1, 71040, Note_on_c, 0, 43, 57
1, 71066, Control_c, 0, 64, 0
1, 71100, Note_on_c, 0, 43, 0
1, 71100, Note_on_c, 0, 44, 58
1, 71100, Control_c, 0, 64, 127
1, 71160, Note_on_c, 0, 44, 0
1, 71160, Note_on_c, 0, 43, 59
1, 71220, Note_on_c, 0, 43, 0
1, 71220, Note_on_c, 0, 61, 0
1, 71220, Note_on_c, 0, 52, 0
1, 71220, Note_on_c, 0, 56, 0
1, 71220, Note_on_c, 0, 44, 59
1, 71240, Note_on_c, 0, 60, 75
1, 71270, Note_on_c, 0, 60, 0
1, 71280, Tempo, 1263158
1, 71280, Note_on_c, 0, 44, 0
1, 71280, Note_on_c, 0, 32, 0
1, 71280, Note_on_c, 0, 60, 78
1, 71280, Note_on_c, 0, 54, 66
1, 71280, Note_on_c, 0, 51, 66
1, 71280, Note_on_c, 0, 45, 60
1, 71317, Control_c, 0, 64, 0
1, 71340, Note_on_c, 0, 45, 0
1, 71340, Note_on_c, 0, 44, 61
1, 71340, Control_c, 0, 64, 127
1, 71400, Note_on_c, 0, 44, 0
1, 71400, Note_on_c, 0, 45, 61
1, 71460, Note_on_c, 0, 45, 0
1, 71460, Note_on_c, 0, 60, 0
1, 71460, Note_on_c, 0, 54, 0
1, 71460, Note_on_c, 0, 51, 0
1, 71460, Note_on_c, 0, 44, 62
1, 71480, Note_on_c, 0, 61, 80
1, 71490, Control_c, 0, 64, 0
1, 71510, Note_on_c, 0, 61, 0
1, 71520, Tempo, 1589404
1, 71520, Note_on_c, 0, 44, 0
1, 71520, Note_on_c, 0, 61, 81
1, 71520, Note_on_c, 0, 52, 69
1, 71520, Note_on_c, 0, 49, 69
1, 71520, Note_on_c, 0, 37, 68
1, 71520, Note_on_c, 0, 44, 68
1, 71563, Control_c, 0, 64, 127
1, 71592, Control_c, 0, 64, 0
1, 71640, Note_on_c, 0, 44, 0
1, 71640, Note_on_c, 0, 49, 0
1, 71640, Note_on_c, 0, 61, 0
1, 71640, Note_on_c, 0, 52, 0
1, 71640, Note_on_c, 0, 37, 0
1, 71756, Tempo, 937500
1, 71760, Note_on_c, 0, 45, 66
1, 71760, Note_on_c, 0, 49, 66
1, 71760, Note_on_c, 0, 30, 52
1, 71760, Note_on_c, 0, 37, 56
1, 71766, Control_c, 0, 64, 127
1, 71804, Tempo, 926641
1, 71808, Note_on_c, 0, 37, 0
1, 71808, Note_on_c, 0, 49, 0
1, 71808, Note_on_c, 0, 51, 61
1, 71808, Note_on_c, 0, 39, 51
1, 71852, Tempo, 916031
1, 71856, Note_on_c, 0, 39, 0
1, 71856, Note_on_c, 0, 51, 0
1, 71856, Note_on_c, 0, 49, 66
1, 71856, Note_on_c, 0, 37, 56
1, 71876, Tempo, 905660
1, 71880, Note_on_c, 0, 30, 0
1, 71904, Note_on_c, 0, 37, 0
1, 71904, Note_on_c, 0, 49, 0
1, 71904, Note_on_c, 0, 51, 61
1, 71904, Note_on_c, 0, 39, 51
1, 71924, Tempo, 895522
1, 71948, Tempo, 885609
1, 71952, Note_on_c, 0, 39, 0
1, 71952, Note_on_c, 0, 51, 0
1, 71952, Note_on_c, 0, 49, 61
1, 71952, Note_on_c, 0, 37, 51
1, 71972, Tempo, 1206030
1, 72000, Note_on_c, 0, 37, 0
1, 72000, Note_on_c, 0, 49, 0
1, 72000, Note_on_c, 0, 48, 66
1, 72000, Note_on_c, 0, 36, 56
1, 72019, Control_c, 0, 64, 0
1, 72020, Tempo, 1188119
1, 72031, Control_c, 0, 64, 127
1, 72040, Note_on_c, 0, 36, 0
1, 72040, Note_on_c, 0, 48, 0
1, 72040, Note_on_c, 0, 49, 60
1, 72040, Note_on_c, 0, 37, 51
1, 72044, Tempo, 1170732
1, 72080, Note_on_c, 0, 37, 0
1, 72080, Note_on_c, 0, 49, 0
1, 72081, Note_on_c, 0, 51, 66
1, 72081, Note_on_c, 0, 39, 56
1, 72092, Tempo, 1153846
1, 72116, Tempo, 1137441
1, 72121, Note_on_c, 0, 39, 0
1, 72121, Note_on_c, 0, 51, 0
1, 72121, Note_on_c, 0, 52, 61
1, 72121, Note_on_c, 0, 40, 51
1, 72161, Note_on_c, 0, 40, 0
1, 72161, Note_on_c, 0, 52, 0
1, 72161, Note_on_c, 0, 54, 66
1, 72161, Note_on_c, 0, 42, 56
1, 72164, Tempo, 1121495
1, 72188, Tempo, 1105991
1, 72201, Note_on_c, 0, 42, 0
1, 72201, Note_on_c, 0, 54, 0
1, 72201, Note_on_c, 0, 56, 61
1, 72201, Note_on_c, 0, 44, 51
1, 72236, Tempo, 1076233
1, 72241, Note_on_c, 0, 44, 0
1, 72241, Note_on_c, 0, 56, 0
1, 72241, Note_on_c, 0, 57, 66
1, 72241, Note_on_c, 0, 45, 56
1, 72281, Note_on_c, 0, 45, 0
1, 72281, Note_on_c, 0, 57, 0
1, 72282, Note_on_c, 0, 56, 60
1, 72282, Note_on_c, 0, 44, 51
1, 72322, Note_on_c, 0, 44, 0
1, 72322, Note_on_c, 0, 56, 0
1, 72322, Note_on_c, 0, 54, 59
1, 72322, Note_on_c, 0, 42, 50
1, 72362, Note_on_c, 0, 42, 0
1, 72362, Note_on_c, 0, 54, 0
1, 72362, Note_on_c, 0, 52, 60
1, 72362, Note_on_c, 0, 40, 51
1, 72402, Note_on_c, 0, 40, 0
1, 72402, Note_on_c, 0, 52, 0
1, 72402, Note_on_c, 0, 51, 62
1, 72402, Note_on_c, 0, 39, 52
1, 72442, Note_on_c, 0, 39, 0
1, 72442, Note_on_c, 0, 51, 0
1, 72442, Note_on_c, 0, 49, 63
1, 72442, Note_on_c, 0, 37, 53
1, 72480, Note_on_c, 0, 45, 0
1, 72482, Note_on_c, 0, 37, 0
1, 72482, Note_on_c, 0, 49, 0
1, 72482, Note_on_c, 0, 48, 65
1, 72482, Note_on_c, 0, 36, 55
1, 72492, Tempo, 1105991
1, 72511, Tempo, 1121495
1, 72522, Note_on_c, 0, 36, 0
1, 72522, Note_on_c, 0, 48, 0
1, 72523, Note_on_c, 0, 49, 66
1, 72523, Note_on_c, 0, 37, 56
1, 72549, Tempo, 1137441
1, 72563, Note_on_c, 0, 37, 0
1, 72563, Note_on_c, 0, 49, 0
1, 72563, Note_on_c, 0, 51, 68
1, 72563, Note_on_c, 0, 39, 57
1, 72568, Tempo, 1153846
1, 72603, Note_on_c, 0, 39, 0
1, 72603, Note_on_c, 0, 51, 0
1, 72603, Note_on_c, 0, 52, 70
1, 72603, Note_on_c, 0, 40, 59
1, 72607, Tempo, 1170732
1, 72626, Tempo, 1188119
1, 72643, Note_on_c, 0, 40, 0
1, 72643, Note_on_c, 0, 52, 0
1, 72643, Note_on_c, 0, 51, 72
1, 72643, Note_on_c, 0, 39, 61
1, 72645, Tempo, 1206030
1, 72683, Note_on_c, 0, 39, 0
1, 72683, Note_on_c, 0, 51, 0
1, 72683, Note_on_c, 0, 49, 74
1, 72683, Note_on_c, 0, 37, 62
1, 72685, Tempo, 2474227
1, 72690, Note_on_c, 0, 25, 52
1, 72719, Note_on_c, 0, 37, 0
1, 72719, Note_on_c, 0, 49, 0
1, 72720, Tempo, 1021277
1, 72720, Note_on_c, 0, 44, 88
1, 72720, Note_on_c, 0, 49, 88
1, 72720, Note_on_c, 0, 40, 62
1, 72736, Control_c, 0, 64, 0
1, 72763, Control_c, 0, 64, 127
1, 72780, Note_on_c, 0, 49, 0
1, 72780, Note_on_c, 0, 44, 0
1, 72840, Note_on_c, 0, 25, 0
1, 72840, Note_on_c, 0, 40, 0
1, 72960, Tempo, 895522
1, 73007, Control_c, 0, 64, 0
1, 73380, Tempo, 1105991
1, 73380, Control_c, 0, 64, 127
1, 73400, Note_on_c, 0, 68, 65
1, 73430, Note_on_c, 0, 68, 0
1, 73440, Tempo, 1263158
1, 73440, Note_on_c, 0, 68, 72
1, 73440, Note_on_c, 0, 63, 61
1, 73440, Note_on_c, 0, 59, 61
1, 73440, Note_on_c, 0, 56, 61
1, 73440, Note_on_c, 0, 44, 55
1, 73500, Note_on_c, 0, 56, 0
1, 73500, Note_on_c, 0, 55, 61
1, 73560, Note_on_c, 0, 55, 0
1, 73560, Note_on_c, 0, 54, 60
1, 73620, Note_on_c, 0, 54, 0
1, 73620, Note_on_c, 0, 53, 59
1, 73680, Note_on_c, 0, 53, 0
1, 73680, Note_on_c, 0, 52, 58
1, 73740, Note_on_c, 0, 52, 0
1, 73740, Note_on_c, 0, 51, 57
1, 73800, Note_on_c, 0, 51, 0
1, 73800, Note_on_c, 0, 50, 56
1, 73860, Note_on_c, 0, 50, 0
1, 73860, Note_on_c, 0, 59, 0
1, 73860, Note_on_c, 0, 68, 0
1, 73860, Note_on_c, 0, 63, 0
1, 73860, Note_on_c, 0, 51, 55
1, 73880, Note_on_c, 0, 73, 70
1, 73910, Note_on_c, 0, 73, 0
1, 73920, Note_on_c, 0, 51, 0
1, 73920, Note_on_c, 0, 44, 0
1, 73920, Note_on_c, 0, 73, 71
1, 73920, Note_on_c, 0, 64, 60
1, 73920, Note_on_c, 0, 61, 60
1, 73920, Note_on_c, 0, 43, 55
1, 73920, Note_on_c, 0, 52, 60
1, 73925, Control_c, 0, 64, 0
1, 73946, Control_c, 0, 64, 127
1, 73980, Note_on_c, 0, 52, 0
1, 73980, Note_on_c, 0, 51, 53
1, 74040, Note_on_c, 0, 51, 0
1, 74040, Note_on_c, 0, 50, 53
1, 74100, Note_on_c, 0, 50, 0
1, 74100, Note_on_c, 0, 49, 53
1, 74160, Note_on_c, 0, 49, 0
1, 74160, Note_on_c, 0, 48, 53
1, 74220, Note_on_c, 0, 48, 0
1, 74220, Note_on_c, 0, 47, 53
1, 74280, Note_on_c, 0, 47, 0
1, 74280, Note_on_c, 0, 46, 53
1, 74320, Note_on_c, 0, 43, 0
1, 74340, Note_on_c, 0, 61, 0
1, 74340, Note_on_c, 0, 73, 0
1, 74340, Note_on_c, 0, 64, 0
1, 74340, Note_on_c, 0, 46, 0
1, 74340, Note_on_c, 0, 43, 53
1, 74360, Note_on_c, 0, 71, 69
1, 74390, Note_on_c, 0, 71, 0
1, 74400, Tempo, 1371429
1, 74400, Note_on_c, 0, 43, 0
1, 74400, Note_on_c, 0, 71, 70
1, 74400, Note_on_c, 0, 63, 59
1, 74400, Note_on_c, 0, 59, 59
1, 74400, Note_on_c, 0, 44, 52
1, 74412, Control_c, 0, 64, 0
1, 74455, Control_c, 0, 64, 127
1, 74460, Note_on_c, 0, 45, 52
1, 74520, Note_on_c, 0, 45, 0
1, 74520, Note_on_c, 0, 46, 53
1, 74580, Note_on_c, 0, 46, 0
1, 74580, Note_on_c, 0, 59, 0
1, 74580, Note_on_c, 0, 71, 0
1, 74580, Note_on_c, 0, 63, 0
1, 74580, Note_on_c, 0, 47, 54
1, 74600, Note_on_c, 0, 69, 68
1, 74630, Note_on_c, 0, 69, 0
1, 74640, Note_on_c, 0, 47, 0
1, 74640, Note_on_c, 0, 44, 0
1, 74640, Note_on_c, 0, 69, 71
1, 74640, Note_on_c, 0, 64, 60
1, 74640, Note_on_c, 0, 61, 60
1, 74640, Note_on_c, 0, 37, 51
1, 74640, Note_on_c, 0, 48, 54
1, 74653, Control_c, 0, 64, 0
1, 74700, Note_on_c, 0, 48, 0
1, 74700, Note_on_c, 0, 49, 55
1, 74703, Control_c, 0, 64, 127
1, 74760, Note_on_c, 0, 49, 0
1, 74760, Note_on_c, 0, 48, 56
1, 74820, Note_on_c, 0, 48, 0
1, 74820, Note_on_c, 0, 69, 0
1, 74820, Note_on_c, 0, 61, 0
1, 74820, Note_on_c, 0, 64, 0
1, 74820, Note_on_c, 0, 49, 56
1, 74840, Note_on_c, 0, 68, 71
1, 74880, Tempo, 1224490
1, 74880, Note_on_c, 0, 68, 0
1, 74880, Note_on_c, 0, 49, 0
1, 74880, Note_on_c, 0, 37, 0
1, 74880, Note_on_c, 0, 68, 74
1, 74880, Note_on_c, 0, 63, 63
1, 74880, Note_on_c, 0, 59, 63
1, 74880, Note_on_c, 0, 50, 57
1, 74896, Control_c, 0, 64, 0
1, 74940, Note_on_c, 0, 50, 0
1, 74940, Note_on_c, 0, 51, 58
1, 74943, Control_c, 0, 64, 127
1, 75000, Note_on_c, 0, 51, 0
1, 75000, Note_on_c, 0, 50, 59
1, 75060, Note_on_c, 0, 50, 0
1, 75060, Note_on_c, 0, 68, 0
1, 75060, Note_on_c, 0, 63, 0
1, 75060, Note_on_c, 0, 59, 0
1, 75060, Note_on_c, 0, 51, 59
1, 75080, Note_on_c, 0, 67, 72
1, 75110, Note_on_c, 0, 67, 0
1, 75120, Tempo, 1263158
1, 75120, Note_on_c, 0, 51, 0
1, 75120, Note_on_c, 0, 67, 75
1, 75120, Note_on_c, 0, 58, 63
1, 75120, Note_on_c, 0, 61, 63
1, 75120, Note_on_c, 0, 52, 60
1, 75134, Control_c, 0, 64, 0
1, 75180, Note_on_c, 0, 52, 0
1, 75180, Note_on_c, 0, 51, 61
1, 75192, Control_c, 0, 64, 127
1, 75240, Note_on_c, 0, 51, 0
1, 75240, Note_on_c, 0, 52, 61
1, 75300, Note_on_c, 0, 52, 0
1, 75300, Note_on_c, 0, 67, 0
1, 75300, Note_on_c, 0, 58, 0
1, 75300, Note_on_c, 0, 61, 0
1, 75300, Note_on_c, 0, 51, 62
1, 75320, Note_on_c, 0, 68, 77
1, 75330, Control_c, 0, 64, 0
1, 75350, Note_on_c, 0, 68, 0
1, 75360, Tempo, 1589404
1, 75360, Note_on_c, 0, 51, 0
1, 75360, Note_on_c, 0, 68, 78
1, 75360, Note_on_c, 0, 59, 66
1, 75360, Note_on_c, 0, 56, 66
1, 75360, Note_on_c, 0, 44, 55
1, 75360, Note_on_c, 0, 51, 63
1, 75403, Control_c, 0, 64, 127
1, 75480, Note_on_c, 0, 51, 0
1, 75480, Note_on_c, 0, 56, 0
1, 75480, Note_on_c, 0, 68, 0
1, 75480, Note_on_c, 0, 59, 0
1, 75480, Note_on_c, 0, 44, 0
1, 75596, Tempo, 960000
1, 75600, Note_on_c, 0, 52, 66
1, 75600, Note_on_c, 0, 56, 66
1, 75600, Note_on_c, 0, 37, 52
1, 75600, Note_on_c, 0, 44, 56
1, 75606, Control_c, 0, 64, 127
1, 75644, Tempo, 948617
1, 75648, Note_on_c, 0, 44, 0
1, 75648, Note_on_c, 0, 56, 0
1, 75648, Note_on_c, 0, 57, 61
1, 75648, Note_on_c, 0, 45, 51
1, 75668, Tempo, 937500
1, 75692, Tempo, 926641
1, 75696, Note_on_c, 0, 45, 0
1, 75696, Note_on_c, 0, 57, 0
1, 75696, Note_on_c, 0, 56, 66
1, 75696, Note_on_c, 0, 44, 56
1, 75716, Tempo, 916031
1, 75720, Note_on_c, 0, 37, 0
1, 75740, Tempo, 905660
1, 75744, Note_on_c, 0, 44, 0
1, 75744, Note_on_c, 0, 56, 0
1, 75744, Note_on_c, 0, 57, 61
1, 75744, Note_on_c, 0, 45, 51
1, 75764, Tempo, 895522
1, 75788, Tempo, 885609
1, 75792, Note_on_c, 0, 45, 0
1, 75792, Note_on_c, 0, 57, 0
1, 75792, Note_on_c, 0, 56, 61
1, 75792, Note_on_c, 0, 44, 51
1, 75812, Tempo, 875912
1, 75832, Tempo, 1105991
1, 75836, Tempo, 1206030
1, 75840, Note_on_c, 0, 44, 0
1, 75840, Note_on_c, 0, 56, 0
1, 75840, Note_on_c, 0, 55, 66
1, 75840, Note_on_c, 0, 43, 56
1, 75863, Control_c, 0, 64, 0
1, 75876, Control_c, 0, 64, 127
1, 75880, Note_on_c, 0, 43, 0
1, 75880, Note_on_c, 0, 55, 0
1, 75880, Note_on_c, 0, 56, 60
1, 75880, Note_on_c, 0, 44, 51
1, 75884, Tempo, 1188119
1, 75920, Note_on_c, 0, 44, 0
1, 75920, Note_on_c, 0, 56, 0
1, 75921, Note_on_c, 0, 58, 66
1, 75921, Note_on_c, 0, 46, 56
1, 75932, Tempo, 1170732
1, 75961, Note_on_c, 0, 46, 0
1, 75961, Note_on_c, 0, 58, 0
1, 75961, Note_on_c, 0, 59, 61
1, 75961, Note_on_c, 0, 47, 51
1, 75980, Tempo, 1153846
1, 76001, Note_on_c, 0, 47, 0
1, 76001, Note_on_c, 0, 59, 0
1, 76001, Note_on_c, 0, 61, 66
1, 76001, Note_on_c, 0, 49, 56
1, 76028, Tempo, 1137441
1, 76041, Note_on_c, 0, 49, 0
1, 76041, Note_on_c, 0, 61, 0
1, 76041, Note_on_c, 0, 63, 61
1, 76041, Note_on_c, 0, 51, 51
1, 76076, Tempo, 1121495
1, 76081, Note_on_c, 0, 51, 0
1, 76081, Note_on_c, 0, 63, 0
1, 76081, Note_on_c, 0, 64, 66
1, 76081, Note_on_c, 0, 52, 56
1, 76100, Tempo, 1105991
1, 76121, Note_on_c, 0, 52, 0
1, 76121, Note_on_c, 0, 64, 0
1, 76122, Note_on_c, 0, 63, 60
1, 76122, Note_on_c, 0, 51, 51
1, 76162, Note_on_c, 0, 51, 0
1, 76162, Note_on_c, 0, 63, 0
1, 76162, Note_on_c, 0, 61, 59
1, 76162, Note_on_c, 0, 49, 50
1, 76202, Note_on_c, 0, 49, 0
1, 76202, Note_on_c, 0, 61, 0
1, 76202, Note_on_c, 0, 59, 60
1, 76202, Note_on_c, 0, 47, 51
1, 76242, Note_on_c, 0, 47, 0
1, 76242, Note_on_c, 0, 59, 0
1, 76242, Note_on_c, 0, 58, 62
1, 76242, Note_on_c, 0, 46, 52
1, 76282, Note_on_c, 0, 46, 0
1, 76282, Note_on_c, 0, 58, 0
1, 76282, Note_on_c, 0, 56, 63
1, 76282, Note_on_c, 0, 44, 53
1, 76320, Note_on_c, 0, 52, 0
1, 76322, Note_on_c, 0, 44, 0
1, 76322, Note_on_c, 0, 56, 0
1, 76322, Note_on_c, 0, 55, 65
1, 76322, Note_on_c, 0, 43, 55
1, 76332, Tempo, 1105991
1, 76351, Tempo, 1121495
1, 76362, Note_on_c, 0, 43, 0
1, 76362, Note_on_c, 0, 55, 0
1, 76363, Note_on_c, 0, 56, 66
1, 76363, Note_on_c, 0, 44, 56
1, 76389, Tempo, 1137441
1, 76403, Note_on_c, 0, 44, 0
1, 76403, Note_on_c, 0, 56, 0
1, 76403, Note_on_c, 0, 58, 68
1, 76403, Note_on_c, 0, 46, 57
1, 76408, Tempo, 1153846
1, 76443, Note_on_c, 0, 46, 0
1, 76443, Note_on_c, 0, 58, 0
1, 76443, Note_on_c, 0, 59, 70
1, 76443, Note_on_c, 0, 47, 59
1, 76447, Tempo, 1170732
1, 76466, Tempo, 1188119
1, 76483, Note_on_c, 0, 47, 0
1, 76483, Note_on_c, 0, 59, 0
1, 76483, Note_on_c, 0, 58, 72
1, 76483, Note_on_c, 0, 46, 61
1, 76485, Tempo, 1206030
1, 76523, Note_on_c, 0, 46, 0
1, 76523, Note_on_c, 0, 58, 0
1, 76523, Note_on_c, 0, 56, 74
1, 76523, Note_on_c, 0, 44, 62
1, 76525, Tempo, 2474227
1, 76559, Note_on_c, 0, 44, 0
1, 76559, Note_on_c, 0, 56, 0
1, 76560, Tempo, 1021277
1, 76560, Note_on_c, 0, 47, 88
1, 76560, Note_on_c, 0, 51, 88
1, 76560, Note_on_c, 0, 56, 88
1, 76560, Note_on_c, 0, 39, 52
1, 76560, Note_on_c, 0, 32, 52
1, 76560, Note_on_c, 0, 44, 62
1, 76576, Control_c, 0, 64, 0
1, 76603, Control_c, 0, 64, 127
1, 76620, Note_on_c, 0, 56, 0
1, 76620, Note_on_c, 0, 47, 0
1, 76620, Note_on_c, 0, 51, 0
1, 76680, Note_on_c, 0, 39, 0
1, 76680, Note_on_c, 0, 32, 0
1, 76680, Note_on_c, 0, 44, 0
1, 76816, Control_c, 0, 64, 0
1, 77220, Marker_t, "Allegro zingarese"
1, 77220, Note_on_c, 0, 64, 50
1, 77280, Time_signature, 2, 2, 24, 8
1, 77280, Tempo, 613811
1, 77280, Note_on_c, 0, 64, 0
1, 77280, Note_on_c, 0, 80, 54
1, 77280, Note_on_c, 0, 83, 54
1, 77280, Note_on_c, 0, 92, 70
1, 77280, Note_on_c, 0, 76, 59
1, 77280, Note_on_c, 0, 71, 50
1, 77340, Note_on_c, 0, 71, 0
1, 77340, Note_on_c, 0, 92, 0
1, 77340, Note_on_c, 0, 80, 0
1, 77340, Note_on_c, 0, 83, 0
1, 77340, Note_on_c, 0, 76, 0
1, 77700, Note_on_c, 0, 59, 49
1, 77760, Note_on_c, 0, 59, 0
1, 77760, Note_on_c, 0, 80, 51
1, 77760, Note_on_c, 0, 83, 51
1, 77760, Note_on_c, 0, 92, 66
1, 77760, Note_on_c, 0, 76, 58
1, 77760, Note_on_c, 0, 71, 49
1, 77820, Note_on_c, 0, 71, 0
1, 77820, Note_on_c, 0, 92, 0
1, 77820, Note_on_c, 0, 80, 0
1, 77820, Note_on_c, 0, 83, 0
1, 77820, Note_on_c, 0, 76, 0
1, 78180, Note_on_c, 0, 64, 55
1, 78240, Tempo, 558140
1, 78240, Note_on_c, 0, 64, 0
1, 78240, Note_on_c, 0, 80, 53
1, 78240, Note_on_c, 0, 83, 53
1, 78240, Note_on_c, 0, 92, 69
1, 78240, Note_on_c, 0, 76, 63
1, 78240, Note_on_c, 0, 71, 53
1, 78300, Control_c, 0, 64, 127
1, 78720, Tempo, 591133
1, 78720, Note_on_c, 0, 71, 0
1, 78720, Note_on_c, 0, 76, 0
1, 78720, Note_on_c, 0, 59, 44
1, 78738, Control_c, 0, 64, 0
1, 78960, Tempo, 401338
1, 78960, Note_on_c, 0, 92, 0
1, 78960, Note_on_c, 0, 90, 63
1, 79080, Note_on_c, 0, 90, 0
1, 79080, Note_on_c, 0, 88, 63
1, 79140, Note_on_c, 0, 59, 0
1, 79140, Note_on_c, 0, 63, 57
1, 79200, Tempo, 574163
1, 79200, Note_on_c, 0, 63, 0
1, 79200, Note_on_c, 0, 88, 0
1, 79200, Note_on_c, 0, 83, 0
1, 79200, Note_on_c, 0, 80, 0
1, 79200, Note_on_c, 0, 81, 55
1, 79200, Note_on_c, 0, 83, 55
1, 79200, Note_on_c, 0, 87, 71
1, 79200, Note_on_c, 0, 78, 64
1, 79200, Note_on_c, 0, 71, 54
1, 79260, Note_on_c, 0, 87, 0
1, 79440, Tempo, 492813
1, 79440, Note_on_c, 0, 88, 66
1, 79500, Note_on_c, 0, 88, 0
1, 79680, Tempo, 532151
1, 79680, Note_on_c, 0, 71, 0
1, 79680, Note_on_c, 0, 81, 0
1, 79680, Note_on_c, 0, 83, 0
1, 79680, Note_on_c, 0, 78, 0
1, 79680, Note_on_c, 0, 81, 55
1, 79680, Note_on_c, 0, 83, 55
1, 79680, Note_on_c, 0, 90, 72
1, 79680, Note_on_c, 0, 59, 47
1, 79719, Control_c, 0, 64, 127
1, 79920, Tempo, 542986
1, 80100, Note_on_c, 0, 64, 55
1, 80160, Note_on_c, 0, 64, 0
1, 80160, Note_on_c, 0, 90, 0
1, 80160, Note_on_c, 0, 81, 0
1, 80160, Note_on_c, 0, 83, 0
1, 80160, Note_on_c, 0, 59, 0
1, 80160, Note_on_c, 0, 80, 53
1, 80160, Note_on_c, 0, 83, 53
1, 80160, Note_on_c, 0, 92, 69
1, 80160, Note_on_c, 0, 76, 63
1, 80160, Note_on_c, 0, 71, 53
1, 80160, Control_c, 0, 64, 0
1, 80220, Control_c, 0, 64, 127
1, 80640, Tempo, 558140
1, 80640, Note_on_c, 0, 71, 0
1, 80640, Note_on_c, 0, 76, 0
1, 80640, Note_on_c, 0, 59, 46
1, 80700, Control_c, 0, 64, 0
1, 80880, Tempo, 413793
1, 80880, Note_on_c, 0, 92, 0
1, 80880, Note_on_c, 0, 90, 63
1, 81000, Note_on_c, 0, 90, 0
1, 81000, Note_on_c, 0, 88, 63
1, 81060, Note_on_c, 0, 59, 0
1, 81060, Note_on_c, 0, 63, 57
1, 81120, Tempo, 578313
1, 81120, Note_on_c, 0, 63, 0
1, 81120, Note_on_c, 0, 88, 0
1, 81120, Note_on_c, 0, 83, 0
1, 81120, Note_on_c, 0, 80, 0
1, 81120, Note_on_c, 0, 81, 55
1, 81120, Note_on_c, 0, 83, 55
1, 81120, Note_on_c, 0, 87, 71
1, 81120, Note_on_c, 0, 78, 64
1, 81120, Note_on_c, 0, 71, 54
1, 81180, Note_on_c, 0, 87, 0
1, 81360, Tempo, 535714
1, 81360, Note_on_c, 0, 88, 66
1, 81420, Note_on_c, 0, 88, 0
1, 81593, Control_c, 0, 64, 127
1, 81600, Tempo, 515021
1, 81600, Note_on_c, 0, 71, 0
1, 81600, Note_on_c, 0, 81, 0
1, 81600, Note_on_c, 0, 83, 0
1, 81600, Note_on_c, 0, 78, 0
1, 81600, Note_on_c, 0, 81, 55
1, 81600, Note_on_c, 0, 83, 55
1, 81600, Note_on_c, 0, 90, 72
1, 81600, Note_on_c, 0, 59, 49
1, 81840, Tempo, 535714
1, 82020, Note_on_c, 0, 64, 55
1, 82080, Note_on_c, 0, 64, 0
1, 82080, Note_on_c, 0, 90, 0
1, 82080, Note_on_c, 0, 81, 0
1, 82080, Note_on_c, 0, 83, 0
1, 82080, Note_on_c, 0, 59, 0
1, 82080, Note_on_c, 0, 80, 53
1, 82080, Note_on_c, 0, 83, 53
1, 82080, Note_on_c, 0, 92, 69
1, 82080, Note_on_c, 0, 76, 63
1, 82080, Note_on_c, 0, 71, 53
1, 82080, Control_c, 0, 64, 0
1, 82158, Control_c, 0, 64, 127
1, 82560, Tempo, 550459
1, 82560, Note_on_c, 0, 71, 0
1, 82560, Note_on_c, 0, 76, 0
1, 82560, Note_on_c, 0, 59, 47
1, 82578, Control_c, 0, 64, 0
1, 82800, Tempo, 413793
1, 82800, Note_on_c, 0, 92, 0
1, 82800, Note_on_c, 0, 90, 63
1, 82920, Note_on_c, 0, 90, 0
1, 82920, Note_on_c, 0, 88, 63
1, 82980, Note_on_c, 0, 59, 0
1, 82980, Note_on_c, 0, 63, 57
1, 83040, Tempo, 558140
1, 83040, Note_on_c, 0, 63, 0
1, 83040, Note_on_c, 0, 88, 0
1, 83040, Note_on_c, 0, 83, 0
1, 83040, Note_on_c, 0, 80, 0
1, 83040, Note_on_c, 0, 81, 55
1, 83040, Note_on_c, 0, 83, 55
1, 83040, Note_on_c, 0, 87, 71
1, 83040, Note_on_c, 0, 78, 64
1, 83040, Note_on_c, 0, 71, 54
1, 83100, Note_on_c, 0, 87, 0
1, 83280, Tempo, 525164
1, 83280, Note_on_c, 0, 88, 66
1, 83340, Note_on_c, 0, 88, 0
1, 83520, Tempo, 508475
1, 83520, Note_on_c, 0, 71, 0
1, 83520, Note_on_c, 0, 81, 0
1, 83520, Note_on_c, 0, 83, 0
1, 83520, Note_on_c, 0, 78, 0
1, 83520, Note_on_c, 0, 81, 55
1, 83520, Note_on_c, 0, 83, 55
1, 83520, Note_on_c, 0, 90, 72
1, 83520, Note_on_c, 0, 59, 48
1, 83556, Control_c, 0, 64, 127
1, 83760, Tempo, 539326
1, 83940, Note_on_c, 0, 68, 57
1, 84000, Note_on_c, 0, 68, 0
1, 84000, Note_on_c, 0, 90, 0
1, 84000, Note_on_c, 0, 81, 0
1, 84000, Note_on_c, 0, 83, 0
1, 84000, Note_on_c, 0, 59, 0
1, 84000, Note_on_c, 0, 80, 53
1, 84000, Note_on_c, 0, 83, 53
1, 84000, Note_on_c, 0, 92, 69
1, 84000, Note_on_c, 0, 76, 63
1, 84000, Note_on_c, 0, 71, 53
1, 84000, Control_c, 0, 64, 0
1, 84032, Control_c, 0, 64, 127
1, 84420, Note_on_c, 0, 71, 0
1, 84420, Note_on_c, 0, 76, 0
1, 84420, Note_on_c, 0, 64, 47
1, 84450, Note_on_c, 0, 71, 51
1, 84480, Tempo, 550459
1, 84480, Note_on_c, 0, 80, 0
1, 84480, Note_on_c, 0, 83, 0
1, 84480, Note_on_c, 0, 80, 59
1, 84720, Tempo, 518359
1, 84720, Note_on_c, 0, 92, 0
1, 84720, Note_on_c, 0, 90, 63
1, 84734, Control_c, 0, 64, 0
1, 84840, Note_on_c, 0, 90, 0
1, 84840, Note_on_c, 0, 88, 63
1, 84900, Note_on_c, 0, 80, 0
1, 84900, Note_on_c, 0, 71, 0
1, 84900, Note_on_c, 0, 64, 0
1, 84900, Note_on_c, 0, 63, 53
1, 84930, Note_on_c, 0, 71, 58
1, 84960, Tempo, 420315
1, 84960, Note_on_c, 0, 88, 0
1, 84960, Note_on_c, 0, 83, 55
1, 84960, Note_on_c, 0, 87, 71
1, 84960, Note_on_c, 0, 78, 64
1, 84980, Control_c, 0, 64, 127
1, 85080, Note_on_c, 0, 87, 0
1, 85080, Note_on_c, 0, 88, 66
1, 85200, Tempo, 480962
1, 85200, Note_on_c, 0, 88, 0
1, 85200, Note_on_c, 0, 90, 66
1, 85320, Note_on_c, 0, 90, 0
1, 85320, Note_on_c, 0, 92, 66
1, 85380, Note_on_c, 0, 71, 0
1, 85380, Note_on_c, 0, 78, 0
1, 85380, Note_on_c, 0, 63, 0
1, 85380, Note_on_c, 0, 61, 51
1, 85410, Note_on_c, 0, 68, 54
1, 85440, Tempo, 508475
1, 85440, Note_on_c, 0, 83, 0
1, 85440, Note_on_c, 0, 92, 0
1, 85440, Note_on_c, 0, 80, 55
1, 85440, Note_on_c, 0, 90, 72
1, 85440, Note_on_c, 0, 76, 59
1, 85455, Control_c, 0, 64, 0
1, 85500, Note_on_c, 0, 90, 0
1, 85680, Tempo, 546697
1, 85680, Note_on_c, 0, 88, 70
1, 85740, Note_on_c, 0, 88, 0
1, 85860, Note_on_c, 0, 76, 0
1, 85860, Note_on_c, 0, 68, 0
1, 85860, Note_on_c, 0, 61, 0
1, 85860, Note_on_c, 0, 60, 52
1, 85890, Note_on_c, 0, 68, 54
1, 85920, Tempo, 486815
1, 85920, Note_on_c, 0, 80, 0
1, 85920, Note_on_c, 0, 80, 55
1, 85920, Note_on_c, 0, 87, 74
1, 85920, Note_on_c, 0, 75, 64
1, 85980, Note_on_c, 0, 87, 0
1, 86160, Tempo, 525164
1, 86160, Note_on_c, 0, 88, 77
1, 86220, Note_on_c, 0, 88, 0
1, 86400, Tempo, 511727
1, 86400, Note_on_c, 0, 75, 0
1, 86400, Note_on_c, 0, 60, 0
1, 86400, Note_on_c, 0, 68, 0
1, 86400, Note_on_c, 0, 80, 0
1, 86400, Note_on_c, 0, 90, 78
1, 86400, Note_on_c, 0, 56, 50
1, 86464, Control_c, 0, 64, 127
1, 86640, Tempo, 535714
1, 86760, Note_on_c, 0, 90, 0
1, 86760, Note_on_c, 0, 88, 73
1, 86820, Note_on_c, 0, 61, 53
1, 86850, Note_on_c, 0, 68, 58
1, 86880, Tempo, 427046
1, 86880, Note_on_c, 0, 88, 0
1, 86880, Note_on_c, 0, 56, 0
1, 86880, Note_on_c, 0, 80, 55
1, 86880, Note_on_c, 0, 87, 71
1, 86880, Note_on_c, 0, 76, 64
1, 86880, Control_c, 0, 64, 0
1, 86926, Control_c, 0, 64, 127
1, 87000, Note_on_c, 0, 87, 0
1, 87000, Note_on_c, 0, 88, 66
1, 87120, Note_on_c, 0, 88, 0
1, 87120, Note_on_c, 0, 90, 66
1, 87240, Note_on_c, 0, 90, 0
1, 87240, Note_on_c, 0, 92, 60
1, 87300, Note_on_c, 0, 61, 0
1, 87300, Note_on_c, 0, 76, 0
1, 87300, Note_on_c, 0, 68, 0
1, 87360, Tempo, 518359
1, 87360, Note_on_c, 0, 80, 0
1, 87360, Note_on_c, 0, 92, 0
1, 87360, Note_on_c, 0, 80, 55
1, 87360, Note_on_c, 0, 90, 72
1, 87360, Note_on_c, 0, 56, 50
1, 87383, Control_c, 0, 64, 0
1, 87420, Note_on_c, 0, 90, 0
1, 87600, Note_on_c, 0, 88, 70
1, 87660, Tempo, 498960
1, 87660, Note_on_c, 0, 88, 0
1, 87780, Note_on_c, 0, 60, 52
1, 87810, Note_on_c, 0, 68, 54
1, 87840, Tempo, 508475
1, 87840, Note_on_c, 0, 56, 0
1, 87840, Note_on_c, 0, 80, 0
1, 87840, Note_on_c, 0, 80, 55
1, 87840, Note_on_c, 0, 87, 74
1, 87840, Note_on_c, 0, 75, 64
1, 87900, Note_on_c, 0, 87, 0
1, 88080, Tempo, 546697
1, 88080, Note_on_c, 0, 88, 77
1, 88140, Note_on_c, 0, 88, 0
1, 88320, Tempo, 521739
1, 88320, Note_on_c, 0, 75, 0
1, 88320, Note_on_c, 0, 68, 0
1, 88320, Note_on_c, 0, 60, 0
1, 88320, Note_on_c, 0, 80, 0
1, 88320, Note_on_c, 0, 90, 78
1, 88320, Note_on_c, 0, 56, 50
1, 88341, Control_c, 0, 64, 127
1, 88560, Tempo, 554273
1, 88680, Note_on_c, 0, 90, 0
1, 88680, Note_on_c, 0, 88, 73
1, 88740, Note_on_c, 0, 61, 53
1, 88770, Note_on_c, 0, 68, 58
1, 88800, Tempo, 422535
1, 88800, Note_on_c, 0, 88, 0
1, 88800, Note_on_c, 0, 56, 0
1, 88800, Note_on_c, 0, 80, 55
1, 88800, Note_on_c, 0, 87, 71
1, 88800, Note_on_c, 0, 76, 64
1, 88820, Control_c, 0, 64, 0
1, 88846, Control_c, 0, 64, 127
1, 88920, Note_on_c, 0, 87, 0
1, 88920, Note_on_c, 0, 88, 66
1, 89040, Note_on_c, 0, 88, 0
1, 89040, Note_on_c, 0, 90, 66
1, 89160, Note_on_c, 0, 90, 0
1, 89160, Note_on_c, 0, 92, 66
1, 89220, Note_on_c, 0, 61, 0
1, 89220, Note_on_c, 0, 76, 0
1, 89220, Note_on_c, 0, 68, 0
1, 89280, Tempo, 539326
1, 89280, Note_on_c, 0, 80, 0
1, 89280, Note_on_c, 0, 92, 0
1, 89280, Note_on_c, 0, 80, 55
1, 89280, Note_on_c, 0, 90, 72
1, 89280, Note_on_c, 0, 56, 50
1, 89320, Control_c, 0, 64, 0
1, 89340, Note_on_c, 0, 90, 0
1, 89520, Note_on_c, 0, 88, 70
1, 89580, Note_on_c, 0, 88, 0
1, 89700, Note_on_c, 0, 60, 52
1, 89730, Note_on_c, 0, 68, 54
1, 89760, Tempo, 525164
1, 89760, Note_on_c, 0, 56, 0
1, 89760, Note_on_c, 0, 80, 0
1, 89760, Note_on_c, 0, 80, 55
1, 89760, Note_on_c, 0, 87, 74
1, 89760, Note_on_c, 0, 75, 64
1, 89820, Note_on_c, 0, 87, 0
1, 90000, Note_on_c, 0, 85, 69
1, 90060, Note_on_c, 0, 85, 0
1, 90240, Note_on_c, 0, 75, 0
1, 90240, Note_on_c, 0, 68, 0
1, 90240, Note_on_c, 0, 60, 0
1, 90240, Note_on_c, 0, 80, 0
1, 90240, Note_on_c, 0, 84, 69
1, 90240, Note_on_c, 0, 56, 50
1, 90272, Control_c, 0, 64, 127
1, 90480, Tempo, 554273
1, 90660, Note_on_c, 0, 61, 53
1, 90690, Note_on_c, 0, 68, 58
1, 90720, Tempo, 422535
1, 90720, Note_on_c, 0, 56, 0
1, 90720, Note_on_c, 0, 84, 0
1, 90720, Note_on_c, 0, 80, 55
1, 90720, Note_on_c, 0, 87, 71
1, 90720, Note_on_c, 0, 76, 64
1, 90720, Control_c, 0, 64, 0
1, 90773, Control_c, 0, 64, 127
1, 90840, Note_on_c, 0, 87, 0
1, 90840, Note_on_c, 0, 88, 66
1, 90960, Note_on_c, 0, 88, 0
1, 90960, Note_on_c, 0, 90, 66
1, 91080, Note_on_c, 0, 90, 0
1, 91080, Note_on_c, 0, 92, 66
1, 91140, Note_on_c, 0, 61, 0
1, 91140, Note_on_c, 0, 76, 0
1, 91140, Note_on_c, 0, 68, 0
1, 91200, Tempo, 532151
1, 91200, Note_on_c, 0, 80, 0
1, 91200, Note_on_c, 0, 92, 0
1, 91200, Note_on_c, 0, 85, 55
1, 91200, Note_on_c, 0, 81, 55
1, 91200, Note_on_c, 0, 90, 72
1, 91200, Note_on_c, 0, 76, 50
1, 91200, Note_on_c, 0, 69, 42
1, 91200, Note_on_c, 0, 73, 42
1, 91253, Control_c, 0, 64, 0
1, 91260, Note_on_c, 0, 90, 0
1, 91440, Note_on_c, 0, 88, 70
1, 91500, Note_on_c, 0, 88, 0
1, 91680, Tempo, 554273
1, 91680, Note_on_c, 0, 73, 0
1, 91680, Note_on_c, 0, 76, 0
1, 91680, Note_on_c, 0, 85, 0
1, 91680, Note_on_c, 0, 81, 0
1, 91680, Note_on_c, 0, 69, 0
1, 91680, Note_on_c, 0, 81, 55
1, 91680, Note_on_c, 0, 85, 55
1, 91680, Note_on_c, 0, 87, 74
1, 91680, Note_on_c, 0, 66, 52
1, 91680, Note_on_c, 0, 73, 54
1, 91680, Note_on_c, 0, 75, 64
1, 91740, Note_on_c, 0, 87, 0
1, 91920, Note_on_c, 0, 88, 77
1, 91980, Note_on_c, 0, 88, 0
1, 92160, Tempo, 542986
1, 92160, Note_on_c, 0, 75, 0
1, 92160, Note_on_c, 0, 66, 0
1, 92160, Note_on_c, 0, 81, 0
1, 92160, Note_on_c, 0, 85, 0
1, 92160, Note_on_c, 0, 73, 0
1, 92160, Note_on_c, 0, 81, 62
1, 92160, Note_on_c, 0, 85, 62
1, 92160, Note_on_c, 0, 90, 81
1, 92160, Note_on_c, 0, 78, 50
1, 92160, Note_on_c, 0, 63, 42
1, 92160, Note_on_c, 0, 69, 42
1, 92160, Note_on_c, 0, 73, 42
1, 92171, Control_c, 0, 64, 127
1, 92640, Tempo, 469667
1, 92640, Note_on_c, 0, 73, 0
1, 92640, Note_on_c, 0, 63, 0
1, 92640, Note_on_c, 0, 85, 0
1, 92640, Note_on_c, 0, 90, 0
1, 92640, Note_on_c, 0, 81, 0
1, 92640, Note_on_c, 0, 69, 0
1, 92640, Note_on_c, 0, 78, 0
1, 92640, Note_on_c, 0, 88, 71
1, 92640, Note_on_c, 0, 80, 60
1, 92640, Note_on_c, 0, 68, 54
1, 92640, Note_on_c, 0, 73, 54
1, 92640, Note_on_c, 0, 76, 64
1, 92640, Control_c, 0, 64, 0
1, 92686, Control_c, 0, 64, 127
1, 92760, Note_on_c, 0, 88, 0
1, 92760, Note_on_c, 0, 87, 63
1, 92880, Note_on_c, 0, 87, 0
1, 92880, Note_on_c, 0, 85, 63
1, 93000, Tempo, 604534
1, 93000, Note_on_c, 0, 85, 0
1, 93000, Note_on_c, 0, 88, 63
1, 93120, Tempo, 480962
1, 93120, Note_on_c, 0, 88, 0
1, 93120, Note_on_c, 0, 76, 0
1, 93120, Note_on_c, 0, 80, 0
1, 93120, Note_on_c, 0, 68, 0
1, 93120, Note_on_c, 0, 73, 0
1, 93120, Note_on_c, 0, 87, 72
1, 93120, Note_on_c, 0, 80, 61
1, 93120, Note_on_c, 0, 68, 54
1, 93120, Note_on_c, 0, 75, 54
1, 93120, Note_on_c, 0, 78, 64
1, 93138, Control_c, 0, 64, 0
1, 93177, Control_c, 0, 64, 127
1, 93240, Note_on_c, 0, 87, 0
1, 93240, Note_on_c, 0, 85, 64
1, 93360, Note_on_c, 0, 85, 0
1, 93360, Note_on_c, 0, 84, 64
1, 93480, Tempo, 591133
1, 93480, Note_on_c, 0, 84, 0
1, 93480, Note_on_c, 0, 87, 63
1, 93510, Note_on_c, 0, 75, 0
1, 93510, Note_on_c, 0, 78, 0
1, 93510, Note_on_c, 0, 68, 0
1, 93510, Note_on_c, 0, 61, 54
1, 93536, Tempo, 562061
1, 93540, Note_on_c, 0, 68, 54
1, 93560, Tempo, 558140
1, 93570, Note_on_c, 0, 73, 54
1, 93584, Tempo, 550459
1, 93600, Time_signature, 3, 2, 24, 8
1, 93600, Tempo, 528634
1, 93600, Note_on_c, 0, 80, 0
1, 93600, Note_on_c, 0, 87, 0
1, 93600, Note_on_c, 0, 80, 60
1, 93600, Note_on_c, 0, 85, 54
1, 93600, Note_on_c, 0, 76, 64
1, 93600, Control_c, 0, 64, 0
1, 93608, Tempo, 546697
1, 93632, Tempo, 539326
1, 93637, Control_c, 0, 64, 127
1, 93656, Tempo, 535714
1, 93660, Note_on_c, 0, 85, 0
1, 93660, Note_on_c, 0, 87, 49
1, 93680, Tempo, 528634
1, 93704, Tempo, 525164
1, 93710, Tempo, 515021
1, 93720, Note_on_c, 0, 87, 0
1, 93720, Note_on_c, 0, 85, 54
1, 93780, Note_on_c, 0, 85, 0
1, 93780, Note_on_c, 0, 87, 49
1, 93782, Tempo, 511727
1, 93840, Note_on_c, 0, 87, 0
1, 93840, Note_on_c, 0, 85, 54
1, 93854, Tempo, 508475
1, 93900, Note_on_c, 0, 85, 0
1, 93900, Note_on_c, 0, 87, 49
1, 93917, Tempo, 502092
1, 93932, Tempo, 495868
1, 93947, Tempo, 492813
1, 93960, Note_on_c, 0, 87, 0
1, 93960, Note_on_c, 0, 85, 54
1, 93992, Tempo, 502092
1, 94007, Tempo, 508475
1, 94020, Note_on_c, 0, 85, 0
1, 94020, Note_on_c, 0, 87, 46
1, 94022, Tempo, 511727
1, 94037, Tempo, 508475
1, 94052, Tempo, 502092
1, 94067, Tempo, 498960
1, 94080, Note_on_c, 0, 87, 0
1, 94080, Note_on_c, 0, 76, 0
1, 94080, Note_on_c, 0, 68, 0
1, 94080, Note_on_c, 0, 73, 0
1, 94080, Note_on_c, 0, 61, 0
1, 94080, Note_on_c, 0, 80, 0
1, 94080, Note_on_c, 0, 85, 53
1, 94082, Tempo, 492813
1, 94140, Note_on_c, 0, 85, 0
1, 94140, Note_on_c, 0, 87, 48
1, 94157, Tempo, 489796
1, 94200, Note_on_c, 0, 87, 0
1, 94200, Note_on_c, 0, 85, 53
1, 94202, Tempo, 492813
1, 94217, Tempo, 495868
1, 94232, Tempo, 502092
1, 94260, Note_on_c, 0, 85, 0
1, 94260, Note_on_c, 0, 87, 47
1, 94291, Tempo, 502092
1, 94320, Note_on_c, 0, 87, 0
1, 94320, Note_on_c, 0, 85, 53
1, 94321, Tempo, 505263
1, 94336, Tempo, 508475
1, 94366, Tempo, 511727
1, 94381, Tempo, 515021
1, 94400, Note_on_c, 0, 85, 0
1, 94400, Note_on_c, 0, 87, 46
1, 94411, Tempo, 518359
1, 94426, Tempo, 521739
1, 94441, Tempo, 532151
1, 94456, Tempo, 542986
1, 94471, Tempo, 554273
1, 94480, Note_on_c, 0, 87, 0
1, 94480, Note_on_c, 0, 85, 52
1, 94486, Tempo, 566038
1, 94501, Tempo, 578313
1, 94516, Tempo, 595533
1, 94560, Tempo, 518359
1, 94560, Note_on_c, 0, 85, 0
1, 94560, Control_c, 0, 64, 0
1, 94569, Control_c, 0, 64, 0
1, 94572, Note_on_c, 0, 84, 48
1, 94600, Control_c, 0, 64, 127
1, 94604, Tempo, 521739
1, 94632, Note_on_c, 0, 84, 0
1, 94632, Note_on_c, 0, 85, 49
1, 94652, Tempo, 525164
1, 94692, Note_on_c, 0, 85, 0
1, 94692, Note_on_c, 0, 86, 51
1, 94724, Tempo, 528634
1, 94752, Note_on_c, 0, 86, 0
1, 94752, Note_on_c, 0, 87, 53
1, 94772, Tempo, 532151
1, 94812, Note_on_c, 0, 87, 0
1, 94812, Note_on_c, 0, 88, 55
1, 94820, Tempo, 535714
1, 94872, Note_on_c, 0, 88, 0
1, 94872, Note_on_c, 0, 89, 56
1, 94892, Tempo, 539326
1, 94932, Note_on_c, 0, 89, 0
1, 94932, Note_on_c, 0, 90, 58
1, 94940, Tempo, 542986
1, 94988, Tempo, 546697
1, 94992, Note_on_c, 0, 90, 0
1, 94992, Note_on_c, 0, 91, 60
1, 95040, Time_signature, 2, 2, 24, 8
1, 95040, Tempo, 574163
1, 95040, Note_on_c, 0, 92, 70
1, 95040, Note_on_c, 0, 64, 49
1, 95040, Control_c, 0, 64, 0
1, 95052, Note_on_c, 0, 91, 0
1, 95280, Tempo, 613811
1, 95280, Note_on_c, 0, 80, 48
1, 95280, Note_on_c, 0, 83, 48
1, 95280, Note_on_c, 0, 71, 45
1, 95280, Note_on_c, 0, 76, 53
1, 95340, Note_on_c, 0, 76, 0
1, 95340, Note_on_c, 0, 83, 0
1, 95340, Note_on_c, 0, 80, 0
1, 95340, Note_on_c, 0, 71, 0
1, 95520, Tempo, 546697
1, 95520, Note_on_c, 0, 92, 0
1, 95520, Note_on_c, 0, 64, 0
1, 95520, Note_on_c, 0, 92, 66
1, 95520, Note_on_c, 0, 59, 49
1, 95760, Tempo, 586797
1, 95760, Note_on_c, 0, 80, 48
1, 95760, Note_on_c, 0, 83, 50
1, 95760, Note_on_c, 0, 71, 44
1, 95760, Note_on_c, 0, 76, 52
1, 95820, Note_on_c, 0, 76, 0
1, 95820, Note_on_c, 0, 83, 0
1, 95820, Note_on_c, 0, 80, 0
1, 95820, Note_on_c, 0, 71, 0
1, 96000, Tempo, 558140
1, 96000, Note_on_c, 0, 92, 0
1, 96000, Note_on_c, 0, 59, 0
1, 96000, Note_on_c, 0, 92, 69
1, 96000, Note_on_c, 0, 64, 49
1, 96060, Control_c, 0, 64, 127
1, 96240, Note_on_c, 0, 80, 54
1, 96240, Note_on_c, 0, 83, 54
1, 96240, Note_on_c, 0, 71, 50
1, 96240, Note_on_c, 0, 76, 59
1, 96300, Note_on_c, 0, 76, 0
1, 96300, Note_on_c, 0, 83, 0
1, 96300, Note_on_c, 0, 80, 0
1, 96300, Note_on_c, 0, 71, 0
1, 96480, Tempo, 518359
1, 96480, Note_on_c, 0, 64, 0
1, 96480, Note_on_c, 0, 59, 49
1, 96498, Control_c, 0, 64, 0
1, 96720, Tempo, 424779
1, 96720, Note_on_c, 0, 92, 0
1, 96720, Note_on_c, 0, 80, 51
1, 96720, Note_on_c, 0, 83, 51
1, 96720, Note_on_c, 0, 90, 63
1, 96720, Note_on_c, 0, 76, 58
1, 96720, Note_on_c, 0, 71, 49
1, 96780, Note_on_c, 0, 71, 0
1, 96780, Note_on_c, 0, 80, 0
1, 96780, Note_on_c, 0, 83, 0
1, 96780, Note_on_c, 0, 76, 0
1, 96840, Note_on_c, 0, 90, 0
1, 96840, Note_on_c, 0, 88, 63
1, 96960, Tempo, 566038
1, 96960, Note_on_c, 0, 88, 0
1, 96960, Note_on_c, 0, 59, 0
1, 96960, Note_on_c, 0, 87, 71
1, 96960, Note_on_c, 0, 63, 49
1, 97020, Note_on_c, 0, 87, 0
1, 97200, Tempo, 518359
1, 97200, Note_on_c, 0, 81, 51
1, 97200, Note_on_c, 0, 83, 54
1, 97200, Note_on_c, 0, 88, 66
1, 97200, Note_on_c, 0, 78, 59
1, 97200, Note_on_c, 0, 71, 50
1, 97260, Note_on_c, 0, 71, 0
1, 97260, Note_on_c, 0, 81, 0
1, 97260, Note_on_c, 0, 83, 0
1, 97260, Note_on_c, 0, 88, 0
1, 97260, Note_on_c, 0, 78, 0
1, 97440, Tempo, 532151
1, 97440, Note_on_c, 0, 63, 0
1, 97440, Note_on_c, 0, 90, 72
1, 97440, Note_on_c, 0, 59, 49
1, 97479, Control_c, 0, 64, 127
1, 97680, Tempo, 542986
1, 97680, Note_on_c, 0, 81, 51
1, 97680, Note_on_c, 0, 83, 54
1, 97680, Note_on_c, 0, 75, 58
1, 97680, Note_on_c, 0, 71, 49
1, 97740, Note_on_c, 0, 71, 0
1, 97740, Note_on_c, 0, 83, 0
1, 97740, Note_on_c, 0, 81, 0
1, 97740, Note_on_c, 0, 75, 0
1, 97920, Tempo, 558140
1, 97920, Note_on_c, 0, 90, 0
1, 97920, Note_on_c, 0, 59, 0
1, 97920, Note_on_c, 0, 92, 69
1, 97920, Note_on_c, 0, 64, 49
1, 97956, Control_c, 0, 64, 0
1, 98001, Control_c, 0, 64, 127
1, 98160, Note_on_c, 0, 80, 54
1, 98160, Note_on_c, 0, 83, 54
1, 98160, Note_on_c, 0, 71, 50
1, 98160, Note_on_c, 0, 76, 59
1, 98220, Note_on_c, 0, 76, 0
1, 98220, Note_on_c, 0, 83, 0
1, 98220, Note_on_c, 0, 80, 0
1, 98220, Note_on_c, 0, 71, 0
1, 98400, Tempo, 521739
1, 98400, Note_on_c, 0, 64, 0
1, 98400, Note_on_c, 0, 59, 49
1, 98418, Control_c, 0, 64, 0
1, 98640, Tempo, 422535
1, 98640, Note_on_c, 0, 92, 0
1, 98640, Note_on_c, 0, 80, 51
1, 98640, Note_on_c, 0, 83, 51
1, 98640, Note_on_c, 0, 90, 63
1, 98640, Note_on_c, 0, 76, 58
1, 98640, Note_on_c, 0, 71, 49
1, 98700, Note_on_c, 0, 71, 0
1, 98700, Note_on_c, 0, 80, 0
1, 98700, Note_on_c, 0, 83, 0
1, 98700, Note_on_c, 0, 76, 0
1, 98760, Note_on_c, 0, 90, 0
1, 98760, Note_on_c, 0, 88, 63
1, 98880, Tempo, 542986
1, 98880, Note_on_c, 0, 88, 0
1, 98880, Note_on_c, 0, 59, 0
1, 98880, Note_on_c, 0, 87, 71
1, 98880, Note_on_c, 0, 63, 49
1, 98940, Note_on_c, 0, 87, 0
1, 99120, Tempo, 518359
1, 99120, Note_on_c, 0, 81, 51
1, 99120, Note_on_c, 0, 83, 54
1, 99120, Note_on_c, 0, 88, 66
1, 99120, Note_on_c, 0, 78, 59
1, 99120, Note_on_c, 0, 71, 50
1, 99180, Note_on_c, 0, 71, 0
1, 99180, Note_on_c, 0, 81, 0
1, 99180, Note_on_c, 0, 83, 0
1, 99180, Note_on_c, 0, 88, 0
1, 99180, Note_on_c, 0, 78, 0
1, 99360, Tempo, 532151
1, 99360, Note_on_c, 0, 63, 0
1, 99360, Note_on_c, 0, 90, 72
1, 99360, Note_on_c, 0, 59, 49
1, 99399, Control_c, 0, 64, 127
1, 99600, Tempo, 542986
1, 99600, Note_on_c, 0, 81, 51
1, 99600, Note_on_c, 0, 83, 54
1, 99600, Note_on_c, 0, 75, 58
1, 99600, Note_on_c, 0, 71, 49
1, 99660, Note_on_c, 0, 71, 0
1, 99660, Note_on_c, 0, 83, 0
1, 99660, Note_on_c, 0, 81, 0
1, 99660, Note_on_c, 0, 75, 0
1, 99840, Tempo, 558140
1, 99840, Note_on_c, 0, 90, 0
1, 99840, Note_on_c, 0, 59, 0
1, 99840, Note_on_c, 0, 92, 69
1, 99840, Note_on_c, 0, 64, 49
1, 99876, Control_c, 0, 64, 0
1, 99960, Control_c, 0, 64, 127
1, 100080, Note_on_c, 0, 80, 54
1, 100080, Note_on_c, 0, 83, 54
1, 100080, Note_on_c, 0, 71, 50
1, 100080, Note_on_c, 0, 76, 59
1, 100140, Note_on_c, 0, 76, 0
1, 100140, Note_on_c, 0, 83, 0
1, 100140, Note_on_c, 0, 80, 0
1, 100140, Note_on_c, 0, 71, 0
1, 100320, Tempo, 532151
1, 100320, Note_on_c, 0, 64, 0
1, 100320, Note_on_c, 0, 64, 49
1, 100338, Control_c, 0, 64, 0
1, 100560, Tempo, 448598
1, 100560, Note_on_c, 0, 92, 0
1, 100560, Note_on_c, 0, 80, 51
1, 100560, Note_on_c, 0, 83, 51
1, 100560, Note_on_c, 0, 90, 63
1, 100560, Note_on_c, 0, 80, 58
1, 100560, Note_on_c, 0, 71, 49
1, 100620, Note_on_c, 0, 71, 0
1, 100620, Note_on_c, 0, 80, 0
1, 100620, Note_on_c, 0, 83, 0
1, 100620, Note_on_c, 0, 80, 0
1, 100680, Note_on_c, 0, 90, 0
1, 100680, Note_on_c, 0, 88, 63
1, 100800, Tempo, 451128
1, 100800, Note_on_c, 0, 88, 0
1, 100800, Note_on_c, 0, 64, 0
1, 100800, Note_on_c, 0, 87, 71
1, 100800, Note_on_c, 0, 63, 49
1, 100820, Control_c, 0, 64, 0
1, 100846, Control_c, 0, 64, 127
1, 100920, Note_on_c, 0, 87, 0
1, 100920, Note_on_c, 0, 88, 66
1, 101040, Tempo, 464217
1, 101040, Note_on_c, 0, 88, 0
1, 101040, Note_on_c, 0, 80, 54
1, 101040, Note_on_c, 0, 90, 66
1, 101040, Note_on_c, 0, 78, 59
1, 101040, Note_on_c, 0, 71, 50
1, 101100, Note_on_c, 0, 71, 0
1, 101100, Note_on_c, 0, 80, 0
1, 101100, Note_on_c, 0, 78, 0
1, 101160, Note_on_c, 0, 90, 0
1, 101160, Note_on_c, 0, 92, 66
1, 101280, Tempo, 532151
1, 101280, Note_on_c, 0, 92, 0
1, 101280, Note_on_c, 0, 63, 0
1, 101280, Note_on_c, 0, 90, 72
1, 101280, Note_on_c, 0, 61, 49
1, 101312, Control_c, 0, 64, 0
1, 101340, Note_on_c, 0, 90, 0
1, 101520, Tempo, 483871
1, 101520, Note_on_c, 0, 80, 54
1, 101520, Note_on_c, 0, 88, 70
1, 101520, Note_on_c, 0, 68, 49
1, 101520, Note_on_c, 0, 76, 58
1, 101520, Note_on_c, 0, 73, 49
1, 101580, Note_on_c, 0, 73, 0
1, 101580, Note_on_c, 0, 80, 0
1, 101580, Note_on_c, 0, 88, 0
1, 101580, Note_on_c, 0, 68, 0
1, 101580, Note_on_c, 0, 76, 0
1, 101640, Tempo, 472441
1, 101760, Tempo, 489796
1, 101760, Note_on_c, 0, 61, 0
1, 101760, Note_on_c, 0, 87, 74
1, 101760, Note_on_c, 0, 60, 49
1, 101820, Note_on_c, 0, 87, 0
1, 102000, Tempo, 528634
1, 102000, Note_on_c, 0, 80, 51
1, 102000, Note_on_c, 0, 88, 77
1, 102000, Note_on_c, 0, 75, 59
1, 102000, Note_on_c, 0, 68, 50
1, 102060, Note_on_c, 0, 68, 0
1, 102060, Note_on_c, 0, 88, 0
1, 102060, Note_on_c, 0, 75, 0
1, 102060, Note_on_c, 0, 80, 0
1, 102240, Tempo, 539326
1, 102240, Note_on_c, 0, 60, 0
1, 102240, Note_on_c, 0, 90, 78
1, 102240, Note_on_c, 0, 56, 49
1, 102261, Control_c, 0, 64, 127
1, 102480, Tempo, 498960
1, 102480, Note_on_c, 0, 80, 51
1, 102480, Note_on_c, 0, 63, 49
1, 102480, Note_on_c, 0, 72, 58
1, 102540, Note_on_c, 0, 72, 0
1, 102540, Note_on_c, 0, 80, 0
1, 102540, Note_on_c, 0, 63, 0
1, 102600, Note_on_c, 0, 90, 0
1, 102600, Note_on_c, 0, 88, 73
1, 102720, Tempo, 451128
1, 102720, Note_on_c, 0, 88, 0
1, 102720, Note_on_c, 0, 56, 0
1, 102720, Note_on_c, 0, 87, 71
1, 102720, Note_on_c, 0, 61, 49
1, 102740, Control_c, 0, 64, 0
1, 102766, Control_c, 0, 64, 127
1, 102840, Note_on_c, 0, 87, 0
1, 102840, Note_on_c, 0, 88, 66
1, 102960, Note_on_c, 0, 88, 0
1, 102960, Note_on_c, 0, 80, 51
1, 102960, Note_on_c, 0, 90, 66
1, 102960, Note_on_c, 0, 76, 59
1, 102960, Note_on_c, 0, 68, 50
1, 103020, Note_on_c, 0, 68, 0
1, 103020, Note_on_c, 0, 80, 0
1, 103020, Note_on_c, 0, 76, 0
1, 103080, Note_on_c, 0, 90, 0
1, 103080, Note_on_c, 0, 92, 66
1, 103200, Tempo, 515021
1, 103200, Note_on_c, 0, 92, 0
1, 103200, Note_on_c, 0, 61, 0
1, 103200, Note_on_c, 0, 90, 72
1, 103200, Note_on_c, 0, 56, 49
1, 103240, Control_c, 0, 64, 0
1, 103260, Note_on_c, 0, 90, 0
1, 103440, Tempo, 515021
1, 103440, Note_on_c, 0, 80, 51
1, 103440, Note_on_c, 0, 88, 70
1, 103440, Note_on_c, 0, 73, 58
1, 103440, Note_on_c, 0, 68, 49
1, 103440, Note_on_c, 0, 64, 49
1, 103500, Note_on_c, 0, 64, 0
1, 103500, Note_on_c, 0, 80, 0
1, 103500, Note_on_c, 0, 88, 0
1, 103500, Note_on_c, 0, 73, 0
1, 103500, Note_on_c, 0, 68, 0
1, 103680, Tempo, 525164
1, 103680, Note_on_c, 0, 56, 0
1, 103680, Note_on_c, 0, 87, 74
1, 103680, Note_on_c, 0, 60, 49
1, 103740, Note_on_c, 0, 87, 0
1, 103920, Note_on_c, 0, 80, 51
1, 103920, Note_on_c, 0, 85, 69
1, 103920, Note_on_c, 0, 66, 50
1, 103920, Note_on_c, 0, 75, 59
1, 103920, Note_on_c, 0, 68, 50
1, 103980, Note_on_c, 0, 68, 0
1, 103980, Note_on_c, 0, 80, 0
1, 103980, Note_on_c, 0, 85, 0
1, 103980, Note_on_c, 0, 66, 0
1, 103980, Note_on_c, 0, 75, 0
1, 104160, Note_on_c, 0, 60, 0
1, 104160, Note_on_c, 0, 84, 69
1, 104160, Note_on_c, 0, 56, 49
1, 104192, Control_c, 0, 64, 127
1, 104400, Tempo, 554273
1, 104400, Note_on_c, 0, 80, 51
1, 104400, Note_on_c, 0, 66, 49
1, 104400, Note_on_c, 0, 63, 49
1, 104400, Note_on_c, 0, 72, 58
1, 104460, Note_on_c, 0, 72, 0
1, 104460, Note_on_c, 0, 66, 0
1, 104460, Note_on_c, 0, 80, 0
1, 104460, Note_on_c, 0, 63, 0
1, 104640, Tempo, 446097
1, 104640, Note_on_c, 0, 84, 0
1, 104640, Note_on_c, 0, 56, 0
1, 104640, Note_on_c, 0, 87, 71
1, 104640, Note_on_c, 0, 61, 49
1, 104640, Control_c, 0, 64, 0
1, 104693, Control_c, 0, 64, 127
1, 104760, Note_on_c, 0, 87, 0
1, 104760, Note_on_c, 0, 88, 66
1, 104880, Note_on_c, 0, 88, 0
1, 104880, Note_on_c, 0, 80, 51
1, 104880, Note_on_c, 0, 90, 66
1, 104880, Note_on_c, 0, 76, 59
1, 104880, Note_on_c, 0, 68, 50
1, 104940, Note_on_c, 0, 68, 0
1, 104940, Note_on_c, 0, 80, 0
1, 104940, Note_on_c, 0, 76, 0
1, 105000, Note_on_c, 0, 90, 0
1, 105000, Note_on_c, 0, 92, 66
1, 105120, Tempo, 532151
1, 105120, Note_on_c, 0, 92, 0
1, 105120, Note_on_c, 0, 61, 0
1, 105120, Note_on_c, 0, 90, 72
1, 105120, Note_on_c, 0, 64, 49
1, 105173, Control_c, 0, 64, 0
1, 105180, Note_on_c, 0, 90, 0
1, 105360, Tempo, 486815
1, 105360, Note_on_c, 0, 85, 51
1, 105360, Note_on_c, 0, 80, 51
1, 105360, Note_on_c, 0, 88, 70
1, 105360, Note_on_c, 0, 64, 49
1, 105360, Note_on_c, 0, 73, 58
1, 105420, Note_on_c, 0, 73, 0
1, 105420, Note_on_c, 0, 85, 0
1, 105420, Note_on_c, 0, 80, 0
1, 105420, Note_on_c, 0, 88, 0
1, 105420, Note_on_c, 0, 64, 0
1, 105600, Tempo, 554273
1, 105600, Note_on_c, 0, 64, 0
1, 105600, Note_on_c, 0, 87, 74
1, 105600, Note_on_c, 0, 66, 49
1, 105660, Note_on_c, 0, 87, 0
1, 105840, Note_on_c, 0, 81, 51
1, 105840, Note_on_c, 0, 85, 51
1, 105840, Note_on_c, 0, 88, 77
1, 105840, Note_on_c, 0, 73, 50
1, 105840, Note_on_c, 0, 75, 59
1, 105840, Note_on_c, 0, 69, 50
1, 105900, Note_on_c, 0, 69, 0
1, 105900, Note_on_c, 0, 73, 0
1, 105900, Note_on_c, 0, 81, 0
1, 105900, Note_on_c, 0, 85, 0
1, 105900, Note_on_c, 0, 88, 0
1, 105900, Note_on_c, 0, 75, 0
1, 106080, Tempo, 542986
1, 106080, Note_on_c, 0, 66, 0
1, 106080, Note_on_c, 0, 90, 81
1, 106080, Note_on_c, 0, 63, 49
1, 106091, Control_c, 0, 64, 127
1, 106320, Note_on_c, 0, 81, 51
1, 106320, Note_on_c, 0, 85, 51
1, 106320, Note_on_c, 0, 69, 49
1, 106320, Note_on_c, 0, 78, 58
1, 106323, Note_on_c, 0, 73, 49
1, 106380, Note_on_c, 0, 78, 0
1, 106380, Note_on_c, 0, 85, 0
1, 106380, Note_on_c, 0, 81, 0
1, 106380, Note_on_c, 0, 69, 0
1, 106383, Note_on_c, 0, 73, 0
1, 106560, Tempo, 469667
1, 106560, Note_on_c, 0, 63, 0
1, 106560, Note_on_c, 0, 90, 0
1, 106560, Note_on_c, 0, 88, 71
1, 106560, Note_on_c, 0, 67, 49
1, 106560, Control_c, 0, 64, 0
1, 106606, Control_c, 0, 64, 127
1, 106680, Note_on_c, 0, 88, 0
1, 106680, Note_on_c, 0, 87, 63
1, 106800, Note_on_c, 0, 87, 0
1, 106800, Note_on_c, 0, 79, 51
1, 106800, Note_on_c, 0, 82, 51
1, 106800, Note_on_c, 0, 85, 63
1, 106800, Note_on_c, 0, 76, 59
1, 106800, Note_on_c, 0, 73, 50
1, 106800, Note_on_c, 0, 70, 50
1, 106860, Note_on_c, 0, 70, 0
1, 106860, Note_on_c, 0, 76, 0
1, 106860, Note_on_c, 0, 79, 0
1, 106860, Note_on_c, 0, 82, 0
1, 106860, Note_on_c, 0, 73, 0
1, 106920, Tempo, 604534
1, 106920, Note_on_c, 0, 85, 0
1, 106920, Note_on_c, 0, 88, 63
1, 107040, Tempo, 480962
1, 107040, Note_on_c, 0, 88, 0
1, 107040, Note_on_c, 0, 67, 0
1, 107040, Note_on_c, 0, 87, 72
1, 107040, Note_on_c, 0, 68, 49
1, 107058, Control_c, 0, 64, 0
1, 107097, Control_c, 0, 64, 127
1, 107160, Note_on_c, 0, 87, 0
1, 107160, Note_on_c, 0, 85, 64
1, 107280, Note_on_c, 0, 85, 0
1, 107280, Note_on_c, 0, 80, 51
1, 107280, Note_on_c, 0, 84, 64
1, 107280, Note_on_c, 0, 75, 49
1, 107280, Note_on_c, 0, 72, 49
1, 107280, Note_on_c, 0, 78, 58
1, 107340, Note_on_c, 0, 78, 0
1, 107340, Note_on_c, 0, 75, 0
1, 107340, Note_on_c, 0, 80, 0
1, 107340, Note_on_c, 0, 72, 0
1, 107400, Tempo, 591133
1, 107400, Note_on_c, 0, 84, 0
1, 107400, Note_on_c, 0, 87, 63
1, 107456, Tempo, 562061
1, 107480, Tempo, 558140
1, 107500, Tempo, 505263
1, 107520, Time_signature, 8, 2, 24, 8
1, 107520, Note_on_c, 0, 87, 0
1, 107520, Note_on_c, 0, 68, 0
1, 107520, Note_on_c, 0, 85, 65
1, 107520, Note_on_c, 0, 61, 49
1, 107556, Control_c, 0, 64, 0
1, 107572, Tempo, 502092
1, 107620, Tempo, 498960
1, 107640, Note_on_c, 0, 85, 0
1, 107640, Note_on_c, 0, 80, 56
1, 107647, Control_c, 0, 64, 127
1, 107668, Tempo, 495868
1, 107740, Tempo, 492813
1, 107760, Note_on_c, 0, 80, 0
1, 107760, Note_on_c, 0, 92, 64
1, 107760, Note_on_c, 0, 68, 50
1, 107760, Note_on_c, 0, 73, 50
1, 107760, Note_on_c, 0, 76, 59
1, 107788, Tempo, 489796
1, 107820, Note_on_c, 0, 76, 0
1, 107820, Note_on_c, 0, 68, 0
1, 107820, Note_on_c, 0, 73, 0
1, 107836, Tempo, 486815
1, 107880, Note_on_c, 0, 92, 0
1, 107880, Note_on_c, 0, 80, 57
1, 107908, Tempo, 483871
1, 107956, Tempo, 480962
1, 108000, Note_on_c, 0, 80, 0
1, 108000, Note_on_c, 0, 61, 0
1, 108000, Note_on_c, 0, 85, 71
1, 108004, Tempo, 478088
1, 108076, Tempo, 475248
1, 108120, Note_on_c, 0, 85, 0
1, 108120, Note_on_c, 0, 80, 63
1, 108124, Tempo, 472441
1, 108172, Tempo, 469667
1, 108240, Note_on_c, 0, 80, 0
1, 108240, Note_on_c, 0, 92, 71
1, 108244, Tempo, 466926
1, 108292, Tempo, 464217
1, 108340, Tempo, 461538
1, 108360, Note_on_c, 0, 92, 0
1, 108360, Note_on_c, 0, 80, 63
1, 108388, Tempo, 458891
1, 108460, Tempo, 429338
1, 108480, Note_on_c, 0, 80, 0
1, 108480, Note_on_c, 0, 85, 72
1, 108580, Tempo, 427046
1, 108600, Note_on_c, 0, 85, 0
1, 108600, Note_on_c, 0, 80, 62
1, 108676, Tempo, 424779
1, 108720, Note_on_c, 0, 80, 0
1, 108720, Note_on_c, 0, 92, 71
1, 108796, Tempo, 422535
1, 108840, Note_on_c, 0, 92, 0
1, 108840, Note_on_c, 0, 80, 63
1, 108916, Tempo, 420315
1, 108960, Note_on_c, 0, 80, 0
1, 108960, Note_on_c, 0, 85, 74
1, 109080, Note_on_c, 0, 85, 0
1, 109080, Note_on_c, 0, 80, 64
1, 109200, Note_on_c, 0, 80, 0
1, 109200, Note_on_c, 0, 92, 72
1, 109320, Note_on_c, 0, 92, 0
1, 109320, Note_on_c, 0, 80, 66
1, 109396, Tempo, 422535
1, 109440, Note_on_c, 0, 80, 0
1, 109440, Note_on_c, 0, 85, 78
1, 109444, Tempo, 422535
1, 109560, Note_on_c, 0, 85, 0
1, 109560, Note_on_c, 0, 80, 66
1, 109680, Note_on_c, 0, 80, 0
1, 109680, Note_on_c, 0, 92, 73
1, 109756, Tempo, 424779
1, 109800, Note_on_c, 0, 92, 0
1, 109800, Note_on_c, 0, 80, 62
1, 109920, Note_on_c, 0, 80, 0
1, 109920, Note_on_c, 0, 85, 71
1, 110040, Note_on_c, 0, 85, 0
1, 110040, Note_on_c, 0, 80, 60
1, 110044, Tempo, 427046
1, 110160, Note_on_c, 0, 80, 0
1, 110160, Note_on_c, 0, 92, 65
1, 110280, Note_on_c, 0, 92, 0
1, 110280, Note_on_c, 0, 80, 58
1, 110332, Tempo, 429338
1, 110400, Note_on_c, 0, 80, 0
1, 110400, Note_on_c, 0, 85, 67
1, 110404, Tempo, 431655
1, 110452, Tempo, 433996
1, 110500, Tempo, 436364
1, 110520, Note_on_c, 0, 85, 0
1, 110520, Note_on_c, 0, 80, 57
1, 110572, Tempo, 438757
1, 110620, Tempo, 441176
1, 110640, Note_on_c, 0, 80, 0
1, 110640, Note_on_c, 0, 92, 63
1, 110668, Tempo, 443623
1, 110740, Tempo, 446097
1, 110760, Note_on_c, 0, 92, 0
1, 110760, Note_on_c, 0, 80, 53
1, 110788, Tempo, 448598
1, 110836, Tempo, 451128
1, 110880, Note_on_c, 0, 80, 0
1, 110880, Note_on_c, 0, 85, 61
1, 110908, Tempo, 453686
1, 110956, Tempo, 456274
1, 111000, Note_on_c, 0, 85, 0
1, 111000, Note_on_c, 0, 80, 51
1, 111004, Tempo, 458891
1, 111076, Tempo, 461538
1, 111120, Note_on_c, 0, 80, 0
1, 111120, Note_on_c, 0, 92, 56
1, 111124, Tempo, 464217
1, 111172, Tempo, 466926
1, 111240, Note_on_c, 0, 92, 0
1, 111240, Note_on_c, 0, 80, 45
1, 111244, Tempo, 469667
1, 111292, Tempo, 472441
1, 111340, Tempo, 475248
1, 111360, Time_signature, 2, 2, 24, 8
1, 111360, Tempo, 453686
1, 111360, Note_on_c, 0, 80, 0
1, 111360, Note_on_c, 0, 92, 70
1, 111360, Note_on_c, 0, 64, 39
1, 111360, Control_c, 0, 64, 0
1, 111480, Note_on_c, 0, 83, 54
1, 111480, Note_on_c, 0, 71, 40
1, 111540, Note_on_c, 0, 71, 0
1, 111540, Note_on_c, 0, 83, 0
1, 111600, Tempo, 429338
1, 111600, Note_on_c, 0, 64, 0
1, 111600, Note_on_c, 0, 92, 0
1, 111600, Note_on_c, 0, 95, 54
1, 111600, Note_on_c, 0, 68, 47
1, 111660, Note_on_c, 0, 68, 0
1, 111660, Note_on_c, 0, 95, 0
1, 111720, Note_on_c, 0, 83, 54
1, 111720, Note_on_c, 0, 71, 47
1, 111780, Note_on_c, 0, 71, 0
1, 111780, Note_on_c, 0, 83, 0
1, 111840, Tempo, 446097
1, 111840, Note_on_c, 0, 92, 66
1, 111840, Note_on_c, 0, 59, 39
1, 111960, Note_on_c, 0, 83, 54
1, 111960, Note_on_c, 0, 71, 39
1, 112020, Note_on_c, 0, 71, 0
1, 112020, Note_on_c, 0, 83, 0
1, 112080, Tempo, 429338
1, 112080, Note_on_c, 0, 59, 0
1, 112080, Note_on_c, 0, 92, 0
1, 112080, Note_on_c, 0, 95, 54
1, 112080, Note_on_c, 0, 68, 46
1, 112140, Note_on_c, 0, 68, 0
1, 112140, Note_on_c, 0, 95, 0
1, 112200, Note_on_c, 0, 83, 51
1, 112200, Note_on_c, 0, 71, 39
1, 112260, Note_on_c, 0, 71, 0
1, 112260, Note_on_c, 0, 83, 0
1, 112320, Tempo, 446097
1, 112320, Note_on_c, 0, 92, 69
1, 112320, Note_on_c, 0, 64, 39
1, 112380, Control_c, 0, 64, 127
1, 112440, Note_on_c, 0, 83, 54
1, 112440, Note_on_c, 0, 71, 40
1, 112500, Note_on_c, 0, 71, 0
1, 112500, Note_on_c, 0, 83, 0
1, 112560, Tempo, 424779
1, 112560, Note_on_c, 0, 64, 0
1, 112560, Note_on_c, 0, 95, 54
1, 112560, Note_on_c, 0, 68, 47
1, 112620, Note_on_c, 0, 68, 0
1, 112620, Note_on_c, 0, 95, 0
1, 112680, Note_on_c, 0, 83, 54
1, 112680, Note_on_c, 0, 71, 47
1, 112740, Note_on_c, 0, 71, 0
1, 112740, Note_on_c, 0, 83, 0
1, 112800, Tempo, 443623
1, 112800, Note_on_c, 0, 90, 63
1, 112800, Note_on_c, 0, 59, 39
1, 112818, Control_c, 0, 64, 0
1, 112860, Note_on_c, 0, 90, 0
1, 112920, Note_on_c, 0, 83, 51
1, 112920, Note_on_c, 0, 71, 39
1, 112980, Note_on_c, 0, 71, 0
1, 112980, Note_on_c, 0, 83, 0
1, 113040, Tempo, 427046
1, 113040, Note_on_c, 0, 59, 0
1, 113040, Note_on_c, 0, 92, 0
1, 113040, Note_on_c, 0, 88, 63
1, 113040, Note_on_c, 0, 68, 46
1, 113100, Note_on_c, 0, 68, 0
1, 113100, Note_on_c, 0, 88, 0
1, 113160, Note_on_c, 0, 83, 51
1, 113160, Note_on_c, 0, 71, 39
1, 113220, Note_on_c, 0, 71, 0
1, 113220, Note_on_c, 0, 83, 0
1, 113280, Tempo, 441176
1, 113280, Note_on_c, 0, 87, 71
1, 113280, Note_on_c, 0, 66, 39
1, 113340, Note_on_c, 0, 87, 0
1, 113400, Note_on_c, 0, 83, 51
1, 113400, Note_on_c, 0, 71, 40
1, 113460, Note_on_c, 0, 71, 0
1, 113460, Note_on_c, 0, 83, 0
1, 113520, Tempo, 458891
1, 113520, Note_on_c, 0, 66, 0
1, 113520, Note_on_c, 0, 95, 54
1, 113520, Note_on_c, 0, 88, 66
1, 113520, Note_on_c, 0, 69, 47
1, 113580, Note_on_c, 0, 69, 0
1, 113580, Note_on_c, 0, 88, 0
1, 113580, Note_on_c, 0, 95, 0
1, 113640, Tempo, 475248
1, 113640, Note_on_c, 0, 83, 51
1, 113640, Note_on_c, 0, 71, 47
1, 113700, Tempo, 518359
1, 113700, Note_on_c, 0, 71, 0
1, 113700, Note_on_c, 0, 83, 0
1, 113760, Tempo, 422535
1, 113760, Note_on_c, 0, 90, 72
1, 113760, Note_on_c, 0, 59, 39
1, 113799, Control_c, 0, 64, 127
1, 113880, Note_on_c, 0, 83, 51
1, 113880, Note_on_c, 0, 71, 39
1, 113940, Note_on_c, 0, 71, 0
1, 113940, Note_on_c, 0, 83, 0
1, 114000, Tempo, 436364
1, 114000, Note_on_c, 0, 59, 0
1, 114000, Note_on_c, 0, 95, 54
1, 114000, Note_on_c, 0, 69, 46
1, 114060, Note_on_c, 0, 69, 0
1, 114060, Note_on_c, 0, 95, 0
1, 114120, Note_on_c, 0, 83, 51
1, 114120, Note_on_c, 0, 71, 39
1, 114180, Note_on_c, 0, 71, 0
1, 114180, Note_on_c, 0, 83, 0
1, 114240, Tempo, 446097
1, 114240, Note_on_c, 0, 90, 0
1, 114240, Note_on_c, 0, 92, 69
1, 114240, Note_on_c, 0, 64, 39
1, 114276, Control_c, 0, 64, 0
1, 114321, Control_c, 0, 64, 127
1, 114360, Note_on_c, 0, 83, 54
1, 114360, Note_on_c, 0, 71, 40
1, 114420, Note_on_c, 0, 71, 0
1, 114420, Note_on_c, 0, 83, 0
1, 114480, Note_on_c, 0, 64, 0
1, 114480, Note_on_c, 0, 95, 54
1, 114480, Note_on_c, 0, 68, 47
1, 114540, Tempo, 483871
1, 114540, Note_on_c, 0, 68, 0
1, 114540, Note_on_c, 0, 95, 0
1, 114600, Tempo, 436364
1, 114600, Note_on_c, 0, 83, 54
1, 114600, Note_on_c, 0, 71, 47
1, 114660, Note_on_c, 0, 71, 0
1, 114660, Note_on_c, 0, 83, 0
1, 114720, Tempo, 424779
1, 114720, Note_on_c, 0, 90, 63
1, 114720, Note_on_c, 0, 59, 39
1, 114738, Control_c, 0, 64, 0
1, 114780, Note_on_c, 0, 90, 0
1, 114840, Note_on_c, 0, 83, 51
1, 114840, Note_on_c, 0, 71, 39
1, 114900, Note_on_c, 0, 71, 0
1, 114900, Note_on_c, 0, 83, 0
1, 114960, Tempo, 438757
1, 114960, Note_on_c, 0, 59, 0
1, 114960, Note_on_c, 0, 92, 0
1, 114960, Note_on_c, 0, 95, 54
1, 114960, Note_on_c, 0, 88, 63
1, 114960, Note_on_c, 0, 68, 46
1, 115020, Note_on_c, 0, 68, 0
1, 115020, Note_on_c, 0, 88, 0
1, 115020, Note_on_c, 0, 95, 0
1, 115080, Note_on_c, 0, 83, 51
1, 115080, Note_on_c, 0, 71, 39
1, 115140, Note_on_c, 0, 71, 0
1, 115140, Note_on_c, 0, 83, 0
1, 115200, Tempo, 451128
1, 115200, Note_on_c, 0, 87, 71
1, 115200, Note_on_c, 0, 66, 39
1, 115260, Note_on_c, 0, 87, 0
1, 115320, Note_on_c, 0, 83, 51
1, 115320, Note_on_c, 0, 71, 40
1, 115380, Note_on_c, 0, 71, 0
1, 115380, Note_on_c, 0, 83, 0
1, 115440, Tempo, 469667
1, 115440, Note_on_c, 0, 66, 0
1, 115440, Note_on_c, 0, 95, 54
1, 115440, Note_on_c, 0, 88, 66
1, 115440, Note_on_c, 0, 69, 47
1, 115500, Note_on_c, 0, 69, 0
1, 115500, Note_on_c, 0, 88, 0
1, 115500, Note_on_c, 0, 95, 0
1, 115560, Tempo, 433996
1, 115560, Note_on_c, 0, 83, 54
1, 115560, Note_on_c, 0, 71, 47
1, 115620, Note_on_c, 0, 71, 0
1, 115620, Note_on_c, 0, 83, 0
1, 115680, Tempo, 448598
1, 115680, Note_on_c, 0, 90, 72
1, 115680, Note_on_c, 0, 59, 39
1, 115719, Control_c, 0, 64, 127
1, 115800, Note_on_c, 0, 83, 51
1, 115800, Note_on_c, 0, 71, 39
1, 115860, Note_on_c, 0, 71, 0
1, 115860, Note_on_c, 0, 83, 0
1, 115920, Tempo, 436364
1, 115920, Note_on_c, 0, 59, 0
1, 115920, Note_on_c, 0, 95, 54
1, 115920, Note_on_c, 0, 69, 46
1, 115980, Note_on_c, 0, 69, 0
1, 115980, Note_on_c, 0, 95, 0
1, 116040, Note_on_c, 0, 83, 51
1, 116040, Note_on_c, 0, 71, 39
1, 116100, Note_on_c, 0, 71, 0
1, 116100, Note_on_c, 0, 83, 0
1, 116160, Tempo, 427046
1, 116160, Note_on_c, 0, 90, 0
1, 116160, Note_on_c, 0, 92, 69
1, 116160, Note_on_c, 0, 64, 39
1, 116196, Control_c, 0, 64, 0
1, 116241, Control_c, 0, 64, 127
1, 116280, Note_on_c, 0, 83, 54
1, 116280, Note_on_c, 0, 71, 40
1, 116340, Note_on_c, 0, 71, 0
1, 116340, Note_on_c, 0, 83, 0
1, 116400, Tempo, 415945
1, 116400, Note_on_c, 0, 64, 0
1, 116400, Note_on_c, 0, 95, 54
1, 116400, Note_on_c, 0, 68, 47
1, 116460, Note_on_c, 0, 68, 0
1, 116460, Note_on_c, 0, 95, 0
1, 116520, Note_on_c, 0, 83, 54
1, 116520, Note_on_c, 0, 71, 47
1, 116580, Note_on_c, 0, 71, 0
1, 116580, Note_on_c, 0, 83, 0
1, 116640, Tempo, 431655
1, 116640, Note_on_c, 0, 90, 63
1, 116640, Note_on_c, 0, 64, 39
1, 116658, Control_c, 0, 64, 0
1, 116700, Note_on_c, 0, 90, 0
1, 116760, Note_on_c, 0, 83, 51
1, 116760, Note_on_c, 0, 71, 39
1, 116820, Note_on_c, 0, 71, 0
1, 116820, Note_on_c, 0, 83, 0
1, 116880, Tempo, 453686
1, 116880, Note_on_c, 0, 64, 0
1, 116880, Note_on_c, 0, 92, 0
1, 116880, Note_on_c, 0, 88, 63
1, 116880, Note_on_c, 0, 95, 51
1, 116880, Note_on_c, 0, 68, 46
1, 116940, Note_on_c, 0, 68, 0
1, 116940, Note_on_c, 0, 95, 0
1, 116940, Note_on_c, 0, 88, 0
1, 117000, Note_on_c, 0, 83, 51
1, 117000, Note_on_c, 0, 71, 39
1, 117060, Note_on_c, 0, 71, 0
1, 117060, Note_on_c, 0, 83, 0
1, 117120, Tempo, 456274
1, 117120, Note_on_c, 0, 87, 71
1, 117120, Note_on_c, 0, 63, 39
1, 117140, Control_c, 0, 64, 0
1, 117166, Control_c, 0, 64, 127
1, 117240, Note_on_c, 0, 87, 0
1, 117240, Note_on_c, 0, 88, 66
1, 117240, Note_on_c, 0, 71, 40
1, 117300, Tempo, 472441
1, 117300, Note_on_c, 0, 71, 0
1, 117360, Tempo, 405405
1, 117360, Note_on_c, 0, 88, 0
1, 117360, Note_on_c, 0, 63, 0
1, 117360, Note_on_c, 0, 90, 66
1, 117360, Note_on_c, 0, 66, 47
1, 117420, Note_on_c, 0, 66, 0
1, 117480, Note_on_c, 0, 90, 0
1, 117480, Note_on_c, 0, 92, 66
1, 117480, Note_on_c, 0, 71, 47
1, 117540, Note_on_c, 0, 71, 0
1, 117600, Tempo, 436364
1, 117600, Note_on_c, 0, 92, 0
1, 117600, Note_on_c, 0, 90, 72
1, 117600, Note_on_c, 0, 61, 39
1, 117632, Control_c, 0, 64, 0
1, 117660, Note_on_c, 0, 90, 0
1, 117720, Note_on_c, 0, 83, 54
1, 117720, Note_on_c, 0, 68, 39
1, 117780, Note_on_c, 0, 68, 0
1, 117780, Note_on_c, 0, 83, 0
1, 117840, Tempo, 466926
1, 117840, Note_on_c, 0, 61, 0
1, 117840, Note_on_c, 0, 92, 51
1, 117840, Note_on_c, 0, 88, 70
1, 117840, Note_on_c, 0, 64, 46
1, 117900, Note_on_c, 0, 64, 0
1, 117900, Note_on_c, 0, 88, 0
1, 117900, Note_on_c, 0, 92, 0
1, 117960, Note_on_c, 0, 83, 54
1, 117960, Note_on_c, 0, 68, 39
1, 118020, Note_on_c, 0, 68, 0
1, 118020, Note_on_c, 0, 83, 0
1, 118080, Tempo, 436364
1, 118080, Note_on_c, 0, 87, 74
1, 118080, Note_on_c, 0, 60, 39
1, 118140, Note_on_c, 0, 87, 0
1, 118200, Note_on_c, 0, 80, 54
1, 118200, Note_on_c, 0, 68, 40
1, 118260, Note_on_c, 0, 68, 0
1, 118260, Note_on_c, 0, 80, 0
1, 118320, Tempo, 451128
1, 118320, Note_on_c, 0, 60, 0
1, 118320, Note_on_c, 0, 92, 51
1, 118320, Note_on_c, 0, 88, 77
1, 118320, Note_on_c, 0, 63, 47
1, 118380, Note_on_c, 0, 63, 0
1, 118380, Note_on_c, 0, 88, 0
1, 118380, Note_on_c, 0, 92, 0
1, 118440, Note_on_c, 0, 80, 54
1, 118440, Note_on_c, 0, 68, 47
1, 118500, Note_on_c, 0, 68, 0
1, 118500, Note_on_c, 0, 80, 0
1, 118560, Tempo, 456274
1, 118560, Note_on_c, 0, 90, 78
1, 118560, Note_on_c, 0, 56, 39
1, 118581, Control_c, 0, 64, 127
1, 118620, Note_on_c, 0, 90, 0
1, 118680, Note_on_c, 0, 80, 54
1, 118680, Note_on_c, 0, 68, 39
1, 118740, Note_on_c, 0, 68, 0
1, 118740, Note_on_c, 0, 80, 0
1, 118800, Tempo, 472441
1, 118800, Note_on_c, 0, 56, 0
1, 118800, Note_on_c, 0, 92, 51
1, 118800, Note_on_c, 0, 88, 73
1, 118800, Note_on_c, 0, 63, 46
1, 118860, Note_on_c, 0, 63, 0
1, 118860, Note_on_c, 0, 88, 0
1, 118860, Note_on_c, 0, 92, 0
1, 118920, Note_on_c, 0, 80, 51
1, 118920, Note_on_c, 0, 68, 39
1, 118980, Note_on_c, 0, 68, 0
1, 118980, Note_on_c, 0, 80, 0
1, 119040, Tempo, 411664
1, 119040, Note_on_c, 0, 87, 71
1, 119040, Note_on_c, 0, 61, 39
1, 119060, Control_c, 0, 64, 0
1, 119086, Control_c, 0, 64, 127
1, 119160, Note_on_c, 0, 87, 0
1, 119160, Note_on_c, 0, 88, 66
1, 119160, Note_on_c, 0, 68, 40
1, 119220, Note_on_c, 0, 68, 0
1, 119280, Note_on_c, 0, 88, 0
1, 119280, Note_on_c, 0, 61, 0
1, 119280, Note_on_c, 0, 90, 66
1, 119280, Note_on_c, 0, 64, 47
1, 119340, Note_on_c, 0, 64, 0
1, 119400, Note_on_c, 0, 90, 0
1, 119400, Note_on_c, 0, 92, 66
1, 119400, Note_on_c, 0, 68, 47
1, 119460, Note_on_c, 0, 68, 0
1, 119520, Tempo, 466926
1, 119520, Note_on_c, 0, 92, 0
1, 119520, Note_on_c, 0, 90, 72
1, 119520, Note_on_c, 0, 56, 39
1, 119560, Control_c, 0, 64, 0
1, 119580, Note_on_c, 0, 90, 0
1, 119640, Note_on_c, 0, 80, 51
1, 119640, Note_on_c, 0, 68, 39
1, 119700, Note_on_c, 0, 68, 0
1, 119700, Note_on_c, 0, 80, 0
1, 119760, Tempo, 433996
1, 119760, Note_on_c, 0, 56, 0
1, 119760, Note_on_c, 0, 92, 51
1, 119760, Note_on_c, 0, 88, 70
1, 119760, Note_on_c, 0, 64, 46
1, 119820, Note_on_c, 0, 64, 0
1, 119820, Note_on_c, 0, 88, 0
1, 119820, Note_on_c, 0, 92, 0
1, 119880, Tempo, 446097
1, 119880, Note_on_c, 0, 80, 51
1, 119880, Note_on_c, 0, 68, 39
1, 119940, Note_on_c, 0, 68, 0
1, 119940, Note_on_c, 0, 80, 0
1, 120000, Tempo, 456274
1, 120000, Note_on_c, 0, 87, 74
1, 120000, Note_on_c, 0, 60, 39
1, 120060, Note_on_c, 0, 87, 0
1, 120120, Note_on_c, 0, 80, 51
1, 120120, Note_on_c, 0, 68, 40
1, 120180, Note_on_c, 0, 68, 0
1, 120180, Note_on_c, 0, 80, 0
1, 120240, Tempo, 472441
1, 120240, Note_on_c, 0, 60, 0
1, 120240, Note_on_c, 0, 92, 51
1, 120240, Note_on_c, 0, 85, 69
1, 120240, Note_on_c, 0, 63, 47
1, 120300, Note_on_c, 0, 63, 0
1, 120300, Note_on_c, 0, 85, 0
1, 120300, Note_on_c, 0, 92, 0
1, 120360, Note_on_c, 0, 80, 51
1, 120360, Note_on_c, 0, 68, 47
1, 120420, Note_on_c, 0, 68, 0
1, 120420, Note_on_c, 0, 80, 0
1, 120480, Note_on_c, 0, 84, 69
1, 120480, Note_on_c, 0, 56, 39
1, 120512, Control_c, 0, 64, 127
1, 120600, Note_on_c, 0, 80, 51
1, 120600, Note_on_c, 0, 68, 39
1, 120660, Note_on_c, 0, 68, 0
1, 120660, Note_on_c, 0, 80, 0
1, 120720, Tempo, 451128
1, 120720, Note_on_c, 0, 56, 0
1, 120720, Note_on_c, 0, 92, 51
1, 120720, Note_on_c, 0, 63, 46
1, 120780, Note_on_c, 0, 63, 0
1, 120780, Note_on_c, 0, 92, 0
1, 120840, Note_on_c, 0, 80, 51
1, 120840, Note_on_c, 0, 68, 39
1, 120900, Note_on_c, 0, 68, 0
1, 120900, Note_on_c, 0, 80, 0
1, 120960, Tempo, 422535
1, 120960, Note_on_c, 0, 84, 0
1, 120960, Note_on_c, 0, 87, 71
1, 120960, Note_on_c, 0, 61, 39
1, 120960, Control_c, 0, 64, 0
1, 121013, Control_c, 0, 64, 127
1, 121080, Note_on_c, 0, 87, 0
1, 121080, Note_on_c, 0, 88, 66
1, 121080, Note_on_c, 0, 68, 40
1, 121140, Note_on_c, 0, 68, 0
1, 121200, Note_on_c, 0, 88, 0
1, 121200, Note_on_c, 0, 61, 0
1, 121200, Note_on_c, 0, 90, 66
1, 121200, Note_on_c, 0, 64, 47
1, 121260, Note_on_c, 0, 64, 0
1, 121320, Note_on_c, 0, 90, 0
1, 121320, Note_on_c, 0, 92, 66
1, 121320, Note_on_c, 0, 68, 47
1, 121380, Note_on_c, 0, 68, 0
1, 121440, Tempo, 466926
1, 121440, Note_on_c, 0, 92, 0
1, 121440, Note_on_c, 0, 90, 72
1, 121440, Note_on_c, 0, 56, 39
1, 121493, Control_c, 0, 64, 0
1, 121500, Note_on_c, 0, 90, 0
1, 121560, Note_on_c, 0, 80, 51
1, 121560, Note_on_c, 0, 68, 39
1, 121620, Note_on_c, 0, 68, 0
1, 121620, Note_on_c, 0, 80, 0
1, 121680, Tempo, 448598
1, 121680, Note_on_c, 0, 56, 0
1, 121680, Note_on_c, 0, 92, 51
1, 121680, Note_on_c, 0, 88, 70
1, 121680, Note_on_c, 0, 64, 46
1, 121740, Note_on_c, 0, 64, 0
1, 121740, Note_on_c, 0, 88, 0
1, 121740, Note_on_c, 0, 92, 0
1, 121800, Note_on_c, 0, 80, 51
1, 121800, Note_on_c, 0, 68, 39
1, 121860, Note_on_c, 0, 68, 0
1, 121860, Note_on_c, 0, 80, 0
1, 121920, Tempo, 478088
1, 121920, Note_on_c, 0, 87, 74
1, 121920, Note_on_c, 0, 60, 39
1, 121980, Note_on_c, 0, 87, 0
1, 122040, Note_on_c, 0, 80, 51
1, 122040, Note_on_c, 0, 68, 40
1, 122100, Note_on_c, 0, 68, 0
1, 122100, Note_on_c, 0, 80, 0
1, 122160, Note_on_c, 0, 60, 0
1, 122160, Note_on_c, 0, 92, 51
1, 122160, Note_on_c, 0, 85, 69
1, 122160, Note_on_c, 0, 63, 47
1, 122220, Note_on_c, 0, 63, 0
1, 122220, Note_on_c, 0, 85, 0
1, 122220, Note_on_c, 0, 92, 0
1, 122280, Note_on_c, 0, 80, 51
1, 122280, Note_on_c, 0, 68, 47
1, 122340, Note_on_c, 0, 68, 0
1, 122340, Note_on_c, 0, 80, 0
1, 122400, Tempo, 486815
1, 122400, Note_on_c, 0, 84, 69
1, 122400, Note_on_c, 0, 56, 39
1, 122411, Control_c, 0, 64, 127
1, 122520, Note_on_c, 0, 80, 51
1, 122520, Note_on_c, 0, 68, 39
1, 122580, Note_on_c, 0, 68, 0
1, 122580, Note_on_c, 0, 80, 0
1, 122640, Tempo, 518359
1, 122640, Note_on_c, 0, 56, 0
1, 122640, Note_on_c, 0, 92, 51
1, 122640, Note_on_c, 0, 63, 46
1, 122700, Note_on_c, 0, 63, 0
1, 122700, Note_on_c, 0, 92, 0
1, 122760, Note_on_c, 0, 80, 51
1, 122760, Note_on_c, 0, 68, 39
1, 122820, Note_on_c, 0, 68, 0
1, 122820, Note_on_c, 0, 80, 0
1, 122880, Tempo, 453686
1, 122880, Note_on_c, 0, 84, 0
1, 122880, Note_on_c, 0, 88, 71
1, 122880, Note_on_c, 0, 61, 39
1, 122880, Control_c, 0, 64, 0
1, 122926, Control_c, 0, 64, 127
1, 123000, Note_on_c, 0, 88, 0
1, 123000, Note_on_c, 0, 87, 63
1, 123000, Note_on_c, 0, 68, 40
1, 123060, Note_on_c, 0, 68, 0
1, 123120, Note_on_c, 0, 87, 0
1, 123120, Note_on_c, 0, 61, 0
1, 123120, Note_on_c, 0, 80, 51
1, 123120, Note_on_c, 0, 92, 51
1, 123120, Note_on_c, 0, 85, 63
1, 123120, Note_on_c, 0, 64, 47
1, 123180, Note_on_c, 0, 64, 0
1, 123180, Note_on_c, 0, 80, 0
1, 123180, Note_on_c, 0, 92, 0
1, 123240, Tempo, 511727
1, 123240, Note_on_c, 0, 85, 0
1, 123240, Note_on_c, 0, 88, 63
1, 123240, Note_on_c, 0, 68, 47
1, 123300, Note_on_c, 0, 68, 0
1, 123360, Tempo, 456274
1, 123360, Note_on_c, 0, 88, 0
1, 123360, Note_on_c, 0, 87, 72
1, 123360, Note_on_c, 0, 56, 39
1, 123378, Control_c, 0, 64, 0
1, 123417, Control_c, 0, 64, 127
1, 123480, Note_on_c, 0, 87, 0
1, 123480, Note_on_c, 0, 85, 64
1, 123480, Note_on_c, 0, 68, 39
1, 123540, Note_on_c, 0, 68, 0
1, 123600, Note_on_c, 0, 85, 0
1, 123600, Note_on_c, 0, 56, 0
1, 123600, Note_on_c, 0, 92, 51
1, 123600, Note_on_c, 0, 84, 64
1, 123600, Note_on_c, 0, 80, 51
1, 123600, Note_on_c, 0, 63, 36
1, 123600, Note_on_c, 0, 66, 46
1, 123660, Note_on_c, 0, 66, 0
1, 123660, Note_on_c, 0, 80, 0
1, 123660, Note_on_c, 0, 63, 0
1, 123660, Note_on_c, 0, 92, 0
1, 123720, Tempo, 505263
1, 123720, Note_on_c, 0, 84, 0
1, 123720, Note_on_c, 0, 87, 63
1, 123720, Note_on_c, 0, 68, 39
1, 123776, Tempo, 562061
1, 123780, Note_on_c, 0, 68, 0
1, 123800, Tempo, 558140
1, 123802, Tempo, 438757
1, 123840, Note_on_c, 0, 87, 0
1, 123840, Note_on_c, 0, 85, 65
1, 123840, Note_on_c, 0, 61, 46
1, 123876, Control_c, 0, 64, 0
1, 123876, Control_c, 0, 64, 0
1, 123942, Tempo, 436364
1, 123960, Note_on_c, 0, 85, 0
1, 123960, Note_on_c, 0, 80, 56
1, 123960, Note_on_c, 0, 77, 37
1, 123967, Control_c, 0, 64, 127
1, 123967, Control_c, 0, 64, 127
1, 124080, Note_on_c, 0, 77, 0
1, 124080, Note_on_c, 0, 80, 0
1, 124080, Note_on_c, 0, 61, 0
1, 124080, Note_on_c, 0, 92, 64
1, 124080, Note_on_c, 0, 68, 48
1, 124082, Tempo, 433996
1, 124200, Note_on_c, 0, 68, 0
1, 124200, Note_on_c, 0, 92, 0
1, 124200, Note_on_c, 0, 80, 57
1, 124200, Note_on_c, 0, 77, 39
1, 124222, Tempo, 431655
1, 124320, Note_on_c, 0, 77, 0
1, 124320, Note_on_c, 0, 80, 0
1, 124320, Note_on_c, 0, 85, 67
1, 124320, Note_on_c, 0, 73, 47
1, 124362, Tempo, 429338
1, 124440, Note_on_c, 0, 73, 0
1, 124440, Note_on_c, 0, 85, 0
1, 124440, Note_on_c, 0, 80, 58
1, 124440, Note_on_c, 0, 77, 39
1, 124502, Tempo, 427046
1, 124560, Note_on_c, 0, 77, 0
1, 124560, Note_on_c, 0, 80, 0
1, 124560, Note_on_c, 0, 92, 65
1, 124560, Note_on_c, 0, 68, 48
1, 124642, Tempo, 424779
1, 124680, Note_on_c, 0, 68, 0
1, 124680, Note_on_c, 0, 92, 0
1, 124680, Note_on_c, 0, 80, 59
1, 124680, Note_on_c, 0, 77, 42
1, 124782, Tempo, 422535
1, 124800, Note_on_c, 0, 77, 0
1, 124800, Note_on_c, 0, 80, 0
1, 124800, Note_on_c, 0, 85, 72
1, 124800, Note_on_c, 0, 61, 50
1, 124920, Note_on_c, 0, 85, 0
1, 124920, Note_on_c, 0, 80, 62
1, 124920, Note_on_c, 0, 77, 43
1, 124922, Tempo, 420315
1, 125040, Note_on_c, 0, 77, 0
1, 125040, Note_on_c, 0, 80, 0
1, 125040, Note_on_c, 0, 61, 0
1, 125040, Note_on_c, 0, 92, 71
1, 125040, Note_on_c, 0, 68, 50
1, 125062, Tempo, 418118
1, 125160, Note_on_c, 0, 68, 0
1, 125160, Note_on_c, 0, 92, 0
1, 125160, Note_on_c, 0, 80, 63
1, 125160, Note_on_c, 0, 77, 45
1, 125202, Tempo, 415945
1, 125280, Note_on_c, 0, 77, 0
1, 125280, Note_on_c, 0, 80, 0
1, 125280, Note_on_c, 0, 85, 74
1, 125280, Note_on_c, 0, 73, 52
1, 125342, Tempo, 413793
1, 125400, Note_on_c, 0, 73, 0
1, 125400, Note_on_c, 0, 85, 0
1, 125400, Note_on_c, 0, 80, 64
1, 125400, Note_on_c, 0, 77, 46
1, 125482, Tempo, 411664
1, 125520, Note_on_c, 0, 77, 0
1, 125520, Note_on_c, 0, 80, 0
1, 125520, Note_on_c, 0, 92, 72
1, 125520, Note_on_c, 0, 68, 53
1, 125622, Tempo, 409556
1, 125640, Note_on_c, 0, 68, 0
1, 125640, Note_on_c, 0, 92, 0
1, 125640, Note_on_c, 0, 80, 66
1, 125640, Note_on_c, 0, 77, 48
1, 125742, Tempo, 407470
1, 125760, Note_on_c, 0, 77, 0
1, 125760, Note_on_c, 0, 80, 0
1, 125760, Note_on_c, 0, 92, 78
1, 125760, Note_on_c, 0, 61, 52
1, 125880, Note_on_c, 0, 92, 0
1, 125880, Note_on_c, 0, 85, 66
1, 125880, Note_on_c, 0, 77, 44
1, 126000, Note_on_c, 0, 77, 0
1, 126000, Note_on_c, 0, 85, 0
1, 126000, Note_on_c, 0, 61, 0
1, 126000, Note_on_c, 0, 97, 73
1, 126000, Note_on_c, 0, 68, 51
1, 126120, Note_on_c, 0, 68, 0
1, 126120, Note_on_c, 0, 97, 0
1, 126120, Note_on_c, 0, 85, 62
1, 126120, Note_on_c, 0, 77, 45
1, 126240, Note_on_c, 0, 77, 0
1, 126240, Note_on_c, 0, 85, 0
1, 126240, Note_on_c, 0, 92, 71
1, 126240, Note_on_c, 0, 73, 53
1, 126360, Note_on_c, 0, 73, 0
1, 126360, Note_on_c, 0, 92, 0
1, 126360, Note_on_c, 0, 85, 60
1, 126360, Note_on_c, 0, 77, 46
1, 126480, Note_on_c, 0, 77, 0
1, 126480, Note_on_c, 0, 85, 0
1, 126480, Note_on_c, 0, 97, 65
1, 126480, Note_on_c, 0, 68, 52
1, 126540, Tempo, 466926
1, 126600, Note_on_c, 0, 68, 0
1, 126600, Note_on_c, 0, 97, 0
1, 126600, Note_on_c, 0, 85, 58
1, 126600, Note_on_c, 0, 77, 47
1, 126702, Tempo, 407470
1, 126720, Note_on_c, 0, 77, 0
1, 126720, Note_on_c, 0, 85, 0
1, 126720, Note_on_c, 0, 92, 67
1, 126720, Note_on_c, 0, 61, 48
1, 126840, Note_on_c, 0, 92, 0
1, 126840, Note_on_c, 0, 85, 57
1, 126840, Note_on_c, 0, 77, 36
1, 126960, Note_on_c, 0, 77, 0
1, 126960, Note_on_c, 0, 85, 0
1, 126960, Note_on_c, 0, 61, 0
1, 126960, Note_on_c, 0, 97, 63
1, 126960, Note_on_c, 0, 68, 49
1, 127080, Note_on_c, 0, 68, 0
1, 127080, Note_on_c, 0, 97, 0
1, 127080, Note_on_c, 0, 85, 53
1, 127080, Note_on_c, 0, 77, 43
1, 127200, Note_on_c, 0, 77, 0
1, 127200, Note_on_c, 0, 85, 0
1, 127200, Note_on_c, 0, 92, 61
1, 127200, Note_on_c, 0, 73, 51
1, 127320, Note_on_c, 0, 73, 0
1, 127320, Note_on_c, 0, 92, 0
1, 127320, Note_on_c, 0, 85, 51
1, 127320, Note_on_c, 0, 77, 44
1, 127440, Note_on_c, 0, 77, 0
1, 127440, Note_on_c, 0, 85, 0
1, 127440, Note_on_c, 0, 97, 56
1, 127440, Note_on_c, 0, 68, 50
1, 127560, Note_on_c, 0, 68, 0
1, 127560, Note_on_c, 0, 97, 0
1, 127560, Note_on_c, 0, 85, 45
1, 127560, Note_on_c, 0, 77, 43
1, 127680, Note_on_c, 0, 77, 0
1, 127680, Note_on_c, 0, 85, 0
1, 127680, Note_on_c, 0, 92, 67
1, 127680, Note_on_c, 0, 61, 48
1, 127800, Note_on_c, 0, 61, 0
1, 127800, Note_on_c, 0, 92, 0
1, 127800, Note_on_c, 0, 85, 55
1, 127800, Note_on_c, 0, 77, 35
1, 127920, Note_on_c, 0, 77, 0
1, 127920, Note_on_c, 0, 85, 0
1, 127920, Note_on_c, 0, 97, 60
1, 127920, Note_on_c, 0, 68, 47
1, 128002, Tempo, 409556
1, 128040, Note_on_c, 0, 68, 0
1, 128040, Note_on_c, 0, 97, 0
1, 128040, Note_on_c, 0, 85, 49
1, 128040, Note_on_c, 0, 77, 40
1, 128082, Tempo, 411664
1, 128142, Tempo, 413793
1, 128160, Note_on_c, 0, 77, 0
1, 128160, Note_on_c, 0, 85, 0
1, 128160, Note_on_c, 0, 92, 56
1, 128160, Note_on_c, 0, 61, 46
1, 128202, Tempo, 415945
1, 128262, Tempo, 418118
1, 128280, Note_on_c, 0, 61, 0
1, 128280, Note_on_c, 0, 92, 0
1, 128280, Note_on_c, 0, 85, 45
1, 128280, Note_on_c, 0, 77, 39
1, 128322, Tempo, 420315
1, 128400, Note_on_c, 0, 77, 0
1, 128400, Note_on_c, 0, 85, 0
1, 128400, Note_on_c, 0, 97, 49
1, 128400, Note_on_c, 0, 68, 44
1, 128402, Tempo, 422535
1, 128462, Tempo, 424779
1, 128520, Note_on_c, 0, 68, 0
1, 128520, Note_on_c, 0, 97, 0
1, 128520, Note_on_c, 0, 85, 38
1, 128520, Note_on_c, 0, 77, 36
1, 128522, Tempo, 427046
1, 128582, Tempo, 429338
1, 128602, Tempo, 424779
1, 128640, Note_on_c, 0, 77, 0
1, 128640, Note_on_c, 0, 85, 0
1, 128640, Note_on_c, 0, 92, 56
1, 128640, Note_on_c, 0, 61, 40
1, 128682, Tempo, 427046
1, 128742, Tempo, 429338
1, 128760, Note_on_c, 0, 61, 0
1, 128760, Note_on_c, 0, 92, 0
1, 128760, Note_on_c, 0, 85, 46
1, 128760, Note_on_c, 0, 77, 29
1, 128802, Tempo, 431655
1, 128862, Tempo, 433996
1, 128880, Note_on_c, 0, 77, 0
1, 128880, Note_on_c, 0, 85, 0
1, 128880, Note_on_c, 0, 97, 50
1, 128880, Note_on_c, 0, 68, 39
1, 128922, Tempo, 436364
1, 129000, Note_on_c, 0, 68, 0
1, 129000, Note_on_c, 0, 97, 0
1, 129000, Note_on_c, 0, 85, 41
1, 129000, Note_on_c, 0, 77, 33
1, 129002, Tempo, 438757
1, 129062, Tempo, 441176
1, 129120, Note_on_c, 0, 77, 0
1, 129120, Note_on_c, 0, 85, 0
1, 129120, Note_on_c, 0, 92, 46
1, 129120, Note_on_c, 0, 61, 38
1, 129122, Tempo, 443623
1, 129182, Tempo, 446097
1, 129240, Note_on_c, 0, 61, 0
1, 129240, Note_on_c, 0, 92, 0
1, 129240, Note_on_c, 0, 85, 37
1, 129240, Note_on_c, 0, 77, 32
1, 129242, Tempo, 448598
1, 129322, Tempo, 451128
1, 129360, Note_on_c, 0, 77, 0
1, 129360, Note_on_c, 0, 85, 0
1, 129360, Note_on_c, 0, 97, 40
1, 129360, Note_on_c, 0, 68, 36
1, 129382, Tempo, 453686
1, 129442, Tempo, 456274
1, 129480, Note_on_c, 0, 68, 0
1, 129480, Note_on_c, 0, 97, 0
1, 129480, Note_on_c, 0, 85, 36
1, 129480, Note_on_c, 0, 77, 1
1, 129502, Tempo, 458891
1, 129562, Tempo, 461538
1, 129600, Note_on_c, 0, 77, 0
1, 129600, Note_on_c, 0, 85, 0
1, 129600, Note_on_c, 0, 92, 46
1, 129600, Note_on_c, 0, 61, 33
1, 129622, Tempo, 464217
1, 129670, Tempo, 472441
1, 129710, Tempo, 475248
1, 129720, Note_on_c, 0, 61, 0
1, 129720, Note_on_c, 0, 92, 0
1, 129720, Note_on_c, 0, 85, 39
1, 129720, Note_on_c, 0, 77, 25
1, 129770, Tempo, 478088
1, 129810, Tempo, 480962
1, 129840, Note_on_c, 0, 77, 0
1, 129840, Note_on_c, 0, 85, 0
1, 129840, Note_on_c, 0, 97, 44
1, 129840, Note_on_c, 0, 68, 34
1, 129870, Tempo, 483871
1, 129910, Tempo, 486815
1, 129960, Note_on_c, 0, 68, 0
1, 129960, Note_on_c, 0, 97, 0
1, 129960, Note_on_c, 0, 85, 37
1, 129960, Note_on_c, 0, 77, 30
1, 129970, Tempo, 489796
1, 130010, Tempo, 492813
1, 130050, Tempo, 495868
1, 130070, Tempo, 498960
1, 130080, Note_on_c, 0, 77, 0
1, 130080, Note_on_c, 0, 85, 0
1, 130080, Note_on_c, 0, 92, 42
1, 130080, Note_on_c, 0, 61, 35
1, 130090, Tempo, 502092
1, 130110, Tempo, 508475
1, 130130, Tempo, 511727
1, 130150, Tempo, 515021
1, 130170, Tempo, 521739
1, 130190, Tempo, 525164
1, 130200, Note_on_c, 0, 61, 0
1, 130200, Note_on_c, 0, 92, 0
1, 130200, Note_on_c, 0, 85, 35
1, 130200, Note_on_c, 0, 77, 30
1, 130210, Tempo, 528634
1, 130230, Tempo, 535714
1, 130250, Tempo, 539326
1, 130270, Tempo, 542986
1, 130290, Tempo, 550459
1, 130310, Tempo, 554273
1, 130320, Note_on_c, 0, 77, 0
1, 130320, Note_on_c, 0, 85, 0
1, 130320, Note_on_c, 0, 97, 39
1, 130320, Note_on_c, 0, 68, 35
1, 130330, Tempo, 558140
1, 130350, Tempo, 566038
1, 130370, Tempo, 570071
1, 130390, Tempo, 574163
1, 130410, Tempo, 582524
1, 130430, Tempo, 586797
1, 130440, Note_on_c, 0, 68, 0
1, 130440, Note_on_c, 0, 97, 0
1, 130440, Note_on_c, 0, 85, 31
1, 130440, Note_on_c, 0, 77, 30
1, 130450, Tempo, 591133
1, 130470, Tempo, 600000
1, 130490, Tempo, 604534
1, 130510, Tempo, 613811
1, 130518, Tempo, 618557
1, 130530, Tempo, 623377
1, 130542, Tempo, 628272
1, 130554, Tempo, 633245
1, 130560, Tempo, 738462
1, 130560, Note_on_c, 0, 77, 0
1, 130560, Note_on_c, 0, 85, 0
1, 130560, Note_on_c, 0, 92, 39
1, 130560, Note_on_c, 0, 61, 33
1, 130680, Note_on_c, 0, 92, 0
1, 130680, Note_on_c, 0, 85, 31
1, 130800, Note_on_c, 0, 85, 0
1, 130800, Note_on_c, 0, 61, 0
1, 130800, Note_on_c, 0, 97, 31
1, 130800, Note_on_c, 0, 77, 30
1, 130800, Note_on_c, 0, 68, 30
1, 131040, Tempo, 415945
1, 131040, Note_on_c, 0, 68, 0
1, 131040, Note_on_c, 0, 77, 0
1, 131040, Note_on_c, 0, 97, 0
1, 131531, Control_c, 0, 64, 0
1, 132000, Tempo, 1008403
1, 132420, Tempo, 2086957
1, 132420, Marker_t, "Ritenuto il tempo sempre rubato"
1, 132420, Note_on_c, 0, 73, 47
1, 132460, Note_on_c, 0, 73, 0
1, 132480, Tempo, 1061947
1, 132480, Note_on_c, 0, 73, 57
1, 132480, Note_on_c, 0, 45, 44
1, 132480, Control_c, 0, 64, 127
1, 132576, Note_on_c, 0, 45, 0
1, 132600, Tempo, 916031
1, 132600, Note_on_c, 0, 73, 0
1, 132600, Note_on_c, 0, 85, 50
1, 132600, Note_on_c, 0, 52, 34
1, 132690, Note_on_c, 0, 85, 0
1, 132696, Note_on_c, 0, 52, 0
1, 132720, Note_on_c, 0, 85, 58
1, 132720, Note_on_c, 0, 57, 35
1, 132816, Note_on_c, 0, 57, 0
1, 132840, Note_on_c, 0, 85, 0
1, 132840, Note_on_c, 0, 83, 51
1, 132840, Note_on_c, 0, 61, 36
1, 132900, Tempo, 1034483
1, 132930, Note_on_c, 0, 83, 0
1, 132936, Note_on_c, 0, 61, 0
1, 132960, Tempo, 916031
1, 132960, Note_on_c, 0, 83, 56
1, 132960, Note_on_c, 0, 64, 37
1, 133056, Note_on_c, 0, 64, 0
1, 133080, Note_on_c, 0, 83, 0
1, 133080, Note_on_c, 0, 81, 45
1, 133080, Note_on_c, 0, 69, 38
1, 133170, Note_on_c, 0, 81, 0
1, 133176, Note_on_c, 0, 69, 0
1, 133200, Note_on_c, 0, 81, 49
1, 133200, Note_on_c, 0, 73, 36
1, 133296, Note_on_c, 0, 73, 0
1, 133320, Tempo, 1021277
1, 133320, Note_on_c, 0, 81, 0
1, 133320, Note_on_c, 0, 80, 45
1, 133440, Tempo, 960000
1, 133440, Note_on_c, 0, 80, 0
1, 133440, Note_on_c, 0, 83, 56
1, 133440, Note_on_c, 0, 44, 44
1, 133440, Control_c, 0, 64, 0
1, 133500, Control_c, 0, 64, 127
1, 133536, Note_on_c, 0, 44, 0
1, 133560, Note_on_c, 0, 83, 0
1, 133560, Note_on_c, 0, 53, 34
1, 133656, Note_on_c, 0, 53, 0
1, 133680, Note_on_c, 0, 81, 48
1, 133680, Note_on_c, 0, 59, 35
1, 133776, Note_on_c, 0, 59, 0
1, 133800, Note_on_c, 0, 81, 0
1, 133800, Note_on_c, 0, 61, 36
1, 133860, Tempo, 1090909
1, 133896, Note_on_c, 0, 61, 0
1, 133920, Tempo, 937500
1, 133920, Note_on_c, 0, 80, 56
1, 133920, Note_on_c, 0, 65, 37
1, 134016, Note_on_c, 0, 65, 0
1, 134040, Note_on_c, 0, 71, 38
1, 134136, Note_on_c, 0, 71, 0
1, 134160, Note_on_c, 0, 73, 36
1, 134256, Note_on_c, 0, 73, 0
1, 134400, Tempo, 1061947
1, 134400, Note_on_c, 0, 80, 0
1, 134400, Note_on_c, 0, 73, 60
1, 134400, Note_on_c, 0, 83, 60
1, 134400, Note_on_c, 0, 42, 44
1, 134400, Control_c, 0, 64, 0
1, 134460, Control_c, 0, 64, 127
1, 134496, Note_on_c, 0, 42, 0
1, 134520, Tempo, 937500
1, 134520, Note_on_c, 0, 83, 0
1, 134520, Note_on_c, 0, 73, 0
1, 134520, Note_on_c, 0, 81, 45
1, 134520, Note_on_c, 0, 49, 34
1, 134616, Note_on_c, 0, 49, 0
1, 134620, Note_on_c, 0, 81, 0
1, 134640, Tempo, 905660
1, 134640, Note_on_c, 0, 81, 55
1, 134640, Note_on_c, 0, 54, 35
1, 134670, Note_on_c, 0, 81, 0
1, 134670, Note_on_c, 0, 83, 55
1, 134700, Note_on_c, 0, 83, 0
1, 134700, Note_on_c, 0, 81, 60
1, 134736, Note_on_c, 0, 54, 0
1, 134760, Tempo, 937500
1, 134760, Note_on_c, 0, 80, 45
1, 134760, Note_on_c, 0, 57, 36
1, 134820, Note_on_c, 0, 81, 0
1, 134856, Note_on_c, 0, 57, 0
1, 134860, Note_on_c, 0, 80, 0
1, 134880, Tempo, 905660
1, 134880, Note_on_c, 0, 80, 55
1, 134880, Note_on_c, 0, 61, 37
1, 134910, Note_on_c, 0, 80, 0
1, 134910, Note_on_c, 0, 81, 55
1, 134940, Note_on_c, 0, 81, 0
1, 134940, Note_on_c, 0, 80, 61
1, 134976, Note_on_c, 0, 61, 0
1, 135000, Note_on_c, 0, 80, 0
1, 135000, Note_on_c, 0, 78, 45
1, 135000, Note_on_c, 0, 66, 38
1, 135060, Tempo, 948617
1, 135096, Note_on_c, 0, 66, 0
1, 135100, Note_on_c, 0, 78, 0
1, 135120, Note_on_c, 0, 78, 52
1, 135120, Note_on_c, 0, 69, 36
1, 135150, Note_on_c, 0, 78, 0
1, 135150, Note_on_c, 0, 80, 52
1, 135180, Note_on_c, 0, 80, 0
1, 135180, Note_on_c, 0, 78, 58
1, 135216, Note_on_c, 0, 69, 0
1, 135240, Tempo, 1021277
1, 135240, Note_on_c, 0, 78, 0
1, 135240, Note_on_c, 0, 77, 45
1, 135360, Tempo, 960000
1, 135360, Note_on_c, 0, 77, 0
1, 135360, Note_on_c, 0, 80, 58
1, 135360, Note_on_c, 0, 37, 44
1, 135360, Control_c, 0, 64, 0
1, 135420, Control_c, 0, 64, 127
1, 135456, Note_on_c, 0, 37, 0
1, 135480, Note_on_c, 0, 80, 0
1, 135480, Note_on_c, 0, 49, 34
1, 135570, Note_on_c, 0, 68, 39
1, 135576, Note_on_c, 0, 49, 0
1, 135585, Note_on_c, 0, 73, 43
1, 135600, Note_on_c, 0, 77, 49
1, 135600, Note_on_c, 0, 53, 35
1, 135696, Note_on_c, 0, 53, 0
1, 135720, Tempo, 1034483
1, 135720, Note_on_c, 0, 68, 0
1, 135720, Note_on_c, 0, 73, 0
1, 135720, Note_on_c, 0, 77, 0
1, 135720, Note_on_c, 0, 56, 36
1, 135816, Note_on_c, 0, 56, 0
1, 135840, Tempo, 948617
1, 135840, Note_on_c, 0, 73, 53
1, 135840, Note_on_c, 0, 61, 37
1, 135936, Note_on_c, 0, 61, 0
1, 135960, Note_on_c, 0, 65, 38
1, 136056, Note_on_c, 0, 65, 0
1, 136080, Tempo, 1021277
1, 136080, Note_on_c, 0, 68, 36
1, 136176, Note_on_c, 0, 68, 0
1, 136260, Tempo, 1726619
1, 136260, Note_on_c, 0, 73, 47
1, 136300, Note_on_c, 0, 73, 0
1, 136320, Tempo, 1061947
1, 136320, Note_on_c, 0, 73, 0
1, 136320, Note_on_c, 0, 73, 57
1, 136320, Note_on_c, 0, 45, 44
1, 136320, Control_c, 0, 64, 0
1, 136416, Note_on_c, 0, 45, 0
1, 136419, Control_c, 0, 64, 127
1, 136440, Tempo, 916031
1, 136440, Note_on_c, 0, 73, 0
1, 136440, Note_on_c, 0, 85, 50
1, 136440, Note_on_c, 0, 52, 34
1, 136530, Note_on_c, 0, 85, 0
1, 136536, Note_on_c, 0, 52, 0
1, 136560, Note_on_c, 0, 85, 58
1, 136560, Note_on_c, 0, 57, 35
1, 136656, Note_on_c, 0, 57, 0
1, 136680, Note_on_c, 0, 85, 0
1, 136680, Note_on_c, 0, 83, 51
1, 136680, Note_on_c, 0, 61, 36
1, 136740, Tempo, 1034483
1, 136770, Note_on_c, 0, 83, 0
1, 136776, Note_on_c, 0, 61, 0
1, 136800, Tempo, 916031
1, 136800, Note_on_c, 0, 83, 56
1, 136800, Note_on_c, 0, 64, 37
1, 136896, Note_on_c, 0, 64, 0
1, 136920, Note_on_c, 0, 83, 0
1, 136920, Note_on_c, 0, 81, 45
1, 136920, Note_on_c, 0, 69, 38
1, 137010, Note_on_c, 0, 81, 0
1, 137016, Note_on_c, 0, 69, 0
1, 137040, Note_on_c, 0, 81, 49
1, 137040, Note_on_c, 0, 73, 36
1, 137136, Note_on_c, 0, 73, 0
1, 137160, Tempo, 1021277
1, 137160, Note_on_c, 0, 81, 0
1, 137160, Note_on_c, 0, 80, 45
1, 137280, Tempo, 960000
1, 137280, Note_on_c, 0, 80, 0
1, 137280, Note_on_c, 0, 83, 56
1, 137280, Note_on_c, 0, 44, 44
1, 137280, Control_c, 0, 64, 0
1, 137340, Control_c, 0, 64, 127
1, 137376, Note_on_c, 0, 44, 0
1, 137400, Note_on_c, 0, 83, 0
1, 137400, Note_on_c, 0, 53, 34
1, 137496, Note_on_c, 0, 53, 0
1, 137520, Note_on_c, 0, 81, 48
1, 137520, Note_on_c, 0, 59, 35
1, 137616, Note_on_c, 0, 59, 0
1, 137640, Note_on_c, 0, 81, 0
1, 137640, Note_on_c, 0, 61, 36
1, 137700, Tempo, 1090909
1, 137736, Note_on_c, 0, 61, 0
1, 137760, Tempo, 937500
1, 137760, Note_on_c, 0, 80, 56
1, 137760, Note_on_c, 0, 65, 37
1, 137856, Note_on_c, 0, 65, 0
1, 137880, Note_on_c, 0, 71, 38
1, 137976, Note_on_c, 0, 71, 0
1, 138000, Note_on_c, 0, 73, 36
1, 138096, Note_on_c, 0, 73, 0
1, 138180, Note_on_c, 0, 81, 52
1, 138210, Note_on_c, 0, 81, 0
1, 138210, Note_on_c, 0, 83, 52
1, 138240, Tempo, 1061947
1, 138240, Note_on_c, 0, 83, 0
1, 138240, Note_on_c, 0, 80, 0
1, 138240, Note_on_c, 0, 81, 60
1, 138240, Note_on_c, 0, 42, 44
1, 138240, Control_c, 0, 64, 0
1, 138300, Control_c, 0, 64, 127
1, 138360, Tempo, 937500
1, 138360, Note_on_c, 0, 81, 0
1, 138360, Note_on_c, 0, 80, 45
1, 138450, Note_on_c, 0, 80, 0
1, 138480, Tempo, 905660
1, 138480, Note_on_c, 0, 42, 0
1, 138480, Note_on_c, 0, 73, 49
1, 138480, Note_on_c, 0, 78, 60
1, 138480, Note_on_c, 0, 66, 35
1, 138480, Note_on_c, 0, 61, 35
1, 138480, Note_on_c, 0, 69, 35
1, 138600, Tempo, 937500
1, 138600, Note_on_c, 0, 78, 0
1, 138600, Note_on_c, 0, 81, 45
1, 138660, Note_on_c, 0, 80, 53
1, 138690, Note_on_c, 0, 80, 0
1, 138690, Note_on_c, 0, 81, 0
1, 138690, Note_on_c, 0, 81, 53
1, 138720, Tempo, 905660
1, 138720, Note_on_c, 0, 81, 0
1, 138720, Note_on_c, 0, 61, 0
1, 138720, Note_on_c, 0, 73, 0
1, 138720, Note_on_c, 0, 66, 0
1, 138720, Note_on_c, 0, 69, 0
1, 138720, Note_on_c, 0, 80, 61
1, 138720, Note_on_c, 0, 37, 37
1, 138725, Control_c, 0, 64, 0
1, 138783, Control_c, 0, 64, 127
1, 138840, Note_on_c, 0, 80, 0
1, 138840, Note_on_c, 0, 78, 45
1, 138900, Tempo, 948617
1, 138960, Note_on_c, 0, 78, 0
1, 138960, Note_on_c, 0, 37, 0
1, 138960, Note_on_c, 0, 77, 58
1, 138960, Note_on_c, 0, 73, 49
1, 138960, Note_on_c, 0, 65, 36
1, 138960, Note_on_c, 0, 59, 36
1, 138960, Note_on_c, 0, 68, 36
1, 139080, Tempo, 1021277
1, 139080, Note_on_c, 0, 77, 0
1, 139080, Note_on_c, 0, 80, 45
1, 139200, Tempo, 960000
1, 139200, Note_on_c, 0, 80, 0
1, 139200, Note_on_c, 0, 68, 0
1, 139200, Note_on_c, 0, 73, 0
1, 139200, Note_on_c, 0, 65, 0
1, 139200, Note_on_c, 0, 59, 0
1, 139200, Note_on_c, 0, 78, 58
1, 139200, Note_on_c, 0, 42, 44
1, 139200, Control_c, 0, 64, 0
1, 139260, Control_c, 0, 64, 127
1, 139320, Tempo, 1121495
1, 139380, Note_on_c, 0, 78, 43
1, 139410, Note_on_c, 0, 78, 0
1, 139410, Note_on_c, 0, 80, 44
1, 139440, Tempo, 995851
1, 139440, Note_on_c, 0, 80, 0
1, 139440, Note_on_c, 0, 42, 0
1, 139440, Note_on_c, 0, 78, 0
1, 139440, Note_on_c, 0, 73, 49
1, 139440, Note_on_c, 0, 78, 49
1, 139440, Note_on_c, 0, 58, 36
1, 139440, Note_on_c, 0, 70, 36
1, 139440, Note_on_c, 0, 66, 36
1, 139560, Tempo, 1137441
1, 139620, Note_on_c, 0, 78, 0
1, 139620, Note_on_c, 0, 77, 49
1, 139680, Tempo, 948617
1, 139680, Note_on_c, 0, 77, 0
1, 139680, Note_on_c, 0, 78, 53
1, 139690, Control_c, 0, 64, 0
1, 139920, Note_on_c, 0, 73, 0
1, 140100, Tempo, 2086957
1, 140100, Note_on_c, 0, 73, 39
1, 140100, Note_on_c, 0, 85, 54
1, 140140, Note_on_c, 0, 85, 0
1, 140140, Note_on_c, 0, 73, 0
1, 140160, Tempo, 1061947
1, 140160, Note_on_c, 0, 78, 0
1, 140160, Note_on_c, 0, 70, 0
1, 140160, Note_on_c, 0, 58, 0
1, 140160, Note_on_c, 0, 66, 0
1, 140160, Note_on_c, 0, 85, 61
1, 140160, Note_on_c, 0, 73, 51
1, 140160, Note_on_c, 0, 45, 44
1, 140220, Control_c, 0, 64, 127
1, 140256, Note_on_c, 0, 45, 0
1, 140280, Tempo, 916031
1, 140280, Note_on_c, 0, 73, 0
1, 140280, Note_on_c, 0, 85, 0
1, 140280, Note_on_c, 0, 97, 52
1, 140280, Note_on_c, 0, 85, 44
1, 140280, Note_on_c, 0, 52, 34
1, 140370, Note_on_c, 0, 85, 0
1, 140370, Note_on_c, 0, 97, 0
1, 140376, Note_on_c, 0, 52, 0
1, 140400, Note_on_c, 0, 85, 51
1, 140400, Note_on_c, 0, 97, 61
1, 140400, Note_on_c, 0, 57, 36
1, 140496, Note_on_c, 0, 57, 0
1, 140520, Note_on_c, 0, 97, 0
1, 140520, Note_on_c, 0, 85, 0
1, 140520, Note_on_c, 0, 95, 53
1, 140520, Note_on_c, 0, 83, 45
1, 140520, Note_on_c, 0, 61, 38
1, 140580, Tempo, 1034483
1, 140610, Note_on_c, 0, 83, 0
1, 140610, Note_on_c, 0, 95, 0
1, 140616, Note_on_c, 0, 61, 0
1, 140640, Tempo, 916031
1, 140640, Note_on_c, 0, 95, 61
1, 140640, Note_on_c, 0, 83, 51
1, 140640, Note_on_c, 0, 64, 40
1, 140736, Note_on_c, 0, 64, 0
1, 140760, Note_on_c, 0, 83, 0
1, 140760, Note_on_c, 0, 95, 0
1, 140760, Note_on_c, 0, 81, 45
1, 140760, Note_on_c, 0, 93, 53
1, 140760, Note_on_c, 0, 69, 42
1, 140850, Note_on_c, 0, 93, 0
1, 140850, Note_on_c, 0, 81, 0
1, 140856, Note_on_c, 0, 69, 0
1, 140880, Note_on_c, 0, 81, 51
1, 140880, Note_on_c, 0, 93, 60
1, 140880, Note_on_c, 0, 73, 44
1, 140976, Note_on_c, 0, 73, 0
1, 141000, Tempo, 1021277
1, 141000, Note_on_c, 0, 93, 0
1, 141000, Note_on_c, 0, 81, 0
1, 141000, Note_on_c, 0, 80, 46
1, 141000, Note_on_c, 0, 92, 55
1, 141120, Tempo, 960000
1, 141120, Note_on_c, 0, 92, 0
1, 141120, Note_on_c, 0, 80, 0
1, 141120, Note_on_c, 0, 95, 69
1, 141120, Note_on_c, 0, 83, 58
1, 141120, Note_on_c, 0, 44, 44
1, 141120, Control_c, 0, 64, 0
1, 141180, Control_c, 0, 64, 127
1, 141216, Note_on_c, 0, 44, 0
1, 141240, Note_on_c, 0, 83, 0
1, 141240, Note_on_c, 0, 95, 0
1, 141240, Note_on_c, 0, 53, 34
1, 141330, Note_on_c, 0, 81, 47
1, 141336, Note_on_c, 0, 53, 0
1, 141345, Note_on_c, 0, 85, 49
1, 141360, Note_on_c, 0, 93, 60
1, 141360, Note_on_c, 0, 59, 35
1, 141456, Note_on_c, 0, 59, 0
1, 141480, Note_on_c, 0, 81, 0
1, 141480, Note_on_c, 0, 85, 0
1, 141480, Note_on_c, 0, 93, 0
1, 141480, Note_on_c, 0, 61, 36
1, 141540, Tempo, 1090909
1, 141570, Note_on_c, 0, 80, 51
1, 141576, Note_on_c, 0, 61, 0
1, 141585, Note_on_c, 0, 85, 54
1, 141600, Tempo, 937500
1, 141600, Note_on_c, 0, 92, 66
1, 141600, Note_on_c, 0, 65, 37
1, 141696, Note_on_c, 0, 65, 0
1, 141720, Note_on_c, 0, 71, 38
1, 141816, Note_on_c, 0, 71, 0
1, 141840, Note_on_c, 0, 73, 36
1, 141936, Note_on_c, 0, 73, 0
1, 142080, Tempo, 1061947
1, 142080, Note_on_c, 0, 80, 0
1, 142080, Note_on_c, 0, 85, 0
1, 142080, Note_on_c, 0, 92, 0
1, 142080, Note_on_c, 0, 95, 69
1, 142080, Note_on_c, 0, 83, 58
1, 142080, Note_on_c, 0, 42, 44
1, 142080, Control_c, 0, 64, 0
1, 142140, Control_c, 0, 64, 127
1, 142176, Note_on_c, 0, 42, 0
1, 142200, Tempo, 937500
1, 142200, Note_on_c, 0, 83, 0
1, 142200, Note_on_c, 0, 95, 0
1, 142200, Note_on_c, 0, 81, 46
1, 142200, Note_on_c, 0, 93, 55
1, 142200, Note_on_c, 0, 49, 42
1, 142290, Note_on_c, 0, 93, 0
1, 142290, Note_on_c, 0, 81, 0
1, 142296, Note_on_c, 0, 49, 0
1, 142320, Tempo, 905660
1, 142320, Note_on_c, 0, 81, 56
1, 142320, Note_on_c, 0, 93, 67
1, 142320, Note_on_c, 0, 54, 41
1, 142410, Note_on_c, 0, 93, 0
1, 142410, Note_on_c, 0, 81, 0
1, 142416, Note_on_c, 0, 54, 0
1, 142440, Tempo, 937500
1, 142440, Note_on_c, 0, 80, 52
1, 142440, Note_on_c, 0, 92, 55
1, 142440, Note_on_c, 0, 57, 41
1, 142530, Note_on_c, 0, 93, 57
1, 142536, Note_on_c, 0, 57, 0
1, 142560, Tempo, 905660
1, 142560, Note_on_c, 0, 80, 0
1, 142560, Note_on_c, 0, 92, 0
1, 142560, Note_on_c, 0, 93, 0
1, 142560, Note_on_c, 0, 92, 66
1, 142560, Note_on_c, 0, 80, 56
1, 142560, Note_on_c, 0, 61, 40
1, 142620, Note_on_c, 0, 80, 0
1, 142650, Note_on_c, 0, 92, 0
1, 142656, Note_on_c, 0, 61, 0
1, 142680, Note_on_c, 0, 90, 50
1, 142680, Note_on_c, 0, 78, 42
1, 142680, Note_on_c, 0, 66, 39
1, 142740, Tempo, 948617
1, 142770, Note_on_c, 0, 78, 0
1, 142770, Note_on_c, 0, 90, 0
1, 142776, Note_on_c, 0, 66, 0
1, 142800, Note_on_c, 0, 90, 63
1, 142800, Note_on_c, 0, 78, 53
1, 142800, Note_on_c, 0, 69, 38
1, 142896, Note_on_c, 0, 69, 0
1, 142920, Tempo, 1021277
1, 142920, Note_on_c, 0, 78, 0
1, 142920, Note_on_c, 0, 90, 0
1, 142920, Note_on_c, 0, 89, 47
1, 142920, Note_on_c, 0, 77, 39
1, 143040, Tempo, 960000
1, 143040, Note_on_c, 0, 77, 0
1, 143040, Note_on_c, 0, 89, 0
1, 143040, Note_on_c, 0, 92, 63
1, 143040, Note_on_c, 0, 80, 53
1, 143040, Note_on_c, 0, 37, 44
1, 143040, Control_c, 0, 64, 0
1, 143100, Control_c, 0, 64, 127
1, 143136, Note_on_c, 0, 37, 0
1, 143160, Note_on_c, 0, 80, 0
1, 143160, Note_on_c, 0, 92, 0
1, 143160, Note_on_c, 0, 49, 34
1, 143235, Note_on_c, 0, 77, 46
1, 143250, Note_on_c, 0, 80, 50
1, 143256, Note_on_c, 0, 49, 0
1, 143265, Note_on_c, 0, 85, 52
1, 143280, Note_on_c, 0, 89, 59
1, 143280, Note_on_c, 0, 53, 35
1, 143376, Note_on_c, 0, 53, 0
1, 143400, Tempo, 1034483
1, 143400, Note_on_c, 0, 85, 0
1, 143400, Note_on_c, 0, 77, 0
1, 143400, Note_on_c, 0, 80, 0
1, 143400, Note_on_c, 0, 89, 0
1, 143400, Note_on_c, 0, 56, 36
1, 143475, Note_on_c, 0, 73, 42
1, 143490, Note_on_c, 0, 77, 44
1, 143496, Note_on_c, 0, 56, 0
1, 143505, Note_on_c, 0, 80, 46
1, 143520, Tempo, 948617
1, 143520, Note_on_c, 0, 85, 53
1, 143520, Note_on_c, 0, 61, 37
1, 143616, Note_on_c, 0, 61, 0
1, 143640, Note_on_c, 0, 65, 38
1, 143736, Note_on_c, 0, 65, 0
1, 143760, Tempo, 1021277
1, 143760, Note_on_c, 0, 68, 36
1, 143856, Note_on_c, 0, 68, 0
1, 143940, Tempo, 1726619
1, 143940, Note_on_c, 0, 80, 0
1, 143940, Note_on_c, 0, 73, 0
1, 143940, Note_on_c, 0, 77, 0
1, 143940, Note_on_c, 0, 85, 0
1, 143940, Note_on_c, 0, 73, 47
1, 143940, Note_on_c, 0, 85, 54
1, 143980, Note_on_c, 0, 85, 0
1, 143980, Note_on_c, 0, 73, 0
1, 144000, Tempo, 1061947
1, 144000, Note_on_c, 0, 85, 65
1, 144000, Note_on_c, 0, 73, 57
1, 144000, Note_on_c, 0, 45, 44
1, 144057, Control_c, 0, 64, 0
1, 144096, Note_on_c, 0, 45, 0
1, 144120, Tempo, 916031
1, 144120, Note_on_c, 0, 73, 0
1, 144120, Note_on_c, 0, 85, 0
1, 144120, Note_on_c, 0, 85, 50
1, 144120, Note_on_c, 0, 97, 57
1, 144120, Note_on_c, 0, 52, 34
1, 144156, Control_c, 0, 64, 127
1, 144210, Note_on_c, 0, 97, 0
1, 144210, Note_on_c, 0, 85, 0
1, 144216, Note_on_c, 0, 52, 0
1, 144240, Note_on_c, 0, 85, 58
1, 144240, Note_on_c, 0, 97, 66
1, 144240, Note_on_c, 0, 57, 35
1, 144336, Note_on_c, 0, 57, 0
1, 144360, Note_on_c, 0, 97, 0
1, 144360, Note_on_c, 0, 85, 0
1, 144360, Note_on_c, 0, 95, 58
1, 144360, Note_on_c, 0, 83, 51
1, 144360, Note_on_c, 0, 61, 36
1, 144420, Tempo, 1034483
1, 144450, Note_on_c, 0, 83, 0
1, 144450, Note_on_c, 0, 95, 0
1, 144456, Note_on_c, 0, 61, 0
1, 144480, Tempo, 916031
1, 144480, Note_on_c, 0, 95, 64
1, 144480, Note_on_c, 0, 83, 56
1, 144480, Note_on_c, 0, 64, 37
1, 144576, Note_on_c, 0, 64, 0
1, 144600, Note_on_c, 0, 83, 0
1, 144600, Note_on_c, 0, 95, 0
1, 144600, Note_on_c, 0, 93, 51
1, 144600, Note_on_c, 0, 81, 45
1, 144600, Note_on_c, 0, 69, 38
1, 144690, Note_on_c, 0, 81, 0
1, 144690, Note_on_c, 0, 93, 0
1, 144696, Note_on_c, 0, 69, 0
1, 144720, Note_on_c, 0, 81, 49
1, 144720, Note_on_c, 0, 93, 56
1, 144720, Note_on_c, 0, 73, 36
1, 144816, Note_on_c, 0, 73, 0
1, 144840, Tempo, 1021277
1, 144840, Note_on_c, 0, 93, 0
1, 144840, Note_on_c, 0, 81, 0
1, 144840, Note_on_c, 0, 92, 51
1, 144840, Note_on_c, 0, 80, 45
1, 144960, Tempo, 960000
1, 144960, Note_on_c, 0, 80, 0
1, 144960, Note_on_c, 0, 92, 0
1, 144960, Note_on_c, 0, 83, 56
1, 144960, Note_on_c, 0, 95, 64
1, 144960, Note_on_c, 0, 44, 44
1, 144960, Control_c, 0, 64, 0
1, 145020, Control_c, 0, 64, 127
1, 145056, Note_on_c, 0, 44, 0
1, 145080, Note_on_c, 0, 95, 0
1, 145080, Note_on_c, 0, 83, 0
1, 145080, Note_on_c, 0, 53, 34
1, 145170, Note_on_c, 0, 81, 48
1, 145176, Note_on_c, 0, 53, 0
1, 145185, Note_on_c, 0, 85, 48
1, 145200, Note_on_c, 0, 93, 49
1, 145200, Note_on_c, 0, 59, 31
1, 145296, Note_on_c, 0, 59, 0
1, 145320, Note_on_c, 0, 81, 0
1, 145320, Note_on_c, 0, 85, 0
1, 145320, Note_on_c, 0, 93, 0
1, 145320, Note_on_c, 0, 61, 32
1, 145380, Tempo, 1090909
1, 145410, Note_on_c, 0, 80, 50
1, 145416, Note_on_c, 0, 61, 0
1, 145425, Note_on_c, 0, 85, 50
1, 145440, Tempo, 937500
1, 145440, Note_on_c, 0, 92, 57
1, 145440, Note_on_c, 0, 65, 33
1, 145536, Note_on_c, 0, 65, 0
1, 145560, Note_on_c, 0, 71, 34
1, 145656, Note_on_c, 0, 71, 0
1, 145680, Note_on_c, 0, 73, 32
1, 145776, Note_on_c, 0, 73, 0
1, 145920, Tempo, 1105991
1, 145920, Note_on_c, 0, 80, 0
1, 145920, Note_on_c, 0, 85, 0
1, 145920, Note_on_c, 0, 92, 0
1, 145920, Note_on_c, 0, 93, 51
1, 145920, Note_on_c, 0, 81, 45
1, 145920, Note_on_c, 0, 42, 33
1, 145920, Control_c, 0, 64, 0
1, 145980, Control_c, 0, 64, 127
1, 146040, Tempo, 1021277
1, 146040, Note_on_c, 0, 81, 0
1, 146040, Note_on_c, 0, 93, 0
1, 146040, Note_on_c, 0, 80, 33
1, 146040, Note_on_c, 0, 92, 38
1, 146100, Note_on_c, 0, 80, 0
1, 146130, Note_on_c, 0, 92, 0
1, 146160, Tempo, 971660
1, 146160, Note_on_c, 0, 42, 0
1, 146160, Note_on_c, 0, 90, 51
1, 146160, Note_on_c, 0, 85, 36
1, 146160, Note_on_c, 0, 78, 45
1, 146160, Note_on_c, 0, 61, 26
1, 146160, Note_on_c, 0, 69, 26
1, 146160, Note_on_c, 0, 66, 26
1, 146280, Tempo, 1048035
1, 146280, Note_on_c, 0, 78, 0
1, 146280, Note_on_c, 0, 90, 0
1, 146280, Note_on_c, 0, 81, 33
1, 146280, Note_on_c, 0, 93, 38
1, 146380, Note_on_c, 0, 93, 0
1, 146400, Tempo, 960000
1, 146400, Note_on_c, 0, 66, 0
1, 146400, Note_on_c, 0, 69, 0
1, 146400, Note_on_c, 0, 85, 0
1, 146400, Note_on_c, 0, 81, 0
1, 146400, Note_on_c, 0, 61, 0
1, 146400, Note_on_c, 0, 80, 45
1, 146400, Note_on_c, 0, 92, 52
1, 146400, Note_on_c, 0, 37, 27
1, 146405, Control_c, 0, 64, 0
1, 146463, Control_c, 0, 64, 127
1, 146520, Note_on_c, 0, 92, 0
1, 146520, Note_on_c, 0, 80, 0
1, 146520, Note_on_c, 0, 78, 33
1, 146520, Note_on_c, 0, 90, 38
1, 146580, Tempo, 1021277
1, 146640, Note_on_c, 0, 90, 0
1, 146640, Note_on_c, 0, 78, 0
1, 146640, Note_on_c, 0, 37, 0
1, 146640, Note_on_c, 0, 89, 49
1, 146640, Note_on_c, 0, 85, 36
1, 146640, Note_on_c, 0, 77, 43
1, 146640, Note_on_c, 0, 65, 27
1, 146640, Note_on_c, 0, 59, 27
1, 146640, Note_on_c, 0, 68, 27
1, 146760, Tempo, 1153846
1, 146760, Note_on_c, 0, 77, 0
1, 146760, Note_on_c, 0, 89, 0
1, 146760, Note_on_c, 0, 92, 38
1, 146760, Note_on_c, 0, 80, 33
1, 146820, Tempo, 1153846
1, 146860, Note_on_c, 0, 92, 0
1, 146880, Tempo, 1021277
1, 146880, Note_on_c, 0, 68, 0
1, 146880, Note_on_c, 0, 59, 0
1, 146880, Note_on_c, 0, 85, 0
1, 146880, Note_on_c, 0, 80, 0
1, 146880, Note_on_c, 0, 65, 0
1, 146880, Note_on_c, 0, 78, 43
1, 146880, Note_on_c, 0, 90, 49
1, 146880, Note_on_c, 0, 42, 33
1, 146880, Control_c, 0, 64, 0
1, 146940, Control_c, 0, 64, 127
1, 147075, Note_on_c, 0, 58, 27
1, 147090, Note_on_c, 0, 61, 27
1, 147105, Note_on_c, 0, 66, 27
1, 147120, Tempo, 1090909
1, 147120, Note_on_c, 0, 42, 0
1, 147120, Note_on_c, 0, 78, 0
1, 147120, Note_on_c, 0, 90, 0
1, 147120, Note_on_c, 0, 85, 36
1, 147120, Note_on_c, 0, 90, 42
1, 147120, Note_on_c, 0, 78, 36
1, 147120, Note_on_c, 0, 70, 27
1, 147240, Tempo, 1188119
1, 147300, Note_on_c, 0, 78, 0
1, 147300, Note_on_c, 0, 90, 0
1, 147300, Note_on_c, 0, 77, 36
1, 147300, Note_on_c, 0, 89, 42
1, 147360, Tempo, 948617
1, 147360, Note_on_c, 0, 89, 0
1, 147360, Note_on_c, 0, 85, 0
1, 147360, Note_on_c, 0, 77, 0
1, 147360, Note_on_c, 0, 85, 39
1, 147360, Note_on_c, 0, 90, 45
1, 147360, Note_on_c, 0, 78, 39
1, 147384, Control_c, 0, 64, 0
1, 147819, Tempo, 752351
1, 147840, Time_signature, 4, 2, 24, 8
1, 147840, Marker_t, "Tempo I"
1, 147840, Note_on_c, 0, 78, 0
1, 147840, Note_on_c, 0, 85, 0
1, 147840, Note_on_c, 0, 70, 0
1, 147840, Note_on_c, 0, 61, 0
1, 147840, Note_on_c, 0, 66, 0
1, 147840, Note_on_c, 0, 90, 0
1, 147840, Note_on_c, 0, 58, 0
1, 147840, Note_on_c, 0, 56, 51
1, 147840, Note_on_c, 0, 52, 42
1, 147840, Note_on_c, 0, 49, 54
1, 147840, Note_on_c, 0, 37, 46
1, 147876, Control_c, 0, 64, 127
1, 147896, Tempo, 745342
1, 147900, Note_on_c, 0, 52, 0
1, 147900, Note_on_c, 0, 56, 0
1, 147900, Note_on_c, 0, 61, 42
1, 147936, Note_on_c, 0, 49, 0
1, 147936, Note_on_c, 0, 37, 0
1, 147960, Note_on_c, 0, 61, 0
1, 147960, Note_on_c, 0, 52, 38
1, 147960, Note_on_c, 0, 56, 45
1, 147960, Note_on_c, 0, 48, 48
1, 147960, Note_on_c, 0, 36, 40
1, 147973, Tempo, 738462
1, 148020, Note_on_c, 0, 56, 0
1, 148020, Note_on_c, 0, 52, 0
1, 148020, Note_on_c, 0, 61, 43
1, 148030, Tempo, 731707
1, 148056, Note_on_c, 0, 48, 0
1, 148056, Note_on_c, 0, 36, 0
1, 148080, Note_on_c, 0, 61, 0
1, 148080, Note_on_c, 0, 56, 45
1, 148080, Note_on_c, 0, 52, 38
1, 148080, Note_on_c, 0, 35, 40
1, 148080, Note_on_c, 0, 47, 48
1, 148107, Tempo, 725076
1, 148140, Note_on_c, 0, 52, 0
1, 148140, Note_on_c, 0, 56, 0
1, 148140, Note_on_c, 0, 61, 43
1, 148165, Tempo, 718563
1, 148176, Note_on_c, 0, 35, 0
1, 148176, Note_on_c, 0, 47, 0
1, 148200, Note_on_c, 0, 61, 0
1, 148200, Note_on_c, 0, 52, 38
1, 148200, Note_on_c, 0, 56, 45
1, 148200, Note_on_c, 0, 46, 48
1, 148200, Note_on_c, 0, 34, 40
1, 148241, Tempo, 712166
1, 148260, Note_on_c, 0, 56, 0
1, 148260, Note_on_c, 0, 52, 0
1, 148260, Note_on_c, 0, 61, 42
1, 148296, Note_on_c, 0, 46, 0
1, 148296, Note_on_c, 0, 34, 0
1, 148299, Tempo, 705882
1, 148317, Control_c, 0, 64, 0
1, 148320, Note_on_c, 0, 61, 0
1, 148320, Note_on_c, 0, 56, 49
1, 148320, Note_on_c, 0, 52, 42
1, 148320, Note_on_c, 0, 45, 48
1, 148320, Note_on_c, 0, 33, 40
1, 148366, Control_c, 0, 64, 127
1, 148380, Note_on_c, 0, 52, 0
1, 148380, Note_on_c, 0, 56, 0
1, 148380, Note_on_c, 0, 61, 42
1, 148416, Note_on_c, 0, 45, 0
1, 148416, Note_on_c, 0, 33, 0
1, 148440, Note_on_c, 0, 61, 0
1, 148440, Note_on_c, 0, 52, 38
1, 148440, Note_on_c, 0, 56, 45
1, 148440, Note_on_c, 0, 32, 41
1, 148440, Note_on_c, 0, 44, 48
1, 148500, Note_on_c, 0, 56, 0
1, 148500, Note_on_c, 0, 52, 0
1, 148500, Note_on_c, 0, 61, 41
1, 148536, Note_on_c, 0, 32, 0
1, 148536, Note_on_c, 0, 44, 0
1, 148560, Note_on_c, 0, 61, 0
1, 148560, Note_on_c, 0, 52, 38
1, 148560, Note_on_c, 0, 56, 45
1, 148560, Note_on_c, 0, 43, 51
1, 148560, Note_on_c, 0, 31, 43
1, 148620, Note_on_c, 0, 56, 0
1, 148620, Note_on_c, 0, 52, 0
1, 148620, Note_on_c, 0, 61, 41
1, 148656, Note_on_c, 0, 43, 0
1, 148656, Note_on_c, 0, 31, 0
1, 148680, Tempo, 813559
1, 148680, Note_on_c, 0, 61, 0
1, 148680, Note_on_c, 0, 56, 45
1, 148680, Note_on_c, 0, 52, 38
1, 148680, Note_on_c, 0, 44, 55
1, 148680, Note_on_c, 0, 32, 46
1, 148740, Note_on_c, 0, 52, 0
1, 148740, Note_on_c, 0, 56, 0
1, 148740, Note_on_c, 0, 61, 40
1, 148776, Note_on_c, 0, 44, 0
1, 148776, Note_on_c, 0, 32, 0
1, 148800, Tempo, 712166
1, 148800, Note_on_c, 0, 61, 0
1, 148800, Note_on_c, 0, 54, 41
1, 148800, Note_on_c, 0, 57, 48
1, 148800, Note_on_c, 0, 33, 48
1, 148800, Note_on_c, 0, 45, 57
1, 148826, Control_c, 0, 64, 0
1, 148860, Note_on_c, 0, 57, 0
1, 148860, Note_on_c, 0, 54, 0
1, 148860, Note_on_c, 0, 66, 42
1, 148871, Control_c, 0, 64, 127
1, 148896, Note_on_c, 0, 33, 0
1, 148896, Note_on_c, 0, 45, 0
1, 148920, Note_on_c, 0, 66, 0
1, 148920, Note_on_c, 0, 57, 45
1, 148920, Note_on_c, 0, 54, 38
1, 148920, Note_on_c, 0, 44, 54
1, 148920, Note_on_c, 0, 32, 45
1, 148980, Note_on_c, 0, 54, 0
1, 148980, Note_on_c, 0, 57, 0
1, 148980, Note_on_c, 0, 66, 42
1, 149016, Note_on_c, 0, 44, 0
1, 149016, Note_on_c, 0, 32, 0
1, 149040, Note_on_c, 0, 66, 0
1, 149040, Note_on_c, 0, 54, 39
1, 149040, Note_on_c, 0, 57, 46
1, 149040, Note_on_c, 0, 43, 48
1, 149040, Note_on_c, 0, 31, 41
1, 149100, Note_on_c, 0, 57, 0
1, 149100, Note_on_c, 0, 54, 0
1, 149100, Note_on_c, 0, 66, 41
1, 149136, Note_on_c, 0, 43, 0
1, 149136, Note_on_c, 0, 31, 0
1, 149160, Note_on_c, 0, 66, 0
1, 149160, Note_on_c, 0, 54, 38
1, 149160, Note_on_c, 0, 57, 45
1, 149160, Note_on_c, 0, 42, 48
1, 149160, Note_on_c, 0, 30, 41
1, 149220, Note_on_c, 0, 57, 0
1, 149220, Note_on_c, 0, 54, 0
1, 149220, Note_on_c, 0, 66, 42
1, 149256, Note_on_c, 0, 42, 0
1, 149256, Note_on_c, 0, 30, 0
1, 149280, Note_on_c, 0, 66, 0
1, 149280, Note_on_c, 0, 57, 45
1, 149280, Note_on_c, 0, 54, 38
1, 149280, Note_on_c, 0, 29, 41
1, 149280, Note_on_c, 0, 41, 48
1, 149340, Note_on_c, 0, 54, 0
1, 149340, Note_on_c, 0, 57, 0
1, 149340, Note_on_c, 0, 66, 42
1, 149376, Note_on_c, 0, 29, 0
1, 149376, Note_on_c, 0, 41, 0
1, 149400, Note_on_c, 0, 66, 0
1, 149400, Note_on_c, 0, 54, 38
1, 149400, Note_on_c, 0, 57, 45
1, 149400, Note_on_c, 0, 40, 48
1, 149400, Note_on_c, 0, 28, 41
1, 149460, Note_on_c, 0, 57, 0
1, 149460, Note_on_c, 0, 54, 0
1, 149460, Note_on_c, 0, 66, 42
1, 149496, Note_on_c, 0, 40, 0
1, 149496, Note_on_c, 0, 28, 0
1, 149520, Note_on_c, 0, 66, 0
1, 149520, Note_on_c, 0, 57, 45
1, 149520, Note_on_c, 0, 54, 38
1, 149520, Note_on_c, 0, 39, 48
1, 149520, Note_on_c, 0, 27, 40
1, 149580, Note_on_c, 0, 54, 0
1, 149580, Note_on_c, 0, 57, 0
1, 149580, Note_on_c, 0, 66, 41
1, 149616, Note_on_c, 0, 39, 0
1, 149616, Note_on_c, 0, 27, 0
1, 149640, Tempo, 875912
1, 149640, Note_on_c, 0, 66, 0
1, 149640, Note_on_c, 0, 54, 38
1, 149640, Note_on_c, 0, 57, 45
1, 149640, Note_on_c, 0, 24, 40
1, 149640, Note_on_c, 0, 36, 48
1, 149700, Note_on_c, 0, 57, 0
1, 149700, Note_on_c, 0, 54, 0
1, 149700, Note_on_c, 0, 66, 42
1, 149736, Note_on_c, 0, 24, 0
1, 149736, Note_on_c, 0, 36, 0
1, 149760, Tempo, 712166
1, 149760, Note_on_c, 0, 66, 0
1, 149760, Note_on_c, 0, 52, 42
1, 149760, Note_on_c, 0, 56, 51
1, 149760, Note_on_c, 0, 25, 46
1, 149760, Note_on_c, 0, 37, 54
1, 149760, Control_c, 0, 64, 0
1, 149820, Note_on_c, 0, 56, 0
1, 149820, Note_on_c, 0, 52, 0
1, 149820, Note_on_c, 0, 64, 42
1, 149835, Control_c, 0, 64, 127
1, 149856, Note_on_c, 0, 25, 0
1, 149856, Note_on_c, 0, 37, 0
1, 149880, Note_on_c, 0, 64, 0
1, 149880, Note_on_c, 0, 56, 45
1, 149880, Note_on_c, 0, 52, 38
1, 149880, Note_on_c, 0, 38, 47
1, 149880, Note_on_c, 0, 26, 39
1, 149940, Note_on_c, 0, 52, 0
1, 149940, Note_on_c, 0, 56, 0
1, 149940, Note_on_c, 0, 64, 44
1, 149976, Note_on_c, 0, 38, 0
1, 149976, Note_on_c, 0, 26, 0
1, 150000, Note_on_c, 0, 64, 0
1, 150000, Note_on_c, 0, 52, 39
1, 150000, Note_on_c, 0, 56, 46
1, 150000, Note_on_c, 0, 39, 49
1, 150000, Note_on_c, 0, 27, 42
1, 150060, Note_on_c, 0, 56, 0
1, 150060, Note_on_c, 0, 52, 0
1, 150060, Note_on_c, 0, 64, 45
1, 150096, Note_on_c, 0, 39, 0
1, 150096, Note_on_c, 0, 27, 0
1, 150120, Note_on_c, 0, 64, 0
1, 150120, Note_on_c, 0, 52, 40
1, 150120, Note_on_c, 0, 56, 48
1, 150120, Note_on_c, 0, 28, 44
1, 150120, Note_on_c, 0, 40, 52
1, 150180, Note_on_c, 0, 56, 0
1, 150180, Note_on_c, 0, 52, 0
1, 150180, Note_on_c, 0, 64, 45
1, 150216, Note_on_c, 0, 28, 0
1, 150216, Note_on_c, 0, 40, 0
1, 150240, Note_on_c, 0, 64, 0
1, 150240, Note_on_c, 0, 50, 46
1, 150240, Note_on_c, 0, 54, 55
1, 150240, Note_on_c, 0, 41, 58
1, 150240, Note_on_c, 0, 29, 49
1, 150252, Control_c, 0, 64, 0
1, 150277, Control_c, 0, 64, 127
1, 150300, Note_on_c, 0, 54, 0
1, 150300, Note_on_c, 0, 50, 0
1, 150300, Note_on_c, 0, 62, 46
1, 150336, Note_on_c, 0, 41, 0
1, 150336, Note_on_c, 0, 29, 0
1, 150360, Note_on_c, 0, 62, 0
1, 150360, Note_on_c, 0, 50, 42
1, 150360, Note_on_c, 0, 54, 49
1, 150360, Note_on_c, 0, 42, 54
1, 150360, Note_on_c, 0, 30, 46
1, 150420, Note_on_c, 0, 54, 0
1, 150420, Note_on_c, 0, 50, 0
1, 150420, Note_on_c, 0, 62, 48
1, 150456, Note_on_c, 0, 42, 0
1, 150456, Note_on_c, 0, 30, 0
1, 150480, Note_on_c, 0, 62, 0
1, 150480, Note_on_c, 0, 54, 51
1, 150480, Note_on_c, 0, 50, 43
1, 150480, Note_on_c, 0, 29, 50
1, 150480, Note_on_c, 0, 41, 59
1, 150540, Note_on_c, 0, 50, 0
1, 150540, Note_on_c, 0, 54, 0
1, 150540, Note_on_c, 0, 62, 49
1, 150576, Note_on_c, 0, 29, 0
1, 150576, Note_on_c, 0, 41, 0
1, 150600, Tempo, 821918
1, 150600, Note_on_c, 0, 62, 0
1, 150600, Note_on_c, 0, 50, 43
1, 150600, Note_on_c, 0, 54, 51
1, 150600, Note_on_c, 0, 42, 56
1, 150600, Note_on_c, 0, 30, 48
1, 150660, Note_on_c, 0, 54, 0
1, 150660, Note_on_c, 0, 50, 0
1, 150660, Note_on_c, 0, 62, 49
1, 150696, Note_on_c, 0, 42, 0
1, 150696, Note_on_c, 0, 30, 0
1, 150720, Tempo, 718563
1, 150720, Note_on_c, 0, 62, 0
1, 150720, Note_on_c, 0, 52, 59
1, 150720, Note_on_c, 0, 49, 50
1, 150720, Note_on_c, 0, 43, 64
1, 150720, Note_on_c, 0, 31, 54
1, 150741, Control_c, 0, 64, 0
1, 150780, Note_on_c, 0, 49, 0
1, 150780, Note_on_c, 0, 52, 0
1, 150780, Note_on_c, 0, 61, 50
1, 150803, Control_c, 0, 64, 127
1, 150816, Note_on_c, 0, 43, 0
1, 150816, Note_on_c, 0, 31, 0
1, 150840, Note_on_c, 0, 61, 0
1, 150840, Note_on_c, 0, 52, 54
1, 150840, Note_on_c, 0, 49, 45
1, 150840, Note_on_c, 0, 32, 51
1, 150840, Note_on_c, 0, 44, 61
1, 150900, Note_on_c, 0, 49, 0
1, 150900, Note_on_c, 0, 52, 0
1, 150900, Note_on_c, 0, 61, 52
1, 150936, Note_on_c, 0, 32, 0
1, 150936, Note_on_c, 0, 44, 0
1, 150960, Note_on_c, 0, 61, 0
1, 150960, Note_on_c, 0, 49, 46
1, 150960, Note_on_c, 0, 52, 54
1, 150960, Note_on_c, 0, 43, 65
1, 150960, Note_on_c, 0, 31, 55
1, 151020, Note_on_c, 0, 52, 0
1, 151020, Note_on_c, 0, 49, 0
1, 151020, Note_on_c, 0, 61, 53
1, 151056, Note_on_c, 0, 43, 0
1, 151056, Note_on_c, 0, 31, 0
1, 151080, Note_on_c, 0, 61, 0
1, 151080, Note_on_c, 0, 52, 55
1, 151080, Note_on_c, 0, 49, 47
1, 151080, Note_on_c, 0, 44, 59
1, 151080, Note_on_c, 0, 32, 50
1, 151140, Note_on_c, 0, 49, 0
1, 151140, Note_on_c, 0, 52, 0
1, 151140, Note_on_c, 0, 61, 53
1, 151176, Note_on_c, 0, 44, 0
1, 151176, Note_on_c, 0, 32, 0
1, 151200, Note_on_c, 0, 61, 0
1, 151200, Note_on_c, 0, 51, 53
1, 151200, Note_on_c, 0, 54, 62
1, 151200, Note_on_c, 0, 33, 62
1, 151200, Note_on_c, 0, 45, 74
1, 151214, Control_c, 0, 64, 0
1, 151260, Note_on_c, 0, 54, 0
1, 151260, Note_on_c, 0, 51, 0
1, 151260, Note_on_c, 0, 60, 54
1, 151260, Control_c, 0, 64, 127
1, 151296, Note_on_c, 0, 33, 0
1, 151296, Note_on_c, 0, 45, 0
1, 151320, Note_on_c, 0, 60, 0
1, 151320, Note_on_c, 0, 54, 57
1, 151320, Note_on_c, 0, 51, 48
1, 151320, Note_on_c, 0, 44, 64
1, 151320, Note_on_c, 0, 32, 53
1, 151380, Note_on_c, 0, 51, 0
1, 151380, Note_on_c, 0, 54, 0
1, 151380, Note_on_c, 0, 60, 56
1, 151416, Note_on_c, 0, 44, 0
1, 151416, Note_on_c, 0, 32, 0
1, 151440, Note_on_c, 0, 60, 0
1, 151440, Note_on_c, 0, 54, 58
1, 151440, Note_on_c, 0, 51, 49
1, 151440, Note_on_c, 0, 45, 74
1, 151440, Note_on_c, 0, 33, 62
1, 151500, Note_on_c, 0, 51, 0
1, 151500, Note_on_c, 0, 54, 0
1, 151500, Note_on_c, 0, 60, 57
1, 151536, Note_on_c, 0, 45, 0
1, 151536, Note_on_c, 0, 33, 0
1, 151560, Tempo, 895522
1, 151560, Note_on_c, 0, 60, 0
1, 151560, Note_on_c, 0, 51, 51
1, 151560, Note_on_c, 0, 54, 60
1, 151560, Note_on_c, 0, 32, 57
1, 151560, Note_on_c, 0, 44, 68
1, 151620, Note_on_c, 0, 54, 0
1, 151620, Note_on_c, 0, 51, 0
1, 151620, Note_on_c, 0, 60, 57
1, 151656, Note_on_c, 0, 32, 0
1, 151656, Note_on_c, 0, 44, 0
1, 151680, Tempo, 718563
1, 151680, Note_on_c, 0, 60, 0
1, 151680, Note_on_c, 0, 61, 92
1, 151680, Note_on_c, 0, 49, 75
1, 151680, Note_on_c, 0, 52, 75
1, 151680, Note_on_c, 0, 37, 89
1, 151680, Note_on_c, 0, 25, 75
1, 151704, Control_c, 0, 64, 0
1, 151800, Note_on_c, 0, 25, 0
1, 151800, Note_on_c, 0, 52, 0
1, 151800, Note_on_c, 0, 61, 0
1, 151800, Note_on_c, 0, 49, 0
1, 151800, Note_on_c, 0, 37, 0
1, 151800, Control_c, 0, 64, 127
1, 152151, Tempo, 712166
1, 152160, Note_on_c, 0, 61, 78
1, 152160, Note_on_c, 0, 57, 78
1, 152160, Note_on_c, 0, 54, 89
1, 152160, Note_on_c, 0, 42, 75
1, 152160, Note_on_c, 0, 49, 75
1, 152213, Note_on_c, 0, 57, 0
1, 152213, Note_on_c, 0, 61, 0
1, 152213, Note_on_c, 0, 66, 67
1, 152227, Tempo, 718563
1, 152266, Note_on_c, 0, 69, 69
1, 152266, Note_on_c, 0, 66, 0
1, 152280, Note_on_c, 0, 42, 0
1, 152280, Note_on_c, 0, 49, 0
1, 152280, Note_on_c, 0, 54, 0
1, 152304, Tempo, 725076
1, 152319, Note_on_c, 0, 69, 0
1, 152319, Note_on_c, 0, 73, 71
1, 152371, Note_on_c, 0, 78, 73
1, 152372, Note_on_c, 0, 73, 0
1, 152381, Tempo, 731707
1, 152424, Note_on_c, 0, 78, 0
1, 152424, Note_on_c, 0, 81, 75
1, 152458, Tempo, 738462
1, 152477, Note_on_c, 0, 81, 0
1, 152477, Note_on_c, 0, 85, 77
1, 152530, Note_on_c, 0, 90, 79
1, 152530, Note_on_c, 0, 85, 0
1, 152580, Tempo, 926641
1, 152582, Note_on_c, 0, 93, 81
1, 152583, Note_on_c, 0, 90, 0
1, 152640, Tempo, 983607
1, 152640, Note_on_c, 0, 93, 0
1, 152640, Note_on_c, 0, 92, 92
1, 152640, Note_on_c, 0, 85, 92
1, 152640, Note_on_c, 0, 97, 96
1, 152640, Note_on_c, 0, 52, 89
1, 152640, Note_on_c, 0, 37, 75
1, 152640, Note_on_c, 0, 44, 75
1, 152652, Control_c, 0, 64, 0
1, 152750, Control_c, 0, 64, 127
1, 152760, Note_on_c, 0, 44, 0
1, 152760, Note_on_c, 0, 85, 0
1, 152760, Note_on_c, 0, 97, 0
1, 152760, Note_on_c, 0, 92, 0
1, 152760, Note_on_c, 0, 37, 0
1, 152760, Note_on_c, 0, 52, 0
1, 153053, Control_c, 0, 64, 0
1, 153600, Tempo, 752351
1, 153600, Note_on_c, 0, 63, 51
1, 153600, Note_on_c, 0, 59, 42
1, 153600, Note_on_c, 0, 56, 54
1, 153600, Note_on_c, 0, 44, 46
1, 153600, Control_c, 0, 64, 0
1, 153636, Control_c, 0, 64, 127
1, 153656, Tempo, 745342
1, 153660, Note_on_c, 0, 59, 0
1, 153660, Note_on_c, 0, 63, 0
1, 153660, Note_on_c, 0, 68, 42
1, 153696, Note_on_c, 0, 56, 0
1, 153696, Note_on_c, 0, 44, 0
1, 153720, Note_on_c, 0, 68, 0
1, 153720, Note_on_c, 0, 59, 38
1, 153720, Note_on_c, 0, 63, 45
1, 153720, Note_on_c, 0, 43, 40
1, 153720, Note_on_c, 0, 55, 48
1, 153733, Tempo, 738462
1, 153780, Note_on_c, 0, 63, 0
1, 153780, Note_on_c, 0, 59, 0
1, 153780, Note_on_c, 0, 68, 43
1, 153790, Tempo, 731707
1, 153816, Note_on_c, 0, 43, 0
1, 153816, Note_on_c, 0, 55, 0
1, 153840, Note_on_c, 0, 68, 0
1, 153840, Note_on_c, 0, 59, 38
1, 153840, Note_on_c, 0, 63, 45
1, 153840, Note_on_c, 0, 54, 48
1, 153840, Note_on_c, 0, 42, 40
1, 153867, Tempo, 725076
1, 153900, Note_on_c, 0, 63, 0
1, 153900, Note_on_c, 0, 59, 0
1, 153900, Note_on_c, 0, 68, 43
1, 153925, Tempo, 718563
1, 153936, Note_on_c, 0, 54, 0
1, 153936, Note_on_c, 0, 42, 0
1, 153960, Note_on_c, 0, 68, 0
1, 153960, Note_on_c, 0, 59, 38
1, 153960, Note_on_c, 0, 63, 45
1, 153960, Note_on_c, 0, 53, 48
1, 153960, Note_on_c, 0, 41, 40
1, 154001, Tempo, 712166
1, 154020, Note_on_c, 0, 63, 0
1, 154020, Note_on_c, 0, 59, 0
1, 154020, Note_on_c, 0, 68, 42
1, 154056, Note_on_c, 0, 53, 0
1, 154056, Note_on_c, 0, 41, 0
1, 154059, Tempo, 705882
1, 154077, Control_c, 0, 64, 0
1, 154080, Note_on_c, 0, 68, 0
1, 154080, Note_on_c, 0, 59, 42
1, 154080, Note_on_c, 0, 63, 49
1, 154080, Note_on_c, 0, 40, 40
1, 154080, Note_on_c, 0, 52, 48
1, 154126, Control_c, 0, 64, 127
1, 154140, Note_on_c, 0, 63, 0
1, 154140, Note_on_c, 0, 59, 0
1, 154140, Note_on_c, 0, 68, 42
1, 154176, Note_on_c, 0, 40, 0
1, 154176, Note_on_c, 0, 52, 0
1, 154200, Note_on_c, 0, 68, 0
1, 154200, Note_on_c, 0, 63, 45
1, 154200, Note_on_c, 0, 59, 38
1, 154200, Note_on_c, 0, 51, 48
1, 154200, Note_on_c, 0, 39, 41
1, 154260, Note_on_c, 0, 59, 0
1, 154260, Note_on_c, 0, 63, 0
1, 154260, Note_on_c, 0, 68, 41
1, 154296, Note_on_c, 0, 51, 0
1, 154296, Note_on_c, 0, 39, 0
1, 154320, Note_on_c, 0, 68, 0
1, 154320, Note_on_c, 0, 59, 38
1, 154320, Note_on_c, 0, 63, 45
1, 154320, Note_on_c, 0, 50, 51
1, 154320, Note_on_c, 0, 38, 43
1, 154380, Note_on_c, 0, 63, 0
1, 154380, Note_on_c, 0, 59, 0
1, 154380, Note_on_c, 0, 68, 41
1, 154416, Note_on_c, 0, 50, 0
1, 154416, Note_on_c, 0, 38, 0
1, 154440, Tempo, 813559
1, 154440, Note_on_c, 0, 68, 0
1, 154440, Note_on_c, 0, 63, 45
1, 154440, Note_on_c, 0, 59, 38
1, 154440, Note_on_c, 0, 39, 46
1, 154440, Note_on_c, 0, 51, 55
1, 154500, Note_on_c, 0, 59, 0
1, 154500, Note_on_c, 0, 63, 0
1, 154500, Note_on_c, 0, 68, 40
1, 154536, Note_on_c, 0, 39, 0
1, 154536, Note_on_c, 0, 51, 0
1, 154560, Tempo, 712166
1, 154560, Note_on_c, 0, 68, 0
1, 154560, Note_on_c, 0, 64, 48
1, 154560, Note_on_c, 0, 61, 41
1, 154560, Note_on_c, 0, 52, 57
1, 154560, Note_on_c, 0, 40, 48
1, 154586, Control_c, 0, 64, 0
1, 154620, Note_on_c, 0, 61, 0
1, 154620, Note_on_c, 0, 64, 0
1, 154620, Note_on_c, 0, 73, 42
1, 154634, Control_c, 0, 64, 127
1, 154656, Note_on_c, 0, 52, 0
1, 154656, Note_on_c, 0, 40, 0
1, 154680, Note_on_c, 0, 73, 0
1, 154680, Note_on_c, 0, 61, 38
1, 154680, Note_on_c, 0, 64, 45
1, 154680, Note_on_c, 0, 51, 54
1, 154680, Note_on_c, 0, 39, 45
1, 154740, Note_on_c, 0, 64, 0
1, 154740, Note_on_c, 0, 61, 0
1, 154740, Note_on_c, 0, 73, 42
1, 154776, Note_on_c, 0, 51, 0
1, 154776, Note_on_c, 0, 39, 0
1, 154800, Note_on_c, 0, 73, 0
1, 154800, Note_on_c, 0, 64, 46
1, 154800, Note_on_c, 0, 61, 39
1, 154800, Note_on_c, 0, 38, 41
1, 154800, Note_on_c, 0, 50, 48
1, 154860, Note_on_c, 0, 61, 0
1, 154860, Note_on_c, 0, 64, 0
1, 154860, Note_on_c, 0, 73, 41
1, 154896, Note_on_c, 0, 38, 0
1, 154896, Note_on_c, 0, 50, 0
1, 154920, Note_on_c, 0, 73, 0
1, 154920, Note_on_c, 0, 61, 38
1, 154920, Note_on_c, 0, 64, 45
1, 154920, Note_on_c, 0, 49, 48
1, 154920, Note_on_c, 0, 37, 41
1, 154980, Note_on_c, 0, 64, 0
1, 154980, Note_on_c, 0, 61, 0
1, 154980, Note_on_c, 0, 73, 42
1, 155016, Note_on_c, 0, 49, 0
1, 155016, Note_on_c, 0, 37, 0
1, 155040, Note_on_c, 0, 73, 0
1, 155040, Note_on_c, 0, 64, 45
1, 155040, Note_on_c, 0, 61, 38
1, 155040, Note_on_c, 0, 48, 48
1, 155040, Note_on_c, 0, 36, 41
1, 155100, Note_on_c, 0, 61, 0
1, 155100, Note_on_c, 0, 64, 0
1, 155100, Note_on_c, 0, 73, 42
1, 155136, Note_on_c, 0, 48, 0
1, 155136, Note_on_c, 0, 36, 0
1, 155160, Note_on_c, 0, 73, 0
1, 155160, Note_on_c, 0, 64, 45
1, 155160, Note_on_c, 0, 61, 38
1, 155160, Note_on_c, 0, 35, 41
1, 155160, Note_on_c, 0, 47, 48
1, 155220, Note_on_c, 0, 61, 0
1, 155220, Note_on_c, 0, 64, 0
1, 155220, Note_on_c, 0, 73, 42
1, 155256, Note_on_c, 0, 35, 0
1, 155256, Note_on_c, 0, 47, 0
1, 155280, Note_on_c, 0, 73, 0
1, 155280, Note_on_c, 0, 61, 38
1, 155280, Note_on_c, 0, 64, 45
1, 155280, Note_on_c, 0, 46, 48
1, 155280, Note_on_c, 0, 34, 40
1, 155340, Note_on_c, 0, 64, 0
1, 155340, Note_on_c, 0, 61, 0
1, 155340, Note_on_c, 0, 73, 41
1, 155376, Note_on_c, 0, 46, 0
1, 155376, Note_on_c, 0, 34, 0
1, 155400, Tempo, 875912
1, 155400, Note_on_c, 0, 73, 0
1, 155400, Note_on_c, 0, 64, 45
1, 155400, Note_on_c, 0, 61, 38
1, 155400, Note_on_c, 0, 43, 48
1, 155400, Note_on_c, 0, 31, 40
1, 155460, Note_on_c, 0, 61, 0
1, 155460, Note_on_c, 0, 64, 0
1, 155460, Note_on_c, 0, 73, 42
1, 155496, Note_on_c, 0, 43, 0
1, 155496, Note_on_c, 0, 31, 0
1, 155520, Tempo, 712166
1, 155520, Note_on_c, 0, 73, 0
1, 155520, Note_on_c, 0, 59, 42
1, 155520, Note_on_c, 0, 63, 51
1, 155520, Note_on_c, 0, 32, 46
1, 155520, Note_on_c, 0, 44, 54
1, 155520, Control_c, 0, 64, 0
1, 155580, Note_on_c, 0, 63, 0
1, 155580, Note_on_c, 0, 59, 0
1, 155580, Note_on_c, 0, 71, 42
1, 155595, Control_c, 0, 64, 127
1, 155616, Note_on_c, 0, 32, 0
1, 155616, Note_on_c, 0, 44, 0
1, 155640, Note_on_c, 0, 71, 0
1, 155640, Note_on_c, 0, 63, 45
1, 155640, Note_on_c, 0, 59, 38
1, 155640, Note_on_c, 0, 45, 47
1, 155640, Note_on_c, 0, 33, 39
1, 155700, Note_on_c, 0, 59, 0
1, 155700, Note_on_c, 0, 63, 0
1, 155700, Note_on_c, 0, 71, 44
1, 155736, Note_on_c, 0, 45, 0
1, 155736, Note_on_c, 0, 33, 0
1, 155760, Note_on_c, 0, 71, 0
1, 155760, Note_on_c, 0, 63, 46
1, 155760, Note_on_c, 0, 59, 39
1, 155760, Note_on_c, 0, 46, 49
1, 155760, Note_on_c, 0, 34, 42
1, 155820, Note_on_c, 0, 59, 0
1, 155820, Note_on_c, 0, 63, 0
1, 155820, Note_on_c, 0, 71, 45
1, 155856, Note_on_c, 0, 46, 0
1, 155856, Note_on_c, 0, 34, 0
1, 155880, Note_on_c, 0, 71, 0
1, 155880, Note_on_c, 0, 59, 40
1, 155880, Note_on_c, 0, 63, 48
1, 155880, Note_on_c, 0, 35, 44
1, 155880, Note_on_c, 0, 47, 52
1, 155940, Note_on_c, 0, 63, 0
1, 155940, Note_on_c, 0, 59, 0
1, 155940, Note_on_c, 0, 71, 45
1, 155976, Note_on_c, 0, 35, 0
1, 155976, Note_on_c, 0, 47, 0
1, 156000, Note_on_c, 0, 71, 0
1, 156000, Note_on_c, 0, 61, 55
1, 156000, Note_on_c, 0, 57, 46
1, 156000, Note_on_c, 0, 48, 58
1, 156000, Note_on_c, 0, 36, 49
1, 156012, Control_c, 0, 64, 0
1, 156037, Control_c, 0, 64, 127
1, 156060, Note_on_c, 0, 57, 0
1, 156060, Note_on_c, 0, 61, 0
1, 156060, Note_on_c, 0, 69, 46
1, 156096, Note_on_c, 0, 48, 0
1, 156096, Note_on_c, 0, 36, 0
1, 156120, Note_on_c, 0, 69, 0
1, 156120, Note_on_c, 0, 57, 42
1, 156120, Note_on_c, 0, 61, 49
1, 156120, Note_on_c, 0, 49, 54
1, 156120, Note_on_c, 0, 37, 46
1, 156180, Note_on_c, 0, 61, 0
1, 156180, Note_on_c, 0, 57, 0
1, 156180, Note_on_c, 0, 69, 48
1, 156216, Note_on_c, 0, 49, 0
1, 156216, Note_on_c, 0, 37, 0
1, 156240, Note_on_c, 0, 69, 0
1, 156240, Note_on_c, 0, 57, 43
1, 156240, Note_on_c, 0, 61, 51
1, 156240, Note_on_c, 0, 36, 50
1, 156240, Note_on_c, 0, 48, 59
1, 156300, Note_on_c, 0, 61, 0
1, 156300, Note_on_c, 0, 57, 0
1, 156300, Note_on_c, 0, 69, 49
1, 156336, Note_on_c, 0, 36, 0
1, 156336, Note_on_c, 0, 48, 0
1, 156360, Tempo, 821918
1, 156360, Note_on_c, 0, 69, 0
1, 156360, Note_on_c, 0, 57, 43
1, 156360, Note_on_c, 0, 61, 51
1, 156360, Note_on_c, 0, 49, 56
1, 156360, Note_on_c, 0, 37, 48
1, 156420, Note_on_c, 0, 61, 0
1, 156420, Note_on_c, 0, 57, 0
1, 156420, Note_on_c, 0, 69, 49
1, 156456, Note_on_c, 0, 49, 0
1, 156456, Note_on_c, 0, 37, 0
1, 156480, Tempo, 718563
1, 156480, Note_on_c, 0, 69, 0
1, 156480, Note_on_c, 0, 56, 50
1, 156480, Note_on_c, 0, 59, 59
1, 156480, Note_on_c, 0, 50, 64
1, 156480, Note_on_c, 0, 38, 54
1, 156501, Control_c, 0, 64, 0
1, 156540, Note_on_c, 0, 59, 0
1, 156540, Note_on_c, 0, 56, 0
1, 156540, Note_on_c, 0, 68, 50
1, 156563, Control_c, 0, 64, 127
1, 156576, Note_on_c, 0, 50, 0
1, 156576, Note_on_c, 0, 38, 0
1, 156600, Note_on_c, 0, 68, 0
1, 156600, Note_on_c, 0, 56, 45
1, 156600, Note_on_c, 0, 59, 54
1, 156600, Note_on_c, 0, 51, 61
1, 156600, Note_on_c, 0, 39, 51
1, 156660, Note_on_c, 0, 59, 0
1, 156660, Note_on_c, 0, 56, 0
1, 156660, Note_on_c, 0, 68, 52
1, 156696, Note_on_c, 0, 51, 0
1, 156696, Note_on_c, 0, 39, 0
1, 156720, Note_on_c, 0, 68, 0
1, 156720, Note_on_c, 0, 59, 54
1, 156720, Note_on_c, 0, 56, 46
1, 156720, Note_on_c, 0, 50, 65
1, 156720, Note_on_c, 0, 38, 55
1, 156780, Note_on_c, 0, 56, 0
1, 156780, Note_on_c, 0, 59, 0
1, 156780, Note_on_c, 0, 68, 53
1, 156816, Note_on_c, 0, 50, 0
1, 156816, Note_on_c, 0, 38, 0
1, 156840, Note_on_c, 0, 68, 0
1, 156840, Note_on_c, 0, 56, 47
1, 156840, Note_on_c, 0, 59, 55
1, 156840, Note_on_c, 0, 51, 59
1, 156840, Note_on_c, 0, 39, 50
1, 156900, Note_on_c, 0, 59, 0
1, 156900, Note_on_c, 0, 56, 0
1, 156900, Note_on_c, 0, 68, 53
1, 156936, Note_on_c, 0, 51, 0
1, 156936, Note_on_c, 0, 39, 0
1, 156960, Note_on_c, 0, 68, 0
1, 156960, Note_on_c, 0, 61, 62
1, 156960, Note_on_c, 0, 58, 53
1, 156960, Note_on_c, 0, 52, 74
1, 156960, Note_on_c, 0, 40, 62
1, 156974, Control_c, 0, 64, 0
1, 157020, Note_on_c, 0, 58, 0
1, 157020, Note_on_c, 0, 61, 0
1, 157020, Note_on_c, 0, 67, 54
1, 157020, Control_c, 0, 64, 127
1, 157056, Note_on_c, 0, 52, 0
1, 157056, Note_on_c, 0, 40, 0
1, 157080, Note_on_c, 0, 67, 0
1, 157080, Note_on_c, 0, 58, 48
1, 157080, Note_on_c, 0, 61, 57
1, 157080, Note_on_c, 0, 39, 53
1, 157080, Note_on_c, 0, 51, 64
1, 157140, Note_on_c, 0, 61, 0
1, 157140, Note_on_c, 0, 58, 0
1, 157140, Note_on_c, 0, 67, 56
1, 157176, Note_on_c, 0, 39, 0
1, 157176, Note_on_c, 0, 51, 0
1, 157200, Note_on_c, 0, 67, 0
1, 157200, Note_on_c, 0, 58, 49
1, 157200, Note_on_c, 0, 61, 58
1, 157200, Note_on_c, 0, 52, 74
1, 157200, Note_on_c, 0, 40, 62
1, 157260, Note_on_c, 0, 61, 0
1, 157260, Note_on_c, 0, 58, 0
1, 157260, Note_on_c, 0, 67, 57
1, 157296, Note_on_c, 0, 52, 0
1, 157296, Note_on_c, 0, 40, 0
1, 157320, Tempo, 895522
1, 157320, Note_on_c, 0, 67, 0
1, 157320, Note_on_c, 0, 61, 60
1, 157320, Note_on_c, 0, 58, 51
1, 157320, Note_on_c, 0, 51, 68
1, 157320, Note_on_c, 0, 39, 57
1, 157380, Note_on_c, 0, 58, 0
1, 157380, Note_on_c, 0, 61, 0
1, 157380, Note_on_c, 0, 67, 57
1, 157416, Note_on_c, 0, 51, 0
1, 157416, Note_on_c, 0, 39, 0
1, 157440, Tempo, 718563
1, 157440, Note_on_c, 0, 67, 0
1, 157440, Note_on_c, 0, 56, 75
1, 157440, Note_on_c, 0, 68, 92
1, 157440, Note_on_c, 0, 59, 75
1, 157440, Note_on_c, 0, 32, 75
1, 157440, Note_on_c, 0, 44, 89
1, 157464, Control_c, 0, 64, 0
1, 157560, Note_on_c, 0, 44, 0
1, 157560, Note_on_c, 0, 59, 0
1, 157560, Note_on_c, 0, 56, 0
1, 157560, Note_on_c, 0, 68, 0
1, 157560, Note_on_c, 0, 32, 0
1, 157560, Control_c, 0, 64, 127
1, 157911, Tempo, 712166
1, 157920, Note_on_c, 0, 64, 78
1, 157920, Note_on_c, 0, 68, 78
1, 157920, Note_on_c, 0, 56, 75
1, 157920, Note_on_c, 0, 61, 89
1, 157920, Note_on_c, 0, 49, 75
1, 157973, Note_on_c, 0, 68, 0
1, 157973, Note_on_c, 0, 64, 0
1, 157973, Note_on_c, 0, 73, 67
1, 157987, Tempo, 718563
1, 158026, Note_on_c, 0, 76, 69
1, 158026, Note_on_c, 0, 73, 0
1, 158040, Note_on_c, 0, 61, 0
1, 158040, Note_on_c, 0, 49, 0
1, 158040, Note_on_c, 0, 56, 0
1, 158064, Tempo, 725076
1, 158079, Note_on_c, 0, 76, 0
1, 158079, Note_on_c, 0, 80, 71
1, 158131, Note_on_c, 0, 85, 73
1, 158132, Note_on_c, 0, 80, 0
1, 158141, Tempo, 731707
1, 158184, Note_on_c, 0, 85, 0
1, 158184, Note_on_c, 0, 88, 75
1, 158218, Tempo, 738462
1, 158237, Note_on_c, 0, 88, 0
1, 158237, Note_on_c, 0, 92, 77
1, 158290, Note_on_c, 0, 97, 79
1, 158290, Note_on_c, 0, 92, 0
1, 158340, Tempo, 926641
1, 158342, Note_on_c, 0, 100, 81
1, 158343, Note_on_c, 0, 97, 0
1, 158400, Tempo, 983607
1, 158400, Note_on_c, 0, 100, 0
1, 158400, Note_on_c, 0, 92, 92
1, 158400, Note_on_c, 0, 104, 96
1, 158400, Note_on_c, 0, 99, 92
1, 158400, Note_on_c, 0, 51, 75
1, 158400, Note_on_c, 0, 59, 89
1, 158400, Note_on_c, 0, 44, 75
1, 158412, Control_c, 0, 64, 0
1, 158510, Control_c, 0, 64, 127
1, 158520, Note_on_c, 0, 44, 0
1, 158520, Note_on_c, 0, 104, 0
1, 158520, Note_on_c, 0, 99, 0
1, 158520, Note_on_c, 0, 92, 0
1, 158520, Note_on_c, 0, 59, 0
1, 158520, Note_on_c, 0, 51, 0
1, 158813, Control_c, 0, 64, 0
1, 159240, Note_on_c, 0, 47, 69
1, 159240, Note_on_c, 0, 35, 58
1, 159360, Tempo, 866426
1, 159360, Note_on_c, 0, 35, 0
1, 159360, Note_on_c, 0, 47, 0
1, 159360, Note_on_c, 0, 80, 99
1, 159360, Note_on_c, 0, 68, 83
1, 159360, Note_on_c, 0, 52, 78
1, 159360, Note_on_c, 0, 40, 66
1, 159385, Control_c, 0, 64, 127
1, 159480, Tempo, 718563
1, 159480, Note_on_c, 0, 40, 0
1, 159480, Note_on_c, 0, 52, 0
1, 159600, Tempo, 839161
1, 159720, Tempo, 781759
1, 159720, Note_on_c, 0, 56, 55
1, 159720, Note_on_c, 0, 64, 78
1, 159720, Note_on_c, 0, 59, 55
1, 159840, Tempo, 875912
1, 159840, Note_on_c, 0, 59, 0
1, 159840, Note_on_c, 0, 56, 0
1, 159840, Note_on_c, 0, 64, 0
1, 159840, Note_on_c, 0, 56, 60
1, 159840, Note_on_c, 0, 64, 84
1, 159840, Note_on_c, 0, 59, 60
1, 160080, Note_on_c, 0, 59, 0
1, 160080, Note_on_c, 0, 56, 0
1, 160080, Note_on_c, 0, 64, 0
1, 160200, Tempo, 848057
1, 160200, Note_on_c, 0, 68, 0
1, 160200, Note_on_c, 0, 80, 0
1, 160200, Note_on_c, 0, 81, 77
1, 160200, Note_on_c, 0, 69, 64
1, 160200, Note_on_c, 0, 35, 56
1, 160200, Note_on_c, 0, 47, 67
1, 160260, Note_on_c, 0, 69, 0
1, 160260, Note_on_c, 0, 81, 0
1, 160260, Note_on_c, 0, 83, 77
1, 160260, Note_on_c, 0, 71, 64
1, 160320, Tempo, 916031
1, 160320, Note_on_c, 0, 71, 0
1, 160320, Note_on_c, 0, 47, 0
1, 160320, Note_on_c, 0, 35, 0
1, 160320, Note_on_c, 0, 83, 0
1, 160320, Note_on_c, 0, 64, 78
1, 160320, Note_on_c, 0, 76, 92
1, 160320, Note_on_c, 0, 52, 70
1, 160320, Note_on_c, 0, 40, 60
1, 160339, Control_c, 0, 64, 0
1, 160440, Tempo, 705882
1, 160440, Note_on_c, 0, 40, 0
1, 160440, Note_on_c, 0, 52, 0
1, 160444, Control_c, 0, 64, 127
1, 160560, Tempo, 848057
1, 160680, Tempo, 789474
1, 160680, Note_on_c, 0, 59, 73
1, 160680, Note_on_c, 0, 56, 61
1, 160800, Tempo, 875912
1, 160800, Note_on_c, 0, 56, 0
1, 160800, Note_on_c, 0, 59, 0
1, 160800, Note_on_c, 0, 56, 64
1, 160800, Note_on_c, 0, 59, 78
1, 161040, Note_on_c, 0, 59, 0
1, 161040, Note_on_c, 0, 64, 0
1, 161040, Note_on_c, 0, 76, 0
1, 161040, Note_on_c, 0, 56, 0
1, 161160, Tempo, 983607
1, 161160, Note_on_c, 0, 63, 64
1, 161160, Note_on_c, 0, 75, 77
1, 161160, Note_on_c, 0, 47, 82
1, 161160, Note_on_c, 0, 35, 69
1, 161280, Tempo, 866426
1, 161280, Note_on_c, 0, 35, 0
1, 161280, Note_on_c, 0, 63, 0
1, 161280, Note_on_c, 0, 75, 0
1, 161280, Note_on_c, 0, 47, 0
1, 161280, Note_on_c, 0, 66, 72
1, 161280, Note_on_c, 0, 78, 88
1, 161280, Note_on_c, 0, 51, 92
1, 161280, Note_on_c, 0, 39, 78
1, 161286, Control_c, 0, 64, 0
1, 161376, Control_c, 0, 64, 127
1, 161400, Tempo, 718563
1, 161400, Note_on_c, 0, 39, 0
1, 161400, Note_on_c, 0, 51, 0
1, 161520, Tempo, 830450
1, 161640, Tempo, 766773
1, 161640, Note_on_c, 0, 59, 66
1, 161640, Note_on_c, 0, 57, 66
1, 161760, Tempo, 926641
1, 161760, Note_on_c, 0, 57, 0
1, 161760, Note_on_c, 0, 59, 0
1, 161760, Note_on_c, 0, 57, 70
1, 161760, Note_on_c, 0, 59, 70
1, 161840, Note_on_c, 0, 78, 0
1, 161840, Note_on_c, 0, 66, 0
1, 161840, Note_on_c, 0, 64, 64
1, 161840, Note_on_c, 0, 76, 77
1, 161880, Tempo, 839161
1, 161920, Note_on_c, 0, 76, 0
1, 161920, Note_on_c, 0, 64, 0
1, 161920, Note_on_c, 0, 66, 70
1, 161920, Note_on_c, 0, 78, 83
1, 162000, Tempo, 875912
1, 162000, Note_on_c, 0, 78, 0
1, 162000, Note_on_c, 0, 59, 0
1, 162000, Note_on_c, 0, 57, 0
1, 162000, Note_on_c, 0, 66, 0
1, 162000, Note_on_c, 0, 80, 82
1, 162000, Note_on_c, 0, 68, 69
1, 162080, Note_on_c, 0, 68, 0
1, 162080, Note_on_c, 0, 80, 0
1, 162080, Note_on_c, 0, 78, 78
1, 162080, Note_on_c, 0, 66, 66
1, 162120, Tempo, 848057
1, 162140, Note_on_c, 0, 66, 0
1, 162140, Note_on_c, 0, 78, 0
1, 162180, Tempo, 1528662
1, 162180, Note_on_c, 0, 35, 67
1, 162180, Note_on_c, 0, 47, 79
1, 162200, Note_on_c, 0, 64, 66
1, 162200, Note_on_c, 0, 76, 78
1, 162209, Control_c, 0, 64, 0
1, 162230, Note_on_c, 0, 76, 0
1, 162230, Note_on_c, 0, 64, 0
1, 162240, Tempo, 916031
1, 162240, Note_on_c, 0, 47, 0
1, 162240, Note_on_c, 0, 64, 77
1, 162240, Note_on_c, 0, 76, 92
1, 162240, Note_on_c, 0, 40, 70
1, 162240, Note_on_c, 0, 52, 84
1, 162249, Note_on_c, 0, 35, 0
1, 162321, Control_c, 0, 64, 127
1, 162360, Tempo, 705882
1, 162360, Note_on_c, 0, 40, 0
1, 162360, Note_on_c, 0, 52, 0
1, 162480, Tempo, 805369
1, 162600, Tempo, 752351
1, 162600, Note_on_c, 0, 59, 77
1, 162600, Note_on_c, 0, 56, 64
1, 162720, Tempo, 875912
1, 162720, Note_on_c, 0, 56, 0
1, 162720, Note_on_c, 0, 59, 0
1, 162720, Note_on_c, 0, 59, 82
1, 162720, Note_on_c, 0, 56, 68
1, 162960, Note_on_c, 0, 56, 0
1, 162960, Note_on_c, 0, 64, 0
1, 162960, Note_on_c, 0, 76, 0
1, 162960, Note_on_c, 0, 59, 0
1, 163080, Note_on_c, 0, 68, 70
1, 163080, Note_on_c, 0, 76, 70
1, 163080, Note_on_c, 0, 80, 83
1, 163080, Note_on_c, 0, 47, 82
1, 163080, Note_on_c, 0, 35, 69
1, 163170, Note_on_c, 0, 80, 0
1, 163170, Note_on_c, 0, 68, 0
1, 163170, Note_on_c, 0, 76, 0
1, 163200, Tempo, 766773
1, 163200, Note_on_c, 0, 47, 0
1, 163200, Note_on_c, 0, 35, 0
1, 163200, Note_on_c, 0, 80, 92
1, 163200, Note_on_c, 0, 76, 78
1, 163200, Note_on_c, 0, 68, 78
1, 163200, Note_on_c, 0, 52, 92
1, 163200, Note_on_c, 0, 40, 78
1, 163200, Control_c, 0, 64, 0
1, 163279, Control_c, 0, 64, 127
1, 163320, Note_on_c, 0, 40, 0
1, 163320, Note_on_c, 0, 52, 0
1, 163440, Tempo, 813559
1, 163680, Tempo, 830450
1, 163680, Note_on_c, 0, 80, 0
1, 163680, Note_on_c, 0, 76, 0
1, 163680, Note_on_c, 0, 68, 0
1, 163680, Note_on_c, 0, 68, 68
1, 163680, Note_on_c, 0, 80, 80
1, 163680, Note_on_c, 0, 64, 63
1, 163680, Note_on_c, 0, 52, 53
1, 163687, Control_c, 0, 64, 0
1, 163840, Tempo, 797342
1, 163840, Note_on_c, 0, 52, 0
1, 163840, Note_on_c, 0, 68, 0
1, 163840, Note_on_c, 0, 80, 0
1, 163840, Note_on_c, 0, 64, 0
1, 163840, Note_on_c, 0, 81, 82
1, 163840, Note_on_c, 0, 69, 69
1, 163840, Note_on_c, 0, 54, 56
1, 163840, Note_on_c, 0, 66, 66
1, 164000, Tempo, 766773
1, 164000, Note_on_c, 0, 66, 0
1, 164000, Note_on_c, 0, 81, 0
1, 164000, Note_on_c, 0, 69, 0
1, 164000, Note_on_c, 0, 54, 0
1, 164000, Note_on_c, 0, 83, 88
1, 164000, Note_on_c, 0, 71, 74
1, 164000, Note_on_c, 0, 56, 59
1, 164000, Note_on_c, 0, 68, 70
1, 164160, Tempo, 752351
1, 164160, Note_on_c, 0, 68, 0
1, 164160, Note_on_c, 0, 83, 0
1, 164160, Note_on_c, 0, 71, 0
1, 164160, Note_on_c, 0, 56, 0
1, 164160, Note_on_c, 0, 73, 66
1, 164160, Note_on_c, 0, 85, 92
1, 164160, Note_on_c, 0, 57, 51
1, 164160, Note_on_c, 0, 69, 73
1, 164222, Control_c, 0, 64, 127
1, 164640, Tempo, 875912
1, 164640, Note_on_c, 0, 69, 0
1, 164640, Note_on_c, 0, 73, 0
1, 164640, Note_on_c, 0, 85, 0
1, 164640, Note_on_c, 0, 57, 0
1, 164640, Note_on_c, 0, 61, 75
1, 164640, Note_on_c, 0, 64, 75
1, 164640, Note_on_c, 0, 73, 90
1, 164640, Note_on_c, 0, 45, 60
1, 164640, Note_on_c, 0, 57, 71
1, 164640, Note_on_c, 0, 52, 60
1, 164644, Control_c, 0, 64, 0
1, 164800, Tempo, 848057
1, 164800, Note_on_c, 0, 52, 0
1, 164800, Note_on_c, 0, 64, 0
1, 164800, Note_on_c, 0, 73, 0
1, 164800, Note_on_c, 0, 61, 0
1, 164800, Note_on_c, 0, 57, 0
1, 164800, Note_on_c, 0, 45, 0
1, 164800, Note_on_c, 0, 71, 84
1, 164800, Note_on_c, 0, 59, 71
1, 164800, Note_on_c, 0, 64, 71
1, 164800, Note_on_c, 0, 44, 56
1, 164800, Note_on_c, 0, 56, 67
1, 164800, Note_on_c, 0, 52, 56
1, 164960, Tempo, 813559
1, 164960, Note_on_c, 0, 52, 0
1, 164960, Note_on_c, 0, 59, 0
1, 164960, Note_on_c, 0, 64, 0
1, 164960, Note_on_c, 0, 71, 0
1, 164960, Note_on_c, 0, 56, 0
1, 164960, Note_on_c, 0, 44, 0
1, 164960, Note_on_c, 0, 64, 67
1, 164960, Note_on_c, 0, 70, 79
1, 164960, Note_on_c, 0, 58, 67
1, 164960, Note_on_c, 0, 52, 52
1, 164960, Note_on_c, 0, 43, 52
1, 164960, Note_on_c, 0, 55, 62
1, 165120, Tempo, 848057
1, 165120, Note_on_c, 0, 55, 0
1, 165120, Note_on_c, 0, 70, 0
1, 165120, Note_on_c, 0, 58, 0
1, 165120, Note_on_c, 0, 64, 0
1, 165120, Note_on_c, 0, 43, 0
1, 165120, Note_on_c, 0, 52, 0
1, 165120, Note_on_c, 0, 59, 78
1, 165120, Note_on_c, 0, 64, 78
1, 165120, Note_on_c, 0, 71, 92
1, 165120, Note_on_c, 0, 52, 71
1, 165120, Note_on_c, 0, 44, 71
1, 165120, Note_on_c, 0, 56, 84
1, 165120, Control_c, 0, 64, 0
1, 165600, Note_on_c, 0, 56, 0
1, 165600, Note_on_c, 0, 64, 0
1, 165600, Note_on_c, 0, 71, 0
1, 165600, Note_on_c, 0, 59, 0
1, 165600, Note_on_c, 0, 44, 0
1, 165600, Note_on_c, 0, 52, 0
1, 165600, Note_on_c, 0, 64, 77
1, 165600, Note_on_c, 0, 56, 77
1, 165600, Note_on_c, 0, 52, 77
1, 165600, Note_on_c, 0, 44, 71
1, 165600, Note_on_c, 0, 37, 71
1, 165600, Note_on_c, 0, 49, 84
1, 165960, Note_on_c, 0, 52, 0
1, 165960, Note_on_c, 0, 64, 0
1, 165960, Note_on_c, 0, 63, 77
1, 165960, Note_on_c, 0, 51, 77
1, 166073, Tempo, 866426
1, 166079, Control_c, 0, 64, 0
1, 166080, Note_on_c, 0, 51, 0
1, 166080, Note_on_c, 0, 49, 0
1, 166080, Note_on_c, 0, 37, 0
1, 166080, Note_on_c, 0, 56, 0
1, 166080, Note_on_c, 0, 63, 0
1, 166080, Note_on_c, 0, 44, 0
1, 166080, Note_on_c, 0, 63, 88
1, 166080, Note_on_c, 0, 51, 72
1, 166080, Note_on_c, 0, 57, 72
1, 166080, Note_on_c, 0, 42, 71
1, 166080, Note_on_c, 0, 35, 71
1, 166080, Note_on_c, 0, 45, 71
1, 166080, Note_on_c, 0, 47, 84
1, 166169, Control_c, 0, 64, 127
1, 166313, Tempo, 789474
1, 166553, Tempo, 926641
1, 166560, Tempo, 1021277
1, 166633, Note_on_c, 0, 64, 77
1, 166633, Note_on_c, 0, 52, 64
1, 166640, Note_on_c, 0, 57, 0
1, 166640, Note_on_c, 0, 63, 0
1, 166640, Note_on_c, 0, 51, 0
1, 166673, Tempo, 839161
1, 166680, Tempo, 916031
1, 166713, Note_on_c, 0, 64, 0
1, 166713, Note_on_c, 0, 52, 0
1, 166713, Note_on_c, 0, 54, 70
1, 166713, Note_on_c, 0, 66, 83
1, 166793, Note_on_c, 0, 66, 0
1, 166793, Note_on_c, 0, 54, 0
1, 166793, Note_on_c, 0, 68, 82
1, 166793, Note_on_c, 0, 56, 69
1, 166800, Note_on_c, 0, 45, 0
1, 166800, Note_on_c, 0, 35, 0
1, 166800, Note_on_c, 0, 47, 0
1, 166800, Note_on_c, 0, 42, 0
1, 166873, Note_on_c, 0, 56, 0
1, 166873, Note_on_c, 0, 68, 0
1, 166873, Note_on_c, 0, 66, 78
1, 166873, Note_on_c, 0, 54, 66
1, 166933, Note_on_c, 0, 54, 0
1, 166933, Note_on_c, 0, 66, 0
1, 166973, Tempo, 1528662
1, 166980, Note_on_c, 0, 28, 61
1, 166980, Note_on_c, 0, 40, 72
1, 166980, Control_c, 0, 64, 0
1, 166993, Note_on_c, 0, 52, 66
1, 166993, Note_on_c, 0, 64, 78
1, 167020, Note_on_c, 0, 40, 0
1, 167020, Note_on_c, 0, 28, 0
1, 167033, Tempo, 916031
1, 167033, Note_on_c, 0, 52, 0
1, 167033, Note_on_c, 0, 64, 0
1, 167040, Tempo, 875912
1, 167040, Note_on_c, 0, 64, 71
1, 167040, Note_on_c, 0, 52, 71
1, 167040, Note_on_c, 0, 40, 77
1, 167040, Note_on_c, 0, 28, 77
1, 167041, Tempo, 866426
1, 167120, Note_on_c, 0, 28, 0
1, 167120, Note_on_c, 0, 64, 0
1, 167120, Note_on_c, 0, 52, 0
1, 167120, Note_on_c, 0, 40, 0
1, 167120, Note_on_c, 0, 56, 72
1, 167120, Note_on_c, 0, 44, 68
1, 167139, Control_c, 0, 64, 127
1, 167161, Tempo, 857143
1, 167200, Note_on_c, 0, 44, 0
1, 167200, Note_on_c, 0, 56, 0
1, 167200, Note_on_c, 0, 59, 73
1, 167200, Note_on_c, 0, 47, 70
1, 167280, Note_on_c, 0, 47, 0
1, 167280, Note_on_c, 0, 59, 0
1, 167280, Note_on_c, 0, 64, 74
1, 167280, Note_on_c, 0, 52, 71
1, 167281, Tempo, 848057
1, 167360, Note_on_c, 0, 52, 0
1, 167360, Note_on_c, 0, 64, 0
1, 167360, Note_on_c, 0, 68, 75
1, 167360, Note_on_c, 0, 56, 73
1, 167401, Tempo, 839161
1, 167440, Note_on_c, 0, 56, 0
1, 167440, Note_on_c, 0, 68, 0
1, 167440, Note_on_c, 0, 71, 75
1, 167440, Note_on_c, 0, 59, 75
1, 167485, Tempo, 830450
1, 167520, Note_on_c, 0, 59, 0
1, 167520, Note_on_c, 0, 71, 0
1, 167520, Note_on_c, 0, 76, 77
1, 167520, Note_on_c, 0, 64, 78
1, 167581, Tempo, 839161
1, 167600, Note_on_c, 0, 64, 0
1, 167600, Note_on_c, 0, 76, 0
1, 167600, Note_on_c, 0, 80, 78
1, 167600, Note_on_c, 0, 59, 79
1, 167677, Tempo, 848057
1, 167680, Note_on_c, 0, 59, 0
1, 167680, Note_on_c, 0, 80, 0
1, 167680, Note_on_c, 0, 83, 79
1, 167680, Note_on_c, 0, 56, 81
1, 167760, Note_on_c, 0, 56, 0
1, 167760, Note_on_c, 0, 83, 0
1, 167760, Note_on_c, 0, 88, 80
1, 167760, Note_on_c, 0, 52, 82
1, 167773, Tempo, 857143
1, 167840, Note_on_c, 0, 52, 0
1, 167840, Note_on_c, 0, 88, 0
1, 167840, Note_on_c, 0, 92, 81
1, 167840, Note_on_c, 0, 47, 84
1, 167869, Tempo, 866426
1, 167920, Note_on_c, 0, 47, 0
1, 167920, Note_on_c, 0, 92, 0
1, 167920, Note_on_c, 0, 95, 82
1, 167920, Note_on_c, 0, 44, 86
1, 167953, Tempo, 875912
1, 167965, Tempo, 885609
1, 168000, Note_on_c, 0, 44, 0
1, 168000, Note_on_c, 0, 95, 0
1, 168000, Note_on_c, 0, 92, 93
1, 168000, Note_on_c, 0, 88, 93
1, 168000, Note_on_c, 0, 100, 93
1, 168000, Note_on_c, 0, 40, 84
1, 168000, Note_on_c, 0, 52, 84
1, 168000, Note_on_c, 0, 47, 84
1, 168003, Control_c, 0, 64, 0
1, 168120, Note_on_c, 0, 47, 0
1, 168120, Note_on_c, 0, 88, 0
1, 168120, Note_on_c, 0, 100, 0
1, 168120, Note_on_c, 0, 92, 0
1, 168120, Note_on_c, 0, 52, 0
1, 168120, Note_on_c, 0, 40, 0
1, 168840, Tempo, 983607
1, 168840, Note_on_c, 0, 32, 58
1, 168840, Note_on_c, 0, 44, 69
1, 168960, Tempo, 866426
1, 168960, Note_on_c, 0, 44, 0
1, 168960, Note_on_c, 0, 32, 0
1, 168960, Note_on_c, 0, 80, 86
1, 168960, Note_on_c, 0, 88, 103
1, 168960, Note_on_c, 0, 76, 86
1, 168960, Note_on_c, 0, 85, 86
1, 168960, Note_on_c, 0, 49, 78
1, 168960, Note_on_c, 0, 37, 66
1, 168985, Control_c, 0, 64, 127
1, 169080, Tempo, 718563
1, 169080, Note_on_c, 0, 37, 0
1, 169080, Note_on_c, 0, 49, 0
1, 169200, Tempo, 848057
1, 169320, Tempo, 752351
1, 169320, Note_on_c, 0, 61, 55
1, 169320, Note_on_c, 0, 64, 55
1, 169320, Note_on_c, 0, 68, 78
1, 169320, Note_on_c, 0, 56, 55
1, 169410, Note_on_c, 0, 56, 0
1, 169410, Note_on_c, 0, 68, 0
1, 169410, Note_on_c, 0, 61, 0
1, 169410, Note_on_c, 0, 64, 0
1, 169440, Tempo, 875912
1, 169440, Note_on_c, 0, 56, 60
1, 169440, Note_on_c, 0, 64, 60
1, 169440, Note_on_c, 0, 68, 84
1, 169440, Note_on_c, 0, 61, 60
1, 169680, Note_on_c, 0, 61, 0
1, 169680, Note_on_c, 0, 68, 0
1, 169680, Note_on_c, 0, 56, 0
1, 169680, Note_on_c, 0, 64, 0
1, 169800, Tempo, 848057
1, 169800, Note_on_c, 0, 80, 0
1, 169800, Note_on_c, 0, 85, 0
1, 169800, Note_on_c, 0, 88, 0
1, 169800, Note_on_c, 0, 76, 0
1, 169800, Note_on_c, 0, 90, 80
1, 169800, Note_on_c, 0, 78, 67
1, 169800, Note_on_c, 0, 32, 56
1, 169800, Note_on_c, 0, 44, 67
1, 169860, Note_on_c, 0, 78, 0
1, 169860, Note_on_c, 0, 90, 0
1, 169860, Note_on_c, 0, 80, 67
1, 169860, Note_on_c, 0, 92, 80
1, 169920, Tempo, 916031
1, 169920, Note_on_c, 0, 92, 0
1, 169920, Note_on_c, 0, 44, 0
1, 169920, Note_on_c, 0, 32, 0
1, 169920, Note_on_c, 0, 80, 0
1, 169920, Note_on_c, 0, 85, 96
1, 169920, Note_on_c, 0, 73, 81
1, 169920, Note_on_c, 0, 49, 70
1, 169920, Note_on_c, 0, 37, 60
1, 169939, Control_c, 0, 64, 0
1, 170040, Tempo, 705882
1, 170040, Note_on_c, 0, 37, 0
1, 170040, Note_on_c, 0, 49, 0
1, 170044, Control_c, 0, 64, 127
1, 170160, Tempo, 848057
1, 170280, Tempo, 781759
1, 170280, Note_on_c, 0, 64, 61
1, 170280, Note_on_c, 0, 56, 61
1, 170280, Note_on_c, 0, 61, 61
1, 170280, Note_on_c, 0, 68, 73
1, 170370, Note_on_c, 0, 68, 0
1, 170370, Note_on_c, 0, 56, 0
1, 170370, Note_on_c, 0, 64, 0
1, 170370, Note_on_c, 0, 61, 0
1, 170400, Tempo, 875912
1, 170400, Note_on_c, 0, 68, 78
1, 170400, Note_on_c, 0, 56, 64
1, 170400, Note_on_c, 0, 61, 64
1, 170400, Note_on_c, 0, 64, 64
1, 170640, Note_on_c, 0, 64, 0
1, 170640, Note_on_c, 0, 56, 0
1, 170640, Note_on_c, 0, 68, 0
1, 170640, Note_on_c, 0, 61, 0
1, 170760, Tempo, 983607
1, 170760, Note_on_c, 0, 73, 0
1, 170760, Note_on_c, 0, 85, 0
1, 170760, Note_on_c, 0, 84, 80
1, 170760, Note_on_c, 0, 72, 67
1, 170760, Note_on_c, 0, 32, 69
1, 170760, Note_on_c, 0, 44, 82
1, 170880, Tempo, 866426
1, 170880, Note_on_c, 0, 44, 0
1, 170880, Note_on_c, 0, 84, 0
1, 170880, Note_on_c, 0, 72, 0
1, 170880, Note_on_c, 0, 32, 0
1, 170880, Note_on_c, 0, 75, 75
1, 170880, Note_on_c, 0, 87, 92
1, 170880, Note_on_c, 0, 48, 92
1, 170880, Note_on_c, 0, 36, 78
1, 170886, Control_c, 0, 64, 0
1, 170976, Control_c, 0, 64, 127
1, 171000, Tempo, 718563
1, 171000, Note_on_c, 0, 36, 0
1, 171000, Note_on_c, 0, 48, 0
1, 171120, Tempo, 830450
1, 171240, Tempo, 774194
1, 171240, Note_on_c, 0, 68, 66
1, 171240, Note_on_c, 0, 66, 66
1, 171240, Note_on_c, 0, 63, 66
1, 171240, Note_on_c, 0, 56, 66
1, 171330, Note_on_c, 0, 56, 0
1, 171330, Note_on_c, 0, 66, 0
1, 171330, Note_on_c, 0, 68, 0
1, 171330, Note_on_c, 0, 63, 0
1, 171360, Tempo, 926641
1, 171360, Note_on_c, 0, 56, 70
1, 171360, Note_on_c, 0, 66, 70
1, 171360, Note_on_c, 0, 63, 70
1, 171360, Note_on_c, 0, 68, 70
1, 171440, Note_on_c, 0, 75, 0
1, 171440, Note_on_c, 0, 87, 0
1, 171440, Note_on_c, 0, 73, 67
1, 171440, Note_on_c, 0, 85, 80
1, 171480, Tempo, 839161
1, 171520, Note_on_c, 0, 85, 0
1, 171520, Note_on_c, 0, 73, 0
1, 171520, Note_on_c, 0, 75, 73
1, 171520, Note_on_c, 0, 87, 86
1, 171600, Tempo, 875912
1, 171600, Note_on_c, 0, 87, 0
1, 171600, Note_on_c, 0, 68, 0
1, 171600, Note_on_c, 0, 63, 0
1, 171600, Note_on_c, 0, 66, 0
1, 171600, Note_on_c, 0, 75, 0
1, 171600, Note_on_c, 0, 56, 0
1, 171600, Note_on_c, 0, 88, 85
1, 171600, Note_on_c, 0, 76, 72
1, 171680, Note_on_c, 0, 76, 0
1, 171680, Note_on_c, 0, 88, 0
1, 171680, Note_on_c, 0, 87, 81
1, 171680, Note_on_c, 0, 75, 69
1, 171720, Tempo, 848057
1, 171740, Note_on_c, 0, 75, 0
1, 171740, Note_on_c, 0, 87, 0
1, 171780, Tempo, 1528662
1, 171780, Note_on_c, 0, 32, 67
1, 171780, Note_on_c, 0, 44, 79
1, 171800, Note_on_c, 0, 73, 69
1, 171800, Note_on_c, 0, 85, 81
1, 171816, Control_c, 0, 64, 0
1, 171830, Note_on_c, 0, 85, 0
1, 171830, Note_on_c, 0, 73, 0
1, 171840, Tempo, 916031
1, 171840, Note_on_c, 0, 44, 0
1, 171840, Note_on_c, 0, 32, 0
1, 171840, Note_on_c, 0, 73, 80
1, 171840, Note_on_c, 0, 85, 96
1, 171840, Note_on_c, 0, 49, 84
1, 171840, Note_on_c, 0, 37, 70
1, 171921, Control_c, 0, 64, 127
1, 171960, Tempo, 705882
1, 171960, Note_on_c, 0, 37, 0
1, 171960, Note_on_c, 0, 49, 0
1, 172080, Tempo, 839161
1, 172200, Note_on_c, 0, 56, 64
1, 172200, Note_on_c, 0, 64, 64
1, 172200, Note_on_c, 0, 61, 64
1, 172200, Note_on_c, 0, 68, 77
1, 172290, Note_on_c, 0, 68, 0
1, 172290, Note_on_c, 0, 64, 0
1, 172290, Note_on_c, 0, 56, 0
1, 172290, Note_on_c, 0, 61, 0
1, 172320, Tempo, 875912
1, 172320, Note_on_c, 0, 68, 82
1, 172320, Note_on_c, 0, 64, 68
1, 172320, Note_on_c, 0, 61, 68
1, 172320, Note_on_c, 0, 56, 68
1, 172560, Note_on_c, 0, 56, 0
1, 172560, Note_on_c, 0, 73, 0
1, 172560, Note_on_c, 0, 68, 0
1, 172560, Note_on_c, 0, 85, 0
1, 172560, Note_on_c, 0, 61, 0
1, 172560, Note_on_c, 0, 64, 0
1, 172677, Control_c, 0, 64, 0
1, 172680, Tempo, 983607
1, 172740, Note_on_c, 0, 29, 69
1, 172740, Note_on_c, 0, 53, 82
1, 172740, Note_on_c, 0, 41, 69
1, 172800, Tempo, 866426
1, 172800, Note_on_c, 0, 41, 0
1, 172800, Note_on_c, 0, 53, 0
1, 172800, Note_on_c, 0, 29, 0
1, 172800, Note_on_c, 0, 42, 78
1, 172800, Note_on_c, 0, 54, 92
1, 172800, Note_on_c, 0, 30, 78
1, 172888, Control_c, 0, 64, 127
1, 173280, Tempo, 699708
1, 173520, Note_on_c, 0, 30, 0
1, 173520, Note_on_c, 0, 54, 0
1, 173520, Note_on_c, 0, 42, 0
1, 173700, Note_on_c, 0, 85, 80
1, 173700, Note_on_c, 0, 73, 68
1, 173700, Note_on_c, 0, 81, 68
1, 173700, Note_on_c, 0, 57, 53
1, 173700, Note_on_c, 0, 69, 63
1, 173700, Note_on_c, 0, 61, 53
1, 173760, Tempo, 738462
1, 173760, Note_on_c, 0, 61, 0
1, 173760, Note_on_c, 0, 73, 0
1, 173760, Note_on_c, 0, 81, 0
1, 173760, Note_on_c, 0, 85, 0
1, 173760, Note_on_c, 0, 69, 0
1, 173760, Note_on_c, 0, 57, 0
1, 173760, Note_on_c, 0, 81, 74
1, 173760, Note_on_c, 0, 85, 89
1, 173760, Note_on_c, 0, 73, 74
1, 173760, Note_on_c, 0, 57, 59
1, 173760, Note_on_c, 0, 69, 70
1, 173760, Note_on_c, 0, 61, 59
1, 173940, Note_on_c, 0, 61, 0
1, 173940, Note_on_c, 0, 85, 0
1, 173940, Note_on_c, 0, 73, 0
1, 173940, Note_on_c, 0, 81, 0
1, 173940, Note_on_c, 0, 69, 0
1, 173940, Note_on_c, 0, 57, 0
1, 173940, Note_on_c, 0, 71, 67
1, 173940, Note_on_c, 0, 80, 67
1, 173940, Note_on_c, 0, 83, 79
1, 173940, Note_on_c, 0, 56, 52
1, 173940, Note_on_c, 0, 68, 62
1, 173940, Note_on_c, 0, 59, 52
1, 174000, Note_on_c, 0, 59, 0
1, 174000, Note_on_c, 0, 80, 0
1, 174000, Note_on_c, 0, 83, 0
1, 174000, Note_on_c, 0, 71, 0
1, 174000, Note_on_c, 0, 68, 0
1, 174000, Note_on_c, 0, 56, 0
1, 174000, Note_on_c, 0, 80, 73
1, 174000, Note_on_c, 0, 83, 86
1, 174000, Note_on_c, 0, 71, 73
1, 174000, Note_on_c, 0, 56, 58
1, 174000, Note_on_c, 0, 68, 69
1, 174000, Note_on_c, 0, 59, 58
1, 174120, Tempo, 885609
1, 174180, Note_on_c, 0, 59, 0
1, 174180, Note_on_c, 0, 83, 0
1, 174180, Note_on_c, 0, 71, 0
1, 174180, Note_on_c, 0, 80, 0
1, 174180, Note_on_c, 0, 68, 0
1, 174180, Note_on_c, 0, 56, 0
1, 174180, Note_on_c, 0, 81, 79
1, 174180, Note_on_c, 0, 69, 67
1, 174180, Note_on_c, 0, 78, 67
1, 174180, Note_on_c, 0, 54, 52
1, 174180, Note_on_c, 0, 66, 62
1, 174180, Note_on_c, 0, 57, 52
1, 174240, Note_on_c, 0, 57, 0
1, 174240, Note_on_c, 0, 69, 0
1, 174240, Note_on_c, 0, 78, 0
1, 174240, Note_on_c, 0, 81, 0
1, 174240, Note_on_c, 0, 66, 0
1, 174240, Note_on_c, 0, 54, 0
1, 174240, Note_on_c, 0, 81, 86
1, 174240, Note_on_c, 0, 69, 73
1, 174240, Note_on_c, 0, 78, 73
1, 174240, Note_on_c, 0, 54, 58
1, 174240, Note_on_c, 0, 66, 69
1, 174240, Note_on_c, 0, 57, 58
1, 174283, Control_c, 0, 64, 0
1, 174480, Note_on_c, 0, 57, 0
1, 174480, Note_on_c, 0, 69, 0
1, 174480, Note_on_c, 0, 78, 0
1, 174480, Note_on_c, 0, 81, 0
1, 174480, Note_on_c, 0, 66, 0
1, 174480, Note_on_c, 0, 54, 0
1, 174660, Tempo, 983607
1, 174660, Note_on_c, 0, 61, 82
1, 174660, Note_on_c, 0, 49, 69
1, 174660, Note_on_c, 0, 37, 69
1, 174720, Tempo, 866426
1, 174720, Note_on_c, 0, 37, 0
1, 174720, Note_on_c, 0, 49, 0
1, 174720, Note_on_c, 0, 61, 0
1, 174720, Note_on_c, 0, 62, 92
1, 174720, Note_on_c, 0, 50, 78
1, 174720, Note_on_c, 0, 38, 78
1, 174808, Control_c, 0, 64, 127
1, 175200, Tempo, 699708
1, 175440, Note_on_c, 0, 38, 0
1, 175440, Note_on_c, 0, 50, 0
1, 175440, Note_on_c, 0, 62, 0
1, 175620, Note_on_c, 0, 78, 68
1, 175620, Note_on_c, 0, 81, 68
1, 175620, Note_on_c, 0, 90, 80
1, 175620, Note_on_c, 0, 69, 63
1, 175620, Note_on_c, 0, 66, 53
1, 175665, Note_on_c, 0, 66, 0
1, 175665, Note_on_c, 0, 90, 0
1, 175665, Note_on_c, 0, 78, 0
1, 175665, Note_on_c, 0, 81, 0
1, 175665, Note_on_c, 0, 69, 0
1, 175680, Tempo, 738462
1, 175680, Note_on_c, 0, 90, 89
1, 175680, Note_on_c, 0, 81, 74
1, 175680, Note_on_c, 0, 78, 74
1, 175680, Note_on_c, 0, 66, 59
1, 175680, Note_on_c, 0, 69, 70
1, 175860, Note_on_c, 0, 69, 0
1, 175860, Note_on_c, 0, 78, 0
1, 175860, Note_on_c, 0, 90, 0
1, 175860, Note_on_c, 0, 81, 0
1, 175860, Note_on_c, 0, 66, 0
1, 175860, Note_on_c, 0, 76, 67
1, 175860, Note_on_c, 0, 88, 79
1, 175860, Note_on_c, 0, 80, 67
1, 175860, Note_on_c, 0, 68, 62
1, 175860, Note_on_c, 0, 64, 52
1, 175905, Note_on_c, 0, 64, 0
1, 175905, Note_on_c, 0, 80, 0
1, 175905, Note_on_c, 0, 76, 0
1, 175905, Note_on_c, 0, 88, 0
1, 175905, Note_on_c, 0, 68, 0
1, 175920, Note_on_c, 0, 76, 73
1, 175920, Note_on_c, 0, 88, 86
1, 175920, Note_on_c, 0, 80, 73
1, 175920, Note_on_c, 0, 68, 69
1, 175920, Note_on_c, 0, 64, 58
1, 176040, Tempo, 885609
1, 176100, Note_on_c, 0, 64, 0
1, 176100, Note_on_c, 0, 80, 0
1, 176100, Note_on_c, 0, 76, 0
1, 176100, Note_on_c, 0, 88, 0
1, 176100, Note_on_c, 0, 68, 0
1, 176100, Note_on_c, 0, 78, 67
1, 176100, Note_on_c, 0, 74, 67
1, 176100, Note_on_c, 0, 86, 79
1, 176100, Note_on_c, 0, 62, 52
1, 176100, Note_on_c, 0, 66, 62
1, 176145, Note_on_c, 0, 66, 0
1, 176145, Note_on_c, 0, 86, 0
1, 176145, Note_on_c, 0, 78, 0
1, 176145, Note_on_c, 0, 74, 0
1, 176145, Note_on_c, 0, 62, 0
1, 176160, Note_on_c, 0, 74, 73
1, 176160, Note_on_c, 0, 78, 73
1, 176160, Note_on_c, 0, 86, 86
1, 176160, Note_on_c, 0, 66, 69
1, 176160, Note_on_c, 0, 62, 58
1, 176203, Control_c, 0, 64, 0
1, 176400, Note_on_c, 0, 62, 0
1, 176400, Note_on_c, 0, 86, 0
1, 176400, Note_on_c, 0, 74, 0
1, 176400, Note_on_c, 0, 78, 0
1, 176400, Note_on_c, 0, 66, 0
1, 176580, Tempo, 983607
1, 176580, Note_on_c, 0, 58, 82
1, 176580, Note_on_c, 0, 34, 69
1, 176580, Note_on_c, 0, 46, 69
1, 176640, Tempo, 839161
1, 176640, Note_on_c, 0, 46, 0
1, 176640, Note_on_c, 0, 34, 0
1, 176640, Note_on_c, 0, 58, 0
1, 176640, Note_on_c, 0, 59, 92
1, 176640, Note_on_c, 0, 47, 78
1, 176640, Note_on_c, 0, 35, 78
1, 176760, Control_c, 0, 64, 127
1, 177060, Tempo, 712166
1, 177060, Note_on_c, 0, 90, 68
1, 177060, Note_on_c, 0, 93, 80
1, 177060, Note_on_c, 0, 85, 68
1, 177060, Note_on_c, 0, 57, 53
1, 177060, Note_on_c, 0, 69, 63
1, 177060, Note_on_c, 0, 66, 53
1, 177105, Note_on_c, 0, 66, 0
1, 177105, Note_on_c, 0, 90, 0
1, 177105, Note_on_c, 0, 69, 0
1, 177105, Note_on_c, 0, 93, 0
1, 177105, Note_on_c, 0, 57, 0
1, 177105, Note_on_c, 0, 85, 0
1, 177120, Tempo, 699708
1, 177120, Note_on_c, 0, 59, 0
1, 177120, Note_on_c, 0, 35, 0
1, 177120, Note_on_c, 0, 47, 0
1, 177120, Note_on_c, 0, 93, 89
1, 177120, Note_on_c, 0, 85, 74
1, 177120, Note_on_c, 0, 90, 74
1, 177120, Note_on_c, 0, 66, 59
1, 177120, Note_on_c, 0, 69, 70
1, 177120, Note_on_c, 0, 57, 59
1, 177300, Note_on_c, 0, 57, 0
1, 177300, Note_on_c, 0, 85, 0
1, 177300, Note_on_c, 0, 90, 0
1, 177300, Note_on_c, 0, 93, 0
1, 177300, Note_on_c, 0, 69, 0
1, 177300, Note_on_c, 0, 66, 0
1, 177300, Note_on_c, 0, 92, 79
1, 177300, Note_on_c, 0, 80, 67
1, 177300, Note_on_c, 0, 88, 67
1, 177300, Note_on_c, 0, 68, 62
1, 177300, Note_on_c, 0, 56, 52
1, 177300, Note_on_c, 0, 64, 52
1, 177345, Note_on_c, 0, 64, 0
1, 177345, Note_on_c, 0, 80, 0
1, 177345, Note_on_c, 0, 88, 0
1, 177345, Note_on_c, 0, 92, 0
1, 177345, Note_on_c, 0, 56, 0
1, 177345, Note_on_c, 0, 68, 0
1, 177360, Note_on_c, 0, 88, 73
1, 177360, Note_on_c, 0, 92, 86
1, 177360, Note_on_c, 0, 80, 73
1, 177360, Note_on_c, 0, 68, 69
1, 177360, Note_on_c, 0, 56, 58
1, 177360, Note_on_c, 0, 64, 58
1, 177540, Tempo, 1804511
1, 177540, Note_on_c, 0, 64, 0
1, 177540, Note_on_c, 0, 92, 0
1, 177540, Note_on_c, 0, 80, 0
1, 177540, Note_on_c, 0, 88, 0
1, 177540, Note_on_c, 0, 56, 0
1, 177540, Note_on_c, 0, 68, 0
1, 177540, Note_on_c, 0, 78, 67
1, 177540, Note_on_c, 0, 87, 67
1, 177540, Note_on_c, 0, 90, 79
1, 177540, Note_on_c, 0, 66, 62
1, 177540, Note_on_c, 0, 54, 52
1, 177540, Note_on_c, 0, 63, 52
1, 177600, Tempo, 821918
1, 177600, Note_on_c, 0, 63, 0
1, 177600, Note_on_c, 0, 87, 0
1, 177600, Note_on_c, 0, 90, 0
1, 177600, Note_on_c, 0, 78, 0
1, 177600, Note_on_c, 0, 54, 0
1, 177600, Note_on_c, 0, 66, 0
1, 177600, Note_on_c, 0, 60, 92
1, 177600, Note_on_c, 0, 36, 78
1, 177600, Note_on_c, 0, 48, 78
1, 177602, Control_c, 0, 64, 0
1, 177657, Control_c, 0, 64, 127
1, 178020, Tempo, 712166
1, 178020, Note_on_c, 0, 90, 68
1, 178020, Note_on_c, 0, 93, 80
1, 178020, Note_on_c, 0, 85, 68
1, 178020, Note_on_c, 0, 66, 53
1, 178020, Note_on_c, 0, 57, 53
1, 178020, Note_on_c, 0, 69, 63
1, 178065, Note_on_c, 0, 69, 0
1, 178065, Note_on_c, 0, 90, 0
1, 178065, Note_on_c, 0, 57, 0
1, 178065, Note_on_c, 0, 93, 0
1, 178065, Note_on_c, 0, 66, 0
1, 178065, Note_on_c, 0, 85, 0
1, 178080, Tempo, 699708
1, 178080, Note_on_c, 0, 60, 0
1, 178080, Note_on_c, 0, 48, 0
1, 178080, Note_on_c, 0, 36, 0
1, 178080, Note_on_c, 0, 93, 89
1, 178080, Note_on_c, 0, 85, 74
1, 178080, Note_on_c, 0, 90, 74
1, 178080, Note_on_c, 0, 66, 59
1, 178080, Note_on_c, 0, 57, 59
1, 178080, Note_on_c, 0, 69, 70
1, 178260, Note_on_c, 0, 69, 0
1, 178260, Note_on_c, 0, 85, 0
1, 178260, Note_on_c, 0, 90, 0
1, 178260, Note_on_c, 0, 93, 0
1, 178260, Note_on_c, 0, 57, 0
1, 178260, Note_on_c, 0, 66, 0
1, 178260, Note_on_c, 0, 88, 67
1, 178260, Note_on_c, 0, 92, 79
1, 178260, Note_on_c, 0, 80, 67
1, 178260, Note_on_c, 0, 64, 52
1, 178260, Note_on_c, 0, 56, 52
1, 178260, Note_on_c, 0, 68, 62
1, 178305, Note_on_c, 0, 68, 0
1, 178305, Note_on_c, 0, 92, 0
1, 178305, Note_on_c, 0, 80, 0
1, 178305, Note_on_c, 0, 88, 0
1, 178305, Note_on_c, 0, 56, 0
1, 178305, Note_on_c, 0, 64, 0
1, 178320, Note_on_c, 0, 80, 73
1, 178320, Note_on_c, 0, 88, 73
1, 178320, Note_on_c, 0, 92, 86
1, 178320, Note_on_c, 0, 64, 58
1, 178320, Note_on_c, 0, 56, 58
1, 178320, Note_on_c, 0, 68, 69
1, 178500, Tempo, 1690141
1, 178500, Note_on_c, 0, 68, 0
1, 178500, Note_on_c, 0, 88, 0
1, 178500, Note_on_c, 0, 92, 0
1, 178500, Note_on_c, 0, 80, 0
1, 178500, Note_on_c, 0, 56, 0
1, 178500, Note_on_c, 0, 64, 0
1, 178500, Note_on_c, 0, 90, 79
1, 178500, Note_on_c, 0, 78, 67
1, 178500, Note_on_c, 0, 87, 67
1, 178500, Note_on_c, 0, 63, 52
1, 178500, Note_on_c, 0, 54, 52
1, 178500, Note_on_c, 0, 66, 62
1, 178560, Time_signature, 9, 2, 24, 8
1, 178560, Tempo, 821918
1, 178560, Note_on_c, 0, 66, 0
1, 178560, Note_on_c, 0, 78, 0
1, 178560, Note_on_c, 0, 87, 0
1, 178560, Note_on_c, 0, 90, 0
1, 178560, Note_on_c, 0, 54, 0
1, 178560, Note_on_c, 0, 63, 0
1, 178560, Note_on_c, 0, 55, 101
1, 178560, Note_on_c, 0, 43, 78
1, 178560, Note_on_c, 0, 31, 78
1, 178562, Control_c, 0, 64, 0
1, 178680, Control_c, 0, 64, 127
1, 178980, Tempo, 983607
1, 178980, Note_on_c, 0, 88, 57
1, 178980, Note_on_c, 0, 100, 80
1, 178980, Note_on_c, 0, 91, 57
1, 178980, Note_on_c, 0, 82, 63
1, 178980, Note_on_c, 0, 79, 53
1, 178980, Note_on_c, 0, 70, 45
1, 179025, Note_on_c, 0, 70, 0
1, 179025, Note_on_c, 0, 88, 0
1, 179025, Note_on_c, 0, 79, 0
1, 179025, Note_on_c, 0, 100, 0
1, 179025, Note_on_c, 0, 82, 0
1, 179025, Note_on_c, 0, 91, 0
1, 179034, Tempo, 774194
1, 179040, Note_on_c, 0, 55, 0
1, 179040, Note_on_c, 0, 31, 0
1, 179040, Note_on_c, 0, 43, 0
1, 179040, Note_on_c, 0, 100, 89
1, 179040, Note_on_c, 0, 88, 74
1, 179040, Note_on_c, 0, 91, 74
1, 179040, Note_on_c, 0, 82, 70
1, 179040, Note_on_c, 0, 79, 59
1, 179040, Note_on_c, 0, 70, 49
1, 179142, Tempo, 766773
1, 179220, Note_on_c, 0, 70, 0
1, 179220, Note_on_c, 0, 88, 0
1, 179220, Note_on_c, 0, 91, 0
1, 179220, Note_on_c, 0, 100, 0
1, 179220, Note_on_c, 0, 79, 0
1, 179220, Note_on_c, 0, 82, 0
1, 179220, Note_on_c, 0, 90, 56
1, 179220, Note_on_c, 0, 99, 79
1, 179220, Note_on_c, 0, 87, 56
1, 179220, Note_on_c, 0, 81, 62
1, 179220, Note_on_c, 0, 78, 52
1, 179220, Note_on_c, 0, 69, 44
1, 179250, Tempo, 759494
1, 179265, Note_on_c, 0, 69, 0
1, 179265, Note_on_c, 0, 99, 0
1, 179265, Note_on_c, 0, 87, 0
1, 179265, Note_on_c, 0, 90, 0
1, 179265, Note_on_c, 0, 78, 0
1, 179265, Note_on_c, 0, 81, 0
1, 179280, Note_on_c, 0, 87, 74
1, 179280, Note_on_c, 0, 90, 74
1, 179280, Note_on_c, 0, 99, 89
1, 179280, Note_on_c, 0, 81, 69
1, 179280, Note_on_c, 0, 78, 58
1, 179280, Note_on_c, 0, 69, 49
1, 179358, Tempo, 752351
1, 179460, Note_on_c, 0, 69, 0
1, 179460, Note_on_c, 0, 90, 0
1, 179460, Note_on_c, 0, 99, 0
1, 179460, Note_on_c, 0, 87, 0
1, 179460, Note_on_c, 0, 78, 0
1, 179460, Note_on_c, 0, 81, 0
1, 179460, Note_on_c, 0, 97, 83
1, 179460, Note_on_c, 0, 88, 70
1, 179460, Note_on_c, 0, 85, 70
1, 179460, Note_on_c, 0, 79, 62
1, 179460, Note_on_c, 0, 76, 52
1, 179460, Note_on_c, 0, 67, 44
1, 179466, Tempo, 745342
1, 179505, Note_on_c, 0, 67, 0
1, 179505, Note_on_c, 0, 88, 0
1, 179505, Note_on_c, 0, 85, 0
1, 179505, Note_on_c, 0, 97, 0
1, 179505, Note_on_c, 0, 76, 0
1, 179505, Note_on_c, 0, 79, 0
1, 179520, Note_on_c, 0, 97, 90
1, 179520, Note_on_c, 0, 85, 75
1, 179520, Note_on_c, 0, 88, 75
1, 179520, Note_on_c, 0, 76, 69
1, 179520, Note_on_c, 0, 79, 69
1, 179520, Note_on_c, 0, 67, 58
1, 179526, Tempo, 731707
1, 179622, Tempo, 725076
1, 179700, Note_on_c, 0, 67, 0
1, 179700, Note_on_c, 0, 85, 0
1, 179700, Note_on_c, 0, 88, 0
1, 179700, Note_on_c, 0, 97, 0
1, 179700, Note_on_c, 0, 79, 0
1, 179700, Note_on_c, 0, 76, 0
1, 179700, Note_on_c, 0, 94, 79
1, 179700, Note_on_c, 0, 82, 67
1, 179700, Note_on_c, 0, 85, 67
1, 179700, Note_on_c, 0, 73, 62
1, 179700, Note_on_c, 0, 76, 62
1, 179700, Note_on_c, 0, 64, 52
1, 179718, Tempo, 718563
1, 179745, Note_on_c, 0, 64, 0
1, 179745, Note_on_c, 0, 82, 0
1, 179745, Note_on_c, 0, 85, 0
1, 179745, Note_on_c, 0, 94, 0
1, 179745, Note_on_c, 0, 76, 0
1, 179745, Note_on_c, 0, 73, 0
1, 179760, Note_on_c, 0, 82, 74
1, 179760, Note_on_c, 0, 85, 74
1, 179760, Note_on_c, 0, 94, 88
1, 179760, Note_on_c, 0, 73, 69
1, 179760, Note_on_c, 0, 76, 69
1, 179760, Note_on_c, 0, 64, 58
1, 179814, Tempo, 712166
1, 179910, Tempo, 705882
1, 179940, Note_on_c, 0, 64, 0
1, 179940, Note_on_c, 0, 85, 0
1, 179940, Note_on_c, 0, 94, 0
1, 179940, Note_on_c, 0, 82, 0
1, 179940, Note_on_c, 0, 76, 0
1, 179940, Note_on_c, 0, 73, 0
1, 179940, Note_on_c, 0, 84, 67
1, 179940, Note_on_c, 0, 81, 67
1, 179940, Note_on_c, 0, 93, 79
1, 179940, Note_on_c, 0, 72, 62
1, 179940, Note_on_c, 0, 75, 62
1, 179940, Note_on_c, 0, 63, 52
1, 179958, Tempo, 687679
1, 179970, Tempo, 687679
1, 179985, Note_on_c, 0, 63, 0
1, 179985, Note_on_c, 0, 81, 0
1, 179985, Note_on_c, 0, 93, 0
1, 179985, Note_on_c, 0, 84, 0
1, 179985, Note_on_c, 0, 75, 0
1, 179985, Note_on_c, 0, 72, 0
1, 180000, Note_on_c, 0, 81, 74
1, 180000, Note_on_c, 0, 84, 74
1, 180000, Note_on_c, 0, 93, 88
1, 180000, Note_on_c, 0, 72, 69
1, 180000, Note_on_c, 0, 75, 69
1, 180000, Note_on_c, 0, 63, 58
1, 180006, Tempo, 681818
1, 180042, Tempo, 676056
1, 180078, Tempo, 670391
1, 180114, Tempo, 664820
1, 180150, Tempo, 659341
1, 180180, Note_on_c, 0, 63, 0
1, 180180, Note_on_c, 0, 84, 0
1, 180180, Note_on_c, 0, 93, 0
1, 180180, Note_on_c, 0, 81, 0
1, 180180, Note_on_c, 0, 75, 0
1, 180180, Note_on_c, 0, 72, 0
1, 180180, Note_on_c, 0, 82, 67
1, 180180, Note_on_c, 0, 91, 79
1, 180180, Note_on_c, 0, 79, 67
1, 180180, Note_on_c, 0, 70, 62
1, 180180, Note_on_c, 0, 73, 62
1, 180180, Note_on_c, 0, 61, 52
1, 180186, Tempo, 653951
1, 180222, Tempo, 648649
1, 180225, Note_on_c, 0, 61, 0
1, 180225, Note_on_c, 0, 91, 0
1, 180225, Note_on_c, 0, 79, 0
1, 180225, Note_on_c, 0, 82, 0
1, 180225, Note_on_c, 0, 73, 0
1, 180225, Note_on_c, 0, 70, 0
1, 180240, Note_on_c, 0, 91, 86
1, 180240, Note_on_c, 0, 79, 73
1, 180240, Note_on_c, 0, 82, 73
1, 180240, Note_on_c, 0, 70, 69
1, 180240, Note_on_c, 0, 73, 69
1, 180240, Note_on_c, 0, 61, 58
1, 180258, Tempo, 643432
1, 180294, Tempo, 638298
1, 180330, Tempo, 633245
1, 180366, Tempo, 628272
1, 180402, Tempo, 623377
1, 180420, Note_on_c, 0, 61, 0
1, 180420, Note_on_c, 0, 79, 0
1, 180420, Note_on_c, 0, 82, 0
1, 180420, Note_on_c, 0, 91, 0
1, 180420, Note_on_c, 0, 73, 0
1, 180420, Note_on_c, 0, 70, 0
1, 180420, Note_on_c, 0, 88, 81
1, 180420, Note_on_c, 0, 79, 68
1, 180420, Note_on_c, 0, 76, 68
1, 180420, Note_on_c, 0, 67, 62
1, 180420, Note_on_c, 0, 70, 62
1, 180420, Note_on_c, 0, 58, 52
1, 180438, Tempo, 618557
1, 180462, Tempo, 613811
1, 180465, Note_on_c, 0, 58, 0
1, 180465, Note_on_c, 0, 79, 0
1, 180465, Note_on_c, 0, 76, 0
1, 180465, Note_on_c, 0, 88, 0
1, 180465, Note_on_c, 0, 70, 0
1, 180465, Note_on_c, 0, 67, 0
1, 180478, Tempo, 604534
1, 180480, Note_on_c, 0, 79, 74
1, 180480, Note_on_c, 0, 88, 88
1, 180480, Note_on_c, 0, 76, 74
1, 180480, Note_on_c, 0, 70, 70
1, 180480, Note_on_c, 0, 67, 59
1, 180480, Note_on_c, 0, 58, 49
1, 180558, Tempo, 600000
1, 180638, Tempo, 595533
1, 180660, Note_on_c, 0, 58, 0
1, 180660, Note_on_c, 0, 88, 0
1, 180660, Note_on_c, 0, 76, 0
1, 180660, Note_on_c, 0, 79, 0
1, 180660, Note_on_c, 0, 67, 0
1, 180660, Note_on_c, 0, 70, 0
1, 180660, Note_on_c, 0, 75, 68
1, 180660, Note_on_c, 0, 78, 68
1, 180660, Note_on_c, 0, 87, 80
1, 180660, Note_on_c, 0, 69, 62
1, 180660, Note_on_c, 0, 66, 52
1, 180660, Note_on_c, 0, 57, 44
1, 180698, Tempo, 591133
1, 180705, Note_on_c, 0, 57, 0
1, 180705, Note_on_c, 0, 78, 0
1, 180705, Note_on_c, 0, 87, 0
1, 180705, Note_on_c, 0, 75, 0
1, 180705, Note_on_c, 0, 66, 0
1, 180705, Note_on_c, 0, 69, 0
1, 180720, Note_on_c, 0, 78, 74
1, 180720, Note_on_c, 0, 87, 88
1, 180720, Note_on_c, 0, 75, 74
1, 180720, Note_on_c, 0, 69, 69
1, 180720, Note_on_c, 0, 66, 58
1, 180720, Note_on_c, 0, 57, 49
1, 180778, Tempo, 586797
1, 180838, Tempo, 582524
1, 180900, Note_on_c, 0, 57, 0
1, 180900, Note_on_c, 0, 87, 0
1, 180900, Note_on_c, 0, 75, 0
1, 180900, Note_on_c, 0, 78, 0
1, 180900, Note_on_c, 0, 66, 0
1, 180900, Note_on_c, 0, 69, 0
1, 180900, Note_on_c, 0, 85, 79
1, 180900, Note_on_c, 0, 73, 56
1, 180900, Note_on_c, 0, 76, 56
1, 180900, Note_on_c, 0, 67, 62
1, 180900, Note_on_c, 0, 64, 52
1, 180900, Note_on_c, 0, 55, 44
1, 180918, Tempo, 578313
1, 180945, Note_on_c, 0, 55, 0
1, 180945, Note_on_c, 0, 73, 0
1, 180945, Note_on_c, 0, 76, 0
1, 180945, Note_on_c, 0, 85, 0
1, 180945, Note_on_c, 0, 64, 0
1, 180945, Note_on_c, 0, 67, 0
1, 180960, Note_on_c, 0, 85, 88
1, 180960, Note_on_c, 0, 73, 74
1, 180960, Note_on_c, 0, 76, 74
1, 180960, Note_on_c, 0, 64, 69
1, 180960, Note_on_c, 0, 67, 69
1, 180960, Note_on_c, 0, 55, 58
1, 180978, Tempo, 574163
1, 181140, Note_on_c, 0, 55, 0
1, 181140, Note_on_c, 0, 73, 0
1, 181140, Note_on_c, 0, 76, 0
1, 181140, Note_on_c, 0, 85, 0
1, 181140, Note_on_c, 0, 67, 0
1, 181140, Note_on_c, 0, 64, 0
1, 181140, Note_on_c, 0, 73, 68
1, 181140, Note_on_c, 0, 82, 81
1, 181140, Note_on_c, 0, 70, 68
1, 181140, Note_on_c, 0, 61, 62
1, 181140, Note_on_c, 0, 64, 62
1, 181140, Note_on_c, 0, 52, 52
1, 181185, Note_on_c, 0, 52, 0
1, 181185, Note_on_c, 0, 82, 0
1, 181185, Note_on_c, 0, 70, 0
1, 181185, Note_on_c, 0, 73, 0
1, 181185, Note_on_c, 0, 64, 0
1, 181185, Note_on_c, 0, 61, 0
1, 181200, Note_on_c, 0, 70, 75
1, 181200, Note_on_c, 0, 73, 75
1, 181200, Note_on_c, 0, 82, 90
1, 181200, Note_on_c, 0, 61, 69
1, 181200, Note_on_c, 0, 52, 58
1, 181200, Note_on_c, 0, 64, 69
1, 181380, Note_on_c, 0, 64, 0
1, 181380, Note_on_c, 0, 73, 0
1, 181380, Note_on_c, 0, 82, 0
1, 181380, Note_on_c, 0, 70, 0
1, 181380, Note_on_c, 0, 52, 0
1, 181380, Note_on_c, 0, 61, 0
1, 181380, Note_on_c, 0, 72, 68
1, 181380, Note_on_c, 0, 81, 81
1, 181380, Note_on_c, 0, 69, 68
1, 181380, Note_on_c, 0, 60, 62
1, 181380, Note_on_c, 0, 51, 52
1, 181380, Note_on_c, 0, 63, 62
1, 181425, Note_on_c, 0, 63, 0
1, 181425, Note_on_c, 0, 81, 0
1, 181425, Note_on_c, 0, 69, 0
1, 181425, Note_on_c, 0, 72, 0
1, 181425, Note_on_c, 0, 51, 0
1, 181425, Note_on_c, 0, 60, 0
1, 181440, Note_on_c, 0, 81, 89
1, 181440, Note_on_c, 0, 69, 74
1, 181440, Note_on_c, 0, 72, 74
1, 181440, Note_on_c, 0, 60, 69
1, 181440, Note_on_c, 0, 51, 58
1, 181440, Note_on_c, 0, 63, 69
1, 181458, Tempo, 570071
1, 181558, Tempo, 574163
1, 181620, Note_on_c, 0, 63, 0
1, 181620, Note_on_c, 0, 69, 0
1, 181620, Note_on_c, 0, 72, 0
1, 181620, Note_on_c, 0, 81, 0
1, 181620, Note_on_c, 0, 51, 0
1, 181620, Note_on_c, 0, 60, 0
1, 181620, Note_on_c, 0, 79, 79
1, 181620, Note_on_c, 0, 67, 67
1, 181620, Note_on_c, 0, 70, 67
1, 181620, Note_on_c, 0, 58, 62
1, 181620, Note_on_c, 0, 49, 52
1, 181620, Note_on_c, 0, 61, 62
1, 181638, Tempo, 578313
1, 181665, Note_on_c, 0, 61, 0
1, 181665, Note_on_c, 0, 67, 0
1, 181665, Note_on_c, 0, 70, 0
1, 181665, Note_on_c, 0, 79, 0
1, 181665, Note_on_c, 0, 49, 0
1, 181665, Note_on_c, 0, 58, 0
1, 181680, Note_on_c, 0, 70, 74
1, 181680, Note_on_c, 0, 79, 88
1, 181680, Note_on_c, 0, 67, 74
1, 181680, Note_on_c, 0, 61, 69
1, 181680, Note_on_c, 0, 58, 69
1, 181680, Note_on_c, 0, 49, 58
1, 181738, Tempo, 582524
1, 181818, Tempo, 586797
1, 181860, Note_on_c, 0, 49, 0
1, 181860, Note_on_c, 0, 79, 0
1, 181860, Note_on_c, 0, 67, 0
1, 181860, Note_on_c, 0, 70, 0
1, 181860, Note_on_c, 0, 58, 0
1, 181860, Note_on_c, 0, 61, 0
1, 181860, Note_on_c, 0, 67, 68
1, 181860, Note_on_c, 0, 64, 68
1, 181860, Note_on_c, 0, 76, 80
1, 181860, Note_on_c, 0, 58, 62
1, 181860, Note_on_c, 0, 55, 62
1, 181860, Note_on_c, 0, 46, 52
1, 181898, Tempo, 591133
1, 181905, Note_on_c, 0, 46, 0
1, 181905, Note_on_c, 0, 64, 0
1, 181905, Note_on_c, 0, 76, 0
1, 181905, Note_on_c, 0, 67, 0
1, 181905, Note_on_c, 0, 55, 0
1, 181905, Note_on_c, 0, 58, 0
1, 181914, Tempo, 604534
1, 181920, Note_on_c, 0, 67, 74
1, 181920, Note_on_c, 0, 76, 88
1, 181920, Note_on_c, 0, 64, 74
1, 181920, Note_on_c, 0, 55, 59
1, 181920, Note_on_c, 0, 58, 70
1, 181920, Note_on_c, 0, 46, 49
1, 181938, Tempo, 595533
1, 182058, Tempo, 600000
1, 182100, Note_on_c, 0, 46, 0
1, 182100, Note_on_c, 0, 76, 0
1, 182100, Note_on_c, 0, 64, 0
1, 182100, Note_on_c, 0, 67, 0
1, 182100, Note_on_c, 0, 58, 0
1, 182100, Note_on_c, 0, 55, 0
1, 182100, Note_on_c, 0, 75, 79
1, 182100, Note_on_c, 0, 63, 56
1, 182100, Note_on_c, 0, 66, 56
1, 182100, Note_on_c, 0, 54, 52
1, 182100, Note_on_c, 0, 57, 62
1, 182100, Note_on_c, 0, 45, 44
1, 182145, Note_on_c, 0, 45, 0
1, 182145, Note_on_c, 0, 63, 0
1, 182145, Note_on_c, 0, 66, 0
1, 182145, Note_on_c, 0, 75, 0
1, 182145, Note_on_c, 0, 57, 0
1, 182145, Note_on_c, 0, 54, 0
1, 182160, Note_on_c, 0, 75, 94
1, 182160, Note_on_c, 0, 66, 80
1, 182160, Note_on_c, 0, 63, 80
1, 182160, Note_on_c, 0, 54, 58
1, 182160, Note_on_c, 0, 57, 69
1, 182160, Note_on_c, 0, 45, 49
1, 182178, Tempo, 604534
1, 182298, Tempo, 609137
1, 182340, Note_on_c, 0, 45, 0
1, 182340, Note_on_c, 0, 66, 0
1, 182340, Note_on_c, 0, 63, 0
1, 182340, Note_on_c, 0, 75, 0
1, 182340, Note_on_c, 0, 57, 0
1, 182340, Note_on_c, 0, 54, 0
1, 182340, Note_on_c, 0, 61, 56
1, 182340, Note_on_c, 0, 64, 56
1, 182340, Note_on_c, 0, 73, 79
1, 182340, Note_on_c, 0, 52, 52
1, 182340, Note_on_c, 0, 55, 62
1, 182340, Note_on_c, 0, 43, 44
1, 182385, Note_on_c, 0, 43, 0
1, 182385, Note_on_c, 0, 64, 0
1, 182385, Note_on_c, 0, 73, 0
1, 182385, Note_on_c, 0, 61, 0
1, 182385, Note_on_c, 0, 55, 0
1, 182385, Note_on_c, 0, 52, 0
1, 182400, Tempo, 653951
1, 182400, Note_on_c, 0, 61, 81
1, 182400, Note_on_c, 0, 64, 81
1, 182400, Note_on_c, 0, 73, 96
1, 182400, Note_on_c, 0, 55, 69
1, 182400, Note_on_c, 0, 52, 69
1, 182400, Note_on_c, 0, 43, 58
1, 182459, Control_c, 0, 64, 0
1, 182580, Note_on_c, 0, 43, 0
1, 182580, Note_on_c, 0, 64, 0
1, 182580, Note_on_c, 0, 73, 0
1, 182580, Note_on_c, 0, 61, 0
1, 182580, Note_on_c, 0, 52, 0
1, 182580, Note_on_c, 0, 55, 0
1, 182640, Tempo, 5581395
1, 182760, Tempo, 738462
1, 182820, Note_on_c, 0, 64, 83
1, 182820, Note_on_c, 0, 52, 70
1, 182820, Note_on_c, 0, 58, 70
1, 182820, Note_on_c, 0, 31, 55
1, 182820, Note_on_c, 0, 43, 64
1, 182820, Note_on_c, 0, 37, 55
1, 182820, Note_on_c, 0, 40, 55
1, 182880, Time_signature, 4, 2, 24, 8
1, 182880, Tempo, 648649
1, 182880, Note_on_c, 0, 40, 0
1, 182880, Note_on_c, 0, 43, 0
1, 182880, Note_on_c, 0, 52, 0
1, 182880, Note_on_c, 0, 58, 0
1, 182880, Note_on_c, 0, 64, 0
1, 182880, Note_on_c, 0, 37, 0
1, 182880, Note_on_c, 0, 31, 0
1, 182880, Note_on_c, 0, 52, 79
1, 182880, Note_on_c, 0, 64, 93
1, 182880, Note_on_c, 0, 56, 79
1, 182880, Note_on_c, 0, 44, 64
1, 182880, Note_on_c, 0, 40, 55
1, 182880, Note_on_c, 0, 32, 55
1, 182880, Note_on_c, 0, 37, 55
1, 182880, Control_c, 0, 64, 127
1, 183000, Note_on_c, 0, 37, 0
1, 183000, Note_on_c, 0, 40, 0
1, 183000, Note_on_c, 0, 64, 0
1, 183000, Note_on_c, 0, 56, 0
1, 183000, Note_on_c, 0, 52, 0
1, 183000, Note_on_c, 0, 32, 0
1, 183000, Note_on_c, 0, 44, 0
1, 183240, Tempo, 718563
1, 183240, Note_on_c, 0, 63, 84
1, 183240, Note_on_c, 0, 56, 71
1, 183240, Note_on_c, 0, 51, 71
1, 183240, Note_on_c, 0, 37, 56
1, 183240, Note_on_c, 0, 44, 67
1, 183240, Note_on_c, 0, 32, 56
1, 183240, Note_on_c, 0, 40, 56
1, 183360, Tempo, 643432
1, 183360, Note_on_c, 0, 40, 0
1, 183360, Note_on_c, 0, 44, 0
1, 183360, Note_on_c, 0, 56, 0
1, 183360, Note_on_c, 0, 51, 0
1, 183360, Note_on_c, 0, 63, 0
1, 183360, Note_on_c, 0, 32, 0
1, 183360, Note_on_c, 0, 37, 0
1, 183360, Note_on_c, 0, 56, 79
1, 183360, Note_on_c, 0, 63, 93
1, 183360, Note_on_c, 0, 51, 79
1, 183360, Note_on_c, 0, 32, 61
1, 183360, Note_on_c, 0, 44, 72
1, 183360, Note_on_c, 0, 37, 61
1, 183360, Note_on_c, 0, 40, 61
1, 183480, Note_on_c, 0, 40, 0
1, 183480, Note_on_c, 0, 44, 0
1, 183480, Note_on_c, 0, 63, 0
1, 183480, Note_on_c, 0, 51, 0
1, 183480, Note_on_c, 0, 56, 0
1, 183480, Note_on_c, 0, 37, 0
1, 183480, Note_on_c, 0, 32, 0
1, 183720, Tempo, 681818
1, 183720, Note_on_c, 0, 49, 72
1, 183720, Note_on_c, 0, 56, 72
1, 183720, Note_on_c, 0, 61, 85
1, 183720, Note_on_c, 0, 44, 64
1, 183720, Note_on_c, 0, 40, 55
1, 183720, Note_on_c, 0, 32, 55
1, 183720, Note_on_c, 0, 37, 55
1, 183840, Tempo, 712166
1, 183840, Note_on_c, 0, 37, 0
1, 183840, Note_on_c, 0, 40, 0
1, 183840, Note_on_c, 0, 56, 0
1, 183840, Note_on_c, 0, 61, 0
1, 183840, Note_on_c, 0, 49, 0
1, 183840, Note_on_c, 0, 32, 0
1, 183840, Note_on_c, 0, 44, 0
1, 183840, Note_on_c, 0, 68, 96
1, 183840, Note_on_c, 0, 56, 81
1, 183840, Note_on_c, 0, 60, 81
1, 183840, Note_on_c, 0, 39, 61
1, 183840, Note_on_c, 0, 44, 72
1, 183840, Note_on_c, 0, 32, 61
1, 183840, Note_on_c, 0, 42, 61
1, 183865, Control_c, 0, 64, 0
1, 183911, Control_c, 0, 64, 127
1, 184320, Note_on_c, 0, 42, 0
1, 184320, Note_on_c, 0, 44, 0
1, 184320, Note_on_c, 0, 56, 0
1, 184320, Note_on_c, 0, 60, 0
1, 184320, Note_on_c, 0, 68, 0
1, 184320, Note_on_c, 0, 32, 0
1, 184320, Note_on_c, 0, 39, 0
1, 184320, Note_on_c, 0, 48, 77
1, 184320, Note_on_c, 0, 60, 91
1, 184320, Note_on_c, 0, 56, 77
1, 184320, Note_on_c, 0, 32, 57
1, 184320, Note_on_c, 0, 44, 68
1, 184320, Note_on_c, 0, 39, 57
1, 184320, Note_on_c, 0, 42, 57
1, 184560, Control_c, 0, 64, 0
1, 184680, Note_on_c, 0, 42, 0
1, 184680, Note_on_c, 0, 44, 0
1, 184680, Note_on_c, 0, 60, 0
1, 184680, Note_on_c, 0, 56, 0
1, 184680, Note_on_c, 0, 48, 0
1, 184680, Note_on_c, 0, 39, 0
1, 184680, Note_on_c, 0, 32, 0
1, 184740, Note_on_c, 0, 44, 40
1, 184750, Note_on_c, 0, 52, 42
1, 184760, Note_on_c, 0, 56, 45
1, 184770, Note_on_c, 0, 61, 51
1, 184780, Note_on_c, 0, 64, 62
1, 184790, Note_on_c, 0, 68, 62
1, 184800, Tempo, 648649
1, 184800, Note_on_c, 0, 76, 83
1, 184800, Control_c, 0, 64, 127
1, 185040, Tempo, 570071
1, 185160, Tempo, 718563
1, 185160, Note_on_c, 0, 76, 0
1, 185160, Note_on_c, 0, 75, 75
1, 185200, Note_on_c, 0, 75, 0
1, 185220, Tempo, 830450
1, 185220, Note_on_c, 0, 75, 67
1, 185225, Note_on_c, 0, 56, 0
1, 185235, Note_on_c, 0, 61, 0
1, 185235, Note_on_c, 0, 44, 0
1, 185235, Note_on_c, 0, 52, 0
1, 185235, Note_on_c, 0, 44, 45
1, 185250, Note_on_c, 0, 75, 0
1, 185250, Note_on_c, 0, 76, 72
1, 185250, Note_on_c, 0, 52, 48
1, 185265, Note_on_c, 0, 56, 53
1, 185280, Tempo, 643432
1, 185280, Note_on_c, 0, 76, 0
1, 185280, Note_on_c, 0, 68, 0
1, 185280, Note_on_c, 0, 64, 0
1, 185280, Note_on_c, 0, 68, 61
1, 185280, Note_on_c, 0, 64, 61
1, 185280, Note_on_c, 0, 75, 80
1, 185280, Note_on_c, 0, 61, 58
1, 185400, Note_on_c, 0, 75, 0
1, 185520, Note_on_c, 0, 73, 77
1, 185580, Note_on_c, 0, 73, 0
1, 185640, Tempo, 604534
1, 185700, Tempo, 916031
1, 185715, Note_on_c, 0, 61, 0
1, 185715, Note_on_c, 0, 52, 0
1, 185715, Note_on_c, 0, 56, 0
1, 185715, Note_on_c, 0, 44, 0
1, 185715, Note_on_c, 0, 44, 47
1, 185725, Note_on_c, 0, 51, 49
1, 185735, Note_on_c, 0, 56, 52
1, 185745, Note_on_c, 0, 60, 55
1, 185755, Note_on_c, 0, 66, 63
1, 185760, Tempo, 699708
1, 185760, Note_on_c, 0, 68, 0
1, 185760, Note_on_c, 0, 64, 0
1, 185765, Note_on_c, 0, 72, 67
1, 185775, Note_on_c, 0, 80, 82
1, 185786, Control_c, 0, 64, 0
1, 185842, Control_c, 0, 64, 127
1, 186240, Note_on_c, 0, 80, 0
1, 186240, Note_on_c, 0, 44, 0
1, 186240, Note_on_c, 0, 66, 0
1, 186240, Note_on_c, 0, 56, 0
1, 186240, Note_on_c, 0, 51, 0
1, 186240, Note_on_c, 0, 72, 0
1, 186240, Note_on_c, 0, 60, 0
1, 186240, Note_on_c, 0, 72, 77
1, 186442, Control_c, 0, 64, 0
1, 186480, Note_on_c, 0, 72, 0
1, 186675, Note_on_c, 0, 56, 48
1, 186690, Note_on_c, 0, 64, 51
1, 186705, Note_on_c, 0, 68, 53
1, 186720, Tempo, 648649
1, 186720, Note_on_c, 0, 88, 76
1, 186720, Note_on_c, 0, 76, 54
1, 186720, Note_on_c, 0, 80, 54
1, 186720, Note_on_c, 0, 73, 57
1, 186768, Control_c, 0, 64, 127
1, 186960, Tempo, 570071
1, 187080, Tempo, 752351
1, 187080, Note_on_c, 0, 88, 0
1, 187080, Note_on_c, 0, 87, 69
1, 187140, Tempo, 895522
1, 187140, Note_on_c, 0, 87, 0
1, 187140, Note_on_c, 0, 85, 63
1, 187155, Note_on_c, 0, 73, 0
1, 187155, Note_on_c, 0, 68, 0
1, 187155, Note_on_c, 0, 56, 0
1, 187155, Note_on_c, 0, 64, 0
1, 187155, Note_on_c, 0, 56, 37
1, 187160, Note_on_c, 0, 85, 0
1, 187160, Note_on_c, 0, 87, 59
1, 187170, Note_on_c, 0, 64, 39
1, 187180, Note_on_c, 0, 87, 0
1, 187180, Note_on_c, 0, 88, 63
1, 187185, Note_on_c, 0, 68, 41
1, 187200, Tempo, 643432
1, 187200, Note_on_c, 0, 88, 0
1, 187200, Note_on_c, 0, 80, 0
1, 187200, Note_on_c, 0, 76, 0
1, 187200, Note_on_c, 0, 76, 51
1, 187200, Note_on_c, 0, 80, 51
1, 187200, Note_on_c, 0, 87, 73
1, 187200, Note_on_c, 0, 73, 44
1, 187320, Note_on_c, 0, 87, 0
1, 187440, Note_on_c, 0, 85, 66
1, 187560, Tempo, 591133
1, 187560, Note_on_c, 0, 85, 0
1, 187620, Tempo, 960000
1, 187635, Note_on_c, 0, 73, 0
1, 187635, Note_on_c, 0, 64, 0
1, 187635, Note_on_c, 0, 68, 0
1, 187635, Note_on_c, 0, 56, 0
1, 187650, Note_on_c, 0, 56, 51
1, 187665, Note_on_c, 0, 66, 54
1, 187680, Tempo, 643432
1, 187680, Note_on_c, 0, 76, 0
1, 187680, Note_on_c, 0, 80, 0
1, 187680, Note_on_c, 0, 80, 54
1, 187680, Note_on_c, 0, 87, 75
1, 187680, Note_on_c, 0, 75, 54
1, 187680, Note_on_c, 0, 72, 57
1, 187701, Control_c, 0, 64, 0
1, 187762, Control_c, 0, 64, 127
1, 187920, Note_on_c, 0, 75, 0
1, 187920, Note_on_c, 0, 87, 0
1, 187920, Note_on_c, 0, 80, 0
1, 188040, Note_on_c, 0, 80, 63
1, 188115, Note_on_c, 0, 66, 0
1, 188115, Note_on_c, 0, 56, 0
1, 188115, Note_on_c, 0, 72, 0
1, 188130, Note_on_c, 0, 56, 51
1, 188145, Note_on_c, 0, 66, 54
1, 188160, Note_on_c, 0, 80, 0
1, 188160, Note_on_c, 0, 92, 75
1, 188160, Note_on_c, 0, 80, 54
1, 188160, Note_on_c, 0, 72, 57
1, 188400, Note_on_c, 0, 80, 0
1, 188400, Note_on_c, 0, 92, 0
1, 188520, Note_on_c, 0, 80, 68
1, 188580, Tempo, 745342
1, 188595, Note_on_c, 0, 56, 0
1, 188595, Note_on_c, 0, 72, 0
1, 188595, Note_on_c, 0, 66, 0
1, 188595, Note_on_c, 0, 56, 41
1, 188610, Note_on_c, 0, 64, 44
1, 188625, Note_on_c, 0, 68, 47
1, 188640, Tempo, 648649
1, 188640, Note_on_c, 0, 80, 0
1, 188640, Note_on_c, 0, 80, 54
1, 188640, Note_on_c, 0, 88, 76
1, 188640, Note_on_c, 0, 76, 54
1, 188640, Note_on_c, 0, 73, 51
1, 188659, Control_c, 0, 64, 0
1, 188744, Control_c, 0, 64, 127
1, 188880, Tempo, 578313
1, 189000, Tempo, 731707
1, 189000, Note_on_c, 0, 88, 0
1, 189000, Note_on_c, 0, 87, 69
1, 189060, Tempo, 983607
1, 189060, Note_on_c, 0, 87, 0
1, 189060, Note_on_c, 0, 85, 59
1, 189075, Note_on_c, 0, 73, 0
1, 189075, Note_on_c, 0, 56, 0
1, 189075, Note_on_c, 0, 68, 0
1, 189075, Note_on_c, 0, 64, 0
1, 189075, Note_on_c, 0, 56, 36
1, 189080, Note_on_c, 0, 85, 0
1, 189080, Note_on_c, 0, 87, 59
1, 189090, Note_on_c, 0, 64, 38
1, 189100, Note_on_c, 0, 87, 0
1, 189100, Note_on_c, 0, 88, 63
1, 189105, Note_on_c, 0, 68, 40
1, 189120, Tempo, 648649
1, 189120, Note_on_c, 0, 88, 0
1, 189120, Note_on_c, 0, 80, 0
1, 189120, Note_on_c, 0, 76, 0
1, 189120, Note_on_c, 0, 87, 73
1, 189120, Note_on_c, 0, 76, 51
1, 189120, Note_on_c, 0, 80, 51
1, 189120, Note_on_c, 0, 73, 43
1, 189240, Note_on_c, 0, 87, 0
1, 189360, Note_on_c, 0, 85, 66
1, 189480, Note_on_c, 0, 85, 0
1, 189540, Tempo, 948617
1, 189555, Note_on_c, 0, 73, 0
1, 189555, Note_on_c, 0, 56, 0
1, 189555, Note_on_c, 0, 68, 0
1, 189555, Note_on_c, 0, 64, 0
1, 189570, Note_on_c, 0, 56, 50
1, 189585, Note_on_c, 0, 66, 52
1, 189600, Tempo, 648649
1, 189600, Note_on_c, 0, 80, 0
1, 189600, Note_on_c, 0, 76, 0
1, 189600, Note_on_c, 0, 75, 54
1, 189600, Note_on_c, 0, 87, 75
1, 189600, Note_on_c, 0, 80, 54
1, 189600, Note_on_c, 0, 72, 55
1, 189622, Control_c, 0, 64, 0
1, 189682, Control_c, 0, 64, 127
1, 189840, Note_on_c, 0, 80, 0
1, 189840, Note_on_c, 0, 87, 0
1, 189840, Note_on_c, 0, 75, 0
1, 189900, Tempo, 600000
1, 189960, Note_on_c, 0, 80, 63
1, 190035, Note_on_c, 0, 66, 0
1, 190035, Note_on_c, 0, 56, 0
1, 190035, Note_on_c, 0, 72, 0
1, 190080, Tempo, 643432
1, 190080, Note_on_c, 0, 80, 0
1, 190080, Note_on_c, 0, 92, 75
1, 190320, Note_on_c, 0, 92, 0
1, 190440, Note_on_c, 0, 80, 64
1, 190536, Tempo, 648649
1, 190560, Note_on_c, 0, 80, 0
1, 190560, Note_on_c, 0, 87, 68
1, 190670, Tempo, 643432
1, 190680, Note_on_c, 0, 87, 0
1, 190680, Note_on_c, 0, 80, 61
1, 190786, Tempo, 638298
1, 190800, Note_on_c, 0, 80, 0
1, 190800, Note_on_c, 0, 92, 66
1, 190920, Tempo, 633245
1, 190920, Note_on_c, 0, 92, 0
1, 190920, Note_on_c, 0, 80, 60
1, 191035, Tempo, 628272
1, 191040, Note_on_c, 0, 80, 0
1, 191040, Note_on_c, 0, 87, 65
1, 191150, Tempo, 623377
1, 191160, Note_on_c, 0, 87, 0
1, 191160, Note_on_c, 0, 80, 57
1, 191280, Note_on_c, 0, 80, 0
1, 191280, Note_on_c, 0, 92, 63
1, 191285, Tempo, 618557
1, 191400, Tempo, 613811
1, 191400, Note_on_c, 0, 92, 0
1, 191400, Note_on_c, 0, 80, 57
1, 191476, Tempo, 616967
1, 191492, Tempo, 620155
1, 191520, Note_on_c, 0, 80, 0
1, 191520, Note_on_c, 0, 87, 62
1, 191572, Tempo, 616967
1, 191600, Note_on_c, 0, 87, 0
1, 191600, Note_on_c, 0, 80, 57
1, 191652, Tempo, 613811
1, 191680, Note_on_c, 0, 80, 0
1, 191680, Note_on_c, 0, 92, 61
1, 191732, Tempo, 610687
1, 191760, Note_on_c, 0, 92, 0
1, 191760, Note_on_c, 0, 80, 56
1, 191796, Tempo, 607595
1, 191840, Note_on_c, 0, 87, 59
1, 191841, Note_on_c, 0, 80, 0
1, 191876, Tempo, 604534
1, 191920, Note_on_c, 0, 87, 0
1, 191920, Note_on_c, 0, 80, 53
1, 191956, Tempo, 601504
1, 192000, Note_on_c, 0, 80, 0
1, 192000, Note_on_c, 0, 92, 58
1, 192020, Tempo, 598504
1, 192080, Note_on_c, 0, 92, 0
1, 192080, Note_on_c, 0, 80, 50
1, 192100, Tempo, 595533
1, 192160, Note_on_c, 0, 80, 0
1, 192160, Note_on_c, 0, 87, 57
1, 192180, Tempo, 592593
1, 192240, Note_on_c, 0, 87, 0
1, 192240, Note_on_c, 0, 80, 48
1, 192244, Tempo, 589681
1, 192320, Note_on_c, 0, 80, 0
1, 192320, Note_on_c, 0, 92, 59
1, 192324, Tempo, 586797
1, 192400, Note_on_c, 0, 92, 0
1, 192400, Note_on_c, 0, 80, 50
1, 192404, Tempo, 583942
1, 192468, Tempo, 581114
1, 192480, Note_on_c, 0, 80, 0
1, 192480, Note_on_c, 0, 87, 57
1, 192484, Tempo, 661157
1, 192540, Note_on_c, 0, 87, 0
1, 192540, Note_on_c, 0, 80, 51
1, 192600, Note_on_c, 0, 80, 0
1, 192600, Note_on_c, 0, 92, 57
1, 192637, Tempo, 659341
1, 192660, Note_on_c, 0, 92, 0
1, 192660, Note_on_c, 0, 80, 51
1, 192720, Note_on_c, 0, 80, 0
1, 192720, Note_on_c, 0, 87, 55
1, 192780, Note_on_c, 0, 87, 0
1, 192780, Note_on_c, 0, 80, 51
1, 192790, Tempo, 653951
1, 192840, Note_on_c, 0, 80, 0
1, 192840, Note_on_c, 0, 92, 54
1, 192900, Note_on_c, 0, 92, 0
1, 192900, Note_on_c, 0, 80, 49
1, 192944, Tempo, 648649
1, 192960, Note_on_c, 0, 80, 0
1, 192960, Note_on_c, 0, 87, 53
1, 193020, Note_on_c, 0, 87, 0
1, 193020, Note_on_c, 0, 80, 47
1, 193080, Note_on_c, 0, 80, 0
1, 193080, Note_on_c, 0, 92, 52
1, 193097, Tempo, 643432
1, 193140, Note_on_c, 0, 92, 0
1, 193140, Note_on_c, 0, 80, 47
1, 193200, Note_on_c, 0, 80, 0
1, 193200, Note_on_c, 0, 87, 51
1, 193251, Tempo, 638298
1, 193260, Note_on_c, 0, 87, 0
1, 193260, Note_on_c, 0, 80, 47
1, 193320, Note_on_c, 0, 80, 0
1, 193320, Note_on_c, 0, 92, 50
1, 193380, Note_on_c, 0, 92, 0
1, 193380, Note_on_c, 0, 80, 45
1, 193405, Tempo, 633245
1, 193440, Note_on_c, 0, 80, 0
1, 193440, Note_on_c, 0, 87, 48
1, 193500, Note_on_c, 0, 87, 0
1, 193500, Note_on_c, 0, 80, 43
1, 193560, Note_on_c, 0, 80, 0
1, 193560, Note_on_c, 0, 92, 47
1, 193577, Tempo, 628272
1, 193620, Note_on_c, 0, 92, 0
1, 193620, Note_on_c, 0, 80, 43
1, 193680, Note_on_c, 0, 80, 0
1, 193680, Note_on_c, 0, 87, 46
1, 193731, Tempo, 623377
1, 193740, Note_on_c, 0, 87, 0
1, 193740, Note_on_c, 0, 80, 42
1, 193800, Note_on_c, 0, 80, 0
1, 193800, Note_on_c, 0, 92, 45
1, 193860, Note_on_c, 0, 92, 0
1, 193860, Note_on_c, 0, 80, 40
1, 193885, Tempo, 618557
1, 193920, Note_on_c, 0, 80, 0
1, 193920, Note_on_c, 0, 87, 44
1, 193980, Note_on_c, 0, 87, 0
1, 193980, Note_on_c, 0, 80, 39
1, 194038, Tempo, 613811
1, 194040, Note_on_c, 0, 80, 0
1, 194040, Note_on_c, 0, 92, 43
1, 194100, Note_on_c, 0, 92, 0
1, 194100, Note_on_c, 0, 80, 39
1, 194160, Note_on_c, 0, 80, 0
1, 194160, Note_on_c, 0, 87, 42
1, 194192, Tempo, 609137
1, 194220, Note_on_c, 0, 87, 0
1, 194220, Note_on_c, 0, 80, 38
1, 194280, Note_on_c, 0, 80, 0
1, 194280, Note_on_c, 0, 92, 40
1, 194340, Note_on_c, 0, 92, 0
1, 194340, Note_on_c, 0, 80, 35
1, 194345, Tempo, 604534
1, 194400, Time_signature, 2, 2, 24, 8
1, 194400, Key_signature, -5, "major"
1, 194400, Tempo, 995851
1, 194400, Marker_t, "Allegretto giogoso"
1, 194400, Note_on_c, 0, 80, 0
1, 194400, Control_c, 0, 64, 0
1, 194400, Note_on_c, 0, 91, 47
1, 194458, Note_on_c, 0, 91, 0
1, 194458, Note_on_c, 0, 92, 47
1, 194516, Note_on_c, 0, 92, 0
1, 194516, Note_on_c, 0, 94, 47
1, 194546, Control_c, 0, 64, 127
1, 194573, Note_on_c, 0, 92, 47
1, 194574, Note_on_c, 0, 94, 0
1, 194616, Note_on_c, 0, 92, 0
1, 194616, Note_on_c, 0, 94, 42
1, 194630, Tempo, 866426
1, 194642, Tempo, 848057
1, 194654, Tempo, 830450
1, 194659, Note_on_c, 0, 94, 0
1, 194659, Note_on_c, 0, 92, 47
1, 194678, Tempo, 821918
1, 194702, Note_on_c, 0, 92, 0
1, 194703, Note_on_c, 0, 94, 40
1, 194714, Tempo, 830450
1, 194726, Tempo, 857143
1, 194738, Tempo, 866426
1, 194746, Note_on_c, 0, 94, 0
1, 194746, Note_on_c, 0, 92, 47
1, 194774, Tempo, 857143
1, 194786, Tempo, 821918
1, 194789, Note_on_c, 0, 92, 0
1, 194789, Note_on_c, 0, 94, 41
1, 194798, Tempo, 830450
1, 194810, Tempo, 848057
1, 194832, Note_on_c, 0, 94, 0
1, 194832, Note_on_c, 0, 92, 47
1, 194834, Tempo, 857143
1, 194858, Tempo, 839161
1, 194870, Tempo, 839161
1, 194875, Note_on_c, 0, 92, 0
1, 194875, Note_on_c, 0, 94, 41
1, 194918, Note_on_c, 0, 94, 0
1, 194919, Note_on_c, 0, 92, 47
1, 194930, Tempo, 857143
1, 194942, Tempo, 866426
1, 194954, Tempo, 875912
1, 194962, Note_on_c, 0, 92, 0
1, 194962, Note_on_c, 0, 94, 41
1, 194966, Tempo, 866426
1, 194978, Tempo, 821918
1, 194990, Tempo, 805369
1, 195002, Tempo, 797342
1, 195005, Note_on_c, 0, 94, 0
1, 195005, Note_on_c, 0, 92, 47
1, 195014, Tempo, 813559
1, 195026, Tempo, 821918
1, 195038, Tempo, 813559
1, 195048, Note_on_c, 0, 92, 0
1, 195048, Note_on_c, 0, 94, 42
1, 195083, Tempo, 805369
1, 195091, Note_on_c, 0, 94, 0
1, 195091, Note_on_c, 0, 92, 47
1, 195128, Tempo, 797342
1, 195134, Note_on_c, 0, 92, 0
1, 195135, Note_on_c, 0, 94, 41
1, 195158, Tempo, 789474
1, 195178, Note_on_c, 0, 94, 0
1, 195178, Note_on_c, 0, 92, 47
1, 195203, Tempo, 781759
1, 195221, Note_on_c, 0, 92, 0
1, 195221, Note_on_c, 0, 94, 41
1, 195233, Tempo, 774194
1, 195264, Note_on_c, 0, 94, 0
1, 195264, Note_on_c, 0, 92, 47
1, 195278, Tempo, 766773
1, 195307, Note_on_c, 0, 92, 0
1, 195307, Note_on_c, 0, 94, 42
1, 195308, Tempo, 759494
1, 195350, Note_on_c, 0, 94, 0
1, 195353, Tempo, 752351
1, 195360, Note_on_c, 0, 92, 47
1, 195383, Tempo, 745342
1, 195403, Note_on_c, 0, 92, 0
1, 195403, Note_on_c, 0, 94, 41
1, 195446, Note_on_c, 0, 94, 0
1, 195447, Note_on_c, 0, 92, 47
1, 195490, Note_on_c, 0, 92, 0
1, 195490, Note_on_c, 0, 94, 41
1, 195533, Note_on_c, 0, 94, 0
1, 195533, Note_on_c, 0, 92, 47
1, 195548, Tempo, 752351
1, 195576, Note_on_c, 0, 92, 0
1, 195576, Note_on_c, 0, 94, 42
1, 195619, Note_on_c, 0, 94, 0
1, 195619, Note_on_c, 0, 92, 47
1, 195662, Note_on_c, 0, 92, 0
1, 195663, Note_on_c, 0, 94, 40
1, 195706, Note_on_c, 0, 94, 0
1, 195706, Note_on_c, 0, 92, 47
1, 195743, Tempo, 759494
1, 195749, Note_on_c, 0, 92, 0
1, 195749, Note_on_c, 0, 94, 41
1, 195758, Tempo, 774194
1, 195782, Tempo, 759494
1, 195792, Note_on_c, 0, 94, 0
1, 195792, Note_on_c, 0, 92, 47
1, 195794, Tempo, 752351
1, 195806, Tempo, 759494
1, 195830, Tempo, 774194
1, 195835, Note_on_c, 0, 92, 0
1, 195835, Note_on_c, 0, 94, 41
1, 195842, Tempo, 821918
1, 195878, Note_on_c, 0, 94, 0
1, 195879, Note_on_c, 0, 92, 47
1, 195890, Tempo, 813559
1, 195902, Tempo, 797342
1, 195914, Tempo, 781759
1, 195922, Note_on_c, 0, 92, 0
1, 195922, Note_on_c, 0, 94, 41
1, 195926, Tempo, 805369
1, 195950, Tempo, 805369
1, 195965, Note_on_c, 0, 94, 0
1, 195965, Note_on_c, 0, 92, 47
1, 196008, Note_on_c, 0, 92, 0
1, 196008, Note_on_c, 0, 94, 42
1, 196051, Note_on_c, 0, 94, 0
1, 196051, Note_on_c, 0, 92, 47
1, 196080, Tempo, 916031
1, 196080, Note_on_c, 0, 68, 50
1, 196094, Note_on_c, 0, 92, 0
1, 196095, Note_on_c, 0, 94, 41
1, 196138, Note_on_c, 0, 94, 0
1, 196138, Note_on_c, 0, 92, 47
1, 196142, Tempo, 895522
1, 196181, Note_on_c, 0, 92, 0
1, 196181, Note_on_c, 0, 94, 41
1, 196190, Tempo, 926641
1, 196224, Note_on_c, 0, 94, 0
1, 196224, Note_on_c, 0, 92, 47
1, 196267, Note_on_c, 0, 92, 0
1, 196267, Note_on_c, 0, 94, 42
1, 196290, Note_on_c, 0, 68, 0
1, 196290, Note_on_c, 0, 61, 44
1, 196305, Note_on_c, 0, 68, 46
1, 196310, Note_on_c, 0, 94, 0
1, 196320, Tempo, 857143
1, 196320, Note_on_c, 0, 89, 58
1, 196320, Note_on_c, 0, 77, 48
1, 196320, Note_on_c, 0, 92, 47
1, 196322, Tempo, 848057
1, 196342, Control_c, 0, 64, 0
1, 196346, Tempo, 839161
1, 196358, Tempo, 805369
1, 196363, Note_on_c, 0, 92, 0
1, 196363, Note_on_c, 0, 94, 41
1, 196380, Control_c, 0, 64, 127
1, 196406, Tempo, 821918
1, 196406, Note_on_c, 0, 94, 0
1, 196407, Note_on_c, 0, 92, 47
1, 196418, Tempo, 830450
1, 196430, Tempo, 848057
1, 196440, Note_on_c, 0, 77, 0
1, 196440, Note_on_c, 0, 68, 0
1, 196440, Note_on_c, 0, 61, 0
1, 196442, Tempo, 866426
1, 196450, Note_on_c, 0, 92, 0
1, 196450, Note_on_c, 0, 94, 41
1, 196490, Tempo, 857143
1, 196493, Note_on_c, 0, 94, 0
1, 196493, Note_on_c, 0, 92, 47
1, 196502, Tempo, 848057
1, 196514, Tempo, 839161
1, 196536, Note_on_c, 0, 92, 0
1, 196536, Note_on_c, 0, 94, 42
1, 196538, Tempo, 830450
1, 196550, Tempo, 821918
1, 196562, Tempo, 830450
1, 196574, Tempo, 857143
1, 196579, Note_on_c, 0, 94, 0
1, 196579, Note_on_c, 0, 92, 47
1, 196622, Tempo, 848057
1, 196622, Note_on_c, 0, 92, 0
1, 196623, Note_on_c, 0, 94, 40
1, 196634, Tempo, 821918
1, 196658, Tempo, 830450
1, 196666, Note_on_c, 0, 94, 0
1, 196666, Note_on_c, 0, 92, 47
1, 196670, Tempo, 848057
1, 196680, Note_on_c, 0, 89, 0
1, 196680, Note_on_c, 0, 87, 53
1, 196682, Tempo, 857143
1, 196694, Tempo, 866426
1, 196706, Tempo, 875912
1, 196709, Note_on_c, 0, 92, 0
1, 196709, Note_on_c, 0, 94, 41
1, 196718, Tempo, 848057
1, 196730, Tempo, 830450
1, 196752, Note_on_c, 0, 94, 0
1, 196752, Note_on_c, 0, 92, 47
1, 196754, Tempo, 821918
1, 196766, Tempo, 830450
1, 196770, Note_on_c, 0, 68, 47
1, 196778, Tempo, 839161
1, 196785, Note_on_c, 0, 75, 49
1, 196790, Tempo, 848057
1, 196795, Note_on_c, 0, 92, 0
1, 196795, Note_on_c, 0, 94, 41
1, 196800, Note_on_c, 0, 87, 0
1, 196800, Note_on_c, 0, 90, 57
1, 196800, Note_on_c, 0, 78, 51
1, 196802, Tempo, 857143
1, 196806, Control_c, 0, 64, 0
1, 196838, Note_on_c, 0, 94, 0
1, 196838, Control_c, 0, 64, 127
1, 196839, Note_on_c, 0, 92, 47
1, 196850, Tempo, 839161
1, 196862, Tempo, 821918
1, 196882, Note_on_c, 0, 92, 0
1, 196882, Note_on_c, 0, 94, 41
1, 196898, Tempo, 857143
1, 196910, Tempo, 866426
1, 196920, Note_on_c, 0, 78, 0
1, 196920, Note_on_c, 0, 75, 0
1, 196920, Note_on_c, 0, 68, 0
1, 196925, Note_on_c, 0, 94, 0
1, 196925, Note_on_c, 0, 92, 47
1, 196958, Tempo, 848057
1, 196968, Note_on_c, 0, 92, 0
1, 196968, Note_on_c, 0, 94, 42
1, 196970, Tempo, 830450
1, 197006, Tempo, 857143
1, 197011, Note_on_c, 0, 94, 0
1, 197011, Note_on_c, 0, 92, 47
1, 197054, Tempo, 821918
1, 197054, Note_on_c, 0, 92, 0
1, 197055, Note_on_c, 0, 94, 41
1, 197090, Tempo, 866426
1, 197098, Note_on_c, 0, 94, 0
1, 197098, Note_on_c, 0, 92, 47
1, 197141, Note_on_c, 0, 92, 0
1, 197141, Note_on_c, 0, 94, 41
1, 197160, Note_on_c, 0, 90, 0
1, 197160, Note_on_c, 0, 84, 52
1, 197184, Note_on_c, 0, 94, 0
1, 197184, Note_on_c, 0, 92, 47
1, 197186, Tempo, 857143
1, 197227, Note_on_c, 0, 92, 0
1, 197227, Note_on_c, 0, 94, 42
1, 197250, Note_on_c, 0, 61, 42
1, 197265, Note_on_c, 0, 68, 46
1, 197270, Note_on_c, 0, 94, 0
1, 197280, Tempo, 797342
1, 197280, Note_on_c, 0, 84, 0
1, 197280, Note_on_c, 0, 87, 59
1, 197280, Note_on_c, 0, 77, 49
1, 197280, Note_on_c, 0, 92, 47
1, 197289, Control_c, 0, 64, 0
1, 197323, Note_on_c, 0, 92, 0
1, 197323, Control_c, 0, 64, 127
1, 197323, Note_on_c, 0, 94, 41
1, 197330, Tempo, 781759
1, 197366, Tempo, 805369
1, 197366, Note_on_c, 0, 94, 0
1, 197367, Note_on_c, 0, 92, 47
1, 197400, Note_on_c, 0, 77, 0
1, 197400, Note_on_c, 0, 61, 0
1, 197400, Note_on_c, 0, 68, 0
1, 197410, Note_on_c, 0, 92, 0
1, 197410, Note_on_c, 0, 94, 41
1, 197453, Note_on_c, 0, 94, 0
1, 197453, Note_on_c, 0, 92, 47
1, 197496, Note_on_c, 0, 92, 0
1, 197496, Note_on_c, 0, 94, 42
1, 197520, Tempo, 866426
1, 197520, Note_on_c, 0, 87, 0
1, 197520, Note_on_c, 0, 85, 52
1, 197539, Note_on_c, 0, 94, 0
1, 197539, Note_on_c, 0, 92, 47
1, 197570, Tempo, 848057
1, 197582, Note_on_c, 0, 92, 0
1, 197583, Note_on_c, 0, 94, 40
1, 197606, Tempo, 866426
1, 197626, Note_on_c, 0, 94, 0
1, 197626, Note_on_c, 0, 92, 47
1, 197669, Note_on_c, 0, 92, 0
1, 197669, Note_on_c, 0, 94, 41
1, 197678, Tempo, 839161
1, 197712, Note_on_c, 0, 94, 0
1, 197712, Note_on_c, 0, 92, 47
1, 197714, Tempo, 866426
1, 197755, Note_on_c, 0, 92, 0
1, 197755, Note_on_c, 0, 94, 41
1, 197760, Note_on_c, 0, 85, 0
1, 197798, Note_on_c, 0, 94, 0
1, 197799, Note_on_c, 0, 92, 47
1, 197810, Tempo, 848057
1, 197842, Note_on_c, 0, 92, 0
1, 197842, Note_on_c, 0, 94, 41
1, 197846, Tempo, 875912
1, 197885, Note_on_c, 0, 94, 0
1, 197885, Note_on_c, 0, 92, 47
1, 197906, Tempo, 857143
1, 197940, Note_on_c, 0, 92, 0
1, 197940, Note_on_c, 0, 94, 42
1, 198000, Tempo, 805369
1, 198000, Note_on_c, 0, 94, 0
1, 198000, Note_on_c, 0, 73, 50
1, 198000, Note_on_c, 0, 92, 47
1, 198060, Note_on_c, 0, 92, 0
1, 198060, Note_on_c, 0, 94, 42
1, 198120, Note_on_c, 0, 94, 0
1, 198120, Note_on_c, 0, 91, 49
1, 198132, Control_c, 0, 64, 0
1, 198160, Note_on_c, 0, 92, 52
1, 198180, Note_on_c, 0, 91, 0
1, 198200, Note_on_c, 0, 92, 0
1, 198200, Note_on_c, 0, 93, 54
1, 198240, Tempo, 905660
1, 198240, Note_on_c, 0, 93, 0
1, 198240, Note_on_c, 0, 73, 0
1, 198240, Note_on_c, 0, 82, 44
1, 198240, Note_on_c, 0, 66, 44
1, 198240, Note_on_c, 0, 73, 44
1, 198240, Note_on_c, 0, 94, 64
1, 198275, Control_c, 0, 64, 127
1, 198283, Note_on_c, 0, 94, 0
1, 198283, Note_on_c, 0, 96, 41
1, 198326, Note_on_c, 0, 96, 0
1, 198327, Note_on_c, 0, 94, 47
1, 198360, Note_on_c, 0, 82, 0
1, 198370, Note_on_c, 0, 94, 0
1, 198370, Note_on_c, 0, 96, 41
1, 198413, Note_on_c, 0, 96, 0
1, 198413, Note_on_c, 0, 94, 47
1, 198456, Note_on_c, 0, 94, 0
1, 198456, Note_on_c, 0, 96, 42
1, 198480, Tempo, 821918
1, 198480, Note_on_c, 0, 73, 0
1, 198480, Note_on_c, 0, 66, 0
1, 198480, Note_on_c, 0, 82, 44
1, 198499, Note_on_c, 0, 96, 0
1, 198499, Note_on_c, 0, 94, 61
1, 198542, Note_on_c, 0, 94, 0
1, 198543, Note_on_c, 0, 96, 40
1, 198586, Note_on_c, 0, 96, 0
1, 198586, Note_on_c, 0, 94, 47
1, 198600, Note_on_c, 0, 82, 0
1, 198629, Note_on_c, 0, 94, 0
1, 198629, Note_on_c, 0, 96, 41
1, 198672, Note_on_c, 0, 96, 0
1, 198672, Note_on_c, 0, 94, 47
1, 198715, Note_on_c, 0, 94, 0
1, 198715, Note_on_c, 0, 96, 41
1, 198720, Tempo, 866426
1, 198720, Note_on_c, 0, 92, 60
1, 198720, Note_on_c, 0, 80, 54
1, 198720, Note_on_c, 0, 65, 44
1, 198720, Note_on_c, 0, 74, 44
1, 198722, Tempo, 848057
1, 198730, Control_c, 0, 64, 0
1, 198734, Tempo, 839161
1, 198755, Control_c, 0, 64, 127
1, 198758, Note_on_c, 0, 96, 0
1, 198759, Note_on_c, 0, 94, 47
1, 198782, Tempo, 866426
1, 198802, Note_on_c, 0, 94, 0
1, 198802, Note_on_c, 0, 96, 41
1, 198818, Tempo, 839161
1, 198830, Tempo, 830450
1, 198845, Note_on_c, 0, 96, 0
1, 198845, Note_on_c, 0, 94, 47
1, 198866, Tempo, 839161
1, 198878, Tempo, 866426
1, 198888, Note_on_c, 0, 94, 0
1, 198888, Note_on_c, 0, 96, 42
1, 198902, Tempo, 875912
1, 198926, Tempo, 866426
1, 198931, Note_on_c, 0, 96, 0
1, 198931, Note_on_c, 0, 94, 47
1, 198938, Tempo, 848057
1, 198950, Tempo, 821918
1, 198960, Note_on_c, 0, 65, 0
1, 198960, Note_on_c, 0, 74, 0
1, 198974, Note_on_c, 0, 94, 0
1, 198975, Note_on_c, 0, 96, 41
1, 198986, Tempo, 830450
1, 198998, Tempo, 848057
1, 199010, Tempo, 857143
1, 199018, Note_on_c, 0, 96, 0
1, 199018, Note_on_c, 0, 94, 47
1, 199022, Tempo, 866426
1, 199058, Tempo, 857143
1, 199061, Note_on_c, 0, 94, 0
1, 199061, Note_on_c, 0, 96, 41
1, 199070, Tempo, 848057
1, 199104, Note_on_c, 0, 96, 0
1, 199104, Note_on_c, 0, 94, 47
1, 199147, Note_on_c, 0, 94, 0
1, 199147, Note_on_c, 0, 96, 42
1, 199190, Tempo, 821918
1, 199190, Note_on_c, 0, 96, 0
1, 199200, Note_on_c, 0, 80, 0
1, 199200, Note_on_c, 0, 92, 0
1, 199200, Note_on_c, 0, 90, 56
1, 199200, Note_on_c, 0, 63, 48
1, 199200, Note_on_c, 0, 70, 48
1, 199200, Note_on_c, 0, 78, 50
1, 199200, Note_on_c, 0, 94, 47
1, 199202, Tempo, 813559
1, 199210, Control_c, 0, 64, 0
1, 199214, Tempo, 797342
1, 199237, Control_c, 0, 64, 127
1, 199243, Note_on_c, 0, 94, 0
1, 199243, Note_on_c, 0, 96, 41
1, 199250, Tempo, 805369
1, 199262, Tempo, 830450
1, 199274, Tempo, 848057
1, 199286, Tempo, 839161
1, 199286, Note_on_c, 0, 96, 0
1, 199287, Note_on_c, 0, 94, 47
1, 199298, Tempo, 805369
1, 199320, Note_on_c, 0, 78, 0
1, 199320, Note_on_c, 0, 90, 0
1, 199330, Note_on_c, 0, 94, 0
1, 199330, Note_on_c, 0, 96, 41
1, 199346, Tempo, 813559
1, 199358, Tempo, 821918
1, 199370, Tempo, 830450
1, 199373, Note_on_c, 0, 96, 0
1, 199373, Note_on_c, 0, 94, 47
1, 199382, Tempo, 857143
1, 199394, Tempo, 821918
1, 199406, Tempo, 813559
1, 199416, Note_on_c, 0, 94, 0
1, 199416, Note_on_c, 0, 96, 42
1, 199418, Tempo, 805369
1, 199430, Tempo, 797342
1, 199440, Note_on_c, 0, 70, 0
1, 199440, Note_on_c, 0, 63, 0
1, 199440, Note_on_c, 0, 90, 60
1, 199440, Note_on_c, 0, 78, 54
1, 199459, Note_on_c, 0, 96, 0
1, 199459, Note_on_c, 0, 94, 47
1, 199490, Tempo, 839161
1, 199502, Tempo, 848057
1, 199502, Note_on_c, 0, 94, 0
1, 199503, Note_on_c, 0, 96, 40
1, 199514, Tempo, 857143
1, 199538, Tempo, 848057
1, 199546, Note_on_c, 0, 96, 0
1, 199546, Note_on_c, 0, 94, 47
1, 199550, Tempo, 839161
1, 199562, Tempo, 830450
1, 199586, Tempo, 821918
1, 199589, Note_on_c, 0, 94, 0
1, 199589, Note_on_c, 0, 96, 41
1, 199610, Tempo, 813559
1, 199622, Tempo, 805369
1, 199632, Note_on_c, 0, 96, 0
1, 199632, Note_on_c, 0, 94, 47
1, 199634, Tempo, 830450
1, 199646, Tempo, 839161
1, 199675, Note_on_c, 0, 94, 0
1, 199675, Note_on_c, 0, 96, 41
1, 199682, Tempo, 789474
1, 199718, Note_on_c, 0, 96, 0
1, 199719, Note_on_c, 0, 94, 47
1, 199742, Tempo, 830450
1, 199754, Tempo, 848057
1, 199762, Note_on_c, 0, 94, 0
1, 199762, Note_on_c, 0, 96, 41
1, 199778, Tempo, 821918
1, 199790, Tempo, 805369
1, 199805, Note_on_c, 0, 96, 0
1, 199805, Note_on_c, 0, 94, 47
1, 199826, Tempo, 821918
1, 199838, Tempo, 830450
1, 199848, Note_on_c, 0, 94, 0
1, 199848, Note_on_c, 0, 96, 42
1, 199891, Note_on_c, 0, 96, 0
1, 199891, Note_on_c, 0, 94, 47
1, 199920, Tempo, 995851
1, 199920, Note_on_c, 0, 78, 0
1, 199920, Note_on_c, 0, 90, 0
1, 199920, Note_on_c, 0, 75, 53
1, 199920, Note_on_c, 0, 78, 53
1, 199934, Note_on_c, 0, 94, 0
1, 199935, Note_on_c, 0, 96, 41
1, 199978, Note_on_c, 0, 96, 0
1, 199980, Note_on_c, 0, 93, 54
1, 199997, Control_c, 0, 64, 0
1, 200025, Note_on_c, 0, 93, 0
1, 200025, Note_on_c, 0, 94, 56
1, 200070, Note_on_c, 0, 94, 0
1, 200070, Note_on_c, 0, 95, 58
1, 200115, Note_on_c, 0, 95, 0
1, 200115, Note_on_c, 0, 96, 60
1, 200150, Tempo, 885609
1, 200160, Note_on_c, 0, 96, 0
1, 200160, Note_on_c, 0, 78, 0
1, 200160, Note_on_c, 0, 75, 0
1, 200160, Note_on_c, 0, 82, 61
1, 200160, Note_on_c, 0, 85, 61
1, 200160, Control_c, 0, 64, 127
1, 200160, Note_on_c, 0, 97, 70
1, 200162, Tempo, 875912
1, 200174, Tempo, 866426
1, 200186, Tempo, 857143
1, 200203, Note_on_c, 0, 97, 0
1, 200203, Note_on_c, 0, 99, 41
1, 200210, Tempo, 895522
1, 200222, Tempo, 916031
1, 200234, Tempo, 905660
1, 200246, Tempo, 875912
1, 200246, Note_on_c, 0, 99, 0
1, 200247, Note_on_c, 0, 97, 47
1, 200258, Tempo, 866426
1, 200270, Tempo, 857143
1, 200290, Note_on_c, 0, 97, 0
1, 200290, Note_on_c, 0, 99, 41
1, 200318, Tempo, 895522
1, 200330, Tempo, 905660
1, 200333, Note_on_c, 0, 99, 0
1, 200333, Note_on_c, 0, 97, 47
1, 200342, Tempo, 916031
1, 200354, Tempo, 905660
1, 200366, Tempo, 885609
1, 200376, Note_on_c, 0, 97, 0
1, 200376, Note_on_c, 0, 99, 42
1, 200390, Tempo, 875912
1, 200400, Note_on_c, 0, 85, 0
1, 200400, Note_on_c, 0, 82, 0
1, 200400, Note_on_c, 0, 82, 53
1, 200400, Note_on_c, 0, 85, 53
1, 200419, Note_on_c, 0, 99, 0
1, 200419, Note_on_c, 0, 97, 66
1, 200462, Note_on_c, 0, 97, 0
1, 200463, Note_on_c, 0, 99, 40
1, 200486, Tempo, 895522
1, 200506, Note_on_c, 0, 99, 0
1, 200506, Note_on_c, 0, 97, 47
1, 200546, Tempo, 885609
1, 200549, Note_on_c, 0, 97, 0
1, 200549, Note_on_c, 0, 99, 41
1, 200558, Tempo, 866426
1, 200570, Tempo, 848057
1, 200592, Note_on_c, 0, 99, 0
1, 200592, Note_on_c, 0, 97, 47
1, 200594, Tempo, 839161
1, 200606, Tempo, 848057
1, 200618, Tempo, 857143
1, 200630, Tempo, 866426
1, 200635, Note_on_c, 0, 97, 0
1, 200635, Note_on_c, 0, 99, 41
1, 200640, Note_on_c, 0, 85, 0
1, 200640, Note_on_c, 0, 82, 0
1, 200640, Note_on_c, 0, 96, 64
1, 200640, Note_on_c, 0, 80, 60
1, 200640, Note_on_c, 0, 84, 60
1, 200642, Tempo, 875912
1, 200649, Control_c, 0, 64, 0
1, 200654, Tempo, 905660
1, 200678, Tempo, 885609
1, 200678, Note_on_c, 0, 99, 0
1, 200679, Note_on_c, 0, 97, 47
1, 200688, Control_c, 0, 64, 127
1, 200690, Tempo, 875912
1, 200702, Tempo, 866426
1, 200714, Tempo, 857143
1, 200722, Note_on_c, 0, 97, 0
1, 200722, Note_on_c, 0, 99, 41
1, 200750, Tempo, 866426
1, 200762, Tempo, 875912
1, 200765, Note_on_c, 0, 99, 0
1, 200765, Note_on_c, 0, 97, 47
1, 200774, Tempo, 916031
1, 200786, Tempo, 905660
1, 200798, Tempo, 895522
1, 200808, Note_on_c, 0, 97, 0
1, 200808, Note_on_c, 0, 99, 42
1, 200810, Tempo, 885609
1, 200822, Tempo, 875912
1, 200834, Tempo, 866426
1, 200851, Note_on_c, 0, 99, 0
1, 200851, Note_on_c, 0, 97, 47
1, 200882, Tempo, 875912
1, 200894, Tempo, 885609
1, 200894, Note_on_c, 0, 97, 0
1, 200895, Note_on_c, 0, 99, 41
1, 200938, Note_on_c, 0, 99, 0
1, 200938, Note_on_c, 0, 97, 47
1, 200981, Note_on_c, 0, 97, 0
1, 200981, Note_on_c, 0, 99, 41
1, 201000, Tempo, 1061947
1, 201000, Note_on_c, 0, 84, 0
1, 201000, Note_on_c, 0, 96, 0
1, 201000, Note_on_c, 0, 80, 0
1, 201000, Note_on_c, 0, 94, 55
1, 201000, Note_on_c, 0, 78, 48
1, 201000, Note_on_c, 0, 82, 57
1, 201024, Note_on_c, 0, 99, 0
1, 201024, Note_on_c, 0, 97, 47
1, 201067, Note_on_c, 0, 97, 0
1, 201067, Note_on_c, 0, 99, 42
1, 201110, Tempo, 895522
1, 201110, Note_on_c, 0, 99, 0
1, 201120, Note_on_c, 0, 94, 0
1, 201120, Note_on_c, 0, 78, 0
1, 201120, Note_on_c, 0, 82, 0
1, 201120, Note_on_c, 0, 92, 65
1, 201120, Note_on_c, 0, 77, 56
1, 201120, Note_on_c, 0, 80, 65
1, 201120, Note_on_c, 0, 97, 47
1, 201129, Control_c, 0, 64, 0
1, 201134, Tempo, 885609
1, 201154, Control_c, 0, 64, 127
1, 201158, Tempo, 875912
1, 201163, Note_on_c, 0, 97, 0
1, 201163, Note_on_c, 0, 99, 41
1, 201170, Tempo, 866426
1, 201194, Tempo, 875912
1, 201206, Tempo, 895522
1, 201206, Note_on_c, 0, 99, 0
1, 201207, Note_on_c, 0, 97, 47
1, 201218, Tempo, 916031
1, 201240, Note_on_c, 0, 80, 0
1, 201240, Note_on_c, 0, 77, 0
1, 201242, Tempo, 905660
1, 201250, Note_on_c, 0, 97, 0
1, 201250, Note_on_c, 0, 99, 41
1, 201254, Tempo, 875912
1, 201266, Tempo, 857143
1, 201290, Tempo, 885609
1, 201293, Note_on_c, 0, 99, 0
1, 201293, Note_on_c, 0, 97, 47
1, 201302, Tempo, 895522
1, 201314, Tempo, 905660
1, 201326, Tempo, 916031
1, 201336, Note_on_c, 0, 97, 0
1, 201336, Note_on_c, 0, 99, 42
1, 201360, Note_on_c, 0, 68, 56
1, 201360, Note_on_c, 0, 77, 56
1, 201360, Note_on_c, 0, 80, 56
1, 201379, Note_on_c, 0, 99, 0
1, 201379, Note_on_c, 0, 97, 47
1, 201386, Tempo, 905660
1, 201398, Tempo, 866426
1, 201422, Note_on_c, 0, 97, 0
1, 201423, Note_on_c, 0, 99, 40
1, 201434, Tempo, 885609
1, 201446, Tempo, 895522
1, 201466, Note_on_c, 0, 99, 0
1, 201466, Note_on_c, 0, 97, 47
1, 201494, Tempo, 905660
1, 201509, Note_on_c, 0, 97, 0
1, 201509, Note_on_c, 0, 99, 41
1, 201530, Tempo, 895522
1, 201542, Tempo, 875912
1, 201552, Note_on_c, 0, 99, 0
1, 201552, Note_on_c, 0, 97, 47
1, 201578, Tempo, 926641
1, 201595, Note_on_c, 0, 97, 0
1, 201595, Note_on_c, 0, 99, 41
1, 201600, Note_on_c, 0, 92, 0
1, 201614, Tempo, 895522
1, 201638, Note_on_c, 0, 99, 0
1, 201639, Note_on_c, 0, 97, 47
1, 201682, Note_on_c, 0, 97, 0
1, 201682, Note_on_c, 0, 99, 41
1, 201686, Tempo, 905660
1, 201698, Tempo, 916031
1, 201725, Note_on_c, 0, 99, 0
1, 201725, Note_on_c, 0, 97, 47
1, 201768, Note_on_c, 0, 97, 0
1, 201768, Note_on_c, 0, 99, 42
1, 201811, Note_on_c, 0, 99, 0
1, 201811, Note_on_c, 0, 97, 47
1, 201840, Tempo, 628272
1, 201840, Note_on_c, 0, 77, 0
1, 201840, Note_on_c, 0, 80, 0
1, 201840, Note_on_c, 0, 68, 0
1, 201840, Note_on_c, 0, 96, 45
1, 201840, Note_on_c, 0, 77, 50
1, 201840, Note_on_c, 0, 81, 50
1, 201848, Tempo, 618557
1, 201854, Note_on_c, 0, 97, 0
1, 201854, Note_on_c, 0, 99, 41
1, 201878, Tempo, 613811
1, 201886, Control_c, 0, 64, 0
1, 201890, Note_on_c, 0, 99, 0
1, 201893, Tempo, 609137
1, 201908, Tempo, 604534
1, 201920, Note_on_c, 0, 96, 0
1, 201920, Note_on_c, 0, 97, 48
1, 201938, Tempo, 600000
1, 201953, Tempo, 595533
1, 201968, Tempo, 591133
1, 202000, Note_on_c, 0, 97, 0
1, 202000, Note_on_c, 0, 98, 51
1, 202035, Note_on_c, 0, 77, 0
1, 202035, Note_on_c, 0, 81, 0
1, 202035, Note_on_c, 0, 68, 45
1, 202050, Note_on_c, 0, 72, 49
1, 202065, Note_on_c, 0, 78, 53
1, 202080, Time_signature, 4, 2, 24, 8
1, 202080, Tempo, 805369
1, 202080, Note_on_c, 0, 98, 0
1, 202080, Note_on_c, 0, 101, 54
1, 202080, Note_on_c, 0, 82, 58
1, 202080, Control_c, 0, 64, 127
1, 202132, Note_on_c, 0, 101, 0
1, 202132, Note_on_c, 0, 99, 48
1, 202183, Note_on_c, 0, 99, 0
1, 202183, Note_on_c, 0, 97, 47
1, 202200, Note_on_c, 0, 82, 0
1, 202200, Note_on_c, 0, 68, 0
1, 202200, Note_on_c, 0, 78, 0
1, 202200, Note_on_c, 0, 72, 0
1, 202235, Note_on_c, 0, 97, 0
1, 202235, Note_on_c, 0, 96, 46
1, 202287, Note_on_c, 0, 96, 0
1, 202287, Note_on_c, 0, 94, 45
1, 202335, Tempo, 813559
1, 202338, Note_on_c, 0, 94, 0
1, 202338, Note_on_c, 0, 92, 45
1, 202390, Note_on_c, 0, 92, 0
1, 202390, Note_on_c, 0, 90, 44
1, 202441, Note_on_c, 0, 90, 0
1, 202441, Note_on_c, 0, 89, 43
1, 202493, Note_on_c, 0, 89, 0
1, 202493, Note_on_c, 0, 87, 42
1, 202545, Note_on_c, 0, 87, 0
1, 202545, Note_on_c, 0, 85, 42
1, 202596, Note_on_c, 0, 85, 0
1, 202596, Note_on_c, 0, 84, 41
1, 202605, Tempo, 805369
1, 202648, Note_on_c, 0, 84, 0
1, 202648, Note_on_c, 0, 82, 40
1, 202699, Note_on_c, 0, 82, 0
1, 202699, Note_on_c, 0, 80, 39
1, 202751, Note_on_c, 0, 80, 0
1, 202751, Note_on_c, 0, 78, 39
1, 202803, Note_on_c, 0, 78, 0
1, 202803, Note_on_c, 0, 77, 38
1, 202854, Note_on_c, 0, 77, 0
1, 202854, Note_on_c, 0, 75, 37
1, 202875, Tempo, 797342
1, 202906, Note_on_c, 0, 75, 0
1, 202906, Note_on_c, 0, 73, 36
1, 202957, Note_on_c, 0, 73, 0
1, 202957, Note_on_c, 0, 72, 36
1, 203009, Note_on_c, 0, 72, 0
1, 203009, Note_on_c, 0, 70, 35
1, 203061, Note_on_c, 0, 70, 0
1, 203061, Note_on_c, 0, 68, 34
1, 203112, Note_on_c, 0, 68, 0
1, 203112, Note_on_c, 0, 66, 33
1, 203164, Note_on_c, 0, 66, 0
1, 203164, Note_on_c, 0, 65, 33
1, 203175, Tempo, 789474
1, 203215, Note_on_c, 0, 65, 0
1, 203215, Note_on_c, 0, 63, 32
1, 203267, Note_on_c, 0, 63, 0
1, 203267, Note_on_c, 0, 61, 31
1, 203319, Note_on_c, 0, 61, 0
1, 203319, Note_on_c, 0, 60, 30
1, 203370, Note_on_c, 0, 60, 0
1, 203370, Note_on_c, 0, 58, 34
1, 203422, Note_on_c, 0, 58, 0
1, 203422, Note_on_c, 0, 56, 35
1, 203445, Tempo, 781759
1, 203473, Note_on_c, 0, 56, 0
1, 203473, Note_on_c, 0, 54, 35
1, 203525, Note_on_c, 0, 54, 0
1, 203525, Note_on_c, 0, 53, 35
1, 203577, Note_on_c, 0, 53, 0
1, 203577, Note_on_c, 0, 51, 35
1, 203628, Note_on_c, 0, 51, 0
1, 203628, Note_on_c, 0, 49, 35
1, 203680, Note_on_c, 0, 49, 0
1, 203680, Note_on_c, 0, 48, 35
1, 203715, Tempo, 774194
1, 203731, Note_on_c, 0, 48, 0
1, 203731, Note_on_c, 0, 46, 35
1, 203783, Note_on_c, 0, 46, 0
1, 203783, Note_on_c, 0, 44, 35
1, 203835, Note_on_c, 0, 44, 0
1, 203835, Note_on_c, 0, 42, 35
1, 203886, Note_on_c, 0, 42, 0
1, 203886, Note_on_c, 0, 41, 35
1, 203937, Note_on_c, 0, 39, 35
1, 203938, Note_on_c, 0, 41, 0
1, 203955, Tempo, 759494
1, 204000, Time_signature, 2, 2, 24, 8
1, 204000, Note_on_c, 0, 39, 0
1, 204000, Note_on_c, 0, 37, 35
1, 204007, Control_c, 0, 64, 0
1, 204015, Tempo, 766773
1, 204049, Control_c, 0, 64, 127
1, 204060, Note_on_c, 0, 37, 0
1, 204060, Note_on_c, 0, 41, 35
1, 204075, Tempo, 774194
1, 204120, Note_on_c, 0, 41, 0
1, 204120, Note_on_c, 0, 44, 36
1, 204135, Tempo, 781759
1, 204180, Note_on_c, 0, 44, 0
1, 204180, Note_on_c, 0, 49, 37
1, 204195, Tempo, 789474
1, 204240, Note_on_c, 0, 49, 0
1, 204240, Note_on_c, 0, 53, 38
1, 204255, Tempo, 797342
1, 204300, Note_on_c, 0, 53, 0
1, 204300, Note_on_c, 0, 56, 39
1, 204315, Tempo, 805369
1, 204360, Note_on_c, 0, 56, 0
1, 204360, Note_on_c, 0, 61, 39
1, 204375, Tempo, 813559
1, 204420, Note_on_c, 0, 61, 0
1, 204420, Note_on_c, 0, 65, 40
1, 204435, Tempo, 821918
1, 204480, Note_on_c, 0, 65, 0
1, 204480, Note_on_c, 0, 68, 42
1, 204495, Tempo, 830450
1, 204540, Note_on_c, 0, 68, 0
1, 204540, Note_on_c, 0, 73, 44
1, 204600, Note_on_c, 0, 73, 0
1, 204600, Note_on_c, 0, 77, 46
1, 204660, Note_on_c, 0, 77, 0
1, 204660, Note_on_c, 0, 80, 48
1, 204720, Note_on_c, 0, 80, 0
1, 204720, Note_on_c, 0, 85, 48
1, 204750, Note_on_c, 0, 89, 50
1, 204780, Note_on_c, 0, 92, 52
1, 204810, Note_on_c, 0, 97, 54
1, 204960, Note_on_c, 0, 97, 0
1, 204960, Note_on_c, 0, 85, 0
1, 204960, Note_on_c, 0, 89, 0
1, 204960, Note_on_c, 0, 92, 0
1, 205020, Control_c, 0, 64, 0
1, 205680, Tempo, 595533
1, 205800, Note_on_c, 0, 68, 50
1, 205920, Tempo, 638298
1, 205920, Note_on_c, 0, 68, 0
1, 205920, Note_on_c, 0, 77, 58
1, 205920, Note_on_c, 0, 49, 41
1, 205946, Control_c, 0, 64, 127
1, 206040, Note_on_c, 0, 49, 0
1, 206160, Tempo, 586797
1, 206160, Note_on_c, 0, 65, 40
1, 206160, Note_on_c, 0, 68, 40
1, 206160, Note_on_c, 0, 56, 34
1, 206160, Note_on_c, 0, 61, 34
1, 206220, Note_on_c, 0, 61, 0
1, 206220, Note_on_c, 0, 68, 0
1, 206220, Note_on_c, 0, 56, 0
1, 206220, Note_on_c, 0, 65, 0
1, 206280, Tempo, 638298
1, 206280, Note_on_c, 0, 77, 0
1, 206280, Note_on_c, 0, 75, 53
1, 206400, Tempo, 586797
1, 206400, Note_on_c, 0, 75, 0
1, 206400, Note_on_c, 0, 78, 57
1, 206400, Note_on_c, 0, 44, 42
1, 206420, Control_c, 0, 64, 0
1, 206495, Control_c, 0, 64, 127
1, 206520, Note_on_c, 0, 44, 0
1, 206640, Tempo, 609137
1, 206640, Note_on_c, 0, 66, 40
1, 206640, Note_on_c, 0, 68, 40
1, 206640, Note_on_c, 0, 56, 34
1, 206640, Note_on_c, 0, 63, 34
1, 206700, Note_on_c, 0, 63, 0
1, 206700, Note_on_c, 0, 68, 0
1, 206700, Note_on_c, 0, 78, 0
1, 206700, Note_on_c, 0, 66, 0
1, 206700, Note_on_c, 0, 56, 0
1, 206760, Note_on_c, 0, 72, 52
1, 206820, Note_on_c, 0, 72, 0
1, 206820, Note_on_c, 0, 75, 59
1, 206880, Tempo, 633245
1, 206880, Note_on_c, 0, 75, 0
1, 206880, Note_on_c, 0, 73, 59
1, 206880, Note_on_c, 0, 49, 44
1, 206880, Control_c, 0, 64, 0
1, 206940, Note_on_c, 0, 49, 0
1, 206940, Note_on_c, 0, 73, 0
1, 207099, Control_c, 0, 64, 127
1, 207120, Tempo, 595533
1, 207120, Note_on_c, 0, 65, 40
1, 207120, Note_on_c, 0, 68, 40
1, 207120, Note_on_c, 0, 73, 52
1, 207120, Note_on_c, 0, 56, 34
1, 207120, Note_on_c, 0, 61, 34
1, 207180, Note_on_c, 0, 61, 0
1, 207180, Note_on_c, 0, 68, 0
1, 207180, Note_on_c, 0, 65, 0
1, 207180, Note_on_c, 0, 56, 0
1, 207360, Tempo, 628272
1, 207360, Note_on_c, 0, 49, 45
1, 207420, Note_on_c, 0, 49, 0
1, 207600, Tempo, 618557
1, 207600, Note_on_c, 0, 73, 0
1, 207600, Note_on_c, 0, 65, 40
1, 207600, Note_on_c, 0, 68, 40
1, 207600, Note_on_c, 0, 73, 50
1, 207600, Note_on_c, 0, 56, 34
1, 207600, Note_on_c, 0, 61, 34
1, 207660, Note_on_c, 0, 61, 0
1, 207660, Note_on_c, 0, 68, 0
1, 207660, Note_on_c, 0, 65, 0
1, 207660, Note_on_c, 0, 56, 0
1, 207840, Note_on_c, 0, 73, 0
1, 207840, Note_on_c, 0, 82, 59
1, 207840, Note_on_c, 0, 54, 47
1, 207840, Control_c, 0, 64, 0
1, 207900, Note_on_c, 0, 54, 0
1, 207900, Note_on_c, 0, 82, 0
1, 208057, Control_c, 0, 64, 127
1, 208080, Note_on_c, 0, 70, 40
1, 208080, Note_on_c, 0, 82, 55
1, 208080, Note_on_c, 0, 66, 40
1, 208080, Note_on_c, 0, 66, 34
1, 208080, Note_on_c, 0, 61, 34
1, 208140, Note_on_c, 0, 61, 0
1, 208140, Note_on_c, 0, 66, 0
1, 208140, Note_on_c, 0, 66, 0
1, 208140, Note_on_c, 0, 70, 0
1, 208200, Note_on_c, 0, 82, 0
1, 208320, Tempo, 648649
1, 208320, Note_on_c, 0, 80, 60
1, 208320, Note_on_c, 0, 53, 47
1, 208342, Control_c, 0, 64, 0
1, 208380, Note_on_c, 0, 53, 0
1, 208429, Control_c, 0, 64, 127
1, 208560, Note_on_c, 0, 70, 40
1, 208560, Note_on_c, 0, 68, 40
1, 208560, Note_on_c, 0, 65, 34
1, 208560, Note_on_c, 0, 62, 34
1, 208620, Note_on_c, 0, 62, 0
1, 208620, Note_on_c, 0, 68, 0
1, 208620, Note_on_c, 0, 65, 0
1, 208620, Note_on_c, 0, 70, 0
1, 208800, Tempo, 609137
1, 208800, Note_on_c, 0, 80, 0
1, 208800, Note_on_c, 0, 78, 56
1, 208800, Note_on_c, 0, 51, 43
1, 208800, Control_c, 0, 64, 0
1, 208860, Note_on_c, 0, 78, 0
1, 208920, Note_on_c, 0, 51, 0
1, 209012, Control_c, 0, 64, 127
1, 209040, Tempo, 648649
1, 209040, Note_on_c, 0, 70, 40
1, 209040, Note_on_c, 0, 66, 40
1, 209040, Note_on_c, 0, 78, 60
1, 209040, Note_on_c, 0, 63, 34
1, 209040, Note_on_c, 0, 58, 34
1, 209100, Note_on_c, 0, 58, 0
1, 209100, Note_on_c, 0, 66, 0
1, 209100, Note_on_c, 0, 70, 0
1, 209100, Note_on_c, 0, 63, 0
1, 209280, Note_on_c, 0, 51, 46
1, 209400, Note_on_c, 0, 51, 0
1, 209520, Tempo, 738462
1, 209520, Note_on_c, 0, 78, 0
1, 209520, Note_on_c, 0, 66, 40
1, 209520, Note_on_c, 0, 70, 40
1, 209520, Note_on_c, 0, 78, 53
1, 209520, Note_on_c, 0, 63, 34
1, 209520, Note_on_c, 0, 58, 34
1, 209580, Note_on_c, 0, 58, 0
1, 209580, Note_on_c, 0, 70, 0
1, 209580, Note_on_c, 0, 66, 0
1, 209580, Note_on_c, 0, 63, 0
1, 209760, Tempo, 699708
1, 209760, Note_on_c, 0, 78, 0
1, 209760, Note_on_c, 0, 85, 61
1, 209760, Note_on_c, 0, 42, 50
1, 209817, Control_c, 0, 64, 0
1, 209880, Note_on_c, 0, 42, 0
1, 209880, Note_on_c, 0, 85, 0
1, 209880, Control_c, 0, 64, 127
1, 210000, Tempo, 745342
1, 210000, Note_on_c, 0, 85, 60
1, 210000, Note_on_c, 0, 73, 40
1, 210000, Note_on_c, 0, 82, 60
1, 210000, Note_on_c, 0, 61, 33
1, 210000, Note_on_c, 0, 70, 40
1, 210240, Note_on_c, 0, 70, 0
1, 210240, Note_on_c, 0, 82, 0
1, 210240, Note_on_c, 0, 85, 0
1, 210240, Note_on_c, 0, 73, 0
1, 210240, Note_on_c, 0, 61, 0
1, 210240, Note_on_c, 0, 80, 64
1, 210240, Note_on_c, 0, 84, 64
1, 210240, Note_on_c, 0, 72, 40
1, 210240, Note_on_c, 0, 61, 33
1, 210240, Note_on_c, 0, 68, 40
1, 210261, Control_c, 0, 64, 0
1, 210396, Control_c, 0, 64, 127
1, 210480, Tempo, 805369
1, 210600, Tempo, 1121495
1, 210600, Note_on_c, 0, 68, 0
1, 210600, Note_on_c, 0, 80, 0
1, 210600, Note_on_c, 0, 72, 0
1, 210600, Note_on_c, 0, 84, 0
1, 210600, Note_on_c, 0, 82, 55
1, 210600, Note_on_c, 0, 70, 40
1, 210600, Note_on_c, 0, 78, 55
1, 210600, Note_on_c, 0, 66, 40
1, 210660, Tempo, 752351
1, 210660, Note_on_c, 0, 78, 0
1, 210660, Note_on_c, 0, 70, 0
1, 210660, Note_on_c, 0, 82, 0
1, 210660, Note_on_c, 0, 78, 52
1, 210660, Note_on_c, 0, 82, 52
1, 210720, Tempo, 705882
1, 210720, Note_on_c, 0, 82, 0
1, 210720, Note_on_c, 0, 66, 0
1, 210720, Note_on_c, 0, 61, 0
1, 210720, Note_on_c, 0, 78, 0
1, 210720, Note_on_c, 0, 77, 65
1, 210720, Note_on_c, 0, 80, 65
1, 210720, Note_on_c, 0, 44, 50
1, 210720, Control_c, 0, 64, 0
1, 210780, Note_on_c, 0, 80, 0
1, 210780, Note_on_c, 0, 77, 0
1, 210840, Note_on_c, 0, 44, 0
1, 210939, Control_c, 0, 64, 127
1, 210960, Tempo, 738462
1, 210960, Note_on_c, 0, 80, 56
1, 210960, Note_on_c, 0, 68, 56
1, 210960, Note_on_c, 0, 77, 56
1, 210960, Note_on_c, 0, 65, 40
1, 210960, Note_on_c, 0, 61, 40
1, 211080, Note_on_c, 0, 61, 0
1, 211080, Note_on_c, 0, 65, 0
1, 211200, Note_on_c, 0, 56, 40
1, 211286, Tempo, 905660
1, 211298, Tempo, 916031
1, 211320, Note_on_c, 0, 56, 0
1, 211412, Control_c, 0, 64, 0
1, 211440, Note_on_c, 0, 77, 0
1, 211440, Note_on_c, 0, 68, 0
1, 211440, Note_on_c, 0, 80, 0
1, 211560, Tempo, 456274
1, 211560, Note_on_c, 0, 81, 50
1, 211560, Note_on_c, 0, 77, 50
1, 211560, Note_on_c, 0, 65, 46
1, 211560, Note_on_c, 0, 69, 46
1, 211680, Tempo, 718563
1, 211680, Note_on_c, 0, 69, 0
1, 211680, Note_on_c, 0, 81, 0
1, 211680, Note_on_c, 0, 77, 0
1, 211680, Note_on_c, 0, 65, 0
1, 211680, Note_on_c, 0, 78, 56
1, 211680, Note_on_c, 0, 82, 56
1, 211680, Note_on_c, 0, 66, 50
1, 211680, Note_on_c, 0, 70, 50
1, 211740, Note_on_c, 0, 70, 0
1, 211740, Note_on_c, 0, 78, 0
1, 211740, Note_on_c, 0, 82, 0
1, 211740, Note_on_c, 0, 66, 0
1, 211920, Tempo, 648649
1, 211920, Note_on_c, 0, 82, 56
1, 211920, Note_on_c, 0, 78, 56
1, 211920, Note_on_c, 0, 66, 50
1, 211920, Note_on_c, 0, 70, 50
1, 212400, Tempo, 718563
1, 212400, Note_on_c, 0, 70, 0
1, 212400, Note_on_c, 0, 82, 0
1, 212400, Note_on_c, 0, 78, 0
1, 212400, Note_on_c, 0, 66, 0
1, 212400, Note_on_c, 0, 66, 40
1, 212400, Note_on_c, 0, 72, 51
1, 212400, Note_on_c, 0, 63, 47
1, 212400, Note_on_c, 0, 56, 37
1, 212640, Tempo, 738462
1, 212640, Note_on_c, 0, 56, 0
1, 212640, Note_on_c, 0, 66, 0
1, 212640, Note_on_c, 0, 72, 0
1, 212640, Note_on_c, 0, 63, 0
1, 212640, Note_on_c, 0, 73, 54
1, 212640, Note_on_c, 0, 65, 43
1, 212640, Note_on_c, 0, 61, 51
1, 212700, Note_on_c, 0, 61, 0
1, 212700, Note_on_c, 0, 65, 0
1, 212700, Note_on_c, 0, 73, 0
1, 212880, Note_on_c, 0, 73, 56
1, 212880, Note_on_c, 0, 65, 44
1, 212880, Note_on_c, 0, 61, 53
1, 212880, Note_on_c, 0, 49, 42
1, 212880, Note_on_c, 0, 56, 42
1, 213120, Tempo, 766773
1, 213360, Tempo, 591133
1, 213360, Note_on_c, 0, 56, 0
1, 213360, Note_on_c, 0, 61, 0
1, 213360, Note_on_c, 0, 73, 0
1, 213360, Note_on_c, 0, 65, 0
1, 213360, Note_on_c, 0, 49, 0
1, 213480, Note_on_c, 0, 80, 55
1, 213480, Note_on_c, 0, 68, 42
1, 213600, Tempo, 623377
1, 213600, Note_on_c, 0, 68, 0
1, 213600, Note_on_c, 0, 80, 0
1, 213600, Note_on_c, 0, 77, 49
1, 213600, Note_on_c, 0, 89, 63
1, 213600, Note_on_c, 0, 49, 47
1, 213600, Note_on_c, 0, 37, 37
1, 213626, Control_c, 0, 64, 127
1, 213720, Note_on_c, 0, 37, 0
1, 213720, Note_on_c, 0, 49, 0
1, 213840, Tempo, 586797
1, 213840, Note_on_c, 0, 61, 34
1, 213840, Note_on_c, 0, 65, 34
1, 213840, Note_on_c, 0, 68, 34
1, 213900, Note_on_c, 0, 68, 0
1, 213900, Note_on_c, 0, 61, 0
1, 213900, Note_on_c, 0, 65, 0
1, 213960, Tempo, 638298
1, 213960, Note_on_c, 0, 89, 0
1, 213960, Note_on_c, 0, 77, 0
1, 213960, Note_on_c, 0, 87, 58
1, 213960, Note_on_c, 0, 75, 45
1, 214080, Tempo, 586797
1, 214080, Note_on_c, 0, 75, 0
1, 214080, Note_on_c, 0, 87, 0
1, 214080, Note_on_c, 0, 78, 48
1, 214080, Note_on_c, 0, 90, 62
1, 214080, Note_on_c, 0, 56, 47
1, 214080, Note_on_c, 0, 44, 37
1, 214100, Control_c, 0, 64, 0
1, 214175, Control_c, 0, 64, 127
1, 214200, Note_on_c, 0, 44, 0
1, 214200, Note_on_c, 0, 56, 0
1, 214320, Tempo, 609137
1, 214320, Note_on_c, 0, 63, 34
1, 214320, Note_on_c, 0, 66, 34
1, 214320, Note_on_c, 0, 68, 34
1, 214380, Note_on_c, 0, 68, 0
1, 214380, Note_on_c, 0, 63, 0
1, 214380, Note_on_c, 0, 66, 0
1, 214440, Note_on_c, 0, 90, 0
1, 214440, Note_on_c, 0, 78, 0
1, 214440, Note_on_c, 0, 72, 44
1, 214440, Note_on_c, 0, 84, 57
1, 214560, Tempo, 633245
1, 214560, Note_on_c, 0, 84, 0
1, 214560, Note_on_c, 0, 72, 0
1, 214560, Note_on_c, 0, 87, 64
1, 214560, Note_on_c, 0, 75, 50
1, 214560, Note_on_c, 0, 49, 45
1, 214560, Note_on_c, 0, 37, 36
1, 214560, Control_c, 0, 64, 0
1, 214620, Note_on_c, 0, 37, 0
1, 214620, Note_on_c, 0, 87, 0
1, 214620, Note_on_c, 0, 75, 0
1, 214620, Note_on_c, 0, 49, 0
1, 214779, Control_c, 0, 64, 127
1, 214800, Tempo, 595533
1, 214800, Note_on_c, 0, 73, 44
1, 214800, Note_on_c, 0, 85, 57
1, 214800, Note_on_c, 0, 61, 34
1, 214800, Note_on_c, 0, 65, 34
1, 214800, Note_on_c, 0, 68, 34
1, 214860, Note_on_c, 0, 68, 0
1, 214860, Note_on_c, 0, 61, 0
1, 214860, Note_on_c, 0, 65, 0
1, 215040, Tempo, 628272
1, 215040, Note_on_c, 0, 56, 46
1, 215040, Note_on_c, 0, 44, 36
1, 215100, Note_on_c, 0, 44, 0
1, 215100, Note_on_c, 0, 56, 0
1, 215280, Tempo, 618557
1, 215280, Note_on_c, 0, 85, 0
1, 215280, Note_on_c, 0, 73, 0
1, 215280, Note_on_c, 0, 73, 42
1, 215280, Note_on_c, 0, 85, 55
1, 215280, Note_on_c, 0, 65, 34
1, 215280, Note_on_c, 0, 61, 34
1, 215280, Note_on_c, 0, 68, 34
1, 215340, Note_on_c, 0, 68, 0
1, 215340, Note_on_c, 0, 65, 0
1, 215340, Note_on_c, 0, 61, 0
1, 215520, Note_on_c, 0, 85, 0
1, 215520, Note_on_c, 0, 73, 0
1, 215520, Note_on_c, 0, 82, 55
1, 215520, Note_on_c, 0, 94, 64
1, 215520, Note_on_c, 0, 54, 43
1, 215520, Note_on_c, 0, 42, 34
1, 215520, Control_c, 0, 64, 0
1, 215580, Note_on_c, 0, 42, 0
1, 215580, Note_on_c, 0, 82, 0
1, 215580, Note_on_c, 0, 94, 0
1, 215580, Note_on_c, 0, 54, 0
1, 215737, Control_c, 0, 64, 127
1, 215760, Note_on_c, 0, 82, 50
1, 215760, Note_on_c, 0, 94, 60
1, 215760, Note_on_c, 0, 61, 34
1, 215760, Note_on_c, 0, 70, 34
1, 215760, Note_on_c, 0, 66, 34
1, 215820, Note_on_c, 0, 66, 0
1, 215820, Note_on_c, 0, 61, 0
1, 215820, Note_on_c, 0, 70, 0
1, 215880, Note_on_c, 0, 94, 0
1, 215880, Note_on_c, 0, 82, 0
1, 216000, Tempo, 648649
1, 216000, Note_on_c, 0, 92, 66
1, 216000, Note_on_c, 0, 80, 51
1, 216000, Note_on_c, 0, 53, 44
1, 216000, Note_on_c, 0, 41, 35
1, 216019, Control_c, 0, 64, 0
1, 216060, Note_on_c, 0, 41, 0
1, 216060, Note_on_c, 0, 53, 0
1, 216072, Control_c, 0, 64, 127
1, 216240, Note_on_c, 0, 58, 34
1, 216240, Note_on_c, 0, 68, 34
1, 216240, Note_on_c, 0, 62, 34
1, 216300, Note_on_c, 0, 62, 0
1, 216300, Note_on_c, 0, 58, 0
1, 216300, Note_on_c, 0, 68, 0
1, 216480, Tempo, 609137
1, 216480, Note_on_c, 0, 80, 0
1, 216480, Note_on_c, 0, 92, 0
1, 216480, Note_on_c, 0, 78, 47
1, 216480, Note_on_c, 0, 90, 61
1, 216480, Note_on_c, 0, 51, 50
1, 216480, Note_on_c, 0, 39, 40
1, 216480, Control_c, 0, 64, 0
1, 216540, Note_on_c, 0, 90, 0
1, 216540, Note_on_c, 0, 78, 0
1, 216600, Note_on_c, 0, 51, 0
1, 216600, Note_on_c, 0, 39, 0
1, 216692, Control_c, 0, 64, 127
1, 216720, Tempo, 648649
1, 216720, Note_on_c, 0, 90, 66
1, 216720, Note_on_c, 0, 82, 60
1, 216720, Note_on_c, 0, 78, 51
1, 216720, Note_on_c, 0, 66, 34
1, 216720, Note_on_c, 0, 63, 34
1, 216780, Note_on_c, 0, 63, 0
1, 216780, Note_on_c, 0, 66, 0
1, 216960, Note_on_c, 0, 58, 47
1, 216960, Note_on_c, 0, 46, 37
1, 217080, Note_on_c, 0, 46, 0
1, 217080, Note_on_c, 0, 58, 0
1, 217200, Tempo, 738462
1, 217200, Note_on_c, 0, 78, 0
1, 217200, Note_on_c, 0, 82, 0
1, 217200, Note_on_c, 0, 90, 0
1, 217200, Note_on_c, 0, 87, 45
1, 217200, Note_on_c, 0, 78, 45
1, 217200, Note_on_c, 0, 90, 58
1, 217200, Note_on_c, 0, 66, 34
1, 217200, Note_on_c, 0, 63, 34
1, 217260, Note_on_c, 0, 63, 0
1, 217260, Note_on_c, 0, 66, 0
1, 217440, Tempo, 699708
1, 217440, Note_on_c, 0, 87, 0
1, 217440, Note_on_c, 0, 78, 0
1, 217440, Note_on_c, 0, 90, 0
1, 217440, Note_on_c, 0, 97, 67
1, 217440, Note_on_c, 0, 94, 61
1, 217440, Note_on_c, 0, 85, 61
1, 217440, Note_on_c, 0, 54, 48
1, 217440, Note_on_c, 0, 42, 38
1, 217497, Control_c, 0, 64, 0
1, 217560, Control_c, 0, 64, 127
1, 217680, Tempo, 745342
1, 217680, Note_on_c, 0, 42, 0
1, 217680, Note_on_c, 0, 85, 0
1, 217680, Note_on_c, 0, 97, 0
1, 217680, Note_on_c, 0, 94, 0
1, 217680, Note_on_c, 0, 54, 0
1, 217680, Note_on_c, 0, 94, 60
1, 217680, Note_on_c, 0, 97, 66
1, 217680, Note_on_c, 0, 85, 40
1, 217680, Note_on_c, 0, 73, 40
1, 217680, Note_on_c, 0, 61, 34
1, 217680, Note_on_c, 0, 70, 34
1, 217920, Note_on_c, 0, 70, 0
1, 217920, Note_on_c, 0, 97, 0
1, 217920, Note_on_c, 0, 85, 0
1, 217920, Note_on_c, 0, 94, 0
1, 217920, Note_on_c, 0, 61, 0
1, 217920, Note_on_c, 0, 73, 0
1, 217920, Note_on_c, 0, 84, 40
1, 217920, Note_on_c, 0, 92, 64
1, 217920, Note_on_c, 0, 96, 70
1, 217920, Note_on_c, 0, 72, 40
1, 217920, Note_on_c, 0, 61, 34
1, 217920, Note_on_c, 0, 68, 34
1, 217939, Control_c, 0, 64, 0
1, 218012, Control_c, 0, 64, 127
1, 218160, Tempo, 805369
1, 218280, Tempo, 1121495
1, 218280, Note_on_c, 0, 68, 0
1, 218280, Note_on_c, 0, 92, 0
1, 218280, Note_on_c, 0, 96, 0
1, 218280, Note_on_c, 0, 84, 0
1, 218280, Note_on_c, 0, 72, 0
1, 218280, Note_on_c, 0, 94, 60
1, 218280, Note_on_c, 0, 82, 40
1, 218280, Note_on_c, 0, 90, 55
1, 218280, Note_on_c, 0, 70, 40
1, 218280, Note_on_c, 0, 66, 34
1, 218340, Tempo, 752351
1, 218340, Note_on_c, 0, 90, 0
1, 218340, Note_on_c, 0, 82, 0
1, 218340, Note_on_c, 0, 94, 0
1, 218400, Tempo, 738462
1, 218400, Note_on_c, 0, 61, 0
1, 218400, Note_on_c, 0, 70, 0
1, 218400, Note_on_c, 0, 66, 0
1, 218400, Note_on_c, 0, 89, 65
1, 218400, Note_on_c, 0, 80, 55
1, 218400, Note_on_c, 0, 92, 71
1, 218400, Note_on_c, 0, 44, 55
1, 218400, Control_c, 0, 64, 0
1, 218460, Note_on_c, 0, 44, 0
1, 218460, Note_on_c, 0, 89, 0
1, 218460, Note_on_c, 0, 80, 0
1, 218460, Note_on_c, 0, 92, 0
1, 218619, Control_c, 0, 64, 127
1, 218640, Note_on_c, 0, 92, 61
1, 218640, Note_on_c, 0, 89, 56
1, 218640, Note_on_c, 0, 80, 47
1, 218640, Note_on_c, 0, 65, 40
1, 218640, Note_on_c, 0, 68, 40
1, 218640, Note_on_c, 0, 61, 40
1, 218760, Note_on_c, 0, 61, 0
1, 218760, Note_on_c, 0, 65, 0
1, 218760, Note_on_c, 0, 68, 0
1, 218880, Note_on_c, 0, 56, 40
1, 218966, Tempo, 905660
1, 218978, Tempo, 916031
1, 219000, Note_on_c, 0, 56, 0
1, 219092, Control_c, 0, 64, 0
1, 219120, Note_on_c, 0, 89, 0
1, 219120, Note_on_c, 0, 80, 0
1, 219120, Note_on_c, 0, 92, 0
1, 219240, Tempo, 464217
1, 219240, Note_on_c, 0, 81, 42
1, 219240, Note_on_c, 0, 93, 55
1, 219240, Note_on_c, 0, 65, 46
1, 219240, Note_on_c, 0, 77, 46
1, 219360, Tempo, 848057
1, 219360, Note_on_c, 0, 77, 0
1, 219360, Note_on_c, 0, 81, 0
1, 219360, Note_on_c, 0, 93, 0
1, 219360, Note_on_c, 0, 65, 0
1, 219360, Note_on_c, 0, 82, 47
1, 219360, Note_on_c, 0, 94, 61
1, 219360, Note_on_c, 0, 66, 50
1, 219360, Note_on_c, 0, 78, 50
1, 219420, Note_on_c, 0, 78, 0
1, 219420, Note_on_c, 0, 82, 0
1, 219420, Note_on_c, 0, 94, 0
1, 219420, Note_on_c, 0, 66, 0
1, 219840, Tempo, 687679
1, 219840, Note_on_c, 0, 72, 51
1, 219840, Note_on_c, 0, 66, 40
1, 219840, Note_on_c, 0, 60, 40
1, 219840, Note_on_c, 0, 44, 37
1, 219840, Note_on_c, 0, 56, 47
1, 219840, Note_on_c, 0, 51, 37
1, 220320, Tempo, 718563
1, 220320, Note_on_c, 0, 51, 0
1, 220320, Note_on_c, 0, 66, 0
1, 220320, Note_on_c, 0, 60, 0
1, 220320, Note_on_c, 0, 72, 0
1, 220320, Note_on_c, 0, 56, 0
1, 220320, Note_on_c, 0, 44, 0
1, 220320, Note_on_c, 0, 65, 43
1, 220320, Note_on_c, 0, 61, 43
1, 220320, Note_on_c, 0, 73, 54
1, 220320, Note_on_c, 0, 49, 45
1, 220320, Note_on_c, 0, 56, 51
1, 220380, Note_on_c, 0, 56, 0
1, 220380, Note_on_c, 0, 73, 0
1, 220380, Note_on_c, 0, 65, 0
1, 220380, Note_on_c, 0, 61, 0
1, 220380, Note_on_c, 0, 49, 0
1, 220560, Tempo, 1243523
1, 220560, Note_on_c, 0, 65, 44
1, 220560, Note_on_c, 0, 61, 44
1, 220560, Note_on_c, 0, 73, 56
1, 220560, Note_on_c, 0, 56, 53
1, 220560, Note_on_c, 0, 49, 42
1, 220860, Control_c, 0, 64, 127
1, 220901, Tempo, 613811
1, 220920, Note_on_c, 0, 49, 0
1, 220920, Note_on_c, 0, 73, 0
1, 220920, Note_on_c, 0, 65, 0
1, 220920, Note_on_c, 0, 61, 0
1, 220920, Note_on_c, 0, 56, 0
1, 220920, Note_on_c, 0, 89, 40
1, 220920, Note_on_c, 0, 85, 40
1, 220933, Tempo, 609137
1, 220965, Tempo, 604534
1, 220997, Tempo, 600000
1, 221029, Tempo, 595533
1, 221040, Note_on_c, 0, 85, 0
1, 221040, Note_on_c, 0, 89, 0
1, 221040, Note_on_c, 0, 90, 45
1, 221040, Note_on_c, 0, 87, 45
1, 221061, Tempo, 591133
1, 221093, Tempo, 586797
1, 221125, Tempo, 582524
1, 221157, Tempo, 578313
1, 221160, Note_on_c, 0, 87, 0
1, 221160, Note_on_c, 0, 90, 0
1, 221160, Note_on_c, 0, 88, 51
1, 221160, Note_on_c, 0, 91, 51
1, 221189, Tempo, 574163
1, 221221, Tempo, 570071
1, 221253, Tempo, 566038
1, 221280, Tempo, 518359
1, 221280, Note_on_c, 0, 91, 0
1, 221280, Note_on_c, 0, 88, 0
1, 221280, Note_on_c, 0, 94, 57
1, 221280, Note_on_c, 0, 90, 57
1, 221306, Control_c, 0, 64, 0
1, 221337, Control_c, 0, 64, 127
1, 221400, Tempo, 546697
1, 221400, Note_on_c, 0, 90, 0
1, 221400, Note_on_c, 0, 94, 0
1, 221400, Note_on_c, 0, 89, 47
1, 221400, Note_on_c, 0, 92, 47
1, 221508, Note_on_c, 0, 92, 0
1, 221508, Note_on_c, 0, 89, 0
1, 221520, Note_on_c, 0, 92, 47
1, 221520, Note_on_c, 0, 89, 47
1, 221520, Note_on_c, 0, 61, 38
1, 221610, Note_on_c, 0, 61, 0
1, 221640, Tempo, 578313
1, 221640, Note_on_c, 0, 89, 0
1, 221640, Note_on_c, 0, 92, 0
1, 221640, Note_on_c, 0, 91, 47
1, 221640, Note_on_c, 0, 88, 47
1, 221640, Note_on_c, 0, 77, 34
1, 221730, Note_on_c, 0, 77, 0
1, 221748, Note_on_c, 0, 88, 0
1, 221748, Note_on_c, 0, 91, 0
1, 221760, Tempo, 505263
1, 221760, Note_on_c, 0, 90, 53
1, 221760, Note_on_c, 0, 94, 53
1, 221760, Note_on_c, 0, 68, 39
1, 221850, Note_on_c, 0, 68, 0
1, 221880, Tempo, 528634
1, 221880, Note_on_c, 0, 94, 0
1, 221880, Note_on_c, 0, 90, 0
1, 221880, Note_on_c, 0, 89, 46
1, 221880, Note_on_c, 0, 92, 46
1, 221880, Note_on_c, 0, 77, 36
1, 221970, Note_on_c, 0, 77, 0
1, 221988, Note_on_c, 0, 92, 0
1, 221988, Note_on_c, 0, 89, 0
1, 222000, Note_on_c, 0, 92, 47
1, 222000, Note_on_c, 0, 89, 47
1, 222000, Note_on_c, 0, 73, 40
1, 222090, Note_on_c, 0, 73, 0
1, 222120, Tempo, 570071
1, 222120, Note_on_c, 0, 89, 0
1, 222120, Note_on_c, 0, 92, 0
1, 222120, Note_on_c, 0, 91, 49
1, 222120, Note_on_c, 0, 88, 49
1, 222120, Note_on_c, 0, 77, 37
1, 222210, Note_on_c, 0, 77, 0
1, 222228, Note_on_c, 0, 88, 0
1, 222228, Note_on_c, 0, 91, 0
1, 222240, Tempo, 489796
1, 222240, Note_on_c, 0, 90, 58
1, 222240, Note_on_c, 0, 94, 58
1, 222240, Note_on_c, 0, 68, 42
1, 222247, Control_c, 0, 64, 0
1, 222300, Control_c, 0, 64, 127
1, 222330, Note_on_c, 0, 68, 0
1, 222360, Tempo, 515021
1, 222360, Note_on_c, 0, 94, 0
1, 222360, Note_on_c, 0, 90, 0
1, 222360, Note_on_c, 0, 92, 50
1, 222360, Note_on_c, 0, 89, 50
1, 222360, Note_on_c, 0, 77, 38
1, 222450, Note_on_c, 0, 77, 0
1, 222468, Note_on_c, 0, 89, 0
1, 222468, Note_on_c, 0, 92, 0
1, 222480, Note_on_c, 0, 92, 50
1, 222480, Note_on_c, 0, 89, 50
1, 222480, Note_on_c, 0, 61, 44
1, 222570, Note_on_c, 0, 61, 0
1, 222600, Tempo, 550459
1, 222600, Note_on_c, 0, 89, 0
1, 222600, Note_on_c, 0, 92, 0
1, 222600, Note_on_c, 0, 91, 50
1, 222600, Note_on_c, 0, 88, 50
1, 222600, Note_on_c, 0, 77, 40
1, 222690, Note_on_c, 0, 77, 0
1, 222708, Note_on_c, 0, 88, 0
1, 222708, Note_on_c, 0, 91, 0
1, 222720, Tempo, 475248
1, 222720, Note_on_c, 0, 90, 60
1, 222720, Note_on_c, 0, 94, 60
1, 222720, Note_on_c, 0, 68, 46
1, 222810, Note_on_c, 0, 68, 0
1, 222840, Tempo, 498960
1, 222840, Note_on_c, 0, 94, 0
1, 222840, Note_on_c, 0, 90, 0
1, 222840, Note_on_c, 0, 89, 53
1, 222840, Note_on_c, 0, 92, 53
1, 222840, Note_on_c, 0, 77, 42
1, 222930, Note_on_c, 0, 77, 0
1, 222948, Note_on_c, 0, 92, 0
1, 222948, Note_on_c, 0, 89, 0
1, 222960, Note_on_c, 0, 89, 54
1, 222960, Note_on_c, 0, 92, 54
1, 222960, Note_on_c, 0, 73, 47
1, 223050, Note_on_c, 0, 73, 0
1, 223080, Tempo, 535714
1, 223080, Note_on_c, 0, 92, 0
1, 223080, Note_on_c, 0, 89, 0
1, 223080, Note_on_c, 0, 91, 56
1, 223080, Note_on_c, 0, 88, 56
1, 223080, Note_on_c, 0, 77, 45
1, 223170, Note_on_c, 0, 77, 0
1, 223188, Note_on_c, 0, 88, 0
1, 223188, Note_on_c, 0, 91, 0
1, 223200, Tempo, 469667
1, 223200, Note_on_c, 0, 90, 65
1, 223200, Note_on_c, 0, 94, 65
1, 223200, Note_on_c, 0, 68, 48
1, 223206, Control_c, 0, 64, 0
1, 223260, Control_c, 0, 64, 127
1, 223290, Note_on_c, 0, 68, 0
1, 223320, Tempo, 502092
1, 223320, Note_on_c, 0, 94, 0
1, 223320, Note_on_c, 0, 90, 0
1, 223320, Note_on_c, 0, 92, 57
1, 223320, Note_on_c, 0, 89, 57
1, 223320, Note_on_c, 0, 77, 42
1, 223410, Note_on_c, 0, 77, 0
1, 223428, Note_on_c, 0, 89, 0
1, 223428, Note_on_c, 0, 92, 0
1, 223440, Note_on_c, 0, 92, 57
1, 223440, Note_on_c, 0, 89, 57
1, 223440, Note_on_c, 0, 61, 50
1, 223530, Note_on_c, 0, 61, 0
1, 223560, Tempo, 542986
1, 223560, Note_on_c, 0, 89, 0
1, 223560, Note_on_c, 0, 92, 0
1, 223560, Note_on_c, 0, 88, 57
1, 223560, Note_on_c, 0, 91, 57
1, 223560, Note_on_c, 0, 77, 46
1, 223650, Note_on_c, 0, 77, 0
1, 223668, Note_on_c, 0, 91, 0
1, 223668, Note_on_c, 0, 88, 0
1, 223680, Tempo, 466926
1, 223680, Note_on_c, 0, 90, 66
1, 223680, Note_on_c, 0, 94, 66
1, 223680, Note_on_c, 0, 68, 52
1, 223770, Note_on_c, 0, 68, 0
1, 223800, Tempo, 515021
1, 223800, Note_on_c, 0, 94, 0
1, 223800, Note_on_c, 0, 90, 0
1, 223800, Note_on_c, 0, 89, 60
1, 223800, Note_on_c, 0, 92, 60
1, 223800, Note_on_c, 0, 77, 46
1, 223890, Note_on_c, 0, 77, 0
1, 223908, Note_on_c, 0, 92, 0
1, 223908, Note_on_c, 0, 89, 0
1, 223920, Note_on_c, 0, 89, 60
1, 223920, Note_on_c, 0, 92, 60
1, 223920, Note_on_c, 0, 73, 53
1, 224010, Note_on_c, 0, 73, 0
1, 224040, Tempo, 546697
1, 224040, Note_on_c, 0, 92, 0
1, 224040, Note_on_c, 0, 89, 0
1, 224040, Note_on_c, 0, 88, 60
1, 224040, Note_on_c, 0, 91, 60
1, 224040, Note_on_c, 0, 77, 48
1, 224130, Note_on_c, 0, 77, 0
1, 224148, Note_on_c, 0, 91, 0
1, 224148, Note_on_c, 0, 88, 0
1, 224160, Tempo, 502092
1, 224160, Note_on_c, 0, 90, 74
1, 224160, Note_on_c, 0, 94, 74
1, 224160, Note_on_c, 0, 68, 52
1, 224160, Control_c, 0, 64, 0
1, 224229, Control_c, 0, 64, 127
1, 224250, Note_on_c, 0, 68, 0
1, 224280, Tempo, 489796
1, 224280, Note_on_c, 0, 94, 0
1, 224280, Note_on_c, 0, 90, 0
1, 224280, Note_on_c, 0, 92, 68
1, 224280, Note_on_c, 0, 89, 68
1, 224280, Note_on_c, 0, 77, 46
1, 224388, Note_on_c, 0, 89, 0
1, 224388, Note_on_c, 0, 92, 0
1, 224400, Note_on_c, 0, 77, 0
1, 224400, Note_on_c, 0, 89, 57
1, 224400, Note_on_c, 0, 92, 71
1, 224400, Note_on_c, 0, 61, 50
1, 224520, Tempo, 525164
1, 224520, Note_on_c, 0, 61, 0
1, 224520, Note_on_c, 0, 92, 0
1, 224520, Note_on_c, 0, 101, 75
1, 224628, Note_on_c, 0, 101, 0
1, 224640, Tempo, 469667
1, 224640, Note_on_c, 0, 89, 0
1, 224640, Note_on_c, 0, 101, 82
1, 224640, Note_on_c, 0, 89, 60
1, 224640, Note_on_c, 0, 69, 46
1, 224645, Control_c, 0, 64, 0
1, 224709, Control_c, 0, 64, 127
1, 224760, Note_on_c, 0, 69, 0
1, 224760, Note_on_c, 0, 101, 0
1, 224760, Note_on_c, 0, 100, 79
1, 224868, Note_on_c, 0, 100, 0
1, 224880, Note_on_c, 0, 89, 0
1, 224880, Note_on_c, 0, 89, 57
1, 224880, Note_on_c, 0, 100, 82
1, 224880, Note_on_c, 0, 72, 42
1, 224880, Note_on_c, 0, 77, 42
1, 225000, Tempo, 508475
1, 225000, Note_on_c, 0, 77, 0
1, 225000, Note_on_c, 0, 72, 0
1, 225000, Note_on_c, 0, 100, 0
1, 225000, Note_on_c, 0, 99, 75
1, 225113, Note_on_c, 0, 99, 0
1, 225120, Tempo, 469667
1, 225120, Note_on_c, 0, 89, 0
1, 225120, Note_on_c, 0, 99, 81
1, 225120, Note_on_c, 0, 89, 60
1, 225120, Note_on_c, 0, 70, 46
1, 225129, Control_c, 0, 64, 0
1, 225157, Control_c, 0, 64, 127
1, 225240, Note_on_c, 0, 70, 0
1, 225240, Note_on_c, 0, 99, 0
1, 225240, Note_on_c, 0, 98, 77
1, 225348, Note_on_c, 0, 98, 0
1, 225360, Note_on_c, 0, 89, 0
1, 225360, Note_on_c, 0, 98, 81
1, 225360, Note_on_c, 0, 89, 57
1, 225360, Note_on_c, 0, 82, 42
1, 225360, Note_on_c, 0, 77, 35
1, 225480, Tempo, 505263
1, 225480, Note_on_c, 0, 77, 0
1, 225480, Note_on_c, 0, 82, 0
1, 225480, Note_on_c, 0, 98, 0
1, 225480, Note_on_c, 0, 97, 75
1, 225588, Note_on_c, 0, 97, 0
1, 225600, Tempo, 469667
1, 225600, Note_on_c, 0, 89, 0
1, 225600, Note_on_c, 0, 97, 78
1, 225600, Note_on_c, 0, 89, 57
1, 225600, Note_on_c, 0, 65, 46
1, 225720, Note_on_c, 0, 65, 0
1, 225720, Note_on_c, 0, 97, 0
1, 225720, Note_on_c, 0, 96, 69
1, 225828, Note_on_c, 0, 96, 0
1, 225840, Note_on_c, 0, 89, 0
1, 225840, Note_on_c, 0, 89, 55
1, 225840, Note_on_c, 0, 96, 77
1, 225840, Note_on_c, 0, 87, 41
1, 225840, Note_on_c, 0, 81, 34
1, 225840, Note_on_c, 0, 77, 34
1, 225960, Tempo, 511727
1, 225960, Note_on_c, 0, 77, 0
1, 225960, Note_on_c, 0, 87, 0
1, 225960, Note_on_c, 0, 81, 0
1, 225960, Note_on_c, 0, 96, 0
1, 225960, Note_on_c, 0, 95, 69
1, 226020, Note_on_c, 0, 95, 0
1, 226020, Note_on_c, 0, 97, 58
1, 226080, Tempo, 478088
1, 226080, Note_on_c, 0, 97, 0
1, 226080, Note_on_c, 0, 89, 0
1, 226080, Note_on_c, 0, 96, 72
1, 226080, Note_on_c, 0, 89, 72
1, 226080, Note_on_c, 0, 85, 47
1, 226080, Note_on_c, 0, 82, 39
1, 226110, Control_c, 0, 64, 0
1, 226160, Control_c, 0, 64, 127
1, 226200, Note_on_c, 0, 82, 0
1, 226200, Note_on_c, 0, 85, 0
1, 226200, Note_on_c, 0, 96, 0
1, 226200, Note_on_c, 0, 94, 68
1, 226260, Note_on_c, 0, 94, 0
1, 226260, Note_on_c, 0, 96, 57
1, 226320, Note_on_c, 0, 96, 0
1, 226320, Note_on_c, 0, 89, 0
1, 226320, Note_on_c, 0, 89, 70
1, 226320, Note_on_c, 0, 94, 70
1, 226320, Note_on_c, 0, 87, 41
1, 226320, Note_on_c, 0, 84, 34
1, 226320, Note_on_c, 0, 77, 34
1, 226440, Tempo, 505263
1, 226440, Note_on_c, 0, 77, 0
1, 226440, Note_on_c, 0, 87, 0
1, 226440, Note_on_c, 0, 84, 0
1, 226440, Note_on_c, 0, 94, 0
1, 226440, Note_on_c, 0, 93, 68
1, 226500, Note_on_c, 0, 93, 0
1, 226500, Note_on_c, 0, 97, 58
1, 226560, Tempo, 478088
1, 226560, Note_on_c, 0, 97, 0
1, 226560, Note_on_c, 0, 89, 0
1, 226560, Note_on_c, 0, 96, 68
1, 226560, Note_on_c, 0, 89, 68
1, 226560, Note_on_c, 0, 85, 45
1, 226560, Note_on_c, 0, 82, 37
1, 226680, Note_on_c, 0, 82, 0
1, 226680, Note_on_c, 0, 85, 0
1, 226680, Note_on_c, 0, 96, 0
1, 226680, Note_on_c, 0, 94, 68
1, 226740, Note_on_c, 0, 94, 0
1, 226740, Note_on_c, 0, 96, 57
1, 226800, Note_on_c, 0, 96, 0
1, 226800, Note_on_c, 0, 89, 0
1, 226800, Note_on_c, 0, 89, 66
1, 226800, Note_on_c, 0, 94, 66
1, 226800, Note_on_c, 0, 87, 39
1, 226800, Note_on_c, 0, 84, 32
1, 226800, Note_on_c, 0, 77, 32
1, 226920, Tempo, 515021
1, 226920, Note_on_c, 0, 77, 0
1, 226920, Note_on_c, 0, 87, 0
1, 226920, Note_on_c, 0, 84, 0
1, 226920, Note_on_c, 0, 94, 0
1, 226920, Note_on_c, 0, 93, 59
1, 226980, Note_on_c, 0, 93, 0
1, 226980, Note_on_c, 0, 97, 53
1, 227040, Tempo, 480962
1, 227040, Note_on_c, 0, 97, 0
1, 227040, Note_on_c, 0, 89, 0
1, 227040, Note_on_c, 0, 96, 66
1, 227040, Note_on_c, 0, 89, 66
1, 227040, Note_on_c, 0, 85, 43
1, 227040, Note_on_c, 0, 82, 35
1, 227049, Control_c, 0, 64, 0
1, 227080, Control_c, 0, 64, 127
1, 227160, Note_on_c, 0, 82, 0
1, 227160, Note_on_c, 0, 85, 0
1, 227160, Note_on_c, 0, 96, 0
1, 227160, Note_on_c, 0, 94, 62
1, 227220, Note_on_c, 0, 94, 0
1, 227220, Note_on_c, 0, 96, 52
1, 227280, Note_on_c, 0, 96, 0
1, 227280, Note_on_c, 0, 89, 0
1, 227280, Note_on_c, 0, 94, 64
1, 227280, Note_on_c, 0, 89, 64
1, 227280, Note_on_c, 0, 87, 37
1, 227280, Note_on_c, 0, 84, 31
1, 227280, Note_on_c, 0, 77, 31
1, 227400, Tempo, 518359
1, 227400, Note_on_c, 0, 77, 0
1, 227400, Note_on_c, 0, 87, 0
1, 227400, Note_on_c, 0, 84, 0
1, 227400, Note_on_c, 0, 94, 0
1, 227400, Note_on_c, 0, 93, 63
1, 227460, Note_on_c, 0, 93, 0
1, 227460, Note_on_c, 0, 97, 52
1, 227520, Tempo, 480962
1, 227520, Note_on_c, 0, 97, 0
1, 227520, Note_on_c, 0, 89, 0
1, 227520, Note_on_c, 0, 96, 62
1, 227520, Note_on_c, 0, 89, 62
1, 227520, Note_on_c, 0, 85, 41
1, 227520, Note_on_c, 0, 82, 34
1, 227640, Note_on_c, 0, 82, 0
1, 227640, Note_on_c, 0, 85, 0
1, 227640, Note_on_c, 0, 96, 0
1, 227640, Note_on_c, 0, 94, 62
1, 227700, Note_on_c, 0, 94, 0
1, 227700, Note_on_c, 0, 96, 51
1, 227760, Note_on_c, 0, 96, 0
1, 227760, Note_on_c, 0, 89, 0
1, 227760, Note_on_c, 0, 89, 61
1, 227760, Note_on_c, 0, 94, 61
1, 227760, Note_on_c, 0, 87, 36
1, 227760, Note_on_c, 0, 84, 30
1, 227760, Note_on_c, 0, 77, 30
1, 227880, Tempo, 515021
1, 227880, Note_on_c, 0, 77, 0
1, 227880, Note_on_c, 0, 87, 0
1, 227880, Note_on_c, 0, 84, 0
1, 227880, Note_on_c, 0, 94, 0
1, 227880, Note_on_c, 0, 93, 54
1, 227996, Tempo, 528634
1, 228000, Note_on_c, 0, 93, 0
1, 228000, Note_on_c, 0, 89, 0
1, 228000, Note_on_c, 0, 89, 62
1, 228000, Note_on_c, 0, 82, 35
1, 228000, Note_on_c, 0, 85, 43
1, 228000, Note_on_c, 0, 94, 47
1, 228040, Control_c, 0, 64, 0
1, 228056, Tempo, 525164
1, 228060, Note_on_c, 0, 94, 0
1, 228060, Note_on_c, 0, 96, 41
1, 228081, Control_c, 0, 64, 127
1, 228116, Tempo, 521739
1, 228120, Note_on_c, 0, 89, 0
1, 228120, Note_on_c, 0, 85, 0
1, 228120, Note_on_c, 0, 82, 0
1, 228120, Note_on_c, 0, 94, 47
1, 228132, Note_on_c, 0, 96, 0
1, 228156, Tempo, 518359
1, 228180, Note_on_c, 0, 96, 41
1, 228192, Note_on_c, 0, 94, 0
1, 228216, Tempo, 515021
1, 228240, Note_on_c, 0, 94, 47
1, 228252, Note_on_c, 0, 96, 0
1, 228256, Tempo, 511727
1, 228300, Note_on_c, 0, 94, 0
1, 228300, Note_on_c, 0, 96, 41
1, 228316, Tempo, 508475
1, 228356, Tempo, 505263
1, 228360, Note_on_c, 0, 94, 47
1, 228372, Note_on_c, 0, 96, 0
1, 228416, Tempo, 502092
1, 228420, Note_on_c, 0, 96, 41
1, 228432, Note_on_c, 0, 94, 0
1, 228456, Tempo, 498960
1, 228480, Note_on_c, 0, 94, 47
1, 228492, Note_on_c, 0, 96, 0
1, 228540, Note_on_c, 0, 94, 0
1, 228540, Note_on_c, 0, 96, 41
1, 228600, Note_on_c, 0, 94, 47
1, 228612, Note_on_c, 0, 96, 0
1, 228636, Tempo, 495868
1, 228660, Note_on_c, 0, 96, 41
1, 228672, Note_on_c, 0, 94, 0
1, 228720, Note_on_c, 0, 94, 47
1, 228732, Note_on_c, 0, 96, 0
1, 228780, Note_on_c, 0, 94, 0
1, 228780, Note_on_c, 0, 96, 41
1, 228796, Tempo, 492813
1, 228840, Note_on_c, 0, 94, 47
1, 228852, Note_on_c, 0, 96, 0
1, 228900, Note_on_c, 0, 96, 41
1, 228912, Note_on_c, 0, 94, 0
1, 228960, Tempo, 483871
1, 228960, Note_on_c, 0, 94, 47
1, 228972, Note_on_c, 0, 96, 0
1, 229020, Note_on_c, 0, 94, 0
1, 229020, Note_on_c, 0, 96, 41
1, 229080, Tempo, 495868
1, 229080, Note_on_c, 0, 94, 47
1, 229092, Note_on_c, 0, 96, 0
1, 229140, Note_on_c, 0, 96, 41
1, 229152, Note_on_c, 0, 94, 0
1, 229200, Tempo, 475248
1, 229200, Note_on_c, 0, 94, 47
1, 229212, Note_on_c, 0, 96, 0
1, 229260, Note_on_c, 0, 94, 0
1, 229260, Note_on_c, 0, 96, 41
1, 229320, Tempo, 492813
1, 229320, Note_on_c, 0, 94, 47
1, 229332, Note_on_c, 0, 96, 0
1, 229380, Note_on_c, 0, 96, 41
1, 229392, Note_on_c, 0, 94, 0
1, 229440, Tempo, 489796
1, 229440, Note_on_c, 0, 94, 47
1, 229452, Note_on_c, 0, 96, 0
1, 229500, Note_on_c, 0, 94, 0
1, 229500, Note_on_c, 0, 96, 41
1, 229560, Tempo, 472441
1, 229560, Note_on_c, 0, 94, 47
1, 229572, Note_on_c, 0, 96, 0
1, 229620, Note_on_c, 0, 96, 41
1, 229632, Note_on_c, 0, 94, 0
1, 229680, Tempo, 495868
1, 229680, Note_on_c, 0, 93, 48
1, 229692, Note_on_c, 0, 96, 0
1, 229700, Control_c, 0, 64, 0
1, 229740, Note_on_c, 0, 93, 0
1, 229740, Note_on_c, 0, 94, 49
1, 229761, Tempo, 528634
1, 229800, Note_on_c, 0, 95, 51
1, 229812, Note_on_c, 0, 94, 0
1, 229860, Note_on_c, 0, 96, 52
1, 229871, Note_on_c, 0, 95, 0
1, 229890, Note_on_c, 0, 70, 44
1, 229920, Tempo, 495868
1, 229920, Note_on_c, 0, 85, 44
1, 229920, Note_on_c, 0, 97, 66
1, 229932, Note_on_c, 0, 96, 0
1, 229973, Control_c, 0, 64, 127
1, 229980, Note_on_c, 0, 97, 0
1, 229980, Note_on_c, 0, 99, 47
1, 230040, Note_on_c, 0, 97, 54
1, 230052, Note_on_c, 0, 99, 0
1, 230100, Note_on_c, 0, 99, 48
1, 230112, Note_on_c, 0, 97, 0
1, 230160, Tempo, 486815
1, 230160, Note_on_c, 0, 97, 54
1, 230172, Note_on_c, 0, 99, 0
1, 230220, Note_on_c, 0, 97, 0
1, 230220, Note_on_c, 0, 99, 47
1, 230280, Note_on_c, 0, 97, 52
1, 230292, Note_on_c, 0, 99, 0
1, 230340, Note_on_c, 0, 99, 47
1, 230352, Note_on_c, 0, 97, 0
1, 230370, Note_on_c, 0, 70, 0
1, 230370, Note_on_c, 0, 85, 0
1, 230370, Note_on_c, 0, 70, 49
1, 230400, Note_on_c, 0, 85, 49
1, 230400, Note_on_c, 0, 97, 59
1, 230412, Note_on_c, 0, 99, 0
1, 230460, Note_on_c, 0, 97, 0
1, 230460, Note_on_c, 0, 99, 47
1, 230520, Tempo, 492813
1, 230520, Note_on_c, 0, 97, 54
1, 230532, Note_on_c, 0, 99, 0
1, 230580, Note_on_c, 0, 99, 48
1, 230592, Note_on_c, 0, 97, 0
1, 230640, Note_on_c, 0, 97, 52
1, 230652, Note_on_c, 0, 99, 0
1, 230700, Note_on_c, 0, 97, 0
1, 230700, Note_on_c, 0, 99, 47
1, 230760, Note_on_c, 0, 97, 51
1, 230772, Note_on_c, 0, 99, 0
1, 230820, Note_on_c, 0, 99, 48
1, 230832, Note_on_c, 0, 97, 0
1, 230850, Note_on_c, 0, 70, 0
1, 230850, Note_on_c, 0, 85, 0
1, 230850, Note_on_c, 0, 68, 48
1, 230880, Tempo, 502092
1, 230880, Note_on_c, 0, 96, 56
1, 230880, Note_on_c, 0, 84, 50
1, 230880, Note_on_c, 0, 97, 54
1, 230892, Note_on_c, 0, 99, 0
1, 230894, Control_c, 0, 64, 0
1, 230937, Control_c, 0, 64, 127
1, 230940, Note_on_c, 0, 97, 0
1, 230940, Note_on_c, 0, 99, 46
1, 231000, Note_on_c, 0, 97, 52
1, 231012, Note_on_c, 0, 99, 0
1, 231060, Note_on_c, 0, 99, 46
1, 231072, Note_on_c, 0, 97, 0
1, 231120, Note_on_c, 0, 97, 52
1, 231132, Note_on_c, 0, 99, 0
1, 231180, Note_on_c, 0, 97, 0
1, 231180, Note_on_c, 0, 99, 44
1, 231240, Note_on_c, 0, 97, 52
1, 231252, Note_on_c, 0, 99, 0
1, 231300, Note_on_c, 0, 99, 46
1, 231312, Note_on_c, 0, 97, 0
1, 231360, Tempo, 528634
1, 231360, Note_on_c, 0, 97, 52
1, 231372, Note_on_c, 0, 99, 0
1, 231420, Note_on_c, 0, 97, 0
1, 231420, Note_on_c, 0, 99, 44
1, 231480, Tempo, 528634
1, 231480, Note_on_c, 0, 97, 51
1, 231492, Note_on_c, 0, 99, 0
1, 231540, Note_on_c, 0, 99, 44
1, 231552, Note_on_c, 0, 97, 0
1, 231570, Note_on_c, 0, 68, 0
1, 231570, Note_on_c, 0, 84, 0
1, 231570, Note_on_c, 0, 66, 51
1, 231584, Tempo, 515021
1, 231600, Tempo, 511727
1, 231600, Note_on_c, 0, 96, 0
1, 231600, Note_on_c, 0, 94, 55
1, 231600, Note_on_c, 0, 82, 51
1, 231600, Note_on_c, 0, 97, 50
1, 231608, Tempo, 505263
1, 231612, Note_on_c, 0, 99, 0
1, 231624, Tempo, 498960
1, 231632, Tempo, 495868
1, 231640, Tempo, 492813
1, 231648, Tempo, 489796
1, 231660, Note_on_c, 0, 97, 0
1, 231660, Note_on_c, 0, 99, 46
1, 231664, Tempo, 486815
1, 231688, Tempo, 489796
1, 231696, Tempo, 492813
1, 231704, Tempo, 498960
1, 231712, Tempo, 502092
1, 231720, Tempo, 508475
1, 231720, Note_on_c, 0, 97, 51
1, 231728, Tempo, 511727
1, 231732, Note_on_c, 0, 99, 0
1, 231736, Tempo, 515021
1, 231768, Tempo, 511727
1, 231780, Note_on_c, 0, 99, 46
1, 231784, Tempo, 508475
1, 231792, Tempo, 505263
1, 231792, Note_on_c, 0, 97, 0
1, 231800, Tempo, 495868
1, 231810, Note_on_c, 0, 66, 0
1, 231810, Note_on_c, 0, 82, 0
1, 231810, Note_on_c, 0, 65, 58
1, 231840, Tempo, 492813
1, 231840, Note_on_c, 0, 94, 0
1, 231840, Note_on_c, 0, 92, 61
1, 231840, Note_on_c, 0, 80, 58
1, 231840, Note_on_c, 0, 97, 52
1, 231852, Note_on_c, 0, 99, 0
1, 231865, Control_c, 0, 64, 0
1, 231886, Control_c, 0, 64, 127
1, 231896, Tempo, 495868
1, 231900, Note_on_c, 0, 97, 0
1, 231900, Note_on_c, 0, 99, 44
1, 231904, Tempo, 498960
1, 231912, Tempo, 502092
1, 231920, Tempo, 508475
1, 231928, Tempo, 515021
1, 231936, Tempo, 525164
1, 231960, Note_on_c, 0, 97, 51
1, 231972, Note_on_c, 0, 99, 0
1, 231984, Tempo, 518359
1, 231992, Tempo, 515021
1, 232020, Note_on_c, 0, 99, 43
1, 232024, Tempo, 515021
1, 232032, Note_on_c, 0, 97, 0
1, 232040, Tempo, 511727
1, 232080, Note_on_c, 0, 65, 0
1, 232080, Note_on_c, 0, 80, 0
1, 232080, Note_on_c, 0, 92, 0
1, 232080, Note_on_c, 0, 97, 50
1, 232092, Note_on_c, 0, 99, 0
1, 232136, Tempo, 508475
1, 232140, Note_on_c, 0, 97, 0
1, 232140, Note_on_c, 0, 99, 43
1, 232160, Tempo, 505263
1, 232200, Note_on_c, 0, 97, 50
1, 232212, Note_on_c, 0, 99, 0
1, 232248, Tempo, 508475
1, 232260, Note_on_c, 0, 99, 43
1, 232264, Tempo, 515021
1, 232272, Tempo, 518359
1, 232272, Note_on_c, 0, 97, 0
1, 232280, Tempo, 525164
1, 232296, Tempo, 528634
1, 232304, Tempo, 535714
1, 232320, Note_on_c, 0, 92, 56
1, 232320, Note_on_c, 0, 68, 52
1, 232320, Note_on_c, 0, 77, 52
1, 232320, Note_on_c, 0, 80, 52
1, 232320, Note_on_c, 0, 97, 49
1, 232332, Note_on_c, 0, 99, 0
1, 232336, Tempo, 532151
1, 232344, Tempo, 528634
1, 232352, Tempo, 525164
1, 232360, Tempo, 518359
1, 232368, Tempo, 515021
1, 232380, Note_on_c, 0, 97, 0
1, 232380, Note_on_c, 0, 99, 43
1, 232408, Tempo, 511727
1, 232416, Tempo, 508475
1, 232432, Tempo, 515021
1, 232440, Tempo, 521739
1, 232440, Note_on_c, 0, 97, 50
1, 232448, Tempo, 525164
1, 232452, Note_on_c, 0, 99, 0
1, 232488, Tempo, 528634
1, 232500, Note_on_c, 0, 99, 43
1, 232504, Tempo, 532151
1, 232512, Note_on_c, 0, 97, 0
1, 232520, Tempo, 528634
1, 232528, Tempo, 525164
1, 232536, Tempo, 521739
1, 232544, Tempo, 518359
1, 232552, Tempo, 511727
1, 232560, Tempo, 508475
1, 232560, Note_on_c, 0, 97, 50
1, 232572, Note_on_c, 0, 99, 0
1, 232584, Tempo, 511727
1, 232592, Tempo, 518359
1, 232600, Tempo, 521739
1, 232608, Tempo, 528634
1, 232620, Note_on_c, 0, 97, 0
1, 232620, Note_on_c, 0, 99, 44
1, 232624, Tempo, 532151
1, 232680, Note_on_c, 0, 97, 49
1, 232692, Note_on_c, 0, 99, 0
1, 232696, Tempo, 528634
1, 232704, Tempo, 525164
1, 232740, Note_on_c, 0, 99, 42
1, 232744, Tempo, 521739
1, 232752, Note_on_c, 0, 97, 0
1, 232768, Tempo, 528634
1, 232776, Tempo, 532151
1, 232785, Tempo, 511727
1, 232795, Tempo, 505263
1, 232800, Note_on_c, 0, 92, 0
1, 232800, Control_c, 0, 64, 0
1, 232800, Note_on_c, 0, 97, 50
1, 232805, Tempo, 502092
1, 232812, Note_on_c, 0, 99, 0
1, 232840, Control_c, 0, 64, 127
1, 232845, Tempo, 505263
1, 232855, Tempo, 515021
1, 232860, Note_on_c, 0, 97, 0
1, 232860, Note_on_c, 0, 99, 46
1, 232865, Tempo, 518359
1, 232875, Tempo, 521739
1, 232915, Tempo, 518359
1, 232920, Note_on_c, 0, 97, 50
1, 232925, Tempo, 515021
1, 232932, Note_on_c, 0, 99, 0
1, 232945, Tempo, 505263
1, 232965, Tempo, 521739
1, 232980, Note_on_c, 0, 99, 44
1, 232992, Note_on_c, 0, 97, 0
1, 233025, Tempo, 515021
1, 233040, Note_on_c, 0, 97, 47
1, 233045, Tempo, 511727
1, 233052, Note_on_c, 0, 99, 0
1, 233055, Tempo, 508475
1, 233065, Tempo, 502092
1, 233075, Tempo, 498960
1, 233095, Tempo, 505263
1, 233100, Note_on_c, 0, 97, 0
1, 233100, Note_on_c, 0, 99, 41
1, 233105, Tempo, 511727
1, 233115, Tempo, 521739
1, 233135, Tempo, 525164
1, 233145, Tempo, 528634
1, 233155, Tempo, 535714
1, 233160, Note_on_c, 0, 97, 47
1, 233165, Tempo, 532151
1, 233172, Note_on_c, 0, 99, 0
1, 233175, Tempo, 528634
1, 233185, Tempo, 525164
1, 233195, Tempo, 518359
1, 233205, Tempo, 515021
1, 233220, Note_on_c, 0, 99, 41
1, 233225, Tempo, 511727
1, 233232, Note_on_c, 0, 97, 0
1, 233280, Note_on_c, 0, 97, 47
1, 233285, Tempo, 528634
1, 233292, Note_on_c, 0, 99, 0
1, 233295, Tempo, 532151
1, 233345, Tempo, 528634
1, 233355, Tempo, 521739
1, 233360, Note_on_c, 0, 97, 0
1, 233360, Note_on_c, 0, 99, 41
1, 233365, Tempo, 515021
1, 233385, Tempo, 511727
1, 233395, Tempo, 508475
1, 233405, Tempo, 505263
1, 233415, Tempo, 502092
1, 233435, Tempo, 521739
1, 233440, Note_on_c, 0, 99, 0
1, 233440, Note_on_c, 0, 97, 49
1, 233445, Tempo, 525164
1, 233465, Tempo, 518359
1, 233520, Note_on_c, 0, 97, 0
1, 233520, Note_on_c, 0, 77, 0
1, 233520, Note_on_c, 0, 80, 0
1, 233520, Note_on_c, 0, 68, 0
1, 233520, Note_on_c, 0, 81, 47
1, 233520, Note_on_c, 0, 77, 39
1, 233520, Note_on_c, 0, 96, 53
1, 233529, Control_c, 0, 64, 0
1, 233553, Tempo, 570071
1, 233600, Note_on_c, 0, 96, 0
1, 233600, Note_on_c, 0, 97, 58
1, 233680, Note_on_c, 0, 97, 0
1, 233680, Note_on_c, 0, 98, 62
1, 233742, Tempo, 830450
1, 233760, Note_on_c, 0, 98, 0
1, 233760, Note_on_c, 0, 77, 0
1, 233760, Note_on_c, 0, 81, 0
1, 233760, Note_on_c, 0, 101, 50
1, 233760, Note_on_c, 0, 82, 55
1, 233760, Note_on_c, 0, 68, 46
1, 233760, Note_on_c, 0, 72, 46
1, 233760, Note_on_c, 0, 78, 46
1, 233760, Control_c, 0, 64, 127
1, 233802, Note_on_c, 0, 101, 0
1, 233802, Note_on_c, 0, 100, 50
1, 233844, Note_on_c, 0, 99, 50
1, 233844, Note_on_c, 0, 100, 0
1, 233880, Note_on_c, 0, 72, 0
1, 233880, Note_on_c, 0, 78, 0
1, 233880, Note_on_c, 0, 82, 0
1, 233880, Note_on_c, 0, 68, 0
1, 233886, Note_on_c, 0, 99, 0
1, 233886, Note_on_c, 0, 98, 49
1, 233928, Note_on_c, 0, 98, 0
1, 233928, Note_on_c, 0, 97, 49
1, 233942, Tempo, 821918
1, 233969, Note_on_c, 0, 96, 49
1, 233970, Note_on_c, 0, 97, 0
1, 234011, Note_on_c, 0, 96, 0
1, 234011, Note_on_c, 0, 95, 49
1, 234053, Note_on_c, 0, 94, 48
1, 234053, Note_on_c, 0, 95, 0
1, 234095, Note_on_c, 0, 94, 0
1, 234095, Note_on_c, 0, 93, 48
1, 234132, Tempo, 813559
1, 234137, Note_on_c, 0, 93, 0
1, 234137, Note_on_c, 0, 92, 48
1, 234178, Note_on_c, 0, 91, 47
1, 234179, Note_on_c, 0, 92, 0
1, 234220, Note_on_c, 0, 91, 0
1, 234220, Note_on_c, 0, 90, 47
1, 234262, Note_on_c, 0, 90, 0
1, 234262, Note_on_c, 0, 89, 47
1, 234304, Note_on_c, 0, 88, 46
1, 234304, Note_on_c, 0, 89, 0
1, 234332, Tempo, 805369
1, 234346, Note_on_c, 0, 88, 0
1, 234346, Note_on_c, 0, 87, 46
1, 234387, Note_on_c, 0, 86, 46
1, 234388, Note_on_c, 0, 87, 0
1, 234429, Note_on_c, 0, 86, 0
1, 234429, Note_on_c, 0, 85, 46
1, 234471, Note_on_c, 0, 85, 0
1, 234471, Note_on_c, 0, 84, 45
1, 234513, Note_on_c, 0, 83, 45
1, 234513, Note_on_c, 0, 84, 0
1, 234522, Tempo, 797342
1, 234555, Note_on_c, 0, 83, 0
1, 234555, Note_on_c, 0, 82, 45
1, 234597, Note_on_c, 0, 82, 0
1, 234597, Note_on_c, 0, 81, 44
1, 234638, Note_on_c, 0, 80, 44
1, 234639, Note_on_c, 0, 81, 0
1, 234675, Note_on_c, 0, 56, 39
1, 234680, Note_on_c, 0, 80, 0
1, 234680, Note_on_c, 0, 79, 44
1, 234690, Note_on_c, 0, 63, 41
1, 234705, Note_on_c, 0, 66, 44
1, 234712, Tempo, 789474
1, 234720, Note_on_c, 0, 79, 0
1, 234720, Note_on_c, 0, 78, 41
1, 234720, Note_on_c, 0, 72, 46
1, 234737, Control_c, 0, 64, 0
1, 234750, Control_c, 0, 64, 127
1, 234762, Note_on_c, 0, 78, 0
1, 234762, Note_on_c, 0, 77, 41
1, 234804, Note_on_c, 0, 77, 0
1, 234804, Note_on_c, 0, 76, 40
1, 234820, Note_on_c, 0, 63, 0
1, 234840, Note_on_c, 0, 72, 0
1, 234840, Note_on_c, 0, 66, 0
1, 234840, Note_on_c, 0, 56, 0
1, 234846, Note_on_c, 0, 76, 0
1, 234846, Note_on_c, 0, 75, 40
1, 234888, Note_on_c, 0, 75, 0
1, 234888, Note_on_c, 0, 74, 39
1, 234930, Note_on_c, 0, 74, 0
1, 234930, Note_on_c, 0, 73, 39
1, 234972, Note_on_c, 0, 73, 0
1, 234972, Note_on_c, 0, 72, 38
1, 235014, Note_on_c, 0, 72, 0
1, 235014, Note_on_c, 0, 71, 37
1, 235056, Note_on_c, 0, 71, 0
1, 235056, Note_on_c, 0, 70, 37
1, 235098, Note_on_c, 0, 70, 0
1, 235098, Note_on_c, 0, 69, 36
1, 235140, Note_on_c, 0, 69, 0
1, 235140, Note_on_c, 0, 68, 36
1, 235182, Note_on_c, 0, 68, 0
1, 235182, Note_on_c, 0, 67, 35
1, 235202, Tempo, 781759
1, 235224, Note_on_c, 0, 67, 0
1, 235224, Note_on_c, 0, 66, 35
1, 235266, Note_on_c, 0, 66, 0
1, 235266, Note_on_c, 0, 65, 34
1, 235302, Tempo, 789474
1, 235308, Note_on_c, 0, 65, 0
1, 235308, Note_on_c, 0, 64, 33
1, 235350, Note_on_c, 0, 64, 0
1, 235350, Note_on_c, 0, 63, 33
1, 235392, Tempo, 797342
1, 235392, Note_on_c, 0, 63, 0
1, 235392, Note_on_c, 0, 62, 32
1, 235434, Note_on_c, 0, 62, 0
1, 235434, Note_on_c, 0, 61, 32
1, 235476, Note_on_c, 0, 61, 0
1, 235476, Note_on_c, 0, 60, 31
1, 235482, Tempo, 805369
1, 235518, Note_on_c, 0, 60, 0
1, 235518, Note_on_c, 0, 59, 31
1, 235560, Note_on_c, 0, 59, 0
1, 235560, Note_on_c, 0, 58, 30
1, 235572, Tempo, 813559
1, 235602, Note_on_c, 0, 58, 0
1, 235602, Note_on_c, 0, 57, 30
1, 235644, Note_on_c, 0, 57, 0
1, 235644, Note_on_c, 0, 56, 29
1, 235650, Note_on_c, 0, 37, 33
1, 235662, Tempo, 821918
1, 235665, Note_on_c, 0, 44, 36
1, 235680, Note_on_c, 0, 56, 0
1, 235680, Note_on_c, 0, 49, 39
1, 235700, Control_c, 0, 64, 0
1, 235723, Control_c, 0, 64, 127
1, 235740, Note_on_c, 0, 53, 39
1, 235773, Tempo, 821918
1, 235793, Tempo, 813559
1, 235800, Note_on_c, 0, 53, 0
1, 235800, Note_on_c, 0, 56, 40
1, 235803, Tempo, 805369
1, 235813, Tempo, 797342
1, 235823, Tempo, 789474
1, 235843, Tempo, 781759
1, 235853, Tempo, 774194
1, 235860, Note_on_c, 0, 56, 0
1, 235860, Note_on_c, 0, 61, 37
1, 235863, Tempo, 766773
1, 235873, Tempo, 759494
1, 235883, Tempo, 752351
1, 235887, Tempo, 745342
1, 235920, Note_on_c, 0, 61, 0
1, 235920, Note_on_c, 0, 37, 0
1, 235920, Note_on_c, 0, 44, 0
1, 235920, Note_on_c, 0, 49, 0
1, 235920, Note_on_c, 0, 65, 39
1, 235980, Note_on_c, 0, 65, 0
1, 235980, Note_on_c, 0, 68, 41
1, 236027, Tempo, 738462
1, 236040, Note_on_c, 0, 68, 0
1, 236040, Note_on_c, 0, 73, 43
1, 236100, Note_on_c, 0, 73, 0
1, 236100, Note_on_c, 0, 77, 44
1, 236160, Note_on_c, 0, 77, 0
1, 236160, Note_on_c, 0, 80, 46
1, 236167, Tempo, 731707
1, 236207, Tempo, 738462
1, 236220, Note_on_c, 0, 80, 0
1, 236220, Note_on_c, 0, 85, 48
1, 236247, Tempo, 745342
1, 236277, Tempo, 752351
1, 236280, Note_on_c, 0, 85, 0
1, 236280, Note_on_c, 0, 89, 49
1, 236317, Tempo, 759494
1, 236340, Note_on_c, 0, 89, 0
1, 236340, Note_on_c, 0, 92, 51
1, 236357, Tempo, 766773
1, 236387, Tempo, 774194
1, 236400, Note_on_c, 0, 92, 0
1, 236400, Note_on_c, 0, 97, 53
1, 236427, Tempo, 781759
1, 236457, Tempo, 789474
1, 236520, Note_on_c, 0, 97, 0
1, 236683, Control_c, 0, 64, 0
1, 237221, Tempo, 604534
1, 237240, Note_on_c, 0, 77, 36
1, 237240, Note_on_c, 0, 73, 36
1, 237263, Control_c, 0, 64, 127
1, 237285, Tempo, 600000
1, 237317, Tempo, 595533
1, 237349, Tempo, 591133
1, 237360, Note_on_c, 0, 73, 0
1, 237360, Note_on_c, 0, 77, 0
1, 237360, Note_on_c, 0, 75, 40
1, 237360, Note_on_c, 0, 78, 40
1, 237413, Tempo, 586797
1, 237445, Tempo, 582524
1, 237477, Tempo, 578313
1, 237480, Note_on_c, 0, 78, 0
1, 237480, Note_on_c, 0, 75, 0
1, 237480, Note_on_c, 0, 76, 45
1, 237480, Note_on_c, 0, 79, 45
1, 237509, Tempo, 574163
1, 237600, Tempo, 518359
1, 237600, Note_on_c, 0, 79, 0
1, 237600, Note_on_c, 0, 76, 0
1, 237600, Note_on_c, 0, 82, 51
1, 237600, Note_on_c, 0, 78, 51
1, 237626, Control_c, 0, 64, 0
1, 237657, Control_c, 0, 64, 127
1, 237720, Tempo, 546697
1, 237720, Note_on_c, 0, 78, 0
1, 237720, Note_on_c, 0, 82, 0
1, 237720, Note_on_c, 0, 80, 42
1, 237720, Note_on_c, 0, 77, 42
1, 237828, Note_on_c, 0, 77, 0
1, 237828, Note_on_c, 0, 80, 0
1, 237840, Note_on_c, 0, 80, 42
1, 237840, Note_on_c, 0, 77, 42
1, 237840, Note_on_c, 0, 49, 34
1, 237930, Note_on_c, 0, 49, 0
1, 237960, Tempo, 578313
1, 237960, Note_on_c, 0, 77, 0
1, 237960, Note_on_c, 0, 80, 0
1, 237960, Note_on_c, 0, 79, 42
1, 237960, Note_on_c, 0, 76, 42
1, 237960, Note_on_c, 0, 65, 30
1, 238050, Note_on_c, 0, 65, 0
1, 238068, Note_on_c, 0, 76, 0
1, 238068, Note_on_c, 0, 79, 0
1, 238080, Tempo, 505263
1, 238080, Note_on_c, 0, 82, 47
1, 238080, Note_on_c, 0, 78, 47
1, 238080, Note_on_c, 0, 56, 35
1, 238170, Note_on_c, 0, 56, 0
1, 238200, Tempo, 528634
1, 238200, Note_on_c, 0, 78, 0
1, 238200, Note_on_c, 0, 82, 0
1, 238200, Note_on_c, 0, 80, 41
1, 238200, Note_on_c, 0, 77, 41
1, 238200, Note_on_c, 0, 65, 32
1, 238290, Note_on_c, 0, 65, 0
1, 238308, Note_on_c, 0, 77, 0
1, 238308, Note_on_c, 0, 80, 0
1, 238320, Note_on_c, 0, 77, 42
1, 238320, Note_on_c, 0, 80, 42
1, 238320, Note_on_c, 0, 61, 36
1, 238410, Note_on_c, 0, 61, 0
1, 238440, Tempo, 570071
1, 238440, Note_on_c, 0, 80, 0
1, 238440, Note_on_c, 0, 77, 0
1, 238440, Note_on_c, 0, 79, 44
1, 238440, Note_on_c, 0, 76, 44
1, 238440, Note_on_c, 0, 65, 33
1, 238530, Note_on_c, 0, 65, 0
1, 238548, Note_on_c, 0, 76, 0
1, 238548, Note_on_c, 0, 79, 0
1, 238560, Tempo, 489796
1, 238560, Note_on_c, 0, 82, 52
1, 238560, Note_on_c, 0, 78, 52
1, 238560, Note_on_c, 0, 56, 37
1, 238567, Control_c, 0, 64, 0
1, 238620, Control_c, 0, 64, 127
1, 238650, Note_on_c, 0, 56, 0
1, 238680, Tempo, 515021
1, 238680, Note_on_c, 0, 78, 0
1, 238680, Note_on_c, 0, 82, 0
1, 238680, Note_on_c, 0, 80, 45
1, 238680, Note_on_c, 0, 77, 45
1, 238680, Note_on_c, 0, 65, 34
1, 238770, Note_on_c, 0, 65, 0
1, 238788, Note_on_c, 0, 77, 0
1, 238788, Note_on_c, 0, 80, 0
1, 238800, Note_on_c, 0, 80, 45
1, 238800, Note_on_c, 0, 77, 45
1, 238800, Note_on_c, 0, 49, 39
1, 238890, Note_on_c, 0, 49, 0
1, 238920, Tempo, 550459
1, 238920, Note_on_c, 0, 77, 0
1, 238920, Note_on_c, 0, 80, 0
1, 238920, Note_on_c, 0, 79, 45
1, 238920, Note_on_c, 0, 76, 45
1, 238920, Note_on_c, 0, 65, 36
1, 239010, Note_on_c, 0, 65, 0
1, 239028, Note_on_c, 0, 76, 0
1, 239028, Note_on_c, 0, 79, 0
1, 239040, Tempo, 475248
1, 239040, Note_on_c, 0, 82, 54
1, 239040, Note_on_c, 0, 78, 54
1, 239040, Note_on_c, 0, 56, 41
1, 239130, Note_on_c, 0, 56, 0
1, 239160, Tempo, 498960
1, 239160, Note_on_c, 0, 78, 0
1, 239160, Note_on_c, 0, 82, 0
1, 239160, Note_on_c, 0, 80, 47
1, 239160, Note_on_c, 0, 77, 47
1, 239160, Note_on_c, 0, 65, 37
1, 239250, Note_on_c, 0, 65, 0
1, 239268, Note_on_c, 0, 77, 0
1, 239268, Note_on_c, 0, 80, 0
1, 239280, Note_on_c, 0, 77, 48
1, 239280, Note_on_c, 0, 80, 48
1, 239280, Note_on_c, 0, 61, 42
1, 239370, Note_on_c, 0, 61, 0
1, 239400, Tempo, 535714
1, 239400, Note_on_c, 0, 80, 0
1, 239400, Note_on_c, 0, 77, 0
1, 239400, Note_on_c, 0, 79, 50
1, 239400, Note_on_c, 0, 76, 50
1, 239400, Note_on_c, 0, 65, 40
1, 239490, Note_on_c, 0, 65, 0
1, 239508, Note_on_c, 0, 76, 0
1, 239508, Note_on_c, 0, 79, 0
1, 239520, Tempo, 469667
1, 239520, Note_on_c, 0, 82, 58
1, 239520, Note_on_c, 0, 78, 58
1, 239520, Note_on_c, 0, 56, 43
1, 239526, Control_c, 0, 64, 0
1, 239580, Control_c, 0, 64, 127
1, 239610, Note_on_c, 0, 56, 0
1, 239640, Tempo, 502092
1, 239640, Note_on_c, 0, 78, 0
1, 239640, Note_on_c, 0, 82, 0
1, 239640, Note_on_c, 0, 80, 51
1, 239640, Note_on_c, 0, 77, 51
1, 239640, Note_on_c, 0, 65, 37
1, 239730, Note_on_c, 0, 65, 0
1, 239748, Note_on_c, 0, 77, 0
1, 239748, Note_on_c, 0, 80, 0
1, 239760, Note_on_c, 0, 80, 51
1, 239760, Note_on_c, 0, 77, 51
1, 239760, Note_on_c, 0, 49, 45
1, 239850, Note_on_c, 0, 49, 0
1, 239880, Tempo, 542986
1, 239880, Note_on_c, 0, 77, 0
1, 239880, Note_on_c, 0, 80, 0
1, 239880, Note_on_c, 0, 79, 51
1, 239880, Note_on_c, 0, 76, 51
1, 239880, Note_on_c, 0, 65, 41
1, 239970, Note_on_c, 0, 65, 0
1, 239988, Note_on_c, 0, 76, 0
1, 239988, Note_on_c, 0, 79, 0
1, 240000, Tempo, 466926
1, 240000, Note_on_c, 0, 82, 59
1, 240000, Note_on_c, 0, 78, 59
1, 240000, Note_on_c, 0, 56, 46
1, 240090, Note_on_c, 0, 56, 0
1, 240120, Tempo, 515021
1, 240120, Note_on_c, 0, 78, 0
1, 240120, Note_on_c, 0, 82, 0
1, 240120, Note_on_c, 0, 80, 54
1, 240120, Note_on_c, 0, 77, 54
1, 240120, Note_on_c, 0, 65, 41
1, 240210, Note_on_c, 0, 65, 0
1, 240228, Note_on_c, 0, 77, 0
1, 240228, Note_on_c, 0, 80, 0
1, 240240, Note_on_c, 0, 77, 54
1, 240240, Note_on_c, 0, 80, 54
1, 240240, Note_on_c, 0, 61, 47
1, 240330, Note_on_c, 0, 61, 0
1, 240360, Tempo, 546697
1, 240360, Note_on_c, 0, 80, 0
1, 240360, Note_on_c, 0, 77, 0
1, 240360, Note_on_c, 0, 79, 54
1, 240360, Note_on_c, 0, 76, 54
1, 240360, Note_on_c, 0, 65, 43
1, 240450, Note_on_c, 0, 65, 0
1, 240468, Note_on_c, 0, 76, 0
1, 240468, Note_on_c, 0, 79, 0
1, 240480, Tempo, 502092
1, 240480, Note_on_c, 0, 78, 66
1, 240480, Note_on_c, 0, 82, 66
1, 240480, Note_on_c, 0, 56, 46
1, 240480, Control_c, 0, 64, 0
1, 240549, Control_c, 0, 64, 127
1, 240570, Note_on_c, 0, 56, 0
1, 240600, Tempo, 489796
1, 240600, Note_on_c, 0, 82, 0
1, 240600, Note_on_c, 0, 78, 0
1, 240600, Note_on_c, 0, 77, 61
1, 240600, Note_on_c, 0, 80, 61
1, 240600, Note_on_c, 0, 65, 41
1, 240708, Note_on_c, 0, 80, 0
1, 240708, Note_on_c, 0, 77, 0
1, 240720, Note_on_c, 0, 65, 0
1, 240720, Note_on_c, 0, 80, 63
1, 240720, Note_on_c, 0, 77, 51
1, 240720, Note_on_c, 0, 49, 45
1, 240840, Tempo, 525164
1, 240840, Note_on_c, 0, 49, 0
1, 240840, Note_on_c, 0, 80, 0
1, 240840, Note_on_c, 0, 89, 67
1, 240948, Note_on_c, 0, 89, 0
1, 240960, Tempo, 469667
1, 240960, Note_on_c, 0, 77, 0
1, 240960, Note_on_c, 0, 89, 73
1, 240960, Note_on_c, 0, 77, 54
1, 240960, Note_on_c, 0, 57, 41
1, 240965, Control_c, 0, 64, 0
1, 241029, Control_c, 0, 64, 127
1, 241080, Note_on_c, 0, 57, 0
1, 241080, Note_on_c, 0, 89, 0
1, 241080, Note_on_c, 0, 88, 71
1, 241188, Note_on_c, 0, 88, 0
1, 241200, Note_on_c, 0, 77, 0
1, 241200, Note_on_c, 0, 88, 73
1, 241200, Note_on_c, 0, 77, 51
1, 241200, Note_on_c, 0, 60, 37
1, 241200, Note_on_c, 0, 65, 37
1, 241320, Tempo, 508475
1, 241320, Note_on_c, 0, 65, 0
1, 241320, Note_on_c, 0, 60, 0
1, 241320, Note_on_c, 0, 88, 0
1, 241320, Note_on_c, 0, 87, 67
1, 241433, Note_on_c, 0, 87, 0
1, 241440, Tempo, 469667
1, 241440, Note_on_c, 0, 77, 0
1, 241440, Note_on_c, 0, 87, 72
1, 241440, Note_on_c, 0, 77, 54
1, 241440, Note_on_c, 0, 58, 41
1, 241449, Control_c, 0, 64, 0
1, 241477, Control_c, 0, 64, 127
1, 241560, Note_on_c, 0, 58, 0
1, 241560, Note_on_c, 0, 87, 0
1, 241560, Note_on_c, 0, 86, 69
1, 241668, Note_on_c, 0, 86, 0
1, 241680, Note_on_c, 0, 77, 0
1, 241680, Note_on_c, 0, 86, 72
1, 241680, Note_on_c, 0, 77, 51
1, 241680, Note_on_c, 0, 70, 37
1, 241680, Note_on_c, 0, 65, 31
1, 241800, Tempo, 505263
1, 241800, Note_on_c, 0, 65, 0
1, 241800, Note_on_c, 0, 70, 0
1, 241800, Note_on_c, 0, 86, 0
1, 241800, Note_on_c, 0, 85, 67
1, 241908, Note_on_c, 0, 85, 0
1, 241920, Tempo, 469667
1, 241920, Note_on_c, 0, 77, 0
1, 241920, Note_on_c, 0, 85, 70
1, 241920, Note_on_c, 0, 77, 51
1, 241920, Note_on_c, 0, 53, 41
1, 242040, Note_on_c, 0, 53, 0
1, 242040, Note_on_c, 0, 85, 0
1, 242040, Note_on_c, 0, 84, 62
1, 242148, Note_on_c, 0, 84, 0
1, 242160, Note_on_c, 0, 77, 0
1, 242160, Note_on_c, 0, 84, 69
1, 242160, Note_on_c, 0, 77, 49
1, 242160, Note_on_c, 0, 75, 36
1, 242160, Note_on_c, 0, 69, 30
1, 242160, Note_on_c, 0, 65, 30
1, 242280, Tempo, 511727
1, 242280, Note_on_c, 0, 65, 0
1, 242280, Note_on_c, 0, 75, 0
1, 242280, Note_on_c, 0, 69, 0
1, 242280, Note_on_c, 0, 84, 0
1, 242280, Note_on_c, 0, 83, 62
1, 242340, Note_on_c, 0, 83, 0
1, 242340, Note_on_c, 0, 85, 52
1, 242400, Tempo, 478088
1, 242400, Note_on_c, 0, 85, 0
1, 242400, Note_on_c, 0, 77, 0
1, 242400, Note_on_c, 0, 84, 64
1, 242400, Note_on_c, 0, 77, 64
1, 242400, Note_on_c, 0, 73, 42
1, 242400, Note_on_c, 0, 70, 35
1, 242430, Control_c, 0, 64, 0
1, 242480, Control_c, 0, 64, 127
1, 242520, Note_on_c, 0, 70, 0
1, 242520, Note_on_c, 0, 73, 0
1, 242520, Note_on_c, 0, 84, 0
1, 242520, Note_on_c, 0, 82, 61
1, 242580, Note_on_c, 0, 82, 0
1, 242580, Note_on_c, 0, 84, 51
1, 242640, Note_on_c, 0, 84, 0
1, 242640, Note_on_c, 0, 77, 0
1, 242640, Note_on_c, 0, 82, 63
1, 242640, Note_on_c, 0, 77, 63
1, 242640, Note_on_c, 0, 75, 36
1, 242640, Note_on_c, 0, 72, 30
1, 242640, Note_on_c, 0, 65, 30
1, 242760, Tempo, 505263
1, 242760, Note_on_c, 0, 65, 0
1, 242760, Note_on_c, 0, 75, 0
1, 242760, Note_on_c, 0, 72, 0
1, 242760, Note_on_c, 0, 82, 0
1, 242760, Note_on_c, 0, 81, 61
1, 242820, Note_on_c, 0, 81, 0
1, 242820, Note_on_c, 0, 85, 52
1, 242880, Tempo, 478088
1, 242880, Note_on_c, 0, 85, 0
1, 242880, Note_on_c, 0, 77, 0
1, 242880, Note_on_c, 0, 84, 61
1, 242880, Note_on_c, 0, 77, 61
1, 242880, Note_on_c, 0, 73, 40
1, 242880, Note_on_c, 0, 70, 33
1, 243000, Note_on_c, 0, 70, 0
1, 243000, Note_on_c, 0, 73, 0
1, 243000, Note_on_c, 0, 84, 0
1, 243000, Note_on_c, 0, 82, 61
1, 243060, Note_on_c, 0, 82, 0
1, 243060, Note_on_c, 0, 84, 51
1, 243120, Note_on_c, 0, 84, 0
1, 243120, Note_on_c, 0, 77, 0
1, 243120, Note_on_c, 0, 82, 59
1, 243120, Note_on_c, 0, 77, 59
1, 243120, Note_on_c, 0, 75, 35
1, 243120, Note_on_c, 0, 72, 28
1, 243120, Note_on_c, 0, 65, 28
1, 243240, Tempo, 515021
1, 243240, Note_on_c, 0, 65, 0
1, 243240, Note_on_c, 0, 75, 0
1, 243240, Note_on_c, 0, 72, 0
1, 243240, Note_on_c, 0, 82, 0
1, 243240, Note_on_c, 0, 81, 53
1, 243300, Note_on_c, 0, 81, 0
1, 243300, Note_on_c, 0, 85, 47
1, 243360, Tempo, 480962
1, 243360, Note_on_c, 0, 85, 0
1, 243360, Note_on_c, 0, 77, 0
1, 243360, Note_on_c, 0, 84, 59
1, 243360, Note_on_c, 0, 77, 59
1, 243360, Note_on_c, 0, 73, 38
1, 243360, Note_on_c, 0, 70, 31
1, 243369, Control_c, 0, 64, 0
1, 243400, Control_c, 0, 64, 127
1, 243480, Note_on_c, 0, 70, 0
1, 243480, Note_on_c, 0, 73, 0
1, 243480, Note_on_c, 0, 84, 0
1, 243480, Note_on_c, 0, 82, 55
1, 243540, Note_on_c, 0, 82, 0
1, 243540, Note_on_c, 0, 84, 46
1, 243600, Note_on_c, 0, 84, 0
1, 243600, Note_on_c, 0, 77, 0
1, 243600, Note_on_c, 0, 82, 57
1, 243600, Note_on_c, 0, 77, 57
1, 243600, Note_on_c, 0, 75, 33
1, 243600, Note_on_c, 0, 72, 27
1, 243600, Note_on_c, 0, 65, 27
1, 243720, Tempo, 518359
1, 243720, Note_on_c, 0, 65, 0
1, 243720, Note_on_c, 0, 75, 0
1, 243720, Note_on_c, 0, 72, 0
1, 243720, Note_on_c, 0, 82, 0
1, 243720, Note_on_c, 0, 81, 56
1, 243780, Note_on_c, 0, 81, 0
1, 243780, Note_on_c, 0, 85, 46
1, 243840, Tempo, 480962
1, 243840, Note_on_c, 0, 85, 0
1, 243840, Note_on_c, 0, 77, 0
1, 243840, Note_on_c, 0, 84, 55
1, 243840, Note_on_c, 0, 77, 55
1, 243840, Note_on_c, 0, 73, 36
1, 243840, Note_on_c, 0, 70, 30
1, 243960, Note_on_c, 0, 70, 0
1, 243960, Note_on_c, 0, 73, 0
1, 243960, Note_on_c, 0, 84, 0
1, 243960, Note_on_c, 0, 82, 55
1, 244020, Note_on_c, 0, 82, 0
1, 244020, Note_on_c, 0, 84, 45
1, 244080, Note_on_c, 0, 84, 0
1, 244080, Note_on_c, 0, 77, 0
1, 244080, Note_on_c, 0, 82, 54
1, 244080, Note_on_c, 0, 77, 54
1, 244080, Note_on_c, 0, 75, 32
1, 244080, Note_on_c, 0, 72, 27
1, 244080, Note_on_c, 0, 65, 27
1, 244200, Tempo, 515021
1, 244200, Note_on_c, 0, 65, 0
1, 244200, Note_on_c, 0, 75, 0
1, 244200, Note_on_c, 0, 72, 0
1, 244200, Note_on_c, 0, 82, 0
1, 244200, Note_on_c, 0, 81, 48
1, 244316, Tempo, 528634
1, 244320, Time_signature, 3, 2, 24, 8
1, 244320, Note_on_c, 0, 81, 0
1, 244320, Note_on_c, 0, 77, 0
1, 244320, Note_on_c, 0, 77, 55
1, 244320, Note_on_c, 0, 70, 31
1, 244320, Note_on_c, 0, 73, 38
1, 244320, Note_on_c, 0, 82, 36
1, 244340, Control_c, 0, 64, 0
1, 244376, Tempo, 525164
1, 244380, Note_on_c, 0, 82, 0
1, 244380, Note_on_c, 0, 84, 32
1, 244401, Control_c, 0, 64, 127
1, 244436, Tempo, 521739
1, 244440, Note_on_c, 0, 82, 36
1, 244452, Note_on_c, 0, 84, 0
1, 244476, Tempo, 518359
1, 244500, Note_on_c, 0, 84, 32
1, 244512, Note_on_c, 0, 82, 0
1, 244536, Tempo, 515021
1, 244560, Note_on_c, 0, 82, 36
1, 244572, Note_on_c, 0, 84, 0
1, 244576, Tempo, 511727
1, 244620, Note_on_c, 0, 82, 0
1, 244620, Note_on_c, 0, 84, 32
1, 244636, Tempo, 508475
1, 244676, Tempo, 505263
1, 244680, Note_on_c, 0, 82, 36
1, 244692, Note_on_c, 0, 84, 0
1, 244736, Tempo, 502092
1, 244740, Note_on_c, 0, 84, 32
1, 244752, Note_on_c, 0, 82, 0
1, 244776, Tempo, 498960
1, 244800, Note_on_c, 0, 82, 36
1, 244812, Note_on_c, 0, 84, 0
1, 244860, Note_on_c, 0, 82, 0
1, 244860, Note_on_c, 0, 84, 32
1, 244920, Note_on_c, 0, 82, 36
1, 244932, Note_on_c, 0, 84, 0
1, 244956, Tempo, 495868
1, 244980, Note_on_c, 0, 84, 32
1, 244992, Note_on_c, 0, 82, 0
1, 245040, Note_on_c, 0, 82, 36
1, 245052, Note_on_c, 0, 84, 0
1, 245100, Note_on_c, 0, 82, 0
1, 245100, Note_on_c, 0, 84, 32
1, 245116, Tempo, 492813
1, 245160, Note_on_c, 0, 82, 36
1, 245172, Note_on_c, 0, 84, 0
1, 245220, Note_on_c, 0, 84, 32
1, 245232, Note_on_c, 0, 82, 0
1, 245280, Note_on_c, 0, 73, 0
1, 245280, Note_on_c, 0, 77, 0
1, 245280, Note_on_c, 0, 70, 0
1, 245280, Note_on_c, 0, 81, 42
1, 245280, Control_c, 0, 64, 0
1, 245292, Note_on_c, 0, 84, 0
1, 245340, Control_c, 0, 64, 127
1, 245360, Note_on_c, 0, 81, 0
1, 245360, Note_on_c, 0, 82, 43
1, 245440, Note_on_c, 0, 82, 0
1, 245440, Note_on_c, 0, 83, 44
1, 245500, Note_on_c, 0, 83, 0
1, 245520, Note_on_c, 0, 84, 45
1, 245600, Note_on_c, 0, 84, 0
1, 245600, Note_on_c, 0, 85, 46
1, 245680, Note_on_c, 0, 85, 0
1, 245680, Note_on_c, 0, 86, 47
1, 245719, Tempo, 492813
1, 245760, Time_signature, 2, 2, 24, 8
1, 245760, Note_on_c, 0, 86, 0
1, 245760, Note_on_c, 0, 87, 48
1, 245840, Note_on_c, 0, 87, 0
1, 245840, Note_on_c, 0, 88, 49
1, 245849, Tempo, 489796
1, 245920, Note_on_c, 0, 88, 0
1, 245920, Note_on_c, 0, 89, 50
1, 245969, Tempo, 486815
1, 246000, Note_on_c, 0, 89, 0
1, 246000, Note_on_c, 0, 90, 51
1, 246080, Note_on_c, 0, 90, 0
1, 246080, Note_on_c, 0, 91, 52
1, 246099, Tempo, 483871
1, 246160, Note_on_c, 0, 91, 0
1, 246160, Note_on_c, 0, 92, 53
1, 246219, Tempo, 480962
1, 246240, Note_on_c, 0, 92, 0
1, 246240, Note_on_c, 0, 93, 54
1, 246320, Note_on_c, 0, 93, 0
1, 246320, Note_on_c, 0, 94, 55
1, 246400, Note_on_c, 0, 94, 0
1, 246400, Note_on_c, 0, 95, 56
1, 246480, Note_on_c, 0, 95, 0
1, 246480, Note_on_c, 0, 96, 57
1, 246560, Note_on_c, 0, 96, 0
1, 246560, Note_on_c, 0, 97, 58
1, 246600, Note_on_c, 0, 54, 56
1, 246640, Note_on_c, 0, 97, 0
1, 246640, Note_on_c, 0, 99, 59
1, 246720, Time_signature, 6, 2, 24, 8
1, 246720, Tempo, 427046
1, 246720, Note_on_c, 0, 99, 0
1, 246720, Note_on_c, 0, 54, 0
1, 246720, Note_on_c, 0, 97, 63
1, 246720, Note_on_c, 0, 70, 56
1, 246720, Note_on_c, 0, 73, 56
1, 246720, Control_c, 0, 64, 0
1, 246768, Note_on_c, 0, 97, 0
1, 246768, Note_on_c, 0, 99, 45
1, 246771, Control_c, 0, 64, 127
1, 246816, Note_on_c, 0, 99, 0
1, 246816, Note_on_c, 0, 97, 45
1, 246840, Note_on_c, 0, 73, 0
1, 246840, Note_on_c, 0, 70, 0
1, 246864, Note_on_c, 0, 97, 0
1, 246864, Note_on_c, 0, 96, 45
1, 246912, Note_on_c, 0, 96, 0
1, 246912, Note_on_c, 0, 97, 45
1, 246960, Note_on_c, 0, 97, 0
1, 246960, Note_on_c, 0, 99, 51
1, 247020, Note_on_c, 0, 99, 0
1, 247020, Note_on_c, 0, 97, 46
1, 247080, Note_on_c, 0, 97, 0
1, 247080, Note_on_c, 0, 94, 46
1, 247140, Note_on_c, 0, 94, 0
1, 247140, Note_on_c, 0, 92, 46
1, 247200, Note_on_c, 0, 92, 0
1, 247200, Note_on_c, 0, 97, 51
1, 247260, Note_on_c, 0, 97, 0
1, 247260, Note_on_c, 0, 94, 46
1, 247320, Note_on_c, 0, 94, 0
1, 247320, Note_on_c, 0, 92, 46
1, 247380, Note_on_c, 0, 92, 0
1, 247380, Note_on_c, 0, 90, 46
1, 247440, Tempo, 609137
1, 247440, Note_on_c, 0, 90, 0
1, 247440, Note_on_c, 0, 94, 51
1, 247440, Note_on_c, 0, 70, 54
1, 247440, Note_on_c, 0, 73, 54
1, 247500, Note_on_c, 0, 94, 0
1, 247500, Note_on_c, 0, 92, 46
1, 247560, Note_on_c, 0, 92, 0
1, 247560, Note_on_c, 0, 90, 46
1, 247620, Note_on_c, 0, 90, 0
1, 247620, Note_on_c, 0, 87, 46
1, 247680, Note_on_c, 0, 87, 0
1, 247680, Note_on_c, 0, 92, 51
1, 247740, Note_on_c, 0, 92, 0
1, 247740, Note_on_c, 0, 90, 45
1, 247800, Note_on_c, 0, 90, 0
1, 247800, Note_on_c, 0, 87, 45
1, 247860, Note_on_c, 0, 87, 0
1, 247860, Note_on_c, 0, 85, 45
1, 247920, Tempo, 582524
1, 247920, Note_on_c, 0, 85, 0
1, 247920, Note_on_c, 0, 73, 0
1, 247920, Note_on_c, 0, 70, 0
1, 247920, Note_on_c, 0, 90, 51
1, 247920, Note_on_c, 0, 68, 53
1, 247920, Note_on_c, 0, 72, 53
1, 247980, Note_on_c, 0, 90, 0
1, 247980, Note_on_c, 0, 87, 45
1, 248040, Note_on_c, 0, 87, 0
1, 248040, Note_on_c, 0, 85, 45
1, 248100, Note_on_c, 0, 85, 0
1, 248100, Note_on_c, 0, 82, 45
1, 248139, Tempo, 578313
1, 248160, Note_on_c, 0, 82, 0
1, 248160, Note_on_c, 0, 87, 51
1, 248220, Note_on_c, 0, 87, 0
1, 248220, Note_on_c, 0, 85, 45
1, 248259, Tempo, 582524
1, 248280, Note_on_c, 0, 85, 0
1, 248280, Note_on_c, 0, 82, 45
1, 248340, Note_on_c, 0, 82, 0
1, 248340, Note_on_c, 0, 80, 45
1, 248369, Tempo, 586797
1, 248400, Note_on_c, 0, 80, 0
1, 248400, Note_on_c, 0, 72, 0
1, 248400, Note_on_c, 0, 68, 0
1, 248400, Note_on_c, 0, 85, 51
1, 248460, Note_on_c, 0, 85, 0
1, 248460, Note_on_c, 0, 82, 47
1, 248489, Tempo, 591133
1, 248520, Note_on_c, 0, 82, 0
1, 248520, Note_on_c, 0, 80, 47
1, 248580, Note_on_c, 0, 80, 0
1, 248580, Note_on_c, 0, 78, 47
1, 248599, Tempo, 595533
1, 248640, Note_on_c, 0, 78, 0
1, 248640, Note_on_c, 0, 82, 51
1, 248692, Note_on_c, 0, 82, 0
1, 248692, Note_on_c, 0, 80, 46
1, 248709, Tempo, 591133
1, 248744, Note_on_c, 0, 80, 0
1, 248745, Note_on_c, 0, 78, 46
1, 248797, Note_on_c, 0, 78, 0
1, 248797, Note_on_c, 0, 75, 46
1, 248819, Tempo, 586797
1, 248849, Note_on_c, 0, 75, 0
1, 248849, Note_on_c, 0, 80, 51
1, 248901, Note_on_c, 0, 80, 0
1, 248901, Note_on_c, 0, 78, 45
1, 248929, Tempo, 582524
1, 248953, Note_on_c, 0, 78, 0
1, 248953, Note_on_c, 0, 75, 45
1, 249005, Note_on_c, 0, 75, 0
1, 249006, Note_on_c, 0, 73, 45
1, 249039, Tempo, 578313
1, 249058, Note_on_c, 0, 73, 0
1, 249058, Note_on_c, 0, 78, 51
1, 249110, Note_on_c, 0, 78, 0
1, 249110, Note_on_c, 0, 75, 45
1, 249162, Note_on_c, 0, 75, 0
1, 249162, Note_on_c, 0, 73, 45
1, 249214, Note_on_c, 0, 73, 0
1, 249214, Note_on_c, 0, 70, 45
1, 249266, Note_on_c, 0, 70, 0
1, 249267, Note_on_c, 0, 75, 51
1, 249319, Note_on_c, 0, 75, 0
1, 249319, Note_on_c, 0, 73, 47
1, 249371, Note_on_c, 0, 73, 0
1, 249371, Note_on_c, 0, 70, 47
1, 249420, Tempo, 1472393
1, 249423, Note_on_c, 0, 70, 0
1, 249423, Note_on_c, 0, 68, 47
1, 249473, Control_c, 0, 64, 0
1, 249475, Note_on_c, 0, 68, 0
1, 249540, Tempo, 670391
1, 249540, Note_on_c, 0, 70, 63
1, 249540, Note_on_c, 0, 58, 54
1, 249540, Note_on_c, 0, 61, 54
1, 249540, Note_on_c, 0, 54, 54
1, 249540, Note_on_c, 0, 42, 45
1, 249600, Tempo, 483871
1, 249600, Note_on_c, 0, 42, 0
1, 249600, Note_on_c, 0, 61, 0
1, 249600, Note_on_c, 0, 70, 0
1, 249600, Note_on_c, 0, 58, 0
1, 249600, Note_on_c, 0, 54, 0
1, 249600, Note_on_c, 0, 68, 71
1, 249600, Note_on_c, 0, 56, 60
1, 249600, Note_on_c, 0, 61, 60
1, 249600, Note_on_c, 0, 53, 63
1, 249600, Note_on_c, 0, 44, 53
1, 249720, Note_on_c, 0, 44, 0
1, 249720, Note_on_c, 0, 61, 0
1, 249720, Note_on_c, 0, 68, 0
1, 249720, Note_on_c, 0, 56, 0
1, 249720, Note_on_c, 0, 53, 0
1, 250080, Tempo, 546697
1, 250080, Note_on_c, 0, 92, 51
1, 250080, Control_c, 0, 64, 127
1, 250128, Note_on_c, 0, 92, 0
1, 250128, Note_on_c, 0, 94, 46
1, 250176, Note_on_c, 0, 94, 0
1, 250176, Note_on_c, 0, 92, 45
1, 250224, Note_on_c, 0, 92, 0
1, 250224, Note_on_c, 0, 91, 45
1, 250272, Note_on_c, 0, 91, 0
1, 250272, Note_on_c, 0, 92, 45
1, 250320, Tempo, 582524
1, 250320, Note_on_c, 0, 92, 0
1, 250320, Note_on_c, 0, 101, 51
1, 250320, Note_on_c, 0, 56, 45
1, 250320, Note_on_c, 0, 65, 45
1, 250320, Note_on_c, 0, 68, 45
1, 250380, Note_on_c, 0, 101, 0
1, 250380, Note_on_c, 0, 99, 47
1, 250440, Note_on_c, 0, 99, 0
1, 250440, Note_on_c, 0, 97, 47
1, 250500, Note_on_c, 0, 97, 0
1, 250500, Note_on_c, 0, 94, 47
1, 250539, Tempo, 582524
1, 250560, Note_on_c, 0, 94, 0
1, 250560, Note_on_c, 0, 99, 51
1, 250620, Note_on_c, 0, 99, 0
1, 250620, Note_on_c, 0, 97, 46
1, 250680, Note_on_c, 0, 97, 0
1, 250680, Note_on_c, 0, 94, 46
1, 250709, Tempo, 578313
1, 250740, Note_on_c, 0, 94, 0
1, 250740, Note_on_c, 0, 92, 46
1, 250800, Note_on_c, 0, 92, 0
1, 250800, Note_on_c, 0, 97, 51
1, 250860, Note_on_c, 0, 97, 0
1, 250860, Note_on_c, 0, 94, 46
1, 250879, Tempo, 574163
1, 250920, Note_on_c, 0, 94, 0
1, 250920, Note_on_c, 0, 92, 46
1, 250980, Note_on_c, 0, 92, 0
1, 250980, Note_on_c, 0, 89, 46
1, 251040, Note_on_c, 0, 89, 0
1, 251040, Note_on_c, 0, 94, 51
1, 251049, Tempo, 570071
1, 251100, Note_on_c, 0, 94, 0
1, 251100, Note_on_c, 0, 92, 46
1, 251160, Note_on_c, 0, 92, 0
1, 251160, Note_on_c, 0, 89, 46
1, 251209, Tempo, 566038
1, 251220, Note_on_c, 0, 89, 0
1, 251220, Note_on_c, 0, 87, 46
1, 251280, Note_on_c, 0, 87, 0
1, 251280, Note_on_c, 0, 92, 51
1, 251340, Note_on_c, 0, 92, 0
1, 251340, Note_on_c, 0, 89, 45
1, 251369, Tempo, 562061
1, 251400, Note_on_c, 0, 89, 0
1, 251400, Note_on_c, 0, 87, 45
1, 251460, Note_on_c, 0, 87, 0
1, 251460, Note_on_c, 0, 85, 45
1, 251520, Note_on_c, 0, 85, 0
1, 251520, Note_on_c, 0, 89, 51
1, 251529, Tempo, 558140
1, 251580, Note_on_c, 0, 89, 0
1, 251580, Note_on_c, 0, 87, 45
1, 251640, Note_on_c, 0, 87, 0
1, 251640, Note_on_c, 0, 85, 45
1, 251669, Tempo, 562061
1, 251700, Note_on_c, 0, 85, 0
1, 251700, Note_on_c, 0, 82, 45
1, 251760, Note_on_c, 0, 82, 0
1, 251760, Note_on_c, 0, 87, 51
1, 251799, Tempo, 566038
1, 251820, Note_on_c, 0, 87, 0
1, 251820, Note_on_c, 0, 85, 45
1, 251880, Note_on_c, 0, 85, 0
1, 251880, Note_on_c, 0, 82, 45
1, 251929, Tempo, 570071
1, 251940, Note_on_c, 0, 82, 0
1, 251940, Note_on_c, 0, 80, 45
1, 252000, Note_on_c, 0, 80, 0
1, 252000, Note_on_c, 0, 85, 51
1, 252009, Tempo, 562061
1, 252060, Note_on_c, 0, 85, 0
1, 252060, Note_on_c, 0, 82, 47
1, 252120, Note_on_c, 0, 82, 0
1, 252120, Note_on_c, 0, 80, 47
1, 252180, Note_on_c, 0, 80, 0
1, 252180, Note_on_c, 0, 77, 47
1, 252240, Note_on_c, 0, 77, 0
1, 252240, Note_on_c, 0, 82, 51
1, 252300, Note_on_c, 0, 82, 0
1, 252300, Note_on_c, 0, 80, 44
1, 252360, Note_on_c, 0, 80, 0
1, 252360, Note_on_c, 0, 77, 44
1, 252420, Note_on_c, 0, 77, 0
1, 252420, Note_on_c, 0, 75, 44
1, 252480, Note_on_c, 0, 75, 0
1, 252480, Note_on_c, 0, 68, 0
1, 252480, Note_on_c, 0, 65, 0
1, 252480, Note_on_c, 0, 56, 0
1, 252480, Note_on_c, 0, 80, 47
1, 252540, Note_on_c, 0, 80, 0
1, 252540, Note_on_c, 0, 77, 40
1, 252600, Note_on_c, 0, 77, 0
1, 252600, Note_on_c, 0, 75, 40
1, 252660, Note_on_c, 0, 75, 0
1, 252660, Note_on_c, 0, 73, 40
1, 252720, Note_on_c, 0, 73, 0
1, 252720, Note_on_c, 0, 77, 43
1, 252780, Note_on_c, 0, 77, 0
1, 252780, Note_on_c, 0, 75, 37
1, 252840, Note_on_c, 0, 75, 0
1, 252840, Note_on_c, 0, 73, 37
1, 252900, Note_on_c, 0, 73, 0
1, 252900, Note_on_c, 0, 70, 37
1, 252960, Note_on_c, 0, 70, 0
1, 252960, Note_on_c, 0, 75, 43
1, 252979, Tempo, 558140
1, 252989, Tempo, 566038
1, 253012, Note_on_c, 0, 75, 0
1, 253012, Note_on_c, 0, 73, 35
1, 253039, Tempo, 570071
1, 253064, Note_on_c, 0, 73, 0
1, 253065, Note_on_c, 0, 70, 35
1, 253089, Tempo, 574163
1, 253117, Note_on_c, 0, 70, 0
1, 253117, Note_on_c, 0, 68, 35
1, 253139, Tempo, 578313
1, 253169, Note_on_c, 0, 68, 0
1, 253169, Note_on_c, 0, 73, 42
1, 253189, Tempo, 582524
1, 253221, Note_on_c, 0, 73, 0
1, 253221, Note_on_c, 0, 70, 36
1, 253239, Tempo, 586797
1, 253273, Note_on_c, 0, 70, 0
1, 253273, Note_on_c, 0, 68, 36
1, 253289, Tempo, 591133
1, 253325, Note_on_c, 0, 68, 0
1, 253326, Note_on_c, 0, 65, 36
1, 253339, Tempo, 595533
1, 253378, Note_on_c, 0, 65, 0
1, 253378, Note_on_c, 0, 70, 42
1, 253389, Tempo, 600000
1, 253430, Note_on_c, 0, 70, 0
1, 253430, Note_on_c, 0, 68, 37
1, 253439, Tempo, 604534
1, 253482, Note_on_c, 0, 68, 0
1, 253482, Note_on_c, 0, 65, 37
1, 253534, Note_on_c, 0, 65, 0
1, 253534, Note_on_c, 0, 63, 37
1, 253586, Note_on_c, 0, 63, 0
1, 253587, Note_on_c, 0, 68, 42
1, 253639, Note_on_c, 0, 68, 0
1, 253639, Note_on_c, 0, 65, 38
1, 253691, Note_on_c, 0, 65, 0
1, 253691, Note_on_c, 0, 63, 38
1, 253740, Tempo, 1764706
1, 253743, Note_on_c, 0, 63, 0
1, 253743, Note_on_c, 0, 61, 38
1, 253795, Note_on_c, 0, 61, 0
1, 253795, Control_c, 0, 64, 0
1, 253860, Tempo, 633245
1, 253860, Note_on_c, 0, 81, 75
1, 253860, Note_on_c, 0, 69, 64
1, 253860, Note_on_c, 0, 65, 64
1, 253860, Note_on_c, 0, 53, 54
1, 253920, Tempo, 752351
1, 253920, Note_on_c, 0, 53, 0
1, 253920, Note_on_c, 0, 81, 0
1, 253920, Note_on_c, 0, 69, 0
1, 253920, Note_on_c, 0, 65, 0
1, 253920, Note_on_c, 0, 82, 85
1, 253920, Note_on_c, 0, 70, 72
1, 253920, Note_on_c, 0, 66, 75
1, 253920, Note_on_c, 0, 54, 63
1, 254040, Note_on_c, 0, 54, 0
1, 254040, Note_on_c, 0, 82, 0
1, 254040, Note_on_c, 0, 70, 0
1, 254040, Note_on_c, 0, 66, 0
1, 254400, Note_on_c, 0, 54, 72
1, 254400, Note_on_c, 0, 60, 85
1, 254400, Note_on_c, 0, 48, 63
1, 254400, Note_on_c, 0, 32, 63
1, 254400, Note_on_c, 0, 39, 63
1, 254400, Note_on_c, 0, 44, 75
1, 254880, Note_on_c, 0, 44, 0
1, 254880, Note_on_c, 0, 60, 0
1, 254880, Note_on_c, 0, 48, 0
1, 254880, Note_on_c, 0, 54, 0
1, 254880, Note_on_c, 0, 39, 0
1, 254880, Note_on_c, 0, 32, 0
1, 255360, Time_signature, 2, 2, 24, 8
1, 256320, Tempo, 638298
1, 256320, Marker_t, "Stretta Vivace"
1, 256320, Note_on_c, 0, 37, 37
1, 256380, Note_on_c, 0, 37, 0
1, 256440, Tempo, 725076
1, 256440, Note_on_c, 0, 44, 37
1, 256500, Note_on_c, 0, 44, 0
1, 256560, Tempo, 699708
1, 256560, Note_on_c, 0, 56, 40
1, 256560, Note_on_c, 0, 49, 34
1, 256800, Tempo, 633245
1, 256800, Note_on_c, 0, 49, 0
1, 256800, Note_on_c, 0, 56, 0
1, 256800, Note_on_c, 0, 37, 38
1, 256860, Note_on_c, 0, 37, 0
1, 256920, Tempo, 738462
1, 256920, Note_on_c, 0, 44, 38
1, 256980, Note_on_c, 0, 44, 0
1, 257040, Tempo, 693642
1, 257040, Note_on_c, 0, 56, 40
1, 257040, Note_on_c, 0, 49, 34
1, 257280, Tempo, 659341
1, 257280, Note_on_c, 0, 49, 0
1, 257280, Note_on_c, 0, 56, 0
1, 257280, Note_on_c, 0, 37, 37
1, 257340, Note_on_c, 0, 37, 0
1, 257400, Tempo, 731707
1, 257400, Note_on_c, 0, 44, 37
1, 257460, Note_on_c, 0, 44, 0
1, 257520, Tempo, 699708
1, 257520, Note_on_c, 0, 68, 46
1, 257520, Note_on_c, 0, 65, 39
1, 257520, Note_on_c, 0, 56, 40
1, 257520, Note_on_c, 0, 49, 34
1, 257760, Tempo, 659341
1, 257760, Note_on_c, 0, 49, 0
1, 257760, Note_on_c, 0, 56, 0
1, 257760, Note_on_c, 0, 37, 38
1, 257820, Note_on_c, 0, 37, 0
1, 257880, Tempo, 687679
1, 257880, Note_on_c, 0, 65, 0
1, 257880, Note_on_c, 0, 68, 0
1, 257880, Note_on_c, 0, 66, 41
1, 257880, Note_on_c, 0, 63, 34
1, 257880, Note_on_c, 0, 44, 38
1, 257940, Note_on_c, 0, 44, 0
1, 257940, Note_on_c, 0, 63, 0
1, 257940, Note_on_c, 0, 66, 0
1, 258000, Tempo, 562061
1, 258000, Note_on_c, 0, 65, 41
1, 258000, Note_on_c, 0, 61, 34
1, 258000, Note_on_c, 0, 56, 40
1, 258000, Note_on_c, 0, 49, 34
1, 258060, Note_on_c, 0, 61, 0
1, 258060, Note_on_c, 0, 65, 0
1, 258120, Tempo, 699708
1, 258120, Note_on_c, 0, 66, 41
1, 258120, Note_on_c, 0, 63, 34
1, 258180, Note_on_c, 0, 63, 0
1, 258180, Note_on_c, 0, 66, 0
1, 258240, Tempo, 659341
1, 258240, Note_on_c, 0, 56, 0
1, 258240, Note_on_c, 0, 49, 0
1, 258240, Note_on_c, 0, 68, 48
1, 258240, Note_on_c, 0, 65, 40
1, 258240, Note_on_c, 0, 37, 37
1, 258300, Note_on_c, 0, 37, 0
1, 258300, Note_on_c, 0, 65, 0
1, 258300, Note_on_c, 0, 68, 0
1, 258360, Tempo, 699708
1, 258360, Note_on_c, 0, 44, 37
1, 258420, Note_on_c, 0, 44, 0
1, 258420, Note_on_c, 0, 70, 41
1, 258420, Note_on_c, 0, 66, 34
1, 258480, Note_on_c, 0, 66, 0
1, 258480, Note_on_c, 0, 70, 0
1, 258480, Note_on_c, 0, 68, 46
1, 258480, Note_on_c, 0, 65, 39
1, 258480, Note_on_c, 0, 56, 40
1, 258480, Note_on_c, 0, 49, 34
1, 258720, Tempo, 659341
1, 258720, Note_on_c, 0, 49, 0
1, 258720, Note_on_c, 0, 56, 0
1, 258720, Note_on_c, 0, 37, 38
1, 258780, Note_on_c, 0, 37, 0
1, 258840, Tempo, 699708
1, 258840, Note_on_c, 0, 65, 0
1, 258840, Note_on_c, 0, 68, 0
1, 258840, Note_on_c, 0, 66, 41
1, 258840, Note_on_c, 0, 63, 34
1, 258840, Note_on_c, 0, 44, 38
1, 258900, Note_on_c, 0, 44, 0
1, 258900, Note_on_c, 0, 63, 0
1, 258900, Note_on_c, 0, 66, 0
1, 258960, Tempo, 566038
1, 258960, Note_on_c, 0, 65, 41
1, 258960, Note_on_c, 0, 61, 34
1, 258960, Note_on_c, 0, 56, 40
1, 258960, Note_on_c, 0, 49, 34
1, 259020, Note_on_c, 0, 61, 0
1, 259020, Note_on_c, 0, 65, 0
1, 259080, Tempo, 676056
1, 259080, Note_on_c, 0, 66, 41
1, 259080, Note_on_c, 0, 63, 34
1, 259140, Note_on_c, 0, 63, 0
1, 259140, Note_on_c, 0, 66, 0
1, 259200, Tempo, 659341
1, 259200, Note_on_c, 0, 56, 0
1, 259200, Note_on_c, 0, 49, 0
1, 259200, Note_on_c, 0, 68, 48
1, 259200, Note_on_c, 0, 65, 40
1, 259200, Note_on_c, 0, 37, 37
1, 259260, Note_on_c, 0, 37, 0
1, 259260, Note_on_c, 0, 65, 0
1, 259260, Note_on_c, 0, 68, 0
1, 259320, Tempo, 699708
1, 259320, Note_on_c, 0, 44, 37
1, 259380, Note_on_c, 0, 44, 0
1, 259380, Note_on_c, 0, 70, 41
1, 259380, Note_on_c, 0, 66, 34
1, 259440, Note_on_c, 0, 66, 0
1, 259440, Note_on_c, 0, 70, 0
1, 259440, Note_on_c, 0, 68, 46
1, 259440, Note_on_c, 0, 65, 39
1, 259440, Note_on_c, 0, 56, 40
1, 259440, Note_on_c, 0, 49, 34
1, 259560, Note_on_c, 0, 65, 0
1, 259560, Note_on_c, 0, 68, 0
1, 259680, Tempo, 638298
1, 259680, Note_on_c, 0, 56, 0
1, 259680, Note_on_c, 0, 49, 0
1, 259680, Note_on_c, 0, 37, 38
1, 259740, Note_on_c, 0, 37, 0
1, 259800, Tempo, 731707
1, 259800, Note_on_c, 0, 44, 38
1, 259860, Note_on_c, 0, 44, 0
1, 259920, Tempo, 699708
1, 259920, Note_on_c, 0, 56, 40
1, 259920, Note_on_c, 0, 49, 34
1, 260160, Tempo, 638298
1, 260160, Note_on_c, 0, 49, 0
1, 260160, Note_on_c, 0, 56, 0
1, 260160, Note_on_c, 0, 37, 37
1, 260220, Note_on_c, 0, 37, 0
1, 260280, Tempo, 731707
1, 260280, Note_on_c, 0, 45, 37
1, 260340, Note_on_c, 0, 45, 0
1, 260400, Tempo, 699708
1, 260400, Note_on_c, 0, 76, 50
1, 260400, Note_on_c, 0, 73, 47
1, 260400, Note_on_c, 0, 64, 42
1, 260400, Note_on_c, 0, 57, 40
1, 260400, Note_on_c, 0, 49, 34
1, 260640, Tempo, 659341
1, 260640, Note_on_c, 0, 49, 0
1, 260640, Note_on_c, 0, 57, 0
1, 260640, Note_on_c, 0, 37, 38
1, 260700, Note_on_c, 0, 37, 0
1, 260760, Tempo, 670391
1, 260760, Note_on_c, 0, 64, 0
1, 260760, Note_on_c, 0, 73, 0
1, 260760, Note_on_c, 0, 76, 0
1, 260760, Note_on_c, 0, 74, 44
1, 260760, Note_on_c, 0, 71, 42
1, 260760, Note_on_c, 0, 45, 38
1, 260820, Note_on_c, 0, 45, 0
1, 260820, Note_on_c, 0, 71, 0
1, 260820, Note_on_c, 0, 74, 0
1, 260880, Tempo, 566038
1, 260880, Note_on_c, 0, 73, 44
1, 260880, Note_on_c, 0, 69, 42
1, 260880, Note_on_c, 0, 57, 40
1, 260880, Note_on_c, 0, 49, 34
1, 260940, Note_on_c, 0, 69, 0
1, 260940, Note_on_c, 0, 73, 0
1, 261000, Tempo, 705882
1, 261000, Note_on_c, 0, 74, 44
1, 261000, Note_on_c, 0, 71, 42
1, 261060, Note_on_c, 0, 71, 0
1, 261060, Note_on_c, 0, 74, 0
1, 261120, Tempo, 659341
1, 261120, Note_on_c, 0, 57, 0
1, 261120, Note_on_c, 0, 49, 0
1, 261120, Note_on_c, 0, 76, 52
1, 261120, Note_on_c, 0, 73, 49
1, 261120, Note_on_c, 0, 37, 37
1, 261180, Note_on_c, 0, 37, 0
1, 261180, Note_on_c, 0, 73, 0
1, 261180, Note_on_c, 0, 76, 0
1, 261240, Tempo, 699708
1, 261240, Note_on_c, 0, 45, 37
1, 261300, Note_on_c, 0, 45, 0
1, 261300, Note_on_c, 0, 78, 45
1, 261300, Note_on_c, 0, 74, 43
1, 261360, Note_on_c, 0, 74, 0
1, 261360, Note_on_c, 0, 78, 0
1, 261360, Note_on_c, 0, 76, 51
1, 261360, Note_on_c, 0, 73, 48
1, 261360, Note_on_c, 0, 64, 43
1, 261360, Note_on_c, 0, 57, 40
1, 261360, Note_on_c, 0, 49, 34
1, 261600, Tempo, 659341
1, 261600, Note_on_c, 0, 49, 0
1, 261600, Note_on_c, 0, 57, 0
1, 261600, Note_on_c, 0, 37, 38
1, 261660, Note_on_c, 0, 37, 0
1, 261720, Tempo, 670391
1, 261720, Note_on_c, 0, 64, 0
1, 261720, Note_on_c, 0, 73, 0
1, 261720, Note_on_c, 0, 76, 0
1, 261720, Note_on_c, 0, 74, 44
1, 261720, Note_on_c, 0, 71, 42
1, 261720, Note_on_c, 0, 45, 38
1, 261780, Note_on_c, 0, 45, 0
1, 261780, Note_on_c, 0, 71, 0
1, 261780, Note_on_c, 0, 74, 0
1, 261840, Tempo, 554273
1, 261840, Note_on_c, 0, 73, 44
1, 261840, Note_on_c, 0, 69, 42
1, 261840, Note_on_c, 0, 57, 40
1, 261840, Note_on_c, 0, 49, 34
1, 261900, Note_on_c, 0, 69, 0
1, 261900, Note_on_c, 0, 73, 0
1, 261960, Tempo, 653951
1, 261960, Note_on_c, 0, 74, 42
1, 261960, Note_on_c, 0, 71, 40
1, 262020, Note_on_c, 0, 71, 0
1, 262020, Note_on_c, 0, 74, 0
1, 262080, Tempo, 659341
1, 262080, Note_on_c, 0, 57, 0
1, 262080, Note_on_c, 0, 49, 0
1, 262080, Note_on_c, 0, 76, 50
1, 262080, Note_on_c, 0, 73, 47
1, 262080, Note_on_c, 0, 37, 37
1, 262140, Note_on_c, 0, 37, 0
1, 262140, Note_on_c, 0, 73, 0
1, 262140, Note_on_c, 0, 76, 0
1, 262200, Tempo, 699708
1, 262200, Note_on_c, 0, 45, 37
1, 262260, Note_on_c, 0, 45, 0
1, 262260, Note_on_c, 0, 78, 44
1, 262260, Note_on_c, 0, 74, 42
1, 262320, Note_on_c, 0, 74, 0
1, 262320, Note_on_c, 0, 78, 0
1, 262320, Note_on_c, 0, 76, 49
1, 262320, Note_on_c, 0, 73, 46
1, 262320, Note_on_c, 0, 64, 41
1, 262320, Note_on_c, 0, 57, 40
1, 262320, Note_on_c, 0, 49, 34
1, 262440, Note_on_c, 0, 64, 0
1, 262440, Note_on_c, 0, 76, 0
1, 262440, Note_on_c, 0, 73, 0
1, 262560, Tempo, 659341
1, 262560, Note_on_c, 0, 57, 0
1, 262560, Note_on_c, 0, 49, 0
1, 262560, Note_on_c, 0, 37, 38
1, 262620, Note_on_c, 0, 37, 0
1, 262680, Tempo, 699708
1, 262680, Note_on_c, 0, 45, 38
1, 262740, Note_on_c, 0, 45, 0
1, 262800, Note_on_c, 0, 57, 40
1, 262800, Note_on_c, 0, 49, 34
1, 263040, Tempo, 659341
1, 263040, Note_on_c, 0, 49, 0
1, 263040, Note_on_c, 0, 57, 0
1, 263040, Note_on_c, 0, 37, 37
1, 263100, Note_on_c, 0, 37, 0
1, 263160, Tempo, 718563
1, 263160, Note_on_c, 0, 49, 37
1, 263220, Note_on_c, 0, 49, 0
1, 263280, Tempo, 693642
1, 263280, Note_on_c, 0, 81, 58
1, 263280, Note_on_c, 0, 78, 54
1, 263280, Note_on_c, 0, 69, 49
1, 263280, Note_on_c, 0, 62, 40
1, 263280, Note_on_c, 0, 54, 34
1, 263520, Tempo, 659341
1, 263520, Note_on_c, 0, 54, 0
1, 263520, Note_on_c, 0, 62, 0
1, 263520, Note_on_c, 0, 37, 38
1, 263580, Note_on_c, 0, 37, 0
1, 263640, Tempo, 664820
1, 263640, Note_on_c, 0, 69, 0
1, 263640, Note_on_c, 0, 78, 0
1, 263640, Note_on_c, 0, 81, 0
1, 263640, Note_on_c, 0, 80, 48
1, 263640, Note_on_c, 0, 76, 45
1, 263640, Note_on_c, 0, 49, 38
1, 263700, Note_on_c, 0, 49, 0
1, 263700, Note_on_c, 0, 76, 0
1, 263700, Note_on_c, 0, 80, 0
1, 263760, Tempo, 570071
1, 263760, Note_on_c, 0, 78, 48
1, 263760, Note_on_c, 0, 74, 45
1, 263760, Note_on_c, 0, 62, 40
1, 263760, Note_on_c, 0, 54, 34
1, 263820, Note_on_c, 0, 74, 0
1, 263820, Note_on_c, 0, 78, 0
1, 263880, Tempo, 693642
1, 263880, Note_on_c, 0, 80, 49
1, 263880, Note_on_c, 0, 76, 46
1, 263940, Note_on_c, 0, 76, 0
1, 263940, Note_on_c, 0, 80, 0
1, 264000, Tempo, 659341
1, 264000, Note_on_c, 0, 62, 0
1, 264000, Note_on_c, 0, 54, 0
1, 264000, Note_on_c, 0, 81, 61
1, 264000, Note_on_c, 0, 78, 57
1, 264000, Note_on_c, 0, 37, 37
1, 264060, Note_on_c, 0, 37, 0
1, 264060, Note_on_c, 0, 78, 0
1, 264060, Note_on_c, 0, 81, 0
1, 264120, Tempo, 699708
1, 264120, Note_on_c, 0, 49, 37
1, 264180, Note_on_c, 0, 49, 0
1, 264180, Note_on_c, 0, 83, 52
1, 264180, Note_on_c, 0, 80, 49
1, 264240, Note_on_c, 0, 80, 0
1, 264240, Note_on_c, 0, 83, 0
1, 264240, Note_on_c, 0, 78, 56
1, 264240, Note_on_c, 0, 81, 59
1, 264240, Note_on_c, 0, 69, 50
1, 264240, Note_on_c, 0, 62, 40
1, 264240, Note_on_c, 0, 54, 34
1, 264480, Tempo, 659341
1, 264480, Note_on_c, 0, 54, 0
1, 264480, Note_on_c, 0, 62, 0
1, 264480, Note_on_c, 0, 37, 38
1, 264540, Note_on_c, 0, 37, 0
1, 264600, Tempo, 664820
1, 264600, Note_on_c, 0, 69, 0
1, 264600, Note_on_c, 0, 81, 0
1, 264600, Note_on_c, 0, 78, 0
1, 264600, Note_on_c, 0, 80, 48
1, 264600, Note_on_c, 0, 76, 45
1, 264600, Note_on_c, 0, 49, 38
1, 264660, Note_on_c, 0, 49, 0
1, 264660, Note_on_c, 0, 76, 0
1, 264660, Note_on_c, 0, 80, 0
1, 264720, Tempo, 562061
1, 264720, Note_on_c, 0, 78, 48
1, 264720, Note_on_c, 0, 74, 45
1, 264720, Note_on_c, 0, 62, 40
1, 264720, Note_on_c, 0, 54, 34
1, 264780, Note_on_c, 0, 74, 0
1, 264780, Note_on_c, 0, 78, 0
1, 264840, Tempo, 718563
1, 264840, Note_on_c, 0, 80, 48
1, 264840, Note_on_c, 0, 76, 45
1, 264900, Note_on_c, 0, 76, 0
1, 264900, Note_on_c, 0, 80, 0
1, 264960, Tempo, 659341
1, 264960, Note_on_c, 0, 62, 0
1, 264960, Note_on_c, 0, 54, 0
1, 264960, Note_on_c, 0, 81, 57
1, 264960, Note_on_c, 0, 78, 48
1, 264960, Note_on_c, 0, 37, 37
1, 265020, Note_on_c, 0, 37, 0
1, 265020, Note_on_c, 0, 78, 0
1, 265020, Note_on_c, 0, 81, 0
1, 265080, Note_on_c, 0, 49, 37
1, 265140, Note_on_c, 0, 49, 0
1, 265140, Note_on_c, 0, 83, 49
1, 265140, Note_on_c, 0, 80, 41
1, 265200, Tempo, 613811
1, 265200, Note_on_c, 0, 80, 0
1, 265200, Note_on_c, 0, 83, 0
1, 265200, Note_on_c, 0, 81, 57
1, 265200, Note_on_c, 0, 78, 48
1, 265200, Note_on_c, 0, 62, 40
1, 265200, Note_on_c, 0, 54, 34
1, 265260, Note_on_c, 0, 78, 0
1, 265260, Note_on_c, 0, 81, 0
1, 265380, Note_on_c, 0, 81, 51
1, 265380, Note_on_c, 0, 78, 43
1, 265440, Tempo, 633245
1, 265440, Note_on_c, 0, 78, 0
1, 265440, Note_on_c, 0, 54, 0
1, 265440, Note_on_c, 0, 62, 0
1, 265440, Note_on_c, 0, 81, 0
1, 265440, Note_on_c, 0, 83, 57
1, 265440, Note_on_c, 0, 80, 48
1, 265440, Note_on_c, 0, 65, 45
1, 265500, Note_on_c, 0, 65, 0
1, 265500, Note_on_c, 0, 80, 0
1, 265500, Note_on_c, 0, 83, 0
1, 265560, Note_on_c, 0, 71, 41
1, 265620, Note_on_c, 0, 71, 0
1, 265620, Note_on_c, 0, 81, 51
1, 265620, Note_on_c, 0, 78, 43
1, 265680, Note_on_c, 0, 78, 0
1, 265680, Note_on_c, 0, 81, 0
1, 265680, Note_on_c, 0, 83, 57
1, 265680, Note_on_c, 0, 80, 48
1, 265680, Note_on_c, 0, 74, 47
1, 265740, Note_on_c, 0, 80, 0
1, 265740, Note_on_c, 0, 83, 0
1, 265860, Note_on_c, 0, 85, 53
1, 265860, Note_on_c, 0, 77, 45
1, 265920, Tempo, 664820
1, 265920, Note_on_c, 0, 77, 0
1, 265920, Note_on_c, 0, 85, 0
1, 265920, Note_on_c, 0, 74, 0
1, 265920, Note_on_c, 0, 86, 58
1, 265920, Note_on_c, 0, 78, 49
1, 265920, Note_on_c, 0, 61, 45
1, 265980, Note_on_c, 0, 61, 0
1, 265980, Note_on_c, 0, 78, 0
1, 265980, Note_on_c, 0, 86, 0
1, 266040, Note_on_c, 0, 66, 42
1, 266100, Note_on_c, 0, 66, 0
1, 266100, Note_on_c, 0, 81, 51
1, 266100, Note_on_c, 0, 78, 43
1, 266160, Tempo, 633245
1, 266160, Note_on_c, 0, 78, 0
1, 266160, Note_on_c, 0, 81, 0
1, 266160, Note_on_c, 0, 80, 59
1, 266160, Note_on_c, 0, 77, 50
1, 266160, Note_on_c, 0, 69, 46
1, 266220, Note_on_c, 0, 69, 0
1, 266220, Note_on_c, 0, 77, 0
1, 266220, Note_on_c, 0, 80, 0
1, 266340, Note_on_c, 0, 81, 54
1, 266340, Note_on_c, 0, 78, 45
1, 266400, Note_on_c, 0, 78, 0
1, 266400, Note_on_c, 0, 81, 0
1, 266400, Note_on_c, 0, 83, 59
1, 266400, Note_on_c, 0, 80, 50
1, 266400, Note_on_c, 0, 65, 46
1, 266460, Note_on_c, 0, 65, 0
1, 266460, Note_on_c, 0, 80, 0
1, 266460, Note_on_c, 0, 83, 0
1, 266520, Note_on_c, 0, 71, 41
1, 266580, Note_on_c, 0, 71, 0
1, 266580, Note_on_c, 0, 81, 55
1, 266580, Note_on_c, 0, 78, 46
1, 266640, Note_on_c, 0, 78, 0
1, 266640, Note_on_c, 0, 81, 0
1, 266640, Note_on_c, 0, 83, 60
1, 266640, Note_on_c, 0, 80, 51
1, 266640, Note_on_c, 0, 74, 48
1, 266700, Note_on_c, 0, 74, 0
1, 266700, Note_on_c, 0, 80, 0
1, 266700, Note_on_c, 0, 83, 0
1, 266820, Note_on_c, 0, 85, 55
1, 266820, Note_on_c, 0, 77, 46
1, 266880, Tempo, 693642
1, 266880, Note_on_c, 0, 77, 0
1, 266880, Note_on_c, 0, 85, 0
1, 266880, Note_on_c, 0, 86, 60
1, 266880, Note_on_c, 0, 78, 51
1, 266880, Note_on_c, 0, 61, 47
1, 266940, Note_on_c, 0, 61, 0
1, 266940, Note_on_c, 0, 78, 0
1, 266940, Note_on_c, 0, 86, 0
1, 267000, Note_on_c, 0, 66, 41
1, 267060, Note_on_c, 0, 66, 0
1, 267120, Tempo, 604534
1, 267120, Note_on_c, 0, 92, 65
1, 267120, Note_on_c, 0, 69, 46
1, 267180, Note_on_c, 0, 69, 0
1, 267180, Note_on_c, 0, 92, 0
1, 267180, Note_on_c, 0, 93, 58
1, 267240, Note_on_c, 0, 93, 0
1, 267240, Note_on_c, 0, 95, 58
1, 267300, Note_on_c, 0, 95, 0
1, 267300, Note_on_c, 0, 93, 58
1, 267360, Tempo, 643432
1, 267360, Note_on_c, 0, 93, 0
1, 267360, Note_on_c, 0, 87, 64
1, 267360, Note_on_c, 0, 90, 64
1, 267360, Note_on_c, 0, 68, 44
1, 267400, Control_c, 0, 64, 127
1, 267420, Note_on_c, 0, 68, 0
1, 267480, Note_on_c, 0, 90, 0
1, 267480, Note_on_c, 0, 87, 0
1, 267480, Note_on_c, 0, 85, 59
1, 267480, Note_on_c, 0, 89, 59
1, 267480, Note_on_c, 0, 75, 38
1, 267540, Note_on_c, 0, 75, 0
1, 267589, Control_c, 0, 64, 0
1, 267600, Note_on_c, 0, 89, 0
1, 267600, Note_on_c, 0, 85, 0
1, 267600, Note_on_c, 0, 84, 59
1, 267600, Note_on_c, 0, 87, 59
1, 267600, Note_on_c, 0, 78, 45
1, 267660, Note_on_c, 0, 78, 0
1, 267720, Note_on_c, 0, 87, 0
1, 267720, Note_on_c, 0, 84, 0
1, 267720, Note_on_c, 0, 80, 60
1, 267720, Note_on_c, 0, 92, 60
1, 267840, Tempo, 628272
1, 267840, Note_on_c, 0, 92, 0
1, 267840, Note_on_c, 0, 80, 0
1, 267840, Note_on_c, 0, 90, 66
1, 267840, Note_on_c, 0, 87, 66
1, 267840, Note_on_c, 0, 61, 46
1, 267883, Control_c, 0, 64, 127
1, 267900, Note_on_c, 0, 61, 0
1, 267900, Note_on_c, 0, 87, 0
1, 267900, Note_on_c, 0, 90, 0
1, 267960, Note_on_c, 0, 85, 59
1, 267960, Note_on_c, 0, 89, 59
1, 267960, Note_on_c, 0, 68, 42
1, 268020, Note_on_c, 0, 68, 0
1, 268020, Note_on_c, 0, 89, 0
1, 268020, Note_on_c, 0, 85, 0
1, 268080, Tempo, 648649
1, 268080, Note_on_c, 0, 84, 59
1, 268080, Note_on_c, 0, 87, 59
1, 268080, Note_on_c, 0, 72, 45
1, 268123, Control_c, 0, 64, 0
1, 268140, Note_on_c, 0, 72, 0
1, 268140, Note_on_c, 0, 87, 0
1, 268140, Note_on_c, 0, 84, 0
1, 268200, Note_on_c, 0, 68, 59
1, 268200, Note_on_c, 0, 80, 59
1, 268260, Note_on_c, 0, 80, 0
1, 268260, Note_on_c, 0, 68, 0
1, 268320, Tempo, 609137
1, 268320, Note_on_c, 0, 75, 64
1, 268320, Note_on_c, 0, 78, 64
1, 268320, Note_on_c, 0, 56, 45
1, 268359, Control_c, 0, 64, 127
1, 268380, Note_on_c, 0, 56, 0
1, 268380, Note_on_c, 0, 78, 0
1, 268380, Note_on_c, 0, 75, 0
1, 268440, Note_on_c, 0, 73, 57
1, 268440, Note_on_c, 0, 77, 57
1, 268440, Note_on_c, 0, 63, 42
1, 268500, Note_on_c, 0, 63, 0
1, 268500, Note_on_c, 0, 77, 0
1, 268500, Note_on_c, 0, 73, 0
1, 268560, Tempo, 653951
1, 268560, Note_on_c, 0, 72, 57
1, 268560, Note_on_c, 0, 75, 57
1, 268560, Note_on_c, 0, 66, 46
1, 268596, Control_c, 0, 64, 0
1, 268620, Note_on_c, 0, 66, 0
1, 268620, Note_on_c, 0, 75, 0
1, 268620, Note_on_c, 0, 72, 0
1, 268680, Note_on_c, 0, 68, 58
1, 268680, Note_on_c, 0, 80, 58
1, 268740, Note_on_c, 0, 80, 0
1, 268740, Note_on_c, 0, 68, 0
1, 268800, Tempo, 638298
1, 268800, Note_on_c, 0, 73, 64
1, 268800, Note_on_c, 0, 77, 64
1, 268800, Note_on_c, 0, 37, 48
1, 268832, Control_c, 0, 64, 127
1, 268860, Note_on_c, 0, 37, 0
1, 268860, Note_on_c, 0, 77, 0
1, 268860, Note_on_c, 0, 73, 0
1, 268920, Tempo, 670391
1, 268920, Note_on_c, 0, 44, 48
1, 268980, Note_on_c, 0, 44, 0
1, 269040, Note_on_c, 0, 68, 50
1, 269040, Note_on_c, 0, 80, 59
1, 269040, Note_on_c, 0, 77, 50
1, 269040, Note_on_c, 0, 56, 52
1, 269040, Note_on_c, 0, 49, 44
1, 269280, Tempo, 633245
1, 269280, Note_on_c, 0, 49, 0
1, 269280, Note_on_c, 0, 56, 0
1, 269280, Note_on_c, 0, 49, 49
1, 269340, Note_on_c, 0, 49, 0
1, 269386, Control_c, 0, 64, 0
1, 269400, Tempo, 699708
1, 269400, Note_on_c, 0, 77, 0
1, 269400, Note_on_c, 0, 80, 0
1, 269400, Note_on_c, 0, 68, 0
1, 269400, Note_on_c, 0, 66, 44
1, 269400, Note_on_c, 0, 78, 53
1, 269400, Note_on_c, 0, 75, 44
1, 269400, Note_on_c, 0, 56, 49
1, 269460, Note_on_c, 0, 56, 0
1, 269460, Note_on_c, 0, 66, 0
1, 269460, Note_on_c, 0, 78, 0
1, 269460, Note_on_c, 0, 75, 0
1, 269520, Tempo, 562061
1, 269520, Note_on_c, 0, 65, 44
1, 269520, Note_on_c, 0, 77, 53
1, 269520, Note_on_c, 0, 73, 44
1, 269520, Note_on_c, 0, 61, 52
1, 269580, Note_on_c, 0, 73, 0
1, 269580, Note_on_c, 0, 65, 0
1, 269580, Note_on_c, 0, 77, 0
1, 269640, Tempo, 633245
1, 269640, Note_on_c, 0, 66, 44
1, 269640, Note_on_c, 0, 78, 53
1, 269640, Note_on_c, 0, 75, 44
1, 269700, Note_on_c, 0, 75, 0
1, 269700, Note_on_c, 0, 78, 0
1, 269700, Note_on_c, 0, 66, 0
1, 269760, Tempo, 638298
1, 269760, Note_on_c, 0, 61, 0
1, 269760, Note_on_c, 0, 68, 52
1, 269760, Note_on_c, 0, 80, 62
1, 269760, Note_on_c, 0, 77, 52
1, 269760, Note_on_c, 0, 37, 48
1, 269817, Control_c, 0, 64, 127
1, 269820, Note_on_c, 0, 37, 0
1, 269820, Note_on_c, 0, 68, 0
1, 269820, Note_on_c, 0, 80, 0
1, 269820, Note_on_c, 0, 77, 0
1, 269880, Tempo, 664820
1, 269880, Note_on_c, 0, 44, 48
1, 269940, Note_on_c, 0, 44, 0
1, 269940, Note_on_c, 0, 70, 44
1, 269940, Note_on_c, 0, 82, 53
1, 269940, Note_on_c, 0, 78, 44
1, 270000, Note_on_c, 0, 78, 0
1, 270000, Note_on_c, 0, 82, 0
1, 270000, Note_on_c, 0, 70, 0
1, 270000, Note_on_c, 0, 68, 50
1, 270000, Note_on_c, 0, 80, 59
1, 270000, Note_on_c, 0, 77, 50
1, 270000, Note_on_c, 0, 56, 52
1, 270000, Note_on_c, 0, 49, 44
1, 270240, Tempo, 659341
1, 270240, Note_on_c, 0, 49, 0
1, 270240, Note_on_c, 0, 56, 0
1, 270240, Note_on_c, 0, 49, 49
1, 270300, Note_on_c, 0, 49, 0
1, 270318, Control_c, 0, 64, 0
1, 270360, Tempo, 699708
1, 270360, Note_on_c, 0, 77, 0
1, 270360, Note_on_c, 0, 80, 0
1, 270360, Note_on_c, 0, 68, 0
1, 270360, Note_on_c, 0, 66, 44
1, 270360, Note_on_c, 0, 78, 53
1, 270360, Note_on_c, 0, 75, 44
1, 270360, Note_on_c, 0, 56, 49
1, 270420, Note_on_c, 0, 56, 0
1, 270420, Note_on_c, 0, 66, 0
1, 270420, Note_on_c, 0, 78, 0
1, 270420, Note_on_c, 0, 75, 0
1, 270480, Tempo, 566038
1, 270480, Note_on_c, 0, 65, 44
1, 270480, Note_on_c, 0, 77, 53
1, 270480, Note_on_c, 0, 73, 44
1, 270480, Note_on_c, 0, 61, 52
1, 270540, Note_on_c, 0, 73, 0
1, 270540, Note_on_c, 0, 65, 0
1, 270540, Note_on_c, 0, 77, 0
1, 270600, Tempo, 618557
1, 270600, Note_on_c, 0, 66, 44
1, 270600, Note_on_c, 0, 78, 53
1, 270600, Note_on_c, 0, 75, 44
1, 270660, Note_on_c, 0, 75, 0
1, 270660, Note_on_c, 0, 78, 0
1, 270660, Note_on_c, 0, 66, 0
1, 270720, Tempo, 633245
1, 270720, Note_on_c, 0, 61, 0
1, 270720, Note_on_c, 0, 68, 52
1, 270720, Note_on_c, 0, 80, 62
1, 270720, Note_on_c, 0, 77, 52
1, 270720, Note_on_c, 0, 37, 48
1, 270735, Control_c, 0, 64, 127
1, 270780, Note_on_c, 0, 37, 0
1, 270780, Note_on_c, 0, 68, 0
1, 270780, Note_on_c, 0, 80, 0
1, 270780, Note_on_c, 0, 77, 0
1, 270840, Tempo, 670391
1, 270840, Note_on_c, 0, 44, 48
1, 270900, Note_on_c, 0, 44, 0
1, 270900, Note_on_c, 0, 70, 44
1, 270900, Note_on_c, 0, 82, 53
1, 270900, Note_on_c, 0, 78, 44
1, 270960, Note_on_c, 0, 78, 0
1, 270960, Note_on_c, 0, 82, 0
1, 270960, Note_on_c, 0, 70, 0
1, 270960, Note_on_c, 0, 68, 50
1, 270960, Note_on_c, 0, 80, 59
1, 270960, Note_on_c, 0, 77, 50
1, 270960, Note_on_c, 0, 56, 52
1, 270960, Note_on_c, 0, 49, 44
1, 271080, Note_on_c, 0, 77, 0
1, 271080, Note_on_c, 0, 68, 0
1, 271080, Note_on_c, 0, 80, 0
1, 271109, Control_c, 0, 64, 0
1, 271200, Tempo, 609137
1, 271200, Note_on_c, 0, 56, 0
1, 271200, Note_on_c, 0, 49, 0
1, 271200, Note_on_c, 0, 37, 48
1, 271232, Control_c, 0, 64, 127
1, 271260, Note_on_c, 0, 37, 0
1, 271320, Tempo, 705882
1, 271320, Note_on_c, 0, 45, 48
1, 271380, Note_on_c, 0, 45, 0
1, 271440, Tempo, 664820
1, 271440, Note_on_c, 0, 88, 71
1, 271440, Note_on_c, 0, 85, 67
1, 271440, Note_on_c, 0, 76, 59
1, 271440, Note_on_c, 0, 57, 52
1, 271440, Note_on_c, 0, 49, 44
1, 271680, Tempo, 638298
1, 271680, Note_on_c, 0, 49, 0
1, 271680, Note_on_c, 0, 57, 0
1, 271680, Note_on_c, 0, 49, 49
1, 271740, Note_on_c, 0, 49, 0
1, 271800, Tempo, 659341
1, 271800, Note_on_c, 0, 76, 0
1, 271800, Note_on_c, 0, 85, 0
1, 271800, Note_on_c, 0, 88, 0
1, 271800, Note_on_c, 0, 74, 59
1, 271800, Note_on_c, 0, 86, 62
1, 271800, Note_on_c, 0, 83, 59
1, 271800, Note_on_c, 0, 57, 49
1, 271860, Note_on_c, 0, 57, 0
1, 271860, Note_on_c, 0, 74, 0
1, 271860, Note_on_c, 0, 86, 0
1, 271860, Note_on_c, 0, 83, 0
1, 271920, Tempo, 570071
1, 271920, Note_on_c, 0, 73, 59
1, 271920, Note_on_c, 0, 85, 62
1, 271920, Note_on_c, 0, 81, 59
1, 271920, Note_on_c, 0, 64, 52
1, 271960, Control_c, 0, 64, 0
1, 271980, Note_on_c, 0, 81, 0
1, 271980, Note_on_c, 0, 73, 0
1, 271980, Note_on_c, 0, 85, 0
1, 272040, Tempo, 618557
1, 272040, Note_on_c, 0, 74, 59
1, 272040, Note_on_c, 0, 86, 62
1, 272040, Note_on_c, 0, 83, 59
1, 272100, Note_on_c, 0, 83, 0
1, 272100, Note_on_c, 0, 86, 0
1, 272100, Note_on_c, 0, 74, 0
1, 272160, Tempo, 633245
1, 272160, Note_on_c, 0, 64, 0
1, 272160, Note_on_c, 0, 76, 69
1, 272160, Note_on_c, 0, 88, 73
1, 272160, Note_on_c, 0, 85, 69
1, 272160, Note_on_c, 0, 37, 48
1, 272197, Control_c, 0, 64, 127
1, 272220, Note_on_c, 0, 37, 0
1, 272220, Note_on_c, 0, 76, 0
1, 272220, Note_on_c, 0, 88, 0
1, 272220, Note_on_c, 0, 85, 0
1, 272280, Tempo, 670391
1, 272280, Note_on_c, 0, 45, 48
1, 272340, Note_on_c, 0, 45, 0
1, 272340, Note_on_c, 0, 78, 60
1, 272340, Note_on_c, 0, 90, 63
1, 272340, Note_on_c, 0, 86, 60
1, 272400, Note_on_c, 0, 86, 0
1, 272400, Note_on_c, 0, 90, 0
1, 272400, Note_on_c, 0, 78, 0
1, 272400, Note_on_c, 0, 88, 72
1, 272400, Note_on_c, 0, 85, 68
1, 272400, Note_on_c, 0, 76, 60
1, 272400, Note_on_c, 0, 57, 52
1, 272400, Note_on_c, 0, 49, 44
1, 272640, Tempo, 633245
1, 272640, Note_on_c, 0, 49, 0
1, 272640, Note_on_c, 0, 57, 0
1, 272640, Note_on_c, 0, 49, 49
1, 272700, Note_on_c, 0, 49, 0
1, 272760, Tempo, 659341
1, 272760, Note_on_c, 0, 76, 0
1, 272760, Note_on_c, 0, 85, 0
1, 272760, Note_on_c, 0, 88, 0
1, 272760, Note_on_c, 0, 74, 59
1, 272760, Note_on_c, 0, 86, 62
1, 272760, Note_on_c, 0, 83, 59
1, 272760, Note_on_c, 0, 57, 49
1, 272769, Control_c, 0, 64, 0
1, 272820, Note_on_c, 0, 57, 0
1, 272820, Note_on_c, 0, 74, 0
1, 272820, Note_on_c, 0, 86, 0
1, 272820, Note_on_c, 0, 83, 0
1, 272880, Tempo, 562061
1, 272880, Note_on_c, 0, 73, 59
1, 272880, Note_on_c, 0, 85, 62
1, 272880, Note_on_c, 0, 81, 59
1, 272880, Note_on_c, 0, 64, 52
1, 272940, Note_on_c, 0, 81, 0
1, 272940, Note_on_c, 0, 73, 0
1, 272940, Note_on_c, 0, 85, 0
1, 273000, Tempo, 609137
1, 273000, Note_on_c, 0, 74, 57
1, 273000, Note_on_c, 0, 86, 59
1, 273000, Note_on_c, 0, 83, 57
1, 273060, Note_on_c, 0, 83, 0
1, 273060, Note_on_c, 0, 86, 0
1, 273060, Note_on_c, 0, 74, 0
1, 273120, Tempo, 638298
1, 273120, Note_on_c, 0, 64, 0
1, 273120, Note_on_c, 0, 76, 67
1, 273120, Note_on_c, 0, 88, 71
1, 273120, Note_on_c, 0, 85, 67
1, 273120, Note_on_c, 0, 37, 48
1, 273123, Control_c, 0, 64, 127
1, 273180, Note_on_c, 0, 37, 0
1, 273180, Note_on_c, 0, 76, 0
1, 273180, Note_on_c, 0, 88, 0
1, 273180, Note_on_c, 0, 85, 0
1, 273240, Tempo, 670391
1, 273240, Note_on_c, 0, 45, 48
1, 273300, Note_on_c, 0, 45, 0
1, 273300, Note_on_c, 0, 78, 59
1, 273300, Note_on_c, 0, 90, 62
1, 273300, Note_on_c, 0, 86, 59
1, 273360, Note_on_c, 0, 86, 0
1, 273360, Note_on_c, 0, 90, 0
1, 273360, Note_on_c, 0, 78, 0
1, 273360, Note_on_c, 0, 88, 69
1, 273360, Note_on_c, 0, 85, 64
1, 273360, Note_on_c, 0, 76, 58
1, 273360, Note_on_c, 0, 57, 52
1, 273360, Note_on_c, 0, 49, 44
1, 273480, Note_on_c, 0, 76, 0
1, 273480, Note_on_c, 0, 88, 0
1, 273480, Note_on_c, 0, 85, 0
1, 273552, Control_c, 0, 64, 0
1, 273600, Tempo, 613811
1, 273600, Note_on_c, 0, 57, 0
1, 273600, Note_on_c, 0, 49, 0
1, 273600, Note_on_c, 0, 37, 48
1, 273637, Control_c, 0, 64, 127
1, 273660, Note_on_c, 0, 37, 0
1, 273720, Tempo, 712166
1, 273720, Note_on_c, 0, 45, 48
1, 273780, Note_on_c, 0, 45, 0
1, 273840, Tempo, 670391
1, 273840, Note_on_c, 0, 93, 82
1, 273840, Note_on_c, 0, 90, 77
1, 273840, Note_on_c, 0, 81, 69
1, 273840, Note_on_c, 0, 57, 52
1, 273840, Note_on_c, 0, 49, 44
1, 274080, Tempo, 633245
1, 274080, Note_on_c, 0, 49, 0
1, 274080, Note_on_c, 0, 57, 0
1, 274080, Note_on_c, 0, 49, 49
1, 274140, Note_on_c, 0, 49, 0
1, 274200, Tempo, 659341
1, 274200, Note_on_c, 0, 81, 0
1, 274200, Note_on_c, 0, 90, 0
1, 274200, Note_on_c, 0, 93, 0
1, 274200, Note_on_c, 0, 80, 63
1, 274200, Note_on_c, 0, 92, 68
1, 274200, Note_on_c, 0, 88, 63
1, 274200, Note_on_c, 0, 54, 49
1, 274203, Control_c, 0, 64, 0
1, 274260, Note_on_c, 0, 54, 0
1, 274260, Note_on_c, 0, 80, 0
1, 274260, Note_on_c, 0, 92, 0
1, 274260, Note_on_c, 0, 88, 0
1, 274320, Tempo, 554273
1, 274320, Note_on_c, 0, 78, 63
1, 274320, Note_on_c, 0, 90, 68
1, 274320, Note_on_c, 0, 86, 63
1, 274320, Note_on_c, 0, 62, 52
1, 274320, Note_on_c, 0, 57, 44
1, 274380, Note_on_c, 0, 86, 0
1, 274380, Note_on_c, 0, 78, 0
1, 274380, Note_on_c, 0, 90, 0
1, 274440, Tempo, 609137
1, 274440, Note_on_c, 0, 80, 64
1, 274440, Note_on_c, 0, 92, 69
1, 274440, Note_on_c, 0, 88, 64
1, 274500, Note_on_c, 0, 88, 0
1, 274500, Note_on_c, 0, 80, 0
1, 274500, Note_on_c, 0, 92, 0
1, 274560, Tempo, 628272
1, 274560, Note_on_c, 0, 62, 0
1, 274560, Note_on_c, 0, 57, 0
1, 274560, Note_on_c, 0, 81, 70
1, 274560, Note_on_c, 0, 93, 82
1, 274560, Note_on_c, 0, 90, 74
1, 274560, Note_on_c, 0, 37, 48
1, 274577, Control_c, 0, 64, 127
1, 274620, Note_on_c, 0, 37, 0
1, 274620, Note_on_c, 0, 81, 0
1, 274620, Note_on_c, 0, 93, 0
1, 274620, Note_on_c, 0, 90, 0
1, 274680, Tempo, 670391
1, 274680, Note_on_c, 0, 45, 48
1, 274740, Note_on_c, 0, 45, 0
1, 274740, Note_on_c, 0, 83, 69
1, 274740, Note_on_c, 0, 95, 73
1, 274740, Note_on_c, 0, 92, 69
1, 274800, Note_on_c, 0, 92, 0
1, 274800, Note_on_c, 0, 95, 0
1, 274800, Note_on_c, 0, 83, 0
1, 274800, Note_on_c, 0, 90, 79
1, 274800, Note_on_c, 0, 93, 83
1, 274800, Note_on_c, 0, 81, 71
1, 274800, Note_on_c, 0, 57, 52
1, 274800, Note_on_c, 0, 49, 44
1, 275040, Tempo, 638298
1, 275040, Note_on_c, 0, 49, 0
1, 275040, Note_on_c, 0, 57, 0
1, 275040, Note_on_c, 0, 49, 49
1, 275100, Note_on_c, 0, 49, 0
1, 275160, Tempo, 633245
1, 275160, Note_on_c, 0, 81, 0
1, 275160, Note_on_c, 0, 93, 0
1, 275160, Note_on_c, 0, 90, 0
1, 275160, Note_on_c, 0, 80, 63
1, 275160, Note_on_c, 0, 92, 68
1, 275160, Note_on_c, 0, 88, 63
1, 275160, Note_on_c, 0, 54, 49
1, 275169, Control_c, 0, 64, 0
1, 275220, Note_on_c, 0, 54, 0
1, 275220, Note_on_c, 0, 80, 0
1, 275220, Note_on_c, 0, 92, 0
1, 275220, Note_on_c, 0, 88, 0
1, 275280, Tempo, 554273
1, 275280, Note_on_c, 0, 78, 63
1, 275280, Note_on_c, 0, 90, 68
1, 275280, Note_on_c, 0, 86, 63
1, 275280, Note_on_c, 0, 62, 52
1, 275280, Note_on_c, 0, 57, 44
1, 275340, Note_on_c, 0, 86, 0
1, 275340, Note_on_c, 0, 78, 0
1, 275340, Note_on_c, 0, 90, 0
1, 275400, Tempo, 609137
1, 275400, Note_on_c, 0, 80, 63
1, 275400, Note_on_c, 0, 92, 68
1, 275400, Note_on_c, 0, 88, 63
1, 275460, Note_on_c, 0, 88, 0
1, 275460, Note_on_c, 0, 80, 0
1, 275460, Note_on_c, 0, 92, 0
1, 275520, Tempo, 633245
1, 275520, Note_on_c, 0, 62, 0
1, 275520, Note_on_c, 0, 57, 0
1, 275520, Note_on_c, 0, 81, 68
1, 275520, Note_on_c, 0, 93, 81
1, 275520, Note_on_c, 0, 90, 68
1, 275520, Note_on_c, 0, 37, 48
1, 275520, Control_c, 0, 64, 127
1, 275580, Note_on_c, 0, 37, 0
1, 275580, Note_on_c, 0, 81, 0
1, 275580, Note_on_c, 0, 93, 0
1, 275580, Note_on_c, 0, 90, 0
1, 275640, Note_on_c, 0, 45, 48
1, 275700, Note_on_c, 0, 45, 0
1, 275700, Note_on_c, 0, 83, 58
1, 275700, Note_on_c, 0, 95, 69
1, 275700, Note_on_c, 0, 92, 58
1, 275760, Tempo, 595533
1, 275760, Note_on_c, 0, 92, 0
1, 275760, Note_on_c, 0, 95, 0
1, 275760, Note_on_c, 0, 83, 0
1, 275760, Note_on_c, 0, 81, 68
1, 275760, Note_on_c, 0, 93, 81
1, 275760, Note_on_c, 0, 90, 68
1, 275760, Note_on_c, 0, 57, 52
1, 275760, Note_on_c, 0, 49, 44
1, 275820, Note_on_c, 0, 90, 0
1, 275820, Note_on_c, 0, 81, 0
1, 275820, Note_on_c, 0, 93, 0
1, 275849, Control_c, 0, 64, 0
1, 275940, Note_on_c, 0, 81, 66
1, 275940, Note_on_c, 0, 78, 55
1, 276000, Tempo, 618557
1, 276000, Note_on_c, 0, 78, 0
1, 276000, Note_on_c, 0, 49, 0
1, 276000, Note_on_c, 0, 57, 0
1, 276000, Note_on_c, 0, 81, 0
1, 276000, Note_on_c, 0, 83, 74
1, 276000, Note_on_c, 0, 80, 62
1, 276000, Note_on_c, 0, 65, 58
1, 276060, Note_on_c, 0, 65, 0
1, 276060, Note_on_c, 0, 80, 0
1, 276060, Note_on_c, 0, 83, 0
1, 276120, Note_on_c, 0, 71, 53
1, 276180, Note_on_c, 0, 71, 0
1, 276180, Note_on_c, 0, 81, 66
1, 276180, Note_on_c, 0, 78, 55
1, 276240, Note_on_c, 0, 78, 0
1, 276240, Note_on_c, 0, 81, 0
1, 276240, Note_on_c, 0, 83, 74
1, 276240, Note_on_c, 0, 80, 62
1, 276240, Note_on_c, 0, 74, 61
1, 276300, Note_on_c, 0, 80, 0
1, 276300, Note_on_c, 0, 83, 0
1, 276420, Note_on_c, 0, 85, 68
1, 276420, Note_on_c, 0, 77, 58
1, 276480, Tempo, 648649
1, 276480, Note_on_c, 0, 77, 0
1, 276480, Note_on_c, 0, 85, 0
1, 276480, Note_on_c, 0, 74, 0
1, 276480, Note_on_c, 0, 86, 75
1, 276480, Note_on_c, 0, 78, 63
1, 276480, Note_on_c, 0, 61, 58
1, 276540, Note_on_c, 0, 61, 0
1, 276540, Note_on_c, 0, 78, 0
1, 276540, Note_on_c, 0, 86, 0
1, 276600, Note_on_c, 0, 66, 54
1, 276660, Note_on_c, 0, 66, 0
1, 276660, Note_on_c, 0, 81, 66
1, 276660, Note_on_c, 0, 78, 55
1, 276720, Tempo, 595533
1, 276720, Note_on_c, 0, 78, 0
1, 276720, Note_on_c, 0, 81, 0
1, 276720, Note_on_c, 0, 80, 76
1, 276720, Note_on_c, 0, 77, 65
1, 276720, Note_on_c, 0, 69, 59
1, 276780, Note_on_c, 0, 69, 0
1, 276780, Note_on_c, 0, 77, 0
1, 276780, Note_on_c, 0, 80, 0
1, 276900, Note_on_c, 0, 81, 70
1, 276900, Note_on_c, 0, 78, 58
1, 276960, Note_on_c, 0, 78, 0
1, 276960, Note_on_c, 0, 81, 0
1, 276960, Note_on_c, 0, 83, 76
1, 276960, Note_on_c, 0, 80, 65
1, 276960, Note_on_c, 0, 65, 59
1, 277020, Note_on_c, 0, 65, 0
1, 277020, Note_on_c, 0, 80, 0
1, 277020, Note_on_c, 0, 83, 0
1, 277080, Note_on_c, 0, 71, 53
1, 277140, Note_on_c, 0, 71, 0
1, 277140, Note_on_c, 0, 81, 71
1, 277140, Note_on_c, 0, 78, 59
1, 277200, Note_on_c, 0, 78, 0
1, 277200, Note_on_c, 0, 81, 0
1, 277200, Note_on_c, 0, 83, 78
1, 277200, Note_on_c, 0, 80, 66
1, 277200, Note_on_c, 0, 74, 62
1, 277260, Note_on_c, 0, 74, 0
1, 277260, Note_on_c, 0, 80, 0
1, 277260, Note_on_c, 0, 83, 0
1, 277380, Note_on_c, 0, 85, 71
1, 277380, Note_on_c, 0, 77, 59
1, 277440, Tempo, 653951
1, 277440, Note_on_c, 0, 77, 0
1, 277440, Note_on_c, 0, 85, 0
1, 277440, Note_on_c, 0, 86, 78
1, 277440, Note_on_c, 0, 78, 66
1, 277440, Note_on_c, 0, 61, 61
1, 277500, Note_on_c, 0, 61, 0
1, 277500, Note_on_c, 0, 78, 0
1, 277500, Note_on_c, 0, 86, 0
1, 277560, Note_on_c, 0, 66, 53
1, 277620, Note_on_c, 0, 66, 0
1, 277680, Tempo, 582524
1, 277680, Note_on_c, 0, 92, 79
1, 277680, Note_on_c, 0, 69, 59
1, 277740, Note_on_c, 0, 69, 0
1, 277740, Note_on_c, 0, 92, 0
1, 277740, Note_on_c, 0, 93, 72
1, 277800, Note_on_c, 0, 93, 0
1, 277800, Note_on_c, 0, 95, 72
1, 277860, Note_on_c, 0, 95, 0
1, 277860, Note_on_c, 0, 93, 72
1, 277920, Tempo, 623377
1, 277920, Note_on_c, 0, 93, 0
1, 277920, Note_on_c, 0, 87, 78
1, 277920, Note_on_c, 0, 90, 78
1, 277920, Note_on_c, 0, 68, 57
1, 277960, Control_c, 0, 64, 127
1, 277980, Note_on_c, 0, 68, 0
1, 278040, Note_on_c, 0, 90, 0
1, 278040, Note_on_c, 0, 87, 0
1, 278040, Note_on_c, 0, 85, 72
1, 278040, Note_on_c, 0, 89, 72
1, 278040, Note_on_c, 0, 75, 49
1, 278100, Note_on_c, 0, 75, 0
1, 278149, Control_c, 0, 64, 0
1, 278160, Note_on_c, 0, 89, 0
1, 278160, Note_on_c, 0, 85, 0
1, 278160, Note_on_c, 0, 84, 72
1, 278160, Note_on_c, 0, 87, 72
1, 278160, Note_on_c, 0, 78, 58
1, 278220, Note_on_c, 0, 78, 0
1, 278280, Note_on_c, 0, 87, 0
1, 278280, Note_on_c, 0, 84, 0
1, 278280, Note_on_c, 0, 80, 74
1, 278280, Note_on_c, 0, 92, 74
1, 278400, Tempo, 604534
1, 278400, Note_on_c, 0, 92, 0
1, 278400, Note_on_c, 0, 80, 0
1, 278400, Note_on_c, 0, 90, 80
1, 278400, Note_on_c, 0, 87, 80
1, 278400, Note_on_c, 0, 61, 59
1, 278443, Control_c, 0, 64, 127
1, 278460, Note_on_c, 0, 61, 0
1, 278460, Note_on_c, 0, 87, 0
1, 278460, Note_on_c, 0, 90, 0
1, 278520, Note_on_c, 0, 85, 72
1, 278520, Note_on_c, 0, 89, 72
1, 278520, Note_on_c, 0, 68, 54
1, 278580, Note_on_c, 0, 68, 0
1, 278580, Note_on_c, 0, 89, 0
1, 278580, Note_on_c, 0, 85, 0
1, 278640, Tempo, 648649
1, 278640, Note_on_c, 0, 84, 72
1, 278640, Note_on_c, 0, 87, 72
1, 278640, Note_on_c, 0, 72, 58
1, 278683, Control_c, 0, 64, 0
1, 278700, Note_on_c, 0, 72, 0
1, 278700, Note_on_c, 0, 87, 0
1, 278700, Note_on_c, 0, 84, 0
1, 278760, Note_on_c, 0, 68, 72
1, 278760, Note_on_c, 0, 80, 72
1, 278820, Note_on_c, 0, 80, 0
1, 278820, Note_on_c, 0, 68, 0
1, 278880, Tempo, 604534
1, 278880, Note_on_c, 0, 75, 78
1, 278880, Note_on_c, 0, 78, 78
1, 278880, Note_on_c, 0, 56, 58
1, 278919, Control_c, 0, 64, 127
1, 278940, Note_on_c, 0, 56, 0
1, 278940, Note_on_c, 0, 78, 0
1, 278940, Note_on_c, 0, 75, 0
1, 279000, Note_on_c, 0, 73, 64
1, 279000, Note_on_c, 0, 77, 64
1, 279000, Note_on_c, 0, 63, 54
1, 279060, Note_on_c, 0, 63, 0
1, 279060, Note_on_c, 0, 77, 0
1, 279060, Note_on_c, 0, 73, 0
1, 279120, Tempo, 653951
1, 279120, Note_on_c, 0, 72, 64
1, 279120, Note_on_c, 0, 75, 64
1, 279120, Note_on_c, 0, 66, 59
1, 279156, Control_c, 0, 64, 0
1, 279180, Note_on_c, 0, 66, 0
1, 279180, Note_on_c, 0, 75, 0
1, 279180, Note_on_c, 0, 72, 0
1, 279240, Tempo, 797342
1, 279240, Note_on_c, 0, 68, 64
1, 279240, Note_on_c, 0, 80, 64
1, 279300, Note_on_c, 0, 80, 0
1, 279300, Note_on_c, 0, 68, 0
1, 279360, Tempo, 659341
1, 279360, Note_on_c, 0, 73, 45
1, 279360, Note_on_c, 0, 77, 50
1, 279360, Note_on_c, 0, 49, 40
1, 279420, Note_on_c, 0, 49, 0
1, 279420, Note_on_c, 0, 77, 0
1, 279420, Note_on_c, 0, 73, 0
1, 279480, Note_on_c, 0, 56, 35
1, 279540, Note_on_c, 0, 56, 0
1, 279600, Note_on_c, 0, 89, 55
1, 279600, Note_on_c, 0, 92, 55
1, 279600, Note_on_c, 0, 68, 35
1, 279600, Note_on_c, 0, 61, 35
1, 279607, Control_c, 0, 64, 127
1, 279660, Note_on_c, 0, 61, 0
1, 279660, Note_on_c, 0, 68, 0
1, 279720, Note_on_c, 0, 56, 35
1, 279780, Note_on_c, 0, 56, 0
1, 279840, Tempo, 623377
1, 279840, Note_on_c, 0, 49, 40
1, 279900, Note_on_c, 0, 49, 0
1, 279960, Tempo, 582524
1, 279960, Note_on_c, 0, 92, 0
1, 279960, Note_on_c, 0, 89, 0
1, 279960, Note_on_c, 0, 94, 57
1, 279960, Note_on_c, 0, 97, 57
1, 279960, Note_on_c, 0, 56, 36
1, 279964, Control_c, 0, 64, 0
1, 280020, Note_on_c, 0, 56, 0
1, 280020, Note_on_c, 0, 97, 0
1, 280020, Note_on_c, 0, 94, 0
1, 280080, Tempo, 623377
1, 280080, Note_on_c, 0, 92, 54
1, 280080, Note_on_c, 0, 96, 54
1, 280080, Note_on_c, 0, 68, 36
1, 280080, Note_on_c, 0, 61, 36
1, 280140, Note_on_c, 0, 61, 0
1, 280140, Note_on_c, 0, 92, 0
1, 280140, Note_on_c, 0, 96, 0
1, 280140, Note_on_c, 0, 68, 0
1, 280200, Note_on_c, 0, 94, 54
1, 280200, Note_on_c, 0, 90, 54
1, 280200, Note_on_c, 0, 56, 37
1, 280260, Note_on_c, 0, 56, 0
1, 280260, Note_on_c, 0, 90, 0
1, 280260, Note_on_c, 0, 94, 0
1, 280320, Tempo, 659341
1, 280320, Note_on_c, 0, 89, 47
1, 280320, Note_on_c, 0, 92, 52
1, 280320, Note_on_c, 0, 49, 40
1, 280380, Note_on_c, 0, 49, 0
1, 280380, Note_on_c, 0, 92, 0
1, 280380, Note_on_c, 0, 89, 0
1, 280440, Note_on_c, 0, 56, 35
1, 280500, Note_on_c, 0, 56, 0
1, 280560, Tempo, 618557
1, 280560, Note_on_c, 0, 77, 53
1, 280560, Note_on_c, 0, 80, 53
1, 280560, Note_on_c, 0, 68, 35
1, 280560, Note_on_c, 0, 61, 35
1, 280603, Control_c, 0, 64, 127
1, 280620, Note_on_c, 0, 61, 0
1, 280620, Note_on_c, 0, 68, 0
1, 280680, Note_on_c, 0, 56, 35
1, 280740, Note_on_c, 0, 56, 0
1, 280800, Note_on_c, 0, 49, 40
1, 280860, Note_on_c, 0, 49, 0
1, 280920, Tempo, 643432
1, 280920, Note_on_c, 0, 80, 0
1, 280920, Note_on_c, 0, 77, 0
1, 280920, Note_on_c, 0, 75, 55
1, 280920, Note_on_c, 0, 78, 55
1, 280920, Note_on_c, 0, 56, 36
1, 280959, Control_c, 0, 64, 0
1, 280980, Note_on_c, 0, 56, 0
1, 280980, Note_on_c, 0, 78, 0
1, 280980, Note_on_c, 0, 75, 0
1, 281040, Tempo, 618557
1, 281040, Note_on_c, 0, 73, 55
1, 281040, Note_on_c, 0, 77, 55
1, 281040, Note_on_c, 0, 68, 36
1, 281040, Note_on_c, 0, 60, 36
1, 281100, Note_on_c, 0, 60, 0
1, 281100, Note_on_c, 0, 73, 0
1, 281100, Note_on_c, 0, 77, 0
1, 281100, Note_on_c, 0, 68, 0
1, 281160, Tempo, 664820
1, 281160, Note_on_c, 0, 75, 55
1, 281160, Note_on_c, 0, 68, 55
1, 281160, Note_on_c, 0, 56, 37
1, 281220, Note_on_c, 0, 56, 0
1, 281220, Note_on_c, 0, 68, 0
1, 281220, Note_on_c, 0, 75, 0
1, 281280, Tempo, 659341
1, 281280, Note_on_c, 0, 73, 45
1, 281280, Note_on_c, 0, 77, 50
1, 281280, Note_on_c, 0, 49, 40
1, 281340, Note_on_c, 0, 49, 0
1, 281340, Note_on_c, 0, 77, 0
1, 281340, Note_on_c, 0, 73, 0
1, 281400, Note_on_c, 0, 56, 35
1, 281460, Note_on_c, 0, 56, 0
1, 281520, Tempo, 618557
1, 281520, Note_on_c, 0, 89, 55
1, 281520, Note_on_c, 0, 92, 55
1, 281520, Note_on_c, 0, 68, 35
1, 281520, Note_on_c, 0, 61, 35
1, 281541, Control_c, 0, 64, 127
1, 281580, Note_on_c, 0, 61, 0
1, 281580, Note_on_c, 0, 68, 0
1, 281640, Note_on_c, 0, 56, 35
1, 281700, Note_on_c, 0, 56, 0
1, 281760, Note_on_c, 0, 49, 40
1, 281820, Note_on_c, 0, 49, 0
1, 281863, Control_c, 0, 64, 0
1, 281880, Tempo, 574163
1, 281880, Note_on_c, 0, 92, 0
1, 281880, Note_on_c, 0, 89, 0
1, 281880, Note_on_c, 0, 94, 57
1, 281880, Note_on_c, 0, 97, 57
1, 281880, Note_on_c, 0, 56, 36
1, 281940, Note_on_c, 0, 56, 0
1, 281940, Note_on_c, 0, 97, 0
1, 281940, Note_on_c, 0, 94, 0
1, 282000, Tempo, 613811
1, 282000, Note_on_c, 0, 92, 54
1, 282000, Note_on_c, 0, 96, 54
1, 282000, Note_on_c, 0, 68, 36
1, 282000, Note_on_c, 0, 61, 36
1, 282060, Note_on_c, 0, 61, 0
1, 282060, Note_on_c, 0, 92, 0
1, 282060, Note_on_c, 0, 96, 0
1, 282060, Note_on_c, 0, 68, 0
1, 282120, Note_on_c, 0, 94, 54
1, 282120, Note_on_c, 0, 90, 54
1, 282120, Note_on_c, 0, 56, 37
1, 282180, Note_on_c, 0, 56, 0
1, 282180, Note_on_c, 0, 90, 0
1, 282180, Note_on_c, 0, 94, 0
1, 282240, Tempo, 659341
1, 282240, Note_on_c, 0, 89, 47
1, 282240, Note_on_c, 0, 92, 52
1, 282240, Note_on_c, 0, 49, 45
1, 282300, Note_on_c, 0, 49, 0
1, 282300, Note_on_c, 0, 92, 0
1, 282300, Note_on_c, 0, 89, 0
1, 282360, Note_on_c, 0, 56, 40
1, 282420, Note_on_c, 0, 56, 0
1, 282480, Note_on_c, 0, 78, 64
1, 282480, Note_on_c, 0, 82, 64
1, 282480, Note_on_c, 0, 68, 40
1, 282480, Note_on_c, 0, 61, 40
1, 282484, Control_c, 0, 64, 127
1, 282540, Note_on_c, 0, 61, 0
1, 282540, Note_on_c, 0, 68, 0
1, 282600, Note_on_c, 0, 56, 40
1, 282660, Note_on_c, 0, 56, 0
1, 282717, Control_c, 0, 64, 0
1, 282720, Tempo, 604534
1, 282720, Note_on_c, 0, 82, 0
1, 282720, Note_on_c, 0, 78, 0
1, 282720, Note_on_c, 0, 77, 58
1, 282720, Note_on_c, 0, 80, 58
1, 282720, Note_on_c, 0, 49, 46
1, 282780, Note_on_c, 0, 49, 0
1, 282780, Note_on_c, 0, 80, 0
1, 282780, Note_on_c, 0, 77, 0
1, 282840, Note_on_c, 0, 75, 54
1, 282840, Note_on_c, 0, 78, 54
1, 282840, Note_on_c, 0, 56, 39
1, 282900, Note_on_c, 0, 56, 0
1, 282900, Note_on_c, 0, 78, 0
1, 282900, Note_on_c, 0, 75, 0
1, 282960, Tempo, 628272
1, 282960, Note_on_c, 0, 73, 54
1, 282960, Note_on_c, 0, 77, 54
1, 282960, Note_on_c, 0, 68, 39
1, 282960, Note_on_c, 0, 60, 39
1, 283020, Note_on_c, 0, 60, 0
1, 283020, Note_on_c, 0, 73, 0
1, 283020, Note_on_c, 0, 77, 0
1, 283020, Note_on_c, 0, 68, 0
1, 283080, Tempo, 664820
1, 283080, Note_on_c, 0, 75, 53
1, 283080, Note_on_c, 0, 68, 53
1, 283080, Note_on_c, 0, 56, 37
1, 283140, Note_on_c, 0, 56, 0
1, 283140, Note_on_c, 0, 68, 0
1, 283140, Note_on_c, 0, 75, 0
1, 283200, Tempo, 659341
1, 283200, Note_on_c, 0, 73, 45
1, 283200, Note_on_c, 0, 77, 50
1, 283200, Note_on_c, 0, 49, 40
1, 283260, Note_on_c, 0, 49, 0
1, 283260, Note_on_c, 0, 77, 0
1, 283260, Note_on_c, 0, 73, 0
1, 283320, Note_on_c, 0, 56, 35
1, 283380, Note_on_c, 0, 56, 0
1, 283440, Tempo, 638298
1, 283440, Note_on_c, 0, 89, 55
1, 283440, Note_on_c, 0, 92, 55
1, 283440, Note_on_c, 0, 68, 35
1, 283440, Note_on_c, 0, 61, 35
1, 283493, Control_c, 0, 64, 127
1, 283500, Note_on_c, 0, 61, 0
1, 283500, Note_on_c, 0, 68, 0
1, 283560, Note_on_c, 0, 56, 35
1, 283620, Note_on_c, 0, 56, 0
1, 283680, Tempo, 623377
1, 283680, Note_on_c, 0, 49, 40
1, 283740, Note_on_c, 0, 49, 0
1, 283800, Tempo, 591133
1, 283800, Note_on_c, 0, 92, 0
1, 283800, Note_on_c, 0, 89, 0
1, 283800, Note_on_c, 0, 94, 57
1, 283800, Note_on_c, 0, 97, 57
1, 283800, Note_on_c, 0, 56, 36
1, 283857, Control_c, 0, 64, 0
1, 283860, Note_on_c, 0, 56, 0
1, 283860, Note_on_c, 0, 97, 0
1, 283860, Note_on_c, 0, 94, 0
1, 283920, Tempo, 618557
1, 283920, Note_on_c, 0, 92, 54
1, 283920, Note_on_c, 0, 96, 54
1, 283920, Note_on_c, 0, 68, 36
1, 283920, Note_on_c, 0, 61, 36
1, 283980, Note_on_c, 0, 61, 0
1, 283980, Note_on_c, 0, 92, 0
1, 283980, Note_on_c, 0, 96, 0
1, 283980, Note_on_c, 0, 68, 0
1, 284040, Note_on_c, 0, 94, 54
1, 284040, Note_on_c, 0, 90, 54
1, 284040, Note_on_c, 0, 56, 37
1, 284100, Note_on_c, 0, 56, 0
1, 284100, Note_on_c, 0, 90, 0
1, 284100, Note_on_c, 0, 94, 0
1, 284160, Tempo, 659341
1, 284160, Note_on_c, 0, 89, 47
1, 284160, Note_on_c, 0, 92, 52
1, 284160, Note_on_c, 0, 49, 40
1, 284220, Note_on_c, 0, 49, 0
1, 284220, Note_on_c, 0, 92, 0
1, 284220, Note_on_c, 0, 89, 0
1, 284280, Note_on_c, 0, 56, 35
1, 284340, Note_on_c, 0, 56, 0
1, 284400, Tempo, 618557
1, 284400, Note_on_c, 0, 77, 53
1, 284400, Note_on_c, 0, 80, 53
1, 284400, Note_on_c, 0, 68, 35
1, 284400, Note_on_c, 0, 61, 35
1, 284439, Control_c, 0, 64, 127
1, 284460, Note_on_c, 0, 61, 0
1, 284460, Note_on_c, 0, 68, 0
1, 284520, Note_on_c, 0, 56, 35
1, 284580, Note_on_c, 0, 56, 0
1, 284640, Note_on_c, 0, 49, 40
1, 284697, Control_c, 0, 64, 0
1, 284700, Note_on_c, 0, 49, 0
1, 284760, Tempo, 582524
1, 284760, Note_on_c, 0, 80, 0
1, 284760, Note_on_c, 0, 77, 0
1, 284760, Note_on_c, 0, 75, 55
1, 284760, Note_on_c, 0, 78, 55
1, 284760, Note_on_c, 0, 56, 36
1, 284820, Note_on_c, 0, 56, 0
1, 284820, Note_on_c, 0, 78, 0
1, 284820, Note_on_c, 0, 75, 0
1, 284880, Tempo, 618557
1, 284880, Note_on_c, 0, 73, 53
1, 284880, Note_on_c, 0, 77, 53
1, 284880, Note_on_c, 0, 68, 36
1, 284880, Note_on_c, 0, 60, 36
1, 284940, Note_on_c, 0, 60, 0
1, 284940, Note_on_c, 0, 73, 0
1, 284940, Note_on_c, 0, 77, 0
1, 284940, Note_on_c, 0, 68, 0
1, 285000, Tempo, 664820
1, 285000, Note_on_c, 0, 75, 53
1, 285000, Note_on_c, 0, 68, 53
1, 285000, Note_on_c, 0, 56, 37
1, 285060, Note_on_c, 0, 56, 0
1, 285060, Note_on_c, 0, 68, 0
1, 285060, Note_on_c, 0, 75, 0
1, 285120, Tempo, 659341
1, 285120, Note_on_c, 0, 73, 45
1, 285120, Note_on_c, 0, 77, 50
1, 285120, Note_on_c, 0, 49, 40
1, 285180, Note_on_c, 0, 49, 0
1, 285180, Note_on_c, 0, 77, 0
1, 285180, Note_on_c, 0, 73, 0
1, 285240, Note_on_c, 0, 56, 35
1, 285300, Note_on_c, 0, 56, 0
1, 285360, Tempo, 618557
1, 285360, Note_on_c, 0, 89, 55
1, 285360, Note_on_c, 0, 92, 55
1, 285360, Note_on_c, 0, 68, 35
1, 285360, Note_on_c, 0, 61, 35
1, 285374, Control_c, 0, 64, 127
1, 285420, Note_on_c, 0, 61, 0
1, 285420, Note_on_c, 0, 68, 0
1, 285480, Note_on_c, 0, 56, 35
1, 285540, Note_on_c, 0, 56, 0
1, 285600, Note_on_c, 0, 49, 40
1, 285660, Note_on_c, 0, 49, 0
1, 285720, Tempo, 582524
1, 285720, Note_on_c, 0, 92, 0
1, 285720, Note_on_c, 0, 89, 0
1, 285720, Note_on_c, 0, 94, 57
1, 285720, Note_on_c, 0, 97, 57
1, 285720, Note_on_c, 0, 56, 36
1, 285734, Control_c, 0, 64, 0
1, 285780, Note_on_c, 0, 56, 0
1, 285780, Note_on_c, 0, 97, 0
1, 285780, Note_on_c, 0, 94, 0
1, 285840, Tempo, 618557
1, 285840, Note_on_c, 0, 92, 54
1, 285840, Note_on_c, 0, 96, 54
1, 285840, Note_on_c, 0, 68, 36
1, 285840, Note_on_c, 0, 61, 36
1, 285900, Note_on_c, 0, 61, 0
1, 285900, Note_on_c, 0, 92, 0
1, 285900, Note_on_c, 0, 96, 0
1, 285900, Note_on_c, 0, 68, 0
1, 285960, Note_on_c, 0, 94, 54
1, 285960, Note_on_c, 0, 90, 54
1, 285960, Note_on_c, 0, 56, 37
1, 286020, Note_on_c, 0, 56, 0
1, 286020, Note_on_c, 0, 90, 0
1, 286020, Note_on_c, 0, 94, 0
1, 286080, Tempo, 687679
1, 286080, Note_on_c, 0, 89, 47
1, 286080, Note_on_c, 0, 92, 52
1, 286080, Note_on_c, 0, 49, 44
1, 286140, Note_on_c, 0, 49, 0
1, 286140, Note_on_c, 0, 92, 0
1, 286140, Note_on_c, 0, 89, 0
1, 286200, Note_on_c, 0, 56, 39
1, 286260, Note_on_c, 0, 56, 0
1, 286320, Tempo, 664820
1, 286320, Note_on_c, 0, 78, 60
1, 286320, Note_on_c, 0, 82, 60
1, 286320, Note_on_c, 0, 68, 39
1, 286320, Note_on_c, 0, 61, 39
1, 286338, Control_c, 0, 64, 127
1, 286380, Note_on_c, 0, 61, 0
1, 286380, Note_on_c, 0, 68, 0
1, 286440, Note_on_c, 0, 56, 39
1, 286500, Note_on_c, 0, 56, 0
1, 286560, Tempo, 628272
1, 286560, Note_on_c, 0, 82, 0
1, 286560, Note_on_c, 0, 78, 0
1, 286560, Note_on_c, 0, 77, 59
1, 286560, Note_on_c, 0, 80, 59
1, 286560, Note_on_c, 0, 49, 44
1, 286592, Control_c, 0, 64, 0
1, 286620, Note_on_c, 0, 49, 0
1, 286620, Note_on_c, 0, 80, 0
1, 286620, Note_on_c, 0, 77, 0
1, 286680, Note_on_c, 0, 75, 53
1, 286680, Note_on_c, 0, 78, 53
1, 286680, Note_on_c, 0, 56, 36
1, 286740, Note_on_c, 0, 56, 0
1, 286740, Note_on_c, 0, 78, 0
1, 286740, Note_on_c, 0, 75, 0
1, 286800, Note_on_c, 0, 73, 53
1, 286800, Note_on_c, 0, 77, 53
1, 286800, Note_on_c, 0, 68, 36
1, 286800, Note_on_c, 0, 60, 36
1, 286860, Note_on_c, 0, 60, 0
1, 286860, Note_on_c, 0, 73, 0
1, 286860, Note_on_c, 0, 77, 0
1, 286860, Note_on_c, 0, 68, 0
1, 286920, Tempo, 664820
1, 286920, Note_on_c, 0, 75, 53
1, 286920, Note_on_c, 0, 68, 53
1, 286920, Note_on_c, 0, 56, 37
1, 286980, Note_on_c, 0, 56, 0
1, 286980, Note_on_c, 0, 68, 0
1, 286980, Note_on_c, 0, 75, 0
1, 287040, Note_on_c, 0, 73, 55
1, 287040, Note_on_c, 0, 77, 55
1, 287040, Note_on_c, 0, 49, 40
1, 287100, Note_on_c, 0, 49, 0
1, 287100, Note_on_c, 0, 77, 0
1, 287100, Note_on_c, 0, 73, 0
1, 287160, Note_on_c, 0, 56, 35
1, 287220, Note_on_c, 0, 56, 0
1, 287280, Tempo, 628272
1, 287280, Note_on_c, 0, 68, 50
1, 287280, Note_on_c, 0, 73, 50
1, 287280, Note_on_c, 0, 65, 35
1, 287280, Note_on_c, 0, 61, 35
1, 287340, Note_on_c, 0, 61, 0
1, 287340, Note_on_c, 0, 65, 0
1, 287400, Note_on_c, 0, 73, 0
1, 287400, Note_on_c, 0, 74, 51
1, 287400, Note_on_c, 0, 56, 35
1, 287460, Note_on_c, 0, 56, 0
1, 287520, Note_on_c, 0, 74, 0
1, 287520, Note_on_c, 0, 68, 0
1, 287520, Note_on_c, 0, 68, 55
1, 287520, Note_on_c, 0, 75, 55
1, 287520, Note_on_c, 0, 49, 40
1, 287559, Control_c, 0, 64, 127
1, 287580, Note_on_c, 0, 49, 0
1, 287640, Note_on_c, 0, 56, 36
1, 287700, Note_on_c, 0, 56, 0
1, 287760, Note_on_c, 0, 66, 36
1, 287760, Note_on_c, 0, 60, 36
1, 287820, Note_on_c, 0, 60, 0
1, 287820, Note_on_c, 0, 66, 0
1, 287880, Note_on_c, 0, 75, 0
1, 287880, Note_on_c, 0, 68, 0
1, 287880, Note_on_c, 0, 75, 50
1, 287880, Note_on_c, 0, 78, 50
1, 287880, Note_on_c, 0, 56, 37
1, 287940, Note_on_c, 0, 56, 0
1, 287940, Note_on_c, 0, 78, 0
1, 287940, Note_on_c, 0, 75, 0
1, 288000, Tempo, 586797
1, 288000, Note_on_c, 0, 73, 55
1, 288000, Note_on_c, 0, 77, 55
1, 288000, Note_on_c, 0, 49, 40
1, 288000, Control_c, 0, 64, 0
1, 288060, Note_on_c, 0, 49, 0
1, 288064, Control_c, 0, 64, 127
1, 288120, Tempo, 623377
1, 288120, Note_on_c, 0, 77, 0
1, 288120, Note_on_c, 0, 80, 51
1, 288120, Note_on_c, 0, 56, 35
1, 288180, Note_on_c, 0, 56, 0
1, 288240, Note_on_c, 0, 80, 0
1, 288240, Note_on_c, 0, 73, 0
1, 288240, Note_on_c, 0, 68, 51
1, 288240, Note_on_c, 0, 73, 51
1, 288240, Note_on_c, 0, 65, 35
1, 288240, Note_on_c, 0, 61, 35
1, 288258, Control_c, 0, 64, 0
1, 288300, Note_on_c, 0, 61, 0
1, 288300, Note_on_c, 0, 65, 0
1, 288360, Tempo, 648649
1, 288360, Note_on_c, 0, 73, 0
1, 288360, Note_on_c, 0, 68, 0
1, 288360, Note_on_c, 0, 56, 35
1, 288420, Note_on_c, 0, 56, 0
1, 288480, Tempo, 623377
1, 288480, Note_on_c, 0, 80, 57
1, 288480, Note_on_c, 0, 87, 57
1, 288480, Note_on_c, 0, 49, 40
1, 288491, Control_c, 0, 64, 127
1, 288540, Note_on_c, 0, 49, 0
1, 288600, Note_on_c, 0, 56, 36
1, 288660, Note_on_c, 0, 56, 0
1, 288720, Note_on_c, 0, 66, 36
1, 288720, Note_on_c, 0, 60, 36
1, 288780, Note_on_c, 0, 60, 0
1, 288780, Note_on_c, 0, 66, 0
1, 288840, Note_on_c, 0, 87, 0
1, 288840, Note_on_c, 0, 80, 0
1, 288840, Note_on_c, 0, 87, 52
1, 288840, Note_on_c, 0, 90, 52
1, 288840, Note_on_c, 0, 56, 37
1, 288900, Note_on_c, 0, 56, 0
1, 288900, Note_on_c, 0, 90, 0
1, 288900, Note_on_c, 0, 87, 0
1, 288960, Tempo, 595533
1, 288960, Note_on_c, 0, 85, 57
1, 288960, Note_on_c, 0, 89, 57
1, 288960, Note_on_c, 0, 49, 40
1, 288960, Control_c, 0, 64, 0
1, 289004, Control_c, 0, 64, 127
1, 289020, Note_on_c, 0, 49, 0
1, 289080, Tempo, 628272
1, 289080, Note_on_c, 0, 89, 0
1, 289080, Note_on_c, 0, 92, 53
1, 289080, Note_on_c, 0, 56, 35
1, 289140, Note_on_c, 0, 56, 0
1, 289200, Note_on_c, 0, 92, 0
1, 289200, Note_on_c, 0, 85, 0
1, 289200, Note_on_c, 0, 80, 53
1, 289200, Note_on_c, 0, 85, 53
1, 289200, Note_on_c, 0, 65, 35
1, 289200, Note_on_c, 0, 61, 35
1, 289235, Control_c, 0, 64, 0
1, 289260, Note_on_c, 0, 61, 0
1, 289260, Note_on_c, 0, 65, 0
1, 289320, Tempo, 653951
1, 289320, Note_on_c, 0, 85, 0
1, 289320, Note_on_c, 0, 80, 0
1, 289320, Note_on_c, 0, 56, 35
1, 289380, Note_on_c, 0, 56, 0
1, 289440, Tempo, 623377
1, 289440, Note_on_c, 0, 68, 55
1, 289440, Note_on_c, 0, 75, 55
1, 289440, Note_on_c, 0, 49, 40
1, 289488, Control_c, 0, 64, 127
1, 289500, Note_on_c, 0, 49, 0
1, 289560, Note_on_c, 0, 56, 36
1, 289620, Note_on_c, 0, 56, 0
1, 289680, Note_on_c, 0, 66, 36
1, 289680, Note_on_c, 0, 60, 36
1, 289740, Note_on_c, 0, 60, 0
1, 289740, Note_on_c, 0, 66, 0
1, 289800, Note_on_c, 0, 75, 0
1, 289800, Note_on_c, 0, 68, 0
1, 289800, Note_on_c, 0, 75, 50
1, 289800, Note_on_c, 0, 78, 50
1, 289800, Note_on_c, 0, 56, 37
1, 289840, Note_on_c, 0, 78, 0
1, 289840, Note_on_c, 0, 80, 50
1, 289860, Note_on_c, 0, 56, 0
1, 289860, Note_on_c, 0, 75, 0
1, 289880, Note_on_c, 0, 80, 0
1, 289880, Note_on_c, 0, 78, 50
1, 289920, Tempo, 600000
1, 289920, Note_on_c, 0, 78, 0
1, 289920, Note_on_c, 0, 73, 55
1, 289920, Note_on_c, 0, 77, 55
1, 289920, Note_on_c, 0, 49, 40
1, 289920, Control_c, 0, 64, 0
1, 289961, Control_c, 0, 64, 127
1, 289980, Note_on_c, 0, 49, 0
1, 290040, Tempo, 628272
1, 290040, Note_on_c, 0, 77, 0
1, 290040, Note_on_c, 0, 80, 51
1, 290040, Note_on_c, 0, 56, 35
1, 290100, Note_on_c, 0, 56, 0
1, 290160, Note_on_c, 0, 80, 0
1, 290160, Note_on_c, 0, 73, 0
1, 290160, Note_on_c, 0, 68, 51
1, 290160, Note_on_c, 0, 73, 51
1, 290160, Note_on_c, 0, 65, 35
1, 290160, Note_on_c, 0, 61, 35
1, 290201, Control_c, 0, 64, 0
1, 290220, Note_on_c, 0, 61, 0
1, 290220, Note_on_c, 0, 65, 0
1, 290280, Tempo, 653951
1, 290280, Note_on_c, 0, 73, 0
1, 290280, Note_on_c, 0, 68, 0
1, 290280, Note_on_c, 0, 56, 35
1, 290340, Note_on_c, 0, 56, 0
1, 290400, Tempo, 613811
1, 290400, Note_on_c, 0, 80, 57
1, 290400, Note_on_c, 0, 87, 57
1, 290400, Note_on_c, 0, 49, 40
1, 290435, Control_c, 0, 64, 127
1, 290460, Note_on_c, 0, 49, 0
1, 290520, Tempo, 618557
1, 290520, Note_on_c, 0, 56, 36
1, 290580, Note_on_c, 0, 56, 0
1, 290640, Note_on_c, 0, 66, 36
1, 290640, Note_on_c, 0, 60, 36
1, 290700, Note_on_c, 0, 60, 0
1, 290700, Note_on_c, 0, 66, 0
1, 290760, Note_on_c, 0, 87, 0
1, 290760, Note_on_c, 0, 80, 0
1, 290760, Note_on_c, 0, 87, 52
1, 290760, Note_on_c, 0, 90, 52
1, 290760, Note_on_c, 0, 56, 37
1, 290800, Note_on_c, 0, 90, 0
1, 290800, Note_on_c, 0, 92, 52
1, 290820, Note_on_c, 0, 56, 0
1, 290820, Note_on_c, 0, 87, 0
1, 290840, Note_on_c, 0, 92, 0
1, 290840, Note_on_c, 0, 90, 52
1, 290880, Tempo, 600000
1, 290880, Note_on_c, 0, 90, 0
1, 290880, Note_on_c, 0, 85, 57
1, 290880, Note_on_c, 0, 89, 57
1, 290880, Note_on_c, 0, 49, 40
1, 290880, Control_c, 0, 64, 0
1, 290926, Control_c, 0, 64, 127
1, 290940, Note_on_c, 0, 49, 0
1, 291000, Tempo, 618557
1, 291000, Note_on_c, 0, 89, 0
1, 291000, Note_on_c, 0, 92, 53
1, 291000, Note_on_c, 0, 56, 35
1, 291060, Note_on_c, 0, 56, 0
1, 291120, Note_on_c, 0, 92, 0
1, 291120, Note_on_c, 0, 85, 0
1, 291120, Note_on_c, 0, 80, 53
1, 291120, Note_on_c, 0, 85, 53
1, 291120, Note_on_c, 0, 65, 35
1, 291120, Note_on_c, 0, 61, 35
1, 291180, Note_on_c, 0, 61, 0
1, 291180, Note_on_c, 0, 65, 0
1, 291240, Note_on_c, 0, 85, 0
1, 291240, Note_on_c, 0, 80, 0
1, 291240, Note_on_c, 0, 56, 35
1, 291300, Note_on_c, 0, 56, 0
1, 291353, Tempo, 613811
1, 291360, Note_on_c, 0, 72, 48
1, 291360, Note_on_c, 0, 49, 40
1, 291370, Tempo, 633245
1, 291374, Control_c, 0, 64, 0
1, 291420, Note_on_c, 0, 49, 0
1, 291420, Note_on_c, 0, 72, 0
1, 291420, Note_on_c, 0, 73, 49
1, 291438, Control_c, 0, 64, 127
1, 291470, Tempo, 628272
1, 291480, Note_on_c, 0, 73, 0
1, 291480, Note_on_c, 0, 75, 50
1, 291480, Note_on_c, 0, 56, 36
1, 291540, Note_on_c, 0, 56, 0
1, 291540, Note_on_c, 0, 75, 0
1, 291540, Note_on_c, 0, 77, 51
1, 291570, Tempo, 623377
1, 291600, Note_on_c, 0, 77, 0
1, 291600, Note_on_c, 0, 78, 52
1, 291600, Note_on_c, 0, 66, 36
1, 291600, Note_on_c, 0, 60, 36
1, 291650, Tempo, 618557
1, 291660, Note_on_c, 0, 60, 0
1, 291660, Note_on_c, 0, 66, 0
1, 291660, Note_on_c, 0, 78, 0
1, 291660, Note_on_c, 0, 80, 52
1, 291720, Note_on_c, 0, 80, 0
1, 291720, Note_on_c, 0, 82, 53
1, 291720, Note_on_c, 0, 56, 37
1, 291750, Tempo, 613811
1, 291780, Note_on_c, 0, 56, 0
1, 291780, Note_on_c, 0, 82, 0
1, 291780, Note_on_c, 0, 84, 54
1, 291830, Tempo, 609137
1, 291840, Note_on_c, 0, 84, 0
1, 291840, Note_on_c, 0, 85, 56
1, 291840, Note_on_c, 0, 49, 40
1, 291900, Note_on_c, 0, 49, 0
1, 291900, Note_on_c, 0, 85, 0
1, 291900, Note_on_c, 0, 87, 56
1, 291960, Note_on_c, 0, 87, 0
1, 291960, Note_on_c, 0, 89, 56
1, 291960, Note_on_c, 0, 56, 35
1, 292020, Note_on_c, 0, 56, 0
1, 292020, Note_on_c, 0, 89, 0
1, 292020, Note_on_c, 0, 90, 57
1, 292080, Note_on_c, 0, 90, 0
1, 292080, Note_on_c, 0, 91, 57
1, 292080, Note_on_c, 0, 65, 35
1, 292080, Note_on_c, 0, 61, 35
1, 292140, Note_on_c, 0, 61, 0
1, 292140, Note_on_c, 0, 65, 0
1, 292140, Note_on_c, 0, 91, 0
1, 292140, Note_on_c, 0, 94, 58
1, 292200, Note_on_c, 0, 94, 0
1, 292200, Note_on_c, 0, 92, 58
1, 292200, Note_on_c, 0, 56, 35
1, 292260, Note_on_c, 0, 56, 0
1, 292260, Note_on_c, 0, 92, 0
1, 292260, Note_on_c, 0, 94, 59
1, 292310, Tempo, 604534
1, 292320, Note_on_c, 0, 94, 0
1, 292320, Note_on_c, 0, 92, 58
1, 292320, Note_on_c, 0, 87, 61
1, 292320, Note_on_c, 0, 49, 40
1, 292327, Control_c, 0, 64, 0
1, 292349, Control_c, 0, 64, 127
1, 292380, Note_on_c, 0, 49, 0
1, 292380, Note_on_c, 0, 92, 0
1, 292380, Note_on_c, 0, 94, 52
1, 292440, Note_on_c, 0, 94, 0
1, 292440, Note_on_c, 0, 92, 52
1, 292440, Note_on_c, 0, 56, 36
1, 292450, Tempo, 609137
1, 292500, Note_on_c, 0, 56, 0
1, 292500, Note_on_c, 0, 92, 0
1, 292500, Note_on_c, 0, 94, 52
1, 292560, Note_on_c, 0, 94, 0
1, 292560, Note_on_c, 0, 92, 52
1, 292560, Note_on_c, 0, 66, 36
1, 292560, Note_on_c, 0, 60, 36
1, 292570, Tempo, 613811
1, 292620, Note_on_c, 0, 60, 0
1, 292620, Note_on_c, 0, 66, 0
1, 292620, Note_on_c, 0, 92, 0
1, 292620, Note_on_c, 0, 94, 52
1, 292680, Note_on_c, 0, 94, 0
1, 292680, Note_on_c, 0, 87, 0
1, 292680, Note_on_c, 0, 92, 52
1, 292680, Note_on_c, 0, 90, 52
1, 292680, Note_on_c, 0, 56, 37
1, 292690, Tempo, 618557
1, 292740, Note_on_c, 0, 56, 0
1, 292740, Note_on_c, 0, 92, 0
1, 292740, Note_on_c, 0, 94, 52
1, 292800, Tempo, 586797
1, 292800, Note_on_c, 0, 94, 0
1, 292800, Note_on_c, 0, 90, 0
1, 292800, Note_on_c, 0, 92, 58
1, 292800, Note_on_c, 0, 89, 57
1, 292800, Note_on_c, 0, 49, 40
1, 292800, Control_c, 0, 64, 0
1, 292860, Note_on_c, 0, 49, 0
1, 292860, Note_on_c, 0, 92, 0
1, 292860, Note_on_c, 0, 94, 52
1, 292864, Control_c, 0, 64, 127
1, 292920, Tempo, 623377
1, 292920, Note_on_c, 0, 94, 0
1, 292920, Note_on_c, 0, 89, 0
1, 292920, Note_on_c, 0, 92, 53
1, 292920, Note_on_c, 0, 56, 35
1, 292980, Note_on_c, 0, 56, 0
1, 292980, Note_on_c, 0, 94, 52
1, 293040, Note_on_c, 0, 94, 0
1, 293040, Note_on_c, 0, 92, 0
1, 293040, Note_on_c, 0, 92, 58
1, 293040, Note_on_c, 0, 85, 53
1, 293040, Note_on_c, 0, 65, 35
1, 293040, Note_on_c, 0, 61, 35
1, 293100, Note_on_c, 0, 61, 0
1, 293100, Note_on_c, 0, 65, 0
1, 293160, Tempo, 648649
1, 293160, Note_on_c, 0, 85, 0
1, 293160, Note_on_c, 0, 92, 0
1, 293160, Note_on_c, 0, 56, 35
1, 293220, Note_on_c, 0, 56, 0
1, 293273, Tempo, 613811
1, 293281, Note_on_c, 0, 72, 48
1, 293281, Note_on_c, 0, 49, 40
1, 293287, Tempo, 633245
1, 293295, Control_c, 0, 64, 0
1, 293341, Note_on_c, 0, 49, 0
1, 293341, Note_on_c, 0, 72, 0
1, 293341, Note_on_c, 0, 73, 49
1, 293358, Control_c, 0, 64, 127
1, 293387, Tempo, 628272
1, 293400, Note_on_c, 0, 56, 36
1, 293401, Note_on_c, 0, 73, 0
1, 293401, Note_on_c, 0, 75, 50
1, 293460, Note_on_c, 0, 56, 0
1, 293461, Note_on_c, 0, 75, 0
1, 293461, Note_on_c, 0, 77, 51
1, 293487, Tempo, 623377
1, 293520, Note_on_c, 0, 66, 36
1, 293520, Note_on_c, 0, 60, 36
1, 293521, Note_on_c, 0, 77, 0
1, 293521, Note_on_c, 0, 78, 52
1, 293567, Tempo, 618557
1, 293580, Note_on_c, 0, 60, 0
1, 293580, Note_on_c, 0, 66, 0
1, 293581, Note_on_c, 0, 78, 0
1, 293581, Note_on_c, 0, 80, 52
1, 293640, Note_on_c, 0, 56, 37
1, 293641, Note_on_c, 0, 80, 0
1, 293641, Note_on_c, 0, 82, 53
1, 293667, Tempo, 613811
1, 293700, Note_on_c, 0, 56, 0
1, 293701, Note_on_c, 0, 82, 0
1, 293701, Note_on_c, 0, 84, 54
1, 293747, Tempo, 609137
1, 293761, Note_on_c, 0, 84, 0
1, 293761, Note_on_c, 0, 85, 56
1, 293761, Note_on_c, 0, 49, 40
1, 293821, Note_on_c, 0, 49, 0
1, 293821, Note_on_c, 0, 85, 0
1, 293821, Note_on_c, 0, 87, 56
1, 293881, Note_on_c, 0, 87, 0
1, 293881, Note_on_c, 0, 89, 56
1, 293881, Note_on_c, 0, 56, 35
1, 293941, Note_on_c, 0, 56, 0
1, 293941, Note_on_c, 0, 89, 0
1, 293941, Note_on_c, 0, 90, 57
1, 294001, Note_on_c, 0, 90, 0
1, 294001, Note_on_c, 0, 91, 57
1, 294001, Note_on_c, 0, 65, 35
1, 294001, Note_on_c, 0, 61, 35
1, 294061, Note_on_c, 0, 61, 0
1, 294061, Note_on_c, 0, 65, 0
1, 294061, Note_on_c, 0, 91, 0
1, 294061, Note_on_c, 0, 94, 58
1, 294121, Note_on_c, 0, 94, 0
1, 294121, Note_on_c, 0, 92, 58
1, 294121, Note_on_c, 0, 56, 35
1, 294181, Note_on_c, 0, 56, 0
1, 294181, Note_on_c, 0, 92, 0
1, 294181, Note_on_c, 0, 94, 59
1, 294227, Tempo, 604534
1, 294241, Note_on_c, 0, 94, 0
1, 294241, Note_on_c, 0, 92, 58
1, 294241, Note_on_c, 0, 87, 61
1, 294241, Note_on_c, 0, 49, 40
1, 294247, Control_c, 0, 64, 0
1, 294270, Control_c, 0, 64, 127
1, 294301, Note_on_c, 0, 49, 0
1, 294301, Note_on_c, 0, 92, 0
1, 294301, Note_on_c, 0, 94, 52
1, 294361, Note_on_c, 0, 94, 0
1, 294361, Note_on_c, 0, 92, 52
1, 294361, Note_on_c, 0, 56, 36
1, 294367, Tempo, 609137
1, 294421, Note_on_c, 0, 56, 0
1, 294421, Note_on_c, 0, 92, 0
1, 294421, Note_on_c, 0, 94, 52
1, 294481, Note_on_c, 0, 94, 0
1, 294481, Note_on_c, 0, 92, 52
1, 294481, Note_on_c, 0, 66, 36
1, 294481, Note_on_c, 0, 60, 36
1, 294487, Tempo, 613811
1, 294541, Note_on_c, 0, 60, 0
1, 294541, Note_on_c, 0, 66, 0
1, 294541, Note_on_c, 0, 92, 0
1, 294541, Note_on_c, 0, 94, 52
1, 294601, Note_on_c, 0, 94, 0
1, 294601, Note_on_c, 0, 87, 0
1, 294601, Note_on_c, 0, 92, 52
1, 294601, Note_on_c, 0, 56, 37
1, 294601, Note_on_c, 0, 90, 52
1, 294607, Tempo, 618557
1, 294661, Note_on_c, 0, 56, 0
1, 294661, Note_on_c, 0, 92, 0
1, 294661, Note_on_c, 0, 94, 52
1, 294717, Tempo, 586797
1, 294721, Note_on_c, 0, 94, 0
1, 294721, Note_on_c, 0, 92, 58
1, 294721, Note_on_c, 0, 89, 57
1, 294721, Note_on_c, 0, 49, 40
1, 294721, Control_c, 0, 64, 0
1, 294721, Note_on_c, 0, 90, 0
1, 294781, Note_on_c, 0, 92, 0
1, 294781, Note_on_c, 0, 49, 0
1, 294781, Note_on_c, 0, 94, 52
1, 294784, Control_c, 0, 64, 127
1, 294837, Tempo, 623377
1, 294841, Note_on_c, 0, 94, 0
1, 294841, Note_on_c, 0, 89, 0
1, 294841, Note_on_c, 0, 92, 53
1, 294841, Note_on_c, 0, 56, 35
1, 294900, Note_on_c, 0, 94, 52
1, 294901, Note_on_c, 0, 56, 0
1, 294960, Note_on_c, 0, 94, 0
1, 294960, Note_on_c, 0, 92, 58
1, 294961, Note_on_c, 0, 92, 0
1, 294961, Note_on_c, 0, 85, 53
1, 294961, Note_on_c, 0, 65, 35
1, 294961, Note_on_c, 0, 61, 35
1, 295020, Note_on_c, 0, 92, 0
1, 295020, Note_on_c, 0, 94, 52
1, 295021, Note_on_c, 0, 61, 0
1, 295021, Note_on_c, 0, 65, 0
1, 295077, Tempo, 648649
1, 295080, Note_on_c, 0, 94, 0
1, 295080, Note_on_c, 0, 92, 52
1, 295080, Note_on_c, 0, 56, 35
1, 295081, Note_on_c, 0, 85, 0
1, 295140, Note_on_c, 0, 56, 0
1, 295140, Note_on_c, 0, 92, 0
1, 295140, Note_on_c, 0, 94, 52
1, 295200, Tempo, 604534
1, 295200, Note_on_c, 0, 94, 0
1, 295201, Note_on_c, 0, 92, 60
1, 295201, Note_on_c, 0, 87, 64
1, 295201, Note_on_c, 0, 49, 42
1, 295207, Control_c, 0, 64, 0
1, 295230, Control_c, 0, 64, 127
1, 295261, Note_on_c, 0, 49, 0
1, 295261, Note_on_c, 0, 92, 0
1, 295261, Note_on_c, 0, 94, 54
1, 295321, Note_on_c, 0, 94, 0
1, 295321, Note_on_c, 0, 92, 54
1, 295321, Note_on_c, 0, 56, 37
1, 295327, Tempo, 609137
1, 295381, Note_on_c, 0, 56, 0
1, 295381, Note_on_c, 0, 92, 0
1, 295381, Note_on_c, 0, 94, 54
1, 295441, Note_on_c, 0, 94, 0
1, 295441, Note_on_c, 0, 92, 54
1, 295441, Note_on_c, 0, 66, 37
1, 295441, Note_on_c, 0, 60, 37
1, 295447, Tempo, 613811
1, 295501, Note_on_c, 0, 60, 0
1, 295501, Note_on_c, 0, 66, 0
1, 295501, Note_on_c, 0, 92, 0
1, 295501, Note_on_c, 0, 94, 54
1, 295561, Note_on_c, 0, 94, 0
1, 295561, Note_on_c, 0, 87, 0
1, 295561, Note_on_c, 0, 92, 54
1, 295561, Note_on_c, 0, 56, 38
1, 295561, Note_on_c, 0, 90, 54
1, 295567, Tempo, 618557
1, 295621, Note_on_c, 0, 56, 0
1, 295621, Note_on_c, 0, 92, 0
1, 295621, Note_on_c, 0, 94, 54
1, 295677, Tempo, 586797
1, 295680, Note_on_c, 0, 89, 63
1, 295680, Note_on_c, 0, 92, 60
1, 295681, Note_on_c, 0, 94, 0
1, 295681, Note_on_c, 0, 49, 42
1, 295681, Control_c, 0, 64, 0
1, 295681, Note_on_c, 0, 90, 0
1, 295712, Control_c, 0, 64, 127
1, 295740, Note_on_c, 0, 92, 0
1, 295740, Note_on_c, 0, 94, 54
1, 295741, Note_on_c, 0, 49, 0
1, 295797, Tempo, 623377
1, 295800, Note_on_c, 0, 94, 0
1, 295800, Note_on_c, 0, 89, 0
1, 295800, Note_on_c, 0, 92, 64
1, 295800, Note_on_c, 0, 92, 60
1, 295801, Note_on_c, 0, 56, 36
1, 295860, Note_on_c, 0, 92, 0
1, 295860, Note_on_c, 0, 94, 54
1, 295861, Note_on_c, 0, 56, 0
1, 295920, Note_on_c, 0, 94, 0
1, 295920, Note_on_c, 0, 92, 0
1, 295920, Note_on_c, 0, 85, 55
1, 295920, Note_on_c, 0, 92, 60
1, 295921, Note_on_c, 0, 65, 36
1, 295921, Note_on_c, 0, 61, 36
1, 295980, Note_on_c, 0, 92, 0
1, 295980, Note_on_c, 0, 94, 54
1, 295981, Note_on_c, 0, 61, 0
1, 295981, Note_on_c, 0, 65, 0
1, 296037, Tempo, 648649
1, 296040, Note_on_c, 0, 85, 0
1, 296040, Note_on_c, 0, 94, 0
1, 296040, Note_on_c, 0, 92, 54
1, 296041, Note_on_c, 0, 56, 36
1, 296100, Note_on_c, 0, 92, 0
1, 296100, Note_on_c, 0, 94, 54
1, 296101, Note_on_c, 0, 56, 0
1, 296110, Tempo, 643432
1, 296132, Tempo, 643432
1, 296160, Note_on_c, 0, 94, 0
1, 296160, Note_on_c, 0, 84, 57
1, 296160, Note_on_c, 0, 49, 42
1, 296160, Note_on_c, 0, 92, 60
1, 296171, Control_c, 0, 64, 0
1, 296196, Tempo, 638298
1, 296203, Control_c, 0, 64, 127
1, 296220, Note_on_c, 0, 92, 0
1, 296220, Note_on_c, 0, 49, 0
1, 296220, Note_on_c, 0, 84, 0
1, 296220, Note_on_c, 0, 94, 54
1, 296260, Tempo, 633245
1, 296280, Note_on_c, 0, 94, 0
1, 296280, Note_on_c, 0, 85, 58
1, 296280, Note_on_c, 0, 56, 37
1, 296280, Note_on_c, 0, 92, 60
1, 296324, Tempo, 628272
1, 296340, Note_on_c, 0, 92, 0
1, 296340, Note_on_c, 0, 56, 0
1, 296340, Note_on_c, 0, 85, 0
1, 296340, Note_on_c, 0, 94, 54
1, 296372, Tempo, 623377
1, 296400, Note_on_c, 0, 94, 0
1, 296400, Note_on_c, 0, 87, 60
1, 296400, Note_on_c, 0, 66, 37
1, 296400, Note_on_c, 0, 60, 37
1, 296401, Note_on_c, 0, 92, 60
1, 296436, Tempo, 618557
1, 296460, Note_on_c, 0, 60, 0
1, 296460, Note_on_c, 0, 87, 0
1, 296460, Note_on_c, 0, 66, 0
1, 296460, Note_on_c, 0, 94, 54
1, 296461, Note_on_c, 0, 92, 0
1, 296500, Tempo, 613811
1, 296520, Note_on_c, 0, 94, 0
1, 296520, Note_on_c, 0, 88, 61
1, 296520, Note_on_c, 0, 56, 38
1, 296520, Note_on_c, 0, 92, 54
1, 296564, Tempo, 609137
1, 296580, Note_on_c, 0, 92, 0
1, 296580, Note_on_c, 0, 56, 0
1, 296580, Note_on_c, 0, 88, 0
1, 296580, Note_on_c, 0, 94, 54
1, 296640, Note_on_c, 0, 94, 0
1, 296640, Note_on_c, 0, 89, 63
1, 296640, Control_c, 0, 64, 0
1, 296640, Note_on_c, 0, 92, 60
1, 296641, Note_on_c, 0, 49, 42
1, 296675, Control_c, 0, 64, 127
1, 296700, Note_on_c, 0, 92, 0
1, 296700, Note_on_c, 0, 89, 0
1, 296700, Note_on_c, 0, 94, 54
1, 296701, Note_on_c, 0, 49, 0
1, 296760, Note_on_c, 0, 94, 0
1, 296760, Note_on_c, 0, 90, 65
1, 296760, Note_on_c, 0, 92, 60
1, 296761, Note_on_c, 0, 56, 36
1, 296820, Note_on_c, 0, 92, 0
1, 296820, Note_on_c, 0, 90, 0
1, 296820, Note_on_c, 0, 94, 54
1, 296821, Note_on_c, 0, 56, 0
1, 296880, Note_on_c, 0, 94, 0
1, 296880, Note_on_c, 0, 91, 64
1, 296880, Note_on_c, 0, 92, 60
1, 296881, Note_on_c, 0, 65, 36
1, 296881, Note_on_c, 0, 61, 36
1, 296940, Note_on_c, 0, 92, 0
1, 296940, Note_on_c, 0, 91, 0
1, 296940, Note_on_c, 0, 94, 54
1, 296941, Note_on_c, 0, 65, 0
1, 296941, Note_on_c, 0, 61, 0
1, 297000, Tempo, 653951
1, 297000, Note_on_c, 0, 94, 0
1, 297000, Note_on_c, 0, 92, 67
1, 297000, Note_on_c, 0, 92, 54
1, 297001, Note_on_c, 0, 56, 36
1, 297060, Note_on_c, 0, 92, 0
1, 297060, Note_on_c, 0, 92, 0
1, 297060, Note_on_c, 0, 94, 54
1, 297061, Note_on_c, 0, 56, 0
1, 297120, Tempo, 609137
1, 297120, Note_on_c, 0, 94, 0
1, 297120, Note_on_c, 0, 90, 64
1, 297120, Note_on_c, 0, 49, 42
1, 297120, Note_on_c, 0, 92, 60
1, 297180, Note_on_c, 0, 92, 0
1, 297180, Note_on_c, 0, 49, 0
1, 297180, Note_on_c, 0, 90, 0
1, 297180, Note_on_c, 0, 94, 54
1, 297240, Note_on_c, 0, 94, 0
1, 297240, Note_on_c, 0, 89, 65
1, 297240, Note_on_c, 0, 56, 37
1, 297240, Note_on_c, 0, 92, 60
1, 297300, Note_on_c, 0, 92, 0
1, 297300, Note_on_c, 0, 56, 0
1, 297300, Note_on_c, 0, 89, 0
1, 297300, Note_on_c, 0, 94, 54
1, 297360, Note_on_c, 0, 94, 0
1, 297360, Note_on_c, 0, 87, 64
1, 297360, Note_on_c, 0, 66, 37
1, 297360, Note_on_c, 0, 60, 37
1, 297360, Note_on_c, 0, 92, 60
1, 297420, Note_on_c, 0, 92, 0
1, 297420, Note_on_c, 0, 87, 0
1, 297420, Note_on_c, 0, 66, 0
1, 297420, Note_on_c, 0, 60, 0
1, 297420, Note_on_c, 0, 94, 54
1, 297480, Tempo, 659341
1, 297480, Note_on_c, 0, 94, 0
1, 297480, Note_on_c, 0, 90, 65
1, 297480, Note_on_c, 0, 56, 38
1, 297480, Note_on_c, 0, 92, 54
1, 297540, Note_on_c, 0, 92, 0
1, 297540, Note_on_c, 0, 56, 0
1, 297540, Note_on_c, 0, 90, 0
1, 297540, Note_on_c, 0, 94, 54
1, 297600, Tempo, 570071
1, 297600, Note_on_c, 0, 94, 0
1, 297600, Note_on_c, 0, 89, 63
1, 297600, Note_on_c, 0, 92, 60
1, 297601, Note_on_c, 0, 49, 42
1, 297601, Control_c, 0, 64, 0
1, 297635, Control_c, 0, 64, 127
1, 297660, Note_on_c, 0, 92, 0
1, 297660, Note_on_c, 0, 94, 54
1, 297661, Note_on_c, 0, 49, 0
1, 297717, Tempo, 623377
1, 297720, Tempo, 600000
1, 297720, Note_on_c, 0, 94, 0
1, 297720, Note_on_c, 0, 89, 0
1, 297720, Note_on_c, 0, 92, 63
1, 297720, Note_on_c, 0, 92, 60
1, 297721, Note_on_c, 0, 56, 36
1, 297780, Note_on_c, 0, 92, 0
1, 297780, Note_on_c, 0, 94, 54
1, 297781, Note_on_c, 0, 56, 0
1, 297840, Note_on_c, 0, 94, 0
1, 297840, Note_on_c, 0, 92, 0
1, 297840, Note_on_c, 0, 85, 55
1, 297840, Note_on_c, 0, 92, 60
1, 297841, Note_on_c, 0, 65, 36
1, 297841, Note_on_c, 0, 61, 36
1, 297900, Note_on_c, 0, 92, 0
1, 297900, Note_on_c, 0, 94, 54
1, 297901, Note_on_c, 0, 61, 0
1, 297901, Note_on_c, 0, 65, 0
1, 297957, Tempo, 648649
1, 297960, Note_on_c, 0, 85, 0
1, 297960, Note_on_c, 0, 94, 0
1, 297960, Note_on_c, 0, 92, 54
1, 297961, Note_on_c, 0, 56, 36
1, 298020, Tempo, 633245
1, 298020, Note_on_c, 0, 92, 0
1, 298020, Note_on_c, 0, 94, 54
1, 298021, Note_on_c, 0, 56, 0
1, 298080, Note_on_c, 0, 94, 0
1, 298080, Note_on_c, 0, 84, 57
1, 298080, Note_on_c, 0, 49, 42
1, 298080, Note_on_c, 0, 92, 60
1, 298084, Tempo, 628272
1, 298092, Control_c, 0, 64, 0
1, 298117, Control_c, 0, 64, 127
1, 298140, Note_on_c, 0, 92, 0
1, 298140, Note_on_c, 0, 49, 0
1, 298140, Note_on_c, 0, 84, 0
1, 298140, Note_on_c, 0, 94, 54
1, 298148, Tempo, 623377
1, 298196, Tempo, 618557
1, 298200, Note_on_c, 0, 94, 0
1, 298200, Note_on_c, 0, 85, 58
1, 298200, Note_on_c, 0, 56, 37
1, 298200, Note_on_c, 0, 92, 60
1, 298260, Tempo, 613811
1, 298260, Note_on_c, 0, 92, 0
1, 298260, Note_on_c, 0, 56, 0
1, 298260, Note_on_c, 0, 85, 0
1, 298260, Note_on_c, 0, 94, 54
1, 298320, Note_on_c, 0, 94, 0
1, 298320, Note_on_c, 0, 87, 60
1, 298320, Note_on_c, 0, 66, 37
1, 298320, Note_on_c, 0, 60, 37
1, 298320, Note_on_c, 0, 92, 60
1, 298324, Tempo, 609137
1, 298372, Tempo, 604534
1, 298380, Note_on_c, 0, 92, 0
1, 298380, Note_on_c, 0, 87, 0
1, 298380, Note_on_c, 0, 66, 0
1, 298380, Note_on_c, 0, 60, 0
1, 298380, Note_on_c, 0, 94, 55
1, 298436, Tempo, 600000
1, 298440, Note_on_c, 0, 94, 0
1, 298440, Note_on_c, 0, 88, 62
1, 298440, Note_on_c, 0, 56, 38
1, 298440, Note_on_c, 0, 92, 55
1, 298500, Tempo, 595533
1, 298500, Note_on_c, 0, 92, 0
1, 298500, Note_on_c, 0, 56, 0
1, 298500, Note_on_c, 0, 88, 0
1, 298500, Note_on_c, 0, 94, 55
1, 298560, Tempo, 582524
1, 298560, Note_on_c, 0, 94, 0
1, 298560, Note_on_c, 0, 89, 64
1, 298560, Control_c, 0, 64, 0
1, 298560, Note_on_c, 0, 92, 61
1, 298561, Note_on_c, 0, 49, 43
1, 298595, Control_c, 0, 64, 127
1, 298620, Tempo, 591133
1, 298620, Note_on_c, 0, 92, 0
1, 298620, Note_on_c, 0, 89, 0
1, 298620, Note_on_c, 0, 94, 56
1, 298621, Note_on_c, 0, 49, 0
1, 298680, Tempo, 582524
1, 298680, Note_on_c, 0, 94, 0
1, 298680, Note_on_c, 0, 90, 67
1, 298680, Note_on_c, 0, 92, 62
1, 298681, Note_on_c, 0, 56, 37
1, 298740, Tempo, 595533
1, 298740, Note_on_c, 0, 92, 0
1, 298740, Note_on_c, 0, 90, 0
1, 298740, Note_on_c, 0, 94, 56
1, 298741, Note_on_c, 0, 56, 0
1, 298800, Tempo, 595533
1, 298800, Note_on_c, 0, 94, 0
1, 298800, Note_on_c, 0, 91, 67
1, 298800, Note_on_c, 0, 92, 63
1, 298801, Note_on_c, 0, 65, 37
1, 298801, Note_on_c, 0, 61, 37
1, 298860, Tempo, 595533
1, 298860, Note_on_c, 0, 92, 0
1, 298860, Note_on_c, 0, 91, 0
1, 298860, Note_on_c, 0, 94, 57
1, 298861, Note_on_c, 0, 65, 0
1, 298861, Note_on_c, 0, 61, 0
1, 298920, Tempo, 638298
1, 298920, Note_on_c, 0, 94, 0
1, 298920, Note_on_c, 0, 92, 71
1, 298920, Note_on_c, 0, 92, 57
1, 298921, Note_on_c, 0, 56, 38
1, 298980, Note_on_c, 0, 92, 0
1, 298980, Note_on_c, 0, 92, 0
1, 298980, Note_on_c, 0, 94, 57
1, 298981, Note_on_c, 0, 56, 0
1, 299040, Tempo, 600000
1, 299040, Note_on_c, 0, 94, 0
1, 299040, Note_on_c, 0, 90, 68
1, 299040, Note_on_c, 0, 49, 44
1, 299040, Note_on_c, 0, 92, 64
1, 299100, Note_on_c, 0, 92, 0
1, 299100, Note_on_c, 0, 49, 0
1, 299100, Note_on_c, 0, 90, 0
1, 299100, Note_on_c, 0, 94, 58
1, 299160, Note_on_c, 0, 94, 0
1, 299160, Note_on_c, 0, 89, 70
1, 299160, Note_on_c, 0, 56, 39
1, 299160, Note_on_c, 0, 92, 64
1, 299220, Note_on_c, 0, 92, 0
1, 299220, Note_on_c, 0, 56, 0
1, 299220, Note_on_c, 0, 89, 0
1, 299220, Note_on_c, 0, 94, 58
1, 299280, Note_on_c, 0, 94, 0
1, 299280, Note_on_c, 0, 87, 69
1, 299280, Note_on_c, 0, 66, 40
1, 299280, Note_on_c, 0, 60, 40
1, 299280, Note_on_c, 0, 92, 65
1, 299340, Note_on_c, 0, 92, 0
1, 299340, Note_on_c, 0, 87, 0
1, 299340, Note_on_c, 0, 66, 0
1, 299340, Note_on_c, 0, 60, 0
1, 299340, Note_on_c, 0, 94, 59
1, 299400, Tempo, 676056
1, 299400, Note_on_c, 0, 94, 0
1, 299400, Note_on_c, 0, 92, 71
1, 299400, Note_on_c, 0, 56, 41
1, 299400, Note_on_c, 0, 92, 59
1, 299460, Note_on_c, 0, 92, 0
1, 299460, Note_on_c, 0, 56, 0
1, 299460, Note_on_c, 0, 92, 0
1, 299460, Note_on_c, 0, 94, 59
1, 299490, Note_on_c, 0, 49, 41
1, 299520, Tempo, 618557
1, 299520, Note_on_c, 0, 94, 0
1, 299520, Note_on_c, 0, 85, 58
1, 299520, Note_on_c, 0, 92, 61
1, 299520, Note_on_c, 0, 65, 54
1, 299534, Control_c, 0, 64, 0
1, 299563, Control_c, 0, 64, 127
1, 299580, Tempo, 638298
1, 299580, Note_on_c, 0, 92, 0
1, 299580, Note_on_c, 0, 94, 56
1, 299640, Tempo, 618557
1, 299640, Note_on_c, 0, 94, 0
1, 299640, Note_on_c, 0, 92, 62
1, 299700, Tempo, 638298
1, 299700, Note_on_c, 0, 92, 0
1, 299700, Note_on_c, 0, 94, 56
1, 299760, Tempo, 618557
1, 299760, Note_on_c, 0, 94, 0
1, 299760, Note_on_c, 0, 65, 0
1, 299760, Note_on_c, 0, 85, 0
1, 299760, Note_on_c, 0, 49, 0
1, 299760, Note_on_c, 0, 92, 63
1, 299760, Note_on_c, 0, 80, 60
1, 299760, Note_on_c, 0, 77, 60
1, 299820, Tempo, 643432
1, 299820, Note_on_c, 0, 92, 0
1, 299820, Note_on_c, 0, 94, 57
1, 299880, Tempo, 623377
1, 299880, Note_on_c, 0, 94, 0
1, 299880, Note_on_c, 0, 92, 60
1, 299940, Tempo, 628272
1, 299940, Note_on_c, 0, 92, 0
1, 299940, Note_on_c, 0, 94, 52
1, 300000, Tempo, 609137
1, 300000, Note_on_c, 0, 94, 0
1, 300000, Note_on_c, 0, 92, 59
1, 300010, Tempo, 609137
1, 300030, Tempo, 604534
1, 300060, Note_on_c, 0, 92, 0
1, 300060, Note_on_c, 0, 77, 0
1, 300060, Note_on_c, 0, 80, 0
1, 300060, Note_on_c, 0, 94, 51
1, 300090, Tempo, 609137
1, 300100, Tempo, 613811
1, 300120, Note_on_c, 0, 94, 0
1, 300120, Note_on_c, 0, 92, 59
1, 300120, Note_on_c, 0, 85, 55
1, 300120, Note_on_c, 0, 82, 55
1, 300130, Tempo, 609137
1, 300150, Tempo, 604534
1, 300160, Tempo, 600000
1, 300180, Tempo, 604534
1, 300180, Note_on_c, 0, 82, 0
1, 300180, Note_on_c, 0, 85, 0
1, 300180, Note_on_c, 0, 92, 0
1, 300180, Note_on_c, 0, 94, 51
1, 300190, Tempo, 613811
1, 300240, Tempo, 633245
1, 300240, Note_on_c, 0, 94, 0
1, 300240, Note_on_c, 0, 92, 59
1, 300240, Note_on_c, 0, 84, 55
1, 300240, Note_on_c, 0, 80, 55
1, 300250, Tempo, 628272
1, 300290, Tempo, 633245
1, 300300, Tempo, 643432
1, 300300, Note_on_c, 0, 80, 0
1, 300300, Note_on_c, 0, 84, 0
1, 300300, Note_on_c, 0, 92, 0
1, 300300, Note_on_c, 0, 94, 51
1, 300310, Tempo, 648649
1, 300330, Tempo, 638298
1, 300340, Tempo, 628272
1, 300360, Note_on_c, 0, 94, 0
1, 300360, Note_on_c, 0, 92, 56
1, 300360, Note_on_c, 0, 82, 55
1, 300360, Note_on_c, 0, 78, 55
1, 300380, Tempo, 643432
1, 300410, Tempo, 638298
1, 300420, Note_on_c, 0, 78, 0
1, 300420, Note_on_c, 0, 82, 0
1, 300420, Note_on_c, 0, 92, 0
1, 300420, Note_on_c, 0, 94, 52
1, 300480, Tempo, 633245
1, 300480, Note_on_c, 0, 94, 0
1, 300480, Note_on_c, 0, 92, 61
1, 300480, Note_on_c, 0, 77, 60
1, 300480, Note_on_c, 0, 80, 60
1, 300480, Control_c, 0, 64, 0
1, 300518, Control_c, 0, 64, 127
1, 300540, Note_on_c, 0, 92, 0
1, 300540, Note_on_c, 0, 94, 56
1, 300600, Note_on_c, 0, 94, 0
1, 300600, Note_on_c, 0, 80, 0
1, 300600, Note_on_c, 0, 77, 0
1, 300600, Note_on_c, 0, 92, 62
1, 300660, Note_on_c, 0, 92, 0
1, 300660, Note_on_c, 0, 94, 56
1, 300720, Tempo, 609137
1, 300720, Note_on_c, 0, 94, 0
1, 300720, Note_on_c, 0, 92, 59
1, 300730, Tempo, 604534
1, 300740, Tempo, 600000
1, 300770, Tempo, 618557
1, 300780, Tempo, 609137
1, 300780, Note_on_c, 0, 92, 0
1, 300780, Note_on_c, 0, 94, 53
1, 300810, Tempo, 604534
1, 300840, Note_on_c, 0, 94, 0
1, 300840, Note_on_c, 0, 92, 58
1, 300840, Note_on_c, 0, 82, 51
1, 300840, Note_on_c, 0, 78, 51
1, 300870, Tempo, 600000
1, 300880, Tempo, 586797
1, 300880, Note_on_c, 0, 82, 0
1, 300880, Note_on_c, 0, 84, 51
1, 300890, Tempo, 600000
1, 300900, Tempo, 609137
1, 300900, Note_on_c, 0, 92, 0
1, 300900, Note_on_c, 0, 94, 52
1, 300920, Tempo, 613811
1, 300920, Note_on_c, 0, 84, 0
1, 300920, Note_on_c, 0, 82, 51
1, 300930, Tempo, 618557
1, 300960, Tempo, 595533
1, 300960, Note_on_c, 0, 82, 0
1, 300960, Note_on_c, 0, 94, 0
1, 300960, Note_on_c, 0, 78, 0
1, 300960, Note_on_c, 0, 92, 59
1, 300960, Note_on_c, 0, 80, 60
1, 300960, Note_on_c, 0, 77, 60
1, 300970, Tempo, 591133
1, 301000, Tempo, 609137
1, 301010, Tempo, 613811
1, 301020, Tempo, 618557
1, 301020, Note_on_c, 0, 77, 0
1, 301020, Note_on_c, 0, 80, 0
1, 301020, Note_on_c, 0, 92, 0
1, 301020, Note_on_c, 0, 94, 53
1, 301050, Tempo, 613811
1, 301060, Tempo, 609137
1, 301070, Tempo, 604534
1, 301080, Tempo, 600000
1, 301080, Note_on_c, 0, 94, 0
1, 301080, Note_on_c, 0, 92, 60
1, 301080, Note_on_c, 0, 78, 54
1, 301080, Note_on_c, 0, 75, 54
1, 301090, Tempo, 595533
1, 301100, Tempo, 591133
1, 301130, Tempo, 609137
1, 301140, Tempo, 604534
1, 301140, Note_on_c, 0, 75, 0
1, 301140, Note_on_c, 0, 78, 0
1, 301140, Note_on_c, 0, 92, 0
1, 301140, Note_on_c, 0, 94, 53
1, 301150, Tempo, 613811
1, 301160, Tempo, 604534
1, 301170, Tempo, 613811
1, 301180, Tempo, 604534
1, 301200, Tempo, 628272
1, 301200, Note_on_c, 0, 94, 0
1, 301200, Note_on_c, 0, 92, 60
1, 301200, Note_on_c, 0, 77, 54
1, 301200, Note_on_c, 0, 73, 54
1, 301260, Note_on_c, 0, 73, 0
1, 301260, Note_on_c, 0, 77, 0
1, 301260, Note_on_c, 0, 92, 0
1, 301260, Note_on_c, 0, 94, 53
1, 301320, Note_on_c, 0, 94, 0
1, 301320, Note_on_c, 0, 92, 60
1, 301320, Note_on_c, 0, 68, 54
1, 301320, Note_on_c, 0, 75, 54
1, 301380, Note_on_c, 0, 75, 0
1, 301380, Note_on_c, 0, 68, 0
1, 301380, Note_on_c, 0, 92, 0
1, 301380, Note_on_c, 0, 94, 53
1, 301440, Tempo, 618557
1, 301440, Note_on_c, 0, 94, 0
1, 301440, Note_on_c, 0, 92, 61
1, 301440, Note_on_c, 0, 65, 54
1, 301440, Note_on_c, 0, 73, 54
1, 301450, Tempo, 699708
1, 301454, Control_c, 0, 64, 0
1, 301483, Control_c, 0, 64, 127
1, 301500, Note_on_c, 0, 92, 0
1, 301500, Note_on_c, 0, 94, 56
1, 301560, Note_on_c, 0, 94, 0
1, 301560, Note_on_c, 0, 73, 0
1, 301560, Note_on_c, 0, 65, 0
1, 301560, Note_on_c, 0, 92, 62
1, 301620, Tempo, 638298
1, 301620, Note_on_c, 0, 92, 0
1, 301620, Note_on_c, 0, 94, 56
1, 301640, Tempo, 638298
1, 301680, Tempo, 618557
1, 301680, Note_on_c, 0, 94, 0
1, 301680, Note_on_c, 0, 92, 63
1, 301680, Note_on_c, 0, 68, 60
1, 301680, Note_on_c, 0, 65, 60
1, 301740, Tempo, 643432
1, 301740, Note_on_c, 0, 92, 0
1, 301740, Note_on_c, 0, 94, 57
1, 301800, Tempo, 623377
1, 301800, Note_on_c, 0, 94, 0
1, 301800, Note_on_c, 0, 92, 60
1, 301860, Tempo, 628272
1, 301860, Note_on_c, 0, 92, 0
1, 301860, Note_on_c, 0, 94, 52
1, 301920, Tempo, 609137
1, 301920, Note_on_c, 0, 94, 0
1, 301920, Note_on_c, 0, 92, 67
1, 301930, Tempo, 609137
1, 301950, Tempo, 604534
1, 301980, Note_on_c, 0, 92, 0
1, 301980, Note_on_c, 0, 65, 0
1, 301980, Note_on_c, 0, 68, 0
1, 301980, Note_on_c, 0, 89, 51
1, 302010, Tempo, 609137
1, 302020, Tempo, 613811
1, 302040, Note_on_c, 0, 89, 0
1, 302040, Note_on_c, 0, 90, 65
1, 302040, Note_on_c, 0, 73, 55
1, 302040, Note_on_c, 0, 70, 55
1, 302050, Tempo, 609137
1, 302070, Tempo, 604534
1, 302080, Tempo, 600000
1, 302100, Tempo, 604534
1, 302100, Note_on_c, 0, 70, 0
1, 302100, Note_on_c, 0, 73, 0
1, 302100, Note_on_c, 0, 90, 0
1, 302100, Note_on_c, 0, 87, 51
1, 302110, Tempo, 613811
1, 302160, Tempo, 633245
1, 302160, Note_on_c, 0, 87, 0
1, 302160, Note_on_c, 0, 89, 65
1, 302160, Note_on_c, 0, 72, 55
1, 302160, Note_on_c, 0, 68, 55
1, 302170, Tempo, 628272
1, 302210, Tempo, 633245
1, 302220, Tempo, 643432
1, 302220, Note_on_c, 0, 68, 0
1, 302220, Note_on_c, 0, 72, 0
1, 302220, Note_on_c, 0, 89, 0
1, 302220, Note_on_c, 0, 85, 51
1, 302230, Tempo, 648649
1, 302250, Tempo, 638298
1, 302260, Tempo, 628272
1, 302280, Note_on_c, 0, 85, 0
1, 302280, Note_on_c, 0, 90, 64
1, 302280, Note_on_c, 0, 70, 55
1, 302280, Note_on_c, 0, 66, 55
1, 302300, Tempo, 643432
1, 302330, Tempo, 638298
1, 302340, Note_on_c, 0, 66, 0
1, 302340, Note_on_c, 0, 70, 0
1, 302340, Note_on_c, 0, 90, 0
1, 302340, Note_on_c, 0, 87, 52
1, 302400, Tempo, 687679
1, 302400, Note_on_c, 0, 87, 0
1, 302400, Note_on_c, 0, 92, 61
1, 302400, Note_on_c, 0, 65, 60
1, 302400, Note_on_c, 0, 68, 60
1, 302400, Control_c, 0, 64, 0
1, 302438, Control_c, 0, 64, 127
1, 302460, Note_on_c, 0, 92, 0
1, 302460, Note_on_c, 0, 89, 56
1, 302520, Note_on_c, 0, 89, 0
1, 302520, Note_on_c, 0, 68, 0
1, 302520, Note_on_c, 0, 65, 0
1, 302520, Note_on_c, 0, 94, 62
1, 302580, Note_on_c, 0, 94, 0
1, 302580, Note_on_c, 0, 90, 56
1, 302640, Note_on_c, 0, 92, 59
1, 302640, Tempo, 609137
1, 302640, Note_on_c, 0, 90, 0
1, 302640, Note_on_c, 0, 65, 60
1, 302640, Note_on_c, 0, 68, 60
1, 302650, Tempo, 604534
1, 302660, Tempo, 600000
1, 302690, Tempo, 618557
1, 302700, Note_on_c, 0, 92, 0
1, 302700, Tempo, 609137
1, 302700, Note_on_c, 0, 89, 53
1, 302730, Tempo, 604534
1, 302760, Note_on_c, 0, 89, 0
1, 302764, Note_on_c, 0, 92, 58
1, 302790, Tempo, 600000
1, 302800, Tempo, 586797
1, 302810, Tempo, 600000
1, 302820, Tempo, 609137
1, 302820, Note_on_c, 0, 89, 52
1, 302824, Note_on_c, 0, 92, 0
1, 302840, Tempo, 613811
1, 302850, Tempo, 618557
1, 302880, Tempo, 595533
1, 302880, Note_on_c, 0, 89, 0
1, 302880, Note_on_c, 0, 92, 59
1, 302890, Tempo, 591133
1, 302920, Tempo, 609137
1, 302930, Tempo, 613811
1, 302940, Tempo, 618557
1, 302940, Note_on_c, 0, 92, 0
1, 302940, Note_on_c, 0, 68, 0
1, 302940, Note_on_c, 0, 65, 0
1, 302940, Note_on_c, 0, 89, 53
1, 302970, Tempo, 613811
1, 302980, Tempo, 609137
1, 302990, Tempo, 604534
1, 303000, Tempo, 600000
1, 303000, Note_on_c, 0, 89, 0
1, 303000, Note_on_c, 0, 90, 60
1, 303000, Note_on_c, 0, 66, 54
1, 303000, Note_on_c, 0, 63, 54
1, 303010, Tempo, 595533
1, 303020, Tempo, 591133
1, 303050, Tempo, 609137
1, 303060, Tempo, 604534
1, 303060, Note_on_c, 0, 63, 0
1, 303060, Note_on_c, 0, 66, 0
1, 303060, Note_on_c, 0, 90, 0
1, 303060, Note_on_c, 0, 87, 53
1, 303070, Tempo, 613811
1, 303080, Tempo, 604534
1, 303090, Tempo, 613811
1, 303100, Tempo, 604534
1, 303120, Tempo, 628272
1, 303120, Note_on_c, 0, 87, 0
1, 303120, Note_on_c, 0, 89, 60
1, 303120, Note_on_c, 0, 65, 54
1, 303120, Note_on_c, 0, 61, 54
1, 303180, Note_on_c, 0, 61, 0
1, 303180, Note_on_c, 0, 65, 0
1, 303180, Note_on_c, 0, 89, 0
1, 303180, Note_on_c, 0, 85, 53
1, 303240, Note_on_c, 0, 85, 0
1, 303240, Note_on_c, 0, 90, 60
1, 303240, Note_on_c, 0, 56, 54
1, 303240, Note_on_c, 0, 63, 54
1, 303300, Note_on_c, 0, 63, 0
1, 303300, Note_on_c, 0, 56, 0
1, 303300, Note_on_c, 0, 90, 0
1, 303300, Note_on_c, 0, 87, 53
1, 303360, Note_on_c, 0, 87, 0
1, 303360, Note_on_c, 0, 92, 61
1, 303360, Note_on_c, 0, 53, 62
1, 303360, Note_on_c, 0, 61, 62
1, 303360, Control_c, 0, 64, 0
1, 303397, Control_c, 0, 64, 127
1, 303420, Note_on_c, 0, 61, 0
1, 303420, Note_on_c, 0, 53, 0
1, 303420, Note_on_c, 0, 92, 0
1, 303420, Note_on_c, 0, 89, 56
1, 303480, Note_on_c, 0, 89, 0
1, 303480, Note_on_c, 0, 88, 58
1, 303540, Note_on_c, 0, 88, 0
1, 303540, Note_on_c, 0, 91, 51
1, 303600, Note_on_c, 0, 91, 0
1, 303600, Note_on_c, 0, 89, 54
1, 303660, Note_on_c, 0, 89, 0
1, 303660, Note_on_c, 0, 92, 46
1, 303720, Note_on_c, 0, 92, 0
1, 303720, Note_on_c, 0, 89, 54
1, 303780, Note_on_c, 0, 89, 0
1, 303780, Note_on_c, 0, 93, 48
1, 303840, Tempo, 628272
1, 303840, Note_on_c, 0, 93, 0
1, 303840, Note_on_c, 0, 90, 55
1, 303840, Note_on_c, 0, 56, 58
1, 303840, Note_on_c, 0, 63, 58
1, 303840, Control_c, 0, 64, 0
1, 303875, Control_c, 0, 64, 127
1, 303900, Note_on_c, 0, 90, 0
1, 303900, Note_on_c, 0, 94, 50
1, 303960, Note_on_c, 0, 94, 0
1, 303960, Note_on_c, 0, 89, 56
1, 304020, Note_on_c, 0, 89, 0
1, 304020, Note_on_c, 0, 93, 50
1, 304080, Note_on_c, 0, 93, 0
1, 304080, Note_on_c, 0, 90, 56
1, 304140, Note_on_c, 0, 90, 0
1, 304140, Note_on_c, 0, 94, 49
1, 304200, Note_on_c, 0, 94, 0
1, 304200, Note_on_c, 0, 63, 0
1, 304200, Note_on_c, 0, 87, 56
1, 304200, Note_on_c, 0, 66, 53
1, 304260, Note_on_c, 0, 66, 0
1, 304260, Note_on_c, 0, 87, 0
1, 304260, Note_on_c, 0, 96, 49
1, 304320, Tempo, 586797
1, 304320, Note_on_c, 0, 96, 0
1, 304320, Note_on_c, 0, 56, 0
1, 304320, Note_on_c, 0, 85, 59
1, 304320, Note_on_c, 0, 61, 58
1, 304320, Note_on_c, 0, 65, 61
1, 304320, Control_c, 0, 64, 0
1, 304380, Note_on_c, 0, 65, 0
1, 304380, Note_on_c, 0, 85, 0
1, 304380, Note_on_c, 0, 97, 53
1, 304440, Tempo, 623377
1, 304440, Note_on_c, 0, 97, 0
1, 304440, Note_on_c, 0, 89, 58
1, 304440, Note_on_c, 0, 68, 55
1, 304500, Note_on_c, 0, 68, 0
1, 304500, Note_on_c, 0, 89, 0
1, 304500, Note_on_c, 0, 92, 48
1, 304560, Note_on_c, 0, 92, 0
1, 304560, Note_on_c, 0, 61, 0
1, 304560, Note_on_c, 0, 88, 55
1, 304560, Note_on_c, 0, 61, 55
1, 304620, Note_on_c, 0, 88, 0
1, 304620, Note_on_c, 0, 91, 51
1, 304680, Note_on_c, 0, 91, 0
1, 304680, Note_on_c, 0, 61, 0
1, 304680, Note_on_c, 0, 89, 57
1, 304740, Note_on_c, 0, 89, 0
1, 304740, Note_on_c, 0, 92, 51
1, 304800, Tempo, 628272
1, 304800, Note_on_c, 0, 92, 0
1, 304800, Note_on_c, 0, 87, 55
1, 304800, Note_on_c, 0, 56, 58
1, 304800, Note_on_c, 0, 63, 58
1, 304817, Control_c, 0, 64, 127
1, 304860, Note_on_c, 0, 87, 0
1, 304860, Note_on_c, 0, 90, 50
1, 304920, Note_on_c, 0, 90, 0
1, 304920, Note_on_c, 0, 85, 56
1, 304980, Note_on_c, 0, 85, 0
1, 304980, Note_on_c, 0, 89, 50
1, 305040, Note_on_c, 0, 89, 0
1, 305040, Note_on_c, 0, 84, 56
1, 305100, Note_on_c, 0, 84, 0
1, 305100, Note_on_c, 0, 87, 49
1, 305160, Note_on_c, 0, 87, 0
1, 305160, Note_on_c, 0, 63, 0
1, 305160, Note_on_c, 0, 80, 56
1, 305160, Note_on_c, 0, 66, 53
1, 305220, Note_on_c, 0, 66, 0
1, 305220, Note_on_c, 0, 80, 0
1, 305220, Note_on_c, 0, 92, 49
1, 305280, Tempo, 586797
1, 305280, Note_on_c, 0, 92, 0
1, 305280, Note_on_c, 0, 56, 0
1, 305280, Note_on_c, 0, 85, 59
1, 305280, Note_on_c, 0, 61, 58
1, 305280, Note_on_c, 0, 65, 61
1, 305299, Control_c, 0, 64, 0
1, 305340, Note_on_c, 0, 65, 0
1, 305340, Note_on_c, 0, 85, 0
1, 305340, Note_on_c, 0, 89, 53
1, 305400, Tempo, 623377
1, 305400, Note_on_c, 0, 89, 0
1, 305400, Note_on_c, 0, 80, 58
1, 305400, Note_on_c, 0, 68, 55
1, 305460, Note_on_c, 0, 68, 0
1, 305460, Note_on_c, 0, 80, 0
1, 305460, Note_on_c, 0, 87, 48
1, 305520, Note_on_c, 0, 87, 0
1, 305520, Note_on_c, 0, 61, 0
1, 305520, Note_on_c, 0, 77, 55
1, 305520, Note_on_c, 0, 61, 55
1, 305580, Note_on_c, 0, 77, 0
1, 305580, Note_on_c, 0, 85, 51
1, 305640, Note_on_c, 0, 85, 0
1, 305640, Note_on_c, 0, 61, 0
1, 305640, Note_on_c, 0, 89, 57
1, 305700, Note_on_c, 0, 89, 0
1, 305700, Note_on_c, 0, 92, 51
1, 305760, Tempo, 628272
1, 305760, Note_on_c, 0, 92, 0
1, 305760, Note_on_c, 0, 90, 55
1, 305760, Note_on_c, 0, 56, 63
1, 305760, Note_on_c, 0, 63, 63
1, 305780, Control_c, 0, 64, 127
1, 305820, Note_on_c, 0, 90, 0
1, 305820, Note_on_c, 0, 94, 50
1, 305880, Note_on_c, 0, 94, 0
1, 305880, Note_on_c, 0, 89, 56
1, 305940, Note_on_c, 0, 89, 0
1, 305940, Note_on_c, 0, 93, 50
1, 306000, Note_on_c, 0, 93, 0
1, 306000, Note_on_c, 0, 90, 56
1, 306060, Note_on_c, 0, 90, 0
1, 306060, Note_on_c, 0, 94, 49
1, 306120, Note_on_c, 0, 94, 0
1, 306120, Note_on_c, 0, 63, 0
1, 306120, Note_on_c, 0, 87, 56
1, 306120, Note_on_c, 0, 66, 58
1, 306180, Note_on_c, 0, 66, 0
1, 306180, Note_on_c, 0, 87, 0
1, 306180, Note_on_c, 0, 96, 49
1, 306240, Tempo, 586797
1, 306240, Note_on_c, 0, 96, 0
1, 306240, Note_on_c, 0, 56, 0
1, 306240, Note_on_c, 0, 85, 59
1, 306240, Note_on_c, 0, 61, 63
1, 306240, Note_on_c, 0, 65, 67
1, 306245, Control_c, 0, 64, 0
1, 306300, Note_on_c, 0, 65, 0
1, 306300, Note_on_c, 0, 85, 0
1, 306300, Note_on_c, 0, 97, 53
1, 306360, Tempo, 623377
1, 306360, Note_on_c, 0, 97, 0
1, 306360, Note_on_c, 0, 89, 58
1, 306360, Note_on_c, 0, 68, 60
1, 306420, Note_on_c, 0, 68, 0
1, 306420, Note_on_c, 0, 89, 0
1, 306420, Note_on_c, 0, 92, 48
1, 306480, Note_on_c, 0, 92, 0
1, 306480, Note_on_c, 0, 61, 0
1, 306480, Note_on_c, 0, 88, 55
1, 306480, Note_on_c, 0, 61, 60
1, 306540, Note_on_c, 0, 88, 0
1, 306540, Note_on_c, 0, 91, 51
1, 306600, Note_on_c, 0, 91, 0
1, 306600, Note_on_c, 0, 61, 0
1, 306600, Note_on_c, 0, 89, 57
1, 306660, Note_on_c, 0, 89, 0
1, 306660, Note_on_c, 0, 92, 51
1, 306694, Tempo, 623377
1, 306720, Note_on_c, 0, 92, 0
1, 306720, Note_on_c, 0, 87, 60
1, 306720, Note_on_c, 0, 48, 50
1, 306740, Control_c, 0, 64, 0
1, 306766, Control_c, 0, 64, 127
1, 306780, Note_on_c, 0, 48, 0
1, 306780, Note_on_c, 0, 87, 0
1, 306780, Note_on_c, 0, 90, 55
1, 306780, Note_on_c, 0, 49, 51
1, 306840, Note_on_c, 0, 49, 0
1, 306840, Note_on_c, 0, 90, 0
1, 306840, Note_on_c, 0, 85, 60
1, 306840, Note_on_c, 0, 51, 52
1, 306854, Tempo, 618557
1, 306900, Note_on_c, 0, 51, 0
1, 306900, Note_on_c, 0, 85, 0
1, 306900, Note_on_c, 0, 89, 56
1, 306900, Note_on_c, 0, 53, 53
1, 306960, Note_on_c, 0, 53, 0
1, 306960, Note_on_c, 0, 89, 0
1, 306960, Note_on_c, 0, 84, 61
1, 306960, Note_on_c, 0, 54, 54
1, 306998, Tempo, 613811
1, 307020, Note_on_c, 0, 54, 0
1, 307020, Note_on_c, 0, 84, 0
1, 307020, Note_on_c, 0, 87, 56
1, 307020, Note_on_c, 0, 56, 55
1, 307080, Note_on_c, 0, 56, 0
1, 307080, Note_on_c, 0, 87, 0
1, 307080, Note_on_c, 0, 80, 61
1, 307080, Note_on_c, 0, 58, 57
1, 307140, Note_on_c, 0, 58, 0
1, 307140, Note_on_c, 0, 80, 0
1, 307140, Note_on_c, 0, 92, 58
1, 307140, Note_on_c, 0, 60, 58
1, 307142, Tempo, 609137
1, 307200, Note_on_c, 0, 60, 0
1, 307200, Note_on_c, 0, 92, 0
1, 307200, Note_on_c, 0, 85, 62
1, 307200, Note_on_c, 0, 61, 59
1, 307260, Note_on_c, 0, 61, 0
1, 307260, Note_on_c, 0, 85, 0
1, 307260, Note_on_c, 0, 89, 58
1, 307260, Note_on_c, 0, 63, 60
1, 307286, Tempo, 604534
1, 307320, Note_on_c, 0, 63, 0
1, 307320, Note_on_c, 0, 89, 0
1, 307320, Note_on_c, 0, 80, 62
1, 307320, Note_on_c, 0, 65, 61
1, 307380, Note_on_c, 0, 65, 0
1, 307380, Note_on_c, 0, 80, 0
1, 307380, Note_on_c, 0, 87, 59
1, 307380, Note_on_c, 0, 66, 62
1, 307430, Tempo, 600000
1, 307440, Note_on_c, 0, 66, 0
1, 307440, Note_on_c, 0, 87, 0
1, 307440, Note_on_c, 0, 77, 59
1, 307440, Note_on_c, 0, 68, 63
1, 307500, Note_on_c, 0, 77, 0
1, 307500, Note_on_c, 0, 85, 62
1, 307560, Tempo, 712166
1, 307560, Note_on_c, 0, 85, 0
1, 307560, Note_on_c, 0, 68, 0
1, 307560, Note_on_c, 0, 89, 64
1, 307620, Note_on_c, 0, 89, 0
1, 307620, Note_on_c, 0, 92, 67
1, 307680, Tempo, 595533
1, 307680, Note_on_c, 0, 92, 0
1, 307680, Note_on_c, 0, 87, 64
1, 307680, Note_on_c, 0, 60, 56
1, 307686, Tempo, 613811
1, 307694, Control_c, 0, 64, 0
1, 307737, Control_c, 0, 64, 127
1, 307740, Note_on_c, 0, 60, 0
1, 307740, Note_on_c, 0, 87, 0
1, 307740, Note_on_c, 0, 90, 58
1, 307740, Note_on_c, 0, 61, 57
1, 307800, Note_on_c, 0, 61, 0
1, 307800, Note_on_c, 0, 90, 0
1, 307800, Note_on_c, 0, 85, 64
1, 307800, Note_on_c, 0, 63, 59
1, 307860, Note_on_c, 0, 63, 0
1, 307860, Note_on_c, 0, 85, 0
1, 307860, Note_on_c, 0, 89, 60
1, 307860, Note_on_c, 0, 65, 60
1, 307862, Tempo, 609137
1, 307920, Note_on_c, 0, 65, 0
1, 307920, Note_on_c, 0, 89, 0
1, 307920, Note_on_c, 0, 84, 61
1, 307920, Note_on_c, 0, 66, 61
1, 307980, Note_on_c, 0, 66, 0
1, 307980, Note_on_c, 0, 84, 0
1, 307980, Note_on_c, 0, 87, 64
1, 307980, Note_on_c, 0, 68, 63
1, 308022, Tempo, 604534
1, 308040, Note_on_c, 0, 68, 0
1, 308040, Note_on_c, 0, 87, 0
1, 308040, Note_on_c, 0, 80, 67
1, 308040, Note_on_c, 0, 70, 64
1, 308100, Note_on_c, 0, 70, 0
1, 308100, Note_on_c, 0, 80, 0
1, 308100, Note_on_c, 0, 92, 67
1, 308100, Note_on_c, 0, 72, 65
1, 308160, Note_on_c, 0, 72, 0
1, 308160, Note_on_c, 0, 92, 0
1, 308160, Note_on_c, 0, 85, 66
1, 308160, Note_on_c, 0, 73, 67
1, 308182, Tempo, 600000
1, 308220, Note_on_c, 0, 73, 0
1, 308220, Note_on_c, 0, 85, 0
1, 308220, Note_on_c, 0, 89, 61
1, 308220, Note_on_c, 0, 75, 68
1, 308280, Note_on_c, 0, 75, 0
1, 308280, Note_on_c, 0, 89, 0
1, 308280, Note_on_c, 0, 84, 66
1, 308280, Note_on_c, 0, 77, 69
1, 308340, Note_on_c, 0, 77, 0
1, 308340, Note_on_c, 0, 84, 0
1, 308340, Note_on_c, 0, 87, 63
1, 308340, Note_on_c, 0, 78, 71
1, 308342, Tempo, 595533
1, 308400, Note_on_c, 0, 78, 0
1, 308400, Note_on_c, 0, 87, 0
1, 308400, Note_on_c, 0, 85, 67
1, 308400, Note_on_c, 0, 80, 72
1, 308460, Note_on_c, 0, 85, 0
1, 308460, Note_on_c, 0, 89, 62
1, 308502, Tempo, 591133
1, 308520, Tempo, 699708
1, 308520, Note_on_c, 0, 89, 0
1, 308520, Note_on_c, 0, 80, 0
1, 308520, Note_on_c, 0, 80, 67
1, 308580, Note_on_c, 0, 80, 0
1, 308580, Note_on_c, 0, 92, 63
1, 308630, Tempo, 609137
1, 308640, Note_on_c, 0, 92, 0
1, 308640, Note_on_c, 0, 92, 68
1, 308640, Note_on_c, 0, 53, 61
1, 308648, Control_c, 0, 64, 0
1, 308680, Control_c, 0, 64, 127
1, 308700, Note_on_c, 0, 53, 0
1, 308700, Note_on_c, 0, 92, 0
1, 308700, Note_on_c, 0, 95, 64
1, 308700, Note_on_c, 0, 54, 62
1, 308760, Note_on_c, 0, 54, 0
1, 308760, Note_on_c, 0, 95, 0
1, 308760, Note_on_c, 0, 90, 68
1, 308760, Note_on_c, 0, 56, 64
1, 308806, Tempo, 604534
1, 308820, Note_on_c, 0, 56, 0
1, 308820, Note_on_c, 0, 90, 0
1, 308820, Note_on_c, 0, 94, 64
1, 308820, Note_on_c, 0, 58, 65
1, 308880, Note_on_c, 0, 58, 0
1, 308880, Note_on_c, 0, 94, 0
1, 308880, Note_on_c, 0, 89, 69
1, 308880, Note_on_c, 0, 59, 66
1, 308940, Note_on_c, 0, 59, 0
1, 308940, Note_on_c, 0, 89, 0
1, 308940, Note_on_c, 0, 92, 65
1, 308940, Note_on_c, 0, 61, 67
1, 308966, Tempo, 600000
1, 309000, Note_on_c, 0, 61, 0
1, 309000, Note_on_c, 0, 92, 0
1, 309000, Note_on_c, 0, 85, 69
1, 309000, Note_on_c, 0, 63, 69
1, 309060, Note_on_c, 0, 63, 0
1, 309060, Note_on_c, 0, 85, 0
1, 309060, Note_on_c, 0, 97, 73
1, 309060, Note_on_c, 0, 65, 70
1, 309120, Note_on_c, 0, 65, 0
1, 309120, Note_on_c, 0, 97, 0
1, 309120, Note_on_c, 0, 90, 70
1, 309120, Note_on_c, 0, 66, 72
1, 309126, Tempo, 595533
1, 309180, Note_on_c, 0, 66, 0
1, 309180, Note_on_c, 0, 90, 0
1, 309180, Note_on_c, 0, 94, 67
1, 309180, Note_on_c, 0, 68, 73
1, 309240, Note_on_c, 0, 68, 0
1, 309240, Note_on_c, 0, 94, 0
1, 309240, Note_on_c, 0, 85, 71
1, 309240, Note_on_c, 0, 70, 74
1, 309286, Tempo, 591133
1, 309300, Note_on_c, 0, 70, 0
1, 309300, Note_on_c, 0, 85, 0
1, 309300, Note_on_c, 0, 92, 67
1, 309300, Note_on_c, 0, 71, 76
1, 309360, Note_on_c, 0, 71, 0
1, 309360, Note_on_c, 0, 92, 0
1, 309360, Note_on_c, 0, 82, 67
1, 309360, Note_on_c, 0, 73, 77
1, 309420, Note_on_c, 0, 82, 0
1, 309420, Note_on_c, 0, 90, 70
1, 309446, Tempo, 586797
1, 309480, Tempo, 670391
1, 309480, Note_on_c, 0, 90, 0
1, 309480, Note_on_c, 0, 73, 0
1, 309480, Note_on_c, 0, 94, 72
1, 309540, Note_on_c, 0, 94, 0
1, 309540, Note_on_c, 0, 97, 75
1, 309600, Tempo, 595533
1, 309600, Note_on_c, 0, 97, 0
1, 309600, Note_on_c, 0, 92, 72
1, 309600, Note_on_c, 0, 65, 67
1, 309606, Tempo, 618557
1, 309626, Control_c, 0, 64, 0
1, 309660, Note_on_c, 0, 65, 0
1, 309660, Note_on_c, 0, 92, 0
1, 309660, Note_on_c, 0, 95, 67
1, 309660, Note_on_c, 0, 66, 69
1, 309666, Control_c, 0, 64, 127
1, 309720, Note_on_c, 0, 66, 0
1, 309720, Note_on_c, 0, 95, 0
1, 309720, Note_on_c, 0, 90, 73
1, 309720, Note_on_c, 0, 68, 70
1, 309750, Tempo, 613811
1, 309780, Note_on_c, 0, 68, 0
1, 309780, Note_on_c, 0, 90, 0
1, 309780, Note_on_c, 0, 94, 67
1, 309780, Note_on_c, 0, 70, 72
1, 309840, Note_on_c, 0, 70, 0
1, 309840, Note_on_c, 0, 94, 0
1, 309840, Note_on_c, 0, 89, 73
1, 309840, Note_on_c, 0, 71, 73
1, 309894, Tempo, 609137
1, 309900, Note_on_c, 0, 71, 0
1, 309900, Note_on_c, 0, 89, 0
1, 309900, Note_on_c, 0, 92, 70
1, 309900, Note_on_c, 0, 73, 75
1, 309960, Note_on_c, 0, 73, 0
1, 309960, Note_on_c, 0, 92, 0
1, 309960, Note_on_c, 0, 85, 74
1, 309960, Note_on_c, 0, 75, 77
1, 310020, Note_on_c, 0, 75, 0
1, 310020, Note_on_c, 0, 85, 0
1, 310020, Note_on_c, 0, 97, 70
1, 310020, Note_on_c, 0, 77, 78
1, 310022, Tempo, 604534
1, 310080, Note_on_c, 0, 77, 0
1, 310080, Note_on_c, 0, 97, 0
1, 310080, Note_on_c, 0, 90, 74
1, 310080, Note_on_c, 0, 78, 80
1, 310140, Note_on_c, 0, 78, 0
1, 310140, Note_on_c, 0, 90, 0
1, 310140, Note_on_c, 0, 92, 70
1, 310140, Note_on_c, 0, 80, 81
1, 310166, Tempo, 600000
1, 310200, Note_on_c, 0, 80, 0
1, 310200, Note_on_c, 0, 92, 0
1, 310200, Note_on_c, 0, 89, 75
1, 310200, Note_on_c, 0, 82, 83
1, 310260, Note_on_c, 0, 82, 0
1, 310260, Note_on_c, 0, 89, 0
1, 310260, Note_on_c, 0, 92, 70
1, 310260, Note_on_c, 0, 84, 85
1, 310310, Tempo, 595533
1, 310320, Note_on_c, 0, 84, 0
1, 310320, Note_on_c, 0, 92, 0
1, 310320, Note_on_c, 0, 90, 75
1, 310320, Note_on_c, 0, 85, 86
1, 310380, Note_on_c, 0, 90, 0
1, 310380, Note_on_c, 0, 94, 72
1, 310440, Tempo, 687679
1, 310440, Note_on_c, 0, 94, 0
1, 310440, Note_on_c, 0, 85, 0
1, 310440, Note_on_c, 0, 85, 76
1, 310500, Note_on_c, 0, 85, 0
1, 310500, Note_on_c, 0, 97, 72
1, 310560, Tempo, 618557
1, 310560, Note_on_c, 0, 97, 0
1, 310560, Note_on_c, 0, 48, 88
1, 310560, Note_on_c, 0, 36, 64
1, 310560, Note_on_c, 0, 44, 64
1, 310560, Note_on_c, 0, 42, 64
1, 310577, Control_c, 0, 64, 0
1, 310620, Note_on_c, 0, 49, 67
1, 310627, Control_c, 0, 64, 127
1, 310680, Note_on_c, 0, 49, 0
1, 310680, Note_on_c, 0, 51, 68
1, 310740, Note_on_c, 0, 51, 0
1, 310740, Note_on_c, 0, 53, 70
1, 310800, Tempo, 648649
1, 310800, Note_on_c, 0, 53, 0
1, 310800, Note_on_c, 0, 44, 0
1, 310800, Note_on_c, 0, 48, 0
1, 310800, Note_on_c, 0, 36, 0
1, 310800, Note_on_c, 0, 42, 0
1, 310800, Note_on_c, 0, 54, 71
1, 310800, Note_on_c, 0, 51, 78
1, 310800, Note_on_c, 0, 39, 57
1, 310800, Note_on_c, 0, 44, 57
1, 310800, Note_on_c, 0, 42, 57
1, 310860, Note_on_c, 0, 54, 0
1, 310860, Note_on_c, 0, 56, 72
1, 310920, Note_on_c, 0, 56, 0
1, 310920, Note_on_c, 0, 58, 74
1, 310980, Note_on_c, 0, 58, 0
1, 310980, Note_on_c, 0, 60, 75
1, 311040, Tempo, 604534
1, 311040, Note_on_c, 0, 60, 0
1, 311040, Note_on_c, 0, 42, 0
1, 311040, Note_on_c, 0, 51, 0
1, 311040, Note_on_c, 0, 39, 0
1, 311040, Note_on_c, 0, 44, 0
1, 311040, Note_on_c, 0, 61, 75
1, 311040, Note_on_c, 0, 51, 85
1, 311040, Note_on_c, 0, 39, 63
1, 311040, Note_on_c, 0, 41, 63
1, 311040, Note_on_c, 0, 44, 63
1, 311045, Control_c, 0, 64, 0
1, 311077, Control_c, 0, 64, 127
1, 311100, Note_on_c, 0, 61, 0
1, 311100, Note_on_c, 0, 65, 76
1, 311160, Note_on_c, 0, 65, 0
1, 311160, Note_on_c, 0, 68, 78
1, 311220, Note_on_c, 0, 68, 0
1, 311220, Note_on_c, 0, 73, 79
1, 311280, Tempo, 659341
1, 311280, Note_on_c, 0, 73, 0
1, 311280, Note_on_c, 0, 44, 0
1, 311280, Note_on_c, 0, 51, 0
1, 311280, Note_on_c, 0, 39, 0
1, 311280, Note_on_c, 0, 41, 0
1, 311280, Note_on_c, 0, 77, 80
1, 311280, Note_on_c, 0, 49, 78
1, 311280, Note_on_c, 0, 37, 57
1, 311280, Note_on_c, 0, 41, 57
1, 311280, Note_on_c, 0, 44, 57
1, 311340, Note_on_c, 0, 77, 0
1, 311340, Note_on_c, 0, 80, 82
1, 311400, Note_on_c, 0, 80, 0
1, 311400, Note_on_c, 0, 85, 83
1, 311460, Note_on_c, 0, 85, 0
1, 311460, Note_on_c, 0, 89, 85
1, 311520, Tempo, 623377
1, 311520, Note_on_c, 0, 89, 0
1, 311520, Note_on_c, 0, 44, 0
1, 311520, Note_on_c, 0, 49, 0
1, 311520, Note_on_c, 0, 37, 0
1, 311520, Note_on_c, 0, 41, 0
1, 311520, Note_on_c, 0, 53, 86
1, 311520, Note_on_c, 0, 41, 64
1, 311520, Note_on_c, 0, 47, 64
1, 311520, Note_on_c, 0, 49, 64
1, 311533, Control_c, 0, 64, 0
1, 311563, Control_c, 0, 64, 127
1, 311580, Note_on_c, 0, 54, 75
1, 311640, Note_on_c, 0, 54, 0
1, 311640, Note_on_c, 0, 56, 76
1, 311700, Note_on_c, 0, 56, 0
1, 311700, Note_on_c, 0, 58, 78
1, 311760, Tempo, 676056
1, 311760, Note_on_c, 0, 58, 0
1, 311760, Note_on_c, 0, 47, 0
1, 311760, Note_on_c, 0, 53, 0
1, 311760, Note_on_c, 0, 41, 0
1, 311760, Note_on_c, 0, 49, 0
1, 311760, Note_on_c, 0, 59, 79
1, 311760, Note_on_c, 0, 56, 78
1, 311760, Note_on_c, 0, 44, 57
1, 311760, Note_on_c, 0, 47, 57
1, 311760, Note_on_c, 0, 49, 57
1, 311820, Note_on_c, 0, 59, 0
1, 311820, Note_on_c, 0, 61, 80
1, 311880, Note_on_c, 0, 61, 0
1, 311880, Note_on_c, 0, 63, 81
1, 311940, Note_on_c, 0, 63, 0
1, 311940, Note_on_c, 0, 65, 82
1, 312000, Tempo, 638298
1, 312000, Note_on_c, 0, 65, 0
1, 312000, Note_on_c, 0, 49, 0
1, 312000, Note_on_c, 0, 56, 0
1, 312000, Note_on_c, 0, 44, 0
1, 312000, Note_on_c, 0, 47, 0
1, 312000, Note_on_c, 0, 66, 83
1, 312000, Note_on_c, 0, 56, 86
1, 312000, Note_on_c, 0, 44, 64
1, 312000, Note_on_c, 0, 46, 64
1, 312000, Note_on_c, 0, 49, 64
1, 312005, Control_c, 0, 64, 0
1, 312046, Control_c, 0, 64, 127
1, 312060, Note_on_c, 0, 66, 0
1, 312060, Note_on_c, 0, 70, 84
1, 312120, Note_on_c, 0, 70, 0
1, 312120, Note_on_c, 0, 73, 86
1, 312180, Note_on_c, 0, 73, 0
1, 312180, Note_on_c, 0, 78, 88
1, 312240, Tempo, 670391
1, 312240, Note_on_c, 0, 78, 0
1, 312240, Note_on_c, 0, 49, 0
1, 312240, Note_on_c, 0, 56, 0
1, 312240, Note_on_c, 0, 44, 0
1, 312240, Note_on_c, 0, 46, 0
1, 312240, Note_on_c, 0, 82, 90
1, 312240, Note_on_c, 0, 54, 81
1, 312240, Note_on_c, 0, 42, 59
1, 312240, Note_on_c, 0, 46, 59
1, 312240, Note_on_c, 0, 49, 59
1, 312300, Note_on_c, 0, 82, 0
1, 312300, Note_on_c, 0, 85, 92
1, 312360, Note_on_c, 0, 85, 0
1, 312360, Note_on_c, 0, 90, 94
1, 312420, Note_on_c, 0, 90, 0
1, 312420, Note_on_c, 0, 92, 95
1, 312480, Tempo, 681818
1, 312480, Note_on_c, 0, 92, 0
1, 312480, Note_on_c, 0, 49, 0
1, 312480, Note_on_c, 0, 54, 0
1, 312480, Note_on_c, 0, 42, 0
1, 312480, Note_on_c, 0, 46, 0
1, 312480, Note_on_c, 0, 82, 97
1, 312480, Note_on_c, 0, 94, 97
1, 312480, Note_on_c, 0, 30, 71
1, 312480, Note_on_c, 0, 42, 98
1, 312484, Control_c, 0, 64, 0
1, 312533, Control_c, 0, 64, 127
1, 312540, Note_on_c, 0, 94, 0
1, 312540, Note_on_c, 0, 82, 0
1, 312600, Note_on_c, 0, 90, 91
1, 312660, Note_on_c, 0, 90, 0
1, 312660, Note_on_c, 0, 92, 94
1, 312720, Note_on_c, 0, 92, 0
1, 312720, Note_on_c, 0, 30, 0
1, 312720, Note_on_c, 0, 42, 0
1, 312720, Note_on_c, 0, 94, 97
1, 312720, Note_on_c, 0, 82, 97
1, 312720, Note_on_c, 0, 70, 93
1, 312720, Note_on_c, 0, 58, 69
1, 312720, Note_on_c, 0, 61, 69
1, 312720, Note_on_c, 0, 66, 69
1, 312780, Note_on_c, 0, 66, 0
1, 312780, Note_on_c, 0, 82, 0
1, 312780, Note_on_c, 0, 70, 0
1, 312780, Note_on_c, 0, 94, 0
1, 312780, Note_on_c, 0, 61, 0
1, 312780, Note_on_c, 0, 58, 0
1, 312840, Note_on_c, 0, 90, 88
1, 312840, Note_on_c, 0, 82, 88
1, 312840, Note_on_c, 0, 70, 88
1, 312840, Note_on_c, 0, 58, 66
1, 312840, Note_on_c, 0, 61, 66
1, 312840, Note_on_c, 0, 66, 66
1, 312900, Note_on_c, 0, 66, 0
1, 312900, Note_on_c, 0, 82, 0
1, 312900, Note_on_c, 0, 70, 0
1, 312900, Note_on_c, 0, 90, 0
1, 312900, Note_on_c, 0, 61, 0
1, 312900, Note_on_c, 0, 58, 0
1, 312960, Tempo, 712166
1, 312960, Note_on_c, 0, 94, 94
1, 312960, Note_on_c, 0, 82, 94
1, 312960, Note_on_c, 0, 70, 95
1, 312960, Note_on_c, 0, 58, 71
1, 312960, Note_on_c, 0, 61, 71
1, 312960, Note_on_c, 0, 66, 71
1, 313020, Note_on_c, 0, 82, 0
1, 313020, Note_on_c, 0, 94, 0
1, 313020, Note_on_c, 0, 92, 89
1, 313080, Note_on_c, 0, 92, 0
1, 313080, Note_on_c, 0, 70, 0
1, 313080, Note_on_c, 0, 58, 0
1, 313080, Note_on_c, 0, 66, 0
1, 313080, Note_on_c, 0, 61, 0
1, 313080, Note_on_c, 0, 90, 89
1, 313140, Note_on_c, 0, 90, 0
1, 313200, Tempo, 681818
1, 313200, Note_on_c, 0, 66, 88
1, 313200, Note_on_c, 0, 61, 74
1, 313200, Note_on_c, 0, 54, 81
1, 313200, Note_on_c, 0, 42, 69
1, 313200, Note_on_c, 0, 49, 69
1, 313210, Control_c, 0, 64, 0
1, 313260, Note_on_c, 0, 49, 0
1, 313260, Note_on_c, 0, 54, 0
1, 313260, Note_on_c, 0, 66, 0
1, 313260, Note_on_c, 0, 61, 0
1, 313260, Note_on_c, 0, 42, 0
1, 313320, Note_on_c, 0, 65, 81
1, 313320, Note_on_c, 0, 61, 69
1, 313320, Note_on_c, 0, 53, 73
1, 313320, Note_on_c, 0, 41, 61
1, 313320, Note_on_c, 0, 49, 61
1, 313380, Note_on_c, 0, 49, 0
1, 313380, Note_on_c, 0, 53, 0
1, 313380, Note_on_c, 0, 65, 0
1, 313380, Note_on_c, 0, 61, 0
1, 313380, Note_on_c, 0, 41, 0
1, 313440, Note_on_c, 0, 65, 89
1, 313440, Note_on_c, 0, 61, 75
1, 313440, Note_on_c, 0, 53, 80
1, 313440, Note_on_c, 0, 41, 67
1, 313440, Note_on_c, 0, 49, 67
1, 313472, Control_c, 0, 64, 127
1, 313800, Tempo, 670391
1, 313800, Note_on_c, 0, 49, 0
1, 313800, Note_on_c, 0, 53, 0
1, 313800, Note_on_c, 0, 65, 0
1, 313800, Note_on_c, 0, 61, 0
1, 313800, Note_on_c, 0, 41, 0
1, 313800, Note_on_c, 0, 87, 90
1, 313800, Control_c, 0, 64, 0
1, 313860, Note_on_c, 0, 87, 0
1, 313860, Note_on_c, 0, 89, 91
1, 313920, Tempo, 643432
1, 313920, Note_on_c, 0, 89, 0
1, 313920, Note_on_c, 0, 78, 93
1, 313920, Note_on_c, 0, 90, 93
1, 313920, Note_on_c, 0, 39, 68
1, 313920, Note_on_c, 0, 51, 94
1, 313973, Control_c, 0, 64, 127
1, 313980, Note_on_c, 0, 90, 0
1, 313980, Note_on_c, 0, 78, 0
1, 314040, Note_on_c, 0, 87, 87
1, 314100, Note_on_c, 0, 87, 0
1, 314100, Note_on_c, 0, 89, 90
1, 314160, Note_on_c, 0, 89, 0
1, 314160, Note_on_c, 0, 39, 0
1, 314160, Note_on_c, 0, 51, 0
1, 314160, Note_on_c, 0, 90, 93
1, 314160, Note_on_c, 0, 78, 93
1, 314160, Note_on_c, 0, 66, 89
1, 314160, Note_on_c, 0, 54, 66
1, 314160, Note_on_c, 0, 58, 66
1, 314160, Note_on_c, 0, 63, 66
1, 314220, Note_on_c, 0, 63, 0
1, 314220, Note_on_c, 0, 78, 0
1, 314220, Note_on_c, 0, 66, 0
1, 314220, Note_on_c, 0, 90, 0
1, 314220, Note_on_c, 0, 58, 0
1, 314220, Note_on_c, 0, 54, 0
1, 314280, Note_on_c, 0, 87, 84
1, 314280, Note_on_c, 0, 78, 84
1, 314280, Note_on_c, 0, 66, 84
1, 314280, Note_on_c, 0, 54, 63
1, 314280, Note_on_c, 0, 58, 63
1, 314280, Note_on_c, 0, 63, 63
1, 314340, Note_on_c, 0, 63, 0
1, 314340, Note_on_c, 0, 78, 0
1, 314340, Note_on_c, 0, 66, 0
1, 314340, Note_on_c, 0, 87, 0
1, 314340, Note_on_c, 0, 58, 0
1, 314340, Note_on_c, 0, 54, 0
1, 314400, Note_on_c, 0, 90, 90
1, 314400, Note_on_c, 0, 78, 90
1, 314400, Note_on_c, 0, 66, 91
1, 314400, Note_on_c, 0, 54, 68
1, 314400, Note_on_c, 0, 58, 68
1, 314400, Note_on_c, 0, 63, 68
1, 314460, Note_on_c, 0, 78, 0
1, 314460, Note_on_c, 0, 90, 0
1, 314460, Note_on_c, 0, 89, 83
1, 314520, Note_on_c, 0, 89, 0
1, 314520, Note_on_c, 0, 66, 0
1, 314520, Note_on_c, 0, 54, 0
1, 314520, Note_on_c, 0, 63, 0
1, 314520, Note_on_c, 0, 58, 0
1, 314520, Note_on_c, 0, 87, 83
1, 314580, Note_on_c, 0, 87, 0
1, 314580, Note_on_c, 0, 86, 83
1, 314640, Tempo, 1008403
1, 314640, Note_on_c, 0, 86, 0
1, 314640, Note_on_c, 0, 87, 90
1, 314669, Control_c, 0, 64, 0
1, 314700, Note_on_c, 0, 87, 0
1, 314760, Tempo, 633245
1, 314760, Note_on_c, 0, 66, 63
1, 314760, Note_on_c, 0, 70, 63
1, 314760, Note_on_c, 0, 58, 53
1, 314760, Note_on_c, 0, 54, 56
1, 314760, Note_on_c, 0, 42, 47
1, 314820, Note_on_c, 0, 58, 0
1, 314820, Note_on_c, 0, 66, 0
1, 314820, Note_on_c, 0, 70, 0
1, 314880, Tempo, 648649
1, 314880, Note_on_c, 0, 54, 0
1, 314880, Note_on_c, 0, 42, 0
1, 314880, Note_on_c, 0, 71, 66
1, 314880, Note_on_c, 0, 66, 66
1, 314880, Note_on_c, 0, 59, 56
1, 314880, Note_on_c, 0, 54, 56
1, 314880, Note_on_c, 0, 47, 47
1, 314940, Note_on_c, 0, 47, 0
1, 314940, Note_on_c, 0, 59, 0
1, 314940, Note_on_c, 0, 71, 0
1, 314940, Note_on_c, 0, 66, 0
1, 314940, Note_on_c, 0, 54, 0
1, 315000, Note_on_c, 0, 72, 68
1, 315000, Note_on_c, 0, 68, 68
1, 315000, Note_on_c, 0, 60, 57
1, 315000, Note_on_c, 0, 56, 59
1, 315000, Note_on_c, 0, 44, 50
1, 315060, Note_on_c, 0, 44, 0
1, 315060, Note_on_c, 0, 60, 0
1, 315060, Note_on_c, 0, 72, 0
1, 315060, Note_on_c, 0, 68, 0
1, 315060, Note_on_c, 0, 56, 0
1, 315120, Note_on_c, 0, 68, 71
1, 315120, Note_on_c, 0, 73, 71
1, 315120, Note_on_c, 0, 61, 60
1, 315120, Note_on_c, 0, 56, 63
1, 315120, Note_on_c, 0, 49, 53
1, 315240, Note_on_c, 0, 49, 0
1, 315240, Note_on_c, 0, 61, 0
1, 315240, Note_on_c, 0, 68, 0
1, 315240, Note_on_c, 0, 73, 0
1, 315240, Note_on_c, 0, 56, 0
1, 315340, Tempo, 638298
1, 315360, Note_on_c, 0, 72, 80
1, 315360, Note_on_c, 0, 60, 68
1, 315360, Note_on_c, 0, 36, 51
1, 315371, Control_c, 0, 64, 0
1, 315406, Control_c, 0, 64, 127
1, 315420, Note_on_c, 0, 36, 0
1, 315420, Note_on_c, 0, 37, 53
1, 315440, Tempo, 633245
1, 315480, Note_on_c, 0, 37, 0
1, 315480, Note_on_c, 0, 68, 62
1, 315480, Note_on_c, 0, 66, 62
1, 315480, Note_on_c, 0, 39, 54
1, 315540, Tempo, 628272
1, 315540, Note_on_c, 0, 39, 0
1, 315540, Note_on_c, 0, 41, 55
1, 315600, Note_on_c, 0, 41, 0
1, 315600, Note_on_c, 0, 66, 0
1, 315600, Note_on_c, 0, 72, 0
1, 315600, Note_on_c, 0, 60, 0
1, 315600, Note_on_c, 0, 68, 0
1, 315600, Note_on_c, 0, 75, 75
1, 315600, Note_on_c, 0, 63, 64
1, 315600, Note_on_c, 0, 42, 57
1, 315640, Tempo, 623377
1, 315660, Note_on_c, 0, 42, 0
1, 315660, Note_on_c, 0, 44, 58
1, 315720, Note_on_c, 0, 44, 0
1, 315720, Note_on_c, 0, 68, 62
1, 315720, Note_on_c, 0, 66, 62
1, 315720, Note_on_c, 0, 46, 59
1, 315740, Tempo, 618557
1, 315780, Note_on_c, 0, 46, 0
1, 315780, Note_on_c, 0, 47, 60
1, 315840, Tempo, 613811
1, 315840, Note_on_c, 0, 47, 0
1, 315840, Note_on_c, 0, 66, 0
1, 315840, Note_on_c, 0, 75, 0
1, 315840, Note_on_c, 0, 63, 0
1, 315840, Note_on_c, 0, 68, 0
1, 315840, Note_on_c, 0, 75, 82
1, 315840, Note_on_c, 0, 63, 70
1, 315840, Note_on_c, 0, 49, 62
1, 315840, Control_c, 0, 64, 0
1, 315877, Control_c, 0, 64, 127
1, 315900, Note_on_c, 0, 49, 0
1, 315900, Note_on_c, 0, 51, 63
1, 315940, Tempo, 609137
1, 315960, Note_on_c, 0, 51, 0
1, 315960, Note_on_c, 0, 68, 64
1, 315960, Note_on_c, 0, 65, 64
1, 315960, Note_on_c, 0, 53, 65
1, 316020, Note_on_c, 0, 53, 0
1, 316020, Note_on_c, 0, 54, 66
1, 316040, Tempo, 604534
1, 316080, Note_on_c, 0, 54, 0
1, 316080, Note_on_c, 0, 65, 0
1, 316080, Note_on_c, 0, 75, 0
1, 316080, Note_on_c, 0, 63, 0
1, 316080, Note_on_c, 0, 68, 0
1, 316080, Note_on_c, 0, 73, 77
1, 316080, Note_on_c, 0, 61, 65
1, 316080, Note_on_c, 0, 56, 67
1, 316140, Tempo, 600000
1, 316200, Tempo, 712166
1, 316200, Note_on_c, 0, 56, 0
1, 316200, Note_on_c, 0, 68, 64
1, 316200, Note_on_c, 0, 65, 64
1, 316320, Tempo, 595533
1, 316320, Note_on_c, 0, 65, 0
1, 316320, Note_on_c, 0, 73, 0
1, 316320, Note_on_c, 0, 61, 0
1, 316320, Note_on_c, 0, 68, 0
1, 316320, Note_on_c, 0, 77, 82
1, 316320, Note_on_c, 0, 65, 70
1, 316320, Note_on_c, 0, 41, 58
1, 316326, Tempo, 613811
1, 316334, Control_c, 0, 64, 0
1, 316377, Control_c, 0, 64, 127
1, 316380, Note_on_c, 0, 41, 0
1, 316380, Note_on_c, 0, 42, 60
1, 316440, Note_on_c, 0, 42, 0
1, 316440, Note_on_c, 0, 71, 63
1, 316440, Note_on_c, 0, 73, 63
1, 316440, Note_on_c, 0, 44, 61
1, 316500, Note_on_c, 0, 44, 0
1, 316500, Note_on_c, 0, 46, 62
1, 316502, Tempo, 609137
1, 316560, Note_on_c, 0, 46, 0
1, 316560, Note_on_c, 0, 73, 0
1, 316560, Note_on_c, 0, 77, 0
1, 316560, Note_on_c, 0, 65, 0
1, 316560, Note_on_c, 0, 71, 0
1, 316560, Note_on_c, 0, 80, 76
1, 316560, Note_on_c, 0, 68, 65
1, 316560, Note_on_c, 0, 47, 63
1, 316620, Note_on_c, 0, 47, 0
1, 316620, Note_on_c, 0, 49, 65
1, 316680, Tempo, 693642
1, 316680, Note_on_c, 0, 49, 0
1, 316680, Note_on_c, 0, 71, 65
1, 316680, Note_on_c, 0, 73, 65
1, 316680, Note_on_c, 0, 51, 66
1, 316740, Note_on_c, 0, 51, 0
1, 316740, Note_on_c, 0, 53, 67
1, 316800, Tempo, 604534
1, 316800, Note_on_c, 0, 53, 0
1, 316800, Note_on_c, 0, 73, 0
1, 316800, Note_on_c, 0, 80, 0
1, 316800, Note_on_c, 0, 68, 0
1, 316800, Note_on_c, 0, 71, 0
1, 316800, Note_on_c, 0, 80, 85
1, 316800, Note_on_c, 0, 68, 71
1, 316800, Note_on_c, 0, 54, 68
1, 316815, Control_c, 0, 64, 0
1, 316822, Tempo, 600000
1, 316843, Control_c, 0, 64, 127
1, 316860, Note_on_c, 0, 54, 0
1, 316860, Note_on_c, 0, 56, 70
1, 316920, Note_on_c, 0, 56, 0
1, 316920, Note_on_c, 0, 70, 64
1, 316920, Note_on_c, 0, 73, 64
1, 316920, Note_on_c, 0, 58, 71
1, 316980, Note_on_c, 0, 58, 0
1, 316980, Note_on_c, 0, 59, 72
1, 316982, Tempo, 595533
1, 317040, Note_on_c, 0, 59, 0
1, 317040, Note_on_c, 0, 73, 0
1, 317040, Note_on_c, 0, 80, 0
1, 317040, Note_on_c, 0, 68, 0
1, 317040, Note_on_c, 0, 70, 0
1, 317040, Note_on_c, 0, 78, 80
1, 317040, Note_on_c, 0, 66, 68
1, 317040, Note_on_c, 0, 61, 73
1, 317100, Tempo, 676056
1, 317160, Note_on_c, 0, 61, 0
1, 317160, Note_on_c, 0, 70, 62
1, 317160, Note_on_c, 0, 73, 62
1, 317280, Tempo, 638298
1, 317280, Note_on_c, 0, 73, 0
1, 317280, Note_on_c, 0, 78, 0
1, 317280, Note_on_c, 0, 66, 0
1, 317280, Note_on_c, 0, 70, 0
1, 317280, Note_on_c, 0, 70, 97
1, 317280, Note_on_c, 0, 82, 97
1, 317280, Note_on_c, 0, 30, 71
1, 317280, Note_on_c, 0, 42, 98
1, 317300, Control_c, 0, 64, 0
1, 317333, Control_c, 0, 64, 127
1, 317340, Note_on_c, 0, 82, 0
1, 317340, Note_on_c, 0, 70, 0
1, 317400, Note_on_c, 0, 78, 91
1, 317460, Note_on_c, 0, 78, 0
1, 317460, Note_on_c, 0, 80, 94
1, 317520, Tempo, 699708
1, 317520, Note_on_c, 0, 80, 0
1, 317520, Note_on_c, 0, 30, 0
1, 317520, Note_on_c, 0, 42, 0
1, 317520, Note_on_c, 0, 82, 97
1, 317520, Note_on_c, 0, 70, 97
1, 317520, Note_on_c, 0, 61, 93
1, 317520, Note_on_c, 0, 49, 69
1, 317520, Note_on_c, 0, 54, 69
1, 317520, Note_on_c, 0, 58, 69
1, 317580, Note_on_c, 0, 58, 0
1, 317580, Note_on_c, 0, 70, 0
1, 317580, Note_on_c, 0, 61, 0
1, 317580, Note_on_c, 0, 82, 0
1, 317580, Note_on_c, 0, 54, 0
1, 317580, Note_on_c, 0, 49, 0
1, 317640, Note_on_c, 0, 78, 88
1, 317640, Note_on_c, 0, 70, 88
1, 317640, Note_on_c, 0, 61, 88
1, 317640, Note_on_c, 0, 49, 66
1, 317640, Note_on_c, 0, 54, 66
1, 317640, Note_on_c, 0, 58, 66
1, 317700, Note_on_c, 0, 58, 0
1, 317700, Note_on_c, 0, 70, 0
1, 317700, Note_on_c, 0, 61, 0
1, 317700, Note_on_c, 0, 78, 0
1, 317700, Note_on_c, 0, 54, 0
1, 317700, Note_on_c, 0, 49, 0
1, 317760, Tempo, 705882
1, 317760, Note_on_c, 0, 82, 94
1, 317760, Note_on_c, 0, 70, 94
1, 317760, Note_on_c, 0, 61, 95
1, 317760, Note_on_c, 0, 49, 71
1, 317760, Note_on_c, 0, 54, 71
1, 317760, Note_on_c, 0, 58, 71
1, 317820, Note_on_c, 0, 70, 0
1, 317820, Note_on_c, 0, 82, 0
1, 317820, Note_on_c, 0, 80, 89
1, 317880, Note_on_c, 0, 80, 0
1, 317880, Note_on_c, 0, 61, 0
1, 317880, Note_on_c, 0, 49, 0
1, 317880, Note_on_c, 0, 58, 0
1, 317880, Note_on_c, 0, 54, 0
1, 317880, Note_on_c, 0, 78, 89
1, 317940, Note_on_c, 0, 78, 0
1, 318000, Tempo, 670391
1, 318000, Note_on_c, 0, 58, 74
1, 318000, Note_on_c, 0, 66, 88
1, 318000, Note_on_c, 0, 61, 74
1, 318000, Note_on_c, 0, 54, 81
1, 318000, Note_on_c, 0, 46, 69
1, 318000, Note_on_c, 0, 49, 69
1, 318010, Control_c, 0, 64, 0
1, 318060, Note_on_c, 0, 49, 0
1, 318060, Note_on_c, 0, 66, 0
1, 318060, Note_on_c, 0, 61, 0
1, 318060, Note_on_c, 0, 58, 0
1, 318060, Note_on_c, 0, 46, 0
1, 318060, Note_on_c, 0, 54, 0
1, 318120, Note_on_c, 0, 57, 69
1, 318120, Note_on_c, 0, 65, 81
1, 318120, Note_on_c, 0, 60, 69
1, 318120, Note_on_c, 0, 53, 73
1, 318120, Note_on_c, 0, 45, 61
1, 318120, Note_on_c, 0, 48, 61
1, 318180, Note_on_c, 0, 48, 0
1, 318180, Note_on_c, 0, 65, 0
1, 318180, Note_on_c, 0, 60, 0
1, 318180, Note_on_c, 0, 57, 0
1, 318180, Note_on_c, 0, 45, 0
1, 318180, Note_on_c, 0, 53, 0
1, 318240, Note_on_c, 0, 57, 75
1, 318240, Note_on_c, 0, 65, 89
1, 318240, Note_on_c, 0, 60, 75
1, 318240, Note_on_c, 0, 53, 80
1, 318240, Note_on_c, 0, 45, 67
1, 318240, Note_on_c, 0, 48, 67
1, 318272, Control_c, 0, 64, 127
1, 318600, Tempo, 670391
1, 318600, Note_on_c, 0, 48, 0
1, 318600, Note_on_c, 0, 65, 0
1, 318600, Note_on_c, 0, 60, 0
1, 318600, Note_on_c, 0, 57, 0
1, 318600, Note_on_c, 0, 45, 0
1, 318600, Note_on_c, 0, 53, 0
1, 318600, Note_on_c, 0, 75, 90
1, 318600, Control_c, 0, 64, 0
1, 318660, Note_on_c, 0, 75, 0
1, 318660, Note_on_c, 0, 77, 91
1, 318720, Tempo, 676056
1, 318720, Note_on_c, 0, 77, 0
1, 318720, Note_on_c, 0, 66, 93
1, 318720, Note_on_c, 0, 78, 93
1, 318720, Note_on_c, 0, 27, 76
1, 318720, Note_on_c, 0, 39, 94
1, 318773, Control_c, 0, 64, 127
1, 318780, Note_on_c, 0, 78, 0
1, 318780, Note_on_c, 0, 66, 0
1, 318840, Note_on_c, 0, 75, 87
1, 318900, Note_on_c, 0, 75, 0
1, 318900, Note_on_c, 0, 77, 90
1, 318960, Tempo, 628272
1, 318960, Note_on_c, 0, 77, 0
1, 318960, Note_on_c, 0, 27, 0
1, 318960, Note_on_c, 0, 39, 0
1, 318960, Note_on_c, 0, 78, 93
1, 318960, Note_on_c, 0, 66, 93
1, 318960, Note_on_c, 0, 58, 89
1, 318960, Note_on_c, 0, 46, 66
1, 318960, Note_on_c, 0, 51, 66
1, 318960, Note_on_c, 0, 54, 66
1, 319020, Note_on_c, 0, 54, 0
1, 319020, Note_on_c, 0, 66, 0
1, 319020, Note_on_c, 0, 58, 0
1, 319020, Note_on_c, 0, 78, 0
1, 319020, Note_on_c, 0, 51, 0
1, 319020, Note_on_c, 0, 46, 0
1, 319080, Note_on_c, 0, 75, 84
1, 319080, Note_on_c, 0, 66, 84
1, 319080, Note_on_c, 0, 58, 84
1, 319080, Note_on_c, 0, 46, 63
1, 319080, Note_on_c, 0, 51, 63
1, 319080, Note_on_c, 0, 54, 63
1, 319140, Note_on_c, 0, 54, 0
1, 319140, Note_on_c, 0, 66, 0
1, 319140, Note_on_c, 0, 58, 0
1, 319140, Note_on_c, 0, 75, 0
1, 319140, Note_on_c, 0, 51, 0
1, 319140, Note_on_c, 0, 46, 0
1, 319200, Note_on_c, 0, 78, 90
1, 319200, Note_on_c, 0, 66, 90
1, 319200, Note_on_c, 0, 58, 91
1, 319200, Note_on_c, 0, 46, 68
1, 319200, Note_on_c, 0, 51, 68
1, 319200, Note_on_c, 0, 54, 68
1, 319260, Note_on_c, 0, 66, 0
1, 319260, Note_on_c, 0, 78, 0
1, 319260, Note_on_c, 0, 77, 83
1, 319320, Note_on_c, 0, 77, 0
1, 319320, Note_on_c, 0, 58, 0
1, 319320, Note_on_c, 0, 46, 0
1, 319320, Note_on_c, 0, 54, 0
1, 319320, Note_on_c, 0, 51, 0
1, 319320, Note_on_c, 0, 75, 83
1, 319380, Note_on_c, 0, 75, 0
1, 319380, Note_on_c, 0, 74, 83
1, 319440, Tempo, 745342
1, 319440, Note_on_c, 0, 74, 0
1, 319440, Note_on_c, 0, 75, 90
1, 319469, Control_c, 0, 64, 0
1, 319500, Note_on_c, 0, 75, 0
1, 319680, Tempo, 699708
1, 319798, Tempo, 638298
1, 319800, Note_on_c, 0, 66, 55
1, 319800, Note_on_c, 0, 54, 46
1, 319800, Note_on_c, 0, 58, 46
1, 319800, Note_on_c, 0, 42, 48
1, 319800, Note_on_c, 0, 30, 40
1, 319860, Note_on_c, 0, 30, 0
1, 319860, Note_on_c, 0, 58, 0
1, 319860, Note_on_c, 0, 66, 0
1, 319860, Note_on_c, 0, 54, 0
1, 319860, Note_on_c, 0, 42, 0
1, 319898, Tempo, 633245
1, 319920, Note_on_c, 0, 66, 58
1, 319920, Note_on_c, 0, 54, 49
1, 319920, Note_on_c, 0, 59, 49
1, 319920, Note_on_c, 0, 47, 51
1, 319920, Note_on_c, 0, 35, 43
1, 319978, Tempo, 628272
1, 319980, Note_on_c, 0, 35, 0
1, 319980, Note_on_c, 0, 59, 0
1, 319980, Note_on_c, 0, 66, 0
1, 319980, Note_on_c, 0, 54, 0
1, 319980, Note_on_c, 0, 47, 0
1, 320040, Note_on_c, 0, 68, 60
1, 320040, Note_on_c, 0, 56, 51
1, 320040, Note_on_c, 0, 60, 51
1, 320040, Note_on_c, 0, 44, 54
1, 320040, Note_on_c, 0, 32, 45
1, 320078, Tempo, 623377
1, 320100, Note_on_c, 0, 32, 0
1, 320100, Note_on_c, 0, 60, 0
1, 320100, Note_on_c, 0, 68, 0
1, 320100, Note_on_c, 0, 56, 0
1, 320100, Note_on_c, 0, 44, 0
1, 320158, Tempo, 659341
1, 320160, Tempo, 648649
1, 320160, Note_on_c, 0, 68, 65
1, 320160, Note_on_c, 0, 56, 55
1, 320160, Note_on_c, 0, 61, 55
1, 320160, Note_on_c, 0, 49, 56
1, 320160, Note_on_c, 0, 37, 47
1, 320210, Tempo, 638298
1, 320220, Note_on_c, 0, 37, 0
1, 320220, Note_on_c, 0, 61, 0
1, 320220, Note_on_c, 0, 68, 0
1, 320220, Note_on_c, 0, 56, 0
1, 320220, Note_on_c, 0, 49, 0
1, 320230, Tempo, 623377
1, 320280, Note_on_c, 0, 66, 59
1, 320280, Note_on_c, 0, 70, 59
1, 320280, Note_on_c, 0, 58, 50
1, 320280, Note_on_c, 0, 42, 52
1, 320280, Note_on_c, 0, 30, 44
1, 320330, Tempo, 618557
1, 320340, Note_on_c, 0, 30, 0
1, 320340, Note_on_c, 0, 58, 0
1, 320340, Note_on_c, 0, 66, 0
1, 320340, Note_on_c, 0, 70, 0
1, 320340, Note_on_c, 0, 42, 0
1, 320400, Note_on_c, 0, 71, 63
1, 320400, Note_on_c, 0, 59, 53
1, 320400, Note_on_c, 0, 66, 53
1, 320400, Note_on_c, 0, 47, 55
1, 320400, Note_on_c, 0, 35, 46
1, 320410, Tempo, 613811
1, 320460, Note_on_c, 0, 35, 0
1, 320460, Note_on_c, 0, 66, 0
1, 320460, Note_on_c, 0, 71, 0
1, 320460, Note_on_c, 0, 59, 0
1, 320460, Note_on_c, 0, 47, 0
1, 320490, Tempo, 609137
1, 320520, Note_on_c, 0, 72, 67
1, 320520, Note_on_c, 0, 60, 56
1, 320520, Note_on_c, 0, 68, 56
1, 320520, Note_on_c, 0, 44, 58
1, 320520, Note_on_c, 0, 32, 49
1, 320570, Tempo, 604534
1, 320580, Note_on_c, 0, 32, 0
1, 320580, Note_on_c, 0, 68, 0
1, 320580, Note_on_c, 0, 72, 0
1, 320580, Note_on_c, 0, 60, 0
1, 320580, Note_on_c, 0, 44, 0
1, 320610, Tempo, 600000
1, 320640, Tempo, 653951
1, 320640, Note_on_c, 0, 73, 70
1, 320640, Note_on_c, 0, 61, 59
1, 320640, Note_on_c, 0, 68, 59
1, 320640, Note_on_c, 0, 49, 61
1, 320640, Note_on_c, 0, 37, 51
1, 320700, Note_on_c, 0, 37, 0
1, 320700, Note_on_c, 0, 68, 0
1, 320700, Note_on_c, 0, 73, 0
1, 320700, Note_on_c, 0, 61, 0
1, 320700, Note_on_c, 0, 49, 0
1, 320710, Tempo, 613811
1, 320760, Note_on_c, 0, 78, 63
1, 320760, Note_on_c, 0, 66, 52
1, 320760, Note_on_c, 0, 70, 52
1, 320760, Note_on_c, 0, 42, 52
1, 320760, Note_on_c, 0, 30, 44
1, 320790, Tempo, 609137
1, 320820, Note_on_c, 0, 30, 0
1, 320820, Note_on_c, 0, 70, 0
1, 320820, Note_on_c, 0, 78, 0
1, 320820, Note_on_c, 0, 66, 0
1, 320820, Note_on_c, 0, 42, 0
1, 320850, Tempo, 604534
1, 320880, Note_on_c, 0, 78, 66
1, 320880, Note_on_c, 0, 66, 55
1, 320880, Note_on_c, 0, 71, 55
1, 320880, Note_on_c, 0, 47, 56
1, 320880, Note_on_c, 0, 35, 47
1, 320930, Tempo, 600000
1, 320940, Note_on_c, 0, 35, 0
1, 320940, Note_on_c, 0, 71, 0
1, 320940, Note_on_c, 0, 78, 0
1, 320940, Note_on_c, 0, 66, 0
1, 320940, Note_on_c, 0, 47, 0
1, 320990, Tempo, 595533
1, 321000, Note_on_c, 0, 80, 69
1, 321000, Note_on_c, 0, 68, 58
1, 321000, Note_on_c, 0, 72, 58
1, 321000, Note_on_c, 0, 44, 59
1, 321000, Note_on_c, 0, 32, 49
1, 321050, Tempo, 591133
1, 321060, Note_on_c, 0, 32, 0
1, 321060, Note_on_c, 0, 72, 0
1, 321060, Note_on_c, 0, 80, 0
1, 321060, Note_on_c, 0, 68, 0
1, 321060, Note_on_c, 0, 44, 0
1, 321090, Tempo, 582524
1, 321118, Tempo, 659341
1, 321120, Tempo, 628272
1, 321120, Note_on_c, 0, 80, 74
1, 321120, Note_on_c, 0, 68, 63
1, 321120, Note_on_c, 0, 73, 63
1, 321120, Note_on_c, 0, 49, 61
1, 321120, Note_on_c, 0, 37, 51
1, 321178, Tempo, 653951
1, 321180, Note_on_c, 0, 37, 0
1, 321180, Note_on_c, 0, 73, 0
1, 321180, Note_on_c, 0, 80, 0
1, 321180, Note_on_c, 0, 68, 0
1, 321180, Note_on_c, 0, 49, 0
1, 321190, Tempo, 604534
1, 321240, Note_on_c, 0, 78, 67
1, 321240, Note_on_c, 0, 82, 67
1, 321240, Note_on_c, 0, 70, 57
1, 321240, Note_on_c, 0, 42, 57
1, 321240, Note_on_c, 0, 30, 48
1, 321300, Note_on_c, 0, 30, 0
1, 321300, Note_on_c, 0, 70, 0
1, 321300, Note_on_c, 0, 78, 0
1, 321300, Note_on_c, 0, 82, 0
1, 321300, Note_on_c, 0, 42, 0
1, 321350, Tempo, 600000
1, 321360, Note_on_c, 0, 83, 72
1, 321360, Note_on_c, 0, 71, 60
1, 321360, Note_on_c, 0, 78, 60
1, 321360, Note_on_c, 0, 47, 60
1, 321360, Note_on_c, 0, 35, 50
1, 321420, Note_on_c, 0, 35, 0
1, 321420, Note_on_c, 0, 78, 0
1, 321420, Note_on_c, 0, 83, 0
1, 321420, Note_on_c, 0, 71, 0
1, 321420, Note_on_c, 0, 47, 0
1, 321480, Note_on_c, 0, 84, 76
1, 321480, Note_on_c, 0, 72, 64
1, 321480, Note_on_c, 0, 80, 64
1, 321480, Note_on_c, 0, 44, 63
1, 321480, Note_on_c, 0, 32, 53
1, 321510, Tempo, 595533
1, 321540, Note_on_c, 0, 32, 0
1, 321540, Note_on_c, 0, 80, 0
1, 321540, Note_on_c, 0, 84, 0
1, 321540, Note_on_c, 0, 72, 0
1, 321540, Note_on_c, 0, 44, 0
1, 321550, Tempo, 586797
1, 321578, Tempo, 618557
1, 321600, Tempo, 609137
1, 321600, Note_on_c, 0, 85, 80
1, 321600, Note_on_c, 0, 73, 67
1, 321600, Note_on_c, 0, 80, 67
1, 321600, Note_on_c, 0, 49, 69
1, 321600, Note_on_c, 0, 37, 69
1, 321660, Note_on_c, 0, 37, 0
1, 321660, Note_on_c, 0, 80, 0
1, 321660, Note_on_c, 0, 85, 0
1, 321660, Note_on_c, 0, 73, 0
1, 321660, Note_on_c, 0, 49, 0
1, 321720, Tempo, 600000
1, 321720, Note_on_c, 0, 90, 73
1, 321720, Note_on_c, 0, 78, 62
1, 321720, Note_on_c, 0, 82, 62
1, 321720, Note_on_c, 0, 42, 65
1, 321720, Note_on_c, 0, 30, 55
1, 321780, Note_on_c, 0, 30, 0
1, 321780, Note_on_c, 0, 82, 0
1, 321780, Note_on_c, 0, 90, 0
1, 321780, Note_on_c, 0, 78, 0
1, 321780, Note_on_c, 0, 42, 0
1, 321798, Tempo, 591133
1, 321840, Note_on_c, 0, 90, 75
1, 321840, Note_on_c, 0, 78, 63
1, 321840, Note_on_c, 0, 83, 63
1, 321840, Note_on_c, 0, 47, 65
1, 321840, Note_on_c, 0, 35, 55
1, 321900, Note_on_c, 0, 35, 0
1, 321900, Note_on_c, 0, 83, 0
1, 321900, Note_on_c, 0, 90, 0
1, 321900, Note_on_c, 0, 78, 0
1, 321900, Note_on_c, 0, 47, 0
1, 321960, Note_on_c, 0, 92, 77
1, 321960, Note_on_c, 0, 80, 65
1, 321960, Note_on_c, 0, 84, 65
1, 321960, Note_on_c, 0, 44, 65
1, 321960, Note_on_c, 0, 32, 55
1, 322020, Note_on_c, 0, 32, 0
1, 322020, Note_on_c, 0, 84, 0
1, 322020, Note_on_c, 0, 92, 0
1, 322020, Note_on_c, 0, 80, 0
1, 322020, Note_on_c, 0, 44, 0
1, 322080, Note_on_c, 0, 92, 78
1, 322080, Note_on_c, 0, 80, 66
1, 322080, Note_on_c, 0, 85, 66
1, 322080, Note_on_c, 0, 49, 70
1, 322080, Note_on_c, 0, 37, 59
1, 322098, Tempo, 595533
1, 322140, Note_on_c, 0, 37, 0
1, 322140, Note_on_c, 0, 85, 0
1, 322140, Note_on_c, 0, 92, 0
1, 322140, Note_on_c, 0, 80, 0
1, 322140, Note_on_c, 0, 49, 0
1, 322200, Note_on_c, 0, 92, 80
1, 322200, Note_on_c, 0, 80, 68
1, 322200, Note_on_c, 0, 84, 68
1, 322200, Note_on_c, 0, 44, 63
1, 322200, Note_on_c, 0, 32, 53
1, 322260, Note_on_c, 0, 32, 0
1, 322260, Note_on_c, 0, 84, 0
1, 322260, Note_on_c, 0, 92, 0
1, 322260, Note_on_c, 0, 80, 0
1, 322260, Note_on_c, 0, 44, 0
1, 322320, Note_on_c, 0, 92, 82
1, 322320, Note_on_c, 0, 80, 69
1, 322320, Note_on_c, 0, 85, 69
1, 322320, Note_on_c, 0, 49, 63
1, 322320, Note_on_c, 0, 37, 53
1, 322338, Tempo, 600000
1, 322380, Note_on_c, 0, 37, 0
1, 322380, Note_on_c, 0, 85, 0
1, 322380, Note_on_c, 0, 92, 0
1, 322380, Note_on_c, 0, 80, 0
1, 322380, Note_on_c, 0, 49, 0
1, 322440, Note_on_c, 0, 92, 84
1, 322440, Note_on_c, 0, 80, 71
1, 322440, Note_on_c, 0, 84, 71
1, 322440, Note_on_c, 0, 44, 63
1, 322440, Note_on_c, 0, 32, 53
1, 322500, Note_on_c, 0, 32, 0
1, 322500, Note_on_c, 0, 84, 0
1, 322500, Note_on_c, 0, 92, 0
1, 322500, Note_on_c, 0, 80, 0
1, 322500, Note_on_c, 0, 44, 0
1, 322558, Tempo, 604534
1, 322560, Note_on_c, 0, 92, 88
1, 322560, Note_on_c, 0, 80, 74
1, 322560, Note_on_c, 0, 85, 74
1, 322560, Note_on_c, 0, 49, 72
1, 322560, Note_on_c, 0, 37, 61
1, 322560, Control_c, 0, 64, 127
1, 322620, Note_on_c, 0, 37, 0
1, 322620, Note_on_c, 0, 85, 0
1, 322620, Note_on_c, 0, 92, 0
1, 322620, Note_on_c, 0, 80, 0
1, 322620, Note_on_c, 0, 49, 0
1, 322680, Note_on_c, 0, 92, 81
1, 322680, Note_on_c, 0, 80, 68
1, 322680, Note_on_c, 0, 84, 68
1, 322680, Note_on_c, 0, 44, 69
1, 322680, Note_on_c, 0, 32, 58
1, 322740, Note_on_c, 0, 32, 0
1, 322740, Note_on_c, 0, 84, 0
1, 322740, Note_on_c, 0, 92, 0
1, 322740, Note_on_c, 0, 80, 0
1, 322740, Note_on_c, 0, 44, 0
1, 322798, Tempo, 582524
1, 322800, Note_on_c, 0, 92, 83
1, 322800, Note_on_c, 0, 80, 70
1, 322800, Note_on_c, 0, 85, 70
1, 322800, Note_on_c, 0, 49, 71
1, 322800, Note_on_c, 0, 37, 59
1, 322818, Tempo, 604534
1, 322860, Note_on_c, 0, 37, 0
1, 322860, Note_on_c, 0, 85, 0
1, 322860, Note_on_c, 0, 92, 0
1, 322860, Note_on_c, 0, 80, 0
1, 322860, Note_on_c, 0, 49, 0
1, 322920, Note_on_c, 0, 92, 85
1, 322920, Note_on_c, 0, 80, 71
1, 322920, Note_on_c, 0, 84, 71
1, 322920, Note_on_c, 0, 44, 72
1, 322920, Note_on_c, 0, 32, 60
1, 322980, Note_on_c, 0, 32, 0
1, 322980, Note_on_c, 0, 84, 0
1, 322980, Note_on_c, 0, 92, 0
1, 322980, Note_on_c, 0, 80, 0
1, 322980, Note_on_c, 0, 44, 0
1, 323040, Note_on_c, 0, 92, 95
1, 323040, Note_on_c, 0, 80, 80
1, 323040, Note_on_c, 0, 85, 80
1, 323040, Note_on_c, 0, 49, 78
1, 323040, Note_on_c, 0, 37, 66
1, 323050, Tempo, 600000
1, 323070, Tempo, 604534
1, 323090, Tempo, 613811
1, 323100, Note_on_c, 0, 37, 0
1, 323100, Note_on_c, 0, 85, 0
1, 323100, Note_on_c, 0, 92, 0
1, 323100, Note_on_c, 0, 80, 0
1, 323100, Note_on_c, 0, 49, 0
1, 323110, Tempo, 623377
1, 323130, Tempo, 633245
1, 323150, Tempo, 638298
1, 323160, Note_on_c, 0, 92, 90
1, 323160, Note_on_c, 0, 80, 76
1, 323160, Note_on_c, 0, 84, 76
1, 323160, Note_on_c, 0, 44, 76
1, 323160, Note_on_c, 0, 32, 64
1, 323170, Tempo, 648649
1, 323190, Tempo, 659341
1, 323210, Tempo, 670391
1, 323220, Note_on_c, 0, 32, 0
1, 323220, Note_on_c, 0, 84, 0
1, 323220, Note_on_c, 0, 92, 0
1, 323220, Note_on_c, 0, 80, 0
1, 323220, Note_on_c, 0, 44, 0
1, 323230, Tempo, 676056
1, 323250, Tempo, 687679
1, 323270, Tempo, 699708
1, 323280, Note_on_c, 0, 92, 92
1, 323280, Note_on_c, 0, 80, 77
1, 323280, Note_on_c, 0, 85, 77
1, 323280, Note_on_c, 0, 49, 77
1, 323280, Note_on_c, 0, 37, 65
1, 323290, Tempo, 712166
1, 323310, Tempo, 725076
1, 323330, Tempo, 731707
1, 323340, Note_on_c, 0, 37, 0
1, 323340, Note_on_c, 0, 85, 0
1, 323340, Note_on_c, 0, 92, 0
1, 323340, Note_on_c, 0, 80, 0
1, 323340, Note_on_c, 0, 49, 0
1, 323350, Tempo, 745342
1, 323370, Tempo, 759494
1, 323390, Tempo, 774194
1, 323400, Note_on_c, 0, 92, 94
1, 323400, Note_on_c, 0, 80, 80
1, 323400, Note_on_c, 0, 84, 80
1, 323400, Note_on_c, 0, 44, 79
1, 323400, Note_on_c, 0, 32, 66
1, 323410, Tempo, 781759
1, 323430, Tempo, 797342
1, 323450, Tempo, 813559
1, 323460, Note_on_c, 0, 32, 0
1, 323460, Note_on_c, 0, 84, 0
1, 323460, Note_on_c, 0, 92, 0
1, 323460, Note_on_c, 0, 80, 0
1, 323460, Note_on_c, 0, 44, 0
1, 323470, Tempo, 830450
1, 323490, Tempo, 848057
1, 323498, Tempo, 866426
1, 323518, Tempo, 885609
1, 323520, Tempo, 1137441
1, 323520, Note_on_c, 0, 92, 106
1, 323520, Note_on_c, 0, 80, 90
1, 323520, Note_on_c, 0, 85, 90
1, 323520, Note_on_c, 0, 49, 85
1, 323520, Note_on_c, 0, 37, 71
1, 323520, Control_c, 0, 64, 0
1, 323580, Note_on_c, 0, 37, 0
1, 323580, Note_on_c, 0, 85, 0
1, 323580, Note_on_c, 0, 92, 0
1, 323580, Note_on_c, 0, 80, 0
1, 323580, Note_on_c, 0, 49, 0
1, 323618, Tempo, 478088
1, 323630, Tempo, 446097
1, 323640, Note_on_c, 0, 80, 72
1, 323640, Note_on_c, 0, 68, 60
1, 323640, Note_on_c, 0, 73, 60
1, 323659, Control_c, 0, 64, 127
1, 323700, Note_on_c, 0, 73, 0
1, 323700, Note_on_c, 0, 68, 0
1, 323700, Note_on_c, 0, 80, 0
1, 323700, Note_on_c, 0, 67, 63
1, 323700, Note_on_c, 0, 65, 53
1, 323730, Tempo, 443623
1, 323760, Note_on_c, 0, 65, 0
1, 323760, Note_on_c, 0, 67, 0
1, 323760, Note_on_c, 0, 82, 78
1, 323760, Note_on_c, 0, 70, 66
1, 323760, Note_on_c, 0, 73, 66
1, 323810, Tempo, 441176
1, 323820, Note_on_c, 0, 73, 0
1, 323820, Note_on_c, 0, 70, 0
1, 323820, Note_on_c, 0, 82, 0
1, 323820, Note_on_c, 0, 65, 63
1, 323820, Note_on_c, 0, 61, 53
1, 323880, Note_on_c, 0, 61, 0
1, 323880, Note_on_c, 0, 65, 0
1, 323880, Note_on_c, 0, 80, 71
1, 323880, Note_on_c, 0, 68, 59
1, 323880, Note_on_c, 0, 73, 59
1, 323890, Tempo, 438757
1, 323940, Note_on_c, 0, 73, 0
1, 323940, Note_on_c, 0, 68, 0
1, 323940, Note_on_c, 0, 80, 0
1, 323940, Note_on_c, 0, 67, 64
1, 323940, Note_on_c, 0, 65, 54
1, 323970, Tempo, 436364
1, 324000, Note_on_c, 0, 65, 0
1, 324000, Note_on_c, 0, 67, 0
1, 324000, Note_on_c, 0, 82, 77
1, 324000, Note_on_c, 0, 70, 66
1, 324000, Note_on_c, 0, 73, 66
1, 324050, Tempo, 433996
1, 324060, Note_on_c, 0, 73, 0
1, 324060, Note_on_c, 0, 70, 0
1, 324060, Note_on_c, 0, 82, 0
1, 324060, Note_on_c, 0, 65, 65
1, 324060, Note_on_c, 0, 61, 54
1, 324120, Note_on_c, 0, 61, 0
1, 324120, Note_on_c, 0, 65, 0
1, 324120, Note_on_c, 0, 80, 74
1, 324120, Note_on_c, 0, 68, 61
1, 324120, Note_on_c, 0, 73, 61
1, 324150, Tempo, 431655
1, 324180, Note_on_c, 0, 73, 0
1, 324180, Note_on_c, 0, 68, 0
1, 324180, Note_on_c, 0, 80, 0
1, 324180, Note_on_c, 0, 67, 65
1, 324180, Note_on_c, 0, 65, 55
1, 324230, Tempo, 429338
1, 324240, Note_on_c, 0, 65, 0
1, 324240, Note_on_c, 0, 67, 0
1, 324240, Note_on_c, 0, 82, 80
1, 324240, Note_on_c, 0, 70, 67
1, 324240, Note_on_c, 0, 73, 67
1, 324300, Note_on_c, 0, 73, 0
1, 324300, Note_on_c, 0, 70, 0
1, 324300, Note_on_c, 0, 82, 0
1, 324300, Note_on_c, 0, 65, 67
1, 324300, Note_on_c, 0, 61, 56
1, 324310, Tempo, 427046
1, 324360, Note_on_c, 0, 61, 0
1, 324360, Note_on_c, 0, 65, 0
1, 324360, Note_on_c, 0, 80, 73
1, 324360, Note_on_c, 0, 68, 61
1, 324360, Note_on_c, 0, 73, 61
1, 324390, Tempo, 424779
1, 324420, Note_on_c, 0, 73, 0
1, 324420, Note_on_c, 0, 68, 0
1, 324420, Note_on_c, 0, 80, 0
1, 324420, Note_on_c, 0, 67, 67
1, 324420, Note_on_c, 0, 65, 56
1, 324470, Tempo, 422535
1, 324480, Note_on_c, 0, 65, 0
1, 324480, Note_on_c, 0, 67, 0
1, 324480, Note_on_c, 0, 82, 81
1, 324480, Note_on_c, 0, 70, 68
1, 324480, Note_on_c, 0, 73, 68
1, 324530, Tempo, 424779
1, 324540, Note_on_c, 0, 73, 0
1, 324540, Note_on_c, 0, 70, 0
1, 324540, Note_on_c, 0, 82, 0
1, 324540, Note_on_c, 0, 65, 68
1, 324540, Note_on_c, 0, 61, 57
1, 324570, Tempo, 427046
1, 324600, Note_on_c, 0, 61, 0
1, 324600, Note_on_c, 0, 65, 0
1, 324600, Note_on_c, 0, 80, 75
1, 324600, Note_on_c, 0, 68, 62
1, 324600, Note_on_c, 0, 73, 62
1, 324610, Tempo, 429338
1, 324650, Tempo, 431655
1, 324660, Note_on_c, 0, 73, 0
1, 324660, Note_on_c, 0, 68, 0
1, 324660, Note_on_c, 0, 80, 0
1, 324660, Note_on_c, 0, 67, 69
1, 324660, Note_on_c, 0, 65, 57
1, 324690, Tempo, 433996
1, 324720, Note_on_c, 0, 65, 0
1, 324720, Note_on_c, 0, 67, 0
1, 324720, Note_on_c, 0, 82, 80
1, 324720, Note_on_c, 0, 70, 67
1, 324720, Note_on_c, 0, 73, 67
1, 324730, Tempo, 436364
1, 324770, Tempo, 438757
1, 324780, Note_on_c, 0, 73, 0
1, 324780, Note_on_c, 0, 70, 0
1, 324780, Note_on_c, 0, 82, 0
1, 324780, Note_on_c, 0, 65, 69
1, 324780, Note_on_c, 0, 61, 57
1, 324810, Tempo, 441176
1, 324840, Note_on_c, 0, 61, 0
1, 324840, Note_on_c, 0, 65, 0
1, 324840, Note_on_c, 0, 68, 79
1, 324840, Note_on_c, 0, 73, 79
1, 324840, Note_on_c, 0, 80, 79
1, 324870, Tempo, 443623
1, 324900, Note_on_c, 0, 80, 0
1, 324900, Note_on_c, 0, 73, 0
1, 324900, Note_on_c, 0, 68, 0
1, 324900, Note_on_c, 0, 65, 70
1, 324900, Note_on_c, 0, 67, 70
1, 324910, Tempo, 446097
1, 324950, Tempo, 448598
1, 324960, Note_on_c, 0, 67, 0
1, 324960, Note_on_c, 0, 65, 0
1, 324960, Note_on_c, 0, 82, 84
1, 324960, Note_on_c, 0, 70, 72
1, 324960, Note_on_c, 0, 73, 72
1, 324990, Tempo, 451128
1, 325020, Note_on_c, 0, 73, 0
1, 325020, Note_on_c, 0, 70, 0
1, 325020, Note_on_c, 0, 82, 0
1, 325020, Note_on_c, 0, 65, 71
1, 325020, Note_on_c, 0, 61, 58
1, 325030, Tempo, 453686
1, 325070, Tempo, 456274
1, 325080, Note_on_c, 0, 61, 0
1, 325080, Note_on_c, 0, 65, 0
1, 325080, Note_on_c, 0, 80, 79
1, 325080, Note_on_c, 0, 68, 67
1, 325080, Note_on_c, 0, 73, 67
1, 325110, Tempo, 458891
1, 325140, Note_on_c, 0, 73, 0
1, 325140, Note_on_c, 0, 68, 0
1, 325140, Note_on_c, 0, 80, 0
1, 325140, Note_on_c, 0, 67, 72
1, 325140, Note_on_c, 0, 65, 60
1, 325150, Tempo, 461538
1, 325190, Tempo, 464217
1, 325200, Note_on_c, 0, 65, 0
1, 325200, Note_on_c, 0, 67, 0
1, 325200, Note_on_c, 0, 82, 83
1, 325200, Note_on_c, 0, 70, 71
1, 325200, Note_on_c, 0, 73, 71
1, 325210, Tempo, 472441
1, 325230, Tempo, 475248
1, 325250, Tempo, 478088
1, 325260, Note_on_c, 0, 73, 0
1, 325260, Note_on_c, 0, 70, 0
1, 325260, Note_on_c, 0, 82, 0
1, 325260, Note_on_c, 0, 65, 68
1, 325260, Note_on_c, 0, 61, 57
1, 325270, Tempo, 480962
1, 325290, Tempo, 483871
1, 325310, Tempo, 489796
1, 325320, Note_on_c, 0, 61, 0
1, 325320, Note_on_c, 0, 65, 0
1, 325320, Note_on_c, 0, 80, 77
1, 325320, Note_on_c, 0, 68, 66
1, 325320, Note_on_c, 0, 73, 66
1, 325380, Tempo, 1371429
1, 325380, Note_on_c, 0, 73, 0
1, 325380, Note_on_c, 0, 68, 0
1, 325380, Note_on_c, 0, 80, 0
1, 325440, Tempo, 623377
1, 325440, Note_on_c, 0, 89, 64
1, 325440, Note_on_c, 0, 85, 64
1, 325440, Note_on_c, 0, 46, 63
1, 325451, Control_c, 0, 64, 0
1, 325489, Control_c, 0, 64, 127
1, 325500, Note_on_c, 0, 85, 0
1, 325500, Note_on_c, 0, 89, 0
1, 325500, Note_on_c, 0, 87, 63
1, 325520, Note_on_c, 0, 46, 0
1, 325520, Note_on_c, 0, 51, 55
1, 325560, Note_on_c, 0, 87, 0
1, 325560, Note_on_c, 0, 85, 62
1, 325600, Note_on_c, 0, 51, 0
1, 325600, Note_on_c, 0, 55, 55
1, 325620, Note_on_c, 0, 85, 0
1, 325620, Note_on_c, 0, 79, 60
1, 325680, Note_on_c, 0, 79, 0
1, 325680, Note_on_c, 0, 55, 0
1, 325680, Note_on_c, 0, 73, 59
1, 325680, Note_on_c, 0, 77, 59
1, 325680, Note_on_c, 0, 61, 62
1, 325740, Note_on_c, 0, 77, 0
1, 325740, Note_on_c, 0, 73, 0
1, 325740, Note_on_c, 0, 75, 58
1, 325800, Note_on_c, 0, 75, 0
1, 325800, Note_on_c, 0, 61, 0
1, 325800, Note_on_c, 0, 73, 56
1, 325860, Tempo, 1348315
1, 325860, Note_on_c, 0, 73, 0
1, 325860, Note_on_c, 0, 67, 55
1, 325920, Tempo, 623377
1, 325920, Note_on_c, 0, 67, 0
1, 325920, Note_on_c, 0, 89, 64
1, 325920, Note_on_c, 0, 85, 64
1, 325920, Note_on_c, 0, 46, 63
1, 325980, Note_on_c, 0, 85, 0
1, 325980, Note_on_c, 0, 89, 0
1, 325980, Note_on_c, 0, 87, 63
1, 326000, Note_on_c, 0, 46, 0
1, 326000, Note_on_c, 0, 51, 55
1, 326040, Note_on_c, 0, 87, 0
1, 326040, Note_on_c, 0, 85, 62
1, 326080, Note_on_c, 0, 51, 0
1, 326080, Note_on_c, 0, 55, 55
1, 326100, Note_on_c, 0, 85, 0
1, 326100, Note_on_c, 0, 79, 60
1, 326160, Note_on_c, 0, 79, 0
1, 326160, Note_on_c, 0, 55, 0
1, 326160, Note_on_c, 0, 73, 59
1, 326160, Note_on_c, 0, 77, 59
1, 326160, Note_on_c, 0, 61, 62
1, 326220, Note_on_c, 0, 77, 0
1, 326220, Note_on_c, 0, 73, 0
1, 326220, Note_on_c, 0, 75, 58
1, 326280, Note_on_c, 0, 75, 0
1, 326280, Note_on_c, 0, 61, 0
1, 326280, Note_on_c, 0, 73, 56
1, 326340, Tempo, 1304348
1, 326340, Note_on_c, 0, 73, 0
1, 326340, Note_on_c, 0, 67, 55
1, 326400, Tempo, 628272
1, 326400, Note_on_c, 0, 67, 0
1, 326400, Note_on_c, 0, 94, 64
1, 326400, Note_on_c, 0, 90, 64
1, 326400, Note_on_c, 0, 44, 63
1, 326411, Control_c, 0, 64, 0
1, 326449, Control_c, 0, 64, 127
1, 326460, Note_on_c, 0, 90, 0
1, 326460, Note_on_c, 0, 94, 0
1, 326460, Note_on_c, 0, 92, 63
1, 326460, Note_on_c, 0, 51, 59
1, 326480, Note_on_c, 0, 44, 0
1, 326520, Note_on_c, 0, 51, 0
1, 326520, Note_on_c, 0, 92, 0
1, 326520, Note_on_c, 0, 90, 62
1, 326520, Note_on_c, 0, 54, 59
1, 326580, Note_on_c, 0, 54, 0
1, 326580, Note_on_c, 0, 90, 0
1, 326580, Note_on_c, 0, 84, 60
1, 326580, Note_on_c, 0, 60, 59
1, 326640, Note_on_c, 0, 60, 0
1, 326640, Note_on_c, 0, 84, 0
1, 326640, Note_on_c, 0, 78, 59
1, 326640, Note_on_c, 0, 82, 59
1, 326640, Note_on_c, 0, 66, 62
1, 326700, Note_on_c, 0, 82, 0
1, 326700, Note_on_c, 0, 78, 0
1, 326700, Note_on_c, 0, 80, 58
1, 326760, Note_on_c, 0, 80, 0
1, 326760, Note_on_c, 0, 66, 0
1, 326760, Note_on_c, 0, 78, 56
1, 326820, Tempo, 1348315
1, 326820, Note_on_c, 0, 78, 0
1, 326820, Note_on_c, 0, 72, 55
1, 326880, Tempo, 623377
1, 326880, Note_on_c, 0, 72, 0
1, 326880, Note_on_c, 0, 94, 64
1, 326880, Note_on_c, 0, 90, 64
1, 326880, Note_on_c, 0, 44, 62
1, 326940, Note_on_c, 0, 44, 0
1, 326940, Note_on_c, 0, 90, 0
1, 326940, Note_on_c, 0, 94, 0
1, 326940, Note_on_c, 0, 92, 63
1, 326940, Note_on_c, 0, 51, 58
1, 327000, Note_on_c, 0, 51, 0
1, 327000, Note_on_c, 0, 92, 0
1, 327000, Note_on_c, 0, 90, 62
1, 327000, Note_on_c, 0, 54, 58
1, 327060, Note_on_c, 0, 54, 0
1, 327060, Note_on_c, 0, 90, 0
1, 327060, Note_on_c, 0, 84, 60
1, 327060, Note_on_c, 0, 60, 58
1, 327120, Note_on_c, 0, 60, 0
1, 327120, Note_on_c, 0, 84, 0
1, 327120, Note_on_c, 0, 78, 59
1, 327120, Note_on_c, 0, 82, 59
1, 327120, Note_on_c, 0, 66, 62
1, 327180, Note_on_c, 0, 82, 0
1, 327180, Note_on_c, 0, 78, 0
1, 327180, Note_on_c, 0, 80, 58
1, 327240, Note_on_c, 0, 80, 0
1, 327240, Note_on_c, 0, 66, 0
1, 327240, Note_on_c, 0, 78, 56
1, 327300, Tempo, 1304348
1, 327300, Note_on_c, 0, 78, 0
1, 327300, Note_on_c, 0, 72, 55
1, 327360, Note_on_c, 0, 72, 0
1, 327360, Note_on_c, 0, 73, 64
1, 327360, Note_on_c, 0, 49, 62
1, 327360, Note_on_c, 0, 65, 62
1, 327360, Control_c, 0, 64, 0
1, 327420, Note_on_c, 0, 65, 0
1, 327420, Note_on_c, 0, 49, 0
1, 327420, Note_on_c, 0, 73, 0
1, 327470, Tempo, 453686
1, 327480, Note_on_c, 0, 92, 72
1, 327480, Note_on_c, 0, 80, 60
1, 327480, Note_on_c, 0, 85, 60
1, 327499, Control_c, 0, 64, 127
1, 327540, Note_on_c, 0, 85, 0
1, 327540, Note_on_c, 0, 80, 0
1, 327540, Note_on_c, 0, 92, 0
1, 327540, Note_on_c, 0, 79, 63
1, 327540, Note_on_c, 0, 77, 53
1, 327550, Tempo, 451128
1, 327600, Note_on_c, 0, 77, 0
1, 327600, Note_on_c, 0, 79, 0
1, 327600, Note_on_c, 0, 94, 78
1, 327600, Note_on_c, 0, 82, 66
1, 327600, Note_on_c, 0, 85, 66
1, 327630, Tempo, 448598
1, 327660, Note_on_c, 0, 85, 0
1, 327660, Note_on_c, 0, 82, 0
1, 327660, Note_on_c, 0, 94, 0
1, 327660, Note_on_c, 0, 77, 63
1, 327660, Note_on_c, 0, 73, 53
1, 327710, Tempo, 446097
1, 327720, Note_on_c, 0, 73, 0
1, 327720, Note_on_c, 0, 77, 0
1, 327720, Note_on_c, 0, 92, 71
1, 327720, Note_on_c, 0, 80, 59
1, 327720, Note_on_c, 0, 85, 59
1, 327780, Note_on_c, 0, 85, 0
1, 327780, Note_on_c, 0, 80, 0
1, 327780, Note_on_c, 0, 92, 0
1, 327780, Note_on_c, 0, 79, 64
1, 327780, Note_on_c, 0, 77, 54
1, 327790, Tempo, 443623
1, 327840, Note_on_c, 0, 77, 0
1, 327840, Note_on_c, 0, 79, 0
1, 327840, Note_on_c, 0, 94, 77
1, 327840, Note_on_c, 0, 82, 66
1, 327840, Note_on_c, 0, 85, 66
1, 327870, Tempo, 441176
1, 327900, Note_on_c, 0, 85, 0
1, 327900, Note_on_c, 0, 82, 0
1, 327900, Note_on_c, 0, 94, 0
1, 327900, Note_on_c, 0, 77, 65
1, 327900, Note_on_c, 0, 73, 54
1, 327930, Tempo, 438757
1, 327960, Note_on_c, 0, 73, 0
1, 327960, Note_on_c, 0, 77, 0
1, 327960, Note_on_c, 0, 92, 74
1, 327960, Note_on_c, 0, 80, 61
1, 327960, Note_on_c, 0, 85, 61
1, 328010, Tempo, 436364
1, 328020, Note_on_c, 0, 85, 0
1, 328020, Note_on_c, 0, 80, 0
1, 328020, Note_on_c, 0, 92, 0
1, 328020, Note_on_c, 0, 79, 65
1, 328020, Note_on_c, 0, 77, 55
1, 328080, Note_on_c, 0, 77, 0
1, 328080, Note_on_c, 0, 79, 0
1, 328080, Note_on_c, 0, 94, 80
1, 328080, Note_on_c, 0, 82, 67
1, 328080, Note_on_c, 0, 85, 67
1, 328090, Tempo, 433996
1, 328140, Note_on_c, 0, 85, 0
1, 328140, Note_on_c, 0, 82, 0
1, 328140, Note_on_c, 0, 94, 0
1, 328140, Note_on_c, 0, 77, 67
1, 328140, Note_on_c, 0, 73, 56
1, 328170, Tempo, 431655
1, 328200, Note_on_c, 0, 73, 0
1, 328200, Note_on_c, 0, 77, 0
1, 328200, Note_on_c, 0, 92, 73
1, 328200, Note_on_c, 0, 80, 61
1, 328200, Note_on_c, 0, 85, 61
1, 328250, Tempo, 429338
1, 328260, Note_on_c, 0, 85, 0
1, 328260, Note_on_c, 0, 80, 0
1, 328260, Note_on_c, 0, 92, 0
1, 328260, Note_on_c, 0, 79, 67
1, 328260, Note_on_c, 0, 77, 56
1, 328310, Tempo, 427046
1, 328320, Note_on_c, 0, 77, 0
1, 328320, Note_on_c, 0, 79, 0
1, 328320, Note_on_c, 0, 94, 81
1, 328320, Note_on_c, 0, 82, 68
1, 328320, Note_on_c, 0, 85, 68
1, 328380, Note_on_c, 0, 85, 0
1, 328380, Note_on_c, 0, 82, 0
1, 328380, Note_on_c, 0, 94, 0
1, 328380, Note_on_c, 0, 77, 68
1, 328380, Note_on_c, 0, 73, 57
1, 328410, Tempo, 429338
1, 328440, Note_on_c, 0, 73, 0
1, 328440, Note_on_c, 0, 77, 0
1, 328440, Note_on_c, 0, 92, 75
1, 328440, Note_on_c, 0, 80, 62
1, 328440, Note_on_c, 0, 85, 62
1, 328490, Tempo, 431655
1, 328500, Note_on_c, 0, 85, 0
1, 328500, Note_on_c, 0, 80, 0
1, 328500, Note_on_c, 0, 92, 0
1, 328500, Note_on_c, 0, 79, 69
1, 328500, Note_on_c, 0, 77, 57
1, 328560, Note_on_c, 0, 77, 0
1, 328560, Note_on_c, 0, 79, 0
1, 328560, Note_on_c, 0, 94, 80
1, 328560, Note_on_c, 0, 82, 67
1, 328560, Note_on_c, 0, 85, 67
1, 328570, Tempo, 433996
1, 328620, Note_on_c, 0, 85, 0
1, 328620, Note_on_c, 0, 82, 0
1, 328620, Note_on_c, 0, 94, 0
1, 328620, Note_on_c, 0, 77, 69
1, 328620, Note_on_c, 0, 73, 57
1, 328650, Tempo, 436364
1, 328680, Note_on_c, 0, 73, 0
1, 328680, Note_on_c, 0, 77, 0
1, 328680, Note_on_c, 0, 80, 79
1, 328680, Note_on_c, 0, 85, 79
1, 328680, Note_on_c, 0, 92, 79
1, 328740, Note_on_c, 0, 92, 0
1, 328740, Note_on_c, 0, 85, 0
1, 328740, Note_on_c, 0, 80, 0
1, 328740, Note_on_c, 0, 77, 70
1, 328740, Note_on_c, 0, 79, 70
1, 328750, Tempo, 438757
1, 328800, Note_on_c, 0, 79, 0
1, 328800, Note_on_c, 0, 77, 0
1, 328800, Note_on_c, 0, 94, 84
1, 328800, Note_on_c, 0, 82, 72
1, 328800, Note_on_c, 0, 85, 72
1, 328830, Tempo, 441176
1, 328860, Note_on_c, 0, 85, 0
1, 328860, Note_on_c, 0, 82, 0
1, 328860, Note_on_c, 0, 94, 0
1, 328860, Note_on_c, 0, 77, 71
1, 328860, Note_on_c, 0, 73, 58
1, 328910, Tempo, 443623
1, 328920, Note_on_c, 0, 73, 0
1, 328920, Note_on_c, 0, 77, 0
1, 328920, Note_on_c, 0, 92, 79
1, 328920, Note_on_c, 0, 80, 67
1, 328920, Note_on_c, 0, 85, 67
1, 328980, Note_on_c, 0, 85, 0
1, 328980, Note_on_c, 0, 80, 0
1, 328980, Note_on_c, 0, 92, 0
1, 328980, Note_on_c, 0, 79, 72
1, 328980, Note_on_c, 0, 77, 60
1, 328990, Tempo, 446097
1, 329040, Note_on_c, 0, 77, 0
1, 329040, Note_on_c, 0, 79, 0
1, 329040, Note_on_c, 0, 94, 83
1, 329040, Note_on_c, 0, 82, 71
1, 329040, Note_on_c, 0, 85, 71
1, 329070, Tempo, 448598
1, 329090, Tempo, 453686
1, 329100, Note_on_c, 0, 85, 0
1, 329100, Note_on_c, 0, 82, 0
1, 329100, Note_on_c, 0, 94, 0
1, 329100, Note_on_c, 0, 77, 68
1, 329100, Note_on_c, 0, 73, 57
1, 329110, Tempo, 458891
1, 329130, Tempo, 466926
1, 329150, Tempo, 472441
1, 329160, Note_on_c, 0, 73, 0
1, 329160, Note_on_c, 0, 77, 0
1, 329160, Note_on_c, 0, 92, 77
1, 329160, Note_on_c, 0, 80, 66
1, 329160, Note_on_c, 0, 85, 66
1, 329170, Tempo, 480962
1, 329220, Tempo, 1371429
1, 329220, Note_on_c, 0, 85, 0
1, 329220, Note_on_c, 0, 80, 0
1, 329220, Note_on_c, 0, 92, 0
1, 329280, Tempo, 623377
1, 329280, Note_on_c, 0, 101, 64
1, 329280, Note_on_c, 0, 97, 64
1, 329280, Note_on_c, 0, 46, 63
1, 329291, Control_c, 0, 64, 0
1, 329329, Control_c, 0, 64, 127
1, 329340, Note_on_c, 0, 46, 0
1, 329340, Note_on_c, 0, 97, 0
1, 329340, Note_on_c, 0, 101, 0
1, 329340, Note_on_c, 0, 99, 63
1, 329340, Note_on_c, 0, 51, 58
1, 329400, Note_on_c, 0, 51, 0
1, 329400, Note_on_c, 0, 99, 0
1, 329400, Note_on_c, 0, 97, 62
1, 329400, Note_on_c, 0, 55, 58
1, 329460, Note_on_c, 0, 55, 0
1, 329460, Note_on_c, 0, 97, 0
1, 329460, Note_on_c, 0, 91, 60
1, 329460, Note_on_c, 0, 61, 58
1, 329520, Note_on_c, 0, 61, 0
1, 329520, Note_on_c, 0, 91, 0
1, 329520, Note_on_c, 0, 85, 59
1, 329520, Note_on_c, 0, 89, 59
1, 329520, Note_on_c, 0, 67, 62
1, 329580, Note_on_c, 0, 89, 0
1, 329580, Note_on_c, 0, 85, 0
1, 329580, Note_on_c, 0, 87, 58
1, 329640, Note_on_c, 0, 87, 0
1, 329640, Note_on_c, 0, 67, 0
1, 329640, Note_on_c, 0, 85, 56
1, 329700, Tempo, 1348315
1, 329700, Note_on_c, 0, 85, 0
1, 329700, Note_on_c, 0, 79, 55
1, 329760, Tempo, 623377
1, 329760, Note_on_c, 0, 79, 0
1, 329760, Note_on_c, 0, 89, 64
1, 329760, Note_on_c, 0, 85, 64
1, 329760, Note_on_c, 0, 46, 63
1, 329820, Note_on_c, 0, 85, 0
1, 329820, Note_on_c, 0, 89, 0
1, 329820, Note_on_c, 0, 87, 63
1, 329840, Note_on_c, 0, 46, 0
1, 329840, Note_on_c, 0, 51, 55
1, 329880, Note_on_c, 0, 87, 0
1, 329880, Note_on_c, 0, 85, 62
1, 329920, Note_on_c, 0, 51, 0
1, 329920, Note_on_c, 0, 55, 55
1, 329940, Note_on_c, 0, 85, 0
1, 329940, Note_on_c, 0, 79, 60
1, 330000, Note_on_c, 0, 79, 0
1, 330000, Note_on_c, 0, 55, 0
1, 330000, Note_on_c, 0, 73, 59
1, 330000, Note_on_c, 0, 77, 59
1, 330000, Note_on_c, 0, 61, 62
1, 330060, Note_on_c, 0, 77, 0
1, 330060, Note_on_c, 0, 73, 0
1, 330060, Note_on_c, 0, 75, 58
1, 330120, Note_on_c, 0, 75, 0
1, 330120, Note_on_c, 0, 61, 0
1, 330120, Note_on_c, 0, 73, 56
1, 330180, Tempo, 1304348
1, 330180, Note_on_c, 0, 73, 0
1, 330180, Note_on_c, 0, 67, 55
1, 330240, Tempo, 628272
1, 330240, Note_on_c, 0, 67, 0
1, 330240, Note_on_c, 0, 94, 64
1, 330240, Note_on_c, 0, 90, 64
1, 330240, Note_on_c, 0, 44, 63
1, 330251, Control_c, 0, 64, 0
1, 330289, Control_c, 0, 64, 127
1, 330300, Note_on_c, 0, 90, 0
1, 330300, Note_on_c, 0, 94, 0
1, 330300, Note_on_c, 0, 92, 63
1, 330300, Note_on_c, 0, 51, 59
1, 330320, Note_on_c, 0, 44, 0
1, 330360, Note_on_c, 0, 51, 0
1, 330360, Note_on_c, 0, 92, 0
1, 330360, Note_on_c, 0, 90, 62
1, 330360, Note_on_c, 0, 54, 59
1, 330420, Note_on_c, 0, 54, 0
1, 330420, Note_on_c, 0, 90, 0
1, 330420, Note_on_c, 0, 84, 60
1, 330420, Note_on_c, 0, 60, 59
1, 330480, Note_on_c, 0, 60, 0
1, 330480, Note_on_c, 0, 84, 0
1, 330480, Note_on_c, 0, 78, 59
1, 330480, Note_on_c, 0, 82, 59
1, 330480, Note_on_c, 0, 66, 62
1, 330540, Note_on_c, 0, 82, 0
1, 330540, Note_on_c, 0, 78, 0
1, 330540, Note_on_c, 0, 80, 58
1, 330600, Note_on_c, 0, 80, 0
1, 330600, Note_on_c, 0, 66, 0
1, 330600, Note_on_c, 0, 78, 56
1, 330660, Tempo, 1348315
1, 330660, Note_on_c, 0, 78, 0
1, 330660, Note_on_c, 0, 72, 55
1, 330720, Tempo, 623377
1, 330720, Note_on_c, 0, 72, 0
1, 330720, Note_on_c, 0, 82, 64
1, 330720, Note_on_c, 0, 78, 64
1, 330720, Note_on_c, 0, 44, 62
1, 330780, Note_on_c, 0, 78, 0
1, 330780, Note_on_c, 0, 82, 0
1, 330780, Note_on_c, 0, 80, 63
1, 330800, Note_on_c, 0, 44, 0
1, 330800, Note_on_c, 0, 51, 57
1, 330840, Note_on_c, 0, 80, 0
1, 330840, Note_on_c, 0, 78, 62
1, 330880, Note_on_c, 0, 51, 0
1, 330880, Note_on_c, 0, 54, 57
1, 330900, Note_on_c, 0, 78, 0
1, 330900, Note_on_c, 0, 72, 60
1, 330960, Note_on_c, 0, 72, 0
1, 330960, Note_on_c, 0, 54, 0
1, 330960, Note_on_c, 0, 66, 59
1, 330960, Note_on_c, 0, 70, 59
1, 330960, Note_on_c, 0, 60, 62
1, 331020, Note_on_c, 0, 70, 0
1, 331020, Note_on_c, 0, 66, 0
1, 331020, Note_on_c, 0, 68, 58
1, 331080, Note_on_c, 0, 68, 0
1, 331080, Note_on_c, 0, 60, 0
1, 331080, Note_on_c, 0, 66, 56
1, 331140, Tempo, 1304348
1, 331140, Note_on_c, 0, 66, 0
1, 331140, Note_on_c, 0, 60, 55
1, 331196, Tempo, 681818
1, 331200, Note_on_c, 0, 60, 0
1, 331200, Note_on_c, 0, 61, 60
1, 331200, Note_on_c, 0, 49, 51
1, 331200, Control_c, 0, 64, 0
1, 331260, Note_on_c, 0, 49, 0
1, 331260, Note_on_c, 0, 61, 0
1, 331320, Note_on_c, 0, 73, 58
1, 331320, Note_on_c, 0, 65, 49
1, 331320, Note_on_c, 0, 68, 49
1, 331320, Note_on_c, 0, 60, 60
1, 331320, Note_on_c, 0, 48, 51
1, 331356, Tempo, 676056
1, 331380, Note_on_c, 0, 48, 0
1, 331380, Note_on_c, 0, 68, 0
1, 331380, Note_on_c, 0, 73, 0
1, 331380, Note_on_c, 0, 65, 0
1, 331380, Note_on_c, 0, 60, 0
1, 331440, Note_on_c, 0, 59, 61
1, 331440, Note_on_c, 0, 47, 51
1, 331500, Note_on_c, 0, 47, 0
1, 331500, Note_on_c, 0, 59, 0
1, 331516, Tempo, 670391
1, 331560, Note_on_c, 0, 85, 60
1, 331560, Note_on_c, 0, 80, 51
1, 331560, Note_on_c, 0, 77, 51
1, 331560, Note_on_c, 0, 73, 51
1, 331560, Note_on_c, 0, 58, 62
1, 331560, Note_on_c, 0, 46, 52
1, 331620, Note_on_c, 0, 46, 0
1, 331620, Note_on_c, 0, 80, 0
1, 331620, Note_on_c, 0, 77, 0
1, 331620, Note_on_c, 0, 85, 0
1, 331620, Note_on_c, 0, 58, 0
1, 331620, Note_on_c, 0, 73, 0
1, 331676, Tempo, 664820
1, 331680, Note_on_c, 0, 57, 63
1, 331680, Note_on_c, 0, 45, 53
1, 331740, Note_on_c, 0, 45, 0
1, 331740, Note_on_c, 0, 57, 0
1, 331800, Note_on_c, 0, 73, 62
1, 331800, Note_on_c, 0, 76, 62
1, 331800, Note_on_c, 0, 64, 52
1, 331800, Note_on_c, 0, 69, 52
1, 331800, Note_on_c, 0, 56, 64
1, 331800, Note_on_c, 0, 44, 54
1, 331836, Tempo, 659341
1, 331860, Note_on_c, 0, 44, 0
1, 331860, Note_on_c, 0, 76, 0
1, 331860, Note_on_c, 0, 64, 0
1, 331860, Note_on_c, 0, 73, 0
1, 331860, Note_on_c, 0, 56, 0
1, 331860, Note_on_c, 0, 69, 0
1, 331920, Note_on_c, 0, 55, 64
1, 331920, Note_on_c, 0, 43, 54
1, 331980, Note_on_c, 0, 43, 0
1, 331980, Note_on_c, 0, 55, 0
1, 331996, Tempo, 653951
1, 332040, Note_on_c, 0, 88, 64
1, 332040, Note_on_c, 0, 85, 54
1, 332040, Note_on_c, 0, 81, 54
1, 332040, Note_on_c, 0, 76, 54
1, 332040, Note_on_c, 0, 54, 65
1, 332040, Note_on_c, 0, 42, 55
1, 332100, Note_on_c, 0, 42, 0
1, 332100, Note_on_c, 0, 85, 0
1, 332100, Note_on_c, 0, 81, 0
1, 332100, Note_on_c, 0, 88, 0
1, 332100, Note_on_c, 0, 54, 0
1, 332100, Note_on_c, 0, 76, 0
1, 332156, Tempo, 648649
1, 332160, Note_on_c, 0, 53, 70
1, 332160, Note_on_c, 0, 41, 64
1, 332280, Note_on_c, 0, 41, 0
1, 332280, Note_on_c, 0, 53, 0
1, 332280, Note_on_c, 0, 77, 66
1, 332280, Note_on_c, 0, 65, 56
1, 332280, Note_on_c, 0, 69, 56
1, 332280, Note_on_c, 0, 72, 56
1, 332280, Note_on_c, 0, 52, 67
1, 332280, Note_on_c, 0, 40, 56
1, 332324, Tempo, 653951
1, 332340, Note_on_c, 0, 72, 0
1, 332340, Note_on_c, 0, 69, 0
1, 332340, Note_on_c, 0, 77, 0
1, 332340, Note_on_c, 0, 65, 0
1, 332400, Note_on_c, 0, 40, 0
1, 332400, Note_on_c, 0, 52, 0
1, 332400, Note_on_c, 0, 51, 69
1, 332400, Note_on_c, 0, 39, 58
1, 332492, Tempo, 659341
1, 332520, Note_on_c, 0, 89, 68
1, 332520, Note_on_c, 0, 84, 57
1, 332520, Note_on_c, 0, 81, 57
1, 332520, Note_on_c, 0, 77, 57
1, 332580, Note_on_c, 0, 77, 0
1, 332580, Note_on_c, 0, 84, 0
1, 332580, Note_on_c, 0, 89, 0
1, 332580, Note_on_c, 0, 81, 0
1, 332640, Note_on_c, 0, 51, 0
1, 332640, Note_on_c, 0, 39, 0
1, 332640, Note_on_c, 0, 50, 76
1, 332640, Note_on_c, 0, 38, 67
1, 332652, Tempo, 664820
1, 332760, Note_on_c, 0, 38, 0
1, 332760, Note_on_c, 0, 50, 0
1, 332760, Note_on_c, 0, 78, 70
1, 332760, Note_on_c, 0, 74, 59
1, 332760, Note_on_c, 0, 66, 59
1, 332760, Note_on_c, 0, 49, 73
1, 332760, Note_on_c, 0, 37, 62
1, 332820, Tempo, 670391
1, 332820, Note_on_c, 0, 66, 0
1, 332820, Note_on_c, 0, 78, 0
1, 332820, Note_on_c, 0, 74, 0
1, 332880, Note_on_c, 0, 49, 0
1, 332880, Note_on_c, 0, 37, 0
1, 332880, Note_on_c, 0, 48, 74
1, 332880, Note_on_c, 0, 36, 62
1, 332980, Tempo, 676056
1, 333000, Tempo, 738462
1, 333000, Note_on_c, 0, 90, 72
1, 333000, Note_on_c, 0, 86, 72
1, 333000, Note_on_c, 0, 78, 61
1, 333060, Note_on_c, 0, 78, 0
1, 333060, Note_on_c, 0, 90, 0
1, 333060, Note_on_c, 0, 86, 0
1, 333108, Tempo, 681818
1, 333110, Tempo, 659341
1, 333120, Note_on_c, 0, 36, 0
1, 333120, Note_on_c, 0, 48, 0
1, 333120, Note_on_c, 0, 61, 72
1, 333120, Note_on_c, 0, 49, 61
1, 333180, Note_on_c, 0, 49, 0
1, 333180, Note_on_c, 0, 61, 0
1, 333240, Note_on_c, 0, 68, 58
1, 333240, Note_on_c, 0, 77, 69
1, 333240, Note_on_c, 0, 65, 58
1, 333240, Note_on_c, 0, 73, 58
1, 333240, Note_on_c, 0, 60, 72
1, 333240, Note_on_c, 0, 48, 61
1, 333300, Note_on_c, 0, 48, 0
1, 333300, Note_on_c, 0, 77, 0
1, 333300, Note_on_c, 0, 65, 0
1, 333300, Note_on_c, 0, 68, 0
1, 333300, Note_on_c, 0, 60, 0
1, 333300, Note_on_c, 0, 73, 0
1, 333310, Tempo, 653951
1, 333360, Note_on_c, 0, 59, 73
1, 333360, Note_on_c, 0, 47, 61
1, 333420, Note_on_c, 0, 47, 0
1, 333420, Note_on_c, 0, 59, 0
1, 333480, Note_on_c, 0, 89, 72
1, 333480, Note_on_c, 0, 85, 61
1, 333480, Note_on_c, 0, 80, 61
1, 333480, Note_on_c, 0, 77, 61
1, 333480, Note_on_c, 0, 58, 74
1, 333480, Note_on_c, 0, 46, 62
1, 333510, Tempo, 648649
1, 333540, Note_on_c, 0, 46, 0
1, 333540, Note_on_c, 0, 85, 0
1, 333540, Note_on_c, 0, 80, 0
1, 333540, Note_on_c, 0, 89, 0
1, 333540, Note_on_c, 0, 58, 0
1, 333540, Note_on_c, 0, 77, 0
1, 333600, Note_on_c, 0, 57, 75
1, 333600, Note_on_c, 0, 45, 63
1, 333660, Note_on_c, 0, 45, 0
1, 333660, Note_on_c, 0, 57, 0
1, 333690, Tempo, 643432
1, 333720, Note_on_c, 0, 73, 74
1, 333720, Note_on_c, 0, 81, 74
1, 333720, Note_on_c, 0, 76, 62
1, 333720, Note_on_c, 0, 69, 62
1, 333720, Note_on_c, 0, 56, 76
1, 333720, Note_on_c, 0, 44, 64
1, 333780, Note_on_c, 0, 44, 0
1, 333780, Note_on_c, 0, 81, 0
1, 333780, Note_on_c, 0, 76, 0
1, 333780, Note_on_c, 0, 73, 0
1, 333780, Note_on_c, 0, 56, 0
1, 333780, Note_on_c, 0, 69, 0
1, 333840, Note_on_c, 0, 55, 76
1, 333840, Note_on_c, 0, 43, 64
1, 333890, Tempo, 638298
1, 333900, Note_on_c, 0, 43, 0
1, 333900, Note_on_c, 0, 55, 0
1, 333960, Note_on_c, 0, 90, 76
1, 333960, Note_on_c, 0, 85, 64
1, 333960, Note_on_c, 0, 81, 64
1, 333960, Note_on_c, 0, 88, 64
1, 333960, Note_on_c, 0, 54, 78
1, 333960, Note_on_c, 0, 42, 66
1, 334020, Note_on_c, 0, 42, 0
1, 334020, Note_on_c, 0, 85, 0
1, 334020, Note_on_c, 0, 81, 0
1, 334020, Note_on_c, 0, 90, 0
1, 334020, Note_on_c, 0, 54, 0
1, 334020, Note_on_c, 0, 88, 0
1, 334070, Tempo, 633245
1, 334080, Note_on_c, 0, 53, 83
1, 334080, Note_on_c, 0, 41, 77
1, 334140, Note_on_c, 0, 41, 0
1, 334140, Note_on_c, 0, 53, 0
1, 334200, Note_on_c, 0, 81, 79
1, 334200, Note_on_c, 0, 77, 67
1, 334200, Note_on_c, 0, 69, 67
1, 334200, Note_on_c, 0, 72, 67
1, 334200, Note_on_c, 0, 52, 80
1, 334200, Note_on_c, 0, 40, 67
1, 334210, Tempo, 638298
1, 334260, Note_on_c, 0, 40, 0
1, 334260, Note_on_c, 0, 77, 0
1, 334260, Note_on_c, 0, 69, 0
1, 334260, Note_on_c, 0, 81, 0
1, 334260, Note_on_c, 0, 52, 0
1, 334260, Note_on_c, 0, 72, 0
1, 334320, Note_on_c, 0, 51, 82
1, 334320, Note_on_c, 0, 39, 69
1, 334330, Tempo, 643432
1, 334440, Note_on_c, 0, 93, 81
1, 334440, Note_on_c, 0, 84, 68
1, 334440, Note_on_c, 0, 81, 68
1, 334440, Note_on_c, 0, 89, 68
1, 334470, Tempo, 648649
1, 334500, Note_on_c, 0, 89, 0
1, 334500, Note_on_c, 0, 84, 0
1, 334500, Note_on_c, 0, 93, 0
1, 334500, Note_on_c, 0, 81, 0
1, 334560, Note_on_c, 0, 51, 0
1, 334560, Note_on_c, 0, 39, 0
1, 334560, Note_on_c, 0, 50, 90
1, 334560, Note_on_c, 0, 38, 81
1, 334590, Tempo, 653951
1, 334620, Note_on_c, 0, 38, 0
1, 334620, Note_on_c, 0, 50, 0
1, 334680, Note_on_c, 0, 69, 70
1, 334680, Note_on_c, 0, 81, 84
1, 334680, Note_on_c, 0, 74, 70
1, 334680, Note_on_c, 0, 78, 70
1, 334680, Note_on_c, 0, 49, 87
1, 334680, Note_on_c, 0, 37, 74
1, 334730, Tempo, 659341
1, 334740, Note_on_c, 0, 37, 0
1, 334740, Note_on_c, 0, 81, 0
1, 334740, Note_on_c, 0, 74, 0
1, 334740, Note_on_c, 0, 69, 0
1, 334740, Note_on_c, 0, 49, 0
1, 334740, Note_on_c, 0, 78, 0
1, 334800, Note_on_c, 0, 48, 88
1, 334800, Note_on_c, 0, 36, 74
1, 334850, Tempo, 664820
1, 334890, Tempo, 664820
1, 334892, Tempo, 659341
1, 334920, Tempo, 725076
1, 334920, Note_on_c, 0, 81, 86
1, 334920, Note_on_c, 0, 93, 86
1, 334920, Note_on_c, 0, 86, 86
1, 334920, Note_on_c, 0, 90, 73
1, 334980, Note_on_c, 0, 90, 0
1, 334980, Note_on_c, 0, 93, 0
1, 334980, Note_on_c, 0, 81, 0
1, 334980, Note_on_c, 0, 86, 0
1, 335028, Tempo, 638298
1, 335040, Note_on_c, 0, 48, 0
1, 335040, Note_on_c, 0, 36, 0
1, 335040, Note_on_c, 0, 61, 72
1, 335040, Note_on_c, 0, 49, 61
1, 335100, Note_on_c, 0, 49, 0
1, 335100, Note_on_c, 0, 61, 0
1, 335160, Note_on_c, 0, 77, 58
1, 335160, Note_on_c, 0, 85, 69
1, 335160, Note_on_c, 0, 73, 58
1, 335160, Note_on_c, 0, 80, 58
1, 335160, Note_on_c, 0, 60, 72
1, 335160, Note_on_c, 0, 48, 61
1, 335220, Note_on_c, 0, 48, 0
1, 335220, Note_on_c, 0, 85, 0
1, 335220, Note_on_c, 0, 73, 0
1, 335220, Note_on_c, 0, 77, 0
1, 335220, Note_on_c, 0, 60, 0
1, 335220, Note_on_c, 0, 80, 0
1, 335248, Tempo, 633245
1, 335280, Note_on_c, 0, 59, 73
1, 335280, Note_on_c, 0, 47, 61
1, 335340, Note_on_c, 0, 47, 0
1, 335340, Note_on_c, 0, 59, 0
1, 335400, Note_on_c, 0, 97, 72
1, 335400, Note_on_c, 0, 92, 61
1, 335400, Note_on_c, 0, 89, 61
1, 335400, Note_on_c, 0, 85, 61
1, 335400, Note_on_c, 0, 58, 74
1, 335400, Note_on_c, 0, 46, 62
1, 335460, Note_on_c, 0, 46, 0
1, 335460, Note_on_c, 0, 92, 0
1, 335460, Note_on_c, 0, 89, 0
1, 335460, Note_on_c, 0, 97, 0
1, 335460, Note_on_c, 0, 58, 0
1, 335460, Note_on_c, 0, 85, 0
1, 335468, Tempo, 628272
1, 335520, Note_on_c, 0, 57, 75
1, 335520, Note_on_c, 0, 45, 63
1, 335580, Note_on_c, 0, 45, 0
1, 335580, Note_on_c, 0, 57, 0
1, 335640, Note_on_c, 0, 81, 74
1, 335640, Note_on_c, 0, 88, 74
1, 335640, Note_on_c, 0, 85, 62
1, 335640, Note_on_c, 0, 76, 62
1, 335640, Note_on_c, 0, 56, 76
1, 335640, Note_on_c, 0, 44, 64
1, 335688, Tempo, 623377
1, 335700, Note_on_c, 0, 44, 0
1, 335700, Note_on_c, 0, 88, 0
1, 335700, Note_on_c, 0, 85, 0
1, 335700, Note_on_c, 0, 81, 0
1, 335700, Note_on_c, 0, 56, 0
1, 335700, Note_on_c, 0, 76, 0
1, 335760, Note_on_c, 0, 55, 76
1, 335760, Note_on_c, 0, 43, 64
1, 335820, Note_on_c, 0, 43, 0
1, 335820, Note_on_c, 0, 55, 0
1, 335880, Note_on_c, 0, 100, 76
1, 335880, Note_on_c, 0, 93, 64
1, 335880, Note_on_c, 0, 88, 64
1, 335880, Note_on_c, 0, 97, 64
1, 335880, Note_on_c, 0, 54, 78
1, 335880, Note_on_c, 0, 42, 66
1, 335908, Tempo, 618557
1, 335940, Note_on_c, 0, 42, 0
1, 335940, Note_on_c, 0, 93, 0
1, 335940, Note_on_c, 0, 88, 0
1, 335940, Note_on_c, 0, 100, 0
1, 335940, Note_on_c, 0, 54, 0
1, 335940, Note_on_c, 0, 97, 0
1, 336000, Note_on_c, 0, 53, 83
1, 336000, Note_on_c, 0, 41, 78
1, 336060, Note_on_c, 0, 41, 0
1, 336060, Note_on_c, 0, 53, 0
1, 336120, Note_on_c, 0, 89, 79
1, 336120, Note_on_c, 0, 84, 67
1, 336120, Note_on_c, 0, 77, 67
1, 336120, Note_on_c, 0, 81, 67
1, 336120, Note_on_c, 0, 52, 80
1, 336120, Note_on_c, 0, 40, 67
1, 336128, Tempo, 613811
1, 336180, Note_on_c, 0, 40, 0
1, 336180, Note_on_c, 0, 84, 0
1, 336180, Note_on_c, 0, 77, 0
1, 336180, Note_on_c, 0, 89, 0
1, 336180, Note_on_c, 0, 52, 0
1, 336180, Note_on_c, 0, 81, 0
1, 336240, Note_on_c, 0, 51, 82
1, 336240, Note_on_c, 0, 39, 69
1, 336262, Control_c, 0, 64, 127
1, 336348, Tempo, 609137
1, 336360, Note_on_c, 0, 101, 81
1, 336360, Note_on_c, 0, 93, 68
1, 336360, Note_on_c, 0, 89, 68
1, 336360, Note_on_c, 0, 96, 68
1, 336420, Note_on_c, 0, 96, 0
1, 336420, Note_on_c, 0, 93, 0
1, 336420, Note_on_c, 0, 101, 0
1, 336420, Note_on_c, 0, 89, 0
1, 336442, Control_c, 0, 64, 0
1, 336480, Note_on_c, 0, 51, 0
1, 336480, Note_on_c, 0, 39, 0
1, 336480, Note_on_c, 0, 50, 88
1, 336480, Note_on_c, 0, 38, 82
1, 336540, Note_on_c, 0, 38, 0
1, 336540, Note_on_c, 0, 50, 0
1, 336568, Tempo, 604534
1, 336600, Note_on_c, 0, 78, 70
1, 336600, Note_on_c, 0, 90, 84
1, 336600, Note_on_c, 0, 86, 70
1, 336600, Note_on_c, 0, 49, 87
1, 336600, Note_on_c, 0, 37, 74
1, 336660, Note_on_c, 0, 37, 0
1, 336660, Note_on_c, 0, 86, 0
1, 336660, Note_on_c, 0, 78, 0
1, 336660, Note_on_c, 0, 90, 0
1, 336660, Note_on_c, 0, 49, 0
1, 336720, Note_on_c, 0, 48, 88
1, 336720, Note_on_c, 0, 36, 74
1, 336766, Control_c, 0, 64, 127
1, 336788, Tempo, 600000
1, 336790, Tempo, 618557
1, 336840, Tempo, 731707
1, 336840, Note_on_c, 0, 90, 73
1, 336840, Note_on_c, 0, 102, 73
1, 336840, Note_on_c, 0, 98, 73
1, 336900, Note_on_c, 0, 98, 0
1, 336900, Note_on_c, 0, 90, 0
1, 336900, Note_on_c, 0, 102, 0
1, 336928, Tempo, 600000
1, 336960, Note_on_c, 0, 36, 0
1, 336960, Note_on_c, 0, 48, 0
1, 336960, Note_on_c, 0, 47, 87
1, 336960, Note_on_c, 0, 35, 73
1, 336966, Control_c, 0, 64, 0
1, 336968, Tempo, 604534
1, 336988, Tempo, 609137
1, 336995, Control_c, 0, 64, 127
1, 337020, Note_on_c, 0, 35, 0
1, 337020, Note_on_c, 0, 47, 0
1, 337028, Tempo, 613811
1, 337048, Tempo, 618557
1, 337080, Note_on_c, 0, 90, 89
1, 337080, Note_on_c, 0, 78, 75
1, 337080, Note_on_c, 0, 83, 75
1, 337080, Note_on_c, 0, 87, 75
1, 337080, Note_on_c, 0, 46, 88
1, 337080, Note_on_c, 0, 34, 74
1, 337088, Tempo, 623377
1, 337108, Tempo, 628272
1, 337140, Note_on_c, 0, 34, 0
1, 337140, Note_on_c, 0, 78, 0
1, 337140, Note_on_c, 0, 83, 0
1, 337140, Note_on_c, 0, 90, 0
1, 337140, Note_on_c, 0, 46, 0
1, 337140, Note_on_c, 0, 87, 0
1, 337148, Tempo, 633245
1, 337168, Tempo, 638298
1, 337200, Note_on_c, 0, 45, 90
1, 337200, Note_on_c, 0, 33, 76
1, 337208, Tempo, 643432
1, 337228, Tempo, 648649
1, 337260, Note_on_c, 0, 33, 0
1, 337260, Note_on_c, 0, 45, 0
1, 337268, Tempo, 653951
1, 337288, Tempo, 659341
1, 337320, Note_on_c, 0, 102, 92
1, 337320, Note_on_c, 0, 99, 78
1, 337320, Note_on_c, 0, 95, 78
1, 337320, Note_on_c, 0, 90, 78
1, 337320, Note_on_c, 0, 44, 91
1, 337320, Note_on_c, 0, 32, 77
1, 337328, Tempo, 664820
1, 337337, Control_c, 0, 64, 0
1, 337348, Tempo, 670391
1, 337368, Tempo, 676056
1, 337375, Control_c, 0, 64, 127
1, 337380, Note_on_c, 0, 32, 0
1, 337380, Note_on_c, 0, 99, 0
1, 337380, Note_on_c, 0, 95, 0
1, 337380, Note_on_c, 0, 102, 0
1, 337380, Note_on_c, 0, 44, 0
1, 337380, Note_on_c, 0, 90, 0
1, 337408, Tempo, 681818
1, 337428, Tempo, 687679
1, 337440, Note_on_c, 0, 43, 93
1, 337440, Note_on_c, 0, 31, 79
1, 337468, Tempo, 693642
1, 337488, Tempo, 699708
1, 337500, Note_on_c, 0, 31, 0
1, 337500, Note_on_c, 0, 43, 0
1, 337528, Tempo, 705882
1, 337548, Tempo, 712166
1, 337560, Note_on_c, 0, 91, 94
1, 337560, Note_on_c, 0, 86, 94
1, 337560, Note_on_c, 0, 83, 79
1, 337560, Note_on_c, 0, 79, 79
1, 337560, Note_on_c, 0, 42, 94
1, 337560, Note_on_c, 0, 30, 79
1, 337588, Tempo, 718563
1, 337608, Tempo, 725076
1, 337620, Note_on_c, 0, 30, 0
1, 337620, Note_on_c, 0, 86, 0
1, 337620, Note_on_c, 0, 83, 0
1, 337620, Note_on_c, 0, 91, 0
1, 337620, Note_on_c, 0, 42, 0
1, 337620, Note_on_c, 0, 79, 0
1, 337648, Tempo, 731707
1, 337668, Tempo, 738462
1, 337680, Note_on_c, 0, 41, 96
1, 337680, Note_on_c, 0, 29, 81
1, 337708, Tempo, 745342
1, 337728, Tempo, 752351
1, 337748, Tempo, 759494
1, 337771, Tempo, 766773
1, 337797, Tempo, 774194
1, 337800, Tempo, 1621622
1, 337800, Note_on_c, 0, 103, 97
1, 337800, Note_on_c, 0, 95, 82
1, 337800, Note_on_c, 0, 91, 82
1, 337800, Note_on_c, 0, 98, 82
1, 337860, Note_on_c, 0, 98, 0
1, 337860, Note_on_c, 0, 95, 0
1, 337860, Note_on_c, 0, 103, 0
1, 337860, Note_on_c, 0, 91, 0
1, 337920, Key_signature, 4, "major"
1, 337920, Tempo, 797342
1, 337920, Note_on_c, 0, 41, 0
1, 337920, Note_on_c, 0, 29, 0
1, 337920, Note_on_c, 0, 92, 100
1, 337920, Note_on_c, 0, 80, 85
1, 337920, Note_on_c, 0, 88, 85
1, 337920, Note_on_c, 0, 40, 102
1, 337920, Note_on_c, 0, 28, 86
1, 337920, Control_c, 0, 64, 0
1, 337973, Control_c, 0, 64, 127
1, 338040, Note_on_c, 0, 28, 0
1, 338040, Note_on_c, 0, 88, 0
1, 338040, Note_on_c, 0, 92, 0
1, 338040, Note_on_c, 0, 80, 0
1, 338040, Note_on_c, 0, 40, 0
1, 338160, Note_on_c, 0, 92, 100
1, 338160, Note_on_c, 0, 80, 85
1, 338160, Note_on_c, 0, 88, 85
1, 338160, Note_on_c, 0, 59, 96
1, 338160, Note_on_c, 0, 47, 81
1, 338280, Note_on_c, 0, 47, 0
1, 338280, Note_on_c, 0, 88, 0
1, 338280, Note_on_c, 0, 92, 0
1, 338280, Note_on_c, 0, 80, 0
1, 338280, Note_on_c, 0, 59, 0
1, 338400, Note_on_c, 0, 92, 107
1, 338400, Note_on_c, 0, 88, 90
1, 338400, Note_on_c, 0, 80, 90
1, 338400, Note_on_c, 0, 52, 97
1, 338400, Note_on_c, 0, 40, 82
1, 338520, Note_on_c, 0, 40, 0
1, 338520, Note_on_c, 0, 52, 0
1, 338640, Tempo, 745342
1, 338640, Note_on_c, 0, 92, 0
1, 338640, Note_on_c, 0, 88, 0
1, 338640, Note_on_c, 0, 80, 0
1, 338640, Note_on_c, 0, 90, 100
1, 338640, Note_on_c, 0, 87, 85
1, 338640, Note_on_c, 0, 78, 85
1, 338640, Note_on_c, 0, 71, 94
1, 338640, Note_on_c, 0, 59, 79
1, 338700, Note_on_c, 0, 78, 0
1, 338700, Note_on_c, 0, 90, 0
1, 338700, Note_on_c, 0, 87, 0
1, 338760, Note_on_c, 0, 71, 0
1, 338760, Note_on_c, 0, 59, 0
1, 338760, Note_on_c, 0, 88, 100
1, 338760, Note_on_c, 0, 76, 85
1, 338760, Note_on_c, 0, 85, 85
1, 338820, Note_on_c, 0, 85, 0
1, 338820, Note_on_c, 0, 76, 0
1, 338820, Note_on_c, 0, 88, 0
1, 338880, Tempo, 805369
1, 338880, Note_on_c, 0, 87, 85
1, 338880, Note_on_c, 0, 75, 85
1, 338880, Note_on_c, 0, 83, 85
1, 338880, Note_on_c, 0, 40, 102
1, 338880, Note_on_c, 0, 28, 86
1, 338880, Control_c, 0, 64, 0
1, 338930, Control_c, 0, 64, 127
1, 338940, Note_on_c, 0, 83, 0
1, 338940, Note_on_c, 0, 87, 0
1, 338940, Note_on_c, 0, 75, 0
1, 339000, Note_on_c, 0, 40, 0
1, 339000, Note_on_c, 0, 28, 0
1, 339000, Note_on_c, 0, 88, 102
1, 339000, Note_on_c, 0, 76, 86
1, 339000, Note_on_c, 0, 85, 86
1, 339060, Note_on_c, 0, 85, 0
1, 339060, Note_on_c, 0, 76, 0
1, 339060, Note_on_c, 0, 88, 0
1, 339120, Note_on_c, 0, 90, 105
1, 339120, Note_on_c, 0, 78, 89
1, 339120, Note_on_c, 0, 87, 89
1, 339120, Note_on_c, 0, 59, 96
1, 339120, Note_on_c, 0, 47, 81
1, 339180, Note_on_c, 0, 87, 0
1, 339180, Note_on_c, 0, 90, 0
1, 339180, Note_on_c, 0, 78, 0
1, 339240, Note_on_c, 0, 59, 0
1, 339240, Note_on_c, 0, 47, 0
1, 339360, Tempo, 805369
1, 339360, Note_on_c, 0, 92, 107
1, 339360, Note_on_c, 0, 88, 90
1, 339360, Note_on_c, 0, 80, 90
1, 339360, Note_on_c, 0, 52, 97
1, 339360, Note_on_c, 0, 40, 82
1, 339480, Note_on_c, 0, 40, 0
1, 339480, Note_on_c, 0, 52, 0
1, 339600, Tempo, 752351
1, 339600, Note_on_c, 0, 92, 0
1, 339600, Note_on_c, 0, 88, 0
1, 339600, Note_on_c, 0, 80, 0
1, 339600, Note_on_c, 0, 90, 100
1, 339600, Note_on_c, 0, 78, 85
1, 339600, Note_on_c, 0, 87, 85
1, 339600, Note_on_c, 0, 71, 94
1, 339600, Note_on_c, 0, 59, 79
1, 339660, Note_on_c, 0, 87, 0
1, 339660, Note_on_c, 0, 90, 0
1, 339660, Note_on_c, 0, 78, 0
1, 339720, Note_on_c, 0, 71, 0
1, 339720, Note_on_c, 0, 59, 0
1, 339720, Note_on_c, 0, 88, 100
1, 339720, Note_on_c, 0, 76, 85
1, 339720, Note_on_c, 0, 85, 85
1, 339780, Note_on_c, 0, 85, 0
1, 339780, Note_on_c, 0, 76, 0
1, 339780, Note_on_c, 0, 88, 0
1, 339840, Tempo, 797342
1, 339840, Note_on_c, 0, 87, 104
1, 339840, Note_on_c, 0, 75, 88
1, 339840, Note_on_c, 0, 83, 88
1, 339840, Note_on_c, 0, 40, 102
1, 339840, Note_on_c, 0, 28, 86
1, 339840, Control_c, 0, 64, 0
1, 339886, Control_c, 0, 64, 127
1, 339900, Note_on_c, 0, 83, 0
1, 339900, Note_on_c, 0, 87, 0
1, 339900, Note_on_c, 0, 75, 0
1, 339960, Note_on_c, 0, 40, 0
1, 339960, Note_on_c, 0, 28, 0
1, 339960, Note_on_c, 0, 88, 98
1, 339960, Note_on_c, 0, 76, 83
1, 339960, Note_on_c, 0, 85, 83
1, 340020, Note_on_c, 0, 85, 0
1, 340020, Note_on_c, 0, 76, 0
1, 340020, Note_on_c, 0, 88, 0
1, 340080, Note_on_c, 0, 90, 100
1, 340080, Note_on_c, 0, 78, 85
1, 340080, Note_on_c, 0, 87, 85
1, 340080, Note_on_c, 0, 59, 96
1, 340080, Note_on_c, 0, 47, 81
1, 340140, Note_on_c, 0, 87, 0
1, 340140, Note_on_c, 0, 90, 0
1, 340140, Note_on_c, 0, 78, 0
1, 340200, Note_on_c, 0, 59, 0
1, 340200, Note_on_c, 0, 47, 0
1, 340320, Note_on_c, 0, 92, 105
1, 340320, Note_on_c, 0, 88, 89
1, 340320, Note_on_c, 0, 80, 89
1, 340320, Note_on_c, 0, 52, 97
1, 340320, Note_on_c, 0, 40, 82
1, 340440, Note_on_c, 0, 40, 0
1, 340440, Note_on_c, 0, 52, 0
1, 340560, Tempo, 752351
1, 340560, Note_on_c, 0, 92, 0
1, 340560, Note_on_c, 0, 88, 0
1, 340560, Note_on_c, 0, 80, 0
1, 340560, Note_on_c, 0, 90, 101
1, 340560, Note_on_c, 0, 78, 85
1, 340560, Note_on_c, 0, 87, 85
1, 340560, Note_on_c, 0, 71, 94
1, 340560, Note_on_c, 0, 59, 79
1, 340620, Note_on_c, 0, 87, 0
1, 340620, Note_on_c, 0, 90, 0
1, 340620, Note_on_c, 0, 78, 0
1, 340680, Note_on_c, 0, 71, 0
1, 340680, Note_on_c, 0, 59, 0
1, 340680, Note_on_c, 0, 88, 101
1, 340680, Note_on_c, 0, 76, 85
1, 340680, Note_on_c, 0, 85, 85
1, 340740, Note_on_c, 0, 85, 0
1, 340740, Note_on_c, 0, 76, 0
1, 340740, Note_on_c, 0, 88, 0
1, 340800, Tempo, 789474
1, 340800, Note_on_c, 0, 87, 99
1, 340800, Note_on_c, 0, 75, 84
1, 340800, Note_on_c, 0, 83, 84
1, 340800, Note_on_c, 0, 47, 102
1, 340800, Note_on_c, 0, 35, 86
1, 340800, Control_c, 0, 64, 0
1, 340860, Note_on_c, 0, 83, 0
1, 340860, Note_on_c, 0, 87, 0
1, 340860, Note_on_c, 0, 75, 0
1, 340867, Control_c, 0, 64, 127
1, 340920, Note_on_c, 0, 47, 0
1, 340920, Note_on_c, 0, 35, 0
1, 340920, Note_on_c, 0, 88, 101
1, 340920, Note_on_c, 0, 76, 85
1, 340920, Note_on_c, 0, 85, 85
1, 340980, Note_on_c, 0, 85, 0
1, 340980, Note_on_c, 0, 76, 0
1, 340980, Note_on_c, 0, 88, 0
1, 341040, Note_on_c, 0, 90, 104
1, 341040, Note_on_c, 0, 78, 88
1, 341040, Note_on_c, 0, 87, 88
1, 341040, Note_on_c, 0, 66, 96
1, 341040, Note_on_c, 0, 54, 81
1, 341100, Note_on_c, 0, 87, 0
1, 341100, Note_on_c, 0, 90, 0
1, 341100, Note_on_c, 0, 78, 0
1, 341160, Note_on_c, 0, 66, 0
1, 341160, Note_on_c, 0, 54, 0
1, 341160, Note_on_c, 0, 92, 107
1, 341160, Note_on_c, 0, 80, 90
1, 341217, Tempo, 766773
1, 341220, Note_on_c, 0, 80, 0
1, 341220, Note_on_c, 0, 92, 0
1, 341280, Note_on_c, 0, 90, 107
1, 341280, Note_on_c, 0, 85, 90
1, 341280, Note_on_c, 0, 78, 90
1, 341280, Note_on_c, 0, 45, 97
1, 341280, Note_on_c, 0, 33, 82
1, 341293, Tempo, 774194
1, 341340, Note_on_c, 0, 78, 0
1, 341340, Note_on_c, 0, 90, 0
1, 341340, Note_on_c, 0, 85, 0
1, 341343, Tempo, 781759
1, 341394, Tempo, 789474
1, 341400, Note_on_c, 0, 45, 0
1, 341400, Note_on_c, 0, 33, 0
1, 341400, Note_on_c, 0, 88, 106
1, 341400, Note_on_c, 0, 76, 90
1, 341444, Tempo, 797342
1, 341460, Note_on_c, 0, 76, 0
1, 341460, Note_on_c, 0, 88, 0
1, 341495, Tempo, 805369
1, 341520, Note_on_c, 0, 87, 104
1, 341520, Note_on_c, 0, 75, 88
1, 341520, Note_on_c, 0, 66, 94
1, 341520, Note_on_c, 0, 54, 79
1, 341545, Tempo, 813559
1, 341580, Note_on_c, 0, 75, 0
1, 341580, Note_on_c, 0, 87, 0
1, 341596, Tempo, 821918
1, 341640, Note_on_c, 0, 66, 0
1, 341640, Note_on_c, 0, 54, 0
1, 341640, Note_on_c, 0, 85, 102
1, 341640, Note_on_c, 0, 73, 86
1, 341647, Tempo, 830450
1, 341697, Tempo, 839161
1, 341700, Note_on_c, 0, 73, 0
1, 341700, Note_on_c, 0, 85, 0
1, 341748, Tempo, 848057
1, 341760, Key_signature, -5, "major"
1, 341760, Note_on_c, 0, 89, 103
1, 341760, Note_on_c, 0, 77, 87
1, 341760, Note_on_c, 0, 80, 87
1, 341760, Note_on_c, 0, 85, 87
1, 341760, Note_on_c, 0, 44, 104
1, 341760, Note_on_c, 0, 32, 88
1, 341788, Control_c, 0, 64, 0
1, 341820, Control_c, 0, 64, 127
1, 341880, Tempo, 916031
1, 341880, Note_on_c, 0, 32, 0
1, 341880, Note_on_c, 0, 44, 0
1, 341880, Note_on_c, 0, 55, 88
1, 341880, Note_on_c, 0, 43, 74
1, 342000, Note_on_c, 0, 43, 0
1, 342000, Note_on_c, 0, 55, 0
1, 342000, Note_on_c, 0, 56, 94
1, 342000, Note_on_c, 0, 44, 79
1, 342120, Note_on_c, 0, 44, 0
1, 342120, Note_on_c, 0, 56, 0
1, 342120, Note_on_c, 0, 67, 94
1, 342120, Note_on_c, 0, 55, 79
1, 342180, Note_on_c, 0, 80, 0
1, 342180, Note_on_c, 0, 85, 0
1, 342180, Note_on_c, 0, 89, 0
1, 342180, Note_on_c, 0, 77, 0
1, 342180, Note_on_c, 0, 87, 101
1, 342180, Note_on_c, 0, 75, 85
1, 342237, Control_c, 0, 64, 0
1, 342240, Tempo, 848057
1, 342240, Note_on_c, 0, 75, 0
1, 342240, Note_on_c, 0, 67, 0
1, 342240, Note_on_c, 0, 55, 0
1, 342240, Note_on_c, 0, 87, 0
1, 342240, Note_on_c, 0, 84, 92
1, 342240, Note_on_c, 0, 90, 109
1, 342240, Note_on_c, 0, 78, 92
1, 342240, Note_on_c, 0, 68, 99
1, 342240, Note_on_c, 0, 56, 84
1, 342276, Control_c, 0, 64, 127
1, 342360, Tempo, 905660
1, 342360, Note_on_c, 0, 56, 0
1, 342360, Note_on_c, 0, 68, 0
1, 342360, Note_on_c, 0, 55, 89
1, 342360, Note_on_c, 0, 43, 75
1, 342480, Note_on_c, 0, 43, 0
1, 342480, Note_on_c, 0, 55, 0
1, 342480, Note_on_c, 0, 56, 93
1, 342480, Note_on_c, 0, 44, 79
1, 342600, Tempo, 839161
1, 342600, Note_on_c, 0, 78, 0
1, 342600, Note_on_c, 0, 84, 0
1, 342600, Note_on_c, 0, 90, 0
1, 342600, Note_on_c, 0, 84, 101
1, 342600, Note_on_c, 0, 72, 85
1, 342720, Tempo, 866426
1, 342720, Note_on_c, 0, 72, 0
1, 342720, Note_on_c, 0, 44, 0
1, 342720, Note_on_c, 0, 56, 0
1, 342720, Note_on_c, 0, 84, 0
1, 342720, Note_on_c, 0, 87, 107
1, 342720, Note_on_c, 0, 75, 90
1, 342720, Note_on_c, 0, 44, 101
1, 342720, Note_on_c, 0, 32, 85
1, 342720, Control_c, 0, 64, 0
1, 342780, Note_on_c, 0, 75, 0
1, 342780, Note_on_c, 0, 87, 0
1, 342780, Control_c, 0, 64, 127
1, 342840, Note_on_c, 0, 44, 0
1, 342840, Note_on_c, 0, 32, 0
1, 342840, Note_on_c, 0, 55, 88
1, 342840, Note_on_c, 0, 43, 74
1, 342960, Note_on_c, 0, 43, 0
1, 342960, Note_on_c, 0, 55, 0
1, 342960, Note_on_c, 0, 85, 98
1, 342960, Note_on_c, 0, 73, 83
1, 342960, Note_on_c, 0, 77, 83
1, 342960, Note_on_c, 0, 80, 83
1, 342960, Note_on_c, 0, 56, 94
1, 342960, Note_on_c, 0, 44, 79
1, 343080, Note_on_c, 0, 44, 0
1, 343080, Note_on_c, 0, 56, 0
1, 343080, Note_on_c, 0, 67, 94
1, 343080, Note_on_c, 0, 55, 79
1, 343200, Note_on_c, 0, 55, 0
1, 343200, Note_on_c, 0, 67, 0
1, 343200, Note_on_c, 0, 68, 99
1, 343200, Note_on_c, 0, 56, 84
1, 343320, Note_on_c, 0, 56, 0
1, 343320, Note_on_c, 0, 68, 0
1, 343320, Note_on_c, 0, 55, 89
1, 343320, Note_on_c, 0, 43, 75
1, 343440, Tempo, 905660
1, 343440, Note_on_c, 0, 43, 0
1, 343440, Note_on_c, 0, 73, 0
1, 343440, Note_on_c, 0, 80, 0
1, 343440, Note_on_c, 0, 85, 0
1, 343440, Note_on_c, 0, 55, 0
1, 343440, Note_on_c, 0, 77, 0
1, 343440, Note_on_c, 0, 85, 98
1, 343440, Note_on_c, 0, 73, 83
1, 343440, Note_on_c, 0, 77, 83
1, 343440, Note_on_c, 0, 56, 93
1, 343440, Note_on_c, 0, 44, 79
1, 343447, Control_c, 0, 64, 0
1, 343493, Control_c, 0, 64, 127
1, 343560, Note_on_c, 0, 77, 0
1, 343560, Note_on_c, 0, 85, 0
1, 343560, Note_on_c, 0, 73, 0
1, 343680, Note_on_c, 0, 56, 0
1, 343680, Note_on_c, 0, 44, 0
1, 343680, Note_on_c, 0, 94, 108
1, 343680, Note_on_c, 0, 82, 91
1, 343680, Note_on_c, 0, 85, 91
1, 343680, Note_on_c, 0, 42, 107
1, 343680, Note_on_c, 0, 30, 90
1, 343680, Control_c, 0, 64, 0
1, 343755, Control_c, 0, 64, 127
1, 343800, Tempo, 875912
1, 343800, Note_on_c, 0, 30, 0
1, 343800, Note_on_c, 0, 85, 0
1, 343800, Note_on_c, 0, 94, 0
1, 343800, Note_on_c, 0, 82, 0
1, 343800, Note_on_c, 0, 42, 0
1, 343800, Note_on_c, 0, 57, 88
1, 343800, Note_on_c, 0, 45, 74
1, 343920, Note_on_c, 0, 45, 0
1, 343920, Note_on_c, 0, 57, 0
1, 343920, Note_on_c, 0, 94, 105
1, 343920, Note_on_c, 0, 82, 89
1, 343920, Note_on_c, 0, 85, 89
1, 343920, Note_on_c, 0, 58, 94
1, 343920, Note_on_c, 0, 46, 79
1, 343966, Control_c, 0, 64, 0
1, 344017, Control_c, 0, 64, 127
1, 344040, Tempo, 937500
1, 344040, Note_on_c, 0, 85, 0
1, 344040, Note_on_c, 0, 94, 0
1, 344040, Note_on_c, 0, 82, 0
1, 344160, Note_on_c, 0, 58, 0
1, 344160, Note_on_c, 0, 46, 0
1, 344160, Note_on_c, 0, 92, 108
1, 344160, Note_on_c, 0, 80, 91
1, 344160, Note_on_c, 0, 83, 91
1, 344160, Note_on_c, 0, 86, 91
1, 344160, Note_on_c, 0, 41, 106
1, 344160, Note_on_c, 0, 29, 90
1, 344212, Control_c, 0, 64, 0
1, 344263, Control_c, 0, 64, 127
1, 344280, Tempo, 875912
1, 344280, Note_on_c, 0, 29, 0
1, 344280, Note_on_c, 0, 41, 0
1, 344280, Note_on_c, 0, 61, 89
1, 344280, Note_on_c, 0, 49, 75
1, 344400, Note_on_c, 0, 49, 0
1, 344400, Note_on_c, 0, 61, 0
1, 344400, Note_on_c, 0, 62, 93
1, 344400, Note_on_c, 0, 50, 79
1, 344446, Control_c, 0, 64, 0
1, 344486, Control_c, 0, 64, 127
1, 344520, Tempo, 926641
1, 344640, Note_on_c, 0, 50, 0
1, 344640, Note_on_c, 0, 80, 0
1, 344640, Note_on_c, 0, 83, 0
1, 344640, Note_on_c, 0, 92, 0
1, 344640, Note_on_c, 0, 62, 0
1, 344640, Note_on_c, 0, 86, 0
1, 344640, Note_on_c, 0, 90, 100
1, 344640, Note_on_c, 0, 78, 85
1, 344640, Note_on_c, 0, 82, 85
1, 344640, Note_on_c, 0, 39, 115
1, 344640, Note_on_c, 0, 27, 97
1, 344640, Control_c, 0, 64, 0
1, 344715, Control_c, 0, 64, 127
1, 344760, Tempo, 875912
1, 344760, Note_on_c, 0, 27, 0
1, 344760, Note_on_c, 0, 82, 0
1, 344760, Note_on_c, 0, 90, 0
1, 344760, Note_on_c, 0, 78, 0
1, 344760, Note_on_c, 0, 39, 0
1, 344760, Note_on_c, 0, 57, 88
1, 344760, Note_on_c, 0, 45, 74
1, 344880, Note_on_c, 0, 45, 0
1, 344880, Note_on_c, 0, 57, 0
1, 344880, Note_on_c, 0, 90, 105
1, 344880, Note_on_c, 0, 78, 89
1, 344880, Note_on_c, 0, 82, 89
1, 344880, Note_on_c, 0, 58, 94
1, 344880, Note_on_c, 0, 46, 79
1, 345000, Tempo, 926641
1, 345000, Note_on_c, 0, 46, 0
1, 345000, Note_on_c, 0, 58, 0
1, 345000, Note_on_c, 0, 69, 94
1, 345000, Note_on_c, 0, 57, 79
1, 345120, Tempo, 916031
1, 345120, Note_on_c, 0, 57, 0
1, 345120, Note_on_c, 0, 69, 0
1, 345120, Note_on_c, 0, 70, 99
1, 345120, Note_on_c, 0, 58, 84
1, 345240, Note_on_c, 0, 58, 0
1, 345240, Note_on_c, 0, 70, 0
1, 345240, Note_on_c, 0, 57, 89
1, 345240, Note_on_c, 0, 45, 75
1, 345360, Tempo, 995851
1, 345360, Note_on_c, 0, 45, 0
1, 345360, Note_on_c, 0, 90, 0
1, 345360, Note_on_c, 0, 82, 0
1, 345360, Note_on_c, 0, 78, 0
1, 345360, Note_on_c, 0, 57, 0
1, 345360, Note_on_c, 0, 90, 102
1, 345360, Note_on_c, 0, 78, 86
1, 345360, Note_on_c, 0, 82, 86
1, 345360, Note_on_c, 0, 58, 93
1, 345360, Note_on_c, 0, 46, 79
1, 345383, Control_c, 0, 64, 0
1, 345435, Control_c, 0, 64, 127
1, 345600, Tempo, 948617
1, 345600, Note_on_c, 0, 46, 0
1, 345600, Note_on_c, 0, 82, 0
1, 345600, Note_on_c, 0, 90, 0
1, 345600, Note_on_c, 0, 78, 0
1, 345600, Note_on_c, 0, 58, 0
1, 345600, Note_on_c, 0, 97, 111
1, 345600, Note_on_c, 0, 85, 94
1, 345600, Note_on_c, 0, 94, 94
1, 345600, Note_on_c, 0, 42, 108
1, 345600, Note_on_c, 0, 30, 91
1, 345600, Control_c, 0, 64, 0
1, 345671, Control_c, 0, 64, 127
1, 345720, Tempo, 895522
1, 345720, Note_on_c, 0, 30, 0
1, 345720, Note_on_c, 0, 42, 0
1, 345720, Note_on_c, 0, 60, 88
1, 345720, Note_on_c, 0, 48, 74
1, 345840, Note_on_c, 0, 48, 0
1, 345840, Note_on_c, 0, 97, 0
1, 345840, Note_on_c, 0, 94, 0
1, 345840, Note_on_c, 0, 85, 0
1, 345840, Note_on_c, 0, 60, 0
1, 345840, Note_on_c, 0, 97, 104
1, 345840, Note_on_c, 0, 85, 88
1, 345840, Note_on_c, 0, 94, 88
1, 345840, Note_on_c, 0, 61, 94
1, 345840, Note_on_c, 0, 49, 79
1, 345960, Tempo, 1008403
1, 345960, Note_on_c, 0, 49, 0
1, 345960, Note_on_c, 0, 61, 0
1, 345960, Note_on_c, 0, 72, 94
1, 345960, Note_on_c, 0, 60, 79
1, 346080, Note_on_c, 0, 60, 0
1, 346080, Note_on_c, 0, 97, 0
1, 346080, Note_on_c, 0, 94, 0
1, 346080, Note_on_c, 0, 85, 0
1, 346080, Note_on_c, 0, 72, 0
1, 346080, Note_on_c, 0, 96, 110
1, 346080, Note_on_c, 0, 84, 93
1, 346080, Note_on_c, 0, 92, 93
1, 346080, Note_on_c, 0, 73, 99
1, 346080, Note_on_c, 0, 61, 84
1, 346200, Tempo, 937500
1, 346200, Note_on_c, 0, 61, 0
1, 346200, Note_on_c, 0, 73, 0
1, 346200, Note_on_c, 0, 60, 89
1, 346200, Note_on_c, 0, 48, 75
1, 346320, Note_on_c, 0, 48, 0
1, 346320, Note_on_c, 0, 96, 0
1, 346320, Note_on_c, 0, 92, 0
1, 346320, Note_on_c, 0, 84, 0
1, 346320, Note_on_c, 0, 60, 0
1, 346320, Note_on_c, 0, 94, 102
1, 346320, Note_on_c, 0, 82, 86
1, 346320, Note_on_c, 0, 90, 86
1, 346320, Note_on_c, 0, 61, 93
1, 346320, Note_on_c, 0, 49, 79
1, 346440, Tempo, 1061947
1, 346560, Tempo, 971660
1, 346560, Note_on_c, 0, 49, 0
1, 346560, Note_on_c, 0, 90, 0
1, 346560, Note_on_c, 0, 94, 0
1, 346560, Note_on_c, 0, 82, 0
1, 346560, Note_on_c, 0, 61, 0
1, 346560, Note_on_c, 0, 92, 103
1, 346560, Note_on_c, 0, 80, 87
1, 346560, Note_on_c, 0, 89, 87
1, 346560, Note_on_c, 0, 44, 105
1, 346560, Note_on_c, 0, 32, 89
1, 346560, Control_c, 0, 64, 0
1, 346623, Control_c, 0, 64, 127
1, 346680, Tempo, 1048035
1, 346680, Note_on_c, 0, 32, 0
1, 346680, Note_on_c, 0, 89, 0
1, 346680, Note_on_c, 0, 92, 0
1, 346680, Note_on_c, 0, 80, 0
1, 346680, Note_on_c, 0, 44, 0
1, 346680, Note_on_c, 0, 55, 88
1, 346680, Note_on_c, 0, 43, 74
1, 346800, Note_on_c, 0, 43, 0
1, 346800, Note_on_c, 0, 55, 0
1, 346800, Note_on_c, 0, 92, 106
1, 346800, Note_on_c, 0, 80, 90
1, 346800, Note_on_c, 0, 85, 90
1, 346800, Note_on_c, 0, 89, 90
1, 346800, Note_on_c, 0, 56, 94
1, 346800, Note_on_c, 0, 44, 79
1, 346920, Tempo, 960000
1, 346920, Note_on_c, 0, 44, 0
1, 346920, Note_on_c, 0, 56, 0
1, 346920, Note_on_c, 0, 67, 94
1, 346920, Note_on_c, 0, 55, 79
1, 347040, Tempo, 1061947
1, 347040, Note_on_c, 0, 55, 0
1, 347040, Note_on_c, 0, 67, 0
1, 347040, Note_on_c, 0, 68, 99
1, 347040, Note_on_c, 0, 56, 84
1, 347160, Note_on_c, 0, 56, 0
1, 347160, Note_on_c, 0, 68, 0
1, 347177, Control_c, 0, 64, 0
1, 347280, Tempo, 971660
1, 347280, Note_on_c, 0, 85, 0
1, 347280, Note_on_c, 0, 92, 0
1, 347280, Note_on_c, 0, 80, 0
1, 347280, Note_on_c, 0, 89, 0
1, 347400, Note_on_c, 0, 93, 102
1, 347400, Note_on_c, 0, 81, 86
1, 347400, Note_on_c, 0, 65, 79
1, 347400, Note_on_c, 0, 77, 79
1, 347520, Note_on_c, 0, 77, 0
1, 347520, Note_on_c, 0, 93, 0
1, 347520, Note_on_c, 0, 81, 0
1, 347520, Note_on_c, 0, 65, 0
1, 347520, Note_on_c, 0, 94, 109
1, 347520, Note_on_c, 0, 82, 92
1, 347520, Note_on_c, 0, 78, 100
1, 347520, Note_on_c, 0, 66, 85
1, 347640, Note_on_c, 0, 66, 0
1, 347640, Note_on_c, 0, 94, 0
1, 347640, Note_on_c, 0, 82, 0
1, 347640, Note_on_c, 0, 78, 0
1, 347880, Note_on_c, 0, 89, 96
1, 347880, Note_on_c, 0, 77, 81
1, 347880, Note_on_c, 0, 74, 72
1, 347880, Note_on_c, 0, 62, 60
1, 347880, Control_c, 0, 64, 127
1, 347970, Tempo, 971660
1, 347990, Tempo, 960000
1, 348000, Note_on_c, 0, 62, 0
1, 348000, Note_on_c, 0, 89, 0
1, 348000, Note_on_c, 0, 77, 0
1, 348000, Note_on_c, 0, 74, 0
1, 348000, Note_on_c, 0, 90, 102
1, 348000, Note_on_c, 0, 78, 86
1, 348000, Note_on_c, 0, 75, 76
1, 348000, Note_on_c, 0, 63, 64
1, 348010, Tempo, 937500
1, 348030, Tempo, 926641
1, 348050, Tempo, 905660
1, 348070, Tempo, 895522
1, 348090, Tempo, 875912
1, 348120, Note_on_c, 0, 63, 0
1, 348120, Note_on_c, 0, 90, 0
1, 348120, Note_on_c, 0, 78, 0
1, 348120, Note_on_c, 0, 75, 0
1, 348120, Note_on_c, 0, 86, 93
1, 348120, Note_on_c, 0, 74, 79
1, 348120, Note_on_c, 0, 71, 69
1, 348120, Note_on_c, 0, 59, 59
1, 348130, Tempo, 866426
1, 348130, Control_c, 0, 64, 0
1, 348170, Tempo, 857143
1, 348177, Control_c, 0, 64, 127
1, 348190, Tempo, 848057
1, 348230, Tempo, 839161
1, 348240, Note_on_c, 0, 59, 0
1, 348240, Note_on_c, 0, 86, 0
1, 348240, Note_on_c, 0, 74, 0
1, 348240, Note_on_c, 0, 71, 0
1, 348240, Note_on_c, 0, 87, 100
1, 348240, Note_on_c, 0, 75, 85
1, 348240, Note_on_c, 0, 72, 75
1, 348240, Note_on_c, 0, 60, 63
1, 348270, Tempo, 830450
1, 348290, Tempo, 821918
1, 348330, Tempo, 813559
1, 348350, Tempo, 805369
1, 348360, Note_on_c, 0, 60, 0
1, 348360, Note_on_c, 0, 87, 0
1, 348360, Note_on_c, 0, 75, 0
1, 348360, Note_on_c, 0, 72, 0
1, 348360, Note_on_c, 0, 83, 93
1, 348360, Note_on_c, 0, 71, 79
1, 348360, Note_on_c, 0, 67, 69
1, 348360, Note_on_c, 0, 55, 59
1, 348365, Control_c, 0, 64, 0
1, 348390, Tempo, 797342
1, 348417, Control_c, 0, 64, 127
1, 348430, Tempo, 789474
1, 348450, Tempo, 781759
1, 348480, Note_on_c, 0, 55, 0
1, 348480, Note_on_c, 0, 83, 0
1, 348480, Note_on_c, 0, 71, 0
1, 348480, Note_on_c, 0, 67, 0
1, 348480, Note_on_c, 0, 84, 101
1, 348480, Note_on_c, 0, 72, 85
1, 348480, Note_on_c, 0, 68, 75
1, 348480, Note_on_c, 0, 56, 63
1, 348490, Tempo, 774194
1, 348510, Tempo, 766773
1, 348600, Note_on_c, 0, 56, 0
1, 348600, Note_on_c, 0, 84, 0
1, 348600, Note_on_c, 0, 72, 0
1, 348600, Note_on_c, 0, 68, 0
1, 348600, Note_on_c, 0, 81, 91
1, 348600, Note_on_c, 0, 69, 77
1, 348600, Note_on_c, 0, 65, 68
1, 348600, Note_on_c, 0, 53, 57
1, 348611, Control_c, 0, 64, 0
1, 348650, Tempo, 738462
1, 348657, Control_c, 0, 64, 127
1, 348720, Note_on_c, 0, 53, 0
1, 348720, Note_on_c, 0, 81, 0
1, 348720, Note_on_c, 0, 69, 0
1, 348720, Note_on_c, 0, 65, 0
1, 348720, Note_on_c, 0, 82, 97
1, 348720, Note_on_c, 0, 70, 82
1, 348720, Note_on_c, 0, 66, 72
1, 348720, Note_on_c, 0, 54, 61
1, 348790, Tempo, 731707
1, 348840, Note_on_c, 0, 54, 0
1, 348840, Note_on_c, 0, 82, 0
1, 348840, Note_on_c, 0, 70, 0
1, 348840, Note_on_c, 0, 66, 0
1, 348840, Note_on_c, 0, 77, 90
1, 348840, Note_on_c, 0, 65, 76
1, 348840, Note_on_c, 0, 62, 67
1, 348840, Note_on_c, 0, 50, 57
1, 348844, Control_c, 0, 64, 0
1, 348875, Control_c, 0, 64, 127
1, 348930, Tempo, 725076
1, 348960, Note_on_c, 0, 50, 0
1, 348960, Note_on_c, 0, 77, 0
1, 348960, Note_on_c, 0, 65, 0
1, 348960, Note_on_c, 0, 62, 0
1, 348960, Note_on_c, 0, 78, 98
1, 348960, Note_on_c, 0, 66, 83
1, 348960, Note_on_c, 0, 63, 73
1, 348960, Note_on_c, 0, 51, 62
1, 349050, Tempo, 718563
1, 349080, Note_on_c, 0, 51, 0
1, 349080, Note_on_c, 0, 78, 0
1, 349080, Note_on_c, 0, 66, 0
1, 349080, Note_on_c, 0, 63, 0
1, 349080, Note_on_c, 0, 74, 88
1, 349080, Note_on_c, 0, 62, 74
1, 349080, Note_on_c, 0, 59, 66
1, 349080, Note_on_c, 0, 47, 55
1, 349086, Control_c, 0, 64, 0
1, 349137, Control_c, 0, 64, 127
1, 349190, Tempo, 712166
1, 349200, Note_on_c, 0, 47, 0
1, 349200, Note_on_c, 0, 74, 0
1, 349200, Note_on_c, 0, 62, 0
1, 349200, Note_on_c, 0, 59, 0
1, 349200, Note_on_c, 0, 75, 96
1, 349200, Note_on_c, 0, 63, 81
1, 349200, Note_on_c, 0, 60, 72
1, 349200, Note_on_c, 0, 48, 60
1, 349320, Note_on_c, 0, 48, 0
1, 349320, Note_on_c, 0, 75, 0
1, 349320, Note_on_c, 0, 63, 0
1, 349320, Note_on_c, 0, 60, 0
1, 349320, Note_on_c, 0, 71, 91
1, 349320, Note_on_c, 0, 59, 76
1, 349320, Note_on_c, 0, 55, 68
1, 349320, Note_on_c, 0, 43, 56
1, 349326, Control_c, 0, 64, 0
1, 349330, Tempo, 705882
1, 349359, Control_c, 0, 64, 127
1, 349410, Tempo, 693642
1, 349440, Note_on_c, 0, 43, 0
1, 349440, Note_on_c, 0, 71, 0
1, 349440, Note_on_c, 0, 59, 0
1, 349440, Note_on_c, 0, 55, 0
1, 349440, Note_on_c, 0, 72, 96
1, 349440, Note_on_c, 0, 60, 81
1, 349440, Note_on_c, 0, 56, 71
1, 349440, Note_on_c, 0, 44, 60
1, 349560, Note_on_c, 0, 44, 0
1, 349560, Note_on_c, 0, 72, 0
1, 349560, Note_on_c, 0, 60, 0
1, 349560, Note_on_c, 0, 56, 0
1, 349560, Note_on_c, 0, 69, 93
1, 349560, Note_on_c, 0, 57, 79
1, 349560, Note_on_c, 0, 53, 69
1, 349560, Note_on_c, 0, 41, 58
1, 349570, Tempo, 699708
1, 349573, Control_c, 0, 64, 0
1, 349640, Control_c, 0, 64, 127
1, 349680, Note_on_c, 0, 41, 0
1, 349680, Note_on_c, 0, 69, 0
1, 349680, Note_on_c, 0, 57, 0
1, 349680, Note_on_c, 0, 53, 0
1, 349680, Note_on_c, 0, 70, 100
1, 349680, Note_on_c, 0, 58, 84
1, 349680, Note_on_c, 0, 54, 74
1, 349680, Note_on_c, 0, 42, 62
1, 349730, Tempo, 705882
1, 349800, Note_on_c, 0, 42, 0
1, 349800, Note_on_c, 0, 70, 0
1, 349800, Note_on_c, 0, 58, 0
1, 349800, Note_on_c, 0, 54, 0
1, 349800, Note_on_c, 0, 65, 95
1, 349800, Note_on_c, 0, 53, 80
1, 349800, Note_on_c, 0, 50, 70
1, 349800, Note_on_c, 0, 38, 60
1, 349814, Control_c, 0, 64, 0
1, 349890, Tempo, 712166
1, 349892, Control_c, 0, 64, 127
1, 349910, Tempo, 718563
1, 349920, Note_on_c, 0, 38, 0
1, 349920, Note_on_c, 0, 65, 0
1, 349920, Note_on_c, 0, 53, 0
1, 349920, Note_on_c, 0, 50, 0
1, 349920, Note_on_c, 0, 66, 103
1, 349920, Note_on_c, 0, 54, 87
1, 349920, Note_on_c, 0, 51, 77
1, 349920, Note_on_c, 0, 39, 64
1, 349950, Tempo, 725076
1, 349970, Tempo, 731707
1, 350010, Tempo, 738462
1, 350030, Tempo, 745342
1, 350040, Note_on_c, 0, 39, 0
1, 350040, Note_on_c, 0, 66, 0
1, 350040, Note_on_c, 0, 54, 0
1, 350040, Note_on_c, 0, 51, 0
1, 350040, Note_on_c, 0, 62, 99
1, 350040, Note_on_c, 0, 50, 84
1, 350040, Note_on_c, 0, 47, 74
1, 350040, Note_on_c, 0, 35, 62
1, 350050, Control_c, 0, 64, 0
1, 350070, Tempo, 752351
1, 350090, Tempo, 759494
1, 350092, Control_c, 0, 64, 127
1, 350130, Tempo, 766773
1, 350150, Tempo, 774194
1, 350160, Note_on_c, 0, 35, 0
1, 350160, Note_on_c, 0, 62, 0
1, 350160, Note_on_c, 0, 50, 0
1, 350160, Note_on_c, 0, 47, 0
1, 350160, Note_on_c, 0, 63, 107
1, 350160, Note_on_c, 0, 51, 90
1, 350160, Note_on_c, 0, 48, 80
1, 350160, Note_on_c, 0, 36, 67
1, 350170, Tempo, 781759
1, 350210, Tempo, 789474
1, 350230, Tempo, 797342
1, 350270, Tempo, 805369
1, 350280, Note_on_c, 0, 36, 0
1, 350280, Note_on_c, 0, 63, 0
1, 350280, Note_on_c, 0, 51, 0
1, 350280, Note_on_c, 0, 48, 0
1, 350280, Note_on_c, 0, 60, 102
1, 350280, Note_on_c, 0, 48, 86
1, 350280, Note_on_c, 0, 54, 86
1, 350280, Note_on_c, 0, 44, 75
1, 350280, Note_on_c, 0, 32, 64
1, 350280, Note_on_c, 0, 39, 64
1, 350290, Tempo, 813559
1, 350291, Control_c, 0, 64, 0
1, 350330, Tempo, 821918
1, 350343, Control_c, 0, 64, 127
1, 350350, Tempo, 830450
1, 350370, Tempo, 839161
1, 350379, Tempo, 830450
1, 350400, Time_signature, 4, 2, 24, 8
1, 350400, Tempo, 1090909
1, 350400, Note_on_c, 0, 39, 0
1, 350400, Note_on_c, 0, 48, 0
1, 350400, Note_on_c, 0, 54, 0
1, 350400, Note_on_c, 0, 60, 0
1, 350400, Note_on_c, 0, 32, 0
1, 350400, Note_on_c, 0, 44, 0
1, 350400, Note_on_c, 0, 61, 106
1, 350400, Note_on_c, 0, 54, 90
1, 350400, Note_on_c, 0, 49, 90
1, 350400, Note_on_c, 0, 42, 80
1, 350400, Note_on_c, 0, 33, 68
1, 350427, Control_c, 0, 64, 0
1, 350435, Control_c, 0, 64, 127
1, 350460, Note_on_c, 0, 33, 0
1, 350460, Note_on_c, 0, 42, 0
1, 350460, Note_on_c, 0, 45, 75
1, 350520, Note_on_c, 0, 45, 0
1, 350520, Note_on_c, 0, 42, 80
1, 350520, Note_on_c, 0, 33, 68
1, 350580, Note_on_c, 0, 33, 0
1, 350580, Note_on_c, 0, 42, 0
1, 350580, Note_on_c, 0, 45, 74
1, 350640, Note_on_c, 0, 45, 0
1, 350640, Note_on_c, 0, 42, 74
1, 350640, Note_on_c, 0, 33, 62
1, 350700, Note_on_c, 0, 33, 0
1, 350700, Note_on_c, 0, 42, 0
1, 350700, Note_on_c, 0, 45, 80
1, 350760, Note_on_c, 0, 45, 0
1, 350760, Note_on_c, 0, 54, 0
1, 350760, Note_on_c, 0, 42, 74
1, 350760, Note_on_c, 0, 33, 62
1, 350820, Note_on_c, 0, 33, 0
1, 350820, Note_on_c, 0, 61, 0
1, 350820, Note_on_c, 0, 49, 0
1, 350820, Note_on_c, 0, 42, 0
1, 350820, Note_on_c, 0, 45, 80
1, 350840, Note_on_c, 0, 66, 94
1, 350840, Note_on_c, 0, 54, 79
1, 350850, Note_on_c, 0, 45, 0
1, 350850, Note_on_c, 0, 33, 73
1, 350865, Note_on_c, 0, 42, 73
1, 350880, Note_on_c, 0, 54, 0
1, 350880, Note_on_c, 0, 66, 0
1, 350880, Note_on_c, 0, 66, 104
1, 350880, Note_on_c, 0, 54, 88
1, 350880, Note_on_c, 0, 45, 73
1, 350900, Control_c, 0, 64, 0
1, 351120, Note_on_c, 0, 45, 0
1, 351120, Note_on_c, 0, 42, 0
1, 351120, Note_on_c, 0, 33, 0
1, 351300, Note_on_c, 0, 66, 0
1, 351300, Note_on_c, 0, 54, 0
1, 351320, Note_on_c, 0, 64, 89
1, 351320, Note_on_c, 0, 52, 75
1, 351360, Tempo, 1153846
1, 351360, Note_on_c, 0, 52, 0
1, 351360, Note_on_c, 0, 64, 0
1, 351360, Note_on_c, 0, 64, 98
1, 351360, Note_on_c, 0, 57, 83
1, 351360, Note_on_c, 0, 52, 83
1, 351360, Note_on_c, 0, 37, 80
1, 351360, Note_on_c, 0, 30, 68
1, 351372, Control_c, 0, 64, 127
1, 351420, Note_on_c, 0, 30, 0
1, 351420, Note_on_c, 0, 37, 0
1, 351420, Note_on_c, 0, 42, 75
1, 351480, Note_on_c, 0, 42, 0
1, 351480, Note_on_c, 0, 37, 80
1, 351480, Note_on_c, 0, 30, 68
1, 351540, Note_on_c, 0, 30, 0
1, 351540, Note_on_c, 0, 52, 0
1, 351540, Note_on_c, 0, 64, 0
1, 351540, Note_on_c, 0, 57, 0
1, 351540, Note_on_c, 0, 37, 0
1, 351540, Note_on_c, 0, 42, 74
1, 351560, Note_on_c, 0, 62, 92
1, 351560, Note_on_c, 0, 50, 78
1, 351600, Note_on_c, 0, 50, 0
1, 351600, Note_on_c, 0, 62, 0
1, 351600, Note_on_c, 0, 42, 0
1, 351600, Note_on_c, 0, 57, 84
1, 351600, Note_on_c, 0, 62, 99
1, 351600, Note_on_c, 0, 50, 84
1, 351600, Note_on_c, 0, 37, 74
1, 351600, Note_on_c, 0, 30, 62
1, 351660, Note_on_c, 0, 30, 0
1, 351660, Note_on_c, 0, 37, 0
1, 351660, Note_on_c, 0, 42, 80
1, 351720, Note_on_c, 0, 42, 0
1, 351720, Note_on_c, 0, 37, 74
1, 351720, Note_on_c, 0, 30, 62
1, 351780, Note_on_c, 0, 30, 0
1, 351780, Note_on_c, 0, 50, 0
1, 351780, Note_on_c, 0, 57, 0
1, 351780, Note_on_c, 0, 62, 0
1, 351780, Note_on_c, 0, 37, 0
1, 351780, Note_on_c, 0, 42, 80
1, 351800, Note_on_c, 0, 61, 87
1, 351800, Note_on_c, 0, 49, 73
1, 351810, Note_on_c, 0, 42, 0
1, 351810, Note_on_c, 0, 30, 73
1, 351825, Note_on_c, 0, 37, 73
1, 351840, Tempo, 1105991
1, 351840, Note_on_c, 0, 49, 0
1, 351840, Note_on_c, 0, 61, 0
1, 351840, Note_on_c, 0, 57, 97
1, 351840, Note_on_c, 0, 61, 97
1, 351840, Note_on_c, 0, 49, 82
1, 351840, Note_on_c, 0, 42, 73
1, 351857, Control_c, 0, 64, 0
1, 351883, Control_c, 0, 64, 127
1, 352020, Note_on_c, 0, 49, 0
1, 352020, Note_on_c, 0, 61, 0
1, 352020, Note_on_c, 0, 57, 0
1, 352040, Note_on_c, 0, 60, 90
1, 352040, Note_on_c, 0, 48, 76
1, 352080, Tempo, 1188119
1, 352080, Note_on_c, 0, 48, 0
1, 352080, Note_on_c, 0, 37, 0
1, 352080, Note_on_c, 0, 30, 0
1, 352080, Note_on_c, 0, 42, 0
1, 352080, Note_on_c, 0, 60, 0
1, 352080, Note_on_c, 0, 60, 97
1, 352080, Note_on_c, 0, 57, 82
1, 352080, Note_on_c, 0, 48, 82
1, 352260, Note_on_c, 0, 48, 0
1, 352260, Note_on_c, 0, 57, 0
1, 352260, Note_on_c, 0, 60, 0
1, 352280, Note_on_c, 0, 61, 90
1, 352280, Note_on_c, 0, 49, 76
1, 352320, Tempo, 600000
1, 352320, Note_on_c, 0, 49, 0
1, 352320, Note_on_c, 0, 61, 0
1, 352320, Note_on_c, 0, 61, 97
1, 352320, Note_on_c, 0, 49, 82
1, 352320, Note_on_c, 0, 25, 68
1, 352320, Note_on_c, 0, 37, 73
1, 352320, Control_c, 0, 64, 0
1, 352389, Control_c, 0, 64, 127
1, 352560, Note_on_c, 0, 37, 0
1, 352560, Note_on_c, 0, 61, 0
1, 352560, Note_on_c, 0, 49, 0
1, 352560, Note_on_c, 0, 25, 0
1, 352800, Tempo, 570071
1, 352800, Note_on_c, 0, 81, 96
1, 352800, Note_on_c, 0, 78, 81
1, 352800, Note_on_c, 0, 73, 81
1, 352800, Note_on_c, 0, 69, 81
1, 352800, Note_on_c, 0, 66, 79
1, 352800, Note_on_c, 0, 61, 67
1, 352800, Note_on_c, 0, 57, 67
1, 352800, Note_on_c, 0, 54, 67
1, 353040, Note_on_c, 0, 54, 0
1, 353040, Note_on_c, 0, 81, 0
1, 353040, Note_on_c, 0, 66, 0
1, 353040, Note_on_c, 0, 78, 0
1, 353040, Note_on_c, 0, 73, 0
1, 353040, Note_on_c, 0, 69, 0
1, 353040, Note_on_c, 0, 61, 0
1, 353040, Note_on_c, 0, 57, 0
1, 353280, Tempo, 554273
1, 353280, Note_on_c, 0, 85, 96
1, 353280, Note_on_c, 0, 73, 81
1, 353280, Note_on_c, 0, 77, 81
1, 353280, Note_on_c, 0, 80, 81
1, 353280, Note_on_c, 0, 61, 79
1, 353280, Note_on_c, 0, 49, 67
1, 353280, Note_on_c, 0, 53, 67
1, 353280, Note_on_c, 0, 56, 67
1, 353283, Control_c, 0, 64, 0
1, 353338, Control_c, 0, 64, 127
1, 353520, Note_on_c, 0, 56, 0
1, 353520, Note_on_c, 0, 85, 0
1, 353520, Note_on_c, 0, 61, 0
1, 353520, Note_on_c, 0, 73, 0
1, 353520, Note_on_c, 0, 77, 0
1, 353520, Note_on_c, 0, 80, 0
1, 353520, Note_on_c, 0, 49, 0
1, 353520, Note_on_c, 0, 53, 0
1, 353520, Note_on_c, 0, 87, 96
1, 353520, Note_on_c, 0, 75, 81
1, 353520, Note_on_c, 0, 80, 81
1, 353520, Note_on_c, 0, 84, 81
1, 353520, Note_on_c, 0, 56, 79
1, 353520, Note_on_c, 0, 44, 67
1, 353520, Note_on_c, 0, 48, 67
1, 353520, Note_on_c, 0, 51, 67
1, 353530, Control_c, 0, 64, 0
1, 353620, Control_c, 0, 64, 127
1, 353760, Note_on_c, 0, 51, 0
1, 353760, Note_on_c, 0, 87, 0
1, 353760, Note_on_c, 0, 56, 0
1, 353760, Note_on_c, 0, 75, 0
1, 353760, Note_on_c, 0, 80, 0
1, 353760, Note_on_c, 0, 84, 0
1, 353760, Note_on_c, 0, 44, 0
1, 353760, Note_on_c, 0, 48, 0
1, 353760, Note_on_c, 0, 89, 96
1, 353760, Note_on_c, 0, 77, 81
1, 353760, Note_on_c, 0, 80, 81
1, 353760, Note_on_c, 0, 85, 81
1, 353760, Note_on_c, 0, 49, 79
1, 353760, Note_on_c, 0, 37, 67
1, 353760, Note_on_c, 0, 41, 67
1, 353760, Note_on_c, 0, 44, 67
1, 353773, Control_c, 0, 64, 0
1, 353843, Control_c, 0, 64, 127
1, 354000, Note_on_c, 0, 44, 0
1, 354000, Note_on_c, 0, 89, 0
1, 354000, Note_on_c, 0, 49, 0
1, 354000, Note_on_c, 0, 77, 0
1, 354000, Note_on_c, 0, 80, 0
1, 354000, Note_on_c, 0, 85, 0
1, 354000, Note_on_c, 0, 37, 0
1, 354000, Note_on_c, 0, 41, 0
1, 354000, Note_on_c, 0, 92, 96
1, 354000, Note_on_c, 0, 80, 81
1, 354000, Note_on_c, 0, 84, 81
1, 354000, Note_on_c, 0, 87, 81
1, 354000, Note_on_c, 0, 44, 79
1, 354000, Note_on_c, 0, 32, 67
1, 354000, Note_on_c, 0, 36, 67
1, 354000, Note_on_c, 0, 39, 67
1, 354010, Control_c, 0, 64, 0
1, 354083, Control_c, 0, 64, 127
1, 354240, Tempo, 539326
1, 354240, Note_on_c, 0, 39, 0
1, 354240, Note_on_c, 0, 92, 0
1, 354240, Note_on_c, 0, 44, 0
1, 354240, Note_on_c, 0, 80, 0
1, 354240, Note_on_c, 0, 84, 0
1, 354240, Note_on_c, 0, 87, 0
1, 354240, Note_on_c, 0, 32, 0
1, 354240, Note_on_c, 0, 36, 0
1, 354240, Note_on_c, 0, 97, 96
1, 354240, Note_on_c, 0, 85, 81
1, 354240, Note_on_c, 0, 89, 81
1, 354240, Note_on_c, 0, 92, 81
1, 354240, Note_on_c, 0, 49, 79
1, 354240, Note_on_c, 0, 37, 67
1, 354240, Note_on_c, 0, 41, 67
1, 354240, Note_on_c, 0, 44, 67
1, 354244, Control_c, 0, 64, 0
1, 354381, Control_c, 0, 64, 127
1, 354480, Note_on_c, 0, 44, 0
1, 354480, Note_on_c, 0, 97, 0
1, 354480, Note_on_c, 0, 49, 0
1, 354480, Note_on_c, 0, 85, 0
1, 354480, Note_on_c, 0, 89, 0
1, 354480, Note_on_c, 0, 92, 0
1, 354480, Note_on_c, 0, 37, 0
1, 354480, Note_on_c, 0, 41, 0
1, 355144, Control_c, 0, 64, 0
1, 355200, Tempo, 554273
1, 355200, Note_on_c, 0, 85, 100
1, 355200, Note_on_c, 0, 73, 85
1, 355200, Note_on_c, 0, 78, 85
1, 355200, Note_on_c, 0, 82, 85
1, 355200, Note_on_c, 0, 66, 82
1, 355200, Note_on_c, 0, 61, 70
1, 355200, Note_on_c, 0, 58, 70
1, 355200, Note_on_c, 0, 54, 70
1, 355313, Control_c, 0, 64, 127
1, 355440, Note_on_c, 0, 54, 0
1, 355440, Note_on_c, 0, 85, 0
1, 355440, Note_on_c, 0, 66, 0
1, 355440, Note_on_c, 0, 73, 0
1, 355440, Note_on_c, 0, 78, 0
1, 355440, Note_on_c, 0, 82, 0
1, 355440, Note_on_c, 0, 61, 0
1, 355440, Note_on_c, 0, 58, 0
1, 355680, Tempo, 582524
1, 356057, Control_c, 0, 64, 0
1, 356160, Note_on_c, 0, 61, 107
1, 356160, Note_on_c, 0, 53, 89
1, 356160, Note_on_c, 0, 56, 92
1, 356160, Note_on_c, 0, 49, 86
1, 356160, Note_on_c, 0, 37, 73
1, 356160, Note_on_c, 0, 41, 73
1, 356160, Note_on_c, 0, 44, 77
1, 356174, Control_c, 0, 64, 127
1, 356400, Note_on_c, 0, 44, 0
1, 356400, Note_on_c, 0, 37, 0
1, 356400, Note_on_c, 0, 53, 0
1, 356400, Note_on_c, 0, 56, 0
1, 356400, Note_on_c, 0, 61, 0
1, 356400, Note_on_c, 0, 41, 0
1, 356400, Note_on_c, 0, 49, 0
1, 356880, Control_c, 0, 64, 0
1, 356880, End_track
0, 0, End_of_file
