0, 0, Header, 0, 1, 480
1, 0, Start_track
1, 0, Title_t, "Etude No. 3  aus Grandes Etudes de Paganini"
1, 0, Title_t, "La Campanella"
1, 0, Copyright_t, "Copyright © 1998 von Bernd Krüger. http://www.piano-midi.de"
1, 0, Text_t, "Frans Liszt"
1, 0, Text_t, "Allegretto"
1, 0, Text_t, "Fertiggestellt am 10.4.98\012"
1, 0, Text_t, "Korrekturen am 21.8.98\012"
1, 0, Text_t, "Anpassungen an Digitalpiano am 29.12.98\012"
1, 0, Text_t, "Update am 24.4.99\012"
1, 0, Text_t, "Update am 17.7.99\012"
1, 0, Text_t, "Normierung: 23.12.2002\012"
1, 0, Text_t, "Update am 3.2.2011\012"
1, 0, Text_t, "Update am 3.3.2014\012"
1, 0, Text_t, "Dauer: 4:07 Minuten\012"
1, 0, Time_signature, 6, 3, 12, 8
1, 0, Key_signature, 5, "major"
1, 0, Tempo, 750000
1, 0, Marker_t, "Allegretto"
1, 0, Program_c, 0, 0
1, 0, Control_c, 0, 7, 100
1, 0, Control_c, 0, 10, 64
1, 0, Control_c, 0, 91, 127
1, 0, Text_t, "bdca426d104a26ac9dcb070447587523"
1, 0, Program_c, 0, 0
1, 0, Control_c, 0, 7, 100
1, 0, Control_c, 0, 10, 64
1, 107, Control_c, 0, 64, 127
1, 239, Control_c, 0, 91, 127
1, 239, Control_c, 0, 91, 127
1, 240, Note_on_c, 0, 63, 24
1, 240, Note_on_c, 0, 75, 28
1, 420, Note_on_c, 0, 75, 0
1, 420, Note_on_c, 0, 63, 0
1, 480, Note_on_c, 0, 63, 24
1, 480, Note_on_c, 0, 75, 28
1, 660, Note_on_c, 0, 75, 0
1, 660, Note_on_c, 0, 63, 0
1, 720, Note_on_c, 0, 75, 28
1, 720, Note_on_c, 0, 63, 24
1, 900, Note_on_c, 0, 63, 0
1, 900, Note_on_c, 0, 75, 0
1, 960, Tempo, 774194
1, 960, Note_on_c, 0, 87, 28
1, 960, Note_on_c, 0, 99, 34
1, 1140, Note_on_c, 0, 99, 0
1, 1140, Note_on_c, 0, 87, 0
1, 1200, Note_on_c, 0, 87, 28
1, 1200, Note_on_c, 0, 99, 34
1, 1380, Note_on_c, 0, 99, 0
1, 1380, Note_on_c, 0, 87, 0
1, 1440, Note_on_c, 0, 99, 34
1, 1440, Note_on_c, 0, 87, 28
1, 1620, Note_on_c, 0, 87, 0
1, 1620, Note_on_c, 0, 99, 0
1, 1680, Tempo, 731707
1, 1680, Note_on_c, 0, 63, 24
1, 1680, Note_on_c, 0, 75, 29
1, 1860, Note_on_c, 0, 75, 0
1, 1860, Note_on_c, 0, 63, 0
1, 1920, Note_on_c, 0, 63, 24
1, 1920, Note_on_c, 0, 75, 29
1, 2100, Note_on_c, 0, 75, 0
1, 2100, Note_on_c, 0, 63, 0
1, 2160, Note_on_c, 0, 75, 29
1, 2160, Note_on_c, 0, 63, 24
1, 2340, Note_on_c, 0, 63, 0
1, 2340, Note_on_c, 0, 75, 0
1, 2400, Note_on_c, 0, 87, 28
1, 2400, Note_on_c, 0, 99, 34
1, 2580, Note_on_c, 0, 99, 0
1, 2580, Note_on_c, 0, 87, 0
1, 2640, Note_on_c, 0, 99, 34
1, 2640, Note_on_c, 0, 87, 28
1, 2820, Note_on_c, 0, 87, 0
1, 2820, Note_on_c, 0, 99, 0
1, 2880, Note_on_c, 0, 87, 28
1, 2880, Note_on_c, 0, 99, 34
1, 3060, Note_on_c, 0, 99, 0
1, 3060, Note_on_c, 0, 87, 0
1, 3120, Note_on_c, 0, 75, 27
1, 3120, Note_on_c, 0, 63, 22
1, 3300, Note_on_c, 0, 63, 0
1, 3300, Note_on_c, 0, 75, 0
1, 3360, Tempo, 745342
1, 3360, Note_on_c, 0, 99, 33
1, 3360, Note_on_c, 0, 87, 27
1, 3540, Note_on_c, 0, 87, 0
1, 3540, Note_on_c, 0, 99, 0
1, 3600, Tempo, 774194
1, 3600, Note_on_c, 0, 99, 33
1, 3600, Note_on_c, 0, 87, 27
1, 3780, Note_on_c, 0, 87, 0
1, 3780, Note_on_c, 0, 99, 0
1, 3840, Tempo, 916031
1, 3840, Note_on_c, 0, 75, 25
1, 3840, Note_on_c, 0, 63, 21
1, 4020, Note_on_c, 0, 63, 0
1, 4020, Note_on_c, 0, 75, 0
1, 4080, Tempo, 1153846
1, 4080, Note_on_c, 0, 99, 27
1, 4080, Note_on_c, 0, 87, 22
1, 4260, Note_on_c, 0, 87, 0
1, 4260, Note_on_c, 0, 99, 0
1, 4310, Tempo, 2264151
1, 4320, Note_on_c, 0, 99, 25
1, 4320, Note_on_c, 0, 87, 21
1, 4500, Note_on_c, 0, 87, 0
1, 4500, Note_on_c, 0, 99, 0
1, 4557, Control_c, 0, 64, 0
1, 4800, Tempo, 618557
1, 4800, Note_on_c, 0, 75, 43
1, 4920, Note_on_c, 0, 87, 40
1, 4980, Note_on_c, 0, 87, 0
1, 4980, Note_on_c, 0, 75, 0
1, 5040, Tempo, 603015
1, 5040, Note_on_c, 0, 87, 50
1, 5160, Note_on_c, 0, 99, 40
1, 5220, Note_on_c, 0, 99, 0
1, 5220, Note_on_c, 0, 87, 0
1, 5280, Note_on_c, 0, 87, 46
1, 5400, Note_on_c, 0, 99, 39
1, 5460, Note_on_c, 0, 99, 0
1, 5460, Note_on_c, 0, 87, 0
1, 5520, Note_on_c, 0, 85, 46
1, 5637, Control_c, 0, 64, 127
1, 5640, Note_on_c, 0, 99, 39
1, 5640, Note_on_c, 0, 56, 37
1, 5700, Note_on_c, 0, 99, 0
1, 5700, Note_on_c, 0, 85, 0
1, 5700, Note_on_c, 0, 63, 39
1, 5760, Tempo, 558140
1, 5760, Note_on_c, 0, 83, 46
1, 5760, Note_on_c, 0, 71, 40
1, 5824, Control_c, 0, 64, 0
1, 5880, Tempo, 576923
1, 5880, Note_on_c, 0, 99, 40
1, 5940, Note_on_c, 0, 99, 0
1, 5940, Note_on_c, 0, 83, 0
1, 5940, Note_on_c, 0, 56, 0
1, 5940, Note_on_c, 0, 63, 0
1, 5940, Note_on_c, 0, 71, 0
1, 6000, Tempo, 600000
1, 6000, Note_on_c, 0, 83, 45
1, 6120, Tempo, 603015
1, 6120, Note_on_c, 0, 99, 40
1, 6180, Note_on_c, 0, 99, 0
1, 6180, Note_on_c, 0, 83, 0
1, 6240, Tempo, 615385
1, 6240, Note_on_c, 0, 82, 43
1, 6360, Tempo, 566038
1, 6360, Note_on_c, 0, 99, 40
1, 6360, Note_on_c, 0, 59, 35
1, 6371, Control_c, 0, 64, 127
1, 6420, Note_on_c, 0, 99, 0
1, 6420, Note_on_c, 0, 82, 0
1, 6420, Note_on_c, 0, 68, 36
1, 6480, Tempo, 579710
1, 6480, Note_on_c, 0, 80, 46
1, 6480, Note_on_c, 0, 75, 37
1, 6586, Control_c, 0, 64, 0
1, 6600, Note_on_c, 0, 99, 40
1, 6660, Note_on_c, 0, 99, 0
1, 6660, Note_on_c, 0, 80, 0
1, 6660, Note_on_c, 0, 59, 0
1, 6660, Note_on_c, 0, 68, 0
1, 6660, Note_on_c, 0, 75, 0
1, 6720, Tempo, 603015
1, 6720, Note_on_c, 0, 79, 45
1, 6840, Note_on_c, 0, 99, 37
1, 6900, Note_on_c, 0, 99, 0
1, 6900, Note_on_c, 0, 79, 0
1, 6960, Note_on_c, 0, 80, 45
1, 7080, Note_on_c, 0, 99, 40
1, 7080, Note_on_c, 0, 63, 36
1, 7087, Control_c, 0, 64, 127
1, 7140, Note_on_c, 0, 99, 0
1, 7140, Note_on_c, 0, 80, 0
1, 7140, Note_on_c, 0, 70, 39
1, 7200, Tempo, 571429
1, 7200, Note_on_c, 0, 82, 46
1, 7200, Note_on_c, 0, 79, 41
1, 7320, Tempo, 603015
1, 7320, Note_on_c, 0, 99, 40
1, 7331, Control_c, 0, 64, 0
1, 7380, Note_on_c, 0, 99, 0
1, 7380, Note_on_c, 0, 82, 0
1, 7380, Note_on_c, 0, 63, 0
1, 7380, Note_on_c, 0, 70, 0
1, 7380, Note_on_c, 0, 79, 0
1, 7440, Note_on_c, 0, 75, 43
1, 7560, Note_on_c, 0, 99, 37
1, 7620, Note_on_c, 0, 99, 0
1, 7620, Note_on_c, 0, 75, 0
1, 7680, Tempo, 618557
1, 7680, Note_on_c, 0, 75, 43
1, 7800, Note_on_c, 0, 87, 37
1, 7860, Note_on_c, 0, 87, 0
1, 7860, Note_on_c, 0, 75, 0
1, 7860, Note_on_c, 0, 67, 36
1, 7875, Control_c, 0, 64, 127
1, 7920, Tempo, 571429
1, 7920, Note_on_c, 0, 76, 50
1, 7920, Note_on_c, 0, 70, 39
1, 8040, Note_on_c, 0, 87, 43
1, 8083, Control_c, 0, 64, 0
1, 8100, Note_on_c, 0, 87, 0
1, 8100, Note_on_c, 0, 67, 0
1, 8100, Note_on_c, 0, 76, 0
1, 8100, Note_on_c, 0, 70, 0
1, 8160, Tempo, 603015
1, 8160, Note_on_c, 0, 75, 46
1, 8280, Note_on_c, 0, 87, 40
1, 8340, Note_on_c, 0, 87, 0
1, 8340, Note_on_c, 0, 75, 0
1, 8400, Note_on_c, 0, 73, 46
1, 8520, Note_on_c, 0, 87, 39
1, 8580, Note_on_c, 0, 87, 0
1, 8580, Note_on_c, 0, 73, 0
1, 8640, Tempo, 574163
1, 8640, Note_on_c, 0, 71, 46
1, 8640, Note_on_c, 0, 68, 43
1, 8760, Note_on_c, 0, 87, 40
1, 8820, Note_on_c, 0, 87, 0
1, 8820, Note_on_c, 0, 68, 0
1, 8820, Note_on_c, 0, 71, 0
1, 8880, Tempo, 594059
1, 8880, Note_on_c, 0, 71, 45
1, 9000, Tempo, 606061
1, 9000, Note_on_c, 0, 87, 40
1, 9060, Note_on_c, 0, 87, 0
1, 9060, Note_on_c, 0, 71, 0
1, 9120, Tempo, 615385
1, 9120, Note_on_c, 0, 70, 43
1, 9240, Note_on_c, 0, 87, 37
1, 9240, Note_on_c, 0, 59, 36
1, 9257, Control_c, 0, 64, 127
1, 9300, Note_on_c, 0, 87, 0
1, 9300, Note_on_c, 0, 70, 0
1, 9300, Note_on_c, 0, 62, 36
1, 9360, Tempo, 603015
1, 9360, Note_on_c, 0, 68, 46
1, 9360, Note_on_c, 0, 65, 39
1, 9370, Tempo, 606061
1, 9440, Control_c, 0, 64, 0
1, 9480, Note_on_c, 0, 87, 40
1, 9520, Tempo, 609137
1, 9540, Note_on_c, 0, 87, 0
1, 9540, Note_on_c, 0, 68, 0
1, 9540, Note_on_c, 0, 59, 0
1, 9540, Note_on_c, 0, 62, 0
1, 9540, Note_on_c, 0, 65, 0
1, 9570, Tempo, 606061
1, 9600, Note_on_c, 0, 67, 45
1, 9620, Tempo, 609137
1, 9671, Tempo, 612245
1, 9720, Note_on_c, 0, 87, 37
1, 9721, Tempo, 615385
1, 9747, Tempo, 618557
1, 9780, Note_on_c, 0, 87, 0
1, 9780, Note_on_c, 0, 67, 0
1, 9797, Tempo, 621762
1, 9840, Note_on_c, 0, 68, 45
1, 9848, Tempo, 625000
1, 9898, Tempo, 628272
1, 9923, Tempo, 631579
1, 9960, Note_on_c, 0, 87, 37
1, 9974, Tempo, 634921
1, 10020, Note_on_c, 0, 87, 0
1, 10020, Note_on_c, 0, 68, 0
1, 10020, Note_on_c, 0, 63, 33
1, 10043, Control_c, 0, 64, 127
1, 10080, Tempo, 655738
1, 10080, Note_on_c, 0, 70, 46
1, 10080, Note_on_c, 0, 67, 35
1, 10172, Control_c, 0, 64, 0
1, 10200, Note_on_c, 0, 87, 40
1, 10260, Note_on_c, 0, 87, 0
1, 10260, Note_on_c, 0, 63, 0
1, 10260, Note_on_c, 0, 70, 0
1, 10260, Note_on_c, 0, 67, 0
1, 10320, Tempo, 681818
1, 10320, Note_on_c, 0, 63, 43
1, 10440, Note_on_c, 0, 75, 37
1, 10500, Note_on_c, 0, 75, 0
1, 10500, Note_on_c, 0, 63, 0
1, 10560, Tempo, 618557
1, 10560, Note_on_c, 0, 75, 43
1, 10680, Note_on_c, 0, 87, 37
1, 10740, Note_on_c, 0, 87, 0
1, 10740, Note_on_c, 0, 75, 0
1, 10800, Tempo, 615385
1, 10800, Note_on_c, 0, 87, 50
1, 10920, Tempo, 612245
1, 10920, Note_on_c, 0, 99, 43
1, 10980, Note_on_c, 0, 99, 0
1, 10980, Note_on_c, 0, 87, 0
1, 11040, Tempo, 609137
1, 11040, Note_on_c, 0, 87, 46
1, 11160, Tempo, 606061
1, 11160, Note_on_c, 0, 99, 41
1, 11220, Note_on_c, 0, 99, 0
1, 11220, Note_on_c, 0, 87, 0
1, 11280, Tempo, 603015
1, 11280, Note_on_c, 0, 85, 46
1, 11400, Note_on_c, 0, 99, 40
1, 11400, Note_on_c, 0, 56, 36
1, 11436, Control_c, 0, 64, 127
1, 11460, Note_on_c, 0, 99, 0
1, 11460, Note_on_c, 0, 85, 0
1, 11460, Note_on_c, 0, 63, 37
1, 11520, Tempo, 566038
1, 11520, Note_on_c, 0, 83, 46
1, 11520, Note_on_c, 0, 71, 40
1, 11640, Note_on_c, 0, 99, 41
1, 11693, Control_c, 0, 64, 0
1, 11700, Note_on_c, 0, 99, 0
1, 11700, Note_on_c, 0, 83, 0
1, 11700, Note_on_c, 0, 56, 0
1, 11700, Note_on_c, 0, 63, 0
1, 11700, Note_on_c, 0, 71, 0
1, 11760, Tempo, 600000
1, 11760, Note_on_c, 0, 83, 45
1, 11880, Note_on_c, 0, 99, 39
1, 11940, Note_on_c, 0, 99, 0
1, 11940, Note_on_c, 0, 83, 0
1, 12000, Tempo, 615385
1, 12000, Note_on_c, 0, 82, 43
1, 12120, Tempo, 574163
1, 12120, Note_on_c, 0, 99, 39
1, 12120, Note_on_c, 0, 59, 36
1, 12134, Control_c, 0, 64, 127
1, 12180, Note_on_c, 0, 99, 0
1, 12180, Note_on_c, 0, 82, 0
1, 12180, Note_on_c, 0, 68, 37
1, 12240, Tempo, 606061
1, 12240, Note_on_c, 0, 80, 46
1, 12240, Note_on_c, 0, 75, 41
1, 12360, Note_on_c, 0, 99, 40
1, 12420, Note_on_c, 0, 99, 0
1, 12420, Note_on_c, 0, 80, 0
1, 12420, Note_on_c, 0, 59, 0
1, 12420, Note_on_c, 0, 68, 0
1, 12420, Note_on_c, 0, 75, 0
1, 12424, Control_c, 0, 64, 0
1, 12480, Note_on_c, 0, 79, 45
1, 12600, Note_on_c, 0, 99, 39
1, 12660, Note_on_c, 0, 99, 0
1, 12660, Note_on_c, 0, 79, 0
1, 12720, Note_on_c, 0, 80, 45
1, 12840, Note_on_c, 0, 99, 40
1, 12840, Note_on_c, 0, 63, 36
1, 12858, Control_c, 0, 64, 127
1, 12900, Note_on_c, 0, 99, 0
1, 12900, Note_on_c, 0, 80, 0
1, 12900, Note_on_c, 0, 70, 39
1, 12960, Tempo, 568720
1, 12960, Note_on_c, 0, 82, 46
1, 12960, Note_on_c, 0, 79, 41
1, 13080, Tempo, 606061
1, 13080, Note_on_c, 0, 99, 40
1, 13134, Control_c, 0, 64, 0
1, 13140, Note_on_c, 0, 99, 0
1, 13140, Note_on_c, 0, 82, 0
1, 13140, Note_on_c, 0, 63, 0
1, 13140, Note_on_c, 0, 70, 0
1, 13140, Note_on_c, 0, 79, 0
1, 13200, Note_on_c, 0, 75, 43
1, 13320, Note_on_c, 0, 99, 39
1, 13380, Note_on_c, 0, 99, 0
1, 13380, Note_on_c, 0, 75, 0
1, 13440, Tempo, 628272
1, 13440, Note_on_c, 0, 75, 43
1, 13560, Note_on_c, 0, 87, 40
1, 13611, Control_c, 0, 64, 127
1, 13620, Note_on_c, 0, 87, 0
1, 13620, Note_on_c, 0, 75, 0
1, 13620, Note_on_c, 0, 67, 37
1, 13680, Tempo, 609137
1, 13680, Note_on_c, 0, 76, 50
1, 13680, Note_on_c, 0, 70, 39
1, 13800, Note_on_c, 0, 87, 45
1, 13851, Control_c, 0, 64, 0
1, 13860, Note_on_c, 0, 87, 0
1, 13860, Note_on_c, 0, 67, 0
1, 13860, Note_on_c, 0, 76, 0
1, 13860, Note_on_c, 0, 70, 0
1, 13920, Note_on_c, 0, 75, 46
1, 14040, Note_on_c, 0, 87, 43
1, 14100, Note_on_c, 0, 87, 0
1, 14100, Note_on_c, 0, 75, 0
1, 14160, Note_on_c, 0, 73, 46
1, 14160, Note_on_c, 0, 75, 39
1, 14280, Tempo, 628272
1, 14280, Note_on_c, 0, 87, 40
1, 14340, Note_on_c, 0, 87, 0
1, 14340, Note_on_c, 0, 75, 0
1, 14340, Note_on_c, 0, 73, 0
1, 14400, Tempo, 566038
1, 14400, Note_on_c, 0, 75, 46
1, 14400, Note_on_c, 0, 68, 35
1, 14400, Note_on_c, 0, 71, 39
1, 14440, Control_c, 0, 64, 127
1, 14490, Note_on_c, 0, 75, 0
1, 14520, Note_on_c, 0, 87, 39
1, 14549, Control_c, 0, 64, 0
1, 14580, Note_on_c, 0, 87, 0
1, 14580, Note_on_c, 0, 71, 0
1, 14580, Note_on_c, 0, 68, 0
1, 14640, Note_on_c, 0, 80, 39
1, 14700, Note_on_c, 0, 80, 0
1, 14760, Tempo, 588235
1, 14760, Note_on_c, 0, 83, 39
1, 14820, Note_on_c, 0, 83, 0
1, 14880, Note_on_c, 0, 87, 46
1, 14880, Control_c, 0, 64, 127
1, 14970, Note_on_c, 0, 87, 0
1, 15000, Tempo, 621762
1, 15000, Note_on_c, 0, 99, 41
1, 15000, Control_c, 0, 64, 0
1, 15060, Note_on_c, 0, 99, 0
1, 15120, Tempo, 609137
1, 15120, Note_on_c, 0, 75, 46
1, 15120, Note_on_c, 0, 63, 30
1, 15120, Note_on_c, 0, 73, 34
1, 15120, Note_on_c, 0, 67, 30
1, 15210, Note_on_c, 0, 75, 0
1, 15240, Tempo, 568720
1, 15240, Note_on_c, 0, 87, 39
1, 15300, Note_on_c, 0, 87, 0
1, 15300, Note_on_c, 0, 67, 0
1, 15300, Note_on_c, 0, 73, 0
1, 15300, Note_on_c, 0, 63, 0
1, 15360, Tempo, 576923
1, 15360, Note_on_c, 0, 79, 39
1, 15420, Note_on_c, 0, 79, 0
1, 15480, Tempo, 597015
1, 15480, Note_on_c, 0, 82, 39
1, 15540, Note_on_c, 0, 82, 0
1, 15600, Tempo, 609137
1, 15600, Note_on_c, 0, 87, 46
1, 15652, Control_c, 0, 64, 127
1, 15690, Note_on_c, 0, 87, 0
1, 15720, Note_on_c, 0, 99, 45
1, 15780, Note_on_c, 0, 99, 0
1, 15780, Control_c, 0, 64, 0
1, 15835, Tempo, 615385
1, 15840, Note_on_c, 0, 56, 40
1, 15886, Control_c, 0, 64, 127
1, 15911, Tempo, 618557
1, 15930, Note_on_c, 0, 56, 0
1, 15960, Note_on_c, 0, 63, 35
1, 15987, Tempo, 621762
1, 16050, Note_on_c, 0, 63, 0
1, 16062, Tempo, 625000
1, 16080, Note_on_c, 0, 71, 35
1, 16113, Tempo, 628272
1, 16170, Note_on_c, 0, 71, 0
1, 16189, Tempo, 631579
1, 16200, Note_on_c, 0, 80, 35
1, 16265, Tempo, 634921
1, 16290, Note_on_c, 0, 80, 0
1, 16320, Note_on_c, 0, 75, 41
1, 16328, Control_c, 0, 64, 0
1, 16340, Tempo, 638298
1, 16391, Tempo, 641711
1, 16440, Note_on_c, 0, 87, 37
1, 16441, Tempo, 634921
1, 16500, Note_on_c, 0, 87, 0
1, 16500, Note_on_c, 0, 75, 0
1, 16560, Tempo, 615385
1, 16560, Note_on_c, 0, 99, 50
1, 16680, Tempo, 612245
1, 16680, Note_on_c, 0, 87, 40
1, 16740, Note_on_c, 0, 87, 0
1, 16740, Note_on_c, 0, 99, 0
1, 16800, Tempo, 609137
1, 16800, Note_on_c, 0, 99, 46
1, 16920, Tempo, 606061
1, 16920, Note_on_c, 0, 87, 39
1, 16980, Note_on_c, 0, 87, 0
1, 16980, Note_on_c, 0, 99, 0
1, 17040, Tempo, 603015
1, 17040, Note_on_c, 0, 99, 46
1, 17160, Note_on_c, 0, 85, 39
1, 17210, Note_on_c, 0, 85, 0
1, 17220, Note_on_c, 0, 99, 0
1, 17220, Note_on_c, 0, 85, 39
1, 17280, Tempo, 552995
1, 17280, Note_on_c, 0, 85, 0
1, 17280, Note_on_c, 0, 83, 54
1, 17280, Note_on_c, 0, 44, 39
1, 17319, Control_c, 0, 64, 127
1, 17400, Tempo, 571429
1, 17400, Note_on_c, 0, 99, 43
1, 17460, Note_on_c, 0, 99, 0
1, 17460, Note_on_c, 0, 44, 0
1, 17460, Note_on_c, 0, 83, 0
1, 17520, Tempo, 594059
1, 17520, Note_on_c, 0, 83, 45
1, 17520, Note_on_c, 0, 59, 37
1, 17520, Note_on_c, 0, 51, 34
1, 17640, Note_on_c, 0, 99, 40
1, 17700, Note_on_c, 0, 99, 0
1, 17700, Note_on_c, 0, 83, 0
1, 17700, Note_on_c, 0, 59, 0
1, 17700, Note_on_c, 0, 51, 0
1, 17711, Control_c, 0, 64, 0
1, 17760, Tempo, 615385
1, 17760, Note_on_c, 0, 82, 43
1, 17880, Note_on_c, 0, 99, 40
1, 17940, Note_on_c, 0, 99, 0
1, 17940, Note_on_c, 0, 82, 0
1, 17940, Note_on_c, 0, 82, 49
1, 18000, Tempo, 558140
1, 18000, Note_on_c, 0, 82, 0
1, 18000, Note_on_c, 0, 80, 49
1, 18000, Note_on_c, 0, 47, 39
1, 18050, Control_c, 0, 64, 127
1, 18120, Tempo, 574163
1, 18120, Note_on_c, 0, 99, 41
1, 18180, Note_on_c, 0, 99, 0
1, 18180, Note_on_c, 0, 47, 0
1, 18180, Note_on_c, 0, 80, 0
1, 18240, Tempo, 606061
1, 18240, Note_on_c, 0, 79, 45
1, 18240, Note_on_c, 0, 56, 34
1, 18240, Note_on_c, 0, 63, 37
1, 18360, Note_on_c, 0, 99, 40
1, 18406, Control_c, 0, 64, 0
1, 18420, Note_on_c, 0, 99, 0
1, 18420, Note_on_c, 0, 79, 0
1, 18420, Note_on_c, 0, 56, 0
1, 18420, Note_on_c, 0, 63, 0
1, 18480, Note_on_c, 0, 80, 45
1, 18600, Note_on_c, 0, 99, 40
1, 18660, Note_on_c, 0, 99, 0
1, 18660, Note_on_c, 0, 80, 0
1, 18660, Note_on_c, 0, 79, 47
1, 18690, Note_on_c, 0, 79, 0
1, 18690, Note_on_c, 0, 80, 49
1, 18720, Tempo, 560748
1, 18720, Note_on_c, 0, 80, 0
1, 18720, Note_on_c, 0, 82, 50
1, 18720, Note_on_c, 0, 51, 39
1, 18759, Control_c, 0, 64, 127
1, 18840, Tempo, 603015
1, 18840, Note_on_c, 0, 99, 39
1, 18900, Note_on_c, 0, 99, 0
1, 18900, Note_on_c, 0, 51, 0
1, 18900, Note_on_c, 0, 82, 0
1, 18960, Note_on_c, 0, 75, 43
1, 18960, Note_on_c, 0, 58, 34
1, 18960, Note_on_c, 0, 67, 37
1, 19080, Note_on_c, 0, 99, 39
1, 19136, Control_c, 0, 64, 0
1, 19140, Note_on_c, 0, 99, 0
1, 19140, Note_on_c, 0, 75, 0
1, 19140, Note_on_c, 0, 58, 0
1, 19140, Note_on_c, 0, 67, 0
1, 19200, Tempo, 618557
1, 19200, Note_on_c, 0, 75, 43
1, 19320, Note_on_c, 0, 87, 40
1, 19380, Note_on_c, 0, 87, 0
1, 19380, Note_on_c, 0, 75, 0
1, 19380, Note_on_c, 0, 78, 46
1, 19440, Tempo, 568720
1, 19440, Note_on_c, 0, 78, 0
1, 19440, Note_on_c, 0, 76, 47
1, 19440, Note_on_c, 0, 67, 33
1, 19440, Note_on_c, 0, 70, 36
1, 19483, Control_c, 0, 64, 127
1, 19560, Tempo, 588235
1, 19560, Note_on_c, 0, 87, 41
1, 19620, Note_on_c, 0, 87, 0
1, 19620, Note_on_c, 0, 76, 0
1, 19620, Note_on_c, 0, 67, 0
1, 19620, Note_on_c, 0, 70, 0
1, 19680, Tempo, 603015
1, 19680, Note_on_c, 0, 75, 46
1, 19680, Note_on_c, 0, 70, 36
1, 19680, Note_on_c, 0, 67, 33
1, 19800, Note_on_c, 0, 87, 40
1, 19860, Note_on_c, 0, 87, 0
1, 19860, Note_on_c, 0, 75, 0
1, 19860, Note_on_c, 0, 70, 0
1, 19860, Note_on_c, 0, 67, 0
1, 19899, Control_c, 0, 64, 0
1, 19920, Note_on_c, 0, 73, 46
1, 20040, Note_on_c, 0, 87, 39
1, 20100, Note_on_c, 0, 87, 0
1, 20100, Note_on_c, 0, 73, 0
1, 20100, Note_on_c, 0, 73, 50
1, 20160, Tempo, 574163
1, 20160, Note_on_c, 0, 73, 0
1, 20160, Note_on_c, 0, 71, 50
1, 20160, Note_on_c, 0, 68, 40
1, 20199, Control_c, 0, 64, 127
1, 20280, Tempo, 600000
1, 20280, Note_on_c, 0, 87, 40
1, 20340, Note_on_c, 0, 87, 0
1, 20340, Note_on_c, 0, 68, 0
1, 20340, Note_on_c, 0, 71, 0
1, 20400, Note_on_c, 0, 71, 45
1, 20400, Note_on_c, 0, 68, 40
1, 20520, Note_on_c, 0, 87, 40
1, 20580, Note_on_c, 0, 87, 0
1, 20580, Note_on_c, 0, 68, 0
1, 20580, Note_on_c, 0, 71, 0
1, 20580, Control_c, 0, 64, 0
1, 20640, Tempo, 615385
1, 20640, Note_on_c, 0, 70, 43
1, 20760, Note_on_c, 0, 87, 40
1, 20820, Note_on_c, 0, 87, 0
1, 20820, Note_on_c, 0, 70, 0
1, 20820, Note_on_c, 0, 70, 50
1, 20880, Tempo, 603015
1, 20880, Note_on_c, 0, 70, 0
1, 20880, Note_on_c, 0, 68, 50
1, 20880, Note_on_c, 0, 59, 32
1, 20880, Note_on_c, 0, 65, 36
1, 20880, Note_on_c, 0, 62, 32
1, 20890, Tempo, 606061
1, 20933, Control_c, 0, 64, 127
1, 21000, Note_on_c, 0, 87, 40
1, 21040, Tempo, 609137
1, 21060, Note_on_c, 0, 87, 0
1, 21060, Note_on_c, 0, 65, 0
1, 21060, Note_on_c, 0, 68, 0
1, 21060, Note_on_c, 0, 59, 0
1, 21060, Note_on_c, 0, 62, 0
1, 21120, Tempo, 618557
1, 21120, Note_on_c, 0, 67, 45
1, 21120, Note_on_c, 0, 59, 32
1, 21120, Note_on_c, 0, 65, 36
1, 21120, Note_on_c, 0, 62, 32
1, 21180, Tempo, 612245
1, 21240, Note_on_c, 0, 87, 40
1, 21282, Control_c, 0, 64, 0
1, 21300, Note_on_c, 0, 87, 0
1, 21300, Note_on_c, 0, 65, 0
1, 21300, Note_on_c, 0, 67, 0
1, 21300, Note_on_c, 0, 59, 0
1, 21300, Note_on_c, 0, 62, 0
1, 21320, Tempo, 615385
1, 21360, Tempo, 625000
1, 21360, Note_on_c, 0, 68, 45
1, 21460, Tempo, 618557
1, 21480, Tempo, 621762
1, 21480, Note_on_c, 0, 87, 40
1, 21540, Note_on_c, 0, 87, 0
1, 21540, Note_on_c, 0, 68, 0
1, 21600, Tempo, 631579
1, 21600, Note_on_c, 0, 70, 46
1, 21600, Note_on_c, 0, 67, 35
1, 21600, Note_on_c, 0, 51, 31
1, 21720, Note_on_c, 0, 87, 39
1, 21780, Note_on_c, 0, 87, 0
1, 21780, Note_on_c, 0, 70, 0
1, 21780, Note_on_c, 0, 67, 0
1, 21780, Note_on_c, 0, 51, 0
1, 21840, Tempo, 648649
1, 21840, Note_on_c, 0, 63, 43
1, 21960, Note_on_c, 0, 75, 39
1, 22020, Note_on_c, 0, 75, 0
1, 22020, Note_on_c, 0, 63, 0
1, 22080, Tempo, 618557
1, 22080, Note_on_c, 0, 75, 43
1, 22200, Note_on_c, 0, 87, 40
1, 22260, Note_on_c, 0, 87, 0
1, 22260, Note_on_c, 0, 75, 0
1, 22310, Tempo, 612245
1, 22320, Note_on_c, 0, 87, 50
1, 22440, Note_on_c, 0, 99, 45
1, 22480, Tempo, 609137
1, 22500, Note_on_c, 0, 99, 0
1, 22500, Note_on_c, 0, 87, 0
1, 22560, Note_on_c, 0, 87, 46
1, 22640, Tempo, 606061
1, 22680, Note_on_c, 0, 99, 43
1, 22740, Note_on_c, 0, 99, 0
1, 22740, Note_on_c, 0, 87, 0
1, 22800, Tempo, 603015
1, 22800, Note_on_c, 0, 85, 46
1, 22920, Note_on_c, 0, 99, 39
1, 22980, Note_on_c, 0, 99, 0
1, 22980, Note_on_c, 0, 85, 0
1, 22980, Note_on_c, 0, 85, 54
1, 23040, Tempo, 560748
1, 23040, Note_on_c, 0, 85, 0
1, 23040, Note_on_c, 0, 83, 54
1, 23040, Note_on_c, 0, 44, 39
1, 23083, Control_c, 0, 64, 127
1, 23160, Note_on_c, 0, 99, 45
1, 23220, Note_on_c, 0, 99, 0
1, 23220, Note_on_c, 0, 44, 0
1, 23220, Note_on_c, 0, 83, 0
1, 23280, Tempo, 600000
1, 23280, Note_on_c, 0, 83, 45
1, 23280, Note_on_c, 0, 59, 36
1, 23280, Note_on_c, 0, 51, 33
1, 23400, Note_on_c, 0, 99, 40
1, 23460, Note_on_c, 0, 99, 0
1, 23460, Note_on_c, 0, 83, 0
1, 23460, Note_on_c, 0, 59, 0
1, 23460, Note_on_c, 0, 51, 0
1, 23513, Control_c, 0, 64, 0
1, 23520, Tempo, 615385
1, 23520, Note_on_c, 0, 82, 45
1, 23640, Note_on_c, 0, 99, 40
1, 23700, Note_on_c, 0, 99, 0
1, 23700, Note_on_c, 0, 82, 0
1, 23700, Note_on_c, 0, 82, 46
1, 23760, Tempo, 563380
1, 23760, Note_on_c, 0, 82, 0
1, 23760, Note_on_c, 0, 80, 51
1, 23760, Note_on_c, 0, 47, 39
1, 23806, Control_c, 0, 64, 127
1, 23880, Note_on_c, 0, 99, 40
1, 23940, Note_on_c, 0, 99, 0
1, 23940, Note_on_c, 0, 47, 0
1, 23940, Note_on_c, 0, 80, 0
1, 24000, Tempo, 609137
1, 24000, Note_on_c, 0, 79, 45
1, 24000, Note_on_c, 0, 56, 33
1, 24000, Note_on_c, 0, 63, 36
1, 24120, Note_on_c, 0, 99, 40
1, 24180, Note_on_c, 0, 99, 0
1, 24180, Note_on_c, 0, 79, 0
1, 24180, Note_on_c, 0, 56, 0
1, 24180, Note_on_c, 0, 63, 0
1, 24201, Control_c, 0, 64, 0
1, 24240, Note_on_c, 0, 80, 45
1, 24360, Note_on_c, 0, 99, 40
1, 24420, Note_on_c, 0, 99, 0
1, 24420, Note_on_c, 0, 80, 0
1, 24420, Note_on_c, 0, 79, 52
1, 24450, Note_on_c, 0, 79, 0
1, 24450, Note_on_c, 0, 80, 54
1, 24480, Tempo, 568720
1, 24480, Note_on_c, 0, 80, 0
1, 24480, Note_on_c, 0, 82, 55
1, 24480, Note_on_c, 0, 51, 39
1, 24523, Control_c, 0, 64, 127
1, 24600, Note_on_c, 0, 99, 39
1, 24660, Note_on_c, 0, 99, 0
1, 24660, Note_on_c, 0, 51, 0
1, 24660, Note_on_c, 0, 82, 0
1, 24720, Tempo, 603015
1, 24720, Note_on_c, 0, 75, 43
1, 24720, Note_on_c, 0, 58, 33
1, 24720, Note_on_c, 0, 67, 36
1, 24840, Note_on_c, 0, 99, 39
1, 24900, Note_on_c, 0, 99, 0
1, 24900, Note_on_c, 0, 75, 0
1, 24900, Note_on_c, 0, 58, 0
1, 24900, Note_on_c, 0, 67, 0
1, 24956, Control_c, 0, 64, 0
1, 24960, Tempo, 628272
1, 24960, Note_on_c, 0, 75, 43
1, 25080, Tempo, 576923
1, 25080, Note_on_c, 0, 87, 40
1, 25140, Note_on_c, 0, 87, 0
1, 25140, Note_on_c, 0, 75, 0
1, 25140, Note_on_c, 0, 78, 46
1, 25200, Tempo, 609137
1, 25200, Note_on_c, 0, 78, 0
1, 25200, Note_on_c, 0, 76, 50
1, 25200, Note_on_c, 0, 68, 31
1, 25200, Note_on_c, 0, 70, 35
1, 25200, Note_on_c, 0, 61, 31
1, 25320, Note_on_c, 0, 92, 44
1, 25380, Note_on_c, 0, 92, 0
1, 25380, Note_on_c, 0, 70, 0
1, 25380, Note_on_c, 0, 76, 0
1, 25380, Note_on_c, 0, 68, 0
1, 25380, Note_on_c, 0, 61, 0
1, 25440, Note_on_c, 0, 75, 46
1, 25440, Note_on_c, 0, 68, 31
1, 25440, Note_on_c, 0, 70, 35
1, 25440, Note_on_c, 0, 63, 31
1, 25560, Note_on_c, 0, 92, 44
1, 25620, Note_on_c, 0, 92, 0
1, 25620, Note_on_c, 0, 70, 0
1, 25620, Note_on_c, 0, 75, 0
1, 25620, Note_on_c, 0, 68, 0
1, 25620, Note_on_c, 0, 63, 0
1, 25680, Note_on_c, 0, 73, 46
1, 25680, Note_on_c, 0, 70, 35
1, 25680, Note_on_c, 0, 64, 31
1, 25680, Note_on_c, 0, 68, 31
1, 25800, Tempo, 628272
1, 25800, Note_on_c, 0, 92, 44
1, 25860, Note_on_c, 0, 92, 0
1, 25860, Note_on_c, 0, 64, 0
1, 25860, Note_on_c, 0, 73, 0
1, 25860, Note_on_c, 0, 70, 0
1, 25860, Note_on_c, 0, 68, 0
1, 25920, Tempo, 571429
1, 25920, Note_on_c, 0, 75, 46
1, 25920, Note_on_c, 0, 63, 35
1, 25920, Note_on_c, 0, 71, 39
1, 25920, Note_on_c, 0, 68, 35
1, 25949, Control_c, 0, 64, 127
1, 26010, Note_on_c, 0, 75, 0
1, 26037, Control_c, 0, 64, 0
1, 26040, Note_on_c, 0, 87, 39
1, 26100, Note_on_c, 0, 87, 0
1, 26100, Note_on_c, 0, 68, 0
1, 26100, Note_on_c, 0, 71, 0
1, 26100, Note_on_c, 0, 63, 0
1, 26160, Tempo, 582524
1, 26160, Note_on_c, 0, 80, 39
1, 26220, Note_on_c, 0, 80, 0
1, 26280, Tempo, 585366
1, 26280, Note_on_c, 0, 83, 39
1, 26340, Note_on_c, 0, 83, 0
1, 26400, Tempo, 606061
1, 26400, Note_on_c, 0, 87, 46
1, 26412, Control_c, 0, 64, 127
1, 26490, Note_on_c, 0, 87, 0
1, 26520, Tempo, 621762
1, 26520, Note_on_c, 0, 99, 41
1, 26532, Control_c, 0, 64, 0
1, 26580, Note_on_c, 0, 99, 0
1, 26640, Tempo, 576923
1, 26640, Note_on_c, 0, 75, 46
1, 26640, Note_on_c, 0, 61, 30
1, 26640, Note_on_c, 0, 67, 34
1, 26640, Note_on_c, 0, 51, 30
1, 26677, Control_c, 0, 64, 127
1, 26730, Note_on_c, 0, 75, 0
1, 26760, Note_on_c, 0, 87, 39
1, 26777, Control_c, 0, 64, 0
1, 26820, Note_on_c, 0, 87, 0
1, 26820, Note_on_c, 0, 51, 0
1, 26820, Note_on_c, 0, 67, 0
1, 26820, Note_on_c, 0, 61, 0
1, 26880, Tempo, 591133
1, 26880, Note_on_c, 0, 79, 39
1, 26940, Note_on_c, 0, 79, 0
1, 27000, Tempo, 606061
1, 27000, Note_on_c, 0, 82, 39
1, 27060, Note_on_c, 0, 82, 0
1, 27120, Note_on_c, 0, 87, 46
1, 27175, Control_c, 0, 64, 127
1, 27210, Note_on_c, 0, 87, 0
1, 27240, Tempo, 659341
1, 27240, Note_on_c, 0, 99, 45
1, 27300, Note_on_c, 0, 99, 0
1, 27300, Control_c, 0, 64, 0
1, 27360, Tempo, 609137
1, 27360, Note_on_c, 0, 44, 45
1, 27450, Note_on_c, 0, 44, 0
1, 27480, Note_on_c, 0, 59, 40
1, 27494, Control_c, 0, 64, 127
1, 27570, Note_on_c, 0, 59, 0
1, 27600, Note_on_c, 0, 63, 40
1, 27690, Note_on_c, 0, 63, 0
1, 27720, Note_on_c, 0, 68, 37
1, 27810, Note_on_c, 0, 68, 0
1, 27840, Note_on_c, 0, 75, 37
1, 27930, Note_on_c, 0, 75, 0
1, 27960, Note_on_c, 0, 80, 36
1, 28050, Note_on_c, 0, 80, 0
1, 28080, Tempo, 615385
1, 28080, Note_on_c, 0, 83, 35
1, 28140, Tempo, 618557
1, 28170, Note_on_c, 0, 83, 0
1, 28200, Tempo, 621762
1, 28200, Note_on_c, 0, 87, 35
1, 28260, Tempo, 625000
1, 28290, Note_on_c, 0, 87, 0
1, 28310, Tempo, 628272
1, 28320, Note_on_c, 0, 92, 34
1, 28370, Control_c, 0, 64, 0
1, 28410, Note_on_c, 0, 92, 0
1, 29257, Tempo, 621762
1, 29280, Tempo, 598922
1, 29280, Note_on_c, 0, 71, 45
1, 29400, Note_on_c, 0, 67, 36
1, 29400, Note_on_c, 0, 70, 41
1, 29460, Note_on_c, 0, 71, 0
1, 29490, Note_on_c, 0, 70, 0
1, 29490, Note_on_c, 0, 67, 0
1, 29520, Note_on_c, 0, 71, 47
1, 29640, Note_on_c, 0, 66, 39
1, 29640, Note_on_c, 0, 69, 44
1, 29700, Note_on_c, 0, 71, 0
1, 29730, Note_on_c, 0, 69, 0
1, 29730, Note_on_c, 0, 66, 0
1, 29760, Tempo, 598922
1, 29760, Note_on_c, 0, 71, 50
1, 29820, Tempo, 595829
1, 29880, Tempo, 592710
1, 29880, Note_on_c, 0, 65, 41
1, 29880, Note_on_c, 0, 68, 45
1, 29940, Tempo, 589681
1, 29940, Note_on_c, 0, 71, 0
1, 29970, Note_on_c, 0, 68, 0
1, 29970, Note_on_c, 0, 65, 0
1, 29990, Tempo, 586625
1, 30000, Tempo, 595474
1, 30000, Note_on_c, 0, 71, 54
1, 30120, Tempo, 558295
1, 30120, Note_on_c, 0, 64, 43
1, 30120, Note_on_c, 0, 67, 47
1, 30180, Note_on_c, 0, 71, 0
1, 30210, Note_on_c, 0, 67, 0
1, 30210, Note_on_c, 0, 64, 0
1, 30240, Tempo, 552944
1, 30240, Note_on_c, 0, 73, 54
1, 30300, Note_on_c, 0, 73, 0
1, 30300, Note_on_c, 0, 71, 54
1, 30360, Note_on_c, 0, 71, 0
1, 30360, Note_on_c, 0, 70, 54
1, 30420, Note_on_c, 0, 70, 0
1, 30420, Note_on_c, 0, 71, 54
1, 30480, Tempo, 569206
1, 30480, Note_on_c, 0, 71, 0
1, 30480, Note_on_c, 0, 66, 61
1, 30480, Note_on_c, 0, 63, 35
1, 30480, Note_on_c, 0, 59, 31
1, 30570, Note_on_c, 0, 66, 0
1, 30600, Tempo, 563645
1, 30600, Note_on_c, 0, 90, 54
1, 30660, Note_on_c, 0, 59, 0
1, 30660, Note_on_c, 0, 63, 0
1, 30690, Note_on_c, 0, 90, 0
1, 30720, Note_on_c, 0, 71, 62
1, 30720, Note_on_c, 0, 66, 35
1, 30720, Note_on_c, 0, 63, 31
1, 30720, Note_on_c, 0, 54, 31
1, 30810, Note_on_c, 0, 71, 0
1, 30840, Tempo, 574548
1, 30840, Note_on_c, 0, 90, 54
1, 30900, Note_on_c, 0, 66, 0
1, 30900, Note_on_c, 0, 54, 0
1, 30900, Note_on_c, 0, 63, 0
1, 30930, Note_on_c, 0, 90, 0
1, 30960, Tempo, 552944
1, 30960, Note_on_c, 0, 75, 56
1, 31020, Note_on_c, 0, 75, 0
1, 31020, Note_on_c, 0, 73, 56
1, 31080, Note_on_c, 0, 73, 0
1, 31080, Note_on_c, 0, 72, 56
1, 31140, Note_on_c, 0, 72, 0
1, 31140, Note_on_c, 0, 73, 56
1, 31200, Tempo, 569206
1, 31200, Note_on_c, 0, 73, 0
1, 31200, Note_on_c, 0, 66, 63
1, 31200, Note_on_c, 0, 64, 36
1, 31200, Note_on_c, 0, 58, 32
1, 31290, Note_on_c, 0, 66, 0
1, 31320, Tempo, 563645
1, 31320, Note_on_c, 0, 90, 61
1, 31380, Note_on_c, 0, 58, 0
1, 31380, Note_on_c, 0, 64, 0
1, 31410, Note_on_c, 0, 90, 0
1, 31440, Note_on_c, 0, 73, 63
1, 31440, Note_on_c, 0, 66, 36
1, 31440, Note_on_c, 0, 64, 32
1, 31440, Note_on_c, 0, 54, 32
1, 31530, Note_on_c, 0, 73, 0
1, 31560, Tempo, 571864
1, 31560, Note_on_c, 0, 90, 61
1, 31620, Note_on_c, 0, 66, 0
1, 31620, Note_on_c, 0, 54, 0
1, 31620, Note_on_c, 0, 64, 0
1, 31650, Note_on_c, 0, 90, 0
1, 31680, Tempo, 552944
1, 31680, Note_on_c, 0, 76, 54
1, 31740, Note_on_c, 0, 76, 0
1, 31740, Note_on_c, 0, 75, 54
1, 31800, Note_on_c, 0, 75, 0
1, 31800, Note_on_c, 0, 74, 54
1, 31860, Note_on_c, 0, 74, 0
1, 31860, Note_on_c, 0, 75, 54
1, 31920, Tempo, 563645
1, 31920, Note_on_c, 0, 75, 0
1, 31920, Note_on_c, 0, 71, 61
1, 31920, Note_on_c, 0, 63, 35
1, 31920, Note_on_c, 0, 59, 35
1, 32010, Note_on_c, 0, 71, 0
1, 32040, Note_on_c, 0, 90, 59
1, 32130, Note_on_c, 0, 90, 0
1, 32160, Tempo, 571429
1, 32160, Note_on_c, 0, 59, 0
1, 32160, Note_on_c, 0, 63, 0
1, 32160, Note_on_c, 0, 75, 45
1, 32280, Note_on_c, 0, 71, 36
1, 32280, Note_on_c, 0, 74, 41
1, 32340, Note_on_c, 0, 75, 0
1, 32370, Note_on_c, 0, 74, 0
1, 32370, Note_on_c, 0, 71, 0
1, 32400, Tempo, 579710
1, 32400, Note_on_c, 0, 75, 47
1, 32520, Note_on_c, 0, 70, 39
1, 32520, Note_on_c, 0, 73, 44
1, 32580, Note_on_c, 0, 75, 0
1, 32610, Note_on_c, 0, 73, 0
1, 32610, Note_on_c, 0, 70, 0
1, 32640, Note_on_c, 0, 75, 50
1, 32760, Note_on_c, 0, 69, 41
1, 32760, Note_on_c, 0, 72, 45
1, 32820, Note_on_c, 0, 75, 0
1, 32850, Note_on_c, 0, 72, 0
1, 32850, Note_on_c, 0, 69, 0
1, 32880, Note_on_c, 0, 75, 54
1, 33000, Tempo, 558295
1, 33000, Note_on_c, 0, 68, 43
1, 33000, Note_on_c, 0, 71, 47
1, 33060, Note_on_c, 0, 75, 0
1, 33090, Note_on_c, 0, 71, 0
1, 33090, Note_on_c, 0, 68, 0
1, 33120, Tempo, 547745
1, 33120, Note_on_c, 0, 77, 54
1, 33180, Note_on_c, 0, 77, 0
1, 33180, Note_on_c, 0, 75, 54
1, 33240, Note_on_c, 0, 75, 0
1, 33240, Note_on_c, 0, 74, 54
1, 33300, Note_on_c, 0, 74, 0
1, 33300, Note_on_c, 0, 75, 54
1, 33360, Tempo, 563645
1, 33360, Note_on_c, 0, 75, 0
1, 33360, Note_on_c, 0, 70, 61
1, 33360, Note_on_c, 0, 63, 31
1, 33360, Note_on_c, 0, 66, 35
1, 33450, Note_on_c, 0, 70, 0
1, 33480, Tempo, 555556
1, 33480, Note_on_c, 0, 94, 59
1, 33540, Note_on_c, 0, 66, 0
1, 33540, Note_on_c, 0, 63, 0
1, 33570, Note_on_c, 0, 94, 0
1, 33600, Note_on_c, 0, 75, 62
1, 33600, Note_on_c, 0, 70, 35
1, 33600, Note_on_c, 0, 66, 31
1, 33600, Note_on_c, 0, 58, 31
1, 33690, Note_on_c, 0, 75, 0
1, 33720, Tempo, 569206
1, 33720, Note_on_c, 0, 94, 59
1, 33780, Note_on_c, 0, 70, 0
1, 33780, Note_on_c, 0, 58, 0
1, 33780, Note_on_c, 0, 66, 0
1, 33810, Note_on_c, 0, 94, 0
1, 33840, Tempo, 547745
1, 33840, Note_on_c, 0, 78, 56
1, 33900, Note_on_c, 0, 78, 0
1, 33900, Note_on_c, 0, 77, 56
1, 33960, Note_on_c, 0, 77, 0
1, 33960, Note_on_c, 0, 76, 56
1, 34020, Note_on_c, 0, 76, 0
1, 34020, Note_on_c, 0, 77, 56
1, 34080, Tempo, 563645
1, 34080, Note_on_c, 0, 77, 0
1, 34080, Note_on_c, 0, 70, 63
1, 34080, Note_on_c, 0, 68, 36
1, 34080, Note_on_c, 0, 62, 32
1, 34170, Note_on_c, 0, 70, 0
1, 34200, Tempo, 555556
1, 34200, Note_on_c, 0, 94, 60
1, 34260, Note_on_c, 0, 62, 0
1, 34260, Note_on_c, 0, 68, 0
1, 34290, Note_on_c, 0, 94, 0
1, 34320, Note_on_c, 0, 77, 62
1, 34320, Note_on_c, 0, 70, 36
1, 34320, Note_on_c, 0, 68, 32
1, 34320, Note_on_c, 0, 58, 32
1, 34410, Note_on_c, 0, 77, 0
1, 34440, Tempo, 563910
1, 34440, Note_on_c, 0, 94, 60
1, 34500, Note_on_c, 0, 70, 0
1, 34500, Note_on_c, 0, 58, 0
1, 34500, Note_on_c, 0, 68, 0
1, 34530, Note_on_c, 0, 94, 0
1, 34560, Tempo, 547745
1, 34560, Note_on_c, 0, 80, 54
1, 34620, Note_on_c, 0, 80, 0
1, 34620, Note_on_c, 0, 78, 54
1, 34680, Note_on_c, 0, 78, 0
1, 34680, Note_on_c, 0, 77, 54
1, 34740, Note_on_c, 0, 77, 0
1, 34740, Note_on_c, 0, 78, 54
1, 34800, Tempo, 563645
1, 34800, Note_on_c, 0, 78, 0
1, 34800, Note_on_c, 0, 75, 61
1, 34800, Note_on_c, 0, 63, 31
1, 34800, Note_on_c, 0, 66, 35
1, 34890, Note_on_c, 0, 75, 0
1, 34920, Note_on_c, 0, 94, 59
1, 35010, Note_on_c, 0, 94, 0
1, 35040, Tempo, 568720
1, 35040, Note_on_c, 0, 66, 0
1, 35040, Note_on_c, 0, 63, 0
1, 35040, Note_on_c, 0, 78, 45
1, 35160, Note_on_c, 0, 74, 36
1, 35160, Note_on_c, 0, 77, 41
1, 35220, Note_on_c, 0, 78, 0
1, 35250, Note_on_c, 0, 77, 0
1, 35250, Note_on_c, 0, 74, 0
1, 35280, Note_on_c, 0, 78, 47
1, 35400, Note_on_c, 0, 73, 39
1, 35400, Note_on_c, 0, 76, 44
1, 35460, Note_on_c, 0, 78, 0
1, 35490, Note_on_c, 0, 76, 0
1, 35490, Note_on_c, 0, 73, 0
1, 35520, Note_on_c, 0, 78, 50
1, 35640, Note_on_c, 0, 75, 45
1, 35640, Note_on_c, 0, 72, 41
1, 35700, Note_on_c, 0, 78, 0
1, 35730, Note_on_c, 0, 72, 0
1, 35730, Note_on_c, 0, 75, 0
1, 35760, Note_on_c, 0, 78, 54
1, 35880, Tempo, 558295
1, 35880, Note_on_c, 0, 74, 47
1, 35880, Note_on_c, 0, 71, 43
1, 35940, Note_on_c, 0, 78, 0
1, 35970, Note_on_c, 0, 71, 0
1, 35970, Note_on_c, 0, 74, 0
1, 36000, Tempo, 547745
1, 36000, Note_on_c, 0, 80, 54
1, 36060, Note_on_c, 0, 80, 0
1, 36060, Note_on_c, 0, 78, 54
1, 36120, Note_on_c, 0, 78, 0
1, 36120, Note_on_c, 0, 77, 54
1, 36180, Note_on_c, 0, 77, 0
1, 36180, Note_on_c, 0, 78, 54
1, 36240, Tempo, 563645
1, 36240, Note_on_c, 0, 78, 0
1, 36240, Note_on_c, 0, 73, 61
1, 36240, Note_on_c, 0, 70, 35
1, 36240, Note_on_c, 0, 66, 31
1, 36330, Note_on_c, 0, 73, 0
1, 36360, Tempo, 555556
1, 36360, Note_on_c, 0, 97, 64
1, 36420, Note_on_c, 0, 66, 0
1, 36420, Note_on_c, 0, 70, 0
1, 36450, Note_on_c, 0, 97, 0
1, 36480, Note_on_c, 0, 78, 62
1, 36480, Note_on_c, 0, 70, 31
1, 36480, Note_on_c, 0, 73, 35
1, 36480, Note_on_c, 0, 61, 35
1, 36570, Note_on_c, 0, 78, 0
1, 36600, Tempo, 563910
1, 36600, Note_on_c, 0, 97, 64
1, 36660, Note_on_c, 0, 70, 0
1, 36660, Note_on_c, 0, 61, 0
1, 36660, Note_on_c, 0, 73, 0
1, 36690, Note_on_c, 0, 97, 0
1, 36720, Tempo, 547745
1, 36720, Note_on_c, 0, 82, 56
1, 36780, Note_on_c, 0, 82, 0
1, 36780, Note_on_c, 0, 80, 56
1, 36840, Note_on_c, 0, 80, 0
1, 36840, Note_on_c, 0, 79, 56
1, 36900, Note_on_c, 0, 79, 0
1, 36900, Note_on_c, 0, 80, 56
1, 36960, Tempo, 563645
1, 36960, Note_on_c, 0, 80, 0
1, 36960, Note_on_c, 0, 73, 63
1, 36960, Note_on_c, 0, 71, 36
1, 36960, Note_on_c, 0, 65, 32
1, 37050, Note_on_c, 0, 73, 0
1, 37080, Tempo, 555556
1, 37080, Note_on_c, 0, 97, 64
1, 37140, Note_on_c, 0, 65, 0
1, 37140, Note_on_c, 0, 71, 0
1, 37170, Note_on_c, 0, 97, 0
1, 37200, Note_on_c, 0, 80, 62
1, 37200, Note_on_c, 0, 73, 36
1, 37200, Note_on_c, 0, 71, 32
1, 37200, Note_on_c, 0, 61, 32
1, 37290, Note_on_c, 0, 80, 0
1, 37320, Tempo, 594177
1, 37320, Note_on_c, 0, 97, 64
1, 37380, Note_on_c, 0, 73, 0
1, 37380, Note_on_c, 0, 61, 0
1, 37380, Note_on_c, 0, 71, 0
1, 37401, Tempo, 585366
1, 37410, Note_on_c, 0, 97, 0
1, 37440, Tempo, 576923
1, 37440, Note_on_c, 0, 82, 47
1, 37440, Note_on_c, 0, 78, 46
1, 37530, Note_on_c, 0, 78, 0
1, 37530, Note_on_c, 0, 82, 0
1, 37560, Tempo, 600000
1, 37560, Note_on_c, 0, 83, 47
1, 37560, Note_on_c, 0, 80, 46
1, 37620, Note_on_c, 0, 66, 47
1, 37650, Note_on_c, 0, 80, 0
1, 37650, Note_on_c, 0, 83, 0
1, 37680, Tempo, 576923
1, 37680, Note_on_c, 0, 85, 50
1, 37680, Note_on_c, 0, 82, 47
1, 37744, Control_c, 0, 64, 127
1, 37800, Note_on_c, 0, 97, 55
1, 37800, Note_on_c, 0, 94, 55
1, 37920, Note_on_c, 0, 94, 0
1, 37920, Note_on_c, 0, 82, 0
1, 37920, Note_on_c, 0, 66, 0
1, 37920, Note_on_c, 0, 85, 0
1, 37920, Note_on_c, 0, 97, 0
1, 37920, Note_on_c, 0, 83, 47
1, 37920, Note_on_c, 0, 80, 46
1, 37934, Control_c, 0, 64, 0
1, 38010, Note_on_c, 0, 80, 0
1, 38010, Note_on_c, 0, 83, 0
1, 38040, Note_on_c, 0, 82, 47
1, 38040, Note_on_c, 0, 78, 46
1, 38130, Note_on_c, 0, 78, 0
1, 38130, Note_on_c, 0, 82, 0
1, 38160, Note_on_c, 0, 80, 47
1, 38160, Note_on_c, 0, 71, 46
1, 38250, Note_on_c, 0, 71, 0
1, 38250, Note_on_c, 0, 80, 0
1, 38280, Tempo, 588235
1, 38280, Note_on_c, 0, 82, 47
1, 38280, Note_on_c, 0, 73, 46
1, 38340, Note_on_c, 0, 59, 49
1, 38370, Note_on_c, 0, 73, 0
1, 38370, Note_on_c, 0, 82, 0
1, 38400, Tempo, 576923
1, 38400, Note_on_c, 0, 83, 50
1, 38400, Note_on_c, 0, 75, 49
1, 38460, Control_c, 0, 64, 127
1, 38520, Note_on_c, 0, 95, 55
1, 38520, Note_on_c, 0, 87, 50
1, 38640, Note_on_c, 0, 87, 0
1, 38640, Note_on_c, 0, 75, 0
1, 38640, Note_on_c, 0, 59, 0
1, 38640, Note_on_c, 0, 83, 0
1, 38640, Note_on_c, 0, 95, 0
1, 38640, Note_on_c, 0, 82, 47
1, 38640, Note_on_c, 0, 73, 46
1, 38647, Control_c, 0, 64, 0
1, 38730, Note_on_c, 0, 73, 0
1, 38730, Note_on_c, 0, 82, 0
1, 38760, Note_on_c, 0, 80, 47
1, 38760, Note_on_c, 0, 71, 46
1, 38850, Note_on_c, 0, 71, 0
1, 38850, Note_on_c, 0, 80, 0
1, 38880, Note_on_c, 0, 78, 47
1, 38880, Note_on_c, 0, 70, 46
1, 38970, Note_on_c, 0, 70, 0
1, 38970, Note_on_c, 0, 78, 0
1, 39000, Tempo, 591133
1, 39000, Note_on_c, 0, 80, 47
1, 39000, Note_on_c, 0, 71, 46
1, 39060, Note_on_c, 0, 61, 49
1, 39090, Note_on_c, 0, 71, 0
1, 39090, Note_on_c, 0, 80, 0
1, 39120, Tempo, 576923
1, 39120, Note_on_c, 0, 82, 50
1, 39120, Note_on_c, 0, 73, 49
1, 39191, Control_c, 0, 64, 127
1, 39240, Note_on_c, 0, 85, 47
1, 39240, Note_on_c, 0, 94, 54
1, 39360, Note_on_c, 0, 94, 0
1, 39360, Note_on_c, 0, 73, 0
1, 39360, Note_on_c, 0, 61, 0
1, 39360, Note_on_c, 0, 82, 0
1, 39360, Note_on_c, 0, 85, 0
1, 39360, Note_on_c, 0, 80, 47
1, 39360, Note_on_c, 0, 71, 46
1, 39381, Control_c, 0, 64, 0
1, 39450, Note_on_c, 0, 71, 0
1, 39450, Note_on_c, 0, 80, 0
1, 39480, Note_on_c, 0, 78, 47
1, 39480, Note_on_c, 0, 70, 46
1, 39570, Note_on_c, 0, 70, 0
1, 39570, Note_on_c, 0, 78, 0
1, 39600, Note_on_c, 0, 77, 47
1, 39600, Note_on_c, 0, 68, 46
1, 39690, Note_on_c, 0, 68, 0
1, 39690, Note_on_c, 0, 77, 0
1, 39720, Tempo, 594059
1, 39720, Note_on_c, 0, 78, 47
1, 39720, Note_on_c, 0, 70, 46
1, 39780, Note_on_c, 0, 61, 47
1, 39810, Note_on_c, 0, 70, 0
1, 39810, Note_on_c, 0, 78, 0
1, 39840, Tempo, 576923
1, 39840, Note_on_c, 0, 80, 50
1, 39840, Note_on_c, 0, 71, 47
1, 39897, Control_c, 0, 64, 127
1, 39960, Note_on_c, 0, 92, 51
1, 39960, Note_on_c, 0, 83, 45
1, 40080, Note_on_c, 0, 83, 0
1, 40080, Note_on_c, 0, 71, 0
1, 40080, Note_on_c, 0, 61, 0
1, 40080, Note_on_c, 0, 80, 0
1, 40080, Note_on_c, 0, 92, 0
1, 40080, Note_on_c, 0, 75, 47
1, 40080, Note_on_c, 0, 66, 47
1, 40105, Control_c, 0, 64, 0
1, 40170, Note_on_c, 0, 66, 0
1, 40170, Note_on_c, 0, 75, 0
1, 40200, Tempo, 594059
1, 40200, Note_on_c, 0, 77, 47
1, 40200, Note_on_c, 0, 68, 47
1, 40290, Note_on_c, 0, 68, 0
1, 40290, Note_on_c, 0, 77, 0
1, 40320, Tempo, 576923
1, 40320, Note_on_c, 0, 78, 50
1, 40320, Note_on_c, 0, 54, 44
1, 40320, Note_on_c, 0, 70, 49
1, 40440, Note_on_c, 0, 90, 45
1, 40440, Note_on_c, 0, 82, 40
1, 40500, Note_on_c, 0, 70, 0
1, 40500, Note_on_c, 0, 78, 0
1, 40500, Note_on_c, 0, 54, 0
1, 40560, Tempo, 582524
1, 40560, Note_on_c, 0, 90, 0
1, 40560, Note_on_c, 0, 82, 0
1, 40560, Note_on_c, 0, 66, 51
1, 40588, Control_c, 0, 64, 127
1, 40650, Note_on_c, 0, 66, 0
1, 40680, Note_on_c, 0, 78, 51
1, 40770, Note_on_c, 0, 78, 0
1, 40800, Note_on_c, 0, 67, 57
1, 40818, Control_c, 0, 64, 0
1, 40850, Control_c, 0, 64, 127
1, 40890, Note_on_c, 0, 67, 0
1, 40920, Note_on_c, 0, 79, 57
1, 41010, Note_on_c, 0, 79, 0
1, 41040, Tempo, 576923
1, 41040, Note_on_c, 0, 68, 61
1, 41050, Control_c, 0, 64, 0
1, 41093, Control_c, 0, 64, 127
1, 41130, Note_on_c, 0, 68, 0
1, 41160, Note_on_c, 0, 80, 61
1, 41250, Note_on_c, 0, 80, 0
1, 41280, Note_on_c, 0, 92, 65
1, 41280, Note_on_c, 0, 64, 43
1, 41280, Note_on_c, 0, 68, 47
1, 41299, Control_c, 0, 64, 0
1, 41400, Note_on_c, 0, 80, 56
1, 41460, Note_on_c, 0, 68, 0
1, 41460, Note_on_c, 0, 92, 0
1, 41460, Note_on_c, 0, 64, 0
1, 41520, Note_on_c, 0, 80, 0
1, 41520, Note_on_c, 0, 92, 65
1, 41520, Note_on_c, 0, 63, 43
1, 41520, Note_on_c, 0, 68, 47
1, 41640, Note_on_c, 0, 78, 55
1, 41700, Note_on_c, 0, 68, 0
1, 41700, Note_on_c, 0, 92, 0
1, 41700, Note_on_c, 0, 63, 0
1, 41760, Note_on_c, 0, 78, 0
1, 41760, Note_on_c, 0, 92, 67
1, 41760, Note_on_c, 0, 61, 45
1, 41760, Note_on_c, 0, 68, 52
1, 41880, Tempo, 591133
1, 41880, Note_on_c, 0, 76, 54
1, 41940, Note_on_c, 0, 68, 0
1, 41940, Note_on_c, 0, 92, 0
1, 41940, Note_on_c, 0, 61, 0
1, 42000, Tempo, 576923
1, 42000, Note_on_c, 0, 76, 0
1, 42000, Note_on_c, 0, 102, 70
1, 42000, Note_on_c, 0, 75, 47
1, 42120, Note_on_c, 0, 80, 55
1, 42180, Note_on_c, 0, 75, 0
1, 42180, Note_on_c, 0, 102, 0
1, 42240, Note_on_c, 0, 80, 0
1, 42240, Note_on_c, 0, 100, 70
1, 42240, Note_on_c, 0, 73, 47
1, 42360, Note_on_c, 0, 80, 55
1, 42420, Note_on_c, 0, 73, 0
1, 42420, Note_on_c, 0, 100, 0
1, 42480, Note_on_c, 0, 80, 0
1, 42480, Note_on_c, 0, 99, 70
1, 42480, Note_on_c, 0, 56, 45
1, 42480, Note_on_c, 0, 72, 51
1, 42600, Note_on_c, 0, 80, 55
1, 42660, Note_on_c, 0, 72, 0
1, 42660, Note_on_c, 0, 99, 0
1, 42720, Note_on_c, 0, 56, 0
1, 42720, Note_on_c, 0, 80, 0
1, 42720, Note_on_c, 0, 97, 70
1, 42720, Note_on_c, 0, 70, 47
1, 42840, Note_on_c, 0, 80, 55
1, 42900, Note_on_c, 0, 70, 0
1, 42900, Note_on_c, 0, 97, 0
1, 42960, Note_on_c, 0, 80, 0
1, 42960, Note_on_c, 0, 99, 70
1, 42960, Note_on_c, 0, 72, 47
1, 43080, Tempo, 597015
1, 43080, Note_on_c, 0, 80, 54
1, 43140, Note_on_c, 0, 72, 0
1, 43140, Note_on_c, 0, 99, 0
1, 43200, Tempo, 576923
1, 43200, Note_on_c, 0, 80, 0
1, 43200, Note_on_c, 0, 100, 73
1, 43200, Note_on_c, 0, 61, 45
1, 43200, Note_on_c, 0, 73, 51
1, 43320, Note_on_c, 0, 80, 54
1, 43380, Note_on_c, 0, 73, 0
1, 43380, Note_on_c, 0, 100, 0
1, 43440, Note_on_c, 0, 61, 0
1, 43440, Note_on_c, 0, 80, 0
1, 43440, Note_on_c, 0, 97, 69
1, 43440, Note_on_c, 0, 76, 47
1, 43560, Note_on_c, 0, 80, 55
1, 43620, Note_on_c, 0, 76, 0
1, 43620, Note_on_c, 0, 97, 0
1, 43680, Tempo, 594059
1, 43680, Note_on_c, 0, 80, 0
1, 43680, Note_on_c, 0, 67, 57
1, 43726, Control_c, 0, 64, 127
1, 43770, Note_on_c, 0, 67, 0
1, 43800, Note_on_c, 0, 79, 57
1, 43890, Note_on_c, 0, 79, 0
1, 43920, Tempo, 568720
1, 43920, Note_on_c, 0, 66, 61
1, 43938, Control_c, 0, 64, 0
1, 43977, Control_c, 0, 64, 127
1, 44010, Note_on_c, 0, 66, 0
1, 44040, Note_on_c, 0, 78, 61
1, 44130, Note_on_c, 0, 78, 0
1, 44160, Note_on_c, 0, 90, 65
1, 44160, Note_on_c, 0, 63, 43
1, 44160, Note_on_c, 0, 66, 47
1, 44177, Control_c, 0, 64, 0
1, 44280, Note_on_c, 0, 78, 56
1, 44340, Note_on_c, 0, 66, 0
1, 44340, Note_on_c, 0, 90, 0
1, 44340, Note_on_c, 0, 63, 0
1, 44400, Note_on_c, 0, 78, 0
1, 44400, Note_on_c, 0, 90, 65
1, 44400, Note_on_c, 0, 61, 43
1, 44400, Note_on_c, 0, 66, 47
1, 44520, Note_on_c, 0, 76, 55
1, 44580, Note_on_c, 0, 66, 0
1, 44580, Note_on_c, 0, 90, 0
1, 44580, Note_on_c, 0, 61, 0
1, 44640, Note_on_c, 0, 76, 0
1, 44640, Note_on_c, 0, 90, 67
1, 44640, Note_on_c, 0, 59, 45
1, 44640, Note_on_c, 0, 66, 52
1, 44760, Tempo, 591133
1, 44760, Note_on_c, 0, 75, 54
1, 44820, Note_on_c, 0, 66, 0
1, 44820, Note_on_c, 0, 90, 0
1, 44820, Note_on_c, 0, 59, 0
1, 44880, Tempo, 560748
1, 44880, Note_on_c, 0, 75, 0
1, 44880, Note_on_c, 0, 100, 70
1, 44880, Note_on_c, 0, 73, 47
1, 45000, Note_on_c, 0, 78, 55
1, 45060, Note_on_c, 0, 73, 0
1, 45060, Note_on_c, 0, 100, 0
1, 45120, Note_on_c, 0, 78, 0
1, 45120, Note_on_c, 0, 99, 70
1, 45120, Note_on_c, 0, 71, 47
1, 45240, Note_on_c, 0, 78, 55
1, 45300, Note_on_c, 0, 71, 0
1, 45300, Note_on_c, 0, 99, 0
1, 45360, Tempo, 568720
1, 45360, Note_on_c, 0, 78, 0
1, 45360, Note_on_c, 0, 97, 70
1, 45360, Note_on_c, 0, 54, 45
1, 45360, Note_on_c, 0, 70, 51
1, 45480, Note_on_c, 0, 78, 55
1, 45540, Note_on_c, 0, 70, 0
1, 45540, Note_on_c, 0, 97, 0
1, 45600, Note_on_c, 0, 54, 0
1, 45600, Note_on_c, 0, 78, 0
1, 45600, Note_on_c, 0, 95, 70
1, 45600, Note_on_c, 0, 68, 47
1, 45720, Note_on_c, 0, 78, 55
1, 45780, Note_on_c, 0, 68, 0
1, 45780, Note_on_c, 0, 95, 0
1, 45840, Note_on_c, 0, 78, 0
1, 45840, Note_on_c, 0, 97, 70
1, 45840, Note_on_c, 0, 70, 47
1, 45960, Tempo, 597015
1, 45960, Note_on_c, 0, 78, 54
1, 46020, Note_on_c, 0, 70, 0
1, 46020, Note_on_c, 0, 97, 0
1, 46080, Tempo, 576923
1, 46080, Note_on_c, 0, 78, 0
1, 46080, Note_on_c, 0, 99, 73
1, 46080, Note_on_c, 0, 59, 45
1, 46080, Note_on_c, 0, 71, 51
1, 46200, Note_on_c, 0, 78, 54
1, 46260, Note_on_c, 0, 71, 0
1, 46260, Note_on_c, 0, 99, 0
1, 46320, Note_on_c, 0, 59, 0
1, 46320, Note_on_c, 0, 78, 0
1, 46320, Note_on_c, 0, 95, 69
1, 46320, Note_on_c, 0, 75, 47
1, 46440, Note_on_c, 0, 78, 55
1, 46500, Note_on_c, 0, 75, 0
1, 46500, Note_on_c, 0, 95, 0
1, 46560, Tempo, 568720
1, 46560, Note_on_c, 0, 78, 0
1, 46560, Note_on_c, 0, 62, 57
1, 46650, Note_on_c, 0, 62, 0
1, 46680, Note_on_c, 0, 74, 52
1, 46770, Note_on_c, 0, 74, 0
1, 46800, Tempo, 563380
1, 46800, Note_on_c, 0, 63, 66
1, 46864, Control_c, 0, 64, 127
1, 46890, Note_on_c, 0, 63, 0
1, 46920, Note_on_c, 0, 75, 61
1, 47010, Note_on_c, 0, 75, 0
1, 47040, Tempo, 571429
1, 47040, Note_on_c, 0, 87, 61
1, 47040, Note_on_c, 0, 63, 52
1, 47040, Note_on_c, 0, 55, 45
1, 47059, Control_c, 0, 64, 0
1, 47130, Note_on_c, 0, 87, 0
1, 47160, Note_on_c, 0, 75, 52
1, 47220, Note_on_c, 0, 55, 0
1, 47220, Note_on_c, 0, 63, 0
1, 47250, Note_on_c, 0, 75, 0
1, 47280, Tempo, 568720
1, 47280, Note_on_c, 0, 87, 60
1, 47280, Note_on_c, 0, 56, 45
1, 47280, Note_on_c, 0, 65, 52
1, 47370, Note_on_c, 0, 87, 0
1, 47400, Note_on_c, 0, 74, 54
1, 47460, Note_on_c, 0, 65, 0
1, 47460, Note_on_c, 0, 56, 0
1, 47490, Note_on_c, 0, 74, 0
1, 47520, Tempo, 566038
1, 47520, Note_on_c, 0, 87, 61
1, 47520, Note_on_c, 0, 58, 52
1, 47520, Note_on_c, 0, 67, 57
1, 47610, Note_on_c, 0, 87, 0
1, 47640, Note_on_c, 0, 73, 55
1, 47700, Note_on_c, 0, 67, 0
1, 47700, Note_on_c, 0, 58, 0
1, 47730, Note_on_c, 0, 73, 0
1, 47760, Tempo, 563380
1, 47760, Note_on_c, 0, 87, 60
1, 47760, Note_on_c, 0, 58, 53
1, 47760, Note_on_c, 0, 67, 59
1, 47850, Note_on_c, 0, 87, 0
1, 47880, Note_on_c, 0, 73, 57
1, 47940, Note_on_c, 0, 67, 0
1, 47940, Note_on_c, 0, 58, 0
1, 48000, Tempo, 568720
1, 48000, Note_on_c, 0, 73, 0
1, 48000, Note_on_c, 0, 87, 61
1, 48000, Note_on_c, 0, 59, 53
1, 48000, Note_on_c, 0, 68, 59
1, 48090, Note_on_c, 0, 87, 0
1, 48120, Note_on_c, 0, 71, 64
1, 48180, Note_on_c, 0, 68, 0
1, 48180, Note_on_c, 0, 59, 0
1, 48210, Note_on_c, 0, 71, 0
1, 48240, Tempo, 555556
1, 48240, Note_on_c, 0, 76, 54
1, 48240, Note_on_c, 0, 88, 73
1, 48240, Note_on_c, 0, 61, 52
1, 48240, Note_on_c, 0, 70, 57
1, 48330, Note_on_c, 0, 88, 0
1, 48330, Note_on_c, 0, 76, 0
1, 48360, Note_on_c, 0, 82, 54
1, 48360, Note_on_c, 0, 87, 72
1, 48420, Note_on_c, 0, 61, 0
1, 48420, Note_on_c, 0, 70, 0
1, 48450, Note_on_c, 0, 82, 0
1, 48450, Note_on_c, 0, 87, 0
1, 48480, Note_on_c, 0, 73, 52
1, 48480, Note_on_c, 0, 85, 71
1, 48570, Note_on_c, 0, 85, 0
1, 48570, Note_on_c, 0, 73, 0
1, 48600, Note_on_c, 0, 76, 51
1, 48600, Note_on_c, 0, 83, 70
1, 48690, Note_on_c, 0, 83, 0
1, 48690, Note_on_c, 0, 76, 0
1, 48720, Note_on_c, 0, 71, 51
1, 48720, Note_on_c, 0, 82, 70
1, 48720, Note_on_c, 0, 62, 45
1, 48720, Note_on_c, 0, 65, 52
1, 48810, Note_on_c, 0, 82, 0
1, 48810, Note_on_c, 0, 71, 0
1, 48840, Tempo, 552995
1, 48840, Note_on_c, 0, 77, 51
1, 48840, Note_on_c, 0, 80, 69
1, 48900, Note_on_c, 0, 62, 0
1, 48900, Note_on_c, 0, 65, 0
1, 48930, Note_on_c, 0, 77, 0
1, 48930, Note_on_c, 0, 80, 0
1, 48940, Tempo, 538117
1, 48960, Tempo, 558140
1, 48960, Note_on_c, 0, 70, 51
1, 48960, Note_on_c, 0, 79, 69
1, 48960, Note_on_c, 0, 63, 50
1, 48960, Note_on_c, 0, 67, 55
1, 49050, Note_on_c, 0, 79, 0
1, 49050, Note_on_c, 0, 70, 0
1, 49080, Note_on_c, 0, 75, 47
1, 49080, Note_on_c, 0, 82, 65
1, 49140, Note_on_c, 0, 63, 0
1, 49140, Note_on_c, 0, 67, 0
1, 49170, Note_on_c, 0, 75, 0
1, 49170, Note_on_c, 0, 82, 0
1, 49200, Note_on_c, 0, 79, 45
1, 49200, Note_on_c, 0, 83, 62
1, 49220, Tempo, 545455
1, 49290, Note_on_c, 0, 83, 0
1, 49290, Note_on_c, 0, 79, 0
1, 49300, Tempo, 547945
1, 49320, Tempo, 568720
1, 49320, Note_on_c, 0, 75, 43
1, 49320, Note_on_c, 0, 82, 57
1, 49410, Note_on_c, 0, 82, 0
1, 49410, Note_on_c, 0, 75, 0
1, 49440, Tempo, 563380
1, 49440, Note_on_c, 0, 74, 57
1, 49468, Control_c, 0, 64, 127
1, 49530, Note_on_c, 0, 74, 0
1, 49560, Note_on_c, 0, 86, 52
1, 49650, Note_on_c, 0, 86, 0
1, 49680, Note_on_c, 0, 75, 66
1, 49699, Control_c, 0, 64, 0
1, 49733, Control_c, 0, 64, 127
1, 49770, Note_on_c, 0, 75, 0
1, 49800, Note_on_c, 0, 87, 61
1, 49890, Note_on_c, 0, 87, 0
1, 49920, Tempo, 571429
1, 49920, Note_on_c, 0, 99, 60
1, 49920, Note_on_c, 0, 75, 45
1, 49920, Note_on_c, 0, 67, 41
1, 49931, Control_c, 0, 64, 0
1, 50010, Note_on_c, 0, 99, 0
1, 50040, Note_on_c, 0, 87, 50
1, 50100, Note_on_c, 0, 67, 0
1, 50100, Note_on_c, 0, 75, 0
1, 50120, Tempo, 568720
1, 50130, Note_on_c, 0, 87, 0
1, 50160, Note_on_c, 0, 99, 56
1, 50160, Note_on_c, 0, 68, 41
1, 50160, Note_on_c, 0, 77, 45
1, 50250, Note_on_c, 0, 99, 0
1, 50280, Note_on_c, 0, 86, 52
1, 50300, Tempo, 566038
1, 50340, Note_on_c, 0, 77, 0
1, 50340, Note_on_c, 0, 68, 0
1, 50370, Note_on_c, 0, 86, 0
1, 50400, Note_on_c, 0, 99, 57
1, 50400, Note_on_c, 0, 70, 45
1, 50400, Note_on_c, 0, 79, 51
1, 50480, Tempo, 563380
1, 50490, Note_on_c, 0, 99, 0
1, 50520, Note_on_c, 0, 85, 54
1, 50580, Note_on_c, 0, 79, 0
1, 50580, Note_on_c, 0, 70, 0
1, 50610, Note_on_c, 0, 85, 0
1, 50640, Note_on_c, 0, 99, 61
1, 50640, Note_on_c, 0, 70, 45
1, 50640, Note_on_c, 0, 79, 52
1, 50660, Tempo, 560748
1, 50730, Note_on_c, 0, 99, 0
1, 50760, Note_on_c, 0, 85, 55
1, 50820, Note_on_c, 0, 79, 0
1, 50820, Note_on_c, 0, 70, 0
1, 50880, Tempo, 571429
1, 50880, Note_on_c, 0, 85, 0
1, 50880, Note_on_c, 0, 99, 61
1, 50880, Note_on_c, 0, 71, 45
1, 50880, Note_on_c, 0, 80, 52
1, 50970, Note_on_c, 0, 99, 0
1, 51000, Note_on_c, 0, 83, 63
1, 51060, Note_on_c, 0, 80, 0
1, 51060, Note_on_c, 0, 71, 0
1, 51090, Note_on_c, 0, 83, 0
1, 51120, Tempo, 555556
1, 51120, Note_on_c, 0, 88, 47
1, 51120, Note_on_c, 0, 100, 66
1, 51120, Note_on_c, 0, 73, 45
1, 51120, Note_on_c, 0, 81, 51
1, 51210, Note_on_c, 0, 100, 0
1, 51210, Note_on_c, 0, 88, 0
1, 51240, Note_on_c, 0, 93, 47
1, 51240, Note_on_c, 0, 99, 64
1, 51300, Note_on_c, 0, 73, 0
1, 51300, Note_on_c, 0, 81, 0
1, 51330, Note_on_c, 0, 93, 0
1, 51330, Note_on_c, 0, 99, 0
1, 51360, Note_on_c, 0, 85, 46
1, 51360, Note_on_c, 0, 97, 63
1, 51450, Note_on_c, 0, 97, 0
1, 51450, Note_on_c, 0, 85, 0
1, 51480, Note_on_c, 0, 88, 45
1, 51480, Note_on_c, 0, 95, 62
1, 51570, Note_on_c, 0, 95, 0
1, 51570, Note_on_c, 0, 88, 0
1, 51600, Note_on_c, 0, 83, 45
1, 51600, Note_on_c, 0, 93, 62
1, 51600, Note_on_c, 0, 74, 42
1, 51600, Note_on_c, 0, 77, 46
1, 51690, Note_on_c, 0, 93, 0
1, 51690, Note_on_c, 0, 83, 0
1, 51720, Note_on_c, 0, 89, 45
1, 51720, Note_on_c, 0, 92, 61
1, 51780, Note_on_c, 0, 74, 0
1, 51780, Note_on_c, 0, 77, 0
1, 51810, Note_on_c, 0, 89, 0
1, 51810, Note_on_c, 0, 92, 0
1, 51840, Tempo, 563380
1, 51840, Note_on_c, 0, 91, 63
1, 51840, Note_on_c, 0, 82, 45
1, 51840, Note_on_c, 0, 75, 42
1, 51840, Note_on_c, 0, 79, 46
1, 51930, Note_on_c, 0, 82, 0
1, 51930, Note_on_c, 0, 91, 0
1, 51960, Note_on_c, 0, 87, 45
1, 51960, Note_on_c, 0, 94, 57
1, 52020, Note_on_c, 0, 75, 0
1, 52020, Note_on_c, 0, 79, 0
1, 52050, Note_on_c, 0, 87, 0
1, 52050, Note_on_c, 0, 94, 0
1, 52080, Tempo, 555556
1, 52080, Note_on_c, 0, 74, 57
1, 52098, Control_c, 0, 64, 127
1, 52170, Note_on_c, 0, 74, 0
1, 52200, Note_on_c, 0, 86, 52
1, 52290, Note_on_c, 0, 86, 0
1, 52320, Note_on_c, 0, 75, 52
1, 52327, Control_c, 0, 64, 0
1, 52373, Control_c, 0, 64, 127
1, 52410, Note_on_c, 0, 75, 0
1, 52440, Note_on_c, 0, 87, 52
1, 52530, Note_on_c, 0, 87, 0
1, 52560, Note_on_c, 0, 99, 60
1, 52568, Control_c, 0, 64, 0
1, 52650, Note_on_c, 0, 99, 0
1, 52680, Note_on_c, 0, 87, 55
1, 52770, Note_on_c, 0, 87, 0
1, 52800, Note_on_c, 0, 75, 56
1, 52818, Control_c, 0, 64, 127
1, 52890, Note_on_c, 0, 75, 0
1, 52920, Note_on_c, 0, 87, 51
1, 53010, Note_on_c, 0, 87, 0
1, 53040, Note_on_c, 0, 76, 57
1, 53053, Control_c, 0, 64, 0
1, 53083, Control_c, 0, 64, 127
1, 53130, Note_on_c, 0, 76, 0
1, 53160, Note_on_c, 0, 88, 54
1, 53250, Note_on_c, 0, 88, 0
1, 53280, Note_on_c, 0, 99, 61
1, 53286, Control_c, 0, 64, 0
1, 53370, Note_on_c, 0, 99, 0
1, 53400, Note_on_c, 0, 87, 56
1, 53490, Note_on_c, 0, 87, 0
1, 53520, Note_on_c, 0, 76, 59
1, 53540, Tempo, 555556
1, 53577, Control_c, 0, 64, 127
1, 53610, Note_on_c, 0, 76, 0
1, 53640, Note_on_c, 0, 88, 54
1, 53730, Note_on_c, 0, 88, 0
1, 53760, Note_on_c, 0, 77, 62
1, 53769, Control_c, 0, 64, 0
1, 53780, Tempo, 552995
1, 53840, Control_c, 0, 64, 127
1, 53850, Note_on_c, 0, 77, 0
1, 53880, Note_on_c, 0, 89, 57
1, 53970, Note_on_c, 0, 89, 0
1, 54000, Note_on_c, 0, 99, 64
1, 54020, Tempo, 550459
1, 54023, Control_c, 0, 64, 0
1, 54090, Note_on_c, 0, 99, 0
1, 54120, Note_on_c, 0, 87, 57
1, 54210, Note_on_c, 0, 87, 0
1, 54240, Note_on_c, 0, 78, 61
1, 54257, Control_c, 0, 64, 127
1, 54260, Tempo, 547945
1, 54330, Note_on_c, 0, 78, 0
1, 54360, Note_on_c, 0, 90, 56
1, 54450, Note_on_c, 0, 90, 0
1, 54480, Note_on_c, 0, 99, 67
1, 54487, Control_c, 0, 64, 0
1, 54500, Tempo, 545455
1, 54570, Note_on_c, 0, 99, 0
1, 54600, Note_on_c, 0, 87, 62
1, 54690, Note_on_c, 0, 87, 0
1, 54720, Note_on_c, 0, 79, 64
1, 54740, Tempo, 542986
1, 54766, Control_c, 0, 64, 127
1, 54810, Note_on_c, 0, 79, 0
1, 54840, Note_on_c, 0, 91, 60
1, 54930, Note_on_c, 0, 91, 0
1, 54960, Note_on_c, 0, 99, 70
1, 54980, Tempo, 540541
1, 54981, Control_c, 0, 64, 0
1, 55050, Note_on_c, 0, 99, 0
1, 55080, Note_on_c, 0, 87, 62
1, 55170, Note_on_c, 0, 87, 0
1, 55200, Note_on_c, 0, 80, 70
1, 55220, Tempo, 538117
1, 55246, Control_c, 0, 64, 127
1, 55290, Note_on_c, 0, 80, 0
1, 55320, Note_on_c, 0, 92, 65
1, 55410, Note_on_c, 0, 92, 0
1, 55440, Note_on_c, 0, 99, 71
1, 55455, Control_c, 0, 64, 0
1, 55460, Tempo, 535714
1, 55530, Note_on_c, 0, 99, 0
1, 55559, Tempo, 528634
1, 55560, Note_on_c, 0, 81, 71
1, 55650, Note_on_c, 0, 81, 0
1, 55680, Note_on_c, 0, 99, 72
1, 55761, Tempo, 526316
1, 55770, Note_on_c, 0, 99, 0
1, 55800, Note_on_c, 0, 82, 72
1, 55890, Note_on_c, 0, 82, 0
1, 55920, Note_on_c, 0, 99, 72
1, 55938, Tempo, 524017
1, 56010, Note_on_c, 0, 99, 0
1, 56040, Note_on_c, 0, 83, 73
1, 56115, Tempo, 521739
1, 56130, Note_on_c, 0, 83, 0
1, 56160, Note_on_c, 0, 99, 75
1, 56241, Tempo, 519481
1, 56250, Note_on_c, 0, 99, 0
1, 56280, Note_on_c, 0, 84, 75
1, 56342, Tempo, 517241
1, 56370, Note_on_c, 0, 84, 0
1, 56400, Note_on_c, 0, 99, 76
1, 56443, Tempo, 515021
1, 56490, Note_on_c, 0, 99, 0
1, 56520, Note_on_c, 0, 85, 77
1, 56544, Tempo, 512821
1, 56610, Note_on_c, 0, 85, 0
1, 56640, Note_on_c, 0, 99, 79
1, 56646, Tempo, 510638
1, 56730, Note_on_c, 0, 99, 0
1, 56747, Tempo, 508475
1, 56760, Note_on_c, 0, 86, 79
1, 56797, Tempo, 508475
1, 56850, Note_on_c, 0, 86, 0
1, 56880, Note_on_c, 0, 99, 80
1, 56970, Note_on_c, 0, 99, 0
1, 57000, Note_on_c, 0, 87, 81
1, 57090, Note_on_c, 0, 87, 0
1, 57120, Note_on_c, 0, 99, 81
1, 57210, Note_on_c, 0, 99, 0
1, 57240, Note_on_c, 0, 87, 81
1, 57330, Note_on_c, 0, 87, 0
1, 57360, Note_on_c, 0, 99, 82
1, 57450, Note_on_c, 0, 99, 0
1, 57480, Note_on_c, 0, 87, 81
1, 57570, Note_on_c, 0, 87, 0
1, 57580, Tempo, 526316
1, 57580, Tempo, 508475
1, 57600, Note_on_c, 0, 99, 81
1, 57606, Tempo, 510638
1, 57631, Tempo, 512821
1, 57656, Tempo, 515021
1, 57681, Tempo, 517241
1, 57690, Note_on_c, 0, 99, 0
1, 57706, Tempo, 519481
1, 57720, Note_on_c, 0, 87, 79
1, 57782, Tempo, 521739
1, 57810, Note_on_c, 0, 87, 0
1, 57840, Note_on_c, 0, 99, 81
1, 57857, Tempo, 524017
1, 57930, Note_on_c, 0, 99, 0
1, 57933, Tempo, 526316
1, 57960, Note_on_c, 0, 87, 76
1, 58009, Tempo, 528634
1, 58050, Note_on_c, 0, 87, 0
1, 58080, Note_on_c, 0, 99, 72
1, 58170, Note_on_c, 0, 99, 0
1, 58200, Note_on_c, 0, 87, 61
1, 58290, Note_on_c, 0, 87, 0
1, 58320, Note_on_c, 0, 99, 62
1, 58410, Note_on_c, 0, 99, 0
1, 58440, Tempo, 552995
1, 58440, Note_on_c, 0, 87, 61
1, 58530, Note_on_c, 0, 87, 0
1, 58560, Tempo, 535714
1, 58560, Note_on_c, 0, 75, 59
1, 58666, Control_c, 0, 64, 127
1, 58680, Note_on_c, 0, 87, 61
1, 58770, Note_on_c, 0, 87, 0
1, 58800, Note_on_c, 0, 75, 0
1, 58800, Note_on_c, 0, 99, 61
1, 58890, Note_on_c, 0, 99, 0
1, 58920, Tempo, 555556
1, 58920, Note_on_c, 0, 87, 61
1, 59010, Note_on_c, 0, 87, 0
1, 59040, Tempo, 535714
1, 59040, Note_on_c, 0, 75, 59
1, 59160, Note_on_c, 0, 87, 55
1, 59250, Note_on_c, 0, 87, 0
1, 59280, Note_on_c, 0, 75, 0
1, 59280, Note_on_c, 0, 99, 55
1, 59370, Note_on_c, 0, 99, 0
1, 59400, Tempo, 552995
1, 59400, Note_on_c, 0, 87, 55
1, 59490, Note_on_c, 0, 87, 0
1, 59520, Tempo, 528634
1, 59520, Note_on_c, 0, 75, 61
1, 59520, Note_on_c, 0, 63, 49
1, 59538, Control_c, 0, 64, 0
1, 59540, Tempo, 533333
1, 59594, Control_c, 0, 64, 127
1, 59610, Note_on_c, 0, 75, 0
1, 59640, Note_on_c, 0, 87, 55
1, 59700, Note_on_c, 0, 63, 0
1, 59730, Note_on_c, 0, 87, 0
1, 59760, Note_on_c, 0, 99, 47
1, 59760, Note_on_c, 0, 75, 54
1, 59850, Note_on_c, 0, 99, 0
1, 59880, Note_on_c, 0, 87, 47
1, 59940, Note_on_c, 0, 75, 0
1, 59970, Note_on_c, 0, 87, 0
1, 60000, Note_on_c, 0, 75, 55
1, 60020, Tempo, 530973
1, 60120, Note_on_c, 0, 87, 47
1, 60210, Note_on_c, 0, 87, 0
1, 60240, Note_on_c, 0, 75, 0
1, 60240, Note_on_c, 0, 99, 47
1, 60240, Note_on_c, 0, 73, 51
1, 60330, Note_on_c, 0, 99, 0
1, 60360, Note_on_c, 0, 87, 47
1, 60420, Note_on_c, 0, 73, 0
1, 60450, Note_on_c, 0, 87, 0
1, 60480, Tempo, 512821
1, 60480, Note_on_c, 0, 75, 47
1, 60480, Note_on_c, 0, 56, 42
1, 60480, Note_on_c, 0, 71, 54
1, 60516, Control_c, 0, 64, 0
1, 60565, Control_c, 0, 64, 127
1, 60570, Note_on_c, 0, 75, 0
1, 60600, Note_on_c, 0, 87, 47
1, 60660, Note_on_c, 0, 71, 0
1, 60690, Note_on_c, 0, 87, 0
1, 60720, Tempo, 526316
1, 60720, Note_on_c, 0, 56, 0
1, 60720, Note_on_c, 0, 99, 47
1, 60720, Control_c, 0, 64, 0
1, 60720, Note_on_c, 0, 71, 50
1, 60810, Note_on_c, 0, 99, 0
1, 60840, Note_on_c, 0, 87, 49
1, 60900, Note_on_c, 0, 71, 0
1, 60930, Note_on_c, 0, 87, 0
1, 60960, Tempo, 538117
1, 60960, Note_on_c, 0, 75, 51
1, 60960, Note_on_c, 0, 70, 51
1, 61050, Note_on_c, 0, 75, 0
1, 61080, Note_on_c, 0, 87, 51
1, 61140, Note_on_c, 0, 70, 0
1, 61170, Note_on_c, 0, 87, 0
1, 61200, Tempo, 517241
1, 61200, Note_on_c, 0, 99, 54
1, 61200, Note_on_c, 0, 59, 37
1, 61200, Note_on_c, 0, 68, 54
1, 61290, Note_on_c, 0, 99, 0
1, 61320, Note_on_c, 0, 87, 54
1, 61380, Note_on_c, 0, 68, 0
1, 61410, Note_on_c, 0, 87, 0
1, 61440, Tempo, 528634
1, 61440, Note_on_c, 0, 59, 0
1, 61440, Note_on_c, 0, 75, 54
1, 61440, Note_on_c, 0, 67, 54
1, 61530, Note_on_c, 0, 75, 0
1, 61560, Note_on_c, 0, 87, 55
1, 61620, Note_on_c, 0, 67, 0
1, 61650, Note_on_c, 0, 87, 0
1, 61680, Note_on_c, 0, 99, 57
1, 61680, Note_on_c, 0, 68, 57
1, 61770, Note_on_c, 0, 99, 0
1, 61800, Note_on_c, 0, 87, 57
1, 61860, Note_on_c, 0, 68, 0
1, 61860, Note_on_c, 0, 67, 45
1, 61890, Note_on_c, 0, 87, 0
1, 61920, Tempo, 533333
1, 61920, Note_on_c, 0, 75, 60
1, 61920, Note_on_c, 0, 70, 62
1, 61973, Control_c, 0, 64, 127
1, 62010, Note_on_c, 0, 75, 0
1, 62040, Note_on_c, 0, 87, 60
1, 62130, Note_on_c, 0, 87, 0
1, 62160, Note_on_c, 0, 70, 0
1, 62160, Note_on_c, 0, 67, 0
1, 62160, Note_on_c, 0, 99, 60
1, 62160, Note_on_c, 0, 63, 54
1, 62174, Control_c, 0, 64, 0
1, 62250, Note_on_c, 0, 99, 0
1, 62280, Note_on_c, 0, 87, 59
1, 62340, Note_on_c, 0, 63, 0
1, 62370, Note_on_c, 0, 87, 0
1, 62400, Tempo, 538117
1, 62400, Note_on_c, 0, 75, 59
1, 62400, Note_on_c, 0, 63, 54
1, 62490, Note_on_c, 0, 75, 0
1, 62520, Note_on_c, 0, 87, 57
1, 62580, Note_on_c, 0, 63, 0
1, 62610, Note_on_c, 0, 87, 0
1, 62640, Tempo, 528634
1, 62640, Note_on_c, 0, 99, 57
1, 62640, Note_on_c, 0, 55, 44
1, 62640, Note_on_c, 0, 64, 56
1, 62730, Note_on_c, 0, 99, 0
1, 62760, Note_on_c, 0, 87, 57
1, 62820, Note_on_c, 0, 64, 0
1, 62850, Note_on_c, 0, 87, 0
1, 62880, Note_on_c, 0, 55, 0
1, 62880, Note_on_c, 0, 75, 56
1, 62880, Note_on_c, 0, 63, 52
1, 62970, Note_on_c, 0, 75, 0
1, 63000, Note_on_c, 0, 87, 56
1, 63060, Note_on_c, 0, 63, 0
1, 63090, Note_on_c, 0, 87, 0
1, 63120, Note_on_c, 0, 99, 54
1, 63120, Note_on_c, 0, 61, 52
1, 63210, Note_on_c, 0, 99, 0
1, 63240, Note_on_c, 0, 87, 54
1, 63300, Note_on_c, 0, 61, 0
1, 63330, Note_on_c, 0, 87, 0
1, 63360, Note_on_c, 0, 75, 54
1, 63360, Note_on_c, 0, 56, 44
1, 63360, Note_on_c, 0, 59, 54
1, 63403, Control_c, 0, 64, 127
1, 63450, Note_on_c, 0, 75, 0
1, 63480, Note_on_c, 0, 87, 54
1, 63518, Note_on_c, 0, 59, 0
1, 63570, Note_on_c, 0, 87, 0
1, 63600, Note_on_c, 0, 56, 0
1, 63600, Note_on_c, 0, 99, 54
1, 63600, Note_on_c, 0, 59, 50
1, 63610, Control_c, 0, 64, 0
1, 63690, Note_on_c, 0, 99, 0
1, 63720, Note_on_c, 0, 87, 52
1, 63780, Note_on_c, 0, 59, 0
1, 63810, Note_on_c, 0, 87, 0
1, 63840, Note_on_c, 0, 75, 52
1, 63840, Note_on_c, 0, 58, 49
1, 63930, Note_on_c, 0, 75, 0
1, 63960, Note_on_c, 0, 87, 51
1, 64020, Note_on_c, 0, 58, 0
1, 64020, Note_on_c, 0, 52, 45
1, 64050, Note_on_c, 0, 87, 0
1, 64080, Tempo, 533333
1, 64080, Note_on_c, 0, 99, 47
1, 64080, Note_on_c, 0, 56, 54
1, 64170, Note_on_c, 0, 99, 0
1, 64200, Note_on_c, 0, 87, 47
1, 64260, Note_on_c, 0, 56, 0
1, 64290, Note_on_c, 0, 87, 0
1, 64320, Tempo, 542986
1, 64320, Note_on_c, 0, 52, 0
1, 64320, Note_on_c, 0, 75, 46
1, 64320, Note_on_c, 0, 55, 50
1, 64410, Note_on_c, 0, 75, 0
1, 64440, Note_on_c, 0, 87, 45
1, 64500, Note_on_c, 0, 55, 0
1, 64530, Note_on_c, 0, 87, 0
1, 64560, Tempo, 558140
1, 64560, Note_on_c, 0, 99, 45
1, 64560, Note_on_c, 0, 56, 47
1, 64613, Control_c, 0, 64, 127
1, 64650, Note_on_c, 0, 99, 0
1, 64680, Note_on_c, 0, 87, 44
1, 64740, Note_on_c, 0, 56, 0
1, 64770, Note_on_c, 0, 87, 0
1, 64800, Tempo, 568720
1, 64800, Note_on_c, 0, 75, 47
1, 64800, Control_c, 0, 64, 0
1, 64800, Note_on_c, 0, 55, 40
1, 64800, Note_on_c, 0, 58, 50
1, 64878, Control_c, 0, 64, 127
1, 64890, Note_on_c, 0, 75, 0
1, 64920, Note_on_c, 0, 87, 47
1, 65010, Note_on_c, 0, 87, 0
1, 65040, Note_on_c, 0, 58, 0
1, 65040, Note_on_c, 0, 55, 0
1, 65040, Note_on_c, 0, 99, 47
1, 65040, Note_on_c, 0, 51, 45
1, 65051, Control_c, 0, 64, 0
1, 65130, Note_on_c, 0, 99, 0
1, 65160, Note_on_c, 0, 51, 0
1, 65160, Note_on_c, 0, 87, 47
1, 65250, Note_on_c, 0, 87, 0
1, 65280, Tempo, 542986
1, 65280, Note_on_c, 0, 75, 47
1, 65370, Note_on_c, 0, 75, 0
1, 65400, Tempo, 560748
1, 65400, Note_on_c, 0, 87, 47
1, 65460, Note_on_c, 0, 63, 57
1, 65490, Note_on_c, 0, 87, 0
1, 65520, Tempo, 526316
1, 65520, Note_on_c, 0, 63, 0
1, 65531, Note_on_c, 0, 99, 47
1, 65531, Note_on_c, 0, 75, 56
1, 65621, Note_on_c, 0, 99, 0
1, 65651, Note_on_c, 0, 87, 47
1, 65711, Note_on_c, 0, 75, 0
1, 65741, Note_on_c, 0, 87, 0
1, 65760, Tempo, 524017
1, 65771, Note_on_c, 0, 75, 55
1, 65891, Note_on_c, 0, 87, 47
1, 65981, Note_on_c, 0, 87, 0
1, 66011, Note_on_c, 0, 75, 0
1, 66011, Note_on_c, 0, 99, 47
1, 66011, Note_on_c, 0, 73, 51
1, 66101, Note_on_c, 0, 99, 0
1, 66131, Note_on_c, 0, 87, 47
1, 66191, Note_on_c, 0, 73, 0
1, 66221, Note_on_c, 0, 87, 0
1, 66240, Tempo, 517241
1, 66240, Note_on_c, 0, 75, 47
1, 66240, Note_on_c, 0, 56, 42
1, 66240, Note_on_c, 0, 71, 54
1, 66330, Note_on_c, 0, 75, 0
1, 66339, Control_c, 0, 64, 127
1, 66360, Note_on_c, 0, 87, 47
1, 66420, Note_on_c, 0, 71, 0
1, 66450, Note_on_c, 0, 87, 0
1, 66480, Tempo, 530973
1, 66480, Note_on_c, 0, 56, 0
1, 66480, Note_on_c, 0, 99, 47
1, 66480, Note_on_c, 0, 71, 50
1, 66496, Control_c, 0, 64, 0
1, 66570, Note_on_c, 0, 99, 0
1, 66600, Note_on_c, 0, 87, 49
1, 66660, Note_on_c, 0, 71, 0
1, 66690, Note_on_c, 0, 87, 0
1, 66720, Note_on_c, 0, 75, 51
1, 66720, Note_on_c, 0, 70, 51
1, 66731, Tempo, 538117
1, 66810, Note_on_c, 0, 75, 0
1, 66851, Note_on_c, 0, 87, 51
1, 66900, Note_on_c, 0, 70, 0
1, 66941, Note_on_c, 0, 87, 0
1, 66960, Note_on_c, 0, 99, 54
1, 66960, Note_on_c, 0, 59, 37
1, 66960, Note_on_c, 0, 68, 54
1, 66971, Tempo, 528634
1, 67050, Note_on_c, 0, 99, 0
1, 67080, Note_on_c, 0, 87, 54
1, 67140, Note_on_c, 0, 68, 0
1, 67170, Note_on_c, 0, 87, 0
1, 67200, Note_on_c, 0, 59, 0
1, 67200, Note_on_c, 0, 75, 54
1, 67200, Note_on_c, 0, 67, 54
1, 67290, Note_on_c, 0, 75, 0
1, 67320, Note_on_c, 0, 87, 55
1, 67380, Note_on_c, 0, 67, 0
1, 67410, Note_on_c, 0, 87, 0
1, 67440, Note_on_c, 0, 99, 57
1, 67440, Note_on_c, 0, 68, 57
1, 67530, Note_on_c, 0, 99, 0
1, 67560, Note_on_c, 0, 87, 57
1, 67620, Note_on_c, 0, 68, 0
1, 67650, Note_on_c, 0, 87, 0
1, 67680, Note_on_c, 0, 75, 60
1, 67680, Note_on_c, 0, 70, 62
1, 67680, Note_on_c, 0, 67, 40
1, 67691, Tempo, 533333
1, 67740, Control_c, 0, 64, 127
1, 67770, Note_on_c, 0, 75, 0
1, 67800, Note_on_c, 0, 87, 60
1, 67890, Note_on_c, 0, 87, 0
1, 67920, Note_on_c, 0, 67, 0
1, 67920, Note_on_c, 0, 70, 0
1, 67920, Note_on_c, 0, 99, 60
1, 67920, Note_on_c, 0, 63, 54
1, 67938, Control_c, 0, 64, 0
1, 68010, Note_on_c, 0, 99, 0
1, 68040, Note_on_c, 0, 87, 59
1, 68100, Note_on_c, 0, 63, 0
1, 68130, Note_on_c, 0, 87, 0
1, 68160, Note_on_c, 0, 75, 59
1, 68171, Tempo, 538117
1, 68280, Note_on_c, 0, 87, 57
1, 68370, Note_on_c, 0, 87, 0
1, 68400, Note_on_c, 0, 75, 0
1, 68400, Note_on_c, 0, 76, 54
1, 68400, Note_on_c, 0, 61, 45
1, 68400, Note_on_c, 0, 70, 45
1, 68400, Note_on_c, 0, 68, 40
1, 68411, Tempo, 528634
1, 68520, Note_on_c, 0, 87, 54
1, 68640, Note_on_c, 0, 87, 0
1, 68640, Note_on_c, 0, 70, 0
1, 68640, Note_on_c, 0, 76, 0
1, 68640, Note_on_c, 0, 61, 0
1, 68640, Note_on_c, 0, 68, 0
1, 68640, Note_on_c, 0, 75, 50
1, 68640, Note_on_c, 0, 63, 44
1, 68640, Note_on_c, 0, 70, 43
1, 68640, Note_on_c, 0, 68, 37
1, 68760, Note_on_c, 0, 87, 50
1, 68880, Note_on_c, 0, 87, 0
1, 68880, Note_on_c, 0, 70, 0
1, 68880, Note_on_c, 0, 75, 0
1, 68880, Note_on_c, 0, 63, 0
1, 68880, Note_on_c, 0, 68, 0
1, 68880, Note_on_c, 0, 73, 50
1, 68880, Note_on_c, 0, 64, 44
1, 68880, Note_on_c, 0, 70, 43
1, 68880, Note_on_c, 0, 68, 37
1, 69000, Tempo, 542986
1, 69000, Note_on_c, 0, 87, 50
1, 69120, Tempo, 568720
1, 69120, Note_on_c, 0, 87, 0
1, 69120, Note_on_c, 0, 70, 0
1, 69120, Note_on_c, 0, 73, 0
1, 69120, Note_on_c, 0, 64, 0
1, 69120, Note_on_c, 0, 68, 0
1, 69120, Note_on_c, 0, 75, 59
1, 69120, Note_on_c, 0, 63, 44
1, 69120, Note_on_c, 0, 68, 44
1, 69120, Note_on_c, 0, 71, 50
1, 69240, Note_on_c, 0, 87, 54
1, 69360, Note_on_c, 0, 87, 0
1, 69360, Note_on_c, 0, 68, 0
1, 69360, Note_on_c, 0, 75, 0
1, 69360, Note_on_c, 0, 63, 0
1, 69360, Note_on_c, 0, 71, 0
1, 69360, Note_on_c, 0, 80, 54
1, 69450, Note_on_c, 0, 80, 0
1, 69480, Tempo, 550459
1, 69480, Note_on_c, 0, 83, 54
1, 69570, Note_on_c, 0, 83, 0
1, 69600, Tempo, 524017
1, 69600, Note_on_c, 0, 87, 60
1, 69720, Tempo, 612245
1, 69720, Note_on_c, 0, 99, 54
1, 69840, Tempo, 582524
1, 69840, Note_on_c, 0, 99, 0
1, 69840, Note_on_c, 0, 87, 0
1, 69840, Note_on_c, 0, 75, 59
1, 69840, Note_on_c, 0, 63, 42
1, 69840, Note_on_c, 0, 67, 42
1, 69840, Note_on_c, 0, 73, 46
1, 69960, Note_on_c, 0, 87, 54
1, 70080, Note_on_c, 0, 87, 0
1, 70080, Note_on_c, 0, 67, 0
1, 70080, Note_on_c, 0, 75, 0
1, 70080, Note_on_c, 0, 63, 0
1, 70080, Note_on_c, 0, 73, 0
1, 70080, Note_on_c, 0, 79, 54
1, 70170, Note_on_c, 0, 79, 0
1, 70200, Note_on_c, 0, 82, 54
1, 70290, Note_on_c, 0, 82, 0
1, 70320, Tempo, 615385
1, 70320, Note_on_c, 0, 87, 60
1, 70440, Tempo, 603015
1, 70440, Note_on_c, 0, 99, 54
1, 70560, Tempo, 576923
1, 70560, Note_on_c, 0, 99, 0
1, 70560, Note_on_c, 0, 87, 0
1, 70560, Note_on_c, 0, 56, 52
1, 70580, Tempo, 576923
1, 70613, Control_c, 0, 64, 127
1, 70640, Tempo, 574163
1, 70650, Note_on_c, 0, 56, 0
1, 70680, Tempo, 571429
1, 70680, Note_on_c, 0, 63, 47
1, 70720, Tempo, 568720
1, 70760, Tempo, 566038
1, 70770, Note_on_c, 0, 63, 0
1, 70800, Tempo, 563380
1, 70800, Note_on_c, 0, 71, 47
1, 70840, Tempo, 560748
1, 70880, Tempo, 558140
1, 70890, Note_on_c, 0, 71, 0
1, 70920, Tempo, 555556
1, 70920, Note_on_c, 0, 80, 47
1, 70960, Tempo, 552995
1, 71000, Tempo, 550459
1, 71010, Note_on_c, 0, 80, 0
1, 71040, Tempo, 547945
1, 71040, Note_on_c, 0, 75, 49
1, 71080, Tempo, 545455
1, 71080, Note_on_c, 0, 75, 0
1, 71120, Tempo, 542986
1, 71120, Note_on_c, 0, 87, 49
1, 71140, Tempo, 540541
1, 71160, Tempo, 538117
1, 71160, Note_on_c, 0, 87, 0
1, 71180, Tempo, 535714
1, 71194, Tempo, 612245
1, 71200, Note_on_c, 0, 87, 49
1, 71240, Note_on_c, 0, 87, 0
1, 71245, Tempo, 609137
1, 71270, Tempo, 606061
1, 71280, Note_on_c, 0, 87, 52
1, 71295, Tempo, 603015
1, 71301, Control_c, 0, 64, 0
1, 71320, Tempo, 600000
1, 71320, Note_on_c, 0, 87, 0
1, 71360, Note_on_c, 0, 87, 52
1, 71371, Tempo, 597015
1, 71396, Tempo, 594059
1, 71400, Note_on_c, 0, 87, 0
1, 71422, Tempo, 591133
1, 71440, Note_on_c, 0, 99, 52
1, 71447, Tempo, 588235
1, 71472, Tempo, 585366
1, 71480, Note_on_c, 0, 99, 0
1, 71520, Note_on_c, 0, 87, 52
1, 71523, Tempo, 582524
1, 71548, Tempo, 579710
1, 71560, Note_on_c, 0, 87, 0
1, 71573, Tempo, 576923
1, 71598, Tempo, 574163
1, 71600, Note_on_c, 0, 87, 52
1, 71624, Tempo, 571429
1, 71640, Note_on_c, 0, 87, 0
1, 71674, Tempo, 568720
1, 71680, Note_on_c, 0, 99, 52
1, 71720, Note_on_c, 0, 99, 0
1, 71760, Note_on_c, 0, 85, 52
1, 71800, Note_on_c, 0, 85, 0
1, 71840, Note_on_c, 0, 85, 52
1, 71880, Note_on_c, 0, 85, 0
1, 71920, Note_on_c, 0, 97, 52
1, 71960, Note_on_c, 0, 97, 0
1, 71977, Tempo, 566038
1, 72000, Tempo, 555556
1, 72000, Note_on_c, 0, 83, 54
1, 72000, Note_on_c, 0, 44, 54
1, 72040, Note_on_c, 0, 83, 0
1, 72040, Control_c, 0, 64, 127
1, 72080, Note_on_c, 0, 83, 54
1, 72120, Note_on_c, 0, 83, 0
1, 72160, Note_on_c, 0, 95, 54
1, 72200, Note_on_c, 0, 95, 0
1, 72240, Note_on_c, 0, 44, 0
1, 72240, Note_on_c, 0, 83, 54
1, 72240, Note_on_c, 0, 59, 50
1, 72240, Note_on_c, 0, 51, 44
1, 72260, Control_c, 0, 64, 0
1, 72280, Note_on_c, 0, 83, 0
1, 72320, Note_on_c, 0, 83, 54
1, 72360, Note_on_c, 0, 83, 0
1, 72360, Note_on_c, 0, 51, 0
1, 72360, Note_on_c, 0, 59, 0
1, 72400, Note_on_c, 0, 95, 54
1, 72440, Note_on_c, 0, 95, 0
1, 72480, Tempo, 542986
1, 72480, Note_on_c, 0, 82, 52
1, 72480, Note_on_c, 0, 51, 44
1, 72480, Note_on_c, 0, 59, 50
1, 72520, Note_on_c, 0, 82, 0
1, 72560, Note_on_c, 0, 82, 52
1, 72600, Note_on_c, 0, 82, 0
1, 72600, Note_on_c, 0, 59, 0
1, 72600, Note_on_c, 0, 51, 0
1, 72640, Note_on_c, 0, 94, 52
1, 72680, Note_on_c, 0, 94, 0
1, 72720, Tempo, 550459
1, 72720, Note_on_c, 0, 80, 54
1, 72720, Note_on_c, 0, 47, 54
1, 72755, Control_c, 0, 64, 127
1, 72760, Note_on_c, 0, 80, 0
1, 72800, Note_on_c, 0, 80, 54
1, 72840, Note_on_c, 0, 80, 0
1, 72880, Note_on_c, 0, 92, 54
1, 72920, Note_on_c, 0, 92, 0
1, 72960, Tempo, 538117
1, 72960, Note_on_c, 0, 47, 0
1, 72960, Note_on_c, 0, 79, 52
1, 72960, Note_on_c, 0, 63, 50
1, 72960, Note_on_c, 0, 56, 44
1, 72972, Control_c, 0, 64, 0
1, 73000, Note_on_c, 0, 79, 0
1, 73040, Note_on_c, 0, 79, 52
1, 73080, Note_on_c, 0, 79, 0
1, 73080, Note_on_c, 0, 56, 0
1, 73080, Note_on_c, 0, 63, 0
1, 73120, Note_on_c, 0, 91, 52
1, 73160, Note_on_c, 0, 91, 0
1, 73200, Tempo, 535714
1, 73200, Note_on_c, 0, 80, 52
1, 73200, Note_on_c, 0, 56, 44
1, 73200, Note_on_c, 0, 63, 50
1, 73240, Note_on_c, 0, 80, 0
1, 73280, Note_on_c, 0, 80, 52
1, 73320, Note_on_c, 0, 80, 0
1, 73320, Note_on_c, 0, 63, 0
1, 73320, Note_on_c, 0, 56, 0
1, 73360, Note_on_c, 0, 92, 52
1, 73400, Note_on_c, 0, 92, 0
1, 73440, Tempo, 552995
1, 73440, Note_on_c, 0, 82, 54
1, 73440, Note_on_c, 0, 51, 54
1, 73480, Note_on_c, 0, 82, 0
1, 73511, Control_c, 0, 64, 127
1, 73520, Note_on_c, 0, 82, 54
1, 73560, Note_on_c, 0, 82, 0
1, 73600, Note_on_c, 0, 94, 54
1, 73640, Note_on_c, 0, 94, 0
1, 73680, Note_on_c, 0, 51, 0
1, 73680, Note_on_c, 0, 75, 50
1, 73680, Note_on_c, 0, 67, 47
1, 73680, Note_on_c, 0, 58, 43
1, 73694, Control_c, 0, 64, 0
1, 73720, Note_on_c, 0, 75, 0
1, 73760, Note_on_c, 0, 75, 50
1, 73800, Note_on_c, 0, 75, 0
1, 73800, Note_on_c, 0, 58, 0
1, 73800, Note_on_c, 0, 67, 0
1, 73840, Note_on_c, 0, 87, 47
1, 73880, Note_on_c, 0, 87, 0
1, 73920, Tempo, 542986
1, 73920, Note_on_c, 0, 75, 47
1, 73920, Note_on_c, 0, 67, 47
1, 73920, Note_on_c, 0, 58, 43
1, 73960, Note_on_c, 0, 75, 0
1, 74000, Note_on_c, 0, 75, 47
1, 74040, Note_on_c, 0, 75, 0
1, 74040, Note_on_c, 0, 58, 0
1, 74040, Note_on_c, 0, 67, 0
1, 74080, Note_on_c, 0, 87, 47
1, 74120, Note_on_c, 0, 87, 0
1, 74160, Tempo, 535714
1, 74160, Note_on_c, 0, 76, 50
1, 74160, Note_on_c, 0, 55, 50
1, 74200, Note_on_c, 0, 76, 0
1, 74227, Control_c, 0, 64, 127
1, 74240, Note_on_c, 0, 76, 50
1, 74280, Note_on_c, 0, 76, 0
1, 74320, Note_on_c, 0, 88, 50
1, 74360, Note_on_c, 0, 88, 0
1, 74400, Note_on_c, 0, 55, 0
1, 74400, Note_on_c, 0, 75, 47
1, 74400, Note_on_c, 0, 70, 45
1, 74400, Note_on_c, 0, 63, 40
1, 74414, Control_c, 0, 64, 0
1, 74440, Note_on_c, 0, 75, 0
1, 74480, Note_on_c, 0, 75, 47
1, 74520, Note_on_c, 0, 75, 0
1, 74520, Note_on_c, 0, 63, 0
1, 74520, Note_on_c, 0, 70, 0
1, 74560, Note_on_c, 0, 87, 47
1, 74600, Note_on_c, 0, 87, 0
1, 74640, Note_on_c, 0, 73, 47
1, 74640, Note_on_c, 0, 63, 40
1, 74640, Note_on_c, 0, 70, 45
1, 74680, Note_on_c, 0, 73, 0
1, 74720, Note_on_c, 0, 73, 47
1, 74760, Note_on_c, 0, 73, 0
1, 74760, Note_on_c, 0, 70, 0
1, 74760, Note_on_c, 0, 63, 0
1, 74800, Note_on_c, 0, 85, 47
1, 74840, Note_on_c, 0, 85, 0
1, 74880, Note_on_c, 0, 71, 50
1, 74880, Note_on_c, 0, 56, 47
1, 74920, Note_on_c, 0, 71, 0
1, 74932, Control_c, 0, 64, 127
1, 74960, Note_on_c, 0, 71, 50
1, 75000, Note_on_c, 0, 71, 0
1, 75040, Note_on_c, 0, 83, 50
1, 75080, Note_on_c, 0, 83, 0
1, 75120, Note_on_c, 0, 56, 0
1, 75120, Note_on_c, 0, 71, 47
1, 75120, Note_on_c, 0, 68, 44
1, 75120, Note_on_c, 0, 63, 39
1, 75131, Control_c, 0, 64, 0
1, 75160, Note_on_c, 0, 71, 0
1, 75200, Note_on_c, 0, 71, 47
1, 75240, Note_on_c, 0, 71, 0
1, 75240, Note_on_c, 0, 63, 0
1, 75240, Note_on_c, 0, 68, 0
1, 75280, Note_on_c, 0, 83, 47
1, 75320, Note_on_c, 0, 83, 0
1, 75360, Note_on_c, 0, 70, 47
1, 75360, Note_on_c, 0, 63, 39
1, 75360, Note_on_c, 0, 68, 44
1, 75400, Note_on_c, 0, 70, 0
1, 75440, Note_on_c, 0, 70, 47
1, 75480, Tempo, 540541
1, 75480, Note_on_c, 0, 70, 0
1, 75480, Note_on_c, 0, 68, 0
1, 75480, Note_on_c, 0, 63, 0
1, 75520, Note_on_c, 0, 82, 47
1, 75560, Note_on_c, 0, 82, 0
1, 75600, Tempo, 552995
1, 75600, Note_on_c, 0, 68, 49
1, 75600, Note_on_c, 0, 59, 49
1, 75640, Note_on_c, 0, 68, 0
1, 75649, Control_c, 0, 64, 127
1, 75680, Note_on_c, 0, 68, 49
1, 75720, Note_on_c, 0, 68, 0
1, 75760, Note_on_c, 0, 80, 49
1, 75800, Note_on_c, 0, 80, 0
1, 75840, Tempo, 560748
1, 75840, Note_on_c, 0, 59, 0
1, 75840, Note_on_c, 0, 67, 47
1, 75840, Note_on_c, 0, 62, 36
1, 75840, Note_on_c, 0, 65, 41
1, 75851, Control_c, 0, 64, 0
1, 75880, Note_on_c, 0, 67, 0
1, 75920, Note_on_c, 0, 67, 47
1, 75960, Note_on_c, 0, 67, 0
1, 75960, Note_on_c, 0, 65, 0
1, 75960, Note_on_c, 0, 62, 0
1, 76000, Note_on_c, 0, 79, 47
1, 76040, Note_on_c, 0, 79, 0
1, 76080, Tempo, 576923
1, 76080, Note_on_c, 0, 68, 47
1, 76080, Note_on_c, 0, 62, 36
1, 76080, Note_on_c, 0, 65, 41
1, 76120, Note_on_c, 0, 68, 0
1, 76160, Note_on_c, 0, 68, 47
1, 76200, Note_on_c, 0, 68, 0
1, 76200, Note_on_c, 0, 65, 0
1, 76200, Note_on_c, 0, 62, 0
1, 76240, Note_on_c, 0, 80, 47
1, 76280, Note_on_c, 0, 80, 0
1, 76320, Tempo, 588235
1, 76320, Note_on_c, 0, 70, 50
1, 76320, Note_on_c, 0, 51, 46
1, 76360, Note_on_c, 0, 70, 0
1, 76380, Control_c, 0, 64, 127
1, 76400, Note_on_c, 0, 70, 50
1, 76440, Note_on_c, 0, 70, 0
1, 76480, Note_on_c, 0, 82, 50
1, 76499, Tempo, 582524
1, 76520, Note_on_c, 0, 82, 0
1, 76550, Tempo, 585366
1, 76560, Note_on_c, 0, 51, 0
1, 76560, Note_on_c, 0, 63, 47
1, 76560, Note_on_c, 0, 67, 37
1, 76560, Note_on_c, 0, 58, 34
1, 76600, Tempo, 588235
1, 76600, Note_on_c, 0, 63, 0
1, 76640, Note_on_c, 0, 63, 47
1, 76651, Tempo, 591133
1, 76676, Tempo, 594059
1, 76680, Note_on_c, 0, 63, 0
1, 76720, Note_on_c, 0, 75, 43
1, 76727, Tempo, 597015
1, 76760, Note_on_c, 0, 75, 0
1, 76777, Tempo, 600000
1, 76800, Note_on_c, 0, 58, 0
1, 76800, Note_on_c, 0, 67, 0
1, 76800, Note_on_c, 0, 75, 45
1, 76821, Control_c, 0, 64, 0
1, 76828, Tempo, 603015
1, 76840, Note_on_c, 0, 75, 0
1, 76853, Tempo, 606061
1, 76880, Note_on_c, 0, 75, 45
1, 76904, Tempo, 609137
1, 76920, Note_on_c, 0, 75, 0
1, 76954, Tempo, 609137
1, 76960, Note_on_c, 0, 75, 45
1, 76979, Tempo, 612245
1, 77000, Note_on_c, 0, 75, 0
1, 77005, Tempo, 615385
1, 77030, Tempo, 618557
1, 77036, Tempo, 600000
1, 77040, Note_on_c, 0, 87, 52
1, 77080, Note_on_c, 0, 87, 0
1, 77120, Note_on_c, 0, 87, 52
1, 77160, Note_on_c, 0, 87, 0
1, 77200, Note_on_c, 0, 99, 52
1, 77232, Tempo, 591133
1, 77240, Note_on_c, 0, 99, 0
1, 77280, Note_on_c, 0, 87, 52
1, 77283, Tempo, 588235
1, 77320, Note_on_c, 0, 87, 0
1, 77333, Tempo, 585366
1, 77360, Note_on_c, 0, 87, 52
1, 77384, Tempo, 582524
1, 77400, Note_on_c, 0, 87, 0
1, 77434, Tempo, 579710
1, 77440, Note_on_c, 0, 99, 52
1, 77480, Note_on_c, 0, 99, 0
1, 77485, Tempo, 576923
1, 77520, Note_on_c, 0, 85, 52
1, 77535, Tempo, 574163
1, 77560, Note_on_c, 0, 85, 0
1, 77586, Tempo, 571429
1, 77600, Note_on_c, 0, 85, 52
1, 77636, Tempo, 568720
1, 77640, Note_on_c, 0, 85, 0
1, 77680, Note_on_c, 0, 97, 52
1, 77687, Tempo, 566038
1, 77720, Note_on_c, 0, 97, 0
1, 77737, Tempo, 563380
1, 77760, Note_on_c, 0, 83, 54
1, 77760, Note_on_c, 0, 44, 54
1, 77763, Tempo, 560748
1, 77795, Control_c, 0, 64, 127
1, 77800, Note_on_c, 0, 83, 0
1, 77840, Note_on_c, 0, 83, 54
1, 77880, Note_on_c, 0, 83, 0
1, 77920, Note_on_c, 0, 95, 54
1, 77960, Note_on_c, 0, 95, 0
1, 78000, Note_on_c, 0, 44, 0
1, 78000, Note_on_c, 0, 83, 54
1, 78000, Note_on_c, 0, 59, 50
1, 78000, Note_on_c, 0, 51, 44
1, 78017, Control_c, 0, 64, 0
1, 78040, Note_on_c, 0, 83, 0
1, 78080, Note_on_c, 0, 83, 54
1, 78120, Note_on_c, 0, 83, 0
1, 78120, Note_on_c, 0, 51, 0
1, 78120, Note_on_c, 0, 59, 0
1, 78160, Note_on_c, 0, 95, 54
1, 78200, Note_on_c, 0, 95, 0
1, 78240, Tempo, 540541
1, 78240, Note_on_c, 0, 82, 52
1, 78240, Note_on_c, 0, 51, 44
1, 78240, Note_on_c, 0, 59, 50
1, 78280, Note_on_c, 0, 82, 0
1, 78320, Note_on_c, 0, 82, 52
1, 78360, Note_on_c, 0, 82, 0
1, 78360, Note_on_c, 0, 59, 0
1, 78360, Note_on_c, 0, 51, 0
1, 78400, Note_on_c, 0, 94, 52
1, 78440, Note_on_c, 0, 94, 0
1, 78480, Tempo, 555556
1, 78480, Note_on_c, 0, 80, 54
1, 78480, Note_on_c, 0, 47, 54
1, 78520, Note_on_c, 0, 80, 0
1, 78552, Control_c, 0, 64, 127
1, 78560, Note_on_c, 0, 80, 54
1, 78600, Note_on_c, 0, 80, 0
1, 78640, Note_on_c, 0, 92, 54
1, 78680, Note_on_c, 0, 92, 0
1, 78720, Tempo, 535714
1, 78720, Note_on_c, 0, 47, 0
1, 78720, Note_on_c, 0, 79, 52
1, 78720, Note_on_c, 0, 63, 50
1, 78720, Note_on_c, 0, 56, 44
1, 78735, Control_c, 0, 64, 0
1, 78760, Note_on_c, 0, 79, 0
1, 78800, Note_on_c, 0, 79, 52
1, 78840, Note_on_c, 0, 79, 0
1, 78840, Note_on_c, 0, 56, 0
1, 78840, Note_on_c, 0, 63, 0
1, 78880, Note_on_c, 0, 91, 52
1, 78920, Note_on_c, 0, 91, 0
1, 78960, Tempo, 530973
1, 78960, Note_on_c, 0, 80, 52
1, 78960, Note_on_c, 0, 56, 44
1, 78960, Note_on_c, 0, 63, 50
1, 79000, Note_on_c, 0, 80, 0
1, 79040, Note_on_c, 0, 80, 52
1, 79080, Note_on_c, 0, 80, 0
1, 79080, Note_on_c, 0, 63, 0
1, 79080, Note_on_c, 0, 56, 0
1, 79120, Note_on_c, 0, 92, 52
1, 79160, Note_on_c, 0, 92, 0
1, 79200, Tempo, 545455
1, 79200, Note_on_c, 0, 82, 54
1, 79200, Note_on_c, 0, 51, 54
1, 79240, Note_on_c, 0, 82, 0
1, 79280, Note_on_c, 0, 82, 54
1, 79281, Control_c, 0, 64, 127
1, 79320, Note_on_c, 0, 82, 0
1, 79360, Note_on_c, 0, 94, 54
1, 79400, Note_on_c, 0, 94, 0
1, 79440, Note_on_c, 0, 51, 0
1, 79440, Note_on_c, 0, 75, 50
1, 79440, Note_on_c, 0, 67, 39
1, 79440, Note_on_c, 0, 58, 35
1, 79480, Note_on_c, 0, 75, 0
1, 79520, Note_on_c, 0, 75, 50
1, 79560, Note_on_c, 0, 75, 0
1, 79600, Note_on_c, 0, 87, 47
1, 79620, Note_on_c, 0, 58, 0
1, 79620, Note_on_c, 0, 67, 0
1, 79640, Note_on_c, 0, 87, 0
1, 79680, Tempo, 538117
1, 79680, Note_on_c, 0, 75, 49
1, 79680, Note_on_c, 0, 67, 36
1, 79680, Note_on_c, 0, 70, 41
1, 79720, Note_on_c, 0, 75, 0
1, 79760, Note_on_c, 0, 75, 49
1, 79789, Control_c, 0, 64, 0
1, 79800, Note_on_c, 0, 75, 0
1, 79840, Note_on_c, 0, 87, 49
1, 79860, Note_on_c, 0, 70, 0
1, 79860, Note_on_c, 0, 67, 0
1, 79880, Note_on_c, 0, 87, 0
1, 79920, Tempo, 540541
1, 79920, Note_on_c, 0, 76, 52
1, 79920, Note_on_c, 0, 68, 37
1, 79920, Note_on_c, 0, 71, 43
1, 79960, Note_on_c, 0, 76, 0
1, 80000, Note_on_c, 0, 76, 52
1, 80040, Note_on_c, 0, 76, 0
1, 80080, Note_on_c, 0, 88, 52
1, 80100, Note_on_c, 0, 71, 0
1, 80100, Note_on_c, 0, 68, 0
1, 80120, Note_on_c, 0, 88, 0
1, 80160, Note_on_c, 0, 75, 50
1, 80160, Note_on_c, 0, 66, 35
1, 80160, Note_on_c, 0, 70, 40
1, 80200, Note_on_c, 0, 75, 0
1, 80240, Note_on_c, 0, 75, 50
1, 80280, Note_on_c, 0, 75, 0
1, 80320, Note_on_c, 0, 87, 50
1, 80340, Note_on_c, 0, 70, 0
1, 80340, Note_on_c, 0, 66, 0
1, 80360, Note_on_c, 0, 87, 0
1, 80400, Tempo, 533333
1, 80400, Note_on_c, 0, 73, 47
1, 80400, Note_on_c, 0, 64, 35
1, 80400, Note_on_c, 0, 68, 39
1, 80440, Note_on_c, 0, 73, 0
1, 80480, Note_on_c, 0, 73, 47
1, 80520, Note_on_c, 0, 73, 0
1, 80560, Note_on_c, 0, 85, 47
1, 80580, Note_on_c, 0, 68, 0
1, 80580, Note_on_c, 0, 64, 0
1, 80600, Note_on_c, 0, 85, 0
1, 80620, Tempo, 530973
1, 80640, Tempo, 524017
1, 80640, Note_on_c, 0, 75, 46
1, 80640, Note_on_c, 0, 68, 41
1, 80640, Note_on_c, 0, 63, 41
1, 80640, Note_on_c, 0, 71, 45
1, 80672, Control_c, 0, 64, 127
1, 80680, Note_on_c, 0, 75, 0
1, 80720, Note_on_c, 0, 75, 46
1, 80760, Note_on_c, 0, 75, 0
1, 80800, Note_on_c, 0, 87, 47
1, 80840, Note_on_c, 0, 87, 0
1, 80855, Control_c, 0, 64, 0
1, 80880, Note_on_c, 0, 68, 0
1, 80880, Note_on_c, 0, 63, 0
1, 80880, Note_on_c, 0, 71, 0
1, 80880, Note_on_c, 0, 76, 47
1, 80903, Control_c, 0, 64, 127
1, 80920, Note_on_c, 0, 76, 0
1, 80960, Note_on_c, 0, 76, 49
1, 81000, Tempo, 521739
1, 81000, Note_on_c, 0, 76, 0
1, 81040, Note_on_c, 0, 87, 49
1, 81080, Note_on_c, 0, 87, 0
1, 81117, Control_c, 0, 64, 0
1, 81120, Note_on_c, 0, 77, 50
1, 81157, Control_c, 0, 64, 127
1, 81160, Note_on_c, 0, 77, 0
1, 81200, Note_on_c, 0, 77, 50
1, 81240, Note_on_c, 0, 77, 0
1, 81280, Note_on_c, 0, 87, 51
1, 81320, Note_on_c, 0, 87, 0
1, 81349, Control_c, 0, 64, 0
1, 81360, Tempo, 519481
1, 81360, Note_on_c, 0, 78, 51
1, 81395, Control_c, 0, 64, 127
1, 81400, Note_on_c, 0, 78, 0
1, 81440, Note_on_c, 0, 78, 52
1, 81480, Note_on_c, 0, 78, 0
1, 81520, Note_on_c, 0, 87, 52
1, 81560, Note_on_c, 0, 87, 0
1, 81600, Note_on_c, 0, 79, 54
1, 81606, Control_c, 0, 64, 0
1, 81640, Note_on_c, 0, 79, 0
1, 81646, Control_c, 0, 64, 127
1, 81680, Note_on_c, 0, 79, 54
1, 81720, Tempo, 517241
1, 81720, Note_on_c, 0, 79, 0
1, 81760, Note_on_c, 0, 87, 54
1, 81800, Note_on_c, 0, 87, 0
1, 81840, Note_on_c, 0, 80, 55
1, 81852, Control_c, 0, 64, 0
1, 81880, Note_on_c, 0, 80, 0
1, 81889, Control_c, 0, 64, 127
1, 81920, Note_on_c, 0, 80, 55
1, 81956, Tempo, 517241
1, 81960, Note_on_c, 0, 80, 0
1, 82000, Note_on_c, 0, 87, 56
1, 82040, Note_on_c, 0, 87, 0
1, 82080, Note_on_c, 0, 81, 56
1, 82080, Note_on_c, 0, 67, 50
1, 82080, Note_on_c, 0, 61, 44
1, 82080, Note_on_c, 0, 51, 44
1, 82083, Control_c, 0, 64, 0
1, 82108, Tempo, 519481
1, 82120, Note_on_c, 0, 81, 0
1, 82129, Control_c, 0, 64, 127
1, 82160, Note_on_c, 0, 81, 55
1, 82200, Note_on_c, 0, 81, 0
1, 82240, Note_on_c, 0, 87, 55
1, 82259, Tempo, 521739
1, 82280, Note_on_c, 0, 87, 0
1, 82320, Note_on_c, 0, 67, 0
1, 82320, Note_on_c, 0, 61, 0
1, 82320, Note_on_c, 0, 51, 0
1, 82320, Note_on_c, 0, 82, 55
1, 82326, Control_c, 0, 64, 0
1, 82360, Note_on_c, 0, 82, 0
1, 82363, Control_c, 0, 64, 127
1, 82400, Note_on_c, 0, 82, 55
1, 82411, Tempo, 524017
1, 82440, Note_on_c, 0, 82, 0
1, 82480, Note_on_c, 0, 87, 55
1, 82520, Note_on_c, 0, 87, 0
1, 82537, Tempo, 526316
1, 82560, Note_on_c, 0, 83, 55
1, 82575, Control_c, 0, 64, 0
1, 82600, Note_on_c, 0, 83, 0
1, 82617, Control_c, 0, 64, 127
1, 82640, Note_on_c, 0, 83, 55
1, 82680, Note_on_c, 0, 83, 0
1, 82689, Tempo, 528634
1, 82720, Note_on_c, 0, 87, 55
1, 82760, Note_on_c, 0, 87, 0
1, 82800, Note_on_c, 0, 84, 54
1, 82816, Control_c, 0, 64, 0
1, 82840, Tempo, 530973
1, 82840, Note_on_c, 0, 84, 0
1, 82863, Control_c, 0, 64, 127
1, 82880, Note_on_c, 0, 84, 54
1, 82920, Note_on_c, 0, 84, 0
1, 82960, Note_on_c, 0, 87, 54
1, 82992, Tempo, 533333
1, 83000, Note_on_c, 0, 87, 0
1, 83040, Note_on_c, 0, 85, 52
1, 83051, Control_c, 0, 64, 0
1, 83080, Note_on_c, 0, 85, 0
1, 83086, Control_c, 0, 64, 127
1, 83118, Tempo, 535714
1, 83120, Note_on_c, 0, 85, 52
1, 83160, Note_on_c, 0, 85, 0
1, 83200, Note_on_c, 0, 87, 51
1, 83240, Note_on_c, 0, 87, 0
1, 83270, Tempo, 538117
1, 83280, Note_on_c, 0, 86, 50
1, 83296, Control_c, 0, 64, 0
1, 83320, Note_on_c, 0, 86, 0
1, 83329, Control_c, 0, 64, 127
1, 83360, Note_on_c, 0, 86, 50
1, 83400, Note_on_c, 0, 86, 0
1, 83422, Tempo, 540541
1, 83440, Note_on_c, 0, 87, 49
1, 83480, Note_on_c, 0, 87, 0
1, 83520, Note_on_c, 0, 87, 47
1, 83520, Note_on_c, 0, 68, 37
1, 83520, Note_on_c, 0, 59, 34
1, 83520, Note_on_c, 0, 51, 34
1, 83520, Note_on_c, 0, 44, 34
1, 83523, Tempo, 542986
1, 83529, Control_c, 0, 64, 0
1, 83560, Note_on_c, 0, 87, 0
1, 83563, Control_c, 0, 64, 127
1, 83573, Tempo, 545455
1, 83598, Tempo, 547945
1, 83600, Note_on_c, 0, 87, 47
1, 83640, Note_on_c, 0, 87, 0
1, 83649, Tempo, 550459
1, 83674, Tempo, 552995
1, 83680, Note_on_c, 0, 99, 46
1, 83720, Note_on_c, 0, 99, 0
1, 83725, Tempo, 555556
1, 83750, Tempo, 558140
1, 83760, Note_on_c, 0, 51, 0
1, 83760, Note_on_c, 0, 68, 0
1, 83760, Note_on_c, 0, 59, 0
1, 83760, Note_on_c, 0, 44, 0
1, 83760, Note_on_c, 0, 88, 45
1, 83772, Control_c, 0, 64, 0
1, 83800, Tempo, 560748
1, 83800, Note_on_c, 0, 88, 0
1, 83806, Control_c, 0, 64, 127
1, 83826, Tempo, 563380
1, 83840, Note_on_c, 0, 88, 45
1, 83876, Tempo, 566038
1, 83880, Note_on_c, 0, 88, 0
1, 83902, Tempo, 568720
1, 83920, Note_on_c, 0, 99, 45
1, 83952, Tempo, 571429
1, 83960, Note_on_c, 0, 99, 0
1, 83977, Tempo, 574163
1, 84000, Note_on_c, 0, 89, 44
1, 84017, Control_c, 0, 64, 0
1, 84028, Tempo, 576923
1, 84040, Note_on_c, 0, 89, 0
1, 84053, Tempo, 579710
1, 84057, Control_c, 0, 64, 127
1, 84080, Note_on_c, 0, 89, 44
1, 84104, Tempo, 582524
1, 84120, Note_on_c, 0, 89, 0
1, 84129, Tempo, 585366
1, 84160, Note_on_c, 0, 99, 43
1, 84179, Tempo, 588235
1, 84200, Note_on_c, 0, 99, 0
1, 84205, Tempo, 591133
1, 84230, Tempo, 597015
1, 84240, Note_on_c, 0, 90, 41
1, 84252, Control_c, 0, 64, 0
1, 84255, Tempo, 600000
1, 84280, Tempo, 606061
1, 84280, Note_on_c, 0, 90, 0
1, 84292, Control_c, 0, 64, 127
1, 84306, Tempo, 609137
1, 84320, Note_on_c, 0, 90, 41
1, 84331, Tempo, 615385
1, 84356, Tempo, 621762
1, 84360, Note_on_c, 0, 90, 0
1, 84382, Tempo, 625000
1, 84400, Note_on_c, 0, 99, 40
1, 84407, Tempo, 631579
1, 84432, Tempo, 634921
1, 84440, Note_on_c, 0, 99, 0
1, 84457, Tempo, 641711
1, 84480, Note_on_c, 0, 91, 39
1, 84483, Tempo, 648649
1, 84492, Control_c, 0, 64, 0
1, 84508, Tempo, 652174
1, 84520, Note_on_c, 0, 91, 0
1, 84529, Control_c, 0, 64, 127
1, 84533, Tempo, 659341
1, 84558, Tempo, 662983
1, 84560, Note_on_c, 0, 91, 39
1, 84584, Tempo, 670391
1, 84600, Note_on_c, 0, 91, 0
1, 84609, Tempo, 674157
1, 84634, Tempo, 681818
1, 84640, Note_on_c, 0, 99, 37
1, 84659, Tempo, 689655
1, 84680, Note_on_c, 0, 99, 0
1, 84685, Tempo, 693642
1, 84710, Tempo, 701754
1, 84720, Note_on_c, 0, 92, 36
1, 84735, Tempo, 705882
1, 84737, Control_c, 0, 64, 0
1, 84760, Tempo, 714286
1, 84760, Note_on_c, 0, 92, 0
1, 84775, Control_c, 0, 64, 127
1, 84786, Tempo, 722892
1, 84800, Note_on_c, 0, 92, 36
1, 84811, Tempo, 727273
1, 84836, Tempo, 736196
1, 84840, Note_on_c, 0, 92, 0
1, 84862, Tempo, 740741
1, 84880, Note_on_c, 0, 99, 36
1, 84887, Tempo, 750000
1, 84912, Tempo, 759494
1, 84920, Note_on_c, 0, 99, 0
1, 84940, Tempo, 547945
1, 84960, Tempo, 869565
1, 84960, Control_c, 0, 64, 0
1, 85440, Tempo, 585366
1, 85440, Note_on_c, 0, 71, 41
1, 85440, Note_on_c, 0, 68, 41
1, 85560, Note_on_c, 0, 68, 0
1, 85560, Note_on_c, 0, 70, 43
1, 85560, Note_on_c, 0, 67, 43
1, 85600, Tempo, 582524
1, 85680, Note_on_c, 0, 67, 0
1, 85680, Note_on_c, 0, 70, 0
1, 85680, Note_on_c, 0, 71, 0
1, 85680, Note_on_c, 0, 71, 37
1, 85680, Note_on_c, 0, 69, 44
1, 85680, Note_on_c, 0, 66, 44
1, 85760, Tempo, 579710
1, 85770, Note_on_c, 0, 66, 0
1, 85770, Note_on_c, 0, 69, 0
1, 85770, Note_on_c, 0, 71, 0
1, 85800, Note_on_c, 0, 71, 39
1, 85800, Note_on_c, 0, 68, 45
1, 85800, Note_on_c, 0, 65, 45
1, 85890, Note_on_c, 0, 65, 0
1, 85890, Note_on_c, 0, 68, 0
1, 85890, Note_on_c, 0, 71, 0
1, 85900, Tempo, 576923
1, 85920, Note_on_c, 0, 71, 40
1, 85920, Note_on_c, 0, 67, 45
1, 85920, Note_on_c, 0, 64, 45
1, 86010, Note_on_c, 0, 64, 0
1, 86010, Note_on_c, 0, 67, 0
1, 86010, Note_on_c, 0, 71, 0
1, 86040, Note_on_c, 0, 71, 41
1, 86040, Note_on_c, 0, 66, 46
1, 86040, Note_on_c, 0, 63, 46
1, 86060, Tempo, 574163
1, 86130, Note_on_c, 0, 63, 0
1, 86130, Note_on_c, 0, 66, 0
1, 86130, Note_on_c, 0, 71, 0
1, 86160, Note_on_c, 0, 71, 43
1, 86160, Note_on_c, 0, 65, 47
1, 86160, Note_on_c, 0, 62, 47
1, 86220, Tempo, 571429
1, 86250, Note_on_c, 0, 62, 0
1, 86250, Note_on_c, 0, 65, 0
1, 86250, Note_on_c, 0, 71, 0
1, 86280, Tempo, 600000
1, 86280, Note_on_c, 0, 71, 44
1, 86280, Note_on_c, 0, 64, 49
1, 86280, Note_on_c, 0, 61, 49
1, 86360, Tempo, 568720
1, 86370, Note_on_c, 0, 61, 0
1, 86370, Note_on_c, 0, 64, 0
1, 86370, Note_on_c, 0, 71, 0
1, 86380, Tempo, 621762
1, 86400, Tempo, 622407
1, 86400, Note_on_c, 0, 73, 57
1, 86460, Note_on_c, 0, 73, 0
1, 86460, Note_on_c, 0, 71, 50
1, 86520, Note_on_c, 0, 71, 0
1, 86520, Note_on_c, 0, 70, 50
1, 86580, Note_on_c, 0, 70, 0
1, 86580, Note_on_c, 0, 71, 50
1, 86640, Note_on_c, 0, 71, 0
1, 86640, Note_on_c, 0, 66, 54
1, 86640, Note_on_c, 0, 63, 49
1, 86640, Note_on_c, 0, 59, 44
1, 86700, Note_on_c, 0, 78, 50
1, 86754, Note_on_c, 0, 78, 0
1, 86760, Note_on_c, 0, 78, 50
1, 86814, Note_on_c, 0, 78, 0
1, 86820, Note_on_c, 0, 59, 0
1, 86820, Note_on_c, 0, 63, 0
1, 86820, Note_on_c, 0, 78, 50
1, 86874, Note_on_c, 0, 78, 0
1, 86880, Note_on_c, 0, 66, 0
1, 86880, Note_on_c, 0, 71, 54
1, 86880, Note_on_c, 0, 66, 49
1, 86880, Note_on_c, 0, 63, 44
1, 86880, Note_on_c, 0, 54, 44
1, 86940, Note_on_c, 0, 83, 50
1, 86994, Note_on_c, 0, 83, 0
1, 87000, Note_on_c, 0, 83, 50
1, 87054, Note_on_c, 0, 83, 0
1, 87060, Note_on_c, 0, 54, 0
1, 87060, Note_on_c, 0, 63, 0
1, 87060, Note_on_c, 0, 66, 0
1, 87060, Note_on_c, 0, 83, 50
1, 87114, Note_on_c, 0, 83, 0
1, 87120, Tempo, 642398
1, 87120, Note_on_c, 0, 71, 0
1, 87120, Note_on_c, 0, 73, 54
1, 87180, Note_on_c, 0, 85, 51
1, 87234, Note_on_c, 0, 85, 0
1, 87240, Note_on_c, 0, 85, 51
1, 87294, Note_on_c, 0, 85, 0
1, 87300, Note_on_c, 0, 85, 51
1, 87354, Note_on_c, 0, 85, 0
1, 87360, Tempo, 660066
1, 87360, Note_on_c, 0, 73, 0
1, 87360, Note_on_c, 0, 78, 54
1, 87360, Note_on_c, 0, 64, 46
1, 87360, Note_on_c, 0, 58, 42
1, 87420, Note_on_c, 0, 90, 51
1, 87474, Note_on_c, 0, 90, 0
1, 87480, Note_on_c, 0, 90, 51
1, 87534, Note_on_c, 0, 90, 0
1, 87540, Note_on_c, 0, 58, 0
1, 87540, Note_on_c, 0, 64, 0
1, 87540, Note_on_c, 0, 90, 51
1, 87594, Note_on_c, 0, 90, 0
1, 87600, Tempo, 686499
1, 87600, Note_on_c, 0, 78, 0
1, 87600, Note_on_c, 0, 85, 54
1, 87600, Note_on_c, 0, 66, 46
1, 87600, Note_on_c, 0, 54, 42
1, 87600, Note_on_c, 0, 58, 42
1, 87680, Note_on_c, 0, 97, 52
1, 87680, Note_on_c, 0, 90, 52
1, 87720, Tempo, 741656
1, 87752, Note_on_c, 0, 90, 0
1, 87752, Note_on_c, 0, 97, 0
1, 87760, Note_on_c, 0, 97, 54
1, 87760, Note_on_c, 0, 90, 54
1, 87780, Note_on_c, 0, 54, 0
1, 87780, Note_on_c, 0, 58, 0
1, 87780, Note_on_c, 0, 66, 0
1, 87832, Note_on_c, 0, 90, 0
1, 87832, Note_on_c, 0, 97, 0
1, 87840, Tempo, 635593
1, 87840, Note_on_c, 0, 85, 0
1, 87840, Note_on_c, 0, 87, 56
1, 87840, Note_on_c, 0, 47, 50
1, 87920, Note_on_c, 0, 99, 54
1, 87920, Note_on_c, 0, 90, 54
1, 87992, Note_on_c, 0, 90, 0
1, 87992, Note_on_c, 0, 99, 0
1, 88000, Note_on_c, 0, 99, 54
1, 88000, Note_on_c, 0, 90, 54
1, 88020, Note_on_c, 0, 47, 0
1, 88072, Note_on_c, 0, 90, 0
1, 88072, Note_on_c, 0, 99, 0
1, 88080, Tempo, 618557
1, 88080, Note_on_c, 0, 87, 0
1, 88080, Note_on_c, 0, 83, 54
1, 88080, Note_on_c, 0, 63, 45
1, 88080, Note_on_c, 0, 54, 41
1, 88200, Tempo, 890208
1, 88200, Note_on_c, 0, 54, 0
1, 88200, Note_on_c, 0, 63, 0
1, 88200, Note_on_c, 0, 83, 0
1, 88320, Tempo, 566038
1, 88320, Note_on_c, 0, 75, 41
1, 88320, Note_on_c, 0, 71, 41
1, 88440, Note_on_c, 0, 74, 43
1, 88480, Tempo, 563380
1, 88560, Note_on_c, 0, 74, 0
1, 88560, Note_on_c, 0, 71, 0
1, 88560, Note_on_c, 0, 75, 0
1, 88560, Note_on_c, 0, 75, 37
1, 88560, Note_on_c, 0, 73, 44
1, 88560, Note_on_c, 0, 70, 44
1, 88640, Tempo, 560748
1, 88650, Note_on_c, 0, 70, 0
1, 88650, Note_on_c, 0, 73, 0
1, 88650, Note_on_c, 0, 75, 0
1, 88680, Note_on_c, 0, 75, 39
1, 88680, Note_on_c, 0, 72, 45
1, 88680, Note_on_c, 0, 69, 45
1, 88770, Note_on_c, 0, 69, 0
1, 88770, Note_on_c, 0, 72, 0
1, 88770, Note_on_c, 0, 75, 0
1, 88800, Tempo, 558140
1, 88800, Note_on_c, 0, 75, 40
1, 88800, Note_on_c, 0, 71, 45
1, 88800, Note_on_c, 0, 68, 45
1, 88890, Note_on_c, 0, 68, 0
1, 88890, Note_on_c, 0, 71, 0
1, 88890, Note_on_c, 0, 75, 0
1, 88920, Note_on_c, 0, 75, 41
1, 88920, Note_on_c, 0, 70, 46
1, 88920, Note_on_c, 0, 67, 46
1, 88960, Tempo, 555556
1, 89010, Note_on_c, 0, 67, 0
1, 89010, Note_on_c, 0, 70, 0
1, 89010, Note_on_c, 0, 75, 0
1, 89040, Note_on_c, 0, 75, 43
1, 89040, Note_on_c, 0, 69, 47
1, 89040, Note_on_c, 0, 66, 47
1, 89120, Tempo, 552995
1, 89130, Note_on_c, 0, 66, 0
1, 89130, Note_on_c, 0, 69, 0
1, 89130, Note_on_c, 0, 75, 0
1, 89160, Tempo, 582524
1, 89160, Note_on_c, 0, 75, 44
1, 89160, Note_on_c, 0, 68, 49
1, 89160, Note_on_c, 0, 65, 49
1, 89250, Note_on_c, 0, 65, 0
1, 89250, Note_on_c, 0, 68, 0
1, 89250, Note_on_c, 0, 75, 0
1, 89260, Tempo, 550459
1, 89280, Tempo, 622407
1, 89280, Note_on_c, 0, 77, 56
1, 89340, Note_on_c, 0, 77, 0
1, 89340, Note_on_c, 0, 75, 50
1, 89400, Note_on_c, 0, 75, 0
1, 89400, Note_on_c, 0, 74, 50
1, 89460, Note_on_c, 0, 74, 0
1, 89460, Note_on_c, 0, 75, 50
1, 89520, Note_on_c, 0, 75, 0
1, 89520, Note_on_c, 0, 70, 54
1, 89520, Note_on_c, 0, 66, 49
1, 89520, Note_on_c, 0, 63, 44
1, 89580, Note_on_c, 0, 82, 50
1, 89634, Note_on_c, 0, 82, 0
1, 89640, Note_on_c, 0, 82, 50
1, 89694, Note_on_c, 0, 82, 0
1, 89700, Note_on_c, 0, 63, 0
1, 89700, Note_on_c, 0, 66, 0
1, 89700, Note_on_c, 0, 82, 50
1, 89754, Note_on_c, 0, 82, 0
1, 89760, Note_on_c, 0, 70, 0
1, 89760, Note_on_c, 0, 75, 54
1, 89760, Note_on_c, 0, 70, 49
1, 89760, Note_on_c, 0, 66, 44
1, 89760, Note_on_c, 0, 58, 44
1, 89820, Note_on_c, 0, 87, 50
1, 89874, Note_on_c, 0, 87, 0
1, 89880, Note_on_c, 0, 87, 50
1, 89934, Note_on_c, 0, 87, 0
1, 89940, Note_on_c, 0, 58, 0
1, 89940, Note_on_c, 0, 66, 0
1, 89940, Note_on_c, 0, 70, 0
1, 89940, Note_on_c, 0, 87, 50
1, 89994, Note_on_c, 0, 87, 0
1, 90000, Tempo, 635593
1, 90000, Note_on_c, 0, 75, 0
1, 90000, Note_on_c, 0, 77, 54
1, 90060, Note_on_c, 0, 89, 51
1, 90114, Note_on_c, 0, 89, 0
1, 90120, Note_on_c, 0, 89, 51
1, 90174, Note_on_c, 0, 89, 0
1, 90180, Note_on_c, 0, 89, 51
1, 90234, Note_on_c, 0, 89, 0
1, 90240, Tempo, 652884
1, 90240, Note_on_c, 0, 77, 0
1, 90240, Note_on_c, 0, 82, 54
1, 90240, Note_on_c, 0, 68, 46
1, 90240, Note_on_c, 0, 62, 42
1, 90300, Note_on_c, 0, 94, 51
1, 90354, Note_on_c, 0, 94, 0
1, 90360, Note_on_c, 0, 94, 51
1, 90414, Note_on_c, 0, 94, 0
1, 90420, Note_on_c, 0, 62, 0
1, 90420, Note_on_c, 0, 68, 0
1, 90420, Note_on_c, 0, 94, 51
1, 90474, Note_on_c, 0, 94, 0
1, 90480, Tempo, 678733
1, 90480, Note_on_c, 0, 82, 0
1, 90480, Note_on_c, 0, 89, 54
1, 90480, Note_on_c, 0, 70, 46
1, 90480, Note_on_c, 0, 58, 42
1, 90480, Note_on_c, 0, 62, 42
1, 90560, Note_on_c, 0, 101, 52
1, 90560, Note_on_c, 0, 94, 52
1, 90600, Tempo, 719424
1, 90632, Note_on_c, 0, 94, 0
1, 90632, Note_on_c, 0, 101, 0
1, 90640, Note_on_c, 0, 101, 54
1, 90640, Note_on_c, 0, 94, 54
1, 90660, Note_on_c, 0, 58, 0
1, 90660, Note_on_c, 0, 62, 0
1, 90660, Note_on_c, 0, 70, 0
1, 90712, Note_on_c, 0, 94, 0
1, 90712, Note_on_c, 0, 101, 0
1, 90720, Tempo, 667408
1, 90720, Note_on_c, 0, 89, 0
1, 90720, Note_on_c, 0, 90, 56
1, 90720, Note_on_c, 0, 51, 50
1, 90800, Note_on_c, 0, 102, 54
1, 90800, Note_on_c, 0, 94, 54
1, 90872, Note_on_c, 0, 94, 0
1, 90872, Note_on_c, 0, 102, 0
1, 90880, Note_on_c, 0, 102, 54
1, 90880, Note_on_c, 0, 94, 54
1, 90900, Note_on_c, 0, 51, 0
1, 90952, Note_on_c, 0, 94, 0
1, 90952, Note_on_c, 0, 102, 0
1, 90960, Tempo, 618557
1, 90960, Note_on_c, 0, 90, 0
1, 90960, Note_on_c, 0, 87, 54
1, 90960, Note_on_c, 0, 66, 45
1, 90960, Note_on_c, 0, 58, 41
1, 91080, Tempo, 870827
1, 91080, Note_on_c, 0, 58, 0
1, 91080, Note_on_c, 0, 66, 0
1, 91080, Note_on_c, 0, 87, 0
1, 91200, Tempo, 566038
1, 91200, Note_on_c, 0, 78, 41
1, 91200, Note_on_c, 0, 75, 41
1, 91320, Note_on_c, 0, 75, 0
1, 91320, Note_on_c, 0, 77, 43
1, 91320, Note_on_c, 0, 74, 41
1, 91360, Tempo, 563380
1, 91440, Note_on_c, 0, 74, 0
1, 91440, Note_on_c, 0, 77, 0
1, 91440, Note_on_c, 0, 78, 0
1, 91440, Note_on_c, 0, 78, 37
1, 91440, Note_on_c, 0, 76, 44
1, 91440, Note_on_c, 0, 73, 44
1, 91520, Tempo, 560748
1, 91530, Note_on_c, 0, 73, 0
1, 91530, Note_on_c, 0, 76, 0
1, 91530, Note_on_c, 0, 78, 0
1, 91560, Note_on_c, 0, 78, 39
1, 91560, Note_on_c, 0, 75, 45
1, 91560, Note_on_c, 0, 72, 45
1, 91650, Note_on_c, 0, 72, 0
1, 91650, Note_on_c, 0, 75, 0
1, 91650, Note_on_c, 0, 78, 0
1, 91680, Tempo, 558140
1, 91680, Note_on_c, 0, 78, 40
1, 91680, Note_on_c, 0, 74, 45
1, 91680, Note_on_c, 0, 71, 45
1, 91770, Note_on_c, 0, 71, 0
1, 91770, Note_on_c, 0, 74, 0
1, 91770, Note_on_c, 0, 78, 0
1, 91800, Note_on_c, 0, 78, 41
1, 91800, Note_on_c, 0, 73, 46
1, 91800, Note_on_c, 0, 70, 46
1, 91840, Tempo, 555556
1, 91890, Note_on_c, 0, 70, 0
1, 91890, Note_on_c, 0, 73, 0
1, 91890, Note_on_c, 0, 78, 0
1, 91920, Note_on_c, 0, 78, 43
1, 91920, Note_on_c, 0, 72, 47
1, 91920, Note_on_c, 0, 69, 47
1, 92000, Tempo, 552995
1, 92010, Note_on_c, 0, 69, 0
1, 92010, Note_on_c, 0, 72, 0
1, 92010, Note_on_c, 0, 78, 0
1, 92040, Tempo, 582524
1, 92040, Note_on_c, 0, 78, 44
1, 92040, Note_on_c, 0, 71, 49
1, 92040, Note_on_c, 0, 68, 49
1, 92130, Note_on_c, 0, 68, 0
1, 92130, Note_on_c, 0, 71, 0
1, 92130, Note_on_c, 0, 78, 0
1, 92140, Tempo, 550459
1, 92160, Tempo, 622407
1, 92160, Note_on_c, 0, 80, 56
1, 92220, Note_on_c, 0, 80, 0
1, 92220, Note_on_c, 0, 78, 50
1, 92280, Note_on_c, 0, 78, 0
1, 92280, Note_on_c, 0, 77, 50
1, 92340, Note_on_c, 0, 77, 0
1, 92340, Note_on_c, 0, 78, 50
1, 92400, Note_on_c, 0, 78, 0
1, 92400, Note_on_c, 0, 73, 54
1, 92400, Note_on_c, 0, 70, 49
1, 92400, Note_on_c, 0, 66, 44
1, 92460, Note_on_c, 0, 85, 50
1, 92514, Note_on_c, 0, 85, 0
1, 92520, Note_on_c, 0, 85, 50
1, 92574, Note_on_c, 0, 85, 0
1, 92580, Note_on_c, 0, 66, 0
1, 92580, Note_on_c, 0, 70, 0
1, 92580, Note_on_c, 0, 85, 50
1, 92634, Note_on_c, 0, 85, 0
1, 92640, Note_on_c, 0, 73, 0
1, 92640, Note_on_c, 0, 78, 54
1, 92640, Note_on_c, 0, 73, 49
1, 92640, Note_on_c, 0, 70, 44
1, 92640, Note_on_c, 0, 61, 44
1, 92700, Note_on_c, 0, 90, 50
1, 92754, Note_on_c, 0, 90, 0
1, 92760, Note_on_c, 0, 90, 50
1, 92814, Note_on_c, 0, 90, 0
1, 92820, Note_on_c, 0, 61, 0
1, 92820, Note_on_c, 0, 70, 0
1, 92820, Note_on_c, 0, 73, 0
1, 92820, Note_on_c, 0, 90, 50
1, 92874, Note_on_c, 0, 90, 0
1, 92880, Note_on_c, 0, 78, 0
1, 92880, Note_on_c, 0, 80, 54
1, 92940, Note_on_c, 0, 92, 51
1, 92994, Note_on_c, 0, 92, 0
1, 93000, Note_on_c, 0, 92, 51
1, 93054, Note_on_c, 0, 92, 0
1, 93060, Note_on_c, 0, 92, 51
1, 93100, Tempo, 659341
1, 93114, Note_on_c, 0, 92, 0
1, 93120, Tempo, 628272
1, 93120, Note_on_c, 0, 80, 0
1, 93120, Note_on_c, 0, 85, 54
1, 93120, Note_on_c, 0, 71, 46
1, 93120, Note_on_c, 0, 65, 42
1, 93148, Tempo, 628931
1, 93173, Tempo, 632244
1, 93198, Tempo, 635593
1, 93200, Note_on_c, 0, 97, 54
1, 93200, Note_on_c, 0, 92, 54
1, 93224, Tempo, 638978
1, 93249, Tempo, 642398
1, 93272, Note_on_c, 0, 92, 0
1, 93272, Note_on_c, 0, 97, 0
1, 93274, Tempo, 645856
1, 93280, Note_on_c, 0, 97, 54
1, 93280, Note_on_c, 0, 92, 54
1, 93299, Tempo, 649351
1, 93300, Note_on_c, 0, 65, 0
1, 93300, Note_on_c, 0, 71, 0
1, 93325, Tempo, 652884
1, 93350, Tempo, 656455
1, 93352, Note_on_c, 0, 92, 0
1, 93352, Note_on_c, 0, 97, 0
1, 93360, Note_on_c, 0, 85, 0
1, 93360, Note_on_c, 0, 97, 54
1, 93360, Note_on_c, 0, 92, 54
1, 93360, Note_on_c, 0, 73, 46
1, 93360, Note_on_c, 0, 61, 42
1, 93360, Note_on_c, 0, 65, 42
1, 93375, Tempo, 660066
1, 93400, Tempo, 663717
1, 93426, Tempo, 667408
1, 93432, Note_on_c, 0, 92, 0
1, 93432, Note_on_c, 0, 97, 0
1, 93440, Note_on_c, 0, 92, 52
1, 93440, Note_on_c, 0, 97, 52
1, 93451, Tempo, 671141
1, 93476, Tempo, 678733
1, 93480, Tempo, 662983
1, 93500, Tempo, 816327
1, 93512, Note_on_c, 0, 97, 0
1, 93512, Note_on_c, 0, 92, 0
1, 93520, Tempo, 827586
1, 93520, Note_on_c, 0, 92, 54
1, 93520, Note_on_c, 0, 97, 54
1, 93540, Tempo, 839161
1, 93540, Note_on_c, 0, 65, 0
1, 93540, Note_on_c, 0, 61, 0
1, 93540, Note_on_c, 0, 73, 0
1, 93560, Tempo, 851064
1, 93592, Note_on_c, 0, 92, 0
1, 93592, Note_on_c, 0, 97, 0
1, 93600, Tempo, 612870
1, 93600, Note_on_c, 0, 97, 40
1, 93600, Note_on_c, 0, 94, 40
1, 93600, Note_on_c, 0, 66, 55
1, 93660, Note_on_c, 0, 97, 0
1, 93660, Note_on_c, 0, 99, 40
1, 93720, Note_on_c, 0, 99, 0
1, 93720, Note_on_c, 0, 94, 0
1, 93720, Note_on_c, 0, 97, 39
1, 93720, Note_on_c, 0, 93, 39
1, 93780, Note_on_c, 0, 97, 0
1, 93780, Note_on_c, 0, 99, 37
1, 93840, Tempo, 583090
1, 93840, Note_on_c, 0, 99, 0
1, 93840, Note_on_c, 0, 93, 0
1, 93840, Note_on_c, 0, 66, 0
1, 93840, Note_on_c, 0, 97, 37
1, 93840, Note_on_c, 0, 92, 37
1, 93840, Note_on_c, 0, 78, 44
1, 93840, Note_on_c, 0, 82, 49
1, 93900, Note_on_c, 0, 97, 0
1, 93900, Note_on_c, 0, 99, 36
1, 93930, Note_on_c, 0, 82, 0
1, 93930, Note_on_c, 0, 78, 0
1, 93960, Note_on_c, 0, 92, 0
1, 93960, Note_on_c, 0, 99, 0
1, 93960, Note_on_c, 0, 97, 36
1, 93960, Note_on_c, 0, 91, 36
1, 93960, Note_on_c, 0, 80, 44
1, 93960, Note_on_c, 0, 83, 49
1, 94020, Note_on_c, 0, 97, 0
1, 94020, Note_on_c, 0, 99, 36
1, 94050, Note_on_c, 0, 83, 0
1, 94050, Note_on_c, 0, 80, 0
1, 94060, Tempo, 545455
1, 94080, Tempo, 558659
1, 94080, Note_on_c, 0, 91, 0
1, 94080, Note_on_c, 0, 99, 0
1, 94080, Note_on_c, 0, 97, 35
1, 94080, Note_on_c, 0, 90, 35
1, 94080, Note_on_c, 0, 82, 45
1, 94080, Note_on_c, 0, 85, 52
1, 94140, Note_on_c, 0, 97, 0
1, 94140, Note_on_c, 0, 99, 35
1, 94200, Tempo, 568720
1, 94200, Note_on_c, 0, 99, 0
1, 94200, Note_on_c, 0, 97, 34
1, 94260, Note_on_c, 0, 97, 0
1, 94260, Note_on_c, 0, 85, 0
1, 94260, Note_on_c, 0, 82, 0
1, 94260, Note_on_c, 0, 99, 34
1, 94320, Tempo, 597610
1, 94320, Note_on_c, 0, 99, 0
1, 94320, Note_on_c, 0, 90, 0
1, 94320, Note_on_c, 0, 95, 37
1, 94320, Note_on_c, 0, 92, 37
1, 94320, Note_on_c, 0, 59, 55
1, 94380, Note_on_c, 0, 95, 0
1, 94380, Note_on_c, 0, 97, 37
1, 94440, Note_on_c, 0, 97, 0
1, 94440, Note_on_c, 0, 92, 0
1, 94440, Note_on_c, 0, 95, 36
1, 94440, Note_on_c, 0, 91, 36
1, 94500, Note_on_c, 0, 95, 0
1, 94500, Note_on_c, 0, 97, 36
1, 94540, Tempo, 563380
1, 94560, Tempo, 580271
1, 94560, Note_on_c, 0, 97, 0
1, 94560, Note_on_c, 0, 91, 0
1, 94560, Note_on_c, 0, 59, 0
1, 94560, Note_on_c, 0, 95, 36
1, 94560, Note_on_c, 0, 90, 36
1, 94560, Note_on_c, 0, 80, 49
1, 94560, Note_on_c, 0, 71, 44
1, 94620, Note_on_c, 0, 95, 0
1, 94620, Note_on_c, 0, 97, 36
1, 94650, Note_on_c, 0, 71, 0
1, 94650, Note_on_c, 0, 80, 0
1, 94680, Note_on_c, 0, 90, 0
1, 94680, Note_on_c, 0, 97, 0
1, 94680, Note_on_c, 0, 95, 35
1, 94680, Note_on_c, 0, 89, 35
1, 94680, Note_on_c, 0, 82, 49
1, 94680, Note_on_c, 0, 73, 44
1, 94740, Note_on_c, 0, 95, 0
1, 94740, Note_on_c, 0, 97, 35
1, 94770, Note_on_c, 0, 73, 0
1, 94770, Note_on_c, 0, 82, 0
1, 94800, Tempo, 558659
1, 94800, Note_on_c, 0, 89, 0
1, 94800, Note_on_c, 0, 97, 0
1, 94800, Note_on_c, 0, 95, 34
1, 94800, Note_on_c, 0, 87, 34
1, 94800, Note_on_c, 0, 75, 45
1, 94800, Note_on_c, 0, 83, 51
1, 94860, Note_on_c, 0, 95, 0
1, 94860, Note_on_c, 0, 97, 34
1, 94920, Tempo, 600601
1, 94920, Note_on_c, 0, 97, 0
1, 94920, Note_on_c, 0, 95, 33
1, 94980, Note_on_c, 0, 95, 0
1, 94980, Note_on_c, 0, 83, 0
1, 94980, Note_on_c, 0, 75, 0
1, 94980, Note_on_c, 0, 97, 33
1, 95040, Tempo, 591716
1, 95040, Note_on_c, 0, 97, 0
1, 95040, Note_on_c, 0, 87, 0
1, 95040, Note_on_c, 0, 94, 37
1, 95040, Note_on_c, 0, 90, 37
1, 95040, Note_on_c, 0, 61, 55
1, 95100, Note_on_c, 0, 94, 0
1, 95100, Note_on_c, 0, 95, 37
1, 95160, Note_on_c, 0, 95, 0
1, 95160, Note_on_c, 0, 90, 0
1, 95160, Note_on_c, 0, 94, 36
1, 95160, Note_on_c, 0, 89, 36
1, 95220, Note_on_c, 0, 94, 0
1, 95220, Note_on_c, 0, 95, 36
1, 95280, Tempo, 574713
1, 95280, Note_on_c, 0, 95, 0
1, 95280, Note_on_c, 0, 89, 0
1, 95280, Note_on_c, 0, 61, 0
1, 95280, Note_on_c, 0, 94, 36
1, 95280, Note_on_c, 0, 87, 36
1, 95280, Note_on_c, 0, 70, 44
1, 95280, Note_on_c, 0, 78, 49
1, 95340, Note_on_c, 0, 94, 0
1, 95340, Note_on_c, 0, 95, 36
1, 95370, Note_on_c, 0, 78, 0
1, 95370, Note_on_c, 0, 70, 0
1, 95400, Note_on_c, 0, 87, 0
1, 95400, Note_on_c, 0, 95, 0
1, 95400, Note_on_c, 0, 94, 36
1, 95400, Note_on_c, 0, 86, 36
1, 95400, Note_on_c, 0, 71, 44
1, 95400, Note_on_c, 0, 80, 49
1, 95460, Note_on_c, 0, 94, 0
1, 95460, Note_on_c, 0, 95, 35
1, 95490, Note_on_c, 0, 80, 0
1, 95490, Note_on_c, 0, 71, 0
1, 95520, Tempo, 550964
1, 95520, Note_on_c, 0, 86, 0
1, 95520, Note_on_c, 0, 95, 0
1, 95520, Note_on_c, 0, 94, 35
1, 95520, Note_on_c, 0, 85, 35
1, 95520, Note_on_c, 0, 73, 45
1, 95520, Note_on_c, 0, 82, 52
1, 95580, Note_on_c, 0, 94, 0
1, 95580, Note_on_c, 0, 95, 34
1, 95640, Tempo, 597610
1, 95640, Note_on_c, 0, 95, 0
1, 95640, Note_on_c, 0, 94, 34
1, 95700, Note_on_c, 0, 94, 0
1, 95700, Note_on_c, 0, 82, 0
1, 95700, Note_on_c, 0, 73, 0
1, 95700, Note_on_c, 0, 95, 32
1, 95760, Tempo, 580271
1, 95760, Note_on_c, 0, 95, 0
1, 95760, Note_on_c, 0, 85, 0
1, 95760, Note_on_c, 0, 92, 37
1, 95760, Note_on_c, 0, 89, 37
1, 95760, Note_on_c, 0, 61, 55
1, 95820, Note_on_c, 0, 92, 0
1, 95820, Note_on_c, 0, 94, 37
1, 95880, Note_on_c, 0, 94, 0
1, 95880, Note_on_c, 0, 89, 0
1, 95880, Note_on_c, 0, 92, 36
1, 95880, Note_on_c, 0, 87, 36
1, 95940, Note_on_c, 0, 92, 0
1, 95940, Note_on_c, 0, 94, 36
1, 95980, Tempo, 540541
1, 96000, Tempo, 569260
1, 96000, Note_on_c, 0, 94, 0
1, 96000, Note_on_c, 0, 87, 0
1, 96000, Note_on_c, 0, 61, 0
1, 96000, Note_on_c, 0, 92, 35
1, 96000, Note_on_c, 0, 86, 35
1, 96000, Note_on_c, 0, 77, 49
1, 96000, Note_on_c, 0, 68, 44
1, 96060, Note_on_c, 0, 92, 0
1, 96060, Note_on_c, 0, 94, 34
1, 96090, Note_on_c, 0, 68, 0
1, 96090, Note_on_c, 0, 77, 0
1, 96120, Note_on_c, 0, 86, 0
1, 96120, Note_on_c, 0, 94, 0
1, 96120, Note_on_c, 0, 92, 33
1, 96120, Note_on_c, 0, 85, 33
1, 96120, Note_on_c, 0, 70, 44
1, 96120, Note_on_c, 0, 78, 49
1, 96180, Note_on_c, 0, 92, 0
1, 96180, Note_on_c, 0, 94, 32
1, 96210, Note_on_c, 0, 78, 0
1, 96210, Note_on_c, 0, 70, 0
1, 96240, Tempo, 577478
1, 96240, Note_on_c, 0, 85, 0
1, 96240, Note_on_c, 0, 94, 0
1, 96240, Note_on_c, 0, 92, 32
1, 96240, Note_on_c, 0, 83, 32
1, 96240, Note_on_c, 0, 71, 45
1, 96240, Note_on_c, 0, 80, 51
1, 96300, Note_on_c, 0, 92, 0
1, 96300, Note_on_c, 0, 87, 36
1, 96360, Tempo, 588813
1, 96360, Note_on_c, 0, 87, 0
1, 96360, Note_on_c, 0, 88, 39
1, 96420, Note_on_c, 0, 88, 0
1, 96420, Note_on_c, 0, 80, 0
1, 96420, Note_on_c, 0, 71, 0
1, 96420, Note_on_c, 0, 89, 41
1, 96480, Tempo, 558140
1, 96480, Note_on_c, 0, 89, 0
1, 96480, Note_on_c, 0, 83, 0
1, 96480, Note_on_c, 0, 90, 43
1, 96480, Note_on_c, 0, 82, 59
1, 96480, Note_on_c, 0, 73, 53
1, 96480, Note_on_c, 0, 66, 53
1, 96540, Note_on_c, 0, 90, 0
1, 96540, Note_on_c, 0, 92, 43
1, 96600, Note_on_c, 0, 92, 0
1, 96600, Note_on_c, 0, 90, 43
1, 96660, Note_on_c, 0, 90, 0
1, 96660, Note_on_c, 0, 92, 43
1, 96720, Tempo, 566038
1, 96720, Note_on_c, 0, 92, 0
1, 96720, Note_on_c, 0, 66, 0
1, 96720, Note_on_c, 0, 73, 0
1, 96720, Note_on_c, 0, 82, 0
1, 96720, Note_on_c, 0, 78, 59
1, 96780, Note_on_c, 0, 90, 45
1, 96840, Note_on_c, 0, 90, 0
1, 96840, Note_on_c, 0, 92, 45
1, 96900, Note_on_c, 0, 92, 0
1, 96900, Note_on_c, 0, 90, 45
1, 96960, Note_on_c, 0, 90, 0
1, 96960, Note_on_c, 0, 78, 0
1, 96960, Note_on_c, 0, 79, 60
1, 97020, Note_on_c, 0, 91, 47
1, 97080, Note_on_c, 0, 91, 0
1, 97080, Note_on_c, 0, 92, 47
1, 97140, Note_on_c, 0, 92, 0
1, 97140, Note_on_c, 0, 91, 47
1, 97200, Tempo, 571429
1, 97200, Note_on_c, 0, 91, 0
1, 97200, Note_on_c, 0, 79, 0
1, 97200, Note_on_c, 0, 80, 63
1, 97260, Note_on_c, 0, 92, 51
1, 97320, Note_on_c, 0, 92, 0
1, 97320, Note_on_c, 0, 93, 51
1, 97380, Note_on_c, 0, 93, 0
1, 97380, Note_on_c, 0, 92, 50
1, 97420, Note_on_c, 0, 64, 41
1, 97440, Tempo, 579710
1, 97440, Note_on_c, 0, 92, 0
1, 97440, Note_on_c, 0, 80, 0
1, 97440, Note_on_c, 0, 93, 50
1, 97440, Note_on_c, 0, 80, 57
1, 97500, Note_on_c, 0, 93, 0
1, 97500, Note_on_c, 0, 92, 49
1, 97520, Tempo, 582524
1, 97560, Note_on_c, 0, 92, 0
1, 97560, Note_on_c, 0, 93, 49
1, 97600, Tempo, 585366
1, 97620, Note_on_c, 0, 93, 0
1, 97620, Note_on_c, 0, 92, 47
1, 97660, Tempo, 588235
1, 97660, Note_on_c, 0, 80, 0
1, 97660, Note_on_c, 0, 64, 0
1, 97660, Note_on_c, 0, 63, 45
1, 97680, Note_on_c, 0, 92, 0
1, 97680, Note_on_c, 0, 93, 47
1, 97680, Note_on_c, 0, 78, 56
1, 97728, Note_on_c, 0, 93, 0
1, 97728, Note_on_c, 0, 92, 46
1, 97740, Tempo, 591133
1, 97776, Note_on_c, 0, 92, 0
1, 97776, Note_on_c, 0, 93, 46
1, 97820, Tempo, 594059
1, 97824, Note_on_c, 0, 93, 0
1, 97824, Note_on_c, 0, 92, 45
1, 97872, Note_on_c, 0, 92, 0
1, 97872, Note_on_c, 0, 93, 45
1, 97920, Tempo, 642398
1, 97920, Note_on_c, 0, 93, 0
1, 97920, Note_on_c, 0, 78, 0
1, 97920, Note_on_c, 0, 63, 0
1, 97920, Note_on_c, 0, 92, 45
1, 97920, Note_on_c, 0, 61, 44
1, 97920, Note_on_c, 0, 76, 54
1, 97980, Note_on_c, 0, 92, 0
1, 97980, Note_on_c, 0, 93, 45
1, 98040, Note_on_c, 0, 93, 0
1, 98040, Note_on_c, 0, 92, 45
1, 98100, Note_on_c, 0, 92, 0
1, 98100, Note_on_c, 0, 93, 45
1, 98160, Tempo, 609756
1, 98160, Note_on_c, 0, 93, 0
1, 98160, Note_on_c, 0, 76, 0
1, 98160, Note_on_c, 0, 61, 0
1, 98160, Note_on_c, 0, 92, 51
1, 98160, Note_on_c, 0, 102, 61
1, 98160, Note_on_c, 0, 87, 55
1, 98220, Note_on_c, 0, 92, 0
1, 98220, Note_on_c, 0, 93, 51
1, 98280, Note_on_c, 0, 93, 0
1, 98280, Note_on_c, 0, 92, 51
1, 98340, Note_on_c, 0, 92, 0
1, 98340, Note_on_c, 0, 87, 0
1, 98340, Note_on_c, 0, 102, 0
1, 98340, Note_on_c, 0, 93, 51
1, 98400, Note_on_c, 0, 93, 0
1, 98400, Note_on_c, 0, 92, 47
1, 98400, Note_on_c, 0, 100, 60
1, 98400, Note_on_c, 0, 85, 55
1, 98460, Note_on_c, 0, 92, 0
1, 98460, Note_on_c, 0, 93, 47
1, 98520, Note_on_c, 0, 93, 0
1, 98520, Note_on_c, 0, 92, 47
1, 98580, Note_on_c, 0, 92, 0
1, 98580, Note_on_c, 0, 85, 0
1, 98580, Note_on_c, 0, 100, 0
1, 98580, Note_on_c, 0, 93, 47
1, 98600, Tempo, 566038
1, 98640, Tempo, 580271
1, 98640, Note_on_c, 0, 93, 0
1, 98640, Note_on_c, 0, 92, 51
1, 98640, Note_on_c, 0, 99, 61
1, 98640, Note_on_c, 0, 68, 37
1, 98640, Note_on_c, 0, 84, 59
1, 98700, Note_on_c, 0, 92, 0
1, 98700, Note_on_c, 0, 93, 51
1, 98760, Note_on_c, 0, 93, 0
1, 98760, Note_on_c, 0, 92, 51
1, 98820, Note_on_c, 0, 92, 0
1, 98820, Note_on_c, 0, 99, 0
1, 98820, Note_on_c, 0, 84, 0
1, 98820, Note_on_c, 0, 93, 51
1, 98840, Tempo, 580271
1, 98880, Tempo, 583090
1, 98880, Note_on_c, 0, 93, 0
1, 98880, Note_on_c, 0, 68, 0
1, 98880, Note_on_c, 0, 92, 47
1, 98880, Note_on_c, 0, 97, 57
1, 98880, Note_on_c, 0, 82, 55
1, 98920, Tempo, 585938
1, 98940, Note_on_c, 0, 92, 0
1, 98940, Note_on_c, 0, 93, 47
1, 98960, Tempo, 588813
1, 99000, Tempo, 591716
1, 99000, Note_on_c, 0, 93, 0
1, 99000, Note_on_c, 0, 92, 47
1, 99040, Tempo, 594648
1, 99060, Note_on_c, 0, 92, 0
1, 99060, Note_on_c, 0, 82, 0
1, 99060, Note_on_c, 0, 97, 0
1, 99060, Note_on_c, 0, 93, 46
1, 99080, Tempo, 597610
1, 99120, Tempo, 600601
1, 99120, Note_on_c, 0, 93, 0
1, 99120, Note_on_c, 0, 92, 46
1, 99120, Note_on_c, 0, 99, 55
1, 99120, Note_on_c, 0, 84, 54
1, 99160, Tempo, 603622
1, 99180, Note_on_c, 0, 92, 0
1, 99180, Note_on_c, 0, 93, 46
1, 99200, Tempo, 606673
1, 99220, Tempo, 609756
1, 99240, Tempo, 656455
1, 99240, Note_on_c, 0, 93, 0
1, 99240, Note_on_c, 0, 92, 45
1, 99300, Note_on_c, 0, 92, 0
1, 99300, Note_on_c, 0, 84, 0
1, 99300, Note_on_c, 0, 99, 0
1, 99300, Note_on_c, 0, 93, 45
1, 99360, Tempo, 594648
1, 99360, Note_on_c, 0, 93, 0
1, 99360, Note_on_c, 0, 92, 46
1, 99360, Note_on_c, 0, 100, 56
1, 99360, Note_on_c, 0, 73, 39
1, 99360, Note_on_c, 0, 85, 51
1, 99420, Note_on_c, 0, 92, 0
1, 99420, Note_on_c, 0, 93, 46
1, 99480, Note_on_c, 0, 93, 0
1, 99480, Note_on_c, 0, 92, 45
1, 99540, Note_on_c, 0, 92, 0
1, 99540, Note_on_c, 0, 100, 0
1, 99540, Note_on_c, 0, 85, 0
1, 99540, Note_on_c, 0, 93, 45
1, 99600, Tempo, 656455
1, 99600, Note_on_c, 0, 93, 0
1, 99600, Note_on_c, 0, 73, 0
1, 99600, Note_on_c, 0, 92, 51
1, 99600, Note_on_c, 0, 97, 51
1, 99600, Note_on_c, 0, 88, 47
1, 99720, Note_on_c, 0, 88, 0
1, 99720, Note_on_c, 0, 97, 0
1, 99720, Note_on_c, 0, 92, 0
1, 99840, Tempo, 628931
1, 99840, Note_on_c, 0, 79, 60
1, 99900, Note_on_c, 0, 91, 47
1, 99960, Note_on_c, 0, 91, 0
1, 99960, Note_on_c, 0, 93, 47
1, 100020, Note_on_c, 0, 93, 0
1, 100020, Note_on_c, 0, 91, 47
1, 100080, Tempo, 591716
1, 100080, Note_on_c, 0, 91, 0
1, 100080, Note_on_c, 0, 79, 0
1, 100080, Note_on_c, 0, 78, 63
1, 100140, Note_on_c, 0, 90, 51
1, 100200, Note_on_c, 0, 90, 0
1, 100200, Note_on_c, 0, 92, 51
1, 100260, Note_on_c, 0, 92, 0
1, 100260, Note_on_c, 0, 90, 50
1, 100280, Tempo, 591716
1, 100320, Tempo, 594648
1, 100320, Note_on_c, 0, 90, 0
1, 100320, Note_on_c, 0, 78, 0
1, 100320, Note_on_c, 0, 92, 50
1, 100320, Note_on_c, 0, 63, 41
1, 100320, Note_on_c, 0, 78, 57
1, 100360, Tempo, 597610
1, 100380, Note_on_c, 0, 92, 0
1, 100380, Note_on_c, 0, 90, 49
1, 100400, Tempo, 600601
1, 100440, Tempo, 603622
1, 100440, Note_on_c, 0, 90, 0
1, 100440, Note_on_c, 0, 92, 49
1, 100480, Tempo, 606673
1, 100500, Note_on_c, 0, 92, 0
1, 100500, Note_on_c, 0, 90, 47
1, 100520, Tempo, 609756
1, 100560, Tempo, 612870
1, 100560, Note_on_c, 0, 90, 0
1, 100560, Note_on_c, 0, 78, 0
1, 100560, Note_on_c, 0, 63, 0
1, 100560, Note_on_c, 0, 92, 47
1, 100560, Note_on_c, 0, 61, 41
1, 100560, Note_on_c, 0, 76, 56
1, 100600, Tempo, 616016
1, 100608, Note_on_c, 0, 92, 0
1, 100608, Note_on_c, 0, 90, 46
1, 100640, Tempo, 619195
1, 100656, Note_on_c, 0, 90, 0
1, 100656, Note_on_c, 0, 92, 46
1, 100680, Tempo, 622407
1, 100704, Note_on_c, 0, 92, 0
1, 100704, Note_on_c, 0, 90, 45
1, 100720, Tempo, 625652
1, 100752, Note_on_c, 0, 90, 0
1, 100752, Note_on_c, 0, 92, 45
1, 100760, Tempo, 628931
1, 100800, Tempo, 632244
1, 100800, Note_on_c, 0, 92, 0
1, 100800, Note_on_c, 0, 76, 0
1, 100800, Note_on_c, 0, 61, 0
1, 100800, Note_on_c, 0, 90, 45
1, 100800, Note_on_c, 0, 59, 44
1, 100800, Note_on_c, 0, 75, 54
1, 100860, Note_on_c, 0, 90, 0
1, 100860, Note_on_c, 0, 92, 45
1, 100920, Note_on_c, 0, 92, 0
1, 100920, Note_on_c, 0, 90, 45
1, 100980, Note_on_c, 0, 90, 0
1, 100980, Note_on_c, 0, 92, 45
1, 101040, Tempo, 603622
1, 101040, Note_on_c, 0, 92, 0
1, 101040, Note_on_c, 0, 75, 0
1, 101040, Note_on_c, 0, 59, 0
1, 101040, Note_on_c, 0, 90, 51
1, 101040, Note_on_c, 0, 100, 61
1, 101040, Note_on_c, 0, 85, 55
1, 101100, Note_on_c, 0, 90, 0
1, 101100, Note_on_c, 0, 92, 51
1, 101160, Note_on_c, 0, 92, 0
1, 101160, Note_on_c, 0, 90, 51
1, 101220, Note_on_c, 0, 90, 0
1, 101220, Note_on_c, 0, 85, 0
1, 101220, Note_on_c, 0, 100, 0
1, 101220, Note_on_c, 0, 92, 51
1, 101280, Note_on_c, 0, 92, 0
1, 101280, Note_on_c, 0, 90, 47
1, 101280, Note_on_c, 0, 99, 60
1, 101280, Note_on_c, 0, 83, 55
1, 101340, Note_on_c, 0, 90, 0
1, 101340, Note_on_c, 0, 92, 47
1, 101400, Note_on_c, 0, 92, 0
1, 101400, Note_on_c, 0, 90, 47
1, 101460, Note_on_c, 0, 90, 0
1, 101460, Note_on_c, 0, 83, 0
1, 101460, Note_on_c, 0, 99, 0
1, 101460, Note_on_c, 0, 92, 47
1, 101480, Tempo, 566038
1, 101520, Tempo, 580271
1, 101520, Note_on_c, 0, 92, 0
1, 101520, Note_on_c, 0, 90, 51
1, 101520, Note_on_c, 0, 97, 61
1, 101520, Note_on_c, 0, 66, 37
1, 101520, Note_on_c, 0, 82, 59
1, 101580, Tempo, 583090
1, 101580, Note_on_c, 0, 90, 0
1, 101580, Note_on_c, 0, 92, 51
1, 101620, Tempo, 585938
1, 101640, Note_on_c, 0, 92, 0
1, 101640, Note_on_c, 0, 90, 51
1, 101680, Tempo, 588813
1, 101700, Note_on_c, 0, 90, 0
1, 101700, Note_on_c, 0, 97, 0
1, 101700, Note_on_c, 0, 82, 0
1, 101700, Note_on_c, 0, 92, 51
1, 101720, Tempo, 591716
1, 101760, Note_on_c, 0, 92, 0
1, 101760, Note_on_c, 0, 66, 0
1, 101760, Note_on_c, 0, 90, 47
1, 101760, Note_on_c, 0, 95, 57
1, 101760, Note_on_c, 0, 80, 55
1, 101780, Tempo, 594648
1, 101820, Tempo, 597610
1, 101820, Note_on_c, 0, 90, 0
1, 101820, Note_on_c, 0, 92, 47
1, 101860, Tempo, 600601
1, 101880, Note_on_c, 0, 92, 0
1, 101880, Note_on_c, 0, 90, 47
1, 101920, Tempo, 603622
1, 101940, Note_on_c, 0, 90, 0
1, 101940, Note_on_c, 0, 80, 0
1, 101940, Note_on_c, 0, 95, 0
1, 101940, Note_on_c, 0, 92, 46
1, 101960, Tempo, 606673
1, 102000, Note_on_c, 0, 92, 0
1, 102000, Note_on_c, 0, 90, 46
1, 102000, Note_on_c, 0, 97, 55
1, 102000, Note_on_c, 0, 82, 54
1, 102020, Tempo, 609756
1, 102060, Tempo, 612870
1, 102060, Note_on_c, 0, 90, 0
1, 102060, Note_on_c, 0, 92, 46
1, 102100, Tempo, 616016
1, 102120, Tempo, 667408
1, 102120, Note_on_c, 0, 92, 0
1, 102120, Note_on_c, 0, 90, 45
1, 102180, Note_on_c, 0, 90, 0
1, 102180, Note_on_c, 0, 82, 0
1, 102180, Note_on_c, 0, 97, 0
1, 102180, Note_on_c, 0, 92, 45
1, 102240, Tempo, 600601
1, 102240, Note_on_c, 0, 92, 0
1, 102240, Note_on_c, 0, 90, 46
1, 102240, Note_on_c, 0, 99, 56
1, 102240, Note_on_c, 0, 71, 39
1, 102240, Note_on_c, 0, 83, 51
1, 102300, Note_on_c, 0, 90, 0
1, 102300, Note_on_c, 0, 92, 46
1, 102360, Note_on_c, 0, 92, 0
1, 102360, Note_on_c, 0, 90, 46
1, 102420, Note_on_c, 0, 90, 0
1, 102420, Note_on_c, 0, 99, 0
1, 102420, Note_on_c, 0, 83, 0
1, 102420, Note_on_c, 0, 92, 46
1, 102480, Tempo, 642398
1, 102480, Note_on_c, 0, 92, 0
1, 102480, Note_on_c, 0, 71, 0
1, 102480, Note_on_c, 0, 90, 51
1, 102480, Note_on_c, 0, 95, 51
1, 102480, Note_on_c, 0, 87, 47
1, 102600, Note_on_c, 0, 87, 0
1, 102600, Note_on_c, 0, 95, 0
1, 102600, Note_on_c, 0, 90, 0
1, 102700, Tempo, 612245
1, 102720, Tempo, 616016
1, 102720, Note_on_c, 0, 74, 57
1, 102780, Note_on_c, 0, 86, 47
1, 102840, Note_on_c, 0, 86, 0
1, 102840, Note_on_c, 0, 87, 47
1, 102900, Note_on_c, 0, 87, 0
1, 102900, Note_on_c, 0, 86, 47
1, 102960, Note_on_c, 0, 86, 0
1, 102960, Note_on_c, 0, 74, 0
1, 102960, Note_on_c, 0, 75, 57
1, 103020, Note_on_c, 0, 87, 51
1, 103080, Note_on_c, 0, 87, 0
1, 103080, Note_on_c, 0, 88, 50
1, 103140, Note_on_c, 0, 88, 0
1, 103140, Note_on_c, 0, 87, 50
1, 103200, Tempo, 628272
1, 103200, Note_on_c, 0, 87, 0
1, 103200, Note_on_c, 0, 75, 0
1, 103200, Note_on_c, 0, 88, 49
1, 103200, Note_on_c, 0, 63, 40
1, 103200, Note_on_c, 0, 67, 40
1, 103200, Note_on_c, 0, 75, 45
1, 103240, Tempo, 631579
1, 103260, Tempo, 634921
1, 103260, Note_on_c, 0, 88, 0
1, 103260, Note_on_c, 0, 87, 49
1, 103300, Tempo, 638298
1, 103320, Tempo, 641711
1, 103320, Note_on_c, 0, 87, 0
1, 103320, Note_on_c, 0, 88, 47
1, 103340, Tempo, 645161
1, 103380, Tempo, 648649
1, 103380, Note_on_c, 0, 88, 0
1, 103380, Note_on_c, 0, 87, 47
1, 103400, Tempo, 652174
1, 103440, Tempo, 655738
1, 103440, Note_on_c, 0, 87, 0
1, 103440, Note_on_c, 0, 75, 0
1, 103440, Note_on_c, 0, 67, 0
1, 103440, Note_on_c, 0, 63, 0
1, 103440, Note_on_c, 0, 88, 46
1, 103440, Note_on_c, 0, 65, 37
1, 103440, Note_on_c, 0, 68, 37
1, 103440, Note_on_c, 0, 74, 43
1, 103460, Tempo, 659341
1, 103480, Tempo, 662983
1, 103500, Note_on_c, 0, 88, 0
1, 103500, Note_on_c, 0, 87, 46
1, 103520, Tempo, 666667
1, 103540, Tempo, 670391
1, 103560, Tempo, 718563
1, 103560, Note_on_c, 0, 87, 0
1, 103560, Note_on_c, 0, 88, 45
1, 103620, Note_on_c, 0, 88, 0
1, 103620, Note_on_c, 0, 87, 45
1, 103640, Tempo, 619195
1, 103680, Note_on_c, 0, 87, 0
1, 103680, Note_on_c, 0, 74, 0
1, 103680, Note_on_c, 0, 68, 0
1, 103680, Note_on_c, 0, 65, 0
1, 103680, Note_on_c, 0, 88, 43
1, 103680, Note_on_c, 0, 67, 35
1, 103680, Note_on_c, 0, 70, 35
1, 103680, Note_on_c, 0, 73, 39
1, 103725, Note_on_c, 0, 88, 0
1, 103725, Note_on_c, 0, 87, 44
1, 103740, Tempo, 616016
1, 103770, Note_on_c, 0, 87, 0
1, 103770, Note_on_c, 0, 86, 45
1, 103815, Note_on_c, 0, 86, 0
1, 103815, Note_on_c, 0, 87, 45
1, 103820, Tempo, 612870
1, 103860, Note_on_c, 0, 87, 0
1, 103860, Note_on_c, 0, 88, 46
1, 103905, Note_on_c, 0, 88, 0
1, 103905, Note_on_c, 0, 89, 47
1, 103920, Tempo, 609756
1, 103920, Note_on_c, 0, 67, 0
1, 103920, Note_on_c, 0, 73, 0
1, 103920, Note_on_c, 0, 70, 0
1, 103950, Note_on_c, 0, 89, 0
1, 103950, Note_on_c, 0, 90, 49
1, 103995, Note_on_c, 0, 90, 0
1, 103995, Note_on_c, 0, 91, 49
1, 104000, Tempo, 606673
1, 104040, Note_on_c, 0, 91, 0
1, 104040, Note_on_c, 0, 92, 51
1, 104085, Note_on_c, 0, 92, 0
1, 104085, Note_on_c, 0, 93, 52
1, 104100, Tempo, 603622
1, 104130, Note_on_c, 0, 93, 0
1, 104130, Note_on_c, 0, 94, 54
1, 104175, Note_on_c, 0, 94, 0
1, 104175, Note_on_c, 0, 95, 55
1, 104180, Tempo, 600601
1, 104220, Note_on_c, 0, 95, 0
1, 104220, Note_on_c, 0, 96, 56
1, 104265, Note_on_c, 0, 96, 0
1, 104265, Note_on_c, 0, 97, 57
1, 104280, Tempo, 597610
1, 104310, Note_on_c, 0, 97, 0
1, 104310, Note_on_c, 0, 98, 59
1, 104355, Note_on_c, 0, 98, 0
1, 104355, Note_on_c, 0, 99, 60
1, 104360, Tempo, 594648
1, 104400, Note_on_c, 0, 99, 0
1, 104400, Note_on_c, 0, 100, 61
1, 104400, Note_on_c, 0, 68, 43
1, 104400, Note_on_c, 0, 71, 43
1, 104400, Note_on_c, 0, 76, 47
1, 104440, Tempo, 591716
1, 104448, Note_on_c, 0, 100, 0
1, 104448, Note_on_c, 0, 102, 60
1, 104496, Note_on_c, 0, 102, 0
1, 104496, Note_on_c, 0, 100, 60
1, 104520, Tempo, 594648
1, 104544, Note_on_c, 0, 100, 0
1, 104544, Note_on_c, 0, 99, 59
1, 104592, Note_on_c, 0, 99, 0
1, 104592, Note_on_c, 0, 98, 57
1, 104600, Tempo, 597610
1, 104640, Note_on_c, 0, 98, 0
1, 104640, Note_on_c, 0, 68, 0
1, 104640, Note_on_c, 0, 71, 0
1, 104640, Note_on_c, 0, 76, 0
1, 104640, Note_on_c, 0, 97, 56
1, 104680, Tempo, 600601
1, 104688, Note_on_c, 0, 97, 0
1, 104688, Note_on_c, 0, 96, 55
1, 104736, Note_on_c, 0, 96, 0
1, 104736, Note_on_c, 0, 95, 54
1, 104760, Tempo, 603622
1, 104784, Note_on_c, 0, 95, 0
1, 104784, Note_on_c, 0, 94, 54
1, 104832, Note_on_c, 0, 94, 0
1, 104832, Note_on_c, 0, 93, 52
1, 104840, Tempo, 606673
1, 104880, Note_on_c, 0, 93, 0
1, 104880, Note_on_c, 0, 92, 51
1, 104920, Tempo, 609756
1, 104928, Note_on_c, 0, 92, 0
1, 104928, Note_on_c, 0, 91, 50
1, 104976, Note_on_c, 0, 91, 0
1, 104976, Note_on_c, 0, 90, 49
1, 105000, Tempo, 612870
1, 105024, Note_on_c, 0, 90, 0
1, 105024, Note_on_c, 0, 89, 47
1, 105060, Note_on_c, 0, 63, 39
1, 105072, Note_on_c, 0, 89, 0
1, 105072, Note_on_c, 0, 88, 46
1, 105080, Tempo, 616016
1, 105120, Note_on_c, 0, 88, 0
1, 105120, Note_on_c, 0, 87, 46
1, 105120, Note_on_c, 0, 79, 49
1, 105140, Tempo, 619195
1, 105360, Tempo, 597015
1, 105360, Note_on_c, 0, 79, 0
1, 105360, Note_on_c, 0, 87, 0
1, 105360, Note_on_c, 0, 63, 0
1, 105360, Note_on_c, 0, 70, 57
1, 105420, Note_on_c, 0, 82, 47
1, 105480, Note_on_c, 0, 82, 0
1, 105480, Note_on_c, 0, 83, 47
1, 105540, Note_on_c, 0, 83, 0
1, 105540, Note_on_c, 0, 82, 47
1, 105600, Tempo, 600000
1, 105600, Note_on_c, 0, 82, 0
1, 105600, Note_on_c, 0, 70, 0
1, 105600, Note_on_c, 0, 74, 57
1, 105660, Note_on_c, 0, 86, 47
1, 105720, Note_on_c, 0, 86, 0
1, 105720, Note_on_c, 0, 87, 47
1, 105780, Note_on_c, 0, 87, 0
1, 105780, Note_on_c, 0, 86, 47
1, 105840, Note_on_c, 0, 86, 0
1, 105840, Note_on_c, 0, 74, 0
1, 105840, Note_on_c, 0, 75, 57
1, 105900, Note_on_c, 0, 87, 51
1, 105960, Note_on_c, 0, 87, 0
1, 105960, Note_on_c, 0, 88, 50
1, 106020, Note_on_c, 0, 88, 0
1, 106020, Note_on_c, 0, 87, 50
1, 106080, Tempo, 628272
1, 106080, Note_on_c, 0, 87, 0
1, 106080, Note_on_c, 0, 75, 0
1, 106080, Note_on_c, 0, 88, 49
1, 106080, Note_on_c, 0, 63, 40
1, 106080, Note_on_c, 0, 67, 40
1, 106080, Note_on_c, 0, 75, 45
1, 106120, Tempo, 631579
1, 106140, Tempo, 634921
1, 106140, Note_on_c, 0, 88, 0
1, 106140, Note_on_c, 0, 87, 49
1, 106180, Tempo, 638298
1, 106200, Tempo, 641711
1, 106200, Note_on_c, 0, 87, 0
1, 106200, Note_on_c, 0, 88, 47
1, 106220, Tempo, 645161
1, 106260, Tempo, 648649
1, 106260, Note_on_c, 0, 88, 0
1, 106260, Note_on_c, 0, 87, 47
1, 106280, Tempo, 652174
1, 106320, Tempo, 655738
1, 106320, Note_on_c, 0, 87, 0
1, 106320, Note_on_c, 0, 75, 0
1, 106320, Note_on_c, 0, 67, 0
1, 106320, Note_on_c, 0, 63, 0
1, 106320, Note_on_c, 0, 88, 46
1, 106320, Note_on_c, 0, 65, 37
1, 106320, Note_on_c, 0, 68, 37
1, 106320, Note_on_c, 0, 74, 43
1, 106340, Tempo, 659341
1, 106360, Tempo, 662983
1, 106380, Note_on_c, 0, 88, 0
1, 106380, Note_on_c, 0, 87, 46
1, 106400, Tempo, 666667
1, 106420, Tempo, 670391
1, 106440, Tempo, 718563
1, 106440, Note_on_c, 0, 87, 0
1, 106440, Note_on_c, 0, 88, 45
1, 106500, Note_on_c, 0, 88, 0
1, 106500, Note_on_c, 0, 87, 45
1, 106520, Tempo, 616016
1, 106560, Note_on_c, 0, 87, 0
1, 106560, Note_on_c, 0, 74, 0
1, 106560, Note_on_c, 0, 68, 0
1, 106560, Note_on_c, 0, 65, 0
1, 106560, Note_on_c, 0, 88, 43
1, 106560, Note_on_c, 0, 67, 35
1, 106560, Note_on_c, 0, 70, 35
1, 106560, Note_on_c, 0, 73, 39
1, 106605, Note_on_c, 0, 88, 0
1, 106605, Note_on_c, 0, 87, 44
1, 106650, Note_on_c, 0, 87, 0
1, 106650, Note_on_c, 0, 86, 45
1, 106660, Tempo, 612870
1, 106695, Note_on_c, 0, 86, 0
1, 106695, Note_on_c, 0, 87, 45
1, 106740, Note_on_c, 0, 87, 0
1, 106740, Note_on_c, 0, 88, 46
1, 106780, Tempo, 609756
1, 106785, Note_on_c, 0, 88, 0
1, 106785, Note_on_c, 0, 89, 47
1, 106800, Note_on_c, 0, 67, 0
1, 106800, Note_on_c, 0, 73, 0
1, 106800, Note_on_c, 0, 70, 0
1, 106830, Note_on_c, 0, 89, 0
1, 106830, Note_on_c, 0, 90, 49
1, 106875, Note_on_c, 0, 90, 0
1, 106875, Note_on_c, 0, 91, 49
1, 106900, Tempo, 606673
1, 106920, Note_on_c, 0, 91, 0
1, 106920, Note_on_c, 0, 92, 51
1, 106965, Note_on_c, 0, 92, 0
1, 106965, Note_on_c, 0, 93, 52
1, 107010, Note_on_c, 0, 93, 0
1, 107010, Note_on_c, 0, 94, 54
1, 107040, Tempo, 603622
1, 107055, Note_on_c, 0, 94, 0
1, 107055, Note_on_c, 0, 95, 55
1, 107100, Note_on_c, 0, 95, 0
1, 107100, Note_on_c, 0, 96, 56
1, 107145, Note_on_c, 0, 96, 0
1, 107145, Note_on_c, 0, 97, 57
1, 107160, Tempo, 600601
1, 107190, Note_on_c, 0, 97, 0
1, 107190, Note_on_c, 0, 98, 59
1, 107235, Note_on_c, 0, 98, 0
1, 107235, Note_on_c, 0, 99, 60
1, 107280, Tempo, 597610
1, 107280, Note_on_c, 0, 99, 0
1, 107280, Note_on_c, 0, 100, 61
1, 107280, Note_on_c, 0, 68, 43
1, 107280, Note_on_c, 0, 71, 43
1, 107280, Note_on_c, 0, 76, 47
1, 107328, Note_on_c, 0, 100, 0
1, 107328, Note_on_c, 0, 102, 60
1, 107376, Note_on_c, 0, 102, 0
1, 107376, Note_on_c, 0, 100, 60
1, 107400, Tempo, 594648
1, 107424, Note_on_c, 0, 100, 0
1, 107424, Note_on_c, 0, 99, 59
1, 107472, Note_on_c, 0, 99, 0
1, 107472, Note_on_c, 0, 98, 57
1, 107480, Tempo, 597610
1, 107520, Note_on_c, 0, 98, 0
1, 107520, Note_on_c, 0, 68, 0
1, 107520, Note_on_c, 0, 71, 0
1, 107520, Note_on_c, 0, 76, 0
1, 107520, Note_on_c, 0, 97, 56
1, 107560, Tempo, 600601
1, 107568, Note_on_c, 0, 97, 0
1, 107568, Note_on_c, 0, 96, 55
1, 107616, Note_on_c, 0, 96, 0
1, 107616, Note_on_c, 0, 95, 54
1, 107640, Tempo, 603622
1, 107664, Note_on_c, 0, 95, 0
1, 107664, Note_on_c, 0, 94, 54
1, 107700, Tempo, 606673
1, 107712, Note_on_c, 0, 94, 0
1, 107712, Note_on_c, 0, 93, 52
1, 107760, Note_on_c, 0, 93, 0
1, 107760, Note_on_c, 0, 92, 51
1, 107780, Tempo, 609756
1, 107808, Note_on_c, 0, 92, 0
1, 107808, Note_on_c, 0, 91, 50
1, 107856, Note_on_c, 0, 91, 0
1, 107856, Note_on_c, 0, 90, 49
1, 107860, Tempo, 612870
1, 107904, Note_on_c, 0, 90, 0
1, 107904, Note_on_c, 0, 89, 47
1, 107940, Tempo, 616016
1, 107952, Note_on_c, 0, 89, 0
1, 107952, Note_on_c, 0, 88, 46
1, 107980, Tempo, 619195
1, 108000, Note_on_c, 0, 88, 0
1, 108000, Note_on_c, 0, 87, 43
1, 108000, Note_on_c, 0, 79, 39
1, 108000, Note_on_c, 0, 63, 35
1, 108000, Note_on_c, 0, 70, 35
1, 108045, Note_on_c, 0, 87, 0
1, 108045, Note_on_c, 0, 88, 43
1, 108060, Tempo, 616016
1, 108090, Note_on_c, 0, 88, 0
1, 108090, Note_on_c, 0, 87, 44
1, 108120, Tempo, 612870
1, 108132, Note_on_c, 0, 87, 0
1, 108132, Note_on_c, 0, 86, 45
1, 108174, Note_on_c, 0, 86, 0
1, 108174, Note_on_c, 0, 87, 45
1, 108200, Tempo, 609756
1, 108216, Note_on_c, 0, 87, 0
1, 108216, Note_on_c, 0, 88, 46
1, 108240, Note_on_c, 0, 79, 0
1, 108240, Note_on_c, 0, 70, 0
1, 108240, Note_on_c, 0, 63, 0
1, 108258, Note_on_c, 0, 88, 0
1, 108258, Note_on_c, 0, 89, 47
1, 108260, Tempo, 606673
1, 108300, Note_on_c, 0, 89, 0
1, 108300, Note_on_c, 0, 90, 49
1, 108340, Tempo, 603622
1, 108342, Note_on_c, 0, 90, 0
1, 108342, Note_on_c, 0, 91, 50
1, 108384, Note_on_c, 0, 91, 0
1, 108384, Note_on_c, 0, 92, 51
1, 108400, Tempo, 600601
1, 108426, Note_on_c, 0, 92, 0
1, 108426, Note_on_c, 0, 93, 52
1, 108468, Note_on_c, 0, 93, 0
1, 108468, Note_on_c, 0, 94, 54
1, 108480, Tempo, 597610
1, 108510, Note_on_c, 0, 94, 0
1, 108510, Note_on_c, 0, 95, 55
1, 108540, Tempo, 594648
1, 108552, Note_on_c, 0, 95, 0
1, 108552, Note_on_c, 0, 96, 56
1, 108594, Note_on_c, 0, 96, 0
1, 108594, Note_on_c, 0, 97, 57
1, 108620, Tempo, 591716
1, 108636, Note_on_c, 0, 97, 0
1, 108636, Note_on_c, 0, 98, 59
1, 108678, Note_on_c, 0, 98, 0
1, 108678, Note_on_c, 0, 99, 60
1, 108680, Tempo, 588813
1, 108719, Note_on_c, 0, 100, 61
1, 108720, Note_on_c, 0, 99, 0
1, 108720, Note_on_c, 0, 56, 43
1, 108720, Note_on_c, 0, 71, 47
1, 108760, Tempo, 585938
1, 108767, Note_on_c, 0, 100, 0
1, 108767, Note_on_c, 0, 102, 60
1, 108815, Note_on_c, 0, 102, 0
1, 108815, Note_on_c, 0, 100, 60
1, 108820, Tempo, 583090
1, 108863, Note_on_c, 0, 100, 0
1, 108863, Note_on_c, 0, 99, 59
1, 108880, Tempo, 585938
1, 108911, Note_on_c, 0, 99, 0
1, 108911, Note_on_c, 0, 98, 57
1, 108920, Tempo, 588813
1, 108959, Note_on_c, 0, 98, 0
1, 108959, Note_on_c, 0, 97, 56
1, 108960, Note_on_c, 0, 71, 0
1, 108960, Note_on_c, 0, 56, 0
1, 108980, Tempo, 591716
1, 109007, Note_on_c, 0, 97, 0
1, 109007, Note_on_c, 0, 96, 55
1, 109020, Tempo, 594648
1, 109055, Note_on_c, 0, 96, 0
1, 109055, Note_on_c, 0, 95, 54
1, 109080, Tempo, 597610
1, 109103, Note_on_c, 0, 95, 0
1, 109103, Note_on_c, 0, 94, 54
1, 109120, Tempo, 600601
1, 109151, Note_on_c, 0, 94, 0
1, 109151, Note_on_c, 0, 93, 52
1, 109180, Tempo, 603622
1, 109199, Note_on_c, 0, 93, 0
1, 109199, Note_on_c, 0, 92, 51
1, 109220, Tempo, 606673
1, 109247, Note_on_c, 0, 92, 0
1, 109247, Note_on_c, 0, 91, 50
1, 109280, Tempo, 609756
1, 109295, Note_on_c, 0, 91, 0
1, 109295, Note_on_c, 0, 90, 49
1, 109320, Tempo, 612870
1, 109343, Note_on_c, 0, 90, 0
1, 109343, Note_on_c, 0, 89, 47
1, 109380, Tempo, 616016
1, 109391, Note_on_c, 0, 89, 0
1, 109391, Note_on_c, 0, 88, 46
1, 109420, Tempo, 619195
1, 109439, Note_on_c, 0, 88, 0
1, 109440, Time_signature, 3, 3, 12, 8
1, 109440, Tempo, 600000
1, 109440, Note_on_c, 0, 87, 43
1, 109440, Note_on_c, 0, 51, 39
1, 109440, Note_on_c, 0, 67, 39
1, 109485, Note_on_c, 0, 87, 0
1, 109485, Note_on_c, 0, 88, 43
1, 109530, Note_on_c, 0, 88, 0
1, 109530, Note_on_c, 0, 87, 44
1, 109560, Tempo, 597015
1, 109572, Note_on_c, 0, 87, 0
1, 109572, Note_on_c, 0, 86, 45
1, 109614, Note_on_c, 0, 86, 0
1, 109614, Note_on_c, 0, 87, 45
1, 109656, Note_on_c, 0, 87, 0
1, 109656, Note_on_c, 0, 88, 46
1, 109660, Tempo, 594059
1, 109680, Note_on_c, 0, 67, 0
1, 109680, Note_on_c, 0, 51, 0
1, 109698, Note_on_c, 0, 88, 0
1, 109698, Note_on_c, 0, 89, 47
1, 109740, Note_on_c, 0, 89, 0
1, 109740, Note_on_c, 0, 90, 49
1, 109760, Tempo, 591133
1, 109782, Note_on_c, 0, 90, 0
1, 109782, Note_on_c, 0, 91, 50
1, 109824, Note_on_c, 0, 91, 0
1, 109824, Note_on_c, 0, 92, 51
1, 109860, Tempo, 588235
1, 109866, Note_on_c, 0, 92, 0
1, 109866, Note_on_c, 0, 93, 52
1, 109908, Note_on_c, 0, 93, 0
1, 109908, Note_on_c, 0, 94, 54
1, 109950, Note_on_c, 0, 94, 0
1, 109950, Note_on_c, 0, 95, 55
1, 109960, Tempo, 585366
1, 109992, Note_on_c, 0, 95, 0
1, 109992, Note_on_c, 0, 96, 56
1, 110034, Note_on_c, 0, 96, 0
1, 110034, Note_on_c, 0, 97, 57
1, 110060, Tempo, 582524
1, 110076, Note_on_c, 0, 97, 0
1, 110076, Note_on_c, 0, 98, 59
1, 110118, Note_on_c, 0, 98, 0
1, 110118, Note_on_c, 0, 99, 60
1, 110127, Tempo, 597610
1, 110160, Time_signature, 6, 3, 12, 8
1, 110160, Marker_t, "quasi cadenza"
1, 110160, Note_on_c, 0, 99, 0
1, 110160, Note_on_c, 0, 100, 67
1, 110160, Note_on_c, 0, 44, 63
1, 110160, Note_on_c, 0, 59, 63
1, 110167, Tempo, 597610
1, 110220, Note_on_c, 0, 100, 0
1, 110220, Note_on_c, 0, 102, 63
1, 110280, Note_on_c, 0, 102, 0
1, 110280, Note_on_c, 0, 100, 63
1, 110287, Tempo, 594648
1, 110340, Note_on_c, 0, 100, 0
1, 110340, Note_on_c, 0, 99, 63
1, 110387, Tempo, 591716
1, 110400, Note_on_c, 0, 99, 0
1, 110400, Note_on_c, 0, 59, 0
1, 110400, Note_on_c, 0, 44, 0
1, 110400, Note_on_c, 0, 98, 67
1, 110460, Note_on_c, 0, 98, 0
1, 110460, Note_on_c, 0, 99, 63
1, 110507, Tempo, 588813
1, 110520, Note_on_c, 0, 99, 0
1, 110520, Note_on_c, 0, 98, 63
1, 110580, Note_on_c, 0, 98, 0
1, 110580, Note_on_c, 0, 97, 63
1, 110607, Tempo, 585938
1, 110640, Note_on_c, 0, 97, 0
1, 110640, Note_on_c, 0, 96, 67
1, 110700, Note_on_c, 0, 96, 0
1, 110700, Note_on_c, 0, 97, 63
1, 110727, Tempo, 583090
1, 110760, Note_on_c, 0, 97, 0
1, 110760, Note_on_c, 0, 96, 63
1, 110820, Note_on_c, 0, 96, 0
1, 110820, Note_on_c, 0, 95, 63
1, 110827, Tempo, 580271
1, 110880, Note_on_c, 0, 95, 0
1, 110880, Note_on_c, 0, 94, 67
1, 110940, Note_on_c, 0, 94, 0
1, 110944, Note_on_c, 0, 95, 63
1, 110947, Tempo, 577478
1, 110995, Note_on_c, 0, 94, 63
1, 111004, Note_on_c, 0, 95, 0
1, 111047, Tempo, 574713
1, 111055, Note_on_c, 0, 94, 0
1, 111065, Note_on_c, 0, 93, 63
1, 111121, Note_on_c, 0, 92, 67
1, 111125, Note_on_c, 0, 93, 0
1, 111167, Tempo, 571973
1, 111175, Note_on_c, 0, 93, 63
1, 111181, Note_on_c, 0, 92, 0
1, 111235, Note_on_c, 0, 93, 0
1, 111240, Note_on_c, 0, 92, 63
1, 111267, Tempo, 569260
1, 111297, Note_on_c, 0, 91, 63
1, 111300, Note_on_c, 0, 92, 0
1, 111357, Note_on_c, 0, 91, 0
1, 111364, Note_on_c, 0, 90, 62
1, 111387, Tempo, 566572
1, 111421, Note_on_c, 0, 91, 61
1, 111424, Note_on_c, 0, 90, 0
1, 111481, Note_on_c, 0, 91, 0
1, 111482, Note_on_c, 0, 90, 61
1, 111487, Tempo, 563910
1, 111537, Note_on_c, 0, 89, 61
1, 111542, Note_on_c, 0, 90, 0
1, 111587, Tempo, 561272
1, 111597, Note_on_c, 0, 89, 0
1, 111604, Note_on_c, 0, 88, 61
1, 111656, Note_on_c, 0, 90, 59
1, 111664, Note_on_c, 0, 88, 0
1, 111687, Tempo, 558659
1, 111716, Note_on_c, 0, 90, 0
1, 111716, Note_on_c, 0, 88, 59
1, 111767, Tempo, 556070
1, 111776, Note_on_c, 0, 88, 0
1, 111783, Note_on_c, 0, 87, 59
1, 111838, Note_on_c, 0, 86, 60
1, 111843, Note_on_c, 0, 87, 0
1, 111847, Tempo, 553506
1, 111898, Note_on_c, 0, 86, 0
1, 111905, Note_on_c, 0, 87, 56
1, 111947, Tempo, 550964
1, 111958, Note_on_c, 0, 86, 56
1, 111965, Note_on_c, 0, 87, 0
1, 112018, Note_on_c, 0, 86, 0
1, 112018, Note_on_c, 0, 85, 56
1, 112027, Tempo, 548446
1, 112076, Note_on_c, 0, 84, 59
1, 112078, Note_on_c, 0, 85, 0
1, 112107, Tempo, 545951
1, 112136, Note_on_c, 0, 84, 0
1, 112143, Note_on_c, 0, 85, 56
1, 112203, Note_on_c, 0, 85, 0
1, 112204, Note_on_c, 0, 84, 56
1, 112262, Note_on_c, 0, 83, 56
1, 112264, Note_on_c, 0, 84, 0
1, 112321, Note_on_c, 0, 82, 57
1, 112322, Note_on_c, 0, 83, 0
1, 112381, Note_on_c, 0, 82, 0
1, 112383, Note_on_c, 0, 83, 54
1, 112437, Note_on_c, 0, 82, 54
1, 112443, Note_on_c, 0, 83, 0
1, 112496, Note_on_c, 0, 81, 54
1, 112497, Note_on_c, 0, 82, 0
1, 112555, Note_on_c, 0, 80, 56
1, 112556, Note_on_c, 0, 81, 0
1, 112615, Note_on_c, 0, 80, 0
1, 112615, Note_on_c, 0, 81, 54
1, 112675, Note_on_c, 0, 81, 0
1, 112683, Note_on_c, 0, 80, 54
1, 112743, Note_on_c, 0, 80, 0
1, 112744, Note_on_c, 0, 79, 54
1, 112797, Note_on_c, 0, 78, 55
1, 112804, Note_on_c, 0, 79, 0
1, 112856, Note_on_c, 0, 79, 52
1, 112857, Note_on_c, 0, 78, 0
1, 112916, Note_on_c, 0, 79, 0
1, 112921, Note_on_c, 0, 78, 52
1, 112975, Note_on_c, 0, 77, 52
1, 112981, Note_on_c, 0, 78, 0
1, 113035, Note_on_c, 0, 77, 0
1, 113036, Note_on_c, 0, 76, 55
1, 113096, Note_on_c, 0, 76, 0
1, 113099, Note_on_c, 0, 78, 52
1, 113159, Note_on_c, 0, 78, 0
1, 113163, Note_on_c, 0, 76, 52
1, 113222, Note_on_c, 0, 75, 52
1, 113223, Note_on_c, 0, 76, 0
1, 113280, Note_on_c, 0, 74, 54
1, 113282, Note_on_c, 0, 75, 0
1, 113335, Note_on_c, 0, 75, 51
1, 113340, Note_on_c, 0, 74, 0
1, 113395, Note_on_c, 0, 75, 0
1, 113399, Note_on_c, 0, 74, 51
1, 113457, Note_on_c, 0, 73, 51
1, 113459, Note_on_c, 0, 74, 0
1, 113517, Note_on_c, 0, 73, 0
1, 113522, Note_on_c, 0, 72, 54
1, 113578, Note_on_c, 0, 73, 50
1, 113582, Note_on_c, 0, 72, 0
1, 113638, Note_on_c, 0, 73, 0
1, 113639, Note_on_c, 0, 72, 50
1, 113697, Note_on_c, 0, 71, 50
1, 113699, Note_on_c, 0, 72, 0
1, 113740, Tempo, 550459
1, 113757, Note_on_c, 0, 71, 0
1, 113761, Note_on_c, 0, 70, 52
1, 113820, Tempo, 552995
1, 113820, Note_on_c, 0, 71, 49
1, 113821, Note_on_c, 0, 70, 0
1, 113880, Note_on_c, 0, 71, 0
1, 113881, Note_on_c, 0, 70, 49
1, 113900, Tempo, 555556
1, 113936, Note_on_c, 0, 69, 49
1, 113941, Note_on_c, 0, 70, 0
1, 113980, Tempo, 558140
1, 113996, Note_on_c, 0, 69, 0
1, 114000, Note_on_c, 0, 68, 51
1, 114040, Tempo, 560748
1, 114060, Note_on_c, 0, 68, 0
1, 114065, Note_on_c, 0, 69, 47
1, 114120, Tempo, 563380
1, 114122, Note_on_c, 0, 68, 47
1, 114125, Note_on_c, 0, 69, 0
1, 114182, Note_on_c, 0, 68, 0
1, 114185, Note_on_c, 0, 67, 47
1, 114200, Tempo, 566038
1, 114237, Note_on_c, 0, 66, 50
1, 114245, Note_on_c, 0, 67, 0
1, 114260, Tempo, 568720
1, 114297, Note_on_c, 0, 66, 0
1, 114298, Note_on_c, 0, 67, 46
1, 114340, Tempo, 571429
1, 114356, Note_on_c, 0, 66, 46
1, 114358, Note_on_c, 0, 67, 0
1, 114360, Note_on_c, 0, 43, 41
1, 114416, Note_on_c, 0, 66, 0
1, 114420, Tempo, 574163
1, 114420, Note_on_c, 0, 58, 41
1, 114425, Note_on_c, 0, 65, 46
1, 114460, Tempo, 576923
1, 114480, Note_on_c, 0, 64, 46
1, 114480, Note_on_c, 0, 61, 51
1, 114485, Note_on_c, 0, 65, 0
1, 114540, Tempo, 574163
1, 114540, Note_on_c, 0, 64, 0
1, 114545, Note_on_c, 0, 62, 46
1, 114596, Note_on_c, 0, 64, 46
1, 114600, Tempo, 571429
1, 114605, Note_on_c, 0, 62, 0
1, 114656, Note_on_c, 0, 64, 0
1, 114661, Note_on_c, 0, 63, 46
1, 114680, Tempo, 568720
1, 114716, Note_on_c, 0, 65, 46
1, 114720, Note_on_c, 0, 61, 0
1, 114720, Note_on_c, 0, 43, 0
1, 114720, Note_on_c, 0, 58, 0
1, 114721, Note_on_c, 0, 63, 0
1, 114740, Tempo, 566038
1, 114776, Note_on_c, 0, 65, 0
1, 114779, Note_on_c, 0, 64, 46
1, 114800, Tempo, 563380
1, 114839, Note_on_c, 0, 64, 0
1, 114845, Note_on_c, 0, 66, 46
1, 114880, Tempo, 560748
1, 114895, Note_on_c, 0, 65, 46
1, 114905, Note_on_c, 0, 66, 0
1, 114940, Tempo, 558140
1, 114955, Note_on_c, 0, 65, 0
1, 114964, Note_on_c, 0, 67, 46
1, 115000, Tempo, 555556
1, 115018, Note_on_c, 0, 66, 46
1, 115024, Note_on_c, 0, 67, 0
1, 115077, Note_on_c, 0, 68, 46
1, 115078, Note_on_c, 0, 66, 0
1, 115080, Tempo, 552995
1, 115137, Note_on_c, 0, 68, 0
1, 115140, Tempo, 550459
1, 115143, Note_on_c, 0, 67, 46
1, 115199, Note_on_c, 0, 69, 46
1, 115200, Tempo, 547945
1, 115203, Note_on_c, 0, 67, 0
1, 115257, Note_on_c, 0, 68, 46
1, 115259, Note_on_c, 0, 69, 0
1, 115317, Note_on_c, 0, 68, 0
1, 115321, Note_on_c, 0, 70, 46
1, 115381, Note_on_c, 0, 70, 0
1, 115381, Note_on_c, 0, 69, 46
1, 115439, Note_on_c, 0, 71, 46
1, 115441, Note_on_c, 0, 69, 0
1, 115499, Note_on_c, 0, 71, 0
1, 115500, Note_on_c, 0, 70, 46
1, 115560, Note_on_c, 0, 70, 0
1, 115561, Note_on_c, 0, 72, 46
1, 115621, Note_on_c, 0, 72, 0
1, 115621, Note_on_c, 0, 71, 46
1, 115681, Note_on_c, 0, 71, 0
1, 115684, Note_on_c, 0, 73, 46
1, 115744, Note_on_c, 0, 73, 0
1, 115744, Note_on_c, 0, 72, 46
1, 115801, Note_on_c, 0, 74, 46
1, 115804, Note_on_c, 0, 72, 0
1, 115861, Note_on_c, 0, 74, 0
1, 115862, Note_on_c, 0, 73, 46
1, 115921, Note_on_c, 0, 75, 46
1, 115922, Note_on_c, 0, 73, 0
1, 115979, Note_on_c, 0, 74, 46
1, 115981, Note_on_c, 0, 75, 0
1, 116037, Note_on_c, 0, 76, 46
1, 116039, Note_on_c, 0, 74, 0
1, 116097, Note_on_c, 0, 76, 0
1, 116103, Note_on_c, 0, 75, 46
1, 116161, Note_on_c, 0, 77, 45
1, 116163, Note_on_c, 0, 75, 0
1, 116221, Note_on_c, 0, 77, 0
1, 116224, Note_on_c, 0, 76, 45
1, 116277, Note_on_c, 0, 78, 45
1, 116284, Note_on_c, 0, 76, 0
1, 116337, Note_on_c, 0, 78, 0
1, 116337, Note_on_c, 0, 77, 46
1, 116397, Note_on_c, 0, 77, 0
1, 116401, Note_on_c, 0, 79, 47
1, 116461, Note_on_c, 0, 79, 0
1, 116462, Note_on_c, 0, 78, 49
1, 116521, Note_on_c, 0, 80, 49
1, 116522, Note_on_c, 0, 78, 0
1, 116578, Note_on_c, 0, 79, 50
1, 116581, Note_on_c, 0, 80, 0
1, 116638, Note_on_c, 0, 79, 0
1, 116640, Note_on_c, 0, 81, 51
1, 116695, Note_on_c, 0, 80, 52
1, 116700, Note_on_c, 0, 81, 0
1, 116755, Note_on_c, 0, 80, 0
1, 116763, Note_on_c, 0, 82, 54
1, 116821, Note_on_c, 0, 81, 54
1, 116823, Note_on_c, 0, 82, 0
1, 116881, Note_on_c, 0, 81, 0
1, 116881, Note_on_c, 0, 83, 54
1, 116941, Note_on_c, 0, 83, 0
1, 116942, Note_on_c, 0, 82, 55
1, 117002, Note_on_c, 0, 82, 0
1, 117003, Note_on_c, 0, 84, 56
1, 117056, Note_on_c, 0, 83, 57
1, 117063, Note_on_c, 0, 84, 0
1, 117116, Note_on_c, 0, 83, 0
1, 117121, Note_on_c, 0, 85, 57
1, 117181, Note_on_c, 0, 85, 0
1, 117184, Note_on_c, 0, 84, 59
1, 117244, Note_on_c, 0, 84, 0
1, 117245, Note_on_c, 0, 86, 60
1, 117301, Note_on_c, 0, 85, 61
1, 117305, Note_on_c, 0, 86, 0
1, 117360, Tempo, 545455
1, 117361, Note_on_c, 0, 85, 0
1, 117363, Note_on_c, 0, 87, 62
1, 117375, Control_c, 0, 64, 127
1, 117415, Note_on_c, 0, 86, 63
1, 117423, Note_on_c, 0, 87, 0
1, 117475, Note_on_c, 0, 86, 0
1, 117482, Note_on_c, 0, 88, 63
1, 117542, Note_on_c, 0, 88, 0
1, 117545, Note_on_c, 0, 87, 64
1, 117580, Tempo, 547945
1, 117598, Note_on_c, 0, 89, 65
1, 117605, Note_on_c, 0, 87, 0
1, 117658, Note_on_c, 0, 89, 0
1, 117661, Note_on_c, 0, 88, 66
1, 117718, Note_on_c, 0, 90, 67
1, 117721, Note_on_c, 0, 88, 0
1, 117776, Note_on_c, 0, 89, 67
1, 117778, Note_on_c, 0, 90, 0
1, 117780, Tempo, 550459
1, 117836, Note_on_c, 0, 89, 0
1, 117836, Note_on_c, 0, 91, 69
1, 117896, Note_on_c, 0, 91, 0
1, 117904, Note_on_c, 0, 90, 70
1, 117964, Note_on_c, 0, 90, 0
1, 117964, Note_on_c, 0, 92, 71
1, 117980, Tempo, 552995
1, 118023, Note_on_c, 0, 91, 72
1, 118024, Note_on_c, 0, 92, 0
1, 118076, Note_on_c, 0, 93, 72
1, 118083, Note_on_c, 0, 91, 0
1, 118136, Note_on_c, 0, 93, 0
1, 118138, Note_on_c, 0, 92, 72
1, 118195, Note_on_c, 0, 94, 73
1, 118198, Note_on_c, 0, 92, 0
1, 118200, Tempo, 555556
1, 118255, Note_on_c, 0, 94, 0
1, 118255, Note_on_c, 0, 93, 75
1, 118315, Note_on_c, 0, 93, 0
1, 118322, Note_on_c, 0, 95, 76
1, 118382, Note_on_c, 0, 95, 0
1, 118384, Note_on_c, 0, 94, 77
1, 118400, Tempo, 558140
1, 118440, Note_on_c, 0, 96, 77
1, 118444, Note_on_c, 0, 94, 0
1, 118499, Note_on_c, 0, 95, 79
1, 118500, Note_on_c, 0, 96, 0
1, 118559, Note_on_c, 0, 95, 0
1, 118559, Note_on_c, 0, 97, 80
1, 118580, Tempo, 558140
1, 118600, Tempo, 560748
1, 118618, Note_on_c, 0, 96, 81
1, 118619, Note_on_c, 0, 97, 0
1, 118620, Tempo, 566038
1, 118640, Tempo, 571429
1, 118660, Tempo, 576923
1, 118678, Note_on_c, 0, 96, 0
1, 118680, Tempo, 582524
1, 118680, Note_on_c, 0, 98, 81
1, 118700, Tempo, 585366
1, 118720, Tempo, 591133
1, 118740, Tempo, 597015
1, 118740, Note_on_c, 0, 98, 0
1, 118740, Note_on_c, 0, 97, 81
1, 118760, Tempo, 603015
1, 118780, Tempo, 609137
1, 118796, Note_on_c, 0, 99, 83
1, 118800, Tempo, 560748
1, 118800, Note_on_c, 0, 97, 0
1, 118832, Control_c, 0, 64, 0
1, 118856, Note_on_c, 0, 99, 0
1, 118858, Note_on_c, 0, 98, 77
1, 118860, Tempo, 558140
1, 118895, Control_c, 0, 64, 127
1, 118900, Tempo, 555556
1, 118918, Note_on_c, 0, 98, 0
1, 118923, Note_on_c, 0, 100, 83
1, 118960, Tempo, 552995
1, 118978, Note_on_c, 0, 98, 77
1, 118983, Note_on_c, 0, 100, 0
1, 119000, Tempo, 550459
1, 119038, Note_on_c, 0, 98, 0
1, 119040, Tempo, 568720
1, 119044, Note_on_c, 0, 99, 83
1, 119104, Note_on_c, 0, 99, 0
1, 119105, Note_on_c, 0, 98, 79
1, 119164, Note_on_c, 0, 100, 83
1, 119165, Note_on_c, 0, 98, 0
1, 119222, Note_on_c, 0, 98, 79
1, 119224, Note_on_c, 0, 100, 0
1, 119278, Note_on_c, 0, 99, 83
1, 119282, Note_on_c, 0, 98, 0
1, 119338, Note_on_c, 0, 99, 0
1, 119345, Note_on_c, 0, 98, 79
1, 119396, Note_on_c, 0, 100, 83
1, 119405, Note_on_c, 0, 98, 0
1, 119455, Note_on_c, 0, 98, 79
1, 119456, Note_on_c, 0, 100, 0
1, 119515, Note_on_c, 0, 98, 0
1, 119520, Tempo, 566038
1, 119523, Note_on_c, 0, 99, 81
1, 119540, Tempo, 568720
1, 119560, Tempo, 571429
1, 119580, Tempo, 574163
1, 119580, Note_on_c, 0, 98, 75
1, 119583, Note_on_c, 0, 99, 0
1, 119600, Tempo, 576923
1, 119620, Tempo, 579710
1, 119640, Tempo, 585366
1, 119640, Note_on_c, 0, 98, 0
1, 119641, Note_on_c, 0, 100, 76
1, 119660, Tempo, 588235
1, 119680, Tempo, 591133
1, 119700, Tempo, 594059
1, 119701, Note_on_c, 0, 100, 0
1, 119705, Note_on_c, 0, 98, 72
1, 119720, Tempo, 597015
1, 119740, Tempo, 600000
1, 119755, Note_on_c, 0, 99, 72
1, 119760, Tempo, 603015
1, 119765, Note_on_c, 0, 98, 0
1, 119815, Note_on_c, 0, 99, 0
1, 119820, Tempo, 606061
1, 119824, Note_on_c, 0, 98, 73
1, 119860, Tempo, 609137
1, 119882, Note_on_c, 0, 100, 73
1, 119884, Note_on_c, 0, 98, 0
1, 119920, Tempo, 612245
1, 119938, Note_on_c, 0, 98, 73
1, 119942, Note_on_c, 0, 100, 0
1, 119960, Tempo, 615385
1, 119996, Note_on_c, 0, 99, 71
1, 119998, Note_on_c, 0, 98, 0
1, 120020, Tempo, 618557
1, 120056, Note_on_c, 0, 99, 0
1, 120060, Tempo, 621762
1, 120060, Note_on_c, 0, 98, 70
1, 120117, Note_on_c, 0, 100, 67
1, 120120, Tempo, 625000
1, 120120, Note_on_c, 0, 98, 0
1, 120160, Tempo, 628272
1, 120177, Note_on_c, 0, 100, 0
1, 120178, Note_on_c, 0, 98, 65
1, 120200, Tempo, 631579
1, 120238, Note_on_c, 0, 98, 0
1, 120240, Tempo, 628272
1, 120240, Control_c, 0, 64, 0
1, 120245, Note_on_c, 0, 99, 61
1, 120260, Tempo, 625000
1, 120280, Tempo, 621762
1, 120300, Tempo, 618557
1, 120301, Note_on_c, 0, 100, 61
1, 120305, Note_on_c, 0, 99, 0
1, 120318, Control_c, 0, 64, 127
1, 120320, Tempo, 615385
1, 120340, Tempo, 612245
1, 120360, Tempo, 609137
1, 120361, Note_on_c, 0, 100, 0
1, 120362, Note_on_c, 0, 99, 61
1, 120380, Tempo, 606061
1, 120400, Tempo, 603015
1, 120416, Note_on_c, 0, 100, 61
1, 120420, Tempo, 600000
1, 120422, Note_on_c, 0, 99, 0
1, 120440, Tempo, 597015
1, 120460, Tempo, 594059
1, 120476, Note_on_c, 0, 100, 0
1, 120480, Tempo, 588235
1, 120480, Note_on_c, 0, 99, 61
1, 120500, Tempo, 585366
1, 120520, Tempo, 582524
1, 120539, Note_on_c, 0, 100, 62
1, 120540, Tempo, 579710
1, 120540, Note_on_c, 0, 99, 0
1, 120560, Tempo, 576923
1, 120580, Tempo, 574163
1, 120599, Note_on_c, 0, 100, 0
1, 120600, Tempo, 571429
1, 120600, Note_on_c, 0, 99, 65
1, 120620, Tempo, 568720
1, 120640, Tempo, 566038
1, 120660, Tempo, 563380
1, 120660, Note_on_c, 0, 99, 0
1, 120663, Note_on_c, 0, 100, 67
1, 120680, Tempo, 560748
1, 120700, Tempo, 558140
1, 120720, Tempo, 552995
1, 120720, Note_on_c, 0, 99, 71
1, 120723, Note_on_c, 0, 100, 0
1, 120779, Note_on_c, 0, 100, 72
1, 120780, Note_on_c, 0, 99, 0
1, 120800, Tempo, 550459
1, 120839, Note_on_c, 0, 100, 0
1, 120842, Note_on_c, 0, 99, 75
1, 120880, Tempo, 547945
1, 120900, Note_on_c, 0, 100, 79
1, 120902, Note_on_c, 0, 99, 0
1, 120940, Tempo, 545455
1, 120960, Tempo, 545455
1, 120960, Note_on_c, 0, 100, 0
1, 120961, Note_on_c, 0, 99, 81
1, 121019, Note_on_c, 0, 100, 82
1, 121020, Tempo, 542986
1, 121021, Note_on_c, 0, 99, 0
1, 121060, Tempo, 540541
1, 121075, Note_on_c, 0, 99, 84
1, 121079, Note_on_c, 0, 100, 0
1, 121120, Tempo, 538117
1, 121135, Note_on_c, 0, 99, 0
1, 121142, Note_on_c, 0, 100, 89
1, 121160, Tempo, 535714
1, 121196, Note_on_c, 0, 99, 90
1, 121200, Tempo, 533333
1, 121202, Note_on_c, 0, 100, 0
1, 121256, Note_on_c, 0, 99, 0
1, 121260, Tempo, 530973
1, 121261, Note_on_c, 0, 100, 90
1, 121300, Tempo, 528634
1, 121321, Note_on_c, 0, 100, 0
1, 121324, Note_on_c, 0, 99, 93
1, 121360, Tempo, 526316
1, 121380, Note_on_c, 0, 100, 92
1, 121384, Note_on_c, 0, 99, 0
1, 121400, Tempo, 524017
1, 121440, Tempo, 521739
1, 121440, Note_on_c, 0, 100, 0
1, 121443, Note_on_c, 0, 99, 96
1, 121500, Tempo, 519481
1, 121500, Note_on_c, 0, 100, 93
1, 121503, Note_on_c, 0, 99, 0
1, 121540, Tempo, 517241
1, 121559, Note_on_c, 0, 99, 99
1, 121560, Note_on_c, 0, 100, 0
1, 121600, Tempo, 515021
1, 121619, Note_on_c, 0, 99, 0
1, 121623, Note_on_c, 0, 100, 94
1, 121640, Tempo, 512821
1, 121681, Note_on_c, 0, 99, 99
1, 121683, Note_on_c, 0, 100, 0
1, 121738, Note_on_c, 0, 100, 92
1, 121741, Note_on_c, 0, 99, 0
1, 121798, Note_on_c, 0, 100, 0
1, 121805, Note_on_c, 0, 99, 99
1, 121861, Note_on_c, 0, 100, 92
1, 121865, Note_on_c, 0, 99, 0
1, 121916, Note_on_c, 0, 99, 99
1, 121921, Note_on_c, 0, 100, 0
1, 121976, Note_on_c, 0, 99, 0
1, 121979, Note_on_c, 0, 100, 99
1, 122036, Note_on_c, 0, 99, 99
1, 122039, Note_on_c, 0, 100, 0
1, 122096, Note_on_c, 0, 99, 0
1, 122103, Note_on_c, 0, 100, 94
1, 122140, Tempo, 512821
1, 122163, Note_on_c, 0, 100, 0
1, 122165, Note_on_c, 0, 99, 99
1, 122200, Tempo, 515021
1, 122221, Note_on_c, 0, 100, 93
1, 122225, Note_on_c, 0, 99, 0
1, 122240, Tempo, 517241
1, 122275, Note_on_c, 0, 99, 99
1, 122280, Tempo, 519481
1, 122281, Note_on_c, 0, 100, 0
1, 122320, Tempo, 521739
1, 122335, Note_on_c, 0, 99, 0
1, 122338, Note_on_c, 0, 100, 93
1, 122360, Tempo, 524017
1, 122395, Note_on_c, 0, 99, 99
1, 122398, Note_on_c, 0, 100, 0
1, 122400, Tempo, 526316
1, 122420, Tempo, 528634
1, 122440, Tempo, 533333
1, 122455, Note_on_c, 0, 99, 0
1, 122460, Tempo, 538117
1, 122462, Note_on_c, 0, 100, 92
1, 122480, Tempo, 540541
1, 122500, Tempo, 545455
1, 122516, Note_on_c, 0, 99, 95
1, 122520, Tempo, 550459
1, 122522, Note_on_c, 0, 100, 0
1, 122540, Tempo, 552995
1, 122560, Tempo, 558140
1, 122576, Note_on_c, 0, 99, 0
1, 122580, Tempo, 563380
1, 122584, Note_on_c, 0, 100, 92
1, 122600, Tempo, 566038
1, 122620, Tempo, 571429
1, 122640, Tempo, 576923
1, 122644, Note_on_c, 0, 100, 0
1, 122644, Note_on_c, 0, 99, 90
1, 122660, Tempo, 594059
1, 122700, Tempo, 591133
1, 122701, Note_on_c, 0, 100, 86
1, 122704, Note_on_c, 0, 99, 0
1, 122720, Tempo, 588235
1, 122740, Tempo, 585366
1, 122760, Tempo, 582524
1, 122761, Note_on_c, 0, 100, 0
1, 122762, Note_on_c, 0, 99, 82
1, 122780, Tempo, 579710
1, 122800, Tempo, 576923
1, 122820, Tempo, 574163
1, 122822, Note_on_c, 0, 99, 0
1, 122824, Note_on_c, 0, 100, 79
1, 122840, Tempo, 571429
1, 122860, Tempo, 568720
1, 122875, Note_on_c, 0, 99, 75
1, 122880, Tempo, 566038
1, 122884, Note_on_c, 0, 100, 0
1, 122900, Tempo, 563380
1, 122920, Tempo, 560748
1, 122935, Note_on_c, 0, 99, 0
1, 122936, Note_on_c, 0, 100, 72
1, 122940, Tempo, 558140
1, 122960, Tempo, 555556
1, 122980, Tempo, 552995
1, 122996, Note_on_c, 0, 100, 0
1, 123000, Tempo, 550459
1, 123002, Note_on_c, 0, 99, 69
1, 123061, Note_on_c, 0, 100, 65
1, 123062, Note_on_c, 0, 99, 0
1, 123117, Note_on_c, 0, 99, 59
1, 123121, Note_on_c, 0, 100, 0
1, 123175, Note_on_c, 0, 100, 54
1, 123177, Note_on_c, 0, 99, 0
1, 123235, Note_on_c, 0, 100, 0
1, 123236, Note_on_c, 0, 99, 57
1, 123296, Note_on_c, 0, 99, 0
1, 123300, Tempo, 550459
1, 123301, Note_on_c, 0, 100, 56
1, 123320, Tempo, 547945
1, 123340, Tempo, 545455
1, 123358, Note_on_c, 0, 99, 56
1, 123360, Tempo, 542986
1, 123361, Note_on_c, 0, 100, 0
1, 123418, Note_on_c, 0, 99, 0
1, 123418, Note_on_c, 0, 100, 53
1, 123478, Note_on_c, 0, 100, 0
1, 123479, Note_on_c, 0, 99, 55
1, 123539, Note_on_c, 0, 99, 0
1, 123542, Note_on_c, 0, 100, 52
1, 123571, Tempo, 533760
1, 123580, Tempo, 548998
1, 123600, Tempo, 744417
1, 123600, Note_on_c, 0, 75, 48
1, 123602, Note_on_c, 0, 100, 0
1, 123603, Note_on_c, 0, 99, 47
1, 123663, Note_on_c, 0, 99, 0
1, 123663, Note_on_c, 0, 100, 44
1, 123720, Note_on_c, 0, 99, 46
1, 123723, Note_on_c, 0, 100, 0
1, 123780, Note_on_c, 0, 99, 0
1, 123780, Note_on_c, 0, 75, 0
1, 123781, Note_on_c, 0, 100, 44
1, 123840, Tempo, 673401
1, 123840, Note_on_c, 0, 87, 51
1, 123841, Note_on_c, 0, 100, 0
1, 123843, Note_on_c, 0, 99, 46
1, 123858, Control_c, 0, 64, 0
1, 123903, Note_on_c, 0, 99, 0
1, 123904, Note_on_c, 0, 100, 45
1, 123956, Note_on_c, 0, 99, 46
1, 123964, Note_on_c, 0, 100, 0
1, 124016, Note_on_c, 0, 99, 0
1, 124021, Note_on_c, 0, 100, 43
1, 124077, Note_on_c, 0, 99, 46
1, 124080, Tempo, 651466
1, 124080, Note_on_c, 0, 87, 0
1, 124080, Note_on_c, 0, 87, 57
1, 124081, Note_on_c, 0, 100, 0
1, 124136, Note_on_c, 0, 100, 44
1, 124137, Note_on_c, 0, 99, 0
1, 124196, Note_on_c, 0, 100, 0
1, 124204, Note_on_c, 0, 99, 46
1, 124255, Note_on_c, 0, 100, 45
1, 124264, Note_on_c, 0, 99, 0
1, 124315, Note_on_c, 0, 100, 0
1, 124319, Note_on_c, 0, 87, 46
1, 124320, Tempo, 637620
1, 124320, Note_on_c, 0, 87, 0
1, 124320, Note_on_c, 0, 85, 48
1, 124321, Note_on_c, 0, 99, 46
1, 124378, Note_on_c, 0, 100, 46
1, 124381, Note_on_c, 0, 99, 0
1, 124438, Note_on_c, 0, 100, 0
1, 124439, Note_on_c, 0, 87, 0
1, 124441, Note_on_c, 0, 99, 46
1, 124497, Note_on_c, 0, 100, 44
1, 124500, Note_on_c, 0, 85, 0
1, 124501, Note_on_c, 0, 99, 0
1, 124556, Note_on_c, 0, 99, 46
1, 124557, Note_on_c, 0, 100, 0
1, 124558, Note_on_c, 0, 87, 29
1, 124560, Tempo, 665927
1, 124560, Note_on_c, 0, 68, 30
1, 124560, Note_on_c, 0, 83, 50
1, 124616, Note_on_c, 0, 99, 0
1, 124623, Note_on_c, 0, 100, 44
1, 124676, Note_on_c, 0, 99, 46
1, 124678, Note_on_c, 0, 87, 0
1, 124683, Note_on_c, 0, 100, 0
1, 124736, Note_on_c, 0, 99, 0
1, 124738, Note_on_c, 0, 100, 44
1, 124740, Note_on_c, 0, 83, 0
1, 124798, Note_on_c, 0, 100, 0
1, 124800, Tempo, 630915
1, 124800, Note_on_c, 0, 68, 0
1, 124800, Note_on_c, 0, 83, 35
1, 124803, Note_on_c, 0, 87, 29
1, 124804, Note_on_c, 0, 99, 46
1, 124863, Note_on_c, 0, 100, 44
1, 124864, Note_on_c, 0, 99, 0
1, 124923, Note_on_c, 0, 100, 0
1, 124923, Note_on_c, 0, 87, 0
1, 124923, Note_on_c, 0, 99, 46
1, 124980, Note_on_c, 0, 83, 0
1, 124981, Note_on_c, 0, 100, 46
1, 124983, Note_on_c, 0, 99, 0
1, 125038, Note_on_c, 0, 87, 29
1, 125040, Tempo, 641026
1, 125040, Note_on_c, 0, 82, 43
1, 125041, Note_on_c, 0, 100, 0
1, 125044, Note_on_c, 0, 99, 46
1, 125097, Note_on_c, 0, 100, 44
1, 125104, Note_on_c, 0, 99, 0
1, 125157, Note_on_c, 0, 100, 0
1, 125158, Note_on_c, 0, 87, 0
1, 125164, Note_on_c, 0, 99, 46
1, 125217, Note_on_c, 0, 100, 45
1, 125220, Note_on_c, 0, 82, 0
1, 125224, Note_on_c, 0, 99, 0
1, 125277, Note_on_c, 0, 100, 0
1, 125277, Note_on_c, 0, 87, 29
1, 125280, Tempo, 644468
1, 125280, Note_on_c, 0, 99, 46
1, 125280, Note_on_c, 0, 80, 40
1, 125280, Note_on_c, 0, 71, 40
1, 125340, Note_on_c, 0, 99, 0
1, 125345, Note_on_c, 0, 100, 44
1, 125395, Note_on_c, 0, 99, 46
1, 125397, Note_on_c, 0, 87, 0
1, 125405, Note_on_c, 0, 100, 0
1, 125455, Note_on_c, 0, 99, 0
1, 125455, Note_on_c, 0, 100, 45
1, 125460, Note_on_c, 0, 80, 0
1, 125515, Note_on_c, 0, 100, 0
1, 125519, Note_on_c, 0, 99, 46
1, 125520, Tempo, 630915
1, 125520, Note_on_c, 0, 71, 0
1, 125520, Note_on_c, 0, 87, 29
1, 125520, Note_on_c, 0, 79, 26
1, 125576, Note_on_c, 0, 100, 44
1, 125579, Note_on_c, 0, 99, 0
1, 125636, Note_on_c, 0, 100, 0
1, 125637, Note_on_c, 0, 99, 46
1, 125640, Note_on_c, 0, 87, 0
1, 125697, Note_on_c, 0, 99, 0
1, 125700, Note_on_c, 0, 79, 0
1, 125704, Note_on_c, 0, 100, 44
1, 125756, Note_on_c, 0, 99, 46
1, 125757, Note_on_c, 0, 87, 29
1, 125760, Tempo, 647948
1, 125760, Note_on_c, 0, 80, 41
1, 125764, Note_on_c, 0, 100, 0
1, 125816, Note_on_c, 0, 99, 0
1, 125816, Note_on_c, 0, 100, 44
1, 125876, Note_on_c, 0, 100, 0
1, 125877, Note_on_c, 0, 87, 0
1, 125885, Note_on_c, 0, 99, 47
1, 125935, Note_on_c, 0, 100, 44
1, 125940, Note_on_c, 0, 80, 0
1, 125945, Note_on_c, 0, 99, 0
1, 125995, Note_on_c, 0, 100, 0
1, 125995, Note_on_c, 0, 99, 47
1, 125995, Note_on_c, 0, 87, 30
1, 126000, Tempo, 655022
1, 126000, Note_on_c, 0, 79, 40
1, 126000, Note_on_c, 0, 82, 50
1, 126046, Control_c, 0, 64, 127
1, 126055, Note_on_c, 0, 99, 0
1, 126058, Note_on_c, 0, 100, 43
1, 126115, Note_on_c, 0, 87, 0
1, 126118, Note_on_c, 0, 100, 0
1, 126125, Note_on_c, 0, 99, 47
1, 126179, Note_on_c, 0, 100, 44
1, 126185, Note_on_c, 0, 99, 0
1, 126239, Note_on_c, 0, 100, 0
1, 126239, Note_on_c, 0, 87, 30
1, 126240, Tempo, 665927
1, 126240, Note_on_c, 0, 79, 0
1, 126240, Note_on_c, 0, 82, 0
1, 126240, Note_on_c, 0, 75, 28
1, 126245, Note_on_c, 0, 99, 47
1, 126304, Note_on_c, 0, 100, 45
1, 126305, Note_on_c, 0, 99, 0
1, 126359, Note_on_c, 0, 87, 0
1, 126360, Note_on_c, 0, 99, 47
1, 126364, Note_on_c, 0, 100, 0
1, 126420, Note_on_c, 0, 99, 0
1, 126420, Note_on_c, 0, 75, 0
1, 126424, Note_on_c, 0, 100, 43
1, 126479, Note_on_c, 0, 99, 47
1, 126480, Tempo, 644468
1, 126480, Note_on_c, 0, 75, 37
1, 126482, Note_on_c, 0, 87, 29
1, 126484, Note_on_c, 0, 100, 0
1, 126497, Control_c, 0, 64, 0
1, 126537, Note_on_c, 0, 100, 45
1, 126539, Note_on_c, 0, 99, 0
1, 126595, Note_on_c, 0, 99, 47
1, 126597, Note_on_c, 0, 100, 0
1, 126602, Note_on_c, 0, 87, 0
1, 126655, Note_on_c, 0, 99, 0
1, 126660, Note_on_c, 0, 75, 0
1, 126660, Note_on_c, 0, 100, 45
1, 126719, Note_on_c, 0, 99, 47
1, 126720, Tempo, 681044
1, 126720, Note_on_c, 0, 100, 0
1, 126720, Note_on_c, 0, 76, 42
1, 126720, Note_on_c, 0, 70, 42
1, 126720, Note_on_c, 0, 67, 42
1, 126725, Note_on_c, 0, 87, 29
1, 126777, Note_on_c, 0, 100, 47
1, 126779, Note_on_c, 0, 99, 0
1, 126837, Note_on_c, 0, 100, 0
1, 126841, Note_on_c, 0, 99, 47
1, 126845, Note_on_c, 0, 87, 0
1, 126897, Note_on_c, 0, 100, 45
1, 126900, Note_on_c, 0, 76, 0
1, 126901, Note_on_c, 0, 99, 0
1, 126957, Note_on_c, 0, 100, 0
1, 126960, Tempo, 641026
1, 126960, Note_on_c, 0, 70, 0
1, 126960, Note_on_c, 0, 67, 0
1, 126960, Note_on_c, 0, 75, 35
1, 126962, Note_on_c, 0, 87, 29
1, 126965, Note_on_c, 0, 99, 46
1, 127019, Note_on_c, 0, 100, 44
1, 127025, Note_on_c, 0, 99, 0
1, 127079, Note_on_c, 0, 100, 0
1, 127082, Note_on_c, 0, 87, 0
1, 127084, Note_on_c, 0, 99, 46
1, 127135, Note_on_c, 0, 100, 44
1, 127140, Note_on_c, 0, 75, 0
1, 127144, Note_on_c, 0, 99, 0
1, 127195, Note_on_c, 0, 100, 0
1, 127200, Tempo, 617920
1, 127200, Note_on_c, 0, 73, 29
1, 127201, Note_on_c, 0, 99, 46
1, 127205, Note_on_c, 0, 87, 29
1, 127261, Note_on_c, 0, 99, 0
1, 127263, Note_on_c, 0, 100, 43
1, 127321, Note_on_c, 0, 99, 46
1, 127323, Note_on_c, 0, 100, 0
1, 127325, Note_on_c, 0, 87, 0
1, 127376, Note_on_c, 0, 100, 45
1, 127380, Note_on_c, 0, 73, 0
1, 127381, Note_on_c, 0, 99, 0
1, 127436, Note_on_c, 0, 100, 0
1, 127437, Note_on_c, 0, 87, 29
1, 127439, Note_on_c, 0, 99, 46
1, 127440, Tempo, 634249
1, 127440, Note_on_c, 0, 68, 29
1, 127440, Note_on_c, 0, 71, 44
1, 127486, Control_c, 0, 64, 127
1, 127495, Note_on_c, 0, 100, 44
1, 127499, Note_on_c, 0, 99, 0
1, 127555, Note_on_c, 0, 100, 0
1, 127557, Note_on_c, 0, 87, 0
1, 127559, Note_on_c, 0, 99, 46
1, 127615, Note_on_c, 0, 100, 43
1, 127619, Note_on_c, 0, 99, 0
1, 127620, Note_on_c, 0, 71, 0
1, 127620, Note_on_c, 0, 68, 0
1, 127675, Note_on_c, 0, 100, 0
1, 127680, Tempo, 614754
1, 127680, Note_on_c, 0, 71, 35
1, 127680, Note_on_c, 0, 68, 35
1, 127682, Note_on_c, 0, 87, 29
1, 127684, Note_on_c, 0, 99, 45
1, 127735, Note_on_c, 0, 100, 43
1, 127744, Note_on_c, 0, 99, 0
1, 127795, Note_on_c, 0, 100, 0
1, 127802, Note_on_c, 0, 87, 0
1, 127803, Note_on_c, 0, 99, 45
1, 127860, Note_on_c, 0, 68, 0
1, 127860, Note_on_c, 0, 71, 0
1, 127862, Note_on_c, 0, 100, 43
1, 127863, Note_on_c, 0, 99, 0
1, 127920, Tempo, 641026
1, 127920, Note_on_c, 0, 66, 27
1, 127920, Note_on_c, 0, 70, 41
1, 127922, Note_on_c, 0, 100, 0
1, 127922, Note_on_c, 0, 87, 27
1, 127923, Note_on_c, 0, 99, 45
1, 127934, Control_c, 0, 64, 0
1, 127980, Note_on_c, 0, 100, 42
1, 127983, Note_on_c, 0, 99, 0
1, 128040, Note_on_c, 0, 100, 0
1, 128042, Note_on_c, 0, 87, 0
1, 128042, Note_on_c, 0, 99, 45
1, 128096, Note_on_c, 0, 100, 41
1, 128100, Note_on_c, 0, 70, 0
1, 128100, Note_on_c, 0, 66, 0
1, 128102, Note_on_c, 0, 99, 0
1, 128156, Note_on_c, 0, 100, 0
1, 128160, Tempo, 651466
1, 128160, Note_on_c, 0, 68, 37
1, 128160, Note_on_c, 0, 64, 37
1, 128162, Note_on_c, 0, 87, 27
1, 128163, Note_on_c, 0, 99, 44
1, 128223, Note_on_c, 0, 99, 0
1, 128223, Note_on_c, 0, 100, 40
1, 128275, Note_on_c, 0, 99, 44
1, 128282, Note_on_c, 0, 87, 0
1, 128283, Note_on_c, 0, 100, 0
1, 128335, Note_on_c, 0, 99, 0
1, 128340, Note_on_c, 0, 64, 0
1, 128340, Note_on_c, 0, 68, 0
1, 128344, Note_on_c, 0, 100, 41
1, 128400, Tempo, 692841
1, 128400, Note_on_c, 0, 67, 28
1, 128402, Note_on_c, 0, 87, 27
1, 128402, Note_on_c, 0, 99, 44
1, 128404, Note_on_c, 0, 100, 0
1, 128455, Note_on_c, 0, 100, 40
1, 128462, Note_on_c, 0, 99, 0
1, 128515, Note_on_c, 0, 100, 0
1, 128521, Note_on_c, 0, 99, 43
1, 128522, Note_on_c, 0, 87, 0
1, 128580, Note_on_c, 0, 67, 0
1, 128581, Note_on_c, 0, 99, 0
1, 128585, Note_on_c, 0, 100, 39
1, 128635, Note_on_c, 0, 87, 27
1, 128638, Note_on_c, 0, 99, 43
1, 128640, Tempo, 722022
1, 128640, Note_on_c, 0, 68, 29
1, 128645, Note_on_c, 0, 100, 0
1, 128696, Note_on_c, 0, 100, 39
1, 128698, Note_on_c, 0, 99, 0
1, 128755, Note_on_c, 0, 87, 0
1, 128756, Note_on_c, 0, 100, 0
1, 128765, Note_on_c, 0, 99, 41
1, 128820, Note_on_c, 0, 68, 0
1, 128821, Note_on_c, 0, 100, 36
1, 128825, Note_on_c, 0, 99, 0
1, 128878, Note_on_c, 0, 87, 25
1, 128880, Tempo, 705053
1, 128880, Note_on_c, 0, 67, 26
1, 128880, Note_on_c, 0, 70, 38
1, 128881, Note_on_c, 0, 100, 0
1, 128885, Note_on_c, 0, 99, 44
1, 128919, Control_c, 0, 64, 127
1, 128939, Note_on_c, 0, 100, 40
1, 128945, Note_on_c, 0, 99, 0
1, 128998, Note_on_c, 0, 87, 0
1, 128999, Note_on_c, 0, 100, 0
1, 129002, Note_on_c, 0, 99, 45
1, 129057, Note_on_c, 0, 100, 40
1, 129062, Note_on_c, 0, 99, 0
1, 129116, Note_on_c, 0, 87, 25
1, 129117, Note_on_c, 0, 100, 0
1, 129117, Note_on_c, 0, 99, 45
1, 129120, Tempo, 662252
1, 129120, Note_on_c, 0, 70, 0
1, 129120, Note_on_c, 0, 67, 0
1, 129120, Note_on_c, 0, 63, 36
1, 129177, Note_on_c, 0, 99, 0
1, 129180, Note_on_c, 0, 100, 42
1, 129236, Note_on_c, 0, 87, 0
1, 129240, Note_on_c, 0, 100, 0
1, 129244, Note_on_c, 0, 99, 45
1, 129296, Note_on_c, 0, 100, 41
1, 129304, Note_on_c, 0, 99, 0
1, 129356, Note_on_c, 0, 100, 0
1, 129359, Note_on_c, 0, 99, 46
1, 129360, Tempo, 624350
1, 129360, Note_on_c, 0, 63, 0
1, 129364, Note_on_c, 0, 87, 25
1, 129374, Control_c, 0, 64, 0
1, 129415, Note_on_c, 0, 100, 43
1, 129419, Note_on_c, 0, 99, 0
1, 129475, Note_on_c, 0, 100, 0
1, 129480, Tempo, 621118
1, 129483, Note_on_c, 0, 99, 46
1, 129484, Note_on_c, 0, 87, 0
1, 129536, Note_on_c, 0, 100, 44
1, 129540, Note_on_c, 0, 63, 40
1, 129543, Note_on_c, 0, 99, 0
1, 129596, Note_on_c, 0, 100, 0
1, 129600, Tempo, 634249
1, 129600, Note_on_c, 0, 63, 0
1, 129600, Note_on_c, 0, 75, 50
1, 129603, Note_on_c, 0, 99, 46
1, 129605, Note_on_c, 0, 87, 29
1, 129663, Note_on_c, 0, 99, 0
1, 129664, Note_on_c, 0, 100, 43
1, 129717, Note_on_c, 0, 99, 46
1, 129724, Note_on_c, 0, 100, 0
1, 129725, Note_on_c, 0, 87, 0
1, 129777, Note_on_c, 0, 99, 0
1, 129780, Note_on_c, 0, 75, 0
1, 129780, Note_on_c, 0, 100, 43
1, 129835, Note_on_c, 0, 87, 29
1, 129840, Tempo, 614754
1, 129840, Note_on_c, 0, 100, 0
1, 129840, Note_on_c, 0, 75, 46
1, 129843, Note_on_c, 0, 99, 46
1, 129896, Note_on_c, 0, 100, 43
1, 129903, Note_on_c, 0, 99, 0
1, 129955, Note_on_c, 0, 87, 0
1, 129956, Note_on_c, 0, 100, 0
1, 129959, Note_on_c, 0, 99, 46
1, 130018, Note_on_c, 0, 100, 43
1, 130019, Note_on_c, 0, 99, 0
1, 130020, Note_on_c, 0, 75, 0
1, 130075, Note_on_c, 0, 99, 46
1, 130078, Note_on_c, 0, 100, 0
1, 130080, Note_on_c, 0, 73, 45
1, 130085, Note_on_c, 0, 87, 29
1, 130135, Note_on_c, 0, 99, 0
1, 130137, Note_on_c, 0, 100, 43
1, 130197, Note_on_c, 0, 100, 0
1, 130197, Note_on_c, 0, 99, 46
1, 130205, Note_on_c, 0, 87, 0
1, 130257, Note_on_c, 0, 99, 0
1, 130257, Note_on_c, 0, 100, 43
1, 130260, Note_on_c, 0, 73, 0
1, 130317, Note_on_c, 0, 100, 0
1, 130320, Tempo, 602410
1, 130320, Note_on_c, 0, 99, 44
1, 130320, Note_on_c, 0, 56, 42
1, 130320, Note_on_c, 0, 71, 54
1, 130380, Note_on_c, 0, 99, 0
1, 130380, Note_on_c, 0, 100, 49
1, 130440, Note_on_c, 0, 100, 0
1, 130440, Note_on_c, 0, 99, 49
1, 130500, Note_on_c, 0, 99, 0
1, 130500, Note_on_c, 0, 71, 0
1, 130500, Note_on_c, 0, 87, 49
1, 130554, Note_on_c, 0, 87, 0
1, 130560, Tempo, 579151
1, 130560, Note_on_c, 0, 56, 0
1, 130560, Note_on_c, 0, 87, 40
1, 130560, Note_on_c, 0, 71, 50
1, 130620, Note_on_c, 0, 87, 0
1, 130620, Note_on_c, 0, 88, 40
1, 130680, Note_on_c, 0, 88, 0
1, 130680, Note_on_c, 0, 87, 40
1, 130740, Note_on_c, 0, 87, 0
1, 130740, Note_on_c, 0, 71, 0
1, 130740, Note_on_c, 0, 75, 40
1, 130800, Tempo, 608519
1, 130800, Note_on_c, 0, 75, 0
1, 130800, Note_on_c, 0, 87, 40
1, 130800, Note_on_c, 0, 70, 51
1, 130880, Note_on_c, 0, 87, 0
1, 130880, Note_on_c, 0, 88, 40
1, 130960, Note_on_c, 0, 88, 0
1, 130960, Note_on_c, 0, 87, 40
1, 130980, Note_on_c, 0, 70, 0
1, 131040, Tempo, 590551
1, 131040, Note_on_c, 0, 87, 0
1, 131040, Note_on_c, 0, 99, 47
1, 131040, Note_on_c, 0, 59, 37
1, 131040, Note_on_c, 0, 68, 54
1, 131100, Note_on_c, 0, 99, 0
1, 131100, Note_on_c, 0, 100, 47
1, 131160, Note_on_c, 0, 100, 0
1, 131160, Note_on_c, 0, 99, 47
1, 131220, Note_on_c, 0, 99, 0
1, 131220, Note_on_c, 0, 68, 0
1, 131220, Note_on_c, 0, 87, 47
1, 131274, Note_on_c, 0, 87, 0
1, 131280, Tempo, 570885
1, 131280, Note_on_c, 0, 59, 0
1, 131280, Note_on_c, 0, 87, 41
1, 131280, Note_on_c, 0, 67, 50
1, 131340, Note_on_c, 0, 87, 0
1, 131340, Note_on_c, 0, 88, 40
1, 131400, Note_on_c, 0, 88, 0
1, 131400, Note_on_c, 0, 87, 40
1, 131460, Note_on_c, 0, 87, 0
1, 131460, Note_on_c, 0, 67, 0
1, 131460, Note_on_c, 0, 75, 40
1, 131520, Tempo, 602410
1, 131520, Note_on_c, 0, 75, 0
1, 131520, Note_on_c, 0, 87, 40
1, 131520, Note_on_c, 0, 68, 51
1, 131600, Note_on_c, 0, 87, 0
1, 131600, Note_on_c, 0, 88, 40
1, 131680, Note_on_c, 0, 88, 0
1, 131680, Note_on_c, 0, 87, 40
1, 131700, Note_on_c, 0, 68, 0
1, 131760, Tempo, 590551
1, 131760, Note_on_c, 0, 87, 0
1, 131760, Note_on_c, 0, 99, 49
1, 131760, Note_on_c, 0, 67, 44
1, 131760, Note_on_c, 0, 70, 59
1, 131820, Note_on_c, 0, 99, 0
1, 131820, Note_on_c, 0, 100, 49
1, 131880, Note_on_c, 0, 100, 0
1, 131880, Note_on_c, 0, 99, 49
1, 131940, Note_on_c, 0, 99, 0
1, 131940, Note_on_c, 0, 87, 49
1, 131994, Note_on_c, 0, 87, 0
1, 132000, Tempo, 570885
1, 132000, Note_on_c, 0, 70, 0
1, 132000, Note_on_c, 0, 67, 0
1, 132000, Note_on_c, 0, 87, 40
1, 132000, Note_on_c, 0, 63, 54
1, 132060, Note_on_c, 0, 87, 0
1, 132060, Note_on_c, 0, 88, 40
1, 132120, Note_on_c, 0, 88, 0
1, 132120, Note_on_c, 0, 87, 40
1, 132180, Note_on_c, 0, 87, 0
1, 132180, Note_on_c, 0, 63, 0
1, 132180, Note_on_c, 0, 75, 40
1, 132240, Tempo, 597610
1, 132240, Note_on_c, 0, 75, 0
1, 132240, Note_on_c, 0, 87, 40
1, 132240, Note_on_c, 0, 63, 54
1, 132320, Note_on_c, 0, 87, 0
1, 132320, Note_on_c, 0, 88, 40
1, 132400, Note_on_c, 0, 88, 0
1, 132400, Note_on_c, 0, 87, 40
1, 132420, Note_on_c, 0, 63, 0
1, 132480, Tempo, 569260
1, 132480, Note_on_c, 0, 87, 0
1, 132480, Note_on_c, 0, 99, 47
1, 132480, Note_on_c, 0, 68, 45
1, 132480, Note_on_c, 0, 59, 45
1, 132540, Note_on_c, 0, 99, 0
1, 132540, Note_on_c, 0, 100, 47
1, 132600, Note_on_c, 0, 100, 0
1, 132600, Note_on_c, 0, 99, 47
1, 132660, Note_on_c, 0, 99, 0
1, 132660, Note_on_c, 0, 59, 0
1, 132660, Note_on_c, 0, 68, 0
1, 132660, Note_on_c, 0, 87, 47
1, 132714, Note_on_c, 0, 87, 0
1, 132720, Note_on_c, 0, 87, 41
1, 132720, Note_on_c, 0, 66, 43
1, 132720, Note_on_c, 0, 60, 44
1, 132780, Note_on_c, 0, 87, 0
1, 132780, Note_on_c, 0, 88, 41
1, 132840, Note_on_c, 0, 88, 0
1, 132840, Note_on_c, 0, 87, 41
1, 132900, Note_on_c, 0, 87, 0
1, 132900, Note_on_c, 0, 60, 0
1, 132900, Note_on_c, 0, 66, 0
1, 132900, Note_on_c, 0, 75, 41
1, 132960, Note_on_c, 0, 75, 0
1, 132960, Note_on_c, 0, 87, 41
1, 132960, Note_on_c, 0, 64, 49
1, 132960, Note_on_c, 0, 61, 37
1, 133040, Note_on_c, 0, 87, 0
1, 133040, Note_on_c, 0, 88, 41
1, 133120, Note_on_c, 0, 88, 0
1, 133120, Note_on_c, 0, 87, 41
1, 133140, Note_on_c, 0, 61, 0
1, 133140, Note_on_c, 0, 64, 0
1, 133200, Tempo, 591716
1, 133200, Note_on_c, 0, 87, 0
1, 133200, Note_on_c, 0, 99, 45
1, 133200, Note_on_c, 0, 63, 59
1, 133260, Note_on_c, 0, 99, 0
1, 133260, Note_on_c, 0, 100, 45
1, 133320, Note_on_c, 0, 100, 0
1, 133320, Note_on_c, 0, 99, 45
1, 133380, Note_on_c, 0, 99, 0
1, 133380, Note_on_c, 0, 87, 45
1, 133440, Tempo, 571973
1, 133440, Note_on_c, 0, 87, 0
1, 133440, Note_on_c, 0, 63, 0
1, 133440, Note_on_c, 0, 80, 45
1, 133440, Note_on_c, 0, 71, 45
1, 133560, Note_on_c, 0, 71, 0
1, 133560, Note_on_c, 0, 80, 0
1, 133560, Note_on_c, 0, 75, 41
1, 133560, Note_on_c, 0, 83, 41
1, 133680, Tempo, 628931
1, 133680, Note_on_c, 0, 83, 0
1, 133680, Note_on_c, 0, 75, 0
1, 133680, Note_on_c, 0, 87, 46
1, 133680, Note_on_c, 0, 80, 46
1, 133860, Note_on_c, 0, 80, 0
1, 133860, Note_on_c, 0, 87, 0
1, 133920, Tempo, 603622
1, 133920, Note_on_c, 0, 99, 45
1, 133920, Note_on_c, 0, 63, 52
1, 133980, Note_on_c, 0, 99, 0
1, 133980, Note_on_c, 0, 100, 44
1, 134040, Note_on_c, 0, 100, 0
1, 134040, Note_on_c, 0, 99, 44
1, 134100, Note_on_c, 0, 99, 0
1, 134100, Note_on_c, 0, 87, 44
1, 134160, Tempo, 619643
1, 134160, Note_on_c, 0, 87, 0
1, 134160, Note_on_c, 0, 63, 0
1, 134160, Note_on_c, 0, 79, 40
1, 134160, Note_on_c, 0, 70, 40
1, 134280, Note_on_c, 0, 70, 0
1, 134280, Note_on_c, 0, 79, 0
1, 134280, Note_on_c, 0, 73, 36
1, 134280, Note_on_c, 0, 82, 36
1, 134400, Tempo, 721674
1, 134400, Note_on_c, 0, 82, 0
1, 134400, Note_on_c, 0, 73, 0
1, 134400, Note_on_c, 0, 87, 40
1, 134400, Note_on_c, 0, 79, 40
1, 134580, Note_on_c, 0, 79, 0
1, 134580, Note_on_c, 0, 87, 0
1, 134640, Tempo, 845070
1, 134640, Note_on_c, 0, 56, 52
1, 134697, Control_c, 0, 64, 127
1, 134760, Note_on_c, 0, 63, 40
1, 134820, Note_on_c, 0, 63, 0
1, 134820, Note_on_c, 0, 71, 40
1, 134880, Tempo, 909091
1, 134880, Note_on_c, 0, 71, 0
1, 134880, Note_on_c, 0, 56, 0
1, 134880, Note_on_c, 0, 80, 46
1, 134968, Control_c, 0, 64, 0
1, 135000, Note_on_c, 0, 80, 0
1, 135082, Tempo, 603622
1, 135120, Note_on_c, 0, 75, 54
1, 135142, Tempo, 600601
1, 135180, Note_on_c, 0, 87, 43
1, 135182, Tempo, 597610
1, 135222, Tempo, 594648
1, 135240, Note_on_c, 0, 87, 0
1, 135240, Note_on_c, 0, 88, 43
1, 135262, Tempo, 591716
1, 135300, Note_on_c, 0, 88, 0
1, 135300, Note_on_c, 0, 87, 43
1, 135302, Tempo, 588813
1, 135342, Tempo, 585938
1, 135360, Note_on_c, 0, 87, 0
1, 135360, Note_on_c, 0, 75, 0
1, 135360, Note_on_c, 0, 87, 60
1, 135382, Tempo, 583090
1, 135420, Note_on_c, 0, 99, 46
1, 135422, Tempo, 580271
1, 135462, Tempo, 577478
1, 135480, Tempo, 597015
1, 135480, Note_on_c, 0, 99, 0
1, 135480, Note_on_c, 0, 87, 0
1, 135480, Note_on_c, 0, 100, 46
1, 135540, Note_on_c, 0, 100, 0
1, 135540, Note_on_c, 0, 99, 46
1, 135560, Tempo, 545455
1, 135600, Tempo, 577478
1, 135600, Note_on_c, 0, 99, 0
1, 135600, Note_on_c, 0, 87, 60
1, 135660, Note_on_c, 0, 99, 44
1, 135720, Note_on_c, 0, 99, 0
1, 135720, Note_on_c, 0, 87, 0
1, 135720, Note_on_c, 0, 100, 44
1, 135780, Note_on_c, 0, 100, 0
1, 135780, Note_on_c, 0, 99, 44
1, 135840, Note_on_c, 0, 99, 0
1, 135840, Note_on_c, 0, 85, 55
1, 135900, Note_on_c, 0, 97, 44
1, 135960, Tempo, 561272
1, 135960, Note_on_c, 0, 97, 0
1, 135960, Note_on_c, 0, 85, 0
1, 135960, Note_on_c, 0, 99, 44
1, 136020, Note_on_c, 0, 99, 0
1, 136020, Note_on_c, 0, 97, 45
1, 136080, Tempo, 574713
1, 136080, Note_on_c, 0, 97, 0
1, 136080, Note_on_c, 0, 83, 59
1, 136080, Note_on_c, 0, 32, 44
1, 136080, Note_on_c, 0, 44, 50
1, 136115, Control_c, 0, 64, 127
1, 136140, Note_on_c, 0, 95, 45
1, 136200, Note_on_c, 0, 95, 0
1, 136200, Note_on_c, 0, 83, 0
1, 136200, Note_on_c, 0, 97, 45
1, 136260, Note_on_c, 0, 97, 0
1, 136260, Note_on_c, 0, 95, 46
1, 136320, Note_on_c, 0, 95, 0
1, 136320, Note_on_c, 0, 44, 0
1, 136320, Note_on_c, 0, 32, 0
1, 136320, Note_on_c, 0, 83, 54
1, 136320, Note_on_c, 0, 51, 39
1, 136320, Note_on_c, 0, 63, 44
1, 136320, Note_on_c, 0, 59, 39
1, 136380, Note_on_c, 0, 95, 40
1, 136440, Note_on_c, 0, 95, 0
1, 136440, Note_on_c, 0, 63, 0
1, 136440, Note_on_c, 0, 83, 0
1, 136440, Note_on_c, 0, 51, 0
1, 136440, Note_on_c, 0, 59, 0
1, 136440, Note_on_c, 0, 97, 41
1, 136500, Note_on_c, 0, 97, 0
1, 136500, Note_on_c, 0, 95, 41
1, 136560, Tempo, 558659
1, 136560, Note_on_c, 0, 95, 0
1, 136560, Note_on_c, 0, 82, 55
1, 136560, Note_on_c, 0, 63, 44
1, 136560, Note_on_c, 0, 59, 39
1, 136560, Note_on_c, 0, 56, 39
1, 136569, Control_c, 0, 64, 0
1, 136609, Control_c, 0, 64, 127
1, 136620, Note_on_c, 0, 94, 40
1, 136680, Note_on_c, 0, 94, 0
1, 136680, Note_on_c, 0, 59, 0
1, 136680, Note_on_c, 0, 82, 0
1, 136680, Note_on_c, 0, 63, 0
1, 136680, Note_on_c, 0, 56, 0
1, 136680, Note_on_c, 0, 95, 40
1, 136740, Note_on_c, 0, 95, 0
1, 136740, Note_on_c, 0, 94, 41
1, 136800, Tempo, 577478
1, 136800, Note_on_c, 0, 94, 0
1, 136800, Note_on_c, 0, 80, 59
1, 136800, Note_on_c, 0, 35, 43
1, 136800, Note_on_c, 0, 47, 47
1, 136809, Control_c, 0, 64, 0
1, 136846, Control_c, 0, 64, 127
1, 136860, Note_on_c, 0, 92, 41
1, 136920, Note_on_c, 0, 92, 0
1, 136920, Note_on_c, 0, 80, 0
1, 136920, Note_on_c, 0, 94, 41
1, 136980, Note_on_c, 0, 94, 0
1, 136980, Note_on_c, 0, 92, 41
1, 137040, Note_on_c, 0, 92, 0
1, 137040, Note_on_c, 0, 47, 0
1, 137040, Note_on_c, 0, 35, 0
1, 137040, Note_on_c, 0, 79, 59
1, 137040, Note_on_c, 0, 63, 44
1, 137040, Note_on_c, 0, 59, 39
1, 137040, Note_on_c, 0, 51, 39
1, 137100, Note_on_c, 0, 91, 41
1, 137160, Note_on_c, 0, 91, 0
1, 137160, Note_on_c, 0, 59, 0
1, 137160, Note_on_c, 0, 79, 0
1, 137160, Note_on_c, 0, 63, 0
1, 137160, Note_on_c, 0, 51, 0
1, 137160, Note_on_c, 0, 92, 41
1, 137220, Note_on_c, 0, 92, 0
1, 137220, Note_on_c, 0, 91, 41
1, 137280, Tempo, 556070
1, 137280, Note_on_c, 0, 91, 0
1, 137280, Note_on_c, 0, 80, 63
1, 137280, Note_on_c, 0, 63, 44
1, 137280, Note_on_c, 0, 59, 39
1, 137280, Note_on_c, 0, 56, 39
1, 137297, Control_c, 0, 64, 0
1, 137326, Control_c, 0, 64, 127
1, 137340, Note_on_c, 0, 92, 43
1, 137400, Note_on_c, 0, 92, 0
1, 137400, Note_on_c, 0, 59, 0
1, 137400, Note_on_c, 0, 80, 0
1, 137400, Note_on_c, 0, 63, 0
1, 137400, Note_on_c, 0, 56, 0
1, 137400, Note_on_c, 0, 94, 43
1, 137460, Note_on_c, 0, 94, 0
1, 137460, Note_on_c, 0, 92, 44
1, 137520, Tempo, 574713
1, 137520, Note_on_c, 0, 92, 0
1, 137520, Note_on_c, 0, 82, 67
1, 137520, Control_c, 0, 64, 0
1, 137520, Note_on_c, 0, 39, 44
1, 137520, Note_on_c, 0, 51, 49
1, 137580, Note_on_c, 0, 94, 51
1, 137580, Control_c, 0, 64, 127
1, 137640, Note_on_c, 0, 94, 0
1, 137640, Note_on_c, 0, 95, 51
1, 137700, Note_on_c, 0, 95, 0
1, 137700, Note_on_c, 0, 94, 51
1, 137760, Note_on_c, 0, 94, 0
1, 137760, Note_on_c, 0, 82, 0
1, 137760, Note_on_c, 0, 39, 0
1, 137760, Note_on_c, 0, 51, 0
1, 137760, Note_on_c, 0, 75, 59
1, 137760, Note_on_c, 0, 67, 44
1, 137760, Note_on_c, 0, 63, 39
1, 137760, Note_on_c, 0, 55, 39
1, 137820, Note_on_c, 0, 87, 44
1, 137880, Note_on_c, 0, 87, 0
1, 137880, Note_on_c, 0, 88, 44
1, 137940, Note_on_c, 0, 88, 0
1, 137940, Note_on_c, 0, 55, 0
1, 137940, Note_on_c, 0, 75, 0
1, 137940, Note_on_c, 0, 67, 0
1, 137940, Note_on_c, 0, 63, 0
1, 137940, Note_on_c, 0, 87, 44
1, 138000, Tempo, 550964
1, 138000, Note_on_c, 0, 87, 0
1, 138000, Note_on_c, 0, 75, 59
1, 138000, Note_on_c, 0, 67, 44
1, 138000, Note_on_c, 0, 63, 39
1, 138000, Note_on_c, 0, 58, 39
1, 138005, Control_c, 0, 64, 0
1, 138060, Note_on_c, 0, 87, 44
1, 138120, Note_on_c, 0, 87, 0
1, 138120, Note_on_c, 0, 88, 44
1, 138180, Note_on_c, 0, 88, 0
1, 138180, Note_on_c, 0, 58, 0
1, 138180, Note_on_c, 0, 63, 0
1, 138180, Note_on_c, 0, 67, 0
1, 138180, Note_on_c, 0, 87, 45
1, 138240, Tempo, 558659
1, 138240, Note_on_c, 0, 87, 0
1, 138240, Note_on_c, 0, 75, 0
1, 138240, Note_on_c, 0, 76, 62
1, 138240, Note_on_c, 0, 43, 51
1, 138300, Note_on_c, 0, 88, 45
1, 138304, Control_c, 0, 64, 127
1, 138360, Note_on_c, 0, 88, 0
1, 138360, Note_on_c, 0, 90, 45
1, 138420, Note_on_c, 0, 90, 0
1, 138420, Note_on_c, 0, 76, 0
1, 138420, Note_on_c, 0, 88, 45
1, 138480, Note_on_c, 0, 88, 0
1, 138480, Note_on_c, 0, 43, 0
1, 138480, Note_on_c, 0, 75, 56
1, 138480, Control_c, 0, 64, 0
1, 138480, Note_on_c, 0, 61, 37
1, 138480, Note_on_c, 0, 63, 37
1, 138480, Note_on_c, 0, 70, 43
1, 138540, Note_on_c, 0, 87, 43
1, 138600, Note_on_c, 0, 87, 0
1, 138600, Note_on_c, 0, 88, 43
1, 138660, Note_on_c, 0, 88, 0
1, 138660, Note_on_c, 0, 70, 0
1, 138660, Note_on_c, 0, 75, 0
1, 138660, Note_on_c, 0, 61, 0
1, 138660, Note_on_c, 0, 63, 0
1, 138660, Note_on_c, 0, 87, 43
1, 138720, Tempo, 553506
1, 138720, Note_on_c, 0, 87, 0
1, 138720, Note_on_c, 0, 73, 56
1, 138720, Note_on_c, 0, 58, 37
1, 138720, Note_on_c, 0, 63, 37
1, 138720, Note_on_c, 0, 70, 43
1, 138780, Note_on_c, 0, 85, 43
1, 138840, Note_on_c, 0, 85, 0
1, 138840, Note_on_c, 0, 87, 43
1, 138900, Note_on_c, 0, 87, 0
1, 138900, Note_on_c, 0, 70, 0
1, 138900, Note_on_c, 0, 73, 0
1, 138900, Note_on_c, 0, 58, 0
1, 138900, Note_on_c, 0, 63, 0
1, 138900, Note_on_c, 0, 85, 43
1, 138960, Tempo, 561272
1, 138960, Note_on_c, 0, 85, 0
1, 138960, Note_on_c, 0, 71, 60
1, 138960, Note_on_c, 0, 44, 47
1, 139006, Control_c, 0, 64, 127
1, 139020, Note_on_c, 0, 83, 43
1, 139080, Note_on_c, 0, 83, 0
1, 139080, Note_on_c, 0, 85, 43
1, 139140, Note_on_c, 0, 85, 0
1, 139140, Note_on_c, 0, 83, 43
1, 139170, Note_on_c, 0, 71, 0
1, 139200, Note_on_c, 0, 83, 0
1, 139200, Note_on_c, 0, 44, 0
1, 139200, Note_on_c, 0, 71, 54
1, 139200, Note_on_c, 0, 68, 40
1, 139200, Note_on_c, 0, 63, 35
1, 139260, Note_on_c, 0, 83, 39
1, 139320, Note_on_c, 0, 83, 0
1, 139320, Note_on_c, 0, 85, 39
1, 139380, Note_on_c, 0, 85, 0
1, 139380, Note_on_c, 0, 63, 0
1, 139380, Note_on_c, 0, 68, 0
1, 139380, Note_on_c, 0, 71, 0
1, 139380, Note_on_c, 0, 83, 39
1, 139440, Note_on_c, 0, 83, 0
1, 139440, Note_on_c, 0, 70, 54
1, 139440, Note_on_c, 0, 63, 40
1, 139440, Note_on_c, 0, 59, 35
1, 139448, Control_c, 0, 64, 0
1, 139492, Control_c, 0, 64, 127
1, 139500, Note_on_c, 0, 82, 41
1, 139560, Note_on_c, 0, 82, 0
1, 139560, Note_on_c, 0, 83, 41
1, 139620, Note_on_c, 0, 83, 0
1, 139620, Note_on_c, 0, 59, 0
1, 139620, Note_on_c, 0, 63, 0
1, 139620, Note_on_c, 0, 70, 0
1, 139620, Note_on_c, 0, 82, 43
1, 139680, Tempo, 550964
1, 139680, Note_on_c, 0, 82, 0
1, 139680, Note_on_c, 0, 68, 60
1, 139680, Note_on_c, 0, 40, 46
1, 139689, Control_c, 0, 64, 0
1, 139735, Control_c, 0, 64, 127
1, 139740, Note_on_c, 0, 80, 45
1, 139800, Note_on_c, 0, 80, 0
1, 139800, Note_on_c, 0, 82, 46
1, 139860, Note_on_c, 0, 82, 0
1, 139860, Note_on_c, 0, 68, 0
1, 139860, Note_on_c, 0, 80, 46
1, 139920, Note_on_c, 0, 80, 0
1, 139920, Note_on_c, 0, 40, 0
1, 139920, Note_on_c, 0, 67, 54
1, 139920, Note_on_c, 0, 62, 37
1, 139920, Note_on_c, 0, 59, 34
1, 139980, Note_on_c, 0, 79, 43
1, 140040, Note_on_c, 0, 79, 0
1, 140040, Note_on_c, 0, 80, 43
1, 140100, Note_on_c, 0, 80, 0
1, 140100, Note_on_c, 0, 59, 0
1, 140100, Note_on_c, 0, 62, 0
1, 140100, Note_on_c, 0, 67, 0
1, 140100, Note_on_c, 0, 79, 43
1, 140160, Tempo, 563380
1, 140160, Note_on_c, 0, 79, 0
1, 140160, Note_on_c, 0, 68, 52
1, 140160, Note_on_c, 0, 62, 37
1, 140160, Note_on_c, 0, 58, 34
1, 140169, Control_c, 0, 64, 0
1, 140209, Control_c, 0, 64, 127
1, 140220, Note_on_c, 0, 80, 41
1, 140280, Note_on_c, 0, 80, 0
1, 140280, Note_on_c, 0, 82, 41
1, 140340, Note_on_c, 0, 82, 0
1, 140340, Note_on_c, 0, 58, 0
1, 140340, Note_on_c, 0, 62, 0
1, 140340, Note_on_c, 0, 68, 0
1, 140340, Note_on_c, 0, 80, 41
1, 140400, Tempo, 576923
1, 140400, Note_on_c, 0, 80, 0
1, 140400, Note_on_c, 0, 70, 54
1, 140400, Control_c, 0, 64, 0
1, 140400, Note_on_c, 0, 39, 43
1, 140460, Note_on_c, 0, 82, 43
1, 140474, Control_c, 0, 64, 127
1, 140520, Note_on_c, 0, 82, 0
1, 140520, Note_on_c, 0, 83, 43
1, 140580, Note_on_c, 0, 83, 0
1, 140580, Note_on_c, 0, 82, 43
1, 140640, Tempo, 634921
1, 140640, Note_on_c, 0, 82, 0
1, 140640, Note_on_c, 0, 39, 0
1, 140640, Note_on_c, 0, 70, 0
1, 140640, Note_on_c, 0, 63, 49
1, 140640, Note_on_c, 0, 55, 34
1, 140640, Note_on_c, 0, 58, 37
1, 140700, Note_on_c, 0, 75, 37
1, 140760, Note_on_c, 0, 75, 0
1, 140760, Note_on_c, 0, 63, 0
1, 140760, Note_on_c, 0, 76, 37
1, 140820, Note_on_c, 0, 76, 0
1, 140820, Note_on_c, 0, 75, 37
1, 140880, Tempo, 558140
1, 140880, Note_on_c, 0, 75, 0
1, 140880, Note_on_c, 0, 58, 0
1, 140880, Note_on_c, 0, 55, 0
1, 140880, Note_on_c, 0, 75, 59
1, 140880, Note_on_c, 0, 70, 36
1, 140880, Note_on_c, 0, 67, 33
1, 140940, Note_on_c, 0, 87, 43
1, 141000, Note_on_c, 0, 87, 0
1, 141000, Note_on_c, 0, 88, 43
1, 141060, Note_on_c, 0, 88, 0
1, 141060, Note_on_c, 0, 87, 43
1, 141120, Note_on_c, 0, 87, 0
1, 141120, Note_on_c, 0, 75, 0
1, 141120, Note_on_c, 0, 70, 0
1, 141120, Note_on_c, 0, 67, 0
1, 141120, Note_on_c, 0, 87, 64
1, 141120, Note_on_c, 0, 82, 43
1, 141120, Note_on_c, 0, 79, 37
1, 141180, Tempo, 566038
1, 141180, Note_on_c, 0, 99, 52
1, 141220, Tempo, 563380
1, 141240, Tempo, 597015
1, 141240, Note_on_c, 0, 99, 0
1, 141240, Note_on_c, 0, 100, 52
1, 141300, Note_on_c, 0, 100, 0
1, 141300, Note_on_c, 0, 87, 0
1, 141300, Note_on_c, 0, 99, 52
1, 141320, Tempo, 545455
1, 141360, Tempo, 552995
1, 141360, Note_on_c, 0, 99, 0
1, 141360, Note_on_c, 0, 79, 0
1, 141360, Note_on_c, 0, 82, 0
1, 141360, Note_on_c, 0, 87, 63
1, 141366, Control_c, 0, 64, 0
1, 141420, Note_on_c, 0, 99, 49
1, 141480, Note_on_c, 0, 99, 0
1, 141480, Note_on_c, 0, 100, 49
1, 141540, Note_on_c, 0, 100, 0
1, 141540, Note_on_c, 0, 87, 0
1, 141540, Note_on_c, 0, 99, 49
1, 141600, Tempo, 560748
1, 141600, Note_on_c, 0, 99, 0
1, 141600, Note_on_c, 0, 85, 63
1, 141660, Note_on_c, 0, 97, 49
1, 141720, Note_on_c, 0, 97, 0
1, 141720, Note_on_c, 0, 99, 49
1, 141780, Note_on_c, 0, 99, 0
1, 141780, Note_on_c, 0, 85, 0
1, 141780, Note_on_c, 0, 97, 49
1, 141840, Tempo, 540541
1, 141840, Note_on_c, 0, 97, 0
1, 141840, Note_on_c, 0, 84, 62
1, 141840, Note_on_c, 0, 44, 43
1, 141875, Control_c, 0, 64, 127
1, 141900, Note_on_c, 0, 96, 50
1, 141960, Note_on_c, 0, 96, 0
1, 141960, Note_on_c, 0, 97, 50
1, 142020, Note_on_c, 0, 97, 0
1, 142020, Note_on_c, 0, 84, 0
1, 142020, Note_on_c, 0, 96, 50
1, 142080, Note_on_c, 0, 96, 0
1, 142080, Note_on_c, 0, 44, 0
1, 142080, Note_on_c, 0, 84, 60
1, 142080, Note_on_c, 0, 66, 40
1, 142080, Note_on_c, 0, 63, 35
1, 142080, Note_on_c, 0, 57, 35
1, 142140, Note_on_c, 0, 96, 47
1, 142200, Note_on_c, 0, 96, 0
1, 142200, Note_on_c, 0, 97, 47
1, 142260, Note_on_c, 0, 97, 0
1, 142260, Note_on_c, 0, 57, 0
1, 142260, Note_on_c, 0, 84, 0
1, 142260, Note_on_c, 0, 66, 0
1, 142260, Note_on_c, 0, 63, 0
1, 142260, Note_on_c, 0, 96, 47
1, 142320, Tempo, 533333
1, 142320, Note_on_c, 0, 96, 0
1, 142320, Note_on_c, 0, 81, 59
1, 142320, Note_on_c, 0, 60, 35
1, 142320, Note_on_c, 0, 63, 35
1, 142320, Note_on_c, 0, 66, 40
1, 142326, Control_c, 0, 64, 0
1, 142380, Note_on_c, 0, 93, 46
1, 142440, Note_on_c, 0, 93, 0
1, 142440, Note_on_c, 0, 95, 46
1, 142500, Note_on_c, 0, 95, 0
1, 142500, Note_on_c, 0, 66, 0
1, 142500, Note_on_c, 0, 81, 0
1, 142500, Note_on_c, 0, 60, 0
1, 142500, Note_on_c, 0, 63, 0
1, 142500, Note_on_c, 0, 93, 46
1, 142560, Tempo, 540541
1, 142560, Note_on_c, 0, 93, 0
1, 142560, Note_on_c, 0, 80, 62
1, 142560, Note_on_c, 0, 48, 43
1, 142620, Note_on_c, 0, 92, 46
1, 142623, Control_c, 0, 64, 127
1, 142680, Note_on_c, 0, 92, 0
1, 142680, Note_on_c, 0, 93, 46
1, 142740, Note_on_c, 0, 93, 0
1, 142740, Note_on_c, 0, 80, 0
1, 142740, Note_on_c, 0, 92, 46
1, 142800, Note_on_c, 0, 92, 0
1, 142800, Note_on_c, 0, 48, 0
1, 142800, Note_on_c, 0, 80, 59
1, 142800, Note_on_c, 0, 66, 40
1, 142800, Note_on_c, 0, 63, 35
1, 142800, Note_on_c, 0, 57, 35
1, 142860, Note_on_c, 0, 92, 45
1, 142920, Note_on_c, 0, 92, 0
1, 142920, Note_on_c, 0, 93, 45
1, 142980, Note_on_c, 0, 93, 0
1, 142980, Note_on_c, 0, 57, 0
1, 142980, Note_on_c, 0, 80, 0
1, 142980, Note_on_c, 0, 66, 0
1, 142980, Note_on_c, 0, 63, 0
1, 142980, Note_on_c, 0, 92, 45
1, 143040, Tempo, 550459
1, 143040, Note_on_c, 0, 92, 0
1, 143040, Note_on_c, 0, 78, 57
1, 143040, Note_on_c, 0, 60, 35
1, 143040, Note_on_c, 0, 63, 35
1, 143040, Note_on_c, 0, 66, 40
1, 143100, Note_on_c, 0, 90, 41
1, 143160, Note_on_c, 0, 90, 0
1, 143160, Note_on_c, 0, 92, 41
1, 143220, Note_on_c, 0, 92, 0
1, 143220, Note_on_c, 0, 66, 0
1, 143220, Note_on_c, 0, 78, 0
1, 143220, Note_on_c, 0, 60, 0
1, 143220, Note_on_c, 0, 63, 0
1, 143220, Note_on_c, 0, 90, 41
1, 143280, Tempo, 533333
1, 143280, Note_on_c, 0, 90, 0
1, 143280, Note_on_c, 0, 76, 55
1, 143280, Note_on_c, 0, 52, 43
1, 143292, Control_c, 0, 64, 0
1, 143340, Note_on_c, 0, 88, 44
1, 143347, Control_c, 0, 64, 127
1, 143400, Note_on_c, 0, 88, 0
1, 143400, Note_on_c, 0, 90, 44
1, 143460, Note_on_c, 0, 90, 0
1, 143460, Note_on_c, 0, 88, 44
1, 143520, Note_on_c, 0, 88, 0
1, 143520, Note_on_c, 0, 52, 0
1, 143520, Note_on_c, 0, 76, 0
1, 143520, Note_on_c, 0, 73, 51
1, 143520, Note_on_c, 0, 64, 32
1, 143520, Note_on_c, 0, 69, 36
1, 143580, Note_on_c, 0, 85, 40
1, 143640, Note_on_c, 0, 85, 0
1, 143640, Note_on_c, 0, 87, 40
1, 143700, Note_on_c, 0, 87, 0
1, 143700, Note_on_c, 0, 85, 40
1, 143760, Tempo, 526316
1, 143760, Note_on_c, 0, 85, 0
1, 143760, Note_on_c, 0, 73, 0
1, 143760, Note_on_c, 0, 64, 0
1, 143760, Note_on_c, 0, 69, 0
1, 143760, Note_on_c, 0, 75, 54
1, 143760, Note_on_c, 0, 60, 35
1, 143760, Note_on_c, 0, 69, 40
1, 143771, Control_c, 0, 64, 0
1, 143820, Note_on_c, 0, 87, 41
1, 143880, Note_on_c, 0, 87, 0
1, 143880, Note_on_c, 0, 88, 41
1, 143940, Note_on_c, 0, 88, 0
1, 143940, Note_on_c, 0, 87, 41
1, 144000, Tempo, 533333
1, 144000, Note_on_c, 0, 87, 0
1, 144000, Note_on_c, 0, 75, 0
1, 144000, Note_on_c, 0, 60, 0
1, 144000, Note_on_c, 0, 69, 0
1, 144000, Note_on_c, 0, 76, 55
1, 144000, Note_on_c, 0, 61, 39
1, 144000, Note_on_c, 0, 69, 44
1, 144060, Note_on_c, 0, 88, 45
1, 144078, Control_c, 0, 64, 127
1, 144120, Note_on_c, 0, 88, 0
1, 144120, Note_on_c, 0, 90, 45
1, 144180, Note_on_c, 0, 90, 0
1, 144180, Note_on_c, 0, 88, 45
1, 144240, Note_on_c, 0, 88, 0
1, 144240, Note_on_c, 0, 76, 0
1, 144240, Note_on_c, 0, 61, 0
1, 144240, Note_on_c, 0, 69, 0
1, 144240, Note_on_c, 0, 75, 52
1, 144240, Note_on_c, 0, 66, 34
1, 144240, Note_on_c, 0, 69, 37
1, 144300, Note_on_c, 0, 87, 40
1, 144360, Note_on_c, 0, 87, 0
1, 144360, Note_on_c, 0, 88, 40
1, 144420, Note_on_c, 0, 88, 0
1, 144420, Note_on_c, 0, 87, 40
1, 144480, Note_on_c, 0, 87, 0
1, 144480, Note_on_c, 0, 75, 0
1, 144480, Note_on_c, 0, 66, 0
1, 144480, Note_on_c, 0, 69, 0
1, 144480, Note_on_c, 0, 73, 49
1, 144480, Note_on_c, 0, 64, 32
1, 144480, Note_on_c, 0, 69, 36
1, 144540, Note_on_c, 0, 85, 37
1, 144600, Note_on_c, 0, 85, 0
1, 144600, Note_on_c, 0, 87, 37
1, 144660, Note_on_c, 0, 87, 0
1, 144660, Note_on_c, 0, 85, 37
1, 144700, Tempo, 519481
1, 144716, Note_on_c, 0, 75, 43
1, 144720, Note_on_c, 0, 85, 0
1, 144720, Note_on_c, 0, 69, 0
1, 144720, Note_on_c, 0, 73, 0
1, 144720, Note_on_c, 0, 64, 0
1, 144720, Note_on_c, 0, 71, 44
1, 144720, Note_on_c, 0, 68, 39
1, 144720, Note_on_c, 0, 63, 39
1, 144729, Control_c, 0, 64, 0
1, 144776, Note_on_c, 0, 75, 0
1, 144781, Note_on_c, 0, 87, 43
1, 144840, Tempo, 517241
1, 144841, Note_on_c, 0, 87, 0
1, 144844, Note_on_c, 0, 76, 44
1, 144904, Note_on_c, 0, 76, 0
1, 144905, Note_on_c, 0, 77, 44
1, 144957, Note_on_c, 0, 78, 45
1, 144960, Note_on_c, 0, 71, 0
1, 144960, Note_on_c, 0, 63, 0
1, 144960, Note_on_c, 0, 68, 0
1, 144965, Note_on_c, 0, 77, 0
1, 144980, Tempo, 515021
1, 145017, Note_on_c, 0, 78, 0
1, 145023, Note_on_c, 0, 79, 45
1, 145082, Note_on_c, 0, 80, 45
1, 145083, Note_on_c, 0, 79, 0
1, 145100, Tempo, 512821
1, 145142, Note_on_c, 0, 80, 0
1, 145142, Note_on_c, 0, 81, 45
1, 145202, Note_on_c, 0, 81, 0
1, 145205, Note_on_c, 0, 82, 46
1, 145240, Tempo, 510638
1, 145260, Note_on_c, 0, 83, 47
1, 145265, Note_on_c, 0, 82, 0
1, 145320, Note_on_c, 0, 83, 0
1, 145325, Note_on_c, 0, 84, 47
1, 145360, Tempo, 508475
1, 145382, Note_on_c, 0, 85, 49
1, 145385, Note_on_c, 0, 84, 0
1, 145436, Note_on_c, 0, 86, 49
1, 145442, Note_on_c, 0, 85, 0
1, 145496, Note_on_c, 0, 86, 0
1, 145500, Tempo, 506329
1, 145501, Note_on_c, 0, 87, 50
1, 145561, Note_on_c, 0, 87, 0
1, 145561, Note_on_c, 0, 88, 50
1, 145619, Note_on_c, 0, 89, 51
1, 145620, Tempo, 504202
1, 145621, Note_on_c, 0, 88, 0
1, 145679, Note_on_c, 0, 89, 0
1, 145685, Note_on_c, 0, 90, 52
1, 145740, Note_on_c, 0, 91, 52
1, 145745, Note_on_c, 0, 90, 0
1, 145760, Tempo, 502092
1, 145800, Note_on_c, 0, 91, 0
1, 145801, Note_on_c, 0, 92, 54
1, 145860, Note_on_c, 0, 93, 54
1, 145861, Note_on_c, 0, 92, 0
1, 145880, Tempo, 500000
1, 145917, Note_on_c, 0, 94, 54
1, 145920, Note_on_c, 0, 93, 0
1, 145977, Note_on_c, 0, 94, 0
1, 145979, Note_on_c, 0, 95, 54
1, 146020, Tempo, 497925
1, 146038, Note_on_c, 0, 96, 55
1, 146039, Note_on_c, 0, 95, 0
1, 146095, Note_on_c, 0, 97, 56
1, 146098, Note_on_c, 0, 96, 0
1, 146140, Tempo, 495868
1, 146155, Note_on_c, 0, 97, 0
1, 146160, Tempo, 478088
1, 146160, Note_on_c, 0, 67, 46
1, 146160, Note_on_c, 0, 61, 42
1, 146160, Note_on_c, 0, 51, 42
1, 146163, Note_on_c, 0, 98, 57
1, 146227, Note_on_c, 0, 99, 59
1, 146233, Note_on_c, 0, 98, 0
1, 146295, Note_on_c, 0, 102, 63
1, 146297, Note_on_c, 0, 99, 0
1, 146360, Note_on_c, 0, 102, 0
1, 146364, Note_on_c, 0, 100, 62
1, 146400, Note_on_c, 0, 67, 0
1, 146400, Note_on_c, 0, 51, 0
1, 146400, Note_on_c, 0, 61, 0
1, 146429, Note_on_c, 0, 100, 0
1, 146431, Note_on_c, 0, 97, 61
1, 146490, Note_on_c, 0, 94, 60
1, 146496, Note_on_c, 0, 97, 0
1, 146555, Note_on_c, 0, 94, 0
1, 146557, Note_on_c, 0, 91, 57
1, 146621, Note_on_c, 0, 86, 56
1, 146622, Note_on_c, 0, 91, 0
1, 146686, Note_on_c, 0, 86, 0
1, 146692, Note_on_c, 0, 87, 55
1, 146754, Note_on_c, 0, 90, 61
1, 146757, Note_on_c, 0, 87, 0
1, 146819, Note_on_c, 0, 90, 0
1, 146821, Note_on_c, 0, 88, 60
1, 146886, Note_on_c, 0, 88, 0
1, 146887, Note_on_c, 0, 85, 59
1, 146949, Note_on_c, 0, 82, 57
1, 146952, Note_on_c, 0, 85, 0
1, 147014, Note_on_c, 0, 82, 0
1, 147017, Note_on_c, 0, 79, 60
1, 147079, Note_on_c, 0, 76, 55
1, 147082, Note_on_c, 0, 79, 0
1, 147144, Note_on_c, 0, 76, 0
1, 147149, Note_on_c, 0, 73, 54
1, 147211, Note_on_c, 0, 70, 51
1, 147214, Note_on_c, 0, 73, 0
1, 147272, Note_on_c, 0, 67, 49
1, 147276, Note_on_c, 0, 70, 0
1, 147337, Note_on_c, 0, 67, 0
1, 147345, Note_on_c, 0, 64, 47
1, 147360, Tempo, 478088
1, 147380, Tempo, 489796
1, 147400, Tempo, 502092
1, 147409, Note_on_c, 0, 61, 45
1, 147410, Note_on_c, 0, 64, 0
1, 147420, Tempo, 517241
1, 147440, Tempo, 530973
1, 147460, Tempo, 547945
1, 147469, Note_on_c, 0, 58, 44
1, 147474, Note_on_c, 0, 61, 0
1, 147480, Tempo, 563380
1, 147500, Tempo, 582524
1, 147520, Tempo, 600000
1, 147534, Note_on_c, 0, 58, 0
1, 147540, Tempo, 621762
1, 147540, Note_on_c, 0, 55, 41
1, 147560, Tempo, 641711
1, 147580, Tempo, 666667
1, 147600, Time_signature, 8, 3, 12, 8
1, 147600, Tempo, 857143
1, 147600, Note_on_c, 0, 44, 41
1, 147605, Note_on_c, 0, 55, 0
1, 147633, Control_c, 0, 64, 127
1, 147680, Tempo, 512821
1, 147680, Note_on_c, 0, 44, 0
1, 147680, Note_on_c, 0, 51, 41
1, 147760, Note_on_c, 0, 51, 0
1, 147760, Note_on_c, 0, 56, 41
1, 147840, Note_on_c, 0, 56, 0
1, 147840, Note_on_c, 0, 59, 41
1, 147920, Note_on_c, 0, 59, 0
1, 147920, Note_on_c, 0, 63, 41
1, 148000, Note_on_c, 0, 63, 0
1, 148000, Note_on_c, 0, 68, 41
1, 148080, Note_on_c, 0, 68, 0
1, 148080, Note_on_c, 0, 71, 41
1, 148160, Note_on_c, 0, 71, 0
1, 148160, Note_on_c, 0, 75, 41
1, 148240, Note_on_c, 0, 75, 0
1, 148240, Note_on_c, 0, 80, 41
1, 148320, Tempo, 506329
1, 148320, Note_on_c, 0, 80, 0
1, 148320, Note_on_c, 0, 71, 41
1, 148340, Tempo, 508475
1, 148360, Tempo, 512821
1, 148380, Tempo, 515021
1, 148400, Tempo, 519481
1, 148400, Note_on_c, 0, 71, 0
1, 148400, Note_on_c, 0, 75, 41
1, 148420, Tempo, 521739
1, 148440, Tempo, 526316
1, 148460, Tempo, 530973
1, 148480, Tempo, 582524
1, 148480, Note_on_c, 0, 75, 0
1, 148480, Note_on_c, 0, 83, 45
1, 148560, Note_on_c, 0, 83, 0
1, 148560, Note_on_c, 0, 80, 40
1, 148680, Tempo, 759590
1, 148680, Control_c, 0, 64, 0
1, 148800, Marker_t, "Piu mosso"
1, 148800, Note_on_c, 0, 80, 0
1, 148920, Tempo, 521739
1, 148920, Note_on_c, 0, 83, 37
1, 148920, Control_c, 0, 91, 127
1, 148920, Note_on_c, 0, 71, 37
1, 148920, Note_on_c, 0, 68, 33
1, 148920, Control_c, 0, 91, 127
1, 149010, Note_on_c, 0, 68, 0
1, 149010, Note_on_c, 0, 71, 0
1, 149010, Note_on_c, 0, 83, 0
1, 149040, Note_on_c, 0, 83, 41
1, 149040, Note_on_c, 0, 71, 41
1, 149040, Note_on_c, 0, 67, 36
1, 149040, Note_on_c, 0, 70, 36
1, 149130, Note_on_c, 0, 70, 0
1, 149130, Note_on_c, 0, 83, 0
1, 149130, Note_on_c, 0, 71, 0
1, 149130, Note_on_c, 0, 67, 0
1, 149160, Note_on_c, 0, 83, 45
1, 149160, Note_on_c, 0, 71, 45
1, 149160, Note_on_c, 0, 66, 37
1, 149160, Note_on_c, 0, 69, 37
1, 149250, Note_on_c, 0, 69, 0
1, 149250, Note_on_c, 0, 83, 0
1, 149250, Note_on_c, 0, 71, 0
1, 149250, Note_on_c, 0, 66, 0
1, 149280, Note_on_c, 0, 71, 47
1, 149280, Note_on_c, 0, 83, 47
1, 149280, Note_on_c, 0, 65, 41
1, 149280, Note_on_c, 0, 68, 41
1, 149370, Note_on_c, 0, 68, 0
1, 149370, Note_on_c, 0, 71, 0
1, 149370, Note_on_c, 0, 83, 0
1, 149370, Note_on_c, 0, 65, 0
1, 149400, Tempo, 545455
1, 149400, Note_on_c, 0, 83, 51
1, 149400, Note_on_c, 0, 71, 51
1, 149400, Note_on_c, 0, 64, 45
1, 149400, Note_on_c, 0, 67, 45
1, 149490, Note_on_c, 0, 67, 0
1, 149490, Note_on_c, 0, 83, 0
1, 149490, Note_on_c, 0, 71, 0
1, 149490, Note_on_c, 0, 64, 0
1, 149520, Time_signature, 6, 3, 12, 8
1, 149520, Tempo, 540541
1, 149520, Note_on_c, 0, 83, 66
1, 149520, Note_on_c, 0, 47, 47
1, 149610, Note_on_c, 0, 47, 0
1, 149610, Note_on_c, 0, 83, 0
1, 149640, Tempo, 524017
1, 149640, Note_on_c, 0, 66, 49
1, 149640, Note_on_c, 0, 63, 34
1, 149730, Note_on_c, 0, 63, 0
1, 149730, Note_on_c, 0, 66, 0
1, 149760, Tempo, 506329
1, 149760, Note_on_c, 0, 71, 50
1, 149760, Note_on_c, 0, 78, 60
1, 149760, Note_on_c, 0, 54, 32
1, 149760, Note_on_c, 0, 59, 44
1, 149850, Note_on_c, 0, 59, 0
1, 149850, Note_on_c, 0, 71, 0
1, 149850, Note_on_c, 0, 78, 0
1, 149850, Note_on_c, 0, 54, 0
1, 149880, Tempo, 530973
1, 149880, Note_on_c, 0, 66, 49
1, 149880, Note_on_c, 0, 63, 34
1, 149970, Note_on_c, 0, 63, 0
1, 149970, Note_on_c, 0, 66, 0
1, 150000, Tempo, 517241
1, 150000, Note_on_c, 0, 83, 64
1, 150000, Note_on_c, 0, 47, 44
1, 150090, Note_on_c, 0, 47, 0
1, 150090, Note_on_c, 0, 83, 0
1, 150120, Note_on_c, 0, 66, 49
1, 150120, Note_on_c, 0, 63, 34
1, 150210, Note_on_c, 0, 63, 0
1, 150210, Note_on_c, 0, 66, 0
1, 150240, Note_on_c, 0, 85, 71
1, 150240, Note_on_c, 0, 42, 45
1, 150330, Note_on_c, 0, 42, 0
1, 150330, Note_on_c, 0, 85, 0
1, 150360, Note_on_c, 0, 66, 49
1, 150360, Note_on_c, 0, 64, 33
1, 150450, Note_on_c, 0, 64, 0
1, 150450, Note_on_c, 0, 66, 0
1, 150480, Note_on_c, 0, 73, 54
1, 150480, Note_on_c, 0, 78, 64
1, 150480, Note_on_c, 0, 54, 34
1, 150480, Note_on_c, 0, 58, 45
1, 150570, Note_on_c, 0, 58, 0
1, 150570, Note_on_c, 0, 73, 0
1, 150570, Note_on_c, 0, 78, 0
1, 150570, Note_on_c, 0, 54, 0
1, 150600, Tempo, 530973
1, 150600, Note_on_c, 0, 66, 49
1, 150600, Note_on_c, 0, 64, 36
1, 150690, Note_on_c, 0, 64, 0
1, 150690, Note_on_c, 0, 66, 0
1, 150700, Tempo, 508475
1, 150720, Tempo, 502092
1, 150720, Note_on_c, 0, 85, 70
1, 150720, Note_on_c, 0, 42, 46
1, 150810, Note_on_c, 0, 42, 0
1, 150810, Note_on_c, 0, 85, 0
1, 150840, Note_on_c, 0, 66, 50
1, 150840, Note_on_c, 0, 64, 36
1, 150930, Note_on_c, 0, 64, 0
1, 150930, Note_on_c, 0, 66, 0
1, 150960, Tempo, 533333
1, 150960, Note_on_c, 0, 87, 73
1, 150960, Note_on_c, 0, 47, 47
1, 151080, Tempo, 506329
1, 151080, Note_on_c, 0, 47, 0
1, 151080, Note_on_c, 0, 87, 0
1, 151080, Note_on_c, 0, 66, 60
1, 151080, Note_on_c, 0, 63, 39
1, 151100, Tempo, 515021
1, 151140, Tempo, 512821
1, 151160, Tempo, 510638
1, 151170, Note_on_c, 0, 63, 0
1, 151170, Note_on_c, 0, 66, 0
1, 151180, Tempo, 508475
1, 151200, Note_on_c, 0, 75, 60
1, 151200, Note_on_c, 0, 54, 39
1, 151220, Tempo, 506329
1, 151240, Tempo, 504202
1, 151260, Tempo, 502092
1, 151290, Note_on_c, 0, 54, 0
1, 151290, Note_on_c, 0, 75, 0
1, 151300, Tempo, 500000
1, 151320, Tempo, 497925
1, 151320, Note_on_c, 0, 83, 59
1, 151320, Note_on_c, 0, 47, 37
1, 151340, Tempo, 495868
1, 151380, Tempo, 493827
1, 151400, Tempo, 491803
1, 151410, Note_on_c, 0, 47, 0
1, 151410, Note_on_c, 0, 83, 0
1, 151420, Tempo, 489796
1, 151440, Tempo, 487805
1, 151440, Note_on_c, 0, 87, 57
1, 151440, Note_on_c, 0, 42, 36
1, 151530, Note_on_c, 0, 42, 0
1, 151530, Note_on_c, 0, 87, 0
1, 151560, Note_on_c, 0, 95, 62
1, 151560, Note_on_c, 0, 35, 36
1, 151650, Note_on_c, 0, 35, 0
1, 151650, Note_on_c, 0, 95, 0
1, 151680, Tempo, 625000
1, 151800, Tempo, 510638
1, 151800, Note_on_c, 0, 87, 37
1, 151800, Note_on_c, 0, 75, 37
1, 151800, Note_on_c, 0, 71, 33
1, 151890, Note_on_c, 0, 71, 0
1, 151890, Note_on_c, 0, 75, 0
1, 151890, Note_on_c, 0, 87, 0
1, 151920, Note_on_c, 0, 87, 41
1, 151920, Note_on_c, 0, 75, 41
1, 151920, Note_on_c, 0, 71, 36
1, 151920, Note_on_c, 0, 74, 36
1, 152010, Note_on_c, 0, 74, 0
1, 152010, Note_on_c, 0, 87, 0
1, 152010, Note_on_c, 0, 75, 0
1, 152010, Note_on_c, 0, 71, 0
1, 152040, Note_on_c, 0, 87, 45
1, 152040, Note_on_c, 0, 75, 45
1, 152040, Note_on_c, 0, 70, 37
1, 152040, Note_on_c, 0, 73, 37
1, 152130, Note_on_c, 0, 73, 0
1, 152130, Note_on_c, 0, 87, 0
1, 152130, Note_on_c, 0, 75, 0
1, 152130, Note_on_c, 0, 70, 0
1, 152160, Note_on_c, 0, 87, 47
1, 152160, Note_on_c, 0, 75, 47
1, 152160, Note_on_c, 0, 69, 41
1, 152160, Note_on_c, 0, 72, 41
1, 152250, Note_on_c, 0, 72, 0
1, 152250, Note_on_c, 0, 87, 0
1, 152250, Note_on_c, 0, 75, 0
1, 152250, Note_on_c, 0, 69, 0
1, 152260, Tempo, 512821
1, 152280, Tempo, 528634
1, 152280, Note_on_c, 0, 87, 51
1, 152280, Note_on_c, 0, 75, 51
1, 152280, Note_on_c, 0, 68, 45
1, 152280, Note_on_c, 0, 71, 45
1, 152370, Note_on_c, 0, 71, 0
1, 152370, Note_on_c, 0, 87, 0
1, 152370, Note_on_c, 0, 75, 0
1, 152370, Note_on_c, 0, 68, 0
1, 152400, Note_on_c, 0, 87, 70
1, 152400, Note_on_c, 0, 51, 47
1, 152490, Note_on_c, 0, 51, 0
1, 152490, Note_on_c, 0, 87, 0
1, 152520, Tempo, 524017
1, 152520, Note_on_c, 0, 70, 49
1, 152520, Note_on_c, 0, 66, 34
1, 152610, Note_on_c, 0, 66, 0
1, 152610, Note_on_c, 0, 70, 0
1, 152640, Tempo, 506329
1, 152640, Note_on_c, 0, 75, 50
1, 152640, Note_on_c, 0, 82, 60
1, 152640, Note_on_c, 0, 58, 32
1, 152640, Note_on_c, 0, 63, 44
1, 152730, Note_on_c, 0, 63, 0
1, 152730, Note_on_c, 0, 75, 0
1, 152730, Note_on_c, 0, 82, 0
1, 152730, Note_on_c, 0, 58, 0
1, 152760, Tempo, 530973
1, 152760, Note_on_c, 0, 70, 49
1, 152760, Note_on_c, 0, 66, 34
1, 152850, Note_on_c, 0, 66, 0
1, 152850, Note_on_c, 0, 70, 0
1, 152880, Tempo, 517241
1, 152880, Note_on_c, 0, 87, 70
1, 152880, Note_on_c, 0, 51, 44
1, 152970, Note_on_c, 0, 51, 0
1, 152970, Note_on_c, 0, 87, 0
1, 153000, Note_on_c, 0, 70, 49
1, 153000, Note_on_c, 0, 66, 34
1, 153090, Note_on_c, 0, 66, 0
1, 153090, Note_on_c, 0, 70, 0
1, 153120, Note_on_c, 0, 89, 76
1, 153120, Note_on_c, 0, 46, 45
1, 153210, Note_on_c, 0, 46, 0
1, 153210, Note_on_c, 0, 89, 0
1, 153240, Note_on_c, 0, 70, 49
1, 153240, Note_on_c, 0, 68, 33
1, 153330, Note_on_c, 0, 68, 0
1, 153330, Note_on_c, 0, 70, 0
1, 153360, Note_on_c, 0, 77, 54
1, 153360, Note_on_c, 0, 82, 64
1, 153360, Note_on_c, 0, 58, 34
1, 153360, Note_on_c, 0, 62, 45
1, 153450, Note_on_c, 0, 62, 0
1, 153450, Note_on_c, 0, 77, 0
1, 153450, Note_on_c, 0, 82, 0
1, 153450, Note_on_c, 0, 58, 0
1, 153480, Tempo, 530973
1, 153480, Note_on_c, 0, 70, 49
1, 153480, Note_on_c, 0, 68, 36
1, 153570, Note_on_c, 0, 68, 0
1, 153570, Note_on_c, 0, 70, 0
1, 153580, Tempo, 508475
1, 153600, Tempo, 502092
1, 153600, Note_on_c, 0, 89, 72
1, 153600, Note_on_c, 0, 46, 46
1, 153690, Note_on_c, 0, 46, 0
1, 153690, Note_on_c, 0, 89, 0
1, 153720, Note_on_c, 0, 70, 50
1, 153720, Note_on_c, 0, 68, 36
1, 153810, Note_on_c, 0, 68, 0
1, 153810, Note_on_c, 0, 70, 0
1, 153840, Tempo, 533333
1, 153840, Note_on_c, 0, 90, 79
1, 153840, Note_on_c, 0, 51, 47
1, 153960, Tempo, 506329
1, 153960, Note_on_c, 0, 51, 0
1, 153960, Note_on_c, 0, 90, 0
1, 153960, Note_on_c, 0, 70, 60
1, 153960, Note_on_c, 0, 66, 39
1, 153980, Tempo, 515021
1, 154020, Tempo, 512821
1, 154040, Tempo, 510638
1, 154050, Note_on_c, 0, 66, 0
1, 154050, Note_on_c, 0, 70, 0
1, 154060, Tempo, 508475
1, 154080, Note_on_c, 0, 78, 60
1, 154080, Note_on_c, 0, 58, 39
1, 154100, Tempo, 506329
1, 154120, Tempo, 504202
1, 154140, Tempo, 502092
1, 154170, Note_on_c, 0, 58, 0
1, 154170, Note_on_c, 0, 78, 0
1, 154180, Tempo, 500000
1, 154200, Tempo, 497925
1, 154200, Note_on_c, 0, 87, 59
1, 154200, Note_on_c, 0, 51, 37
1, 154220, Tempo, 495868
1, 154260, Tempo, 493827
1, 154280, Tempo, 491803
1, 154290, Note_on_c, 0, 51, 0
1, 154290, Note_on_c, 0, 87, 0
1, 154300, Tempo, 489796
1, 154320, Tempo, 487805
1, 154320, Note_on_c, 0, 90, 59
1, 154320, Note_on_c, 0, 46, 37
1, 154410, Note_on_c, 0, 46, 0
1, 154410, Note_on_c, 0, 90, 0
1, 154440, Note_on_c, 0, 99, 62
1, 154440, Note_on_c, 0, 39, 36
1, 154530, Note_on_c, 0, 39, 0
1, 154530, Note_on_c, 0, 99, 0
1, 154560, Tempo, 625000
1, 154680, Tempo, 510638
1, 154680, Note_on_c, 0, 90, 37
1, 154680, Note_on_c, 0, 78, 37
1, 154680, Note_on_c, 0, 75, 33
1, 154770, Note_on_c, 0, 75, 0
1, 154770, Note_on_c, 0, 78, 0
1, 154770, Note_on_c, 0, 90, 0
1, 154800, Note_on_c, 0, 90, 41
1, 154800, Note_on_c, 0, 78, 41
1, 154800, Note_on_c, 0, 74, 36
1, 154800, Note_on_c, 0, 77, 36
1, 154890, Note_on_c, 0, 77, 0
1, 154890, Note_on_c, 0, 90, 0
1, 154890, Note_on_c, 0, 78, 0
1, 154890, Note_on_c, 0, 74, 0
1, 154920, Note_on_c, 0, 90, 45
1, 154920, Note_on_c, 0, 78, 45
1, 154920, Note_on_c, 0, 73, 37
1, 154920, Note_on_c, 0, 76, 37
1, 155010, Note_on_c, 0, 76, 0
1, 155010, Note_on_c, 0, 90, 0
1, 155010, Note_on_c, 0, 78, 0
1, 155010, Note_on_c, 0, 73, 0
1, 155040, Note_on_c, 0, 90, 47
1, 155040, Note_on_c, 0, 78, 47
1, 155040, Note_on_c, 0, 72, 41
1, 155040, Note_on_c, 0, 75, 41
1, 155130, Note_on_c, 0, 75, 0
1, 155130, Note_on_c, 0, 90, 0
1, 155130, Note_on_c, 0, 78, 0
1, 155130, Note_on_c, 0, 72, 0
1, 155140, Tempo, 512821
1, 155160, Tempo, 528634
1, 155160, Note_on_c, 0, 90, 51
1, 155160, Note_on_c, 0, 78, 51
1, 155160, Note_on_c, 0, 71, 45
1, 155160, Note_on_c, 0, 74, 45
1, 155250, Note_on_c, 0, 74, 0
1, 155250, Note_on_c, 0, 90, 0
1, 155250, Note_on_c, 0, 78, 0
1, 155250, Note_on_c, 0, 71, 0
1, 155280, Note_on_c, 0, 90, 70
1, 155280, Note_on_c, 0, 54, 47
1, 155370, Note_on_c, 0, 54, 0
1, 155370, Note_on_c, 0, 90, 0
1, 155400, Tempo, 524017
1, 155400, Note_on_c, 0, 73, 49
1, 155400, Note_on_c, 0, 70, 34
1, 155490, Note_on_c, 0, 70, 0
1, 155490, Note_on_c, 0, 73, 0
1, 155520, Tempo, 506329
1, 155520, Note_on_c, 0, 78, 50
1, 155520, Note_on_c, 0, 85, 60
1, 155520, Note_on_c, 0, 61, 32
1, 155520, Note_on_c, 0, 66, 44
1, 155610, Note_on_c, 0, 66, 0
1, 155610, Note_on_c, 0, 78, 0
1, 155610, Note_on_c, 0, 85, 0
1, 155610, Note_on_c, 0, 61, 0
1, 155640, Tempo, 530973
1, 155640, Note_on_c, 0, 73, 49
1, 155640, Note_on_c, 0, 70, 34
1, 155730, Note_on_c, 0, 70, 0
1, 155730, Note_on_c, 0, 73, 0
1, 155760, Tempo, 517241
1, 155760, Note_on_c, 0, 90, 70
1, 155760, Note_on_c, 0, 54, 44
1, 155850, Note_on_c, 0, 54, 0
1, 155850, Note_on_c, 0, 90, 0
1, 155880, Note_on_c, 0, 73, 49
1, 155880, Note_on_c, 0, 70, 34
1, 155970, Note_on_c, 0, 70, 0
1, 155970, Note_on_c, 0, 73, 0
1, 156000, Note_on_c, 0, 92, 76
1, 156000, Note_on_c, 0, 49, 45
1, 156090, Note_on_c, 0, 49, 0
1, 156090, Note_on_c, 0, 92, 0
1, 156120, Note_on_c, 0, 73, 49
1, 156120, Note_on_c, 0, 71, 33
1, 156210, Note_on_c, 0, 71, 0
1, 156210, Note_on_c, 0, 73, 0
1, 156240, Note_on_c, 0, 80, 54
1, 156240, Note_on_c, 0, 85, 64
1, 156240, Note_on_c, 0, 61, 34
1, 156240, Note_on_c, 0, 65, 45
1, 156330, Note_on_c, 0, 65, 0
1, 156330, Note_on_c, 0, 80, 0
1, 156330, Note_on_c, 0, 85, 0
1, 156330, Note_on_c, 0, 61, 0
1, 156360, Tempo, 530973
1, 156360, Note_on_c, 0, 73, 49
1, 156360, Note_on_c, 0, 71, 36
1, 156450, Note_on_c, 0, 71, 0
1, 156450, Note_on_c, 0, 73, 0
1, 156460, Tempo, 508475
1, 156480, Tempo, 502092
1, 156480, Note_on_c, 0, 92, 72
1, 156480, Note_on_c, 0, 49, 46
1, 156570, Note_on_c, 0, 49, 0
1, 156570, Note_on_c, 0, 92, 0
1, 156600, Note_on_c, 0, 73, 50
1, 156600, Note_on_c, 0, 71, 36
1, 156680, Tempo, 502092
1, 156690, Note_on_c, 0, 71, 0
1, 156690, Note_on_c, 0, 73, 0
1, 156700, Tempo, 508475
1, 156720, Note_on_c, 0, 94, 44
1, 156720, Note_on_c, 0, 90, 44
1, 156720, Note_on_c, 0, 85, 44
1, 156720, Note_on_c, 0, 54, 46
1, 156760, Tempo, 510638
1, 156777, Control_c, 0, 64, 127
1, 156810, Note_on_c, 0, 85, 0
1, 156810, Note_on_c, 0, 94, 0
1, 156810, Note_on_c, 0, 90, 0
1, 156820, Tempo, 512821
1, 156840, Note_on_c, 0, 95, 47
1, 156840, Note_on_c, 0, 92, 47
1, 156840, Note_on_c, 0, 85, 47
1, 156880, Tempo, 515021
1, 156920, Tempo, 517241
1, 156930, Note_on_c, 0, 85, 0
1, 156930, Note_on_c, 0, 92, 0
1, 156930, Note_on_c, 0, 95, 0
1, 156940, Tempo, 520743
1, 156960, Note_on_c, 0, 54, 0
1, 156960, Note_on_c, 0, 97, 52
1, 156960, Note_on_c, 0, 94, 52
1, 156960, Note_on_c, 0, 85, 52
1, 156960, Note_on_c, 0, 61, 45
1, 157050, Note_on_c, 0, 61, 0
1, 157050, Note_on_c, 0, 97, 0
1, 157050, Note_on_c, 0, 94, 0
1, 157050, Note_on_c, 0, 85, 0
1, 157080, Note_on_c, 0, 97, 52
1, 157080, Note_on_c, 0, 94, 52
1, 157080, Note_on_c, 0, 85, 52
1, 157080, Note_on_c, 0, 70, 45
1, 157170, Note_on_c, 0, 70, 0
1, 157170, Note_on_c, 0, 97, 0
1, 157170, Note_on_c, 0, 94, 0
1, 157170, Note_on_c, 0, 85, 0
1, 157200, Tempo, 503398
1, 157200, Note_on_c, 0, 95, 50
1, 157200, Note_on_c, 0, 92, 50
1, 157200, Note_on_c, 0, 85, 50
1, 157200, Note_on_c, 0, 78, 43
1, 157290, Note_on_c, 0, 78, 0
1, 157290, Note_on_c, 0, 95, 0
1, 157290, Note_on_c, 0, 92, 0
1, 157290, Note_on_c, 0, 85, 0
1, 157320, Note_on_c, 0, 94, 47
1, 157320, Note_on_c, 0, 90, 47
1, 157320, Note_on_c, 0, 85, 47
1, 157320, Note_on_c, 0, 82, 41
1, 157410, Note_on_c, 0, 82, 0
1, 157410, Note_on_c, 0, 94, 0
1, 157410, Note_on_c, 0, 90, 0
1, 157410, Note_on_c, 0, 85, 0
1, 157428, Control_c, 0, 64, 0
1, 157440, Tempo, 506329
1, 157440, Note_on_c, 0, 92, 46
1, 157440, Note_on_c, 0, 87, 46
1, 157440, Note_on_c, 0, 83, 46
1, 157440, Note_on_c, 0, 47, 40
1, 157503, Control_c, 0, 64, 127
1, 157520, Tempo, 508475
1, 157530, Note_on_c, 0, 83, 0
1, 157530, Note_on_c, 0, 92, 0
1, 157530, Note_on_c, 0, 87, 0
1, 157560, Note_on_c, 0, 94, 50
1, 157560, Note_on_c, 0, 87, 50
1, 157560, Note_on_c, 0, 85, 50
1, 157600, Tempo, 510638
1, 157650, Note_on_c, 0, 85, 0
1, 157650, Note_on_c, 0, 87, 0
1, 157650, Note_on_c, 0, 94, 0
1, 157680, Tempo, 512821
1, 157680, Note_on_c, 0, 47, 0
1, 157680, Note_on_c, 0, 87, 54
1, 157680, Note_on_c, 0, 95, 54
1, 157680, Note_on_c, 0, 59, 43
1, 157770, Note_on_c, 0, 59, 0
1, 157770, Note_on_c, 0, 95, 0
1, 157770, Note_on_c, 0, 87, 0
1, 157800, Note_on_c, 0, 95, 54
1, 157800, Note_on_c, 0, 87, 54
1, 157800, Note_on_c, 0, 68, 41
1, 157890, Note_on_c, 0, 68, 0
1, 157890, Note_on_c, 0, 87, 0
1, 157890, Note_on_c, 0, 95, 0
1, 157920, Tempo, 497925
1, 157920, Note_on_c, 0, 94, 47
1, 157920, Note_on_c, 0, 87, 47
1, 157920, Note_on_c, 0, 85, 47
1, 157920, Note_on_c, 0, 75, 41
1, 158010, Note_on_c, 0, 75, 0
1, 158010, Note_on_c, 0, 94, 0
1, 158010, Note_on_c, 0, 87, 0
1, 158010, Note_on_c, 0, 85, 0
1, 158040, Note_on_c, 0, 92, 45
1, 158040, Note_on_c, 0, 87, 45
1, 158040, Note_on_c, 0, 83, 45
1, 158040, Note_on_c, 0, 80, 40
1, 158130, Note_on_c, 0, 80, 0
1, 158130, Note_on_c, 0, 92, 0
1, 158130, Note_on_c, 0, 87, 0
1, 158130, Note_on_c, 0, 83, 0
1, 158160, Tempo, 500000
1, 158160, Note_on_c, 0, 90, 45
1, 158160, Note_on_c, 0, 85, 45
1, 158160, Note_on_c, 0, 82, 45
1, 158160, Note_on_c, 0, 49, 45
1, 158177, Control_c, 0, 64, 0
1, 158220, Tempo, 502092
1, 158235, Control_c, 0, 64, 127
1, 158250, Note_on_c, 0, 82, 0
1, 158250, Note_on_c, 0, 90, 0
1, 158250, Note_on_c, 0, 85, 0
1, 158260, Tempo, 504202
1, 158280, Note_on_c, 0, 83, 47
1, 158280, Note_on_c, 0, 85, 47
1, 158280, Note_on_c, 0, 92, 47
1, 158320, Tempo, 506329
1, 158360, Tempo, 508475
1, 158370, Note_on_c, 0, 92, 0
1, 158370, Note_on_c, 0, 85, 0
1, 158370, Note_on_c, 0, 83, 0
1, 158400, Tempo, 510638
1, 158400, Note_on_c, 0, 49, 0
1, 158400, Note_on_c, 0, 94, 52
1, 158400, Note_on_c, 0, 85, 52
1, 158400, Note_on_c, 0, 58, 43
1, 158490, Note_on_c, 0, 58, 0
1, 158490, Note_on_c, 0, 85, 0
1, 158490, Note_on_c, 0, 94, 0
1, 158520, Note_on_c, 0, 85, 52
1, 158520, Note_on_c, 0, 94, 52
1, 158520, Note_on_c, 0, 66, 41
1, 158610, Note_on_c, 0, 66, 0
1, 158610, Note_on_c, 0, 94, 0
1, 158610, Note_on_c, 0, 85, 0
1, 158640, Tempo, 497925
1, 158640, Note_on_c, 0, 85, 49
1, 158640, Note_on_c, 0, 83, 49
1, 158640, Note_on_c, 0, 92, 49
1, 158640, Note_on_c, 0, 73, 40
1, 158730, Note_on_c, 0, 73, 0
1, 158730, Note_on_c, 0, 85, 0
1, 158730, Note_on_c, 0, 83, 0
1, 158730, Note_on_c, 0, 92, 0
1, 158760, Note_on_c, 0, 90, 46
1, 158760, Note_on_c, 0, 85, 46
1, 158760, Note_on_c, 0, 82, 46
1, 158760, Note_on_c, 0, 78, 37
1, 158850, Note_on_c, 0, 78, 0
1, 158850, Note_on_c, 0, 90, 0
1, 158850, Note_on_c, 0, 85, 0
1, 158850, Note_on_c, 0, 82, 0
1, 158880, Tempo, 493827
1, 158880, Note_on_c, 0, 80, 45
1, 158880, Note_on_c, 0, 85, 45
1, 158880, Note_on_c, 0, 89, 45
1, 158880, Note_on_c, 0, 61, 47
1, 158900, Control_c, 0, 64, 0
1, 158920, Tempo, 495868
1, 158960, Tempo, 497925
1, 158966, Control_c, 0, 64, 127
1, 158970, Note_on_c, 0, 89, 0
1, 158970, Note_on_c, 0, 80, 0
1, 158970, Note_on_c, 0, 85, 0
1, 159000, Tempo, 500000
1, 159000, Note_on_c, 0, 90, 46
1, 159000, Note_on_c, 0, 85, 46
1, 159000, Note_on_c, 0, 82, 46
1, 159020, Tempo, 502092
1, 159060, Tempo, 504202
1, 159090, Note_on_c, 0, 82, 0
1, 159090, Note_on_c, 0, 85, 0
1, 159090, Note_on_c, 0, 90, 0
1, 159100, Tempo, 506329
1, 159120, Tempo, 508475
1, 159120, Note_on_c, 0, 61, 0
1, 159120, Note_on_c, 0, 83, 50
1, 159120, Note_on_c, 0, 85, 50
1, 159120, Note_on_c, 0, 92, 50
1, 159120, Note_on_c, 0, 77, 43
1, 159210, Note_on_c, 0, 77, 0
1, 159210, Note_on_c, 0, 83, 0
1, 159210, Note_on_c, 0, 85, 0
1, 159210, Note_on_c, 0, 92, 0
1, 159240, Note_on_c, 0, 83, 50
1, 159240, Note_on_c, 0, 85, 50
1, 159240, Note_on_c, 0, 92, 50
1, 159240, Note_on_c, 0, 68, 41
1, 159330, Note_on_c, 0, 68, 0
1, 159330, Note_on_c, 0, 83, 0
1, 159330, Note_on_c, 0, 85, 0
1, 159330, Note_on_c, 0, 92, 0
1, 159360, Tempo, 505561
1, 159360, Note_on_c, 0, 78, 47
1, 159360, Note_on_c, 0, 87, 47
1, 159360, Note_on_c, 0, 85, 47
1, 159360, Note_on_c, 0, 61, 40
1, 159372, Control_c, 0, 64, 0
1, 159446, Control_c, 0, 64, 127
1, 159450, Note_on_c, 0, 61, 0
1, 159450, Note_on_c, 0, 78, 0
1, 159450, Note_on_c, 0, 87, 0
1, 159450, Note_on_c, 0, 85, 0
1, 159480, Note_on_c, 0, 89, 45
1, 159480, Note_on_c, 0, 85, 45
1, 159480, Note_on_c, 0, 80, 45
1, 159480, Note_on_c, 0, 71, 39
1, 159570, Note_on_c, 0, 71, 0
1, 159570, Note_on_c, 0, 89, 0
1, 159570, Note_on_c, 0, 85, 0
1, 159570, Note_on_c, 0, 80, 0
1, 159600, Tempo, 536673
1, 159600, Note_on_c, 0, 90, 50
1, 159600, Note_on_c, 0, 85, 50
1, 159600, Note_on_c, 0, 78, 50
1, 159600, Control_c, 0, 64, 0
1, 159600, Note_on_c, 0, 66, 46
1, 159600, Note_on_c, 0, 70, 46
1, 159680, Control_c, 0, 64, 127
1, 159817, Control_c, 0, 64, 0
1, 159840, Note_on_c, 0, 70, 0
1, 159840, Note_on_c, 0, 78, 0
1, 159840, Note_on_c, 0, 90, 0
1, 159840, Note_on_c, 0, 85, 0
1, 159840, Note_on_c, 0, 66, 0
1, 159840, Note_on_c, 0, 42, 61
1, 159840, Note_on_c, 0, 54, 61
1, 159842, Tempo, 589391
1, 159862, Tempo, 586510
1, 159882, Tempo, 580833
1, 159902, Tempo, 578035
1, 159922, Tempo, 572519
1, 159930, Note_on_c, 0, 54, 0
1, 159930, Note_on_c, 0, 42, 0
1, 159942, Tempo, 569801
1, 159960, Note_on_c, 0, 42, 64
1, 159960, Note_on_c, 0, 54, 64
1, 159962, Tempo, 564440
1, 159982, Tempo, 561798
1, 160002, Tempo, 556586
1, 160022, Tempo, 554017
1, 160042, Tempo, 548948
1, 160050, Note_on_c, 0, 54, 0
1, 160050, Note_on_c, 0, 42, 0
1, 160062, Tempo, 546448
1, 160080, Note_on_c, 0, 43, 66
1, 160080, Note_on_c, 0, 55, 66
1, 160082, Tempo, 541516
1, 160102, Tempo, 539084
1, 160122, Tempo, 534283
1, 160142, Tempo, 531915
1, 160162, Tempo, 527241
1, 160170, Note_on_c, 0, 55, 0
1, 160170, Note_on_c, 0, 43, 0
1, 160200, Note_on_c, 0, 43, 70
1, 160200, Note_on_c, 0, 55, 70
1, 160202, Tempo, 522648
1, 160282, Tempo, 520382
1, 160290, Note_on_c, 0, 55, 0
1, 160290, Note_on_c, 0, 43, 0
1, 160320, Note_on_c, 0, 44, 71
1, 160320, Note_on_c, 0, 56, 71
1, 160382, Tempo, 518135
1, 160410, Note_on_c, 0, 56, 0
1, 160410, Note_on_c, 0, 44, 0
1, 160417, Control_c, 0, 64, 127
1, 160440, Note_on_c, 0, 44, 71
1, 160440, Note_on_c, 0, 56, 71
1, 160462, Tempo, 515907
1, 160530, Note_on_c, 0, 56, 0
1, 160530, Note_on_c, 0, 44, 0
1, 160542, Tempo, 513699
1, 160560, Tempo, 463320
1, 160560, Note_on_c, 0, 56, 64
1, 160560, Note_on_c, 0, 68, 64
1, 160650, Note_on_c, 0, 68, 0
1, 160650, Note_on_c, 0, 56, 0
1, 160680, Note_on_c, 0, 56, 64
1, 160680, Note_on_c, 0, 68, 64
1, 160770, Note_on_c, 0, 68, 0
1, 160770, Note_on_c, 0, 56, 0
1, 160800, Note_on_c, 0, 68, 64
1, 160800, Note_on_c, 0, 80, 64
1, 160890, Note_on_c, 0, 80, 0
1, 160890, Note_on_c, 0, 68, 0
1, 160920, Note_on_c, 0, 68, 64
1, 160920, Note_on_c, 0, 80, 64
1, 161010, Note_on_c, 0, 80, 0
1, 161010, Note_on_c, 0, 68, 0
1, 161040, Tempo, 558140
1, 161040, Note_on_c, 0, 80, 71
1, 161040, Note_on_c, 0, 92, 71
1, 161280, Tempo, 493827
1, 161280, Note_on_c, 0, 92, 0
1, 161280, Note_on_c, 0, 80, 0
1, 161280, Note_on_c, 0, 90, 45
1, 161280, Note_on_c, 0, 102, 45
1, 161280, Control_c, 0, 64, 0
1, 161280, Note_on_c, 0, 75, 54
1, 161280, Note_on_c, 0, 80, 54
1, 161300, Tempo, 475022
1, 161370, Note_on_c, 0, 80, 0
1, 161370, Note_on_c, 0, 90, 0
1, 161370, Note_on_c, 0, 102, 0
1, 161400, Note_on_c, 0, 102, 45
1, 161400, Note_on_c, 0, 90, 45
1, 161400, Note_on_c, 0, 80, 43
1, 161490, Note_on_c, 0, 80, 0
1, 161490, Note_on_c, 0, 90, 0
1, 161490, Note_on_c, 0, 102, 0
1, 161520, Note_on_c, 0, 75, 0
1, 161520, Note_on_c, 0, 88, 45
1, 161520, Note_on_c, 0, 100, 45
1, 161520, Note_on_c, 0, 73, 43
1, 161520, Note_on_c, 0, 80, 43
1, 161610, Note_on_c, 0, 80, 0
1, 161610, Note_on_c, 0, 88, 0
1, 161610, Note_on_c, 0, 100, 0
1, 161640, Note_on_c, 0, 100, 45
1, 161640, Note_on_c, 0, 88, 45
1, 161640, Note_on_c, 0, 80, 43
1, 161730, Note_on_c, 0, 80, 0
1, 161730, Note_on_c, 0, 88, 0
1, 161730, Note_on_c, 0, 100, 0
1, 161760, Tempo, 480962
1, 161760, Note_on_c, 0, 73, 0
1, 161760, Note_on_c, 0, 99, 45
1, 161760, Note_on_c, 0, 87, 45
1, 161760, Note_on_c, 0, 72, 43
1, 161760, Note_on_c, 0, 80, 43
1, 161850, Note_on_c, 0, 80, 0
1, 161850, Note_on_c, 0, 99, 0
1, 161850, Note_on_c, 0, 87, 0
1, 161880, Note_on_c, 0, 87, 45
1, 161880, Note_on_c, 0, 99, 45
1, 161880, Note_on_c, 0, 80, 43
1, 161970, Note_on_c, 0, 80, 0
1, 161970, Note_on_c, 0, 99, 0
1, 161970, Note_on_c, 0, 87, 0
1, 162000, Tempo, 466926
1, 162000, Note_on_c, 0, 72, 0
1, 162000, Note_on_c, 0, 85, 45
1, 162000, Note_on_c, 0, 97, 45
1, 162000, Note_on_c, 0, 70, 43
1, 162000, Note_on_c, 0, 80, 43
1, 162090, Note_on_c, 0, 80, 0
1, 162090, Note_on_c, 0, 85, 0
1, 162090, Note_on_c, 0, 97, 0
1, 162120, Note_on_c, 0, 97, 45
1, 162120, Note_on_c, 0, 85, 45
1, 162120, Note_on_c, 0, 80, 43
1, 162210, Note_on_c, 0, 80, 0
1, 162210, Note_on_c, 0, 85, 0
1, 162210, Note_on_c, 0, 97, 0
1, 162240, Tempo, 458015
1, 162240, Note_on_c, 0, 70, 0
1, 162240, Note_on_c, 0, 99, 45
1, 162240, Note_on_c, 0, 87, 45
1, 162240, Note_on_c, 0, 72, 43
1, 162240, Note_on_c, 0, 80, 43
1, 162330, Note_on_c, 0, 80, 0
1, 162330, Note_on_c, 0, 99, 0
1, 162330, Note_on_c, 0, 87, 0
1, 162360, Note_on_c, 0, 99, 45
1, 162360, Note_on_c, 0, 87, 45
1, 162360, Note_on_c, 0, 80, 43
1, 162450, Note_on_c, 0, 80, 0
1, 162450, Note_on_c, 0, 87, 0
1, 162450, Note_on_c, 0, 99, 0
1, 162480, Tempo, 551471
1, 162480, Note_on_c, 0, 72, 0
1, 162480, Note_on_c, 0, 100, 47
1, 162480, Note_on_c, 0, 88, 47
1, 162480, Note_on_c, 0, 73, 46
1, 162480, Note_on_c, 0, 80, 46
1, 162720, Tempo, 500000
1, 162720, Note_on_c, 0, 80, 0
1, 162720, Note_on_c, 0, 100, 0
1, 162720, Note_on_c, 0, 88, 0
1, 162720, Note_on_c, 0, 73, 0
1, 162720, Note_on_c, 0, 44, 61
1, 162720, Note_on_c, 0, 56, 61
1, 162742, Tempo, 569801
1, 162762, Tempo, 567108
1, 162782, Tempo, 564440
1, 162802, Tempo, 561798
1, 162810, Note_on_c, 0, 56, 0
1, 162810, Note_on_c, 0, 44, 0
1, 162822, Tempo, 559180
1, 162840, Note_on_c, 0, 44, 64
1, 162840, Note_on_c, 0, 56, 64
1, 162842, Tempo, 556586
1, 162862, Tempo, 554017
1, 162882, Tempo, 551471
1, 162902, Tempo, 548948
1, 162922, Tempo, 546448
1, 162930, Note_on_c, 0, 56, 0
1, 162930, Note_on_c, 0, 44, 0
1, 162942, Tempo, 543971
1, 162960, Note_on_c, 0, 43, 66
1, 162960, Note_on_c, 0, 55, 66
1, 162962, Tempo, 541516
1, 162982, Tempo, 539084
1, 163002, Tempo, 536673
1, 163022, Tempo, 534283
1, 163042, Tempo, 531915
1, 163050, Note_on_c, 0, 55, 0
1, 163050, Note_on_c, 0, 43, 0
1, 163062, Tempo, 529568
1, 163080, Note_on_c, 0, 43, 70
1, 163080, Note_on_c, 0, 55, 70
1, 163082, Tempo, 527241
1, 163102, Tempo, 524934
1, 163122, Tempo, 522648
1, 163142, Tempo, 520382
1, 163162, Tempo, 515907
1, 163170, Note_on_c, 0, 55, 0
1, 163170, Note_on_c, 0, 43, 0
1, 163200, Note_on_c, 0, 42, 71
1, 163200, Note_on_c, 0, 54, 71
1, 163263, Control_c, 0, 64, 127
1, 163290, Note_on_c, 0, 54, 0
1, 163290, Note_on_c, 0, 42, 0
1, 163320, Note_on_c, 0, 42, 71
1, 163320, Note_on_c, 0, 54, 71
1, 163410, Note_on_c, 0, 54, 0
1, 163410, Note_on_c, 0, 42, 0
1, 163440, Tempo, 463320
1, 163440, Note_on_c, 0, 54, 64
1, 163440, Note_on_c, 0, 66, 64
1, 163530, Note_on_c, 0, 66, 0
1, 163530, Note_on_c, 0, 54, 0
1, 163560, Note_on_c, 0, 54, 64
1, 163560, Note_on_c, 0, 66, 64
1, 163650, Note_on_c, 0, 66, 0
1, 163650, Note_on_c, 0, 54, 0
1, 163680, Note_on_c, 0, 66, 64
1, 163680, Note_on_c, 0, 78, 64
1, 163770, Note_on_c, 0, 78, 0
1, 163770, Note_on_c, 0, 66, 0
1, 163800, Note_on_c, 0, 66, 64
1, 163800, Note_on_c, 0, 78, 64
1, 163890, Note_on_c, 0, 78, 0
1, 163890, Note_on_c, 0, 66, 0
1, 163920, Tempo, 552995
1, 163920, Note_on_c, 0, 78, 71
1, 163920, Note_on_c, 0, 90, 71
1, 164160, Tempo, 474308
1, 164160, Note_on_c, 0, 90, 0
1, 164160, Note_on_c, 0, 78, 0
1, 164160, Note_on_c, 0, 88, 45
1, 164160, Note_on_c, 0, 100, 45
1, 164160, Note_on_c, 0, 73, 54
1, 164160, Note_on_c, 0, 78, 54
1, 164177, Control_c, 0, 64, 0
1, 164250, Note_on_c, 0, 78, 0
1, 164250, Note_on_c, 0, 88, 0
1, 164250, Note_on_c, 0, 100, 0
1, 164280, Note_on_c, 0, 100, 45
1, 164280, Note_on_c, 0, 88, 45
1, 164280, Note_on_c, 0, 78, 43
1, 164370, Note_on_c, 0, 78, 0
1, 164370, Note_on_c, 0, 88, 0
1, 164370, Note_on_c, 0, 100, 0
1, 164400, Note_on_c, 0, 73, 0
1, 164400, Note_on_c, 0, 87, 45
1, 164400, Note_on_c, 0, 99, 45
1, 164400, Note_on_c, 0, 71, 43
1, 164400, Note_on_c, 0, 78, 43
1, 164490, Note_on_c, 0, 78, 0
1, 164490, Note_on_c, 0, 87, 0
1, 164490, Note_on_c, 0, 99, 0
1, 164520, Note_on_c, 0, 99, 45
1, 164520, Note_on_c, 0, 87, 45
1, 164520, Note_on_c, 0, 78, 43
1, 164610, Note_on_c, 0, 78, 0
1, 164610, Note_on_c, 0, 87, 0
1, 164610, Note_on_c, 0, 99, 0
1, 164640, Tempo, 483871
1, 164640, Note_on_c, 0, 71, 0
1, 164640, Note_on_c, 0, 97, 45
1, 164640, Note_on_c, 0, 85, 45
1, 164640, Note_on_c, 0, 70, 43
1, 164640, Note_on_c, 0, 78, 43
1, 164730, Note_on_c, 0, 78, 0
1, 164730, Note_on_c, 0, 97, 0
1, 164730, Note_on_c, 0, 85, 0
1, 164760, Note_on_c, 0, 85, 45
1, 164760, Note_on_c, 0, 97, 45
1, 164760, Note_on_c, 0, 78, 43
1, 164850, Note_on_c, 0, 78, 0
1, 164850, Note_on_c, 0, 97, 0
1, 164850, Note_on_c, 0, 85, 0
1, 164880, Tempo, 468750
1, 164880, Note_on_c, 0, 70, 0
1, 164880, Note_on_c, 0, 83, 45
1, 164880, Note_on_c, 0, 95, 45
1, 164880, Note_on_c, 0, 68, 43
1, 164880, Note_on_c, 0, 78, 43
1, 164970, Note_on_c, 0, 78, 0
1, 164970, Note_on_c, 0, 83, 0
1, 164970, Note_on_c, 0, 95, 0
1, 165000, Note_on_c, 0, 95, 45
1, 165000, Note_on_c, 0, 83, 45
1, 165000, Note_on_c, 0, 78, 43
1, 165090, Note_on_c, 0, 78, 0
1, 165090, Note_on_c, 0, 83, 0
1, 165090, Note_on_c, 0, 95, 0
1, 165120, Tempo, 458015
1, 165120, Note_on_c, 0, 68, 0
1, 165120, Note_on_c, 0, 97, 45
1, 165120, Note_on_c, 0, 85, 45
1, 165120, Note_on_c, 0, 70, 43
1, 165120, Note_on_c, 0, 78, 43
1, 165210, Note_on_c, 0, 78, 0
1, 165210, Note_on_c, 0, 97, 0
1, 165210, Note_on_c, 0, 85, 0
1, 165240, Note_on_c, 0, 97, 45
1, 165240, Note_on_c, 0, 85, 45
1, 165240, Note_on_c, 0, 78, 43
1, 165330, Note_on_c, 0, 78, 0
1, 165330, Note_on_c, 0, 85, 0
1, 165330, Note_on_c, 0, 97, 0
1, 165360, Tempo, 489796
1, 165360, Note_on_c, 0, 70, 0
1, 165360, Note_on_c, 0, 99, 47
1, 165360, Note_on_c, 0, 87, 47
1, 165360, Note_on_c, 0, 71, 46
1, 165360, Note_on_c, 0, 78, 46
1, 165600, Tempo, 510638
1, 165600, Note_on_c, 0, 78, 0
1, 165600, Note_on_c, 0, 99, 0
1, 165600, Note_on_c, 0, 87, 0
1, 165600, Note_on_c, 0, 71, 0
1, 165600, Note_on_c, 0, 41, 63
1, 165600, Note_on_c, 0, 53, 63
1, 165690, Note_on_c, 0, 53, 0
1, 165690, Note_on_c, 0, 41, 0
1, 165720, Tempo, 497925
1, 165720, Note_on_c, 0, 41, 65
1, 165720, Note_on_c, 0, 53, 65
1, 165810, Note_on_c, 0, 53, 0
1, 165810, Note_on_c, 0, 41, 0
1, 165840, Tempo, 547945
1, 165840, Note_on_c, 0, 40, 67
1, 165840, Note_on_c, 0, 52, 67
1, 165930, Note_on_c, 0, 52, 0
1, 165930, Note_on_c, 0, 40, 0
1, 165960, Tempo, 506329
1, 165960, Note_on_c, 0, 40, 70
1, 165960, Note_on_c, 0, 52, 70
1, 166050, Note_on_c, 0, 52, 0
1, 166050, Note_on_c, 0, 40, 0
1, 166080, Tempo, 524017
1, 166080, Note_on_c, 0, 39, 71
1, 166080, Note_on_c, 0, 51, 71
1, 166132, Control_c, 0, 64, 127
1, 166170, Note_on_c, 0, 51, 0
1, 166170, Note_on_c, 0, 39, 0
1, 166200, Tempo, 497925
1, 166200, Note_on_c, 0, 39, 71
1, 166200, Note_on_c, 0, 51, 71
1, 166290, Note_on_c, 0, 51, 0
1, 166290, Note_on_c, 0, 39, 0
1, 166320, Tempo, 463320
1, 166320, Note_on_c, 0, 51, 64
1, 166320, Note_on_c, 0, 63, 64
1, 166410, Note_on_c, 0, 63, 0
1, 166410, Note_on_c, 0, 51, 0
1, 166440, Note_on_c, 0, 51, 64
1, 166440, Note_on_c, 0, 63, 64
1, 166530, Note_on_c, 0, 63, 0
1, 166530, Note_on_c, 0, 51, 0
1, 166560, Note_on_c, 0, 63, 64
1, 166560, Note_on_c, 0, 75, 64
1, 166650, Note_on_c, 0, 75, 0
1, 166650, Note_on_c, 0, 63, 0
1, 166680, Note_on_c, 0, 63, 64
1, 166680, Note_on_c, 0, 75, 64
1, 166770, Note_on_c, 0, 75, 0
1, 166770, Note_on_c, 0, 63, 0
1, 166800, Tempo, 512821
1, 166800, Note_on_c, 0, 75, 71
1, 166800, Note_on_c, 0, 87, 71
1, 167040, Tempo, 603015
1, 167040, Note_on_c, 0, 87, 0
1, 167040, Note_on_c, 0, 75, 0
1, 167040, Note_on_c, 0, 87, 59
1, 167040, Note_on_c, 0, 75, 59
1, 167040, Control_c, 0, 64, 0
1, 167040, Note_on_c, 0, 63, 49
1, 167040, Note_on_c, 0, 67, 49
1, 167130, Note_on_c, 0, 75, 0
1, 167130, Note_on_c, 0, 87, 0
1, 167160, Tempo, 566038
1, 167160, Note_on_c, 0, 63, 0
1, 167160, Note_on_c, 0, 67, 0
1, 167160, Note_on_c, 0, 87, 60
1, 167160, Note_on_c, 0, 75, 60
1, 167160, Note_on_c, 0, 63, 50
1, 167160, Note_on_c, 0, 67, 50
1, 167250, Note_on_c, 0, 75, 0
1, 167250, Note_on_c, 0, 87, 0
1, 167280, Tempo, 574163
1, 167280, Note_on_c, 0, 63, 0
1, 167280, Note_on_c, 0, 67, 0
1, 167280, Note_on_c, 0, 87, 62
1, 167280, Note_on_c, 0, 75, 62
1, 167280, Note_on_c, 0, 65, 52
1, 167280, Note_on_c, 0, 68, 52
1, 167370, Note_on_c, 0, 75, 0
1, 167370, Note_on_c, 0, 87, 0
1, 167400, Tempo, 491803
1, 167400, Note_on_c, 0, 65, 0
1, 167400, Note_on_c, 0, 68, 0
1, 167400, Note_on_c, 0, 87, 64
1, 167400, Note_on_c, 0, 75, 64
1, 167400, Note_on_c, 0, 65, 54
1, 167400, Note_on_c, 0, 68, 54
1, 167490, Note_on_c, 0, 75, 0
1, 167490, Note_on_c, 0, 87, 0
1, 167500, Tempo, 502092
1, 167520, Tempo, 504202
1, 167520, Note_on_c, 0, 65, 0
1, 167520, Note_on_c, 0, 68, 0
1, 167520, Note_on_c, 0, 76, 64
1, 167520, Note_on_c, 0, 88, 64
1, 167520, Note_on_c, 0, 66, 55
1, 167520, Note_on_c, 0, 69, 55
1, 167560, Tempo, 502092
1, 167600, Tempo, 500000
1, 167640, Tempo, 497925
1, 167640, Note_on_c, 0, 69, 0
1, 167640, Note_on_c, 0, 76, 0
1, 167640, Note_on_c, 0, 88, 0
1, 167640, Note_on_c, 0, 66, 0
1, 167640, Note_on_c, 0, 75, 64
1, 167640, Note_on_c, 0, 87, 64
1, 167640, Note_on_c, 0, 66, 55
1, 167640, Note_on_c, 0, 69, 55
1, 167680, Tempo, 495868
1, 167720, Tempo, 493827
1, 167760, Tempo, 491803
1, 167760, Note_on_c, 0, 69, 0
1, 167760, Note_on_c, 0, 75, 0
1, 167760, Note_on_c, 0, 87, 0
1, 167760, Note_on_c, 0, 66, 0
1, 167760, Note_on_c, 0, 73, 63
1, 167760, Note_on_c, 0, 85, 63
1, 167760, Note_on_c, 0, 64, 54
1, 167760, Note_on_c, 0, 67, 54
1, 167800, Tempo, 489796
1, 167840, Tempo, 487805
1, 167880, Tempo, 485830
1, 167880, Note_on_c, 0, 67, 0
1, 167880, Note_on_c, 0, 73, 0
1, 167880, Note_on_c, 0, 85, 0
1, 167880, Note_on_c, 0, 64, 0
1, 167880, Note_on_c, 0, 71, 62
1, 167880, Note_on_c, 0, 83, 62
1, 167880, Note_on_c, 0, 64, 54
1, 167880, Note_on_c, 0, 67, 54
1, 167900, Tempo, 483871
1, 167940, Tempo, 481928
1, 167980, Tempo, 480000
1, 168000, Note_on_c, 0, 67, 0
1, 168000, Note_on_c, 0, 71, 0
1, 168000, Note_on_c, 0, 83, 0
1, 168000, Note_on_c, 0, 64, 0
1, 168000, Note_on_c, 0, 70, 61
1, 168000, Note_on_c, 0, 82, 61
1, 168000, Note_on_c, 0, 62, 52
1, 168000, Note_on_c, 0, 65, 52
1, 168020, Tempo, 478088
1, 168060, Tempo, 476190
1, 168100, Tempo, 474308
1, 168120, Note_on_c, 0, 65, 0
1, 168120, Note_on_c, 0, 70, 0
1, 168120, Note_on_c, 0, 82, 0
1, 168120, Note_on_c, 0, 62, 0
1, 168120, Note_on_c, 0, 68, 61
1, 168120, Note_on_c, 0, 80, 61
1, 168120, Note_on_c, 0, 62, 52
1, 168120, Note_on_c, 0, 65, 52
1, 168140, Tempo, 472441
1, 168180, Tempo, 470588
1, 168220, Tempo, 468750
1, 168240, Tempo, 466926
1, 168240, Note_on_c, 0, 65, 0
1, 168240, Note_on_c, 0, 68, 0
1, 168240, Note_on_c, 0, 80, 0
1, 168240, Note_on_c, 0, 62, 0
1, 168240, Note_on_c, 0, 67, 60
1, 168240, Note_on_c, 0, 79, 60
1, 168240, Note_on_c, 0, 63, 51
1, 168480, Tempo, 638298
1, 168480, Note_on_c, 0, 63, 0
1, 168480, Note_on_c, 0, 79, 0
1, 168480, Note_on_c, 0, 67, 0
1, 168480, Note_on_c, 0, 34, 70
1, 168480, Note_on_c, 0, 46, 70
1, 168570, Note_on_c, 0, 46, 0
1, 168570, Note_on_c, 0, 34, 0
1, 168600, Tempo, 588235
1, 168600, Note_on_c, 0, 34, 70
1, 168600, Note_on_c, 0, 46, 70
1, 168690, Note_on_c, 0, 46, 0
1, 168690, Note_on_c, 0, 34, 0
1, 168720, Tempo, 547945
1, 168720, Note_on_c, 0, 38, 71
1, 168720, Note_on_c, 0, 50, 71
1, 168810, Note_on_c, 0, 50, 0
1, 168810, Note_on_c, 0, 38, 0
1, 168840, Tempo, 524017
1, 168840, Note_on_c, 0, 38, 73
1, 168840, Note_on_c, 0, 50, 73
1, 168930, Note_on_c, 0, 50, 0
1, 168930, Note_on_c, 0, 38, 0
1, 168960, Tempo, 530973
1, 168960, Note_on_c, 0, 39, 77
1, 168960, Note_on_c, 0, 51, 77
1, 169017, Control_c, 0, 64, 127
1, 169050, Note_on_c, 0, 51, 0
1, 169050, Note_on_c, 0, 39, 0
1, 169080, Tempo, 510638
1, 169080, Note_on_c, 0, 39, 77
1, 169080, Note_on_c, 0, 51, 77
1, 169170, Note_on_c, 0, 51, 0
1, 169170, Note_on_c, 0, 39, 0
1, 169200, Tempo, 463320
1, 169200, Note_on_c, 0, 51, 69
1, 169200, Note_on_c, 0, 63, 69
1, 169290, Note_on_c, 0, 63, 0
1, 169290, Note_on_c, 0, 51, 0
1, 169320, Note_on_c, 0, 51, 69
1, 169320, Note_on_c, 0, 63, 69
1, 169410, Note_on_c, 0, 63, 0
1, 169410, Note_on_c, 0, 51, 0
1, 169440, Note_on_c, 0, 63, 71
1, 169440, Note_on_c, 0, 75, 71
1, 169530, Note_on_c, 0, 75, 0
1, 169530, Note_on_c, 0, 63, 0
1, 169560, Note_on_c, 0, 63, 71
1, 169560, Note_on_c, 0, 75, 71
1, 169650, Note_on_c, 0, 75, 0
1, 169650, Note_on_c, 0, 63, 0
1, 169680, Tempo, 512821
1, 169680, Note_on_c, 0, 75, 76
1, 169680, Note_on_c, 0, 87, 76
1, 169920, Tempo, 648649
1, 169920, Note_on_c, 0, 87, 0
1, 169920, Note_on_c, 0, 75, 0
1, 169920, Note_on_c, 0, 99, 69
1, 169920, Note_on_c, 0, 87, 69
1, 169920, Note_on_c, 0, 67, 57
1, 169920, Note_on_c, 0, 75, 57
1, 169932, Control_c, 0, 64, 0
1, 170010, Note_on_c, 0, 75, 0
1, 170010, Note_on_c, 0, 99, 0
1, 170010, Note_on_c, 0, 87, 0
1, 170010, Note_on_c, 0, 67, 0
1, 170040, Tempo, 618557
1, 170040, Note_on_c, 0, 99, 71
1, 170040, Note_on_c, 0, 87, 71
1, 170040, Note_on_c, 0, 67, 59
1, 170040, Note_on_c, 0, 75, 59
1, 170130, Note_on_c, 0, 75, 0
1, 170130, Note_on_c, 0, 99, 0
1, 170130, Note_on_c, 0, 87, 0
1, 170130, Note_on_c, 0, 67, 0
1, 170160, Tempo, 666667
1, 170160, Note_on_c, 0, 99, 72
1, 170160, Note_on_c, 0, 87, 72
1, 170160, Note_on_c, 0, 68, 61
1, 170160, Note_on_c, 0, 77, 61
1, 170250, Note_on_c, 0, 77, 0
1, 170250, Note_on_c, 0, 99, 0
1, 170250, Note_on_c, 0, 87, 0
1, 170250, Note_on_c, 0, 68, 0
1, 170260, Tempo, 558140
1, 170280, Note_on_c, 0, 87, 73
1, 170280, Note_on_c, 0, 99, 73
1, 170280, Note_on_c, 0, 68, 62
1, 170280, Note_on_c, 0, 77, 62
1, 170370, Note_on_c, 0, 77, 0
1, 170370, Note_on_c, 0, 87, 0
1, 170370, Note_on_c, 0, 99, 0
1, 170370, Note_on_c, 0, 68, 0
1, 170400, Tempo, 524017
1, 170400, Note_on_c, 0, 88, 73
1, 170400, Note_on_c, 0, 100, 73
1, 170400, Note_on_c, 0, 69, 63
1, 170400, Note_on_c, 0, 78, 63
1, 170490, Note_on_c, 0, 78, 0
1, 170490, Note_on_c, 0, 88, 0
1, 170490, Note_on_c, 0, 100, 0
1, 170490, Note_on_c, 0, 69, 0
1, 170520, Tempo, 504202
1, 170520, Note_on_c, 0, 87, 73
1, 170520, Note_on_c, 0, 99, 73
1, 170520, Note_on_c, 0, 69, 64
1, 170520, Note_on_c, 0, 78, 64
1, 170600, Tempo, 504202
1, 170610, Note_on_c, 0, 78, 0
1, 170610, Note_on_c, 0, 87, 0
1, 170610, Note_on_c, 0, 99, 0
1, 170610, Note_on_c, 0, 69, 0
1, 170620, Tempo, 508475
1, 170640, Note_on_c, 0, 85, 73
1, 170640, Note_on_c, 0, 97, 73
1, 170640, Note_on_c, 0, 70, 64
1, 170640, Note_on_c, 0, 79, 64
1, 170680, Tempo, 506329
1, 170720, Tempo, 504202
1, 170730, Note_on_c, 0, 79, 0
1, 170730, Note_on_c, 0, 85, 0
1, 170730, Note_on_c, 0, 97, 0
1, 170730, Note_on_c, 0, 70, 0
1, 170760, Note_on_c, 0, 95, 72
1, 170760, Note_on_c, 0, 83, 72
1, 170760, Note_on_c, 0, 70, 63
1, 170760, Note_on_c, 0, 79, 63
1, 170780, Tempo, 502092
1, 170820, Tempo, 500000
1, 170850, Note_on_c, 0, 79, 0
1, 170850, Note_on_c, 0, 95, 0
1, 170850, Note_on_c, 0, 83, 0
1, 170850, Note_on_c, 0, 70, 0
1, 170880, Tempo, 497925
1, 170880, Note_on_c, 0, 82, 72
1, 170880, Note_on_c, 0, 94, 72
1, 170880, Note_on_c, 0, 74, 63
1, 170880, Note_on_c, 0, 77, 63
1, 170920, Tempo, 495868
1, 170970, Note_on_c, 0, 77, 0
1, 170970, Note_on_c, 0, 82, 0
1, 170970, Note_on_c, 0, 94, 0
1, 170970, Note_on_c, 0, 74, 0
1, 170980, Tempo, 493827
1, 171000, Note_on_c, 0, 92, 72
1, 171000, Note_on_c, 0, 80, 72
1, 171000, Note_on_c, 0, 74, 62
1, 171000, Note_on_c, 0, 77, 62
1, 171020, Tempo, 491803
1, 171080, Tempo, 489796
1, 171090, Note_on_c, 0, 77, 0
1, 171090, Note_on_c, 0, 92, 0
1, 171090, Note_on_c, 0, 80, 0
1, 171090, Note_on_c, 0, 74, 0
1, 171120, Tempo, 487805
1, 171120, Note_on_c, 0, 91, 72
1, 171120, Note_on_c, 0, 79, 72
1, 171120, Note_on_c, 0, 70, 62
1, 171120, Note_on_c, 0, 75, 62
1, 171140, Tempo, 481928
1, 171210, Note_on_c, 0, 75, 0
1, 171210, Note_on_c, 0, 91, 0
1, 171210, Note_on_c, 0, 79, 0
1, 171210, Note_on_c, 0, 70, 0
1, 171240, Tempo, 480000
1, 171240, Note_on_c, 0, 78, 72
1, 171240, Note_on_c, 0, 90, 72
1, 171240, Note_on_c, 0, 70, 62
1, 171240, Note_on_c, 0, 75, 62
1, 171320, Tempo, 478088
1, 171330, Note_on_c, 0, 75, 0
1, 171330, Note_on_c, 0, 78, 0
1, 171330, Note_on_c, 0, 90, 0
1, 171330, Note_on_c, 0, 70, 0
1, 171360, Tempo, 468750
1, 171360, Note_on_c, 0, 89, 72
1, 171360, Note_on_c, 0, 77, 72
1, 171360, Note_on_c, 0, 68, 61
1, 171360, Note_on_c, 0, 71, 61
1, 171450, Note_on_c, 0, 71, 0
1, 171450, Note_on_c, 0, 89, 0
1, 171450, Note_on_c, 0, 77, 0
1, 171450, Note_on_c, 0, 68, 0
1, 171480, Tempo, 459770
1, 171480, Note_on_c, 0, 76, 71
1, 171480, Note_on_c, 0, 88, 71
1, 171480, Note_on_c, 0, 68, 61
1, 171480, Note_on_c, 0, 71, 61
1, 171570, Note_on_c, 0, 71, 0
1, 171570, Note_on_c, 0, 76, 0
1, 171570, Note_on_c, 0, 88, 0
1, 171570, Note_on_c, 0, 68, 0
1, 171600, Tempo, 480000
1, 171600, Note_on_c, 0, 86, 71
1, 171600, Note_on_c, 0, 74, 71
1, 171600, Note_on_c, 0, 66, 61
1, 171600, Note_on_c, 0, 69, 61
1, 171690, Note_on_c, 0, 69, 0
1, 171690, Note_on_c, 0, 86, 0
1, 171690, Note_on_c, 0, 74, 0
1, 171690, Note_on_c, 0, 66, 0
1, 171720, Tempo, 465116
1, 171720, Note_on_c, 0, 75, 72
1, 171720, Note_on_c, 0, 87, 72
1, 171720, Note_on_c, 0, 66, 62
1, 171720, Note_on_c, 0, 69, 62
1, 171810, Note_on_c, 0, 69, 0
1, 171810, Note_on_c, 0, 75, 0
1, 171810, Note_on_c, 0, 87, 0
1, 171810, Note_on_c, 0, 66, 0
1, 171820, Tempo, 474308
1, 171840, Note_on_c, 0, 88, 75
1, 171840, Note_on_c, 0, 76, 75
1, 171840, Note_on_c, 0, 67, 62
1, 171840, Note_on_c, 0, 70, 62
1, 171930, Note_on_c, 0, 70, 0
1, 171930, Note_on_c, 0, 88, 0
1, 171930, Note_on_c, 0, 76, 0
1, 171930, Note_on_c, 0, 67, 0
1, 171960, Note_on_c, 0, 75, 75
1, 171960, Note_on_c, 0, 87, 75
1, 171960, Note_on_c, 0, 67, 62
1, 171960, Note_on_c, 0, 70, 62
1, 172050, Note_on_c, 0, 70, 0
1, 172050, Note_on_c, 0, 75, 0
1, 172050, Note_on_c, 0, 87, 0
1, 172050, Note_on_c, 0, 67, 0
1, 172060, Tempo, 472441
1, 172080, Note_on_c, 0, 85, 73
1, 172080, Note_on_c, 0, 73, 73
1, 172080, Note_on_c, 0, 64, 62
1, 172080, Note_on_c, 0, 67, 62
1, 172170, Note_on_c, 0, 67, 0
1, 172170, Note_on_c, 0, 85, 0
1, 172170, Note_on_c, 0, 73, 0
1, 172170, Note_on_c, 0, 64, 0
1, 172200, Note_on_c, 0, 71, 72
1, 172200, Note_on_c, 0, 83, 72
1, 172200, Note_on_c, 0, 64, 61
1, 172200, Note_on_c, 0, 67, 61
1, 172290, Note_on_c, 0, 67, 0
1, 172290, Note_on_c, 0, 71, 0
1, 172290, Note_on_c, 0, 83, 0
1, 172290, Note_on_c, 0, 64, 0
1, 172300, Tempo, 470588
1, 172320, Note_on_c, 0, 82, 72
1, 172320, Note_on_c, 0, 70, 72
1, 172320, Note_on_c, 0, 62, 61
1, 172320, Note_on_c, 0, 65, 61
1, 172410, Note_on_c, 0, 65, 0
1, 172410, Note_on_c, 0, 82, 0
1, 172410, Note_on_c, 0, 70, 0
1, 172410, Note_on_c, 0, 62, 0
1, 172440, Note_on_c, 0, 68, 72
1, 172440, Note_on_c, 0, 80, 72
1, 172440, Note_on_c, 0, 62, 60
1, 172440, Note_on_c, 0, 65, 60
1, 172530, Note_on_c, 0, 65, 0
1, 172530, Note_on_c, 0, 68, 0
1, 172530, Note_on_c, 0, 80, 0
1, 172530, Note_on_c, 0, 62, 0
1, 172540, Tempo, 468750
1, 172560, Note_on_c, 0, 67, 72
1, 172560, Note_on_c, 0, 79, 72
1, 172560, Note_on_c, 0, 58, 60
1, 172560, Note_on_c, 0, 63, 60
1, 172600, Tempo, 466926
1, 172640, Tempo, 465116
1, 172650, Note_on_c, 0, 63, 0
1, 172650, Note_on_c, 0, 67, 0
1, 172650, Note_on_c, 0, 79, 0
1, 172650, Note_on_c, 0, 58, 0
1, 172680, Tempo, 463320
1, 172680, Note_on_c, 0, 78, 71
1, 172680, Note_on_c, 0, 66, 71
1, 172680, Note_on_c, 0, 58, 59
1, 172680, Note_on_c, 0, 63, 59
1, 172720, Tempo, 461538
1, 172760, Tempo, 459770
1, 172770, Note_on_c, 0, 63, 0
1, 172770, Note_on_c, 0, 78, 0
1, 172770, Note_on_c, 0, 66, 0
1, 172770, Note_on_c, 0, 58, 0
1, 172800, Tempo, 456274
1, 172800, Note_on_c, 0, 65, 70
1, 172800, Note_on_c, 0, 77, 70
1, 172800, Note_on_c, 0, 56, 59
1, 172800, Note_on_c, 0, 59, 59
1, 172890, Note_on_c, 0, 59, 0
1, 172890, Note_on_c, 0, 65, 0
1, 172890, Note_on_c, 0, 77, 0
1, 172890, Note_on_c, 0, 56, 0
1, 172920, Tempo, 451128
1, 172920, Note_on_c, 0, 76, 70
1, 172920, Note_on_c, 0, 64, 70
1, 172920, Note_on_c, 0, 56, 59
1, 172920, Note_on_c, 0, 59, 59
1, 172980, Tempo, 451128
1, 173010, Note_on_c, 0, 59, 0
1, 173010, Note_on_c, 0, 76, 0
1, 173010, Note_on_c, 0, 64, 0
1, 173010, Note_on_c, 0, 56, 0
1, 173020, Tempo, 449438
1, 173040, Tempo, 466926
1, 173040, Note_on_c, 0, 62, 72
1, 173040, Note_on_c, 0, 74, 72
1, 173040, Note_on_c, 0, 54, 57
1, 173040, Note_on_c, 0, 57, 57
1, 173130, Note_on_c, 0, 57, 0
1, 173130, Note_on_c, 0, 62, 0
1, 173130, Note_on_c, 0, 74, 0
1, 173130, Note_on_c, 0, 54, 0
1, 173160, Tempo, 451128
1, 173160, Note_on_c, 0, 63, 73
1, 173160, Note_on_c, 0, 75, 73
1, 173160, Note_on_c, 0, 54, 63
1, 173160, Note_on_c, 0, 57, 63
1, 173250, Note_on_c, 0, 57, 0
1, 173250, Note_on_c, 0, 63, 0
1, 173250, Note_on_c, 0, 75, 0
1, 173250, Note_on_c, 0, 54, 0
1, 173260, Tempo, 461538
1, 173280, Note_on_c, 0, 64, 73
1, 173280, Note_on_c, 0, 76, 73
1, 173280, Note_on_c, 0, 55, 66
1, 173280, Note_on_c, 0, 58, 66
1, 173370, Note_on_c, 0, 58, 0
1, 173370, Note_on_c, 0, 64, 0
1, 173370, Note_on_c, 0, 76, 0
1, 173370, Note_on_c, 0, 55, 0
1, 173400, Note_on_c, 0, 63, 73
1, 173400, Note_on_c, 0, 75, 73
1, 173400, Note_on_c, 0, 55, 66
1, 173400, Note_on_c, 0, 58, 66
1, 173490, Note_on_c, 0, 58, 0
1, 173490, Note_on_c, 0, 63, 0
1, 173490, Note_on_c, 0, 75, 0
1, 173490, Note_on_c, 0, 55, 0
1, 173520, Note_on_c, 0, 73, 73
1, 173520, Note_on_c, 0, 61, 73
1, 173520, Note_on_c, 0, 52, 65
1, 173520, Note_on_c, 0, 55, 65
1, 173580, Tempo, 459770
1, 173610, Note_on_c, 0, 55, 0
1, 173610, Note_on_c, 0, 73, 0
1, 173610, Note_on_c, 0, 61, 0
1, 173610, Note_on_c, 0, 52, 0
1, 173640, Note_on_c, 0, 59, 72
1, 173640, Note_on_c, 0, 71, 72
1, 173640, Note_on_c, 0, 52, 64
1, 173640, Note_on_c, 0, 55, 64
1, 173730, Note_on_c, 0, 55, 0
1, 173730, Note_on_c, 0, 59, 0
1, 173730, Note_on_c, 0, 71, 0
1, 173730, Note_on_c, 0, 52, 0
1, 173760, Note_on_c, 0, 70, 72
1, 173760, Note_on_c, 0, 58, 72
1, 173760, Note_on_c, 0, 50, 64
1, 173760, Note_on_c, 0, 53, 64
1, 173850, Note_on_c, 0, 53, 0
1, 173850, Note_on_c, 0, 70, 0
1, 173850, Note_on_c, 0, 58, 0
1, 173850, Note_on_c, 0, 50, 0
1, 173880, Note_on_c, 0, 56, 72
1, 173880, Note_on_c, 0, 68, 72
1, 173880, Note_on_c, 0, 50, 63
1, 173880, Note_on_c, 0, 53, 63
1, 173900, Tempo, 458015
1, 173970, Note_on_c, 0, 53, 0
1, 173970, Note_on_c, 0, 56, 0
1, 173970, Note_on_c, 0, 68, 0
1, 173970, Note_on_c, 0, 50, 0
1, 174000, Note_on_c, 0, 67, 72
1, 174000, Note_on_c, 0, 55, 72
1, 174000, Note_on_c, 0, 46, 63
1, 174000, Note_on_c, 0, 51, 63
1, 174090, Note_on_c, 0, 51, 0
1, 174090, Note_on_c, 0, 67, 0
1, 174090, Note_on_c, 0, 55, 0
1, 174090, Note_on_c, 0, 46, 0
1, 174120, Note_on_c, 0, 54, 72
1, 174120, Note_on_c, 0, 66, 72
1, 174120, Note_on_c, 0, 46, 62
1, 174120, Note_on_c, 0, 51, 62
1, 174210, Note_on_c, 0, 51, 0
1, 174210, Note_on_c, 0, 54, 0
1, 174210, Note_on_c, 0, 66, 0
1, 174210, Note_on_c, 0, 46, 0
1, 174220, Tempo, 456274
1, 174240, Tempo, 446097
1, 174240, Note_on_c, 0, 65, 72
1, 174240, Note_on_c, 0, 53, 72
1, 174240, Note_on_c, 0, 44, 61
1, 174240, Note_on_c, 0, 47, 61
1, 174330, Note_on_c, 0, 47, 0
1, 174330, Note_on_c, 0, 65, 0
1, 174330, Note_on_c, 0, 53, 0
1, 174330, Note_on_c, 0, 44, 0
1, 174360, Note_on_c, 0, 52, 72
1, 174360, Note_on_c, 0, 64, 72
1, 174360, Note_on_c, 0, 44, 61
1, 174360, Note_on_c, 0, 47, 61
1, 174450, Note_on_c, 0, 47, 0
1, 174450, Note_on_c, 0, 52, 0
1, 174450, Note_on_c, 0, 64, 0
1, 174450, Note_on_c, 0, 44, 0
1, 174460, Tempo, 480000
1, 174480, Tempo, 478088
1, 174480, Note_on_c, 0, 50, 72
1, 174480, Note_on_c, 0, 62, 72
1, 174480, Note_on_c, 0, 42, 57
1, 174480, Note_on_c, 0, 45, 57
1, 174570, Note_on_c, 0, 45, 0
1, 174570, Note_on_c, 0, 50, 0
1, 174570, Note_on_c, 0, 62, 0
1, 174570, Note_on_c, 0, 42, 0
1, 174600, Tempo, 519481
1, 174600, Note_on_c, 0, 51, 72
1, 174600, Note_on_c, 0, 63, 72
1, 174600, Note_on_c, 0, 42, 59
1, 174600, Note_on_c, 0, 45, 59
1, 174690, Note_on_c, 0, 45, 0
1, 174690, Note_on_c, 0, 51, 0
1, 174690, Note_on_c, 0, 63, 0
1, 174690, Note_on_c, 0, 42, 0
1, 174720, Tempo, 504202
1, 174720, Note_on_c, 0, 52, 73
1, 174720, Note_on_c, 0, 64, 73
1, 174720, Note_on_c, 0, 43, 61
1, 174720, Note_on_c, 0, 46, 61
1, 174810, Note_on_c, 0, 46, 0
1, 174810, Note_on_c, 0, 52, 0
1, 174810, Note_on_c, 0, 64, 0
1, 174810, Note_on_c, 0, 43, 0
1, 174840, Tempo, 474308
1, 174840, Note_on_c, 0, 63, 75
1, 174840, Note_on_c, 0, 52, 75
1, 174840, Note_on_c, 0, 43, 62
1, 174840, Note_on_c, 0, 46, 62
1, 174930, Note_on_c, 0, 46, 0
1, 174930, Note_on_c, 0, 63, 0
1, 174930, Note_on_c, 0, 52, 0
1, 174930, Note_on_c, 0, 43, 0
1, 174960, Tempo, 474308
1, 174960, Note_on_c, 0, 61, 76
1, 174960, Note_on_c, 0, 52, 76
1, 174960, Note_on_c, 0, 43, 64
1, 174960, Note_on_c, 0, 46, 64
1, 175020, Tempo, 472441
1, 175050, Note_on_c, 0, 46, 0
1, 175050, Note_on_c, 0, 61, 0
1, 175050, Note_on_c, 0, 52, 0
1, 175050, Note_on_c, 0, 43, 0
1, 175060, Tempo, 470588
1, 175080, Note_on_c, 0, 59, 77
1, 175080, Note_on_c, 0, 52, 77
1, 175080, Note_on_c, 0, 43, 65
1, 175080, Note_on_c, 0, 46, 65
1, 175100, Tempo, 468750
1, 175140, Tempo, 466926
1, 175170, Note_on_c, 0, 46, 0
1, 175170, Note_on_c, 0, 59, 0
1, 175170, Note_on_c, 0, 52, 0
1, 175170, Note_on_c, 0, 43, 0
1, 175180, Tempo, 465116
1, 175200, Note_on_c, 0, 53, 80
1, 175200, Note_on_c, 0, 58, 80
1, 175200, Note_on_c, 0, 38, 67
1, 175200, Note_on_c, 0, 47, 67
1, 175240, Tempo, 463320
1, 175280, Tempo, 461538
1, 175290, Note_on_c, 0, 47, 0
1, 175290, Note_on_c, 0, 53, 0
1, 175290, Note_on_c, 0, 58, 0
1, 175290, Note_on_c, 0, 38, 0
1, 175320, Tempo, 459770
1, 175320, Note_on_c, 0, 53, 81
1, 175320, Note_on_c, 0, 56, 81
1, 175320, Note_on_c, 0, 38, 69
1, 175320, Note_on_c, 0, 47, 69
1, 175360, Tempo, 458015
1, 175400, Tempo, 456274
1, 175410, Note_on_c, 0, 47, 0
1, 175410, Note_on_c, 0, 53, 0
1, 175410, Note_on_c, 0, 56, 0
1, 175410, Note_on_c, 0, 38, 0
1, 175440, Tempo, 454545
1, 175440, Note_on_c, 0, 55, 81
1, 175440, Note_on_c, 0, 39, 71
1, 175440, Note_on_c, 0, 46, 71
1, 175680, Note_on_c, 0, 46, 0
1, 175680, Note_on_c, 0, 39, 0
1, 175680, Note_on_c, 0, 55, 0
1, 175680, Note_on_c, 0, 62, 81
1, 175680, Note_on_c, 0, 50, 81
1, 175737, Control_c, 0, 64, 127
1, 175788, Note_on_c, 0, 50, 0
1, 175800, Note_on_c, 0, 62, 0
1, 175800, Note_on_c, 0, 50, 81
1, 175900, Tempo, 451128
1, 175920, Note_on_c, 0, 50, 0
1, 175920, Note_on_c, 0, 63, 81
1, 175920, Note_on_c, 0, 51, 81
1, 175935, Control_c, 0, 64, 0
1, 175989, Control_c, 0, 64, 127
1, 176020, Tempo, 449438
1, 176028, Note_on_c, 0, 51, 0
1, 176040, Note_on_c, 0, 63, 0
1, 176040, Note_on_c, 0, 51, 81
1, 176120, Tempo, 447761
1, 176160, Note_on_c, 0, 51, 0
1, 176160, Note_on_c, 0, 57, 81
1, 176160, Note_on_c, 0, 69, 81
1, 176172, Control_c, 0, 64, 0
1, 176229, Control_c, 0, 64, 127
1, 176240, Tempo, 446097
1, 176268, Note_on_c, 0, 57, 0
1, 176280, Note_on_c, 0, 69, 0
1, 176280, Note_on_c, 0, 57, 81
1, 176340, Tempo, 444444
1, 176400, Note_on_c, 0, 57, 0
1, 176400, Note_on_c, 0, 58, 81
1, 176400, Note_on_c, 0, 70, 81
1, 176423, Control_c, 0, 64, 0
1, 176460, Tempo, 442804
1, 176469, Control_c, 0, 64, 127
1, 176508, Note_on_c, 0, 58, 0
1, 176520, Note_on_c, 0, 70, 0
1, 176520, Note_on_c, 0, 58, 81
1, 176560, Tempo, 441176
1, 176640, Note_on_c, 0, 58, 0
1, 176640, Note_on_c, 0, 62, 81
1, 176640, Note_on_c, 0, 74, 81
1, 176658, Control_c, 0, 64, 0
1, 176680, Tempo, 439560
1, 176715, Control_c, 0, 64, 127
1, 176748, Note_on_c, 0, 62, 0
1, 176760, Note_on_c, 0, 74, 0
1, 176760, Note_on_c, 0, 50, 57
1, 176760, Note_on_c, 0, 62, 69
1, 176780, Tempo, 437956
1, 176840, Tempo, 436364
1, 176860, Tempo, 436364
1, 176880, Note_on_c, 0, 62, 0
1, 176880, Note_on_c, 0, 50, 0
1, 176880, Note_on_c, 0, 63, 81
1, 176880, Note_on_c, 0, 75, 81
1, 176880, Control_c, 0, 64, 0
1, 176920, Tempo, 434783
1, 176937, Control_c, 0, 64, 127
1, 176980, Tempo, 433213
1, 176988, Note_on_c, 0, 63, 0
1, 177000, Note_on_c, 0, 75, 0
1, 177000, Note_on_c, 0, 51, 56
1, 177000, Note_on_c, 0, 63, 67
1, 177040, Tempo, 431655
1, 177100, Tempo, 430108
1, 177120, Note_on_c, 0, 63, 0
1, 177120, Note_on_c, 0, 51, 0
1, 177120, Note_on_c, 0, 69, 81
1, 177120, Note_on_c, 0, 81, 81
1, 177137, Control_c, 0, 64, 0
1, 177160, Tempo, 428571
1, 177189, Control_c, 0, 64, 127
1, 177220, Tempo, 427046
1, 177228, Note_on_c, 0, 69, 0
1, 177240, Note_on_c, 0, 81, 0
1, 177240, Note_on_c, 0, 57, 69
1, 177240, Note_on_c, 0, 69, 69
1, 177280, Tempo, 425532
1, 177340, Tempo, 424028
1, 177360, Note_on_c, 0, 69, 0
1, 177360, Note_on_c, 0, 57, 0
1, 177360, Note_on_c, 0, 82, 81
1, 177360, Note_on_c, 0, 70, 81
1, 177374, Control_c, 0, 64, 0
1, 177400, Tempo, 422535
1, 177435, Control_c, 0, 64, 127
1, 177460, Tempo, 421053
1, 177468, Note_on_c, 0, 70, 0
1, 177480, Note_on_c, 0, 82, 0
1, 177480, Note_on_c, 0, 58, 70
1, 177480, Note_on_c, 0, 70, 70
1, 177520, Tempo, 419580
1, 177580, Tempo, 418118
1, 177600, Note_on_c, 0, 70, 0
1, 177600, Note_on_c, 0, 58, 0
1, 177600, Note_on_c, 0, 86, 82
1, 177600, Note_on_c, 0, 74, 82
1, 177617, Control_c, 0, 64, 0
1, 177640, Tempo, 416667
1, 177657, Control_c, 0, 64, 127
1, 177700, Tempo, 415225
1, 177708, Note_on_c, 0, 74, 0
1, 177720, Note_on_c, 0, 86, 0
1, 177720, Note_on_c, 0, 62, 71
1, 177720, Note_on_c, 0, 74, 71
1, 177760, Tempo, 413793
1, 177820, Tempo, 412371
1, 177840, Note_on_c, 0, 74, 0
1, 177840, Note_on_c, 0, 62, 0
1, 177840, Note_on_c, 0, 87, 83
1, 177840, Note_on_c, 0, 75, 83
1, 177860, Control_c, 0, 64, 0
1, 177880, Tempo, 410959
1, 177926, Control_c, 0, 64, 127
1, 177940, Tempo, 409556
1, 177948, Note_on_c, 0, 75, 0
1, 177960, Note_on_c, 0, 87, 0
1, 177960, Note_on_c, 0, 63, 72
1, 177960, Note_on_c, 0, 75, 72
1, 178000, Tempo, 408163
1, 178060, Tempo, 406780
1, 178080, Note_on_c, 0, 75, 0
1, 178080, Note_on_c, 0, 63, 0
1, 178080, Note_on_c, 0, 93, 84
1, 178080, Note_on_c, 0, 81, 84
1, 178095, Control_c, 0, 64, 0
1, 178120, Tempo, 405405
1, 178166, Control_c, 0, 64, 127
1, 178180, Tempo, 404040
1, 178188, Note_on_c, 0, 81, 0
1, 178200, Note_on_c, 0, 93, 0
1, 178200, Note_on_c, 0, 69, 72
1, 178200, Note_on_c, 0, 81, 72
1, 178240, Tempo, 402685
1, 178280, Tempo, 401338
1, 178300, Tempo, 360360
1, 178320, Tempo, 459770
1, 178320, Note_on_c, 0, 81, 0
1, 178320, Note_on_c, 0, 69, 0
1, 178320, Note_on_c, 0, 94, 84
1, 178320, Note_on_c, 0, 82, 84
1, 178322, Control_c, 0, 64, 0
1, 178389, Control_c, 0, 64, 127
1, 178428, Note_on_c, 0, 82, 0
1, 178440, Note_on_c, 0, 94, 0
1, 178440, Note_on_c, 0, 70, 72
1, 178440, Note_on_c, 0, 82, 72
1, 178560, Tempo, 433213
1, 178560, Note_on_c, 0, 82, 0
1, 178560, Note_on_c, 0, 70, 0
1, 178560, Note_on_c, 0, 86, 92
1, 178560, Note_on_c, 0, 98, 92
1, 178569, Control_c, 0, 64, 0
1, 178623, Control_c, 0, 64, 127
1, 178668, Note_on_c, 0, 86, 0
1, 178680, Note_on_c, 0, 98, 0
1, 178680, Note_on_c, 0, 74, 76
1, 178680, Note_on_c, 0, 86, 76
1, 178800, Note_on_c, 0, 86, 0
1, 178800, Note_on_c, 0, 74, 0
1, 178800, Note_on_c, 0, 99, 89
1, 178800, Note_on_c, 0, 87, 89
1, 178817, Control_c, 0, 64, 0
1, 178869, Control_c, 0, 64, 127
1, 178908, Note_on_c, 0, 87, 0
1, 178920, Note_on_c, 0, 99, 0
1, 178920, Note_on_c, 0, 75, 72
1, 178920, Note_on_c, 0, 87, 72
1, 179040, Tempo, 422535
1, 179040, Note_on_c, 0, 87, 0
1, 179040, Note_on_c, 0, 75, 0
1, 179040, Note_on_c, 0, 98, 93
1, 179040, Note_on_c, 0, 86, 93
1, 179058, Control_c, 0, 64, 0
1, 179126, Control_c, 0, 64, 127
1, 179148, Note_on_c, 0, 86, 0
1, 179160, Tempo, 451128
1, 179160, Note_on_c, 0, 98, 0
1, 179160, Note_on_c, 0, 74, 76
1, 179160, Note_on_c, 0, 86, 76
1, 179280, Note_on_c, 0, 86, 0
1, 179280, Note_on_c, 0, 74, 0
1, 179280, Note_on_c, 0, 99, 86
1, 179280, Note_on_c, 0, 87, 86
1, 179295, Control_c, 0, 64, 0
1, 179343, Control_c, 0, 64, 127
1, 179388, Note_on_c, 0, 87, 0
1, 179400, Note_on_c, 0, 99, 0
1, 179400, Note_on_c, 0, 75, 72
1, 179400, Note_on_c, 0, 87, 72
1, 179520, Tempo, 444444
1, 179520, Note_on_c, 0, 87, 0
1, 179520, Note_on_c, 0, 75, 0
1, 179520, Note_on_c, 0, 98, 87
1, 179520, Note_on_c, 0, 86, 87
1, 179536, Control_c, 0, 64, 0
1, 179595, Control_c, 0, 64, 127
1, 179628, Note_on_c, 0, 86, 0
1, 179640, Note_on_c, 0, 98, 0
1, 179640, Note_on_c, 0, 74, 72
1, 179640, Note_on_c, 0, 86, 72
1, 179760, Note_on_c, 0, 86, 0
1, 179760, Note_on_c, 0, 74, 0
1, 179760, Note_on_c, 0, 99, 84
1, 179760, Note_on_c, 0, 87, 84
1, 179766, Control_c, 0, 64, 0
1, 179812, Control_c, 0, 64, 127
1, 179880, Note_on_c, 0, 87, 0
1, 179880, Note_on_c, 0, 99, 0
1, 179880, Note_on_c, 0, 73, 72
1, 179880, Note_on_c, 0, 85, 72
1, 180000, Tempo, 441176
1, 180000, Note_on_c, 0, 85, 0
1, 180000, Note_on_c, 0, 73, 0
1, 180000, Note_on_c, 0, 99, 84
1, 180000, Note_on_c, 0, 87, 84
1, 180120, Note_on_c, 0, 87, 0
1, 180120, Note_on_c, 0, 99, 0
1, 180120, Note_on_c, 0, 70, 72
1, 180120, Note_on_c, 0, 82, 72
1, 180240, Note_on_c, 0, 82, 0
1, 180240, Note_on_c, 0, 70, 0
1, 180240, Note_on_c, 0, 99, 86
1, 180240, Note_on_c, 0, 87, 86
1, 180360, Note_on_c, 0, 87, 0
1, 180360, Note_on_c, 0, 99, 0
1, 180360, Note_on_c, 0, 67, 73
1, 180360, Note_on_c, 0, 79, 73
1, 180480, Note_on_c, 0, 79, 0
1, 180480, Note_on_c, 0, 67, 0
1, 180480, Note_on_c, 0, 99, 87
1, 180480, Note_on_c, 0, 87, 87
1, 180600, Note_on_c, 0, 87, 0
1, 180600, Note_on_c, 0, 99, 0
1, 180600, Note_on_c, 0, 63, 73
1, 180600, Note_on_c, 0, 75, 73
1, 180720, Note_on_c, 0, 75, 0
1, 180720, Note_on_c, 0, 63, 0
1, 180720, Note_on_c, 0, 99, 89
1, 180720, Note_on_c, 0, 87, 89
1, 180840, Note_on_c, 0, 87, 0
1, 180840, Note_on_c, 0, 99, 0
1, 180840, Note_on_c, 0, 61, 75
1, 180840, Note_on_c, 0, 73, 75
1, 180960, Note_on_c, 0, 73, 0
1, 180960, Note_on_c, 0, 61, 0
1, 180960, Note_on_c, 0, 99, 89
1, 180960, Note_on_c, 0, 87, 89
1, 181080, Note_on_c, 0, 87, 0
1, 181080, Note_on_c, 0, 99, 0
1, 181080, Note_on_c, 0, 58, 76
1, 181080, Note_on_c, 0, 70, 76
1, 181200, Tempo, 439560
1, 181200, Note_on_c, 0, 70, 0
1, 181200, Note_on_c, 0, 58, 0
1, 181200, Note_on_c, 0, 99, 90
1, 181200, Note_on_c, 0, 87, 90
1, 181280, Tempo, 441176
1, 181320, Note_on_c, 0, 87, 0
1, 181320, Note_on_c, 0, 99, 0
1, 181320, Note_on_c, 0, 67, 77
1, 181320, Note_on_c, 0, 55, 77
1, 181360, Tempo, 442804
1, 181420, Tempo, 444444
1, 181440, Note_on_c, 0, 55, 0
1, 181440, Note_on_c, 0, 67, 0
1, 181440, Note_on_c, 0, 99, 90
1, 181440, Note_on_c, 0, 87, 90
1, 181500, Tempo, 446097
1, 181560, Note_on_c, 0, 87, 0
1, 181560, Note_on_c, 0, 99, 0
1, 181560, Note_on_c, 0, 63, 79
1, 181560, Note_on_c, 0, 51, 79
1, 181580, Tempo, 447761
1, 181640, Tempo, 449438
1, 181680, Note_on_c, 0, 51, 0
1, 181680, Note_on_c, 0, 63, 0
1, 181680, Note_on_c, 0, 99, 91
1, 181680, Note_on_c, 0, 87, 91
1, 181720, Tempo, 451128
1, 181780, Tempo, 452830
1, 181800, Note_on_c, 0, 87, 0
1, 181800, Note_on_c, 0, 99, 0
1, 181800, Note_on_c, 0, 61, 79
1, 181800, Note_on_c, 0, 49, 79
1, 181860, Tempo, 454545
1, 181920, Note_on_c, 0, 49, 0
1, 181920, Note_on_c, 0, 61, 0
1, 181920, Note_on_c, 0, 99, 92
1, 181920, Note_on_c, 0, 87, 92
1, 181940, Tempo, 456274
1, 182000, Tempo, 458015
1, 182040, Note_on_c, 0, 87, 0
1, 182040, Note_on_c, 0, 99, 0
1, 182040, Note_on_c, 0, 58, 80
1, 182040, Note_on_c, 0, 46, 80
1, 182080, Tempo, 459770
1, 182140, Tempo, 461538
1, 182160, Note_on_c, 0, 46, 0
1, 182160, Note_on_c, 0, 58, 0
1, 182160, Note_on_c, 0, 99, 92
1, 182160, Note_on_c, 0, 87, 92
1, 182220, Tempo, 463320
1, 182280, Note_on_c, 0, 87, 0
1, 182280, Note_on_c, 0, 99, 0
1, 182280, Note_on_c, 0, 55, 81
1, 182280, Note_on_c, 0, 43, 81
1, 182300, Tempo, 465116
1, 182360, Tempo, 466926
1, 182400, Note_on_c, 0, 43, 0
1, 182400, Note_on_c, 0, 55, 0
1, 182400, Note_on_c, 0, 99, 93
1, 182400, Note_on_c, 0, 87, 93
1, 182440, Tempo, 468750
1, 182500, Tempo, 470588
1, 182520, Tempo, 538117
1, 182520, Note_on_c, 0, 87, 0
1, 182520, Note_on_c, 0, 99, 0
1, 182520, Note_on_c, 0, 39, 81
1, 182520, Note_on_c, 0, 51, 81
1, 182640, Tempo, 500000
1, 182640, Note_on_c, 0, 51, 0
1, 182640, Note_on_c, 0, 39, 0
1, 182640, Note_on_c, 0, 87, 81
1, 182640, Note_on_c, 0, 99, 81
1, 182730, Note_on_c, 0, 99, 0
1, 182730, Note_on_c, 0, 87, 0
1, 182760, Note_on_c, 0, 87, 77
1, 182760, Note_on_c, 0, 99, 77
1, 182840, Tempo, 491803
1, 182850, Note_on_c, 0, 99, 0
1, 182850, Note_on_c, 0, 87, 0
1, 182860, Tempo, 495868
1, 182880, Tempo, 500000
1, 182880, Note_on_c, 0, 87, 81
1, 182880, Note_on_c, 0, 99, 81
1, 182900, Tempo, 502092
1, 182920, Tempo, 497925
1, 182970, Note_on_c, 0, 99, 0
1, 182970, Note_on_c, 0, 87, 0
1, 182980, Tempo, 495868
1, 183000, Note_on_c, 0, 87, 76
1, 183000, Note_on_c, 0, 99, 76
1, 183040, Tempo, 493827
1, 183080, Tempo, 491803
1, 183090, Note_on_c, 0, 99, 0
1, 183090, Note_on_c, 0, 87, 0
1, 183120, Note_on_c, 0, 87, 79
1, 183120, Note_on_c, 0, 99, 79
1, 183140, Tempo, 489796
1, 183200, Tempo, 487805
1, 183210, Note_on_c, 0, 99, 0
1, 183210, Note_on_c, 0, 87, 0
1, 183240, Tempo, 485830
1, 183240, Note_on_c, 0, 87, 76
1, 183240, Note_on_c, 0, 99, 76
1, 183300, Tempo, 483871
1, 183330, Note_on_c, 0, 99, 0
1, 183330, Note_on_c, 0, 87, 0
1, 183360, Tempo, 481928
1, 183360, Note_on_c, 0, 87, 77
1, 183360, Note_on_c, 0, 99, 77
1, 183400, Tempo, 480000
1, 183450, Note_on_c, 0, 99, 0
1, 183450, Note_on_c, 0, 87, 0
1, 183460, Tempo, 478088
1, 183480, Note_on_c, 0, 87, 76
1, 183480, Note_on_c, 0, 99, 76
1, 183520, Tempo, 476190
1, 183560, Tempo, 474308
1, 183570, Note_on_c, 0, 99, 0
1, 183570, Note_on_c, 0, 87, 0
1, 183600, Tempo, 433213
1, 183600, Note_on_c, 0, 87, 75
1, 183600, Note_on_c, 0, 99, 75
1, 183690, Note_on_c, 0, 99, 0
1, 183690, Note_on_c, 0, 87, 0
1, 183720, Tempo, 434783
1, 183720, Note_on_c, 0, 87, 73
1, 183720, Note_on_c, 0, 99, 73
1, 183810, Note_on_c, 0, 99, 0
1, 183810, Note_on_c, 0, 87, 0
1, 183840, Tempo, 436364
1, 183840, Note_on_c, 0, 87, 73
1, 183840, Note_on_c, 0, 99, 73
1, 183930, Note_on_c, 0, 99, 0
1, 183930, Note_on_c, 0, 87, 0
1, 183960, Tempo, 437956
1, 183960, Note_on_c, 0, 87, 72
1, 183960, Note_on_c, 0, 99, 72
1, 184050, Note_on_c, 0, 99, 0
1, 184050, Note_on_c, 0, 87, 0
1, 184060, Tempo, 437956
1, 184080, Note_on_c, 0, 87, 72
1, 184080, Note_on_c, 0, 99, 72
1, 184170, Note_on_c, 0, 99, 0
1, 184170, Note_on_c, 0, 87, 0
1, 184200, Note_on_c, 0, 87, 70
1, 184200, Note_on_c, 0, 99, 70
1, 184220, Tempo, 436364
1, 184290, Note_on_c, 0, 99, 0
1, 184290, Note_on_c, 0, 87, 0
1, 184320, Note_on_c, 0, 87, 71
1, 184320, Note_on_c, 0, 99, 71
1, 184380, Tempo, 434783
1, 184410, Note_on_c, 0, 99, 0
1, 184410, Note_on_c, 0, 87, 0
1, 184440, Note_on_c, 0, 87, 69
1, 184440, Note_on_c, 0, 99, 69
1, 184530, Note_on_c, 0, 99, 0
1, 184530, Note_on_c, 0, 87, 0
1, 184540, Tempo, 433213
1, 184560, Tempo, 517241
1, 184560, Note_on_c, 0, 87, 76
1, 184560, Note_on_c, 0, 99, 76
1, 184560, Note_on_c, 0, 63, 72
1, 184574, Control_c, 0, 64, 0
1, 184650, Note_on_c, 0, 99, 0
1, 184650, Note_on_c, 0, 87, 0
1, 184680, Note_on_c, 0, 63, 0
1, 184680, Note_on_c, 0, 87, 70
1, 184680, Note_on_c, 0, 99, 70
1, 184701, Control_c, 0, 64, 127
1, 184770, Note_on_c, 0, 99, 0
1, 184770, Note_on_c, 0, 87, 0
1, 184780, Tempo, 480000
1, 184800, Tempo, 473410
1, 184800, Note_on_c, 0, 87, 70
1, 184800, Note_on_c, 0, 99, 70
1, 184800, Note_on_c, 0, 75, 80
1, 184890, Note_on_c, 0, 99, 0
1, 184890, Note_on_c, 0, 87, 0
1, 184920, Note_on_c, 0, 75, 0
1, 184920, Note_on_c, 0, 87, 70
1, 184920, Note_on_c, 0, 99, 70
1, 185010, Note_on_c, 0, 99, 0
1, 185010, Note_on_c, 0, 87, 0
1, 185040, Note_on_c, 0, 87, 66
1, 185040, Note_on_c, 0, 99, 66
1, 185130, Note_on_c, 0, 99, 0
1, 185130, Note_on_c, 0, 87, 0
1, 185160, Note_on_c, 0, 87, 66
1, 185160, Note_on_c, 0, 99, 66
1, 185250, Note_on_c, 0, 99, 0
1, 185250, Note_on_c, 0, 87, 0
1, 185260, Tempo, 467800
1, 185280, Tempo, 455201
1, 185280, Note_on_c, 0, 85, 63
1, 185280, Note_on_c, 0, 97, 63
1, 185294, Control_c, 0, 64, 0
1, 185370, Note_on_c, 0, 97, 0
1, 185370, Note_on_c, 0, 85, 0
1, 185400, Note_on_c, 0, 85, 62
1, 185400, Note_on_c, 0, 97, 62
1, 185480, Tempo, 448330
1, 185490, Note_on_c, 0, 97, 0
1, 185490, Note_on_c, 0, 85, 0
1, 185520, Tempo, 448330
1, 185520, Note_on_c, 0, 95, 66
1, 185520, Note_on_c, 0, 83, 66
1, 185520, Note_on_c, 0, 32, 57
1, 185520, Note_on_c, 0, 44, 64
1, 185549, Control_c, 0, 64, 127
1, 185610, Note_on_c, 0, 83, 0
1, 185610, Note_on_c, 0, 95, 0
1, 185640, Note_on_c, 0, 95, 66
1, 185640, Note_on_c, 0, 83, 66
1, 185730, Note_on_c, 0, 83, 0
1, 185730, Note_on_c, 0, 95, 0
1, 185760, Note_on_c, 0, 32, 0
1, 185760, Note_on_c, 0, 44, 0
1, 185760, Note_on_c, 0, 95, 66
1, 185760, Note_on_c, 0, 83, 66
1, 185760, Note_on_c, 0, 51, 53
1, 185760, Note_on_c, 0, 63, 59
1, 185760, Note_on_c, 0, 59, 53
1, 185850, Note_on_c, 0, 59, 0
1, 185850, Note_on_c, 0, 51, 0
1, 185850, Note_on_c, 0, 95, 0
1, 185850, Note_on_c, 0, 83, 0
1, 185850, Note_on_c, 0, 63, 0
1, 185880, Note_on_c, 0, 95, 66
1, 185880, Note_on_c, 0, 83, 66
1, 185880, Note_on_c, 0, 51, 53
1, 185880, Note_on_c, 0, 59, 53
1, 185880, Note_on_c, 0, 63, 59
1, 185970, Note_on_c, 0, 63, 0
1, 185970, Note_on_c, 0, 51, 0
1, 185970, Note_on_c, 0, 95, 0
1, 185970, Note_on_c, 0, 83, 0
1, 185970, Note_on_c, 0, 59, 0
1, 186000, Tempo, 450011
1, 186000, Note_on_c, 0, 94, 62
1, 186000, Note_on_c, 0, 82, 62
1, 186000, Note_on_c, 0, 56, 53
1, 186000, Note_on_c, 0, 59, 53
1, 186000, Note_on_c, 0, 63, 59
1, 186017, Control_c, 0, 64, 0
1, 186063, Control_c, 0, 64, 127
1, 186090, Note_on_c, 0, 82, 0
1, 186090, Note_on_c, 0, 94, 0
1, 186120, Note_on_c, 0, 94, 62
1, 186120, Note_on_c, 0, 82, 62
1, 186210, Note_on_c, 0, 82, 0
1, 186210, Note_on_c, 0, 94, 0
1, 186235, Control_c, 0, 64, 0
1, 186240, Tempo, 439979
1, 186240, Note_on_c, 0, 63, 0
1, 186240, Note_on_c, 0, 56, 0
1, 186240, Note_on_c, 0, 59, 0
1, 186240, Note_on_c, 0, 92, 63
1, 186240, Note_on_c, 0, 80, 63
1, 186240, Note_on_c, 0, 35, 64
1, 186240, Note_on_c, 0, 47, 64
1, 186309, Control_c, 0, 64, 127
1, 186330, Note_on_c, 0, 80, 0
1, 186330, Note_on_c, 0, 92, 0
1, 186360, Note_on_c, 0, 92, 63
1, 186360, Note_on_c, 0, 80, 63
1, 186450, Note_on_c, 0, 80, 0
1, 186450, Note_on_c, 0, 92, 0
1, 186480, Note_on_c, 0, 35, 0
1, 186480, Note_on_c, 0, 47, 0
1, 186480, Note_on_c, 0, 91, 62
1, 186480, Note_on_c, 0, 79, 62
1, 186480, Note_on_c, 0, 51, 53
1, 186480, Note_on_c, 0, 59, 53
1, 186480, Note_on_c, 0, 63, 59
1, 186487, Control_c, 0, 64, 0
1, 186555, Control_c, 0, 64, 127
1, 186570, Note_on_c, 0, 63, 0
1, 186570, Note_on_c, 0, 51, 0
1, 186570, Note_on_c, 0, 91, 0
1, 186570, Note_on_c, 0, 79, 0
1, 186570, Note_on_c, 0, 59, 0
1, 186600, Note_on_c, 0, 91, 62
1, 186600, Note_on_c, 0, 79, 62
1, 186600, Note_on_c, 0, 63, 59
1, 186600, Note_on_c, 0, 59, 53
1, 186600, Note_on_c, 0, 51, 53
1, 186690, Note_on_c, 0, 51, 0
1, 186690, Note_on_c, 0, 63, 0
1, 186690, Note_on_c, 0, 91, 0
1, 186690, Note_on_c, 0, 79, 0
1, 186690, Note_on_c, 0, 59, 0
1, 186720, Tempo, 433526
1, 186720, Note_on_c, 0, 92, 62
1, 186720, Note_on_c, 0, 80, 62
1, 186720, Note_on_c, 0, 56, 53
1, 186720, Note_on_c, 0, 59, 53
1, 186720, Note_on_c, 0, 63, 59
1, 186743, Control_c, 0, 64, 0
1, 186789, Control_c, 0, 64, 127
1, 186810, Note_on_c, 0, 80, 0
1, 186810, Note_on_c, 0, 92, 0
1, 186840, Note_on_c, 0, 92, 62
1, 186840, Note_on_c, 0, 80, 62
1, 186930, Note_on_c, 0, 80, 0
1, 186930, Note_on_c, 0, 92, 0
1, 186960, Tempo, 441631
1, 186960, Note_on_c, 0, 63, 0
1, 186960, Note_on_c, 0, 56, 0
1, 186960, Note_on_c, 0, 59, 0
1, 186960, Note_on_c, 0, 94, 66
1, 186960, Note_on_c, 0, 82, 66
1, 186960, Control_c, 0, 64, 0
1, 186960, Note_on_c, 0, 39, 55
1, 186960, Note_on_c, 0, 51, 63
1, 187029, Control_c, 0, 64, 127
1, 187050, Note_on_c, 0, 82, 0
1, 187050, Note_on_c, 0, 94, 0
1, 187080, Note_on_c, 0, 94, 66
1, 187080, Note_on_c, 0, 82, 66
1, 187170, Note_on_c, 0, 82, 0
1, 187170, Note_on_c, 0, 94, 0
1, 187200, Note_on_c, 0, 39, 0
1, 187200, Note_on_c, 0, 51, 0
1, 187200, Note_on_c, 0, 87, 62
1, 187200, Note_on_c, 0, 75, 62
1, 187200, Note_on_c, 0, 55, 53
1, 187200, Note_on_c, 0, 63, 53
1, 187200, Note_on_c, 0, 67, 59
1, 187290, Note_on_c, 0, 67, 0
1, 187290, Note_on_c, 0, 55, 0
1, 187290, Note_on_c, 0, 87, 0
1, 187290, Note_on_c, 0, 75, 0
1, 187290, Note_on_c, 0, 63, 0
1, 187320, Note_on_c, 0, 87, 62
1, 187320, Note_on_c, 0, 75, 62
1, 187320, Note_on_c, 0, 55, 53
1, 187320, Note_on_c, 0, 63, 53
1, 187320, Note_on_c, 0, 67, 59
1, 187410, Note_on_c, 0, 67, 0
1, 187410, Note_on_c, 0, 55, 0
1, 187410, Note_on_c, 0, 87, 0
1, 187410, Note_on_c, 0, 75, 0
1, 187410, Note_on_c, 0, 63, 0
1, 187440, Tempo, 430385
1, 187440, Note_on_c, 0, 87, 62
1, 187440, Note_on_c, 0, 75, 62
1, 187440, Note_on_c, 0, 58, 53
1, 187440, Note_on_c, 0, 63, 53
1, 187440, Note_on_c, 0, 67, 59
1, 187447, Control_c, 0, 64, 0
1, 187515, Control_c, 0, 64, 127
1, 187530, Note_on_c, 0, 75, 0
1, 187530, Note_on_c, 0, 87, 0
1, 187560, Note_on_c, 0, 87, 62
1, 187560, Note_on_c, 0, 75, 62
1, 187650, Note_on_c, 0, 75, 0
1, 187650, Note_on_c, 0, 87, 0
1, 187680, Tempo, 431965
1, 187680, Note_on_c, 0, 67, 0
1, 187680, Note_on_c, 0, 58, 0
1, 187680, Note_on_c, 0, 63, 0
1, 187680, Note_on_c, 0, 88, 64
1, 187680, Note_on_c, 0, 76, 64
1, 187680, Note_on_c, 0, 43, 60
1, 187680, Note_on_c, 0, 55, 60
1, 187695, Control_c, 0, 64, 0
1, 187749, Control_c, 0, 64, 127
1, 187770, Note_on_c, 0, 76, 0
1, 187770, Note_on_c, 0, 88, 0
1, 187800, Note_on_c, 0, 88, 64
1, 187800, Note_on_c, 0, 76, 64
1, 187890, Note_on_c, 0, 76, 0
1, 187890, Note_on_c, 0, 88, 0
1, 187920, Note_on_c, 0, 43, 0
1, 187920, Note_on_c, 0, 55, 0
1, 187920, Note_on_c, 0, 87, 64
1, 187920, Note_on_c, 0, 75, 64
1, 187920, Note_on_c, 0, 61, 47
1, 187920, Note_on_c, 0, 63, 47
1, 187920, Note_on_c, 0, 70, 54
1, 187937, Control_c, 0, 64, 0
1, 187989, Control_c, 0, 64, 127
1, 188010, Note_on_c, 0, 70, 0
1, 188010, Note_on_c, 0, 61, 0
1, 188010, Note_on_c, 0, 87, 0
1, 188010, Note_on_c, 0, 75, 0
1, 188010, Note_on_c, 0, 63, 0
1, 188040, Note_on_c, 0, 87, 62
1, 188040, Note_on_c, 0, 75, 62
1, 188040, Note_on_c, 0, 61, 47
1, 188040, Note_on_c, 0, 63, 47
1, 188040, Note_on_c, 0, 70, 54
1, 188130, Note_on_c, 0, 70, 0
1, 188130, Note_on_c, 0, 61, 0
1, 188130, Note_on_c, 0, 87, 0
1, 188130, Note_on_c, 0, 75, 0
1, 188130, Note_on_c, 0, 63, 0
1, 188160, Tempo, 428816
1, 188160, Note_on_c, 0, 85, 62
1, 188160, Note_on_c, 0, 73, 62
1, 188160, Note_on_c, 0, 61, 47
1, 188160, Note_on_c, 0, 63, 47
1, 188160, Note_on_c, 0, 70, 54
1, 188168, Control_c, 0, 64, 0
1, 188212, Control_c, 0, 64, 127
1, 188250, Note_on_c, 0, 73, 0
1, 188250, Note_on_c, 0, 85, 0
1, 188280, Note_on_c, 0, 85, 62
1, 188280, Note_on_c, 0, 73, 62
1, 188370, Note_on_c, 0, 73, 0
1, 188370, Note_on_c, 0, 85, 0
1, 188400, Tempo, 433526
1, 188400, Note_on_c, 0, 70, 0
1, 188400, Note_on_c, 0, 61, 0
1, 188400, Note_on_c, 0, 63, 0
1, 188400, Note_on_c, 0, 83, 63
1, 188400, Note_on_c, 0, 71, 63
1, 188400, Control_c, 0, 64, 0
1, 188400, Note_on_c, 0, 56, 62
1, 188400, Note_on_c, 0, 44, 54
1, 188480, Control_c, 0, 64, 127
1, 188490, Note_on_c, 0, 71, 0
1, 188490, Note_on_c, 0, 83, 0
1, 188520, Note_on_c, 0, 83, 63
1, 188520, Note_on_c, 0, 71, 63
1, 188610, Note_on_c, 0, 71, 0
1, 188610, Note_on_c, 0, 83, 0
1, 188640, Note_on_c, 0, 56, 0
1, 188640, Note_on_c, 0, 44, 0
1, 188640, Note_on_c, 0, 83, 63
1, 188640, Note_on_c, 0, 71, 63
1, 188640, Note_on_c, 0, 59, 49
1, 188640, Note_on_c, 0, 63, 49
1, 188640, Note_on_c, 0, 68, 54
1, 188730, Note_on_c, 0, 68, 0
1, 188730, Note_on_c, 0, 59, 0
1, 188730, Note_on_c, 0, 83, 0
1, 188730, Note_on_c, 0, 71, 0
1, 188730, Note_on_c, 0, 63, 0
1, 188760, Note_on_c, 0, 83, 62
1, 188760, Note_on_c, 0, 71, 62
1, 188760, Note_on_c, 0, 59, 49
1, 188760, Note_on_c, 0, 63, 49
1, 188760, Note_on_c, 0, 68, 54
1, 188850, Note_on_c, 0, 68, 0
1, 188850, Note_on_c, 0, 59, 0
1, 188850, Note_on_c, 0, 83, 0
1, 188850, Note_on_c, 0, 71, 0
1, 188850, Note_on_c, 0, 63, 0
1, 188880, Tempo, 425743
1, 188880, Note_on_c, 0, 82, 63
1, 188880, Note_on_c, 0, 70, 63
1, 188880, Note_on_c, 0, 59, 49
1, 188880, Note_on_c, 0, 63, 54
1, 188888, Control_c, 0, 64, 0
1, 188949, Control_c, 0, 64, 127
1, 188970, Note_on_c, 0, 70, 0
1, 188970, Note_on_c, 0, 82, 0
1, 189000, Note_on_c, 0, 82, 63
1, 189000, Note_on_c, 0, 70, 63
1, 189090, Note_on_c, 0, 70, 0
1, 189090, Note_on_c, 0, 82, 0
1, 189120, Tempo, 430385
1, 189120, Note_on_c, 0, 59, 0
1, 189120, Note_on_c, 0, 63, 0
1, 189120, Note_on_c, 0, 80, 65
1, 189120, Note_on_c, 0, 68, 65
1, 189120, Note_on_c, 0, 40, 59
1, 189132, Control_c, 0, 64, 0
1, 189195, Control_c, 0, 64, 127
1, 189210, Note_on_c, 0, 68, 0
1, 189210, Note_on_c, 0, 80, 0
1, 189240, Note_on_c, 0, 80, 65
1, 189240, Note_on_c, 0, 68, 65
1, 189330, Note_on_c, 0, 68, 0
1, 189330, Note_on_c, 0, 80, 0
1, 189360, Tempo, 425743
1, 189360, Note_on_c, 0, 40, 0
1, 189360, Note_on_c, 0, 79, 62
1, 189360, Note_on_c, 0, 67, 62
1, 189360, Note_on_c, 0, 62, 56
1, 189360, Note_on_c, 0, 58, 51
1, 189372, Control_c, 0, 64, 0
1, 189440, Control_c, 0, 64, 127
1, 189450, Note_on_c, 0, 58, 0
1, 189450, Note_on_c, 0, 79, 0
1, 189450, Note_on_c, 0, 67, 0
1, 189450, Note_on_c, 0, 62, 0
1, 189480, Note_on_c, 0, 79, 62
1, 189480, Note_on_c, 0, 67, 62
1, 189480, Note_on_c, 0, 62, 56
1, 189480, Note_on_c, 0, 58, 51
1, 189570, Note_on_c, 0, 58, 0
1, 189570, Note_on_c, 0, 79, 0
1, 189570, Note_on_c, 0, 67, 0
1, 189570, Note_on_c, 0, 62, 0
1, 189600, Tempo, 421200
1, 189600, Note_on_c, 0, 80, 63
1, 189600, Note_on_c, 0, 68, 63
1, 189600, Note_on_c, 0, 58, 51
1, 189600, Note_on_c, 0, 62, 56
1, 189609, Control_c, 0, 64, 0
1, 189663, Control_c, 0, 64, 127
1, 189690, Note_on_c, 0, 68, 0
1, 189690, Note_on_c, 0, 80, 0
1, 189720, Note_on_c, 0, 80, 63
1, 189720, Note_on_c, 0, 68, 63
1, 189810, Note_on_c, 0, 68, 0
1, 189810, Note_on_c, 0, 80, 0
1, 189840, Tempo, 433526
1, 189840, Note_on_c, 0, 58, 0
1, 189840, Note_on_c, 0, 62, 0
1, 189840, Note_on_c, 0, 82, 65
1, 189840, Note_on_c, 0, 70, 65
1, 189840, Note_on_c, 0, 39, 60
1, 189848, Control_c, 0, 64, 0
1, 189897, Control_c, 0, 64, 127
1, 189930, Note_on_c, 0, 70, 0
1, 189930, Note_on_c, 0, 82, 0
1, 189960, Note_on_c, 0, 82, 64
1, 189960, Note_on_c, 0, 70, 64
1, 190050, Note_on_c, 0, 70, 0
1, 190050, Note_on_c, 0, 82, 0
1, 190060, Tempo, 454442
1, 190080, Note_on_c, 0, 39, 0
1, 190080, Note_on_c, 0, 63, 59
1, 190080, Note_on_c, 0, 75, 59
1, 190080, Note_on_c, 0, 55, 50
1, 190080, Note_on_c, 0, 58, 55
1, 190092, Control_c, 0, 64, 0
1, 190140, Tempo, 456482
1, 190143, Control_c, 0, 64, 127
1, 190170, Note_on_c, 0, 58, 0
1, 190170, Note_on_c, 0, 63, 0
1, 190170, Note_on_c, 0, 75, 0
1, 190170, Note_on_c, 0, 55, 0
1, 190200, Note_on_c, 0, 75, 59
1, 190200, Note_on_c, 0, 63, 59
1, 190200, Note_on_c, 0, 55, 50
1, 190200, Note_on_c, 0, 58, 55
1, 190220, Tempo, 458540
1, 190261, Tempo, 464900
1, 190290, Note_on_c, 0, 58, 0
1, 190290, Note_on_c, 0, 75, 0
1, 190290, Note_on_c, 0, 63, 0
1, 190290, Note_on_c, 0, 55, 0
1, 190300, Tempo, 467035
1, 190320, Tempo, 555556
1, 190320, Note_on_c, 0, 87, 63
1, 190320, Note_on_c, 0, 75, 63
1, 190320, Note_on_c, 0, 63, 57
1, 190320, Note_on_c, 0, 58, 52
1, 190320, Note_on_c, 0, 55, 52
1, 190330, Control_c, 0, 64, 0
1, 190381, Tempo, 547945
1, 190400, Control_c, 0, 64, 127
1, 190410, Note_on_c, 0, 75, 0
1, 190410, Note_on_c, 0, 87, 0
1, 190440, Note_on_c, 0, 87, 63
1, 190440, Note_on_c, 0, 75, 63
1, 190530, Note_on_c, 0, 75, 0
1, 190530, Note_on_c, 0, 87, 0
1, 190560, Tempo, 510638
1, 190560, Note_on_c, 0, 55, 0
1, 190560, Note_on_c, 0, 63, 0
1, 190560, Note_on_c, 0, 58, 0
1, 190560, Note_on_c, 0, 99, 77
1, 190560, Note_on_c, 0, 87, 77
1, 190560, Note_on_c, 0, 67, 52
1, 190560, Note_on_c, 0, 70, 52
1, 190560, Note_on_c, 0, 75, 57
1, 190575, Control_c, 0, 64, 0
1, 190650, Note_on_c, 0, 87, 0
1, 190650, Note_on_c, 0, 99, 0
1, 190680, Note_on_c, 0, 87, 77
1, 190680, Note_on_c, 0, 99, 77
1, 190770, Note_on_c, 0, 99, 0
1, 190770, Note_on_c, 0, 87, 0
1, 190800, Note_on_c, 0, 75, 0
1, 190800, Note_on_c, 0, 67, 0
1, 190800, Note_on_c, 0, 70, 0
1, 190800, Note_on_c, 0, 99, 77
1, 190800, Note_on_c, 0, 87, 77
1, 190890, Note_on_c, 0, 87, 0
1, 190890, Note_on_c, 0, 99, 0
1, 190920, Note_on_c, 0, 99, 77
1, 190920, Note_on_c, 0, 87, 77
1, 191010, Note_on_c, 0, 87, 0
1, 191010, Note_on_c, 0, 99, 0
1, 191040, Tempo, 502092
1, 191040, Note_on_c, 0, 97, 75
1, 191040, Note_on_c, 0, 85, 75
1, 191130, Note_on_c, 0, 85, 0
1, 191130, Note_on_c, 0, 97, 0
1, 191160, Note_on_c, 0, 85, 75
1, 191160, Note_on_c, 0, 97, 75
1, 191250, Note_on_c, 0, 97, 0
1, 191250, Note_on_c, 0, 85, 0
1, 191280, Tempo, 489796
1, 191280, Note_on_c, 0, 96, 75
1, 191280, Note_on_c, 0, 84, 75
1, 191280, Note_on_c, 0, 32, 69
1, 191280, Note_on_c, 0, 44, 76
1, 191370, Note_on_c, 0, 84, 0
1, 191370, Note_on_c, 0, 96, 0
1, 191372, Control_c, 0, 64, 127
1, 191400, Note_on_c, 0, 84, 75
1, 191400, Note_on_c, 0, 96, 75
1, 191490, Note_on_c, 0, 96, 0
1, 191490, Note_on_c, 0, 84, 0
1, 191520, Note_on_c, 0, 32, 0
1, 191520, Note_on_c, 0, 44, 0
1, 191520, Note_on_c, 0, 84, 72
1, 191520, Note_on_c, 0, 96, 72
1, 191520, Note_on_c, 0, 63, 55
1, 191520, Note_on_c, 0, 57, 50
1, 191520, Note_on_c, 0, 54, 50
1, 191610, Note_on_c, 0, 54, 0
1, 191610, Note_on_c, 0, 63, 0
1, 191610, Note_on_c, 0, 84, 0
1, 191610, Note_on_c, 0, 96, 0
1, 191610, Note_on_c, 0, 57, 0
1, 191640, Note_on_c, 0, 84, 72
1, 191640, Note_on_c, 0, 96, 72
1, 191640, Note_on_c, 0, 54, 50
1, 191640, Note_on_c, 0, 57, 50
1, 191640, Note_on_c, 0, 63, 55
1, 191730, Note_on_c, 0, 63, 0
1, 191730, Note_on_c, 0, 54, 0
1, 191730, Note_on_c, 0, 84, 0
1, 191730, Note_on_c, 0, 96, 0
1, 191730, Note_on_c, 0, 57, 0
1, 191760, Tempo, 495868
1, 191760, Note_on_c, 0, 93, 71
1, 191760, Note_on_c, 0, 81, 71
1, 191760, Note_on_c, 0, 54, 50
1, 191760, Note_on_c, 0, 57, 50
1, 191760, Note_on_c, 0, 63, 55
1, 191777, Control_c, 0, 64, 0
1, 191850, Note_on_c, 0, 81, 0
1, 191850, Note_on_c, 0, 93, 0
1, 191863, Control_c, 0, 64, 127
1, 191880, Note_on_c, 0, 81, 71
1, 191880, Note_on_c, 0, 93, 71
1, 191970, Note_on_c, 0, 93, 0
1, 191970, Note_on_c, 0, 81, 0
1, 192000, Tempo, 476190
1, 192000, Note_on_c, 0, 63, 0
1, 192000, Note_on_c, 0, 54, 0
1, 192000, Note_on_c, 0, 57, 0
1, 192000, Note_on_c, 0, 92, 73
1, 192000, Note_on_c, 0, 80, 73
1, 192000, Note_on_c, 0, 36, 71
1, 192000, Note_on_c, 0, 48, 80
1, 192012, Control_c, 0, 64, 0
1, 192080, Control_c, 0, 64, 127
1, 192090, Note_on_c, 0, 80, 0
1, 192090, Note_on_c, 0, 92, 0
1, 192120, Note_on_c, 0, 80, 73
1, 192120, Note_on_c, 0, 92, 73
1, 192210, Note_on_c, 0, 92, 0
1, 192210, Note_on_c, 0, 80, 0
1, 192240, Note_on_c, 0, 36, 0
1, 192240, Note_on_c, 0, 48, 0
1, 192240, Note_on_c, 0, 92, 73
1, 192240, Note_on_c, 0, 80, 73
1, 192240, Note_on_c, 0, 57, 53
1, 192240, Note_on_c, 0, 63, 53
1, 192240, Note_on_c, 0, 69, 60
1, 192248, Control_c, 0, 64, 0
1, 192303, Control_c, 0, 64, 127
1, 192330, Note_on_c, 0, 69, 0
1, 192330, Note_on_c, 0, 57, 0
1, 192330, Note_on_c, 0, 92, 0
1, 192330, Note_on_c, 0, 80, 0
1, 192330, Note_on_c, 0, 63, 0
1, 192360, Note_on_c, 0, 80, 73
1, 192360, Note_on_c, 0, 92, 73
1, 192360, Note_on_c, 0, 57, 53
1, 192360, Note_on_c, 0, 63, 53
1, 192360, Note_on_c, 0, 69, 60
1, 192450, Note_on_c, 0, 69, 0
1, 192450, Note_on_c, 0, 57, 0
1, 192450, Note_on_c, 0, 80, 0
1, 192450, Note_on_c, 0, 92, 0
1, 192450, Note_on_c, 0, 63, 0
1, 192480, Tempo, 487805
1, 192480, Note_on_c, 0, 90, 76
1, 192480, Note_on_c, 0, 78, 76
1, 192480, Note_on_c, 0, 57, 53
1, 192480, Note_on_c, 0, 63, 53
1, 192480, Note_on_c, 0, 69, 60
1, 192488, Control_c, 0, 64, 0
1, 192543, Control_c, 0, 64, 127
1, 192570, Note_on_c, 0, 78, 0
1, 192570, Note_on_c, 0, 90, 0
1, 192600, Note_on_c, 0, 78, 76
1, 192600, Note_on_c, 0, 90, 76
1, 192690, Note_on_c, 0, 90, 0
1, 192690, Note_on_c, 0, 78, 0
1, 192720, Tempo, 508475
1, 192720, Note_on_c, 0, 69, 0
1, 192720, Note_on_c, 0, 57, 0
1, 192720, Note_on_c, 0, 63, 0
1, 192720, Note_on_c, 0, 88, 81
1, 192720, Note_on_c, 0, 76, 81
1, 192720, Control_c, 0, 64, 0
1, 192720, Note_on_c, 0, 37, 82
1, 192720, Note_on_c, 0, 49, 82
1, 192789, Control_c, 0, 64, 127
1, 192960, Tempo, 500000
1, 192960, Note_on_c, 0, 49, 0
1, 192960, Note_on_c, 0, 88, 0
1, 192960, Note_on_c, 0, 76, 0
1, 192960, Note_on_c, 0, 37, 0
1, 192960, Note_on_c, 0, 64, 49
1, 192960, Note_on_c, 0, 69, 49
1, 192960, Note_on_c, 0, 73, 54
1, 192960, Note_on_c, 0, 52, 44
1, 192960, Note_on_c, 0, 57, 44
1, 192960, Note_on_c, 0, 61, 50
1, 192968, Control_c, 0, 64, 0
1, 193050, Note_on_c, 0, 61, 0
1, 193050, Note_on_c, 0, 69, 0
1, 193050, Note_on_c, 0, 73, 0
1, 193050, Note_on_c, 0, 64, 0
1, 193050, Note_on_c, 0, 57, 0
1, 193050, Note_on_c, 0, 52, 0
1, 193080, Note_on_c, 0, 64, 49
1, 193080, Note_on_c, 0, 69, 49
1, 193080, Note_on_c, 0, 73, 54
1, 193080, Note_on_c, 0, 52, 44
1, 193080, Note_on_c, 0, 57, 44
1, 193080, Note_on_c, 0, 61, 50
1, 193170, Note_on_c, 0, 61, 0
1, 193170, Note_on_c, 0, 69, 0
1, 193170, Note_on_c, 0, 73, 0
1, 193170, Note_on_c, 0, 64, 0
1, 193170, Note_on_c, 0, 57, 0
1, 193170, Note_on_c, 0, 52, 0
1, 193200, Tempo, 493827
1, 193200, Note_on_c, 0, 64, 51
1, 193200, Note_on_c, 0, 69, 51
1, 193200, Note_on_c, 0, 75, 56
1, 193200, Note_on_c, 0, 51, 47
1, 193200, Note_on_c, 0, 57, 47
1, 193200, Note_on_c, 0, 61, 54
1, 193290, Note_on_c, 0, 61, 0
1, 193290, Note_on_c, 0, 69, 0
1, 193290, Note_on_c, 0, 75, 0
1, 193290, Note_on_c, 0, 64, 0
1, 193290, Note_on_c, 0, 57, 0
1, 193290, Note_on_c, 0, 51, 0
1, 193320, Note_on_c, 0, 64, 51
1, 193320, Note_on_c, 0, 69, 51
1, 193320, Note_on_c, 0, 75, 56
1, 193320, Note_on_c, 0, 51, 47
1, 193320, Note_on_c, 0, 57, 47
1, 193320, Note_on_c, 0, 61, 54
1, 193410, Note_on_c, 0, 61, 0
1, 193410, Note_on_c, 0, 69, 0
1, 193410, Note_on_c, 0, 75, 0
1, 193410, Note_on_c, 0, 64, 0
1, 193410, Note_on_c, 0, 57, 0
1, 193410, Note_on_c, 0, 51, 0
1, 193440, Tempo, 485830
1, 193440, Note_on_c, 0, 64, 54
1, 193440, Note_on_c, 0, 69, 54
1, 193440, Note_on_c, 0, 76, 62
1, 193440, Note_on_c, 0, 49, 50
1, 193440, Note_on_c, 0, 57, 50
1, 193440, Note_on_c, 0, 61, 55
1, 193530, Note_on_c, 0, 61, 0
1, 193530, Note_on_c, 0, 69, 0
1, 193530, Note_on_c, 0, 76, 0
1, 193530, Note_on_c, 0, 64, 0
1, 193530, Note_on_c, 0, 57, 0
1, 193530, Note_on_c, 0, 49, 0
1, 193560, Note_on_c, 0, 64, 54
1, 193560, Note_on_c, 0, 69, 54
1, 193560, Note_on_c, 0, 76, 62
1, 193560, Note_on_c, 0, 49, 50
1, 193560, Note_on_c, 0, 57, 50
1, 193560, Note_on_c, 0, 61, 55
1, 193650, Note_on_c, 0, 61, 0
1, 193650, Note_on_c, 0, 69, 0
1, 193650, Note_on_c, 0, 76, 0
1, 193650, Note_on_c, 0, 64, 0
1, 193650, Note_on_c, 0, 57, 0
1, 193650, Note_on_c, 0, 49, 0
1, 193680, Tempo, 481928
1, 193680, Note_on_c, 0, 64, 53
1, 193680, Note_on_c, 0, 69, 53
1, 193680, Note_on_c, 0, 75, 60
1, 193680, Note_on_c, 0, 51, 47
1, 193680, Note_on_c, 0, 57, 47
1, 193680, Note_on_c, 0, 61, 54
1, 193770, Note_on_c, 0, 61, 0
1, 193770, Note_on_c, 0, 69, 0
1, 193770, Note_on_c, 0, 75, 0
1, 193770, Note_on_c, 0, 64, 0
1, 193770, Note_on_c, 0, 57, 0
1, 193770, Note_on_c, 0, 51, 0
1, 193800, Note_on_c, 0, 64, 53
1, 193800, Note_on_c, 0, 69, 53
1, 193800, Note_on_c, 0, 75, 60
1, 193800, Note_on_c, 0, 51, 47
1, 193800, Note_on_c, 0, 57, 47
1, 193800, Note_on_c, 0, 61, 54
1, 193890, Note_on_c, 0, 61, 0
1, 193890, Note_on_c, 0, 69, 0
1, 193890, Note_on_c, 0, 75, 0
1, 193890, Note_on_c, 0, 64, 0
1, 193890, Note_on_c, 0, 57, 0
1, 193890, Note_on_c, 0, 51, 0
1, 193920, Note_on_c, 0, 64, 50
1, 193920, Note_on_c, 0, 69, 50
1, 193920, Note_on_c, 0, 73, 55
1, 193920, Note_on_c, 0, 52, 45
1, 193920, Note_on_c, 0, 57, 45
1, 193920, Note_on_c, 0, 61, 51
1, 194010, Note_on_c, 0, 61, 0
1, 194010, Note_on_c, 0, 69, 0
1, 194010, Note_on_c, 0, 73, 0
1, 194010, Note_on_c, 0, 64, 0
1, 194010, Note_on_c, 0, 57, 0
1, 194010, Note_on_c, 0, 52, 0
1, 194040, Note_on_c, 0, 64, 50
1, 194040, Note_on_c, 0, 69, 50
1, 194040, Note_on_c, 0, 73, 55
1, 194040, Note_on_c, 0, 52, 45
1, 194040, Note_on_c, 0, 57, 45
1, 194040, Note_on_c, 0, 61, 51
1, 194130, Note_on_c, 0, 61, 0
1, 194130, Note_on_c, 0, 69, 0
1, 194130, Note_on_c, 0, 73, 0
1, 194130, Note_on_c, 0, 64, 0
1, 194130, Note_on_c, 0, 57, 0
1, 194130, Note_on_c, 0, 52, 0
1, 194160, Tempo, 533333
1, 194160, Note_on_c, 0, 63, 45
1, 194160, Note_on_c, 0, 68, 45
1, 194160, Note_on_c, 0, 71, 45
1, 194160, Note_on_c, 0, 75, 52
1, 194160, Note_on_c, 0, 51, 41
1, 194160, Note_on_c, 0, 56, 41
1, 194160, Note_on_c, 0, 59, 45
1, 194280, Tempo, 480000
1, 194280, Note_on_c, 0, 59, 0
1, 194280, Note_on_c, 0, 51, 0
1, 194280, Note_on_c, 0, 68, 0
1, 194280, Note_on_c, 0, 71, 0
1, 194280, Note_on_c, 0, 63, 0
1, 194280, Note_on_c, 0, 56, 0
1, 194280, Note_on_c, 0, 75, 0
1, 194280, Note_on_c, 0, 64, 54
1, 194280, Note_on_c, 0, 76, 54
1, 194280, Note_on_c, 0, 50, 46
1, 194280, Note_on_c, 0, 62, 46
1, 194400, Note_on_c, 0, 62, 0
1, 194400, Note_on_c, 0, 64, 0
1, 194400, Note_on_c, 0, 76, 0
1, 194400, Note_on_c, 0, 50, 0
1, 194400, Note_on_c, 0, 65, 54
1, 194400, Note_on_c, 0, 77, 54
1, 194400, Note_on_c, 0, 49, 47
1, 194400, Note_on_c, 0, 61, 47
1, 194520, Note_on_c, 0, 61, 0
1, 194520, Note_on_c, 0, 65, 0
1, 194520, Note_on_c, 0, 77, 0
1, 194520, Note_on_c, 0, 49, 0
1, 194520, Note_on_c, 0, 66, 55
1, 194520, Note_on_c, 0, 78, 55
1, 194520, Note_on_c, 0, 48, 49
1, 194520, Note_on_c, 0, 60, 49
1, 194640, Note_on_c, 0, 60, 0
1, 194640, Note_on_c, 0, 66, 0
1, 194640, Note_on_c, 0, 78, 0
1, 194640, Note_on_c, 0, 48, 0
1, 194640, Note_on_c, 0, 67, 57
1, 194640, Note_on_c, 0, 79, 57
1, 194640, Note_on_c, 0, 47, 50
1, 194640, Note_on_c, 0, 59, 50
1, 194760, Note_on_c, 0, 59, 0
1, 194760, Note_on_c, 0, 67, 0
1, 194760, Note_on_c, 0, 79, 0
1, 194760, Note_on_c, 0, 47, 0
1, 194760, Note_on_c, 0, 68, 59
1, 194760, Note_on_c, 0, 80, 59
1, 194760, Note_on_c, 0, 46, 51
1, 194760, Note_on_c, 0, 58, 51
1, 194880, Note_on_c, 0, 58, 0
1, 194880, Note_on_c, 0, 68, 0
1, 194880, Note_on_c, 0, 80, 0
1, 194880, Note_on_c, 0, 46, 0
1, 194880, Note_on_c, 0, 69, 60
1, 194880, Note_on_c, 0, 81, 60
1, 194880, Note_on_c, 0, 45, 54
1, 194880, Note_on_c, 0, 57, 54
1, 195000, Note_on_c, 0, 57, 0
1, 195000, Note_on_c, 0, 69, 0
1, 195000, Note_on_c, 0, 81, 0
1, 195000, Note_on_c, 0, 45, 0
1, 195000, Note_on_c, 0, 70, 62
1, 195000, Note_on_c, 0, 82, 62
1, 195000, Note_on_c, 0, 44, 54
1, 195000, Note_on_c, 0, 56, 54
1, 195120, Tempo, 474308
1, 195120, Note_on_c, 0, 56, 0
1, 195120, Note_on_c, 0, 70, 0
1, 195120, Note_on_c, 0, 82, 0
1, 195120, Note_on_c, 0, 44, 0
1, 195120, Note_on_c, 0, 71, 63
1, 195120, Note_on_c, 0, 83, 63
1, 195120, Note_on_c, 0, 43, 55
1, 195120, Note_on_c, 0, 55, 55
1, 195240, Note_on_c, 0, 55, 0
1, 195240, Note_on_c, 0, 71, 0
1, 195240, Note_on_c, 0, 83, 0
1, 195240, Note_on_c, 0, 43, 0
1, 195240, Note_on_c, 0, 72, 64
1, 195240, Note_on_c, 0, 84, 64
1, 195240, Note_on_c, 0, 42, 56
1, 195240, Note_on_c, 0, 54, 56
1, 195360, Note_on_c, 0, 54, 0
1, 195360, Note_on_c, 0, 72, 0
1, 195360, Note_on_c, 0, 84, 0
1, 195360, Note_on_c, 0, 42, 0
1, 195360, Note_on_c, 0, 73, 66
1, 195360, Note_on_c, 0, 85, 66
1, 195360, Note_on_c, 0, 41, 57
1, 195360, Note_on_c, 0, 53, 57
1, 195440, Tempo, 472441
1, 195480, Note_on_c, 0, 53, 0
1, 195480, Note_on_c, 0, 73, 0
1, 195480, Note_on_c, 0, 85, 0
1, 195480, Note_on_c, 0, 41, 0
1, 195480, Note_on_c, 0, 74, 67
1, 195480, Note_on_c, 0, 86, 67
1, 195480, Note_on_c, 0, 40, 59
1, 195480, Note_on_c, 0, 52, 59
1, 195520, Tempo, 470588
1, 195600, Tempo, 468750
1, 195600, Note_on_c, 0, 52, 0
1, 195600, Note_on_c, 0, 74, 0
1, 195600, Note_on_c, 0, 86, 0
1, 195600, Note_on_c, 0, 40, 0
1, 195600, Note_on_c, 0, 75, 62
1, 195600, Note_on_c, 0, 79, 62
1, 195600, Note_on_c, 0, 82, 62
1, 195600, Note_on_c, 0, 87, 62
1, 195600, Note_on_c, 0, 51, 56
1, 195600, Note_on_c, 0, 39, 56
1, 195600, Note_on_c, 0, 43, 56
1, 195600, Note_on_c, 0, 46, 56
1, 195660, Tempo, 466926
1, 195675, Control_c, 0, 64, 127
1, 195720, Note_on_c, 0, 46, 0
1, 195720, Note_on_c, 0, 75, 0
1, 195720, Note_on_c, 0, 51, 0
1, 195720, Note_on_c, 0, 79, 0
1, 195720, Note_on_c, 0, 82, 0
1, 195720, Note_on_c, 0, 87, 0
1, 195720, Note_on_c, 0, 39, 0
1, 195720, Note_on_c, 0, 43, 0
1, 195720, Note_on_c, 0, 76, 71
1, 195720, Note_on_c, 0, 88, 71
1, 195720, Note_on_c, 0, 38, 62
1, 195720, Note_on_c, 0, 50, 62
1, 195740, Tempo, 465116
1, 195800, Tempo, 463320
1, 195840, Note_on_c, 0, 50, 0
1, 195840, Note_on_c, 0, 76, 0
1, 195840, Note_on_c, 0, 88, 0
1, 195840, Note_on_c, 0, 38, 0
1, 195840, Note_on_c, 0, 77, 72
1, 195840, Note_on_c, 0, 89, 72
1, 195840, Note_on_c, 0, 37, 63
1, 195840, Note_on_c, 0, 49, 63
1, 195880, Tempo, 461538
1, 195960, Tempo, 459770
1, 195960, Note_on_c, 0, 49, 0
1, 195960, Note_on_c, 0, 77, 0
1, 195960, Note_on_c, 0, 89, 0
1, 195960, Note_on_c, 0, 37, 0
1, 195960, Note_on_c, 0, 78, 72
1, 195960, Note_on_c, 0, 90, 72
1, 195960, Note_on_c, 0, 36, 64
1, 195960, Note_on_c, 0, 48, 64
1, 196020, Tempo, 458015
1, 196080, Note_on_c, 0, 48, 0
1, 196080, Note_on_c, 0, 78, 0
1, 196080, Note_on_c, 0, 90, 0
1, 196080, Note_on_c, 0, 36, 0
1, 196080, Note_on_c, 0, 79, 75
1, 196080, Note_on_c, 0, 91, 75
1, 196080, Note_on_c, 0, 35, 65
1, 196080, Note_on_c, 0, 47, 65
1, 196100, Tempo, 456274
1, 196160, Tempo, 454545
1, 196200, Note_on_c, 0, 47, 0
1, 196200, Note_on_c, 0, 79, 0
1, 196200, Note_on_c, 0, 91, 0
1, 196200, Note_on_c, 0, 35, 0
1, 196200, Note_on_c, 0, 80, 76
1, 196200, Note_on_c, 0, 92, 76
1, 196200, Note_on_c, 0, 34, 66
1, 196200, Note_on_c, 0, 46, 66
1, 196240, Tempo, 452830
1, 196260, Tempo, 461538
1, 196280, Tempo, 461538
1, 196300, Tempo, 463320
1, 196320, Tempo, 465116
1, 196320, Note_on_c, 0, 46, 0
1, 196320, Note_on_c, 0, 80, 0
1, 196320, Note_on_c, 0, 92, 0
1, 196320, Note_on_c, 0, 34, 0
1, 196320, Note_on_c, 0, 81, 77
1, 196320, Note_on_c, 0, 93, 77
1, 196320, Note_on_c, 0, 33, 69
1, 196320, Note_on_c, 0, 45, 69
1, 196340, Tempo, 466926
1, 196360, Tempo, 468750
1, 196380, Tempo, 470588
1, 196400, Tempo, 472441
1, 196420, Tempo, 474308
1, 196440, Tempo, 476190
1, 196440, Note_on_c, 0, 45, 0
1, 196440, Note_on_c, 0, 81, 0
1, 196440, Note_on_c, 0, 93, 0
1, 196440, Note_on_c, 0, 33, 0
1, 196440, Note_on_c, 0, 82, 79
1, 196440, Note_on_c, 0, 94, 79
1, 196440, Note_on_c, 0, 32, 70
1, 196440, Note_on_c, 0, 44, 70
1, 196460, Tempo, 480000
1, 196480, Tempo, 481928
1, 196500, Tempo, 483871
1, 196520, Tempo, 485830
1, 196540, Tempo, 487805
1, 196560, Tempo, 489796
1, 196560, Note_on_c, 0, 44, 0
1, 196560, Note_on_c, 0, 82, 0
1, 196560, Note_on_c, 0, 94, 0
1, 196560, Note_on_c, 0, 32, 0
1, 196560, Note_on_c, 0, 83, 81
1, 196560, Note_on_c, 0, 95, 81
1, 196560, Note_on_c, 0, 31, 67
1, 196560, Note_on_c, 0, 43, 67
1, 196580, Tempo, 491803
1, 196600, Tempo, 493827
1, 196620, Tempo, 497925
1, 196640, Tempo, 500000
1, 196660, Tempo, 502092
1, 196680, Tempo, 504202
1, 196680, Note_on_c, 0, 43, 0
1, 196680, Note_on_c, 0, 83, 0
1, 196680, Note_on_c, 0, 95, 0
1, 196680, Note_on_c, 0, 31, 0
1, 196680, Note_on_c, 0, 85, 83
1, 196680, Note_on_c, 0, 97, 83
1, 196680, Note_on_c, 0, 30, 67
1, 196680, Note_on_c, 0, 42, 67
1, 196700, Tempo, 506329
1, 196720, Tempo, 508475
1, 196740, Tempo, 510638
1, 196760, Tempo, 512821
1, 196800, Tempo, 528634
1, 196800, Note_on_c, 0, 42, 0
1, 196800, Note_on_c, 0, 85, 0
1, 196800, Note_on_c, 0, 97, 0
1, 196800, Note_on_c, 0, 30, 0
1, 196800, Note_on_c, 0, 86, 86
1, 196800, Note_on_c, 0, 98, 86
1, 196800, Note_on_c, 0, 28, 69
1, 196800, Note_on_c, 0, 40, 69
1, 196920, Tempo, 579710
1, 196920, Note_on_c, 0, 40, 0
1, 196920, Note_on_c, 0, 86, 0
1, 196920, Note_on_c, 0, 98, 0
1, 196920, Note_on_c, 0, 28, 0
1, 196920, Note_on_c, 0, 87, 90
1, 196920, Note_on_c, 0, 99, 90
1, 196920, Note_on_c, 0, 27, 71
1, 196920, Note_on_c, 0, 39, 71
1, 197030, Note_on_c, 0, 39, 0
1, 197030, Note_on_c, 0, 87, 0
1, 197030, Note_on_c, 0, 99, 0
1, 197030, Note_on_c, 0, 27, 0
1, 197040, Tempo, 510117
1, 197040, Marker_t, "Animato"
1, 197040, Note_on_c, 0, 59, 89
1, 197040, Note_on_c, 0, 63, 89
1, 197040, Note_on_c, 0, 68, 99
1, 197040, Control_c, 0, 64, 0
1, 197040, Note_on_c, 0, 32, 61
1, 197040, Note_on_c, 0, 44, 81
1, 197060, Tempo, 519751
1, 197086, Control_c, 0, 64, 127
1, 197277, Control_c, 0, 64, 0
1, 197280, Tempo, 502092
1, 197280, Note_on_c, 0, 44, 0
1, 197280, Note_on_c, 0, 68, 0
1, 197280, Note_on_c, 0, 59, 0
1, 197280, Note_on_c, 0, 63, 0
1, 197280, Note_on_c, 0, 32, 0
1, 197280, Note_on_c, 0, 39, 67
1, 197280, Note_on_c, 0, 51, 79
1, 197337, Control_c, 0, 64, 127
1, 197400, Note_on_c, 0, 51, 0
1, 197400, Note_on_c, 0, 39, 0
1, 197400, Note_on_c, 0, 44, 67
1, 197400, Note_on_c, 0, 56, 79
1, 197520, Tempo, 480577
1, 197520, Note_on_c, 0, 56, 0
1, 197520, Note_on_c, 0, 44, 0
1, 197520, Note_on_c, 0, 83, 89
1, 197520, Note_on_c, 0, 75, 74
1, 197520, Note_on_c, 0, 71, 74
1, 197520, Note_on_c, 0, 63, 75
1, 197520, Note_on_c, 0, 51, 63
1, 197640, Control_c, 0, 64, 0
1, 197700, Note_on_c, 0, 51, 0
1, 197700, Note_on_c, 0, 71, 0
1, 197700, Note_on_c, 0, 83, 0
1, 197700, Note_on_c, 0, 75, 0
1, 197700, Note_on_c, 0, 63, 0
1, 197760, Tempo, 474308
1, 197760, Note_on_c, 0, 82, 80
1, 197760, Note_on_c, 0, 75, 68
1, 197760, Note_on_c, 0, 70, 68
1, 197760, Note_on_c, 0, 32, 74
1, 197760, Note_on_c, 0, 44, 89
1, 197813, Control_c, 0, 64, 127
1, 197880, Tempo, 468750
1, 197880, Note_on_c, 0, 70, 0
1, 197880, Note_on_c, 0, 82, 0
1, 197880, Note_on_c, 0, 75, 0
1, 197880, Note_on_c, 0, 71, 68
1, 197880, Note_on_c, 0, 83, 80
1, 198000, Tempo, 476796
1, 198000, Note_on_c, 0, 83, 0
1, 198000, Note_on_c, 0, 44, 0
1, 198000, Note_on_c, 0, 32, 0
1, 198000, Note_on_c, 0, 71, 0
1, 198000, Note_on_c, 0, 85, 90
1, 198000, Note_on_c, 0, 73, 75
1, 198000, Note_on_c, 0, 39, 68
1, 198000, Note_on_c, 0, 51, 80
1, 198004, Control_c, 0, 64, 0
1, 198053, Control_c, 0, 64, 127
1, 198120, Note_on_c, 0, 51, 0
1, 198120, Note_on_c, 0, 39, 0
1, 198120, Note_on_c, 0, 44, 68
1, 198120, Note_on_c, 0, 56, 80
1, 198180, Note_on_c, 0, 73, 0
1, 198180, Note_on_c, 0, 85, 0
1, 198240, Tempo, 463929
1, 198240, Note_on_c, 0, 44, 0
1, 198240, Note_on_c, 0, 56, 0
1, 198240, Note_on_c, 0, 75, 68
1, 198240, Note_on_c, 0, 83, 80
1, 198240, Note_on_c, 0, 71, 68
1, 198240, Note_on_c, 0, 63, 77
1, 198240, Note_on_c, 0, 51, 64
1, 198272, Control_c, 0, 64, 0
1, 198360, Note_on_c, 0, 71, 0
1, 198360, Note_on_c, 0, 75, 0
1, 198360, Note_on_c, 0, 83, 0
1, 198360, Note_on_c, 0, 82, 80
1, 198360, Note_on_c, 0, 70, 68
1, 198420, Note_on_c, 0, 63, 0
1, 198420, Note_on_c, 0, 51, 0
1, 198480, Tempo, 456274
1, 198480, Note_on_c, 0, 82, 0
1, 198480, Note_on_c, 0, 70, 0
1, 198480, Note_on_c, 0, 83, 81
1, 198480, Note_on_c, 0, 75, 68
1, 198480, Note_on_c, 0, 71, 68
1, 198480, Note_on_c, 0, 32, 74
1, 198480, Note_on_c, 0, 44, 89
1, 198526, Control_c, 0, 64, 127
1, 198600, Tempo, 479348
1, 198600, Note_on_c, 0, 71, 0
1, 198600, Note_on_c, 0, 83, 0
1, 198600, Note_on_c, 0, 75, 0
1, 198600, Note_on_c, 0, 85, 84
1, 198600, Note_on_c, 0, 73, 71
1, 198720, Tempo, 469851
1, 198720, Note_on_c, 0, 73, 0
1, 198720, Note_on_c, 0, 44, 0
1, 198720, Note_on_c, 0, 32, 0
1, 198720, Note_on_c, 0, 85, 0
1, 198720, Note_on_c, 0, 75, 77
1, 198720, Note_on_c, 0, 87, 91
1, 198720, Note_on_c, 0, 39, 67
1, 198720, Note_on_c, 0, 51, 79
1, 198738, Control_c, 0, 64, 0
1, 198798, Control_c, 0, 64, 127
1, 198840, Note_on_c, 0, 51, 0
1, 198840, Note_on_c, 0, 39, 0
1, 198840, Note_on_c, 0, 44, 67
1, 198840, Note_on_c, 0, 56, 79
1, 198900, Note_on_c, 0, 87, 0
1, 198900, Note_on_c, 0, 75, 0
1, 198960, Tempo, 463929
1, 198960, Note_on_c, 0, 44, 0
1, 198960, Note_on_c, 0, 56, 0
1, 198960, Note_on_c, 0, 85, 83
1, 198960, Note_on_c, 0, 73, 70
1, 198960, Note_on_c, 0, 63, 73
1, 198960, Note_on_c, 0, 51, 61
1, 198980, Control_c, 0, 64, 0
1, 199080, Note_on_c, 0, 73, 0
1, 199080, Note_on_c, 0, 85, 0
1, 199080, Note_on_c, 0, 71, 69
1, 199080, Note_on_c, 0, 83, 82
1, 199140, Note_on_c, 0, 63, 0
1, 199140, Note_on_c, 0, 51, 0
1, 199200, Tempo, 459770
1, 199200, Note_on_c, 0, 71, 0
1, 199200, Note_on_c, 0, 83, 0
1, 199200, Note_on_c, 0, 82, 81
1, 199200, Note_on_c, 0, 75, 68
1, 199200, Note_on_c, 0, 70, 68
1, 199200, Note_on_c, 0, 32, 74
1, 199200, Note_on_c, 0, 44, 89
1, 199260, Control_c, 0, 64, 127
1, 199320, Tempo, 484418
1, 199320, Note_on_c, 0, 70, 0
1, 199320, Note_on_c, 0, 82, 0
1, 199320, Note_on_c, 0, 75, 0
1, 199320, Note_on_c, 0, 83, 81
1, 199320, Note_on_c, 0, 71, 68
1, 199440, Tempo, 474909
1, 199440, Note_on_c, 0, 71, 0
1, 199440, Note_on_c, 0, 44, 0
1, 199440, Note_on_c, 0, 32, 0
1, 199440, Note_on_c, 0, 83, 0
1, 199440, Note_on_c, 0, 73, 74
1, 199440, Note_on_c, 0, 85, 89
1, 199440, Note_on_c, 0, 39, 68
1, 199440, Note_on_c, 0, 51, 80
1, 199451, Control_c, 0, 64, 0
1, 199511, Control_c, 0, 64, 127
1, 199560, Note_on_c, 0, 51, 0
1, 199560, Note_on_c, 0, 39, 0
1, 199560, Note_on_c, 0, 44, 68
1, 199560, Note_on_c, 0, 56, 80
1, 199620, Note_on_c, 0, 85, 0
1, 199620, Note_on_c, 0, 73, 0
1, 199680, Tempo, 463929
1, 199680, Note_on_c, 0, 44, 0
1, 199680, Note_on_c, 0, 56, 0
1, 199680, Note_on_c, 0, 75, 68
1, 199680, Note_on_c, 0, 83, 81
1, 199680, Note_on_c, 0, 71, 68
1, 199680, Note_on_c, 0, 63, 78
1, 199680, Note_on_c, 0, 51, 66
1, 199698, Control_c, 0, 64, 0
1, 199800, Tempo, 486342
1, 199800, Note_on_c, 0, 71, 0
1, 199800, Note_on_c, 0, 75, 0
1, 199800, Note_on_c, 0, 83, 0
1, 199800, Note_on_c, 0, 70, 68
1, 199800, Note_on_c, 0, 82, 81
1, 199860, Note_on_c, 0, 63, 0
1, 199860, Note_on_c, 0, 51, 0
1, 199920, Tempo, 464324
1, 199920, Note_on_c, 0, 70, 0
1, 199920, Note_on_c, 0, 82, 0
1, 199920, Note_on_c, 0, 71, 62
1, 199920, Note_on_c, 0, 75, 62
1, 199920, Note_on_c, 0, 83, 89
1, 199920, Note_on_c, 0, 32, 62
1, 199920, Note_on_c, 0, 44, 89
1, 199970, Control_c, 0, 64, 127
1, 200040, Tempo, 471772
1, 200040, Note_on_c, 0, 83, 0
1, 200040, Note_on_c, 0, 71, 0
1, 200040, Note_on_c, 0, 75, 0
1, 200040, Note_on_c, 0, 82, 83
1, 200040, Note_on_c, 0, 70, 59
1, 200160, Tempo, 481928
1, 200160, Note_on_c, 0, 70, 0
1, 200160, Note_on_c, 0, 44, 0
1, 200160, Note_on_c, 0, 32, 0
1, 200160, Note_on_c, 0, 82, 0
1, 200160, Note_on_c, 0, 80, 83
1, 200160, Note_on_c, 0, 68, 59
1, 200160, Note_on_c, 0, 39, 56
1, 200160, Note_on_c, 0, 51, 79
1, 200171, Control_c, 0, 64, 0
1, 200217, Control_c, 0, 64, 127
1, 200280, Note_on_c, 0, 51, 0
1, 200280, Note_on_c, 0, 39, 0
1, 200280, Note_on_c, 0, 44, 56
1, 200280, Note_on_c, 0, 56, 79
1, 200400, Tempo, 474909
1, 200400, Note_on_c, 0, 56, 0
1, 200400, Note_on_c, 0, 80, 0
1, 200400, Note_on_c, 0, 68, 0
1, 200400, Note_on_c, 0, 44, 0
1, 200400, Note_on_c, 0, 95, 89
1, 200400, Note_on_c, 0, 87, 62
1, 200400, Note_on_c, 0, 83, 62
1, 200400, Note_on_c, 0, 63, 77
1, 200400, Note_on_c, 0, 51, 55
1, 200492, Control_c, 0, 64, 0
1, 200580, Note_on_c, 0, 51, 0
1, 200580, Note_on_c, 0, 83, 0
1, 200580, Note_on_c, 0, 95, 0
1, 200580, Note_on_c, 0, 87, 0
1, 200580, Note_on_c, 0, 63, 0
1, 200640, Tempo, 458015
1, 200640, Note_on_c, 0, 94, 81
1, 200640, Note_on_c, 0, 87, 57
1, 200640, Note_on_c, 0, 82, 57
1, 200640, Note_on_c, 0, 32, 62
1, 200640, Note_on_c, 0, 44, 89
1, 200683, Control_c, 0, 64, 127
1, 200760, Tempo, 481271
1, 200760, Note_on_c, 0, 82, 0
1, 200760, Note_on_c, 0, 94, 0
1, 200760, Note_on_c, 0, 87, 0
1, 200760, Note_on_c, 0, 83, 57
1, 200760, Note_on_c, 0, 95, 81
1, 200880, Tempo, 468019
1, 200880, Note_on_c, 0, 95, 0
1, 200880, Note_on_c, 0, 44, 0
1, 200880, Note_on_c, 0, 32, 0
1, 200880, Note_on_c, 0, 83, 0
1, 200880, Note_on_c, 0, 97, 91
1, 200880, Note_on_c, 0, 85, 64
1, 200880, Note_on_c, 0, 39, 57
1, 200880, Note_on_c, 0, 51, 80
1, 200894, Control_c, 0, 64, 0
1, 200937, Control_c, 0, 64, 127
1, 201000, Note_on_c, 0, 51, 0
1, 201000, Note_on_c, 0, 39, 0
1, 201000, Note_on_c, 0, 44, 57
1, 201000, Note_on_c, 0, 56, 80
1, 201060, Note_on_c, 0, 85, 0
1, 201060, Note_on_c, 0, 97, 0
1, 201120, Tempo, 463929
1, 201120, Note_on_c, 0, 44, 0
1, 201120, Note_on_c, 0, 56, 0
1, 201120, Note_on_c, 0, 87, 56
1, 201120, Note_on_c, 0, 95, 79
1, 201120, Note_on_c, 0, 83, 56
1, 201120, Note_on_c, 0, 63, 77
1, 201120, Note_on_c, 0, 51, 55
1, 201134, Control_c, 0, 64, 0
1, 201240, Note_on_c, 0, 83, 0
1, 201240, Note_on_c, 0, 87, 0
1, 201240, Note_on_c, 0, 95, 0
1, 201240, Note_on_c, 0, 94, 79
1, 201240, Note_on_c, 0, 82, 56
1, 201300, Note_on_c, 0, 63, 0
1, 201300, Note_on_c, 0, 51, 0
1, 201360, Tempo, 468750
1, 201360, Note_on_c, 0, 94, 0
1, 201360, Note_on_c, 0, 82, 0
1, 201360, Note_on_c, 0, 95, 81
1, 201360, Note_on_c, 0, 87, 68
1, 201360, Note_on_c, 0, 83, 68
1, 201360, Note_on_c, 0, 32, 74
1, 201360, Note_on_c, 0, 44, 89
1, 201399, Control_c, 0, 64, 127
1, 201460, Tempo, 458015
1, 201480, Note_on_c, 0, 83, 0
1, 201480, Note_on_c, 0, 95, 0
1, 201480, Note_on_c, 0, 87, 0
1, 201480, Note_on_c, 0, 97, 84
1, 201480, Note_on_c, 0, 85, 71
1, 201600, Tempo, 468019
1, 201600, Note_on_c, 0, 85, 0
1, 201600, Note_on_c, 0, 44, 0
1, 201600, Note_on_c, 0, 32, 0
1, 201600, Note_on_c, 0, 97, 0
1, 201600, Note_on_c, 0, 87, 77
1, 201600, Note_on_c, 0, 99, 91
1, 201600, Note_on_c, 0, 39, 67
1, 201600, Note_on_c, 0, 51, 79
1, 201611, Control_c, 0, 64, 0
1, 201646, Control_c, 0, 64, 127
1, 201720, Note_on_c, 0, 51, 0
1, 201720, Note_on_c, 0, 39, 0
1, 201720, Note_on_c, 0, 44, 67
1, 201720, Note_on_c, 0, 56, 79
1, 201780, Note_on_c, 0, 99, 0
1, 201780, Note_on_c, 0, 87, 0
1, 201840, Tempo, 463929
1, 201840, Note_on_c, 0, 44, 0
1, 201840, Note_on_c, 0, 56, 0
1, 201840, Note_on_c, 0, 97, 80
1, 201840, Note_on_c, 0, 85, 68
1, 201840, Note_on_c, 0, 63, 78
1, 201840, Note_on_c, 0, 51, 66
1, 201859, Control_c, 0, 64, 0
1, 201960, Note_on_c, 0, 85, 0
1, 201960, Note_on_c, 0, 97, 0
1, 201960, Note_on_c, 0, 83, 68
1, 201960, Note_on_c, 0, 95, 80
1, 202020, Note_on_c, 0, 63, 0
1, 202020, Note_on_c, 0, 51, 0
1, 202080, Tempo, 468019
1, 202080, Note_on_c, 0, 83, 0
1, 202080, Note_on_c, 0, 95, 0
1, 202080, Note_on_c, 0, 94, 80
1, 202080, Note_on_c, 0, 87, 68
1, 202080, Note_on_c, 0, 82, 68
1, 202080, Note_on_c, 0, 32, 74
1, 202080, Note_on_c, 0, 44, 89
1, 202140, Control_c, 0, 64, 127
1, 202200, Tempo, 456274
1, 202200, Note_on_c, 0, 82, 0
1, 202200, Note_on_c, 0, 94, 0
1, 202200, Note_on_c, 0, 87, 0
1, 202200, Note_on_c, 0, 95, 80
1, 202200, Note_on_c, 0, 83, 68
1, 202320, Tempo, 468019
1, 202320, Note_on_c, 0, 83, 0
1, 202320, Note_on_c, 0, 44, 0
1, 202320, Note_on_c, 0, 32, 0
1, 202320, Note_on_c, 0, 95, 0
1, 202320, Note_on_c, 0, 85, 77
1, 202320, Note_on_c, 0, 97, 91
1, 202320, Note_on_c, 0, 39, 68
1, 202320, Note_on_c, 0, 51, 81
1, 202341, Control_c, 0, 64, 0
1, 202394, Control_c, 0, 64, 127
1, 202440, Note_on_c, 0, 51, 0
1, 202440, Note_on_c, 0, 39, 0
1, 202440, Note_on_c, 0, 44, 68
1, 202440, Note_on_c, 0, 56, 81
1, 202500, Note_on_c, 0, 97, 0
1, 202500, Note_on_c, 0, 85, 0
1, 202560, Tempo, 458891
1, 202560, Note_on_c, 0, 44, 0
1, 202560, Note_on_c, 0, 56, 0
1, 202560, Note_on_c, 0, 87, 69
1, 202560, Note_on_c, 0, 95, 82
1, 202560, Note_on_c, 0, 83, 69
1, 202560, Note_on_c, 0, 63, 78
1, 202560, Note_on_c, 0, 51, 66
1, 202578, Control_c, 0, 64, 0
1, 202680, Tempo, 475549
1, 202680, Note_on_c, 0, 83, 0
1, 202680, Note_on_c, 0, 87, 0
1, 202680, Note_on_c, 0, 95, 0
1, 202680, Note_on_c, 0, 82, 70
1, 202680, Note_on_c, 0, 94, 83
1, 202740, Note_on_c, 0, 63, 0
1, 202740, Note_on_c, 0, 51, 0
1, 202800, Tempo, 461538
1, 202800, Note_on_c, 0, 82, 0
1, 202800, Note_on_c, 0, 94, 0
1, 202800, Note_on_c, 0, 83, 77
1, 202800, Note_on_c, 0, 87, 91
1, 202800, Note_on_c, 0, 95, 91
1, 202800, Note_on_c, 0, 32, 74
1, 202800, Note_on_c, 0, 44, 89
1, 202892, Control_c, 0, 64, 127
1, 202920, Tempo, 474308
1, 202920, Note_on_c, 0, 95, 0
1, 202920, Note_on_c, 0, 83, 0
1, 202920, Note_on_c, 0, 87, 0
1, 202920, Note_on_c, 0, 94, 83
1, 202920, Note_on_c, 0, 82, 70
1, 203040, Tempo, 506329
1, 203040, Note_on_c, 0, 82, 0
1, 203040, Note_on_c, 0, 44, 0
1, 203040, Note_on_c, 0, 32, 0
1, 203040, Note_on_c, 0, 94, 0
1, 203040, Note_on_c, 0, 92, 83
1, 203040, Note_on_c, 0, 80, 70
1, 203040, Note_on_c, 0, 39, 68
1, 203040, Note_on_c, 0, 51, 81
1, 203054, Control_c, 0, 64, 0
1, 203132, Control_c, 0, 64, 127
1, 203160, Note_on_c, 0, 51, 0
1, 203160, Note_on_c, 0, 39, 0
1, 203160, Note_on_c, 0, 44, 68
1, 203160, Note_on_c, 0, 56, 81
1, 203280, Tempo, 480577
1, 203280, Note_on_c, 0, 56, 0
1, 203280, Note_on_c, 0, 92, 0
1, 203280, Note_on_c, 0, 80, 0
1, 203280, Note_on_c, 0, 44, 0
1, 203280, Note_on_c, 0, 63, 68
1, 203280, Note_on_c, 0, 71, 68
1, 203280, Note_on_c, 0, 75, 81
1, 203280, Note_on_c, 0, 47, 74
1, 203280, Note_on_c, 0, 59, 88
1, 203280, Note_on_c, 0, 51, 74
1, 203513, Control_c, 0, 64, 0
1, 203520, Tempo, 463929
1, 203520, Note_on_c, 0, 51, 0
1, 203520, Note_on_c, 0, 71, 0
1, 203520, Note_on_c, 0, 75, 0
1, 203520, Note_on_c, 0, 63, 0
1, 203520, Note_on_c, 0, 59, 0
1, 203520, Note_on_c, 0, 47, 0
1, 203520, Note_on_c, 0, 63, 60
1, 203520, Note_on_c, 0, 70, 60
1, 203520, Note_on_c, 0, 75, 71
1, 203520, Note_on_c, 0, 46, 69
1, 203520, Note_on_c, 0, 51, 69
1, 203520, Note_on_c, 0, 58, 82
1, 203640, Tempo, 492368
1, 203640, Note_on_c, 0, 58, 0
1, 203640, Note_on_c, 0, 70, 0
1, 203640, Note_on_c, 0, 75, 0
1, 203640, Note_on_c, 0, 63, 0
1, 203640, Note_on_c, 0, 51, 0
1, 203640, Note_on_c, 0, 46, 0
1, 203640, Note_on_c, 0, 63, 60
1, 203640, Note_on_c, 0, 71, 60
1, 203640, Note_on_c, 0, 75, 71
1, 203640, Note_on_c, 0, 47, 69
1, 203640, Note_on_c, 0, 51, 69
1, 203640, Note_on_c, 0, 59, 82
1, 203760, Tempo, 480577
1, 203760, Note_on_c, 0, 59, 0
1, 203760, Note_on_c, 0, 71, 0
1, 203760, Note_on_c, 0, 75, 0
1, 203760, Note_on_c, 0, 63, 0
1, 203760, Note_on_c, 0, 51, 0
1, 203760, Note_on_c, 0, 47, 0
1, 203760, Note_on_c, 0, 63, 66
1, 203760, Note_on_c, 0, 73, 78
1, 203760, Note_on_c, 0, 75, 78
1, 203760, Note_on_c, 0, 49, 74
1, 203760, Note_on_c, 0, 51, 74
1, 203760, Note_on_c, 0, 61, 88
1, 203831, Control_c, 0, 64, 127
1, 204000, Tempo, 463929
1, 204000, Note_on_c, 0, 61, 0
1, 204000, Note_on_c, 0, 73, 0
1, 204000, Note_on_c, 0, 75, 0
1, 204000, Note_on_c, 0, 63, 0
1, 204000, Note_on_c, 0, 51, 0
1, 204000, Note_on_c, 0, 49, 0
1, 204000, Note_on_c, 0, 63, 61
1, 204000, Note_on_c, 0, 71, 61
1, 204000, Note_on_c, 0, 75, 73
1, 204000, Note_on_c, 0, 51, 68
1, 204000, Note_on_c, 0, 47, 68
1, 204000, Note_on_c, 0, 59, 81
1, 204008, Control_c, 0, 64, 0
1, 204085, Control_c, 0, 64, 127
1, 204120, Tempo, 496401
1, 204120, Note_on_c, 0, 59, 0
1, 204120, Note_on_c, 0, 71, 0
1, 204120, Note_on_c, 0, 75, 0
1, 204120, Note_on_c, 0, 63, 0
1, 204120, Note_on_c, 0, 47, 0
1, 204120, Note_on_c, 0, 51, 0
1, 204120, Note_on_c, 0, 63, 61
1, 204120, Note_on_c, 0, 70, 61
1, 204120, Note_on_c, 0, 75, 73
1, 204120, Note_on_c, 0, 46, 68
1, 204120, Note_on_c, 0, 58, 81
1, 204120, Note_on_c, 0, 51, 68
1, 204240, Tempo, 482470
1, 204240, Note_on_c, 0, 51, 0
1, 204240, Note_on_c, 0, 70, 0
1, 204240, Note_on_c, 0, 75, 0
1, 204240, Note_on_c, 0, 63, 0
1, 204240, Note_on_c, 0, 58, 0
1, 204240, Note_on_c, 0, 46, 0
1, 204240, Note_on_c, 0, 63, 67
1, 204240, Note_on_c, 0, 71, 79
1, 204240, Note_on_c, 0, 75, 79
1, 204240, Control_c, 0, 64, 0
1, 204240, Note_on_c, 0, 47, 74
1, 204240, Note_on_c, 0, 51, 74
1, 204240, Note_on_c, 0, 59, 88
1, 204325, Control_c, 0, 64, 127
1, 204360, Tempo, 502639
1, 204360, Note_on_c, 0, 59, 0
1, 204360, Note_on_c, 0, 71, 0
1, 204360, Note_on_c, 0, 75, 0
1, 204360, Note_on_c, 0, 63, 0
1, 204360, Note_on_c, 0, 51, 0
1, 204360, Note_on_c, 0, 47, 0
1, 204360, Note_on_c, 0, 63, 61
1, 204360, Note_on_c, 0, 70, 61
1, 204360, Note_on_c, 0, 75, 73
1, 204360, Note_on_c, 0, 46, 70
1, 204360, Note_on_c, 0, 51, 70
1, 204360, Note_on_c, 0, 58, 83
1, 204480, Tempo, 547945
1, 204480, Note_on_c, 0, 58, 0
1, 204480, Note_on_c, 0, 70, 0
1, 204480, Note_on_c, 0, 75, 0
1, 204480, Note_on_c, 0, 63, 0
1, 204480, Note_on_c, 0, 51, 0
1, 204480, Note_on_c, 0, 46, 0
1, 204480, Note_on_c, 0, 63, 61
1, 204480, Note_on_c, 0, 68, 61
1, 204480, Note_on_c, 0, 75, 73
1, 204480, Note_on_c, 0, 44, 70
1, 204480, Note_on_c, 0, 51, 70
1, 204480, Note_on_c, 0, 56, 83
1, 204496, Control_c, 0, 64, 0
1, 204607, Control_c, 0, 64, 127
1, 204696, Note_on_c, 0, 56, 0
1, 204696, Note_on_c, 0, 68, 0
1, 204696, Note_on_c, 0, 75, 0
1, 204696, Note_on_c, 0, 63, 0
1, 204696, Note_on_c, 0, 51, 0
1, 204696, Note_on_c, 0, 44, 0
1, 204720, Tempo, 511073
1, 204720, Note_on_c, 0, 87, 108
1, 204720, Note_on_c, 0, 80, 92
1, 204720, Note_on_c, 0, 75, 92
1, 204720, Note_on_c, 0, 32, 88
1, 204720, Note_on_c, 0, 39, 88
1, 204720, Note_on_c, 0, 44, 104
1, 204900, Note_on_c, 0, 44, 0
1, 204900, Note_on_c, 0, 80, 0
1, 204900, Note_on_c, 0, 75, 0
1, 204900, Note_on_c, 0, 87, 0
1, 204900, Note_on_c, 0, 39, 0
1, 204900, Note_on_c, 0, 32, 0
1, 204946, Control_c, 0, 64, 0
1, 204960, Tempo, 500542
1, 204960, Note_on_c, 0, 63, 60
1, 204960, Note_on_c, 0, 70, 60
1, 204960, Note_on_c, 0, 75, 71
1, 204960, Note_on_c, 0, 46, 69
1, 204960, Note_on_c, 0, 51, 69
1, 204960, Note_on_c, 0, 58, 82
1, 205080, Tempo, 543331
1, 205080, Note_on_c, 0, 58, 0
1, 205080, Note_on_c, 0, 70, 0
1, 205080, Note_on_c, 0, 75, 0
1, 205080, Note_on_c, 0, 63, 0
1, 205080, Note_on_c, 0, 51, 0
1, 205080, Note_on_c, 0, 46, 0
1, 205080, Note_on_c, 0, 63, 60
1, 205080, Note_on_c, 0, 71, 71
1, 205080, Note_on_c, 0, 75, 71
1, 205080, Note_on_c, 0, 47, 69
1, 205080, Note_on_c, 0, 51, 69
1, 205080, Note_on_c, 0, 59, 82
1, 205180, Tempo, 487884
1, 205200, Tempo, 500542
1, 205200, Note_on_c, 0, 59, 0
1, 205200, Note_on_c, 0, 71, 0
1, 205200, Note_on_c, 0, 75, 0
1, 205200, Note_on_c, 0, 63, 0
1, 205200, Note_on_c, 0, 51, 0
1, 205200, Note_on_c, 0, 47, 0
1, 205200, Note_on_c, 0, 63, 66
1, 205200, Note_on_c, 0, 73, 66
1, 205200, Note_on_c, 0, 75, 78
1, 205200, Note_on_c, 0, 49, 74
1, 205200, Note_on_c, 0, 51, 74
1, 205200, Note_on_c, 0, 61, 88
1, 205264, Control_c, 0, 64, 127
1, 205440, Tempo, 488440
1, 205440, Note_on_c, 0, 61, 0
1, 205440, Note_on_c, 0, 73, 0
1, 205440, Note_on_c, 0, 75, 0
1, 205440, Note_on_c, 0, 63, 0
1, 205440, Note_on_c, 0, 51, 0
1, 205440, Note_on_c, 0, 49, 0
1, 205440, Note_on_c, 0, 63, 61
1, 205440, Note_on_c, 0, 71, 61
1, 205440, Note_on_c, 0, 75, 73
1, 205440, Note_on_c, 0, 51, 68
1, 205440, Note_on_c, 0, 47, 68
1, 205440, Note_on_c, 0, 59, 81
1, 205449, Control_c, 0, 64, 0
1, 205532, Control_c, 0, 64, 127
1, 205560, Tempo, 529054
1, 205560, Note_on_c, 0, 59, 0
1, 205560, Note_on_c, 0, 71, 0
1, 205560, Note_on_c, 0, 75, 0
1, 205560, Note_on_c, 0, 63, 0
1, 205560, Note_on_c, 0, 47, 0
1, 205560, Note_on_c, 0, 51, 0
1, 205560, Note_on_c, 0, 63, 61
1, 205560, Note_on_c, 0, 70, 61
1, 205560, Note_on_c, 0, 75, 73
1, 205560, Note_on_c, 0, 46, 68
1, 205560, Note_on_c, 0, 58, 81
1, 205560, Note_on_c, 0, 51, 68
1, 205680, Tempo, 513303
1, 205680, Note_on_c, 0, 51, 0
1, 205680, Note_on_c, 0, 70, 0
1, 205680, Note_on_c, 0, 75, 0
1, 205680, Note_on_c, 0, 63, 0
1, 205680, Note_on_c, 0, 58, 0
1, 205680, Note_on_c, 0, 46, 0
1, 205680, Note_on_c, 0, 63, 67
1, 205680, Note_on_c, 0, 71, 67
1, 205680, Note_on_c, 0, 75, 79
1, 205680, Control_c, 0, 64, 0
1, 205680, Note_on_c, 0, 47, 74
1, 205680, Note_on_c, 0, 51, 74
1, 205680, Note_on_c, 0, 59, 88
1, 205758, Control_c, 0, 64, 127
1, 205800, Note_on_c, 0, 59, 0
1, 205800, Note_on_c, 0, 71, 0
1, 205800, Note_on_c, 0, 75, 0
1, 205800, Note_on_c, 0, 63, 0
1, 205800, Note_on_c, 0, 51, 0
1, 205800, Note_on_c, 0, 47, 0
1, 205800, Note_on_c, 0, 63, 61
1, 205800, Note_on_c, 0, 70, 61
1, 205800, Note_on_c, 0, 75, 73
1, 205800, Note_on_c, 0, 46, 70
1, 205800, Note_on_c, 0, 51, 70
1, 205800, Note_on_c, 0, 58, 83
1, 205920, Tempo, 526316
1, 205920, Note_on_c, 0, 58, 0
1, 205920, Note_on_c, 0, 70, 0
1, 205920, Note_on_c, 0, 75, 0
1, 205920, Note_on_c, 0, 63, 0
1, 205920, Note_on_c, 0, 51, 0
1, 205920, Note_on_c, 0, 46, 0
1, 205920, Note_on_c, 0, 63, 61
1, 205920, Note_on_c, 0, 68, 61
1, 205920, Note_on_c, 0, 75, 73
1, 205920, Note_on_c, 0, 44, 70
1, 205920, Note_on_c, 0, 51, 70
1, 205920, Note_on_c, 0, 56, 83
1, 205937, Control_c, 0, 64, 0
1, 205998, Control_c, 0, 64, 127
1, 206136, Note_on_c, 0, 56, 0
1, 206136, Note_on_c, 0, 68, 0
1, 206136, Note_on_c, 0, 75, 0
1, 206136, Note_on_c, 0, 63, 0
1, 206136, Note_on_c, 0, 51, 0
1, 206136, Note_on_c, 0, 44, 0
1, 206160, Tempo, 472255
1, 206160, Note_on_c, 0, 87, 108
1, 206160, Note_on_c, 0, 80, 92
1, 206160, Note_on_c, 0, 75, 92
1, 206160, Note_on_c, 0, 32, 88
1, 206160, Note_on_c, 0, 39, 88
1, 206160, Note_on_c, 0, 44, 104
1, 206181, Tempo, 471846
1, 206340, Note_on_c, 0, 44, 0
1, 206340, Note_on_c, 0, 80, 0
1, 206340, Note_on_c, 0, 75, 0
1, 206340, Note_on_c, 0, 87, 0
1, 206340, Note_on_c, 0, 39, 0
1, 206340, Note_on_c, 0, 32, 0
1, 206400, Tempo, 446694
1, 206400, Note_on_c, 0, 63, 67
1, 206400, Note_on_c, 0, 71, 67
1, 206400, Note_on_c, 0, 75, 79
1, 206400, Note_on_c, 0, 47, 74
1, 206400, Note_on_c, 0, 51, 74
1, 206400, Note_on_c, 0, 59, 88
1, 206421, Control_c, 0, 64, 0
1, 206499, Control_c, 0, 64, 127
1, 206520, Tempo, 475473
1, 206520, Note_on_c, 0, 59, 0
1, 206520, Note_on_c, 0, 71, 0
1, 206520, Note_on_c, 0, 75, 0
1, 206520, Note_on_c, 0, 63, 0
1, 206520, Note_on_c, 0, 51, 0
1, 206520, Note_on_c, 0, 47, 0
1, 206520, Note_on_c, 0, 63, 61
1, 206520, Note_on_c, 0, 70, 61
1, 206520, Note_on_c, 0, 75, 73
1, 206520, Note_on_c, 0, 46, 70
1, 206520, Note_on_c, 0, 51, 70
1, 206520, Note_on_c, 0, 58, 83
1, 206640, Tempo, 493827
1, 206640, Note_on_c, 0, 58, 0
1, 206640, Note_on_c, 0, 70, 0
1, 206640, Note_on_c, 0, 75, 0
1, 206640, Note_on_c, 0, 63, 0
1, 206640, Note_on_c, 0, 51, 0
1, 206640, Note_on_c, 0, 46, 0
1, 206640, Note_on_c, 0, 63, 61
1, 206640, Note_on_c, 0, 68, 61
1, 206640, Note_on_c, 0, 75, 73
1, 206640, Note_on_c, 0, 44, 70
1, 206640, Note_on_c, 0, 51, 70
1, 206640, Note_on_c, 0, 56, 70
1, 206656, Control_c, 0, 64, 0
1, 206725, Control_c, 0, 64, 127
1, 206856, Note_on_c, 0, 56, 0
1, 206856, Note_on_c, 0, 68, 0
1, 206856, Note_on_c, 0, 75, 0
1, 206856, Note_on_c, 0, 63, 0
1, 206856, Note_on_c, 0, 51, 0
1, 206856, Note_on_c, 0, 44, 0
1, 206880, Tempo, 469814
1, 206880, Note_on_c, 0, 87, 95
1, 206880, Note_on_c, 0, 80, 95
1, 206880, Note_on_c, 0, 92, 113
1, 206880, Note_on_c, 0, 32, 88
1, 206880, Note_on_c, 0, 39, 88
1, 206880, Note_on_c, 0, 44, 104
1, 207060, Note_on_c, 0, 44, 0
1, 207060, Note_on_c, 0, 80, 0
1, 207060, Note_on_c, 0, 92, 0
1, 207060, Note_on_c, 0, 87, 0
1, 207060, Note_on_c, 0, 39, 0
1, 207060, Note_on_c, 0, 32, 0
1, 207120, Tempo, 446927
1, 207120, Note_on_c, 0, 63, 67
1, 207120, Note_on_c, 0, 71, 79
1, 207120, Note_on_c, 0, 75, 79
1, 207120, Control_c, 0, 64, 0
1, 207120, Note_on_c, 0, 47, 74
1, 207120, Note_on_c, 0, 51, 74
1, 207120, Note_on_c, 0, 59, 88
1, 207177, Control_c, 0, 64, 127
1, 207240, Tempo, 469998
1, 207240, Note_on_c, 0, 59, 0
1, 207240, Note_on_c, 0, 71, 0
1, 207240, Note_on_c, 0, 75, 0
1, 207240, Note_on_c, 0, 63, 0
1, 207240, Note_on_c, 0, 51, 0
1, 207240, Note_on_c, 0, 47, 0
1, 207240, Note_on_c, 0, 63, 61
1, 207240, Note_on_c, 0, 70, 61
1, 207240, Note_on_c, 0, 75, 73
1, 207240, Note_on_c, 0, 46, 70
1, 207240, Note_on_c, 0, 51, 70
1, 207240, Note_on_c, 0, 58, 83
1, 207360, Tempo, 483871
1, 207360, Note_on_c, 0, 58, 0
1, 207360, Note_on_c, 0, 70, 0
1, 207360, Note_on_c, 0, 75, 0
1, 207360, Note_on_c, 0, 63, 0
1, 207360, Note_on_c, 0, 51, 0
1, 207360, Note_on_c, 0, 46, 0
1, 207360, Note_on_c, 0, 63, 61
1, 207360, Note_on_c, 0, 68, 61
1, 207360, Note_on_c, 0, 75, 73
1, 207360, Note_on_c, 0, 44, 70
1, 207360, Note_on_c, 0, 51, 70
1, 207360, Note_on_c, 0, 56, 83
1, 207370, Control_c, 0, 64, 0
1, 207438, Control_c, 0, 64, 127
1, 207576, Note_on_c, 0, 56, 0
1, 207576, Note_on_c, 0, 68, 0
1, 207576, Note_on_c, 0, 75, 0
1, 207576, Note_on_c, 0, 63, 0
1, 207576, Note_on_c, 0, 51, 0
1, 207576, Note_on_c, 0, 44, 0
1, 207600, Tempo, 464432
1, 207600, Note_on_c, 0, 87, 97
1, 207600, Note_on_c, 0, 83, 97
1, 207600, Note_on_c, 0, 95, 115
1, 207600, Note_on_c, 0, 32, 90
1, 207600, Note_on_c, 0, 39, 90
1, 207600, Note_on_c, 0, 44, 106
1, 207780, Note_on_c, 0, 44, 0
1, 207780, Note_on_c, 0, 83, 0
1, 207780, Note_on_c, 0, 95, 0
1, 207780, Note_on_c, 0, 87, 0
1, 207780, Note_on_c, 0, 39, 0
1, 207780, Note_on_c, 0, 32, 0
1, 207840, Tempo, 441924
1, 207840, Note_on_c, 0, 63, 67
1, 207840, Note_on_c, 0, 71, 67
1, 207840, Note_on_c, 0, 75, 79
1, 207840, Note_on_c, 0, 47, 74
1, 207840, Note_on_c, 0, 51, 74
1, 207840, Note_on_c, 0, 59, 88
1, 207857, Control_c, 0, 64, 0
1, 207960, Tempo, 481502
1, 207960, Note_on_c, 0, 59, 0
1, 207960, Note_on_c, 0, 71, 0
1, 207960, Note_on_c, 0, 75, 0
1, 207960, Note_on_c, 0, 63, 0
1, 207960, Note_on_c, 0, 51, 0
1, 207960, Note_on_c, 0, 47, 0
1, 207960, Note_on_c, 0, 63, 61
1, 207960, Note_on_c, 0, 70, 61
1, 207960, Note_on_c, 0, 75, 73
1, 207960, Note_on_c, 0, 46, 70
1, 207960, Note_on_c, 0, 51, 70
1, 207960, Note_on_c, 0, 58, 83
1, 207967, Control_c, 0, 64, 127
1, 208080, Tempo, 497636
1, 208080, Note_on_c, 0, 58, 0
1, 208080, Note_on_c, 0, 70, 0
1, 208080, Note_on_c, 0, 75, 0
1, 208080, Note_on_c, 0, 63, 0
1, 208080, Note_on_c, 0, 51, 0
1, 208080, Note_on_c, 0, 46, 0
1, 208080, Note_on_c, 0, 63, 61
1, 208080, Note_on_c, 0, 68, 61
1, 208080, Note_on_c, 0, 75, 73
1, 208080, Note_on_c, 0, 44, 70
1, 208080, Note_on_c, 0, 51, 70
1, 208080, Note_on_c, 0, 56, 83
1, 208097, Control_c, 0, 64, 0
1, 208172, Control_c, 0, 64, 127
1, 208296, Note_on_c, 0, 56, 0
1, 208296, Note_on_c, 0, 68, 0
1, 208296, Note_on_c, 0, 75, 0
1, 208296, Note_on_c, 0, 63, 0
1, 208296, Note_on_c, 0, 51, 0
1, 208296, Note_on_c, 0, 44, 0
1, 208300, Tempo, 604290
1, 208320, Note_on_c, 0, 99, 117
1, 208320, Note_on_c, 0, 92, 99
1, 208320, Note_on_c, 0, 87, 99
1, 208320, Note_on_c, 0, 32, 90
1, 208320, Note_on_c, 0, 39, 90
1, 208320, Note_on_c, 0, 44, 106
1, 208321, Tempo, 614943
1, 208560, Tempo, 409892
1, 208561, Tempo, 408136
1, 208800, Tempo, 333333
1, 208800, Note_on_c, 0, 44, 0
1, 208800, Note_on_c, 0, 92, 0
1, 208800, Note_on_c, 0, 87, 0
1, 208800, Note_on_c, 0, 99, 0
1, 208800, Note_on_c, 0, 39, 0
1, 208800, Note_on_c, 0, 32, 0
1, 208800, Note_on_c, 0, 87, 84
1, 208800, Note_on_c, 0, 92, 84
1, 208800, Note_on_c, 0, 99, 100
1, 208800, Note_on_c, 0, 44, 61
1, 208800, Note_on_c, 0, 51, 61
1, 208800, Note_on_c, 0, 56, 73
1, 208920, Tempo, 334262
1, 209016, Note_on_c, 0, 56, 0
1, 209016, Note_on_c, 0, 92, 0
1, 209016, Note_on_c, 0, 99, 0
1, 209016, Note_on_c, 0, 87, 0
1, 209016, Note_on_c, 0, 51, 0
1, 209016, Note_on_c, 0, 44, 0
1, 209040, Tempo, 335196
1, 209040, Note_on_c, 0, 87, 86
1, 209040, Note_on_c, 0, 92, 86
1, 209040, Note_on_c, 0, 99, 102
1, 209040, Note_on_c, 0, 68, 77
1, 209040, Note_on_c, 0, 63, 64
1, 209040, Note_on_c, 0, 56, 64
1, 209160, Tempo, 336134
1, 209256, Note_on_c, 0, 56, 0
1, 209256, Note_on_c, 0, 92, 0
1, 209256, Note_on_c, 0, 99, 0
1, 209256, Note_on_c, 0, 87, 0
1, 209256, Note_on_c, 0, 63, 0
1, 209256, Note_on_c, 0, 68, 0
1, 209280, Tempo, 337079
1, 209280, Note_on_c, 0, 87, 84
1, 209280, Note_on_c, 0, 92, 84
1, 209280, Note_on_c, 0, 99, 100
1, 209280, Note_on_c, 0, 80, 80
1, 209280, Note_on_c, 0, 75, 80
1, 209280, Note_on_c, 0, 68, 68
1, 209300, Tempo, 336134
1, 209420, Tempo, 335196
1, 209496, Note_on_c, 0, 68, 0
1, 209496, Note_on_c, 0, 92, 0
1, 209496, Note_on_c, 0, 99, 0
1, 209496, Note_on_c, 0, 87, 0
1, 209496, Note_on_c, 0, 75, 0
1, 209496, Note_on_c, 0, 80, 0
1, 209520, Note_on_c, 0, 87, 86
1, 209520, Note_on_c, 0, 92, 86
1, 209520, Note_on_c, 0, 99, 102
1, 209520, Note_on_c, 0, 68, 83
1, 209520, Note_on_c, 0, 63, 70
1, 209520, Note_on_c, 0, 56, 70
1, 209540, Tempo, 334262
1, 209640, Tempo, 333333
1, 209736, Note_on_c, 0, 56, 0
1, 209736, Note_on_c, 0, 92, 0
1, 209736, Note_on_c, 0, 99, 0
1, 209736, Note_on_c, 0, 87, 0
1, 209736, Note_on_c, 0, 63, 0
1, 209736, Note_on_c, 0, 68, 0
1, 209760, Tempo, 332410
1, 209760, Note_on_c, 0, 87, 93
1, 209760, Note_on_c, 0, 92, 93
1, 209760, Note_on_c, 0, 99, 110
1, 209760, Note_on_c, 0, 44, 69
1, 209760, Note_on_c, 0, 51, 69
1, 209760, Note_on_c, 0, 56, 82
1, 209880, Tempo, 331492
1, 209976, Note_on_c, 0, 56, 0
1, 209976, Note_on_c, 0, 92, 0
1, 209976, Note_on_c, 0, 99, 0
1, 209976, Note_on_c, 0, 87, 0
1, 209976, Note_on_c, 0, 51, 0
1, 209976, Note_on_c, 0, 44, 0
1, 209980, Tempo, 330579
1, 209981, Tempo, 370393
1, 210000, Tempo, 398857
1, 210000, Note_on_c, 0, 87, 97
1, 210000, Note_on_c, 0, 92, 97
1, 210000, Note_on_c, 0, 99, 115
1, 210000, Note_on_c, 0, 32, 73
1, 210000, Note_on_c, 0, 39, 73
1, 210000, Note_on_c, 0, 44, 86
1, 210001, Tempo, 472441
1, 210240, Note_on_c, 0, 44, 0
1, 210240, Note_on_c, 0, 92, 0
1, 210240, Note_on_c, 0, 99, 0
1, 210240, Note_on_c, 0, 87, 0
1, 210240, Note_on_c, 0, 39, 0
1, 210240, Note_on_c, 0, 32, 0
1, 210720, Tempo, 485830
1, 210720, Note_on_c, 0, 59, 86
1, 210720, Note_on_c, 0, 63, 86
1, 210720, Note_on_c, 0, 68, 102
1, 210720, Note_on_c, 0, 44, 80
1, 210720, Note_on_c, 0, 51, 80
1, 210720, Note_on_c, 0, 56, 94
1, 210960, Note_on_c, 0, 56, 0
1, 210960, Note_on_c, 0, 63, 0
1, 210960, Note_on_c, 0, 68, 0
1, 210960, Note_on_c, 0, 59, 0
1, 210960, Note_on_c, 0, 51, 0
1, 210960, Note_on_c, 0, 44, 0
1, 211440, Note_on_c, 0, 92, 104
1, 211440, Note_on_c, 0, 87, 99
1, 211440, Note_on_c, 0, 83, 83
1, 211440, Note_on_c, 0, 80, 83
1, 211440, Note_on_c, 0, 59, 83
1, 211440, Note_on_c, 0, 63, 83
1, 211440, Note_on_c, 0, 68, 83
1, 211440, Note_on_c, 0, 71, 99
1, 212880, Marker_t, "Fine"
1, 212880, Note_on_c, 0, 71, 0
1, 212880, Note_on_c, 0, 92, 0
1, 212880, Note_on_c, 0, 59, 0
1, 212880, Note_on_c, 0, 87, 0
1, 212880, Note_on_c, 0, 83, 0
1, 212880, Note_on_c, 0, 80, 0
1, 212880, Note_on_c, 0, 63, 0
1, 212880, Note_on_c, 0, 68, 0
1, 213147, Control_c, 0, 64, 0
1, 214560, Tempo, 600000
1, 217440, Tempo, 600000
1, 217440, End_track
0, 0, End_of_file
