0, 0, Header, 0, 1, 480
1, 0, Start_track
1, 0, Title_t, "Mendelssohn: Lieder ohne Worte Opus 30 Nr. 2"
1, 0, Copyright_t, "Copyright © 2014 by Bernd Krueger"
1, 0, Text_t, "Bernd Krueger"
1, 0, Text_t, "Allegro di molto"
1, 0, Text_t, "Erstellt: 29.12.2014\012"
1, 0, Text_t, "Dauer:  2:04 Minuten\012"
1, 0, Time_signature, 6, 4, 6, 8
1, 0, Key_signature, -5, "major"
1, 0, Tempo, 607964
1, 0, Program_c, 0, 0
1, 0, Program_c, 0, 0
1, 0, Program_c, 0, 0
1, 600, Tempo, 672721
1, 600, Note_on_c, 0, 73, 43
1, 600, Note_on_c, 0, 77, 43
1, 660, Note_on_c, 0, 77, 0
1, 660, Note_on_c, 0, 73, 0
1, 660, Note_on_c, 0, 46, 35
1, 720, Tempo, 643846
1, 720, Marker_t, "Teil 1"
1, 720, Note_on_c, 0, 65, 40
1, 720, Note_on_c, 0, 73, 50
1, 720, Note_on_c, 0, 77, 50
1, 720, Note_on_c, 0, 61, 40
1, 784, Control_c, 0, 64, 127
1, 840, Note_on_c, 0, 77, 0
1, 840, Note_on_c, 0, 73, 0
1, 840, Note_on_c, 0, 73, 45
1, 840, Note_on_c, 0, 70, 45
1, 960, Tempo, 688152
1, 960, Note_on_c, 0, 70, 0
1, 960, Note_on_c, 0, 46, 0
1, 960, Note_on_c, 0, 61, 0
1, 960, Note_on_c, 0, 65, 0
1, 960, Note_on_c, 0, 73, 0
1, 960, Note_on_c, 0, 77, 45
1, 960, Note_on_c, 0, 73, 45
1, 974, Control_c, 0, 64, 0
1, 1020, Note_on_c, 0, 73, 0
1, 1020, Note_on_c, 0, 77, 0
1, 1020, Note_on_c, 0, 46, 35
1, 1080, Tempo, 643846
1, 1080, Note_on_c, 0, 65, 40
1, 1080, Note_on_c, 0, 73, 50
1, 1080, Note_on_c, 0, 77, 50
1, 1080, Note_on_c, 0, 61, 40
1, 1140, Control_c, 0, 64, 127
1, 1200, Note_on_c, 0, 77, 0
1, 1200, Note_on_c, 0, 73, 0
1, 1200, Note_on_c, 0, 73, 46
1, 1200, Note_on_c, 0, 70, 46
1, 1320, Tempo, 680349
1, 1320, Note_on_c, 0, 70, 0
1, 1320, Note_on_c, 0, 46, 0
1, 1320, Note_on_c, 0, 61, 0
1, 1320, Note_on_c, 0, 65, 0
1, 1320, Note_on_c, 0, 73, 0
1, 1320, Note_on_c, 0, 77, 46
1, 1320, Note_on_c, 0, 73, 46
1, 1334, Control_c, 0, 64, 0
1, 1380, Note_on_c, 0, 73, 0
1, 1380, Note_on_c, 0, 77, 0
1, 1380, Note_on_c, 0, 46, 35
1, 1440, Tempo, 640410
1, 1440, Note_on_c, 0, 65, 40
1, 1440, Note_on_c, 0, 73, 50
1, 1440, Note_on_c, 0, 77, 50
1, 1440, Note_on_c, 0, 61, 40
1, 1486, Control_c, 0, 64, 127
1, 1560, Note_on_c, 0, 77, 0
1, 1560, Note_on_c, 0, 73, 0
1, 1560, Note_on_c, 0, 73, 45
1, 1560, Note_on_c, 0, 70, 45
1, 1680, Tempo, 684229
1, 1680, Note_on_c, 0, 70, 0
1, 1680, Note_on_c, 0, 46, 0
1, 1680, Note_on_c, 0, 61, 0
1, 1680, Note_on_c, 0, 65, 0
1, 1680, Note_on_c, 0, 73, 0
1, 1680, Note_on_c, 0, 77, 45
1, 1680, Note_on_c, 0, 73, 45
1, 1699, Control_c, 0, 64, 0
1, 1740, Note_on_c, 0, 73, 0
1, 1740, Note_on_c, 0, 77, 0
1, 1740, Note_on_c, 0, 46, 35
1, 1800, Tempo, 657967
1, 1800, Note_on_c, 0, 65, 40
1, 1800, Note_on_c, 0, 73, 50
1, 1800, Note_on_c, 0, 77, 50
1, 1800, Note_on_c, 0, 61, 40
1, 1860, Control_c, 0, 64, 127
1, 1920, Note_on_c, 0, 77, 0
1, 1920, Note_on_c, 0, 73, 0
1, 1920, Note_on_c, 0, 73, 46
1, 1920, Note_on_c, 0, 70, 46
1, 2040, Tempo, 704308
1, 2040, Note_on_c, 0, 70, 0
1, 2040, Note_on_c, 0, 46, 0
1, 2040, Note_on_c, 0, 61, 0
1, 2040, Note_on_c, 0, 65, 0
1, 2040, Note_on_c, 0, 73, 0
1, 2040, Note_on_c, 0, 77, 46
1, 2040, Note_on_c, 0, 73, 46
1, 2061, Control_c, 0, 64, 0
1, 2100, Note_on_c, 0, 73, 0
1, 2100, Note_on_c, 0, 77, 0
1, 2100, Note_on_c, 0, 46, 35
1, 2160, Tempo, 665262
1, 2160, Note_on_c, 0, 66, 71
1, 2160, Note_on_c, 0, 73, 50
1, 2160, Note_on_c, 0, 61, 40
1, 2196, Control_c, 0, 64, 127
1, 2280, Note_on_c, 0, 73, 0
1, 2280, Note_on_c, 0, 70, 45
1, 2400, Note_on_c, 0, 70, 0
1, 2400, Note_on_c, 0, 61, 0
1, 2400, Note_on_c, 0, 46, 0
1, 2400, Note_on_c, 0, 73, 45
1, 2425, Control_c, 0, 64, 0
1, 2460, Note_on_c, 0, 73, 0
1, 2460, Note_on_c, 0, 46, 35
1, 2520, Note_on_c, 0, 73, 50
1, 2520, Note_on_c, 0, 61, 40
1, 2598, Control_c, 0, 64, 127
1, 2640, Note_on_c, 0, 73, 0
1, 2640, Note_on_c, 0, 70, 46
1, 2760, Tempo, 672721
1, 2760, Note_on_c, 0, 70, 0
1, 2760, Note_on_c, 0, 61, 0
1, 2760, Note_on_c, 0, 46, 0
1, 2760, Note_on_c, 0, 66, 0
1, 2760, Note_on_c, 0, 65, 60
1, 2760, Note_on_c, 0, 73, 46
1, 2774, Control_c, 0, 64, 0
1, 2820, Note_on_c, 0, 73, 0
1, 2820, Note_on_c, 0, 46, 35
1, 2880, Tempo, 665262
1, 2880, Note_on_c, 0, 65, 0
1, 2880, Note_on_c, 0, 64, 72
1, 2880, Note_on_c, 0, 73, 50
1, 2880, Note_on_c, 0, 61, 40
1, 2930, Control_c, 0, 64, 127
1, 3000, Note_on_c, 0, 73, 0
1, 3000, Note_on_c, 0, 70, 45
1, 3120, Note_on_c, 0, 70, 0
1, 3120, Note_on_c, 0, 61, 0
1, 3120, Note_on_c, 0, 46, 0
1, 3120, Note_on_c, 0, 73, 45
1, 3131, Control_c, 0, 64, 0
1, 3180, Note_on_c, 0, 73, 0
1, 3180, Note_on_c, 0, 46, 35
1, 3240, Note_on_c, 0, 73, 50
1, 3240, Note_on_c, 0, 61, 40
1, 3360, Note_on_c, 0, 73, 0
1, 3360, Note_on_c, 0, 70, 46
1, 3420, Note_on_c, 0, 64, 0
1, 3480, Note_on_c, 0, 61, 0
1, 3480, Note_on_c, 0, 46, 0
1, 3480, Note_on_c, 0, 70, 0
1, 3480, Note_on_c, 0, 73, 61
1, 3480, Note_on_c, 0, 64, 60
1, 3540, Note_on_c, 0, 73, 0
1, 3600, Tempo, 647319
1, 3600, Note_on_c, 0, 64, 0
1, 3600, Note_on_c, 0, 65, 75
1, 3600, Note_on_c, 0, 45, 49
1, 3635, Control_c, 0, 64, 127
1, 3720, Note_on_c, 0, 45, 0
1, 3720, Note_on_c, 0, 60, 54
1, 3720, Note_on_c, 0, 63, 54
1, 3720, Note_on_c, 0, 53, 40
1, 3780, Note_on_c, 0, 53, 0
1, 3780, Note_on_c, 0, 63, 0
1, 3780, Note_on_c, 0, 60, 0
1, 3840, Note_on_c, 0, 60, 54
1, 3840, Note_on_c, 0, 63, 54
1, 3840, Note_on_c, 0, 53, 42
1, 3900, Note_on_c, 0, 53, 0
1, 3900, Note_on_c, 0, 63, 0
1, 3900, Note_on_c, 0, 60, 0
1, 3960, Note_on_c, 0, 60, 54
1, 3960, Note_on_c, 0, 63, 54
1, 3960, Note_on_c, 0, 41, 42
1, 3989, Control_c, 0, 64, 0
1, 4020, Note_on_c, 0, 63, 0
1, 4020, Note_on_c, 0, 60, 0
1, 4032, Control_c, 0, 64, 127
1, 4080, Note_on_c, 0, 65, 0
1, 4080, Note_on_c, 0, 41, 0
1, 4080, Note_on_c, 0, 58, 54
1, 4080, Note_on_c, 0, 67, 56
1, 4080, Note_on_c, 0, 53, 47
1, 4140, Note_on_c, 0, 53, 0
1, 4140, Note_on_c, 0, 67, 0
1, 4140, Note_on_c, 0, 58, 0
1, 4200, Note_on_c, 0, 60, 54
1, 4200, Note_on_c, 0, 69, 61
1, 4200, Note_on_c, 0, 53, 50
1, 4208, Control_c, 0, 64, 0
1, 4260, Note_on_c, 0, 53, 0
1, 4260, Note_on_c, 0, 69, 0
1, 4260, Note_on_c, 0, 60, 0
1, 4260, Note_on_c, 0, 72, 64
1, 4320, Note_on_c, 0, 72, 0
1, 4320, Note_on_c, 0, 61, 61
1, 4320, Note_on_c, 0, 70, 73
1, 4320, Note_on_c, 0, 46, 54
1, 4355, Control_c, 0, 64, 127
1, 4380, Note_on_c, 0, 70, 0
1, 4380, Note_on_c, 0, 61, 0
1, 4440, Note_on_c, 0, 46, 0
1, 4440, Note_on_c, 0, 60, 54
1, 4440, Note_on_c, 0, 69, 63
1, 4440, Note_on_c, 0, 53, 43
1, 4449, Control_c, 0, 64, 0
1, 4500, Note_on_c, 0, 53, 0
1, 4500, Note_on_c, 0, 69, 0
1, 4500, Note_on_c, 0, 60, 0
1, 4560, Tempo, 668971
1, 4560, Note_on_c, 0, 61, 53
1, 4560, Note_on_c, 0, 70, 63
1, 4560, Note_on_c, 0, 53, 46
1, 4620, Note_on_c, 0, 53, 0
1, 4620, Note_on_c, 0, 70, 0
1, 4620, Note_on_c, 0, 61, 0
1, 4680, Tempo, 650830
1, 4680, Note_on_c, 0, 65, 60
1, 4680, Note_on_c, 0, 73, 71
1, 4680, Note_on_c, 0, 39, 58
1, 4735, Control_c, 0, 64, 127
1, 4740, Note_on_c, 0, 73, 0
1, 4740, Note_on_c, 0, 65, 0
1, 4800, Note_on_c, 0, 39, 0
1, 4800, Note_on_c, 0, 63, 53
1, 4800, Note_on_c, 0, 72, 63
1, 4800, Note_on_c, 0, 54, 48
1, 4826, Control_c, 0, 64, 0
1, 4860, Note_on_c, 0, 54, 0
1, 4860, Note_on_c, 0, 72, 0
1, 4860, Note_on_c, 0, 63, 0
1, 4920, Tempo, 692121
1, 4920, Note_on_c, 0, 61, 58
1, 4920, Note_on_c, 0, 70, 70
1, 4920, Note_on_c, 0, 54, 48
1, 4980, Note_on_c, 0, 54, 0
1, 4980, Note_on_c, 0, 70, 0
1, 4980, Note_on_c, 0, 61, 0
1, 5040, Tempo, 654379
1, 5040, Note_on_c, 0, 61, 70
1, 5040, Note_on_c, 0, 70, 82
1, 5040, Note_on_c, 0, 41, 60
1, 5065, Control_c, 0, 64, 127
1, 5160, Note_on_c, 0, 41, 0
1, 5160, Note_on_c, 0, 53, 49
1, 5220, Note_on_c, 0, 53, 0
1, 5280, Note_on_c, 0, 53, 46
1, 5340, Note_on_c, 0, 53, 0
1, 5400, Note_on_c, 0, 64, 66
1, 5400, Note_on_c, 0, 53, 55
1, 5418, Control_c, 0, 64, 0
1, 5457, Control_c, 0, 64, 127
1, 5460, Note_on_c, 0, 53, 0
1, 5520, Note_on_c, 0, 53, 46
1, 5580, Note_on_c, 0, 53, 0
1, 5640, Tempo, 696136
1, 5640, Note_on_c, 0, 53, 46
1, 5700, Note_on_c, 0, 53, 0
1, 5760, Tempo, 650830
1, 5760, Note_on_c, 0, 61, 0
1, 5760, Note_on_c, 0, 70, 0
1, 5760, Note_on_c, 0, 64, 0
1, 5760, Note_on_c, 0, 60, 67
1, 5760, Note_on_c, 0, 65, 67
1, 5760, Note_on_c, 0, 69, 80
1, 5760, Note_on_c, 0, 53, 56
1, 5760, Control_c, 0, 64, 0
1, 5820, Control_c, 0, 64, 127
1, 5880, Note_on_c, 0, 53, 0
1, 5880, Note_on_c, 0, 54, 46
1, 6000, Note_on_c, 0, 54, 0
1, 6000, Note_on_c, 0, 53, 48
1, 6060, Note_on_c, 0, 53, 0
1, 6120, Note_on_c, 0, 60, 0
1, 6120, Note_on_c, 0, 65, 0
1, 6120, Note_on_c, 0, 69, 0
1, 6120, Note_on_c, 0, 53, 52
1, 6152, Control_c, 0, 64, 0
1, 6180, Note_on_c, 0, 53, 0
1, 6240, Tempo, 730016
1, 6240, Note_on_c, 0, 53, 46
1, 6300, Note_on_c, 0, 53, 0
1, 6360, Tempo, 672721
1, 6360, Note_on_c, 0, 73, 43
1, 6360, Note_on_c, 0, 77, 43
1, 6360, Note_on_c, 0, 53, 40
1, 6420, Note_on_c, 0, 53, 0
1, 6420, Note_on_c, 0, 77, 0
1, 6420, Note_on_c, 0, 73, 0
1, 6420, Note_on_c, 0, 46, 35
1, 6480, Tempo, 637010
1, 6480, Note_on_c, 0, 65, 40
1, 6480, Note_on_c, 0, 73, 50
1, 6480, Note_on_c, 0, 77, 50
1, 6480, Note_on_c, 0, 61, 40
1, 6498, Control_c, 0, 64, 127
1, 6600, Note_on_c, 0, 77, 0
1, 6600, Note_on_c, 0, 73, 0
1, 6600, Note_on_c, 0, 73, 45
1, 6600, Note_on_c, 0, 70, 45
1, 6720, Tempo, 676514
1, 6720, Note_on_c, 0, 70, 0
1, 6720, Note_on_c, 0, 46, 0
1, 6720, Note_on_c, 0, 61, 0
1, 6720, Note_on_c, 0, 65, 0
1, 6720, Note_on_c, 0, 73, 0
1, 6720, Note_on_c, 0, 77, 45
1, 6720, Note_on_c, 0, 73, 45
1, 6738, Control_c, 0, 64, 0
1, 6780, Note_on_c, 0, 73, 0
1, 6780, Note_on_c, 0, 77, 0
1, 6780, Note_on_c, 0, 46, 36
1, 6840, Tempo, 627025
1, 6840, Note_on_c, 0, 65, 41
1, 6840, Note_on_c, 0, 73, 51
1, 6840, Note_on_c, 0, 77, 51
1, 6840, Note_on_c, 0, 61, 41
1, 6886, Control_c, 0, 64, 127
1, 6960, Note_on_c, 0, 77, 0
1, 6960, Note_on_c, 0, 73, 0
1, 6960, Note_on_c, 0, 73, 48
1, 6960, Note_on_c, 0, 70, 48
1, 7080, Tempo, 668971
1, 7080, Note_on_c, 0, 70, 0
1, 7080, Note_on_c, 0, 46, 0
1, 7080, Note_on_c, 0, 61, 0
1, 7080, Note_on_c, 0, 65, 0
1, 7080, Note_on_c, 0, 73, 0
1, 7080, Note_on_c, 0, 77, 48
1, 7080, Note_on_c, 0, 73, 48
1, 7094, Control_c, 0, 64, 0
1, 7140, Note_on_c, 0, 73, 0
1, 7140, Note_on_c, 0, 77, 0
1, 7140, Note_on_c, 0, 46, 37
1, 7200, Tempo, 617347
1, 7200, Note_on_c, 0, 65, 42
1, 7200, Note_on_c, 0, 73, 53
1, 7200, Note_on_c, 0, 77, 53
1, 7200, Note_on_c, 0, 61, 42
1, 7246, Control_c, 0, 64, 127
1, 7320, Note_on_c, 0, 77, 0
1, 7320, Note_on_c, 0, 73, 0
1, 7320, Note_on_c, 0, 73, 50
1, 7320, Note_on_c, 0, 70, 50
1, 7440, Tempo, 668971
1, 7440, Note_on_c, 0, 70, 0
1, 7440, Note_on_c, 0, 46, 0
1, 7440, Note_on_c, 0, 61, 0
1, 7440, Note_on_c, 0, 65, 0
1, 7440, Note_on_c, 0, 73, 0
1, 7440, Note_on_c, 0, 77, 55
1, 7440, Note_on_c, 0, 73, 55
1, 7469, Control_c, 0, 64, 0
1, 7500, Note_on_c, 0, 73, 0
1, 7500, Note_on_c, 0, 77, 0
1, 7500, Note_on_c, 0, 46, 44
1, 7560, Tempo, 643846
1, 7560, Note_on_c, 0, 65, 53
1, 7560, Note_on_c, 0, 73, 66
1, 7560, Note_on_c, 0, 77, 66
1, 7560, Note_on_c, 0, 61, 53
1, 7588, Control_c, 0, 64, 127
1, 7680, Note_on_c, 0, 77, 0
1, 7680, Note_on_c, 0, 73, 0
1, 7680, Note_on_c, 0, 73, 63
1, 7680, Note_on_c, 0, 70, 63
1, 7800, Tempo, 721241
1, 7800, Note_on_c, 0, 70, 0
1, 7800, Note_on_c, 0, 46, 0
1, 7800, Note_on_c, 0, 61, 0
1, 7800, Note_on_c, 0, 65, 0
1, 7800, Note_on_c, 0, 73, 0
1, 7800, Note_on_c, 0, 77, 68
1, 7800, Note_on_c, 0, 73, 68
1, 7819, Control_c, 0, 64, 0
1, 7860, Note_on_c, 0, 73, 0
1, 7860, Note_on_c, 0, 77, 0
1, 7920, Tempo, 657967
1, 7920, Note_on_c, 0, 68, 58
1, 7920, Note_on_c, 0, 77, 66
1, 7920, Note_on_c, 0, 80, 82
1, 7920, Note_on_c, 0, 51, 69
1, 7991, Control_c, 0, 64, 127
1, 8040, Note_on_c, 0, 58, 49
1, 8100, Note_on_c, 0, 58, 0
1, 8160, Note_on_c, 0, 58, 46
1, 8220, Note_on_c, 0, 58, 0
1, 8280, Note_on_c, 0, 51, 0
1, 8280, Note_on_c, 0, 68, 0
1, 8280, Note_on_c, 0, 77, 0
1, 8280, Note_on_c, 0, 80, 0
1, 8280, Note_on_c, 0, 66, 56
1, 8280, Note_on_c, 0, 75, 56
1, 8280, Note_on_c, 0, 78, 66
1, 8280, Note_on_c, 0, 53, 60
1, 8280, Note_on_c, 0, 58, 55
1, 8298, Control_c, 0, 64, 0
1, 8340, Note_on_c, 0, 58, 0
1, 8351, Control_c, 0, 64, 127
1, 8400, Tempo, 640410
1, 8400, Note_on_c, 0, 58, 46
1, 8460, Note_on_c, 0, 58, 0
1, 8520, Tempo, 688152
1, 8520, Note_on_c, 0, 53, 0
1, 8520, Note_on_c, 0, 66, 0
1, 8520, Note_on_c, 0, 75, 0
1, 8520, Note_on_c, 0, 78, 0
1, 8520, Note_on_c, 0, 65, 56
1, 8520, Note_on_c, 0, 73, 56
1, 8520, Note_on_c, 0, 77, 66
1, 8520, Note_on_c, 0, 54, 60
1, 8520, Note_on_c, 0, 58, 46
1, 8528, Control_c, 0, 64, 0
1, 8580, Note_on_c, 0, 58, 0
1, 8580, Note_on_c, 0, 65, 0
1, 8580, Note_on_c, 0, 77, 0
1, 8580, Note_on_c, 0, 73, 0
1, 8640, Tempo, 654379
1, 8640, Note_on_c, 0, 54, 0
1, 8640, Note_on_c, 0, 65, 58
1, 8640, Note_on_c, 0, 73, 67
1, 8640, Note_on_c, 0, 77, 82
1, 8640, Note_on_c, 0, 56, 60
1, 8679, Control_c, 0, 64, 127
1, 8760, Note_on_c, 0, 56, 49
1, 8820, Note_on_c, 0, 56, 0
1, 8870, Note_on_c, 0, 56, 0
1, 8880, Note_on_c, 0, 56, 46
1, 8940, Note_on_c, 0, 56, 0
1, 9000, Note_on_c, 0, 77, 0
1, 9000, Note_on_c, 0, 73, 0
1, 9000, Note_on_c, 0, 65, 0
1, 9000, Note_on_c, 0, 63, 56
1, 9000, Note_on_c, 0, 72, 56
1, 9000, Note_on_c, 0, 75, 66
1, 9000, Note_on_c, 0, 54, 60
1, 9000, Note_on_c, 0, 56, 55
1, 9024, Control_c, 0, 64, 0
1, 9060, Note_on_c, 0, 56, 0
1, 9064, Control_c, 0, 64, 127
1, 9120, Note_on_c, 0, 56, 46
1, 9180, Note_on_c, 0, 56, 0
1, 9240, Tempo, 688152
1, 9240, Note_on_c, 0, 75, 0
1, 9240, Note_on_c, 0, 63, 0
1, 9240, Note_on_c, 0, 72, 0
1, 9240, Note_on_c, 0, 56, 46
1, 9260, Note_on_c, 0, 54, 0
1, 9300, Note_on_c, 0, 56, 0
1, 9360, Tempo, 657967
1, 9360, Note_on_c, 0, 65, 58
1, 9360, Note_on_c, 0, 68, 66
1, 9360, Note_on_c, 0, 77, 82
1, 9360, Note_on_c, 0, 53, 49
1, 9360, Note_on_c, 0, 56, 56
1, 9369, Control_c, 0, 64, 0
1, 9454, Control_c, 0, 64, 127
1, 9720, Tempo, 643846
1, 9720, Note_on_c, 0, 77, 0
1, 9720, Note_on_c, 0, 65, 0
1, 9720, Note_on_c, 0, 73, 69
1, 9720, Note_on_c, 0, 61, 55
1, 9745, Control_c, 0, 64, 0
1, 9847, Control_c, 0, 64, 127
1, 9960, Tempo, 708466
1, 9960, Note_on_c, 0, 61, 0
1, 9960, Note_on_c, 0, 73, 0
1, 9960, Note_on_c, 0, 72, 65
1, 9960, Note_on_c, 0, 60, 52
1, 10050, Note_on_c, 0, 60, 0
1, 10050, Note_on_c, 0, 72, 0
1, 10080, Tempo, 650830
1, 10080, Note_on_c, 0, 68, 0
1, 10080, Note_on_c, 0, 53, 0
1, 10080, Note_on_c, 0, 56, 0
1, 10080, Note_on_c, 0, 68, 69
1, 10080, Note_on_c, 0, 72, 69
1, 10080, Note_on_c, 0, 54, 49
1, 10080, Note_on_c, 0, 60, 55
1, 10094, Control_c, 0, 64, 0
1, 10160, Control_c, 0, 64, 127
1, 10320, Tempo, 676514
1, 10320, Note_on_c, 0, 60, 0
1, 10320, Note_on_c, 0, 68, 0
1, 10320, Note_on_c, 0, 72, 0
1, 10320, Note_on_c, 0, 66, 65
1, 10320, Note_on_c, 0, 70, 65
1, 10320, Note_on_c, 0, 58, 52
1, 10410, Note_on_c, 0, 58, 0
1, 10410, Note_on_c, 0, 70, 0
1, 10410, Note_on_c, 0, 66, 0
1, 10440, Tempo, 657967
1, 10440, Note_on_c, 0, 73, 69
1, 10440, Note_on_c, 0, 61, 55
1, 10461, Control_c, 0, 64, 0
1, 10527, Control_c, 0, 64, 127
1, 10560, Tempo, 661594
1, 10680, Tempo, 730016
1, 10680, Note_on_c, 0, 61, 0
1, 10680, Note_on_c, 0, 73, 0
1, 10680, Note_on_c, 0, 66, 65
1, 10680, Note_on_c, 0, 70, 65
1, 10680, Note_on_c, 0, 58, 52
1, 10770, Note_on_c, 0, 58, 0
1, 10770, Note_on_c, 0, 70, 0
1, 10770, Note_on_c, 0, 66, 0
1, 10800, Tempo, 657967
1, 10800, Note_on_c, 0, 54, 0
1, 10800, Note_on_c, 0, 66, 69
1, 10800, Note_on_c, 0, 70, 69
1, 10800, Note_on_c, 0, 49, 49
1, 10800, Note_on_c, 0, 58, 55
1, 10819, Control_c, 0, 64, 0
1, 10894, Control_c, 0, 64, 127
1, 11040, Tempo, 684229
1, 11040, Note_on_c, 0, 58, 0
1, 11040, Note_on_c, 0, 66, 0
1, 11040, Note_on_c, 0, 70, 0
1, 11040, Note_on_c, 0, 65, 65
1, 11040, Note_on_c, 0, 68, 65
1, 11040, Note_on_c, 0, 56, 52
1, 11130, Note_on_c, 0, 56, 0
1, 11130, Note_on_c, 0, 68, 0
1, 11130, Note_on_c, 0, 65, 0
1, 11160, Tempo, 668971
1, 11160, Note_on_c, 0, 73, 69
1, 11160, Note_on_c, 0, 61, 55
1, 11176, Control_c, 0, 64, 0
1, 11247, Control_c, 0, 64, 127
1, 11400, Note_on_c, 0, 61, 0
1, 11400, Note_on_c, 0, 73, 0
1, 11400, Note_on_c, 0, 65, 65
1, 11400, Note_on_c, 0, 68, 65
1, 11400, Note_on_c, 0, 56, 52
1, 11490, Note_on_c, 0, 56, 0
1, 11490, Note_on_c, 0, 68, 0
1, 11490, Note_on_c, 0, 65, 0
1, 11520, Tempo, 661594
1, 11520, Note_on_c, 0, 49, 0
1, 11520, Note_on_c, 0, 65, 69
1, 11520, Note_on_c, 0, 68, 69
1, 11520, Note_on_c, 0, 44, 41
1, 11520, Note_on_c, 0, 56, 49
1, 11537, Control_c, 0, 64, 0
1, 11583, Control_c, 0, 64, 127
1, 11760, Tempo, 688152
1, 11760, Note_on_c, 0, 68, 0
1, 11760, Note_on_c, 0, 65, 0
1, 11760, Note_on_c, 0, 69, 61
1, 11880, Tempo, 665262
1, 11880, Note_on_c, 0, 69, 0
1, 11880, Note_on_c, 0, 60, 49
1, 11880, Note_on_c, 0, 66, 49
1, 11880, Note_on_c, 0, 70, 62
1, 11899, Control_c, 0, 64, 0
1, 11955, Control_c, 0, 64, 127
1, 12000, Tempo, 739007
1, 12120, Tempo, 808734
1, 12120, Note_on_c, 0, 70, 0
1, 12120, Note_on_c, 0, 60, 0
1, 12120, Note_on_c, 0, 66, 0
1, 12120, Note_on_c, 0, 63, 54
1, 12120, Note_on_c, 0, 66, 54
1, 12210, Note_on_c, 0, 66, 0
1, 12210, Note_on_c, 0, 63, 0
1, 12240, Tempo, 665262
1, 12240, Note_on_c, 0, 44, 0
1, 12240, Note_on_c, 0, 56, 0
1, 12240, Note_on_c, 0, 66, 58
1, 12240, Note_on_c, 0, 63, 49
1, 12240, Note_on_c, 0, 60, 49
1, 12240, Note_on_c, 0, 37, 41
1, 12253, Control_c, 0, 64, 0
1, 12347, Control_c, 0, 64, 127
1, 12600, Note_on_c, 0, 60, 0
1, 12600, Note_on_c, 0, 66, 0
1, 12600, Note_on_c, 0, 63, 0
1, 12600, Note_on_c, 0, 61, 41
1, 12600, Note_on_c, 0, 65, 49
1, 12617, Control_c, 0, 64, 0
1, 12687, Control_c, 0, 64, 127
1, 12960, Tempo, 654379
1, 12960, Note_on_c, 0, 65, 0
1, 12960, Note_on_c, 0, 61, 0
1, 12960, Note_on_c, 0, 37, 0
1, 12960, Note_on_c, 0, 53, 43
1, 12966, Control_c, 0, 64, 0
1, 13080, Note_on_c, 0, 53, 0
1, 13080, Note_on_c, 0, 54, 41
1, 13200, Note_on_c, 0, 54, 0
1, 13200, Note_on_c, 0, 53, 38
1, 13320, Tempo, 665262
1, 13320, Note_on_c, 0, 53, 0
1, 13320, Note_on_c, 0, 51, 41
1, 13440, Tempo, 712674
1, 13440, Note_on_c, 0, 51, 0
1, 13440, Note_on_c, 0, 49, 38
1, 13560, Tempo, 672721
1, 13560, Note_on_c, 0, 49, 0
1, 13560, Note_on_c, 0, 73, 43
1, 13560, Note_on_c, 0, 77, 43
1, 13560, Note_on_c, 0, 48, 38
1, 13620, Note_on_c, 0, 48, 0
1, 13620, Note_on_c, 0, 77, 0
1, 13620, Note_on_c, 0, 73, 0
1, 13620, Note_on_c, 0, 46, 35
1, 13680, Tempo, 643846
1, 13680, Marker_t, "Teil 1 Wiederholung"
1, 13680, Note_on_c, 0, 65, 40
1, 13680, Note_on_c, 0, 73, 50
1, 13680, Note_on_c, 0, 77, 50
1, 13680, Note_on_c, 0, 61, 40
1, 13744, Control_c, 0, 64, 127
1, 13800, Note_on_c, 0, 77, 0
1, 13800, Note_on_c, 0, 73, 0
1, 13800, Note_on_c, 0, 73, 45
1, 13800, Note_on_c, 0, 70, 45
1, 13920, Tempo, 688152
1, 13920, Note_on_c, 0, 70, 0
1, 13920, Note_on_c, 0, 46, 0
1, 13920, Note_on_c, 0, 61, 0
1, 13920, Note_on_c, 0, 65, 0
1, 13920, Note_on_c, 0, 73, 0
1, 13920, Note_on_c, 0, 77, 45
1, 13920, Note_on_c, 0, 73, 45
1, 13934, Control_c, 0, 64, 0
1, 13980, Note_on_c, 0, 73, 0
1, 13980, Note_on_c, 0, 77, 0
1, 13980, Note_on_c, 0, 46, 35
1, 14040, Tempo, 640410
1, 14040, Note_on_c, 0, 65, 40
1, 14040, Note_on_c, 0, 73, 50
1, 14040, Note_on_c, 0, 77, 50
1, 14040, Note_on_c, 0, 61, 40
1, 14100, Control_c, 0, 64, 127
1, 14160, Note_on_c, 0, 77, 0
1, 14160, Note_on_c, 0, 73, 0
1, 14160, Note_on_c, 0, 73, 46
1, 14160, Note_on_c, 0, 70, 46
1, 14280, Tempo, 680349
1, 14280, Note_on_c, 0, 70, 0
1, 14280, Note_on_c, 0, 46, 0
1, 14280, Note_on_c, 0, 61, 0
1, 14280, Note_on_c, 0, 65, 0
1, 14280, Note_on_c, 0, 73, 0
1, 14280, Note_on_c, 0, 77, 46
1, 14280, Note_on_c, 0, 73, 46
1, 14294, Control_c, 0, 64, 0
1, 14340, Note_on_c, 0, 73, 0
1, 14340, Note_on_c, 0, 77, 0
1, 14340, Note_on_c, 0, 46, 35
1, 14400, Tempo, 627025
1, 14400, Note_on_c, 0, 65, 40
1, 14400, Note_on_c, 0, 73, 50
1, 14400, Note_on_c, 0, 77, 50
1, 14400, Note_on_c, 0, 61, 40
1, 14446, Control_c, 0, 64, 127
1, 14520, Note_on_c, 0, 77, 0
1, 14520, Note_on_c, 0, 73, 0
1, 14520, Note_on_c, 0, 73, 45
1, 14520, Note_on_c, 0, 70, 45
1, 14640, Tempo, 684229
1, 14640, Note_on_c, 0, 70, 0
1, 14640, Note_on_c, 0, 46, 0
1, 14640, Note_on_c, 0, 61, 0
1, 14640, Note_on_c, 0, 65, 0
1, 14640, Note_on_c, 0, 73, 0
1, 14640, Note_on_c, 0, 77, 45
1, 14640, Note_on_c, 0, 73, 45
1, 14659, Control_c, 0, 64, 0
1, 14700, Note_on_c, 0, 73, 0
1, 14700, Note_on_c, 0, 77, 0
1, 14700, Note_on_c, 0, 46, 35
1, 14760, Tempo, 657967
1, 14760, Note_on_c, 0, 65, 40
1, 14760, Note_on_c, 0, 73, 50
1, 14760, Note_on_c, 0, 77, 50
1, 14760, Note_on_c, 0, 61, 40
1, 14820, Control_c, 0, 64, 127
1, 14880, Note_on_c, 0, 77, 0
1, 14880, Note_on_c, 0, 73, 0
1, 14880, Note_on_c, 0, 73, 46
1, 14880, Note_on_c, 0, 70, 46
1, 15000, Tempo, 743587
1, 15000, Note_on_c, 0, 70, 0
1, 15000, Note_on_c, 0, 46, 0
1, 15000, Note_on_c, 0, 61, 0
1, 15000, Note_on_c, 0, 65, 0
1, 15000, Note_on_c, 0, 73, 0
1, 15000, Note_on_c, 0, 77, 46
1, 15000, Note_on_c, 0, 73, 46
1, 15021, Control_c, 0, 64, 0
1, 15060, Note_on_c, 0, 73, 0
1, 15060, Note_on_c, 0, 77, 0
1, 15060, Note_on_c, 0, 46, 35
1, 15120, Tempo, 665262
1, 15120, Note_on_c, 0, 66, 71
1, 15120, Note_on_c, 0, 73, 50
1, 15120, Note_on_c, 0, 61, 40
1, 15156, Control_c, 0, 64, 127
1, 15240, Note_on_c, 0, 73, 0
1, 15240, Note_on_c, 0, 70, 45
1, 15360, Note_on_c, 0, 70, 0
1, 15360, Note_on_c, 0, 61, 0
1, 15360, Note_on_c, 0, 46, 0
1, 15360, Note_on_c, 0, 73, 45
1, 15385, Control_c, 0, 64, 0
1, 15420, Note_on_c, 0, 73, 0
1, 15420, Note_on_c, 0, 46, 35
1, 15480, Note_on_c, 0, 73, 50
1, 15480, Note_on_c, 0, 61, 40
1, 15558, Control_c, 0, 64, 127
1, 15600, Note_on_c, 0, 73, 0
1, 15600, Note_on_c, 0, 70, 46
1, 15720, Tempo, 672721
1, 15720, Note_on_c, 0, 70, 0
1, 15720, Note_on_c, 0, 61, 0
1, 15720, Note_on_c, 0, 46, 0
1, 15720, Note_on_c, 0, 66, 0
1, 15720, Note_on_c, 0, 65, 60
1, 15720, Note_on_c, 0, 73, 46
1, 15734, Control_c, 0, 64, 0
1, 15780, Note_on_c, 0, 73, 0
1, 15780, Note_on_c, 0, 46, 35
1, 15840, Tempo, 665262
1, 15840, Note_on_c, 0, 65, 0
1, 15840, Note_on_c, 0, 64, 72
1, 15840, Note_on_c, 0, 73, 50
1, 15840, Note_on_c, 0, 61, 40
1, 15890, Control_c, 0, 64, 127
1, 15960, Note_on_c, 0, 73, 0
1, 15960, Note_on_c, 0, 70, 45
1, 16080, Note_on_c, 0, 70, 0
1, 16080, Note_on_c, 0, 61, 0
1, 16080, Note_on_c, 0, 46, 0
1, 16080, Note_on_c, 0, 73, 45
1, 16091, Control_c, 0, 64, 0
1, 16140, Note_on_c, 0, 73, 0
1, 16140, Note_on_c, 0, 46, 35
1, 16200, Note_on_c, 0, 73, 50
1, 16200, Note_on_c, 0, 61, 40
1, 16320, Note_on_c, 0, 73, 0
1, 16320, Note_on_c, 0, 70, 46
1, 16380, Note_on_c, 0, 64, 0
1, 16440, Note_on_c, 0, 61, 0
1, 16440, Note_on_c, 0, 46, 0
1, 16440, Note_on_c, 0, 70, 0
1, 16440, Note_on_c, 0, 73, 61
1, 16440, Note_on_c, 0, 64, 60
1, 16500, Note_on_c, 0, 73, 0
1, 16560, Tempo, 647319
1, 16560, Note_on_c, 0, 64, 0
1, 16560, Note_on_c, 0, 65, 75
1, 16560, Note_on_c, 0, 45, 49
1, 16595, Control_c, 0, 64, 127
1, 16680, Note_on_c, 0, 45, 0
1, 16680, Note_on_c, 0, 60, 54
1, 16680, Note_on_c, 0, 63, 54
1, 16680, Note_on_c, 0, 53, 40
1, 16740, Note_on_c, 0, 53, 0
1, 16740, Note_on_c, 0, 63, 0
1, 16740, Note_on_c, 0, 60, 0
1, 16800, Note_on_c, 0, 60, 54
1, 16800, Note_on_c, 0, 63, 54
1, 16800, Note_on_c, 0, 53, 42
1, 16860, Note_on_c, 0, 53, 0
1, 16860, Note_on_c, 0, 63, 0
1, 16860, Note_on_c, 0, 60, 0
1, 16920, Note_on_c, 0, 60, 54
1, 16920, Note_on_c, 0, 63, 54
1, 16920, Note_on_c, 0, 41, 42
1, 16949, Control_c, 0, 64, 0
1, 16980, Note_on_c, 0, 63, 0
1, 16980, Note_on_c, 0, 60, 0
1, 16992, Control_c, 0, 64, 127
1, 17040, Note_on_c, 0, 65, 0
1, 17040, Note_on_c, 0, 41, 0
1, 17040, Note_on_c, 0, 58, 54
1, 17040, Note_on_c, 0, 67, 56
1, 17040, Note_on_c, 0, 53, 47
1, 17100, Note_on_c, 0, 53, 0
1, 17100, Note_on_c, 0, 67, 0
1, 17100, Note_on_c, 0, 58, 0
1, 17160, Note_on_c, 0, 60, 54
1, 17160, Note_on_c, 0, 69, 61
1, 17160, Note_on_c, 0, 53, 50
1, 17168, Control_c, 0, 64, 0
1, 17220, Note_on_c, 0, 53, 0
1, 17220, Note_on_c, 0, 69, 0
1, 17220, Note_on_c, 0, 60, 0
1, 17220, Note_on_c, 0, 72, 64
1, 17280, Note_on_c, 0, 72, 0
1, 17280, Note_on_c, 0, 61, 61
1, 17280, Note_on_c, 0, 70, 73
1, 17280, Note_on_c, 0, 46, 54
1, 17315, Control_c, 0, 64, 127
1, 17340, Note_on_c, 0, 70, 0
1, 17340, Note_on_c, 0, 61, 0
1, 17400, Note_on_c, 0, 46, 0
1, 17400, Note_on_c, 0, 60, 54
1, 17400, Note_on_c, 0, 69, 63
1, 17400, Note_on_c, 0, 53, 43
1, 17409, Control_c, 0, 64, 0
1, 17460, Note_on_c, 0, 53, 0
1, 17460, Note_on_c, 0, 69, 0
1, 17460, Note_on_c, 0, 60, 0
1, 17520, Tempo, 668971
1, 17520, Note_on_c, 0, 61, 53
1, 17520, Note_on_c, 0, 70, 63
1, 17520, Note_on_c, 0, 53, 46
1, 17580, Note_on_c, 0, 53, 0
1, 17580, Note_on_c, 0, 70, 0
1, 17580, Note_on_c, 0, 61, 0
1, 17640, Tempo, 650830
1, 17640, Note_on_c, 0, 65, 60
1, 17640, Note_on_c, 0, 73, 71
1, 17640, Note_on_c, 0, 39, 58
1, 17695, Control_c, 0, 64, 127
1, 17700, Note_on_c, 0, 73, 0
1, 17700, Note_on_c, 0, 65, 0
1, 17760, Note_on_c, 0, 39, 0
1, 17760, Note_on_c, 0, 63, 53
1, 17760, Note_on_c, 0, 72, 63
1, 17760, Note_on_c, 0, 54, 48
1, 17786, Control_c, 0, 64, 0
1, 17820, Note_on_c, 0, 54, 0
1, 17820, Note_on_c, 0, 72, 0
1, 17820, Note_on_c, 0, 63, 0
1, 17880, Tempo, 692121
1, 17880, Note_on_c, 0, 61, 58
1, 17880, Note_on_c, 0, 70, 70
1, 17880, Note_on_c, 0, 54, 48
1, 17940, Note_on_c, 0, 54, 0
1, 17940, Note_on_c, 0, 70, 0
1, 17940, Note_on_c, 0, 61, 0
1, 18000, Tempo, 654379
1, 18000, Note_on_c, 0, 61, 70
1, 18000, Note_on_c, 0, 70, 82
1, 18000, Note_on_c, 0, 41, 60
1, 18025, Control_c, 0, 64, 127
1, 18120, Note_on_c, 0, 41, 0
1, 18120, Note_on_c, 0, 53, 49
1, 18180, Note_on_c, 0, 53, 0
1, 18240, Note_on_c, 0, 53, 46
1, 18300, Note_on_c, 0, 53, 0
1, 18360, Note_on_c, 0, 64, 66
1, 18360, Note_on_c, 0, 53, 55
1, 18378, Control_c, 0, 64, 0
1, 18417, Control_c, 0, 64, 127
1, 18420, Note_on_c, 0, 53, 0
1, 18480, Note_on_c, 0, 53, 46
1, 18540, Note_on_c, 0, 53, 0
1, 18600, Tempo, 696136
1, 18600, Note_on_c, 0, 53, 46
1, 18660, Note_on_c, 0, 53, 0
1, 18720, Tempo, 650830
1, 18720, Note_on_c, 0, 61, 0
1, 18720, Note_on_c, 0, 70, 0
1, 18720, Note_on_c, 0, 64, 0
1, 18720, Note_on_c, 0, 60, 67
1, 18720, Note_on_c, 0, 65, 67
1, 18720, Note_on_c, 0, 69, 80
1, 18720, Note_on_c, 0, 53, 56
1, 18720, Control_c, 0, 64, 0
1, 18780, Control_c, 0, 64, 127
1, 18840, Note_on_c, 0, 53, 0
1, 18840, Note_on_c, 0, 54, 46
1, 18960, Note_on_c, 0, 54, 0
1, 18960, Note_on_c, 0, 53, 48
1, 19020, Note_on_c, 0, 53, 0
1, 19080, Note_on_c, 0, 60, 0
1, 19080, Note_on_c, 0, 65, 0
1, 19080, Note_on_c, 0, 69, 0
1, 19080, Note_on_c, 0, 53, 52
1, 19112, Control_c, 0, 64, 0
1, 19140, Note_on_c, 0, 53, 0
1, 19200, Tempo, 730016
1, 19200, Note_on_c, 0, 53, 46
1, 19260, Note_on_c, 0, 53, 0
1, 19320, Tempo, 650830
1, 19320, Note_on_c, 0, 73, 43
1, 19320, Note_on_c, 0, 77, 43
1, 19320, Note_on_c, 0, 53, 40
1, 19380, Note_on_c, 0, 53, 0
1, 19380, Note_on_c, 0, 77, 0
1, 19380, Note_on_c, 0, 73, 0
1, 19380, Note_on_c, 0, 46, 35
1, 19440, Tempo, 623765
1, 19440, Note_on_c, 0, 65, 40
1, 19440, Note_on_c, 0, 73, 50
1, 19440, Note_on_c, 0, 77, 50
1, 19440, Note_on_c, 0, 61, 40
1, 19458, Control_c, 0, 64, 127
1, 19560, Note_on_c, 0, 77, 0
1, 19560, Note_on_c, 0, 73, 0
1, 19560, Note_on_c, 0, 73, 45
1, 19560, Note_on_c, 0, 70, 45
1, 19680, Tempo, 676514
1, 19680, Note_on_c, 0, 70, 0
1, 19680, Note_on_c, 0, 46, 0
1, 19680, Note_on_c, 0, 61, 0
1, 19680, Note_on_c, 0, 65, 0
1, 19680, Note_on_c, 0, 73, 0
1, 19680, Note_on_c, 0, 77, 45
1, 19680, Note_on_c, 0, 73, 45
1, 19698, Control_c, 0, 64, 0
1, 19740, Note_on_c, 0, 73, 0
1, 19740, Note_on_c, 0, 77, 0
1, 19740, Note_on_c, 0, 46, 36
1, 19800, Tempo, 627025
1, 19800, Note_on_c, 0, 65, 41
1, 19800, Note_on_c, 0, 73, 51
1, 19800, Note_on_c, 0, 77, 51
1, 19800, Note_on_c, 0, 61, 41
1, 19846, Control_c, 0, 64, 127
1, 19920, Note_on_c, 0, 77, 0
1, 19920, Note_on_c, 0, 73, 0
1, 19920, Note_on_c, 0, 73, 48
1, 19920, Note_on_c, 0, 70, 48
1, 20040, Tempo, 668971
1, 20040, Note_on_c, 0, 70, 0
1, 20040, Note_on_c, 0, 46, 0
1, 20040, Note_on_c, 0, 61, 0
1, 20040, Note_on_c, 0, 65, 0
1, 20040, Note_on_c, 0, 73, 0
1, 20040, Note_on_c, 0, 77, 48
1, 20040, Note_on_c, 0, 73, 48
1, 20054, Control_c, 0, 64, 0
1, 20100, Note_on_c, 0, 73, 0
1, 20100, Note_on_c, 0, 77, 0
1, 20100, Note_on_c, 0, 46, 37
1, 20160, Tempo, 620540
1, 20160, Note_on_c, 0, 65, 42
1, 20160, Note_on_c, 0, 73, 53
1, 20160, Note_on_c, 0, 77, 53
1, 20160, Note_on_c, 0, 61, 42
1, 20206, Control_c, 0, 64, 127
1, 20280, Note_on_c, 0, 77, 0
1, 20280, Note_on_c, 0, 73, 0
1, 20280, Note_on_c, 0, 73, 50
1, 20280, Note_on_c, 0, 70, 50
1, 20400, Tempo, 668971
1, 20400, Note_on_c, 0, 70, 0
1, 20400, Note_on_c, 0, 46, 0
1, 20400, Note_on_c, 0, 61, 0
1, 20400, Note_on_c, 0, 65, 0
1, 20400, Note_on_c, 0, 73, 0
1, 20400, Note_on_c, 0, 77, 55
1, 20400, Note_on_c, 0, 73, 55
1, 20429, Control_c, 0, 64, 0
1, 20460, Note_on_c, 0, 73, 0
1, 20460, Note_on_c, 0, 77, 0
1, 20460, Note_on_c, 0, 46, 44
1, 20520, Tempo, 643846
1, 20520, Note_on_c, 0, 65, 53
1, 20520, Note_on_c, 0, 73, 66
1, 20520, Note_on_c, 0, 77, 66
1, 20520, Note_on_c, 0, 61, 53
1, 20548, Control_c, 0, 64, 127
1, 20640, Note_on_c, 0, 77, 0
1, 20640, Note_on_c, 0, 73, 0
1, 20640, Note_on_c, 0, 73, 63
1, 20640, Note_on_c, 0, 70, 63
1, 20760, Tempo, 767362
1, 20760, Note_on_c, 0, 70, 0
1, 20760, Note_on_c, 0, 46, 0
1, 20760, Note_on_c, 0, 61, 0
1, 20760, Note_on_c, 0, 65, 0
1, 20760, Note_on_c, 0, 73, 0
1, 20760, Note_on_c, 0, 77, 68
1, 20760, Note_on_c, 0, 73, 68
1, 20779, Control_c, 0, 64, 0
1, 20820, Note_on_c, 0, 73, 0
1, 20820, Note_on_c, 0, 77, 0
1, 20880, Tempo, 657967
1, 20880, Note_on_c, 0, 68, 58
1, 20880, Note_on_c, 0, 77, 66
1, 20880, Note_on_c, 0, 80, 82
1, 20880, Note_on_c, 0, 51, 69
1, 20951, Control_c, 0, 64, 127
1, 21000, Note_on_c, 0, 58, 49
1, 21060, Note_on_c, 0, 58, 0
1, 21120, Note_on_c, 0, 58, 46
1, 21180, Note_on_c, 0, 58, 0
1, 21240, Note_on_c, 0, 51, 0
1, 21240, Note_on_c, 0, 68, 0
1, 21240, Note_on_c, 0, 77, 0
1, 21240, Note_on_c, 0, 80, 0
1, 21240, Note_on_c, 0, 66, 56
1, 21240, Note_on_c, 0, 75, 56
1, 21240, Note_on_c, 0, 78, 66
1, 21240, Note_on_c, 0, 53, 60
1, 21240, Note_on_c, 0, 58, 55
1, 21258, Control_c, 0, 64, 0
1, 21300, Note_on_c, 0, 58, 0
1, 21311, Control_c, 0, 64, 127
1, 21360, Tempo, 640410
1, 21360, Note_on_c, 0, 58, 46
1, 21420, Note_on_c, 0, 58, 0
1, 21480, Tempo, 688152
1, 21480, Note_on_c, 0, 53, 0
1, 21480, Note_on_c, 0, 66, 0
1, 21480, Note_on_c, 0, 75, 0
1, 21480, Note_on_c, 0, 78, 0
1, 21480, Note_on_c, 0, 65, 56
1, 21480, Note_on_c, 0, 73, 56
1, 21480, Note_on_c, 0, 77, 66
1, 21480, Note_on_c, 0, 54, 60
1, 21480, Note_on_c, 0, 58, 46
1, 21488, Control_c, 0, 64, 0
1, 21540, Note_on_c, 0, 58, 0
1, 21540, Note_on_c, 0, 65, 0
1, 21540, Note_on_c, 0, 77, 0
1, 21540, Note_on_c, 0, 73, 0
1, 21600, Tempo, 654379
1, 21600, Note_on_c, 0, 54, 0
1, 21600, Note_on_c, 0, 65, 58
1, 21600, Note_on_c, 0, 73, 67
1, 21600, Note_on_c, 0, 77, 82
1, 21600, Note_on_c, 0, 56, 60
1, 21639, Control_c, 0, 64, 127
1, 21720, Note_on_c, 0, 56, 49
1, 21780, Note_on_c, 0, 56, 0
1, 21830, Note_on_c, 0, 56, 0
1, 21840, Note_on_c, 0, 56, 46
1, 21900, Note_on_c, 0, 56, 0
1, 21960, Note_on_c, 0, 77, 0
1, 21960, Note_on_c, 0, 73, 0
1, 21960, Note_on_c, 0, 65, 0
1, 21960, Note_on_c, 0, 63, 56
1, 21960, Note_on_c, 0, 72, 56
1, 21960, Note_on_c, 0, 75, 66
1, 21960, Note_on_c, 0, 54, 60
1, 21960, Note_on_c, 0, 56, 55
1, 21984, Control_c, 0, 64, 0
1, 22020, Note_on_c, 0, 56, 0
1, 22024, Control_c, 0, 64, 127
1, 22080, Note_on_c, 0, 56, 46
1, 22140, Note_on_c, 0, 56, 0
1, 22200, Tempo, 688152
1, 22200, Note_on_c, 0, 75, 0
1, 22200, Note_on_c, 0, 63, 0
1, 22200, Note_on_c, 0, 72, 0
1, 22200, Note_on_c, 0, 56, 46
1, 22220, Note_on_c, 0, 54, 0
1, 22260, Note_on_c, 0, 56, 0
1, 22320, Tempo, 657967
1, 22320, Note_on_c, 0, 65, 58
1, 22320, Note_on_c, 0, 68, 66
1, 22320, Note_on_c, 0, 77, 82
1, 22320, Note_on_c, 0, 53, 49
1, 22320, Note_on_c, 0, 56, 56
1, 22329, Control_c, 0, 64, 0
1, 22414, Control_c, 0, 64, 127
1, 22680, Tempo, 643846
1, 22680, Note_on_c, 0, 77, 0
1, 22680, Note_on_c, 0, 65, 0
1, 22680, Note_on_c, 0, 73, 69
1, 22680, Note_on_c, 0, 61, 55
1, 22705, Control_c, 0, 64, 0
1, 22807, Control_c, 0, 64, 127
1, 22920, Tempo, 708466
1, 22920, Note_on_c, 0, 61, 0
1, 22920, Note_on_c, 0, 73, 0
1, 22920, Note_on_c, 0, 72, 65
1, 22920, Note_on_c, 0, 60, 52
1, 23010, Note_on_c, 0, 60, 0
1, 23010, Note_on_c, 0, 72, 0
1, 23040, Tempo, 650830
1, 23040, Note_on_c, 0, 68, 0
1, 23040, Note_on_c, 0, 53, 0
1, 23040, Note_on_c, 0, 56, 0
1, 23040, Note_on_c, 0, 68, 69
1, 23040, Note_on_c, 0, 72, 69
1, 23040, Note_on_c, 0, 54, 49
1, 23040, Note_on_c, 0, 60, 55
1, 23054, Control_c, 0, 64, 0
1, 23120, Control_c, 0, 64, 127
1, 23280, Tempo, 676514
1, 23280, Note_on_c, 0, 60, 0
1, 23280, Note_on_c, 0, 68, 0
1, 23280, Note_on_c, 0, 72, 0
1, 23280, Note_on_c, 0, 66, 65
1, 23280, Note_on_c, 0, 70, 65
1, 23280, Note_on_c, 0, 58, 52
1, 23370, Note_on_c, 0, 58, 0
1, 23370, Note_on_c, 0, 70, 0
1, 23370, Note_on_c, 0, 66, 0
1, 23400, Tempo, 657967
1, 23400, Note_on_c, 0, 73, 69
1, 23400, Note_on_c, 0, 61, 55
1, 23421, Control_c, 0, 64, 0
1, 23487, Control_c, 0, 64, 127
1, 23520, Tempo, 661594
1, 23640, Tempo, 730016
1, 23640, Note_on_c, 0, 61, 0
1, 23640, Note_on_c, 0, 73, 0
1, 23640, Note_on_c, 0, 66, 65
1, 23640, Note_on_c, 0, 70, 65
1, 23640, Note_on_c, 0, 58, 52
1, 23730, Note_on_c, 0, 58, 0
1, 23730, Note_on_c, 0, 70, 0
1, 23730, Note_on_c, 0, 66, 0
1, 23760, Tempo, 657967
1, 23760, Note_on_c, 0, 54, 0
1, 23760, Note_on_c, 0, 66, 69
1, 23760, Note_on_c, 0, 70, 69
1, 23760, Note_on_c, 0, 49, 49
1, 23760, Note_on_c, 0, 58, 55
1, 23779, Control_c, 0, 64, 0
1, 23854, Control_c, 0, 64, 127
1, 24000, Tempo, 684229
1, 24000, Note_on_c, 0, 58, 0
1, 24000, Note_on_c, 0, 66, 0
1, 24000, Note_on_c, 0, 70, 0
1, 24000, Note_on_c, 0, 65, 65
1, 24000, Note_on_c, 0, 68, 65
1, 24000, Note_on_c, 0, 56, 52
1, 24090, Note_on_c, 0, 56, 0
1, 24090, Note_on_c, 0, 68, 0
1, 24090, Note_on_c, 0, 65, 0
1, 24120, Tempo, 668971
1, 24120, Note_on_c, 0, 73, 69
1, 24120, Note_on_c, 0, 61, 55
1, 24136, Control_c, 0, 64, 0
1, 24207, Control_c, 0, 64, 127
1, 24360, Note_on_c, 0, 61, 0
1, 24360, Note_on_c, 0, 73, 0
1, 24360, Note_on_c, 0, 65, 65
1, 24360, Note_on_c, 0, 68, 65
1, 24360, Note_on_c, 0, 56, 52
1, 24450, Note_on_c, 0, 56, 0
1, 24450, Note_on_c, 0, 68, 0
1, 24450, Note_on_c, 0, 65, 0
1, 24480, Tempo, 661594
1, 24480, Note_on_c, 0, 49, 0
1, 24480, Note_on_c, 0, 65, 69
1, 24480, Note_on_c, 0, 68, 69
1, 24480, Note_on_c, 0, 44, 41
1, 24480, Note_on_c, 0, 56, 49
1, 24497, Control_c, 0, 64, 0
1, 24543, Control_c, 0, 64, 127
1, 24720, Tempo, 688152
1, 24720, Note_on_c, 0, 68, 0
1, 24720, Note_on_c, 0, 65, 0
1, 24720, Note_on_c, 0, 69, 61
1, 24840, Tempo, 665262
1, 24840, Note_on_c, 0, 69, 0
1, 24840, Note_on_c, 0, 60, 49
1, 24840, Note_on_c, 0, 66, 49
1, 24840, Note_on_c, 0, 70, 62
1, 24859, Control_c, 0, 64, 0
1, 24915, Control_c, 0, 64, 127
1, 24960, Tempo, 767362
1, 25080, Tempo, 808734
1, 25080, Note_on_c, 0, 70, 0
1, 25080, Note_on_c, 0, 60, 0
1, 25080, Note_on_c, 0, 66, 0
1, 25080, Note_on_c, 0, 63, 54
1, 25080, Note_on_c, 0, 66, 54
1, 25170, Note_on_c, 0, 66, 0
1, 25170, Note_on_c, 0, 63, 0
1, 25200, Tempo, 665262
1, 25200, Note_on_c, 0, 44, 0
1, 25200, Note_on_c, 0, 56, 0
1, 25200, Note_on_c, 0, 66, 58
1, 25200, Note_on_c, 0, 63, 49
1, 25200, Note_on_c, 0, 60, 49
1, 25200, Note_on_c, 0, 37, 41
1, 25213, Control_c, 0, 64, 0
1, 25307, Control_c, 0, 64, 127
1, 25560, Note_on_c, 0, 60, 0
1, 25560, Note_on_c, 0, 66, 0
1, 25560, Note_on_c, 0, 63, 0
1, 25560, Note_on_c, 0, 61, 41
1, 25560, Note_on_c, 0, 65, 49
1, 25577, Control_c, 0, 64, 0
1, 25647, Control_c, 0, 64, 127
1, 25920, Tempo, 654379
1, 25920, Note_on_c, 0, 65, 0
1, 25920, Note_on_c, 0, 61, 0
1, 25920, Note_on_c, 0, 37, 0
1, 25920, Note_on_c, 0, 53, 43
1, 25926, Control_c, 0, 64, 0
1, 26040, Note_on_c, 0, 53, 0
1, 26040, Note_on_c, 0, 54, 41
1, 26160, Note_on_c, 0, 54, 0
1, 26160, Note_on_c, 0, 53, 38
1, 26280, Tempo, 665262
1, 26280, Note_on_c, 0, 53, 0
1, 26280, Note_on_c, 0, 51, 41
1, 26400, Tempo, 696136
1, 26400, Note_on_c, 0, 51, 0
1, 26400, Note_on_c, 0, 49, 38
1, 26520, Tempo, 672721
1, 26520, Note_on_c, 0, 49, 0
1, 26520, Note_on_c, 0, 63, 43
1, 26520, Note_on_c, 0, 65, 43
1, 26520, Note_on_c, 0, 47, 38
1, 26580, Note_on_c, 0, 65, 0
1, 26580, Note_on_c, 0, 63, 0
1, 26640, Tempo, 643846
1, 26640, Marker_t, "Teil 2"
1, 26640, Note_on_c, 0, 47, 0
1, 26640, Note_on_c, 0, 62, 50
1, 26640, Note_on_c, 0, 65, 50
1, 26640, Note_on_c, 0, 46, 40
1, 26704, Control_c, 0, 64, 127
1, 26760, Note_on_c, 0, 65, 0
1, 26760, Note_on_c, 0, 62, 0
1, 26760, Note_on_c, 0, 70, 45
1, 26760, Note_on_c, 0, 58, 45
1, 26785, Control_c, 0, 64, 0
1, 26880, Tempo, 688152
1, 26880, Note_on_c, 0, 58, 0
1, 26880, Note_on_c, 0, 70, 0
1, 26880, Note_on_c, 0, 46, 0
1, 26880, Note_on_c, 0, 65, 45
1, 26880, Note_on_c, 0, 62, 45
1, 26940, Note_on_c, 0, 62, 0
1, 26940, Note_on_c, 0, 65, 0
1, 27000, Tempo, 643846
1, 27000, Note_on_c, 0, 62, 50
1, 27000, Note_on_c, 0, 65, 50
1, 27000, Note_on_c, 0, 46, 40
1, 27060, Control_c, 0, 64, 127
1, 27120, Note_on_c, 0, 65, 0
1, 27120, Note_on_c, 0, 62, 0
1, 27120, Note_on_c, 0, 70, 46
1, 27120, Note_on_c, 0, 58, 46
1, 27152, Control_c, 0, 64, 0
1, 27240, Tempo, 680349
1, 27240, Note_on_c, 0, 58, 0
1, 27240, Note_on_c, 0, 70, 0
1, 27240, Note_on_c, 0, 46, 0
1, 27240, Note_on_c, 0, 65, 46
1, 27240, Note_on_c, 0, 62, 46
1, 27300, Note_on_c, 0, 62, 0
1, 27300, Note_on_c, 0, 65, 0
1, 27360, Tempo, 647319
1, 27360, Note_on_c, 0, 58, 46
1, 27360, Note_on_c, 0, 65, 46
1, 27360, Note_on_c, 0, 68, 46
1, 27360, Note_on_c, 0, 39, 49
1, 27399, Control_c, 0, 64, 127
1, 27480, Note_on_c, 0, 46, 39
1, 27519, Control_c, 0, 64, 0
1, 27540, Note_on_c, 0, 46, 0
1, 27600, Tempo, 680349
1, 27600, Note_on_c, 0, 39, 0
1, 27600, Note_on_c, 0, 46, 38
1, 27660, Note_on_c, 0, 46, 0
1, 27720, Tempo, 650830
1, 27720, Note_on_c, 0, 68, 0
1, 27720, Note_on_c, 0, 65, 0
1, 27720, Note_on_c, 0, 58, 0
1, 27720, Note_on_c, 0, 63, 46
1, 27720, Note_on_c, 0, 66, 46
1, 27720, Note_on_c, 0, 42, 45
1, 27720, Note_on_c, 0, 46, 45
1, 27780, Note_on_c, 0, 46, 0
1, 27780, Control_c, 0, 64, 127
1, 27840, Note_on_c, 0, 63, 0
1, 27840, Note_on_c, 0, 66, 0
1, 27840, Note_on_c, 0, 46, 42
1, 27876, Control_c, 0, 64, 0
1, 27900, Note_on_c, 0, 46, 0
1, 27960, Tempo, 672721
1, 27960, Note_on_c, 0, 42, 0
1, 27960, Note_on_c, 0, 63, 43
1, 27960, Note_on_c, 0, 66, 43
1, 27960, Note_on_c, 0, 46, 42
1, 28020, Note_on_c, 0, 46, 0
1, 28020, Note_on_c, 0, 66, 0
1, 28020, Note_on_c, 0, 63, 0
1, 28080, Tempo, 643846
1, 28080, Note_on_c, 0, 62, 50
1, 28080, Note_on_c, 0, 65, 50
1, 28080, Note_on_c, 0, 46, 40
1, 28144, Control_c, 0, 64, 127
1, 28200, Note_on_c, 0, 65, 0
1, 28200, Note_on_c, 0, 62, 0
1, 28200, Note_on_c, 0, 70, 45
1, 28200, Note_on_c, 0, 58, 45
1, 28225, Control_c, 0, 64, 0
1, 28320, Tempo, 688152
1, 28320, Note_on_c, 0, 58, 0
1, 28320, Note_on_c, 0, 70, 0
1, 28320, Note_on_c, 0, 46, 0
1, 28320, Note_on_c, 0, 65, 45
1, 28320, Note_on_c, 0, 62, 45
1, 28380, Note_on_c, 0, 62, 0
1, 28380, Note_on_c, 0, 65, 0
1, 28440, Tempo, 643846
1, 28440, Note_on_c, 0, 62, 50
1, 28440, Note_on_c, 0, 65, 50
1, 28440, Note_on_c, 0, 46, 40
1, 28500, Control_c, 0, 64, 127
1, 28560, Note_on_c, 0, 65, 0
1, 28560, Note_on_c, 0, 62, 0
1, 28560, Note_on_c, 0, 70, 46
1, 28560, Note_on_c, 0, 58, 46
1, 28592, Control_c, 0, 64, 0
1, 28680, Tempo, 680349
1, 28680, Note_on_c, 0, 58, 0
1, 28680, Note_on_c, 0, 70, 0
1, 28680, Note_on_c, 0, 46, 0
1, 28680, Note_on_c, 0, 65, 46
1, 28680, Note_on_c, 0, 62, 46
1, 28740, Note_on_c, 0, 62, 0
1, 28740, Note_on_c, 0, 65, 0
1, 28800, Tempo, 647319
1, 28800, Note_on_c, 0, 58, 46
1, 28800, Note_on_c, 0, 65, 46
1, 28800, Note_on_c, 0, 68, 46
1, 28800, Note_on_c, 0, 39, 49
1, 28839, Control_c, 0, 64, 127
1, 28920, Note_on_c, 0, 46, 39
1, 28959, Control_c, 0, 64, 0
1, 28980, Note_on_c, 0, 46, 0
1, 29040, Tempo, 680349
1, 29040, Note_on_c, 0, 39, 0
1, 29040, Note_on_c, 0, 46, 38
1, 29100, Note_on_c, 0, 46, 0
1, 29160, Tempo, 650830
1, 29160, Note_on_c, 0, 68, 0
1, 29160, Note_on_c, 0, 65, 0
1, 29160, Note_on_c, 0, 58, 0
1, 29160, Note_on_c, 0, 63, 46
1, 29160, Note_on_c, 0, 66, 46
1, 29160, Note_on_c, 0, 48, 45
1, 29220, Note_on_c, 0, 48, 0
1, 29220, Control_c, 0, 64, 127
1, 29280, Note_on_c, 0, 66, 0
1, 29280, Note_on_c, 0, 63, 0
1, 29280, Note_on_c, 0, 48, 42
1, 29316, Control_c, 0, 64, 0
1, 29340, Note_on_c, 0, 48, 0
1, 29400, Tempo, 672721
1, 29400, Note_on_c, 0, 66, 49
1, 29400, Note_on_c, 0, 63, 49
1, 29400, Note_on_c, 0, 70, 49
1, 29400, Note_on_c, 0, 48, 48
1, 29460, Note_on_c, 0, 48, 0
1, 29460, Note_on_c, 0, 66, 0
1, 29460, Note_on_c, 0, 63, 0
1, 29460, Note_on_c, 0, 70, 0
1, 29520, Tempo, 637010
1, 29520, Note_on_c, 0, 65, 57
1, 29520, Note_on_c, 0, 68, 57
1, 29520, Note_on_c, 0, 41, 39
1, 29520, Note_on_c, 0, 49, 46
1, 29584, Control_c, 0, 64, 127
1, 29640, Note_on_c, 0, 68, 0
1, 29640, Note_on_c, 0, 65, 0
1, 29640, Note_on_c, 0, 73, 51
1, 29640, Note_on_c, 0, 61, 51
1, 29665, Control_c, 0, 64, 0
1, 29760, Tempo, 688152
1, 29760, Note_on_c, 0, 61, 0
1, 29760, Note_on_c, 0, 49, 0
1, 29760, Note_on_c, 0, 41, 0
1, 29760, Note_on_c, 0, 73, 0
1, 29760, Note_on_c, 0, 68, 51
1, 29760, Note_on_c, 0, 65, 51
1, 29820, Note_on_c, 0, 65, 0
1, 29820, Note_on_c, 0, 68, 0
1, 29880, Tempo, 633647
1, 29880, Note_on_c, 0, 65, 58
1, 29880, Note_on_c, 0, 68, 58
1, 29880, Note_on_c, 0, 37, 39
1, 29880, Note_on_c, 0, 49, 46
1, 29940, Control_c, 0, 64, 127
1, 30000, Note_on_c, 0, 68, 0
1, 30000, Note_on_c, 0, 65, 0
1, 30000, Note_on_c, 0, 73, 53
1, 30000, Note_on_c, 0, 61, 53
1, 30032, Control_c, 0, 64, 0
1, 30120, Tempo, 712674
1, 30120, Note_on_c, 0, 61, 0
1, 30120, Note_on_c, 0, 49, 0
1, 30120, Note_on_c, 0, 37, 0
1, 30120, Note_on_c, 0, 73, 0
1, 30120, Note_on_c, 0, 68, 53
1, 30120, Note_on_c, 0, 65, 53
1, 30180, Note_on_c, 0, 65, 0
1, 30180, Note_on_c, 0, 68, 0
1, 30240, Tempo, 647319
1, 30240, Note_on_c, 0, 65, 54
1, 30240, Note_on_c, 0, 61, 54
1, 30240, Note_on_c, 0, 68, 54
1, 30240, Note_on_c, 0, 71, 54
1, 30240, Note_on_c, 0, 42, 58
1, 30279, Control_c, 0, 64, 127
1, 30360, Note_on_c, 0, 49, 45
1, 30399, Control_c, 0, 64, 0
1, 30420, Note_on_c, 0, 49, 0
1, 30480, Tempo, 680349
1, 30480, Note_on_c, 0, 42, 0
1, 30480, Note_on_c, 0, 49, 45
1, 30540, Note_on_c, 0, 49, 0
1, 30600, Tempo, 650830
1, 30600, Note_on_c, 0, 71, 0
1, 30600, Note_on_c, 0, 65, 0
1, 30600, Note_on_c, 0, 61, 0
1, 30600, Note_on_c, 0, 68, 0
1, 30600, Note_on_c, 0, 66, 54
1, 30600, Note_on_c, 0, 70, 54
1, 30600, Note_on_c, 0, 46, 58
1, 30600, Note_on_c, 0, 49, 53
1, 30660, Note_on_c, 0, 49, 0
1, 30660, Control_c, 0, 64, 127
1, 30720, Note_on_c, 0, 66, 0
1, 30720, Note_on_c, 0, 70, 0
1, 30720, Note_on_c, 0, 49, 50
1, 30756, Control_c, 0, 64, 0
1, 30780, Note_on_c, 0, 49, 0
1, 30840, Tempo, 672721
1, 30840, Note_on_c, 0, 46, 0
1, 30840, Note_on_c, 0, 66, 59
1, 30840, Note_on_c, 0, 70, 59
1, 30840, Note_on_c, 0, 49, 58
1, 30900, Note_on_c, 0, 49, 0
1, 30900, Note_on_c, 0, 70, 0
1, 30900, Note_on_c, 0, 66, 0
1, 30960, Tempo, 640410
1, 30960, Note_on_c, 0, 65, 69
1, 30960, Note_on_c, 0, 68, 69
1, 30960, Note_on_c, 0, 41, 47
1, 30960, Note_on_c, 0, 49, 55
1, 31024, Control_c, 0, 64, 127
1, 31080, Note_on_c, 0, 68, 0
1, 31080, Note_on_c, 0, 65, 0
1, 31080, Note_on_c, 0, 73, 62
1, 31080, Note_on_c, 0, 61, 62
1, 31105, Control_c, 0, 64, 0
1, 31200, Tempo, 688152
1, 31200, Note_on_c, 0, 61, 0
1, 31200, Note_on_c, 0, 49, 0
1, 31200, Note_on_c, 0, 41, 0
1, 31200, Note_on_c, 0, 73, 0
1, 31200, Note_on_c, 0, 68, 63
1, 31200, Note_on_c, 0, 65, 63
1, 31260, Note_on_c, 0, 65, 0
1, 31260, Note_on_c, 0, 68, 0
1, 31320, Tempo, 637010
1, 31320, Note_on_c, 0, 65, 74
1, 31320, Note_on_c, 0, 68, 74
1, 31320, Note_on_c, 0, 37, 50
1, 31320, Note_on_c, 0, 49, 58
1, 31380, Control_c, 0, 64, 127
1, 31440, Note_on_c, 0, 68, 0
1, 31440, Note_on_c, 0, 65, 0
1, 31440, Note_on_c, 0, 73, 68
1, 31440, Note_on_c, 0, 61, 68
1, 31472, Control_c, 0, 64, 0
1, 31560, Tempo, 734484
1, 31560, Note_on_c, 0, 61, 0
1, 31560, Note_on_c, 0, 49, 0
1, 31560, Note_on_c, 0, 37, 0
1, 31560, Note_on_c, 0, 73, 0
1, 31560, Note_on_c, 0, 68, 69
1, 31560, Note_on_c, 0, 65, 69
1, 31620, Note_on_c, 0, 65, 0
1, 31620, Note_on_c, 0, 68, 0
1, 31680, Tempo, 647319
1, 31680, Note_on_c, 0, 65, 71
1, 31680, Note_on_c, 0, 62, 71
1, 31680, Note_on_c, 0, 68, 71
1, 31680, Note_on_c, 0, 71, 71
1, 31680, Note_on_c, 0, 42, 77
1, 31719, Control_c, 0, 64, 127
1, 31800, Note_on_c, 0, 50, 61
1, 31839, Control_c, 0, 64, 0
1, 31860, Note_on_c, 0, 50, 0
1, 31920, Tempo, 680349
1, 31920, Note_on_c, 0, 42, 0
1, 31920, Note_on_c, 0, 50, 61
1, 31980, Note_on_c, 0, 50, 0
1, 32040, Tempo, 650830
1, 32040, Note_on_c, 0, 71, 0
1, 32040, Note_on_c, 0, 65, 0
1, 32040, Note_on_c, 0, 62, 0
1, 32040, Note_on_c, 0, 68, 0
1, 32040, Note_on_c, 0, 63, 75
1, 32040, Note_on_c, 0, 66, 75
1, 32040, Note_on_c, 0, 70, 75
1, 32040, Note_on_c, 0, 51, 74
1, 32100, Note_on_c, 0, 51, 0
1, 32100, Control_c, 0, 64, 127
1, 32160, Note_on_c, 0, 63, 0
1, 32160, Note_on_c, 0, 66, 0
1, 32160, Note_on_c, 0, 70, 0
1, 32160, Note_on_c, 0, 51, 71
1, 32196, Control_c, 0, 64, 0
1, 32220, Note_on_c, 0, 51, 0
1, 32280, Tempo, 757671
1, 32280, Note_on_c, 0, 51, 71
1, 32340, Note_on_c, 0, 51, 0
1, 32400, Tempo, 647319
1, 32400, Note_on_c, 0, 65, 78
1, 32400, Note_on_c, 0, 72, 78
1, 32400, Note_on_c, 0, 77, 92
1, 32400, Note_on_c, 0, 45, 89
1, 32439, Control_c, 0, 64, 127
1, 32520, Note_on_c, 0, 45, 0
1, 32520, Note_on_c, 0, 53, 70
1, 32559, Control_c, 0, 64, 0
1, 32580, Note_on_c, 0, 53, 0
1, 32640, Tempo, 680349
1, 32640, Note_on_c, 0, 53, 67
1, 32700, Note_on_c, 0, 53, 0
1, 32757, Note_on_c, 0, 65, 0
1, 32757, Note_on_c, 0, 72, 0
1, 32757, Note_on_c, 0, 77, 0
1, 32760, Tempo, 650830
1, 32760, Note_on_c, 0, 72, 81
1, 32760, Note_on_c, 0, 69, 69
1, 32760, Note_on_c, 0, 41, 80
1, 32820, Control_c, 0, 64, 127
1, 32880, Note_on_c, 0, 41, 0
1, 32880, Note_on_c, 0, 53, 70
1, 32916, Control_c, 0, 64, 0
1, 32940, Note_on_c, 0, 53, 0
1, 33000, Note_on_c, 0, 69, 0
1, 33000, Note_on_c, 0, 72, 0
1, 33000, Note_on_c, 0, 72, 77
1, 33000, Note_on_c, 0, 69, 64
1, 33000, Note_on_c, 0, 65, 64
1, 33000, Note_on_c, 0, 53, 71
1, 33060, Note_on_c, 0, 53, 0
1, 33060, Note_on_c, 0, 72, 0
1, 33060, Note_on_c, 0, 69, 0
1, 33060, Note_on_c, 0, 65, 0
1, 33120, Tempo, 647319
1, 33120, Note_on_c, 0, 66, 78
1, 33120, Note_on_c, 0, 72, 78
1, 33120, Note_on_c, 0, 75, 92
1, 33120, Note_on_c, 0, 46, 88
1, 33159, Control_c, 0, 64, 127
1, 33240, Note_on_c, 0, 46, 0
1, 33240, Note_on_c, 0, 53, 73
1, 33279, Control_c, 0, 64, 0
1, 33300, Note_on_c, 0, 53, 0
1, 33360, Tempo, 680349
1, 33360, Note_on_c, 0, 75, 0
1, 33360, Note_on_c, 0, 72, 0
1, 33360, Note_on_c, 0, 66, 0
1, 33360, Note_on_c, 0, 73, 80
1, 33360, Note_on_c, 0, 70, 67
1, 33360, Note_on_c, 0, 64, 67
1, 33360, Note_on_c, 0, 53, 72
1, 33420, Note_on_c, 0, 53, 0
1, 33480, Tempo, 650830
1, 33480, Note_on_c, 0, 73, 0
1, 33480, Note_on_c, 0, 70, 0
1, 33480, Note_on_c, 0, 64, 0
1, 33480, Note_on_c, 0, 72, 79
1, 33480, Note_on_c, 0, 69, 66
1, 33480, Note_on_c, 0, 65, 66
1, 33480, Note_on_c, 0, 41, 82
1, 33540, Control_c, 0, 64, 127
1, 33600, Note_on_c, 0, 41, 0
1, 33600, Note_on_c, 0, 53, 71
1, 33636, Control_c, 0, 64, 0
1, 33660, Note_on_c, 0, 53, 0
1, 33720, Tempo, 739007
1, 33720, Note_on_c, 0, 53, 71
1, 33780, Note_on_c, 0, 53, 0
1, 33840, Tempo, 647319
1, 33840, Note_on_c, 0, 72, 0
1, 33840, Note_on_c, 0, 69, 0
1, 33840, Note_on_c, 0, 65, 0
1, 33840, Note_on_c, 0, 65, 78
1, 33840, Note_on_c, 0, 72, 78
1, 33840, Note_on_c, 0, 77, 92
1, 33840, Note_on_c, 0, 45, 89
1, 33879, Control_c, 0, 64, 127
1, 33960, Note_on_c, 0, 45, 0
1, 33960, Note_on_c, 0, 53, 70
1, 33999, Control_c, 0, 64, 0
1, 34020, Note_on_c, 0, 53, 0
1, 34080, Tempo, 680349
1, 34080, Note_on_c, 0, 53, 67
1, 34140, Note_on_c, 0, 53, 0
1, 34197, Note_on_c, 0, 65, 0
1, 34197, Note_on_c, 0, 72, 0
1, 34197, Note_on_c, 0, 77, 0
1, 34200, Tempo, 650830
1, 34200, Note_on_c, 0, 72, 81
1, 34200, Note_on_c, 0, 69, 69
1, 34200, Note_on_c, 0, 41, 80
1, 34260, Control_c, 0, 64, 127
1, 34320, Note_on_c, 0, 41, 0
1, 34320, Note_on_c, 0, 53, 70
1, 34356, Control_c, 0, 64, 0
1, 34380, Note_on_c, 0, 53, 0
1, 34440, Note_on_c, 0, 69, 0
1, 34440, Note_on_c, 0, 72, 0
1, 34440, Note_on_c, 0, 72, 77
1, 34440, Note_on_c, 0, 69, 64
1, 34440, Note_on_c, 0, 65, 64
1, 34440, Note_on_c, 0, 53, 71
1, 34500, Note_on_c, 0, 53, 0
1, 34500, Note_on_c, 0, 72, 0
1, 34500, Note_on_c, 0, 69, 0
1, 34500, Note_on_c, 0, 65, 0
1, 34560, Tempo, 647319
1, 34560, Note_on_c, 0, 66, 78
1, 34560, Note_on_c, 0, 72, 78
1, 34560, Note_on_c, 0, 75, 92
1, 34560, Note_on_c, 0, 46, 88
1, 34599, Control_c, 0, 64, 127
1, 34680, Note_on_c, 0, 46, 0
1, 34680, Note_on_c, 0, 53, 73
1, 34719, Control_c, 0, 64, 0
1, 34740, Note_on_c, 0, 53, 0
1, 34800, Tempo, 680349
1, 34800, Note_on_c, 0, 75, 0
1, 34800, Note_on_c, 0, 72, 0
1, 34800, Note_on_c, 0, 66, 0
1, 34800, Note_on_c, 0, 73, 80
1, 34800, Note_on_c, 0, 70, 67
1, 34800, Note_on_c, 0, 64, 67
1, 34800, Note_on_c, 0, 53, 72
1, 34860, Note_on_c, 0, 53, 0
1, 34920, Tempo, 650830
1, 34920, Note_on_c, 0, 73, 0
1, 34920, Note_on_c, 0, 70, 0
1, 34920, Note_on_c, 0, 64, 0
1, 34920, Note_on_c, 0, 72, 79
1, 34920, Note_on_c, 0, 69, 66
1, 34920, Note_on_c, 0, 65, 66
1, 34920, Note_on_c, 0, 41, 82
1, 34980, Control_c, 0, 64, 127
1, 35040, Note_on_c, 0, 41, 0
1, 35040, Note_on_c, 0, 53, 71
1, 35076, Control_c, 0, 64, 0
1, 35100, Note_on_c, 0, 53, 0
1, 35160, Tempo, 739007
1, 35160, Note_on_c, 0, 53, 71
1, 35220, Note_on_c, 0, 53, 0
1, 35280, Tempo, 647319
1, 35280, Note_on_c, 0, 72, 0
1, 35280, Note_on_c, 0, 69, 0
1, 35280, Note_on_c, 0, 65, 0
1, 35280, Note_on_c, 0, 65, 78
1, 35280, Note_on_c, 0, 72, 78
1, 35280, Note_on_c, 0, 77, 92
1, 35280, Note_on_c, 0, 45, 89
1, 35319, Control_c, 0, 64, 127
1, 35400, Note_on_c, 0, 45, 0
1, 35400, Note_on_c, 0, 53, 68
1, 35439, Control_c, 0, 64, 0
1, 35460, Note_on_c, 0, 53, 0
1, 35520, Tempo, 680349
1, 35520, Note_on_c, 0, 53, 64
1, 35580, Note_on_c, 0, 53, 0
1, 35637, Note_on_c, 0, 65, 0
1, 35637, Note_on_c, 0, 72, 0
1, 35637, Note_on_c, 0, 77, 0
1, 35640, Tempo, 650830
1, 35640, Note_on_c, 0, 72, 76
1, 35640, Note_on_c, 0, 69, 64
1, 35640, Note_on_c, 0, 41, 75
1, 35700, Control_c, 0, 64, 127
1, 35760, Note_on_c, 0, 41, 0
1, 35760, Note_on_c, 0, 53, 64
1, 35796, Control_c, 0, 64, 0
1, 35820, Note_on_c, 0, 53, 0
1, 35880, Note_on_c, 0, 69, 0
1, 35880, Note_on_c, 0, 72, 0
1, 35880, Note_on_c, 0, 72, 69
1, 35880, Note_on_c, 0, 69, 57
1, 35880, Note_on_c, 0, 65, 57
1, 35880, Note_on_c, 0, 53, 63
1, 35940, Note_on_c, 0, 53, 0
1, 35940, Note_on_c, 0, 72, 0
1, 35940, Note_on_c, 0, 69, 0
1, 35940, Note_on_c, 0, 65, 0
1, 36000, Tempo, 647319
1, 36000, Note_on_c, 0, 66, 68
1, 36000, Note_on_c, 0, 75, 80
1, 36000, Note_on_c, 0, 46, 77
1, 36039, Control_c, 0, 64, 127
1, 36159, Control_c, 0, 64, 0
1, 36240, Tempo, 680349
1, 36240, Note_on_c, 0, 75, 0
1, 36240, Note_on_c, 0, 66, 0
1, 36240, Note_on_c, 0, 73, 63
1, 36240, Note_on_c, 0, 65, 53
1, 36360, Tempo, 650830
1, 36360, Note_on_c, 0, 65, 0
1, 36360, Note_on_c, 0, 73, 0
1, 36360, Note_on_c, 0, 66, 51
1, 36360, Note_on_c, 0, 72, 60
1, 36360, Note_on_c, 0, 63, 51
1, 36420, Control_c, 0, 64, 127
1, 36600, Tempo, 739007
1, 36600, Note_on_c, 0, 63, 0
1, 36600, Note_on_c, 0, 72, 0
1, 36600, Note_on_c, 0, 66, 0
1, 36600, Note_on_c, 0, 61, 49
1, 36600, Note_on_c, 0, 65, 49
1, 36600, Note_on_c, 0, 70, 58
1, 36608, Control_c, 0, 64, 0
1, 36720, Tempo, 647319
1, 36720, Note_on_c, 0, 70, 0
1, 36720, Note_on_c, 0, 65, 0
1, 36720, Note_on_c, 0, 61, 0
1, 36720, Note_on_c, 0, 63, 55
1, 36720, Note_on_c, 0, 60, 55
1, 36720, Note_on_c, 0, 68, 65
1, 36806, Control_c, 0, 64, 127
1, 36960, Tempo, 680349
1, 36960, Note_on_c, 0, 68, 0
1, 36960, Note_on_c, 0, 60, 0
1, 36960, Note_on_c, 0, 63, 0
1, 36960, Note_on_c, 0, 58, 46
1, 36960, Note_on_c, 0, 66, 54
1, 36960, Note_on_c, 0, 61, 46
1, 36970, Control_c, 0, 64, 0
1, 37080, Tempo, 676514
1, 37080, Note_on_c, 0, 61, 0
1, 37080, Note_on_c, 0, 46, 0
1, 37080, Note_on_c, 0, 58, 0
1, 37080, Note_on_c, 0, 66, 0
1, 37080, Note_on_c, 0, 60, 44
1, 37080, Note_on_c, 0, 65, 52
1, 37080, Note_on_c, 0, 57, 44
1, 37080, Note_on_c, 0, 48, 58
1, 37140, Control_c, 0, 64, 127
1, 37200, Tempo, 716932
1, 37320, Tempo, 831140
1, 37320, Note_on_c, 0, 57, 0
1, 37320, Note_on_c, 0, 60, 0
1, 37320, Note_on_c, 0, 65, 0
1, 37320, Note_on_c, 0, 58, 42
1, 37320, Note_on_c, 0, 55, 42
1, 37320, Note_on_c, 0, 64, 50
1, 37328, Control_c, 0, 64, 0
1, 37410, Note_on_c, 0, 64, 0
1, 37410, Note_on_c, 0, 55, 0
1, 37410, Note_on_c, 0, 58, 0
1, 37440, Tempo, 730016
1, 37440, Note_on_c, 0, 48, 0
1, 37440, Note_on_c, 0, 55, 37
1, 37440, Note_on_c, 0, 58, 37
1, 37440, Note_on_c, 0, 64, 45
1, 37440, Note_on_c, 0, 41, 52
1, 37529, Control_c, 0, 64, 127
1, 37800, Note_on_c, 0, 64, 0
1, 37800, Note_on_c, 0, 55, 0
1, 37800, Note_on_c, 0, 58, 0
1, 37800, Note_on_c, 0, 57, 37
1, 37800, Note_on_c, 0, 65, 45
1, 37830, Control_c, 0, 64, 0
1, 37940, Control_c, 0, 64, 127
1, 38160, Tempo, 654379
1, 38160, Note_on_c, 0, 65, 0
1, 38160, Note_on_c, 0, 57, 0
1, 38160, Note_on_c, 0, 41, 0
1, 38160, Note_on_c, 0, 53, 43
1, 38166, Control_c, 0, 64, 0
1, 38168, Control_c, 0, 64, 0
1, 38280, Note_on_c, 0, 53, 0
1, 38280, Note_on_c, 0, 54, 41
1, 38400, Note_on_c, 0, 54, 0
1, 38400, Note_on_c, 0, 53, 38
1, 38520, Tempo, 665262
1, 38520, Note_on_c, 0, 53, 0
1, 38520, Note_on_c, 0, 51, 41
1, 38640, Tempo, 696136
1, 38640, Note_on_c, 0, 51, 0
1, 38640, Note_on_c, 0, 49, 38
1, 38760, Tempo, 672721
1, 38760, Note_on_c, 0, 49, 0
1, 38760, Note_on_c, 0, 73, 43
1, 38760, Note_on_c, 0, 77, 43
1, 38760, Note_on_c, 0, 48, 38
1, 38820, Note_on_c, 0, 77, 0
1, 38820, Note_on_c, 0, 73, 0
1, 38880, Tempo, 650830
1, 38880, Note_on_c, 0, 48, 0
1, 38880, Note_on_c, 0, 65, 40
1, 38880, Note_on_c, 0, 73, 50
1, 38880, Note_on_c, 0, 77, 50
1, 38880, Note_on_c, 0, 61, 40
1, 38944, Control_c, 0, 64, 127
1, 39000, Note_on_c, 0, 77, 0
1, 39000, Note_on_c, 0, 73, 0
1, 39000, Note_on_c, 0, 73, 45
1, 39000, Note_on_c, 0, 70, 45
1, 39120, Tempo, 688152
1, 39120, Note_on_c, 0, 70, 0
1, 39120, Note_on_c, 0, 61, 0
1, 39120, Note_on_c, 0, 65, 0
1, 39120, Note_on_c, 0, 73, 0
1, 39120, Note_on_c, 0, 77, 45
1, 39120, Note_on_c, 0, 73, 45
1, 39134, Control_c, 0, 64, 0
1, 39180, Note_on_c, 0, 73, 0
1, 39180, Note_on_c, 0, 77, 0
1, 39180, Note_on_c, 0, 46, 35
1, 39240, Tempo, 633647
1, 39240, Note_on_c, 0, 65, 40
1, 39240, Note_on_c, 0, 73, 50
1, 39240, Note_on_c, 0, 77, 50
1, 39240, Note_on_c, 0, 61, 40
1, 39300, Control_c, 0, 64, 127
1, 39360, Note_on_c, 0, 77, 0
1, 39360, Note_on_c, 0, 73, 0
1, 39360, Note_on_c, 0, 73, 46
1, 39360, Note_on_c, 0, 70, 46
1, 39480, Tempo, 680349
1, 39480, Note_on_c, 0, 70, 0
1, 39480, Note_on_c, 0, 46, 0
1, 39480, Note_on_c, 0, 61, 0
1, 39480, Note_on_c, 0, 65, 0
1, 39480, Note_on_c, 0, 73, 0
1, 39480, Note_on_c, 0, 77, 46
1, 39480, Note_on_c, 0, 73, 46
1, 39494, Control_c, 0, 64, 0
1, 39540, Note_on_c, 0, 73, 0
1, 39540, Note_on_c, 0, 77, 0
1, 39540, Note_on_c, 0, 46, 35
1, 39600, Tempo, 627025
1, 39600, Note_on_c, 0, 65, 40
1, 39600, Note_on_c, 0, 73, 50
1, 39600, Note_on_c, 0, 77, 50
1, 39600, Note_on_c, 0, 61, 40
1, 39646, Control_c, 0, 64, 127
1, 39720, Note_on_c, 0, 77, 0
1, 39720, Note_on_c, 0, 73, 0
1, 39720, Note_on_c, 0, 73, 45
1, 39720, Note_on_c, 0, 70, 45
1, 39840, Tempo, 684229
1, 39840, Note_on_c, 0, 70, 0
1, 39840, Note_on_c, 0, 46, 0
1, 39840, Note_on_c, 0, 61, 0
1, 39840, Note_on_c, 0, 65, 0
1, 39840, Note_on_c, 0, 73, 0
1, 39840, Note_on_c, 0, 77, 45
1, 39840, Note_on_c, 0, 73, 45
1, 39859, Control_c, 0, 64, 0
1, 39900, Note_on_c, 0, 73, 0
1, 39900, Note_on_c, 0, 77, 0
1, 39900, Note_on_c, 0, 46, 35
1, 39960, Tempo, 657967
1, 39960, Note_on_c, 0, 65, 40
1, 39960, Note_on_c, 0, 73, 50
1, 39960, Note_on_c, 0, 77, 50
1, 39960, Note_on_c, 0, 61, 40
1, 40020, Control_c, 0, 64, 127
1, 40080, Note_on_c, 0, 77, 0
1, 40080, Note_on_c, 0, 73, 0
1, 40080, Note_on_c, 0, 73, 46
1, 40080, Note_on_c, 0, 70, 46
1, 40200, Tempo, 704308
1, 40200, Note_on_c, 0, 70, 0
1, 40200, Note_on_c, 0, 46, 0
1, 40200, Note_on_c, 0, 61, 0
1, 40200, Note_on_c, 0, 65, 0
1, 40200, Note_on_c, 0, 73, 0
1, 40200, Note_on_c, 0, 77, 46
1, 40200, Note_on_c, 0, 73, 46
1, 40221, Control_c, 0, 64, 0
1, 40260, Note_on_c, 0, 73, 0
1, 40260, Note_on_c, 0, 77, 0
1, 40260, Note_on_c, 0, 46, 35
1, 40320, Tempo, 665262
1, 40320, Note_on_c, 0, 66, 71
1, 40320, Note_on_c, 0, 73, 50
1, 40320, Note_on_c, 0, 61, 40
1, 40356, Control_c, 0, 64, 127
1, 40440, Note_on_c, 0, 73, 0
1, 40440, Note_on_c, 0, 70, 45
1, 40560, Note_on_c, 0, 70, 0
1, 40560, Note_on_c, 0, 61, 0
1, 40560, Note_on_c, 0, 46, 0
1, 40560, Note_on_c, 0, 73, 45
1, 40585, Control_c, 0, 64, 0
1, 40620, Note_on_c, 0, 73, 0
1, 40620, Note_on_c, 0, 46, 35
1, 40680, Note_on_c, 0, 73, 50
1, 40680, Note_on_c, 0, 61, 40
1, 40758, Control_c, 0, 64, 127
1, 40800, Note_on_c, 0, 73, 0
1, 40800, Note_on_c, 0, 70, 46
1, 40920, Tempo, 672721
1, 40920, Note_on_c, 0, 70, 0
1, 40920, Note_on_c, 0, 61, 0
1, 40920, Note_on_c, 0, 46, 0
1, 40920, Note_on_c, 0, 66, 0
1, 40920, Note_on_c, 0, 65, 60
1, 40920, Note_on_c, 0, 73, 46
1, 40934, Control_c, 0, 64, 0
1, 40980, Note_on_c, 0, 73, 0
1, 40980, Note_on_c, 0, 46, 35
1, 41040, Tempo, 665262
1, 41040, Note_on_c, 0, 65, 0
1, 41040, Note_on_c, 0, 64, 72
1, 41040, Note_on_c, 0, 73, 50
1, 41040, Note_on_c, 0, 61, 40
1, 41090, Control_c, 0, 64, 127
1, 41160, Note_on_c, 0, 73, 0
1, 41160, Note_on_c, 0, 70, 45
1, 41280, Note_on_c, 0, 70, 0
1, 41280, Note_on_c, 0, 61, 0
1, 41280, Note_on_c, 0, 46, 0
1, 41280, Note_on_c, 0, 73, 45
1, 41291, Control_c, 0, 64, 0
1, 41340, Note_on_c, 0, 73, 0
1, 41340, Note_on_c, 0, 46, 35
1, 41400, Note_on_c, 0, 73, 50
1, 41400, Note_on_c, 0, 61, 40
1, 41520, Note_on_c, 0, 73, 0
1, 41520, Note_on_c, 0, 70, 46
1, 41580, Note_on_c, 0, 64, 0
1, 41640, Note_on_c, 0, 61, 0
1, 41640, Note_on_c, 0, 46, 0
1, 41640, Note_on_c, 0, 70, 0
1, 41640, Note_on_c, 0, 73, 61
1, 41640, Note_on_c, 0, 64, 60
1, 41700, Note_on_c, 0, 73, 0
1, 41760, Tempo, 647319
1, 41760, Note_on_c, 0, 64, 0
1, 41760, Note_on_c, 0, 65, 75
1, 41760, Note_on_c, 0, 45, 49
1, 41795, Control_c, 0, 64, 127
1, 41880, Note_on_c, 0, 45, 0
1, 41880, Note_on_c, 0, 60, 54
1, 41880, Note_on_c, 0, 63, 54
1, 41880, Note_on_c, 0, 53, 40
1, 41940, Note_on_c, 0, 53, 0
1, 41940, Note_on_c, 0, 63, 0
1, 41940, Note_on_c, 0, 60, 0
1, 42000, Note_on_c, 0, 60, 54
1, 42000, Note_on_c, 0, 63, 54
1, 42000, Note_on_c, 0, 53, 42
1, 42060, Note_on_c, 0, 53, 0
1, 42060, Note_on_c, 0, 63, 0
1, 42060, Note_on_c, 0, 60, 0
1, 42120, Note_on_c, 0, 60, 54
1, 42120, Note_on_c, 0, 63, 54
1, 42120, Note_on_c, 0, 41, 42
1, 42149, Control_c, 0, 64, 0
1, 42180, Note_on_c, 0, 63, 0
1, 42180, Note_on_c, 0, 60, 0
1, 42192, Control_c, 0, 64, 127
1, 42240, Note_on_c, 0, 65, 0
1, 42240, Note_on_c, 0, 41, 0
1, 42240, Note_on_c, 0, 58, 54
1, 42240, Note_on_c, 0, 67, 56
1, 42240, Note_on_c, 0, 53, 47
1, 42300, Note_on_c, 0, 53, 0
1, 42300, Note_on_c, 0, 67, 0
1, 42300, Note_on_c, 0, 58, 0
1, 42360, Note_on_c, 0, 60, 54
1, 42360, Note_on_c, 0, 69, 61
1, 42360, Note_on_c, 0, 53, 50
1, 42368, Control_c, 0, 64, 0
1, 42420, Note_on_c, 0, 53, 0
1, 42420, Note_on_c, 0, 69, 0
1, 42420, Note_on_c, 0, 60, 0
1, 42420, Note_on_c, 0, 72, 64
1, 42480, Note_on_c, 0, 72, 0
1, 42480, Note_on_c, 0, 61, 61
1, 42480, Note_on_c, 0, 70, 73
1, 42480, Note_on_c, 0, 46, 54
1, 42515, Control_c, 0, 64, 127
1, 42540, Note_on_c, 0, 70, 0
1, 42540, Note_on_c, 0, 61, 0
1, 42600, Note_on_c, 0, 46, 0
1, 42600, Note_on_c, 0, 60, 54
1, 42600, Note_on_c, 0, 69, 63
1, 42600, Note_on_c, 0, 53, 43
1, 42609, Control_c, 0, 64, 0
1, 42660, Note_on_c, 0, 53, 0
1, 42660, Note_on_c, 0, 69, 0
1, 42660, Note_on_c, 0, 60, 0
1, 42720, Tempo, 668971
1, 42720, Note_on_c, 0, 61, 53
1, 42720, Note_on_c, 0, 70, 63
1, 42720, Note_on_c, 0, 53, 46
1, 42780, Note_on_c, 0, 53, 0
1, 42780, Note_on_c, 0, 70, 0
1, 42780, Note_on_c, 0, 61, 0
1, 42840, Tempo, 650830
1, 42840, Note_on_c, 0, 65, 60
1, 42840, Note_on_c, 0, 73, 71
1, 42840, Note_on_c, 0, 39, 58
1, 42895, Control_c, 0, 64, 127
1, 42900, Note_on_c, 0, 73, 0
1, 42900, Note_on_c, 0, 65, 0
1, 42960, Note_on_c, 0, 39, 0
1, 42960, Note_on_c, 0, 63, 53
1, 42960, Note_on_c, 0, 72, 63
1, 42960, Note_on_c, 0, 54, 48
1, 42986, Control_c, 0, 64, 0
1, 43020, Note_on_c, 0, 54, 0
1, 43020, Note_on_c, 0, 72, 0
1, 43020, Note_on_c, 0, 63, 0
1, 43080, Tempo, 692121
1, 43080, Note_on_c, 0, 61, 58
1, 43080, Note_on_c, 0, 70, 70
1, 43080, Note_on_c, 0, 54, 48
1, 43140, Note_on_c, 0, 54, 0
1, 43140, Note_on_c, 0, 70, 0
1, 43140, Note_on_c, 0, 61, 0
1, 43200, Tempo, 654379
1, 43200, Note_on_c, 0, 61, 70
1, 43200, Note_on_c, 0, 70, 82
1, 43200, Note_on_c, 0, 41, 60
1, 43225, Control_c, 0, 64, 127
1, 43320, Note_on_c, 0, 41, 0
1, 43320, Note_on_c, 0, 53, 49
1, 43380, Note_on_c, 0, 53, 0
1, 43440, Note_on_c, 0, 53, 46
1, 43500, Note_on_c, 0, 53, 0
1, 43560, Note_on_c, 0, 64, 66
1, 43560, Note_on_c, 0, 53, 55
1, 43578, Control_c, 0, 64, 0
1, 43617, Control_c, 0, 64, 127
1, 43620, Note_on_c, 0, 53, 0
1, 43680, Note_on_c, 0, 53, 46
1, 43740, Note_on_c, 0, 53, 0
1, 43800, Tempo, 696136
1, 43800, Note_on_c, 0, 53, 46
1, 43860, Note_on_c, 0, 53, 0
1, 43920, Tempo, 650830
1, 43920, Note_on_c, 0, 61, 0
1, 43920, Note_on_c, 0, 70, 0
1, 43920, Note_on_c, 0, 64, 0
1, 43920, Note_on_c, 0, 60, 67
1, 43920, Note_on_c, 0, 65, 67
1, 43920, Note_on_c, 0, 69, 80
1, 43920, Note_on_c, 0, 53, 56
1, 43920, Control_c, 0, 64, 0
1, 43980, Control_c, 0, 64, 127
1, 44040, Note_on_c, 0, 53, 0
1, 44040, Note_on_c, 0, 54, 46
1, 44160, Note_on_c, 0, 54, 0
1, 44160, Note_on_c, 0, 53, 48
1, 44220, Note_on_c, 0, 53, 0
1, 44280, Note_on_c, 0, 60, 0
1, 44280, Note_on_c, 0, 65, 0
1, 44280, Note_on_c, 0, 69, 0
1, 44280, Note_on_c, 0, 53, 52
1, 44312, Control_c, 0, 64, 0
1, 44340, Note_on_c, 0, 53, 0
1, 44400, Tempo, 730016
1, 44400, Note_on_c, 0, 53, 46
1, 44460, Note_on_c, 0, 53, 0
1, 44520, Tempo, 650830
1, 44520, Note_on_c, 0, 73, 43
1, 44520, Note_on_c, 0, 77, 43
1, 44520, Note_on_c, 0, 53, 40
1, 44580, Note_on_c, 0, 53, 0
1, 44580, Note_on_c, 0, 77, 0
1, 44580, Note_on_c, 0, 73, 0
1, 44580, Note_on_c, 0, 46, 35
1, 44640, Tempo, 623765
1, 44640, Note_on_c, 0, 65, 40
1, 44640, Note_on_c, 0, 73, 50
1, 44640, Note_on_c, 0, 77, 50
1, 44640, Note_on_c, 0, 61, 40
1, 44658, Control_c, 0, 64, 127
1, 44760, Note_on_c, 0, 77, 0
1, 44760, Note_on_c, 0, 73, 0
1, 44760, Note_on_c, 0, 73, 45
1, 44760, Note_on_c, 0, 70, 45
1, 44880, Tempo, 676514
1, 44880, Note_on_c, 0, 70, 0
1, 44880, Note_on_c, 0, 46, 0
1, 44880, Note_on_c, 0, 61, 0
1, 44880, Note_on_c, 0, 65, 0
1, 44880, Note_on_c, 0, 73, 0
1, 44880, Note_on_c, 0, 77, 45
1, 44880, Note_on_c, 0, 73, 45
1, 44898, Control_c, 0, 64, 0
1, 44940, Note_on_c, 0, 73, 0
1, 44940, Note_on_c, 0, 77, 0
1, 44940, Note_on_c, 0, 46, 36
1, 45000, Tempo, 623765
1, 45000, Note_on_c, 0, 65, 41
1, 45000, Note_on_c, 0, 73, 51
1, 45000, Note_on_c, 0, 77, 51
1, 45000, Note_on_c, 0, 61, 41
1, 45046, Control_c, 0, 64, 127
1, 45120, Note_on_c, 0, 77, 0
1, 45120, Note_on_c, 0, 73, 0
1, 45120, Note_on_c, 0, 73, 48
1, 45120, Note_on_c, 0, 70, 48
1, 45240, Tempo, 668971
1, 45240, Note_on_c, 0, 70, 0
1, 45240, Note_on_c, 0, 46, 0
1, 45240, Note_on_c, 0, 61, 0
1, 45240, Note_on_c, 0, 65, 0
1, 45240, Note_on_c, 0, 73, 0
1, 45240, Note_on_c, 0, 77, 48
1, 45240, Note_on_c, 0, 73, 48
1, 45254, Control_c, 0, 64, 0
1, 45300, Note_on_c, 0, 73, 0
1, 45300, Note_on_c, 0, 77, 0
1, 45300, Note_on_c, 0, 46, 37
1, 45360, Tempo, 620540
1, 45360, Note_on_c, 0, 65, 42
1, 45360, Note_on_c, 0, 73, 53
1, 45360, Note_on_c, 0, 77, 53
1, 45360, Note_on_c, 0, 61, 42
1, 45406, Control_c, 0, 64, 127
1, 45480, Note_on_c, 0, 77, 0
1, 45480, Note_on_c, 0, 73, 0
1, 45480, Note_on_c, 0, 73, 50
1, 45480, Note_on_c, 0, 70, 50
1, 45600, Tempo, 668971
1, 45600, Note_on_c, 0, 70, 0
1, 45600, Note_on_c, 0, 46, 0
1, 45600, Note_on_c, 0, 61, 0
1, 45600, Note_on_c, 0, 65, 0
1, 45600, Note_on_c, 0, 73, 0
1, 45600, Note_on_c, 0, 77, 55
1, 45600, Note_on_c, 0, 73, 55
1, 45629, Control_c, 0, 64, 0
1, 45660, Note_on_c, 0, 73, 0
1, 45660, Note_on_c, 0, 77, 0
1, 45660, Note_on_c, 0, 46, 44
1, 45720, Tempo, 643846
1, 45720, Note_on_c, 0, 65, 53
1, 45720, Note_on_c, 0, 73, 66
1, 45720, Note_on_c, 0, 77, 66
1, 45720, Note_on_c, 0, 61, 53
1, 45748, Control_c, 0, 64, 127
1, 45840, Note_on_c, 0, 77, 0
1, 45840, Note_on_c, 0, 73, 0
1, 45840, Note_on_c, 0, 73, 63
1, 45840, Note_on_c, 0, 70, 63
1, 45960, Tempo, 743587
1, 45960, Note_on_c, 0, 70, 0
1, 45960, Note_on_c, 0, 46, 0
1, 45960, Note_on_c, 0, 61, 0
1, 45960, Note_on_c, 0, 65, 0
1, 45960, Note_on_c, 0, 73, 0
1, 45960, Note_on_c, 0, 77, 68
1, 45960, Note_on_c, 0, 73, 68
1, 45979, Control_c, 0, 64, 0
1, 46020, Note_on_c, 0, 73, 0
1, 46020, Note_on_c, 0, 77, 0
1, 46080, Tempo, 657967
1, 46080, Note_on_c, 0, 68, 58
1, 46080, Note_on_c, 0, 77, 66
1, 46080, Note_on_c, 0, 80, 82
1, 46080, Note_on_c, 0, 62, 69
1, 46080, Note_on_c, 0, 51, 69
1, 46151, Control_c, 0, 64, 127
1, 46200, Note_on_c, 0, 59, 49
1, 46260, Note_on_c, 0, 59, 0
1, 46320, Note_on_c, 0, 59, 46
1, 46380, Note_on_c, 0, 59, 0
1, 46440, Note_on_c, 0, 62, 0
1, 46440, Note_on_c, 0, 80, 0
1, 46440, Note_on_c, 0, 68, 0
1, 46440, Note_on_c, 0, 77, 0
1, 46440, Note_on_c, 0, 66, 56
1, 46440, Note_on_c, 0, 75, 56
1, 46440, Note_on_c, 0, 78, 66
1, 46440, Note_on_c, 0, 59, 55
1, 46458, Control_c, 0, 64, 0
1, 46500, Note_on_c, 0, 59, 0
1, 46511, Control_c, 0, 64, 127
1, 46560, Tempo, 640410
1, 46560, Note_on_c, 0, 59, 46
1, 46620, Note_on_c, 0, 59, 0
1, 46680, Tempo, 688152
1, 46680, Note_on_c, 0, 78, 0
1, 46680, Note_on_c, 0, 75, 0
1, 46680, Note_on_c, 0, 66, 0
1, 46680, Note_on_c, 0, 65, 56
1, 46680, Note_on_c, 0, 73, 56
1, 46680, Note_on_c, 0, 77, 66
1, 46680, Note_on_c, 0, 59, 46
1, 46688, Control_c, 0, 64, 0
1, 46740, Note_on_c, 0, 59, 0
1, 46740, Note_on_c, 0, 73, 0
1, 46740, Note_on_c, 0, 77, 0
1, 46740, Note_on_c, 0, 65, 0
1, 46800, Tempo, 654379
1, 46800, Note_on_c, 0, 65, 58
1, 46800, Note_on_c, 0, 68, 67
1, 46800, Note_on_c, 0, 77, 82
1, 46800, Note_on_c, 0, 62, 60
1, 46839, Control_c, 0, 64, 127
1, 46920, Note_on_c, 0, 58, 49
1, 46980, Note_on_c, 0, 58, 0
1, 47040, Note_on_c, 0, 58, 46
1, 47100, Note_on_c, 0, 58, 0
1, 47160, Note_on_c, 0, 62, 0
1, 47160, Note_on_c, 0, 68, 0
1, 47160, Note_on_c, 0, 77, 0
1, 47160, Note_on_c, 0, 65, 0
1, 47160, Note_on_c, 0, 63, 56
1, 47160, Note_on_c, 0, 75, 66
1, 47160, Note_on_c, 0, 63, 60
1, 47160, Note_on_c, 0, 58, 55
1, 47184, Control_c, 0, 64, 0
1, 47220, Note_on_c, 0, 58, 0
1, 47224, Control_c, 0, 64, 127
1, 47280, Note_on_c, 0, 58, 46
1, 47340, Note_on_c, 0, 58, 0
1, 47400, Tempo, 721241
1, 47400, Note_on_c, 0, 75, 0
1, 47400, Note_on_c, 0, 63, 0
1, 47400, Note_on_c, 0, 58, 46
1, 47460, Note_on_c, 0, 58, 0
1, 47520, Tempo, 657967
1, 47520, Note_on_c, 0, 51, 0
1, 47520, Note_on_c, 0, 63, 0
1, 47520, Note_on_c, 0, 66, 58
1, 47520, Note_on_c, 0, 70, 66
1, 47520, Note_on_c, 0, 78, 82
1, 47520, Note_on_c, 0, 54, 49
1, 47520, Note_on_c, 0, 58, 56
1, 47529, Control_c, 0, 64, 0
1, 47614, Control_c, 0, 64, 127
1, 47880, Tempo, 643846
1, 47880, Note_on_c, 0, 78, 0
1, 47880, Note_on_c, 0, 66, 0
1, 47880, Note_on_c, 0, 75, 69
1, 47880, Note_on_c, 0, 63, 55
1, 47905, Control_c, 0, 64, 0
1, 48007, Control_c, 0, 64, 127
1, 48120, Tempo, 708466
1, 48120, Note_on_c, 0, 63, 0
1, 48120, Note_on_c, 0, 75, 0
1, 48120, Note_on_c, 0, 73, 65
1, 48120, Note_on_c, 0, 61, 52
1, 48210, Note_on_c, 0, 61, 0
1, 48210, Note_on_c, 0, 73, 0
1, 48240, Tempo, 650830
1, 48240, Note_on_c, 0, 58, 0
1, 48240, Note_on_c, 0, 70, 0
1, 48240, Note_on_c, 0, 70, 69
1, 48240, Note_on_c, 0, 73, 69
1, 48240, Note_on_c, 0, 61, 55
1, 48254, Control_c, 0, 64, 0
1, 48320, Control_c, 0, 64, 127
1, 48480, Tempo, 676514
1, 48480, Note_on_c, 0, 61, 0
1, 48480, Note_on_c, 0, 73, 0
1, 48480, Note_on_c, 0, 70, 0
1, 48480, Note_on_c, 0, 72, 65
1, 48480, Note_on_c, 0, 60, 52
1, 48570, Note_on_c, 0, 60, 0
1, 48570, Note_on_c, 0, 72, 0
1, 48600, Tempo, 657967
1, 48600, Note_on_c, 0, 75, 69
1, 48600, Note_on_c, 0, 63, 55
1, 48621, Control_c, 0, 64, 0
1, 48687, Control_c, 0, 64, 127
1, 48720, Tempo, 661594
1, 48840, Tempo, 730016
1, 48840, Note_on_c, 0, 63, 0
1, 48840, Note_on_c, 0, 75, 0
1, 48840, Note_on_c, 0, 72, 65
1, 48840, Note_on_c, 0, 60, 52
1, 48930, Note_on_c, 0, 60, 0
1, 48930, Note_on_c, 0, 72, 0
1, 48960, Tempo, 657967
1, 48960, Note_on_c, 0, 54, 0
1, 48960, Note_on_c, 0, 65, 69
1, 48960, Note_on_c, 0, 72, 69
1, 48960, Note_on_c, 0, 53, 49
1, 48960, Note_on_c, 0, 60, 55
1, 48979, Control_c, 0, 64, 0
1, 49054, Control_c, 0, 64, 127
1, 49200, Tempo, 684229
1, 49200, Note_on_c, 0, 60, 0
1, 49200, Note_on_c, 0, 72, 0
1, 49200, Note_on_c, 0, 70, 65
1, 49200, Note_on_c, 0, 58, 52
1, 49290, Note_on_c, 0, 58, 0
1, 49290, Note_on_c, 0, 70, 0
1, 49320, Tempo, 668971
1, 49320, Note_on_c, 0, 73, 69
1, 49320, Note_on_c, 0, 61, 55
1, 49336, Control_c, 0, 64, 0
1, 49407, Control_c, 0, 64, 127
1, 49560, Note_on_c, 0, 73, 0
1, 49560, Note_on_c, 0, 70, 65
1, 49650, Note_on_c, 0, 70, 0
1, 49680, Tempo, 661594
1, 49680, Note_on_c, 0, 65, 0
1, 49680, Note_on_c, 0, 53, 0
1, 49680, Note_on_c, 0, 65, 69
1, 49680, Note_on_c, 0, 70, 69
1, 49680, Note_on_c, 0, 41, 41
1, 49697, Control_c, 0, 64, 0
1, 49743, Control_c, 0, 64, 127
1, 49920, Tempo, 777303
1, 49920, Note_on_c, 0, 70, 0
1, 49920, Note_on_c, 0, 61, 0
1, 49920, Note_on_c, 0, 65, 0
1, 49920, Note_on_c, 0, 69, 61
1, 49920, Note_on_c, 0, 60, 52
1, 49980, Note_on_c, 0, 60, 0
1, 50030, Note_on_c, 0, 69, 0
1, 50040, Tempo, 692121
1, 50040, Note_on_c, 0, 69, 69
1, 50040, Note_on_c, 0, 65, 49
1, 50040, Note_on_c, 0, 73, 62
1, 50059, Control_c, 0, 64, 0
1, 50115, Control_c, 0, 64, 127
1, 50160, Tempo, 767362
1, 50280, Tempo, 886394
1, 50280, Note_on_c, 0, 73, 0
1, 50280, Note_on_c, 0, 65, 0
1, 50280, Note_on_c, 0, 63, 54
1, 50280, Note_on_c, 0, 72, 54
1, 50370, Note_on_c, 0, 72, 0
1, 50370, Note_on_c, 0, 63, 0
1, 50400, Tempo, 665262
1, 50400, Note_on_c, 0, 69, 0
1, 50400, Note_on_c, 0, 41, 0
1, 50400, Note_on_c, 0, 72, 58
1, 50400, Note_on_c, 0, 69, 49
1, 50400, Note_on_c, 0, 63, 49
1, 50400, Note_on_c, 0, 46, 41
1, 50413, Control_c, 0, 64, 0
1, 50507, Control_c, 0, 64, 127
1, 50760, Note_on_c, 0, 63, 0
1, 50760, Note_on_c, 0, 72, 0
1, 50760, Note_on_c, 0, 69, 0
1, 50760, Note_on_c, 0, 61, 41
1, 50760, Note_on_c, 0, 70, 49
1, 50777, Control_c, 0, 64, 0
1, 50847, Control_c, 0, 64, 127
1, 51120, Tempo, 654379
1, 51120, Note_on_c, 0, 70, 0
1, 51120, Note_on_c, 0, 61, 0
1, 51120, Note_on_c, 0, 46, 0
1, 51120, Note_on_c, 0, 53, 43
1, 51126, Control_c, 0, 64, 0
1, 51240, Note_on_c, 0, 53, 0
1, 51240, Note_on_c, 0, 54, 41
1, 51360, Note_on_c, 0, 54, 0
1, 51360, Note_on_c, 0, 53, 38
1, 51480, Tempo, 665262
1, 51480, Note_on_c, 0, 53, 0
1, 51480, Note_on_c, 0, 51, 41
1, 51600, Tempo, 696136
1, 51600, Note_on_c, 0, 51, 0
1, 51600, Note_on_c, 0, 49, 38
1, 51720, Tempo, 672721
1, 51720, Note_on_c, 0, 49, 0
1, 51720, Note_on_c, 0, 63, 43
1, 51720, Note_on_c, 0, 65, 43
1, 51720, Note_on_c, 0, 48, 38
1, 51780, Note_on_c, 0, 65, 0
1, 51780, Note_on_c, 0, 63, 0
1, 51840, Tempo, 643846
1, 51840, Note_on_c, 0, 48, 0
1, 51840, Note_on_c, 0, 62, 50
1, 51840, Note_on_c, 0, 65, 50
1, 51840, Note_on_c, 0, 46, 40
1, 51904, Control_c, 0, 64, 127
1, 51960, Note_on_c, 0, 65, 0
1, 51960, Note_on_c, 0, 62, 0
1, 51960, Note_on_c, 0, 70, 45
1, 51960, Note_on_c, 0, 58, 45
1, 51985, Control_c, 0, 64, 0
1, 52080, Tempo, 688152
1, 52080, Note_on_c, 0, 58, 0
1, 52080, Note_on_c, 0, 70, 0
1, 52080, Note_on_c, 0, 46, 0
1, 52080, Note_on_c, 0, 65, 45
1, 52080, Note_on_c, 0, 62, 45
1, 52140, Note_on_c, 0, 62, 0
1, 52140, Note_on_c, 0, 65, 0
1, 52200, Tempo, 643846
1, 52200, Note_on_c, 0, 62, 50
1, 52200, Note_on_c, 0, 65, 50
1, 52200, Note_on_c, 0, 46, 40
1, 52260, Control_c, 0, 64, 127
1, 52320, Note_on_c, 0, 65, 0
1, 52320, Note_on_c, 0, 62, 0
1, 52320, Note_on_c, 0, 70, 46
1, 52320, Note_on_c, 0, 58, 46
1, 52352, Control_c, 0, 64, 0
1, 52440, Tempo, 680349
1, 52440, Note_on_c, 0, 58, 0
1, 52440, Note_on_c, 0, 70, 0
1, 52440, Note_on_c, 0, 46, 0
1, 52440, Note_on_c, 0, 65, 46
1, 52440, Note_on_c, 0, 62, 46
1, 52500, Note_on_c, 0, 62, 0
1, 52500, Note_on_c, 0, 65, 0
1, 52560, Tempo, 647319
1, 52560, Note_on_c, 0, 58, 46
1, 52560, Note_on_c, 0, 65, 46
1, 52560, Note_on_c, 0, 68, 46
1, 52560, Note_on_c, 0, 39, 49
1, 52599, Control_c, 0, 64, 127
1, 52680, Note_on_c, 0, 46, 39
1, 52719, Control_c, 0, 64, 0
1, 52740, Note_on_c, 0, 46, 0
1, 52800, Tempo, 680349
1, 52800, Note_on_c, 0, 39, 0
1, 52800, Note_on_c, 0, 46, 38
1, 52860, Note_on_c, 0, 46, 0
1, 52920, Tempo, 650830
1, 52920, Note_on_c, 0, 68, 0
1, 52920, Note_on_c, 0, 65, 0
1, 52920, Note_on_c, 0, 58, 0
1, 52920, Note_on_c, 0, 63, 46
1, 52920, Note_on_c, 0, 66, 46
1, 52920, Note_on_c, 0, 42, 45
1, 52920, Note_on_c, 0, 46, 45
1, 52980, Note_on_c, 0, 46, 0
1, 52980, Control_c, 0, 64, 127
1, 53040, Note_on_c, 0, 63, 0
1, 53040, Note_on_c, 0, 66, 0
1, 53040, Note_on_c, 0, 46, 42
1, 53076, Control_c, 0, 64, 0
1, 53100, Note_on_c, 0, 46, 0
1, 53160, Tempo, 672721
1, 53160, Note_on_c, 0, 42, 0
1, 53160, Note_on_c, 0, 63, 43
1, 53160, Note_on_c, 0, 66, 43
1, 53160, Note_on_c, 0, 46, 42
1, 53220, Note_on_c, 0, 46, 0
1, 53220, Note_on_c, 0, 66, 0
1, 53220, Note_on_c, 0, 63, 0
1, 53280, Tempo, 643846
1, 53280, Note_on_c, 0, 62, 50
1, 53280, Note_on_c, 0, 65, 50
1, 53280, Note_on_c, 0, 46, 40
1, 53344, Control_c, 0, 64, 127
1, 53400, Note_on_c, 0, 65, 0
1, 53400, Note_on_c, 0, 62, 0
1, 53400, Note_on_c, 0, 70, 45
1, 53400, Note_on_c, 0, 58, 45
1, 53425, Control_c, 0, 64, 0
1, 53520, Tempo, 688152
1, 53520, Note_on_c, 0, 58, 0
1, 53520, Note_on_c, 0, 70, 0
1, 53520, Note_on_c, 0, 46, 0
1, 53520, Note_on_c, 0, 65, 45
1, 53520, Note_on_c, 0, 62, 45
1, 53580, Note_on_c, 0, 62, 0
1, 53580, Note_on_c, 0, 65, 0
1, 53640, Tempo, 643846
1, 53640, Note_on_c, 0, 62, 50
1, 53640, Note_on_c, 0, 65, 50
1, 53640, Note_on_c, 0, 46, 40
1, 53700, Control_c, 0, 64, 127
1, 53760, Note_on_c, 0, 65, 0
1, 53760, Note_on_c, 0, 62, 0
1, 53760, Note_on_c, 0, 70, 46
1, 53760, Note_on_c, 0, 58, 46
1, 53792, Control_c, 0, 64, 0
1, 53880, Tempo, 680349
1, 53880, Note_on_c, 0, 58, 0
1, 53880, Note_on_c, 0, 70, 0
1, 53880, Note_on_c, 0, 46, 0
1, 53880, Note_on_c, 0, 65, 46
1, 53880, Note_on_c, 0, 62, 46
1, 53940, Note_on_c, 0, 62, 0
1, 53940, Note_on_c, 0, 65, 0
1, 54000, Tempo, 647319
1, 54000, Note_on_c, 0, 58, 46
1, 54000, Note_on_c, 0, 65, 46
1, 54000, Note_on_c, 0, 68, 46
1, 54000, Note_on_c, 0, 39, 49
1, 54039, Control_c, 0, 64, 127
1, 54120, Note_on_c, 0, 46, 39
1, 54159, Control_c, 0, 64, 0
1, 54180, Note_on_c, 0, 46, 0
1, 54240, Tempo, 680349
1, 54240, Note_on_c, 0, 39, 0
1, 54240, Note_on_c, 0, 46, 38
1, 54300, Note_on_c, 0, 46, 0
1, 54360, Tempo, 650830
1, 54360, Note_on_c, 0, 68, 0
1, 54360, Note_on_c, 0, 65, 0
1, 54360, Note_on_c, 0, 58, 0
1, 54360, Note_on_c, 0, 63, 46
1, 54360, Note_on_c, 0, 66, 46
1, 54360, Note_on_c, 0, 48, 45
1, 54420, Note_on_c, 0, 48, 0
1, 54420, Control_c, 0, 64, 127
1, 54480, Note_on_c, 0, 66, 0
1, 54480, Note_on_c, 0, 63, 0
1, 54480, Note_on_c, 0, 48, 42
1, 54516, Control_c, 0, 64, 0
1, 54540, Note_on_c, 0, 48, 0
1, 54600, Tempo, 672721
1, 54600, Note_on_c, 0, 66, 49
1, 54600, Note_on_c, 0, 63, 49
1, 54600, Note_on_c, 0, 70, 49
1, 54600, Note_on_c, 0, 48, 48
1, 54660, Note_on_c, 0, 48, 0
1, 54660, Note_on_c, 0, 66, 0
1, 54660, Note_on_c, 0, 63, 0
1, 54660, Note_on_c, 0, 70, 0
1, 54720, Tempo, 637010
1, 54720, Note_on_c, 0, 65, 57
1, 54720, Note_on_c, 0, 68, 57
1, 54720, Note_on_c, 0, 41, 39
1, 54720, Note_on_c, 0, 49, 46
1, 54784, Control_c, 0, 64, 127
1, 54840, Note_on_c, 0, 68, 0
1, 54840, Note_on_c, 0, 65, 0
1, 54840, Note_on_c, 0, 73, 51
1, 54840, Note_on_c, 0, 61, 51
1, 54865, Control_c, 0, 64, 0
1, 54960, Tempo, 688152
1, 54960, Note_on_c, 0, 61, 0
1, 54960, Note_on_c, 0, 49, 0
1, 54960, Note_on_c, 0, 41, 0
1, 54960, Note_on_c, 0, 73, 0
1, 54960, Note_on_c, 0, 68, 51
1, 54960, Note_on_c, 0, 65, 51
1, 55020, Note_on_c, 0, 65, 0
1, 55020, Note_on_c, 0, 68, 0
1, 55080, Tempo, 637010
1, 55080, Note_on_c, 0, 65, 58
1, 55080, Note_on_c, 0, 68, 58
1, 55080, Note_on_c, 0, 37, 39
1, 55080, Note_on_c, 0, 49, 46
1, 55140, Control_c, 0, 64, 127
1, 55200, Note_on_c, 0, 68, 0
1, 55200, Note_on_c, 0, 65, 0
1, 55200, Note_on_c, 0, 73, 53
1, 55200, Note_on_c, 0, 61, 53
1, 55232, Control_c, 0, 64, 0
1, 55320, Tempo, 704308
1, 55320, Note_on_c, 0, 61, 0
1, 55320, Note_on_c, 0, 49, 0
1, 55320, Note_on_c, 0, 37, 0
1, 55320, Note_on_c, 0, 73, 0
1, 55320, Note_on_c, 0, 68, 53
1, 55320, Note_on_c, 0, 65, 53
1, 55380, Note_on_c, 0, 65, 0
1, 55380, Note_on_c, 0, 68, 0
1, 55440, Tempo, 647319
1, 55440, Note_on_c, 0, 65, 54
1, 55440, Note_on_c, 0, 61, 54
1, 55440, Note_on_c, 0, 68, 54
1, 55440, Note_on_c, 0, 71, 54
1, 55440, Note_on_c, 0, 42, 58
1, 55479, Control_c, 0, 64, 127
1, 55560, Note_on_c, 0, 49, 45
1, 55599, Control_c, 0, 64, 0
1, 55620, Note_on_c, 0, 49, 0
1, 55680, Tempo, 680349
1, 55680, Note_on_c, 0, 42, 0
1, 55680, Note_on_c, 0, 49, 45
1, 55740, Note_on_c, 0, 49, 0
1, 55800, Tempo, 650830
1, 55800, Note_on_c, 0, 71, 0
1, 55800, Note_on_c, 0, 65, 0
1, 55800, Note_on_c, 0, 61, 0
1, 55800, Note_on_c, 0, 68, 0
1, 55800, Note_on_c, 0, 66, 55
1, 55800, Note_on_c, 0, 70, 55
1, 55800, Note_on_c, 0, 46, 59
1, 55800, Note_on_c, 0, 49, 54
1, 55860, Note_on_c, 0, 49, 0
1, 55860, Control_c, 0, 64, 127
1, 55920, Note_on_c, 0, 66, 0
1, 55920, Note_on_c, 0, 70, 0
1, 55920, Note_on_c, 0, 49, 50
1, 55956, Control_c, 0, 64, 0
1, 55980, Note_on_c, 0, 49, 0
1, 56040, Tempo, 672721
1, 56040, Note_on_c, 0, 46, 0
1, 56040, Note_on_c, 0, 66, 59
1, 56040, Note_on_c, 0, 70, 59
1, 56040, Note_on_c, 0, 49, 58
1, 56100, Note_on_c, 0, 49, 0
1, 56100, Note_on_c, 0, 70, 0
1, 56100, Note_on_c, 0, 66, 0
1, 56160, Tempo, 640410
1, 56160, Note_on_c, 0, 65, 69
1, 56160, Note_on_c, 0, 68, 69
1, 56160, Note_on_c, 0, 41, 47
1, 56160, Note_on_c, 0, 49, 55
1, 56224, Control_c, 0, 64, 127
1, 56280, Note_on_c, 0, 68, 0
1, 56280, Note_on_c, 0, 65, 0
1, 56280, Note_on_c, 0, 73, 62
1, 56280, Note_on_c, 0, 61, 62
1, 56305, Control_c, 0, 64, 0
1, 56400, Tempo, 688152
1, 56400, Note_on_c, 0, 61, 0
1, 56400, Note_on_c, 0, 49, 0
1, 56400, Note_on_c, 0, 41, 0
1, 56400, Note_on_c, 0, 73, 0
1, 56400, Note_on_c, 0, 68, 64
1, 56400, Note_on_c, 0, 65, 64
1, 56460, Note_on_c, 0, 65, 0
1, 56460, Note_on_c, 0, 68, 0
1, 56520, Tempo, 640410
1, 56520, Note_on_c, 0, 65, 74
1, 56520, Note_on_c, 0, 68, 74
1, 56520, Note_on_c, 0, 37, 50
1, 56520, Note_on_c, 0, 49, 58
1, 56580, Control_c, 0, 64, 127
1, 56640, Note_on_c, 0, 68, 0
1, 56640, Note_on_c, 0, 65, 0
1, 56640, Note_on_c, 0, 73, 68
1, 56640, Note_on_c, 0, 61, 68
1, 56672, Control_c, 0, 64, 0
1, 56760, Tempo, 734484
1, 56760, Note_on_c, 0, 61, 0
1, 56760, Note_on_c, 0, 49, 0
1, 56760, Note_on_c, 0, 37, 0
1, 56760, Note_on_c, 0, 73, 0
1, 56760, Note_on_c, 0, 68, 69
1, 56760, Note_on_c, 0, 65, 69
1, 56820, Note_on_c, 0, 65, 0
1, 56820, Note_on_c, 0, 68, 0
1, 56880, Tempo, 647319
1, 56880, Note_on_c, 0, 65, 71
1, 56880, Note_on_c, 0, 62, 71
1, 56880, Note_on_c, 0, 68, 71
1, 56880, Note_on_c, 0, 71, 71
1, 56880, Note_on_c, 0, 42, 77
1, 56919, Control_c, 0, 64, 127
1, 57000, Note_on_c, 0, 50, 61
1, 57039, Control_c, 0, 64, 0
1, 57060, Note_on_c, 0, 50, 0
1, 57120, Tempo, 680349
1, 57120, Note_on_c, 0, 42, 0
1, 57120, Note_on_c, 0, 50, 61
1, 57180, Note_on_c, 0, 50, 0
1, 57240, Tempo, 650830
1, 57240, Note_on_c, 0, 71, 0
1, 57240, Note_on_c, 0, 65, 0
1, 57240, Note_on_c, 0, 62, 0
1, 57240, Note_on_c, 0, 68, 0
1, 57240, Note_on_c, 0, 66, 75
1, 57240, Note_on_c, 0, 70, 75
1, 57240, Note_on_c, 0, 51, 74
1, 57300, Note_on_c, 0, 51, 0
1, 57300, Control_c, 0, 64, 127
1, 57360, Note_on_c, 0, 70, 0
1, 57360, Note_on_c, 0, 66, 0
1, 57360, Note_on_c, 0, 51, 71
1, 57396, Control_c, 0, 64, 0
1, 57420, Note_on_c, 0, 51, 0
1, 57480, Tempo, 757671
1, 57480, Note_on_c, 0, 51, 71
1, 57540, Note_on_c, 0, 51, 0
1, 57600, Tempo, 647319
1, 57600, Note_on_c, 0, 65, 78
1, 57600, Note_on_c, 0, 72, 78
1, 57600, Note_on_c, 0, 77, 92
1, 57600, Note_on_c, 0, 45, 89
1, 57639, Control_c, 0, 64, 127
1, 57720, Note_on_c, 0, 45, 0
1, 57720, Note_on_c, 0, 53, 70
1, 57759, Control_c, 0, 64, 0
1, 57780, Note_on_c, 0, 53, 0
1, 57840, Tempo, 680349
1, 57840, Note_on_c, 0, 53, 67
1, 57900, Note_on_c, 0, 53, 0
1, 57957, Note_on_c, 0, 65, 0
1, 57957, Note_on_c, 0, 72, 0
1, 57957, Note_on_c, 0, 77, 0
1, 57960, Tempo, 650830
1, 57960, Note_on_c, 0, 72, 81
1, 57960, Note_on_c, 0, 69, 69
1, 57960, Note_on_c, 0, 41, 80
1, 58020, Control_c, 0, 64, 127
1, 58080, Note_on_c, 0, 41, 0
1, 58080, Note_on_c, 0, 53, 70
1, 58116, Control_c, 0, 64, 0
1, 58140, Note_on_c, 0, 53, 0
1, 58200, Note_on_c, 0, 69, 0
1, 58200, Note_on_c, 0, 72, 0
1, 58200, Note_on_c, 0, 72, 77
1, 58200, Note_on_c, 0, 69, 64
1, 58200, Note_on_c, 0, 65, 64
1, 58200, Note_on_c, 0, 53, 71
1, 58260, Note_on_c, 0, 53, 0
1, 58260, Note_on_c, 0, 72, 0
1, 58260, Note_on_c, 0, 69, 0
1, 58260, Note_on_c, 0, 65, 0
1, 58320, Tempo, 647319
1, 58320, Note_on_c, 0, 66, 78
1, 58320, Note_on_c, 0, 72, 78
1, 58320, Note_on_c, 0, 75, 92
1, 58320, Note_on_c, 0, 46, 88
1, 58359, Control_c, 0, 64, 127
1, 58440, Note_on_c, 0, 46, 0
1, 58440, Note_on_c, 0, 53, 73
1, 58479, Control_c, 0, 64, 0
1, 58500, Note_on_c, 0, 53, 0
1, 58560, Tempo, 680349
1, 58560, Note_on_c, 0, 75, 0
1, 58560, Note_on_c, 0, 72, 0
1, 58560, Note_on_c, 0, 66, 0
1, 58560, Note_on_c, 0, 73, 80
1, 58560, Note_on_c, 0, 70, 67
1, 58560, Note_on_c, 0, 64, 67
1, 58560, Note_on_c, 0, 53, 72
1, 58620, Note_on_c, 0, 53, 0
1, 58680, Tempo, 650830
1, 58680, Note_on_c, 0, 73, 0
1, 58680, Note_on_c, 0, 70, 0
1, 58680, Note_on_c, 0, 64, 0
1, 58680, Note_on_c, 0, 72, 79
1, 58680, Note_on_c, 0, 69, 66
1, 58680, Note_on_c, 0, 65, 66
1, 58680, Note_on_c, 0, 41, 82
1, 58740, Control_c, 0, 64, 127
1, 58800, Note_on_c, 0, 41, 0
1, 58800, Note_on_c, 0, 53, 71
1, 58836, Control_c, 0, 64, 0
1, 58860, Note_on_c, 0, 53, 0
1, 58920, Tempo, 739007
1, 58920, Note_on_c, 0, 53, 71
1, 58980, Note_on_c, 0, 53, 0
1, 59040, Tempo, 647319
1, 59040, Note_on_c, 0, 72, 0
1, 59040, Note_on_c, 0, 69, 0
1, 59040, Note_on_c, 0, 65, 0
1, 59040, Note_on_c, 0, 65, 78
1, 59040, Note_on_c, 0, 72, 78
1, 59040, Note_on_c, 0, 77, 92
1, 59040, Note_on_c, 0, 45, 89
1, 59079, Control_c, 0, 64, 127
1, 59160, Note_on_c, 0, 45, 0
1, 59160, Note_on_c, 0, 53, 70
1, 59199, Control_c, 0, 64, 0
1, 59220, Note_on_c, 0, 53, 0
1, 59280, Tempo, 680349
1, 59280, Note_on_c, 0, 53, 67
1, 59340, Note_on_c, 0, 53, 0
1, 59397, Note_on_c, 0, 65, 0
1, 59397, Note_on_c, 0, 72, 0
1, 59397, Note_on_c, 0, 77, 0
1, 59400, Tempo, 650830
1, 59400, Note_on_c, 0, 72, 81
1, 59400, Note_on_c, 0, 69, 69
1, 59400, Note_on_c, 0, 41, 80
1, 59460, Control_c, 0, 64, 127
1, 59520, Note_on_c, 0, 41, 0
1, 59520, Note_on_c, 0, 53, 70
1, 59556, Control_c, 0, 64, 0
1, 59580, Note_on_c, 0, 53, 0
1, 59640, Note_on_c, 0, 69, 0
1, 59640, Note_on_c, 0, 72, 0
1, 59640, Note_on_c, 0, 72, 77
1, 59640, Note_on_c, 0, 69, 64
1, 59640, Note_on_c, 0, 65, 64
1, 59640, Note_on_c, 0, 53, 71
1, 59700, Note_on_c, 0, 53, 0
1, 59700, Note_on_c, 0, 72, 0
1, 59700, Note_on_c, 0, 69, 0
1, 59700, Note_on_c, 0, 65, 0
1, 59760, Tempo, 647319
1, 59760, Note_on_c, 0, 66, 78
1, 59760, Note_on_c, 0, 72, 78
1, 59760, Note_on_c, 0, 75, 92
1, 59760, Note_on_c, 0, 46, 88
1, 59799, Control_c, 0, 64, 127
1, 59880, Note_on_c, 0, 46, 0
1, 59880, Note_on_c, 0, 53, 73
1, 59919, Control_c, 0, 64, 0
1, 59940, Note_on_c, 0, 53, 0
1, 60000, Tempo, 680349
1, 60000, Note_on_c, 0, 75, 0
1, 60000, Note_on_c, 0, 72, 0
1, 60000, Note_on_c, 0, 66, 0
1, 60000, Note_on_c, 0, 73, 80
1, 60000, Note_on_c, 0, 70, 67
1, 60000, Note_on_c, 0, 64, 67
1, 60000, Note_on_c, 0, 53, 72
1, 60060, Note_on_c, 0, 53, 0
1, 60120, Tempo, 650830
1, 60120, Note_on_c, 0, 73, 0
1, 60120, Note_on_c, 0, 70, 0
1, 60120, Note_on_c, 0, 64, 0
1, 60120, Note_on_c, 0, 72, 79
1, 60120, Note_on_c, 0, 69, 66
1, 60120, Note_on_c, 0, 65, 66
1, 60120, Note_on_c, 0, 41, 82
1, 60180, Control_c, 0, 64, 127
1, 60240, Note_on_c, 0, 41, 0
1, 60240, Note_on_c, 0, 53, 71
1, 60276, Control_c, 0, 64, 0
1, 60300, Note_on_c, 0, 53, 0
1, 60360, Tempo, 739007
1, 60360, Note_on_c, 0, 53, 71
1, 60420, Note_on_c, 0, 53, 0
1, 60480, Tempo, 647319
1, 60480, Note_on_c, 0, 72, 0
1, 60480, Note_on_c, 0, 69, 0
1, 60480, Note_on_c, 0, 65, 0
1, 60480, Note_on_c, 0, 65, 78
1, 60480, Note_on_c, 0, 72, 78
1, 60480, Note_on_c, 0, 77, 92
1, 60480, Note_on_c, 0, 45, 89
1, 60519, Control_c, 0, 64, 127
1, 60600, Note_on_c, 0, 45, 0
1, 60600, Note_on_c, 0, 53, 68
1, 60639, Control_c, 0, 64, 0
1, 60660, Note_on_c, 0, 53, 0
1, 60720, Tempo, 680349
1, 60720, Note_on_c, 0, 53, 64
1, 60780, Note_on_c, 0, 53, 0
1, 60837, Note_on_c, 0, 65, 0
1, 60837, Note_on_c, 0, 72, 0
1, 60837, Note_on_c, 0, 77, 0
1, 60840, Tempo, 650830
1, 60840, Note_on_c, 0, 72, 76
1, 60840, Note_on_c, 0, 69, 64
1, 60840, Note_on_c, 0, 41, 75
1, 60900, Control_c, 0, 64, 127
1, 60960, Note_on_c, 0, 41, 0
1, 60960, Note_on_c, 0, 53, 64
1, 60996, Control_c, 0, 64, 0
1, 61020, Note_on_c, 0, 53, 0
1, 61080, Note_on_c, 0, 69, 0
1, 61080, Note_on_c, 0, 72, 0
1, 61080, Note_on_c, 0, 72, 69
1, 61080, Note_on_c, 0, 69, 57
1, 61080, Note_on_c, 0, 65, 57
1, 61080, Note_on_c, 0, 53, 63
1, 61140, Note_on_c, 0, 53, 0
1, 61140, Note_on_c, 0, 72, 0
1, 61140, Note_on_c, 0, 69, 0
1, 61140, Note_on_c, 0, 65, 0
1, 61200, Tempo, 647319
1, 61200, Note_on_c, 0, 66, 68
1, 61200, Note_on_c, 0, 75, 80
1, 61200, Note_on_c, 0, 46, 77
1, 61239, Control_c, 0, 64, 127
1, 61359, Control_c, 0, 64, 0
1, 61440, Tempo, 680349
1, 61440, Note_on_c, 0, 75, 0
1, 61440, Note_on_c, 0, 66, 0
1, 61440, Note_on_c, 0, 73, 63
1, 61440, Note_on_c, 0, 65, 53
1, 61560, Tempo, 650830
1, 61560, Note_on_c, 0, 65, 0
1, 61560, Note_on_c, 0, 73, 0
1, 61560, Note_on_c, 0, 66, 51
1, 61560, Note_on_c, 0, 72, 60
1, 61560, Note_on_c, 0, 63, 51
1, 61620, Control_c, 0, 64, 127
1, 61800, Tempo, 739007
1, 61800, Note_on_c, 0, 63, 0
1, 61800, Note_on_c, 0, 72, 0
1, 61800, Note_on_c, 0, 66, 0
1, 61800, Note_on_c, 0, 61, 49
1, 61800, Note_on_c, 0, 65, 49
1, 61800, Note_on_c, 0, 70, 58
1, 61808, Control_c, 0, 64, 0
1, 61920, Tempo, 647319
1, 61920, Note_on_c, 0, 70, 0
1, 61920, Note_on_c, 0, 65, 0
1, 61920, Note_on_c, 0, 61, 0
1, 61920, Note_on_c, 0, 63, 55
1, 61920, Note_on_c, 0, 60, 55
1, 61920, Note_on_c, 0, 68, 65
1, 62006, Control_c, 0, 64, 127
1, 62160, Tempo, 680349
1, 62160, Note_on_c, 0, 68, 0
1, 62160, Note_on_c, 0, 60, 0
1, 62160, Note_on_c, 0, 63, 0
1, 62160, Note_on_c, 0, 58, 46
1, 62160, Note_on_c, 0, 66, 54
1, 62160, Note_on_c, 0, 61, 46
1, 62170, Control_c, 0, 64, 0
1, 62280, Tempo, 696136
1, 62280, Note_on_c, 0, 61, 0
1, 62280, Note_on_c, 0, 46, 0
1, 62280, Note_on_c, 0, 58, 0
1, 62280, Note_on_c, 0, 66, 0
1, 62280, Note_on_c, 0, 60, 44
1, 62280, Note_on_c, 0, 65, 52
1, 62280, Note_on_c, 0, 57, 44
1, 62280, Note_on_c, 0, 48, 58
1, 62340, Control_c, 0, 64, 127
1, 62400, Tempo, 752918
1, 62520, Tempo, 831140
1, 62520, Note_on_c, 0, 57, 0
1, 62520, Note_on_c, 0, 60, 0
1, 62520, Note_on_c, 0, 65, 0
1, 62520, Note_on_c, 0, 58, 42
1, 62520, Note_on_c, 0, 55, 42
1, 62520, Note_on_c, 0, 64, 50
1, 62528, Control_c, 0, 64, 0
1, 62610, Note_on_c, 0, 64, 0
1, 62610, Note_on_c, 0, 55, 0
1, 62610, Note_on_c, 0, 58, 0
1, 62640, Tempo, 730016
1, 62640, Note_on_c, 0, 48, 0
1, 62640, Note_on_c, 0, 55, 37
1, 62640, Note_on_c, 0, 58, 37
1, 62640, Note_on_c, 0, 64, 45
1, 62640, Note_on_c, 0, 41, 52
1, 62729, Control_c, 0, 64, 127
1, 63000, Note_on_c, 0, 64, 0
1, 63000, Note_on_c, 0, 55, 0
1, 63000, Note_on_c, 0, 58, 0
1, 63000, Note_on_c, 0, 57, 37
1, 63000, Note_on_c, 0, 65, 45
1, 63030, Control_c, 0, 64, 0
1, 63140, Control_c, 0, 64, 127
1, 63360, Tempo, 654379
1, 63360, Note_on_c, 0, 65, 0
1, 63360, Note_on_c, 0, 57, 0
1, 63360, Note_on_c, 0, 41, 0
1, 63360, Note_on_c, 0, 53, 43
1, 63366, Control_c, 0, 64, 0
1, 63368, Control_c, 0, 64, 0
1, 63480, Note_on_c, 0, 53, 0
1, 63480, Note_on_c, 0, 54, 41
1, 63600, Note_on_c, 0, 54, 0
1, 63600, Note_on_c, 0, 53, 38
1, 63720, Tempo, 665262
1, 63720, Note_on_c, 0, 53, 0
1, 63720, Note_on_c, 0, 51, 41
1, 63840, Tempo, 696136
1, 63840, Note_on_c, 0, 51, 0
1, 63840, Note_on_c, 0, 49, 38
1, 63960, Tempo, 672721
1, 63960, Note_on_c, 0, 49, 0
1, 63960, Note_on_c, 0, 73, 43
1, 63960, Note_on_c, 0, 77, 43
1, 63960, Note_on_c, 0, 48, 38
1, 64020, Note_on_c, 0, 48, 0
1, 64020, Note_on_c, 0, 77, 0
1, 64020, Note_on_c, 0, 73, 0
1, 64020, Note_on_c, 0, 46, 35
1, 64080, Tempo, 637010
1, 64080, Note_on_c, 0, 65, 40
1, 64080, Note_on_c, 0, 73, 50
1, 64080, Note_on_c, 0, 77, 50
1, 64080, Note_on_c, 0, 61, 40
1, 64144, Control_c, 0, 64, 127
1, 64200, Note_on_c, 0, 77, 0
1, 64200, Note_on_c, 0, 73, 0
1, 64200, Note_on_c, 0, 73, 45
1, 64200, Note_on_c, 0, 70, 45
1, 64320, Tempo, 688152
1, 64320, Note_on_c, 0, 70, 0
1, 64320, Note_on_c, 0, 46, 0
1, 64320, Note_on_c, 0, 61, 0
1, 64320, Note_on_c, 0, 65, 0
1, 64320, Note_on_c, 0, 73, 0
1, 64320, Note_on_c, 0, 77, 45
1, 64320, Note_on_c, 0, 73, 45
1, 64334, Control_c, 0, 64, 0
1, 64380, Note_on_c, 0, 73, 0
1, 64380, Note_on_c, 0, 77, 0
1, 64380, Note_on_c, 0, 46, 35
1, 64440, Tempo, 633647
1, 64440, Note_on_c, 0, 65, 40
1, 64440, Note_on_c, 0, 73, 50
1, 64440, Note_on_c, 0, 77, 50
1, 64440, Note_on_c, 0, 61, 40
1, 64500, Control_c, 0, 64, 127
1, 64560, Note_on_c, 0, 77, 0
1, 64560, Note_on_c, 0, 73, 0
1, 64560, Note_on_c, 0, 73, 46
1, 64560, Note_on_c, 0, 70, 46
1, 64680, Tempo, 680349
1, 64680, Note_on_c, 0, 70, 0
1, 64680, Note_on_c, 0, 46, 0
1, 64680, Note_on_c, 0, 61, 0
1, 64680, Note_on_c, 0, 65, 0
1, 64680, Note_on_c, 0, 73, 0
1, 64680, Note_on_c, 0, 77, 46
1, 64680, Note_on_c, 0, 73, 46
1, 64694, Control_c, 0, 64, 0
1, 64740, Note_on_c, 0, 73, 0
1, 64740, Note_on_c, 0, 77, 0
1, 64740, Note_on_c, 0, 46, 35
1, 64800, Tempo, 637010
1, 64800, Note_on_c, 0, 65, 40
1, 64800, Note_on_c, 0, 73, 50
1, 64800, Note_on_c, 0, 77, 50
1, 64800, Note_on_c, 0, 61, 40
1, 64846, Control_c, 0, 64, 127
1, 64920, Note_on_c, 0, 77, 0
1, 64920, Note_on_c, 0, 73, 0
1, 64920, Note_on_c, 0, 73, 45
1, 64920, Note_on_c, 0, 70, 45
1, 65040, Tempo, 684229
1, 65040, Note_on_c, 0, 70, 0
1, 65040, Note_on_c, 0, 46, 0
1, 65040, Note_on_c, 0, 61, 0
1, 65040, Note_on_c, 0, 65, 0
1, 65040, Note_on_c, 0, 73, 0
1, 65040, Note_on_c, 0, 77, 45
1, 65040, Note_on_c, 0, 73, 45
1, 65059, Control_c, 0, 64, 0
1, 65100, Note_on_c, 0, 73, 0
1, 65100, Note_on_c, 0, 77, 0
1, 65100, Note_on_c, 0, 46, 35
1, 65160, Tempo, 657967
1, 65160, Note_on_c, 0, 65, 40
1, 65160, Note_on_c, 0, 73, 50
1, 65160, Note_on_c, 0, 77, 50
1, 65160, Note_on_c, 0, 61, 40
1, 65220, Control_c, 0, 64, 127
1, 65280, Note_on_c, 0, 77, 0
1, 65280, Note_on_c, 0, 73, 0
1, 65280, Note_on_c, 0, 73, 46
1, 65280, Note_on_c, 0, 70, 46
1, 65400, Tempo, 721241
1, 65400, Note_on_c, 0, 70, 0
1, 65400, Note_on_c, 0, 46, 0
1, 65400, Note_on_c, 0, 61, 0
1, 65400, Note_on_c, 0, 65, 0
1, 65400, Note_on_c, 0, 73, 0
1, 65400, Note_on_c, 0, 77, 46
1, 65400, Note_on_c, 0, 73, 46
1, 65421, Control_c, 0, 64, 0
1, 65460, Note_on_c, 0, 73, 0
1, 65460, Note_on_c, 0, 77, 0
1, 65460, Note_on_c, 0, 46, 35
1, 65520, Tempo, 665262
1, 65520, Note_on_c, 0, 66, 71
1, 65520, Note_on_c, 0, 73, 50
1, 65520, Note_on_c, 0, 61, 40
1, 65556, Control_c, 0, 64, 127
1, 65640, Note_on_c, 0, 73, 0
1, 65640, Note_on_c, 0, 70, 45
1, 65760, Note_on_c, 0, 70, 0
1, 65760, Note_on_c, 0, 61, 0
1, 65760, Note_on_c, 0, 46, 0
1, 65760, Note_on_c, 0, 73, 45
1, 65785, Control_c, 0, 64, 0
1, 65820, Note_on_c, 0, 73, 0
1, 65820, Note_on_c, 0, 46, 35
1, 65880, Note_on_c, 0, 73, 50
1, 65880, Note_on_c, 0, 61, 40
1, 65958, Control_c, 0, 64, 127
1, 66000, Note_on_c, 0, 73, 0
1, 66000, Note_on_c, 0, 70, 46
1, 66120, Tempo, 672721
1, 66120, Note_on_c, 0, 70, 0
1, 66120, Note_on_c, 0, 61, 0
1, 66120, Note_on_c, 0, 46, 0
1, 66120, Note_on_c, 0, 66, 0
1, 66120, Note_on_c, 0, 65, 60
1, 66120, Note_on_c, 0, 73, 46
1, 66134, Control_c, 0, 64, 0
1, 66180, Note_on_c, 0, 73, 0
1, 66180, Note_on_c, 0, 46, 35
1, 66240, Tempo, 665262
1, 66240, Note_on_c, 0, 65, 0
1, 66240, Note_on_c, 0, 64, 72
1, 66240, Note_on_c, 0, 73, 50
1, 66240, Note_on_c, 0, 61, 40
1, 66290, Control_c, 0, 64, 127
1, 66360, Note_on_c, 0, 73, 0
1, 66360, Note_on_c, 0, 70, 45
1, 66480, Note_on_c, 0, 70, 0
1, 66480, Note_on_c, 0, 61, 0
1, 66480, Note_on_c, 0, 46, 0
1, 66480, Note_on_c, 0, 73, 45
1, 66491, Control_c, 0, 64, 0
1, 66540, Note_on_c, 0, 73, 0
1, 66540, Note_on_c, 0, 46, 35
1, 66600, Note_on_c, 0, 73, 50
1, 66600, Note_on_c, 0, 61, 40
1, 66720, Note_on_c, 0, 73, 0
1, 66720, Note_on_c, 0, 70, 46
1, 66780, Note_on_c, 0, 64, 0
1, 66840, Note_on_c, 0, 61, 0
1, 66840, Note_on_c, 0, 46, 0
1, 66840, Note_on_c, 0, 70, 0
1, 66840, Note_on_c, 0, 73, 61
1, 66840, Note_on_c, 0, 64, 60
1, 66900, Note_on_c, 0, 73, 0
1, 66960, Tempo, 647319
1, 66960, Note_on_c, 0, 64, 0
1, 66960, Note_on_c, 0, 65, 75
1, 66960, Note_on_c, 0, 45, 49
1, 66995, Control_c, 0, 64, 127
1, 67080, Note_on_c, 0, 45, 0
1, 67080, Note_on_c, 0, 60, 54
1, 67080, Note_on_c, 0, 63, 54
1, 67080, Note_on_c, 0, 53, 40
1, 67140, Note_on_c, 0, 53, 0
1, 67140, Note_on_c, 0, 63, 0
1, 67140, Note_on_c, 0, 60, 0
1, 67200, Note_on_c, 0, 60, 54
1, 67200, Note_on_c, 0, 63, 54
1, 67200, Note_on_c, 0, 53, 42
1, 67260, Note_on_c, 0, 53, 0
1, 67260, Note_on_c, 0, 63, 0
1, 67260, Note_on_c, 0, 60, 0
1, 67320, Note_on_c, 0, 60, 54
1, 67320, Note_on_c, 0, 63, 54
1, 67320, Note_on_c, 0, 41, 42
1, 67349, Control_c, 0, 64, 0
1, 67380, Note_on_c, 0, 63, 0
1, 67380, Note_on_c, 0, 60, 0
1, 67392, Control_c, 0, 64, 127
1, 67440, Note_on_c, 0, 65, 0
1, 67440, Note_on_c, 0, 41, 0
1, 67440, Note_on_c, 0, 58, 54
1, 67440, Note_on_c, 0, 67, 56
1, 67440, Note_on_c, 0, 53, 47
1, 67500, Note_on_c, 0, 53, 0
1, 67500, Note_on_c, 0, 67, 0
1, 67500, Note_on_c, 0, 58, 0
1, 67560, Note_on_c, 0, 60, 54
1, 67560, Note_on_c, 0, 69, 61
1, 67560, Note_on_c, 0, 53, 50
1, 67568, Control_c, 0, 64, 0
1, 67620, Note_on_c, 0, 53, 0
1, 67620, Note_on_c, 0, 69, 0
1, 67620, Note_on_c, 0, 60, 0
1, 67620, Note_on_c, 0, 72, 64
1, 67680, Note_on_c, 0, 72, 0
1, 67680, Note_on_c, 0, 61, 61
1, 67680, Note_on_c, 0, 70, 73
1, 67680, Note_on_c, 0, 46, 54
1, 67715, Control_c, 0, 64, 127
1, 67740, Note_on_c, 0, 70, 0
1, 67740, Note_on_c, 0, 61, 0
1, 67800, Note_on_c, 0, 46, 0
1, 67800, Note_on_c, 0, 60, 54
1, 67800, Note_on_c, 0, 69, 63
1, 67800, Note_on_c, 0, 53, 43
1, 67809, Control_c, 0, 64, 0
1, 67860, Note_on_c, 0, 53, 0
1, 67860, Note_on_c, 0, 69, 0
1, 67860, Note_on_c, 0, 60, 0
1, 67920, Tempo, 668971
1, 67920, Note_on_c, 0, 61, 53
1, 67920, Note_on_c, 0, 70, 63
1, 67920, Note_on_c, 0, 53, 46
1, 67980, Note_on_c, 0, 53, 0
1, 67980, Note_on_c, 0, 70, 0
1, 67980, Note_on_c, 0, 61, 0
1, 68040, Tempo, 650830
1, 68040, Note_on_c, 0, 65, 60
1, 68040, Note_on_c, 0, 73, 71
1, 68040, Note_on_c, 0, 39, 58
1, 68095, Control_c, 0, 64, 127
1, 68100, Note_on_c, 0, 73, 0
1, 68100, Note_on_c, 0, 65, 0
1, 68160, Note_on_c, 0, 39, 0
1, 68160, Note_on_c, 0, 63, 53
1, 68160, Note_on_c, 0, 72, 63
1, 68160, Note_on_c, 0, 54, 48
1, 68186, Control_c, 0, 64, 0
1, 68220, Note_on_c, 0, 54, 0
1, 68220, Note_on_c, 0, 72, 0
1, 68220, Note_on_c, 0, 63, 0
1, 68280, Tempo, 692121
1, 68280, Note_on_c, 0, 61, 58
1, 68280, Note_on_c, 0, 70, 70
1, 68280, Note_on_c, 0, 54, 48
1, 68340, Note_on_c, 0, 54, 0
1, 68340, Note_on_c, 0, 70, 0
1, 68340, Note_on_c, 0, 61, 0
1, 68400, Tempo, 654379
1, 68400, Note_on_c, 0, 61, 70
1, 68400, Note_on_c, 0, 70, 82
1, 68400, Note_on_c, 0, 41, 60
1, 68425, Control_c, 0, 64, 127
1, 68520, Note_on_c, 0, 41, 0
1, 68520, Note_on_c, 0, 53, 49
1, 68580, Note_on_c, 0, 53, 0
1, 68640, Note_on_c, 0, 53, 46
1, 68700, Note_on_c, 0, 53, 0
1, 68760, Note_on_c, 0, 64, 66
1, 68760, Note_on_c, 0, 53, 55
1, 68778, Control_c, 0, 64, 0
1, 68817, Control_c, 0, 64, 127
1, 68820, Note_on_c, 0, 53, 0
1, 68880, Note_on_c, 0, 53, 46
1, 68940, Note_on_c, 0, 53, 0
1, 69000, Tempo, 696136
1, 69000, Note_on_c, 0, 53, 46
1, 69060, Note_on_c, 0, 53, 0
1, 69120, Tempo, 650830
1, 69120, Note_on_c, 0, 61, 0
1, 69120, Note_on_c, 0, 70, 0
1, 69120, Note_on_c, 0, 64, 0
1, 69120, Note_on_c, 0, 60, 67
1, 69120, Note_on_c, 0, 65, 67
1, 69120, Note_on_c, 0, 69, 80
1, 69120, Note_on_c, 0, 53, 56
1, 69120, Control_c, 0, 64, 0
1, 69180, Control_c, 0, 64, 127
1, 69240, Note_on_c, 0, 53, 0
1, 69240, Note_on_c, 0, 54, 46
1, 69360, Note_on_c, 0, 54, 0
1, 69360, Note_on_c, 0, 53, 48
1, 69420, Note_on_c, 0, 53, 0
1, 69480, Note_on_c, 0, 60, 0
1, 69480, Note_on_c, 0, 65, 0
1, 69480, Note_on_c, 0, 69, 0
1, 69480, Note_on_c, 0, 53, 52
1, 69512, Control_c, 0, 64, 0
1, 69540, Note_on_c, 0, 53, 0
1, 69600, Tempo, 730016
1, 69600, Note_on_c, 0, 53, 46
1, 69660, Note_on_c, 0, 53, 0
1, 69720, Tempo, 650830
1, 69720, Note_on_c, 0, 53, 40
1, 69780, Note_on_c, 0, 53, 0
1, 69840, Tempo, 654379
1, 69840, Note_on_c, 0, 70, 62
1, 69840, Note_on_c, 0, 65, 52
1, 69840, Note_on_c, 0, 50, 49
1, 69865, Control_c, 0, 64, 127
1, 69960, Note_on_c, 0, 50, 0
1, 69960, Note_on_c, 0, 58, 39
1, 70020, Note_on_c, 0, 58, 0
1, 70080, Note_on_c, 0, 58, 39
1, 70140, Note_on_c, 0, 58, 0
1, 70200, Note_on_c, 0, 70, 0
1, 70200, Note_on_c, 0, 68, 55
1, 70200, Note_on_c, 0, 46, 48
1, 70218, Control_c, 0, 64, 0
1, 70257, Control_c, 0, 64, 127
1, 70260, Note_on_c, 0, 46, 0
1, 70320, Note_on_c, 0, 58, 40
1, 70380, Note_on_c, 0, 58, 0
1, 70430, Note_on_c, 0, 68, 0
1, 70440, Tempo, 696136
1, 70440, Note_on_c, 0, 68, 55
1, 70440, Note_on_c, 0, 58, 40
1, 70500, Note_on_c, 0, 58, 0
1, 70560, Tempo, 654379
1, 70560, Note_on_c, 0, 68, 0
1, 70560, Note_on_c, 0, 65, 0
1, 70560, Note_on_c, 0, 66, 62
1, 70560, Note_on_c, 0, 63, 52
1, 70560, Note_on_c, 0, 51, 49
1, 70568, Control_c, 0, 64, 0
1, 70620, Control_c, 0, 64, 127
1, 70680, Note_on_c, 0, 51, 0
1, 70680, Note_on_c, 0, 58, 39
1, 70740, Note_on_c, 0, 58, 0
1, 70800, Note_on_c, 0, 58, 39
1, 70860, Note_on_c, 0, 58, 0
1, 70920, Note_on_c, 0, 66, 0
1, 70920, Note_on_c, 0, 67, 55
1, 70920, Note_on_c, 0, 46, 48
1, 70938, Control_c, 0, 64, 0
1, 70977, Control_c, 0, 64, 127
1, 70980, Note_on_c, 0, 46, 0
1, 71040, Note_on_c, 0, 58, 40
1, 71100, Note_on_c, 0, 58, 0
1, 71160, Tempo, 696136
1, 71160, Note_on_c, 0, 58, 40
1, 71220, Note_on_c, 0, 58, 0
1, 71280, Tempo, 654379
1, 71280, Note_on_c, 0, 67, 0
1, 71280, Note_on_c, 0, 63, 0
1, 71280, Note_on_c, 0, 70, 68
1, 71280, Note_on_c, 0, 82, 80
1, 71280, Note_on_c, 0, 77, 68
1, 71280, Note_on_c, 0, 50, 63
1, 71305, Control_c, 0, 64, 127
1, 71400, Note_on_c, 0, 50, 0
1, 71400, Note_on_c, 0, 58, 50
1, 71460, Note_on_c, 0, 58, 0
1, 71520, Note_on_c, 0, 58, 50
1, 71580, Note_on_c, 0, 58, 0
1, 71640, Note_on_c, 0, 70, 0
1, 71640, Note_on_c, 0, 82, 0
1, 71640, Note_on_c, 0, 68, 60
1, 71640, Note_on_c, 0, 80, 71
1, 71640, Note_on_c, 0, 46, 62
1, 71658, Control_c, 0, 64, 0
1, 71697, Control_c, 0, 64, 127
1, 71700, Note_on_c, 0, 46, 0
1, 71760, Note_on_c, 0, 58, 52
1, 71820, Note_on_c, 0, 58, 0
1, 71870, Note_on_c, 0, 80, 0
1, 71870, Note_on_c, 0, 68, 0
1, 71880, Tempo, 696136
1, 71880, Note_on_c, 0, 68, 60
1, 71880, Note_on_c, 0, 80, 71
1, 71880, Note_on_c, 0, 58, 52
1, 71940, Note_on_c, 0, 58, 0
1, 72000, Tempo, 665262
1, 72000, Note_on_c, 0, 77, 0
1, 72000, Note_on_c, 0, 68, 0
1, 72000, Note_on_c, 0, 80, 0
1, 72000, Note_on_c, 0, 67, 68
1, 72000, Note_on_c, 0, 79, 80
1, 72000, Note_on_c, 0, 75, 68
1, 72000, Note_on_c, 0, 51, 63
1, 72008, Control_c, 0, 64, 0
1, 72060, Control_c, 0, 64, 127
1, 72120, Note_on_c, 0, 51, 0
1, 72120, Note_on_c, 0, 58, 50
1, 72180, Note_on_c, 0, 58, 0
1, 72240, Note_on_c, 0, 58, 50
1, 72300, Note_on_c, 0, 58, 0
1, 72360, Note_on_c, 0, 67, 0
1, 72360, Note_on_c, 0, 79, 0
1, 72360, Note_on_c, 0, 66, 60
1, 72360, Note_on_c, 0, 78, 71
1, 72360, Note_on_c, 0, 58, 62
1, 72378, Control_c, 0, 64, 0
1, 72417, Control_c, 0, 64, 127
1, 72420, Note_on_c, 0, 58, 0
1, 72480, Note_on_c, 0, 58, 52
1, 72540, Note_on_c, 0, 58, 0
1, 72600, Tempo, 803320
1, 72600, Note_on_c, 0, 78, 0
1, 72600, Note_on_c, 0, 66, 0
1, 72600, Note_on_c, 0, 67, 60
1, 72600, Note_on_c, 0, 79, 71
1, 72600, Note_on_c, 0, 58, 52
1, 72660, Note_on_c, 0, 58, 0
1, 72690, Note_on_c, 0, 79, 0
1, 72690, Note_on_c, 0, 67, 0
1, 72720, Key_signature, -2, "major"
1, 72720, Tempo, 743587
1, 72720, Note_on_c, 0, 75, 0
1, 72720, Note_on_c, 0, 67, 72
1, 72720, Note_on_c, 0, 70, 72
1, 72720, Note_on_c, 0, 79, 85
1, 72720, Note_on_c, 0, 60, 65
1, 72720, Note_on_c, 0, 58, 55
1, 72720, Note_on_c, 0, 52, 55
1, 72720, Control_c, 0, 64, 0
1, 72780, Note_on_c, 0, 52, 0
1, 72780, Note_on_c, 0, 70, 0
1, 72780, Note_on_c, 0, 79, 0
1, 72780, Note_on_c, 0, 67, 0
1, 72780, Note_on_c, 0, 58, 0
1, 72780, Note_on_c, 0, 60, 0
1, 72840, Tempo, 762486
1, 72840, Note_on_c, 0, 67, 61
1, 72840, Note_on_c, 0, 70, 61
1, 72840, Note_on_c, 0, 77, 72
1, 72840, Note_on_c, 0, 52, 44
1, 72840, Note_on_c, 0, 58, 44
1, 72840, Note_on_c, 0, 60, 52
1, 72900, Note_on_c, 0, 60, 0
1, 72900, Note_on_c, 0, 70, 0
1, 72900, Note_on_c, 0, 77, 0
1, 72900, Note_on_c, 0, 67, 0
1, 72900, Note_on_c, 0, 58, 0
1, 72900, Note_on_c, 0, 52, 0
1, 72960, Tempo, 777303
1, 72960, Note_on_c, 0, 76, 69
1, 72960, Note_on_c, 0, 70, 58
1, 72960, Note_on_c, 0, 67, 58
1, 72960, Note_on_c, 0, 52, 44
1, 72960, Note_on_c, 0, 58, 44
1, 72960, Note_on_c, 0, 60, 52
1, 73020, Note_on_c, 0, 60, 0
1, 73020, Note_on_c, 0, 70, 0
1, 73020, Note_on_c, 0, 67, 0
1, 73020, Note_on_c, 0, 76, 0
1, 73020, Note_on_c, 0, 58, 0
1, 73020, Note_on_c, 0, 52, 0
1, 73080, Tempo, 792707
1, 73080, Note_on_c, 0, 76, 78
1, 73080, Note_on_c, 0, 70, 66
1, 73080, Note_on_c, 0, 67, 66
1, 73080, Note_on_c, 0, 60, 59
1, 73080, Note_on_c, 0, 58, 50
1, 73080, Note_on_c, 0, 52, 50
1, 73140, Note_on_c, 0, 52, 0
1, 73140, Note_on_c, 0, 70, 0
1, 73140, Note_on_c, 0, 67, 0
1, 73140, Note_on_c, 0, 76, 0
1, 73140, Note_on_c, 0, 58, 0
1, 73140, Note_on_c, 0, 60, 0
1, 73200, Tempo, 814222
1, 73200, Note_on_c, 0, 67, 60
1, 73200, Note_on_c, 0, 70, 60
1, 73200, Note_on_c, 0, 74, 71
1, 73200, Note_on_c, 0, 52, 44
1, 73200, Note_on_c, 0, 58, 44
1, 73200, Note_on_c, 0, 60, 52
1, 73260, Note_on_c, 0, 60, 0
1, 73260, Note_on_c, 0, 70, 0
1, 73260, Note_on_c, 0, 74, 0
1, 73260, Note_on_c, 0, 67, 0
1, 73260, Note_on_c, 0, 58, 0
1, 73260, Note_on_c, 0, 52, 0
1, 73320, Tempo, 873490
1, 73320, Note_on_c, 0, 67, 60
1, 73320, Note_on_c, 0, 70, 60
1, 73320, Note_on_c, 0, 72, 71
1, 73320, Note_on_c, 0, 52, 44
1, 73320, Note_on_c, 0, 58, 44
1, 73320, Note_on_c, 0, 60, 52
1, 73380, Note_on_c, 0, 60, 0
1, 73380, Note_on_c, 0, 70, 0
1, 73380, Note_on_c, 0, 72, 0
1, 73380, Note_on_c, 0, 67, 0
1, 73380, Note_on_c, 0, 58, 0
1, 73380, Note_on_c, 0, 52, 0
1, 73440, Tempo, 676514
1, 73440, Note_on_c, 0, 72, 79
1, 73440, Note_on_c, 0, 69, 67
1, 73440, Note_on_c, 0, 65, 67
1, 73440, Note_on_c, 0, 51, 65
1, 73483, Control_c, 0, 64, 127
1, 73560, Note_on_c, 0, 51, 0
1, 73560, Note_on_c, 0, 53, 37
1, 73560, Note_on_c, 0, 57, 37
1, 73560, Note_on_c, 0, 60, 52
1, 73620, Note_on_c, 0, 60, 0
1, 73620, Note_on_c, 0, 53, 0
1, 73620, Note_on_c, 0, 57, 0
1, 73680, Note_on_c, 0, 53, 37
1, 73680, Note_on_c, 0, 57, 37
1, 73680, Note_on_c, 0, 60, 52
1, 73740, Note_on_c, 0, 60, 0
1, 73740, Note_on_c, 0, 53, 0
1, 73740, Note_on_c, 0, 57, 0
1, 73798, Note_on_c, 0, 65, 0
1, 73800, Note_on_c, 0, 69, 0
1, 73800, Note_on_c, 0, 72, 0
1, 73800, Note_on_c, 0, 74, 67
1, 73800, Note_on_c, 0, 70, 56
1, 73800, Note_on_c, 0, 65, 56
1, 73800, Note_on_c, 0, 50, 59
1, 73819, Control_c, 0, 64, 0
1, 73864, Control_c, 0, 64, 127
1, 73920, Tempo, 696136
1, 73920, Note_on_c, 0, 50, 0
1, 73920, Note_on_c, 0, 53, 37
1, 73920, Note_on_c, 0, 58, 52
1, 73980, Note_on_c, 0, 58, 0
1, 73980, Note_on_c, 0, 53, 0
1, 74038, Note_on_c, 0, 65, 0
1, 74038, Note_on_c, 0, 70, 0
1, 74038, Note_on_c, 0, 74, 0
1, 74040, Tempo, 730016
1, 74040, Note_on_c, 0, 65, 52
1, 74040, Note_on_c, 0, 70, 52
1, 74040, Note_on_c, 0, 74, 62
1, 74040, Note_on_c, 0, 53, 37
1, 74040, Note_on_c, 0, 58, 52
1, 74100, Note_on_c, 0, 58, 0
1, 74100, Note_on_c, 0, 53, 0
1, 74160, Tempo, 665262
1, 74160, Note_on_c, 0, 65, 0
1, 74160, Note_on_c, 0, 70, 0
1, 74160, Note_on_c, 0, 74, 0
1, 74160, Note_on_c, 0, 75, 79
1, 74160, Note_on_c, 0, 70, 67
1, 74160, Note_on_c, 0, 67, 67
1, 74160, Note_on_c, 0, 48, 65
1, 74177, Control_c, 0, 64, 0
1, 74227, Control_c, 0, 64, 127
1, 74280, Note_on_c, 0, 48, 0
1, 74280, Note_on_c, 0, 55, 37
1, 74280, Note_on_c, 0, 58, 37
1, 74280, Note_on_c, 0, 60, 52
1, 74340, Note_on_c, 0, 60, 0
1, 74340, Note_on_c, 0, 55, 0
1, 74340, Note_on_c, 0, 58, 0
1, 74400, Note_on_c, 0, 55, 37
1, 74400, Note_on_c, 0, 58, 37
1, 74400, Note_on_c, 0, 60, 52
1, 74460, Note_on_c, 0, 60, 0
1, 74460, Note_on_c, 0, 55, 0
1, 74460, Note_on_c, 0, 58, 0
1, 74520, Note_on_c, 0, 70, 0
1, 74520, Note_on_c, 0, 67, 0
1, 74520, Note_on_c, 0, 75, 0
1, 74520, Note_on_c, 0, 72, 67
1, 74520, Note_on_c, 0, 69, 56
1, 74520, Note_on_c, 0, 51, 59
1, 74539, Control_c, 0, 64, 0
1, 74584, Control_c, 0, 64, 127
1, 74640, Tempo, 680349
1, 74640, Note_on_c, 0, 51, 0
1, 74640, Note_on_c, 0, 57, 37
1, 74640, Note_on_c, 0, 53, 37
1, 74640, Note_on_c, 0, 60, 52
1, 74700, Note_on_c, 0, 60, 0
1, 74700, Note_on_c, 0, 57, 0
1, 74700, Note_on_c, 0, 53, 0
1, 74758, Note_on_c, 0, 69, 0
1, 74758, Note_on_c, 0, 72, 0
1, 74760, Tempo, 712674
1, 74760, Note_on_c, 0, 65, 52
1, 74760, Note_on_c, 0, 69, 52
1, 74760, Note_on_c, 0, 72, 62
1, 74760, Note_on_c, 0, 57, 37
1, 74760, Note_on_c, 0, 53, 37
1, 74760, Note_on_c, 0, 60, 52
1, 74820, Note_on_c, 0, 60, 0
1, 74820, Note_on_c, 0, 57, 0
1, 74820, Note_on_c, 0, 53, 0
1, 74880, Tempo, 692121
1, 74880, Note_on_c, 0, 65, 0
1, 74880, Note_on_c, 0, 72, 0
1, 74880, Note_on_c, 0, 69, 0
1, 74880, Note_on_c, 0, 77, 82
1, 74880, Note_on_c, 0, 50, 61
1, 74880, Control_c, 0, 64, 0
1, 74936, Control_c, 0, 64, 127
1, 75000, Tempo, 654379
1, 75000, Note_on_c, 0, 50, 0
1, 75000, Note_on_c, 0, 65, 55
1, 75000, Note_on_c, 0, 70, 55
1, 75000, Note_on_c, 0, 58, 53
1, 75000, Note_on_c, 0, 62, 53
1, 75060, Note_on_c, 0, 62, 0
1, 75060, Note_on_c, 0, 70, 0
1, 75060, Note_on_c, 0, 58, 0
1, 75060, Note_on_c, 0, 65, 0
1, 75120, Note_on_c, 0, 65, 56
1, 75120, Note_on_c, 0, 70, 56
1, 75120, Note_on_c, 0, 62, 52
1, 75120, Note_on_c, 0, 58, 52
1, 75180, Note_on_c, 0, 58, 0
1, 75180, Note_on_c, 0, 70, 0
1, 75180, Note_on_c, 0, 62, 0
1, 75180, Note_on_c, 0, 65, 0
1, 75240, Note_on_c, 0, 70, 64
1, 75240, Note_on_c, 0, 65, 64
1, 75240, Note_on_c, 0, 58, 60
1, 75240, Note_on_c, 0, 62, 60
1, 75300, Note_on_c, 0, 62, 0
1, 75300, Note_on_c, 0, 65, 0
1, 75300, Note_on_c, 0, 58, 0
1, 75300, Note_on_c, 0, 70, 0
1, 75360, Note_on_c, 0, 65, 57
1, 75360, Note_on_c, 0, 70, 57
1, 75360, Note_on_c, 0, 62, 55
1, 75360, Note_on_c, 0, 58, 55
1, 75420, Note_on_c, 0, 58, 0
1, 75420, Note_on_c, 0, 70, 0
1, 75420, Note_on_c, 0, 62, 0
1, 75420, Note_on_c, 0, 65, 0
1, 75480, Tempo, 708466
1, 75480, Note_on_c, 0, 65, 58
1, 75480, Note_on_c, 0, 70, 58
1, 75480, Note_on_c, 0, 62, 56
1, 75480, Note_on_c, 0, 58, 56
1, 75540, Note_on_c, 0, 58, 0
1, 75540, Note_on_c, 0, 70, 0
1, 75540, Note_on_c, 0, 62, 0
1, 75540, Note_on_c, 0, 65, 0
1, 75600, Tempo, 684229
1, 75600, Note_on_c, 0, 77, 0
1, 75600, Note_on_c, 0, 68, 60
1, 75600, Note_on_c, 0, 70, 60
1, 75600, Note_on_c, 0, 78, 90
1, 75600, Note_on_c, 0, 62, 67
1, 75600, Note_on_c, 0, 58, 64
1, 75600, Control_c, 0, 64, 0
1, 75656, Control_c, 0, 64, 127
1, 75660, Note_on_c, 0, 70, 0
1, 75660, Note_on_c, 0, 68, 0
1, 75720, Tempo, 650830
1, 75720, Note_on_c, 0, 62, 0
1, 75720, Note_on_c, 0, 58, 0
1, 75720, Note_on_c, 0, 68, 60
1, 75720, Note_on_c, 0, 70, 60
1, 75720, Note_on_c, 0, 58, 58
1, 75720, Note_on_c, 0, 62, 58
1, 75780, Note_on_c, 0, 62, 0
1, 75780, Note_on_c, 0, 70, 0
1, 75780, Note_on_c, 0, 58, 0
1, 75780, Note_on_c, 0, 68, 0
1, 75840, Note_on_c, 0, 68, 61
1, 75840, Note_on_c, 0, 70, 61
1, 75840, Note_on_c, 0, 62, 57
1, 75840, Note_on_c, 0, 58, 57
1, 75900, Note_on_c, 0, 58, 0
1, 75900, Note_on_c, 0, 70, 0
1, 75900, Note_on_c, 0, 62, 0
1, 75900, Note_on_c, 0, 68, 0
1, 75960, Note_on_c, 0, 70, 70
1, 75960, Note_on_c, 0, 68, 70
1, 75960, Note_on_c, 0, 58, 66
1, 75960, Note_on_c, 0, 62, 66
1, 76020, Note_on_c, 0, 62, 0
1, 76020, Note_on_c, 0, 68, 0
1, 76020, Note_on_c, 0, 58, 0
1, 76020, Note_on_c, 0, 70, 0
1, 76080, Note_on_c, 0, 68, 62
1, 76080, Note_on_c, 0, 70, 62
1, 76080, Note_on_c, 0, 62, 60
1, 76080, Note_on_c, 0, 58, 60
1, 76140, Note_on_c, 0, 58, 0
1, 76140, Note_on_c, 0, 70, 0
1, 76140, Note_on_c, 0, 62, 0
1, 76140, Note_on_c, 0, 68, 0
1, 76200, Tempo, 696136
1, 76200, Note_on_c, 0, 68, 63
1, 76200, Note_on_c, 0, 70, 63
1, 76200, Note_on_c, 0, 62, 61
1, 76200, Note_on_c, 0, 58, 61
1, 76260, Note_on_c, 0, 58, 0
1, 76260, Note_on_c, 0, 70, 0
1, 76260, Note_on_c, 0, 62, 0
1, 76260, Note_on_c, 0, 68, 0
1, 76320, Tempo, 680349
1, 76320, Note_on_c, 0, 78, 0
1, 76320, Note_on_c, 0, 67, 65
1, 76320, Note_on_c, 0, 70, 65
1, 76320, Note_on_c, 0, 79, 98
1, 76320, Note_on_c, 0, 51, 70
1, 76320, Note_on_c, 0, 61, 73
1, 76320, Note_on_c, 0, 58, 70
1, 76320, Control_c, 0, 64, 0
1, 76376, Control_c, 0, 64, 127
1, 76380, Note_on_c, 0, 70, 0
1, 76380, Note_on_c, 0, 67, 0
1, 76440, Tempo, 650830
1, 76440, Note_on_c, 0, 61, 0
1, 76440, Note_on_c, 0, 51, 0
1, 76440, Note_on_c, 0, 58, 0
1, 76440, Note_on_c, 0, 67, 65
1, 76440, Note_on_c, 0, 70, 65
1, 76440, Note_on_c, 0, 51, 62
1, 76440, Note_on_c, 0, 58, 62
1, 76440, Note_on_c, 0, 61, 62
1, 76500, Note_on_c, 0, 61, 0
1, 76500, Note_on_c, 0, 67, 0
1, 76500, Note_on_c, 0, 70, 0
1, 76500, Note_on_c, 0, 51, 0
1, 76500, Note_on_c, 0, 58, 0
1, 76560, Note_on_c, 0, 67, 65
1, 76560, Note_on_c, 0, 70, 65
1, 76560, Note_on_c, 0, 51, 61
1, 76560, Note_on_c, 0, 61, 61
1, 76560, Note_on_c, 0, 58, 61
1, 76620, Note_on_c, 0, 58, 0
1, 76620, Note_on_c, 0, 67, 0
1, 76620, Note_on_c, 0, 70, 0
1, 76620, Note_on_c, 0, 51, 0
1, 76620, Note_on_c, 0, 61, 0
1, 76680, Note_on_c, 0, 70, 73
1, 76680, Note_on_c, 0, 67, 73
1, 76680, Note_on_c, 0, 51, 68
1, 76680, Note_on_c, 0, 58, 68
1, 76680, Note_on_c, 0, 61, 68
1, 76740, Note_on_c, 0, 61, 0
1, 76740, Note_on_c, 0, 70, 0
1, 76740, Note_on_c, 0, 67, 0
1, 76740, Note_on_c, 0, 51, 0
1, 76740, Note_on_c, 0, 58, 0
1, 76800, Note_on_c, 0, 67, 65
1, 76800, Note_on_c, 0, 70, 65
1, 76800, Note_on_c, 0, 51, 62
1, 76800, Note_on_c, 0, 61, 62
1, 76800, Note_on_c, 0, 58, 62
1, 76860, Note_on_c, 0, 58, 0
1, 76860, Note_on_c, 0, 67, 0
1, 76860, Note_on_c, 0, 70, 0
1, 76860, Note_on_c, 0, 51, 0
1, 76860, Note_on_c, 0, 61, 0
1, 76920, Tempo, 708466
1, 76920, Note_on_c, 0, 67, 65
1, 76920, Note_on_c, 0, 70, 65
1, 76920, Note_on_c, 0, 51, 62
1, 76920, Note_on_c, 0, 61, 62
1, 76920, Note_on_c, 0, 58, 62
1, 76980, Note_on_c, 0, 58, 0
1, 76980, Note_on_c, 0, 67, 0
1, 76980, Note_on_c, 0, 70, 0
1, 76980, Note_on_c, 0, 51, 0
1, 76980, Note_on_c, 0, 61, 0
1, 77040, Tempo, 657967
1, 77040, Note_on_c, 0, 79, 0
1, 77040, Note_on_c, 0, 67, 72
1, 77040, Note_on_c, 0, 70, 72
1, 77040, Note_on_c, 0, 79, 85
1, 77040, Note_on_c, 0, 60, 65
1, 77040, Note_on_c, 0, 58, 55
1, 77040, Note_on_c, 0, 52, 55
1, 77040, Control_c, 0, 64, 0
1, 77060, Control_c, 0, 64, 0
1, 77100, Note_on_c, 0, 52, 0
1, 77100, Note_on_c, 0, 70, 0
1, 77100, Note_on_c, 0, 79, 0
1, 77100, Note_on_c, 0, 67, 0
1, 77100, Note_on_c, 0, 58, 0
1, 77100, Note_on_c, 0, 60, 0
1, 77160, Note_on_c, 0, 67, 61
1, 77160, Note_on_c, 0, 70, 61
1, 77160, Note_on_c, 0, 77, 72
1, 77160, Note_on_c, 0, 52, 44
1, 77160, Note_on_c, 0, 58, 44
1, 77160, Note_on_c, 0, 60, 52
1, 77220, Note_on_c, 0, 60, 0
1, 77220, Note_on_c, 0, 70, 0
1, 77220, Note_on_c, 0, 77, 0
1, 77220, Note_on_c, 0, 67, 0
1, 77220, Note_on_c, 0, 58, 0
1, 77220, Note_on_c, 0, 52, 0
1, 77280, Tempo, 647319
1, 77280, Note_on_c, 0, 76, 69
1, 77280, Note_on_c, 0, 70, 58
1, 77280, Note_on_c, 0, 67, 58
1, 77280, Note_on_c, 0, 52, 44
1, 77280, Note_on_c, 0, 58, 44
1, 77280, Note_on_c, 0, 60, 52
1, 77340, Note_on_c, 0, 60, 0
1, 77340, Note_on_c, 0, 70, 0
1, 77340, Note_on_c, 0, 67, 0
1, 77340, Note_on_c, 0, 76, 0
1, 77340, Note_on_c, 0, 58, 0
1, 77340, Note_on_c, 0, 52, 0
1, 77400, Note_on_c, 0, 76, 78
1, 77400, Note_on_c, 0, 70, 66
1, 77400, Note_on_c, 0, 67, 66
1, 77400, Note_on_c, 0, 60, 59
1, 77400, Note_on_c, 0, 58, 50
1, 77400, Note_on_c, 0, 52, 50
1, 77460, Note_on_c, 0, 52, 0
1, 77460, Note_on_c, 0, 70, 0
1, 77460, Note_on_c, 0, 67, 0
1, 77460, Note_on_c, 0, 76, 0
1, 77460, Note_on_c, 0, 58, 0
1, 77460, Note_on_c, 0, 60, 0
1, 77520, Note_on_c, 0, 67, 60
1, 77520, Note_on_c, 0, 70, 60
1, 77520, Note_on_c, 0, 74, 71
1, 77520, Note_on_c, 0, 52, 44
1, 77520, Note_on_c, 0, 58, 44
1, 77520, Note_on_c, 0, 60, 52
1, 77580, Note_on_c, 0, 60, 0
1, 77580, Note_on_c, 0, 70, 0
1, 77580, Note_on_c, 0, 74, 0
1, 77580, Note_on_c, 0, 67, 0
1, 77580, Note_on_c, 0, 58, 0
1, 77580, Note_on_c, 0, 52, 0
1, 77640, Tempo, 692121
1, 77640, Note_on_c, 0, 67, 60
1, 77640, Note_on_c, 0, 70, 60
1, 77640, Note_on_c, 0, 72, 71
1, 77640, Note_on_c, 0, 52, 44
1, 77640, Note_on_c, 0, 58, 44
1, 77640, Note_on_c, 0, 60, 52
1, 77700, Note_on_c, 0, 60, 0
1, 77700, Note_on_c, 0, 70, 0
1, 77700, Note_on_c, 0, 72, 0
1, 77700, Note_on_c, 0, 67, 0
1, 77700, Note_on_c, 0, 58, 0
1, 77700, Note_on_c, 0, 52, 0
1, 77760, Tempo, 654379
1, 77760, Note_on_c, 0, 72, 79
1, 77760, Note_on_c, 0, 51, 65
1, 77803, Control_c, 0, 64, 127
1, 77880, Note_on_c, 0, 51, 0
1, 77880, Note_on_c, 0, 65, 56
1, 77880, Note_on_c, 0, 69, 56
1, 77880, Note_on_c, 0, 53, 31
1, 77880, Note_on_c, 0, 57, 31
1, 77880, Note_on_c, 0, 60, 44
1, 77940, Note_on_c, 0, 60, 0
1, 77940, Note_on_c, 0, 65, 0
1, 77940, Note_on_c, 0, 69, 0
1, 77940, Note_on_c, 0, 53, 0
1, 77940, Note_on_c, 0, 57, 0
1, 78000, Note_on_c, 0, 65, 56
1, 78000, Note_on_c, 0, 69, 56
1, 78000, Note_on_c, 0, 53, 31
1, 78000, Note_on_c, 0, 57, 31
1, 78000, Note_on_c, 0, 60, 44
1, 78060, Note_on_c, 0, 60, 0
1, 78060, Note_on_c, 0, 65, 0
1, 78060, Note_on_c, 0, 69, 0
1, 78060, Note_on_c, 0, 53, 0
1, 78060, Note_on_c, 0, 57, 0
1, 78120, Note_on_c, 0, 72, 0
1, 78120, Note_on_c, 0, 74, 67
1, 78120, Note_on_c, 0, 50, 59
1, 78139, Control_c, 0, 64, 0
1, 78184, Control_c, 0, 64, 127
1, 78240, Tempo, 696136
1, 78240, Note_on_c, 0, 50, 0
1, 78240, Note_on_c, 0, 65, 47
1, 78240, Note_on_c, 0, 70, 47
1, 78240, Note_on_c, 0, 53, 37
1, 78240, Note_on_c, 0, 58, 52
1, 78300, Note_on_c, 0, 58, 0
1, 78300, Note_on_c, 0, 70, 0
1, 78300, Note_on_c, 0, 53, 0
1, 78300, Note_on_c, 0, 65, 0
1, 78360, Tempo, 730016
1, 78360, Note_on_c, 0, 74, 0
1, 78360, Note_on_c, 0, 65, 52
1, 78360, Note_on_c, 0, 70, 52
1, 78360, Note_on_c, 0, 74, 62
1, 78360, Note_on_c, 0, 53, 37
1, 78360, Note_on_c, 0, 58, 52
1, 78420, Note_on_c, 0, 58, 0
1, 78420, Note_on_c, 0, 53, 0
1, 78480, Tempo, 654379
1, 78480, Note_on_c, 0, 65, 0
1, 78480, Note_on_c, 0, 70, 0
1, 78480, Note_on_c, 0, 74, 0
1, 78480, Note_on_c, 0, 77, 79
1, 78480, Note_on_c, 0, 48, 65
1, 78497, Control_c, 0, 64, 0
1, 78547, Control_c, 0, 64, 127
1, 78600, Note_on_c, 0, 48, 0
1, 78600, Note_on_c, 0, 67, 56
1, 78600, Note_on_c, 0, 70, 56
1, 78600, Note_on_c, 0, 55, 31
1, 78600, Note_on_c, 0, 58, 31
1, 78600, Note_on_c, 0, 60, 44
1, 78660, Note_on_c, 0, 60, 0
1, 78660, Note_on_c, 0, 67, 0
1, 78660, Note_on_c, 0, 70, 0
1, 78660, Note_on_c, 0, 55, 0
1, 78660, Note_on_c, 0, 58, 0
1, 78720, Note_on_c, 0, 67, 56
1, 78720, Note_on_c, 0, 70, 56
1, 78720, Note_on_c, 0, 55, 31
1, 78720, Note_on_c, 0, 58, 31
1, 78720, Note_on_c, 0, 60, 44
1, 78780, Note_on_c, 0, 60, 0
1, 78780, Note_on_c, 0, 67, 0
1, 78780, Note_on_c, 0, 70, 0
1, 78780, Note_on_c, 0, 55, 0
1, 78780, Note_on_c, 0, 58, 0
1, 78840, Note_on_c, 0, 77, 0
1, 78840, Note_on_c, 0, 75, 67
1, 78840, Note_on_c, 0, 53, 59
1, 78859, Control_c, 0, 64, 0
1, 78904, Control_c, 0, 64, 127
1, 78960, Tempo, 680349
1, 78960, Note_on_c, 0, 53, 0
1, 78960, Note_on_c, 0, 65, 47
1, 78960, Note_on_c, 0, 69, 47
1, 78960, Note_on_c, 0, 60, 31
1, 78960, Note_on_c, 0, 57, 31
1, 78960, Note_on_c, 0, 63, 44
1, 79020, Note_on_c, 0, 63, 0
1, 79020, Note_on_c, 0, 65, 0
1, 79020, Note_on_c, 0, 69, 0
1, 79020, Note_on_c, 0, 60, 0
1, 79020, Note_on_c, 0, 57, 0
1, 79080, Tempo, 712674
1, 79080, Note_on_c, 0, 75, 0
1, 79080, Note_on_c, 0, 72, 49
1, 79080, Note_on_c, 0, 69, 41
1, 79080, Note_on_c, 0, 65, 41
1, 79080, Note_on_c, 0, 63, 42
1, 79080, Note_on_c, 0, 57, 35
1, 79080, Note_on_c, 0, 60, 35
1, 79140, Note_on_c, 0, 60, 0
1, 79140, Note_on_c, 0, 63, 0
1, 79140, Note_on_c, 0, 57, 0
1, 79200, Tempo, 654379
1, 79200, Note_on_c, 0, 72, 0
1, 79200, Note_on_c, 0, 65, 0
1, 79200, Note_on_c, 0, 69, 0
1, 79200, Note_on_c, 0, 70, 61
1, 79200, Note_on_c, 0, 58, 53
1, 79217, Control_c, 0, 64, 0
1, 79267, Control_c, 0, 64, 127
1, 79320, Note_on_c, 0, 58, 0
1, 79320, Note_on_c, 0, 65, 49
1, 79320, Note_on_c, 0, 62, 45
1, 79380, Note_on_c, 0, 62, 0
1, 79380, Note_on_c, 0, 65, 0
1, 79440, Note_on_c, 0, 65, 49
1, 79440, Note_on_c, 0, 62, 45
1, 79500, Note_on_c, 0, 62, 0
1, 79500, Note_on_c, 0, 65, 0
1, 79550, Control_c, 0, 64, 0
1, 79560, Note_on_c, 0, 70, 0
1, 79560, Note_on_c, 0, 50, 53
1, 79680, Note_on_c, 0, 50, 0
1, 79680, Note_on_c, 0, 53, 45
1, 79740, Note_on_c, 0, 53, 0
1, 79800, Tempo, 672721
1, 79800, Note_on_c, 0, 65, 47
1, 79800, Note_on_c, 0, 53, 49
1, 79860, Note_on_c, 0, 53, 0
1, 79860, Note_on_c, 0, 65, 0
1, 79920, Tempo, 620540
1, 79920, Note_on_c, 0, 60, 55
1, 79920, Note_on_c, 0, 65, 55
1, 79920, Note_on_c, 0, 45, 55
1, 79984, Control_c, 0, 64, 127
1, 80040, Note_on_c, 0, 65, 0
1, 80040, Note_on_c, 0, 60, 0
1, 80040, Note_on_c, 0, 63, 50
1, 80040, Note_on_c, 0, 53, 50
1, 80160, Tempo, 665262
1, 80160, Note_on_c, 0, 53, 0
1, 80160, Note_on_c, 0, 63, 0
1, 80160, Note_on_c, 0, 45, 0
1, 80160, Note_on_c, 0, 65, 50
1, 80160, Note_on_c, 0, 60, 50
1, 80174, Control_c, 0, 64, 0
1, 80220, Note_on_c, 0, 60, 0
1, 80220, Note_on_c, 0, 65, 0
1, 80280, Tempo, 620540
1, 80280, Note_on_c, 0, 60, 57
1, 80280, Note_on_c, 0, 65, 57
1, 80280, Note_on_c, 0, 29, 45
1, 80280, Note_on_c, 0, 41, 45
1, 80340, Control_c, 0, 64, 127
1, 80400, Note_on_c, 0, 65, 0
1, 80400, Note_on_c, 0, 60, 0
1, 80400, Note_on_c, 0, 63, 54
1, 80400, Note_on_c, 0, 53, 54
1, 80520, Tempo, 657967
1, 80520, Note_on_c, 0, 53, 0
1, 80520, Note_on_c, 0, 41, 0
1, 80520, Note_on_c, 0, 29, 0
1, 80520, Note_on_c, 0, 63, 0
1, 80520, Note_on_c, 0, 65, 54
1, 80520, Note_on_c, 0, 60, 54
1, 80534, Control_c, 0, 64, 0
1, 80580, Note_on_c, 0, 60, 0
1, 80580, Note_on_c, 0, 65, 0
1, 80640, Tempo, 620540
1, 80640, Note_on_c, 0, 58, 60
1, 80640, Note_on_c, 0, 65, 60
1, 80640, Note_on_c, 0, 34, 59
1, 80640, Note_on_c, 0, 46, 59
1, 80704, Control_c, 0, 64, 127
1, 80760, Note_on_c, 0, 65, 0
1, 80760, Note_on_c, 0, 58, 0
1, 80760, Note_on_c, 0, 62, 55
1, 80760, Note_on_c, 0, 53, 55
1, 80880, Tempo, 661594
1, 80880, Note_on_c, 0, 53, 0
1, 80880, Note_on_c, 0, 46, 0
1, 80880, Note_on_c, 0, 34, 0
1, 80880, Note_on_c, 0, 62, 0
1, 80880, Note_on_c, 0, 65, 56
1, 80880, Note_on_c, 0, 58, 56
1, 80894, Control_c, 0, 64, 0
1, 80940, Note_on_c, 0, 58, 0
1, 80940, Note_on_c, 0, 65, 0
1, 81000, Tempo, 620540
1, 81000, Note_on_c, 0, 58, 64
1, 81000, Note_on_c, 0, 65, 64
1, 81000, Note_on_c, 0, 38, 50
1, 81000, Note_on_c, 0, 50, 50
1, 81060, Control_c, 0, 64, 127
1, 81120, Note_on_c, 0, 65, 0
1, 81120, Note_on_c, 0, 58, 0
1, 81120, Note_on_c, 0, 62, 59
1, 81120, Note_on_c, 0, 53, 59
1, 81240, Tempo, 657967
1, 81240, Note_on_c, 0, 53, 0
1, 81240, Note_on_c, 0, 50, 0
1, 81240, Note_on_c, 0, 38, 0
1, 81240, Note_on_c, 0, 62, 0
1, 81240, Note_on_c, 0, 65, 60
1, 81240, Note_on_c, 0, 58, 60
1, 81254, Control_c, 0, 64, 0
1, 81300, Note_on_c, 0, 58, 0
1, 81300, Note_on_c, 0, 65, 0
1, 81360, Tempo, 604900
1, 81360, Note_on_c, 0, 60, 66
1, 81360, Note_on_c, 0, 65, 66
1, 81360, Note_on_c, 0, 33, 66
1, 81360, Note_on_c, 0, 45, 66
1, 81424, Control_c, 0, 64, 127
1, 81480, Note_on_c, 0, 65, 0
1, 81480, Note_on_c, 0, 60, 0
1, 81480, Note_on_c, 0, 63, 61
1, 81480, Note_on_c, 0, 53, 61
1, 81600, Tempo, 657967
1, 81600, Note_on_c, 0, 53, 0
1, 81600, Note_on_c, 0, 45, 0
1, 81600, Note_on_c, 0, 33, 0
1, 81600, Note_on_c, 0, 63, 0
1, 81600, Note_on_c, 0, 65, 61
1, 81600, Note_on_c, 0, 60, 61
1, 81614, Control_c, 0, 64, 0
1, 81660, Note_on_c, 0, 60, 0
1, 81660, Note_on_c, 0, 65, 0
1, 81720, Tempo, 604900
1, 81720, Note_on_c, 0, 60, 69
1, 81720, Note_on_c, 0, 65, 69
1, 81720, Note_on_c, 0, 29, 55
1, 81720, Note_on_c, 0, 41, 55
1, 81780, Control_c, 0, 64, 127
1, 81840, Note_on_c, 0, 65, 0
1, 81840, Note_on_c, 0, 60, 0
1, 81840, Note_on_c, 0, 63, 64
1, 81840, Note_on_c, 0, 53, 64
1, 81960, Tempo, 654379
1, 81960, Note_on_c, 0, 53, 0
1, 81960, Note_on_c, 0, 41, 0
1, 81960, Note_on_c, 0, 29, 0
1, 81960, Note_on_c, 0, 63, 0
1, 81960, Note_on_c, 0, 65, 66
1, 81960, Note_on_c, 0, 60, 66
1, 81974, Control_c, 0, 64, 0
1, 82020, Note_on_c, 0, 60, 0
1, 82020, Note_on_c, 0, 65, 0
1, 82080, Tempo, 595888
1, 82080, Note_on_c, 0, 58, 73
1, 82080, Note_on_c, 0, 65, 73
1, 82080, Note_on_c, 0, 34, 73
1, 82080, Note_on_c, 0, 46, 73
1, 82144, Control_c, 0, 64, 127
1, 82200, Note_on_c, 0, 65, 0
1, 82200, Note_on_c, 0, 58, 0
1, 82200, Note_on_c, 0, 62, 66
1, 82200, Note_on_c, 0, 53, 66
1, 82320, Tempo, 640410
1, 82320, Note_on_c, 0, 53, 0
1, 82320, Note_on_c, 0, 46, 0
1, 82320, Note_on_c, 0, 34, 0
1, 82320, Note_on_c, 0, 62, 0
1, 82320, Note_on_c, 0, 65, 67
1, 82320, Note_on_c, 0, 58, 67
1, 82334, Control_c, 0, 64, 0
1, 82380, Note_on_c, 0, 58, 0
1, 82380, Note_on_c, 0, 65, 0
1, 82440, Tempo, 601866
1, 82440, Note_on_c, 0, 58, 76
1, 82440, Note_on_c, 0, 65, 76
1, 82440, Note_on_c, 0, 38, 61
1, 82440, Note_on_c, 0, 50, 61
1, 82500, Control_c, 0, 64, 127
1, 82560, Note_on_c, 0, 65, 0
1, 82560, Note_on_c, 0, 58, 0
1, 82560, Note_on_c, 0, 62, 71
1, 82560, Note_on_c, 0, 53, 71
1, 82680, Tempo, 680349
1, 82680, Note_on_c, 0, 53, 0
1, 82680, Note_on_c, 0, 50, 0
1, 82680, Note_on_c, 0, 38, 0
1, 82680, Note_on_c, 0, 62, 0
1, 82680, Note_on_c, 0, 65, 71
1, 82680, Note_on_c, 0, 58, 71
1, 82694, Control_c, 0, 64, 0
1, 82740, Note_on_c, 0, 58, 0
1, 82740, Note_on_c, 0, 65, 0
1, 82800, Tempo, 620540
1, 82800, Note_on_c, 0, 65, 88
1, 82800, Note_on_c, 0, 60, 74
1, 82800, Note_on_c, 0, 45, 70
1, 82832, Control_c, 0, 64, 127
1, 82920, Note_on_c, 0, 45, 0
1, 82920, Note_on_c, 0, 51, 60
1, 82920, Note_on_c, 0, 53, 60
1, 82980, Note_on_c, 0, 53, 0
1, 82980, Note_on_c, 0, 51, 0
1, 83040, Note_on_c, 0, 53, 59
1, 83040, Note_on_c, 0, 51, 59
1, 83100, Note_on_c, 0, 51, 0
1, 83100, Note_on_c, 0, 53, 0
1, 83160, Note_on_c, 0, 60, 0
1, 83160, Note_on_c, 0, 65, 0
1, 83160, Note_on_c, 0, 70, 91
1, 83160, Note_on_c, 0, 58, 77
1, 83160, Note_on_c, 0, 50, 75
1, 83163, Control_c, 0, 64, 0
1, 83225, Control_c, 0, 64, 127
1, 83280, Note_on_c, 0, 50, 0
1, 83280, Note_on_c, 0, 53, 63
1, 83280, Note_on_c, 0, 51, 63
1, 83340, Note_on_c, 0, 51, 0
1, 83340, Note_on_c, 0, 53, 0
1, 83400, Tempo, 657967
1, 83400, Note_on_c, 0, 53, 67
1, 83400, Note_on_c, 0, 51, 67
1, 83460, Note_on_c, 0, 51, 0
1, 83460, Note_on_c, 0, 53, 0
1, 83520, Tempo, 617347
1, 83520, Note_on_c, 0, 58, 0
1, 83520, Note_on_c, 0, 70, 0
1, 83520, Note_on_c, 0, 69, 94
1, 83520, Note_on_c, 0, 57, 79
1, 83520, Note_on_c, 0, 48, 75
1, 83543, Control_c, 0, 64, 0
1, 83594, Control_c, 0, 64, 127
1, 83640, Note_on_c, 0, 48, 0
1, 83640, Note_on_c, 0, 51, 64
1, 83640, Note_on_c, 0, 53, 64
1, 83700, Note_on_c, 0, 53, 0
1, 83700, Note_on_c, 0, 51, 0
1, 83760, Note_on_c, 0, 53, 64
1, 83760, Note_on_c, 0, 51, 64
1, 83820, Note_on_c, 0, 51, 0
1, 83820, Note_on_c, 0, 53, 0
1, 83880, Note_on_c, 0, 57, 0
1, 83880, Note_on_c, 0, 69, 0
1, 83880, Note_on_c, 0, 74, 97
1, 83880, Note_on_c, 0, 62, 82
1, 83880, Note_on_c, 0, 50, 81
1, 83883, Control_c, 0, 64, 0
1, 83949, Control_c, 0, 64, 127
1, 84000, Note_on_c, 0, 50, 0
1, 84000, Note_on_c, 0, 53, 68
1, 84000, Note_on_c, 0, 51, 68
1, 84060, Note_on_c, 0, 51, 0
1, 84060, Note_on_c, 0, 53, 0
1, 84120, Tempo, 661594
1, 84120, Note_on_c, 0, 53, 72
1, 84120, Note_on_c, 0, 51, 72
1, 84180, Note_on_c, 0, 51, 0
1, 84180, Note_on_c, 0, 53, 0
1, 84240, Tempo, 617347
1, 84240, Note_on_c, 0, 62, 0
1, 84240, Note_on_c, 0, 74, 0
1, 84240, Note_on_c, 0, 72, 100
1, 84240, Note_on_c, 0, 60, 85
1, 84240, Note_on_c, 0, 45, 81
1, 84263, Control_c, 0, 64, 0
1, 84314, Control_c, 0, 64, 127
1, 84360, Note_on_c, 0, 45, 0
1, 84360, Note_on_c, 0, 51, 69
1, 84360, Note_on_c, 0, 53, 69
1, 84420, Note_on_c, 0, 53, 0
1, 84420, Note_on_c, 0, 51, 0
1, 84480, Note_on_c, 0, 53, 69
1, 84480, Note_on_c, 0, 51, 69
1, 84540, Note_on_c, 0, 51, 0
1, 84540, Note_on_c, 0, 53, 0
1, 84600, Note_on_c, 0, 60, 0
1, 84600, Note_on_c, 0, 72, 0
1, 84600, Note_on_c, 0, 75, 103
1, 84600, Note_on_c, 0, 63, 87
1, 84600, Note_on_c, 0, 43, 86
1, 84603, Control_c, 0, 64, 0
1, 84669, Control_c, 0, 64, 127
1, 84720, Note_on_c, 0, 43, 0
1, 84720, Note_on_c, 0, 55, 72
1, 84720, Note_on_c, 0, 51, 72
1, 84780, Note_on_c, 0, 51, 0
1, 84780, Note_on_c, 0, 55, 0
1, 84840, Tempo, 730016
1, 84840, Note_on_c, 0, 55, 74
1, 84840, Note_on_c, 0, 51, 74
1, 84900, Note_on_c, 0, 51, 0
1, 84900, Note_on_c, 0, 55, 0
1, 84960, Tempo, 623765
1, 84960, Note_on_c, 0, 41, 79
1, 84960, Control_c, 0, 64, 0
1, 85080, Tempo, 607964
1, 85080, Note_on_c, 0, 41, 0
1, 85080, Note_on_c, 0, 63, 0
1, 85080, Note_on_c, 0, 75, 0
1, 85080, Note_on_c, 0, 74, 86
1, 85080, Note_on_c, 0, 63, 73
1, 85080, Note_on_c, 0, 57, 78
1, 85080, Note_on_c, 0, 51, 66
1, 85080, Note_on_c, 0, 48, 66
1, 85170, Note_on_c, 0, 48, 0
1, 85170, Note_on_c, 0, 57, 0
1, 85170, Note_on_c, 0, 74, 0
1, 85170, Note_on_c, 0, 63, 0
1, 85170, Note_on_c, 0, 51, 0
1, 85200, Note_on_c, 0, 72, 86
1, 85200, Note_on_c, 0, 63, 73
1, 85200, Note_on_c, 0, 57, 78
1, 85200, Note_on_c, 0, 51, 66
1, 85200, Note_on_c, 0, 48, 66
1, 85290, Note_on_c, 0, 48, 0
1, 85290, Note_on_c, 0, 57, 0
1, 85290, Note_on_c, 0, 72, 0
1, 85290, Note_on_c, 0, 63, 0
1, 85290, Note_on_c, 0, 51, 0
1, 85320, Note_on_c, 0, 63, 79
1, 85320, Note_on_c, 0, 72, 93
1, 85320, Note_on_c, 0, 48, 73
1, 85320, Note_on_c, 0, 51, 73
1, 85320, Note_on_c, 0, 57, 86
1, 85410, Note_on_c, 0, 57, 0
1, 85410, Note_on_c, 0, 48, 0
1, 85410, Note_on_c, 0, 63, 0
1, 85410, Note_on_c, 0, 72, 0
1, 85410, Note_on_c, 0, 51, 0
1, 85440, Note_on_c, 0, 70, 88
1, 85440, Note_on_c, 0, 63, 74
1, 85440, Note_on_c, 0, 57, 79
1, 85440, Note_on_c, 0, 51, 67
1, 85440, Note_on_c, 0, 48, 67
1, 85530, Note_on_c, 0, 48, 0
1, 85530, Note_on_c, 0, 57, 0
1, 85530, Note_on_c, 0, 70, 0
1, 85530, Note_on_c, 0, 63, 0
1, 85530, Note_on_c, 0, 51, 0
1, 85560, Tempo, 643846
1, 85560, Note_on_c, 0, 69, 88
1, 85560, Note_on_c, 0, 63, 74
1, 85560, Note_on_c, 0, 57, 79
1, 85560, Note_on_c, 0, 51, 67
1, 85560, Note_on_c, 0, 48, 67
1, 85650, Note_on_c, 0, 48, 0
1, 85650, Note_on_c, 0, 57, 0
1, 85650, Note_on_c, 0, 69, 0
1, 85650, Note_on_c, 0, 63, 0
1, 85650, Note_on_c, 0, 51, 0
1, 85680, Tempo, 607964
1, 85680, Note_on_c, 0, 63, 79
1, 85680, Note_on_c, 0, 69, 93
1, 85680, Note_on_c, 0, 48, 73
1, 85680, Note_on_c, 0, 51, 73
1, 85680, Note_on_c, 0, 57, 86
1, 85770, Note_on_c, 0, 57, 0
1, 85770, Note_on_c, 0, 48, 0
1, 85770, Note_on_c, 0, 63, 0
1, 85770, Note_on_c, 0, 69, 0
1, 85770, Note_on_c, 0, 51, 0
1, 85800, Note_on_c, 0, 67, 86
1, 85800, Note_on_c, 0, 63, 73
1, 85800, Note_on_c, 0, 57, 80
1, 85800, Note_on_c, 0, 51, 68
1, 85800, Note_on_c, 0, 48, 68
1, 85890, Note_on_c, 0, 48, 0
1, 85890, Note_on_c, 0, 57, 0
1, 85890, Note_on_c, 0, 67, 0
1, 85890, Note_on_c, 0, 63, 0
1, 85890, Note_on_c, 0, 51, 0
1, 85920, Note_on_c, 0, 65, 86
1, 85920, Note_on_c, 0, 63, 73
1, 85920, Note_on_c, 0, 57, 80
1, 85920, Note_on_c, 0, 51, 68
1, 85920, Note_on_c, 0, 48, 68
1, 86010, Note_on_c, 0, 48, 0
1, 86010, Note_on_c, 0, 57, 0
1, 86010, Note_on_c, 0, 65, 0
1, 86010, Note_on_c, 0, 63, 0
1, 86010, Note_on_c, 0, 51, 0
1, 86040, Note_on_c, 0, 60, 79
1, 86040, Note_on_c, 0, 65, 93
1, 86040, Note_on_c, 0, 48, 73
1, 86040, Note_on_c, 0, 51, 73
1, 86040, Note_on_c, 0, 57, 86
1, 86130, Note_on_c, 0, 57, 0
1, 86130, Note_on_c, 0, 48, 0
1, 86130, Note_on_c, 0, 60, 0
1, 86130, Note_on_c, 0, 65, 0
1, 86130, Note_on_c, 0, 51, 0
1, 86160, Note_on_c, 0, 64, 86
1, 86160, Note_on_c, 0, 60, 73
1, 86160, Note_on_c, 0, 57, 81
1, 86160, Note_on_c, 0, 51, 68
1, 86160, Note_on_c, 0, 48, 68
1, 86250, Note_on_c, 0, 48, 0
1, 86250, Note_on_c, 0, 57, 0
1, 86250, Note_on_c, 0, 64, 0
1, 86250, Note_on_c, 0, 60, 0
1, 86250, Note_on_c, 0, 51, 0
1, 86280, Tempo, 643846
1, 86280, Note_on_c, 0, 63, 86
1, 86280, Note_on_c, 0, 60, 73
1, 86280, Note_on_c, 0, 57, 81
1, 86280, Note_on_c, 0, 51, 68
1, 86280, Note_on_c, 0, 48, 68
1, 86370, Note_on_c, 0, 48, 0
1, 86370, Note_on_c, 0, 57, 0
1, 86370, Note_on_c, 0, 63, 0
1, 86370, Note_on_c, 0, 60, 0
1, 86370, Note_on_c, 0, 51, 0
1, 86400, Tempo, 607964
1, 86400, Note_on_c, 0, 57, 79
1, 86400, Note_on_c, 0, 63, 93
1, 86400, Note_on_c, 0, 41, 73
1, 86400, Note_on_c, 0, 51, 86
1, 86490, Note_on_c, 0, 51, 0
1, 86490, Note_on_c, 0, 57, 0
1, 86490, Note_on_c, 0, 63, 0
1, 86490, Note_on_c, 0, 41, 0
1, 86520, Note_on_c, 0, 62, 88
1, 86520, Note_on_c, 0, 57, 74
1, 86520, Note_on_c, 0, 51, 81
1, 86520, Note_on_c, 0, 41, 68
1, 86610, Note_on_c, 0, 41, 0
1, 86610, Note_on_c, 0, 62, 0
1, 86610, Note_on_c, 0, 57, 0
1, 86610, Note_on_c, 0, 51, 0
1, 86640, Note_on_c, 0, 60, 86
1, 86640, Note_on_c, 0, 57, 73
1, 86640, Note_on_c, 0, 51, 82
1, 86640, Note_on_c, 0, 41, 69
1, 86730, Note_on_c, 0, 41, 0
1, 86730, Note_on_c, 0, 60, 0
1, 86730, Note_on_c, 0, 57, 0
1, 86730, Note_on_c, 0, 51, 0
1, 86760, Tempo, 601866
1, 86760, Note_on_c, 0, 57, 79
1, 86760, Note_on_c, 0, 60, 93
1, 86760, Note_on_c, 0, 41, 73
1, 86760, Note_on_c, 0, 51, 86
1, 86850, Note_on_c, 0, 51, 0
1, 86850, Note_on_c, 0, 57, 0
1, 86850, Note_on_c, 0, 60, 0
1, 86850, Note_on_c, 0, 41, 0
1, 86880, Note_on_c, 0, 58, 85
1, 86880, Note_on_c, 0, 51, 81
1, 86880, Note_on_c, 0, 41, 68
1, 86970, Note_on_c, 0, 41, 0
1, 86970, Note_on_c, 0, 51, 0
1, 86970, Note_on_c, 0, 58, 0
1, 87000, Tempo, 704308
1, 87000, Note_on_c, 0, 57, 85
1, 87000, Note_on_c, 0, 51, 81
1, 87000, Note_on_c, 0, 41, 68
1, 87090, Note_on_c, 0, 41, 0
1, 87090, Note_on_c, 0, 51, 0
1, 87090, Note_on_c, 0, 57, 0
1, 87120, Tempo, 584283
1, 87120, Note_on_c, 0, 58, 93
1, 87120, Note_on_c, 0, 46, 73
1, 87120, Note_on_c, 0, 50, 86
1, 87300, Note_on_c, 0, 50, 0
1, 87300, Note_on_c, 0, 46, 0
1, 87300, Note_on_c, 0, 58, 0
1, 87480, Note_on_c, 0, 53, 79
1, 87480, Note_on_c, 0, 58, 79
1, 87480, Note_on_c, 0, 62, 93
1, 87480, Note_on_c, 0, 46, 73
1, 87480, Note_on_c, 0, 50, 86
1, 87660, Note_on_c, 0, 50, 0
1, 87660, Note_on_c, 0, 62, 0
1, 87660, Note_on_c, 0, 53, 0
1, 87660, Note_on_c, 0, 58, 0
1, 87660, Note_on_c, 0, 46, 0
1, 87840, Note_on_c, 0, 58, 79
1, 87840, Note_on_c, 0, 62, 79
1, 87840, Note_on_c, 0, 65, 93
1, 87840, Note_on_c, 0, 46, 73
1, 87840, Note_on_c, 0, 50, 86
1, 88020, Note_on_c, 0, 50, 0
1, 88020, Note_on_c, 0, 65, 0
1, 88020, Note_on_c, 0, 58, 0
1, 88020, Note_on_c, 0, 62, 0
1, 88020, Note_on_c, 0, 46, 0
1, 88200, Note_on_c, 0, 62, 79
1, 88200, Note_on_c, 0, 65, 79
1, 88200, Note_on_c, 0, 70, 93
1, 88200, Note_on_c, 0, 46, 73
1, 88200, Note_on_c, 0, 53, 73
1, 88200, Note_on_c, 0, 58, 86
1, 88380, Note_on_c, 0, 58, 0
1, 88380, Note_on_c, 0, 65, 0
1, 88380, Note_on_c, 0, 70, 0
1, 88380, Note_on_c, 0, 62, 0
1, 88380, Note_on_c, 0, 53, 0
1, 88380, Note_on_c, 0, 46, 0
1, 88560, Tempo, 573121
1, 88560, Note_on_c, 0, 62, 79
1, 88560, Note_on_c, 0, 65, 79
1, 88560, Note_on_c, 0, 70, 79
1, 88560, Note_on_c, 0, 74, 93
1, 88560, Note_on_c, 0, 46, 73
1, 88560, Note_on_c, 0, 53, 73
1, 88560, Note_on_c, 0, 58, 86
1, 88600, Control_c, 0, 64, 127
1, 88800, Note_on_c, 0, 58, 0
1, 88800, Note_on_c, 0, 46, 0
1, 88800, Note_on_c, 0, 65, 0
1, 88800, Note_on_c, 0, 70, 0
1, 88800, Note_on_c, 0, 62, 0
1, 88800, Note_on_c, 0, 53, 0
1, 88800, Note_on_c, 0, 74, 0
1, 89280, Tempo, 627025
1, 89280, Note_on_c, 0, 65, 79
1, 89280, Note_on_c, 0, 70, 79
1, 89280, Note_on_c, 0, 77, 93
1, 89280, Note_on_c, 0, 53, 73
1, 89280, Note_on_c, 0, 58, 73
1, 89280, Note_on_c, 0, 62, 86
1, 89520, Note_on_c, 0, 62, 0
1, 89520, Note_on_c, 0, 70, 0
1, 89520, Note_on_c, 0, 77, 0
1, 89520, Note_on_c, 0, 65, 0
1, 89520, Note_on_c, 0, 58, 0
1, 89520, Note_on_c, 0, 53, 0
1, 90000, Note_on_c, 0, 74, 99
1, 90000, Note_on_c, 0, 82, 116
1, 90000, Note_on_c, 0, 34, 107
1, 90240, Note_on_c, 0, 34, 0
1, 90240, Note_on_c, 0, 82, 0
1, 90240, Note_on_c, 0, 74, 0
1, 90434, Control_c, 0, 64, 0
1, 90434, End_track
0, 0, End_of_file
