0, 0, Header, 0, 1, 480
1, 0, Start_track
1, 0, Title_t, "Bilder einer Ausstellung"
1, 0, Title_t, "Samuel Goldenberg und Schmuyle"
1, 0, Copyright_t, "Copyright © 2000 by Bernd Krueger"
1, 0, Text_t, "Modest Mussorgski"
1, 0, Text_t, "Fertiggestellt am 5.2.2000\012"
1, 0, Text_t, "Update am 13.2.2000\012"
1, 0, Text_t, "Update am 1.7.2000\012"
1, 0, Text_t, "Normierung: 23.12.2002\012"
1, 0, Text_t, "Update am 25.8.2008\012"
1, 0, Text_t, "Update am 3.12.2013\012"
1, 0, Text_t, "Dauer: 2:04 Minuten\012"
1, 0, SMPTE_offset, 96, 0, 3, 0, 0
1, 0, Time_signature, 8, 2, 24, 8
1, 0, Key_signature, -5, "major"
1, 0, Tempo, 373832
1, 0, Marker_t, "Teil 1 - Andante"
1, 0, Program_c, 0, 0
1, 0, Control_c, 0, 7, 100
1, 0, Control_c, 0, 10, 64
1, 0, Control_c, 0, 91, 127
1, 0, Text_t, "bdca426d104a26ac9dcb070447587523"
1, 0, Program_c, 0, 0
1, 0, Control_c, 0, 7, 100
1, 0, Control_c, 0, 10, 64
1, 0, Control_c, 0, 64, 0
1, 3360, Tempo, 710059
1, 3680, Tempo, 991736
1, 3780, Note_on_c, 0, 58, 80
1, 3780, Note_on_c, 0, 46, 70
1, 3840, Tempo, 710059
1, 3840, Note_on_c, 0, 46, 0
1, 3840, Note_on_c, 0, 58, 0
1, 3840, Note_on_c, 0, 65, 88
1, 3840, Note_on_c, 0, 53, 77
1, 4320, Note_on_c, 0, 53, 0
1, 4320, Note_on_c, 0, 65, 0
1, 4654, Control_c, 0, 64, 127
1, 4680, Note_on_c, 0, 64, 80
1, 4680, Note_on_c, 0, 52, 70
1, 4740, Note_on_c, 0, 52, 0
1, 4740, Note_on_c, 0, 64, 0
1, 4740, Note_on_c, 0, 65, 80
1, 4740, Note_on_c, 0, 53, 70
1, 4800, Tempo, 693642
1, 4800, Note_on_c, 0, 53, 0
1, 4800, Note_on_c, 0, 65, 0
1, 4800, Note_on_c, 0, 64, 92
1, 4800, Note_on_c, 0, 52, 80
1, 4823, Control_c, 0, 64, 0
1, 5080, Control_c, 0, 64, 127
1, 6229, Control_c, 0, 64, 0
1, 6240, Note_on_c, 0, 52, 0
1, 6240, Note_on_c, 0, 64, 0
1, 6720, Tempo, 727273
1, 6720, Note_on_c, 0, 57, 80
1, 6720, Note_on_c, 0, 45, 70
1, 6737, Control_c, 0, 64, 127
1, 6880, Note_on_c, 0, 45, 0
1, 6880, Note_on_c, 0, 57, 0
1, 6880, Note_on_c, 0, 58, 80
1, 6880, Note_on_c, 0, 46, 70
1, 6893, Control_c, 0, 64, 0
1, 6923, Control_c, 0, 64, 127
1, 7040, Note_on_c, 0, 46, 0
1, 7040, Note_on_c, 0, 58, 0
1, 7040, Note_on_c, 0, 60, 80
1, 7040, Note_on_c, 0, 48, 70
1, 7046, Control_c, 0, 64, 0
1, 7109, Control_c, 0, 64, 127
1, 7200, Tempo, 745342
1, 7200, Note_on_c, 0, 48, 0
1, 7200, Note_on_c, 0, 60, 0
1, 7200, Note_on_c, 0, 61, 86
1, 7200, Note_on_c, 0, 49, 75
1, 7209, Control_c, 0, 64, 0
1, 7271, Control_c, 0, 64, 127
1, 7440, Tempo, 754717
1, 7520, Tempo, 991736
1, 7597, Control_c, 0, 64, 0
1, 7620, Note_on_c, 0, 49, 0
1, 7620, Note_on_c, 0, 61, 0
1, 7620, Note_on_c, 0, 58, 80
1, 7620, Note_on_c, 0, 46, 70
1, 7680, Tempo, 670391
1, 7680, Note_on_c, 0, 46, 0
1, 7680, Note_on_c, 0, 58, 0
1, 7680, Note_on_c, 0, 65, 86
1, 7680, Note_on_c, 0, 53, 75
1, 8160, Note_on_c, 0, 53, 0
1, 8160, Note_on_c, 0, 65, 0
1, 8400, Tempo, 1200000
1, 8520, Note_on_c, 0, 64, 80
1, 8520, Note_on_c, 0, 52, 70
1, 8523, Control_c, 0, 64, 127
1, 8560, Note_on_c, 0, 52, 0
1, 8560, Note_on_c, 0, 64, 0
1, 8560, Note_on_c, 0, 65, 80
1, 8560, Note_on_c, 0, 53, 70
1, 8600, Note_on_c, 0, 53, 0
1, 8600, Note_on_c, 0, 65, 0
1, 8600, Note_on_c, 0, 64, 80
1, 8600, Note_on_c, 0, 52, 70
1, 8640, Tempo, 615385
1, 8640, Note_on_c, 0, 52, 0
1, 8640, Note_on_c, 0, 64, 0
1, 8640, Note_on_c, 0, 61, 90
1, 8640, Note_on_c, 0, 49, 79
1, 8646, Control_c, 0, 64, 0
1, 8737, Control_c, 0, 64, 127
1, 10080, Note_on_c, 0, 49, 0
1, 10080, Note_on_c, 0, 61, 0
1, 10085, Control_c, 0, 64, 0
1, 10560, Note_on_c, 0, 57, 82
1, 10560, Note_on_c, 0, 45, 72
1, 10573, Control_c, 0, 64, 127
1, 10800, Note_on_c, 0, 45, 0
1, 10800, Note_on_c, 0, 57, 0
1, 10800, Note_on_c, 0, 58, 80
1, 10800, Note_on_c, 0, 46, 70
1, 10806, Control_c, 0, 64, 0
1, 10886, Control_c, 0, 64, 127
1, 11040, Note_on_c, 0, 46, 0
1, 11040, Note_on_c, 0, 58, 0
1, 11040, Note_on_c, 0, 60, 80
1, 11040, Note_on_c, 0, 48, 70
1, 11053, Control_c, 0, 64, 0
1, 11102, Control_c, 0, 64, 127
1, 11280, Note_on_c, 0, 48, 0
1, 11280, Note_on_c, 0, 60, 0
1, 11280, Note_on_c, 0, 61, 80
1, 11280, Note_on_c, 0, 49, 70
1, 11296, Control_c, 0, 64, 0
1, 11330, Control_c, 0, 64, 127
1, 11505, Control_c, 0, 64, 0
1, 11520, Tempo, 597015
1, 11520, Note_on_c, 0, 49, 0
1, 11520, Note_on_c, 0, 61, 0
1, 11520, Note_on_c, 0, 63, 80
1, 11520, Note_on_c, 0, 51, 70
1, 11657, Control_c, 0, 64, 127
1, 12240, Note_on_c, 0, 51, 0
1, 12240, Note_on_c, 0, 63, 0
1, 12240, Note_on_c, 0, 65, 83
1, 12240, Note_on_c, 0, 53, 73
1, 12480, Tempo, 628272
1, 12480, Note_on_c, 0, 53, 0
1, 12480, Note_on_c, 0, 65, 0
1, 12480, Note_on_c, 0, 66, 87
1, 12480, Note_on_c, 0, 54, 76
1, 12480, Control_c, 0, 64, 0
1, 12720, Note_on_c, 0, 54, 0
1, 12720, Note_on_c, 0, 66, 0
1, 12960, Note_on_c, 0, 69, 88
1, 12960, Note_on_c, 0, 57, 77
1, 13200, Note_on_c, 0, 57, 0
1, 13200, Note_on_c, 0, 69, 0
1, 13440, Tempo, 606061
1, 13440, Note_on_c, 0, 70, 93
1, 13440, Note_on_c, 0, 58, 81
1, 13543, Control_c, 0, 64, 127
1, 14400, Note_on_c, 0, 58, 0
1, 14400, Note_on_c, 0, 70, 0
1, 14400, Note_on_c, 0, 68, 88
1, 14400, Note_on_c, 0, 56, 77
1, 14405, Control_c, 0, 64, 0
1, 14549, Control_c, 0, 64, 127
1, 14880, Note_on_c, 0, 56, 0
1, 14880, Note_on_c, 0, 68, 0
1, 14880, Note_on_c, 0, 66, 85
1, 14880, Note_on_c, 0, 54, 74
1, 14891, Control_c, 0, 64, 0
1, 14971, Control_c, 0, 64, 127
1, 15360, Tempo, 591133
1, 15360, Note_on_c, 0, 54, 0
1, 15360, Note_on_c, 0, 66, 0
1, 15360, Note_on_c, 0, 69, 88
1, 15360, Note_on_c, 0, 57, 77
1, 15364, Control_c, 0, 64, 0
1, 15445, Control_c, 0, 64, 127
1, 15680, Note_on_c, 0, 57, 0
1, 15680, Note_on_c, 0, 69, 0
1, 15680, Note_on_c, 0, 66, 85
1, 15680, Note_on_c, 0, 54, 74
1, 15698, Control_c, 0, 64, 0
1, 15748, Control_c, 0, 64, 127
1, 16000, Note_on_c, 0, 54, 0
1, 16000, Note_on_c, 0, 66, 0
1, 16000, Note_on_c, 0, 65, 80
1, 16000, Note_on_c, 0, 53, 70
1, 16015, Control_c, 0, 64, 0
1, 16080, Control_c, 0, 64, 127
1, 16300, Note_on_c, 0, 53, 0
1, 16300, Note_on_c, 0, 65, 0
1, 16320, Note_on_c, 0, 65, 87
1, 16320, Note_on_c, 0, 53, 76
1, 16331, Control_c, 0, 64, 0
1, 16468, Control_c, 0, 64, 127
1, 16800, Tempo, 603015
1, 17160, Tempo, 555556
1, 17160, Note_on_c, 0, 53, 0
1, 17160, Note_on_c, 0, 65, 0
1, 17160, Note_on_c, 0, 69, 80
1, 17160, Note_on_c, 0, 57, 70
1, 17280, Tempo, 603015
1, 17280, Note_on_c, 0, 57, 0
1, 17280, Note_on_c, 0, 69, 0
1, 17280, Note_on_c, 0, 65, 86
1, 17280, Note_on_c, 0, 53, 75
1, 17624, Control_c, 0, 64, 0
1, 17760, Note_on_c, 0, 53, 0
1, 17760, Note_on_c, 0, 65, 0
1, 18240, Tempo, 600000
1, 18240, Note_on_c, 0, 57, 82
1, 18240, Note_on_c, 0, 45, 72
1, 18311, Control_c, 0, 64, 127
1, 18480, Note_on_c, 0, 45, 0
1, 18480, Note_on_c, 0, 57, 0
1, 18480, Note_on_c, 0, 58, 80
1, 18480, Note_on_c, 0, 46, 70
1, 18487, Control_c, 0, 64, 0
1, 18565, Control_c, 0, 64, 127
1, 18720, Note_on_c, 0, 46, 0
1, 18720, Note_on_c, 0, 58, 0
1, 18720, Note_on_c, 0, 60, 80
1, 18720, Note_on_c, 0, 48, 70
1, 18730, Control_c, 0, 64, 0
1, 18812, Control_c, 0, 64, 127
1, 18960, Note_on_c, 0, 48, 0
1, 18960, Note_on_c, 0, 60, 0
1, 18960, Note_on_c, 0, 61, 80
1, 18960, Note_on_c, 0, 49, 70
1, 18966, Control_c, 0, 64, 0
1, 19059, Control_c, 0, 64, 127
1, 19200, Tempo, 597015
1, 19200, Note_on_c, 0, 49, 0
1, 19200, Note_on_c, 0, 61, 0
1, 19200, Note_on_c, 0, 63, 80
1, 19200, Note_on_c, 0, 51, 70
1, 19200, Control_c, 0, 64, 0
1, 19383, Control_c, 0, 64, 127
1, 19920, Note_on_c, 0, 51, 0
1, 19920, Note_on_c, 0, 63, 0
1, 19920, Note_on_c, 0, 65, 83
1, 19920, Note_on_c, 0, 53, 73
1, 20160, Tempo, 628272
1, 20160, Note_on_c, 0, 53, 0
1, 20160, Note_on_c, 0, 65, 0
1, 20160, Note_on_c, 0, 66, 87
1, 20160, Note_on_c, 0, 54, 76
1, 20163, Control_c, 0, 64, 0
1, 20400, Note_on_c, 0, 54, 0
1, 20400, Note_on_c, 0, 66, 0
1, 20640, Note_on_c, 0, 69, 88
1, 20640, Note_on_c, 0, 57, 77
1, 20880, Note_on_c, 0, 57, 0
1, 20880, Note_on_c, 0, 69, 0
1, 21120, Tempo, 606061
1, 21120, Note_on_c, 0, 70, 93
1, 21120, Note_on_c, 0, 58, 81
1, 21257, Control_c, 0, 64, 127
1, 22080, Note_on_c, 0, 58, 0
1, 22080, Note_on_c, 0, 70, 0
1, 22080, Note_on_c, 0, 69, 88
1, 22080, Note_on_c, 0, 57, 77
1, 22088, Control_c, 0, 64, 0
1, 22229, Control_c, 0, 64, 127
1, 22560, Note_on_c, 0, 57, 0
1, 22560, Note_on_c, 0, 69, 0
1, 22560, Note_on_c, 0, 66, 85
1, 22560, Note_on_c, 0, 54, 74
1, 22569, Control_c, 0, 64, 0
1, 22720, Control_c, 0, 64, 127
1, 23040, Tempo, 591133
1, 23040, Note_on_c, 0, 54, 0
1, 23040, Note_on_c, 0, 66, 0
1, 23040, Note_on_c, 0, 68, 88
1, 23040, Note_on_c, 0, 56, 77
1, 23040, Control_c, 0, 64, 0
1, 23097, Control_c, 0, 64, 127
1, 23360, Note_on_c, 0, 56, 0
1, 23360, Note_on_c, 0, 68, 0
1, 23360, Note_on_c, 0, 66, 85
1, 23360, Note_on_c, 0, 54, 74
1, 23374, Control_c, 0, 64, 0
1, 23407, Control_c, 0, 64, 127
1, 23680, Note_on_c, 0, 54, 0
1, 23680, Note_on_c, 0, 66, 0
1, 23680, Note_on_c, 0, 65, 80
1, 23680, Note_on_c, 0, 53, 70
1, 23695, Control_c, 0, 64, 0
1, 23767, Control_c, 0, 64, 127
1, 23980, Note_on_c, 0, 53, 0
1, 23980, Note_on_c, 0, 65, 0
1, 24000, Note_on_c, 0, 65, 87
1, 24000, Note_on_c, 0, 53, 76
1, 24012, Control_c, 0, 64, 0
1, 24099, Control_c, 0, 64, 127
1, 24480, Tempo, 502092
1, 26160, Note_on_c, 0, 53, 0
1, 26160, Note_on_c, 0, 65, 0
1, 26171, Control_c, 0, 64, 0
1, 26760, Tempo, 851064
1, 26820, Note_on_c, 0, 58, 80
1, 26820, Note_on_c, 0, 46, 70
1, 26880, Time_signature, 6, 2, 24, 8
1, 26880, Tempo, 670391
1, 26880, Note_on_c, 0, 46, 0
1, 26880, Note_on_c, 0, 58, 0
1, 26880, Note_on_c, 0, 65, 86
1, 26880, Note_on_c, 0, 53, 75
1, 27360, Note_on_c, 0, 53, 0
1, 27360, Note_on_c, 0, 65, 0
1, 27600, Tempo, 895522
1, 27720, Note_on_c, 0, 64, 80
1, 27720, Note_on_c, 0, 52, 70
1, 27733, Control_c, 0, 64, 127
1, 27760, Note_on_c, 0, 52, 0
1, 27760, Note_on_c, 0, 64, 0
1, 27760, Note_on_c, 0, 65, 80
1, 27760, Note_on_c, 0, 53, 70
1, 27800, Note_on_c, 0, 53, 0
1, 27800, Note_on_c, 0, 65, 0
1, 27800, Note_on_c, 0, 64, 80
1, 27800, Note_on_c, 0, 52, 70
1, 27840, Tempo, 670391
1, 27840, Note_on_c, 0, 52, 0
1, 27840, Note_on_c, 0, 64, 0
1, 27840, Note_on_c, 0, 61, 90
1, 27840, Note_on_c, 0, 49, 79
1, 27851, Control_c, 0, 64, 0
1, 27945, Control_c, 0, 64, 127
1, 28560, Tempo, 916031
1, 28680, Tempo, 1025641
1, 28680, Note_on_c, 0, 49, 0
1, 28680, Note_on_c, 0, 61, 0
1, 28680, Note_on_c, 0, 60, 80
1, 28680, Note_on_c, 0, 48, 70
1, 28688, Control_c, 0, 64, 0
1, 28720, Tempo, 1200000
1, 28720, Note_on_c, 0, 48, 0
1, 28720, Note_on_c, 0, 60, 0
1, 28720, Note_on_c, 0, 61, 78
1, 28720, Note_on_c, 0, 49, 68
1, 28729, Control_c, 0, 64, 127
1, 28760, Note_on_c, 0, 49, 0
1, 28760, Note_on_c, 0, 61, 0
1, 28760, Note_on_c, 0, 57, 78
1, 28760, Note_on_c, 0, 45, 68
1, 28764, Tempo, 1518987
1, 28800, Tempo, 670391
1, 28800, Note_on_c, 0, 45, 0
1, 28800, Note_on_c, 0, 57, 0
1, 28800, Note_on_c, 0, 61, 89
1, 28800, Note_on_c, 0, 49, 78
1, 28807, Control_c, 0, 64, 0
1, 28883, Control_c, 0, 64, 127
1, 29520, Tempo, 923077
1, 29576, Tempo, 1518987
1, 29580, Note_on_c, 0, 49, 0
1, 29580, Note_on_c, 0, 61, 0
1, 29580, Note_on_c, 0, 60, 75
1, 29580, Note_on_c, 0, 48, 66
1, 29592, Control_c, 0, 64, 0
1, 29610, Note_on_c, 0, 48, 0
1, 29610, Note_on_c, 0, 60, 0
1, 29610, Note_on_c, 0, 61, 75
1, 29610, Note_on_c, 0, 49, 66
1, 29618, Control_c, 0, 64, 127
1, 29640, Tempo, 1276596
1, 29640, Note_on_c, 0, 49, 0
1, 29640, Note_on_c, 0, 61, 0
1, 29640, Note_on_c, 0, 60, 75
1, 29640, Note_on_c, 0, 48, 66
1, 29680, Note_on_c, 0, 48, 0
1, 29680, Note_on_c, 0, 60, 0
1, 29680, Note_on_c, 0, 58, 75
1, 29680, Note_on_c, 0, 46, 66
1, 29720, Note_on_c, 0, 46, 0
1, 29720, Note_on_c, 0, 58, 0
1, 29720, Note_on_c, 0, 57, 75
1, 29720, Note_on_c, 0, 45, 66
1, 29724, Tempo, 1538462
1, 29760, Time_signature, 8, 2, 24, 8
1, 29760, Tempo, 662983
1, 29760, Note_on_c, 0, 45, 0
1, 29760, Note_on_c, 0, 57, 0
1, 29760, Note_on_c, 0, 61, 80
1, 29760, Note_on_c, 0, 49, 70
1, 29768, Control_c, 0, 64, 0
1, 29800, Tempo, 461538
1, 29980, Control_c, 0, 64, 127
1, 33310, Control_c, 0, 64, 0
1, 33360, Note_on_c, 0, 61, 0
1, 33498, Control_c, 0, 64, 127
1, 33540, Marker_t, "Teil 2"
1, 33540, Note_on_c, 0, 81, 52
1, 33594, Note_on_c, 0, 81, 0
1, 33600, Tempo, 405405
1, 33600, Note_on_c, 0, 69, 52
1, 33600, Note_on_c, 0, 66, 52
1, 33600, Note_on_c, 0, 81, 60
1, 33744, Note_on_c, 0, 81, 0
1, 33760, Note_on_c, 0, 81, 58
1, 33840, Tempo, 437956
1, 33904, Note_on_c, 0, 81, 0
1, 33920, Note_on_c, 0, 81, 58
1, 33960, Tempo, 454545
1, 34010, Note_on_c, 0, 81, 0
1, 34020, Tempo, 857143
1, 34020, Note_on_c, 0, 81, 50
1, 34050, Note_on_c, 0, 83, 51
1, 34070, Note_on_c, 0, 81, 0
1, 34080, Tempo, 433307
1, 34080, Note_on_c, 0, 81, 54
1, 34096, Control_c, 0, 64, 0
1, 34100, Note_on_c, 0, 83, 0
1, 34131, Control_c, 0, 64, 127
1, 34320, Tempo, 444444
1, 34471, Control_c, 0, 64, 0
1, 34500, Tempo, 476153
1, 34500, Note_on_c, 0, 81, 0
1, 34500, Note_on_c, 0, 81, 52
1, 34513, Control_c, 0, 64, 127
1, 34554, Note_on_c, 0, 81, 0
1, 34560, Tempo, 408163
1, 34560, Note_on_c, 0, 81, 60
1, 34704, Note_on_c, 0, 81, 0
1, 34720, Note_on_c, 0, 81, 57
1, 34800, Tempo, 441176
1, 34864, Note_on_c, 0, 81, 0
1, 34880, Note_on_c, 0, 81, 57
1, 34920, Tempo, 458015
1, 34970, Note_on_c, 0, 81, 0
1, 34980, Tempo, 851064
1, 34980, Note_on_c, 0, 81, 48
1, 35010, Note_on_c, 0, 83, 52
1, 35030, Note_on_c, 0, 81, 0
1, 35040, Tempo, 433307
1, 35040, Note_on_c, 0, 81, 56
1, 35054, Control_c, 0, 64, 0
1, 35060, Note_on_c, 0, 83, 0
1, 35095, Control_c, 0, 64, 127
1, 35280, Tempo, 442804
1, 35384, Control_c, 0, 64, 0
1, 35439, Control_c, 0, 64, 127
1, 35460, Tempo, 473522
1, 35460, Note_on_c, 0, 81, 0
1, 35460, Note_on_c, 0, 80, 49
1, 35514, Note_on_c, 0, 80, 0
1, 35520, Tempo, 410959
1, 35520, Note_on_c, 0, 66, 0
1, 35520, Note_on_c, 0, 69, 0
1, 35520, Note_on_c, 0, 64, 52
1, 35520, Note_on_c, 0, 68, 52
1, 35520, Note_on_c, 0, 80, 57
1, 35664, Note_on_c, 0, 80, 0
1, 35680, Note_on_c, 0, 80, 55
1, 35760, Tempo, 441176
1, 35824, Note_on_c, 0, 80, 0
1, 35840, Note_on_c, 0, 80, 55
1, 35880, Tempo, 458015
1, 35930, Note_on_c, 0, 80, 0
1, 35940, Tempo, 851064
1, 35940, Note_on_c, 0, 80, 49
1, 35970, Note_on_c, 0, 81, 52
1, 35990, Note_on_c, 0, 80, 0
1, 36000, Tempo, 433307
1, 36000, Note_on_c, 0, 49, 0
1, 36000, Note_on_c, 0, 80, 55
1, 36017, Control_c, 0, 64, 0
1, 36020, Note_on_c, 0, 81, 0
1, 36051, Control_c, 0, 64, 127
1, 36240, Tempo, 444444
1, 36358, Control_c, 0, 64, 0
1, 36403, Control_c, 0, 64, 127
1, 36420, Tempo, 458505
1, 36420, Note_on_c, 0, 80, 0
1, 36420, Note_on_c, 0, 78, 49
1, 36480, Tempo, 412371
1, 36480, Note_on_c, 0, 78, 0
1, 36480, Note_on_c, 0, 68, 0
1, 36480, Note_on_c, 0, 64, 0
1, 36480, Note_on_c, 0, 66, 49
1, 36480, Note_on_c, 0, 62, 49
1, 36480, Note_on_c, 0, 78, 57
1, 36640, Note_on_c, 0, 78, 0
1, 36640, Note_on_c, 0, 78, 54
1, 36720, Tempo, 442804
1, 36800, Note_on_c, 0, 78, 0
1, 36800, Note_on_c, 0, 78, 54
1, 36840, Tempo, 459770
1, 36900, Tempo, 750000
1, 36900, Note_on_c, 0, 78, 0
1, 36900, Note_on_c, 0, 78, 47
1, 36930, Note_on_c, 0, 79, 50
1, 36950, Note_on_c, 0, 78, 0
1, 36960, Tempo, 433307
1, 36960, Note_on_c, 0, 78, 56
1, 36980, Note_on_c, 0, 79, 0
1, 36984, Control_c, 0, 64, 0
1, 37017, Control_c, 0, 64, 127
1, 37200, Tempo, 439560
1, 37298, Control_c, 0, 64, 0
1, 37365, Control_c, 0, 64, 127
1, 37380, Tempo, 463356
1, 37380, Note_on_c, 0, 78, 0
1, 37380, Note_on_c, 0, 80, 49
1, 37434, Note_on_c, 0, 80, 0
1, 37440, Tempo, 409556
1, 37440, Note_on_c, 0, 62, 0
1, 37440, Note_on_c, 0, 66, 0
1, 37440, Note_on_c, 0, 80, 57
1, 37440, Note_on_c, 0, 64, 49
1, 37440, Note_on_c, 0, 68, 49
1, 37584, Note_on_c, 0, 80, 0
1, 37600, Note_on_c, 0, 80, 55
1, 37680, Tempo, 442804
1, 37744, Note_on_c, 0, 80, 0
1, 37760, Note_on_c, 0, 80, 55
1, 37800, Tempo, 459770
1, 37850, Note_on_c, 0, 80, 0
1, 37860, Tempo, 845070
1, 37860, Note_on_c, 0, 80, 49
1, 37890, Note_on_c, 0, 81, 49
1, 37910, Note_on_c, 0, 80, 0
1, 37920, Tempo, 433307
1, 37920, Note_on_c, 0, 80, 55
1, 37936, Control_c, 0, 64, 0
1, 37940, Note_on_c, 0, 81, 0
1, 37968, Control_c, 0, 64, 127
1, 38160, Tempo, 459770
1, 38286, Control_c, 0, 64, 0
1, 38340, Tempo, 476153
1, 38340, Note_on_c, 0, 80, 0
1, 38340, Note_on_c, 0, 73, 49
1, 38370, Control_c, 0, 64, 127
1, 38394, Note_on_c, 0, 73, 0
1, 38400, Tempo, 413793
1, 38400, Note_on_c, 0, 68, 0
1, 38400, Note_on_c, 0, 64, 0
1, 38400, Note_on_c, 0, 61, 49
1, 38400, Note_on_c, 0, 73, 54
1, 38400, Note_on_c, 0, 64, 49
1, 38544, Note_on_c, 0, 73, 0
1, 38560, Note_on_c, 0, 73, 51
1, 38640, Tempo, 454545
1, 38704, Note_on_c, 0, 73, 0
1, 38720, Note_on_c, 0, 73, 51
1, 38760, Tempo, 468750
1, 38810, Note_on_c, 0, 73, 0
1, 38820, Tempo, 666667
1, 38820, Note_on_c, 0, 73, 47
1, 38850, Note_on_c, 0, 74, 46
1, 38870, Note_on_c, 0, 73, 0
1, 38880, Tempo, 441176
1, 38880, Note_on_c, 0, 73, 53
1, 38893, Control_c, 0, 64, 0
1, 38900, Note_on_c, 0, 74, 0
1, 38924, Control_c, 0, 64, 127
1, 39120, Tempo, 449438
1, 39300, Tempo, 463356
1, 39300, Note_on_c, 0, 73, 0
1, 39300, Note_on_c, 0, 73, 47
1, 39313, Control_c, 0, 64, 0
1, 39354, Note_on_c, 0, 73, 0
1, 39360, Tempo, 410959
1, 39360, Note_on_c, 0, 73, 54
1, 39360, Note_on_c, 0, 49, 42
1, 39371, Control_c, 0, 64, 127
1, 39504, Note_on_c, 0, 73, 0
1, 39520, Note_on_c, 0, 73, 51
1, 39600, Tempo, 451128
1, 39664, Note_on_c, 0, 73, 0
1, 39680, Note_on_c, 0, 73, 51
1, 39720, Tempo, 468750
1, 39770, Note_on_c, 0, 73, 0
1, 39780, Tempo, 662983
1, 39780, Note_on_c, 0, 73, 47
1, 39810, Note_on_c, 0, 74, 47
1, 39830, Note_on_c, 0, 73, 0
1, 39840, Tempo, 441176
1, 39840, Note_on_c, 0, 73, 55
1, 39855, Control_c, 0, 64, 0
1, 39860, Note_on_c, 0, 74, 0
1, 39900, Control_c, 0, 64, 127
1, 40080, Tempo, 451128
1, 40204, Control_c, 0, 64, 0
1, 40260, Tempo, 482199
1, 40260, Note_on_c, 0, 73, 0
1, 40260, Note_on_c, 0, 73, 40
1, 40288, Control_c, 0, 64, 127
1, 40314, Note_on_c, 0, 73, 0
1, 40320, Tempo, 410959
1, 40320, Note_on_c, 0, 73, 47
1, 40464, Note_on_c, 0, 73, 0
1, 40480, Note_on_c, 0, 73, 47
1, 40560, Tempo, 452830
1, 40624, Note_on_c, 0, 73, 0
1, 40640, Note_on_c, 0, 73, 47
1, 40680, Tempo, 470588
1, 40730, Note_on_c, 0, 73, 0
1, 40740, Tempo, 666667
1, 40740, Note_on_c, 0, 73, 39
1, 40770, Note_on_c, 0, 74, 40
1, 40770, Note_on_c, 0, 74, 0
1, 40790, Note_on_c, 0, 73, 0
1, 40800, Tempo, 446628
1, 40800, Note_on_c, 0, 61, 0
1, 40800, Note_on_c, 0, 64, 0
1, 40800, Note_on_c, 0, 73, 47
1, 40811, Control_c, 0, 64, 0
1, 40860, Control_c, 0, 64, 127
1, 41040, Tempo, 459770
1, 41122, Control_c, 0, 64, 0
1, 41218, Control_c, 0, 64, 127
1, 41220, Tempo, 600000
1, 41220, Marker_t, "Teil 2 Wiederholung"
1, 41220, Note_on_c, 0, 73, 0
1, 41220, Note_on_c, 0, 81, 52
1, 41274, Note_on_c, 0, 81, 0
1, 41280, Tempo, 404040
1, 41280, Note_on_c, 0, 66, 52
1, 41280, Note_on_c, 0, 69, 52
1, 41280, Note_on_c, 0, 81, 60
1, 41424, Note_on_c, 0, 81, 0
1, 41440, Note_on_c, 0, 81, 58
1, 41520, Tempo, 439560
1, 41584, Note_on_c, 0, 81, 0
1, 41600, Note_on_c, 0, 81, 58
1, 41640, Tempo, 453721
1, 41690, Note_on_c, 0, 81, 0
1, 41700, Tempo, 857143
1, 41700, Note_on_c, 0, 81, 50
1, 41730, Note_on_c, 0, 83, 47
1, 41750, Note_on_c, 0, 81, 0
1, 41760, Tempo, 433307
1, 41760, Note_on_c, 0, 81, 51
1, 41775, Control_c, 0, 64, 0
1, 41780, Note_on_c, 0, 83, 0
1, 41818, Control_c, 0, 64, 127
1, 42000, Tempo, 444444
1, 42133, Control_c, 0, 64, 0
1, 42180, Tempo, 476153
1, 42180, Note_on_c, 0, 81, 0
1, 42180, Note_on_c, 0, 81, 52
1, 42188, Control_c, 0, 64, 127
1, 42234, Note_on_c, 0, 81, 0
1, 42240, Tempo, 408163
1, 42240, Note_on_c, 0, 81, 60
1, 42384, Note_on_c, 0, 81, 0
1, 42400, Note_on_c, 0, 81, 57
1, 42480, Tempo, 441176
1, 42544, Note_on_c, 0, 81, 0
1, 42560, Note_on_c, 0, 81, 57
1, 42600, Tempo, 453721
1, 42650, Note_on_c, 0, 81, 0
1, 42660, Tempo, 857143
1, 42660, Note_on_c, 0, 81, 50
1, 42690, Note_on_c, 0, 83, 51
1, 42710, Note_on_c, 0, 81, 0
1, 42720, Tempo, 433307
1, 42720, Note_on_c, 0, 81, 56
1, 42734, Control_c, 0, 64, 0
1, 42740, Note_on_c, 0, 83, 0
1, 42784, Control_c, 0, 64, 127
1, 42960, Tempo, 442804
1, 43064, Control_c, 0, 64, 0
1, 43134, Control_c, 0, 64, 127
1, 43140, Tempo, 473522
1, 43140, Note_on_c, 0, 81, 0
1, 43140, Note_on_c, 0, 80, 49
1, 43194, Note_on_c, 0, 80, 0
1, 43200, Tempo, 408163
1, 43200, Note_on_c, 0, 69, 0
1, 43200, Note_on_c, 0, 66, 0
1, 43200, Note_on_c, 0, 64, 52
1, 43200, Note_on_c, 0, 68, 52
1, 43200, Note_on_c, 0, 80, 57
1, 43344, Note_on_c, 0, 80, 0
1, 43360, Note_on_c, 0, 80, 55
1, 43440, Tempo, 441176
1, 43504, Note_on_c, 0, 80, 0
1, 43520, Note_on_c, 0, 80, 55
1, 43560, Tempo, 453721
1, 43610, Note_on_c, 0, 80, 0
1, 43620, Tempo, 745342
1, 43620, Note_on_c, 0, 80, 49
1, 43650, Note_on_c, 0, 81, 52
1, 43670, Note_on_c, 0, 80, 0
1, 43680, Tempo, 433307
1, 43680, Note_on_c, 0, 49, 0
1, 43680, Note_on_c, 0, 80, 58
1, 43694, Control_c, 0, 64, 0
1, 43700, Note_on_c, 0, 81, 0
1, 43749, Control_c, 0, 64, 127
1, 43920, Tempo, 444444
1, 44048, Control_c, 0, 64, 0
1, 44094, Control_c, 0, 64, 127
1, 44100, Tempo, 458505
1, 44100, Note_on_c, 0, 80, 0
1, 44100, Note_on_c, 0, 78, 49
1, 44154, Note_on_c, 0, 78, 0
1, 44160, Tempo, 408163
1, 44160, Note_on_c, 0, 68, 0
1, 44160, Note_on_c, 0, 64, 0
1, 44160, Note_on_c, 0, 66, 49
1, 44160, Note_on_c, 0, 62, 49
1, 44160, Note_on_c, 0, 78, 57
1, 44304, Note_on_c, 0, 78, 0
1, 44320, Note_on_c, 0, 78, 54
1, 44400, Tempo, 442804
1, 44464, Note_on_c, 0, 78, 0
1, 44480, Note_on_c, 0, 78, 54
1, 44520, Tempo, 451331
1, 44570, Note_on_c, 0, 78, 0
1, 44580, Tempo, 662983
1, 44580, Note_on_c, 0, 78, 47
1, 44610, Note_on_c, 0, 79, 50
1, 44630, Note_on_c, 0, 78, 0
1, 44640, Tempo, 433307
1, 44640, Note_on_c, 0, 78, 56
1, 44655, Control_c, 0, 64, 0
1, 44660, Note_on_c, 0, 79, 0
1, 44706, Control_c, 0, 64, 127
1, 44880, Tempo, 439560
1, 44924, Control_c, 0, 64, 0
1, 45019, Control_c, 0, 64, 127
1, 45060, Tempo, 463356
1, 45060, Note_on_c, 0, 78, 0
1, 45060, Note_on_c, 0, 80, 49
1, 45114, Note_on_c, 0, 80, 0
1, 45120, Tempo, 404040
1, 45120, Note_on_c, 0, 62, 0
1, 45120, Note_on_c, 0, 66, 0
1, 45120, Note_on_c, 0, 80, 57
1, 45120, Note_on_c, 0, 68, 49
1, 45120, Note_on_c, 0, 64, 49
1, 45264, Note_on_c, 0, 80, 0
1, 45280, Note_on_c, 0, 80, 55
1, 45360, Tempo, 442804
1, 45424, Note_on_c, 0, 80, 0
1, 45440, Note_on_c, 0, 80, 55
1, 45480, Tempo, 453721
1, 45530, Note_on_c, 0, 80, 0
1, 45540, Tempo, 670391
1, 45540, Note_on_c, 0, 80, 49
1, 45570, Note_on_c, 0, 81, 49
1, 45590, Note_on_c, 0, 80, 0
1, 45600, Tempo, 433307
1, 45600, Note_on_c, 0, 80, 57
1, 45606, Control_c, 0, 64, 0
1, 45620, Note_on_c, 0, 81, 0
1, 45648, Control_c, 0, 64, 127
1, 45840, Tempo, 459770
1, 45957, Control_c, 0, 64, 0
1, 46020, Tempo, 476153
1, 46020, Note_on_c, 0, 80, 0
1, 46020, Note_on_c, 0, 73, 49
1, 46028, Control_c, 0, 64, 127
1, 46074, Note_on_c, 0, 73, 0
1, 46080, Tempo, 410959
1, 46080, Note_on_c, 0, 64, 0
1, 46080, Note_on_c, 0, 68, 0
1, 46080, Note_on_c, 0, 61, 49
1, 46080, Note_on_c, 0, 64, 49
1, 46080, Note_on_c, 0, 73, 54
1, 46224, Note_on_c, 0, 73, 0
1, 46240, Note_on_c, 0, 73, 51
1, 46320, Tempo, 454545
1, 46384, Note_on_c, 0, 73, 0
1, 46400, Note_on_c, 0, 73, 51
1, 46440, Tempo, 451331
1, 46490, Note_on_c, 0, 73, 0
1, 46500, Tempo, 745342
1, 46500, Note_on_c, 0, 73, 47
1, 46530, Note_on_c, 0, 74, 46
1, 46550, Note_on_c, 0, 73, 0
1, 46560, Tempo, 441176
1, 46560, Note_on_c, 0, 73, 51
1, 46575, Control_c, 0, 64, 0
1, 46580, Note_on_c, 0, 74, 0
1, 46611, Control_c, 0, 64, 127
1, 46800, Tempo, 449438
1, 46911, Control_c, 0, 64, 0
1, 46976, Control_c, 0, 64, 127
1, 46980, Tempo, 463356
1, 46980, Note_on_c, 0, 73, 0
1, 46980, Note_on_c, 0, 73, 47
1, 47034, Note_on_c, 0, 73, 0
1, 47040, Tempo, 415225
1, 47040, Note_on_c, 0, 73, 54
1, 47040, Note_on_c, 0, 49, 39
1, 47184, Note_on_c, 0, 73, 0
1, 47200, Note_on_c, 0, 73, 51
1, 47280, Tempo, 451128
1, 47344, Note_on_c, 0, 73, 0
1, 47360, Note_on_c, 0, 73, 51
1, 47400, Tempo, 451331
1, 47450, Note_on_c, 0, 73, 0
1, 47460, Tempo, 851064
1, 47460, Note_on_c, 0, 73, 47
1, 47490, Note_on_c, 0, 74, 47
1, 47510, Note_on_c, 0, 73, 0
1, 47520, Tempo, 441176
1, 47520, Note_on_c, 0, 73, 51
1, 47540, Note_on_c, 0, 74, 0
1, 47542, Control_c, 0, 64, 0
1, 47598, Control_c, 0, 64, 127
1, 47760, Tempo, 451128
1, 47895, Control_c, 0, 64, 0
1, 47940, Tempo, 482199
1, 47940, Note_on_c, 0, 73, 0
1, 47940, Note_on_c, 0, 73, 40
1, 47968, Control_c, 0, 64, 127
1, 47994, Note_on_c, 0, 73, 0
1, 48000, Tempo, 413793
1, 48000, Note_on_c, 0, 73, 47
1, 48144, Note_on_c, 0, 73, 0
1, 48160, Note_on_c, 0, 73, 47
1, 48240, Tempo, 452830
1, 48304, Note_on_c, 0, 73, 0
1, 48320, Note_on_c, 0, 73, 47
1, 48360, Tempo, 451331
1, 48410, Note_on_c, 0, 73, 0
1, 48420, Tempo, 857143
1, 48420, Note_on_c, 0, 73, 39
1, 48450, Note_on_c, 0, 74, 40
1, 48470, Note_on_c, 0, 73, 0
1, 48480, Tempo, 446628
1, 48480, Note_on_c, 0, 61, 0
1, 48480, Note_on_c, 0, 64, 0
1, 48480, Note_on_c, 0, 73, 47
1, 48496, Control_c, 0, 64, 0
1, 48500, Note_on_c, 0, 74, 0
1, 48535, Control_c, 0, 64, 127
1, 48806, Control_c, 0, 64, 0
1, 48883, Control_c, 0, 64, 127
1, 48900, Tempo, 600000
1, 48900, Marker_t, "Teil 3"
1, 48900, Note_on_c, 0, 73, 0
1, 48900, Note_on_c, 0, 78, 52
1, 48954, Note_on_c, 0, 78, 0
1, 48960, Tempo, 404040
1, 48960, Note_on_c, 0, 78, 54
1, 48960, Note_on_c, 0, 62, 46
1, 48960, Note_on_c, 0, 66, 46
1, 49104, Note_on_c, 0, 78, 0
1, 49120, Note_on_c, 0, 78, 52
1, 49264, Note_on_c, 0, 78, 0
1, 49280, Note_on_c, 0, 78, 52
1, 49320, Tempo, 453721
1, 49370, Note_on_c, 0, 78, 0
1, 49380, Tempo, 851064
1, 49380, Note_on_c, 0, 78, 45
1, 49410, Note_on_c, 0, 80, 45
1, 49430, Note_on_c, 0, 78, 0
1, 49440, Tempo, 433307
1, 49440, Note_on_c, 0, 78, 52
1, 49451, Control_c, 0, 64, 0
1, 49460, Note_on_c, 0, 80, 0
1, 49510, Control_c, 0, 64, 127
1, 49680, Tempo, 444444
1, 49764, Control_c, 0, 64, 0
1, 49838, Control_c, 0, 64, 127
1, 49860, Tempo, 476153
1, 49860, Note_on_c, 0, 78, 0
1, 49860, Note_on_c, 0, 78, 46
1, 49914, Note_on_c, 0, 78, 0
1, 49920, Tempo, 408163
1, 49920, Note_on_c, 0, 78, 54
1, 50064, Note_on_c, 0, 78, 0
1, 50080, Note_on_c, 0, 78, 51
1, 50160, Tempo, 441176
1, 50224, Note_on_c, 0, 78, 0
1, 50240, Note_on_c, 0, 78, 51
1, 50280, Tempo, 453721
1, 50330, Note_on_c, 0, 78, 0
1, 50340, Tempo, 740741
1, 50340, Note_on_c, 0, 78, 46
1, 50370, Note_on_c, 0, 80, 46
1, 50390, Note_on_c, 0, 78, 0
1, 50400, Tempo, 433307
1, 50400, Note_on_c, 0, 78, 52
1, 50414, Control_c, 0, 64, 0
1, 50420, Note_on_c, 0, 80, 0
1, 50460, Control_c, 0, 64, 127
1, 50640, Tempo, 442804
1, 50755, Control_c, 0, 64, 0
1, 50800, Control_c, 0, 64, 127
1, 50820, Tempo, 473522
1, 50820, Note_on_c, 0, 78, 0
1, 50820, Note_on_c, 0, 76, 44
1, 50874, Note_on_c, 0, 76, 0
1, 50880, Tempo, 409556
1, 50880, Note_on_c, 0, 66, 0
1, 50880, Note_on_c, 0, 62, 0
1, 50880, Note_on_c, 0, 76, 51
1, 50880, Note_on_c, 0, 64, 46
1, 50880, Note_on_c, 0, 61, 46
1, 51024, Note_on_c, 0, 76, 0
1, 51040, Note_on_c, 0, 76, 49
1, 51120, Tempo, 441176
1, 51184, Note_on_c, 0, 76, 0
1, 51200, Note_on_c, 0, 76, 49
1, 51240, Tempo, 453721
1, 51290, Note_on_c, 0, 76, 0
1, 51300, Tempo, 745342
1, 51300, Note_on_c, 0, 76, 44
1, 51330, Note_on_c, 0, 78, 46
1, 51350, Note_on_c, 0, 76, 0
1, 51360, Tempo, 433307
1, 51360, Note_on_c, 0, 49, 0
1, 51360, Note_on_c, 0, 76, 52
1, 51379, Control_c, 0, 64, 0
1, 51380, Note_on_c, 0, 78, 0
1, 51437, Control_c, 0, 64, 127
1, 51600, Tempo, 444444
1, 51684, Control_c, 0, 64, 0
1, 51745, Control_c, 0, 64, 127
1, 51780, Tempo, 458505
1, 51780, Note_on_c, 0, 76, 0
1, 51780, Note_on_c, 0, 74, 44
1, 51834, Note_on_c, 0, 74, 0
1, 51840, Tempo, 410959
1, 51840, Note_on_c, 0, 64, 0
1, 51840, Note_on_c, 0, 61, 0
1, 51840, Note_on_c, 0, 62, 44
1, 51840, Note_on_c, 0, 74, 51
1, 51840, Note_on_c, 0, 59, 44
1, 51984, Note_on_c, 0, 74, 0
1, 52000, Note_on_c, 0, 74, 48
1, 52080, Tempo, 442804
1, 52144, Note_on_c, 0, 74, 0
1, 52160, Note_on_c, 0, 74, 48
1, 52200, Tempo, 451331
1, 52250, Note_on_c, 0, 74, 0
1, 52260, Tempo, 662983
1, 52260, Note_on_c, 0, 74, 42
1, 52290, Note_on_c, 0, 76, 45
1, 52310, Note_on_c, 0, 74, 0
1, 52320, Tempo, 433307
1, 52320, Note_on_c, 0, 74, 50
1, 52325, Control_c, 0, 64, 0
1, 52340, Note_on_c, 0, 76, 0
1, 52378, Control_c, 0, 64, 127
1, 52560, Tempo, 439560
1, 52659, Control_c, 0, 64, 0
1, 52723, Control_c, 0, 64, 127
1, 52740, Tempo, 463356
1, 52740, Note_on_c, 0, 74, 0
1, 52740, Note_on_c, 0, 78, 44
1, 52794, Note_on_c, 0, 78, 0
1, 52800, Tempo, 406780
1, 52800, Note_on_c, 0, 59, 0
1, 52800, Note_on_c, 0, 62, 0
1, 52800, Note_on_c, 0, 62, 44
1, 52800, Note_on_c, 0, 66, 44
1, 52800, Note_on_c, 0, 78, 51
1, 52944, Note_on_c, 0, 78, 0
1, 52960, Note_on_c, 0, 78, 49
1, 53040, Tempo, 442804
1, 53104, Note_on_c, 0, 78, 0
1, 53120, Note_on_c, 0, 78, 49
1, 53160, Tempo, 453721
1, 53210, Note_on_c, 0, 78, 0
1, 53220, Tempo, 666667
1, 53220, Note_on_c, 0, 78, 44
1, 53250, Note_on_c, 0, 80, 44
1, 53270, Note_on_c, 0, 78, 0
1, 53280, Tempo, 433307
1, 53280, Note_on_c, 0, 78, 51
1, 53292, Control_c, 0, 64, 0
1, 53300, Note_on_c, 0, 80, 0
1, 53337, Control_c, 0, 64, 127
1, 53520, Tempo, 459770
1, 53655, Control_c, 0, 64, 0
1, 53700, Tempo, 476153
1, 53700, Note_on_c, 0, 78, 0
1, 53700, Note_on_c, 0, 73, 44
1, 53730, Control_c, 0, 64, 127
1, 53754, Note_on_c, 0, 73, 0
1, 53760, Tempo, 408163
1, 53760, Note_on_c, 0, 66, 0
1, 53760, Note_on_c, 0, 62, 0
1, 53760, Note_on_c, 0, 61, 44
1, 53760, Note_on_c, 0, 57, 44
1, 53760, Note_on_c, 0, 73, 48
1, 53904, Note_on_c, 0, 73, 0
1, 53920, Note_on_c, 0, 73, 45
1, 54000, Tempo, 454545
1, 54064, Note_on_c, 0, 73, 0
1, 54080, Note_on_c, 0, 73, 45
1, 54120, Tempo, 451331
1, 54170, Note_on_c, 0, 73, 0
1, 54180, Tempo, 662983
1, 54180, Note_on_c, 0, 73, 42
1, 54210, Note_on_c, 0, 74, 41
1, 54230, Note_on_c, 0, 73, 0
1, 54240, Tempo, 441176
1, 54240, Note_on_c, 0, 73, 47
1, 54260, Note_on_c, 0, 74, 0
1, 54262, Control_c, 0, 64, 0
1, 54298, Control_c, 0, 64, 127
1, 54480, Tempo, 449438
1, 54660, Tempo, 463356
1, 54660, Note_on_c, 0, 73, 0
1, 54660, Note_on_c, 0, 73, 42
1, 54673, Control_c, 0, 64, 0
1, 54714, Note_on_c, 0, 73, 0
1, 54720, Tempo, 412371
1, 54720, Note_on_c, 0, 73, 48
1, 54720, Note_on_c, 0, 49, 37
1, 54731, Control_c, 0, 64, 127
1, 54864, Note_on_c, 0, 73, 0
1, 54880, Note_on_c, 0, 73, 45
1, 54960, Tempo, 451128
1, 55024, Note_on_c, 0, 73, 0
1, 55040, Note_on_c, 0, 73, 45
1, 55080, Tempo, 451331
1, 55130, Note_on_c, 0, 73, 0
1, 55140, Tempo, 666667
1, 55140, Note_on_c, 0, 73, 42
1, 55170, Note_on_c, 0, 74, 42
1, 55190, Note_on_c, 0, 73, 0
1, 55200, Tempo, 441176
1, 55200, Note_on_c, 0, 73, 48
1, 55207, Control_c, 0, 64, 0
1, 55220, Note_on_c, 0, 74, 0
1, 55255, Control_c, 0, 64, 127
1, 55440, Tempo, 451128
1, 55578, Control_c, 0, 64, 0
1, 55620, Tempo, 482199
1, 55620, Note_on_c, 0, 73, 0
1, 55620, Note_on_c, 0, 73, 36
1, 55648, Control_c, 0, 64, 127
1, 55674, Note_on_c, 0, 73, 0
1, 55680, Tempo, 415225
1, 55680, Note_on_c, 0, 73, 42
1, 55824, Note_on_c, 0, 73, 0
1, 55840, Note_on_c, 0, 73, 42
1, 55920, Tempo, 452830
1, 55984, Note_on_c, 0, 73, 0
1, 56000, Note_on_c, 0, 73, 42
1, 56040, Tempo, 451331
1, 56090, Note_on_c, 0, 73, 0
1, 56100, Tempo, 662983
1, 56100, Note_on_c, 0, 73, 35
1, 56130, Note_on_c, 0, 74, 36
1, 56150, Note_on_c, 0, 73, 0
1, 56160, Tempo, 446628
1, 56160, Note_on_c, 0, 61, 0
1, 56160, Note_on_c, 0, 57, 0
1, 56160, Note_on_c, 0, 73, 42
1, 56169, Control_c, 0, 64, 0
1, 56180, Note_on_c, 0, 74, 0
1, 56242, Control_c, 0, 64, 127
1, 56400, Tempo, 461538
1, 56502, Control_c, 0, 64, 0
1, 56563, Control_c, 0, 64, 127
1, 56580, Tempo, 600000
1, 56580, Marker_t, "Teil 3 Wiederholung"
1, 56580, Note_on_c, 0, 73, 0
1, 56580, Note_on_c, 0, 78, 52
1, 56634, Note_on_c, 0, 78, 0
1, 56640, Tempo, 406780
1, 56640, Note_on_c, 0, 62, 46
1, 56640, Note_on_c, 0, 78, 54
1, 56640, Note_on_c, 0, 66, 46
1, 56784, Note_on_c, 0, 78, 0
1, 56800, Note_on_c, 0, 78, 52
1, 56944, Note_on_c, 0, 78, 0
1, 56960, Note_on_c, 0, 78, 52
1, 57000, Tempo, 453721
1, 57050, Note_on_c, 0, 78, 0
1, 57060, Tempo, 857143
1, 57060, Note_on_c, 0, 78, 45
1, 57090, Note_on_c, 0, 80, 45
1, 57110, Note_on_c, 0, 78, 0
1, 57120, Tempo, 433307
1, 57120, Note_on_c, 0, 78, 51
1, 57129, Control_c, 0, 64, 0
1, 57140, Note_on_c, 0, 80, 0
1, 57192, Control_c, 0, 64, 127
1, 57360, Tempo, 444444
1, 57471, Control_c, 0, 64, 0
1, 57520, Control_c, 0, 64, 127
1, 57540, Tempo, 476153
1, 57540, Note_on_c, 0, 78, 0
1, 57540, Note_on_c, 0, 78, 46
1, 57594, Note_on_c, 0, 78, 0
1, 57600, Tempo, 408163
1, 57600, Note_on_c, 0, 78, 54
1, 57744, Note_on_c, 0, 78, 0
1, 57760, Note_on_c, 0, 78, 51
1, 57840, Tempo, 441176
1, 57904, Note_on_c, 0, 78, 0
1, 57920, Note_on_c, 0, 78, 51
1, 57960, Tempo, 453721
1, 58010, Note_on_c, 0, 78, 0
1, 58020, Tempo, 745342
1, 58020, Note_on_c, 0, 78, 46
1, 58050, Note_on_c, 0, 80, 46
1, 58070, Note_on_c, 0, 78, 0
1, 58080, Tempo, 433307
1, 58080, Note_on_c, 0, 78, 52
1, 58089, Control_c, 0, 64, 0
1, 58100, Note_on_c, 0, 80, 0
1, 58147, Control_c, 0, 64, 127
1, 58320, Tempo, 442804
1, 58392, Control_c, 0, 64, 0
1, 58450, Control_c, 0, 64, 127
1, 58500, Tempo, 473522
1, 58500, Note_on_c, 0, 78, 0
1, 58500, Note_on_c, 0, 76, 44
1, 58554, Note_on_c, 0, 76, 0
1, 58560, Tempo, 406780
1, 58560, Note_on_c, 0, 66, 0
1, 58560, Note_on_c, 0, 62, 0
1, 58560, Note_on_c, 0, 76, 51
1, 58560, Note_on_c, 0, 64, 46
1, 58560, Note_on_c, 0, 61, 46
1, 58704, Note_on_c, 0, 76, 0
1, 58720, Note_on_c, 0, 76, 49
1, 58800, Tempo, 441176
1, 58864, Note_on_c, 0, 76, 0
1, 58880, Note_on_c, 0, 76, 49
1, 58920, Tempo, 453721
1, 58970, Note_on_c, 0, 76, 0
1, 58980, Tempo, 745342
1, 58980, Note_on_c, 0, 76, 44
1, 59010, Note_on_c, 0, 78, 46
1, 59030, Note_on_c, 0, 76, 0
1, 59040, Tempo, 433307
1, 59040, Note_on_c, 0, 49, 0
1, 59040, Note_on_c, 0, 76, 52
1, 59052, Control_c, 0, 64, 0
1, 59060, Note_on_c, 0, 78, 0
1, 59117, Control_c, 0, 64, 127
1, 59280, Tempo, 444444
1, 59362, Control_c, 0, 64, 0
1, 59423, Control_c, 0, 64, 127
1, 59460, Tempo, 458505
1, 59460, Note_on_c, 0, 76, 0
1, 59460, Note_on_c, 0, 74, 44
1, 59514, Note_on_c, 0, 74, 0
1, 59520, Tempo, 408163
1, 59520, Note_on_c, 0, 64, 0
1, 59520, Note_on_c, 0, 61, 0
1, 59520, Note_on_c, 0, 62, 44
1, 59520, Note_on_c, 0, 74, 51
1, 59520, Note_on_c, 0, 59, 44
1, 59664, Note_on_c, 0, 74, 0
1, 59680, Note_on_c, 0, 74, 48
1, 59760, Tempo, 442804
1, 59824, Note_on_c, 0, 74, 0
1, 59840, Note_on_c, 0, 74, 48
1, 59880, Tempo, 451331
1, 59930, Note_on_c, 0, 74, 0
1, 59940, Tempo, 662983
1, 59940, Note_on_c, 0, 74, 42
1, 59970, Note_on_c, 0, 76, 45
1, 59990, Note_on_c, 0, 74, 0
1, 60000, Tempo, 433307
1, 60000, Note_on_c, 0, 74, 50
1, 60016, Control_c, 0, 64, 0
1, 60020, Note_on_c, 0, 76, 0
1, 60060, Control_c, 0, 64, 127
1, 60240, Tempo, 439560
1, 60305, Control_c, 0, 64, 0
1, 60370, Control_c, 0, 64, 127
1, 60420, Tempo, 463356
1, 60420, Note_on_c, 0, 74, 0
1, 60420, Note_on_c, 0, 78, 44
1, 60474, Note_on_c, 0, 78, 0
1, 60480, Tempo, 406780
1, 60480, Note_on_c, 0, 59, 0
1, 60480, Note_on_c, 0, 62, 0
1, 60480, Note_on_c, 0, 62, 44
1, 60480, Note_on_c, 0, 66, 44
1, 60480, Note_on_c, 0, 78, 51
1, 60624, Note_on_c, 0, 78, 0
1, 60640, Note_on_c, 0, 78, 49
1, 60720, Tempo, 442804
1, 60784, Note_on_c, 0, 78, 0
1, 60800, Note_on_c, 0, 78, 49
1, 60840, Tempo, 453721
1, 60890, Note_on_c, 0, 78, 0
1, 60900, Tempo, 662983
1, 60900, Note_on_c, 0, 78, 44
1, 60930, Note_on_c, 0, 80, 44
1, 60950, Note_on_c, 0, 78, 0
1, 60960, Tempo, 433307
1, 60960, Note_on_c, 0, 78, 49
1, 60974, Control_c, 0, 64, 0
1, 60980, Note_on_c, 0, 80, 0
1, 61006, Control_c, 0, 64, 127
1, 61200, Tempo, 459770
1, 61342, Control_c, 0, 64, 0
1, 61380, Tempo, 476153
1, 61380, Note_on_c, 0, 78, 0
1, 61380, Note_on_c, 0, 73, 44
1, 61410, Control_c, 0, 64, 127
1, 61434, Note_on_c, 0, 73, 0
1, 61440, Tempo, 406780
1, 61440, Note_on_c, 0, 66, 0
1, 61440, Note_on_c, 0, 62, 0
1, 61440, Note_on_c, 0, 57, 44
1, 61440, Note_on_c, 0, 61, 44
1, 61440, Note_on_c, 0, 73, 48
1, 61584, Note_on_c, 0, 73, 0
1, 61600, Note_on_c, 0, 73, 45
1, 61680, Tempo, 454545
1, 61744, Note_on_c, 0, 73, 0
1, 61760, Note_on_c, 0, 73, 45
1, 61800, Tempo, 451331
1, 61850, Note_on_c, 0, 73, 0
1, 61860, Tempo, 750000
1, 61860, Note_on_c, 0, 73, 42
1, 61890, Note_on_c, 0, 74, 41
1, 61910, Note_on_c, 0, 73, 0
1, 61920, Tempo, 441176
1, 61920, Note_on_c, 0, 73, 47
1, 61931, Control_c, 0, 64, 0
1, 61940, Note_on_c, 0, 74, 0
1, 61986, Control_c, 0, 64, 127
1, 62160, Tempo, 449438
1, 62288, Control_c, 0, 64, 0
1, 62340, Tempo, 463356
1, 62340, Note_on_c, 0, 73, 0
1, 62340, Note_on_c, 0, 73, 42
1, 62394, Note_on_c, 0, 73, 0
1, 62400, Tempo, 410959
1, 62400, Note_on_c, 0, 73, 48
1, 62400, Note_on_c, 0, 49, 38
1, 62411, Control_c, 0, 64, 127
1, 62544, Note_on_c, 0, 73, 0
1, 62560, Note_on_c, 0, 73, 45
1, 62640, Tempo, 451128
1, 62704, Note_on_c, 0, 73, 0
1, 62720, Note_on_c, 0, 73, 45
1, 62760, Tempo, 451331
1, 62810, Note_on_c, 0, 73, 0
1, 62820, Tempo, 542986
1, 62820, Note_on_c, 0, 73, 42
1, 62828, Tempo, 666667
1, 62850, Note_on_c, 0, 74, 42
1, 62870, Note_on_c, 0, 73, 0
1, 62880, Tempo, 441176
1, 62880, Note_on_c, 0, 73, 49
1, 62895, Control_c, 0, 64, 0
1, 62900, Note_on_c, 0, 74, 0
1, 62942, Control_c, 0, 64, 127
1, 63120, Tempo, 451128
1, 63211, Control_c, 0, 64, 0
1, 63300, Tempo, 482199
1, 63300, Note_on_c, 0, 73, 0
1, 63300, Note_on_c, 0, 73, 36
1, 63328, Control_c, 0, 64, 127
1, 63354, Note_on_c, 0, 73, 0
1, 63360, Tempo, 410959
1, 63360, Note_on_c, 0, 73, 42
1, 63504, Note_on_c, 0, 73, 0
1, 63520, Note_on_c, 0, 73, 42
1, 63600, Tempo, 452830
1, 63664, Note_on_c, 0, 73, 0
1, 63680, Note_on_c, 0, 73, 42
1, 63720, Tempo, 451331
1, 63770, Note_on_c, 0, 73, 0
1, 63780, Tempo, 662983
1, 63780, Note_on_c, 0, 73, 35
1, 63810, Note_on_c, 0, 74, 36
1, 63830, Note_on_c, 0, 73, 0
1, 63840, Tempo, 446628
1, 63840, Note_on_c, 0, 57, 0
1, 63840, Note_on_c, 0, 61, 0
1, 63840, Note_on_c, 0, 73, 42
1, 63859, Control_c, 0, 64, 0
1, 63860, Note_on_c, 0, 74, 0
1, 63902, Control_c, 0, 64, 127
1, 64200, Tempo, 504202
1, 64320, Tempo, 461538
1, 64320, Marker_t, "Teil 4"
1, 64320, Note_on_c, 0, 73, 0
1, 64320, Note_on_c, 0, 49, 0
1, 64320, Note_on_c, 0, 72, 69
1, 64320, Note_on_c, 0, 60, 56
1, 64320, Note_on_c, 0, 57, 56
1, 64320, Note_on_c, 0, 64, 66
1, 64321, Control_c, 0, 64, 0
1, 64455, Control_c, 0, 64, 127
1, 64800, Tempo, 439560
1, 64800, Note_on_c, 0, 72, 0
1, 64800, Note_on_c, 0, 75, 68
1, 64880, Tempo, 437956
1, 64920, Note_on_c, 0, 75, 0
1, 64920, Note_on_c, 0, 76, 67
1, 64960, Tempo, 436364
1, 65000, Tempo, 434783
1, 65040, Note_on_c, 0, 76, 0
1, 65040, Note_on_c, 0, 80, 73
1, 65080, Tempo, 433213
1, 65160, Tempo, 431655
1, 65160, Note_on_c, 0, 80, 0
1, 65160, Note_on_c, 0, 81, 70
1, 65200, Tempo, 430108
1, 65280, Tempo, 442804
1, 65280, Note_on_c, 0, 81, 0
1, 65280, Note_on_c, 0, 60, 0
1, 65280, Note_on_c, 0, 57, 0
1, 65280, Note_on_c, 0, 64, 0
1, 65280, Note_on_c, 0, 80, 75
1, 65280, Note_on_c, 0, 64, 74
1, 65280, Note_on_c, 0, 60, 62
1, 65280, Note_on_c, 0, 52, 62
1, 65280, Note_on_c, 0, 56, 62
1, 65293, Control_c, 0, 64, 0
1, 65400, Control_c, 0, 64, 127
1, 65760, Tempo, 442804
1, 65760, Note_on_c, 0, 80, 0
1, 65760, Note_on_c, 0, 76, 72
1, 65880, Note_on_c, 0, 76, 0
1, 65880, Note_on_c, 0, 75, 69
1, 65920, Tempo, 444444
1, 66000, Note_on_c, 0, 75, 0
1, 66000, Note_on_c, 0, 73, 72
1, 66080, Tempo, 446097
1, 66120, Note_on_c, 0, 73, 0
1, 66120, Note_on_c, 0, 72, 71
1, 66240, Tempo, 447761
1, 66240, Note_on_c, 0, 72, 0
1, 66240, Note_on_c, 0, 52, 0
1, 66240, Note_on_c, 0, 64, 0
1, 66240, Note_on_c, 0, 60, 0
1, 66240, Note_on_c, 0, 56, 0
1, 66240, Note_on_c, 0, 73, 77
1, 66240, Note_on_c, 0, 61, 67
1, 66240, Note_on_c, 0, 56, 56
1, 66240, Note_on_c, 0, 49, 56
1, 66240, Note_on_c, 0, 52, 56
1, 66255, Control_c, 0, 64, 0
1, 66379, Control_c, 0, 64, 127
1, 66591, Note_on_c, 0, 73, 0
1, 66600, Tempo, 421053
1, 66600, Note_on_c, 0, 73, 75
1, 66708, Note_on_c, 0, 73, 0
1, 66720, Note_on_c, 0, 52, 0
1, 66720, Note_on_c, 0, 61, 0
1, 66720, Note_on_c, 0, 56, 0
1, 66720, Note_on_c, 0, 49, 0
1, 66720, Note_on_c, 0, 73, 73
1, 66864, Note_on_c, 0, 73, 0
1, 66880, Note_on_c, 0, 73, 71
1, 67024, Note_on_c, 0, 73, 0
1, 67040, Note_on_c, 0, 73, 70
1, 67184, Note_on_c, 0, 73, 0
1, 67200, Tempo, 444444
1, 67200, Note_on_c, 0, 73, 73
1, 67550, Note_on_c, 0, 73, 0
1, 67560, Tempo, 436364
1, 67560, Note_on_c, 0, 73, 66
1, 67668, Note_on_c, 0, 73, 0
1, 67680, Tempo, 419580
1, 67680, Note_on_c, 0, 73, 66
1, 67824, Note_on_c, 0, 73, 0
1, 67840, Note_on_c, 0, 73, 66
1, 67984, Note_on_c, 0, 73, 0
1, 68000, Note_on_c, 0, 73, 70
1, 68144, Note_on_c, 0, 73, 0
1, 68160, Tempo, 451128
1, 68160, Note_on_c, 0, 72, 73
1, 68160, Note_on_c, 0, 60, 62
1, 68160, Note_on_c, 0, 57, 62
1, 68160, Note_on_c, 0, 64, 73
1, 68166, Control_c, 0, 64, 0
1, 68266, Control_c, 0, 64, 127
1, 68640, Tempo, 434783
1, 68640, Note_on_c, 0, 72, 0
1, 68640, Note_on_c, 0, 75, 71
1, 68720, Tempo, 433213
1, 68760, Tempo, 431655
1, 68760, Note_on_c, 0, 75, 0
1, 68760, Note_on_c, 0, 76, 70
1, 68840, Tempo, 430108
1, 68880, Tempo, 428571
1, 68880, Note_on_c, 0, 76, 0
1, 68880, Note_on_c, 0, 80, 76
1, 68920, Tempo, 427046
1, 69000, Tempo, 425532
1, 69000, Note_on_c, 0, 80, 0
1, 69000, Note_on_c, 0, 81, 73
1, 69040, Tempo, 424028
1, 69080, Tempo, 422535
1, 69120, Tempo, 442804
1, 69120, Note_on_c, 0, 81, 0
1, 69120, Note_on_c, 0, 60, 0
1, 69120, Note_on_c, 0, 57, 0
1, 69120, Note_on_c, 0, 64, 0
1, 69120, Note_on_c, 0, 80, 78
1, 69120, Note_on_c, 0, 64, 77
1, 69120, Note_on_c, 0, 56, 65
1, 69120, Note_on_c, 0, 52, 65
1, 69120, Note_on_c, 0, 60, 65
1, 69128, Control_c, 0, 64, 0
1, 69255, Control_c, 0, 64, 127
1, 69600, Tempo, 441176
1, 69600, Note_on_c, 0, 80, 0
1, 69600, Note_on_c, 0, 76, 75
1, 69700, Tempo, 442804
1, 69720, Note_on_c, 0, 76, 0
1, 69720, Note_on_c, 0, 75, 72
1, 69800, Tempo, 444444
1, 69840, Note_on_c, 0, 75, 0
1, 69840, Note_on_c, 0, 73, 75
1, 69880, Tempo, 446097
1, 69960, Note_on_c, 0, 73, 0
1, 69960, Note_on_c, 0, 72, 74
1, 69980, Tempo, 447761
1, 70060, Tempo, 449438
1, 70080, Tempo, 444444
1, 70080, Note_on_c, 0, 72, 0
1, 70080, Note_on_c, 0, 52, 0
1, 70080, Note_on_c, 0, 64, 0
1, 70080, Note_on_c, 0, 56, 0
1, 70080, Note_on_c, 0, 60, 0
1, 70080, Note_on_c, 0, 73, 80
1, 70080, Note_on_c, 0, 61, 70
1, 70080, Note_on_c, 0, 56, 59
1, 70080, Note_on_c, 0, 49, 59
1, 70080, Note_on_c, 0, 52, 59
1, 70098, Control_c, 0, 64, 0
1, 70215, Control_c, 0, 64, 127
1, 70429, Note_on_c, 0, 73, 0
1, 70440, Tempo, 424028
1, 70440, Note_on_c, 0, 73, 78
1, 70548, Note_on_c, 0, 73, 0
1, 70560, Note_on_c, 0, 52, 0
1, 70560, Note_on_c, 0, 61, 0
1, 70560, Note_on_c, 0, 56, 0
1, 70560, Note_on_c, 0, 49, 0
1, 70560, Note_on_c, 0, 73, 76
1, 70704, Note_on_c, 0, 73, 0
1, 70720, Note_on_c, 0, 73, 74
1, 70864, Note_on_c, 0, 73, 0
1, 70880, Note_on_c, 0, 73, 73
1, 71024, Note_on_c, 0, 73, 0
1, 71040, Tempo, 434783
1, 71040, Note_on_c, 0, 73, 73
1, 71060, Tempo, 442804
1, 71390, Note_on_c, 0, 73, 0
1, 71400, Tempo, 422535
1, 71400, Note_on_c, 0, 73, 66
1, 71508, Note_on_c, 0, 73, 0
1, 71520, Note_on_c, 0, 73, 76
1, 71664, Note_on_c, 0, 73, 0
1, 71680, Note_on_c, 0, 73, 74
1, 71760, Tempo, 444444
1, 71760, Note_on_c, 0, 46, 83
1, 71760, Note_on_c, 0, 34, 83
1, 71767, Control_c, 0, 64, 0
1, 71824, Note_on_c, 0, 73, 0
1, 71840, Note_on_c, 0, 73, 80
1, 71923, Control_c, 0, 64, 127
1, 71984, Note_on_c, 0, 73, 0
1, 72000, Note_on_c, 0, 34, 0
1, 72000, Note_on_c, 0, 46, 0
1, 72000, Note_on_c, 0, 73, 92
1, 72000, Note_on_c, 0, 61, 78
1, 72000, Note_on_c, 0, 53, 94
1, 72000, Note_on_c, 0, 41, 79
1, 72350, Note_on_c, 0, 61, 0
1, 72350, Note_on_c, 0, 73, 0
1, 72360, Note_on_c, 0, 61, 67
1, 72360, Note_on_c, 0, 73, 79
1, 72468, Note_on_c, 0, 73, 0
1, 72468, Note_on_c, 0, 61, 0
1, 72480, Tempo, 422535
1, 72480, Note_on_c, 0, 61, 67
1, 72480, Note_on_c, 0, 73, 79
1, 72624, Note_on_c, 0, 73, 0
1, 72624, Note_on_c, 0, 61, 0
1, 72640, Note_on_c, 0, 61, 67
1, 72640, Note_on_c, 0, 73, 79
1, 72784, Note_on_c, 0, 73, 0
1, 72784, Note_on_c, 0, 61, 0
1, 72800, Note_on_c, 0, 61, 67
1, 72800, Note_on_c, 0, 73, 79
1, 72944, Note_on_c, 0, 73, 0
1, 72944, Note_on_c, 0, 61, 0
1, 72960, Tempo, 430108
1, 72960, Note_on_c, 0, 61, 76
1, 72960, Note_on_c, 0, 73, 90
1, 73310, Note_on_c, 0, 73, 0
1, 73310, Note_on_c, 0, 61, 0
1, 73320, Note_on_c, 0, 73, 73
1, 73320, Note_on_c, 0, 61, 62
1, 73428, Note_on_c, 0, 61, 0
1, 73428, Note_on_c, 0, 73, 0
1, 73440, Tempo, 449438
1, 73440, Note_on_c, 0, 53, 0
1, 73440, Note_on_c, 0, 41, 0
1, 73440, Note_on_c, 0, 61, 62
1, 73440, Note_on_c, 0, 73, 73
1, 73440, Note_on_c, 0, 40, 70
1, 73440, Note_on_c, 0, 52, 83
1, 73449, Control_c, 0, 64, 0
1, 73518, Control_c, 0, 64, 127
1, 73584, Note_on_c, 0, 73, 0
1, 73584, Note_on_c, 0, 61, 0
1, 73600, Note_on_c, 0, 73, 73
1, 73600, Note_on_c, 0, 61, 62
1, 73680, Tempo, 461538
1, 73680, Note_on_c, 0, 40, 0
1, 73680, Note_on_c, 0, 52, 0
1, 73680, Note_on_c, 0, 41, 66
1, 73680, Note_on_c, 0, 53, 78
1, 73744, Note_on_c, 0, 73, 0
1, 73744, Note_on_c, 0, 61, 0
1, 73760, Note_on_c, 0, 61, 62
1, 73760, Note_on_c, 0, 73, 73
1, 73904, Note_on_c, 0, 73, 0
1, 73904, Note_on_c, 0, 61, 0
1, 73920, Tempo, 442804
1, 73920, Note_on_c, 0, 41, 0
1, 73920, Note_on_c, 0, 53, 0
1, 73920, Note_on_c, 0, 69, 78
1, 73920, Note_on_c, 0, 81, 92
1, 73920, Note_on_c, 0, 37, 78
1, 73920, Note_on_c, 0, 49, 92
1, 73930, Control_c, 0, 64, 0
1, 74061, Control_c, 0, 64, 127
1, 74270, Note_on_c, 0, 81, 0
1, 74270, Note_on_c, 0, 69, 0
1, 74280, Note_on_c, 0, 80, 78
1, 74280, Note_on_c, 0, 68, 66
1, 74388, Note_on_c, 0, 68, 0
1, 74388, Note_on_c, 0, 80, 0
1, 74400, Tempo, 422535
1, 74400, Note_on_c, 0, 68, 66
1, 74400, Note_on_c, 0, 80, 78
1, 74544, Note_on_c, 0, 80, 0
1, 74544, Note_on_c, 0, 68, 0
1, 74560, Note_on_c, 0, 80, 78
1, 74560, Note_on_c, 0, 68, 66
1, 74704, Note_on_c, 0, 68, 0
1, 74704, Note_on_c, 0, 80, 0
1, 74720, Note_on_c, 0, 68, 66
1, 74720, Note_on_c, 0, 80, 78
1, 74864, Note_on_c, 0, 80, 0
1, 74864, Note_on_c, 0, 68, 0
1, 74880, Tempo, 436364
1, 74880, Note_on_c, 0, 66, 72
1, 74880, Note_on_c, 0, 78, 85
1, 74894, Control_c, 0, 64, 0
1, 75007, Control_c, 0, 64, 127
1, 75230, Note_on_c, 0, 78, 0
1, 75230, Note_on_c, 0, 66, 0
1, 75240, Note_on_c, 0, 80, 73
1, 75240, Note_on_c, 0, 68, 62
1, 75348, Note_on_c, 0, 68, 0
1, 75348, Note_on_c, 0, 80, 0
1, 75360, Tempo, 424028
1, 75360, Note_on_c, 0, 68, 62
1, 75360, Note_on_c, 0, 80, 73
1, 75504, Note_on_c, 0, 80, 0
1, 75504, Note_on_c, 0, 68, 0
1, 75520, Note_on_c, 0, 80, 73
1, 75520, Note_on_c, 0, 68, 62
1, 75664, Note_on_c, 0, 68, 0
1, 75664, Note_on_c, 0, 80, 0
1, 75680, Note_on_c, 0, 68, 62
1, 75680, Note_on_c, 0, 80, 73
1, 75824, Note_on_c, 0, 80, 0
1, 75824, Note_on_c, 0, 68, 0
1, 75840, Tempo, 447761
1, 75840, Note_on_c, 0, 37, 0
1, 75840, Note_on_c, 0, 49, 0
1, 75840, Note_on_c, 0, 61, 78
1, 75840, Note_on_c, 0, 73, 92
1, 75840, Note_on_c, 0, 52, 94
1, 75840, Note_on_c, 0, 40, 79
1, 75849, Control_c, 0, 64, 0
1, 75920, Control_c, 0, 64, 127
1, 76190, Note_on_c, 0, 73, 0
1, 76190, Note_on_c, 0, 61, 0
1, 76200, Note_on_c, 0, 73, 79
1, 76200, Note_on_c, 0, 61, 67
1, 76308, Note_on_c, 0, 61, 0
1, 76308, Note_on_c, 0, 73, 0
1, 76320, Tempo, 419580
1, 76320, Note_on_c, 0, 52, 0
1, 76320, Note_on_c, 0, 40, 0
1, 76320, Note_on_c, 0, 61, 67
1, 76320, Note_on_c, 0, 73, 79
1, 76464, Note_on_c, 0, 73, 0
1, 76464, Note_on_c, 0, 61, 0
1, 76480, Note_on_c, 0, 73, 79
1, 76480, Note_on_c, 0, 61, 67
1, 76624, Note_on_c, 0, 61, 0
1, 76624, Note_on_c, 0, 73, 0
1, 76640, Note_on_c, 0, 73, 79
1, 76640, Note_on_c, 0, 61, 67
1, 76784, Note_on_c, 0, 61, 0
1, 76784, Note_on_c, 0, 73, 0
1, 76800, Tempo, 433213
1, 76800, Note_on_c, 0, 61, 76
1, 76800, Note_on_c, 0, 73, 90
1, 77150, Note_on_c, 0, 73, 0
1, 77150, Note_on_c, 0, 61, 0
1, 77160, Note_on_c, 0, 73, 73
1, 77160, Note_on_c, 0, 61, 62
1, 77268, Note_on_c, 0, 61, 0
1, 77268, Note_on_c, 0, 73, 0
1, 77280, Tempo, 449438
1, 77280, Note_on_c, 0, 61, 62
1, 77280, Note_on_c, 0, 73, 73
1, 77424, Note_on_c, 0, 73, 0
1, 77424, Note_on_c, 0, 61, 0
1, 77440, Note_on_c, 0, 61, 62
1, 77440, Note_on_c, 0, 73, 73
1, 77520, Tempo, 444444
1, 77520, Note_on_c, 0, 46, 83
1, 77520, Note_on_c, 0, 34, 70
1, 77540, Control_c, 0, 64, 0
1, 77584, Note_on_c, 0, 73, 0
1, 77584, Note_on_c, 0, 61, 0
1, 77600, Note_on_c, 0, 73, 73
1, 77600, Note_on_c, 0, 61, 62
1, 77612, Control_c, 0, 64, 127
1, 77744, Note_on_c, 0, 61, 0
1, 77744, Note_on_c, 0, 73, 0
1, 77760, Note_on_c, 0, 46, 0
1, 77760, Note_on_c, 0, 34, 0
1, 77760, Note_on_c, 0, 61, 78
1, 77760, Note_on_c, 0, 73, 92
1, 77760, Note_on_c, 0, 53, 94
1, 77760, Note_on_c, 0, 41, 79
1, 78110, Note_on_c, 0, 73, 0
1, 78110, Note_on_c, 0, 61, 0
1, 78120, Note_on_c, 0, 73, 79
1, 78120, Note_on_c, 0, 61, 67
1, 78228, Note_on_c, 0, 61, 0
1, 78228, Note_on_c, 0, 73, 0
1, 78240, Tempo, 421053
1, 78240, Note_on_c, 0, 61, 67
1, 78240, Note_on_c, 0, 73, 79
1, 78384, Note_on_c, 0, 73, 0
1, 78384, Note_on_c, 0, 61, 0
1, 78400, Note_on_c, 0, 61, 67
1, 78400, Note_on_c, 0, 73, 79
1, 78544, Note_on_c, 0, 73, 0
1, 78544, Note_on_c, 0, 61, 0
1, 78560, Note_on_c, 0, 73, 79
1, 78560, Note_on_c, 0, 61, 67
1, 78704, Note_on_c, 0, 61, 0
1, 78704, Note_on_c, 0, 73, 0
1, 78720, Tempo, 434783
1, 78720, Note_on_c, 0, 61, 76
1, 78720, Note_on_c, 0, 73, 90
1, 79070, Note_on_c, 0, 73, 0
1, 79070, Note_on_c, 0, 61, 0
1, 79080, Note_on_c, 0, 73, 73
1, 79080, Note_on_c, 0, 61, 62
1, 79188, Note_on_c, 0, 61, 0
1, 79188, Note_on_c, 0, 73, 0
1, 79200, Tempo, 449438
1, 79200, Note_on_c, 0, 53, 0
1, 79200, Note_on_c, 0, 41, 0
1, 79200, Note_on_c, 0, 61, 62
1, 79200, Note_on_c, 0, 73, 73
1, 79200, Note_on_c, 0, 52, 83
1, 79200, Note_on_c, 0, 40, 70
1, 79210, Control_c, 0, 64, 0
1, 79297, Control_c, 0, 64, 127
1, 79344, Note_on_c, 0, 73, 0
1, 79344, Note_on_c, 0, 61, 0
1, 79360, Note_on_c, 0, 52, 0
1, 79360, Note_on_c, 0, 40, 0
1, 79360, Note_on_c, 0, 61, 62
1, 79360, Note_on_c, 0, 73, 73
1, 79360, Note_on_c, 0, 53, 78
1, 79360, Note_on_c, 0, 41, 66
1, 79440, Tempo, 461538
1, 79504, Note_on_c, 0, 73, 0
1, 79504, Note_on_c, 0, 61, 0
1, 79520, Note_on_c, 0, 53, 0
1, 79520, Note_on_c, 0, 41, 0
1, 79520, Note_on_c, 0, 73, 73
1, 79520, Note_on_c, 0, 61, 62
1, 79520, Note_on_c, 0, 40, 66
1, 79520, Note_on_c, 0, 52, 78
1, 79664, Note_on_c, 0, 61, 0
1, 79664, Note_on_c, 0, 73, 0
1, 79680, Tempo, 442804
1, 79680, Note_on_c, 0, 40, 0
1, 79680, Note_on_c, 0, 52, 0
1, 79680, Note_on_c, 0, 69, 78
1, 79680, Note_on_c, 0, 81, 92
1, 79680, Note_on_c, 0, 49, 92
1, 79680, Note_on_c, 0, 37, 78
1, 79694, Control_c, 0, 64, 0
1, 79836, Control_c, 0, 64, 127
1, 80030, Note_on_c, 0, 81, 0
1, 80040, Note_on_c, 0, 69, 0
1, 80040, Note_on_c, 0, 80, 78
1, 80040, Note_on_c, 0, 68, 66
1, 80148, Note_on_c, 0, 68, 0
1, 80148, Note_on_c, 0, 80, 0
1, 80160, Tempo, 422535
1, 80160, Note_on_c, 0, 68, 66
1, 80160, Note_on_c, 0, 80, 78
1, 80304, Note_on_c, 0, 80, 0
1, 80304, Note_on_c, 0, 68, 0
1, 80320, Note_on_c, 0, 68, 66
1, 80320, Note_on_c, 0, 80, 78
1, 80464, Note_on_c, 0, 80, 0
1, 80464, Note_on_c, 0, 68, 0
1, 80480, Note_on_c, 0, 68, 66
1, 80480, Note_on_c, 0, 80, 78
1, 80624, Note_on_c, 0, 80, 0
1, 80624, Note_on_c, 0, 68, 0
1, 80640, Tempo, 436364
1, 80640, Note_on_c, 0, 66, 72
1, 80640, Note_on_c, 0, 78, 85
1, 80654, Control_c, 0, 64, 0
1, 80753, Control_c, 0, 64, 127
1, 81000, Note_on_c, 0, 78, 0
1, 81000, Note_on_c, 0, 66, 0
1, 81000, Note_on_c, 0, 68, 62
1, 81000, Note_on_c, 0, 80, 73
1, 81108, Note_on_c, 0, 80, 0
1, 81108, Note_on_c, 0, 68, 0
1, 81120, Tempo, 424028
1, 81120, Note_on_c, 0, 80, 73
1, 81120, Note_on_c, 0, 68, 62
1, 81264, Note_on_c, 0, 68, 0
1, 81264, Note_on_c, 0, 80, 0
1, 81280, Note_on_c, 0, 68, 62
1, 81280, Note_on_c, 0, 80, 73
1, 81424, Note_on_c, 0, 80, 0
1, 81424, Note_on_c, 0, 68, 0
1, 81440, Note_on_c, 0, 80, 73
1, 81440, Note_on_c, 0, 68, 62
1, 81584, Note_on_c, 0, 68, 0
1, 81584, Note_on_c, 0, 80, 0
1, 81600, Tempo, 447761
1, 81600, Note_on_c, 0, 49, 0
1, 81600, Note_on_c, 0, 37, 0
1, 81600, Note_on_c, 0, 61, 78
1, 81600, Note_on_c, 0, 73, 92
1, 81600, Note_on_c, 0, 52, 94
1, 81600, Note_on_c, 0, 40, 79
1, 81611, Control_c, 0, 64, 0
1, 81720, Control_c, 0, 64, 127
1, 81950, Note_on_c, 0, 73, 0
1, 81950, Note_on_c, 0, 61, 0
1, 81960, Note_on_c, 0, 61, 67
1, 81960, Note_on_c, 0, 73, 79
1, 82068, Note_on_c, 0, 73, 0
1, 82068, Note_on_c, 0, 61, 0
1, 82080, Tempo, 422535
1, 82080, Note_on_c, 0, 52, 0
1, 82080, Note_on_c, 0, 40, 0
1, 82080, Note_on_c, 0, 73, 79
1, 82080, Note_on_c, 0, 61, 67
1, 82224, Note_on_c, 0, 61, 0
1, 82224, Note_on_c, 0, 73, 0
1, 82240, Note_on_c, 0, 61, 67
1, 82240, Note_on_c, 0, 73, 79
1, 82384, Note_on_c, 0, 73, 0
1, 82384, Note_on_c, 0, 61, 0
1, 82400, Note_on_c, 0, 73, 79
1, 82400, Note_on_c, 0, 61, 67
1, 82544, Note_on_c, 0, 61, 0
1, 82544, Note_on_c, 0, 73, 0
1, 82560, Tempo, 436364
1, 82560, Note_on_c, 0, 61, 76
1, 82560, Note_on_c, 0, 73, 90
1, 82910, Note_on_c, 0, 73, 0
1, 82910, Note_on_c, 0, 61, 0
1, 82920, Note_on_c, 0, 61, 58
1, 82920, Note_on_c, 0, 73, 69
1, 83028, Note_on_c, 0, 73, 0
1, 83028, Note_on_c, 0, 61, 0
1, 83040, Tempo, 444444
1, 83040, Note_on_c, 0, 73, 69
1, 83040, Note_on_c, 0, 61, 58
1, 83040, Note_on_c, 0, 34, 66
1, 83040, Note_on_c, 0, 46, 78
1, 83049, Control_c, 0, 64, 0
1, 83139, Control_c, 0, 64, 127
1, 83184, Note_on_c, 0, 61, 0
1, 83184, Note_on_c, 0, 73, 0
1, 83200, Note_on_c, 0, 61, 58
1, 83200, Note_on_c, 0, 73, 69
1, 83344, Note_on_c, 0, 73, 0
1, 83344, Note_on_c, 0, 61, 0
1, 83360, Note_on_c, 0, 73, 69
1, 83360, Note_on_c, 0, 61, 58
1, 83504, Note_on_c, 0, 61, 0
1, 83504, Note_on_c, 0, 73, 0
1, 83520, Note_on_c, 0, 34, 0
1, 83520, Note_on_c, 0, 46, 0
1, 83520, Note_on_c, 0, 61, 69
1, 83520, Note_on_c, 0, 73, 82
1, 83520, Note_on_c, 0, 51, 86
1, 83520, Note_on_c, 0, 39, 73
1, 83870, Note_on_c, 0, 73, 0
1, 83870, Note_on_c, 0, 61, 0
1, 83880, Note_on_c, 0, 61, 63
1, 83880, Note_on_c, 0, 73, 75
1, 83988, Note_on_c, 0, 73, 0
1, 83988, Note_on_c, 0, 61, 0
1, 84000, Tempo, 428571
1, 84000, Note_on_c, 0, 73, 75
1, 84000, Note_on_c, 0, 61, 63
1, 84144, Note_on_c, 0, 61, 0
1, 84144, Note_on_c, 0, 73, 0
1, 84160, Note_on_c, 0, 61, 63
1, 84160, Note_on_c, 0, 73, 75
1, 84240, Note_on_c, 0, 51, 0
1, 84240, Note_on_c, 0, 39, 0
1, 84240, Note_on_c, 0, 41, 68
1, 84240, Note_on_c, 0, 53, 80
1, 84304, Note_on_c, 0, 61, 0
1, 84304, Note_on_c, 0, 73, 0
1, 84320, Note_on_c, 0, 73, 75
1, 84320, Note_on_c, 0, 61, 63
1, 84464, Note_on_c, 0, 61, 0
1, 84464, Note_on_c, 0, 73, 0
1, 84480, Tempo, 444444
1, 84480, Note_on_c, 0, 41, 0
1, 84480, Note_on_c, 0, 53, 0
1, 84480, Note_on_c, 0, 61, 70
1, 84480, Note_on_c, 0, 73, 83
1, 84480, Note_on_c, 0, 42, 72
1, 84480, Note_on_c, 0, 54, 85
1, 84494, Control_c, 0, 64, 0
1, 84565, Control_c, 0, 64, 127
1, 84830, Note_on_c, 0, 73, 0
1, 84830, Note_on_c, 0, 61, 0
1, 84840, Note_on_c, 0, 61, 62
1, 84840, Note_on_c, 0, 73, 73
1, 84948, Note_on_c, 0, 73, 0
1, 84948, Note_on_c, 0, 61, 0
1, 84960, Tempo, 449438
1, 84960, Note_on_c, 0, 42, 0
1, 84960, Note_on_c, 0, 54, 0
1, 84960, Note_on_c, 0, 61, 62
1, 84960, Note_on_c, 0, 73, 73
1, 84960, Note_on_c, 0, 57, 88
1, 84960, Note_on_c, 0, 45, 74
1, 84971, Control_c, 0, 64, 0
1, 85052, Control_c, 0, 64, 127
1, 85104, Note_on_c, 0, 73, 0
1, 85104, Note_on_c, 0, 61, 0
1, 85120, Note_on_c, 0, 73, 73
1, 85120, Note_on_c, 0, 61, 62
1, 85264, Note_on_c, 0, 61, 0
1, 85264, Note_on_c, 0, 73, 0
1, 85280, Note_on_c, 0, 61, 62
1, 85280, Note_on_c, 0, 73, 73
1, 85424, Note_on_c, 0, 73, 0
1, 85424, Note_on_c, 0, 61, 0
1, 85440, Tempo, 442804
1, 85440, Note_on_c, 0, 57, 0
1, 85440, Note_on_c, 0, 45, 0
1, 85440, Note_on_c, 0, 73, 88
1, 85440, Note_on_c, 0, 61, 74
1, 85440, Note_on_c, 0, 46, 78
1, 85440, Note_on_c, 0, 58, 92
1, 85451, Control_c, 0, 64, 0
1, 85553, Control_c, 0, 64, 127
1, 85790, Note_on_c, 0, 61, 0
1, 85790, Note_on_c, 0, 73, 0
1, 85800, Note_on_c, 0, 61, 67
1, 85800, Note_on_c, 0, 73, 79
1, 85908, Note_on_c, 0, 73, 0
1, 85908, Note_on_c, 0, 61, 0
1, 85920, Tempo, 430108
1, 85920, Note_on_c, 0, 61, 67
1, 85920, Note_on_c, 0, 73, 79
1, 86064, Note_on_c, 0, 73, 0
1, 86064, Note_on_c, 0, 61, 0
1, 86080, Note_on_c, 0, 73, 79
1, 86080, Note_on_c, 0, 61, 67
1, 86224, Note_on_c, 0, 61, 0
1, 86224, Note_on_c, 0, 73, 0
1, 86240, Note_on_c, 0, 61, 67
1, 86240, Note_on_c, 0, 73, 79
1, 86384, Note_on_c, 0, 73, 0
1, 86384, Note_on_c, 0, 61, 0
1, 86400, Tempo, 446097
1, 86400, Note_on_c, 0, 46, 0
1, 86400, Note_on_c, 0, 58, 0
1, 86400, Note_on_c, 0, 73, 90
1, 86400, Note_on_c, 0, 61, 76
1, 86400, Note_on_c, 0, 44, 77
1, 86400, Note_on_c, 0, 56, 91
1, 86407, Control_c, 0, 64, 0
1, 86478, Control_c, 0, 64, 127
1, 86750, Note_on_c, 0, 61, 0
1, 86750, Note_on_c, 0, 73, 0
1, 86760, Note_on_c, 0, 61, 66
1, 86760, Note_on_c, 0, 73, 78
1, 86868, Note_on_c, 0, 73, 0
1, 86868, Note_on_c, 0, 61, 0
1, 86880, Tempo, 452830
1, 86880, Note_on_c, 0, 44, 0
1, 86880, Note_on_c, 0, 56, 0
1, 86880, Note_on_c, 0, 61, 66
1, 86880, Note_on_c, 0, 73, 78
1, 86880, Note_on_c, 0, 54, 85
1, 86880, Note_on_c, 0, 42, 72
1, 86894, Control_c, 0, 64, 0
1, 86958, Control_c, 0, 64, 127
1, 87024, Note_on_c, 0, 73, 0
1, 87024, Note_on_c, 0, 61, 0
1, 87040, Note_on_c, 0, 73, 78
1, 87040, Note_on_c, 0, 61, 66
1, 87184, Note_on_c, 0, 61, 0
1, 87184, Note_on_c, 0, 73, 0
1, 87200, Note_on_c, 0, 61, 65
1, 87200, Note_on_c, 0, 73, 77
1, 87344, Note_on_c, 0, 73, 0
1, 87344, Note_on_c, 0, 61, 0
1, 87360, Tempo, 463320
1, 87360, Note_on_c, 0, 54, 0
1, 87360, Note_on_c, 0, 42, 0
1, 87360, Note_on_c, 0, 73, 88
1, 87360, Note_on_c, 0, 61, 74
1, 87360, Note_on_c, 0, 45, 79
1, 87360, Note_on_c, 0, 57, 94
1, 87371, Control_c, 0, 64, 0
1, 87452, Control_c, 0, 64, 127
1, 87710, Note_on_c, 0, 61, 0
1, 87710, Note_on_c, 0, 73, 0
1, 87720, Note_on_c, 0, 61, 68
1, 87720, Note_on_c, 0, 73, 80
1, 87828, Note_on_c, 0, 73, 0
1, 87828, Note_on_c, 0, 61, 0
1, 87840, Tempo, 470588
1, 87840, Note_on_c, 0, 45, 0
1, 87840, Note_on_c, 0, 57, 0
1, 87840, Note_on_c, 0, 61, 68
1, 87840, Note_on_c, 0, 73, 80
1, 87840, Note_on_c, 0, 42, 75
1, 87840, Note_on_c, 0, 54, 89
1, 87850, Control_c, 0, 64, 0
1, 87925, Control_c, 0, 64, 127
1, 87984, Note_on_c, 0, 73, 0
1, 87984, Note_on_c, 0, 61, 0
1, 88000, Note_on_c, 0, 73, 80
1, 88000, Note_on_c, 0, 61, 68
1, 88080, Tempo, 483871
1, 88080, Note_on_c, 0, 42, 0
1, 88080, Note_on_c, 0, 54, 0
1, 88080, Note_on_c, 0, 41, 71
1, 88080, Note_on_c, 0, 53, 84
1, 88144, Note_on_c, 0, 73, 0
1, 88144, Note_on_c, 0, 61, 0
1, 88160, Note_on_c, 0, 61, 67
1, 88160, Note_on_c, 0, 73, 79
1, 88304, Note_on_c, 0, 73, 0
1, 88304, Note_on_c, 0, 61, 0
1, 88320, Tempo, 452830
1, 88320, Note_on_c, 0, 41, 0
1, 88320, Note_on_c, 0, 53, 0
1, 88320, Note_on_c, 0, 81, 92
1, 88320, Note_on_c, 0, 69, 78
1, 88320, Note_on_c, 0, 53, 83
1, 88320, Note_on_c, 0, 41, 70
1, 88329, Control_c, 0, 64, 0
1, 88461, Control_c, 0, 64, 127
1, 88680, Note_on_c, 0, 69, 0
1, 88680, Note_on_c, 0, 81, 0
1, 88680, Note_on_c, 0, 80, 78
1, 88680, Note_on_c, 0, 68, 66
1, 88788, Note_on_c, 0, 68, 0
1, 88788, Note_on_c, 0, 80, 0
1, 88800, Tempo, 424028
1, 88800, Note_on_c, 0, 53, 0
1, 88800, Note_on_c, 0, 41, 0
1, 88800, Note_on_c, 0, 68, 66
1, 88800, Note_on_c, 0, 80, 78
1, 88944, Note_on_c, 0, 80, 0
1, 88944, Note_on_c, 0, 68, 0
1, 88960, Note_on_c, 0, 80, 78
1, 88960, Note_on_c, 0, 68, 66
1, 89104, Note_on_c, 0, 68, 0
1, 89104, Note_on_c, 0, 80, 0
1, 89120, Note_on_c, 0, 68, 66
1, 89120, Note_on_c, 0, 80, 78
1, 89264, Note_on_c, 0, 80, 0
1, 89264, Note_on_c, 0, 68, 0
1, 89280, Tempo, 442804
1, 89280, Note_on_c, 0, 66, 72
1, 89280, Note_on_c, 0, 78, 85
1, 89289, Control_c, 0, 64, 0
1, 89372, Control_c, 0, 64, 127
1, 89640, Note_on_c, 0, 78, 0
1, 89640, Note_on_c, 0, 66, 0
1, 89640, Note_on_c, 0, 80, 73
1, 89640, Note_on_c, 0, 68, 62
1, 89748, Note_on_c, 0, 68, 0
1, 89748, Note_on_c, 0, 80, 0
1, 89760, Tempo, 424028
1, 89760, Note_on_c, 0, 68, 62
1, 89760, Note_on_c, 0, 80, 73
1, 89904, Note_on_c, 0, 80, 0
1, 89904, Note_on_c, 0, 68, 0
1, 89920, Note_on_c, 0, 80, 73
1, 89920, Note_on_c, 0, 68, 62
1, 90064, Note_on_c, 0, 68, 0
1, 90064, Note_on_c, 0, 80, 0
1, 90080, Note_on_c, 0, 68, 62
1, 90080, Note_on_c, 0, 80, 73
1, 90224, Note_on_c, 0, 80, 0
1, 90224, Note_on_c, 0, 68, 0
1, 90240, Tempo, 452830
1, 90240, Note_on_c, 0, 61, 76
1, 90240, Note_on_c, 0, 73, 90
1, 90250, Control_c, 0, 64, 0
1, 90318, Control_c, 0, 64, 127
1, 90590, Note_on_c, 0, 73, 0
1, 90590, Note_on_c, 0, 61, 0
1, 90600, Note_on_c, 0, 73, 73
1, 90600, Note_on_c, 0, 61, 62
1, 90708, Note_on_c, 0, 61, 0
1, 90708, Note_on_c, 0, 73, 0
1, 90720, Tempo, 444444
1, 90720, Note_on_c, 0, 61, 62
1, 90720, Note_on_c, 0, 73, 73
1, 90720, Note_on_c, 0, 34, 73
1, 90720, Note_on_c, 0, 46, 86
1, 90729, Control_c, 0, 64, 0
1, 90791, Control_c, 0, 64, 127
1, 90864, Note_on_c, 0, 73, 0
1, 90864, Note_on_c, 0, 61, 0
1, 90880, Note_on_c, 0, 73, 73
1, 90880, Note_on_c, 0, 61, 62
1, 91024, Note_on_c, 0, 61, 0
1, 91024, Note_on_c, 0, 73, 0
1, 91040, Note_on_c, 0, 61, 62
1, 91040, Note_on_c, 0, 73, 73
1, 91184, Note_on_c, 0, 73, 0
1, 91184, Note_on_c, 0, 61, 0
1, 91200, Note_on_c, 0, 34, 0
1, 91200, Note_on_c, 0, 46, 0
1, 91200, Note_on_c, 0, 61, 78
1, 91200, Note_on_c, 0, 73, 92
1, 91200, Note_on_c, 0, 51, 94
1, 91200, Note_on_c, 0, 39, 79
1, 91550, Note_on_c, 0, 73, 0
1, 91550, Note_on_c, 0, 61, 0
1, 91560, Note_on_c, 0, 73, 79
1, 91560, Note_on_c, 0, 61, 67
1, 91668, Note_on_c, 0, 61, 0
1, 91668, Note_on_c, 0, 73, 0
1, 91680, Tempo, 434783
1, 91680, Note_on_c, 0, 61, 67
1, 91680, Note_on_c, 0, 73, 79
1, 91824, Note_on_c, 0, 73, 0
1, 91824, Note_on_c, 0, 61, 0
1, 91840, Note_on_c, 0, 73, 79
1, 91840, Note_on_c, 0, 61, 67
1, 91920, Note_on_c, 0, 51, 0
1, 91920, Note_on_c, 0, 39, 0
1, 91920, Note_on_c, 0, 41, 72
1, 91920, Note_on_c, 0, 53, 85
1, 91984, Note_on_c, 0, 73, 0
1, 91984, Note_on_c, 0, 61, 0
1, 92000, Note_on_c, 0, 61, 67
1, 92000, Note_on_c, 0, 73, 79
1, 92144, Note_on_c, 0, 73, 0
1, 92144, Note_on_c, 0, 61, 0
1, 92160, Note_on_c, 0, 41, 0
1, 92160, Note_on_c, 0, 53, 0
1, 92160, Note_on_c, 0, 61, 76
1, 92160, Note_on_c, 0, 73, 90
1, 92160, Note_on_c, 0, 42, 74
1, 92160, Note_on_c, 0, 54, 88
1, 92178, Control_c, 0, 64, 0
1, 92200, Tempo, 449438
1, 92259, Control_c, 0, 64, 127
1, 92510, Note_on_c, 0, 73, 0
1, 92510, Note_on_c, 0, 61, 0
1, 92520, Note_on_c, 0, 61, 62
1, 92520, Note_on_c, 0, 73, 73
1, 92628, Note_on_c, 0, 73, 0
1, 92628, Note_on_c, 0, 61, 0
1, 92640, Tempo, 456274
1, 92640, Note_on_c, 0, 42, 0
1, 92640, Note_on_c, 0, 54, 0
1, 92640, Note_on_c, 0, 61, 62
1, 92640, Note_on_c, 0, 73, 73
1, 92640, Note_on_c, 0, 45, 78
1, 92640, Note_on_c, 0, 57, 92
1, 92650, Control_c, 0, 64, 0
1, 92732, Control_c, 0, 64, 127
1, 92784, Note_on_c, 0, 73, 0
1, 92784, Note_on_c, 0, 61, 0
1, 92800, Note_on_c, 0, 61, 62
1, 92800, Note_on_c, 0, 73, 73
1, 92944, Note_on_c, 0, 73, 0
1, 92944, Note_on_c, 0, 61, 0
1, 92960, Note_on_c, 0, 73, 73
1, 92960, Note_on_c, 0, 61, 62
1, 93104, Note_on_c, 0, 61, 0
1, 93104, Note_on_c, 0, 73, 0
1, 93120, Tempo, 446097
1, 93120, Note_on_c, 0, 45, 0
1, 93120, Note_on_c, 0, 57, 0
1, 93120, Note_on_c, 0, 61, 74
1, 93120, Note_on_c, 0, 73, 88
1, 93120, Note_on_c, 0, 46, 79
1, 93120, Note_on_c, 0, 58, 94
1, 93141, Control_c, 0, 64, 0
1, 93240, Control_c, 0, 64, 127
1, 93470, Note_on_c, 0, 73, 0
1, 93470, Note_on_c, 0, 61, 0
1, 93480, Note_on_c, 0, 73, 79
1, 93480, Note_on_c, 0, 61, 67
1, 93588, Note_on_c, 0, 61, 0
1, 93588, Note_on_c, 0, 73, 0
1, 93600, Tempo, 436364
1, 93600, Note_on_c, 0, 61, 67
1, 93600, Note_on_c, 0, 73, 79
1, 93744, Note_on_c, 0, 73, 0
1, 93744, Note_on_c, 0, 61, 0
1, 93760, Note_on_c, 0, 61, 67
1, 93760, Note_on_c, 0, 73, 79
1, 93904, Note_on_c, 0, 73, 0
1, 93904, Note_on_c, 0, 61, 0
1, 93920, Note_on_c, 0, 73, 79
1, 93920, Note_on_c, 0, 61, 67
1, 94064, Note_on_c, 0, 61, 0
1, 94064, Note_on_c, 0, 73, 0
1, 94080, Tempo, 451128
1, 94080, Note_on_c, 0, 46, 0
1, 94080, Note_on_c, 0, 58, 0
1, 94080, Note_on_c, 0, 61, 76
1, 94080, Note_on_c, 0, 73, 90
1, 94080, Note_on_c, 0, 57, 94
1, 94080, Note_on_c, 0, 45, 79
1, 94094, Control_c, 0, 64, 0
1, 94186, Control_c, 0, 64, 127
1, 94430, Note_on_c, 0, 73, 0
1, 94430, Note_on_c, 0, 61, 0
1, 94440, Note_on_c, 0, 73, 82
1, 94440, Note_on_c, 0, 61, 69
1, 94548, Note_on_c, 0, 61, 0
1, 94548, Note_on_c, 0, 73, 0
1, 94560, Tempo, 452830
1, 94560, Note_on_c, 0, 57, 0
1, 94560, Note_on_c, 0, 45, 0
1, 94560, Note_on_c, 0, 61, 68
1, 94560, Note_on_c, 0, 73, 81
1, 94560, Note_on_c, 0, 42, 76
1, 94560, Note_on_c, 0, 54, 90
1, 94578, Control_c, 0, 64, 0
1, 94666, Control_c, 0, 64, 127
1, 94704, Note_on_c, 0, 73, 0
1, 94704, Note_on_c, 0, 61, 0
1, 94720, Note_on_c, 0, 61, 68
1, 94720, Note_on_c, 0, 73, 81
1, 94864, Note_on_c, 0, 73, 0
1, 94864, Note_on_c, 0, 61, 0
1, 94880, Note_on_c, 0, 73, 81
1, 94880, Note_on_c, 0, 61, 68
1, 95024, Note_on_c, 0, 61, 0
1, 95024, Note_on_c, 0, 73, 0
1, 95040, Tempo, 463320
1, 95040, Note_on_c, 0, 42, 0
1, 95040, Note_on_c, 0, 54, 0
1, 95040, Note_on_c, 0, 61, 80
1, 95040, Note_on_c, 0, 73, 95
1, 95040, Note_on_c, 0, 44, 86
1, 95040, Note_on_c, 0, 56, 102
1, 95049, Control_c, 0, 64, 0
1, 95153, Control_c, 0, 64, 127
1, 95390, Note_on_c, 0, 73, 0
1, 95390, Note_on_c, 0, 61, 0
1, 95400, Note_on_c, 0, 73, 78
1, 95400, Note_on_c, 0, 61, 66
1, 95508, Note_on_c, 0, 61, 0
1, 95508, Note_on_c, 0, 73, 0
1, 95520, Tempo, 478088
1, 95520, Note_on_c, 0, 44, 0
1, 95520, Note_on_c, 0, 56, 0
1, 95520, Note_on_c, 0, 61, 67
1, 95520, Note_on_c, 0, 73, 79
1, 95520, Note_on_c, 0, 42, 84
1, 95520, Note_on_c, 0, 54, 99
1, 95537, Control_c, 0, 64, 0
1, 95598, Control_c, 0, 64, 127
1, 95664, Note_on_c, 0, 73, 0
1, 95664, Note_on_c, 0, 61, 0
1, 95680, Note_on_c, 0, 61, 69
1, 95680, Note_on_c, 0, 73, 82
1, 95760, Tempo, 519481
1, 95760, Note_on_c, 0, 42, 0
1, 95760, Note_on_c, 0, 54, 0
1, 95760, Note_on_c, 0, 41, 79
1, 95760, Note_on_c, 0, 53, 93
1, 95824, Note_on_c, 0, 61, 0
1, 95824, Note_on_c, 0, 73, 0
1, 95840, Note_on_c, 0, 73, 84
1, 95840, Note_on_c, 0, 61, 71
1, 95984, Note_on_c, 0, 61, 0
1, 95984, Note_on_c, 0, 73, 0
1, 96000, Note_on_c, 0, 41, 0
1, 96000, Note_on_c, 0, 53, 0
1, 96000, Note_on_c, 0, 61, 80
1, 96000, Note_on_c, 0, 65, 80
1, 96000, Note_on_c, 0, 73, 95
1, 96000, Note_on_c, 0, 69, 80
1, 96000, Note_on_c, 0, 53, 84
1, 96000, Note_on_c, 0, 57, 101
1, 96013, Control_c, 0, 64, 0
1, 96106, Control_c, 0, 64, 127
1, 96480, Note_on_c, 0, 57, 0
1, 96480, Note_on_c, 0, 65, 0
1, 96480, Note_on_c, 0, 73, 0
1, 96480, Note_on_c, 0, 61, 0
1, 96480, Note_on_c, 0, 53, 0
1, 96480, Note_on_c, 0, 69, 0
1, 96487, Control_c, 0, 64, 0
1, 97920, Tempo, 588813
1, 97920, Note_on_c, 0, 65, 54
1, 97920, Note_on_c, 0, 41, 49
1, 97920, Note_on_c, 0, 53, 49
1, 98005, Control_c, 0, 64, 127
1, 98880, Tempo, 594118
1, 98880, Note_on_c, 0, 53, 0
1, 98880, Note_on_c, 0, 41, 0
1, 98880, Note_on_c, 0, 65, 0
1, 98880, Note_on_c, 0, 60, 62
1, 98880, Note_on_c, 0, 64, 62
1, 98880, Note_on_c, 0, 53, 57
1, 98880, Note_on_c, 0, 46, 57
1, 98888, Control_c, 0, 64, 0
1, 98937, Control_c, 0, 64, 127
1, 99840, Note_on_c, 0, 53, 0
1, 99840, Note_on_c, 0, 60, 0
1, 99840, Note_on_c, 0, 64, 0
1, 99840, Note_on_c, 0, 63, 68
1, 99840, Note_on_c, 0, 60, 68
1, 99840, Note_on_c, 0, 54, 59
1, 99857, Control_c, 0, 64, 0
1, 99915, Control_c, 0, 64, 127
1, 100320, Tempo, 602228
1, 100320, Note_on_c, 0, 63, 0
1, 100320, Note_on_c, 0, 62, 63
1, 100332, Control_c, 0, 64, 0
1, 100372, Control_c, 0, 64, 127
1, 100480, Tempo, 563380
1, 100480, Note_on_c, 0, 62, 0
1, 100480, Note_on_c, 0, 63, 67
1, 100640, Tempo, 603015
1, 100640, Note_on_c, 0, 63, 0
1, 100640, Note_on_c, 0, 62, 63
1, 100760, Tempo, 622019
1, 100800, Tempo, 621762
1, 100800, Note_on_c, 0, 62, 0
1, 100800, Note_on_c, 0, 54, 0
1, 100800, Note_on_c, 0, 60, 0
1, 100800, Note_on_c, 0, 58, 59
1, 100800, Note_on_c, 0, 61, 59
1, 100800, Note_on_c, 0, 53, 52
1, 100815, Control_c, 0, 64, 0
1, 100909, Control_c, 0, 64, 127
1, 101760, Tempo, 860338
1, 101760, Note_on_c, 0, 61, 0
1, 101760, Note_on_c, 0, 58, 0
1, 101760, Note_on_c, 0, 60, 56
1, 101760, Note_on_c, 0, 57, 56
1, 101772, Control_c, 0, 64, 0
1, 101835, Control_c, 0, 64, 127
1, 102123, Control_c, 0, 64, 0
1, 102180, Tempo, 603015
1, 102180, Note_on_c, 0, 57, 0
1, 102180, Note_on_c, 0, 60, 0
1, 102180, Note_on_c, 0, 46, 0
1, 102180, Note_on_c, 0, 64, 86
1, 102180, Note_on_c, 0, 40, 71
1, 102240, Note_on_c, 0, 40, 0
1, 102240, Note_on_c, 0, 64, 0
1, 102240, Note_on_c, 0, 53, 0
1, 102240, Note_on_c, 0, 65, 100
1, 102240, Note_on_c, 0, 41, 80
1, 102480, Tempo, 1113379
1, 102480, Note_on_c, 0, 41, 0
1, 102480, Note_on_c, 0, 65, 0
1, 102720, Tempo, 603015
1, 102720, Note_on_c, 0, 64, 62
1, 102720, Note_on_c, 0, 60, 62
1, 102720, Note_on_c, 0, 46, 57
1, 102720, Note_on_c, 0, 53, 57
1, 102795, Control_c, 0, 64, 127
1, 103680, Note_on_c, 0, 53, 0
1, 103680, Note_on_c, 0, 64, 0
1, 103680, Note_on_c, 0, 60, 0
1, 103680, Note_on_c, 0, 63, 68
1, 103680, Note_on_c, 0, 59, 68
1, 103680, Note_on_c, 0, 54, 59
1, 103686, Control_c, 0, 64, 0
1, 103752, Control_c, 0, 64, 127
1, 104160, Tempo, 602228
1, 104160, Note_on_c, 0, 63, 0
1, 104160, Note_on_c, 0, 62, 63
1, 104172, Control_c, 0, 64, 0
1, 104200, Tempo, 599460
1, 104243, Control_c, 0, 64, 127
1, 104320, Tempo, 571429
1, 104320, Note_on_c, 0, 62, 0
1, 104320, Note_on_c, 0, 63, 67
1, 104480, Tempo, 618557
1, 104480, Note_on_c, 0, 63, 0
1, 104480, Note_on_c, 0, 62, 63
1, 104640, Tempo, 624935
1, 104640, Note_on_c, 0, 62, 0
1, 104640, Note_on_c, 0, 54, 0
1, 104640, Note_on_c, 0, 59, 0
1, 104640, Note_on_c, 0, 58, 59
1, 104640, Note_on_c, 0, 61, 59
1, 104640, Note_on_c, 0, 53, 52
1, 104657, Control_c, 0, 64, 0
1, 104815, Control_c, 0, 64, 127
1, 105600, Tempo, 860338
1, 105600, Note_on_c, 0, 61, 0
1, 105600, Note_on_c, 0, 58, 0
1, 105600, Note_on_c, 0, 57, 56
1, 105600, Note_on_c, 0, 60, 56
1, 105606, Control_c, 0, 64, 0
1, 105686, Control_c, 0, 64, 127
1, 105963, Control_c, 0, 64, 0
1, 106020, Tempo, 606061
1, 106020, Note_on_c, 0, 60, 0
1, 106020, Note_on_c, 0, 57, 0
1, 106020, Note_on_c, 0, 46, 0
1, 106020, Note_on_c, 0, 64, 86
1, 106020, Note_on_c, 0, 40, 71
1, 106080, Note_on_c, 0, 40, 0
1, 106080, Note_on_c, 0, 64, 0
1, 106080, Note_on_c, 0, 53, 0
1, 106080, Note_on_c, 0, 65, 100
1, 106080, Note_on_c, 0, 41, 80
1, 106320, Note_on_c, 0, 41, 0
1, 106320, Note_on_c, 0, 65, 0
1, 106560, Tempo, 659123
1, 107280, Note_on_c, 0, 64, 93
1, 107280, Note_on_c, 0, 52, 81
1, 107289, Control_c, 0, 64, 127
1, 107360, Note_on_c, 0, 52, 0
1, 107360, Note_on_c, 0, 64, 0
1, 107360, Note_on_c, 0, 65, 93
1, 107360, Note_on_c, 0, 53, 81
1, 107440, Note_on_c, 0, 53, 0
1, 107440, Note_on_c, 0, 65, 0
1, 107440, Note_on_c, 0, 64, 93
1, 107440, Note_on_c, 0, 52, 81
1, 107520, Note_on_c, 0, 52, 0
1, 107520, Note_on_c, 0, 64, 0
1, 107520, Note_on_c, 0, 61, 100
1, 107520, Note_on_c, 0, 49, 86
1, 107529, Control_c, 0, 64, 0
1, 107609, Control_c, 0, 64, 127
1, 108960, Note_on_c, 0, 49, 0
1, 108960, Note_on_c, 0, 61, 0
1, 108975, Control_c, 0, 64, 0
1, 109920, Tempo, 748503
1, 109920, Note_on_c, 0, 84, 100
1, 109920, Note_on_c, 0, 72, 90
1, 109920, Note_on_c, 0, 36, 72
1, 109920, Note_on_c, 0, 48, 80
1, 109937, Control_c, 0, 64, 127
1, 110080, Note_on_c, 0, 48, 0
1, 110080, Note_on_c, 0, 84, 0
1, 110080, Note_on_c, 0, 72, 0
1, 110080, Note_on_c, 0, 36, 0
1, 110080, Note_on_c, 0, 85, 96
1, 110080, Note_on_c, 0, 73, 86
1, 110080, Note_on_c, 0, 37, 68
1, 110080, Note_on_c, 0, 49, 76
1, 110091, Control_c, 0, 64, 0
1, 110117, Control_c, 0, 64, 127
1, 110240, Note_on_c, 0, 49, 0
1, 110240, Note_on_c, 0, 85, 0
1, 110240, Note_on_c, 0, 73, 0
1, 110240, Note_on_c, 0, 37, 0
1, 110240, Note_on_c, 0, 70, 85
1, 110240, Note_on_c, 0, 82, 95
1, 110240, Note_on_c, 0, 46, 77
1, 110240, Note_on_c, 0, 34, 69
1, 110251, Control_c, 0, 64, 0
1, 110280, Tempo, 838574
1, 110292, Control_c, 0, 64, 127
1, 110384, Note_on_c, 0, 34, 0
1, 110384, Note_on_c, 0, 70, 0
1, 110384, Note_on_c, 0, 82, 0
1, 110384, Note_on_c, 0, 46, 0
1, 110400, Tempo, 459770
1, 110400, Note_on_c, 0, 70, 90
1, 110400, Note_on_c, 0, 82, 100
1, 110400, Note_on_c, 0, 46, 81
1, 110400, Note_on_c, 0, 34, 72
1, 113280, Note_on_c, 0, 34, 0
1, 113280, Note_on_c, 0, 70, 0
1, 113280, Note_on_c, 0, 82, 0
1, 113280, Note_on_c, 0, 46, 0
1, 117680, Control_c, 0, 64, 0
1, 118080, Tempo, 500000
1, 118080, End_track
0, 0, End_of_file
