0, 0, Header, 0, 1, 480
1, 0, Start_track
1, 0, Title_t, "Bilder einer Ausstellung"
1, 0, Title_t, "Bydlo"
1, 0, Copyright_t, "Copyright © 2000 by Bernd Krueger"
1, 0, Text_t, "Modest Mussorgski"
1, 0, Text_t, "Fertiggestellt am 23.1.2000\012"
1, 0, Text_t, "Update am 5.2.2000\012"
1, 0, Text_t, "Updated am 13.2.2000\012"
1, 0, Text_t, "Korrektur am 25.6.2000\012"
1, 0, Text_t, "Update am 1.7.2000\012"
1, 0, Text_t, "Update am 18.11.2000\012"
1, 0, Text_t, "Normierung: 23.12.2002\012"
1, 0, Text_t, "Update am 21.8.2008\012"
1, 0, Text_t, "Update am 19.11.2013\012"
1, 0, Text_t, "Dauer: 2:53 Minuten\012"
1, 0, SMPTE_offset, 96, 0, 3, 0, 0
1, 0, Time_signature, 4, 2, 24, 8
1, 0, Key_signature, 5, "major"
1, 0, Tempo, 666667
1, 0, Program_c, 0, 0
1, 0, Control_c, 0, 7, 100
1, 0, Control_c, 0, 10, 64
1, 0, Control_c, 0, 91, 127
1, 0, Text_t, "bdca426d104a26ac9dcb070447587523"
1, 0, Program_c, 0, 0
1, 0, Control_c, 0, 7, 100
1, 0, Control_c, 0, 10, 64
1, 0, Control_c, 0, 91, 127
1, 0, Note_on_c, 0, 32, 32
1, 0, Note_on_c, 0, 39, 32
1, 0, Note_on_c, 0, 44, 38
1, 27, Control_c, 0, 64, 127
1, 480, Note_on_c, 0, 44, 0
1, 480, Note_on_c, 0, 39, 0
1, 480, Note_on_c, 0, 32, 0
1, 480, Note_on_c, 0, 39, 29
1, 480, Note_on_c, 0, 35, 29
1, 480, Note_on_c, 0, 47, 35
1, 960, Note_on_c, 0, 47, 0
1, 960, Note_on_c, 0, 35, 0
1, 960, Note_on_c, 0, 39, 0
1, 960, Note_on_c, 0, 51, 57
1, 960, Note_on_c, 0, 32, 32
1, 960, Note_on_c, 0, 44, 38
1, 960, Note_on_c, 0, 39, 32
1, 965, Control_c, 0, 64, 0
1, 1227, Control_c, 0, 64, 127
1, 1440, Tempo, 655738
1, 1440, Note_on_c, 0, 39, 0
1, 1440, Note_on_c, 0, 44, 0
1, 1440, Note_on_c, 0, 32, 0
1, 1440, Note_on_c, 0, 39, 29
1, 1440, Note_on_c, 0, 47, 35
1, 1440, Note_on_c, 0, 35, 29
1, 1920, Tempo, 655738
1, 1920, Note_on_c, 0, 35, 0
1, 1920, Note_on_c, 0, 47, 0
1, 1920, Note_on_c, 0, 39, 0
1, 1920, Note_on_c, 0, 32, 32
1, 1920, Note_on_c, 0, 44, 38
1, 1920, Note_on_c, 0, 39, 32
1, 1922, Control_c, 0, 64, 0
1, 2061, Control_c, 0, 64, 127
1, 2400, Tempo, 652174
1, 2400, Note_on_c, 0, 39, 0
1, 2400, Note_on_c, 0, 51, 0
1, 2400, Note_on_c, 0, 32, 0
1, 2400, Note_on_c, 0, 44, 0
1, 2400, Note_on_c, 0, 54, 59
1, 2400, Note_on_c, 0, 35, 29
1, 2400, Note_on_c, 0, 47, 35
1, 2400, Note_on_c, 0, 39, 29
1, 2412, Control_c, 0, 64, 0
1, 2584, Control_c, 0, 64, 127
1, 2640, Note_on_c, 0, 54, 0
1, 2640, Note_on_c, 0, 52, 55
1, 2880, Tempo, 659341
1, 2880, Note_on_c, 0, 52, 0
1, 2880, Note_on_c, 0, 39, 0
1, 2880, Note_on_c, 0, 47, 0
1, 2880, Note_on_c, 0, 35, 0
1, 2880, Note_on_c, 0, 51, 59
1, 2880, Note_on_c, 0, 39, 32
1, 2880, Note_on_c, 0, 32, 32
1, 2880, Note_on_c, 0, 44, 38
1, 2892, Control_c, 0, 64, 0
1, 3078, Control_c, 0, 64, 127
1, 3360, Tempo, 655738
1, 3360, Note_on_c, 0, 44, 0
1, 3360, Note_on_c, 0, 51, 0
1, 3360, Note_on_c, 0, 39, 0
1, 3360, Note_on_c, 0, 32, 0
1, 3360, Note_on_c, 0, 52, 56
1, 3360, Note_on_c, 0, 39, 29
1, 3360, Note_on_c, 0, 35, 29
1, 3360, Note_on_c, 0, 47, 35
1, 3374, Control_c, 0, 64, 0
1, 3544, Control_c, 0, 64, 127
1, 3840, Tempo, 666667
1, 3840, Note_on_c, 0, 47, 0
1, 3840, Note_on_c, 0, 52, 0
1, 3840, Note_on_c, 0, 39, 0
1, 3840, Note_on_c, 0, 35, 0
1, 3840, Note_on_c, 0, 51, 59
1, 3840, Note_on_c, 0, 39, 32
1, 3840, Note_on_c, 0, 32, 32
1, 3840, Note_on_c, 0, 44, 38
1, 3843, Control_c, 0, 64, 0
1, 4053, Control_c, 0, 64, 127
1, 4320, Tempo, 645161
1, 4320, Note_on_c, 0, 44, 0
1, 4320, Note_on_c, 0, 51, 0
1, 4320, Note_on_c, 0, 39, 0
1, 4320, Note_on_c, 0, 32, 0
1, 4320, Note_on_c, 0, 56, 69
1, 4320, Note_on_c, 0, 39, 29
1, 4320, Note_on_c, 0, 47, 35
1, 4320, Note_on_c, 0, 35, 29
1, 4330, Control_c, 0, 64, 0
1, 4560, Control_c, 0, 64, 127
1, 4800, Tempo, 645161
1, 4800, Note_on_c, 0, 35, 0
1, 4800, Note_on_c, 0, 56, 0
1, 4800, Note_on_c, 0, 39, 0
1, 4800, Note_on_c, 0, 47, 0
1, 4800, Note_on_c, 0, 58, 70
1, 4800, Note_on_c, 0, 39, 35
1, 4800, Note_on_c, 0, 44, 42
1, 4800, Note_on_c, 0, 32, 35
1, 4813, Control_c, 0, 64, 0
1, 5040, Control_c, 0, 64, 127
1, 5280, Tempo, 655738
1, 5280, Note_on_c, 0, 32, 0
1, 5280, Note_on_c, 0, 58, 0
1, 5280, Note_on_c, 0, 39, 0
1, 5280, Note_on_c, 0, 44, 0
1, 5280, Note_on_c, 0, 59, 70
1, 5280, Note_on_c, 0, 39, 31
1, 5280, Note_on_c, 0, 35, 31
1, 5280, Note_on_c, 0, 47, 37
1, 5288, Control_c, 0, 64, 0
1, 5467, Control_c, 0, 64, 127
1, 5760, Tempo, 666667
1, 5760, Note_on_c, 0, 47, 0
1, 5760, Note_on_c, 0, 59, 0
1, 5760, Note_on_c, 0, 39, 0
1, 5760, Note_on_c, 0, 35, 0
1, 5760, Note_on_c, 0, 58, 73
1, 5760, Note_on_c, 0, 39, 36
1, 5760, Note_on_c, 0, 32, 36
1, 5760, Note_on_c, 0, 44, 43
1, 5763, Control_c, 0, 64, 0
1, 6000, Control_c, 0, 64, 127
1, 6240, Tempo, 659341
1, 6240, Note_on_c, 0, 44, 0
1, 6240, Note_on_c, 0, 32, 0
1, 6240, Note_on_c, 0, 39, 0
1, 6240, Note_on_c, 0, 39, 32
1, 6240, Note_on_c, 0, 35, 32
1, 6240, Note_on_c, 0, 47, 38
1, 6720, Tempo, 666667
1, 6720, Note_on_c, 0, 47, 0
1, 6720, Note_on_c, 0, 58, 0
1, 6720, Note_on_c, 0, 39, 0
1, 6720, Note_on_c, 0, 35, 0
1, 6720, Note_on_c, 0, 56, 67
1, 6720, Note_on_c, 0, 39, 32
1, 6720, Note_on_c, 0, 44, 38
1, 6720, Note_on_c, 0, 32, 32
1, 6733, Control_c, 0, 64, 0
1, 6880, Control_c, 0, 64, 127
1, 7200, Note_on_c, 0, 32, 0
1, 7200, Note_on_c, 0, 56, 0
1, 7200, Note_on_c, 0, 39, 0
1, 7200, Note_on_c, 0, 44, 0
1, 7200, Note_on_c, 0, 39, 29
1, 7200, Note_on_c, 0, 47, 35
1, 7200, Note_on_c, 0, 35, 29
1, 7680, Note_on_c, 0, 35, 0
1, 7680, Note_on_c, 0, 47, 0
1, 7680, Note_on_c, 0, 39, 0
1, 7680, Note_on_c, 0, 61, 73
1, 7680, Note_on_c, 0, 33, 38
1, 7680, Note_on_c, 0, 37, 38
1, 7680, Note_on_c, 0, 45, 45
1, 7817, Control_c, 0, 64, 127
1, 8160, Tempo, 655738
1, 8160, Note_on_c, 0, 45, 0
1, 8160, Note_on_c, 0, 37, 0
1, 8160, Note_on_c, 0, 33, 0
1, 8160, Note_on_c, 0, 37, 34
1, 8160, Note_on_c, 0, 49, 41
1, 8160, Note_on_c, 0, 40, 34
1, 8640, Tempo, 666667
1, 8640, Note_on_c, 0, 40, 0
1, 8640, Note_on_c, 0, 61, 0
1, 8640, Note_on_c, 0, 37, 0
1, 8640, Note_on_c, 0, 49, 0
1, 8640, Note_on_c, 0, 68, 69
1, 8640, Note_on_c, 0, 32, 37
1, 8640, Note_on_c, 0, 40, 44
1, 8640, Note_on_c, 0, 28, 37
1, 8645, Control_c, 0, 64, 0
1, 8869, Control_c, 0, 64, 127
1, 9120, Tempo, 655738
1, 9120, Note_on_c, 0, 28, 0
1, 9120, Note_on_c, 0, 68, 0
1, 9120, Note_on_c, 0, 32, 0
1, 9120, Note_on_c, 0, 40, 0
1, 9120, Note_on_c, 0, 35, 33
1, 9120, Note_on_c, 0, 44, 39
1, 9120, Note_on_c, 0, 32, 33
1, 9600, Tempo, 666667
1, 9600, Note_on_c, 0, 32, 0
1, 9600, Note_on_c, 0, 44, 0
1, 9600, Note_on_c, 0, 35, 0
1, 9600, Note_on_c, 0, 61, 74
1, 9600, Note_on_c, 0, 37, 38
1, 9600, Note_on_c, 0, 33, 38
1, 9600, Note_on_c, 0, 45, 45
1, 9605, Control_c, 0, 64, 0
1, 9829, Control_c, 0, 64, 127
1, 10080, Note_on_c, 0, 45, 0
1, 10080, Note_on_c, 0, 33, 0
1, 10080, Note_on_c, 0, 37, 0
1, 10080, Note_on_c, 0, 37, 33
1, 10080, Note_on_c, 0, 40, 33
1, 10080, Note_on_c, 0, 49, 39
1, 10560, Tempo, 648649
1, 10560, Note_on_c, 0, 49, 0
1, 10560, Note_on_c, 0, 61, 0
1, 10560, Note_on_c, 0, 37, 0
1, 10560, Note_on_c, 0, 40, 0
1, 10560, Note_on_c, 0, 68, 69
1, 10560, Note_on_c, 0, 28, 38
1, 10560, Note_on_c, 0, 32, 38
1, 10560, Note_on_c, 0, 40, 45
1, 10575, Control_c, 0, 64, 0
1, 10766, Control_c, 0, 64, 127
1, 11040, Tempo, 655738
1, 11040, Note_on_c, 0, 40, 0
1, 11040, Note_on_c, 0, 68, 0
1, 11040, Note_on_c, 0, 28, 0
1, 11040, Note_on_c, 0, 32, 0
1, 11040, Note_on_c, 0, 68, 67
1, 11040, Note_on_c, 0, 32, 34
1, 11040, Note_on_c, 0, 35, 34
1, 11040, Note_on_c, 0, 44, 40
1, 11520, Tempo, 666667
1, 11520, Note_on_c, 0, 44, 0
1, 11520, Note_on_c, 0, 68, 0
1, 11520, Note_on_c, 0, 32, 0
1, 11520, Note_on_c, 0, 35, 0
1, 11520, Note_on_c, 0, 63, 70
1, 11520, Note_on_c, 0, 34, 38
1, 11520, Note_on_c, 0, 31, 38
1, 11520, Note_on_c, 0, 43, 45
1, 11520, Control_c, 0, 64, 0
1, 11749, Control_c, 0, 64, 127
1, 12000, Tempo, 652174
1, 12000, Note_on_c, 0, 43, 0
1, 12000, Note_on_c, 0, 31, 0
1, 12000, Note_on_c, 0, 34, 0
1, 12000, Note_on_c, 0, 34, 29
1, 12000, Note_on_c, 0, 39, 29
1, 12000, Note_on_c, 0, 46, 35
1, 12480, Tempo, 666667
1, 12480, Note_on_c, 0, 46, 0
1, 12480, Note_on_c, 0, 63, 0
1, 12480, Note_on_c, 0, 34, 0
1, 12480, Note_on_c, 0, 39, 0
1, 12480, Note_on_c, 0, 61, 68
1, 12480, Note_on_c, 0, 31, 32
1, 12480, Note_on_c, 0, 34, 32
1, 12480, Note_on_c, 0, 43, 38
1, 12495, Control_c, 0, 64, 0
1, 12777, Control_c, 0, 64, 127
1, 12960, Tempo, 655738
1, 12960, Note_on_c, 0, 43, 0
1, 12960, Note_on_c, 0, 34, 0
1, 12960, Note_on_c, 0, 31, 0
1, 12960, Note_on_c, 0, 34, 29
1, 12960, Note_on_c, 0, 39, 29
1, 12960, Note_on_c, 0, 46, 35
1, 13440, Tempo, 648649
1, 13440, Note_on_c, 0, 46, 0
1, 13440, Note_on_c, 0, 61, 0
1, 13440, Note_on_c, 0, 34, 0
1, 13440, Note_on_c, 0, 39, 0
1, 13440, Note_on_c, 0, 59, 66
1, 13440, Note_on_c, 0, 32, 35
1, 13440, Note_on_c, 0, 39, 35
1, 13440, Note_on_c, 0, 44, 42
1, 13443, Control_c, 0, 64, 0
1, 13669, Control_c, 0, 64, 127
1, 13920, Tempo, 655738
1, 13920, Note_on_c, 0, 44, 0
1, 13920, Note_on_c, 0, 59, 0
1, 13920, Note_on_c, 0, 32, 0
1, 13920, Note_on_c, 0, 39, 0
1, 13920, Note_on_c, 0, 63, 62
1, 13920, Note_on_c, 0, 35, 29
1, 13920, Note_on_c, 0, 39, 29
1, 13920, Note_on_c, 0, 47, 35
1, 14400, Note_on_c, 0, 47, 0
1, 14400, Note_on_c, 0, 63, 0
1, 14400, Note_on_c, 0, 35, 0
1, 14400, Note_on_c, 0, 39, 0
1, 14400, Note_on_c, 0, 58, 66
1, 14400, Note_on_c, 0, 31, 32
1, 14400, Note_on_c, 0, 34, 32
1, 14400, Note_on_c, 0, 43, 38
1, 14413, Control_c, 0, 64, 0
1, 14652, Control_c, 0, 64, 127
1, 14880, Tempo, 666667
1, 14880, Note_on_c, 0, 43, 0
1, 14880, Note_on_c, 0, 58, 0
1, 14880, Note_on_c, 0, 31, 0
1, 14880, Note_on_c, 0, 34, 0
1, 14880, Note_on_c, 0, 34, 29
1, 14880, Note_on_c, 0, 39, 29
1, 14880, Note_on_c, 0, 46, 35
1, 15360, Tempo, 666667
1, 15360, Note_on_c, 0, 46, 0
1, 15360, Note_on_c, 0, 39, 0
1, 15360, Note_on_c, 0, 34, 0
1, 15360, Note_on_c, 0, 56, 69
1, 15360, Note_on_c, 0, 32, 34
1, 15360, Note_on_c, 0, 35, 34
1, 15360, Note_on_c, 0, 44, 40
1, 15373, Control_c, 0, 64, 0
1, 15657, Control_c, 0, 64, 127
1, 15840, Note_on_c, 0, 44, 0
1, 15840, Note_on_c, 0, 35, 0
1, 15840, Note_on_c, 0, 32, 0
1, 15840, Note_on_c, 0, 35, 29
1, 15840, Note_on_c, 0, 39, 29
1, 15840, Note_on_c, 0, 47, 35
1, 16320, Tempo, 655738
1, 16320, Note_on_c, 0, 47, 0
1, 16320, Note_on_c, 0, 56, 0
1, 16320, Note_on_c, 0, 35, 0
1, 16320, Note_on_c, 0, 39, 0
1, 16320, Note_on_c, 0, 54, 57
1, 16320, Note_on_c, 0, 33, 32
1, 16320, Note_on_c, 0, 37, 32
1, 16320, Note_on_c, 0, 45, 38
1, 16333, Control_c, 0, 64, 0
1, 16549, Control_c, 0, 64, 127
1, 16800, Tempo, 674157
1, 16800, Note_on_c, 0, 45, 0
1, 16800, Note_on_c, 0, 54, 0
1, 16800, Note_on_c, 0, 33, 0
1, 16800, Note_on_c, 0, 37, 0
1, 16800, Note_on_c, 0, 52, 53
1, 16800, Note_on_c, 0, 37, 28
1, 16800, Note_on_c, 0, 40, 28
1, 16800, Note_on_c, 0, 49, 33
1, 16806, Control_c, 0, 64, 0
1, 17006, Control_c, 0, 64, 127
1, 17280, Tempo, 666667
1, 17280, Note_on_c, 0, 49, 0
1, 17280, Note_on_c, 0, 52, 0
1, 17280, Note_on_c, 0, 37, 0
1, 17280, Note_on_c, 0, 40, 0
1, 17280, Note_on_c, 0, 51, 55
1, 17280, Note_on_c, 0, 32, 30
1, 17280, Note_on_c, 0, 39, 30
1, 17280, Note_on_c, 0, 44, 36
1, 17292, Control_c, 0, 64, 0
1, 17627, Control_c, 0, 64, 127
1, 17760, Tempo, 677966
1, 17760, Note_on_c, 0, 44, 0
1, 17760, Note_on_c, 0, 51, 0
1, 17760, Note_on_c, 0, 32, 0
1, 17760, Note_on_c, 0, 39, 0
1, 17760, Note_on_c, 0, 35, 26
1, 17760, Note_on_c, 0, 39, 26
1, 17760, Note_on_c, 0, 47, 31
1, 18240, Tempo, 666667
1, 18240, Note_on_c, 0, 47, 0
1, 18240, Note_on_c, 0, 39, 0
1, 18240, Note_on_c, 0, 35, 0
1, 18240, Note_on_c, 0, 51, 67
1, 18240, Note_on_c, 0, 32, 38
1, 18240, Note_on_c, 0, 39, 38
1, 18240, Note_on_c, 0, 44, 45
1, 18250, Control_c, 0, 64, 0
1, 18587, Control_c, 0, 64, 127
1, 18720, Tempo, 655738
1, 18720, Note_on_c, 0, 44, 0
1, 18720, Note_on_c, 0, 39, 0
1, 18720, Note_on_c, 0, 32, 0
1, 18720, Note_on_c, 0, 35, 32
1, 18720, Note_on_c, 0, 39, 32
1, 18720, Note_on_c, 0, 47, 38
1, 19200, Tempo, 666667
1, 19200, Note_on_c, 0, 47, 0
1, 19200, Note_on_c, 0, 39, 0
1, 19200, Note_on_c, 0, 35, 0
1, 19200, Note_on_c, 0, 32, 34
1, 19200, Note_on_c, 0, 39, 34
1, 19200, Note_on_c, 0, 44, 41
1, 19440, Tempo, 659341
1, 19680, Tempo, 648649
1, 19680, Note_on_c, 0, 44, 0
1, 19680, Note_on_c, 0, 51, 0
1, 19680, Note_on_c, 0, 32, 0
1, 19680, Note_on_c, 0, 39, 0
1, 19680, Note_on_c, 0, 54, 64
1, 19680, Note_on_c, 0, 35, 32
1, 19680, Note_on_c, 0, 39, 32
1, 19680, Note_on_c, 0, 47, 38
1, 19692, Control_c, 0, 64, 0
1, 19892, Control_c, 0, 64, 127
1, 19920, Note_on_c, 0, 54, 0
1, 19920, Note_on_c, 0, 52, 60
1, 20160, Tempo, 662983
1, 20160, Note_on_c, 0, 52, 0
1, 20160, Note_on_c, 0, 47, 0
1, 20160, Note_on_c, 0, 39, 0
1, 20160, Note_on_c, 0, 35, 0
1, 20160, Note_on_c, 0, 51, 64
1, 20160, Note_on_c, 0, 32, 34
1, 20160, Note_on_c, 0, 39, 34
1, 20160, Note_on_c, 0, 44, 41
1, 20174, Control_c, 0, 64, 0
1, 20344, Control_c, 0, 64, 127
1, 20640, Tempo, 652174
1, 20640, Note_on_c, 0, 44, 0
1, 20640, Note_on_c, 0, 51, 0
1, 20640, Note_on_c, 0, 32, 0
1, 20640, Note_on_c, 0, 39, 0
1, 20640, Note_on_c, 0, 52, 61
1, 20640, Note_on_c, 0, 35, 32
1, 20640, Note_on_c, 0, 39, 32
1, 20640, Note_on_c, 0, 47, 38
1, 20652, Control_c, 0, 64, 0
1, 20796, Control_c, 0, 64, 127
1, 21120, Tempo, 655738
1, 21120, Note_on_c, 0, 47, 0
1, 21120, Note_on_c, 0, 52, 0
1, 21120, Note_on_c, 0, 35, 0
1, 21120, Note_on_c, 0, 39, 0
1, 21120, Note_on_c, 0, 51, 64
1, 21120, Note_on_c, 0, 32, 34
1, 21120, Note_on_c, 0, 39, 34
1, 21120, Note_on_c, 0, 44, 41
1, 21125, Control_c, 0, 64, 0
1, 21333, Control_c, 0, 64, 127
1, 21600, Tempo, 645161
1, 21600, Note_on_c, 0, 44, 0
1, 21600, Note_on_c, 0, 51, 0
1, 21600, Note_on_c, 0, 32, 0
1, 21600, Note_on_c, 0, 39, 0
1, 21600, Note_on_c, 0, 56, 75
1, 21600, Note_on_c, 0, 35, 32
1, 21600, Note_on_c, 0, 39, 32
1, 21600, Note_on_c, 0, 47, 38
1, 21610, Control_c, 0, 64, 0
1, 21840, Control_c, 0, 64, 127
1, 22080, Tempo, 634921
1, 22080, Note_on_c, 0, 47, 0
1, 22080, Note_on_c, 0, 56, 0
1, 22080, Note_on_c, 0, 35, 0
1, 22080, Note_on_c, 0, 39, 0
1, 22080, Note_on_c, 0, 58, 77
1, 22080, Note_on_c, 0, 32, 39
1, 22080, Note_on_c, 0, 39, 39
1, 22080, Note_on_c, 0, 44, 46
1, 22093, Control_c, 0, 64, 0
1, 22320, Control_c, 0, 64, 127
1, 22560, Tempo, 655738
1, 22560, Note_on_c, 0, 44, 0
1, 22560, Note_on_c, 0, 58, 0
1, 22560, Note_on_c, 0, 32, 0
1, 22560, Note_on_c, 0, 39, 0
1, 22560, Note_on_c, 0, 59, 77
1, 22560, Note_on_c, 0, 35, 34
1, 22560, Note_on_c, 0, 39, 34
1, 22560, Note_on_c, 0, 47, 40
1, 22573, Control_c, 0, 64, 0
1, 22827, Control_c, 0, 64, 127
1, 23040, Tempo, 666667
1, 23040, Note_on_c, 0, 47, 0
1, 23040, Note_on_c, 0, 59, 0
1, 23040, Note_on_c, 0, 35, 0
1, 23040, Note_on_c, 0, 39, 0
1, 23040, Note_on_c, 0, 58, 80
1, 23040, Note_on_c, 0, 32, 39
1, 23040, Note_on_c, 0, 39, 39
1, 23040, Note_on_c, 0, 44, 47
1, 23044, Control_c, 0, 64, 0
1, 23280, Control_c, 0, 64, 127
1, 23520, Tempo, 652174
1, 23520, Note_on_c, 0, 44, 0
1, 23520, Note_on_c, 0, 39, 0
1, 23520, Note_on_c, 0, 32, 0
1, 23520, Note_on_c, 0, 35, 34
1, 23520, Note_on_c, 0, 39, 34
1, 23520, Note_on_c, 0, 47, 41
1, 24000, Tempo, 666667
1, 24000, Note_on_c, 0, 47, 0
1, 24000, Note_on_c, 0, 58, 0
1, 24000, Note_on_c, 0, 35, 0
1, 24000, Note_on_c, 0, 39, 0
1, 24000, Note_on_c, 0, 56, 77
1, 24000, Note_on_c, 0, 32, 34
1, 24000, Note_on_c, 0, 39, 34
1, 24000, Note_on_c, 0, 44, 41
1, 24007, Control_c, 0, 64, 0
1, 24160, Control_c, 0, 64, 127
1, 24480, Note_on_c, 0, 44, 0
1, 24480, Note_on_c, 0, 56, 0
1, 24480, Note_on_c, 0, 32, 0
1, 24480, Note_on_c, 0, 39, 0
1, 24480, Note_on_c, 0, 35, 32
1, 24480, Note_on_c, 0, 39, 32
1, 24480, Note_on_c, 0, 47, 38
1, 24960, Note_on_c, 0, 47, 0
1, 24960, Note_on_c, 0, 39, 0
1, 24960, Note_on_c, 0, 35, 0
1, 24960, Note_on_c, 0, 61, 80
1, 24960, Note_on_c, 0, 37, 46
1, 24960, Note_on_c, 0, 33, 46
1, 24960, Note_on_c, 0, 45, 55
1, 24972, Control_c, 0, 64, 0
1, 25257, Control_c, 0, 64, 127
1, 25440, Tempo, 655738
1, 25440, Note_on_c, 0, 45, 0
1, 25440, Note_on_c, 0, 33, 0
1, 25440, Note_on_c, 0, 37, 0
1, 25440, Note_on_c, 0, 37, 41
1, 25440, Note_on_c, 0, 40, 41
1, 25440, Note_on_c, 0, 49, 49
1, 25920, Tempo, 666667
1, 25920, Note_on_c, 0, 49, 0
1, 25920, Note_on_c, 0, 61, 0
1, 25920, Note_on_c, 0, 37, 0
1, 25920, Note_on_c, 0, 40, 0
1, 25920, Note_on_c, 0, 64, 75
1, 25920, Note_on_c, 0, 28, 45
1, 25920, Note_on_c, 0, 32, 45
1, 25920, Note_on_c, 0, 40, 53
1, 25928, Control_c, 0, 64, 0
1, 26149, Control_c, 0, 64, 127
1, 26400, Note_on_c, 0, 40, 0
1, 26400, Note_on_c, 0, 64, 0
1, 26400, Note_on_c, 0, 28, 0
1, 26400, Note_on_c, 0, 32, 0
1, 26400, Note_on_c, 0, 32, 41
1, 26400, Note_on_c, 0, 35, 41
1, 26400, Note_on_c, 0, 44, 49
1, 26880, Tempo, 666667
1, 26880, Note_on_c, 0, 44, 0
1, 26880, Note_on_c, 0, 35, 0
1, 26880, Note_on_c, 0, 32, 0
1, 26880, Note_on_c, 0, 64, 81
1, 26880, Note_on_c, 0, 37, 48
1, 26880, Note_on_c, 0, 33, 48
1, 26880, Note_on_c, 0, 45, 57
1, 26880, Control_c, 0, 64, 0
1, 27109, Control_c, 0, 64, 127
1, 27360, Tempo, 659341
1, 27360, Note_on_c, 0, 45, 0
1, 27360, Note_on_c, 0, 33, 0
1, 27360, Note_on_c, 0, 37, 0
1, 27360, Note_on_c, 0, 37, 43
1, 27360, Note_on_c, 0, 40, 43
1, 27360, Note_on_c, 0, 49, 51
1, 27840, Tempo, 648649
1, 27840, Note_on_c, 0, 49, 0
1, 27840, Note_on_c, 0, 64, 0
1, 27840, Note_on_c, 0, 37, 0
1, 27840, Note_on_c, 0, 40, 0
1, 27840, Note_on_c, 0, 64, 78
1, 27840, Note_on_c, 0, 28, 49
1, 27840, Note_on_c, 0, 32, 49
1, 27840, Note_on_c, 0, 40, 58
1, 27850, Control_c, 0, 64, 0
1, 28046, Control_c, 0, 64, 127
1, 28320, Tempo, 666667
1, 28320, Note_on_c, 0, 40, 0
1, 28320, Note_on_c, 0, 32, 0
1, 28320, Note_on_c, 0, 28, 0
1, 28320, Note_on_c, 0, 32, 44
1, 28320, Note_on_c, 0, 35, 44
1, 28320, Note_on_c, 0, 44, 52
1, 28335, Control_c, 0, 64, 0
1, 28572, Control_c, 0, 64, 127
1, 28800, Note_on_c, 0, 44, 0
1, 28800, Note_on_c, 0, 64, 0
1, 28800, Note_on_c, 0, 32, 0
1, 28800, Note_on_c, 0, 35, 0
1, 28800, Note_on_c, 0, 62, 80
1, 28800, Note_on_c, 0, 30, 48
1, 28800, Note_on_c, 0, 33, 48
1, 28800, Note_on_c, 0, 42, 57
1, 28803, Control_c, 0, 64, 0
1, 28983, Control_c, 0, 64, 127
1, 29280, Note_on_c, 0, 42, 0
1, 29280, Note_on_c, 0, 33, 0
1, 29280, Note_on_c, 0, 30, 0
1, 29280, Note_on_c, 0, 33, 44
1, 29280, Note_on_c, 0, 38, 44
1, 29280, Note_on_c, 0, 45, 52
1, 29760, Note_on_c, 0, 45, 0
1, 29760, Note_on_c, 0, 38, 0
1, 29760, Note_on_c, 0, 33, 0
1, 29760, Note_on_c, 0, 30, 49
1, 29760, Note_on_c, 0, 38, 49
1, 29760, Note_on_c, 0, 42, 58
1, 30240, Tempo, 655738
1, 30240, Note_on_c, 0, 42, 0
1, 30240, Note_on_c, 0, 38, 0
1, 30240, Note_on_c, 0, 30, 0
1, 30240, Note_on_c, 0, 33, 45
1, 30240, Note_on_c, 0, 38, 45
1, 30240, Note_on_c, 0, 45, 53
1, 30720, Tempo, 666667
1, 30720, Note_on_c, 0, 45, 0
1, 30720, Note_on_c, 0, 38, 0
1, 30720, Note_on_c, 0, 33, 0
1, 30720, Note_on_c, 0, 30, 50
1, 30720, Note_on_c, 0, 38, 50
1, 30720, Note_on_c, 0, 42, 59
1, 31200, Note_on_c, 0, 42, 0
1, 31200, Note_on_c, 0, 38, 0
1, 31200, Note_on_c, 0, 30, 0
1, 31200, Note_on_c, 0, 33, 42
1, 31200, Note_on_c, 0, 38, 42
1, 31200, Note_on_c, 0, 45, 50
1, 31680, Note_on_c, 0, 45, 0
1, 31680, Note_on_c, 0, 62, 0
1, 31680, Note_on_c, 0, 33, 0
1, 31680, Note_on_c, 0, 38, 0
1, 31680, Note_on_c, 0, 60, 75
1, 31680, Note_on_c, 0, 32, 50
1, 31680, Note_on_c, 0, 39, 50
1, 31680, Note_on_c, 0, 44, 59
1, 31693, Control_c, 0, 64, 0
1, 31886, Control_c, 0, 64, 127
1, 32160, Tempo, 655738
1, 32160, Note_on_c, 0, 44, 0
1, 32160, Note_on_c, 0, 60, 0
1, 32160, Note_on_c, 0, 32, 0
1, 32160, Note_on_c, 0, 39, 0
1, 32160, Note_on_c, 0, 36, 44
1, 32160, Note_on_c, 0, 39, 44
1, 32160, Note_on_c, 0, 48, 52
1, 32640, Tempo, 666667
1, 32640, Note_on_c, 0, 48, 0
1, 32640, Note_on_c, 0, 39, 0
1, 32640, Note_on_c, 0, 36, 0
1, 32640, Note_on_c, 0, 61, 86
1, 32640, Note_on_c, 0, 37, 49
1, 32640, Note_on_c, 0, 33, 49
1, 32640, Note_on_c, 0, 45, 58
1, 32646, Control_c, 0, 64, 0
1, 32915, Control_c, 0, 64, 127
1, 33120, Tempo, 659341
1, 33120, Note_on_c, 0, 45, 0
1, 33120, Note_on_c, 0, 33, 0
1, 33120, Note_on_c, 0, 37, 0
1, 33120, Note_on_c, 0, 37, 43
1, 33120, Note_on_c, 0, 40, 43
1, 33120, Note_on_c, 0, 49, 51
1, 33600, Tempo, 648649
1, 33600, Note_on_c, 0, 49, 0
1, 33600, Note_on_c, 0, 61, 0
1, 33600, Note_on_c, 0, 37, 0
1, 33600, Note_on_c, 0, 40, 0
1, 33600, Note_on_c, 0, 68, 76
1, 33600, Note_on_c, 0, 28, 46
1, 33600, Note_on_c, 0, 32, 46
1, 33600, Note_on_c, 0, 40, 55
1, 33605, Control_c, 0, 64, 0
1, 33806, Control_c, 0, 64, 127
1, 34080, Tempo, 655738
1, 34080, Note_on_c, 0, 40, 0
1, 34080, Note_on_c, 0, 68, 0
1, 34080, Note_on_c, 0, 28, 0
1, 34080, Note_on_c, 0, 32, 0
1, 34080, Note_on_c, 0, 68, 71
1, 34080, Note_on_c, 0, 32, 42
1, 34080, Note_on_c, 0, 35, 42
1, 34080, Note_on_c, 0, 44, 50
1, 34560, Tempo, 666667
1, 34560, Note_on_c, 0, 44, 0
1, 34560, Note_on_c, 0, 68, 0
1, 34560, Note_on_c, 0, 32, 0
1, 34560, Note_on_c, 0, 35, 0
1, 34560, Note_on_c, 0, 63, 77
1, 34560, Note_on_c, 0, 42, 45
1, 34560, Note_on_c, 0, 35, 45
1, 34560, Note_on_c, 0, 47, 54
1, 34568, Control_c, 0, 64, 0
1, 34903, Control_c, 0, 64, 127
1, 35040, Tempo, 652174
1, 35040, Note_on_c, 0, 47, 0
1, 35040, Note_on_c, 0, 63, 0
1, 35040, Note_on_c, 0, 42, 0
1, 35040, Note_on_c, 0, 35, 0
1, 35040, Note_on_c, 0, 59, 68
1, 35040, Note_on_c, 0, 39, 32
1, 35040, Note_on_c, 0, 42, 32
1, 35040, Note_on_c, 0, 51, 38
1, 35520, Tempo, 666667
1, 35520, Note_on_c, 0, 51, 0
1, 35520, Note_on_c, 0, 59, 0
1, 35520, Note_on_c, 0, 39, 0
1, 35520, Note_on_c, 0, 42, 0
1, 35520, Note_on_c, 0, 58, 73
1, 35520, Note_on_c, 0, 31, 45
1, 35520, Note_on_c, 0, 39, 45
1, 35520, Note_on_c, 0, 43, 54
1, 35533, Control_c, 0, 64, 0
1, 35749, Control_c, 0, 64, 127
1, 36000, Tempo, 655738
1, 36000, Note_on_c, 0, 43, 0
1, 36000, Note_on_c, 0, 39, 0
1, 36000, Note_on_c, 0, 31, 0
1, 36000, Note_on_c, 0, 34, 35
1, 36000, Note_on_c, 0, 39, 35
1, 36000, Note_on_c, 0, 46, 42
1, 36480, Tempo, 670391
1, 36480, Note_on_c, 0, 46, 0
1, 36480, Note_on_c, 0, 58, 0
1, 36480, Note_on_c, 0, 34, 0
1, 36480, Note_on_c, 0, 39, 0
1, 36480, Note_on_c, 0, 56, 70
1, 36480, Note_on_c, 0, 32, 39
1, 36480, Note_on_c, 0, 39, 39
1, 36480, Note_on_c, 0, 44, 46
1, 36480, Control_c, 0, 64, 0
1, 36774, Control_c, 0, 64, 127
1, 36960, Note_on_c, 0, 44, 0
1, 36960, Note_on_c, 0, 39, 0
1, 36960, Note_on_c, 0, 32, 0
1, 36960, Note_on_c, 0, 35, 30
1, 36960, Note_on_c, 0, 39, 30
1, 36960, Note_on_c, 0, 47, 36
1, 37440, Note_on_c, 0, 47, 0
1, 37440, Note_on_c, 0, 39, 0
1, 37440, Note_on_c, 0, 35, 0
1, 37440, Note_on_c, 0, 32, 37
1, 37440, Note_on_c, 0, 39, 37
1, 37440, Note_on_c, 0, 44, 44
1, 37920, Tempo, 701754
1, 37920, Note_on_c, 0, 44, 0
1, 37920, Note_on_c, 0, 56, 0
1, 37920, Note_on_c, 0, 32, 0
1, 37920, Note_on_c, 0, 39, 0
1, 37920, Note_on_c, 0, 35, 31
1, 37920, Note_on_c, 0, 39, 31
1, 37920, Note_on_c, 0, 47, 37
1, 38400, Tempo, 652174
1, 38400, Note_on_c, 0, 47, 0
1, 38400, Note_on_c, 0, 39, 0
1, 38400, Note_on_c, 0, 35, 0
1, 38400, Note_on_c, 0, 88, 70
1, 38400, Note_on_c, 0, 85, 70
1, 38400, Note_on_c, 0, 76, 64
1, 38400, Note_on_c, 0, 81, 64
1, 38400, Note_on_c, 0, 33, 44
1, 38400, Note_on_c, 0, 37, 44
1, 38400, Note_on_c, 0, 45, 52
1, 38400, Control_c, 0, 64, 0
1, 38629, Control_c, 0, 64, 127
1, 38880, Tempo, 638298
1, 38880, Note_on_c, 0, 45, 0
1, 38880, Note_on_c, 0, 81, 0
1, 38880, Note_on_c, 0, 85, 0
1, 38880, Note_on_c, 0, 76, 0
1, 38880, Note_on_c, 0, 88, 0
1, 38880, Note_on_c, 0, 37, 0
1, 38880, Note_on_c, 0, 85, 72
1, 38880, Note_on_c, 0, 73, 66
1, 38880, Note_on_c, 0, 37, 41
1, 38880, Note_on_c, 0, 45, 49
1, 39360, Tempo, 652174
1, 39360, Note_on_c, 0, 45, 0
1, 39360, Note_on_c, 0, 73, 0
1, 39360, Note_on_c, 0, 33, 0
1, 39360, Note_on_c, 0, 85, 0
1, 39360, Note_on_c, 0, 37, 0
1, 39360, Note_on_c, 0, 87, 72
1, 39360, Note_on_c, 0, 75, 66
1, 39360, Note_on_c, 0, 78, 66
1, 39360, Note_on_c, 0, 83, 72
1, 39360, Note_on_c, 0, 35, 44
1, 39360, Note_on_c, 0, 39, 44
1, 39360, Note_on_c, 0, 47, 52
1, 39372, Control_c, 0, 64, 0
1, 39635, Control_c, 0, 64, 127
1, 39840, Tempo, 641711
1, 39840, Note_on_c, 0, 47, 0
1, 39840, Note_on_c, 0, 83, 0
1, 39840, Note_on_c, 0, 75, 0
1, 39840, Note_on_c, 0, 78, 0
1, 39840, Note_on_c, 0, 87, 0
1, 39840, Note_on_c, 0, 39, 0
1, 39840, Note_on_c, 0, 71, 60
1, 39840, Note_on_c, 0, 83, 66
1, 39840, Note_on_c, 0, 39, 48
1, 39840, Note_on_c, 0, 47, 48
1, 40320, Note_on_c, 0, 47, 0
1, 40320, Note_on_c, 0, 83, 0
1, 40320, Note_on_c, 0, 35, 0
1, 40320, Note_on_c, 0, 71, 0
1, 40320, Note_on_c, 0, 39, 0
1, 40320, Note_on_c, 0, 76, 66
1, 40320, Note_on_c, 0, 81, 72
1, 40320, Note_on_c, 0, 85, 72
1, 40320, Note_on_c, 0, 73, 66
1, 40320, Note_on_c, 0, 37, 44
1, 40320, Note_on_c, 0, 40, 44
1, 40320, Note_on_c, 0, 49, 52
1, 40320, Control_c, 0, 64, 0
1, 40572, Control_c, 0, 64, 127
1, 40800, Note_on_c, 0, 49, 0
1, 40800, Note_on_c, 0, 73, 0
1, 40800, Note_on_c, 0, 81, 0
1, 40800, Note_on_c, 0, 85, 0
1, 40800, Note_on_c, 0, 76, 0
1, 40800, Note_on_c, 0, 40, 0
1, 40800, Note_on_c, 0, 69, 63
1, 40800, Note_on_c, 0, 81, 69
1, 40800, Note_on_c, 0, 40, 42
1, 40800, Note_on_c, 0, 49, 50
1, 41280, Tempo, 655738
1, 41280, Note_on_c, 0, 49, 0
1, 41280, Note_on_c, 0, 81, 0
1, 41280, Note_on_c, 0, 37, 0
1, 41280, Note_on_c, 0, 69, 0
1, 41280, Note_on_c, 0, 40, 0
1, 41280, Note_on_c, 0, 78, 69
1, 41280, Note_on_c, 0, 66, 63
1, 41280, Note_on_c, 0, 69, 63
1, 41280, Note_on_c, 0, 74, 69
1, 41280, Note_on_c, 0, 38, 45
1, 41280, Note_on_c, 0, 42, 45
1, 41280, Note_on_c, 0, 50, 53
1, 41289, Control_c, 0, 64, 0
1, 41532, Control_c, 0, 64, 127
1, 41760, Tempo, 648649
1, 41760, Note_on_c, 0, 50, 0
1, 41760, Note_on_c, 0, 42, 0
1, 41760, Note_on_c, 0, 42, 42
1, 41760, Note_on_c, 0, 50, 50
1, 42240, Tempo, 645161
1, 42240, Note_on_c, 0, 50, 0
1, 42240, Note_on_c, 0, 66, 0
1, 42240, Note_on_c, 0, 38, 0
1, 42240, Note_on_c, 0, 69, 0
1, 42240, Note_on_c, 0, 78, 0
1, 42240, Note_on_c, 0, 42, 0
1, 42240, Note_on_c, 0, 74, 0
1, 42240, Note_on_c, 0, 81, 70
1, 42240, Note_on_c, 0, 85, 77
1, 42240, Note_on_c, 0, 88, 77
1, 42240, Note_on_c, 0, 76, 70
1, 42240, Note_on_c, 0, 33, 45
1, 42240, Note_on_c, 0, 37, 45
1, 42240, Note_on_c, 0, 45, 53
1, 42240, Control_c, 0, 64, 0
1, 42469, Control_c, 0, 64, 127
1, 42720, Tempo, 638298
1, 42720, Note_on_c, 0, 45, 0
1, 42720, Note_on_c, 0, 76, 0
1, 42720, Note_on_c, 0, 85, 0
1, 42720, Note_on_c, 0, 88, 0
1, 42720, Note_on_c, 0, 81, 0
1, 42720, Note_on_c, 0, 37, 0
1, 42720, Note_on_c, 0, 85, 79
1, 42720, Note_on_c, 0, 73, 72
1, 42720, Note_on_c, 0, 37, 39
1, 42720, Note_on_c, 0, 45, 47
1, 43200, Tempo, 631579
1, 43200, Note_on_c, 0, 45, 0
1, 43200, Note_on_c, 0, 73, 0
1, 43200, Note_on_c, 0, 33, 0
1, 43200, Note_on_c, 0, 85, 0
1, 43200, Note_on_c, 0, 37, 0
1, 43200, Note_on_c, 0, 87, 80
1, 43200, Note_on_c, 0, 75, 73
1, 43200, Note_on_c, 0, 78, 73
1, 43200, Note_on_c, 0, 83, 80
1, 43200, Note_on_c, 0, 35, 44
1, 43200, Note_on_c, 0, 39, 44
1, 43200, Note_on_c, 0, 47, 52
1, 43212, Control_c, 0, 64, 0
1, 43452, Control_c, 0, 64, 127
1, 43680, Tempo, 641711
1, 43680, Note_on_c, 0, 47, 0
1, 43680, Note_on_c, 0, 83, 0
1, 43680, Note_on_c, 0, 75, 0
1, 43680, Note_on_c, 0, 78, 0
1, 43680, Note_on_c, 0, 87, 0
1, 43680, Note_on_c, 0, 39, 0
1, 43680, Note_on_c, 0, 71, 66
1, 43680, Note_on_c, 0, 83, 72
1, 43680, Note_on_c, 0, 39, 38
1, 43680, Note_on_c, 0, 47, 45
1, 44160, Note_on_c, 0, 47, 0
1, 44160, Note_on_c, 0, 83, 0
1, 44160, Note_on_c, 0, 35, 0
1, 44160, Note_on_c, 0, 71, 0
1, 44160, Note_on_c, 0, 39, 0
1, 44160, Note_on_c, 0, 76, 73
1, 44160, Note_on_c, 0, 81, 80
1, 44160, Note_on_c, 0, 85, 80
1, 44160, Note_on_c, 0, 73, 73
1, 44160, Note_on_c, 0, 37, 44
1, 44160, Note_on_c, 0, 40, 44
1, 44160, Note_on_c, 0, 49, 52
1, 44160, Control_c, 0, 64, 0
1, 44389, Control_c, 0, 64, 127
1, 44640, Note_on_c, 0, 49, 0
1, 44640, Note_on_c, 0, 40, 0
1, 44640, Note_on_c, 0, 40, 42
1, 44640, Note_on_c, 0, 49, 50
1, 45120, Tempo, 655738
1, 45120, Note_on_c, 0, 49, 0
1, 45120, Note_on_c, 0, 81, 0
1, 45120, Note_on_c, 0, 37, 0
1, 45120, Note_on_c, 0, 85, 0
1, 45120, Note_on_c, 0, 76, 0
1, 45120, Note_on_c, 0, 40, 0
1, 45120, Note_on_c, 0, 73, 0
1, 45120, Note_on_c, 0, 74, 77
1, 45120, Note_on_c, 0, 66, 70
1, 45120, Note_on_c, 0, 69, 70
1, 45120, Note_on_c, 0, 78, 77
1, 45120, Note_on_c, 0, 38, 44
1, 45120, Note_on_c, 0, 42, 44
1, 45120, Note_on_c, 0, 50, 52
1, 45130, Control_c, 0, 64, 0
1, 45326, Control_c, 0, 64, 127
1, 45600, Tempo, 645161
1, 45600, Note_on_c, 0, 50, 0
1, 45600, Note_on_c, 0, 42, 0
1, 45600, Note_on_c, 0, 42, 40
1, 45600, Note_on_c, 0, 50, 48
1, 46080, Tempo, 638298
1, 46080, Note_on_c, 0, 50, 0
1, 46080, Note_on_c, 0, 66, 0
1, 46080, Note_on_c, 0, 38, 0
1, 46080, Note_on_c, 0, 69, 0
1, 46080, Note_on_c, 0, 74, 0
1, 46080, Note_on_c, 0, 42, 0
1, 46080, Note_on_c, 0, 78, 0
1, 46080, Note_on_c, 0, 81, 77
1, 46080, Note_on_c, 0, 76, 77
1, 46080, Note_on_c, 0, 88, 84
1, 46080, Note_on_c, 0, 85, 84
1, 46080, Note_on_c, 0, 33, 47
1, 46080, Note_on_c, 0, 37, 47
1, 46080, Note_on_c, 0, 45, 56
1, 46080, Control_c, 0, 64, 0
1, 46377, Control_c, 0, 64, 127
1, 46560, Tempo, 625000
1, 46560, Note_on_c, 0, 45, 0
1, 46560, Note_on_c, 0, 85, 0
1, 46560, Note_on_c, 0, 76, 0
1, 46560, Note_on_c, 0, 88, 0
1, 46560, Note_on_c, 0, 81, 0
1, 46560, Note_on_c, 0, 37, 0
1, 46560, Note_on_c, 0, 85, 86
1, 46560, Note_on_c, 0, 73, 79
1, 46560, Note_on_c, 0, 37, 42
1, 46560, Note_on_c, 0, 45, 50
1, 47040, Tempo, 641711
1, 47040, Note_on_c, 0, 45, 0
1, 47040, Note_on_c, 0, 73, 0
1, 47040, Note_on_c, 0, 33, 0
1, 47040, Note_on_c, 0, 85, 0
1, 47040, Note_on_c, 0, 37, 0
1, 47040, Note_on_c, 0, 87, 86
1, 47040, Note_on_c, 0, 83, 86
1, 47040, Note_on_c, 0, 78, 79
1, 47040, Note_on_c, 0, 75, 79
1, 47040, Note_on_c, 0, 35, 47
1, 47040, Note_on_c, 0, 39, 47
1, 47040, Note_on_c, 0, 47, 56
1, 47052, Control_c, 0, 64, 0
1, 47360, Control_c, 0, 64, 127
1, 47520, Tempo, 628272
1, 47520, Note_on_c, 0, 47, 0
1, 47520, Note_on_c, 0, 75, 0
1, 47520, Note_on_c, 0, 83, 0
1, 47520, Note_on_c, 0, 78, 0
1, 47520, Note_on_c, 0, 87, 0
1, 47520, Note_on_c, 0, 39, 0
1, 47520, Note_on_c, 0, 71, 72
1, 47520, Note_on_c, 0, 83, 79
1, 47520, Note_on_c, 0, 39, 41
1, 47520, Note_on_c, 0, 47, 49
1, 48000, Note_on_c, 0, 47, 0
1, 48000, Note_on_c, 0, 83, 0
1, 48000, Note_on_c, 0, 35, 0
1, 48000, Note_on_c, 0, 71, 0
1, 48000, Note_on_c, 0, 39, 0
1, 48000, Note_on_c, 0, 76, 79
1, 48000, Note_on_c, 0, 73, 79
1, 48000, Note_on_c, 0, 85, 86
1, 48000, Note_on_c, 0, 81, 86
1, 48000, Note_on_c, 0, 37, 47
1, 48000, Note_on_c, 0, 40, 47
1, 48000, Note_on_c, 0, 49, 56
1, 48000, Control_c, 0, 64, 0
1, 48320, Control_c, 0, 64, 127
1, 48480, Note_on_c, 0, 49, 0
1, 48480, Note_on_c, 0, 81, 0
1, 48480, Note_on_c, 0, 73, 0
1, 48480, Note_on_c, 0, 85, 0
1, 48480, Note_on_c, 0, 76, 0
1, 48480, Note_on_c, 0, 40, 0
1, 48480, Note_on_c, 0, 69, 75
1, 48480, Note_on_c, 0, 81, 82
1, 48480, Note_on_c, 0, 40, 43
1, 48480, Note_on_c, 0, 49, 51
1, 48960, Tempo, 638298
1, 48960, Note_on_c, 0, 49, 0
1, 48960, Note_on_c, 0, 81, 0
1, 48960, Note_on_c, 0, 37, 0
1, 48960, Note_on_c, 0, 69, 0
1, 48960, Note_on_c, 0, 40, 0
1, 48960, Note_on_c, 0, 69, 75
1, 48960, Note_on_c, 0, 66, 75
1, 48960, Note_on_c, 0, 78, 82
1, 48960, Note_on_c, 0, 74, 82
1, 48960, Note_on_c, 0, 38, 46
1, 48960, Note_on_c, 0, 42, 46
1, 48960, Note_on_c, 0, 50, 55
1, 48971, Control_c, 0, 64, 0
1, 49166, Control_c, 0, 64, 127
1, 49440, Note_on_c, 0, 50, 0
1, 49440, Note_on_c, 0, 42, 0
1, 49440, Note_on_c, 0, 42, 42
1, 49440, Note_on_c, 0, 50, 50
1, 49920, Tempo, 631579
1, 49920, Note_on_c, 0, 50, 0
1, 49920, Note_on_c, 0, 66, 0
1, 49920, Note_on_c, 0, 38, 0
1, 49920, Note_on_c, 0, 78, 0
1, 49920, Note_on_c, 0, 69, 0
1, 49920, Note_on_c, 0, 42, 0
1, 49920, Note_on_c, 0, 74, 0
1, 49920, Note_on_c, 0, 78, 81
1, 49920, Note_on_c, 0, 73, 81
1, 49920, Note_on_c, 0, 85, 89
1, 49920, Note_on_c, 0, 81, 89
1, 49920, Note_on_c, 0, 33, 48
1, 49920, Note_on_c, 0, 37, 48
1, 49920, Note_on_c, 0, 45, 57
1, 49920, Control_c, 0, 64, 0
1, 50172, Control_c, 0, 64, 127
1, 50400, Tempo, 625000
1, 50400, Note_on_c, 0, 45, 0
1, 50400, Note_on_c, 0, 37, 0
1, 50400, Note_on_c, 0, 37, 42
1, 50400, Note_on_c, 0, 45, 50
1, 50880, Tempo, 618557
1, 50880, Note_on_c, 0, 45, 0
1, 50880, Note_on_c, 0, 73, 0
1, 50880, Note_on_c, 0, 33, 0
1, 50880, Note_on_c, 0, 85, 0
1, 50880, Note_on_c, 0, 78, 0
1, 50880, Note_on_c, 0, 37, 0
1, 50880, Note_on_c, 0, 81, 0
1, 50880, Note_on_c, 0, 74, 85
1, 50880, Note_on_c, 0, 69, 78
1, 50880, Note_on_c, 0, 66, 78
1, 50880, Note_on_c, 0, 78, 85
1, 50880, Note_on_c, 0, 38, 47
1, 50880, Note_on_c, 0, 42, 47
1, 50880, Note_on_c, 0, 50, 56
1, 50888, Control_c, 0, 64, 0
1, 51177, Control_c, 0, 64, 127
1, 51360, Tempo, 628272
1, 51360, Note_on_c, 0, 50, 0
1, 51360, Note_on_c, 0, 42, 0
1, 51360, Note_on_c, 0, 42, 45
1, 51360, Note_on_c, 0, 50, 53
1, 51840, Tempo, 618557
1, 51840, Note_on_c, 0, 50, 0
1, 51840, Note_on_c, 0, 69, 0
1, 51840, Note_on_c, 0, 38, 0
1, 51840, Note_on_c, 0, 66, 0
1, 51840, Note_on_c, 0, 74, 0
1, 51840, Note_on_c, 0, 42, 0
1, 51840, Note_on_c, 0, 78, 0
1, 51840, Note_on_c, 0, 78, 82
1, 51840, Note_on_c, 0, 73, 82
1, 51840, Note_on_c, 0, 81, 90
1, 51840, Note_on_c, 0, 85, 90
1, 51840, Note_on_c, 0, 37, 48
1, 51840, Note_on_c, 0, 45, 57
1, 51840, Note_on_c, 0, 33, 48
1, 51840, Control_c, 0, 64, 0
1, 52115, Control_c, 0, 64, 127
1, 52320, Note_on_c, 0, 45, 0
1, 52320, Note_on_c, 0, 37, 0
1, 52320, Note_on_c, 0, 37, 44
1, 52320, Note_on_c, 0, 45, 52
1, 52800, Tempo, 618557
1, 52800, Note_on_c, 0, 45, 0
1, 52800, Note_on_c, 0, 73, 0
1, 52800, Note_on_c, 0, 33, 0
1, 52800, Note_on_c, 0, 81, 0
1, 52800, Note_on_c, 0, 78, 0
1, 52800, Note_on_c, 0, 37, 0
1, 52800, Note_on_c, 0, 85, 0
1, 52800, Note_on_c, 0, 74, 74
1, 52800, Note_on_c, 0, 80, 81
1, 52800, Note_on_c, 0, 68, 74
1, 52800, Note_on_c, 0, 71, 74
1, 52800, Note_on_c, 0, 35, 48
1, 52800, Note_on_c, 0, 38, 48
1, 52800, Note_on_c, 0, 47, 57
1, 52813, Control_c, 0, 64, 0
1, 53120, Control_c, 0, 64, 127
1, 53280, Tempo, 634921
1, 53280, Note_on_c, 0, 47, 0
1, 53280, Note_on_c, 0, 71, 0
1, 53280, Note_on_c, 0, 80, 0
1, 53280, Note_on_c, 0, 68, 0
1, 53280, Note_on_c, 0, 74, 0
1, 53280, Note_on_c, 0, 38, 0
1, 53280, Note_on_c, 0, 66, 75
1, 53280, Note_on_c, 0, 78, 82
1, 53280, Note_on_c, 0, 38, 44
1, 53280, Note_on_c, 0, 47, 52
1, 53760, Tempo, 625000
1, 53760, Note_on_c, 0, 47, 0
1, 53760, Note_on_c, 0, 78, 0
1, 53760, Note_on_c, 0, 35, 0
1, 53760, Note_on_c, 0, 66, 0
1, 53760, Note_on_c, 0, 38, 0
1, 53760, Note_on_c, 0, 81, 88
1, 53760, Note_on_c, 0, 85, 88
1, 53760, Note_on_c, 0, 73, 80
1, 53760, Note_on_c, 0, 76, 80
1, 53760, Note_on_c, 0, 37, 49
1, 53760, Note_on_c, 0, 33, 49
1, 53760, Note_on_c, 0, 45, 58
1, 53767, Control_c, 0, 64, 0
1, 54035, Control_c, 0, 64, 127
1, 54240, Note_on_c, 0, 45, 0
1, 54240, Note_on_c, 0, 37, 0
1, 54240, Note_on_c, 0, 37, 45
1, 54240, Note_on_c, 0, 45, 53
1, 54720, Tempo, 638298
1, 54720, Note_on_c, 0, 45, 0
1, 54720, Note_on_c, 0, 85, 0
1, 54720, Note_on_c, 0, 33, 0
1, 54720, Note_on_c, 0, 73, 0
1, 54720, Note_on_c, 0, 81, 0
1, 54720, Note_on_c, 0, 37, 0
1, 54720, Note_on_c, 0, 76, 0
1, 54720, Note_on_c, 0, 69, 77
1, 54720, Note_on_c, 0, 74, 84
1, 54720, Note_on_c, 0, 78, 84
1, 54720, Note_on_c, 0, 66, 77
1, 54720, Note_on_c, 0, 38, 50
1, 54720, Note_on_c, 0, 42, 50
1, 54720, Note_on_c, 0, 50, 59
1, 54727, Control_c, 0, 64, 0
1, 54995, Control_c, 0, 64, 127
1, 55200, Note_on_c, 0, 50, 0
1, 55200, Note_on_c, 0, 42, 0
1, 55200, Note_on_c, 0, 42, 46
1, 55200, Note_on_c, 0, 50, 55
1, 55680, Tempo, 638298
1, 55680, Note_on_c, 0, 50, 0
1, 55680, Note_on_c, 0, 74, 0
1, 55680, Note_on_c, 0, 38, 0
1, 55680, Note_on_c, 0, 78, 0
1, 55680, Note_on_c, 0, 69, 0
1, 55680, Note_on_c, 0, 42, 0
1, 55680, Note_on_c, 0, 66, 0
1, 55680, Note_on_c, 0, 78, 80
1, 55680, Note_on_c, 0, 73, 80
1, 55680, Note_on_c, 0, 85, 88
1, 55680, Note_on_c, 0, 81, 88
1, 55680, Note_on_c, 0, 49, 59
1, 55680, Note_on_c, 0, 42, 50
1, 55680, Note_on_c, 0, 37, 50
1, 55680, Control_c, 0, 64, 0
1, 55955, Control_c, 0, 64, 127
1, 56160, Tempo, 628272
1, 56160, Note_on_c, 0, 42, 0
1, 56160, Note_on_c, 0, 49, 0
1, 56160, Note_on_c, 0, 42, 46
1, 56160, Note_on_c, 0, 49, 55
1, 56640, Tempo, 638298
1, 56640, Note_on_c, 0, 49, 0
1, 56640, Note_on_c, 0, 73, 0
1, 56640, Note_on_c, 0, 37, 0
1, 56640, Note_on_c, 0, 85, 0
1, 56640, Note_on_c, 0, 78, 0
1, 56640, Note_on_c, 0, 42, 0
1, 56640, Note_on_c, 0, 81, 0
1, 56640, Note_on_c, 0, 75, 79
1, 56640, Note_on_c, 0, 78, 79
1, 56640, Note_on_c, 0, 87, 86
1, 56640, Note_on_c, 0, 84, 86
1, 56640, Note_on_c, 0, 44, 52
1, 56640, Note_on_c, 0, 48, 62
1, 56640, Note_on_c, 0, 36, 52
1, 56647, Control_c, 0, 64, 0
1, 56869, Control_c, 0, 64, 127
1, 57120, Note_on_c, 0, 48, 0
1, 57120, Note_on_c, 0, 44, 0
1, 57120, Note_on_c, 0, 44, 47
1, 57120, Note_on_c, 0, 48, 56
1, 57600, Tempo, 625000
1, 57600, Note_on_c, 0, 48, 0
1, 57600, Note_on_c, 0, 78, 0
1, 57600, Note_on_c, 0, 36, 0
1, 57600, Note_on_c, 0, 87, 0
1, 57600, Note_on_c, 0, 75, 0
1, 57600, Note_on_c, 0, 44, 0
1, 57600, Note_on_c, 0, 84, 0
1, 57600, Note_on_c, 0, 88, 77
1, 57600, Note_on_c, 0, 80, 70
1, 57600, Note_on_c, 0, 85, 77
1, 57600, Note_on_c, 0, 76, 70
1, 57600, Note_on_c, 0, 49, 53
1, 57600, Note_on_c, 0, 44, 45
1, 57600, Note_on_c, 0, 37, 45
1, 57600, Control_c, 0, 64, 0
1, 57943, Control_c, 0, 64, 127
1, 58080, Note_on_c, 0, 44, 0
1, 58080, Note_on_c, 0, 76, 0
1, 58080, Note_on_c, 0, 80, 0
1, 58080, Note_on_c, 0, 85, 0
1, 58080, Note_on_c, 0, 88, 0
1, 58080, Note_on_c, 0, 49, 0
1, 58080, Note_on_c, 0, 80, 68
1, 58080, Note_on_c, 0, 92, 75
1, 58080, Note_on_c, 0, 44, 40
1, 58080, Note_on_c, 0, 49, 48
1, 58560, Tempo, 641711
1, 58560, Note_on_c, 0, 49, 0
1, 58560, Note_on_c, 0, 92, 0
1, 58560, Note_on_c, 0, 37, 0
1, 58560, Note_on_c, 0, 80, 0
1, 58560, Note_on_c, 0, 44, 0
1, 58560, Note_on_c, 0, 74, 71
1, 58560, Note_on_c, 0, 78, 71
1, 58560, Note_on_c, 0, 81, 71
1, 58560, Note_on_c, 0, 86, 78
1, 58560, Note_on_c, 0, 42, 44
1, 58560, Note_on_c, 0, 50, 52
1, 58560, Note_on_c, 0, 38, 44
1, 58573, Control_c, 0, 64, 0
1, 58857, Control_c, 0, 64, 127
1, 59040, Note_on_c, 0, 50, 0
1, 59040, Note_on_c, 0, 42, 0
1, 59040, Note_on_c, 0, 42, 38
1, 59040, Note_on_c, 0, 50, 45
1, 59520, Note_on_c, 0, 50, 0
1, 59520, Note_on_c, 0, 78, 0
1, 59520, Note_on_c, 0, 38, 0
1, 59520, Note_on_c, 0, 81, 0
1, 59520, Note_on_c, 0, 74, 0
1, 59520, Note_on_c, 0, 42, 0
1, 59520, Note_on_c, 0, 86, 0
1, 59520, Note_on_c, 0, 72, 61
1, 59520, Note_on_c, 0, 78, 61
1, 59520, Note_on_c, 0, 84, 61
1, 59520, Note_on_c, 0, 80, 61
1, 59520, Note_on_c, 0, 44, 37
1, 59520, Note_on_c, 0, 51, 45
1, 59520, Note_on_c, 0, 39, 37
1, 59520, Control_c, 0, 64, 0
1, 59867, Control_c, 0, 64, 127
1, 60000, Tempo, 631579
1, 60000, Note_on_c, 0, 51, 0
1, 60000, Note_on_c, 0, 44, 0
1, 60000, Note_on_c, 0, 44, 34
1, 60000, Note_on_c, 0, 51, 41
1, 60480, Note_on_c, 0, 51, 0
1, 60480, Note_on_c, 0, 78, 0
1, 60480, Note_on_c, 0, 39, 0
1, 60480, Note_on_c, 0, 84, 0
1, 60480, Note_on_c, 0, 72, 0
1, 60480, Note_on_c, 0, 44, 0
1, 60480, Note_on_c, 0, 80, 0
1, 60480, Note_on_c, 0, 76, 55
1, 60480, Note_on_c, 0, 73, 55
1, 60480, Note_on_c, 0, 80, 55
1, 60480, Note_on_c, 0, 85, 55
1, 60480, Note_on_c, 0, 49, 35
1, 60480, Note_on_c, 0, 52, 41
1, 60480, Note_on_c, 0, 40, 35
1, 60490, Control_c, 0, 64, 0
1, 60827, Control_c, 0, 64, 127
1, 60960, Tempo, 641711
1, 60960, Note_on_c, 0, 52, 0
1, 60960, Note_on_c, 0, 85, 0
1, 60960, Note_on_c, 0, 73, 0
1, 60960, Note_on_c, 0, 80, 0
1, 60960, Note_on_c, 0, 76, 0
1, 60960, Note_on_c, 0, 49, 0
1, 60960, Note_on_c, 0, 68, 44
1, 60960, Note_on_c, 0, 80, 44
1, 60960, Note_on_c, 0, 49, 31
1, 60960, Note_on_c, 0, 52, 37
1, 61440, Note_on_c, 0, 52, 0
1, 61440, Note_on_c, 0, 80, 0
1, 61440, Note_on_c, 0, 40, 0
1, 61440, Note_on_c, 0, 68, 0
1, 61440, Note_on_c, 0, 49, 0
1, 61440, Note_on_c, 0, 75, 44
1, 61440, Note_on_c, 0, 81, 44
1, 61440, Note_on_c, 0, 73, 44
1, 61440, Note_on_c, 0, 69, 44
1, 61440, Note_on_c, 0, 49, 27
1, 61440, Note_on_c, 0, 54, 32
1, 61440, Note_on_c, 0, 42, 27
1, 61440, Control_c, 0, 64, 0
1, 61734, Control_c, 0, 64, 127
1, 61920, Note_on_c, 0, 54, 0
1, 61920, Note_on_c, 0, 49, 0
1, 61920, Note_on_c, 0, 49, 20
1, 61920, Note_on_c, 0, 54, 24
1, 62400, Note_on_c, 0, 54, 0
1, 62400, Note_on_c, 0, 81, 0
1, 62400, Note_on_c, 0, 42, 0
1, 62400, Note_on_c, 0, 73, 0
1, 62400, Note_on_c, 0, 75, 0
1, 62400, Note_on_c, 0, 49, 0
1, 62400, Note_on_c, 0, 69, 0
1, 62400, Note_on_c, 0, 76, 38
1, 62400, Note_on_c, 0, 80, 38
1, 62400, Note_on_c, 0, 68, 38
1, 62400, Note_on_c, 0, 73, 38
1, 62400, Note_on_c, 0, 49, 23
1, 62400, Note_on_c, 0, 56, 27
1, 62400, Note_on_c, 0, 44, 23
1, 62413, Control_c, 0, 64, 0
1, 62720, Control_c, 0, 64, 127
1, 62880, Note_on_c, 0, 56, 0
1, 62880, Note_on_c, 0, 49, 0
1, 62880, Note_on_c, 0, 49, 19
1, 62880, Note_on_c, 0, 56, 22
1, 63360, Note_on_c, 0, 56, 0
1, 63360, Note_on_c, 0, 80, 0
1, 63360, Note_on_c, 0, 44, 0
1, 63360, Note_on_c, 0, 68, 0
1, 63360, Note_on_c, 0, 76, 0
1, 63360, Note_on_c, 0, 49, 0
1, 63360, Note_on_c, 0, 73, 0
1, 63360, Note_on_c, 0, 66, 47
1, 63360, Note_on_c, 0, 73, 47
1, 63360, Note_on_c, 0, 75, 47
1, 63360, Note_on_c, 0, 78, 47
1, 63360, Note_on_c, 0, 49, 28
1, 63360, Note_on_c, 0, 57, 34
1, 63360, Note_on_c, 0, 45, 28
1, 63360, Control_c, 0, 64, 0
1, 63586, Control_c, 0, 64, 127
1, 63840, Tempo, 631579
1, 63840, Note_on_c, 0, 57, 0
1, 63840, Note_on_c, 0, 49, 0
1, 63840, Note_on_c, 0, 49, 28
1, 63840, Note_on_c, 0, 57, 34
1, 64320, Note_on_c, 0, 57, 0
1, 64320, Note_on_c, 0, 73, 0
1, 64320, Note_on_c, 0, 45, 0
1, 64320, Note_on_c, 0, 75, 0
1, 64320, Note_on_c, 0, 66, 0
1, 64320, Note_on_c, 0, 49, 0
1, 64320, Note_on_c, 0, 78, 0
1, 64320, Note_on_c, 0, 73, 52
1, 64320, Note_on_c, 0, 85, 52
1, 64320, Note_on_c, 0, 51, 28
1, 64320, Note_on_c, 0, 54, 33
1, 64320, Note_on_c, 0, 42, 28
1, 64336, Control_c, 0, 64, 0
1, 64532, Control_c, 0, 64, 127
1, 64560, Note_on_c, 0, 85, 0
1, 64560, Note_on_c, 0, 73, 0
1, 64800, Tempo, 641711
1, 64800, Note_on_c, 0, 54, 0
1, 64800, Note_on_c, 0, 51, 0
1, 64800, Note_on_c, 0, 51, 36
1, 64800, Note_on_c, 0, 54, 43
1, 65280, Tempo, 641711
1, 65280, Note_on_c, 0, 54, 0
1, 65280, Note_on_c, 0, 51, 0
1, 65280, Note_on_c, 0, 42, 0
1, 65280, Note_on_c, 0, 73, 84
1, 65280, Note_on_c, 0, 79, 84
1, 65280, Note_on_c, 0, 82, 84
1, 65280, Note_on_c, 0, 70, 84
1, 65280, Note_on_c, 0, 55, 67
1, 65280, Note_on_c, 0, 51, 56
1, 65280, Note_on_c, 0, 43, 56
1, 65280, Control_c, 0, 64, 0
1, 65440, Control_c, 0, 64, 127
1, 65760, Note_on_c, 0, 51, 0
1, 65760, Note_on_c, 0, 55, 0
1, 65760, Note_on_c, 0, 51, 50
1, 65760, Note_on_c, 0, 55, 59
1, 66240, Note_on_c, 0, 55, 0
1, 66240, Note_on_c, 0, 43, 0
1, 66240, Note_on_c, 0, 51, 0
1, 66240, Note_on_c, 0, 46, 56
1, 66240, Note_on_c, 0, 51, 67
1, 66240, Note_on_c, 0, 39, 56
1, 66720, Note_on_c, 0, 51, 0
1, 66720, Note_on_c, 0, 46, 0
1, 66720, Note_on_c, 0, 46, 51
1, 66720, Note_on_c, 0, 51, 60
1, 67200, Tempo, 655738
1, 67200, Note_on_c, 0, 51, 0
1, 67200, Note_on_c, 0, 79, 0
1, 67200, Note_on_c, 0, 39, 0
1, 67200, Note_on_c, 0, 70, 0
1, 67200, Note_on_c, 0, 73, 0
1, 67200, Note_on_c, 0, 46, 0
1, 67200, Note_on_c, 0, 82, 0
1, 67200, Note_on_c, 0, 75, 96
1, 67200, Note_on_c, 0, 80, 96
1, 67200, Note_on_c, 0, 83, 96
1, 67200, Note_on_c, 0, 71, 96
1, 67200, Note_on_c, 0, 51, 65
1, 67200, Note_on_c, 0, 56, 77
1, 67200, Note_on_c, 0, 44, 65
1, 67200, Control_c, 0, 64, 0
1, 67334, Control_c, 0, 64, 127
1, 67680, Tempo, 631579
1, 67680, Note_on_c, 0, 56, 0
1, 67680, Note_on_c, 0, 71, 0
1, 67680, Note_on_c, 0, 80, 0
1, 67680, Note_on_c, 0, 83, 0
1, 67680, Note_on_c, 0, 75, 0
1, 67680, Note_on_c, 0, 51, 0
1, 67680, Note_on_c, 0, 51, 60
1, 67680, Note_on_c, 0, 56, 71
1, 68160, Tempo, 641711
1, 68160, Note_on_c, 0, 56, 0
1, 68160, Note_on_c, 0, 51, 0
1, 68160, Note_on_c, 0, 44, 0
1, 68160, Note_on_c, 0, 92, 104
1, 68160, Note_on_c, 0, 80, 104
1, 68160, Note_on_c, 0, 47, 77
1, 68160, Note_on_c, 0, 39, 65
1, 68160, Note_on_c, 0, 35, 65
1, 68168, Control_c, 0, 64, 0
1, 68507, Control_c, 0, 64, 127
1, 68640, Tempo, 652174
1, 68640, Note_on_c, 0, 39, 0
1, 68640, Note_on_c, 0, 47, 0
1, 68640, Note_on_c, 0, 92, 0
1, 68640, Note_on_c, 0, 80, 0
1, 68640, Note_on_c, 0, 39, 62
1, 68640, Note_on_c, 0, 47, 73
1, 69120, Note_on_c, 0, 47, 0
1, 69120, Note_on_c, 0, 39, 0
1, 69120, Note_on_c, 0, 35, 0
1, 69120, Note_on_c, 0, 88, 99
1, 69120, Note_on_c, 0, 76, 99
1, 69120, Note_on_c, 0, 85, 99
1, 69120, Note_on_c, 0, 80, 99
1, 69120, Note_on_c, 0, 49, 77
1, 69120, Note_on_c, 0, 44, 65
1, 69120, Note_on_c, 0, 37, 65
1, 69120, Control_c, 0, 64, 0
1, 69234, Control_c, 0, 64, 127
1, 69600, Tempo, 628272
1, 69600, Note_on_c, 0, 44, 0
1, 69600, Note_on_c, 0, 80, 0
1, 69600, Note_on_c, 0, 76, 0
1, 69600, Note_on_c, 0, 85, 0
1, 69600, Note_on_c, 0, 88, 0
1, 69600, Note_on_c, 0, 49, 0
1, 69600, Note_on_c, 0, 44, 56
1, 69600, Note_on_c, 0, 49, 67
1, 70080, Tempo, 645161
1, 70080, Note_on_c, 0, 49, 0
1, 70080, Note_on_c, 0, 44, 0
1, 70080, Note_on_c, 0, 37, 0
1, 70080, Note_on_c, 0, 87, 95
1, 70080, Note_on_c, 0, 83, 95
1, 70080, Note_on_c, 0, 79, 95
1, 70080, Note_on_c, 0, 75, 95
1, 70080, Note_on_c, 0, 51, 74
1, 70080, Note_on_c, 0, 43, 62
1, 70080, Note_on_c, 0, 39, 62
1, 70093, Control_c, 0, 64, 0
1, 70309, Control_c, 0, 64, 127
1, 70560, Tempo, 659341
1, 70560, Note_on_c, 0, 43, 0
1, 70560, Note_on_c, 0, 75, 0
1, 70560, Note_on_c, 0, 83, 0
1, 70560, Note_on_c, 0, 79, 0
1, 70560, Note_on_c, 0, 87, 0
1, 70560, Note_on_c, 0, 51, 0
1, 70560, Note_on_c, 0, 71, 94
1, 70560, Note_on_c, 0, 83, 94
1, 70560, Note_on_c, 0, 43, 57
1, 70560, Note_on_c, 0, 51, 68
1, 71040, Tempo, 659341
1, 71040, Note_on_c, 0, 51, 0
1, 71040, Note_on_c, 0, 83, 0
1, 71040, Note_on_c, 0, 39, 0
1, 71040, Note_on_c, 0, 71, 0
1, 71040, Note_on_c, 0, 43, 0
1, 71040, Note_on_c, 0, 68, 90
1, 71040, Note_on_c, 0, 80, 100
1, 71040, Note_on_c, 0, 32, 57
1, 71040, Note_on_c, 0, 39, 64
1, 71040, Note_on_c, 0, 44, 76
1, 71040, Control_c, 0, 64, 0
1, 71254, Control_c, 0, 64, 127
1, 71520, Note_on_c, 0, 44, 0
1, 71520, Note_on_c, 0, 32, 0
1, 71520, Note_on_c, 0, 68, 0
1, 71520, Note_on_c, 0, 80, 0
1, 71520, Note_on_c, 0, 39, 0
1, 71520, Note_on_c, 0, 35, 52
1, 71520, Note_on_c, 0, 39, 58
1, 71520, Note_on_c, 0, 47, 69
1, 72000, Tempo, 652174
1, 72000, Note_on_c, 0, 47, 0
1, 72000, Note_on_c, 0, 39, 0
1, 72000, Note_on_c, 0, 35, 0
1, 72000, Note_on_c, 0, 75, 102
1, 72000, Note_on_c, 0, 63, 86
1, 72000, Note_on_c, 0, 32, 57
1, 72000, Note_on_c, 0, 39, 64
1, 72000, Note_on_c, 0, 44, 76
1, 72009, Control_c, 0, 64, 0
1, 72320, Control_c, 0, 64, 127
1, 72480, Tempo, 641711
1, 72480, Note_on_c, 0, 44, 0
1, 72480, Note_on_c, 0, 32, 0
1, 72480, Note_on_c, 0, 39, 0
1, 72480, Note_on_c, 0, 35, 47
1, 72480, Note_on_c, 0, 39, 53
1, 72480, Note_on_c, 0, 47, 63
1, 72960, Tempo, 652174
1, 72960, Note_on_c, 0, 47, 0
1, 72960, Note_on_c, 0, 35, 0
1, 72960, Note_on_c, 0, 39, 0
1, 72960, Note_on_c, 0, 32, 58
1, 72960, Note_on_c, 0, 39, 65
1, 72960, Note_on_c, 0, 44, 77
1, 73440, Tempo, 631579
1, 73440, Note_on_c, 0, 44, 0
1, 73440, Note_on_c, 0, 32, 0
1, 73440, Note_on_c, 0, 75, 0
1, 73440, Note_on_c, 0, 63, 0
1, 73440, Note_on_c, 0, 39, 0
1, 73440, Note_on_c, 0, 78, 100
1, 73440, Note_on_c, 0, 66, 90
1, 73440, Note_on_c, 0, 35, 53
1, 73440, Note_on_c, 0, 39, 59
1, 73440, Note_on_c, 0, 47, 70
1, 73452, Control_c, 0, 64, 0
1, 73638, Control_c, 0, 64, 127
1, 73680, Tempo, 641711
1, 73680, Note_on_c, 0, 66, 0
1, 73680, Note_on_c, 0, 78, 0
1, 73680, Note_on_c, 0, 76, 92
1, 73680, Note_on_c, 0, 64, 82
1, 73920, Tempo, 634921
1, 73920, Note_on_c, 0, 64, 0
1, 73920, Note_on_c, 0, 39, 0
1, 73920, Note_on_c, 0, 47, 0
1, 73920, Note_on_c, 0, 35, 0
1, 73920, Note_on_c, 0, 76, 0
1, 73920, Note_on_c, 0, 63, 88
1, 73920, Note_on_c, 0, 75, 98
1, 73920, Note_on_c, 0, 32, 58
1, 73920, Note_on_c, 0, 39, 65
1, 73920, Note_on_c, 0, 44, 77
1, 73934, Control_c, 0, 64, 0
1, 74047, Control_c, 0, 64, 127
1, 74400, Tempo, 638298
1, 74400, Note_on_c, 0, 44, 0
1, 74400, Note_on_c, 0, 32, 0
1, 74400, Note_on_c, 0, 63, 0
1, 74400, Note_on_c, 0, 75, 0
1, 74400, Note_on_c, 0, 39, 0
1, 74400, Note_on_c, 0, 64, 82
1, 74400, Note_on_c, 0, 76, 92
1, 74400, Note_on_c, 0, 35, 52
1, 74400, Note_on_c, 0, 39, 58
1, 74400, Note_on_c, 0, 47, 69
1, 74412, Control_c, 0, 64, 0
1, 74598, Control_c, 0, 64, 127
1, 74880, Tempo, 645161
1, 74880, Note_on_c, 0, 47, 0
1, 74880, Note_on_c, 0, 35, 0
1, 74880, Note_on_c, 0, 64, 0
1, 74880, Note_on_c, 0, 76, 0
1, 74880, Note_on_c, 0, 39, 0
1, 74880, Note_on_c, 0, 75, 96
1, 74880, Note_on_c, 0, 63, 86
1, 74880, Note_on_c, 0, 32, 56
1, 74880, Note_on_c, 0, 39, 62
1, 74880, Note_on_c, 0, 44, 74
1, 74880, Control_c, 0, 64, 0
1, 75093, Control_c, 0, 64, 127
1, 75360, Tempo, 638298
1, 75360, Note_on_c, 0, 44, 0
1, 75360, Note_on_c, 0, 32, 0
1, 75360, Note_on_c, 0, 75, 0
1, 75360, Note_on_c, 0, 63, 0
1, 75360, Note_on_c, 0, 39, 0
1, 75360, Note_on_c, 0, 80, 106
1, 75360, Note_on_c, 0, 68, 95
1, 75360, Note_on_c, 0, 35, 51
1, 75360, Note_on_c, 0, 39, 57
1, 75360, Note_on_c, 0, 47, 68
1, 75372, Control_c, 0, 64, 0
1, 75600, Control_c, 0, 64, 127
1, 75840, Tempo, 641711
1, 75840, Note_on_c, 0, 47, 0
1, 75840, Note_on_c, 0, 35, 0
1, 75840, Note_on_c, 0, 80, 0
1, 75840, Note_on_c, 0, 68, 0
1, 75840, Note_on_c, 0, 39, 0
1, 75840, Note_on_c, 0, 82, 110
1, 75840, Note_on_c, 0, 70, 99
1, 75840, Note_on_c, 0, 32, 58
1, 75840, Note_on_c, 0, 39, 65
1, 75840, Note_on_c, 0, 44, 77
1, 75853, Control_c, 0, 64, 0
1, 76080, Control_c, 0, 64, 127
1, 76320, Tempo, 652174
1, 76320, Note_on_c, 0, 44, 0
1, 76320, Note_on_c, 0, 32, 0
1, 76320, Note_on_c, 0, 82, 0
1, 76320, Note_on_c, 0, 70, 0
1, 76320, Note_on_c, 0, 39, 0
1, 76320, Note_on_c, 0, 83, 110
1, 76320, Note_on_c, 0, 71, 99
1, 76320, Note_on_c, 0, 35, 51
1, 76320, Note_on_c, 0, 39, 57
1, 76320, Note_on_c, 0, 47, 68
1, 76333, Control_c, 0, 64, 0
1, 76587, Control_c, 0, 64, 127
1, 76800, Tempo, 666667
1, 76800, Note_on_c, 0, 47, 0
1, 76800, Note_on_c, 0, 35, 0
1, 76800, Note_on_c, 0, 83, 0
1, 76800, Note_on_c, 0, 71, 0
1, 76800, Note_on_c, 0, 39, 0
1, 76800, Note_on_c, 0, 82, 113
1, 76800, Note_on_c, 0, 70, 101
1, 76800, Note_on_c, 0, 32, 60
1, 76800, Note_on_c, 0, 39, 67
1, 76800, Note_on_c, 0, 44, 79
1, 76800, Control_c, 0, 64, 0
1, 77040, Control_c, 0, 64, 127
1, 77280, Tempo, 652174
1, 77280, Note_on_c, 0, 44, 0
1, 77280, Note_on_c, 0, 32, 0
1, 77280, Note_on_c, 0, 39, 0
1, 77280, Note_on_c, 0, 35, 52
1, 77280, Note_on_c, 0, 39, 58
1, 77280, Note_on_c, 0, 47, 69
1, 77760, Tempo, 662983
1, 77760, Note_on_c, 0, 47, 0
1, 77760, Note_on_c, 0, 35, 0
1, 77760, Note_on_c, 0, 82, 0
1, 77760, Note_on_c, 0, 70, 0
1, 77760, Note_on_c, 0, 39, 0
1, 77760, Note_on_c, 0, 80, 110
1, 77760, Note_on_c, 0, 68, 99
1, 77760, Note_on_c, 0, 32, 56
1, 77760, Note_on_c, 0, 39, 62
1, 77760, Note_on_c, 0, 44, 74
1, 77768, Control_c, 0, 64, 0
1, 78000, Control_c, 0, 64, 127
1, 78240, Tempo, 652174
1, 78240, Note_on_c, 0, 44, 0
1, 78240, Note_on_c, 0, 32, 0
1, 78240, Note_on_c, 0, 80, 0
1, 78240, Note_on_c, 0, 68, 0
1, 78240, Note_on_c, 0, 39, 0
1, 78240, Note_on_c, 0, 35, 53
1, 78240, Note_on_c, 0, 39, 59
1, 78240, Note_on_c, 0, 47, 70
1, 78720, Tempo, 666667
1, 78720, Note_on_c, 0, 47, 0
1, 78720, Note_on_c, 0, 39, 0
1, 78720, Note_on_c, 0, 35, 0
1, 78720, Note_on_c, 0, 85, 113
1, 78720, Note_on_c, 0, 73, 101
1, 78720, Note_on_c, 0, 37, 69
1, 78720, Note_on_c, 0, 33, 62
1, 78720, Note_on_c, 0, 45, 82
1, 78720, Control_c, 0, 64, 0
1, 78972, Control_c, 0, 64, 127
1, 79200, Tempo, 655738
1, 79200, Note_on_c, 0, 45, 0
1, 79200, Note_on_c, 0, 37, 0
1, 79200, Note_on_c, 0, 33, 0
1, 79200, Note_on_c, 0, 37, 48
1, 79200, Note_on_c, 0, 40, 54
1, 79200, Note_on_c, 0, 49, 64
1, 79680, Tempo, 662983
1, 79680, Note_on_c, 0, 49, 0
1, 79680, Note_on_c, 0, 37, 0
1, 79680, Note_on_c, 0, 85, 0
1, 79680, Note_on_c, 0, 73, 0
1, 79680, Note_on_c, 0, 40, 0
1, 79680, Note_on_c, 0, 80, 95
1, 79680, Note_on_c, 0, 92, 106
1, 79680, Note_on_c, 0, 52, 70
1, 79680, Note_on_c, 0, 44, 59
1, 79680, Note_on_c, 0, 40, 59
1, 79692, Control_c, 0, 64, 0
1, 79932, Control_c, 0, 64, 127
1, 80160, Tempo, 652174
1, 80160, Note_on_c, 0, 40, 0
1, 80160, Note_on_c, 0, 52, 0
1, 80160, Note_on_c, 0, 80, 0
1, 80160, Note_on_c, 0, 92, 0
1, 80160, Note_on_c, 0, 44, 0
1, 80160, Note_on_c, 0, 56, 66
1, 80160, Note_on_c, 0, 47, 56
1, 80160, Note_on_c, 0, 44, 50
1, 80640, Tempo, 662983
1, 80640, Note_on_c, 0, 44, 0
1, 80640, Note_on_c, 0, 47, 0
1, 80640, Note_on_c, 0, 56, 0
1, 80640, Note_on_c, 0, 85, 115
1, 80640, Note_on_c, 0, 73, 103
1, 80640, Note_on_c, 0, 37, 69
1, 80640, Note_on_c, 0, 33, 62
1, 80640, Note_on_c, 0, 45, 82
1, 80640, Control_c, 0, 64, 0
1, 80983, Control_c, 0, 64, 127
1, 81120, Note_on_c, 0, 45, 0
1, 81120, Note_on_c, 0, 37, 0
1, 81120, Note_on_c, 0, 33, 0
1, 81120, Note_on_c, 0, 37, 51
1, 81120, Note_on_c, 0, 40, 56
1, 81120, Note_on_c, 0, 49, 67
1, 81600, Tempo, 648649
1, 81600, Note_on_c, 0, 49, 0
1, 81600, Note_on_c, 0, 37, 0
1, 81600, Note_on_c, 0, 85, 0
1, 81600, Note_on_c, 0, 73, 0
1, 81600, Note_on_c, 0, 40, 0
1, 81600, Note_on_c, 0, 92, 106
1, 81600, Note_on_c, 0, 80, 95
1, 81600, Note_on_c, 0, 52, 75
1, 81600, Note_on_c, 0, 44, 63
1, 81600, Note_on_c, 0, 40, 56
1, 81615, Control_c, 0, 64, 0
1, 81875, Control_c, 0, 64, 127
1, 82080, Tempo, 655738
1, 82080, Note_on_c, 0, 40, 0
1, 82080, Note_on_c, 0, 52, 0
1, 82080, Note_on_c, 0, 92, 0
1, 82080, Note_on_c, 0, 80, 0
1, 82080, Note_on_c, 0, 44, 0
1, 82080, Note_on_c, 0, 92, 104
1, 82080, Note_on_c, 0, 80, 93
1, 82080, Note_on_c, 0, 56, 65
1, 82080, Note_on_c, 0, 47, 55
1, 82080, Note_on_c, 0, 44, 49
1, 82560, Tempo, 666667
1, 82560, Note_on_c, 0, 44, 0
1, 82560, Note_on_c, 0, 56, 0
1, 82560, Note_on_c, 0, 92, 0
1, 82560, Note_on_c, 0, 80, 0
1, 82560, Note_on_c, 0, 47, 0
1, 82560, Note_on_c, 0, 87, 110
1, 82560, Note_on_c, 0, 75, 99
1, 82560, Note_on_c, 0, 34, 69
1, 82560, Note_on_c, 0, 31, 62
1, 82560, Note_on_c, 0, 43, 82
1, 82560, Control_c, 0, 64, 0
1, 82835, Control_c, 0, 64, 127
1, 83040, Tempo, 652174
1, 83040, Note_on_c, 0, 43, 0
1, 83040, Note_on_c, 0, 34, 0
1, 83040, Note_on_c, 0, 31, 0
1, 83040, Note_on_c, 0, 34, 47
1, 83040, Note_on_c, 0, 39, 53
1, 83040, Note_on_c, 0, 46, 63
1, 83520, Tempo, 666667
1, 83520, Note_on_c, 0, 46, 0
1, 83520, Note_on_c, 0, 34, 0
1, 83520, Note_on_c, 0, 87, 0
1, 83520, Note_on_c, 0, 75, 0
1, 83520, Note_on_c, 0, 39, 0
1, 83520, Note_on_c, 0, 85, 105
1, 83520, Note_on_c, 0, 73, 94
1, 83520, Note_on_c, 0, 31, 52
1, 83520, Note_on_c, 0, 34, 58
1, 83520, Note_on_c, 0, 43, 69
1, 83532, Control_c, 0, 64, 0
1, 83817, Control_c, 0, 64, 127
1, 84000, Tempo, 655738
1, 84000, Note_on_c, 0, 43, 0
1, 84000, Note_on_c, 0, 31, 0
1, 84000, Note_on_c, 0, 34, 0
1, 84000, Note_on_c, 0, 34, 40
1, 84000, Note_on_c, 0, 39, 45
1, 84000, Note_on_c, 0, 46, 54
1, 84480, Tempo, 648649
1, 84480, Note_on_c, 0, 46, 0
1, 84480, Note_on_c, 0, 34, 0
1, 84480, Note_on_c, 0, 85, 0
1, 84480, Note_on_c, 0, 73, 0
1, 84480, Note_on_c, 0, 39, 0
1, 84480, Note_on_c, 0, 83, 102
1, 84480, Note_on_c, 0, 71, 91
1, 84480, Note_on_c, 0, 32, 58
1, 84480, Note_on_c, 0, 39, 65
1, 84480, Note_on_c, 0, 44, 77
1, 84487, Control_c, 0, 64, 0
1, 84732, Control_c, 0, 64, 127
1, 84960, Tempo, 655738
1, 84960, Note_on_c, 0, 44, 0
1, 84960, Note_on_c, 0, 32, 0
1, 84960, Note_on_c, 0, 83, 0
1, 84960, Note_on_c, 0, 71, 0
1, 84960, Note_on_c, 0, 39, 0
1, 84960, Note_on_c, 0, 87, 96
1, 84960, Note_on_c, 0, 75, 86
1, 84960, Note_on_c, 0, 35, 47
1, 84960, Note_on_c, 0, 39, 53
1, 84960, Note_on_c, 0, 47, 63
1, 85440, Note_on_c, 0, 47, 0
1, 85440, Note_on_c, 0, 35, 0
1, 85440, Note_on_c, 0, 87, 0
1, 85440, Note_on_c, 0, 75, 0
1, 85440, Note_on_c, 0, 39, 0
1, 85440, Note_on_c, 0, 82, 102
1, 85440, Note_on_c, 0, 70, 91
1, 85440, Note_on_c, 0, 27, 49
1, 85440, Note_on_c, 0, 34, 55
1, 85440, Note_on_c, 0, 39, 65
1, 85452, Control_c, 0, 64, 0
1, 85692, Control_c, 0, 64, 127
1, 85920, Tempo, 666667
1, 85920, Note_on_c, 0, 39, 0
1, 85920, Note_on_c, 0, 27, 0
1, 85920, Note_on_c, 0, 82, 0
1, 85920, Note_on_c, 0, 70, 0
1, 85920, Note_on_c, 0, 34, 0
1, 85920, Note_on_c, 0, 31, 39
1, 85920, Note_on_c, 0, 39, 45
1, 85920, Note_on_c, 0, 43, 53
1, 86400, Tempo, 666667
1, 86400, Note_on_c, 0, 43, 0
1, 86400, Note_on_c, 0, 39, 0
1, 86400, Note_on_c, 0, 31, 0
1, 86400, Note_on_c, 0, 80, 96
1, 86400, Note_on_c, 0, 68, 86
1, 86400, Note_on_c, 0, 32, 53
1, 86400, Note_on_c, 0, 35, 60
1, 86400, Note_on_c, 0, 44, 71
1, 86400, Control_c, 0, 64, 0
1, 86606, Control_c, 0, 64, 127
1, 86880, Note_on_c, 0, 44, 0
1, 86880, Note_on_c, 0, 32, 0
1, 86880, Note_on_c, 0, 35, 0
1, 86880, Note_on_c, 0, 35, 40
1, 86880, Note_on_c, 0, 39, 45
1, 86880, Note_on_c, 0, 47, 54
1, 87360, Tempo, 655738
1, 87360, Note_on_c, 0, 47, 0
1, 87360, Note_on_c, 0, 35, 0
1, 87360, Note_on_c, 0, 80, 0
1, 87360, Note_on_c, 0, 68, 0
1, 87360, Note_on_c, 0, 39, 0
1, 87360, Note_on_c, 0, 78, 89
1, 87360, Note_on_c, 0, 66, 80
1, 87360, Note_on_c, 0, 33, 44
1, 87360, Note_on_c, 0, 37, 49
1, 87360, Note_on_c, 0, 45, 58
1, 87373, Control_c, 0, 64, 0
1, 87566, Control_c, 0, 64, 127
1, 87840, Tempo, 674157
1, 87840, Note_on_c, 0, 45, 0
1, 87840, Note_on_c, 0, 33, 0
1, 87840, Note_on_c, 0, 78, 0
1, 87840, Note_on_c, 0, 66, 0
1, 87840, Note_on_c, 0, 37, 0
1, 87840, Note_on_c, 0, 76, 81
1, 87840, Note_on_c, 0, 64, 72
1, 87840, Note_on_c, 0, 37, 38
1, 87840, Note_on_c, 0, 40, 42
1, 87840, Note_on_c, 0, 49, 50
1, 87853, Control_c, 0, 64, 0
1, 88069, Control_c, 0, 64, 127
1, 88320, Tempo, 666667
1, 88320, Note_on_c, 0, 49, 0
1, 88320, Note_on_c, 0, 37, 0
1, 88320, Note_on_c, 0, 76, 0
1, 88320, Note_on_c, 0, 64, 0
1, 88320, Note_on_c, 0, 40, 0
1, 88320, Note_on_c, 0, 75, 85
1, 88320, Note_on_c, 0, 63, 76
1, 88320, Note_on_c, 0, 32, 40
1, 88320, Note_on_c, 0, 39, 45
1, 88320, Note_on_c, 0, 44, 54
1, 88320, Control_c, 0, 64, 0
1, 88533, Control_c, 0, 64, 127
1, 88800, Tempo, 689655
1, 88800, Note_on_c, 0, 44, 0
1, 88800, Note_on_c, 0, 32, 0
1, 88800, Note_on_c, 0, 75, 0
1, 88800, Note_on_c, 0, 63, 0
1, 88800, Note_on_c, 0, 39, 0
1, 88800, Note_on_c, 0, 35, 28
1, 88800, Note_on_c, 0, 39, 31
1, 88800, Note_on_c, 0, 47, 37
1, 89280, Tempo, 666667
1, 89280, Note_on_c, 0, 47, 0
1, 89280, Note_on_c, 0, 39, 0
1, 89280, Note_on_c, 0, 35, 0
1, 89280, Note_on_c, 0, 51, 57
1, 89280, Note_on_c, 0, 32, 25
1, 89280, Note_on_c, 0, 39, 28
1, 89280, Note_on_c, 0, 44, 34
1, 89295, Control_c, 0, 64, 0
1, 89627, Control_c, 0, 64, 127
1, 89760, Tempo, 655738
1, 89760, Note_on_c, 0, 44, 0
1, 89760, Note_on_c, 0, 39, 0
1, 89760, Note_on_c, 0, 32, 0
1, 89760, Note_on_c, 0, 35, 23
1, 89760, Note_on_c, 0, 39, 27
1, 89760, Note_on_c, 0, 47, 32
1, 90240, Tempo, 666667
1, 90240, Note_on_c, 0, 47, 0
1, 90240, Note_on_c, 0, 39, 0
1, 90240, Note_on_c, 0, 35, 0
1, 90240, Note_on_c, 0, 32, 25
1, 90240, Note_on_c, 0, 39, 28
1, 90240, Note_on_c, 0, 44, 34
1, 90720, Tempo, 652174
1, 90720, Note_on_c, 0, 44, 0
1, 90720, Note_on_c, 0, 51, 0
1, 90720, Note_on_c, 0, 32, 0
1, 90720, Note_on_c, 0, 39, 0
1, 90720, Note_on_c, 0, 54, 59
1, 90720, Note_on_c, 0, 35, 23
1, 90720, Note_on_c, 0, 39, 27
1, 90720, Note_on_c, 0, 47, 32
1, 90732, Control_c, 0, 64, 0
1, 90861, Control_c, 0, 64, 127
1, 90960, Note_on_c, 0, 54, 0
1, 90960, Note_on_c, 0, 52, 56
1, 91200, Tempo, 666667
1, 91200, Note_on_c, 0, 52, 0
1, 91200, Note_on_c, 0, 47, 0
1, 91200, Note_on_c, 0, 39, 0
1, 91200, Note_on_c, 0, 35, 0
1, 91200, Note_on_c, 0, 51, 59
1, 91200, Note_on_c, 0, 32, 25
1, 91200, Note_on_c, 0, 39, 28
1, 91200, Note_on_c, 0, 44, 34
1, 91214, Control_c, 0, 64, 0
1, 91398, Control_c, 0, 64, 127
1, 91680, Tempo, 655738
1, 91680, Note_on_c, 0, 44, 0
1, 91680, Note_on_c, 0, 51, 0
1, 91680, Note_on_c, 0, 32, 0
1, 91680, Note_on_c, 0, 39, 0
1, 91680, Note_on_c, 0, 52, 56
1, 91680, Note_on_c, 0, 35, 23
1, 91680, Note_on_c, 0, 39, 27
1, 91680, Note_on_c, 0, 47, 32
1, 91694, Control_c, 0, 64, 0
1, 91878, Control_c, 0, 64, 127
1, 92160, Tempo, 659341
1, 92160, Note_on_c, 0, 47, 0
1, 92160, Note_on_c, 0, 52, 0
1, 92160, Note_on_c, 0, 35, 0
1, 92160, Note_on_c, 0, 39, 0
1, 92160, Note_on_c, 0, 51, 59
1, 92160, Note_on_c, 0, 32, 25
1, 92160, Note_on_c, 0, 39, 28
1, 92160, Note_on_c, 0, 44, 34
1, 92163, Control_c, 0, 64, 0
1, 92373, Control_c, 0, 64, 127
1, 92640, Tempo, 645161
1, 92640, Note_on_c, 0, 44, 0
1, 92640, Note_on_c, 0, 51, 0
1, 92640, Note_on_c, 0, 32, 0
1, 92640, Note_on_c, 0, 39, 0
1, 92640, Note_on_c, 0, 56, 58
1, 92640, Note_on_c, 0, 35, 22
1, 92640, Note_on_c, 0, 39, 24
1, 92640, Note_on_c, 0, 47, 29
1, 92650, Control_c, 0, 64, 0
1, 92880, Control_c, 0, 64, 127
1, 93120, Tempo, 645161
1, 93120, Note_on_c, 0, 47, 0
1, 93120, Note_on_c, 0, 56, 0
1, 93120, Note_on_c, 0, 35, 0
1, 93120, Note_on_c, 0, 39, 0
1, 93120, Note_on_c, 0, 58, 59
1, 93120, Note_on_c, 0, 32, 26
1, 93120, Note_on_c, 0, 39, 29
1, 93120, Note_on_c, 0, 44, 35
1, 93133, Control_c, 0, 64, 0
1, 93440, Control_c, 0, 64, 127
1, 93600, Tempo, 655738
1, 93600, Note_on_c, 0, 44, 0
1, 93600, Note_on_c, 0, 58, 0
1, 93600, Note_on_c, 0, 32, 0
1, 93600, Note_on_c, 0, 39, 0
1, 93600, Note_on_c, 0, 59, 59
1, 93600, Note_on_c, 0, 35, 23
1, 93600, Note_on_c, 0, 39, 26
1, 93600, Note_on_c, 0, 47, 31
1, 93612, Control_c, 0, 64, 0
1, 93867, Control_c, 0, 64, 127
1, 94080, Tempo, 666667
1, 94080, Note_on_c, 0, 47, 0
1, 94080, Note_on_c, 0, 59, 0
1, 94080, Note_on_c, 0, 35, 0
1, 94080, Note_on_c, 0, 39, 0
1, 94080, Note_on_c, 0, 58, 62
1, 94080, Note_on_c, 0, 32, 27
1, 94080, Note_on_c, 0, 39, 30
1, 94080, Note_on_c, 0, 44, 36
1, 94083, Control_c, 0, 64, 0
1, 94320, Control_c, 0, 64, 127
1, 94560, Note_on_c, 0, 44, 0
1, 94560, Note_on_c, 0, 39, 0
1, 94560, Note_on_c, 0, 32, 0
1, 94560, Note_on_c, 0, 35, 23
1, 94560, Note_on_c, 0, 39, 27
1, 94560, Note_on_c, 0, 47, 32
1, 95040, Note_on_c, 0, 47, 0
1, 95040, Note_on_c, 0, 58, 0
1, 95040, Note_on_c, 0, 35, 0
1, 95040, Note_on_c, 0, 39, 0
1, 95040, Note_on_c, 0, 56, 59
1, 95040, Note_on_c, 0, 32, 23
1, 95040, Note_on_c, 0, 39, 27
1, 95040, Note_on_c, 0, 44, 32
1, 95052, Control_c, 0, 64, 0
1, 95200, Control_c, 0, 64, 127
1, 95520, Note_on_c, 0, 44, 0
1, 95520, Note_on_c, 0, 56, 0
1, 95520, Note_on_c, 0, 32, 0
1, 95520, Note_on_c, 0, 39, 0
1, 95520, Note_on_c, 0, 35, 22
1, 95520, Note_on_c, 0, 39, 24
1, 95520, Note_on_c, 0, 47, 29
1, 96000, Tempo, 662983
1, 96000, Note_on_c, 0, 47, 0
1, 96000, Note_on_c, 0, 39, 0
1, 96000, Note_on_c, 0, 35, 0
1, 96000, Note_on_c, 0, 61, 68
1, 96000, Note_on_c, 0, 37, 36
1, 96000, Note_on_c, 0, 33, 32
1, 96000, Note_on_c, 0, 45, 43
1, 96000, Control_c, 0, 64, 0
1, 96229, Control_c, 0, 64, 127
1, 96480, Tempo, 655738
1, 96480, Note_on_c, 0, 45, 0
1, 96480, Note_on_c, 0, 33, 0
1, 96480, Note_on_c, 0, 37, 0
1, 96480, Note_on_c, 0, 37, 29
1, 96480, Note_on_c, 0, 40, 33
1, 96480, Note_on_c, 0, 49, 39
1, 96960, Tempo, 666667
1, 96960, Note_on_c, 0, 49, 0
1, 96960, Note_on_c, 0, 61, 0
1, 96960, Note_on_c, 0, 37, 0
1, 96960, Note_on_c, 0, 40, 0
1, 96960, Note_on_c, 0, 64, 63
1, 96960, Note_on_c, 0, 28, 32
1, 96960, Note_on_c, 0, 32, 36
1, 96960, Note_on_c, 0, 40, 43
1, 96975, Control_c, 0, 64, 0
1, 97212, Control_c, 0, 64, 127
1, 97440, Note_on_c, 0, 40, 0
1, 97440, Note_on_c, 0, 64, 0
1, 97440, Note_on_c, 0, 28, 0
1, 97440, Note_on_c, 0, 32, 0
1, 97440, Note_on_c, 0, 32, 29
1, 97440, Note_on_c, 0, 35, 33
1, 97440, Note_on_c, 0, 44, 39
1, 97920, Tempo, 666667
1, 97920, Note_on_c, 0, 44, 0
1, 97920, Note_on_c, 0, 35, 0
1, 97920, Note_on_c, 0, 32, 0
1, 97920, Note_on_c, 0, 64, 68
1, 97920, Note_on_c, 0, 37, 38
1, 97920, Note_on_c, 0, 33, 34
1, 97920, Note_on_c, 0, 45, 45
1, 97920, Control_c, 0, 64, 0
1, 98149, Control_c, 0, 64, 127
1, 98400, Note_on_c, 0, 45, 0
1, 98400, Note_on_c, 0, 33, 0
1, 98400, Note_on_c, 0, 37, 0
1, 98400, Note_on_c, 0, 37, 28
1, 98400, Note_on_c, 0, 40, 33
1, 98400, Note_on_c, 0, 49, 39
1, 98880, Tempo, 648649
1, 98880, Note_on_c, 0, 49, 0
1, 98880, Note_on_c, 0, 64, 0
1, 98880, Note_on_c, 0, 37, 0
1, 98880, Note_on_c, 0, 40, 0
1, 98880, Note_on_c, 0, 64, 66
1, 98880, Note_on_c, 0, 28, 34
1, 98880, Note_on_c, 0, 32, 39
1, 98880, Note_on_c, 0, 40, 46
1, 98893, Control_c, 0, 64, 0
1, 99155, Control_c, 0, 64, 127
1, 99360, Tempo, 666667
1, 99360, Note_on_c, 0, 40, 0
1, 99360, Note_on_c, 0, 32, 0
1, 99360, Note_on_c, 0, 28, 0
1, 99360, Note_on_c, 0, 32, 30
1, 99360, Note_on_c, 0, 35, 34
1, 99360, Note_on_c, 0, 44, 40
1, 99840, Tempo, 666667
1, 99840, Note_on_c, 0, 44, 0
1, 99840, Note_on_c, 0, 64, 0
1, 99840, Note_on_c, 0, 32, 0
1, 99840, Note_on_c, 0, 35, 0
1, 99840, Note_on_c, 0, 37, 39
1, 99840, Note_on_c, 0, 33, 34
1, 99840, Note_on_c, 0, 45, 46
1, 99840, Control_c, 0, 64, 0
1, 100000, Control_c, 0, 64, 127
1, 100320, Note_on_c, 0, 45, 0
1, 100320, Note_on_c, 0, 33, 0
1, 100320, Note_on_c, 0, 37, 0
1, 100320, Note_on_c, 0, 37, 24
1, 100320, Note_on_c, 0, 40, 28
1, 100320, Note_on_c, 0, 49, 33
1, 100800, Tempo, 648649
1, 100800, Note_on_c, 0, 49, 0
1, 100800, Note_on_c, 0, 40, 0
1, 100800, Note_on_c, 0, 37, 0
1, 100800, Note_on_c, 0, 68, 64
1, 100800, Note_on_c, 0, 28, 34
1, 100800, Note_on_c, 0, 32, 39
1, 100800, Note_on_c, 0, 40, 46
1, 100813, Control_c, 0, 64, 0
1, 101075, Control_c, 0, 64, 127
1, 101280, Tempo, 655738
1, 101280, Note_on_c, 0, 40, 0
1, 101280, Note_on_c, 0, 32, 0
1, 101280, Note_on_c, 0, 28, 0
1, 101280, Note_on_c, 0, 32, 24
1, 101280, Note_on_c, 0, 35, 28
1, 101280, Note_on_c, 0, 44, 33
1, 101760, Tempo, 666667
1, 101760, Note_on_c, 0, 44, 0
1, 101760, Note_on_c, 0, 68, 0
1, 101760, Note_on_c, 0, 32, 0
1, 101760, Note_on_c, 0, 35, 0
1, 101760, Note_on_c, 0, 63, 65
1, 101760, Note_on_c, 0, 42, 38
1, 101760, Note_on_c, 0, 35, 34
1, 101760, Note_on_c, 0, 47, 45
1, 101760, Control_c, 0, 64, 0
1, 102035, Control_c, 0, 64, 127
1, 102240, Tempo, 652174
1, 102240, Note_on_c, 0, 47, 0
1, 102240, Note_on_c, 0, 63, 0
1, 102240, Note_on_c, 0, 42, 0
1, 102240, Note_on_c, 0, 35, 0
1, 102240, Note_on_c, 0, 59, 57
1, 102240, Note_on_c, 0, 39, 23
1, 102240, Note_on_c, 0, 42, 27
1, 102240, Note_on_c, 0, 51, 32
1, 102720, Tempo, 666667
1, 102720, Note_on_c, 0, 51, 0
1, 102720, Note_on_c, 0, 59, 0
1, 102720, Note_on_c, 0, 39, 0
1, 102720, Note_on_c, 0, 42, 0
1, 102720, Note_on_c, 0, 58, 62
1, 102720, Note_on_c, 0, 39, 37
1, 102720, Note_on_c, 0, 43, 37
1, 102720, Note_on_c, 0, 51, 44
1, 102733, Control_c, 0, 64, 0
1, 103017, Control_c, 0, 64, 127
1, 103200, Tempo, 655738
1, 103200, Note_on_c, 0, 51, 0
1, 103200, Note_on_c, 0, 43, 0
1, 103200, Note_on_c, 0, 43, 29
1, 103200, Note_on_c, 0, 51, 35
1, 103680, Tempo, 670391
1, 103680, Note_on_c, 0, 51, 0
1, 103680, Note_on_c, 0, 58, 0
1, 103680, Note_on_c, 0, 39, 0
1, 103680, Note_on_c, 0, 43, 0
1, 103680, Note_on_c, 0, 56, 54
1, 103680, Note_on_c, 0, 32, 28
1, 103680, Note_on_c, 0, 39, 33
1, 103680, Note_on_c, 0, 44, 39
1, 103686, Control_c, 0, 64, 0
1, 103909, Control_c, 0, 64, 127
1, 104160, Tempo, 655738
1, 104160, Note_on_c, 0, 44, 0
1, 104160, Note_on_c, 0, 39, 0
1, 104160, Note_on_c, 0, 56, 0
1, 104160, Note_on_c, 0, 39, 23
1, 104160, Note_on_c, 0, 44, 28
1, 104640, Note_on_c, 0, 44, 0
1, 104640, Note_on_c, 0, 39, 0
1, 104640, Note_on_c, 0, 32, 0
1, 104640, Note_on_c, 0, 33, 22
1, 104640, Note_on_c, 0, 37, 25
1, 104640, Note_on_c, 0, 45, 30
1, 104656, Control_c, 0, 64, 0
1, 104983, Control_c, 0, 64, 127
1, 105120, Tempo, 662983
1, 105120, Note_on_c, 0, 45, 0
1, 105120, Note_on_c, 0, 37, 0
1, 105120, Note_on_c, 0, 37, 23
1, 105120, Note_on_c, 0, 45, 28
1, 105600, Tempo, 666667
1, 105600, Note_on_c, 0, 45, 0
1, 105600, Note_on_c, 0, 37, 0
1, 105600, Note_on_c, 0, 33, 0
1, 105600, Note_on_c, 0, 50, 30
1, 105600, Note_on_c, 0, 42, 25
1, 105600, Note_on_c, 0, 38, 22
1, 105600, Control_c, 0, 64, 0
1, 105875, Control_c, 0, 64, 127
1, 106080, Note_on_c, 0, 42, 0
1, 106080, Note_on_c, 0, 50, 0
1, 106080, Note_on_c, 0, 50, 28
1, 106080, Note_on_c, 0, 42, 23
1, 106560, Note_on_c, 0, 42, 0
1, 106560, Note_on_c, 0, 50, 0
1, 106560, Note_on_c, 0, 38, 0
1, 106560, Note_on_c, 0, 49, 30
1, 106560, Note_on_c, 0, 40, 25
1, 106560, Note_on_c, 0, 37, 22
1, 106573, Control_c, 0, 64, 0
1, 106720, Control_c, 0, 64, 127
1, 107040, Note_on_c, 0, 40, 0
1, 107040, Note_on_c, 0, 49, 0
1, 107040, Note_on_c, 0, 40, 23
1, 107040, Note_on_c, 0, 49, 28
1, 107520, Tempo, 666667
1, 107520, Note_on_c, 0, 49, 0
1, 107520, Note_on_c, 0, 40, 0
1, 107520, Note_on_c, 0, 37, 0
1, 107520, Note_on_c, 0, 32, 22
1, 107520, Note_on_c, 0, 39, 25
1, 107520, Note_on_c, 0, 44, 30
1, 107530, Control_c, 0, 64, 0
1, 107787, Control_c, 0, 64, 127
1, 108000, Tempo, 659341
1, 108000, Note_on_c, 0, 44, 0
1, 108000, Note_on_c, 0, 39, 0
1, 108000, Note_on_c, 0, 32, 0
1, 108000, Note_on_c, 0, 35, 18
1, 108000, Note_on_c, 0, 39, 22
1, 108000, Note_on_c, 0, 47, 26
1, 108480, Tempo, 662983
1, 108480, Note_on_c, 0, 47, 0
1, 108480, Note_on_c, 0, 39, 0
1, 108480, Note_on_c, 0, 35, 0
1, 108480, Note_on_c, 0, 51, 35
1, 108480, Note_on_c, 0, 32, 22
1, 108480, Note_on_c, 0, 39, 24
1, 108480, Note_on_c, 0, 44, 29
1, 108960, Tempo, 655738
1, 108960, Note_on_c, 0, 44, 0
1, 108960, Note_on_c, 0, 39, 0
1, 108960, Note_on_c, 0, 32, 0
1, 108960, Note_on_c, 0, 35, 19
1, 108960, Note_on_c, 0, 39, 22
1, 108960, Note_on_c, 0, 47, 27
1, 109440, Tempo, 666667
1, 109440, Note_on_c, 0, 47, 0
1, 109440, Note_on_c, 0, 39, 0
1, 109440, Note_on_c, 0, 35, 0
1, 109440, Note_on_c, 0, 32, 22
1, 109440, Note_on_c, 0, 39, 25
1, 109440, Note_on_c, 0, 44, 30
1, 109920, Tempo, 652174
1, 109920, Note_on_c, 0, 44, 0
1, 109920, Note_on_c, 0, 51, 0
1, 109920, Note_on_c, 0, 32, 0
1, 109920, Note_on_c, 0, 39, 0
1, 109920, Note_on_c, 0, 54, 33
1, 109920, Note_on_c, 0, 35, 20
1, 109920, Note_on_c, 0, 39, 23
1, 109920, Note_on_c, 0, 47, 28
1, 109934, Control_c, 0, 64, 0
1, 110132, Control_c, 0, 64, 127
1, 110160, Tempo, 659341
1, 110160, Note_on_c, 0, 54, 0
1, 110160, Note_on_c, 0, 52, 30
1, 110400, Tempo, 652174
1, 110400, Note_on_c, 0, 52, 0
1, 110400, Note_on_c, 0, 47, 0
1, 110400, Note_on_c, 0, 39, 0
1, 110400, Note_on_c, 0, 35, 0
1, 110400, Note_on_c, 0, 51, 34
1, 110400, Note_on_c, 0, 32, 22
1, 110400, Note_on_c, 0, 39, 24
1, 110400, Note_on_c, 0, 44, 29
1, 110412, Control_c, 0, 64, 0
1, 110598, Control_c, 0, 64, 127
1, 110880, Tempo, 662983
1, 110880, Note_on_c, 0, 44, 0
1, 110880, Note_on_c, 0, 51, 0
1, 110880, Note_on_c, 0, 32, 0
1, 110880, Note_on_c, 0, 39, 0
1, 110880, Note_on_c, 0, 52, 32
1, 110880, Note_on_c, 0, 35, 19
1, 110880, Note_on_c, 0, 39, 22
1, 110880, Note_on_c, 0, 47, 27
1, 110892, Control_c, 0, 64, 0
1, 111163, Control_c, 0, 64, 127
1, 111360, Note_on_c, 0, 47, 0
1, 111360, Note_on_c, 0, 52, 0
1, 111360, Note_on_c, 0, 35, 0
1, 111360, Note_on_c, 0, 39, 0
1, 111360, Note_on_c, 0, 39, 23
1, 111360, Note_on_c, 0, 44, 28
1, 111360, Note_on_c, 0, 32, 21
1, 111360, Control_c, 0, 64, 0
1, 111387, Tempo, 670391
1, 111612, Control_c, 0, 64, 127
1, 111840, Tempo, 681818
1, 111840, Note_on_c, 0, 44, 0
1, 111840, Note_on_c, 0, 39, 0
1, 111840, Note_on_c, 0, 39, 21
1, 111840, Note_on_c, 0, 44, 25
1, 112320, Note_on_c, 0, 44, 0
1, 112320, Note_on_c, 0, 39, 0
1, 112320, Note_on_c, 0, 32, 0
1, 112320, Note_on_c, 0, 33, 21
1, 112320, Note_on_c, 0, 37, 23
1, 112320, Note_on_c, 0, 45, 28
1, 112330, Control_c, 0, 64, 0
1, 112503, Control_c, 0, 64, 127
1, 112800, Tempo, 697674
1, 112800, Note_on_c, 0, 45, 0
1, 112800, Note_on_c, 0, 37, 0
1, 112800, Note_on_c, 0, 37, 21
1, 112800, Note_on_c, 0, 45, 25
1, 113280, Tempo, 677966
1, 113280, Note_on_c, 0, 45, 0
1, 113280, Note_on_c, 0, 37, 0
1, 113280, Note_on_c, 0, 33, 0
1, 113280, Note_on_c, 0, 40, 28
1, 113280, Note_on_c, 0, 32, 23
1, 113280, Note_on_c, 0, 28, 21
1, 113287, Control_c, 0, 64, 0
1, 113532, Control_c, 0, 64, 127
1, 113760, Tempo, 670391
1, 113760, Note_on_c, 0, 32, 0
1, 113760, Note_on_c, 0, 40, 0
1, 113760, Note_on_c, 0, 40, 25
1, 113760, Note_on_c, 0, 32, 21
1, 114240, Tempo, 685714
1, 114240, Note_on_c, 0, 32, 0
1, 114240, Note_on_c, 0, 40, 0
1, 114240, Note_on_c, 0, 28, 0
1, 114240, Note_on_c, 0, 42, 28
1, 114240, Note_on_c, 0, 33, 23
1, 114240, Note_on_c, 0, 30, 21
1, 114247, Control_c, 0, 64, 0
1, 114515, Control_c, 0, 64, 127
1, 114720, Note_on_c, 0, 33, 0
1, 114720, Note_on_c, 0, 42, 0
1, 114720, Note_on_c, 0, 42, 23
1, 114720, Note_on_c, 0, 33, 19
1, 114747, Tempo, 662983
1, 115200, Tempo, 685714
1, 115200, Note_on_c, 0, 33, 0
1, 115200, Note_on_c, 0, 42, 0
1, 115200, Note_on_c, 0, 30, 0
1, 115200, Note_on_c, 0, 51, 29
1, 115200, Note_on_c, 0, 32, 18
1, 115200, Note_on_c, 0, 39, 21
1, 115200, Note_on_c, 0, 44, 25
1, 115205, Control_c, 0, 64, 0
1, 115440, Control_c, 0, 64, 127
1, 115680, Tempo, 674157
1, 115680, Note_on_c, 0, 44, 0
1, 115680, Note_on_c, 0, 39, 0
1, 115680, Note_on_c, 0, 32, 0
1, 115680, Note_on_c, 0, 35, 12
1, 115680, Note_on_c, 0, 39, 14
1, 115680, Note_on_c, 0, 47, 17
1, 116160, Tempo, 685714
1, 116160, Note_on_c, 0, 47, 0
1, 116160, Note_on_c, 0, 39, 0
1, 116160, Note_on_c, 0, 35, 0
1, 116160, Note_on_c, 0, 32, 18
1, 116160, Note_on_c, 0, 39, 20
1, 116160, Note_on_c, 0, 44, 24
1, 116640, Tempo, 662983
1, 116640, Note_on_c, 0, 44, 0
1, 116640, Note_on_c, 0, 51, 0
1, 116640, Note_on_c, 0, 32, 0
1, 116640, Note_on_c, 0, 39, 0
1, 116640, Note_on_c, 0, 35, 14
1, 116640, Note_on_c, 0, 39, 16
1, 116640, Note_on_c, 0, 47, 19
1, 117120, Tempo, 681818
1, 117120, Note_on_c, 0, 47, 0
1, 117120, Note_on_c, 0, 39, 0
1, 117120, Note_on_c, 0, 35, 0
1, 117120, Note_on_c, 0, 35, 22
1, 117120, Note_on_c, 0, 32, 18
1, 117120, Control_c, 0, 64, 0
1, 117227, Control_c, 0, 64, 127
1, 117600, Note_on_c, 0, 32, 0
1, 117600, Note_on_c, 0, 35, 0
1, 117600, Note_on_c, 0, 39, 17
1, 117600, Note_on_c, 0, 35, 14
1, 118080, Note_on_c, 0, 35, 0
1, 118080, Note_on_c, 0, 39, 0
1, 118080, Note_on_c, 0, 35, 23
1, 118080, Note_on_c, 0, 32, 19
1, 118560, Note_on_c, 0, 32, 0
1, 118560, Note_on_c, 0, 35, 0
1, 118560, Note_on_c, 0, 39, 17
1, 118560, Note_on_c, 0, 35, 14
1, 119040, Tempo, 693642
1, 119040, Note_on_c, 0, 35, 0
1, 119040, Note_on_c, 0, 39, 0
1, 119040, Note_on_c, 0, 32, 24
1, 119046, Control_c, 0, 64, 0
1, 119360, Control_c, 0, 64, 127
1, 120000, Tempo, 718563
1, 120000, Note_on_c, 0, 32, 0
1, 120000, Note_on_c, 0, 35, 19
1, 120020, Control_c, 0, 64, 0
1, 120454, Control_c, 0, 64, 127
1, 120960, Tempo, 736196
1, 120960, Note_on_c, 0, 35, 0
1, 120960, Note_on_c, 0, 32, 21
1, 120980, Control_c, 0, 64, 0
1, 121440, Control_c, 0, 64, 127
1, 121920, Note_on_c, 0, 32, 0
1, 121920, Note_on_c, 0, 35, 17
1, 121940, Control_c, 0, 64, 0
1, 122347, Control_c, 0, 64, 127
1, 122880, Note_on_c, 0, 35, 0
1, 124107, Control_c, 0, 64, 0
1, 124800, Tempo, 857143
1, 124800, End_track
0, 0, End_of_file
