0, 0, Header, 0, 1, 480
1, 0, Start_track
1, 0, Title_t, "Klaviersonate Nr. 8 KV 311 2. Satz"
1, 0, Copyright_t, "Copyright © 2006 von Bernd Krüger. "
1, 0, Text_t, "Wolfgang Amadeus Mozart"
1, 0, Text_t, "Herausgegeben am  1.8.2006\012"
1, 0, Text_t, "Update am 6.6.2013\012"
1, 0, Text_t, "Dauer:  4:39 Minuten\012"
1, 0, Time_signature, 2, 2, 24, 8
1, 0, Key_signature, 1, "major"
1, 0, Tempo, 1351656
1, 0, Program_c, 0, 0
1, 0, Control_c, 0, 7, 100
1, 0, Control_c, 0, 10, 64
1, 0, Text_t, "bdca426d104a26ac9dcb070447587523"
1, 0, Control_c, 0, 91, 127
1, 0, Note_on_c, 0, 71, 50
1, 0, Program_c, 0, 0
1, 0, Control_c, 0, 7, 100
1, 0, Control_c, 0, 10, 64
1, 0, Program_c, 0, 0
1, 0, Note_on_c, 0, 55, 39
1, 0, Note_on_c, 0, 62, 39
1, 180, Tempo, 1219760
1, 180, Note_on_c, 0, 71, 0
1, 180, Note_on_c, 0, 74, 42
1, 240, Tempo, 1316078
1, 240, Note_on_c, 0, 74, 0
1, 240, Note_on_c, 0, 72, 50
1, 420, Note_on_c, 0, 72, 0
1, 420, Note_on_c, 0, 71, 47
1, 480, Note_on_c, 0, 71, 0
1, 480, Note_on_c, 0, 55, 0
1, 480, Note_on_c, 0, 69, 50
1, 480, Note_on_c, 0, 54, 32
1, 720, Note_on_c, 0, 54, 0
1, 720, Note_on_c, 0, 69, 0
1, 720, Note_on_c, 0, 71, 46
1, 720, Note_on_c, 0, 55, 32
1, 840, Tempo, 1415428
1, 960, Tempo, 1316078
1, 960, Note_on_c, 0, 55, 0
1, 960, Note_on_c, 0, 71, 0
1, 960, Note_on_c, 0, 62, 0
1, 960, Note_on_c, 0, 72, 50
1, 960, Note_on_c, 0, 57, 38
1, 960, Note_on_c, 0, 62, 38
1, 1200, Note_on_c, 0, 57, 0
1, 1200, Note_on_c, 0, 72, 0
1, 1200, Note_on_c, 0, 74, 46
1, 1200, Note_on_c, 0, 54, 33
1, 1440, Tempo, 1293382
1, 1440, Note_on_c, 0, 54, 0
1, 1440, Note_on_c, 0, 74, 0
1, 1440, Note_on_c, 0, 72, 47
1, 1440, Note_on_c, 0, 55, 39
1, 1560, Tempo, 1339585
1, 1560, Note_on_c, 0, 72, 0
1, 1560, Note_on_c, 0, 71, 49
1, 1680, Tempo, 1282325
1, 1680, Note_on_c, 0, 71, 0
1, 1680, Note_on_c, 0, 69, 51
1, 1800, Tempo, 1500375
1, 1800, Note_on_c, 0, 69, 0
1, 1800, Note_on_c, 0, 67, 53
1, 1920, Tempo, 1415428
1, 1920, Note_on_c, 0, 67, 0
1, 1920, Note_on_c, 0, 55, 0
1, 1920, Note_on_c, 0, 62, 0
1, 1920, Note_on_c, 0, 67, 65
1, 1920, Note_on_c, 0, 72, 65
1, 1920, Note_on_c, 0, 52, 49
1, 1920, Note_on_c, 0, 64, 49
1, 2040, Note_on_c, 0, 64, 0
1, 2040, Note_on_c, 0, 67, 0
1, 2040, Note_on_c, 0, 72, 0
1, 2040, Note_on_c, 0, 52, 0
1, 2160, Note_on_c, 0, 71, 61
1, 2160, Note_on_c, 0, 67, 61
1, 2160, Note_on_c, 0, 50, 44
1, 2160, Note_on_c, 0, 62, 44
1, 2280, Note_on_c, 0, 62, 0
1, 2280, Note_on_c, 0, 71, 0
1, 2280, Note_on_c, 0, 67, 0
1, 2280, Note_on_c, 0, 50, 0
1, 2400, Note_on_c, 0, 76, 67
1, 2400, Note_on_c, 0, 67, 67
1, 2400, Note_on_c, 0, 60, 51
1, 2400, Note_on_c, 0, 48, 51
1, 2520, Note_on_c, 0, 48, 0
1, 2520, Note_on_c, 0, 76, 0
1, 2520, Note_on_c, 0, 67, 0
1, 2520, Note_on_c, 0, 60, 0
1, 2760, Tempo, 1304631
1, 2760, Note_on_c, 0, 74, 47
1, 2760, Note_on_c, 0, 67, 47
1, 2760, Note_on_c, 0, 59, 37
1, 2880, Tempo, 1282325
1, 2880, Note_on_c, 0, 59, 0
1, 2880, Note_on_c, 0, 67, 0
1, 2880, Note_on_c, 0, 74, 0
1, 2880, Note_on_c, 0, 72, 50
1, 2880, Note_on_c, 0, 54, 40
1, 2914, Control_c, 0, 64, 127
1, 3000, Tempo, 1351656
1, 3000, Note_on_c, 0, 72, 0
1, 3000, Note_on_c, 0, 69, 42
1, 3120, Tempo, 1304631
1, 3120, Note_on_c, 0, 69, 0
1, 3120, Note_on_c, 0, 54, 0
1, 3120, Note_on_c, 0, 71, 50
1, 3120, Note_on_c, 0, 55, 35
1, 3130, Control_c, 0, 64, 0
1, 3180, Control_c, 0, 64, 127
1, 3240, Tempo, 1500375
1, 3240, Note_on_c, 0, 71, 0
1, 3240, Note_on_c, 0, 67, 42
1, 3360, Tempo, 1415428
1, 3360, Note_on_c, 0, 67, 0
1, 3360, Note_on_c, 0, 55, 0
1, 3360, Note_on_c, 0, 67, 50
1, 3360, Note_on_c, 0, 71, 50
1, 3360, Note_on_c, 0, 50, 39
1, 3371, Control_c, 0, 64, 0
1, 3600, Note_on_c, 0, 71, 0
1, 3600, Note_on_c, 0, 67, 0
1, 3600, Note_on_c, 0, 66, 44
1, 3600, Note_on_c, 0, 69, 44
1, 3840, Tempo, 1327727
1, 3840, Note_on_c, 0, 69, 0
1, 3840, Note_on_c, 0, 66, 0
1, 3840, Note_on_c, 0, 50, 0
1, 3840, Control_c, 0, 91, 127
1, 3840, Note_on_c, 0, 71, 50
1, 3840, Text_t, "bdca426d104a26ac9dcb070447587523"
1, 3840, Note_on_c, 0, 55, 39
1, 3840, Note_on_c, 0, 62, 39
1, 4020, Tempo, 1229760
1, 4020, Note_on_c, 0, 71, 0
1, 4020, Note_on_c, 0, 74, 42
1, 4080, Tempo, 1304631
1, 4080, Note_on_c, 0, 74, 0
1, 4080, Note_on_c, 0, 72, 48
1, 4260, Note_on_c, 0, 72, 0
1, 4260, Note_on_c, 0, 71, 47
1, 4320, Note_on_c, 0, 71, 0
1, 4320, Note_on_c, 0, 55, 0
1, 4320, Note_on_c, 0, 69, 50
1, 4320, Note_on_c, 0, 54, 32
1, 4560, Note_on_c, 0, 54, 0
1, 4560, Note_on_c, 0, 69, 0
1, 4560, Note_on_c, 0, 71, 46
1, 4560, Note_on_c, 0, 55, 32
1, 4680, Tempo, 1415428
1, 4800, Tempo, 1316078
1, 4800, Note_on_c, 0, 55, 0
1, 4800, Note_on_c, 0, 71, 0
1, 4800, Note_on_c, 0, 62, 0
1, 4800, Note_on_c, 0, 72, 50
1, 4800, Note_on_c, 0, 62, 38
1, 4800, Note_on_c, 0, 57, 38
1, 5040, Note_on_c, 0, 57, 0
1, 5040, Note_on_c, 0, 72, 0
1, 5040, Note_on_c, 0, 76, 46
1, 5040, Note_on_c, 0, 54, 33
1, 5160, Note_on_c, 0, 76, 0
1, 5160, Note_on_c, 0, 74, 49
1, 5280, Tempo, 1293382
1, 5280, Note_on_c, 0, 74, 0
1, 5280, Note_on_c, 0, 54, 0
1, 5280, Note_on_c, 0, 72, 47
1, 5280, Note_on_c, 0, 55, 39
1, 5400, Tempo, 1351656
1, 5400, Note_on_c, 0, 72, 0
1, 5400, Note_on_c, 0, 71, 49
1, 5520, Tempo, 1316078
1, 5520, Note_on_c, 0, 71, 0
1, 5520, Note_on_c, 0, 69, 51
1, 5640, Tempo, 1500375
1, 5640, Note_on_c, 0, 69, 0
1, 5640, Note_on_c, 0, 67, 53
1, 5760, Tempo, 1415428
1, 5760, Note_on_c, 0, 67, 0
1, 5760, Note_on_c, 0, 55, 0
1, 5760, Note_on_c, 0, 62, 0
1, 5760, Note_on_c, 0, 67, 65
1, 5760, Note_on_c, 0, 72, 65
1, 5760, Note_on_c, 0, 52, 49
1, 5760, Note_on_c, 0, 64, 49
1, 5880, Note_on_c, 0, 64, 0
1, 5880, Note_on_c, 0, 67, 0
1, 5880, Note_on_c, 0, 72, 0
1, 5880, Note_on_c, 0, 52, 0
1, 6000, Note_on_c, 0, 71, 61
1, 6000, Note_on_c, 0, 67, 61
1, 6000, Note_on_c, 0, 62, 44
1, 6000, Note_on_c, 0, 50, 44
1, 6120, Note_on_c, 0, 50, 0
1, 6120, Note_on_c, 0, 71, 0
1, 6120, Note_on_c, 0, 67, 0
1, 6120, Note_on_c, 0, 62, 0
1, 6240, Tempo, 1376462
1, 6240, Note_on_c, 0, 76, 67
1, 6240, Note_on_c, 0, 67, 67
1, 6240, Note_on_c, 0, 48, 51
1, 6240, Note_on_c, 0, 60, 51
1, 6360, Note_on_c, 0, 76, 0
1, 6360, Note_on_c, 0, 78, 62
1, 6480, Note_on_c, 0, 78, 0
1, 6480, Note_on_c, 0, 60, 0
1, 6480, Note_on_c, 0, 48, 0
1, 6480, Note_on_c, 0, 79, 65
1, 6600, Tempo, 1579363
1, 6600, Note_on_c, 0, 79, 0
1, 6600, Note_on_c, 0, 67, 0
1, 6600, Note_on_c, 0, 72, 47
1, 6600, Note_on_c, 0, 60, 37
1, 6600, Note_on_c, 0, 64, 37
1, 6690, Note_on_c, 0, 64, 0
1, 6690, Note_on_c, 0, 60, 0
1, 6690, Note_on_c, 0, 72, 0
1, 6720, Tempo, 1428912
1, 6720, Note_on_c, 0, 71, 50
1, 6720, Note_on_c, 0, 67, 40
1, 6720, Note_on_c, 0, 62, 40
1, 6960, Note_on_c, 0, 67, 0
1, 6960, Note_on_c, 0, 71, 0
1, 6960, Note_on_c, 0, 69, 47
1, 6960, Note_on_c, 0, 66, 35
1, 6980, Control_c, 0, 64, 127
1, 6987, Note_on_c, 0, 69, 0
1, 6987, Note_on_c, 0, 71, 47
1, 7013, Note_on_c, 0, 71, 0
1, 7013, Note_on_c, 0, 69, 47
1, 7039, Note_on_c, 0, 71, 47
1, 7040, Note_on_c, 0, 69, 0
1, 7066, Note_on_c, 0, 71, 0
1, 7066, Note_on_c, 0, 69, 45
1, 7080, Tempo, 1562907
1, 7092, Note_on_c, 0, 69, 0
1, 7092, Note_on_c, 0, 71, 45
1, 7119, Note_on_c, 0, 71, 0
1, 7119, Note_on_c, 0, 69, 45
1, 7142, Tempo, 1974334
1, 7145, Note_on_c, 0, 69, 0
1, 7145, Note_on_c, 0, 67, 45
1, 7171, Note_on_c, 0, 69, 50
1, 7172, Note_on_c, 0, 67, 0
1, 7200, Tempo, 1389210
1, 7200, Note_on_c, 0, 62, 0
1, 7200, Note_on_c, 0, 66, 0
1, 7200, Note_on_c, 0, 69, 0
1, 7200, Note_on_c, 0, 67, 45
1, 7200, Note_on_c, 0, 55, 39
1, 7207, Control_c, 0, 64, 0
1, 7235, Control_c, 0, 64, 127
1, 7320, Tempo, 1363946
1, 7320, Note_on_c, 0, 59, 28
1, 7440, Tempo, 1316078
1, 7440, Note_on_c, 0, 59, 0
1, 7440, Note_on_c, 0, 62, 32
1, 7560, Tempo, 1389210
1, 7560, Note_on_c, 0, 62, 0
1, 7560, Note_on_c, 0, 59, 27
1, 7680, Tempo, 1351656
1, 7680, Note_on_c, 0, 59, 0
1, 7680, Note_on_c, 0, 55, 0
1, 7680, Note_on_c, 0, 67, 0
1, 7680, Note_on_c, 0, 71, 45
1, 7680, Note_on_c, 0, 48, 39
1, 7680, Control_c, 0, 64, 0
1, 7740, Tempo, 1316078
1, 7793, Control_c, 0, 64, 127
1, 7800, Note_on_c, 0, 52, 27
1, 7920, Note_on_c, 0, 52, 0
1, 7920, Note_on_c, 0, 71, 0
1, 7920, Note_on_c, 0, 69, 45
1, 7920, Note_on_c, 0, 57, 32
1, 8040, Tempo, 1351656
1, 8040, Note_on_c, 0, 57, 0
1, 8040, Note_on_c, 0, 52, 28
1, 8160, Tempo, 1304631
1, 8160, Note_on_c, 0, 52, 0
1, 8160, Note_on_c, 0, 69, 0
1, 8160, Note_on_c, 0, 48, 0
1, 8160, Note_on_c, 0, 67, 45
1, 8160, Note_on_c, 0, 50, 39
1, 8172, Control_c, 0, 64, 0
1, 8245, Control_c, 0, 64, 127
1, 8280, Note_on_c, 0, 67, 0
1, 8280, Note_on_c, 0, 66, 41
1, 8280, Note_on_c, 0, 60, 29
1, 8397, Note_on_c, 0, 66, 0
1, 8400, Note_on_c, 0, 60, 0
1, 8400, Note_on_c, 0, 66, 45
1, 8400, Note_on_c, 0, 57, 32
1, 8520, Tempo, 1402197
1, 8520, Note_on_c, 0, 57, 0
1, 8520, Note_on_c, 0, 66, 0
1, 8520, Note_on_c, 0, 62, 41
1, 8520, Note_on_c, 0, 60, 29
1, 8640, Tempo, 1304631
1, 8640, Note_on_c, 0, 60, 0
1, 8640, Note_on_c, 0, 62, 0
1, 8640, Note_on_c, 0, 50, 0
1, 8640, Note_on_c, 0, 71, 51
1, 8640, Note_on_c, 0, 55, 39
1, 8640, Control_c, 0, 64, 0
1, 8688, Control_c, 0, 64, 127
1, 8760, Note_on_c, 0, 59, 29
1, 8880, Note_on_c, 0, 59, 0
1, 8880, Note_on_c, 0, 62, 32
1, 9000, Tempo, 1363946
1, 9000, Note_on_c, 0, 62, 0
1, 9000, Note_on_c, 0, 59, 29
1, 9120, Tempo, 1304631
1, 9120, Note_on_c, 0, 59, 0
1, 9120, Note_on_c, 0, 55, 0
1, 9120, Note_on_c, 0, 71, 0
1, 9120, Note_on_c, 0, 67, 45
1, 9120, Note_on_c, 0, 52, 39
1, 9135, Control_c, 0, 64, 0
1, 9183, Control_c, 0, 64, 127
1, 9240, Note_on_c, 0, 55, 29
1, 9360, Note_on_c, 0, 55, 0
1, 9360, Note_on_c, 0, 67, 0
1, 9360, Note_on_c, 0, 67, 44
1, 9360, Note_on_c, 0, 59, 32
1, 9387, Note_on_c, 0, 67, 0
1, 9387, Note_on_c, 0, 69, 40
1, 9413, Note_on_c, 0, 69, 0
1, 9413, Note_on_c, 0, 67, 44
1, 9439, Note_on_c, 0, 69, 39
1, 9440, Note_on_c, 0, 67, 0
1, 9466, Note_on_c, 0, 69, 0
1, 9466, Note_on_c, 0, 67, 45
1, 9480, Note_on_c, 0, 59, 0
1, 9480, Note_on_c, 0, 55, 30
1, 9492, Note_on_c, 0, 67, 0
1, 9492, Note_on_c, 0, 69, 41
1, 9519, Note_on_c, 0, 69, 0
1, 9519, Note_on_c, 0, 67, 45
1, 9540, Tempo, 1685867
1, 9545, Note_on_c, 0, 67, 0
1, 9545, Note_on_c, 0, 66, 48
1, 9571, Note_on_c, 0, 67, 42
1, 9572, Note_on_c, 0, 66, 0
1, 9600, Tempo, 1316078
1, 9600, Note_on_c, 0, 52, 0
1, 9600, Note_on_c, 0, 55, 0
1, 9600, Note_on_c, 0, 67, 0
1, 9600, Note_on_c, 0, 71, 45
1, 9600, Note_on_c, 0, 48, 39
1, 9605, Control_c, 0, 64, 0
1, 9648, Control_c, 0, 64, 127
1, 9720, Note_on_c, 0, 71, 0
1, 9720, Note_on_c, 0, 69, 45
1, 9720, Note_on_c, 0, 52, 29
1, 9838, Note_on_c, 0, 69, 0
1, 9840, Note_on_c, 0, 52, 0
1, 9840, Note_on_c, 0, 69, 45
1, 9840, Note_on_c, 0, 57, 32
1, 9960, Tempo, 1351656
1, 9960, Note_on_c, 0, 57, 0
1, 9960, Note_on_c, 0, 52, 29
1, 10080, Tempo, 1304631
1, 10080, Note_on_c, 0, 52, 0
1, 10080, Note_on_c, 0, 69, 0
1, 10080, Note_on_c, 0, 48, 0
1, 10080, Note_on_c, 0, 67, 45
1, 10080, Note_on_c, 0, 50, 39
1, 10090, Control_c, 0, 64, 0
1, 10137, Control_c, 0, 64, 127
1, 10200, Note_on_c, 0, 67, 0
1, 10200, Note_on_c, 0, 66, 41
1, 10200, Note_on_c, 0, 60, 30
1, 10316, Note_on_c, 0, 66, 0
1, 10320, Note_on_c, 0, 60, 0
1, 10320, Note_on_c, 0, 66, 45
1, 10320, Note_on_c, 0, 57, 32
1, 10440, Tempo, 1562907
1, 10440, Note_on_c, 0, 57, 0
1, 10440, Note_on_c, 0, 66, 0
1, 10440, Note_on_c, 0, 62, 41
1, 10440, Note_on_c, 0, 60, 29
1, 10560, Tempo, 1351656
1, 10560, Note_on_c, 0, 60, 0
1, 10560, Note_on_c, 0, 62, 0
1, 10560, Note_on_c, 0, 50, 0
1, 10560, Note_on_c, 0, 71, 47
1, 10560, Text_t, "bdca426d104a26ac9dcb070447587523"
1, 10560, Control_c, 0, 91, 127
1, 10560, Note_on_c, 0, 55, 39
1, 10560, Note_on_c, 0, 62, 39
1, 10560, Control_c, 0, 64, 0
1, 10740, Tempo, 1219760
1, 10740, Note_on_c, 0, 71, 0
1, 10740, Note_on_c, 0, 74, 42
1, 10800, Tempo, 1316078
1, 10800, Note_on_c, 0, 74, 0
1, 10800, Note_on_c, 0, 72, 50
1, 10980, Note_on_c, 0, 72, 0
1, 10980, Note_on_c, 0, 71, 47
1, 11040, Note_on_c, 0, 71, 0
1, 11040, Note_on_c, 0, 55, 0
1, 11040, Note_on_c, 0, 69, 50
1, 11040, Note_on_c, 0, 54, 32
1, 11280, Note_on_c, 0, 54, 0
1, 11280, Note_on_c, 0, 69, 0
1, 11280, Note_on_c, 0, 71, 46
1, 11280, Note_on_c, 0, 55, 32
1, 11400, Tempo, 1415428
1, 11520, Tempo, 1316078
1, 11520, Note_on_c, 0, 55, 0
1, 11520, Note_on_c, 0, 71, 0
1, 11520, Note_on_c, 0, 62, 0
1, 11520, Note_on_c, 0, 72, 50
1, 11520, Note_on_c, 0, 62, 38
1, 11520, Note_on_c, 0, 57, 38
1, 11760, Note_on_c, 0, 57, 0
1, 11760, Note_on_c, 0, 72, 0
1, 11760, Note_on_c, 0, 74, 46
1, 11760, Note_on_c, 0, 54, 33
1, 12000, Tempo, 1282325
1, 12000, Note_on_c, 0, 54, 0
1, 12000, Note_on_c, 0, 74, 0
1, 12000, Note_on_c, 0, 72, 47
1, 12000, Note_on_c, 0, 55, 39
1, 12120, Tempo, 1351656
1, 12120, Note_on_c, 0, 72, 0
1, 12120, Note_on_c, 0, 71, 49
1, 12240, Tempo, 1304631
1, 12240, Note_on_c, 0, 71, 0
1, 12240, Note_on_c, 0, 69, 51
1, 12360, Tempo, 1500375
1, 12360, Note_on_c, 0, 69, 0
1, 12360, Note_on_c, 0, 67, 53
1, 12480, Tempo, 1415428
1, 12480, Note_on_c, 0, 67, 0
1, 12480, Note_on_c, 0, 55, 0
1, 12480, Note_on_c, 0, 62, 0
1, 12480, Note_on_c, 0, 67, 65
1, 12480, Note_on_c, 0, 72, 65
1, 12480, Note_on_c, 0, 64, 49
1, 12480, Note_on_c, 0, 52, 49
1, 12600, Note_on_c, 0, 52, 0
1, 12600, Note_on_c, 0, 67, 0
1, 12600, Note_on_c, 0, 72, 0
1, 12600, Note_on_c, 0, 64, 0
1, 12720, Note_on_c, 0, 71, 61
1, 12720, Note_on_c, 0, 67, 61
1, 12720, Note_on_c, 0, 50, 44
1, 12720, Note_on_c, 0, 62, 44
1, 12840, Note_on_c, 0, 62, 0
1, 12840, Note_on_c, 0, 71, 0
1, 12840, Note_on_c, 0, 67, 0
1, 12840, Note_on_c, 0, 50, 0
1, 12960, Note_on_c, 0, 76, 67
1, 12960, Note_on_c, 0, 67, 67
1, 12960, Note_on_c, 0, 60, 51
1, 12960, Note_on_c, 0, 48, 51
1, 13080, Note_on_c, 0, 48, 0
1, 13080, Note_on_c, 0, 76, 0
1, 13080, Note_on_c, 0, 67, 0
1, 13080, Note_on_c, 0, 60, 0
1, 13320, Tempo, 1304631
1, 13320, Note_on_c, 0, 67, 47
1, 13320, Note_on_c, 0, 74, 47
1, 13320, Note_on_c, 0, 59, 37
1, 13440, Tempo, 1282325
1, 13440, Note_on_c, 0, 59, 0
1, 13440, Note_on_c, 0, 74, 0
1, 13440, Note_on_c, 0, 67, 0
1, 13440, Note_on_c, 0, 72, 50
1, 13440, Note_on_c, 0, 54, 40
1, 13474, Control_c, 0, 64, 127
1, 13560, Tempo, 1351656
1, 13560, Note_on_c, 0, 72, 0
1, 13560, Note_on_c, 0, 69, 42
1, 13680, Tempo, 1304631
1, 13680, Note_on_c, 0, 69, 0
1, 13680, Note_on_c, 0, 54, 0
1, 13680, Note_on_c, 0, 71, 50
1, 13680, Note_on_c, 0, 55, 35
1, 13690, Control_c, 0, 64, 0
1, 13740, Control_c, 0, 64, 127
1, 13800, Tempo, 1500375
1, 13800, Note_on_c, 0, 71, 0
1, 13800, Note_on_c, 0, 67, 42
1, 13920, Tempo, 1415428
1, 13920, Note_on_c, 0, 67, 0
1, 13920, Note_on_c, 0, 55, 0
1, 13920, Note_on_c, 0, 71, 50
1, 13920, Note_on_c, 0, 67, 50
1, 13920, Note_on_c, 0, 50, 39
1, 13931, Control_c, 0, 64, 0
1, 14160, Note_on_c, 0, 67, 0
1, 14160, Note_on_c, 0, 71, 0
1, 14160, Note_on_c, 0, 66, 44
1, 14160, Note_on_c, 0, 69, 44
1, 14400, Tempo, 1327727
1, 14400, Note_on_c, 0, 69, 0
1, 14400, Note_on_c, 0, 66, 0
1, 14400, Note_on_c, 0, 50, 0
1, 14400, Control_c, 0, 91, 127
1, 14400, Note_on_c, 0, 71, 50
1, 14400, Text_t, "bdca426d104a26ac9dcb070447587523"
1, 14400, Note_on_c, 0, 62, 39
1, 14400, Note_on_c, 0, 55, 39
1, 14580, Tempo, 1229760
1, 14580, Note_on_c, 0, 71, 0
1, 14580, Note_on_c, 0, 74, 42
1, 14640, Tempo, 1304631
1, 14640, Note_on_c, 0, 74, 0
1, 14640, Note_on_c, 0, 72, 48
1, 14820, Note_on_c, 0, 72, 0
1, 14820, Note_on_c, 0, 71, 47
1, 14880, Note_on_c, 0, 71, 0
1, 14880, Note_on_c, 0, 55, 0
1, 14880, Note_on_c, 0, 69, 50
1, 14880, Note_on_c, 0, 54, 32
1, 15120, Note_on_c, 0, 54, 0
1, 15120, Note_on_c, 0, 69, 0
1, 15120, Note_on_c, 0, 71, 46
1, 15120, Note_on_c, 0, 55, 32
1, 15240, Tempo, 1415428
1, 15360, Tempo, 1316078
1, 15360, Note_on_c, 0, 55, 0
1, 15360, Note_on_c, 0, 71, 0
1, 15360, Note_on_c, 0, 62, 0
1, 15360, Note_on_c, 0, 72, 50
1, 15360, Note_on_c, 0, 57, 38
1, 15360, Note_on_c, 0, 62, 38
1, 15600, Note_on_c, 0, 57, 0
1, 15600, Note_on_c, 0, 72, 0
1, 15600, Note_on_c, 0, 76, 46
1, 15600, Note_on_c, 0, 54, 33
1, 15720, Note_on_c, 0, 76, 0
1, 15720, Note_on_c, 0, 74, 49
1, 15840, Tempo, 1293382
1, 15840, Note_on_c, 0, 74, 0
1, 15840, Note_on_c, 0, 54, 0
1, 15840, Note_on_c, 0, 72, 47
1, 15840, Note_on_c, 0, 55, 39
1, 15960, Tempo, 1351656
1, 15960, Note_on_c, 0, 72, 0
1, 15960, Note_on_c, 0, 71, 49
1, 16080, Tempo, 1316078
1, 16080, Note_on_c, 0, 71, 0
1, 16080, Note_on_c, 0, 69, 51
1, 16200, Tempo, 1500375
1, 16200, Note_on_c, 0, 69, 0
1, 16200, Note_on_c, 0, 67, 53
1, 16320, Tempo, 1415428
1, 16320, Note_on_c, 0, 67, 0
1, 16320, Note_on_c, 0, 55, 0
1, 16320, Note_on_c, 0, 62, 0
1, 16320, Note_on_c, 0, 67, 65
1, 16320, Note_on_c, 0, 72, 65
1, 16320, Note_on_c, 0, 64, 49
1, 16320, Note_on_c, 0, 52, 49
1, 16440, Note_on_c, 0, 52, 0
1, 16440, Note_on_c, 0, 67, 0
1, 16440, Note_on_c, 0, 72, 0
1, 16440, Note_on_c, 0, 64, 0
1, 16560, Note_on_c, 0, 67, 61
1, 16560, Note_on_c, 0, 71, 61
1, 16560, Note_on_c, 0, 62, 44
1, 16560, Note_on_c, 0, 50, 44
1, 16680, Note_on_c, 0, 50, 0
1, 16680, Note_on_c, 0, 67, 0
1, 16680, Note_on_c, 0, 71, 0
1, 16680, Note_on_c, 0, 62, 0
1, 16800, Tempo, 1376462
1, 16800, Note_on_c, 0, 76, 67
1, 16800, Note_on_c, 0, 67, 67
1, 16800, Note_on_c, 0, 48, 51
1, 16800, Note_on_c, 0, 60, 51
1, 16920, Note_on_c, 0, 76, 0
1, 16920, Note_on_c, 0, 78, 62
1, 17040, Note_on_c, 0, 78, 0
1, 17040, Note_on_c, 0, 60, 0
1, 17040, Note_on_c, 0, 48, 0
1, 17040, Note_on_c, 0, 79, 65
1, 17160, Tempo, 1579363
1, 17160, Note_on_c, 0, 79, 0
1, 17160, Note_on_c, 0, 67, 0
1, 17160, Note_on_c, 0, 72, 47
1, 17160, Note_on_c, 0, 64, 37
1, 17160, Note_on_c, 0, 60, 37
1, 17250, Note_on_c, 0, 60, 0
1, 17250, Note_on_c, 0, 64, 0
1, 17250, Note_on_c, 0, 72, 0
1, 17280, Tempo, 1428912
1, 17280, Note_on_c, 0, 71, 50
1, 17280, Note_on_c, 0, 62, 40
1, 17280, Note_on_c, 0, 67, 40
1, 17520, Note_on_c, 0, 67, 0
1, 17520, Note_on_c, 0, 71, 0
1, 17520, Note_on_c, 0, 69, 47
1, 17520, Note_on_c, 0, 66, 35
1, 17540, Control_c, 0, 64, 127
1, 17547, Note_on_c, 0, 69, 0
1, 17547, Note_on_c, 0, 71, 47
1, 17573, Note_on_c, 0, 71, 0
1, 17573, Note_on_c, 0, 69, 47
1, 17599, Note_on_c, 0, 71, 47
1, 17600, Note_on_c, 0, 69, 0
1, 17626, Note_on_c, 0, 71, 0
1, 17626, Note_on_c, 0, 69, 45
1, 17640, Tempo, 1562907
1, 17652, Note_on_c, 0, 69, 0
1, 17652, Note_on_c, 0, 71, 45
1, 17679, Note_on_c, 0, 71, 0
1, 17679, Note_on_c, 0, 69, 45
1, 17702, Tempo, 1974334
1, 17705, Note_on_c, 0, 69, 0
1, 17705, Note_on_c, 0, 67, 45
1, 17731, Note_on_c, 0, 69, 52
1, 17732, Note_on_c, 0, 67, 0
1, 17760, Tempo, 1389210
1, 17760, Note_on_c, 0, 62, 0
1, 17760, Note_on_c, 0, 66, 0
1, 17760, Note_on_c, 0, 69, 0
1, 17760, Note_on_c, 0, 67, 45
1, 17760, Note_on_c, 0, 55, 39
1, 17767, Control_c, 0, 64, 0
1, 17795, Control_c, 0, 64, 127
1, 17880, Tempo, 1363946
1, 17880, Note_on_c, 0, 59, 28
1, 18000, Tempo, 1316078
1, 18000, Note_on_c, 0, 59, 0
1, 18000, Note_on_c, 0, 62, 32
1, 18120, Tempo, 1389210
1, 18120, Note_on_c, 0, 62, 0
1, 18120, Note_on_c, 0, 59, 27
1, 18240, Tempo, 1351656
1, 18240, Note_on_c, 0, 59, 0
1, 18240, Note_on_c, 0, 55, 0
1, 18240, Note_on_c, 0, 67, 0
1, 18240, Note_on_c, 0, 71, 45
1, 18240, Note_on_c, 0, 48, 39
1, 18240, Control_c, 0, 64, 0
1, 18300, Tempo, 1316078
1, 18353, Control_c, 0, 64, 127
1, 18360, Note_on_c, 0, 52, 27
1, 18480, Note_on_c, 0, 52, 0
1, 18480, Note_on_c, 0, 71, 0
1, 18480, Note_on_c, 0, 69, 45
1, 18480, Note_on_c, 0, 57, 32
1, 18600, Tempo, 1351656
1, 18600, Note_on_c, 0, 57, 0
1, 18600, Note_on_c, 0, 52, 28
1, 18720, Tempo, 1304631
1, 18720, Note_on_c, 0, 52, 0
1, 18720, Note_on_c, 0, 69, 0
1, 18720, Note_on_c, 0, 48, 0
1, 18720, Note_on_c, 0, 67, 45
1, 18720, Note_on_c, 0, 50, 39
1, 18732, Control_c, 0, 64, 0
1, 18805, Control_c, 0, 64, 127
1, 18840, Note_on_c, 0, 67, 0
1, 18840, Note_on_c, 0, 66, 41
1, 18840, Note_on_c, 0, 60, 29
1, 18956, Note_on_c, 0, 66, 0
1, 18960, Note_on_c, 0, 60, 0
1, 18960, Note_on_c, 0, 66, 45
1, 18960, Note_on_c, 0, 57, 32
1, 19080, Tempo, 1402197
1, 19080, Note_on_c, 0, 57, 0
1, 19080, Note_on_c, 0, 66, 0
1, 19080, Note_on_c, 0, 62, 41
1, 19080, Note_on_c, 0, 60, 29
1, 19200, Tempo, 1304631
1, 19200, Note_on_c, 0, 60, 0
1, 19200, Note_on_c, 0, 62, 0
1, 19200, Note_on_c, 0, 50, 0
1, 19200, Note_on_c, 0, 71, 51
1, 19200, Note_on_c, 0, 55, 39
1, 19200, Control_c, 0, 64, 0
1, 19248, Control_c, 0, 64, 127
1, 19320, Note_on_c, 0, 59, 29
1, 19440, Note_on_c, 0, 59, 0
1, 19440, Note_on_c, 0, 62, 32
1, 19560, Tempo, 1363946
1, 19560, Note_on_c, 0, 62, 0
1, 19560, Note_on_c, 0, 59, 29
1, 19680, Tempo, 1304631
1, 19680, Note_on_c, 0, 59, 0
1, 19680, Note_on_c, 0, 55, 0
1, 19680, Note_on_c, 0, 71, 0
1, 19680, Note_on_c, 0, 67, 45
1, 19680, Note_on_c, 0, 52, 39
1, 19695, Control_c, 0, 64, 0
1, 19743, Control_c, 0, 64, 127
1, 19800, Note_on_c, 0, 55, 29
1, 19920, Note_on_c, 0, 55, 0
1, 19920, Note_on_c, 0, 67, 0
1, 19920, Note_on_c, 0, 67, 44
1, 19920, Note_on_c, 0, 59, 32
1, 19947, Note_on_c, 0, 67, 0
1, 19947, Note_on_c, 0, 69, 40
1, 19973, Note_on_c, 0, 69, 0
1, 19973, Note_on_c, 0, 67, 44
1, 19999, Note_on_c, 0, 69, 39
1, 20000, Note_on_c, 0, 67, 0
1, 20026, Note_on_c, 0, 69, 0
1, 20026, Note_on_c, 0, 67, 45
1, 20040, Note_on_c, 0, 59, 0
1, 20040, Note_on_c, 0, 55, 30
1, 20052, Note_on_c, 0, 67, 0
1, 20052, Note_on_c, 0, 69, 41
1, 20079, Note_on_c, 0, 69, 0
1, 20079, Note_on_c, 0, 67, 45
1, 20100, Tempo, 1685867
1, 20105, Note_on_c, 0, 67, 0
1, 20105, Note_on_c, 0, 66, 49
1, 20131, Note_on_c, 0, 67, 44
1, 20132, Note_on_c, 0, 66, 0
1, 20160, Tempo, 1316078
1, 20160, Note_on_c, 0, 52, 0
1, 20160, Note_on_c, 0, 55, 0
1, 20160, Note_on_c, 0, 67, 0
1, 20160, Note_on_c, 0, 71, 49
1, 20160, Note_on_c, 0, 48, 39
1, 20165, Control_c, 0, 64, 0
1, 20208, Control_c, 0, 64, 127
1, 20280, Note_on_c, 0, 71, 0
1, 20280, Note_on_c, 0, 69, 45
1, 20280, Note_on_c, 0, 52, 29
1, 20396, Note_on_c, 0, 69, 0
1, 20400, Note_on_c, 0, 52, 0
1, 20400, Note_on_c, 0, 69, 45
1, 20400, Note_on_c, 0, 57, 32
1, 20520, Tempo, 1351656
1, 20520, Note_on_c, 0, 57, 0
1, 20520, Note_on_c, 0, 52, 29
1, 20640, Tempo, 1304631
1, 20640, Note_on_c, 0, 52, 0
1, 20640, Note_on_c, 0, 69, 0
1, 20640, Note_on_c, 0, 48, 0
1, 20640, Note_on_c, 0, 67, 45
1, 20640, Note_on_c, 0, 50, 39
1, 20650, Control_c, 0, 64, 0
1, 20697, Control_c, 0, 64, 127
1, 20760, Note_on_c, 0, 67, 0
1, 20760, Note_on_c, 0, 66, 41
1, 20760, Note_on_c, 0, 60, 30
1, 20877, Note_on_c, 0, 66, 0
1, 20880, Note_on_c, 0, 60, 0
1, 20880, Note_on_c, 0, 66, 45
1, 20880, Note_on_c, 0, 57, 32
1, 21000, Tempo, 1402197
1, 21000, Note_on_c, 0, 57, 0
1, 21000, Note_on_c, 0, 66, 0
1, 21000, Note_on_c, 0, 62, 41
1, 21000, Note_on_c, 0, 60, 29
1, 21120, Tempo, 1316078
1, 21120, Note_on_c, 0, 60, 0
1, 21120, Note_on_c, 0, 62, 0
1, 21120, Note_on_c, 0, 50, 0
1, 21120, Note_on_c, 0, 67, 45
1, 21120, Note_on_c, 0, 59, 39
1, 21120, Note_on_c, 0, 55, 33
1, 21120, Control_c, 0, 64, 0
1, 21600, Note_on_c, 0, 55, 0
1, 21600, Note_on_c, 0, 59, 0
1, 21600, Note_on_c, 0, 67, 0
1, 21600, Note_on_c, 0, 63, 47
1, 21600, Note_on_c, 0, 57, 38
1, 21600, Note_on_c, 0, 54, 32
1, 21600, Note_on_c, 0, 47, 32
1, 21828, Note_on_c, 0, 47, 0
1, 21828, Note_on_c, 0, 63, 0
1, 21828, Note_on_c, 0, 57, 0
1, 21828, Note_on_c, 0, 54, 0
1, 21840, Note_on_c, 0, 63, 47
1, 21840, Note_on_c, 0, 47, 32
1, 21840, Note_on_c, 0, 57, 38
1, 21840, Note_on_c, 0, 54, 32
1, 21900, Tempo, 1351656
1, 22068, Note_on_c, 0, 54, 0
1, 22068, Note_on_c, 0, 63, 0
1, 22068, Note_on_c, 0, 47, 0
1, 22068, Note_on_c, 0, 57, 0
1, 22080, Tempo, 1316078
1, 22080, Note_on_c, 0, 64, 49
1, 22080, Note_on_c, 0, 55, 41
1, 22080, Note_on_c, 0, 52, 34
1, 22200, Note_on_c, 0, 64, 0
1, 22200, Note_on_c, 0, 66, 44
1, 22320, Tempo, 1293382
1, 22320, Note_on_c, 0, 66, 0
1, 22320, Note_on_c, 0, 67, 49
1, 22440, Tempo, 1389210
1, 22440, Note_on_c, 0, 67, 0
1, 22440, Note_on_c, 0, 64, 43
1, 22500, Tempo, 1304631
1, 22560, Note_on_c, 0, 64, 0
1, 22560, Note_on_c, 0, 52, 0
1, 22560, Note_on_c, 0, 55, 0
1, 22560, Note_on_c, 0, 62, 49
1, 22560, Note_on_c, 0, 55, 37
1, 22560, Note_on_c, 0, 45, 31
1, 22560, Note_on_c, 0, 52, 31
1, 22680, Note_on_c, 0, 62, 0
1, 22680, Note_on_c, 0, 61, 45
1, 22797, Note_on_c, 0, 61, 0
1, 22800, Note_on_c, 0, 52, 0
1, 22800, Note_on_c, 0, 45, 0
1, 22800, Note_on_c, 0, 55, 0
1, 22800, Note_on_c, 0, 61, 50
1, 22800, Note_on_c, 0, 55, 42
1, 22800, Note_on_c, 0, 52, 35
1, 22800, Note_on_c, 0, 45, 35
1, 22920, Tempo, 1363946
1, 22920, Note_on_c, 0, 61, 0
1, 22920, Note_on_c, 0, 57, 46
1, 23040, Tempo, 1304631
1, 23040, Note_on_c, 0, 57, 0
1, 23040, Note_on_c, 0, 45, 0
1, 23040, Note_on_c, 0, 52, 0
1, 23040, Note_on_c, 0, 55, 0
1, 23040, Note_on_c, 0, 69, 61
1, 23040, Note_on_c, 0, 50, 37
1, 23040, Note_on_c, 0, 54, 44
1, 23520, Note_on_c, 0, 54, 0
1, 23520, Note_on_c, 0, 50, 0
1, 23520, Note_on_c, 0, 69, 0
1, 23520, Note_on_c, 0, 74, 69
1, 23520, Note_on_c, 0, 68, 58
1, 23520, Note_on_c, 0, 62, 58
1, 23520, Note_on_c, 0, 47, 51
1, 23520, Note_on_c, 0, 59, 61
1, 23600, Control_c, 0, 64, 127
1, 23748, Note_on_c, 0, 59, 0
1, 23748, Note_on_c, 0, 62, 0
1, 23748, Note_on_c, 0, 74, 0
1, 23748, Note_on_c, 0, 68, 0
1, 23748, Note_on_c, 0, 47, 0
1, 23760, Note_on_c, 0, 68, 56
1, 23760, Note_on_c, 0, 74, 66
1, 23760, Note_on_c, 0, 62, 56
1, 23760, Note_on_c, 0, 47, 48
1, 23760, Note_on_c, 0, 59, 57
1, 23988, Note_on_c, 0, 59, 0
1, 23988, Note_on_c, 0, 62, 0
1, 23988, Note_on_c, 0, 68, 0
1, 23988, Note_on_c, 0, 74, 0
1, 23988, Note_on_c, 0, 47, 0
1, 24000, Tempo, 1351656
1, 24000, Note_on_c, 0, 68, 59
1, 24000, Note_on_c, 0, 74, 70
1, 24000, Note_on_c, 0, 62, 59
1, 24000, Note_on_c, 0, 47, 51
1, 24000, Note_on_c, 0, 59, 61
1, 24374, Control_c, 0, 64, 0
1, 24432, Note_on_c, 0, 59, 0
1, 24432, Note_on_c, 0, 62, 0
1, 24432, Note_on_c, 0, 68, 0
1, 24432, Note_on_c, 0, 74, 0
1, 24432, Note_on_c, 0, 47, 0
1, 24480, Tempo, 1304631
1, 24480, Note_on_c, 0, 73, 40
1, 24480, Note_on_c, 0, 81, 48
1, 24480, Note_on_c, 0, 64, 37
1, 24480, Note_on_c, 0, 57, 31
1, 24672, Note_on_c, 0, 57, 0
1, 24672, Note_on_c, 0, 73, 0
1, 24672, Note_on_c, 0, 81, 0
1, 24672, Note_on_c, 0, 64, 0
1, 24720, Note_on_c, 0, 81, 45
1, 24720, Note_on_c, 0, 73, 38
1, 24720, Note_on_c, 0, 64, 35
1, 24720, Note_on_c, 0, 57, 29
1, 24912, Note_on_c, 0, 57, 0
1, 24912, Note_on_c, 0, 81, 0
1, 24912, Note_on_c, 0, 73, 0
1, 24912, Note_on_c, 0, 64, 0
1, 24960, Note_on_c, 0, 81, 48
1, 24960, Note_on_c, 0, 73, 40
1, 24960, Note_on_c, 0, 57, 31
1, 24960, Note_on_c, 0, 64, 37
1, 25440, Note_on_c, 0, 64, 0
1, 25440, Note_on_c, 0, 81, 0
1, 25440, Note_on_c, 0, 73, 0
1, 25440, Note_on_c, 0, 57, 0
1, 25680, Tempo, 1239926
1, 25680, Note_on_c, 0, 78, 48
1, 25687, Control_c, 0, 64, 127
1, 25710, Note_on_c, 0, 78, 0
1, 25710, Note_on_c, 0, 79, 44
1, 25740, Note_on_c, 0, 79, 0
1, 25740, Note_on_c, 0, 78, 48
1, 25770, Note_on_c, 0, 78, 0
1, 25770, Note_on_c, 0, 76, 44
1, 25800, Note_on_c, 0, 76, 0
1, 25800, Note_on_c, 0, 78, 50
1, 25860, Tempo, 1339585
1, 25860, Note_on_c, 0, 78, 0
1, 25860, Note_on_c, 0, 79, 45
1, 25920, Tempo, 1304631
1, 25920, Note_on_c, 0, 79, 0
1, 25920, Note_on_c, 0, 81, 54
1, 25920, Note_on_c, 0, 62, 34
1, 25938, Control_c, 0, 64, 0
1, 25979, Control_c, 0, 64, 127
1, 26040, Note_on_c, 0, 62, 0
1, 26040, Note_on_c, 0, 66, 29
1, 26160, Note_on_c, 0, 66, 0
1, 26160, Note_on_c, 0, 81, 0
1, 26160, Note_on_c, 0, 81, 48
1, 26160, Note_on_c, 0, 69, 29
1, 26280, Note_on_c, 0, 69, 0
1, 26280, Note_on_c, 0, 66, 29
1, 26400, Note_on_c, 0, 66, 0
1, 26400, Note_on_c, 0, 62, 34
1, 26408, Control_c, 0, 64, 0
1, 26421, Control_c, 0, 64, 127
1, 26520, Note_on_c, 0, 62, 0
1, 26520, Note_on_c, 0, 81, 0
1, 26520, Note_on_c, 0, 81, 48
1, 26520, Note_on_c, 0, 66, 30
1, 26580, Tempo, 1260769
1, 26640, Note_on_c, 0, 66, 0
1, 26640, Note_on_c, 0, 81, 0
1, 26640, Note_on_c, 0, 81, 50
1, 26640, Note_on_c, 0, 69, 30
1, 26670, Note_on_c, 0, 81, 0
1, 26670, Note_on_c, 0, 83, 44
1, 26700, Note_on_c, 0, 83, 0
1, 26700, Note_on_c, 0, 81, 46
1, 26730, Note_on_c, 0, 81, 0
1, 26730, Note_on_c, 0, 80, 46
1, 26760, Tempo, 1363946
1, 26760, Note_on_c, 0, 80, 0
1, 26760, Note_on_c, 0, 69, 0
1, 26760, Note_on_c, 0, 81, 53
1, 26760, Note_on_c, 0, 66, 30
1, 26820, Note_on_c, 0, 81, 0
1, 26820, Note_on_c, 0, 83, 43
1, 26880, Tempo, 1304631
1, 26880, Note_on_c, 0, 83, 0
1, 26880, Note_on_c, 0, 66, 0
1, 26880, Note_on_c, 0, 81, 53
1, 26880, Note_on_c, 0, 62, 34
1, 26898, Control_c, 0, 64, 0
1, 26933, Control_c, 0, 64, 127
1, 27000, Note_on_c, 0, 62, 0
1, 27000, Note_on_c, 0, 81, 0
1, 27000, Note_on_c, 0, 79, 48
1, 27000, Note_on_c, 0, 64, 31
1, 27120, Note_on_c, 0, 64, 0
1, 27120, Note_on_c, 0, 79, 0
1, 27120, Note_on_c, 0, 79, 48
1, 27120, Note_on_c, 0, 71, 31
1, 27240, Note_on_c, 0, 71, 0
1, 27240, Note_on_c, 0, 64, 31
1, 27360, Note_on_c, 0, 64, 0
1, 27360, Note_on_c, 0, 62, 34
1, 27360, Control_c, 0, 64, 0
1, 27480, Note_on_c, 0, 62, 0
1, 27480, Note_on_c, 0, 79, 0
1, 27480, Note_on_c, 0, 79, 45
1, 27480, Note_on_c, 0, 64, 30
1, 27540, Note_on_c, 0, 79, 0
1, 27600, Note_on_c, 0, 64, 0
1, 27600, Note_on_c, 0, 78, 49
1, 27600, Note_on_c, 0, 71, 30
1, 27660, Note_on_c, 0, 78, 0
1, 27720, Tempo, 1402197
1, 27720, Note_on_c, 0, 71, 0
1, 27720, Note_on_c, 0, 76, 45
1, 27720, Note_on_c, 0, 64, 30
1, 27780, Note_on_c, 0, 76, 0
1, 27840, Tempo, 1304631
1, 27840, Note_on_c, 0, 64, 0
1, 27840, Note_on_c, 0, 76, 51
1, 27840, Note_on_c, 0, 61, 34
1, 27851, Control_c, 0, 64, 127
1, 27960, Note_on_c, 0, 61, 0
1, 27960, Note_on_c, 0, 76, 0
1, 27960, Note_on_c, 0, 81, 46
1, 27960, Note_on_c, 0, 64, 31
1, 28080, Note_on_c, 0, 64, 0
1, 28080, Note_on_c, 0, 81, 0
1, 28080, Note_on_c, 0, 81, 46
1, 28080, Note_on_c, 0, 69, 31
1, 28200, Note_on_c, 0, 69, 0
1, 28200, Note_on_c, 0, 64, 31
1, 28320, Tempo, 1376462
1, 28320, Note_on_c, 0, 64, 0
1, 28320, Note_on_c, 0, 59, 34
1, 28330, Control_c, 0, 64, 0
1, 28370, Control_c, 0, 64, 127
1, 28440, Tempo, 1293382
1, 28440, Note_on_c, 0, 59, 0
1, 28440, Note_on_c, 0, 81, 0
1, 28440, Note_on_c, 0, 83, 48
1, 28440, Note_on_c, 0, 62, 31
1, 28500, Note_on_c, 0, 83, 0
1, 28500, Note_on_c, 0, 81, 44
1, 28560, Note_on_c, 0, 81, 0
1, 28560, Note_on_c, 0, 62, 0
1, 28560, Note_on_c, 0, 81, 48
1, 28560, Note_on_c, 0, 67, 31
1, 28620, Note_on_c, 0, 81, 0
1, 28620, Note_on_c, 0, 79, 44
1, 28680, Note_on_c, 0, 79, 0
1, 28680, Note_on_c, 0, 67, 0
1, 28680, Note_on_c, 0, 78, 44
1, 28680, Note_on_c, 0, 62, 28
1, 28740, Tempo, 1562907
1, 28740, Note_on_c, 0, 78, 0
1, 28740, Note_on_c, 0, 79, 44
1, 28800, Tempo, 1339585
1, 28800, Note_on_c, 0, 79, 0
1, 28800, Note_on_c, 0, 62, 0
1, 28800, Note_on_c, 0, 79, 49
1, 28800, Note_on_c, 0, 58, 31
1, 28800, Control_c, 0, 64, 0
1, 28851, Control_c, 0, 64, 127
1, 28920, Tempo, 1293382
1, 28920, Note_on_c, 0, 58, 0
1, 28920, Note_on_c, 0, 79, 0
1, 28920, Note_on_c, 0, 78, 45
1, 28920, Note_on_c, 0, 61, 32
1, 29040, Note_on_c, 0, 61, 0
1, 29040, Note_on_c, 0, 78, 0
1, 29040, Note_on_c, 0, 78, 48
1, 29040, Note_on_c, 0, 64, 32
1, 29160, Note_on_c, 0, 64, 0
1, 29160, Note_on_c, 0, 58, 32
1, 29280, Tempo, 1531003
1, 29280, Note_on_c, 0, 58, 0
1, 29280, Note_on_c, 0, 59, 34
1, 29296, Control_c, 0, 64, 0
1, 29337, Control_c, 0, 64, 127
1, 29340, Tempo, 1239926
1, 29340, Note_on_c, 0, 78, 0
1, 29340, Note_on_c, 0, 78, 44
1, 29370, Note_on_c, 0, 78, 0
1, 29370, Note_on_c, 0, 79, 44
1, 29400, Tempo, 1304631
1, 29400, Note_on_c, 0, 79, 0
1, 29400, Note_on_c, 0, 59, 0
1, 29400, Note_on_c, 0, 81, 48
1, 29400, Note_on_c, 0, 66, 32
1, 29460, Note_on_c, 0, 81, 0
1, 29508, Control_c, 0, 64, 0
1, 29520, Note_on_c, 0, 66, 0
1, 29520, Note_on_c, 0, 79, 46
1, 29520, Note_on_c, 0, 57, 32
1, 29580, Note_on_c, 0, 79, 0
1, 29640, Tempo, 1402197
1, 29640, Note_on_c, 0, 57, 0
1, 29640, Note_on_c, 0, 78, 46
1, 29640, Note_on_c, 0, 62, 32
1, 29700, Note_on_c, 0, 78, 0
1, 29760, Tempo, 1304631
1, 29760, Note_on_c, 0, 62, 0
1, 29760, Note_on_c, 0, 78, 51
1, 29760, Note_on_c, 0, 56, 34
1, 29767, Control_c, 0, 64, 127
1, 29880, Note_on_c, 0, 56, 0
1, 29880, Note_on_c, 0, 78, 0
1, 29880, Note_on_c, 0, 76, 46
1, 29880, Note_on_c, 0, 59, 27
1, 30000, Note_on_c, 0, 59, 0
1, 30000, Note_on_c, 0, 76, 0
1, 30000, Note_on_c, 0, 76, 46
1, 30000, Note_on_c, 0, 62, 31
1, 30060, Note_on_c, 0, 76, 0
1, 30120, Note_on_c, 0, 62, 0
1, 30120, Note_on_c, 0, 76, 48
1, 30120, Note_on_c, 0, 59, 28
1, 30180, Note_on_c, 0, 76, 0
1, 30240, Note_on_c, 0, 59, 0
1, 30240, Note_on_c, 0, 76, 48
1, 30240, Note_on_c, 0, 56, 34
1, 30251, Control_c, 0, 64, 0
1, 30303, Control_c, 0, 64, 127
1, 30360, Note_on_c, 0, 56, 0
1, 30360, Note_on_c, 0, 59, 29
1, 30480, Note_on_c, 0, 59, 0
1, 30480, Note_on_c, 0, 76, 0
1, 30480, Note_on_c, 0, 76, 48
1, 30480, Note_on_c, 0, 62, 32
1, 30600, Tempo, 1363946
1, 30600, Note_on_c, 0, 62, 0
1, 30600, Note_on_c, 0, 80, 48
1, 30600, Note_on_c, 0, 59, 29
1, 30640, Note_on_c, 0, 80, 0
1, 30640, Note_on_c, 0, 81, 48
1, 30660, Tempo, 1531003
1, 30660, Note_on_c, 0, 76, 0
1, 30680, Note_on_c, 0, 81, 0
1, 30680, Note_on_c, 0, 83, 48
1, 30720, Tempo, 1304631
1, 30720, Note_on_c, 0, 83, 0
1, 30720, Note_on_c, 0, 59, 0
1, 30720, Note_on_c, 0, 81, 53
1, 30720, Note_on_c, 0, 55, 34
1, 30720, Control_c, 0, 64, 0
1, 30759, Control_c, 0, 64, 127
1, 30840, Note_on_c, 0, 55, 0
1, 30840, Note_on_c, 0, 61, 26
1, 30960, Note_on_c, 0, 61, 0
1, 30960, Note_on_c, 0, 64, 29
1, 31080, Tempo, 1363946
1, 31080, Note_on_c, 0, 64, 0
1, 31080, Note_on_c, 0, 55, 25
1, 31200, Tempo, 1304631
1, 31200, Note_on_c, 0, 55, 0
1, 31200, Note_on_c, 0, 54, 34
1, 31211, Control_c, 0, 64, 0
1, 31246, Control_c, 0, 64, 127
1, 31320, Note_on_c, 0, 54, 0
1, 31320, Note_on_c, 0, 81, 0
1, 31320, Note_on_c, 0, 83, 52
1, 31320, Note_on_c, 0, 62, 26
1, 31380, Note_on_c, 0, 83, 0
1, 31380, Note_on_c, 0, 81, 48
1, 31440, Note_on_c, 0, 81, 0
1, 31440, Note_on_c, 0, 62, 0
1, 31440, Note_on_c, 0, 79, 51
1, 31440, Note_on_c, 0, 59, 29
1, 31560, Tempo, 1351656
1, 31560, Note_on_c, 0, 59, 0
1, 31560, Note_on_c, 0, 79, 0
1, 31560, Note_on_c, 0, 78, 48
1, 31560, Note_on_c, 0, 57, 26
1, 31677, Note_on_c, 0, 78, 0
1, 31680, Tempo, 1304631
1, 31680, Note_on_c, 0, 57, 0
1, 31680, Note_on_c, 0, 78, 53
1, 31680, Note_on_c, 0, 59, 33
1, 31680, Note_on_c, 0, 55, 33
1, 31680, Control_c, 0, 64, 0
1, 31800, Note_on_c, 0, 78, 0
1, 31800, Note_on_c, 0, 76, 45
1, 31920, Note_on_c, 0, 76, 0
1, 31920, Note_on_c, 0, 75, 50
1, 32040, Note_on_c, 0, 75, 0
1, 32040, Note_on_c, 0, 76, 45
1, 32160, Note_on_c, 0, 76, 0
1, 32160, Note_on_c, 0, 78, 48
1, 32280, Note_on_c, 0, 78, 0
1, 32280, Note_on_c, 0, 79, 44
1, 32400, Note_on_c, 0, 79, 0
1, 32400, Note_on_c, 0, 55, 0
1, 32400, Note_on_c, 0, 59, 0
1, 32400, Note_on_c, 0, 71, 42
1, 32400, Note_on_c, 0, 64, 32
1, 32400, Note_on_c, 0, 56, 32
1, 32520, Note_on_c, 0, 71, 0
1, 32520, Note_on_c, 0, 76, 42
1, 32640, Note_on_c, 0, 76, 0
1, 32640, Note_on_c, 0, 56, 0
1, 32640, Note_on_c, 0, 64, 0
1, 32640, Note_on_c, 0, 74, 48
1, 32640, Note_on_c, 0, 64, 35
1, 32640, Note_on_c, 0, 57, 35
1, 32760, Note_on_c, 0, 74, 0
1, 32760, Note_on_c, 0, 73, 45
1, 32880, Note_on_c, 0, 73, 0
1, 32880, Note_on_c, 0, 71, 41
1, 33000, Note_on_c, 0, 71, 0
1, 33000, Note_on_c, 0, 69, 41
1, 33120, Note_on_c, 0, 69, 0
1, 33120, Note_on_c, 0, 57, 0
1, 33120, Note_on_c, 0, 64, 0
1, 33120, Note_on_c, 0, 71, 42
1, 33240, Note_on_c, 0, 71, 0
1, 33240, Note_on_c, 0, 73, 44
1, 33360, Note_on_c, 0, 73, 0
1, 33360, Note_on_c, 0, 74, 47
1, 33480, Note_on_c, 0, 74, 0
1, 33480, Note_on_c, 0, 76, 49
1, 33600, Tempo, 1351656
1, 33600, Note_on_c, 0, 76, 0
1, 33600, Note_on_c, 0, 78, 50
1, 33600, Note_on_c, 0, 74, 36
1, 33604, Control_c, 0, 64, 127
1, 33720, Note_on_c, 0, 74, 0
1, 33720, Note_on_c, 0, 69, 29
1, 33780, Tempo, 1219760
1, 33780, Note_on_c, 0, 78, 0
1, 33780, Note_on_c, 0, 81, 42
1, 33840, Tempo, 1316078
1, 33840, Note_on_c, 0, 81, 0
1, 33840, Note_on_c, 0, 69, 0
1, 33840, Note_on_c, 0, 79, 50
1, 33840, Note_on_c, 0, 74, 33
1, 33850, Control_c, 0, 64, 0
1, 33868, Control_c, 0, 64, 127
1, 33960, Note_on_c, 0, 74, 0
1, 33960, Note_on_c, 0, 69, 29
1, 34020, Note_on_c, 0, 79, 0
1, 34020, Note_on_c, 0, 78, 47
1, 34080, Note_on_c, 0, 78, 0
1, 34080, Note_on_c, 0, 69, 0
1, 34080, Note_on_c, 0, 76, 50
1, 34080, Note_on_c, 0, 73, 36
1, 34092, Control_c, 0, 64, 0
1, 34128, Control_c, 0, 64, 127
1, 34200, Note_on_c, 0, 73, 0
1, 34200, Note_on_c, 0, 69, 28
1, 34320, Note_on_c, 0, 69, 0
1, 34320, Note_on_c, 0, 76, 0
1, 34320, Note_on_c, 0, 78, 46
1, 34320, Note_on_c, 0, 74, 32
1, 34323, Control_c, 0, 64, 0
1, 34356, Control_c, 0, 64, 127
1, 34440, Tempo, 1415428
1, 34440, Note_on_c, 0, 74, 0
1, 34440, Note_on_c, 0, 69, 28
1, 34560, Tempo, 1316078
1, 34560, Note_on_c, 0, 69, 0
1, 34560, Note_on_c, 0, 78, 0
1, 34560, Note_on_c, 0, 79, 50
1, 34560, Note_on_c, 0, 76, 36
1, 34574, Control_c, 0, 64, 0
1, 34640, Control_c, 0, 64, 127
1, 34680, Note_on_c, 0, 76, 0
1, 34680, Note_on_c, 0, 69, 28
1, 34800, Note_on_c, 0, 69, 0
1, 34800, Note_on_c, 0, 79, 0
1, 34800, Note_on_c, 0, 81, 46
1, 34800, Note_on_c, 0, 73, 31
1, 34806, Control_c, 0, 64, 0
1, 34846, Control_c, 0, 64, 127
1, 34920, Note_on_c, 0, 73, 0
1, 34920, Note_on_c, 0, 69, 28
1, 35040, Tempo, 1293382
1, 35040, Note_on_c, 0, 69, 0
1, 35040, Note_on_c, 0, 81, 0
1, 35040, Note_on_c, 0, 79, 47
1, 35040, Note_on_c, 0, 74, 36
1, 35057, Control_c, 0, 64, 0
1, 35059, Tempo, 1316078
1, 35137, Control_c, 0, 64, 127
1, 35160, Note_on_c, 0, 74, 0
1, 35160, Note_on_c, 0, 69, 29
1, 35280, Note_on_c, 0, 69, 0
1, 35280, Note_on_c, 0, 79, 0
1, 35280, Note_on_c, 0, 78, 51
1, 35280, Note_on_c, 0, 74, 33
1, 35287, Control_c, 0, 64, 0
1, 35355, Control_c, 0, 64, 127
1, 35400, Tempo, 1500375
1, 35400, Note_on_c, 0, 74, 0
1, 35400, Note_on_c, 0, 69, 29
1, 35520, Tempo, 1351656
1, 35520, Note_on_c, 0, 69, 0
1, 35520, Note_on_c, 0, 78, 0
1, 35520, Note_on_c, 0, 81, 45
1, 35520, Note_on_c, 0, 62, 38
1, 35520, Note_on_c, 0, 66, 45
1, 35520, Control_c, 0, 64, 0
1, 35550, Note_on_c, 0, 81, 0
1, 35550, Note_on_c, 0, 83, 40
1, 35561, Control_c, 0, 64, 127
1, 35580, Note_on_c, 0, 83, 0
1, 35580, Note_on_c, 0, 81, 45
1, 35610, Note_on_c, 0, 81, 0
1, 35610, Note_on_c, 0, 83, 41
1, 35640, Note_on_c, 0, 83, 0
1, 35640, Note_on_c, 0, 81, 45
1, 35670, Note_on_c, 0, 81, 0
1, 35670, Note_on_c, 0, 83, 40
1, 35700, Tempo, 1219760
1, 35700, Note_on_c, 0, 83, 0
1, 35700, Note_on_c, 0, 81, 45
1, 35730, Note_on_c, 0, 81, 0
1, 35730, Note_on_c, 0, 83, 39
1, 35760, Tempo, 1304631
1, 35760, Note_on_c, 0, 83, 0
1, 35760, Note_on_c, 0, 66, 0
1, 35760, Note_on_c, 0, 62, 0
1, 35760, Note_on_c, 0, 81, 45
1, 35760, Note_on_c, 0, 64, 38
1, 35760, Note_on_c, 0, 67, 45
1, 35764, Control_c, 0, 64, 0
1, 35782, Tempo, 1293382
1, 35790, Note_on_c, 0, 81, 0
1, 35790, Note_on_c, 0, 83, 40
1, 35792, Control_c, 0, 64, 127
1, 35805, Tempo, 1282325
1, 35820, Note_on_c, 0, 83, 0
1, 35820, Note_on_c, 0, 81, 45
1, 35836, Tempo, 1293382
1, 35850, Note_on_c, 0, 81, 0
1, 35850, Note_on_c, 0, 83, 40
1, 35859, Tempo, 1304631
1, 35880, Note_on_c, 0, 83, 0
1, 35880, Note_on_c, 0, 81, 45
1, 35904, Tempo, 1304631
1, 35910, Note_on_c, 0, 81, 0
1, 35910, Note_on_c, 0, 83, 40
1, 35940, Note_on_c, 0, 83, 0
1, 35940, Note_on_c, 0, 67, 0
1, 35940, Note_on_c, 0, 64, 0
1, 35940, Note_on_c, 0, 81, 45
1, 35940, Note_on_c, 0, 62, 35
1, 35940, Note_on_c, 0, 66, 42
1, 35942, Tempo, 1293382
1, 35970, Note_on_c, 0, 81, 0
1, 35970, Note_on_c, 0, 83, 41
1, 35973, Tempo, 1282325
1, 35988, Tempo, 1293382
1, 35996, Tempo, 1304631
1, 36000, Note_on_c, 0, 83, 0
1, 36000, Note_on_c, 0, 66, 0
1, 36000, Note_on_c, 0, 62, 0
1, 36000, Note_on_c, 0, 81, 45
1, 36000, Note_on_c, 0, 61, 38
1, 36000, Note_on_c, 0, 64, 45
1, 36003, Tempo, 1316078
1, 36009, Control_c, 0, 64, 0
1, 36030, Note_on_c, 0, 81, 0
1, 36030, Note_on_c, 0, 83, 40
1, 36044, Control_c, 0, 64, 127
1, 36060, Note_on_c, 0, 83, 0
1, 36060, Note_on_c, 0, 81, 45
1, 36064, Tempo, 1327727
1, 36072, Tempo, 1316078
1, 36080, Tempo, 1304631
1, 36087, Tempo, 1293382
1, 36090, Note_on_c, 0, 81, 0
1, 36090, Note_on_c, 0, 83, 40
1, 36095, Tempo, 1282325
1, 36102, Tempo, 1271456
1, 36120, Note_on_c, 0, 83, 0
1, 36120, Note_on_c, 0, 81, 45
1, 36150, Note_on_c, 0, 81, 0
1, 36150, Note_on_c, 0, 83, 41
1, 36171, Tempo, 1293382
1, 36180, Note_on_c, 0, 83, 0
1, 36180, Note_on_c, 0, 81, 45
1, 36210, Note_on_c, 0, 81, 0
1, 36210, Note_on_c, 0, 83, 40
1, 36240, Note_on_c, 0, 83, 0
1, 36240, Note_on_c, 0, 64, 0
1, 36240, Note_on_c, 0, 61, 0
1, 36240, Note_on_c, 0, 81, 45
1, 36240, Note_on_c, 0, 62, 34
1, 36240, Note_on_c, 0, 66, 41
1, 36254, Control_c, 0, 64, 0
1, 36255, Tempo, 1293382
1, 36270, Note_on_c, 0, 81, 0
1, 36270, Note_on_c, 0, 83, 40
1, 36294, Control_c, 0, 64, 127
1, 36300, Note_on_c, 0, 83, 0
1, 36300, Note_on_c, 0, 81, 45
1, 36330, Note_on_c, 0, 81, 0
1, 36330, Note_on_c, 0, 83, 41
1, 36360, Tempo, 1415428
1, 36360, Note_on_c, 0, 83, 0
1, 36360, Note_on_c, 0, 81, 45
1, 36361, Tempo, 1304631
1, 36384, Tempo, 1316078
1, 36390, Note_on_c, 0, 81, 0
1, 36390, Note_on_c, 0, 83, 40
1, 36407, Tempo, 1327727
1, 36420, Note_on_c, 0, 83, 0
1, 36420, Note_on_c, 0, 81, 45
1, 36422, Tempo, 1339585
1, 36450, Note_on_c, 0, 81, 0
1, 36450, Note_on_c, 0, 83, 41
1, 36476, Tempo, 1304631
1, 36480, Tempo, 1316078
1, 36480, Note_on_c, 0, 83, 0
1, 36480, Note_on_c, 0, 66, 0
1, 36480, Note_on_c, 0, 62, 0
1, 36480, Note_on_c, 0, 81, 45
1, 36480, Note_on_c, 0, 64, 38
1, 36480, Note_on_c, 0, 67, 45
1, 36491, Control_c, 0, 64, 0
1, 36510, Note_on_c, 0, 81, 0
1, 36510, Note_on_c, 0, 83, 42
1, 36529, Control_c, 0, 64, 127
1, 36537, Tempo, 1282325
1, 36540, Note_on_c, 0, 83, 0
1, 36540, Note_on_c, 0, 81, 45
1, 36570, Note_on_c, 0, 81, 0
1, 36570, Note_on_c, 0, 83, 41
1, 36590, Tempo, 1327727
1, 36600, Note_on_c, 0, 83, 0
1, 36600, Note_on_c, 0, 81, 44
1, 36630, Note_on_c, 0, 81, 0
1, 36630, Note_on_c, 0, 83, 38
1, 36660, Note_on_c, 0, 83, 0
1, 36660, Note_on_c, 0, 81, 44
1, 36674, Tempo, 1293382
1, 36690, Note_on_c, 0, 81, 0
1, 36690, Note_on_c, 0, 83, 39
1, 36720, Note_on_c, 0, 83, 0
1, 36720, Note_on_c, 0, 67, 0
1, 36720, Note_on_c, 0, 64, 0
1, 36720, Note_on_c, 0, 81, 43
1, 36720, Note_on_c, 0, 66, 34
1, 36720, Note_on_c, 0, 69, 41
1, 36732, Control_c, 0, 64, 0
1, 36735, Tempo, 1327727
1, 36750, Note_on_c, 0, 81, 0
1, 36750, Note_on_c, 0, 83, 38
1, 36760, Control_c, 0, 64, 127
1, 36780, Note_on_c, 0, 83, 0
1, 36780, Note_on_c, 0, 81, 42
1, 36803, Tempo, 1293382
1, 36810, Note_on_c, 0, 81, 0
1, 36810, Note_on_c, 0, 83, 38
1, 36840, Note_on_c, 0, 83, 0
1, 36840, Note_on_c, 0, 81, 42
1, 36870, Note_on_c, 0, 81, 0
1, 36870, Note_on_c, 0, 83, 39
1, 36900, Note_on_c, 0, 83, 0
1, 36900, Note_on_c, 0, 81, 43
1, 36925, Tempo, 1304631
1, 36930, Note_on_c, 0, 81, 0
1, 36930, Note_on_c, 0, 83, 39
1, 36960, Tempo, 1293382
1, 36960, Note_on_c, 0, 83, 0
1, 36960, Note_on_c, 0, 69, 0
1, 36960, Note_on_c, 0, 66, 0
1, 36960, Note_on_c, 0, 81, 43
1, 36960, Note_on_c, 0, 64, 35
1, 36960, Note_on_c, 0, 67, 42
1, 36971, Tempo, 1271456
1, 36971, Control_c, 0, 64, 0
1, 36979, Tempo, 1316078
1, 36990, Note_on_c, 0, 81, 0
1, 36990, Note_on_c, 0, 83, 38
1, 37003, Control_c, 0, 64, 127
1, 37020, Note_on_c, 0, 83, 0
1, 37020, Note_on_c, 0, 81, 43
1, 37024, Tempo, 1339585
1, 37050, Note_on_c, 0, 81, 0
1, 37050, Note_on_c, 0, 83, 38
1, 37080, Note_on_c, 0, 83, 0
1, 37080, Note_on_c, 0, 81, 43
1, 37093, Tempo, 1293382
1, 37110, Note_on_c, 0, 81, 0
1, 37110, Note_on_c, 0, 83, 38
1, 37140, Note_on_c, 0, 83, 0
1, 37140, Note_on_c, 0, 81, 43
1, 37170, Note_on_c, 0, 81, 0
1, 37170, Note_on_c, 0, 83, 39
1, 37184, Tempo, 1316078
1, 37200, Note_on_c, 0, 83, 0
1, 37200, Note_on_c, 0, 67, 0
1, 37200, Note_on_c, 0, 64, 0
1, 37200, Note_on_c, 0, 81, 43
1, 37200, Note_on_c, 0, 62, 38
1, 37200, Note_on_c, 0, 66, 45
1, 37211, Control_c, 0, 64, 0
1, 37240, Note_on_c, 0, 81, 0
1, 37240, Note_on_c, 0, 83, 45
1, 37260, Control_c, 0, 64, 127
1, 37280, Note_on_c, 0, 83, 0
1, 37280, Note_on_c, 0, 81, 52
1, 37320, Tempo, 1376462
1, 37320, Note_on_c, 0, 81, 0
1, 37320, Note_on_c, 0, 80, 58
1, 37380, Note_on_c, 0, 80, 0
1, 37380, Note_on_c, 0, 81, 54
1, 37423, Control_c, 0, 64, 0
1, 37440, Tempo, 1339585
1, 37440, Note_on_c, 0, 81, 0
1, 37440, Note_on_c, 0, 66, 0
1, 37440, Note_on_c, 0, 62, 0
1, 37440, Note_on_c, 0, 86, 66
1, 37440, Note_on_c, 0, 74, 56
1, 37440, Note_on_c, 0, 66, 59
1, 37440, Note_on_c, 0, 69, 59
1, 37680, Tempo, 1304631
1, 37680, Note_on_c, 0, 69, 0
1, 37680, Note_on_c, 0, 86, 0
1, 37680, Note_on_c, 0, 74, 0
1, 37680, Note_on_c, 0, 66, 0
1, 37680, Note_on_c, 0, 85, 60
1, 37680, Note_on_c, 0, 73, 50
1, 37680, Note_on_c, 0, 64, 42
1, 37680, Note_on_c, 0, 67, 42
1, 37680, Note_on_c, 0, 70, 51
1, 37920, Tempo, 1339585
1, 37920, Note_on_c, 0, 70, 0
1, 37920, Note_on_c, 0, 64, 0
1, 37920, Note_on_c, 0, 85, 0
1, 37920, Note_on_c, 0, 73, 0
1, 37920, Note_on_c, 0, 67, 0
1, 37920, Note_on_c, 0, 71, 53
1, 37920, Note_on_c, 0, 83, 62
1, 37920, Note_on_c, 0, 62, 44
1, 37920, Note_on_c, 0, 66, 53
1, 38160, Note_on_c, 0, 66, 0
1, 38160, Note_on_c, 0, 71, 0
1, 38160, Note_on_c, 0, 83, 0
1, 38160, Note_on_c, 0, 62, 0
1, 38280, Note_on_c, 0, 78, 40
1, 38400, Tempo, 1351656
1, 38400, Note_on_c, 0, 78, 0
1, 38400, Note_on_c, 0, 71, 38
1, 38400, Note_on_c, 0, 83, 45
1, 38400, Note_on_c, 0, 62, 29
1, 38400, Note_on_c, 0, 66, 35
1, 38640, Note_on_c, 0, 66, 0
1, 38640, Note_on_c, 0, 71, 0
1, 38640, Note_on_c, 0, 83, 0
1, 38640, Note_on_c, 0, 62, 0
1, 38640, Note_on_c, 0, 69, 34
1, 38640, Note_on_c, 0, 81, 40
1, 38640, Note_on_c, 0, 60, 29
1, 38640, Note_on_c, 0, 62, 29
1, 38640, Note_on_c, 0, 66, 35
1, 38880, Note_on_c, 0, 66, 0
1, 38880, Note_on_c, 0, 60, 0
1, 38880, Note_on_c, 0, 69, 0
1, 38880, Note_on_c, 0, 81, 0
1, 38880, Note_on_c, 0, 62, 0
1, 38880, Note_on_c, 0, 67, 37
1, 38880, Note_on_c, 0, 79, 44
1, 38880, Note_on_c, 0, 59, 29
1, 38880, Note_on_c, 0, 62, 35
1, 39120, Note_on_c, 0, 62, 0
1, 39120, Note_on_c, 0, 67, 0
1, 39120, Note_on_c, 0, 79, 0
1, 39120, Note_on_c, 0, 59, 0
1, 39240, Note_on_c, 0, 74, 60
1, 39360, Tempo, 1339585
1, 39360, Note_on_c, 0, 74, 0
1, 39360, Note_on_c, 0, 79, 66
1, 39360, Note_on_c, 0, 67, 56
1, 39360, Note_on_c, 0, 59, 59
1, 39360, Note_on_c, 0, 62, 59
1, 39600, Tempo, 1304631
1, 39600, Note_on_c, 0, 62, 0
1, 39600, Note_on_c, 0, 79, 0
1, 39600, Note_on_c, 0, 67, 0
1, 39600, Note_on_c, 0, 59, 0
1, 39600, Note_on_c, 0, 78, 60
1, 39600, Note_on_c, 0, 66, 50
1, 39600, Note_on_c, 0, 57, 42
1, 39600, Note_on_c, 0, 60, 42
1, 39600, Note_on_c, 0, 63, 51
1, 39840, Tempo, 1339585
1, 39840, Note_on_c, 0, 63, 0
1, 39840, Note_on_c, 0, 57, 0
1, 39840, Note_on_c, 0, 78, 0
1, 39840, Note_on_c, 0, 66, 0
1, 39840, Note_on_c, 0, 60, 0
1, 39840, Note_on_c, 0, 76, 62
1, 39840, Note_on_c, 0, 55, 44
1, 39840, Note_on_c, 0, 59, 44
1, 39840, Note_on_c, 0, 64, 53
1, 39960, Note_on_c, 0, 76, 0
1, 39960, Note_on_c, 0, 83, 56
1, 40080, Tempo, 1293382
1, 40080, Note_on_c, 0, 83, 0
1, 40080, Note_on_c, 0, 81, 50
1, 40140, Note_on_c, 0, 81, 0
1, 40140, Note_on_c, 0, 79, 46
1, 40200, Note_on_c, 0, 79, 0
1, 40200, Note_on_c, 0, 78, 50
1, 40260, Tempo, 1442654
1, 40260, Note_on_c, 0, 78, 0
1, 40260, Note_on_c, 0, 76, 46
1, 40320, Tempo, 1339585
1, 40320, Note_on_c, 0, 76, 0
1, 40320, Note_on_c, 0, 64, 0
1, 40320, Note_on_c, 0, 59, 0
1, 40320, Note_on_c, 0, 55, 0
1, 40320, Note_on_c, 0, 74, 50
1, 40320, Note_on_c, 0, 66, 40
1, 40320, Note_on_c, 0, 57, 40
1, 40560, Note_on_c, 0, 66, 0
1, 40560, Note_on_c, 0, 74, 0
1, 40560, Note_on_c, 0, 76, 45
1, 40560, Note_on_c, 0, 61, 38
1, 40800, Tempo, 1389210
1, 40800, Note_on_c, 0, 61, 0
1, 40800, Note_on_c, 0, 76, 0
1, 40800, Note_on_c, 0, 57, 0
1, 40800, Note_on_c, 0, 77, 53
1, 40800, Note_on_c, 0, 61, 40
1, 40800, Note_on_c, 0, 50, 40
1, 40980, Tempo, 1339585
1, 41040, Note_on_c, 0, 61, 0
1, 41040, Note_on_c, 0, 77, 0
1, 41040, Note_on_c, 0, 78, 49
1, 41040, Note_on_c, 0, 62, 38
1, 41280, Tempo, 1339585
1, 41280, Note_on_c, 0, 62, 0
1, 41280, Note_on_c, 0, 78, 0
1, 41280, Note_on_c, 0, 50, 0
1, 41280, Note_on_c, 0, 86, 66
1, 41280, Note_on_c, 0, 66, 53
1, 41280, Note_on_c, 0, 69, 53
1, 41520, Tempo, 1304631
1, 41520, Note_on_c, 0, 69, 0
1, 41520, Note_on_c, 0, 66, 0
1, 41520, Note_on_c, 0, 86, 0
1, 41520, Note_on_c, 0, 85, 60
1, 41520, Note_on_c, 0, 64, 37
1, 41520, Note_on_c, 0, 67, 37
1, 41520, Note_on_c, 0, 70, 45
1, 41520, Control_c, 0, 64, 127
1, 41550, Note_on_c, 0, 85, 0
1, 41550, Note_on_c, 0, 86, 54
1, 41580, Note_on_c, 0, 86, 0
1, 41580, Note_on_c, 0, 85, 60
1, 41610, Note_on_c, 0, 85, 0
1, 41610, Note_on_c, 0, 86, 55
1, 41640, Note_on_c, 0, 86, 0
1, 41640, Note_on_c, 0, 85, 60
1, 41670, Note_on_c, 0, 85, 0
1, 41670, Note_on_c, 0, 86, 55
1, 41700, Note_on_c, 0, 86, 0
1, 41700, Note_on_c, 0, 85, 60
1, 41730, Note_on_c, 0, 85, 0
1, 41730, Note_on_c, 0, 86, 55
1, 41760, Tempo, 1339585
1, 41760, Note_on_c, 0, 86, 0
1, 41760, Note_on_c, 0, 70, 0
1, 41760, Note_on_c, 0, 67, 0
1, 41760, Note_on_c, 0, 64, 0
1, 41760, Note_on_c, 0, 83, 62
1, 41760, Note_on_c, 0, 71, 47
1, 41760, Note_on_c, 0, 62, 39
1, 41760, Note_on_c, 0, 66, 47
1, 41760, Control_c, 0, 64, 0
1, 42000, Note_on_c, 0, 66, 0
1, 42000, Note_on_c, 0, 83, 0
1, 42000, Note_on_c, 0, 71, 0
1, 42000, Note_on_c, 0, 62, 0
1, 42120, Note_on_c, 0, 78, 40
1, 42240, Tempo, 1351656
1, 42240, Note_on_c, 0, 78, 0
1, 42240, Note_on_c, 0, 83, 45
1, 42240, Note_on_c, 0, 62, 29
1, 42240, Note_on_c, 0, 66, 35
1, 42480, Note_on_c, 0, 66, 0
1, 42480, Note_on_c, 0, 62, 0
1, 42480, Note_on_c, 0, 83, 0
1, 42480, Note_on_c, 0, 81, 48
1, 42480, Note_on_c, 0, 60, 29
1, 42480, Note_on_c, 0, 62, 29
1, 42480, Note_on_c, 0, 66, 35
1, 42483, Control_c, 0, 64, 127
1, 42510, Note_on_c, 0, 81, 0
1, 42510, Note_on_c, 0, 83, 42
1, 42540, Note_on_c, 0, 83, 0
1, 42540, Note_on_c, 0, 81, 50
1, 42570, Note_on_c, 0, 81, 0
1, 42570, Note_on_c, 0, 83, 44
1, 42600, Note_on_c, 0, 83, 0
1, 42600, Note_on_c, 0, 81, 49
1, 42630, Note_on_c, 0, 81, 0
1, 42630, Note_on_c, 0, 83, 42
1, 42660, Note_on_c, 0, 83, 0
1, 42660, Note_on_c, 0, 81, 50
1, 42690, Note_on_c, 0, 81, 0
1, 42690, Note_on_c, 0, 83, 47
1, 42720, Note_on_c, 0, 83, 0
1, 42720, Note_on_c, 0, 66, 0
1, 42720, Note_on_c, 0, 62, 0
1, 42720, Note_on_c, 0, 60, 0
1, 42720, Note_on_c, 0, 79, 44
1, 42720, Note_on_c, 0, 67, 35
1, 42720, Note_on_c, 0, 59, 29
1, 42720, Note_on_c, 0, 62, 35
1, 42729, Control_c, 0, 64, 0
1, 42960, Note_on_c, 0, 62, 0
1, 42960, Note_on_c, 0, 79, 0
1, 42960, Note_on_c, 0, 67, 0
1, 42960, Note_on_c, 0, 59, 0
1, 43080, Note_on_c, 0, 74, 60
1, 43200, Tempo, 1339585
1, 43200, Note_on_c, 0, 74, 0
1, 43200, Note_on_c, 0, 79, 66
1, 43200, Note_on_c, 0, 59, 59
1, 43200, Note_on_c, 0, 62, 59
1, 43440, Tempo, 1304631
1, 43440, Note_on_c, 0, 62, 0
1, 43440, Note_on_c, 0, 59, 0
1, 43440, Note_on_c, 0, 79, 0
1, 43440, Note_on_c, 0, 57, 42
1, 43440, Note_on_c, 0, 60, 42
1, 43440, Note_on_c, 0, 63, 51
1, 43443, Note_on_c, 0, 78, 57
1, 43473, Note_on_c, 0, 78, 0
1, 43473, Note_on_c, 0, 79, 54
1, 43503, Note_on_c, 0, 79, 0
1, 43503, Note_on_c, 0, 78, 59
1, 43533, Note_on_c, 0, 78, 0
1, 43533, Note_on_c, 0, 79, 54
1, 43563, Note_on_c, 0, 79, 0
1, 43563, Note_on_c, 0, 78, 57
1, 43593, Note_on_c, 0, 78, 0
1, 43593, Note_on_c, 0, 79, 52
1, 43623, Note_on_c, 0, 79, 0
1, 43623, Note_on_c, 0, 78, 56
1, 43653, Note_on_c, 0, 78, 0
1, 43653, Note_on_c, 0, 79, 52
1, 43680, Tempo, 1339585
1, 43680, Note_on_c, 0, 57, 0
1, 43680, Note_on_c, 0, 63, 0
1, 43680, Note_on_c, 0, 60, 0
1, 43680, Note_on_c, 0, 76, 62
1, 43680, Note_on_c, 0, 55, 44
1, 43680, Note_on_c, 0, 59, 44
1, 43680, Note_on_c, 0, 64, 53
1, 43683, Note_on_c, 0, 79, 0
1, 43800, Note_on_c, 0, 76, 0
1, 43800, Note_on_c, 0, 83, 58
1, 43920, Tempo, 1293382
1, 43920, Note_on_c, 0, 83, 0
1, 43920, Note_on_c, 0, 81, 55
1, 43980, Note_on_c, 0, 81, 0
1, 43980, Note_on_c, 0, 79, 47
1, 44040, Note_on_c, 0, 79, 0
1, 44040, Note_on_c, 0, 78, 50
1, 44100, Tempo, 1442654
1, 44100, Note_on_c, 0, 78, 0
1, 44100, Note_on_c, 0, 76, 46
1, 44160, Tempo, 1339585
1, 44160, Note_on_c, 0, 76, 0
1, 44160, Note_on_c, 0, 64, 0
1, 44160, Note_on_c, 0, 55, 0
1, 44160, Note_on_c, 0, 59, 0
1, 44160, Note_on_c, 0, 74, 47
1, 44160, Note_on_c, 0, 62, 34
1, 44160, Note_on_c, 0, 66, 40
1, 44160, Note_on_c, 0, 57, 34
1, 44220, Note_on_c, 0, 74, 0
1, 44280, Note_on_c, 0, 78, 47
1, 44340, Note_on_c, 0, 78, 0
1, 44400, Note_on_c, 0, 57, 0
1, 44400, Note_on_c, 0, 66, 0
1, 44400, Note_on_c, 0, 62, 0
1, 44400, Note_on_c, 0, 81, 53
1, 44640, Tempo, 1389210
1, 44640, Note_on_c, 0, 62, 28
1, 44640, Note_on_c, 0, 66, 33
1, 44640, Note_on_c, 0, 57, 28
1, 44760, Note_on_c, 0, 81, 0
1, 44760, Note_on_c, 0, 80, 46
1, 44820, Tempo, 1339585
1, 44880, Note_on_c, 0, 80, 0
1, 44880, Note_on_c, 0, 57, 0
1, 44880, Note_on_c, 0, 66, 0
1, 44880, Note_on_c, 0, 62, 0
1, 44880, Note_on_c, 0, 79, 46
1, 45000, Note_on_c, 0, 79, 0
1, 45000, Note_on_c, 0, 78, 44
1, 45120, Tempo, 1293382
1, 45120, Note_on_c, 0, 78, 0
1, 45120, Note_on_c, 0, 83, 53
1, 45120, Note_on_c, 0, 57, 28
1, 45120, Note_on_c, 0, 62, 28
1, 45120, Note_on_c, 0, 64, 34
1, 45120, Control_c, 0, 64, 127
1, 45200, Note_on_c, 0, 83, 0
1, 45200, Note_on_c, 0, 79, 48
1, 45280, Note_on_c, 0, 79, 0
1, 45280, Note_on_c, 0, 76, 47
1, 45300, Tempo, 1339585
1, 45357, Note_on_c, 0, 76, 0
1, 45360, Note_on_c, 0, 57, 0
1, 45360, Note_on_c, 0, 62, 0
1, 45360, Note_on_c, 0, 64, 0
1, 45360, Note_on_c, 0, 76, 50
1, 45374, Control_c, 0, 64, 0
1, 45390, Note_on_c, 0, 76, 0
1, 45390, Note_on_c, 0, 78, 45
1, 45399, Tempo, 1376462
1, 45408, Control_c, 0, 64, 127
1, 45420, Note_on_c, 0, 78, 0
1, 45420, Note_on_c, 0, 76, 50
1, 45447, Tempo, 1363946
1, 45450, Note_on_c, 0, 76, 0
1, 45450, Note_on_c, 0, 78, 45
1, 45471, Tempo, 1351656
1, 45480, Note_on_c, 0, 78, 0
1, 45480, Note_on_c, 0, 76, 50
1, 45495, Tempo, 1339585
1, 45510, Note_on_c, 0, 76, 0
1, 45510, Note_on_c, 0, 78, 45
1, 45540, Note_on_c, 0, 78, 0
1, 45540, Note_on_c, 0, 76, 50
1, 45543, Tempo, 1327727
1, 45567, Tempo, 1316078
1, 45570, Note_on_c, 0, 76, 0
1, 45570, Note_on_c, 0, 78, 45
1, 45591, Tempo, 1304631
1, 45600, Note_on_c, 0, 78, 0
1, 45600, Note_on_c, 0, 76, 50
1, 45600, Note_on_c, 0, 61, 28
1, 45600, Note_on_c, 0, 57, 28
1, 45600, Note_on_c, 0, 67, 34
1, 45630, Note_on_c, 0, 76, 0
1, 45630, Note_on_c, 0, 78, 45
1, 45639, Tempo, 1282325
1, 45660, Note_on_c, 0, 78, 0
1, 45660, Note_on_c, 0, 76, 50
1, 45687, Tempo, 1293382
1, 45690, Note_on_c, 0, 76, 0
1, 45690, Note_on_c, 0, 78, 44
1, 45720, Note_on_c, 0, 78, 0
1, 45720, Note_on_c, 0, 76, 50
1, 45735, Tempo, 1304631
1, 45750, Note_on_c, 0, 76, 0
1, 45750, Note_on_c, 0, 78, 45
1, 45780, Note_on_c, 0, 78, 0
1, 45780, Note_on_c, 0, 76, 50
1, 45783, Tempo, 1316078
1, 45810, Note_on_c, 0, 76, 0
1, 45810, Note_on_c, 0, 78, 45
1, 45840, Note_on_c, 0, 78, 0
1, 45840, Note_on_c, 0, 67, 0
1, 45840, Note_on_c, 0, 57, 0
1, 45840, Note_on_c, 0, 61, 0
1, 45840, Note_on_c, 0, 76, 50
1, 45879, Tempo, 1316078
1, 45880, Note_on_c, 0, 76, 0
1, 45880, Note_on_c, 0, 78, 45
1, 45903, Tempo, 1327727
1, 45920, Note_on_c, 0, 78, 0
1, 45920, Note_on_c, 0, 76, 55
1, 45927, Tempo, 1339585
1, 45951, Tempo, 1351656
1, 45960, Note_on_c, 0, 76, 0
1, 45960, Note_on_c, 0, 74, 62
1, 45975, Tempo, 1363946
1, 45999, Tempo, 1376462
1, 46020, Note_on_c, 0, 74, 0
1, 46020, Note_on_c, 0, 76, 59
1, 46023, Tempo, 1389210
1, 46080, Tempo, 1327727
1, 46080, Note_on_c, 0, 76, 0
1, 46080, Note_on_c, 0, 74, 65
1, 46080, Note_on_c, 0, 62, 28
1, 46080, Note_on_c, 0, 66, 34
1, 46080, Control_c, 0, 64, 0
1, 46200, Note_on_c, 0, 74, 0
1, 46200, Note_on_c, 0, 73, 53
1, 46320, Note_on_c, 0, 73, 0
1, 46320, Note_on_c, 0, 74, 59
1, 46440, Note_on_c, 0, 74, 0
1, 46440, Note_on_c, 0, 76, 54
1, 46560, Note_on_c, 0, 76, 0
1, 46560, Note_on_c, 0, 66, 0
1, 46560, Note_on_c, 0, 62, 0
1, 46560, Note_on_c, 0, 74, 53
1, 46680, Note_on_c, 0, 74, 0
1, 46680, Note_on_c, 0, 72, 51
1, 46800, Note_on_c, 0, 72, 0
1, 46800, Note_on_c, 0, 71, 48
1, 46920, Note_on_c, 0, 71, 0
1, 46920, Note_on_c, 0, 70, 45
1, 47040, Tempo, 1351656
1, 47040, Note_on_c, 0, 70, 0
1, 47040, Text_t, "bdca426d104a26ac9dcb070447587523"
1, 47040, Control_c, 0, 91, 127
1, 47040, Note_on_c, 0, 71, 50
1, 47040, Note_on_c, 0, 55, 39
1, 47040, Note_on_c, 0, 62, 39
1, 47220, Tempo, 1219760
1, 47220, Note_on_c, 0, 71, 0
1, 47220, Note_on_c, 0, 74, 42
1, 47280, Tempo, 1316078
1, 47280, Note_on_c, 0, 74, 0
1, 47280, Note_on_c, 0, 55, 0
1, 47280, Note_on_c, 0, 72, 50
1, 47280, Note_on_c, 0, 57, 35
1, 47460, Note_on_c, 0, 57, 0
1, 47460, Note_on_c, 0, 72, 0
1, 47460, Note_on_c, 0, 71, 47
1, 47460, Note_on_c, 0, 55, 30
1, 47520, Note_on_c, 0, 55, 0
1, 47520, Note_on_c, 0, 71, 0
1, 47520, Note_on_c, 0, 69, 50
1, 47520, Note_on_c, 0, 54, 32
1, 47760, Note_on_c, 0, 54, 0
1, 47760, Note_on_c, 0, 69, 0
1, 47760, Note_on_c, 0, 71, 46
1, 47760, Note_on_c, 0, 55, 32
1, 47880, Tempo, 1415428
1, 48000, Tempo, 1316078
1, 48000, Note_on_c, 0, 55, 0
1, 48000, Note_on_c, 0, 71, 0
1, 48000, Note_on_c, 0, 62, 0
1, 48000, Note_on_c, 0, 72, 50
1, 48000, Note_on_c, 0, 57, 38
1, 48000, Note_on_c, 0, 62, 38
1, 48120, Tempo, 1351656
1, 48120, Note_on_c, 0, 72, 0
1, 48120, Note_on_c, 0, 74, 44
1, 48150, Note_on_c, 0, 74, 0
1, 48150, Note_on_c, 0, 72, 40
1, 48180, Note_on_c, 0, 72, 0
1, 48180, Note_on_c, 0, 71, 44
1, 48210, Note_on_c, 0, 71, 0
1, 48210, Note_on_c, 0, 72, 40
1, 48240, Tempo, 1304631
1, 48240, Note_on_c, 0, 72, 0
1, 48240, Note_on_c, 0, 57, 0
1, 48240, Note_on_c, 0, 76, 46
1, 48240, Note_on_c, 0, 60, 40
1, 48360, Tempo, 1339585
1, 48360, Note_on_c, 0, 60, 0
1, 48360, Note_on_c, 0, 76, 0
1, 48360, Note_on_c, 0, 74, 47
1, 48360, Note_on_c, 0, 59, 36
1, 48480, Tempo, 1293382
1, 48480, Note_on_c, 0, 59, 0
1, 48480, Note_on_c, 0, 74, 0
1, 48480, Note_on_c, 0, 72, 47
1, 48480, Note_on_c, 0, 57, 47
1, 48499, Tempo, 1316078
1, 48720, Note_on_c, 0, 57, 0
1, 48720, Note_on_c, 0, 72, 0
1, 48720, Note_on_c, 0, 71, 51
1, 48720, Note_on_c, 0, 55, 51
1, 48840, Tempo, 1500375
1, 48960, Tempo, 1415428
1, 48960, Note_on_c, 0, 55, 0
1, 48960, Note_on_c, 0, 71, 0
1, 48960, Note_on_c, 0, 62, 0
1, 48960, Note_on_c, 0, 67, 65
1, 48960, Note_on_c, 0, 72, 65
1, 48960, Note_on_c, 0, 52, 49
1, 48960, Note_on_c, 0, 64, 49
1, 49080, Note_on_c, 0, 64, 0
1, 49080, Note_on_c, 0, 67, 0
1, 49080, Note_on_c, 0, 72, 0
1, 49080, Note_on_c, 0, 52, 0
1, 49200, Note_on_c, 0, 71, 61
1, 49200, Note_on_c, 0, 67, 61
1, 49200, Note_on_c, 0, 50, 44
1, 49200, Note_on_c, 0, 62, 44
1, 49320, Note_on_c, 0, 62, 0
1, 49320, Note_on_c, 0, 71, 0
1, 49320, Note_on_c, 0, 67, 0
1, 49320, Note_on_c, 0, 50, 0
1, 49440, Note_on_c, 0, 76, 67
1, 49440, Note_on_c, 0, 67, 67
1, 49440, Note_on_c, 0, 60, 51
1, 49440, Note_on_c, 0, 48, 51
1, 49560, Note_on_c, 0, 48, 0
1, 49560, Note_on_c, 0, 76, 0
1, 49560, Note_on_c, 0, 67, 0
1, 49560, Note_on_c, 0, 60, 0
1, 49800, Tempo, 1304631
1, 49800, Note_on_c, 0, 74, 47
1, 49800, Note_on_c, 0, 67, 47
1, 49800, Note_on_c, 0, 59, 37
1, 49920, Tempo, 1282325
1, 49920, Note_on_c, 0, 59, 0
1, 49920, Note_on_c, 0, 67, 0
1, 49920, Note_on_c, 0, 74, 0
1, 49920, Note_on_c, 0, 72, 50
1, 49920, Note_on_c, 0, 54, 40
1, 49954, Control_c, 0, 64, 127
1, 50040, Tempo, 1351656
1, 50040, Note_on_c, 0, 72, 0
1, 50040, Note_on_c, 0, 69, 42
1, 50160, Tempo, 1304631
1, 50160, Note_on_c, 0, 69, 0
1, 50160, Note_on_c, 0, 54, 0
1, 50160, Note_on_c, 0, 71, 50
1, 50160, Note_on_c, 0, 55, 35
1, 50170, Control_c, 0, 64, 0
1, 50220, Control_c, 0, 64, 127
1, 50280, Tempo, 1500375
1, 50280, Note_on_c, 0, 71, 0
1, 50280, Note_on_c, 0, 67, 42
1, 50400, Tempo, 1415428
1, 50400, Note_on_c, 0, 67, 0
1, 50400, Note_on_c, 0, 55, 0
1, 50400, Note_on_c, 0, 67, 50
1, 50400, Note_on_c, 0, 71, 50
1, 50400, Note_on_c, 0, 50, 39
1, 50407, Note_on_c, 0, 55, 40
1, 50411, Control_c, 0, 64, 0
1, 50640, Note_on_c, 0, 71, 0
1, 50640, Note_on_c, 0, 67, 0
1, 50640, Note_on_c, 0, 66, 44
1, 50640, Note_on_c, 0, 69, 44
1, 50640, Note_on_c, 0, 54, 35
1, 50647, Note_on_c, 0, 55, 0
1, 50880, Tempo, 1327727
1, 50880, Note_on_c, 0, 69, 0
1, 50880, Note_on_c, 0, 50, 0
1, 50880, Note_on_c, 0, 66, 0
1, 50880, Note_on_c, 0, 54, 0
1, 50880, Control_c, 0, 91, 127
1, 50880, Note_on_c, 0, 71, 50
1, 50880, Text_t, "bdca426d104a26ac9dcb070447587523"
1, 50880, Note_on_c, 0, 62, 39
1, 50880, Note_on_c, 0, 55, 39
1, 51000, Note_on_c, 0, 71, 0
1, 51000, Note_on_c, 0, 72, 44
1, 51030, Note_on_c, 0, 72, 0
1, 51030, Note_on_c, 0, 71, 40
1, 51060, Tempo, 1229760
1, 51060, Note_on_c, 0, 71, 0
1, 51060, Note_on_c, 0, 69, 44
1, 51090, Note_on_c, 0, 69, 0
1, 51090, Note_on_c, 0, 71, 40
1, 51120, Tempo, 1304631
1, 51120, Note_on_c, 0, 71, 0
1, 51120, Note_on_c, 0, 55, 0
1, 51120, Note_on_c, 0, 72, 48
1, 51120, Note_on_c, 0, 57, 35
1, 51300, Note_on_c, 0, 57, 0
1, 51300, Note_on_c, 0, 72, 0
1, 51300, Note_on_c, 0, 71, 47
1, 51300, Note_on_c, 0, 55, 30
1, 51360, Note_on_c, 0, 55, 0
1, 51360, Note_on_c, 0, 71, 0
1, 51360, Note_on_c, 0, 69, 50
1, 51360, Note_on_c, 0, 54, 32
1, 51600, Note_on_c, 0, 54, 0
1, 51600, Note_on_c, 0, 69, 0
1, 51600, Note_on_c, 0, 71, 46
1, 51600, Note_on_c, 0, 56, 32
1, 51720, Tempo, 1415428
1, 51840, Tempo, 1316078
1, 51840, Note_on_c, 0, 56, 0
1, 51840, Note_on_c, 0, 71, 0
1, 51840, Note_on_c, 0, 62, 0
1, 51840, Note_on_c, 0, 72, 50
1, 51840, Note_on_c, 0, 62, 38
1, 51840, Note_on_c, 0, 57, 38
1, 51960, Note_on_c, 0, 72, 0
1, 51960, Note_on_c, 0, 73, 50
1, 52080, Note_on_c, 0, 73, 0
1, 52080, Note_on_c, 0, 57, 0
1, 52080, Note_on_c, 0, 76, 46
1, 52080, Note_on_c, 0, 54, 33
1, 52200, Note_on_c, 0, 76, 0
1, 52200, Note_on_c, 0, 74, 49
1, 52320, Tempo, 1293382
1, 52320, Note_on_c, 0, 74, 0
1, 52320, Note_on_c, 0, 54, 0
1, 52320, Note_on_c, 0, 72, 47
1, 52320, Note_on_c, 0, 55, 39
1, 52440, Tempo, 1351656
1, 52500, Note_on_c, 0, 72, 0
1, 52500, Note_on_c, 0, 74, 47
1, 52530, Note_on_c, 0, 74, 0
1, 52530, Note_on_c, 0, 72, 47
1, 52560, Tempo, 1316078
1, 52560, Note_on_c, 0, 72, 0
1, 52560, Note_on_c, 0, 71, 51
1, 52680, Tempo, 1500375
1, 52800, Tempo, 1415428
1, 52800, Note_on_c, 0, 71, 0
1, 52800, Note_on_c, 0, 55, 0
1, 52800, Note_on_c, 0, 62, 0
1, 52800, Note_on_c, 0, 67, 65
1, 52800, Note_on_c, 0, 72, 65
1, 52800, Note_on_c, 0, 52, 49
1, 52800, Note_on_c, 0, 64, 49
1, 52920, Note_on_c, 0, 64, 0
1, 52920, Note_on_c, 0, 67, 0
1, 52920, Note_on_c, 0, 72, 0
1, 52920, Note_on_c, 0, 52, 0
1, 53040, Note_on_c, 0, 71, 61
1, 53040, Note_on_c, 0, 67, 61
1, 53040, Note_on_c, 0, 50, 44
1, 53040, Note_on_c, 0, 62, 44
1, 53160, Note_on_c, 0, 62, 0
1, 53160, Note_on_c, 0, 71, 0
1, 53160, Note_on_c, 0, 67, 0
1, 53160, Note_on_c, 0, 50, 0
1, 53280, Tempo, 1376462
1, 53280, Note_on_c, 0, 67, 67
1, 53280, Note_on_c, 0, 76, 67
1, 53280, Note_on_c, 0, 60, 51
1, 53280, Note_on_c, 0, 48, 51
1, 53400, Note_on_c, 0, 76, 0
1, 53400, Note_on_c, 0, 78, 62
1, 53520, Note_on_c, 0, 78, 0
1, 53520, Note_on_c, 0, 48, 0
1, 53520, Note_on_c, 0, 60, 0
1, 53520, Note_on_c, 0, 79, 65
1, 53640, Tempo, 1579363
1, 53640, Note_on_c, 0, 79, 0
1, 53640, Note_on_c, 0, 67, 0
1, 53640, Note_on_c, 0, 72, 47
1, 53640, Note_on_c, 0, 64, 37
1, 53640, Note_on_c, 0, 60, 37
1, 53760, Tempo, 1428912
1, 53760, Note_on_c, 0, 60, 0
1, 53760, Note_on_c, 0, 64, 0
1, 53760, Note_on_c, 0, 72, 0
1, 53760, Note_on_c, 0, 71, 50
1, 53760, Note_on_c, 0, 62, 40
1, 53760, Note_on_c, 0, 67, 40
1, 54000, Note_on_c, 0, 67, 0
1, 54000, Note_on_c, 0, 71, 0
1, 54000, Note_on_c, 0, 69, 47
1, 54000, Note_on_c, 0, 66, 35
1, 54020, Control_c, 0, 64, 127
1, 54027, Note_on_c, 0, 69, 0
1, 54027, Note_on_c, 0, 71, 47
1, 54053, Note_on_c, 0, 71, 0
1, 54053, Note_on_c, 0, 69, 47
1, 54079, Note_on_c, 0, 71, 47
1, 54080, Note_on_c, 0, 69, 0
1, 54106, Note_on_c, 0, 71, 0
1, 54106, Note_on_c, 0, 69, 45
1, 54120, Tempo, 1562907
1, 54132, Note_on_c, 0, 69, 0
1, 54132, Note_on_c, 0, 71, 45
1, 54159, Note_on_c, 0, 71, 0
1, 54159, Note_on_c, 0, 69, 45
1, 54182, Tempo, 1974334
1, 54185, Note_on_c, 0, 69, 0
1, 54185, Note_on_c, 0, 67, 45
1, 54211, Note_on_c, 0, 69, 45
1, 54212, Note_on_c, 0, 67, 0
1, 54240, Tempo, 1389210
1, 54240, Note_on_c, 0, 62, 0
1, 54240, Note_on_c, 0, 66, 0
1, 54240, Note_on_c, 0, 69, 0
1, 54240, Note_on_c, 0, 67, 45
1, 54240, Note_on_c, 0, 55, 39
1, 54247, Control_c, 0, 64, 0
1, 54275, Control_c, 0, 64, 127
1, 54360, Tempo, 1363946
1, 54360, Note_on_c, 0, 59, 28
1, 54480, Tempo, 1316078
1, 54480, Note_on_c, 0, 59, 0
1, 54480, Note_on_c, 0, 62, 32
1, 54600, Tempo, 1389210
1, 54600, Note_on_c, 0, 62, 0
1, 54600, Note_on_c, 0, 59, 27
1, 54720, Tempo, 1351656
1, 54720, Note_on_c, 0, 59, 0
1, 54720, Note_on_c, 0, 55, 0
1, 54720, Note_on_c, 0, 67, 0
1, 54720, Note_on_c, 0, 71, 45
1, 54720, Note_on_c, 0, 48, 39
1, 54720, Control_c, 0, 64, 0
1, 54780, Tempo, 1316078
1, 54833, Control_c, 0, 64, 127
1, 54840, Note_on_c, 0, 52, 27
1, 54960, Note_on_c, 0, 52, 0
1, 54960, Note_on_c, 0, 71, 0
1, 54960, Note_on_c, 0, 69, 45
1, 54960, Note_on_c, 0, 57, 32
1, 55080, Tempo, 1351656
1, 55080, Note_on_c, 0, 57, 0
1, 55080, Note_on_c, 0, 52, 28
1, 55200, Tempo, 1304631
1, 55200, Note_on_c, 0, 52, 0
1, 55200, Note_on_c, 0, 69, 0
1, 55200, Note_on_c, 0, 48, 0
1, 55200, Note_on_c, 0, 67, 45
1, 55200, Note_on_c, 0, 50, 39
1, 55212, Control_c, 0, 64, 0
1, 55285, Control_c, 0, 64, 127
1, 55320, Note_on_c, 0, 67, 0
1, 55320, Note_on_c, 0, 66, 41
1, 55320, Note_on_c, 0, 60, 29
1, 55436, Note_on_c, 0, 66, 0
1, 55440, Note_on_c, 0, 60, 0
1, 55440, Note_on_c, 0, 66, 45
1, 55440, Note_on_c, 0, 57, 32
1, 55560, Tempo, 1402197
1, 55560, Note_on_c, 0, 57, 0
1, 55560, Note_on_c, 0, 66, 0
1, 55560, Note_on_c, 0, 62, 41
1, 55560, Note_on_c, 0, 60, 29
1, 55680, Tempo, 1304631
1, 55680, Note_on_c, 0, 60, 0
1, 55680, Note_on_c, 0, 62, 0
1, 55680, Note_on_c, 0, 50, 0
1, 55680, Note_on_c, 0, 71, 51
1, 55680, Note_on_c, 0, 55, 39
1, 55680, Control_c, 0, 64, 0
1, 55728, Control_c, 0, 64, 127
1, 55800, Note_on_c, 0, 59, 29
1, 55920, Note_on_c, 0, 59, 0
1, 55920, Note_on_c, 0, 62, 32
1, 56040, Tempo, 1363946
1, 56040, Note_on_c, 0, 62, 0
1, 56040, Note_on_c, 0, 59, 29
1, 56160, Tempo, 1304631
1, 56160, Note_on_c, 0, 59, 0
1, 56160, Note_on_c, 0, 55, 0
1, 56160, Note_on_c, 0, 71, 0
1, 56160, Note_on_c, 0, 67, 45
1, 56160, Note_on_c, 0, 52, 39
1, 56175, Control_c, 0, 64, 0
1, 56223, Control_c, 0, 64, 127
1, 56280, Note_on_c, 0, 55, 29
1, 56400, Note_on_c, 0, 55, 0
1, 56400, Note_on_c, 0, 59, 32
1, 56520, Note_on_c, 0, 59, 0
1, 56520, Note_on_c, 0, 67, 0
1, 56520, Note_on_c, 0, 69, 40
1, 56520, Note_on_c, 0, 55, 30
1, 56550, Note_on_c, 0, 69, 0
1, 56550, Note_on_c, 0, 67, 35
1, 56580, Tempo, 1485516
1, 56580, Note_on_c, 0, 67, 0
1, 56580, Note_on_c, 0, 66, 40
1, 56610, Note_on_c, 0, 66, 0
1, 56610, Note_on_c, 0, 67, 36
1, 56640, Tempo, 1316078
1, 56640, Note_on_c, 0, 67, 0
1, 56640, Note_on_c, 0, 55, 0
1, 56640, Note_on_c, 0, 52, 0
1, 56640, Note_on_c, 0, 71, 45
1, 56640, Note_on_c, 0, 48, 39
1, 56645, Control_c, 0, 64, 0
1, 56688, Control_c, 0, 64, 127
1, 56760, Note_on_c, 0, 71, 0
1, 56760, Note_on_c, 0, 69, 45
1, 56760, Note_on_c, 0, 52, 29
1, 56877, Note_on_c, 0, 69, 0
1, 56880, Note_on_c, 0, 52, 0
1, 56880, Note_on_c, 0, 69, 45
1, 56880, Note_on_c, 0, 57, 32
1, 57000, Tempo, 1351656
1, 57000, Note_on_c, 0, 57, 0
1, 57000, Note_on_c, 0, 52, 29
1, 57120, Tempo, 1304631
1, 57120, Note_on_c, 0, 52, 0
1, 57120, Note_on_c, 0, 69, 0
1, 57120, Note_on_c, 0, 48, 0
1, 57120, Note_on_c, 0, 67, 45
1, 57120, Note_on_c, 0, 50, 39
1, 57130, Control_c, 0, 64, 0
1, 57177, Control_c, 0, 64, 127
1, 57240, Note_on_c, 0, 67, 0
1, 57240, Note_on_c, 0, 66, 41
1, 57240, Note_on_c, 0, 60, 30
1, 57358, Note_on_c, 0, 66, 0
1, 57360, Note_on_c, 0, 60, 0
1, 57360, Note_on_c, 0, 66, 45
1, 57360, Note_on_c, 0, 57, 32
1, 57480, Tempo, 1562907
1, 57480, Note_on_c, 0, 57, 0
1, 57480, Note_on_c, 0, 66, 0
1, 57480, Note_on_c, 0, 62, 43
1, 57480, Note_on_c, 0, 60, 29
1, 57600, Tempo, 1304631
1, 57600, Note_on_c, 0, 60, 0
1, 57600, Note_on_c, 0, 62, 0
1, 57600, Note_on_c, 0, 50, 0
1, 57600, Note_on_c, 0, 67, 54
1, 57600, Note_on_c, 0, 59, 38
1, 57600, Note_on_c, 0, 55, 38
1, 57602, Control_c, 0, 64, 0
1, 58080, Note_on_c, 0, 55, 0
1, 58080, Note_on_c, 0, 59, 0
1, 58080, Note_on_c, 0, 67, 0
1, 58080, Note_on_c, 0, 79, 69
1, 58080, Note_on_c, 0, 73, 58
1, 58080, Note_on_c, 0, 67, 58
1, 58080, Note_on_c, 0, 51, 51
1, 58080, Note_on_c, 0, 63, 61
1, 58160, Control_c, 0, 64, 127
1, 58308, Note_on_c, 0, 63, 0
1, 58308, Note_on_c, 0, 67, 0
1, 58308, Note_on_c, 0, 79, 0
1, 58308, Note_on_c, 0, 73, 0
1, 58308, Note_on_c, 0, 51, 0
1, 58320, Note_on_c, 0, 73, 56
1, 58320, Note_on_c, 0, 79, 66
1, 58320, Note_on_c, 0, 67, 56
1, 58320, Note_on_c, 0, 51, 48
1, 58320, Note_on_c, 0, 63, 57
1, 58548, Note_on_c, 0, 63, 0
1, 58548, Note_on_c, 0, 67, 0
1, 58548, Note_on_c, 0, 73, 0
1, 58548, Note_on_c, 0, 79, 0
1, 58548, Note_on_c, 0, 51, 0
1, 58560, Tempo, 1351656
1, 58560, Note_on_c, 0, 73, 59
1, 58560, Note_on_c, 0, 79, 70
1, 58560, Note_on_c, 0, 67, 59
1, 58560, Note_on_c, 0, 51, 51
1, 58560, Note_on_c, 0, 63, 61
1, 58934, Control_c, 0, 64, 0
1, 58992, Note_on_c, 0, 63, 0
1, 58992, Note_on_c, 0, 67, 0
1, 58992, Note_on_c, 0, 73, 0
1, 58992, Note_on_c, 0, 79, 0
1, 58992, Note_on_c, 0, 51, 0
1, 59040, Tempo, 1304631
1, 59040, Note_on_c, 0, 78, 40
1, 59040, Note_on_c, 0, 86, 48
1, 59040, Note_on_c, 0, 69, 37
1, 59040, Note_on_c, 0, 62, 31
1, 59232, Note_on_c, 0, 62, 0
1, 59232, Note_on_c, 0, 78, 0
1, 59232, Note_on_c, 0, 86, 0
1, 59232, Note_on_c, 0, 69, 0
1, 59280, Note_on_c, 0, 86, 45
1, 59280, Note_on_c, 0, 78, 38
1, 59280, Note_on_c, 0, 69, 35
1, 59280, Note_on_c, 0, 62, 29
1, 59472, Note_on_c, 0, 62, 0
1, 59472, Note_on_c, 0, 86, 0
1, 59472, Note_on_c, 0, 78, 0
1, 59472, Note_on_c, 0, 69, 0
1, 59520, Note_on_c, 0, 86, 48
1, 59520, Note_on_c, 0, 78, 40
1, 59520, Note_on_c, 0, 62, 31
1, 59520, Note_on_c, 0, 69, 37
1, 60000, Note_on_c, 0, 69, 0
1, 60000, Note_on_c, 0, 86, 0
1, 60000, Note_on_c, 0, 78, 0
1, 60000, Note_on_c, 0, 62, 0
1, 60240, Tempo, 1239926
1, 60240, Note_on_c, 0, 71, 48
1, 60247, Control_c, 0, 64, 127
1, 60270, Note_on_c, 0, 71, 0
1, 60270, Note_on_c, 0, 72, 44
1, 60300, Note_on_c, 0, 72, 0
1, 60300, Note_on_c, 0, 71, 48
1, 60330, Note_on_c, 0, 71, 0
1, 60330, Note_on_c, 0, 69, 44
1, 60360, Note_on_c, 0, 69, 0
1, 60360, Note_on_c, 0, 71, 50
1, 60420, Tempo, 1339585
1, 60420, Note_on_c, 0, 71, 0
1, 60420, Note_on_c, 0, 72, 45
1, 60480, Tempo, 1304631
1, 60480, Note_on_c, 0, 72, 0
1, 60480, Note_on_c, 0, 74, 54
1, 60480, Note_on_c, 0, 55, 34
1, 60498, Control_c, 0, 64, 0
1, 60539, Control_c, 0, 64, 127
1, 60600, Note_on_c, 0, 55, 0
1, 60600, Note_on_c, 0, 59, 29
1, 60720, Note_on_c, 0, 59, 0
1, 60720, Note_on_c, 0, 74, 0
1, 60720, Note_on_c, 0, 74, 48
1, 60720, Note_on_c, 0, 62, 29
1, 60840, Note_on_c, 0, 62, 0
1, 60840, Note_on_c, 0, 59, 29
1, 60960, Note_on_c, 0, 59, 0
1, 60960, Note_on_c, 0, 55, 34
1, 60968, Control_c, 0, 64, 0
1, 60981, Control_c, 0, 64, 127
1, 61080, Note_on_c, 0, 55, 0
1, 61080, Note_on_c, 0, 74, 0
1, 61080, Note_on_c, 0, 74, 48
1, 61080, Note_on_c, 0, 59, 30
1, 61140, Tempo, 1260769
1, 61200, Note_on_c, 0, 59, 0
1, 61200, Note_on_c, 0, 74, 0
1, 61200, Note_on_c, 0, 74, 50
1, 61200, Note_on_c, 0, 62, 30
1, 61230, Note_on_c, 0, 74, 0
1, 61230, Note_on_c, 0, 76, 44
1, 61260, Note_on_c, 0, 76, 0
1, 61260, Note_on_c, 0, 74, 46
1, 61290, Note_on_c, 0, 74, 0
1, 61290, Note_on_c, 0, 73, 46
1, 61320, Tempo, 1363946
1, 61320, Note_on_c, 0, 73, 0
1, 61320, Note_on_c, 0, 62, 0
1, 61320, Note_on_c, 0, 74, 53
1, 61320, Note_on_c, 0, 59, 30
1, 61380, Note_on_c, 0, 74, 0
1, 61380, Note_on_c, 0, 76, 43
1, 61440, Tempo, 1304631
1, 61440, Note_on_c, 0, 76, 0
1, 61440, Note_on_c, 0, 59, 0
1, 61440, Note_on_c, 0, 74, 53
1, 61440, Note_on_c, 0, 55, 34
1, 61458, Control_c, 0, 64, 0
1, 61493, Control_c, 0, 64, 127
1, 61560, Note_on_c, 0, 55, 0
1, 61560, Note_on_c, 0, 74, 0
1, 61560, Note_on_c, 0, 72, 48
1, 61560, Note_on_c, 0, 57, 31
1, 61680, Note_on_c, 0, 57, 0
1, 61680, Note_on_c, 0, 72, 0
1, 61680, Note_on_c, 0, 72, 48
1, 61680, Note_on_c, 0, 64, 31
1, 61800, Note_on_c, 0, 64, 0
1, 61800, Note_on_c, 0, 57, 31
1, 61920, Note_on_c, 0, 57, 0
1, 61920, Note_on_c, 0, 55, 34
1, 61920, Control_c, 0, 64, 0
1, 62040, Note_on_c, 0, 55, 0
1, 62040, Note_on_c, 0, 72, 0
1, 62040, Note_on_c, 0, 72, 45
1, 62040, Note_on_c, 0, 57, 30
1, 62100, Note_on_c, 0, 72, 0
1, 62160, Note_on_c, 0, 57, 0
1, 62160, Note_on_c, 0, 71, 49
1, 62160, Note_on_c, 0, 64, 30
1, 62220, Note_on_c, 0, 71, 0
1, 62280, Tempo, 1402197
1, 62280, Note_on_c, 0, 64, 0
1, 62280, Note_on_c, 0, 69, 45
1, 62280, Note_on_c, 0, 57, 30
1, 62340, Note_on_c, 0, 69, 0
1, 62400, Tempo, 1304631
1, 62400, Note_on_c, 0, 57, 0
1, 62400, Note_on_c, 0, 69, 51
1, 62400, Note_on_c, 0, 54, 34
1, 62411, Control_c, 0, 64, 127
1, 62520, Note_on_c, 0, 54, 0
1, 62520, Note_on_c, 0, 69, 0
1, 62520, Note_on_c, 0, 74, 46
1, 62520, Note_on_c, 0, 57, 31
1, 62637, Note_on_c, 0, 74, 0
1, 62640, Note_on_c, 0, 57, 0
1, 62640, Note_on_c, 0, 74, 46
1, 62640, Note_on_c, 0, 62, 31
1, 62760, Note_on_c, 0, 62, 0
1, 62760, Note_on_c, 0, 57, 31
1, 62880, Tempo, 1376462
1, 62880, Note_on_c, 0, 57, 0
1, 62880, Note_on_c, 0, 52, 34
1, 62890, Control_c, 0, 64, 0
1, 62930, Control_c, 0, 64, 127
1, 63000, Tempo, 1293382
1, 63000, Note_on_c, 0, 52, 0
1, 63000, Note_on_c, 0, 74, 0
1, 63000, Note_on_c, 0, 76, 48
1, 63000, Note_on_c, 0, 57, 31
1, 63060, Note_on_c, 0, 76, 0
1, 63060, Note_on_c, 0, 74, 44
1, 63120, Note_on_c, 0, 74, 0
1, 63120, Note_on_c, 0, 57, 0
1, 63120, Note_on_c, 0, 74, 48
1, 63120, Note_on_c, 0, 60, 31
1, 63180, Note_on_c, 0, 74, 0
1, 63180, Note_on_c, 0, 72, 44
1, 63240, Note_on_c, 0, 72, 0
1, 63240, Note_on_c, 0, 60, 0
1, 63240, Note_on_c, 0, 71, 44
1, 63240, Note_on_c, 0, 57, 28
1, 63300, Tempo, 1562907
1, 63300, Note_on_c, 0, 71, 0
1, 63300, Note_on_c, 0, 72, 44
1, 63360, Tempo, 1339585
1, 63360, Note_on_c, 0, 72, 0
1, 63360, Note_on_c, 0, 57, 0
1, 63360, Note_on_c, 0, 72, 49
1, 63360, Note_on_c, 0, 51, 31
1, 63360, Control_c, 0, 64, 0
1, 63411, Control_c, 0, 64, 127
1, 63480, Tempo, 1293382
1, 63480, Note_on_c, 0, 51, 0
1, 63480, Note_on_c, 0, 72, 0
1, 63480, Note_on_c, 0, 71, 45
1, 63480, Note_on_c, 0, 54, 32
1, 63597, Note_on_c, 0, 71, 0
1, 63600, Note_on_c, 0, 54, 0
1, 63600, Note_on_c, 0, 71, 48
1, 63600, Note_on_c, 0, 57, 32
1, 63720, Note_on_c, 0, 57, 0
1, 63720, Note_on_c, 0, 51, 32
1, 63840, Tempo, 1531003
1, 63840, Note_on_c, 0, 51, 0
1, 63840, Note_on_c, 0, 52, 34
1, 63856, Control_c, 0, 64, 0
1, 63897, Control_c, 0, 64, 127
1, 63900, Tempo, 1239926
1, 63900, Note_on_c, 0, 71, 0
1, 63900, Note_on_c, 0, 71, 44
1, 63930, Note_on_c, 0, 71, 0
1, 63930, Note_on_c, 0, 72, 44
1, 63960, Tempo, 1304631
1, 63960, Note_on_c, 0, 72, 0
1, 63960, Note_on_c, 0, 52, 0
1, 63960, Note_on_c, 0, 74, 48
1, 63960, Note_on_c, 0, 59, 32
1, 64020, Note_on_c, 0, 74, 0
1, 64068, Control_c, 0, 64, 0
1, 64080, Note_on_c, 0, 59, 0
1, 64080, Note_on_c, 0, 72, 46
1, 64080, Note_on_c, 0, 50, 32
1, 64140, Note_on_c, 0, 72, 0
1, 64200, Tempo, 1402197
1, 64200, Note_on_c, 0, 50, 0
1, 64200, Note_on_c, 0, 71, 46
1, 64200, Note_on_c, 0, 55, 32
1, 64260, Note_on_c, 0, 71, 0
1, 64320, Tempo, 1304631
1, 64320, Note_on_c, 0, 55, 0
1, 64320, Note_on_c, 0, 71, 51
1, 64320, Note_on_c, 0, 49, 34
1, 64327, Control_c, 0, 64, 127
1, 64440, Note_on_c, 0, 49, 0
1, 64440, Note_on_c, 0, 71, 0
1, 64440, Note_on_c, 0, 69, 46
1, 64440, Note_on_c, 0, 52, 27
1, 64560, Note_on_c, 0, 52, 0
1, 64560, Note_on_c, 0, 69, 0
1, 64560, Note_on_c, 0, 69, 46
1, 64560, Note_on_c, 0, 55, 31
1, 64620, Note_on_c, 0, 69, 0
1, 64680, Note_on_c, 0, 55, 0
1, 64680, Note_on_c, 0, 69, 48
1, 64680, Note_on_c, 0, 52, 28
1, 64740, Note_on_c, 0, 69, 0
1, 64800, Note_on_c, 0, 52, 0
1, 64800, Note_on_c, 0, 69, 48
1, 64800, Note_on_c, 0, 49, 34
1, 64811, Control_c, 0, 64, 0
1, 64863, Control_c, 0, 64, 127
1, 64920, Note_on_c, 0, 49, 0
1, 64920, Note_on_c, 0, 52, 29
1, 65040, Note_on_c, 0, 52, 0
1, 65040, Note_on_c, 0, 69, 0
1, 65040, Note_on_c, 0, 69, 48
1, 65040, Note_on_c, 0, 55, 32
1, 65160, Tempo, 1363946
1, 65160, Note_on_c, 0, 55, 0
1, 65160, Note_on_c, 0, 73, 48
1, 65160, Note_on_c, 0, 52, 29
1, 65200, Note_on_c, 0, 73, 0
1, 65200, Note_on_c, 0, 74, 48
1, 65220, Tempo, 1531003
1, 65220, Note_on_c, 0, 69, 0
1, 65240, Note_on_c, 0, 74, 0
1, 65240, Note_on_c, 0, 76, 48
1, 65280, Tempo, 1304631
1, 65280, Note_on_c, 0, 76, 0
1, 65280, Note_on_c, 0, 52, 0
1, 65280, Note_on_c, 0, 74, 53
1, 65280, Note_on_c, 0, 48, 34
1, 65280, Control_c, 0, 64, 0
1, 65319, Control_c, 0, 64, 127
1, 65400, Note_on_c, 0, 48, 0
1, 65400, Note_on_c, 0, 54, 26
1, 65520, Note_on_c, 0, 54, 0
1, 65520, Note_on_c, 0, 57, 29
1, 65640, Tempo, 1363946
1, 65640, Note_on_c, 0, 57, 0
1, 65640, Note_on_c, 0, 48, 25
1, 65760, Tempo, 1304631
1, 65760, Note_on_c, 0, 48, 0
1, 65760, Note_on_c, 0, 47, 34
1, 65771, Control_c, 0, 64, 0
1, 65806, Control_c, 0, 64, 127
1, 65880, Note_on_c, 0, 47, 0
1, 65880, Note_on_c, 0, 74, 0
1, 65880, Note_on_c, 0, 76, 52
1, 65880, Note_on_c, 0, 55, 26
1, 65940, Note_on_c, 0, 76, 0
1, 65940, Note_on_c, 0, 74, 48
1, 66000, Note_on_c, 0, 74, 0
1, 66000, Note_on_c, 0, 55, 0
1, 66000, Note_on_c, 0, 72, 51
1, 66000, Note_on_c, 0, 52, 29
1, 66120, Tempo, 1351656
1, 66120, Note_on_c, 0, 52, 0
1, 66120, Note_on_c, 0, 72, 0
1, 66120, Note_on_c, 0, 71, 48
1, 66120, Note_on_c, 0, 50, 26
1, 66237, Note_on_c, 0, 71, 0
1, 66240, Tempo, 1304631
1, 66240, Note_on_c, 0, 50, 0
1, 66240, Note_on_c, 0, 71, 53
1, 66240, Note_on_c, 0, 52, 33
1, 66240, Note_on_c, 0, 48, 33
1, 66240, Control_c, 0, 64, 0
1, 66360, Note_on_c, 0, 71, 0
1, 66360, Note_on_c, 0, 69, 45
1, 66480, Note_on_c, 0, 69, 0
1, 66480, Note_on_c, 0, 68, 50
1, 66600, Note_on_c, 0, 68, 0
1, 66600, Note_on_c, 0, 69, 45
1, 66720, Note_on_c, 0, 69, 0
1, 66720, Note_on_c, 0, 71, 48
1, 66840, Note_on_c, 0, 71, 0
1, 66840, Note_on_c, 0, 72, 44
1, 66960, Note_on_c, 0, 72, 0
1, 66960, Note_on_c, 0, 48, 0
1, 66960, Note_on_c, 0, 52, 0
1, 66960, Note_on_c, 0, 64, 42
1, 66960, Note_on_c, 0, 57, 32
1, 66960, Note_on_c, 0, 49, 32
1, 67080, Note_on_c, 0, 64, 0
1, 67080, Note_on_c, 0, 69, 42
1, 67200, Note_on_c, 0, 69, 0
1, 67200, Note_on_c, 0, 49, 0
1, 67200, Note_on_c, 0, 57, 0
1, 67200, Note_on_c, 0, 67, 48
1, 67200, Note_on_c, 0, 57, 35
1, 67200, Note_on_c, 0, 50, 35
1, 67320, Note_on_c, 0, 67, 0
1, 67320, Note_on_c, 0, 66, 45
1, 67440, Note_on_c, 0, 66, 0
1, 67440, Note_on_c, 0, 64, 41
1, 67560, Note_on_c, 0, 64, 0
1, 67560, Note_on_c, 0, 62, 41
1, 67680, Note_on_c, 0, 62, 0
1, 67680, Note_on_c, 0, 50, 0
1, 67680, Note_on_c, 0, 57, 0
1, 67680, Note_on_c, 0, 64, 42
1, 67800, Note_on_c, 0, 64, 0
1, 67800, Note_on_c, 0, 66, 44
1, 67920, Note_on_c, 0, 66, 0
1, 67920, Note_on_c, 0, 67, 47
1, 68040, Note_on_c, 0, 67, 0
1, 68040, Note_on_c, 0, 69, 49
1, 68160, Tempo, 1351656
1, 68160, Note_on_c, 0, 69, 0
1, 68160, Note_on_c, 0, 71, 50
1, 68160, Note_on_c, 0, 67, 36
1, 68164, Control_c, 0, 64, 127
1, 68280, Note_on_c, 0, 67, 0
1, 68280, Note_on_c, 0, 62, 29
1, 68340, Tempo, 1219760
1, 68340, Note_on_c, 0, 71, 0
1, 68340, Note_on_c, 0, 74, 42
1, 68400, Tempo, 1316078
1, 68400, Note_on_c, 0, 74, 0
1, 68400, Note_on_c, 0, 62, 0
1, 68400, Note_on_c, 0, 72, 50
1, 68400, Note_on_c, 0, 67, 33
1, 68410, Control_c, 0, 64, 0
1, 68428, Control_c, 0, 64, 127
1, 68520, Note_on_c, 0, 67, 0
1, 68520, Note_on_c, 0, 62, 29
1, 68580, Note_on_c, 0, 72, 0
1, 68580, Note_on_c, 0, 71, 47
1, 68640, Note_on_c, 0, 71, 0
1, 68640, Note_on_c, 0, 62, 0
1, 68640, Note_on_c, 0, 69, 50
1, 68640, Note_on_c, 0, 66, 36
1, 68652, Control_c, 0, 64, 0
1, 68688, Control_c, 0, 64, 127
1, 68760, Note_on_c, 0, 66, 0
1, 68760, Note_on_c, 0, 62, 28
1, 68880, Note_on_c, 0, 62, 0
1, 68880, Note_on_c, 0, 69, 0
1, 68880, Note_on_c, 0, 71, 46
1, 68880, Note_on_c, 0, 67, 32
1, 68883, Control_c, 0, 64, 0
1, 68916, Control_c, 0, 64, 127
1, 69000, Tempo, 1415428
1, 69000, Note_on_c, 0, 67, 0
1, 69000, Note_on_c, 0, 62, 28
1, 69120, Tempo, 1316078
1, 69120, Note_on_c, 0, 62, 0
1, 69120, Note_on_c, 0, 71, 0
1, 69120, Note_on_c, 0, 72, 50
1, 69120, Note_on_c, 0, 69, 36
1, 69134, Control_c, 0, 64, 0
1, 69200, Control_c, 0, 64, 127
1, 69240, Note_on_c, 0, 69, 0
1, 69240, Note_on_c, 0, 62, 28
1, 69360, Note_on_c, 0, 62, 0
1, 69360, Note_on_c, 0, 72, 0
1, 69360, Note_on_c, 0, 74, 46
1, 69360, Note_on_c, 0, 66, 31
1, 69366, Control_c, 0, 64, 0
1, 69406, Control_c, 0, 64, 127
1, 69480, Note_on_c, 0, 66, 0
1, 69480, Note_on_c, 0, 62, 28
1, 69600, Tempo, 1293382
1, 69600, Note_on_c, 0, 62, 0
1, 69600, Note_on_c, 0, 74, 0
1, 69600, Note_on_c, 0, 72, 47
1, 69600, Note_on_c, 0, 67, 36
1, 69617, Control_c, 0, 64, 0
1, 69619, Tempo, 1316078
1, 69697, Control_c, 0, 64, 127
1, 69720, Note_on_c, 0, 67, 0
1, 69720, Note_on_c, 0, 62, 29
1, 69840, Note_on_c, 0, 62, 0
1, 69840, Note_on_c, 0, 72, 0
1, 69840, Note_on_c, 0, 71, 51
1, 69840, Note_on_c, 0, 67, 33
1, 69847, Control_c, 0, 64, 0
1, 69915, Control_c, 0, 64, 127
1, 69960, Tempo, 1500375
1, 69960, Note_on_c, 0, 67, 0
1, 69960, Note_on_c, 0, 62, 29
1, 70080, Tempo, 1351656
1, 70080, Note_on_c, 0, 62, 0
1, 70080, Note_on_c, 0, 71, 0
1, 70080, Note_on_c, 0, 86, 45
1, 70080, Note_on_c, 0, 55, 38
1, 70080, Note_on_c, 0, 59, 45
1, 70080, Control_c, 0, 64, 0
1, 70110, Note_on_c, 0, 86, 0
1, 70110, Note_on_c, 0, 88, 40
1, 70121, Control_c, 0, 64, 127
1, 70140, Note_on_c, 0, 88, 0
1, 70140, Note_on_c, 0, 86, 45
1, 70170, Note_on_c, 0, 86, 0
1, 70170, Note_on_c, 0, 88, 41
1, 70200, Note_on_c, 0, 88, 0
1, 70200, Note_on_c, 0, 86, 45
1, 70230, Note_on_c, 0, 86, 0
1, 70230, Note_on_c, 0, 88, 40
1, 70260, Tempo, 1219760
1, 70260, Note_on_c, 0, 88, 0
1, 70260, Note_on_c, 0, 59, 0
1, 70260, Note_on_c, 0, 55, 0
1, 70260, Note_on_c, 0, 86, 45
1, 70260, Note_on_c, 0, 62, 37
1, 70290, Note_on_c, 0, 86, 0
1, 70290, Note_on_c, 0, 88, 39
1, 70320, Tempo, 1304631
1, 70320, Note_on_c, 0, 88, 0
1, 70320, Note_on_c, 0, 62, 0
1, 70320, Note_on_c, 0, 86, 45
1, 70320, Note_on_c, 0, 57, 38
1, 70320, Note_on_c, 0, 60, 45
1, 70324, Control_c, 0, 64, 0
1, 70342, Tempo, 1293382
1, 70350, Note_on_c, 0, 86, 0
1, 70350, Note_on_c, 0, 88, 40
1, 70352, Control_c, 0, 64, 127
1, 70365, Tempo, 1282325
1, 70380, Note_on_c, 0, 88, 0
1, 70380, Note_on_c, 0, 86, 45
1, 70396, Tempo, 1293382
1, 70410, Note_on_c, 0, 86, 0
1, 70410, Note_on_c, 0, 88, 40
1, 70419, Tempo, 1304631
1, 70440, Note_on_c, 0, 88, 0
1, 70440, Note_on_c, 0, 86, 45
1, 70464, Tempo, 1304631
1, 70470, Note_on_c, 0, 86, 0
1, 70470, Note_on_c, 0, 88, 40
1, 70500, Note_on_c, 0, 88, 0
1, 70500, Note_on_c, 0, 60, 0
1, 70500, Note_on_c, 0, 57, 0
1, 70500, Note_on_c, 0, 86, 45
1, 70500, Note_on_c, 0, 55, 35
1, 70500, Note_on_c, 0, 59, 42
1, 70502, Tempo, 1293382
1, 70530, Note_on_c, 0, 86, 0
1, 70530, Note_on_c, 0, 88, 41
1, 70533, Tempo, 1282325
1, 70548, Tempo, 1293382
1, 70556, Tempo, 1304631
1, 70560, Note_on_c, 0, 88, 0
1, 70560, Note_on_c, 0, 59, 0
1, 70560, Note_on_c, 0, 55, 0
1, 70560, Note_on_c, 0, 86, 45
1, 70560, Note_on_c, 0, 54, 38
1, 70560, Note_on_c, 0, 57, 45
1, 70563, Tempo, 1316078
1, 70569, Control_c, 0, 64, 0
1, 70590, Note_on_c, 0, 86, 0
1, 70590, Note_on_c, 0, 88, 40
1, 70604, Control_c, 0, 64, 127
1, 70620, Note_on_c, 0, 88, 0
1, 70620, Note_on_c, 0, 86, 45
1, 70624, Tempo, 1327727
1, 70632, Tempo, 1316078
1, 70640, Tempo, 1304631
1, 70647, Tempo, 1293382
1, 70650, Note_on_c, 0, 86, 0
1, 70650, Note_on_c, 0, 88, 40
1, 70655, Tempo, 1282325
1, 70662, Tempo, 1271456
1, 70680, Note_on_c, 0, 88, 0
1, 70680, Note_on_c, 0, 86, 45
1, 70710, Note_on_c, 0, 86, 0
1, 70710, Note_on_c, 0, 88, 41
1, 70731, Tempo, 1293382
1, 70740, Note_on_c, 0, 88, 0
1, 70740, Note_on_c, 0, 86, 45
1, 70770, Note_on_c, 0, 86, 0
1, 70770, Note_on_c, 0, 88, 40
1, 70800, Note_on_c, 0, 88, 0
1, 70800, Note_on_c, 0, 57, 0
1, 70800, Note_on_c, 0, 54, 0
1, 70800, Note_on_c, 0, 86, 45
1, 70800, Note_on_c, 0, 55, 34
1, 70800, Note_on_c, 0, 59, 41
1, 70814, Control_c, 0, 64, 0
1, 70815, Tempo, 1293382
1, 70830, Note_on_c, 0, 86, 0
1, 70830, Note_on_c, 0, 88, 40
1, 70854, Control_c, 0, 64, 127
1, 70860, Note_on_c, 0, 88, 0
1, 70860, Note_on_c, 0, 86, 45
1, 70890, Note_on_c, 0, 86, 0
1, 70890, Note_on_c, 0, 88, 41
1, 70920, Tempo, 1415428
1, 70920, Note_on_c, 0, 88, 0
1, 70920, Note_on_c, 0, 86, 45
1, 70921, Tempo, 1304631
1, 70944, Tempo, 1316078
1, 70950, Note_on_c, 0, 86, 0
1, 70950, Note_on_c, 0, 88, 40
1, 70967, Tempo, 1327727
1, 70980, Note_on_c, 0, 88, 0
1, 70980, Note_on_c, 0, 86, 45
1, 70982, Tempo, 1339585
1, 71010, Note_on_c, 0, 86, 0
1, 71010, Note_on_c, 0, 88, 41
1, 71036, Tempo, 1304631
1, 71040, Tempo, 1316078
1, 71040, Note_on_c, 0, 88, 0
1, 71040, Note_on_c, 0, 59, 0
1, 71040, Note_on_c, 0, 55, 0
1, 71040, Note_on_c, 0, 86, 45
1, 71040, Note_on_c, 0, 57, 38
1, 71040, Note_on_c, 0, 60, 45
1, 71051, Control_c, 0, 64, 0
1, 71070, Note_on_c, 0, 86, 0
1, 71070, Note_on_c, 0, 88, 42
1, 71089, Control_c, 0, 64, 127
1, 71097, Tempo, 1282325
1, 71100, Note_on_c, 0, 88, 0
1, 71100, Note_on_c, 0, 86, 45
1, 71130, Note_on_c, 0, 86, 0
1, 71130, Note_on_c, 0, 88, 41
1, 71150, Tempo, 1327727
1, 71160, Note_on_c, 0, 88, 0
1, 71160, Note_on_c, 0, 86, 44
1, 71190, Note_on_c, 0, 86, 0
1, 71190, Note_on_c, 0, 88, 38
1, 71220, Note_on_c, 0, 88, 0
1, 71220, Note_on_c, 0, 86, 44
1, 71234, Tempo, 1293382
1, 71250, Note_on_c, 0, 86, 0
1, 71250, Note_on_c, 0, 88, 39
1, 71280, Note_on_c, 0, 88, 0
1, 71280, Note_on_c, 0, 60, 0
1, 71280, Note_on_c, 0, 57, 0
1, 71280, Note_on_c, 0, 86, 43
1, 71280, Note_on_c, 0, 59, 34
1, 71280, Note_on_c, 0, 62, 41
1, 71292, Control_c, 0, 64, 0
1, 71295, Tempo, 1327727
1, 71310, Note_on_c, 0, 86, 0
1, 71310, Note_on_c, 0, 88, 38
1, 71320, Control_c, 0, 64, 127
1, 71340, Note_on_c, 0, 88, 0
1, 71340, Note_on_c, 0, 86, 42
1, 71363, Tempo, 1293382
1, 71370, Note_on_c, 0, 86, 0
1, 71370, Note_on_c, 0, 88, 38
1, 71400, Note_on_c, 0, 88, 0
1, 71400, Note_on_c, 0, 86, 42
1, 71430, Note_on_c, 0, 86, 0
1, 71430, Note_on_c, 0, 88, 39
1, 71460, Note_on_c, 0, 88, 0
1, 71460, Note_on_c, 0, 86, 43
1, 71485, Tempo, 1304631
1, 71490, Note_on_c, 0, 86, 0
1, 71490, Note_on_c, 0, 88, 39
1, 71520, Tempo, 1293382
1, 71520, Note_on_c, 0, 88, 0
1, 71520, Note_on_c, 0, 62, 0
1, 71520, Note_on_c, 0, 59, 0
1, 71520, Note_on_c, 0, 86, 43
1, 71520, Note_on_c, 0, 57, 35
1, 71520, Note_on_c, 0, 60, 42
1, 71531, Tempo, 1271456
1, 71531, Control_c, 0, 64, 0
1, 71539, Tempo, 1316078
1, 71550, Note_on_c, 0, 86, 0
1, 71550, Note_on_c, 0, 88, 38
1, 71563, Control_c, 0, 64, 127
1, 71580, Note_on_c, 0, 88, 0
1, 71580, Note_on_c, 0, 86, 43
1, 71584, Tempo, 1339585
1, 71610, Note_on_c, 0, 86, 0
1, 71610, Note_on_c, 0, 88, 38
1, 71640, Note_on_c, 0, 88, 0
1, 71640, Note_on_c, 0, 86, 43
1, 71653, Tempo, 1293382
1, 71670, Note_on_c, 0, 86, 0
1, 71670, Note_on_c, 0, 88, 38
1, 71700, Note_on_c, 0, 88, 0
1, 71700, Note_on_c, 0, 86, 43
1, 71730, Note_on_c, 0, 86, 0
1, 71730, Note_on_c, 0, 88, 39
1, 71744, Tempo, 1316078
1, 71760, Note_on_c, 0, 88, 0
1, 71760, Note_on_c, 0, 60, 0
1, 71760, Note_on_c, 0, 57, 0
1, 71760, Note_on_c, 0, 86, 43
1, 71760, Note_on_c, 0, 55, 38
1, 71760, Note_on_c, 0, 59, 45
1, 71771, Control_c, 0, 64, 0
1, 71800, Note_on_c, 0, 86, 0
1, 71800, Note_on_c, 0, 88, 45
1, 71820, Control_c, 0, 64, 127
1, 71840, Note_on_c, 0, 88, 0
1, 71840, Note_on_c, 0, 86, 52
1, 71880, Tempo, 1376462
1, 71880, Note_on_c, 0, 86, 0
1, 71880, Note_on_c, 0, 85, 58
1, 71940, Note_on_c, 0, 85, 0
1, 71940, Note_on_c, 0, 86, 54
1, 71983, Control_c, 0, 64, 0
1, 72000, Tempo, 1339585
1, 72000, Note_on_c, 0, 86, 0
1, 72000, Note_on_c, 0, 59, 0
1, 72000, Note_on_c, 0, 55, 0
1, 72000, Note_on_c, 0, 79, 66
1, 72000, Note_on_c, 0, 67, 56
1, 72000, Note_on_c, 0, 59, 59
1, 72000, Note_on_c, 0, 62, 59
1, 72240, Tempo, 1304631
1, 72240, Note_on_c, 0, 62, 0
1, 72240, Note_on_c, 0, 79, 0
1, 72240, Note_on_c, 0, 67, 0
1, 72240, Note_on_c, 0, 59, 0
1, 72240, Note_on_c, 0, 78, 60
1, 72240, Note_on_c, 0, 66, 50
1, 72240, Note_on_c, 0, 57, 42
1, 72240, Note_on_c, 0, 60, 42
1, 72240, Note_on_c, 0, 63, 51
1, 72480, Tempo, 1339585
1, 72480, Note_on_c, 0, 63, 0
1, 72480, Note_on_c, 0, 57, 0
1, 72480, Note_on_c, 0, 78, 0
1, 72480, Note_on_c, 0, 66, 0
1, 72480, Note_on_c, 0, 60, 0
1, 72480, Note_on_c, 0, 64, 53
1, 72480, Note_on_c, 0, 76, 62
1, 72480, Note_on_c, 0, 55, 44
1, 72480, Note_on_c, 0, 59, 53
1, 72720, Note_on_c, 0, 59, 0
1, 72720, Note_on_c, 0, 64, 0
1, 72720, Note_on_c, 0, 76, 0
1, 72720, Note_on_c, 0, 55, 0
1, 72840, Note_on_c, 0, 71, 40
1, 72960, Tempo, 1351656
1, 72960, Note_on_c, 0, 71, 0
1, 72960, Note_on_c, 0, 64, 38
1, 72960, Note_on_c, 0, 76, 45
1, 72960, Note_on_c, 0, 55, 29
1, 72960, Note_on_c, 0, 59, 35
1, 73200, Note_on_c, 0, 59, 0
1, 73200, Note_on_c, 0, 64, 0
1, 73200, Note_on_c, 0, 76, 0
1, 73200, Note_on_c, 0, 55, 0
1, 73200, Note_on_c, 0, 62, 34
1, 73200, Note_on_c, 0, 74, 40
1, 73200, Note_on_c, 0, 53, 29
1, 73200, Note_on_c, 0, 55, 29
1, 73200, Note_on_c, 0, 59, 35
1, 73440, Note_on_c, 0, 59, 0
1, 73440, Note_on_c, 0, 53, 0
1, 73440, Note_on_c, 0, 62, 0
1, 73440, Note_on_c, 0, 74, 0
1, 73440, Note_on_c, 0, 55, 0
1, 73440, Note_on_c, 0, 60, 37
1, 73440, Note_on_c, 0, 72, 44
1, 73440, Note_on_c, 0, 52, 29
1, 73440, Note_on_c, 0, 55, 35
1, 73680, Note_on_c, 0, 55, 0
1, 73680, Note_on_c, 0, 60, 0
1, 73680, Note_on_c, 0, 72, 0
1, 73680, Note_on_c, 0, 52, 0
1, 73800, Note_on_c, 0, 67, 60
1, 73920, Tempo, 1339585
1, 73920, Note_on_c, 0, 67, 0
1, 73920, Note_on_c, 0, 72, 66
1, 73920, Note_on_c, 0, 60, 56
1, 73920, Note_on_c, 0, 52, 59
1, 73920, Note_on_c, 0, 55, 59
1, 74160, Tempo, 1304631
1, 74160, Note_on_c, 0, 55, 0
1, 74160, Note_on_c, 0, 72, 0
1, 74160, Note_on_c, 0, 60, 0
1, 74160, Note_on_c, 0, 52, 0
1, 74160, Note_on_c, 0, 59, 50
1, 74160, Note_on_c, 0, 71, 60
1, 74160, Note_on_c, 0, 50, 42
1, 74160, Note_on_c, 0, 53, 42
1, 74160, Note_on_c, 0, 56, 51
1, 74400, Tempo, 1339585
1, 74400, Note_on_c, 0, 56, 0
1, 74400, Note_on_c, 0, 50, 0
1, 74400, Note_on_c, 0, 59, 0
1, 74400, Note_on_c, 0, 71, 0
1, 74400, Note_on_c, 0, 53, 0
1, 74400, Note_on_c, 0, 69, 62
1, 74400, Note_on_c, 0, 48, 44
1, 74400, Note_on_c, 0, 52, 44
1, 74400, Note_on_c, 0, 57, 53
1, 74520, Note_on_c, 0, 69, 0
1, 74520, Note_on_c, 0, 76, 56
1, 74640, Tempo, 1293382
1, 74640, Note_on_c, 0, 76, 0
1, 74640, Note_on_c, 0, 74, 50
1, 74700, Note_on_c, 0, 74, 0
1, 74700, Note_on_c, 0, 72, 46
1, 74760, Note_on_c, 0, 72, 0
1, 74760, Note_on_c, 0, 71, 50
1, 74820, Tempo, 1442654
1, 74820, Note_on_c, 0, 71, 0
1, 74820, Note_on_c, 0, 69, 46
1, 74880, Tempo, 1339585
1, 74880, Note_on_c, 0, 69, 0
1, 74880, Note_on_c, 0, 57, 0
1, 74880, Note_on_c, 0, 52, 0
1, 74880, Note_on_c, 0, 48, 0
1, 74880, Note_on_c, 0, 67, 50
1, 74880, Note_on_c, 0, 59, 40
1, 74880, Note_on_c, 0, 50, 40
1, 75120, Note_on_c, 0, 59, 0
1, 75120, Note_on_c, 0, 67, 0
1, 75120, Note_on_c, 0, 69, 45
1, 75120, Note_on_c, 0, 54, 38
1, 75358, Note_on_c, 0, 54, 0
1, 75360, Tempo, 1389210
1, 75360, Note_on_c, 0, 69, 0
1, 75360, Note_on_c, 0, 50, 0
1, 75360, Note_on_c, 0, 70, 53
1, 75360, Note_on_c, 0, 54, 40
1, 75360, Note_on_c, 0, 43, 40
1, 75540, Tempo, 1339585
1, 75600, Note_on_c, 0, 54, 0
1, 75600, Note_on_c, 0, 70, 0
1, 75600, Note_on_c, 0, 71, 49
1, 75600, Note_on_c, 0, 55, 38
1, 75840, Tempo, 1339585
1, 75840, Note_on_c, 0, 55, 0
1, 75840, Note_on_c, 0, 71, 0
1, 75840, Note_on_c, 0, 43, 0
1, 75840, Note_on_c, 0, 79, 66
1, 75840, Note_on_c, 0, 59, 53
1, 75840, Note_on_c, 0, 62, 53
1, 76080, Tempo, 1304631
1, 76080, Note_on_c, 0, 62, 0
1, 76080, Note_on_c, 0, 59, 0
1, 76080, Note_on_c, 0, 79, 0
1, 76080, Note_on_c, 0, 78, 60
1, 76080, Note_on_c, 0, 57, 37
1, 76080, Note_on_c, 0, 60, 37
1, 76080, Note_on_c, 0, 63, 45
1, 76080, Control_c, 0, 64, 127
1, 76110, Note_on_c, 0, 78, 0
1, 76110, Note_on_c, 0, 79, 54
1, 76140, Note_on_c, 0, 79, 0
1, 76140, Note_on_c, 0, 78, 60
1, 76170, Note_on_c, 0, 78, 0
1, 76170, Note_on_c, 0, 79, 55
1, 76200, Note_on_c, 0, 79, 0
1, 76200, Note_on_c, 0, 78, 60
1, 76230, Note_on_c, 0, 78, 0
1, 76230, Note_on_c, 0, 79, 55
1, 76260, Note_on_c, 0, 79, 0
1, 76260, Note_on_c, 0, 78, 60
1, 76290, Note_on_c, 0, 78, 0
1, 76290, Note_on_c, 0, 79, 55
1, 76320, Tempo, 1339585
1, 76320, Note_on_c, 0, 79, 0
1, 76320, Note_on_c, 0, 63, 0
1, 76320, Note_on_c, 0, 60, 0
1, 76320, Note_on_c, 0, 57, 0
1, 76320, Note_on_c, 0, 76, 62
1, 76320, Note_on_c, 0, 64, 47
1, 76320, Note_on_c, 0, 55, 39
1, 76320, Note_on_c, 0, 59, 47
1, 76320, Control_c, 0, 64, 0
1, 76560, Note_on_c, 0, 59, 0
1, 76560, Note_on_c, 0, 76, 0
1, 76560, Note_on_c, 0, 64, 0
1, 76560, Note_on_c, 0, 55, 0
1, 76680, Note_on_c, 0, 83, 40
1, 76800, Tempo, 1351656
1, 76800, Note_on_c, 0, 83, 0
1, 76800, Note_on_c, 0, 88, 45
1, 76800, Note_on_c, 0, 67, 29
1, 76800, Note_on_c, 0, 71, 35
1, 77040, Note_on_c, 0, 71, 0
1, 77040, Note_on_c, 0, 67, 0
1, 77040, Note_on_c, 0, 88, 0
1, 77040, Note_on_c, 0, 86, 48
1, 77040, Note_on_c, 0, 65, 29
1, 77040, Note_on_c, 0, 67, 29
1, 77040, Note_on_c, 0, 71, 35
1, 77043, Control_c, 0, 64, 127
1, 77070, Note_on_c, 0, 86, 0
1, 77070, Note_on_c, 0, 88, 42
1, 77100, Note_on_c, 0, 88, 0
1, 77100, Note_on_c, 0, 86, 50
1, 77130, Note_on_c, 0, 86, 0
1, 77130, Note_on_c, 0, 88, 44
1, 77160, Note_on_c, 0, 88, 0
1, 77160, Note_on_c, 0, 86, 49
1, 77190, Note_on_c, 0, 86, 0
1, 77190, Note_on_c, 0, 88, 42
1, 77220, Note_on_c, 0, 88, 0
1, 77220, Note_on_c, 0, 86, 50
1, 77250, Note_on_c, 0, 86, 0
1, 77250, Note_on_c, 0, 88, 47
1, 77280, Note_on_c, 0, 88, 0
1, 77280, Note_on_c, 0, 71, 0
1, 77280, Note_on_c, 0, 67, 0
1, 77280, Note_on_c, 0, 65, 0
1, 77280, Note_on_c, 0, 84, 44
1, 77280, Note_on_c, 0, 72, 35
1, 77280, Note_on_c, 0, 64, 29
1, 77280, Note_on_c, 0, 67, 35
1, 77289, Control_c, 0, 64, 0
1, 77520, Note_on_c, 0, 67, 0
1, 77520, Note_on_c, 0, 84, 0
1, 77520, Note_on_c, 0, 72, 0
1, 77520, Note_on_c, 0, 64, 0
1, 77640, Note_on_c, 0, 79, 60
1, 77760, Tempo, 1339585
1, 77760, Note_on_c, 0, 79, 0
1, 77760, Note_on_c, 0, 84, 66
1, 77760, Note_on_c, 0, 64, 59
1, 77760, Note_on_c, 0, 67, 59
1, 78000, Tempo, 1304631
1, 78000, Note_on_c, 0, 67, 0
1, 78000, Note_on_c, 0, 64, 0
1, 78000, Note_on_c, 0, 84, 0
1, 78000, Note_on_c, 0, 62, 42
1, 78000, Note_on_c, 0, 65, 42
1, 78000, Note_on_c, 0, 68, 51
1, 78003, Note_on_c, 0, 83, 57
1, 78033, Note_on_c, 0, 83, 0
1, 78033, Note_on_c, 0, 84, 54
1, 78063, Note_on_c, 0, 84, 0
1, 78063, Note_on_c, 0, 83, 59
1, 78093, Note_on_c, 0, 83, 0
1, 78093, Note_on_c, 0, 84, 54
1, 78123, Note_on_c, 0, 84, 0
1, 78123, Note_on_c, 0, 83, 57
1, 78153, Note_on_c, 0, 83, 0
1, 78153, Note_on_c, 0, 84, 52
1, 78183, Note_on_c, 0, 84, 0
1, 78183, Note_on_c, 0, 83, 56
1, 78213, Note_on_c, 0, 83, 0
1, 78213, Note_on_c, 0, 84, 52
1, 78240, Tempo, 1339585
1, 78240, Note_on_c, 0, 62, 0
1, 78240, Note_on_c, 0, 68, 0
1, 78240, Note_on_c, 0, 65, 0
1, 78240, Note_on_c, 0, 81, 62
1, 78240, Note_on_c, 0, 60, 44
1, 78240, Note_on_c, 0, 64, 44
1, 78240, Note_on_c, 0, 69, 53
1, 78243, Note_on_c, 0, 84, 0
1, 78360, Note_on_c, 0, 81, 0
1, 78360, Note_on_c, 0, 88, 58
1, 78480, Tempo, 1293382
1, 78480, Note_on_c, 0, 88, 0
1, 78480, Note_on_c, 0, 86, 55
1, 78540, Note_on_c, 0, 86, 0
1, 78540, Note_on_c, 0, 84, 47
1, 78600, Note_on_c, 0, 84, 0
1, 78600, Note_on_c, 0, 83, 50
1, 78660, Tempo, 1442654
1, 78660, Note_on_c, 0, 83, 0
1, 78660, Note_on_c, 0, 81, 46
1, 78720, Tempo, 1339585
1, 78720, Note_on_c, 0, 81, 0
1, 78720, Note_on_c, 0, 69, 0
1, 78720, Note_on_c, 0, 60, 0
1, 78720, Note_on_c, 0, 64, 0
1, 78720, Note_on_c, 0, 79, 47
1, 78720, Note_on_c, 0, 67, 34
1, 78720, Note_on_c, 0, 71, 40
1, 78720, Note_on_c, 0, 62, 34
1, 78780, Note_on_c, 0, 79, 0
1, 78840, Note_on_c, 0, 81, 47
1, 78900, Note_on_c, 0, 81, 0
1, 78960, Note_on_c, 0, 62, 0
1, 78960, Note_on_c, 0, 71, 0
1, 78960, Note_on_c, 0, 67, 0
1, 78960, Note_on_c, 0, 82, 47
1, 79020, Note_on_c, 0, 82, 0
1, 79080, Note_on_c, 0, 83, 47
1, 79140, Note_on_c, 0, 83, 0
1, 79200, Tempo, 1389210
1, 79200, Note_on_c, 0, 84, 49
1, 79200, Note_on_c, 0, 67, 32
1, 79200, Note_on_c, 0, 71, 37
1, 79200, Note_on_c, 0, 62, 32
1, 79260, Note_on_c, 0, 84, 0
1, 79320, Note_on_c, 0, 85, 52
1, 79380, Tempo, 1339585
1, 79380, Note_on_c, 0, 85, 0
1, 79440, Note_on_c, 0, 62, 0
1, 79440, Note_on_c, 0, 71, 0
1, 79440, Note_on_c, 0, 67, 0
1, 79440, Note_on_c, 0, 86, 55
1, 79500, Note_on_c, 0, 86, 0
1, 79560, Note_on_c, 0, 87, 58
1, 79680, Note_on_c, 0, 62, 32
1, 79680, Note_on_c, 0, 67, 32
1, 79680, Note_on_c, 0, 72, 37
1, 79740, Note_on_c, 0, 87, 0
1, 79740, Note_on_c, 0, 88, 57
1, 79800, Note_on_c, 0, 88, 0
1, 79800, Note_on_c, 0, 87, 65
1, 79860, Note_on_c, 0, 87, 0
1, 79860, Note_on_c, 0, 88, 57
1, 79920, Note_on_c, 0, 88, 0
1, 79920, Note_on_c, 0, 72, 0
1, 79920, Note_on_c, 0, 67, 0
1, 79920, Note_on_c, 0, 62, 0
1, 79920, Note_on_c, 0, 86, 64
1, 79980, Note_on_c, 0, 86, 0
1, 79980, Note_on_c, 0, 84, 61
1, 80040, Note_on_c, 0, 84, 0
1, 80040, Note_on_c, 0, 83, 59
1, 80100, Note_on_c, 0, 83, 0
1, 80100, Note_on_c, 0, 81, 57
1, 80160, Tempo, 1304631
1, 80160, Note_on_c, 0, 81, 0
1, 80160, Note_on_c, 0, 81, 50
1, 80160, Note_on_c, 0, 66, 28
1, 80160, Note_on_c, 0, 62, 28
1, 80160, Note_on_c, 0, 72, 34
1, 80190, Note_on_c, 0, 81, 0
1, 80190, Note_on_c, 0, 83, 45
1, 80199, Tempo, 1282325
1, 80220, Note_on_c, 0, 83, 0
1, 80220, Note_on_c, 0, 81, 50
1, 80247, Tempo, 1293382
1, 80250, Note_on_c, 0, 81, 0
1, 80250, Note_on_c, 0, 83, 44
1, 80280, Note_on_c, 0, 83, 0
1, 80280, Note_on_c, 0, 81, 50
1, 80295, Tempo, 1304631
1, 80310, Note_on_c, 0, 81, 0
1, 80310, Note_on_c, 0, 83, 45
1, 80340, Note_on_c, 0, 83, 0
1, 80340, Note_on_c, 0, 81, 50
1, 80343, Tempo, 1316078
1, 80370, Note_on_c, 0, 81, 0
1, 80370, Note_on_c, 0, 83, 45
1, 80400, Note_on_c, 0, 83, 0
1, 80400, Note_on_c, 0, 72, 0
1, 80400, Note_on_c, 0, 62, 0
1, 80400, Note_on_c, 0, 66, 0
1, 80400, Note_on_c, 0, 81, 50
1, 80439, Tempo, 1316078
1, 80440, Note_on_c, 0, 81, 0
1, 80440, Note_on_c, 0, 83, 45
1, 80463, Tempo, 1327727
1, 80480, Note_on_c, 0, 83, 0
1, 80480, Note_on_c, 0, 81, 55
1, 80487, Tempo, 1339585
1, 80511, Tempo, 1351656
1, 80520, Note_on_c, 0, 81, 0
1, 80520, Note_on_c, 0, 79, 62
1, 80535, Tempo, 1363946
1, 80559, Tempo, 1376462
1, 80580, Note_on_c, 0, 79, 0
1, 80580, Note_on_c, 0, 81, 59
1, 80583, Tempo, 1389210
1, 80640, Tempo, 1327727
1, 80640, Note_on_c, 0, 81, 0
1, 80640, Note_on_c, 0, 79, 65
1, 80640, Note_on_c, 0, 67, 28
1, 80640, Note_on_c, 0, 71, 34
1, 80640, Control_c, 0, 64, 0
1, 80680, Note_on_c, 0, 79, 0
1, 80700, Note_on_c, 0, 79, 61
1, 80760, Note_on_c, 0, 79, 0
1, 80760, Note_on_c, 0, 78, 58
1, 80820, Note_on_c, 0, 78, 0
1, 80820, Note_on_c, 0, 79, 53
1, 80880, Note_on_c, 0, 79, 0
1, 80880, Note_on_c, 0, 81, 59
1, 80940, Note_on_c, 0, 81, 0
1, 80940, Note_on_c, 0, 79, 59
1, 81000, Note_on_c, 0, 79, 0
1, 81000, Note_on_c, 0, 78, 56
1, 81060, Note_on_c, 0, 78, 0
1, 81060, Note_on_c, 0, 76, 54
1, 81120, Note_on_c, 0, 76, 0
1, 81120, Note_on_c, 0, 71, 0
1, 81120, Note_on_c, 0, 67, 0
1, 81120, Note_on_c, 0, 74, 57
1, 81160, Note_on_c, 0, 74, 0
1, 81180, Note_on_c, 0, 76, 53
1, 81199, Tempo, 1316078
1, 81240, Note_on_c, 0, 76, 0
1, 81240, Note_on_c, 0, 75, 51
1, 81295, Tempo, 1327727
1, 81300, Note_on_c, 0, 75, 0
1, 81300, Note_on_c, 0, 76, 48
1, 81360, Note_on_c, 0, 76, 0
1, 81360, Note_on_c, 0, 78, 53
1, 81367, Tempo, 1339585
1, 81420, Note_on_c, 0, 78, 0
1, 81420, Note_on_c, 0, 76, 48
1, 81439, Tempo, 1351656
1, 81480, Note_on_c, 0, 76, 0
1, 81480, Note_on_c, 0, 74, 49
1, 81511, Tempo, 1363946
1, 81540, Note_on_c, 0, 74, 0
1, 81540, Note_on_c, 0, 72, 45
1, 81583, Tempo, 1363946
1, 81600, Tempo, 1327727
1, 81600, Note_on_c, 0, 72, 0
1, 81600, Note_on_c, 0, 71, 48
1, 81600, Text_t, "bdca426d104a26ac9dcb070447587523"
1, 81600, Control_c, 0, 91, 127
1, 81600, Note_on_c, 0, 62, 32
1, 81600, Note_on_c, 0, 55, 39
1, 81720, Note_on_c, 0, 71, 0
1, 81720, Note_on_c, 0, 72, 44
1, 81744, Note_on_c, 0, 72, 0
1, 81744, Note_on_c, 0, 71, 40
1, 81768, Note_on_c, 0, 71, 0
1, 81768, Note_on_c, 0, 69, 44
1, 81780, Tempo, 1229760
1, 81792, Note_on_c, 0, 69, 0
1, 81792, Note_on_c, 0, 71, 40
1, 81816, Note_on_c, 0, 71, 0
1, 81816, Note_on_c, 0, 74, 44
1, 81840, Tempo, 1304631
1, 81840, Note_on_c, 0, 74, 0
1, 81840, Note_on_c, 0, 55, 0
1, 81840, Note_on_c, 0, 72, 48
1, 81840, Note_on_c, 0, 57, 35
1, 82020, Note_on_c, 0, 57, 0
1, 82020, Note_on_c, 0, 72, 0
1, 82020, Note_on_c, 0, 71, 47
1, 82020, Note_on_c, 0, 55, 30
1, 82080, Tempo, 1282325
1, 82080, Note_on_c, 0, 55, 0
1, 82080, Note_on_c, 0, 62, 0
1, 82080, Note_on_c, 0, 62, 32
1, 82080, Note_on_c, 0, 54, 36
1, 82200, Tempo, 1304631
1, 82200, Note_on_c, 0, 71, 0
1, 82200, Note_on_c, 0, 69, 50
1, 82320, Tempo, 1271456
1, 82320, Note_on_c, 0, 54, 0
1, 82320, Note_on_c, 0, 55, 32
1, 82440, Tempo, 1389210
1, 82440, Note_on_c, 0, 69, 0
1, 82440, Note_on_c, 0, 71, 46
1, 82560, Tempo, 1293382
1, 82560, Note_on_c, 0, 55, 0
1, 82560, Note_on_c, 0, 62, 0
1, 82560, Note_on_c, 0, 62, 38
1, 82560, Note_on_c, 0, 57, 40
1, 82680, Tempo, 1316078
1, 82680, Note_on_c, 0, 71, 0
1, 82680, Note_on_c, 0, 72, 50
1, 82800, Note_on_c, 0, 57, 0
1, 82800, Note_on_c, 0, 54, 33
1, 82860, Note_on_c, 0, 72, 0
1, 82860, Note_on_c, 0, 76, 45
1, 82920, Note_on_c, 0, 76, 0
1, 82920, Note_on_c, 0, 74, 48
1, 83040, Tempo, 1293382
1, 83040, Note_on_c, 0, 74, 0
1, 83040, Note_on_c, 0, 54, 0
1, 83040, Note_on_c, 0, 62, 0
1, 83040, Note_on_c, 0, 72, 47
1, 83040, Note_on_c, 0, 62, 38
1, 83040, Note_on_c, 0, 55, 39
1, 83160, Tempo, 1351656
1, 83280, Tempo, 1316078
1, 83280, Note_on_c, 0, 72, 0
1, 83280, Note_on_c, 0, 71, 51
1, 83400, Tempo, 1500375
1, 83520, Tempo, 1415428
1, 83520, Note_on_c, 0, 71, 0
1, 83520, Note_on_c, 0, 55, 0
1, 83520, Note_on_c, 0, 62, 0
1, 83520, Note_on_c, 0, 67, 65
1, 83520, Note_on_c, 0, 72, 65
1, 83520, Note_on_c, 0, 52, 49
1, 83520, Note_on_c, 0, 64, 49
1, 83640, Note_on_c, 0, 64, 0
1, 83640, Note_on_c, 0, 67, 0
1, 83640, Note_on_c, 0, 72, 0
1, 83640, Note_on_c, 0, 52, 0
1, 83760, Note_on_c, 0, 71, 61
1, 83760, Note_on_c, 0, 67, 61
1, 83760, Note_on_c, 0, 50, 44
1, 83760, Note_on_c, 0, 62, 44
1, 83880, Note_on_c, 0, 62, 0
1, 83880, Note_on_c, 0, 71, 0
1, 83880, Note_on_c, 0, 67, 0
1, 83880, Note_on_c, 0, 50, 0
1, 84000, Tempo, 1339585
1, 84000, Note_on_c, 0, 76, 67
1, 84000, Note_on_c, 0, 67, 67
1, 84000, Note_on_c, 0, 60, 51
1, 84000, Note_on_c, 0, 48, 51
1, 84120, Note_on_c, 0, 48, 0
1, 84120, Note_on_c, 0, 76, 0
1, 84120, Note_on_c, 0, 67, 0
1, 84120, Note_on_c, 0, 60, 0
1, 84360, Tempo, 1351656
1, 84360, Note_on_c, 0, 74, 47
1, 84360, Note_on_c, 0, 59, 37
1, 84480, Tempo, 1282325
1, 84480, Note_on_c, 0, 59, 0
1, 84480, Note_on_c, 0, 74, 0
1, 84480, Note_on_c, 0, 74, 50
1, 84480, Note_on_c, 0, 62, 38
1, 84480, Note_on_c, 0, 54, 40
1, 84540, Note_on_c, 0, 74, 0
1, 84540, Note_on_c, 0, 72, 44
1, 84600, Tempo, 1351656
1, 84600, Note_on_c, 0, 72, 0
1, 84600, Note_on_c, 0, 71, 44
1, 84660, Note_on_c, 0, 71, 0
1, 84660, Note_on_c, 0, 69, 44
1, 84720, Tempo, 1304631
1, 84720, Note_on_c, 0, 69, 0
1, 84720, Note_on_c, 0, 54, 0
1, 84720, Note_on_c, 0, 72, 50
1, 84720, Note_on_c, 0, 55, 35
1, 84780, Note_on_c, 0, 72, 0
1, 84780, Note_on_c, 0, 71, 45
1, 84840, Tempo, 1442654
1, 84840, Note_on_c, 0, 71, 0
1, 84840, Note_on_c, 0, 69, 45
1, 84900, Tempo, 1829826
1, 84900, Note_on_c, 0, 69, 0
1, 84900, Note_on_c, 0, 67, 45
1, 84960, Tempo, 1415428
1, 84960, Note_on_c, 0, 67, 0
1, 84960, Note_on_c, 0, 55, 0
1, 84960, Note_on_c, 0, 62, 0
1, 84960, Note_on_c, 0, 67, 50
1, 84960, Note_on_c, 0, 71, 50
1, 84960, Note_on_c, 0, 62, 38
1, 84960, Note_on_c, 0, 50, 39
1, 85200, Note_on_c, 0, 71, 0
1, 85200, Note_on_c, 0, 67, 0
1, 85200, Note_on_c, 0, 66, 44
1, 85200, Note_on_c, 0, 69, 44
1, 85440, Tempo, 1327727
1, 85440, Note_on_c, 0, 69, 0
1, 85440, Note_on_c, 0, 50, 0
1, 85440, Note_on_c, 0, 62, 0
1, 85440, Note_on_c, 0, 66, 0
1, 85440, Note_on_c, 0, 70, 50
1, 85440, Text_t, "bdca426d104a26ac9dcb070447587523"
1, 85440, Control_c, 0, 91, 127
1, 85440, Note_on_c, 0, 62, 39
1, 85440, Note_on_c, 0, 55, 39
1, 85560, Note_on_c, 0, 70, 0
1, 85560, Note_on_c, 0, 71, 50
1, 85620, Tempo, 1229760
1, 85650, Note_on_c, 0, 71, 0
1, 85650, Note_on_c, 0, 74, 51
1, 85680, Tempo, 1304631
1, 85680, Note_on_c, 0, 74, 0
1, 85680, Note_on_c, 0, 55, 0
1, 85680, Note_on_c, 0, 72, 51
1, 85680, Note_on_c, 0, 57, 35
1, 85800, Note_on_c, 0, 57, 0
1, 85800, Note_on_c, 0, 72, 0
1, 85800, Note_on_c, 0, 71, 44
1, 85800, Note_on_c, 0, 55, 30
1, 85920, Tempo, 1304631
1, 85920, Note_on_c, 0, 55, 0
1, 85920, Note_on_c, 0, 71, 0
1, 85920, Note_on_c, 0, 62, 0
1, 85920, Note_on_c, 0, 68, 51
1, 85920, Note_on_c, 0, 62, 30
1, 85920, Note_on_c, 0, 54, 36
1, 86040, Tempo, 1304631
1, 86040, Note_on_c, 0, 68, 0
1, 86040, Note_on_c, 0, 69, 47
1, 86160, Note_on_c, 0, 69, 0
1, 86160, Note_on_c, 0, 54, 0
1, 86160, Note_on_c, 0, 62, 0
1, 86160, Note_on_c, 0, 62, 30
1, 86160, Note_on_c, 0, 55, 32
1, 86280, Tempo, 1415428
1, 86280, Note_on_c, 0, 72, 49
1, 86340, Note_on_c, 0, 72, 0
1, 86340, Note_on_c, 0, 71, 46
1, 86400, Tempo, 1316078
1, 86400, Note_on_c, 0, 71, 0
1, 86400, Note_on_c, 0, 55, 0
1, 86400, Note_on_c, 0, 62, 0
1, 86400, Note_on_c, 0, 62, 38
1, 86400, Note_on_c, 0, 57, 40
1, 86520, Note_on_c, 0, 74, 50
1, 86580, Note_on_c, 0, 74, 0
1, 86580, Note_on_c, 0, 72, 45
1, 86640, Note_on_c, 0, 72, 0
1, 86640, Note_on_c, 0, 57, 0
1, 86640, Note_on_c, 0, 62, 0
1, 86640, Note_on_c, 0, 62, 30
1, 86640, Note_on_c, 0, 54, 33
1, 86760, Note_on_c, 0, 76, 46
1, 86820, Note_on_c, 0, 76, 0
1, 86820, Note_on_c, 0, 74, 49
1, 86880, Tempo, 1293382
1, 86880, Note_on_c, 0, 74, 0
1, 86880, Note_on_c, 0, 54, 0
1, 86880, Note_on_c, 0, 62, 0
1, 86880, Note_on_c, 0, 72, 53
1, 86880, Note_on_c, 0, 62, 38
1, 86880, Note_on_c, 0, 55, 39
1, 87000, Tempo, 1351656
1, 87060, Note_on_c, 0, 72, 0
1, 87060, Note_on_c, 0, 74, 47
1, 87090, Note_on_c, 0, 74, 0
1, 87090, Note_on_c, 0, 72, 47
1, 87120, Tempo, 1316078
1, 87120, Note_on_c, 0, 72, 0
1, 87120, Note_on_c, 0, 71, 56
1, 87240, Tempo, 1500375
1, 87360, Tempo, 1415428
1, 87360, Note_on_c, 0, 71, 0
1, 87360, Note_on_c, 0, 55, 0
1, 87360, Note_on_c, 0, 62, 0
1, 87360, Note_on_c, 0, 72, 65
1, 87360, Note_on_c, 0, 67, 65
1, 87360, Note_on_c, 0, 52, 49
1, 87360, Note_on_c, 0, 64, 49
1, 87480, Note_on_c, 0, 64, 0
1, 87480, Note_on_c, 0, 72, 0
1, 87480, Note_on_c, 0, 67, 0
1, 87480, Note_on_c, 0, 52, 0
1, 87600, Note_on_c, 0, 67, 61
1, 87600, Note_on_c, 0, 71, 61
1, 87600, Note_on_c, 0, 50, 44
1, 87600, Note_on_c, 0, 62, 44
1, 87720, Note_on_c, 0, 62, 0
1, 87720, Note_on_c, 0, 67, 0
1, 87720, Note_on_c, 0, 71, 0
1, 87720, Note_on_c, 0, 50, 0
1, 87840, Tempo, 1304631
1, 87840, Note_on_c, 0, 76, 67
1, 87840, Note_on_c, 0, 60, 51
1, 87840, Note_on_c, 0, 48, 51
1, 87900, Note_on_c, 0, 76, 0
1, 87900, Note_on_c, 0, 78, 54
1, 87920, Note_on_c, 0, 78, 0
1, 87920, Note_on_c, 0, 76, 54
1, 87940, Note_on_c, 0, 76, 0
1, 87940, Note_on_c, 0, 74, 54
1, 87960, Tempo, 1376462
1, 87960, Note_on_c, 0, 74, 0
1, 87960, Note_on_c, 0, 76, 63
1, 88020, Note_on_c, 0, 76, 0
1, 88020, Note_on_c, 0, 78, 60
1, 88080, Note_on_c, 0, 78, 0
1, 88080, Note_on_c, 0, 48, 0
1, 88080, Note_on_c, 0, 60, 0
1, 88080, Note_on_c, 0, 79, 65
1, 88200, Tempo, 1579363
1, 88200, Note_on_c, 0, 79, 0
1, 88200, Note_on_c, 0, 72, 47
1, 88200, Note_on_c, 0, 64, 37
1, 88200, Note_on_c, 0, 60, 37
1, 88320, Tempo, 1428912
1, 88320, Note_on_c, 0, 60, 0
1, 88320, Note_on_c, 0, 64, 0
1, 88320, Note_on_c, 0, 72, 0
1, 88320, Note_on_c, 0, 71, 50
1, 88320, Note_on_c, 0, 62, 40
1, 88320, Note_on_c, 0, 67, 40
1, 88560, Note_on_c, 0, 67, 0
1, 88560, Note_on_c, 0, 71, 0
1, 88560, Note_on_c, 0, 69, 47
1, 88560, Note_on_c, 0, 66, 35
1, 88580, Control_c, 0, 64, 127
1, 88587, Note_on_c, 0, 69, 0
1, 88587, Note_on_c, 0, 71, 47
1, 88613, Note_on_c, 0, 71, 0
1, 88613, Note_on_c, 0, 69, 47
1, 88639, Note_on_c, 0, 71, 47
1, 88640, Note_on_c, 0, 69, 0
1, 88666, Note_on_c, 0, 71, 0
1, 88666, Note_on_c, 0, 69, 45
1, 88680, Tempo, 1562907
1, 88692, Note_on_c, 0, 69, 0
1, 88692, Note_on_c, 0, 71, 45
1, 88719, Note_on_c, 0, 71, 0
1, 88719, Note_on_c, 0, 69, 45
1, 88742, Tempo, 1974334
1, 88745, Note_on_c, 0, 69, 0
1, 88745, Note_on_c, 0, 67, 45
1, 88771, Note_on_c, 0, 69, 45
1, 88772, Note_on_c, 0, 67, 0
1, 88800, Tempo, 1389210
1, 88800, Note_on_c, 0, 62, 0
1, 88800, Note_on_c, 0, 66, 0
1, 88800, Note_on_c, 0, 69, 0
1, 88800, Note_on_c, 0, 67, 45
1, 88800, Note_on_c, 0, 55, 39
1, 88807, Control_c, 0, 64, 0
1, 88835, Control_c, 0, 64, 127
1, 88920, Tempo, 1363946
1, 88920, Note_on_c, 0, 59, 28
1, 89040, Tempo, 1316078
1, 89040, Note_on_c, 0, 59, 0
1, 89040, Note_on_c, 0, 62, 32
1, 89160, Tempo, 1389210
1, 89160, Note_on_c, 0, 62, 0
1, 89160, Note_on_c, 0, 59, 27
1, 89280, Tempo, 1351656
1, 89280, Note_on_c, 0, 59, 0
1, 89280, Note_on_c, 0, 55, 0
1, 89280, Note_on_c, 0, 67, 0
1, 89280, Note_on_c, 0, 71, 45
1, 89280, Note_on_c, 0, 48, 39
1, 89280, Control_c, 0, 64, 0
1, 89340, Tempo, 1316078
1, 89393, Control_c, 0, 64, 127
1, 89400, Note_on_c, 0, 52, 27
1, 89520, Note_on_c, 0, 52, 0
1, 89520, Note_on_c, 0, 71, 0
1, 89520, Note_on_c, 0, 69, 45
1, 89520, Note_on_c, 0, 57, 32
1, 89640, Tempo, 1351656
1, 89640, Note_on_c, 0, 57, 0
1, 89640, Note_on_c, 0, 52, 28
1, 89760, Tempo, 1304631
1, 89760, Note_on_c, 0, 52, 0
1, 89760, Note_on_c, 0, 69, 0
1, 89760, Note_on_c, 0, 48, 0
1, 89760, Note_on_c, 0, 67, 45
1, 89760, Note_on_c, 0, 50, 39
1, 89772, Control_c, 0, 64, 0
1, 89845, Control_c, 0, 64, 127
1, 89880, Note_on_c, 0, 67, 0
1, 89880, Note_on_c, 0, 66, 41
1, 89880, Note_on_c, 0, 60, 29
1, 89997, Note_on_c, 0, 66, 0
1, 90000, Note_on_c, 0, 60, 0
1, 90000, Note_on_c, 0, 66, 45
1, 90000, Note_on_c, 0, 57, 32
1, 90120, Tempo, 1402197
1, 90120, Note_on_c, 0, 57, 0
1, 90120, Note_on_c, 0, 66, 0
1, 90120, Note_on_c, 0, 62, 41
1, 90120, Note_on_c, 0, 60, 29
1, 90240, Tempo, 1304631
1, 90240, Note_on_c, 0, 60, 0
1, 90240, Note_on_c, 0, 62, 0
1, 90240, Note_on_c, 0, 50, 0
1, 90240, Note_on_c, 0, 71, 51
1, 90240, Note_on_c, 0, 55, 39
1, 90240, Control_c, 0, 64, 0
1, 90288, Control_c, 0, 64, 127
1, 90360, Note_on_c, 0, 59, 29
1, 90480, Note_on_c, 0, 59, 0
1, 90480, Note_on_c, 0, 62, 32
1, 90600, Tempo, 1363946
1, 90600, Note_on_c, 0, 62, 0
1, 90600, Note_on_c, 0, 59, 29
1, 90720, Tempo, 1304631
1, 90720, Note_on_c, 0, 59, 0
1, 90720, Note_on_c, 0, 55, 0
1, 90720, Note_on_c, 0, 71, 0
1, 90720, Note_on_c, 0, 67, 45
1, 90720, Note_on_c, 0, 52, 39
1, 90735, Control_c, 0, 64, 0
1, 90783, Control_c, 0, 64, 127
1, 90840, Note_on_c, 0, 55, 29
1, 90960, Note_on_c, 0, 55, 0
1, 90960, Note_on_c, 0, 59, 32
1, 91080, Note_on_c, 0, 59, 0
1, 91080, Note_on_c, 0, 67, 0
1, 91080, Note_on_c, 0, 69, 40
1, 91080, Note_on_c, 0, 55, 30
1, 91110, Note_on_c, 0, 69, 0
1, 91110, Note_on_c, 0, 67, 35
1, 91140, Tempo, 1485516
1, 91140, Note_on_c, 0, 67, 0
1, 91140, Note_on_c, 0, 66, 40
1, 91170, Note_on_c, 0, 66, 0
1, 91170, Note_on_c, 0, 67, 36
1, 91200, Tempo, 1316078
1, 91200, Note_on_c, 0, 67, 0
1, 91200, Note_on_c, 0, 55, 0
1, 91200, Note_on_c, 0, 52, 0
1, 91200, Note_on_c, 0, 71, 45
1, 91200, Note_on_c, 0, 48, 39
1, 91205, Control_c, 0, 64, 0
1, 91248, Control_c, 0, 64, 127
1, 91320, Note_on_c, 0, 71, 0
1, 91320, Note_on_c, 0, 69, 45
1, 91320, Note_on_c, 0, 52, 29
1, 91437, Note_on_c, 0, 69, 0
1, 91440, Note_on_c, 0, 52, 0
1, 91440, Note_on_c, 0, 69, 45
1, 91440, Note_on_c, 0, 57, 32
1, 91560, Tempo, 1351656
1, 91560, Note_on_c, 0, 57, 0
1, 91560, Note_on_c, 0, 52, 29
1, 91680, Tempo, 1304631
1, 91680, Note_on_c, 0, 52, 0
1, 91680, Note_on_c, 0, 69, 0
1, 91680, Note_on_c, 0, 48, 0
1, 91680, Note_on_c, 0, 67, 45
1, 91680, Note_on_c, 0, 50, 39
1, 91690, Control_c, 0, 64, 0
1, 91737, Control_c, 0, 64, 127
1, 91800, Note_on_c, 0, 67, 0
1, 91800, Note_on_c, 0, 66, 41
1, 91800, Note_on_c, 0, 60, 30
1, 91918, Note_on_c, 0, 66, 0
1, 91920, Note_on_c, 0, 60, 0
1, 91920, Note_on_c, 0, 66, 45
1, 91920, Note_on_c, 0, 57, 32
1, 92040, Tempo, 1428912
1, 92040, Note_on_c, 0, 57, 0
1, 92040, Note_on_c, 0, 66, 0
1, 92040, Note_on_c, 0, 62, 43
1, 92040, Note_on_c, 0, 60, 29
1, 92160, Tempo, 1304631
1, 92160, Note_on_c, 0, 60, 0
1, 92160, Note_on_c, 0, 62, 0
1, 92160, Note_on_c, 0, 50, 0
1, 92160, Note_on_c, 0, 67, 54
1, 92160, Note_on_c, 0, 43, 45
1, 92162, Control_c, 0, 64, 0
1, 92280, Note_on_c, 0, 55, 37
1, 92280, Control_c, 0, 64, 127
1, 92400, Note_on_c, 0, 55, 0
1, 92400, Note_on_c, 0, 59, 37
1, 92520, Tempo, 1376462
1, 92520, Note_on_c, 0, 59, 0
1, 92520, Note_on_c, 0, 62, 37
1, 92640, Tempo, 1304631
1, 92640, Note_on_c, 0, 62, 0
1, 92640, Note_on_c, 0, 43, 0
1, 92640, Note_on_c, 0, 67, 0
1, 92640, Note_on_c, 0, 67, 47
1, 92640, Note_on_c, 0, 79, 56
1, 92640, Note_on_c, 0, 40, 49
1, 92652, Control_c, 0, 64, 0
1, 92760, Note_on_c, 0, 52, 39
1, 92767, Control_c, 0, 64, 127
1, 92880, Note_on_c, 0, 52, 0
1, 92880, Note_on_c, 0, 55, 39
1, 93000, Tempo, 1402197
1, 93000, Note_on_c, 0, 55, 0
1, 93000, Note_on_c, 0, 59, 39
1, 93120, Tempo, 1271456
1, 93120, Note_on_c, 0, 59, 0
1, 93120, Note_on_c, 0, 67, 0
1, 93120, Note_on_c, 0, 79, 0
1, 93120, Note_on_c, 0, 40, 0
1, 93120, Note_on_c, 0, 71, 45
1, 93120, Note_on_c, 0, 83, 54
1, 93120, Note_on_c, 0, 36, 48
1, 93125, Control_c, 0, 64, 0
1, 93226, Control_c, 0, 64, 127
1, 93240, Tempo, 1304631
1, 93240, Note_on_c, 0, 83, 0
1, 93240, Note_on_c, 0, 71, 0
1, 93240, Note_on_c, 0, 69, 41
1, 93240, Note_on_c, 0, 81, 49
1, 93240, Note_on_c, 0, 48, 38
1, 93360, Note_on_c, 0, 48, 0
1, 93360, Note_on_c, 0, 52, 38
1, 93480, Note_on_c, 0, 52, 0
1, 93480, Note_on_c, 0, 57, 38
1, 93600, Note_on_c, 0, 57, 0
1, 93600, Note_on_c, 0, 36, 0
1, 93600, Note_on_c, 0, 69, 0
1, 93600, Note_on_c, 0, 81, 0
1, 93600, Note_on_c, 0, 67, 48
1, 93600, Note_on_c, 0, 79, 57
1, 93600, Note_on_c, 0, 38, 50
1, 93608, Control_c, 0, 64, 0
1, 93685, Control_c, 0, 64, 127
1, 93720, Note_on_c, 0, 79, 0
1, 93720, Note_on_c, 0, 67, 0
1, 93720, Note_on_c, 0, 66, 45
1, 93720, Note_on_c, 0, 78, 54
1, 93720, Note_on_c, 0, 50, 42
1, 93834, Note_on_c, 0, 78, 0
1, 93834, Note_on_c, 0, 66, 0
1, 93840, Note_on_c, 0, 50, 0
1, 93840, Note_on_c, 0, 66, 48
1, 93840, Note_on_c, 0, 78, 57
1, 93840, Note_on_c, 0, 57, 42
1, 93960, Tempo, 1402197
1, 93960, Note_on_c, 0, 57, 0
1, 93960, Note_on_c, 0, 78, 0
1, 93960, Note_on_c, 0, 66, 0
1, 93960, Note_on_c, 0, 74, 58
1, 93960, Note_on_c, 0, 62, 49
1, 93960, Note_on_c, 0, 60, 42
1, 94080, Tempo, 1304631
1, 94080, Note_on_c, 0, 60, 0
1, 94080, Note_on_c, 0, 38, 0
1, 94080, Note_on_c, 0, 74, 0
1, 94080, Note_on_c, 0, 62, 0
1, 94080, Note_on_c, 0, 86, 68
1, 94080, Note_on_c, 0, 74, 57
1, 94080, Note_on_c, 0, 35, 56
1, 94085, Control_c, 0, 64, 0
1, 94151, Control_c, 0, 64, 127
1, 94200, Note_on_c, 0, 47, 42
1, 94320, Note_on_c, 0, 47, 0
1, 94320, Note_on_c, 0, 50, 46
1, 94440, Note_on_c, 0, 50, 0
1, 94440, Note_on_c, 0, 55, 42
1, 94560, Tempo, 1304631
1, 94560, Note_on_c, 0, 55, 0
1, 94560, Note_on_c, 0, 86, 0
1, 94560, Note_on_c, 0, 74, 0
1, 94560, Note_on_c, 0, 35, 0
1, 94560, Note_on_c, 0, 67, 50
1, 94560, Note_on_c, 0, 79, 59
1, 94560, Note_on_c, 0, 40, 52
1, 94571, Control_c, 0, 64, 0
1, 94659, Control_c, 0, 64, 127
1, 94680, Note_on_c, 0, 52, 41
1, 94788, Note_on_c, 0, 79, 0
1, 94788, Note_on_c, 0, 67, 0
1, 94800, Note_on_c, 0, 52, 0
1, 94800, Note_on_c, 0, 67, 50
1, 94800, Note_on_c, 0, 79, 59
1, 94800, Note_on_c, 0, 55, 41
1, 94920, Note_on_c, 0, 55, 0
1, 94920, Note_on_c, 0, 59, 41
1, 95040, Tempo, 1271456
1, 95040, Note_on_c, 0, 59, 0
1, 95040, Note_on_c, 0, 79, 0
1, 95040, Note_on_c, 0, 67, 0
1, 95040, Note_on_c, 0, 40, 0
1, 95040, Note_on_c, 0, 71, 53
1, 95040, Note_on_c, 0, 83, 63
1, 95040, Note_on_c, 0, 36, 48
1, 95047, Control_c, 0, 64, 0
1, 95118, Control_c, 0, 64, 127
1, 95160, Tempo, 1304631
1, 95160, Note_on_c, 0, 83, 0
1, 95160, Note_on_c, 0, 71, 0
1, 95160, Note_on_c, 0, 69, 44
1, 95160, Note_on_c, 0, 81, 52
1, 95160, Note_on_c, 0, 48, 38
1, 95274, Note_on_c, 0, 81, 0
1, 95274, Note_on_c, 0, 69, 0
1, 95280, Note_on_c, 0, 48, 0
1, 95280, Note_on_c, 0, 69, 44
1, 95280, Note_on_c, 0, 81, 52
1, 95280, Note_on_c, 0, 52, 38
1, 95340, Note_on_c, 0, 81, 0
1, 95340, Note_on_c, 0, 69, 0
1, 95400, Tempo, 1363946
1, 95400, Note_on_c, 0, 52, 0
1, 95400, Note_on_c, 0, 69, 44
1, 95400, Note_on_c, 0, 81, 52
1, 95400, Note_on_c, 0, 57, 38
1, 95460, Note_on_c, 0, 81, 0
1, 95460, Note_on_c, 0, 69, 0
1, 95520, Tempo, 1304631
1, 95520, Note_on_c, 0, 36, 0
1, 95520, Note_on_c, 0, 57, 0
1, 95520, Note_on_c, 0, 67, 48
1, 95520, Note_on_c, 0, 79, 57
1, 95520, Note_on_c, 0, 38, 50
1, 95527, Control_c, 0, 64, 0
1, 95605, Control_c, 0, 64, 127
1, 95640, Note_on_c, 0, 79, 0
1, 95640, Note_on_c, 0, 67, 0
1, 95640, Note_on_c, 0, 66, 45
1, 95640, Note_on_c, 0, 78, 54
1, 95640, Note_on_c, 0, 50, 38
1, 95754, Note_on_c, 0, 78, 0
1, 95754, Note_on_c, 0, 66, 0
1, 95760, Note_on_c, 0, 50, 0
1, 95760, Note_on_c, 0, 66, 48
1, 95760, Note_on_c, 0, 78, 57
1, 95760, Note_on_c, 0, 57, 42
1, 95880, Tempo, 1389210
1, 95880, Note_on_c, 0, 57, 0
1, 95880, Note_on_c, 0, 78, 0
1, 95880, Note_on_c, 0, 66, 0
1, 95880, Note_on_c, 0, 74, 60
1, 95880, Note_on_c, 0, 62, 51
1, 95880, Note_on_c, 0, 60, 37
1, 96000, Tempo, 1304631
1, 96000, Note_on_c, 0, 60, 0
1, 96000, Note_on_c, 0, 38, 0
1, 96000, Note_on_c, 0, 74, 0
1, 96000, Note_on_c, 0, 62, 0
1, 96000, Note_on_c, 0, 79, 68
1, 96000, Note_on_c, 0, 67, 57
1, 96000, Note_on_c, 0, 55, 52
1, 96000, Control_c, 0, 64, 0
1, 96089, Control_c, 0, 64, 127
1, 96120, Note_on_c, 0, 55, 0
1, 96120, Note_on_c, 0, 62, 34
1, 96120, Note_on_c, 0, 59, 28
1, 96234, Note_on_c, 0, 59, 0
1, 96234, Note_on_c, 0, 62, 0
1, 96240, Note_on_c, 0, 62, 34
1, 96240, Note_on_c, 0, 59, 28
1, 96354, Note_on_c, 0, 59, 0
1, 96354, Note_on_c, 0, 62, 0
1, 96360, Tempo, 1376462
1, 96360, Note_on_c, 0, 62, 34
1, 96360, Note_on_c, 0, 59, 28
1, 96474, Note_on_c, 0, 59, 0
1, 96474, Note_on_c, 0, 62, 0
1, 96480, Tempo, 1304631
1, 96480, Note_on_c, 0, 67, 0
1, 96480, Note_on_c, 0, 79, 0
1, 96480, Note_on_c, 0, 83, 54
1, 96480, Note_on_c, 0, 50, 36
1, 96486, Control_c, 0, 64, 0
1, 96543, Control_c, 0, 64, 127
1, 96600, Note_on_c, 0, 50, 0
1, 96600, Note_on_c, 0, 83, 0
1, 96600, Note_on_c, 0, 81, 48
1, 96600, Note_on_c, 0, 62, 30
1, 96600, Note_on_c, 0, 60, 25
1, 96714, Note_on_c, 0, 60, 0
1, 96714, Note_on_c, 0, 62, 0
1, 96717, Note_on_c, 0, 81, 0
1, 96720, Note_on_c, 0, 81, 48
1, 96720, Note_on_c, 0, 62, 30
1, 96720, Note_on_c, 0, 60, 25
1, 96834, Note_on_c, 0, 60, 0
1, 96834, Note_on_c, 0, 62, 0
1, 96840, Tempo, 1389210
1, 96840, Note_on_c, 0, 81, 0
1, 96840, Note_on_c, 0, 78, 48
1, 96840, Note_on_c, 0, 62, 30
1, 96840, Note_on_c, 0, 60, 25
1, 96954, Note_on_c, 0, 60, 0
1, 96954, Note_on_c, 0, 62, 0
1, 96960, Tempo, 1304631
1, 96960, Note_on_c, 0, 78, 0
1, 96960, Note_on_c, 0, 79, 50
1, 96960, Note_on_c, 0, 55, 37
1, 96968, Control_c, 0, 64, 0
1, 97030, Control_c, 0, 64, 127
1, 97080, Note_on_c, 0, 55, 0
1, 97080, Note_on_c, 0, 79, 0
1, 97080, Note_on_c, 0, 83, 52
1, 97080, Note_on_c, 0, 62, 29
1, 97080, Note_on_c, 0, 59, 24
1, 97194, Note_on_c, 0, 59, 0
1, 97194, Note_on_c, 0, 62, 0
1, 97200, Note_on_c, 0, 83, 0
1, 97200, Note_on_c, 0, 86, 58
1, 97200, Note_on_c, 0, 62, 29
1, 97200, Note_on_c, 0, 59, 24
1, 97314, Note_on_c, 0, 59, 0
1, 97314, Note_on_c, 0, 62, 0
1, 97320, Tempo, 1402197
1, 97320, Note_on_c, 0, 62, 29
1, 97320, Note_on_c, 0, 59, 24
1, 97434, Note_on_c, 0, 59, 0
1, 97434, Note_on_c, 0, 62, 0
1, 97440, Tempo, 1304631
1, 97440, Note_on_c, 0, 86, 0
1, 97440, Note_on_c, 0, 83, 54
1, 97440, Note_on_c, 0, 50, 36
1, 97452, Control_c, 0, 64, 0
1, 97510, Control_c, 0, 64, 127
1, 97560, Note_on_c, 0, 50, 0
1, 97560, Note_on_c, 0, 83, 0
1, 97560, Note_on_c, 0, 81, 48
1, 97560, Note_on_c, 0, 62, 30
1, 97560, Note_on_c, 0, 60, 25
1, 97674, Note_on_c, 0, 60, 0
1, 97674, Note_on_c, 0, 62, 0
1, 97678, Note_on_c, 0, 81, 0
1, 97680, Note_on_c, 0, 81, 48
1, 97680, Note_on_c, 0, 62, 30
1, 97680, Note_on_c, 0, 60, 25
1, 97794, Note_on_c, 0, 60, 0
1, 97794, Note_on_c, 0, 62, 0
1, 97800, Tempo, 1442654
1, 97800, Note_on_c, 0, 81, 0
1, 97800, Note_on_c, 0, 78, 48
1, 97800, Note_on_c, 0, 62, 30
1, 97800, Note_on_c, 0, 60, 25
1, 97914, Note_on_c, 0, 60, 0
1, 97914, Note_on_c, 0, 62, 0
1, 97920, Tempo, 1363946
1, 97920, Note_on_c, 0, 78, 0
1, 97920, Note_on_c, 0, 67, 38
1, 97920, Note_on_c, 0, 79, 45
1, 97920, Note_on_c, 0, 62, 33
1, 97920, Note_on_c, 0, 59, 28
1, 97920, Note_on_c, 0, 55, 28
1, 97926, Control_c, 0, 64, 0
1, 97991, Control_c, 0, 64, 127
1, 98040, Note_on_c, 0, 79, 0
1, 98040, Note_on_c, 0, 67, 0
1, 98040, Note_on_c, 0, 71, 39
1, 98040, Note_on_c, 0, 83, 47
1, 98160, Note_on_c, 0, 83, 0
1, 98160, Note_on_c, 0, 59, 0
1, 98160, Note_on_c, 0, 55, 0
1, 98160, Note_on_c, 0, 62, 0
1, 98160, Note_on_c, 0, 71, 0
1, 98160, Note_on_c, 0, 74, 42
1, 98160, Note_on_c, 0, 86, 50
1, 98160, Note_on_c, 0, 50, 28
1, 98160, Note_on_c, 0, 54, 28
1, 98160, Note_on_c, 0, 60, 34
1, 98177, Control_c, 0, 64, 0
1, 98220, Note_on_c, 0, 86, 0
1, 98220, Note_on_c, 0, 74, 0
1, 98280, Tempo, 1500375
1, 98280, Note_on_c, 0, 74, 39
1, 98280, Note_on_c, 0, 86, 47
1, 98340, Note_on_c, 0, 86, 0
1, 98340, Note_on_c, 0, 74, 0
1, 98400, Tempo, 1402197
1, 98400, Note_on_c, 0, 60, 0
1, 98400, Note_on_c, 0, 50, 0
1, 98400, Note_on_c, 0, 54, 0
1, 98400, Note_on_c, 0, 67, 32
1, 98400, Note_on_c, 0, 79, 38
1, 98400, Note_on_c, 0, 59, 29
1, 98400, Note_on_c, 0, 55, 24
1, 98499, Control_c, 0, 64, 127
1, 98520, Note_on_c, 0, 79, 0
1, 98520, Note_on_c, 0, 67, 0
1, 98520, Note_on_c, 0, 71, 28
1, 98520, Note_on_c, 0, 83, 34
1, 98640, Note_on_c, 0, 83, 0
1, 98640, Note_on_c, 0, 55, 0
1, 98640, Note_on_c, 0, 59, 0
1, 98640, Note_on_c, 0, 71, 0
1, 98640, Note_on_c, 0, 74, 32
1, 98640, Note_on_c, 0, 86, 38
1, 98640, Note_on_c, 0, 50, 24
1, 98640, Note_on_c, 0, 54, 24
1, 98640, Note_on_c, 0, 60, 29
1, 98645, Control_c, 0, 64, 0
1, 98700, Note_on_c, 0, 86, 0
1, 98700, Note_on_c, 0, 74, 0
1, 98760, Tempo, 1705030
1, 98760, Note_on_c, 0, 74, 27
1, 98760, Note_on_c, 0, 86, 32
1, 98820, Note_on_c, 0, 86, 0
1, 98820, Note_on_c, 0, 74, 0
1, 98880, Tempo, 1485516
1, 98880, Note_on_c, 0, 60, 0
1, 98880, Note_on_c, 0, 50, 0
1, 98880, Note_on_c, 0, 54, 0
1, 98880, Note_on_c, 0, 74, 32
1, 98880, Note_on_c, 0, 86, 38
1, 98880, Note_on_c, 0, 55, 23
1, 98880, Note_on_c, 0, 59, 28
1, 99036, Control_c, 0, 64, 127
1, 99360, Note_on_c, 0, 86, 0
1, 99360, Note_on_c, 0, 74, 0
1, 99360, Note_on_c, 0, 67, 26
1, 99360, Note_on_c, 0, 79, 31
1, 99600, Note_on_c, 0, 79, 0
1, 99600, Note_on_c, 0, 59, 0
1, 99600, Note_on_c, 0, 55, 0
1, 99600, Note_on_c, 0, 67, 0
1, 99996, Control_c, 0, 64, 0
1, 659460, Tempo, 486618
1, 659460, End_track
0, 0, End_of_file
