0, 0, Header, 0, 1, 480
1, 0, Start_track
1, 0, Title_t, "Rachmaninoff: Prelude Opus 23 Nr. 3"
1, 0, Copyright_t, "Copyright © 2013 by Bernd Krueger"
1, 0, Text_t, "Bernd Krueger"
1, 0, Text_t, "Tempo di minuetto"
1, 0, Text_t, "Erstellt: 14.1.2013\012"
1, 0, Text_t, "Dauer: 3:54 Minuten\012"
1, 0, Time_signature, 3, 2, 24, 8
1, 0, Key_signature, -1, "major"
1, 0, Tempo, 862813
1, 0, Marker_t, "Teil 1"
1, 0, Program_c, 0, 0
1, 0, Note_on_c, 0, 58, 48
1, 0, Note_on_c, 0, 62, 48
1, 0, Note_on_c, 0, 64, 48
1, 0, Note_on_c, 0, 70, 60
1, 0, Program_c, 0, 0
1, 0, Note_on_c, 0, 55, 51
1, 0, Note_on_c, 0, 52, 40
1, 0, Note_on_c, 0, 50, 40
1, 0, Note_on_c, 0, 43, 40
1, 0, Program_c, 0, 0
1, 0, Control_c, 0, 64, 127
1, 720, Tempo, 829876
1, 720, Note_on_c, 0, 43, 0
1, 720, Note_on_c, 0, 58, 0
1, 720, Note_on_c, 0, 55, 0
1, 720, Note_on_c, 0, 62, 0
1, 720, Note_on_c, 0, 64, 0
1, 720, Note_on_c, 0, 70, 0
1, 720, Note_on_c, 0, 52, 0
1, 720, Note_on_c, 0, 50, 0
1, 720, Note_on_c, 0, 69, 54
1, 720, Note_on_c, 0, 64, 54
1, 720, Note_on_c, 0, 61, 43
1, 720, Note_on_c, 0, 57, 43
1, 720, Note_on_c, 0, 52, 45
1, 720, Note_on_c, 0, 45, 38
1, 730, Control_c, 0, 64, 0
1, 780, Note_on_c, 0, 45, 0
1, 780, Note_on_c, 0, 64, 0
1, 780, Note_on_c, 0, 61, 0
1, 780, Note_on_c, 0, 69, 0
1, 780, Note_on_c, 0, 52, 0
1, 780, Note_on_c, 0, 57, 0
1, 960, Tempo, 839161
1, 960, Note_on_c, 0, 65, 54
1, 960, Note_on_c, 0, 62, 43
1, 960, Note_on_c, 0, 57, 43
1, 960, Note_on_c, 0, 50, 45
1, 960, Note_on_c, 0, 38, 38
1, 1020, Note_on_c, 0, 38, 0
1, 1020, Note_on_c, 0, 57, 0
1, 1020, Note_on_c, 0, 65, 0
1, 1020, Note_on_c, 0, 62, 0
1, 1020, Note_on_c, 0, 50, 0
1, 1200, Tempo, 904977
1, 1200, Note_on_c, 0, 58, 40
1, 1200, Note_on_c, 0, 62, 40
1, 1200, Note_on_c, 0, 67, 51
1, 1200, Note_on_c, 0, 43, 34
1, 1200, Note_on_c, 0, 50, 41
1, 1260, Note_on_c, 0, 50, 0
1, 1260, Note_on_c, 0, 67, 0
1, 1260, Note_on_c, 0, 58, 0
1, 1260, Note_on_c, 0, 62, 0
1, 1260, Note_on_c, 0, 43, 0
1, 1440, Tempo, 862813
1, 1440, Note_on_c, 0, 57, 43
1, 1440, Note_on_c, 0, 62, 43
1, 1440, Note_on_c, 0, 65, 54
1, 1440, Note_on_c, 0, 38, 38
1, 1440, Note_on_c, 0, 50, 45
1, 1496, Control_c, 0, 64, 127
1, 1728, Tempo, 856409
1, 1767, Tempo, 850220
1, 1786, Tempo, 844001
1, 1797, Note_on_c, 0, 65, 0
1, 1797, Note_on_c, 0, 57, 0
1, 1797, Note_on_c, 0, 62, 0
1, 1800, Note_on_c, 0, 38, 0
1, 1800, Note_on_c, 0, 50, 0
1, 1800, Note_on_c, 0, 57, 43
1, 1800, Note_on_c, 0, 62, 43
1, 1800, Note_on_c, 0, 65, 54
1, 1800, Note_on_c, 0, 45, 53
1, 1807, Control_c, 0, 64, 0
1, 1824, Tempo, 837989
1, 1831, Control_c, 0, 64, 127
1, 1840, Note_on_c, 0, 45, 0
1, 1840, Note_on_c, 0, 47, 60
1, 1843, Tempo, 832062
1, 1880, Note_on_c, 0, 47, 0
1, 1880, Note_on_c, 0, 49, 64
1, 1882, Tempo, 826105
1, 1901, Tempo, 820345
1, 1914, Note_on_c, 0, 65, 0
1, 1914, Note_on_c, 0, 57, 0
1, 1914, Note_on_c, 0, 62, 0
1, 1920, Tempo, 814664
1, 1920, Note_on_c, 0, 49, 0
1, 1920, Note_on_c, 0, 57, 43
1, 1920, Note_on_c, 0, 62, 43
1, 1920, Note_on_c, 0, 65, 54
1, 1920, Note_on_c, 0, 50, 68
1, 1928, Control_c, 0, 64, 0
1, 1980, Note_on_c, 0, 50, 0
1, 2040, Note_on_c, 0, 48, 55
1, 2100, Note_on_c, 0, 48, 0
1, 2160, Note_on_c, 0, 46, 41
1, 2220, Note_on_c, 0, 46, 0
1, 2280, Note_on_c, 0, 45, 45
1, 2340, Note_on_c, 0, 45, 0
1, 2400, Tempo, 826105
1, 2400, Note_on_c, 0, 65, 0
1, 2400, Note_on_c, 0, 62, 0
1, 2400, Note_on_c, 0, 57, 0
1, 2400, Note_on_c, 0, 46, 39
1, 2460, Note_on_c, 0, 46, 0
1, 2520, Note_on_c, 0, 45, 45
1, 2573, Tempo, 797978
1, 2580, Note_on_c, 0, 45, 0
1, 2592, Tempo, 803536
1, 2611, Tempo, 814664
1, 2631, Tempo, 820345
1, 2640, Note_on_c, 0, 43, 44
1, 2650, Tempo, 832062
1, 2669, Tempo, 837989
1, 2688, Tempo, 850220
1, 2700, Note_on_c, 0, 43, 0
1, 2707, Tempo, 856409
1, 2727, Tempo, 869187
1, 2746, Tempo, 882223
1, 2760, Tempo, 1012146
1, 2760, Note_on_c, 0, 41, 44
1, 2820, Note_on_c, 0, 41, 0
1, 2880, Tempo, 862813
1, 2880, Note_on_c, 0, 57, 48
1, 2880, Note_on_c, 0, 60, 48
1, 2880, Note_on_c, 0, 65, 48
1, 2880, Note_on_c, 0, 69, 60
1, 2880, Note_on_c, 0, 53, 51
1, 2880, Note_on_c, 0, 48, 40
1, 2880, Note_on_c, 0, 41, 40
1, 2963, Control_c, 0, 64, 127
1, 3600, Tempo, 829876
1, 3600, Note_on_c, 0, 41, 0
1, 3600, Note_on_c, 0, 53, 0
1, 3600, Note_on_c, 0, 60, 0
1, 3600, Note_on_c, 0, 65, 0
1, 3600, Note_on_c, 0, 57, 0
1, 3600, Note_on_c, 0, 48, 0
1, 3600, Note_on_c, 0, 69, 0
1, 3600, Note_on_c, 0, 67, 54
1, 3600, Note_on_c, 0, 62, 54
1, 3600, Note_on_c, 0, 58, 43
1, 3600, Note_on_c, 0, 55, 43
1, 3600, Note_on_c, 0, 50, 45
1, 3600, Note_on_c, 0, 43, 38
1, 3609, Control_c, 0, 64, 0
1, 3660, Note_on_c, 0, 43, 0
1, 3660, Note_on_c, 0, 62, 0
1, 3660, Note_on_c, 0, 58, 0
1, 3660, Note_on_c, 0, 67, 0
1, 3660, Note_on_c, 0, 50, 0
1, 3660, Note_on_c, 0, 55, 0
1, 3840, Tempo, 833333
1, 3840, Note_on_c, 0, 61, 43
1, 3840, Note_on_c, 0, 64, 54
1, 3840, Note_on_c, 0, 57, 43
1, 3840, Note_on_c, 0, 52, 43
1, 3840, Note_on_c, 0, 45, 45
1, 3900, Note_on_c, 0, 45, 0
1, 3900, Note_on_c, 0, 57, 0
1, 3900, Note_on_c, 0, 61, 0
1, 3900, Note_on_c, 0, 64, 0
1, 3900, Note_on_c, 0, 52, 0
1, 4080, Tempo, 891530
1, 4080, Note_on_c, 0, 57, 40
1, 4080, Note_on_c, 0, 53, 40
1, 4080, Note_on_c, 0, 62, 40
1, 4080, Note_on_c, 0, 65, 51
1, 4080, Note_on_c, 0, 38, 34
1, 4080, Note_on_c, 0, 45, 41
1, 4140, Note_on_c, 0, 45, 0
1, 4140, Note_on_c, 0, 53, 0
1, 4140, Note_on_c, 0, 62, 0
1, 4140, Note_on_c, 0, 57, 0
1, 4140, Note_on_c, 0, 38, 0
1, 4140, Note_on_c, 0, 65, 0
1, 4320, Tempo, 862813
1, 4320, Note_on_c, 0, 52, 43
1, 4320, Note_on_c, 0, 57, 43
1, 4320, Note_on_c, 0, 61, 43
1, 4320, Note_on_c, 0, 64, 54
1, 4320, Note_on_c, 0, 33, 38
1, 4320, Note_on_c, 0, 45, 45
1, 4389, Control_c, 0, 64, 127
1, 4589, Tempo, 856409
1, 4647, Tempo, 850220
1, 4677, Note_on_c, 0, 64, 0
1, 4677, Note_on_c, 0, 57, 0
1, 4677, Note_on_c, 0, 52, 0
1, 4677, Note_on_c, 0, 61, 0
1, 4680, Note_on_c, 0, 45, 0
1, 4680, Note_on_c, 0, 33, 0
1, 4680, Note_on_c, 0, 52, 43
1, 4680, Note_on_c, 0, 57, 43
1, 4680, Note_on_c, 0, 61, 43
1, 4680, Note_on_c, 0, 64, 54
1, 4680, Note_on_c, 0, 40, 53
1, 4685, Tempo, 844001
1, 4689, Control_c, 0, 64, 0
1, 4717, Control_c, 0, 64, 127
1, 4720, Note_on_c, 0, 40, 0
1, 4720, Note_on_c, 0, 41, 60
1, 4723, Tempo, 837989
1, 4760, Note_on_c, 0, 41, 0
1, 4760, Note_on_c, 0, 43, 64
1, 4762, Tempo, 832062
1, 4794, Note_on_c, 0, 64, 0
1, 4794, Note_on_c, 0, 61, 0
1, 4794, Note_on_c, 0, 52, 0
1, 4794, Note_on_c, 0, 57, 0
1, 4800, Tempo, 826105
1, 4800, Note_on_c, 0, 43, 0
1, 4800, Note_on_c, 0, 52, 43
1, 4800, Note_on_c, 0, 57, 43
1, 4800, Note_on_c, 0, 61, 43
1, 4800, Note_on_c, 0, 64, 54
1, 4800, Note_on_c, 0, 45, 68
1, 4814, Control_c, 0, 64, 0
1, 4860, Note_on_c, 0, 45, 0
1, 4920, Note_on_c, 0, 43, 55
1, 4980, Note_on_c, 0, 43, 0
1, 5040, Note_on_c, 0, 41, 41
1, 5100, Note_on_c, 0, 41, 0
1, 5160, Note_on_c, 0, 40, 45
1, 5220, Note_on_c, 0, 40, 0
1, 5280, Note_on_c, 0, 64, 0
1, 5280, Note_on_c, 0, 52, 0
1, 5280, Note_on_c, 0, 57, 0
1, 5280, Note_on_c, 0, 61, 0
1, 5280, Note_on_c, 0, 41, 39
1, 5340, Note_on_c, 0, 41, 0
1, 5357, Tempo, 832062
1, 5400, Note_on_c, 0, 40, 45
1, 5415, Tempo, 837989
1, 5453, Tempo, 844001
1, 5460, Note_on_c, 0, 40, 0
1, 5491, Tempo, 850220
1, 5520, Note_on_c, 0, 38, 44
1, 5549, Tempo, 856409
1, 5580, Note_on_c, 0, 38, 0
1, 5587, Tempo, 862813
1, 5626, Tempo, 869187
1, 5640, Tempo, 884434
1, 5640, Note_on_c, 0, 37, 44
1, 5700, Note_on_c, 0, 37, 0
1, 5760, Tempo, 826105
1, 5760, Note_on_c, 0, 53, 38
1, 5760, Note_on_c, 0, 62, 45
1, 5760, Note_on_c, 0, 38, 33
1, 5820, Note_on_c, 0, 38, 0
1, 5820, Note_on_c, 0, 62, 0
1, 5820, Note_on_c, 0, 53, 0
1, 6000, Tempo, 866676
1, 6000, Note_on_c, 0, 53, 34
1, 6000, Note_on_c, 0, 62, 34
1, 6000, Note_on_c, 0, 65, 40
1, 6000, Note_on_c, 0, 46, 53
1, 6000, Note_on_c, 0, 34, 45
1, 6057, Control_c, 0, 64, 127
1, 6120, Note_on_c, 0, 65, 0
1, 6120, Note_on_c, 0, 62, 0
1, 6120, Note_on_c, 0, 64, 44
1, 6120, Note_on_c, 0, 61, 37
1, 6240, Tempo, 814664
1, 6240, Note_on_c, 0, 61, 0
1, 6240, Note_on_c, 0, 64, 0
1, 6240, Note_on_c, 0, 65, 57
1, 6240, Note_on_c, 0, 62, 48
1, 6251, Control_c, 0, 64, 0
1, 6291, Control_c, 0, 64, 127
1, 6480, Tempo, 797978
1, 6480, Note_on_c, 0, 34, 0
1, 6480, Note_on_c, 0, 46, 0
1, 6480, Note_on_c, 0, 45, 35
1, 6480, Note_on_c, 0, 33, 29
1, 6490, Control_c, 0, 64, 0
1, 6540, Note_on_c, 0, 33, 0
1, 6540, Note_on_c, 0, 45, 0
1, 6720, Tempo, 761325
1, 6720, Note_on_c, 0, 53, 0
1, 6720, Note_on_c, 0, 58, 46
1, 6720, Note_on_c, 0, 29, 32
1, 6720, Note_on_c, 0, 41, 38
1, 6761, Control_c, 0, 64, 127
1, 6780, Note_on_c, 0, 41, 0
1, 6780, Note_on_c, 0, 29, 0
1, 6840, Tempo, 811469
1, 6840, Note_on_c, 0, 58, 0
1, 6840, Note_on_c, 0, 57, 40
1, 6869, Control_c, 0, 64, 0
1, 6960, Note_on_c, 0, 57, 0
1, 6960, Note_on_c, 0, 62, 0
1, 6960, Note_on_c, 0, 65, 0
1, 6960, Note_on_c, 0, 53, 41
1, 6960, Note_on_c, 0, 58, 36
1, 6960, Note_on_c, 0, 61, 44
1, 6960, Note_on_c, 0, 43, 35
1, 6960, Note_on_c, 0, 31, 29
1, 6979, Control_c, 0, 64, 127
1, 7020, Note_on_c, 0, 31, 0
1, 7020, Note_on_c, 0, 61, 0
1, 7020, Note_on_c, 0, 43, 0
1, 7020, Note_on_c, 0, 58, 0
1, 7080, Tempo, 871713
1, 7080, Note_on_c, 0, 53, 0
1, 7080, Note_on_c, 0, 55, 40
1, 7112, Control_c, 0, 64, 0
1, 7200, Tempo, 837989
1, 7200, Note_on_c, 0, 55, 0
1, 7200, Note_on_c, 0, 57, 39
1, 7200, Note_on_c, 0, 53, 39
1, 7200, Note_on_c, 0, 62, 46
1, 7200, Note_on_c, 0, 45, 33
1, 7200, Note_on_c, 0, 38, 33
1, 7260, Note_on_c, 0, 38, 0
1, 7260, Note_on_c, 0, 62, 0
1, 7260, Note_on_c, 0, 57, 0
1, 7260, Note_on_c, 0, 53, 0
1, 7260, Note_on_c, 0, 45, 0
1, 7440, Tempo, 886525
1, 7440, Note_on_c, 0, 53, 34
1, 7440, Note_on_c, 0, 62, 34
1, 7440, Note_on_c, 0, 65, 40
1, 7440, Note_on_c, 0, 46, 41
1, 7440, Note_on_c, 0, 34, 34
1, 7466, Control_c, 0, 64, 127
1, 7560, Note_on_c, 0, 65, 0
1, 7560, Note_on_c, 0, 62, 0
1, 7560, Note_on_c, 0, 64, 44
1, 7560, Note_on_c, 0, 61, 37
1, 7680, Tempo, 837989
1, 7680, Note_on_c, 0, 61, 0
1, 7680, Note_on_c, 0, 64, 0
1, 7680, Note_on_c, 0, 65, 57
1, 7680, Note_on_c, 0, 62, 48
1, 7695, Control_c, 0, 64, 0
1, 7747, Control_c, 0, 64, 127
1, 7920, Tempo, 814664
1, 7920, Note_on_c, 0, 34, 0
1, 7920, Note_on_c, 0, 46, 0
1, 7920, Note_on_c, 0, 45, 35
1, 7920, Note_on_c, 0, 33, 29
1, 7927, Control_c, 0, 64, 0
1, 7980, Note_on_c, 0, 33, 0
1, 7980, Note_on_c, 0, 45, 0
1, 8160, Tempo, 770812
1, 8160, Note_on_c, 0, 53, 0
1, 8160, Note_on_c, 0, 58, 46
1, 8160, Note_on_c, 0, 29, 32
1, 8160, Note_on_c, 0, 41, 38
1, 8220, Note_on_c, 0, 41, 0
1, 8220, Note_on_c, 0, 29, 0
1, 8220, Control_c, 0, 64, 127
1, 8280, Tempo, 800961
1, 8280, Note_on_c, 0, 58, 0
1, 8280, Note_on_c, 0, 57, 40
1, 8309, Control_c, 0, 64, 0
1, 8400, Tempo, 845070
1, 8400, Note_on_c, 0, 57, 0
1, 8400, Note_on_c, 0, 62, 0
1, 8400, Note_on_c, 0, 65, 0
1, 8400, Note_on_c, 0, 53, 41
1, 8400, Note_on_c, 0, 58, 36
1, 8400, Note_on_c, 0, 61, 44
1, 8400, Note_on_c, 0, 43, 35
1, 8400, Note_on_c, 0, 31, 29
1, 8435, Control_c, 0, 64, 127
1, 8460, Note_on_c, 0, 31, 0
1, 8460, Note_on_c, 0, 61, 0
1, 8460, Note_on_c, 0, 43, 0
1, 8460, Note_on_c, 0, 58, 0
1, 8520, Tempo, 897263
1, 8520, Note_on_c, 0, 53, 0
1, 8520, Note_on_c, 0, 55, 40
1, 8530, Control_c, 0, 64, 0
1, 8640, Tempo, 832062
1, 8640, Note_on_c, 0, 55, 0
1, 8640, Note_on_c, 0, 57, 39
1, 8640, Note_on_c, 0, 53, 39
1, 8640, Note_on_c, 0, 62, 46
1, 8640, Note_on_c, 0, 45, 33
1, 8640, Note_on_c, 0, 38, 33
1, 8700, Note_on_c, 0, 38, 0
1, 8700, Note_on_c, 0, 62, 0
1, 8700, Note_on_c, 0, 57, 0
1, 8700, Note_on_c, 0, 53, 0
1, 8700, Note_on_c, 0, 45, 0
1, 8880, Tempo, 803536
1, 8880, Note_on_c, 0, 64, 54
1, 8880, Note_on_c, 0, 57, 45
1, 8880, Note_on_c, 0, 55, 45
1, 8880, Note_on_c, 0, 50, 43
1, 8940, Note_on_c, 0, 55, 0
1, 8940, Note_on_c, 0, 64, 0
1, 8940, Note_on_c, 0, 57, 0
1, 9000, Note_on_c, 0, 50, 0
1, 9000, Note_on_c, 0, 49, 41
1, 9120, Note_on_c, 0, 49, 0
1, 9120, Note_on_c, 0, 65, 61
1, 9120, Note_on_c, 0, 57, 50
1, 9120, Note_on_c, 0, 53, 50
1, 9120, Note_on_c, 0, 50, 54
1, 9139, Tempo, 792602
1, 9210, Note_on_c, 0, 50, 0
1, 9240, Note_on_c, 0, 49, 49
1, 9330, Note_on_c, 0, 49, 0
1, 9360, Note_on_c, 0, 50, 52
1, 9450, Note_on_c, 0, 50, 0
1, 9480, Note_on_c, 0, 49, 57
1, 9570, Note_on_c, 0, 49, 0
1, 9600, Note_on_c, 0, 50, 66
1, 9626, Control_c, 0, 64, 127
1, 9658, Tempo, 787195
1, 9715, Tempo, 792602
1, 9720, Note_on_c, 0, 50, 0
1, 9720, Note_on_c, 0, 48, 56
1, 9773, Tempo, 797978
1, 9811, Tempo, 803536
1, 9840, Note_on_c, 0, 48, 0
1, 9840, Note_on_c, 0, 53, 0
1, 9840, Note_on_c, 0, 57, 0
1, 9840, Note_on_c, 0, 65, 0
1, 9840, Note_on_c, 0, 60, 45
1, 9840, Note_on_c, 0, 62, 45
1, 9840, Note_on_c, 0, 66, 54
1, 9840, Note_on_c, 0, 46, 61
1, 9852, Control_c, 0, 64, 0
1, 9869, Tempo, 809061
1, 9888, Control_c, 0, 64, 127
1, 9927, Tempo, 814664
1, 9960, Note_on_c, 0, 46, 0
1, 9960, Note_on_c, 0, 45, 45
1, 9965, Tempo, 820345
1, 10080, Tempo, 809061
1, 10080, Note_on_c, 0, 45, 0
1, 10080, Note_on_c, 0, 66, 0
1, 10080, Note_on_c, 0, 62, 0
1, 10080, Note_on_c, 0, 60, 0
1, 10080, Note_on_c, 0, 67, 60
1, 10080, Note_on_c, 0, 62, 51
1, 10080, Note_on_c, 0, 58, 51
1, 10080, Note_on_c, 0, 43, 45
1, 10097, Control_c, 0, 64, 0
1, 10137, Control_c, 0, 64, 127
1, 10200, Tempo, 862813
1, 10200, Note_on_c, 0, 43, 0
1, 10200, Note_on_c, 0, 41, 37
1, 10320, Tempo, 806127
1, 10320, Note_on_c, 0, 41, 0
1, 10320, Note_on_c, 0, 58, 0
1, 10320, Note_on_c, 0, 62, 0
1, 10320, Note_on_c, 0, 67, 0
1, 10320, Note_on_c, 0, 68, 56
1, 10320, Note_on_c, 0, 62, 47
1, 10320, Note_on_c, 0, 59, 47
1, 10320, Note_on_c, 0, 40, 45
1, 10333, Control_c, 0, 64, 0
1, 10377, Control_c, 0, 64, 127
1, 10440, Tempo, 869187
1, 10440, Note_on_c, 0, 68, 0
1, 10440, Note_on_c, 0, 69, 54
1, 10560, Tempo, 920810
1, 10560, Note_on_c, 0, 69, 0
1, 10560, Note_on_c, 0, 40, 0
1, 10560, Note_on_c, 0, 59, 0
1, 10560, Note_on_c, 0, 62, 0
1, 10560, Note_on_c, 0, 68, 63
1, 10560, Note_on_c, 0, 62, 53
1, 10560, Note_on_c, 0, 59, 53
1, 10560, Note_on_c, 0, 45, 35
1, 10560, Note_on_c, 0, 53, 45
1, 10572, Control_c, 0, 64, 0
1, 10640, Control_c, 0, 64, 127
1, 11040, Tempo, 979592
1, 11040, Note_on_c, 0, 53, 0
1, 11040, Note_on_c, 0, 68, 0
1, 11040, Note_on_c, 0, 59, 0
1, 11040, Note_on_c, 0, 62, 0
1, 11040, Note_on_c, 0, 57, 45
1, 11040, Note_on_c, 0, 61, 45
1, 11040, Note_on_c, 0, 69, 54
1, 11040, Note_on_c, 0, 52, 38
1, 11055, Control_c, 0, 64, 0
1, 11166, Control_c, 0, 64, 127
1, 11520, Tempo, 862813
1, 11520, Note_on_c, 0, 52, 0
1, 11520, Note_on_c, 0, 61, 0
1, 11520, Note_on_c, 0, 45, 0
1, 11520, Note_on_c, 0, 57, 0
1, 11520, Note_on_c, 0, 69, 0
1, 11520, Note_on_c, 0, 58, 48
1, 11520, Note_on_c, 0, 62, 48
1, 11520, Note_on_c, 0, 64, 48
1, 11520, Note_on_c, 0, 70, 60
1, 11520, Note_on_c, 0, 55, 51
1, 11520, Note_on_c, 0, 52, 40
1, 11520, Note_on_c, 0, 50, 40
1, 11520, Note_on_c, 0, 43, 40
1, 11537, Control_c, 0, 64, 0
1, 11572, Control_c, 0, 64, 127
1, 12240, Tempo, 824176
1, 12240, Note_on_c, 0, 43, 0
1, 12240, Note_on_c, 0, 58, 0
1, 12240, Note_on_c, 0, 55, 0
1, 12240, Note_on_c, 0, 62, 0
1, 12240, Note_on_c, 0, 64, 0
1, 12240, Note_on_c, 0, 70, 0
1, 12240, Note_on_c, 0, 52, 0
1, 12240, Note_on_c, 0, 50, 0
1, 12240, Note_on_c, 0, 69, 54
1, 12240, Note_on_c, 0, 64, 54
1, 12240, Note_on_c, 0, 61, 43
1, 12240, Note_on_c, 0, 57, 43
1, 12240, Note_on_c, 0, 52, 45
1, 12240, Note_on_c, 0, 45, 38
1, 12250, Control_c, 0, 64, 0
1, 12300, Note_on_c, 0, 45, 0
1, 12300, Note_on_c, 0, 64, 0
1, 12300, Note_on_c, 0, 61, 0
1, 12300, Note_on_c, 0, 69, 0
1, 12300, Note_on_c, 0, 52, 0
1, 12300, Note_on_c, 0, 57, 0
1, 12480, Tempo, 827586
1, 12480, Note_on_c, 0, 65, 54
1, 12480, Note_on_c, 0, 62, 43
1, 12480, Note_on_c, 0, 57, 43
1, 12480, Note_on_c, 0, 50, 45
1, 12540, Note_on_c, 0, 50, 0
1, 12540, Note_on_c, 0, 65, 0
1, 12540, Note_on_c, 0, 62, 0
1, 12540, Note_on_c, 0, 57, 0
1, 12720, Tempo, 891530
1, 12720, Note_on_c, 0, 58, 40
1, 12720, Note_on_c, 0, 62, 40
1, 12720, Note_on_c, 0, 67, 51
1, 12720, Note_on_c, 0, 43, 34
1, 12720, Note_on_c, 0, 50, 41
1, 12780, Note_on_c, 0, 50, 0
1, 12780, Note_on_c, 0, 67, 0
1, 12780, Note_on_c, 0, 58, 0
1, 12780, Note_on_c, 0, 62, 0
1, 12780, Note_on_c, 0, 43, 0
1, 12960, Tempo, 862813
1, 12960, Note_on_c, 0, 57, 43
1, 12960, Note_on_c, 0, 62, 43
1, 12960, Note_on_c, 0, 65, 54
1, 12960, Note_on_c, 0, 38, 38
1, 12960, Note_on_c, 0, 50, 45
1, 13016, Control_c, 0, 64, 127
1, 13248, Tempo, 856409
1, 13287, Tempo, 850220
1, 13306, Tempo, 844001
1, 13317, Note_on_c, 0, 65, 0
1, 13317, Note_on_c, 0, 57, 0
1, 13317, Note_on_c, 0, 62, 0
1, 13320, Note_on_c, 0, 38, 0
1, 13320, Note_on_c, 0, 50, 0
1, 13320, Note_on_c, 0, 57, 43
1, 13320, Note_on_c, 0, 62, 43
1, 13320, Note_on_c, 0, 65, 54
1, 13320, Note_on_c, 0, 45, 53
1, 13327, Control_c, 0, 64, 0
1, 13344, Tempo, 837989
1, 13351, Control_c, 0, 64, 127
1, 13360, Note_on_c, 0, 45, 0
1, 13360, Note_on_c, 0, 47, 60
1, 13363, Tempo, 832062
1, 13400, Note_on_c, 0, 47, 0
1, 13400, Note_on_c, 0, 49, 64
1, 13402, Tempo, 826105
1, 13421, Tempo, 820345
1, 13434, Note_on_c, 0, 65, 0
1, 13434, Note_on_c, 0, 57, 0
1, 13434, Note_on_c, 0, 62, 0
1, 13440, Tempo, 814664
1, 13440, Note_on_c, 0, 49, 0
1, 13440, Note_on_c, 0, 57, 43
1, 13440, Note_on_c, 0, 62, 43
1, 13440, Note_on_c, 0, 65, 54
1, 13440, Note_on_c, 0, 50, 68
1, 13448, Control_c, 0, 64, 0
1, 13500, Note_on_c, 0, 50, 0
1, 13560, Note_on_c, 0, 48, 55
1, 13620, Note_on_c, 0, 48, 0
1, 13680, Note_on_c, 0, 46, 41
1, 13740, Note_on_c, 0, 46, 0
1, 13800, Note_on_c, 0, 45, 45
1, 13860, Note_on_c, 0, 45, 0
1, 13920, Tempo, 826105
1, 13920, Note_on_c, 0, 65, 0
1, 13920, Note_on_c, 0, 62, 0
1, 13920, Note_on_c, 0, 57, 0
1, 13920, Note_on_c, 0, 46, 39
1, 13980, Note_on_c, 0, 46, 0
1, 14040, Note_on_c, 0, 45, 45
1, 14093, Tempo, 797978
1, 14100, Note_on_c, 0, 45, 0
1, 14112, Tempo, 803536
1, 14131, Tempo, 814664
1, 14151, Tempo, 820345
1, 14160, Note_on_c, 0, 43, 44
1, 14170, Tempo, 832062
1, 14189, Tempo, 837989
1, 14208, Tempo, 850220
1, 14220, Note_on_c, 0, 43, 0
1, 14227, Tempo, 856409
1, 14247, Tempo, 869187
1, 14266, Tempo, 882223
1, 14280, Tempo, 1012146
1, 14280, Note_on_c, 0, 41, 44
1, 14340, Note_on_c, 0, 41, 0
1, 14400, Tempo, 862813
1, 14400, Note_on_c, 0, 57, 48
1, 14400, Note_on_c, 0, 60, 48
1, 14400, Note_on_c, 0, 63, 48
1, 14400, Note_on_c, 0, 69, 60
1, 14400, Note_on_c, 0, 51, 51
1, 14400, Note_on_c, 0, 42, 40
1, 14483, Control_c, 0, 64, 127
1, 15120, Tempo, 835655
1, 15120, Note_on_c, 0, 42, 0
1, 15120, Note_on_c, 0, 60, 0
1, 15120, Note_on_c, 0, 63, 0
1, 15120, Note_on_c, 0, 57, 0
1, 15120, Note_on_c, 0, 51, 0
1, 15120, Note_on_c, 0, 69, 0
1, 15120, Note_on_c, 0, 67, 54
1, 15120, Note_on_c, 0, 62, 54
1, 15120, Note_on_c, 0, 58, 43
1, 15120, Note_on_c, 0, 55, 43
1, 15120, Note_on_c, 0, 50, 45
1, 15120, Note_on_c, 0, 43, 38
1, 15129, Control_c, 0, 64, 0
1, 15180, Note_on_c, 0, 43, 0
1, 15180, Note_on_c, 0, 62, 0
1, 15180, Note_on_c, 0, 58, 0
1, 15180, Note_on_c, 0, 67, 0
1, 15180, Note_on_c, 0, 50, 0
1, 15180, Note_on_c, 0, 55, 0
1, 15360, Tempo, 839161
1, 15360, Note_on_c, 0, 61, 43
1, 15360, Note_on_c, 0, 64, 54
1, 15360, Note_on_c, 0, 57, 43
1, 15360, Note_on_c, 0, 52, 43
1, 15360, Note_on_c, 0, 45, 45
1, 15420, Note_on_c, 0, 45, 0
1, 15420, Note_on_c, 0, 57, 0
1, 15420, Note_on_c, 0, 61, 0
1, 15420, Note_on_c, 0, 64, 0
1, 15420, Note_on_c, 0, 52, 0
1, 15600, Tempo, 891530
1, 15600, Note_on_c, 0, 57, 40
1, 15600, Note_on_c, 0, 53, 40
1, 15600, Note_on_c, 0, 62, 40
1, 15600, Note_on_c, 0, 65, 51
1, 15600, Note_on_c, 0, 38, 34
1, 15600, Note_on_c, 0, 45, 41
1, 15660, Note_on_c, 0, 45, 0
1, 15660, Note_on_c, 0, 53, 0
1, 15660, Note_on_c, 0, 62, 0
1, 15660, Note_on_c, 0, 57, 0
1, 15660, Note_on_c, 0, 38, 0
1, 15660, Note_on_c, 0, 65, 0
1, 15840, Tempo, 862813
1, 15840, Note_on_c, 0, 52, 43
1, 15840, Note_on_c, 0, 57, 43
1, 15840, Note_on_c, 0, 61, 43
1, 15840, Note_on_c, 0, 64, 54
1, 15840, Note_on_c, 0, 33, 38
1, 15840, Note_on_c, 0, 45, 45
1, 15909, Control_c, 0, 64, 127
1, 16109, Tempo, 856409
1, 16167, Tempo, 850220
1, 16197, Note_on_c, 0, 64, 0
1, 16197, Note_on_c, 0, 57, 0
1, 16197, Note_on_c, 0, 52, 0
1, 16197, Note_on_c, 0, 61, 0
1, 16200, Note_on_c, 0, 45, 0
1, 16200, Note_on_c, 0, 33, 0
1, 16200, Note_on_c, 0, 52, 43
1, 16200, Note_on_c, 0, 57, 43
1, 16200, Note_on_c, 0, 61, 43
1, 16200, Note_on_c, 0, 64, 54
1, 16200, Note_on_c, 0, 40, 53
1, 16205, Tempo, 844001
1, 16209, Control_c, 0, 64, 0
1, 16237, Control_c, 0, 64, 127
1, 16240, Note_on_c, 0, 40, 0
1, 16240, Note_on_c, 0, 41, 60
1, 16243, Tempo, 837989
1, 16280, Note_on_c, 0, 41, 0
1, 16280, Note_on_c, 0, 43, 64
1, 16282, Tempo, 832062
1, 16314, Note_on_c, 0, 64, 0
1, 16314, Note_on_c, 0, 61, 0
1, 16314, Note_on_c, 0, 52, 0
1, 16314, Note_on_c, 0, 57, 0
1, 16320, Tempo, 826105
1, 16320, Note_on_c, 0, 43, 0
1, 16320, Note_on_c, 0, 52, 43
1, 16320, Note_on_c, 0, 57, 43
1, 16320, Note_on_c, 0, 61, 43
1, 16320, Note_on_c, 0, 64, 54
1, 16320, Note_on_c, 0, 45, 68
1, 16334, Control_c, 0, 64, 0
1, 16380, Note_on_c, 0, 45, 0
1, 16440, Note_on_c, 0, 43, 55
1, 16500, Note_on_c, 0, 43, 0
1, 16560, Note_on_c, 0, 41, 41
1, 16620, Note_on_c, 0, 41, 0
1, 16680, Note_on_c, 0, 40, 45
1, 16740, Note_on_c, 0, 40, 0
1, 16800, Note_on_c, 0, 64, 0
1, 16800, Note_on_c, 0, 52, 0
1, 16800, Note_on_c, 0, 57, 0
1, 16800, Note_on_c, 0, 61, 0
1, 16800, Note_on_c, 0, 41, 39
1, 16860, Note_on_c, 0, 41, 0
1, 16877, Tempo, 832062
1, 16920, Note_on_c, 0, 40, 45
1, 16935, Tempo, 837989
1, 16973, Tempo, 844001
1, 16980, Note_on_c, 0, 40, 0
1, 17011, Tempo, 850220
1, 17040, Note_on_c, 0, 38, 44
1, 17069, Tempo, 856409
1, 17100, Note_on_c, 0, 38, 0
1, 17107, Tempo, 862813
1, 17146, Tempo, 869187
1, 17160, Tempo, 884434
1, 17160, Note_on_c, 0, 37, 44
1, 17220, Note_on_c, 0, 37, 0
1, 17280, Tempo, 826105
1, 17280, Note_on_c, 0, 53, 38
1, 17280, Note_on_c, 0, 62, 45
1, 17280, Note_on_c, 0, 38, 33
1, 17340, Note_on_c, 0, 38, 0
1, 17340, Note_on_c, 0, 62, 0
1, 17340, Note_on_c, 0, 53, 0
1, 17520, Tempo, 860215
1, 17520, Note_on_c, 0, 53, 34
1, 17520, Note_on_c, 0, 62, 34
1, 17520, Note_on_c, 0, 65, 40
1, 17520, Note_on_c, 0, 46, 53
1, 17520, Note_on_c, 0, 34, 45
1, 17577, Control_c, 0, 64, 127
1, 17640, Note_on_c, 0, 65, 0
1, 17640, Note_on_c, 0, 62, 0
1, 17640, Note_on_c, 0, 64, 44
1, 17640, Note_on_c, 0, 61, 37
1, 17760, Tempo, 814664
1, 17760, Note_on_c, 0, 61, 0
1, 17760, Note_on_c, 0, 64, 0
1, 17760, Note_on_c, 0, 65, 57
1, 17760, Note_on_c, 0, 62, 48
1, 17771, Control_c, 0, 64, 0
1, 17811, Control_c, 0, 64, 127
1, 18000, Tempo, 797978
1, 18000, Note_on_c, 0, 34, 0
1, 18000, Note_on_c, 0, 46, 0
1, 18000, Note_on_c, 0, 45, 35
1, 18000, Note_on_c, 0, 33, 29
1, 18010, Control_c, 0, 64, 0
1, 18060, Note_on_c, 0, 33, 0
1, 18060, Note_on_c, 0, 45, 0
1, 18240, Tempo, 768836
1, 18240, Note_on_c, 0, 53, 0
1, 18240, Note_on_c, 0, 58, 46
1, 18240, Note_on_c, 0, 29, 32
1, 18240, Note_on_c, 0, 41, 38
1, 18281, Control_c, 0, 64, 127
1, 18300, Note_on_c, 0, 41, 0
1, 18300, Note_on_c, 0, 29, 0
1, 18360, Tempo, 811469
1, 18360, Note_on_c, 0, 58, 0
1, 18360, Note_on_c, 0, 57, 40
1, 18389, Control_c, 0, 64, 0
1, 18480, Note_on_c, 0, 57, 0
1, 18480, Note_on_c, 0, 62, 0
1, 18480, Note_on_c, 0, 65, 0
1, 18480, Note_on_c, 0, 53, 41
1, 18480, Note_on_c, 0, 58, 36
1, 18480, Note_on_c, 0, 61, 44
1, 18480, Note_on_c, 0, 43, 35
1, 18480, Note_on_c, 0, 31, 29
1, 18499, Control_c, 0, 64, 127
1, 18540, Note_on_c, 0, 31, 0
1, 18540, Note_on_c, 0, 61, 0
1, 18540, Note_on_c, 0, 43, 0
1, 18540, Note_on_c, 0, 58, 0
1, 18600, Tempo, 871713
1, 18600, Note_on_c, 0, 53, 0
1, 18600, Note_on_c, 0, 55, 40
1, 18632, Control_c, 0, 64, 0
1, 18720, Tempo, 800961
1, 18720, Note_on_c, 0, 55, 0
1, 18720, Note_on_c, 0, 57, 39
1, 18720, Note_on_c, 0, 53, 39
1, 18720, Note_on_c, 0, 62, 48
1, 18720, Note_on_c, 0, 45, 33
1, 18720, Note_on_c, 0, 38, 33
1, 18780, Note_on_c, 0, 38, 0
1, 18780, Note_on_c, 0, 45, 0
1, 18840, Tempo, 780640
1, 18840, Note_on_c, 0, 62, 0
1, 18840, Note_on_c, 0, 57, 0
1, 18840, Note_on_c, 0, 64, 58
1, 18840, Note_on_c, 0, 61, 49
1, 18884, Control_c, 0, 64, 127
1, 18960, Tempo, 787195
1, 18960, Note_on_c, 0, 61, 0
1, 18960, Note_on_c, 0, 64, 0
1, 18960, Note_on_c, 0, 53, 0
1, 18960, Note_on_c, 0, 53, 45
1, 18960, Note_on_c, 0, 62, 45
1, 18960, Note_on_c, 0, 65, 54
1, 18960, Note_on_c, 0, 46, 63
1, 18960, Note_on_c, 0, 34, 53
1, 19080, Note_on_c, 0, 65, 0
1, 19080, Note_on_c, 0, 62, 0
1, 19080, Note_on_c, 0, 64, 58
1, 19080, Note_on_c, 0, 61, 49
1, 19200, Tempo, 837989
1, 19200, Note_on_c, 0, 61, 0
1, 19200, Note_on_c, 0, 64, 0
1, 19200, Note_on_c, 0, 65, 70
1, 19200, Note_on_c, 0, 62, 59
1, 19215, Control_c, 0, 64, 0
1, 19267, Control_c, 0, 64, 127
1, 19440, Tempo, 814664
1, 19440, Note_on_c, 0, 34, 0
1, 19440, Note_on_c, 0, 46, 0
1, 19440, Note_on_c, 0, 45, 35
1, 19440, Note_on_c, 0, 33, 29
1, 19447, Control_c, 0, 64, 0
1, 19500, Note_on_c, 0, 33, 0
1, 19500, Note_on_c, 0, 45, 0
1, 19680, Tempo, 770812
1, 19680, Note_on_c, 0, 53, 0
1, 19680, Note_on_c, 0, 58, 46
1, 19680, Note_on_c, 0, 29, 32
1, 19680, Note_on_c, 0, 41, 38
1, 19740, Note_on_c, 0, 41, 0
1, 19740, Note_on_c, 0, 29, 0
1, 19740, Control_c, 0, 64, 127
1, 19800, Tempo, 800961
1, 19800, Note_on_c, 0, 58, 0
1, 19800, Note_on_c, 0, 57, 40
1, 19829, Control_c, 0, 64, 0
1, 19920, Tempo, 845070
1, 19920, Note_on_c, 0, 57, 0
1, 19920, Note_on_c, 0, 62, 0
1, 19920, Note_on_c, 0, 65, 0
1, 19920, Note_on_c, 0, 53, 41
1, 19920, Note_on_c, 0, 58, 36
1, 19920, Note_on_c, 0, 61, 44
1, 19920, Note_on_c, 0, 43, 35
1, 19920, Note_on_c, 0, 31, 29
1, 19955, Control_c, 0, 64, 127
1, 19980, Note_on_c, 0, 31, 0
1, 19980, Note_on_c, 0, 61, 0
1, 19980, Note_on_c, 0, 43, 0
1, 19980, Note_on_c, 0, 58, 0
1, 20040, Tempo, 897263
1, 20040, Note_on_c, 0, 53, 0
1, 20040, Note_on_c, 0, 55, 40
1, 20050, Control_c, 0, 64, 0
1, 20160, Tempo, 832062
1, 20160, Note_on_c, 0, 55, 0
1, 20160, Note_on_c, 0, 57, 39
1, 20160, Note_on_c, 0, 53, 39
1, 20160, Note_on_c, 0, 62, 46
1, 20160, Note_on_c, 0, 45, 33
1, 20160, Note_on_c, 0, 38, 33
1, 20220, Note_on_c, 0, 38, 0
1, 20220, Note_on_c, 0, 62, 0
1, 20220, Note_on_c, 0, 57, 0
1, 20220, Note_on_c, 0, 53, 0
1, 20220, Note_on_c, 0, 45, 0
1, 20280, Tempo, 844001
1, 20280, Note_on_c, 0, 45, 53
1, 20280, Control_c, 0, 64, 127
1, 20304, Tempo, 837989
1, 20320, Note_on_c, 0, 45, 0
1, 20320, Note_on_c, 0, 47, 60
1, 20323, Tempo, 832062
1, 20360, Note_on_c, 0, 47, 0
1, 20360, Note_on_c, 0, 49, 64
1, 20362, Tempo, 826105
1, 20381, Tempo, 820345
1, 20400, Note_on_c, 0, 49, 0
1, 20400, Note_on_c, 0, 64, 54
1, 20400, Note_on_c, 0, 57, 45
1, 20400, Note_on_c, 0, 55, 45
1, 20400, Note_on_c, 0, 50, 68
1, 20410, Control_c, 0, 64, 0
1, 20460, Note_on_c, 0, 50, 0
1, 20460, Note_on_c, 0, 64, 0
1, 20460, Note_on_c, 0, 57, 0
1, 20460, Note_on_c, 0, 55, 0
1, 20520, Note_on_c, 0, 49, 54
1, 20580, Note_on_c, 0, 49, 0
1, 20640, Note_on_c, 0, 65, 61
1, 20640, Note_on_c, 0, 57, 50
1, 20640, Note_on_c, 0, 53, 50
1, 20640, Note_on_c, 0, 50, 54
1, 20659, Tempo, 792602
1, 20730, Note_on_c, 0, 50, 0
1, 20760, Note_on_c, 0, 49, 49
1, 20850, Note_on_c, 0, 49, 0
1, 20880, Note_on_c, 0, 50, 52
1, 20970, Note_on_c, 0, 50, 0
1, 21000, Note_on_c, 0, 49, 57
1, 21090, Note_on_c, 0, 49, 0
1, 21120, Note_on_c, 0, 50, 66
1, 21146, Control_c, 0, 64, 127
1, 21178, Tempo, 787195
1, 21235, Tempo, 792602
1, 21240, Note_on_c, 0, 50, 0
1, 21240, Note_on_c, 0, 48, 56
1, 21293, Tempo, 797978
1, 21331, Tempo, 803536
1, 21360, Note_on_c, 0, 48, 0
1, 21360, Note_on_c, 0, 53, 0
1, 21360, Note_on_c, 0, 57, 0
1, 21360, Note_on_c, 0, 65, 0
1, 21360, Note_on_c, 0, 60, 45
1, 21360, Note_on_c, 0, 62, 45
1, 21360, Note_on_c, 0, 66, 54
1, 21360, Note_on_c, 0, 46, 61
1, 21372, Control_c, 0, 64, 0
1, 21389, Tempo, 809061
1, 21408, Control_c, 0, 64, 127
1, 21447, Tempo, 814664
1, 21480, Note_on_c, 0, 46, 0
1, 21480, Note_on_c, 0, 45, 45
1, 21485, Tempo, 820345
1, 21600, Tempo, 809061
1, 21600, Note_on_c, 0, 45, 0
1, 21600, Note_on_c, 0, 66, 0
1, 21600, Note_on_c, 0, 62, 0
1, 21600, Note_on_c, 0, 60, 0
1, 21600, Note_on_c, 0, 67, 60
1, 21600, Note_on_c, 0, 62, 51
1, 21600, Note_on_c, 0, 58, 51
1, 21600, Note_on_c, 0, 43, 45
1, 21617, Control_c, 0, 64, 0
1, 21657, Control_c, 0, 64, 127
1, 21706, Note_on_c, 0, 40, 37
1, 21720, Tempo, 862813
1, 21720, Note_on_c, 0, 43, 0
1, 21826, Note_on_c, 0, 40, 0
1, 21840, Tempo, 806127
1, 21840, Note_on_c, 0, 67, 0
1, 21840, Note_on_c, 0, 62, 0
1, 21840, Note_on_c, 0, 58, 0
1, 21840, Note_on_c, 0, 69, 56
1, 21840, Note_on_c, 0, 62, 47
1, 21840, Note_on_c, 0, 57, 47
1, 21840, Note_on_c, 0, 41, 45
1, 21853, Control_c, 0, 64, 0
1, 21897, Control_c, 0, 64, 127
1, 21960, Tempo, 1204819
1, 22080, Tempo, 1038062
1, 22080, Note_on_c, 0, 41, 0
1, 22080, Note_on_c, 0, 69, 0
1, 22080, Note_on_c, 0, 62, 0
1, 22080, Note_on_c, 0, 57, 0
1, 22080, Note_on_c, 0, 73, 63
1, 22080, Note_on_c, 0, 67, 53
1, 22080, Note_on_c, 0, 61, 53
1, 22080, Note_on_c, 0, 45, 35
1, 22080, Note_on_c, 0, 55, 45
1, 22080, Note_on_c, 0, 52, 35
1, 22092, Control_c, 0, 64, 0
1, 22160, Control_c, 0, 64, 127
1, 22560, Tempo, 1102536
1, 22560, Note_on_c, 0, 52, 0
1, 22560, Note_on_c, 0, 67, 0
1, 22560, Note_on_c, 0, 61, 0
1, 22560, Note_on_c, 0, 73, 0
1, 22560, Note_on_c, 0, 55, 0
1, 22560, Note_on_c, 0, 45, 0
1, 22560, Note_on_c, 0, 62, 36
1, 22560, Note_on_c, 0, 65, 36
1, 22560, Note_on_c, 0, 69, 36
1, 22560, Note_on_c, 0, 74, 43
1, 22560, Note_on_c, 0, 38, 28
1, 22560, Note_on_c, 0, 45, 28
1, 22560, Note_on_c, 0, 53, 30
1, 22575, Control_c, 0, 64, 0
1, 22686, Control_c, 0, 64, 127
1, 23040, Tempo, 862813
1, 23040, Marker_t, "Teil 1 Wiederholung"
1, 23040, Note_on_c, 0, 53, 0
1, 23040, Note_on_c, 0, 38, 0
1, 23040, Note_on_c, 0, 65, 0
1, 23040, Note_on_c, 0, 69, 0
1, 23040, Note_on_c, 0, 62, 0
1, 23040, Note_on_c, 0, 45, 0
1, 23040, Note_on_c, 0, 74, 0
1, 23040, Note_on_c, 0, 58, 48
1, 23040, Note_on_c, 0, 62, 48
1, 23040, Note_on_c, 0, 64, 48
1, 23040, Note_on_c, 0, 70, 60
1, 23040, Note_on_c, 0, 55, 51
1, 23040, Note_on_c, 0, 52, 40
1, 23040, Note_on_c, 0, 50, 40
1, 23040, Note_on_c, 0, 43, 40
1, 23047, Control_c, 0, 64, 0
1, 23112, Control_c, 0, 64, 127
1, 23760, Tempo, 829876
1, 23760, Note_on_c, 0, 43, 0
1, 23760, Note_on_c, 0, 58, 0
1, 23760, Note_on_c, 0, 55, 0
1, 23760, Note_on_c, 0, 62, 0
1, 23760, Note_on_c, 0, 64, 0
1, 23760, Note_on_c, 0, 70, 0
1, 23760, Note_on_c, 0, 52, 0
1, 23760, Note_on_c, 0, 50, 0
1, 23760, Note_on_c, 0, 69, 54
1, 23760, Note_on_c, 0, 64, 54
1, 23760, Note_on_c, 0, 61, 43
1, 23760, Note_on_c, 0, 57, 43
1, 23760, Note_on_c, 0, 52, 45
1, 23760, Note_on_c, 0, 45, 38
1, 23770, Control_c, 0, 64, 0
1, 23820, Note_on_c, 0, 45, 0
1, 23820, Note_on_c, 0, 64, 0
1, 23820, Note_on_c, 0, 61, 0
1, 23820, Note_on_c, 0, 69, 0
1, 23820, Note_on_c, 0, 52, 0
1, 23820, Note_on_c, 0, 57, 0
1, 24000, Tempo, 845070
1, 24000, Note_on_c, 0, 65, 54
1, 24000, Note_on_c, 0, 62, 43
1, 24000, Note_on_c, 0, 57, 43
1, 24000, Note_on_c, 0, 50, 45
1, 24000, Note_on_c, 0, 38, 38
1, 24060, Note_on_c, 0, 38, 0
1, 24060, Note_on_c, 0, 57, 0
1, 24060, Note_on_c, 0, 65, 0
1, 24060, Note_on_c, 0, 62, 0
1, 24060, Note_on_c, 0, 50, 0
1, 24240, Tempo, 911854
1, 24240, Note_on_c, 0, 58, 40
1, 24240, Note_on_c, 0, 62, 40
1, 24240, Note_on_c, 0, 67, 51
1, 24240, Note_on_c, 0, 43, 34
1, 24240, Note_on_c, 0, 50, 41
1, 24300, Note_on_c, 0, 50, 0
1, 24300, Note_on_c, 0, 67, 0
1, 24300, Note_on_c, 0, 58, 0
1, 24300, Note_on_c, 0, 62, 0
1, 24300, Note_on_c, 0, 43, 0
1, 24480, Tempo, 862813
1, 24480, Note_on_c, 0, 57, 43
1, 24480, Note_on_c, 0, 62, 43
1, 24480, Note_on_c, 0, 65, 54
1, 24480, Note_on_c, 0, 38, 38
1, 24480, Note_on_c, 0, 50, 45
1, 24536, Control_c, 0, 64, 127
1, 24768, Tempo, 856409
1, 24807, Tempo, 850220
1, 24826, Tempo, 844001
1, 24837, Note_on_c, 0, 65, 0
1, 24837, Note_on_c, 0, 57, 0
1, 24837, Note_on_c, 0, 62, 0
1, 24840, Note_on_c, 0, 38, 0
1, 24840, Note_on_c, 0, 50, 0
1, 24840, Note_on_c, 0, 57, 43
1, 24840, Note_on_c, 0, 62, 43
1, 24840, Note_on_c, 0, 65, 54
1, 24840, Note_on_c, 0, 45, 53
1, 24847, Control_c, 0, 64, 0
1, 24864, Tempo, 837989
1, 24871, Control_c, 0, 64, 127
1, 24880, Note_on_c, 0, 45, 0
1, 24880, Note_on_c, 0, 47, 60
1, 24883, Tempo, 832062
1, 24920, Note_on_c, 0, 47, 0
1, 24920, Note_on_c, 0, 49, 64
1, 24922, Tempo, 826105
1, 24941, Tempo, 820345
1, 24954, Note_on_c, 0, 65, 0
1, 24954, Note_on_c, 0, 57, 0
1, 24954, Note_on_c, 0, 62, 0
1, 24960, Tempo, 814664
1, 24960, Note_on_c, 0, 49, 0
1, 24960, Note_on_c, 0, 57, 43
1, 24960, Note_on_c, 0, 62, 43
1, 24960, Note_on_c, 0, 65, 54
1, 24960, Note_on_c, 0, 50, 68
1, 24968, Control_c, 0, 64, 0
1, 25020, Note_on_c, 0, 50, 0
1, 25080, Note_on_c, 0, 48, 55
1, 25140, Note_on_c, 0, 48, 0
1, 25200, Note_on_c, 0, 46, 41
1, 25260, Note_on_c, 0, 46, 0
1, 25320, Note_on_c, 0, 45, 45
1, 25380, Note_on_c, 0, 45, 0
1, 25440, Tempo, 826105
1, 25440, Note_on_c, 0, 65, 0
1, 25440, Note_on_c, 0, 62, 0
1, 25440, Note_on_c, 0, 57, 0
1, 25440, Note_on_c, 0, 46, 39
1, 25500, Note_on_c, 0, 46, 0
1, 25560, Note_on_c, 0, 45, 45
1, 25613, Tempo, 797978
1, 25620, Note_on_c, 0, 45, 0
1, 25632, Tempo, 803536
1, 25651, Tempo, 814664
1, 25671, Tempo, 820345
1, 25680, Note_on_c, 0, 43, 44
1, 25690, Tempo, 832062
1, 25709, Tempo, 837989
1, 25728, Tempo, 850220
1, 25740, Note_on_c, 0, 43, 0
1, 25747, Tempo, 856409
1, 25767, Tempo, 869187
1, 25786, Tempo, 882223
1, 25800, Tempo, 1012146
1, 25800, Note_on_c, 0, 41, 44
1, 25860, Note_on_c, 0, 41, 0
1, 25920, Tempo, 862813
1, 25920, Note_on_c, 0, 57, 48
1, 25920, Note_on_c, 0, 60, 48
1, 25920, Note_on_c, 0, 65, 48
1, 25920, Note_on_c, 0, 69, 60
1, 25920, Note_on_c, 0, 53, 51
1, 25920, Note_on_c, 0, 48, 40
1, 25920, Note_on_c, 0, 41, 40
1, 26003, Control_c, 0, 64, 127
1, 26640, Tempo, 824176
1, 26640, Note_on_c, 0, 41, 0
1, 26640, Note_on_c, 0, 53, 0
1, 26640, Note_on_c, 0, 60, 0
1, 26640, Note_on_c, 0, 65, 0
1, 26640, Note_on_c, 0, 57, 0
1, 26640, Note_on_c, 0, 48, 0
1, 26640, Note_on_c, 0, 69, 0
1, 26640, Note_on_c, 0, 67, 54
1, 26640, Note_on_c, 0, 62, 54
1, 26640, Note_on_c, 0, 58, 43
1, 26640, Note_on_c, 0, 55, 43
1, 26640, Note_on_c, 0, 50, 45
1, 26640, Note_on_c, 0, 43, 38
1, 26649, Control_c, 0, 64, 0
1, 26700, Note_on_c, 0, 43, 0
1, 26700, Note_on_c, 0, 62, 0
1, 26700, Note_on_c, 0, 58, 0
1, 26700, Note_on_c, 0, 67, 0
1, 26700, Note_on_c, 0, 50, 0
1, 26700, Note_on_c, 0, 55, 0
1, 26880, Tempo, 845070
1, 26880, Note_on_c, 0, 61, 43
1, 26880, Note_on_c, 0, 64, 54
1, 26880, Note_on_c, 0, 57, 43
1, 26880, Note_on_c, 0, 52, 43
1, 26880, Note_on_c, 0, 45, 45
1, 26940, Note_on_c, 0, 45, 0
1, 26940, Note_on_c, 0, 57, 0
1, 26940, Note_on_c, 0, 61, 0
1, 26940, Note_on_c, 0, 64, 0
1, 26940, Note_on_c, 0, 52, 0
1, 27120, Tempo, 911854
1, 27120, Note_on_c, 0, 57, 40
1, 27120, Note_on_c, 0, 53, 40
1, 27120, Note_on_c, 0, 62, 40
1, 27120, Note_on_c, 0, 65, 51
1, 27120, Note_on_c, 0, 38, 34
1, 27120, Note_on_c, 0, 45, 41
1, 27180, Note_on_c, 0, 45, 0
1, 27180, Note_on_c, 0, 53, 0
1, 27180, Note_on_c, 0, 62, 0
1, 27180, Note_on_c, 0, 57, 0
1, 27180, Note_on_c, 0, 38, 0
1, 27180, Note_on_c, 0, 65, 0
1, 27360, Tempo, 862813
1, 27360, Note_on_c, 0, 52, 43
1, 27360, Note_on_c, 0, 57, 43
1, 27360, Note_on_c, 0, 61, 43
1, 27360, Note_on_c, 0, 64, 54
1, 27360, Note_on_c, 0, 33, 38
1, 27360, Note_on_c, 0, 45, 45
1, 27429, Control_c, 0, 64, 127
1, 27629, Tempo, 856409
1, 27687, Tempo, 850220
1, 27717, Note_on_c, 0, 64, 0
1, 27717, Note_on_c, 0, 57, 0
1, 27717, Note_on_c, 0, 52, 0
1, 27717, Note_on_c, 0, 61, 0
1, 27720, Note_on_c, 0, 45, 0
1, 27720, Note_on_c, 0, 33, 0
1, 27720, Note_on_c, 0, 52, 43
1, 27720, Note_on_c, 0, 57, 43
1, 27720, Note_on_c, 0, 61, 43
1, 27720, Note_on_c, 0, 64, 54
1, 27720, Note_on_c, 0, 40, 53
1, 27725, Tempo, 844001
1, 27729, Control_c, 0, 64, 0
1, 27757, Control_c, 0, 64, 127
1, 27760, Note_on_c, 0, 40, 0
1, 27760, Note_on_c, 0, 41, 60
1, 27763, Tempo, 837989
1, 27800, Note_on_c, 0, 41, 0
1, 27800, Note_on_c, 0, 43, 64
1, 27802, Tempo, 832062
1, 27834, Note_on_c, 0, 64, 0
1, 27834, Note_on_c, 0, 61, 0
1, 27834, Note_on_c, 0, 52, 0
1, 27834, Note_on_c, 0, 57, 0
1, 27840, Tempo, 826105
1, 27840, Note_on_c, 0, 43, 0
1, 27840, Note_on_c, 0, 52, 43
1, 27840, Note_on_c, 0, 57, 43
1, 27840, Note_on_c, 0, 61, 43
1, 27840, Note_on_c, 0, 64, 54
1, 27840, Note_on_c, 0, 45, 68
1, 27854, Control_c, 0, 64, 0
1, 27900, Note_on_c, 0, 45, 0
1, 27960, Note_on_c, 0, 43, 55
1, 28020, Note_on_c, 0, 43, 0
1, 28080, Note_on_c, 0, 41, 41
1, 28140, Note_on_c, 0, 41, 0
1, 28200, Note_on_c, 0, 40, 45
1, 28260, Note_on_c, 0, 40, 0
1, 28320, Note_on_c, 0, 64, 0
1, 28320, Note_on_c, 0, 52, 0
1, 28320, Note_on_c, 0, 57, 0
1, 28320, Note_on_c, 0, 61, 0
1, 28320, Note_on_c, 0, 41, 39
1, 28380, Note_on_c, 0, 41, 0
1, 28397, Tempo, 832062
1, 28440, Note_on_c, 0, 40, 45
1, 28455, Tempo, 837989
1, 28493, Tempo, 844001
1, 28500, Note_on_c, 0, 40, 0
1, 28531, Tempo, 850220
1, 28560, Note_on_c, 0, 38, 44
1, 28589, Tempo, 856409
1, 28620, Note_on_c, 0, 38, 0
1, 28627, Tempo, 862813
1, 28666, Tempo, 869187
1, 28680, Tempo, 884434
1, 28680, Note_on_c, 0, 37, 44
1, 28740, Note_on_c, 0, 37, 0
1, 28800, Tempo, 826105
1, 28800, Note_on_c, 0, 53, 38
1, 28800, Note_on_c, 0, 62, 45
1, 28800, Note_on_c, 0, 38, 33
1, 28860, Note_on_c, 0, 38, 0
1, 28860, Note_on_c, 0, 62, 0
1, 28860, Note_on_c, 0, 53, 0
1, 29040, Tempo, 853849
1, 29040, Note_on_c, 0, 53, 34
1, 29040, Note_on_c, 0, 62, 34
1, 29040, Note_on_c, 0, 65, 40
1, 29040, Note_on_c, 0, 46, 41
1, 29040, Note_on_c, 0, 34, 34
1, 29097, Control_c, 0, 64, 127
1, 29160, Note_on_c, 0, 65, 0
1, 29160, Note_on_c, 0, 62, 0
1, 29160, Note_on_c, 0, 64, 44
1, 29160, Note_on_c, 0, 61, 37
1, 29280, Tempo, 814664
1, 29280, Note_on_c, 0, 61, 0
1, 29280, Note_on_c, 0, 64, 0
1, 29280, Note_on_c, 0, 65, 57
1, 29280, Note_on_c, 0, 62, 48
1, 29291, Control_c, 0, 64, 0
1, 29331, Control_c, 0, 64, 127
1, 29520, Tempo, 797978
1, 29520, Note_on_c, 0, 34, 0
1, 29520, Note_on_c, 0, 46, 0
1, 29520, Note_on_c, 0, 45, 35
1, 29520, Note_on_c, 0, 33, 29
1, 29530, Control_c, 0, 64, 0
1, 29580, Note_on_c, 0, 33, 0
1, 29580, Note_on_c, 0, 45, 0
1, 29760, Tempo, 768836
1, 29760, Note_on_c, 0, 53, 0
1, 29760, Note_on_c, 0, 58, 46
1, 29760, Note_on_c, 0, 29, 32
1, 29760, Note_on_c, 0, 41, 38
1, 29801, Control_c, 0, 64, 127
1, 29820, Note_on_c, 0, 41, 0
1, 29820, Note_on_c, 0, 29, 0
1, 29880, Tempo, 811469
1, 29880, Note_on_c, 0, 58, 0
1, 29880, Note_on_c, 0, 57, 40
1, 29909, Control_c, 0, 64, 0
1, 30000, Note_on_c, 0, 57, 0
1, 30000, Note_on_c, 0, 62, 0
1, 30000, Note_on_c, 0, 65, 0
1, 30000, Note_on_c, 0, 53, 41
1, 30000, Note_on_c, 0, 58, 36
1, 30000, Note_on_c, 0, 61, 44
1, 30000, Note_on_c, 0, 43, 35
1, 30000, Note_on_c, 0, 31, 29
1, 30019, Control_c, 0, 64, 127
1, 30060, Note_on_c, 0, 31, 0
1, 30060, Note_on_c, 0, 61, 0
1, 30060, Note_on_c, 0, 43, 0
1, 30060, Note_on_c, 0, 58, 0
1, 30120, Tempo, 871713
1, 30120, Note_on_c, 0, 53, 0
1, 30120, Note_on_c, 0, 55, 40
1, 30152, Control_c, 0, 64, 0
1, 30240, Tempo, 837989
1, 30240, Note_on_c, 0, 55, 0
1, 30240, Note_on_c, 0, 57, 39
1, 30240, Note_on_c, 0, 53, 39
1, 30240, Note_on_c, 0, 62, 46
1, 30240, Note_on_c, 0, 45, 33
1, 30240, Note_on_c, 0, 38, 33
1, 30300, Note_on_c, 0, 38, 0
1, 30300, Note_on_c, 0, 62, 0
1, 30300, Note_on_c, 0, 57, 0
1, 30300, Note_on_c, 0, 53, 0
1, 30300, Note_on_c, 0, 45, 0
1, 30480, Tempo, 866676
1, 30480, Note_on_c, 0, 53, 34
1, 30480, Note_on_c, 0, 62, 34
1, 30480, Note_on_c, 0, 65, 40
1, 30480, Note_on_c, 0, 46, 41
1, 30480, Note_on_c, 0, 34, 34
1, 30506, Control_c, 0, 64, 127
1, 30600, Note_on_c, 0, 65, 0
1, 30600, Note_on_c, 0, 62, 0
1, 30600, Note_on_c, 0, 64, 44
1, 30600, Note_on_c, 0, 61, 37
1, 30720, Tempo, 837989
1, 30720, Note_on_c, 0, 61, 0
1, 30720, Note_on_c, 0, 64, 0
1, 30720, Note_on_c, 0, 65, 57
1, 30720, Note_on_c, 0, 62, 48
1, 30735, Control_c, 0, 64, 0
1, 30787, Control_c, 0, 64, 127
1, 30960, Tempo, 814664
1, 30960, Note_on_c, 0, 34, 0
1, 30960, Note_on_c, 0, 46, 0
1, 30960, Note_on_c, 0, 45, 35
1, 30960, Note_on_c, 0, 33, 29
1, 30967, Control_c, 0, 64, 0
1, 31020, Note_on_c, 0, 33, 0
1, 31020, Note_on_c, 0, 45, 0
1, 31200, Tempo, 779120
1, 31200, Note_on_c, 0, 53, 0
1, 31200, Note_on_c, 0, 58, 46
1, 31200, Note_on_c, 0, 29, 32
1, 31200, Note_on_c, 0, 41, 38
1, 31260, Note_on_c, 0, 41, 0
1, 31260, Note_on_c, 0, 29, 0
1, 31260, Control_c, 0, 64, 127
1, 31320, Tempo, 800961
1, 31320, Note_on_c, 0, 58, 0
1, 31320, Note_on_c, 0, 57, 40
1, 31349, Control_c, 0, 64, 0
1, 31440, Tempo, 845070
1, 31440, Note_on_c, 0, 57, 0
1, 31440, Note_on_c, 0, 62, 0
1, 31440, Note_on_c, 0, 65, 0
1, 31440, Note_on_c, 0, 53, 41
1, 31440, Note_on_c, 0, 58, 36
1, 31440, Note_on_c, 0, 61, 44
1, 31440, Note_on_c, 0, 43, 35
1, 31440, Note_on_c, 0, 31, 29
1, 31475, Control_c, 0, 64, 127
1, 31500, Note_on_c, 0, 31, 0
1, 31500, Note_on_c, 0, 61, 0
1, 31500, Note_on_c, 0, 43, 0
1, 31500, Note_on_c, 0, 58, 0
1, 31560, Tempo, 897263
1, 31560, Note_on_c, 0, 53, 0
1, 31560, Note_on_c, 0, 55, 40
1, 31570, Control_c, 0, 64, 0
1, 31680, Tempo, 832062
1, 31680, Note_on_c, 0, 55, 0
1, 31680, Note_on_c, 0, 57, 39
1, 31680, Note_on_c, 0, 53, 39
1, 31680, Note_on_c, 0, 62, 46
1, 31680, Note_on_c, 0, 45, 33
1, 31680, Note_on_c, 0, 38, 33
1, 31740, Note_on_c, 0, 38, 0
1, 31740, Note_on_c, 0, 62, 0
1, 31740, Note_on_c, 0, 57, 0
1, 31740, Note_on_c, 0, 53, 0
1, 31740, Note_on_c, 0, 45, 0
1, 31920, Tempo, 803536
1, 31920, Note_on_c, 0, 64, 54
1, 31920, Note_on_c, 0, 57, 45
1, 31920, Note_on_c, 0, 55, 45
1, 31920, Note_on_c, 0, 50, 43
1, 31980, Note_on_c, 0, 55, 0
1, 31980, Note_on_c, 0, 64, 0
1, 31980, Note_on_c, 0, 57, 0
1, 32040, Note_on_c, 0, 50, 0
1, 32040, Note_on_c, 0, 49, 41
1, 32160, Note_on_c, 0, 49, 0
1, 32160, Note_on_c, 0, 65, 61
1, 32160, Note_on_c, 0, 57, 50
1, 32160, Note_on_c, 0, 53, 50
1, 32160, Note_on_c, 0, 50, 54
1, 32179, Tempo, 792602
1, 32250, Note_on_c, 0, 50, 0
1, 32280, Note_on_c, 0, 49, 49
1, 32370, Note_on_c, 0, 49, 0
1, 32400, Note_on_c, 0, 50, 52
1, 32490, Note_on_c, 0, 50, 0
1, 32520, Note_on_c, 0, 49, 57
1, 32610, Note_on_c, 0, 49, 0
1, 32640, Note_on_c, 0, 50, 66
1, 32666, Control_c, 0, 64, 127
1, 32698, Tempo, 787195
1, 32755, Tempo, 792602
1, 32760, Note_on_c, 0, 50, 0
1, 32760, Note_on_c, 0, 48, 56
1, 32813, Tempo, 797978
1, 32851, Tempo, 803536
1, 32880, Note_on_c, 0, 48, 0
1, 32880, Note_on_c, 0, 53, 0
1, 32880, Note_on_c, 0, 57, 0
1, 32880, Note_on_c, 0, 65, 0
1, 32880, Note_on_c, 0, 60, 45
1, 32880, Note_on_c, 0, 62, 45
1, 32880, Note_on_c, 0, 66, 54
1, 32880, Note_on_c, 0, 46, 61
1, 32892, Control_c, 0, 64, 0
1, 32909, Tempo, 809061
1, 32928, Control_c, 0, 64, 127
1, 32967, Tempo, 814664
1, 33000, Note_on_c, 0, 46, 0
1, 33000, Note_on_c, 0, 45, 45
1, 33005, Tempo, 820345
1, 33120, Tempo, 809061
1, 33120, Note_on_c, 0, 45, 0
1, 33120, Note_on_c, 0, 66, 0
1, 33120, Note_on_c, 0, 62, 0
1, 33120, Note_on_c, 0, 60, 0
1, 33120, Note_on_c, 0, 67, 60
1, 33120, Note_on_c, 0, 62, 51
1, 33120, Note_on_c, 0, 58, 51
1, 33120, Note_on_c, 0, 43, 45
1, 33137, Control_c, 0, 64, 0
1, 33177, Control_c, 0, 64, 127
1, 33240, Tempo, 862813
1, 33240, Note_on_c, 0, 43, 0
1, 33240, Note_on_c, 0, 41, 37
1, 33360, Tempo, 806127
1, 33360, Note_on_c, 0, 41, 0
1, 33360, Note_on_c, 0, 58, 0
1, 33360, Note_on_c, 0, 62, 0
1, 33360, Note_on_c, 0, 67, 0
1, 33360, Note_on_c, 0, 68, 56
1, 33360, Note_on_c, 0, 62, 47
1, 33360, Note_on_c, 0, 59, 47
1, 33360, Note_on_c, 0, 40, 45
1, 33373, Control_c, 0, 64, 0
1, 33417, Control_c, 0, 64, 127
1, 33480, Tempo, 869187
1, 33480, Note_on_c, 0, 68, 0
1, 33480, Note_on_c, 0, 69, 54
1, 33600, Tempo, 920810
1, 33600, Note_on_c, 0, 69, 0
1, 33600, Note_on_c, 0, 40, 0
1, 33600, Note_on_c, 0, 59, 0
1, 33600, Note_on_c, 0, 62, 0
1, 33600, Note_on_c, 0, 68, 63
1, 33600, Note_on_c, 0, 62, 53
1, 33600, Note_on_c, 0, 59, 53
1, 33600, Note_on_c, 0, 45, 35
1, 33600, Note_on_c, 0, 53, 45
1, 33612, Control_c, 0, 64, 0
1, 33680, Control_c, 0, 64, 127
1, 34080, Tempo, 979592
1, 34080, Note_on_c, 0, 53, 0
1, 34080, Note_on_c, 0, 68, 0
1, 34080, Note_on_c, 0, 59, 0
1, 34080, Note_on_c, 0, 62, 0
1, 34080, Note_on_c, 0, 57, 45
1, 34080, Note_on_c, 0, 61, 45
1, 34080, Note_on_c, 0, 69, 54
1, 34080, Note_on_c, 0, 52, 38
1, 34095, Control_c, 0, 64, 0
1, 34206, Control_c, 0, 64, 127
1, 34560, Tempo, 862813
1, 34560, Note_on_c, 0, 52, 0
1, 34560, Note_on_c, 0, 61, 0
1, 34560, Note_on_c, 0, 45, 0
1, 34560, Note_on_c, 0, 57, 0
1, 34560, Note_on_c, 0, 69, 0
1, 34560, Note_on_c, 0, 58, 48
1, 34560, Note_on_c, 0, 62, 48
1, 34560, Note_on_c, 0, 64, 48
1, 34560, Note_on_c, 0, 70, 60
1, 34560, Note_on_c, 0, 55, 51
1, 34560, Note_on_c, 0, 52, 40
1, 34560, Note_on_c, 0, 50, 40
1, 34560, Note_on_c, 0, 43, 40
1, 34577, Control_c, 0, 64, 0
1, 34612, Control_c, 0, 64, 127
1, 35280, Tempo, 829876
1, 35280, Note_on_c, 0, 43, 0
1, 35280, Note_on_c, 0, 58, 0
1, 35280, Note_on_c, 0, 55, 0
1, 35280, Note_on_c, 0, 62, 0
1, 35280, Note_on_c, 0, 64, 0
1, 35280, Note_on_c, 0, 70, 0
1, 35280, Note_on_c, 0, 52, 0
1, 35280, Note_on_c, 0, 50, 0
1, 35280, Note_on_c, 0, 69, 54
1, 35280, Note_on_c, 0, 64, 54
1, 35280, Note_on_c, 0, 61, 43
1, 35280, Note_on_c, 0, 57, 43
1, 35280, Note_on_c, 0, 52, 45
1, 35280, Note_on_c, 0, 45, 38
1, 35290, Control_c, 0, 64, 0
1, 35340, Note_on_c, 0, 45, 0
1, 35340, Note_on_c, 0, 64, 0
1, 35340, Note_on_c, 0, 61, 0
1, 35340, Note_on_c, 0, 69, 0
1, 35340, Note_on_c, 0, 52, 0
1, 35340, Note_on_c, 0, 57, 0
1, 35520, Tempo, 839161
1, 35520, Note_on_c, 0, 65, 54
1, 35520, Note_on_c, 0, 62, 43
1, 35520, Note_on_c, 0, 57, 43
1, 35520, Note_on_c, 0, 50, 45
1, 35580, Note_on_c, 0, 50, 0
1, 35580, Note_on_c, 0, 65, 0
1, 35580, Note_on_c, 0, 62, 0
1, 35580, Note_on_c, 0, 57, 0
1, 35760, Tempo, 898204
1, 35760, Note_on_c, 0, 58, 40
1, 35760, Note_on_c, 0, 62, 40
1, 35760, Note_on_c, 0, 67, 51
1, 35760, Note_on_c, 0, 43, 34
1, 35760, Note_on_c, 0, 50, 41
1, 35820, Note_on_c, 0, 50, 0
1, 35820, Note_on_c, 0, 67, 0
1, 35820, Note_on_c, 0, 58, 0
1, 35820, Note_on_c, 0, 62, 0
1, 35820, Note_on_c, 0, 43, 0
1, 36000, Tempo, 862813
1, 36000, Note_on_c, 0, 57, 43
1, 36000, Note_on_c, 0, 62, 43
1, 36000, Note_on_c, 0, 65, 54
1, 36000, Note_on_c, 0, 38, 38
1, 36000, Note_on_c, 0, 50, 45
1, 36056, Control_c, 0, 64, 127
1, 36288, Tempo, 856409
1, 36327, Tempo, 850220
1, 36346, Tempo, 844001
1, 36357, Note_on_c, 0, 65, 0
1, 36357, Note_on_c, 0, 57, 0
1, 36357, Note_on_c, 0, 62, 0
1, 36360, Note_on_c, 0, 38, 0
1, 36360, Note_on_c, 0, 50, 0
1, 36360, Note_on_c, 0, 57, 43
1, 36360, Note_on_c, 0, 62, 43
1, 36360, Note_on_c, 0, 65, 54
1, 36360, Note_on_c, 0, 45, 53
1, 36367, Control_c, 0, 64, 0
1, 36384, Tempo, 837989
1, 36391, Control_c, 0, 64, 127
1, 36400, Note_on_c, 0, 45, 0
1, 36400, Note_on_c, 0, 47, 60
1, 36403, Tempo, 832062
1, 36440, Note_on_c, 0, 47, 0
1, 36440, Note_on_c, 0, 49, 64
1, 36442, Tempo, 826105
1, 36461, Tempo, 820345
1, 36474, Note_on_c, 0, 65, 0
1, 36474, Note_on_c, 0, 57, 0
1, 36474, Note_on_c, 0, 62, 0
1, 36480, Tempo, 814664
1, 36480, Note_on_c, 0, 49, 0
1, 36480, Note_on_c, 0, 57, 43
1, 36480, Note_on_c, 0, 62, 43
1, 36480, Note_on_c, 0, 65, 54
1, 36480, Note_on_c, 0, 50, 68
1, 36488, Control_c, 0, 64, 0
1, 36540, Note_on_c, 0, 50, 0
1, 36600, Note_on_c, 0, 48, 55
1, 36660, Note_on_c, 0, 48, 0
1, 36720, Note_on_c, 0, 46, 41
1, 36780, Note_on_c, 0, 46, 0
1, 36840, Note_on_c, 0, 45, 45
1, 36900, Note_on_c, 0, 45, 0
1, 36960, Tempo, 826105
1, 36960, Note_on_c, 0, 65, 0
1, 36960, Note_on_c, 0, 62, 0
1, 36960, Note_on_c, 0, 57, 0
1, 36960, Note_on_c, 0, 46, 39
1, 37020, Note_on_c, 0, 46, 0
1, 37080, Note_on_c, 0, 45, 45
1, 37133, Tempo, 797978
1, 37140, Note_on_c, 0, 45, 0
1, 37152, Tempo, 803536
1, 37171, Tempo, 814664
1, 37191, Tempo, 820345
1, 37200, Note_on_c, 0, 43, 44
1, 37210, Tempo, 832062
1, 37229, Tempo, 837989
1, 37248, Tempo, 850220
1, 37260, Note_on_c, 0, 43, 0
1, 37267, Tempo, 856409
1, 37287, Tempo, 869187
1, 37306, Tempo, 882223
1, 37320, Tempo, 1012146
1, 37320, Note_on_c, 0, 41, 44
1, 37380, Note_on_c, 0, 41, 0
1, 37440, Tempo, 862813
1, 37440, Note_on_c, 0, 57, 48
1, 37440, Note_on_c, 0, 60, 48
1, 37440, Note_on_c, 0, 63, 48
1, 37440, Note_on_c, 0, 69, 60
1, 37440, Note_on_c, 0, 51, 51
1, 37440, Note_on_c, 0, 42, 40
1, 37523, Control_c, 0, 64, 127
1, 38160, Tempo, 829876
1, 38160, Note_on_c, 0, 42, 0
1, 38160, Note_on_c, 0, 60, 0
1, 38160, Note_on_c, 0, 63, 0
1, 38160, Note_on_c, 0, 57, 0
1, 38160, Note_on_c, 0, 51, 0
1, 38160, Note_on_c, 0, 69, 0
1, 38160, Note_on_c, 0, 67, 54
1, 38160, Note_on_c, 0, 62, 54
1, 38160, Note_on_c, 0, 58, 43
1, 38160, Note_on_c, 0, 55, 43
1, 38160, Note_on_c, 0, 50, 45
1, 38160, Note_on_c, 0, 43, 38
1, 38169, Control_c, 0, 64, 0
1, 38220, Note_on_c, 0, 43, 0
1, 38220, Note_on_c, 0, 62, 0
1, 38220, Note_on_c, 0, 58, 0
1, 38220, Note_on_c, 0, 67, 0
1, 38220, Note_on_c, 0, 50, 0
1, 38220, Note_on_c, 0, 55, 0
1, 38400, Tempo, 833333
1, 38400, Note_on_c, 0, 61, 43
1, 38400, Note_on_c, 0, 64, 54
1, 38400, Note_on_c, 0, 57, 43
1, 38400, Note_on_c, 0, 52, 43
1, 38400, Note_on_c, 0, 45, 45
1, 38460, Note_on_c, 0, 45, 0
1, 38460, Note_on_c, 0, 57, 0
1, 38460, Note_on_c, 0, 61, 0
1, 38460, Note_on_c, 0, 64, 0
1, 38460, Note_on_c, 0, 52, 0
1, 38640, Tempo, 898204
1, 38640, Note_on_c, 0, 57, 40
1, 38640, Note_on_c, 0, 53, 40
1, 38640, Note_on_c, 0, 62, 40
1, 38640, Note_on_c, 0, 65, 51
1, 38640, Note_on_c, 0, 38, 34
1, 38640, Note_on_c, 0, 45, 41
1, 38700, Note_on_c, 0, 45, 0
1, 38700, Note_on_c, 0, 53, 0
1, 38700, Note_on_c, 0, 62, 0
1, 38700, Note_on_c, 0, 57, 0
1, 38700, Note_on_c, 0, 38, 0
1, 38700, Note_on_c, 0, 65, 0
1, 38880, Tempo, 862813
1, 38880, Note_on_c, 0, 52, 43
1, 38880, Note_on_c, 0, 57, 43
1, 38880, Note_on_c, 0, 61, 43
1, 38880, Note_on_c, 0, 64, 54
1, 38880, Note_on_c, 0, 33, 38
1, 38880, Note_on_c, 0, 45, 45
1, 38949, Control_c, 0, 64, 127
1, 39149, Tempo, 856409
1, 39207, Tempo, 850220
1, 39237, Note_on_c, 0, 64, 0
1, 39237, Note_on_c, 0, 57, 0
1, 39237, Note_on_c, 0, 52, 0
1, 39237, Note_on_c, 0, 61, 0
1, 39240, Note_on_c, 0, 45, 0
1, 39240, Note_on_c, 0, 33, 0
1, 39240, Note_on_c, 0, 52, 43
1, 39240, Note_on_c, 0, 57, 43
1, 39240, Note_on_c, 0, 61, 43
1, 39240, Note_on_c, 0, 64, 54
1, 39240, Note_on_c, 0, 40, 53
1, 39245, Tempo, 844001
1, 39249, Control_c, 0, 64, 0
1, 39277, Control_c, 0, 64, 127
1, 39280, Note_on_c, 0, 40, 0
1, 39280, Note_on_c, 0, 41, 60
1, 39283, Tempo, 837989
1, 39320, Note_on_c, 0, 41, 0
1, 39320, Note_on_c, 0, 43, 64
1, 39322, Tempo, 832062
1, 39354, Note_on_c, 0, 64, 0
1, 39354, Note_on_c, 0, 61, 0
1, 39354, Note_on_c, 0, 52, 0
1, 39354, Note_on_c, 0, 57, 0
1, 39360, Tempo, 826105
1, 39360, Note_on_c, 0, 43, 0
1, 39360, Note_on_c, 0, 52, 43
1, 39360, Note_on_c, 0, 57, 43
1, 39360, Note_on_c, 0, 61, 43
1, 39360, Note_on_c, 0, 64, 54
1, 39360, Note_on_c, 0, 45, 68
1, 39374, Control_c, 0, 64, 0
1, 39420, Note_on_c, 0, 45, 0
1, 39480, Note_on_c, 0, 43, 55
1, 39540, Note_on_c, 0, 43, 0
1, 39600, Note_on_c, 0, 41, 41
1, 39660, Note_on_c, 0, 41, 0
1, 39720, Note_on_c, 0, 40, 45
1, 39780, Note_on_c, 0, 40, 0
1, 39840, Note_on_c, 0, 64, 0
1, 39840, Note_on_c, 0, 52, 0
1, 39840, Note_on_c, 0, 57, 0
1, 39840, Note_on_c, 0, 61, 0
1, 39840, Note_on_c, 0, 41, 39
1, 39900, Note_on_c, 0, 41, 0
1, 39917, Tempo, 832062
1, 39960, Note_on_c, 0, 40, 45
1, 39975, Tempo, 837989
1, 40013, Tempo, 844001
1, 40020, Note_on_c, 0, 40, 0
1, 40051, Tempo, 850220
1, 40080, Note_on_c, 0, 38, 44
1, 40109, Tempo, 856409
1, 40140, Note_on_c, 0, 38, 0
1, 40147, Tempo, 862813
1, 40186, Tempo, 869187
1, 40200, Tempo, 884434
1, 40200, Note_on_c, 0, 37, 44
1, 40260, Note_on_c, 0, 37, 0
1, 40320, Tempo, 826105
1, 40320, Note_on_c, 0, 53, 38
1, 40320, Note_on_c, 0, 62, 45
1, 40320, Note_on_c, 0, 38, 33
1, 40380, Note_on_c, 0, 38, 0
1, 40380, Note_on_c, 0, 62, 0
1, 40380, Note_on_c, 0, 53, 0
1, 40560, Tempo, 866676
1, 40560, Note_on_c, 0, 53, 34
1, 40560, Note_on_c, 0, 62, 34
1, 40560, Note_on_c, 0, 65, 40
1, 40560, Note_on_c, 0, 46, 53
1, 40560, Note_on_c, 0, 34, 45
1, 40617, Control_c, 0, 64, 127
1, 40680, Note_on_c, 0, 65, 0
1, 40680, Note_on_c, 0, 62, 0
1, 40680, Note_on_c, 0, 64, 44
1, 40680, Note_on_c, 0, 61, 37
1, 40800, Tempo, 814664
1, 40800, Note_on_c, 0, 61, 0
1, 40800, Note_on_c, 0, 64, 0
1, 40800, Note_on_c, 0, 65, 57
1, 40800, Note_on_c, 0, 62, 48
1, 40811, Control_c, 0, 64, 0
1, 40851, Control_c, 0, 64, 127
1, 41040, Tempo, 797978
1, 41040, Note_on_c, 0, 34, 0
1, 41040, Note_on_c, 0, 46, 0
1, 41040, Note_on_c, 0, 45, 35
1, 41040, Note_on_c, 0, 33, 29
1, 41050, Control_c, 0, 64, 0
1, 41100, Note_on_c, 0, 33, 0
1, 41100, Note_on_c, 0, 45, 0
1, 41280, Tempo, 761325
1, 41280, Note_on_c, 0, 53, 0
1, 41280, Note_on_c, 0, 58, 46
1, 41280, Note_on_c, 0, 29, 32
1, 41280, Note_on_c, 0, 41, 38
1, 41321, Control_c, 0, 64, 127
1, 41340, Note_on_c, 0, 41, 0
1, 41340, Note_on_c, 0, 29, 0
1, 41400, Tempo, 811469
1, 41400, Note_on_c, 0, 58, 0
1, 41400, Note_on_c, 0, 57, 40
1, 41429, Control_c, 0, 64, 0
1, 41520, Note_on_c, 0, 57, 0
1, 41520, Note_on_c, 0, 62, 0
1, 41520, Note_on_c, 0, 65, 0
1, 41520, Note_on_c, 0, 53, 41
1, 41520, Note_on_c, 0, 58, 36
1, 41520, Note_on_c, 0, 61, 44
1, 41520, Note_on_c, 0, 43, 35
1, 41520, Note_on_c, 0, 31, 29
1, 41539, Control_c, 0, 64, 127
1, 41580, Note_on_c, 0, 31, 0
1, 41580, Note_on_c, 0, 61, 0
1, 41580, Note_on_c, 0, 43, 0
1, 41580, Note_on_c, 0, 58, 0
1, 41640, Tempo, 871713
1, 41640, Note_on_c, 0, 53, 0
1, 41640, Note_on_c, 0, 55, 40
1, 41672, Control_c, 0, 64, 0
1, 41760, Tempo, 800961
1, 41760, Note_on_c, 0, 55, 0
1, 41760, Note_on_c, 0, 57, 39
1, 41760, Note_on_c, 0, 53, 39
1, 41760, Note_on_c, 0, 62, 48
1, 41760, Note_on_c, 0, 45, 33
1, 41760, Note_on_c, 0, 38, 33
1, 41820, Note_on_c, 0, 38, 0
1, 41820, Note_on_c, 0, 45, 0
1, 41880, Tempo, 780640
1, 41880, Note_on_c, 0, 62, 0
1, 41880, Note_on_c, 0, 57, 0
1, 41880, Note_on_c, 0, 64, 58
1, 41880, Note_on_c, 0, 61, 49
1, 41924, Control_c, 0, 64, 127
1, 42000, Tempo, 787195
1, 42000, Note_on_c, 0, 61, 0
1, 42000, Note_on_c, 0, 64, 0
1, 42000, Note_on_c, 0, 53, 0
1, 42000, Note_on_c, 0, 53, 45
1, 42000, Note_on_c, 0, 62, 45
1, 42000, Note_on_c, 0, 65, 54
1, 42000, Note_on_c, 0, 46, 63
1, 42000, Note_on_c, 0, 34, 53
1, 42120, Tempo, 952230
1, 42120, Note_on_c, 0, 65, 0
1, 42120, Note_on_c, 0, 62, 0
1, 42120, Note_on_c, 0, 64, 58
1, 42120, Note_on_c, 0, 61, 49
1, 42240, Tempo, 837989
1, 42240, Note_on_c, 0, 61, 0
1, 42240, Note_on_c, 0, 64, 0
1, 42240, Note_on_c, 0, 65, 70
1, 42240, Note_on_c, 0, 62, 59
1, 42255, Control_c, 0, 64, 0
1, 42307, Control_c, 0, 64, 127
1, 42480, Tempo, 814664
1, 42480, Note_on_c, 0, 34, 0
1, 42480, Note_on_c, 0, 46, 0
1, 42480, Note_on_c, 0, 45, 35
1, 42480, Note_on_c, 0, 33, 29
1, 42487, Control_c, 0, 64, 0
1, 42540, Note_on_c, 0, 33, 0
1, 42540, Note_on_c, 0, 45, 0
1, 42720, Tempo, 770812
1, 42720, Note_on_c, 0, 53, 0
1, 42720, Note_on_c, 0, 58, 46
1, 42720, Note_on_c, 0, 29, 32
1, 42720, Note_on_c, 0, 41, 38
1, 42780, Note_on_c, 0, 41, 0
1, 42780, Note_on_c, 0, 29, 0
1, 42780, Control_c, 0, 64, 127
1, 42840, Tempo, 800961
1, 42840, Note_on_c, 0, 58, 0
1, 42840, Note_on_c, 0, 57, 40
1, 42869, Control_c, 0, 64, 0
1, 42960, Tempo, 845070
1, 42960, Note_on_c, 0, 57, 0
1, 42960, Note_on_c, 0, 62, 0
1, 42960, Note_on_c, 0, 65, 0
1, 42960, Note_on_c, 0, 53, 41
1, 42960, Note_on_c, 0, 58, 36
1, 42960, Note_on_c, 0, 61, 44
1, 42960, Note_on_c, 0, 43, 35
1, 42960, Note_on_c, 0, 31, 29
1, 42995, Control_c, 0, 64, 127
1, 43020, Note_on_c, 0, 31, 0
1, 43020, Note_on_c, 0, 61, 0
1, 43020, Note_on_c, 0, 43, 0
1, 43020, Note_on_c, 0, 58, 0
1, 43080, Tempo, 897263
1, 43080, Note_on_c, 0, 53, 0
1, 43080, Note_on_c, 0, 55, 40
1, 43090, Control_c, 0, 64, 0
1, 43200, Tempo, 832062
1, 43200, Note_on_c, 0, 55, 0
1, 43200, Note_on_c, 0, 57, 39
1, 43200, Note_on_c, 0, 53, 39
1, 43200, Note_on_c, 0, 62, 46
1, 43200, Note_on_c, 0, 45, 33
1, 43200, Note_on_c, 0, 38, 33
1, 43260, Note_on_c, 0, 38, 0
1, 43260, Note_on_c, 0, 62, 0
1, 43260, Note_on_c, 0, 57, 0
1, 43260, Note_on_c, 0, 53, 0
1, 43260, Note_on_c, 0, 45, 0
1, 43320, Tempo, 844001
1, 43320, Note_on_c, 0, 45, 53
1, 43320, Control_c, 0, 64, 127
1, 43344, Tempo, 837989
1, 43360, Note_on_c, 0, 45, 0
1, 43360, Note_on_c, 0, 47, 60
1, 43363, Tempo, 832062
1, 43400, Note_on_c, 0, 47, 0
1, 43400, Note_on_c, 0, 49, 64
1, 43402, Tempo, 826105
1, 43421, Tempo, 820345
1, 43440, Note_on_c, 0, 49, 0
1, 43440, Note_on_c, 0, 64, 54
1, 43440, Note_on_c, 0, 57, 45
1, 43440, Note_on_c, 0, 55, 45
1, 43440, Note_on_c, 0, 50, 68
1, 43450, Control_c, 0, 64, 0
1, 43500, Note_on_c, 0, 50, 0
1, 43500, Note_on_c, 0, 64, 0
1, 43500, Note_on_c, 0, 57, 0
1, 43500, Note_on_c, 0, 55, 0
1, 43560, Note_on_c, 0, 49, 54
1, 43620, Note_on_c, 0, 49, 0
1, 43680, Note_on_c, 0, 65, 61
1, 43680, Note_on_c, 0, 57, 50
1, 43680, Note_on_c, 0, 53, 50
1, 43680, Note_on_c, 0, 50, 54
1, 43699, Tempo, 792602
1, 43770, Note_on_c, 0, 50, 0
1, 43800, Note_on_c, 0, 49, 49
1, 43890, Note_on_c, 0, 49, 0
1, 43920, Note_on_c, 0, 50, 52
1, 44010, Note_on_c, 0, 50, 0
1, 44040, Note_on_c, 0, 49, 57
1, 44130, Note_on_c, 0, 49, 0
1, 44160, Note_on_c, 0, 50, 66
1, 44186, Control_c, 0, 64, 127
1, 44218, Tempo, 787195
1, 44275, Tempo, 792602
1, 44280, Note_on_c, 0, 50, 0
1, 44280, Note_on_c, 0, 48, 56
1, 44333, Tempo, 797978
1, 44371, Tempo, 803536
1, 44400, Note_on_c, 0, 48, 0
1, 44400, Note_on_c, 0, 53, 0
1, 44400, Note_on_c, 0, 57, 0
1, 44400, Note_on_c, 0, 65, 0
1, 44400, Note_on_c, 0, 60, 45
1, 44400, Note_on_c, 0, 62, 45
1, 44400, Note_on_c, 0, 66, 54
1, 44400, Note_on_c, 0, 46, 61
1, 44412, Control_c, 0, 64, 0
1, 44429, Tempo, 809061
1, 44448, Control_c, 0, 64, 127
1, 44487, Tempo, 814664
1, 44520, Note_on_c, 0, 46, 0
1, 44520, Note_on_c, 0, 45, 45
1, 44525, Tempo, 820345
1, 44640, Tempo, 809061
1, 44640, Note_on_c, 0, 45, 0
1, 44640, Note_on_c, 0, 66, 0
1, 44640, Note_on_c, 0, 62, 0
1, 44640, Note_on_c, 0, 60, 0
1, 44640, Note_on_c, 0, 67, 60
1, 44640, Note_on_c, 0, 62, 51
1, 44640, Note_on_c, 0, 58, 51
1, 44640, Note_on_c, 0, 43, 45
1, 44657, Control_c, 0, 64, 0
1, 44697, Control_c, 0, 64, 127
1, 44746, Note_on_c, 0, 40, 37
1, 44760, Tempo, 862813
1, 44760, Note_on_c, 0, 43, 0
1, 44866, Note_on_c, 0, 40, 0
1, 44880, Tempo, 806127
1, 44880, Note_on_c, 0, 67, 0
1, 44880, Note_on_c, 0, 62, 0
1, 44880, Note_on_c, 0, 58, 0
1, 44880, Note_on_c, 0, 69, 56
1, 44880, Note_on_c, 0, 62, 47
1, 44880, Note_on_c, 0, 57, 47
1, 44880, Note_on_c, 0, 41, 45
1, 44893, Control_c, 0, 64, 0
1, 44937, Control_c, 0, 64, 127
1, 45000, Tempo, 1104972
1, 45120, Tempo, 1046207
1, 45120, Note_on_c, 0, 41, 0
1, 45120, Note_on_c, 0, 69, 0
1, 45120, Note_on_c, 0, 62, 0
1, 45120, Note_on_c, 0, 57, 0
1, 45120, Note_on_c, 0, 73, 63
1, 45120, Note_on_c, 0, 67, 53
1, 45120, Note_on_c, 0, 61, 53
1, 45120, Note_on_c, 0, 45, 35
1, 45120, Note_on_c, 0, 55, 45
1, 45120, Note_on_c, 0, 52, 35
1, 45132, Control_c, 0, 64, 0
1, 45200, Control_c, 0, 64, 127
1, 45600, Tempo, 1102536
1, 45600, Note_on_c, 0, 52, 0
1, 45600, Note_on_c, 0, 67, 0
1, 45600, Note_on_c, 0, 61, 0
1, 45600, Note_on_c, 0, 73, 0
1, 45600, Note_on_c, 0, 55, 0
1, 45600, Note_on_c, 0, 45, 0
1, 45600, Note_on_c, 0, 62, 36
1, 45600, Note_on_c, 0, 65, 36
1, 45600, Note_on_c, 0, 69, 36
1, 45600, Note_on_c, 0, 74, 43
1, 45600, Note_on_c, 0, 38, 28
1, 45600, Note_on_c, 0, 45, 28
1, 45600, Note_on_c, 0, 53, 30
1, 45615, Control_c, 0, 64, 0
1, 45726, Control_c, 0, 64, 127
1, 46080, Tempo, 847577
1, 46080, Marker_t, "Teil 2"
1, 46080, Note_on_c, 0, 53, 0
1, 46080, Note_on_c, 0, 38, 0
1, 46080, Note_on_c, 0, 65, 0
1, 46080, Note_on_c, 0, 69, 0
1, 46080, Note_on_c, 0, 62, 0
1, 46080, Note_on_c, 0, 45, 0
1, 46080, Note_on_c, 0, 74, 0
1, 46080, Note_on_c, 0, 77, 78
1, 46080, Note_on_c, 0, 74, 62
1, 46080, Note_on_c, 0, 71, 62
1, 46080, Note_on_c, 0, 69, 62
1, 46080, Note_on_c, 0, 65, 62
1, 46080, Note_on_c, 0, 50, 48
1, 46080, Note_on_c, 0, 57, 48
1, 46080, Note_on_c, 0, 62, 61
1, 46080, Note_on_c, 0, 59, 48
1, 46083, Control_c, 0, 64, 0
1, 46132, Control_c, 0, 64, 127
1, 46318, Note_on_c, 0, 59, 0
1, 46318, Note_on_c, 0, 69, 0
1, 46318, Note_on_c, 0, 77, 0
1, 46318, Note_on_c, 0, 65, 0
1, 46318, Note_on_c, 0, 74, 0
1, 46318, Note_on_c, 0, 71, 0
1, 46318, Note_on_c, 0, 57, 0
1, 46318, Note_on_c, 0, 50, 0
1, 46318, Note_on_c, 0, 62, 0
1, 46320, Note_on_c, 0, 76, 70
1, 46320, Note_on_c, 0, 74, 55
1, 46320, Note_on_c, 0, 71, 55
1, 46320, Note_on_c, 0, 68, 55
1, 46320, Note_on_c, 0, 64, 55
1, 46320, Note_on_c, 0, 62, 53
1, 46320, Note_on_c, 0, 59, 42
1, 46320, Note_on_c, 0, 56, 42
1, 46320, Note_on_c, 0, 52, 42
1, 46332, Control_c, 0, 64, 0
1, 46383, Control_c, 0, 64, 127
1, 46558, Note_on_c, 0, 52, 0
1, 46558, Note_on_c, 0, 68, 0
1, 46558, Note_on_c, 0, 56, 0
1, 46558, Note_on_c, 0, 64, 0
1, 46558, Note_on_c, 0, 74, 0
1, 46558, Note_on_c, 0, 71, 0
1, 46558, Note_on_c, 0, 59, 0
1, 46558, Note_on_c, 0, 62, 0
1, 46558, Note_on_c, 0, 76, 0
1, 46560, Tempo, 818554
1, 46560, Note_on_c, 0, 73, 71
1, 46560, Note_on_c, 0, 69, 60
1, 46560, Note_on_c, 0, 61, 60
1, 46560, Note_on_c, 0, 45, 51
1, 46560, Note_on_c, 0, 52, 51
1, 46560, Note_on_c, 0, 57, 61
1, 46577, Control_c, 0, 64, 0
1, 46640, Control_c, 0, 64, 127
1, 46798, Note_on_c, 0, 57, 0
1, 46798, Note_on_c, 0, 69, 0
1, 46798, Note_on_c, 0, 61, 0
1, 46798, Note_on_c, 0, 73, 0
1, 46798, Note_on_c, 0, 52, 0
1, 46798, Note_on_c, 0, 45, 0
1, 46800, Tempo, 756620
1, 46800, Note_on_c, 0, 65, 57
1, 46800, Note_on_c, 0, 62, 44
1, 46800, Note_on_c, 0, 53, 44
1, 46800, Note_on_c, 0, 45, 44
1, 46800, Note_on_c, 0, 38, 37
1, 46813, Control_c, 0, 64, 0
1, 46869, Control_c, 0, 64, 127
1, 46920, Note_on_c, 0, 65, 0
1, 46920, Note_on_c, 0, 67, 52
1, 47040, Tempo, 847458
1, 47040, Note_on_c, 0, 67, 0
1, 47040, Note_on_c, 0, 38, 0
1, 47040, Note_on_c, 0, 62, 0
1, 47040, Note_on_c, 0, 53, 0
1, 47040, Note_on_c, 0, 45, 0
1, 47040, Note_on_c, 0, 52, 36
1, 47040, Note_on_c, 0, 61, 36
1, 47040, Note_on_c, 0, 64, 43
1, 47040, Note_on_c, 0, 45, 40
1, 47040, Note_on_c, 0, 33, 34
1, 47049, Control_c, 0, 64, 0
1, 47280, Tempo, 786370
1, 47280, Note_on_c, 0, 33, 0
1, 47280, Note_on_c, 0, 64, 0
1, 47280, Note_on_c, 0, 52, 0
1, 47280, Note_on_c, 0, 61, 0
1, 47280, Note_on_c, 0, 45, 0
1, 47280, Note_on_c, 0, 64, 35
1, 47400, Tempo, 786370
1, 47400, Note_on_c, 0, 64, 0
1, 47400, Note_on_c, 0, 65, 40
1, 47520, Tempo, 761421
1, 47520, Note_on_c, 0, 65, 0
1, 47520, Note_on_c, 0, 67, 44
1, 47640, Tempo, 817439
1, 47640, Note_on_c, 0, 67, 0
1, 47640, Note_on_c, 0, 61, 32
1, 47760, Tempo, 776197
1, 47760, Note_on_c, 0, 77, 55
1, 47760, Note_on_c, 0, 62, 34
1, 47880, Note_on_c, 0, 62, 0
1, 47880, Note_on_c, 0, 77, 0
1, 47880, Note_on_c, 0, 76, 48
1, 47880, Note_on_c, 0, 64, 39
1, 48000, Note_on_c, 0, 64, 0
1, 48000, Note_on_c, 0, 76, 0
1, 48000, Note_on_c, 0, 61, 0
1, 48000, Note_on_c, 0, 74, 58
1, 48000, Note_on_c, 0, 69, 58
1, 48000, Note_on_c, 0, 60, 39
1, 48000, Note_on_c, 0, 65, 46
1, 48120, Note_on_c, 0, 65, 0
1, 48120, Note_on_c, 0, 64, 40
1, 48240, Note_on_c, 0, 64, 0
1, 48240, Note_on_c, 0, 62, 41
1, 48360, Note_on_c, 0, 62, 0
1, 48360, Note_on_c, 0, 64, 34
1, 48480, Tempo, 796813
1, 48480, Note_on_c, 0, 64, 0
1, 48480, Note_on_c, 0, 60, 0
1, 48480, Note_on_c, 0, 69, 0
1, 48480, Note_on_c, 0, 67, 53
1, 48480, Note_on_c, 0, 58, 28
1, 48480, Note_on_c, 0, 62, 40
1, 48720, Tempo, 776197
1, 48720, Note_on_c, 0, 62, 0
1, 48720, Note_on_c, 0, 74, 0
1, 48720, Note_on_c, 0, 76, 56
1, 48720, Note_on_c, 0, 60, 34
1, 48840, Note_on_c, 0, 60, 0
1, 48840, Note_on_c, 0, 62, 39
1, 48960, Tempo, 766284
1, 48960, Note_on_c, 0, 62, 0
1, 48960, Note_on_c, 0, 76, 0
1, 48960, Note_on_c, 0, 72, 58
1, 48960, Note_on_c, 0, 58, 39
1, 48960, Note_on_c, 0, 64, 46
1, 49080, Note_on_c, 0, 64, 0
1, 49080, Note_on_c, 0, 62, 40
1, 49200, Note_on_c, 0, 62, 0
1, 49200, Note_on_c, 0, 58, 0
1, 49200, Note_on_c, 0, 60, 41
1, 49320, Note_on_c, 0, 60, 0
1, 49320, Note_on_c, 0, 62, 34
1, 49440, Tempo, 786370
1, 49440, Note_on_c, 0, 62, 0
1, 49440, Note_on_c, 0, 67, 0
1, 49440, Note_on_c, 0, 58, 0
1, 49440, Note_on_c, 0, 65, 45
1, 49440, Note_on_c, 0, 57, 39
1, 49440, Note_on_c, 0, 60, 40
1, 49560, Tempo, 859599
1, 49680, Tempo, 776197
1, 49680, Note_on_c, 0, 57, 0
1, 49680, Note_on_c, 0, 72, 0
1, 49680, Note_on_c, 0, 65, 0
1, 49680, Note_on_c, 0, 74, 54
1, 49680, Note_on_c, 0, 63, 54
1, 49680, Note_on_c, 0, 55, 34
1, 49800, Note_on_c, 0, 55, 0
1, 49800, Note_on_c, 0, 57, 39
1, 49920, Note_on_c, 0, 57, 0
1, 49920, Note_on_c, 0, 63, 0
1, 49920, Note_on_c, 0, 74, 0
1, 49920, Note_on_c, 0, 60, 0
1, 49920, Note_on_c, 0, 70, 49
1, 49920, Note_on_c, 0, 62, 49
1, 49920, Note_on_c, 0, 58, 46
1, 50040, Note_on_c, 0, 58, 0
1, 50040, Note_on_c, 0, 57, 38
1, 50160, Note_on_c, 0, 57, 0
1, 50160, Note_on_c, 0, 70, 0
1, 50160, Note_on_c, 0, 69, 46
1, 50160, Note_on_c, 0, 55, 44
1, 50280, Tempo, 859599
1, 50280, Note_on_c, 0, 55, 0
1, 50280, Note_on_c, 0, 57, 40
1, 50400, Tempo, 781250
1, 50400, Note_on_c, 0, 57, 0
1, 50400, Note_on_c, 0, 69, 0
1, 50400, Note_on_c, 0, 62, 0
1, 50400, Note_on_c, 0, 68, 57
1, 50400, Note_on_c, 0, 62, 48
1, 50400, Note_on_c, 0, 45, 48
1, 50400, Note_on_c, 0, 53, 48
1, 50640, Note_on_c, 0, 68, 0
1, 50640, Note_on_c, 0, 67, 50
1, 50760, Note_on_c, 0, 67, 0
1, 50760, Note_on_c, 0, 68, 46
1, 50876, Tempo, 751880
1, 50880, Note_on_c, 0, 68, 0
1, 50880, Note_on_c, 0, 53, 0
1, 50880, Note_on_c, 0, 69, 55
1, 50880, Note_on_c, 0, 52, 48
1, 50972, Tempo, 747198
1, 51000, Note_on_c, 0, 62, 0
1, 51000, Note_on_c, 0, 61, 46
1, 51068, Tempo, 742574
1, 51120, Note_on_c, 0, 61, 0
1, 51120, Note_on_c, 0, 64, 46
1, 51144, Tempo, 738007
1, 51240, Tempo, 733496
1, 51240, Note_on_c, 0, 64, 0
1, 51240, Note_on_c, 0, 67, 46
1, 51317, Tempo, 729040
1, 51360, Note_on_c, 0, 67, 0
1, 51360, Note_on_c, 0, 52, 0
1, 51360, Note_on_c, 0, 69, 0
1, 51360, Note_on_c, 0, 45, 0
1, 51360, Note_on_c, 0, 69, 54
1, 51360, Note_on_c, 0, 61, 51
1, 51413, Tempo, 724638
1, 51480, Note_on_c, 0, 61, 0
1, 51480, Note_on_c, 0, 69, 0
1, 51480, Note_on_c, 0, 73, 59
1, 51480, Note_on_c, 0, 64, 55
1, 51480, Control_c, 0, 64, 127
1, 51490, Tempo, 720288
1, 51528, Tempo, 724638
1, 51567, Tempo, 729040
1, 51600, Note_on_c, 0, 64, 0
1, 51600, Note_on_c, 0, 73, 0
1, 51600, Note_on_c, 0, 76, 63
1, 51600, Note_on_c, 0, 67, 61
1, 51605, Tempo, 733496
1, 51644, Tempo, 738007
1, 51663, Tempo, 742574
1, 51701, Tempo, 747198
1, 51720, Note_on_c, 0, 67, 0
1, 51720, Note_on_c, 0, 76, 0
1, 51720, Note_on_c, 0, 79, 71
1, 51720, Note_on_c, 0, 69, 68
1, 51740, Tempo, 751880
1, 51778, Tempo, 756620
1, 51816, Tempo, 761421
1, 51836, Tempo, 766284
1, 51840, Tempo, 847577
1, 51840, Note_on_c, 0, 69, 0
1, 51840, Note_on_c, 0, 79, 0
1, 51840, Note_on_c, 0, 82, 78
1, 51840, Note_on_c, 0, 79, 62
1, 51840, Note_on_c, 0, 76, 62
1, 51840, Note_on_c, 0, 74, 62
1, 51840, Note_on_c, 0, 70, 62
1, 51840, Note_on_c, 0, 55, 48
1, 51840, Note_on_c, 0, 62, 48
1, 51840, Note_on_c, 0, 67, 61
1, 51840, Note_on_c, 0, 64, 48
1, 51843, Control_c, 0, 64, 0
1, 51892, Control_c, 0, 64, 127
1, 52078, Note_on_c, 0, 64, 0
1, 52078, Note_on_c, 0, 74, 0
1, 52078, Note_on_c, 0, 82, 0
1, 52078, Note_on_c, 0, 70, 0
1, 52078, Note_on_c, 0, 79, 0
1, 52078, Note_on_c, 0, 76, 0
1, 52078, Note_on_c, 0, 62, 0
1, 52078, Note_on_c, 0, 55, 0
1, 52078, Note_on_c, 0, 67, 0
1, 52080, Note_on_c, 0, 81, 70
1, 52080, Note_on_c, 0, 79, 55
1, 52080, Note_on_c, 0, 76, 55
1, 52080, Note_on_c, 0, 73, 55
1, 52080, Note_on_c, 0, 69, 55
1, 52080, Note_on_c, 0, 67, 53
1, 52080, Note_on_c, 0, 64, 42
1, 52080, Note_on_c, 0, 61, 42
1, 52080, Note_on_c, 0, 57, 42
1, 52096, Control_c, 0, 64, 0
1, 52149, Control_c, 0, 64, 127
1, 52318, Note_on_c, 0, 57, 0
1, 52318, Note_on_c, 0, 73, 0
1, 52318, Note_on_c, 0, 81, 0
1, 52318, Note_on_c, 0, 69, 0
1, 52318, Note_on_c, 0, 79, 0
1, 52318, Note_on_c, 0, 76, 0
1, 52318, Note_on_c, 0, 64, 0
1, 52318, Note_on_c, 0, 67, 0
1, 52318, Note_on_c, 0, 61, 0
1, 52320, Tempo, 818554
1, 52320, Note_on_c, 0, 72, 60
1, 52320, Note_on_c, 0, 78, 71
1, 52320, Note_on_c, 0, 74, 60
1, 52320, Note_on_c, 0, 66, 60
1, 52320, Note_on_c, 0, 50, 51
1, 52320, Note_on_c, 0, 57, 51
1, 52320, Note_on_c, 0, 62, 61
1, 52330, Control_c, 0, 64, 0
1, 52395, Control_c, 0, 64, 127
1, 52558, Note_on_c, 0, 62, 0
1, 52558, Note_on_c, 0, 50, 0
1, 52558, Note_on_c, 0, 78, 0
1, 52558, Note_on_c, 0, 74, 0
1, 52558, Note_on_c, 0, 72, 0
1, 52558, Note_on_c, 0, 57, 0
1, 52558, Note_on_c, 0, 66, 0
1, 52560, Tempo, 756620
1, 52560, Note_on_c, 0, 55, 44
1, 52560, Note_on_c, 0, 67, 59
1, 52560, Note_on_c, 0, 60, 44
1, 52560, Note_on_c, 0, 51, 44
1, 52560, Note_on_c, 0, 45, 37
1, 52570, Control_c, 0, 64, 0
1, 52629, Control_c, 0, 64, 127
1, 52680, Note_on_c, 0, 67, 0
1, 52680, Note_on_c, 0, 69, 52
1, 52800, Tempo, 847458
1, 52800, Note_on_c, 0, 69, 0
1, 52800, Note_on_c, 0, 45, 0
1, 52800, Note_on_c, 0, 55, 0
1, 52800, Note_on_c, 0, 60, 0
1, 52800, Note_on_c, 0, 51, 0
1, 52800, Note_on_c, 0, 54, 36
1, 52800, Note_on_c, 0, 60, 36
1, 52800, Note_on_c, 0, 66, 43
1, 52800, Note_on_c, 0, 45, 34
1, 52800, Note_on_c, 0, 50, 40
1, 52800, Note_on_c, 0, 38, 34
1, 52809, Control_c, 0, 64, 0
1, 53040, Tempo, 786370
1, 53040, Note_on_c, 0, 38, 0
1, 53040, Note_on_c, 0, 60, 0
1, 53040, Note_on_c, 0, 66, 0
1, 53040, Note_on_c, 0, 54, 0
1, 53040, Note_on_c, 0, 50, 0
1, 53040, Note_on_c, 0, 45, 0
1, 53040, Note_on_c, 0, 69, 35
1, 53160, Note_on_c, 0, 69, 0
1, 53160, Note_on_c, 0, 70, 40
1, 53280, Tempo, 761421
1, 53280, Note_on_c, 0, 70, 0
1, 53280, Note_on_c, 0, 72, 44
1, 53400, Tempo, 733496
1, 53400, Note_on_c, 0, 72, 0
1, 53400, Note_on_c, 0, 84, 48
1, 53400, Note_on_c, 0, 66, 32
1, 53520, Tempo, 776197
1, 53520, Note_on_c, 0, 84, 0
1, 53520, Note_on_c, 0, 82, 55
1, 53520, Note_on_c, 0, 67, 34
1, 53640, Note_on_c, 0, 67, 0
1, 53640, Note_on_c, 0, 82, 0
1, 53640, Note_on_c, 0, 81, 48
1, 53640, Note_on_c, 0, 69, 39
1, 53760, Note_on_c, 0, 69, 0
1, 53760, Note_on_c, 0, 81, 0
1, 53760, Note_on_c, 0, 66, 0
1, 53760, Note_on_c, 0, 79, 58
1, 53760, Note_on_c, 0, 74, 58
1, 53760, Note_on_c, 0, 65, 39
1, 53760, Note_on_c, 0, 70, 46
1, 53880, Note_on_c, 0, 70, 0
1, 53880, Note_on_c, 0, 69, 40
1, 54000, Note_on_c, 0, 69, 0
1, 54000, Note_on_c, 0, 67, 41
1, 54120, Note_on_c, 0, 67, 0
1, 54120, Note_on_c, 0, 69, 34
1, 54240, Tempo, 796813
1, 54240, Note_on_c, 0, 69, 0
1, 54240, Note_on_c, 0, 65, 0
1, 54240, Note_on_c, 0, 74, 0
1, 54240, Note_on_c, 0, 72, 53
1, 54240, Note_on_c, 0, 63, 28
1, 54240, Note_on_c, 0, 67, 40
1, 54480, Tempo, 776197
1, 54480, Note_on_c, 0, 67, 0
1, 54480, Note_on_c, 0, 79, 0
1, 54480, Note_on_c, 0, 81, 56
1, 54480, Note_on_c, 0, 65, 34
1, 54600, Note_on_c, 0, 65, 0
1, 54600, Note_on_c, 0, 67, 39
1, 54720, Tempo, 766284
1, 54720, Note_on_c, 0, 67, 0
1, 54720, Note_on_c, 0, 81, 0
1, 54720, Note_on_c, 0, 77, 58
1, 54720, Note_on_c, 0, 69, 46
1, 54840, Note_on_c, 0, 69, 0
1, 54840, Note_on_c, 0, 67, 40
1, 54960, Note_on_c, 0, 67, 0
1, 54960, Note_on_c, 0, 65, 41
1, 55080, Note_on_c, 0, 65, 0
1, 55080, Note_on_c, 0, 67, 34
1, 55200, Tempo, 786370
1, 55200, Note_on_c, 0, 67, 0
1, 55200, Note_on_c, 0, 63, 0
1, 55200, Note_on_c, 0, 72, 0
1, 55200, Note_on_c, 0, 70, 45
1, 55200, Note_on_c, 0, 62, 39
1, 55200, Note_on_c, 0, 65, 40
1, 55320, Tempo, 859599
1, 55440, Tempo, 776197
1, 55440, Note_on_c, 0, 62, 0
1, 55440, Note_on_c, 0, 77, 0
1, 55440, Note_on_c, 0, 70, 0
1, 55440, Note_on_c, 0, 79, 54
1, 55440, Note_on_c, 0, 68, 54
1, 55440, Note_on_c, 0, 60, 34
1, 55560, Note_on_c, 0, 60, 0
1, 55560, Note_on_c, 0, 62, 39
1, 55680, Note_on_c, 0, 62, 0
1, 55680, Note_on_c, 0, 68, 0
1, 55680, Note_on_c, 0, 79, 0
1, 55680, Note_on_c, 0, 65, 0
1, 55680, Note_on_c, 0, 75, 49
1, 55680, Note_on_c, 0, 67, 49
1, 55680, Note_on_c, 0, 63, 46
1, 55800, Note_on_c, 0, 63, 0
1, 55800, Note_on_c, 0, 62, 38
1, 55920, Note_on_c, 0, 62, 0
1, 55920, Note_on_c, 0, 75, 0
1, 55920, Note_on_c, 0, 74, 46
1, 55920, Note_on_c, 0, 58, 44
1, 56040, Tempo, 859599
1, 56040, Note_on_c, 0, 58, 0
1, 56040, Note_on_c, 0, 60, 40
1, 56160, Tempo, 781250
1, 56160, Note_on_c, 0, 60, 0
1, 56160, Note_on_c, 0, 74, 0
1, 56160, Note_on_c, 0, 67, 0
1, 56160, Note_on_c, 0, 73, 57
1, 56160, Note_on_c, 0, 67, 48
1, 56160, Note_on_c, 0, 50, 48
1, 56160, Note_on_c, 0, 58, 48
1, 56400, Note_on_c, 0, 73, 0
1, 56400, Note_on_c, 0, 72, 50
1, 56520, Note_on_c, 0, 72, 0
1, 56520, Note_on_c, 0, 73, 46
1, 56636, Tempo, 751880
1, 56640, Note_on_c, 0, 73, 0
1, 56640, Note_on_c, 0, 58, 0
1, 56640, Note_on_c, 0, 74, 55
1, 56640, Note_on_c, 0, 57, 48
1, 56732, Tempo, 747198
1, 56760, Note_on_c, 0, 67, 0
1, 56760, Note_on_c, 0, 65, 46
1, 56828, Tempo, 742574
1, 56880, Note_on_c, 0, 65, 0
1, 56880, Note_on_c, 0, 69, 49
1, 56904, Tempo, 738007
1, 57000, Tempo, 733496
1, 57000, Note_on_c, 0, 69, 0
1, 57000, Note_on_c, 0, 73, 46
1, 57077, Tempo, 729040
1, 57120, Note_on_c, 0, 73, 0
1, 57120, Note_on_c, 0, 57, 0
1, 57120, Note_on_c, 0, 74, 0
1, 57120, Note_on_c, 0, 50, 0
1, 57120, Note_on_c, 0, 74, 56
1, 57120, Note_on_c, 0, 62, 51
1, 57173, Tempo, 724638
1, 57240, Note_on_c, 0, 74, 0
1, 57240, Note_on_c, 0, 77, 49
1, 57240, Control_c, 0, 64, 127
1, 57250, Tempo, 720288
1, 57257, Tempo, 720288
1, 57276, Tempo, 724638
1, 57295, Tempo, 729040
1, 57314, Tempo, 733496
1, 57333, Tempo, 738007
1, 57353, Tempo, 742574
1, 57360, Note_on_c, 0, 77, 0
1, 57360, Note_on_c, 0, 62, 0
1, 57360, Note_on_c, 0, 81, 49
1, 57360, Note_on_c, 0, 60, 57
1, 57372, Tempo, 747198
1, 57391, Tempo, 751880
1, 57410, Tempo, 756620
1, 57429, Tempo, 761421
1, 57449, Tempo, 766284
1, 57468, Tempo, 771208
1, 57480, Tempo, 933126
1, 57480, Note_on_c, 0, 81, 0
1, 57480, Note_on_c, 0, 85, 51
1, 57600, Tempo, 742574
1, 57600, Note_on_c, 0, 85, 0
1, 57600, Note_on_c, 0, 60, 0
1, 57600, Note_on_c, 0, 74, 44
1, 57600, Note_on_c, 0, 77, 44
1, 57600, Note_on_c, 0, 79, 44
1, 57600, Note_on_c, 0, 86, 64
1, 57600, Note_on_c, 0, 58, 31
1, 57600, Note_on_c, 0, 62, 31
1, 57600, Note_on_c, 0, 67, 39
1, 57654, Control_c, 0, 64, 0
1, 57838, Note_on_c, 0, 74, 0
1, 57840, Note_on_c, 0, 74, 52
1, 57900, Note_on_c, 0, 74, 0
1, 57960, Note_on_c, 0, 74, 53
1, 58020, Note_on_c, 0, 74, 0
1, 58080, Tempo, 704556
1, 58080, Note_on_c, 0, 79, 56
1, 58200, Tempo, 731707
1, 58200, Note_on_c, 0, 79, 0
1, 58200, Note_on_c, 0, 77, 47
1, 58320, Tempo, 708885
1, 58320, Note_on_c, 0, 77, 0
1, 58320, Note_on_c, 0, 62, 0
1, 58320, Note_on_c, 0, 79, 0
1, 58320, Note_on_c, 0, 86, 0
1, 58320, Note_on_c, 0, 77, 0
1, 58320, Note_on_c, 0, 67, 0
1, 58320, Note_on_c, 0, 58, 0
1, 58320, Note_on_c, 0, 84, 60
1, 58320, Note_on_c, 0, 76, 56
1, 58320, Note_on_c, 0, 60, 48
1, 58380, Note_on_c, 0, 60, 0
1, 58380, Note_on_c, 0, 76, 0
1, 58380, Note_on_c, 0, 84, 0
1, 58440, Note_on_c, 0, 72, 46
1, 58440, Note_on_c, 0, 60, 41
1, 58500, Note_on_c, 0, 60, 0
1, 58560, Tempo, 713352
1, 58560, Note_on_c, 0, 77, 46
1, 58560, Note_on_c, 0, 81, 57
1, 58560, Note_on_c, 0, 65, 48
1, 58620, Note_on_c, 0, 81, 0
1, 58620, Note_on_c, 0, 72, 0
1, 58620, Note_on_c, 0, 77, 0
1, 58680, Note_on_c, 0, 65, 0
1, 58680, Note_on_c, 0, 63, 40
1, 58800, Tempo, 755953
1, 58800, Note_on_c, 0, 63, 0
1, 58800, Note_on_c, 0, 70, 46
1, 58800, Note_on_c, 0, 77, 46
1, 58800, Note_on_c, 0, 82, 54
1, 58800, Note_on_c, 0, 62, 48
1, 58860, Note_on_c, 0, 82, 0
1, 58860, Note_on_c, 0, 70, 0
1, 58860, Note_on_c, 0, 77, 0
1, 58920, Note_on_c, 0, 62, 0
1, 58920, Note_on_c, 0, 58, 42
1, 59040, Tempo, 727008
1, 59040, Note_on_c, 0, 58, 0
1, 59040, Note_on_c, 0, 72, 44
1, 59040, Note_on_c, 0, 75, 44
1, 59040, Note_on_c, 0, 77, 44
1, 59040, Note_on_c, 0, 84, 64
1, 59040, Note_on_c, 0, 57, 31
1, 59040, Note_on_c, 0, 60, 31
1, 59040, Note_on_c, 0, 65, 39
1, 59278, Note_on_c, 0, 72, 0
1, 59280, Note_on_c, 0, 72, 52
1, 59340, Note_on_c, 0, 72, 0
1, 59400, Note_on_c, 0, 72, 53
1, 59460, Note_on_c, 0, 72, 0
1, 59520, Tempo, 708885
1, 59520, Note_on_c, 0, 77, 56
1, 59640, Tempo, 722456
1, 59640, Note_on_c, 0, 77, 0
1, 59640, Note_on_c, 0, 75, 47
1, 59760, Tempo, 695894
1, 59760, Note_on_c, 0, 75, 0
1, 59760, Note_on_c, 0, 60, 0
1, 59760, Note_on_c, 0, 77, 0
1, 59760, Note_on_c, 0, 84, 0
1, 59760, Note_on_c, 0, 75, 0
1, 59760, Note_on_c, 0, 65, 0
1, 59760, Note_on_c, 0, 57, 0
1, 59760, Note_on_c, 0, 82, 60
1, 59760, Note_on_c, 0, 74, 56
1, 59760, Note_on_c, 0, 58, 48
1, 59820, Note_on_c, 0, 58, 0
1, 59820, Note_on_c, 0, 74, 0
1, 59820, Note_on_c, 0, 82, 0
1, 59880, Tempo, 708885
1, 59880, Note_on_c, 0, 70, 46
1, 59880, Note_on_c, 0, 58, 41
1, 59940, Note_on_c, 0, 58, 0
1, 60000, Tempo, 708885
1, 60000, Note_on_c, 0, 75, 46
1, 60000, Note_on_c, 0, 79, 57
1, 60000, Note_on_c, 0, 63, 48
1, 60060, Note_on_c, 0, 79, 0
1, 60060, Note_on_c, 0, 70, 0
1, 60060, Note_on_c, 0, 75, 0
1, 60120, Note_on_c, 0, 63, 0
1, 60120, Note_on_c, 0, 62, 40
1, 60240, Tempo, 766186
1, 60240, Note_on_c, 0, 62, 0
1, 60240, Note_on_c, 0, 69, 46
1, 60240, Note_on_c, 0, 75, 46
1, 60240, Note_on_c, 0, 81, 54
1, 60240, Note_on_c, 0, 60, 48
1, 60300, Note_on_c, 0, 81, 0
1, 60300, Note_on_c, 0, 69, 0
1, 60300, Note_on_c, 0, 75, 0
1, 60360, Note_on_c, 0, 60, 0
1, 60360, Note_on_c, 0, 57, 42
1, 60480, Tempo, 727008
1, 60480, Note_on_c, 0, 57, 0
1, 60480, Note_on_c, 0, 70, 44
1, 60480, Note_on_c, 0, 79, 44
1, 60480, Note_on_c, 0, 82, 64
1, 60480, Note_on_c, 0, 55, 31
1, 60480, Note_on_c, 0, 62, 39
1, 60718, Note_on_c, 0, 70, 0
1, 60720, Note_on_c, 0, 70, 52
1, 60780, Note_on_c, 0, 70, 0
1, 60840, Note_on_c, 0, 70, 53
1, 60900, Note_on_c, 0, 70, 0
1, 60960, Tempo, 708885
1, 60960, Note_on_c, 0, 75, 56
1, 61080, Tempo, 727008
1, 61080, Note_on_c, 0, 75, 0
1, 61080, Note_on_c, 0, 74, 47
1, 61200, Tempo, 700198
1, 61200, Note_on_c, 0, 74, 0
1, 61200, Note_on_c, 0, 55, 0
1, 61200, Note_on_c, 0, 79, 0
1, 61200, Note_on_c, 0, 82, 0
1, 61200, Note_on_c, 0, 62, 0
1, 61200, Note_on_c, 0, 82, 60
1, 61200, Note_on_c, 0, 73, 56
1, 61200, Note_on_c, 0, 57, 48
1, 61260, Note_on_c, 0, 57, 0
1, 61260, Note_on_c, 0, 73, 0
1, 61260, Note_on_c, 0, 82, 0
1, 61320, Note_on_c, 0, 69, 46
1, 61320, Note_on_c, 0, 57, 41
1, 61380, Note_on_c, 0, 57, 0
1, 61440, Tempo, 708885
1, 61440, Note_on_c, 0, 74, 46
1, 61440, Note_on_c, 0, 77, 57
1, 61440, Note_on_c, 0, 62, 48
1, 61500, Note_on_c, 0, 77, 0
1, 61500, Note_on_c, 0, 69, 0
1, 61500, Note_on_c, 0, 74, 0
1, 61560, Note_on_c, 0, 62, 0
1, 61560, Note_on_c, 0, 60, 40
1, 61680, Tempo, 751033
1, 61680, Note_on_c, 0, 60, 0
1, 61680, Note_on_c, 0, 67, 46
1, 61680, Note_on_c, 0, 74, 46
1, 61680, Note_on_c, 0, 79, 54
1, 61680, Note_on_c, 0, 58, 48
1, 61740, Note_on_c, 0, 79, 0
1, 61740, Note_on_c, 0, 67, 0
1, 61740, Note_on_c, 0, 74, 0
1, 61800, Note_on_c, 0, 58, 0
1, 61800, Note_on_c, 0, 55, 42
1, 61920, Tempo, 704556
1, 61920, Note_on_c, 0, 55, 0
1, 61920, Note_on_c, 0, 69, 44
1, 61920, Note_on_c, 0, 76, 44
1, 61920, Note_on_c, 0, 81, 56
1, 61920, Note_on_c, 0, 61, 47
1, 61920, Note_on_c, 0, 57, 42
1, 61956, Control_c, 0, 64, 127
1, 62040, Note_on_c, 0, 81, 0
1, 62040, Note_on_c, 0, 79, 45
1, 62160, Tempo, 727008
1, 62160, Note_on_c, 0, 79, 0
1, 62160, Note_on_c, 0, 76, 48
1, 62179, Control_c, 0, 64, 0
1, 62220, Note_on_c, 0, 76, 0
1, 62280, Note_on_c, 0, 77, 45
1, 62340, Note_on_c, 0, 77, 0
1, 62400, Tempo, 708885
1, 62400, Note_on_c, 0, 57, 0
1, 62400, Note_on_c, 0, 69, 0
1, 62400, Note_on_c, 0, 76, 0
1, 62400, Note_on_c, 0, 61, 0
1, 62400, Note_on_c, 0, 81, 61
1, 62400, Note_on_c, 0, 69, 52
1, 62474, Control_c, 0, 64, 127
1, 62520, Note_on_c, 0, 81, 0
1, 62520, Note_on_c, 0, 79, 49
1, 62640, Tempo, 731707
1, 62640, Note_on_c, 0, 79, 0
1, 62640, Note_on_c, 0, 69, 0
1, 62640, Note_on_c, 0, 76, 56
1, 62640, Note_on_c, 0, 67, 49
1, 62653, Control_c, 0, 64, 0
1, 62700, Note_on_c, 0, 76, 0
1, 62760, Note_on_c, 0, 77, 58
1, 62820, Note_on_c, 0, 77, 0
1, 62880, Tempo, 704556
1, 62880, Note_on_c, 0, 67, 0
1, 62880, Note_on_c, 0, 81, 68
1, 62880, Note_on_c, 0, 74, 65
1, 62951, Control_c, 0, 64, 127
1, 63000, Tempo, 713352
1, 63000, Note_on_c, 0, 81, 0
1, 63000, Note_on_c, 0, 79, 60
1, 63120, Note_on_c, 0, 79, 0
1, 63120, Note_on_c, 0, 74, 0
1, 63120, Note_on_c, 0, 76, 63
1, 63120, Note_on_c, 0, 73, 55
1, 63131, Control_c, 0, 64, 0
1, 63180, Note_on_c, 0, 76, 0
1, 63240, Tempo, 845904
1, 63240, Note_on_c, 0, 77, 58
1, 63300, Note_on_c, 0, 77, 0
1, 63360, Tempo, 731707
1, 63360, Note_on_c, 0, 73, 0
1, 63360, Note_on_c, 0, 79, 66
1, 63360, Note_on_c, 0, 82, 84
1, 63360, Note_on_c, 0, 33, 89
1, 63410, Control_c, 0, 64, 127
1, 63480, Note_on_c, 0, 82, 0
1, 63480, Note_on_c, 0, 81, 59
1, 63600, Note_on_c, 0, 81, 0
1, 63600, Note_on_c, 0, 77, 68
1, 63616, Control_c, 0, 64, 0
1, 63720, Note_on_c, 0, 79, 60
1, 63780, Note_on_c, 0, 79, 0
1, 63840, Tempo, 708885
1, 63840, Note_on_c, 0, 77, 0
1, 63840, Note_on_c, 0, 79, 0
1, 63840, Note_on_c, 0, 82, 61
1, 63840, Note_on_c, 0, 74, 52
1, 63914, Control_c, 0, 64, 127
1, 63960, Note_on_c, 0, 82, 0
1, 63960, Note_on_c, 0, 81, 49
1, 64080, Tempo, 731707
1, 64080, Note_on_c, 0, 81, 0
1, 64080, Note_on_c, 0, 74, 0
1, 64080, Note_on_c, 0, 77, 56
1, 64080, Note_on_c, 0, 73, 49
1, 64093, Control_c, 0, 64, 0
1, 64140, Note_on_c, 0, 77, 0
1, 64200, Note_on_c, 0, 79, 58
1, 64260, Note_on_c, 0, 79, 0
1, 64320, Tempo, 708885
1, 64320, Note_on_c, 0, 73, 0
1, 64320, Note_on_c, 0, 33, 0
1, 64320, Note_on_c, 0, 82, 61
1, 64320, Note_on_c, 0, 67, 44
1, 64320, Note_on_c, 0, 70, 52
1, 64394, Control_c, 0, 64, 127
1, 64440, Note_on_c, 0, 82, 0
1, 64440, Note_on_c, 0, 81, 49
1, 64560, Tempo, 731707
1, 64560, Note_on_c, 0, 81, 0
1, 64560, Note_on_c, 0, 70, 0
1, 64560, Note_on_c, 0, 67, 0
1, 64560, Note_on_c, 0, 77, 56
1, 64560, Note_on_c, 0, 65, 41
1, 64560, Note_on_c, 0, 69, 49
1, 64573, Control_c, 0, 64, 0
1, 64620, Note_on_c, 0, 77, 0
1, 64680, Note_on_c, 0, 79, 58
1, 64740, Note_on_c, 0, 79, 0
1, 64800, Tempo, 708885
1, 64800, Note_on_c, 0, 69, 0
1, 64800, Note_on_c, 0, 65, 0
1, 64800, Note_on_c, 0, 81, 61
1, 64800, Note_on_c, 0, 62, 44
1, 64800, Note_on_c, 0, 65, 52
1, 64874, Control_c, 0, 64, 127
1, 64920, Note_on_c, 0, 81, 0
1, 64920, Note_on_c, 0, 79, 49
1, 65040, Tempo, 731707
1, 65040, Note_on_c, 0, 79, 0
1, 65040, Note_on_c, 0, 65, 0
1, 65040, Note_on_c, 0, 62, 0
1, 65040, Note_on_c, 0, 76, 56
1, 65040, Note_on_c, 0, 64, 41
1, 65040, Note_on_c, 0, 61, 49
1, 65053, Control_c, 0, 64, 0
1, 65100, Note_on_c, 0, 76, 0
1, 65160, Note_on_c, 0, 77, 58
1, 65220, Note_on_c, 0, 77, 0
1, 65280, Tempo, 695249
1, 65280, Note_on_c, 0, 61, 0
1, 65280, Note_on_c, 0, 64, 0
1, 65280, Note_on_c, 0, 73, 57
1, 65280, Note_on_c, 0, 81, 67
1, 65280, Note_on_c, 0, 58, 48
1, 65354, Control_c, 0, 64, 127
1, 65400, Note_on_c, 0, 81, 0
1, 65400, Note_on_c, 0, 79, 53
1, 65520, Tempo, 731707
1, 65520, Note_on_c, 0, 79, 0
1, 65520, Note_on_c, 0, 58, 0
1, 65520, Note_on_c, 0, 73, 0
1, 65520, Note_on_c, 0, 72, 54
1, 65520, Note_on_c, 0, 76, 62
1, 65520, Note_on_c, 0, 57, 45
1, 65533, Control_c, 0, 64, 0
1, 65580, Note_on_c, 0, 76, 0
1, 65640, Note_on_c, 0, 77, 64
1, 65700, Note_on_c, 0, 77, 0
1, 65760, Tempo, 695249
1, 65760, Note_on_c, 0, 57, 0
1, 65760, Note_on_c, 0, 72, 0
1, 65760, Note_on_c, 0, 69, 58
1, 65760, Note_on_c, 0, 81, 68
1, 65760, Note_on_c, 0, 53, 49
1, 65834, Control_c, 0, 64, 127
1, 65880, Note_on_c, 0, 81, 0
1, 65880, Note_on_c, 0, 79, 55
1, 66000, Tempo, 731707
1, 66000, Note_on_c, 0, 79, 0
1, 66000, Note_on_c, 0, 53, 0
1, 66000, Note_on_c, 0, 69, 0
1, 66000, Note_on_c, 0, 67, 56
1, 66000, Note_on_c, 0, 76, 64
1, 66000, Note_on_c, 0, 52, 47
1, 66013, Control_c, 0, 64, 0
1, 66060, Note_on_c, 0, 76, 0
1, 66120, Note_on_c, 0, 77, 67
1, 66180, Note_on_c, 0, 77, 0
1, 66240, Tempo, 687285
1, 66240, Note_on_c, 0, 52, 0
1, 66240, Note_on_c, 0, 67, 0
1, 66240, Note_on_c, 0, 64, 60
1, 66240, Note_on_c, 0, 79, 71
1, 66240, Note_on_c, 0, 33, 44
1, 66240, Note_on_c, 0, 48, 51
1, 66314, Control_c, 0, 64, 127
1, 66360, Note_on_c, 0, 79, 0
1, 66360, Note_on_c, 0, 77, 57
1, 66480, Tempo, 715990
1, 66480, Note_on_c, 0, 77, 0
1, 66480, Note_on_c, 0, 48, 0
1, 66480, Note_on_c, 0, 64, 0
1, 66480, Note_on_c, 0, 62, 58
1, 66480, Note_on_c, 0, 74, 66
1, 66480, Note_on_c, 0, 46, 48
1, 66600, Note_on_c, 0, 74, 0
1, 66600, Note_on_c, 0, 76, 69
1, 66715, Note_on_c, 0, 33, 0
1, 66720, Tempo, 679502
1, 66720, Note_on_c, 0, 46, 0
1, 66720, Note_on_c, 0, 62, 0
1, 66720, Note_on_c, 0, 76, 0
1, 66720, Note_on_c, 0, 70, 62
1, 66720, Note_on_c, 0, 77, 73
1, 66720, Note_on_c, 0, 33, 45
1, 66720, Note_on_c, 0, 43, 53
1, 66726, Control_c, 0, 64, 0
1, 66800, Control_c, 0, 64, 127
1, 66840, Note_on_c, 0, 77, 0
1, 66840, Note_on_c, 0, 76, 59
1, 66960, Tempo, 707547
1, 66960, Note_on_c, 0, 76, 0
1, 66960, Note_on_c, 0, 43, 0
1, 66960, Note_on_c, 0, 70, 0
1, 66960, Note_on_c, 0, 69, 60
1, 66960, Note_on_c, 0, 73, 68
1, 66960, Note_on_c, 0, 41, 50
1, 67080, Note_on_c, 0, 73, 0
1, 67080, Note_on_c, 0, 74, 71
1, 67195, Note_on_c, 0, 33, 0
1, 67200, Tempo, 671892
1, 67200, Note_on_c, 0, 41, 0
1, 67200, Note_on_c, 0, 69, 0
1, 67200, Note_on_c, 0, 74, 0
1, 67200, Note_on_c, 0, 68, 65
1, 67200, Note_on_c, 0, 76, 76
1, 67200, Note_on_c, 0, 33, 47
1, 67200, Note_on_c, 0, 40, 55
1, 67217, Control_c, 0, 64, 0
1, 67292, Control_c, 0, 64, 127
1, 67320, Note_on_c, 0, 76, 0
1, 67320, Note_on_c, 0, 74, 61
1, 67440, Tempo, 699301
1, 67440, Note_on_c, 0, 74, 0
1, 67440, Note_on_c, 0, 40, 0
1, 67440, Note_on_c, 0, 68, 0
1, 67440, Note_on_c, 0, 67, 61
1, 67440, Note_on_c, 0, 71, 70
1, 67440, Note_on_c, 0, 52, 51
1, 67560, Note_on_c, 0, 71, 0
1, 67560, Note_on_c, 0, 73, 73
1, 67675, Note_on_c, 0, 33, 0
1, 67680, Tempo, 671892
1, 67680, Note_on_c, 0, 52, 0
1, 67680, Note_on_c, 0, 67, 0
1, 67680, Note_on_c, 0, 73, 0
1, 67680, Note_on_c, 0, 66, 66
1, 67680, Note_on_c, 0, 74, 78
1, 67680, Note_on_c, 0, 45, 48
1, 67680, Note_on_c, 0, 50, 56
1, 67687, Control_c, 0, 64, 0
1, 67754, Control_c, 0, 64, 127
1, 67800, Note_on_c, 0, 74, 0
1, 67800, Note_on_c, 0, 72, 63
1, 67920, Tempo, 695249
1, 67920, Note_on_c, 0, 72, 0
1, 67920, Note_on_c, 0, 50, 0
1, 67920, Note_on_c, 0, 66, 0
1, 67920, Note_on_c, 0, 65, 63
1, 67920, Note_on_c, 0, 69, 72
1, 67920, Note_on_c, 0, 57, 53
1, 68040, Note_on_c, 0, 69, 0
1, 68040, Note_on_c, 0, 70, 75
1, 68155, Note_on_c, 0, 45, 0
1, 68160, Tempo, 657174
1, 68160, Note_on_c, 0, 57, 0
1, 68160, Note_on_c, 0, 65, 0
1, 68160, Note_on_c, 0, 70, 0
1, 68160, Note_on_c, 0, 64, 68
1, 68160, Note_on_c, 0, 72, 80
1, 68160, Note_on_c, 0, 45, 50
1, 68160, Note_on_c, 0, 55, 58
1, 68169, Control_c, 0, 64, 0
1, 68234, Control_c, 0, 64, 127
1, 68280, Note_on_c, 0, 72, 0
1, 68280, Note_on_c, 0, 70, 65
1, 68400, Tempo, 687285
1, 68400, Note_on_c, 0, 70, 0
1, 68400, Note_on_c, 0, 55, 0
1, 68400, Note_on_c, 0, 64, 0
1, 68400, Note_on_c, 0, 63, 65
1, 68400, Note_on_c, 0, 67, 75
1, 68400, Note_on_c, 0, 60, 54
1, 68520, Note_on_c, 0, 67, 0
1, 68520, Note_on_c, 0, 69, 78
1, 68635, Note_on_c, 0, 45, 0
1, 68640, Tempo, 650054
1, 68640, Note_on_c, 0, 60, 0
1, 68640, Note_on_c, 0, 63, 0
1, 68640, Note_on_c, 0, 69, 0
1, 68640, Note_on_c, 0, 62, 70
1, 68640, Note_on_c, 0, 70, 82
1, 68640, Note_on_c, 0, 53, 51
1, 68640, Note_on_c, 0, 58, 59
1, 68654, Control_c, 0, 64, 0
1, 68714, Control_c, 0, 64, 127
1, 68760, Note_on_c, 0, 70, 0
1, 68760, Note_on_c, 0, 69, 67
1, 68880, Tempo, 679502
1, 68880, Note_on_c, 0, 69, 0
1, 68880, Note_on_c, 0, 58, 0
1, 68880, Note_on_c, 0, 65, 77
1, 68880, Note_on_c, 0, 62, 56
1, 69000, Note_on_c, 0, 65, 0
1, 69000, Note_on_c, 0, 67, 80
1, 69115, Note_on_c, 0, 53, 0
1, 69120, Tempo, 643087
1, 69120, Note_on_c, 0, 62, 0
1, 69120, Note_on_c, 0, 62, 0
1, 69120, Note_on_c, 0, 67, 0
1, 69120, Note_on_c, 0, 69, 85
1, 69120, Note_on_c, 0, 57, 53
1, 69120, Note_on_c, 0, 61, 61
1, 69129, Control_c, 0, 64, 0
1, 69194, Control_c, 0, 64, 127
1, 69240, Note_on_c, 0, 69, 0
1, 69240, Note_on_c, 0, 67, 68
1, 69360, Tempo, 664452
1, 69360, Note_on_c, 0, 67, 0
1, 69360, Note_on_c, 0, 64, 78
1, 69480, Note_on_c, 0, 64, 0
1, 69480, Note_on_c, 0, 65, 81
1, 69595, Note_on_c, 0, 57, 0
1, 69600, Tempo, 660793
1, 69600, Note_on_c, 0, 65, 0
1, 69600, Note_on_c, 0, 61, 0
1, 69600, Note_on_c, 0, 69, 72
1, 69600, Note_on_c, 0, 81, 85
1, 69600, Note_on_c, 0, 57, 72
1, 69620, Control_c, 0, 64, 0
1, 69692, Control_c, 0, 64, 127
1, 69720, Note_on_c, 0, 57, 0
1, 69720, Note_on_c, 0, 81, 0
1, 69720, Note_on_c, 0, 69, 0
1, 69720, Note_on_c, 0, 79, 68
1, 69720, Note_on_c, 0, 55, 57
1, 69840, Tempo, 687285
1, 69840, Note_on_c, 0, 55, 0
1, 69840, Note_on_c, 0, 79, 0
1, 69840, Note_on_c, 0, 76, 78
1, 69840, Note_on_c, 0, 52, 66
1, 69960, Note_on_c, 0, 52, 0
1, 69960, Note_on_c, 0, 76, 0
1, 69960, Note_on_c, 0, 77, 81
1, 69960, Note_on_c, 0, 53, 68
1, 70080, Tempo, 679502
1, 70080, Note_on_c, 0, 53, 0
1, 70080, Note_on_c, 0, 77, 0
1, 70080, Note_on_c, 0, 81, 72
1, 70080, Note_on_c, 0, 93, 85
1, 70080, Note_on_c, 0, 69, 72
1, 70098, Control_c, 0, 64, 0
1, 70156, Control_c, 0, 64, 127
1, 70200, Note_on_c, 0, 69, 0
1, 70200, Note_on_c, 0, 93, 0
1, 70200, Note_on_c, 0, 81, 0
1, 70200, Note_on_c, 0, 91, 68
1, 70200, Note_on_c, 0, 67, 57
1, 70320, Tempo, 756620
1, 70320, Note_on_c, 0, 67, 0
1, 70320, Note_on_c, 0, 91, 0
1, 70320, Note_on_c, 0, 88, 78
1, 70320, Note_on_c, 0, 64, 66
1, 70440, Note_on_c, 0, 64, 0
1, 70440, Note_on_c, 0, 88, 0
1, 70440, Note_on_c, 0, 89, 81
1, 70440, Note_on_c, 0, 65, 62
1, 70480, Note_on_c, 0, 65, 0
1, 70480, Note_on_c, 0, 89, 0
1, 70480, Note_on_c, 0, 91, 84
1, 70480, Note_on_c, 0, 67, 65
1, 70498, Tempo, 756620
1, 70520, Note_on_c, 0, 67, 0
1, 70520, Note_on_c, 0, 91, 0
1, 70520, Note_on_c, 0, 93, 87
1, 70520, Note_on_c, 0, 69, 68
1, 70556, Tempo, 791557
1, 70560, Note_on_c, 0, 69, 0
1, 70560, Note_on_c, 0, 93, 0
1, 70560, Note_on_c, 0, 82, 77
1, 70560, Note_on_c, 0, 94, 91
1, 70560, Note_on_c, 0, 70, 71
1, 70565, Control_c, 0, 64, 0
1, 70594, Tempo, 786370
1, 70613, Tempo, 781250
1, 70620, Note_on_c, 0, 70, 0
1, 70620, Note_on_c, 0, 94, 0
1, 70620, Note_on_c, 0, 82, 0
1, 70633, Tempo, 776197
1, 70652, Tempo, 771208
1, 70671, Tempo, 766284
1, 70680, Note_on_c, 0, 81, 74
1, 70680, Note_on_c, 0, 93, 88
1, 70680, Note_on_c, 0, 69, 68
1, 70690, Tempo, 761421
1, 70709, Tempo, 756620
1, 70729, Tempo, 751880
1, 70740, Note_on_c, 0, 69, 0
1, 70740, Note_on_c, 0, 93, 0
1, 70740, Note_on_c, 0, 81, 0
1, 70767, Tempo, 747198
1, 70786, Tempo, 742574
1, 70800, Note_on_c, 0, 91, 85
1, 70800, Note_on_c, 0, 79, 72
1, 70800, Note_on_c, 0, 67, 68
1, 70805, Tempo, 738007
1, 70825, Tempo, 733496
1, 70844, Tempo, 729040
1, 70860, Note_on_c, 0, 67, 0
1, 70860, Note_on_c, 0, 79, 0
1, 70860, Note_on_c, 0, 91, 0
1, 70863, Tempo, 724638
1, 70882, Tempo, 720288
1, 70901, Tempo, 715990
1, 70920, Note_on_c, 0, 89, 82
1, 70920, Note_on_c, 0, 77, 69
1, 70920, Note_on_c, 0, 65, 68
1, 70921, Tempo, 711744
1, 70978, Tempo, 715990
1, 70980, Note_on_c, 0, 65, 0
1, 70980, Note_on_c, 0, 77, 0
1, 70980, Note_on_c, 0, 89, 0
1, 71040, Note_on_c, 0, 76, 69
1, 71040, Note_on_c, 0, 88, 82
1, 71040, Note_on_c, 0, 64, 74
1, 71074, Tempo, 711744
1, 71100, Note_on_c, 0, 64, 0
1, 71100, Note_on_c, 0, 88, 0
1, 71100, Note_on_c, 0, 76, 0
1, 71160, Note_on_c, 0, 74, 69
1, 71160, Note_on_c, 0, 86, 82
1, 71160, Note_on_c, 0, 62, 68
1, 71170, Tempo, 707547
1, 71220, Note_on_c, 0, 62, 0
1, 71220, Note_on_c, 0, 86, 0
1, 71220, Note_on_c, 0, 74, 0
1, 71266, Tempo, 703400
1, 71280, Note_on_c, 0, 72, 68
1, 71280, Note_on_c, 0, 84, 81
1, 71280, Note_on_c, 0, 60, 68
1, 71340, Note_on_c, 0, 60, 0
1, 71340, Note_on_c, 0, 84, 0
1, 71340, Note_on_c, 0, 72, 0
1, 71400, Note_on_c, 0, 70, 68
1, 71400, Note_on_c, 0, 82, 81
1, 71400, Note_on_c, 0, 58, 65
1, 71460, Note_on_c, 0, 58, 0
1, 71460, Note_on_c, 0, 82, 0
1, 71460, Note_on_c, 0, 70, 0
1, 71520, Note_on_c, 0, 81, 81
1, 71520, Note_on_c, 0, 69, 68
1, 71520, Note_on_c, 0, 57, 67
1, 71580, Note_on_c, 0, 57, 0
1, 71580, Note_on_c, 0, 69, 0
1, 71580, Note_on_c, 0, 81, 0
1, 71612, Tempo, 699301
1, 71640, Note_on_c, 0, 67, 70
1, 71640, Note_on_c, 0, 79, 83
1, 71640, Note_on_c, 0, 55, 68
1, 71650, Tempo, 703400
1, 71669, Tempo, 707547
1, 71689, Tempo, 711744
1, 71700, Note_on_c, 0, 55, 0
1, 71700, Note_on_c, 0, 79, 0
1, 71700, Note_on_c, 0, 67, 0
1, 71727, Tempo, 715990
1, 71746, Tempo, 720288
1, 71760, Note_on_c, 0, 77, 86
1, 71760, Note_on_c, 0, 65, 73
1, 71760, Note_on_c, 0, 53, 73
1, 71765, Tempo, 724638
1, 71785, Tempo, 729040
1, 71820, Note_on_c, 0, 53, 0
1, 71820, Note_on_c, 0, 65, 0
1, 71820, Note_on_c, 0, 77, 0
1, 71823, Tempo, 733496
1, 71842, Tempo, 738007
1, 71861, Tempo, 742574
1, 71880, Note_on_c, 0, 76, 88
1, 71880, Note_on_c, 0, 64, 74
1, 71880, Note_on_c, 0, 52, 77
1, 71881, Tempo, 747198
1, 71919, Tempo, 751880
1, 71938, Tempo, 756620
1, 71940, Note_on_c, 0, 52, 0
1, 71940, Note_on_c, 0, 64, 0
1, 71940, Note_on_c, 0, 76, 0
1, 71940, Note_on_c, 0, 38, 58
1, 71957, Tempo, 761421
1, 71970, Note_on_c, 0, 45, 58
1, 71977, Tempo, 766284
1, 72000, Tempo, 683371
1, 72000, Note_on_c, 0, 70, 91
1, 72000, Note_on_c, 0, 62, 77
1, 72000, Note_on_c, 0, 74, 91
1, 72000, Note_on_c, 0, 53, 76
1, 72036, Control_c, 0, 64, 127
1, 72120, Note_on_c, 0, 70, 0
1, 72120, Note_on_c, 0, 69, 77
1, 72240, Tempo, 691244
1, 72240, Note_on_c, 0, 69, 0
1, 72240, Note_on_c, 0, 65, 77
1, 72251, Control_c, 0, 64, 0
1, 72300, Note_on_c, 0, 65, 0
1, 72360, Note_on_c, 0, 67, 73
1, 72420, Note_on_c, 0, 67, 0
1, 72480, Tempo, 687285
1, 72480, Note_on_c, 0, 70, 85
1, 72519, Control_c, 0, 64, 127
1, 72600, Note_on_c, 0, 70, 0
1, 72600, Note_on_c, 0, 69, 77
1, 72660, Note_on_c, 0, 45, 0
1, 72660, Note_on_c, 0, 38, 0
1, 72660, Note_on_c, 0, 53, 0
1, 72660, Note_on_c, 0, 41, 58
1, 72690, Note_on_c, 0, 48, 58
1, 72720, Tempo, 711744
1, 72720, Note_on_c, 0, 62, 0
1, 72720, Note_on_c, 0, 69, 0
1, 72720, Note_on_c, 0, 74, 0
1, 72720, Note_on_c, 0, 72, 77
1, 72720, Note_on_c, 0, 60, 65
1, 72720, Note_on_c, 0, 65, 77
1, 72720, Note_on_c, 0, 57, 75
1, 72727, Control_c, 0, 64, 0
1, 72756, Control_c, 0, 64, 127
1, 72780, Note_on_c, 0, 65, 0
1, 72840, Tempo, 695249
1, 72840, Note_on_c, 0, 67, 74
1, 72900, Note_on_c, 0, 67, 0
1, 72960, Tempo, 683371
1, 72960, Note_on_c, 0, 70, 91
1, 72963, Control_c, 0, 64, 0
1, 73017, Control_c, 0, 64, 127
1, 73080, Note_on_c, 0, 70, 0
1, 73080, Note_on_c, 0, 69, 77
1, 73200, Tempo, 711744
1, 73200, Note_on_c, 0, 69, 0
1, 73200, Note_on_c, 0, 65, 77
1, 73219, Control_c, 0, 64, 0
1, 73260, Note_on_c, 0, 65, 0
1, 73320, Note_on_c, 0, 67, 74
1, 73380, Note_on_c, 0, 67, 0
1, 73380, Note_on_c, 0, 57, 0
1, 73380, Note_on_c, 0, 48, 0
1, 73380, Note_on_c, 0, 41, 0
1, 73380, Note_on_c, 0, 45, 58
1, 73410, Note_on_c, 0, 52, 58
1, 73440, Tempo, 679502
1, 73440, Note_on_c, 0, 60, 0
1, 73440, Note_on_c, 0, 72, 0
1, 73440, Note_on_c, 0, 69, 87
1, 73440, Note_on_c, 0, 60, 75
1, 73516, Control_c, 0, 64, 127
1, 73560, Note_on_c, 0, 67, 75
1, 73680, Tempo, 756620
1, 73680, Note_on_c, 0, 67, 0
1, 73680, Note_on_c, 0, 69, 0
1, 73680, Note_on_c, 0, 64, 78
1, 73680, Note_on_c, 0, 52, 66
1, 73800, Note_on_c, 0, 52, 0
1, 73800, Note_on_c, 0, 52, 0
1, 73800, Note_on_c, 0, 60, 0
1, 73800, Note_on_c, 0, 45, 0
1, 73800, Note_on_c, 0, 64, 0
1, 73800, Note_on_c, 0, 76, 81
1, 73800, Note_on_c, 0, 52, 62
1, 73840, Note_on_c, 0, 52, 0
1, 73840, Note_on_c, 0, 76, 0
1, 73840, Note_on_c, 0, 77, 84
1, 73840, Note_on_c, 0, 53, 65
1, 73858, Tempo, 756620
1, 73880, Note_on_c, 0, 53, 0
1, 73880, Note_on_c, 0, 77, 0
1, 73880, Note_on_c, 0, 79, 87
1, 73880, Note_on_c, 0, 55, 68
1, 73916, Tempo, 791557
1, 73920, Note_on_c, 0, 55, 0
1, 73920, Note_on_c, 0, 79, 0
1, 73920, Note_on_c, 0, 69, 77
1, 73920, Note_on_c, 0, 81, 91
1, 73920, Note_on_c, 0, 57, 71
1, 73925, Control_c, 0, 64, 0
1, 73954, Tempo, 786370
1, 73973, Tempo, 781250
1, 73980, Note_on_c, 0, 57, 0
1, 73980, Note_on_c, 0, 81, 0
1, 73980, Note_on_c, 0, 69, 0
1, 73993, Tempo, 776197
1, 74012, Tempo, 771208
1, 74031, Tempo, 766284
1, 74040, Note_on_c, 0, 67, 74
1, 74040, Note_on_c, 0, 79, 88
1, 74040, Note_on_c, 0, 55, 68
1, 74050, Tempo, 761421
1, 74069, Tempo, 756620
1, 74089, Tempo, 751880
1, 74100, Note_on_c, 0, 55, 0
1, 74100, Note_on_c, 0, 79, 0
1, 74100, Note_on_c, 0, 67, 0
1, 74127, Tempo, 747198
1, 74146, Tempo, 742574
1, 74160, Note_on_c, 0, 77, 85
1, 74160, Note_on_c, 0, 65, 72
1, 74160, Note_on_c, 0, 53, 68
1, 74165, Tempo, 738007
1, 74185, Tempo, 733496
1, 74204, Tempo, 729040
1, 74220, Note_on_c, 0, 53, 0
1, 74220, Note_on_c, 0, 65, 0
1, 74220, Note_on_c, 0, 77, 0
1, 74223, Tempo, 724638
1, 74242, Tempo, 720288
1, 74261, Tempo, 715990
1, 74280, Note_on_c, 0, 76, 82
1, 74280, Note_on_c, 0, 64, 69
1, 74280, Note_on_c, 0, 52, 68
1, 74281, Tempo, 711744
1, 74338, Tempo, 715990
1, 74340, Note_on_c, 0, 52, 0
1, 74340, Note_on_c, 0, 64, 0
1, 74340, Note_on_c, 0, 76, 0
1, 74400, Note_on_c, 0, 62, 69
1, 74400, Note_on_c, 0, 74, 82
1, 74400, Note_on_c, 0, 50, 74
1, 74434, Tempo, 711744
1, 74460, Note_on_c, 0, 50, 0
1, 74460, Note_on_c, 0, 74, 0
1, 74460, Note_on_c, 0, 62, 0
1, 74520, Note_on_c, 0, 60, 69
1, 74520, Note_on_c, 0, 72, 82
1, 74520, Note_on_c, 0, 48, 68
1, 74530, Tempo, 707547
1, 74580, Note_on_c, 0, 48, 0
1, 74580, Note_on_c, 0, 72, 0
1, 74580, Note_on_c, 0, 60, 0
1, 74626, Tempo, 703400
1, 74640, Note_on_c, 0, 58, 68
1, 74640, Note_on_c, 0, 70, 81
1, 74640, Note_on_c, 0, 46, 68
1, 74700, Note_on_c, 0, 46, 0
1, 74700, Note_on_c, 0, 70, 0
1, 74700, Note_on_c, 0, 58, 0
1, 74760, Note_on_c, 0, 57, 68
1, 74760, Note_on_c, 0, 69, 81
1, 74760, Note_on_c, 0, 45, 65
1, 74820, Tempo, 756620
1, 74820, Note_on_c, 0, 45, 0
1, 74820, Note_on_c, 0, 69, 0
1, 74820, Note_on_c, 0, 57, 0
1, 74820, Note_on_c, 0, 36, 58
1, 74837, Tempo, 761421
1, 74850, Note_on_c, 0, 43, 58
1, 74857, Tempo, 766284
1, 74880, Tempo, 687285
1, 74880, Note_on_c, 0, 68, 91
1, 74880, Note_on_c, 0, 60, 77
1, 74880, Note_on_c, 0, 72, 91
1, 74880, Note_on_c, 0, 51, 75
1, 74923, Control_c, 0, 64, 127
1, 75000, Note_on_c, 0, 68, 0
1, 75000, Note_on_c, 0, 67, 77
1, 75120, Tempo, 707547
1, 75120, Note_on_c, 0, 67, 0
1, 75120, Note_on_c, 0, 63, 77
1, 75138, Control_c, 0, 64, 0
1, 75180, Note_on_c, 0, 63, 0
1, 75240, Note_on_c, 0, 65, 73
1, 75300, Note_on_c, 0, 65, 0
1, 75360, Tempo, 687285
1, 75360, Note_on_c, 0, 68, 85
1, 75392, Control_c, 0, 64, 127
1, 75480, Note_on_c, 0, 68, 0
1, 75480, Note_on_c, 0, 67, 77
1, 75540, Note_on_c, 0, 43, 0
1, 75540, Note_on_c, 0, 36, 0
1, 75540, Note_on_c, 0, 51, 0
1, 75540, Note_on_c, 0, 39, 58
1, 75570, Note_on_c, 0, 46, 58
1, 75600, Tempo, 711744
1, 75600, Note_on_c, 0, 60, 0
1, 75600, Note_on_c, 0, 67, 0
1, 75600, Note_on_c, 0, 72, 0
1, 75600, Note_on_c, 0, 70, 77
1, 75600, Note_on_c, 0, 58, 65
1, 75600, Note_on_c, 0, 63, 77
1, 75600, Note_on_c, 0, 55, 75
1, 75615, Control_c, 0, 64, 0
1, 75655, Control_c, 0, 64, 127
1, 75660, Note_on_c, 0, 63, 0
1, 75720, Note_on_c, 0, 65, 74
1, 75780, Note_on_c, 0, 65, 0
1, 75840, Tempo, 691244
1, 75840, Note_on_c, 0, 68, 91
1, 75849, Control_c, 0, 64, 0
1, 75877, Control_c, 0, 64, 127
1, 75960, Note_on_c, 0, 68, 0
1, 75960, Note_on_c, 0, 67, 77
1, 76080, Tempo, 715990
1, 76080, Note_on_c, 0, 67, 0
1, 76080, Note_on_c, 0, 63, 77
1, 76099, Control_c, 0, 64, 0
1, 76140, Note_on_c, 0, 63, 0
1, 76200, Note_on_c, 0, 65, 74
1, 76260, Note_on_c, 0, 65, 0
1, 76260, Note_on_c, 0, 55, 0
1, 76260, Note_on_c, 0, 46, 0
1, 76260, Note_on_c, 0, 39, 0
1, 76260, Note_on_c, 0, 43, 58
1, 76290, Note_on_c, 0, 50, 58
1, 76320, Tempo, 679502
1, 76320, Note_on_c, 0, 58, 0
1, 76320, Note_on_c, 0, 70, 0
1, 76320, Note_on_c, 0, 67, 87
1, 76320, Note_on_c, 0, 58, 73
1, 76357, Control_c, 0, 64, 127
1, 76440, Note_on_c, 0, 65, 75
1, 76560, Tempo, 756620
1, 76560, Note_on_c, 0, 65, 0
1, 76560, Note_on_c, 0, 67, 0
1, 76560, Note_on_c, 0, 62, 78
1, 76560, Note_on_c, 0, 50, 66
1, 76680, Note_on_c, 0, 50, 0
1, 76680, Note_on_c, 0, 50, 0
1, 76680, Note_on_c, 0, 58, 0
1, 76680, Note_on_c, 0, 43, 0
1, 76680, Note_on_c, 0, 62, 0
1, 76680, Note_on_c, 0, 74, 81
1, 76680, Note_on_c, 0, 50, 62
1, 76720, Note_on_c, 0, 50, 0
1, 76720, Note_on_c, 0, 74, 0
1, 76720, Note_on_c, 0, 75, 84
1, 76720, Note_on_c, 0, 51, 65
1, 76738, Tempo, 756620
1, 76760, Note_on_c, 0, 51, 0
1, 76760, Note_on_c, 0, 75, 0
1, 76760, Note_on_c, 0, 77, 87
1, 76760, Note_on_c, 0, 53, 68
1, 76796, Tempo, 791557
1, 76800, Note_on_c, 0, 53, 0
1, 76800, Note_on_c, 0, 77, 0
1, 76800, Note_on_c, 0, 67, 77
1, 76800, Note_on_c, 0, 79, 91
1, 76800, Note_on_c, 0, 55, 71
1, 76809, Control_c, 0, 64, 0
1, 76834, Tempo, 786370
1, 76853, Tempo, 781250
1, 76860, Note_on_c, 0, 55, 0
1, 76860, Note_on_c, 0, 79, 0
1, 76860, Note_on_c, 0, 67, 0
1, 76873, Tempo, 776197
1, 76892, Tempo, 771208
1, 76911, Tempo, 766284
1, 76920, Note_on_c, 0, 65, 74
1, 76920, Note_on_c, 0, 77, 88
1, 76920, Note_on_c, 0, 53, 68
1, 76930, Tempo, 761421
1, 76949, Tempo, 756620
1, 76969, Tempo, 751880
1, 76980, Note_on_c, 0, 53, 0
1, 76980, Note_on_c, 0, 77, 0
1, 76980, Note_on_c, 0, 65, 0
1, 77007, Tempo, 747198
1, 77026, Tempo, 742574
1, 77040, Note_on_c, 0, 75, 85
1, 77040, Note_on_c, 0, 63, 72
1, 77040, Note_on_c, 0, 51, 68
1, 77045, Tempo, 738007
1, 77065, Tempo, 733496
1, 77084, Tempo, 729040
1, 77100, Note_on_c, 0, 51, 0
1, 77100, Note_on_c, 0, 63, 0
1, 77100, Note_on_c, 0, 75, 0
1, 77103, Tempo, 724638
1, 77122, Tempo, 720288
1, 77141, Tempo, 715990
1, 77160, Note_on_c, 0, 74, 82
1, 77160, Note_on_c, 0, 62, 69
1, 77160, Note_on_c, 0, 50, 68
1, 77161, Tempo, 711744
1, 77218, Tempo, 715990
1, 77220, Note_on_c, 0, 50, 0
1, 77220, Note_on_c, 0, 62, 0
1, 77220, Note_on_c, 0, 74, 0
1, 77280, Note_on_c, 0, 60, 69
1, 77280, Note_on_c, 0, 72, 82
1, 77280, Note_on_c, 0, 48, 74
1, 77314, Tempo, 711744
1, 77340, Note_on_c, 0, 48, 0
1, 77340, Note_on_c, 0, 72, 0
1, 77340, Note_on_c, 0, 60, 0
1, 77400, Note_on_c, 0, 58, 69
1, 77400, Note_on_c, 0, 70, 82
1, 77400, Note_on_c, 0, 46, 68
1, 77410, Tempo, 707547
1, 77460, Note_on_c, 0, 46, 0
1, 77460, Note_on_c, 0, 70, 0
1, 77460, Note_on_c, 0, 58, 0
1, 77506, Tempo, 703400
1, 77520, Note_on_c, 0, 57, 68
1, 77520, Note_on_c, 0, 69, 81
1, 77520, Note_on_c, 0, 45, 68
1, 77580, Note_on_c, 0, 45, 0
1, 77580, Note_on_c, 0, 69, 0
1, 77580, Note_on_c, 0, 57, 0
1, 77640, Note_on_c, 0, 55, 68
1, 77640, Note_on_c, 0, 67, 81
1, 77640, Note_on_c, 0, 43, 65
1, 77700, Tempo, 756620
1, 77700, Note_on_c, 0, 43, 0
1, 77700, Note_on_c, 0, 67, 0
1, 77700, Note_on_c, 0, 55, 0
1, 77700, Note_on_c, 0, 34, 58
1, 77717, Tempo, 761421
1, 77730, Note_on_c, 0, 41, 58
1, 77737, Tempo, 766284
1, 77760, Tempo, 695249
1, 77760, Note_on_c, 0, 70, 91
1, 77760, Note_on_c, 0, 58, 77
1, 77760, Note_on_c, 0, 67, 91
1, 77760, Note_on_c, 0, 50, 75
1, 77771, Control_c, 0, 64, 127
1, 77880, Note_on_c, 0, 67, 0
1, 77880, Note_on_c, 0, 65, 77
1, 78000, Tempo, 729040
1, 78000, Note_on_c, 0, 65, 0
1, 78000, Note_on_c, 0, 62, 77
1, 78120, Note_on_c, 0, 62, 0
1, 78120, Note_on_c, 0, 64, 73
1, 78180, Tempo, 756620
1, 78180, Note_on_c, 0, 64, 0
1, 78180, Note_on_c, 0, 50, 0
1, 78180, Note_on_c, 0, 34, 0
1, 78180, Note_on_c, 0, 41, 0
1, 78180, Note_on_c, 0, 67, 73
1, 78180, Note_on_c, 0, 36, 58
1, 78197, Tempo, 761421
1, 78210, Note_on_c, 0, 45, 58
1, 78217, Tempo, 766284
1, 78240, Tempo, 695249
1, 78240, Note_on_c, 0, 67, 0
1, 78240, Note_on_c, 0, 70, 0
1, 78240, Note_on_c, 0, 58, 0
1, 78240, Note_on_c, 0, 57, 77
1, 78240, Note_on_c, 0, 69, 91
1, 78240, Note_on_c, 0, 52, 75
1, 78255, Control_c, 0, 64, 0
1, 78307, Control_c, 0, 64, 127
1, 78360, Note_on_c, 0, 67, 77
1, 78420, Note_on_c, 0, 67, 0
1, 78480, Tempo, 729040
1, 78480, Note_on_c, 0, 65, 77
1, 78540, Note_on_c, 0, 65, 0
1, 78600, Note_on_c, 0, 57, 69
1, 78600, Note_on_c, 0, 64, 73
1, 78660, Tempo, 756620
1, 78660, Note_on_c, 0, 64, 0
1, 78660, Note_on_c, 0, 52, 0
1, 78660, Note_on_c, 0, 36, 0
1, 78660, Note_on_c, 0, 45, 0
1, 78660, Note_on_c, 0, 57, 0
1, 78660, Note_on_c, 0, 60, 73
1, 78660, Note_on_c, 0, 38, 58
1, 78677, Tempo, 761421
1, 78690, Note_on_c, 0, 45, 58
1, 78697, Tempo, 766284
1, 78720, Tempo, 695249
1, 78720, Note_on_c, 0, 60, 0
1, 78720, Note_on_c, 0, 57, 0
1, 78720, Note_on_c, 0, 69, 0
1, 78720, Note_on_c, 0, 62, 91
1, 78720, Note_on_c, 0, 65, 91
1, 78720, Note_on_c, 0, 53, 69
1, 78729, Control_c, 0, 64, 0
1, 78780, Note_on_c, 0, 62, 0
1, 78840, Note_on_c, 0, 60, 77
1, 78900, Note_on_c, 0, 60, 0
1, 78960, Tempo, 729040
1, 78960, Note_on_c, 0, 58, 77
1, 79020, Note_on_c, 0, 58, 0
1, 79080, Tempo, 756620
1, 79080, Note_on_c, 0, 45, 0
1, 79080, Note_on_c, 0, 53, 0
1, 79080, Note_on_c, 0, 38, 0
1, 79080, Note_on_c, 0, 57, 73
1, 79080, Note_on_c, 0, 50, 62
1, 79120, Note_on_c, 0, 50, 0
1, 79120, Note_on_c, 0, 52, 65
1, 79138, Tempo, 756620
1, 79140, Note_on_c, 0, 57, 0
1, 79160, Note_on_c, 0, 52, 0
1, 79160, Note_on_c, 0, 53, 68
1, 79196, Tempo, 791557
1, 79200, Note_on_c, 0, 53, 0
1, 79200, Note_on_c, 0, 65, 0
1, 79200, Note_on_c, 0, 58, 69
1, 79200, Note_on_c, 0, 62, 69
1, 79200, Note_on_c, 0, 67, 82
1, 79200, Note_on_c, 0, 43, 60
1, 79200, Note_on_c, 0, 55, 71
1, 79234, Tempo, 786370
1, 79253, Tempo, 781250
1, 79260, Note_on_c, 0, 55, 0
1, 79260, Note_on_c, 0, 43, 0
1, 79273, Tempo, 776197
1, 79292, Tempo, 771208
1, 79311, Tempo, 766284
1, 79320, Note_on_c, 0, 53, 68
1, 79330, Tempo, 761421
1, 79349, Tempo, 756620
1, 79369, Tempo, 751880
1, 79380, Note_on_c, 0, 53, 0
1, 79407, Tempo, 747198
1, 79426, Tempo, 742574
1, 79440, Note_on_c, 0, 52, 68
1, 79445, Tempo, 738007
1, 79465, Tempo, 733496
1, 79484, Tempo, 729040
1, 79500, Note_on_c, 0, 52, 0
1, 79503, Tempo, 724638
1, 79522, Tempo, 720288
1, 79541, Tempo, 715990
1, 79560, Note_on_c, 0, 50, 57
1, 79561, Tempo, 711744
1, 79618, Tempo, 715990
1, 79620, Note_on_c, 0, 50, 0
1, 79680, Note_on_c, 0, 67, 0
1, 79680, Note_on_c, 0, 62, 0
1, 79680, Note_on_c, 0, 58, 0
1, 79680, Note_on_c, 0, 53, 63
1, 79680, Note_on_c, 0, 60, 63
1, 79680, Note_on_c, 0, 65, 75
1, 79680, Note_on_c, 0, 45, 68
1, 79680, Note_on_c, 0, 48, 68
1, 79714, Tempo, 711744
1, 79740, Note_on_c, 0, 48, 0
1, 79740, Note_on_c, 0, 45, 0
1, 79800, Note_on_c, 0, 46, 62
1, 79810, Tempo, 707547
1, 79860, Note_on_c, 0, 46, 0
1, 79906, Tempo, 703400
1, 79920, Note_on_c, 0, 45, 59
1, 79970, Tempo, 705882
1, 79980, Note_on_c, 0, 45, 0
1, 80028, Tempo, 710059
1, 80040, Note_on_c, 0, 43, 58
1, 80066, Tempo, 714286
1, 80100, Note_on_c, 0, 43, 0
1, 80124, Tempo, 718563
1, 80160, Note_on_c, 0, 65, 0
1, 80160, Note_on_c, 0, 60, 0
1, 80160, Note_on_c, 0, 53, 0
1, 80160, Note_on_c, 0, 50, 57
1, 80160, Note_on_c, 0, 58, 57
1, 80160, Note_on_c, 0, 62, 68
1, 80160, Note_on_c, 0, 34, 52
1, 80160, Note_on_c, 0, 41, 58
1, 80162, Tempo, 731707
1, 80201, Tempo, 736196
1, 80220, Tempo, 740741
1, 80239, Tempo, 745342
1, 80258, Tempo, 750000
1, 80280, Note_on_c, 0, 41, 0
1, 80280, Note_on_c, 0, 34, 0
1, 80280, Note_on_c, 0, 42, 58
1, 80297, Tempo, 754717
1, 80316, Tempo, 759494
1, 80335, Tempo, 764331
1, 80354, Tempo, 769231
1, 80373, Tempo, 774194
1, 80393, Tempo, 779221
1, 80400, Note_on_c, 0, 42, 0
1, 80400, Note_on_c, 0, 43, 58
1, 80412, Tempo, 784314
1, 80431, Tempo, 789474
1, 80450, Tempo, 794702
1, 80460, Note_on_c, 0, 43, 0
1, 80469, Tempo, 800000
1, 80489, Tempo, 805369
1, 80508, Tempo, 810811
1, 80520, Note_on_c, 0, 44, 58
1, 80527, Tempo, 816327
1, 80546, Tempo, 821918
1, 80565, Tempo, 827586
1, 80580, Note_on_c, 0, 44, 0
1, 80585, Tempo, 833333
1, 80640, Tempo, 742574
1, 80640, Note_on_c, 0, 62, 0
1, 80640, Note_on_c, 0, 58, 0
1, 80640, Note_on_c, 0, 50, 0
1, 80640, Note_on_c, 0, 61, 73
1, 80640, Note_on_c, 0, 52, 62
1, 80640, Note_on_c, 0, 57, 73
1, 80640, Note_on_c, 0, 33, 26
1, 80640, Note_on_c, 0, 45, 39
1, 80654, Control_c, 0, 64, 0
1, 80692, Control_c, 0, 64, 127
1, 80760, Note_on_c, 0, 57, 0
1, 80760, Note_on_c, 0, 55, 56
1, 80880, Note_on_c, 0, 55, 0
1, 80880, Note_on_c, 0, 45, 0
1, 80880, Note_on_c, 0, 61, 0
1, 80880, Note_on_c, 0, 52, 0
1, 80880, Note_on_c, 0, 33, 0
1, 80880, Note_on_c, 0, 52, 52
1, 80886, Control_c, 0, 64, 0
1, 80940, Note_on_c, 0, 52, 0
1, 81000, Note_on_c, 0, 53, 53
1, 81060, Note_on_c, 0, 53, 0
1, 81120, Tempo, 704556
1, 81120, Note_on_c, 0, 52, 56
1, 81169, Control_c, 0, 64, 127
1, 81240, Tempo, 731707
1, 81240, Note_on_c, 0, 52, 0
1, 81240, Note_on_c, 0, 53, 47
1, 81360, Tempo, 708885
1, 81360, Note_on_c, 0, 53, 0
1, 81360, Note_on_c, 0, 65, 64
1, 81360, Note_on_c, 0, 59, 54
1, 81360, Note_on_c, 0, 55, 51
1, 81360, Note_on_c, 0, 38, 33
1, 81360, Note_on_c, 0, 50, 39
1, 81365, Control_c, 0, 64, 0
1, 81420, Note_on_c, 0, 50, 0
1, 81420, Note_on_c, 0, 55, 0
1, 81420, Note_on_c, 0, 65, 0
1, 81420, Note_on_c, 0, 59, 0
1, 81420, Note_on_c, 0, 38, 0
1, 81480, Note_on_c, 0, 56, 46
1, 81540, Note_on_c, 0, 56, 0
1, 81600, Tempo, 713352
1, 81600, Note_on_c, 0, 60, 54
1, 81600, Note_on_c, 0, 64, 64
1, 81600, Note_on_c, 0, 57, 48
1, 81600, Note_on_c, 0, 45, 33
1, 81600, Note_on_c, 0, 55, 39
1, 81660, Note_on_c, 0, 55, 0
1, 81660, Note_on_c, 0, 57, 0
1, 81660, Note_on_c, 0, 60, 0
1, 81660, Note_on_c, 0, 64, 0
1, 81660, Note_on_c, 0, 45, 0
1, 81720, Note_on_c, 0, 64, 57
1, 81780, Note_on_c, 0, 64, 0
1, 81840, Tempo, 755953
1, 81840, Note_on_c, 0, 69, 64
1, 81840, Note_on_c, 0, 63, 54
1, 81840, Note_on_c, 0, 53, 33
1, 81840, Note_on_c, 0, 57, 39
1, 81900, Note_on_c, 0, 57, 0
1, 81900, Note_on_c, 0, 69, 0
1, 81900, Note_on_c, 0, 63, 0
1, 81900, Note_on_c, 0, 53, 0
1, 81960, Tempo, 833333
1, 81960, Note_on_c, 0, 62, 54
1, 82020, Note_on_c, 0, 62, 0
1, 82080, Tempo, 745342
1, 82080, Note_on_c, 0, 61, 62
1, 82080, Note_on_c, 0, 69, 73
1, 82080, Note_on_c, 0, 52, 26
1, 82080, Note_on_c, 0, 45, 26
1, 82080, Note_on_c, 0, 57, 39
1, 82094, Control_c, 0, 64, 0
1, 82132, Control_c, 0, 64, 127
1, 82200, Note_on_c, 0, 67, 55
1, 82320, Note_on_c, 0, 67, 0
1, 82320, Note_on_c, 0, 69, 0
1, 82320, Note_on_c, 0, 52, 0
1, 82320, Note_on_c, 0, 61, 0
1, 82320, Note_on_c, 0, 57, 0
1, 82320, Note_on_c, 0, 45, 0
1, 82320, Note_on_c, 0, 64, 50
1, 82326, Control_c, 0, 64, 0
1, 82380, Note_on_c, 0, 64, 0
1, 82440, Note_on_c, 0, 65, 50
1, 82500, Note_on_c, 0, 65, 0
1, 82560, Tempo, 718563
1, 82560, Note_on_c, 0, 64, 52
1, 82609, Control_c, 0, 64, 127
1, 82680, Tempo, 779221
1, 82680, Note_on_c, 0, 64, 0
1, 82680, Note_on_c, 0, 65, 43
1, 82800, Tempo, 731707
1, 82800, Note_on_c, 0, 65, 0
1, 82800, Note_on_c, 0, 77, 57
1, 82800, Note_on_c, 0, 71, 48
1, 82800, Note_on_c, 0, 67, 45
1, 82800, Note_on_c, 0, 60, 29
1, 82800, Note_on_c, 0, 65, 35
1, 82805, Control_c, 0, 64, 0
1, 82860, Note_on_c, 0, 65, 0
1, 82860, Note_on_c, 0, 67, 0
1, 82860, Note_on_c, 0, 77, 0
1, 82860, Note_on_c, 0, 71, 0
1, 82860, Note_on_c, 0, 60, 0
1, 82920, Note_on_c, 0, 68, 40
1, 82980, Note_on_c, 0, 68, 0
1, 83040, Tempo, 713352
1, 83040, Note_on_c, 0, 72, 46
1, 83040, Note_on_c, 0, 76, 55
1, 83040, Note_on_c, 0, 69, 41
1, 83040, Note_on_c, 0, 57, 28
1, 83040, Note_on_c, 0, 64, 33
1, 83100, Note_on_c, 0, 64, 0
1, 83100, Note_on_c, 0, 69, 0
1, 83100, Note_on_c, 0, 72, 0
1, 83100, Note_on_c, 0, 76, 0
1, 83100, Note_on_c, 0, 57, 0
1, 83160, Note_on_c, 0, 76, 48
1, 83220, Note_on_c, 0, 76, 0
1, 83280, Tempo, 794702
1, 83280, Note_on_c, 0, 81, 53
1, 83280, Note_on_c, 0, 75, 45
1, 83280, Note_on_c, 0, 65, 27
1, 83280, Note_on_c, 0, 69, 32
1, 83340, Note_on_c, 0, 69, 0
1, 83340, Note_on_c, 0, 81, 0
1, 83340, Note_on_c, 0, 75, 0
1, 83340, Note_on_c, 0, 65, 0
1, 83400, Note_on_c, 0, 74, 44
1, 83460, Note_on_c, 0, 74, 0
1, 83520, Tempo, 754717
1, 83520, Note_on_c, 0, 73, 45
1, 83520, Note_on_c, 0, 79, 53
1, 83520, Note_on_c, 0, 57, 32
1, 83520, Note_on_c, 0, 64, 32
1, 83520, Note_on_c, 0, 69, 32
1, 83524, Note_on_c, 0, 81, 53
1, 83577, Control_c, 0, 64, 127
1, 83580, Note_on_c, 0, 79, 0
1, 83584, Note_on_c, 0, 81, 0
1, 83640, Note_on_c, 0, 64, 0
1, 83640, Note_on_c, 0, 73, 0
1, 83640, Note_on_c, 0, 57, 0
1, 83640, Note_on_c, 0, 69, 0
1, 83640, Note_on_c, 0, 70, 45
1, 83760, Note_on_c, 0, 70, 0
1, 83760, Note_on_c, 0, 69, 45
1, 83770, Control_c, 0, 64, 0
1, 83820, Note_on_c, 0, 69, 0
1, 83880, Note_on_c, 0, 70, 40
1, 83940, Note_on_c, 0, 70, 0
1, 84000, Tempo, 779221
1, 84000, Note_on_c, 0, 69, 45
1, 84032, Control_c, 0, 64, 127
1, 84120, Note_on_c, 0, 69, 0
1, 84120, Note_on_c, 0, 67, 45
1, 84240, Tempo, 794702
1, 84240, Note_on_c, 0, 67, 0
1, 84240, Note_on_c, 0, 64, 41
1, 84255, Control_c, 0, 64, 0
1, 84300, Note_on_c, 0, 64, 0
1, 84360, Tempo, 800000
1, 84360, Note_on_c, 0, 67, 41
1, 84420, Note_on_c, 0, 67, 0
1, 84480, Tempo, 779221
1, 84480, Note_on_c, 0, 64, 45
1, 84520, Control_c, 0, 64, 127
1, 84600, Note_on_c, 0, 64, 0
1, 84600, Note_on_c, 0, 62, 45
1, 84720, Note_on_c, 0, 62, 0
1, 84720, Note_on_c, 0, 61, 39
1, 84737, Control_c, 0, 64, 0
1, 84780, Note_on_c, 0, 61, 0
1, 84840, Note_on_c, 0, 62, 39
1, 84840, Note_on_c, 0, 55, 38
1, 84900, Note_on_c, 0, 55, 0
1, 84900, Note_on_c, 0, 62, 0
1, 84900, Note_on_c, 0, 57, 39
1, 84960, Tempo, 789474
1, 84960, Note_on_c, 0, 57, 0
1, 84960, Note_on_c, 0, 61, 45
1, 84960, Note_on_c, 0, 58, 45
1, 85020, Note_on_c, 0, 58, 0
1, 85020, Note_on_c, 0, 61, 0
1, 85080, Note_on_c, 0, 57, 39
1, 85140, Note_on_c, 0, 57, 0
1, 85200, Note_on_c, 0, 55, 39
1, 85260, Note_on_c, 0, 55, 0
1, 85320, Tempo, 833333
1, 85320, Note_on_c, 0, 49, 36
1, 85320, Note_on_c, 0, 53, 35
1, 85320, Note_on_c, 0, 57, 35
1, 85380, Note_on_c, 0, 57, 0
1, 85380, Note_on_c, 0, 53, 0
1, 85380, Note_on_c, 0, 49, 0
1, 85380, Note_on_c, 0, 50, 37
1, 85440, Tempo, 833333
1, 85440, Note_on_c, 0, 50, 0
1, 85440, Note_on_c, 0, 52, 38
1, 85500, Note_on_c, 0, 52, 0
1, 85560, Note_on_c, 0, 50, 36
1, 85620, Note_on_c, 0, 50, 0
1, 85680, Note_on_c, 0, 49, 37
1, 85740, Note_on_c, 0, 49, 0
1, 85800, Tempo, 882353
1, 85800, Note_on_c, 0, 50, 35
1, 85800, Note_on_c, 0, 43, 30
1, 85860, Note_on_c, 0, 43, 0
1, 85860, Note_on_c, 0, 50, 0
1, 85860, Note_on_c, 0, 45, 31
1, 85915, Tempo, 895522
1, 85920, Tempo, 1016949
1, 85920, Note_on_c, 0, 45, 0
1, 85920, Note_on_c, 0, 49, 45
1, 85920, Note_on_c, 0, 46, 36
1, 85980, Note_on_c, 0, 46, 0
1, 85980, Note_on_c, 0, 49, 0
1, 86040, Tempo, 1176471
1, 86040, Note_on_c, 0, 45, 31
1, 86100, Note_on_c, 0, 45, 0
1, 86160, Tempo, 1304348
1, 86160, Note_on_c, 0, 43, 31
1, 86220, Note_on_c, 0, 43, 0
1, 86280, Tempo, 1500000
1, 86280, Note_on_c, 0, 45, 28
1, 86340, Note_on_c, 0, 45, 0
1, 86400, Tempo, 862813
1, 86400, Marker_t, "Tempo I"
1, 86400, Note_on_c, 0, 58, 43
1, 86400, Note_on_c, 0, 62, 43
1, 86400, Note_on_c, 0, 64, 43
1, 86400, Note_on_c, 0, 70, 54
1, 86400, Note_on_c, 0, 55, 45
1, 86400, Note_on_c, 0, 52, 36
1, 86400, Note_on_c, 0, 50, 36
1, 86400, Note_on_c, 0, 43, 36
1, 86400, Control_c, 0, 64, 127
1, 87120, Tempo, 829876
1, 87120, Note_on_c, 0, 43, 0
1, 87120, Note_on_c, 0, 58, 0
1, 87120, Note_on_c, 0, 55, 0
1, 87120, Note_on_c, 0, 62, 0
1, 87120, Note_on_c, 0, 64, 0
1, 87120, Note_on_c, 0, 70, 0
1, 87120, Note_on_c, 0, 52, 0
1, 87120, Note_on_c, 0, 50, 0
1, 87120, Note_on_c, 0, 69, 48
1, 87120, Note_on_c, 0, 64, 48
1, 87120, Note_on_c, 0, 61, 38
1, 87120, Note_on_c, 0, 57, 38
1, 87120, Note_on_c, 0, 52, 40
1, 87120, Note_on_c, 0, 45, 34
1, 87130, Control_c, 0, 64, 0
1, 87180, Note_on_c, 0, 45, 0
1, 87180, Note_on_c, 0, 64, 0
1, 87180, Note_on_c, 0, 61, 0
1, 87180, Note_on_c, 0, 69, 0
1, 87180, Note_on_c, 0, 52, 0
1, 87180, Note_on_c, 0, 57, 0
1, 87360, Tempo, 835655
1, 87360, Note_on_c, 0, 65, 48
1, 87360, Note_on_c, 0, 62, 38
1, 87360, Note_on_c, 0, 57, 38
1, 87360, Note_on_c, 0, 50, 40
1, 87420, Note_on_c, 0, 50, 0
1, 87420, Note_on_c, 0, 65, 0
1, 87420, Note_on_c, 0, 62, 0
1, 87420, Note_on_c, 0, 57, 0
1, 87600, Tempo, 904977
1, 87600, Note_on_c, 0, 58, 36
1, 87600, Note_on_c, 0, 62, 36
1, 87600, Note_on_c, 0, 67, 45
1, 87600, Note_on_c, 0, 43, 30
1, 87600, Note_on_c, 0, 50, 36
1, 87660, Note_on_c, 0, 50, 0
1, 87660, Note_on_c, 0, 67, 0
1, 87660, Note_on_c, 0, 58, 0
1, 87660, Note_on_c, 0, 62, 0
1, 87660, Note_on_c, 0, 43, 0
1, 87840, Tempo, 862813
1, 87840, Note_on_c, 0, 57, 38
1, 87840, Note_on_c, 0, 62, 38
1, 87840, Note_on_c, 0, 65, 48
1, 87840, Note_on_c, 0, 38, 34
1, 87840, Note_on_c, 0, 50, 40
1, 87896, Control_c, 0, 64, 127
1, 88128, Tempo, 856409
1, 88167, Tempo, 850220
1, 88186, Tempo, 844001
1, 88197, Note_on_c, 0, 65, 0
1, 88197, Note_on_c, 0, 57, 0
1, 88197, Note_on_c, 0, 62, 0
1, 88200, Note_on_c, 0, 38, 0
1, 88200, Note_on_c, 0, 50, 0
1, 88200, Note_on_c, 0, 57, 43
1, 88200, Note_on_c, 0, 62, 43
1, 88200, Note_on_c, 0, 65, 54
1, 88200, Note_on_c, 0, 45, 53
1, 88207, Control_c, 0, 64, 0
1, 88224, Tempo, 837989
1, 88231, Control_c, 0, 64, 127
1, 88240, Note_on_c, 0, 45, 0
1, 88240, Note_on_c, 0, 47, 60
1, 88243, Tempo, 832062
1, 88280, Note_on_c, 0, 47, 0
1, 88280, Note_on_c, 0, 49, 64
1, 88282, Tempo, 826105
1, 88301, Tempo, 820345
1, 88314, Note_on_c, 0, 65, 0
1, 88314, Note_on_c, 0, 57, 0
1, 88314, Note_on_c, 0, 62, 0
1, 88320, Tempo, 814664
1, 88320, Note_on_c, 0, 49, 0
1, 88320, Note_on_c, 0, 57, 43
1, 88320, Note_on_c, 0, 62, 43
1, 88320, Note_on_c, 0, 65, 54
1, 88320, Note_on_c, 0, 50, 68
1, 88328, Control_c, 0, 64, 0
1, 88380, Note_on_c, 0, 50, 0
1, 88440, Note_on_c, 0, 48, 55
1, 88500, Note_on_c, 0, 48, 0
1, 88560, Note_on_c, 0, 46, 41
1, 88620, Note_on_c, 0, 46, 0
1, 88680, Note_on_c, 0, 45, 45
1, 88740, Note_on_c, 0, 45, 0
1, 88800, Tempo, 826105
1, 88800, Note_on_c, 0, 65, 0
1, 88800, Note_on_c, 0, 62, 0
1, 88800, Note_on_c, 0, 57, 0
1, 88800, Note_on_c, 0, 46, 39
1, 88860, Note_on_c, 0, 46, 0
1, 88920, Note_on_c, 0, 45, 45
1, 88973, Tempo, 797978
1, 88980, Note_on_c, 0, 45, 0
1, 88992, Tempo, 803536
1, 89011, Tempo, 814664
1, 89031, Tempo, 820345
1, 89040, Note_on_c, 0, 43, 44
1, 89050, Tempo, 832062
1, 89069, Tempo, 837989
1, 89088, Tempo, 850220
1, 89100, Note_on_c, 0, 43, 0
1, 89107, Tempo, 856409
1, 89127, Tempo, 869187
1, 89146, Tempo, 882223
1, 89160, Tempo, 1012146
1, 89160, Note_on_c, 0, 41, 44
1, 89220, Note_on_c, 0, 41, 0
1, 89280, Tempo, 862813
1, 89280, Note_on_c, 0, 57, 48
1, 89280, Note_on_c, 0, 60, 48
1, 89280, Note_on_c, 0, 62, 48
1, 89280, Note_on_c, 0, 69, 60
1, 89280, Note_on_c, 0, 50, 51
1, 89280, Note_on_c, 0, 41, 40
1, 89363, Control_c, 0, 64, 127
1, 90000, Tempo, 829876
1, 90000, Note_on_c, 0, 41, 0
1, 90000, Note_on_c, 0, 60, 0
1, 90000, Note_on_c, 0, 62, 0
1, 90000, Note_on_c, 0, 57, 0
1, 90000, Note_on_c, 0, 50, 0
1, 90000, Note_on_c, 0, 69, 0
1, 90000, Note_on_c, 0, 67, 54
1, 90000, Note_on_c, 0, 62, 54
1, 90000, Note_on_c, 0, 58, 43
1, 90000, Note_on_c, 0, 55, 43
1, 90000, Note_on_c, 0, 50, 45
1, 90000, Note_on_c, 0, 43, 38
1, 90009, Control_c, 0, 64, 0
1, 90060, Note_on_c, 0, 43, 0
1, 90060, Note_on_c, 0, 62, 0
1, 90060, Note_on_c, 0, 58, 0
1, 90060, Note_on_c, 0, 67, 0
1, 90060, Note_on_c, 0, 50, 0
1, 90060, Note_on_c, 0, 55, 0
1, 90240, Tempo, 829876
1, 90240, Note_on_c, 0, 60, 43
1, 90240, Note_on_c, 0, 64, 54
1, 90240, Note_on_c, 0, 55, 43
1, 90240, Note_on_c, 0, 48, 45
1, 90300, Note_on_c, 0, 48, 0
1, 90300, Note_on_c, 0, 60, 0
1, 90300, Note_on_c, 0, 64, 0
1, 90300, Note_on_c, 0, 55, 0
1, 90480, Tempo, 891530
1, 90480, Note_on_c, 0, 60, 40
1, 90480, Note_on_c, 0, 57, 40
1, 90480, Note_on_c, 0, 65, 51
1, 90480, Note_on_c, 0, 41, 34
1, 90480, Note_on_c, 0, 48, 41
1, 90540, Note_on_c, 0, 48, 0
1, 90540, Note_on_c, 0, 65, 0
1, 90540, Note_on_c, 0, 60, 0
1, 90540, Note_on_c, 0, 57, 0
1, 90540, Note_on_c, 0, 41, 0
1, 90720, Tempo, 862813
1, 90720, Note_on_c, 0, 55, 43
1, 90720, Note_on_c, 0, 60, 43
1, 90720, Note_on_c, 0, 64, 54
1, 90720, Note_on_c, 0, 36, 38
1, 90720, Note_on_c, 0, 48, 45
1, 90789, Control_c, 0, 64, 127
1, 90989, Tempo, 856409
1, 91047, Tempo, 850220
1, 91077, Note_on_c, 0, 64, 0
1, 91077, Note_on_c, 0, 55, 0
1, 91077, Note_on_c, 0, 60, 0
1, 91080, Note_on_c, 0, 48, 0
1, 91080, Note_on_c, 0, 36, 0
1, 91080, Note_on_c, 0, 55, 43
1, 91080, Note_on_c, 0, 60, 43
1, 91080, Note_on_c, 0, 64, 54
1, 91080, Note_on_c, 0, 43, 53
1, 91085, Tempo, 844001
1, 91089, Control_c, 0, 64, 0
1, 91117, Control_c, 0, 64, 127
1, 91120, Note_on_c, 0, 43, 0
1, 91120, Note_on_c, 0, 45, 60
1, 91123, Tempo, 837989
1, 91160, Note_on_c, 0, 45, 0
1, 91160, Note_on_c, 0, 46, 64
1, 91162, Tempo, 832062
1, 91194, Note_on_c, 0, 64, 0
1, 91194, Note_on_c, 0, 55, 0
1, 91194, Note_on_c, 0, 60, 0
1, 91200, Tempo, 826105
1, 91200, Note_on_c, 0, 46, 0
1, 91200, Note_on_c, 0, 55, 43
1, 91200, Note_on_c, 0, 60, 43
1, 91200, Note_on_c, 0, 64, 54
1, 91200, Note_on_c, 0, 48, 68
1, 91214, Control_c, 0, 64, 0
1, 91260, Note_on_c, 0, 48, 0
1, 91320, Note_on_c, 0, 46, 55
1, 91380, Note_on_c, 0, 46, 0
1, 91440, Note_on_c, 0, 45, 41
1, 91500, Note_on_c, 0, 45, 0
1, 91560, Note_on_c, 0, 43, 45
1, 91620, Note_on_c, 0, 43, 0
1, 91680, Note_on_c, 0, 64, 0
1, 91680, Note_on_c, 0, 60, 0
1, 91680, Note_on_c, 0, 55, 0
1, 91680, Note_on_c, 0, 45, 39
1, 91740, Note_on_c, 0, 45, 0
1, 91757, Tempo, 832062
1, 91800, Note_on_c, 0, 43, 45
1, 91815, Tempo, 837989
1, 91853, Tempo, 844001
1, 91860, Note_on_c, 0, 43, 0
1, 91891, Tempo, 850220
1, 91920, Note_on_c, 0, 41, 44
1, 91949, Tempo, 856409
1, 91980, Note_on_c, 0, 41, 0
1, 91987, Tempo, 862813
1, 92026, Tempo, 869187
1, 92040, Tempo, 884434
1, 92040, Note_on_c, 0, 40, 44
1, 92100, Note_on_c, 0, 40, 0
1, 92160, Tempo, 839161
1, 92160, Note_on_c, 0, 58, 45
1, 92160, Note_on_c, 0, 55, 45
1, 92160, Note_on_c, 0, 62, 45
1, 92160, Note_on_c, 0, 67, 54
1, 92160, Note_on_c, 0, 50, 49
1, 92160, Note_on_c, 0, 43, 41
1, 92229, Control_c, 0, 64, 127
1, 92517, Note_on_c, 0, 67, 0
1, 92517, Note_on_c, 0, 55, 0
1, 92517, Note_on_c, 0, 62, 0
1, 92520, Tempo, 875912
1, 92520, Note_on_c, 0, 58, 0
1, 92520, Note_on_c, 0, 50, 0
1, 92520, Note_on_c, 0, 43, 0
1, 92520, Note_on_c, 0, 67, 46
1, 92520, Note_on_c, 0, 62, 39
1, 92520, Note_on_c, 0, 55, 39
1, 92520, Note_on_c, 0, 58, 39
1, 92520, Note_on_c, 0, 38, 39
1, 92520, Note_on_c, 0, 50, 47
1, 92634, Note_on_c, 0, 50, 0
1, 92634, Note_on_c, 0, 62, 0
1, 92634, Note_on_c, 0, 67, 0
1, 92634, Note_on_c, 0, 55, 0
1, 92634, Note_on_c, 0, 38, 0
1, 92640, Tempo, 895522
1, 92640, Note_on_c, 0, 58, 0
1, 92640, Note_on_c, 0, 67, 51
1, 92640, Note_on_c, 0, 62, 43
1, 92640, Note_on_c, 0, 58, 43
1, 92640, Note_on_c, 0, 55, 43
1, 92640, Note_on_c, 0, 43, 36
1, 92640, Note_on_c, 0, 50, 43
1, 92654, Control_c, 0, 64, 0
1, 92760, Note_on_c, 0, 50, 0
1, 92760, Note_on_c, 0, 62, 0
1, 92760, Note_on_c, 0, 58, 0
1, 92760, Note_on_c, 0, 67, 0
1, 92760, Note_on_c, 0, 43, 0
1, 92760, Note_on_c, 0, 55, 0
1, 92880, Tempo, 909091
1, 92880, Note_on_c, 0, 65, 48
1, 92880, Note_on_c, 0, 60, 40
1, 92880, Note_on_c, 0, 53, 40
1, 92880, Note_on_c, 0, 45, 39
1, 92880, Note_on_c, 0, 48, 47
1, 93000, Note_on_c, 0, 48, 0
1, 93000, Note_on_c, 0, 53, 0
1, 93000, Note_on_c, 0, 65, 0
1, 93000, Note_on_c, 0, 60, 0
1, 93000, Note_on_c, 0, 45, 0
1, 93120, Tempo, 857143
1, 93120, Note_on_c, 0, 53, 41
1, 93120, Note_on_c, 0, 58, 41
1, 93120, Note_on_c, 0, 62, 49
1, 93120, Note_on_c, 0, 46, 39
1, 93180, Control_c, 0, 64, 127
1, 93240, Note_on_c, 0, 46, 0
1, 93240, Note_on_c, 0, 45, 37
1, 93360, Tempo, 902256
1, 93360, Note_on_c, 0, 45, 0
1, 93360, Note_on_c, 0, 41, 42
1, 93371, Control_c, 0, 64, 0
1, 93420, Note_on_c, 0, 41, 0
1, 93480, Note_on_c, 0, 43, 38
1, 93540, Note_on_c, 0, 43, 0
1, 93600, Tempo, 839161
1, 93600, Note_on_c, 0, 62, 0
1, 93600, Note_on_c, 0, 58, 0
1, 93600, Note_on_c, 0, 53, 0
1, 93600, Note_on_c, 0, 57, 45
1, 93600, Note_on_c, 0, 53, 45
1, 93600, Note_on_c, 0, 65, 54
1, 93600, Note_on_c, 0, 48, 49
1, 93600, Note_on_c, 0, 41, 41
1, 93669, Control_c, 0, 64, 127
1, 93957, Note_on_c, 0, 65, 0
1, 93957, Note_on_c, 0, 53, 0
1, 93960, Tempo, 875912
1, 93960, Note_on_c, 0, 57, 0
1, 93960, Note_on_c, 0, 48, 0
1, 93960, Note_on_c, 0, 41, 0
1, 93960, Note_on_c, 0, 65, 46
1, 93960, Note_on_c, 0, 53, 39
1, 93960, Note_on_c, 0, 57, 39
1, 93960, Note_on_c, 0, 36, 39
1, 93960, Note_on_c, 0, 48, 47
1, 94074, Note_on_c, 0, 48, 0
1, 94074, Note_on_c, 0, 53, 0
1, 94074, Note_on_c, 0, 65, 0
1, 94074, Note_on_c, 0, 36, 0
1, 94080, Tempo, 902256
1, 94080, Note_on_c, 0, 57, 0
1, 94080, Note_on_c, 0, 65, 51
1, 94080, Note_on_c, 0, 57, 43
1, 94080, Note_on_c, 0, 53, 43
1, 94080, Note_on_c, 0, 41, 36
1, 94080, Note_on_c, 0, 48, 43
1, 94094, Control_c, 0, 64, 0
1, 94200, Note_on_c, 0, 48, 0
1, 94200, Note_on_c, 0, 53, 0
1, 94200, Note_on_c, 0, 65, 0
1, 94200, Note_on_c, 0, 57, 0
1, 94200, Note_on_c, 0, 41, 0
1, 94320, Tempo, 909091
1, 94320, Note_on_c, 0, 64, 48
1, 94320, Note_on_c, 0, 58, 40
1, 94320, Note_on_c, 0, 52, 40
1, 94320, Note_on_c, 0, 43, 39
1, 94320, Note_on_c, 0, 46, 47
1, 94440, Note_on_c, 0, 46, 0
1, 94440, Note_on_c, 0, 52, 0
1, 94440, Note_on_c, 0, 64, 0
1, 94440, Note_on_c, 0, 58, 0
1, 94440, Note_on_c, 0, 43, 0
1, 94560, Tempo, 857143
1, 94560, Note_on_c, 0, 52, 41
1, 94560, Note_on_c, 0, 57, 41
1, 94560, Note_on_c, 0, 61, 49
1, 94560, Note_on_c, 0, 45, 39
1, 94620, Control_c, 0, 64, 127
1, 94680, Note_on_c, 0, 45, 0
1, 94680, Note_on_c, 0, 43, 37
1, 94800, Tempo, 902256
1, 94800, Note_on_c, 0, 43, 0
1, 94800, Note_on_c, 0, 40, 42
1, 94811, Control_c, 0, 64, 0
1, 94860, Note_on_c, 0, 40, 0
1, 94920, Note_on_c, 0, 41, 38
1, 94980, Note_on_c, 0, 41, 0
1, 95040, Tempo, 826105
1, 95040, Note_on_c, 0, 61, 0
1, 95040, Note_on_c, 0, 57, 0
1, 95040, Note_on_c, 0, 52, 0
1, 95040, Note_on_c, 0, 53, 45
1, 95040, Note_on_c, 0, 62, 54
1, 95040, Note_on_c, 0, 38, 39
1, 95100, Note_on_c, 0, 38, 0
1, 95100, Note_on_c, 0, 62, 0
1, 95100, Note_on_c, 0, 53, 0
1, 95280, Tempo, 860215
1, 95280, Note_on_c, 0, 53, 34
1, 95280, Note_on_c, 0, 62, 34
1, 95280, Note_on_c, 0, 65, 40
1, 95280, Note_on_c, 0, 46, 53
1, 95280, Note_on_c, 0, 34, 45
1, 95337, Control_c, 0, 64, 127
1, 95400, Note_on_c, 0, 65, 0
1, 95400, Note_on_c, 0, 62, 0
1, 95400, Note_on_c, 0, 64, 44
1, 95400, Note_on_c, 0, 61, 37
1, 95520, Tempo, 814664
1, 95520, Note_on_c, 0, 61, 0
1, 95520, Note_on_c, 0, 64, 0
1, 95520, Note_on_c, 0, 65, 57
1, 95520, Note_on_c, 0, 62, 48
1, 95531, Control_c, 0, 64, 0
1, 95571, Control_c, 0, 64, 127
1, 95760, Tempo, 797978
1, 95760, Note_on_c, 0, 34, 0
1, 95760, Note_on_c, 0, 46, 0
1, 95760, Note_on_c, 0, 45, 35
1, 95760, Note_on_c, 0, 33, 29
1, 95770, Control_c, 0, 64, 0
1, 95820, Note_on_c, 0, 33, 0
1, 95820, Note_on_c, 0, 45, 0
1, 96000, Tempo, 768836
1, 96000, Note_on_c, 0, 53, 0
1, 96000, Note_on_c, 0, 58, 46
1, 96000, Note_on_c, 0, 29, 32
1, 96000, Note_on_c, 0, 41, 38
1, 96041, Control_c, 0, 64, 127
1, 96060, Note_on_c, 0, 41, 0
1, 96060, Note_on_c, 0, 29, 0
1, 96120, Tempo, 811469
1, 96120, Note_on_c, 0, 58, 0
1, 96120, Note_on_c, 0, 57, 40
1, 96149, Control_c, 0, 64, 0
1, 96240, Note_on_c, 0, 57, 0
1, 96240, Note_on_c, 0, 62, 0
1, 96240, Note_on_c, 0, 65, 0
1, 96240, Note_on_c, 0, 53, 41
1, 96240, Note_on_c, 0, 58, 36
1, 96240, Note_on_c, 0, 61, 44
1, 96240, Note_on_c, 0, 43, 35
1, 96240, Note_on_c, 0, 31, 29
1, 96259, Control_c, 0, 64, 127
1, 96300, Note_on_c, 0, 31, 0
1, 96300, Note_on_c, 0, 61, 0
1, 96300, Note_on_c, 0, 43, 0
1, 96300, Note_on_c, 0, 58, 0
1, 96360, Tempo, 871713
1, 96360, Note_on_c, 0, 53, 0
1, 96360, Note_on_c, 0, 55, 40
1, 96392, Control_c, 0, 64, 0
1, 96480, Tempo, 800961
1, 96480, Note_on_c, 0, 55, 0
1, 96480, Note_on_c, 0, 53, 39
1, 96480, Note_on_c, 0, 62, 48
1, 96480, Note_on_c, 0, 45, 33
1, 96480, Note_on_c, 0, 38, 33
1, 96540, Note_on_c, 0, 38, 0
1, 96540, Note_on_c, 0, 53, 0
1, 96540, Note_on_c, 0, 62, 0
1, 96540, Note_on_c, 0, 45, 0
1, 96600, Tempo, 780640
1, 96644, Control_c, 0, 64, 127
1, 96720, Tempo, 787195
1, 96720, Note_on_c, 0, 53, 38
1, 96720, Note_on_c, 0, 62, 38
1, 96720, Note_on_c, 0, 65, 45
1, 96720, Note_on_c, 0, 46, 53
1, 96720, Note_on_c, 0, 34, 45
1, 96840, Note_on_c, 0, 65, 0
1, 96840, Note_on_c, 0, 62, 0
1, 96840, Note_on_c, 0, 64, 49
1, 96840, Note_on_c, 0, 61, 41
1, 96960, Tempo, 837989
1, 96960, Note_on_c, 0, 61, 0
1, 96960, Note_on_c, 0, 64, 0
1, 96960, Note_on_c, 0, 65, 60
1, 96960, Note_on_c, 0, 62, 51
1, 96975, Control_c, 0, 64, 0
1, 97027, Control_c, 0, 64, 127
1, 97200, Tempo, 814664
1, 97200, Note_on_c, 0, 34, 0
1, 97200, Note_on_c, 0, 46, 0
1, 97200, Note_on_c, 0, 45, 35
1, 97200, Note_on_c, 0, 33, 29
1, 97207, Control_c, 0, 64, 0
1, 97260, Note_on_c, 0, 33, 0
1, 97260, Note_on_c, 0, 45, 0
1, 97440, Tempo, 770812
1, 97440, Note_on_c, 0, 53, 0
1, 97440, Note_on_c, 0, 58, 46
1, 97440, Note_on_c, 0, 29, 32
1, 97440, Note_on_c, 0, 41, 38
1, 97500, Note_on_c, 0, 41, 0
1, 97500, Note_on_c, 0, 29, 0
1, 97500, Control_c, 0, 64, 127
1, 97560, Tempo, 800961
1, 97560, Note_on_c, 0, 58, 0
1, 97560, Note_on_c, 0, 57, 40
1, 97589, Control_c, 0, 64, 0
1, 97680, Tempo, 845070
1, 97680, Note_on_c, 0, 57, 0
1, 97680, Note_on_c, 0, 62, 0
1, 97680, Note_on_c, 0, 65, 0
1, 97680, Note_on_c, 0, 53, 41
1, 97680, Note_on_c, 0, 58, 36
1, 97680, Note_on_c, 0, 61, 44
1, 97680, Note_on_c, 0, 43, 35
1, 97680, Note_on_c, 0, 31, 29
1, 97715, Control_c, 0, 64, 127
1, 97740, Note_on_c, 0, 31, 0
1, 97740, Note_on_c, 0, 61, 0
1, 97740, Note_on_c, 0, 43, 0
1, 97740, Note_on_c, 0, 58, 0
1, 97800, Tempo, 897263
1, 97800, Note_on_c, 0, 53, 0
1, 97800, Note_on_c, 0, 55, 40
1, 97810, Control_c, 0, 64, 0
1, 97920, Tempo, 832062
1, 97920, Note_on_c, 0, 55, 0
1, 97920, Note_on_c, 0, 53, 39
1, 97920, Note_on_c, 0, 62, 46
1, 97920, Note_on_c, 0, 45, 33
1, 97920, Note_on_c, 0, 38, 33
1, 97980, Note_on_c, 0, 38, 0
1, 97980, Note_on_c, 0, 53, 0
1, 97980, Note_on_c, 0, 62, 0
1, 97980, Note_on_c, 0, 45, 0
1, 98040, Tempo, 844001
1, 98064, Tempo, 837989
1, 98083, Tempo, 832062
1, 98122, Tempo, 826105
1, 98141, Tempo, 820345
1, 98160, Note_on_c, 0, 64, 54
1, 98160, Note_on_c, 0, 57, 45
1, 98160, Note_on_c, 0, 55, 45
1, 98160, Note_on_c, 0, 50, 68
1, 98220, Note_on_c, 0, 55, 0
1, 98220, Note_on_c, 0, 64, 0
1, 98220, Note_on_c, 0, 57, 0
1, 98280, Note_on_c, 0, 50, 0
1, 98280, Note_on_c, 0, 49, 54
1, 98400, Note_on_c, 0, 49, 0
1, 98400, Note_on_c, 0, 62, 50
1, 98400, Note_on_c, 0, 65, 61
1, 98400, Note_on_c, 0, 57, 50
1, 98400, Note_on_c, 0, 53, 50
1, 98400, Note_on_c, 0, 50, 54
1, 98419, Tempo, 792602
1, 98490, Note_on_c, 0, 50, 0
1, 98520, Note_on_c, 0, 49, 49
1, 98610, Note_on_c, 0, 49, 0
1, 98640, Note_on_c, 0, 50, 52
1, 98730, Note_on_c, 0, 50, 0
1, 98760, Note_on_c, 0, 49, 57
1, 98850, Note_on_c, 0, 49, 0
1, 98880, Note_on_c, 0, 50, 66
1, 98906, Control_c, 0, 64, 127
1, 98938, Tempo, 787195
1, 98995, Tempo, 792602
1, 99000, Note_on_c, 0, 50, 0
1, 99000, Note_on_c, 0, 48, 56
1, 99053, Tempo, 797978
1, 99091, Tempo, 803536
1, 99120, Note_on_c, 0, 48, 0
1, 99120, Note_on_c, 0, 53, 0
1, 99120, Note_on_c, 0, 62, 0
1, 99120, Note_on_c, 0, 65, 0
1, 99120, Note_on_c, 0, 57, 0
1, 99120, Note_on_c, 0, 60, 45
1, 99120, Note_on_c, 0, 62, 45
1, 99120, Note_on_c, 0, 66, 54
1, 99120, Note_on_c, 0, 46, 61
1, 99132, Control_c, 0, 64, 0
1, 99149, Tempo, 809061
1, 99168, Control_c, 0, 64, 127
1, 99207, Tempo, 814664
1, 99240, Note_on_c, 0, 46, 0
1, 99240, Note_on_c, 0, 45, 45
1, 99245, Tempo, 820345
1, 99360, Tempo, 809061
1, 99360, Note_on_c, 0, 45, 0
1, 99360, Note_on_c, 0, 66, 0
1, 99360, Note_on_c, 0, 62, 0
1, 99360, Note_on_c, 0, 60, 0
1, 99360, Note_on_c, 0, 67, 60
1, 99360, Note_on_c, 0, 62, 51
1, 99360, Note_on_c, 0, 58, 51
1, 99360, Note_on_c, 0, 43, 45
1, 99377, Control_c, 0, 64, 0
1, 99417, Control_c, 0, 64, 127
1, 99466, Note_on_c, 0, 40, 37
1, 99480, Tempo, 862813
1, 99480, Note_on_c, 0, 43, 0
1, 99586, Note_on_c, 0, 40, 0
1, 99600, Tempo, 806127
1, 99600, Note_on_c, 0, 67, 0
1, 99600, Note_on_c, 0, 62, 0
1, 99600, Note_on_c, 0, 58, 0
1, 99600, Note_on_c, 0, 69, 56
1, 99600, Note_on_c, 0, 62, 47
1, 99600, Note_on_c, 0, 57, 47
1, 99600, Note_on_c, 0, 41, 45
1, 99613, Control_c, 0, 64, 0
1, 99657, Control_c, 0, 64, 127
1, 99720, Tempo, 1204819
1, 99840, Tempo, 1038062
1, 99840, Note_on_c, 0, 41, 0
1, 99840, Note_on_c, 0, 69, 0
1, 99840, Note_on_c, 0, 62, 0
1, 99840, Note_on_c, 0, 57, 0
1, 99840, Note_on_c, 0, 73, 63
1, 99840, Note_on_c, 0, 67, 53
1, 99840, Note_on_c, 0, 61, 53
1, 99840, Note_on_c, 0, 45, 35
1, 99840, Note_on_c, 0, 55, 45
1, 99840, Note_on_c, 0, 52, 35
1, 99852, Control_c, 0, 64, 0
1, 99920, Control_c, 0, 64, 127
1, 100320, Tempo, 1102536
1, 100320, Note_on_c, 0, 52, 0
1, 100320, Note_on_c, 0, 67, 0
1, 100320, Note_on_c, 0, 61, 0
1, 100320, Note_on_c, 0, 73, 0
1, 100320, Note_on_c, 0, 55, 0
1, 100320, Note_on_c, 0, 45, 0
1, 100320, Note_on_c, 0, 62, 36
1, 100320, Note_on_c, 0, 65, 36
1, 100320, Note_on_c, 0, 74, 43
1, 100320, Note_on_c, 0, 38, 28
1, 100320, Note_on_c, 0, 45, 28
1, 100320, Note_on_c, 0, 53, 30
1, 100335, Control_c, 0, 64, 0
1, 100446, Control_c, 0, 64, 127
1, 100800, Tempo, 821918
1, 100800, Note_on_c, 0, 53, 0
1, 100800, Note_on_c, 0, 65, 0
1, 100800, Note_on_c, 0, 74, 0
1, 100800, Note_on_c, 0, 62, 0
1, 100800, Note_on_c, 0, 45, 0
1, 100800, Note_on_c, 0, 38, 0
1, 100800, Note_on_c, 0, 38, 30
1, 100809, Control_c, 0, 64, 0
1, 100899, Control_c, 0, 64, 127
1, 101160, Note_on_c, 0, 38, 0
1, 101160, Note_on_c, 0, 38, 30
1, 101280, Tempo, 839161
1, 101280, Note_on_c, 0, 38, 0
1, 101280, Note_on_c, 0, 86, 44
1, 101280, Note_on_c, 0, 38, 30
1, 101337, Control_c, 0, 64, 0
1, 101414, Control_c, 0, 64, 127
1, 101520, Note_on_c, 0, 86, 0
1, 101520, Note_on_c, 0, 84, 39
1, 101760, Note_on_c, 0, 84, 0
1, 101760, Note_on_c, 0, 77, 33
1, 101760, Note_on_c, 0, 81, 44
1, 102000, Note_on_c, 0, 81, 0
1, 102000, Note_on_c, 0, 82, 40
1, 102240, Note_on_c, 0, 82, 0
1, 102240, Note_on_c, 0, 84, 44
1, 102250, Control_c, 0, 64, 0
1, 102281, Control_c, 0, 64, 127
1, 102480, Note_on_c, 0, 77, 0
1, 102480, Note_on_c, 0, 76, 39
1, 102720, Note_on_c, 0, 76, 0
1, 102720, Note_on_c, 0, 84, 0
1, 102720, Note_on_c, 0, 72, 39
1, 102720, Note_on_c, 0, 84, 42
1, 102739, Control_c, 0, 64, 0
1, 102777, Control_c, 0, 64, 127
1, 102960, Note_on_c, 0, 84, 0
1, 102960, Note_on_c, 0, 72, 0
1, 102960, Note_on_c, 0, 74, 35
1, 102960, Note_on_c, 0, 82, 32
1, 103080, Tempo, 844001
1, 103080, Note_on_c, 0, 67, 28
1, 103104, Tempo, 837989
1, 103120, Note_on_c, 0, 67, 0
1, 103120, Note_on_c, 0, 69, 30
1, 103123, Tempo, 832062
1, 103160, Note_on_c, 0, 69, 0
1, 103160, Note_on_c, 0, 70, 32
1, 103162, Tempo, 826105
1, 103181, Tempo, 820345
1, 103200, Tempo, 814664
1, 103200, Note_on_c, 0, 70, 0
1, 103200, Note_on_c, 0, 82, 0
1, 103200, Note_on_c, 0, 74, 0
1, 103200, Note_on_c, 0, 79, 43
1, 103200, Note_on_c, 0, 75, 33
1, 103200, Note_on_c, 0, 72, 35
1, 103211, Control_c, 0, 64, 0
1, 103260, Control_c, 0, 64, 127
1, 103440, Note_on_c, 0, 79, 0
1, 103440, Note_on_c, 0, 81, 37
1, 103560, Note_on_c, 0, 72, 0
1, 103560, Note_on_c, 0, 72, 38
1, 103680, Tempo, 833333
1, 103680, Note_on_c, 0, 72, 0
1, 103680, Note_on_c, 0, 81, 0
1, 103680, Note_on_c, 0, 82, 45
1, 103680, Note_on_c, 0, 72, 38
1, 103696, Control_c, 0, 64, 0
1, 103718, Control_c, 0, 64, 127
1, 103800, Note_on_c, 0, 72, 0
1, 103800, Note_on_c, 0, 70, 38
1, 103920, Note_on_c, 0, 70, 0
1, 103920, Note_on_c, 0, 75, 0
1, 103920, Note_on_c, 0, 74, 39
1, 103920, Note_on_c, 0, 67, 38
1, 104040, Note_on_c, 0, 67, 0
1, 104040, Note_on_c, 0, 69, 38
1, 104160, Note_on_c, 0, 69, 0
1, 104160, Note_on_c, 0, 74, 0
1, 104160, Note_on_c, 0, 82, 0
1, 104160, Note_on_c, 0, 82, 44
1, 104160, Note_on_c, 0, 70, 39
1, 104160, Note_on_c, 0, 67, 35
1, 104173, Control_c, 0, 64, 0
1, 104249, Control_c, 0, 64, 127
1, 104400, Note_on_c, 0, 70, 0
1, 104400, Note_on_c, 0, 82, 0
1, 104400, Note_on_c, 0, 81, 39
1, 104400, Note_on_c, 0, 72, 35
1, 104520, Tempo, 844001
1, 104520, Note_on_c, 0, 67, 0
1, 104520, Note_on_c, 0, 65, 28
1, 104544, Tempo, 837989
1, 104560, Note_on_c, 0, 65, 0
1, 104560, Note_on_c, 0, 67, 30
1, 104563, Tempo, 832062
1, 104600, Note_on_c, 0, 67, 0
1, 104600, Note_on_c, 0, 69, 32
1, 104602, Tempo, 826105
1, 104621, Tempo, 820345
1, 104640, Tempo, 814664
1, 104640, Note_on_c, 0, 69, 0
1, 104640, Note_on_c, 0, 72, 0
1, 104640, Note_on_c, 0, 81, 0
1, 104640, Note_on_c, 0, 74, 33
1, 104640, Note_on_c, 0, 77, 44
1, 104640, Note_on_c, 0, 70, 35
1, 104653, Control_c, 0, 64, 0
1, 104726, Control_c, 0, 64, 127
1, 104880, Note_on_c, 0, 77, 0
1, 104880, Note_on_c, 0, 79, 44
1, 105000, Note_on_c, 0, 70, 0
1, 105000, Note_on_c, 0, 70, 38
1, 105120, Tempo, 833333
1, 105120, Note_on_c, 0, 70, 0
1, 105120, Note_on_c, 0, 79, 0
1, 105120, Note_on_c, 0, 81, 45
1, 105120, Note_on_c, 0, 70, 38
1, 105129, Control_c, 0, 64, 0
1, 105173, Control_c, 0, 64, 127
1, 105240, Note_on_c, 0, 70, 0
1, 105240, Note_on_c, 0, 69, 38
1, 105360, Note_on_c, 0, 69, 0
1, 105360, Note_on_c, 0, 74, 0
1, 105360, Note_on_c, 0, 73, 39
1, 105360, Note_on_c, 0, 65, 38
1, 105480, Tempo, 902256
1, 105480, Note_on_c, 0, 65, 0
1, 105480, Note_on_c, 0, 67, 38
1, 105600, Tempo, 839161
1, 105600, Note_on_c, 0, 67, 0
1, 105600, Note_on_c, 0, 73, 0
1, 105600, Note_on_c, 0, 81, 0
1, 105600, Note_on_c, 0, 81, 44
1, 105600, Note_on_c, 0, 69, 39
1, 105600, Note_on_c, 0, 65, 35
1, 105616, Control_c, 0, 64, 0
1, 105703, Control_c, 0, 64, 127
1, 105840, Note_on_c, 0, 69, 0
1, 105840, Note_on_c, 0, 81, 0
1, 105840, Note_on_c, 0, 79, 39
1, 105840, Note_on_c, 0, 70, 35
1, 105960, Tempo, 844001
1, 105960, Note_on_c, 0, 65, 0
1, 105960, Note_on_c, 0, 67, 28
1, 105984, Tempo, 837989
1, 106003, Tempo, 832062
1, 106042, Tempo, 826105
1, 106061, Tempo, 820345
1, 106080, Tempo, 814664
1, 106080, Note_on_c, 0, 67, 0
1, 106080, Note_on_c, 0, 70, 0
1, 106080, Note_on_c, 0, 79, 0
1, 106080, Note_on_c, 0, 38, 0
1, 106080, Note_on_c, 0, 73, 33
1, 106080, Note_on_c, 0, 69, 44
1, 106080, Note_on_c, 0, 69, 35
1, 106093, Control_c, 0, 64, 0
1, 106186, Control_c, 0, 64, 127
1, 106320, Note_on_c, 0, 69, 0
1, 106320, Note_on_c, 0, 69, 0
1, 106320, Note_on_c, 0, 67, 44
1, 106320, Note_on_c, 0, 45, 30
1, 106380, Note_on_c, 0, 45, 0
1, 106380, Note_on_c, 0, 46, 31
1, 106389, Tempo, 869565
1, 106428, Tempo, 863309
1, 106440, Note_on_c, 0, 46, 0
1, 106440, Note_on_c, 0, 48, 31
1, 106447, Tempo, 857143
1, 106466, Tempo, 851064
1, 106485, Tempo, 845070
1, 106500, Note_on_c, 0, 48, 0
1, 106500, Note_on_c, 0, 50, 32
1, 106505, Tempo, 839161
1, 106524, Tempo, 833333
1, 106543, Tempo, 827586
1, 106560, Tempo, 839161
1, 106560, Note_on_c, 0, 50, 0
1, 106560, Note_on_c, 0, 67, 0
1, 106560, Note_on_c, 0, 73, 0
1, 106560, Note_on_c, 0, 66, 47
1, 106560, Note_on_c, 0, 51, 35
1, 106576, Control_c, 0, 64, 0
1, 106701, Control_c, 0, 64, 127
1, 106920, Note_on_c, 0, 51, 0
1, 106920, Note_on_c, 0, 51, 34
1, 107040, Note_on_c, 0, 51, 0
1, 107040, Note_on_c, 0, 72, 48
1, 107040, Note_on_c, 0, 51, 38
1, 107280, Note_on_c, 0, 51, 0
1, 107280, Note_on_c, 0, 50, 34
1, 107340, Note_on_c, 0, 66, 0
1, 107340, Note_on_c, 0, 62, 37
1, 107349, Tempo, 882353
1, 107369, Tempo, 875912
1, 107388, Tempo, 869565
1, 107400, Note_on_c, 0, 62, 0
1, 107400, Note_on_c, 0, 64, 39
1, 107407, Tempo, 863309
1, 107426, Tempo, 857143
1, 107445, Tempo, 851064
1, 107460, Note_on_c, 0, 64, 0
1, 107460, Note_on_c, 0, 66, 41
1, 107465, Tempo, 845070
1, 107484, Tempo, 839161
1, 107503, Tempo, 833333
1, 107520, Note_on_c, 0, 66, 0
1, 107520, Note_on_c, 0, 50, 0
1, 107520, Note_on_c, 0, 72, 0
1, 107520, Note_on_c, 0, 67, 48
1, 107520, Note_on_c, 0, 70, 48
1, 107520, Note_on_c, 0, 46, 38
1, 107522, Tempo, 821918
1, 107524, Control_c, 0, 64, 0
1, 107644, Control_c, 0, 64, 127
1, 107760, Note_on_c, 0, 46, 0
1, 107760, Note_on_c, 0, 48, 32
1, 107772, Tempo, 851064
1, 107820, Note_on_c, 0, 48, 0
1, 107820, Note_on_c, 0, 45, 34
1, 107829, Tempo, 845070
1, 107880, Note_on_c, 0, 45, 0
1, 107880, Note_on_c, 0, 67, 0
1, 107880, Note_on_c, 0, 67, 38
1, 107880, Note_on_c, 0, 46, 36
1, 107887, Tempo, 839161
1, 107940, Note_on_c, 0, 46, 0
1, 107940, Note_on_c, 0, 48, 38
1, 107945, Tempo, 833333
1, 108000, Tempo, 851064
1, 108000, Note_on_c, 0, 48, 0
1, 108000, Note_on_c, 0, 67, 0
1, 108000, Note_on_c, 0, 70, 0
1, 108000, Note_on_c, 0, 67, 48
1, 108000, Note_on_c, 0, 69, 47
1, 108000, Note_on_c, 0, 38, 30
1, 108000, Note_on_c, 0, 50, 35
1, 108007, Control_c, 0, 64, 0
1, 108113, Control_c, 0, 64, 127
1, 108240, Note_on_c, 0, 67, 0
1, 108240, Note_on_c, 0, 65, 48
1, 108360, Tempo, 944882
1, 108360, Note_on_c, 0, 50, 0
1, 108360, Note_on_c, 0, 50, 34
1, 108480, Tempo, 857143
1, 108480, Note_on_c, 0, 50, 0
1, 108480, Note_on_c, 0, 65, 0
1, 108480, Note_on_c, 0, 62, 48
1, 108480, Note_on_c, 0, 50, 38
1, 108720, Note_on_c, 0, 50, 0
1, 108720, Note_on_c, 0, 62, 0
1, 108720, Note_on_c, 0, 64, 40
1, 108720, Note_on_c, 0, 48, 34
1, 108780, Note_on_c, 0, 64, 0
1, 108780, Note_on_c, 0, 60, 37
1, 108789, Tempo, 909091
1, 108809, Tempo, 902256
1, 108828, Tempo, 895522
1, 108840, Note_on_c, 0, 60, 0
1, 108840, Note_on_c, 0, 62, 39
1, 108847, Tempo, 888889
1, 108866, Tempo, 882353
1, 108885, Tempo, 875912
1, 108900, Note_on_c, 0, 62, 0
1, 108900, Note_on_c, 0, 64, 41
1, 108905, Tempo, 869565
1, 108924, Tempo, 863309
1, 108943, Tempo, 857143
1, 108960, Tempo, 851064
1, 108960, Note_on_c, 0, 64, 0
1, 108960, Note_on_c, 0, 48, 0
1, 108960, Note_on_c, 0, 69, 0
1, 108960, Note_on_c, 0, 65, 48
1, 108960, Note_on_c, 0, 69, 48
1, 108960, Note_on_c, 0, 45, 38
1, 108975, Control_c, 0, 64, 0
1, 109066, Control_c, 0, 64, 127
1, 109200, Note_on_c, 0, 45, 0
1, 109200, Note_on_c, 0, 46, 32
1, 109250, Tempo, 895522
1, 109260, Note_on_c, 0, 46, 0
1, 109260, Note_on_c, 0, 43, 34
1, 109289, Tempo, 888889
1, 109308, Tempo, 882353
1, 109320, Note_on_c, 0, 43, 0
1, 109320, Note_on_c, 0, 65, 0
1, 109320, Note_on_c, 0, 65, 38
1, 109320, Note_on_c, 0, 45, 36
1, 109346, Tempo, 875912
1, 109365, Tempo, 869565
1, 109380, Note_on_c, 0, 45, 0
1, 109380, Note_on_c, 0, 46, 38
1, 109404, Tempo, 863309
1, 109423, Tempo, 857143
1, 109440, Tempo, 851064
1, 109440, Note_on_c, 0, 46, 0
1, 109440, Note_on_c, 0, 65, 0
1, 109440, Note_on_c, 0, 69, 0
1, 109440, Note_on_c, 0, 38, 0
1, 109440, Note_on_c, 0, 65, 48
1, 109440, Note_on_c, 0, 67, 47
1, 109440, Note_on_c, 0, 38, 30
1, 109440, Note_on_c, 0, 48, 35
1, 109453, Control_c, 0, 64, 0
1, 109539, Control_c, 0, 64, 127
1, 109680, Note_on_c, 0, 65, 0
1, 109680, Note_on_c, 0, 64, 48
1, 109800, Tempo, 909091
1, 109800, Note_on_c, 0, 48, 0
1, 109800, Note_on_c, 0, 48, 34
1, 109920, Tempo, 851064
1, 109920, Note_on_c, 0, 48, 0
1, 109920, Note_on_c, 0, 64, 0
1, 109920, Note_on_c, 0, 60, 48
1, 109920, Note_on_c, 0, 48, 38
1, 110160, Note_on_c, 0, 48, 0
1, 110160, Note_on_c, 0, 60, 0
1, 110160, Note_on_c, 0, 62, 40
1, 110160, Note_on_c, 0, 46, 34
1, 110172, Tempo, 888889
1, 110191, Tempo, 895522
1, 110220, Note_on_c, 0, 62, 0
1, 110220, Note_on_c, 0, 58, 37
1, 110229, Tempo, 888889
1, 110268, Tempo, 882353
1, 110280, Note_on_c, 0, 58, 0
1, 110280, Note_on_c, 0, 60, 39
1, 110306, Tempo, 875912
1, 110340, Note_on_c, 0, 60, 0
1, 110340, Note_on_c, 0, 62, 41
1, 110345, Tempo, 869565
1, 110383, Tempo, 863309
1, 110400, Note_on_c, 0, 62, 0
1, 110400, Note_on_c, 0, 46, 0
1, 110400, Note_on_c, 0, 67, 0
1, 110400, Note_on_c, 0, 63, 48
1, 110400, Note_on_c, 0, 67, 48
1, 110400, Note_on_c, 0, 43, 38
1, 110417, Control_c, 0, 64, 0
1, 110421, Tempo, 857143
1, 110460, Tempo, 851064
1, 110520, Control_c, 0, 64, 127
1, 110640, Note_on_c, 0, 43, 0
1, 110640, Note_on_c, 0, 45, 32
1, 110690, Tempo, 895522
1, 110700, Note_on_c, 0, 45, 0
1, 110700, Note_on_c, 0, 41, 34
1, 110729, Tempo, 888889
1, 110760, Note_on_c, 0, 41, 0
1, 110760, Note_on_c, 0, 63, 0
1, 110760, Note_on_c, 0, 63, 38
1, 110760, Note_on_c, 0, 43, 36
1, 110767, Tempo, 882353
1, 110786, Tempo, 875912
1, 110820, Note_on_c, 0, 43, 0
1, 110820, Note_on_c, 0, 45, 38
1, 110825, Tempo, 869565
1, 110863, Tempo, 863309
1, 110880, Tempo, 902256
1, 110880, Note_on_c, 0, 45, 0
1, 110880, Note_on_c, 0, 63, 0
1, 110880, Note_on_c, 0, 67, 0
1, 110880, Note_on_c, 0, 38, 0
1, 110880, Note_on_c, 0, 63, 47
1, 110880, Note_on_c, 0, 65, 47
1, 110880, Note_on_c, 0, 38, 30
1, 110880, Note_on_c, 0, 46, 35
1, 110888, Control_c, 0, 64, 0
1, 110972, Control_c, 0, 64, 127
1, 111120, Note_on_c, 0, 63, 0
1, 111120, Note_on_c, 0, 62, 40
1, 111240, Note_on_c, 0, 46, 0
1, 111240, Note_on_c, 0, 45, 25
1, 111360, Tempo, 944882
1, 111360, Note_on_c, 0, 45, 0
1, 111360, Note_on_c, 0, 62, 0
1, 111360, Note_on_c, 0, 58, 39
1, 111360, Note_on_c, 0, 43, 31
1, 111369, Control_c, 0, 64, 0
1, 111452, Control_c, 0, 64, 127
1, 111600, Tempo, 1025641
1, 111600, Note_on_c, 0, 43, 0
1, 111600, Note_on_c, 0, 65, 0
1, 111600, Note_on_c, 0, 38, 0
1, 111600, Note_on_c, 0, 58, 0
1, 111600, Note_on_c, 0, 61, 30
1, 111600, Note_on_c, 0, 55, 25
1, 111600, Note_on_c, 0, 45, 26
1, 111720, Tempo, 1121495
1, 111840, Note_on_c, 0, 55, 0
1, 111840, Note_on_c, 0, 61, 0
1, 111840, Note_on_c, 0, 62, 37
1, 111840, Note_on_c, 0, 53, 31
1, 111840, Note_on_c, 0, 38, 24
1, 111859, Control_c, 0, 64, 0
1, 112080, Tempo, 888889
1, 112080, Note_on_c, 0, 38, 0
1, 112080, Note_on_c, 0, 45, 0
1, 112080, Note_on_c, 0, 62, 0
1, 112080, Note_on_c, 0, 53, 0
1, 112080, Note_on_c, 0, 57, 36
1, 112140, Note_on_c, 0, 57, 0
1, 112200, Tempo, 888889
1, 112200, Note_on_c, 0, 61, 39
1, 112260, Note_on_c, 0, 61, 0
1, 112320, Tempo, 851064
1, 112320, Note_on_c, 0, 62, 48
1, 112545, Tempo, 766284
1, 112560, Note_on_c, 0, 74, 38
1, 112560, Note_on_c, 0, 65, 38
1, 112560, Note_on_c, 0, 70, 33
1, 112560, Note_on_c, 0, 58, 33
1, 112583, Tempo, 771208
1, 112620, Note_on_c, 0, 58, 0
1, 112620, Note_on_c, 0, 65, 0
1, 112620, Note_on_c, 0, 70, 0
1, 112620, Note_on_c, 0, 74, 0
1, 112679, Tempo, 766284
1, 112680, Note_on_c, 0, 77, 34
1, 112740, Note_on_c, 0, 77, 0
1, 112775, Tempo, 761421
1, 112800, Note_on_c, 0, 65, 50
1, 112800, Note_on_c, 0, 74, 50
1, 112800, Note_on_c, 0, 58, 42
1, 112800, Note_on_c, 0, 69, 42
1, 112860, Note_on_c, 0, 69, 0
1, 112860, Note_on_c, 0, 74, 0
1, 112860, Note_on_c, 0, 58, 0
1, 112860, Note_on_c, 0, 65, 0
1, 112871, Tempo, 756620
1, 112920, Note_on_c, 0, 77, 45
1, 112967, Tempo, 751880
1, 112980, Note_on_c, 0, 77, 0
1, 113040, Note_on_c, 0, 74, 54
1, 113040, Note_on_c, 0, 65, 54
1, 113040, Note_on_c, 0, 68, 42
1, 113040, Note_on_c, 0, 58, 42
1, 113044, Tempo, 747198
1, 113082, Tempo, 742574
1, 113100, Note_on_c, 0, 58, 0
1, 113100, Note_on_c, 0, 65, 0
1, 113100, Note_on_c, 0, 68, 0
1, 113100, Note_on_c, 0, 74, 0
1, 113121, Tempo, 747198
1, 113140, Tempo, 751880
1, 113159, Tempo, 756620
1, 113160, Note_on_c, 0, 77, 36
1, 113178, Tempo, 761421
1, 113197, Tempo, 766284
1, 113217, Tempo, 771208
1, 113220, Note_on_c, 0, 77, 0
1, 113236, Tempo, 776197
1, 113255, Tempo, 781250
1, 113256, Tempo, 794702
1, 113280, Tempo, 781250
1, 113280, Note_on_c, 0, 62, 0
1, 113280, Note_on_c, 0, 65, 44
1, 113280, Note_on_c, 0, 74, 44
1, 113280, Note_on_c, 0, 67, 34
1, 113280, Note_on_c, 0, 58, 34
1, 113294, Tempo, 800000
1, 113340, Note_on_c, 0, 58, 0
1, 113340, Note_on_c, 0, 65, 0
1, 113340, Note_on_c, 0, 74, 0
1, 113340, Note_on_c, 0, 67, 0
1, 113400, Note_on_c, 0, 77, 34
1, 113460, Note_on_c, 0, 77, 0
1, 113520, Tempo, 857143
1, 113520, Note_on_c, 0, 57, 36
1, 113580, Note_on_c, 0, 57, 0
1, 113640, Tempo, 863309
1, 113640, Note_on_c, 0, 61, 39
1, 113700, Note_on_c, 0, 61, 0
1, 113760, Tempo, 845070
1, 113760, Note_on_c, 0, 62, 48
1, 113946, Tempo, 791557
1, 114000, Note_on_c, 0, 74, 38
1, 114000, Note_on_c, 0, 65, 38
1, 114000, Note_on_c, 0, 70, 33
1, 114000, Note_on_c, 0, 58, 33
1, 114042, Tempo, 786370
1, 114060, Note_on_c, 0, 58, 0
1, 114060, Note_on_c, 0, 65, 0
1, 114060, Note_on_c, 0, 70, 0
1, 114060, Note_on_c, 0, 74, 0
1, 114119, Tempo, 781250
1, 114120, Note_on_c, 0, 77, 34
1, 114180, Note_on_c, 0, 77, 0
1, 114215, Tempo, 776197
1, 114240, Note_on_c, 0, 65, 50
1, 114240, Note_on_c, 0, 74, 50
1, 114240, Note_on_c, 0, 58, 42
1, 114240, Note_on_c, 0, 69, 42
1, 114292, Tempo, 771208
1, 114300, Note_on_c, 0, 69, 0
1, 114300, Note_on_c, 0, 74, 0
1, 114300, Note_on_c, 0, 58, 0
1, 114300, Note_on_c, 0, 65, 0
1, 114360, Note_on_c, 0, 77, 45
1, 114388, Tempo, 766284
1, 114420, Note_on_c, 0, 77, 0
1, 114465, Tempo, 761421
1, 114480, Note_on_c, 0, 74, 54
1, 114480, Note_on_c, 0, 65, 54
1, 114480, Note_on_c, 0, 68, 42
1, 114480, Note_on_c, 0, 58, 42
1, 114540, Note_on_c, 0, 58, 0
1, 114540, Note_on_c, 0, 65, 0
1, 114540, Note_on_c, 0, 68, 0
1, 114540, Note_on_c, 0, 74, 0
1, 114541, Tempo, 756620
1, 114580, Tempo, 761421
1, 114600, Note_on_c, 0, 77, 36
1, 114618, Tempo, 766284
1, 114657, Tempo, 771208
1, 114660, Note_on_c, 0, 77, 0
1, 114695, Tempo, 776197
1, 114720, Note_on_c, 0, 62, 0
1, 114720, Note_on_c, 0, 65, 44
1, 114720, Note_on_c, 0, 74, 44
1, 114720, Note_on_c, 0, 67, 34
1, 114720, Note_on_c, 0, 58, 34
1, 114733, Tempo, 781250
1, 114772, Tempo, 786370
1, 114780, Note_on_c, 0, 58, 0
1, 114780, Note_on_c, 0, 65, 0
1, 114780, Note_on_c, 0, 74, 0
1, 114780, Note_on_c, 0, 67, 0
1, 114810, Tempo, 791557
1, 114830, Tempo, 810811
1, 114840, Note_on_c, 0, 77, 34
1, 114900, Note_on_c, 0, 77, 0
1, 114960, Tempo, 923077
1, 114960, Note_on_c, 0, 57, 41
1, 115020, Note_on_c, 0, 57, 0
1, 115080, Tempo, 983607
1, 115080, Note_on_c, 0, 61, 48
1, 115140, Note_on_c, 0, 61, 0
1, 115200, Tempo, 845070
1, 115200, Note_on_c, 0, 62, 53
1, 115440, Tempo, 816327
1, 115440, Note_on_c, 0, 62, 48
1, 115440, Note_on_c, 0, 74, 55
1, 115440, Note_on_c, 0, 68, 48
1, 115440, Note_on_c, 0, 56, 47
1, 115440, Note_on_c, 0, 47, 41
1, 115463, Tempo, 791557
1, 115500, Note_on_c, 0, 47, 0
1, 115500, Note_on_c, 0, 62, 0
1, 115500, Note_on_c, 0, 74, 0
1, 115500, Note_on_c, 0, 68, 0
1, 115500, Note_on_c, 0, 56, 0
1, 115540, Tempo, 786370
1, 115560, Note_on_c, 0, 77, 51
1, 115560, Note_on_c, 0, 65, 45
1, 115560, Note_on_c, 0, 62, 47
1, 115597, Tempo, 781250
1, 115620, Note_on_c, 0, 62, 0
1, 115620, Note_on_c, 0, 65, 0
1, 115620, Note_on_c, 0, 77, 0
1, 115655, Tempo, 776197
1, 115680, Note_on_c, 0, 70, 60
1, 115680, Note_on_c, 0, 63, 60
1, 115680, Note_on_c, 0, 75, 69
1, 115680, Note_on_c, 0, 46, 50
1, 115680, Note_on_c, 0, 55, 57
1, 115713, Tempo, 771208
1, 115740, Note_on_c, 0, 55, 0
1, 115740, Note_on_c, 0, 70, 0
1, 115740, Note_on_c, 0, 63, 0
1, 115740, Note_on_c, 0, 75, 0
1, 115740, Note_on_c, 0, 46, 0
1, 115789, Tempo, 766284
1, 115800, Note_on_c, 0, 79, 58
1, 115800, Note_on_c, 0, 67, 51
1, 115800, Note_on_c, 0, 63, 57
1, 115847, Tempo, 761421
1, 115860, Note_on_c, 0, 63, 0
1, 115860, Note_on_c, 0, 67, 0
1, 115860, Note_on_c, 0, 79, 0
1, 115905, Tempo, 756620
1, 115920, Note_on_c, 0, 70, 59
1, 115920, Note_on_c, 0, 74, 67
1, 115920, Note_on_c, 0, 62, 59
1, 115920, Note_on_c, 0, 44, 51
1, 115920, Note_on_c, 0, 53, 58
1, 115962, Tempo, 751880
1, 115980, Note_on_c, 0, 53, 0
1, 115980, Note_on_c, 0, 70, 0
1, 115980, Note_on_c, 0, 74, 0
1, 115980, Note_on_c, 0, 62, 0
1, 115980, Note_on_c, 0, 44, 0
1, 116020, Tempo, 756620
1, 116040, Note_on_c, 0, 65, 49
1, 116040, Note_on_c, 0, 77, 56
1, 116040, Note_on_c, 0, 62, 56
1, 116058, Tempo, 761421
1, 116100, Note_on_c, 0, 62, 0
1, 116100, Note_on_c, 0, 77, 0
1, 116100, Note_on_c, 0, 65, 0
1, 116116, Tempo, 766284
1, 116154, Tempo, 771208
1, 116160, Note_on_c, 0, 62, 0
1, 116160, Note_on_c, 0, 62, 64
1, 116160, Note_on_c, 0, 69, 64
1, 116160, Note_on_c, 0, 74, 73
1, 116160, Note_on_c, 0, 45, 53
1, 116160, Note_on_c, 0, 53, 60
1, 116212, Tempo, 776197
1, 116220, Note_on_c, 0, 53, 0
1, 116220, Note_on_c, 0, 74, 0
1, 116220, Note_on_c, 0, 62, 0
1, 116220, Note_on_c, 0, 69, 0
1, 116220, Note_on_c, 0, 45, 0
1, 116250, Tempo, 781250
1, 116280, Note_on_c, 0, 65, 55
1, 116280, Note_on_c, 0, 77, 63
1, 116280, Note_on_c, 0, 62, 55
1, 116289, Tempo, 786370
1, 116340, Note_on_c, 0, 62, 0
1, 116340, Note_on_c, 0, 77, 0
1, 116340, Note_on_c, 0, 65, 0
1, 116400, Note_on_c, 0, 61, 67
1, 116400, Note_on_c, 0, 69, 67
1, 116400, Note_on_c, 0, 73, 77
1, 116400, Note_on_c, 0, 45, 62
1, 116400, Note_on_c, 0, 52, 62
1, 116400, Note_on_c, 0, 57, 71
1, 116460, Tempo, 875912
1, 116460, Note_on_c, 0, 57, 0
1, 116460, Note_on_c, 0, 69, 0
1, 116460, Note_on_c, 0, 73, 0
1, 116460, Note_on_c, 0, 61, 0
1, 116460, Note_on_c, 0, 52, 0
1, 116460, Note_on_c, 0, 45, 0
1, 116520, Note_on_c, 0, 64, 61
1, 116520, Note_on_c, 0, 76, 70
1, 116520, Note_on_c, 0, 61, 69
1, 116580, Tempo, 923077
1, 116580, Note_on_c, 0, 61, 0
1, 116580, Note_on_c, 0, 76, 0
1, 116580, Note_on_c, 0, 64, 0
1, 116640, Tempo, 845070
1, 116640, Note_on_c, 0, 65, 57
1, 116640, Note_on_c, 0, 69, 57
1, 116640, Note_on_c, 0, 74, 80
1, 116640, Note_on_c, 0, 62, 78
1, 116640, Note_on_c, 0, 57, 68
1, 116640, Note_on_c, 0, 50, 68
1, 116880, Tempo, 816327
1, 116880, Note_on_c, 0, 50, 0
1, 116880, Note_on_c, 0, 69, 0
1, 116880, Note_on_c, 0, 65, 0
1, 116880, Note_on_c, 0, 74, 0
1, 116880, Note_on_c, 0, 57, 0
1, 116880, Note_on_c, 0, 62, 51
1, 116880, Note_on_c, 0, 74, 60
1, 116880, Note_on_c, 0, 68, 51
1, 116880, Note_on_c, 0, 47, 49
1, 116880, Note_on_c, 0, 56, 58
1, 116922, Tempo, 786370
1, 116940, Note_on_c, 0, 56, 0
1, 116940, Note_on_c, 0, 62, 0
1, 116940, Note_on_c, 0, 74, 0
1, 116940, Note_on_c, 0, 68, 0
1, 116940, Note_on_c, 0, 47, 0
1, 117000, Note_on_c, 0, 77, 48
1, 117000, Note_on_c, 0, 65, 40
1, 117000, Note_on_c, 0, 62, 47
1, 117037, Tempo, 781250
1, 117060, Note_on_c, 0, 62, 0
1, 117060, Note_on_c, 0, 65, 0
1, 117060, Note_on_c, 0, 77, 0
1, 117120, Note_on_c, 0, 75, 59
1, 117120, Note_on_c, 0, 63, 50
1, 117120, Note_on_c, 0, 70, 50
1, 117120, Note_on_c, 0, 55, 58
1, 117120, Note_on_c, 0, 46, 49
1, 117153, Tempo, 776197
1, 117180, Note_on_c, 0, 46, 0
1, 117180, Note_on_c, 0, 75, 0
1, 117180, Note_on_c, 0, 63, 0
1, 117180, Note_on_c, 0, 70, 0
1, 117180, Note_on_c, 0, 55, 0
1, 117240, Note_on_c, 0, 79, 48
1, 117240, Note_on_c, 0, 67, 40
1, 117240, Note_on_c, 0, 63, 47
1, 117268, Tempo, 771208
1, 117300, Note_on_c, 0, 63, 0
1, 117300, Note_on_c, 0, 67, 0
1, 117300, Note_on_c, 0, 79, 0
1, 117360, Note_on_c, 0, 70, 48
1, 117360, Note_on_c, 0, 74, 57
1, 117360, Note_on_c, 0, 62, 48
1, 117360, Note_on_c, 0, 44, 48
1, 117360, Note_on_c, 0, 53, 57
1, 117364, Tempo, 766284
1, 117403, Tempo, 789474
1, 117420, Note_on_c, 0, 53, 0
1, 117420, Note_on_c, 0, 70, 0
1, 117420, Note_on_c, 0, 74, 0
1, 117420, Note_on_c, 0, 62, 0
1, 117420, Note_on_c, 0, 44, 0
1, 117461, Tempo, 794702
1, 117480, Note_on_c, 0, 77, 43
1, 117480, Note_on_c, 0, 65, 36
1, 117480, Note_on_c, 0, 62, 47
1, 117518, Tempo, 800000
1, 117540, Note_on_c, 0, 62, 0
1, 117540, Note_on_c, 0, 65, 0
1, 117540, Note_on_c, 0, 77, 0
1, 117595, Tempo, 805369
1, 117600, Note_on_c, 0, 62, 0
1, 117600, Note_on_c, 0, 74, 53
1, 117600, Note_on_c, 0, 69, 45
1, 117600, Note_on_c, 0, 62, 45
1, 117600, Note_on_c, 0, 45, 45
1, 117600, Note_on_c, 0, 53, 53
1, 117653, Tempo, 810811
1, 117660, Note_on_c, 0, 53, 0
1, 117660, Note_on_c, 0, 62, 0
1, 117660, Note_on_c, 0, 74, 0
1, 117660, Note_on_c, 0, 69, 0
1, 117660, Note_on_c, 0, 45, 0
1, 117710, Tempo, 816327
1, 117720, Note_on_c, 0, 65, 31
1, 117720, Note_on_c, 0, 77, 44
1, 117720, Note_on_c, 0, 62, 45
1, 117780, Note_on_c, 0, 62, 0
1, 117780, Note_on_c, 0, 77, 0
1, 117780, Note_on_c, 0, 65, 0
1, 117840, Tempo, 937500
1, 117840, Note_on_c, 0, 61, 43
1, 117840, Note_on_c, 0, 69, 43
1, 117840, Note_on_c, 0, 73, 51
1, 117840, Note_on_c, 0, 57, 54
1, 117840, Note_on_c, 0, 52, 45
1, 117840, Note_on_c, 0, 45, 45
1, 117900, Note_on_c, 0, 45, 0
1, 117900, Note_on_c, 0, 69, 0
1, 117900, Note_on_c, 0, 73, 0
1, 117900, Note_on_c, 0, 61, 0
1, 117900, Note_on_c, 0, 52, 0
1, 117900, Note_on_c, 0, 57, 0
1, 117960, Tempo, 1016949
1, 117960, Note_on_c, 0, 76, 40
1, 117960, Note_on_c, 0, 64, 34
1, 117960, Note_on_c, 0, 61, 57
1, 118020, Note_on_c, 0, 61, 0
1, 118020, Note_on_c, 0, 64, 0
1, 118020, Note_on_c, 0, 76, 0
1, 118080, Note_on_c, 0, 74, 58
1, 118080, Note_on_c, 0, 69, 58
1, 118080, Note_on_c, 0, 65, 58
1, 118080, Note_on_c, 0, 62, 54
1, 118080, Note_on_c, 0, 50, 45
1, 118080, Note_on_c, 0, 57, 54
1, 118200, Note_on_c, 0, 57, 0
1, 118200, Note_on_c, 0, 69, 0
1, 118200, Note_on_c, 0, 74, 0
1, 118200, Note_on_c, 0, 65, 0
1, 118200, Note_on_c, 0, 50, 0
1, 118320, Tempo, 781250
1, 118320, Note_on_c, 0, 80, 42
1, 118320, Note_on_c, 0, 76, 40
1, 118341, Control_c, 0, 64, 127
1, 118440, Tempo, 813008
1, 118440, Note_on_c, 0, 76, 0
1, 118440, Note_on_c, 0, 80, 0
1, 118440, Note_on_c, 0, 77, 41
1, 118440, Note_on_c, 0, 81, 45
1, 118440, Note_on_c, 0, 74, 35
1, 118560, Tempo, 771208
1, 118560, Note_on_c, 0, 74, 0
1, 118560, Note_on_c, 0, 81, 0
1, 118560, Note_on_c, 0, 77, 0
1, 118560, Note_on_c, 0, 88, 40
1, 118560, Note_on_c, 0, 85, 34
1, 118560, Note_on_c, 0, 69, 40
1, 118680, Tempo, 829876
1, 118680, Note_on_c, 0, 69, 0
1, 118680, Note_on_c, 0, 85, 0
1, 118680, Note_on_c, 0, 88, 0
1, 118680, Note_on_c, 0, 86, 40
1, 118680, Note_on_c, 0, 89, 40
1, 118680, Note_on_c, 0, 74, 37
1, 118800, Tempo, 756620
1, 118800, Note_on_c, 0, 74, 0
1, 118800, Note_on_c, 0, 89, 0
1, 118800, Note_on_c, 0, 86, 0
1, 118800, Note_on_c, 0, 76, 47
1, 118800, Note_on_c, 0, 73, 40
1, 118800, Note_on_c, 0, 70, 40
1, 118817, Control_c, 0, 64, 0
1, 118874, Control_c, 0, 64, 127
1, 118920, Tempo, 786370
1, 118920, Note_on_c, 0, 70, 0
1, 118920, Note_on_c, 0, 73, 0
1, 118920, Note_on_c, 0, 76, 0
1, 118920, Note_on_c, 0, 74, 34
1, 118920, Note_on_c, 0, 77, 40
1, 118920, Note_on_c, 0, 69, 36
1, 119040, Tempo, 761421
1, 119040, Note_on_c, 0, 69, 0
1, 119040, Note_on_c, 0, 77, 0
1, 119040, Note_on_c, 0, 74, 0
1, 119040, Note_on_c, 0, 82, 36
1, 119040, Note_on_c, 0, 85, 44
1, 119040, Note_on_c, 0, 67, 40
1, 119160, Tempo, 869565
1, 119160, Note_on_c, 0, 67, 0
1, 119160, Note_on_c, 0, 85, 0
1, 119160, Note_on_c, 0, 82, 0
1, 119160, Note_on_c, 0, 81, 34
1, 119160, Note_on_c, 0, 86, 40
1, 119160, Note_on_c, 0, 65, 36
1, 119280, Tempo, 821918
1, 119280, Note_on_c, 0, 65, 0
1, 119280, Note_on_c, 0, 86, 0
1, 119280, Note_on_c, 0, 81, 0
1, 119280, Note_on_c, 0, 73, 47
1, 119280, Note_on_c, 0, 70, 40
1, 119280, Note_on_c, 0, 67, 40
1, 119297, Control_c, 0, 64, 0
1, 119354, Control_c, 0, 64, 127
1, 119400, Tempo, 833333
1, 119400, Note_on_c, 0, 67, 0
1, 119400, Note_on_c, 0, 70, 0
1, 119400, Note_on_c, 0, 73, 0
1, 119400, Note_on_c, 0, 69, 34
1, 119400, Note_on_c, 0, 74, 40
1, 119400, Note_on_c, 0, 65, 36
1, 119520, Tempo, 821918
1, 119520, Note_on_c, 0, 65, 0
1, 119520, Note_on_c, 0, 62, 0
1, 119520, Note_on_c, 0, 69, 0
1, 119520, Note_on_c, 0, 74, 0
1, 119520, Note_on_c, 0, 80, 44
1, 119520, Note_on_c, 0, 76, 36
1, 119520, Note_on_c, 0, 64, 40
1, 119524, Control_c, 0, 64, 0
1, 119577, Control_c, 0, 64, 127
1, 119640, Tempo, 869565
1, 119640, Note_on_c, 0, 64, 0
1, 119640, Note_on_c, 0, 76, 0
1, 119640, Note_on_c, 0, 80, 0
1, 119640, Note_on_c, 0, 77, 34
1, 119640, Note_on_c, 0, 81, 40
1, 119640, Note_on_c, 0, 62, 36
1, 119760, Tempo, 786370
1, 119760, Note_on_c, 0, 62, 0
1, 119760, Note_on_c, 0, 81, 0
1, 119760, Note_on_c, 0, 77, 0
1, 119760, Note_on_c, 0, 68, 42
1, 119760, Note_on_c, 0, 64, 40
1, 119766, Control_c, 0, 64, 0
1, 119813, Control_c, 0, 64, 127
1, 119880, Note_on_c, 0, 64, 0
1, 119880, Note_on_c, 0, 68, 0
1, 119880, Note_on_c, 0, 65, 37
1, 119880, Note_on_c, 0, 69, 45
1, 119880, Note_on_c, 0, 62, 35
1, 120000, Note_on_c, 0, 62, 0
1, 120000, Note_on_c, 0, 69, 0
1, 120000, Note_on_c, 0, 65, 0
1, 120000, Note_on_c, 0, 73, 34
1, 120000, Note_on_c, 0, 76, 40
1, 120000, Note_on_c, 0, 57, 40
1, 120018, Control_c, 0, 64, 0
1, 120063, Control_c, 0, 64, 127
1, 120120, Tempo, 851064
1, 120120, Note_on_c, 0, 57, 0
1, 120120, Note_on_c, 0, 76, 0
1, 120120, Note_on_c, 0, 73, 0
1, 120120, Note_on_c, 0, 74, 37
1, 120120, Note_on_c, 0, 77, 40
1, 120120, Note_on_c, 0, 62, 37
1, 120240, Tempo, 800000
1, 120240, Note_on_c, 0, 62, 0
1, 120240, Note_on_c, 0, 77, 0
1, 120240, Note_on_c, 0, 74, 0
1, 120240, Note_on_c, 0, 64, 47
1, 120240, Note_on_c, 0, 61, 40
1, 120240, Note_on_c, 0, 58, 40
1, 120252, Control_c, 0, 64, 0
1, 120315, Control_c, 0, 64, 127
1, 120360, Note_on_c, 0, 58, 0
1, 120360, Note_on_c, 0, 61, 0
1, 120360, Note_on_c, 0, 64, 0
1, 120360, Note_on_c, 0, 62, 34
1, 120360, Note_on_c, 0, 65, 40
1, 120360, Note_on_c, 0, 57, 36
1, 120480, Note_on_c, 0, 57, 0
1, 120480, Note_on_c, 0, 65, 0
1, 120480, Note_on_c, 0, 62, 0
1, 120480, Note_on_c, 0, 70, 36
1, 120480, Note_on_c, 0, 73, 44
1, 120480, Note_on_c, 0, 55, 40
1, 120600, Tempo, 882353
1, 120600, Note_on_c, 0, 55, 0
1, 120600, Note_on_c, 0, 73, 0
1, 120600, Note_on_c, 0, 70, 0
1, 120600, Note_on_c, 0, 74, 40
1, 120600, Note_on_c, 0, 69, 34
1, 120600, Note_on_c, 0, 53, 36
1, 120720, Tempo, 845070
1, 120720, Note_on_c, 0, 53, 0
1, 120720, Note_on_c, 0, 69, 0
1, 120720, Note_on_c, 0, 74, 0
1, 120720, Note_on_c, 0, 45, 40
1, 120732, Control_c, 0, 64, 0
1, 120783, Control_c, 0, 64, 127
1, 120840, Tempo, 952381
1, 120840, Note_on_c, 0, 45, 0
1, 120840, Note_on_c, 0, 49, 40
1, 120960, Tempo, 821918
1, 120960, Note_on_c, 0, 49, 0
1, 120960, Note_on_c, 0, 50, 43
1, 120987, Control_c, 0, 64, 0
1, 121200, Tempo, 756620
1, 121200, Note_on_c, 0, 68, 37
1, 121200, Note_on_c, 0, 64, 36
1, 121221, Control_c, 0, 64, 127
1, 121320, Tempo, 791557
1, 121320, Note_on_c, 0, 64, 0
1, 121320, Note_on_c, 0, 68, 0
1, 121320, Note_on_c, 0, 65, 32
1, 121320, Note_on_c, 0, 69, 40
1, 121320, Note_on_c, 0, 62, 31
1, 121440, Tempo, 756620
1, 121440, Note_on_c, 0, 62, 0
1, 121440, Note_on_c, 0, 69, 0
1, 121440, Note_on_c, 0, 65, 0
1, 121440, Note_on_c, 0, 76, 36
1, 121440, Note_on_c, 0, 73, 30
1, 121440, Note_on_c, 0, 57, 36
1, 121560, Tempo, 829876
1, 121560, Note_on_c, 0, 57, 0
1, 121560, Note_on_c, 0, 73, 0
1, 121560, Note_on_c, 0, 76, 0
1, 121560, Note_on_c, 0, 74, 33
1, 121560, Note_on_c, 0, 77, 36
1, 121560, Note_on_c, 0, 62, 33
1, 121680, Tempo, 771208
1, 121680, Note_on_c, 0, 62, 0
1, 121680, Note_on_c, 0, 77, 0
1, 121680, Note_on_c, 0, 74, 0
1, 121680, Note_on_c, 0, 64, 42
1, 121680, Note_on_c, 0, 61, 36
1, 121680, Note_on_c, 0, 58, 36
1, 121697, Control_c, 0, 64, 0
1, 121754, Control_c, 0, 64, 127
1, 121800, Tempo, 791557
1, 121800, Note_on_c, 0, 58, 0
1, 121800, Note_on_c, 0, 61, 0
1, 121800, Note_on_c, 0, 64, 0
1, 121800, Note_on_c, 0, 62, 30
1, 121800, Note_on_c, 0, 65, 36
1, 121800, Note_on_c, 0, 57, 32
1, 121920, Tempo, 761421
1, 121920, Note_on_c, 0, 57, 0
1, 121920, Note_on_c, 0, 65, 0
1, 121920, Note_on_c, 0, 62, 0
1, 121920, Note_on_c, 0, 70, 32
1, 121920, Note_on_c, 0, 73, 39
1, 121920, Note_on_c, 0, 55, 36
1, 122040, Tempo, 869565
1, 122040, Note_on_c, 0, 55, 0
1, 122040, Note_on_c, 0, 73, 0
1, 122040, Note_on_c, 0, 70, 0
1, 122040, Note_on_c, 0, 69, 30
1, 122040, Note_on_c, 0, 74, 36
1, 122040, Note_on_c, 0, 53, 32
1, 122160, Tempo, 821918
1, 122160, Note_on_c, 0, 53, 0
1, 122160, Note_on_c, 0, 74, 0
1, 122160, Note_on_c, 0, 69, 0
1, 122160, Note_on_c, 0, 61, 42
1, 122160, Note_on_c, 0, 58, 36
1, 122160, Note_on_c, 0, 55, 36
1, 122177, Control_c, 0, 64, 0
1, 122234, Control_c, 0, 64, 127
1, 122280, Tempo, 833333
1, 122280, Note_on_c, 0, 55, 0
1, 122280, Note_on_c, 0, 58, 0
1, 122280, Note_on_c, 0, 61, 0
1, 122280, Note_on_c, 0, 57, 30
1, 122280, Note_on_c, 0, 62, 36
1, 122280, Note_on_c, 0, 53, 32
1, 122400, Tempo, 821918
1, 122400, Note_on_c, 0, 53, 0
1, 122400, Note_on_c, 0, 50, 0
1, 122400, Note_on_c, 0, 57, 0
1, 122400, Note_on_c, 0, 62, 0
1, 122400, Note_on_c, 0, 68, 39
1, 122400, Note_on_c, 0, 64, 32
1, 122400, Note_on_c, 0, 52, 36
1, 122520, Tempo, 851064
1, 122520, Note_on_c, 0, 52, 0
1, 122520, Note_on_c, 0, 64, 0
1, 122520, Note_on_c, 0, 68, 0
1, 122520, Note_on_c, 0, 65, 30
1, 122520, Note_on_c, 0, 69, 36
1, 122520, Note_on_c, 0, 50, 32
1, 122640, Tempo, 796813
1, 122640, Note_on_c, 0, 50, 0
1, 122640, Note_on_c, 0, 69, 0
1, 122640, Note_on_c, 0, 65, 0
1, 122640, Note_on_c, 0, 56, 37
1, 122640, Note_on_c, 0, 52, 36
1, 122646, Control_c, 0, 64, 0
1, 122693, Control_c, 0, 64, 127
1, 122760, Note_on_c, 0, 52, 0
1, 122760, Note_on_c, 0, 56, 0
1, 122760, Note_on_c, 0, 53, 36
1, 122760, Note_on_c, 0, 57, 40
1, 122760, Note_on_c, 0, 50, 31
1, 122880, Note_on_c, 0, 50, 0
1, 122880, Note_on_c, 0, 57, 0
1, 122880, Note_on_c, 0, 53, 0
1, 122880, Note_on_c, 0, 61, 30
1, 122880, Note_on_c, 0, 64, 36
1, 122880, Note_on_c, 0, 45, 36
1, 123000, Tempo, 851064
1, 123000, Note_on_c, 0, 45, 0
1, 123000, Note_on_c, 0, 64, 0
1, 123000, Note_on_c, 0, 61, 0
1, 123000, Note_on_c, 0, 62, 32
1, 123000, Note_on_c, 0, 65, 36
1, 123000, Note_on_c, 0, 50, 33
1, 123120, Tempo, 821918
1, 123120, Note_on_c, 0, 50, 0
1, 123120, Note_on_c, 0, 65, 0
1, 123120, Note_on_c, 0, 62, 0
1, 123120, Note_on_c, 0, 52, 42
1, 123120, Note_on_c, 0, 49, 36
1, 123120, Note_on_c, 0, 46, 36
1, 123132, Control_c, 0, 64, 0
1, 123195, Control_c, 0, 64, 127
1, 123240, Note_on_c, 0, 46, 0
1, 123240, Note_on_c, 0, 49, 0
1, 123240, Note_on_c, 0, 52, 0
1, 123240, Note_on_c, 0, 50, 30
1, 123240, Note_on_c, 0, 53, 36
1, 123240, Note_on_c, 0, 45, 32
1, 123360, Note_on_c, 0, 45, 0
1, 123360, Note_on_c, 0, 53, 0
1, 123360, Note_on_c, 0, 50, 0
1, 123360, Note_on_c, 0, 58, 32
1, 123360, Note_on_c, 0, 61, 39
1, 123360, Note_on_c, 0, 43, 36
1, 123480, Tempo, 882353
1, 123480, Note_on_c, 0, 43, 0
1, 123480, Note_on_c, 0, 61, 0
1, 123480, Note_on_c, 0, 58, 0
1, 123480, Note_on_c, 0, 62, 36
1, 123480, Note_on_c, 0, 57, 30
1, 123480, Note_on_c, 0, 41, 32
1, 123600, Tempo, 845070
1, 123600, Note_on_c, 0, 41, 0
1, 123600, Note_on_c, 0, 57, 0
1, 123600, Note_on_c, 0, 62, 0
1, 123600, Note_on_c, 0, 33, 41
1, 123612, Control_c, 0, 64, 0
1, 123663, Control_c, 0, 64, 127
1, 123720, Tempo, 916031
1, 123720, Note_on_c, 0, 33, 0
1, 123720, Note_on_c, 0, 37, 41
1, 123840, Tempo, 821918
1, 123840, Note_on_c, 0, 37, 0
1, 123840, Note_on_c, 0, 38, 39
1, 123867, Control_c, 0, 64, 0
1, 124080, Tempo, 821918
1, 124080, Note_on_c, 0, 52, 34
1, 124080, Note_on_c, 0, 49, 28
1, 124080, Note_on_c, 0, 44, 28
1, 124084, Tempo, 791557
1, 124086, Control_c, 0, 64, 0
1, 124133, Control_c, 0, 64, 127
1, 124180, Tempo, 786370
1, 124200, Note_on_c, 0, 44, 0
1, 124200, Note_on_c, 0, 49, 0
1, 124200, Note_on_c, 0, 52, 0
1, 124200, Note_on_c, 0, 53, 36
1, 124200, Note_on_c, 0, 50, 31
1, 124200, Note_on_c, 0, 45, 31
1, 124257, Tempo, 781250
1, 124320, Note_on_c, 0, 45, 0
1, 124320, Note_on_c, 0, 50, 0
1, 124320, Note_on_c, 0, 53, 0
1, 124320, Note_on_c, 0, 52, 34
1, 124320, Note_on_c, 0, 56, 40
1, 124320, Note_on_c, 0, 46, 35
1, 124353, Tempo, 776197
1, 124429, Tempo, 771208
1, 124437, Tempo, 794702
1, 124440, Tempo, 851064
1, 124440, Note_on_c, 0, 46, 0
1, 124440, Note_on_c, 0, 56, 0
1, 124440, Note_on_c, 0, 52, 0
1, 124440, Note_on_c, 0, 57, 37
1, 124440, Note_on_c, 0, 53, 32
1, 124440, Note_on_c, 0, 45, 31
1, 124560, Tempo, 821918
1, 124560, Note_on_c, 0, 45, 0
1, 124560, Note_on_c, 0, 53, 0
1, 124560, Note_on_c, 0, 57, 0
1, 124560, Note_on_c, 0, 56, 37
1, 124560, Note_on_c, 0, 52, 26
1, 124560, Note_on_c, 0, 49, 32
1, 124564, Tempo, 796813
1, 124572, Tempo, 810811
1, 124680, Note_on_c, 0, 49, 0
1, 124680, Note_on_c, 0, 52, 0
1, 124680, Note_on_c, 0, 56, 0
1, 124680, Note_on_c, 0, 53, 22
1, 124680, Note_on_c, 0, 57, 32
1, 124680, Note_on_c, 0, 50, 28
1, 124800, Note_on_c, 0, 50, 0
1, 124800, Note_on_c, 0, 57, 0
1, 124800, Note_on_c, 0, 53, 0
1, 124800, Note_on_c, 0, 61, 24
1, 124800, Note_on_c, 0, 64, 35
1, 124800, Note_on_c, 0, 46, 32
1, 124817, Control_c, 0, 64, 0
1, 124909, Control_c, 0, 64, 127
1, 124920, Tempo, 902256
1, 124920, Note_on_c, 0, 46, 0
1, 124920, Note_on_c, 0, 64, 0
1, 124920, Note_on_c, 0, 61, 0
1, 124920, Note_on_c, 0, 65, 32
1, 124920, Note_on_c, 0, 62, 22
1, 124920, Note_on_c, 0, 45, 28
1, 125040, Tempo, 845070
1, 125040, Note_on_c, 0, 45, 0
1, 125040, Note_on_c, 0, 38, 0
1, 125040, Note_on_c, 0, 65, 0
1, 125040, Note_on_c, 0, 62, 0
1, 125040, Note_on_c, 0, 33, 36
1, 125052, Control_c, 0, 64, 0
1, 125103, Control_c, 0, 64, 127
1, 125160, Tempo, 916031
1, 125160, Note_on_c, 0, 33, 0
1, 125160, Note_on_c, 0, 37, 36
1, 125280, Tempo, 821918
1, 125280, Note_on_c, 0, 37, 0
1, 125280, Note_on_c, 0, 38, 39
1, 125307, Control_c, 0, 64, 0
1, 125321, Tempo, 805369
1, 125505, Tempo, 781250
1, 125520, Note_on_c, 0, 52, 34
1, 125520, Note_on_c, 0, 49, 28
1, 125520, Note_on_c, 0, 44, 28
1, 125526, Control_c, 0, 64, 0
1, 125573, Control_c, 0, 64, 127
1, 125640, Note_on_c, 0, 44, 0
1, 125640, Note_on_c, 0, 49, 0
1, 125640, Note_on_c, 0, 52, 0
1, 125640, Note_on_c, 0, 53, 36
1, 125640, Note_on_c, 0, 50, 31
1, 125640, Note_on_c, 0, 45, 31
1, 125697, Tempo, 776197
1, 125760, Note_on_c, 0, 45, 0
1, 125760, Note_on_c, 0, 50, 0
1, 125760, Note_on_c, 0, 53, 0
1, 125760, Note_on_c, 0, 52, 34
1, 125760, Note_on_c, 0, 56, 40
1, 125760, Note_on_c, 0, 46, 35
1, 125869, Tempo, 771208
1, 125880, Tempo, 851064
1, 125880, Note_on_c, 0, 46, 0
1, 125880, Note_on_c, 0, 56, 0
1, 125880, Note_on_c, 0, 52, 0
1, 125880, Note_on_c, 0, 57, 37
1, 125880, Note_on_c, 0, 53, 32
1, 125880, Note_on_c, 0, 45, 31
1, 126000, Tempo, 821918
1, 126000, Note_on_c, 0, 45, 0
1, 126000, Note_on_c, 0, 53, 0
1, 126000, Note_on_c, 0, 57, 0
1, 126000, Note_on_c, 0, 56, 37
1, 126000, Note_on_c, 0, 52, 26
1, 126000, Note_on_c, 0, 49, 32
1, 126120, Note_on_c, 0, 49, 0
1, 126120, Note_on_c, 0, 52, 0
1, 126120, Note_on_c, 0, 56, 0
1, 126120, Note_on_c, 0, 53, 22
1, 126120, Note_on_c, 0, 57, 32
1, 126120, Note_on_c, 0, 50, 28
1, 126240, Note_on_c, 0, 50, 0
1, 126240, Note_on_c, 0, 57, 0
1, 126240, Note_on_c, 0, 53, 0
1, 126240, Note_on_c, 0, 61, 24
1, 126240, Note_on_c, 0, 64, 35
1, 126240, Note_on_c, 0, 46, 32
1, 126257, Control_c, 0, 64, 0
1, 126349, Control_c, 0, 64, 127
1, 126360, Tempo, 916031
1, 126360, Note_on_c, 0, 46, 0
1, 126360, Note_on_c, 0, 64, 0
1, 126360, Note_on_c, 0, 61, 0
1, 126360, Note_on_c, 0, 65, 32
1, 126360, Note_on_c, 0, 62, 22
1, 126360, Note_on_c, 0, 45, 28
1, 126480, Tempo, 845070
1, 126480, Note_on_c, 0, 45, 0
1, 126480, Note_on_c, 0, 38, 0
1, 126480, Note_on_c, 0, 65, 0
1, 126480, Note_on_c, 0, 62, 0
1, 126480, Note_on_c, 0, 33, 36
1, 126492, Control_c, 0, 64, 0
1, 126543, Control_c, 0, 64, 127
1, 126600, Tempo, 916031
1, 126600, Note_on_c, 0, 33, 0
1, 126600, Note_on_c, 0, 37, 36
1, 126720, Tempo, 821918
1, 126720, Note_on_c, 0, 37, 0
1, 126720, Note_on_c, 0, 38, 39
1, 126747, Control_c, 0, 64, 0
1, 126953, Tempo, 805369
1, 126960, Note_on_c, 0, 52, 34
1, 126960, Note_on_c, 0, 49, 28
1, 126960, Note_on_c, 0, 44, 28
1, 126966, Control_c, 0, 64, 0
1, 126983, Tempo, 791557
1, 127013, Control_c, 0, 64, 127
1, 127080, Note_on_c, 0, 44, 0
1, 127080, Note_on_c, 0, 49, 0
1, 127080, Note_on_c, 0, 52, 0
1, 127080, Note_on_c, 0, 53, 36
1, 127080, Note_on_c, 0, 50, 31
1, 127080, Note_on_c, 0, 45, 31
1, 127137, Tempo, 786370
1, 127200, Note_on_c, 0, 45, 0
1, 127200, Note_on_c, 0, 50, 0
1, 127200, Note_on_c, 0, 53, 0
1, 127200, Note_on_c, 0, 52, 34
1, 127200, Note_on_c, 0, 56, 40
1, 127200, Note_on_c, 0, 46, 35
1, 127271, Tempo, 781250
1, 127320, Note_on_c, 0, 46, 0
1, 127320, Note_on_c, 0, 56, 0
1, 127320, Note_on_c, 0, 52, 0
1, 127320, Note_on_c, 0, 57, 37
1, 127320, Note_on_c, 0, 53, 32
1, 127320, Note_on_c, 0, 45, 31
1, 127440, Note_on_c, 0, 45, 0
1, 127440, Note_on_c, 0, 53, 0
1, 127440, Note_on_c, 0, 57, 0
1, 127440, Note_on_c, 0, 56, 37
1, 127440, Note_on_c, 0, 52, 26
1, 127440, Note_on_c, 0, 49, 32
1, 127471, Tempo, 794702
1, 127560, Tempo, 841515
1, 127560, Note_on_c, 0, 49, 0
1, 127560, Note_on_c, 0, 52, 0
1, 127560, Note_on_c, 0, 56, 0
1, 127560, Note_on_c, 0, 53, 22
1, 127560, Note_on_c, 0, 57, 32
1, 127560, Note_on_c, 0, 50, 28
1, 127680, Tempo, 800000
1, 127680, Note_on_c, 0, 50, 0
1, 127680, Note_on_c, 0, 57, 0
1, 127680, Note_on_c, 0, 53, 0
1, 127680, Note_on_c, 0, 61, 24
1, 127680, Note_on_c, 0, 64, 35
1, 127680, Note_on_c, 0, 46, 32
1, 127697, Control_c, 0, 64, 0
1, 127789, Control_c, 0, 64, 127
1, 127800, Tempo, 821918
1, 127800, Note_on_c, 0, 46, 0
1, 127800, Note_on_c, 0, 64, 0
1, 127800, Note_on_c, 0, 61, 0
1, 127800, Note_on_c, 0, 65, 32
1, 127800, Note_on_c, 0, 62, 22
1, 127800, Note_on_c, 0, 45, 28
1, 127920, Tempo, 806452
1, 127920, Note_on_c, 0, 45, 0
1, 127920, Note_on_c, 0, 38, 0
1, 127920, Note_on_c, 0, 65, 0
1, 127920, Note_on_c, 0, 62, 0
1, 127920, Note_on_c, 0, 57, 24
1, 127920, Note_on_c, 0, 61, 24
1, 127932, Control_c, 0, 64, 0
1, 127995, Control_c, 0, 64, 127
1, 128040, Tempo, 824176
1, 128040, Note_on_c, 0, 61, 0
1, 128040, Note_on_c, 0, 57, 0
1, 128040, Note_on_c, 0, 58, 22
1, 128040, Note_on_c, 0, 62, 32
1, 128160, Tempo, 816327
1, 128160, Note_on_c, 0, 62, 0
1, 128160, Note_on_c, 0, 58, 0
1, 128160, Note_on_c, 0, 52, 30
1, 128160, Note_on_c, 0, 56, 36
1, 128160, Control_c, 0, 64, 0
1, 128229, Control_c, 0, 64, 127
1, 128280, Note_on_c, 0, 56, 0
1, 128280, Note_on_c, 0, 52, 0
1, 128280, Note_on_c, 0, 53, 28
1, 128280, Note_on_c, 0, 57, 33
1, 128400, Note_on_c, 0, 57, 0
1, 128400, Note_on_c, 0, 53, 0
1, 128400, Note_on_c, 0, 49, 25
1, 128400, Note_on_c, 0, 52, 30
1, 128408, Control_c, 0, 64, 0
1, 128475, Control_c, 0, 64, 127
1, 128520, Tempo, 902256
1, 128520, Note_on_c, 0, 52, 0
1, 128520, Note_on_c, 0, 49, 0
1, 128520, Note_on_c, 0, 50, 27
1, 128520, Note_on_c, 0, 53, 32
1, 128640, Tempo, 827586
1, 128640, Note_on_c, 0, 53, 0
1, 128640, Note_on_c, 0, 50, 0
1, 128640, Note_on_c, 0, 40, 27
1, 128640, Note_on_c, 0, 44, 32
1, 128650, Control_c, 0, 64, 0
1, 128726, Control_c, 0, 64, 127
1, 128760, Note_on_c, 0, 44, 0
1, 128760, Note_on_c, 0, 40, 0
1, 128760, Note_on_c, 0, 41, 25
1, 128760, Note_on_c, 0, 45, 29
1, 128880, Note_on_c, 0, 45, 0
1, 128880, Note_on_c, 0, 41, 0
1, 128880, Note_on_c, 0, 37, 22
1, 128880, Note_on_c, 0, 40, 27
1, 128889, Control_c, 0, 64, 0
1, 128943, Control_c, 0, 64, 127
1, 129000, Tempo, 1121495
1, 129000, Note_on_c, 0, 40, 0
1, 129000, Note_on_c, 0, 37, 0
1, 129000, Note_on_c, 0, 38, 24
1, 129000, Note_on_c, 0, 41, 28
1, 129120, Tempo, 991736
1, 129120, Note_on_c, 0, 41, 0
1, 129120, Note_on_c, 0, 38, 0
1, 129120, Note_on_c, 0, 38, 37
1, 129138, Control_c, 0, 64, 0
1, 129360, Note_on_c, 0, 38, 0
1, 129600, Tempo, 888889
1, 129600, Note_on_c, 0, 65, 48
1, 129600, Note_on_c, 0, 58, 48
1, 129600, Note_on_c, 0, 62, 48
1, 129600, Note_on_c, 0, 70, 57
1, 129600, Note_on_c, 0, 53, 53
1, 129600, Note_on_c, 0, 50, 45
1, 129600, Note_on_c, 0, 46, 45
1, 129680, Control_c, 0, 64, 127
1, 130514, Control_c, 0, 64, 0
1, 130555, Note_on_c, 0, 46, 0
1, 130555, Note_on_c, 0, 53, 0
1, 130555, Note_on_c, 0, 58, 0
1, 130555, Note_on_c, 0, 62, 0
1, 130555, Note_on_c, 0, 65, 0
1, 130555, Note_on_c, 0, 50, 0
1, 130555, Note_on_c, 0, 70, 0
1, 130560, Tempo, 1000000
1, 130560, Note_on_c, 0, 69, 51
1, 130560, Note_on_c, 0, 65, 43
1, 130560, Note_on_c, 0, 60, 43
1, 130560, Note_on_c, 0, 57, 43
1, 130560, Note_on_c, 0, 53, 41
1, 130560, Note_on_c, 0, 48, 34
1, 130560, Note_on_c, 0, 41, 34
1, 130667, Control_c, 0, 64, 127
1, 131035, Note_on_c, 0, 41, 0
1, 131035, Note_on_c, 0, 53, 0
1, 131035, Note_on_c, 0, 65, 0
1, 131035, Note_on_c, 0, 60, 0
1, 131035, Note_on_c, 0, 69, 0
1, 131035, Note_on_c, 0, 48, 0
1, 131035, Note_on_c, 0, 57, 0
1, 131040, Note_on_c, 0, 65, 45
1, 131040, Note_on_c, 0, 62, 38
1, 131040, Note_on_c, 0, 57, 38
1, 131040, Note_on_c, 0, 53, 38
1, 131040, Note_on_c, 0, 45, 40
1, 131040, Note_on_c, 0, 33, 34
1, 131051, Control_c, 0, 64, 0
1, 131280, Control_c, 0, 64, 127
1, 132000, Tempo, 1090909
1, 132000, Note_on_c, 0, 33, 0
1, 132000, Note_on_c, 0, 62, 0
1, 132000, Note_on_c, 0, 57, 0
1, 132000, Note_on_c, 0, 65, 0
1, 132000, Note_on_c, 0, 45, 0
1, 132000, Note_on_c, 0, 53, 0
1, 132033, Control_c, 0, 64, 0
1, 132240, Tempo, 1008403
1, 132240, Note_on_c, 0, 69, 47
1, 132240, Note_on_c, 0, 61, 39
1, 132240, Note_on_c, 0, 45, 24
1, 132240, Note_on_c, 0, 55, 29
1, 132309, Control_c, 0, 64, 127
1, 132360, Tempo, 1276596
1, 132360, Note_on_c, 0, 69, 0
1, 132360, Note_on_c, 0, 73, 49
1, 132480, Tempo, 1463415
1, 132480, Note_on_c, 0, 73, 0
1, 132480, Note_on_c, 0, 55, 0
1, 132480, Note_on_c, 0, 45, 0
1, 132480, Note_on_c, 0, 61, 0
1, 132480, Note_on_c, 0, 74, 54
1, 132480, Note_on_c, 0, 62, 45
1, 132480, Note_on_c, 0, 38, 31
1, 132480, Note_on_c, 0, 45, 31
1, 132480, Note_on_c, 0, 53, 37
1, 132494, Control_c, 0, 64, 0
1, 132854, Control_c, 0, 64, 127
1, 132960, Note_on_c, 0, 26, 31
1, 133920, Note_on_c, 0, 26, 0
1, 133920, Note_on_c, 0, 62, 0
1, 133920, Note_on_c, 0, 38, 0
1, 133920, Note_on_c, 0, 74, 0
1, 133920, Note_on_c, 0, 53, 0
1, 133920, Note_on_c, 0, 45, 0
1, 134987, Control_c, 0, 64, 0
1, 134987, End_track
0, 0, End_of_file
