0, 0, Header, 0, 1, 480
1, 0, Start_track
1, 0, Title_t, "Wandererfantasie D760, 4 Satz"
1, 0, Copyright_t, "Copyright © 2004 by Bernd Krueger"
1, 0, Text_t, "Franz Schubert"
1, 0, Text_t, "Allegro"
1, 0, Text_t, "Fertiggestellt am  14.5.2004\012"
1, 0, Text_t, "Update am 15.3.2014\012"
1, 0, Text_t, "Dauer: 3:27 Minuten\012"
1, 0, SMPTE_offset, 96, 0, 3, 0, 0
1, 0, Time_signature, 4, 2, 24, 8
1, 0, Key_signature, 0, "major"
1, 0, Tempo, 412371
1, 0, Program_c, 0, 0
1, 0, Control_c, 0, 7, 100
1, 0, Control_c, 0, 10, 64
1, 0, Control_c, 0, 91, 127
1, 0, Text_t, "bdca426d104a26ac9dcb070447587523"
1, 0, Program_c, 0, 0
1, 0, Control_c, 0, 7, 100
1, 0, Control_c, 0, 10, 64
1, 0, Note_on_c, 0, 36, 71
1, 0, Note_on_c, 0, 48, 84
1, 480, Tempo, 406780
1, 480, Note_on_c, 0, 48, 0
1, 480, Note_on_c, 0, 36, 0
1, 480, Note_on_c, 0, 36, 67
1, 480, Note_on_c, 0, 48, 79
1, 570, Note_on_c, 0, 48, 0
1, 570, Note_on_c, 0, 36, 0
1, 720, Note_on_c, 0, 36, 67
1, 720, Note_on_c, 0, 48, 79
1, 810, Note_on_c, 0, 48, 0
1, 810, Note_on_c, 0, 36, 0
1, 960, Tempo, 412371
1, 960, Note_on_c, 0, 36, 67
1, 960, Note_on_c, 0, 48, 79
1, 1440, Tempo, 406780
1, 1440, Note_on_c, 0, 48, 0
1, 1440, Note_on_c, 0, 36, 0
1, 1440, Note_on_c, 0, 36, 68
1, 1440, Note_on_c, 0, 48, 80
1, 1530, Note_on_c, 0, 48, 0
1, 1530, Note_on_c, 0, 36, 0
1, 1680, Note_on_c, 0, 36, 69
1, 1680, Note_on_c, 0, 48, 81
1, 1770, Note_on_c, 0, 48, 0
1, 1770, Note_on_c, 0, 36, 0
1, 1920, Tempo, 430108
1, 1920, Note_on_c, 0, 37, 76
1, 1920, Note_on_c, 0, 49, 90
1, 2010, Note_on_c, 0, 49, 0
1, 2010, Note_on_c, 0, 37, 0
1, 2400, Tempo, 412371
1, 2400, Note_on_c, 0, 38, 75
1, 2400, Note_on_c, 0, 50, 89
1, 3120, Tempo, 405405
1, 3120, Note_on_c, 0, 50, 0
1, 3120, Note_on_c, 0, 38, 0
1, 3120, Note_on_c, 0, 40, 68
1, 3120, Note_on_c, 0, 52, 80
1, 3210, Note_on_c, 0, 52, 0
1, 3210, Note_on_c, 0, 40, 0
1, 3360, Note_on_c, 0, 41, 67
1, 3360, Note_on_c, 0, 53, 79
1, 3450, Note_on_c, 0, 53, 0
1, 3450, Note_on_c, 0, 41, 0
1, 3600, Note_on_c, 0, 40, 68
1, 3600, Note_on_c, 0, 52, 80
1, 3690, Note_on_c, 0, 52, 0
1, 3690, Note_on_c, 0, 40, 0
1, 3840, Tempo, 412371
1, 3840, Control_c, 0, 91, 127
1, 3840, Text_t, "bdca426d104a26ac9dcb070447587523"
1, 3840, Note_on_c, 0, 38, 71
1, 3840, Note_on_c, 0, 50, 84
1, 4320, Tempo, 405405
1, 4320, Note_on_c, 0, 50, 0
1, 4320, Note_on_c, 0, 38, 0
1, 4320, Note_on_c, 0, 38, 71
1, 4320, Note_on_c, 0, 50, 84
1, 4410, Note_on_c, 0, 50, 0
1, 4410, Note_on_c, 0, 38, 0
1, 4560, Note_on_c, 0, 38, 68
1, 4560, Note_on_c, 0, 50, 80
1, 4650, Note_on_c, 0, 50, 0
1, 4650, Note_on_c, 0, 38, 0
1, 4800, Tempo, 412371
1, 4800, Note_on_c, 0, 38, 68
1, 4800, Note_on_c, 0, 50, 80
1, 5280, Tempo, 406780
1, 5280, Note_on_c, 0, 50, 0
1, 5280, Note_on_c, 0, 38, 0
1, 5280, Note_on_c, 0, 38, 69
1, 5280, Note_on_c, 0, 50, 81
1, 5370, Note_on_c, 0, 50, 0
1, 5370, Note_on_c, 0, 38, 0
1, 5520, Note_on_c, 0, 38, 69
1, 5520, Note_on_c, 0, 50, 81
1, 5610, Note_on_c, 0, 50, 0
1, 5610, Note_on_c, 0, 38, 0
1, 5760, Tempo, 437956
1, 5760, Note_on_c, 0, 39, 76
1, 5760, Note_on_c, 0, 51, 90
1, 5850, Note_on_c, 0, 51, 0
1, 5850, Note_on_c, 0, 39, 0
1, 6240, Tempo, 412371
1, 6240, Note_on_c, 0, 40, 75
1, 6240, Note_on_c, 0, 52, 89
1, 6960, Tempo, 418118
1, 6960, Note_on_c, 0, 52, 0
1, 6960, Note_on_c, 0, 40, 0
1, 6960, Note_on_c, 0, 42, 80
1, 6960, Note_on_c, 0, 54, 80
1, 7050, Note_on_c, 0, 54, 0
1, 7050, Note_on_c, 0, 42, 0
1, 7200, Note_on_c, 0, 43, 68
1, 7200, Note_on_c, 0, 55, 80
1, 7290, Note_on_c, 0, 55, 0
1, 7290, Note_on_c, 0, 43, 0
1, 7440, Note_on_c, 0, 45, 69
1, 7440, Note_on_c, 0, 57, 82
1, 7530, Note_on_c, 0, 57, 0
1, 7530, Note_on_c, 0, 45, 0
1, 7680, Tempo, 412371
1, 7680, Note_on_c, 0, 46, 78
1, 7680, Note_on_c, 0, 58, 93
1, 8160, Tempo, 416667
1, 8160, Note_on_c, 0, 58, 0
1, 8160, Note_on_c, 0, 46, 0
1, 8160, Note_on_c, 0, 46, 71
1, 8160, Note_on_c, 0, 58, 84
1, 8250, Note_on_c, 0, 58, 0
1, 8250, Note_on_c, 0, 46, 0
1, 8400, Tempo, 436364
1, 8400, Note_on_c, 0, 46, 71
1, 8400, Note_on_c, 0, 58, 84
1, 8490, Note_on_c, 0, 58, 0
1, 8490, Note_on_c, 0, 46, 0
1, 8640, Tempo, 412371
1, 8640, Note_on_c, 0, 37, 79
1, 8640, Note_on_c, 0, 49, 94
1, 9360, Tempo, 419580
1, 9360, Note_on_c, 0, 49, 0
1, 9360, Note_on_c, 0, 37, 0
1, 9360, Note_on_c, 0, 37, 73
1, 9360, Note_on_c, 0, 49, 86
1, 9450, Note_on_c, 0, 49, 0
1, 9450, Note_on_c, 0, 37, 0
1, 9600, Tempo, 415225
1, 9600, Note_on_c, 0, 45, 79
1, 9600, Note_on_c, 0, 57, 94
1, 10080, Note_on_c, 0, 57, 0
1, 10080, Note_on_c, 0, 45, 0
1, 10080, Note_on_c, 0, 45, 71
1, 10080, Note_on_c, 0, 57, 84
1, 10170, Note_on_c, 0, 57, 0
1, 10170, Note_on_c, 0, 45, 0
1, 10320, Tempo, 439560
1, 10320, Note_on_c, 0, 45, 72
1, 10320, Note_on_c, 0, 57, 85
1, 10410, Note_on_c, 0, 57, 0
1, 10410, Note_on_c, 0, 45, 0
1, 10560, Tempo, 412371
1, 10560, Note_on_c, 0, 36, 79
1, 10560, Note_on_c, 0, 48, 94
1, 11280, Note_on_c, 0, 48, 0
1, 11280, Note_on_c, 0, 36, 0
1, 11280, Note_on_c, 0, 36, 72
1, 11280, Note_on_c, 0, 48, 85
1, 11370, Note_on_c, 0, 48, 0
1, 11370, Note_on_c, 0, 36, 0
1, 11520, Note_on_c, 0, 35, 72
1, 11520, Note_on_c, 0, 47, 85
1, 11610, Note_on_c, 0, 47, 0
1, 11610, Note_on_c, 0, 35, 0
1, 11760, Tempo, 406780
1, 11760, Note_on_c, 0, 38, 72
1, 11760, Note_on_c, 0, 50, 86
1, 11850, Note_on_c, 0, 50, 0
1, 11850, Note_on_c, 0, 38, 0
1, 12000, Note_on_c, 0, 43, 75
1, 12000, Note_on_c, 0, 55, 90
1, 12090, Note_on_c, 0, 55, 0
1, 12090, Note_on_c, 0, 43, 0
1, 12240, Note_on_c, 0, 41, 72
1, 12240, Note_on_c, 0, 53, 85
1, 12330, Note_on_c, 0, 53, 0
1, 12330, Note_on_c, 0, 41, 0
1, 12480, Tempo, 412371
1, 12480, Note_on_c, 0, 40, 73
1, 12480, Note_on_c, 0, 52, 86
1, 12570, Note_on_c, 0, 52, 0
1, 12570, Note_on_c, 0, 40, 0
1, 12720, Note_on_c, 0, 36, 70
1, 12720, Note_on_c, 0, 48, 82
1, 12810, Note_on_c, 0, 48, 0
1, 12810, Note_on_c, 0, 36, 0
1, 12960, Note_on_c, 0, 35, 70
1, 12960, Note_on_c, 0, 47, 82
1, 13050, Note_on_c, 0, 47, 0
1, 13050, Note_on_c, 0, 35, 0
1, 13200, Note_on_c, 0, 33, 69
1, 13200, Note_on_c, 0, 45, 81
1, 13290, Note_on_c, 0, 45, 0
1, 13290, Note_on_c, 0, 33, 0
1, 13440, Tempo, 416667
1, 13440, Note_on_c, 0, 41, 71
1, 13440, Note_on_c, 0, 53, 84
1, 13920, Tempo, 424028
1, 13920, Note_on_c, 0, 53, 0
1, 13920, Note_on_c, 0, 41, 0
1, 13920, Note_on_c, 0, 40, 69
1, 13920, Note_on_c, 0, 52, 81
1, 14400, Tempo, 434783
1, 14400, Note_on_c, 0, 52, 0
1, 14400, Note_on_c, 0, 40, 0
1, 14400, Note_on_c, 0, 38, 71
1, 14400, Note_on_c, 0, 50, 84
1, 14880, Tempo, 452830
1, 15360, Tempo, 409556
1, 15360, Note_on_c, 0, 50, 0
1, 15360, Note_on_c, 0, 38, 0
1, 15360, Note_on_c, 0, 55, 71
1, 15360, Note_on_c, 0, 67, 84
1, 15360, Note_on_c, 0, 36, 65
1, 15360, Note_on_c, 0, 48, 77
1, 15840, Tempo, 400374
1, 15840, Note_on_c, 0, 67, 0
1, 15840, Note_on_c, 0, 55, 0
1, 15840, Note_on_c, 0, 55, 67
1, 15840, Note_on_c, 0, 67, 79
1, 15930, Note_on_c, 0, 67, 0
1, 15930, Note_on_c, 0, 55, 0
1, 16080, Note_on_c, 0, 55, 67
1, 16080, Note_on_c, 0, 67, 79
1, 16170, Note_on_c, 0, 67, 0
1, 16170, Note_on_c, 0, 55, 0
1, 16320, Tempo, 405872
1, 16320, Note_on_c, 0, 55, 67
1, 16320, Note_on_c, 0, 67, 79
1, 16560, Note_on_c, 0, 36, 0
1, 16560, Note_on_c, 0, 48, 0
1, 16560, Note_on_c, 0, 38, 61
1, 16560, Note_on_c, 0, 50, 73
1, 16650, Note_on_c, 0, 50, 0
1, 16650, Note_on_c, 0, 38, 0
1, 16800, Tempo, 400374
1, 16800, Note_on_c, 0, 55, 0
1, 16800, Note_on_c, 0, 67, 0
1, 16800, Note_on_c, 0, 55, 68
1, 16800, Note_on_c, 0, 67, 80
1, 16800, Note_on_c, 0, 40, 61
1, 16800, Note_on_c, 0, 52, 73
1, 16890, Note_on_c, 0, 52, 0
1, 16890, Note_on_c, 0, 55, 0
1, 16890, Note_on_c, 0, 67, 0
1, 16890, Note_on_c, 0, 40, 0
1, 17040, Note_on_c, 0, 55, 69
1, 17040, Note_on_c, 0, 67, 81
1, 17040, Note_on_c, 0, 41, 61
1, 17040, Note_on_c, 0, 53, 73
1, 17130, Note_on_c, 0, 53, 0
1, 17130, Note_on_c, 0, 55, 0
1, 17130, Note_on_c, 0, 67, 0
1, 17130, Note_on_c, 0, 41, 0
1, 17280, Tempo, 410088
1, 17280, Note_on_c, 0, 56, 76
1, 17280, Note_on_c, 0, 68, 90
1, 17280, Note_on_c, 0, 40, 65
1, 17280, Note_on_c, 0, 52, 77
1, 17370, Note_on_c, 0, 52, 0
1, 17370, Note_on_c, 0, 56, 0
1, 17370, Note_on_c, 0, 68, 0
1, 17370, Note_on_c, 0, 40, 0
1, 17520, Note_on_c, 0, 38, 63
1, 17520, Note_on_c, 0, 50, 74
1, 17610, Note_on_c, 0, 50, 0
1, 17610, Note_on_c, 0, 38, 0
1, 17760, Tempo, 405872
1, 17760, Note_on_c, 0, 57, 75
1, 17760, Note_on_c, 0, 69, 89
1, 17760, Note_on_c, 0, 36, 63
1, 17760, Note_on_c, 0, 48, 74
1, 17850, Note_on_c, 0, 48, 0
1, 17850, Note_on_c, 0, 36, 0
1, 18000, Note_on_c, 0, 35, 63
1, 18000, Note_on_c, 0, 47, 74
1, 18090, Note_on_c, 0, 47, 0
1, 18090, Note_on_c, 0, 35, 0
1, 18240, Note_on_c, 0, 33, 67
1, 18240, Note_on_c, 0, 45, 79
1, 18480, Tempo, 399016
1, 18480, Note_on_c, 0, 69, 0
1, 18480, Note_on_c, 0, 57, 0
1, 18480, Note_on_c, 0, 59, 68
1, 18480, Note_on_c, 0, 71, 80
1, 18570, Note_on_c, 0, 71, 0
1, 18570, Note_on_c, 0, 59, 0
1, 18720, Note_on_c, 0, 60, 67
1, 18720, Note_on_c, 0, 72, 79
1, 18810, Note_on_c, 0, 72, 0
1, 18810, Note_on_c, 0, 60, 0
1, 18960, Note_on_c, 0, 33, 0
1, 18960, Note_on_c, 0, 45, 0
1, 18960, Note_on_c, 0, 59, 68
1, 18960, Note_on_c, 0, 71, 80
1, 18960, Note_on_c, 0, 40, 64
1, 18960, Note_on_c, 0, 52, 75
1, 19050, Note_on_c, 0, 52, 0
1, 19050, Note_on_c, 0, 59, 0
1, 19050, Note_on_c, 0, 71, 0
1, 19050, Note_on_c, 0, 40, 0
1, 19200, Tempo, 405872
1, 19200, Note_on_c, 0, 57, 71
1, 19200, Note_on_c, 0, 69, 84
1, 19200, Note_on_c, 0, 41, 65
1, 19200, Note_on_c, 0, 53, 77
1, 19680, Tempo, 399016
1, 19680, Note_on_c, 0, 69, 0
1, 19680, Note_on_c, 0, 57, 0
1, 19680, Note_on_c, 0, 57, 71
1, 19680, Note_on_c, 0, 69, 84
1, 19770, Note_on_c, 0, 69, 0
1, 19770, Note_on_c, 0, 57, 0
1, 19920, Note_on_c, 0, 57, 68
1, 19920, Note_on_c, 0, 69, 80
1, 20010, Note_on_c, 0, 69, 0
1, 20010, Note_on_c, 0, 57, 0
1, 20160, Tempo, 405872
1, 20160, Note_on_c, 0, 57, 68
1, 20160, Note_on_c, 0, 69, 80
1, 20400, Note_on_c, 0, 41, 0
1, 20400, Note_on_c, 0, 53, 0
1, 20400, Note_on_c, 0, 40, 61
1, 20400, Note_on_c, 0, 52, 73
1, 20490, Note_on_c, 0, 52, 0
1, 20490, Note_on_c, 0, 40, 0
1, 20640, Tempo, 400374
1, 20640, Note_on_c, 0, 57, 0
1, 20640, Note_on_c, 0, 69, 0
1, 20640, Note_on_c, 0, 57, 69
1, 20640, Note_on_c, 0, 69, 81
1, 20640, Note_on_c, 0, 41, 61
1, 20640, Note_on_c, 0, 53, 73
1, 20730, Note_on_c, 0, 53, 0
1, 20730, Note_on_c, 0, 57, 0
1, 20730, Note_on_c, 0, 69, 0
1, 20730, Note_on_c, 0, 41, 0
1, 20880, Note_on_c, 0, 57, 69
1, 20880, Note_on_c, 0, 69, 81
1, 20880, Note_on_c, 0, 43, 61
1, 20880, Note_on_c, 0, 55, 73
1, 20970, Note_on_c, 0, 55, 0
1, 20970, Note_on_c, 0, 57, 0
1, 20970, Note_on_c, 0, 69, 0
1, 20970, Note_on_c, 0, 43, 0
1, 21120, Tempo, 411523
1, 21120, Note_on_c, 0, 58, 76
1, 21120, Note_on_c, 0, 70, 90
1, 21120, Note_on_c, 0, 42, 65
1, 21120, Note_on_c, 0, 54, 77
1, 21210, Note_on_c, 0, 54, 0
1, 21210, Note_on_c, 0, 58, 0
1, 21210, Note_on_c, 0, 70, 0
1, 21210, Note_on_c, 0, 42, 0
1, 21360, Note_on_c, 0, 40, 63
1, 21360, Note_on_c, 0, 52, 74
1, 21450, Note_on_c, 0, 52, 0
1, 21450, Note_on_c, 0, 40, 0
1, 21600, Tempo, 405872
1, 21600, Note_on_c, 0, 59, 75
1, 21600, Note_on_c, 0, 71, 89
1, 21600, Note_on_c, 0, 38, 63
1, 21600, Note_on_c, 0, 50, 74
1, 21690, Note_on_c, 0, 50, 0
1, 21690, Note_on_c, 0, 38, 0
1, 21840, Note_on_c, 0, 37, 63
1, 21840, Note_on_c, 0, 49, 74
1, 21930, Note_on_c, 0, 49, 0
1, 21930, Note_on_c, 0, 37, 0
1, 22080, Note_on_c, 0, 35, 67
1, 22080, Note_on_c, 0, 47, 79
1, 22320, Tempo, 392157
1, 22320, Note_on_c, 0, 71, 0
1, 22320, Note_on_c, 0, 59, 0
1, 22320, Note_on_c, 0, 61, 76
1, 22320, Note_on_c, 0, 73, 76
1, 22410, Note_on_c, 0, 73, 0
1, 22410, Note_on_c, 0, 61, 0
1, 22560, Tempo, 397351
1, 22560, Note_on_c, 0, 62, 63
1, 22560, Note_on_c, 0, 74, 75
1, 22650, Note_on_c, 0, 74, 0
1, 22650, Note_on_c, 0, 62, 0
1, 22800, Tempo, 412371
1, 22800, Note_on_c, 0, 35, 0
1, 22800, Note_on_c, 0, 47, 0
1, 22800, Note_on_c, 0, 64, 64
1, 22800, Note_on_c, 0, 76, 76
1, 22800, Note_on_c, 0, 33, 59
1, 22800, Note_on_c, 0, 45, 71
1, 22890, Note_on_c, 0, 45, 0
1, 22890, Note_on_c, 0, 64, 0
1, 22890, Note_on_c, 0, 76, 0
1, 22890, Note_on_c, 0, 33, 0
1, 23040, Tempo, 405872
1, 23040, Note_on_c, 0, 65, 72
1, 23040, Note_on_c, 0, 77, 85
1, 23040, Note_on_c, 0, 32, 60
1, 23040, Note_on_c, 0, 44, 73
1, 23130, Note_on_c, 0, 44, 0
1, 23130, Note_on_c, 0, 32, 0
1, 23280, Note_on_c, 0, 35, 57
1, 23280, Note_on_c, 0, 47, 68
1, 23370, Note_on_c, 0, 47, 0
1, 23370, Note_on_c, 0, 35, 0
1, 23520, Note_on_c, 0, 77, 0
1, 23520, Note_on_c, 0, 65, 0
1, 23520, Note_on_c, 0, 65, 64
1, 23520, Note_on_c, 0, 77, 76
1, 23520, Note_on_c, 0, 32, 60
1, 23520, Note_on_c, 0, 44, 73
1, 23610, Note_on_c, 0, 44, 0
1, 23610, Note_on_c, 0, 65, 0
1, 23610, Note_on_c, 0, 77, 0
1, 23610, Note_on_c, 0, 32, 0
1, 23760, Tempo, 429492
1, 23760, Note_on_c, 0, 65, 64
1, 23760, Note_on_c, 0, 77, 76
1, 23760, Note_on_c, 0, 35, 55
1, 23760, Note_on_c, 0, 47, 66
1, 23850, Note_on_c, 0, 47, 0
1, 23850, Note_on_c, 0, 65, 0
1, 23850, Note_on_c, 0, 77, 0
1, 23850, Note_on_c, 0, 35, 0
1, 24000, Tempo, 393675
1, 24000, Note_on_c, 0, 56, 76
1, 24000, Note_on_c, 0, 68, 90
1, 24000, Note_on_c, 0, 41, 65
1, 24000, Note_on_c, 0, 53, 77
1, 24090, Note_on_c, 0, 53, 0
1, 24090, Note_on_c, 0, 41, 0
1, 24240, Tempo, 405872
1, 24240, Note_on_c, 0, 41, 64
1, 24240, Note_on_c, 0, 53, 75
1, 24720, Note_on_c, 0, 68, 0
1, 24720, Note_on_c, 0, 56, 0
1, 24720, Note_on_c, 0, 56, 70
1, 24720, Note_on_c, 0, 68, 82
1, 24810, Note_on_c, 0, 68, 0
1, 24810, Note_on_c, 0, 56, 0
1, 24960, Note_on_c, 0, 41, 0
1, 24960, Note_on_c, 0, 53, 0
1, 24960, Note_on_c, 0, 64, 72
1, 24960, Note_on_c, 0, 76, 85
1, 24960, Note_on_c, 0, 31, 60
1, 24960, Note_on_c, 0, 43, 73
1, 25050, Note_on_c, 0, 43, 0
1, 25050, Note_on_c, 0, 31, 0
1, 25200, Note_on_c, 0, 34, 57
1, 25200, Note_on_c, 0, 46, 68
1, 25290, Note_on_c, 0, 46, 0
1, 25290, Note_on_c, 0, 34, 0
1, 25440, Tempo, 396040
1, 25440, Note_on_c, 0, 76, 0
1, 25440, Note_on_c, 0, 64, 0
1, 25440, Note_on_c, 0, 64, 64
1, 25440, Note_on_c, 0, 76, 76
1, 25440, Note_on_c, 0, 31, 60
1, 25440, Note_on_c, 0, 43, 73
1, 25530, Note_on_c, 0, 43, 0
1, 25530, Note_on_c, 0, 64, 0
1, 25530, Note_on_c, 0, 76, 0
1, 25530, Note_on_c, 0, 31, 0
1, 25680, Tempo, 432620
1, 25680, Note_on_c, 0, 64, 65
1, 25680, Note_on_c, 0, 76, 77
1, 25680, Note_on_c, 0, 34, 55
1, 25680, Note_on_c, 0, 46, 66
1, 25770, Note_on_c, 0, 46, 0
1, 25770, Note_on_c, 0, 64, 0
1, 25770, Note_on_c, 0, 76, 0
1, 25770, Note_on_c, 0, 34, 0
1, 25920, Tempo, 393675
1, 25920, Note_on_c, 0, 55, 76
1, 25920, Note_on_c, 0, 67, 90
1, 25920, Note_on_c, 0, 40, 65
1, 25920, Note_on_c, 0, 52, 77
1, 26010, Note_on_c, 0, 52, 0
1, 26010, Note_on_c, 0, 40, 0
1, 26160, Tempo, 404476
1, 26160, Note_on_c, 0, 40, 64
1, 26160, Note_on_c, 0, 52, 75
1, 26640, Note_on_c, 0, 67, 0
1, 26640, Note_on_c, 0, 55, 0
1, 26640, Note_on_c, 0, 55, 69
1, 26640, Note_on_c, 0, 67, 81
1, 26730, Note_on_c, 0, 67, 0
1, 26730, Note_on_c, 0, 55, 0
1, 26880, Note_on_c, 0, 40, 0
1, 26880, Note_on_c, 0, 52, 0
1, 26880, Note_on_c, 0, 54, 69
1, 26880, Note_on_c, 0, 66, 81
1, 26880, Note_on_c, 0, 38, 64
1, 26880, Note_on_c, 0, 50, 75
1, 26970, Note_on_c, 0, 66, 0
1, 26970, Note_on_c, 0, 54, 0
1, 27120, Tempo, 400374
1, 27120, Note_on_c, 0, 57, 70
1, 27120, Note_on_c, 0, 69, 82
1, 27210, Note_on_c, 0, 69, 0
1, 27210, Note_on_c, 0, 57, 0
1, 27360, Note_on_c, 0, 38, 0
1, 27360, Note_on_c, 0, 50, 0
1, 27360, Note_on_c, 0, 62, 73
1, 27360, Note_on_c, 0, 74, 87
1, 27360, Note_on_c, 0, 30, 59
1, 27360, Note_on_c, 0, 42, 71
1, 27450, Note_on_c, 0, 74, 0
1, 27450, Note_on_c, 0, 62, 0
1, 27600, Note_on_c, 0, 60, 70
1, 27600, Note_on_c, 0, 72, 82
1, 27690, Note_on_c, 0, 72, 0
1, 27690, Note_on_c, 0, 60, 0
1, 27840, Tempo, 405872
1, 27840, Note_on_c, 0, 30, 0
1, 27840, Note_on_c, 0, 42, 0
1, 27840, Note_on_c, 0, 59, 71
1, 27840, Note_on_c, 0, 71, 84
1, 27840, Note_on_c, 0, 31, 58
1, 27840, Note_on_c, 0, 43, 69
1, 27930, Note_on_c, 0, 43, 0
1, 27930, Note_on_c, 0, 59, 0
1, 27930, Note_on_c, 0, 71, 0
1, 27930, Note_on_c, 0, 31, 0
1, 28080, Note_on_c, 0, 55, 69
1, 28080, Note_on_c, 0, 67, 81
1, 28080, Note_on_c, 0, 33, 59
1, 28080, Note_on_c, 0, 45, 71
1, 28170, Note_on_c, 0, 45, 0
1, 28170, Note_on_c, 0, 55, 0
1, 28170, Note_on_c, 0, 67, 0
1, 28170, Note_on_c, 0, 33, 0
1, 28320, Note_on_c, 0, 54, 69
1, 28320, Note_on_c, 0, 66, 81
1, 28320, Note_on_c, 0, 35, 61
1, 28320, Note_on_c, 0, 47, 73
1, 28410, Note_on_c, 0, 47, 0
1, 28410, Note_on_c, 0, 54, 0
1, 28410, Note_on_c, 0, 66, 0
1, 28410, Note_on_c, 0, 35, 0
1, 28560, Note_on_c, 0, 52, 69
1, 28560, Note_on_c, 0, 64, 81
1, 28560, Note_on_c, 0, 36, 64
1, 28560, Note_on_c, 0, 48, 75
1, 28650, Note_on_c, 0, 48, 0
1, 28650, Note_on_c, 0, 52, 0
1, 28650, Note_on_c, 0, 64, 0
1, 28650, Note_on_c, 0, 36, 0
1, 28800, Tempo, 410088
1, 28800, Note_on_c, 0, 60, 71
1, 28800, Note_on_c, 0, 72, 84
1, 28800, Note_on_c, 0, 38, 65
1, 28800, Note_on_c, 0, 50, 77
1, 28890, Note_on_c, 0, 50, 0
1, 28890, Note_on_c, 0, 38, 0
1, 29040, Note_on_c, 0, 42, 64
1, 29040, Note_on_c, 0, 54, 75
1, 29130, Note_on_c, 0, 54, 0
1, 29130, Note_on_c, 0, 42, 0
1, 29280, Tempo, 417333
1, 29280, Note_on_c, 0, 72, 0
1, 29280, Note_on_c, 0, 60, 0
1, 29280, Note_on_c, 0, 59, 69
1, 29280, Note_on_c, 0, 71, 81
1, 29280, Note_on_c, 0, 43, 65
1, 29280, Note_on_c, 0, 55, 76
1, 29760, Tempo, 427930
1, 29760, Note_on_c, 0, 71, 0
1, 29760, Note_on_c, 0, 59, 0
1, 29760, Note_on_c, 0, 57, 71
1, 29760, Note_on_c, 0, 69, 84
1, 30240, Note_on_c, 0, 43, 0
1, 30240, Note_on_c, 0, 55, 0
1, 30240, Note_on_c, 0, 42, 64
1, 30240, Note_on_c, 0, 54, 75
1, 30720, Tempo, 418819
1, 30720, Note_on_c, 0, 54, 0
1, 30720, Note_on_c, 0, 69, 0
1, 30720, Note_on_c, 0, 57, 0
1, 30720, Note_on_c, 0, 42, 0
1, 30720, Note_on_c, 0, 59, 69
1, 30720, Note_on_c, 0, 71, 81
1, 30720, Note_on_c, 0, 41, 64
1, 30720, Note_on_c, 0, 53, 75
1, 30810, Note_on_c, 0, 71, 0
1, 30810, Note_on_c, 0, 59, 0
1, 30960, Note_on_c, 0, 55, 64
1, 30960, Note_on_c, 0, 67, 75
1, 31050, Note_on_c, 0, 67, 0
1, 31050, Note_on_c, 0, 55, 0
1, 31200, Tempo, 434783
1, 31200, Note_on_c, 0, 41, 0
1, 31200, Note_on_c, 0, 53, 0
1, 31200, Note_on_c, 0, 60, 68
1, 31200, Note_on_c, 0, 72, 80
1, 31200, Note_on_c, 0, 40, 63
1, 31200, Note_on_c, 0, 52, 74
1, 31680, Tempo, 439560
1, 31680, Note_on_c, 0, 52, 0
1, 31680, Note_on_c, 0, 40, 0
1, 31680, Note_on_c, 0, 38, 60
1, 31680, Note_on_c, 0, 50, 72
1, 32160, Note_on_c, 0, 72, 0
1, 32160, Note_on_c, 0, 60, 0
1, 32160, Note_on_c, 0, 59, 65
1, 32160, Note_on_c, 0, 71, 77
1, 32640, Tempo, 413793
1, 32640, Note_on_c, 0, 71, 0
1, 32640, Note_on_c, 0, 50, 0
1, 32640, Note_on_c, 0, 38, 0
1, 32640, Note_on_c, 0, 59, 0
1, 32640, Note_on_c, 0, 60, 71
1, 32640, Note_on_c, 0, 72, 84
1, 32640, Note_on_c, 0, 48, 65
1, 32640, Note_on_c, 0, 52, 77
1, 33120, Tempo, 406780
1, 33120, Note_on_c, 0, 72, 0
1, 33120, Note_on_c, 0, 60, 0
1, 33120, Note_on_c, 0, 60, 67
1, 33120, Note_on_c, 0, 72, 79
1, 33210, Note_on_c, 0, 72, 0
1, 33210, Note_on_c, 0, 60, 0
1, 33360, Note_on_c, 0, 60, 67
1, 33360, Note_on_c, 0, 72, 79
1, 33450, Note_on_c, 0, 72, 0
1, 33450, Note_on_c, 0, 60, 0
1, 33600, Tempo, 405872
1, 33600, Note_on_c, 0, 60, 67
1, 33600, Note_on_c, 0, 72, 79
1, 33840, Note_on_c, 0, 48, 0
1, 33840, Note_on_c, 0, 52, 0
1, 33840, Note_on_c, 0, 52, 61
1, 33840, Note_on_c, 0, 55, 73
1, 33930, Note_on_c, 0, 55, 0
1, 33930, Note_on_c, 0, 52, 0
1, 34080, Tempo, 400374
1, 34080, Note_on_c, 0, 60, 0
1, 34080, Note_on_c, 0, 72, 0
1, 34080, Note_on_c, 0, 60, 68
1, 34080, Note_on_c, 0, 72, 80
1, 34080, Note_on_c, 0, 53, 61
1, 34080, Note_on_c, 0, 57, 73
1, 34170, Note_on_c, 0, 57, 0
1, 34170, Note_on_c, 0, 60, 0
1, 34170, Note_on_c, 0, 72, 0
1, 34170, Note_on_c, 0, 53, 0
1, 34320, Note_on_c, 0, 60, 69
1, 34320, Note_on_c, 0, 72, 81
1, 34320, Note_on_c, 0, 55, 61
1, 34320, Note_on_c, 0, 58, 73
1, 34410, Note_on_c, 0, 58, 0
1, 34410, Note_on_c, 0, 60, 0
1, 34410, Note_on_c, 0, 72, 0
1, 34410, Note_on_c, 0, 55, 0
1, 34560, Tempo, 423310
1, 34560, Note_on_c, 0, 61, 76
1, 34560, Note_on_c, 0, 73, 90
1, 34560, Note_on_c, 0, 53, 65
1, 34560, Note_on_c, 0, 57, 77
1, 34650, Note_on_c, 0, 57, 0
1, 34650, Note_on_c, 0, 61, 0
1, 34650, Note_on_c, 0, 73, 0
1, 34650, Note_on_c, 0, 53, 0
1, 34800, Tempo, 411523
1, 34800, Note_on_c, 0, 52, 63
1, 34800, Note_on_c, 0, 55, 74
1, 34890, Note_on_c, 0, 55, 0
1, 34890, Note_on_c, 0, 52, 0
1, 35040, Tempo, 405872
1, 35040, Note_on_c, 0, 62, 75
1, 35040, Note_on_c, 0, 74, 89
1, 35040, Note_on_c, 0, 50, 63
1, 35040, Note_on_c, 0, 53, 74
1, 35130, Note_on_c, 0, 53, 0
1, 35130, Note_on_c, 0, 50, 0
1, 35280, Note_on_c, 0, 45, 63
1, 35280, Note_on_c, 0, 52, 74
1, 35370, Note_on_c, 0, 52, 0
1, 35370, Note_on_c, 0, 45, 0
1, 35520, Note_on_c, 0, 41, 67
1, 35520, Note_on_c, 0, 50, 79
1, 35760, Tempo, 399016
1, 35760, Note_on_c, 0, 74, 0
1, 35760, Note_on_c, 0, 62, 0
1, 35760, Note_on_c, 0, 64, 68
1, 35760, Note_on_c, 0, 76, 80
1, 35850, Note_on_c, 0, 76, 0
1, 35850, Note_on_c, 0, 64, 0
1, 36000, Tempo, 394737
1, 36000, Note_on_c, 0, 65, 67
1, 36000, Note_on_c, 0, 77, 79
1, 36090, Note_on_c, 0, 77, 0
1, 36090, Note_on_c, 0, 65, 0
1, 36240, Note_on_c, 0, 41, 0
1, 36240, Note_on_c, 0, 50, 0
1, 36240, Note_on_c, 0, 64, 68
1, 36240, Note_on_c, 0, 76, 80
1, 36240, Note_on_c, 0, 45, 64
1, 36240, Note_on_c, 0, 49, 75
1, 36330, Note_on_c, 0, 49, 0
1, 36330, Note_on_c, 0, 64, 0
1, 36330, Note_on_c, 0, 76, 0
1, 36330, Note_on_c, 0, 45, 0
1, 36480, Tempo, 405872
1, 36480, Note_on_c, 0, 62, 71
1, 36480, Note_on_c, 0, 74, 84
1, 36480, Note_on_c, 0, 46, 65
1, 36480, Note_on_c, 0, 50, 77
1, 36960, Tempo, 399016
1, 36960, Note_on_c, 0, 74, 0
1, 36960, Note_on_c, 0, 62, 0
1, 36960, Note_on_c, 0, 62, 71
1, 36960, Note_on_c, 0, 74, 84
1, 37050, Note_on_c, 0, 74, 0
1, 37050, Note_on_c, 0, 62, 0
1, 37200, Note_on_c, 0, 62, 68
1, 37200, Note_on_c, 0, 74, 80
1, 37290, Note_on_c, 0, 74, 0
1, 37290, Note_on_c, 0, 62, 0
1, 37440, Tempo, 405872
1, 37440, Note_on_c, 0, 62, 68
1, 37440, Note_on_c, 0, 74, 80
1, 37680, Note_on_c, 0, 46, 0
1, 37680, Note_on_c, 0, 50, 0
1, 37680, Note_on_c, 0, 50, 61
1, 37680, Note_on_c, 0, 58, 73
1, 37770, Note_on_c, 0, 58, 0
1, 37770, Note_on_c, 0, 50, 0
1, 37920, Tempo, 400374
1, 37920, Note_on_c, 0, 62, 0
1, 37920, Note_on_c, 0, 74, 0
1, 37920, Note_on_c, 0, 62, 69
1, 37920, Note_on_c, 0, 74, 81
1, 37920, Note_on_c, 0, 58, 61
1, 37920, Note_on_c, 0, 62, 73
1, 38010, Note_on_c, 0, 62, 0
1, 38010, Note_on_c, 0, 62, 0
1, 38010, Note_on_c, 0, 74, 0
1, 38010, Note_on_c, 0, 58, 0
1, 38160, Note_on_c, 0, 62, 69
1, 38160, Note_on_c, 0, 74, 81
1, 38160, Note_on_c, 0, 57, 61
1, 38160, Note_on_c, 0, 60, 73
1, 38250, Note_on_c, 0, 60, 0
1, 38250, Note_on_c, 0, 62, 0
1, 38250, Note_on_c, 0, 74, 0
1, 38250, Note_on_c, 0, 57, 0
1, 38400, Tempo, 431034
1, 38400, Note_on_c, 0, 63, 76
1, 38400, Note_on_c, 0, 75, 90
1, 38400, Note_on_c, 0, 55, 65
1, 38400, Note_on_c, 0, 59, 77
1, 38490, Note_on_c, 0, 59, 0
1, 38490, Note_on_c, 0, 63, 0
1, 38490, Note_on_c, 0, 75, 0
1, 38490, Note_on_c, 0, 55, 0
1, 38640, Tempo, 412967
1, 38640, Note_on_c, 0, 54, 63
1, 38640, Note_on_c, 0, 57, 74
1, 38730, Note_on_c, 0, 57, 0
1, 38730, Note_on_c, 0, 54, 0
1, 38880, Tempo, 405872
1, 38880, Note_on_c, 0, 64, 75
1, 38880, Note_on_c, 0, 76, 89
1, 38880, Note_on_c, 0, 52, 63
1, 38880, Note_on_c, 0, 55, 74
1, 38970, Note_on_c, 0, 55, 0
1, 38970, Note_on_c, 0, 52, 0
1, 39120, Note_on_c, 0, 47, 63
1, 39120, Note_on_c, 0, 54, 74
1, 39210, Note_on_c, 0, 54, 0
1, 39210, Note_on_c, 0, 47, 0
1, 39360, Note_on_c, 0, 43, 67
1, 39360, Note_on_c, 0, 52, 79
1, 39600, Tempo, 393443
1, 39600, Note_on_c, 0, 76, 0
1, 39600, Note_on_c, 0, 64, 0
1, 39600, Note_on_c, 0, 66, 72
1, 39600, Note_on_c, 0, 78, 72
1, 39690, Note_on_c, 0, 78, 0
1, 39690, Note_on_c, 0, 66, 0
1, 39840, Note_on_c, 0, 67, 59
1, 39840, Note_on_c, 0, 79, 71
1, 39930, Note_on_c, 0, 79, 0
1, 39930, Note_on_c, 0, 67, 0
1, 40080, Note_on_c, 0, 43, 0
1, 40080, Note_on_c, 0, 52, 0
1, 40080, Note_on_c, 0, 69, 60
1, 40080, Note_on_c, 0, 81, 72
1, 40080, Note_on_c, 0, 41, 56
1, 40080, Note_on_c, 0, 50, 67
1, 40170, Note_on_c, 0, 50, 0
1, 40170, Note_on_c, 0, 69, 0
1, 40170, Note_on_c, 0, 81, 0
1, 40170, Note_on_c, 0, 41, 0
1, 40320, Tempo, 405872
1, 40320, Note_on_c, 0, 70, 68
1, 40320, Note_on_c, 0, 82, 80
1, 40320, Note_on_c, 0, 40, 57
1, 40320, Note_on_c, 0, 49, 69
1, 40410, Note_on_c, 0, 49, 0
1, 40410, Note_on_c, 0, 40, 0
1, 40560, Note_on_c, 0, 43, 54
1, 40560, Note_on_c, 0, 52, 65
1, 40650, Note_on_c, 0, 52, 0
1, 40650, Note_on_c, 0, 43, 0
1, 40800, Note_on_c, 0, 82, 0
1, 40800, Note_on_c, 0, 70, 0
1, 40800, Note_on_c, 0, 70, 60
1, 40800, Note_on_c, 0, 82, 72
1, 40800, Note_on_c, 0, 40, 57
1, 40800, Note_on_c, 0, 49, 69
1, 40890, Note_on_c, 0, 49, 0
1, 40890, Note_on_c, 0, 70, 0
1, 40890, Note_on_c, 0, 82, 0
1, 40890, Note_on_c, 0, 40, 0
1, 41040, Tempo, 429492
1, 41040, Note_on_c, 0, 70, 60
1, 41040, Note_on_c, 0, 82, 72
1, 41040, Note_on_c, 0, 43, 52
1, 41040, Note_on_c, 0, 52, 63
1, 41130, Note_on_c, 0, 52, 0
1, 41130, Note_on_c, 0, 70, 0
1, 41130, Note_on_c, 0, 82, 0
1, 41130, Note_on_c, 0, 43, 0
1, 41280, Tempo, 393443
1, 41280, Note_on_c, 0, 61, 71
1, 41280, Note_on_c, 0, 73, 84
1, 41280, Note_on_c, 0, 55, 59
1, 41280, Note_on_c, 0, 58, 72
1, 41370, Note_on_c, 0, 58, 0
1, 41370, Note_on_c, 0, 55, 0
1, 41520, Tempo, 404040
1, 41520, Note_on_c, 0, 55, 58
1, 41520, Note_on_c, 0, 58, 70
1, 42000, Tempo, 397351
1, 42000, Note_on_c, 0, 73, 0
1, 42000, Note_on_c, 0, 61, 0
1, 42000, Note_on_c, 0, 61, 66
1, 42000, Note_on_c, 0, 73, 77
1, 42090, Note_on_c, 0, 73, 0
1, 42090, Note_on_c, 0, 61, 0
1, 42240, Tempo, 405405
1, 42240, Note_on_c, 0, 55, 0
1, 42240, Note_on_c, 0, 58, 0
1, 42240, Note_on_c, 0, 69, 68
1, 42240, Note_on_c, 0, 81, 80
1, 42240, Note_on_c, 0, 39, 57
1, 42240, Note_on_c, 0, 48, 69
1, 42330, Note_on_c, 0, 48, 0
1, 42330, Note_on_c, 0, 39, 0
1, 42480, Note_on_c, 0, 42, 54
1, 42480, Note_on_c, 0, 51, 65
1, 42570, Note_on_c, 0, 51, 0
1, 42570, Note_on_c, 0, 42, 0
1, 42720, Note_on_c, 0, 81, 0
1, 42720, Note_on_c, 0, 69, 0
1, 42720, Note_on_c, 0, 69, 60
1, 42720, Note_on_c, 0, 81, 72
1, 42720, Note_on_c, 0, 39, 57
1, 42720, Note_on_c, 0, 48, 69
1, 42810, Note_on_c, 0, 48, 0
1, 42810, Note_on_c, 0, 69, 0
1, 42810, Note_on_c, 0, 81, 0
1, 42810, Note_on_c, 0, 39, 0
1, 42960, Tempo, 432620
1, 42960, Note_on_c, 0, 69, 61
1, 42960, Note_on_c, 0, 81, 73
1, 42960, Note_on_c, 0, 42, 52
1, 42960, Note_on_c, 0, 51, 63
1, 43050, Note_on_c, 0, 51, 0
1, 43050, Note_on_c, 0, 69, 0
1, 43050, Note_on_c, 0, 81, 0
1, 43050, Note_on_c, 0, 42, 0
1, 43200, Tempo, 394737
1, 43200, Note_on_c, 0, 60, 71
1, 43200, Note_on_c, 0, 72, 84
1, 43200, Note_on_c, 0, 54, 59
1, 43200, Note_on_c, 0, 57, 72
1, 43290, Note_on_c, 0, 57, 0
1, 43290, Note_on_c, 0, 54, 0
1, 43440, Note_on_c, 0, 54, 58
1, 43440, Note_on_c, 0, 57, 70
1, 43480, Tempo, 405405
1, 43920, Note_on_c, 0, 72, 0
1, 43920, Note_on_c, 0, 60, 0
1, 43920, Note_on_c, 0, 60, 61
1, 43920, Note_on_c, 0, 72, 73
1, 44010, Note_on_c, 0, 72, 0
1, 44010, Note_on_c, 0, 60, 0
1, 44160, Note_on_c, 0, 54, 0
1, 44160, Note_on_c, 0, 57, 0
1, 44160, Note_on_c, 0, 59, 63
1, 44160, Note_on_c, 0, 71, 73
1, 44160, Note_on_c, 0, 55, 71
1, 44250, Note_on_c, 0, 71, 0
1, 44250, Note_on_c, 0, 59, 0
1, 44400, Tempo, 400374
1, 44400, Note_on_c, 0, 62, 64
1, 44400, Note_on_c, 0, 74, 75
1, 44490, Note_on_c, 0, 74, 0
1, 44490, Note_on_c, 0, 62, 0
1, 44640, Note_on_c, 0, 55, 0
1, 44640, Note_on_c, 0, 67, 68
1, 44640, Note_on_c, 0, 79, 80
1, 44640, Note_on_c, 0, 47, 55
1, 44640, Note_on_c, 0, 50, 66
1, 44730, Note_on_c, 0, 79, 0
1, 44730, Note_on_c, 0, 67, 0
1, 44880, Note_on_c, 0, 65, 65
1, 44880, Note_on_c, 0, 77, 77
1, 44970, Note_on_c, 0, 77, 0
1, 44970, Note_on_c, 0, 65, 0
1, 45120, Tempo, 405872
1, 45120, Note_on_c, 0, 47, 0
1, 45120, Note_on_c, 0, 50, 0
1, 45120, Note_on_c, 0, 64, 67
1, 45120, Note_on_c, 0, 76, 79
1, 45120, Note_on_c, 0, 48, 55
1, 45120, Note_on_c, 0, 52, 65
1, 45210, Note_on_c, 0, 52, 0
1, 45210, Note_on_c, 0, 64, 0
1, 45210, Note_on_c, 0, 76, 0
1, 45210, Note_on_c, 0, 48, 0
1, 45360, Note_on_c, 0, 60, 66
1, 45360, Note_on_c, 0, 72, 77
1, 45360, Note_on_c, 0, 50, 56
1, 45360, Note_on_c, 0, 53, 68
1, 45450, Note_on_c, 0, 53, 0
1, 45450, Note_on_c, 0, 60, 0
1, 45450, Note_on_c, 0, 72, 0
1, 45450, Note_on_c, 0, 50, 0
1, 45600, Note_on_c, 0, 59, 67
1, 45600, Note_on_c, 0, 71, 78
1, 45600, Note_on_c, 0, 52, 59
1, 45600, Note_on_c, 0, 55, 70
1, 45690, Note_on_c, 0, 55, 0
1, 45690, Note_on_c, 0, 59, 0
1, 45690, Note_on_c, 0, 71, 0
1, 45690, Note_on_c, 0, 52, 0
1, 45840, Note_on_c, 0, 57, 67
1, 45840, Note_on_c, 0, 69, 79
1, 45840, Note_on_c, 0, 53, 61
1, 45840, Note_on_c, 0, 57, 73
1, 45930, Note_on_c, 0, 57, 0
1, 45930, Note_on_c, 0, 57, 0
1, 45930, Note_on_c, 0, 69, 0
1, 45930, Note_on_c, 0, 53, 0
1, 46080, Tempo, 410088
1, 46080, Note_on_c, 0, 65, 71
1, 46080, Note_on_c, 0, 77, 84
1, 46080, Note_on_c, 0, 50, 65
1, 46080, Note_on_c, 0, 55, 77
1, 46170, Note_on_c, 0, 55, 0
1, 46320, Note_on_c, 0, 59, 75
1, 46410, Note_on_c, 0, 59, 0
1, 46560, Tempo, 417333
1, 46560, Note_on_c, 0, 50, 0
1, 46560, Note_on_c, 0, 77, 0
1, 46560, Note_on_c, 0, 65, 0
1, 46560, Note_on_c, 0, 64, 69
1, 46560, Note_on_c, 0, 76, 81
1, 46560, Note_on_c, 0, 48, 77
1, 46560, Note_on_c, 0, 60, 76
1, 46650, Note_on_c, 0, 48, 0
1, 46800, Note_on_c, 0, 52, 75
1, 46890, Note_on_c, 0, 52, 0
1, 47040, Tempo, 434783
1, 47040, Note_on_c, 0, 64, 0
1, 47040, Note_on_c, 0, 76, 0
1, 47040, Note_on_c, 0, 62, 71
1, 47040, Note_on_c, 0, 74, 84
1, 47040, Note_on_c, 0, 55, 65
1, 47520, Tempo, 447761
1, 47520, Note_on_c, 0, 60, 0
1, 47520, Note_on_c, 0, 59, 75
1, 47970, Tempo, 413793
1, 48000, Tempo, 410959
1, 48000, Note_on_c, 0, 59, 0
1, 48000, Note_on_c, 0, 55, 0
1, 48000, Note_on_c, 0, 74, 0
1, 48000, Note_on_c, 0, 62, 0
1, 48000, Note_on_c, 0, 76, 74
1, 48000, Note_on_c, 0, 72, 74
1, 48000, Note_on_c, 0, 84, 89
1, 48000, Note_on_c, 0, 36, 81
1, 48000, Note_on_c, 0, 48, 96
1, 48480, Tempo, 406780
1, 48480, Note_on_c, 0, 48, 0
1, 48480, Note_on_c, 0, 36, 0
1, 48480, Note_on_c, 0, 36, 77
1, 48480, Note_on_c, 0, 48, 91
1, 48570, Note_on_c, 0, 48, 0
1, 48570, Note_on_c, 0, 36, 0
1, 48720, Note_on_c, 0, 36, 77
1, 48720, Note_on_c, 0, 48, 91
1, 48810, Note_on_c, 0, 48, 0
1, 48810, Note_on_c, 0, 36, 0
1, 48960, Tempo, 389788
1, 48960, Note_on_c, 0, 36, 77
1, 48960, Note_on_c, 0, 48, 91
1, 49200, Tempo, 397667
1, 49200, Note_on_c, 0, 76, 0
1, 49200, Note_on_c, 0, 84, 0
1, 49200, Note_on_c, 0, 72, 0
1, 49200, Note_on_c, 0, 67, 70
1, 49200, Note_on_c, 0, 76, 70
1, 49200, Note_on_c, 0, 79, 84
1, 49290, Note_on_c, 0, 79, 0
1, 49290, Note_on_c, 0, 67, 0
1, 49290, Note_on_c, 0, 76, 0
1, 49440, Tempo, 404476
1, 49440, Note_on_c, 0, 36, 0
1, 49440, Note_on_c, 0, 48, 0
1, 49440, Note_on_c, 0, 69, 70
1, 49440, Note_on_c, 0, 77, 70
1, 49440, Note_on_c, 0, 81, 84
1, 49440, Note_on_c, 0, 36, 78
1, 49440, Note_on_c, 0, 48, 92
1, 49530, Note_on_c, 0, 48, 0
1, 49530, Note_on_c, 0, 81, 0
1, 49530, Note_on_c, 0, 69, 0
1, 49530, Note_on_c, 0, 77, 0
1, 49530, Note_on_c, 0, 36, 0
1, 49680, Note_on_c, 0, 70, 70
1, 49680, Note_on_c, 0, 79, 70
1, 49680, Note_on_c, 0, 82, 84
1, 49680, Note_on_c, 0, 36, 79
1, 49680, Note_on_c, 0, 48, 93
1, 49770, Note_on_c, 0, 48, 0
1, 49770, Note_on_c, 0, 82, 0
1, 49770, Note_on_c, 0, 70, 0
1, 49770, Note_on_c, 0, 79, 0
1, 49770, Note_on_c, 0, 36, 0
1, 49920, Tempo, 397667
1, 49920, Note_on_c, 0, 69, 74
1, 49920, Note_on_c, 0, 77, 74
1, 49920, Note_on_c, 0, 81, 89
1, 49920, Note_on_c, 0, 37, 85
1, 49920, Note_on_c, 0, 49, 100
1, 50010, Note_on_c, 0, 49, 0
1, 50010, Note_on_c, 0, 81, 0
1, 50010, Note_on_c, 0, 69, 0
1, 50010, Note_on_c, 0, 77, 0
1, 50010, Note_on_c, 0, 37, 0
1, 50160, Note_on_c, 0, 67, 70
1, 50160, Note_on_c, 0, 76, 70
1, 50160, Note_on_c, 0, 79, 83
1, 50250, Note_on_c, 0, 79, 0
1, 50250, Note_on_c, 0, 76, 0
1, 50250, Note_on_c, 0, 67, 0
1, 50400, Tempo, 405872
1, 50400, Note_on_c, 0, 65, 70
1, 50400, Note_on_c, 0, 74, 70
1, 50400, Note_on_c, 0, 77, 83
1, 50400, Note_on_c, 0, 38, 81
1, 50400, Note_on_c, 0, 50, 99
1, 50490, Note_on_c, 0, 77, 0
1, 50490, Note_on_c, 0, 65, 0
1, 50490, Note_on_c, 0, 74, 0
1, 50640, Note_on_c, 0, 64, 70
1, 50640, Note_on_c, 0, 69, 70
1, 50640, Note_on_c, 0, 76, 83
1, 50730, Note_on_c, 0, 76, 0
1, 50730, Note_on_c, 0, 64, 0
1, 50730, Note_on_c, 0, 69, 0
1, 50880, Note_on_c, 0, 62, 75
1, 50880, Note_on_c, 0, 65, 75
1, 50880, Note_on_c, 0, 74, 89
1, 51120, Tempo, 399016
1, 51120, Note_on_c, 0, 38, 0
1, 51120, Note_on_c, 0, 50, 0
1, 51120, Note_on_c, 0, 40, 78
1, 51120, Note_on_c, 0, 52, 92
1, 51210, Note_on_c, 0, 52, 0
1, 51210, Note_on_c, 0, 40, 0
1, 51360, Tempo, 394737
1, 51360, Note_on_c, 0, 41, 77
1, 51360, Note_on_c, 0, 53, 91
1, 51450, Note_on_c, 0, 53, 0
1, 51450, Note_on_c, 0, 41, 0
1, 51600, Note_on_c, 0, 65, 0
1, 51600, Note_on_c, 0, 62, 0
1, 51600, Note_on_c, 0, 74, 0
1, 51600, Note_on_c, 0, 73, 73
1, 51600, Note_on_c, 0, 76, 73
1, 51600, Note_on_c, 0, 85, 86
1, 51600, Note_on_c, 0, 40, 78
1, 51600, Note_on_c, 0, 52, 92
1, 51690, Note_on_c, 0, 52, 0
1, 51690, Note_on_c, 0, 85, 0
1, 51690, Note_on_c, 0, 73, 0
1, 51690, Note_on_c, 0, 76, 0
1, 51690, Note_on_c, 0, 40, 0
1, 51840, Tempo, 405872
1, 51840, Note_on_c, 0, 74, 74
1, 51840, Note_on_c, 0, 77, 74
1, 51840, Note_on_c, 0, 86, 89
1, 51840, Note_on_c, 0, 38, 81
1, 51840, Note_on_c, 0, 50, 96
1, 52320, Tempo, 399016
1, 52320, Note_on_c, 0, 50, 0
1, 52320, Note_on_c, 0, 38, 0
1, 52320, Note_on_c, 0, 38, 81
1, 52320, Note_on_c, 0, 50, 96
1, 52410, Note_on_c, 0, 50, 0
1, 52410, Note_on_c, 0, 38, 0
1, 52560, Note_on_c, 0, 38, 78
1, 52560, Note_on_c, 0, 50, 92
1, 52650, Note_on_c, 0, 50, 0
1, 52650, Note_on_c, 0, 38, 0
1, 52800, Tempo, 405872
1, 52800, Note_on_c, 0, 38, 78
1, 52800, Note_on_c, 0, 50, 92
1, 53040, Tempo, 389788
1, 53040, Note_on_c, 0, 74, 0
1, 53040, Note_on_c, 0, 86, 0
1, 53040, Note_on_c, 0, 77, 0
1, 53040, Note_on_c, 0, 69, 70
1, 53040, Note_on_c, 0, 77, 70
1, 53040, Note_on_c, 0, 81, 84
1, 53130, Note_on_c, 0, 81, 0
1, 53130, Note_on_c, 0, 69, 0
1, 53130, Note_on_c, 0, 77, 0
1, 53280, Tempo, 401714
1, 53280, Note_on_c, 0, 38, 0
1, 53280, Note_on_c, 0, 50, 0
1, 53280, Note_on_c, 0, 79, 70
1, 53280, Note_on_c, 0, 71, 70
1, 53280, Note_on_c, 0, 83, 84
1, 53280, Note_on_c, 0, 38, 79
1, 53280, Note_on_c, 0, 50, 93
1, 53370, Note_on_c, 0, 50, 0
1, 53370, Note_on_c, 0, 83, 0
1, 53370, Note_on_c, 0, 79, 0
1, 53370, Note_on_c, 0, 71, 0
1, 53370, Note_on_c, 0, 38, 0
1, 53520, Note_on_c, 0, 72, 70
1, 53520, Note_on_c, 0, 81, 70
1, 53520, Note_on_c, 0, 84, 84
1, 53520, Note_on_c, 0, 38, 79
1, 53520, Note_on_c, 0, 50, 93
1, 53610, Note_on_c, 0, 50, 0
1, 53610, Note_on_c, 0, 84, 0
1, 53610, Note_on_c, 0, 72, 0
1, 53610, Note_on_c, 0, 81, 0
1, 53610, Note_on_c, 0, 38, 0
1, 53760, Note_on_c, 0, 71, 74
1, 53760, Note_on_c, 0, 79, 74
1, 53760, Note_on_c, 0, 83, 89
1, 53760, Note_on_c, 0, 39, 85
1, 53760, Note_on_c, 0, 51, 100
1, 53800, Tempo, 394997
1, 53850, Note_on_c, 0, 51, 0
1, 53850, Note_on_c, 0, 83, 0
1, 53850, Note_on_c, 0, 71, 0
1, 53850, Note_on_c, 0, 79, 0
1, 53850, Note_on_c, 0, 39, 0
1, 54000, Note_on_c, 0, 69, 70
1, 54000, Note_on_c, 0, 78, 70
1, 54000, Note_on_c, 0, 81, 83
1, 54090, Note_on_c, 0, 81, 0
1, 54090, Note_on_c, 0, 78, 0
1, 54090, Note_on_c, 0, 69, 0
1, 54240, Tempo, 405872
1, 54240, Note_on_c, 0, 67, 70
1, 54240, Note_on_c, 0, 76, 70
1, 54240, Note_on_c, 0, 79, 83
1, 54240, Note_on_c, 0, 40, 80
1, 54240, Note_on_c, 0, 52, 99
1, 54330, Note_on_c, 0, 79, 0
1, 54330, Note_on_c, 0, 67, 0
1, 54330, Note_on_c, 0, 76, 0
1, 54480, Note_on_c, 0, 66, 70
1, 54480, Note_on_c, 0, 71, 70
1, 54480, Note_on_c, 0, 78, 83
1, 54570, Note_on_c, 0, 78, 0
1, 54570, Note_on_c, 0, 66, 0
1, 54570, Note_on_c, 0, 71, 0
1, 54720, Note_on_c, 0, 64, 75
1, 54720, Note_on_c, 0, 67, 75
1, 54720, Note_on_c, 0, 76, 89
1, 54960, Tempo, 397667
1, 54960, Note_on_c, 0, 40, 0
1, 54960, Note_on_c, 0, 52, 0
1, 54960, Note_on_c, 0, 42, 92
1, 54960, Note_on_c, 0, 54, 92
1, 55050, Note_on_c, 0, 54, 0
1, 55050, Note_on_c, 0, 42, 0
1, 55200, Note_on_c, 0, 43, 77
1, 55200, Note_on_c, 0, 55, 91
1, 55290, Note_on_c, 0, 55, 0
1, 55290, Note_on_c, 0, 43, 0
1, 55440, Note_on_c, 0, 67, 0
1, 55440, Note_on_c, 0, 64, 0
1, 55440, Note_on_c, 0, 76, 0
1, 55440, Note_on_c, 0, 62, 73
1, 55440, Note_on_c, 0, 65, 73
1, 55440, Note_on_c, 0, 74, 86
1, 55440, Note_on_c, 0, 45, 78
1, 55440, Note_on_c, 0, 57, 92
1, 55530, Note_on_c, 0, 57, 0
1, 55530, Note_on_c, 0, 74, 0
1, 55530, Note_on_c, 0, 62, 0
1, 55530, Note_on_c, 0, 65, 0
1, 55530, Note_on_c, 0, 45, 0
1, 55680, Tempo, 400374
1, 55680, Note_on_c, 0, 61, 74
1, 55680, Note_on_c, 0, 64, 74
1, 55680, Note_on_c, 0, 73, 89
1, 55680, Note_on_c, 0, 46, 87
1, 55680, Note_on_c, 0, 58, 103
1, 55770, Note_on_c, 0, 73, 0
1, 55770, Note_on_c, 0, 61, 0
1, 55770, Note_on_c, 0, 64, 0
1, 55920, Note_on_c, 0, 64, 69
1, 55920, Note_on_c, 0, 67, 69
1, 55920, Note_on_c, 0, 76, 82
1, 56010, Note_on_c, 0, 76, 0
1, 56010, Note_on_c, 0, 64, 0
1, 56010, Note_on_c, 0, 67, 0
1, 56120, Tempo, 405872
1, 56160, Note_on_c, 0, 46, 0
1, 56160, Note_on_c, 0, 58, 0
1, 56160, Note_on_c, 0, 61, 74
1, 56160, Note_on_c, 0, 64, 74
1, 56160, Note_on_c, 0, 73, 89
1, 56160, Note_on_c, 0, 46, 78
1, 56160, Note_on_c, 0, 58, 92
1, 56250, Note_on_c, 0, 58, 0
1, 56250, Note_on_c, 0, 73, 0
1, 56250, Note_on_c, 0, 61, 0
1, 56250, Note_on_c, 0, 64, 0
1, 56250, Note_on_c, 0, 46, 0
1, 56400, Tempo, 429492
1, 56400, Note_on_c, 0, 64, 67
1, 56400, Note_on_c, 0, 67, 67
1, 56400, Note_on_c, 0, 76, 80
1, 56400, Note_on_c, 0, 46, 78
1, 56400, Note_on_c, 0, 58, 92
1, 56490, Note_on_c, 0, 58, 0
1, 56490, Note_on_c, 0, 76, 0
1, 56490, Note_on_c, 0, 64, 0
1, 56490, Note_on_c, 0, 67, 0
1, 56490, Note_on_c, 0, 46, 0
1, 56640, Tempo, 388350
1, 56640, Note_on_c, 0, 70, 74
1, 56640, Note_on_c, 0, 79, 74
1, 56640, Note_on_c, 0, 82, 89
1, 56640, Note_on_c, 0, 37, 85
1, 56640, Note_on_c, 0, 49, 100
1, 56730, Note_on_c, 0, 82, 0
1, 56730, Note_on_c, 0, 70, 0
1, 56730, Note_on_c, 0, 79, 0
1, 56880, Tempo, 405405
1, 56880, Note_on_c, 0, 70, 73
1, 56880, Note_on_c, 0, 79, 73
1, 56880, Note_on_c, 0, 82, 86
1, 57360, Note_on_c, 0, 37, 0
1, 57360, Note_on_c, 0, 49, 0
1, 57360, Note_on_c, 0, 37, 80
1, 57360, Note_on_c, 0, 49, 94
1, 57450, Note_on_c, 0, 49, 0
1, 57450, Note_on_c, 0, 37, 0
1, 57600, Tempo, 399016
1, 57600, Note_on_c, 0, 82, 0
1, 57600, Note_on_c, 0, 70, 0
1, 57600, Note_on_c, 0, 79, 0
1, 57600, Note_on_c, 0, 60, 72
1, 57600, Note_on_c, 0, 63, 72
1, 57600, Note_on_c, 0, 72, 87
1, 57600, Note_on_c, 0, 45, 85
1, 57600, Note_on_c, 0, 57, 100
1, 57690, Note_on_c, 0, 72, 0
1, 57690, Note_on_c, 0, 60, 0
1, 57690, Note_on_c, 0, 63, 0
1, 57840, Note_on_c, 0, 63, 67
1, 57840, Note_on_c, 0, 66, 67
1, 57840, Note_on_c, 0, 75, 80
1, 57930, Note_on_c, 0, 75, 0
1, 57930, Note_on_c, 0, 63, 0
1, 57930, Note_on_c, 0, 66, 0
1, 58080, Note_on_c, 0, 45, 0
1, 58080, Note_on_c, 0, 57, 0
1, 58080, Note_on_c, 0, 60, 72
1, 58080, Note_on_c, 0, 63, 72
1, 58080, Note_on_c, 0, 72, 87
1, 58080, Note_on_c, 0, 45, 76
1, 58080, Note_on_c, 0, 57, 90
1, 58170, Note_on_c, 0, 57, 0
1, 58170, Note_on_c, 0, 72, 0
1, 58170, Note_on_c, 0, 60, 0
1, 58170, Note_on_c, 0, 63, 0
1, 58170, Note_on_c, 0, 45, 0
1, 58320, Tempo, 432620
1, 58320, Note_on_c, 0, 63, 65
1, 58320, Note_on_c, 0, 66, 65
1, 58320, Note_on_c, 0, 75, 78
1, 58320, Note_on_c, 0, 45, 77
1, 58320, Note_on_c, 0, 57, 91
1, 58410, Note_on_c, 0, 57, 0
1, 58410, Note_on_c, 0, 75, 0
1, 58410, Note_on_c, 0, 63, 0
1, 58410, Note_on_c, 0, 66, 0
1, 58410, Note_on_c, 0, 45, 0
1, 58560, Tempo, 390879
1, 58560, Note_on_c, 0, 69, 72
1, 58560, Note_on_c, 0, 78, 72
1, 58560, Note_on_c, 0, 81, 87
1, 58560, Note_on_c, 0, 36, 83
1, 58560, Note_on_c, 0, 48, 98
1, 58650, Note_on_c, 0, 81, 0
1, 58650, Note_on_c, 0, 69, 0
1, 58650, Note_on_c, 0, 78, 0
1, 58800, Tempo, 406780
1, 58800, Note_on_c, 0, 69, 71
1, 58800, Note_on_c, 0, 78, 71
1, 58800, Note_on_c, 0, 81, 84
1, 59280, Note_on_c, 0, 36, 0
1, 59280, Note_on_c, 0, 48, 0
1, 59280, Note_on_c, 0, 36, 77
1, 59280, Note_on_c, 0, 48, 91
1, 59370, Note_on_c, 0, 48, 0
1, 59370, Note_on_c, 0, 36, 0
1, 59520, Note_on_c, 0, 81, 0
1, 59520, Note_on_c, 0, 69, 0
1, 59520, Note_on_c, 0, 78, 0
1, 59520, Note_on_c, 0, 67, 84
1, 59520, Note_on_c, 0, 79, 90
1, 59520, Note_on_c, 0, 35, 79
1, 59520, Note_on_c, 0, 47, 93
1, 59610, Note_on_c, 0, 47, 0
1, 59610, Note_on_c, 0, 35, 0
1, 59760, Tempo, 400374
1, 59760, Note_on_c, 0, 38, 80
1, 59760, Note_on_c, 0, 50, 94
1, 59850, Note_on_c, 0, 50, 0
1, 59850, Note_on_c, 0, 38, 0
1, 60000, Note_on_c, 0, 79, 0
1, 60000, Note_on_c, 0, 67, 0
1, 60000, Note_on_c, 0, 62, 68
1, 60000, Note_on_c, 0, 71, 68
1, 60000, Note_on_c, 0, 74, 81
1, 60000, Note_on_c, 0, 43, 84
1, 60000, Note_on_c, 0, 55, 100
1, 60090, Note_on_c, 0, 55, 0
1, 60090, Note_on_c, 0, 43, 0
1, 60240, Note_on_c, 0, 41, 80
1, 60240, Note_on_c, 0, 53, 94
1, 60330, Note_on_c, 0, 53, 0
1, 60330, Note_on_c, 0, 41, 0
1, 60480, Tempo, 405872
1, 60480, Note_on_c, 0, 74, 0
1, 60480, Note_on_c, 0, 71, 0
1, 60480, Note_on_c, 0, 62, 0
1, 60480, Note_on_c, 0, 64, 67
1, 60480, Note_on_c, 0, 72, 67
1, 60480, Note_on_c, 0, 76, 79
1, 60480, Note_on_c, 0, 40, 81
1, 60480, Note_on_c, 0, 52, 96
1, 60570, Note_on_c, 0, 52, 0
1, 60570, Note_on_c, 0, 76, 0
1, 60570, Note_on_c, 0, 64, 0
1, 60570, Note_on_c, 0, 72, 0
1, 60570, Note_on_c, 0, 40, 0
1, 60720, Note_on_c, 0, 65, 68
1, 60720, Note_on_c, 0, 74, 68
1, 60720, Note_on_c, 0, 77, 81
1, 60720, Note_on_c, 0, 36, 79
1, 60720, Note_on_c, 0, 48, 93
1, 60810, Note_on_c, 0, 48, 0
1, 60810, Note_on_c, 0, 77, 0
1, 60810, Note_on_c, 0, 65, 0
1, 60810, Note_on_c, 0, 74, 0
1, 60810, Note_on_c, 0, 36, 0
1, 60960, Note_on_c, 0, 67, 70
1, 60960, Note_on_c, 0, 76, 70
1, 60960, Note_on_c, 0, 79, 84
1, 60960, Note_on_c, 0, 35, 79
1, 60960, Note_on_c, 0, 47, 93
1, 61050, Note_on_c, 0, 47, 0
1, 61050, Note_on_c, 0, 79, 0
1, 61050, Note_on_c, 0, 67, 0
1, 61050, Note_on_c, 0, 76, 0
1, 61050, Note_on_c, 0, 35, 0
1, 61200, Note_on_c, 0, 69, 73
1, 61200, Note_on_c, 0, 77, 73
1, 61200, Note_on_c, 0, 81, 86
1, 61200, Note_on_c, 0, 33, 79
1, 61200, Note_on_c, 0, 45, 93
1, 61290, Note_on_c, 0, 45, 0
1, 61290, Note_on_c, 0, 81, 0
1, 61290, Note_on_c, 0, 69, 0
1, 61290, Note_on_c, 0, 77, 0
1, 61290, Note_on_c, 0, 33, 0
1, 61440, Tempo, 410088
1, 61440, Note_on_c, 0, 71, 74
1, 61440, Note_on_c, 0, 74, 74
1, 61440, Note_on_c, 0, 79, 89
1, 61440, Note_on_c, 0, 41, 81
1, 61440, Note_on_c, 0, 53, 96
1, 61920, Tempo, 454270
1, 61920, Note_on_c, 0, 53, 0
1, 61920, Note_on_c, 0, 79, 0
1, 61920, Note_on_c, 0, 71, 0
1, 61920, Note_on_c, 0, 74, 0
1, 61920, Note_on_c, 0, 41, 0
1, 61920, Note_on_c, 0, 72, 74
1, 61920, Note_on_c, 0, 79, 74
1, 61920, Note_on_c, 0, 84, 88
1, 61920, Note_on_c, 0, 40, 79
1, 61920, Note_on_c, 0, 52, 93
1, 62400, Tempo, 427930
1, 62400, Note_on_c, 0, 52, 0
1, 62400, Note_on_c, 0, 84, 0
1, 62400, Note_on_c, 0, 72, 0
1, 62400, Note_on_c, 0, 79, 0
1, 62400, Note_on_c, 0, 40, 0
1, 62400, Note_on_c, 0, 83, 82
1, 62400, Note_on_c, 0, 77, 82
1, 62400, Note_on_c, 0, 89, 97
1, 62400, Note_on_c, 0, 38, 81
1, 62400, Note_on_c, 0, 50, 96
1, 62880, Note_on_c, 0, 83, 0
1, 62880, Note_on_c, 0, 83, 94
1, 63360, Tempo, 389610
1, 63360, Note_on_c, 0, 83, 0
1, 63360, Note_on_c, 0, 50, 0
1, 63360, Note_on_c, 0, 77, 0
1, 63360, Note_on_c, 0, 89, 0
1, 63360, Note_on_c, 0, 38, 0
1, 63360, Note_on_c, 0, 49, 80
1, 63360, Note_on_c, 0, 61, 96
1, 63417, Control_c, 0, 64, 127
1, 63480, Note_on_c, 0, 67, 74
1, 63600, Note_on_c, 0, 67, 0
1, 63600, Note_on_c, 0, 70, 75
1, 63720, Note_on_c, 0, 70, 0
1, 63720, Note_on_c, 0, 73, 75
1, 63840, Tempo, 382166
1, 63840, Note_on_c, 0, 73, 0
1, 63840, Note_on_c, 0, 61, 0
1, 63840, Note_on_c, 0, 49, 0
1, 63840, Note_on_c, 0, 76, 76
1, 63840, Note_on_c, 0, 49, 77
1, 63840, Note_on_c, 0, 61, 92
1, 63848, Control_c, 0, 64, 0
1, 63960, Note_on_c, 0, 61, 0
1, 63960, Note_on_c, 0, 49, 0
1, 63960, Note_on_c, 0, 79, 77
1, 63980, Note_on_c, 0, 76, 0
1, 64080, Note_on_c, 0, 82, 78
1, 64080, Note_on_c, 0, 49, 74
1, 64080, Note_on_c, 0, 61, 88
1, 64100, Note_on_c, 0, 79, 0
1, 64200, Tempo, 433213
1, 64200, Note_on_c, 0, 61, 0
1, 64200, Note_on_c, 0, 49, 0
1, 64200, Note_on_c, 0, 85, 79
1, 64220, Note_on_c, 0, 82, 0
1, 64320, Tempo, 388350
1, 64320, Note_on_c, 0, 91, 79
1, 64320, Note_on_c, 0, 40, 77
1, 64320, Note_on_c, 0, 52, 92
1, 64340, Note_on_c, 0, 85, 0
1, 64360, Tempo, 389610
1, 64360, Control_c, 0, 64, 127
1, 64440, Note_on_c, 0, 91, 0
1, 64440, Note_on_c, 0, 88, 78
1, 64560, Note_on_c, 0, 88, 0
1, 64560, Note_on_c, 0, 85, 77
1, 64600, Tempo, 388350
1, 64680, Note_on_c, 0, 85, 0
1, 64680, Note_on_c, 0, 82, 76
1, 64800, Tempo, 387097
1, 64800, Note_on_c, 0, 82, 0
1, 64800, Note_on_c, 0, 79, 75
1, 64880, Tempo, 388350
1, 64920, Note_on_c, 0, 79, 0
1, 64920, Note_on_c, 0, 76, 74
1, 64960, Tempo, 389610
1, 65000, Tempo, 390879
1, 65040, Note_on_c, 0, 76, 0
1, 65040, Note_on_c, 0, 73, 73
1, 65080, Tempo, 392157
1, 65160, Tempo, 545455
1, 65160, Note_on_c, 0, 73, 0
1, 65160, Note_on_c, 0, 70, 72
1, 65280, Tempo, 388350
1, 65280, Note_on_c, 0, 70, 0
1, 65280, Note_on_c, 0, 40, 0
1, 65280, Note_on_c, 0, 52, 0
1, 65280, Note_on_c, 0, 62, 96
1, 65280, Note_on_c, 0, 50, 80
1, 65285, Control_c, 0, 64, 0
1, 65337, Control_c, 0, 64, 127
1, 65400, Note_on_c, 0, 67, 74
1, 65520, Note_on_c, 0, 67, 0
1, 65520, Note_on_c, 0, 71, 75
1, 65640, Note_on_c, 0, 71, 0
1, 65640, Note_on_c, 0, 77, 75
1, 65760, Tempo, 378549
1, 65760, Note_on_c, 0, 77, 0
1, 65760, Note_on_c, 0, 50, 0
1, 65760, Note_on_c, 0, 62, 0
1, 65760, Note_on_c, 0, 79, 76
1, 65760, Note_on_c, 0, 50, 77
1, 65760, Note_on_c, 0, 62, 92
1, 65766, Control_c, 0, 64, 0
1, 65880, Note_on_c, 0, 62, 0
1, 65880, Note_on_c, 0, 50, 0
1, 65880, Note_on_c, 0, 83, 77
1, 65900, Note_on_c, 0, 79, 0
1, 66000, Note_on_c, 0, 89, 78
1, 66000, Note_on_c, 0, 50, 74
1, 66000, Note_on_c, 0, 62, 88
1, 66020, Note_on_c, 0, 83, 0
1, 66120, Tempo, 424028
1, 66120, Note_on_c, 0, 62, 0
1, 66120, Note_on_c, 0, 50, 0
1, 66120, Note_on_c, 0, 83, 79
1, 66140, Note_on_c, 0, 89, 0
1, 66240, Tempo, 390879
1, 66240, Note_on_c, 0, 91, 79
1, 66240, Note_on_c, 0, 41, 77
1, 66240, Note_on_c, 0, 53, 92
1, 66260, Note_on_c, 0, 83, 0
1, 66280, Control_c, 0, 64, 127
1, 66320, Tempo, 389610
1, 66360, Note_on_c, 0, 91, 0
1, 66360, Note_on_c, 0, 86, 78
1, 66380, Tempo, 388350
1, 66460, Tempo, 387097
1, 66480, Note_on_c, 0, 86, 0
1, 66480, Note_on_c, 0, 83, 77
1, 66520, Tempo, 385852
1, 66600, Tempo, 384615
1, 66600, Note_on_c, 0, 83, 0
1, 66600, Note_on_c, 0, 79, 76
1, 66660, Tempo, 383387
1, 66720, Note_on_c, 0, 79, 0
1, 66720, Note_on_c, 0, 74, 75
1, 66740, Tempo, 384615
1, 66800, Tempo, 385852
1, 66840, Note_on_c, 0, 74, 0
1, 66840, Note_on_c, 0, 71, 74
1, 66860, Tempo, 387097
1, 66940, Tempo, 388350
1, 66960, Note_on_c, 0, 71, 0
1, 66960, Note_on_c, 0, 67, 73
1, 67000, Tempo, 389610
1, 67060, Tempo, 390879
1, 67080, Tempo, 547945
1, 67080, Note_on_c, 0, 67, 0
1, 67080, Note_on_c, 0, 71, 72
1, 67200, Tempo, 385852
1, 67200, Note_on_c, 0, 71, 0
1, 67200, Note_on_c, 0, 41, 0
1, 67200, Note_on_c, 0, 53, 0
1, 67200, Note_on_c, 0, 49, 80
1, 67200, Note_on_c, 0, 61, 96
1, 67257, Control_c, 0, 64, 127
1, 67320, Note_on_c, 0, 67, 74
1, 67440, Note_on_c, 0, 67, 0
1, 67440, Note_on_c, 0, 70, 75
1, 67560, Note_on_c, 0, 70, 0
1, 67560, Note_on_c, 0, 73, 75
1, 67680, Tempo, 378549
1, 67680, Note_on_c, 0, 73, 0
1, 67680, Note_on_c, 0, 61, 0
1, 67680, Note_on_c, 0, 49, 0
1, 67680, Note_on_c, 0, 76, 76
1, 67680, Note_on_c, 0, 49, 77
1, 67680, Note_on_c, 0, 61, 92
1, 67684, Control_c, 0, 64, 0
1, 67800, Note_on_c, 0, 61, 0
1, 67800, Note_on_c, 0, 49, 0
1, 67800, Note_on_c, 0, 79, 77
1, 67820, Note_on_c, 0, 76, 0
1, 67920, Note_on_c, 0, 82, 78
1, 67920, Note_on_c, 0, 49, 74
1, 67920, Note_on_c, 0, 61, 88
1, 67940, Note_on_c, 0, 79, 0
1, 68040, Tempo, 416667
1, 68040, Note_on_c, 0, 61, 0
1, 68040, Note_on_c, 0, 49, 0
1, 68040, Note_on_c, 0, 85, 79
1, 68060, Note_on_c, 0, 82, 0
1, 68160, Tempo, 388350
1, 68160, Note_on_c, 0, 91, 79
1, 68160, Note_on_c, 0, 40, 77
1, 68160, Note_on_c, 0, 52, 92
1, 68180, Note_on_c, 0, 85, 0
1, 68200, Tempo, 389610
1, 68200, Control_c, 0, 64, 127
1, 68280, Note_on_c, 0, 91, 0
1, 68280, Note_on_c, 0, 88, 78
1, 68400, Note_on_c, 0, 88, 0
1, 68400, Note_on_c, 0, 85, 77
1, 68440, Tempo, 388350
1, 68520, Note_on_c, 0, 85, 0
1, 68520, Note_on_c, 0, 82, 76
1, 68640, Tempo, 387097
1, 68640, Note_on_c, 0, 82, 0
1, 68640, Note_on_c, 0, 79, 75
1, 68720, Tempo, 388350
1, 68760, Note_on_c, 0, 79, 0
1, 68760, Note_on_c, 0, 76, 74
1, 68800, Tempo, 389610
1, 68840, Tempo, 390879
1, 68880, Note_on_c, 0, 76, 0
1, 68880, Note_on_c, 0, 73, 73
1, 68920, Tempo, 392157
1, 69000, Tempo, 545455
1, 69000, Note_on_c, 0, 73, 0
1, 69000, Note_on_c, 0, 70, 72
1, 69120, Tempo, 389610
1, 69120, Note_on_c, 0, 70, 0
1, 69120, Note_on_c, 0, 40, 0
1, 69120, Note_on_c, 0, 52, 0
1, 69120, Note_on_c, 0, 62, 96
1, 69120, Note_on_c, 0, 50, 80
1, 69125, Control_c, 0, 64, 0
1, 69177, Control_c, 0, 64, 127
1, 69240, Note_on_c, 0, 67, 74
1, 69360, Note_on_c, 0, 67, 0
1, 69360, Note_on_c, 0, 71, 75
1, 69480, Note_on_c, 0, 71, 0
1, 69480, Note_on_c, 0, 77, 75
1, 69600, Tempo, 382166
1, 69600, Note_on_c, 0, 77, 0
1, 69600, Note_on_c, 0, 50, 0
1, 69600, Note_on_c, 0, 62, 0
1, 69600, Note_on_c, 0, 79, 76
1, 69600, Note_on_c, 0, 50, 77
1, 69600, Note_on_c, 0, 62, 92
1, 69606, Control_c, 0, 64, 0
1, 69690, Note_on_c, 0, 62, 0
1, 69690, Note_on_c, 0, 50, 0
1, 69720, Note_on_c, 0, 83, 77
1, 69740, Note_on_c, 0, 79, 0
1, 69840, Note_on_c, 0, 89, 78
1, 69840, Note_on_c, 0, 50, 74
1, 69840, Note_on_c, 0, 62, 88
1, 69860, Note_on_c, 0, 83, 0
1, 69930, Note_on_c, 0, 62, 0
1, 69930, Note_on_c, 0, 50, 0
1, 69960, Tempo, 413793
1, 69960, Note_on_c, 0, 83, 79
1, 69980, Note_on_c, 0, 89, 0
1, 70080, Tempo, 390879
1, 70080, Note_on_c, 0, 91, 79
1, 70080, Note_on_c, 0, 41, 77
1, 70080, Note_on_c, 0, 53, 92
1, 70100, Note_on_c, 0, 83, 0
1, 70120, Control_c, 0, 64, 127
1, 70160, Tempo, 389610
1, 70200, Note_on_c, 0, 91, 0
1, 70200, Note_on_c, 0, 86, 78
1, 70220, Tempo, 388350
1, 70300, Tempo, 387097
1, 70320, Note_on_c, 0, 86, 0
1, 70320, Note_on_c, 0, 83, 77
1, 70360, Tempo, 385852
1, 70440, Tempo, 384615
1, 70440, Note_on_c, 0, 83, 0
1, 70440, Note_on_c, 0, 79, 76
1, 70500, Tempo, 383387
1, 70560, Note_on_c, 0, 79, 0
1, 70560, Note_on_c, 0, 74, 75
1, 70580, Tempo, 384615
1, 70640, Tempo, 385852
1, 70680, Note_on_c, 0, 74, 0
1, 70680, Note_on_c, 0, 71, 74
1, 70700, Tempo, 387097
1, 70780, Tempo, 388350
1, 70800, Note_on_c, 0, 71, 0
1, 70800, Note_on_c, 0, 67, 73
1, 70840, Tempo, 389610
1, 70900, Tempo, 390879
1, 70920, Tempo, 547945
1, 70920, Note_on_c, 0, 67, 0
1, 70920, Note_on_c, 0, 71, 72
1, 71040, Tempo, 410959
1, 71040, Note_on_c, 0, 71, 0
1, 71040, Note_on_c, 0, 41, 0
1, 71040, Note_on_c, 0, 53, 0
1, 71040, Note_on_c, 0, 73, 71
1, 71040, Note_on_c, 0, 40, 58
1, 71040, Note_on_c, 0, 52, 69
1, 71050, Control_c, 0, 64, 0
1, 71100, Tempo, 409556
1, 71109, Control_c, 0, 64, 127
1, 71160, Tempo, 408163
1, 71160, Note_on_c, 0, 79, 65
1, 71180, Note_on_c, 0, 73, 0
1, 71220, Tempo, 406780
1, 71280, Tempo, 405405
1, 71280, Note_on_c, 0, 82, 65
1, 71300, Note_on_c, 0, 79, 0
1, 71340, Tempo, 404040
1, 71400, Tempo, 402685
1, 71400, Note_on_c, 0, 85, 65
1, 71420, Note_on_c, 0, 82, 0
1, 71460, Tempo, 401338
1, 71520, Tempo, 400000
1, 71520, Note_on_c, 0, 40, 0
1, 71520, Note_on_c, 0, 52, 0
1, 71520, Note_on_c, 0, 74, 74
1, 71520, Note_on_c, 0, 38, 62
1, 71520, Note_on_c, 0, 50, 73
1, 71530, Control_c, 0, 64, 0
1, 71540, Note_on_c, 0, 85, 0
1, 71577, Control_c, 0, 64, 127
1, 71580, Tempo, 398671
1, 71640, Tempo, 397351
1, 71640, Note_on_c, 0, 79, 70
1, 71660, Note_on_c, 0, 74, 0
1, 71700, Tempo, 396040
1, 71760, Tempo, 394737
1, 71760, Note_on_c, 0, 83, 70
1, 71780, Note_on_c, 0, 79, 0
1, 71820, Tempo, 393443
1, 71880, Tempo, 392157
1, 71880, Note_on_c, 0, 86, 70
1, 71900, Note_on_c, 0, 83, 0
1, 71940, Tempo, 390879
1, 71980, Tempo, 389610
1, 72000, Note_on_c, 0, 50, 0
1, 72000, Note_on_c, 0, 38, 0
1, 72000, Note_on_c, 0, 76, 79
1, 72000, Note_on_c, 0, 37, 66
1, 72000, Note_on_c, 0, 49, 79
1, 72010, Control_c, 0, 64, 0
1, 72020, Note_on_c, 0, 86, 0
1, 72057, Control_c, 0, 64, 127
1, 72120, Note_on_c, 0, 79, 72
1, 72140, Note_on_c, 0, 76, 0
1, 72240, Note_on_c, 0, 82, 72
1, 72260, Note_on_c, 0, 79, 0
1, 72360, Note_on_c, 0, 88, 72
1, 72380, Note_on_c, 0, 82, 0
1, 72460, Tempo, 389610
1, 72480, Note_on_c, 0, 49, 0
1, 72480, Note_on_c, 0, 37, 0
1, 72480, Note_on_c, 0, 78, 83
1, 72480, Note_on_c, 0, 38, 70
1, 72480, Note_on_c, 0, 50, 84
1, 72490, Control_c, 0, 64, 0
1, 72500, Tempo, 390879
1, 72500, Note_on_c, 0, 88, 0
1, 72540, Tempo, 392157
1, 72560, Tempo, 393443
1, 72566, Control_c, 0, 64, 127
1, 72600, Tempo, 394737
1, 72600, Note_on_c, 0, 81, 73
1, 72620, Tempo, 396040
1, 72620, Note_on_c, 0, 78, 0
1, 72660, Tempo, 397351
1, 72680, Tempo, 398671
1, 72720, Tempo, 400000
1, 72720, Note_on_c, 0, 84, 73
1, 72740, Tempo, 401338
1, 72740, Note_on_c, 0, 81, 0
1, 72780, Tempo, 402685
1, 72800, Tempo, 404040
1, 72840, Tempo, 530973
1, 72840, Note_on_c, 0, 90, 73
1, 72860, Note_on_c, 0, 84, 0
1, 72960, Tempo, 385852
1, 72960, Note_on_c, 0, 50, 0
1, 72960, Note_on_c, 0, 38, 0
1, 72960, Note_on_c, 0, 59, 88
1, 72960, Note_on_c, 0, 55, 74
1, 72965, Control_c, 0, 64, 0
1, 72980, Note_on_c, 0, 90, 0
1, 73017, Control_c, 0, 64, 127
1, 73080, Note_on_c, 0, 67, 74
1, 73200, Note_on_c, 0, 67, 0
1, 73200, Note_on_c, 0, 71, 75
1, 73320, Note_on_c, 0, 71, 0
1, 73320, Note_on_c, 0, 76, 75
1, 73440, Tempo, 376176
1, 73440, Note_on_c, 0, 76, 0
1, 73440, Note_on_c, 0, 55, 0
1, 73440, Note_on_c, 0, 59, 0
1, 73440, Note_on_c, 0, 79, 76
1, 73440, Note_on_c, 0, 55, 74
1, 73440, Note_on_c, 0, 59, 88
1, 73560, Note_on_c, 0, 79, 0
1, 73560, Note_on_c, 0, 83, 77
1, 73680, Note_on_c, 0, 83, 0
1, 73680, Note_on_c, 0, 59, 0
1, 73680, Note_on_c, 0, 55, 0
1, 73680, Note_on_c, 0, 88, 78
1, 73680, Note_on_c, 0, 55, 71
1, 73680, Note_on_c, 0, 59, 84
1, 73800, Tempo, 424028
1, 73800, Note_on_c, 0, 88, 0
1, 73800, Note_on_c, 0, 91, 79
1, 73920, Tempo, 388350
1, 73920, Note_on_c, 0, 91, 0
1, 73920, Note_on_c, 0, 59, 0
1, 73920, Note_on_c, 0, 55, 0
1, 73920, Note_on_c, 0, 95, 79
1, 73920, Note_on_c, 0, 43, 74
1, 73920, Note_on_c, 0, 52, 88
1, 73930, Control_c, 0, 64, 0
1, 73980, Tempo, 387097
1, 73991, Control_c, 0, 64, 127
1, 74040, Tempo, 385852
1, 74040, Note_on_c, 0, 95, 0
1, 74040, Note_on_c, 0, 91, 78
1, 74080, Tempo, 384615
1, 74140, Tempo, 383387
1, 74160, Note_on_c, 0, 91, 0
1, 74160, Note_on_c, 0, 88, 77
1, 74200, Tempo, 382166
1, 74240, Tempo, 380952
1, 74280, Note_on_c, 0, 88, 0
1, 74280, Note_on_c, 0, 83, 76
1, 74300, Tempo, 379747
1, 74360, Tempo, 378549
1, 74400, Tempo, 377358
1, 74400, Note_on_c, 0, 83, 0
1, 74400, Note_on_c, 0, 79, 75
1, 74460, Tempo, 378549
1, 74500, Tempo, 379747
1, 74520, Note_on_c, 0, 79, 0
1, 74520, Note_on_c, 0, 76, 74
1, 74540, Tempo, 380952
1, 74580, Tempo, 382166
1, 74620, Tempo, 383387
1, 74640, Note_on_c, 0, 76, 0
1, 74640, Note_on_c, 0, 71, 73
1, 74660, Tempo, 384615
1, 74700, Tempo, 385852
1, 74740, Tempo, 387097
1, 74760, Tempo, 547945
1, 74760, Note_on_c, 0, 71, 0
1, 74760, Note_on_c, 0, 67, 72
1, 74880, Tempo, 385852
1, 74880, Note_on_c, 0, 67, 0
1, 74880, Note_on_c, 0, 52, 0
1, 74880, Note_on_c, 0, 43, 0
1, 74880, Note_on_c, 0, 59, 88
1, 74880, Note_on_c, 0, 55, 74
1, 74885, Control_c, 0, 64, 0
1, 74937, Control_c, 0, 64, 127
1, 75000, Note_on_c, 0, 67, 74
1, 75120, Note_on_c, 0, 67, 0
1, 75120, Note_on_c, 0, 71, 75
1, 75240, Note_on_c, 0, 71, 0
1, 75240, Note_on_c, 0, 75, 75
1, 75360, Tempo, 377358
1, 75360, Note_on_c, 0, 75, 0
1, 75360, Note_on_c, 0, 55, 0
1, 75360, Note_on_c, 0, 59, 0
1, 75360, Note_on_c, 0, 79, 76
1, 75360, Note_on_c, 0, 55, 74
1, 75360, Note_on_c, 0, 59, 88
1, 75480, Note_on_c, 0, 79, 0
1, 75480, Note_on_c, 0, 83, 77
1, 75600, Note_on_c, 0, 83, 0
1, 75600, Note_on_c, 0, 59, 0
1, 75600, Note_on_c, 0, 55, 0
1, 75600, Note_on_c, 0, 87, 78
1, 75600, Note_on_c, 0, 55, 71
1, 75600, Note_on_c, 0, 59, 84
1, 75720, Tempo, 424028
1, 75720, Note_on_c, 0, 87, 0
1, 75720, Note_on_c, 0, 91, 79
1, 75840, Tempo, 387097
1, 75840, Note_on_c, 0, 91, 0
1, 75840, Note_on_c, 0, 59, 0
1, 75840, Note_on_c, 0, 55, 0
1, 75840, Note_on_c, 0, 95, 79
1, 75840, Note_on_c, 0, 43, 74
1, 75840, Note_on_c, 0, 51, 88
1, 75850, Control_c, 0, 64, 0
1, 75900, Tempo, 385852
1, 75911, Control_c, 0, 64, 127
1, 75960, Tempo, 384615
1, 75960, Note_on_c, 0, 95, 0
1, 75960, Note_on_c, 0, 91, 78
1, 76020, Tempo, 383387
1, 76080, Tempo, 382166
1, 76080, Note_on_c, 0, 91, 0
1, 76080, Note_on_c, 0, 87, 77
1, 76140, Tempo, 380952
1, 76200, Tempo, 379747
1, 76200, Note_on_c, 0, 87, 0
1, 76200, Note_on_c, 0, 83, 76
1, 76260, Tempo, 378549
1, 76320, Tempo, 377358
1, 76320, Note_on_c, 0, 83, 0
1, 76320, Note_on_c, 0, 79, 75
1, 76360, Tempo, 378549
1, 76400, Tempo, 379747
1, 76440, Tempo, 380952
1, 76440, Note_on_c, 0, 79, 0
1, 76440, Note_on_c, 0, 75, 74
1, 76480, Tempo, 382166
1, 76500, Tempo, 383387
1, 76540, Tempo, 384615
1, 76560, Note_on_c, 0, 75, 0
1, 76560, Note_on_c, 0, 71, 73
1, 76580, Tempo, 385852
1, 76620, Tempo, 387097
1, 76640, Tempo, 388350
1, 76660, Tempo, 390879
1, 76680, Tempo, 547945
1, 76680, Note_on_c, 0, 71, 0
1, 76680, Note_on_c, 0, 67, 72
1, 76800, Tempo, 389610
1, 76800, Note_on_c, 0, 67, 0
1, 76800, Note_on_c, 0, 51, 0
1, 76800, Note_on_c, 0, 43, 0
1, 76800, Note_on_c, 0, 59, 88
1, 76800, Note_on_c, 0, 55, 74
1, 76805, Control_c, 0, 64, 0
1, 76857, Control_c, 0, 64, 127
1, 76920, Note_on_c, 0, 67, 74
1, 77040, Note_on_c, 0, 67, 0
1, 77040, Note_on_c, 0, 71, 75
1, 77160, Note_on_c, 0, 71, 0
1, 77160, Note_on_c, 0, 76, 75
1, 77280, Tempo, 382166
1, 77280, Note_on_c, 0, 76, 0
1, 77280, Note_on_c, 0, 55, 0
1, 77280, Note_on_c, 0, 59, 0
1, 77280, Note_on_c, 0, 79, 76
1, 77280, Note_on_c, 0, 55, 74
1, 77280, Note_on_c, 0, 59, 88
1, 77400, Note_on_c, 0, 79, 0
1, 77400, Note_on_c, 0, 83, 77
1, 77520, Note_on_c, 0, 83, 0
1, 77520, Note_on_c, 0, 59, 0
1, 77520, Note_on_c, 0, 55, 0
1, 77520, Note_on_c, 0, 88, 78
1, 77520, Note_on_c, 0, 55, 71
1, 77520, Note_on_c, 0, 59, 84
1, 77640, Tempo, 424028
1, 77640, Note_on_c, 0, 88, 0
1, 77640, Note_on_c, 0, 91, 79
1, 77760, Tempo, 390879
1, 77760, Note_on_c, 0, 91, 0
1, 77760, Note_on_c, 0, 59, 0
1, 77760, Note_on_c, 0, 55, 0
1, 77760, Note_on_c, 0, 95, 79
1, 77760, Note_on_c, 0, 43, 74
1, 77760, Note_on_c, 0, 52, 88
1, 77770, Control_c, 0, 64, 0
1, 77831, Control_c, 0, 64, 127
1, 77840, Tempo, 389610
1, 77880, Note_on_c, 0, 95, 0
1, 77880, Note_on_c, 0, 91, 78
1, 77900, Tempo, 388350
1, 77980, Tempo, 387097
1, 78000, Note_on_c, 0, 91, 0
1, 78000, Note_on_c, 0, 88, 77
1, 78040, Tempo, 385852
1, 78120, Tempo, 384615
1, 78120, Note_on_c, 0, 88, 0
1, 78120, Note_on_c, 0, 83, 76
1, 78180, Tempo, 383387
1, 78240, Note_on_c, 0, 83, 0
1, 78240, Note_on_c, 0, 79, 75
1, 78260, Tempo, 384615
1, 78320, Tempo, 385852
1, 78360, Note_on_c, 0, 79, 0
1, 78360, Note_on_c, 0, 76, 74
1, 78380, Tempo, 387097
1, 78460, Tempo, 388350
1, 78480, Note_on_c, 0, 76, 0
1, 78480, Note_on_c, 0, 71, 73
1, 78520, Tempo, 389610
1, 78580, Tempo, 390879
1, 78600, Tempo, 547945
1, 78600, Note_on_c, 0, 71, 0
1, 78600, Note_on_c, 0, 67, 72
1, 78720, Tempo, 402685
1, 78720, Note_on_c, 0, 67, 0
1, 78720, Note_on_c, 0, 52, 0
1, 78720, Note_on_c, 0, 43, 0
1, 78720, Note_on_c, 0, 59, 92
1, 78720, Note_on_c, 0, 55, 77
1, 78725, Control_c, 0, 64, 0
1, 78777, Control_c, 0, 64, 127
1, 78840, Note_on_c, 0, 67, 77
1, 78960, Note_on_c, 0, 67, 0
1, 78960, Note_on_c, 0, 71, 78
1, 79080, Note_on_c, 0, 71, 0
1, 79080, Note_on_c, 0, 74, 78
1, 79200, Tempo, 393443
1, 79200, Note_on_c, 0, 74, 0
1, 79200, Note_on_c, 0, 55, 0
1, 79200, Note_on_c, 0, 59, 0
1, 79200, Note_on_c, 0, 77, 79
1, 79200, Note_on_c, 0, 55, 77
1, 79200, Note_on_c, 0, 59, 92
1, 79320, Note_on_c, 0, 77, 0
1, 79320, Note_on_c, 0, 83, 80
1, 79440, Note_on_c, 0, 83, 0
1, 79440, Note_on_c, 0, 59, 0
1, 79440, Note_on_c, 0, 55, 0
1, 79440, Note_on_c, 0, 86, 81
1, 79440, Note_on_c, 0, 55, 74
1, 79440, Note_on_c, 0, 59, 88
1, 79560, Tempo, 495868
1, 79560, Note_on_c, 0, 86, 0
1, 79560, Note_on_c, 0, 89, 82
1, 79680, Tempo, 398671
1, 79680, Note_on_c, 0, 89, 0
1, 79680, Note_on_c, 0, 59, 0
1, 79680, Note_on_c, 0, 55, 0
1, 79680, Note_on_c, 0, 95, 82
1, 79680, Note_on_c, 0, 43, 77
1, 79680, Note_on_c, 0, 53, 92
1, 79690, Control_c, 0, 64, 0
1, 79740, Tempo, 397351
1, 79751, Control_c, 0, 64, 127
1, 79800, Tempo, 396040
1, 79800, Note_on_c, 0, 95, 0
1, 79800, Note_on_c, 0, 89, 81
1, 79860, Tempo, 394737
1, 79920, Tempo, 393443
1, 79920, Note_on_c, 0, 89, 0
1, 79920, Note_on_c, 0, 86, 80
1, 79980, Tempo, 392157
1, 80040, Tempo, 390879
1, 80040, Note_on_c, 0, 86, 0
1, 80040, Note_on_c, 0, 83, 79
1, 80100, Tempo, 389610
1, 80160, Tempo, 388350
1, 80160, Note_on_c, 0, 83, 0
1, 80160, Note_on_c, 0, 77, 78
1, 80200, Tempo, 389610
1, 80220, Tempo, 390879
1, 80260, Tempo, 392157
1, 80280, Tempo, 393443
1, 80280, Note_on_c, 0, 77, 0
1, 80280, Note_on_c, 0, 74, 77
1, 80320, Tempo, 394737
1, 80340, Tempo, 396040
1, 80360, Tempo, 397351
1, 80400, Tempo, 398671
1, 80400, Note_on_c, 0, 74, 0
1, 80400, Note_on_c, 0, 71, 76
1, 80420, Tempo, 400000
1, 80460, Tempo, 401338
1, 80480, Tempo, 402685
1, 80500, Tempo, 404040
1, 80520, Tempo, 547945
1, 80520, Note_on_c, 0, 71, 0
1, 80520, Note_on_c, 0, 65, 75
1, 80610, Tempo, 430108
1, 80630, Tempo, 431655
1, 80640, Note_on_c, 0, 65, 0
1, 80640, Note_on_c, 0, 53, 0
1, 80640, Note_on_c, 0, 43, 0
1, 80640, Note_on_c, 0, 77, 80
1, 80640, Note_on_c, 0, 43, 71
1, 80640, Note_on_c, 0, 55, 84
1, 80650, Control_c, 0, 64, 0
1, 80709, Control_c, 0, 64, 127
1, 80710, Tempo, 430108
1, 80760, Note_on_c, 0, 77, 0
1, 80760, Note_on_c, 0, 83, 73
1, 80770, Tempo, 428571
1, 80850, Tempo, 427046
1, 80880, Note_on_c, 0, 83, 0
1, 80880, Note_on_c, 0, 86, 73
1, 80910, Tempo, 425532
1, 80990, Tempo, 424028
1, 81000, Note_on_c, 0, 86, 0
1, 81000, Note_on_c, 0, 89, 73
1, 81050, Tempo, 422535
1, 81110, Tempo, 421053
1, 81120, Note_on_c, 0, 89, 0
1, 81120, Note_on_c, 0, 55, 0
1, 81120, Note_on_c, 0, 43, 0
1, 81120, Note_on_c, 0, 78, 78
1, 81120, Note_on_c, 0, 42, 64
1, 81120, Note_on_c, 0, 54, 77
1, 81130, Control_c, 0, 64, 0
1, 81177, Control_c, 0, 64, 127
1, 81190, Tempo, 419580
1, 81240, Note_on_c, 0, 78, 0
1, 81240, Note_on_c, 0, 83, 74
1, 81250, Tempo, 418118
1, 81330, Tempo, 416667
1, 81360, Note_on_c, 0, 83, 0
1, 81360, Note_on_c, 0, 86, 74
1, 81390, Tempo, 415225
1, 81470, Tempo, 413793
1, 81480, Note_on_c, 0, 86, 0
1, 81480, Note_on_c, 0, 90, 75
1, 81530, Tempo, 412371
1, 81590, Tempo, 410959
1, 81600, Note_on_c, 0, 90, 0
1, 81600, Note_on_c, 0, 54, 0
1, 81600, Note_on_c, 0, 42, 0
1, 81600, Note_on_c, 0, 80, 85
1, 81600, Note_on_c, 0, 41, 77
1, 81600, Note_on_c, 0, 53, 90
1, 81610, Control_c, 0, 64, 0
1, 81657, Control_c, 0, 64, 127
1, 81720, Note_on_c, 0, 80, 0
1, 81720, Note_on_c, 0, 83, 78
1, 81840, Note_on_c, 0, 83, 0
1, 81840, Note_on_c, 0, 86, 79
1, 81960, Note_on_c, 0, 86, 0
1, 81960, Note_on_c, 0, 92, 79
1, 82030, Tempo, 409556
1, 82070, Tempo, 410959
1, 82080, Note_on_c, 0, 92, 0
1, 82080, Note_on_c, 0, 53, 0
1, 82080, Note_on_c, 0, 41, 0
1, 82080, Note_on_c, 0, 82, 91
1, 82080, Note_on_c, 0, 42, 72
1, 82080, Note_on_c, 0, 54, 86
1, 82090, Tempo, 412371
1, 82090, Control_c, 0, 64, 0
1, 82110, Tempo, 413793
1, 82130, Tempo, 415225
1, 82150, Tempo, 416667
1, 82166, Control_c, 0, 64, 127
1, 82190, Tempo, 418118
1, 82200, Note_on_c, 0, 82, 0
1, 82200, Note_on_c, 0, 85, 81
1, 82210, Tempo, 419580
1, 82230, Tempo, 421053
1, 82250, Tempo, 422535
1, 82270, Tempo, 424028
1, 82310, Tempo, 425532
1, 82320, Note_on_c, 0, 85, 0
1, 82320, Note_on_c, 0, 88, 81
1, 82330, Tempo, 427046
1, 82350, Tempo, 428571
1, 82370, Tempo, 430108
1, 82390, Tempo, 431655
1, 82400, Tempo, 418118
1, 82420, Tempo, 419580
1, 82440, Tempo, 530973
1, 82440, Note_on_c, 0, 88, 0
1, 82440, Note_on_c, 0, 94, 81
1, 82560, Tempo, 415225
1, 82560, Note_on_c, 0, 94, 0
1, 82560, Note_on_c, 0, 54, 0
1, 82560, Note_on_c, 0, 42, 0
1, 82560, Note_on_c, 0, 74, 77
1, 82560, Note_on_c, 0, 78, 77
1, 82560, Note_on_c, 0, 83, 77
1, 82560, Note_on_c, 0, 86, 92
1, 82560, Note_on_c, 0, 47, 78
1, 82589, Control_c, 0, 64, 0
1, 82623, Control_c, 0, 64, 127
1, 82680, Note_on_c, 0, 47, 0
1, 82680, Note_on_c, 0, 59, 68
1, 82800, Note_on_c, 0, 59, 0
1, 82800, Note_on_c, 0, 62, 69
1, 82920, Note_on_c, 0, 62, 0
1, 82920, Note_on_c, 0, 59, 69
1, 83040, Tempo, 404040
1, 83040, Note_on_c, 0, 59, 0
1, 83040, Note_on_c, 0, 86, 0
1, 83040, Note_on_c, 0, 74, 0
1, 83040, Note_on_c, 0, 78, 0
1, 83040, Note_on_c, 0, 83, 0
1, 83040, Note_on_c, 0, 74, 77
1, 83040, Note_on_c, 0, 78, 77
1, 83040, Note_on_c, 0, 83, 77
1, 83040, Note_on_c, 0, 86, 92
1, 83040, Note_on_c, 0, 54, 79
1, 83160, Note_on_c, 0, 54, 0
1, 83160, Note_on_c, 0, 59, 71
1, 83280, Note_on_c, 0, 59, 0
1, 83280, Note_on_c, 0, 86, 0
1, 83280, Note_on_c, 0, 74, 0
1, 83280, Note_on_c, 0, 78, 0
1, 83280, Note_on_c, 0, 83, 0
1, 83280, Note_on_c, 0, 74, 74
1, 83280, Note_on_c, 0, 78, 74
1, 83280, Note_on_c, 0, 83, 74
1, 83280, Note_on_c, 0, 86, 88
1, 83280, Note_on_c, 0, 50, 75
1, 83400, Tempo, 444444
1, 83400, Note_on_c, 0, 50, 0
1, 83400, Note_on_c, 0, 54, 71
1, 83520, Tempo, 415225
1, 83520, Note_on_c, 0, 54, 0
1, 83520, Note_on_c, 0, 86, 0
1, 83520, Note_on_c, 0, 74, 0
1, 83520, Note_on_c, 0, 78, 0
1, 83520, Note_on_c, 0, 83, 0
1, 83520, Note_on_c, 0, 78, 77
1, 83520, Note_on_c, 0, 82, 77
1, 83520, Note_on_c, 0, 85, 77
1, 83520, Note_on_c, 0, 90, 92
1, 83520, Note_on_c, 0, 42, 78
1, 83525, Control_c, 0, 64, 0
1, 83594, Control_c, 0, 64, 127
1, 83640, Note_on_c, 0, 42, 0
1, 83640, Note_on_c, 0, 54, 68
1, 83760, Note_on_c, 0, 54, 0
1, 83760, Note_on_c, 0, 58, 73
1, 83880, Note_on_c, 0, 58, 0
1, 83880, Note_on_c, 0, 54, 67
1, 84000, Note_on_c, 0, 54, 0
1, 84000, Note_on_c, 0, 49, 74
1, 84120, Note_on_c, 0, 49, 0
1, 84120, Note_on_c, 0, 54, 65
1, 84240, Note_on_c, 0, 54, 0
1, 84240, Note_on_c, 0, 46, 71
1, 84360, Note_on_c, 0, 46, 0
1, 84360, Note_on_c, 0, 49, 65
1, 84480, Tempo, 415225
1, 84480, Note_on_c, 0, 49, 0
1, 84480, Note_on_c, 0, 90, 0
1, 84480, Note_on_c, 0, 78, 0
1, 84480, Note_on_c, 0, 82, 0
1, 84480, Note_on_c, 0, 85, 0
1, 84480, Note_on_c, 0, 73, 77
1, 84480, Note_on_c, 0, 76, 77
1, 84480, Note_on_c, 0, 81, 77
1, 84480, Note_on_c, 0, 85, 92
1, 84480, Note_on_c, 0, 45, 78
1, 84486, Control_c, 0, 64, 0
1, 84554, Control_c, 0, 64, 127
1, 84600, Note_on_c, 0, 45, 0
1, 84600, Note_on_c, 0, 57, 68
1, 84720, Note_on_c, 0, 57, 0
1, 84720, Note_on_c, 0, 61, 69
1, 84840, Note_on_c, 0, 61, 0
1, 84840, Note_on_c, 0, 57, 69
1, 84960, Tempo, 404040
1, 84960, Note_on_c, 0, 57, 0
1, 84960, Note_on_c, 0, 85, 0
1, 84960, Note_on_c, 0, 73, 0
1, 84960, Note_on_c, 0, 76, 0
1, 84960, Note_on_c, 0, 81, 0
1, 84960, Note_on_c, 0, 73, 77
1, 84960, Note_on_c, 0, 76, 77
1, 84960, Note_on_c, 0, 81, 77
1, 84960, Note_on_c, 0, 85, 92
1, 84960, Note_on_c, 0, 52, 79
1, 85080, Note_on_c, 0, 52, 0
1, 85080, Note_on_c, 0, 57, 71
1, 85200, Note_on_c, 0, 57, 0
1, 85200, Note_on_c, 0, 85, 0
1, 85200, Note_on_c, 0, 73, 0
1, 85200, Note_on_c, 0, 76, 0
1, 85200, Note_on_c, 0, 81, 0
1, 85200, Note_on_c, 0, 73, 74
1, 85200, Note_on_c, 0, 76, 74
1, 85200, Note_on_c, 0, 81, 74
1, 85200, Note_on_c, 0, 85, 88
1, 85200, Note_on_c, 0, 49, 75
1, 85320, Tempo, 444444
1, 85320, Note_on_c, 0, 49, 0
1, 85320, Note_on_c, 0, 52, 71
1, 85440, Tempo, 415225
1, 85440, Note_on_c, 0, 52, 0
1, 85440, Note_on_c, 0, 85, 0
1, 85440, Note_on_c, 0, 73, 0
1, 85440, Note_on_c, 0, 76, 0
1, 85440, Note_on_c, 0, 81, 0
1, 85440, Note_on_c, 0, 76, 77
1, 85440, Note_on_c, 0, 80, 77
1, 85440, Note_on_c, 0, 83, 77
1, 85440, Note_on_c, 0, 88, 92
1, 85440, Note_on_c, 0, 40, 78
1, 85445, Control_c, 0, 64, 0
1, 85543, Control_c, 0, 64, 127
1, 85560, Note_on_c, 0, 40, 0
1, 85560, Note_on_c, 0, 52, 68
1, 85680, Note_on_c, 0, 52, 0
1, 85680, Note_on_c, 0, 56, 73
1, 85800, Note_on_c, 0, 56, 0
1, 85800, Note_on_c, 0, 52, 67
1, 85920, Note_on_c, 0, 52, 0
1, 85920, Note_on_c, 0, 47, 74
1, 86040, Note_on_c, 0, 47, 0
1, 86040, Note_on_c, 0, 52, 65
1, 86160, Note_on_c, 0, 52, 0
1, 86160, Note_on_c, 0, 44, 71
1, 86280, Note_on_c, 0, 44, 0
1, 86280, Note_on_c, 0, 47, 65
1, 86400, Tempo, 415225
1, 86400, Note_on_c, 0, 47, 0
1, 86400, Note_on_c, 0, 88, 0
1, 86400, Note_on_c, 0, 76, 0
1, 86400, Note_on_c, 0, 80, 0
1, 86400, Note_on_c, 0, 83, 0
1, 86400, Note_on_c, 0, 71, 70
1, 86400, Note_on_c, 0, 74, 70
1, 86400, Note_on_c, 0, 79, 70
1, 86400, Note_on_c, 0, 83, 83
1, 86400, Note_on_c, 0, 43, 71
1, 86409, Control_c, 0, 64, 0
1, 86485, Control_c, 0, 64, 127
1, 86520, Note_on_c, 0, 43, 0
1, 86520, Note_on_c, 0, 55, 61
1, 86640, Note_on_c, 0, 55, 0
1, 86640, Note_on_c, 0, 59, 62
1, 86760, Note_on_c, 0, 59, 0
1, 86760, Note_on_c, 0, 55, 62
1, 86880, Tempo, 410959
1, 86880, Note_on_c, 0, 55, 0
1, 86880, Note_on_c, 0, 83, 0
1, 86880, Note_on_c, 0, 71, 0
1, 86880, Note_on_c, 0, 74, 0
1, 86880, Note_on_c, 0, 79, 0
1, 86880, Note_on_c, 0, 71, 69
1, 86880, Note_on_c, 0, 74, 69
1, 86880, Note_on_c, 0, 79, 69
1, 86880, Note_on_c, 0, 83, 82
1, 86880, Note_on_c, 0, 50, 71
1, 87000, Note_on_c, 0, 50, 0
1, 87000, Note_on_c, 0, 55, 63
1, 87120, Note_on_c, 0, 55, 0
1, 87120, Note_on_c, 0, 83, 0
1, 87120, Note_on_c, 0, 71, 0
1, 87120, Note_on_c, 0, 74, 0
1, 87120, Note_on_c, 0, 79, 0
1, 87120, Note_on_c, 0, 71, 66
1, 87120, Note_on_c, 0, 74, 66
1, 87120, Note_on_c, 0, 79, 66
1, 87120, Note_on_c, 0, 83, 78
1, 87120, Note_on_c, 0, 47, 66
1, 87240, Tempo, 444444
1, 87240, Note_on_c, 0, 47, 0
1, 87240, Note_on_c, 0, 50, 62
1, 87360, Tempo, 415225
1, 87360, Note_on_c, 0, 50, 0
1, 87360, Note_on_c, 0, 83, 0
1, 87360, Note_on_c, 0, 71, 0
1, 87360, Note_on_c, 0, 74, 0
1, 87360, Note_on_c, 0, 79, 0
1, 87360, Note_on_c, 0, 74, 68
1, 87360, Note_on_c, 0, 78, 68
1, 87360, Note_on_c, 0, 81, 68
1, 87360, Note_on_c, 0, 86, 80
1, 87360, Note_on_c, 0, 38, 69
1, 87370, Control_c, 0, 64, 0
1, 87457, Control_c, 0, 64, 127
1, 87480, Note_on_c, 0, 38, 0
1, 87480, Note_on_c, 0, 50, 59
1, 87600, Note_on_c, 0, 50, 0
1, 87600, Note_on_c, 0, 54, 58
1, 87720, Note_on_c, 0, 54, 0
1, 87720, Note_on_c, 0, 57, 57
1, 87840, Tempo, 421053
1, 87840, Note_on_c, 0, 57, 0
1, 87840, Note_on_c, 0, 86, 0
1, 87840, Note_on_c, 0, 74, 0
1, 87840, Note_on_c, 0, 78, 0
1, 87840, Note_on_c, 0, 81, 0
1, 87840, Note_on_c, 0, 71, 63
1, 87840, Note_on_c, 0, 74, 63
1, 87840, Note_on_c, 0, 79, 63
1, 87840, Note_on_c, 0, 83, 76
1, 87840, Note_on_c, 0, 43, 63
1, 87849, Control_c, 0, 64, 0
1, 87932, Control_c, 0, 64, 127
1, 87960, Note_on_c, 0, 43, 0
1, 87960, Note_on_c, 0, 47, 55
1, 88080, Note_on_c, 0, 47, 0
1, 88080, Note_on_c, 0, 55, 55
1, 88200, Note_on_c, 0, 55, 0
1, 88200, Note_on_c, 0, 59, 54
1, 88320, Tempo, 415225
1, 88320, Note_on_c, 0, 59, 0
1, 88320, Note_on_c, 0, 83, 0
1, 88320, Note_on_c, 0, 71, 0
1, 88320, Note_on_c, 0, 74, 0
1, 88320, Note_on_c, 0, 79, 0
1, 88320, Note_on_c, 0, 69, 65
1, 88320, Note_on_c, 0, 74, 65
1, 88320, Note_on_c, 0, 79, 65
1, 88320, Note_on_c, 0, 81, 77
1, 88320, Note_on_c, 0, 38, 66
1, 88330, Control_c, 0, 64, 0
1, 88364, Control_c, 0, 64, 127
1, 88440, Note_on_c, 0, 38, 0
1, 88440, Note_on_c, 0, 50, 57
1, 88560, Note_on_c, 0, 50, 0
1, 88560, Note_on_c, 0, 55, 57
1, 88680, Note_on_c, 0, 55, 0
1, 88680, Note_on_c, 0, 57, 57
1, 88800, Tempo, 422535
1, 88800, Note_on_c, 0, 57, 0
1, 88800, Note_on_c, 0, 81, 0
1, 88800, Note_on_c, 0, 69, 0
1, 88800, Note_on_c, 0, 74, 0
1, 88800, Note_on_c, 0, 79, 0
1, 88800, Note_on_c, 0, 69, 63
1, 88800, Note_on_c, 0, 74, 63
1, 88800, Note_on_c, 0, 78, 63
1, 88800, Note_on_c, 0, 81, 75
1, 88800, Note_on_c, 0, 38, 65
1, 88812, Control_c, 0, 64, 0
1, 88869, Control_c, 0, 64, 127
1, 88920, Note_on_c, 0, 38, 0
1, 88920, Note_on_c, 0, 50, 58
1, 89040, Note_on_c, 0, 50, 0
1, 89040, Note_on_c, 0, 54, 61
1, 89160, Note_on_c, 0, 54, 0
1, 89160, Note_on_c, 0, 57, 57
1, 89280, Tempo, 415225
1, 89280, Note_on_c, 0, 57, 0
1, 89280, Note_on_c, 0, 81, 0
1, 89280, Note_on_c, 0, 69, 0
1, 89280, Note_on_c, 0, 74, 0
1, 89280, Note_on_c, 0, 78, 0
1, 89280, Note_on_c, 0, 71, 62
1, 89280, Note_on_c, 0, 74, 62
1, 89280, Note_on_c, 0, 79, 62
1, 89280, Note_on_c, 0, 83, 73
1, 89280, Note_on_c, 0, 31, 63
1, 89290, Control_c, 0, 64, 0
1, 89348, Control_c, 0, 64, 127
1, 89400, Note_on_c, 0, 31, 0
1, 89400, Note_on_c, 0, 43, 54
1, 89520, Note_on_c, 0, 43, 0
1, 89520, Note_on_c, 0, 47, 53
1, 89640, Note_on_c, 0, 47, 0
1, 89640, Note_on_c, 0, 50, 53
1, 89760, Note_on_c, 0, 50, 0
1, 89760, Note_on_c, 0, 55, 58
1, 89880, Note_on_c, 0, 55, 0
1, 89880, Note_on_c, 0, 50, 50
1, 90000, Note_on_c, 0, 50, 0
1, 90000, Note_on_c, 0, 47, 50
1, 90120, Note_on_c, 0, 47, 0
1, 90120, Note_on_c, 0, 43, 50
1, 90240, Tempo, 415225
1, 90240, Note_on_c, 0, 43, 0
1, 90240, Note_on_c, 0, 83, 0
1, 90240, Note_on_c, 0, 71, 0
1, 90240, Note_on_c, 0, 74, 0
1, 90240, Note_on_c, 0, 79, 0
1, 90240, Note_on_c, 0, 71, 62
1, 90240, Note_on_c, 0, 74, 62
1, 90240, Note_on_c, 0, 79, 62
1, 90240, Note_on_c, 0, 83, 74
1, 90240, Note_on_c, 0, 31, 63
1, 90245, Control_c, 0, 64, 0
1, 90332, Control_c, 0, 64, 127
1, 90360, Note_on_c, 0, 31, 0
1, 90360, Note_on_c, 0, 55, 55
1, 90480, Note_on_c, 0, 55, 0
1, 90480, Note_on_c, 0, 59, 56
1, 90600, Note_on_c, 0, 59, 0
1, 90600, Note_on_c, 0, 55, 56
1, 90720, Tempo, 404040
1, 90720, Note_on_c, 0, 55, 0
1, 90720, Note_on_c, 0, 83, 0
1, 90720, Note_on_c, 0, 71, 0
1, 90720, Note_on_c, 0, 74, 0
1, 90720, Note_on_c, 0, 79, 0
1, 90720, Note_on_c, 0, 71, 62
1, 90720, Note_on_c, 0, 74, 62
1, 90720, Note_on_c, 0, 79, 62
1, 90720, Note_on_c, 0, 83, 74
1, 90720, Note_on_c, 0, 50, 64
1, 90840, Note_on_c, 0, 50, 0
1, 90840, Note_on_c, 0, 55, 57
1, 90960, Note_on_c, 0, 55, 0
1, 90960, Note_on_c, 0, 83, 0
1, 90960, Note_on_c, 0, 71, 0
1, 90960, Note_on_c, 0, 74, 0
1, 90960, Note_on_c, 0, 79, 0
1, 90960, Note_on_c, 0, 71, 60
1, 90960, Note_on_c, 0, 74, 60
1, 90960, Note_on_c, 0, 79, 60
1, 90960, Note_on_c, 0, 83, 71
1, 90960, Note_on_c, 0, 47, 61
1, 91080, Tempo, 444444
1, 91080, Note_on_c, 0, 47, 0
1, 91080, Note_on_c, 0, 50, 57
1, 91200, Tempo, 415225
1, 91200, Note_on_c, 0, 50, 0
1, 91200, Note_on_c, 0, 83, 0
1, 91200, Note_on_c, 0, 71, 0
1, 91200, Note_on_c, 0, 74, 0
1, 91200, Note_on_c, 0, 79, 0
1, 91200, Note_on_c, 0, 74, 62
1, 91200, Note_on_c, 0, 78, 62
1, 91200, Note_on_c, 0, 81, 62
1, 91200, Note_on_c, 0, 86, 74
1, 91200, Note_on_c, 0, 38, 63
1, 91212, Control_c, 0, 64, 0
1, 91303, Control_c, 0, 64, 127
1, 91320, Note_on_c, 0, 38, 0
1, 91320, Note_on_c, 0, 50, 55
1, 91440, Note_on_c, 0, 50, 0
1, 91440, Note_on_c, 0, 54, 59
1, 91560, Note_on_c, 0, 54, 0
1, 91560, Note_on_c, 0, 50, 54
1, 91680, Note_on_c, 0, 50, 0
1, 91680, Note_on_c, 0, 45, 60
1, 91800, Note_on_c, 0, 45, 0
1, 91800, Note_on_c, 0, 50, 52
1, 91920, Note_on_c, 0, 50, 0
1, 91920, Note_on_c, 0, 42, 57
1, 92040, Note_on_c, 0, 42, 0
1, 92040, Note_on_c, 0, 45, 52
1, 92160, Tempo, 415225
1, 92160, Note_on_c, 0, 45, 0
1, 92160, Note_on_c, 0, 86, 0
1, 92160, Note_on_c, 0, 74, 0
1, 92160, Note_on_c, 0, 78, 0
1, 92160, Note_on_c, 0, 81, 0
1, 92160, Note_on_c, 0, 69, 62
1, 92160, Note_on_c, 0, 72, 62
1, 92160, Note_on_c, 0, 77, 62
1, 92160, Note_on_c, 0, 81, 74
1, 92160, Note_on_c, 0, 41, 63
1, 92164, Control_c, 0, 64, 0
1, 92273, Control_c, 0, 64, 127
1, 92280, Note_on_c, 0, 41, 0
1, 92280, Note_on_c, 0, 53, 55
1, 92400, Note_on_c, 0, 53, 0
1, 92400, Note_on_c, 0, 57, 56
1, 92520, Note_on_c, 0, 57, 0
1, 92520, Note_on_c, 0, 53, 56
1, 92640, Tempo, 404040
1, 92640, Note_on_c, 0, 53, 0
1, 92640, Note_on_c, 0, 81, 0
1, 92640, Note_on_c, 0, 69, 0
1, 92640, Note_on_c, 0, 72, 0
1, 92640, Note_on_c, 0, 77, 0
1, 92640, Note_on_c, 0, 69, 62
1, 92640, Note_on_c, 0, 72, 62
1, 92640, Note_on_c, 0, 77, 62
1, 92640, Note_on_c, 0, 81, 74
1, 92640, Note_on_c, 0, 48, 64
1, 92760, Note_on_c, 0, 48, 0
1, 92760, Note_on_c, 0, 53, 57
1, 92880, Note_on_c, 0, 53, 0
1, 92880, Note_on_c, 0, 81, 0
1, 92880, Note_on_c, 0, 69, 0
1, 92880, Note_on_c, 0, 72, 0
1, 92880, Note_on_c, 0, 77, 0
1, 92880, Note_on_c, 0, 69, 60
1, 92880, Note_on_c, 0, 72, 60
1, 92880, Note_on_c, 0, 77, 60
1, 92880, Note_on_c, 0, 81, 71
1, 92880, Note_on_c, 0, 45, 61
1, 93000, Tempo, 444444
1, 93000, Note_on_c, 0, 45, 0
1, 93000, Note_on_c, 0, 48, 57
1, 93120, Tempo, 415225
1, 93120, Note_on_c, 0, 48, 0
1, 93120, Note_on_c, 0, 81, 0
1, 93120, Note_on_c, 0, 69, 0
1, 93120, Note_on_c, 0, 72, 0
1, 93120, Note_on_c, 0, 77, 0
1, 93120, Note_on_c, 0, 72, 62
1, 93120, Note_on_c, 0, 76, 62
1, 93120, Note_on_c, 0, 79, 62
1, 93120, Note_on_c, 0, 84, 74
1, 93120, Note_on_c, 0, 36, 63
1, 93131, Control_c, 0, 64, 0
1, 93219, Control_c, 0, 64, 127
1, 93240, Note_on_c, 0, 36, 0
1, 93240, Note_on_c, 0, 48, 55
1, 93360, Note_on_c, 0, 48, 0
1, 93360, Note_on_c, 0, 52, 59
1, 93480, Note_on_c, 0, 52, 0
1, 93480, Note_on_c, 0, 48, 54
1, 93600, Note_on_c, 0, 48, 0
1, 93600, Note_on_c, 0, 43, 60
1, 93720, Note_on_c, 0, 43, 0
1, 93720, Note_on_c, 0, 48, 52
1, 93840, Note_on_c, 0, 48, 0
1, 93840, Note_on_c, 0, 40, 57
1, 93960, Note_on_c, 0, 40, 0
1, 93960, Note_on_c, 0, 43, 52
1, 94080, Tempo, 415225
1, 94080, Note_on_c, 0, 43, 0
1, 94080, Note_on_c, 0, 84, 0
1, 94080, Note_on_c, 0, 72, 0
1, 94080, Note_on_c, 0, 76, 0
1, 94080, Note_on_c, 0, 79, 0
1, 94080, Note_on_c, 0, 67, 59
1, 94080, Note_on_c, 0, 71, 59
1, 94080, Note_on_c, 0, 76, 59
1, 94080, Note_on_c, 0, 79, 70
1, 94080, Note_on_c, 0, 40, 60
1, 94085, Control_c, 0, 64, 0
1, 94155, Control_c, 0, 64, 127
1, 94200, Note_on_c, 0, 40, 0
1, 94200, Note_on_c, 0, 52, 51
1, 94320, Note_on_c, 0, 52, 0
1, 94320, Note_on_c, 0, 55, 52
1, 94440, Note_on_c, 0, 55, 0
1, 94440, Note_on_c, 0, 52, 52
1, 94560, Tempo, 412371
1, 94560, Note_on_c, 0, 52, 0
1, 94560, Note_on_c, 0, 79, 0
1, 94560, Note_on_c, 0, 67, 0
1, 94560, Note_on_c, 0, 71, 0
1, 94560, Note_on_c, 0, 76, 0
1, 94560, Note_on_c, 0, 67, 58
1, 94560, Note_on_c, 0, 71, 58
1, 94560, Note_on_c, 0, 76, 58
1, 94560, Note_on_c, 0, 79, 69
1, 94560, Note_on_c, 0, 47, 60
1, 94680, Note_on_c, 0, 47, 0
1, 94680, Note_on_c, 0, 52, 53
1, 94800, Note_on_c, 0, 52, 0
1, 94800, Note_on_c, 0, 79, 0
1, 94800, Note_on_c, 0, 67, 0
1, 94800, Note_on_c, 0, 71, 0
1, 94800, Note_on_c, 0, 76, 0
1, 94800, Note_on_c, 0, 67, 56
1, 94800, Note_on_c, 0, 71, 56
1, 94800, Note_on_c, 0, 76, 56
1, 94800, Note_on_c, 0, 79, 66
1, 94800, Note_on_c, 0, 43, 56
1, 94920, Tempo, 444444
1, 94920, Note_on_c, 0, 43, 0
1, 94920, Note_on_c, 0, 47, 52
1, 95040, Tempo, 422535
1, 95040, Note_on_c, 0, 47, 0
1, 95040, Note_on_c, 0, 79, 0
1, 95040, Note_on_c, 0, 67, 0
1, 95040, Note_on_c, 0, 71, 0
1, 95040, Note_on_c, 0, 76, 0
1, 95040, Note_on_c, 0, 71, 57
1, 95040, Note_on_c, 0, 75, 57
1, 95040, Note_on_c, 0, 78, 57
1, 95040, Note_on_c, 0, 83, 68
1, 95040, Note_on_c, 0, 35, 58
1, 95047, Control_c, 0, 64, 0
1, 95137, Control_c, 0, 64, 127
1, 95160, Note_on_c, 0, 35, 0
1, 95160, Note_on_c, 0, 47, 50
1, 95280, Note_on_c, 0, 47, 0
1, 95280, Note_on_c, 0, 51, 49
1, 95400, Note_on_c, 0, 51, 0
1, 95400, Note_on_c, 0, 54, 48
1, 95520, Note_on_c, 0, 54, 0
1, 95520, Note_on_c, 0, 83, 0
1, 95520, Note_on_c, 0, 71, 0
1, 95520, Note_on_c, 0, 75, 0
1, 95520, Note_on_c, 0, 78, 0
1, 95520, Note_on_c, 0, 67, 53
1, 95520, Note_on_c, 0, 71, 53
1, 95520, Note_on_c, 0, 76, 53
1, 95520, Note_on_c, 0, 79, 64
1, 95520, Note_on_c, 0, 40, 53
1, 95531, Control_c, 0, 64, 0
1, 95606, Control_c, 0, 64, 127
1, 95640, Note_on_c, 0, 40, 0
1, 95640, Note_on_c, 0, 47, 46
1, 95760, Note_on_c, 0, 47, 0
1, 95760, Note_on_c, 0, 52, 46
1, 95880, Note_on_c, 0, 52, 0
1, 95880, Note_on_c, 0, 55, 45
1, 96000, Tempo, 424028
1, 96000, Note_on_c, 0, 55, 0
1, 96000, Note_on_c, 0, 79, 0
1, 96000, Note_on_c, 0, 67, 0
1, 96000, Note_on_c, 0, 71, 0
1, 96000, Note_on_c, 0, 76, 0
1, 96000, Note_on_c, 0, 66, 55
1, 96000, Note_on_c, 0, 71, 55
1, 96000, Note_on_c, 0, 76, 55
1, 96000, Note_on_c, 0, 78, 65
1, 96000, Note_on_c, 0, 35, 56
1, 96010, Control_c, 0, 64, 0
1, 96092, Control_c, 0, 64, 127
1, 96120, Note_on_c, 0, 35, 0
1, 96120, Note_on_c, 0, 47, 48
1, 96240, Note_on_c, 0, 47, 0
1, 96240, Note_on_c, 0, 52, 48
1, 96360, Note_on_c, 0, 52, 0
1, 96360, Note_on_c, 0, 54, 48
1, 96480, Note_on_c, 0, 54, 0
1, 96480, Note_on_c, 0, 78, 0
1, 96480, Note_on_c, 0, 66, 0
1, 96480, Note_on_c, 0, 71, 0
1, 96480, Note_on_c, 0, 76, 0
1, 96480, Note_on_c, 0, 66, 53
1, 96480, Note_on_c, 0, 71, 53
1, 96480, Note_on_c, 0, 75, 53
1, 96480, Note_on_c, 0, 78, 63
1, 96480, Note_on_c, 0, 35, 55
1, 96490, Control_c, 0, 64, 0
1, 96572, Control_c, 0, 64, 127
1, 96600, Note_on_c, 0, 35, 0
1, 96600, Note_on_c, 0, 47, 49
1, 96720, Note_on_c, 0, 47, 0
1, 96720, Note_on_c, 0, 51, 51
1, 96840, Note_on_c, 0, 51, 0
1, 96840, Note_on_c, 0, 54, 48
1, 96960, Tempo, 415225
1, 96960, Note_on_c, 0, 54, 0
1, 96960, Note_on_c, 0, 78, 0
1, 96960, Note_on_c, 0, 66, 0
1, 96960, Note_on_c, 0, 71, 0
1, 96960, Note_on_c, 0, 75, 0
1, 96960, Note_on_c, 0, 67, 52
1, 96960, Note_on_c, 0, 71, 52
1, 96960, Note_on_c, 0, 76, 52
1, 96960, Note_on_c, 0, 79, 62
1, 96960, Note_on_c, 0, 40, 53
1, 96970, Control_c, 0, 64, 0
1, 97080, Note_on_c, 0, 40, 0
1, 97080, Control_c, 0, 64, 127
1, 97080, Note_on_c, 0, 52, 45
1, 97200, Note_on_c, 0, 52, 0
1, 97200, Note_on_c, 0, 55, 45
1, 97320, Note_on_c, 0, 55, 0
1, 97320, Note_on_c, 0, 59, 45
1, 97440, Note_on_c, 0, 59, 0
1, 97440, Note_on_c, 0, 64, 49
1, 97560, Note_on_c, 0, 64, 0
1, 97560, Note_on_c, 0, 59, 42
1, 97680, Note_on_c, 0, 59, 0
1, 97680, Note_on_c, 0, 55, 42
1, 97800, Note_on_c, 0, 55, 0
1, 97800, Note_on_c, 0, 52, 42
1, 97920, Tempo, 420521
1, 97920, Note_on_c, 0, 52, 0
1, 97920, Note_on_c, 0, 79, 0
1, 97920, Note_on_c, 0, 67, 0
1, 97920, Note_on_c, 0, 71, 0
1, 97920, Note_on_c, 0, 76, 0
1, 97920, Note_on_c, 0, 68, 54
1, 97920, Note_on_c, 0, 80, 64
1, 97920, Control_c, 0, 64, 0
1, 97920, Note_on_c, 0, 60, 49
1, 97920, Note_on_c, 0, 64, 59
1, 98010, Note_on_c, 0, 64, 0
1, 98010, Note_on_c, 0, 68, 0
1, 98010, Note_on_c, 0, 80, 0
1, 98010, Note_on_c, 0, 60, 0
1, 98160, Tempo, 408803
1, 98160, Note_on_c, 0, 59, 48
1, 98160, Note_on_c, 0, 62, 56
1, 98250, Note_on_c, 0, 62, 0
1, 98250, Note_on_c, 0, 59, 0
1, 98400, Tempo, 403172
1, 98400, Note_on_c, 0, 69, 57
1, 98400, Note_on_c, 0, 81, 68
1, 98400, Note_on_c, 0, 57, 48
1, 98400, Note_on_c, 0, 60, 56
1, 98490, Note_on_c, 0, 60, 0
1, 98490, Note_on_c, 0, 57, 0
1, 98640, Note_on_c, 0, 52, 48
1, 98640, Note_on_c, 0, 59, 56
1, 98730, Note_on_c, 0, 59, 0
1, 98730, Note_on_c, 0, 52, 0
1, 98880, Note_on_c, 0, 48, 51
1, 98880, Note_on_c, 0, 57, 60
1, 99120, Tempo, 396380
1, 99120, Note_on_c, 0, 81, 0
1, 99120, Note_on_c, 0, 69, 0
1, 99120, Note_on_c, 0, 71, 52
1, 99120, Note_on_c, 0, 83, 61
1, 99210, Note_on_c, 0, 83, 0
1, 99210, Note_on_c, 0, 71, 0
1, 99360, Note_on_c, 0, 72, 51
1, 99360, Note_on_c, 0, 84, 60
1, 99450, Note_on_c, 0, 84, 0
1, 99450, Note_on_c, 0, 72, 0
1, 99600, Note_on_c, 0, 48, 0
1, 99600, Note_on_c, 0, 57, 0
1, 99600, Note_on_c, 0, 71, 52
1, 99600, Note_on_c, 0, 83, 61
1, 99600, Note_on_c, 0, 55, 48
1, 99600, Note_on_c, 0, 65, 57
1, 99690, Note_on_c, 0, 65, 0
1, 99690, Note_on_c, 0, 71, 0
1, 99690, Note_on_c, 0, 83, 0
1, 99690, Note_on_c, 0, 55, 0
1, 99840, Tempo, 428204
1, 99840, Note_on_c, 0, 70, 54
1, 99840, Note_on_c, 0, 82, 64
1, 99840, Note_on_c, 0, 54, 49
1, 99840, Note_on_c, 0, 66, 59
1, 99930, Note_on_c, 0, 66, 0
1, 99930, Note_on_c, 0, 70, 0
1, 99930, Note_on_c, 0, 82, 0
1, 99930, Note_on_c, 0, 54, 0
1, 100080, Tempo, 410228
1, 100080, Note_on_c, 0, 61, 48
1, 100080, Note_on_c, 0, 64, 56
1, 100170, Note_on_c, 0, 64, 0
1, 100170, Note_on_c, 0, 61, 0
1, 100320, Tempo, 403172
1, 100320, Note_on_c, 0, 71, 57
1, 100320, Note_on_c, 0, 83, 68
1, 100320, Note_on_c, 0, 59, 48
1, 100320, Note_on_c, 0, 62, 56
1, 100410, Note_on_c, 0, 62, 0
1, 100410, Note_on_c, 0, 59, 0
1, 100560, Note_on_c, 0, 54, 48
1, 100560, Note_on_c, 0, 61, 56
1, 100650, Note_on_c, 0, 61, 0
1, 100650, Note_on_c, 0, 54, 0
1, 100800, Note_on_c, 0, 50, 51
1, 100800, Note_on_c, 0, 59, 60
1, 101040, Tempo, 395049
1, 101040, Note_on_c, 0, 83, 0
1, 101040, Note_on_c, 0, 71, 0
1, 101040, Note_on_c, 0, 73, 61
1, 101040, Note_on_c, 0, 85, 61
1, 101130, Note_on_c, 0, 85, 0
1, 101130, Note_on_c, 0, 73, 0
1, 101280, Note_on_c, 0, 74, 51
1, 101280, Note_on_c, 0, 86, 60
1, 101370, Note_on_c, 0, 86, 0
1, 101370, Note_on_c, 0, 74, 0
1, 101520, Note_on_c, 0, 50, 0
1, 101520, Note_on_c, 0, 59, 0
1, 101520, Note_on_c, 0, 76, 52
1, 101520, Note_on_c, 0, 88, 61
1, 101520, Note_on_c, 0, 48, 48
1, 101520, Note_on_c, 0, 57, 57
1, 101610, Note_on_c, 0, 57, 0
1, 101610, Note_on_c, 0, 76, 0
1, 101610, Note_on_c, 0, 88, 0
1, 101610, Note_on_c, 0, 48, 0
1, 101760, Tempo, 403172
1, 101760, Note_on_c, 0, 77, 54
1, 101760, Note_on_c, 0, 89, 64
1, 101760, Note_on_c, 0, 47, 49
1, 101760, Note_on_c, 0, 56, 59
1, 101850, Note_on_c, 0, 56, 0
1, 101850, Note_on_c, 0, 47, 0
1, 102000, Note_on_c, 0, 50, 46
1, 102000, Note_on_c, 0, 59, 55
1, 102090, Note_on_c, 0, 59, 0
1, 102090, Note_on_c, 0, 50, 0
1, 102240, Note_on_c, 0, 89, 0
1, 102240, Note_on_c, 0, 77, 0
1, 102240, Note_on_c, 0, 77, 52
1, 102240, Note_on_c, 0, 89, 61
1, 102240, Note_on_c, 0, 47, 49
1, 102240, Note_on_c, 0, 56, 59
1, 102330, Note_on_c, 0, 56, 0
1, 102330, Note_on_c, 0, 77, 0
1, 102330, Note_on_c, 0, 89, 0
1, 102330, Note_on_c, 0, 47, 0
1, 102480, Tempo, 426651
1, 102480, Note_on_c, 0, 77, 52
1, 102480, Note_on_c, 0, 89, 61
1, 102480, Note_on_c, 0, 50, 44
1, 102480, Note_on_c, 0, 59, 53
1, 102570, Note_on_c, 0, 59, 0
1, 102570, Note_on_c, 0, 77, 0
1, 102570, Note_on_c, 0, 89, 0
1, 102570, Note_on_c, 0, 50, 0
1, 102720, Tempo, 379747
1, 102720, Note_on_c, 0, 68, 64
1, 102720, Note_on_c, 0, 80, 77
1, 102720, Note_on_c, 0, 62, 59
1, 102720, Note_on_c, 0, 65, 70
1, 102810, Note_on_c, 0, 65, 0
1, 102810, Note_on_c, 0, 68, 0
1, 102810, Note_on_c, 0, 80, 0
1, 102810, Note_on_c, 0, 62, 0
1, 102960, Tempo, 419580
1, 102960, Note_on_c, 0, 71, 57
1, 102960, Note_on_c, 0, 83, 67
1, 102960, Note_on_c, 0, 62, 57
1, 102960, Note_on_c, 0, 65, 68
1, 103050, Note_on_c, 0, 83, 0
1, 103050, Note_on_c, 0, 71, 0
1, 103200, Tempo, 403172
1, 103200, Note_on_c, 0, 68, 57
1, 103200, Note_on_c, 0, 80, 67
1, 103290, Note_on_c, 0, 80, 0
1, 103290, Note_on_c, 0, 68, 0
1, 103440, Note_on_c, 0, 71, 57
1, 103440, Note_on_c, 0, 83, 67
1, 103530, Note_on_c, 0, 83, 0
1, 103530, Note_on_c, 0, 71, 0
1, 103680, Note_on_c, 0, 62, 0
1, 103680, Note_on_c, 0, 65, 0
1, 103680, Note_on_c, 0, 76, 54
1, 103680, Note_on_c, 0, 88, 64
1, 103680, Note_on_c, 0, 46, 49
1, 103680, Note_on_c, 0, 55, 59
1, 103770, Note_on_c, 0, 55, 0
1, 103770, Note_on_c, 0, 46, 0
1, 103920, Note_on_c, 0, 49, 46
1, 103920, Note_on_c, 0, 58, 55
1, 104010, Note_on_c, 0, 58, 0
1, 104010, Note_on_c, 0, 49, 0
1, 104160, Note_on_c, 0, 88, 0
1, 104160, Note_on_c, 0, 76, 0
1, 104160, Note_on_c, 0, 76, 52
1, 104160, Note_on_c, 0, 88, 61
1, 104160, Note_on_c, 0, 46, 49
1, 104160, Note_on_c, 0, 55, 59
1, 104250, Note_on_c, 0, 55, 0
1, 104250, Note_on_c, 0, 76, 0
1, 104250, Note_on_c, 0, 88, 0
1, 104250, Note_on_c, 0, 46, 0
1, 104400, Tempo, 429769
1, 104400, Note_on_c, 0, 76, 52
1, 104400, Note_on_c, 0, 88, 62
1, 104400, Note_on_c, 0, 49, 44
1, 104400, Note_on_c, 0, 58, 53
1, 104490, Note_on_c, 0, 58, 0
1, 104490, Note_on_c, 0, 76, 0
1, 104490, Note_on_c, 0, 88, 0
1, 104490, Note_on_c, 0, 49, 0
1, 104640, Tempo, 382166
1, 104640, Note_on_c, 0, 67, 61
1, 104640, Note_on_c, 0, 79, 73
1, 104640, Note_on_c, 0, 61, 59
1, 104640, Note_on_c, 0, 64, 70
1, 104730, Note_on_c, 0, 64, 0
1, 104730, Note_on_c, 0, 67, 0
1, 104730, Note_on_c, 0, 79, 0
1, 104730, Note_on_c, 0, 61, 0
1, 104880, Tempo, 419580
1, 104880, Note_on_c, 0, 70, 56
1, 104880, Note_on_c, 0, 82, 67
1, 104880, Note_on_c, 0, 61, 56
1, 104880, Note_on_c, 0, 64, 67
1, 104970, Note_on_c, 0, 82, 0
1, 104970, Note_on_c, 0, 70, 0
1, 105120, Tempo, 403172
1, 105120, Note_on_c, 0, 67, 56
1, 105120, Note_on_c, 0, 79, 67
1, 105210, Note_on_c, 0, 79, 0
1, 105210, Note_on_c, 0, 67, 0
1, 105360, Note_on_c, 0, 70, 57
1, 105360, Note_on_c, 0, 82, 68
1, 105450, Note_on_c, 0, 82, 0
1, 105450, Note_on_c, 0, 70, 0
1, 105600, Tempo, 404585
1, 105600, Note_on_c, 0, 61, 0
1, 105600, Note_on_c, 0, 64, 0
1, 105600, Note_on_c, 0, 75, 54
1, 105600, Note_on_c, 0, 87, 64
1, 105600, Note_on_c, 0, 45, 49
1, 105600, Note_on_c, 0, 54, 59
1, 105690, Note_on_c, 0, 54, 0
1, 105690, Note_on_c, 0, 45, 0
1, 105840, Note_on_c, 0, 48, 46
1, 105840, Note_on_c, 0, 57, 55
1, 105930, Note_on_c, 0, 57, 0
1, 105930, Note_on_c, 0, 48, 0
1, 106080, Tempo, 397720
1, 106080, Note_on_c, 0, 87, 0
1, 106080, Note_on_c, 0, 75, 0
1, 106080, Note_on_c, 0, 66, 52
1, 106080, Note_on_c, 0, 78, 61
1, 106080, Note_on_c, 0, 60, 52
1, 106080, Note_on_c, 0, 63, 59
1, 106170, Note_on_c, 0, 78, 0
1, 106170, Note_on_c, 0, 66, 0
1, 106320, Tempo, 410228
1, 106320, Note_on_c, 0, 69, 52
1, 106320, Note_on_c, 0, 81, 62
1, 106410, Note_on_c, 0, 81, 0
1, 106410, Note_on_c, 0, 69, 0
1, 106560, Tempo, 404585
1, 106560, Note_on_c, 0, 60, 0
1, 106560, Note_on_c, 0, 63, 0
1, 106560, Note_on_c, 0, 74, 54
1, 106560, Note_on_c, 0, 86, 64
1, 106560, Note_on_c, 0, 44, 49
1, 106560, Note_on_c, 0, 53, 59
1, 106650, Note_on_c, 0, 53, 0
1, 106650, Note_on_c, 0, 44, 0
1, 106800, Note_on_c, 0, 47, 46
1, 106800, Note_on_c, 0, 56, 55
1, 106890, Note_on_c, 0, 56, 0
1, 106890, Note_on_c, 0, 47, 0
1, 107040, Tempo, 408163
1, 107040, Note_on_c, 0, 86, 0
1, 107040, Note_on_c, 0, 74, 0
1, 107040, Note_on_c, 0, 65, 52
1, 107040, Note_on_c, 0, 77, 61
1, 107040, Note_on_c, 0, 59, 52
1, 107040, Note_on_c, 0, 62, 59
1, 107130, Note_on_c, 0, 77, 0
1, 107130, Note_on_c, 0, 65, 0
1, 107280, Tempo, 421053
1, 107280, Note_on_c, 0, 68, 52
1, 107280, Note_on_c, 0, 80, 62
1, 107370, Note_on_c, 0, 80, 0
1, 107370, Note_on_c, 0, 68, 0
1, 107520, Tempo, 413793
1, 107520, Note_on_c, 0, 59, 0
1, 107520, Note_on_c, 0, 62, 0
1, 107520, Note_on_c, 0, 73, 51
1, 107520, Note_on_c, 0, 85, 60
1, 107520, Note_on_c, 0, 43, 46
1, 107520, Note_on_c, 0, 52, 56
1, 107610, Note_on_c, 0, 52, 0
1, 107610, Note_on_c, 0, 43, 0
1, 107760, Note_on_c, 0, 46, 43
1, 107760, Note_on_c, 0, 55, 51
1, 107850, Note_on_c, 0, 55, 0
1, 107850, Note_on_c, 0, 46, 0
1, 108000, Tempo, 421053
1, 108000, Note_on_c, 0, 85, 0
1, 108000, Note_on_c, 0, 73, 0
1, 108000, Note_on_c, 0, 64, 47
1, 108000, Note_on_c, 0, 76, 56
1, 108000, Note_on_c, 0, 58, 47
1, 108000, Note_on_c, 0, 61, 54
1, 108090, Note_on_c, 0, 76, 0
1, 108090, Note_on_c, 0, 64, 0
1, 108240, Tempo, 436364
1, 108240, Note_on_c, 0, 67, 46
1, 108240, Note_on_c, 0, 79, 55
1, 108330, Note_on_c, 0, 79, 0
1, 108330, Note_on_c, 0, 67, 0
1, 108480, Tempo, 425532
1, 108480, Note_on_c, 0, 58, 0
1, 108480, Note_on_c, 0, 61, 0
1, 108480, Note_on_c, 0, 72, 47
1, 108480, Note_on_c, 0, 84, 56
1, 108480, Note_on_c, 0, 42, 43
1, 108480, Note_on_c, 0, 51, 51
1, 108570, Note_on_c, 0, 51, 0
1, 108570, Note_on_c, 0, 42, 0
1, 108720, Note_on_c, 0, 45, 39
1, 108720, Note_on_c, 0, 54, 47
1, 108810, Note_on_c, 0, 54, 0
1, 108810, Note_on_c, 0, 45, 0
1, 108960, Tempo, 447761
1, 108960, Note_on_c, 0, 84, 0
1, 108960, Note_on_c, 0, 72, 0
1, 108960, Note_on_c, 0, 63, 43
1, 108960, Note_on_c, 0, 75, 51
1, 108960, Note_on_c, 0, 57, 43
1, 108960, Note_on_c, 0, 60, 49
1, 109050, Note_on_c, 0, 75, 0
1, 109050, Note_on_c, 0, 63, 0
1, 109200, Tempo, 476190
1, 109200, Note_on_c, 0, 66, 42
1, 109200, Note_on_c, 0, 78, 50
1, 109290, Note_on_c, 0, 78, 0
1, 109290, Note_on_c, 0, 66, 0
1, 109440, Tempo, 425532
1, 109440, Note_on_c, 0, 57, 0
1, 109440, Note_on_c, 0, 60, 0
1, 109440, Note_on_c, 0, 60, 35
1, 109440, Note_on_c, 0, 66, 42
1, 109440, Note_on_c, 0, 32, 38
1, 109491, Control_c, 0, 64, 127
1, 109560, Note_on_c, 0, 32, 0
1, 109560, Note_on_c, 0, 66, 0
1, 109560, Note_on_c, 0, 60, 0
1, 109560, Note_on_c, 0, 72, 38
1, 109560, Note_on_c, 0, 44, 36
1, 109680, Note_on_c, 0, 44, 0
1, 109680, Note_on_c, 0, 72, 0
1, 109680, Note_on_c, 0, 60, 35
1, 109680, Note_on_c, 0, 66, 42
1, 109680, Note_on_c, 0, 32, 39
1, 109720, Tempo, 424028
1, 109800, Note_on_c, 0, 32, 0
1, 109800, Note_on_c, 0, 66, 0
1, 109800, Note_on_c, 0, 60, 0
1, 109800, Note_on_c, 0, 72, 40
1, 109800, Note_on_c, 0, 44, 36
1, 109920, Note_on_c, 0, 44, 0
1, 109920, Note_on_c, 0, 72, 0
1, 109920, Note_on_c, 0, 60, 38
1, 109920, Note_on_c, 0, 66, 45
1, 109920, Note_on_c, 0, 32, 41
1, 109960, Tempo, 422535
1, 110040, Note_on_c, 0, 32, 0
1, 110040, Note_on_c, 0, 66, 0
1, 110040, Note_on_c, 0, 60, 0
1, 110040, Note_on_c, 0, 72, 41
1, 110040, Note_on_c, 0, 44, 38
1, 110160, Note_on_c, 0, 44, 0
1, 110160, Note_on_c, 0, 72, 0
1, 110160, Note_on_c, 0, 60, 40
1, 110160, Note_on_c, 0, 66, 47
1, 110160, Note_on_c, 0, 32, 42
1, 110240, Tempo, 421053
1, 110280, Note_on_c, 0, 32, 0
1, 110280, Note_on_c, 0, 66, 0
1, 110280, Note_on_c, 0, 60, 0
1, 110280, Note_on_c, 0, 72, 43
1, 110280, Note_on_c, 0, 44, 39
1, 110400, Note_on_c, 0, 44, 0
1, 110400, Note_on_c, 0, 72, 0
1, 110400, Note_on_c, 0, 60, 41
1, 110400, Note_on_c, 0, 66, 49
1, 110400, Note_on_c, 0, 32, 44
1, 110480, Tempo, 419580
1, 110520, Note_on_c, 0, 32, 0
1, 110520, Note_on_c, 0, 66, 0
1, 110520, Note_on_c, 0, 60, 0
1, 110520, Note_on_c, 0, 72, 45
1, 110520, Note_on_c, 0, 44, 41
1, 110640, Note_on_c, 0, 44, 0
1, 110640, Note_on_c, 0, 72, 0
1, 110640, Note_on_c, 0, 60, 43
1, 110640, Note_on_c, 0, 66, 51
1, 110640, Note_on_c, 0, 32, 45
1, 110720, Tempo, 418118
1, 110760, Note_on_c, 0, 32, 0
1, 110760, Note_on_c, 0, 66, 0
1, 110760, Note_on_c, 0, 60, 0
1, 110760, Note_on_c, 0, 72, 46
1, 110760, Note_on_c, 0, 44, 44
1, 110880, Note_on_c, 0, 44, 0
1, 110880, Note_on_c, 0, 72, 0
1, 110880, Note_on_c, 0, 60, 43
1, 110880, Note_on_c, 0, 66, 52
1, 110880, Note_on_c, 0, 32, 47
1, 111000, Tempo, 416667
1, 111000, Note_on_c, 0, 32, 0
1, 111000, Note_on_c, 0, 66, 0
1, 111000, Note_on_c, 0, 60, 0
1, 111000, Note_on_c, 0, 72, 48
1, 111000, Note_on_c, 0, 44, 44
1, 111120, Note_on_c, 0, 44, 0
1, 111120, Note_on_c, 0, 72, 0
1, 111120, Note_on_c, 0, 60, 45
1, 111120, Note_on_c, 0, 66, 53
1, 111120, Note_on_c, 0, 32, 48
1, 111240, Tempo, 413793
1, 111240, Note_on_c, 0, 32, 0
1, 111240, Note_on_c, 0, 66, 0
1, 111240, Note_on_c, 0, 60, 0
1, 111240, Note_on_c, 0, 72, 52
1, 111240, Note_on_c, 0, 44, 47
1, 111360, Note_on_c, 0, 44, 0
1, 111360, Note_on_c, 0, 72, 0
1, 111360, Note_on_c, 0, 72, 51
1, 111360, Note_on_c, 0, 78, 61
1, 111360, Control_c, 0, 64, 0
1, 111360, Note_on_c, 0, 45, 56
1, 111411, Control_c, 0, 64, 127
1, 111480, Tempo, 412371
1, 111480, Note_on_c, 0, 45, 0
1, 111480, Note_on_c, 0, 78, 0
1, 111480, Note_on_c, 0, 72, 0
1, 111480, Note_on_c, 0, 84, 56
1, 111480, Note_on_c, 0, 46, 53
1, 111600, Note_on_c, 0, 46, 0
1, 111600, Note_on_c, 0, 84, 0
1, 111600, Note_on_c, 0, 72, 52
1, 111600, Note_on_c, 0, 78, 62
1, 111600, Note_on_c, 0, 47, 54
1, 111720, Tempo, 410959
1, 111720, Note_on_c, 0, 47, 0
1, 111720, Note_on_c, 0, 78, 0
1, 111720, Note_on_c, 0, 72, 0
1, 111720, Note_on_c, 0, 84, 59
1, 111720, Note_on_c, 0, 48, 55
1, 111840, Note_on_c, 0, 48, 0
1, 111840, Note_on_c, 0, 84, 0
1, 111840, Note_on_c, 0, 72, 56
1, 111840, Note_on_c, 0, 78, 67
1, 111840, Note_on_c, 0, 49, 57
1, 111960, Tempo, 409556
1, 111960, Note_on_c, 0, 49, 0
1, 111960, Note_on_c, 0, 78, 0
1, 111960, Note_on_c, 0, 72, 0
1, 111960, Note_on_c, 0, 84, 62
1, 111960, Note_on_c, 0, 50, 59
1, 112080, Note_on_c, 0, 50, 0
1, 112080, Note_on_c, 0, 84, 0
1, 112080, Note_on_c, 0, 72, 59
1, 112080, Note_on_c, 0, 78, 70
1, 112080, Note_on_c, 0, 51, 60
1, 112200, Tempo, 408163
1, 112200, Note_on_c, 0, 51, 0
1, 112200, Note_on_c, 0, 78, 0
1, 112200, Note_on_c, 0, 72, 0
1, 112200, Note_on_c, 0, 84, 66
1, 112200, Note_on_c, 0, 52, 61
1, 112320, Note_on_c, 0, 52, 0
1, 112320, Note_on_c, 0, 84, 0
1, 112320, Note_on_c, 0, 72, 62
1, 112320, Note_on_c, 0, 78, 74
1, 112320, Note_on_c, 0, 53, 63
1, 112440, Tempo, 406780
1, 112440, Note_on_c, 0, 53, 0
1, 112440, Note_on_c, 0, 78, 0
1, 112440, Note_on_c, 0, 72, 0
1, 112440, Note_on_c, 0, 84, 69
1, 112440, Note_on_c, 0, 54, 65
1, 112560, Note_on_c, 0, 54, 0
1, 112560, Note_on_c, 0, 84, 0
1, 112560, Note_on_c, 0, 72, 64
1, 112560, Note_on_c, 0, 78, 76
1, 112560, Note_on_c, 0, 55, 67
1, 112680, Tempo, 405405
1, 112680, Note_on_c, 0, 55, 0
1, 112680, Note_on_c, 0, 78, 0
1, 112680, Note_on_c, 0, 72, 0
1, 112680, Note_on_c, 0, 84, 70
1, 112680, Note_on_c, 0, 56, 68
1, 112800, Note_on_c, 0, 56, 0
1, 112800, Note_on_c, 0, 84, 0
1, 112800, Note_on_c, 0, 84, 78
1, 112800, Note_on_c, 0, 72, 66
1, 112800, Note_on_c, 0, 78, 66
1, 112800, Note_on_c, 0, 44, 61
1, 112800, Note_on_c, 0, 56, 72
1, 112808, Control_c, 0, 64, 0
1, 112880, Tempo, 404040
1, 112920, Note_on_c, 0, 56, 0
1, 112920, Note_on_c, 0, 78, 0
1, 112920, Note_on_c, 0, 84, 0
1, 112920, Note_on_c, 0, 72, 0
1, 112920, Note_on_c, 0, 44, 0
1, 113040, Note_on_c, 0, 84, 77
1, 113040, Note_on_c, 0, 72, 65
1, 113040, Note_on_c, 0, 78, 65
1, 113040, Note_on_c, 0, 44, 62
1, 113040, Note_on_c, 0, 56, 73
1, 113160, Tempo, 401338
1, 113160, Note_on_c, 0, 56, 0
1, 113160, Note_on_c, 0, 78, 0
1, 113160, Note_on_c, 0, 84, 0
1, 113160, Note_on_c, 0, 72, 0
1, 113160, Note_on_c, 0, 44, 0
1, 113280, Tempo, 400000
1, 113280, Note_on_c, 0, 72, 75
1, 113280, Note_on_c, 0, 78, 75
1, 113280, Note_on_c, 0, 84, 89
1, 113280, Note_on_c, 0, 44, 63
1, 113280, Note_on_c, 0, 56, 75
1, 113400, Tempo, 398671
1, 113400, Note_on_c, 0, 56, 0
1, 113400, Note_on_c, 0, 84, 0
1, 113400, Note_on_c, 0, 72, 0
1, 113400, Note_on_c, 0, 78, 0
1, 113400, Note_on_c, 0, 44, 0
1, 113520, Tempo, 397351
1, 113520, Note_on_c, 0, 74, 76
1, 113520, Note_on_c, 0, 78, 76
1, 113520, Note_on_c, 0, 84, 90
1, 113520, Note_on_c, 0, 86, 90
1, 113520, Note_on_c, 0, 56, 65
1, 113520, Note_on_c, 0, 68, 77
1, 113531, Control_c, 0, 64, 127
1, 113640, Tempo, 396040
1, 113720, Tempo, 394737
1, 113760, Note_on_c, 0, 68, 0
1, 113760, Note_on_c, 0, 78, 0
1, 113760, Note_on_c, 0, 84, 0
1, 113760, Note_on_c, 0, 74, 0
1, 113760, Note_on_c, 0, 56, 0
1, 113760, Note_on_c, 0, 86, 0
1, 113760, Note_on_c, 0, 74, 78
1, 113760, Note_on_c, 0, 78, 78
1, 113760, Note_on_c, 0, 84, 92
1, 113760, Note_on_c, 0, 86, 92
1, 113760, Note_on_c, 0, 56, 68
1, 113760, Note_on_c, 0, 68, 80
1, 114000, Note_on_c, 0, 68, 0
1, 114000, Note_on_c, 0, 78, 0
1, 114000, Note_on_c, 0, 84, 0
1, 114000, Note_on_c, 0, 74, 0
1, 114000, Note_on_c, 0, 56, 0
1, 114000, Note_on_c, 0, 86, 0
1, 114000, Note_on_c, 0, 74, 80
1, 114000, Note_on_c, 0, 78, 80
1, 114000, Note_on_c, 0, 84, 94
1, 114000, Note_on_c, 0, 86, 94
1, 114000, Note_on_c, 0, 56, 70
1, 114000, Note_on_c, 0, 68, 83
1, 114240, Note_on_c, 0, 68, 0
1, 114240, Note_on_c, 0, 78, 0
1, 114240, Note_on_c, 0, 84, 0
1, 114240, Note_on_c, 0, 74, 0
1, 114240, Note_on_c, 0, 56, 0
1, 114240, Note_on_c, 0, 86, 0
1, 114240, Note_on_c, 0, 74, 82
1, 114240, Note_on_c, 0, 78, 82
1, 114240, Note_on_c, 0, 84, 97
1, 114240, Note_on_c, 0, 86, 97
1, 114240, Note_on_c, 0, 56, 73
1, 114240, Note_on_c, 0, 68, 87
1, 114480, Note_on_c, 0, 68, 0
1, 114480, Note_on_c, 0, 78, 0
1, 114480, Note_on_c, 0, 84, 0
1, 114480, Note_on_c, 0, 74, 0
1, 114480, Note_on_c, 0, 56, 0
1, 114480, Note_on_c, 0, 86, 0
1, 114480, Note_on_c, 0, 74, 82
1, 114480, Note_on_c, 0, 78, 82
1, 114480, Note_on_c, 0, 84, 97
1, 114480, Note_on_c, 0, 86, 97
1, 114480, Note_on_c, 0, 56, 75
1, 114480, Note_on_c, 0, 68, 90
1, 114720, Tempo, 406780
1, 114720, Note_on_c, 0, 68, 0
1, 114720, Note_on_c, 0, 78, 0
1, 114720, Note_on_c, 0, 84, 0
1, 114720, Note_on_c, 0, 74, 0
1, 114720, Note_on_c, 0, 56, 0
1, 114720, Note_on_c, 0, 86, 0
1, 114720, Note_on_c, 0, 74, 84
1, 114720, Note_on_c, 0, 78, 84
1, 114720, Note_on_c, 0, 84, 99
1, 114720, Note_on_c, 0, 86, 99
1, 114720, Note_on_c, 0, 56, 78
1, 114720, Note_on_c, 0, 68, 93
1, 114729, Control_c, 0, 64, 0
1, 114840, Note_on_c, 0, 68, 0
1, 114840, Note_on_c, 0, 78, 0
1, 114840, Note_on_c, 0, 84, 0
1, 114840, Note_on_c, 0, 74, 0
1, 114840, Note_on_c, 0, 56, 0
1, 114840, Note_on_c, 0, 86, 0
1, 114960, Tempo, 433213
1, 114960, Note_on_c, 0, 74, 86
1, 114960, Note_on_c, 0, 78, 86
1, 114960, Note_on_c, 0, 84, 101
1, 114960, Note_on_c, 0, 86, 101
1, 114960, Note_on_c, 0, 56, 81
1, 114960, Note_on_c, 0, 68, 96
1, 115080, Note_on_c, 0, 68, 0
1, 115080, Note_on_c, 0, 78, 0
1, 115080, Note_on_c, 0, 84, 0
1, 115080, Note_on_c, 0, 74, 0
1, 115080, Note_on_c, 0, 56, 0
1, 115080, Note_on_c, 0, 86, 0
1, 115200, Tempo, 422535
1, 115200, Note_on_c, 0, 76, 88
1, 115200, Note_on_c, 0, 79, 88
1, 115200, Note_on_c, 0, 84, 88
1, 115200, Note_on_c, 0, 88, 104
1, 115200, Note_on_c, 0, 55, 87
1, 115200, Note_on_c, 0, 67, 102
1, 115256, Control_c, 0, 64, 127
1, 115428, Note_on_c, 0, 67, 0
1, 115428, Note_on_c, 0, 79, 0
1, 115428, Note_on_c, 0, 84, 0
1, 115428, Note_on_c, 0, 76, 0
1, 115428, Note_on_c, 0, 55, 0
1, 115428, Note_on_c, 0, 88, 0
1, 115440, Note_on_c, 0, 77, 81
1, 115440, Note_on_c, 0, 83, 81
1, 115440, Note_on_c, 0, 86, 81
1, 115440, Note_on_c, 0, 91, 97
1, 115440, Note_on_c, 0, 31, 81
1, 115440, Note_on_c, 0, 43, 97
1, 115640, Tempo, 422535
1, 115668, Note_on_c, 0, 43, 0
1, 115668, Note_on_c, 0, 83, 0
1, 115668, Note_on_c, 0, 86, 0
1, 115668, Note_on_c, 0, 77, 0
1, 115668, Note_on_c, 0, 31, 0
1, 115668, Note_on_c, 0, 91, 0
1, 115680, Note_on_c, 0, 77, 83
1, 115680, Note_on_c, 0, 83, 83
1, 115680, Note_on_c, 0, 86, 83
1, 115680, Note_on_c, 0, 91, 98
1, 115680, Note_on_c, 0, 31, 81
1, 115680, Note_on_c, 0, 43, 97
1, 115800, Tempo, 424028
1, 115908, Note_on_c, 0, 43, 0
1, 115908, Note_on_c, 0, 83, 0
1, 115908, Note_on_c, 0, 86, 0
1, 115908, Note_on_c, 0, 77, 0
1, 115908, Note_on_c, 0, 31, 0
1, 115908, Note_on_c, 0, 91, 0
1, 115920, Tempo, 425532
1, 115920, Note_on_c, 0, 77, 83
1, 115920, Note_on_c, 0, 83, 83
1, 115920, Note_on_c, 0, 86, 83
1, 115920, Note_on_c, 0, 91, 98
1, 115920, Note_on_c, 0, 31, 81
1, 115920, Note_on_c, 0, 43, 97
1, 116040, Tempo, 427046
1, 116148, Note_on_c, 0, 43, 0
1, 116148, Note_on_c, 0, 83, 0
1, 116148, Note_on_c, 0, 86, 0
1, 116148, Note_on_c, 0, 77, 0
1, 116148, Note_on_c, 0, 31, 0
1, 116148, Note_on_c, 0, 91, 0
1, 116160, Tempo, 428571
1, 116160, Note_on_c, 0, 77, 83
1, 116160, Note_on_c, 0, 83, 83
1, 116160, Note_on_c, 0, 86, 83
1, 116160, Note_on_c, 0, 91, 98
1, 116160, Note_on_c, 0, 31, 81
1, 116160, Note_on_c, 0, 43, 97
1, 116280, Tempo, 430108
1, 116388, Note_on_c, 0, 43, 0
1, 116388, Note_on_c, 0, 83, 0
1, 116388, Note_on_c, 0, 86, 0
1, 116388, Note_on_c, 0, 77, 0
1, 116388, Note_on_c, 0, 31, 0
1, 116388, Note_on_c, 0, 91, 0
1, 116400, Tempo, 431655
1, 116400, Note_on_c, 0, 77, 81
1, 116400, Note_on_c, 0, 83, 81
1, 116400, Note_on_c, 0, 86, 81
1, 116400, Note_on_c, 0, 91, 97
1, 116400, Note_on_c, 0, 31, 81
1, 116400, Note_on_c, 0, 43, 97
1, 116520, Tempo, 433213
1, 116628, Note_on_c, 0, 43, 0
1, 116628, Note_on_c, 0, 83, 0
1, 116628, Note_on_c, 0, 86, 0
1, 116628, Note_on_c, 0, 77, 0
1, 116628, Note_on_c, 0, 31, 0
1, 116628, Note_on_c, 0, 91, 0
1, 116640, Tempo, 449438
1, 116640, Note_on_c, 0, 77, 81
1, 116640, Note_on_c, 0, 83, 81
1, 116640, Note_on_c, 0, 86, 81
1, 116640, Note_on_c, 0, 91, 97
1, 116640, Note_on_c, 0, 31, 81
1, 116640, Note_on_c, 0, 43, 97
1, 116868, Note_on_c, 0, 43, 0
1, 116868, Note_on_c, 0, 83, 0
1, 116868, Note_on_c, 0, 86, 0
1, 116868, Note_on_c, 0, 77, 0
1, 116868, Note_on_c, 0, 31, 0
1, 116868, Note_on_c, 0, 91, 0
1, 116880, Tempo, 481928
1, 116880, Note_on_c, 0, 77, 81
1, 116880, Note_on_c, 0, 83, 81
1, 116880, Note_on_c, 0, 86, 81
1, 116880, Note_on_c, 0, 91, 97
1, 116880, Note_on_c, 0, 31, 81
1, 116880, Note_on_c, 0, 43, 97
1, 117108, Note_on_c, 0, 43, 0
1, 117108, Note_on_c, 0, 83, 0
1, 117108, Note_on_c, 0, 86, 0
1, 117108, Note_on_c, 0, 77, 0
1, 117108, Note_on_c, 0, 31, 0
1, 117108, Note_on_c, 0, 91, 0
1, 117120, Tempo, 424028
1, 117120, Note_on_c, 0, 84, 76
1, 117120, Note_on_c, 0, 88, 90
1, 117120, Control_c, 0, 91, 127
1, 117120, Text_t, "bdca426d104a26ac9dcb070447587523"
1, 117120, Control_c, 0, 64, 0
1, 117120, Note_on_c, 0, 36, 85
1, 117120, Note_on_c, 0, 48, 100
1, 117189, Control_c, 0, 64, 127
1, 117240, Note_on_c, 0, 88, 0
1, 117240, Note_on_c, 0, 84, 0
1, 117240, Note_on_c, 0, 96, 95
1, 117360, Note_on_c, 0, 96, 0
1, 117360, Note_on_c, 0, 91, 95
1, 117480, Note_on_c, 0, 91, 0
1, 117480, Note_on_c, 0, 88, 94
1, 117600, Tempo, 412371
1, 117600, Note_on_c, 0, 88, 0
1, 117600, Note_on_c, 0, 36, 0
1, 117600, Note_on_c, 0, 48, 0
1, 117600, Note_on_c, 0, 84, 93
1, 117600, Note_on_c, 0, 36, 79
1, 117600, Note_on_c, 0, 48, 95
1, 117690, Note_on_c, 0, 48, 0
1, 117690, Note_on_c, 0, 36, 0
1, 117720, Note_on_c, 0, 84, 0
1, 117720, Note_on_c, 0, 79, 92
1, 117840, Note_on_c, 0, 79, 0
1, 117840, Note_on_c, 0, 76, 91
1, 117840, Note_on_c, 0, 36, 79
1, 117840, Note_on_c, 0, 48, 95
1, 117930, Note_on_c, 0, 48, 0
1, 117930, Note_on_c, 0, 36, 0
1, 117960, Note_on_c, 0, 76, 0
1, 117960, Note_on_c, 0, 79, 90
1, 118080, Tempo, 418118
1, 118080, Note_on_c, 0, 79, 0
1, 118080, Note_on_c, 0, 72, 90
1, 118080, Note_on_c, 0, 36, 79
1, 118080, Note_on_c, 0, 48, 95
1, 118320, Note_on_c, 0, 72, 0
1, 118320, Note_on_c, 0, 88, 76
1, 118320, Note_on_c, 0, 91, 90
1, 118440, Note_on_c, 0, 91, 0
1, 118440, Note_on_c, 0, 88, 0
1, 118440, Note_on_c, 0, 79, 86
1, 118560, Tempo, 434783
1, 118560, Note_on_c, 0, 79, 0
1, 118560, Note_on_c, 0, 48, 0
1, 118560, Note_on_c, 0, 36, 0
1, 118560, Note_on_c, 0, 89, 79
1, 118560, Note_on_c, 0, 93, 93
1, 118560, Note_on_c, 0, 36, 81
1, 118560, Note_on_c, 0, 48, 96
1, 118563, Control_c, 0, 64, 0
1, 118650, Note_on_c, 0, 48, 0
1, 118650, Note_on_c, 0, 36, 0
1, 118680, Note_on_c, 0, 93, 0
1, 118680, Note_on_c, 0, 89, 0
1, 118680, Note_on_c, 0, 81, 86
1, 118800, Tempo, 456274
1, 118800, Note_on_c, 0, 81, 0
1, 118800, Note_on_c, 0, 91, 79
1, 118800, Note_on_c, 0, 94, 93
1, 118800, Note_on_c, 0, 36, 82
1, 118800, Note_on_c, 0, 48, 97
1, 118890, Note_on_c, 0, 48, 0
1, 118890, Note_on_c, 0, 36, 0
1, 118920, Tempo, 483871
1, 118920, Note_on_c, 0, 94, 0
1, 118920, Note_on_c, 0, 91, 0
1, 118920, Note_on_c, 0, 82, 89
1, 119040, Tempo, 430108
1, 119040, Note_on_c, 0, 82, 0
1, 119040, Note_on_c, 0, 89, 83
1, 119040, Note_on_c, 0, 93, 98
1, 119040, Note_on_c, 0, 37, 89
1, 119040, Note_on_c, 0, 49, 105
1, 119063, Control_c, 0, 64, 127
1, 119130, Note_on_c, 0, 49, 0
1, 119130, Note_on_c, 0, 37, 0
1, 119160, Note_on_c, 0, 93, 0
1, 119160, Note_on_c, 0, 89, 0
1, 119160, Note_on_c, 0, 81, 89
1, 119280, Note_on_c, 0, 81, 0
1, 119280, Note_on_c, 0, 88, 79
1, 119280, Note_on_c, 0, 91, 94
1, 119400, Note_on_c, 0, 91, 0
1, 119400, Note_on_c, 0, 88, 0
1, 119400, Note_on_c, 0, 79, 87
1, 119520, Tempo, 412371
1, 119520, Note_on_c, 0, 79, 0
1, 119520, Note_on_c, 0, 86, 79
1, 119520, Note_on_c, 0, 89, 93
1, 119520, Note_on_c, 0, 38, 86
1, 119520, Note_on_c, 0, 50, 102
1, 119531, Control_c, 0, 64, 0
1, 119589, Control_c, 0, 64, 127
1, 119640, Note_on_c, 0, 89, 0
1, 119640, Note_on_c, 0, 86, 0
1, 119640, Note_on_c, 0, 77, 86
1, 119760, Note_on_c, 0, 77, 0
1, 119760, Note_on_c, 0, 81, 77
1, 119760, Note_on_c, 0, 88, 91
1, 119880, Note_on_c, 0, 88, 0
1, 119880, Note_on_c, 0, 81, 0
1, 119880, Note_on_c, 0, 76, 77
1, 120000, Tempo, 418118
1, 120000, Note_on_c, 0, 76, 0
1, 120000, Note_on_c, 0, 77, 73
1, 120000, Note_on_c, 0, 86, 86
1, 120120, Note_on_c, 0, 86, 0
1, 120120, Note_on_c, 0, 77, 0
1, 120120, Note_on_c, 0, 74, 76
1, 120240, Note_on_c, 0, 74, 0
1, 120240, Note_on_c, 0, 38, 0
1, 120240, Note_on_c, 0, 50, 0
1, 120240, Note_on_c, 0, 81, 73
1, 120240, Note_on_c, 0, 85, 87
1, 120240, Note_on_c, 0, 40, 81
1, 120240, Note_on_c, 0, 52, 96
1, 120291, Control_c, 0, 64, 0
1, 120330, Note_on_c, 0, 52, 0
1, 120330, Note_on_c, 0, 40, 0
1, 120360, Note_on_c, 0, 85, 0
1, 120360, Note_on_c, 0, 81, 0
1, 120360, Note_on_c, 0, 73, 79
1, 120480, Tempo, 424028
1, 120480, Note_on_c, 0, 73, 0
1, 120480, Note_on_c, 0, 81, 78
1, 120480, Note_on_c, 0, 86, 92
1, 120480, Note_on_c, 0, 41, 79
1, 120480, Note_on_c, 0, 53, 95
1, 120531, Control_c, 0, 64, 127
1, 120570, Note_on_c, 0, 53, 0
1, 120570, Note_on_c, 0, 41, 0
1, 120600, Note_on_c, 0, 86, 0
1, 120600, Note_on_c, 0, 81, 0
1, 120600, Note_on_c, 0, 74, 81
1, 120720, Note_on_c, 0, 74, 0
1, 120720, Note_on_c, 0, 88, 80
1, 120720, Note_on_c, 0, 97, 95
1, 120720, Note_on_c, 0, 40, 81
1, 120720, Note_on_c, 0, 52, 96
1, 120810, Note_on_c, 0, 52, 0
1, 120810, Note_on_c, 0, 40, 0
1, 120840, Tempo, 458015
1, 120840, Note_on_c, 0, 97, 0
1, 120840, Note_on_c, 0, 88, 0
1, 120840, Note_on_c, 0, 85, 86
1, 120960, Tempo, 425532
1, 120960, Note_on_c, 0, 85, 0
1, 120960, Control_c, 0, 91, 127
1, 120960, Text_t, "bdca426d104a26ac9dcb070447587523"
1, 120960, Note_on_c, 0, 86, 90
1, 120960, Control_c, 0, 64, 0
1, 120960, Note_on_c, 0, 38, 85
1, 120960, Note_on_c, 0, 50, 100
1, 121024, Control_c, 0, 64, 127
1, 121080, Note_on_c, 0, 86, 0
1, 121080, Note_on_c, 0, 98, 95
1, 121200, Note_on_c, 0, 98, 0
1, 121200, Note_on_c, 0, 93, 95
1, 121320, Note_on_c, 0, 93, 0
1, 121320, Note_on_c, 0, 89, 94
1, 121440, Tempo, 412371
1, 121440, Note_on_c, 0, 89, 0
1, 121440, Note_on_c, 0, 50, 0
1, 121440, Note_on_c, 0, 38, 0
1, 121440, Note_on_c, 0, 86, 93
1, 121440, Note_on_c, 0, 38, 85
1, 121440, Note_on_c, 0, 50, 100
1, 121530, Note_on_c, 0, 50, 0
1, 121530, Note_on_c, 0, 38, 0
1, 121560, Note_on_c, 0, 86, 0
1, 121560, Note_on_c, 0, 81, 92
1, 121680, Note_on_c, 0, 81, 0
1, 121680, Note_on_c, 0, 77, 91
1, 121680, Note_on_c, 0, 38, 81
1, 121680, Note_on_c, 0, 50, 96
1, 121770, Note_on_c, 0, 50, 0
1, 121770, Note_on_c, 0, 38, 0
1, 121800, Note_on_c, 0, 77, 0
1, 121800, Note_on_c, 0, 81, 90
1, 121920, Tempo, 419580
1, 121920, Note_on_c, 0, 81, 0
1, 121920, Note_on_c, 0, 74, 90
1, 121920, Note_on_c, 0, 38, 81
1, 121920, Note_on_c, 0, 50, 96
1, 122160, Note_on_c, 0, 74, 0
1, 122160, Note_on_c, 0, 89, 76
1, 122160, Note_on_c, 0, 93, 90
1, 122280, Note_on_c, 0, 93, 0
1, 122280, Note_on_c, 0, 89, 0
1, 122280, Note_on_c, 0, 81, 86
1, 122400, Tempo, 425532
1, 122400, Note_on_c, 0, 81, 0
1, 122400, Note_on_c, 0, 50, 0
1, 122400, Note_on_c, 0, 38, 0
1, 122400, Note_on_c, 0, 91, 79
1, 122400, Note_on_c, 0, 95, 93
1, 122400, Note_on_c, 0, 38, 82
1, 122400, Note_on_c, 0, 50, 97
1, 122478, Control_c, 0, 64, 0
1, 122490, Note_on_c, 0, 50, 0
1, 122490, Note_on_c, 0, 38, 0
1, 122520, Note_on_c, 0, 95, 0
1, 122520, Note_on_c, 0, 91, 0
1, 122520, Note_on_c, 0, 83, 86
1, 122640, Tempo, 442804
1, 122640, Note_on_c, 0, 83, 0
1, 122640, Note_on_c, 0, 93, 79
1, 122640, Note_on_c, 0, 96, 93
1, 122640, Note_on_c, 0, 38, 82
1, 122640, Note_on_c, 0, 50, 97
1, 122730, Note_on_c, 0, 50, 0
1, 122730, Note_on_c, 0, 38, 0
1, 122760, Tempo, 456274
1, 122760, Note_on_c, 0, 96, 0
1, 122760, Note_on_c, 0, 93, 0
1, 122760, Note_on_c, 0, 84, 89
1, 122880, Tempo, 437956
1, 122880, Note_on_c, 0, 84, 0
1, 122880, Note_on_c, 0, 91, 83
1, 122880, Note_on_c, 0, 95, 98
1, 122880, Note_on_c, 0, 39, 89
1, 122880, Note_on_c, 0, 51, 105
1, 122909, Control_c, 0, 64, 127
1, 122970, Note_on_c, 0, 51, 0
1, 122970, Note_on_c, 0, 39, 0
1, 123000, Note_on_c, 0, 95, 0
1, 123000, Note_on_c, 0, 91, 0
1, 123000, Note_on_c, 0, 83, 89
1, 123120, Note_on_c, 0, 83, 0
1, 123120, Note_on_c, 0, 90, 79
1, 123120, Note_on_c, 0, 93, 94
1, 123240, Note_on_c, 0, 93, 0
1, 123240, Note_on_c, 0, 90, 0
1, 123240, Note_on_c, 0, 81, 87
1, 123360, Tempo, 412371
1, 123360, Note_on_c, 0, 81, 0
1, 123360, Note_on_c, 0, 88, 79
1, 123360, Note_on_c, 0, 91, 93
1, 123360, Note_on_c, 0, 40, 86
1, 123360, Note_on_c, 0, 52, 102
1, 123370, Control_c, 0, 64, 0
1, 123429, Control_c, 0, 64, 127
1, 123480, Note_on_c, 0, 91, 0
1, 123480, Note_on_c, 0, 88, 0
1, 123480, Note_on_c, 0, 79, 86
1, 123600, Note_on_c, 0, 79, 0
1, 123600, Note_on_c, 0, 83, 77
1, 123600, Note_on_c, 0, 90, 91
1, 123720, Note_on_c, 0, 90, 0
1, 123720, Note_on_c, 0, 83, 0
1, 123720, Note_on_c, 0, 78, 77
1, 123840, Tempo, 418118
1, 123840, Note_on_c, 0, 78, 0
1, 123840, Note_on_c, 0, 79, 73
1, 123840, Note_on_c, 0, 88, 86
1, 123960, Note_on_c, 0, 88, 0
1, 123960, Note_on_c, 0, 79, 0
1, 123960, Note_on_c, 0, 76, 76
1, 124080, Note_on_c, 0, 76, 0
1, 124080, Note_on_c, 0, 40, 0
1, 124080, Note_on_c, 0, 52, 0
1, 124080, Note_on_c, 0, 83, 73
1, 124080, Note_on_c, 0, 87, 87
1, 124080, Note_on_c, 0, 42, 93
1, 124080, Note_on_c, 0, 54, 93
1, 124109, Control_c, 0, 64, 0
1, 124170, Note_on_c, 0, 54, 0
1, 124170, Note_on_c, 0, 42, 0
1, 124200, Note_on_c, 0, 87, 0
1, 124200, Note_on_c, 0, 83, 0
1, 124200, Note_on_c, 0, 75, 79
1, 124320, Tempo, 424028
1, 124320, Note_on_c, 0, 75, 0
1, 124320, Note_on_c, 0, 83, 78
1, 124320, Note_on_c, 0, 88, 92
1, 124320, Note_on_c, 0, 43, 77
1, 124320, Note_on_c, 0, 55, 92
1, 124366, Control_c, 0, 64, 127
1, 124410, Note_on_c, 0, 55, 0
1, 124410, Note_on_c, 0, 43, 0
1, 124440, Note_on_c, 0, 88, 0
1, 124440, Note_on_c, 0, 83, 0
1, 124440, Note_on_c, 0, 76, 81
1, 124560, Note_on_c, 0, 76, 0
1, 124560, Note_on_c, 0, 77, 80
1, 124560, Note_on_c, 0, 86, 95
1, 124560, Note_on_c, 0, 45, 79
1, 124560, Note_on_c, 0, 57, 93
1, 124650, Note_on_c, 0, 57, 0
1, 124650, Note_on_c, 0, 45, 0
1, 124680, Note_on_c, 0, 86, 0
1, 124680, Note_on_c, 0, 77, 0
1, 124680, Note_on_c, 0, 74, 86
1, 124800, Tempo, 418118
1, 124800, Note_on_c, 0, 74, 0
1, 124800, Note_on_c, 0, 73, 93
1, 124800, Note_on_c, 0, 76, 93
1, 124800, Control_c, 0, 64, 0
1, 124800, Note_on_c, 0, 46, 86
1, 124800, Note_on_c, 0, 58, 101
1, 124871, Control_c, 0, 64, 127
1, 124920, Note_on_c, 0, 76, 0
1, 124920, Note_on_c, 0, 73, 0
1, 124920, Note_on_c, 0, 85, 87
1, 125040, Note_on_c, 0, 85, 0
1, 125040, Note_on_c, 0, 76, 87
1, 125040, Note_on_c, 0, 79, 87
1, 125160, Note_on_c, 0, 79, 0
1, 125160, Note_on_c, 0, 76, 0
1, 125160, Note_on_c, 0, 88, 87
1, 125280, Note_on_c, 0, 88, 0
1, 125280, Note_on_c, 0, 46, 0
1, 125280, Note_on_c, 0, 58, 0
1, 125280, Note_on_c, 0, 73, 93
1, 125280, Note_on_c, 0, 76, 93
1, 125280, Note_on_c, 0, 46, 79
1, 125280, Note_on_c, 0, 58, 93
1, 125297, Control_c, 0, 64, 0
1, 125370, Note_on_c, 0, 58, 0
1, 125370, Note_on_c, 0, 46, 0
1, 125400, Note_on_c, 0, 76, 0
1, 125400, Note_on_c, 0, 73, 0
1, 125400, Note_on_c, 0, 85, 86
1, 125520, Tempo, 436364
1, 125520, Note_on_c, 0, 85, 0
1, 125520, Note_on_c, 0, 76, 88
1, 125520, Note_on_c, 0, 79, 88
1, 125520, Note_on_c, 0, 46, 79
1, 125520, Note_on_c, 0, 58, 93
1, 125610, Note_on_c, 0, 58, 0
1, 125610, Note_on_c, 0, 46, 0
1, 125640, Note_on_c, 0, 79, 0
1, 125640, Note_on_c, 0, 76, 0
1, 125640, Note_on_c, 0, 88, 88
1, 125760, Tempo, 418118
1, 125760, Note_on_c, 0, 88, 0
1, 125760, Note_on_c, 0, 82, 95
1, 125760, Note_on_c, 0, 37, 82
1, 125760, Note_on_c, 0, 49, 97
1, 125811, Control_c, 0, 64, 127
1, 125880, Note_on_c, 0, 82, 0
1, 125880, Note_on_c, 0, 94, 90
1, 126000, Note_on_c, 0, 94, 0
1, 126000, Note_on_c, 0, 91, 88
1, 126120, Note_on_c, 0, 91, 0
1, 126120, Note_on_c, 0, 88, 86
1, 126240, Tempo, 428571
1, 126240, Note_on_c, 0, 88, 0
1, 126240, Note_on_c, 0, 82, 85
1, 126360, Note_on_c, 0, 82, 0
1, 126360, Note_on_c, 0, 79, 85
1, 126480, Note_on_c, 0, 79, 0
1, 126480, Note_on_c, 0, 76, 84
1, 126600, Note_on_c, 0, 76, 0
1, 126600, Note_on_c, 0, 70, 83
1, 126720, Tempo, 424028
1, 126720, Note_on_c, 0, 70, 0
1, 126720, Note_on_c, 0, 49, 0
1, 126720, Note_on_c, 0, 37, 0
1, 126720, Note_on_c, 0, 72, 91
1, 126720, Note_on_c, 0, 75, 91
1, 126720, Control_c, 0, 64, 0
1, 126720, Note_on_c, 0, 45, 84
1, 126720, Note_on_c, 0, 57, 98
1, 126780, Control_c, 0, 64, 127
1, 126840, Note_on_c, 0, 75, 0
1, 126840, Note_on_c, 0, 72, 0
1, 126840, Note_on_c, 0, 84, 85
1, 126960, Note_on_c, 0, 84, 0
1, 126960, Note_on_c, 0, 75, 85
1, 126960, Note_on_c, 0, 78, 85
1, 127080, Note_on_c, 0, 78, 0
1, 127080, Note_on_c, 0, 75, 0
1, 127080, Note_on_c, 0, 87, 85
1, 127200, Note_on_c, 0, 87, 0
1, 127200, Note_on_c, 0, 45, 0
1, 127200, Note_on_c, 0, 57, 0
1, 127200, Note_on_c, 0, 72, 91
1, 127200, Note_on_c, 0, 75, 91
1, 127200, Note_on_c, 0, 45, 77
1, 127200, Note_on_c, 0, 57, 91
1, 127229, Control_c, 0, 64, 0
1, 127290, Note_on_c, 0, 57, 0
1, 127290, Note_on_c, 0, 45, 0
1, 127320, Note_on_c, 0, 75, 0
1, 127320, Note_on_c, 0, 72, 0
1, 127320, Note_on_c, 0, 84, 84
1, 127440, Tempo, 439560
1, 127440, Note_on_c, 0, 84, 0
1, 127440, Note_on_c, 0, 75, 86
1, 127440, Note_on_c, 0, 78, 86
1, 127440, Note_on_c, 0, 45, 78
1, 127440, Note_on_c, 0, 57, 92
1, 127530, Note_on_c, 0, 57, 0
1, 127530, Note_on_c, 0, 45, 0
1, 127560, Note_on_c, 0, 78, 0
1, 127560, Note_on_c, 0, 75, 0
1, 127560, Note_on_c, 0, 87, 86
1, 127680, Tempo, 422535
1, 127680, Note_on_c, 0, 87, 0
1, 127680, Note_on_c, 0, 81, 93
1, 127680, Note_on_c, 0, 36, 80
1, 127680, Note_on_c, 0, 48, 95
1, 127726, Control_c, 0, 64, 127
1, 127800, Note_on_c, 0, 81, 0
1, 127800, Note_on_c, 0, 93, 88
1, 127920, Note_on_c, 0, 93, 0
1, 127920, Note_on_c, 0, 90, 86
1, 128040, Note_on_c, 0, 90, 0
1, 128040, Note_on_c, 0, 87, 84
1, 128160, Note_on_c, 0, 87, 0
1, 128160, Note_on_c, 0, 81, 83
1, 128280, Note_on_c, 0, 81, 0
1, 128280, Note_on_c, 0, 78, 83
1, 128400, Note_on_c, 0, 78, 0
1, 128400, Note_on_c, 0, 75, 82
1, 128520, Note_on_c, 0, 75, 0
1, 128520, Note_on_c, 0, 69, 81
1, 128640, Tempo, 419580
1, 128640, Note_on_c, 0, 69, 0
1, 128640, Note_on_c, 0, 48, 0
1, 128640, Note_on_c, 0, 36, 0
1, 128640, Note_on_c, 0, 67, 84
1, 128640, Control_c, 0, 64, 0
1, 128640, Note_on_c, 0, 35, 79
1, 128640, Note_on_c, 0, 47, 93
1, 128730, Note_on_c, 0, 47, 0
1, 128730, Note_on_c, 0, 35, 0
1, 128760, Note_on_c, 0, 67, 0
1, 128760, Note_on_c, 0, 79, 75
1, 128880, Note_on_c, 0, 79, 0
1, 128880, Note_on_c, 0, 74, 75
1, 128880, Note_on_c, 0, 38, 80
1, 128880, Note_on_c, 0, 50, 94
1, 128970, Note_on_c, 0, 50, 0
1, 128970, Note_on_c, 0, 38, 0
1, 129000, Note_on_c, 0, 74, 0
1, 129000, Note_on_c, 0, 71, 74
1, 129120, Note_on_c, 0, 71, 0
1, 129120, Note_on_c, 0, 74, 80
1, 129120, Note_on_c, 0, 43, 84
1, 129120, Note_on_c, 0, 55, 99
1, 129210, Note_on_c, 0, 55, 0
1, 129210, Note_on_c, 0, 43, 0
1, 129240, Note_on_c, 0, 74, 0
1, 129240, Note_on_c, 0, 86, 75
1, 129360, Note_on_c, 0, 86, 0
1, 129360, Note_on_c, 0, 83, 75
1, 129360, Note_on_c, 0, 41, 80
1, 129360, Note_on_c, 0, 53, 94
1, 129450, Note_on_c, 0, 53, 0
1, 129450, Note_on_c, 0, 41, 0
1, 129480, Note_on_c, 0, 83, 0
1, 129480, Note_on_c, 0, 79, 75
1, 129600, Note_on_c, 0, 79, 0
1, 129600, Note_on_c, 0, 84, 62
1, 129600, Note_on_c, 0, 88, 73
1, 129600, Note_on_c, 0, 40, 81
1, 129600, Note_on_c, 0, 52, 96
1, 129664, Control_c, 0, 64, 127
1, 129690, Note_on_c, 0, 52, 0
1, 129690, Note_on_c, 0, 40, 0
1, 129720, Note_on_c, 0, 88, 0
1, 129720, Note_on_c, 0, 84, 0
1, 129720, Note_on_c, 0, 76, 74
1, 129840, Note_on_c, 0, 76, 0
1, 129840, Note_on_c, 0, 86, 64
1, 129840, Note_on_c, 0, 89, 76
1, 129840, Note_on_c, 0, 36, 79
1, 129840, Note_on_c, 0, 48, 93
1, 129845, Control_c, 0, 64, 0
1, 129930, Note_on_c, 0, 48, 0
1, 129930, Note_on_c, 0, 36, 0
1, 129939, Control_c, 0, 64, 127
1, 129960, Note_on_c, 0, 89, 0
1, 129960, Note_on_c, 0, 86, 0
1, 129960, Note_on_c, 0, 77, 78
1, 130080, Note_on_c, 0, 77, 0
1, 130080, Note_on_c, 0, 88, 67
1, 130080, Note_on_c, 0, 91, 79
1, 130080, Note_on_c, 0, 35, 79
1, 130080, Note_on_c, 0, 47, 93
1, 130100, Control_c, 0, 64, 0
1, 130170, Note_on_c, 0, 47, 0
1, 130170, Note_on_c, 0, 35, 0
1, 130200, Note_on_c, 0, 91, 0
1, 130200, Note_on_c, 0, 88, 0
1, 130200, Note_on_c, 0, 79, 81
1, 130207, Control_c, 0, 64, 127
1, 130320, Note_on_c, 0, 79, 0
1, 130320, Note_on_c, 0, 89, 70
1, 130320, Note_on_c, 0, 93, 83
1, 130320, Note_on_c, 0, 33, 79
1, 130320, Note_on_c, 0, 45, 93
1, 130326, Control_c, 0, 64, 0
1, 130405, Control_c, 0, 64, 127
1, 130410, Note_on_c, 0, 45, 0
1, 130410, Note_on_c, 0, 33, 0
1, 130440, Note_on_c, 0, 93, 0
1, 130440, Note_on_c, 0, 89, 0
1, 130440, Note_on_c, 0, 81, 84
1, 130560, Note_on_c, 0, 81, 0
1, 130560, Note_on_c, 0, 86, 72
1, 130560, Note_on_c, 0, 91, 72
1, 130560, Note_on_c, 0, 95, 85
1, 130560, Control_c, 0, 64, 0
1, 130560, Note_on_c, 0, 41, 87
1, 130600, Tempo, 419580
1, 130624, Control_c, 0, 64, 127
1, 130650, Note_on_c, 0, 41, 0
1, 130680, Note_on_c, 0, 86, 0
1, 130680, Note_on_c, 0, 91, 0
1, 130680, Note_on_c, 0, 95, 0
1, 130680, Note_on_c, 0, 83, 86
1, 130680, Note_on_c, 0, 53, 88
1, 130720, Tempo, 421053
1, 130770, Note_on_c, 0, 53, 0
1, 130800, Tempo, 422535
1, 130800, Note_on_c, 0, 83, 0
1, 130800, Note_on_c, 0, 86, 73
1, 130800, Note_on_c, 0, 91, 73
1, 130800, Note_on_c, 0, 95, 87
1, 130800, Note_on_c, 0, 41, 89
1, 130880, Tempo, 424028
1, 130890, Note_on_c, 0, 41, 0
1, 130920, Note_on_c, 0, 86, 0
1, 130920, Note_on_c, 0, 91, 0
1, 130920, Note_on_c, 0, 95, 0
1, 130920, Note_on_c, 0, 83, 89
1, 130920, Note_on_c, 0, 53, 91
1, 130960, Tempo, 425532
1, 131010, Note_on_c, 0, 53, 0
1, 131040, Tempo, 427046
1, 131040, Note_on_c, 0, 83, 0
1, 131040, Note_on_c, 0, 96, 90
1, 131040, Note_on_c, 0, 91, 76
1, 131040, Note_on_c, 0, 40, 92
1, 131051, Control_c, 0, 64, 0
1, 131120, Tempo, 428571
1, 131130, Note_on_c, 0, 40, 0
1, 131139, Control_c, 0, 64, 127
1, 131160, Note_on_c, 0, 91, 0
1, 131160, Note_on_c, 0, 96, 0
1, 131160, Note_on_c, 0, 84, 92
1, 131160, Note_on_c, 0, 52, 93
1, 131200, Tempo, 430108
1, 131250, Note_on_c, 0, 52, 0
1, 131280, Tempo, 431655
1, 131280, Note_on_c, 0, 84, 0
1, 131280, Note_on_c, 0, 96, 93
1, 131280, Note_on_c, 0, 91, 79
1, 131280, Note_on_c, 0, 40, 94
1, 131360, Tempo, 433213
1, 131370, Note_on_c, 0, 40, 0
1, 131400, Note_on_c, 0, 91, 0
1, 131400, Note_on_c, 0, 96, 0
1, 131400, Note_on_c, 0, 84, 94
1, 131400, Note_on_c, 0, 52, 96
1, 131440, Tempo, 434783
1, 131490, Note_on_c, 0, 52, 0
1, 131520, Tempo, 436364
1, 131520, Note_on_c, 0, 84, 0
1, 131520, Note_on_c, 0, 101, 94
1, 131520, Note_on_c, 0, 96, 79
1, 131520, Note_on_c, 0, 38, 97
1, 131527, Control_c, 0, 64, 0
1, 131610, Note_on_c, 0, 38, 0
1, 131619, Control_c, 0, 64, 127
1, 131640, Note_on_c, 0, 96, 0
1, 131640, Note_on_c, 0, 101, 0
1, 131640, Note_on_c, 0, 89, 94
1, 131640, Note_on_c, 0, 50, 94
1, 131730, Note_on_c, 0, 50, 0
1, 131760, Note_on_c, 0, 89, 0
1, 131760, Note_on_c, 0, 101, 94
1, 131760, Note_on_c, 0, 96, 79
1, 131760, Note_on_c, 0, 38, 97
1, 131850, Note_on_c, 0, 38, 0
1, 131880, Note_on_c, 0, 96, 0
1, 131880, Note_on_c, 0, 101, 0
1, 131880, Note_on_c, 0, 89, 94
1, 131880, Note_on_c, 0, 50, 92
1, 131960, Tempo, 436364
1, 131970, Note_on_c, 0, 50, 0
1, 132000, Tempo, 441176
1, 132000, Note_on_c, 0, 89, 0
1, 132000, Note_on_c, 0, 95, 79
1, 132000, Note_on_c, 0, 101, 94
1, 132000, Note_on_c, 0, 43, 97
1, 132010, Control_c, 0, 64, 0
1, 132040, Tempo, 446097
1, 132049, Control_c, 0, 64, 127
1, 132080, Tempo, 452830
1, 132090, Note_on_c, 0, 43, 0
1, 132120, Tempo, 459770
1, 132120, Note_on_c, 0, 101, 0
1, 132120, Note_on_c, 0, 95, 0
1, 132120, Note_on_c, 0, 89, 94
1, 132120, Note_on_c, 0, 55, 92
1, 132160, Tempo, 466926
1, 132200, Tempo, 474308
1, 132210, Note_on_c, 0, 55, 0
1, 132240, Tempo, 481928
1, 132240, Note_on_c, 0, 89, 0
1, 132240, Note_on_c, 0, 95, 79
1, 132240, Note_on_c, 0, 101, 94
1, 132240, Note_on_c, 0, 43, 92
1, 132280, Tempo, 487805
1, 132320, Tempo, 495868
1, 132330, Note_on_c, 0, 43, 0
1, 132360, Tempo, 504202
1, 132360, Note_on_c, 0, 101, 0
1, 132360, Note_on_c, 0, 95, 0
1, 132360, Note_on_c, 0, 89, 94
1, 132360, Note_on_c, 0, 55, 92
1, 132400, Tempo, 512821
1, 132440, Tempo, 521739
1, 132450, Note_on_c, 0, 55, 0
1, 132480, Tempo, 597015
1, 132480, Note_on_c, 0, 89, 0
1, 132480, Note_on_c, 0, 88, 80
1, 132480, Note_on_c, 0, 95, 84
1, 132480, Note_on_c, 0, 100, 99
1, 132480, Control_c, 0, 64, 0
1, 132480, Note_on_c, 0, 44, 82
1, 132480, Note_on_c, 0, 56, 101
1, 132810, Note_on_c, 0, 56, 0
1, 132810, Note_on_c, 0, 100, 0
1, 132810, Note_on_c, 0, 88, 0
1, 132810, Note_on_c, 0, 95, 0
1, 132810, Note_on_c, 0, 44, 0
1, 132840, Note_on_c, 0, 52, 79
1, 132840, Note_on_c, 0, 59, 79
1, 132840, Note_on_c, 0, 64, 94
1, 132840, Note_on_c, 0, 32, 78
1, 132840, Note_on_c, 0, 44, 92
1, 132930, Note_on_c, 0, 44, 0
1, 132930, Note_on_c, 0, 64, 0
1, 132930, Note_on_c, 0, 52, 0
1, 132930, Note_on_c, 0, 59, 0
1, 132930, Note_on_c, 0, 32, 0
1, 132960, Tempo, 576923
1, 132960, Note_on_c, 0, 64, 88
1, 132960, Note_on_c, 0, 52, 74
1, 132960, Note_on_c, 0, 59, 74
1, 132960, Note_on_c, 0, 32, 73
1, 132960, Note_on_c, 0, 44, 86
1, 133920, Note_on_c, 0, 64, 0
1, 133920, Note_on_c, 0, 62, 65
1, 134400, Tempo, 444444
1, 134400, Note_on_c, 0, 62, 0
1, 134400, Note_on_c, 0, 44, 0
1, 134400, Note_on_c, 0, 52, 0
1, 134400, Note_on_c, 0, 59, 0
1, 134400, Note_on_c, 0, 32, 0
1, 134400, Note_on_c, 0, 58, 35
1, 134400, Note_on_c, 0, 61, 42
1, 134400, Note_on_c, 0, 31, 34
1, 134478, Control_c, 0, 64, 127
1, 134520, Tempo, 442804
1, 134520, Note_on_c, 0, 31, 0
1, 134520, Note_on_c, 0, 61, 0
1, 134520, Note_on_c, 0, 58, 0
1, 134520, Note_on_c, 0, 52, 42
1, 134520, Note_on_c, 0, 43, 34
1, 134620, Tempo, 441176
1, 134640, Note_on_c, 0, 43, 0
1, 134640, Note_on_c, 0, 52, 0
1, 134640, Note_on_c, 0, 58, 36
1, 134640, Note_on_c, 0, 61, 43
1, 134640, Note_on_c, 0, 31, 35
1, 134720, Tempo, 439560
1, 134760, Note_on_c, 0, 31, 0
1, 134760, Note_on_c, 0, 61, 0
1, 134760, Note_on_c, 0, 58, 0
1, 134760, Note_on_c, 0, 52, 43
1, 134760, Note_on_c, 0, 43, 35
1, 134820, Tempo, 437956
1, 134880, Note_on_c, 0, 43, 0
1, 134880, Note_on_c, 0, 52, 0
1, 134880, Note_on_c, 0, 61, 44
1, 134880, Note_on_c, 0, 58, 37
1, 134880, Note_on_c, 0, 31, 36
1, 134920, Tempo, 436364
1, 135000, Note_on_c, 0, 31, 0
1, 135000, Note_on_c, 0, 58, 0
1, 135000, Note_on_c, 0, 61, 0
1, 135000, Note_on_c, 0, 52, 45
1, 135000, Note_on_c, 0, 43, 36
1, 135020, Tempo, 434783
1, 135120, Tempo, 433213
1, 135120, Note_on_c, 0, 43, 0
1, 135120, Note_on_c, 0, 52, 0
1, 135120, Note_on_c, 0, 58, 38
1, 135120, Note_on_c, 0, 61, 45
1, 135120, Note_on_c, 0, 31, 37
1, 135220, Tempo, 431655
1, 135240, Note_on_c, 0, 31, 0
1, 135240, Note_on_c, 0, 61, 0
1, 135240, Note_on_c, 0, 58, 0
1, 135240, Note_on_c, 0, 52, 46
1, 135240, Note_on_c, 0, 43, 37
1, 135320, Tempo, 430108
1, 135360, Note_on_c, 0, 43, 0
1, 135360, Note_on_c, 0, 52, 0
1, 135360, Note_on_c, 0, 61, 39
1, 135360, Note_on_c, 0, 64, 46
1, 135360, Note_on_c, 0, 31, 38
1, 135420, Tempo, 428571
1, 135480, Note_on_c, 0, 31, 0
1, 135480, Note_on_c, 0, 64, 0
1, 135480, Note_on_c, 0, 61, 0
1, 135480, Note_on_c, 0, 58, 47
1, 135480, Note_on_c, 0, 43, 38
1, 135520, Tempo, 427046
1, 135600, Note_on_c, 0, 43, 0
1, 135600, Note_on_c, 0, 58, 0
1, 135600, Note_on_c, 0, 61, 39
1, 135600, Note_on_c, 0, 64, 47
1, 135600, Note_on_c, 0, 31, 39
1, 135620, Tempo, 425532
1, 135720, Tempo, 424028
1, 135720, Note_on_c, 0, 31, 0
1, 135720, Note_on_c, 0, 64, 0
1, 135720, Note_on_c, 0, 61, 0
1, 135720, Note_on_c, 0, 58, 48
1, 135720, Note_on_c, 0, 43, 39
1, 135820, Tempo, 422535
1, 135840, Note_on_c, 0, 43, 0
1, 135840, Note_on_c, 0, 58, 0
1, 135840, Note_on_c, 0, 61, 40
1, 135840, Note_on_c, 0, 64, 48
1, 135840, Note_on_c, 0, 31, 40
1, 135920, Tempo, 421053
1, 135960, Note_on_c, 0, 31, 0
1, 135960, Note_on_c, 0, 64, 0
1, 135960, Note_on_c, 0, 61, 0
1, 135960, Note_on_c, 0, 58, 49
1, 135960, Note_on_c, 0, 43, 40
1, 136020, Tempo, 419580
1, 136080, Note_on_c, 0, 43, 0
1, 136080, Note_on_c, 0, 58, 0
1, 136080, Note_on_c, 0, 61, 42
1, 136080, Note_on_c, 0, 64, 50
1, 136080, Note_on_c, 0, 31, 41
1, 136120, Tempo, 418118
1, 136200, Note_on_c, 0, 31, 0
1, 136200, Note_on_c, 0, 64, 0
1, 136200, Note_on_c, 0, 61, 0
1, 136200, Note_on_c, 0, 58, 50
1, 136200, Note_on_c, 0, 43, 41
1, 136220, Tempo, 416667
1, 136320, Tempo, 412371
1, 136320, Note_on_c, 0, 43, 0
1, 136320, Note_on_c, 0, 58, 0
1, 136320, Note_on_c, 0, 64, 42
1, 136320, Note_on_c, 0, 70, 50
1, 136320, Note_on_c, 0, 43, 46
1, 136329, Control_c, 0, 64, 0
1, 136352, Control_c, 0, 64, 127
1, 136420, Tempo, 410959
1, 136440, Note_on_c, 0, 43, 0
1, 136440, Note_on_c, 0, 70, 0
1, 136440, Note_on_c, 0, 64, 0
1, 136440, Note_on_c, 0, 61, 52
1, 136440, Note_on_c, 0, 55, 43
1, 136520, Tempo, 409556
1, 136560, Note_on_c, 0, 55, 0
1, 136560, Note_on_c, 0, 61, 0
1, 136560, Note_on_c, 0, 64, 45
1, 136560, Note_on_c, 0, 70, 54
1, 136560, Note_on_c, 0, 43, 45
1, 136620, Tempo, 408163
1, 136680, Note_on_c, 0, 43, 0
1, 136680, Note_on_c, 0, 70, 0
1, 136680, Note_on_c, 0, 64, 0
1, 136680, Note_on_c, 0, 61, 56
1, 136680, Note_on_c, 0, 55, 47
1, 136700, Tempo, 406780
1, 136800, Tempo, 405405
1, 136800, Note_on_c, 0, 55, 0
1, 136800, Note_on_c, 0, 61, 0
1, 136800, Note_on_c, 0, 70, 51
1, 136800, Note_on_c, 0, 73, 61
1, 136800, Note_on_c, 0, 43, 49
1, 136900, Tempo, 404040
1, 136920, Note_on_c, 0, 43, 0
1, 136920, Note_on_c, 0, 73, 0
1, 136920, Note_on_c, 0, 70, 0
1, 136920, Note_on_c, 0, 64, 64
1, 136920, Note_on_c, 0, 55, 51
1, 136980, Tempo, 402685
1, 137040, Note_on_c, 0, 55, 0
1, 137040, Note_on_c, 0, 64, 0
1, 137040, Note_on_c, 0, 70, 56
1, 137040, Note_on_c, 0, 73, 66
1, 137040, Note_on_c, 0, 43, 53
1, 137080, Tempo, 401338
1, 137160, Note_on_c, 0, 43, 0
1, 137160, Note_on_c, 0, 73, 0
1, 137160, Note_on_c, 0, 70, 0
1, 137160, Note_on_c, 0, 64, 70
1, 137160, Note_on_c, 0, 55, 56
1, 137180, Tempo, 400000
1, 137260, Tempo, 398671
1, 137280, Note_on_c, 0, 55, 0
1, 137280, Note_on_c, 0, 64, 0
1, 137280, Note_on_c, 0, 73, 61
1, 137280, Note_on_c, 0, 76, 72
1, 137280, Note_on_c, 0, 55, 57
1, 137306, Control_c, 0, 64, 0
1, 137329, Control_c, 0, 64, 127
1, 137360, Tempo, 397351
1, 137400, Note_on_c, 0, 55, 0
1, 137400, Note_on_c, 0, 76, 0
1, 137400, Note_on_c, 0, 73, 0
1, 137400, Note_on_c, 0, 70, 75
1, 137400, Note_on_c, 0, 67, 59
1, 137460, Tempo, 396040
1, 137520, Note_on_c, 0, 67, 0
1, 137520, Note_on_c, 0, 70, 0
1, 137520, Note_on_c, 0, 76, 65
1, 137520, Note_on_c, 0, 82, 78
1, 137520, Note_on_c, 0, 55, 61
1, 137540, Tempo, 394737
1, 137640, Tempo, 393443
1, 137640, Note_on_c, 0, 55, 0
1, 137640, Note_on_c, 0, 82, 0
1, 137640, Note_on_c, 0, 76, 0
1, 137640, Note_on_c, 0, 73, 81
1, 137640, Note_on_c, 0, 67, 63
1, 137740, Tempo, 392157
1, 137760, Note_on_c, 0, 67, 0
1, 137760, Note_on_c, 0, 73, 0
1, 137760, Note_on_c, 0, 82, 70
1, 137760, Note_on_c, 0, 85, 83
1, 137760, Note_on_c, 0, 55, 65
1, 137820, Tempo, 390879
1, 137880, Note_on_c, 0, 55, 0
1, 137880, Note_on_c, 0, 85, 0
1, 137880, Note_on_c, 0, 82, 0
1, 137880, Note_on_c, 0, 76, 87
1, 137880, Note_on_c, 0, 67, 68
1, 137920, Tempo, 389610
1, 138000, Note_on_c, 0, 67, 0
1, 138000, Note_on_c, 0, 76, 0
1, 138000, Note_on_c, 0, 88, 89
1, 138000, Note_on_c, 0, 85, 75
1, 138000, Note_on_c, 0, 55, 70
1, 138020, Tempo, 388350
1, 138100, Tempo, 387097
1, 138104, Tempo, 398671
1, 138120, Tempo, 600000
1, 138120, Note_on_c, 0, 55, 0
1, 138120, Note_on_c, 0, 85, 0
1, 138120, Note_on_c, 0, 88, 0
1, 138120, Note_on_c, 0, 82, 92
1, 138120, Note_on_c, 0, 67, 72
1, 138240, Tempo, 449438
1, 138240, Note_on_c, 0, 67, 0
1, 138240, Note_on_c, 0, 82, 0
1, 138240, Note_on_c, 0, 89, 104
1, 138240, Note_on_c, 0, 86, 88
1, 138240, Note_on_c, 0, 81, 88
1, 138240, Note_on_c, 0, 65, 85
1, 138240, Note_on_c, 0, 53, 72
1, 138246, Control_c, 0, 64, 0
1, 138427, Control_c, 0, 64, 127
1, 138720, Tempo, 466926
1, 138720, Note_on_c, 0, 53, 0
1, 138720, Note_on_c, 0, 81, 0
1, 138720, Note_on_c, 0, 89, 0
1, 138720, Note_on_c, 0, 86, 0
1, 138720, Note_on_c, 0, 65, 0
1, 138720, Note_on_c, 0, 93, 99
1, 138720, Note_on_c, 0, 89, 83
1, 138720, Note_on_c, 0, 86, 83
1, 138720, Note_on_c, 0, 81, 83
1, 138720, Note_on_c, 0, 62, 83
1, 138720, Note_on_c, 0, 50, 71
1, 138728, Control_c, 0, 64, 0
1, 138933, Control_c, 0, 64, 127
1, 139200, Tempo, 451128
1, 139200, Note_on_c, 0, 50, 0
1, 139200, Note_on_c, 0, 89, 0
1, 139200, Note_on_c, 0, 86, 0
1, 139200, Note_on_c, 0, 93, 0
1, 139200, Note_on_c, 0, 62, 0
1, 139200, Note_on_c, 0, 81, 0
1, 139200, Note_on_c, 0, 88, 104
1, 139200, Note_on_c, 0, 84, 88
1, 139200, Note_on_c, 0, 79, 88
1, 139200, Note_on_c, 0, 76, 88
1, 139200, Note_on_c, 0, 67, 86
1, 139200, Note_on_c, 0, 55, 73
1, 139209, Control_c, 0, 64, 0
1, 139360, Control_c, 0, 64, 127
1, 139680, Tempo, 481928
1, 139680, Note_on_c, 0, 55, 0
1, 139680, Note_on_c, 0, 84, 0
1, 139680, Note_on_c, 0, 79, 0
1, 139680, Note_on_c, 0, 88, 0
1, 139680, Note_on_c, 0, 67, 0
1, 139680, Note_on_c, 0, 76, 0
1, 139680, Note_on_c, 0, 86, 101
1, 139680, Note_on_c, 0, 83, 84
1, 139680, Note_on_c, 0, 79, 84
1, 139680, Note_on_c, 0, 74, 84
1, 139680, Note_on_c, 0, 43, 70
1, 139680, Note_on_c, 0, 55, 82
1, 139690, Control_c, 0, 64, 0
1, 139840, Control_c, 0, 64, 127
1, 140160, Tempo, 530973
1, 140160, Note_on_c, 0, 55, 0
1, 140160, Note_on_c, 0, 83, 0
1, 140160, Note_on_c, 0, 79, 0
1, 140160, Note_on_c, 0, 86, 0
1, 140160, Note_on_c, 0, 43, 0
1, 140160, Note_on_c, 0, 74, 0
1, 140160, Note_on_c, 0, 76, 89
1, 140160, Note_on_c, 0, 83, 92
1, 140160, Note_on_c, 0, 88, 108
1, 140160, Control_c, 0, 64, 0
1, 140160, Note_on_c, 0, 44, 82
1, 140160, Note_on_c, 0, 56, 99
1, 140490, Note_on_c, 0, 56, 0
1, 140490, Note_on_c, 0, 88, 0
1, 140490, Note_on_c, 0, 76, 0
1, 140490, Note_on_c, 0, 83, 0
1, 140490, Note_on_c, 0, 44, 0
1, 140520, Note_on_c, 0, 52, 85
1, 140520, Note_on_c, 0, 59, 85
1, 140520, Note_on_c, 0, 64, 100
1, 140520, Note_on_c, 0, 32, 79
1, 140520, Note_on_c, 0, 44, 94
1, 140610, Note_on_c, 0, 44, 0
1, 140610, Note_on_c, 0, 64, 0
1, 140610, Note_on_c, 0, 52, 0
1, 140610, Note_on_c, 0, 59, 0
1, 140610, Note_on_c, 0, 32, 0
1, 140640, Note_on_c, 0, 64, 94
1, 140640, Note_on_c, 0, 52, 79
1, 140640, Note_on_c, 0, 59, 79
1, 140640, Note_on_c, 0, 32, 70
1, 140640, Note_on_c, 0, 44, 83
1, 141600, Note_on_c, 0, 64, 0
1, 141600, Note_on_c, 0, 62, 65
1, 142080, Tempo, 444444
1, 142080, Note_on_c, 0, 62, 0
1, 142080, Note_on_c, 0, 44, 0
1, 142080, Note_on_c, 0, 52, 0
1, 142080, Note_on_c, 0, 59, 0
1, 142080, Note_on_c, 0, 32, 0
1, 142080, Note_on_c, 0, 58, 35
1, 142080, Note_on_c, 0, 61, 42
1, 142080, Note_on_c, 0, 31, 34
1, 142158, Control_c, 0, 64, 127
1, 142200, Tempo, 442804
1, 142200, Note_on_c, 0, 31, 0
1, 142200, Note_on_c, 0, 61, 0
1, 142200, Note_on_c, 0, 58, 0
1, 142200, Note_on_c, 0, 52, 42
1, 142200, Note_on_c, 0, 43, 34
1, 142300, Tempo, 441176
1, 142320, Note_on_c, 0, 43, 0
1, 142320, Note_on_c, 0, 52, 0
1, 142320, Note_on_c, 0, 58, 36
1, 142320, Note_on_c, 0, 61, 43
1, 142320, Note_on_c, 0, 31, 35
1, 142400, Tempo, 439560
1, 142440, Note_on_c, 0, 31, 0
1, 142440, Note_on_c, 0, 61, 0
1, 142440, Note_on_c, 0, 58, 0
1, 142440, Note_on_c, 0, 52, 43
1, 142440, Note_on_c, 0, 43, 35
1, 142500, Tempo, 437956
1, 142560, Note_on_c, 0, 43, 0
1, 142560, Note_on_c, 0, 52, 0
1, 142560, Note_on_c, 0, 61, 44
1, 142560, Note_on_c, 0, 58, 37
1, 142560, Note_on_c, 0, 31, 36
1, 142600, Tempo, 436364
1, 142680, Note_on_c, 0, 31, 0
1, 142680, Note_on_c, 0, 58, 0
1, 142680, Note_on_c, 0, 61, 0
1, 142680, Note_on_c, 0, 52, 45
1, 142680, Note_on_c, 0, 43, 36
1, 142700, Tempo, 434783
1, 142800, Tempo, 433213
1, 142800, Note_on_c, 0, 43, 0
1, 142800, Note_on_c, 0, 52, 0
1, 142800, Note_on_c, 0, 58, 38
1, 142800, Note_on_c, 0, 61, 45
1, 142800, Note_on_c, 0, 31, 37
1, 142900, Tempo, 431655
1, 142920, Note_on_c, 0, 31, 0
1, 142920, Note_on_c, 0, 61, 0
1, 142920, Note_on_c, 0, 58, 0
1, 142920, Note_on_c, 0, 52, 46
1, 142920, Note_on_c, 0, 43, 37
1, 143000, Tempo, 430108
1, 143040, Note_on_c, 0, 43, 0
1, 143040, Note_on_c, 0, 52, 0
1, 143040, Note_on_c, 0, 61, 39
1, 143040, Note_on_c, 0, 64, 46
1, 143040, Note_on_c, 0, 31, 38
1, 143100, Tempo, 428571
1, 143160, Note_on_c, 0, 31, 0
1, 143160, Note_on_c, 0, 64, 0
1, 143160, Note_on_c, 0, 61, 0
1, 143160, Note_on_c, 0, 58, 47
1, 143160, Note_on_c, 0, 43, 38
1, 143200, Tempo, 427046
1, 143280, Note_on_c, 0, 43, 0
1, 143280, Note_on_c, 0, 58, 0
1, 143280, Note_on_c, 0, 61, 39
1, 143280, Note_on_c, 0, 64, 47
1, 143280, Note_on_c, 0, 31, 39
1, 143300, Tempo, 425532
1, 143400, Tempo, 424028
1, 143400, Note_on_c, 0, 31, 0
1, 143400, Note_on_c, 0, 64, 0
1, 143400, Note_on_c, 0, 61, 0
1, 143400, Note_on_c, 0, 58, 48
1, 143400, Note_on_c, 0, 43, 39
1, 143500, Tempo, 422535
1, 143520, Note_on_c, 0, 43, 0
1, 143520, Note_on_c, 0, 58, 0
1, 143520, Note_on_c, 0, 61, 40
1, 143520, Note_on_c, 0, 64, 48
1, 143520, Note_on_c, 0, 31, 40
1, 143600, Tempo, 421053
1, 143640, Note_on_c, 0, 31, 0
1, 143640, Note_on_c, 0, 64, 0
1, 143640, Note_on_c, 0, 61, 0
1, 143640, Note_on_c, 0, 58, 49
1, 143640, Note_on_c, 0, 43, 40
1, 143700, Tempo, 419580
1, 143760, Note_on_c, 0, 43, 0
1, 143760, Note_on_c, 0, 58, 0
1, 143760, Note_on_c, 0, 61, 42
1, 143760, Note_on_c, 0, 64, 50
1, 143760, Note_on_c, 0, 31, 41
1, 143800, Tempo, 418118
1, 143880, Note_on_c, 0, 31, 0
1, 143880, Note_on_c, 0, 64, 0
1, 143880, Note_on_c, 0, 61, 0
1, 143880, Note_on_c, 0, 58, 50
1, 143880, Note_on_c, 0, 43, 41
1, 143900, Tempo, 416667
1, 144000, Tempo, 412371
1, 144000, Note_on_c, 0, 43, 0
1, 144000, Note_on_c, 0, 58, 0
1, 144000, Note_on_c, 0, 64, 42
1, 144000, Note_on_c, 0, 70, 50
1, 144000, Note_on_c, 0, 43, 46
1, 144010, Control_c, 0, 64, 0
1, 144030, Control_c, 0, 64, 127
1, 144100, Tempo, 410959
1, 144120, Note_on_c, 0, 43, 0
1, 144120, Note_on_c, 0, 70, 0
1, 144120, Note_on_c, 0, 64, 0
1, 144120, Note_on_c, 0, 61, 52
1, 144120, Note_on_c, 0, 55, 43
1, 144200, Tempo, 409556
1, 144240, Note_on_c, 0, 55, 0
1, 144240, Note_on_c, 0, 61, 0
1, 144240, Note_on_c, 0, 64, 45
1, 144240, Note_on_c, 0, 70, 54
1, 144240, Note_on_c, 0, 43, 45
1, 144300, Tempo, 408163
1, 144360, Note_on_c, 0, 43, 0
1, 144360, Note_on_c, 0, 70, 0
1, 144360, Note_on_c, 0, 64, 0
1, 144360, Note_on_c, 0, 61, 56
1, 144360, Note_on_c, 0, 55, 47
1, 144380, Tempo, 406780
1, 144480, Tempo, 405405
1, 144480, Note_on_c, 0, 55, 0
1, 144480, Note_on_c, 0, 61, 0
1, 144480, Note_on_c, 0, 70, 51
1, 144480, Note_on_c, 0, 73, 61
1, 144480, Note_on_c, 0, 43, 49
1, 144580, Tempo, 404040
1, 144600, Note_on_c, 0, 43, 0
1, 144600, Note_on_c, 0, 73, 0
1, 144600, Note_on_c, 0, 70, 0
1, 144600, Note_on_c, 0, 64, 64
1, 144600, Note_on_c, 0, 55, 51
1, 144660, Tempo, 402685
1, 144720, Note_on_c, 0, 55, 0
1, 144720, Note_on_c, 0, 64, 0
1, 144720, Note_on_c, 0, 70, 56
1, 144720, Note_on_c, 0, 73, 66
1, 144720, Note_on_c, 0, 43, 53
1, 144760, Tempo, 401338
1, 144840, Note_on_c, 0, 43, 0
1, 144840, Note_on_c, 0, 73, 0
1, 144840, Note_on_c, 0, 70, 0
1, 144840, Note_on_c, 0, 64, 70
1, 144840, Note_on_c, 0, 55, 56
1, 144860, Tempo, 400000
1, 144940, Tempo, 398671
1, 144960, Note_on_c, 0, 55, 0
1, 144960, Note_on_c, 0, 64, 0
1, 144960, Note_on_c, 0, 73, 61
1, 144960, Note_on_c, 0, 76, 72
1, 144960, Note_on_c, 0, 55, 57
1, 144984, Control_c, 0, 64, 0
1, 145009, Control_c, 0, 64, 127
1, 145040, Tempo, 397351
1, 145080, Note_on_c, 0, 55, 0
1, 145080, Note_on_c, 0, 76, 0
1, 145080, Note_on_c, 0, 73, 0
1, 145080, Note_on_c, 0, 70, 75
1, 145080, Note_on_c, 0, 67, 59
1, 145140, Tempo, 396040
1, 145200, Note_on_c, 0, 67, 0
1, 145200, Note_on_c, 0, 70, 0
1, 145200, Note_on_c, 0, 76, 65
1, 145200, Note_on_c, 0, 82, 78
1, 145200, Note_on_c, 0, 55, 61
1, 145220, Tempo, 394737
1, 145320, Tempo, 393443
1, 145320, Note_on_c, 0, 55, 0
1, 145320, Note_on_c, 0, 82, 0
1, 145320, Note_on_c, 0, 76, 0
1, 145320, Note_on_c, 0, 73, 81
1, 145320, Note_on_c, 0, 67, 63
1, 145420, Tempo, 392157
1, 145440, Note_on_c, 0, 67, 0
1, 145440, Note_on_c, 0, 73, 0
1, 145440, Note_on_c, 0, 82, 70
1, 145440, Note_on_c, 0, 85, 83
1, 145440, Note_on_c, 0, 55, 65
1, 145500, Tempo, 390879
1, 145560, Note_on_c, 0, 55, 0
1, 145560, Note_on_c, 0, 85, 0
1, 145560, Note_on_c, 0, 82, 0
1, 145560, Note_on_c, 0, 76, 87
1, 145560, Note_on_c, 0, 67, 68
1, 145600, Tempo, 389610
1, 145680, Note_on_c, 0, 67, 0
1, 145680, Note_on_c, 0, 76, 0
1, 145680, Note_on_c, 0, 88, 89
1, 145680, Note_on_c, 0, 85, 75
1, 145680, Note_on_c, 0, 55, 70
1, 145700, Tempo, 388350
1, 145780, Tempo, 387097
1, 145784, Tempo, 398671
1, 145800, Tempo, 600000
1, 145800, Note_on_c, 0, 55, 0
1, 145800, Note_on_c, 0, 85, 0
1, 145800, Note_on_c, 0, 88, 0
1, 145800, Note_on_c, 0, 82, 92
1, 145800, Note_on_c, 0, 67, 72
1, 145920, Tempo, 428571
1, 145920, Note_on_c, 0, 67, 0
1, 145920, Note_on_c, 0, 82, 0
1, 145920, Note_on_c, 0, 82, 82
1, 145920, Note_on_c, 0, 77, 82
1, 145920, Note_on_c, 0, 86, 82
1, 145920, Note_on_c, 0, 89, 98
1, 145920, Control_c, 0, 64, 0
1, 145920, Note_on_c, 0, 29, 72
1, 145920, Note_on_c, 0, 41, 86
1, 145982, Control_c, 0, 64, 127
1, 146280, Tempo, 396040
1, 146280, Note_on_c, 0, 41, 0
1, 146280, Note_on_c, 0, 77, 0
1, 146280, Note_on_c, 0, 86, 0
1, 146280, Note_on_c, 0, 82, 0
1, 146280, Note_on_c, 0, 29, 0
1, 146280, Note_on_c, 0, 89, 0
1, 146280, Note_on_c, 0, 70, 71
1, 146280, Note_on_c, 0, 65, 71
1, 146280, Note_on_c, 0, 74, 84
1, 146280, Note_on_c, 0, 77, 84
1, 146280, Note_on_c, 0, 41, 64
1, 146280, Note_on_c, 0, 53, 75
1, 146370, Note_on_c, 0, 53, 0
1, 146370, Note_on_c, 0, 65, 0
1, 146370, Note_on_c, 0, 74, 0
1, 146370, Note_on_c, 0, 70, 0
1, 146370, Note_on_c, 0, 41, 0
1, 146370, Note_on_c, 0, 77, 0
1, 146400, Note_on_c, 0, 65, 74
1, 146400, Note_on_c, 0, 70, 74
1, 146400, Note_on_c, 0, 77, 88
1, 146400, Note_on_c, 0, 74, 88
1, 146400, Note_on_c, 0, 41, 65
1, 146400, Note_on_c, 0, 53, 76
1, 146570, Control_c, 0, 64, 0
1, 146880, Tempo, 424028
1, 146880, Note_on_c, 0, 53, 0
1, 146880, Note_on_c, 0, 70, 0
1, 146880, Note_on_c, 0, 77, 0
1, 146880, Note_on_c, 0, 65, 0
1, 146880, Note_on_c, 0, 41, 0
1, 146880, Note_on_c, 0, 74, 0
1, 146880, Note_on_c, 0, 82, 82
1, 146880, Note_on_c, 0, 76, 82
1, 146880, Note_on_c, 0, 85, 82
1, 146880, Note_on_c, 0, 88, 97
1, 146880, Note_on_c, 0, 31, 72
1, 146880, Note_on_c, 0, 43, 86
1, 147004, Control_c, 0, 64, 127
1, 147240, Tempo, 400000
1, 147240, Note_on_c, 0, 43, 0
1, 147240, Note_on_c, 0, 76, 0
1, 147240, Note_on_c, 0, 85, 0
1, 147240, Note_on_c, 0, 82, 0
1, 147240, Note_on_c, 0, 31, 0
1, 147240, Note_on_c, 0, 88, 0
1, 147240, Note_on_c, 0, 70, 74
1, 147240, Note_on_c, 0, 64, 74
1, 147240, Note_on_c, 0, 73, 74
1, 147240, Note_on_c, 0, 76, 88
1, 147240, Note_on_c, 0, 43, 63
1, 147240, Note_on_c, 0, 55, 74
1, 147330, Note_on_c, 0, 55, 0
1, 147330, Note_on_c, 0, 64, 0
1, 147330, Note_on_c, 0, 73, 0
1, 147330, Note_on_c, 0, 70, 0
1, 147330, Note_on_c, 0, 43, 0
1, 147330, Note_on_c, 0, 76, 0
1, 147360, Note_on_c, 0, 64, 76
1, 147360, Note_on_c, 0, 70, 76
1, 147360, Note_on_c, 0, 76, 91
1, 147360, Note_on_c, 0, 73, 76
1, 147360, Note_on_c, 0, 43, 63
1, 147360, Note_on_c, 0, 55, 74
1, 147633, Control_c, 0, 64, 0
1, 147840, Tempo, 422535
1, 147840, Note_on_c, 0, 55, 0
1, 147840, Note_on_c, 0, 70, 0
1, 147840, Note_on_c, 0, 76, 0
1, 147840, Note_on_c, 0, 64, 0
1, 147840, Note_on_c, 0, 43, 0
1, 147840, Note_on_c, 0, 73, 0
1, 147840, Note_on_c, 0, 78, 87
1, 147840, Note_on_c, 0, 75, 87
1, 147840, Note_on_c, 0, 84, 87
1, 147840, Note_on_c, 0, 87, 102
1, 147840, Note_on_c, 0, 33, 76
1, 147840, Note_on_c, 0, 45, 90
1, 147931, Control_c, 0, 64, 127
1, 148200, Tempo, 404040
1, 148200, Note_on_c, 0, 45, 0
1, 148200, Note_on_c, 0, 75, 0
1, 148200, Note_on_c, 0, 84, 0
1, 148200, Note_on_c, 0, 78, 0
1, 148200, Note_on_c, 0, 33, 0
1, 148200, Note_on_c, 0, 87, 0
1, 148200, Note_on_c, 0, 66, 77
1, 148200, Note_on_c, 0, 63, 77
1, 148200, Note_on_c, 0, 72, 77
1, 148200, Note_on_c, 0, 75, 92
1, 148200, Note_on_c, 0, 45, 65
1, 148200, Note_on_c, 0, 57, 76
1, 148290, Note_on_c, 0, 57, 0
1, 148290, Note_on_c, 0, 63, 0
1, 148290, Note_on_c, 0, 72, 0
1, 148290, Note_on_c, 0, 66, 0
1, 148290, Note_on_c, 0, 45, 0
1, 148290, Note_on_c, 0, 75, 0
1, 148320, Note_on_c, 0, 63, 77
1, 148320, Note_on_c, 0, 66, 77
1, 148320, Note_on_c, 0, 75, 92
1, 148320, Note_on_c, 0, 72, 77
1, 148320, Note_on_c, 0, 45, 65
1, 148320, Note_on_c, 0, 57, 76
1, 148554, Control_c, 0, 64, 0
1, 148800, Tempo, 425532
1, 148800, Note_on_c, 0, 57, 0
1, 148800, Note_on_c, 0, 66, 0
1, 148800, Note_on_c, 0, 75, 0
1, 148800, Note_on_c, 0, 63, 0
1, 148800, Note_on_c, 0, 45, 0
1, 148800, Note_on_c, 0, 72, 0
1, 148800, Note_on_c, 0, 77, 89
1, 148800, Note_on_c, 0, 74, 89
1, 148800, Note_on_c, 0, 82, 89
1, 148800, Note_on_c, 0, 86, 106
1, 148800, Note_on_c, 0, 34, 76
1, 148800, Note_on_c, 0, 46, 91
1, 148926, Control_c, 0, 64, 127
1, 149160, Tempo, 408163
1, 149160, Note_on_c, 0, 46, 0
1, 149160, Note_on_c, 0, 74, 0
1, 149160, Note_on_c, 0, 82, 0
1, 149160, Note_on_c, 0, 77, 0
1, 149160, Note_on_c, 0, 34, 0
1, 149160, Note_on_c, 0, 86, 0
1, 149160, Note_on_c, 0, 65, 80
1, 149160, Note_on_c, 0, 62, 80
1, 149160, Note_on_c, 0, 70, 80
1, 149160, Note_on_c, 0, 74, 95
1, 149160, Note_on_c, 0, 46, 65
1, 149160, Note_on_c, 0, 58, 77
1, 149250, Note_on_c, 0, 58, 0
1, 149250, Note_on_c, 0, 62, 0
1, 149250, Note_on_c, 0, 70, 0
1, 149250, Note_on_c, 0, 65, 0
1, 149250, Note_on_c, 0, 46, 0
1, 149250, Note_on_c, 0, 74, 0
1, 149280, Note_on_c, 0, 62, 80
1, 149280, Note_on_c, 0, 65, 80
1, 149280, Note_on_c, 0, 74, 95
1, 149280, Note_on_c, 0, 70, 80
1, 149280, Note_on_c, 0, 46, 67
1, 149280, Note_on_c, 0, 58, 79
1, 149537, Control_c, 0, 64, 0
1, 149760, Tempo, 427046
1, 149760, Note_on_c, 0, 58, 0
1, 149760, Note_on_c, 0, 65, 0
1, 149760, Note_on_c, 0, 74, 0
1, 149760, Note_on_c, 0, 62, 0
1, 149760, Note_on_c, 0, 46, 0
1, 149760, Note_on_c, 0, 70, 0
1, 149760, Note_on_c, 0, 66, 86
1, 149760, Note_on_c, 0, 62, 86
1, 149760, Note_on_c, 0, 72, 86
1, 149760, Note_on_c, 0, 74, 101
1, 149760, Note_on_c, 0, 44, 75
1, 149760, Note_on_c, 0, 56, 89
1, 149814, Control_c, 0, 64, 127
1, 150120, Tempo, 409556
1, 150120, Note_on_c, 0, 56, 0
1, 150120, Note_on_c, 0, 62, 0
1, 150120, Note_on_c, 0, 72, 0
1, 150120, Note_on_c, 0, 66, 0
1, 150120, Note_on_c, 0, 44, 0
1, 150120, Note_on_c, 0, 74, 0
1, 150120, Note_on_c, 0, 78, 77
1, 150120, Note_on_c, 0, 74, 77
1, 150120, Note_on_c, 0, 84, 77
1, 150120, Note_on_c, 0, 86, 92
1, 150120, Note_on_c, 0, 32, 64
1, 150120, Note_on_c, 0, 44, 75
1, 150210, Note_on_c, 0, 44, 0
1, 150210, Note_on_c, 0, 74, 0
1, 150210, Note_on_c, 0, 84, 0
1, 150210, Note_on_c, 0, 78, 0
1, 150210, Note_on_c, 0, 32, 0
1, 150210, Note_on_c, 0, 86, 0
1, 150240, Note_on_c, 0, 74, 87
1, 150240, Note_on_c, 0, 78, 87
1, 150240, Note_on_c, 0, 86, 103
1, 150240, Note_on_c, 0, 84, 87
1, 150240, Note_on_c, 0, 32, 73
1, 150240, Note_on_c, 0, 44, 87
1, 150492, Control_c, 0, 64, 0
1, 150720, Tempo, 434783
1, 150720, Note_on_c, 0, 44, 0
1, 150720, Note_on_c, 0, 78, 0
1, 150720, Note_on_c, 0, 86, 0
1, 150720, Note_on_c, 0, 74, 0
1, 150720, Note_on_c, 0, 32, 0
1, 150720, Note_on_c, 0, 84, 0
1, 150720, Note_on_c, 0, 67, 82
1, 150720, Note_on_c, 0, 62, 82
1, 150720, Note_on_c, 0, 71, 82
1, 150720, Note_on_c, 0, 74, 97
1, 150720, Note_on_c, 0, 43, 72
1, 150720, Note_on_c, 0, 55, 86
1, 150815, Control_c, 0, 64, 127
1, 151080, Tempo, 412371
1, 151080, Note_on_c, 0, 55, 0
1, 151080, Note_on_c, 0, 62, 0
1, 151080, Note_on_c, 0, 71, 0
1, 151080, Note_on_c, 0, 67, 0
1, 151080, Note_on_c, 0, 43, 0
1, 151080, Note_on_c, 0, 74, 0
1, 151080, Note_on_c, 0, 79, 79
1, 151080, Note_on_c, 0, 74, 79
1, 151080, Note_on_c, 0, 83, 79
1, 151080, Note_on_c, 0, 86, 95
1, 151080, Note_on_c, 0, 31, 63
1, 151080, Note_on_c, 0, 43, 74
1, 151170, Note_on_c, 0, 43, 0
1, 151170, Note_on_c, 0, 74, 0
1, 151170, Note_on_c, 0, 83, 0
1, 151170, Note_on_c, 0, 79, 0
1, 151170, Note_on_c, 0, 31, 0
1, 151170, Note_on_c, 0, 86, 0
1, 151200, Note_on_c, 0, 74, 84
1, 151200, Note_on_c, 0, 79, 84
1, 151200, Note_on_c, 0, 86, 99
1, 151200, Note_on_c, 0, 83, 84
1, 151200, Note_on_c, 0, 31, 72
1, 151200, Note_on_c, 0, 43, 86
1, 151440, Tempo, 437956
1, 151506, Control_c, 0, 64, 0
1, 151680, Tempo, 458015
1, 151680, Note_on_c, 0, 43, 0
1, 151680, Note_on_c, 0, 79, 0
1, 151680, Note_on_c, 0, 86, 0
1, 151680, Note_on_c, 0, 74, 0
1, 151680, Note_on_c, 0, 31, 0
1, 151680, Note_on_c, 0, 83, 0
1, 151680, Note_on_c, 0, 67, 82
1, 151680, Note_on_c, 0, 64, 82
1, 151680, Note_on_c, 0, 72, 82
1, 151680, Note_on_c, 0, 76, 98
1, 151680, Note_on_c, 0, 43, 70
1, 151680, Note_on_c, 0, 55, 82
1, 151794, Control_c, 0, 64, 127
1, 152040, Tempo, 437956
1, 152040, Note_on_c, 0, 55, 0
1, 152040, Note_on_c, 0, 64, 0
1, 152040, Note_on_c, 0, 72, 0
1, 152040, Note_on_c, 0, 67, 0
1, 152040, Note_on_c, 0, 43, 0
1, 152040, Note_on_c, 0, 76, 0
1, 152040, Note_on_c, 0, 79, 75
1, 152040, Note_on_c, 0, 76, 75
1, 152040, Note_on_c, 0, 84, 75
1, 152040, Note_on_c, 0, 88, 89
1, 152040, Note_on_c, 0, 31, 64
1, 152040, Note_on_c, 0, 43, 76
1, 152130, Note_on_c, 0, 43, 0
1, 152130, Note_on_c, 0, 76, 0
1, 152130, Note_on_c, 0, 84, 0
1, 152130, Note_on_c, 0, 79, 0
1, 152130, Note_on_c, 0, 31, 0
1, 152130, Note_on_c, 0, 88, 0
1, 152160, Note_on_c, 0, 76, 86
1, 152160, Note_on_c, 0, 79, 86
1, 152160, Note_on_c, 0, 88, 102
1, 152160, Note_on_c, 0, 84, 86
1, 152160, Note_on_c, 0, 31, 74
1, 152160, Note_on_c, 0, 43, 88
1, 152368, Control_c, 0, 64, 0
1, 152400, Tempo, 530973
1, 152640, Tempo, 493827
1, 152640, Note_on_c, 0, 43, 0
1, 152640, Note_on_c, 0, 79, 0
1, 152640, Note_on_c, 0, 88, 0
1, 152640, Note_on_c, 0, 76, 0
1, 152640, Note_on_c, 0, 31, 0
1, 152640, Note_on_c, 0, 84, 0
1, 152640, Note_on_c, 0, 71, 86
1, 152640, Note_on_c, 0, 67, 86
1, 152640, Note_on_c, 0, 77, 86
1, 152640, Note_on_c, 0, 79, 101
1, 152640, Note_on_c, 0, 43, 72
1, 152640, Note_on_c, 0, 55, 85
1, 152760, Control_c, 0, 64, 127
1, 153000, Tempo, 571429
1, 153000, Note_on_c, 0, 55, 0
1, 153000, Note_on_c, 0, 67, 0
1, 153000, Note_on_c, 0, 77, 0
1, 153000, Note_on_c, 0, 71, 0
1, 153000, Note_on_c, 0, 43, 0
1, 153000, Note_on_c, 0, 79, 0
1, 153000, Note_on_c, 0, 83, 80
1, 153000, Note_on_c, 0, 79, 80
1, 153000, Note_on_c, 0, 89, 80
1, 153000, Note_on_c, 0, 91, 96
1, 153000, Note_on_c, 0, 31, 66
1, 153000, Note_on_c, 0, 43, 78
1, 153090, Note_on_c, 0, 43, 0
1, 153090, Note_on_c, 0, 79, 0
1, 153090, Note_on_c, 0, 89, 0
1, 153090, Note_on_c, 0, 83, 0
1, 153090, Note_on_c, 0, 31, 0
1, 153090, Note_on_c, 0, 91, 0
1, 153120, Tempo, 800000
1, 153120, Note_on_c, 0, 79, 86
1, 153120, Note_on_c, 0, 83, 86
1, 153120, Note_on_c, 0, 91, 103
1, 153120, Note_on_c, 0, 89, 86
1, 153120, Note_on_c, 0, 31, 77
1, 153120, Note_on_c, 0, 43, 92
1, 153309, Control_c, 0, 64, 0
1, 153600, Tempo, 413793
1, 153600, Note_on_c, 0, 43, 0
1, 153600, Note_on_c, 0, 83, 0
1, 153600, Note_on_c, 0, 91, 0
1, 153600, Note_on_c, 0, 79, 0
1, 153600, Note_on_c, 0, 31, 0
1, 153600, Note_on_c, 0, 89, 0
1, 153600, Note_on_c, 0, 55, 50
1, 153600, Note_on_c, 0, 35, 42
1, 153600, Note_on_c, 0, 47, 50
1, 153690, Note_on_c, 0, 47, 0
1, 153690, Note_on_c, 0, 35, 0
1, 153720, Note_on_c, 0, 67, 46
1, 153740, Note_on_c, 0, 55, 0
1, 153840, Tempo, 406780
1, 153840, Note_on_c, 0, 62, 46
1, 153840, Note_on_c, 0, 38, 43
1, 153840, Note_on_c, 0, 50, 51
1, 153860, Note_on_c, 0, 67, 0
1, 153930, Note_on_c, 0, 50, 0
1, 153930, Note_on_c, 0, 38, 0
1, 153960, Note_on_c, 0, 59, 46
1, 153980, Note_on_c, 0, 62, 0
1, 154080, Note_on_c, 0, 62, 50
1, 154080, Note_on_c, 0, 43, 45
1, 154080, Note_on_c, 0, 55, 53
1, 154100, Note_on_c, 0, 59, 0
1, 154170, Note_on_c, 0, 55, 0
1, 154170, Note_on_c, 0, 43, 0
1, 154200, Note_on_c, 0, 74, 46
1, 154220, Note_on_c, 0, 62, 0
1, 154320, Note_on_c, 0, 71, 46
1, 154320, Note_on_c, 0, 41, 43
1, 154320, Note_on_c, 0, 53, 51
1, 154340, Note_on_c, 0, 74, 0
1, 154410, Note_on_c, 0, 53, 0
1, 154410, Note_on_c, 0, 41, 0
1, 154440, Note_on_c, 0, 67, 46
1, 154460, Note_on_c, 0, 71, 0
1, 154560, Tempo, 412371
1, 154560, Note_on_c, 0, 72, 51
1, 154560, Note_on_c, 0, 76, 51
1, 154560, Note_on_c, 0, 40, 44
1, 154560, Note_on_c, 0, 52, 52
1, 154580, Note_on_c, 0, 67, 0
1, 154650, Note_on_c, 0, 40, 0
1, 154650, Note_on_c, 0, 52, 0
1, 154680, Note_on_c, 0, 64, 47
1, 154700, Note_on_c, 0, 76, 0
1, 154700, Note_on_c, 0, 72, 0
1, 154800, Note_on_c, 0, 74, 51
1, 154800, Note_on_c, 0, 77, 51
1, 154800, Note_on_c, 0, 36, 42
1, 154800, Note_on_c, 0, 48, 50
1, 154820, Note_on_c, 0, 64, 0
1, 154890, Note_on_c, 0, 36, 0
1, 154890, Note_on_c, 0, 48, 0
1, 154920, Note_on_c, 0, 65, 47
1, 154940, Note_on_c, 0, 77, 0
1, 154940, Note_on_c, 0, 74, 0
1, 155040, Note_on_c, 0, 76, 53
1, 155040, Note_on_c, 0, 79, 53
1, 155040, Note_on_c, 0, 35, 42
1, 155040, Note_on_c, 0, 47, 50
1, 155060, Note_on_c, 0, 65, 0
1, 155130, Note_on_c, 0, 35, 0
1, 155130, Note_on_c, 0, 47, 0
1, 155160, Note_on_c, 0, 67, 47
1, 155180, Note_on_c, 0, 79, 0
1, 155180, Note_on_c, 0, 76, 0
1, 155280, Note_on_c, 0, 77, 53
1, 155280, Note_on_c, 0, 81, 53
1, 155280, Note_on_c, 0, 33, 42
1, 155280, Note_on_c, 0, 45, 50
1, 155300, Note_on_c, 0, 67, 0
1, 155370, Note_on_c, 0, 33, 0
1, 155370, Note_on_c, 0, 45, 0
1, 155400, Note_on_c, 0, 69, 48
1, 155420, Note_on_c, 0, 81, 0
1, 155420, Note_on_c, 0, 77, 0
1, 155520, Tempo, 412371
1, 155520, Note_on_c, 0, 74, 51
1, 155520, Note_on_c, 0, 79, 51
1, 155520, Note_on_c, 0, 83, 51
1, 155520, Note_on_c, 0, 41, 54
1, 155540, Note_on_c, 0, 69, 0
1, 155571, Control_c, 0, 64, 127
1, 155640, Note_on_c, 0, 83, 0
1, 155640, Note_on_c, 0, 74, 0
1, 155640, Note_on_c, 0, 79, 0
1, 155640, Note_on_c, 0, 41, 0
1, 155640, Note_on_c, 0, 71, 53
1, 155640, Note_on_c, 0, 53, 56
1, 155760, Tempo, 410959
1, 155760, Note_on_c, 0, 53, 0
1, 155760, Note_on_c, 0, 71, 0
1, 155760, Note_on_c, 0, 74, 55
1, 155760, Note_on_c, 0, 79, 55
1, 155760, Note_on_c, 0, 83, 55
1, 155760, Note_on_c, 0, 41, 57
1, 155880, Note_on_c, 0, 41, 0
1, 155880, Note_on_c, 0, 74, 0
1, 155880, Note_on_c, 0, 79, 0
1, 155880, Note_on_c, 0, 83, 0
1, 155880, Note_on_c, 0, 71, 56
1, 155880, Note_on_c, 0, 53, 59
1, 156000, Tempo, 409556
1, 156000, Note_on_c, 0, 53, 0
1, 156000, Note_on_c, 0, 71, 0
1, 156000, Note_on_c, 0, 79, 58
1, 156000, Note_on_c, 0, 84, 58
1, 156000, Note_on_c, 0, 40, 60
1, 156010, Control_c, 0, 64, 0
1, 156057, Control_c, 0, 64, 127
1, 156120, Note_on_c, 0, 40, 0
1, 156120, Note_on_c, 0, 84, 0
1, 156120, Note_on_c, 0, 79, 0
1, 156120, Note_on_c, 0, 72, 60
1, 156120, Note_on_c, 0, 52, 62
1, 156240, Tempo, 408163
1, 156240, Note_on_c, 0, 52, 0
1, 156240, Note_on_c, 0, 72, 0
1, 156240, Note_on_c, 0, 84, 62
1, 156240, Note_on_c, 0, 79, 62
1, 156240, Note_on_c, 0, 40, 63
1, 156360, Note_on_c, 0, 40, 0
1, 156360, Note_on_c, 0, 79, 0
1, 156360, Note_on_c, 0, 84, 0
1, 156360, Note_on_c, 0, 72, 63
1, 156360, Note_on_c, 0, 52, 65
1, 156480, Tempo, 406780
1, 156480, Note_on_c, 0, 52, 0
1, 156480, Note_on_c, 0, 72, 0
1, 156480, Note_on_c, 0, 89, 65
1, 156480, Note_on_c, 0, 84, 65
1, 156480, Note_on_c, 0, 38, 66
1, 156490, Control_c, 0, 64, 0
1, 156560, Control_c, 0, 64, 127
1, 156600, Note_on_c, 0, 38, 0
1, 156600, Note_on_c, 0, 84, 0
1, 156600, Note_on_c, 0, 89, 0
1, 156600, Note_on_c, 0, 77, 65
1, 156600, Note_on_c, 0, 50, 66
1, 156720, Note_on_c, 0, 50, 0
1, 156720, Note_on_c, 0, 77, 0
1, 156720, Note_on_c, 0, 89, 66
1, 156720, Note_on_c, 0, 84, 66
1, 156720, Note_on_c, 0, 38, 67
1, 156840, Note_on_c, 0, 38, 0
1, 156840, Note_on_c, 0, 84, 0
1, 156840, Note_on_c, 0, 89, 0
1, 156840, Note_on_c, 0, 77, 66
1, 156840, Note_on_c, 0, 50, 68
1, 156920, Tempo, 404040
1, 156960, Note_on_c, 0, 50, 0
1, 156960, Note_on_c, 0, 77, 0
1, 156960, Note_on_c, 0, 89, 67
1, 156960, Note_on_c, 0, 83, 67
1, 156960, Note_on_c, 0, 32, 69
1, 157000, Tempo, 405405
1, 157080, Tempo, 406780
1, 157080, Note_on_c, 0, 32, 0
1, 157080, Note_on_c, 0, 83, 0
1, 157080, Note_on_c, 0, 89, 0
1, 157080, Note_on_c, 0, 77, 67
1, 157080, Note_on_c, 0, 44, 69
1, 157160, Tempo, 408163
1, 157200, Note_on_c, 0, 44, 0
1, 157200, Note_on_c, 0, 77, 0
1, 157200, Note_on_c, 0, 89, 68
1, 157200, Note_on_c, 0, 83, 68
1, 157200, Note_on_c, 0, 32, 70
1, 157240, Tempo, 409556
1, 157320, Tempo, 410959
1, 157320, Note_on_c, 0, 32, 0
1, 157320, Note_on_c, 0, 83, 0
1, 157320, Note_on_c, 0, 89, 0
1, 157320, Note_on_c, 0, 77, 68
1, 157320, Note_on_c, 0, 44, 71
1, 157400, Tempo, 412371
1, 157440, Tempo, 413793
1, 157440, Note_on_c, 0, 44, 0
1, 157440, Note_on_c, 0, 77, 0
1, 157440, Note_on_c, 0, 57, 60
1, 157440, Control_c, 0, 64, 0
1, 157440, Note_on_c, 0, 33, 50
1, 157440, Note_on_c, 0, 45, 60
1, 157530, Note_on_c, 0, 45, 0
1, 157530, Note_on_c, 0, 33, 0
1, 157560, Note_on_c, 0, 69, 55
1, 157580, Note_on_c, 0, 57, 0
1, 157680, Tempo, 402685
1, 157680, Note_on_c, 0, 64, 55
1, 157680, Note_on_c, 0, 40, 51
1, 157680, Note_on_c, 0, 52, 61
1, 157700, Note_on_c, 0, 69, 0
1, 157770, Note_on_c, 0, 52, 0
1, 157770, Note_on_c, 0, 40, 0
1, 157800, Note_on_c, 0, 61, 55
1, 157820, Note_on_c, 0, 64, 0
1, 157920, Note_on_c, 0, 64, 60
1, 157920, Note_on_c, 0, 45, 54
1, 157920, Note_on_c, 0, 57, 63
1, 157940, Note_on_c, 0, 61, 0
1, 158010, Note_on_c, 0, 57, 0
1, 158010, Note_on_c, 0, 45, 0
1, 158040, Note_on_c, 0, 76, 55
1, 158060, Note_on_c, 0, 64, 0
1, 158160, Note_on_c, 0, 73, 55
1, 158160, Note_on_c, 0, 43, 51
1, 158160, Note_on_c, 0, 55, 61
1, 158180, Note_on_c, 0, 76, 0
1, 158250, Note_on_c, 0, 55, 0
1, 158250, Note_on_c, 0, 43, 0
1, 158280, Note_on_c, 0, 69, 55
1, 158300, Note_on_c, 0, 73, 0
1, 158400, Tempo, 409556
1, 158400, Note_on_c, 0, 74, 51
1, 158400, Note_on_c, 0, 77, 61
1, 158400, Note_on_c, 0, 41, 52
1, 158400, Note_on_c, 0, 53, 62
1, 158420, Note_on_c, 0, 69, 0
1, 158490, Note_on_c, 0, 41, 0
1, 158490, Note_on_c, 0, 53, 0
1, 158520, Note_on_c, 0, 65, 56
1, 158540, Note_on_c, 0, 77, 0
1, 158540, Note_on_c, 0, 74, 0
1, 158640, Note_on_c, 0, 76, 51
1, 158640, Note_on_c, 0, 79, 61
1, 158640, Note_on_c, 0, 38, 50
1, 158640, Note_on_c, 0, 50, 60
1, 158660, Note_on_c, 0, 65, 0
1, 158730, Note_on_c, 0, 38, 0
1, 158730, Note_on_c, 0, 50, 0
1, 158760, Note_on_c, 0, 67, 56
1, 158780, Note_on_c, 0, 79, 0
1, 158780, Note_on_c, 0, 76, 0
1, 158880, Note_on_c, 0, 77, 53
1, 158880, Note_on_c, 0, 81, 63
1, 158880, Note_on_c, 0, 36, 50
1, 158880, Note_on_c, 0, 48, 60
1, 158900, Note_on_c, 0, 67, 0
1, 158970, Note_on_c, 0, 36, 0
1, 158970, Note_on_c, 0, 48, 0
1, 159000, Note_on_c, 0, 69, 56
1, 159020, Note_on_c, 0, 81, 0
1, 159020, Note_on_c, 0, 77, 0
1, 159120, Note_on_c, 0, 79, 53
1, 159120, Note_on_c, 0, 82, 63
1, 159120, Note_on_c, 0, 34, 50
1, 159120, Note_on_c, 0, 46, 60
1, 159140, Note_on_c, 0, 69, 0
1, 159210, Note_on_c, 0, 34, 0
1, 159210, Note_on_c, 0, 46, 0
1, 159240, Note_on_c, 0, 70, 57
1, 159260, Note_on_c, 0, 82, 0
1, 159260, Note_on_c, 0, 79, 0
1, 159360, Tempo, 406780
1, 159360, Note_on_c, 0, 76, 51
1, 159360, Note_on_c, 0, 81, 51
1, 159360, Note_on_c, 0, 85, 61
1, 159360, Note_on_c, 0, 43, 61
1, 159380, Note_on_c, 0, 70, 0
1, 159411, Control_c, 0, 64, 127
1, 159480, Note_on_c, 0, 85, 0
1, 159480, Note_on_c, 0, 76, 0
1, 159480, Note_on_c, 0, 81, 0
1, 159480, Note_on_c, 0, 43, 0
1, 159480, Note_on_c, 0, 73, 62
1, 159480, Note_on_c, 0, 55, 62
1, 159600, Note_on_c, 0, 55, 0
1, 159600, Note_on_c, 0, 73, 0
1, 159600, Note_on_c, 0, 76, 54
1, 159600, Note_on_c, 0, 81, 54
1, 159600, Note_on_c, 0, 85, 64
1, 159600, Note_on_c, 0, 43, 64
1, 159640, Tempo, 405405
1, 159720, Note_on_c, 0, 43, 0
1, 159720, Note_on_c, 0, 76, 0
1, 159720, Note_on_c, 0, 81, 0
1, 159720, Note_on_c, 0, 85, 0
1, 159720, Note_on_c, 0, 73, 66
1, 159720, Note_on_c, 0, 55, 66
1, 159840, Note_on_c, 0, 55, 0
1, 159840, Note_on_c, 0, 73, 0
1, 159840, Note_on_c, 0, 81, 56
1, 159840, Note_on_c, 0, 86, 67
1, 159840, Note_on_c, 0, 41, 67
1, 159850, Control_c, 0, 64, 0
1, 159897, Control_c, 0, 64, 127
1, 159920, Tempo, 404040
1, 159960, Note_on_c, 0, 41, 0
1, 159960, Note_on_c, 0, 86, 0
1, 159960, Note_on_c, 0, 81, 0
1, 159960, Note_on_c, 0, 74, 69
1, 159960, Note_on_c, 0, 53, 69
1, 160080, Note_on_c, 0, 53, 0
1, 160080, Note_on_c, 0, 74, 0
1, 160080, Note_on_c, 0, 86, 70
1, 160080, Note_on_c, 0, 81, 59
1, 160080, Note_on_c, 0, 41, 71
1, 160200, Tempo, 402685
1, 160200, Note_on_c, 0, 41, 0
1, 160200, Note_on_c, 0, 81, 0
1, 160200, Note_on_c, 0, 86, 0
1, 160200, Note_on_c, 0, 74, 72
1, 160200, Note_on_c, 0, 53, 73
1, 160320, Note_on_c, 0, 53, 0
1, 160320, Note_on_c, 0, 74, 0
1, 160320, Note_on_c, 0, 91, 74
1, 160320, Note_on_c, 0, 86, 62
1, 160320, Note_on_c, 0, 40, 76
1, 160330, Control_c, 0, 64, 0
1, 160400, Control_c, 0, 64, 127
1, 160440, Note_on_c, 0, 40, 0
1, 160440, Note_on_c, 0, 86, 0
1, 160440, Note_on_c, 0, 91, 0
1, 160440, Note_on_c, 0, 79, 70
1, 160440, Note_on_c, 0, 52, 72
1, 160480, Tempo, 401338
1, 160560, Note_on_c, 0, 52, 0
1, 160560, Note_on_c, 0, 79, 0
1, 160560, Note_on_c, 0, 91, 74
1, 160560, Note_on_c, 0, 86, 62
1, 160560, Note_on_c, 0, 40, 76
1, 160680, Note_on_c, 0, 40, 0
1, 160680, Note_on_c, 0, 86, 0
1, 160680, Note_on_c, 0, 91, 0
1, 160680, Note_on_c, 0, 79, 70
1, 160680, Note_on_c, 0, 52, 71
1, 160720, Tempo, 400000
1, 160800, Note_on_c, 0, 52, 0
1, 160800, Note_on_c, 0, 79, 0
1, 160800, Note_on_c, 0, 91, 74
1, 160800, Note_on_c, 0, 85, 62
1, 160800, Note_on_c, 0, 33, 76
1, 160840, Tempo, 401338
1, 160920, Note_on_c, 0, 33, 0
1, 160920, Note_on_c, 0, 85, 0
1, 160920, Note_on_c, 0, 91, 0
1, 160920, Note_on_c, 0, 79, 70
1, 160920, Note_on_c, 0, 45, 72
1, 160960, Tempo, 402685
1, 161040, Note_on_c, 0, 45, 0
1, 161040, Note_on_c, 0, 79, 0
1, 161040, Note_on_c, 0, 91, 74
1, 161040, Note_on_c, 0, 85, 62
1, 161040, Note_on_c, 0, 33, 76
1, 161080, Tempo, 404040
1, 161160, Note_on_c, 0, 33, 0
1, 161160, Note_on_c, 0, 85, 0
1, 161160, Note_on_c, 0, 91, 0
1, 161160, Note_on_c, 0, 79, 70
1, 161160, Note_on_c, 0, 45, 71
1, 161200, Tempo, 405405
1, 161280, Tempo, 406780
1, 161280, Note_on_c, 0, 45, 0
1, 161280, Note_on_c, 0, 79, 0
1, 161280, Note_on_c, 0, 62, 79
1, 161280, Control_c, 0, 64, 0
1, 161280, Note_on_c, 0, 38, 71
1, 161280, Note_on_c, 0, 50, 84
1, 161354, Control_c, 0, 64, 127
1, 161400, Note_on_c, 0, 62, 0
1, 161400, Note_on_c, 0, 74, 70
1, 161520, Tempo, 397351
1, 161520, Note_on_c, 0, 74, 0
1, 161520, Note_on_c, 0, 50, 0
1, 161520, Note_on_c, 0, 38, 0
1, 161520, Note_on_c, 0, 69, 70
1, 161520, Note_on_c, 0, 45, 65
1, 161520, Note_on_c, 0, 57, 77
1, 161640, Note_on_c, 0, 69, 0
1, 161640, Note_on_c, 0, 66, 70
1, 161749, Control_c, 0, 64, 0
1, 161760, Note_on_c, 0, 66, 0
1, 161760, Note_on_c, 0, 57, 0
1, 161760, Note_on_c, 0, 45, 0
1, 161760, Note_on_c, 0, 69, 79
1, 161760, Note_on_c, 0, 50, 72
1, 161760, Note_on_c, 0, 62, 85
1, 161850, Note_on_c, 0, 62, 0
1, 161850, Note_on_c, 0, 50, 0
1, 161880, Note_on_c, 0, 69, 0
1, 161880, Note_on_c, 0, 81, 70
1, 162000, Note_on_c, 0, 81, 0
1, 162000, Note_on_c, 0, 78, 70
1, 162000, Note_on_c, 0, 48, 64
1, 162000, Note_on_c, 0, 60, 76
1, 162090, Note_on_c, 0, 60, 0
1, 162090, Note_on_c, 0, 48, 0
1, 162120, Note_on_c, 0, 78, 0
1, 162120, Note_on_c, 0, 74, 71
1, 162240, Tempo, 408163
1, 162240, Note_on_c, 0, 74, 0
1, 162240, Note_on_c, 0, 79, 67
1, 162240, Note_on_c, 0, 83, 79
1, 162240, Note_on_c, 0, 47, 69
1, 162240, Note_on_c, 0, 59, 82
1, 162251, Control_c, 0, 64, 127
1, 162360, Note_on_c, 0, 83, 0
1, 162360, Note_on_c, 0, 79, 0
1, 162360, Note_on_c, 0, 71, 72
1, 162480, Note_on_c, 0, 71, 0
1, 162480, Note_on_c, 0, 47, 0
1, 162480, Note_on_c, 0, 59, 0
1, 162480, Note_on_c, 0, 81, 67
1, 162480, Note_on_c, 0, 84, 79
1, 162480, Note_on_c, 0, 43, 62
1, 162480, Note_on_c, 0, 55, 74
1, 162600, Note_on_c, 0, 84, 0
1, 162600, Note_on_c, 0, 81, 0
1, 162600, Note_on_c, 0, 72, 73
1, 162714, Control_c, 0, 64, 0
1, 162720, Note_on_c, 0, 72, 0
1, 162720, Note_on_c, 0, 43, 0
1, 162720, Note_on_c, 0, 55, 0
1, 162720, Note_on_c, 0, 83, 68
1, 162720, Note_on_c, 0, 86, 80
1, 162720, Note_on_c, 0, 42, 63
1, 162720, Note_on_c, 0, 54, 75
1, 162810, Note_on_c, 0, 54, 0
1, 162810, Note_on_c, 0, 42, 0
1, 162840, Note_on_c, 0, 86, 0
1, 162840, Note_on_c, 0, 83, 0
1, 162840, Note_on_c, 0, 74, 71
1, 162960, Note_on_c, 0, 74, 0
1, 162960, Note_on_c, 0, 84, 67
1, 162960, Note_on_c, 0, 88, 79
1, 162960, Note_on_c, 0, 40, 63
1, 162960, Note_on_c, 0, 52, 75
1, 163050, Note_on_c, 0, 52, 0
1, 163050, Note_on_c, 0, 40, 0
1, 163080, Note_on_c, 0, 88, 0
1, 163080, Note_on_c, 0, 84, 0
1, 163080, Note_on_c, 0, 76, 72
1, 163200, Tempo, 412371
1, 163200, Note_on_c, 0, 76, 0
1, 163200, Note_on_c, 0, 81, 60
1, 163200, Note_on_c, 0, 86, 60
1, 163200, Note_on_c, 0, 90, 71
1, 163200, Note_on_c, 0, 48, 66
1, 163240, Tempo, 410959
1, 163251, Control_c, 0, 64, 127
1, 163320, Note_on_c, 0, 48, 0
1, 163320, Note_on_c, 0, 81, 0
1, 163320, Note_on_c, 0, 86, 0
1, 163320, Note_on_c, 0, 90, 0
1, 163320, Note_on_c, 0, 78, 72
1, 163320, Note_on_c, 0, 60, 67
1, 163440, Note_on_c, 0, 60, 0
1, 163440, Note_on_c, 0, 78, 0
1, 163440, Note_on_c, 0, 81, 62
1, 163440, Note_on_c, 0, 86, 62
1, 163440, Note_on_c, 0, 90, 73
1, 163440, Note_on_c, 0, 48, 68
1, 163520, Tempo, 409556
1, 163560, Note_on_c, 0, 48, 0
1, 163560, Note_on_c, 0, 81, 0
1, 163560, Note_on_c, 0, 86, 0
1, 163560, Note_on_c, 0, 90, 0
1, 163560, Note_on_c, 0, 78, 74
1, 163560, Note_on_c, 0, 60, 69
1, 163680, Note_on_c, 0, 60, 0
1, 163680, Note_on_c, 0, 78, 0
1, 163680, Note_on_c, 0, 86, 63
1, 163680, Note_on_c, 0, 91, 75
1, 163680, Note_on_c, 0, 47, 71
1, 163690, Control_c, 0, 64, 0
1, 163737, Control_c, 0, 64, 127
1, 163760, Tempo, 408163
1, 163800, Note_on_c, 0, 47, 0
1, 163800, Note_on_c, 0, 91, 0
1, 163800, Note_on_c, 0, 86, 0
1, 163800, Note_on_c, 0, 79, 76
1, 163800, Note_on_c, 0, 59, 72
1, 163920, Note_on_c, 0, 59, 0
1, 163920, Note_on_c, 0, 79, 0
1, 163920, Note_on_c, 0, 91, 77
1, 163920, Note_on_c, 0, 86, 65
1, 163920, Note_on_c, 0, 47, 73
1, 164000, Tempo, 406780
1, 164040, Note_on_c, 0, 47, 0
1, 164040, Note_on_c, 0, 86, 0
1, 164040, Note_on_c, 0, 91, 0
1, 164040, Note_on_c, 0, 79, 78
1, 164040, Note_on_c, 0, 59, 74
1, 164160, Note_on_c, 0, 59, 0
1, 164160, Note_on_c, 0, 79, 0
1, 164160, Note_on_c, 0, 96, 82
1, 164160, Note_on_c, 0, 91, 69
1, 164160, Note_on_c, 0, 45, 75
1, 164170, Control_c, 0, 64, 0
1, 164240, Tempo, 405405
1, 164240, Control_c, 0, 64, 127
1, 164280, Note_on_c, 0, 45, 0
1, 164280, Note_on_c, 0, 91, 0
1, 164280, Note_on_c, 0, 96, 0
1, 164280, Note_on_c, 0, 84, 75
1, 164280, Note_on_c, 0, 57, 73
1, 164400, Note_on_c, 0, 57, 0
1, 164400, Note_on_c, 0, 84, 0
1, 164400, Note_on_c, 0, 96, 80
1, 164400, Note_on_c, 0, 91, 68
1, 164400, Note_on_c, 0, 45, 78
1, 164480, Tempo, 404040
1, 164520, Note_on_c, 0, 45, 0
1, 164520, Note_on_c, 0, 91, 0
1, 164520, Note_on_c, 0, 96, 0
1, 164520, Note_on_c, 0, 84, 74
1, 164520, Note_on_c, 0, 57, 71
1, 164640, Note_on_c, 0, 57, 0
1, 164640, Note_on_c, 0, 84, 0
1, 164640, Note_on_c, 0, 96, 80
1, 164640, Note_on_c, 0, 90, 68
1, 164640, Note_on_c, 0, 38, 78
1, 164720, Tempo, 402685
1, 164760, Tempo, 406780
1, 164760, Note_on_c, 0, 38, 0
1, 164760, Note_on_c, 0, 90, 0
1, 164760, Note_on_c, 0, 96, 0
1, 164760, Note_on_c, 0, 84, 75
1, 164760, Note_on_c, 0, 50, 70
1, 164840, Tempo, 408163
1, 164880, Note_on_c, 0, 50, 0
1, 164880, Note_on_c, 0, 84, 0
1, 164880, Note_on_c, 0, 96, 79
1, 164880, Note_on_c, 0, 90, 67
1, 164880, Note_on_c, 0, 38, 76
1, 164920, Tempo, 409556
1, 165000, Tempo, 410959
1, 165000, Note_on_c, 0, 38, 0
1, 165000, Note_on_c, 0, 90, 0
1, 165000, Note_on_c, 0, 96, 0
1, 165000, Note_on_c, 0, 84, 74
1, 165000, Note_on_c, 0, 50, 70
1, 165080, Tempo, 412371
1, 165120, Tempo, 413793
1, 165120, Note_on_c, 0, 50, 0
1, 165120, Note_on_c, 0, 84, 0
1, 165120, Note_on_c, 0, 67, 79
1, 165120, Control_c, 0, 64, 0
1, 165120, Note_on_c, 0, 43, 71
1, 165120, Note_on_c, 0, 55, 84
1, 165194, Control_c, 0, 64, 127
1, 165240, Note_on_c, 0, 67, 0
1, 165240, Note_on_c, 0, 79, 70
1, 165360, Tempo, 404040
1, 165360, Note_on_c, 0, 79, 0
1, 165360, Note_on_c, 0, 55, 0
1, 165360, Note_on_c, 0, 43, 0
1, 165360, Note_on_c, 0, 74, 70
1, 165360, Note_on_c, 0, 50, 65
1, 165360, Note_on_c, 0, 62, 77
1, 165480, Note_on_c, 0, 74, 0
1, 165480, Note_on_c, 0, 71, 70
1, 165600, Note_on_c, 0, 71, 0
1, 165600, Note_on_c, 0, 62, 0
1, 165600, Note_on_c, 0, 50, 0
1, 165600, Note_on_c, 0, 74, 79
1, 165600, Note_on_c, 0, 55, 72
1, 165600, Note_on_c, 0, 67, 85
1, 165610, Control_c, 0, 64, 0
1, 165649, Control_c, 0, 64, 127
1, 165720, Note_on_c, 0, 74, 0
1, 165720, Note_on_c, 0, 86, 70
1, 165840, Note_on_c, 0, 86, 0
1, 165840, Note_on_c, 0, 67, 0
1, 165840, Note_on_c, 0, 55, 0
1, 165840, Note_on_c, 0, 83, 70
1, 165840, Note_on_c, 0, 53, 64
1, 165840, Note_on_c, 0, 65, 76
1, 165960, Note_on_c, 0, 83, 0
1, 165960, Note_on_c, 0, 79, 71
1, 166080, Tempo, 412371
1, 166080, Note_on_c, 0, 79, 0
1, 166080, Note_on_c, 0, 65, 0
1, 166080, Note_on_c, 0, 53, 0
1, 166080, Note_on_c, 0, 84, 67
1, 166080, Note_on_c, 0, 88, 79
1, 166080, Note_on_c, 0, 52, 69
1, 166080, Note_on_c, 0, 64, 82
1, 166087, Control_c, 0, 64, 0
1, 166122, Control_c, 0, 64, 127
1, 166200, Note_on_c, 0, 88, 0
1, 166200, Note_on_c, 0, 84, 0
1, 166200, Note_on_c, 0, 76, 72
1, 166320, Note_on_c, 0, 76, 0
1, 166320, Note_on_c, 0, 52, 0
1, 166320, Note_on_c, 0, 64, 0
1, 166320, Note_on_c, 0, 86, 67
1, 166320, Note_on_c, 0, 89, 79
1, 166320, Note_on_c, 0, 48, 62
1, 166320, Note_on_c, 0, 60, 74
1, 166440, Note_on_c, 0, 89, 0
1, 166440, Note_on_c, 0, 86, 0
1, 166440, Note_on_c, 0, 77, 73
1, 166554, Control_c, 0, 64, 0
1, 166560, Note_on_c, 0, 77, 0
1, 166560, Note_on_c, 0, 48, 0
1, 166560, Note_on_c, 0, 60, 0
1, 166560, Note_on_c, 0, 88, 68
1, 166560, Note_on_c, 0, 91, 80
1, 166560, Note_on_c, 0, 47, 63
1, 166560, Note_on_c, 0, 59, 75
1, 166624, Control_c, 0, 64, 127
1, 166680, Note_on_c, 0, 91, 0
1, 166680, Note_on_c, 0, 88, 0
1, 166680, Note_on_c, 0, 79, 71
1, 166800, Note_on_c, 0, 79, 0
1, 166800, Note_on_c, 0, 47, 0
1, 166800, Note_on_c, 0, 59, 0
1, 166800, Note_on_c, 0, 89, 67
1, 166800, Note_on_c, 0, 93, 79
1, 166800, Note_on_c, 0, 45, 63
1, 166800, Note_on_c, 0, 57, 75
1, 166920, Note_on_c, 0, 93, 0
1, 166920, Note_on_c, 0, 89, 0
1, 166920, Note_on_c, 0, 81, 72
1, 167040, Tempo, 415225
1, 167040, Note_on_c, 0, 81, 0
1, 167040, Note_on_c, 0, 45, 0
1, 167040, Note_on_c, 0, 57, 0
1, 167040, Note_on_c, 0, 86, 60
1, 167040, Note_on_c, 0, 91, 60
1, 167040, Note_on_c, 0, 95, 71
1, 167040, Note_on_c, 0, 53, 66
1, 167049, Control_c, 0, 64, 0
1, 167125, Control_c, 0, 64, 127
1, 167160, Tempo, 413793
1, 167160, Note_on_c, 0, 53, 0
1, 167160, Note_on_c, 0, 86, 0
1, 167160, Note_on_c, 0, 91, 0
1, 167160, Note_on_c, 0, 95, 0
1, 167160, Note_on_c, 0, 83, 72
1, 167160, Note_on_c, 0, 65, 67
1, 167280, Note_on_c, 0, 65, 0
1, 167280, Note_on_c, 0, 83, 0
1, 167280, Note_on_c, 0, 86, 62
1, 167280, Note_on_c, 0, 91, 62
1, 167280, Note_on_c, 0, 95, 73
1, 167280, Note_on_c, 0, 53, 68
1, 167400, Note_on_c, 0, 53, 0
1, 167400, Note_on_c, 0, 86, 0
1, 167400, Note_on_c, 0, 91, 0
1, 167400, Note_on_c, 0, 95, 0
1, 167400, Note_on_c, 0, 83, 74
1, 167400, Note_on_c, 0, 65, 69
1, 167480, Tempo, 413793
1, 167520, Tempo, 416667
1, 167520, Note_on_c, 0, 65, 0
1, 167520, Note_on_c, 0, 83, 0
1, 167520, Note_on_c, 0, 91, 63
1, 167520, Note_on_c, 0, 96, 75
1, 167520, Note_on_c, 0, 52, 71
1, 167530, Control_c, 0, 64, 0
1, 167560, Tempo, 419580
1, 167576, Control_c, 0, 64, 127
1, 167600, Tempo, 422535
1, 167640, Tempo, 425532
1, 167640, Note_on_c, 0, 52, 0
1, 167640, Note_on_c, 0, 96, 0
1, 167640, Note_on_c, 0, 91, 0
1, 167640, Note_on_c, 0, 84, 76
1, 167640, Note_on_c, 0, 64, 72
1, 167680, Tempo, 428571
1, 167720, Tempo, 431655
1, 167760, Tempo, 434783
1, 167760, Note_on_c, 0, 64, 0
1, 167760, Note_on_c, 0, 84, 0
1, 167760, Note_on_c, 0, 96, 77
1, 167760, Note_on_c, 0, 91, 65
1, 167760, Note_on_c, 0, 52, 73
1, 167800, Tempo, 437956
1, 167880, Tempo, 563380
1, 167880, Note_on_c, 0, 52, 0
1, 167880, Note_on_c, 0, 91, 0
1, 167880, Note_on_c, 0, 96, 0
1, 167880, Note_on_c, 0, 84, 78
1, 167880, Note_on_c, 0, 64, 74
1, 168000, Tempo, 428571
1, 168000, Note_on_c, 0, 64, 0
1, 168000, Note_on_c, 0, 84, 0
1, 168000, Note_on_c, 0, 101, 82
1, 168000, Note_on_c, 0, 96, 69
1, 168000, Note_on_c, 0, 50, 75
1, 168010, Control_c, 0, 64, 0
1, 168080, Control_c, 0, 64, 127
1, 168120, Note_on_c, 0, 50, 0
1, 168120, Note_on_c, 0, 96, 0
1, 168120, Note_on_c, 0, 101, 0
1, 168120, Note_on_c, 0, 89, 75
1, 168120, Note_on_c, 0, 62, 73
1, 168240, Note_on_c, 0, 62, 0
1, 168240, Note_on_c, 0, 89, 0
1, 168240, Note_on_c, 0, 101, 82
1, 168240, Note_on_c, 0, 96, 70
1, 168240, Note_on_c, 0, 50, 80
1, 168360, Note_on_c, 0, 50, 0
1, 168360, Note_on_c, 0, 96, 0
1, 168360, Note_on_c, 0, 101, 0
1, 168360, Note_on_c, 0, 89, 77
1, 168360, Note_on_c, 0, 62, 74
1, 168480, Note_on_c, 0, 62, 0
1, 168480, Note_on_c, 0, 89, 0
1, 168480, Note_on_c, 0, 101, 85
1, 168480, Note_on_c, 0, 95, 72
1, 168480, Note_on_c, 0, 43, 83
1, 168600, Note_on_c, 0, 43, 0
1, 168600, Note_on_c, 0, 95, 0
1, 168600, Note_on_c, 0, 101, 0
1, 168600, Note_on_c, 0, 89, 81
1, 168600, Note_on_c, 0, 55, 75
1, 168720, Note_on_c, 0, 55, 0
1, 168720, Note_on_c, 0, 89, 0
1, 168720, Note_on_c, 0, 101, 86
1, 168720, Note_on_c, 0, 95, 73
1, 168720, Note_on_c, 0, 43, 83
1, 168840, Note_on_c, 0, 43, 0
1, 168840, Note_on_c, 0, 95, 0
1, 168840, Note_on_c, 0, 101, 0
1, 168840, Note_on_c, 0, 89, 82
1, 168840, Note_on_c, 0, 55, 78
1, 168960, Tempo, 406780
1, 168960, Note_on_c, 0, 55, 0
1, 168960, Note_on_c, 0, 89, 0
1, 168960, Note_on_c, 0, 100, 78
1, 168960, Note_on_c, 0, 95, 66
1, 168960, Note_on_c, 0, 48, 64
1, 168961, Control_c, 0, 64, 0
1, 169000, Control_c, 0, 64, 127
1, 169080, Note_on_c, 0, 48, 0
1, 169080, Note_on_c, 0, 95, 0
1, 169080, Note_on_c, 0, 100, 0
1, 169080, Note_on_c, 0, 88, 70
1, 169080, Note_on_c, 0, 60, 54
1, 169200, Note_on_c, 0, 60, 0
1, 169200, Note_on_c, 0, 88, 0
1, 169200, Note_on_c, 0, 100, 77
1, 169200, Note_on_c, 0, 95, 65
1, 169200, Note_on_c, 0, 48, 64
1, 169320, Note_on_c, 0, 48, 0
1, 169320, Note_on_c, 0, 95, 0
1, 169320, Note_on_c, 0, 100, 0
1, 169320, Note_on_c, 0, 88, 70
1, 169320, Note_on_c, 0, 60, 53
1, 169440, Note_on_c, 0, 60, 0
1, 169440, Note_on_c, 0, 88, 0
1, 169440, Note_on_c, 0, 100, 75
1, 169440, Note_on_c, 0, 93, 64
1, 169440, Note_on_c, 0, 41, 64
1, 169450, Control_c, 0, 64, 0
1, 169526, Control_c, 0, 64, 127
1, 169560, Note_on_c, 0, 41, 0
1, 169560, Note_on_c, 0, 93, 0
1, 169560, Note_on_c, 0, 100, 0
1, 169560, Note_on_c, 0, 88, 68
1, 169560, Note_on_c, 0, 53, 55
1, 169680, Note_on_c, 0, 53, 0
1, 169680, Note_on_c, 0, 88, 0
1, 169680, Note_on_c, 0, 100, 72
1, 169680, Note_on_c, 0, 93, 60
1, 169680, Note_on_c, 0, 41, 64
1, 169800, Note_on_c, 0, 41, 0
1, 169800, Note_on_c, 0, 93, 0
1, 169800, Note_on_c, 0, 100, 0
1, 169800, Note_on_c, 0, 88, 67
1, 169800, Note_on_c, 0, 53, 54
1, 169920, Tempo, 402685
1, 169920, Note_on_c, 0, 53, 0
1, 169920, Note_on_c, 0, 88, 0
1, 169920, Note_on_c, 0, 98, 74
1, 169920, Note_on_c, 0, 93, 63
1, 169920, Note_on_c, 0, 47, 64
1, 169931, Control_c, 0, 64, 0
1, 169966, Control_c, 0, 64, 127
1, 170040, Note_on_c, 0, 47, 0
1, 170040, Note_on_c, 0, 93, 0
1, 170040, Note_on_c, 0, 98, 0
1, 170040, Note_on_c, 0, 86, 68
1, 170040, Note_on_c, 0, 59, 54
1, 170160, Note_on_c, 0, 59, 0
1, 170160, Note_on_c, 0, 86, 0
1, 170160, Note_on_c, 0, 98, 74
1, 170160, Note_on_c, 0, 93, 63
1, 170160, Note_on_c, 0, 47, 64
1, 170280, Note_on_c, 0, 47, 0
1, 170280, Note_on_c, 0, 93, 0
1, 170280, Note_on_c, 0, 98, 0
1, 170280, Note_on_c, 0, 86, 67
1, 170280, Note_on_c, 0, 59, 54
1, 170400, Note_on_c, 0, 59, 0
1, 170400, Note_on_c, 0, 86, 0
1, 170400, Note_on_c, 0, 98, 74
1, 170400, Note_on_c, 0, 92, 63
1, 170400, Note_on_c, 0, 40, 64
1, 170410, Control_c, 0, 64, 0
1, 170474, Control_c, 0, 64, 127
1, 170520, Note_on_c, 0, 40, 0
1, 170520, Note_on_c, 0, 92, 0
1, 170520, Note_on_c, 0, 98, 0
1, 170520, Note_on_c, 0, 86, 66
1, 170520, Note_on_c, 0, 52, 53
1, 170640, Note_on_c, 0, 52, 0
1, 170640, Note_on_c, 0, 86, 0
1, 170640, Note_on_c, 0, 98, 74
1, 170640, Note_on_c, 0, 92, 63
1, 170640, Note_on_c, 0, 40, 64
1, 170760, Note_on_c, 0, 40, 0
1, 170760, Note_on_c, 0, 92, 0
1, 170760, Note_on_c, 0, 98, 0
1, 170760, Note_on_c, 0, 86, 68
1, 170760, Note_on_c, 0, 52, 55
1, 170800, Tempo, 402685
1, 170880, Tempo, 401338
1, 170880, Note_on_c, 0, 52, 0
1, 170880, Note_on_c, 0, 86, 0
1, 170880, Note_on_c, 0, 96, 74
1, 170880, Note_on_c, 0, 93, 63
1, 170880, Note_on_c, 0, 41, 64
1, 170889, Control_c, 0, 64, 0
1, 170965, Control_c, 0, 64, 127
1, 171000, Note_on_c, 0, 41, 0
1, 171000, Note_on_c, 0, 93, 0
1, 171000, Note_on_c, 0, 96, 0
1, 171000, Note_on_c, 0, 84, 68
1, 171000, Note_on_c, 0, 53, 56
1, 171120, Tempo, 400000
1, 171120, Note_on_c, 0, 53, 0
1, 171120, Note_on_c, 0, 84, 0
1, 171120, Note_on_c, 0, 96, 74
1, 171120, Note_on_c, 0, 93, 63
1, 171120, Note_on_c, 0, 41, 64
1, 171240, Note_on_c, 0, 41, 0
1, 171240, Note_on_c, 0, 93, 0
1, 171240, Note_on_c, 0, 96, 0
1, 171240, Note_on_c, 0, 84, 67
1, 171240, Note_on_c, 0, 53, 54
1, 171320, Tempo, 398671
1, 171360, Tempo, 394737
1, 171360, Note_on_c, 0, 53, 0
1, 171360, Note_on_c, 0, 84, 0
1, 171360, Note_on_c, 0, 89, 65
1, 171360, Note_on_c, 0, 93, 65
1, 171360, Note_on_c, 0, 98, 77
1, 171360, Note_on_c, 0, 50, 67
1, 171360, Note_on_c, 0, 45, 56
1, 171360, Note_on_c, 0, 41, 56
1, 171370, Control_c, 0, 64, 0
1, 171452, Control_c, 0, 64, 127
1, 171480, Note_on_c, 0, 41, 0
1, 171480, Note_on_c, 0, 93, 0
1, 171480, Note_on_c, 0, 98, 0
1, 171480, Note_on_c, 0, 89, 0
1, 171480, Note_on_c, 0, 45, 0
1, 171480, Note_on_c, 0, 50, 0
1, 171480, Note_on_c, 0, 86, 70
1, 171480, Note_on_c, 0, 53, 59
1, 171600, Note_on_c, 0, 53, 0
1, 171600, Note_on_c, 0, 86, 0
1, 171600, Note_on_c, 0, 98, 76
1, 171600, Note_on_c, 0, 93, 65
1, 171600, Note_on_c, 0, 89, 65
1, 171600, Note_on_c, 0, 41, 56
1, 171600, Note_on_c, 0, 45, 56
1, 171600, Note_on_c, 0, 50, 67
1, 171720, Note_on_c, 0, 50, 0
1, 171720, Note_on_c, 0, 93, 0
1, 171720, Note_on_c, 0, 89, 0
1, 171720, Note_on_c, 0, 98, 0
1, 171720, Note_on_c, 0, 45, 0
1, 171720, Note_on_c, 0, 41, 0
1, 171720, Note_on_c, 0, 86, 70
1, 171720, Note_on_c, 0, 53, 57
1, 171840, Note_on_c, 0, 53, 0
1, 171840, Note_on_c, 0, 86, 0
1, 171840, Note_on_c, 0, 96, 74
1, 171840, Note_on_c, 0, 91, 63
1, 171840, Note_on_c, 0, 88, 63
1, 171840, Note_on_c, 0, 43, 53
1, 171840, Note_on_c, 0, 48, 53
1, 171840, Note_on_c, 0, 52, 64
1, 171850, Control_c, 0, 64, 0
1, 171880, Tempo, 397351
1, 171918, Control_c, 0, 64, 127
1, 171960, Note_on_c, 0, 52, 0
1, 171960, Note_on_c, 0, 91, 0
1, 171960, Note_on_c, 0, 88, 0
1, 171960, Note_on_c, 0, 96, 0
1, 171960, Note_on_c, 0, 48, 0
1, 171960, Note_on_c, 0, 43, 0
1, 171960, Note_on_c, 0, 84, 68
1, 171960, Note_on_c, 0, 55, 57
1, 172080, Note_on_c, 0, 55, 0
1, 172080, Note_on_c, 0, 84, 0
1, 172080, Note_on_c, 0, 96, 74
1, 172080, Note_on_c, 0, 91, 63
1, 172080, Note_on_c, 0, 88, 63
1, 172080, Note_on_c, 0, 43, 53
1, 172080, Note_on_c, 0, 48, 53
1, 172080, Note_on_c, 0, 52, 64
1, 172200, Note_on_c, 0, 52, 0
1, 172200, Note_on_c, 0, 91, 0
1, 172200, Note_on_c, 0, 88, 0
1, 172200, Note_on_c, 0, 96, 0
1, 172200, Note_on_c, 0, 48, 0
1, 172200, Note_on_c, 0, 43, 0
1, 172200, Note_on_c, 0, 84, 68
1, 172200, Note_on_c, 0, 55, 56
1, 172320, Tempo, 400000
1, 172320, Note_on_c, 0, 55, 0
1, 172320, Note_on_c, 0, 84, 0
1, 172320, Note_on_c, 0, 95, 74
1, 172320, Note_on_c, 0, 91, 63
1, 172320, Note_on_c, 0, 86, 63
1, 172320, Note_on_c, 0, 43, 53
1, 172320, Note_on_c, 0, 47, 53
1, 172320, Note_on_c, 0, 50, 64
1, 172330, Control_c, 0, 64, 0
1, 172419, Control_c, 0, 64, 127
1, 172440, Note_on_c, 0, 50, 0
1, 172440, Note_on_c, 0, 91, 0
1, 172440, Note_on_c, 0, 86, 0
1, 172440, Note_on_c, 0, 95, 0
1, 172440, Note_on_c, 0, 47, 0
1, 172440, Note_on_c, 0, 43, 0
1, 172440, Note_on_c, 0, 83, 69
1, 172440, Note_on_c, 0, 55, 57
1, 172480, Tempo, 401338
1, 172560, Note_on_c, 0, 55, 0
1, 172560, Note_on_c, 0, 83, 0
1, 172560, Note_on_c, 0, 95, 74
1, 172560, Note_on_c, 0, 91, 63
1, 172560, Note_on_c, 0, 86, 63
1, 172560, Note_on_c, 0, 43, 53
1, 172560, Note_on_c, 0, 47, 53
1, 172560, Note_on_c, 0, 50, 64
1, 172640, Tempo, 402685
1, 172680, Note_on_c, 0, 50, 0
1, 172680, Note_on_c, 0, 91, 0
1, 172680, Note_on_c, 0, 86, 0
1, 172680, Note_on_c, 0, 95, 0
1, 172680, Note_on_c, 0, 47, 0
1, 172680, Note_on_c, 0, 43, 0
1, 172680, Note_on_c, 0, 83, 68
1, 172680, Note_on_c, 0, 55, 57
1, 172800, Tempo, 404040
1, 172800, Note_on_c, 0, 55, 0
1, 172800, Note_on_c, 0, 83, 0
1, 172800, Note_on_c, 0, 84, 63
1, 172800, Note_on_c, 0, 88, 63
1, 172800, Note_on_c, 0, 91, 74
1, 172800, Note_on_c, 0, 60, 64
1, 172800, Note_on_c, 0, 55, 53
1, 172800, Note_on_c, 0, 52, 53
1, 172810, Control_c, 0, 64, 0
1, 172878, Control_c, 0, 64, 127
1, 172920, Note_on_c, 0, 52, 0
1, 172920, Note_on_c, 0, 88, 0
1, 172920, Note_on_c, 0, 91, 0
1, 172920, Note_on_c, 0, 84, 0
1, 172920, Note_on_c, 0, 55, 0
1, 172920, Note_on_c, 0, 60, 0
1, 172920, Note_on_c, 0, 79, 66
1, 172920, Note_on_c, 0, 64, 55
1, 173040, Note_on_c, 0, 64, 0
1, 173040, Note_on_c, 0, 79, 0
1, 173040, Note_on_c, 0, 91, 74
1, 173040, Note_on_c, 0, 88, 63
1, 173040, Note_on_c, 0, 84, 63
1, 173040, Note_on_c, 0, 60, 64
1, 173040, Note_on_c, 0, 55, 53
1, 173040, Note_on_c, 0, 52, 53
1, 173160, Note_on_c, 0, 52, 0
1, 173160, Note_on_c, 0, 88, 0
1, 173160, Note_on_c, 0, 84, 0
1, 173160, Note_on_c, 0, 91, 0
1, 173160, Note_on_c, 0, 55, 0
1, 173160, Note_on_c, 0, 60, 0
1, 173160, Note_on_c, 0, 79, 66
1, 173160, Note_on_c, 0, 64, 55
1, 173200, Tempo, 408163
1, 173280, Note_on_c, 0, 64, 0
1, 173280, Note_on_c, 0, 79, 0
1, 173280, Note_on_c, 0, 81, 65
1, 173280, Note_on_c, 0, 86, 65
1, 173280, Note_on_c, 0, 89, 77
1, 173280, Note_on_c, 0, 62, 67
1, 173280, Note_on_c, 0, 57, 56
1, 173280, Note_on_c, 0, 53, 56
1, 173290, Control_c, 0, 64, 0
1, 173320, Tempo, 409556
1, 173365, Control_c, 0, 64, 127
1, 173400, Note_on_c, 0, 53, 0
1, 173400, Note_on_c, 0, 86, 0
1, 173400, Note_on_c, 0, 89, 0
1, 173400, Note_on_c, 0, 81, 0
1, 173400, Note_on_c, 0, 57, 0
1, 173400, Note_on_c, 0, 62, 0
1, 173400, Note_on_c, 0, 77, 69
1, 173400, Note_on_c, 0, 65, 58
1, 173440, Tempo, 410959
1, 173520, Note_on_c, 0, 65, 0
1, 173520, Note_on_c, 0, 77, 0
1, 173520, Note_on_c, 0, 89, 76
1, 173520, Note_on_c, 0, 86, 65
1, 173520, Note_on_c, 0, 81, 65
1, 173520, Note_on_c, 0, 62, 67
1, 173520, Note_on_c, 0, 57, 56
1, 173520, Note_on_c, 0, 53, 56
1, 173560, Tempo, 412371
1, 173640, Note_on_c, 0, 53, 0
1, 173640, Note_on_c, 0, 86, 0
1, 173640, Note_on_c, 0, 81, 0
1, 173640, Note_on_c, 0, 89, 0
1, 173640, Note_on_c, 0, 57, 0
1, 173640, Note_on_c, 0, 62, 0
1, 173640, Note_on_c, 0, 77, 70
1, 173640, Note_on_c, 0, 65, 56
1, 173680, Tempo, 413793
1, 173760, Note_on_c, 0, 65, 0
1, 173760, Note_on_c, 0, 77, 0
1, 173760, Note_on_c, 0, 79, 66
1, 173760, Note_on_c, 0, 84, 66
1, 173760, Note_on_c, 0, 88, 78
1, 173760, Note_on_c, 0, 64, 71
1, 173760, Note_on_c, 0, 60, 59
1, 173760, Note_on_c, 0, 55, 59
1, 173770, Control_c, 0, 64, 0
1, 173800, Tempo, 412371
1, 173840, Tempo, 413793
1, 173852, Control_c, 0, 64, 127
1, 173880, Tempo, 415225
1, 173880, Note_on_c, 0, 55, 0
1, 173880, Note_on_c, 0, 84, 0
1, 173880, Note_on_c, 0, 88, 0
1, 173880, Note_on_c, 0, 79, 0
1, 173880, Note_on_c, 0, 60, 0
1, 173880, Note_on_c, 0, 64, 0
1, 173880, Note_on_c, 0, 76, 71
1, 173880, Note_on_c, 0, 67, 61
1, 173920, Tempo, 416667
1, 173960, Tempo, 418118
1, 174000, Tempo, 419580
1, 174000, Note_on_c, 0, 67, 0
1, 174000, Note_on_c, 0, 76, 0
1, 174000, Note_on_c, 0, 79, 67
1, 174000, Note_on_c, 0, 84, 67
1, 174000, Note_on_c, 0, 88, 79
1, 174000, Note_on_c, 0, 64, 70
1, 174000, Note_on_c, 0, 60, 58
1, 174000, Note_on_c, 0, 55, 58
1, 174040, Tempo, 421053
1, 174080, Tempo, 422535
1, 174120, Tempo, 424028
1, 174120, Note_on_c, 0, 55, 0
1, 174120, Note_on_c, 0, 84, 0
1, 174120, Note_on_c, 0, 88, 0
1, 174120, Note_on_c, 0, 79, 0
1, 174120, Note_on_c, 0, 60, 0
1, 174120, Note_on_c, 0, 64, 0
1, 174120, Note_on_c, 0, 76, 70
1, 174120, Note_on_c, 0, 67, 59
1, 174160, Tempo, 425532
1, 174200, Tempo, 427046
1, 174240, Tempo, 430108
1, 174240, Note_on_c, 0, 67, 0
1, 174240, Note_on_c, 0, 76, 0
1, 174240, Note_on_c, 0, 79, 67
1, 174240, Note_on_c, 0, 83, 67
1, 174240, Note_on_c, 0, 86, 79
1, 174240, Note_on_c, 0, 65, 71
1, 174240, Note_on_c, 0, 62, 59
1, 174240, Note_on_c, 0, 55, 59
1, 174250, Control_c, 0, 64, 0
1, 174320, Tempo, 428571
1, 174325, Control_c, 0, 64, 127
1, 174360, Note_on_c, 0, 55, 0
1, 174360, Note_on_c, 0, 83, 0
1, 174360, Note_on_c, 0, 86, 0
1, 174360, Note_on_c, 0, 79, 0
1, 174360, Note_on_c, 0, 62, 0
1, 174360, Note_on_c, 0, 65, 0
1, 174360, Note_on_c, 0, 74, 74
1, 174360, Note_on_c, 0, 67, 64
1, 174440, Tempo, 430108
1, 174480, Note_on_c, 0, 67, 0
1, 174480, Note_on_c, 0, 74, 0
1, 174480, Note_on_c, 0, 79, 68
1, 174480, Note_on_c, 0, 83, 68
1, 174480, Note_on_c, 0, 86, 80
1, 174480, Note_on_c, 0, 65, 74
1, 174480, Note_on_c, 0, 62, 63
1, 174480, Note_on_c, 0, 55, 63
1, 174560, Tempo, 431655
1, 174600, Note_on_c, 0, 55, 0
1, 174600, Note_on_c, 0, 83, 0
1, 174600, Note_on_c, 0, 86, 0
1, 174600, Note_on_c, 0, 79, 0
1, 174600, Note_on_c, 0, 62, 0
1, 174600, Note_on_c, 0, 65, 0
1, 174600, Note_on_c, 0, 74, 74
1, 174600, Note_on_c, 0, 67, 63
1, 174720, Tempo, 412371
1, 174720, Note_on_c, 0, 67, 0
1, 174720, Note_on_c, 0, 74, 0
1, 174720, Note_on_c, 0, 88, 78
1, 174720, Control_c, 0, 91, 127
1, 174720, Text_t, "bdca426d104a26ac9dcb070447587523"
1, 174720, Control_c, 0, 64, 0
1, 174720, Control_c, 0, 64, 0
1, 174720, Note_on_c, 0, 36, 70
1, 174720, Note_on_c, 0, 48, 82
1, 174789, Control_c, 0, 64, 127
1, 174840, Note_on_c, 0, 88, 0
1, 174840, Note_on_c, 0, 96, 76
1, 174960, Note_on_c, 0, 96, 0
1, 174960, Note_on_c, 0, 91, 76
1, 175080, Note_on_c, 0, 91, 0
1, 175080, Note_on_c, 0, 88, 75
1, 175200, Tempo, 401338
1, 175200, Note_on_c, 0, 88, 0
1, 175200, Note_on_c, 0, 48, 0
1, 175200, Note_on_c, 0, 36, 0
1, 175200, Note_on_c, 0, 84, 74
1, 175200, Note_on_c, 0, 40, 60
1, 175200, Note_on_c, 0, 52, 72
1, 175221, Control_c, 0, 64, 0
1, 175290, Note_on_c, 0, 52, 0
1, 175290, Note_on_c, 0, 40, 0
1, 175320, Note_on_c, 0, 79, 73
1, 175340, Note_on_c, 0, 84, 0
1, 175440, Tempo, 406780
1, 175440, Note_on_c, 0, 76, 72
1, 175440, Note_on_c, 0, 40, 60
1, 175440, Note_on_c, 0, 52, 72
1, 175460, Note_on_c, 0, 79, 0
1, 175530, Note_on_c, 0, 52, 0
1, 175530, Note_on_c, 0, 40, 0
1, 175560, Note_on_c, 0, 72, 72
1, 175580, Note_on_c, 0, 76, 0
1, 175680, Tempo, 406780
1, 175680, Note_on_c, 0, 86, 72
1, 175680, Note_on_c, 0, 43, 66
1, 175680, Note_on_c, 0, 55, 78
1, 175700, Note_on_c, 0, 72, 0
1, 175765, Control_c, 0, 64, 127
1, 175800, Note_on_c, 0, 86, 0
1, 175800, Note_on_c, 0, 95, 76
1, 175920, Note_on_c, 0, 95, 0
1, 175920, Note_on_c, 0, 91, 72
1, 176040, Note_on_c, 0, 91, 0
1, 176040, Note_on_c, 0, 89, 68
1, 176160, Tempo, 406780
1, 176160, Note_on_c, 0, 89, 0
1, 176160, Note_on_c, 0, 43, 0
1, 176160, Note_on_c, 0, 55, 0
1, 176160, Note_on_c, 0, 83, 74
1, 176160, Note_on_c, 0, 31, 62
1, 176160, Note_on_c, 0, 43, 73
1, 176196, Control_c, 0, 64, 0
1, 176250, Note_on_c, 0, 43, 0
1, 176250, Note_on_c, 0, 31, 0
1, 176280, Note_on_c, 0, 79, 68
1, 176300, Note_on_c, 0, 83, 0
1, 176400, Tempo, 421053
1, 176400, Note_on_c, 0, 77, 74
1, 176400, Note_on_c, 0, 31, 63
1, 176400, Note_on_c, 0, 43, 74
1, 176420, Note_on_c, 0, 79, 0
1, 176490, Note_on_c, 0, 43, 0
1, 176490, Note_on_c, 0, 31, 0
1, 176520, Tempo, 461538
1, 176520, Note_on_c, 0, 71, 71
1, 176540, Note_on_c, 0, 77, 0
1, 176640, Tempo, 412371
1, 176640, Note_on_c, 0, 86, 72
1, 176640, Control_c, 0, 91, 127
1, 176640, Text_t, "bdca426d104a26ac9dcb070447587523"
1, 176640, Note_on_c, 0, 38, 67
1, 176640, Note_on_c, 0, 50, 79
1, 176660, Note_on_c, 0, 71, 0
1, 176709, Control_c, 0, 64, 127
1, 176760, Note_on_c, 0, 86, 0
1, 176760, Note_on_c, 0, 98, 76
1, 176880, Note_on_c, 0, 98, 0
1, 176880, Note_on_c, 0, 93, 76
1, 177000, Note_on_c, 0, 93, 0
1, 177000, Note_on_c, 0, 89, 75
1, 177120, Tempo, 401338
1, 177120, Note_on_c, 0, 89, 0
1, 177120, Note_on_c, 0, 38, 0
1, 177120, Note_on_c, 0, 50, 0
1, 177120, Note_on_c, 0, 86, 74
1, 177120, Note_on_c, 0, 41, 60
1, 177120, Note_on_c, 0, 53, 72
1, 177141, Control_c, 0, 64, 0
1, 177210, Note_on_c, 0, 53, 0
1, 177210, Note_on_c, 0, 41, 0
1, 177240, Note_on_c, 0, 81, 73
1, 177260, Note_on_c, 0, 86, 0
1, 177360, Tempo, 406780
1, 177360, Note_on_c, 0, 77, 72
1, 177360, Note_on_c, 0, 41, 60
1, 177360, Note_on_c, 0, 53, 72
1, 177380, Note_on_c, 0, 81, 0
1, 177450, Note_on_c, 0, 53, 0
1, 177450, Note_on_c, 0, 41, 0
1, 177480, Note_on_c, 0, 74, 72
1, 177500, Note_on_c, 0, 77, 0
1, 177600, Tempo, 408163
1, 177600, Note_on_c, 0, 85, 72
1, 177600, Note_on_c, 0, 45, 66
1, 177600, Note_on_c, 0, 57, 78
1, 177620, Note_on_c, 0, 74, 0
1, 177685, Control_c, 0, 64, 127
1, 177720, Note_on_c, 0, 85, 0
1, 177720, Note_on_c, 0, 97, 76
1, 177840, Note_on_c, 0, 97, 0
1, 177840, Note_on_c, 0, 93, 72
1, 177960, Note_on_c, 0, 93, 0
1, 177960, Note_on_c, 0, 91, 68
1, 178080, Tempo, 409556
1, 178080, Note_on_c, 0, 91, 0
1, 178080, Note_on_c, 0, 45, 0
1, 178080, Note_on_c, 0, 57, 0
1, 178080, Note_on_c, 0, 85, 74
1, 178080, Note_on_c, 0, 33, 62
1, 178080, Note_on_c, 0, 45, 73
1, 178103, Control_c, 0, 64, 0
1, 178170, Note_on_c, 0, 45, 0
1, 178170, Note_on_c, 0, 33, 0
1, 178200, Note_on_c, 0, 81, 68
1, 178220, Note_on_c, 0, 85, 0
1, 178320, Tempo, 419580
1, 178320, Note_on_c, 0, 79, 74
1, 178320, Note_on_c, 0, 33, 63
1, 178320, Note_on_c, 0, 45, 74
1, 178340, Note_on_c, 0, 81, 0
1, 178410, Note_on_c, 0, 45, 0
1, 178410, Note_on_c, 0, 33, 0
1, 178440, Tempo, 461538
1, 178440, Note_on_c, 0, 73, 71
1, 178460, Note_on_c, 0, 79, 0
1, 178560, Tempo, 412371
1, 178560, Note_on_c, 0, 89, 72
1, 178560, Control_c, 0, 91, 127
1, 178560, Text_t, "bdca426d104a26ac9dcb070447587523"
1, 178560, Note_on_c, 0, 41, 67
1, 178560, Note_on_c, 0, 53, 79
1, 178580, Note_on_c, 0, 73, 0
1, 178629, Control_c, 0, 64, 127
1, 178680, Note_on_c, 0, 89, 0
1, 178680, Note_on_c, 0, 101, 76
1, 178800, Note_on_c, 0, 101, 0
1, 178800, Note_on_c, 0, 96, 76
1, 178920, Note_on_c, 0, 96, 0
1, 178920, Note_on_c, 0, 93, 75
1, 179040, Tempo, 397351
1, 179040, Note_on_c, 0, 93, 0
1, 179040, Note_on_c, 0, 41, 0
1, 179040, Note_on_c, 0, 53, 0
1, 179040, Note_on_c, 0, 89, 74
1, 179040, Note_on_c, 0, 45, 60
1, 179040, Note_on_c, 0, 57, 72
1, 179061, Control_c, 0, 64, 0
1, 179130, Note_on_c, 0, 57, 0
1, 179130, Note_on_c, 0, 45, 0
1, 179160, Note_on_c, 0, 84, 73
1, 179180, Note_on_c, 0, 89, 0
1, 179280, Tempo, 408163
1, 179280, Note_on_c, 0, 81, 72
1, 179280, Note_on_c, 0, 45, 60
1, 179280, Note_on_c, 0, 57, 72
1, 179300, Note_on_c, 0, 84, 0
1, 179370, Note_on_c, 0, 57, 0
1, 179370, Note_on_c, 0, 45, 0
1, 179400, Note_on_c, 0, 77, 72
1, 179420, Note_on_c, 0, 81, 0
1, 179520, Tempo, 402685
1, 179520, Note_on_c, 0, 88, 72
1, 179520, Note_on_c, 0, 48, 66
1, 179520, Note_on_c, 0, 60, 78
1, 179540, Note_on_c, 0, 77, 0
1, 179605, Control_c, 0, 64, 127
1, 179640, Note_on_c, 0, 88, 0
1, 179640, Note_on_c, 0, 100, 76
1, 179760, Note_on_c, 0, 100, 0
1, 179760, Note_on_c, 0, 96, 72
1, 179880, Note_on_c, 0, 96, 0
1, 179880, Note_on_c, 0, 91, 68
1, 180000, Tempo, 412371
1, 180000, Note_on_c, 0, 91, 0
1, 180000, Note_on_c, 0, 48, 0
1, 180000, Note_on_c, 0, 60, 0
1, 180000, Note_on_c, 0, 88, 74
1, 180000, Control_c, 0, 64, 0
1, 180000, Note_on_c, 0, 36, 62
1, 180000, Note_on_c, 0, 48, 73
1, 180090, Note_on_c, 0, 48, 0
1, 180090, Note_on_c, 0, 36, 0
1, 180120, Note_on_c, 0, 84, 68
1, 180140, Note_on_c, 0, 88, 0
1, 180240, Tempo, 419580
1, 180240, Note_on_c, 0, 79, 74
1, 180240, Note_on_c, 0, 36, 63
1, 180240, Note_on_c, 0, 48, 74
1, 180260, Note_on_c, 0, 84, 0
1, 180330, Note_on_c, 0, 48, 0
1, 180330, Note_on_c, 0, 36, 0
1, 180360, Tempo, 461538
1, 180360, Note_on_c, 0, 76, 71
1, 180380, Note_on_c, 0, 79, 0
1, 180480, Tempo, 412371
1, 180480, Note_on_c, 0, 85, 73
1, 180480, Note_on_c, 0, 82, 73
1, 180480, Note_on_c, 0, 79, 73
1, 180480, Note_on_c, 0, 91, 87
1, 180480, Note_on_c, 0, 40, 71
1, 180500, Note_on_c, 0, 76, 0
1, 180537, Control_c, 0, 64, 127
1, 180600, Note_on_c, 0, 46, 64
1, 180620, Note_on_c, 0, 40, 0
1, 180720, Note_on_c, 0, 49, 64
1, 180740, Note_on_c, 0, 46, 0
1, 180840, Note_on_c, 0, 52, 64
1, 180860, Note_on_c, 0, 49, 0
1, 180960, Tempo, 401338
1, 180960, Note_on_c, 0, 91, 0
1, 180960, Note_on_c, 0, 79, 0
1, 180960, Note_on_c, 0, 85, 0
1, 180960, Note_on_c, 0, 82, 0
1, 180960, Note_on_c, 0, 73, 60
1, 180960, Note_on_c, 0, 70, 60
1, 180960, Note_on_c, 0, 67, 60
1, 180960, Note_on_c, 0, 79, 72
1, 180960, Note_on_c, 0, 52, 71
1, 180980, Note_on_c, 0, 52, 0
1, 181080, Note_on_c, 0, 58, 66
1, 181100, Note_on_c, 0, 52, 0
1, 181200, Note_on_c, 0, 79, 0
1, 181200, Note_on_c, 0, 67, 0
1, 181200, Note_on_c, 0, 73, 0
1, 181200, Note_on_c, 0, 70, 0
1, 181200, Note_on_c, 0, 73, 60
1, 181200, Note_on_c, 0, 70, 60
1, 181200, Note_on_c, 0, 67, 60
1, 181200, Note_on_c, 0, 79, 72
1, 181200, Note_on_c, 0, 61, 66
1, 181220, Note_on_c, 0, 58, 0
1, 181320, Tempo, 474308
1, 181320, Note_on_c, 0, 64, 66
1, 181340, Note_on_c, 0, 61, 0
1, 181440, Tempo, 412371
1, 181440, Note_on_c, 0, 79, 0
1, 181440, Note_on_c, 0, 67, 0
1, 181440, Note_on_c, 0, 73, 0
1, 181440, Note_on_c, 0, 70, 0
1, 181440, Note_on_c, 0, 86, 69
1, 181440, Note_on_c, 0, 83, 69
1, 181440, Note_on_c, 0, 79, 69
1, 181440, Note_on_c, 0, 91, 82
1, 181440, Note_on_c, 0, 41, 71
1, 181451, Control_c, 0, 64, 0
1, 181460, Note_on_c, 0, 64, 0
1, 181520, Control_c, 0, 64, 127
1, 181560, Note_on_c, 0, 47, 65
1, 181580, Note_on_c, 0, 41, 0
1, 181680, Note_on_c, 0, 50, 66
1, 181700, Note_on_c, 0, 47, 0
1, 181800, Note_on_c, 0, 53, 66
1, 181820, Note_on_c, 0, 50, 0
1, 181920, Tempo, 406780
1, 181920, Note_on_c, 0, 91, 0
1, 181920, Note_on_c, 0, 79, 0
1, 181920, Note_on_c, 0, 86, 0
1, 181920, Note_on_c, 0, 83, 0
1, 181920, Note_on_c, 0, 74, 62
1, 181920, Note_on_c, 0, 71, 62
1, 181920, Note_on_c, 0, 67, 62
1, 181920, Note_on_c, 0, 79, 73
1, 181920, Note_on_c, 0, 53, 71
1, 181940, Note_on_c, 0, 53, 0
1, 182040, Note_on_c, 0, 59, 65
1, 182060, Note_on_c, 0, 53, 0
1, 182160, Note_on_c, 0, 79, 0
1, 182160, Note_on_c, 0, 67, 0
1, 182160, Note_on_c, 0, 74, 0
1, 182160, Note_on_c, 0, 71, 0
1, 182160, Note_on_c, 0, 74, 63
1, 182160, Note_on_c, 0, 71, 63
1, 182160, Note_on_c, 0, 67, 63
1, 182160, Note_on_c, 0, 79, 74
1, 182160, Note_on_c, 0, 62, 65
1, 182180, Note_on_c, 0, 59, 0
1, 182280, Tempo, 474308
1, 182280, Note_on_c, 0, 65, 65
1, 182300, Note_on_c, 0, 62, 0
1, 182371, Control_c, 0, 64, 0
1, 182400, Tempo, 412371
1, 182400, Note_on_c, 0, 79, 0
1, 182400, Note_on_c, 0, 67, 0
1, 182400, Note_on_c, 0, 74, 0
1, 182400, Note_on_c, 0, 71, 0
1, 182400, Note_on_c, 0, 85, 73
1, 182400, Note_on_c, 0, 82, 73
1, 182400, Note_on_c, 0, 79, 73
1, 182400, Note_on_c, 0, 91, 87
1, 182400, Note_on_c, 0, 40, 71
1, 182420, Note_on_c, 0, 65, 0
1, 182486, Control_c, 0, 64, 127
1, 182520, Note_on_c, 0, 46, 64
1, 182540, Note_on_c, 0, 40, 0
1, 182640, Note_on_c, 0, 49, 64
1, 182660, Note_on_c, 0, 46, 0
1, 182760, Note_on_c, 0, 52, 64
1, 182780, Note_on_c, 0, 49, 0
1, 182880, Tempo, 401338
1, 182880, Note_on_c, 0, 91, 0
1, 182880, Note_on_c, 0, 79, 0
1, 182880, Note_on_c, 0, 85, 0
1, 182880, Note_on_c, 0, 82, 0
1, 182880, Note_on_c, 0, 73, 60
1, 182880, Note_on_c, 0, 70, 60
1, 182880, Note_on_c, 0, 67, 60
1, 182880, Note_on_c, 0, 79, 72
1, 182880, Note_on_c, 0, 52, 71
1, 182900, Note_on_c, 0, 52, 0
1, 183000, Note_on_c, 0, 58, 66
1, 183020, Note_on_c, 0, 52, 0
1, 183120, Note_on_c, 0, 79, 0
1, 183120, Note_on_c, 0, 67, 0
1, 183120, Note_on_c, 0, 73, 0
1, 183120, Note_on_c, 0, 70, 0
1, 183120, Note_on_c, 0, 73, 60
1, 183120, Note_on_c, 0, 70, 60
1, 183120, Note_on_c, 0, 67, 60
1, 183120, Note_on_c, 0, 79, 72
1, 183120, Note_on_c, 0, 61, 66
1, 183140, Note_on_c, 0, 58, 0
1, 183240, Tempo, 474308
1, 183240, Note_on_c, 0, 64, 66
1, 183260, Note_on_c, 0, 61, 0
1, 183360, Tempo, 412371
1, 183360, Note_on_c, 0, 79, 0
1, 183360, Note_on_c, 0, 67, 0
1, 183360, Note_on_c, 0, 73, 0
1, 183360, Note_on_c, 0, 70, 0
1, 183360, Note_on_c, 0, 86, 69
1, 183360, Note_on_c, 0, 83, 69
1, 183360, Note_on_c, 0, 79, 69
1, 183360, Note_on_c, 0, 91, 82
1, 183360, Note_on_c, 0, 41, 71
1, 183371, Control_c, 0, 64, 0
1, 183380, Note_on_c, 0, 64, 0
1, 183454, Control_c, 0, 64, 127
1, 183480, Note_on_c, 0, 47, 65
1, 183500, Note_on_c, 0, 41, 0
1, 183600, Note_on_c, 0, 50, 66
1, 183620, Note_on_c, 0, 47, 0
1, 183720, Note_on_c, 0, 53, 66
1, 183740, Note_on_c, 0, 50, 0
1, 183840, Tempo, 406780
1, 183840, Note_on_c, 0, 91, 0
1, 183840, Note_on_c, 0, 79, 0
1, 183840, Note_on_c, 0, 86, 0
1, 183840, Note_on_c, 0, 83, 0
1, 183840, Note_on_c, 0, 74, 62
1, 183840, Note_on_c, 0, 71, 62
1, 183840, Note_on_c, 0, 67, 62
1, 183840, Note_on_c, 0, 79, 73
1, 183840, Note_on_c, 0, 53, 71
1, 183860, Note_on_c, 0, 53, 0
1, 183960, Note_on_c, 0, 59, 65
1, 183980, Note_on_c, 0, 53, 0
1, 184080, Note_on_c, 0, 79, 0
1, 184080, Note_on_c, 0, 67, 0
1, 184080, Note_on_c, 0, 74, 0
1, 184080, Note_on_c, 0, 71, 0
1, 184080, Note_on_c, 0, 74, 63
1, 184080, Note_on_c, 0, 71, 63
1, 184080, Note_on_c, 0, 67, 63
1, 184080, Note_on_c, 0, 79, 74
1, 184080, Note_on_c, 0, 62, 65
1, 184100, Note_on_c, 0, 59, 0
1, 184200, Tempo, 474308
1, 184200, Note_on_c, 0, 65, 65
1, 184220, Note_on_c, 0, 62, 0
1, 184291, Control_c, 0, 64, 0
1, 184320, Tempo, 404040
1, 184320, Note_on_c, 0, 79, 0
1, 184320, Note_on_c, 0, 67, 0
1, 184320, Note_on_c, 0, 74, 0
1, 184320, Note_on_c, 0, 71, 0
1, 184320, Note_on_c, 0, 91, 64
1, 184320, Note_on_c, 0, 96, 76
1, 184320, Note_on_c, 0, 60, 67
1, 184320, Note_on_c, 0, 55, 56
1, 184320, Note_on_c, 0, 52, 56
1, 184330, Control_c, 0, 64, 0
1, 184340, Note_on_c, 0, 65, 0
1, 184398, Control_c, 0, 64, 127
1, 184440, Note_on_c, 0, 96, 0
1, 184440, Note_on_c, 0, 60, 0
1, 184440, Note_on_c, 0, 91, 0
1, 184440, Note_on_c, 0, 52, 0
1, 184440, Note_on_c, 0, 55, 0
1, 184440, Note_on_c, 0, 84, 71
1, 184440, Note_on_c, 0, 64, 58
1, 184560, Note_on_c, 0, 64, 0
1, 184560, Note_on_c, 0, 84, 0
1, 184560, Note_on_c, 0, 96, 76
1, 184560, Note_on_c, 0, 91, 64
1, 184560, Note_on_c, 0, 60, 67
1, 184560, Note_on_c, 0, 55, 56
1, 184560, Note_on_c, 0, 52, 56
1, 184680, Note_on_c, 0, 52, 0
1, 184680, Note_on_c, 0, 60, 0
1, 184680, Note_on_c, 0, 96, 0
1, 184680, Note_on_c, 0, 91, 0
1, 184680, Note_on_c, 0, 55, 0
1, 184680, Note_on_c, 0, 84, 69
1, 184680, Note_on_c, 0, 64, 57
1, 184720, Tempo, 408163
1, 184800, Note_on_c, 0, 64, 0
1, 184800, Note_on_c, 0, 84, 0
1, 184800, Note_on_c, 0, 84, 63
1, 184800, Note_on_c, 0, 89, 63
1, 184800, Note_on_c, 0, 93, 75
1, 184800, Note_on_c, 0, 60, 66
1, 184800, Note_on_c, 0, 57, 56
1, 184800, Note_on_c, 0, 53, 56
1, 184810, Control_c, 0, 64, 0
1, 184840, Tempo, 409556
1, 184885, Control_c, 0, 64, 127
1, 184920, Note_on_c, 0, 53, 0
1, 184920, Note_on_c, 0, 89, 0
1, 184920, Note_on_c, 0, 93, 0
1, 184920, Note_on_c, 0, 84, 0
1, 184920, Note_on_c, 0, 57, 0
1, 184920, Note_on_c, 0, 60, 0
1, 184920, Note_on_c, 0, 81, 68
1, 184920, Note_on_c, 0, 65, 57
1, 184960, Tempo, 410959
1, 185040, Note_on_c, 0, 65, 0
1, 185040, Note_on_c, 0, 81, 0
1, 185040, Note_on_c, 0, 93, 74
1, 185040, Note_on_c, 0, 89, 62
1, 185040, Note_on_c, 0, 84, 62
1, 185040, Note_on_c, 0, 60, 66
1, 185040, Note_on_c, 0, 57, 56
1, 185040, Note_on_c, 0, 53, 56
1, 185080, Tempo, 412371
1, 185160, Note_on_c, 0, 53, 0
1, 185160, Note_on_c, 0, 89, 0
1, 185160, Note_on_c, 0, 84, 0
1, 185160, Note_on_c, 0, 93, 0
1, 185160, Note_on_c, 0, 57, 0
1, 185160, Note_on_c, 0, 60, 0
1, 185160, Note_on_c, 0, 81, 67
1, 185160, Note_on_c, 0, 65, 55
1, 185200, Tempo, 413793
1, 185280, Note_on_c, 0, 65, 0
1, 185280, Note_on_c, 0, 81, 0
1, 185280, Note_on_c, 0, 84, 62
1, 185280, Note_on_c, 0, 88, 62
1, 185280, Note_on_c, 0, 91, 73
1, 185280, Note_on_c, 0, 64, 65
1, 185280, Note_on_c, 0, 60, 55
1, 185280, Note_on_c, 0, 55, 55
1, 185290, Control_c, 0, 64, 0
1, 185320, Tempo, 412371
1, 185360, Tempo, 413793
1, 185372, Control_c, 0, 64, 127
1, 185400, Tempo, 415225
1, 185400, Note_on_c, 0, 55, 0
1, 185400, Note_on_c, 0, 88, 0
1, 185400, Note_on_c, 0, 91, 0
1, 185400, Note_on_c, 0, 84, 0
1, 185400, Note_on_c, 0, 60, 0
1, 185400, Note_on_c, 0, 64, 0
1, 185400, Note_on_c, 0, 79, 67
1, 185400, Note_on_c, 0, 67, 55
1, 185440, Tempo, 416667
1, 185480, Tempo, 418118
1, 185520, Tempo, 419580
1, 185520, Note_on_c, 0, 67, 0
1, 185520, Note_on_c, 0, 79, 0
1, 185520, Note_on_c, 0, 84, 62
1, 185520, Note_on_c, 0, 88, 62
1, 185520, Note_on_c, 0, 91, 73
1, 185520, Note_on_c, 0, 64, 65
1, 185520, Note_on_c, 0, 60, 55
1, 185520, Note_on_c, 0, 55, 55
1, 185560, Tempo, 421053
1, 185600, Tempo, 422535
1, 185640, Tempo, 424028
1, 185640, Note_on_c, 0, 55, 0
1, 185640, Note_on_c, 0, 88, 0
1, 185640, Note_on_c, 0, 91, 0
1, 185640, Note_on_c, 0, 84, 0
1, 185640, Note_on_c, 0, 60, 0
1, 185640, Note_on_c, 0, 64, 0
1, 185640, Note_on_c, 0, 79, 66
1, 185640, Note_on_c, 0, 67, 56
1, 185680, Tempo, 425532
1, 185720, Tempo, 427046
1, 185760, Tempo, 430108
1, 185760, Note_on_c, 0, 67, 0
1, 185760, Note_on_c, 0, 79, 0
1, 185760, Note_on_c, 0, 83, 61
1, 185760, Note_on_c, 0, 86, 61
1, 185760, Note_on_c, 0, 91, 72
1, 185760, Note_on_c, 0, 65, 64
1, 185760, Note_on_c, 0, 62, 54
1, 185760, Note_on_c, 0, 55, 54
1, 185770, Control_c, 0, 64, 0
1, 185840, Tempo, 428571
1, 185845, Control_c, 0, 64, 127
1, 185880, Note_on_c, 0, 55, 0
1, 185880, Note_on_c, 0, 86, 0
1, 185880, Note_on_c, 0, 91, 0
1, 185880, Note_on_c, 0, 83, 0
1, 185880, Note_on_c, 0, 62, 0
1, 185880, Note_on_c, 0, 65, 0
1, 185880, Note_on_c, 0, 79, 65
1, 185880, Note_on_c, 0, 67, 55
1, 185900, Tempo, 430108
1, 185940, Tempo, 433213
1, 185980, Tempo, 436364
1, 186000, Note_on_c, 0, 67, 0
1, 186000, Note_on_c, 0, 79, 0
1, 186000, Note_on_c, 0, 83, 60
1, 186000, Note_on_c, 0, 86, 60
1, 186000, Note_on_c, 0, 91, 71
1, 186000, Note_on_c, 0, 65, 63
1, 186000, Note_on_c, 0, 62, 53
1, 186000, Note_on_c, 0, 55, 53
1, 186020, Tempo, 439560
1, 186060, Tempo, 444444
1, 186120, Tempo, 666667
1, 186120, Note_on_c, 0, 55, 0
1, 186120, Note_on_c, 0, 86, 0
1, 186120, Note_on_c, 0, 91, 0
1, 186120, Note_on_c, 0, 83, 0
1, 186120, Note_on_c, 0, 62, 0
1, 186120, Note_on_c, 0, 65, 0
1, 186120, Note_on_c, 0, 79, 65
1, 186120, Note_on_c, 0, 67, 54
1, 186184, Control_c, 0, 64, 0
1, 186240, Tempo, 409556
1, 186240, Note_on_c, 0, 67, 0
1, 186240, Note_on_c, 0, 79, 0
1, 186240, Note_on_c, 0, 88, 46
1, 186240, Control_c, 0, 91, 127
1, 186240, Text_t, "bdca426d104a26ac9dcb070447587523"
1, 186240, Note_on_c, 0, 36, 49
1, 186309, Control_c, 0, 64, 127
1, 186360, Note_on_c, 0, 88, 0
1, 186360, Note_on_c, 0, 96, 49
1, 186480, Note_on_c, 0, 96, 0
1, 186480, Note_on_c, 0, 91, 49
1, 186600, Note_on_c, 0, 91, 0
1, 186600, Note_on_c, 0, 88, 48
1, 186720, Tempo, 396040
1, 186720, Note_on_c, 0, 88, 0
1, 186720, Note_on_c, 0, 36, 0
1, 186720, Note_on_c, 0, 84, 48
1, 186720, Note_on_c, 0, 52, 39
1, 186720, Note_on_c, 0, 60, 46
1, 186741, Control_c, 0, 64, 0
1, 186810, Note_on_c, 0, 60, 0
1, 186810, Note_on_c, 0, 52, 0
1, 186840, Note_on_c, 0, 79, 47
1, 186860, Note_on_c, 0, 84, 0
1, 186960, Note_on_c, 0, 76, 46
1, 186960, Note_on_c, 0, 52, 39
1, 186960, Note_on_c, 0, 60, 46
1, 186980, Note_on_c, 0, 79, 0
1, 187050, Note_on_c, 0, 60, 0
1, 187050, Note_on_c, 0, 52, 0
1, 187080, Note_on_c, 0, 72, 46
1, 187100, Note_on_c, 0, 76, 0
1, 187200, Tempo, 405405
1, 187200, Note_on_c, 0, 86, 46
1, 187200, Note_on_c, 0, 55, 39
1, 187200, Note_on_c, 0, 62, 46
1, 187220, Note_on_c, 0, 72, 0
1, 187285, Control_c, 0, 64, 127
1, 187320, Note_on_c, 0, 86, 0
1, 187320, Note_on_c, 0, 95, 49
1, 187440, Note_on_c, 0, 95, 0
1, 187440, Note_on_c, 0, 91, 46
1, 187560, Note_on_c, 0, 91, 0
1, 187560, Note_on_c, 0, 89, 44
1, 187680, Tempo, 409556
1, 187680, Note_on_c, 0, 89, 0
1, 187680, Note_on_c, 0, 55, 0
1, 187680, Note_on_c, 0, 62, 0
1, 187680, Note_on_c, 0, 83, 48
1, 187680, Control_c, 0, 64, 0
1, 187680, Note_on_c, 0, 43, 47
1, 187770, Note_on_c, 0, 43, 0
1, 187800, Note_on_c, 0, 79, 44
1, 187820, Note_on_c, 0, 83, 0
1, 187920, Note_on_c, 0, 77, 48
1, 187920, Note_on_c, 0, 43, 48
1, 187940, Note_on_c, 0, 79, 0
1, 188010, Note_on_c, 0, 43, 0
1, 188040, Tempo, 461538
1, 188040, Note_on_c, 0, 71, 46
1, 188060, Note_on_c, 0, 77, 0
1, 188160, Tempo, 408163
1, 188160, Note_on_c, 0, 86, 46
1, 188160, Control_c, 0, 91, 127
1, 188160, Text_t, "bdca426d104a26ac9dcb070447587523"
1, 188160, Note_on_c, 0, 38, 49
1, 188180, Note_on_c, 0, 71, 0
1, 188229, Control_c, 0, 64, 127
1, 188280, Note_on_c, 0, 86, 0
1, 188280, Note_on_c, 0, 98, 49
1, 188400, Note_on_c, 0, 98, 0
1, 188400, Note_on_c, 0, 93, 49
1, 188520, Note_on_c, 0, 93, 0
1, 188520, Note_on_c, 0, 89, 48
1, 188640, Tempo, 392157
1, 188640, Note_on_c, 0, 89, 0
1, 188640, Note_on_c, 0, 38, 0
1, 188640, Note_on_c, 0, 86, 48
1, 188640, Note_on_c, 0, 53, 39
1, 188640, Note_on_c, 0, 62, 46
1, 188661, Control_c, 0, 64, 0
1, 188730, Note_on_c, 0, 62, 0
1, 188730, Note_on_c, 0, 53, 0
1, 188760, Note_on_c, 0, 81, 47
1, 188780, Note_on_c, 0, 86, 0
1, 188880, Tempo, 402685
1, 188880, Note_on_c, 0, 77, 46
1, 188880, Note_on_c, 0, 53, 39
1, 188880, Note_on_c, 0, 62, 46
1, 188900, Note_on_c, 0, 81, 0
1, 188970, Note_on_c, 0, 62, 0
1, 188970, Note_on_c, 0, 53, 0
1, 189000, Note_on_c, 0, 74, 46
1, 189020, Note_on_c, 0, 77, 0
1, 189120, Tempo, 408163
1, 189120, Note_on_c, 0, 85, 46
1, 189120, Note_on_c, 0, 57, 39
1, 189120, Note_on_c, 0, 64, 46
1, 189140, Note_on_c, 0, 74, 0
1, 189205, Control_c, 0, 64, 127
1, 189240, Note_on_c, 0, 85, 0
1, 189240, Note_on_c, 0, 97, 49
1, 189360, Note_on_c, 0, 97, 0
1, 189360, Note_on_c, 0, 93, 46
1, 189480, Note_on_c, 0, 93, 0
1, 189480, Note_on_c, 0, 91, 44
1, 189600, Tempo, 409556
1, 189600, Note_on_c, 0, 91, 0
1, 189600, Note_on_c, 0, 57, 0
1, 189600, Note_on_c, 0, 64, 0
1, 189600, Note_on_c, 0, 85, 48
1, 189600, Control_c, 0, 64, 0
1, 189600, Note_on_c, 0, 45, 47
1, 189690, Note_on_c, 0, 45, 0
1, 189720, Note_on_c, 0, 81, 44
1, 189740, Note_on_c, 0, 85, 0
1, 189840, Note_on_c, 0, 79, 48
1, 189840, Note_on_c, 0, 45, 48
1, 189860, Note_on_c, 0, 81, 0
1, 189930, Note_on_c, 0, 45, 0
1, 189960, Tempo, 461538
1, 189960, Note_on_c, 0, 73, 46
1, 189980, Note_on_c, 0, 79, 0
1, 190080, Tempo, 408163
1, 190080, Note_on_c, 0, 89, 50
1, 190080, Control_c, 0, 91, 127
1, 190080, Text_t, "bdca426d104a26ac9dcb070447587523"
1, 190080, Note_on_c, 0, 41, 53
1, 190100, Note_on_c, 0, 73, 0
1, 190149, Control_c, 0, 64, 127
1, 190200, Note_on_c, 0, 89, 0
1, 190200, Note_on_c, 0, 101, 55
1, 190320, Note_on_c, 0, 101, 0
1, 190320, Note_on_c, 0, 96, 56
1, 190440, Note_on_c, 0, 96, 0
1, 190440, Note_on_c, 0, 93, 57
1, 190560, Tempo, 397351
1, 190560, Note_on_c, 0, 93, 0
1, 190560, Note_on_c, 0, 41, 0
1, 190560, Note_on_c, 0, 89, 58
1, 190560, Note_on_c, 0, 57, 47
1, 190560, Note_on_c, 0, 65, 56
1, 190581, Control_c, 0, 64, 0
1, 190650, Note_on_c, 0, 65, 0
1, 190650, Note_on_c, 0, 57, 0
1, 190680, Note_on_c, 0, 84, 58
1, 190700, Note_on_c, 0, 89, 0
1, 190800, Note_on_c, 0, 81, 58
1, 190800, Note_on_c, 0, 57, 49
1, 190800, Note_on_c, 0, 65, 58
1, 190820, Note_on_c, 0, 84, 0
1, 190890, Note_on_c, 0, 65, 0
1, 190890, Note_on_c, 0, 57, 0
1, 190920, Note_on_c, 0, 77, 60
1, 190940, Note_on_c, 0, 81, 0
1, 191040, Tempo, 406780
1, 191040, Note_on_c, 0, 88, 62
1, 191040, Note_on_c, 0, 60, 52
1, 191040, Note_on_c, 0, 67, 62
1, 191060, Note_on_c, 0, 77, 0
1, 191125, Control_c, 0, 64, 127
1, 191160, Note_on_c, 0, 88, 0
1, 191160, Note_on_c, 0, 100, 67
1, 191280, Note_on_c, 0, 100, 0
1, 191280, Note_on_c, 0, 96, 64
1, 191400, Note_on_c, 0, 96, 0
1, 191400, Note_on_c, 0, 91, 63
1, 191520, Tempo, 410959
1, 191520, Note_on_c, 0, 91, 0
1, 191520, Note_on_c, 0, 60, 0
1, 191520, Note_on_c, 0, 67, 0
1, 191520, Note_on_c, 0, 88, 70
1, 191520, Control_c, 0, 64, 0
1, 191520, Note_on_c, 0, 48, 69
1, 191610, Note_on_c, 0, 48, 0
1, 191640, Note_on_c, 0, 84, 66
1, 191660, Note_on_c, 0, 88, 0
1, 191760, Note_on_c, 0, 79, 73
1, 191760, Note_on_c, 0, 48, 73
1, 191780, Note_on_c, 0, 84, 0
1, 191850, Note_on_c, 0, 48, 0
1, 191880, Tempo, 461538
1, 191880, Note_on_c, 0, 76, 71
1, 191900, Note_on_c, 0, 79, 0
1, 192000, Tempo, 408163
1, 192000, Note_on_c, 0, 85, 73
1, 192000, Note_on_c, 0, 82, 73
1, 192000, Note_on_c, 0, 79, 73
1, 192000, Note_on_c, 0, 91, 87
1, 192000, Note_on_c, 0, 40, 71
1, 192020, Note_on_c, 0, 76, 0
1, 192057, Control_c, 0, 64, 127
1, 192120, Note_on_c, 0, 40, 0
1, 192120, Note_on_c, 0, 46, 64
1, 192240, Note_on_c, 0, 46, 0
1, 192240, Note_on_c, 0, 49, 64
1, 192360, Note_on_c, 0, 49, 0
1, 192360, Note_on_c, 0, 52, 64
1, 192480, Tempo, 397351
1, 192480, Note_on_c, 0, 52, 0
1, 192480, Note_on_c, 0, 91, 0
1, 192480, Note_on_c, 0, 85, 0
1, 192480, Note_on_c, 0, 82, 0
1, 192480, Note_on_c, 0, 79, 0
1, 192480, Note_on_c, 0, 73, 60
1, 192480, Note_on_c, 0, 70, 60
1, 192480, Note_on_c, 0, 67, 60
1, 192480, Note_on_c, 0, 79, 72
1, 192480, Note_on_c, 0, 52, 71
1, 192600, Note_on_c, 0, 52, 0
1, 192600, Note_on_c, 0, 58, 66
1, 192720, Note_on_c, 0, 58, 0
1, 192720, Note_on_c, 0, 79, 0
1, 192720, Note_on_c, 0, 73, 0
1, 192720, Note_on_c, 0, 70, 0
1, 192720, Note_on_c, 0, 67, 0
1, 192720, Note_on_c, 0, 73, 60
1, 192720, Note_on_c, 0, 70, 60
1, 192720, Note_on_c, 0, 67, 60
1, 192720, Note_on_c, 0, 79, 72
1, 192720, Note_on_c, 0, 61, 66
1, 192840, Tempo, 474308
1, 192840, Note_on_c, 0, 61, 0
1, 192840, Note_on_c, 0, 64, 66
1, 192960, Tempo, 408163
1, 192960, Note_on_c, 0, 64, 0
1, 192960, Note_on_c, 0, 79, 0
1, 192960, Note_on_c, 0, 73, 0
1, 192960, Note_on_c, 0, 70, 0
1, 192960, Note_on_c, 0, 67, 0
1, 192960, Note_on_c, 0, 86, 72
1, 192960, Note_on_c, 0, 83, 72
1, 192960, Note_on_c, 0, 80, 72
1, 192960, Note_on_c, 0, 92, 86
1, 192960, Note_on_c, 0, 41, 71
1, 192971, Control_c, 0, 64, 0
1, 193040, Control_c, 0, 64, 127
1, 193080, Note_on_c, 0, 41, 0
1, 193080, Note_on_c, 0, 47, 65
1, 193200, Note_on_c, 0, 47, 0
1, 193200, Note_on_c, 0, 50, 66
1, 193320, Note_on_c, 0, 50, 0
1, 193320, Note_on_c, 0, 53, 66
1, 193440, Tempo, 397351
1, 193440, Note_on_c, 0, 53, 0
1, 193440, Note_on_c, 0, 92, 0
1, 193440, Note_on_c, 0, 86, 0
1, 193440, Note_on_c, 0, 83, 0
1, 193440, Note_on_c, 0, 80, 0
1, 193440, Note_on_c, 0, 74, 62
1, 193440, Note_on_c, 0, 71, 62
1, 193440, Note_on_c, 0, 68, 62
1, 193440, Note_on_c, 0, 80, 73
1, 193440, Note_on_c, 0, 53, 71
1, 193560, Note_on_c, 0, 53, 0
1, 193560, Note_on_c, 0, 59, 65
1, 193680, Note_on_c, 0, 59, 0
1, 193680, Note_on_c, 0, 80, 0
1, 193680, Note_on_c, 0, 74, 0
1, 193680, Note_on_c, 0, 71, 0
1, 193680, Note_on_c, 0, 68, 0
1, 193680, Note_on_c, 0, 74, 63
1, 193680, Note_on_c, 0, 71, 63
1, 193680, Note_on_c, 0, 68, 63
1, 193680, Note_on_c, 0, 80, 74
1, 193680, Note_on_c, 0, 62, 65
1, 193800, Tempo, 474308
1, 193800, Note_on_c, 0, 62, 0
1, 193800, Note_on_c, 0, 65, 65
1, 193891, Control_c, 0, 64, 0
1, 193920, Tempo, 404040
1, 193920, Note_on_c, 0, 65, 0
1, 193920, Note_on_c, 0, 80, 0
1, 193920, Note_on_c, 0, 74, 0
1, 193920, Note_on_c, 0, 71, 0
1, 193920, Note_on_c, 0, 68, 0
1, 193920, Note_on_c, 0, 87, 73
1, 193920, Note_on_c, 0, 84, 73
1, 193920, Note_on_c, 0, 81, 73
1, 193920, Note_on_c, 0, 93, 87
1, 193920, Note_on_c, 0, 42, 71
1, 193977, Control_c, 0, 64, 127
1, 194040, Note_on_c, 0, 42, 0
1, 194040, Note_on_c, 0, 48, 64
1, 194160, Note_on_c, 0, 48, 0
1, 194160, Note_on_c, 0, 51, 64
1, 194280, Note_on_c, 0, 51, 0
1, 194280, Note_on_c, 0, 54, 64
1, 194400, Tempo, 396040
1, 194400, Note_on_c, 0, 54, 0
1, 194400, Note_on_c, 0, 93, 0
1, 194400, Note_on_c, 0, 87, 0
1, 194400, Note_on_c, 0, 84, 0
1, 194400, Note_on_c, 0, 81, 0
1, 194400, Note_on_c, 0, 75, 60
1, 194400, Note_on_c, 0, 72, 60
1, 194400, Note_on_c, 0, 69, 60
1, 194400, Note_on_c, 0, 81, 72
1, 194400, Note_on_c, 0, 54, 71
1, 194520, Note_on_c, 0, 54, 0
1, 194520, Note_on_c, 0, 60, 66
1, 194640, Note_on_c, 0, 60, 0
1, 194640, Note_on_c, 0, 81, 0
1, 194640, Note_on_c, 0, 75, 0
1, 194640, Note_on_c, 0, 72, 0
1, 194640, Note_on_c, 0, 69, 0
1, 194640, Note_on_c, 0, 75, 60
1, 194640, Note_on_c, 0, 72, 60
1, 194640, Note_on_c, 0, 69, 60
1, 194640, Note_on_c, 0, 81, 72
1, 194640, Note_on_c, 0, 63, 66
1, 194760, Tempo, 474308
1, 194760, Note_on_c, 0, 63, 0
1, 194760, Note_on_c, 0, 66, 66
1, 194880, Tempo, 402685
1, 194880, Note_on_c, 0, 66, 0
1, 194880, Note_on_c, 0, 81, 0
1, 194880, Note_on_c, 0, 75, 0
1, 194880, Note_on_c, 0, 72, 0
1, 194880, Note_on_c, 0, 69, 0
1, 194880, Note_on_c, 0, 88, 74
1, 194880, Note_on_c, 0, 85, 74
1, 194880, Note_on_c, 0, 82, 74
1, 194880, Note_on_c, 0, 94, 88
1, 194880, Note_on_c, 0, 43, 71
1, 194891, Control_c, 0, 64, 0
1, 194960, Control_c, 0, 64, 127
1, 195000, Note_on_c, 0, 43, 0
1, 195000, Note_on_c, 0, 49, 65
1, 195120, Note_on_c, 0, 49, 0
1, 195120, Note_on_c, 0, 52, 66
1, 195240, Note_on_c, 0, 52, 0
1, 195240, Note_on_c, 0, 55, 66
1, 195360, Tempo, 398671
1, 195360, Note_on_c, 0, 55, 0
1, 195360, Note_on_c, 0, 94, 0
1, 195360, Note_on_c, 0, 88, 0
1, 195360, Note_on_c, 0, 85, 0
1, 195360, Note_on_c, 0, 82, 0
1, 195360, Note_on_c, 0, 76, 63
1, 195360, Note_on_c, 0, 73, 63
1, 195360, Note_on_c, 0, 70, 63
1, 195360, Note_on_c, 0, 82, 74
1, 195360, Note_on_c, 0, 55, 71
1, 195480, Note_on_c, 0, 55, 0
1, 195480, Note_on_c, 0, 61, 65
1, 195600, Note_on_c, 0, 61, 0
1, 195600, Note_on_c, 0, 82, 0
1, 195600, Note_on_c, 0, 76, 0
1, 195600, Note_on_c, 0, 73, 0
1, 195600, Note_on_c, 0, 70, 0
1, 195600, Note_on_c, 0, 76, 64
1, 195600, Note_on_c, 0, 73, 64
1, 195600, Note_on_c, 0, 70, 64
1, 195600, Note_on_c, 0, 82, 75
1, 195600, Note_on_c, 0, 64, 65
1, 195720, Tempo, 474308
1, 195720, Note_on_c, 0, 64, 0
1, 195720, Note_on_c, 0, 67, 65
1, 195811, Control_c, 0, 64, 0
1, 195840, Tempo, 402685
1, 195840, Note_on_c, 0, 67, 0
1, 195840, Note_on_c, 0, 82, 0
1, 195840, Note_on_c, 0, 76, 0
1, 195840, Note_on_c, 0, 73, 0
1, 195840, Note_on_c, 0, 70, 0
1, 195840, Note_on_c, 0, 77, 71
1, 195840, Note_on_c, 0, 74, 71
1, 195840, Note_on_c, 0, 71, 71
1, 195840, Note_on_c, 0, 83, 85
1, 195840, Note_on_c, 0, 44, 63
1, 195897, Control_c, 0, 64, 127
1, 195960, Note_on_c, 0, 44, 0
1, 195960, Note_on_c, 0, 50, 57
1, 196080, Note_on_c, 0, 50, 0
1, 196080, Note_on_c, 0, 53, 58
1, 196200, Note_on_c, 0, 53, 0
1, 196200, Note_on_c, 0, 56, 58
1, 196320, Tempo, 396040
1, 196320, Note_on_c, 0, 56, 0
1, 196320, Note_on_c, 0, 83, 0
1, 196320, Note_on_c, 0, 77, 0
1, 196320, Note_on_c, 0, 74, 0
1, 196320, Note_on_c, 0, 71, 0
1, 196320, Note_on_c, 0, 78, 61
1, 196320, Note_on_c, 0, 75, 61
1, 196320, Note_on_c, 0, 72, 61
1, 196320, Note_on_c, 0, 84, 73
1, 196320, Note_on_c, 0, 57, 66
1, 196440, Note_on_c, 0, 57, 0
1, 196440, Note_on_c, 0, 63, 62
1, 196560, Note_on_c, 0, 63, 0
1, 196560, Note_on_c, 0, 84, 0
1, 196560, Note_on_c, 0, 78, 0
1, 196560, Note_on_c, 0, 75, 0
1, 196560, Note_on_c, 0, 72, 0
1, 196560, Note_on_c, 0, 75, 63
1, 196560, Note_on_c, 0, 78, 63
1, 196560, Note_on_c, 0, 72, 63
1, 196560, Note_on_c, 0, 84, 75
1, 196560, Note_on_c, 0, 66, 62
1, 196680, Tempo, 474308
1, 196680, Note_on_c, 0, 66, 0
1, 196680, Note_on_c, 0, 69, 63
1, 196800, Tempo, 402685
1, 196800, Note_on_c, 0, 69, 0
1, 196800, Note_on_c, 0, 84, 0
1, 196800, Note_on_c, 0, 75, 0
1, 196800, Note_on_c, 0, 78, 0
1, 196800, Note_on_c, 0, 72, 0
1, 196800, Note_on_c, 0, 79, 72
1, 196800, Note_on_c, 0, 76, 72
1, 196800, Note_on_c, 0, 73, 72
1, 196800, Note_on_c, 0, 85, 86
1, 196800, Note_on_c, 0, 46, 68
1, 196811, Control_c, 0, 64, 0
1, 196880, Control_c, 0, 64, 127
1, 196920, Note_on_c, 0, 46, 0
1, 196920, Note_on_c, 0, 52, 63
1, 197040, Note_on_c, 0, 52, 0
1, 197040, Note_on_c, 0, 55, 65
1, 197160, Note_on_c, 0, 55, 0
1, 197160, Note_on_c, 0, 58, 66
1, 197280, Tempo, 397351
1, 197280, Note_on_c, 0, 58, 0
1, 197280, Note_on_c, 0, 85, 0
1, 197280, Note_on_c, 0, 79, 0
1, 197280, Note_on_c, 0, 76, 0
1, 197280, Note_on_c, 0, 73, 0
1, 197280, Note_on_c, 0, 80, 62
1, 197280, Note_on_c, 0, 77, 62
1, 197280, Note_on_c, 0, 74, 62
1, 197280, Note_on_c, 0, 86, 73
1, 197280, Note_on_c, 0, 59, 71
1, 197400, Note_on_c, 0, 59, 0
1, 197400, Note_on_c, 0, 65, 66
1, 197520, Note_on_c, 0, 65, 0
1, 197520, Note_on_c, 0, 86, 0
1, 197520, Note_on_c, 0, 80, 0
1, 197520, Note_on_c, 0, 77, 0
1, 197520, Note_on_c, 0, 74, 0
1, 197520, Note_on_c, 0, 80, 64
1, 197520, Note_on_c, 0, 77, 64
1, 197520, Note_on_c, 0, 74, 64
1, 197520, Note_on_c, 0, 86, 76
1, 197520, Note_on_c, 0, 68, 66
1, 197640, Tempo, 425532
1, 197640, Note_on_c, 0, 68, 0
1, 197640, Note_on_c, 0, 71, 67
1, 197760, Tempo, 401338
1, 197760, Note_on_c, 0, 71, 0
1, 197760, Note_on_c, 0, 86, 0
1, 197760, Note_on_c, 0, 80, 0
1, 197760, Note_on_c, 0, 77, 0
1, 197760, Note_on_c, 0, 74, 0
1, 197760, Note_on_c, 0, 75, 71
1, 197760, Note_on_c, 0, 78, 71
1, 197760, Note_on_c, 0, 81, 71
1, 197760, Note_on_c, 0, 87, 82
1, 197760, Note_on_c, 0, 48, 74
1, 197770, Control_c, 0, 64, 0
1, 197817, Control_c, 0, 64, 127
1, 197880, Note_on_c, 0, 48, 0
1, 197880, Note_on_c, 0, 54, 67
1, 198000, Note_on_c, 0, 54, 0
1, 198000, Note_on_c, 0, 87, 0
1, 198000, Note_on_c, 0, 75, 0
1, 198000, Note_on_c, 0, 78, 0
1, 198000, Note_on_c, 0, 81, 0
1, 198000, Note_on_c, 0, 75, 71
1, 198000, Note_on_c, 0, 78, 71
1, 198000, Note_on_c, 0, 81, 71
1, 198000, Note_on_c, 0, 87, 83
1, 198000, Note_on_c, 0, 57, 67
1, 198120, Note_on_c, 0, 57, 0
1, 198120, Note_on_c, 0, 60, 68
1, 198240, Tempo, 408163
1, 198240, Note_on_c, 0, 60, 0
1, 198240, Note_on_c, 0, 87, 0
1, 198240, Note_on_c, 0, 75, 0
1, 198240, Note_on_c, 0, 78, 0
1, 198240, Note_on_c, 0, 81, 0
1, 198240, Note_on_c, 0, 76, 73
1, 198240, Note_on_c, 0, 79, 73
1, 198240, Note_on_c, 0, 82, 73
1, 198240, Note_on_c, 0, 88, 84
1, 198240, Note_on_c, 0, 49, 76
1, 198251, Control_c, 0, 64, 0
1, 198297, Control_c, 0, 64, 127
1, 198360, Note_on_c, 0, 49, 0
1, 198360, Note_on_c, 0, 55, 71
1, 198480, Note_on_c, 0, 55, 0
1, 198480, Note_on_c, 0, 88, 0
1, 198480, Note_on_c, 0, 76, 0
1, 198480, Note_on_c, 0, 79, 0
1, 198480, Note_on_c, 0, 82, 0
1, 198480, Note_on_c, 0, 76, 74
1, 198480, Note_on_c, 0, 79, 74
1, 198480, Note_on_c, 0, 82, 74
1, 198480, Note_on_c, 0, 88, 86
1, 198480, Note_on_c, 0, 58, 72
1, 198600, Note_on_c, 0, 58, 0
1, 198600, Note_on_c, 0, 61, 73
1, 198720, Tempo, 405405
1, 198720, Note_on_c, 0, 61, 0
1, 198720, Note_on_c, 0, 88, 0
1, 198720, Note_on_c, 0, 76, 0
1, 198720, Note_on_c, 0, 79, 0
1, 198720, Note_on_c, 0, 82, 0
1, 198720, Note_on_c, 0, 77, 75
1, 198720, Note_on_c, 0, 80, 75
1, 198720, Note_on_c, 0, 83, 75
1, 198720, Note_on_c, 0, 89, 87
1, 198720, Note_on_c, 0, 50, 79
1, 198729, Control_c, 0, 64, 0
1, 198796, Control_c, 0, 64, 127
1, 198840, Note_on_c, 0, 50, 0
1, 198840, Note_on_c, 0, 56, 73
1, 198960, Note_on_c, 0, 56, 0
1, 198960, Note_on_c, 0, 89, 0
1, 198960, Note_on_c, 0, 77, 0
1, 198960, Note_on_c, 0, 80, 0
1, 198960, Note_on_c, 0, 83, 0
1, 198960, Note_on_c, 0, 77, 76
1, 198960, Note_on_c, 0, 80, 76
1, 198960, Note_on_c, 0, 83, 76
1, 198960, Note_on_c, 0, 89, 89
1, 198960, Note_on_c, 0, 59, 75
1, 199080, Note_on_c, 0, 59, 0
1, 199080, Note_on_c, 0, 62, 75
1, 199200, Tempo, 406780
1, 199200, Note_on_c, 0, 62, 0
1, 199200, Note_on_c, 0, 89, 0
1, 199200, Note_on_c, 0, 77, 0
1, 199200, Note_on_c, 0, 80, 0
1, 199200, Note_on_c, 0, 83, 0
1, 199200, Note_on_c, 0, 77, 78
1, 199200, Note_on_c, 0, 80, 78
1, 199200, Note_on_c, 0, 83, 78
1, 199200, Note_on_c, 0, 89, 90
1, 199200, Note_on_c, 0, 65, 82
1, 199320, Note_on_c, 0, 65, 0
1, 199320, Note_on_c, 0, 59, 76
1, 199440, Note_on_c, 0, 59, 0
1, 199440, Note_on_c, 0, 89, 0
1, 199440, Note_on_c, 0, 77, 0
1, 199440, Note_on_c, 0, 80, 0
1, 199440, Note_on_c, 0, 83, 0
1, 199440, Note_on_c, 0, 77, 79
1, 199440, Note_on_c, 0, 80, 79
1, 199440, Note_on_c, 0, 83, 79
1, 199440, Note_on_c, 0, 89, 92
1, 199440, Note_on_c, 0, 62, 76
1, 199560, Tempo, 474308
1, 199560, Note_on_c, 0, 62, 0
1, 199560, Note_on_c, 0, 65, 77
1, 199680, Tempo, 444444
1, 199680, Note_on_c, 0, 65, 0
1, 199680, Note_on_c, 0, 89, 0
1, 199680, Note_on_c, 0, 77, 0
1, 199680, Note_on_c, 0, 80, 0
1, 199680, Note_on_c, 0, 83, 0
1, 199680, Note_on_c, 0, 77, 85
1, 199680, Note_on_c, 0, 83, 85
1, 199680, Note_on_c, 0, 86, 85
1, 199680, Note_on_c, 0, 89, 98
1, 199680, Note_on_c, 0, 56, 65
1, 199680, Note_on_c, 0, 68, 78
1, 199680, Control_c, 0, 64, 0
1, 200160, Note_on_c, 0, 68, 0
1, 200160, Note_on_c, 0, 83, 0
1, 200160, Note_on_c, 0, 86, 0
1, 200160, Note_on_c, 0, 77, 0
1, 200160, Note_on_c, 0, 56, 0
1, 200160, Note_on_c, 0, 89, 0
1, 200640, Note_on_c, 0, 76, 85
1, 200640, Note_on_c, 0, 81, 85
1, 200640, Note_on_c, 0, 84, 85
1, 200640, Note_on_c, 0, 88, 98
1, 200640, Note_on_c, 0, 57, 65
1, 200640, Note_on_c, 0, 69, 78
1, 201120, Note_on_c, 0, 69, 0
1, 201120, Note_on_c, 0, 81, 0
1, 201120, Note_on_c, 0, 84, 0
1, 201120, Note_on_c, 0, 76, 0
1, 201120, Note_on_c, 0, 57, 0
1, 201120, Note_on_c, 0, 88, 0
1, 201600, Note_on_c, 0, 74, 85
1, 201600, Note_on_c, 0, 81, 85
1, 201600, Note_on_c, 0, 84, 85
1, 201600, Note_on_c, 0, 86, 98
1, 201600, Note_on_c, 0, 41, 65
1, 201600, Note_on_c, 0, 45, 65
1, 201600, Note_on_c, 0, 50, 65
1, 201600, Note_on_c, 0, 53, 78
1, 202080, Note_on_c, 0, 53, 0
1, 202080, Note_on_c, 0, 74, 0
1, 202080, Note_on_c, 0, 41, 0
1, 202080, Note_on_c, 0, 81, 0
1, 202080, Note_on_c, 0, 84, 0
1, 202080, Note_on_c, 0, 86, 0
1, 202080, Note_on_c, 0, 45, 0
1, 202080, Note_on_c, 0, 50, 0
1, 202560, Note_on_c, 0, 74, 85
1, 202560, Note_on_c, 0, 79, 85
1, 202560, Note_on_c, 0, 83, 85
1, 202560, Note_on_c, 0, 86, 98
1, 202560, Note_on_c, 0, 43, 65
1, 202560, Note_on_c, 0, 47, 65
1, 202560, Note_on_c, 0, 50, 65
1, 202560, Note_on_c, 0, 55, 78
1, 203040, Note_on_c, 0, 55, 0
1, 203040, Note_on_c, 0, 74, 0
1, 203040, Note_on_c, 0, 43, 0
1, 203040, Note_on_c, 0, 79, 0
1, 203040, Note_on_c, 0, 83, 0
1, 203040, Note_on_c, 0, 86, 0
1, 203040, Note_on_c, 0, 47, 0
1, 203040, Note_on_c, 0, 50, 0
1, 203520, Tempo, 427046
1, 203520, Note_on_c, 0, 52, 50
1, 203520, Note_on_c, 0, 36, 32
1, 203577, Control_c, 0, 64, 127
1, 203640, Note_on_c, 0, 36, 0
1, 203640, Note_on_c, 0, 52, 0
1, 203640, Note_on_c, 0, 64, 32
1, 203640, Note_on_c, 0, 48, 26
1, 203760, Note_on_c, 0, 48, 0
1, 203760, Note_on_c, 0, 64, 0
1, 203760, Note_on_c, 0, 60, 32
1, 203760, Note_on_c, 0, 55, 32
1, 203760, Note_on_c, 0, 43, 26
1, 203880, Note_on_c, 0, 43, 0
1, 203880, Note_on_c, 0, 55, 0
1, 203880, Note_on_c, 0, 60, 0
1, 203880, Note_on_c, 0, 64, 32
1, 203880, Note_on_c, 0, 48, 26
1, 204000, Tempo, 418118
1, 204000, Note_on_c, 0, 48, 0
1, 204000, Note_on_c, 0, 64, 0
1, 204000, Note_on_c, 0, 54, 50
1, 204000, Note_on_c, 0, 44, 32
1, 204011, Control_c, 0, 64, 0
1, 204051, Control_c, 0, 64, 127
1, 204120, Note_on_c, 0, 44, 0
1, 204120, Note_on_c, 0, 54, 0
1, 204120, Note_on_c, 0, 66, 32
1, 204120, Note_on_c, 0, 51, 26
1, 204240, Note_on_c, 0, 51, 0
1, 204240, Note_on_c, 0, 66, 0
1, 204240, Note_on_c, 0, 60, 32
1, 204240, Note_on_c, 0, 63, 32
1, 204240, Note_on_c, 0, 48, 25
1, 204360, Note_on_c, 0, 48, 0
1, 204360, Note_on_c, 0, 63, 0
1, 204360, Note_on_c, 0, 60, 0
1, 204360, Note_on_c, 0, 66, 32
1, 204360, Note_on_c, 0, 51, 25
1, 204480, Note_on_c, 0, 51, 0
1, 204480, Note_on_c, 0, 66, 0
1, 204480, Note_on_c, 0, 55, 51
1, 204480, Note_on_c, 0, 43, 32
1, 204490, Control_c, 0, 64, 0
1, 204543, Control_c, 0, 64, 127
1, 204600, Note_on_c, 0, 43, 0
1, 204600, Note_on_c, 0, 55, 0
1, 204600, Note_on_c, 0, 67, 32
1, 204600, Note_on_c, 0, 52, 26
1, 204720, Note_on_c, 0, 52, 0
1, 204720, Note_on_c, 0, 67, 0
1, 204720, Note_on_c, 0, 60, 32
1, 204720, Note_on_c, 0, 64, 32
1, 204720, Note_on_c, 0, 48, 26
1, 204840, Note_on_c, 0, 48, 0
1, 204840, Note_on_c, 0, 64, 0
1, 204840, Note_on_c, 0, 60, 0
1, 204840, Note_on_c, 0, 67, 32
1, 204840, Note_on_c, 0, 52, 27
1, 204960, Tempo, 421053
1, 204960, Note_on_c, 0, 52, 0
1, 204960, Note_on_c, 0, 67, 0
1, 204960, Note_on_c, 0, 55, 50
1, 204960, Note_on_c, 0, 43, 33
1, 204970, Control_c, 0, 64, 0
1, 205029, Control_c, 0, 64, 127
1, 205080, Note_on_c, 0, 43, 0
1, 205080, Note_on_c, 0, 55, 0
1, 205080, Note_on_c, 0, 67, 33
1, 205080, Note_on_c, 0, 53, 27
1, 205200, Note_on_c, 0, 53, 0
1, 205200, Note_on_c, 0, 67, 0
1, 205200, Note_on_c, 0, 59, 33
1, 205200, Note_on_c, 0, 62, 33
1, 205200, Note_on_c, 0, 50, 27
1, 205320, Note_on_c, 0, 50, 0
1, 205320, Note_on_c, 0, 62, 0
1, 205320, Note_on_c, 0, 59, 0
1, 205320, Note_on_c, 0, 67, 33
1, 205320, Note_on_c, 0, 53, 27
1, 205440, Tempo, 409556
1, 205440, Note_on_c, 0, 53, 0
1, 205440, Note_on_c, 0, 67, 0
1, 205440, Note_on_c, 0, 60, 59
1, 205440, Control_c, 0, 64, 0
1, 205440, Note_on_c, 0, 48, 33
1, 205497, Control_c, 0, 64, 127
1, 205560, Note_on_c, 0, 48, 0
1, 205560, Note_on_c, 0, 60, 0
1, 205560, Note_on_c, 0, 72, 33
1, 205560, Note_on_c, 0, 55, 27
1, 205680, Note_on_c, 0, 55, 0
1, 205680, Note_on_c, 0, 72, 0
1, 205680, Note_on_c, 0, 67, 33
1, 205680, Note_on_c, 0, 64, 33
1, 205680, Note_on_c, 0, 52, 27
1, 205800, Note_on_c, 0, 52, 0
1, 205800, Note_on_c, 0, 64, 0
1, 205800, Note_on_c, 0, 67, 0
1, 205800, Note_on_c, 0, 72, 33
1, 205800, Note_on_c, 0, 55, 27
1, 205920, Note_on_c, 0, 55, 0
1, 205920, Note_on_c, 0, 72, 0
1, 205920, Note_on_c, 0, 60, 55
1, 205920, Note_on_c, 0, 44, 33
1, 205931, Control_c, 0, 64, 0
1, 205971, Control_c, 0, 64, 127
1, 206040, Note_on_c, 0, 44, 0
1, 206040, Note_on_c, 0, 60, 0
1, 206040, Note_on_c, 0, 72, 33
1, 206040, Note_on_c, 0, 54, 27
1, 206160, Note_on_c, 0, 54, 0
1, 206160, Note_on_c, 0, 72, 0
1, 206160, Note_on_c, 0, 63, 33
1, 206160, Note_on_c, 0, 66, 33
1, 206160, Note_on_c, 0, 51, 26
1, 206280, Note_on_c, 0, 51, 0
1, 206280, Note_on_c, 0, 66, 0
1, 206280, Note_on_c, 0, 63, 0
1, 206280, Note_on_c, 0, 72, 34
1, 206280, Note_on_c, 0, 54, 26
1, 206400, Note_on_c, 0, 54, 0
1, 206400, Note_on_c, 0, 72, 0
1, 206400, Note_on_c, 0, 60, 55
1, 206400, Note_on_c, 0, 43, 34
1, 206410, Control_c, 0, 64, 0
1, 206455, Control_c, 0, 64, 127
1, 206520, Note_on_c, 0, 43, 0
1, 206520, Note_on_c, 0, 60, 0
1, 206520, Note_on_c, 0, 72, 34
1, 206520, Note_on_c, 0, 55, 27
1, 206640, Note_on_c, 0, 55, 0
1, 206640, Note_on_c, 0, 72, 0
1, 206640, Note_on_c, 0, 64, 34
1, 206640, Note_on_c, 0, 67, 34
1, 206640, Note_on_c, 0, 48, 28
1, 206640, Note_on_c, 0, 52, 28
1, 206760, Note_on_c, 0, 52, 0
1, 206760, Note_on_c, 0, 64, 0
1, 206760, Note_on_c, 0, 67, 0
1, 206760, Note_on_c, 0, 48, 0
1, 206760, Note_on_c, 0, 72, 34
1, 206760, Note_on_c, 0, 55, 29
1, 206880, Tempo, 416667
1, 206880, Note_on_c, 0, 55, 0
1, 206880, Note_on_c, 0, 72, 0
1, 206880, Note_on_c, 0, 59, 53
1, 206880, Note_on_c, 0, 43, 35
1, 206890, Control_c, 0, 64, 0
1, 206949, Control_c, 0, 64, 127
1, 207000, Note_on_c, 0, 43, 0
1, 207000, Note_on_c, 0, 59, 0
1, 207000, Note_on_c, 0, 71, 34
1, 207000, Note_on_c, 0, 55, 28
1, 207120, Note_on_c, 0, 55, 0
1, 207120, Note_on_c, 0, 71, 0
1, 207120, Note_on_c, 0, 62, 34
1, 207120, Note_on_c, 0, 67, 34
1, 207120, Note_on_c, 0, 47, 28
1, 207120, Note_on_c, 0, 50, 28
1, 207240, Note_on_c, 0, 50, 0
1, 207240, Note_on_c, 0, 62, 0
1, 207240, Note_on_c, 0, 67, 0
1, 207240, Note_on_c, 0, 47, 0
1, 207240, Note_on_c, 0, 71, 34
1, 207240, Note_on_c, 0, 55, 28
1, 207360, Tempo, 421053
1, 207360, Note_on_c, 0, 55, 0
1, 207360, Note_on_c, 0, 71, 0
1, 207360, Note_on_c, 0, 64, 61
1, 207360, Control_c, 0, 64, 0
1, 207360, Note_on_c, 0, 48, 41
1, 207417, Control_c, 0, 64, 127
1, 207480, Note_on_c, 0, 48, 0
1, 207480, Note_on_c, 0, 64, 0
1, 207480, Note_on_c, 0, 76, 41
1, 207480, Note_on_c, 0, 60, 33
1, 207600, Note_on_c, 0, 60, 0
1, 207600, Note_on_c, 0, 76, 0
1, 207600, Note_on_c, 0, 72, 41
1, 207600, Note_on_c, 0, 67, 41
1, 207600, Note_on_c, 0, 55, 33
1, 207720, Note_on_c, 0, 55, 0
1, 207720, Note_on_c, 0, 67, 0
1, 207720, Note_on_c, 0, 72, 0
1, 207720, Note_on_c, 0, 76, 41
1, 207720, Note_on_c, 0, 60, 33
1, 207840, Tempo, 410959
1, 207840, Note_on_c, 0, 60, 0
1, 207840, Note_on_c, 0, 76, 0
1, 207840, Note_on_c, 0, 66, 63
1, 207840, Note_on_c, 0, 56, 42
1, 207851, Control_c, 0, 64, 0
1, 207891, Control_c, 0, 64, 127
1, 207960, Note_on_c, 0, 56, 0
1, 207960, Note_on_c, 0, 66, 0
1, 207960, Note_on_c, 0, 78, 42
1, 207960, Note_on_c, 0, 63, 34
1, 208080, Note_on_c, 0, 63, 0
1, 208080, Note_on_c, 0, 78, 0
1, 208080, Note_on_c, 0, 72, 42
1, 208080, Note_on_c, 0, 75, 42
1, 208080, Note_on_c, 0, 60, 33
1, 208200, Note_on_c, 0, 60, 0
1, 208200, Note_on_c, 0, 75, 0
1, 208200, Note_on_c, 0, 72, 0
1, 208200, Note_on_c, 0, 78, 42
1, 208200, Note_on_c, 0, 63, 33
1, 208320, Note_on_c, 0, 63, 0
1, 208320, Note_on_c, 0, 78, 0
1, 208320, Note_on_c, 0, 67, 66
1, 208320, Note_on_c, 0, 55, 43
1, 208330, Control_c, 0, 64, 0
1, 208383, Control_c, 0, 64, 127
1, 208440, Note_on_c, 0, 55, 0
1, 208440, Note_on_c, 0, 67, 0
1, 208440, Note_on_c, 0, 79, 43
1, 208440, Note_on_c, 0, 64, 35
1, 208560, Note_on_c, 0, 64, 0
1, 208560, Note_on_c, 0, 79, 0
1, 208560, Note_on_c, 0, 72, 43
1, 208560, Note_on_c, 0, 76, 43
1, 208560, Note_on_c, 0, 60, 35
1, 208680, Note_on_c, 0, 60, 0
1, 208680, Note_on_c, 0, 76, 0
1, 208680, Note_on_c, 0, 72, 0
1, 208680, Note_on_c, 0, 79, 44
1, 208680, Note_on_c, 0, 64, 37
1, 208800, Tempo, 419580
1, 208800, Note_on_c, 0, 64, 0
1, 208800, Note_on_c, 0, 79, 0
1, 208800, Note_on_c, 0, 67, 67
1, 208800, Note_on_c, 0, 55, 46
1, 208810, Control_c, 0, 64, 0
1, 208869, Control_c, 0, 64, 127
1, 208920, Note_on_c, 0, 55, 0
1, 208920, Note_on_c, 0, 67, 0
1, 208920, Note_on_c, 0, 79, 44
1, 208920, Note_on_c, 0, 65, 36
1, 209040, Note_on_c, 0, 65, 0
1, 209040, Note_on_c, 0, 79, 0
1, 209040, Note_on_c, 0, 71, 45
1, 209040, Note_on_c, 0, 74, 45
1, 209040, Note_on_c, 0, 62, 37
1, 209160, Note_on_c, 0, 62, 0
1, 209160, Note_on_c, 0, 74, 0
1, 209160, Note_on_c, 0, 71, 0
1, 209160, Note_on_c, 0, 79, 46
1, 209160, Note_on_c, 0, 65, 37
1, 209280, Tempo, 410959
1, 209280, Note_on_c, 0, 65, 0
1, 209280, Note_on_c, 0, 79, 0
1, 209280, Note_on_c, 0, 72, 73
1, 209280, Control_c, 0, 64, 0
1, 209280, Note_on_c, 0, 60, 47
1, 209337, Control_c, 0, 64, 127
1, 209400, Note_on_c, 0, 60, 0
1, 209400, Note_on_c, 0, 72, 0
1, 209400, Note_on_c, 0, 84, 47
1, 209400, Note_on_c, 0, 67, 37
1, 209520, Note_on_c, 0, 67, 0
1, 209520, Note_on_c, 0, 84, 0
1, 209520, Note_on_c, 0, 79, 47
1, 209520, Note_on_c, 0, 76, 47
1, 209520, Note_on_c, 0, 64, 38
1, 209640, Note_on_c, 0, 64, 0
1, 209640, Note_on_c, 0, 76, 0
1, 209640, Note_on_c, 0, 79, 0
1, 209640, Note_on_c, 0, 84, 47
1, 209640, Note_on_c, 0, 67, 38
1, 209760, Note_on_c, 0, 67, 0
1, 209760, Note_on_c, 0, 84, 0
1, 209760, Note_on_c, 0, 72, 72
1, 209760, Note_on_c, 0, 56, 48
1, 209771, Control_c, 0, 64, 0
1, 209811, Control_c, 0, 64, 127
1, 209880, Note_on_c, 0, 56, 0
1, 209880, Note_on_c, 0, 72, 0
1, 209880, Note_on_c, 0, 84, 48
1, 209880, Note_on_c, 0, 66, 39
1, 210000, Note_on_c, 0, 66, 0
1, 210000, Note_on_c, 0, 84, 0
1, 210000, Note_on_c, 0, 75, 48
1, 210000, Note_on_c, 0, 78, 48
1, 210000, Note_on_c, 0, 63, 38
1, 210120, Note_on_c, 0, 63, 0
1, 210120, Note_on_c, 0, 78, 0
1, 210120, Note_on_c, 0, 75, 0
1, 210120, Note_on_c, 0, 84, 48
1, 210120, Note_on_c, 0, 66, 38
1, 210240, Note_on_c, 0, 66, 0
1, 210240, Note_on_c, 0, 84, 0
1, 210240, Note_on_c, 0, 72, 74
1, 210240, Note_on_c, 0, 55, 50
1, 210250, Control_c, 0, 64, 0
1, 210295, Control_c, 0, 64, 127
1, 210360, Note_on_c, 0, 55, 0
1, 210360, Note_on_c, 0, 72, 0
1, 210360, Note_on_c, 0, 84, 49
1, 210360, Note_on_c, 0, 67, 40
1, 210480, Note_on_c, 0, 67, 0
1, 210480, Note_on_c, 0, 84, 0
1, 210480, Note_on_c, 0, 76, 49
1, 210480, Note_on_c, 0, 79, 49
1, 210480, Note_on_c, 0, 60, 40
1, 210480, Note_on_c, 0, 64, 40
1, 210600, Note_on_c, 0, 64, 0
1, 210600, Note_on_c, 0, 76, 0
1, 210600, Note_on_c, 0, 79, 0
1, 210600, Note_on_c, 0, 60, 0
1, 210600, Note_on_c, 0, 84, 50
1, 210600, Note_on_c, 0, 67, 42
1, 210720, Tempo, 418118
1, 210720, Note_on_c, 0, 67, 0
1, 210720, Note_on_c, 0, 84, 0
1, 210720, Note_on_c, 0, 71, 69
1, 210720, Note_on_c, 0, 55, 52
1, 210730, Control_c, 0, 64, 0
1, 210789, Control_c, 0, 64, 127
1, 210840, Note_on_c, 0, 55, 0
1, 210840, Note_on_c, 0, 71, 0
1, 210840, Note_on_c, 0, 83, 50
1, 210840, Note_on_c, 0, 67, 41
1, 210960, Note_on_c, 0, 67, 0
1, 210960, Note_on_c, 0, 83, 0
1, 210960, Note_on_c, 0, 74, 51
1, 210960, Note_on_c, 0, 79, 51
1, 210960, Note_on_c, 0, 59, 42
1, 210960, Note_on_c, 0, 62, 42
1, 211080, Note_on_c, 0, 62, 0
1, 211080, Note_on_c, 0, 74, 0
1, 211080, Note_on_c, 0, 79, 0
1, 211080, Note_on_c, 0, 59, 0
1, 211080, Note_on_c, 0, 83, 52
1, 211080, Note_on_c, 0, 67, 42
1, 211200, Tempo, 412371
1, 211200, Note_on_c, 0, 67, 0
1, 211200, Note_on_c, 0, 83, 0
1, 211200, Note_on_c, 0, 76, 71
1, 211200, Control_c, 0, 64, 0
1, 211200, Note_on_c, 0, 60, 49
1, 211257, Control_c, 0, 64, 127
1, 211320, Note_on_c, 0, 60, 0
1, 211320, Note_on_c, 0, 76, 0
1, 211320, Note_on_c, 0, 88, 49
1, 211320, Note_on_c, 0, 72, 39
1, 211440, Note_on_c, 0, 72, 0
1, 211440, Note_on_c, 0, 88, 0
1, 211440, Note_on_c, 0, 84, 49
1, 211440, Note_on_c, 0, 79, 49
1, 211440, Note_on_c, 0, 67, 39
1, 211560, Note_on_c, 0, 67, 0
1, 211560, Note_on_c, 0, 79, 0
1, 211560, Note_on_c, 0, 84, 0
1, 211560, Note_on_c, 0, 88, 50
1, 211560, Note_on_c, 0, 72, 40
1, 211680, Tempo, 405405
1, 211680, Note_on_c, 0, 72, 0
1, 211680, Note_on_c, 0, 88, 0
1, 211680, Note_on_c, 0, 78, 72
1, 211680, Note_on_c, 0, 68, 50
1, 211691, Control_c, 0, 64, 0
1, 211731, Control_c, 0, 64, 127
1, 211800, Note_on_c, 0, 68, 0
1, 211800, Note_on_c, 0, 78, 0
1, 211800, Note_on_c, 0, 90, 50
1, 211800, Note_on_c, 0, 75, 40
1, 211920, Note_on_c, 0, 75, 0
1, 211920, Note_on_c, 0, 90, 0
1, 211920, Note_on_c, 0, 84, 50
1, 211920, Note_on_c, 0, 87, 50
1, 211920, Note_on_c, 0, 72, 40
1, 212040, Note_on_c, 0, 72, 0
1, 212040, Note_on_c, 0, 87, 0
1, 212040, Note_on_c, 0, 84, 0
1, 212040, Note_on_c, 0, 90, 50
1, 212040, Note_on_c, 0, 75, 40
1, 212160, Note_on_c, 0, 75, 0
1, 212160, Note_on_c, 0, 90, 0
1, 212160, Note_on_c, 0, 79, 74
1, 212160, Note_on_c, 0, 67, 52
1, 212170, Control_c, 0, 64, 0
1, 212223, Control_c, 0, 64, 127
1, 212280, Note_on_c, 0, 67, 0
1, 212280, Note_on_c, 0, 79, 0
1, 212280, Note_on_c, 0, 91, 51
1, 212280, Note_on_c, 0, 76, 42
1, 212400, Note_on_c, 0, 76, 0
1, 212400, Note_on_c, 0, 91, 0
1, 212400, Note_on_c, 0, 84, 51
1, 212400, Note_on_c, 0, 88, 51
1, 212400, Note_on_c, 0, 72, 42
1, 212520, Note_on_c, 0, 72, 0
1, 212520, Note_on_c, 0, 88, 0
1, 212520, Note_on_c, 0, 84, 0
1, 212520, Note_on_c, 0, 91, 52
1, 212520, Note_on_c, 0, 76, 44
1, 212640, Tempo, 412371
1, 212640, Note_on_c, 0, 76, 0
1, 212640, Note_on_c, 0, 91, 0
1, 212640, Note_on_c, 0, 79, 75
1, 212640, Note_on_c, 0, 67, 55
1, 212650, Control_c, 0, 64, 0
1, 212709, Control_c, 0, 64, 127
1, 212760, Note_on_c, 0, 67, 0
1, 212760, Note_on_c, 0, 79, 0
1, 212760, Note_on_c, 0, 91, 52
1, 212760, Note_on_c, 0, 74, 43
1, 212880, Note_on_c, 0, 74, 0
1, 212880, Note_on_c, 0, 91, 0
1, 212880, Note_on_c, 0, 83, 53
1, 212880, Note_on_c, 0, 86, 53
1, 212880, Note_on_c, 0, 71, 43
1, 213000, Note_on_c, 0, 71, 0
1, 213000, Note_on_c, 0, 86, 0
1, 213000, Note_on_c, 0, 83, 0
1, 213000, Note_on_c, 0, 91, 54
1, 213000, Note_on_c, 0, 74, 44
1, 213120, Tempo, 402685
1, 213120, Note_on_c, 0, 74, 0
1, 213120, Note_on_c, 0, 91, 0
1, 213120, Note_on_c, 0, 79, 79
1, 213120, Control_c, 0, 64, 0
1, 213120, Note_on_c, 0, 55, 60
1, 213177, Control_c, 0, 64, 127
1, 213240, Note_on_c, 0, 55, 0
1, 213240, Note_on_c, 0, 79, 0
1, 213240, Note_on_c, 0, 91, 60
1, 213240, Note_on_c, 0, 67, 48
1, 213360, Note_on_c, 0, 67, 0
1, 213360, Note_on_c, 0, 91, 0
1, 213360, Note_on_c, 0, 88, 61
1, 213360, Note_on_c, 0, 84, 61
1, 213360, Note_on_c, 0, 60, 48
1, 213360, Note_on_c, 0, 64, 48
1, 213480, Note_on_c, 0, 64, 0
1, 213480, Note_on_c, 0, 88, 0
1, 213480, Note_on_c, 0, 84, 0
1, 213480, Note_on_c, 0, 60, 0
1, 213480, Note_on_c, 0, 91, 62
1, 213480, Note_on_c, 0, 67, 49
1, 213600, Tempo, 396040
1, 213600, Note_on_c, 0, 67, 0
1, 213600, Note_on_c, 0, 91, 0
1, 213600, Note_on_c, 0, 79, 84
1, 213600, Note_on_c, 0, 55, 62
1, 213611, Control_c, 0, 64, 0
1, 213651, Control_c, 0, 64, 127
1, 213720, Note_on_c, 0, 55, 0
1, 213720, Note_on_c, 0, 79, 0
1, 213720, Note_on_c, 0, 91, 63
1, 213720, Note_on_c, 0, 67, 50
1, 213840, Note_on_c, 0, 67, 0
1, 213840, Note_on_c, 0, 91, 0
1, 213840, Note_on_c, 0, 83, 63
1, 213840, Note_on_c, 0, 86, 63
1, 213840, Note_on_c, 0, 59, 49
1, 213840, Note_on_c, 0, 62, 49
1, 213960, Note_on_c, 0, 62, 0
1, 213960, Note_on_c, 0, 83, 0
1, 213960, Note_on_c, 0, 86, 0
1, 213960, Note_on_c, 0, 59, 0
1, 213960, Note_on_c, 0, 91, 64
1, 213960, Note_on_c, 0, 67, 52
1, 214080, Note_on_c, 0, 67, 0
1, 214080, Note_on_c, 0, 91, 0
1, 214080, Note_on_c, 0, 79, 90
1, 214080, Note_on_c, 0, 43, 67
1, 214090, Control_c, 0, 64, 0
1, 214135, Control_c, 0, 64, 127
1, 214200, Note_on_c, 0, 43, 0
1, 214200, Note_on_c, 0, 79, 0
1, 214200, Note_on_c, 0, 91, 66
1, 214200, Note_on_c, 0, 55, 55
1, 214320, Note_on_c, 0, 55, 0
1, 214320, Note_on_c, 0, 91, 0
1, 214320, Note_on_c, 0, 84, 67
1, 214320, Note_on_c, 0, 88, 67
1, 214320, Note_on_c, 0, 48, 55
1, 214320, Note_on_c, 0, 52, 55
1, 214440, Note_on_c, 0, 52, 0
1, 214440, Note_on_c, 0, 84, 0
1, 214440, Note_on_c, 0, 88, 0
1, 214440, Note_on_c, 0, 48, 0
1, 214440, Note_on_c, 0, 91, 69
1, 214440, Note_on_c, 0, 55, 57
1, 214560, Tempo, 402685
1, 214560, Note_on_c, 0, 55, 0
1, 214560, Note_on_c, 0, 91, 0
1, 214560, Note_on_c, 0, 79, 93
1, 214560, Note_on_c, 0, 43, 73
1, 214570, Control_c, 0, 64, 0
1, 214629, Control_c, 0, 64, 127
1, 214680, Note_on_c, 0, 43, 0
1, 214680, Note_on_c, 0, 79, 0
1, 214680, Note_on_c, 0, 91, 70
1, 214680, Note_on_c, 0, 55, 58
1, 214800, Note_on_c, 0, 55, 0
1, 214800, Note_on_c, 0, 91, 0
1, 214800, Note_on_c, 0, 83, 71
1, 214800, Note_on_c, 0, 86, 71
1, 214800, Note_on_c, 0, 47, 58
1, 214800, Note_on_c, 0, 50, 58
1, 214920, Note_on_c, 0, 50, 0
1, 214920, Note_on_c, 0, 83, 0
1, 214920, Note_on_c, 0, 86, 0
1, 214920, Note_on_c, 0, 47, 0
1, 214920, Note_on_c, 0, 91, 74
1, 214920, Note_on_c, 0, 55, 60
1, 215040, Tempo, 406780
1, 215040, Note_on_c, 0, 55, 0
1, 215040, Note_on_c, 0, 91, 0
1, 215040, Note_on_c, 0, 88, 97
1, 215040, Note_on_c, 0, 84, 82
1, 215040, Note_on_c, 0, 79, 82
1, 215040, Control_c, 0, 64, 0
1, 215040, Note_on_c, 0, 36, 64
1, 215040, Note_on_c, 0, 48, 76
1, 215111, Control_c, 0, 64, 127
1, 215160, Note_on_c, 0, 79, 0
1, 215160, Note_on_c, 0, 88, 0
1, 215160, Note_on_c, 0, 84, 0
1, 215160, Note_on_c, 0, 91, 89
1, 215240, Tempo, 405405
1, 215280, Note_on_c, 0, 91, 0
1, 215280, Note_on_c, 0, 36, 0
1, 215280, Note_on_c, 0, 48, 0
1, 215280, Note_on_c, 0, 86, 98
1, 215280, Note_on_c, 0, 83, 82
1, 215280, Note_on_c, 0, 79, 82
1, 215280, Note_on_c, 0, 31, 58
1, 215280, Note_on_c, 0, 43, 70
1, 215294, Control_c, 0, 64, 0
1, 215379, Control_c, 0, 64, 127
1, 215400, Note_on_c, 0, 79, 0
1, 215400, Note_on_c, 0, 86, 0
1, 215400, Note_on_c, 0, 83, 0
1, 215400, Note_on_c, 0, 91, 91
1, 215440, Tempo, 404040
1, 215520, Note_on_c, 0, 91, 0
1, 215520, Note_on_c, 0, 31, 0
1, 215520, Note_on_c, 0, 43, 0
1, 215520, Note_on_c, 0, 88, 99
1, 215520, Note_on_c, 0, 84, 85
1, 215520, Note_on_c, 0, 79, 85
1, 215520, Note_on_c, 0, 36, 66
1, 215520, Note_on_c, 0, 48, 79
1, 215540, Control_c, 0, 64, 0
1, 215620, Tempo, 402685
1, 215626, Control_c, 0, 64, 127
1, 215640, Note_on_c, 0, 79, 0
1, 215640, Note_on_c, 0, 88, 0
1, 215640, Note_on_c, 0, 84, 0
1, 215640, Note_on_c, 0, 91, 93
1, 215760, Note_on_c, 0, 91, 0
1, 215760, Note_on_c, 0, 36, 0
1, 215760, Note_on_c, 0, 48, 0
1, 215760, Note_on_c, 0, 86, 101
1, 215760, Note_on_c, 0, 83, 86
1, 215760, Note_on_c, 0, 79, 86
1, 215760, Note_on_c, 0, 31, 60
1, 215760, Note_on_c, 0, 43, 73
1, 215774, Control_c, 0, 64, 0
1, 215820, Tempo, 401338
1, 215866, Control_c, 0, 64, 127
1, 215880, Note_on_c, 0, 79, 0
1, 215880, Note_on_c, 0, 86, 0
1, 215880, Note_on_c, 0, 83, 0
1, 215880, Note_on_c, 0, 91, 94
1, 216000, Tempo, 402685
1, 216000, Note_on_c, 0, 91, 0
1, 216000, Note_on_c, 0, 31, 0
1, 216000, Note_on_c, 0, 43, 0
1, 216000, Note_on_c, 0, 88, 103
1, 216000, Note_on_c, 0, 84, 87
1, 216000, Note_on_c, 0, 79, 87
1, 216000, Note_on_c, 0, 36, 69
1, 216000, Note_on_c, 0, 48, 81
1, 216014, Control_c, 0, 64, 0
1, 216056, Control_c, 0, 64, 127
1, 216060, Tempo, 404040
1, 216100, Tempo, 405405
1, 216120, Note_on_c, 0, 79, 0
1, 216120, Note_on_c, 0, 88, 0
1, 216120, Note_on_c, 0, 84, 0
1, 216120, Note_on_c, 0, 91, 96
1, 216140, Tempo, 406780
1, 216180, Tempo, 408163
1, 216220, Tempo, 409556
1, 216240, Note_on_c, 0, 91, 0
1, 216240, Note_on_c, 0, 36, 0
1, 216240, Note_on_c, 0, 48, 0
1, 216240, Note_on_c, 0, 86, 105
1, 216240, Note_on_c, 0, 83, 89
1, 216240, Note_on_c, 0, 79, 89
1, 216240, Note_on_c, 0, 31, 63
1, 216240, Note_on_c, 0, 43, 75
1, 216247, Control_c, 0, 64, 0
1, 216260, Tempo, 410959
1, 216300, Tempo, 412371
1, 216340, Tempo, 413793
1, 216346, Control_c, 0, 64, 127
1, 216360, Note_on_c, 0, 79, 0
1, 216360, Note_on_c, 0, 86, 0
1, 216360, Note_on_c, 0, 83, 0
1, 216360, Note_on_c, 0, 91, 101
1, 216380, Tempo, 415225
1, 216420, Tempo, 416667
1, 216460, Tempo, 418118
1, 216480, Tempo, 419580
1, 216480, Note_on_c, 0, 91, 0
1, 216480, Note_on_c, 0, 31, 0
1, 216480, Note_on_c, 0, 43, 0
1, 216480, Note_on_c, 0, 88, 107
1, 216480, Note_on_c, 0, 84, 90
1, 216480, Note_on_c, 0, 79, 90
1, 216480, Note_on_c, 0, 36, 71
1, 216480, Note_on_c, 0, 48, 85
1, 216487, Control_c, 0, 64, 0
1, 216520, Tempo, 421053
1, 216540, Tempo, 422535
1, 216560, Tempo, 424028
1, 216565, Control_c, 0, 64, 127
1, 216580, Tempo, 425532
1, 216600, Tempo, 427046
1, 216600, Note_on_c, 0, 79, 0
1, 216600, Note_on_c, 0, 88, 0
1, 216600, Note_on_c, 0, 84, 0
1, 216600, Note_on_c, 0, 91, 99
1, 216640, Tempo, 428571
1, 216660, Tempo, 430108
1, 216680, Tempo, 431655
1, 216700, Tempo, 433213
1, 216720, Tempo, 434783
1, 216720, Note_on_c, 0, 91, 0
1, 216720, Note_on_c, 0, 36, 0
1, 216720, Note_on_c, 0, 48, 0
1, 216720, Note_on_c, 0, 86, 108
1, 216720, Note_on_c, 0, 83, 91
1, 216720, Note_on_c, 0, 79, 91
1, 216720, Note_on_c, 0, 31, 64
1, 216720, Note_on_c, 0, 43, 76
1, 216734, Control_c, 0, 64, 0
1, 216760, Tempo, 436364
1, 216780, Tempo, 437956
1, 216800, Tempo, 439560
1, 216819, Control_c, 0, 64, 127
1, 216820, Tempo, 441176
1, 216840, Tempo, 442804
1, 216840, Note_on_c, 0, 79, 0
1, 216840, Note_on_c, 0, 86, 0
1, 216840, Note_on_c, 0, 83, 0
1, 216840, Note_on_c, 0, 91, 100
1, 216860, Tempo, 444444
1, 216880, Tempo, 449438
1, 216900, Tempo, 451128
1, 216920, Tempo, 452830
1, 216940, Tempo, 456274
1, 216960, Tempo, 441176
1, 216960, Note_on_c, 0, 91, 0
1, 216960, Note_on_c, 0, 31, 0
1, 216960, Note_on_c, 0, 43, 0
1, 216960, Note_on_c, 0, 72, 83
1, 216960, Note_on_c, 0, 76, 83
1, 216960, Note_on_c, 0, 79, 93
1, 216960, Note_on_c, 0, 84, 110
1, 216960, Control_c, 0, 64, 0
1, 216960, Note_on_c, 0, 36, 68
1, 216960, Note_on_c, 0, 40, 76
1, 216960, Note_on_c, 0, 43, 76
1, 216960, Note_on_c, 0, 48, 90
1, 217045, Control_c, 0, 64, 127
1, 217080, Note_on_c, 0, 48, 0
1, 217080, Note_on_c, 0, 72, 0
1, 217080, Note_on_c, 0, 36, 0
1, 217080, Note_on_c, 0, 76, 0
1, 217080, Note_on_c, 0, 79, 0
1, 217080, Note_on_c, 0, 84, 0
1, 217080, Note_on_c, 0, 40, 0
1, 217080, Note_on_c, 0, 43, 0
1, 217200, Tempo, 408163
1, 217200, Note_on_c, 0, 84, 83
1, 217200, Note_on_c, 0, 72, 68
1, 217320, Note_on_c, 0, 72, 0
1, 217320, Note_on_c, 0, 84, 0
1, 217320, Note_on_c, 0, 79, 81
1, 217320, Note_on_c, 0, 67, 67
1, 217400, Tempo, 406780
1, 217440, Note_on_c, 0, 67, 0
1, 217440, Note_on_c, 0, 79, 0
1, 217440, Note_on_c, 0, 76, 81
1, 217440, Note_on_c, 0, 64, 65
1, 217560, Note_on_c, 0, 64, 0
1, 217560, Note_on_c, 0, 76, 0
1, 217560, Note_on_c, 0, 72, 80
1, 217560, Note_on_c, 0, 60, 64
1, 217600, Tempo, 405405
1, 217680, Note_on_c, 0, 60, 0
1, 217680, Note_on_c, 0, 72, 0
1, 217680, Note_on_c, 0, 67, 78
1, 217680, Note_on_c, 0, 55, 63
1, 217800, Tempo, 404040
1, 217800, Note_on_c, 0, 55, 0
1, 217800, Note_on_c, 0, 67, 0
1, 217800, Note_on_c, 0, 64, 76
1, 217800, Note_on_c, 0, 52, 63
1, 217920, Note_on_c, 0, 52, 0
1, 217920, Note_on_c, 0, 64, 0
1, 217920, Note_on_c, 0, 60, 73
1, 217920, Note_on_c, 0, 48, 60
1, 217960, Tempo, 402685
1, 218040, Tempo, 404040
1, 218040, Note_on_c, 0, 48, 0
1, 218040, Note_on_c, 0, 60, 0
1, 218040, Note_on_c, 0, 55, 74
1, 218040, Note_on_c, 0, 43, 61
1, 218120, Tempo, 405405
1, 218160, Note_on_c, 0, 43, 0
1, 218160, Note_on_c, 0, 55, 0
1, 218160, Note_on_c, 0, 60, 75
1, 218160, Note_on_c, 0, 48, 62
1, 218200, Tempo, 406780
1, 218280, Tempo, 408163
1, 218280, Note_on_c, 0, 48, 0
1, 218280, Note_on_c, 0, 60, 0
1, 218280, Note_on_c, 0, 64, 76
1, 218280, Note_on_c, 0, 52, 63
1, 218360, Tempo, 409556
1, 218400, Tempo, 409556
1, 218400, Note_on_c, 0, 52, 0
1, 218400, Note_on_c, 0, 64, 0
1, 218400, Note_on_c, 0, 67, 77
1, 218400, Note_on_c, 0, 55, 64
1, 218480, Tempo, 410959
1, 218520, Tempo, 412371
1, 218520, Note_on_c, 0, 55, 0
1, 218520, Note_on_c, 0, 67, 0
1, 218520, Note_on_c, 0, 72, 78
1, 218520, Note_on_c, 0, 60, 65
1, 218560, Tempo, 413793
1, 218600, Tempo, 415225
1, 218640, Tempo, 416667
1, 218640, Note_on_c, 0, 60, 0
1, 218640, Note_on_c, 0, 72, 0
1, 218640, Note_on_c, 0, 76, 79
1, 218640, Note_on_c, 0, 64, 66
1, 218680, Tempo, 418118
1, 218720, Tempo, 419580
1, 218760, Tempo, 421053
1, 218760, Note_on_c, 0, 64, 0
1, 218760, Note_on_c, 0, 76, 0
1, 218760, Note_on_c, 0, 79, 80
1, 218760, Note_on_c, 0, 67, 67
1, 218800, Tempo, 422535
1, 218840, Tempo, 424028
1, 218880, Tempo, 441176
1, 218880, Note_on_c, 0, 67, 0
1, 218880, Note_on_c, 0, 79, 0
1, 218880, Note_on_c, 0, 72, 85
1, 218880, Note_on_c, 0, 76, 85
1, 218880, Note_on_c, 0, 79, 85
1, 218880, Note_on_c, 0, 84, 101
1, 218880, Control_c, 0, 64, 0
1, 218880, Note_on_c, 0, 60, 68
1, 218880, Note_on_c, 0, 64, 68
1, 218880, Note_on_c, 0, 67, 68
1, 218880, Note_on_c, 0, 72, 80
1, 218965, Control_c, 0, 64, 127
1, 219000, Note_on_c, 0, 72, 0
1, 219000, Note_on_c, 0, 72, 0
1, 219000, Note_on_c, 0, 60, 0
1, 219000, Note_on_c, 0, 76, 0
1, 219000, Note_on_c, 0, 79, 0
1, 219000, Note_on_c, 0, 84, 0
1, 219000, Note_on_c, 0, 64, 0
1, 219000, Note_on_c, 0, 67, 0
1, 219120, Tempo, 408163
1, 219120, Note_on_c, 0, 88, 83
1, 219120, Note_on_c, 0, 76, 68
1, 219240, Note_on_c, 0, 76, 0
1, 219240, Note_on_c, 0, 88, 0
1, 219240, Note_on_c, 0, 84, 81
1, 219240, Note_on_c, 0, 72, 67
1, 219280, Tempo, 406780
1, 219360, Note_on_c, 0, 72, 0
1, 219360, Note_on_c, 0, 84, 0
1, 219360, Note_on_c, 0, 79, 81
1, 219360, Note_on_c, 0, 67, 65
1, 219440, Tempo, 405405
1, 219480, Note_on_c, 0, 67, 0
1, 219480, Note_on_c, 0, 79, 0
1, 219480, Note_on_c, 0, 76, 80
1, 219480, Note_on_c, 0, 64, 64
1, 219560, Tempo, 404040
1, 219600, Note_on_c, 0, 64, 0
1, 219600, Note_on_c, 0, 76, 0
1, 219600, Note_on_c, 0, 72, 78
1, 219600, Note_on_c, 0, 60, 63
1, 219720, Tempo, 402685
1, 219720, Note_on_c, 0, 60, 0
1, 219720, Note_on_c, 0, 72, 0
1, 219720, Note_on_c, 0, 67, 76
1, 219720, Note_on_c, 0, 55, 63
1, 219840, Tempo, 401338
1, 219840, Note_on_c, 0, 55, 0
1, 219840, Note_on_c, 0, 67, 0
1, 219840, Note_on_c, 0, 64, 73
1, 219840, Note_on_c, 0, 52, 60
1, 219920, Tempo, 402685
1, 219960, Note_on_c, 0, 52, 0
1, 219960, Note_on_c, 0, 64, 0
1, 219960, Note_on_c, 0, 60, 74
1, 219960, Note_on_c, 0, 48, 61
1, 220000, Tempo, 404040
1, 220080, Tempo, 405405
1, 220080, Note_on_c, 0, 48, 0
1, 220080, Note_on_c, 0, 60, 0
1, 220080, Note_on_c, 0, 64, 75
1, 220080, Note_on_c, 0, 52, 62
1, 220160, Tempo, 406780
1, 220200, Note_on_c, 0, 52, 0
1, 220200, Note_on_c, 0, 64, 0
1, 220200, Note_on_c, 0, 67, 76
1, 220200, Note_on_c, 0, 55, 63
1, 220240, Tempo, 408163
1, 220320, Tempo, 409556
1, 220320, Note_on_c, 0, 55, 0
1, 220320, Note_on_c, 0, 67, 0
1, 220320, Note_on_c, 0, 72, 77
1, 220320, Note_on_c, 0, 60, 64
1, 220400, Tempo, 410959
1, 220440, Tempo, 412371
1, 220440, Note_on_c, 0, 60, 0
1, 220440, Note_on_c, 0, 72, 0
1, 220440, Note_on_c, 0, 76, 78
1, 220440, Note_on_c, 0, 64, 65
1, 220480, Tempo, 413793
1, 220520, Tempo, 415225
1, 220560, Tempo, 416667
1, 220560, Note_on_c, 0, 64, 0
1, 220560, Note_on_c, 0, 76, 0
1, 220560, Note_on_c, 0, 79, 79
1, 220560, Note_on_c, 0, 67, 66
1, 220600, Tempo, 418118
1, 220640, Tempo, 419580
1, 220680, Tempo, 421053
1, 220680, Note_on_c, 0, 67, 0
1, 220680, Note_on_c, 0, 79, 0
1, 220680, Note_on_c, 0, 84, 80
1, 220680, Note_on_c, 0, 72, 67
1, 220720, Tempo, 422535
1, 220760, Tempo, 424028
1, 220800, Tempo, 441176
1, 220800, Note_on_c, 0, 72, 0
1, 220800, Note_on_c, 0, 84, 0
1, 220800, Note_on_c, 0, 76, 85
1, 220800, Note_on_c, 0, 79, 85
1, 220800, Note_on_c, 0, 84, 85
1, 220800, Note_on_c, 0, 88, 101
1, 220800, Control_c, 0, 64, 0
1, 220800, Note_on_c, 0, 64, 68
1, 220800, Note_on_c, 0, 67, 68
1, 220800, Note_on_c, 0, 72, 68
1, 220800, Note_on_c, 0, 76, 80
1, 220885, Control_c, 0, 64, 127
1, 220920, Note_on_c, 0, 76, 0
1, 220920, Note_on_c, 0, 76, 0
1, 220920, Note_on_c, 0, 64, 0
1, 220920, Note_on_c, 0, 79, 0
1, 220920, Note_on_c, 0, 84, 0
1, 220920, Note_on_c, 0, 88, 0
1, 220920, Note_on_c, 0, 67, 0
1, 220920, Note_on_c, 0, 72, 0
1, 221040, Tempo, 408163
1, 221040, Note_on_c, 0, 91, 83
1, 221040, Note_on_c, 0, 79, 68
1, 221160, Note_on_c, 0, 79, 0
1, 221160, Note_on_c, 0, 91, 0
1, 221160, Note_on_c, 0, 88, 81
1, 221160, Note_on_c, 0, 76, 67
1, 221200, Tempo, 406780
1, 221280, Note_on_c, 0, 76, 0
1, 221280, Note_on_c, 0, 88, 0
1, 221280, Note_on_c, 0, 84, 81
1, 221280, Note_on_c, 0, 72, 65
1, 221320, Tempo, 405405
1, 221400, Note_on_c, 0, 72, 0
1, 221400, Note_on_c, 0, 84, 0
1, 221400, Note_on_c, 0, 79, 80
1, 221400, Note_on_c, 0, 67, 64
1, 221480, Tempo, 404040
1, 221520, Note_on_c, 0, 67, 0
1, 221520, Note_on_c, 0, 79, 0
1, 221520, Note_on_c, 0, 76, 78
1, 221520, Note_on_c, 0, 64, 63
1, 221600, Tempo, 402685
1, 221640, Note_on_c, 0, 64, 0
1, 221640, Note_on_c, 0, 76, 0
1, 221640, Note_on_c, 0, 72, 76
1, 221640, Note_on_c, 0, 60, 63
1, 221720, Tempo, 401338
1, 221760, Note_on_c, 0, 60, 0
1, 221760, Note_on_c, 0, 72, 0
1, 221760, Note_on_c, 0, 67, 73
1, 221760, Note_on_c, 0, 55, 60
1, 221840, Tempo, 402685
1, 221880, Note_on_c, 0, 55, 0
1, 221880, Note_on_c, 0, 67, 0
1, 221880, Note_on_c, 0, 64, 74
1, 221880, Note_on_c, 0, 52, 61
1, 221920, Tempo, 404040
1, 222000, Note_on_c, 0, 52, 0
1, 222000, Note_on_c, 0, 64, 0
1, 222000, Note_on_c, 0, 67, 75
1, 222000, Note_on_c, 0, 55, 62
1, 222040, Tempo, 405405
1, 222120, Tempo, 406780
1, 222120, Note_on_c, 0, 55, 0
1, 222120, Note_on_c, 0, 67, 0
1, 222120, Note_on_c, 0, 72, 76
1, 222120, Note_on_c, 0, 60, 63
1, 222240, Tempo, 408163
1, 222240, Note_on_c, 0, 60, 0
1, 222240, Note_on_c, 0, 72, 0
1, 222240, Note_on_c, 0, 76, 77
1, 222240, Note_on_c, 0, 64, 64
1, 222320, Tempo, 409556
1, 222360, Tempo, 409556
1, 222360, Note_on_c, 0, 64, 0
1, 222360, Note_on_c, 0, 76, 0
1, 222360, Note_on_c, 0, 79, 78
1, 222360, Note_on_c, 0, 67, 65
1, 222400, Tempo, 410959
1, 222440, Tempo, 413793
1, 222480, Tempo, 415225
1, 222480, Note_on_c, 0, 67, 0
1, 222480, Note_on_c, 0, 79, 0
1, 222480, Note_on_c, 0, 84, 79
1, 222480, Note_on_c, 0, 72, 66
1, 222520, Tempo, 418118
1, 222560, Tempo, 419580
1, 222600, Tempo, 422535
1, 222600, Note_on_c, 0, 72, 0
1, 222600, Note_on_c, 0, 84, 0
1, 222600, Note_on_c, 0, 88, 80
1, 222600, Note_on_c, 0, 76, 67
1, 222640, Tempo, 434783
1, 222680, Tempo, 439560
1, 222720, Tempo, 441176
1, 222720, Note_on_c, 0, 76, 0
1, 222720, Note_on_c, 0, 88, 0
1, 222720, Note_on_c, 0, 79, 85
1, 222720, Note_on_c, 0, 84, 85
1, 222720, Note_on_c, 0, 88, 85
1, 222720, Note_on_c, 0, 91, 101
1, 222720, Control_c, 0, 64, 0
1, 222720, Note_on_c, 0, 67, 68
1, 222720, Note_on_c, 0, 72, 68
1, 222720, Note_on_c, 0, 76, 68
1, 222720, Note_on_c, 0, 79, 80
1, 222805, Control_c, 0, 64, 127
1, 222840, Note_on_c, 0, 79, 0
1, 222840, Note_on_c, 0, 79, 0
1, 222840, Note_on_c, 0, 67, 0
1, 222840, Note_on_c, 0, 84, 0
1, 222840, Note_on_c, 0, 88, 0
1, 222840, Note_on_c, 0, 91, 0
1, 222840, Note_on_c, 0, 72, 0
1, 222840, Note_on_c, 0, 76, 0
1, 222960, Tempo, 409556
1, 222960, Note_on_c, 0, 96, 83
1, 222960, Note_on_c, 0, 84, 68
1, 223080, Note_on_c, 0, 84, 0
1, 223080, Note_on_c, 0, 96, 0
1, 223080, Note_on_c, 0, 91, 81
1, 223080, Note_on_c, 0, 79, 67
1, 223120, Tempo, 408163
1, 223200, Note_on_c, 0, 79, 0
1, 223200, Note_on_c, 0, 91, 0
1, 223200, Note_on_c, 0, 88, 81
1, 223200, Note_on_c, 0, 76, 65
1, 223240, Tempo, 406780
1, 223320, Note_on_c, 0, 76, 0
1, 223320, Note_on_c, 0, 88, 0
1, 223320, Note_on_c, 0, 84, 80
1, 223320, Note_on_c, 0, 72, 64
1, 223400, Tempo, 405405
1, 223440, Note_on_c, 0, 72, 0
1, 223440, Note_on_c, 0, 84, 0
1, 223440, Note_on_c, 0, 79, 78
1, 223440, Note_on_c, 0, 67, 63
1, 223520, Tempo, 404040
1, 223560, Note_on_c, 0, 67, 0
1, 223560, Note_on_c, 0, 79, 0
1, 223560, Note_on_c, 0, 76, 76
1, 223560, Note_on_c, 0, 64, 63
1, 223640, Tempo, 402685
1, 223680, Note_on_c, 0, 64, 0
1, 223680, Note_on_c, 0, 76, 0
1, 223680, Note_on_c, 0, 72, 73
1, 223680, Note_on_c, 0, 60, 60
1, 223760, Tempo, 404040
1, 223800, Note_on_c, 0, 60, 0
1, 223800, Note_on_c, 0, 72, 0
1, 223800, Note_on_c, 0, 67, 74
1, 223800, Note_on_c, 0, 55, 61
1, 223880, Tempo, 405405
1, 223920, Note_on_c, 0, 55, 0
1, 223920, Note_on_c, 0, 67, 0
1, 223920, Note_on_c, 0, 72, 75
1, 223920, Note_on_c, 0, 60, 62
1, 224000, Tempo, 406780
1, 224040, Note_on_c, 0, 60, 0
1, 224040, Note_on_c, 0, 72, 0
1, 224040, Note_on_c, 0, 76, 76
1, 224040, Note_on_c, 0, 64, 63
1, 224120, Tempo, 408163
1, 224160, Note_on_c, 0, 64, 0
1, 224160, Note_on_c, 0, 76, 0
1, 224160, Note_on_c, 0, 79, 77
1, 224160, Note_on_c, 0, 67, 64
1, 224240, Tempo, 409556
1, 224280, Note_on_c, 0, 67, 0
1, 224280, Note_on_c, 0, 79, 0
1, 224280, Note_on_c, 0, 84, 78
1, 224280, Note_on_c, 0, 72, 65
1, 224320, Tempo, 412371
1, 224360, Tempo, 415225
1, 224400, Tempo, 418118
1, 224400, Note_on_c, 0, 72, 0
1, 224400, Note_on_c, 0, 84, 0
1, 224400, Note_on_c, 0, 88, 79
1, 224400, Note_on_c, 0, 76, 66
1, 224440, Tempo, 421053
1, 224480, Tempo, 424028
1, 224520, Tempo, 427046
1, 224520, Note_on_c, 0, 76, 0
1, 224520, Note_on_c, 0, 88, 0
1, 224520, Note_on_c, 0, 91, 80
1, 224520, Note_on_c, 0, 79, 67
1, 224560, Tempo, 430108
1, 224600, Tempo, 433213
1, 224640, Tempo, 458015
1, 224640, Note_on_c, 0, 79, 0
1, 224640, Note_on_c, 0, 91, 0
1, 224640, Note_on_c, 0, 84, 85
1, 224640, Note_on_c, 0, 88, 85
1, 224640, Note_on_c, 0, 91, 85
1, 224640, Note_on_c, 0, 96, 101
1, 224640, Control_c, 0, 64, 0
1, 224640, Note_on_c, 0, 72, 68
1, 224640, Note_on_c, 0, 76, 68
1, 224640, Note_on_c, 0, 79, 68
1, 224640, Note_on_c, 0, 84, 80
1, 224725, Control_c, 0, 64, 127
1, 224760, Note_on_c, 0, 84, 0
1, 224760, Note_on_c, 0, 84, 0
1, 224760, Note_on_c, 0, 72, 0
1, 224760, Note_on_c, 0, 88, 0
1, 224760, Note_on_c, 0, 91, 0
1, 224760, Note_on_c, 0, 96, 0
1, 224760, Note_on_c, 0, 76, 0
1, 224760, Note_on_c, 0, 79, 0
1, 224880, Tempo, 409556
1, 224880, Note_on_c, 0, 100, 89
1, 224880, Note_on_c, 0, 60, 73
1, 225000, Note_on_c, 0, 60, 0
1, 225000, Note_on_c, 0, 100, 0
1, 225000, Note_on_c, 0, 96, 87
1, 225000, Note_on_c, 0, 55, 71
1, 225040, Tempo, 408163
1, 225120, Note_on_c, 0, 55, 0
1, 225120, Note_on_c, 0, 96, 0
1, 225120, Note_on_c, 0, 91, 84
1, 225120, Note_on_c, 0, 52, 69
1, 225200, Tempo, 406780
1, 225240, Note_on_c, 0, 52, 0
1, 225240, Note_on_c, 0, 91, 0
1, 225240, Note_on_c, 0, 88, 81
1, 225240, Note_on_c, 0, 48, 67
1, 225320, Tempo, 405405
1, 225360, Note_on_c, 0, 48, 0
1, 225360, Note_on_c, 0, 88, 0
1, 225360, Note_on_c, 0, 84, 79
1, 225360, Note_on_c, 0, 43, 65
1, 225480, Tempo, 404040
1, 225480, Note_on_c, 0, 43, 0
1, 225480, Note_on_c, 0, 84, 0
1, 225480, Note_on_c, 0, 79, 76
1, 225480, Note_on_c, 0, 40, 63
1, 225600, Tempo, 402685
1, 225600, Note_on_c, 0, 40, 0
1, 225600, Note_on_c, 0, 79, 0
1, 225600, Note_on_c, 0, 76, 73
1, 225600, Note_on_c, 0, 36, 60
1, 225720, Tempo, 404040
1, 225720, Note_on_c, 0, 36, 0
1, 225720, Note_on_c, 0, 76, 0
1, 225720, Note_on_c, 0, 72, 74
1, 225720, Note_on_c, 0, 31, 61
1, 225800, Tempo, 405405
1, 225840, Note_on_c, 0, 31, 0
1, 225840, Note_on_c, 0, 72, 0
1, 225840, Note_on_c, 0, 76, 75
1, 225840, Note_on_c, 0, 36, 62
1, 225880, Tempo, 406780
1, 225960, Tempo, 408163
1, 225960, Note_on_c, 0, 36, 0
1, 225960, Note_on_c, 0, 76, 0
1, 225960, Note_on_c, 0, 79, 76
1, 225960, Note_on_c, 0, 40, 63
1, 226040, Tempo, 409556
1, 226080, Note_on_c, 0, 40, 0
1, 226080, Note_on_c, 0, 79, 0
1, 226080, Note_on_c, 0, 84, 77
1, 226080, Note_on_c, 0, 43, 64
1, 226120, Tempo, 410959
1, 226160, Tempo, 412371
1, 226200, Tempo, 410959
1, 226200, Note_on_c, 0, 43, 0
1, 226200, Note_on_c, 0, 84, 0
1, 226200, Note_on_c, 0, 88, 78
1, 226200, Note_on_c, 0, 48, 65
1, 226240, Tempo, 412371
1, 226280, Tempo, 415225
1, 226320, Tempo, 418118
1, 226320, Note_on_c, 0, 48, 0
1, 226320, Note_on_c, 0, 88, 0
1, 226320, Note_on_c, 0, 91, 79
1, 226320, Note_on_c, 0, 52, 66
1, 226360, Tempo, 421053
1, 226400, Tempo, 424028
1, 226440, Tempo, 427046
1, 226440, Note_on_c, 0, 52, 0
1, 226440, Note_on_c, 0, 91, 0
1, 226440, Note_on_c, 0, 96, 80
1, 226440, Note_on_c, 0, 55, 67
1, 226480, Tempo, 430108
1, 226520, Tempo, 433213
1, 226560, Tempo, 436364
1, 226560, Note_on_c, 0, 55, 0
1, 226560, Note_on_c, 0, 96, 0
1, 226560, Note_on_c, 0, 88, 87
1, 226560, Note_on_c, 0, 91, 87
1, 226560, Note_on_c, 0, 96, 87
1, 226560, Note_on_c, 0, 100, 103
1, 226560, Control_c, 0, 64, 0
1, 226560, Note_on_c, 0, 48, 71
1, 226560, Note_on_c, 0, 52, 71
1, 226560, Note_on_c, 0, 55, 71
1, 226560, Note_on_c, 0, 60, 84
1, 226773, Control_c, 0, 64, 127
1, 227040, Note_on_c, 0, 60, 0
1, 227040, Note_on_c, 0, 88, 0
1, 227040, Note_on_c, 0, 48, 0
1, 227040, Note_on_c, 0, 91, 0
1, 227040, Note_on_c, 0, 96, 0
1, 227040, Note_on_c, 0, 100, 0
1, 227040, Note_on_c, 0, 52, 0
1, 227040, Note_on_c, 0, 55, 0
1, 227067, Control_c, 0, 64, 0
1, 227520, Note_on_c, 0, 79, 89
1, 227520, Note_on_c, 0, 83, 89
1, 227520, Note_on_c, 0, 86, 89
1, 227520, Note_on_c, 0, 91, 106
1, 227520, Note_on_c, 0, 43, 71
1, 227520, Note_on_c, 0, 47, 71
1, 227520, Note_on_c, 0, 50, 71
1, 227520, Note_on_c, 0, 55, 84
1, 227760, Control_c, 0, 64, 127
1, 228000, Note_on_c, 0, 55, 0
1, 228000, Note_on_c, 0, 79, 0
1, 228000, Note_on_c, 0, 43, 0
1, 228000, Note_on_c, 0, 83, 0
1, 228000, Note_on_c, 0, 86, 0
1, 228000, Note_on_c, 0, 91, 0
1, 228000, Note_on_c, 0, 47, 0
1, 228000, Note_on_c, 0, 50, 0
1, 228027, Control_c, 0, 64, 0
1, 228480, Note_on_c, 0, 76, 89
1, 228480, Note_on_c, 0, 79, 89
1, 228480, Note_on_c, 0, 84, 89
1, 228480, Note_on_c, 0, 88, 106
1, 228480, Note_on_c, 0, 48, 71
1, 228480, Note_on_c, 0, 52, 71
1, 228480, Note_on_c, 0, 55, 71
1, 228480, Note_on_c, 0, 60, 84
1, 228587, Control_c, 0, 64, 127
1, 228960, Note_on_c, 0, 60, 0
1, 228960, Note_on_c, 0, 76, 0
1, 228960, Note_on_c, 0, 48, 0
1, 228960, Note_on_c, 0, 79, 0
1, 228960, Note_on_c, 0, 84, 0
1, 228960, Note_on_c, 0, 88, 0
1, 228960, Note_on_c, 0, 52, 0
1, 228960, Note_on_c, 0, 55, 0
1, 229040, Control_c, 0, 64, 0
1, 229440, Note_on_c, 0, 79, 89
1, 229440, Note_on_c, 0, 83, 89
1, 229440, Note_on_c, 0, 86, 89
1, 229440, Note_on_c, 0, 91, 106
1, 229440, Note_on_c, 0, 43, 71
1, 229440, Note_on_c, 0, 47, 71
1, 229440, Note_on_c, 0, 50, 71
1, 229440, Note_on_c, 0, 55, 84
1, 229680, Control_c, 0, 64, 127
1, 229920, Note_on_c, 0, 55, 0
1, 229920, Note_on_c, 0, 79, 0
1, 229920, Note_on_c, 0, 43, 0
1, 229920, Note_on_c, 0, 83, 0
1, 229920, Note_on_c, 0, 86, 0
1, 229920, Note_on_c, 0, 91, 0
1, 229920, Note_on_c, 0, 47, 0
1, 229920, Note_on_c, 0, 50, 0
1, 230107, Control_c, 0, 64, 0
1, 230360, Tempo, 418118
1, 230400, Note_on_c, 0, 72, 56
1, 230400, Note_on_c, 0, 48, 45
1, 230433, Control_c, 0, 64, 127
1, 230440, Tempo, 416667
1, 230480, Tempo, 415225
1, 230520, Note_on_c, 0, 48, 0
1, 230520, Note_on_c, 0, 72, 0
1, 230520, Note_on_c, 0, 84, 57
1, 230520, Note_on_c, 0, 60, 48
1, 230560, Tempo, 413793
1, 230600, Tempo, 412371
1, 230640, Note_on_c, 0, 60, 0
1, 230640, Note_on_c, 0, 84, 0
1, 230640, Note_on_c, 0, 78, 60
1, 230640, Note_on_c, 0, 75, 50
1, 230640, Note_on_c, 0, 72, 50
1, 230640, Note_on_c, 0, 54, 50
1, 230640, Note_on_c, 0, 51, 43
1, 230640, Note_on_c, 0, 48, 43
1, 230680, Tempo, 410959
1, 230720, Tempo, 409556
1, 230760, Note_on_c, 0, 48, 0
1, 230760, Note_on_c, 0, 75, 0
1, 230760, Note_on_c, 0, 72, 0
1, 230760, Note_on_c, 0, 78, 0
1, 230760, Note_on_c, 0, 51, 0
1, 230760, Note_on_c, 0, 54, 0
1, 230760, Note_on_c, 0, 84, 63
1, 230760, Note_on_c, 0, 60, 53
1, 230800, Tempo, 408163
1, 230840, Tempo, 406780
1, 230880, Tempo, 405405
1, 230880, Note_on_c, 0, 60, 0
1, 230880, Note_on_c, 0, 84, 0
1, 230880, Note_on_c, 0, 72, 54
1, 230880, Note_on_c, 0, 76, 54
1, 230880, Note_on_c, 0, 79, 65
1, 230880, Note_on_c, 0, 48, 47
1, 230880, Note_on_c, 0, 52, 47
1, 230880, Note_on_c, 0, 55, 55
1, 230890, Control_c, 0, 64, 0
1, 230942, Control_c, 0, 64, 127
1, 230960, Tempo, 406780
1, 231000, Note_on_c, 0, 55, 0
1, 231000, Note_on_c, 0, 76, 0
1, 231000, Note_on_c, 0, 79, 0
1, 231000, Note_on_c, 0, 72, 0
1, 231000, Note_on_c, 0, 52, 0
1, 231000, Note_on_c, 0, 48, 0
1, 231000, Note_on_c, 0, 84, 67
1, 231000, Note_on_c, 0, 60, 59
1, 231120, Note_on_c, 0, 60, 0
1, 231120, Note_on_c, 0, 84, 0
1, 231120, Note_on_c, 0, 78, 70
1, 231120, Note_on_c, 0, 75, 59
1, 231120, Note_on_c, 0, 72, 59
1, 231120, Note_on_c, 0, 54, 62
1, 231120, Note_on_c, 0, 51, 52
1, 231120, Note_on_c, 0, 48, 52
1, 231240, Note_on_c, 0, 48, 0
1, 231240, Note_on_c, 0, 75, 0
1, 231240, Note_on_c, 0, 72, 0
1, 231240, Note_on_c, 0, 78, 0
1, 231240, Note_on_c, 0, 51, 0
1, 231240, Note_on_c, 0, 54, 0
1, 231240, Note_on_c, 0, 84, 72
1, 231240, Note_on_c, 0, 60, 64
1, 231320, Tempo, 405405
1, 231360, Tempo, 406780
1, 231360, Note_on_c, 0, 60, 0
1, 231360, Note_on_c, 0, 84, 0
1, 231360, Note_on_c, 0, 72, 62
1, 231360, Note_on_c, 0, 76, 62
1, 231360, Note_on_c, 0, 79, 74
1, 231360, Note_on_c, 0, 48, 56
1, 231360, Note_on_c, 0, 52, 56
1, 231360, Note_on_c, 0, 55, 66
1, 231368, Control_c, 0, 64, 0
1, 231401, Control_c, 0, 64, 127
1, 231440, Tempo, 408163
1, 231480, Note_on_c, 0, 55, 0
1, 231480, Note_on_c, 0, 76, 0
1, 231480, Note_on_c, 0, 79, 0
1, 231480, Note_on_c, 0, 72, 0
1, 231480, Note_on_c, 0, 52, 0
1, 231480, Note_on_c, 0, 48, 0
1, 231480, Note_on_c, 0, 84, 77
1, 231480, Note_on_c, 0, 60, 70
1, 231520, Tempo, 409556
1, 231560, Tempo, 410959
1, 231600, Note_on_c, 0, 60, 0
1, 231600, Note_on_c, 0, 84, 0
1, 231600, Note_on_c, 0, 78, 80
1, 231600, Note_on_c, 0, 75, 67
1, 231600, Note_on_c, 0, 72, 67
1, 231600, Note_on_c, 0, 54, 73
1, 231600, Note_on_c, 0, 51, 61
1, 231600, Note_on_c, 0, 48, 61
1, 231640, Tempo, 412371
1, 231720, Tempo, 413793
1, 231720, Note_on_c, 0, 48, 0
1, 231720, Note_on_c, 0, 75, 0
1, 231720, Note_on_c, 0, 72, 0
1, 231720, Note_on_c, 0, 78, 0
1, 231720, Note_on_c, 0, 51, 0
1, 231720, Note_on_c, 0, 54, 0
1, 231720, Note_on_c, 0, 84, 83
1, 231720, Note_on_c, 0, 60, 75
1, 231760, Tempo, 415225
1, 231800, Tempo, 406780
1, 231840, Tempo, 418118
1, 231840, Note_on_c, 0, 60, 0
1, 231840, Note_on_c, 0, 84, 0
1, 231840, Note_on_c, 0, 72, 71
1, 231840, Note_on_c, 0, 76, 71
1, 231840, Note_on_c, 0, 79, 85
1, 231840, Note_on_c, 0, 48, 65
1, 231840, Note_on_c, 0, 52, 65
1, 231840, Note_on_c, 0, 55, 76
1, 231844, Control_c, 0, 64, 0
1, 231861, Control_c, 0, 64, 127
1, 231880, Tempo, 419580
1, 231920, Tempo, 421053
1, 231960, Tempo, 422535
1, 231960, Note_on_c, 0, 55, 0
1, 231960, Note_on_c, 0, 76, 0
1, 231960, Note_on_c, 0, 79, 0
1, 231960, Note_on_c, 0, 72, 0
1, 231960, Note_on_c, 0, 52, 0
1, 231960, Note_on_c, 0, 48, 0
1, 231960, Note_on_c, 0, 84, 82
1, 231960, Note_on_c, 0, 60, 74
1, 232000, Tempo, 424028
1, 232020, Tempo, 428571
1, 232040, Tempo, 430108
1, 232060, Tempo, 431655
1, 232080, Tempo, 434783
1, 232080, Note_on_c, 0, 60, 0
1, 232080, Note_on_c, 0, 84, 0
1, 232080, Note_on_c, 0, 78, 80
1, 232080, Note_on_c, 0, 75, 68
1, 232080, Note_on_c, 0, 72, 68
1, 232080, Note_on_c, 0, 54, 72
1, 232080, Note_on_c, 0, 51, 60
1, 232080, Note_on_c, 0, 48, 60
1, 232100, Tempo, 436364
1, 232120, Tempo, 439560
1, 232140, Tempo, 441176
1, 232160, Tempo, 442804
1, 232180, Tempo, 446097
1, 232200, Tempo, 447761
1, 232200, Note_on_c, 0, 48, 0
1, 232200, Note_on_c, 0, 75, 0
1, 232200, Note_on_c, 0, 72, 0
1, 232200, Note_on_c, 0, 78, 0
1, 232200, Note_on_c, 0, 51, 0
1, 232200, Note_on_c, 0, 54, 0
1, 232200, Note_on_c, 0, 84, 78
1, 232200, Note_on_c, 0, 60, 70
1, 232220, Tempo, 451128
1, 232240, Tempo, 452830
1, 232260, Tempo, 456274
1, 232280, Tempo, 434783
1, 232320, Tempo, 474308
1, 232320, Note_on_c, 0, 60, 0
1, 232320, Note_on_c, 0, 84, 0
1, 232320, Note_on_c, 0, 72, 81
1, 232320, Note_on_c, 0, 76, 81
1, 232320, Note_on_c, 0, 79, 81
1, 232320, Note_on_c, 0, 84, 97
1, 232320, Control_c, 0, 64, 0
1, 232320, Note_on_c, 0, 48, 64
1, 232320, Note_on_c, 0, 52, 64
1, 232320, Note_on_c, 0, 55, 64
1, 232320, Note_on_c, 0, 60, 77
1, 232613, Control_c, 0, 64, 127
1, 232800, Note_on_c, 0, 60, 0
1, 232800, Note_on_c, 0, 72, 0
1, 232800, Note_on_c, 0, 48, 0
1, 232800, Note_on_c, 0, 76, 0
1, 232800, Note_on_c, 0, 79, 0
1, 232800, Note_on_c, 0, 84, 0
1, 232800, Note_on_c, 0, 52, 0
1, 232800, Note_on_c, 0, 55, 0
1, 232972, Control_c, 0, 64, 0
1, 233280, Tempo, 528634
1, 233280, Note_on_c, 0, 84, 89
1, 233280, Note_on_c, 0, 88, 89
1, 233280, Note_on_c, 0, 91, 89
1, 233280, Note_on_c, 0, 96, 106
1, 233280, Note_on_c, 0, 60, 71
1, 233280, Note_on_c, 0, 64, 71
1, 233280, Note_on_c, 0, 67, 71
1, 233280, Note_on_c, 0, 72, 84
1, 233493, Control_c, 0, 64, 127
1, 233760, Note_on_c, 0, 72, 0
1, 233760, Note_on_c, 0, 84, 0
1, 233760, Note_on_c, 0, 60, 0
1, 233760, Note_on_c, 0, 88, 0
1, 233760, Note_on_c, 0, 91, 0
1, 233760, Note_on_c, 0, 96, 0
1, 233760, Note_on_c, 0, 64, 0
1, 233760, Note_on_c, 0, 67, 0
1, 233911, Control_c, 0, 64, 0
1, 234240, Note_on_c, 0, 52, 89
1, 234240, Note_on_c, 0, 55, 89
1, 234240, Note_on_c, 0, 60, 106
1, 234240, Note_on_c, 0, 36, 71
1, 234240, Note_on_c, 0, 40, 71
1, 234240, Note_on_c, 0, 43, 71
1, 234240, Note_on_c, 0, 48, 84
1, 234427, Control_c, 0, 64, 127
1, 235200, Note_on_c, 0, 48, 0
1, 235200, Note_on_c, 0, 40, 0
1, 235200, Note_on_c, 0, 55, 0
1, 235200, Note_on_c, 0, 60, 0
1, 235200, Note_on_c, 0, 52, 0
1, 235200, Note_on_c, 0, 43, 0
1, 235200, Note_on_c, 0, 36, 0
1, 235387, Control_c, 0, 64, 0
1, 236160, Tempo, 500000
1, 236160, End_track
0, 0, End_of_file
