0, 0, Header, 0, 1, 480
1, 0, Start_track
1, 0, Title_t, "Abegg-Variationen"
1, 0, Copyright_t, "Copyright © 2004 by Bernd Krueger"
1, 0, Text_t, "Robert Schumann"
1, 0, Text_t, "Fertiggestellt am 23.6.2004\012"
1, 0, Text_t, "Update am 2.11.2008 (Konvertierung nach cwp)\012"
1, 0, Text_t, "Update am 25.3.2014\012"
1, 0, Text_t, "Dauer:  6:14 Minuten\012"
1, 0, SMPTE_offset, 96, 0, 3, 0, 0
1, 0, Time_signature, 3, 2, 24, 8
1, 0, Key_signature, -1, "major"
1, 0, Tempo, 375000
1, 0, Marker_t, "Thema"
1, 0, Program_c, 0, 0
1, 0, Control_c, 0, 7, 100
1, 0, Control_c, 0, 10, 64
1, 0, Control_c, 0, 91, 127
1, 0, Text_t, "bdca426d104a26ac9dcb070447587523"
1, 0, Program_c, 0, 0
1, 0, Control_c, 0, 7, 100
1, 0, Control_c, 0, 10, 64
1, 960, Tempo, 517241
1, 960, Note_on_c, 0, 81, 56
1, 960, Note_on_c, 0, 69, 45
1, 1440, Tempo, 491803
1, 1440, Note_on_c, 0, 69, 0
1, 1440, Note_on_c, 0, 81, 0
1, 1440, Note_on_c, 0, 70, 48
1, 1440, Note_on_c, 0, 82, 59
1, 1440, Control_c, 0, 64, 127
1, 1440, Note_on_c, 0, 48, 45
1, 1668, Note_on_c, 0, 48, 0
1, 1680, Tempo, 380952
1, 1680, Note_on_c, 0, 64, 35
1, 1680, Note_on_c, 0, 60, 29
1, 1680, Note_on_c, 0, 58, 29
1, 1908, Note_on_c, 0, 58, 0
1, 1908, Note_on_c, 0, 64, 0
1, 1908, Note_on_c, 0, 60, 0
1, 1920, Tempo, 389610
1, 1920, Note_on_c, 0, 82, 0
1, 1920, Note_on_c, 0, 70, 0
1, 1920, Note_on_c, 0, 76, 51
1, 1920, Note_on_c, 0, 88, 63
1, 1920, Note_on_c, 0, 58, 30
1, 1920, Note_on_c, 0, 60, 30
1, 1920, Note_on_c, 0, 64, 36
1, 2148, Note_on_c, 0, 64, 0
1, 2148, Note_on_c, 0, 58, 0
1, 2148, Note_on_c, 0, 60, 0
1, 2160, Note_on_c, 0, 58, 30
1, 2160, Note_on_c, 0, 60, 30
1, 2160, Note_on_c, 0, 64, 36
1, 2388, Note_on_c, 0, 64, 0
1, 2388, Note_on_c, 0, 58, 0
1, 2388, Note_on_c, 0, 60, 0
1, 2400, Tempo, 408163
1, 2400, Note_on_c, 0, 88, 0
1, 2400, Note_on_c, 0, 76, 0
1, 2400, Note_on_c, 0, 79, 54
1, 2400, Note_on_c, 0, 91, 67
1, 2400, Note_on_c, 0, 58, 32
1, 2400, Note_on_c, 0, 60, 32
1, 2400, Note_on_c, 0, 64, 38
1, 2628, Note_on_c, 0, 64, 0
1, 2628, Note_on_c, 0, 58, 0
1, 2628, Note_on_c, 0, 60, 0
1, 2640, Tempo, 422535
1, 2640, Note_on_c, 0, 58, 33
1, 2640, Note_on_c, 0, 60, 33
1, 2640, Note_on_c, 0, 64, 39
1, 2868, Note_on_c, 0, 64, 0
1, 2868, Note_on_c, 0, 58, 0
1, 2868, Note_on_c, 0, 60, 0
1, 2880, Tempo, 435667
1, 2880, Note_on_c, 0, 91, 0
1, 2880, Note_on_c, 0, 79, 0
1, 2880, Note_on_c, 0, 91, 69
1, 2880, Note_on_c, 0, 79, 56
1, 2880, Note_on_c, 0, 48, 50
1, 2885, Control_c, 0, 64, 0
1, 3006, Control_c, 0, 64, 127
1, 3108, Note_on_c, 0, 48, 0
1, 3120, Tempo, 389610
1, 3120, Note_on_c, 0, 64, 35
1, 3120, Note_on_c, 0, 60, 29
1, 3120, Note_on_c, 0, 58, 29
1, 3348, Note_on_c, 0, 58, 0
1, 3348, Note_on_c, 0, 64, 0
1, 3348, Note_on_c, 0, 60, 0
1, 3360, Tempo, 404040
1, 3360, Note_on_c, 0, 64, 36
1, 3360, Note_on_c, 0, 60, 30
1, 3360, Note_on_c, 0, 58, 30
1, 3588, Note_on_c, 0, 58, 0
1, 3588, Note_on_c, 0, 64, 0
1, 3588, Note_on_c, 0, 60, 0
1, 3600, Note_on_c, 0, 64, 37
1, 3600, Note_on_c, 0, 60, 31
1, 3600, Note_on_c, 0, 58, 31
1, 3828, Note_on_c, 0, 58, 0
1, 3828, Note_on_c, 0, 64, 0
1, 3828, Note_on_c, 0, 60, 0
1, 3840, Tempo, 422535
1, 3840, Note_on_c, 0, 79, 0
1, 3840, Note_on_c, 0, 91, 0
1, 3840, Note_on_c, 0, 68, 51
1, 3840, Note_on_c, 0, 80, 63
1, 3840, Note_on_c, 0, 64, 38
1, 3840, Note_on_c, 0, 60, 32
1, 3840, Note_on_c, 0, 58, 32
1, 3840, Control_c, 0, 91, 127
1, 3850, Control_c, 0, 64, 0
1, 3954, Control_c, 0, 64, 127
1, 4068, Note_on_c, 0, 58, 0
1, 4068, Note_on_c, 0, 64, 0
1, 4068, Note_on_c, 0, 60, 0
1, 4080, Tempo, 437956
1, 4080, Note_on_c, 0, 64, 39
1, 4080, Note_on_c, 0, 60, 33
1, 4080, Note_on_c, 0, 58, 33
1, 4308, Note_on_c, 0, 58, 0
1, 4308, Note_on_c, 0, 64, 0
1, 4308, Note_on_c, 0, 60, 0
1, 4320, Tempo, 451128
1, 4320, Note_on_c, 0, 80, 0
1, 4320, Note_on_c, 0, 68, 0
1, 4320, Note_on_c, 0, 81, 69
1, 4320, Note_on_c, 0, 69, 56
1, 4320, Note_on_c, 0, 53, 50
1, 4323, Control_c, 0, 64, 0
1, 4461, Control_c, 0, 64, 127
1, 4548, Note_on_c, 0, 53, 0
1, 4560, Tempo, 380952
1, 4560, Note_on_c, 0, 65, 35
1, 4560, Note_on_c, 0, 60, 29
1, 4560, Note_on_c, 0, 57, 29
1, 4788, Note_on_c, 0, 57, 0
1, 4788, Note_on_c, 0, 65, 0
1, 4788, Note_on_c, 0, 60, 0
1, 4800, Tempo, 387097
1, 4800, Note_on_c, 0, 69, 0
1, 4800, Note_on_c, 0, 81, 0
1, 4800, Note_on_c, 0, 72, 51
1, 4800, Note_on_c, 0, 84, 63
1, 4800, Note_on_c, 0, 57, 30
1, 4800, Note_on_c, 0, 60, 30
1, 4800, Note_on_c, 0, 65, 36
1, 5028, Note_on_c, 0, 65, 0
1, 5028, Note_on_c, 0, 57, 0
1, 5028, Note_on_c, 0, 60, 0
1, 5040, Note_on_c, 0, 57, 31
1, 5040, Note_on_c, 0, 60, 31
1, 5040, Note_on_c, 0, 65, 37
1, 5268, Note_on_c, 0, 65, 0
1, 5268, Note_on_c, 0, 57, 0
1, 5268, Note_on_c, 0, 60, 0
1, 5280, Tempo, 402685
1, 5280, Note_on_c, 0, 84, 0
1, 5280, Note_on_c, 0, 72, 0
1, 5280, Note_on_c, 0, 89, 68
1, 5280, Note_on_c, 0, 77, 55
1, 5280, Note_on_c, 0, 57, 32
1, 5280, Note_on_c, 0, 60, 32
1, 5280, Note_on_c, 0, 65, 38
1, 5508, Note_on_c, 0, 65, 0
1, 5508, Note_on_c, 0, 57, 0
1, 5508, Note_on_c, 0, 60, 0
1, 5520, Tempo, 431934
1, 5520, Note_on_c, 0, 57, 33
1, 5520, Note_on_c, 0, 60, 33
1, 5520, Note_on_c, 0, 65, 39
1, 5748, Note_on_c, 0, 65, 0
1, 5748, Note_on_c, 0, 57, 0
1, 5748, Note_on_c, 0, 60, 0
1, 5760, Tempo, 415945
1, 5760, Note_on_c, 0, 77, 0
1, 5760, Note_on_c, 0, 89, 0
1, 5760, Note_on_c, 0, 77, 55
1, 5760, Note_on_c, 0, 89, 68
1, 5760, Control_c, 0, 64, 0
1, 5760, Note_on_c, 0, 45, 50
1, 5887, Control_c, 0, 64, 127
1, 5988, Note_on_c, 0, 45, 0
1, 6000, Tempo, 388350
1, 6000, Note_on_c, 0, 65, 41
1, 6000, Note_on_c, 0, 60, 34
1, 6000, Note_on_c, 0, 57, 34
1, 6228, Note_on_c, 0, 57, 0
1, 6228, Note_on_c, 0, 65, 0
1, 6228, Note_on_c, 0, 60, 0
1, 6240, Tempo, 404040
1, 6240, Note_on_c, 0, 65, 41
1, 6240, Note_on_c, 0, 60, 34
1, 6240, Note_on_c, 0, 57, 34
1, 6468, Note_on_c, 0, 57, 0
1, 6468, Note_on_c, 0, 65, 0
1, 6468, Note_on_c, 0, 60, 0
1, 6480, Note_on_c, 0, 65, 42
1, 6480, Note_on_c, 0, 60, 35
1, 6480, Note_on_c, 0, 57, 35
1, 6680, Tempo, 412541
1, 6708, Note_on_c, 0, 57, 0
1, 6708, Note_on_c, 0, 65, 0
1, 6708, Note_on_c, 0, 60, 0
1, 6720, Tempo, 422535
1, 6720, Note_on_c, 0, 89, 0
1, 6720, Note_on_c, 0, 77, 0
1, 6720, Note_on_c, 0, 78, 56
1, 6720, Note_on_c, 0, 66, 45
1, 6720, Note_on_c, 0, 57, 35
1, 6720, Note_on_c, 0, 60, 35
1, 6720, Note_on_c, 0, 63, 42
1, 6730, Control_c, 0, 64, 0
1, 6800, Control_c, 0, 64, 127
1, 6948, Note_on_c, 0, 63, 0
1, 6948, Note_on_c, 0, 57, 0
1, 6948, Note_on_c, 0, 60, 0
1, 6960, Tempo, 437956
1, 6960, Note_on_c, 0, 57, 35
1, 6960, Note_on_c, 0, 60, 35
1, 6960, Note_on_c, 0, 63, 42
1, 7188, Note_on_c, 0, 63, 0
1, 7188, Note_on_c, 0, 57, 0
1, 7188, Note_on_c, 0, 60, 0
1, 7200, Tempo, 436364
1, 7200, Note_on_c, 0, 66, 0
1, 7200, Note_on_c, 0, 78, 0
1, 7200, Note_on_c, 0, 67, 48
1, 7200, Note_on_c, 0, 79, 59
1, 7200, Note_on_c, 0, 46, 45
1, 7210, Control_c, 0, 64, 0
1, 7288, Control_c, 0, 64, 127
1, 7428, Note_on_c, 0, 46, 0
1, 7440, Tempo, 387097
1, 7440, Note_on_c, 0, 62, 35
1, 7440, Note_on_c, 0, 58, 29
1, 7440, Note_on_c, 0, 55, 29
1, 7668, Note_on_c, 0, 55, 0
1, 7668, Note_on_c, 0, 62, 0
1, 7668, Note_on_c, 0, 58, 0
1, 7680, Tempo, 392157
1, 7680, Note_on_c, 0, 79, 0
1, 7680, Note_on_c, 0, 67, 0
1, 7680, Note_on_c, 0, 70, 51
1, 7680, Note_on_c, 0, 82, 63
1, 7680, Note_on_c, 0, 55, 30
1, 7680, Note_on_c, 0, 58, 30
1, 7680, Note_on_c, 0, 62, 36
1, 7908, Note_on_c, 0, 62, 0
1, 7908, Note_on_c, 0, 55, 0
1, 7908, Note_on_c, 0, 58, 0
1, 7920, Note_on_c, 0, 55, 30
1, 7920, Note_on_c, 0, 58, 30
1, 7920, Note_on_c, 0, 62, 36
1, 8148, Note_on_c, 0, 62, 0
1, 8148, Note_on_c, 0, 55, 0
1, 8148, Note_on_c, 0, 58, 0
1, 8160, Tempo, 419375
1, 8160, Note_on_c, 0, 82, 0
1, 8160, Note_on_c, 0, 70, 0
1, 8160, Note_on_c, 0, 74, 54
1, 8160, Note_on_c, 0, 86, 67
1, 8160, Note_on_c, 0, 55, 32
1, 8160, Note_on_c, 0, 58, 32
1, 8160, Note_on_c, 0, 62, 38
1, 8388, Note_on_c, 0, 62, 0
1, 8388, Note_on_c, 0, 55, 0
1, 8388, Note_on_c, 0, 58, 0
1, 8400, Note_on_c, 0, 55, 33
1, 8400, Note_on_c, 0, 58, 33
1, 8400, Note_on_c, 0, 62, 39
1, 8628, Note_on_c, 0, 62, 0
1, 8628, Note_on_c, 0, 55, 0
1, 8628, Note_on_c, 0, 58, 0
1, 8640, Tempo, 435667
1, 8640, Note_on_c, 0, 86, 0
1, 8640, Note_on_c, 0, 74, 0
1, 8640, Note_on_c, 0, 86, 69
1, 8640, Note_on_c, 0, 74, 56
1, 8640, Control_c, 0, 64, 0
1, 8640, Note_on_c, 0, 48, 50
1, 8766, Control_c, 0, 64, 127
1, 8868, Note_on_c, 0, 48, 0
1, 8880, Tempo, 389610
1, 8880, Note_on_c, 0, 60, 35
1, 8880, Note_on_c, 0, 58, 29
1, 8880, Note_on_c, 0, 55, 29
1, 9108, Note_on_c, 0, 55, 0
1, 9108, Note_on_c, 0, 60, 0
1, 9108, Note_on_c, 0, 58, 0
1, 9120, Tempo, 402685
1, 9120, Note_on_c, 0, 60, 36
1, 9120, Note_on_c, 0, 58, 30
1, 9120, Note_on_c, 0, 55, 30
1, 9348, Note_on_c, 0, 55, 0
1, 9348, Note_on_c, 0, 60, 0
1, 9348, Note_on_c, 0, 58, 0
1, 9360, Note_on_c, 0, 60, 37
1, 9360, Note_on_c, 0, 58, 31
1, 9360, Note_on_c, 0, 55, 31
1, 9588, Note_on_c, 0, 55, 0
1, 9588, Note_on_c, 0, 60, 0
1, 9588, Note_on_c, 0, 58, 0
1, 9600, Tempo, 419375
1, 9600, Note_on_c, 0, 74, 0
1, 9600, Note_on_c, 0, 86, 0
1, 9600, Note_on_c, 0, 64, 51
1, 9600, Note_on_c, 0, 76, 63
1, 9600, Note_on_c, 0, 60, 38
1, 9600, Note_on_c, 0, 58, 32
1, 9600, Note_on_c, 0, 55, 32
1, 9600, Control_c, 0, 91, 127
1, 9609, Control_c, 0, 64, 0
1, 9714, Control_c, 0, 64, 127
1, 9828, Note_on_c, 0, 55, 0
1, 9828, Note_on_c, 0, 60, 0
1, 9828, Note_on_c, 0, 58, 0
1, 9840, Tempo, 437956
1, 9840, Note_on_c, 0, 60, 39
1, 9840, Note_on_c, 0, 58, 33
1, 9840, Note_on_c, 0, 55, 33
1, 10068, Note_on_c, 0, 55, 0
1, 10068, Note_on_c, 0, 60, 0
1, 10068, Note_on_c, 0, 58, 0
1, 10080, Tempo, 449438
1, 10080, Note_on_c, 0, 76, 0
1, 10080, Note_on_c, 0, 64, 0
1, 10080, Note_on_c, 0, 77, 69
1, 10080, Note_on_c, 0, 65, 56
1, 10080, Note_on_c, 0, 53, 50
1, 10085, Control_c, 0, 64, 0
1, 10221, Control_c, 0, 64, 127
1, 10308, Note_on_c, 0, 53, 0
1, 10320, Tempo, 388350
1, 10320, Note_on_c, 0, 57, 33
1, 10320, Note_on_c, 0, 53, 28
1, 10548, Note_on_c, 0, 53, 0
1, 10548, Note_on_c, 0, 57, 0
1, 10560, Tempo, 394737
1, 10560, Note_on_c, 0, 65, 0
1, 10560, Note_on_c, 0, 77, 0
1, 10560, Note_on_c, 0, 69, 47
1, 10560, Note_on_c, 0, 81, 58
1, 10560, Note_on_c, 0, 53, 28
1, 10560, Note_on_c, 0, 57, 33
1, 10788, Note_on_c, 0, 57, 0
1, 10788, Note_on_c, 0, 53, 0
1, 10800, Note_on_c, 0, 53, 28
1, 10800, Note_on_c, 0, 57, 33
1, 11028, Note_on_c, 0, 57, 0
1, 11028, Note_on_c, 0, 53, 0
1, 11040, Tempo, 415945
1, 11040, Note_on_c, 0, 81, 0
1, 11040, Note_on_c, 0, 69, 0
1, 11040, Note_on_c, 0, 84, 58
1, 11040, Note_on_c, 0, 72, 47
1, 11040, Note_on_c, 0, 53, 28
1, 11040, Note_on_c, 0, 57, 33
1, 11268, Note_on_c, 0, 57, 0
1, 11268, Note_on_c, 0, 53, 0
1, 11280, Tempo, 444444
1, 11280, Note_on_c, 0, 53, 27
1, 11280, Note_on_c, 0, 57, 32
1, 11508, Note_on_c, 0, 57, 0
1, 11508, Note_on_c, 0, 53, 0
1, 11520, Tempo, 415945
1, 11520, Note_on_c, 0, 72, 0
1, 11520, Note_on_c, 0, 84, 0
1, 11520, Note_on_c, 0, 72, 44
1, 11520, Note_on_c, 0, 84, 54
1, 11520, Note_on_c, 0, 53, 40
1, 11527, Control_c, 0, 64, 0
1, 11647, Control_c, 0, 64, 127
1, 11748, Note_on_c, 0, 53, 0
1, 11760, Tempo, 406780
1, 11760, Note_on_c, 0, 65, 32
1, 11760, Note_on_c, 0, 60, 27
1, 11760, Note_on_c, 0, 57, 27
1, 11988, Note_on_c, 0, 57, 0
1, 11988, Note_on_c, 0, 65, 0
1, 11988, Note_on_c, 0, 60, 0
1, 12000, Tempo, 413793
1, 12000, Note_on_c, 0, 65, 32
1, 12000, Note_on_c, 0, 60, 27
1, 12000, Note_on_c, 0, 57, 27
1, 12228, Note_on_c, 0, 57, 0
1, 12228, Note_on_c, 0, 65, 0
1, 12228, Note_on_c, 0, 60, 0
1, 12240, Note_on_c, 0, 65, 33
1, 12240, Note_on_c, 0, 60, 28
1, 12240, Note_on_c, 0, 57, 28
1, 12420, Tempo, 422893
1, 12420, Note_on_c, 0, 69, 38
1, 12468, Note_on_c, 0, 57, 0
1, 12468, Note_on_c, 0, 60, 0
1, 12468, Note_on_c, 0, 65, 0
1, 12480, Tempo, 510638
1, 12480, Note_on_c, 0, 72, 0
1, 12480, Note_on_c, 0, 84, 0
1, 12480, Note_on_c, 0, 81, 45
1, 12480, Note_on_c, 0, 57, 28
1, 12480, Note_on_c, 0, 60, 28
1, 12480, Note_on_c, 0, 65, 33
1, 12708, Note_on_c, 0, 65, 0
1, 12708, Note_on_c, 0, 57, 0
1, 12708, Note_on_c, 0, 60, 0
1, 12720, Note_on_c, 0, 57, 28
1, 12720, Note_on_c, 0, 60, 28
1, 12720, Note_on_c, 0, 65, 33
1, 12900, Note_on_c, 0, 69, 0
1, 12900, Note_on_c, 0, 70, 40
1, 12948, Note_on_c, 0, 60, 0
1, 12948, Note_on_c, 0, 65, 0
1, 12948, Note_on_c, 0, 57, 0
1, 12960, Tempo, 481928
1, 12960, Note_on_c, 0, 81, 0
1, 12960, Note_on_c, 0, 82, 48
1, 12960, Note_on_c, 0, 60, 38
1, 12960, Note_on_c, 0, 48, 29
1, 12969, Control_c, 0, 64, 0
1, 13086, Control_c, 0, 64, 127
1, 13188, Note_on_c, 0, 48, 0
1, 13188, Note_on_c, 0, 60, 0
1, 13200, Tempo, 418118
1, 13200, Note_on_c, 0, 64, 29
1, 13200, Note_on_c, 0, 58, 24
1, 13380, Note_on_c, 0, 70, 0
1, 13380, Note_on_c, 0, 76, 43
1, 13428, Note_on_c, 0, 58, 0
1, 13428, Note_on_c, 0, 64, 0
1, 13440, Tempo, 389610
1, 13440, Note_on_c, 0, 82, 0
1, 13440, Note_on_c, 0, 88, 51
1, 13440, Note_on_c, 0, 58, 25
1, 13440, Note_on_c, 0, 64, 30
1, 13668, Note_on_c, 0, 64, 0
1, 13668, Note_on_c, 0, 58, 0
1, 13680, Note_on_c, 0, 58, 25
1, 13680, Note_on_c, 0, 64, 30
1, 13860, Note_on_c, 0, 76, 0
1, 13860, Note_on_c, 0, 79, 45
1, 13908, Note_on_c, 0, 64, 0
1, 13908, Note_on_c, 0, 58, 0
1, 13920, Tempo, 413793
1, 13920, Note_on_c, 0, 88, 0
1, 13920, Note_on_c, 0, 91, 54
1, 13920, Note_on_c, 0, 58, 27
1, 13920, Note_on_c, 0, 64, 32
1, 14148, Note_on_c, 0, 64, 0
1, 14148, Note_on_c, 0, 58, 0
1, 14160, Tempo, 431655
1, 14160, Note_on_c, 0, 58, 28
1, 14160, Note_on_c, 0, 64, 33
1, 14340, Note_on_c, 0, 79, 0
1, 14340, Note_on_c, 0, 79, 47
1, 14388, Note_on_c, 0, 64, 0
1, 14388, Note_on_c, 0, 58, 0
1, 14400, Tempo, 444444
1, 14400, Note_on_c, 0, 91, 0
1, 14400, Note_on_c, 0, 91, 56
1, 14400, Note_on_c, 0, 60, 42
1, 14400, Note_on_c, 0, 48, 32
1, 14407, Control_c, 0, 64, 0
1, 14526, Control_c, 0, 64, 127
1, 14628, Note_on_c, 0, 48, 0
1, 14628, Note_on_c, 0, 60, 0
1, 14640, Tempo, 397931
1, 14640, Note_on_c, 0, 64, 29
1, 14640, Note_on_c, 0, 58, 24
1, 14868, Note_on_c, 0, 58, 0
1, 14868, Note_on_c, 0, 64, 0
1, 14880, Tempo, 408163
1, 14880, Note_on_c, 0, 64, 30
1, 14880, Note_on_c, 0, 58, 25
1, 15108, Note_on_c, 0, 58, 0
1, 15108, Note_on_c, 0, 64, 0
1, 15120, Note_on_c, 0, 64, 31
1, 15120, Note_on_c, 0, 58, 26
1, 15348, Note_on_c, 0, 58, 0
1, 15348, Note_on_c, 0, 64, 0
1, 15360, Tempo, 427046
1, 15360, Note_on_c, 0, 91, 0
1, 15360, Note_on_c, 0, 79, 0
1, 15360, Note_on_c, 0, 68, 43
1, 15360, Note_on_c, 0, 80, 51
1, 15360, Note_on_c, 0, 64, 32
1, 15360, Note_on_c, 0, 58, 27
1, 15360, Control_c, 0, 91, 127
1, 15370, Control_c, 0, 64, 0
1, 15474, Control_c, 0, 64, 127
1, 15588, Note_on_c, 0, 58, 0
1, 15588, Note_on_c, 0, 64, 0
1, 15600, Tempo, 437956
1, 15600, Note_on_c, 0, 64, 33
1, 15600, Note_on_c, 0, 58, 28
1, 15828, Note_on_c, 0, 58, 0
1, 15828, Note_on_c, 0, 64, 0
1, 15840, Tempo, 449438
1, 15840, Note_on_c, 0, 80, 0
1, 15840, Note_on_c, 0, 68, 0
1, 15840, Note_on_c, 0, 81, 53
1, 15840, Note_on_c, 0, 69, 44
1, 15840, Note_on_c, 0, 65, 37
1, 15840, Note_on_c, 0, 53, 30
1, 15848, Control_c, 0, 64, 0
1, 15981, Control_c, 0, 64, 127
1, 16068, Note_on_c, 0, 53, 0
1, 16068, Note_on_c, 0, 65, 0
1, 16080, Tempo, 383387
1, 16080, Note_on_c, 0, 60, 29
1, 16080, Note_on_c, 0, 57, 24
1, 16308, Note_on_c, 0, 57, 0
1, 16308, Note_on_c, 0, 60, 0
1, 16320, Tempo, 398671
1, 16320, Note_on_c, 0, 69, 0
1, 16320, Note_on_c, 0, 81, 0
1, 16320, Note_on_c, 0, 72, 43
1, 16320, Note_on_c, 0, 84, 51
1, 16320, Note_on_c, 0, 57, 25
1, 16320, Note_on_c, 0, 60, 30
1, 16548, Note_on_c, 0, 60, 0
1, 16548, Note_on_c, 0, 57, 0
1, 16560, Note_on_c, 0, 57, 26
1, 16560, Note_on_c, 0, 60, 31
1, 16788, Note_on_c, 0, 60, 0
1, 16788, Note_on_c, 0, 57, 0
1, 16800, Tempo, 424028
1, 16800, Note_on_c, 0, 84, 0
1, 16800, Note_on_c, 0, 72, 0
1, 16800, Note_on_c, 0, 89, 55
1, 16800, Note_on_c, 0, 77, 46
1, 16800, Note_on_c, 0, 57, 27
1, 16800, Note_on_c, 0, 60, 32
1, 17028, Note_on_c, 0, 60, 0
1, 17028, Note_on_c, 0, 57, 0
1, 17040, Tempo, 439560
1, 17040, Note_on_c, 0, 57, 28
1, 17040, Note_on_c, 0, 60, 33
1, 17268, Note_on_c, 0, 60, 0
1, 17268, Note_on_c, 0, 57, 0
1, 17280, Tempo, 415945
1, 17280, Note_on_c, 0, 77, 0
1, 17280, Note_on_c, 0, 89, 0
1, 17280, Note_on_c, 0, 77, 46
1, 17280, Note_on_c, 0, 89, 55
1, 17280, Note_on_c, 0, 57, 42
1, 17280, Control_c, 0, 64, 0
1, 17280, Note_on_c, 0, 45, 35
1, 17407, Control_c, 0, 64, 127
1, 17508, Note_on_c, 0, 45, 0
1, 17508, Note_on_c, 0, 57, 0
1, 17520, Tempo, 397931
1, 17520, Note_on_c, 0, 60, 34
1, 17520, Note_on_c, 0, 53, 28
1, 17748, Note_on_c, 0, 53, 0
1, 17748, Note_on_c, 0, 60, 0
1, 17760, Tempo, 405405
1, 17760, Note_on_c, 0, 60, 34
1, 17760, Note_on_c, 0, 53, 28
1, 17988, Note_on_c, 0, 53, 0
1, 17988, Note_on_c, 0, 60, 0
1, 18000, Note_on_c, 0, 60, 35
1, 18000, Note_on_c, 0, 53, 29
1, 18200, Tempo, 412541
1, 18228, Note_on_c, 0, 53, 0
1, 18228, Note_on_c, 0, 60, 0
1, 18240, Tempo, 430108
1, 18240, Note_on_c, 0, 89, 0
1, 18240, Note_on_c, 0, 77, 0
1, 18240, Note_on_c, 0, 78, 45
1, 18240, Note_on_c, 0, 66, 38
1, 18240, Note_on_c, 0, 51, 29
1, 18240, Note_on_c, 0, 60, 35
1, 18251, Control_c, 0, 64, 0
1, 18331, Control_c, 0, 64, 127
1, 18468, Note_on_c, 0, 60, 0
1, 18468, Note_on_c, 0, 51, 0
1, 18480, Tempo, 451128
1, 18480, Note_on_c, 0, 51, 29
1, 18480, Note_on_c, 0, 60, 35
1, 18708, Note_on_c, 0, 60, 0
1, 18708, Note_on_c, 0, 51, 0
1, 18720, Tempo, 436364
1, 18720, Note_on_c, 0, 66, 0
1, 18720, Note_on_c, 0, 78, 0
1, 18720, Note_on_c, 0, 67, 40
1, 18720, Note_on_c, 0, 79, 48
1, 18720, Note_on_c, 0, 58, 38
1, 18720, Note_on_c, 0, 46, 32
1, 18730, Control_c, 0, 64, 0
1, 18808, Control_c, 0, 64, 127
1, 18948, Note_on_c, 0, 46, 0
1, 18948, Note_on_c, 0, 58, 0
1, 18960, Tempo, 388350
1, 18960, Note_on_c, 0, 62, 29
1, 18960, Note_on_c, 0, 55, 24
1, 18960, Note_on_c, 0, 50, 24
1, 19188, Note_on_c, 0, 50, 0
1, 19188, Note_on_c, 0, 62, 0
1, 19188, Note_on_c, 0, 55, 0
1, 19200, Tempo, 401338
1, 19200, Note_on_c, 0, 79, 0
1, 19200, Note_on_c, 0, 67, 0
1, 19200, Note_on_c, 0, 70, 43
1, 19200, Note_on_c, 0, 82, 51
1, 19200, Note_on_c, 0, 50, 25
1, 19200, Note_on_c, 0, 55, 25
1, 19200, Note_on_c, 0, 62, 30
1, 19428, Note_on_c, 0, 62, 0
1, 19428, Note_on_c, 0, 50, 0
1, 19428, Note_on_c, 0, 55, 0
1, 19440, Note_on_c, 0, 50, 25
1, 19440, Note_on_c, 0, 55, 25
1, 19440, Note_on_c, 0, 62, 30
1, 19668, Note_on_c, 0, 62, 0
1, 19668, Note_on_c, 0, 50, 0
1, 19668, Note_on_c, 0, 55, 0
1, 19680, Tempo, 419375
1, 19680, Note_on_c, 0, 82, 0
1, 19680, Note_on_c, 0, 70, 0
1, 19680, Note_on_c, 0, 74, 45
1, 19680, Note_on_c, 0, 86, 54
1, 19680, Note_on_c, 0, 50, 27
1, 19680, Note_on_c, 0, 55, 27
1, 19680, Note_on_c, 0, 62, 32
1, 19908, Note_on_c, 0, 62, 0
1, 19908, Note_on_c, 0, 50, 0
1, 19908, Note_on_c, 0, 55, 0
1, 19920, Note_on_c, 0, 50, 28
1, 19920, Note_on_c, 0, 55, 28
1, 19920, Note_on_c, 0, 62, 33
1, 20148, Note_on_c, 0, 62, 0
1, 20148, Note_on_c, 0, 50, 0
1, 20148, Note_on_c, 0, 55, 0
1, 20160, Tempo, 435667
1, 20160, Note_on_c, 0, 86, 0
1, 20160, Note_on_c, 0, 74, 0
1, 20160, Note_on_c, 0, 86, 56
1, 20160, Note_on_c, 0, 74, 47
1, 20160, Note_on_c, 0, 60, 42
1, 20160, Control_c, 0, 64, 0
1, 20160, Note_on_c, 0, 48, 35
1, 20286, Control_c, 0, 64, 127
1, 20388, Note_on_c, 0, 48, 0
1, 20388, Note_on_c, 0, 60, 0
1, 20400, Tempo, 388350
1, 20400, Note_on_c, 0, 64, 29
1, 20400, Note_on_c, 0, 58, 24
1, 20400, Note_on_c, 0, 55, 24
1, 20628, Note_on_c, 0, 55, 0
1, 20628, Note_on_c, 0, 64, 0
1, 20628, Note_on_c, 0, 58, 0
1, 20640, Tempo, 400000
1, 20640, Note_on_c, 0, 64, 30
1, 20640, Note_on_c, 0, 58, 25
1, 20640, Note_on_c, 0, 55, 25
1, 20868, Note_on_c, 0, 55, 0
1, 20868, Note_on_c, 0, 64, 0
1, 20868, Note_on_c, 0, 58, 0
1, 20880, Note_on_c, 0, 64, 31
1, 20880, Note_on_c, 0, 58, 26
1, 20880, Note_on_c, 0, 55, 26
1, 21108, Note_on_c, 0, 55, 0
1, 21108, Note_on_c, 0, 64, 0
1, 21108, Note_on_c, 0, 58, 0
1, 21120, Tempo, 419375
1, 21120, Note_on_c, 0, 74, 0
1, 21120, Note_on_c, 0, 86, 0
1, 21120, Note_on_c, 0, 64, 43
1, 21120, Note_on_c, 0, 76, 51
1, 21120, Note_on_c, 0, 60, 32
1, 21120, Note_on_c, 0, 58, 27
1, 21120, Note_on_c, 0, 55, 27
1, 21120, Control_c, 0, 91, 127
1, 21131, Control_c, 0, 64, 0
1, 21234, Control_c, 0, 64, 127
1, 21348, Note_on_c, 0, 55, 0
1, 21348, Note_on_c, 0, 60, 0
1, 21348, Note_on_c, 0, 58, 0
1, 21360, Tempo, 431655
1, 21360, Note_on_c, 0, 60, 33
1, 21360, Note_on_c, 0, 58, 28
1, 21360, Note_on_c, 0, 55, 28
1, 21588, Note_on_c, 0, 55, 0
1, 21588, Note_on_c, 0, 60, 0
1, 21588, Note_on_c, 0, 58, 0
1, 21600, Tempo, 435667
1, 21600, Note_on_c, 0, 76, 0
1, 21600, Note_on_c, 0, 64, 0
1, 21600, Note_on_c, 0, 77, 56
1, 21600, Note_on_c, 0, 65, 47
1, 21600, Note_on_c, 0, 41, 37
1, 21600, Note_on_c, 0, 53, 42
1, 21610, Control_c, 0, 64, 0
1, 21741, Control_c, 0, 64, 127
1, 21828, Note_on_c, 0, 53, 0
1, 21828, Note_on_c, 0, 41, 0
1, 21840, Tempo, 396354
1, 21840, Note_on_c, 0, 48, 23
1, 21840, Note_on_c, 0, 60, 28
1, 21840, Note_on_c, 0, 57, 23
1, 22068, Note_on_c, 0, 57, 0
1, 22068, Note_on_c, 0, 48, 0
1, 22068, Note_on_c, 0, 60, 0
1, 22080, Tempo, 410959
1, 22080, Note_on_c, 0, 65, 0
1, 22080, Note_on_c, 0, 77, 0
1, 22080, Note_on_c, 0, 69, 39
1, 22080, Note_on_c, 0, 81, 47
1, 22080, Note_on_c, 0, 48, 23
1, 22080, Note_on_c, 0, 57, 23
1, 22080, Note_on_c, 0, 60, 28
1, 22308, Note_on_c, 0, 60, 0
1, 22308, Note_on_c, 0, 48, 0
1, 22308, Note_on_c, 0, 57, 0
1, 22320, Note_on_c, 0, 48, 23
1, 22320, Note_on_c, 0, 57, 23
1, 22320, Note_on_c, 0, 60, 28
1, 22548, Note_on_c, 0, 60, 0
1, 22548, Note_on_c, 0, 48, 0
1, 22548, Note_on_c, 0, 57, 0
1, 22560, Tempo, 415945
1, 22560, Note_on_c, 0, 81, 0
1, 22560, Note_on_c, 0, 69, 0
1, 22560, Note_on_c, 0, 84, 47
1, 22560, Note_on_c, 0, 72, 39
1, 22560, Note_on_c, 0, 48, 23
1, 22560, Note_on_c, 0, 57, 23
1, 22560, Note_on_c, 0, 60, 28
1, 22788, Note_on_c, 0, 60, 0
1, 22788, Note_on_c, 0, 48, 0
1, 22788, Note_on_c, 0, 57, 0
1, 22800, Tempo, 444444
1, 22800, Note_on_c, 0, 48, 22
1, 22800, Note_on_c, 0, 57, 22
1, 22800, Note_on_c, 0, 60, 27
1, 23028, Note_on_c, 0, 60, 0
1, 23028, Note_on_c, 0, 48, 0
1, 23028, Note_on_c, 0, 57, 0
1, 23040, Tempo, 415945
1, 23040, Note_on_c, 0, 72, 0
1, 23040, Note_on_c, 0, 84, 0
1, 23040, Note_on_c, 0, 72, 37
1, 23040, Note_on_c, 0, 84, 44
1, 23040, Note_on_c, 0, 41, 26
1, 23040, Note_on_c, 0, 53, 34
1, 23051, Control_c, 0, 64, 0
1, 23167, Control_c, 0, 64, 127
1, 23268, Note_on_c, 0, 53, 0
1, 23268, Note_on_c, 0, 41, 0
1, 23280, Tempo, 406780
1, 23280, Note_on_c, 0, 65, 27
1, 23280, Note_on_c, 0, 60, 22
1, 23280, Note_on_c, 0, 57, 22
1, 23508, Note_on_c, 0, 57, 0
1, 23508, Note_on_c, 0, 65, 0
1, 23508, Note_on_c, 0, 60, 0
1, 23520, Tempo, 413793
1, 23520, Note_on_c, 0, 65, 27
1, 23520, Note_on_c, 0, 60, 22
1, 23520, Note_on_c, 0, 57, 22
1, 23748, Note_on_c, 0, 57, 0
1, 23748, Note_on_c, 0, 65, 0
1, 23748, Note_on_c, 0, 60, 0
1, 23760, Note_on_c, 0, 65, 28
1, 23760, Note_on_c, 0, 60, 23
1, 23760, Note_on_c, 0, 57, 23
1, 23960, Tempo, 412541
1, 23988, Note_on_c, 0, 57, 0
1, 23988, Note_on_c, 0, 65, 0
1, 23988, Note_on_c, 0, 60, 0
1, 24000, Tempo, 424028
1, 24000, Note_on_c, 0, 84, 0
1, 24000, Note_on_c, 0, 72, 0
1, 24000, Note_on_c, 0, 79, 53
1, 24000, Note_on_c, 0, 91, 66
1, 24000, Note_on_c, 0, 65, 38
1, 24000, Note_on_c, 0, 59, 32
1, 24000, Note_on_c, 0, 55, 32
1, 24000, Control_c, 0, 91, 127
1, 24010, Control_c, 0, 64, 0
1, 24114, Control_c, 0, 64, 127
1, 24228, Note_on_c, 0, 55, 0
1, 24228, Note_on_c, 0, 65, 0
1, 24228, Note_on_c, 0, 59, 0
1, 24240, Tempo, 439560
1, 24240, Note_on_c, 0, 65, 39
1, 24240, Note_on_c, 0, 59, 33
1, 24240, Note_on_c, 0, 55, 33
1, 24468, Note_on_c, 0, 55, 0
1, 24468, Note_on_c, 0, 65, 0
1, 24468, Note_on_c, 0, 59, 0
1, 24480, Tempo, 454545
1, 24480, Note_on_c, 0, 91, 0
1, 24480, Note_on_c, 0, 79, 0
1, 24480, Note_on_c, 0, 91, 72
1, 24480, Note_on_c, 0, 79, 58
1, 24480, Control_c, 0, 64, 0
1, 24480, Note_on_c, 0, 48, 50
1, 24621, Control_c, 0, 64, 127
1, 24708, Note_on_c, 0, 48, 0
1, 24720, Tempo, 382166
1, 24720, Note_on_c, 0, 64, 38
1, 24720, Note_on_c, 0, 60, 31
1, 24720, Note_on_c, 0, 55, 31
1, 24948, Note_on_c, 0, 55, 0
1, 24948, Note_on_c, 0, 64, 0
1, 24948, Note_on_c, 0, 60, 0
1, 24960, Tempo, 393443
1, 24960, Note_on_c, 0, 79, 0
1, 24960, Note_on_c, 0, 91, 0
1, 24960, Note_on_c, 0, 76, 53
1, 24960, Note_on_c, 0, 88, 66
1, 24960, Note_on_c, 0, 55, 33
1, 24960, Note_on_c, 0, 60, 33
1, 24960, Note_on_c, 0, 64, 39
1, 25188, Note_on_c, 0, 64, 0
1, 25188, Note_on_c, 0, 55, 0
1, 25188, Note_on_c, 0, 60, 0
1, 25200, Note_on_c, 0, 55, 34
1, 25200, Note_on_c, 0, 60, 34
1, 25200, Note_on_c, 0, 64, 40
1, 25428, Note_on_c, 0, 64, 0
1, 25428, Note_on_c, 0, 55, 0
1, 25428, Note_on_c, 0, 60, 0
1, 25440, Tempo, 415945
1, 25440, Note_on_c, 0, 88, 0
1, 25440, Note_on_c, 0, 76, 0
1, 25440, Note_on_c, 0, 82, 68
1, 25440, Note_on_c, 0, 70, 55
1, 25440, Note_on_c, 0, 55, 35
1, 25440, Note_on_c, 0, 60, 35
1, 25440, Note_on_c, 0, 64, 41
1, 25668, Note_on_c, 0, 64, 0
1, 25668, Note_on_c, 0, 55, 0
1, 25668, Note_on_c, 0, 60, 0
1, 25680, Tempo, 431934
1, 25680, Note_on_c, 0, 55, 36
1, 25680, Note_on_c, 0, 60, 36
1, 25680, Note_on_c, 0, 64, 42
1, 25908, Note_on_c, 0, 64, 0
1, 25908, Note_on_c, 0, 55, 0
1, 25908, Note_on_c, 0, 60, 0
1, 25920, Tempo, 415945
1, 25920, Note_on_c, 0, 70, 0
1, 25920, Note_on_c, 0, 82, 0
1, 25920, Note_on_c, 0, 69, 55
1, 25920, Note_on_c, 0, 81, 69
1, 25920, Note_on_c, 0, 49, 55
1, 25930, Control_c, 0, 64, 0
1, 26047, Control_c, 0, 64, 127
1, 26148, Note_on_c, 0, 49, 0
1, 26160, Tempo, 384615
1, 26160, Note_on_c, 0, 67, 45
1, 26160, Note_on_c, 0, 64, 37
1, 26160, Note_on_c, 0, 57, 37
1, 26388, Note_on_c, 0, 57, 0
1, 26388, Note_on_c, 0, 67, 0
1, 26388, Note_on_c, 0, 64, 0
1, 26400, Tempo, 402685
1, 26400, Note_on_c, 0, 67, 45
1, 26400, Note_on_c, 0, 64, 37
1, 26400, Note_on_c, 0, 57, 37
1, 26628, Note_on_c, 0, 57, 0
1, 26628, Note_on_c, 0, 67, 0
1, 26628, Note_on_c, 0, 64, 0
1, 26640, Note_on_c, 0, 67, 46
1, 26640, Note_on_c, 0, 64, 38
1, 26640, Note_on_c, 0, 57, 38
1, 26840, Tempo, 412541
1, 26868, Note_on_c, 0, 57, 0
1, 26868, Note_on_c, 0, 67, 0
1, 26868, Note_on_c, 0, 64, 0
1, 26880, Tempo, 424028
1, 26880, Note_on_c, 0, 81, 0
1, 26880, Note_on_c, 0, 69, 0
1, 26880, Note_on_c, 0, 81, 55
1, 26880, Note_on_c, 0, 93, 69
1, 26880, Note_on_c, 0, 67, 41
1, 26880, Note_on_c, 0, 64, 35
1, 26880, Note_on_c, 0, 57, 35
1, 26880, Control_c, 0, 91, 127
1, 26890, Control_c, 0, 64, 0
1, 26994, Control_c, 0, 64, 127
1, 27108, Note_on_c, 0, 57, 0
1, 27108, Note_on_c, 0, 67, 0
1, 27108, Note_on_c, 0, 64, 0
1, 27120, Tempo, 437956
1, 27120, Note_on_c, 0, 67, 42
1, 27120, Note_on_c, 0, 64, 36
1, 27120, Note_on_c, 0, 57, 36
1, 27348, Note_on_c, 0, 57, 0
1, 27348, Note_on_c, 0, 67, 0
1, 27348, Note_on_c, 0, 64, 0
1, 27360, Tempo, 415225
1, 27360, Note_on_c, 0, 93, 0
1, 27360, Note_on_c, 0, 81, 0
1, 27360, Note_on_c, 0, 93, 75
1, 27360, Note_on_c, 0, 81, 60
1, 27360, Note_on_c, 0, 50, 55
1, 27369, Control_c, 0, 64, 0
1, 27501, Control_c, 0, 64, 127
1, 27588, Note_on_c, 0, 50, 0
1, 27600, Tempo, 380952
1, 27600, Note_on_c, 0, 65, 41
1, 27600, Note_on_c, 0, 62, 34
1, 27600, Note_on_c, 0, 57, 34
1, 27828, Note_on_c, 0, 57, 0
1, 27828, Note_on_c, 0, 65, 0
1, 27828, Note_on_c, 0, 62, 0
1, 27840, Tempo, 394737
1, 27840, Note_on_c, 0, 81, 0
1, 27840, Note_on_c, 0, 93, 0
1, 27840, Note_on_c, 0, 77, 55
1, 27840, Note_on_c, 0, 89, 69
1, 27840, Note_on_c, 0, 57, 36
1, 27840, Note_on_c, 0, 62, 36
1, 27840, Note_on_c, 0, 65, 42
1, 28068, Note_on_c, 0, 65, 0
1, 28068, Note_on_c, 0, 57, 0
1, 28068, Note_on_c, 0, 62, 0
1, 28080, Note_on_c, 0, 57, 37
1, 28080, Note_on_c, 0, 62, 37
1, 28080, Note_on_c, 0, 65, 44
1, 28308, Note_on_c, 0, 65, 0
1, 28308, Note_on_c, 0, 57, 0
1, 28308, Note_on_c, 0, 62, 0
1, 28320, Tempo, 415945
1, 28320, Note_on_c, 0, 89, 0
1, 28320, Note_on_c, 0, 77, 0
1, 28320, Note_on_c, 0, 86, 74
1, 28320, Note_on_c, 0, 74, 59
1, 28320, Note_on_c, 0, 57, 38
1, 28320, Note_on_c, 0, 62, 38
1, 28320, Note_on_c, 0, 65, 45
1, 28548, Note_on_c, 0, 65, 0
1, 28548, Note_on_c, 0, 57, 0
1, 28548, Note_on_c, 0, 62, 0
1, 28560, Tempo, 431934
1, 28560, Note_on_c, 0, 57, 39
1, 28560, Note_on_c, 0, 62, 39
1, 28560, Note_on_c, 0, 65, 46
1, 28788, Note_on_c, 0, 65, 0
1, 28788, Note_on_c, 0, 57, 0
1, 28788, Note_on_c, 0, 62, 0
1, 28800, Tempo, 408163
1, 28800, Note_on_c, 0, 74, 0
1, 28800, Note_on_c, 0, 86, 0
1, 28800, Note_on_c, 0, 72, 57
1, 28800, Note_on_c, 0, 84, 72
1, 28800, Note_on_c, 0, 52, 55
1, 28803, Control_c, 0, 64, 0
1, 28927, Control_c, 0, 64, 127
1, 29028, Note_on_c, 0, 52, 0
1, 29040, Tempo, 387097
1, 29040, Note_on_c, 0, 67, 49
1, 29040, Note_on_c, 0, 60, 40
1, 29040, Note_on_c, 0, 58, 40
1, 29268, Note_on_c, 0, 58, 0
1, 29268, Note_on_c, 0, 67, 0
1, 29268, Note_on_c, 0, 60, 0
1, 29280, Tempo, 404040
1, 29280, Note_on_c, 0, 67, 49
1, 29280, Note_on_c, 0, 60, 40
1, 29280, Note_on_c, 0, 58, 40
1, 29508, Note_on_c, 0, 58, 0
1, 29508, Note_on_c, 0, 67, 0
1, 29508, Note_on_c, 0, 60, 0
1, 29520, Note_on_c, 0, 67, 51
1, 29520, Note_on_c, 0, 60, 42
1, 29520, Note_on_c, 0, 58, 42
1, 29720, Tempo, 412541
1, 29748, Note_on_c, 0, 58, 0
1, 29748, Note_on_c, 0, 67, 0
1, 29748, Note_on_c, 0, 60, 0
1, 29760, Tempo, 446097
1, 29760, Note_on_c, 0, 84, 0
1, 29760, Note_on_c, 0, 72, 0
1, 29760, Note_on_c, 0, 84, 57
1, 29760, Note_on_c, 0, 96, 72
1, 29760, Note_on_c, 0, 67, 46
1, 29760, Note_on_c, 0, 60, 39
1, 29760, Note_on_c, 0, 58, 39
1, 29760, Control_c, 0, 91, 127
1, 29773, Control_c, 0, 64, 0
1, 29874, Control_c, 0, 64, 127
1, 29988, Note_on_c, 0, 58, 0
1, 29988, Note_on_c, 0, 67, 0
1, 29988, Note_on_c, 0, 60, 0
1, 30000, Tempo, 425532
1, 30000, Note_on_c, 0, 67, 49
1, 30000, Note_on_c, 0, 60, 40
1, 30000, Note_on_c, 0, 58, 40
1, 30228, Note_on_c, 0, 58, 0
1, 30228, Note_on_c, 0, 67, 0
1, 30228, Note_on_c, 0, 60, 0
1, 30240, Tempo, 435667
1, 30240, Note_on_c, 0, 96, 0
1, 30240, Note_on_c, 0, 84, 0
1, 30240, Note_on_c, 0, 96, 79
1, 30240, Note_on_c, 0, 84, 64
1, 30240, Note_on_c, 0, 53, 58
1, 30247, Control_c, 0, 64, 0
1, 30381, Control_c, 0, 64, 127
1, 30468, Note_on_c, 0, 53, 0
1, 30480, Tempo, 387097
1, 30480, Note_on_c, 0, 65, 44
1, 30480, Note_on_c, 0, 60, 37
1, 30480, Note_on_c, 0, 57, 37
1, 30708, Note_on_c, 0, 57, 0
1, 30708, Note_on_c, 0, 65, 0
1, 30708, Note_on_c, 0, 60, 0
1, 30720, Tempo, 400000
1, 30720, Note_on_c, 0, 84, 0
1, 30720, Note_on_c, 0, 96, 0
1, 30720, Note_on_c, 0, 81, 60
1, 30720, Note_on_c, 0, 93, 75
1, 30720, Note_on_c, 0, 57, 39
1, 30720, Note_on_c, 0, 60, 39
1, 30720, Note_on_c, 0, 65, 46
1, 30948, Note_on_c, 0, 65, 0
1, 30948, Note_on_c, 0, 57, 0
1, 30948, Note_on_c, 0, 60, 0
1, 30960, Note_on_c, 0, 57, 40
1, 30960, Note_on_c, 0, 60, 40
1, 30960, Note_on_c, 0, 65, 49
1, 31188, Note_on_c, 0, 65, 0
1, 31188, Note_on_c, 0, 57, 0
1, 31188, Note_on_c, 0, 60, 0
1, 31200, Tempo, 415945
1, 31200, Note_on_c, 0, 93, 0
1, 31200, Note_on_c, 0, 81, 0
1, 31200, Note_on_c, 0, 89, 77
1, 31200, Note_on_c, 0, 77, 63
1, 31200, Note_on_c, 0, 57, 41
1, 31200, Note_on_c, 0, 60, 41
1, 31200, Note_on_c, 0, 65, 50
1, 31428, Note_on_c, 0, 65, 0
1, 31428, Note_on_c, 0, 57, 0
1, 31428, Note_on_c, 0, 60, 0
1, 31440, Tempo, 431934
1, 31440, Note_on_c, 0, 57, 44
1, 31440, Note_on_c, 0, 60, 44
1, 31440, Note_on_c, 0, 65, 52
1, 31668, Note_on_c, 0, 65, 0
1, 31668, Note_on_c, 0, 57, 0
1, 31668, Note_on_c, 0, 60, 0
1, 31680, Tempo, 415945
1, 31680, Note_on_c, 0, 77, 0
1, 31680, Note_on_c, 0, 89, 0
1, 31680, Note_on_c, 0, 74, 67
1, 31680, Note_on_c, 0, 86, 83
1, 31680, Note_on_c, 0, 47, 62
1, 31685, Control_c, 0, 64, 0
1, 31807, Control_c, 0, 64, 127
1, 31908, Note_on_c, 0, 47, 0
1, 31920, Tempo, 397931
1, 31920, Note_on_c, 0, 65, 51
1, 31920, Note_on_c, 0, 62, 42
1, 31920, Note_on_c, 0, 55, 42
1, 32148, Note_on_c, 0, 55, 0
1, 32148, Note_on_c, 0, 65, 0
1, 32148, Note_on_c, 0, 62, 0
1, 32160, Tempo, 412371
1, 32160, Note_on_c, 0, 65, 51
1, 32160, Note_on_c, 0, 62, 42
1, 32160, Note_on_c, 0, 55, 42
1, 32388, Note_on_c, 0, 55, 0
1, 32388, Note_on_c, 0, 65, 0
1, 32388, Note_on_c, 0, 62, 0
1, 32400, Note_on_c, 0, 65, 52
1, 32400, Note_on_c, 0, 62, 44
1, 32400, Note_on_c, 0, 55, 44
1, 32600, Tempo, 412541
1, 32628, Note_on_c, 0, 55, 0
1, 32628, Note_on_c, 0, 65, 0
1, 32628, Note_on_c, 0, 62, 0
1, 32640, Tempo, 489796
1, 32640, Note_on_c, 0, 86, 0
1, 32640, Note_on_c, 0, 74, 0
1, 32640, Note_on_c, 0, 86, 55
1, 32640, Note_on_c, 0, 98, 68
1, 32640, Note_on_c, 0, 65, 45
1, 32640, Note_on_c, 0, 62, 38
1, 32640, Note_on_c, 0, 55, 38
1, 32640, Control_c, 0, 91, 127
1, 32651, Control_c, 0, 64, 0
1, 32754, Control_c, 0, 64, 127
1, 32868, Note_on_c, 0, 55, 0
1, 32868, Note_on_c, 0, 65, 0
1, 32868, Note_on_c, 0, 62, 0
1, 32880, Tempo, 446097
1, 32880, Note_on_c, 0, 65, 39
1, 32880, Note_on_c, 0, 62, 33
1, 32880, Note_on_c, 0, 55, 33
1, 33108, Note_on_c, 0, 55, 0
1, 33108, Note_on_c, 0, 65, 0
1, 33108, Note_on_c, 0, 62, 0
1, 33120, Tempo, 465116
1, 33120, Note_on_c, 0, 98, 0
1, 33120, Note_on_c, 0, 86, 0
1, 33120, Note_on_c, 0, 98, 73
1, 33120, Note_on_c, 0, 86, 59
1, 33120, Note_on_c, 0, 48, 45
1, 33123, Control_c, 0, 64, 0
1, 33261, Control_c, 0, 64, 127
1, 33348, Note_on_c, 0, 48, 0
1, 33360, Tempo, 396354
1, 33360, Note_on_c, 0, 62, 35
1, 33360, Note_on_c, 0, 58, 29
1, 33588, Note_on_c, 0, 58, 0
1, 33588, Note_on_c, 0, 62, 0
1, 33600, Tempo, 409556
1, 33600, Note_on_c, 0, 86, 0
1, 33600, Note_on_c, 0, 98, 0
1, 33600, Note_on_c, 0, 82, 52
1, 33600, Note_on_c, 0, 94, 65
1, 33600, Note_on_c, 0, 58, 29
1, 33600, Note_on_c, 0, 62, 35
1, 33828, Note_on_c, 0, 62, 0
1, 33828, Note_on_c, 0, 58, 0
1, 33840, Note_on_c, 0, 58, 30
1, 33840, Note_on_c, 0, 62, 36
1, 34068, Note_on_c, 0, 62, 0
1, 34068, Note_on_c, 0, 58, 0
1, 34080, Tempo, 422535
1, 34080, Note_on_c, 0, 94, 0
1, 34080, Note_on_c, 0, 82, 0
1, 34080, Note_on_c, 0, 91, 69
1, 34080, Note_on_c, 0, 79, 55
1, 34080, Note_on_c, 0, 58, 30
1, 34080, Note_on_c, 0, 64, 37
1, 34308, Note_on_c, 0, 64, 0
1, 34308, Note_on_c, 0, 58, 0
1, 34320, Tempo, 447761
1, 34320, Note_on_c, 0, 58, 31
1, 34320, Note_on_c, 0, 64, 37
1, 34548, Note_on_c, 0, 64, 0
1, 34548, Note_on_c, 0, 58, 0
1, 34560, Tempo, 415945
1, 34560, Note_on_c, 0, 79, 0
1, 34560, Note_on_c, 0, 91, 0
1, 34560, Note_on_c, 0, 77, 52
1, 34560, Note_on_c, 0, 89, 65
1, 34560, Note_on_c, 0, 41, 47
1, 34568, Control_c, 0, 64, 0
1, 34687, Control_c, 0, 64, 127
1, 34788, Note_on_c, 0, 41, 0
1, 34800, Tempo, 397931
1, 34800, Note_on_c, 0, 65, 34
1, 34800, Note_on_c, 0, 60, 28
1, 34800, Note_on_c, 0, 57, 28
1, 35028, Note_on_c, 0, 57, 0
1, 35028, Note_on_c, 0, 65, 0
1, 35028, Note_on_c, 0, 60, 0
1, 35040, Tempo, 412371
1, 35040, Note_on_c, 0, 65, 34
1, 35040, Note_on_c, 0, 60, 28
1, 35040, Note_on_c, 0, 57, 28
1, 35268, Note_on_c, 0, 57, 0
1, 35268, Note_on_c, 0, 65, 0
1, 35268, Note_on_c, 0, 60, 0
1, 35280, Note_on_c, 0, 65, 35
1, 35280, Note_on_c, 0, 60, 29
1, 35280, Note_on_c, 0, 57, 29
1, 35460, Note_on_c, 0, 79, 44
1, 35480, Tempo, 412541
1, 35508, Note_on_c, 0, 57, 0
1, 35508, Note_on_c, 0, 60, 0
1, 35508, Note_on_c, 0, 65, 0
1, 35520, Tempo, 456274
1, 35520, Note_on_c, 0, 77, 0
1, 35520, Note_on_c, 0, 89, 0
1, 35520, Note_on_c, 0, 91, 49
1, 35520, Note_on_c, 0, 65, 27
1, 35520, Note_on_c, 0, 59, 22
1, 35520, Note_on_c, 0, 55, 22
1, 35520, Control_c, 0, 91, 127
1, 35530, Control_c, 0, 64, 0
1, 35634, Control_c, 0, 64, 127
1, 35748, Note_on_c, 0, 55, 0
1, 35748, Note_on_c, 0, 65, 0
1, 35748, Note_on_c, 0, 59, 0
1, 35760, Tempo, 526316
1, 35760, Note_on_c, 0, 65, 27
1, 35760, Note_on_c, 0, 59, 23
1, 35760, Note_on_c, 0, 55, 23
1, 35940, Note_on_c, 0, 79, 0
1, 35940, Note_on_c, 0, 79, 43
1, 35988, Note_on_c, 0, 59, 0
1, 35988, Note_on_c, 0, 55, 0
1, 35988, Note_on_c, 0, 65, 0
1, 36000, Tempo, 449438
1, 36000, Note_on_c, 0, 91, 0
1, 36000, Note_on_c, 0, 91, 54
1, 36000, Note_on_c, 0, 48, 31
1, 36000, Note_on_c, 0, 60, 36
1, 36009, Control_c, 0, 64, 0
1, 36141, Control_c, 0, 64, 127
1, 36228, Note_on_c, 0, 60, 0
1, 36228, Note_on_c, 0, 48, 0
1, 36240, Tempo, 418118
1, 36240, Note_on_c, 0, 64, 25
1, 36240, Note_on_c, 0, 55, 20
1, 36420, Note_on_c, 0, 79, 0
1, 36420, Note_on_c, 0, 76, 39
1, 36468, Note_on_c, 0, 55, 0
1, 36468, Note_on_c, 0, 64, 0
1, 36480, Tempo, 393443
1, 36480, Note_on_c, 0, 91, 0
1, 36480, Note_on_c, 0, 88, 49
1, 36480, Note_on_c, 0, 55, 21
1, 36480, Note_on_c, 0, 64, 25
1, 36708, Note_on_c, 0, 64, 0
1, 36708, Note_on_c, 0, 55, 0
1, 36720, Note_on_c, 0, 55, 21
1, 36720, Note_on_c, 0, 64, 26
1, 36900, Note_on_c, 0, 76, 0
1, 36900, Note_on_c, 0, 70, 43
1, 36948, Note_on_c, 0, 64, 0
1, 36948, Note_on_c, 0, 55, 0
1, 36960, Tempo, 406780
1, 36960, Note_on_c, 0, 88, 0
1, 36960, Note_on_c, 0, 82, 53
1, 36960, Note_on_c, 0, 55, 22
1, 36960, Note_on_c, 0, 64, 27
1, 37188, Note_on_c, 0, 64, 0
1, 37188, Note_on_c, 0, 55, 0
1, 37200, Tempo, 431934
1, 37200, Note_on_c, 0, 55, 23
1, 37200, Note_on_c, 0, 64, 27
1, 37380, Note_on_c, 0, 70, 0
1, 37380, Note_on_c, 0, 69, 43
1, 37428, Note_on_c, 0, 64, 0
1, 37428, Note_on_c, 0, 55, 0
1, 37440, Tempo, 415945
1, 37440, Note_on_c, 0, 82, 0
1, 37440, Note_on_c, 0, 81, 53
1, 37440, Note_on_c, 0, 61, 36
1, 37440, Note_on_c, 0, 49, 31
1, 37448, Control_c, 0, 64, 0
1, 37567, Control_c, 0, 64, 127
1, 37668, Note_on_c, 0, 49, 0
1, 37668, Note_on_c, 0, 61, 0
1, 37680, Tempo, 383387
1, 37680, Note_on_c, 0, 67, 29
1, 37680, Note_on_c, 0, 64, 24
1, 37680, Note_on_c, 0, 57, 24
1, 37908, Note_on_c, 0, 57, 0
1, 37908, Note_on_c, 0, 67, 0
1, 37908, Note_on_c, 0, 64, 0
1, 37920, Tempo, 405405
1, 37920, Note_on_c, 0, 67, 30
1, 37920, Note_on_c, 0, 64, 25
1, 37920, Note_on_c, 0, 57, 25
1, 38148, Note_on_c, 0, 57, 0
1, 38148, Note_on_c, 0, 67, 0
1, 38148, Note_on_c, 0, 64, 0
1, 38160, Note_on_c, 0, 67, 32
1, 38160, Note_on_c, 0, 64, 27
1, 38160, Note_on_c, 0, 57, 27
1, 38360, Tempo, 412541
1, 38388, Note_on_c, 0, 57, 0
1, 38388, Note_on_c, 0, 67, 0
1, 38388, Note_on_c, 0, 64, 0
1, 38400, Tempo, 428571
1, 38400, Note_on_c, 0, 81, 0
1, 38400, Note_on_c, 0, 69, 0
1, 38400, Note_on_c, 0, 81, 44
1, 38400, Note_on_c, 0, 93, 55
1, 38400, Note_on_c, 0, 67, 30
1, 38400, Note_on_c, 0, 64, 25
1, 38400, Note_on_c, 0, 57, 25
1, 38400, Control_c, 0, 91, 127
1, 38410, Control_c, 0, 64, 0
1, 38514, Control_c, 0, 64, 127
1, 38628, Note_on_c, 0, 57, 0
1, 38628, Note_on_c, 0, 67, 0
1, 38628, Note_on_c, 0, 64, 0
1, 38640, Tempo, 439560
1, 38640, Note_on_c, 0, 67, 31
1, 38640, Note_on_c, 0, 64, 26
1, 38640, Note_on_c, 0, 57, 26
1, 38868, Note_on_c, 0, 57, 0
1, 38868, Note_on_c, 0, 67, 0
1, 38868, Note_on_c, 0, 64, 0
1, 38880, Tempo, 451128
1, 38880, Note_on_c, 0, 93, 0
1, 38880, Note_on_c, 0, 81, 0
1, 38880, Note_on_c, 0, 93, 60
1, 38880, Note_on_c, 0, 81, 48
1, 38880, Note_on_c, 0, 62, 40
1, 38880, Control_c, 0, 64, 0
1, 38880, Note_on_c, 0, 50, 33
1, 39021, Control_c, 0, 64, 127
1, 39108, Note_on_c, 0, 50, 0
1, 39108, Note_on_c, 0, 62, 0
1, 39120, Tempo, 384615
1, 39120, Note_on_c, 0, 65, 28
1, 39120, Note_on_c, 0, 57, 23
1, 39348, Note_on_c, 0, 57, 0
1, 39348, Note_on_c, 0, 65, 0
1, 39360, Tempo, 392157
1, 39360, Note_on_c, 0, 81, 0
1, 39360, Note_on_c, 0, 93, 0
1, 39360, Note_on_c, 0, 77, 45
1, 39360, Note_on_c, 0, 89, 56
1, 39360, Note_on_c, 0, 57, 24
1, 39360, Note_on_c, 0, 65, 28
1, 39588, Note_on_c, 0, 65, 0
1, 39588, Note_on_c, 0, 57, 0
1, 39600, Note_on_c, 0, 57, 24
1, 39600, Note_on_c, 0, 65, 30
1, 39828, Note_on_c, 0, 65, 0
1, 39828, Note_on_c, 0, 57, 0
1, 39840, Tempo, 422535
1, 39840, Note_on_c, 0, 89, 0
1, 39840, Note_on_c, 0, 77, 0
1, 39840, Note_on_c, 0, 86, 61
1, 39840, Note_on_c, 0, 74, 50
1, 39840, Note_on_c, 0, 57, 26
1, 39840, Note_on_c, 0, 65, 31
1, 40068, Note_on_c, 0, 65, 0
1, 40068, Note_on_c, 0, 57, 0
1, 40080, Tempo, 446097
1, 40080, Note_on_c, 0, 57, 27
1, 40080, Note_on_c, 0, 65, 32
1, 40308, Note_on_c, 0, 65, 0
1, 40308, Note_on_c, 0, 57, 0
1, 40320, Tempo, 415945
1, 40320, Note_on_c, 0, 74, 0
1, 40320, Note_on_c, 0, 86, 0
1, 40320, Note_on_c, 0, 72, 50
1, 40320, Note_on_c, 0, 84, 62
1, 40320, Note_on_c, 0, 64, 42
1, 40320, Note_on_c, 0, 52, 38
1, 40329, Control_c, 0, 64, 0
1, 40447, Control_c, 0, 64, 127
1, 40548, Note_on_c, 0, 52, 0
1, 40548, Note_on_c, 0, 64, 0
1, 40560, Tempo, 382166
1, 40560, Note_on_c, 0, 67, 34
1, 40560, Note_on_c, 0, 60, 28
1, 40560, Note_on_c, 0, 58, 28
1, 40788, Note_on_c, 0, 58, 0
1, 40788, Note_on_c, 0, 67, 0
1, 40788, Note_on_c, 0, 60, 0
1, 40800, Tempo, 402685
1, 40800, Note_on_c, 0, 67, 34
1, 40800, Note_on_c, 0, 60, 29
1, 40800, Note_on_c, 0, 58, 29
1, 41028, Note_on_c, 0, 58, 0
1, 41028, Note_on_c, 0, 67, 0
1, 41028, Note_on_c, 0, 60, 0
1, 41040, Note_on_c, 0, 67, 37
1, 41040, Note_on_c, 0, 60, 30
1, 41040, Note_on_c, 0, 58, 30
1, 41240, Tempo, 412541
1, 41268, Note_on_c, 0, 58, 0
1, 41268, Note_on_c, 0, 67, 0
1, 41268, Note_on_c, 0, 60, 0
1, 41280, Tempo, 441176
1, 41280, Note_on_c, 0, 84, 0
1, 41280, Note_on_c, 0, 72, 0
1, 41280, Note_on_c, 0, 84, 50
1, 41280, Note_on_c, 0, 96, 62
1, 41280, Note_on_c, 0, 67, 34
1, 41280, Note_on_c, 0, 60, 28
1, 41280, Note_on_c, 0, 58, 28
1, 41280, Control_c, 0, 91, 127
1, 41291, Control_c, 0, 64, 0
1, 41394, Control_c, 0, 64, 127
1, 41508, Note_on_c, 0, 58, 0
1, 41508, Note_on_c, 0, 67, 0
1, 41508, Note_on_c, 0, 60, 0
1, 41520, Tempo, 451128
1, 41520, Note_on_c, 0, 67, 35
1, 41520, Note_on_c, 0, 60, 29
1, 41520, Note_on_c, 0, 58, 29
1, 41748, Note_on_c, 0, 58, 0
1, 41748, Note_on_c, 0, 67, 0
1, 41748, Note_on_c, 0, 60, 0
1, 41760, Tempo, 474308
1, 41760, Note_on_c, 0, 96, 0
1, 41760, Note_on_c, 0, 84, 0
1, 41760, Note_on_c, 0, 96, 69
1, 41760, Note_on_c, 0, 84, 56
1, 41760, Note_on_c, 0, 65, 46
1, 41760, Control_c, 0, 64, 0
1, 41760, Note_on_c, 0, 53, 41
1, 41901, Control_c, 0, 64, 127
1, 41988, Note_on_c, 0, 53, 0
1, 41988, Note_on_c, 0, 65, 0
1, 42000, Tempo, 396354
1, 42000, Note_on_c, 0, 69, 37
1, 42000, Note_on_c, 0, 60, 30
1, 42228, Note_on_c, 0, 60, 0
1, 42228, Note_on_c, 0, 69, 0
1, 42240, Tempo, 409556
1, 42240, Note_on_c, 0, 84, 0
1, 42240, Note_on_c, 0, 96, 0
1, 42240, Note_on_c, 0, 81, 52
1, 42240, Note_on_c, 0, 93, 66
1, 42240, Note_on_c, 0, 60, 33
1, 42240, Note_on_c, 0, 69, 40
1, 42468, Note_on_c, 0, 69, 0
1, 42468, Note_on_c, 0, 60, 0
1, 42480, Note_on_c, 0, 60, 34
1, 42480, Note_on_c, 0, 69, 41
1, 42708, Note_on_c, 0, 69, 0
1, 42708, Note_on_c, 0, 60, 0
1, 42720, Tempo, 415945
1, 42720, Note_on_c, 0, 93, 0
1, 42720, Note_on_c, 0, 81, 0
1, 42720, Note_on_c, 0, 89, 67
1, 42720, Note_on_c, 0, 77, 55
1, 42720, Note_on_c, 0, 60, 36
1, 42720, Note_on_c, 0, 69, 42
1, 42948, Note_on_c, 0, 69, 0
1, 42948, Note_on_c, 0, 60, 0
1, 42960, Tempo, 431934
1, 42960, Note_on_c, 0, 60, 37
1, 42960, Note_on_c, 0, 69, 45
1, 43188, Note_on_c, 0, 69, 0
1, 43188, Note_on_c, 0, 60, 0
1, 43200, Tempo, 415945
1, 43200, Note_on_c, 0, 77, 0
1, 43200, Note_on_c, 0, 89, 0
1, 43200, Note_on_c, 0, 74, 60
1, 43200, Note_on_c, 0, 86, 74
1, 43200, Note_on_c, 0, 59, 53
1, 43200, Note_on_c, 0, 47, 45
1, 43208, Control_c, 0, 64, 0
1, 43327, Control_c, 0, 64, 127
1, 43428, Note_on_c, 0, 47, 0
1, 43428, Note_on_c, 0, 59, 0
1, 43440, Tempo, 397931
1, 43440, Note_on_c, 0, 65, 41
1, 43440, Note_on_c, 0, 56, 34
1, 43668, Note_on_c, 0, 56, 0
1, 43668, Note_on_c, 0, 65, 0
1, 43680, Tempo, 412371
1, 43680, Note_on_c, 0, 65, 41
1, 43680, Note_on_c, 0, 56, 34
1, 43908, Note_on_c, 0, 56, 0
1, 43908, Note_on_c, 0, 65, 0
1, 43920, Tempo, 526316
1, 43920, Note_on_c, 0, 65, 42
1, 43920, Note_on_c, 0, 56, 36
1, 44148, Note_on_c, 0, 56, 0
1, 44148, Note_on_c, 0, 65, 0
1, 44160, Tempo, 447761
1, 44160, Note_on_c, 0, 86, 0
1, 44160, Note_on_c, 0, 74, 0
1, 44160, Note_on_c, 0, 86, 48
1, 44160, Note_on_c, 0, 98, 60
1, 44160, Note_on_c, 0, 65, 32
1, 44160, Note_on_c, 0, 56, 28
1, 44160, Control_c, 0, 91, 127
1, 44170, Control_c, 0, 64, 0
1, 44274, Control_c, 0, 64, 127
1, 44388, Note_on_c, 0, 56, 0
1, 44388, Note_on_c, 0, 65, 0
1, 44400, Tempo, 491803
1, 44400, Note_on_c, 0, 65, 33
1, 44400, Note_on_c, 0, 56, 28
1, 44628, Note_on_c, 0, 56, 0
1, 44628, Note_on_c, 0, 65, 0
1, 44640, Tempo, 458015
1, 44640, Note_on_c, 0, 98, 0
1, 44640, Note_on_c, 0, 86, 0
1, 44640, Note_on_c, 0, 98, 64
1, 44640, Note_on_c, 0, 86, 52
1, 44640, Note_on_c, 0, 60, 43
1, 44640, Control_c, 0, 64, 0
1, 44640, Note_on_c, 0, 48, 37
1, 44781, Control_c, 0, 64, 127
1, 44868, Note_on_c, 0, 48, 0
1, 44868, Note_on_c, 0, 60, 0
1, 44880, Tempo, 437956
1, 44880, Note_on_c, 0, 62, 28
1, 44880, Note_on_c, 0, 58, 23
1, 45108, Note_on_c, 0, 58, 0
1, 45108, Note_on_c, 0, 62, 0
1, 45120, Tempo, 456274
1, 45120, Note_on_c, 0, 86, 0
1, 45120, Note_on_c, 0, 98, 0
1, 45120, Note_on_c, 0, 82, 43
1, 45120, Note_on_c, 0, 94, 54
1, 45120, Note_on_c, 0, 58, 22
1, 45120, Note_on_c, 0, 62, 27
1, 45348, Note_on_c, 0, 62, 0
1, 45348, Note_on_c, 0, 58, 0
1, 45360, Note_on_c, 0, 58, 23
1, 45360, Note_on_c, 0, 62, 27
1, 45588, Note_on_c, 0, 62, 0
1, 45588, Note_on_c, 0, 58, 0
1, 45600, Tempo, 478088
1, 45600, Note_on_c, 0, 94, 0
1, 45600, Note_on_c, 0, 82, 0
1, 45600, Note_on_c, 0, 91, 54
1, 45600, Note_on_c, 0, 79, 43
1, 45600, Note_on_c, 0, 58, 22
1, 45600, Note_on_c, 0, 64, 27
1, 45828, Note_on_c, 0, 64, 0
1, 45828, Note_on_c, 0, 58, 0
1, 45840, Tempo, 500000
1, 45840, Note_on_c, 0, 58, 22
1, 45840, Note_on_c, 0, 64, 27
1, 46068, Note_on_c, 0, 64, 0
1, 46068, Note_on_c, 0, 58, 0
1, 46080, Tempo, 535714
1, 46080, Note_on_c, 0, 79, 0
1, 46080, Note_on_c, 0, 91, 0
1, 46080, Note_on_c, 0, 77, 40
1, 46080, Note_on_c, 0, 89, 50
1, 46080, Note_on_c, 0, 57, 28
1, 46080, Note_on_c, 0, 65, 34
1, 46087, Control_c, 0, 64, 0
1, 46207, Control_c, 0, 64, 127
1, 46560, Tempo, 600000
1, 46560, Note_on_c, 0, 65, 0
1, 46560, Note_on_c, 0, 77, 0
1, 46560, Note_on_c, 0, 89, 0
1, 46560, Note_on_c, 0, 57, 0
1, 46560, Note_on_c, 0, 41, 17
1, 46590, Note_on_c, 0, 48, 20
1, 46620, Note_on_c, 0, 57, 28
1, 46650, Note_on_c, 0, 60, 28
1, 46680, Note_on_c, 0, 65, 34
1, 46885, Control_c, 0, 64, 0
1, 47010, Note_on_c, 0, 60, 0
1, 47040, Note_on_c, 0, 57, 0
1, 47040, Note_on_c, 0, 41, 0
1, 47040, Note_on_c, 0, 48, 0
1, 47040, Note_on_c, 0, 65, 0
1, 47520, Tempo, 375000
1, 47520, Marker_t, "Variation I"
1, 47520, Text_t, "bdca426d104a26ac9dcb070447587523"
1, 47520, Control_c, 0, 91, 127
1, 48720, Tempo, 485830
1, 48720, Note_on_c, 0, 57, 69
1, 48720, Note_on_c, 0, 51, 58
1, 48720, Note_on_c, 0, 48, 58
1, 48720, Note_on_c, 0, 30, 49
1, 48720, Note_on_c, 0, 42, 58
1, 48960, Tempo, 466926
1, 48960, Note_on_c, 0, 42, 0
1, 48960, Note_on_c, 0, 48, 0
1, 48960, Note_on_c, 0, 57, 0
1, 48960, Note_on_c, 0, 51, 0
1, 48960, Note_on_c, 0, 30, 0
1, 48960, Note_on_c, 0, 48, 64
1, 48960, Note_on_c, 0, 52, 64
1, 48960, Note_on_c, 0, 58, 75
1, 48960, Note_on_c, 0, 31, 53
1, 48960, Note_on_c, 0, 43, 64
1, 49200, Tempo, 427046
1, 49200, Note_on_c, 0, 43, 0
1, 49200, Note_on_c, 0, 58, 0
1, 49200, Note_on_c, 0, 48, 0
1, 49200, Note_on_c, 0, 52, 0
1, 49200, Note_on_c, 0, 31, 0
1, 49200, Note_on_c, 0, 60, 59
1, 49200, Note_on_c, 0, 69, 71
1, 49200, Note_on_c, 0, 63, 59
1, 49200, Note_on_c, 0, 42, 50
1, 49200, Note_on_c, 0, 54, 59
1, 49440, Tempo, 441176
1, 49440, Note_on_c, 0, 54, 0
1, 49440, Note_on_c, 0, 63, 0
1, 49440, Note_on_c, 0, 60, 0
1, 49440, Note_on_c, 0, 69, 0
1, 49440, Note_on_c, 0, 42, 0
1, 49440, Note_on_c, 0, 64, 64
1, 49440, Note_on_c, 0, 60, 64
1, 49440, Note_on_c, 0, 70, 76
1, 49440, Note_on_c, 0, 43, 53
1, 49440, Note_on_c, 0, 55, 64
1, 49680, Tempo, 427046
1, 49680, Note_on_c, 0, 55, 0
1, 49680, Note_on_c, 0, 70, 0
1, 49680, Note_on_c, 0, 64, 0
1, 49680, Note_on_c, 0, 60, 0
1, 49680, Note_on_c, 0, 43, 0
1, 49680, Note_on_c, 0, 75, 60
1, 49680, Note_on_c, 0, 72, 60
1, 49680, Note_on_c, 0, 81, 72
1, 49680, Note_on_c, 0, 54, 51
1, 49680, Note_on_c, 0, 66, 60
1, 49920, Tempo, 439560
1, 49920, Note_on_c, 0, 66, 0
1, 49920, Note_on_c, 0, 81, 0
1, 49920, Note_on_c, 0, 75, 0
1, 49920, Note_on_c, 0, 72, 0
1, 49920, Note_on_c, 0, 54, 0
1, 49920, Note_on_c, 0, 76, 65
1, 49920, Note_on_c, 0, 82, 77
1, 49920, Note_on_c, 0, 72, 65
1, 49920, Note_on_c, 0, 55, 57
1, 49920, Note_on_c, 0, 67, 67
1, 50160, Tempo, 422535
1, 50160, Note_on_c, 0, 67, 0
1, 50160, Note_on_c, 0, 72, 0
1, 50160, Note_on_c, 0, 76, 0
1, 50160, Note_on_c, 0, 82, 0
1, 50160, Note_on_c, 0, 55, 0
1, 50160, Note_on_c, 0, 93, 74
1, 50160, Note_on_c, 0, 84, 63
1, 50160, Note_on_c, 0, 87, 63
1, 50160, Note_on_c, 0, 66, 52
1, 50160, Note_on_c, 0, 78, 63
1, 50400, Tempo, 446097
1, 50400, Note_on_c, 0, 78, 0
1, 50400, Note_on_c, 0, 87, 0
1, 50400, Note_on_c, 0, 93, 0
1, 50400, Note_on_c, 0, 84, 0
1, 50400, Note_on_c, 0, 66, 0
1, 50400, Note_on_c, 0, 84, 66
1, 50400, Note_on_c, 0, 67, 60
1, 50400, Note_on_c, 0, 79, 72
1, 50492, Control_c, 0, 64, 127
1, 50520, Note_on_c, 0, 84, 0
1, 50520, Note_on_c, 0, 94, 73
1, 50640, Tempo, 410959
1, 50640, Note_on_c, 0, 94, 0
1, 50640, Note_on_c, 0, 79, 0
1, 50640, Note_on_c, 0, 67, 0
1, 50640, Note_on_c, 0, 91, 64
1, 50640, Note_on_c, 0, 96, 75
1, 50640, Note_on_c, 0, 82, 65
1, 50760, Note_on_c, 0, 82, 0
1, 50760, Note_on_c, 0, 91, 0
1, 50760, Note_on_c, 0, 88, 73
1, 50760, Note_on_c, 0, 79, 58
1, 50800, Tempo, 408163
1, 50880, Tempo, 409556
1, 50880, Note_on_c, 0, 79, 0
1, 50880, Note_on_c, 0, 88, 0
1, 50880, Note_on_c, 0, 96, 0
1, 50880, Note_on_c, 0, 84, 75
1, 50880, Note_on_c, 0, 76, 59
1, 50960, Tempo, 410959
1, 51000, Tempo, 412371
1, 51000, Note_on_c, 0, 76, 0
1, 51000, Note_on_c, 0, 84, 0
1, 51000, Note_on_c, 0, 82, 74
1, 51000, Note_on_c, 0, 72, 57
1, 51080, Tempo, 413793
1, 51120, Tempo, 415225
1, 51120, Note_on_c, 0, 72, 0
1, 51120, Note_on_c, 0, 82, 0
1, 51120, Note_on_c, 0, 79, 72
1, 51120, Note_on_c, 0, 70, 56
1, 51200, Tempo, 416667
1, 51240, Note_on_c, 0, 70, 0
1, 51240, Note_on_c, 0, 79, 0
1, 51240, Note_on_c, 0, 76, 71
1, 51240, Note_on_c, 0, 67, 54
1, 51280, Tempo, 418118
1, 51320, Tempo, 419580
1, 51360, Note_on_c, 0, 67, 0
1, 51360, Note_on_c, 0, 76, 0
1, 51360, Note_on_c, 0, 72, 69
1, 51360, Note_on_c, 0, 64, 52
1, 51400, Tempo, 421053
1, 51440, Tempo, 422535
1, 51452, Control_c, 0, 64, 0
1, 51520, Tempo, 424028
1, 51560, Tempo, 425532
1, 51600, Tempo, 470588
1, 51600, Note_on_c, 0, 64, 0
1, 51600, Note_on_c, 0, 72, 0
1, 51600, Note_on_c, 0, 50, 58
1, 51600, Note_on_c, 0, 53, 58
1, 51600, Note_on_c, 0, 59, 69
1, 51600, Note_on_c, 0, 32, 49
1, 51600, Note_on_c, 0, 44, 58
1, 51840, Tempo, 449438
1, 51840, Note_on_c, 0, 44, 0
1, 51840, Note_on_c, 0, 59, 0
1, 51840, Note_on_c, 0, 50, 0
1, 51840, Note_on_c, 0, 53, 0
1, 51840, Note_on_c, 0, 32, 0
1, 51840, Note_on_c, 0, 48, 64
1, 51840, Note_on_c, 0, 60, 75
1, 51840, Note_on_c, 0, 53, 64
1, 51840, Note_on_c, 0, 33, 53
1, 51840, Note_on_c, 0, 45, 64
1, 52080, Tempo, 430108
1, 52080, Note_on_c, 0, 45, 0
1, 52080, Note_on_c, 0, 53, 0
1, 52080, Note_on_c, 0, 48, 0
1, 52080, Note_on_c, 0, 60, 0
1, 52080, Note_on_c, 0, 33, 0
1, 52080, Note_on_c, 0, 65, 59
1, 52080, Note_on_c, 0, 62, 59
1, 52080, Note_on_c, 0, 71, 71
1, 52080, Note_on_c, 0, 44, 50
1, 52080, Note_on_c, 0, 56, 59
1, 52320, Tempo, 447761
1, 52320, Note_on_c, 0, 56, 0
1, 52320, Note_on_c, 0, 71, 0
1, 52320, Note_on_c, 0, 65, 0
1, 52320, Note_on_c, 0, 62, 0
1, 52320, Note_on_c, 0, 44, 0
1, 52320, Note_on_c, 0, 65, 64
1, 52320, Note_on_c, 0, 60, 64
1, 52320, Note_on_c, 0, 72, 76
1, 52320, Note_on_c, 0, 45, 53
1, 52320, Note_on_c, 0, 57, 64
1, 52560, Tempo, 433213
1, 52560, Note_on_c, 0, 57, 0
1, 52560, Note_on_c, 0, 72, 0
1, 52560, Note_on_c, 0, 65, 0
1, 52560, Note_on_c, 0, 60, 0
1, 52560, Note_on_c, 0, 45, 0
1, 52560, Note_on_c, 0, 77, 60
1, 52560, Note_on_c, 0, 83, 72
1, 52560, Note_on_c, 0, 74, 60
1, 52560, Note_on_c, 0, 56, 51
1, 52560, Note_on_c, 0, 68, 60
1, 52800, Tempo, 446097
1, 52800, Note_on_c, 0, 68, 0
1, 52800, Note_on_c, 0, 74, 0
1, 52800, Note_on_c, 0, 77, 0
1, 52800, Note_on_c, 0, 83, 0
1, 52800, Note_on_c, 0, 56, 0
1, 52800, Note_on_c, 0, 84, 77
1, 52800, Note_on_c, 0, 72, 65
1, 52800, Note_on_c, 0, 77, 65
1, 52800, Note_on_c, 0, 57, 57
1, 52800, Note_on_c, 0, 69, 67
1, 53040, Tempo, 431655
1, 53040, Note_on_c, 0, 69, 0
1, 53040, Note_on_c, 0, 77, 0
1, 53040, Note_on_c, 0, 84, 0
1, 53040, Note_on_c, 0, 72, 0
1, 53040, Note_on_c, 0, 57, 0
1, 53040, Note_on_c, 0, 95, 74
1, 53040, Note_on_c, 0, 86, 63
1, 53040, Note_on_c, 0, 89, 63
1, 53040, Note_on_c, 0, 68, 52
1, 53040, Note_on_c, 0, 80, 63
1, 53280, Tempo, 447761
1, 53280, Note_on_c, 0, 80, 0
1, 53280, Note_on_c, 0, 89, 0
1, 53280, Note_on_c, 0, 95, 0
1, 53280, Note_on_c, 0, 86, 0
1, 53280, Note_on_c, 0, 68, 0
1, 53280, Note_on_c, 0, 84, 66
1, 53280, Note_on_c, 0, 69, 60
1, 53280, Note_on_c, 0, 81, 72
1, 53400, Note_on_c, 0, 84, 0
1, 53400, Note_on_c, 0, 101, 77
1, 53400, Control_c, 0, 64, 127
1, 53520, Tempo, 418118
1, 53520, Note_on_c, 0, 101, 0
1, 53520, Note_on_c, 0, 81, 0
1, 53520, Note_on_c, 0, 69, 0
1, 53520, Note_on_c, 0, 96, 75
1, 53640, Note_on_c, 0, 93, 73
1, 53720, Tempo, 415225
1, 53760, Note_on_c, 0, 93, 0
1, 53760, Note_on_c, 0, 96, 0
1, 53760, Note_on_c, 0, 89, 76
1, 53800, Tempo, 416667
1, 53840, Tempo, 418118
1, 53880, Tempo, 419580
1, 53880, Note_on_c, 0, 89, 0
1, 53880, Note_on_c, 0, 84, 73
1, 53920, Tempo, 421053
1, 53960, Tempo, 422535
1, 54000, Tempo, 424028
1, 54000, Note_on_c, 0, 84, 0
1, 54000, Note_on_c, 0, 81, 71
1, 54040, Tempo, 425532
1, 54080, Tempo, 427046
1, 54120, Tempo, 428571
1, 54120, Note_on_c, 0, 81, 0
1, 54120, Note_on_c, 0, 77, 69
1, 54160, Tempo, 430108
1, 54200, Tempo, 431655
1, 54240, Tempo, 433213
1, 54240, Note_on_c, 0, 77, 0
1, 54240, Note_on_c, 0, 78, 67
1, 54240, Note_on_c, 0, 60, 47
1, 54240, Note_on_c, 0, 63, 47
1, 54240, Note_on_c, 0, 69, 47
1, 54263, Control_c, 0, 64, 0
1, 54360, Note_on_c, 0, 78, 0
1, 54360, Note_on_c, 0, 81, 63
1, 54480, Note_on_c, 0, 84, 57
1, 54600, Note_on_c, 0, 84, 0
1, 54600, Note_on_c, 0, 87, 54
1, 54680, Tempo, 437956
1, 54720, Tempo, 444444
1, 54720, Note_on_c, 0, 60, 0
1, 54720, Note_on_c, 0, 81, 0
1, 54720, Note_on_c, 0, 69, 0
1, 54720, Note_on_c, 0, 63, 0
1, 54720, Note_on_c, 0, 79, 56
1, 54720, Note_on_c, 0, 46, 47
1, 54800, Tempo, 442804
1, 54840, Tempo, 441176
1, 54840, Note_on_c, 0, 87, 0
1, 54840, Note_on_c, 0, 86, 48
1, 54920, Tempo, 439560
1, 54960, Tempo, 437956
1, 54960, Note_on_c, 0, 86, 0
1, 54960, Note_on_c, 0, 46, 0
1, 54960, Note_on_c, 0, 85, 48
1, 54960, Note_on_c, 0, 55, 37
1, 55040, Tempo, 436364
1, 55080, Tempo, 434783
1, 55080, Note_on_c, 0, 85, 0
1, 55080, Note_on_c, 0, 86, 48
1, 55160, Tempo, 433213
1, 55200, Tempo, 431655
1, 55200, Note_on_c, 0, 86, 0
1, 55200, Note_on_c, 0, 91, 54
1, 55200, Note_on_c, 0, 62, 37
1, 55200, Note_on_c, 0, 58, 37
1, 55320, Note_on_c, 0, 79, 0
1, 55320, Note_on_c, 0, 80, 47
1, 55420, Note_on_c, 0, 91, 0
1, 55440, Tempo, 427046
1, 55440, Note_on_c, 0, 62, 0
1, 55440, Note_on_c, 0, 91, 54
1, 55440, Note_on_c, 0, 81, 47
1, 55440, Note_on_c, 0, 67, 37
1, 55460, Note_on_c, 0, 80, 0
1, 55560, Note_on_c, 0, 82, 47
1, 55580, Note_on_c, 0, 81, 0
1, 55660, Note_on_c, 0, 91, 0
1, 55680, Tempo, 421053
1, 55680, Note_on_c, 0, 58, 0
1, 55680, Note_on_c, 0, 55, 0
1, 55680, Note_on_c, 0, 67, 0
1, 55680, Note_on_c, 0, 83, 47
1, 55680, Note_on_c, 0, 91, 54
1, 55680, Note_on_c, 0, 43, 40
1, 55700, Note_on_c, 0, 82, 0
1, 55800, Note_on_c, 0, 43, 0
1, 55800, Note_on_c, 0, 84, 48
1, 55820, Note_on_c, 0, 83, 0
1, 55900, Note_on_c, 0, 91, 0
1, 55920, Tempo, 430108
1, 55920, Note_on_c, 0, 85, 49
1, 55920, Note_on_c, 0, 91, 56
1, 55920, Note_on_c, 0, 65, 37
1, 55920, Note_on_c, 0, 59, 37
1, 55940, Note_on_c, 0, 84, 0
1, 56040, Note_on_c, 0, 86, 50
1, 56060, Note_on_c, 0, 85, 0
1, 56120, Tempo, 439560
1, 56140, Note_on_c, 0, 91, 0
1, 56160, Note_on_c, 0, 65, 0
1, 56160, Note_on_c, 0, 59, 0
1, 56160, Note_on_c, 0, 89, 49
1, 56160, Note_on_c, 0, 91, 56
1, 56160, Note_on_c, 0, 48, 47
1, 56180, Note_on_c, 0, 86, 0
1, 56280, Note_on_c, 0, 48, 0
1, 56280, Note_on_c, 0, 88, 49
1, 56300, Note_on_c, 0, 89, 0
1, 56320, Tempo, 437956
1, 56380, Note_on_c, 0, 91, 0
1, 56400, Note_on_c, 0, 91, 56
1, 56400, Note_on_c, 0, 87, 50
1, 56400, Note_on_c, 0, 60, 50
1, 56420, Note_on_c, 0, 88, 0
1, 56480, Tempo, 436364
1, 56520, Note_on_c, 0, 88, 49
1, 56540, Note_on_c, 0, 87, 0
1, 56620, Note_on_c, 0, 91, 0
1, 56640, Tempo, 434783
1, 56640, Note_on_c, 0, 84, 50
1, 56640, Note_on_c, 0, 96, 56
1, 56640, Note_on_c, 0, 67, 45
1, 56640, Note_on_c, 0, 64, 45
1, 56660, Note_on_c, 0, 88, 0
1, 56760, Note_on_c, 0, 85, 51
1, 56780, Note_on_c, 0, 84, 0
1, 56860, Note_on_c, 0, 96, 0
1, 56880, Tempo, 422535
1, 56880, Note_on_c, 0, 67, 0
1, 56880, Note_on_c, 0, 64, 0
1, 56880, Note_on_c, 0, 96, 56
1, 56880, Note_on_c, 0, 86, 50
1, 56880, Note_on_c, 0, 72, 40
1, 56900, Note_on_c, 0, 85, 0
1, 57000, Note_on_c, 0, 87, 51
1, 57020, Note_on_c, 0, 86, 0
1, 57100, Note_on_c, 0, 96, 0
1, 57120, Tempo, 418118
1, 57120, Note_on_c, 0, 60, 0
1, 57120, Note_on_c, 0, 72, 0
1, 57120, Note_on_c, 0, 96, 58
1, 57120, Note_on_c, 0, 88, 51
1, 57120, Note_on_c, 0, 58, 46
1, 57140, Note_on_c, 0, 87, 0
1, 57240, Note_on_c, 0, 58, 0
1, 57240, Note_on_c, 0, 89, 53
1, 57260, Note_on_c, 0, 88, 0
1, 57340, Note_on_c, 0, 96, 0
1, 57360, Tempo, 425532
1, 57360, Note_on_c, 0, 90, 53
1, 57360, Note_on_c, 0, 96, 60
1, 57360, Note_on_c, 0, 72, 42
1, 57360, Note_on_c, 0, 67, 42
1, 57380, Note_on_c, 0, 89, 0
1, 57480, Note_on_c, 0, 91, 55
1, 57500, Note_on_c, 0, 90, 0
1, 57580, Note_on_c, 0, 96, 0
1, 57600, Tempo, 442804
1, 57600, Note_on_c, 0, 72, 0
1, 57600, Note_on_c, 0, 67, 0
1, 57600, Note_on_c, 0, 94, 54
1, 57600, Note_on_c, 0, 96, 61
1, 57600, Note_on_c, 0, 57, 45
1, 57620, Note_on_c, 0, 91, 0
1, 57720, Note_on_c, 0, 57, 0
1, 57720, Note_on_c, 0, 93, 56
1, 57740, Note_on_c, 0, 94, 0
1, 57820, Note_on_c, 0, 96, 0
1, 57840, Note_on_c, 0, 92, 56
1, 57840, Note_on_c, 0, 96, 65
1, 57840, Note_on_c, 0, 60, 49
1, 57860, Note_on_c, 0, 93, 0
1, 57960, Note_on_c, 0, 93, 57
1, 57980, Note_on_c, 0, 92, 0
1, 58000, Tempo, 442804
1, 58060, Note_on_c, 0, 96, 0
1, 58080, Note_on_c, 0, 101, 65
1, 58080, Note_on_c, 0, 89, 56
1, 58080, Note_on_c, 0, 69, 47
1, 58080, Note_on_c, 0, 65, 47
1, 58100, Note_on_c, 0, 93, 0
1, 58120, Tempo, 441176
1, 58200, Note_on_c, 0, 90, 56
1, 58220, Note_on_c, 0, 89, 0
1, 58240, Tempo, 439560
1, 58300, Note_on_c, 0, 101, 0
1, 58320, Note_on_c, 0, 69, 0
1, 58320, Note_on_c, 0, 65, 0
1, 58320, Note_on_c, 0, 91, 57
1, 58320, Note_on_c, 0, 101, 67
1, 58320, Note_on_c, 0, 72, 40
1, 58340, Note_on_c, 0, 90, 0
1, 58360, Tempo, 437956
1, 58440, Note_on_c, 0, 92, 57
1, 58460, Note_on_c, 0, 91, 0
1, 58480, Tempo, 436364
1, 58540, Note_on_c, 0, 101, 0
1, 58560, Tempo, 434783
1, 58560, Note_on_c, 0, 60, 0
1, 58560, Note_on_c, 0, 72, 0
1, 58560, Note_on_c, 0, 101, 67
1, 58560, Note_on_c, 0, 93, 57
1, 58560, Note_on_c, 0, 53, 48
1, 58580, Note_on_c, 0, 92, 0
1, 58680, Note_on_c, 0, 53, 0
1, 58680, Note_on_c, 0, 94, 58
1, 58700, Note_on_c, 0, 93, 0
1, 58780, Note_on_c, 0, 101, 0
1, 58800, Note_on_c, 0, 101, 69
1, 58800, Note_on_c, 0, 95, 59
1, 58800, Note_on_c, 0, 65, 41
1, 58800, Note_on_c, 0, 57, 41
1, 58820, Note_on_c, 0, 94, 0
1, 58920, Note_on_c, 0, 98, 60
1, 58940, Note_on_c, 0, 95, 0
1, 59020, Note_on_c, 0, 101, 0
1, 59040, Tempo, 483871
1, 59040, Note_on_c, 0, 65, 0
1, 59040, Note_on_c, 0, 57, 0
1, 59040, Note_on_c, 0, 100, 69
1, 59040, Note_on_c, 0, 96, 69
1, 59040, Note_on_c, 0, 48, 48
1, 59060, Note_on_c, 0, 98, 0
1, 59280, Tempo, 521739
1, 59280, Note_on_c, 0, 100, 0
1, 59280, Note_on_c, 0, 96, 0
1, 59280, Note_on_c, 0, 72, 47
1, 59280, Note_on_c, 0, 52, 36
1, 59291, Control_c, 0, 64, 127
1, 59320, Tempo, 519481
1, 59360, Tempo, 517241
1, 59400, Tempo, 512821
1, 59400, Note_on_c, 0, 52, 0
1, 59400, Note_on_c, 0, 72, 0
1, 59400, Note_on_c, 0, 76, 52
1, 59400, Note_on_c, 0, 55, 39
1, 59440, Tempo, 510638
1, 59480, Tempo, 508475
1, 59520, Tempo, 491803
1, 59520, Note_on_c, 0, 55, 0
1, 59520, Note_on_c, 0, 76, 0
1, 59520, Note_on_c, 0, 48, 0
1, 59520, Note_on_c, 0, 79, 56
1, 59520, Note_on_c, 0, 64, 45
1, 59640, Note_on_c, 0, 64, 0
1, 59640, Note_on_c, 0, 79, 0
1, 59640, Note_on_c, 0, 84, 54
1, 59760, Note_on_c, 0, 84, 0
1, 59760, Note_on_c, 0, 88, 52
1, 59880, Note_on_c, 0, 88, 0
1, 59880, Note_on_c, 0, 91, 50
1, 60000, Tempo, 481928
1, 60000, Note_on_c, 0, 91, 0
1, 60000, Note_on_c, 0, 90, 52
1, 60000, Note_on_c, 0, 57, 42
1, 60000, Note_on_c, 0, 54, 35
1, 60000, Note_on_c, 0, 48, 35
1, 60003, Control_c, 0, 64, 0
1, 60120, Note_on_c, 0, 90, 0
1, 60120, Note_on_c, 0, 99, 55
1, 60240, Note_on_c, 0, 99, 0
1, 60240, Note_on_c, 0, 87, 45
1, 60360, Note_on_c, 0, 87, 0
1, 60360, Note_on_c, 0, 96, 52
1, 60480, Tempo, 463320
1, 60480, Note_on_c, 0, 96, 0
1, 60480, Note_on_c, 0, 48, 0
1, 60480, Note_on_c, 0, 54, 0
1, 60480, Note_on_c, 0, 57, 0
1, 60480, Note_on_c, 0, 91, 45
1, 60480, Note_on_c, 0, 48, 32
1, 60480, Note_on_c, 0, 58, 39
1, 60480, Note_on_c, 0, 55, 32
1, 60544, Control_c, 0, 64, 127
1, 60600, Note_on_c, 0, 91, 0
1, 60600, Note_on_c, 0, 100, 39
1, 60720, Tempo, 451128
1, 60720, Note_on_c, 0, 100, 0
1, 60720, Note_on_c, 0, 88, 40
1, 60810, Note_on_c, 0, 88, 0
1, 60840, Note_on_c, 0, 88, 40
1, 60930, Note_on_c, 0, 88, 0
1, 60960, Tempo, 436364
1, 60960, Note_on_c, 0, 55, 0
1, 60960, Note_on_c, 0, 58, 0
1, 60960, Note_on_c, 0, 96, 48
1, 60960, Note_on_c, 0, 64, 40
1, 60960, Note_on_c, 0, 60, 33
1, 60960, Note_on_c, 0, 58, 33
1, 60970, Control_c, 0, 64, 0
1, 61052, Control_c, 0, 64, 127
1, 61080, Note_on_c, 0, 96, 0
1, 61080, Note_on_c, 0, 84, 41
1, 61170, Note_on_c, 0, 84, 0
1, 61200, Note_on_c, 0, 84, 41
1, 61320, Note_on_c, 0, 84, 0
1, 61320, Note_on_c, 0, 91, 42
1, 61410, Note_on_c, 0, 91, 0
1, 61440, Tempo, 446097
1, 61440, Note_on_c, 0, 58, 0
1, 61440, Note_on_c, 0, 48, 0
1, 61440, Note_on_c, 0, 64, 0
1, 61440, Note_on_c, 0, 60, 0
1, 61440, Note_on_c, 0, 79, 51
1, 61440, Note_on_c, 0, 67, 43
1, 61440, Note_on_c, 0, 60, 36
1, 61440, Note_on_c, 0, 58, 36
1, 61450, Control_c, 0, 64, 0
1, 61518, Control_c, 0, 64, 127
1, 61530, Note_on_c, 0, 79, 0
1, 61560, Note_on_c, 0, 79, 43
1, 61680, Note_on_c, 0, 79, 0
1, 61680, Note_on_c, 0, 88, 45
1, 61800, Note_on_c, 0, 88, 0
1, 61800, Note_on_c, 0, 76, 45
1, 61890, Note_on_c, 0, 76, 0
1, 61920, Tempo, 437956
1, 61920, Note_on_c, 0, 58, 0
1, 61920, Note_on_c, 0, 60, 0
1, 61920, Note_on_c, 0, 67, 0
1, 61920, Note_on_c, 0, 76, 54
1, 61920, Note_on_c, 0, 67, 46
1, 61920, Note_on_c, 0, 60, 39
1, 61920, Note_on_c, 0, 58, 39
1, 61927, Control_c, 0, 64, 0
1, 61955, Control_c, 0, 64, 127
1, 62040, Note_on_c, 0, 76, 0
1, 62040, Note_on_c, 0, 84, 48
1, 62160, Note_on_c, 0, 84, 0
1, 62160, Note_on_c, 0, 72, 48
1, 62250, Note_on_c, 0, 72, 0
1, 62280, Note_on_c, 0, 72, 48
1, 62370, Note_on_c, 0, 72, 0
1, 62400, Tempo, 430108
1, 62400, Note_on_c, 0, 79, 56
1, 62520, Note_on_c, 0, 79, 0
1, 62520, Note_on_c, 0, 67, 48
1, 62610, Note_on_c, 0, 67, 0
1, 62640, Note_on_c, 0, 67, 48
1, 62760, Note_on_c, 0, 67, 0
1, 62760, Note_on_c, 0, 79, 48
1, 62850, Note_on_c, 0, 79, 0
1, 62880, Tempo, 442804
1, 62880, Note_on_c, 0, 58, 0
1, 62880, Note_on_c, 0, 60, 0
1, 62880, Note_on_c, 0, 67, 0
1, 62880, Note_on_c, 0, 64, 56
1, 62880, Note_on_c, 0, 56, 44
1, 62889, Control_c, 0, 64, 0
1, 62922, Control_c, 0, 64, 127
1, 62970, Note_on_c, 0, 64, 0
1, 63000, Note_on_c, 0, 64, 49
1, 63120, Note_on_c, 0, 64, 0
1, 63120, Note_on_c, 0, 72, 49
1, 63240, Note_on_c, 0, 72, 0
1, 63240, Note_on_c, 0, 56, 0
1, 63240, Note_on_c, 0, 60, 50
1, 63240, Note_on_c, 0, 41, 34
1, 63300, Note_on_c, 0, 48, 38
1, 63360, Tempo, 436364
1, 63360, Note_on_c, 0, 60, 0
1, 63360, Note_on_c, 0, 65, 64
1, 63360, Note_on_c, 0, 57, 51
1, 63370, Control_c, 0, 64, 0
1, 63435, Control_c, 0, 64, 127
1, 63480, Note_on_c, 0, 65, 0
1, 63480, Note_on_c, 0, 72, 51
1, 63600, Note_on_c, 0, 72, 0
1, 63600, Note_on_c, 0, 60, 51
1, 63720, Note_on_c, 0, 60, 0
1, 63720, Note_on_c, 0, 69, 52
1, 63840, Tempo, 422535
1, 63840, Note_on_c, 0, 69, 0
1, 63840, Note_on_c, 0, 57, 0
1, 63840, Note_on_c, 0, 48, 0
1, 63840, Note_on_c, 0, 41, 0
1, 63840, Note_on_c, 0, 77, 63
1, 63840, Note_on_c, 0, 60, 52
1, 63840, Note_on_c, 0, 57, 43
1, 63960, Note_on_c, 0, 77, 0
1, 63960, Note_on_c, 0, 65, 53
1, 64080, Note_on_c, 0, 65, 0
1, 64080, Note_on_c, 0, 72, 53
1, 64200, Note_on_c, 0, 72, 0
1, 64200, Note_on_c, 0, 81, 54
1, 64320, Tempo, 431655
1, 64320, Note_on_c, 0, 81, 0
1, 64320, Note_on_c, 0, 57, 0
1, 64320, Note_on_c, 0, 60, 0
1, 64320, Note_on_c, 0, 69, 66
1, 64320, Note_on_c, 0, 65, 55
1, 64320, Note_on_c, 0, 57, 46
1, 64440, Note_on_c, 0, 69, 0
1, 64440, Note_on_c, 0, 77, 55
1, 64560, Note_on_c, 0, 77, 0
1, 64560, Note_on_c, 0, 84, 57
1, 64680, Note_on_c, 0, 84, 0
1, 64680, Note_on_c, 0, 72, 57
1, 64800, Note_on_c, 0, 72, 0
1, 64800, Note_on_c, 0, 57, 0
1, 64800, Note_on_c, 0, 65, 0
1, 64800, Note_on_c, 0, 84, 69
1, 64800, Note_on_c, 0, 65, 59
1, 64800, Note_on_c, 0, 57, 49
1, 64920, Note_on_c, 0, 84, 0
1, 64920, Note_on_c, 0, 89, 59
1, 65040, Note_on_c, 0, 89, 0
1, 65040, Note_on_c, 0, 77, 60
1, 65160, Note_on_c, 0, 77, 0
1, 65160, Note_on_c, 0, 84, 64
1, 65280, Tempo, 425532
1, 65280, Note_on_c, 0, 84, 0
1, 65280, Note_on_c, 0, 93, 75
1, 65400, Note_on_c, 0, 93, 0
1, 65400, Note_on_c, 0, 81, 67
1, 65520, Note_on_c, 0, 81, 0
1, 65520, Note_on_c, 0, 89, 68
1, 65640, Note_on_c, 0, 89, 0
1, 65640, Note_on_c, 0, 96, 68
1, 65720, Tempo, 428571
1, 65760, Note_on_c, 0, 96, 0
1, 65760, Note_on_c, 0, 57, 0
1, 65760, Note_on_c, 0, 65, 0
1, 65760, Note_on_c, 0, 84, 78
1, 65880, Note_on_c, 0, 84, 0
1, 65880, Note_on_c, 0, 93, 72
1, 66000, Note_on_c, 0, 93, 0
1, 66000, Note_on_c, 0, 101, 73
1, 66120, Note_on_c, 0, 101, 0
1, 66120, Note_on_c, 0, 89, 74
1, 66240, Tempo, 430108
1, 66240, Note_on_c, 0, 89, 0
1, 66240, Note_on_c, 0, 92, 76
1, 66240, Note_on_c, 0, 47, 63
1, 66240, Control_c, 0, 64, 0
1, 66331, Control_c, 0, 64, 127
1, 66360, Note_on_c, 0, 92, 0
1, 66360, Note_on_c, 0, 101, 80
1, 66480, Tempo, 419580
1, 66480, Note_on_c, 0, 101, 0
1, 66480, Note_on_c, 0, 47, 0
1, 66480, Note_on_c, 0, 100, 79
1, 66480, Note_on_c, 0, 62, 51
1, 66560, Tempo, 419580
1, 66600, Note_on_c, 0, 100, 0
1, 66600, Note_on_c, 0, 99, 76
1, 66720, Tempo, 421053
1, 66720, Note_on_c, 0, 99, 0
1, 66720, Note_on_c, 0, 98, 75
1, 66720, Note_on_c, 0, 101, 70
1, 66720, Note_on_c, 0, 65, 53
1, 66840, Note_on_c, 0, 98, 0
1, 66840, Note_on_c, 0, 97, 72
1, 66880, Tempo, 422535
1, 66960, Note_on_c, 0, 97, 0
1, 66960, Note_on_c, 0, 96, 72
1, 66960, Note_on_c, 0, 68, 56
1, 67040, Tempo, 424028
1, 67080, Note_on_c, 0, 96, 0
1, 67080, Note_on_c, 0, 95, 70
1, 67160, Tempo, 425532
1, 67200, Tempo, 439560
1, 67200, Note_on_c, 0, 95, 0
1, 67200, Note_on_c, 0, 68, 0
1, 67200, Note_on_c, 0, 101, 0
1, 67200, Note_on_c, 0, 92, 62
1, 67200, Note_on_c, 0, 98, 74
1, 67200, Note_on_c, 0, 71, 58
1, 67210, Control_c, 0, 64, 0
1, 67280, Control_c, 0, 64, 127
1, 67320, Note_on_c, 0, 92, 0
1, 67320, Note_on_c, 0, 86, 70
1, 67440, Note_on_c, 0, 86, 0
1, 67440, Note_on_c, 0, 98, 0
1, 67440, Note_on_c, 0, 91, 57
1, 67440, Note_on_c, 0, 95, 69
1, 67440, Note_on_c, 0, 67, 56
1, 67560, Note_on_c, 0, 91, 0
1, 67560, Note_on_c, 0, 89, 67
1, 67680, Tempo, 433213
1, 67680, Note_on_c, 0, 89, 0
1, 67680, Note_on_c, 0, 67, 0
1, 67680, Note_on_c, 0, 65, 0
1, 67680, Note_on_c, 0, 71, 0
1, 67680, Note_on_c, 0, 62, 0
1, 67680, Note_on_c, 0, 95, 0
1, 67680, Note_on_c, 0, 96, 74
1, 67680, Note_on_c, 0, 88, 63
1, 67680, Note_on_c, 0, 48, 63
1, 67686, Control_c, 0, 64, 0
1, 67743, Control_c, 0, 64, 127
1, 67800, Note_on_c, 0, 88, 0
1, 67800, Note_on_c, 0, 94, 64
1, 67920, Tempo, 422535
1, 67920, Note_on_c, 0, 94, 0
1, 67920, Note_on_c, 0, 48, 0
1, 67920, Note_on_c, 0, 93, 63
1, 67920, Note_on_c, 0, 55, 46
1, 68040, Note_on_c, 0, 93, 0
1, 68040, Note_on_c, 0, 92, 61
1, 68080, Tempo, 424028
1, 68160, Note_on_c, 0, 92, 0
1, 68160, Note_on_c, 0, 96, 0
1, 68160, Note_on_c, 0, 91, 56
1, 68160, Note_on_c, 0, 96, 67
1, 68160, Note_on_c, 0, 58, 48
1, 68200, Tempo, 425532
1, 68280, Note_on_c, 0, 91, 0
1, 68280, Note_on_c, 0, 90, 54
1, 68320, Tempo, 427046
1, 68400, Note_on_c, 0, 90, 0
1, 68400, Note_on_c, 0, 89, 53
1, 68400, Note_on_c, 0, 61, 50
1, 68440, Tempo, 428571
1, 68520, Note_on_c, 0, 89, 0
1, 68520, Note_on_c, 0, 88, 53
1, 68560, Tempo, 430108
1, 68640, Tempo, 439560
1, 68640, Note_on_c, 0, 88, 0
1, 68640, Note_on_c, 0, 61, 0
1, 68640, Note_on_c, 0, 96, 0
1, 68640, Note_on_c, 0, 85, 48
1, 68640, Note_on_c, 0, 91, 56
1, 68640, Note_on_c, 0, 64, 52
1, 68650, Control_c, 0, 64, 0
1, 68674, Control_c, 0, 64, 127
1, 68760, Note_on_c, 0, 85, 0
1, 68760, Note_on_c, 0, 79, 46
1, 68880, Note_on_c, 0, 79, 0
1, 68880, Note_on_c, 0, 91, 0
1, 68880, Note_on_c, 0, 88, 51
1, 68880, Note_on_c, 0, 84, 43
1, 68880, Note_on_c, 0, 60, 49
1, 69000, Note_on_c, 0, 84, 0
1, 69000, Note_on_c, 0, 82, 43
1, 69120, Tempo, 434783
1, 69120, Note_on_c, 0, 82, 0
1, 69120, Note_on_c, 0, 60, 0
1, 69120, Note_on_c, 0, 58, 0
1, 69120, Note_on_c, 0, 64, 0
1, 69120, Note_on_c, 0, 55, 0
1, 69120, Note_on_c, 0, 88, 0
1, 69120, Note_on_c, 0, 84, 43
1, 69120, Note_on_c, 0, 41, 43
1, 69129, Control_c, 0, 64, 0
1, 69200, Control_c, 0, 64, 127
1, 69240, Note_on_c, 0, 84, 0
1, 69240, Note_on_c, 0, 89, 38
1, 69240, Note_on_c, 0, 93, 47
1, 69360, Note_on_c, 0, 89, 0
1, 69360, Note_on_c, 0, 41, 0
1, 69360, Note_on_c, 0, 81, 43
1, 69360, Note_on_c, 0, 63, 35
1, 69360, Note_on_c, 0, 72, 43
1, 69480, Note_on_c, 0, 81, 0
1, 69480, Note_on_c, 0, 93, 0
1, 69480, Note_on_c, 0, 78, 43
1, 69600, Tempo, 441176
1, 69600, Note_on_c, 0, 78, 0
1, 69600, Note_on_c, 0, 63, 0
1, 69600, Note_on_c, 0, 72, 0
1, 69600, Note_on_c, 0, 77, 43
1, 69600, Note_on_c, 0, 62, 32
1, 69600, Note_on_c, 0, 70, 38
1, 69610, Control_c, 0, 64, 0
1, 69674, Control_c, 0, 64, 127
1, 69720, Note_on_c, 0, 77, 0
1, 69720, Note_on_c, 0, 86, 38
1, 69720, Note_on_c, 0, 89, 47
1, 69840, Note_on_c, 0, 86, 0
1, 69840, Note_on_c, 0, 62, 0
1, 69840, Note_on_c, 0, 70, 0
1, 69840, Note_on_c, 0, 77, 44
1, 69840, Note_on_c, 0, 61, 37
1, 69840, Note_on_c, 0, 65, 44
1, 69840, Note_on_c, 0, 58, 37
1, 69960, Note_on_c, 0, 77, 0
1, 69960, Note_on_c, 0, 89, 0
1, 69960, Note_on_c, 0, 73, 44
1, 70080, Note_on_c, 0, 73, 0
1, 70080, Note_on_c, 0, 58, 0
1, 70080, Note_on_c, 0, 72, 44
1, 70080, Note_on_c, 0, 60, 44
1, 70080, Note_on_c, 0, 57, 37
1, 70089, Control_c, 0, 64, 0
1, 70120, Control_c, 0, 64, 127
1, 70200, Note_on_c, 0, 72, 0
1, 70200, Note_on_c, 0, 84, 48
1, 70200, Note_on_c, 0, 81, 40
1, 70320, Note_on_c, 0, 81, 0
1, 70320, Note_on_c, 0, 61, 0
1, 70320, Note_on_c, 0, 57, 0
1, 70320, Note_on_c, 0, 65, 0
1, 70320, Note_on_c, 0, 72, 44
1, 70320, Note_on_c, 0, 64, 38
1, 70320, Note_on_c, 0, 55, 32
1, 70440, Note_on_c, 0, 72, 0
1, 70440, Note_on_c, 0, 84, 0
1, 70440, Note_on_c, 0, 70, 44
1, 70560, Note_on_c, 0, 70, 0
1, 70560, Note_on_c, 0, 55, 0
1, 70560, Note_on_c, 0, 64, 0
1, 70560, Note_on_c, 0, 69, 44
1, 70560, Note_on_c, 0, 53, 38
1, 70560, Note_on_c, 0, 65, 38
1, 70564, Control_c, 0, 64, 0
1, 70620, Control_c, 0, 64, 127
1, 70680, Note_on_c, 0, 69, 0
1, 70680, Note_on_c, 0, 77, 40
1, 70680, Note_on_c, 0, 81, 48
1, 70800, Tempo, 454545
1, 70800, Note_on_c, 0, 77, 0
1, 70800, Note_on_c, 0, 60, 0
1, 70800, Note_on_c, 0, 65, 0
1, 70800, Note_on_c, 0, 53, 0
1, 70800, Note_on_c, 0, 69, 44
1, 70920, Note_on_c, 0, 69, 0
1, 70920, Note_on_c, 0, 81, 0
1, 70920, Note_on_c, 0, 65, 44
1, 71040, Note_on_c, 0, 65, 0
1, 71040, Note_on_c, 0, 41, 27
1, 71049, Control_c, 0, 64, 0
1, 71070, Note_on_c, 0, 48, 28
1, 71100, Note_on_c, 0, 53, 29
1, 71125, Control_c, 0, 64, 127
1, 71130, Note_on_c, 0, 57, 36
1, 71160, Note_on_c, 0, 60, 40
1, 71520, Note_on_c, 0, 60, 0
1, 71520, Note_on_c, 0, 53, 0
1, 71520, Note_on_c, 0, 41, 0
1, 71520, Note_on_c, 0, 48, 0
1, 71520, Note_on_c, 0, 57, 0
1, 71530, Control_c, 0, 64, 0
1, 71760, Tempo, 446097
1, 71760, Note_on_c, 0, 93, 65
1, 71760, Note_on_c, 0, 96, 77
1, 71760, Note_on_c, 0, 87, 72
1, 71795, Control_c, 0, 64, 127
1, 71880, Note_on_c, 0, 93, 0
1, 71880, Note_on_c, 0, 84, 59
1, 71880, Note_on_c, 0, 90, 71
1, 72000, Tempo, 430108
1, 72000, Note_on_c, 0, 90, 0
1, 72000, Note_on_c, 0, 96, 0
1, 72000, Note_on_c, 0, 87, 0
1, 72000, Note_on_c, 0, 84, 0
1, 72000, Note_on_c, 0, 91, 75
1, 72000, Note_on_c, 0, 88, 77
1, 72006, Control_c, 0, 64, 0
1, 72063, Control_c, 0, 64, 127
1, 72120, Note_on_c, 0, 84, 68
1, 72240, Tempo, 446097
1, 72240, Note_on_c, 0, 84, 0
1, 72240, Note_on_c, 0, 88, 0
1, 72240, Note_on_c, 0, 91, 0
1, 72240, Note_on_c, 0, 81, 63
1, 72240, Note_on_c, 0, 84, 74
1, 72240, Note_on_c, 0, 75, 71
1, 72250, Control_c, 0, 64, 0
1, 72297, Control_c, 0, 64, 127
1, 72360, Note_on_c, 0, 81, 0
1, 72360, Note_on_c, 0, 72, 54
1, 72360, Note_on_c, 0, 78, 65
1, 72480, Tempo, 430108
1, 72480, Note_on_c, 0, 78, 0
1, 72480, Note_on_c, 0, 84, 0
1, 72480, Note_on_c, 0, 75, 0
1, 72480, Note_on_c, 0, 72, 0
1, 72480, Note_on_c, 0, 79, 71
1, 72480, Note_on_c, 0, 76, 76
1, 72486, Control_c, 0, 64, 0
1, 72555, Control_c, 0, 64, 127
1, 72600, Note_on_c, 0, 72, 63
1, 72720, Tempo, 444444
1, 72720, Note_on_c, 0, 72, 0
1, 72720, Note_on_c, 0, 76, 0
1, 72720, Note_on_c, 0, 79, 0
1, 72720, Note_on_c, 0, 69, 58
1, 72720, Note_on_c, 0, 72, 69
1, 72720, Note_on_c, 0, 63, 66
1, 72730, Control_c, 0, 64, 0
1, 72789, Control_c, 0, 64, 127
1, 72840, Note_on_c, 0, 69, 0
1, 72840, Note_on_c, 0, 60, 51
1, 72840, Note_on_c, 0, 66, 60
1, 72960, Tempo, 430108
1, 72960, Note_on_c, 0, 66, 0
1, 72960, Note_on_c, 0, 72, 0
1, 72960, Note_on_c, 0, 63, 0
1, 72960, Note_on_c, 0, 60, 0
1, 72960, Note_on_c, 0, 67, 64
1, 72960, Note_on_c, 0, 64, 72
1, 72970, Control_c, 0, 64, 0
1, 73017, Control_c, 0, 64, 127
1, 73080, Note_on_c, 0, 65, 63
1, 73200, Tempo, 459770
1, 73200, Note_on_c, 0, 65, 0
1, 73200, Note_on_c, 0, 64, 0
1, 73200, Note_on_c, 0, 67, 0
1, 73200, Note_on_c, 0, 67, 71
1, 73200, Note_on_c, 0, 64, 59
1, 73200, Note_on_c, 0, 34, 55
1, 73200, Note_on_c, 0, 46, 67
1, 73217, Control_c, 0, 64, 0
1, 73251, Control_c, 0, 64, 127
1, 73320, Note_on_c, 0, 64, 0
1, 73320, Note_on_c, 0, 62, 65
1, 73440, Tempo, 480000
1, 73440, Note_on_c, 0, 62, 0
1, 73440, Note_on_c, 0, 46, 0
1, 73440, Note_on_c, 0, 34, 0
1, 73440, Note_on_c, 0, 67, 0
1, 73440, Note_on_c, 0, 69, 69
1, 73440, Note_on_c, 0, 61, 58
1, 73440, Note_on_c, 0, 33, 64
1, 73440, Note_on_c, 0, 45, 76
1, 73448, Control_c, 0, 64, 0
1, 73520, Control_c, 0, 64, 127
1, 73560, Note_on_c, 0, 61, 0
1, 73560, Note_on_c, 0, 58, 58
1, 73680, Tempo, 444444
1, 73680, Note_on_c, 0, 58, 0
1, 73680, Note_on_c, 0, 45, 0
1, 73680, Note_on_c, 0, 33, 0
1, 73680, Note_on_c, 0, 69, 0
1, 73680, Note_on_c, 0, 64, 58
1, 73680, Note_on_c, 0, 57, 54
1, 73686, Control_c, 0, 64, 0
1, 73743, Control_c, 0, 64, 127
1, 73800, Note_on_c, 0, 57, 0
1, 73800, Note_on_c, 0, 52, 47
1, 73920, Note_on_c, 0, 52, 0
1, 73920, Note_on_c, 0, 67, 63
1, 73920, Note_on_c, 0, 49, 52
1, 74040, Note_on_c, 0, 49, 0
1, 74040, Note_on_c, 0, 46, 51
1, 74160, Note_on_c, 0, 46, 0
1, 74160, Note_on_c, 0, 67, 0
1, 74160, Note_on_c, 0, 70, 68
1, 74160, Note_on_c, 0, 45, 49
1, 74280, Note_on_c, 0, 45, 0
1, 74280, Note_on_c, 0, 43, 48
1, 74400, Tempo, 451128
1, 74400, Note_on_c, 0, 43, 0
1, 74400, Note_on_c, 0, 70, 0
1, 74400, Note_on_c, 0, 69, 57
1, 74400, Note_on_c, 0, 73, 70
1, 74400, Note_on_c, 0, 40, 47
1, 74410, Control_c, 0, 64, 0
1, 74492, Control_c, 0, 64, 127
1, 74520, Note_on_c, 0, 40, 0
1, 74520, Note_on_c, 0, 37, 50
1, 74640, Note_on_c, 0, 37, 0
1, 74640, Note_on_c, 0, 69, 0
1, 74640, Note_on_c, 0, 67, 69
1, 74640, Note_on_c, 0, 34, 53
1, 74760, Note_on_c, 0, 34, 0
1, 74760, Note_on_c, 0, 33, 55
1, 74880, Note_on_c, 0, 33, 0
1, 74880, Note_on_c, 0, 67, 0
1, 74880, Note_on_c, 0, 73, 0
1, 74880, Note_on_c, 0, 64, 0
1, 74880, Note_on_c, 0, 74, 66
1, 74880, Note_on_c, 0, 65, 63
1, 74880, Control_c, 0, 64, 0
1, 74880, Note_on_c, 0, 38, 58
1, 74920, Tempo, 481928
1, 75000, Note_on_c, 0, 38, 0
1, 75000, Note_on_c, 0, 41, 58
1, 75120, Tempo, 446097
1, 75120, Note_on_c, 0, 41, 0
1, 75120, Note_on_c, 0, 65, 0
1, 75120, Note_on_c, 0, 74, 0
1, 75120, Note_on_c, 0, 85, 65
1, 75120, Note_on_c, 0, 93, 77
1, 75120, Note_on_c, 0, 45, 59
1, 75171, Control_c, 0, 64, 127
1, 75240, Note_on_c, 0, 45, 0
1, 75240, Note_on_c, 0, 85, 0
1, 75240, Note_on_c, 0, 79, 59
1, 75240, Note_on_c, 0, 88, 71
1, 75240, Note_on_c, 0, 49, 60
1, 75360, Tempo, 430108
1, 75360, Note_on_c, 0, 49, 0
1, 75360, Note_on_c, 0, 93, 0
1, 75360, Note_on_c, 0, 79, 0
1, 75360, Note_on_c, 0, 88, 0
1, 75360, Note_on_c, 0, 86, 65
1, 75360, Note_on_c, 0, 89, 75
1, 75360, Note_on_c, 0, 50, 60
1, 75370, Control_c, 0, 64, 0
1, 75423, Control_c, 0, 64, 127
1, 75480, Note_on_c, 0, 50, 0
1, 75480, Note_on_c, 0, 86, 0
1, 75480, Note_on_c, 0, 77, 68
1, 75480, Note_on_c, 0, 53, 61
1, 75600, Tempo, 446097
1, 75600, Note_on_c, 0, 53, 0
1, 75600, Note_on_c, 0, 77, 0
1, 75600, Note_on_c, 0, 89, 0
1, 75600, Note_on_c, 0, 72, 63
1, 75600, Note_on_c, 0, 81, 74
1, 75600, Note_on_c, 0, 57, 62
1, 75610, Control_c, 0, 64, 0
1, 75652, Control_c, 0, 64, 127
1, 75720, Note_on_c, 0, 57, 0
1, 75720, Note_on_c, 0, 72, 0
1, 75720, Note_on_c, 0, 67, 54
1, 75720, Note_on_c, 0, 76, 65
1, 75720, Note_on_c, 0, 61, 63
1, 75840, Tempo, 430108
1, 75840, Note_on_c, 0, 61, 0
1, 75840, Note_on_c, 0, 81, 0
1, 75840, Note_on_c, 0, 67, 0
1, 75840, Note_on_c, 0, 76, 0
1, 75840, Note_on_c, 0, 74, 65
1, 75840, Note_on_c, 0, 77, 71
1, 75840, Note_on_c, 0, 62, 63
1, 75850, Control_c, 0, 64, 0
1, 75914, Control_c, 0, 64, 127
1, 75960, Note_on_c, 0, 62, 0
1, 75960, Note_on_c, 0, 74, 0
1, 75960, Note_on_c, 0, 64, 63
1, 76080, Tempo, 459770
1, 76080, Note_on_c, 0, 64, 0
1, 76080, Note_on_c, 0, 77, 0
1, 76080, Note_on_c, 0, 65, 58
1, 76080, Note_on_c, 0, 71, 69
1, 76080, Note_on_c, 0, 37, 55
1, 76080, Note_on_c, 0, 49, 67
1, 76091, Control_c, 0, 64, 0
1, 76143, Control_c, 0, 64, 127
1, 76200, Note_on_c, 0, 65, 0
1, 76200, Note_on_c, 0, 67, 60
1, 76320, Tempo, 442804
1, 76320, Note_on_c, 0, 67, 0
1, 76320, Note_on_c, 0, 49, 0
1, 76320, Note_on_c, 0, 37, 0
1, 76320, Note_on_c, 0, 71, 0
1, 76320, Note_on_c, 0, 68, 63
1, 76320, Note_on_c, 0, 72, 68
1, 76320, Note_on_c, 0, 36, 64
1, 76320, Note_on_c, 0, 48, 76
1, 76329, Control_c, 0, 64, 0
1, 76371, Control_c, 0, 64, 127
1, 76440, Note_on_c, 0, 68, 0
1, 76440, Note_on_c, 0, 65, 63
1, 76560, Tempo, 449438
1, 76560, Note_on_c, 0, 65, 0
1, 76560, Note_on_c, 0, 48, 0
1, 76560, Note_on_c, 0, 36, 0
1, 76560, Note_on_c, 0, 64, 58
1, 76560, Note_on_c, 0, 55, 57
1, 76680, Note_on_c, 0, 64, 0
1, 76680, Note_on_c, 0, 67, 63
1, 76800, Tempo, 459770
1, 76800, Note_on_c, 0, 67, 0
1, 76800, Note_on_c, 0, 72, 0
1, 76800, Note_on_c, 0, 70, 55
1, 76800, Note_on_c, 0, 58, 61
1, 76810, Control_c, 0, 64, 0
1, 76920, Note_on_c, 0, 70, 0
1, 76920, Note_on_c, 0, 73, 53
1, 76920, Control_c, 0, 64, 127
1, 77040, Tempo, 452830
1, 77040, Note_on_c, 0, 73, 0
1, 77040, Note_on_c, 0, 58, 0
1, 77040, Note_on_c, 0, 76, 52
1, 77040, Note_on_c, 0, 61, 64
1, 77160, Note_on_c, 0, 76, 0
1, 77160, Note_on_c, 0, 79, 52
1, 77280, Tempo, 470588
1, 77280, Note_on_c, 0, 79, 0
1, 77280, Note_on_c, 0, 61, 0
1, 77280, Note_on_c, 0, 82, 49
1, 77280, Note_on_c, 0, 60, 57
1, 77280, Note_on_c, 0, 64, 68
1, 77290, Control_c, 0, 64, 0
1, 77354, Control_c, 0, 64, 127
1, 77400, Note_on_c, 0, 82, 0
1, 77400, Note_on_c, 0, 84, 51
1, 77520, Note_on_c, 0, 60, 0
1, 77520, Note_on_c, 0, 88, 51
1, 77520, Note_on_c, 0, 58, 63
1, 77640, Note_on_c, 0, 91, 52
1, 77760, Tempo, 463320
1, 77760, Note_on_c, 0, 58, 0
1, 77760, Note_on_c, 0, 55, 0
1, 77760, Note_on_c, 0, 96, 54
1, 77760, Note_on_c, 0, 60, 59
1, 77760, Note_on_c, 0, 57, 59
1, 77770, Control_c, 0, 64, 0
1, 77797, Control_c, 0, 64, 127
1, 77880, Note_on_c, 0, 88, 0
1, 77880, Note_on_c, 0, 84, 0
1, 77880, Note_on_c, 0, 91, 0
1, 77880, Note_on_c, 0, 84, 48
1, 78000, Note_on_c, 0, 96, 0
1, 78000, Note_on_c, 0, 57, 0
1, 78000, Note_on_c, 0, 64, 0
1, 78000, Note_on_c, 0, 60, 0
1, 78000, Note_on_c, 0, 96, 53
1, 78000, Note_on_c, 0, 60, 42
1, 78000, Note_on_c, 0, 65, 50
1, 78003, Control_c, 0, 64, 0
1, 78026, Control_c, 0, 64, 127
1, 78120, Note_on_c, 0, 84, 0
1, 78120, Note_on_c, 0, 89, 49
1, 78240, Tempo, 489796
1, 78240, Note_on_c, 0, 89, 0
1, 78240, Note_on_c, 0, 96, 0
1, 78240, Note_on_c, 0, 83, 56
1, 78240, Note_on_c, 0, 95, 56
1, 78240, Note_on_c, 0, 55, 54
1, 78243, Control_c, 0, 64, 0
1, 78311, Control_c, 0, 64, 127
1, 78360, Note_on_c, 0, 95, 0
1, 78360, Note_on_c, 0, 92, 51
1, 78480, Note_on_c, 0, 92, 0
1, 78480, Note_on_c, 0, 65, 0
1, 78480, Note_on_c, 0, 83, 0
1, 78480, Note_on_c, 0, 60, 0
1, 78480, Note_on_c, 0, 86, 52
1, 78480, Note_on_c, 0, 91, 52
1, 78480, Note_on_c, 0, 65, 49
1, 78480, Note_on_c, 0, 59, 42
1, 78490, Control_c, 0, 64, 0
1, 78520, Control_c, 0, 64, 127
1, 78600, Note_on_c, 0, 91, 0
1, 78600, Note_on_c, 0, 89, 54
1, 78660, Tempo, 621762
1, 78690, Note_on_c, 0, 93, 46
1, 78720, Tempo, 524017
1, 78720, Note_on_c, 0, 93, 0
1, 78720, Note_on_c, 0, 86, 0
1, 78720, Note_on_c, 0, 59, 0
1, 78720, Note_on_c, 0, 55, 0
1, 78720, Note_on_c, 0, 89, 0
1, 78720, Note_on_c, 0, 65, 0
1, 78720, Note_on_c, 0, 91, 54
1, 78720, Note_on_c, 0, 88, 46
1, 78720, Note_on_c, 0, 60, 45
1, 78720, Note_on_c, 0, 48, 37
1, 78726, Control_c, 0, 64, 0
1, 78900, Tempo, 591133
1, 78900, Note_on_c, 0, 88, 0
1, 78900, Note_on_c, 0, 85, 52
1, 78930, Note_on_c, 0, 89, 45
1, 78960, Tempo, 550459
1, 78960, Note_on_c, 0, 89, 0
1, 78960, Note_on_c, 0, 91, 0
1, 78960, Note_on_c, 0, 85, 0
1, 78960, Note_on_c, 0, 60, 0
1, 78960, Note_on_c, 0, 88, 56
1, 78960, Note_on_c, 0, 84, 47
1, 78960, Note_on_c, 0, 58, 37
1, 78960, Note_on_c, 0, 55, 37
1, 78960, Note_on_c, 0, 64, 44
1, 79140, Tempo, 603015
1, 79140, Note_on_c, 0, 84, 0
1, 79140, Note_on_c, 0, 82, 52
1, 79170, Note_on_c, 0, 86, 45
1, 79200, Tempo, 566038
1, 79200, Note_on_c, 0, 86, 0
1, 79200, Note_on_c, 0, 88, 0
1, 79200, Note_on_c, 0, 64, 0
1, 79200, Note_on_c, 0, 58, 0
1, 79200, Note_on_c, 0, 48, 0
1, 79200, Note_on_c, 0, 82, 0
1, 79200, Note_on_c, 0, 55, 0
1, 79200, Note_on_c, 0, 84, 54
1, 79200, Note_on_c, 0, 81, 46
1, 79200, Note_on_c, 0, 65, 45
1, 79200, Note_on_c, 0, 53, 37
1, 79380, Tempo, 638298
1, 79380, Note_on_c, 0, 81, 0
1, 79380, Note_on_c, 0, 78, 52
1, 79410, Note_on_c, 0, 82, 49
1, 79440, Tempo, 585366
1, 79440, Note_on_c, 0, 82, 0
1, 79440, Note_on_c, 0, 84, 0
1, 79440, Note_on_c, 0, 78, 0
1, 79440, Note_on_c, 0, 65, 0
1, 79440, Note_on_c, 0, 81, 54
1, 79440, Note_on_c, 0, 77, 47
1, 79440, Note_on_c, 0, 63, 33
1, 79440, Note_on_c, 0, 60, 33
1, 79440, Note_on_c, 0, 69, 40
1, 79560, Tempo, 736196
1, 79620, Note_on_c, 0, 77, 0
1, 79620, Note_on_c, 0, 75, 52
1, 79680, Tempo, 497925
1, 79680, Note_on_c, 0, 75, 0
1, 79680, Note_on_c, 0, 69, 0
1, 79680, Note_on_c, 0, 63, 0
1, 79680, Note_on_c, 0, 53, 0
1, 79680, Note_on_c, 0, 81, 0
1, 79680, Note_on_c, 0, 60, 0
1, 79680, Note_on_c, 0, 82, 67
1, 79680, Note_on_c, 0, 74, 67
1, 79680, Note_on_c, 0, 58, 67
1, 79757, Control_c, 0, 64, 127
1, 79800, Tempo, 495868
1, 79800, Note_on_c, 0, 74, 0
1, 79800, Note_on_c, 0, 79, 61
1, 79880, Tempo, 493827
1, 79920, Note_on_c, 0, 79, 0
1, 79920, Note_on_c, 0, 82, 64
1, 79920, Note_on_c, 0, 67, 51
1, 79920, Note_on_c, 0, 65, 43
1, 79920, Note_on_c, 0, 62, 43
1, 79960, Tempo, 491803
1, 80040, Tempo, 489796
1, 80040, Note_on_c, 0, 82, 0
1, 80040, Note_on_c, 0, 85, 66
1, 80120, Tempo, 487805
1, 80160, Note_on_c, 0, 85, 0
1, 80160, Note_on_c, 0, 82, 0
1, 80160, Note_on_c, 0, 86, 68
1, 80170, Control_c, 0, 64, 0
1, 80223, Control_c, 0, 64, 127
1, 80240, Tempo, 485830
1, 80280, Note_on_c, 0, 86, 0
1, 80280, Note_on_c, 0, 91, 70
1, 80320, Tempo, 483871
1, 80400, Tempo, 481928
1, 80400, Note_on_c, 0, 91, 0
1, 80400, Note_on_c, 0, 94, 72
1, 80480, Tempo, 480000
1, 80520, Note_on_c, 0, 94, 0
1, 80520, Note_on_c, 0, 97, 74
1, 80560, Tempo, 478088
1, 80580, Tempo, 528634
1, 80640, Tempo, 476190
1, 80640, Note_on_c, 0, 97, 0
1, 80640, Note_on_c, 0, 67, 0
1, 80640, Note_on_c, 0, 58, 0
1, 80640, Note_on_c, 0, 62, 0
1, 80640, Note_on_c, 0, 65, 0
1, 80640, Note_on_c, 0, 98, 76
1, 80640, Note_on_c, 0, 48, 51
1, 80640, Note_on_c, 0, 60, 60
1, 80645, Control_c, 0, 64, 0
1, 80703, Control_c, 0, 64, 127
1, 80760, Note_on_c, 0, 88, 54
1, 80760, Note_on_c, 0, 90, 68
1, 80880, Note_on_c, 0, 90, 0
1, 80880, Note_on_c, 0, 60, 0
1, 80880, Note_on_c, 0, 48, 0
1, 80880, Note_on_c, 0, 91, 63
1, 80880, Note_on_c, 0, 64, 68
1, 80880, Note_on_c, 0, 60, 57
1, 80880, Note_on_c, 0, 58, 57
1, 80880, Note_on_c, 0, 55, 57
1, 80886, Control_c, 0, 64, 0
1, 80920, Control_c, 0, 64, 127
1, 81000, Tempo, 521739
1, 81000, Note_on_c, 0, 91, 0
1, 81000, Note_on_c, 0, 98, 0
1, 81000, Note_on_c, 0, 96, 60
1, 81120, Tempo, 476190
1, 81120, Note_on_c, 0, 96, 0
1, 81120, Note_on_c, 0, 88, 0
1, 81120, Note_on_c, 0, 93, 76
1, 81130, Control_c, 0, 64, 0
1, 81200, Control_c, 0, 64, 127
1, 81240, Note_on_c, 0, 84, 52
1, 81240, Note_on_c, 0, 87, 65
1, 81360, Note_on_c, 0, 87, 0
1, 81360, Note_on_c, 0, 55, 0
1, 81360, Note_on_c, 0, 58, 0
1, 81360, Note_on_c, 0, 64, 0
1, 81360, Note_on_c, 0, 60, 0
1, 81360, Note_on_c, 0, 88, 60
1, 81360, Note_on_c, 0, 70, 68
1, 81360, Note_on_c, 0, 67, 57
1, 81360, Note_on_c, 0, 60, 57
1, 81370, Control_c, 0, 64, 0
1, 81423, Control_c, 0, 64, 127
1, 81480, Tempo, 517241
1, 81480, Note_on_c, 0, 88, 0
1, 81480, Note_on_c, 0, 93, 0
1, 81480, Note_on_c, 0, 91, 59
1, 81600, Tempo, 476190
1, 81600, Note_on_c, 0, 91, 0
1, 81600, Note_on_c, 0, 84, 0
1, 81600, Note_on_c, 0, 89, 75
1, 81610, Control_c, 0, 64, 0
1, 81680, Control_c, 0, 64, 127
1, 81720, Note_on_c, 0, 82, 52
1, 81720, Note_on_c, 0, 85, 60
1, 81840, Note_on_c, 0, 85, 0
1, 81840, Note_on_c, 0, 60, 0
1, 81840, Note_on_c, 0, 67, 0
1, 81840, Note_on_c, 0, 70, 0
1, 81840, Note_on_c, 0, 84, 56
1, 81840, Note_on_c, 0, 52, 56
1, 81840, Note_on_c, 0, 58, 67
1, 81850, Control_c, 0, 64, 0
1, 81874, Control_c, 0, 64, 127
1, 81960, Tempo, 519481
1, 81960, Note_on_c, 0, 84, 0
1, 81960, Note_on_c, 0, 89, 0
1, 81960, Note_on_c, 0, 88, 56
1, 82080, Tempo, 489796
1, 82080, Note_on_c, 0, 88, 0
1, 82080, Note_on_c, 0, 58, 0
1, 82080, Note_on_c, 0, 52, 0
1, 82080, Note_on_c, 0, 82, 0
1, 82080, Note_on_c, 0, 89, 73
1, 82080, Note_on_c, 0, 57, 47
1, 82080, Note_on_c, 0, 60, 56
1, 82087, Control_c, 0, 64, 0
1, 82121, Control_c, 0, 64, 127
1, 82200, Note_on_c, 0, 89, 0
1, 82200, Note_on_c, 0, 84, 63
1, 82320, Note_on_c, 0, 84, 0
1, 82320, Note_on_c, 0, 60, 0
1, 82320, Note_on_c, 0, 57, 0
1, 82320, Note_on_c, 0, 81, 66
1, 82440, Tempo, 558140
1, 82440, Note_on_c, 0, 81, 0
1, 82440, Note_on_c, 0, 93, 60
1, 82560, Note_on_c, 0, 93, 0
1, 82560, Note_on_c, 0, 41, 47
1, 82567, Control_c, 0, 64, 0
1, 82590, Note_on_c, 0, 48, 47
1, 82607, Control_c, 0, 64, 127
1, 82620, Note_on_c, 0, 53, 56
1, 82650, Note_on_c, 0, 57, 49
1, 82680, Note_on_c, 0, 60, 49
1, 82710, Note_on_c, 0, 65, 58
1, 82800, Tempo, 579710
1, 82834, Control_c, 0, 64, 0
1, 83040, Note_on_c, 0, 65, 0
1, 83040, Note_on_c, 0, 48, 0
1, 83040, Note_on_c, 0, 53, 0
1, 83040, Note_on_c, 0, 41, 0
1, 83040, Note_on_c, 0, 60, 0
1, 83040, Note_on_c, 0, 57, 0
1, 83280, Tempo, 446097
1, 83280, Note_on_c, 0, 93, 65
1, 83280, Note_on_c, 0, 96, 77
1, 83280, Note_on_c, 0, 87, 72
1, 83315, Control_c, 0, 64, 127
1, 83400, Note_on_c, 0, 93, 0
1, 83400, Note_on_c, 0, 84, 59
1, 83400, Note_on_c, 0, 90, 71
1, 83520, Tempo, 430108
1, 83520, Note_on_c, 0, 90, 0
1, 83520, Note_on_c, 0, 96, 0
1, 83520, Note_on_c, 0, 87, 0
1, 83520, Note_on_c, 0, 84, 0
1, 83520, Note_on_c, 0, 91, 75
1, 83520, Note_on_c, 0, 88, 77
1, 83526, Control_c, 0, 64, 0
1, 83583, Control_c, 0, 64, 127
1, 83640, Note_on_c, 0, 84, 68
1, 83760, Tempo, 446097
1, 83760, Note_on_c, 0, 84, 0
1, 83760, Note_on_c, 0, 88, 0
1, 83760, Note_on_c, 0, 91, 0
1, 83760, Note_on_c, 0, 81, 63
1, 83760, Note_on_c, 0, 84, 74
1, 83760, Note_on_c, 0, 75, 71
1, 83770, Control_c, 0, 64, 0
1, 83817, Control_c, 0, 64, 127
1, 83880, Note_on_c, 0, 81, 0
1, 83880, Note_on_c, 0, 72, 54
1, 83880, Note_on_c, 0, 78, 65
1, 84000, Tempo, 424028
1, 84000, Note_on_c, 0, 78, 0
1, 84000, Note_on_c, 0, 84, 0
1, 84000, Note_on_c, 0, 75, 0
1, 84000, Note_on_c, 0, 72, 0
1, 84000, Note_on_c, 0, 79, 71
1, 84000, Note_on_c, 0, 76, 76
1, 84010, Control_c, 0, 64, 0
1, 84023, Control_c, 0, 64, 127
1, 84120, Note_on_c, 0, 72, 63
1, 84240, Tempo, 444444
1, 84240, Note_on_c, 0, 72, 0
1, 84240, Note_on_c, 0, 76, 0
1, 84240, Note_on_c, 0, 79, 0
1, 84240, Note_on_c, 0, 69, 58
1, 84240, Note_on_c, 0, 72, 69
1, 84240, Note_on_c, 0, 63, 66
1, 84250, Control_c, 0, 64, 0
1, 84274, Control_c, 0, 64, 127
1, 84360, Note_on_c, 0, 69, 0
1, 84360, Note_on_c, 0, 60, 51
1, 84360, Note_on_c, 0, 66, 60
1, 84480, Tempo, 425532
1, 84480, Note_on_c, 0, 66, 0
1, 84480, Note_on_c, 0, 72, 0
1, 84480, Note_on_c, 0, 63, 0
1, 84480, Note_on_c, 0, 60, 0
1, 84480, Note_on_c, 0, 67, 65
1, 84480, Note_on_c, 0, 64, 72
1, 84490, Control_c, 0, 64, 0
1, 84537, Control_c, 0, 64, 127
1, 84600, Note_on_c, 0, 65, 63
1, 84720, Tempo, 458015
1, 84720, Note_on_c, 0, 65, 0
1, 84720, Note_on_c, 0, 64, 0
1, 84720, Note_on_c, 0, 67, 0
1, 84720, Note_on_c, 0, 67, 71
1, 84720, Note_on_c, 0, 64, 59
1, 84720, Note_on_c, 0, 34, 55
1, 84720, Note_on_c, 0, 46, 67
1, 84737, Control_c, 0, 64, 0
1, 84771, Control_c, 0, 64, 127
1, 84840, Note_on_c, 0, 64, 0
1, 84840, Note_on_c, 0, 62, 65
1, 84960, Tempo, 476190
1, 84960, Note_on_c, 0, 62, 0
1, 84960, Note_on_c, 0, 46, 0
1, 84960, Note_on_c, 0, 34, 0
1, 84960, Note_on_c, 0, 67, 0
1, 84960, Note_on_c, 0, 69, 69
1, 84960, Note_on_c, 0, 61, 58
1, 84960, Note_on_c, 0, 33, 64
1, 84960, Note_on_c, 0, 45, 76
1, 84968, Control_c, 0, 64, 0
1, 85040, Control_c, 0, 64, 127
1, 85080, Note_on_c, 0, 61, 0
1, 85080, Note_on_c, 0, 58, 58
1, 85200, Tempo, 444444
1, 85200, Note_on_c, 0, 58, 0
1, 85200, Note_on_c, 0, 45, 0
1, 85200, Note_on_c, 0, 33, 0
1, 85200, Note_on_c, 0, 69, 0
1, 85200, Note_on_c, 0, 64, 58
1, 85200, Note_on_c, 0, 57, 54
1, 85206, Control_c, 0, 64, 0
1, 85263, Control_c, 0, 64, 127
1, 85320, Note_on_c, 0, 57, 0
1, 85320, Note_on_c, 0, 52, 47
1, 85440, Note_on_c, 0, 52, 0
1, 85440, Note_on_c, 0, 67, 63
1, 85440, Note_on_c, 0, 49, 52
1, 85560, Note_on_c, 0, 49, 0
1, 85560, Note_on_c, 0, 46, 51
1, 85680, Note_on_c, 0, 46, 0
1, 85680, Note_on_c, 0, 67, 0
1, 85680, Note_on_c, 0, 70, 68
1, 85680, Note_on_c, 0, 45, 49
1, 85800, Note_on_c, 0, 45, 0
1, 85800, Note_on_c, 0, 43, 48
1, 85920, Tempo, 456274
1, 85920, Note_on_c, 0, 43, 0
1, 85920, Note_on_c, 0, 70, 0
1, 85920, Note_on_c, 0, 69, 58
1, 85920, Note_on_c, 0, 73, 70
1, 85920, Note_on_c, 0, 40, 47
1, 85930, Control_c, 0, 64, 0
1, 85966, Control_c, 0, 64, 127
1, 86040, Note_on_c, 0, 40, 0
1, 86040, Note_on_c, 0, 37, 49
1, 86160, Note_on_c, 0, 37, 0
1, 86160, Note_on_c, 0, 69, 0
1, 86160, Note_on_c, 0, 67, 69
1, 86160, Note_on_c, 0, 34, 51
1, 86280, Note_on_c, 0, 34, 0
1, 86280, Note_on_c, 0, 33, 53
1, 86400, Note_on_c, 0, 33, 0
1, 86400, Note_on_c, 0, 67, 0
1, 86400, Note_on_c, 0, 73, 0
1, 86400, Note_on_c, 0, 64, 0
1, 86400, Note_on_c, 0, 74, 66
1, 86400, Note_on_c, 0, 65, 63
1, 86400, Control_c, 0, 64, 0
1, 86400, Note_on_c, 0, 38, 55
1, 86440, Tempo, 481928
1, 86520, Note_on_c, 0, 38, 0
1, 86520, Note_on_c, 0, 41, 55
1, 86640, Tempo, 446097
1, 86640, Note_on_c, 0, 41, 0
1, 86640, Note_on_c, 0, 65, 0
1, 86640, Note_on_c, 0, 74, 0
1, 86640, Note_on_c, 0, 85, 65
1, 86640, Note_on_c, 0, 93, 77
1, 86640, Note_on_c, 0, 45, 56
1, 86691, Control_c, 0, 64, 127
1, 86760, Note_on_c, 0, 45, 0
1, 86760, Note_on_c, 0, 85, 0
1, 86760, Note_on_c, 0, 79, 59
1, 86760, Note_on_c, 0, 88, 71
1, 86760, Note_on_c, 0, 49, 57
1, 86880, Tempo, 422535
1, 86880, Note_on_c, 0, 49, 0
1, 86880, Note_on_c, 0, 93, 0
1, 86880, Note_on_c, 0, 79, 0
1, 86880, Note_on_c, 0, 88, 0
1, 86880, Note_on_c, 0, 86, 65
1, 86880, Note_on_c, 0, 89, 75
1, 86880, Note_on_c, 0, 50, 57
1, 86890, Control_c, 0, 64, 0
1, 86926, Control_c, 0, 64, 127
1, 87000, Note_on_c, 0, 50, 0
1, 87000, Note_on_c, 0, 86, 0
1, 87000, Note_on_c, 0, 77, 68
1, 87000, Note_on_c, 0, 53, 58
1, 87120, Tempo, 446097
1, 87120, Note_on_c, 0, 53, 0
1, 87120, Note_on_c, 0, 77, 0
1, 87120, Note_on_c, 0, 89, 0
1, 87120, Note_on_c, 0, 72, 63
1, 87120, Note_on_c, 0, 81, 74
1, 87120, Note_on_c, 0, 57, 59
1, 87130, Control_c, 0, 64, 0
1, 87149, Control_c, 0, 64, 127
1, 87240, Note_on_c, 0, 57, 0
1, 87240, Note_on_c, 0, 72, 0
1, 87240, Note_on_c, 0, 67, 54
1, 87240, Note_on_c, 0, 76, 65
1, 87240, Note_on_c, 0, 61, 60
1, 87360, Tempo, 425532
1, 87360, Note_on_c, 0, 61, 0
1, 87360, Note_on_c, 0, 81, 0
1, 87360, Note_on_c, 0, 67, 0
1, 87360, Note_on_c, 0, 76, 0
1, 87360, Note_on_c, 0, 74, 65
1, 87360, Note_on_c, 0, 77, 71
1, 87360, Note_on_c, 0, 62, 60
1, 87370, Control_c, 0, 64, 0
1, 87434, Control_c, 0, 64, 127
1, 87480, Note_on_c, 0, 62, 0
1, 87480, Note_on_c, 0, 74, 0
1, 87480, Note_on_c, 0, 64, 63
1, 87600, Tempo, 470588
1, 87600, Note_on_c, 0, 64, 0
1, 87600, Note_on_c, 0, 77, 0
1, 87600, Note_on_c, 0, 65, 58
1, 87600, Note_on_c, 0, 71, 69
1, 87600, Note_on_c, 0, 37, 55
1, 87600, Note_on_c, 0, 49, 67
1, 87611, Control_c, 0, 64, 0
1, 87663, Control_c, 0, 64, 127
1, 87720, Note_on_c, 0, 65, 0
1, 87720, Note_on_c, 0, 67, 60
1, 87840, Tempo, 454545
1, 87840, Note_on_c, 0, 67, 0
1, 87840, Note_on_c, 0, 49, 0
1, 87840, Note_on_c, 0, 37, 0
1, 87840, Note_on_c, 0, 71, 0
1, 87840, Note_on_c, 0, 68, 63
1, 87840, Note_on_c, 0, 72, 68
1, 87840, Note_on_c, 0, 36, 64
1, 87840, Note_on_c, 0, 48, 76
1, 87849, Control_c, 0, 64, 0
1, 87891, Control_c, 0, 64, 127
1, 87960, Note_on_c, 0, 68, 0
1, 87960, Note_on_c, 0, 65, 63
1, 88080, Tempo, 449438
1, 88080, Note_on_c, 0, 65, 0
1, 88080, Note_on_c, 0, 48, 0
1, 88080, Note_on_c, 0, 36, 0
1, 88080, Note_on_c, 0, 64, 59
1, 88080, Note_on_c, 0, 55, 58
1, 88200, Note_on_c, 0, 64, 0
1, 88200, Note_on_c, 0, 67, 65
1, 88320, Tempo, 459770
1, 88320, Note_on_c, 0, 67, 0
1, 88320, Note_on_c, 0, 72, 0
1, 88320, Note_on_c, 0, 70, 56
1, 88320, Note_on_c, 0, 58, 62
1, 88330, Control_c, 0, 64, 0
1, 88440, Note_on_c, 0, 70, 0
1, 88440, Note_on_c, 0, 73, 54
1, 88440, Control_c, 0, 64, 127
1, 88560, Tempo, 452830
1, 88560, Note_on_c, 0, 73, 0
1, 88560, Note_on_c, 0, 58, 0
1, 88560, Note_on_c, 0, 76, 53
1, 88560, Note_on_c, 0, 61, 65
1, 88680, Note_on_c, 0, 76, 0
1, 88680, Note_on_c, 0, 79, 52
1, 88800, Tempo, 480000
1, 88800, Note_on_c, 0, 79, 0
1, 88800, Note_on_c, 0, 61, 0
1, 88800, Note_on_c, 0, 82, 50
1, 88800, Note_on_c, 0, 60, 57
1, 88800, Note_on_c, 0, 64, 69
1, 88810, Control_c, 0, 64, 0
1, 88874, Control_c, 0, 64, 127
1, 88920, Note_on_c, 0, 82, 0
1, 88920, Note_on_c, 0, 84, 52
1, 89040, Note_on_c, 0, 60, 0
1, 89040, Note_on_c, 0, 88, 52
1, 89040, Note_on_c, 0, 58, 64
1, 89160, Note_on_c, 0, 91, 53
1, 89280, Tempo, 472441
1, 89280, Note_on_c, 0, 58, 0
1, 89280, Note_on_c, 0, 55, 0
1, 89280, Note_on_c, 0, 96, 55
1, 89280, Note_on_c, 0, 60, 60
1, 89280, Note_on_c, 0, 57, 60
1, 89290, Control_c, 0, 64, 0
1, 89317, Control_c, 0, 64, 127
1, 89400, Note_on_c, 0, 88, 0
1, 89400, Note_on_c, 0, 84, 0
1, 89400, Note_on_c, 0, 91, 0
1, 89400, Note_on_c, 0, 84, 49
1, 89520, Note_on_c, 0, 96, 0
1, 89520, Note_on_c, 0, 57, 0
1, 89520, Note_on_c, 0, 64, 0
1, 89520, Note_on_c, 0, 60, 0
1, 89520, Note_on_c, 0, 96, 53
1, 89520, Note_on_c, 0, 60, 42
1, 89520, Note_on_c, 0, 65, 50
1, 89523, Control_c, 0, 64, 0
1, 89546, Control_c, 0, 64, 127
1, 89640, Note_on_c, 0, 84, 0
1, 89640, Note_on_c, 0, 89, 49
1, 89760, Tempo, 491803
1, 89760, Note_on_c, 0, 89, 0
1, 89760, Note_on_c, 0, 96, 0
1, 89760, Note_on_c, 0, 83, 56
1, 89760, Note_on_c, 0, 95, 56
1, 89760, Note_on_c, 0, 55, 54
1, 89763, Control_c, 0, 64, 0
1, 89800, Tempo, 493827
1, 89820, Tempo, 495868
1, 89831, Control_c, 0, 64, 127
1, 89860, Tempo, 497925
1, 89880, Tempo, 500000
1, 89880, Note_on_c, 0, 95, 0
1, 89880, Note_on_c, 0, 92, 51
1, 89920, Tempo, 502092
1, 89940, Tempo, 504202
1, 89980, Tempo, 506329
1, 90000, Tempo, 508475
1, 90000, Note_on_c, 0, 92, 0
1, 90000, Note_on_c, 0, 65, 0
1, 90000, Note_on_c, 0, 83, 0
1, 90000, Note_on_c, 0, 60, 0
1, 90000, Note_on_c, 0, 86, 52
1, 90000, Note_on_c, 0, 91, 52
1, 90000, Note_on_c, 0, 65, 49
1, 90000, Note_on_c, 0, 59, 42
1, 90010, Control_c, 0, 64, 0
1, 90040, Tempo, 510638
1, 90040, Control_c, 0, 64, 127
1, 90060, Tempo, 512821
1, 90100, Tempo, 515021
1, 90120, Tempo, 517241
1, 90120, Note_on_c, 0, 91, 0
1, 90120, Note_on_c, 0, 89, 54
1, 90140, Tempo, 519481
1, 90180, Tempo, 638298
1, 90210, Note_on_c, 0, 93, 46
1, 90240, Tempo, 550459
1, 90240, Note_on_c, 0, 93, 0
1, 90240, Note_on_c, 0, 86, 0
1, 90240, Note_on_c, 0, 59, 0
1, 90240, Note_on_c, 0, 55, 0
1, 90240, Note_on_c, 0, 89, 0
1, 90240, Note_on_c, 0, 65, 0
1, 90240, Note_on_c, 0, 91, 54
1, 90240, Note_on_c, 0, 88, 46
1, 90240, Note_on_c, 0, 60, 45
1, 90240, Note_on_c, 0, 48, 37
1, 90246, Control_c, 0, 64, 0
1, 90420, Tempo, 600000
1, 90420, Note_on_c, 0, 88, 0
1, 90420, Note_on_c, 0, 85, 52
1, 90450, Note_on_c, 0, 89, 45
1, 90480, Tempo, 560748
1, 90480, Note_on_c, 0, 89, 0
1, 90480, Note_on_c, 0, 91, 0
1, 90480, Note_on_c, 0, 85, 0
1, 90480, Note_on_c, 0, 60, 0
1, 90480, Note_on_c, 0, 88, 56
1, 90480, Note_on_c, 0, 84, 47
1, 90480, Note_on_c, 0, 58, 37
1, 90480, Note_on_c, 0, 55, 37
1, 90480, Note_on_c, 0, 64, 44
1, 90660, Tempo, 618557
1, 90660, Note_on_c, 0, 84, 0
1, 90660, Note_on_c, 0, 82, 52
1, 90690, Note_on_c, 0, 86, 45
1, 90720, Tempo, 582524
1, 90720, Note_on_c, 0, 86, 0
1, 90720, Note_on_c, 0, 88, 0
1, 90720, Note_on_c, 0, 64, 0
1, 90720, Note_on_c, 0, 58, 0
1, 90720, Note_on_c, 0, 48, 0
1, 90720, Note_on_c, 0, 82, 0
1, 90720, Note_on_c, 0, 55, 0
1, 90720, Note_on_c, 0, 84, 54
1, 90720, Note_on_c, 0, 81, 46
1, 90720, Note_on_c, 0, 65, 45
1, 90720, Note_on_c, 0, 53, 37
1, 90900, Tempo, 634921
1, 90900, Note_on_c, 0, 81, 0
1, 90900, Note_on_c, 0, 78, 52
1, 90930, Note_on_c, 0, 82, 49
1, 90960, Tempo, 582524
1, 90960, Note_on_c, 0, 82, 0
1, 90960, Note_on_c, 0, 84, 0
1, 90960, Note_on_c, 0, 78, 0
1, 90960, Note_on_c, 0, 65, 0
1, 90960, Note_on_c, 0, 81, 54
1, 90960, Note_on_c, 0, 77, 47
1, 90960, Note_on_c, 0, 63, 33
1, 90960, Note_on_c, 0, 60, 33
1, 90960, Note_on_c, 0, 69, 40
1, 91080, Tempo, 705882
1, 91140, Note_on_c, 0, 77, 0
1, 91140, Note_on_c, 0, 75, 52
1, 91200, Tempo, 519481
1, 91200, Note_on_c, 0, 75, 0
1, 91200, Note_on_c, 0, 69, 0
1, 91200, Note_on_c, 0, 63, 0
1, 91200, Note_on_c, 0, 53, 0
1, 91200, Note_on_c, 0, 81, 0
1, 91200, Note_on_c, 0, 60, 0
1, 91200, Note_on_c, 0, 82, 60
1, 91200, Note_on_c, 0, 74, 60
1, 91200, Note_on_c, 0, 58, 60
1, 91260, Tempo, 517241
1, 91277, Control_c, 0, 64, 127
1, 91300, Tempo, 515021
1, 91320, Note_on_c, 0, 74, 0
1, 91320, Note_on_c, 0, 79, 58
1, 91360, Tempo, 512821
1, 91400, Tempo, 510638
1, 91440, Tempo, 508475
1, 91440, Note_on_c, 0, 79, 0
1, 91440, Note_on_c, 0, 82, 61
1, 91440, Note_on_c, 0, 67, 51
1, 91440, Note_on_c, 0, 65, 43
1, 91440, Note_on_c, 0, 62, 43
1, 91500, Tempo, 506329
1, 91540, Tempo, 504202
1, 91560, Note_on_c, 0, 82, 0
1, 91560, Note_on_c, 0, 85, 64
1, 91600, Tempo, 502092
1, 91640, Tempo, 500000
1, 91680, Tempo, 497925
1, 91680, Note_on_c, 0, 85, 0
1, 91680, Note_on_c, 0, 82, 0
1, 91680, Note_on_c, 0, 86, 68
1, 91690, Control_c, 0, 64, 0
1, 91740, Tempo, 495868
1, 91743, Control_c, 0, 64, 127
1, 91780, Tempo, 493827
1, 91800, Note_on_c, 0, 86, 0
1, 91800, Note_on_c, 0, 91, 70
1, 91840, Tempo, 491803
1, 91880, Tempo, 489796
1, 91920, Tempo, 487805
1, 91920, Note_on_c, 0, 91, 0
1, 91920, Note_on_c, 0, 94, 72
1, 91980, Tempo, 485830
1, 92020, Tempo, 483871
1, 92040, Note_on_c, 0, 94, 0
1, 92040, Note_on_c, 0, 97, 74
1, 92060, Tempo, 481928
1, 92080, Tempo, 478088
1, 92100, Tempo, 528634
1, 92160, Tempo, 476190
1, 92160, Note_on_c, 0, 97, 0
1, 92160, Note_on_c, 0, 67, 0
1, 92160, Note_on_c, 0, 58, 0
1, 92160, Note_on_c, 0, 62, 0
1, 92160, Note_on_c, 0, 65, 0
1, 92160, Note_on_c, 0, 98, 75
1, 92160, Note_on_c, 0, 48, 51
1, 92160, Note_on_c, 0, 60, 60
1, 92165, Control_c, 0, 64, 0
1, 92223, Control_c, 0, 64, 127
1, 92280, Note_on_c, 0, 88, 54
1, 92280, Note_on_c, 0, 90, 68
1, 92400, Note_on_c, 0, 90, 0
1, 92400, Note_on_c, 0, 60, 0
1, 92400, Note_on_c, 0, 48, 0
1, 92400, Note_on_c, 0, 91, 62
1, 92400, Note_on_c, 0, 64, 68
1, 92400, Note_on_c, 0, 60, 57
1, 92400, Note_on_c, 0, 58, 57
1, 92400, Note_on_c, 0, 55, 57
1, 92406, Control_c, 0, 64, 0
1, 92440, Control_c, 0, 64, 127
1, 92520, Tempo, 521739
1, 92520, Note_on_c, 0, 91, 0
1, 92520, Note_on_c, 0, 98, 0
1, 92520, Note_on_c, 0, 96, 62
1, 92640, Tempo, 476190
1, 92640, Note_on_c, 0, 96, 0
1, 92640, Note_on_c, 0, 88, 0
1, 92640, Note_on_c, 0, 93, 76
1, 92650, Control_c, 0, 64, 0
1, 92720, Control_c, 0, 64, 127
1, 92760, Note_on_c, 0, 84, 52
1, 92760, Note_on_c, 0, 87, 65
1, 92880, Note_on_c, 0, 87, 0
1, 92880, Note_on_c, 0, 55, 0
1, 92880, Note_on_c, 0, 58, 0
1, 92880, Note_on_c, 0, 64, 0
1, 92880, Note_on_c, 0, 60, 0
1, 92880, Note_on_c, 0, 88, 61
1, 92880, Note_on_c, 0, 70, 68
1, 92880, Note_on_c, 0, 67, 57
1, 92880, Note_on_c, 0, 60, 57
1, 92890, Control_c, 0, 64, 0
1, 92943, Control_c, 0, 64, 127
1, 93000, Tempo, 517241
1, 93000, Note_on_c, 0, 88, 0
1, 93000, Note_on_c, 0, 93, 0
1, 93000, Note_on_c, 0, 91, 62
1, 93120, Tempo, 497925
1, 93120, Note_on_c, 0, 91, 0
1, 93120, Note_on_c, 0, 84, 0
1, 93120, Note_on_c, 0, 89, 75
1, 93130, Control_c, 0, 64, 0
1, 93200, Control_c, 0, 64, 127
1, 93240, Note_on_c, 0, 82, 52
1, 93240, Note_on_c, 0, 85, 60
1, 93360, Tempo, 521739
1, 93360, Note_on_c, 0, 85, 0
1, 93360, Note_on_c, 0, 60, 0
1, 93360, Note_on_c, 0, 67, 0
1, 93360, Note_on_c, 0, 70, 0
1, 93360, Note_on_c, 0, 84, 58
1, 93360, Note_on_c, 0, 52, 56
1, 93360, Note_on_c, 0, 58, 67
1, 93370, Control_c, 0, 64, 0
1, 93394, Control_c, 0, 64, 127
1, 93480, Tempo, 582524
1, 93480, Note_on_c, 0, 84, 0
1, 93480, Note_on_c, 0, 89, 0
1, 93480, Note_on_c, 0, 88, 59
1, 93600, Tempo, 530973
1, 93600, Note_on_c, 0, 88, 0
1, 93600, Note_on_c, 0, 58, 0
1, 93600, Note_on_c, 0, 52, 0
1, 93600, Note_on_c, 0, 82, 0
1, 93600, Note_on_c, 0, 89, 73
1, 93600, Note_on_c, 0, 57, 47
1, 93600, Note_on_c, 0, 60, 56
1, 93607, Control_c, 0, 64, 0
1, 93641, Control_c, 0, 64, 127
1, 93720, Note_on_c, 0, 89, 0
1, 93720, Note_on_c, 0, 84, 63
1, 93840, Tempo, 560748
1, 93840, Note_on_c, 0, 84, 0
1, 93840, Note_on_c, 0, 60, 0
1, 93840, Note_on_c, 0, 57, 0
1, 93840, Note_on_c, 0, 81, 66
1, 93960, Tempo, 609137
1, 93960, Note_on_c, 0, 81, 0
1, 93960, Note_on_c, 0, 93, 60
1, 94080, Note_on_c, 0, 93, 0
1, 94080, Note_on_c, 0, 41, 47
1, 94087, Control_c, 0, 64, 0
1, 94101, Control_c, 0, 64, 127
1, 94110, Note_on_c, 0, 48, 47
1, 94140, Note_on_c, 0, 53, 56
1, 94170, Note_on_c, 0, 57, 49
1, 94200, Note_on_c, 0, 60, 49
1, 94230, Note_on_c, 0, 65, 58
1, 94354, Control_c, 0, 64, 0
1, 94560, Note_on_c, 0, 65, 0
1, 94560, Note_on_c, 0, 48, 0
1, 94560, Note_on_c, 0, 53, 0
1, 94560, Note_on_c, 0, 41, 0
1, 94560, Note_on_c, 0, 60, 0
1, 94560, Note_on_c, 0, 57, 0
1, 95040, Tempo, 375000
1, 95040, Marker_t, "Variation II"
1, 95040, Text_t, "bdca426d104a26ac9dcb070447587523"
1, 95040, Control_c, 0, 91, 127
1, 96000, Tempo, 568720
1, 96000, Note_on_c, 0, 69, 48
1, 96120, Note_on_c, 0, 60, 32
1, 96120, Note_on_c, 0, 63, 38
1, 96240, Tempo, 542986
1, 96240, Note_on_c, 0, 54, 44
1, 96337, Note_on_c, 0, 63, 0
1, 96337, Note_on_c, 0, 60, 0
1, 96360, Note_on_c, 0, 63, 38
1, 96360, Note_on_c, 0, 60, 32
1, 96480, Tempo, 502092
1, 96480, Note_on_c, 0, 60, 0
1, 96480, Note_on_c, 0, 63, 0
1, 96480, Note_on_c, 0, 70, 49
1, 96500, Note_on_c, 0, 69, 0
1, 96600, Note_on_c, 0, 64, 41
1, 96600, Note_on_c, 0, 60, 34
1, 96720, Tempo, 447761
1, 96720, Note_on_c, 0, 54, 0
1, 96720, Note_on_c, 0, 55, 46
1, 96800, Tempo, 446097
1, 96817, Note_on_c, 0, 60, 0
1, 96817, Note_on_c, 0, 64, 0
1, 96840, Note_on_c, 0, 64, 41
1, 96840, Note_on_c, 0, 60, 34
1, 96880, Tempo, 444444
1, 96960, Tempo, 442804
1, 96960, Note_on_c, 0, 60, 0
1, 96960, Note_on_c, 0, 64, 0
1, 96960, Note_on_c, 0, 71, 54
1, 96980, Note_on_c, 0, 70, 0
1, 97040, Tempo, 441176
1, 97080, Note_on_c, 0, 62, 36
1, 97080, Note_on_c, 0, 65, 43
1, 97120, Tempo, 439560
1, 97200, Tempo, 437956
1, 97200, Note_on_c, 0, 55, 0
1, 97200, Note_on_c, 0, 56, 49
1, 97280, Tempo, 436364
1, 97297, Note_on_c, 0, 65, 0
1, 97297, Note_on_c, 0, 62, 0
1, 97320, Note_on_c, 0, 65, 44
1, 97320, Note_on_c, 0, 62, 37
1, 97360, Tempo, 434783
1, 97440, Tempo, 433213
1, 97440, Note_on_c, 0, 62, 0
1, 97440, Note_on_c, 0, 65, 0
1, 97440, Note_on_c, 0, 72, 60
1, 97460, Note_on_c, 0, 71, 0
1, 97520, Tempo, 431655
1, 97560, Note_on_c, 0, 60, 38
1, 97560, Note_on_c, 0, 65, 46
1, 97600, Tempo, 430108
1, 97680, Tempo, 428571
1, 97680, Note_on_c, 0, 56, 0
1, 97680, Note_on_c, 0, 57, 51
1, 97760, Tempo, 427046
1, 97777, Note_on_c, 0, 65, 0
1, 97777, Note_on_c, 0, 60, 0
1, 97800, Note_on_c, 0, 65, 47
1, 97800, Note_on_c, 0, 60, 39
1, 97840, Tempo, 425532
1, 97920, Tempo, 424028
1, 97920, Note_on_c, 0, 60, 0
1, 97920, Note_on_c, 0, 65, 0
1, 97920, Note_on_c, 0, 73, 65
1, 97940, Note_on_c, 0, 72, 0
1, 98040, Note_on_c, 0, 67, 48
1, 98040, Note_on_c, 0, 64, 40
1, 98080, Tempo, 424028
1, 98160, Note_on_c, 0, 57, 0
1, 98160, Note_on_c, 0, 58, 53
1, 98257, Note_on_c, 0, 64, 0
1, 98257, Note_on_c, 0, 67, 0
1, 98280, Tempo, 422535
1, 98280, Note_on_c, 0, 67, 49
1, 98280, Note_on_c, 0, 64, 41
1, 98320, Tempo, 408163
1, 98360, Tempo, 409556
1, 98400, Tempo, 415225
1, 98400, Note_on_c, 0, 64, 0
1, 98400, Note_on_c, 0, 67, 0
1, 98400, Note_on_c, 0, 74, 68
1, 98420, Note_on_c, 0, 73, 0
1, 98520, Note_on_c, 0, 65, 43
1, 98520, Note_on_c, 0, 68, 51
1, 98560, Tempo, 416667
1, 98640, Note_on_c, 0, 58, 0
1, 98640, Note_on_c, 0, 59, 55
1, 98680, Tempo, 418118
1, 98737, Note_on_c, 0, 68, 0
1, 98737, Note_on_c, 0, 65, 0
1, 98760, Note_on_c, 0, 68, 52
1, 98760, Note_on_c, 0, 65, 43
1, 98840, Tempo, 419580
1, 98880, Note_on_c, 0, 65, 0
1, 98880, Note_on_c, 0, 68, 0
1, 98880, Note_on_c, 0, 72, 68
1, 98900, Note_on_c, 0, 74, 0
1, 98960, Tempo, 421053
1, 99000, Note_on_c, 0, 64, 44
1, 99000, Note_on_c, 0, 67, 53
1, 99080, Tempo, 422535
1, 99120, Tempo, 470588
1, 99120, Note_on_c, 0, 59, 0
1, 99120, Note_on_c, 0, 60, 58
1, 99217, Note_on_c, 0, 67, 0
1, 99217, Note_on_c, 0, 64, 0
1, 99240, Note_on_c, 0, 67, 53
1, 99240, Note_on_c, 0, 64, 45
1, 99360, Tempo, 449438
1, 99360, Note_on_c, 0, 64, 0
1, 99360, Note_on_c, 0, 67, 0
1, 99360, Note_on_c, 0, 72, 0
1, 99360, Note_on_c, 0, 72, 73
1, 99480, Note_on_c, 0, 65, 46
1, 99480, Note_on_c, 0, 69, 55
1, 99600, Tempo, 418118
1, 99600, Note_on_c, 0, 60, 0
1, 99600, Note_on_c, 0, 53, 61
1, 99708, Note_on_c, 0, 69, 0
1, 99708, Note_on_c, 0, 65, 0
1, 99720, Note_on_c, 0, 65, 46
1, 99720, Note_on_c, 0, 69, 55
1, 99840, Tempo, 447761
1, 99840, Note_on_c, 0, 69, 0
1, 99840, Note_on_c, 0, 65, 0
1, 99840, Note_on_c, 0, 72, 0
1, 99840, Note_on_c, 0, 74, 77
1, 99960, Note_on_c, 0, 69, 55
1, 99960, Note_on_c, 0, 62, 47
1, 100080, Tempo, 421053
1, 100080, Note_on_c, 0, 53, 0
1, 100080, Note_on_c, 0, 54, 63
1, 100188, Note_on_c, 0, 62, 0
1, 100188, Note_on_c, 0, 69, 0
1, 100200, Note_on_c, 0, 62, 47
1, 100200, Note_on_c, 0, 69, 55
1, 100320, Tempo, 446097
1, 100320, Note_on_c, 0, 69, 0
1, 100320, Note_on_c, 0, 62, 0
1, 100320, Note_on_c, 0, 70, 73
1, 100340, Note_on_c, 0, 74, 0
1, 100440, Note_on_c, 0, 67, 53
1, 100440, Note_on_c, 0, 62, 45
1, 100560, Tempo, 431655
1, 100560, Note_on_c, 0, 54, 0
1, 100560, Note_on_c, 0, 55, 60
1, 100668, Note_on_c, 0, 62, 0
1, 100668, Note_on_c, 0, 67, 0
1, 100680, Note_on_c, 0, 67, 50
1, 100680, Note_on_c, 0, 62, 42
1, 100800, Tempo, 447761
1, 100800, Note_on_c, 0, 62, 0
1, 100800, Note_on_c, 0, 67, 0
1, 100800, Note_on_c, 0, 72, 69
1, 100820, Note_on_c, 0, 70, 0
1, 100920, Note_on_c, 0, 60, 44
1, 100920, Note_on_c, 0, 67, 53
1, 101040, Tempo, 418118
1, 101040, Note_on_c, 0, 55, 0
1, 101040, Note_on_c, 0, 52, 58
1, 101148, Note_on_c, 0, 67, 0
1, 101148, Note_on_c, 0, 60, 0
1, 101160, Note_on_c, 0, 60, 44
1, 101160, Note_on_c, 0, 67, 53
1, 101240, Tempo, 415225
1, 101280, Note_on_c, 0, 67, 0
1, 101280, Note_on_c, 0, 60, 0
1, 101280, Note_on_c, 0, 69, 70
1, 101300, Note_on_c, 0, 72, 0
1, 101320, Tempo, 416667
1, 101360, Tempo, 418118
1, 101400, Tempo, 419580
1, 101400, Note_on_c, 0, 65, 49
1, 101400, Note_on_c, 0, 60, 41
1, 101440, Tempo, 421053
1, 101480, Tempo, 422535
1, 101520, Tempo, 424028
1, 101520, Note_on_c, 0, 52, 0
1, 101520, Note_on_c, 0, 53, 54
1, 101560, Tempo, 425532
1, 101600, Tempo, 427046
1, 101628, Note_on_c, 0, 60, 0
1, 101628, Note_on_c, 0, 65, 0
1, 101640, Tempo, 428571
1, 101640, Note_on_c, 0, 60, 41
1, 101640, Note_on_c, 0, 65, 49
1, 101680, Tempo, 430108
1, 101720, Tempo, 431655
1, 101760, Tempo, 433213
1, 101760, Note_on_c, 0, 65, 0
1, 101760, Note_on_c, 0, 60, 0
1, 101760, Note_on_c, 0, 67, 65
1, 101780, Note_on_c, 0, 69, 0
1, 101880, Note_on_c, 0, 61, 49
1, 101880, Note_on_c, 0, 57, 41
1, 102000, Note_on_c, 0, 53, 0
1, 102000, Note_on_c, 0, 52, 51
1, 102108, Note_on_c, 0, 57, 0
1, 102108, Note_on_c, 0, 61, 0
1, 102120, Note_on_c, 0, 57, 41
1, 102120, Note_on_c, 0, 61, 49
1, 102200, Tempo, 437956
1, 102240, Tempo, 447761
1, 102240, Note_on_c, 0, 61, 0
1, 102240, Note_on_c, 0, 57, 0
1, 102240, Note_on_c, 0, 65, 61
1, 102260, Note_on_c, 0, 67, 0
1, 102360, Note_on_c, 0, 57, 40
1, 102360, Note_on_c, 0, 62, 48
1, 102480, Tempo, 418118
1, 102480, Note_on_c, 0, 52, 0
1, 102480, Note_on_c, 0, 50, 49
1, 102588, Note_on_c, 0, 62, 0
1, 102588, Note_on_c, 0, 57, 0
1, 102600, Note_on_c, 0, 62, 48
1, 102600, Note_on_c, 0, 57, 40
1, 102680, Tempo, 415225
1, 102720, Note_on_c, 0, 57, 0
1, 102720, Note_on_c, 0, 62, 0
1, 102720, Note_on_c, 0, 63, 59
1, 102740, Note_on_c, 0, 65, 0
1, 102760, Tempo, 416667
1, 102800, Tempo, 418118
1, 102840, Tempo, 419580
1, 102840, Note_on_c, 0, 57, 46
1, 102840, Note_on_c, 0, 53, 39
1, 102880, Tempo, 421053
1, 102920, Tempo, 422535
1, 102960, Tempo, 424028
1, 102960, Note_on_c, 0, 50, 0
1, 102960, Note_on_c, 0, 48, 49
1, 103000, Tempo, 425532
1, 103040, Tempo, 427046
1, 103068, Note_on_c, 0, 53, 0
1, 103068, Note_on_c, 0, 57, 0
1, 103080, Tempo, 428571
1, 103080, Note_on_c, 0, 53, 39
1, 103080, Note_on_c, 0, 57, 46
1, 103120, Tempo, 430108
1, 103160, Tempo, 431655
1, 103200, Tempo, 433213
1, 103200, Note_on_c, 0, 57, 0
1, 103200, Note_on_c, 0, 53, 0
1, 103200, Note_on_c, 0, 62, 57
1, 103220, Note_on_c, 0, 63, 0
1, 103320, Note_on_c, 0, 53, 38
1, 103320, Note_on_c, 0, 58, 45
1, 103440, Note_on_c, 0, 48, 0
1, 103440, Note_on_c, 0, 46, 48
1, 103548, Note_on_c, 0, 58, 0
1, 103548, Note_on_c, 0, 53, 0
1, 103560, Note_on_c, 0, 53, 38
1, 103560, Note_on_c, 0, 58, 45
1, 103640, Tempo, 437956
1, 103680, Tempo, 447761
1, 103680, Note_on_c, 0, 58, 0
1, 103680, Note_on_c, 0, 53, 0
1, 103680, Note_on_c, 0, 60, 56
1, 103700, Note_on_c, 0, 62, 0
1, 103800, Note_on_c, 0, 50, 36
1, 103800, Note_on_c, 0, 54, 43
1, 103920, Tempo, 434783
1, 103920, Note_on_c, 0, 46, 0
1, 103920, Note_on_c, 0, 45, 47
1, 104028, Note_on_c, 0, 54, 0
1, 104028, Note_on_c, 0, 50, 0
1, 104040, Note_on_c, 0, 54, 42
1, 104040, Note_on_c, 0, 50, 35
1, 104080, Tempo, 431655
1, 104160, Tempo, 433213
1, 104160, Note_on_c, 0, 50, 0
1, 104160, Note_on_c, 0, 54, 0
1, 104160, Note_on_c, 0, 58, 54
1, 104180, Note_on_c, 0, 60, 0
1, 104240, Tempo, 434783
1, 104280, Tempo, 436364
1, 104280, Note_on_c, 0, 55, 42
1, 104280, Note_on_c, 0, 50, 35
1, 104360, Tempo, 437956
1, 104400, Tempo, 439560
1, 104400, Note_on_c, 0, 45, 0
1, 104400, Note_on_c, 0, 43, 46
1, 104480, Tempo, 441176
1, 104508, Note_on_c, 0, 50, 0
1, 104508, Note_on_c, 0, 55, 0
1, 104520, Tempo, 442804
1, 104520, Note_on_c, 0, 50, 34
1, 104520, Note_on_c, 0, 55, 41
1, 104600, Tempo, 444444
1, 104640, Tempo, 446097
1, 104640, Note_on_c, 0, 55, 0
1, 104640, Note_on_c, 0, 50, 0
1, 104640, Note_on_c, 0, 59, 49
1, 104660, Note_on_c, 0, 58, 0
1, 104680, Tempo, 446097
1, 104720, Tempo, 447761
1, 104760, Tempo, 449438
1, 104760, Note_on_c, 0, 50, 32
1, 104760, Note_on_c, 0, 56, 38
1, 104800, Tempo, 451128
1, 104840, Tempo, 452830
1, 104880, Tempo, 456274
1, 104880, Note_on_c, 0, 43, 0
1, 104880, Note_on_c, 0, 41, 45
1, 104988, Note_on_c, 0, 56, 0
1, 104988, Note_on_c, 0, 50, 0
1, 105000, Tempo, 545455
1, 105000, Note_on_c, 0, 50, 32
1, 105000, Note_on_c, 0, 56, 38
1, 105120, Tempo, 495868
1, 105120, Note_on_c, 0, 56, 0
1, 105120, Note_on_c, 0, 50, 0
1, 105120, Note_on_c, 0, 58, 41
1, 105120, Note_on_c, 0, 60, 49
1, 105140, Note_on_c, 0, 59, 0
1, 105240, Note_on_c, 0, 48, 30
1, 105240, Note_on_c, 0, 55, 36
1, 105360, Tempo, 468750
1, 105360, Note_on_c, 0, 41, 0
1, 105360, Note_on_c, 0, 40, 41
1, 105468, Note_on_c, 0, 48, 0
1, 105468, Note_on_c, 0, 55, 0
1, 105480, Note_on_c, 0, 55, 36
1, 105480, Note_on_c, 0, 48, 30
1, 105594, Note_on_c, 0, 48, 0
1, 105594, Note_on_c, 0, 55, 0
1, 105600, Tempo, 472441
1, 105600, Note_on_c, 0, 60, 0
1, 105600, Note_on_c, 0, 58, 0
1, 105600, Note_on_c, 0, 58, 40
1, 105600, Note_on_c, 0, 60, 48
1, 105680, Tempo, 474308
1, 105720, Tempo, 476190
1, 105720, Note_on_c, 0, 54, 37
1, 105720, Note_on_c, 0, 48, 31
1, 105760, Tempo, 478088
1, 105800, Tempo, 480000
1, 105840, Tempo, 481928
1, 105840, Note_on_c, 0, 40, 0
1, 105840, Note_on_c, 0, 39, 40
1, 105880, Tempo, 483871
1, 105920, Tempo, 485830
1, 105948, Note_on_c, 0, 54, 0
1, 105948, Note_on_c, 0, 48, 0
1, 105960, Tempo, 487805
1, 105960, Note_on_c, 0, 48, 31
1, 105960, Note_on_c, 0, 54, 37
1, 106000, Tempo, 489796
1, 106040, Tempo, 491803
1, 106080, Tempo, 493827
1, 106080, Note_on_c, 0, 54, 0
1, 106080, Note_on_c, 0, 58, 0
1, 106080, Note_on_c, 0, 48, 0
1, 106080, Note_on_c, 0, 60, 0
1, 106080, Note_on_c, 0, 60, 47
1, 106080, Note_on_c, 0, 58, 39
1, 106160, Tempo, 495868
1, 106200, Tempo, 497925
1, 106200, Note_on_c, 0, 48, 30
1, 106200, Note_on_c, 0, 55, 35
1, 106240, Tempo, 500000
1, 106280, Tempo, 502092
1, 106320, Tempo, 504202
1, 106320, Note_on_c, 0, 39, 0
1, 106320, Note_on_c, 0, 40, 35
1, 106360, Tempo, 506329
1, 106400, Tempo, 508475
1, 106428, Note_on_c, 0, 48, 0
1, 106428, Note_on_c, 0, 55, 0
1, 106440, Tempo, 510638
1, 106440, Note_on_c, 0, 55, 35
1, 106440, Note_on_c, 0, 48, 30
1, 106480, Tempo, 512821
1, 106520, Tempo, 515021
1, 106560, Tempo, 517241
1, 106560, Note_on_c, 0, 48, 0
1, 106560, Note_on_c, 0, 60, 0
1, 106560, Note_on_c, 0, 55, 0
1, 106560, Note_on_c, 0, 58, 0
1, 106560, Note_on_c, 0, 60, 43
1, 106680, Note_on_c, 0, 57, 31
1, 106680, Note_on_c, 0, 53, 26
1, 106800, Tempo, 545455
1, 106800, Note_on_c, 0, 40, 0
1, 106800, Note_on_c, 0, 41, 35
1, 106835, Control_c, 0, 64, 127
1, 106908, Note_on_c, 0, 53, 0
1, 106908, Note_on_c, 0, 57, 0
1, 106920, Note_on_c, 0, 57, 30
1, 106920, Note_on_c, 0, 53, 25
1, 107040, Tempo, 625000
1, 107040, Note_on_c, 0, 53, 0
1, 107040, Note_on_c, 0, 57, 0
1, 107040, Note_on_c, 0, 60, 0
1, 107040, Note_on_c, 0, 65, 43
1, 107160, Note_on_c, 0, 57, 25
1, 107160, Note_on_c, 0, 60, 30
1, 107280, Tempo, 784314
1, 107280, Note_on_c, 0, 41, 0
1, 107280, Note_on_c, 0, 36, 35
1, 107388, Note_on_c, 0, 60, 0
1, 107388, Note_on_c, 0, 57, 0
1, 107400, Note_on_c, 0, 60, 30
1, 107400, Note_on_c, 0, 57, 25
1, 107520, Tempo, 612245
1, 107520, Note_on_c, 0, 57, 0
1, 107520, Note_on_c, 0, 36, 0
1, 107520, Note_on_c, 0, 65, 0
1, 107520, Note_on_c, 0, 60, 0
1, 107520, Note_on_c, 0, 69, 45
1, 107529, Control_c, 0, 64, 0
1, 107640, Note_on_c, 0, 60, 28
1, 107640, Note_on_c, 0, 63, 34
1, 107760, Tempo, 555556
1, 107760, Note_on_c, 0, 78, 48
1, 107868, Note_on_c, 0, 63, 0
1, 107868, Note_on_c, 0, 60, 0
1, 107880, Note_on_c, 0, 60, 32
1, 107880, Note_on_c, 0, 63, 38
1, 108000, Tempo, 497925
1, 108000, Note_on_c, 0, 63, 0
1, 108000, Note_on_c, 0, 60, 0
1, 108000, Note_on_c, 0, 70, 49
1, 108020, Note_on_c, 0, 69, 0
1, 108120, Note_on_c, 0, 60, 34
1, 108120, Note_on_c, 0, 64, 41
1, 108240, Tempo, 458015
1, 108240, Note_on_c, 0, 78, 0
1, 108240, Note_on_c, 0, 79, 49
1, 108280, Tempo, 456274
1, 108320, Tempo, 454545
1, 108348, Note_on_c, 0, 64, 0
1, 108348, Note_on_c, 0, 60, 0
1, 108360, Tempo, 452830
1, 108360, Note_on_c, 0, 60, 34
1, 108360, Note_on_c, 0, 64, 41
1, 108400, Tempo, 451128
1, 108440, Tempo, 449438
1, 108480, Tempo, 447761
1, 108480, Note_on_c, 0, 64, 0
1, 108480, Note_on_c, 0, 60, 0
1, 108480, Note_on_c, 0, 71, 54
1, 108500, Note_on_c, 0, 70, 0
1, 108520, Tempo, 446097
1, 108560, Tempo, 444444
1, 108600, Tempo, 442804
1, 108600, Note_on_c, 0, 62, 36
1, 108600, Note_on_c, 0, 65, 43
1, 108640, Tempo, 441176
1, 108680, Tempo, 439560
1, 108720, Tempo, 437956
1, 108720, Note_on_c, 0, 79, 0
1, 108720, Note_on_c, 0, 80, 53
1, 108760, Tempo, 436364
1, 108800, Tempo, 434783
1, 108828, Note_on_c, 0, 65, 0
1, 108828, Note_on_c, 0, 62, 0
1, 108840, Tempo, 433213
1, 108840, Note_on_c, 0, 62, 37
1, 108840, Note_on_c, 0, 65, 44
1, 108880, Tempo, 431655
1, 108920, Tempo, 428571
1, 108960, Tempo, 430108
1, 108960, Note_on_c, 0, 65, 0
1, 108960, Note_on_c, 0, 62, 0
1, 108960, Note_on_c, 0, 72, 60
1, 108980, Note_on_c, 0, 71, 0
1, 109000, Tempo, 425532
1, 109080, Note_on_c, 0, 60, 38
1, 109080, Note_on_c, 0, 65, 46
1, 109120, Tempo, 424028
1, 109200, Note_on_c, 0, 80, 0
1, 109200, Note_on_c, 0, 81, 56
1, 109240, Tempo, 422535
1, 109308, Note_on_c, 0, 65, 0
1, 109308, Note_on_c, 0, 60, 0
1, 109320, Note_on_c, 0, 60, 39
1, 109320, Note_on_c, 0, 65, 47
1, 109360, Tempo, 421053
1, 109440, Note_on_c, 0, 65, 0
1, 109440, Note_on_c, 0, 60, 0
1, 109440, Note_on_c, 0, 73, 65
1, 109460, Note_on_c, 0, 72, 0
1, 109480, Tempo, 419580
1, 109560, Note_on_c, 0, 64, 40
1, 109560, Note_on_c, 0, 67, 48
1, 109600, Tempo, 418118
1, 109680, Note_on_c, 0, 81, 0
1, 109680, Note_on_c, 0, 82, 58
1, 109720, Tempo, 416667
1, 109788, Note_on_c, 0, 67, 0
1, 109788, Note_on_c, 0, 64, 0
1, 109800, Tempo, 415225
1, 109800, Note_on_c, 0, 64, 41
1, 109800, Note_on_c, 0, 67, 49
1, 109840, Tempo, 408163
1, 109880, Tempo, 413793
1, 109920, Note_on_c, 0, 67, 0
1, 109920, Note_on_c, 0, 64, 0
1, 109920, Note_on_c, 0, 74, 68
1, 109940, Note_on_c, 0, 73, 0
1, 110000, Tempo, 415225
1, 110040, Note_on_c, 0, 65, 43
1, 110040, Note_on_c, 0, 68, 51
1, 110120, Tempo, 416667
1, 110160, Note_on_c, 0, 82, 0
1, 110160, Note_on_c, 0, 83, 60
1, 110240, Tempo, 418118
1, 110268, Note_on_c, 0, 68, 0
1, 110268, Note_on_c, 0, 65, 0
1, 110280, Note_on_c, 0, 65, 43
1, 110280, Note_on_c, 0, 68, 52
1, 110360, Tempo, 419580
1, 110400, Note_on_c, 0, 68, 0
1, 110400, Note_on_c, 0, 65, 0
1, 110400, Note_on_c, 0, 72, 68
1, 110420, Note_on_c, 0, 74, 0
1, 110480, Tempo, 421053
1, 110520, Note_on_c, 0, 64, 44
1, 110520, Note_on_c, 0, 67, 53
1, 110560, Tempo, 422535
1, 110600, Tempo, 425532
1, 110640, Tempo, 470588
1, 110640, Note_on_c, 0, 83, 0
1, 110640, Note_on_c, 0, 84, 63
1, 110748, Note_on_c, 0, 67, 0
1, 110748, Note_on_c, 0, 64, 0
1, 110760, Note_on_c, 0, 64, 45
1, 110760, Note_on_c, 0, 67, 53
1, 110880, Tempo, 449438
1, 110880, Note_on_c, 0, 67, 0
1, 110880, Note_on_c, 0, 64, 0
1, 110880, Note_on_c, 0, 72, 0
1, 110880, Note_on_c, 0, 72, 73
1, 111000, Note_on_c, 0, 65, 46
1, 111000, Note_on_c, 0, 69, 55
1, 111120, Tempo, 418118
1, 111120, Note_on_c, 0, 84, 0
1, 111120, Note_on_c, 0, 77, 66
1, 111228, Note_on_c, 0, 69, 0
1, 111228, Note_on_c, 0, 65, 0
1, 111240, Note_on_c, 0, 65, 46
1, 111240, Note_on_c, 0, 69, 55
1, 111360, Tempo, 425532
1, 111360, Note_on_c, 0, 69, 0
1, 111360, Note_on_c, 0, 65, 0
1, 111360, Note_on_c, 0, 72, 0
1, 111360, Note_on_c, 0, 74, 77
1, 111480, Note_on_c, 0, 62, 47
1, 111480, Note_on_c, 0, 69, 55
1, 111600, Tempo, 419580
1, 111600, Note_on_c, 0, 77, 0
1, 111600, Note_on_c, 0, 78, 69
1, 111708, Note_on_c, 0, 69, 0
1, 111708, Note_on_c, 0, 62, 0
1, 111720, Note_on_c, 0, 62, 47
1, 111720, Note_on_c, 0, 69, 55
1, 111840, Tempo, 427046
1, 111840, Note_on_c, 0, 69, 0
1, 111840, Note_on_c, 0, 62, 0
1, 111840, Note_on_c, 0, 70, 73
1, 111860, Note_on_c, 0, 74, 0
1, 111960, Note_on_c, 0, 62, 45
1, 111960, Note_on_c, 0, 67, 53
1, 112080, Tempo, 422535
1, 112080, Note_on_c, 0, 78, 0
1, 112080, Note_on_c, 0, 79, 66
1, 112188, Note_on_c, 0, 67, 0
1, 112188, Note_on_c, 0, 62, 0
1, 112200, Note_on_c, 0, 62, 42
1, 112200, Note_on_c, 0, 67, 50
1, 112320, Tempo, 447761
1, 112320, Note_on_c, 0, 67, 0
1, 112320, Note_on_c, 0, 62, 0
1, 112320, Note_on_c, 0, 72, 69
1, 112340, Note_on_c, 0, 70, 0
1, 112440, Note_on_c, 0, 60, 44
1, 112440, Note_on_c, 0, 67, 53
1, 112560, Tempo, 418118
1, 112560, Note_on_c, 0, 79, 0
1, 112560, Note_on_c, 0, 76, 63
1, 112668, Note_on_c, 0, 67, 0
1, 112668, Note_on_c, 0, 60, 0
1, 112680, Note_on_c, 0, 60, 44
1, 112680, Note_on_c, 0, 67, 53
1, 112760, Tempo, 415225
1, 112800, Note_on_c, 0, 67, 0
1, 112800, Note_on_c, 0, 60, 0
1, 112800, Note_on_c, 0, 69, 70
1, 112820, Note_on_c, 0, 72, 0
1, 112840, Tempo, 416667
1, 112880, Tempo, 418118
1, 112920, Tempo, 419580
1, 112920, Note_on_c, 0, 60, 41
1, 112920, Note_on_c, 0, 65, 49
1, 112960, Tempo, 421053
1, 113000, Tempo, 422535
1, 113040, Tempo, 424028
1, 113040, Note_on_c, 0, 76, 0
1, 113040, Note_on_c, 0, 77, 59
1, 113080, Tempo, 425532
1, 113120, Tempo, 427046
1, 113148, Note_on_c, 0, 65, 0
1, 113148, Note_on_c, 0, 60, 0
1, 113160, Tempo, 428571
1, 113160, Note_on_c, 0, 60, 41
1, 113160, Note_on_c, 0, 65, 49
1, 113200, Tempo, 430108
1, 113240, Tempo, 431655
1, 113280, Tempo, 433213
1, 113280, Note_on_c, 0, 65, 0
1, 113280, Note_on_c, 0, 60, 0
1, 113280, Note_on_c, 0, 67, 65
1, 113300, Note_on_c, 0, 69, 0
1, 113400, Note_on_c, 0, 57, 41
1, 113400, Note_on_c, 0, 61, 49
1, 113520, Note_on_c, 0, 77, 0
1, 113520, Note_on_c, 0, 76, 56
1, 113628, Note_on_c, 0, 61, 0
1, 113628, Note_on_c, 0, 57, 0
1, 113640, Note_on_c, 0, 57, 41
1, 113640, Note_on_c, 0, 61, 49
1, 113720, Tempo, 437956
1, 113760, Tempo, 447761
1, 113760, Note_on_c, 0, 61, 0
1, 113760, Note_on_c, 0, 57, 0
1, 113760, Note_on_c, 0, 65, 61
1, 113780, Note_on_c, 0, 67, 0
1, 113880, Note_on_c, 0, 57, 40
1, 113880, Note_on_c, 0, 62, 48
1, 114000, Tempo, 418118
1, 114000, Note_on_c, 0, 76, 0
1, 114000, Note_on_c, 0, 74, 54
1, 114108, Note_on_c, 0, 62, 0
1, 114108, Note_on_c, 0, 57, 0
1, 114120, Note_on_c, 0, 57, 40
1, 114120, Note_on_c, 0, 62, 48
1, 114200, Tempo, 415225
1, 114240, Note_on_c, 0, 62, 0
1, 114240, Note_on_c, 0, 57, 0
1, 114240, Note_on_c, 0, 63, 59
1, 114260, Note_on_c, 0, 65, 0
1, 114280, Tempo, 416667
1, 114320, Tempo, 418118
1, 114360, Tempo, 419580
1, 114360, Note_on_c, 0, 53, 39
1, 114360, Note_on_c, 0, 57, 46
1, 114400, Tempo, 421053
1, 114440, Tempo, 422535
1, 114480, Tempo, 424028
1, 114480, Note_on_c, 0, 74, 0
1, 114480, Note_on_c, 0, 72, 53
1, 114520, Tempo, 425532
1, 114560, Tempo, 427046
1, 114588, Note_on_c, 0, 57, 0
1, 114588, Note_on_c, 0, 53, 0
1, 114600, Tempo, 428571
1, 114600, Note_on_c, 0, 53, 39
1, 114600, Note_on_c, 0, 57, 46
1, 114640, Tempo, 430108
1, 114680, Tempo, 431655
1, 114720, Tempo, 433213
1, 114720, Note_on_c, 0, 57, 0
1, 114720, Note_on_c, 0, 53, 0
1, 114720, Note_on_c, 0, 62, 57
1, 114740, Note_on_c, 0, 63, 0
1, 114840, Note_on_c, 0, 53, 38
1, 114840, Note_on_c, 0, 58, 45
1, 114960, Note_on_c, 0, 72, 0
1, 114960, Note_on_c, 0, 70, 52
1, 115068, Note_on_c, 0, 58, 0
1, 115068, Note_on_c, 0, 53, 0
1, 115080, Note_on_c, 0, 53, 38
1, 115080, Note_on_c, 0, 58, 45
1, 115160, Tempo, 437956
1, 115200, Tempo, 447761
1, 115200, Note_on_c, 0, 58, 0
1, 115200, Note_on_c, 0, 53, 0
1, 115200, Note_on_c, 0, 60, 56
1, 115220, Note_on_c, 0, 62, 0
1, 115320, Note_on_c, 0, 50, 36
1, 115320, Note_on_c, 0, 54, 43
1, 115440, Tempo, 434783
1, 115440, Note_on_c, 0, 70, 0
1, 115440, Note_on_c, 0, 69, 51
1, 115548, Note_on_c, 0, 54, 0
1, 115548, Note_on_c, 0, 50, 0
1, 115560, Note_on_c, 0, 50, 35
1, 115560, Note_on_c, 0, 54, 42
1, 115600, Tempo, 431655
1, 115680, Tempo, 433213
1, 115680, Note_on_c, 0, 54, 0
1, 115680, Note_on_c, 0, 50, 0
1, 115680, Note_on_c, 0, 58, 54
1, 115700, Note_on_c, 0, 60, 0
1, 115760, Tempo, 434783
1, 115800, Tempo, 436364
1, 115800, Note_on_c, 0, 50, 35
1, 115800, Note_on_c, 0, 55, 42
1, 115880, Tempo, 437956
1, 115920, Tempo, 439560
1, 115920, Note_on_c, 0, 69, 0
1, 115920, Note_on_c, 0, 67, 50
1, 116000, Tempo, 441176
1, 116028, Note_on_c, 0, 55, 0
1, 116028, Note_on_c, 0, 50, 0
1, 116040, Tempo, 442804
1, 116040, Note_on_c, 0, 50, 34
1, 116040, Note_on_c, 0, 55, 41
1, 116120, Tempo, 444444
1, 116160, Tempo, 446097
1, 116160, Note_on_c, 0, 55, 0
1, 116160, Note_on_c, 0, 50, 0
1, 116160, Note_on_c, 0, 59, 49
1, 116180, Note_on_c, 0, 58, 0
1, 116200, Tempo, 446097
1, 116240, Tempo, 447761
1, 116280, Tempo, 449438
1, 116280, Note_on_c, 0, 50, 32
1, 116280, Note_on_c, 0, 56, 38
1, 116320, Tempo, 451128
1, 116360, Tempo, 452830
1, 116400, Tempo, 456274
1, 116400, Note_on_c, 0, 67, 0
1, 116400, Note_on_c, 0, 65, 49
1, 116508, Note_on_c, 0, 56, 0
1, 116508, Note_on_c, 0, 50, 0
1, 116520, Tempo, 545455
1, 116520, Note_on_c, 0, 50, 32
1, 116520, Note_on_c, 0, 56, 38
1, 116640, Tempo, 495868
1, 116640, Note_on_c, 0, 56, 0
1, 116640, Note_on_c, 0, 50, 0
1, 116640, Note_on_c, 0, 60, 49
1, 116640, Note_on_c, 0, 58, 41
1, 116660, Note_on_c, 0, 59, 0
1, 116760, Note_on_c, 0, 48, 30
1, 116760, Note_on_c, 0, 55, 36
1, 116880, Tempo, 468750
1, 116880, Note_on_c, 0, 65, 0
1, 116880, Note_on_c, 0, 64, 45
1, 116988, Note_on_c, 0, 48, 0
1, 116988, Note_on_c, 0, 55, 0
1, 117000, Note_on_c, 0, 48, 30
1, 117000, Note_on_c, 0, 55, 36
1, 117120, Tempo, 470588
1, 117120, Note_on_c, 0, 55, 0
1, 117120, Note_on_c, 0, 58, 0
1, 117120, Note_on_c, 0, 48, 0
1, 117120, Note_on_c, 0, 60, 0
1, 117120, Note_on_c, 0, 60, 48
1, 117120, Note_on_c, 0, 58, 40
1, 117160, Tempo, 472441
1, 117200, Tempo, 474308
1, 117240, Tempo, 476190
1, 117240, Note_on_c, 0, 48, 31
1, 117240, Note_on_c, 0, 54, 37
1, 117280, Tempo, 478088
1, 117320, Tempo, 480000
1, 117360, Tempo, 481928
1, 117360, Note_on_c, 0, 64, 0
1, 117360, Note_on_c, 0, 63, 44
1, 117400, Tempo, 483871
1, 117440, Tempo, 485830
1, 117468, Note_on_c, 0, 48, 0
1, 117468, Note_on_c, 0, 54, 0
1, 117480, Tempo, 487805
1, 117480, Note_on_c, 0, 48, 31
1, 117480, Note_on_c, 0, 54, 37
1, 117520, Tempo, 489796
1, 117560, Tempo, 491803
1, 117600, Tempo, 493827
1, 117600, Note_on_c, 0, 54, 0
1, 117600, Note_on_c, 0, 60, 0
1, 117600, Note_on_c, 0, 48, 0
1, 117600, Note_on_c, 0, 58, 0
1, 117600, Note_on_c, 0, 60, 47
1, 117600, Note_on_c, 0, 58, 39
1, 117640, Tempo, 495868
1, 117680, Tempo, 497925
1, 117720, Tempo, 500000
1, 117720, Note_on_c, 0, 48, 30
1, 117720, Note_on_c, 0, 55, 35
1, 117760, Tempo, 502092
1, 117800, Tempo, 504202
1, 117840, Tempo, 506329
1, 117840, Note_on_c, 0, 63, 0
1, 117840, Note_on_c, 0, 64, 38
1, 117880, Tempo, 508475
1, 117920, Tempo, 510638
1, 117948, Note_on_c, 0, 48, 0
1, 117948, Note_on_c, 0, 55, 0
1, 117960, Tempo, 512821
1, 117960, Note_on_c, 0, 48, 30
1, 117960, Note_on_c, 0, 55, 35
1, 118000, Tempo, 515021
1, 118040, Tempo, 517241
1, 118080, Tempo, 521739
1, 118080, Note_on_c, 0, 55, 0
1, 118080, Note_on_c, 0, 60, 0
1, 118080, Note_on_c, 0, 48, 0
1, 118080, Note_on_c, 0, 58, 0
1, 118080, Note_on_c, 0, 57, 36
1, 118080, Note_on_c, 0, 60, 43
1, 118200, Note_on_c, 0, 48, 26
1, 118200, Note_on_c, 0, 53, 31
1, 118320, Tempo, 547945
1, 118320, Note_on_c, 0, 64, 0
1, 118320, Note_on_c, 0, 65, 38
1, 118428, Note_on_c, 0, 48, 0
1, 118428, Note_on_c, 0, 53, 0
1, 118433, Control_c, 0, 64, 127
1, 118440, Note_on_c, 0, 48, 25
1, 118440, Note_on_c, 0, 53, 30
1, 118560, Tempo, 609137
1, 118560, Note_on_c, 0, 53, 0
1, 118560, Note_on_c, 0, 57, 0
1, 118560, Note_on_c, 0, 48, 0
1, 118560, Note_on_c, 0, 60, 0
1, 118560, Note_on_c, 0, 57, 36
1, 118560, Note_on_c, 0, 60, 43
1, 118680, Note_on_c, 0, 48, 25
1, 118680, Note_on_c, 0, 53, 30
1, 118800, Tempo, 784314
1, 118800, Note_on_c, 0, 65, 0
1, 118800, Note_on_c, 0, 72, 38
1, 118908, Note_on_c, 0, 48, 0
1, 118908, Note_on_c, 0, 53, 0
1, 118920, Note_on_c, 0, 48, 25
1, 118920, Note_on_c, 0, 53, 30
1, 118984, Control_c, 0, 64, 0
1, 119040, Tempo, 621762
1, 119040, Note_on_c, 0, 53, 0
1, 119040, Note_on_c, 0, 57, 0
1, 119040, Note_on_c, 0, 72, 0
1, 119040, Note_on_c, 0, 60, 0
1, 119040, Note_on_c, 0, 48, 0
1, 119040, Note_on_c, 0, 65, 48
1, 119160, Note_on_c, 0, 57, 30
1, 119160, Note_on_c, 0, 60, 36
1, 119280, Tempo, 555556
1, 119280, Note_on_c, 0, 29, 35
1, 119280, Note_on_c, 0, 41, 44
1, 119388, Note_on_c, 0, 60, 0
1, 119388, Note_on_c, 0, 57, 0
1, 119400, Note_on_c, 0, 57, 32
1, 119400, Note_on_c, 0, 60, 38
1, 119520, Tempo, 497925
1, 119520, Note_on_c, 0, 60, 0
1, 119520, Note_on_c, 0, 57, 0
1, 119520, Note_on_c, 0, 64, 49
1, 119540, Note_on_c, 0, 65, 0
1, 119640, Note_on_c, 0, 55, 34
1, 119640, Note_on_c, 0, 58, 41
1, 119760, Tempo, 456274
1, 119760, Note_on_c, 0, 29, 0
1, 119760, Note_on_c, 0, 41, 0
1, 119760, Note_on_c, 0, 31, 36
1, 119760, Note_on_c, 0, 43, 46
1, 119840, Tempo, 454545
1, 119868, Note_on_c, 0, 58, 0
1, 119868, Note_on_c, 0, 55, 0
1, 119880, Note_on_c, 0, 55, 34
1, 119880, Note_on_c, 0, 58, 41
1, 119920, Tempo, 452830
1, 120000, Tempo, 451128
1, 120000, Note_on_c, 0, 58, 0
1, 120000, Note_on_c, 0, 55, 0
1, 120000, Note_on_c, 0, 62, 54
1, 120020, Note_on_c, 0, 64, 0
1, 120040, Tempo, 449438
1, 120120, Tempo, 447761
1, 120120, Note_on_c, 0, 53, 36
1, 120120, Note_on_c, 0, 59, 43
1, 120200, Tempo, 446097
1, 120240, Note_on_c, 0, 31, 0
1, 120240, Note_on_c, 0, 43, 0
1, 120240, Note_on_c, 0, 32, 39
1, 120240, Note_on_c, 0, 44, 49
1, 120280, Tempo, 444444
1, 120320, Tempo, 442804
1, 120348, Note_on_c, 0, 59, 0
1, 120348, Note_on_c, 0, 53, 0
1, 120360, Note_on_c, 0, 53, 37
1, 120360, Note_on_c, 0, 59, 44
1, 120400, Tempo, 441176
1, 120480, Tempo, 439560
1, 120480, Note_on_c, 0, 59, 0
1, 120480, Note_on_c, 0, 53, 0
1, 120480, Note_on_c, 0, 61, 60
1, 120500, Note_on_c, 0, 62, 0
1, 120520, Tempo, 437956
1, 120600, Tempo, 436364
1, 120600, Note_on_c, 0, 52, 38
1, 120600, Note_on_c, 0, 57, 46
1, 120680, Tempo, 434783
1, 120720, Note_on_c, 0, 32, 0
1, 120720, Note_on_c, 0, 44, 0
1, 120720, Note_on_c, 0, 33, 40
1, 120720, Note_on_c, 0, 45, 51
1, 120760, Tempo, 433213
1, 120800, Tempo, 431655
1, 120828, Note_on_c, 0, 57, 0
1, 120828, Note_on_c, 0, 52, 0
1, 120840, Note_on_c, 0, 52, 39
1, 120840, Note_on_c, 0, 57, 47
1, 120880, Tempo, 430108
1, 120960, Tempo, 428571
1, 120960, Note_on_c, 0, 57, 0
1, 120960, Note_on_c, 0, 52, 0
1, 120960, Note_on_c, 0, 62, 65
1, 120980, Note_on_c, 0, 61, 0
1, 121000, Tempo, 427046
1, 121080, Note_on_c, 0, 53, 40
1, 121080, Note_on_c, 0, 56, 48
1, 121120, Tempo, 424028
1, 121200, Note_on_c, 0, 33, 0
1, 121200, Note_on_c, 0, 45, 0
1, 121200, Note_on_c, 0, 35, 42
1, 121200, Note_on_c, 0, 47, 53
1, 121308, Note_on_c, 0, 56, 0
1, 121308, Note_on_c, 0, 53, 0
1, 121320, Tempo, 422535
1, 121320, Note_on_c, 0, 53, 41
1, 121320, Note_on_c, 0, 56, 49
1, 121360, Tempo, 408163
1, 121400, Tempo, 409556
1, 121440, Tempo, 415225
1, 121440, Note_on_c, 0, 56, 0
1, 121440, Note_on_c, 0, 53, 0
1, 121440, Note_on_c, 0, 63, 68
1, 121460, Note_on_c, 0, 62, 0
1, 121560, Note_on_c, 0, 54, 43
1, 121560, Note_on_c, 0, 57, 51
1, 121600, Tempo, 416667
1, 121680, Note_on_c, 0, 35, 0
1, 121680, Note_on_c, 0, 47, 0
1, 121680, Note_on_c, 0, 36, 44
1, 121680, Note_on_c, 0, 48, 55
1, 121720, Tempo, 418118
1, 121788, Note_on_c, 0, 57, 0
1, 121788, Note_on_c, 0, 54, 0
1, 121800, Note_on_c, 0, 54, 43
1, 121800, Note_on_c, 0, 57, 52
1, 121880, Tempo, 419580
1, 121920, Note_on_c, 0, 57, 0
1, 121920, Note_on_c, 0, 54, 0
1, 121920, Note_on_c, 0, 64, 68
1, 121940, Note_on_c, 0, 63, 0
1, 122000, Tempo, 421053
1, 122040, Note_on_c, 0, 55, 44
1, 122040, Note_on_c, 0, 57, 53
1, 122120, Tempo, 422535
1, 122160, Tempo, 470588
1, 122160, Note_on_c, 0, 36, 0
1, 122160, Note_on_c, 0, 48, 0
1, 122160, Note_on_c, 0, 37, 46
1, 122160, Note_on_c, 0, 49, 58
1, 122268, Note_on_c, 0, 57, 0
1, 122268, Note_on_c, 0, 55, 0
1, 122280, Note_on_c, 0, 55, 45
1, 122280, Note_on_c, 0, 57, 53
1, 122400, Tempo, 449438
1, 122400, Note_on_c, 0, 57, 0
1, 122400, Note_on_c, 0, 55, 0
1, 122400, Note_on_c, 0, 65, 73
1, 122420, Note_on_c, 0, 64, 0
1, 122520, Note_on_c, 0, 53, 46
1, 122520, Note_on_c, 0, 57, 55
1, 122640, Tempo, 421053
1, 122640, Note_on_c, 0, 37, 0
1, 122640, Note_on_c, 0, 49, 0
1, 122640, Note_on_c, 0, 38, 48
1, 122640, Note_on_c, 0, 50, 61
1, 122748, Note_on_c, 0, 57, 0
1, 122748, Note_on_c, 0, 53, 0
1, 122760, Note_on_c, 0, 53, 46
1, 122760, Note_on_c, 0, 57, 55
1, 122880, Tempo, 434783
1, 122880, Note_on_c, 0, 57, 0
1, 122880, Note_on_c, 0, 65, 0
1, 122880, Note_on_c, 0, 53, 0
1, 122880, Note_on_c, 0, 61, 77
1, 123000, Note_on_c, 0, 55, 47
1, 123000, Note_on_c, 0, 58, 55
1, 123120, Tempo, 419580
1, 123120, Note_on_c, 0, 50, 0
1, 123120, Note_on_c, 0, 38, 0
1, 123120, Note_on_c, 0, 64, 69
1, 123228, Note_on_c, 0, 55, 0
1, 123228, Note_on_c, 0, 58, 0
1, 123240, Note_on_c, 0, 55, 47
1, 123240, Note_on_c, 0, 58, 55
1, 123360, Tempo, 433213
1, 123360, Note_on_c, 0, 58, 0
1, 123360, Note_on_c, 0, 55, 0
1, 123360, Note_on_c, 0, 62, 73
1, 123380, Note_on_c, 0, 61, 0
1, 123480, Note_on_c, 0, 53, 45
1, 123480, Note_on_c, 0, 57, 53
1, 123600, Tempo, 421053
1, 123600, Note_on_c, 0, 64, 0
1, 123600, Note_on_c, 0, 65, 66
1, 123708, Note_on_c, 0, 57, 0
1, 123708, Note_on_c, 0, 53, 0
1, 123720, Note_on_c, 0, 53, 42
1, 123720, Note_on_c, 0, 57, 50
1, 123840, Tempo, 434783
1, 123840, Note_on_c, 0, 57, 0
1, 123840, Note_on_c, 0, 53, 0
1, 123840, Note_on_c, 0, 60, 69
1, 123860, Note_on_c, 0, 62, 0
1, 123960, Note_on_c, 0, 50, 44
1, 123960, Note_on_c, 0, 57, 53
1, 124080, Tempo, 418118
1, 124080, Note_on_c, 0, 65, 0
1, 124080, Note_on_c, 0, 66, 63
1, 124188, Note_on_c, 0, 57, 0
1, 124188, Note_on_c, 0, 50, 0
1, 124200, Note_on_c, 0, 50, 44
1, 124200, Note_on_c, 0, 57, 53
1, 124280, Tempo, 415225
1, 124320, Note_on_c, 0, 57, 0
1, 124320, Note_on_c, 0, 50, 0
1, 124320, Note_on_c, 0, 58, 70
1, 124340, Note_on_c, 0, 60, 0
1, 124360, Tempo, 416667
1, 124400, Tempo, 418118
1, 124440, Tempo, 419580
1, 124440, Note_on_c, 0, 50, 41
1, 124440, Note_on_c, 0, 55, 49
1, 124480, Tempo, 421053
1, 124520, Tempo, 422535
1, 124560, Tempo, 424028
1, 124560, Note_on_c, 0, 66, 0
1, 124560, Note_on_c, 0, 67, 59
1, 124600, Tempo, 425532
1, 124640, Tempo, 427046
1, 124668, Note_on_c, 0, 55, 0
1, 124668, Note_on_c, 0, 50, 0
1, 124680, Tempo, 428571
1, 124680, Note_on_c, 0, 50, 41
1, 124680, Note_on_c, 0, 55, 49
1, 124720, Tempo, 430108
1, 124760, Tempo, 431655
1, 124800, Tempo, 433213
1, 124800, Note_on_c, 0, 55, 0
1, 124800, Note_on_c, 0, 50, 0
1, 124800, Note_on_c, 0, 58, 0
1, 124800, Note_on_c, 0, 59, 65
1, 124920, Note_on_c, 0, 50, 41
1, 124920, Note_on_c, 0, 53, 49
1, 125040, Note_on_c, 0, 67, 0
1, 125040, Note_on_c, 0, 68, 56
1, 125148, Note_on_c, 0, 53, 0
1, 125148, Note_on_c, 0, 50, 0
1, 125160, Note_on_c, 0, 50, 41
1, 125160, Note_on_c, 0, 53, 49
1, 125240, Tempo, 437956
1, 125280, Tempo, 447761
1, 125280, Note_on_c, 0, 53, 0
1, 125280, Note_on_c, 0, 50, 0
1, 125280, Note_on_c, 0, 60, 61
1, 125300, Note_on_c, 0, 59, 0
1, 125400, Note_on_c, 0, 48, 40
1, 125400, Note_on_c, 0, 53, 48
1, 125520, Tempo, 418118
1, 125520, Note_on_c, 0, 68, 0
1, 125520, Note_on_c, 0, 69, 54
1, 125628, Note_on_c, 0, 53, 0
1, 125628, Note_on_c, 0, 48, 0
1, 125640, Note_on_c, 0, 48, 40
1, 125640, Note_on_c, 0, 53, 48
1, 125720, Tempo, 415225
1, 125760, Note_on_c, 0, 53, 0
1, 125760, Note_on_c, 0, 48, 0
1, 125760, Note_on_c, 0, 59, 59
1, 125780, Note_on_c, 0, 60, 0
1, 125800, Tempo, 416667
1, 125840, Tempo, 418118
1, 125880, Tempo, 419580
1, 125880, Note_on_c, 0, 50, 39
1, 125880, Note_on_c, 0, 53, 46
1, 125920, Tempo, 421053
1, 125960, Tempo, 422535
1, 126000, Tempo, 424028
1, 126000, Note_on_c, 0, 69, 0
1, 126000, Note_on_c, 0, 68, 53
1, 126040, Tempo, 425532
1, 126080, Tempo, 427046
1, 126108, Note_on_c, 0, 53, 0
1, 126108, Note_on_c, 0, 50, 0
1, 126120, Tempo, 428571
1, 126120, Note_on_c, 0, 50, 39
1, 126120, Note_on_c, 0, 53, 46
1, 126160, Tempo, 430108
1, 126200, Tempo, 431655
1, 126240, Tempo, 433213
1, 126240, Note_on_c, 0, 53, 0
1, 126240, Note_on_c, 0, 50, 0
1, 126240, Note_on_c, 0, 60, 57
1, 126260, Note_on_c, 0, 59, 0
1, 126360, Note_on_c, 0, 48, 38
1, 126360, Note_on_c, 0, 53, 45
1, 126480, Note_on_c, 0, 68, 0
1, 126480, Note_on_c, 0, 69, 52
1, 126588, Note_on_c, 0, 53, 0
1, 126588, Note_on_c, 0, 48, 0
1, 126600, Note_on_c, 0, 48, 38
1, 126600, Note_on_c, 0, 53, 45
1, 126680, Tempo, 437956
1, 126720, Tempo, 447761
1, 126720, Note_on_c, 0, 53, 0
1, 126720, Note_on_c, 0, 48, 0
1, 126720, Note_on_c, 0, 59, 56
1, 126740, Note_on_c, 0, 60, 0
1, 126840, Note_on_c, 0, 50, 36
1, 126840, Note_on_c, 0, 53, 43
1, 126960, Tempo, 434783
1, 126960, Note_on_c, 0, 69, 0
1, 126960, Note_on_c, 0, 67, 51
1, 127068, Note_on_c, 0, 53, 0
1, 127068, Note_on_c, 0, 50, 0
1, 127080, Note_on_c, 0, 50, 35
1, 127080, Note_on_c, 0, 53, 42
1, 127120, Tempo, 431655
1, 127200, Tempo, 433213
1, 127200, Note_on_c, 0, 53, 0
1, 127200, Note_on_c, 0, 50, 0
1, 127200, Note_on_c, 0, 60, 54
1, 127220, Note_on_c, 0, 59, 0
1, 127280, Tempo, 434783
1, 127320, Tempo, 436364
1, 127320, Note_on_c, 0, 50, 35
1, 127320, Note_on_c, 0, 53, 42
1, 127400, Tempo, 437956
1, 127440, Tempo, 439560
1, 127440, Note_on_c, 0, 67, 0
1, 127440, Note_on_c, 0, 68, 50
1, 127520, Tempo, 441176
1, 127548, Note_on_c, 0, 53, 0
1, 127548, Note_on_c, 0, 50, 0
1, 127560, Tempo, 442804
1, 127560, Note_on_c, 0, 50, 34
1, 127560, Note_on_c, 0, 53, 41
1, 127640, Tempo, 444444
1, 127680, Tempo, 446097
1, 127680, Note_on_c, 0, 53, 0
1, 127680, Note_on_c, 0, 50, 0
1, 127680, Note_on_c, 0, 59, 49
1, 127700, Note_on_c, 0, 60, 0
1, 127720, Tempo, 446097
1, 127760, Tempo, 447761
1, 127800, Tempo, 449438
1, 127800, Note_on_c, 0, 50, 32
1, 127800, Note_on_c, 0, 53, 38
1, 127840, Tempo, 451128
1, 127880, Tempo, 452830
1, 127920, Tempo, 456274
1, 127920, Note_on_c, 0, 68, 0
1, 127920, Note_on_c, 0, 67, 49
1, 128028, Note_on_c, 0, 53, 0
1, 128028, Note_on_c, 0, 50, 0
1, 128040, Tempo, 545455
1, 128040, Note_on_c, 0, 50, 32
1, 128040, Note_on_c, 0, 53, 38
1, 128160, Tempo, 495868
1, 128160, Note_on_c, 0, 53, 0
1, 128160, Note_on_c, 0, 50, 0
1, 128160, Note_on_c, 0, 59, 0
1, 128160, Note_on_c, 0, 60, 49
1, 128160, Note_on_c, 0, 58, 41
1, 128280, Note_on_c, 0, 48, 30
1, 128280, Note_on_c, 0, 55, 36
1, 128400, Tempo, 468750
1, 128400, Note_on_c, 0, 67, 0
1, 128400, Note_on_c, 0, 64, 45
1, 128508, Note_on_c, 0, 48, 0
1, 128508, Note_on_c, 0, 55, 0
1, 128520, Note_on_c, 0, 48, 30
1, 128520, Note_on_c, 0, 55, 36
1, 128640, Tempo, 470588
1, 128640, Note_on_c, 0, 55, 0
1, 128640, Note_on_c, 0, 60, 0
1, 128640, Note_on_c, 0, 48, 0
1, 128640, Note_on_c, 0, 58, 0
1, 128640, Note_on_c, 0, 60, 48
1, 128640, Note_on_c, 0, 58, 40
1, 128680, Tempo, 472441
1, 128720, Tempo, 474308
1, 128760, Tempo, 476190
1, 128760, Note_on_c, 0, 48, 31
1, 128760, Note_on_c, 0, 54, 37
1, 128800, Tempo, 478088
1, 128840, Tempo, 480000
1, 128880, Tempo, 481928
1, 128880, Note_on_c, 0, 64, 0
1, 128880, Note_on_c, 0, 63, 44
1, 128920, Tempo, 483871
1, 128960, Tempo, 485830
1, 128988, Note_on_c, 0, 48, 0
1, 128988, Note_on_c, 0, 54, 0
1, 129000, Tempo, 487805
1, 129000, Note_on_c, 0, 48, 31
1, 129000, Note_on_c, 0, 54, 37
1, 129040, Tempo, 489796
1, 129080, Tempo, 491803
1, 129120, Tempo, 493827
1, 129120, Note_on_c, 0, 54, 0
1, 129120, Note_on_c, 0, 60, 0
1, 129120, Note_on_c, 0, 48, 0
1, 129120, Note_on_c, 0, 58, 0
1, 129120, Note_on_c, 0, 60, 47
1, 129120, Note_on_c, 0, 58, 39
1, 129160, Tempo, 495868
1, 129200, Tempo, 497925
1, 129240, Tempo, 500000
1, 129240, Note_on_c, 0, 48, 30
1, 129240, Note_on_c, 0, 55, 35
1, 129280, Tempo, 502092
1, 129320, Tempo, 504202
1, 129360, Tempo, 506329
1, 129360, Note_on_c, 0, 63, 0
1, 129360, Note_on_c, 0, 64, 38
1, 129400, Tempo, 508475
1, 129440, Tempo, 510638
1, 129468, Note_on_c, 0, 48, 0
1, 129468, Note_on_c, 0, 55, 0
1, 129480, Tempo, 512821
1, 129480, Note_on_c, 0, 48, 30
1, 129480, Note_on_c, 0, 55, 35
1, 129520, Tempo, 515021
1, 129560, Tempo, 517241
1, 129600, Tempo, 519481
1, 129600, Note_on_c, 0, 55, 0
1, 129600, Note_on_c, 0, 60, 0
1, 129600, Note_on_c, 0, 48, 0
1, 129600, Note_on_c, 0, 58, 0
1, 129600, Note_on_c, 0, 57, 36
1, 129600, Note_on_c, 0, 60, 43
1, 129720, Note_on_c, 0, 48, 26
1, 129720, Note_on_c, 0, 53, 31
1, 129840, Tempo, 542986
1, 129840, Note_on_c, 0, 64, 0
1, 129840, Note_on_c, 0, 65, 38
1, 129911, Control_c, 0, 64, 127
1, 129948, Note_on_c, 0, 48, 0
1, 129948, Note_on_c, 0, 53, 0
1, 129960, Note_on_c, 0, 48, 25
1, 129960, Note_on_c, 0, 53, 30
1, 130080, Tempo, 603015
1, 130080, Note_on_c, 0, 53, 0
1, 130080, Note_on_c, 0, 57, 0
1, 130080, Note_on_c, 0, 48, 0
1, 130080, Note_on_c, 0, 60, 0
1, 130080, Note_on_c, 0, 57, 36
1, 130080, Note_on_c, 0, 60, 43
1, 130200, Note_on_c, 0, 48, 25
1, 130200, Note_on_c, 0, 53, 30
1, 130320, Tempo, 784314
1, 130320, Note_on_c, 0, 65, 0
1, 130320, Note_on_c, 0, 72, 38
1, 130428, Note_on_c, 0, 48, 0
1, 130428, Note_on_c, 0, 53, 0
1, 130440, Note_on_c, 0, 48, 25
1, 130440, Note_on_c, 0, 53, 30
1, 130518, Control_c, 0, 64, 0
1, 130560, Tempo, 606061
1, 130560, Note_on_c, 0, 53, 0
1, 130560, Note_on_c, 0, 57, 0
1, 130560, Note_on_c, 0, 72, 0
1, 130560, Note_on_c, 0, 60, 0
1, 130560, Note_on_c, 0, 48, 0
1, 130560, Note_on_c, 0, 65, 48
1, 130680, Note_on_c, 0, 57, 30
1, 130680, Note_on_c, 0, 60, 36
1, 130800, Tempo, 552995
1, 130800, Note_on_c, 0, 29, 35
1, 130800, Note_on_c, 0, 41, 44
1, 130908, Note_on_c, 0, 60, 0
1, 130908, Note_on_c, 0, 57, 0
1, 130920, Note_on_c, 0, 57, 32
1, 130920, Note_on_c, 0, 60, 38
1, 131040, Tempo, 506329
1, 131040, Note_on_c, 0, 60, 0
1, 131040, Note_on_c, 0, 57, 0
1, 131040, Note_on_c, 0, 64, 49
1, 131060, Note_on_c, 0, 65, 0
1, 131160, Note_on_c, 0, 55, 34
1, 131160, Note_on_c, 0, 58, 41
1, 131280, Tempo, 466926
1, 131280, Note_on_c, 0, 29, 0
1, 131280, Note_on_c, 0, 41, 0
1, 131280, Note_on_c, 0, 31, 36
1, 131280, Note_on_c, 0, 43, 46
1, 131360, Tempo, 465116
1, 131388, Note_on_c, 0, 58, 0
1, 131388, Note_on_c, 0, 55, 0
1, 131400, Tempo, 463320
1, 131400, Note_on_c, 0, 55, 34
1, 131400, Note_on_c, 0, 58, 41
1, 131440, Tempo, 461538
1, 131480, Tempo, 459770
1, 131520, Tempo, 458015
1, 131520, Note_on_c, 0, 58, 0
1, 131520, Note_on_c, 0, 55, 0
1, 131520, Note_on_c, 0, 62, 54
1, 131540, Note_on_c, 0, 64, 0
1, 131600, Tempo, 456274
1, 131640, Tempo, 454545
1, 131640, Note_on_c, 0, 53, 36
1, 131640, Note_on_c, 0, 59, 43
1, 131680, Tempo, 452830
1, 131720, Tempo, 451128
1, 131760, Tempo, 449438
1, 131760, Note_on_c, 0, 31, 0
1, 131760, Note_on_c, 0, 43, 0
1, 131760, Note_on_c, 0, 32, 39
1, 131760, Note_on_c, 0, 44, 49
1, 131840, Tempo, 447761
1, 131868, Note_on_c, 0, 59, 0
1, 131868, Note_on_c, 0, 53, 0
1, 131880, Tempo, 446097
1, 131880, Note_on_c, 0, 53, 37
1, 131880, Note_on_c, 0, 59, 44
1, 131920, Tempo, 444444
1, 131960, Tempo, 442804
1, 132000, Tempo, 441176
1, 132000, Note_on_c, 0, 59, 0
1, 132000, Note_on_c, 0, 53, 0
1, 132000, Note_on_c, 0, 61, 60
1, 132020, Note_on_c, 0, 62, 0
1, 132080, Tempo, 439560
1, 132120, Tempo, 437956
1, 132120, Note_on_c, 0, 52, 38
1, 132120, Note_on_c, 0, 57, 46
1, 132160, Tempo, 436364
1, 132200, Tempo, 434783
1, 132240, Tempo, 433213
1, 132240, Note_on_c, 0, 32, 0
1, 132240, Note_on_c, 0, 44, 0
1, 132240, Note_on_c, 0, 33, 40
1, 132240, Note_on_c, 0, 45, 51
1, 132320, Tempo, 431655
1, 132348, Note_on_c, 0, 57, 0
1, 132348, Note_on_c, 0, 52, 0
1, 132360, Tempo, 430108
1, 132360, Note_on_c, 0, 52, 39
1, 132360, Note_on_c, 0, 57, 47
1, 132400, Tempo, 428571
1, 132440, Tempo, 427046
1, 132480, Tempo, 425532
1, 132480, Note_on_c, 0, 57, 0
1, 132480, Note_on_c, 0, 52, 0
1, 132480, Note_on_c, 0, 62, 65
1, 132500, Note_on_c, 0, 61, 0
1, 132600, Note_on_c, 0, 53, 40
1, 132600, Note_on_c, 0, 56, 48
1, 132640, Tempo, 424028
1, 132720, Note_on_c, 0, 33, 0
1, 132720, Note_on_c, 0, 45, 0
1, 132720, Note_on_c, 0, 35, 42
1, 132720, Note_on_c, 0, 47, 53
1, 132828, Note_on_c, 0, 56, 0
1, 132828, Note_on_c, 0, 53, 0
1, 132840, Tempo, 422535
1, 132840, Note_on_c, 0, 53, 41
1, 132840, Note_on_c, 0, 56, 49
1, 132880, Tempo, 408163
1, 132920, Tempo, 409556
1, 132960, Tempo, 415225
1, 132960, Note_on_c, 0, 56, 0
1, 132960, Note_on_c, 0, 53, 0
1, 132960, Note_on_c, 0, 63, 68
1, 132980, Note_on_c, 0, 62, 0
1, 133080, Note_on_c, 0, 54, 43
1, 133080, Note_on_c, 0, 57, 51
1, 133120, Tempo, 416667
1, 133200, Note_on_c, 0, 35, 0
1, 133200, Note_on_c, 0, 47, 0
1, 133200, Note_on_c, 0, 36, 44
1, 133200, Note_on_c, 0, 48, 55
1, 133240, Tempo, 418118
1, 133308, Note_on_c, 0, 57, 0
1, 133308, Note_on_c, 0, 54, 0
1, 133320, Note_on_c, 0, 54, 43
1, 133320, Note_on_c, 0, 57, 52
1, 133400, Tempo, 419580
1, 133440, Note_on_c, 0, 57, 0
1, 133440, Note_on_c, 0, 54, 0
1, 133440, Note_on_c, 0, 64, 68
1, 133460, Note_on_c, 0, 63, 0
1, 133520, Tempo, 421053
1, 133560, Note_on_c, 0, 55, 44
1, 133560, Note_on_c, 0, 57, 53
1, 133640, Tempo, 422535
1, 133680, Tempo, 470588
1, 133680, Note_on_c, 0, 36, 0
1, 133680, Note_on_c, 0, 48, 0
1, 133680, Note_on_c, 0, 37, 46
1, 133680, Note_on_c, 0, 49, 58
1, 133788, Note_on_c, 0, 57, 0
1, 133788, Note_on_c, 0, 55, 0
1, 133800, Note_on_c, 0, 55, 45
1, 133800, Note_on_c, 0, 57, 53
1, 133920, Tempo, 449438
1, 133920, Note_on_c, 0, 57, 0
1, 133920, Note_on_c, 0, 55, 0
1, 133920, Note_on_c, 0, 65, 73
1, 133940, Note_on_c, 0, 64, 0
1, 134040, Note_on_c, 0, 53, 46
1, 134040, Note_on_c, 0, 57, 55
1, 134160, Tempo, 430108
1, 134160, Note_on_c, 0, 37, 0
1, 134160, Note_on_c, 0, 49, 0
1, 134160, Note_on_c, 0, 38, 48
1, 134160, Note_on_c, 0, 50, 61
1, 134268, Note_on_c, 0, 57, 0
1, 134268, Note_on_c, 0, 53, 0
1, 134280, Note_on_c, 0, 53, 46
1, 134280, Note_on_c, 0, 57, 55
1, 134400, Tempo, 447761
1, 134400, Note_on_c, 0, 57, 0
1, 134400, Note_on_c, 0, 65, 0
1, 134400, Note_on_c, 0, 53, 0
1, 134400, Note_on_c, 0, 61, 77
1, 134520, Note_on_c, 0, 55, 47
1, 134520, Note_on_c, 0, 58, 55
1, 134640, Tempo, 433213
1, 134640, Note_on_c, 0, 50, 0
1, 134640, Note_on_c, 0, 38, 0
1, 134640, Note_on_c, 0, 64, 69
1, 134748, Note_on_c, 0, 55, 0
1, 134748, Note_on_c, 0, 58, 0
1, 134760, Note_on_c, 0, 55, 47
1, 134760, Note_on_c, 0, 58, 55
1, 134880, Tempo, 446097
1, 134880, Note_on_c, 0, 58, 0
1, 134880, Note_on_c, 0, 55, 0
1, 134880, Note_on_c, 0, 62, 73
1, 134900, Note_on_c, 0, 61, 0
1, 135000, Note_on_c, 0, 53, 45
1, 135000, Note_on_c, 0, 57, 53
1, 135120, Tempo, 431655
1, 135120, Note_on_c, 0, 64, 0
1, 135120, Note_on_c, 0, 65, 66
1, 135228, Note_on_c, 0, 57, 0
1, 135228, Note_on_c, 0, 53, 0
1, 135240, Note_on_c, 0, 53, 42
1, 135240, Note_on_c, 0, 57, 50
1, 135360, Tempo, 447761
1, 135360, Note_on_c, 0, 57, 0
1, 135360, Note_on_c, 0, 53, 0
1, 135360, Note_on_c, 0, 60, 69
1, 135380, Note_on_c, 0, 62, 0
1, 135480, Note_on_c, 0, 50, 44
1, 135480, Note_on_c, 0, 57, 53
1, 135600, Tempo, 425532
1, 135600, Note_on_c, 0, 65, 0
1, 135600, Note_on_c, 0, 66, 63
1, 135708, Note_on_c, 0, 57, 0
1, 135708, Note_on_c, 0, 50, 0
1, 135720, Note_on_c, 0, 50, 44
1, 135720, Note_on_c, 0, 57, 53
1, 135800, Tempo, 415225
1, 135840, Tempo, 419580
1, 135840, Note_on_c, 0, 57, 0
1, 135840, Note_on_c, 0, 50, 0
1, 135840, Note_on_c, 0, 60, 0
1, 135840, Note_on_c, 0, 58, 70
1, 135920, Tempo, 421053
1, 135960, Note_on_c, 0, 50, 41
1, 135960, Note_on_c, 0, 55, 49
1, 136000, Tempo, 422535
1, 136080, Tempo, 424028
1, 136080, Note_on_c, 0, 66, 0
1, 136080, Note_on_c, 0, 67, 59
1, 136160, Tempo, 425532
1, 136188, Note_on_c, 0, 55, 0
1, 136188, Note_on_c, 0, 50, 0
1, 136200, Tempo, 427046
1, 136200, Note_on_c, 0, 50, 41
1, 136200, Note_on_c, 0, 55, 49
1, 136240, Tempo, 430108
1, 136280, Tempo, 431655
1, 136320, Tempo, 433213
1, 136320, Note_on_c, 0, 55, 0
1, 136320, Note_on_c, 0, 50, 0
1, 136320, Note_on_c, 0, 58, 0
1, 136320, Note_on_c, 0, 59, 65
1, 136440, Note_on_c, 0, 50, 41
1, 136440, Note_on_c, 0, 53, 49
1, 136560, Note_on_c, 0, 67, 0
1, 136560, Note_on_c, 0, 68, 56
1, 136668, Note_on_c, 0, 53, 0
1, 136668, Note_on_c, 0, 50, 0
1, 136680, Note_on_c, 0, 50, 41
1, 136680, Note_on_c, 0, 53, 49
1, 136760, Tempo, 437956
1, 136800, Tempo, 447761
1, 136800, Note_on_c, 0, 53, 0
1, 136800, Note_on_c, 0, 50, 0
1, 136800, Note_on_c, 0, 60, 61
1, 136820, Note_on_c, 0, 59, 0
1, 136920, Note_on_c, 0, 48, 40
1, 136920, Note_on_c, 0, 53, 48
1, 137040, Tempo, 425532
1, 137040, Note_on_c, 0, 68, 0
1, 137040, Note_on_c, 0, 69, 54
1, 137148, Note_on_c, 0, 53, 0
1, 137148, Note_on_c, 0, 48, 0
1, 137160, Note_on_c, 0, 48, 40
1, 137160, Note_on_c, 0, 53, 48
1, 137240, Tempo, 415225
1, 137280, Tempo, 424028
1, 137280, Note_on_c, 0, 53, 0
1, 137280, Note_on_c, 0, 48, 0
1, 137280, Note_on_c, 0, 59, 59
1, 137300, Note_on_c, 0, 60, 0
1, 137400, Note_on_c, 0, 50, 39
1, 137400, Note_on_c, 0, 53, 46
1, 137440, Tempo, 425532
1, 137520, Note_on_c, 0, 69, 0
1, 137520, Note_on_c, 0, 68, 53
1, 137560, Tempo, 427046
1, 137628, Note_on_c, 0, 53, 0
1, 137628, Note_on_c, 0, 50, 0
1, 137640, Note_on_c, 0, 50, 39
1, 137640, Note_on_c, 0, 53, 46
1, 137680, Tempo, 428571
1, 137720, Tempo, 431655
1, 137760, Tempo, 433213
1, 137760, Note_on_c, 0, 53, 0
1, 137760, Note_on_c, 0, 50, 0
1, 137760, Note_on_c, 0, 60, 57
1, 137780, Note_on_c, 0, 59, 0
1, 137880, Note_on_c, 0, 48, 38
1, 137880, Note_on_c, 0, 53, 45
1, 138000, Note_on_c, 0, 68, 0
1, 138000, Note_on_c, 0, 69, 52
1, 138108, Note_on_c, 0, 53, 0
1, 138108, Note_on_c, 0, 48, 0
1, 138120, Note_on_c, 0, 48, 38
1, 138120, Note_on_c, 0, 53, 45
1, 138200, Tempo, 437956
1, 138240, Tempo, 447761
1, 138240, Note_on_c, 0, 53, 0
1, 138240, Note_on_c, 0, 48, 0
1, 138240, Note_on_c, 0, 59, 56
1, 138260, Note_on_c, 0, 60, 0
1, 138360, Note_on_c, 0, 50, 36
1, 138360, Note_on_c, 0, 53, 43
1, 138480, Tempo, 434783
1, 138480, Note_on_c, 0, 69, 0
1, 138480, Note_on_c, 0, 67, 51
1, 138588, Note_on_c, 0, 53, 0
1, 138588, Note_on_c, 0, 50, 0
1, 138600, Note_on_c, 0, 50, 35
1, 138600, Note_on_c, 0, 53, 42
1, 138640, Tempo, 431655
1, 138720, Tempo, 433213
1, 138720, Note_on_c, 0, 53, 0
1, 138720, Note_on_c, 0, 50, 0
1, 138720, Note_on_c, 0, 60, 54
1, 138740, Note_on_c, 0, 59, 0
1, 138800, Tempo, 434783
1, 138840, Tempo, 436364
1, 138840, Note_on_c, 0, 50, 35
1, 138840, Note_on_c, 0, 53, 42
1, 138920, Tempo, 437956
1, 138960, Tempo, 439560
1, 138960, Note_on_c, 0, 67, 0
1, 138960, Note_on_c, 0, 68, 50
1, 139040, Tempo, 441176
1, 139068, Note_on_c, 0, 53, 0
1, 139068, Note_on_c, 0, 50, 0
1, 139080, Tempo, 442804
1, 139080, Note_on_c, 0, 50, 34
1, 139080, Note_on_c, 0, 53, 41
1, 139160, Tempo, 444444
1, 139200, Tempo, 446097
1, 139200, Note_on_c, 0, 53, 0
1, 139200, Note_on_c, 0, 50, 0
1, 139200, Note_on_c, 0, 59, 49
1, 139220, Note_on_c, 0, 60, 0
1, 139240, Tempo, 446097
1, 139280, Tempo, 447761
1, 139320, Tempo, 449438
1, 139320, Note_on_c, 0, 50, 32
1, 139320, Note_on_c, 0, 53, 38
1, 139360, Tempo, 451128
1, 139400, Tempo, 452830
1, 139440, Tempo, 456274
1, 139440, Note_on_c, 0, 68, 0
1, 139440, Note_on_c, 0, 67, 49
1, 139548, Note_on_c, 0, 53, 0
1, 139548, Note_on_c, 0, 50, 0
1, 139560, Tempo, 545455
1, 139560, Note_on_c, 0, 50, 32
1, 139560, Note_on_c, 0, 53, 38
1, 139680, Tempo, 495868
1, 139680, Note_on_c, 0, 53, 0
1, 139680, Note_on_c, 0, 50, 0
1, 139680, Note_on_c, 0, 59, 0
1, 139680, Note_on_c, 0, 60, 49
1, 139680, Note_on_c, 0, 58, 41
1, 139800, Note_on_c, 0, 48, 29
1, 139800, Note_on_c, 0, 55, 35
1, 139920, Tempo, 468750
1, 139920, Note_on_c, 0, 67, 0
1, 139920, Note_on_c, 0, 64, 44
1, 140028, Note_on_c, 0, 48, 0
1, 140028, Note_on_c, 0, 55, 0
1, 140040, Note_on_c, 0, 48, 29
1, 140040, Note_on_c, 0, 55, 34
1, 140120, Tempo, 470588
1, 140160, Tempo, 472441
1, 140160, Note_on_c, 0, 55, 0
1, 140160, Note_on_c, 0, 60, 0
1, 140160, Note_on_c, 0, 48, 0
1, 140160, Note_on_c, 0, 58, 0
1, 140160, Note_on_c, 0, 60, 45
1, 140160, Note_on_c, 0, 58, 37
1, 140200, Tempo, 474308
1, 140240, Tempo, 478088
1, 140280, Tempo, 480000
1, 140280, Note_on_c, 0, 48, 29
1, 140280, Note_on_c, 0, 54, 34
1, 140320, Tempo, 483871
1, 140360, Tempo, 485830
1, 140400, Tempo, 487805
1, 140400, Note_on_c, 0, 64, 0
1, 140400, Note_on_c, 0, 63, 40
1, 140440, Tempo, 491803
1, 140480, Tempo, 493827
1, 140508, Note_on_c, 0, 48, 0
1, 140508, Note_on_c, 0, 54, 0
1, 140520, Tempo, 497925
1, 140520, Note_on_c, 0, 48, 28
1, 140520, Note_on_c, 0, 54, 33
1, 140560, Tempo, 500000
1, 140600, Tempo, 502092
1, 140640, Tempo, 506329
1, 140640, Note_on_c, 0, 54, 0
1, 140640, Note_on_c, 0, 60, 0
1, 140640, Note_on_c, 0, 48, 0
1, 140640, Note_on_c, 0, 58, 0
1, 140640, Note_on_c, 0, 60, 42
1, 140640, Note_on_c, 0, 58, 34
1, 140680, Tempo, 508475
1, 140720, Tempo, 512821
1, 140760, Tempo, 515021
1, 140760, Note_on_c, 0, 48, 26
1, 140760, Note_on_c, 0, 55, 31
1, 140800, Tempo, 517241
1, 140840, Tempo, 521739
1, 140880, Tempo, 524017
1, 140880, Note_on_c, 0, 63, 0
1, 140880, Note_on_c, 0, 64, 33
1, 140920, Tempo, 528634
1, 140960, Tempo, 530973
1, 140988, Note_on_c, 0, 48, 0
1, 140988, Note_on_c, 0, 55, 0
1, 141000, Tempo, 533333
1, 141000, Note_on_c, 0, 48, 25
1, 141000, Note_on_c, 0, 55, 31
1, 141040, Tempo, 538117
1, 141080, Tempo, 540541
1, 141120, Tempo, 582524
1, 141120, Note_on_c, 0, 55, 0
1, 141120, Note_on_c, 0, 60, 0
1, 141120, Note_on_c, 0, 48, 0
1, 141120, Note_on_c, 0, 58, 0
1, 141120, Note_on_c, 0, 57, 31
1, 141120, Note_on_c, 0, 60, 36
1, 141240, Note_on_c, 0, 48, 21
1, 141240, Note_on_c, 0, 53, 26
1, 141360, Tempo, 685714
1, 141360, Note_on_c, 0, 64, 0
1, 141360, Note_on_c, 0, 65, 32
1, 141406, Control_c, 0, 64, 127
1, 141468, Note_on_c, 0, 48, 0
1, 141468, Note_on_c, 0, 53, 0
1, 141480, Note_on_c, 0, 48, 21
1, 141480, Note_on_c, 0, 53, 25
1, 141600, Tempo, 851064
1, 141600, Note_on_c, 0, 53, 0
1, 141600, Note_on_c, 0, 57, 0
1, 141600, Note_on_c, 0, 48, 0
1, 141600, Note_on_c, 0, 60, 0
1, 141600, Note_on_c, 0, 57, 25
1, 141600, Note_on_c, 0, 60, 30
1, 141720, Note_on_c, 0, 48, 18
1, 141720, Note_on_c, 0, 53, 23
1, 141840, Tempo, 3000000
1, 141840, Note_on_c, 0, 65, 0
1, 141840, Note_on_c, 0, 72, 32
1, 141948, Note_on_c, 0, 48, 0
1, 141948, Note_on_c, 0, 53, 0
1, 141960, Tempo, 7500000
1, 141960, Note_on_c, 0, 48, 15
1, 141960, Note_on_c, 0, 53, 21
1, 142073, Control_c, 0, 64, 0
1, 142080, Tempo, 1000000
1, 142080, Note_on_c, 0, 53, 0
1, 142080, Note_on_c, 0, 57, 0
1, 142080, Note_on_c, 0, 72, 0
1, 142080, Note_on_c, 0, 60, 0
1, 142080, Note_on_c, 0, 48, 0
1, 142560, Tempo, 500000
1, 142560, Marker_t, "Variation III"
1, 142560, Text_t, "bdca426d104a26ac9dcb070447587523"
1, 142560, Control_c, 0, 91, 127
1, 143520, Tempo, 528634
1, 143520, Note_on_c, 0, 66, 44
1, 143600, Note_on_c, 0, 67, 45
1, 143620, Note_on_c, 0, 66, 0
1, 143680, Note_on_c, 0, 69, 46
1, 143700, Note_on_c, 0, 67, 0
1, 143760, Tempo, 508475
1, 143760, Note_on_c, 0, 70, 46
1, 143780, Note_on_c, 0, 69, 0
1, 143840, Note_on_c, 0, 72, 47
1, 143860, Note_on_c, 0, 70, 0
1, 143920, Note_on_c, 0, 74, 48
1, 143940, Note_on_c, 0, 72, 0
1, 144000, Tempo, 480000
1, 144000, Note_on_c, 0, 76, 49
1, 144000, Note_on_c, 0, 36, 50
1, 144020, Note_on_c, 0, 74, 0
1, 144080, Note_on_c, 0, 79, 47
1, 144100, Note_on_c, 0, 76, 0
1, 144120, Note_on_c, 0, 36, 0
1, 144160, Tempo, 466926
1, 144160, Note_on_c, 0, 79, 0
1, 144160, Note_on_c, 0, 72, 47
1, 144240, Note_on_c, 0, 73, 51
1, 144240, Note_on_c, 0, 64, 41
1, 144240, Note_on_c, 0, 60, 41
1, 144260, Note_on_c, 0, 72, 0
1, 144320, Tempo, 465116
1, 144320, Note_on_c, 0, 82, 47
1, 144340, Note_on_c, 0, 73, 0
1, 144360, Note_on_c, 0, 60, 0
1, 144360, Note_on_c, 0, 64, 0
1, 144400, Note_on_c, 0, 82, 0
1, 144400, Note_on_c, 0, 69, 48
1, 144440, Tempo, 463320
1, 144480, Tempo, 474308
1, 144480, Note_on_c, 0, 70, 51
1, 144480, Note_on_c, 0, 40, 51
1, 144500, Note_on_c, 0, 69, 0
1, 144560, Note_on_c, 0, 79, 45
1, 144580, Note_on_c, 0, 70, 0
1, 144600, Note_on_c, 0, 40, 0
1, 144640, Note_on_c, 0, 79, 0
1, 144640, Note_on_c, 0, 66, 45
1, 144720, Tempo, 465116
1, 144720, Note_on_c, 0, 67, 51
1, 144720, Note_on_c, 0, 64, 41
1, 144720, Note_on_c, 0, 60, 41
1, 144740, Note_on_c, 0, 66, 0
1, 144800, Note_on_c, 0, 69, 46
1, 144820, Note_on_c, 0, 67, 0
1, 144840, Note_on_c, 0, 60, 0
1, 144840, Note_on_c, 0, 64, 0
1, 144880, Note_on_c, 0, 70, 46
1, 144900, Note_on_c, 0, 69, 0
1, 144960, Tempo, 474308
1, 144960, Note_on_c, 0, 72, 51
1, 144960, Note_on_c, 0, 43, 53
1, 144980, Note_on_c, 0, 70, 0
1, 145040, Note_on_c, 0, 74, 51
1, 145060, Note_on_c, 0, 72, 0
1, 145080, Note_on_c, 0, 43, 0
1, 145120, Note_on_c, 0, 76, 53
1, 145140, Note_on_c, 0, 74, 0
1, 145200, Tempo, 463320
1, 145200, Note_on_c, 0, 77, 54
1, 145200, Note_on_c, 0, 64, 44
1, 145200, Note_on_c, 0, 60, 44
1, 145220, Note_on_c, 0, 76, 0
1, 145280, Note_on_c, 0, 79, 55
1, 145300, Note_on_c, 0, 77, 0
1, 145320, Note_on_c, 0, 60, 0
1, 145320, Note_on_c, 0, 64, 0
1, 145360, Note_on_c, 0, 81, 55
1, 145380, Note_on_c, 0, 79, 0
1, 145440, Tempo, 465116
1, 145440, Note_on_c, 0, 84, 56
1, 145440, Note_on_c, 0, 48, 54
1, 145460, Note_on_c, 0, 81, 0
1, 145520, Note_on_c, 0, 76, 53
1, 145560, Note_on_c, 0, 48, 0
1, 145600, Note_on_c, 0, 79, 53
1, 145620, Note_on_c, 0, 76, 0
1, 145680, Tempo, 461538
1, 145680, Note_on_c, 0, 82, 54
1, 145680, Note_on_c, 0, 64, 44
1, 145680, Note_on_c, 0, 60, 44
1, 145700, Note_on_c, 0, 79, 0
1, 145760, Note_on_c, 0, 84, 55
1, 145780, Note_on_c, 0, 82, 0
1, 145800, Note_on_c, 0, 60, 0
1, 145800, Note_on_c, 0, 64, 0
1, 145840, Note_on_c, 0, 86, 56
1, 145860, Note_on_c, 0, 84, 0
1, 145920, Tempo, 463320
1, 145920, Note_on_c, 0, 84, 0
1, 145920, Note_on_c, 0, 87, 57
1, 145920, Note_on_c, 0, 52, 56
1, 145940, Note_on_c, 0, 86, 0
1, 146000, Note_on_c, 0, 88, 58
1, 146020, Note_on_c, 0, 87, 0
1, 146040, Note_on_c, 0, 52, 0
1, 146080, Note_on_c, 0, 89, 59
1, 146100, Note_on_c, 0, 88, 0
1, 146160, Tempo, 465116
1, 146160, Note_on_c, 0, 90, 60
1, 146160, Note_on_c, 0, 64, 45
1, 146160, Note_on_c, 0, 60, 45
1, 146180, Note_on_c, 0, 89, 0
1, 146240, Note_on_c, 0, 91, 61
1, 146260, Note_on_c, 0, 90, 0
1, 146280, Note_on_c, 0, 60, 0
1, 146280, Note_on_c, 0, 64, 0
1, 146320, Note_on_c, 0, 93, 62
1, 146340, Note_on_c, 0, 91, 0
1, 146400, Tempo, 466926
1, 146400, Note_on_c, 0, 94, 63
1, 146400, Note_on_c, 0, 55, 58
1, 146420, Note_on_c, 0, 93, 0
1, 146480, Note_on_c, 0, 95, 64
1, 146500, Note_on_c, 0, 94, 0
1, 146520, Note_on_c, 0, 55, 0
1, 146560, Note_on_c, 0, 96, 65
1, 146580, Note_on_c, 0, 95, 0
1, 146640, Tempo, 468750
1, 146640, Note_on_c, 0, 97, 66
1, 146640, Note_on_c, 0, 64, 49
1, 146640, Note_on_c, 0, 60, 49
1, 146660, Note_on_c, 0, 96, 0
1, 146720, Note_on_c, 0, 98, 67
1, 146740, Note_on_c, 0, 97, 0
1, 146760, Note_on_c, 0, 60, 0
1, 146760, Note_on_c, 0, 64, 0
1, 146800, Note_on_c, 0, 100, 68
1, 146820, Note_on_c, 0, 98, 0
1, 146840, Tempo, 470588
1, 146880, Tempo, 470588
1, 146880, Note_on_c, 0, 101, 74
1, 146880, Note_on_c, 0, 41, 58
1, 146900, Note_on_c, 0, 100, 0
1, 146960, Note_on_c, 0, 96, 69
1, 146980, Note_on_c, 0, 101, 0
1, 147040, Tempo, 506329
1, 147040, Note_on_c, 0, 93, 68
1, 147060, Note_on_c, 0, 96, 0
1, 147120, Tempo, 470588
1, 147120, Note_on_c, 0, 93, 0
1, 147120, Note_on_c, 0, 41, 0
1, 147120, Note_on_c, 0, 92, 72
1, 147120, Note_on_c, 0, 62, 62
1, 147120, Note_on_c, 0, 58, 62
1, 147120, Note_on_c, 0, 53, 62
1, 147200, Note_on_c, 0, 98, 66
1, 147280, Note_on_c, 0, 95, 66
1, 147300, Note_on_c, 0, 98, 0
1, 147360, Tempo, 487805
1, 147360, Note_on_c, 0, 62, 0
1, 147360, Note_on_c, 0, 92, 0
1, 147360, Note_on_c, 0, 58, 0
1, 147360, Note_on_c, 0, 95, 0
1, 147360, Note_on_c, 0, 96, 74
1, 147360, Note_on_c, 0, 60, 56
1, 147360, Note_on_c, 0, 57, 56
1, 147440, Note_on_c, 0, 93, 66
1, 147460, Note_on_c, 0, 96, 0
1, 147520, Tempo, 545455
1, 147520, Note_on_c, 0, 89, 66
1, 147540, Note_on_c, 0, 93, 0
1, 147600, Tempo, 480000
1, 147600, Note_on_c, 0, 57, 0
1, 147600, Note_on_c, 0, 53, 0
1, 147600, Note_on_c, 0, 60, 0
1, 147600, Note_on_c, 0, 89, 0
1, 147600, Note_on_c, 0, 86, 71
1, 147600, Note_on_c, 0, 65, 61
1, 147600, Note_on_c, 0, 59, 61
1, 147600, Note_on_c, 0, 68, 61
1, 147680, Note_on_c, 0, 92, 66
1, 147760, Note_on_c, 0, 89, 66
1, 147780, Note_on_c, 0, 92, 0
1, 147840, Tempo, 489796
1, 147840, Note_on_c, 0, 65, 0
1, 147840, Note_on_c, 0, 59, 0
1, 147840, Note_on_c, 0, 86, 0
1, 147840, Note_on_c, 0, 89, 0
1, 147840, Note_on_c, 0, 68, 0
1, 147840, Note_on_c, 0, 93, 70
1, 147840, Note_on_c, 0, 60, 54
1, 147840, Note_on_c, 0, 69, 54
1, 147920, Note_on_c, 0, 89, 66
1, 147940, Note_on_c, 0, 93, 0
1, 148000, Tempo, 533333
1, 148000, Note_on_c, 0, 84, 66
1, 148020, Note_on_c, 0, 89, 0
1, 148080, Tempo, 472441
1, 148080, Note_on_c, 0, 60, 0
1, 148080, Note_on_c, 0, 69, 0
1, 148080, Note_on_c, 0, 84, 0
1, 148080, Note_on_c, 0, 92, 71
1, 148080, Note_on_c, 0, 65, 62
1, 148080, Note_on_c, 0, 71, 62
1, 148080, Note_on_c, 0, 74, 62
1, 148160, Note_on_c, 0, 86, 66
1, 148180, Note_on_c, 0, 92, 0
1, 148240, Note_on_c, 0, 83, 66
1, 148260, Note_on_c, 0, 86, 0
1, 148320, Tempo, 480000
1, 148320, Note_on_c, 0, 74, 0
1, 148320, Note_on_c, 0, 83, 0
1, 148320, Note_on_c, 0, 71, 0
1, 148320, Note_on_c, 0, 84, 71
1, 148320, Note_on_c, 0, 69, 55
1, 148320, Note_on_c, 0, 72, 55
1, 148326, Control_c, 0, 64, 127
1, 148400, Note_on_c, 0, 84, 0
1, 148400, Note_on_c, 0, 81, 60
1, 148480, Tempo, 528634
1, 148480, Note_on_c, 0, 81, 0
1, 148480, Note_on_c, 0, 77, 60
1, 148532, Tempo, 483871
1, 148560, Tempo, 483871
1, 148560, Note_on_c, 0, 77, 0
1, 148560, Note_on_c, 0, 65, 0
1, 148560, Note_on_c, 0, 69, 0
1, 148560, Note_on_c, 0, 72, 0
1, 148560, Note_on_c, 0, 76, 54
1, 148560, Note_on_c, 0, 84, 64
1, 148570, Control_c, 0, 64, 0
1, 148624, Tempo, 485830
1, 148640, Note_on_c, 0, 84, 0
1, 148640, Note_on_c, 0, 81, 46
1, 148640, Note_on_c, 0, 84, 55
1, 148640, Control_c, 0, 64, 127
1, 148680, Note_on_c, 0, 76, 0
1, 148720, Note_on_c, 0, 84, 0
1, 148720, Note_on_c, 0, 81, 0
1, 148720, Note_on_c, 0, 72, 55
1, 148732, Tempo, 487805
1, 148800, Note_on_c, 0, 72, 0
1, 148800, Note_on_c, 0, 71, 50
1, 148800, Note_on_c, 0, 81, 59
1, 148810, Control_c, 0, 64, 0
1, 148840, Tempo, 489796
1, 148880, Note_on_c, 0, 81, 0
1, 148880, Note_on_c, 0, 72, 45
1, 148880, Note_on_c, 0, 77, 53
1, 148880, Control_c, 0, 64, 127
1, 148920, Note_on_c, 0, 71, 0
1, 148932, Tempo, 491803
1, 148960, Note_on_c, 0, 77, 0
1, 148960, Note_on_c, 0, 72, 0
1, 148960, Note_on_c, 0, 69, 52
1, 149040, Tempo, 493827
1, 149040, Note_on_c, 0, 69, 0
1, 149040, Note_on_c, 0, 68, 50
1, 149040, Note_on_c, 0, 77, 59
1, 149049, Control_c, 0, 64, 0
1, 149120, Note_on_c, 0, 77, 0
1, 149120, Note_on_c, 0, 72, 50
1, 149120, Note_on_c, 0, 69, 42
1, 149126, Control_c, 0, 64, 127
1, 149144, Tempo, 495868
1, 149160, Note_on_c, 0, 68, 0
1, 149200, Note_on_c, 0, 69, 0
1, 149200, Note_on_c, 0, 72, 0
1, 149200, Note_on_c, 0, 65, 50
1, 149240, Tempo, 497925
1, 149280, Note_on_c, 0, 65, 0
1, 149280, Note_on_c, 0, 72, 54
1, 149280, Note_on_c, 0, 64, 45
1, 149290, Control_c, 0, 64, 0
1, 149344, Tempo, 500000
1, 149360, Note_on_c, 0, 72, 0
1, 149360, Note_on_c, 0, 65, 39
1, 149360, Note_on_c, 0, 69, 47
1, 149371, Control_c, 0, 64, 127
1, 149400, Note_on_c, 0, 64, 0
1, 149440, Note_on_c, 0, 69, 0
1, 149440, Note_on_c, 0, 65, 0
1, 149440, Note_on_c, 0, 60, 46
1, 149452, Tempo, 502092
1, 149520, Note_on_c, 0, 60, 0
1, 149520, Note_on_c, 0, 59, 42
1, 149520, Note_on_c, 0, 69, 50
1, 149530, Control_c, 0, 64, 0
1, 149544, Tempo, 504202
1, 149600, Note_on_c, 0, 69, 0
1, 149600, Note_on_c, 0, 60, 37
1, 149600, Note_on_c, 0, 65, 44
1, 149609, Control_c, 0, 64, 127
1, 149640, Note_on_c, 0, 59, 0
1, 149652, Tempo, 506329
1, 149680, Note_on_c, 0, 65, 0
1, 149680, Note_on_c, 0, 60, 0
1, 149680, Note_on_c, 0, 57, 45
1, 149744, Tempo, 508475
1, 149760, Note_on_c, 0, 57, 0
1, 149760, Note_on_c, 0, 67, 57
1, 149760, Control_c, 0, 64, 0
1, 149760, Note_on_c, 0, 47, 54
1, 149840, Note_on_c, 0, 67, 0
1, 149840, Note_on_c, 0, 62, 51
1, 149920, Tempo, 481928
1, 149920, Note_on_c, 0, 63, 51
1, 149940, Note_on_c, 0, 62, 0
1, 150000, Note_on_c, 0, 64, 52
1, 150000, Note_on_c, 0, 59, 41
1, 150000, Note_on_c, 0, 55, 34
1, 150020, Note_on_c, 0, 63, 0
1, 150080, Note_on_c, 0, 65, 52
1, 150100, Note_on_c, 0, 64, 0
1, 150120, Tempo, 478088
1, 150120, Note_on_c, 0, 55, 0
1, 150120, Note_on_c, 0, 59, 0
1, 150160, Tempo, 480000
1, 150160, Note_on_c, 0, 66, 53
1, 150180, Note_on_c, 0, 65, 0
1, 150240, Note_on_c, 0, 47, 0
1, 150240, Note_on_c, 0, 67, 53
1, 150240, Note_on_c, 0, 50, 55
1, 150260, Note_on_c, 0, 66, 0
1, 150280, Tempo, 478088
1, 150320, Note_on_c, 0, 68, 54
1, 150340, Note_on_c, 0, 67, 0
1, 150360, Tempo, 476190
1, 150400, Note_on_c, 0, 69, 54
1, 150420, Note_on_c, 0, 68, 0
1, 150480, Tempo, 474308
1, 150480, Note_on_c, 0, 70, 55
1, 150480, Note_on_c, 0, 59, 35
1, 150480, Note_on_c, 0, 62, 42
1, 150500, Note_on_c, 0, 69, 0
1, 150560, Tempo, 472441
1, 150560, Note_on_c, 0, 71, 55
1, 150580, Note_on_c, 0, 70, 0
1, 150600, Note_on_c, 0, 62, 0
1, 150600, Note_on_c, 0, 59, 0
1, 150640, Tempo, 470588
1, 150640, Note_on_c, 0, 72, 56
1, 150660, Note_on_c, 0, 71, 0
1, 150720, Note_on_c, 0, 50, 0
1, 150720, Note_on_c, 0, 73, 56
1, 150720, Note_on_c, 0, 55, 56
1, 150740, Note_on_c, 0, 72, 0
1, 150760, Tempo, 468750
1, 150800, Note_on_c, 0, 74, 57
1, 150820, Note_on_c, 0, 73, 0
1, 150840, Tempo, 466926
1, 150880, Note_on_c, 0, 75, 57
1, 150900, Note_on_c, 0, 74, 0
1, 150920, Tempo, 465116
1, 150960, Note_on_c, 0, 76, 58
1, 150960, Note_on_c, 0, 62, 44
1, 150960, Note_on_c, 0, 59, 37
1, 150980, Note_on_c, 0, 75, 0
1, 151040, Tempo, 463320
1, 151040, Note_on_c, 0, 77, 58
1, 151060, Note_on_c, 0, 76, 0
1, 151080, Note_on_c, 0, 59, 0
1, 151080, Note_on_c, 0, 62, 0
1, 151120, Tempo, 461538
1, 151120, Note_on_c, 0, 78, 59
1, 151140, Note_on_c, 0, 77, 0
1, 151200, Tempo, 461538
1, 151200, Note_on_c, 0, 55, 0
1, 151200, Note_on_c, 0, 79, 59
1, 151200, Note_on_c, 0, 48, 56
1, 151220, Note_on_c, 0, 78, 0
1, 151280, Note_on_c, 0, 79, 0
1, 151280, Note_on_c, 0, 72, 61
1, 151360, Note_on_c, 0, 73, 61
1, 151380, Note_on_c, 0, 72, 0
1, 151440, Note_on_c, 0, 74, 62
1, 151440, Note_on_c, 0, 60, 45
1, 151440, Note_on_c, 0, 58, 38
1, 151460, Note_on_c, 0, 73, 0
1, 151520, Note_on_c, 0, 75, 63
1, 151540, Note_on_c, 0, 74, 0
1, 151600, Note_on_c, 0, 76, 63
1, 151620, Note_on_c, 0, 75, 0
1, 151640, Tempo, 456274
1, 151680, Note_on_c, 0, 58, 0
1, 151680, Note_on_c, 0, 48, 0
1, 151680, Note_on_c, 0, 60, 0
1, 151680, Note_on_c, 0, 77, 64
1, 151680, Note_on_c, 0, 52, 58
1, 151700, Note_on_c, 0, 76, 0
1, 151720, Tempo, 459770
1, 151760, Tempo, 458015
1, 151760, Note_on_c, 0, 78, 65
1, 151780, Note_on_c, 0, 77, 0
1, 151840, Note_on_c, 0, 79, 65
1, 151860, Note_on_c, 0, 78, 0
1, 151880, Tempo, 459770
1, 151920, Note_on_c, 0, 80, 66
1, 151920, Note_on_c, 0, 60, 47
1, 151920, Note_on_c, 0, 58, 39
1, 151940, Note_on_c, 0, 79, 0
1, 151960, Tempo, 461538
1, 152000, Note_on_c, 0, 81, 67
1, 152020, Note_on_c, 0, 80, 0
1, 152080, Tempo, 463320
1, 152080, Note_on_c, 0, 82, 67
1, 152100, Note_on_c, 0, 81, 0
1, 152120, Tempo, 465116
1, 152160, Note_on_c, 0, 58, 0
1, 152160, Note_on_c, 0, 52, 0
1, 152160, Note_on_c, 0, 60, 0
1, 152160, Note_on_c, 0, 83, 67
1, 152160, Note_on_c, 0, 55, 61
1, 152180, Note_on_c, 0, 82, 0
1, 152200, Tempo, 466926
1, 152240, Tempo, 468750
1, 152240, Note_on_c, 0, 84, 68
1, 152260, Note_on_c, 0, 83, 0
1, 152280, Tempo, 470588
1, 152320, Note_on_c, 0, 85, 69
1, 152340, Note_on_c, 0, 84, 0
1, 152360, Tempo, 472441
1, 152400, Tempo, 474308
1, 152400, Note_on_c, 0, 86, 71
1, 152400, Note_on_c, 0, 60, 51
1, 152400, Note_on_c, 0, 58, 43
1, 152420, Note_on_c, 0, 85, 0
1, 152440, Tempo, 476190
1, 152480, Note_on_c, 0, 87, 72
1, 152500, Note_on_c, 0, 86, 0
1, 152520, Tempo, 478088
1, 152560, Tempo, 480000
1, 152560, Note_on_c, 0, 88, 73
1, 152580, Note_on_c, 0, 87, 0
1, 152640, Tempo, 510638
1, 152640, Note_on_c, 0, 58, 0
1, 152640, Note_on_c, 0, 55, 0
1, 152640, Note_on_c, 0, 60, 0
1, 152640, Note_on_c, 0, 89, 75
1, 152640, Note_on_c, 0, 53, 43
1, 152640, Note_on_c, 0, 60, 56
1, 152640, Note_on_c, 0, 57, 43
1, 152660, Note_on_c, 0, 88, 0
1, 152671, Control_c, 0, 64, 127
1, 152720, Note_on_c, 0, 89, 0
1, 152720, Note_on_c, 0, 84, 70
1, 152760, Note_on_c, 0, 60, 0
1, 152760, Note_on_c, 0, 57, 0
1, 152760, Note_on_c, 0, 53, 0
1, 152800, Tempo, 535714
1, 152800, Note_on_c, 0, 84, 0
1, 152800, Note_on_c, 0, 81, 70
1, 152880, Note_on_c, 0, 81, 0
1, 152880, Note_on_c, 0, 80, 74
1, 152880, Note_on_c, 0, 53, 43
1, 152880, Note_on_c, 0, 56, 43
1, 152880, Note_on_c, 0, 61, 56
1, 152884, Control_c, 0, 64, 0
1, 152906, Control_c, 0, 64, 127
1, 152960, Tempo, 662983
1, 152960, Note_on_c, 0, 80, 0
1, 152960, Note_on_c, 0, 85, 70
1, 153000, Note_on_c, 0, 53, 0
1, 153000, Note_on_c, 0, 61, 0
1, 153000, Note_on_c, 0, 56, 0
1, 153040, Note_on_c, 0, 85, 0
1, 153040, Note_on_c, 0, 89, 70
1, 153120, Tempo, 485830
1, 153120, Note_on_c, 0, 89, 0
1, 153120, Note_on_c, 0, 101, 77
1, 153120, Note_on_c, 0, 56, 46
1, 153120, Note_on_c, 0, 62, 60
1, 153120, Note_on_c, 0, 59, 46
1, 153120, Note_on_c, 0, 53, 46
1, 153126, Control_c, 0, 64, 0
1, 153177, Control_c, 0, 64, 127
1, 153200, Note_on_c, 0, 101, 0
1, 153200, Note_on_c, 0, 95, 72
1, 153240, Tempo, 483871
1, 153280, Note_on_c, 0, 95, 0
1, 153280, Note_on_c, 0, 92, 72
1, 153360, Tempo, 481928
1, 153360, Note_on_c, 0, 92, 0
1, 153360, Note_on_c, 0, 89, 71
1, 153440, Note_on_c, 0, 89, 0
1, 153440, Note_on_c, 0, 86, 70
1, 153480, Tempo, 480000
1, 153520, Note_on_c, 0, 86, 0
1, 153520, Note_on_c, 0, 83, 69
1, 153560, Tempo, 478088
1, 153600, Note_on_c, 0, 83, 0
1, 153600, Note_on_c, 0, 80, 69
1, 153680, Tempo, 476190
1, 153680, Note_on_c, 0, 80, 0
1, 153680, Note_on_c, 0, 77, 68
1, 153760, Note_on_c, 0, 77, 0
1, 153760, Note_on_c, 0, 74, 67
1, 153800, Tempo, 474308
1, 153840, Note_on_c, 0, 74, 0
1, 153840, Note_on_c, 0, 56, 0
1, 153840, Note_on_c, 0, 71, 66
1, 153840, Note_on_c, 0, 55, 49
1, 153920, Tempo, 472441
1, 153920, Note_on_c, 0, 71, 0
1, 153920, Note_on_c, 0, 68, 66
1, 154000, Tempo, 470588
1, 154000, Note_on_c, 0, 68, 0
1, 154000, Note_on_c, 0, 65, 65
1, 154080, Tempo, 470588
1, 154080, Note_on_c, 0, 65, 0
1, 154080, Note_on_c, 0, 59, 0
1, 154080, Note_on_c, 0, 53, 0
1, 154080, Note_on_c, 0, 62, 0
1, 154080, Note_on_c, 0, 72, 66
1, 154080, Note_on_c, 0, 52, 45
1, 154080, Note_on_c, 0, 60, 53
1, 154091, Control_c, 0, 64, 0
1, 154160, Note_on_c, 0, 72, 0
1, 154160, Note_on_c, 0, 67, 60
1, 154200, Tempo, 468750
1, 154240, Note_on_c, 0, 68, 60
1, 154260, Note_on_c, 0, 67, 0
1, 154320, Tempo, 466926
1, 154320, Note_on_c, 0, 69, 65
1, 154340, Note_on_c, 0, 68, 0
1, 154400, Note_on_c, 0, 70, 60
1, 154420, Note_on_c, 0, 69, 0
1, 154440, Tempo, 465116
1, 154480, Note_on_c, 0, 71, 60
1, 154500, Note_on_c, 0, 70, 0
1, 154560, Tempo, 463320
1, 154560, Note_on_c, 0, 55, 0
1, 154560, Note_on_c, 0, 60, 0
1, 154560, Note_on_c, 0, 52, 0
1, 154560, Note_on_c, 0, 72, 62
1, 154580, Note_on_c, 0, 71, 0
1, 154600, Tempo, 465116
1, 154640, Note_on_c, 0, 73, 61
1, 154660, Note_on_c, 0, 72, 0
1, 154680, Tempo, 466926
1, 154720, Tempo, 468750
1, 154720, Note_on_c, 0, 74, 60
1, 154740, Note_on_c, 0, 73, 0
1, 154760, Tempo, 470588
1, 154800, Tempo, 472441
1, 154800, Note_on_c, 0, 75, 59
1, 154820, Note_on_c, 0, 74, 0
1, 154880, Tempo, 474308
1, 154880, Note_on_c, 0, 76, 58
1, 154900, Note_on_c, 0, 75, 0
1, 154920, Tempo, 476190
1, 154960, Tempo, 478088
1, 154960, Note_on_c, 0, 77, 57
1, 154980, Note_on_c, 0, 76, 0
1, 155000, Tempo, 480000
1, 155020, Tempo, 508475
1, 155040, Tempo, 510638
1, 155040, Note_on_c, 0, 77, 0
1, 155040, Note_on_c, 0, 78, 55
1, 155040, Note_on_c, 0, 84, 56
1, 155040, Note_on_c, 0, 57, 53
1, 155060, Tempo, 515021
1, 155069, Control_c, 0, 64, 127
1, 155080, Tempo, 519481
1, 155100, Tempo, 524017
1, 155120, Tempo, 528634
1, 155120, Note_on_c, 0, 78, 0
1, 155120, Note_on_c, 0, 79, 54
1, 155140, Tempo, 530973
1, 155160, Tempo, 535714
1, 155180, Tempo, 540541
1, 155200, Tempo, 545455
1, 155200, Note_on_c, 0, 79, 0
1, 155200, Note_on_c, 0, 81, 53
1, 155220, Tempo, 550459
1, 155240, Tempo, 555556
1, 155260, Tempo, 558140
1, 155280, Tempo, 563380
1, 155280, Note_on_c, 0, 81, 0
1, 155280, Note_on_c, 0, 82, 52
1, 155280, Note_on_c, 0, 75, 38
1, 155280, Note_on_c, 0, 72, 32
1, 155280, Note_on_c, 0, 66, 32
1, 155300, Tempo, 568720
1, 155320, Tempo, 574163
1, 155340, Tempo, 579710
1, 155360, Tempo, 582524
1, 155360, Note_on_c, 0, 82, 0
1, 155360, Note_on_c, 0, 84, 51
1, 155380, Tempo, 588235
1, 155400, Tempo, 594059
1, 155420, Tempo, 600000
1, 155440, Tempo, 606061
1, 155440, Note_on_c, 0, 84, 0
1, 155440, Note_on_c, 0, 86, 50
1, 155460, Tempo, 612245
1, 155520, Tempo, 500000
1, 155520, Note_on_c, 0, 86, 0
1, 155520, Note_on_c, 0, 57, 0
1, 155520, Note_on_c, 0, 75, 0
1, 155520, Note_on_c, 0, 84, 0
1, 155520, Note_on_c, 0, 66, 0
1, 155520, Note_on_c, 0, 72, 0
1, 155520, Note_on_c, 0, 84, 50
1, 155520, Note_on_c, 0, 88, 50
1, 155520, Note_on_c, 0, 58, 56
1, 155524, Control_c, 0, 64, 0
1, 155560, Control_c, 0, 64, 127
1, 155600, Note_on_c, 0, 88, 0
1, 155600, Note_on_c, 0, 91, 52
1, 155680, Note_on_c, 0, 91, 0
1, 155680, Note_on_c, 0, 84, 52
1, 155760, Note_on_c, 0, 84, 0
1, 155760, Note_on_c, 0, 84, 0
1, 155760, Note_on_c, 0, 85, 48
1, 155760, Note_on_c, 0, 76, 41
1, 155760, Note_on_c, 0, 72, 34
1, 155760, Note_on_c, 0, 67, 34
1, 155840, Note_on_c, 0, 85, 0
1, 155840, Note_on_c, 0, 94, 41
1, 155920, Note_on_c, 0, 94, 0
1, 155920, Note_on_c, 0, 81, 42
1, 156000, Tempo, 487805
1, 156000, Note_on_c, 0, 81, 0
1, 156000, Note_on_c, 0, 72, 0
1, 156000, Note_on_c, 0, 58, 0
1, 156000, Note_on_c, 0, 76, 0
1, 156000, Note_on_c, 0, 67, 0
1, 156000, Note_on_c, 0, 82, 47
1, 156000, Note_on_c, 0, 64, 57
1, 156009, Control_c, 0, 64, 0
1, 156046, Control_c, 0, 64, 127
1, 156080, Note_on_c, 0, 82, 0
1, 156080, Note_on_c, 0, 91, 42
1, 156160, Note_on_c, 0, 91, 0
1, 156160, Note_on_c, 0, 78, 42
1, 156240, Note_on_c, 0, 78, 0
1, 156240, Note_on_c, 0, 79, 47
1, 156240, Note_on_c, 0, 70, 34
1, 156240, Note_on_c, 0, 72, 34
1, 156240, Note_on_c, 0, 76, 41
1, 156320, Note_on_c, 0, 79, 0
1, 156320, Note_on_c, 0, 81, 42
1, 156400, Note_on_c, 0, 81, 0
1, 156400, Note_on_c, 0, 82, 42
1, 156480, Tempo, 506329
1, 156480, Note_on_c, 0, 82, 0
1, 156480, Note_on_c, 0, 72, 0
1, 156480, Note_on_c, 0, 64, 0
1, 156480, Note_on_c, 0, 70, 0
1, 156480, Note_on_c, 0, 76, 0
1, 156480, Note_on_c, 0, 84, 47
1, 156480, Note_on_c, 0, 67, 60
1, 156488, Control_c, 0, 64, 0
1, 156548, Control_c, 0, 64, 127
1, 156560, Note_on_c, 0, 84, 0
1, 156560, Note_on_c, 0, 86, 42
1, 156640, Note_on_c, 0, 86, 0
1, 156640, Note_on_c, 0, 88, 42
1, 156720, Note_on_c, 0, 88, 0
1, 156720, Note_on_c, 0, 89, 45
1, 156720, Note_on_c, 0, 70, 34
1, 156720, Note_on_c, 0, 72, 34
1, 156720, Note_on_c, 0, 76, 41
1, 156800, Note_on_c, 0, 89, 0
1, 156800, Note_on_c, 0, 91, 42
1, 156880, Note_on_c, 0, 91, 0
1, 156880, Note_on_c, 0, 93, 42
1, 156940, Control_c, 0, 64, 0
1, 156960, Note_on_c, 0, 93, 0
1, 156960, Note_on_c, 0, 67, 0
1, 156960, Note_on_c, 0, 96, 51
1, 156960, Note_on_c, 0, 67, 60
1, 157003, Control_c, 0, 64, 127
1, 157040, Note_on_c, 0, 96, 0
1, 157040, Note_on_c, 0, 94, 42
1, 157120, Note_on_c, 0, 94, 0
1, 157120, Note_on_c, 0, 91, 42
1, 157200, Note_on_c, 0, 91, 0
1, 157200, Note_on_c, 0, 72, 0
1, 157200, Note_on_c, 0, 76, 0
1, 157200, Note_on_c, 0, 70, 0
1, 157200, Note_on_c, 0, 88, 48
1, 157200, Note_on_c, 0, 72, 40
1, 157200, Note_on_c, 0, 76, 48
1, 157280, Note_on_c, 0, 88, 0
1, 157280, Note_on_c, 0, 84, 48
1, 157360, Note_on_c, 0, 84, 0
1, 157360, Note_on_c, 0, 86, 49
1, 157428, Note_on_c, 0, 76, 0
1, 157428, Note_on_c, 0, 72, 0
1, 157440, Tempo, 491803
1, 157440, Note_on_c, 0, 86, 0
1, 157440, Note_on_c, 0, 87, 49
1, 157440, Note_on_c, 0, 72, 40
1, 157440, Note_on_c, 0, 76, 48
1, 157520, Note_on_c, 0, 87, 0
1, 157520, Note_on_c, 0, 88, 50
1, 157600, Note_on_c, 0, 88, 0
1, 157600, Note_on_c, 0, 89, 52
1, 157668, Note_on_c, 0, 76, 0
1, 157668, Note_on_c, 0, 72, 0
1, 157680, Note_on_c, 0, 89, 0
1, 157680, Note_on_c, 0, 90, 54
1, 157680, Note_on_c, 0, 72, 40
1, 157680, Note_on_c, 0, 76, 48
1, 157760, Note_on_c, 0, 90, 0
1, 157760, Note_on_c, 0, 91, 55
1, 157840, Note_on_c, 0, 91, 0
1, 157840, Note_on_c, 0, 93, 57
1, 157908, Note_on_c, 0, 76, 0
1, 157908, Note_on_c, 0, 72, 0
1, 157920, Tempo, 510638
1, 157920, Note_on_c, 0, 67, 0
1, 157920, Note_on_c, 0, 93, 0
1, 157920, Note_on_c, 0, 94, 59
1, 157920, Note_on_c, 0, 70, 57
1, 157930, Control_c, 0, 64, 0
1, 157963, Control_c, 0, 64, 127
1, 158000, Note_on_c, 0, 94, 0
1, 158000, Note_on_c, 0, 95, 60
1, 158080, Note_on_c, 0, 95, 0
1, 158080, Note_on_c, 0, 96, 62
1, 158160, Tempo, 489796
1, 158160, Note_on_c, 0, 96, 0
1, 158160, Note_on_c, 0, 97, 64
1, 158160, Note_on_c, 0, 72, 40
1, 158160, Note_on_c, 0, 76, 48
1, 158240, Note_on_c, 0, 97, 0
1, 158240, Note_on_c, 0, 98, 65
1, 158320, Note_on_c, 0, 98, 0
1, 158320, Note_on_c, 0, 100, 67
1, 158400, Note_on_c, 0, 100, 0
1, 158400, Note_on_c, 0, 70, 0
1, 158400, Note_on_c, 0, 76, 0
1, 158400, Note_on_c, 0, 101, 69
1, 158400, Note_on_c, 0, 69, 40
1, 158400, Note_on_c, 0, 77, 48
1, 158406, Control_c, 0, 64, 0
1, 158431, Control_c, 0, 64, 127
1, 158480, Note_on_c, 0, 101, 0
1, 158480, Note_on_c, 0, 96, 57
1, 158560, Note_on_c, 0, 96, 0
1, 158560, Note_on_c, 0, 93, 58
1, 158640, Note_on_c, 0, 93, 0
1, 158640, Note_on_c, 0, 72, 0
1, 158640, Note_on_c, 0, 69, 0
1, 158640, Note_on_c, 0, 77, 0
1, 158640, Note_on_c, 0, 92, 65
1, 158640, Note_on_c, 0, 68, 40
1, 158640, Note_on_c, 0, 65, 40
1, 158640, Note_on_c, 0, 71, 48
1, 158640, Note_on_c, 0, 74, 57
1, 158646, Control_c, 0, 64, 0
1, 158671, Control_c, 0, 64, 127
1, 158720, Note_on_c, 0, 92, 0
1, 158720, Note_on_c, 0, 95, 55
1, 158800, Note_on_c, 0, 95, 0
1, 158800, Note_on_c, 0, 98, 55
1, 158880, Note_on_c, 0, 98, 0
1, 158880, Note_on_c, 0, 71, 0
1, 158880, Note_on_c, 0, 74, 0
1, 158880, Note_on_c, 0, 96, 61
1, 158880, Note_on_c, 0, 69, 41
1, 158880, Note_on_c, 0, 72, 49
1, 158889, Control_c, 0, 64, 0
1, 158917, Control_c, 0, 64, 127
1, 158960, Note_on_c, 0, 96, 0
1, 158960, Note_on_c, 0, 93, 55
1, 159040, Note_on_c, 0, 93, 0
1, 159040, Note_on_c, 0, 89, 55
1, 159120, Tempo, 468750
1, 159120, Note_on_c, 0, 89, 0
1, 159120, Note_on_c, 0, 69, 0
1, 159120, Note_on_c, 0, 68, 0
1, 159120, Note_on_c, 0, 65, 0
1, 159120, Note_on_c, 0, 72, 0
1, 159120, Note_on_c, 0, 94, 58
1, 159120, Note_on_c, 0, 88, 51
1, 159120, Note_on_c, 0, 79, 43
1, 159137, Control_c, 0, 64, 0
1, 159180, Note_on_c, 0, 79, 0
1, 159180, Note_on_c, 0, 88, 0
1, 159200, Note_on_c, 0, 100, 53
1, 159280, Note_on_c, 0, 100, 0
1, 159280, Note_on_c, 0, 88, 53
1, 159360, Note_on_c, 0, 88, 0
1, 159360, Note_on_c, 0, 94, 0
1, 159360, Note_on_c, 0, 93, 57
1, 159360, Note_on_c, 0, 86, 59
1, 159360, Note_on_c, 0, 77, 50
1, 159420, Note_on_c, 0, 77, 0
1, 159420, Note_on_c, 0, 86, 0
1, 159440, Note_on_c, 0, 98, 52
1, 159520, Note_on_c, 0, 98, 0
1, 159520, Note_on_c, 0, 86, 52
1, 159600, Note_on_c, 0, 86, 0
1, 159600, Note_on_c, 0, 93, 0
1, 159600, Note_on_c, 0, 91, 56
1, 159600, Note_on_c, 0, 84, 58
1, 159600, Note_on_c, 0, 76, 49
1, 159660, Note_on_c, 0, 76, 0
1, 159660, Note_on_c, 0, 84, 0
1, 159680, Note_on_c, 0, 96, 51
1, 159720, Tempo, 489796
1, 159760, Note_on_c, 0, 96, 0
1, 159760, Note_on_c, 0, 84, 51
1, 159840, Tempo, 468750
1, 159840, Note_on_c, 0, 84, 0
1, 159840, Note_on_c, 0, 91, 0
1, 159840, Note_on_c, 0, 89, 54
1, 159840, Note_on_c, 0, 82, 57
1, 159840, Note_on_c, 0, 74, 48
1, 159900, Note_on_c, 0, 74, 0
1, 159900, Note_on_c, 0, 82, 0
1, 159920, Note_on_c, 0, 94, 49
1, 160000, Note_on_c, 0, 94, 0
1, 160000, Note_on_c, 0, 82, 49
1, 160080, Note_on_c, 0, 82, 0
1, 160080, Note_on_c, 0, 89, 0
1, 160080, Note_on_c, 0, 88, 53
1, 160080, Note_on_c, 0, 81, 55
1, 160080, Note_on_c, 0, 72, 46
1, 160140, Note_on_c, 0, 72, 0
1, 160140, Note_on_c, 0, 81, 0
1, 160160, Note_on_c, 0, 93, 49
1, 160240, Note_on_c, 0, 93, 0
1, 160240, Note_on_c, 0, 81, 49
1, 160320, Tempo, 466926
1, 160320, Note_on_c, 0, 81, 0
1, 160320, Note_on_c, 0, 88, 0
1, 160320, Note_on_c, 0, 86, 52
1, 160320, Note_on_c, 0, 79, 54
1, 160320, Note_on_c, 0, 70, 45
1, 160380, Note_on_c, 0, 70, 0
1, 160380, Note_on_c, 0, 79, 0
1, 160400, Note_on_c, 0, 91, 48
1, 160440, Tempo, 468750
1, 160480, Note_on_c, 0, 91, 0
1, 160480, Note_on_c, 0, 79, 48
1, 160540, Tempo, 470588
1, 160560, Note_on_c, 0, 79, 0
1, 160560, Note_on_c, 0, 86, 0
1, 160560, Note_on_c, 0, 84, 50
1, 160560, Note_on_c, 0, 77, 53
1, 160560, Note_on_c, 0, 69, 45
1, 160620, Note_on_c, 0, 69, 0
1, 160620, Note_on_c, 0, 77, 0
1, 160640, Tempo, 472441
1, 160640, Note_on_c, 0, 89, 46
1, 160720, Note_on_c, 0, 89, 0
1, 160720, Note_on_c, 0, 77, 46
1, 160740, Tempo, 474308
1, 160800, Note_on_c, 0, 77, 0
1, 160800, Note_on_c, 0, 84, 0
1, 160800, Note_on_c, 0, 83, 49
1, 160800, Note_on_c, 0, 74, 51
1, 160800, Note_on_c, 0, 68, 43
1, 160840, Tempo, 476190
1, 160860, Note_on_c, 0, 68, 0
1, 160860, Note_on_c, 0, 74, 0
1, 160880, Note_on_c, 0, 89, 45
1, 160940, Tempo, 478088
1, 160960, Note_on_c, 0, 89, 0
1, 160960, Note_on_c, 0, 77, 45
1, 161040, Tempo, 480000
1, 161040, Note_on_c, 0, 77, 0
1, 161040, Note_on_c, 0, 83, 0
1, 161040, Note_on_c, 0, 84, 48
1, 161040, Note_on_c, 0, 69, 42
1, 161040, Note_on_c, 0, 72, 50
1, 161100, Note_on_c, 0, 72, 0
1, 161100, Note_on_c, 0, 69, 0
1, 161120, Note_on_c, 0, 89, 44
1, 161140, Tempo, 481928
1, 161200, Note_on_c, 0, 89, 0
1, 161200, Note_on_c, 0, 77, 44
1, 161240, Tempo, 483871
1, 161280, Note_on_c, 0, 77, 0
1, 161280, Note_on_c, 0, 84, 0
1, 161280, Note_on_c, 0, 86, 52
1, 161280, Note_on_c, 0, 67, 42
1, 161280, Note_on_c, 0, 71, 50
1, 161320, Tempo, 483871
1, 161360, Note_on_c, 0, 86, 0
1, 161360, Note_on_c, 0, 79, 44
1, 161440, Note_on_c, 0, 80, 45
1, 161460, Note_on_c, 0, 79, 0
1, 161480, Tempo, 481928
1, 161520, Note_on_c, 0, 67, 0
1, 161520, Note_on_c, 0, 71, 0
1, 161520, Note_on_c, 0, 81, 45
1, 161520, Note_on_c, 0, 62, 43
1, 161520, Note_on_c, 0, 74, 51
1, 161540, Note_on_c, 0, 80, 0
1, 161600, Tempo, 480000
1, 161600, Note_on_c, 0, 82, 46
1, 161620, Note_on_c, 0, 81, 0
1, 161640, Note_on_c, 0, 74, 0
1, 161640, Note_on_c, 0, 62, 0
1, 161680, Note_on_c, 0, 83, 47
1, 161700, Note_on_c, 0, 82, 0
1, 161760, Tempo, 478088
1, 161760, Note_on_c, 0, 84, 48
1, 161760, Note_on_c, 0, 59, 44
1, 161760, Note_on_c, 0, 71, 52
1, 161780, Note_on_c, 0, 83, 0
1, 161840, Note_on_c, 0, 85, 49
1, 161860, Note_on_c, 0, 84, 0
1, 161880, Tempo, 476190
1, 161880, Note_on_c, 0, 71, 0
1, 161880, Note_on_c, 0, 59, 0
1, 161920, Note_on_c, 0, 86, 50
1, 161940, Note_on_c, 0, 85, 0
1, 162000, Note_on_c, 0, 87, 51
1, 162000, Note_on_c, 0, 55, 45
1, 162000, Note_on_c, 0, 67, 53
1, 162020, Note_on_c, 0, 86, 0
1, 162040, Tempo, 474308
1, 162080, Note_on_c, 0, 88, 51
1, 162100, Note_on_c, 0, 87, 0
1, 162120, Note_on_c, 0, 67, 0
1, 162120, Note_on_c, 0, 55, 0
1, 162160, Tempo, 472441
1, 162160, Note_on_c, 0, 89, 52
1, 162180, Note_on_c, 0, 88, 0
1, 162240, Note_on_c, 0, 90, 54
1, 162240, Note_on_c, 0, 65, 54
1, 162240, Note_on_c, 0, 53, 45
1, 162260, Note_on_c, 0, 89, 0
1, 162320, Tempo, 470588
1, 162320, Note_on_c, 0, 91, 55
1, 162340, Note_on_c, 0, 90, 0
1, 162360, Note_on_c, 0, 53, 0
1, 162360, Note_on_c, 0, 65, 0
1, 162400, Note_on_c, 0, 92, 56
1, 162420, Note_on_c, 0, 91, 0
1, 162440, Tempo, 468750
1, 162480, Note_on_c, 0, 93, 57
1, 162480, Note_on_c, 0, 62, 57
1, 162480, Note_on_c, 0, 50, 47
1, 162500, Note_on_c, 0, 92, 0
1, 162560, Note_on_c, 0, 94, 58
1, 162580, Note_on_c, 0, 93, 0
1, 162600, Tempo, 466926
1, 162600, Note_on_c, 0, 50, 0
1, 162600, Note_on_c, 0, 62, 0
1, 162640, Tempo, 466926
1, 162640, Note_on_c, 0, 95, 58
1, 162660, Note_on_c, 0, 94, 0
1, 162720, Note_on_c, 0, 96, 59
1, 162720, Note_on_c, 0, 48, 48
1, 162720, Note_on_c, 0, 60, 58
1, 162740, Note_on_c, 0, 95, 0
1, 162800, Note_on_c, 0, 96, 0
1, 162800, Note_on_c, 0, 84, 60
1, 162840, Note_on_c, 0, 48, 0
1, 162840, Note_on_c, 0, 60, 0
1, 162880, Note_on_c, 0, 85, 61
1, 162900, Note_on_c, 0, 84, 0
1, 162960, Tempo, 468750
1, 162960, Note_on_c, 0, 86, 62
1, 162960, Note_on_c, 0, 43, 50
1, 162960, Note_on_c, 0, 55, 59
1, 162980, Note_on_c, 0, 85, 0
1, 163040, Note_on_c, 0, 87, 63
1, 163060, Note_on_c, 0, 86, 0
1, 163080, Note_on_c, 0, 55, 0
1, 163080, Note_on_c, 0, 43, 0
1, 163120, Note_on_c, 0, 88, 64
1, 163140, Note_on_c, 0, 87, 0
1, 163200, Note_on_c, 0, 89, 64
1, 163200, Note_on_c, 0, 40, 52
1, 163200, Note_on_c, 0, 52, 62
1, 163220, Note_on_c, 0, 88, 0
1, 163280, Tempo, 470588
1, 163280, Note_on_c, 0, 90, 64
1, 163300, Note_on_c, 0, 89, 0
1, 163320, Note_on_c, 0, 52, 0
1, 163320, Note_on_c, 0, 40, 0
1, 163360, Note_on_c, 0, 91, 65
1, 163380, Note_on_c, 0, 90, 0
1, 163440, Note_on_c, 0, 92, 66
1, 163440, Note_on_c, 0, 36, 54
1, 163440, Note_on_c, 0, 48, 64
1, 163460, Note_on_c, 0, 91, 0
1, 163520, Note_on_c, 0, 93, 67
1, 163540, Note_on_c, 0, 92, 0
1, 163560, Tempo, 472441
1, 163560, Note_on_c, 0, 48, 0
1, 163560, Note_on_c, 0, 36, 0
1, 163600, Tempo, 472441
1, 163600, Note_on_c, 0, 94, 68
1, 163620, Note_on_c, 0, 93, 0
1, 163680, Tempo, 474308
1, 163680, Note_on_c, 0, 95, 69
1, 163680, Note_on_c, 0, 34, 57
1, 163680, Note_on_c, 0, 46, 67
1, 163700, Note_on_c, 0, 94, 0
1, 163709, Control_c, 0, 64, 127
1, 163720, Tempo, 476190
1, 163760, Tempo, 478088
1, 163760, Note_on_c, 0, 95, 0
1, 163760, Note_on_c, 0, 96, 70
1, 163800, Tempo, 480000
1, 163800, Note_on_c, 0, 34, 0
1, 163800, Note_on_c, 0, 46, 0
1, 163840, Tempo, 481928
1, 163840, Note_on_c, 0, 96, 0
1, 163840, Note_on_c, 0, 97, 71
1, 163880, Tempo, 483871
1, 163920, Note_on_c, 0, 97, 0
1, 163920, Note_on_c, 0, 98, 72
1, 163920, Note_on_c, 0, 31, 59
1, 163920, Note_on_c, 0, 43, 70
1, 163960, Tempo, 485830
1, 164000, Tempo, 487805
1, 164000, Note_on_c, 0, 98, 0
1, 164000, Note_on_c, 0, 99, 72
1, 164040, Tempo, 489796
1, 164040, Note_on_c, 0, 43, 0
1, 164040, Note_on_c, 0, 31, 0
1, 164080, Tempo, 491803
1, 164080, Note_on_c, 0, 99, 0
1, 164080, Note_on_c, 0, 100, 73
1, 164120, Tempo, 493827
1, 164160, Tempo, 495868
1, 164160, Note_on_c, 0, 100, 0
1, 164160, Note_on_c, 0, 101, 79
1, 164160, Control_c, 0, 64, 0
1, 164160, Note_on_c, 0, 29, 58
1, 164160, Note_on_c, 0, 41, 74
1, 164209, Control_c, 0, 64, 127
1, 164240, Note_on_c, 0, 101, 0
1, 164240, Note_on_c, 0, 96, 71
1, 164320, Note_on_c, 0, 96, 0
1, 164320, Note_on_c, 0, 93, 71
1, 164400, Note_on_c, 0, 93, 0
1, 164400, Note_on_c, 0, 41, 0
1, 164400, Note_on_c, 0, 29, 0
1, 164400, Note_on_c, 0, 89, 77
1, 164400, Note_on_c, 0, 48, 55
1, 164400, Note_on_c, 0, 53, 55
1, 164400, Note_on_c, 0, 57, 65
1, 164476, Note_on_c, 0, 89, 0
1, 164480, Note_on_c, 0, 89, 69
1, 164560, Note_on_c, 0, 89, 0
1, 164560, Note_on_c, 0, 84, 69
1, 164640, Note_on_c, 0, 84, 0
1, 164640, Note_on_c, 0, 48, 0
1, 164640, Note_on_c, 0, 53, 0
1, 164640, Note_on_c, 0, 57, 0
1, 164640, Note_on_c, 0, 96, 77
1, 164640, Note_on_c, 0, 33, 58
1, 164640, Note_on_c, 0, 45, 73
1, 164650, Control_c, 0, 64, 0
1, 164679, Control_c, 0, 64, 127
1, 164720, Note_on_c, 0, 96, 0
1, 164720, Note_on_c, 0, 93, 71
1, 164800, Note_on_c, 0, 93, 0
1, 164800, Note_on_c, 0, 89, 71
1, 164880, Note_on_c, 0, 89, 0
1, 164880, Note_on_c, 0, 45, 0
1, 164880, Note_on_c, 0, 33, 0
1, 164880, Note_on_c, 0, 84, 76
1, 164880, Note_on_c, 0, 48, 54
1, 164880, Note_on_c, 0, 53, 54
1, 164880, Note_on_c, 0, 57, 64
1, 164956, Note_on_c, 0, 84, 0
1, 164960, Note_on_c, 0, 84, 69
1, 165040, Note_on_c, 0, 84, 0
1, 165040, Note_on_c, 0, 81, 70
1, 165120, Tempo, 519481
1, 165120, Note_on_c, 0, 81, 0
1, 165120, Note_on_c, 0, 48, 0
1, 165120, Note_on_c, 0, 53, 0
1, 165120, Note_on_c, 0, 57, 0
1, 165120, Note_on_c, 0, 93, 74
1, 165120, Note_on_c, 0, 36, 60
1, 165120, Note_on_c, 0, 48, 75
1, 165130, Control_c, 0, 64, 0
1, 165169, Control_c, 0, 64, 127
1, 165200, Note_on_c, 0, 93, 0
1, 165200, Note_on_c, 0, 89, 70
1, 165280, Note_on_c, 0, 89, 0
1, 165280, Note_on_c, 0, 84, 70
1, 165360, Note_on_c, 0, 84, 0
1, 165360, Note_on_c, 0, 48, 0
1, 165360, Note_on_c, 0, 36, 0
1, 165360, Note_on_c, 0, 81, 74
1, 165360, Note_on_c, 0, 48, 54
1, 165360, Note_on_c, 0, 53, 54
1, 165360, Note_on_c, 0, 57, 64
1, 165436, Note_on_c, 0, 81, 0
1, 165440, Note_on_c, 0, 81, 69
1, 165520, Note_on_c, 0, 81, 0
1, 165520, Note_on_c, 0, 77, 70
1, 165596, Note_on_c, 0, 77, 0
1, 165600, Tempo, 530973
1, 165600, Note_on_c, 0, 48, 0
1, 165600, Note_on_c, 0, 53, 0
1, 165600, Note_on_c, 0, 57, 0
1, 165600, Note_on_c, 0, 89, 74
1, 165600, Note_on_c, 0, 41, 60
1, 165600, Note_on_c, 0, 53, 74
1, 165610, Control_c, 0, 64, 0
1, 165687, Control_c, 0, 64, 127
1, 165840, Tempo, 495868
1, 165840, Note_on_c, 0, 53, 0
1, 165840, Note_on_c, 0, 41, 0
1, 165840, Note_on_c, 0, 89, 0
1, 165840, Note_on_c, 0, 57, 72
1, 165920, Note_on_c, 0, 57, 0
1, 165920, Note_on_c, 0, 60, 67
1, 166000, Note_on_c, 0, 60, 0
1, 166000, Note_on_c, 0, 65, 68
1, 166080, Note_on_c, 0, 65, 0
1, 166080, Note_on_c, 0, 57, 72
1, 166160, Note_on_c, 0, 57, 0
1, 166160, Note_on_c, 0, 60, 68
1, 166240, Note_on_c, 0, 60, 0
1, 166240, Note_on_c, 0, 65, 68
1, 166320, Note_on_c, 0, 65, 0
1, 166320, Note_on_c, 0, 69, 75
1, 166400, Note_on_c, 0, 69, 0
1, 166400, Note_on_c, 0, 72, 71
1, 166480, Note_on_c, 0, 72, 0
1, 166480, Note_on_c, 0, 77, 70
1, 166560, Tempo, 530973
1, 166560, Note_on_c, 0, 77, 0
1, 166560, Note_on_c, 0, 81, 74
1, 166640, Note_on_c, 0, 81, 0
1, 166640, Note_on_c, 0, 84, 72
1, 166720, Tempo, 594059
1, 166720, Note_on_c, 0, 84, 0
1, 166720, Note_on_c, 0, 89, 72
1, 166800, Tempo, 495868
1, 166800, Note_on_c, 0, 89, 0
1, 166800, Note_on_c, 0, 93, 54
1, 166800, Control_c, 0, 64, 0
1, 166880, Note_on_c, 0, 91, 53
1, 166900, Note_on_c, 0, 93, 0
1, 166960, Note_on_c, 0, 89, 52
1, 166980, Note_on_c, 0, 91, 0
1, 167040, Tempo, 512821
1, 167040, Note_on_c, 0, 88, 49
1, 167040, Note_on_c, 0, 48, 50
1, 167060, Note_on_c, 0, 89, 0
1, 167120, Note_on_c, 0, 89, 47
1, 167140, Note_on_c, 0, 88, 0
1, 167160, Note_on_c, 0, 48, 0
1, 167200, Note_on_c, 0, 91, 47
1, 167220, Note_on_c, 0, 89, 0
1, 167280, Tempo, 495868
1, 167280, Note_on_c, 0, 91, 0
1, 167280, Note_on_c, 0, 79, 51
1, 167280, Note_on_c, 0, 64, 41
1, 167280, Note_on_c, 0, 60, 41
1, 167360, Note_on_c, 0, 82, 47
1, 167380, Note_on_c, 0, 79, 0
1, 167400, Note_on_c, 0, 64, 0
1, 167400, Note_on_c, 0, 60, 0
1, 167440, Note_on_c, 0, 84, 48
1, 167460, Note_on_c, 0, 82, 0
1, 167520, Tempo, 508475
1, 167520, Note_on_c, 0, 85, 55
1, 167520, Note_on_c, 0, 55, 51
1, 167540, Note_on_c, 0, 84, 0
1, 167600, Note_on_c, 0, 88, 45
1, 167620, Note_on_c, 0, 85, 0
1, 167640, Note_on_c, 0, 55, 0
1, 167680, Note_on_c, 0, 91, 45
1, 167700, Note_on_c, 0, 88, 0
1, 167760, Tempo, 485830
1, 167760, Note_on_c, 0, 91, 0
1, 167760, Note_on_c, 0, 79, 51
1, 167760, Note_on_c, 0, 64, 41
1, 167760, Note_on_c, 0, 60, 41
1, 167840, Note_on_c, 0, 82, 46
1, 167860, Note_on_c, 0, 79, 0
1, 167880, Note_on_c, 0, 64, 0
1, 167880, Note_on_c, 0, 60, 0
1, 167920, Note_on_c, 0, 84, 46
1, 167940, Note_on_c, 0, 82, 0
1, 168000, Tempo, 481928
1, 168000, Note_on_c, 0, 85, 56
1, 168000, Note_on_c, 0, 52, 53
1, 168020, Note_on_c, 0, 84, 0
1, 168080, Note_on_c, 0, 88, 50
1, 168100, Note_on_c, 0, 85, 0
1, 168120, Note_on_c, 0, 52, 0
1, 168160, Note_on_c, 0, 91, 50
1, 168180, Note_on_c, 0, 88, 0
1, 168240, Tempo, 470588
1, 168240, Note_on_c, 0, 91, 0
1, 168240, Note_on_c, 0, 79, 54
1, 168240, Note_on_c, 0, 64, 44
1, 168240, Note_on_c, 0, 60, 44
1, 168320, Note_on_c, 0, 82, 50
1, 168340, Note_on_c, 0, 79, 0
1, 168360, Note_on_c, 0, 64, 0
1, 168360, Note_on_c, 0, 60, 0
1, 168400, Note_on_c, 0, 89, 50
1, 168420, Note_on_c, 0, 82, 0
1, 168480, Tempo, 480000
1, 168480, Note_on_c, 0, 88, 49
1, 168480, Note_on_c, 0, 45, 50
1, 168500, Note_on_c, 0, 89, 0
1, 168560, Note_on_c, 0, 87, 47
1, 168580, Note_on_c, 0, 88, 0
1, 168600, Note_on_c, 0, 45, 0
1, 168640, Tempo, 555556
1, 168640, Note_on_c, 0, 88, 47
1, 168660, Note_on_c, 0, 87, 0
1, 168720, Tempo, 466926
1, 168720, Note_on_c, 0, 100, 48
1, 168720, Note_on_c, 0, 61, 38
1, 168720, Note_on_c, 0, 57, 38
1, 168740, Note_on_c, 0, 88, 0
1, 168800, Tempo, 465116
1, 168800, Note_on_c, 0, 97, 44
1, 168820, Note_on_c, 0, 100, 0
1, 168840, Note_on_c, 0, 57, 0
1, 168840, Note_on_c, 0, 61, 0
1, 168880, Note_on_c, 0, 91, 44
1, 168900, Note_on_c, 0, 97, 0
1, 168920, Tempo, 461538
1, 168960, Note_on_c, 0, 91, 0
1, 168960, Note_on_c, 0, 88, 50
1, 168960, Note_on_c, 0, 52, 46
1, 169000, Tempo, 463320
1, 169040, Note_on_c, 0, 85, 40
1, 169060, Note_on_c, 0, 88, 0
1, 169080, Tempo, 465116
1, 169080, Note_on_c, 0, 52, 0
1, 169120, Note_on_c, 0, 88, 40
1, 169140, Note_on_c, 0, 85, 0
1, 169160, Tempo, 466926
1, 169200, Note_on_c, 0, 76, 45
1, 169200, Note_on_c, 0, 61, 36
1, 169200, Note_on_c, 0, 57, 36
1, 169220, Note_on_c, 0, 88, 0
1, 169240, Tempo, 468750
1, 169280, Note_on_c, 0, 73, 40
1, 169300, Note_on_c, 0, 76, 0
1, 169320, Tempo, 470588
1, 169320, Note_on_c, 0, 57, 0
1, 169320, Note_on_c, 0, 61, 0
1, 169360, Note_on_c, 0, 76, 40
1, 169380, Note_on_c, 0, 73, 0
1, 169400, Tempo, 472441
1, 169440, Note_on_c, 0, 76, 0
1, 169440, Note_on_c, 0, 64, 48
1, 169440, Note_on_c, 0, 45, 45
1, 169460, Tempo, 474308
1, 169520, Note_on_c, 0, 64, 0
1, 169520, Note_on_c, 0, 61, 42
1, 169560, Note_on_c, 0, 45, 0
1, 169600, Tempo, 504202
1, 169600, Note_on_c, 0, 61, 0
1, 169600, Note_on_c, 0, 64, 42
1, 169680, Tempo, 472441
1, 169680, Note_on_c, 0, 64, 0
1, 169680, Note_on_c, 0, 57, 44
1, 169680, Note_on_c, 0, 52, 36
1, 169680, Note_on_c, 0, 49, 36
1, 169760, Note_on_c, 0, 59, 41
1, 169780, Note_on_c, 0, 57, 0
1, 169800, Note_on_c, 0, 52, 0
1, 169800, Note_on_c, 0, 49, 0
1, 169840, Note_on_c, 0, 61, 40
1, 169860, Note_on_c, 0, 59, 0
1, 169920, Tempo, 497925
1, 169920, Note_on_c, 0, 62, 41
1, 169920, Note_on_c, 0, 38, 42
1, 169940, Note_on_c, 0, 61, 0
1, 170000, Note_on_c, 0, 69, 39
1, 170020, Note_on_c, 0, 62, 0
1, 170040, Note_on_c, 0, 38, 0
1, 170080, Note_on_c, 0, 66, 39
1, 170100, Note_on_c, 0, 69, 0
1, 170160, Tempo, 485830
1, 170160, Note_on_c, 0, 66, 0
1, 170160, Note_on_c, 0, 57, 43
1, 170160, Note_on_c, 0, 54, 34
1, 170160, Note_on_c, 0, 50, 34
1, 170240, Note_on_c, 0, 60, 39
1, 170260, Note_on_c, 0, 57, 0
1, 170280, Note_on_c, 0, 54, 0
1, 170280, Note_on_c, 0, 50, 0
1, 170320, Note_on_c, 0, 63, 40
1, 170340, Note_on_c, 0, 60, 0
1, 170400, Tempo, 493827
1, 170400, Note_on_c, 0, 62, 46
1, 170400, Note_on_c, 0, 45, 43
1, 170420, Note_on_c, 0, 63, 0
1, 170480, Note_on_c, 0, 69, 38
1, 170500, Note_on_c, 0, 62, 0
1, 170520, Note_on_c, 0, 45, 0
1, 170560, Note_on_c, 0, 66, 38
1, 170580, Note_on_c, 0, 69, 0
1, 170640, Tempo, 485830
1, 170640, Note_on_c, 0, 66, 0
1, 170640, Note_on_c, 0, 57, 43
1, 170640, Note_on_c, 0, 54, 34
1, 170640, Note_on_c, 0, 50, 34
1, 170720, Note_on_c, 0, 60, 39
1, 170740, Note_on_c, 0, 57, 0
1, 170760, Note_on_c, 0, 54, 0
1, 170760, Note_on_c, 0, 50, 0
1, 170800, Note_on_c, 0, 63, 39
1, 170820, Note_on_c, 0, 60, 0
1, 170880, Tempo, 481928
1, 170880, Note_on_c, 0, 62, 47
1, 170880, Note_on_c, 0, 38, 45
1, 170900, Note_on_c, 0, 63, 0
1, 170960, Note_on_c, 0, 69, 42
1, 170980, Note_on_c, 0, 62, 0
1, 171000, Note_on_c, 0, 38, 0
1, 171040, Note_on_c, 0, 66, 42
1, 171060, Note_on_c, 0, 69, 0
1, 171120, Tempo, 470588
1, 171120, Note_on_c, 0, 66, 0
1, 171120, Note_on_c, 0, 57, 45
1, 171120, Note_on_c, 0, 54, 37
1, 171120, Note_on_c, 0, 50, 37
1, 171200, Note_on_c, 0, 60, 42
1, 171220, Note_on_c, 0, 57, 0
1, 171240, Note_on_c, 0, 54, 0
1, 171240, Note_on_c, 0, 50, 0
1, 171280, Note_on_c, 0, 63, 42
1, 171300, Note_on_c, 0, 60, 0
1, 171360, Tempo, 480000
1, 171360, Note_on_c, 0, 62, 46
1, 171360, Note_on_c, 0, 43, 50
1, 171380, Note_on_c, 0, 63, 0
1, 171397, Control_c, 0, 64, 127
1, 171440, Note_on_c, 0, 62, 0
1, 171440, Note_on_c, 0, 65, 47
1, 171480, Note_on_c, 0, 43, 0
1, 171520, Tempo, 555556
1, 171520, Note_on_c, 0, 65, 0
1, 171520, Note_on_c, 0, 68, 49
1, 171600, Tempo, 466926
1, 171600, Note_on_c, 0, 68, 0
1, 171600, Note_on_c, 0, 71, 50
1, 171600, Note_on_c, 0, 58, 40
1, 171600, Note_on_c, 0, 55, 40
1, 171680, Tempo, 465116
1, 171680, Note_on_c, 0, 71, 0
1, 171680, Note_on_c, 0, 74, 51
1, 171760, Note_on_c, 0, 74, 0
1, 171760, Note_on_c, 0, 77, 53
1, 171800, Tempo, 461538
1, 171840, Note_on_c, 0, 77, 0
1, 171840, Note_on_c, 0, 55, 0
1, 171840, Note_on_c, 0, 58, 0
1, 171840, Note_on_c, 0, 80, 54
1, 171840, Note_on_c, 0, 50, 52
1, 171880, Tempo, 463320
1, 171920, Note_on_c, 0, 80, 0
1, 171920, Note_on_c, 0, 77, 55
1, 171960, Tempo, 465116
1, 171960, Note_on_c, 0, 50, 0
1, 172000, Note_on_c, 0, 77, 0
1, 172000, Note_on_c, 0, 80, 57
1, 172040, Tempo, 466926
1, 172080, Note_on_c, 0, 80, 0
1, 172080, Note_on_c, 0, 83, 58
1, 172080, Note_on_c, 0, 58, 45
1, 172080, Note_on_c, 0, 55, 45
1, 172120, Tempo, 468750
1, 172160, Note_on_c, 0, 83, 0
1, 172160, Note_on_c, 0, 86, 59
1, 172200, Tempo, 470588
1, 172240, Note_on_c, 0, 86, 0
1, 172240, Note_on_c, 0, 89, 61
1, 172280, Tempo, 472441
1, 172320, Note_on_c, 0, 89, 0
1, 172320, Note_on_c, 0, 55, 0
1, 172320, Note_on_c, 0, 58, 0
1, 172320, Note_on_c, 0, 92, 62
1, 172320, Note_on_c, 0, 43, 59
1, 172340, Tempo, 474308
1, 172400, Note_on_c, 0, 92, 0
1, 172400, Note_on_c, 0, 85, 63
1, 172440, Note_on_c, 0, 43, 0
1, 172480, Tempo, 483871
1, 172480, Note_on_c, 0, 85, 0
1, 172480, Note_on_c, 0, 86, 65
1, 172560, Tempo, 472441
1, 172560, Note_on_c, 0, 86, 0
1, 172560, Note_on_c, 0, 89, 66
1, 172560, Note_on_c, 0, 58, 50
1, 172560, Note_on_c, 0, 55, 50
1, 172640, Note_on_c, 0, 89, 0
1, 172640, Note_on_c, 0, 92, 67
1, 172720, Tempo, 521739
1, 172720, Note_on_c, 0, 92, 0
1, 172720, Note_on_c, 0, 95, 72
1, 172740, Tempo, 754717
1, 172770, Note_on_c, 0, 98, 65
1, 172800, Tempo, 472441
1, 172800, Note_on_c, 0, 98, 0
1, 172800, Note_on_c, 0, 58, 0
1, 172800, Note_on_c, 0, 55, 0
1, 172800, Note_on_c, 0, 95, 0
1, 172800, Note_on_c, 0, 101, 74
1, 172800, Note_on_c, 0, 48, 66
1, 172807, Control_c, 0, 64, 0
1, 172839, Control_c, 0, 64, 127
1, 172880, Note_on_c, 0, 101, 0
1, 172880, Note_on_c, 0, 100, 72
1, 172960, Note_on_c, 0, 100, 0
1, 172960, Note_on_c, 0, 98, 70
1, 173040, Tempo, 491803
1, 173040, Note_on_c, 0, 98, 0
1, 173040, Note_on_c, 0, 96, 68
1, 173040, Note_on_c, 0, 55, 56
1, 173120, Note_on_c, 0, 96, 0
1, 173120, Note_on_c, 0, 94, 64
1, 173200, Note_on_c, 0, 94, 0
1, 173200, Note_on_c, 0, 98, 65
1, 173280, Note_on_c, 0, 98, 0
1, 173280, Note_on_c, 0, 55, 0
1, 173280, Note_on_c, 0, 48, 0
1, 173280, Note_on_c, 0, 91, 66
1, 173280, Note_on_c, 0, 60, 65
1, 173280, Note_on_c, 0, 64, 65
1, 173360, Note_on_c, 0, 91, 0
1, 173360, Note_on_c, 0, 88, 61
1, 173440, Note_on_c, 0, 88, 0
1, 173440, Note_on_c, 0, 96, 61
1, 173520, Note_on_c, 0, 96, 0
1, 173520, Note_on_c, 0, 64, 0
1, 173520, Note_on_c, 0, 84, 65
1, 173520, Note_on_c, 0, 55, 51
1, 173600, Note_on_c, 0, 84, 0
1, 173600, Note_on_c, 0, 82, 60
1, 173680, Note_on_c, 0, 82, 0
1, 173680, Note_on_c, 0, 86, 60
1, 173760, Note_on_c, 0, 86, 0
1, 173760, Note_on_c, 0, 55, 0
1, 173760, Note_on_c, 0, 60, 0
1, 173760, Note_on_c, 0, 79, 57
1, 173760, Note_on_c, 0, 64, 54
1, 173760, Note_on_c, 0, 58, 54
1, 173770, Control_c, 0, 64, 0
1, 173827, Control_c, 0, 64, 127
1, 173840, Note_on_c, 0, 79, 0
1, 173840, Note_on_c, 0, 76, 51
1, 173920, Note_on_c, 0, 76, 0
1, 173920, Note_on_c, 0, 84, 51
1, 174000, Tempo, 512821
1, 174000, Note_on_c, 0, 84, 0
1, 174000, Note_on_c, 0, 64, 0
1, 174000, Note_on_c, 0, 72, 55
1, 174000, Note_on_c, 0, 55, 47
1, 174080, Note_on_c, 0, 72, 0
1, 174080, Note_on_c, 0, 74, 49
1, 174160, Note_on_c, 0, 74, 0
1, 174160, Note_on_c, 0, 76, 49
1, 174240, Tempo, 491803
1, 174240, Note_on_c, 0, 76, 0
1, 174240, Note_on_c, 0, 55, 0
1, 174240, Note_on_c, 0, 58, 0
1, 174240, Note_on_c, 0, 77, 52
1, 174240, Note_on_c, 0, 45, 54
1, 174243, Control_c, 0, 64, 0
1, 174280, Control_c, 0, 64, 127
1, 174320, Note_on_c, 0, 77, 0
1, 174320, Note_on_c, 0, 81, 48
1, 174360, Note_on_c, 0, 45, 0
1, 174400, Tempo, 476190
1, 174400, Note_on_c, 0, 81, 0
1, 174400, Note_on_c, 0, 82, 48
1, 174480, Note_on_c, 0, 82, 0
1, 174480, Note_on_c, 0, 84, 52
1, 174480, Note_on_c, 0, 65, 47
1, 174480, Note_on_c, 0, 60, 47
1, 174560, Note_on_c, 0, 84, 0
1, 174560, Note_on_c, 0, 89, 48
1, 174640, Note_on_c, 0, 89, 0
1, 174640, Note_on_c, 0, 93, 48
1, 174720, Tempo, 481928
1, 174720, Note_on_c, 0, 93, 0
1, 174720, Note_on_c, 0, 60, 0
1, 174720, Note_on_c, 0, 65, 0
1, 174720, Note_on_c, 0, 96, 59
1, 174720, Note_on_c, 0, 57, 54
1, 174730, Control_c, 0, 64, 0
1, 174732, Tempo, 483871
1, 174744, Tempo, 485830
1, 174753, Control_c, 0, 64, 127
1, 174760, Tempo, 489796
1, 174772, Tempo, 491803
1, 174784, Tempo, 495868
1, 174800, Tempo, 497925
1, 174800, Note_on_c, 0, 96, 0
1, 174800, Note_on_c, 0, 94, 53
1, 174812, Tempo, 500000
1, 174824, Tempo, 504202
1, 174840, Tempo, 506329
1, 174840, Note_on_c, 0, 57, 0
1, 174852, Tempo, 510638
1, 174860, Tempo, 485830
1, 174880, Tempo, 588235
1, 174880, Note_on_c, 0, 94, 0
1, 174880, Note_on_c, 0, 93, 53
1, 174930, Note_on_c, 0, 93, 0
1, 174930, Note_on_c, 0, 94, 53
1, 174960, Tempo, 571429
1, 174960, Note_on_c, 0, 94, 0
1, 174960, Note_on_c, 0, 93, 58
1, 174960, Note_on_c, 0, 65, 48
1, 174960, Note_on_c, 0, 60, 48
1, 175040, Note_on_c, 0, 93, 0
1, 175040, Note_on_c, 0, 91, 53
1, 175120, Tempo, 600000
1, 175120, Note_on_c, 0, 91, 0
1, 175120, Note_on_c, 0, 89, 53
1, 175170, Note_on_c, 0, 89, 0
1, 175170, Note_on_c, 0, 91, 58
1, 175200, Tempo, 591133
1, 175200, Note_on_c, 0, 91, 0
1, 175200, Note_on_c, 0, 60, 0
1, 175200, Note_on_c, 0, 65, 0
1, 175200, Note_on_c, 0, 89, 60
1, 175200, Note_on_c, 0, 47, 54
1, 175210, Control_c, 0, 64, 0
1, 175252, Control_c, 0, 64, 127
1, 175280, Note_on_c, 0, 89, 0
1, 175280, Note_on_c, 0, 88, 53
1, 175320, Note_on_c, 0, 47, 0
1, 175360, Tempo, 625000
1, 175360, Note_on_c, 0, 88, 0
1, 175360, Note_on_c, 0, 86, 53
1, 175410, Note_on_c, 0, 86, 0
1, 175410, Note_on_c, 0, 88, 58
1, 175440, Tempo, 603015
1, 175440, Note_on_c, 0, 88, 0
1, 175440, Note_on_c, 0, 86, 59
1, 175440, Note_on_c, 0, 65, 47
1, 175440, Note_on_c, 0, 62, 47
1, 175440, Note_on_c, 0, 55, 47
1, 175452, Tempo, 609137
1, 175464, Tempo, 618557
1, 175480, Tempo, 625000
1, 175492, Tempo, 634921
1, 175504, Tempo, 641711
1, 175520, Tempo, 652174
1, 175520, Note_on_c, 0, 86, 0
1, 175520, Note_on_c, 0, 84, 52
1, 175532, Tempo, 662983
1, 175544, Tempo, 670391
1, 175560, Tempo, 681818
1, 175572, Tempo, 689655
1, 175584, Tempo, 701754
1, 175600, Tempo, 714286
1, 175600, Note_on_c, 0, 84, 0
1, 175600, Note_on_c, 0, 83, 52
1, 175612, Tempo, 722892
1, 175624, Tempo, 736196
1, 175640, Tempo, 745342
1, 175650, Note_on_c, 0, 83, 0
1, 175650, Note_on_c, 0, 84, 53
1, 175652, Tempo, 759494
1, 175664, Tempo, 774194
1, 175680, Tempo, 606061
1, 175680, Note_on_c, 0, 84, 0
1, 175680, Note_on_c, 0, 55, 0
1, 175680, Note_on_c, 0, 62, 0
1, 175680, Note_on_c, 0, 65, 0
1, 175680, Note_on_c, 0, 93, 57
1, 175680, Control_c, 0, 64, 0
1, 175680, Note_on_c, 0, 48, 54
1, 175719, Control_c, 0, 64, 127
1, 175800, Note_on_c, 0, 48, 0
1, 175800, Note_on_c, 0, 93, 0
1, 175840, Tempo, 512821
1, 175840, Note_on_c, 0, 89, 56
1, 175920, Note_on_c, 0, 89, 0
1, 175920, Note_on_c, 0, 84, 56
1, 175920, Note_on_c, 0, 65, 47
1, 175920, Note_on_c, 0, 60, 47
1, 175920, Note_on_c, 0, 57, 47
1, 176000, Note_on_c, 0, 84, 0
1, 176000, Note_on_c, 0, 81, 56
1, 176080, Note_on_c, 0, 81, 0
1, 176080, Note_on_c, 0, 77, 55
1, 176160, Tempo, 493827
1, 176160, Note_on_c, 0, 77, 0
1, 176160, Note_on_c, 0, 65, 0
1, 176160, Note_on_c, 0, 60, 0
1, 176160, Note_on_c, 0, 57, 0
1, 176160, Note_on_c, 0, 72, 55
1, 176240, Note_on_c, 0, 72, 0
1, 176240, Note_on_c, 0, 84, 54
1, 176320, Note_on_c, 0, 84, 0
1, 176320, Note_on_c, 0, 81, 54
1, 176400, Note_on_c, 0, 81, 0
1, 176400, Note_on_c, 0, 77, 53
1, 176480, Note_on_c, 0, 77, 0
1, 176480, Note_on_c, 0, 72, 53
1, 176560, Note_on_c, 0, 72, 0
1, 176560, Note_on_c, 0, 69, 53
1, 176640, Note_on_c, 0, 69, 0
1, 176640, Note_on_c, 0, 72, 52
1, 176640, Note_on_c, 0, 36, 54
1, 176647, Control_c, 0, 64, 0
1, 176704, Control_c, 0, 64, 127
1, 176720, Note_on_c, 0, 72, 0
1, 176720, Note_on_c, 0, 67, 52
1, 176760, Note_on_c, 0, 36, 0
1, 176800, Note_on_c, 0, 67, 0
1, 176800, Note_on_c, 0, 64, 51
1, 176880, Note_on_c, 0, 64, 0
1, 176880, Note_on_c, 0, 60, 51
1, 176880, Note_on_c, 0, 52, 47
1, 176880, Note_on_c, 0, 55, 47
1, 176960, Tempo, 547945
1, 176960, Note_on_c, 0, 60, 0
1, 176960, Note_on_c, 0, 58, 50
1, 177040, Note_on_c, 0, 58, 0
1, 177040, Note_on_c, 0, 55, 50
1, 177120, Tempo, 506329
1, 177120, Note_on_c, 0, 55, 0
1, 177120, Note_on_c, 0, 55, 0
1, 177120, Note_on_c, 0, 52, 0
1, 177120, Note_on_c, 0, 53, 50
1, 177120, Note_on_c, 0, 41, 54
1, 177124, Control_c, 0, 64, 0
1, 177162, Control_c, 0, 64, 127
1, 177196, Note_on_c, 0, 53, 0
1, 177200, Note_on_c, 0, 53, 51
1, 177280, Note_on_c, 0, 53, 0
1, 177280, Note_on_c, 0, 57, 52
1, 177360, Note_on_c, 0, 57, 0
1, 177360, Note_on_c, 0, 65, 53
1, 177360, Note_on_c, 0, 48, 48
1, 177436, Note_on_c, 0, 65, 0
1, 177440, Tempo, 521739
1, 177440, Note_on_c, 0, 65, 55
1, 177480, Note_on_c, 0, 48, 0
1, 177520, Tempo, 563380
1, 177520, Note_on_c, 0, 65, 0
1, 177520, Note_on_c, 0, 69, 56
1, 177600, Tempo, 510638
1, 177600, Note_on_c, 0, 69, 0
1, 177600, Note_on_c, 0, 77, 57
1, 177600, Note_on_c, 0, 60, 50
1, 177676, Note_on_c, 0, 77, 0
1, 177680, Note_on_c, 0, 77, 58
1, 177720, Note_on_c, 0, 60, 0
1, 177760, Note_on_c, 0, 77, 0
1, 177760, Note_on_c, 0, 81, 60
1, 177840, Note_on_c, 0, 81, 0
1, 177840, Note_on_c, 0, 89, 61
1, 177840, Note_on_c, 0, 72, 52
1, 177916, Note_on_c, 0, 89, 0
1, 177920, Tempo, 540541
1, 177920, Note_on_c, 0, 89, 62
1, 177960, Note_on_c, 0, 72, 0
1, 178000, Tempo, 597015
1, 178000, Note_on_c, 0, 89, 0
1, 178000, Note_on_c, 0, 93, 63
1, 178080, Tempo, 530973
1, 178080, Note_on_c, 0, 93, 0
1, 178080, Note_on_c, 0, 41, 0
1, 178080, Note_on_c, 0, 101, 71
1, 178080, Note_on_c, 0, 81, 59
1, 178101, Control_c, 0, 64, 0
1, 178160, Note_on_c, 0, 81, 0
1, 178160, Note_on_c, 0, 84, 62
1, 178240, Note_on_c, 0, 84, 0
1, 178240, Note_on_c, 0, 89, 65
1, 178320, Tempo, 495868
1, 178320, Note_on_c, 0, 89, 0
1, 178320, Note_on_c, 0, 101, 0
1, 178320, Note_on_c, 0, 93, 54
1, 178320, Control_c, 0, 64, 0
1, 178400, Note_on_c, 0, 91, 53
1, 178420, Note_on_c, 0, 93, 0
1, 178480, Note_on_c, 0, 89, 52
1, 178500, Note_on_c, 0, 91, 0
1, 178560, Tempo, 512821
1, 178560, Note_on_c, 0, 88, 49
1, 178560, Note_on_c, 0, 48, 50
1, 178580, Note_on_c, 0, 89, 0
1, 178640, Note_on_c, 0, 89, 47
1, 178660, Note_on_c, 0, 88, 0
1, 178680, Note_on_c, 0, 48, 0
1, 178720, Note_on_c, 0, 91, 47
1, 178740, Note_on_c, 0, 89, 0
1, 178800, Tempo, 485830
1, 178800, Note_on_c, 0, 91, 0
1, 178800, Note_on_c, 0, 79, 51
1, 178800, Note_on_c, 0, 64, 41
1, 178800, Note_on_c, 0, 60, 41
1, 178880, Note_on_c, 0, 82, 47
1, 178900, Note_on_c, 0, 79, 0
1, 178920, Note_on_c, 0, 64, 0
1, 178920, Note_on_c, 0, 60, 0
1, 178960, Note_on_c, 0, 84, 48
1, 178980, Note_on_c, 0, 82, 0
1, 179040, Tempo, 493827
1, 179040, Note_on_c, 0, 85, 55
1, 179040, Note_on_c, 0, 55, 51
1, 179060, Note_on_c, 0, 84, 0
1, 179120, Note_on_c, 0, 88, 45
1, 179140, Note_on_c, 0, 85, 0
1, 179160, Note_on_c, 0, 55, 0
1, 179200, Note_on_c, 0, 91, 45
1, 179220, Note_on_c, 0, 88, 0
1, 179280, Tempo, 485830
1, 179280, Note_on_c, 0, 91, 0
1, 179280, Note_on_c, 0, 79, 51
1, 179280, Note_on_c, 0, 64, 41
1, 179280, Note_on_c, 0, 60, 41
1, 179360, Note_on_c, 0, 82, 46
1, 179380, Note_on_c, 0, 79, 0
1, 179400, Note_on_c, 0, 64, 0
1, 179400, Note_on_c, 0, 60, 0
1, 179440, Note_on_c, 0, 84, 46
1, 179460, Note_on_c, 0, 82, 0
1, 179520, Tempo, 481928
1, 179520, Note_on_c, 0, 85, 56
1, 179520, Note_on_c, 0, 52, 53
1, 179540, Note_on_c, 0, 84, 0
1, 179600, Note_on_c, 0, 88, 50
1, 179620, Note_on_c, 0, 85, 0
1, 179640, Note_on_c, 0, 52, 0
1, 179680, Note_on_c, 0, 91, 50
1, 179700, Note_on_c, 0, 88, 0
1, 179760, Tempo, 470588
1, 179760, Note_on_c, 0, 91, 0
1, 179760, Note_on_c, 0, 79, 54
1, 179760, Note_on_c, 0, 64, 44
1, 179760, Note_on_c, 0, 60, 44
1, 179840, Note_on_c, 0, 82, 50
1, 179860, Note_on_c, 0, 79, 0
1, 179880, Note_on_c, 0, 64, 0
1, 179880, Note_on_c, 0, 60, 0
1, 179920, Note_on_c, 0, 89, 50
1, 179940, Note_on_c, 0, 82, 0
1, 180000, Tempo, 480000
1, 180000, Note_on_c, 0, 88, 49
1, 180000, Note_on_c, 0, 45, 50
1, 180020, Note_on_c, 0, 89, 0
1, 180080, Note_on_c, 0, 87, 47
1, 180100, Note_on_c, 0, 88, 0
1, 180120, Note_on_c, 0, 45, 0
1, 180160, Tempo, 594059
1, 180160, Note_on_c, 0, 88, 47
1, 180180, Note_on_c, 0, 87, 0
1, 180240, Tempo, 480000
1, 180240, Note_on_c, 0, 100, 48
1, 180240, Note_on_c, 0, 61, 38
1, 180240, Note_on_c, 0, 57, 38
1, 180260, Note_on_c, 0, 88, 0
1, 180280, Tempo, 478088
1, 180320, Tempo, 476190
1, 180320, Note_on_c, 0, 97, 44
1, 180340, Tempo, 474308
1, 180340, Note_on_c, 0, 100, 0
1, 180360, Note_on_c, 0, 57, 0
1, 180360, Note_on_c, 0, 61, 0
1, 180380, Tempo, 472441
1, 180400, Tempo, 470588
1, 180400, Note_on_c, 0, 91, 44
1, 180420, Note_on_c, 0, 97, 0
1, 180440, Tempo, 468750
1, 180460, Tempo, 466926
1, 180480, Note_on_c, 0, 91, 0
1, 180480, Note_on_c, 0, 88, 50
1, 180480, Note_on_c, 0, 52, 46
1, 180500, Tempo, 466926
1, 180560, Note_on_c, 0, 85, 40
1, 180580, Tempo, 468750
1, 180580, Note_on_c, 0, 88, 0
1, 180600, Note_on_c, 0, 52, 0
1, 180640, Note_on_c, 0, 88, 40
1, 180660, Tempo, 470588
1, 180660, Note_on_c, 0, 85, 0
1, 180720, Note_on_c, 0, 76, 45
1, 180720, Note_on_c, 0, 61, 36
1, 180720, Note_on_c, 0, 57, 36
1, 180740, Tempo, 472441
1, 180740, Note_on_c, 0, 88, 0
1, 180800, Note_on_c, 0, 73, 40
1, 180820, Tempo, 474308
1, 180820, Note_on_c, 0, 76, 0
1, 180840, Note_on_c, 0, 57, 0
1, 180840, Note_on_c, 0, 61, 0
1, 180880, Note_on_c, 0, 76, 40
1, 180900, Tempo, 476190
1, 180900, Note_on_c, 0, 73, 0
1, 180960, Tempo, 478088
1, 180960, Note_on_c, 0, 76, 0
1, 180960, Note_on_c, 0, 64, 48
1, 180960, Note_on_c, 0, 45, 45
1, 180980, Tempo, 474308
1, 181040, Note_on_c, 0, 64, 0
1, 181040, Note_on_c, 0, 61, 42
1, 181080, Note_on_c, 0, 45, 0
1, 181120, Tempo, 504202
1, 181120, Note_on_c, 0, 61, 0
1, 181120, Note_on_c, 0, 64, 42
1, 181200, Tempo, 472441
1, 181200, Note_on_c, 0, 64, 0
1, 181200, Note_on_c, 0, 57, 44
1, 181200, Note_on_c, 0, 52, 36
1, 181200, Note_on_c, 0, 49, 36
1, 181280, Note_on_c, 0, 59, 41
1, 181300, Note_on_c, 0, 57, 0
1, 181320, Note_on_c, 0, 52, 0
1, 181320, Note_on_c, 0, 49, 0
1, 181360, Note_on_c, 0, 61, 40
1, 181380, Note_on_c, 0, 59, 0
1, 181440, Tempo, 497925
1, 181440, Note_on_c, 0, 62, 41
1, 181440, Note_on_c, 0, 38, 42
1, 181460, Note_on_c, 0, 61, 0
1, 181520, Note_on_c, 0, 69, 39
1, 181540, Note_on_c, 0, 62, 0
1, 181560, Note_on_c, 0, 38, 0
1, 181600, Note_on_c, 0, 66, 39
1, 181620, Note_on_c, 0, 69, 0
1, 181680, Tempo, 485830
1, 181680, Note_on_c, 0, 66, 0
1, 181680, Note_on_c, 0, 57, 43
1, 181680, Note_on_c, 0, 54, 34
1, 181680, Note_on_c, 0, 50, 34
1, 181760, Note_on_c, 0, 60, 39
1, 181780, Note_on_c, 0, 57, 0
1, 181800, Note_on_c, 0, 54, 0
1, 181800, Note_on_c, 0, 50, 0
1, 181840, Note_on_c, 0, 63, 40
1, 181860, Note_on_c, 0, 60, 0
1, 181920, Tempo, 493827
1, 181920, Note_on_c, 0, 62, 46
1, 181920, Note_on_c, 0, 45, 43
1, 181940, Note_on_c, 0, 63, 0
1, 182000, Note_on_c, 0, 69, 38
1, 182020, Note_on_c, 0, 62, 0
1, 182040, Note_on_c, 0, 45, 0
1, 182080, Note_on_c, 0, 66, 38
1, 182100, Note_on_c, 0, 69, 0
1, 182160, Tempo, 485830
1, 182160, Note_on_c, 0, 66, 0
1, 182160, Note_on_c, 0, 57, 43
1, 182160, Note_on_c, 0, 54, 34
1, 182160, Note_on_c, 0, 50, 34
1, 182240, Note_on_c, 0, 60, 39
1, 182260, Note_on_c, 0, 57, 0
1, 182280, Note_on_c, 0, 54, 0
1, 182280, Note_on_c, 0, 50, 0
1, 182320, Note_on_c, 0, 63, 39
1, 182340, Note_on_c, 0, 60, 0
1, 182400, Tempo, 481928
1, 182400, Note_on_c, 0, 62, 47
1, 182400, Note_on_c, 0, 38, 45
1, 182420, Note_on_c, 0, 63, 0
1, 182480, Note_on_c, 0, 69, 42
1, 182500, Note_on_c, 0, 62, 0
1, 182520, Note_on_c, 0, 38, 0
1, 182560, Note_on_c, 0, 66, 42
1, 182580, Note_on_c, 0, 69, 0
1, 182640, Tempo, 470588
1, 182640, Note_on_c, 0, 66, 0
1, 182640, Note_on_c, 0, 57, 45
1, 182640, Note_on_c, 0, 54, 37
1, 182640, Note_on_c, 0, 50, 37
1, 182720, Note_on_c, 0, 60, 42
1, 182740, Note_on_c, 0, 57, 0
1, 182760, Note_on_c, 0, 54, 0
1, 182760, Note_on_c, 0, 50, 0
1, 182800, Note_on_c, 0, 63, 42
1, 182820, Note_on_c, 0, 60, 0
1, 182880, Tempo, 495868
1, 182880, Note_on_c, 0, 62, 46
1, 182880, Note_on_c, 0, 43, 50
1, 182900, Note_on_c, 0, 63, 0
1, 182917, Control_c, 0, 64, 127
1, 182960, Note_on_c, 0, 62, 0
1, 182960, Note_on_c, 0, 65, 47
1, 183000, Note_on_c, 0, 43, 0
1, 183040, Tempo, 555556
1, 183040, Note_on_c, 0, 65, 0
1, 183040, Note_on_c, 0, 68, 49
1, 183120, Tempo, 466926
1, 183120, Note_on_c, 0, 68, 0
1, 183120, Note_on_c, 0, 71, 50
1, 183120, Note_on_c, 0, 58, 40
1, 183120, Note_on_c, 0, 55, 40
1, 183200, Tempo, 465116
1, 183200, Note_on_c, 0, 71, 0
1, 183200, Note_on_c, 0, 74, 51
1, 183280, Note_on_c, 0, 74, 0
1, 183280, Note_on_c, 0, 77, 53
1, 183320, Tempo, 461538
1, 183360, Note_on_c, 0, 77, 0
1, 183360, Note_on_c, 0, 55, 0
1, 183360, Note_on_c, 0, 58, 0
1, 183360, Note_on_c, 0, 80, 54
1, 183360, Note_on_c, 0, 50, 52
1, 183400, Tempo, 463320
1, 183440, Note_on_c, 0, 80, 0
1, 183440, Note_on_c, 0, 77, 55
1, 183480, Tempo, 465116
1, 183480, Note_on_c, 0, 50, 0
1, 183520, Note_on_c, 0, 77, 0
1, 183520, Note_on_c, 0, 80, 57
1, 183560, Tempo, 466926
1, 183600, Note_on_c, 0, 80, 0
1, 183600, Note_on_c, 0, 83, 58
1, 183600, Note_on_c, 0, 58, 45
1, 183600, Note_on_c, 0, 55, 45
1, 183640, Tempo, 468750
1, 183680, Note_on_c, 0, 83, 0
1, 183680, Note_on_c, 0, 86, 59
1, 183720, Tempo, 470588
1, 183760, Note_on_c, 0, 86, 0
1, 183760, Note_on_c, 0, 89, 61
1, 183800, Tempo, 472441
1, 183840, Note_on_c, 0, 89, 0
1, 183840, Note_on_c, 0, 55, 0
1, 183840, Note_on_c, 0, 58, 0
1, 183840, Note_on_c, 0, 92, 62
1, 183840, Note_on_c, 0, 43, 59
1, 183860, Tempo, 474308
1, 183920, Note_on_c, 0, 92, 0
1, 183920, Note_on_c, 0, 85, 63
1, 183960, Note_on_c, 0, 43, 0
1, 184000, Tempo, 483871
1, 184000, Note_on_c, 0, 85, 0
1, 184000, Note_on_c, 0, 86, 65
1, 184080, Tempo, 472441
1, 184080, Note_on_c, 0, 86, 0
1, 184080, Note_on_c, 0, 89, 66
1, 184080, Note_on_c, 0, 58, 50
1, 184080, Note_on_c, 0, 55, 50
1, 184160, Note_on_c, 0, 89, 0
1, 184160, Note_on_c, 0, 92, 67
1, 184240, Tempo, 521739
1, 184240, Note_on_c, 0, 92, 0
1, 184240, Note_on_c, 0, 95, 72
1, 184260, Tempo, 754717
1, 184290, Note_on_c, 0, 98, 65
1, 184320, Tempo, 480000
1, 184320, Note_on_c, 0, 98, 0
1, 184320, Note_on_c, 0, 58, 0
1, 184320, Note_on_c, 0, 55, 0
1, 184320, Note_on_c, 0, 95, 0
1, 184320, Note_on_c, 0, 101, 74
1, 184320, Note_on_c, 0, 48, 66
1, 184327, Control_c, 0, 64, 0
1, 184359, Control_c, 0, 64, 127
1, 184400, Note_on_c, 0, 101, 0
1, 184400, Note_on_c, 0, 100, 72
1, 184480, Note_on_c, 0, 100, 0
1, 184480, Note_on_c, 0, 98, 70
1, 184560, Tempo, 491803
1, 184560, Note_on_c, 0, 98, 0
1, 184560, Note_on_c, 0, 96, 68
1, 184560, Note_on_c, 0, 55, 56
1, 184640, Note_on_c, 0, 96, 0
1, 184640, Note_on_c, 0, 94, 64
1, 184720, Note_on_c, 0, 94, 0
1, 184720, Note_on_c, 0, 98, 65
1, 184800, Tempo, 483871
1, 184800, Note_on_c, 0, 98, 0
1, 184800, Note_on_c, 0, 55, 0
1, 184800, Note_on_c, 0, 48, 0
1, 184800, Note_on_c, 0, 91, 66
1, 184800, Note_on_c, 0, 60, 65
1, 184800, Note_on_c, 0, 64, 65
1, 184880, Note_on_c, 0, 91, 0
1, 184880, Note_on_c, 0, 88, 61
1, 184960, Note_on_c, 0, 88, 0
1, 184960, Note_on_c, 0, 96, 61
1, 185040, Tempo, 491803
1, 185040, Note_on_c, 0, 96, 0
1, 185040, Note_on_c, 0, 64, 0
1, 185040, Note_on_c, 0, 84, 65
1, 185040, Note_on_c, 0, 55, 51
1, 185120, Note_on_c, 0, 84, 0
1, 185120, Note_on_c, 0, 82, 60
1, 185200, Note_on_c, 0, 82, 0
1, 185200, Note_on_c, 0, 86, 60
1, 185280, Note_on_c, 0, 86, 0
1, 185280, Note_on_c, 0, 55, 0
1, 185280, Note_on_c, 0, 60, 0
1, 185280, Note_on_c, 0, 79, 57
1, 185280, Note_on_c, 0, 64, 54
1, 185280, Note_on_c, 0, 58, 54
1, 185290, Control_c, 0, 64, 0
1, 185347, Control_c, 0, 64, 127
1, 185360, Note_on_c, 0, 79, 0
1, 185360, Note_on_c, 0, 76, 51
1, 185440, Note_on_c, 0, 76, 0
1, 185440, Note_on_c, 0, 84, 51
1, 185520, Note_on_c, 0, 84, 0
1, 185520, Note_on_c, 0, 64, 0
1, 185520, Note_on_c, 0, 72, 55
1, 185520, Note_on_c, 0, 55, 47
1, 185600, Note_on_c, 0, 72, 0
1, 185600, Note_on_c, 0, 74, 49
1, 185680, Note_on_c, 0, 74, 0
1, 185680, Note_on_c, 0, 76, 49
1, 185760, Note_on_c, 0, 76, 0
1, 185760, Note_on_c, 0, 55, 0
1, 185760, Note_on_c, 0, 58, 0
1, 185760, Note_on_c, 0, 77, 52
1, 185760, Note_on_c, 0, 45, 54
1, 185763, Control_c, 0, 64, 0
1, 185800, Control_c, 0, 64, 127
1, 185840, Note_on_c, 0, 77, 0
1, 185840, Note_on_c, 0, 81, 48
1, 185880, Note_on_c, 0, 45, 0
1, 185920, Tempo, 476190
1, 185920, Note_on_c, 0, 81, 0
1, 185920, Note_on_c, 0, 82, 48
1, 186000, Note_on_c, 0, 82, 0
1, 186000, Note_on_c, 0, 84, 52
1, 186000, Note_on_c, 0, 65, 47
1, 186000, Note_on_c, 0, 60, 47
1, 186080, Note_on_c, 0, 84, 0
1, 186080, Note_on_c, 0, 89, 48
1, 186160, Note_on_c, 0, 89, 0
1, 186160, Note_on_c, 0, 93, 48
1, 186240, Tempo, 481928
1, 186240, Note_on_c, 0, 93, 0
1, 186240, Note_on_c, 0, 60, 0
1, 186240, Note_on_c, 0, 65, 0
1, 186240, Note_on_c, 0, 96, 59
1, 186240, Note_on_c, 0, 57, 54
1, 186250, Control_c, 0, 64, 0
1, 186252, Tempo, 483871
1, 186264, Tempo, 485830
1, 186273, Control_c, 0, 64, 127
1, 186280, Tempo, 489796
1, 186292, Tempo, 491803
1, 186304, Tempo, 495868
1, 186320, Tempo, 497925
1, 186320, Note_on_c, 0, 96, 0
1, 186320, Note_on_c, 0, 94, 53
1, 186332, Tempo, 500000
1, 186344, Tempo, 504202
1, 186360, Tempo, 506329
1, 186360, Note_on_c, 0, 57, 0
1, 186372, Tempo, 510638
1, 186380, Tempo, 485830
1, 186400, Tempo, 588235
1, 186400, Note_on_c, 0, 94, 0
1, 186400, Note_on_c, 0, 93, 53
1, 186450, Note_on_c, 0, 93, 0
1, 186450, Note_on_c, 0, 94, 53
1, 186480, Tempo, 571429
1, 186480, Note_on_c, 0, 94, 0
1, 186480, Note_on_c, 0, 93, 58
1, 186480, Note_on_c, 0, 65, 48
1, 186480, Note_on_c, 0, 60, 48
1, 186560, Note_on_c, 0, 93, 0
1, 186560, Note_on_c, 0, 91, 53
1, 186640, Tempo, 600000
1, 186640, Note_on_c, 0, 91, 0
1, 186640, Note_on_c, 0, 89, 53
1, 186690, Note_on_c, 0, 89, 0
1, 186690, Note_on_c, 0, 91, 58
1, 186720, Tempo, 591133
1, 186720, Note_on_c, 0, 91, 0
1, 186720, Note_on_c, 0, 60, 0
1, 186720, Note_on_c, 0, 65, 0
1, 186720, Note_on_c, 0, 89, 60
1, 186720, Note_on_c, 0, 47, 54
1, 186730, Control_c, 0, 64, 0
1, 186772, Control_c, 0, 64, 127
1, 186800, Note_on_c, 0, 89, 0
1, 186800, Note_on_c, 0, 88, 53
1, 186840, Note_on_c, 0, 47, 0
1, 186880, Tempo, 645161
1, 186880, Note_on_c, 0, 88, 0
1, 186880, Note_on_c, 0, 86, 53
1, 186930, Note_on_c, 0, 86, 0
1, 186930, Note_on_c, 0, 88, 58
1, 186940, Tempo, 641711
1, 186960, Tempo, 645161
1, 186960, Note_on_c, 0, 88, 0
1, 186960, Note_on_c, 0, 86, 59
1, 186960, Note_on_c, 0, 65, 47
1, 186960, Note_on_c, 0, 62, 47
1, 186960, Note_on_c, 0, 55, 47
1, 186980, Tempo, 652174
1, 187000, Tempo, 659341
1, 187020, Tempo, 662983
1, 187040, Tempo, 670391
1, 187040, Note_on_c, 0, 86, 0
1, 187040, Note_on_c, 0, 84, 52
1, 187060, Tempo, 677966
1, 187080, Tempo, 685714
1, 187092, Tempo, 689655
1, 187104, Tempo, 701754
1, 187120, Tempo, 714286
1, 187120, Note_on_c, 0, 84, 0
1, 187120, Note_on_c, 0, 83, 52
1, 187132, Tempo, 722892
1, 187144, Tempo, 736196
1, 187160, Tempo, 745342
1, 187170, Note_on_c, 0, 83, 0
1, 187170, Note_on_c, 0, 84, 53
1, 187172, Tempo, 759494
1, 187184, Tempo, 774194
1, 187200, Tempo, 606061
1, 187200, Note_on_c, 0, 84, 0
1, 187200, Note_on_c, 0, 55, 0
1, 187200, Note_on_c, 0, 62, 0
1, 187200, Note_on_c, 0, 65, 0
1, 187200, Note_on_c, 0, 93, 57
1, 187200, Control_c, 0, 64, 0
1, 187200, Note_on_c, 0, 48, 54
1, 187239, Control_c, 0, 64, 127
1, 187320, Note_on_c, 0, 48, 0
1, 187320, Note_on_c, 0, 93, 0
1, 187360, Tempo, 535714
1, 187360, Note_on_c, 0, 89, 56
1, 187440, Note_on_c, 0, 89, 0
1, 187440, Note_on_c, 0, 84, 56
1, 187440, Note_on_c, 0, 65, 47
1, 187440, Note_on_c, 0, 60, 47
1, 187440, Note_on_c, 0, 57, 47
1, 187520, Note_on_c, 0, 84, 0
1, 187520, Note_on_c, 0, 81, 56
1, 187600, Note_on_c, 0, 81, 0
1, 187600, Note_on_c, 0, 77, 55
1, 187680, Tempo, 493827
1, 187680, Note_on_c, 0, 77, 0
1, 187680, Note_on_c, 0, 65, 0
1, 187680, Note_on_c, 0, 60, 0
1, 187680, Note_on_c, 0, 57, 0
1, 187680, Note_on_c, 0, 72, 55
1, 187760, Note_on_c, 0, 72, 0
1, 187760, Note_on_c, 0, 84, 54
1, 187840, Tempo, 506329
1, 187840, Note_on_c, 0, 84, 0
1, 187840, Note_on_c, 0, 81, 54
1, 187920, Note_on_c, 0, 81, 0
1, 187920, Note_on_c, 0, 77, 53
1, 188000, Note_on_c, 0, 77, 0
1, 188000, Note_on_c, 0, 72, 53
1, 188080, Note_on_c, 0, 72, 0
1, 188080, Note_on_c, 0, 69, 53
1, 188160, Tempo, 493827
1, 188160, Note_on_c, 0, 69, 0
1, 188160, Note_on_c, 0, 72, 52
1, 188160, Note_on_c, 0, 36, 54
1, 188167, Control_c, 0, 64, 0
1, 188217, Control_c, 0, 64, 127
1, 188240, Note_on_c, 0, 72, 0
1, 188240, Note_on_c, 0, 67, 52
1, 188280, Note_on_c, 0, 36, 0
1, 188320, Tempo, 506329
1, 188320, Note_on_c, 0, 67, 0
1, 188320, Note_on_c, 0, 64, 51
1, 188400, Note_on_c, 0, 64, 0
1, 188400, Note_on_c, 0, 60, 51
1, 188400, Note_on_c, 0, 52, 47
1, 188400, Note_on_c, 0, 55, 47
1, 188480, Tempo, 547945
1, 188480, Note_on_c, 0, 60, 0
1, 188480, Note_on_c, 0, 58, 50
1, 188560, Note_on_c, 0, 58, 0
1, 188560, Note_on_c, 0, 55, 50
1, 188640, Tempo, 506329
1, 188640, Note_on_c, 0, 55, 0
1, 188640, Note_on_c, 0, 55, 0
1, 188640, Note_on_c, 0, 52, 0
1, 188640, Note_on_c, 0, 53, 50
1, 188640, Note_on_c, 0, 41, 54
1, 188644, Control_c, 0, 64, 0
1, 188682, Control_c, 0, 64, 127
1, 188720, Note_on_c, 0, 53, 0
1, 188720, Note_on_c, 0, 57, 51
1, 188800, Note_on_c, 0, 57, 0
1, 188800, Note_on_c, 0, 60, 52
1, 188880, Note_on_c, 0, 60, 0
1, 188880, Note_on_c, 0, 41, 0
1, 188880, Note_on_c, 0, 65, 52
1, 188940, Note_on_c, 0, 65, 0
1, 188940, Note_on_c, 0, 69, 52
1, 188960, Tempo, 521739
1, 189000, Note_on_c, 0, 69, 0
1, 189000, Note_on_c, 0, 72, 53
1, 189060, Tempo, 493827
1, 189060, Note_on_c, 0, 72, 0
1, 189060, Note_on_c, 0, 77, 53
1, 189106, Tempo, 526316
1, 189118, Tempo, 530973
1, 189120, Note_on_c, 0, 77, 0
1, 189120, Note_on_c, 0, 53, 41
1, 189126, Tempo, 535714
1, 189138, Tempo, 540541
1, 189146, Tempo, 545455
1, 189150, Note_on_c, 0, 57, 45
1, 189158, Tempo, 550459
1, 189166, Tempo, 555556
1, 189178, Tempo, 560748
1, 189180, Note_on_c, 0, 60, 49
1, 189186, Tempo, 566038
1, 189198, Tempo, 571429
1, 189206, Tempo, 576923
1, 189210, Note_on_c, 0, 65, 53
1, 189218, Tempo, 582524
1, 189226, Tempo, 588235
1, 189238, Tempo, 594059
1, 189240, Note_on_c, 0, 77, 53
1, 189246, Tempo, 600000
1, 189258, Tempo, 606061
1, 189266, Tempo, 612245
1, 189270, Note_on_c, 0, 81, 56
1, 189278, Tempo, 618557
1, 189286, Tempo, 628272
1, 189290, Tempo, 645161
1, 189298, Tempo, 662983
1, 189300, Note_on_c, 0, 84, 60
1, 189302, Tempo, 681818
1, 189310, Tempo, 705882
1, 189330, Note_on_c, 0, 89, 63
1, 189360, Tempo, 506329
1, 189360, Note_on_c, 0, 89, 0
1, 189360, Note_on_c, 0, 53, 0
1, 189360, Note_on_c, 0, 77, 0
1, 189360, Note_on_c, 0, 57, 0
1, 189360, Note_on_c, 0, 60, 0
1, 189360, Note_on_c, 0, 65, 0
1, 189360, Note_on_c, 0, 81, 0
1, 189360, Note_on_c, 0, 84, 0
1, 189544, Control_c, 0, 64, 0
1, 189600, Tempo, 542986
1, 190080, Time_signature, 9, 3, 12, 8
1, 190080, Key_signature, -4, "major"
1, 190080, Marker_t, "Cantabile"
1, 191520, Tempo, 559024
1, 191520, Note_on_c, 0, 86, 50
1, 191520, Note_on_c, 0, 74, 42
1, 192240, Note_on_c, 0, 74, 0
1, 192240, Note_on_c, 0, 86, 0
1, 192240, Note_on_c, 0, 87, 53
1, 192240, Note_on_c, 0, 75, 45
1, 192240, Control_c, 0, 64, 127
1, 192240, Note_on_c, 0, 44, 36
1, 192720, Note_on_c, 0, 44, 0
1, 192720, Note_on_c, 0, 63, 32
1, 192720, Note_on_c, 0, 60, 27
1, 192720, Note_on_c, 0, 51, 27
1, 192958, Note_on_c, 0, 51, 0
1, 192958, Note_on_c, 0, 63, 0
1, 192958, Note_on_c, 0, 60, 0
1, 192960, Tempo, 494153
1, 192960, Note_on_c, 0, 75, 0
1, 192960, Note_on_c, 0, 87, 0
1, 192960, Note_on_c, 0, 92, 58
1, 192960, Note_on_c, 0, 80, 49
1, 192960, Note_on_c, 0, 63, 38
1, 192960, Note_on_c, 0, 60, 31
1, 192960, Note_on_c, 0, 56, 31
1, 193435, Note_on_c, 0, 56, 0
1, 193435, Note_on_c, 0, 63, 0
1, 193435, Note_on_c, 0, 60, 0
1, 193440, Note_on_c, 0, 63, 35
1, 193440, Note_on_c, 0, 60, 29
1, 193440, Note_on_c, 0, 51, 29
1, 193678, Note_on_c, 0, 51, 0
1, 193678, Note_on_c, 0, 63, 0
1, 193678, Note_on_c, 0, 60, 0
1, 193680, Note_on_c, 0, 80, 0
1, 193680, Note_on_c, 0, 92, 0
1, 193680, Note_on_c, 0, 96, 63
1, 193680, Note_on_c, 0, 84, 52
1, 193680, Note_on_c, 0, 56, 33
1, 193680, Note_on_c, 0, 60, 33
1, 193680, Note_on_c, 0, 63, 40
1, 194155, Note_on_c, 0, 63, 0
1, 194155, Note_on_c, 0, 56, 0
1, 194155, Note_on_c, 0, 60, 0
1, 194160, Tempo, 533333
1, 194160, Note_on_c, 0, 51, 30
1, 194160, Note_on_c, 0, 60, 30
1, 194160, Note_on_c, 0, 63, 36
1, 194398, Note_on_c, 0, 63, 0
1, 194398, Note_on_c, 0, 51, 0
1, 194398, Note_on_c, 0, 60, 0
1, 194400, Tempo, 512601
1, 194400, Note_on_c, 0, 84, 0
1, 194400, Note_on_c, 0, 96, 0
1, 194400, Note_on_c, 0, 89, 60
1, 194400, Note_on_c, 0, 101, 70
1, 194400, Note_on_c, 0, 41, 50
1, 194410, Control_c, 0, 64, 0
1, 194539, Control_c, 0, 64, 127
1, 194880, Tempo, 494153
1, 194880, Note_on_c, 0, 41, 0
1, 194880, Note_on_c, 0, 65, 43
1, 194880, Note_on_c, 0, 63, 36
1, 194880, Note_on_c, 0, 53, 36
1, 195118, Note_on_c, 0, 53, 0
1, 195118, Note_on_c, 0, 65, 0
1, 195118, Note_on_c, 0, 63, 0
1, 195120, Note_on_c, 0, 65, 43
1, 195120, Note_on_c, 0, 63, 36
1, 195120, Note_on_c, 0, 57, 36
1, 195595, Note_on_c, 0, 57, 0
1, 195595, Note_on_c, 0, 65, 0
1, 195595, Note_on_c, 0, 63, 0
1, 195600, Note_on_c, 0, 65, 40
1, 195600, Note_on_c, 0, 63, 33
1, 195600, Note_on_c, 0, 53, 33
1, 195838, Note_on_c, 0, 53, 0
1, 195838, Note_on_c, 0, 63, 0
1, 195838, Note_on_c, 0, 65, 0
1, 195840, Tempo, 512601
1, 195840, Note_on_c, 0, 101, 0
1, 195840, Note_on_c, 0, 89, 0
1, 195840, Note_on_c, 0, 99, 60
1, 195840, Note_on_c, 0, 87, 50
1, 195840, Note_on_c, 0, 65, 39
1, 195840, Note_on_c, 0, 63, 33
1, 195840, Note_on_c, 0, 57, 33
1, 196315, Note_on_c, 0, 57, 0
1, 196315, Note_on_c, 0, 65, 0
1, 196315, Note_on_c, 0, 63, 0
1, 196320, Tempo, 528634
1, 196320, Note_on_c, 0, 65, 34
1, 196320, Note_on_c, 0, 63, 29
1, 196320, Note_on_c, 0, 53, 29
1, 196558, Note_on_c, 0, 53, 0
1, 196558, Note_on_c, 0, 65, 0
1, 196558, Note_on_c, 0, 63, 0
1, 196560, Tempo, 510638
1, 196560, Note_on_c, 0, 87, 0
1, 196560, Note_on_c, 0, 99, 0
1, 196560, Note_on_c, 0, 97, 55
1, 196560, Note_on_c, 0, 85, 47
1, 196560, Note_on_c, 0, 46, 34
1, 196567, Control_c, 0, 64, 0
1, 196766, Control_c, 0, 64, 127
1, 197040, Tempo, 480000
1, 197040, Note_on_c, 0, 46, 0
1, 197040, Note_on_c, 0, 85, 0
1, 197040, Note_on_c, 0, 97, 0
1, 197040, Note_on_c, 0, 85, 47
1, 197040, Note_on_c, 0, 65, 31
1, 197040, Note_on_c, 0, 61, 26
1, 197040, Note_on_c, 0, 53, 26
1, 197160, Note_on_c, 0, 85, 0
1, 197160, Note_on_c, 0, 89, 45
1, 197160, Note_on_c, 0, 84, 33
1, 197200, Tempo, 483871
1, 197240, Tempo, 481928
1, 197278, Note_on_c, 0, 65, 0
1, 197278, Note_on_c, 0, 53, 0
1, 197278, Note_on_c, 0, 61, 0
1, 197280, Note_on_c, 0, 84, 0
1, 197280, Note_on_c, 0, 83, 33
1, 197280, Note_on_c, 0, 58, 26
1, 197280, Note_on_c, 0, 61, 26
1, 197280, Note_on_c, 0, 65, 31
1, 197400, Note_on_c, 0, 83, 0
1, 197400, Note_on_c, 0, 89, 0
1, 197400, Note_on_c, 0, 89, 45
1, 197400, Note_on_c, 0, 82, 32
1, 197500, Tempo, 485830
1, 197520, Note_on_c, 0, 82, 0
1, 197520, Note_on_c, 0, 81, 32
1, 197640, Note_on_c, 0, 81, 0
1, 197640, Note_on_c, 0, 89, 0
1, 197640, Note_on_c, 0, 89, 44
1, 197640, Note_on_c, 0, 80, 32
1, 197660, Tempo, 487805
1, 197700, Tempo, 489796
1, 197740, Tempo, 491803
1, 197755, Note_on_c, 0, 65, 0
1, 197755, Note_on_c, 0, 61, 0
1, 197755, Note_on_c, 0, 58, 0
1, 197760, Tempo, 493827
1, 197760, Note_on_c, 0, 80, 0
1, 197760, Note_on_c, 0, 79, 32
1, 197760, Note_on_c, 0, 53, 25
1, 197760, Note_on_c, 0, 61, 25
1, 197760, Note_on_c, 0, 65, 30
1, 197860, Tempo, 495868
1, 197880, Note_on_c, 0, 79, 0
1, 197880, Note_on_c, 0, 89, 0
1, 197880, Note_on_c, 0, 82, 44
1, 197880, Note_on_c, 0, 78, 32
1, 197960, Tempo, 497925
1, 197998, Note_on_c, 0, 61, 0
1, 197998, Note_on_c, 0, 65, 0
1, 197998, Note_on_c, 0, 53, 0
1, 198000, Note_on_c, 0, 78, 0
1, 198000, Note_on_c, 0, 77, 31
1, 198000, Note_on_c, 0, 58, 25
1, 198000, Note_on_c, 0, 61, 25
1, 198000, Note_on_c, 0, 65, 30
1, 198010, Control_c, 0, 64, 0
1, 198060, Tempo, 500000
1, 198063, Control_c, 0, 64, 127
1, 198120, Note_on_c, 0, 77, 0
1, 198120, Note_on_c, 0, 82, 0
1, 198120, Note_on_c, 0, 82, 43
1, 198120, Note_on_c, 0, 76, 31
1, 198160, Tempo, 502092
1, 198240, Note_on_c, 0, 76, 0
1, 198240, Note_on_c, 0, 75, 30
1, 198260, Tempo, 504202
1, 198360, Tempo, 506329
1, 198360, Note_on_c, 0, 75, 0
1, 198360, Note_on_c, 0, 82, 0
1, 198360, Note_on_c, 0, 82, 42
1, 198360, Note_on_c, 0, 74, 30
1, 198460, Tempo, 508475
1, 198475, Note_on_c, 0, 65, 0
1, 198475, Note_on_c, 0, 61, 0
1, 198475, Note_on_c, 0, 58, 0
1, 198480, Note_on_c, 0, 74, 0
1, 198480, Note_on_c, 0, 73, 30
1, 198480, Note_on_c, 0, 53, 26
1, 198480, Note_on_c, 0, 61, 26
1, 198480, Note_on_c, 0, 65, 31
1, 198540, Tempo, 510638
1, 198600, Note_on_c, 0, 73, 0
1, 198600, Note_on_c, 0, 82, 0
1, 198600, Note_on_c, 0, 82, 41
1, 198600, Note_on_c, 0, 72, 29
1, 198640, Tempo, 519076
1, 198718, Note_on_c, 0, 61, 0
1, 198718, Note_on_c, 0, 65, 0
1, 198718, Note_on_c, 0, 53, 0
1, 198720, Note_on_c, 0, 72, 0
1, 198720, Note_on_c, 0, 72, 37
1, 198720, Note_on_c, 0, 51, 35
1, 198729, Control_c, 0, 64, 0
1, 198780, Note_on_c, 0, 72, 0
1, 198780, Note_on_c, 0, 70, 32
1, 198784, Control_c, 0, 64, 127
1, 198840, Note_on_c, 0, 70, 0
1, 198840, Note_on_c, 0, 82, 0
1, 198840, Note_on_c, 0, 72, 37
1, 198900, Note_on_c, 0, 72, 0
1, 198900, Note_on_c, 0, 70, 32
1, 198960, Note_on_c, 0, 70, 0
1, 198960, Note_on_c, 0, 72, 37
1, 199020, Note_on_c, 0, 72, 0
1, 199020, Note_on_c, 0, 70, 32
1, 199080, Note_on_c, 0, 70, 0
1, 199080, Note_on_c, 0, 72, 37
1, 199140, Note_on_c, 0, 72, 0
1, 199140, Note_on_c, 0, 70, 31
1, 199200, Tempo, 495868
1, 199200, Note_on_c, 0, 70, 0
1, 199200, Note_on_c, 0, 72, 37
1, 199200, Note_on_c, 0, 58, 25
1, 199200, Note_on_c, 0, 67, 30
1, 199212, Tempo, 493827
1, 199240, Tempo, 489796
1, 199252, Tempo, 487805
1, 199260, Note_on_c, 0, 72, 0
1, 199260, Note_on_c, 0, 70, 32
1, 199280, Tempo, 485830
1, 199304, Tempo, 491803
1, 199320, Tempo, 500000
1, 199320, Note_on_c, 0, 70, 0
1, 199320, Note_on_c, 0, 72, 37
1, 199332, Tempo, 504202
1, 199344, Tempo, 508475
1, 199380, Note_on_c, 0, 72, 0
1, 199380, Note_on_c, 0, 70, 32
1, 199384, Tempo, 506329
1, 199400, Tempo, 504202
1, 199412, Tempo, 500000
1, 199424, Tempo, 497925
1, 199438, Note_on_c, 0, 67, 0
1, 199438, Note_on_c, 0, 58, 0
1, 199440, Tempo, 495868
1, 199440, Note_on_c, 0, 70, 0
1, 199440, Note_on_c, 0, 72, 37
1, 199440, Note_on_c, 0, 63, 35
1, 199440, Note_on_c, 0, 60, 29
1, 199452, Tempo, 491803
1, 199464, Tempo, 487805
1, 199480, Tempo, 489796
1, 199500, Note_on_c, 0, 72, 0
1, 199500, Note_on_c, 0, 70, 33
1, 199504, Tempo, 506329
1, 199520, Tempo, 508475
1, 199560, Note_on_c, 0, 70, 0
1, 199560, Note_on_c, 0, 72, 37
1, 199572, Tempo, 506329
1, 199584, Tempo, 502092
1, 199600, Tempo, 500000
1, 199612, Tempo, 495868
1, 199620, Note_on_c, 0, 72, 0
1, 199620, Note_on_c, 0, 70, 33
1, 199624, Tempo, 493827
1, 199652, Tempo, 489796
1, 199664, Tempo, 493827
1, 199680, Tempo, 500000
1, 199680, Note_on_c, 0, 70, 0
1, 199680, Note_on_c, 0, 72, 37
1, 199704, Tempo, 504202
1, 199720, Tempo, 506329
1, 199740, Note_on_c, 0, 72, 0
1, 199740, Note_on_c, 0, 70, 31
1, 199760, Tempo, 504202
1, 199772, Tempo, 502092
1, 199784, Tempo, 500000
1, 199800, Tempo, 497925
1, 199800, Note_on_c, 0, 70, 0
1, 199800, Note_on_c, 0, 72, 37
1, 199812, Tempo, 495868
1, 199824, Tempo, 493827
1, 199852, Tempo, 491803
1, 199860, Note_on_c, 0, 72, 0
1, 199860, Note_on_c, 0, 70, 31
1, 199864, Tempo, 489796
1, 199880, Tempo, 487805
1, 199915, Note_on_c, 0, 60, 0
1, 199915, Note_on_c, 0, 63, 0
1, 199920, Tempo, 500000
1, 199920, Note_on_c, 0, 70, 0
1, 199920, Note_on_c, 0, 72, 37
1, 199920, Note_on_c, 0, 67, 31
1, 199920, Note_on_c, 0, 58, 26
1, 199932, Tempo, 504202
1, 199944, Tempo, 508475
1, 199960, Tempo, 510638
1, 199972, Tempo, 515021
1, 199980, Note_on_c, 0, 72, 0
1, 199980, Note_on_c, 0, 70, 32
1, 200000, Tempo, 512821
1, 200024, Tempo, 506329
1, 200040, Tempo, 500000
1, 200040, Note_on_c, 0, 70, 0
1, 200040, Note_on_c, 0, 72, 37
1, 200052, Tempo, 495868
1, 200064, Tempo, 493827
1, 200080, Tempo, 491803
1, 200092, Tempo, 489796
1, 200100, Note_on_c, 0, 72, 0
1, 200100, Note_on_c, 0, 70, 32
1, 200104, Tempo, 487805
1, 200120, Tempo, 485830
1, 200144, Tempo, 487805
1, 200158, Note_on_c, 0, 58, 0
1, 200158, Note_on_c, 0, 67, 0
1, 200160, Tempo, 489796
1, 200160, Note_on_c, 0, 70, 0
1, 200160, Note_on_c, 0, 72, 37
1, 200160, Note_on_c, 0, 75, 50
1, 200160, Note_on_c, 0, 67, 35
1, 200160, Note_on_c, 0, 63, 29
1, 200172, Tempo, 502092
1, 200184, Tempo, 508475
1, 200220, Note_on_c, 0, 72, 0
1, 200220, Note_on_c, 0, 70, 31
1, 200280, Note_on_c, 0, 70, 0
1, 200280, Note_on_c, 0, 72, 36
1, 200292, Tempo, 495868
1, 200304, Tempo, 489796
1, 200320, Tempo, 487805
1, 200332, Tempo, 485830
1, 200340, Note_on_c, 0, 72, 0
1, 200340, Note_on_c, 0, 70, 27
1, 200344, Tempo, 487805
1, 200360, Tempo, 497925
1, 200400, Tempo, 519076
1, 200400, Note_on_c, 0, 70, 0
1, 200400, Note_on_c, 0, 72, 34
1, 200460, Note_on_c, 0, 72, 0
1, 200460, Note_on_c, 0, 70, 28
1, 200520, Note_on_c, 0, 70, 0
1, 200520, Note_on_c, 0, 72, 32
1, 200580, Note_on_c, 0, 72, 0
1, 200580, Note_on_c, 0, 70, 27
1, 200635, Note_on_c, 0, 67, 0
1, 200635, Note_on_c, 0, 63, 0
1, 200640, Tempo, 521286
1, 200640, Note_on_c, 0, 70, 0
1, 200640, Note_on_c, 0, 72, 31
1, 200640, Note_on_c, 0, 67, 31
1, 200640, Note_on_c, 0, 58, 26
1, 200660, Tempo, 534807
1, 200680, Tempo, 551521
1, 200700, Tempo, 566733
1, 200700, Note_on_c, 0, 72, 0
1, 200700, Note_on_c, 0, 70, 26
1, 200720, Tempo, 585537
1, 200740, Tempo, 602652
1, 200760, Tempo, 623960
1, 200760, Note_on_c, 0, 70, 0
1, 200760, Note_on_c, 0, 72, 29
1, 200780, Tempo, 643432
1, 200800, Tempo, 667780
1, 200820, Tempo, 690211
1, 200820, Note_on_c, 0, 72, 0
1, 200820, Note_on_c, 0, 70, 23
1, 200840, Tempo, 718305
1, 200860, Tempo, 748783
1, 200878, Note_on_c, 0, 67, 0
1, 200878, Note_on_c, 0, 58, 0
1, 200880, Tempo, 519076
1, 200880, Note_on_c, 0, 51, 0
1, 200880, Note_on_c, 0, 75, 0
1, 200880, Note_on_c, 0, 70, 0
1, 200880, Note_on_c, 0, 74, 51
1, 200880, Note_on_c, 0, 71, 29
1, 200880, Note_on_c, 0, 53, 35
1, 200889, Control_c, 0, 64, 0
1, 200940, Note_on_c, 0, 71, 0
1, 200940, Note_on_c, 0, 70, 26
1, 201000, Note_on_c, 0, 70, 0
1, 201000, Note_on_c, 0, 71, 30
1, 201021, Control_c, 0, 64, 127
1, 201060, Note_on_c, 0, 71, 0
1, 201060, Note_on_c, 0, 70, 27
1, 201120, Note_on_c, 0, 70, 0
1, 201120, Note_on_c, 0, 71, 31
1, 201180, Note_on_c, 0, 71, 0
1, 201180, Note_on_c, 0, 70, 27
1, 201240, Note_on_c, 0, 70, 0
1, 201240, Note_on_c, 0, 71, 32
1, 201300, Note_on_c, 0, 71, 0
1, 201300, Note_on_c, 0, 70, 27
1, 201360, Tempo, 500000
1, 201360, Note_on_c, 0, 70, 0
1, 201360, Note_on_c, 0, 71, 33
1, 201360, Note_on_c, 0, 68, 30
1, 201360, Note_on_c, 0, 58, 25
1, 201400, Tempo, 497925
1, 201420, Note_on_c, 0, 71, 0
1, 201420, Note_on_c, 0, 70, 28
1, 201424, Tempo, 495868
1, 201464, Tempo, 493827
1, 201480, Tempo, 491803
1, 201480, Note_on_c, 0, 70, 0
1, 201480, Note_on_c, 0, 71, 34
1, 201520, Tempo, 489796
1, 201532, Tempo, 491803
1, 201540, Note_on_c, 0, 71, 0
1, 201540, Note_on_c, 0, 70, 29
1, 201544, Tempo, 497925
1, 201560, Tempo, 502092
1, 201572, Tempo, 504202
1, 201598, Note_on_c, 0, 68, 0
1, 201598, Note_on_c, 0, 58, 0
1, 201600, Note_on_c, 0, 70, 0
1, 201600, Note_on_c, 0, 74, 0
1, 201600, Note_on_c, 0, 77, 56
1, 201600, Note_on_c, 0, 71, 35
1, 201600, Note_on_c, 0, 68, 35
1, 201600, Note_on_c, 0, 62, 29
1, 201612, Tempo, 502092
1, 201624, Tempo, 497925
1, 201640, Tempo, 495868
1, 201660, Note_on_c, 0, 71, 0
1, 201660, Note_on_c, 0, 70, 31
1, 201664, Tempo, 491803
1, 201680, Tempo, 489796
1, 201692, Tempo, 487805
1, 201704, Tempo, 485830
1, 201720, Tempo, 487805
1, 201720, Note_on_c, 0, 70, 0
1, 201720, Note_on_c, 0, 71, 36
1, 201732, Tempo, 491803
1, 201744, Tempo, 493827
1, 201760, Tempo, 497925
1, 201780, Note_on_c, 0, 71, 0
1, 201780, Note_on_c, 0, 70, 32
1, 201784, Tempo, 504202
1, 201812, Tempo, 508475
1, 201840, Note_on_c, 0, 70, 0
1, 201840, Note_on_c, 0, 71, 36
1, 201852, Tempo, 506329
1, 201864, Tempo, 504202
1, 201880, Tempo, 500000
1, 201892, Tempo, 493827
1, 201900, Note_on_c, 0, 71, 0
1, 201900, Note_on_c, 0, 70, 31
1, 201904, Tempo, 491803
1, 201932, Tempo, 489796
1, 201944, Tempo, 483871
1, 201960, Note_on_c, 0, 70, 0
1, 201960, Note_on_c, 0, 71, 37
1, 201972, Tempo, 485830
1, 201984, Tempo, 489796
1, 202000, Tempo, 493827
1, 202012, Tempo, 495868
1, 202020, Note_on_c, 0, 71, 0
1, 202020, Note_on_c, 0, 70, 31
1, 202024, Tempo, 497925
1, 202040, Tempo, 500000
1, 202052, Tempo, 504202
1, 202064, Tempo, 508475
1, 202075, Note_on_c, 0, 68, 0
1, 202075, Note_on_c, 0, 62, 0
1, 202080, Note_on_c, 0, 70, 0
1, 202080, Note_on_c, 0, 71, 37
1, 202080, Note_on_c, 0, 68, 31
1, 202080, Note_on_c, 0, 58, 26
1, 202120, Tempo, 506329
1, 202140, Note_on_c, 0, 71, 0
1, 202140, Note_on_c, 0, 70, 32
1, 202144, Tempo, 502092
1, 202160, Tempo, 497925
1, 202172, Tempo, 493827
1, 202184, Tempo, 491803
1, 202200, Note_on_c, 0, 70, 0
1, 202200, Note_on_c, 0, 71, 37
1, 202212, Tempo, 495868
1, 202224, Tempo, 497925
1, 202240, Tempo, 500000
1, 202260, Note_on_c, 0, 71, 0
1, 202260, Note_on_c, 0, 70, 32
1, 202318, Note_on_c, 0, 68, 0
1, 202318, Note_on_c, 0, 58, 0
1, 202320, Tempo, 514756
1, 202320, Note_on_c, 0, 70, 0
1, 202320, Note_on_c, 0, 77, 0
1, 202320, Note_on_c, 0, 71, 37
1, 202320, Note_on_c, 0, 80, 59
1, 202320, Note_on_c, 0, 62, 29
1, 202320, Note_on_c, 0, 68, 35
1, 202380, Note_on_c, 0, 71, 0
1, 202380, Note_on_c, 0, 70, 32
1, 202384, Tempo, 508475
1, 202400, Tempo, 506329
1, 202412, Tempo, 502092
1, 202424, Tempo, 500000
1, 202440, Note_on_c, 0, 70, 0
1, 202440, Note_on_c, 0, 71, 37
1, 202452, Tempo, 497925
1, 202480, Tempo, 504202
1, 202492, Tempo, 506329
1, 202500, Note_on_c, 0, 71, 0
1, 202500, Note_on_c, 0, 70, 33
1, 202504, Tempo, 508475
1, 202520, Tempo, 512821
1, 202532, Tempo, 517241
1, 202544, Tempo, 519481
1, 202560, Tempo, 521739
1, 202560, Note_on_c, 0, 70, 0
1, 202560, Note_on_c, 0, 71, 37
1, 202584, Tempo, 519481
1, 202600, Tempo, 515021
1, 202612, Tempo, 512821
1, 202620, Note_on_c, 0, 71, 0
1, 202620, Note_on_c, 0, 70, 32
1, 202624, Tempo, 508475
1, 202640, Tempo, 506329
1, 202664, Tempo, 504202
1, 202680, Tempo, 500000
1, 202680, Note_on_c, 0, 70, 0
1, 202680, Note_on_c, 0, 71, 37
1, 202692, Tempo, 497925
1, 202704, Tempo, 500000
1, 202720, Tempo, 506329
1, 202732, Tempo, 508475
1, 202740, Note_on_c, 0, 71, 0
1, 202740, Note_on_c, 0, 70, 32
1, 202784, Tempo, 512821
1, 202795, Note_on_c, 0, 62, 0
1, 202795, Note_on_c, 0, 68, 0
1, 202800, Tempo, 515021
1, 202800, Note_on_c, 0, 70, 0
1, 202800, Note_on_c, 0, 71, 37
1, 202800, Note_on_c, 0, 58, 26
1, 202800, Note_on_c, 0, 68, 31
1, 202860, Note_on_c, 0, 71, 0
1, 202860, Note_on_c, 0, 70, 32
1, 202892, Tempo, 512821
1, 202904, Tempo, 508475
1, 202920, Tempo, 506329
1, 202920, Note_on_c, 0, 70, 0
1, 202920, Note_on_c, 0, 71, 37
1, 202944, Tempo, 502092
1, 202960, Tempo, 500000
1, 202980, Note_on_c, 0, 71, 0
1, 202980, Note_on_c, 0, 70, 31
1, 202984, Tempo, 502092
1, 203000, Tempo, 504202
1, 203012, Tempo, 508475
1, 203024, Tempo, 510638
1, 203038, Note_on_c, 0, 58, 0
1, 203038, Note_on_c, 0, 68, 0
1, 203040, Tempo, 512821
1, 203040, Note_on_c, 0, 53, 0
1, 203040, Note_on_c, 0, 80, 0
1, 203040, Note_on_c, 0, 70, 0
1, 203040, Note_on_c, 0, 80, 61
1, 203040, Note_on_c, 0, 71, 37
1, 203040, Note_on_c, 0, 50, 35
1, 203050, Control_c, 0, 64, 0
1, 203064, Tempo, 517241
1, 203100, Note_on_c, 0, 71, 0
1, 203100, Note_on_c, 0, 70, 31
1, 203104, Tempo, 521739
1, 203160, Tempo, 515021
1, 203160, Note_on_c, 0, 70, 0
1, 203160, Note_on_c, 0, 71, 36
1, 203172, Tempo, 510638
1, 203179, Control_c, 0, 64, 127
1, 203184, Tempo, 508475
1, 203200, Tempo, 504202
1, 203212, Tempo, 508475
1, 203220, Note_on_c, 0, 71, 0
1, 203220, Note_on_c, 0, 70, 31
1, 203280, Tempo, 506329
1, 203280, Note_on_c, 0, 70, 0
1, 203280, Note_on_c, 0, 71, 36
1, 203292, Tempo, 504202
1, 203304, Tempo, 497925
1, 203320, Tempo, 493827
1, 203340, Note_on_c, 0, 71, 0
1, 203340, Note_on_c, 0, 70, 30
1, 203372, Tempo, 497925
1, 203384, Tempo, 502092
1, 203400, Tempo, 504202
1, 203400, Note_on_c, 0, 70, 0
1, 203400, Note_on_c, 0, 71, 36
1, 203412, Tempo, 508475
1, 203424, Tempo, 512821
1, 203452, Tempo, 508475
1, 203460, Note_on_c, 0, 71, 0
1, 203460, Note_on_c, 0, 70, 29
1, 203464, Tempo, 504202
1, 203480, Tempo, 500000
1, 203520, Tempo, 495868
1, 203520, Note_on_c, 0, 70, 0
1, 203520, Note_on_c, 0, 71, 35
1, 203520, Note_on_c, 0, 58, 26
1, 203520, Note_on_c, 0, 62, 31
1, 203532, Tempo, 493827
1, 203544, Tempo, 489796
1, 203580, Note_on_c, 0, 71, 0
1, 203580, Note_on_c, 0, 70, 29
1, 203584, Tempo, 491803
1, 203600, Tempo, 495868
1, 203612, Tempo, 497925
1, 203640, Tempo, 502092
1, 203640, Note_on_c, 0, 70, 0
1, 203640, Note_on_c, 0, 71, 35
1, 203652, Tempo, 504202
1, 203680, Tempo, 506329
1, 203692, Tempo, 508475
1, 203700, Note_on_c, 0, 71, 0
1, 203700, Note_on_c, 0, 70, 29
1, 203720, Tempo, 506329
1, 203744, Tempo, 504202
1, 203760, Tempo, 497925
1, 203760, Note_on_c, 0, 70, 0
1, 203760, Note_on_c, 0, 62, 0
1, 203760, Note_on_c, 0, 58, 0
1, 203760, Note_on_c, 0, 50, 0
1, 203760, Note_on_c, 0, 71, 34
1, 203760, Note_on_c, 0, 53, 35
1, 203784, Tempo, 493827
1, 203800, Tempo, 489796
1, 203820, Note_on_c, 0, 71, 0
1, 203820, Note_on_c, 0, 70, 29
1, 203824, Tempo, 493827
1, 203840, Tempo, 495868
1, 203852, Tempo, 497925
1, 203864, Tempo, 504202
1, 203880, Tempo, 508475
1, 203880, Note_on_c, 0, 70, 0
1, 203880, Note_on_c, 0, 71, 33
1, 203892, Tempo, 510638
1, 203904, Tempo, 512821
1, 203932, Tempo, 508475
1, 203940, Note_on_c, 0, 71, 0
1, 203940, Note_on_c, 0, 70, 29
1, 203944, Tempo, 504202
1, 203960, Tempo, 497925
1, 204000, Tempo, 502092
1, 204000, Note_on_c, 0, 70, 0
1, 204000, Note_on_c, 0, 71, 33
1, 204012, Tempo, 504202
1, 204024, Tempo, 508475
1, 204040, Tempo, 510638
1, 204052, Tempo, 512821
1, 204060, Note_on_c, 0, 71, 0
1, 204060, Note_on_c, 0, 70, 27
1, 204080, Tempo, 510638
1, 204104, Tempo, 506329
1, 204120, Tempo, 489796
1, 204120, Note_on_c, 0, 70, 0
1, 204120, Note_on_c, 0, 71, 32
1, 204132, Tempo, 487805
1, 204144, Tempo, 483871
1, 204160, Tempo, 481928
1, 204180, Note_on_c, 0, 71, 0
1, 204180, Note_on_c, 0, 70, 27
1, 204184, Tempo, 485830
1, 204200, Tempo, 489796
1, 204212, Tempo, 493827
1, 204224, Tempo, 497925
1, 204240, Tempo, 500000
1, 204240, Note_on_c, 0, 70, 0
1, 204240, Note_on_c, 0, 71, 32
1, 204240, Note_on_c, 0, 58, 26
1, 204240, Note_on_c, 0, 62, 31
1, 204264, Tempo, 504202
1, 204280, Tempo, 510638
1, 204292, Tempo, 512821
1, 204300, Note_on_c, 0, 71, 0
1, 204300, Note_on_c, 0, 70, 27
1, 204304, Tempo, 515021
1, 204332, Tempo, 510638
1, 204344, Tempo, 504202
1, 204360, Tempo, 502092
1, 204360, Note_on_c, 0, 70, 0
1, 204360, Note_on_c, 0, 71, 31
1, 204400, Tempo, 504202
1, 204412, Tempo, 506329
1, 204420, Note_on_c, 0, 71, 0
1, 204420, Note_on_c, 0, 70, 27
1, 204480, Tempo, 512601
1, 204480, Note_on_c, 0, 70, 0
1, 204480, Note_on_c, 0, 62, 0
1, 204480, Note_on_c, 0, 80, 0
1, 204480, Note_on_c, 0, 53, 0
1, 204480, Note_on_c, 0, 58, 0
1, 204480, Note_on_c, 0, 74, 50
1, 204480, Note_on_c, 0, 71, 30
1, 204480, Note_on_c, 0, 56, 35
1, 204540, Note_on_c, 0, 71, 0
1, 204540, Note_on_c, 0, 70, 26
1, 204600, Note_on_c, 0, 70, 0
1, 204600, Note_on_c, 0, 71, 30
1, 204660, Note_on_c, 0, 71, 0
1, 204660, Note_on_c, 0, 70, 26
1, 204720, Tempo, 519076
1, 204720, Note_on_c, 0, 70, 0
1, 204720, Note_on_c, 0, 71, 22
1, 204780, Note_on_c, 0, 71, 0
1, 204780, Note_on_c, 0, 70, 24
1, 204840, Note_on_c, 0, 70, 0
1, 204840, Note_on_c, 0, 71, 27
1, 204900, Note_on_c, 0, 71, 0
1, 204900, Note_on_c, 0, 70, 24
1, 204940, Tempo, 519076
1, 204960, Tempo, 532529
1, 204960, Note_on_c, 0, 70, 0
1, 204960, Note_on_c, 0, 71, 27
1, 204960, Note_on_c, 0, 62, 26
1, 204960, Note_on_c, 0, 65, 31
1, 204960, Note_on_c, 0, 58, 26
1, 204980, Tempo, 546647
1, 205000, Tempo, 564122
1, 205020, Tempo, 579990
1, 205020, Note_on_c, 0, 71, 0
1, 205020, Note_on_c, 0, 70, 24
1, 205040, Tempo, 596837
1, 205060, Tempo, 617729
1, 205080, Tempo, 636807
1, 205080, Note_on_c, 0, 70, 0
1, 205080, Note_on_c, 0, 71, 27
1, 205100, Tempo, 657174
1, 205120, Tempo, 682594
1, 205140, Tempo, 705965
1, 205140, Note_on_c, 0, 71, 0
1, 205140, Note_on_c, 0, 70, 23
1, 205160, Tempo, 730994
1, 205180, Tempo, 762583
1, 205200, Tempo, 519076
1, 205200, Note_on_c, 0, 70, 0
1, 205200, Note_on_c, 0, 58, 0
1, 205200, Note_on_c, 0, 62, 0
1, 205200, Note_on_c, 0, 74, 0
1, 205200, Note_on_c, 0, 56, 0
1, 205200, Note_on_c, 0, 65, 0
1, 205200, Note_on_c, 0, 75, 51
1, 205200, Note_on_c, 0, 72, 29
1, 205200, Note_on_c, 0, 55, 35
1, 205210, Control_c, 0, 64, 0
1, 205260, Note_on_c, 0, 72, 0
1, 205260, Note_on_c, 0, 70, 26
1, 205320, Note_on_c, 0, 70, 0
1, 205320, Note_on_c, 0, 72, 30
1, 205341, Control_c, 0, 64, 127
1, 205380, Note_on_c, 0, 72, 0
1, 205380, Note_on_c, 0, 70, 26
1, 205440, Note_on_c, 0, 70, 0
1, 205440, Note_on_c, 0, 72, 30
1, 205500, Note_on_c, 0, 72, 0
1, 205500, Note_on_c, 0, 70, 27
1, 205560, Note_on_c, 0, 70, 0
1, 205560, Note_on_c, 0, 72, 31
1, 205620, Note_on_c, 0, 72, 0
1, 205620, Note_on_c, 0, 70, 26
1, 205664, Tempo, 497925
1, 205680, Note_on_c, 0, 70, 0
1, 205680, Note_on_c, 0, 72, 32
1, 205680, Note_on_c, 0, 67, 30
1, 205680, Note_on_c, 0, 58, 25
1, 205692, Tempo, 495868
1, 205720, Tempo, 493827
1, 205732, Tempo, 491803
1, 205740, Note_on_c, 0, 72, 0
1, 205740, Note_on_c, 0, 70, 27
1, 205744, Tempo, 489796
1, 205760, Tempo, 487805
1, 205784, Tempo, 485830
1, 205800, Tempo, 491803
1, 205800, Note_on_c, 0, 70, 0
1, 205800, Note_on_c, 0, 72, 32
1, 205812, Tempo, 495868
1, 205824, Tempo, 502092
1, 205840, Tempo, 506329
1, 205860, Note_on_c, 0, 72, 0
1, 205860, Note_on_c, 0, 70, 28
1, 205864, Tempo, 502092
1, 205880, Tempo, 497925
1, 205892, Tempo, 495868
1, 205904, Tempo, 493827
1, 205918, Note_on_c, 0, 67, 0
1, 205918, Note_on_c, 0, 58, 0
1, 205920, Tempo, 489796
1, 205920, Note_on_c, 0, 70, 0
1, 205920, Note_on_c, 0, 75, 0
1, 205920, Note_on_c, 0, 79, 56
1, 205920, Note_on_c, 0, 72, 33
1, 205920, Note_on_c, 0, 67, 35
1, 205920, Note_on_c, 0, 63, 29
1, 205932, Tempo, 487805
1, 205960, Tempo, 491803
1, 205972, Tempo, 495868
1, 205980, Note_on_c, 0, 72, 0
1, 205980, Note_on_c, 0, 70, 29
1, 205984, Tempo, 500000
1, 206000, Tempo, 502092
1, 206024, Tempo, 506329
1, 206040, Tempo, 508475
1, 206040, Note_on_c, 0, 70, 0
1, 206040, Note_on_c, 0, 72, 34
1, 206052, Tempo, 510638
1, 206092, Tempo, 506329
1, 206100, Note_on_c, 0, 72, 0
1, 206100, Note_on_c, 0, 70, 30
1, 206104, Tempo, 504202
1, 206120, Tempo, 502092
1, 206132, Tempo, 500000
1, 206144, Tempo, 495868
1, 206160, Tempo, 493827
1, 206160, Note_on_c, 0, 70, 0
1, 206160, Note_on_c, 0, 72, 35
1, 206172, Tempo, 489796
1, 206184, Tempo, 485830
1, 206212, Tempo, 489796
1, 206220, Note_on_c, 0, 72, 0
1, 206220, Note_on_c, 0, 70, 28
1, 206224, Tempo, 491803
1, 206240, Tempo, 495868
1, 206252, Tempo, 497925
1, 206280, Tempo, 504202
1, 206280, Note_on_c, 0, 70, 0
1, 206280, Note_on_c, 0, 72, 35
1, 206292, Tempo, 506329
1, 206332, Tempo, 504202
1, 206340, Note_on_c, 0, 72, 0
1, 206340, Note_on_c, 0, 70, 29
1, 206344, Tempo, 500000
1, 206360, Tempo, 491803
1, 206372, Tempo, 489796
1, 206384, Tempo, 487805
1, 206395, Note_on_c, 0, 67, 0
1, 206395, Note_on_c, 0, 63, 0
1, 206400, Tempo, 485830
1, 206400, Note_on_c, 0, 70, 0
1, 206400, Note_on_c, 0, 72, 36
1, 206400, Note_on_c, 0, 67, 31
1, 206400, Note_on_c, 0, 58, 26
1, 206412, Tempo, 487805
1, 206424, Tempo, 493827
1, 206440, Tempo, 497925
1, 206452, Tempo, 500000
1, 206460, Note_on_c, 0, 72, 0
1, 206460, Note_on_c, 0, 70, 30
1, 206464, Tempo, 504202
1, 206480, Tempo, 506329
1, 206492, Tempo, 508475
1, 206520, Tempo, 506329
1, 206520, Note_on_c, 0, 70, 0
1, 206520, Note_on_c, 0, 72, 36
1, 206532, Tempo, 504202
1, 206544, Tempo, 500000
1, 206560, Tempo, 495868
1, 206580, Note_on_c, 0, 72, 0
1, 206580, Note_on_c, 0, 70, 31
1, 206638, Note_on_c, 0, 67, 0
1, 206638, Note_on_c, 0, 58, 0
1, 206640, Tempo, 510638
1, 206640, Note_on_c, 0, 70, 0
1, 206640, Note_on_c, 0, 79, 0
1, 206640, Note_on_c, 0, 72, 36
1, 206640, Note_on_c, 0, 82, 59
1, 206640, Note_on_c, 0, 63, 29
1, 206640, Note_on_c, 0, 67, 35
1, 206692, Tempo, 508475
1, 206700, Note_on_c, 0, 72, 0
1, 206700, Note_on_c, 0, 70, 32
1, 206720, Tempo, 506329
1, 206744, Tempo, 504202
1, 206760, Note_on_c, 0, 70, 0
1, 206760, Note_on_c, 0, 72, 37
1, 206784, Tempo, 502092
1, 206812, Tempo, 508475
1, 206820, Note_on_c, 0, 72, 0
1, 206820, Note_on_c, 0, 70, 32
1, 206824, Tempo, 510638
1, 206840, Tempo, 517241
1, 206864, Tempo, 515021
1, 206880, Tempo, 512821
1, 206880, Note_on_c, 0, 70, 0
1, 206880, Note_on_c, 0, 72, 37
1, 206892, Tempo, 510638
1, 206904, Tempo, 506329
1, 206932, Tempo, 504202
1, 206940, Note_on_c, 0, 72, 0
1, 206940, Note_on_c, 0, 70, 32
1, 206944, Tempo, 502092
1, 206972, Tempo, 504202
1, 206984, Tempo, 508475
1, 207000, Tempo, 510638
1, 207000, Note_on_c, 0, 70, 0
1, 207000, Note_on_c, 0, 72, 37
1, 207012, Tempo, 515021
1, 207040, Tempo, 517241
1, 207052, Tempo, 519481
1, 207060, Note_on_c, 0, 72, 0
1, 207060, Note_on_c, 0, 70, 32
1, 207080, Tempo, 517241
1, 207092, Tempo, 515021
1, 207104, Tempo, 512821
1, 207115, Note_on_c, 0, 63, 0
1, 207115, Note_on_c, 0, 67, 0
1, 207120, Tempo, 508475
1, 207120, Note_on_c, 0, 70, 0
1, 207120, Note_on_c, 0, 72, 37
1, 207120, Note_on_c, 0, 58, 26
1, 207120, Note_on_c, 0, 67, 31
1, 207132, Tempo, 504202
1, 207160, Tempo, 497925
1, 207172, Tempo, 495868
1, 207180, Note_on_c, 0, 72, 0
1, 207180, Note_on_c, 0, 70, 32
1, 207184, Tempo, 502092
1, 207212, Tempo, 508475
1, 207224, Tempo, 510638
1, 207240, Note_on_c, 0, 70, 0
1, 207240, Note_on_c, 0, 72, 37
1, 207252, Tempo, 515021
1, 207264, Tempo, 517241
1, 207300, Note_on_c, 0, 72, 0
1, 207300, Note_on_c, 0, 70, 31
1, 207304, Tempo, 515021
1, 207358, Note_on_c, 0, 58, 0
1, 207358, Note_on_c, 0, 67, 0
1, 207360, Tempo, 530973
1, 207360, Note_on_c, 0, 55, 0
1, 207360, Note_on_c, 0, 82, 0
1, 207360, Note_on_c, 0, 70, 0
1, 207360, Note_on_c, 0, 70, 55
1, 207360, Note_on_c, 0, 82, 61
1, 207360, Note_on_c, 0, 51, 35
1, 207370, Control_c, 0, 64, 0
1, 207499, Control_c, 0, 64, 127
1, 207840, Note_on_c, 0, 63, 27
1, 207840, Note_on_c, 0, 67, 32
1, 207960, Note_on_c, 0, 82, 0
1, 207960, Note_on_c, 0, 70, 0
1, 207960, Note_on_c, 0, 69, 43
1, 208020, Note_on_c, 0, 69, 0
1, 208020, Note_on_c, 0, 70, 46
1, 208080, Tempo, 545455
1, 208080, Note_on_c, 0, 70, 0
1, 208080, Note_on_c, 0, 63, 0
1, 208080, Note_on_c, 0, 51, 0
1, 208080, Note_on_c, 0, 67, 0
1, 208080, Note_on_c, 0, 71, 48
1, 208080, Note_on_c, 0, 55, 37
1, 208152, Note_on_c, 0, 71, 0
1, 208152, Note_on_c, 0, 72, 49
1, 208200, Tempo, 542986
1, 208220, Note_on_c, 0, 72, 0
1, 208220, Note_on_c, 0, 73, 50
1, 208288, Note_on_c, 0, 73, 0
1, 208288, Note_on_c, 0, 74, 50
1, 208300, Tempo, 540541
1, 208356, Note_on_c, 0, 74, 0
1, 208356, Note_on_c, 0, 75, 51
1, 208400, Tempo, 538117
1, 208424, Note_on_c, 0, 75, 0
1, 208424, Note_on_c, 0, 76, 52
1, 208492, Note_on_c, 0, 76, 0
1, 208492, Note_on_c, 0, 77, 53
1, 208500, Tempo, 535714
1, 208560, Note_on_c, 0, 77, 0
1, 208560, Note_on_c, 0, 78, 53
1, 208560, Note_on_c, 0, 63, 28
1, 208560, Note_on_c, 0, 67, 34
1, 208600, Tempo, 533333
1, 208620, Note_on_c, 0, 78, 0
1, 208620, Note_on_c, 0, 79, 54
1, 208660, Tempo, 535714
1, 208680, Note_on_c, 0, 79, 0
1, 208680, Note_on_c, 0, 80, 55
1, 208700, Tempo, 538117
1, 208740, Tempo, 540541
1, 208740, Note_on_c, 0, 80, 0
1, 208740, Note_on_c, 0, 81, 55
1, 208780, Tempo, 542986
1, 208800, Note_on_c, 0, 81, 0
1, 208800, Note_on_c, 0, 67, 0
1, 208800, Note_on_c, 0, 63, 0
1, 208800, Note_on_c, 0, 55, 0
1, 208800, Note_on_c, 0, 82, 56
1, 208800, Note_on_c, 0, 57, 39
1, 208820, Tempo, 545455
1, 208880, Tempo, 547945
1, 208896, Note_on_c, 0, 82, 0
1, 208896, Note_on_c, 0, 83, 57
1, 208920, Tempo, 550459
1, 208960, Tempo, 552995
1, 208992, Note_on_c, 0, 83, 0
1, 208992, Note_on_c, 0, 84, 58
1, 209000, Tempo, 555556
1, 209040, Tempo, 555556
1, 209060, Tempo, 558140
1, 209080, Tempo, 563380
1, 209088, Note_on_c, 0, 84, 0
1, 209088, Note_on_c, 0, 85, 59
1, 209100, Tempo, 568720
1, 209120, Tempo, 574163
1, 209140, Tempo, 579710
1, 209160, Tempo, 582524
1, 209180, Tempo, 588235
1, 209184, Note_on_c, 0, 85, 0
1, 209184, Note_on_c, 0, 86, 60
1, 209200, Tempo, 594059
1, 209220, Tempo, 600000
1, 209240, Tempo, 606061
1, 209280, Tempo, 923077
1, 209280, Note_on_c, 0, 86, 0
1, 209280, Note_on_c, 0, 87, 61
1, 209280, Note_on_c, 0, 63, 30
1, 209280, Note_on_c, 0, 66, 30
1, 209328, Note_on_c, 0, 87, 0
1, 209328, Note_on_c, 0, 87, 61
1, 209376, Note_on_c, 0, 87, 0
1, 209376, Note_on_c, 0, 87, 62
1, 209424, Note_on_c, 0, 87, 0
1, 209424, Note_on_c, 0, 87, 62
1, 209472, Note_on_c, 0, 87, 0
1, 209476, Note_on_c, 0, 87, 62
1, 209520, Tempo, 550459
1, 209520, Note_on_c, 0, 66, 0
1, 209520, Note_on_c, 0, 57, 0
1, 209520, Note_on_c, 0, 63, 0
1, 209520, Note_on_c, 0, 87, 62
1, 209520, Note_on_c, 0, 58, 31
1, 209520, Note_on_c, 0, 70, 37
1, 209524, Note_on_c, 0, 87, 0
1, 209526, Control_c, 0, 64, 0
1, 209569, Control_c, 0, 64, 127
1, 209580, Note_on_c, 0, 87, 0
1, 209640, Note_on_c, 0, 91, 57
1, 209700, Note_on_c, 0, 91, 0
1, 209760, Note_on_c, 0, 89, 57
1, 209820, Note_on_c, 0, 89, 0
1, 209880, Note_on_c, 0, 87, 57
1, 209940, Note_on_c, 0, 87, 0
1, 210000, Note_on_c, 0, 86, 56
1, 210000, Note_on_c, 0, 63, 29
1, 210000, Note_on_c, 0, 67, 35
1, 210060, Note_on_c, 0, 86, 0
1, 210120, Tempo, 621762
1, 210120, Note_on_c, 0, 84, 57
1, 210180, Note_on_c, 0, 84, 0
1, 210238, Note_on_c, 0, 67, 0
1, 210238, Note_on_c, 0, 63, 0
1, 210240, Tempo, 550459
1, 210240, Note_on_c, 0, 82, 62
1, 210240, Note_on_c, 0, 63, 29
1, 210240, Note_on_c, 0, 67, 35
1, 210360, Note_on_c, 0, 82, 0
1, 210360, Note_on_c, 0, 81, 54
1, 210480, Note_on_c, 0, 81, 0
1, 210480, Note_on_c, 0, 84, 57
1, 210600, Note_on_c, 0, 84, 0
1, 210600, Note_on_c, 0, 82, 56
1, 210715, Note_on_c, 0, 63, 0
1, 210715, Note_on_c, 0, 67, 0
1, 210720, Note_on_c, 0, 82, 0
1, 210720, Note_on_c, 0, 80, 55
1, 210720, Note_on_c, 0, 63, 29
1, 210720, Note_on_c, 0, 67, 35
1, 210840, Tempo, 612245
1, 210840, Note_on_c, 0, 80, 0
1, 210840, Note_on_c, 0, 79, 54
1, 210958, Note_on_c, 0, 63, 0
1, 210958, Note_on_c, 0, 67, 0
1, 210960, Tempo, 576923
1, 210960, Note_on_c, 0, 79, 0
1, 210960, Note_on_c, 0, 76, 50
1, 210960, Note_on_c, 0, 63, 33
1, 210960, Note_on_c, 0, 68, 39
1, 210970, Control_c, 0, 64, 0
1, 211011, Control_c, 0, 64, 127
1, 211020, Note_on_c, 0, 76, 0
1, 211020, Note_on_c, 0, 77, 50
1, 211080, Note_on_c, 0, 77, 0
1, 211080, Note_on_c, 0, 76, 50
1, 211140, Note_on_c, 0, 76, 0
1, 211140, Note_on_c, 0, 77, 50
1, 211200, Tempo, 609137
1, 211200, Note_on_c, 0, 77, 0
1, 211200, Note_on_c, 0, 76, 50
1, 211260, Note_on_c, 0, 76, 0
1, 211260, Note_on_c, 0, 77, 50
1, 211320, Note_on_c, 0, 77, 0
1, 211320, Note_on_c, 0, 76, 50
1, 211380, Note_on_c, 0, 76, 0
1, 211380, Note_on_c, 0, 77, 52
1, 211440, Tempo, 666667
1, 211440, Note_on_c, 0, 77, 0
1, 211440, Note_on_c, 0, 68, 0
1, 211440, Note_on_c, 0, 70, 0
1, 211440, Note_on_c, 0, 58, 0
1, 211440, Note_on_c, 0, 63, 0
1, 211440, Note_on_c, 0, 80, 56
1, 211440, Note_on_c, 0, 62, 29
1, 211440, Note_on_c, 0, 68, 35
1, 211450, Control_c, 0, 64, 0
1, 211466, Control_c, 0, 64, 127
1, 211620, Tempo, 863309
1, 211620, Note_on_c, 0, 80, 0
1, 211620, Note_on_c, 0, 79, 52
1, 211680, Tempo, 681818
1, 211680, Note_on_c, 0, 79, 0
1, 211680, Note_on_c, 0, 68, 0
1, 211680, Note_on_c, 0, 62, 0
1, 211680, Note_on_c, 0, 70, 53
1, 211680, Note_on_c, 0, 63, 32
1, 211680, Note_on_c, 0, 65, 32
1, 211680, Note_on_c, 0, 68, 38
1, 211681, Control_c, 0, 64, 0
1, 212155, Note_on_c, 0, 68, 0
1, 212155, Note_on_c, 0, 65, 0
1, 212155, Note_on_c, 0, 63, 0
1, 212160, Tempo, 655738
1, 212160, Note_on_c, 0, 72, 49
1, 212160, Note_on_c, 0, 63, 29
1, 212160, Note_on_c, 0, 65, 29
1, 212160, Note_on_c, 0, 68, 35
1, 212280, Note_on_c, 0, 72, 0
1, 212280, Note_on_c, 0, 74, 50
1, 212398, Note_on_c, 0, 65, 0
1, 212398, Note_on_c, 0, 68, 0
1, 212398, Note_on_c, 0, 63, 0
1, 212400, Note_on_c, 0, 74, 0
1, 212400, Note_on_c, 0, 75, 53
1, 212400, Note_on_c, 0, 63, 30
1, 212400, Note_on_c, 0, 67, 36
1, 212640, Note_on_c, 0, 75, 0
1, 212875, Note_on_c, 0, 67, 0
1, 212875, Note_on_c, 0, 63, 0
1, 212880, Note_on_c, 0, 63, 36
1, 212880, Note_on_c, 0, 67, 36
1, 213000, Note_on_c, 0, 67, 0
1, 213000, Note_on_c, 0, 63, 0
1, 213000, Note_on_c, 0, 51, 39
1, 213060, Note_on_c, 0, 51, 0
1, 213060, Note_on_c, 0, 69, 44
1, 213060, Note_on_c, 0, 54, 44
1, 213120, Tempo, 645161
1, 213120, Note_on_c, 0, 54, 0
1, 213120, Note_on_c, 0, 69, 0
1, 213120, Note_on_c, 0, 70, 0
1, 213120, Note_on_c, 0, 73, 55
1, 213120, Note_on_c, 0, 69, 53
1, 213120, Control_c, 0, 64, 127
1, 213120, Note_on_c, 0, 66, 50
1, 213595, Note_on_c, 0, 66, 0
1, 213600, Tempo, 659341
1, 213600, Note_on_c, 0, 73, 0
1, 213600, Note_on_c, 0, 72, 53
1, 213600, Note_on_c, 0, 63, 36
1, 213600, Note_on_c, 0, 66, 36
1, 213720, Note_on_c, 0, 66, 0
1, 213720, Note_on_c, 0, 63, 0
1, 213720, Note_on_c, 0, 49, 35
1, 213780, Note_on_c, 0, 49, 0
1, 213780, Note_on_c, 0, 53, 37
1, 213840, Tempo, 645161
1, 213840, Note_on_c, 0, 53, 0
1, 213840, Note_on_c, 0, 77, 56
1, 213840, Note_on_c, 0, 65, 45
1, 213845, Control_c, 0, 64, 0
1, 213891, Control_c, 0, 64, 127
1, 214315, Note_on_c, 0, 65, 0
1, 214320, Tempo, 662983
1, 214320, Note_on_c, 0, 61, 36
1, 214320, Note_on_c, 0, 65, 36
1, 214558, Note_on_c, 0, 61, 0
1, 214558, Note_on_c, 0, 65, 0
1, 214560, Tempo, 645161
1, 214560, Note_on_c, 0, 72, 0
1, 214560, Note_on_c, 0, 69, 0
1, 214560, Note_on_c, 0, 70, 53
1, 214560, Note_on_c, 0, 61, 39
1, 214560, Note_on_c, 0, 65, 39
1, 214570, Control_c, 0, 64, 0
1, 214594, Control_c, 0, 64, 127
1, 215035, Note_on_c, 0, 65, 0
1, 215035, Note_on_c, 0, 61, 0
1, 215040, Tempo, 662983
1, 215040, Note_on_c, 0, 61, 36
1, 215040, Note_on_c, 0, 65, 36
1, 215260, Tempo, 662983
1, 215278, Note_on_c, 0, 65, 0
1, 215278, Note_on_c, 0, 61, 0
1, 215280, Note_on_c, 0, 70, 0
1, 215280, Note_on_c, 0, 77, 0
1, 215280, Note_on_c, 0, 45, 46
1, 215280, Note_on_c, 0, 60, 39
1, 215280, Note_on_c, 0, 63, 39
1, 215280, Note_on_c, 0, 65, 39
1, 215288, Control_c, 0, 64, 0
1, 215314, Control_c, 0, 64, 127
1, 215340, Note_on_c, 0, 45, 0
1, 215340, Note_on_c, 0, 48, 47
1, 215360, Tempo, 659341
1, 215400, Note_on_c, 0, 48, 0
1, 215400, Note_on_c, 0, 51, 47
1, 215440, Tempo, 655738
1, 215460, Note_on_c, 0, 51, 0
1, 215460, Note_on_c, 0, 53, 48
1, 215520, Note_on_c, 0, 53, 0
1, 215520, Note_on_c, 0, 54, 49
1, 215540, Tempo, 652174
1, 215580, Note_on_c, 0, 54, 0
1, 215580, Note_on_c, 0, 57, 50
1, 215620, Tempo, 648649
1, 215640, Note_on_c, 0, 57, 0
1, 215640, Note_on_c, 0, 60, 50
1, 215698, Note_on_c, 0, 63, 0
1, 215700, Note_on_c, 0, 60, 0
1, 215700, Note_on_c, 0, 63, 51
1, 215720, Tempo, 645161
1, 215757, Note_on_c, 0, 63, 0
1, 215760, Note_on_c, 0, 60, 0
1, 215760, Note_on_c, 0, 65, 0
1, 215760, Note_on_c, 0, 65, 52
1, 215760, Note_on_c, 0, 60, 36
1, 215760, Note_on_c, 0, 63, 36
1, 215780, Tempo, 638298
1, 215808, Note_on_c, 0, 65, 0
1, 215808, Note_on_c, 0, 66, 52
1, 215840, Tempo, 641711
1, 215856, Note_on_c, 0, 66, 0
1, 215856, Note_on_c, 0, 69, 53
1, 215900, Tempo, 645161
1, 215904, Note_on_c, 0, 69, 0
1, 215904, Note_on_c, 0, 72, 54
1, 215952, Note_on_c, 0, 72, 0
1, 215952, Note_on_c, 0, 78, 54
1, 215960, Tempo, 648649
1, 216000, Tempo, 652174
1, 216000, Note_on_c, 0, 78, 0
1, 216000, Note_on_c, 0, 63, 0
1, 216000, Note_on_c, 0, 60, 0
1, 216000, Note_on_c, 0, 77, 57
1, 216000, Note_on_c, 0, 61, 39
1, 216000, Note_on_c, 0, 65, 39
1, 216007, Control_c, 0, 64, 0
1, 216123, Control_c, 0, 64, 127
1, 216475, Note_on_c, 0, 65, 0
1, 216475, Note_on_c, 0, 61, 0
1, 216480, Tempo, 685714
1, 216480, Note_on_c, 0, 77, 0
1, 216480, Note_on_c, 0, 76, 52
1, 216480, Note_on_c, 0, 61, 36
1, 216480, Note_on_c, 0, 65, 36
1, 216520, Note_on_c, 0, 76, 0
1, 216520, Note_on_c, 0, 77, 47
1, 216560, Note_on_c, 0, 77, 0
1, 216560, Note_on_c, 0, 76, 51
1, 216600, Note_on_c, 0, 76, 0
1, 216600, Note_on_c, 0, 77, 47
1, 216640, Note_on_c, 0, 77, 0
1, 216640, Note_on_c, 0, 76, 51
1, 216680, Note_on_c, 0, 76, 0
1, 216680, Note_on_c, 0, 77, 46
1, 216718, Note_on_c, 0, 65, 0
1, 216718, Note_on_c, 0, 61, 0
1, 216720, Tempo, 662983
1, 216720, Note_on_c, 0, 77, 0
1, 216720, Note_on_c, 0, 82, 53
1, 216720, Note_on_c, 0, 61, 36
1, 216720, Note_on_c, 0, 65, 36
1, 216730, Control_c, 0, 64, 0
1, 216771, Control_c, 0, 64, 127
1, 217195, Note_on_c, 0, 65, 0
1, 217195, Note_on_c, 0, 61, 0
1, 217200, Note_on_c, 0, 82, 0
1, 217200, Note_on_c, 0, 82, 53
1, 217200, Note_on_c, 0, 61, 39
1, 217200, Note_on_c, 0, 65, 39
1, 217320, Tempo, 722892
1, 217320, Note_on_c, 0, 82, 0
1, 217320, Note_on_c, 0, 83, 56
1, 217438, Note_on_c, 0, 65, 0
1, 217438, Note_on_c, 0, 61, 0
1, 217440, Tempo, 681818
1, 217440, Note_on_c, 0, 83, 0
1, 217440, Note_on_c, 0, 84, 55
1, 217440, Note_on_c, 0, 61, 40
1, 217440, Note_on_c, 0, 65, 40
1, 217440, Note_on_c, 0, 67, 40
1, 217450, Control_c, 0, 64, 0
1, 217479, Control_c, 0, 64, 127
1, 217500, Note_on_c, 0, 84, 0
1, 217500, Note_on_c, 0, 83, 55
1, 217540, Tempo, 677966
1, 217560, Note_on_c, 0, 83, 0
1, 217560, Note_on_c, 0, 84, 56
1, 217620, Tempo, 674157
1, 217620, Note_on_c, 0, 84, 0
1, 217620, Note_on_c, 0, 83, 57
1, 217680, Note_on_c, 0, 83, 0
1, 217680, Note_on_c, 0, 84, 58
1, 217720, Tempo, 670391
1, 217740, Note_on_c, 0, 84, 0
1, 217740, Note_on_c, 0, 83, 59
1, 217800, Tempo, 666667
1, 217800, Note_on_c, 0, 83, 0
1, 217800, Note_on_c, 0, 84, 60
1, 217860, Note_on_c, 0, 84, 0
1, 217860, Note_on_c, 0, 83, 60
1, 217880, Tempo, 662983
1, 217915, Note_on_c, 0, 61, 0
1, 217915, Note_on_c, 0, 67, 0
1, 217915, Note_on_c, 0, 65, 0
1, 217920, Tempo, 662983
1, 217920, Note_on_c, 0, 83, 0
1, 217920, Note_on_c, 0, 84, 62
1, 217920, Note_on_c, 0, 61, 45
1, 217920, Note_on_c, 0, 65, 45
1, 217920, Note_on_c, 0, 67, 45
1, 217940, Tempo, 666667
1, 217960, Tempo, 674157
1, 217980, Tempo, 677966
1, 217992, Note_on_c, 0, 84, 0
1, 217992, Note_on_c, 0, 83, 63
1, 218000, Tempo, 685714
1, 218040, Tempo, 774194
1, 218064, Note_on_c, 0, 83, 0
1, 218064, Note_on_c, 0, 82, 64
1, 218100, Tempo, 975610
1, 218112, Note_on_c, 0, 82, 0
1, 218112, Note_on_c, 0, 83, 66
1, 218158, Note_on_c, 0, 61, 0
1, 218158, Note_on_c, 0, 67, 0
1, 218158, Note_on_c, 0, 65, 0
1, 218160, Tempo, 652174
1, 218160, Note_on_c, 0, 83, 0
1, 218160, Note_on_c, 0, 84, 70
1, 218160, Note_on_c, 0, 60, 49
1, 218160, Note_on_c, 0, 64, 49
1, 218160, Note_on_c, 0, 67, 49
1, 218166, Control_c, 0, 64, 0
1, 218280, Control_c, 0, 64, 127
1, 218635, Note_on_c, 0, 67, 0
1, 218635, Note_on_c, 0, 64, 0
1, 218635, Note_on_c, 0, 60, 0
1, 218640, Tempo, 638298
1, 218640, Note_on_c, 0, 60, 39
1, 218640, Note_on_c, 0, 64, 39
1, 218640, Note_on_c, 0, 67, 39
1, 218878, Note_on_c, 0, 67, 0
1, 218878, Note_on_c, 0, 64, 0
1, 218878, Note_on_c, 0, 60, 0
1, 218880, Note_on_c, 0, 60, 42
1, 218880, Note_on_c, 0, 64, 42
1, 218880, Note_on_c, 0, 67, 42
1, 219000, Note_on_c, 0, 84, 0
1, 219000, Note_on_c, 0, 79, 64
1, 219120, Tempo, 618557
1, 219120, Note_on_c, 0, 79, 0
1, 219120, Note_on_c, 0, 76, 62
1, 219220, Tempo, 615385
1, 219240, Note_on_c, 0, 76, 0
1, 219240, Note_on_c, 0, 72, 61
1, 219320, Tempo, 612245
1, 219355, Note_on_c, 0, 60, 0
1, 219355, Note_on_c, 0, 67, 0
1, 219355, Note_on_c, 0, 64, 0
1, 219360, Note_on_c, 0, 72, 0
1, 219360, Note_on_c, 0, 67, 60
1, 219360, Note_on_c, 0, 60, 37
1, 219360, Note_on_c, 0, 64, 37
1, 219400, Tempo, 609137
1, 219478, Note_on_c, 0, 64, 0
1, 219480, Note_on_c, 0, 67, 0
1, 219480, Note_on_c, 0, 64, 59
1, 219500, Tempo, 606061
1, 219598, Note_on_c, 0, 60, 0
1, 219600, Tempo, 603015
1, 219600, Note_on_c, 0, 64, 0
1, 219600, Note_on_c, 0, 68, 58
1, 219600, Note_on_c, 0, 48, 42
1, 219600, Note_on_c, 0, 53, 42
1, 219605, Control_c, 0, 64, 0
1, 219651, Control_c, 0, 64, 127
1, 219680, Tempo, 600000
1, 219720, Note_on_c, 0, 68, 0
1, 219720, Note_on_c, 0, 65, 56
1, 219780, Tempo, 597015
1, 219840, Note_on_c, 0, 65, 0
1, 219840, Note_on_c, 0, 53, 0
1, 219840, Note_on_c, 0, 48, 0
1, 219840, Note_on_c, 0, 61, 56
1, 219860, Tempo, 594059
1, 219960, Note_on_c, 0, 61, 0
1, 219960, Note_on_c, 0, 59, 55
1, 220080, Note_on_c, 0, 59, 0
1, 220080, Note_on_c, 0, 56, 54
1, 220200, Note_on_c, 0, 56, 0
1, 220200, Note_on_c, 0, 53, 52
1, 220200, Note_on_c, 0, 47, 41
1, 220320, Key_signature, -1, "major"
1, 220320, Note_on_c, 0, 47, 0
1, 220320, Note_on_c, 0, 53, 0
1, 220320, Note_on_c, 0, 52, 55
1, 220320, Note_on_c, 0, 48, 46
1, 220321, Control_c, 0, 64, 0
1, 220440, Note_on_c, 0, 52, 0
1, 220440, Note_on_c, 0, 55, 52
1, 220560, Note_on_c, 0, 55, 0
1, 220560, Note_on_c, 0, 48, 0
1, 220560, Note_on_c, 0, 60, 52
1, 220560, Note_on_c, 0, 36, 41
1, 220589, Control_c, 0, 64, 127
1, 220680, Note_on_c, 0, 36, 0
1, 220680, Note_on_c, 0, 60, 0
1, 220680, Note_on_c, 0, 64, 52
1, 220800, Tempo, 568720
1, 220800, Note_on_c, 0, 64, 0
1, 220800, Note_on_c, 0, 54, 49
1, 220800, Note_on_c, 0, 44, 41
1, 220920, Tempo, 582524
1, 220920, Note_on_c, 0, 54, 0
1, 220920, Note_on_c, 0, 63, 49
1, 221040, Note_on_c, 0, 63, 0
1, 221040, Note_on_c, 0, 44, 0
1, 221040, Note_on_c, 0, 53, 55
1, 221040, Note_on_c, 0, 49, 47
1, 221046, Control_c, 0, 64, 0
1, 221160, Note_on_c, 0, 53, 0
1, 221160, Note_on_c, 0, 56, 52
1, 221280, Tempo, 568720
1, 221280, Note_on_c, 0, 56, 0
1, 221280, Note_on_c, 0, 49, 0
1, 221280, Note_on_c, 0, 61, 52
1, 221280, Note_on_c, 0, 37, 41
1, 221309, Control_c, 0, 64, 127
1, 221400, Note_on_c, 0, 37, 0
1, 221400, Note_on_c, 0, 61, 0
1, 221400, Note_on_c, 0, 65, 52
1, 221520, Tempo, 547945
1, 221520, Note_on_c, 0, 65, 0
1, 221520, Note_on_c, 0, 56, 49
1, 221520, Note_on_c, 0, 53, 41
1, 221640, Tempo, 563380
1, 221640, Note_on_c, 0, 56, 0
1, 221640, Note_on_c, 0, 68, 49
1, 221760, Note_on_c, 0, 68, 0
1, 221760, Note_on_c, 0, 53, 0
1, 221760, Note_on_c, 0, 59, 57
1, 221760, Note_on_c, 0, 55, 47
1, 221769, Control_c, 0, 64, 0
1, 221880, Note_on_c, 0, 59, 0
1, 221880, Note_on_c, 0, 62, 53
1, 222000, Tempo, 547945
1, 222000, Note_on_c, 0, 62, 0
1, 222000, Note_on_c, 0, 55, 0
1, 222000, Note_on_c, 0, 65, 53
1, 222000, Note_on_c, 0, 43, 41
1, 222046, Control_c, 0, 64, 127
1, 222120, Note_on_c, 0, 43, 0
1, 222120, Note_on_c, 0, 65, 0
1, 222120, Note_on_c, 0, 71, 53
1, 222240, Tempo, 526316
1, 222240, Note_on_c, 0, 71, 0
1, 222240, Note_on_c, 0, 65, 48
1, 222240, Note_on_c, 0, 59, 41
1, 222360, Tempo, 540541
1, 222360, Note_on_c, 0, 65, 0
1, 222360, Note_on_c, 0, 77, 49
1, 222480, Note_on_c, 0, 77, 0
1, 222480, Note_on_c, 0, 59, 0
1, 222480, Note_on_c, 0, 64, 58
1, 222480, Note_on_c, 0, 60, 47
1, 222489, Control_c, 0, 64, 0
1, 222600, Note_on_c, 0, 64, 0
1, 222600, Note_on_c, 0, 67, 53
1, 222720, Tempo, 526316
1, 222720, Note_on_c, 0, 67, 0
1, 222720, Note_on_c, 0, 60, 0
1, 222720, Note_on_c, 0, 72, 53
1, 222720, Note_on_c, 0, 48, 42
1, 222749, Control_c, 0, 64, 127
1, 222840, Note_on_c, 0, 48, 0
1, 222840, Note_on_c, 0, 72, 0
1, 222840, Note_on_c, 0, 76, 54
1, 222960, Tempo, 512821
1, 222960, Note_on_c, 0, 76, 0
1, 222960, Note_on_c, 0, 66, 52
1, 222960, Note_on_c, 0, 56, 43
1, 223080, Tempo, 524017
1, 223080, Note_on_c, 0, 66, 0
1, 223080, Note_on_c, 0, 75, 52
1, 223200, Note_on_c, 0, 75, 0
1, 223200, Note_on_c, 0, 56, 0
1, 223200, Note_on_c, 0, 65, 60
1, 223200, Note_on_c, 0, 61, 50
1, 223209, Control_c, 0, 64, 0
1, 223320, Note_on_c, 0, 65, 0
1, 223320, Note_on_c, 0, 68, 57
1, 223440, Tempo, 512821
1, 223440, Note_on_c, 0, 68, 0
1, 223440, Note_on_c, 0, 61, 0
1, 223440, Note_on_c, 0, 73, 57
1, 223440, Note_on_c, 0, 49, 44
1, 223446, Control_c, 0, 64, 127
1, 223560, Note_on_c, 0, 49, 0
1, 223560, Note_on_c, 0, 73, 0
1, 223560, Note_on_c, 0, 77, 58
1, 223680, Tempo, 493827
1, 223680, Note_on_c, 0, 77, 0
1, 223680, Note_on_c, 0, 68, 55
1, 223680, Note_on_c, 0, 65, 46
1, 223800, Tempo, 504202
1, 223800, Note_on_c, 0, 68, 0
1, 223800, Note_on_c, 0, 80, 55
1, 223920, Note_on_c, 0, 80, 0
1, 223920, Note_on_c, 0, 65, 0
1, 223920, Note_on_c, 0, 71, 67
1, 223920, Note_on_c, 0, 67, 54
1, 223930, Control_c, 0, 64, 0
1, 224040, Note_on_c, 0, 71, 0
1, 224040, Note_on_c, 0, 74, 60
1, 224160, Tempo, 485830
1, 224160, Note_on_c, 0, 74, 0
1, 224160, Note_on_c, 0, 67, 0
1, 224160, Note_on_c, 0, 77, 60
1, 224160, Note_on_c, 0, 55, 48
1, 224189, Control_c, 0, 64, 127
1, 224280, Note_on_c, 0, 55, 0
1, 224280, Note_on_c, 0, 77, 0
1, 224280, Note_on_c, 0, 83, 62
1, 224400, Tempo, 466926
1, 224400, Note_on_c, 0, 83, 0
1, 224400, Note_on_c, 0, 77, 58
1, 224400, Note_on_c, 0, 71, 49
1, 224520, Tempo, 476190
1, 224520, Note_on_c, 0, 77, 0
1, 224520, Note_on_c, 0, 89, 58
1, 224640, Note_on_c, 0, 89, 0
1, 224640, Note_on_c, 0, 71, 0
1, 224640, Note_on_c, 0, 76, 67
1, 224640, Note_on_c, 0, 72, 56
1, 224643, Control_c, 0, 64, 0
1, 224760, Note_on_c, 0, 76, 0
1, 224760, Note_on_c, 0, 79, 64
1, 224880, Tempo, 463320
1, 224880, Note_on_c, 0, 79, 0
1, 224880, Note_on_c, 0, 72, 0
1, 224880, Note_on_c, 0, 84, 65
1, 224880, Note_on_c, 0, 60, 51
1, 224931, Control_c, 0, 64, 127
1, 225000, Note_on_c, 0, 60, 0
1, 225000, Note_on_c, 0, 84, 0
1, 225000, Note_on_c, 0, 88, 66
1, 225120, Tempo, 449438
1, 225120, Note_on_c, 0, 88, 0
1, 225120, Note_on_c, 0, 78, 63
1, 225120, Note_on_c, 0, 68, 52
1, 225220, Tempo, 447761
1, 225240, Note_on_c, 0, 78, 0
1, 225240, Note_on_c, 0, 87, 63
1, 225300, Tempo, 446097
1, 225360, Note_on_c, 0, 87, 0
1, 225360, Note_on_c, 0, 68, 0
1, 225360, Note_on_c, 0, 77, 71
1, 225360, Note_on_c, 0, 73, 60
1, 225370, Control_c, 0, 64, 0
1, 225400, Tempo, 444444
1, 225480, Tempo, 442804
1, 225480, Note_on_c, 0, 77, 0
1, 225480, Note_on_c, 0, 80, 68
1, 225560, Tempo, 441176
1, 225600, Note_on_c, 0, 80, 0
1, 225600, Note_on_c, 0, 73, 0
1, 225600, Note_on_c, 0, 85, 70
1, 225600, Note_on_c, 0, 61, 55
1, 225646, Control_c, 0, 64, 127
1, 225660, Tempo, 439560
1, 225720, Note_on_c, 0, 61, 0
1, 225720, Note_on_c, 0, 85, 0
1, 225720, Note_on_c, 0, 89, 70
1, 225740, Tempo, 437956
1, 225820, Tempo, 436364
1, 225840, Note_on_c, 0, 89, 0
1, 225840, Note_on_c, 0, 80, 66
1, 225840, Note_on_c, 0, 77, 56
1, 225880, Tempo, 434783
1, 225940, Tempo, 433213
1, 225960, Note_on_c, 0, 80, 0
1, 225960, Note_on_c, 0, 92, 66
1, 226000, Tempo, 431655
1, 226060, Tempo, 430108
1, 226080, Note_on_c, 0, 92, 0
1, 226080, Note_on_c, 0, 77, 0
1, 226080, Note_on_c, 0, 83, 77
1, 226080, Note_on_c, 0, 79, 64
1, 226090, Control_c, 0, 64, 0
1, 226120, Tempo, 428571
1, 226180, Tempo, 427046
1, 226200, Note_on_c, 0, 83, 0
1, 226200, Note_on_c, 0, 86, 73
1, 226220, Tempo, 425532
1, 226280, Tempo, 424028
1, 226320, Note_on_c, 0, 86, 0
1, 226320, Note_on_c, 0, 79, 0
1, 226320, Note_on_c, 0, 89, 74
1, 226320, Note_on_c, 0, 67, 57
1, 226340, Tempo, 422535
1, 226366, Control_c, 0, 64, 127
1, 226400, Tempo, 421053
1, 226440, Note_on_c, 0, 67, 0
1, 226440, Note_on_c, 0, 89, 0
1, 226440, Note_on_c, 0, 95, 74
1, 226460, Tempo, 419580
1, 226520, Tempo, 418118
1, 226560, Tempo, 416667
1, 226560, Note_on_c, 0, 95, 0
1, 226560, Note_on_c, 0, 89, 68
1, 226560, Note_on_c, 0, 83, 58
1, 226680, Note_on_c, 0, 89, 0
1, 226680, Note_on_c, 0, 101, 69
1, 226800, Tempo, 405899
1, 226800, Note_on_c, 0, 101, 0
1, 226800, Note_on_c, 0, 83, 0
1, 226800, Note_on_c, 0, 88, 71
1, 226800, Note_on_c, 0, 84, 61
1, 226806, Control_c, 0, 64, 0
1, 226920, Tempo, 397404
1, 226920, Note_on_c, 0, 84, 0
1, 226920, Note_on_c, 0, 88, 0
1, 226920, Note_on_c, 0, 100, 72
1, 227040, Note_on_c, 0, 100, 0
1, 227040, Note_on_c, 0, 95, 79
1, 227160, Note_on_c, 0, 95, 0
1, 227160, Note_on_c, 0, 100, 73
1, 227280, Note_on_c, 0, 100, 0
1, 227280, Note_on_c, 0, 96, 70
1, 227400, Note_on_c, 0, 96, 0
1, 227400, Note_on_c, 0, 91, 70
1, 227430, Note_on_c, 0, 60, 63
1, 227460, Note_on_c, 0, 67, 66
1, 227490, Note_on_c, 0, 70, 68
1, 227520, Tempo, 405899
1, 227520, Note_on_c, 0, 91, 0
1, 227520, Note_on_c, 0, 88, 73
1, 227520, Note_on_c, 0, 76, 71
1, 227548, Control_c, 0, 64, 127
1, 227640, Tempo, 397404
1, 227640, Note_on_c, 0, 88, 0
1, 227640, Note_on_c, 0, 96, 73
1, 227760, Note_on_c, 0, 96, 0
1, 227760, Note_on_c, 0, 90, 79
1, 227880, Note_on_c, 0, 90, 0
1, 227880, Note_on_c, 0, 96, 73
1, 228000, Note_on_c, 0, 96, 0
1, 228000, Note_on_c, 0, 76, 0
1, 228000, Note_on_c, 0, 70, 0
1, 228000, Note_on_c, 0, 67, 0
1, 228000, Note_on_c, 0, 60, 0
1, 228000, Note_on_c, 0, 91, 73
1, 228120, Note_on_c, 0, 91, 0
1, 228120, Note_on_c, 0, 88, 71
1, 228240, Tempo, 405899
1, 228240, Note_on_c, 0, 88, 0
1, 228240, Note_on_c, 0, 84, 73
1, 228360, Tempo, 397404
1, 228360, Note_on_c, 0, 84, 0
1, 228360, Note_on_c, 0, 91, 73
1, 228480, Note_on_c, 0, 91, 0
1, 228480, Note_on_c, 0, 87, 78
1, 228600, Note_on_c, 0, 87, 0
1, 228600, Note_on_c, 0, 91, 73
1, 228720, Note_on_c, 0, 91, 0
1, 228720, Note_on_c, 0, 88, 71
1, 228840, Note_on_c, 0, 88, 0
1, 228840, Note_on_c, 0, 84, 72
1, 228960, Tempo, 405899
1, 228960, Note_on_c, 0, 84, 0
1, 228960, Note_on_c, 0, 79, 73
1, 229080, Tempo, 397404
1, 229080, Note_on_c, 0, 79, 0
1, 229080, Note_on_c, 0, 88, 73
1, 229200, Note_on_c, 0, 88, 0
1, 229200, Note_on_c, 0, 83, 77
1, 229320, Note_on_c, 0, 83, 0
1, 229320, Note_on_c, 0, 88, 73
1, 229440, Note_on_c, 0, 88, 0
1, 229440, Note_on_c, 0, 84, 70
1, 229560, Note_on_c, 0, 84, 0
1, 229560, Note_on_c, 0, 79, 70
1, 229680, Tempo, 405899
1, 229680, Note_on_c, 0, 79, 0
1, 229680, Note_on_c, 0, 76, 73
1, 229800, Tempo, 397404
1, 229800, Note_on_c, 0, 76, 0
1, 229800, Note_on_c, 0, 84, 73
1, 229920, Note_on_c, 0, 84, 0
1, 229920, Note_on_c, 0, 78, 78
1, 230040, Note_on_c, 0, 78, 0
1, 230040, Note_on_c, 0, 84, 73
1, 230160, Note_on_c, 0, 84, 0
1, 230160, Note_on_c, 0, 79, 71
1, 230280, Note_on_c, 0, 79, 0
1, 230280, Note_on_c, 0, 76, 71
1, 230400, Tempo, 405899
1, 230400, Note_on_c, 0, 76, 0
1, 230400, Note_on_c, 0, 72, 71
1, 230520, Tempo, 397404
1, 230520, Note_on_c, 0, 72, 0
1, 230520, Note_on_c, 0, 79, 70
1, 230640, Note_on_c, 0, 79, 0
1, 230640, Note_on_c, 0, 75, 73
1, 230760, Note_on_c, 0, 75, 0
1, 230760, Note_on_c, 0, 79, 68
1, 230880, Note_on_c, 0, 79, 0
1, 230880, Note_on_c, 0, 76, 65
1, 231000, Note_on_c, 0, 76, 0
1, 231000, Note_on_c, 0, 72, 65
1, 231091, Tempo, 419580
1, 231120, Time_signature, 16, 3, 12, 8
1, 231120, Tempo, 425532
1, 231120, Note_on_c, 0, 72, 0
1, 231120, Note_on_c, 0, 67, 66
1, 231220, Tempo, 401338
1, 231240, Tempo, 402685
1, 231240, Note_on_c, 0, 67, 0
1, 231240, Note_on_c, 0, 76, 61
1, 231260, Tempo, 404040
1, 231280, Tempo, 405405
1, 231300, Tempo, 406780
1, 231320, Tempo, 408163
1, 231340, Tempo, 409556
1, 231360, Tempo, 410959
1, 231360, Note_on_c, 0, 76, 0
1, 231360, Note_on_c, 0, 71, 67
1, 231400, Tempo, 413793
1, 231440, Tempo, 415225
1, 231480, Tempo, 416667
1, 231480, Note_on_c, 0, 71, 0
1, 231480, Note_on_c, 0, 76, 59
1, 231520, Tempo, 418118
1, 231560, Tempo, 419580
1, 231580, Tempo, 421053
1, 231600, Note_on_c, 0, 76, 0
1, 231600, Note_on_c, 0, 72, 59
1, 231620, Tempo, 422535
1, 231660, Tempo, 424028
1, 231700, Tempo, 425532
1, 231720, Note_on_c, 0, 72, 0
1, 231720, Note_on_c, 0, 70, 57
1, 231740, Tempo, 427046
1, 231760, Tempo, 428571
1, 231800, Tempo, 430108
1, 231840, Tempo, 431655
1, 231840, Note_on_c, 0, 70, 0
1, 231840, Note_on_c, 0, 67, 56
1, 231880, Tempo, 433213
1, 231920, Tempo, 434783
1, 231940, Tempo, 436364
1, 231960, Note_on_c, 0, 67, 0
1, 231960, Note_on_c, 0, 64, 55
1, 231980, Tempo, 437956
1, 232020, Tempo, 439560
1, 232060, Tempo, 441176
1, 232080, Note_on_c, 0, 64, 0
1, 232080, Note_on_c, 0, 60, 55
1, 232080, Control_c, 0, 64, 0
1, 232100, Tempo, 442804
1, 232120, Tempo, 444444
1, 232160, Tempo, 446097
1, 232200, Tempo, 447761
1, 232200, Note_on_c, 0, 60, 0
1, 232200, Note_on_c, 0, 58, 54
1, 232240, Tempo, 449438
1, 232280, Tempo, 451128
1, 232300, Tempo, 452830
1, 232320, Note_on_c, 0, 58, 0
1, 232320, Note_on_c, 0, 55, 53
1, 232340, Tempo, 454545
1, 232380, Tempo, 456274
1, 232420, Tempo, 458015
1, 232440, Note_on_c, 0, 55, 0
1, 232440, Note_on_c, 0, 52, 52
1, 232460, Tempo, 459770
1, 232480, Tempo, 461538
1, 232500, Tempo, 461538
1, 232560, Tempo, 483871
1, 232560, Note_on_c, 0, 52, 0
1, 232560, Note_on_c, 0, 36, 58
1, 232571, Control_c, 0, 64, 127
1, 232680, Tempo, 470588
1, 232680, Note_on_c, 0, 36, 0
1, 232680, Note_on_c, 0, 46, 54
1, 232800, Note_on_c, 0, 46, 0
1, 232800, Note_on_c, 0, 48, 55
1, 232920, Note_on_c, 0, 48, 0
1, 232920, Note_on_c, 0, 52, 55
1, 233040, Tempo, 483871
1, 233040, Note_on_c, 0, 52, 0
1, 233040, Note_on_c, 0, 57, 58
1, 233160, Tempo, 468750
1, 233160, Note_on_c, 0, 57, 0
1, 233160, Note_on_c, 0, 58, 55
1, 233280, Note_on_c, 0, 60, 55
1, 233400, Note_on_c, 0, 60, 0
1, 233400, Note_on_c, 0, 58, 0
1, 233400, Note_on_c, 0, 64, 55
1, 233520, Tempo, 483871
1, 233520, Note_on_c, 0, 64, 0
1, 233520, Note_on_c, 0, 69, 61
1, 233640, Tempo, 468750
1, 233640, Note_on_c, 0, 69, 0
1, 233640, Note_on_c, 0, 70, 56
1, 233760, Note_on_c, 0, 72, 56
1, 233880, Note_on_c, 0, 72, 0
1, 233880, Note_on_c, 0, 70, 0
1, 233880, Note_on_c, 0, 76, 56
1, 234000, Note_on_c, 0, 76, 0
1, 234000, Note_on_c, 0, 81, 64
1, 234120, Note_on_c, 0, 81, 0
1, 234120, Note_on_c, 0, 82, 55
1, 234240, Tempo, 478088
1, 234240, Note_on_c, 0, 84, 55
1, 234360, Tempo, 468750
1, 234360, Note_on_c, 0, 84, 0
1, 234360, Note_on_c, 0, 82, 0
1, 234360, Note_on_c, 0, 88, 56
1, 234480, Note_on_c, 0, 88, 0
1, 234480, Note_on_c, 0, 93, 64
1, 234481, Control_c, 0, 64, 0
1, 234576, Note_on_c, 0, 93, 0
1, 234576, Note_on_c, 0, 91, 58
1, 234672, Note_on_c, 0, 91, 0
1, 234672, Note_on_c, 0, 90, 59
1, 234720, Tempo, 493827
1, 234768, Note_on_c, 0, 90, 0
1, 234768, Note_on_c, 0, 91, 59
1, 234864, Note_on_c, 0, 91, 0
1, 234864, Note_on_c, 0, 93, 65
1, 234948, Tempo, 533333
1, 234960, Tempo, 638298
1, 234960, Note_on_c, 0, 93, 0
1, 234960, Note_on_c, 0, 91, 44
1, 234960, Note_on_c, 0, 48, 50
1, 234968, Tempo, 618557
1, 234980, Tempo, 597015
1, 234988, Tempo, 576923
1, 234991, Control_c, 0, 64, 127
1, 235000, Tempo, 560748
1, 235008, Tempo, 542986
1, 235020, Tempo, 526316
1, 235020, Note_on_c, 0, 91, 0
1, 235020, Note_on_c, 0, 93, 38
1, 235028, Tempo, 528634
1, 235068, Tempo, 526316
1, 235080, Note_on_c, 0, 93, 0
1, 235080, Note_on_c, 0, 91, 42
1, 235092, Tempo, 524017
1, 235132, Tempo, 521739
1, 235140, Note_on_c, 0, 91, 0
1, 235140, Note_on_c, 0, 93, 37
1, 235172, Tempo, 519481
1, 235200, Tempo, 519481
1, 235200, Note_on_c, 0, 93, 0
1, 235200, Note_on_c, 0, 48, 0
1, 235200, Note_on_c, 0, 91, 43
1, 235260, Note_on_c, 0, 91, 0
1, 235260, Note_on_c, 0, 93, 37
1, 235280, Tempo, 517241
1, 235320, Note_on_c, 0, 93, 0
1, 235320, Note_on_c, 0, 91, 43
1, 235340, Tempo, 515021
1, 235380, Note_on_c, 0, 91, 0
1, 235380, Note_on_c, 0, 93, 38
1, 235420, Tempo, 512821
1, 235440, Note_on_c, 0, 93, 0
1, 235440, Note_on_c, 0, 91, 44
1, 235440, Note_on_c, 0, 58, 45
1, 235480, Tempo, 510638
1, 235500, Note_on_c, 0, 91, 0
1, 235500, Note_on_c, 0, 93, 40
1, 235560, Tempo, 508475
1, 235560, Note_on_c, 0, 93, 0
1, 235560, Note_on_c, 0, 91, 44
1, 235620, Tempo, 506329
1, 235620, Note_on_c, 0, 91, 0
1, 235620, Note_on_c, 0, 93, 40
1, 235660, Tempo, 504202
1, 235672, Tempo, 487805
1, 235680, Tempo, 497925
1, 235680, Note_on_c, 0, 93, 0
1, 235680, Note_on_c, 0, 58, 0
1, 235680, Note_on_c, 0, 91, 45
1, 235688, Tempo, 495868
1, 235700, Tempo, 491803
1, 235708, Tempo, 487805
1, 235720, Tempo, 485830
1, 235728, Tempo, 483871
1, 235740, Note_on_c, 0, 91, 0
1, 235740, Note_on_c, 0, 93, 41
1, 235768, Tempo, 489796
1, 235780, Tempo, 491803
1, 235788, Tempo, 493827
1, 235800, Note_on_c, 0, 93, 0
1, 235800, Note_on_c, 0, 91, 46
1, 235820, Tempo, 491803
1, 235828, Tempo, 489796
1, 235840, Tempo, 483871
1, 235848, Tempo, 480000
1, 235860, Tempo, 478088
1, 235860, Note_on_c, 0, 91, 0
1, 235860, Note_on_c, 0, 93, 43
1, 235880, Tempo, 483871
1, 235888, Tempo, 485830
1, 235900, Tempo, 483871
1, 235908, Tempo, 480000
1, 235920, Note_on_c, 0, 93, 0
1, 235920, Note_on_c, 0, 91, 48
1, 235920, Note_on_c, 0, 64, 47
1, 235924, Tempo, 491803
1, 235932, Tempo, 489796
1, 235940, Tempo, 487805
1, 235956, Tempo, 485830
1, 235972, Tempo, 483871
1, 235980, Note_on_c, 0, 91, 0
1, 235980, Note_on_c, 0, 93, 43
1, 235988, Tempo, 481928
1, 235996, Tempo, 480000
1, 236004, Tempo, 483871
1, 236012, Tempo, 485830
1, 236028, Tempo, 481928
1, 236036, Tempo, 478088
1, 236040, Note_on_c, 0, 93, 0
1, 236040, Note_on_c, 0, 91, 48
1, 236044, Tempo, 476190
1, 236052, Tempo, 474308
1, 236060, Tempo, 476190
1, 236068, Tempo, 483871
1, 236076, Tempo, 485830
1, 236084, Tempo, 487805
1, 236100, Tempo, 485830
1, 236100, Note_on_c, 0, 91, 0
1, 236100, Note_on_c, 0, 93, 44
1, 236108, Tempo, 483871
1, 236116, Tempo, 481928
1, 236140, Tempo, 481928
1, 236152, Tempo, 483871
1, 236160, Note_on_c, 0, 93, 0
1, 236160, Note_on_c, 0, 64, 0
1, 236160, Note_on_c, 0, 91, 50
1, 236164, Tempo, 495868
1, 236204, Tempo, 493827
1, 236220, Tempo, 491803
1, 236220, Note_on_c, 0, 91, 0
1, 236220, Note_on_c, 0, 93, 44
1, 236232, Tempo, 500000
1, 236244, Tempo, 508475
1, 236260, Tempo, 515021
1, 236272, Tempo, 512821
1, 236280, Note_on_c, 0, 93, 0
1, 236280, Note_on_c, 0, 91, 51
1, 236300, Tempo, 506329
1, 236312, Tempo, 502092
1, 236324, Tempo, 497925
1, 236340, Note_on_c, 0, 91, 0
1, 236340, Note_on_c, 0, 93, 44
1, 236352, Tempo, 495868
1, 236380, Tempo, 495868
1, 236400, Note_on_c, 0, 93, 0
1, 236400, Note_on_c, 0, 91, 51
1, 236400, Note_on_c, 0, 70, 51
1, 236460, Tempo, 497925
1, 236460, Note_on_c, 0, 91, 0
1, 236460, Note_on_c, 0, 93, 45
1, 236520, Note_on_c, 0, 93, 0
1, 236520, Note_on_c, 0, 91, 50
1, 236524, Tempo, 500000
1, 236580, Note_on_c, 0, 91, 0
1, 236580, Note_on_c, 0, 93, 45
1, 236604, Tempo, 502092
1, 236640, Note_on_c, 0, 93, 0
1, 236640, Note_on_c, 0, 70, 0
1, 236640, Note_on_c, 0, 91, 50
1, 236672, Tempo, 504202
1, 236700, Note_on_c, 0, 91, 0
1, 236700, Note_on_c, 0, 93, 43
1, 236752, Tempo, 506329
1, 236760, Note_on_c, 0, 93, 0
1, 236760, Note_on_c, 0, 91, 49
1, 236820, Tempo, 508475
1, 236820, Note_on_c, 0, 91, 0
1, 236820, Note_on_c, 0, 93, 43
1, 236868, Tempo, 510638
1, 236880, Note_on_c, 0, 93, 0
1, 236880, Note_on_c, 0, 91, 48
1, 236880, Note_on_c, 0, 76, 46
1, 236888, Tempo, 512821
1, 236908, Tempo, 515021
1, 236920, Tempo, 517241
1, 236940, Tempo, 519481
1, 236940, Note_on_c, 0, 91, 0
1, 236940, Note_on_c, 0, 93, 43
1, 236948, Tempo, 521739
1, 236968, Tempo, 524017
1, 236980, Tempo, 526316
1, 237000, Tempo, 528634
1, 237000, Note_on_c, 0, 93, 0
1, 237000, Note_on_c, 0, 91, 47
1, 237008, Tempo, 530973
1, 237028, Tempo, 533333
1, 237040, Tempo, 535714
1, 237060, Tempo, 538117
1, 237060, Note_on_c, 0, 91, 0
1, 237060, Note_on_c, 0, 93, 38
1, 237068, Tempo, 540541
1, 237088, Tempo, 542986
1, 237100, Tempo, 545455
1, 237120, Tempo, 547945
1, 237120, Note_on_c, 0, 93, 0
1, 237120, Note_on_c, 0, 76, 0
1, 237120, Note_on_c, 0, 91, 44
1, 237140, Tempo, 550459
1, 237148, Tempo, 552995
1, 237168, Tempo, 555556
1, 237180, Tempo, 558140
1, 237180, Note_on_c, 0, 91, 0
1, 237180, Note_on_c, 0, 93, 36
1, 237200, Tempo, 560748
1, 237208, Tempo, 563380
1, 237228, Tempo, 566038
1, 237240, Tempo, 568720
1, 237240, Note_on_c, 0, 93, 0
1, 237240, Note_on_c, 0, 91, 46
1, 237260, Tempo, 571429
1, 237268, Tempo, 574163
1, 237288, Tempo, 576923
1, 237300, Tempo, 579710
1, 237300, Note_on_c, 0, 91, 0
1, 237300, Note_on_c, 0, 93, 37
1, 237320, Tempo, 582524
1, 237328, Tempo, 585366
1, 237340, Tempo, 481928
1, 237360, Tempo, 456274
1, 237360, Note_on_c, 0, 93, 0
1, 237360, Note_on_c, 0, 91, 45
1, 237360, Note_on_c, 0, 82, 43
1, 237380, Tempo, 458015
1, 237400, Tempo, 459770
1, 237420, Tempo, 461538
1, 237440, Tempo, 463320
1, 237440, Note_on_c, 0, 91, 0
1, 237440, Note_on_c, 0, 93, 40
1, 237460, Tempo, 465116
1, 237480, Tempo, 466926
1, 237500, Tempo, 468750
1, 237520, Tempo, 470588
1, 237520, Note_on_c, 0, 93, 0
1, 237520, Note_on_c, 0, 91, 38
1, 237540, Tempo, 472441
1, 237560, Tempo, 474308
1, 237580, Tempo, 478088
1, 237600, Tempo, 727273
1, 237600, Note_on_c, 0, 91, 0
1, 237600, Note_on_c, 0, 82, 0
1, 237600, Note_on_c, 0, 90, 44
1, 237680, Note_on_c, 0, 90, 0
1, 237680, Note_on_c, 0, 91, 46
1, 237760, Tempo, 1034483
1, 237760, Note_on_c, 0, 91, 0
1, 237760, Note_on_c, 0, 93, 46
1, 237840, Tempo, 540541
1, 237840, Note_on_c, 0, 93, 0
1, 237840, Note_on_c, 0, 91, 52
1, 237840, Note_on_c, 0, 88, 41
1, 238080, Tempo, 666667
1, 238320, Note_on_c, 0, 88, 0
1, 238320, Note_on_c, 0, 91, 0
1, 238323, Text_t, "bdca426d104a26ac9dcb070447587523"
1, 238323, Control_c, 0, 91, 127
1, 238323, Control_c, 0, 64, 0
1, 238800, Time_signature, 6, 3, 12, 8
1, 238800, Tempo, 428571
1, 238800, Marker_t, "Finale alla Fantasia"
1, 238800, Text_t, "bdca426d104a26ac9dcb070447587523"
1, 238800, Control_c, 0, 91, 127
1, 239507, Control_c, 0, 64, 127
1, 239520, Tempo, 436364
1, 239520, Note_on_c, 0, 63, 37
1, 239520, Note_on_c, 0, 69, 45
1, 239520, Note_on_c, 0, 48, 30
1, 239520, Note_on_c, 0, 54, 30
1, 239520, Note_on_c, 0, 60, 36
1, 239760, Tempo, 421053
1, 239995, Note_on_c, 0, 60, 0
1, 239995, Note_on_c, 0, 48, 0
1, 239995, Note_on_c, 0, 63, 0
1, 239995, Note_on_c, 0, 69, 0
1, 239995, Note_on_c, 0, 54, 0
1, 240000, Note_on_c, 0, 63, 36
1, 240000, Note_on_c, 0, 69, 44
1, 240000, Note_on_c, 0, 48, 27
1, 240000, Note_on_c, 0, 54, 27
1, 240000, Note_on_c, 0, 60, 33
1, 240238, Note_on_c, 0, 60, 0
1, 240238, Note_on_c, 0, 48, 0
1, 240238, Note_on_c, 0, 63, 0
1, 240238, Note_on_c, 0, 69, 0
1, 240238, Note_on_c, 0, 54, 0
1, 240240, Tempo, 431655
1, 240240, Note_on_c, 0, 64, 41
1, 240240, Note_on_c, 0, 70, 50
1, 240240, Note_on_c, 0, 48, 31
1, 240240, Note_on_c, 0, 55, 31
1, 240240, Note_on_c, 0, 60, 37
1, 240242, Control_c, 0, 64, 0
1, 240480, Tempo, 421053
1, 240480, Control_c, 0, 64, 127
1, 240715, Note_on_c, 0, 60, 0
1, 240715, Note_on_c, 0, 48, 0
1, 240715, Note_on_c, 0, 64, 0
1, 240715, Note_on_c, 0, 70, 0
1, 240715, Note_on_c, 0, 55, 0
1, 240720, Note_on_c, 0, 64, 40
1, 240720, Note_on_c, 0, 70, 48
1, 240720, Note_on_c, 0, 48, 29
1, 240720, Note_on_c, 0, 55, 29
1, 240720, Note_on_c, 0, 60, 34
1, 240958, Note_on_c, 0, 60, 0
1, 240958, Note_on_c, 0, 48, 0
1, 240958, Note_on_c, 0, 64, 0
1, 240958, Note_on_c, 0, 70, 0
1, 240958, Note_on_c, 0, 55, 0
1, 240960, Tempo, 421053
1, 240960, Note_on_c, 0, 65, 44
1, 240960, Note_on_c, 0, 71, 53
1, 240960, Note_on_c, 0, 48, 36
1, 240960, Note_on_c, 0, 56, 36
1, 240960, Note_on_c, 0, 62, 43
1, 240968, Control_c, 0, 64, 0
1, 241000, Tempo, 430108
1, 241187, Control_c, 0, 64, 127
1, 241200, Tempo, 421053
1, 241435, Note_on_c, 0, 62, 0
1, 241435, Note_on_c, 0, 48, 0
1, 241435, Note_on_c, 0, 65, 0
1, 241435, Note_on_c, 0, 71, 0
1, 241435, Note_on_c, 0, 56, 0
1, 241440, Note_on_c, 0, 65, 43
1, 241440, Note_on_c, 0, 71, 51
1, 241440, Note_on_c, 0, 48, 34
1, 241440, Note_on_c, 0, 56, 34
1, 241440, Note_on_c, 0, 62, 40
1, 241678, Note_on_c, 0, 62, 0
1, 241678, Note_on_c, 0, 48, 0
1, 241678, Note_on_c, 0, 65, 0
1, 241678, Note_on_c, 0, 71, 0
1, 241678, Note_on_c, 0, 56, 0
1, 241680, Tempo, 434783
1, 241680, Note_on_c, 0, 65, 47
1, 241680, Note_on_c, 0, 72, 56
1, 241680, Note_on_c, 0, 48, 39
1, 241680, Note_on_c, 0, 57, 39
1, 241680, Note_on_c, 0, 60, 47
1, 241684, Control_c, 0, 64, 0
1, 241840, Control_c, 0, 64, 127
1, 241920, Tempo, 427046
1, 242155, Note_on_c, 0, 60, 0
1, 242155, Note_on_c, 0, 48, 0
1, 242155, Note_on_c, 0, 65, 0
1, 242155, Note_on_c, 0, 72, 0
1, 242155, Note_on_c, 0, 57, 0
1, 242160, Tempo, 493827
1, 242160, Note_on_c, 0, 65, 48
1, 242160, Note_on_c, 0, 48, 38
1, 242160, Note_on_c, 0, 57, 38
1, 242160, Note_on_c, 0, 60, 45
1, 242398, Note_on_c, 0, 60, 0
1, 242398, Note_on_c, 0, 65, 0
1, 242398, Note_on_c, 0, 48, 0
1, 242398, Note_on_c, 0, 57, 0
1, 242400, Tempo, 428571
1, 242400, Note_on_c, 0, 69, 53
1, 242400, Note_on_c, 0, 74, 63
1, 242400, Control_c, 0, 64, 0
1, 242400, Note_on_c, 0, 48, 45
1, 242400, Note_on_c, 0, 54, 45
1, 242400, Note_on_c, 0, 62, 53
1, 242587, Control_c, 0, 64, 127
1, 242875, Note_on_c, 0, 62, 0
1, 242875, Note_on_c, 0, 48, 0
1, 242875, Note_on_c, 0, 69, 0
1, 242875, Note_on_c, 0, 74, 0
1, 242875, Note_on_c, 0, 54, 0
1, 242880, Tempo, 436364
1, 242880, Note_on_c, 0, 69, 51
1, 242880, Note_on_c, 0, 72, 61
1, 242880, Note_on_c, 0, 48, 40
1, 242880, Note_on_c, 0, 54, 40
1, 242880, Note_on_c, 0, 62, 48
1, 243118, Note_on_c, 0, 62, 0
1, 243118, Note_on_c, 0, 48, 0
1, 243118, Note_on_c, 0, 69, 0
1, 243118, Note_on_c, 0, 72, 0
1, 243118, Note_on_c, 0, 54, 0
1, 243120, Note_on_c, 0, 67, 50
1, 243120, Note_on_c, 0, 70, 60
1, 243120, Note_on_c, 0, 48, 41
1, 243120, Note_on_c, 0, 55, 41
1, 243120, Note_on_c, 0, 62, 49
1, 243124, Control_c, 0, 64, 0
1, 243289, Control_c, 0, 64, 127
1, 243595, Note_on_c, 0, 62, 0
1, 243595, Note_on_c, 0, 48, 0
1, 243595, Note_on_c, 0, 67, 0
1, 243595, Note_on_c, 0, 70, 0
1, 243595, Note_on_c, 0, 55, 0
1, 243600, Tempo, 449438
1, 243600, Note_on_c, 0, 68, 42
1, 243600, Note_on_c, 0, 71, 50
1, 243600, Note_on_c, 0, 48, 30
1, 243600, Note_on_c, 0, 53, 30
1, 243600, Note_on_c, 0, 62, 36
1, 243838, Note_on_c, 0, 62, 0
1, 243838, Note_on_c, 0, 48, 0
1, 243838, Note_on_c, 0, 68, 0
1, 243838, Note_on_c, 0, 71, 0
1, 243838, Note_on_c, 0, 53, 0
1, 243840, Tempo, 444444
1, 243840, Note_on_c, 0, 67, 45
1, 243840, Note_on_c, 0, 72, 54
1, 243840, Note_on_c, 0, 48, 34
1, 243840, Note_on_c, 0, 52, 34
1, 243840, Note_on_c, 0, 60, 40
1, 243849, Control_c, 0, 64, 0
1, 244041, Control_c, 0, 64, 127
1, 244315, Note_on_c, 0, 60, 0
1, 244315, Note_on_c, 0, 48, 0
1, 244315, Note_on_c, 0, 67, 0
1, 244315, Note_on_c, 0, 72, 0
1, 244315, Note_on_c, 0, 52, 0
1, 244320, Note_on_c, 0, 64, 40
1, 244320, Note_on_c, 0, 70, 48
1, 244320, Note_on_c, 0, 48, 31
1, 244320, Note_on_c, 0, 55, 31
1, 244320, Note_on_c, 0, 60, 37
1, 244558, Note_on_c, 0, 60, 0
1, 244558, Note_on_c, 0, 48, 0
1, 244558, Note_on_c, 0, 64, 0
1, 244558, Note_on_c, 0, 70, 0
1, 244558, Note_on_c, 0, 55, 0
1, 244560, Note_on_c, 0, 65, 39
1, 244560, Note_on_c, 0, 69, 46
1, 244560, Control_c, 0, 64, 0
1, 244560, Note_on_c, 0, 48, 30
1, 244560, Note_on_c, 0, 53, 30
1, 244560, Note_on_c, 0, 60, 36
1, 245040, Note_on_c, 0, 60, 0
1, 245040, Note_on_c, 0, 48, 0
1, 245040, Note_on_c, 0, 65, 0
1, 245040, Note_on_c, 0, 69, 0
1, 245040, Note_on_c, 0, 53, 0
1, 245040, Note_on_c, 0, 48, 33
1, 245280, Tempo, 418118
1, 245280, Note_on_c, 0, 48, 0
1, 245280, Note_on_c, 0, 99, 38
1, 245280, Control_c, 0, 64, 127
1, 245280, Note_on_c, 0, 48, 32
1, 245280, Note_on_c, 0, 54, 38
1, 245280, Note_on_c, 0, 57, 38
1, 245400, Note_on_c, 0, 99, 0
1, 245400, Note_on_c, 0, 98, 36
1, 245520, Note_on_c, 0, 98, 0
1, 245520, Note_on_c, 0, 101, 40
1, 245640, Note_on_c, 0, 101, 0
1, 245640, Note_on_c, 0, 99, 37
1, 245755, Note_on_c, 0, 48, 0
1, 245755, Note_on_c, 0, 57, 0
1, 245755, Note_on_c, 0, 54, 0
1, 245760, Note_on_c, 0, 99, 0
1, 245760, Note_on_c, 0, 98, 37
1, 245760, Note_on_c, 0, 48, 27
1, 245760, Note_on_c, 0, 54, 32
1, 245760, Note_on_c, 0, 57, 39
1, 245880, Note_on_c, 0, 98, 0
1, 245880, Note_on_c, 0, 96, 37
1, 245998, Note_on_c, 0, 48, 0
1, 245998, Note_on_c, 0, 57, 0
1, 245998, Note_on_c, 0, 54, 0
1, 246000, Tempo, 428571
1, 246000, Note_on_c, 0, 96, 0
1, 246000, Note_on_c, 0, 94, 40
1, 246000, Note_on_c, 0, 48, 36
1, 246000, Note_on_c, 0, 55, 36
1, 246000, Note_on_c, 0, 58, 44
1, 246008, Control_c, 0, 64, 0
1, 246064, Control_c, 0, 64, 127
1, 246120, Note_on_c, 0, 94, 0
1, 246120, Note_on_c, 0, 93, 37
1, 246240, Tempo, 413793
1, 246240, Note_on_c, 0, 93, 0
1, 246240, Note_on_c, 0, 96, 41
1, 246360, Note_on_c, 0, 96, 0
1, 246360, Note_on_c, 0, 94, 38
1, 246475, Note_on_c, 0, 48, 0
1, 246475, Note_on_c, 0, 58, 0
1, 246475, Note_on_c, 0, 55, 0
1, 246480, Note_on_c, 0, 94, 0
1, 246480, Note_on_c, 0, 93, 39
1, 246480, Note_on_c, 0, 48, 34
1, 246480, Note_on_c, 0, 55, 34
1, 246480, Note_on_c, 0, 58, 42
1, 246600, Note_on_c, 0, 93, 0
1, 246600, Note_on_c, 0, 91, 39
1, 246718, Note_on_c, 0, 48, 0
1, 246718, Note_on_c, 0, 58, 0
1, 246718, Note_on_c, 0, 55, 0
1, 246720, Tempo, 430108
1, 246720, Note_on_c, 0, 91, 0
1, 246720, Note_on_c, 0, 89, 42
1, 246720, Note_on_c, 0, 48, 38
1, 246720, Note_on_c, 0, 56, 45
1, 246720, Note_on_c, 0, 59, 45
1, 246729, Control_c, 0, 64, 0
1, 246798, Control_c, 0, 64, 127
1, 246840, Note_on_c, 0, 89, 0
1, 246840, Note_on_c, 0, 88, 39
1, 246960, Tempo, 413793
1, 246960, Note_on_c, 0, 88, 0
1, 246960, Note_on_c, 0, 91, 44
1, 247080, Note_on_c, 0, 91, 0
1, 247080, Note_on_c, 0, 89, 41
1, 247195, Note_on_c, 0, 48, 0
1, 247195, Note_on_c, 0, 59, 0
1, 247195, Note_on_c, 0, 56, 0
1, 247200, Note_on_c, 0, 89, 0
1, 247200, Note_on_c, 0, 88, 41
1, 247200, Note_on_c, 0, 48, 36
1, 247200, Note_on_c, 0, 56, 43
1, 247200, Note_on_c, 0, 59, 43
1, 247320, Note_on_c, 0, 88, 0
1, 247320, Note_on_c, 0, 86, 41
1, 247438, Note_on_c, 0, 48, 0
1, 247438, Note_on_c, 0, 59, 0
1, 247438, Note_on_c, 0, 56, 0
1, 247440, Tempo, 428571
1, 247440, Note_on_c, 0, 86, 0
1, 247440, Note_on_c, 0, 84, 43
1, 247440, Note_on_c, 0, 48, 37
1, 247440, Note_on_c, 0, 57, 37
1, 247440, Note_on_c, 0, 60, 46
1, 247444, Control_c, 0, 64, 0
1, 247491, Control_c, 0, 64, 127
1, 247560, Note_on_c, 0, 84, 0
1, 247560, Note_on_c, 0, 83, 41
1, 247680, Tempo, 413793
1, 247680, Note_on_c, 0, 83, 0
1, 247680, Note_on_c, 0, 86, 47
1, 247800, Note_on_c, 0, 86, 0
1, 247800, Note_on_c, 0, 84, 44
1, 247915, Note_on_c, 0, 48, 0
1, 247920, Tempo, 405405
1, 247920, Note_on_c, 0, 84, 0
1, 247920, Note_on_c, 0, 82, 44
1, 247920, Note_on_c, 0, 48, 45
1, 248040, Note_on_c, 0, 82, 0
1, 248040, Note_on_c, 0, 81, 44
1, 248153, Note_on_c, 0, 60, 0
1, 248153, Note_on_c, 0, 57, 0
1, 248158, Note_on_c, 0, 48, 0
1, 248160, Tempo, 456274
1, 248160, Note_on_c, 0, 81, 0
1, 248160, Note_on_c, 0, 86, 47
1, 248160, Note_on_c, 0, 48, 45
1, 248160, Note_on_c, 0, 54, 45
1, 248160, Note_on_c, 0, 62, 55
1, 248166, Control_c, 0, 64, 0
1, 248217, Control_c, 0, 64, 127
1, 248280, Note_on_c, 0, 86, 0
1, 248280, Note_on_c, 0, 85, 45
1, 248400, Tempo, 419580
1, 248400, Note_on_c, 0, 85, 0
1, 248400, Note_on_c, 0, 87, 51
1, 248520, Note_on_c, 0, 87, 0
1, 248520, Note_on_c, 0, 86, 46
1, 248635, Note_on_c, 0, 48, 0
1, 248635, Note_on_c, 0, 62, 0
1, 248635, Note_on_c, 0, 54, 0
1, 248640, Note_on_c, 0, 86, 0
1, 248640, Note_on_c, 0, 84, 46
1, 248640, Note_on_c, 0, 48, 43
1, 248640, Note_on_c, 0, 57, 43
1, 248640, Note_on_c, 0, 62, 51
1, 248760, Note_on_c, 0, 84, 0
1, 248760, Note_on_c, 0, 81, 47
1, 248878, Note_on_c, 0, 48, 0
1, 248878, Note_on_c, 0, 62, 0
1, 248878, Note_on_c, 0, 57, 0
1, 248880, Tempo, 430108
1, 248880, Note_on_c, 0, 81, 0
1, 248880, Note_on_c, 0, 82, 51
1, 248880, Note_on_c, 0, 48, 46
1, 248880, Note_on_c, 0, 55, 46
1, 248880, Note_on_c, 0, 62, 55
1, 248883, Control_c, 0, 64, 0
1, 248954, Control_c, 0, 64, 127
1, 249000, Note_on_c, 0, 82, 0
1, 249000, Note_on_c, 0, 81, 47
1, 249120, Tempo, 419580
1, 249120, Note_on_c, 0, 81, 0
1, 249120, Note_on_c, 0, 84, 52
1, 249240, Note_on_c, 0, 84, 0
1, 249240, Note_on_c, 0, 82, 48
1, 249355, Note_on_c, 0, 48, 0
1, 249355, Note_on_c, 0, 62, 0
1, 249355, Note_on_c, 0, 55, 0
1, 249360, Note_on_c, 0, 82, 0
1, 249360, Note_on_c, 0, 79, 48
1, 249360, Note_on_c, 0, 48, 43
1, 249360, Note_on_c, 0, 53, 43
1, 249360, Note_on_c, 0, 62, 51
1, 249480, Note_on_c, 0, 79, 0
1, 249480, Note_on_c, 0, 74, 48
1, 249598, Note_on_c, 0, 48, 0
1, 249598, Note_on_c, 0, 62, 0
1, 249598, Note_on_c, 0, 53, 0
1, 249600, Tempo, 430108
1, 249600, Note_on_c, 0, 74, 0
1, 249600, Note_on_c, 0, 72, 53
1, 249600, Note_on_c, 0, 48, 47
1, 249600, Note_on_c, 0, 52, 47
1, 249600, Note_on_c, 0, 60, 57
1, 249606, Control_c, 0, 64, 0
1, 249651, Control_c, 0, 64, 127
1, 249720, Note_on_c, 0, 72, 0
1, 249720, Note_on_c, 0, 71, 49
1, 249840, Tempo, 419580
1, 249840, Note_on_c, 0, 71, 0
1, 249840, Note_on_c, 0, 74, 54
1, 249960, Note_on_c, 0, 74, 0
1, 249960, Note_on_c, 0, 72, 49
1, 250075, Note_on_c, 0, 48, 0
1, 250075, Note_on_c, 0, 60, 0
1, 250075, Note_on_c, 0, 52, 0
1, 250080, Note_on_c, 0, 72, 0
1, 250080, Note_on_c, 0, 70, 49
1, 250080, Note_on_c, 0, 48, 46
1, 250080, Note_on_c, 0, 55, 46
1, 250080, Note_on_c, 0, 60, 54
1, 250200, Note_on_c, 0, 70, 0
1, 250200, Note_on_c, 0, 67, 49
1, 250318, Note_on_c, 0, 48, 0
1, 250318, Note_on_c, 0, 60, 0
1, 250318, Note_on_c, 0, 55, 0
1, 250320, Tempo, 428571
1, 250320, Note_on_c, 0, 67, 0
1, 250320, Note_on_c, 0, 69, 52
1, 250320, Control_c, 0, 64, 0
1, 250320, Note_on_c, 0, 48, 49
1, 250320, Note_on_c, 0, 53, 49
1, 250320, Note_on_c, 0, 60, 57
1, 250368, Control_c, 0, 64, 127
1, 250440, Note_on_c, 0, 69, 0
1, 250440, Note_on_c, 0, 68, 49
1, 250560, Tempo, 419580
1, 250560, Note_on_c, 0, 68, 0
1, 250560, Note_on_c, 0, 69, 56
1, 250680, Note_on_c, 0, 69, 0
1, 250680, Note_on_c, 0, 70, 50
1, 250795, Note_on_c, 0, 48, 0
1, 250795, Note_on_c, 0, 60, 0
1, 250795, Note_on_c, 0, 53, 0
1, 250800, Note_on_c, 0, 70, 0
1, 250800, Note_on_c, 0, 65, 51
1, 250800, Note_on_c, 0, 48, 46
1, 250920, Note_on_c, 0, 65, 0
1, 250920, Note_on_c, 0, 69, 51
1, 251038, Note_on_c, 0, 48, 0
1, 251040, Tempo, 418118
1, 251040, Note_on_c, 0, 69, 0
1, 251040, Note_on_c, 0, 63, 60
1, 251040, Note_on_c, 0, 48, 46
1, 251040, Note_on_c, 0, 54, 49
1, 251040, Note_on_c, 0, 57, 55
1, 251046, Control_c, 0, 64, 0
1, 251115, Control_c, 0, 64, 127
1, 251160, Note_on_c, 0, 69, 56
1, 251280, Tempo, 413793
1, 251280, Note_on_c, 0, 69, 0
1, 251280, Note_on_c, 0, 68, 56
1, 251400, Note_on_c, 0, 68, 0
1, 251400, Note_on_c, 0, 69, 56
1, 251515, Note_on_c, 0, 57, 0
1, 251515, Note_on_c, 0, 54, 0
1, 251515, Note_on_c, 0, 48, 0
1, 251520, Note_on_c, 0, 63, 0
1, 251520, Note_on_c, 0, 69, 0
1, 251520, Note_on_c, 0, 70, 53
1, 251520, Note_on_c, 0, 48, 39
1, 251520, Note_on_c, 0, 54, 46
1, 251520, Note_on_c, 0, 57, 55
1, 251640, Note_on_c, 0, 70, 0
1, 251640, Note_on_c, 0, 69, 53
1, 251758, Note_on_c, 0, 48, 0
1, 251758, Note_on_c, 0, 57, 0
1, 251758, Note_on_c, 0, 54, 0
1, 251760, Tempo, 428571
1, 251760, Note_on_c, 0, 69, 0
1, 251760, Note_on_c, 0, 64, 60
1, 251760, Note_on_c, 0, 48, 52
1, 251760, Note_on_c, 0, 55, 52
1, 251760, Note_on_c, 0, 58, 62
1, 251766, Control_c, 0, 64, 0
1, 251823, Control_c, 0, 64, 127
1, 251880, Tempo, 404040
1, 251880, Note_on_c, 0, 70, 57
1, 252000, Tempo, 413793
1, 252000, Note_on_c, 0, 70, 0
1, 252000, Note_on_c, 0, 69, 57
1, 252120, Note_on_c, 0, 69, 0
1, 252120, Note_on_c, 0, 70, 57
1, 252235, Note_on_c, 0, 58, 0
1, 252235, Note_on_c, 0, 55, 0
1, 252235, Note_on_c, 0, 48, 0
1, 252240, Note_on_c, 0, 64, 0
1, 252240, Note_on_c, 0, 70, 0
1, 252240, Note_on_c, 0, 72, 55
1, 252240, Note_on_c, 0, 48, 48
1, 252240, Note_on_c, 0, 55, 48
1, 252240, Note_on_c, 0, 58, 57
1, 252360, Note_on_c, 0, 72, 0
1, 252360, Note_on_c, 0, 70, 55
1, 252478, Note_on_c, 0, 48, 0
1, 252478, Note_on_c, 0, 58, 0
1, 252478, Note_on_c, 0, 55, 0
1, 252480, Tempo, 430108
1, 252480, Note_on_c, 0, 70, 0
1, 252480, Note_on_c, 0, 65, 63
1, 252480, Note_on_c, 0, 48, 51
1, 252480, Note_on_c, 0, 56, 51
1, 252480, Note_on_c, 0, 59, 61
1, 252490, Control_c, 0, 64, 0
1, 252543, Control_c, 0, 64, 127
1, 252600, Tempo, 408163
1, 252600, Note_on_c, 0, 71, 58
1, 252720, Tempo, 413793
1, 252720, Note_on_c, 0, 71, 0
1, 252720, Note_on_c, 0, 70, 58
1, 252840, Note_on_c, 0, 70, 0
1, 252840, Note_on_c, 0, 71, 58
1, 252955, Note_on_c, 0, 59, 0
1, 252955, Note_on_c, 0, 56, 0
1, 252955, Note_on_c, 0, 48, 0
1, 252960, Note_on_c, 0, 65, 0
1, 252960, Note_on_c, 0, 71, 0
1, 252960, Note_on_c, 0, 72, 56
1, 252960, Note_on_c, 0, 48, 48
1, 252960, Note_on_c, 0, 56, 57
1, 252960, Note_on_c, 0, 59, 57
1, 253080, Note_on_c, 0, 72, 0
1, 253080, Note_on_c, 0, 71, 56
1, 253198, Note_on_c, 0, 48, 0
1, 253198, Note_on_c, 0, 59, 0
1, 253198, Note_on_c, 0, 56, 0
1, 253200, Tempo, 428571
1, 253200, Note_on_c, 0, 71, 0
1, 253200, Note_on_c, 0, 65, 65
1, 253200, Note_on_c, 0, 48, 50
1, 253200, Note_on_c, 0, 57, 50
1, 253200, Note_on_c, 0, 60, 60
1, 253207, Control_c, 0, 64, 0
1, 253257, Control_c, 0, 64, 127
1, 253320, Tempo, 409556
1, 253320, Note_on_c, 0, 72, 59
1, 253440, Tempo, 413793
1, 253440, Note_on_c, 0, 72, 0
1, 253440, Note_on_c, 0, 71, 59
1, 253560, Note_on_c, 0, 71, 0
1, 253560, Note_on_c, 0, 72, 59
1, 253675, Note_on_c, 0, 48, 0
1, 253680, Note_on_c, 0, 65, 0
1, 253680, Note_on_c, 0, 72, 0
1, 253680, Note_on_c, 0, 74, 56
1, 253680, Note_on_c, 0, 48, 57
1, 253800, Note_on_c, 0, 74, 0
1, 253800, Note_on_c, 0, 72, 56
1, 253913, Note_on_c, 0, 60, 0
1, 253913, Note_on_c, 0, 57, 0
1, 253918, Note_on_c, 0, 48, 0
1, 253920, Tempo, 428571
1, 253920, Note_on_c, 0, 72, 0
1, 253920, Note_on_c, 0, 69, 65
1, 253920, Note_on_c, 0, 48, 56
1, 253920, Note_on_c, 0, 54, 56
1, 253920, Note_on_c, 0, 62, 65
1, 253926, Control_c, 0, 64, 0
1, 253977, Control_c, 0, 64, 127
1, 254040, Tempo, 409556
1, 254040, Note_on_c, 0, 74, 60
1, 254160, Tempo, 415225
1, 254160, Note_on_c, 0, 74, 0
1, 254160, Note_on_c, 0, 73, 60
1, 254280, Note_on_c, 0, 73, 0
1, 254280, Note_on_c, 0, 74, 60
1, 254395, Note_on_c, 0, 62, 0
1, 254395, Note_on_c, 0, 54, 0
1, 254395, Note_on_c, 0, 48, 0
1, 254400, Note_on_c, 0, 69, 0
1, 254400, Note_on_c, 0, 74, 0
1, 254400, Note_on_c, 0, 76, 58
1, 254400, Note_on_c, 0, 48, 53
1, 254400, Note_on_c, 0, 57, 53
1, 254400, Note_on_c, 0, 62, 63
1, 254520, Note_on_c, 0, 76, 0
1, 254520, Note_on_c, 0, 74, 58
1, 254638, Note_on_c, 0, 48, 0
1, 254638, Note_on_c, 0, 62, 0
1, 254638, Note_on_c, 0, 57, 0
1, 254640, Tempo, 430108
1, 254640, Note_on_c, 0, 74, 0
1, 254640, Note_on_c, 0, 74, 66
1, 254640, Note_on_c, 0, 46, 67
1, 254643, Control_c, 0, 64, 0
1, 254686, Control_c, 0, 64, 127
1, 254760, Tempo, 402685
1, 254760, Note_on_c, 0, 79, 61
1, 254880, Tempo, 409556
1, 254880, Note_on_c, 0, 79, 0
1, 254880, Note_on_c, 0, 46, 0
1, 254880, Note_on_c, 0, 78, 61
1, 254880, Note_on_c, 0, 62, 58
1, 255000, Note_on_c, 0, 78, 0
1, 255000, Note_on_c, 0, 79, 61
1, 255120, Tempo, 412371
1, 255120, Note_on_c, 0, 79, 0
1, 255120, Note_on_c, 0, 62, 0
1, 255120, Note_on_c, 0, 74, 0
1, 255120, Note_on_c, 0, 81, 59
1, 255120, Note_on_c, 0, 67, 59
1, 255240, Note_on_c, 0, 81, 0
1, 255240, Note_on_c, 0, 79, 60
1, 255360, Tempo, 430108
1, 255360, Note_on_c, 0, 79, 0
1, 255360, Note_on_c, 0, 67, 0
1, 255360, Note_on_c, 0, 79, 69
1, 255360, Note_on_c, 0, 58, 68
1, 255370, Control_c, 0, 64, 0
1, 255434, Control_c, 0, 64, 127
1, 255480, Tempo, 404040
1, 255480, Note_on_c, 0, 84, 63
1, 255600, Tempo, 408163
1, 255600, Note_on_c, 0, 84, 0
1, 255600, Note_on_c, 0, 83, 63
1, 255600, Note_on_c, 0, 60, 58
1, 255720, Note_on_c, 0, 83, 0
1, 255720, Note_on_c, 0, 84, 63
1, 255840, Tempo, 412371
1, 255840, Note_on_c, 0, 84, 0
1, 255840, Note_on_c, 0, 60, 0
1, 255840, Note_on_c, 0, 79, 0
1, 255840, Note_on_c, 0, 86, 61
1, 255840, Note_on_c, 0, 64, 60
1, 255960, Note_on_c, 0, 86, 0
1, 255960, Note_on_c, 0, 84, 61
1, 256080, Tempo, 428571
1, 256080, Note_on_c, 0, 84, 0
1, 256080, Note_on_c, 0, 64, 0
1, 256080, Note_on_c, 0, 58, 0
1, 256080, Note_on_c, 0, 84, 70
1, 256080, Note_on_c, 0, 57, 69
1, 256087, Control_c, 0, 64, 0
1, 256149, Control_c, 0, 64, 127
1, 256200, Tempo, 413793
1, 256200, Note_on_c, 0, 89, 63
1, 256320, Tempo, 413793
1, 256320, Note_on_c, 0, 89, 0
1, 256320, Note_on_c, 0, 88, 63
1, 256320, Note_on_c, 0, 60, 59
1, 256340, Tempo, 405405
1, 256440, Note_on_c, 0, 88, 0
1, 256440, Note_on_c, 0, 89, 59
1, 256560, Note_on_c, 0, 89, 0
1, 256560, Note_on_c, 0, 60, 0
1, 256560, Note_on_c, 0, 84, 0
1, 256560, Note_on_c, 0, 91, 61
1, 256560, Note_on_c, 0, 65, 61
1, 256680, Note_on_c, 0, 91, 0
1, 256680, Note_on_c, 0, 89, 61
1, 256800, Tempo, 400000
1, 256800, Note_on_c, 0, 89, 0
1, 256800, Note_on_c, 0, 65, 0
1, 256800, Note_on_c, 0, 57, 0
1, 256800, Note_on_c, 0, 86, 65
1, 256800, Note_on_c, 0, 58, 71
1, 256812, Control_c, 0, 64, 0
1, 256886, Control_c, 0, 64, 127
1, 256920, Note_on_c, 0, 86, 0
1, 256920, Note_on_c, 0, 85, 60
1, 257040, Tempo, 406780
1, 257040, Note_on_c, 0, 85, 0
1, 257040, Note_on_c, 0, 88, 66
1, 257040, Note_on_c, 0, 62, 62
1, 257160, Note_on_c, 0, 88, 0
1, 257160, Note_on_c, 0, 86, 63
1, 257280, Tempo, 419580
1, 257280, Note_on_c, 0, 86, 0
1, 257280, Note_on_c, 0, 62, 0
1, 257280, Note_on_c, 0, 79, 72
1, 257280, Note_on_c, 0, 67, 63
1, 257520, Tempo, 425532
1, 257520, Note_on_c, 0, 67, 0
1, 257520, Note_on_c, 0, 79, 0
1, 257520, Note_on_c, 0, 58, 0
1, 257520, Note_on_c, 0, 88, 75
1, 257520, Note_on_c, 0, 60, 74
1, 257528, Control_c, 0, 64, 0
1, 257566, Control_c, 0, 64, 127
1, 257640, Tempo, 409556
1, 257640, Note_on_c, 0, 93, 68
1, 257760, Tempo, 405405
1, 257760, Note_on_c, 0, 93, 0
1, 257760, Note_on_c, 0, 92, 69
1, 257760, Note_on_c, 0, 64, 65
1, 257880, Note_on_c, 0, 92, 0
1, 257880, Note_on_c, 0, 93, 63
1, 258000, Note_on_c, 0, 93, 0
1, 258000, Note_on_c, 0, 64, 0
1, 258000, Note_on_c, 0, 88, 0
1, 258000, Note_on_c, 0, 94, 64
1, 258000, Note_on_c, 0, 69, 66
1, 258120, Note_on_c, 0, 94, 0
1, 258120, Note_on_c, 0, 93, 64
1, 258240, Tempo, 402685
1, 258240, Note_on_c, 0, 93, 0
1, 258240, Note_on_c, 0, 69, 0
1, 258240, Note_on_c, 0, 60, 0
1, 258240, Note_on_c, 0, 89, 71
1, 258240, Note_on_c, 0, 62, 77
1, 258247, Control_c, 0, 64, 0
1, 258314, Control_c, 0, 64, 127
1, 258360, Note_on_c, 0, 89, 0
1, 258360, Note_on_c, 0, 88, 64
1, 258480, Tempo, 409556
1, 258480, Note_on_c, 0, 88, 0
1, 258480, Note_on_c, 0, 91, 72
1, 258480, Note_on_c, 0, 65, 67
1, 258600, Note_on_c, 0, 91, 0
1, 258600, Note_on_c, 0, 89, 66
1, 258720, Tempo, 419580
1, 258720, Note_on_c, 0, 89, 0
1, 258720, Note_on_c, 0, 65, 0
1, 258720, Note_on_c, 0, 86, 77
1, 258720, Note_on_c, 0, 70, 68
1, 258960, Note_on_c, 0, 70, 0
1, 258960, Note_on_c, 0, 86, 0
1, 258960, Note_on_c, 0, 62, 0
1, 258960, Note_on_c, 0, 91, 79
1, 258960, Note_on_c, 0, 64, 78
1, 258969, Control_c, 0, 64, 0
1, 259023, Control_c, 0, 64, 127
1, 259080, Tempo, 408163
1, 259080, Note_on_c, 0, 96, 71
1, 259200, Tempo, 404040
1, 259200, Note_on_c, 0, 96, 0
1, 259200, Note_on_c, 0, 95, 73
1, 259200, Note_on_c, 0, 67, 68
1, 259320, Note_on_c, 0, 95, 0
1, 259320, Note_on_c, 0, 96, 67
1, 259440, Note_on_c, 0, 96, 0
1, 259440, Note_on_c, 0, 67, 0
1, 259440, Note_on_c, 0, 91, 0
1, 259440, Note_on_c, 0, 98, 67
1, 259440, Note_on_c, 0, 72, 69
1, 259560, Note_on_c, 0, 98, 0
1, 259560, Note_on_c, 0, 96, 69
1, 259680, Tempo, 401338
1, 259680, Note_on_c, 0, 96, 0
1, 259680, Note_on_c, 0, 72, 0
1, 259680, Note_on_c, 0, 64, 0
1, 259680, Note_on_c, 0, 93, 74
1, 259680, Note_on_c, 0, 65, 81
1, 259690, Control_c, 0, 64, 0
1, 259731, Control_c, 0, 64, 127
1, 259800, Note_on_c, 0, 93, 0
1, 259800, Note_on_c, 0, 92, 68
1, 259920, Tempo, 408163
1, 259920, Note_on_c, 0, 92, 0
1, 259920, Note_on_c, 0, 94, 75
1, 259920, Note_on_c, 0, 69, 68
1, 260040, Note_on_c, 0, 94, 0
1, 260040, Note_on_c, 0, 93, 68
1, 260160, Tempo, 416667
1, 260160, Note_on_c, 0, 93, 0
1, 260160, Note_on_c, 0, 69, 0
1, 260160, Note_on_c, 0, 89, 77
1, 260160, Note_on_c, 0, 72, 68
1, 260400, Note_on_c, 0, 72, 0
1, 260400, Note_on_c, 0, 89, 0
1, 260400, Note_on_c, 0, 65, 0
1, 260400, Note_on_c, 0, 93, 83
1, 260400, Note_on_c, 0, 66, 82
1, 260409, Control_c, 0, 64, 0
1, 260463, Control_c, 0, 64, 127
1, 260520, Tempo, 406780
1, 260520, Note_on_c, 0, 98, 76
1, 260640, Tempo, 402685
1, 260640, Note_on_c, 0, 98, 0
1, 260640, Note_on_c, 0, 97, 76
1, 260640, Note_on_c, 0, 69, 71
1, 260760, Note_on_c, 0, 97, 0
1, 260760, Note_on_c, 0, 98, 70
1, 260880, Note_on_c, 0, 98, 0
1, 260880, Note_on_c, 0, 69, 0
1, 260880, Note_on_c, 0, 93, 0
1, 260880, Note_on_c, 0, 99, 70
1, 260880, Note_on_c, 0, 74, 71
1, 261000, Note_on_c, 0, 99, 0
1, 261000, Note_on_c, 0, 98, 70
1, 261120, Tempo, 397351
1, 261120, Note_on_c, 0, 98, 0
1, 261120, Note_on_c, 0, 74, 0
1, 261120, Note_on_c, 0, 66, 0
1, 261120, Note_on_c, 0, 94, 76
1, 261120, Note_on_c, 0, 67, 82
1, 261130, Control_c, 0, 64, 0
1, 261200, Control_c, 0, 64, 127
1, 261240, Note_on_c, 0, 94, 0
1, 261240, Note_on_c, 0, 93, 69
1, 261360, Tempo, 406780
1, 261360, Note_on_c, 0, 93, 0
1, 261360, Note_on_c, 0, 96, 76
1, 261360, Note_on_c, 0, 70, 71
1, 261480, Note_on_c, 0, 96, 0
1, 261480, Note_on_c, 0, 94, 69
1, 261600, Tempo, 418118
1, 261600, Note_on_c, 0, 94, 0
1, 261600, Note_on_c, 0, 70, 0
1, 261600, Note_on_c, 0, 91, 80
1, 261600, Note_on_c, 0, 74, 71
1, 261840, Note_on_c, 0, 74, 0
1, 261840, Note_on_c, 0, 91, 0
1, 261840, Note_on_c, 0, 67, 0
1, 261840, Note_on_c, 0, 94, 50
1, 261840, Note_on_c, 0, 61, 48
1, 261840, Control_c, 0, 64, 0
1, 261906, Control_c, 0, 64, 127
1, 261960, Tempo, 405405
1, 261960, Note_on_c, 0, 94, 0
1, 261960, Note_on_c, 0, 100, 45
1, 262080, Note_on_c, 0, 100, 0
1, 262080, Note_on_c, 0, 61, 0
1, 262080, Note_on_c, 0, 91, 45
1, 262080, Note_on_c, 0, 70, 42
1, 262200, Note_on_c, 0, 91, 0
1, 262200, Note_on_c, 0, 94, 42
1, 262230, Note_on_c, 0, 94, 0
1, 262230, Note_on_c, 0, 96, 42
1, 262260, Note_on_c, 0, 96, 0
1, 262260, Note_on_c, 0, 94, 45
1, 262320, Note_on_c, 0, 94, 0
1, 262320, Note_on_c, 0, 93, 48
1, 262320, Note_on_c, 0, 76, 43
1, 262440, Tempo, 418118
1, 262440, Note_on_c, 0, 93, 0
1, 262440, Note_on_c, 0, 91, 45
1, 262560, Tempo, 416667
1, 262560, Note_on_c, 0, 91, 0
1, 262560, Note_on_c, 0, 76, 0
1, 262560, Note_on_c, 0, 70, 0
1, 262560, Note_on_c, 0, 90, 50
1, 262560, Note_on_c, 0, 62, 47
1, 262570, Control_c, 0, 64, 0
1, 262641, Control_c, 0, 64, 127
1, 262680, Tempo, 405405
1, 262680, Note_on_c, 0, 90, 0
1, 262680, Note_on_c, 0, 96, 45
1, 262800, Note_on_c, 0, 96, 0
1, 262800, Note_on_c, 0, 62, 0
1, 262800, Note_on_c, 0, 84, 45
1, 262800, Note_on_c, 0, 69, 43
1, 262920, Note_on_c, 0, 84, 0
1, 262920, Note_on_c, 0, 87, 40
1, 262950, Note_on_c, 0, 87, 0
1, 262950, Note_on_c, 0, 89, 40
1, 262980, Note_on_c, 0, 89, 0
1, 262980, Note_on_c, 0, 87, 45
1, 263040, Note_on_c, 0, 87, 0
1, 263040, Note_on_c, 0, 86, 45
1, 263040, Note_on_c, 0, 78, 43
1, 263160, Tempo, 416667
1, 263160, Note_on_c, 0, 86, 0
1, 263160, Note_on_c, 0, 84, 45
1, 263280, Tempo, 422535
1, 263280, Note_on_c, 0, 84, 0
1, 263280, Note_on_c, 0, 78, 0
1, 263280, Note_on_c, 0, 69, 0
1, 263280, Note_on_c, 0, 83, 49
1, 263280, Note_on_c, 0, 55, 47
1, 263286, Control_c, 0, 64, 0
1, 263361, Control_c, 0, 64, 127
1, 263400, Tempo, 412371
1, 263400, Note_on_c, 0, 83, 0
1, 263400, Note_on_c, 0, 89, 45
1, 263500, Tempo, 415225
1, 263520, Note_on_c, 0, 89, 0
1, 263520, Note_on_c, 0, 55, 0
1, 263520, Note_on_c, 0, 77, 45
1, 263520, Note_on_c, 0, 62, 42
1, 263540, Tempo, 416667
1, 263580, Tempo, 418118
1, 263620, Tempo, 419580
1, 263640, Tempo, 421053
1, 263640, Note_on_c, 0, 77, 0
1, 263640, Note_on_c, 0, 80, 39
1, 263670, Note_on_c, 0, 80, 0
1, 263670, Note_on_c, 0, 82, 39
1, 263680, Tempo, 422535
1, 263700, Note_on_c, 0, 82, 0
1, 263700, Note_on_c, 0, 80, 42
1, 263720, Tempo, 424028
1, 263760, Tempo, 425532
1, 263760, Note_on_c, 0, 80, 0
1, 263760, Note_on_c, 0, 79, 49
1, 263760, Note_on_c, 0, 71, 43
1, 263780, Tempo, 427046
1, 263820, Tempo, 428571
1, 263860, Tempo, 430108
1, 263880, Note_on_c, 0, 79, 0
1, 263880, Note_on_c, 0, 77, 45
1, 263900, Tempo, 431655
1, 263920, Tempo, 433213
1, 263960, Tempo, 434783
1, 264000, Tempo, 436364
1, 264000, Note_on_c, 0, 77, 0
1, 264000, Note_on_c, 0, 71, 0
1, 264000, Note_on_c, 0, 62, 0
1, 264000, Note_on_c, 0, 76, 51
1, 264000, Note_on_c, 0, 48, 46
1, 264010, Control_c, 0, 64, 0
1, 264040, Tempo, 437956
1, 264060, Tempo, 439560
1, 264062, Control_c, 0, 64, 127
1, 264100, Tempo, 441176
1, 264120, Note_on_c, 0, 76, 0
1, 264120, Note_on_c, 0, 82, 45
1, 264140, Tempo, 442804
1, 264180, Tempo, 444444
1, 264200, Tempo, 446097
1, 264240, Note_on_c, 0, 82, 0
1, 264240, Note_on_c, 0, 48, 0
1, 264240, Note_on_c, 0, 74, 45
1, 264240, Note_on_c, 0, 55, 45
1, 264360, Note_on_c, 0, 74, 0
1, 264360, Note_on_c, 0, 73, 39
1, 264390, Note_on_c, 0, 73, 0
1, 264390, Note_on_c, 0, 75, 39
1, 264420, Note_on_c, 0, 75, 0
1, 264420, Note_on_c, 0, 73, 43
1, 264480, Note_on_c, 0, 73, 0
1, 264480, Note_on_c, 0, 72, 45
1, 264480, Note_on_c, 0, 64, 46
1, 264600, Note_on_c, 0, 72, 0
1, 264600, Note_on_c, 0, 70, 45
1, 264720, Tempo, 446097
1, 264720, Note_on_c, 0, 64, 0
1, 264720, Note_on_c, 0, 55, 0
1, 264720, Note_on_c, 0, 53, 50
1, 264722, Control_c, 0, 64, 0
1, 264760, Tempo, 444444
1, 264784, Control_c, 0, 64, 127
1, 264800, Tempo, 442804
1, 264840, Tempo, 441176
1, 264840, Note_on_c, 0, 70, 0
1, 264840, Note_on_c, 0, 69, 41
1, 264880, Tempo, 439560
1, 264920, Tempo, 437956
1, 264940, Tempo, 436364
1, 264960, Note_on_c, 0, 69, 0
1, 264960, Note_on_c, 0, 72, 43
1, 264960, Note_on_c, 0, 57, 43
1, 264980, Tempo, 434783
1, 265020, Tempo, 433213
1, 265060, Tempo, 431655
1, 265080, Note_on_c, 0, 72, 0
1, 265080, Note_on_c, 0, 76, 45
1, 265100, Tempo, 430108
1, 265120, Tempo, 428571
1, 265160, Tempo, 427046
1, 265200, Tempo, 425532
1, 265200, Note_on_c, 0, 76, 0
1, 265200, Note_on_c, 0, 77, 47
1, 265200, Note_on_c, 0, 60, 46
1, 265240, Tempo, 424028
1, 265280, Tempo, 422535
1, 265300, Tempo, 421053
1, 265320, Note_on_c, 0, 77, 0
1, 265320, Note_on_c, 0, 81, 49
1, 265340, Tempo, 419580
1, 265380, Tempo, 418118
1, 265420, Tempo, 416667
1, 265440, Note_on_c, 0, 81, 0
1, 265440, Note_on_c, 0, 60, 0
1, 265440, Note_on_c, 0, 84, 51
1, 265440, Note_on_c, 0, 69, 50
1, 265460, Tempo, 415225
1, 265480, Tempo, 413793
1, 265520, Tempo, 412371
1, 265560, Tempo, 410959
1, 265560, Note_on_c, 0, 84, 0
1, 265560, Note_on_c, 0, 88, 52
1, 265600, Tempo, 409556
1, 265640, Tempo, 408163
1, 265660, Tempo, 406780
1, 265680, Tempo, 406780
1, 265680, Note_on_c, 0, 88, 0
1, 265680, Note_on_c, 0, 89, 54
1, 265780, Tempo, 405405
1, 265800, Note_on_c, 0, 89, 0
1, 265800, Note_on_c, 0, 93, 56
1, 265880, Tempo, 404040
1, 265920, Note_on_c, 0, 93, 0
1, 265920, Note_on_c, 0, 69, 0
1, 265920, Note_on_c, 0, 57, 0
1, 265920, Note_on_c, 0, 53, 0
1, 265920, Note_on_c, 0, 96, 58
1, 265980, Tempo, 402685
1, 266040, Note_on_c, 0, 96, 0
1, 266040, Note_on_c, 0, 100, 60
1, 266080, Tempo, 401338
1, 266140, Tempo, 401338
1, 266160, Note_on_c, 0, 100, 0
1, 266160, Note_on_c, 0, 101, 60
1, 266160, Note_on_c, 0, 47, 55
1, 266168, Control_c, 0, 64, 0
1, 266240, Control_c, 0, 64, 127
1, 266280, Note_on_c, 0, 101, 0
1, 266280, Note_on_c, 0, 100, 60
1, 266400, Tempo, 402685
1, 266400, Note_on_c, 0, 100, 0
1, 266400, Note_on_c, 0, 47, 0
1, 266400, Note_on_c, 0, 99, 59
1, 266400, Note_on_c, 0, 56, 50
1, 266520, Note_on_c, 0, 99, 0
1, 266520, Note_on_c, 0, 98, 59
1, 266640, Note_on_c, 0, 98, 0
1, 266640, Note_on_c, 0, 97, 58
1, 266640, Note_on_c, 0, 62, 50
1, 266660, Tempo, 404040
1, 266760, Note_on_c, 0, 97, 0
1, 266760, Note_on_c, 0, 96, 58
1, 266880, Note_on_c, 0, 96, 0
1, 266880, Note_on_c, 0, 95, 57
1, 266880, Note_on_c, 0, 65, 53
1, 266920, Tempo, 405405
1, 267000, Note_on_c, 0, 95, 0
1, 267000, Note_on_c, 0, 94, 57
1, 267120, Note_on_c, 0, 94, 0
1, 267120, Note_on_c, 0, 93, 56
1, 267180, Tempo, 406780
1, 267240, Note_on_c, 0, 93, 0
1, 267240, Note_on_c, 0, 92, 55
1, 267360, Note_on_c, 0, 92, 0
1, 267360, Note_on_c, 0, 65, 0
1, 267360, Note_on_c, 0, 62, 0
1, 267360, Note_on_c, 0, 56, 0
1, 267360, Note_on_c, 0, 91, 55
1, 267420, Tempo, 408163
1, 267480, Tempo, 427046
1, 267480, Note_on_c, 0, 91, 0
1, 267480, Note_on_c, 0, 90, 54
1, 267600, Tempo, 405405
1, 267600, Note_on_c, 0, 90, 0
1, 267600, Note_on_c, 0, 89, 52
1, 267600, Note_on_c, 0, 48, 47
1, 267607, Control_c, 0, 64, 0
1, 267720, Note_on_c, 0, 89, 0
1, 267720, Note_on_c, 0, 93, 51
1, 267720, Control_c, 0, 64, 127
1, 267840, Tempo, 400000
1, 267840, Note_on_c, 0, 93, 0
1, 267840, Note_on_c, 0, 48, 0
1, 267840, Note_on_c, 0, 92, 50
1, 267840, Note_on_c, 0, 57, 42
1, 267960, Note_on_c, 0, 92, 0
1, 267960, Note_on_c, 0, 91, 49
1, 268080, Note_on_c, 0, 91, 0
1, 268080, Note_on_c, 0, 90, 48
1, 268080, Note_on_c, 0, 60, 42
1, 268200, Note_on_c, 0, 90, 0
1, 268200, Note_on_c, 0, 89, 47
1, 268320, Tempo, 405405
1, 268320, Note_on_c, 0, 89, 0
1, 268320, Note_on_c, 0, 88, 46
1, 268320, Note_on_c, 0, 65, 45
1, 268440, Note_on_c, 0, 88, 0
1, 268440, Note_on_c, 0, 87, 46
1, 268560, Note_on_c, 0, 87, 0
1, 268560, Note_on_c, 0, 86, 45
1, 268680, Note_on_c, 0, 86, 0
1, 268680, Note_on_c, 0, 85, 44
1, 268800, Note_on_c, 0, 85, 0
1, 268800, Note_on_c, 0, 65, 0
1, 268800, Note_on_c, 0, 60, 0
1, 268800, Note_on_c, 0, 57, 0
1, 268800, Note_on_c, 0, 84, 43
1, 268920, Tempo, 419580
1, 268920, Note_on_c, 0, 84, 0
1, 268920, Note_on_c, 0, 83, 42
1, 269040, Tempo, 404040
1, 269040, Note_on_c, 0, 83, 0
1, 269040, Note_on_c, 0, 82, 46
1, 269040, Note_on_c, 0, 36, 40
1, 269050, Control_c, 0, 64, 0
1, 269137, Control_c, 0, 64, 127
1, 269160, Note_on_c, 0, 82, 0
1, 269160, Note_on_c, 0, 88, 40
1, 269220, Note_on_c, 0, 36, 0
1, 269260, Tempo, 402685
1, 269280, Note_on_c, 0, 88, 0
1, 269280, Note_on_c, 0, 87, 39
1, 269280, Note_on_c, 0, 55, 36
1, 269400, Tempo, 404040
1, 269400, Note_on_c, 0, 87, 0
1, 269400, Note_on_c, 0, 86, 39
1, 269520, Note_on_c, 0, 86, 0
1, 269520, Note_on_c, 0, 85, 39
1, 269520, Note_on_c, 0, 58, 36
1, 269540, Tempo, 405405
1, 269640, Note_on_c, 0, 85, 0
1, 269640, Note_on_c, 0, 84, 38
1, 269680, Tempo, 406780
1, 269760, Note_on_c, 0, 84, 0
1, 269760, Note_on_c, 0, 83, 38
1, 269760, Note_on_c, 0, 64, 40
1, 269820, Tempo, 408163
1, 269880, Note_on_c, 0, 83, 0
1, 269880, Note_on_c, 0, 82, 37
1, 269960, Tempo, 409556
1, 270000, Note_on_c, 0, 82, 0
1, 270000, Note_on_c, 0, 81, 37
1, 270100, Tempo, 410959
1, 270120, Note_on_c, 0, 81, 0
1, 270120, Note_on_c, 0, 80, 37
1, 270240, Tempo, 412371
1, 270240, Note_on_c, 0, 80, 0
1, 270240, Note_on_c, 0, 64, 0
1, 270240, Note_on_c, 0, 58, 0
1, 270240, Note_on_c, 0, 55, 0
1, 270240, Note_on_c, 0, 79, 36
1, 270340, Tempo, 425532
1, 270360, Note_on_c, 0, 79, 0
1, 270360, Note_on_c, 0, 78, 36
1, 270480, Tempo, 415225
1, 270480, Note_on_c, 0, 78, 0
1, 270480, Note_on_c, 0, 77, 45
1, 270480, Note_on_c, 0, 41, 38
1, 270483, Control_c, 0, 64, 0
1, 270579, Control_c, 0, 64, 127
1, 270600, Note_on_c, 0, 77, 0
1, 270660, Note_on_c, 0, 41, 0
1, 270720, Note_on_c, 0, 53, 32
1, 270960, Note_on_c, 0, 53, 0
1, 270960, Note_on_c, 0, 57, 32
1, 271200, Note_on_c, 0, 57, 0
1, 271200, Note_on_c, 0, 65, 37
1, 271440, Note_on_c, 0, 65, 0
1, 271440, Note_on_c, 0, 57, 36
1, 271680, Tempo, 391160
1, 271680, Note_on_c, 0, 57, 0
1, 271680, Note_on_c, 0, 69, 47
1, 271680, Note_on_c, 0, 60, 36
1, 271683, Control_c, 0, 64, 0
1, 271744, Control_c, 0, 64, 127
1, 271800, Note_on_c, 0, 81, 44
1, 271920, Note_on_c, 0, 81, 0
1, 271920, Note_on_c, 0, 60, 0
1, 271920, Note_on_c, 0, 69, 0
1, 271920, Note_on_c, 0, 70, 49
1, 271920, Note_on_c, 0, 53, 46
1, 272040, Note_on_c, 0, 82, 45
1, 272160, Tempo, 383387
1, 272160, Note_on_c, 0, 82, 0
1, 272160, Note_on_c, 0, 70, 0
1, 272160, Note_on_c, 0, 71, 51
1, 272160, Note_on_c, 0, 55, 38
1, 272280, Note_on_c, 0, 83, 48
1, 272400, Note_on_c, 0, 83, 0
1, 272400, Note_on_c, 0, 55, 0
1, 272400, Note_on_c, 0, 71, 0
1, 272400, Note_on_c, 0, 72, 54
1, 272400, Note_on_c, 0, 60, 40
1, 272520, Note_on_c, 0, 84, 50
1, 272640, Note_on_c, 0, 84, 0
1, 272640, Note_on_c, 0, 60, 0
1, 272640, Note_on_c, 0, 72, 0
1, 272640, Note_on_c, 0, 74, 56
1, 272640, Note_on_c, 0, 64, 42
1, 272644, Control_c, 0, 64, 0
1, 272665, Control_c, 0, 64, 127
1, 272760, Note_on_c, 0, 86, 51
1, 272880, Note_on_c, 0, 86, 0
1, 272880, Note_on_c, 0, 64, 0
1, 272880, Note_on_c, 0, 74, 0
1, 272880, Note_on_c, 0, 76, 58
1, 272880, Note_on_c, 0, 55, 44
1, 273000, Note_on_c, 0, 88, 54
1, 273120, Note_on_c, 0, 88, 0
1, 273120, Note_on_c, 0, 55, 0
1, 273120, Note_on_c, 0, 76, 0
1, 273120, Note_on_c, 0, 77, 60
1, 273120, Note_on_c, 0, 60, 47
1, 273240, Tempo, 413451
1, 273240, Note_on_c, 0, 89, 56
1, 273300, Note_on_c, 0, 89, 0
1, 273300, Note_on_c, 0, 79, 57
1, 273360, Tempo, 396511
1, 273360, Note_on_c, 0, 79, 0
1, 273360, Note_on_c, 0, 60, 0
1, 273360, Note_on_c, 0, 77, 0
1, 273360, Note_on_c, 0, 53, 0
1, 273360, Note_on_c, 0, 91, 63
1, 273360, Note_on_c, 0, 53, 46
1, 273364, Control_c, 0, 64, 0
1, 273406, Control_c, 0, 64, 127
1, 273600, Note_on_c, 0, 91, 0
1, 273600, Note_on_c, 0, 58, 42
1, 273840, Note_on_c, 0, 58, 0
1, 273840, Note_on_c, 0, 60, 42
1, 274080, Tempo, 389864
1, 274080, Note_on_c, 0, 60, 0
1, 274080, Note_on_c, 0, 69, 54
1, 274080, Note_on_c, 0, 64, 45
1, 274090, Control_c, 0, 64, 0
1, 274143, Control_c, 0, 64, 127
1, 274200, Note_on_c, 0, 81, 49
1, 274320, Note_on_c, 0, 81, 0
1, 274320, Note_on_c, 0, 64, 0
1, 274320, Note_on_c, 0, 69, 0
1, 274320, Note_on_c, 0, 70, 55
1, 274320, Note_on_c, 0, 58, 46
1, 274440, Note_on_c, 0, 82, 51
1, 274560, Tempo, 383387
1, 274560, Note_on_c, 0, 82, 0
1, 274560, Note_on_c, 0, 58, 0
1, 274560, Note_on_c, 0, 70, 0
1, 274560, Note_on_c, 0, 71, 57
1, 274560, Note_on_c, 0, 60, 47
1, 274680, Note_on_c, 0, 83, 52
1, 274800, Note_on_c, 0, 83, 0
1, 274800, Note_on_c, 0, 53, 0
1, 274800, Note_on_c, 0, 71, 0
1, 274800, Note_on_c, 0, 60, 0
1, 274800, Note_on_c, 0, 72, 58
1, 274800, Note_on_c, 0, 53, 53
1, 274810, Control_c, 0, 64, 0
1, 274866, Control_c, 0, 64, 127
1, 274920, Note_on_c, 0, 84, 52
1, 275040, Note_on_c, 0, 84, 0
1, 275040, Note_on_c, 0, 72, 0
1, 275040, Note_on_c, 0, 74, 60
1, 275040, Note_on_c, 0, 57, 48
1, 275160, Note_on_c, 0, 86, 53
1, 275280, Note_on_c, 0, 86, 0
1, 275280, Note_on_c, 0, 57, 0
1, 275280, Note_on_c, 0, 74, 0
1, 275280, Note_on_c, 0, 76, 62
1, 275280, Note_on_c, 0, 60, 48
1, 275400, Note_on_c, 0, 88, 55
1, 275520, Note_on_c, 0, 88, 0
1, 275520, Note_on_c, 0, 60, 0
1, 275520, Note_on_c, 0, 76, 0
1, 275520, Note_on_c, 0, 77, 63
1, 275520, Note_on_c, 0, 65, 49
1, 275640, Note_on_c, 0, 89, 55
1, 275760, Note_on_c, 0, 89, 0
1, 275760, Note_on_c, 0, 65, 0
1, 275760, Note_on_c, 0, 77, 0
1, 275760, Note_on_c, 0, 79, 65
1, 275760, Note_on_c, 0, 57, 50
1, 275880, Note_on_c, 0, 91, 56
1, 276000, Note_on_c, 0, 91, 0
1, 276000, Note_on_c, 0, 57, 0
1, 276000, Note_on_c, 0, 79, 0
1, 276000, Note_on_c, 0, 80, 66
1, 276000, Note_on_c, 0, 60, 50
1, 276120, Tempo, 414909
1, 276120, Note_on_c, 0, 92, 54
1, 276180, Note_on_c, 0, 92, 0
1, 276180, Note_on_c, 0, 81, 54
1, 276240, Tempo, 388551
1, 276240, Note_on_c, 0, 81, 0
1, 276240, Note_on_c, 0, 60, 0
1, 276240, Note_on_c, 0, 80, 0
1, 276240, Note_on_c, 0, 53, 0
1, 276240, Note_on_c, 0, 93, 68
1, 276240, Control_c, 0, 64, 0
1, 276240, Note_on_c, 0, 52, 55
1, 276360, Note_on_c, 0, 93, 0
1, 276480, Note_on_c, 0, 52, 0
1, 276480, Note_on_c, 0, 57, 51
1, 276720, Note_on_c, 0, 61, 51
1, 276960, Note_on_c, 0, 61, 0
1, 276960, Note_on_c, 0, 81, 66
1, 276960, Note_on_c, 0, 67, 54
1, 276991, Control_c, 0, 64, 127
1, 277080, Note_on_c, 0, 93, 63
1, 277200, Note_on_c, 0, 93, 0
1, 277200, Note_on_c, 0, 57, 0
1, 277200, Note_on_c, 0, 81, 0
1, 277200, Note_on_c, 0, 67, 0
1, 277200, Note_on_c, 0, 83, 68
1, 277200, Note_on_c, 0, 57, 50
1, 277320, Note_on_c, 0, 95, 66
1, 277440, Note_on_c, 0, 95, 0
1, 277440, Note_on_c, 0, 83, 0
1, 277440, Note_on_c, 0, 85, 71
1, 277440, Note_on_c, 0, 61, 51
1, 277560, Tempo, 406201
1, 277560, Note_on_c, 0, 97, 69
1, 277620, Note_on_c, 0, 97, 0
1, 277620, Note_on_c, 0, 86, 69
1, 277680, Tempo, 388551
1, 277680, Note_on_c, 0, 57, 0
1, 277680, Note_on_c, 0, 61, 0
1, 277680, Note_on_c, 0, 85, 0
1, 277680, Note_on_c, 0, 98, 74
1, 277680, Note_on_c, 0, 50, 55
1, 277683, Control_c, 0, 64, 0
1, 277722, Control_c, 0, 64, 127
1, 277920, Note_on_c, 0, 50, 0
1, 277920, Note_on_c, 0, 57, 65
1, 278100, Note_on_c, 0, 98, 0
1, 278100, Note_on_c, 0, 86, 0
1, 278100, Note_on_c, 0, 88, 71
1, 278160, Note_on_c, 0, 100, 76
1, 278160, Note_on_c, 0, 62, 53
1, 278280, Tempo, 403388
1, 278340, Note_on_c, 0, 100, 0
1, 278340, Note_on_c, 0, 88, 0
1, 278340, Note_on_c, 0, 89, 71
1, 278400, Tempo, 388551
1, 278400, Note_on_c, 0, 62, 0
1, 278400, Note_on_c, 0, 101, 76
1, 278400, Note_on_c, 0, 65, 58
1, 278407, Control_c, 0, 64, 0
1, 278444, Control_c, 0, 64, 127
1, 278640, Note_on_c, 0, 65, 0
1, 278640, Note_on_c, 0, 57, 0
1, 278640, Note_on_c, 0, 57, 67
1, 278880, Note_on_c, 0, 62, 53
1, 279000, Tempo, 403388
1, 279060, Note_on_c, 0, 101, 0
1, 279060, Note_on_c, 0, 89, 0
1, 279060, Note_on_c, 0, 86, 70
1, 279120, Tempo, 388551
1, 279120, Note_on_c, 0, 57, 0
1, 279120, Note_on_c, 0, 62, 0
1, 279120, Note_on_c, 0, 98, 77
1, 279120, Note_on_c, 0, 48, 58
1, 279122, Control_c, 0, 64, 0
1, 279159, Control_c, 0, 64, 127
1, 279360, Note_on_c, 0, 48, 0
1, 279360, Note_on_c, 0, 57, 66
1, 279540, Note_on_c, 0, 98, 0
1, 279540, Note_on_c, 0, 86, 0
1, 279540, Note_on_c, 0, 88, 73
1, 279600, Note_on_c, 0, 100, 78
1, 279600, Note_on_c, 0, 62, 53
1, 279720, Tempo, 404804
1, 279780, Note_on_c, 0, 100, 0
1, 279780, Note_on_c, 0, 88, 0
1, 279780, Note_on_c, 0, 89, 71
1, 279840, Tempo, 387247
1, 279840, Note_on_c, 0, 62, 0
1, 279840, Note_on_c, 0, 101, 76
1, 279840, Note_on_c, 0, 65, 58
1, 279850, Control_c, 0, 64, 0
1, 279911, Control_c, 0, 64, 127
1, 280080, Note_on_c, 0, 65, 0
1, 280080, Note_on_c, 0, 57, 0
1, 280080, Note_on_c, 0, 57, 71
1, 280320, Tempo, 402010
1, 280320, Note_on_c, 0, 62, 61
1, 280560, Tempo, 387247
1, 280560, Note_on_c, 0, 62, 0
1, 280560, Note_on_c, 0, 57, 0
1, 280560, Note_on_c, 0, 101, 0
1, 280560, Note_on_c, 0, 86, 83
1, 280560, Note_on_c, 0, 46, 76
1, 280560, Control_c, 0, 64, 0
1, 280580, Note_on_c, 0, 89, 0
1, 280617, Control_c, 0, 64, 127
1, 280680, Tempo, 379675
1, 280680, Note_on_c, 0, 46, 0
1, 280680, Note_on_c, 0, 86, 0
1, 280680, Note_on_c, 0, 98, 76
1, 280800, Note_on_c, 0, 98, 0
1, 280800, Note_on_c, 0, 89, 76
1, 280920, Note_on_c, 0, 89, 0
1, 280920, Note_on_c, 0, 94, 76
1, 281040, Note_on_c, 0, 94, 0
1, 281040, Note_on_c, 0, 92, 76
1, 281160, Note_on_c, 0, 92, 0
1, 281160, Note_on_c, 0, 89, 76
1, 281280, Note_on_c, 0, 89, 0
1, 281280, Note_on_c, 0, 86, 84
1, 281280, Note_on_c, 0, 65, 76
1, 281280, Note_on_c, 0, 58, 64
1, 281280, Note_on_c, 0, 56, 64
1, 281280, Note_on_c, 0, 53, 64
1, 281286, Control_c, 0, 64, 0
1, 281320, Control_c, 0, 64, 127
1, 281400, Note_on_c, 0, 86, 0
1, 281400, Note_on_c, 0, 82, 83
1, 281520, Note_on_c, 0, 82, 0
1, 281520, Note_on_c, 0, 80, 81
1, 281640, Note_on_c, 0, 80, 0
1, 281640, Note_on_c, 0, 77, 80
1, 281760, Note_on_c, 0, 77, 0
1, 281760, Note_on_c, 0, 74, 79
1, 281880, Note_on_c, 0, 74, 0
1, 281880, Note_on_c, 0, 70, 77
1, 281980, Tempo, 378430
1, 282000, Note_on_c, 0, 70, 0
1, 282000, Note_on_c, 0, 68, 76
1, 282009, Control_c, 0, 64, 0
1, 282039, Control_c, 0, 64, 127
1, 282120, Note_on_c, 0, 68, 0
1, 282120, Note_on_c, 0, 56, 0
1, 282120, Note_on_c, 0, 65, 0
1, 282120, Note_on_c, 0, 58, 0
1, 282120, Note_on_c, 0, 53, 0
1, 282120, Note_on_c, 0, 65, 70
1, 282140, Tempo, 379675
1, 282240, Note_on_c, 0, 65, 0
1, 282240, Note_on_c, 0, 62, 69
1, 282280, Tempo, 380904
1, 282360, Note_on_c, 0, 62, 0
1, 282360, Note_on_c, 0, 58, 68
1, 282420, Tempo, 382166
1, 282480, Note_on_c, 0, 58, 0
1, 282480, Note_on_c, 0, 56, 67
1, 282560, Tempo, 383411
1, 282600, Note_on_c, 0, 56, 0
1, 282600, Note_on_c, 0, 53, 66
1, 282700, Tempo, 384689
1, 282720, Note_on_c, 0, 53, 0
1, 282720, Note_on_c, 0, 68, 75
1, 282720, Note_on_c, 0, 62, 62
1, 282720, Note_on_c, 0, 64, 62
1, 282720, Note_on_c, 0, 50, 65
1, 282729, Control_c, 0, 64, 0
1, 282767, Control_c, 0, 64, 127
1, 282840, Tempo, 385976
1, 282840, Note_on_c, 0, 50, 0
1, 282840, Note_on_c, 0, 46, 64
1, 282960, Note_on_c, 0, 46, 0
1, 282960, Note_on_c, 0, 44, 63
1, 282980, Tempo, 387247
1, 283080, Note_on_c, 0, 44, 0
1, 283080, Note_on_c, 0, 41, 62
1, 283200, Note_on_c, 0, 41, 0
1, 283200, Note_on_c, 0, 38, 61
1, 283320, Tempo, 402010
1, 283320, Note_on_c, 0, 38, 0
1, 283320, Note_on_c, 0, 34, 60
1, 283440, Tempo, 380614
1, 283440, Note_on_c, 0, 34, 0
1, 283440, Note_on_c, 0, 64, 0
1, 283440, Note_on_c, 0, 62, 0
1, 283440, Note_on_c, 0, 68, 0
1, 283440, Note_on_c, 0, 61, 65
1, 283440, Note_on_c, 0, 69, 65
1, 283440, Note_on_c, 0, 33, 52
1, 283440, Control_c, 0, 64, 0
1, 283560, Note_on_c, 0, 62, 66
1, 283560, Note_on_c, 0, 35, 53
1, 283580, Note_on_c, 0, 33, 0
1, 283580, Note_on_c, 0, 61, 0
1, 283580, Note_on_c, 0, 69, 0
1, 283680, Note_on_c, 0, 64, 66
1, 283680, Note_on_c, 0, 37, 54
1, 283700, Note_on_c, 0, 62, 0
1, 283700, Note_on_c, 0, 35, 0
1, 283800, Note_on_c, 0, 66, 67
1, 283800, Note_on_c, 0, 38, 55
1, 283820, Note_on_c, 0, 64, 0
1, 283820, Note_on_c, 0, 37, 0
1, 283920, Tempo, 379339
1, 283920, Note_on_c, 0, 68, 68
1, 283920, Note_on_c, 0, 40, 56
1, 283940, Note_on_c, 0, 66, 0
1, 283940, Note_on_c, 0, 38, 0
1, 284040, Note_on_c, 0, 69, 69
1, 284040, Note_on_c, 0, 42, 57
1, 284060, Note_on_c, 0, 68, 0
1, 284060, Note_on_c, 0, 40, 0
1, 284160, Note_on_c, 0, 71, 70
1, 284160, Note_on_c, 0, 44, 58
1, 284180, Note_on_c, 0, 69, 0
1, 284180, Note_on_c, 0, 42, 0
1, 284280, Note_on_c, 0, 73, 71
1, 284280, Note_on_c, 0, 45, 59
1, 284300, Note_on_c, 0, 71, 0
1, 284300, Note_on_c, 0, 44, 0
1, 284400, Tempo, 378072
1, 284400, Note_on_c, 0, 74, 72
1, 284400, Note_on_c, 0, 47, 60
1, 284420, Note_on_c, 0, 73, 0
1, 284420, Note_on_c, 0, 45, 0
1, 284520, Note_on_c, 0, 76, 73
1, 284520, Note_on_c, 0, 49, 61
1, 284540, Note_on_c, 0, 74, 0
1, 284540, Note_on_c, 0, 47, 0
1, 284640, Note_on_c, 0, 78, 74
1, 284640, Note_on_c, 0, 50, 62
1, 284660, Note_on_c, 0, 76, 0
1, 284660, Note_on_c, 0, 49, 0
1, 284760, Note_on_c, 0, 80, 74
1, 284760, Note_on_c, 0, 52, 63
1, 284780, Note_on_c, 0, 78, 0
1, 284780, Note_on_c, 0, 50, 0
1, 284860, Tempo, 376813
1, 284880, Note_on_c, 0, 81, 75
1, 284880, Note_on_c, 0, 54, 64
1, 284900, Note_on_c, 0, 80, 0
1, 284900, Note_on_c, 0, 52, 0
1, 285000, Note_on_c, 0, 83, 76
1, 285000, Note_on_c, 0, 56, 65
1, 285020, Note_on_c, 0, 81, 0
1, 285020, Note_on_c, 0, 54, 0
1, 285120, Note_on_c, 0, 85, 77
1, 285120, Note_on_c, 0, 57, 66
1, 285140, Note_on_c, 0, 83, 0
1, 285140, Note_on_c, 0, 56, 0
1, 285160, Tempo, 375563
1, 285240, Note_on_c, 0, 86, 78
1, 285240, Note_on_c, 0, 59, 67
1, 285260, Note_on_c, 0, 85, 0
1, 285260, Note_on_c, 0, 57, 0
1, 285360, Note_on_c, 0, 88, 79
1, 285360, Note_on_c, 0, 61, 69
1, 285380, Note_on_c, 0, 86, 0
1, 285380, Note_on_c, 0, 59, 0
1, 285440, Tempo, 374322
1, 285480, Note_on_c, 0, 90, 80
1, 285480, Note_on_c, 0, 62, 70
1, 285500, Note_on_c, 0, 88, 0
1, 285500, Note_on_c, 0, 61, 0
1, 285600, Note_on_c, 0, 92, 81
1, 285600, Note_on_c, 0, 64, 71
1, 285620, Note_on_c, 0, 90, 0
1, 285620, Note_on_c, 0, 62, 0
1, 285720, Note_on_c, 0, 93, 81
1, 285720, Note_on_c, 0, 66, 72
1, 285740, Tempo, 373088
1, 285740, Note_on_c, 0, 92, 0
1, 285740, Note_on_c, 0, 64, 0
1, 285840, Note_on_c, 0, 95, 82
1, 285840, Note_on_c, 0, 68, 73
1, 285860, Note_on_c, 0, 93, 0
1, 285860, Note_on_c, 0, 66, 0
1, 285960, Note_on_c, 0, 97, 83
1, 285960, Note_on_c, 0, 69, 74
1, 285980, Note_on_c, 0, 95, 0
1, 285980, Note_on_c, 0, 68, 0
1, 286020, Tempo, 371862
1, 286080, Note_on_c, 0, 98, 84
1, 286080, Note_on_c, 0, 71, 75
1, 286100, Note_on_c, 0, 97, 0
1, 286100, Note_on_c, 0, 69, 0
1, 286200, Note_on_c, 0, 99, 85
1, 286200, Note_on_c, 0, 72, 76
1, 286220, Note_on_c, 0, 98, 0
1, 286220, Note_on_c, 0, 71, 0
1, 286300, Tempo, 370645
1, 286320, Note_on_c, 0, 100, 91
1, 286320, Note_on_c, 0, 73, 79
1, 286340, Note_on_c, 0, 99, 0
1, 286340, Note_on_c, 0, 72, 0
1, 286354, Control_c, 0, 64, 127
1, 286440, Note_on_c, 0, 100, 0
1, 286440, Note_on_c, 0, 73, 0
1, 286440, Note_on_c, 0, 97, 82
1, 286440, Note_on_c, 0, 76, 70
1, 286560, Note_on_c, 0, 76, 0
1, 286560, Note_on_c, 0, 97, 0
1, 286560, Note_on_c, 0, 93, 82
1, 286560, Note_on_c, 0, 81, 68
1, 286680, Note_on_c, 0, 81, 0
1, 286680, Note_on_c, 0, 93, 0
1, 286680, Note_on_c, 0, 88, 85
1, 286680, Note_on_c, 0, 85, 73
1, 286800, Note_on_c, 0, 85, 0
1, 286800, Note_on_c, 0, 88, 0
1, 286800, Note_on_c, 0, 86, 81
1, 286800, Note_on_c, 0, 83, 70
1, 286920, Tempo, 393830
1, 286920, Note_on_c, 0, 83, 0
1, 286920, Note_on_c, 0, 86, 0
1, 286920, Note_on_c, 0, 92, 82
1, 286920, Note_on_c, 0, 76, 70
1, 287040, Tempo, 370645
1, 287040, Note_on_c, 0, 76, 0
1, 287040, Note_on_c, 0, 92, 0
1, 287040, Note_on_c, 0, 93, 90
1, 287040, Note_on_c, 0, 73, 77
1, 287048, Control_c, 0, 64, 0
1, 287091, Control_c, 0, 64, 127
1, 287160, Note_on_c, 0, 73, 0
1, 287160, Note_on_c, 0, 93, 0
1, 287160, Note_on_c, 0, 88, 85
1, 287160, Note_on_c, 0, 69, 73
1, 287280, Note_on_c, 0, 69, 0
1, 287280, Note_on_c, 0, 88, 0
1, 287280, Note_on_c, 0, 85, 81
1, 287280, Note_on_c, 0, 64, 71
1, 287400, Note_on_c, 0, 64, 0
1, 287400, Note_on_c, 0, 85, 0
1, 287400, Note_on_c, 0, 81, 81
1, 287400, Note_on_c, 0, 61, 71
1, 287520, Note_on_c, 0, 61, 0
1, 287520, Note_on_c, 0, 81, 0
1, 287520, Note_on_c, 0, 80, 77
1, 287520, Note_on_c, 0, 64, 66
1, 287640, Tempo, 393830
1, 287640, Note_on_c, 0, 64, 0
1, 287640, Note_on_c, 0, 80, 0
1, 287640, Note_on_c, 0, 86, 77
1, 287640, Note_on_c, 0, 71, 66
1, 287760, Tempo, 370645
1, 287760, Note_on_c, 0, 71, 0
1, 287760, Note_on_c, 0, 86, 0
1, 287760, Note_on_c, 0, 88, 83
1, 287760, Note_on_c, 0, 61, 71
1, 287766, Control_c, 0, 64, 0
1, 287811, Control_c, 0, 64, 127
1, 287880, Note_on_c, 0, 61, 0
1, 287880, Note_on_c, 0, 88, 0
1, 287880, Note_on_c, 0, 85, 76
1, 287880, Note_on_c, 0, 64, 65
1, 288000, Note_on_c, 0, 64, 0
1, 288000, Note_on_c, 0, 85, 0
1, 288000, Note_on_c, 0, 81, 76
1, 288000, Note_on_c, 0, 69, 65
1, 288120, Note_on_c, 0, 69, 0
1, 288120, Note_on_c, 0, 81, 0
1, 288120, Note_on_c, 0, 76, 76
1, 288120, Note_on_c, 0, 73, 65
1, 288240, Note_on_c, 0, 73, 0
1, 288240, Note_on_c, 0, 76, 0
1, 288240, Note_on_c, 0, 74, 72
1, 288240, Note_on_c, 0, 71, 63
1, 288360, Tempo, 391109
1, 288360, Note_on_c, 0, 71, 0
1, 288360, Note_on_c, 0, 74, 0
1, 288360, Note_on_c, 0, 80, 73
1, 288360, Note_on_c, 0, 64, 63
1, 288480, Tempo, 370645
1, 288480, Note_on_c, 0, 64, 0
1, 288480, Note_on_c, 0, 80, 0
1, 288480, Note_on_c, 0, 81, 82
1, 288480, Note_on_c, 0, 61, 71
1, 288490, Control_c, 0, 64, 0
1, 288554, Control_c, 0, 64, 127
1, 288600, Note_on_c, 0, 61, 0
1, 288600, Note_on_c, 0, 81, 0
1, 288600, Note_on_c, 0, 76, 76
1, 288600, Note_on_c, 0, 57, 65
1, 288720, Note_on_c, 0, 57, 0
1, 288720, Note_on_c, 0, 76, 0
1, 288720, Note_on_c, 0, 73, 76
1, 288720, Note_on_c, 0, 52, 65
1, 288840, Note_on_c, 0, 52, 0
1, 288840, Note_on_c, 0, 73, 0
1, 288840, Note_on_c, 0, 69, 76
1, 288840, Note_on_c, 0, 49, 65
1, 288960, Note_on_c, 0, 49, 0
1, 288960, Note_on_c, 0, 69, 0
1, 288960, Note_on_c, 0, 68, 72
1, 288960, Note_on_c, 0, 52, 63
1, 289080, Tempo, 385778
1, 289080, Note_on_c, 0, 52, 0
1, 289080, Note_on_c, 0, 68, 0
1, 289080, Note_on_c, 0, 74, 72
1, 289080, Note_on_c, 0, 59, 63
1, 289200, Tempo, 370645
1, 289200, Note_on_c, 0, 59, 0
1, 289200, Note_on_c, 0, 74, 0
1, 289200, Note_on_c, 0, 76, 70
1, 289200, Note_on_c, 0, 49, 60
1, 289206, Control_c, 0, 64, 0
1, 289246, Control_c, 0, 64, 127
1, 289320, Note_on_c, 0, 49, 0
1, 289320, Note_on_c, 0, 76, 0
1, 289320, Note_on_c, 0, 73, 63
1, 289320, Note_on_c, 0, 52, 54
1, 289440, Note_on_c, 0, 52, 0
1, 289440, Note_on_c, 0, 73, 0
1, 289440, Note_on_c, 0, 69, 63
1, 289440, Note_on_c, 0, 57, 53
1, 289560, Note_on_c, 0, 57, 0
1, 289560, Note_on_c, 0, 69, 0
1, 289560, Note_on_c, 0, 64, 62
1, 289560, Note_on_c, 0, 61, 53
1, 289680, Note_on_c, 0, 61, 0
1, 289680, Note_on_c, 0, 64, 0
1, 289680, Note_on_c, 0, 62, 57
1, 289680, Note_on_c, 0, 59, 50
1, 289800, Tempo, 389762
1, 289800, Note_on_c, 0, 59, 0
1, 289800, Note_on_c, 0, 62, 0
1, 289800, Note_on_c, 0, 68, 57
1, 289800, Note_on_c, 0, 52, 49
1, 289920, Tempo, 370645
1, 289920, Note_on_c, 0, 52, 0
1, 289920, Note_on_c, 0, 68, 0
1, 289920, Note_on_c, 0, 69, 63
1, 289920, Note_on_c, 0, 49, 56
1, 289931, Control_c, 0, 64, 0
1, 289971, Control_c, 0, 64, 127
1, 290040, Note_on_c, 0, 49, 0
1, 290040, Note_on_c, 0, 69, 0
1, 290040, Note_on_c, 0, 64, 57
1, 290040, Note_on_c, 0, 45, 49
1, 290160, Note_on_c, 0, 45, 0
1, 290160, Note_on_c, 0, 64, 0
1, 290160, Note_on_c, 0, 61, 55
1, 290160, Note_on_c, 0, 40, 46
1, 290280, Note_on_c, 0, 40, 0
1, 290280, Note_on_c, 0, 61, 0
1, 290280, Note_on_c, 0, 57, 53
1, 290280, Note_on_c, 0, 37, 45
1, 290400, Note_on_c, 0, 37, 0
1, 290400, Note_on_c, 0, 57, 0
1, 290400, Note_on_c, 0, 56, 48
1, 290400, Note_on_c, 0, 40, 42
1, 290520, Tempo, 389762
1, 290520, Note_on_c, 0, 40, 0
1, 290520, Note_on_c, 0, 56, 0
1, 290520, Note_on_c, 0, 62, 46
1, 290520, Note_on_c, 0, 47, 41
1, 290620, Tempo, 378072
1, 290640, Note_on_c, 0, 47, 0
1, 290640, Note_on_c, 0, 62, 0
1, 290640, Note_on_c, 0, 64, 48
1, 290640, Note_on_c, 0, 33, 41
1, 290650, Control_c, 0, 64, 0
1, 290680, Tempo, 376813
1, 290720, Tempo, 375563
1, 290760, Note_on_c, 0, 61, 51
1, 290760, Note_on_c, 0, 40, 45
1, 290780, Tempo, 374322
1, 290780, Note_on_c, 0, 33, 0
1, 290780, Note_on_c, 0, 64, 0
1, 290820, Tempo, 373088
1, 290860, Tempo, 371862
1, 290880, Note_on_c, 0, 57, 54
1, 290880, Note_on_c, 0, 48, 48
1, 290900, Note_on_c, 0, 61, 0
1, 290900, Note_on_c, 0, 40, 0
1, 290920, Tempo, 370645
1, 290960, Tempo, 369435
1, 291000, Tempo, 368256
1, 291000, Note_on_c, 0, 52, 51
1, 291000, Note_on_c, 0, 49, 45
1, 291020, Note_on_c, 0, 57, 0
1, 291020, Note_on_c, 0, 48, 0
1, 291060, Tempo, 369435
1, 291120, Tempo, 370645
1, 291120, Note_on_c, 0, 56, 48
1, 291120, Note_on_c, 0, 47, 40
1, 291140, Note_on_c, 0, 52, 0
1, 291140, Note_on_c, 0, 49, 0
1, 291180, Tempo, 371862
1, 291240, Tempo, 373088
1, 291240, Note_on_c, 0, 62, 48
1, 291240, Note_on_c, 0, 40, 40
1, 291260, Note_on_c, 0, 56, 0
1, 291260, Note_on_c, 0, 47, 0
1, 291300, Tempo, 374322
1, 291360, Tempo, 380614
1, 291360, Note_on_c, 0, 64, 48
1, 291360, Note_on_c, 0, 33, 41
1, 291380, Note_on_c, 0, 62, 0
1, 291380, Note_on_c, 0, 40, 0
1, 291400, Tempo, 379339
1, 291440, Tempo, 378072
1, 291480, Tempo, 376813
1, 291480, Note_on_c, 0, 61, 51
1, 291480, Note_on_c, 0, 40, 45
1, 291500, Note_on_c, 0, 64, 0
1, 291500, Note_on_c, 0, 33, 0
1, 291520, Tempo, 375563
1, 291560, Tempo, 374322
1, 291600, Tempo, 373088
1, 291600, Note_on_c, 0, 57, 54
1, 291600, Note_on_c, 0, 48, 48
1, 291620, Note_on_c, 0, 61, 0
1, 291620, Note_on_c, 0, 40, 0
1, 291640, Tempo, 371862
1, 291680, Tempo, 370645
1, 291720, Tempo, 369435
1, 291720, Note_on_c, 0, 52, 51
1, 291720, Note_on_c, 0, 49, 45
1, 291740, Note_on_c, 0, 57, 0
1, 291740, Note_on_c, 0, 48, 0
1, 291780, Tempo, 368256
1, 291820, Tempo, 369435
1, 291840, Note_on_c, 0, 56, 48
1, 291840, Note_on_c, 0, 47, 40
1, 291860, Tempo, 370645
1, 291860, Note_on_c, 0, 52, 0
1, 291860, Note_on_c, 0, 49, 0
1, 291900, Tempo, 371862
1, 291940, Tempo, 373088
1, 291960, Note_on_c, 0, 62, 47
1, 291960, Note_on_c, 0, 40, 41
1, 291980, Tempo, 374322
1, 291980, Note_on_c, 0, 56, 0
1, 291980, Note_on_c, 0, 47, 0
1, 292020, Tempo, 375563
1, 292060, Tempo, 376813
1, 292080, Note_on_c, 0, 64, 36
1, 292080, Note_on_c, 0, 33, 31
1, 292100, Tempo, 378072
1, 292100, Note_on_c, 0, 62, 0
1, 292100, Note_on_c, 0, 40, 0
1, 292160, Tempo, 376813
1, 292200, Note_on_c, 0, 61, 38
1, 292200, Note_on_c, 0, 40, 33
1, 292220, Tempo, 375563
1, 292220, Note_on_c, 0, 64, 0
1, 292220, Note_on_c, 0, 33, 0
1, 292280, Tempo, 374322
1, 292320, Note_on_c, 0, 57, 40
1, 292320, Note_on_c, 0, 48, 36
1, 292340, Tempo, 373088
1, 292340, Note_on_c, 0, 61, 0
1, 292340, Note_on_c, 0, 40, 0
1, 292400, Tempo, 371862
1, 292440, Note_on_c, 0, 52, 38
1, 292440, Note_on_c, 0, 49, 34
1, 292460, Tempo, 370645
1, 292460, Note_on_c, 0, 57, 0
1, 292460, Note_on_c, 0, 48, 0
1, 292480, Tempo, 369435
1, 292520, Tempo, 370645
1, 292560, Tempo, 371862
1, 292560, Note_on_c, 0, 56, 35
1, 292560, Note_on_c, 0, 47, 29
1, 292580, Note_on_c, 0, 52, 0
1, 292580, Note_on_c, 0, 49, 0
1, 292600, Tempo, 373088
1, 292640, Tempo, 374322
1, 292680, Tempo, 375563
1, 292680, Note_on_c, 0, 62, 35
1, 292680, Note_on_c, 0, 40, 30
1, 292700, Note_on_c, 0, 56, 0
1, 292700, Note_on_c, 0, 47, 0
1, 292720, Tempo, 376813
1, 292760, Tempo, 378072
1, 292800, Tempo, 379339
1, 292800, Note_on_c, 0, 64, 36
1, 292800, Note_on_c, 0, 33, 31
1, 292820, Note_on_c, 0, 62, 0
1, 292820, Note_on_c, 0, 40, 0
1, 292840, Tempo, 378072
1, 292880, Tempo, 376813
1, 292920, Tempo, 375563
1, 292920, Note_on_c, 0, 61, 38
1, 292920, Note_on_c, 0, 40, 33
1, 292940, Note_on_c, 0, 64, 0
1, 292940, Note_on_c, 0, 33, 0
1, 292960, Tempo, 374322
1, 292980, Tempo, 373088
1, 293020, Tempo, 371862
1, 293040, Note_on_c, 0, 57, 40
1, 293040, Note_on_c, 0, 48, 36
1, 293060, Tempo, 370645
1, 293060, Note_on_c, 0, 61, 0
1, 293060, Note_on_c, 0, 40, 0
1, 293100, Tempo, 369435
1, 293140, Tempo, 368256
1, 293160, Tempo, 367062
1, 293160, Note_on_c, 0, 52, 38
1, 293160, Note_on_c, 0, 49, 34
1, 293180, Note_on_c, 0, 57, 0
1, 293180, Note_on_c, 0, 48, 0
1, 293200, Tempo, 368256
1, 293240, Tempo, 369435
1, 293260, Tempo, 370645
1, 293280, Note_on_c, 0, 56, 35
1, 293280, Note_on_c, 0, 47, 27
1, 293300, Tempo, 371862
1, 293300, Note_on_c, 0, 52, 0
1, 293300, Note_on_c, 0, 49, 0
1, 293320, Tempo, 373088
1, 293360, Tempo, 374322
1, 293400, Tempo, 375563
1, 293400, Note_on_c, 0, 62, 35
1, 293400, Note_on_c, 0, 40, 27
1, 293420, Tempo, 376813
1, 293420, Note_on_c, 0, 56, 0
1, 293420, Note_on_c, 0, 47, 0
1, 293460, Tempo, 378072
1, 293480, Tempo, 379339
1, 293520, Tempo, 401338
1, 293520, Note_on_c, 0, 57, 36
1, 293520, Note_on_c, 0, 64, 36
1, 293520, Note_on_c, 0, 33, 31
1, 293540, Note_on_c, 0, 62, 0
1, 293540, Note_on_c, 0, 40, 0
1, 293640, Note_on_c, 0, 58, 36
1, 293660, Note_on_c, 0, 64, 0
1, 293660, Note_on_c, 0, 57, 0
1, 293760, Tempo, 400000
1, 293760, Note_on_c, 0, 33, 0
1, 293760, Note_on_c, 0, 59, 36
1, 293780, Note_on_c, 0, 58, 0
1, 293800, Tempo, 398671
1, 293840, Tempo, 397351
1, 293880, Note_on_c, 0, 60, 35
1, 293900, Tempo, 396040
1, 293900, Note_on_c, 0, 59, 0
1, 293920, Tempo, 398671
1, 293940, Tempo, 402685
1, 293980, Tempo, 404040
1, 294000, Note_on_c, 0, 61, 35
1, 294020, Tempo, 401338
1, 294020, Note_on_c, 0, 60, 0
1, 294040, Tempo, 398671
1, 294060, Tempo, 397351
1, 294080, Tempo, 396040
1, 294120, Note_on_c, 0, 62, 35
1, 294140, Tempo, 397351
1, 294140, Note_on_c, 0, 61, 0
1, 294180, Tempo, 398671
1, 294220, Tempo, 401338
1, 294240, Tempo, 402685
1, 294240, Note_on_c, 0, 63, 35
1, 294260, Tempo, 404040
1, 294260, Note_on_c, 0, 62, 0
1, 294320, Tempo, 402685
1, 294340, Tempo, 401338
1, 294360, Tempo, 398671
1, 294360, Note_on_c, 0, 64, 34
1, 294380, Note_on_c, 0, 63, 0
1, 294420, Tempo, 400000
1, 294460, Tempo, 402685
1, 294480, Tempo, 405405
1, 294480, Note_on_c, 0, 65, 34
1, 294500, Tempo, 408163
1, 294500, Note_on_c, 0, 64, 0
1, 294520, Tempo, 409556
1, 294580, Tempo, 408163
1, 294600, Tempo, 405405
1, 294600, Note_on_c, 0, 66, 34
1, 294620, Tempo, 404040
1, 294620, Note_on_c, 0, 65, 0
1, 294640, Tempo, 402685
1, 294680, Tempo, 401338
1, 294700, Tempo, 400000
1, 294720, Tempo, 398671
1, 294720, Note_on_c, 0, 67, 33
1, 294740, Tempo, 397351
1, 294740, Note_on_c, 0, 66, 0
1, 294800, Tempo, 398671
1, 294840, Note_on_c, 0, 68, 33
1, 294860, Note_on_c, 0, 67, 0
1, 294960, Tempo, 402685
1, 294960, Note_on_c, 0, 69, 33
1, 294980, Note_on_c, 0, 68, 0
1, 295080, Note_on_c, 0, 68, 29
1, 295100, Note_on_c, 0, 69, 0
1, 295200, Note_on_c, 0, 69, 33
1, 295220, Note_on_c, 0, 68, 0
1, 295260, Tempo, 404040
1, 295320, Note_on_c, 0, 68, 30
1, 295340, Note_on_c, 0, 69, 0
1, 295440, Note_on_c, 0, 69, 33
1, 295460, Note_on_c, 0, 68, 0
1, 295560, Tempo, 405405
1, 295560, Note_on_c, 0, 68, 29
1, 295580, Note_on_c, 0, 69, 0
1, 295680, Note_on_c, 0, 69, 33
1, 295700, Note_on_c, 0, 68, 0
1, 295800, Note_on_c, 0, 68, 30
1, 295820, Note_on_c, 0, 69, 0
1, 295840, Tempo, 406780
1, 295920, Note_on_c, 0, 69, 33
1, 295940, Note_on_c, 0, 68, 0
1, 296040, Note_on_c, 0, 68, 30
1, 296060, Note_on_c, 0, 69, 0
1, 296140, Tempo, 408163
1, 296160, Note_on_c, 0, 69, 33
1, 296180, Note_on_c, 0, 68, 0
1, 296280, Note_on_c, 0, 68, 29
1, 296300, Note_on_c, 0, 69, 0
1, 296400, Tempo, 409556
1, 296400, Note_on_c, 0, 69, 33
1, 296420, Note_on_c, 0, 68, 0
1, 296440, Tempo, 410959
1, 296480, Tempo, 412371
1, 296520, Tempo, 413793
1, 296520, Note_on_c, 0, 68, 29
1, 296540, Tempo, 415225
1, 296540, Note_on_c, 0, 69, 0
1, 296580, Tempo, 416667
1, 296620, Tempo, 418118
1, 296640, Tempo, 419580
1, 296640, Note_on_c, 0, 69, 33
1, 296660, Note_on_c, 0, 68, 0
1, 296680, Tempo, 421053
1, 296720, Tempo, 422535
1, 296760, Tempo, 424028
1, 296760, Note_on_c, 0, 68, 30
1, 296780, Tempo, 425532
1, 296780, Note_on_c, 0, 69, 0
1, 296820, Tempo, 427046
1, 296860, Tempo, 428571
1, 296880, Tempo, 430108
1, 296880, Note_on_c, 0, 69, 33
1, 296900, Note_on_c, 0, 68, 0
1, 296920, Tempo, 431655
1, 296960, Tempo, 433213
1, 297000, Tempo, 434783
1, 297000, Note_on_c, 0, 68, 30
1, 297020, Tempo, 436364
1, 297020, Note_on_c, 0, 69, 0
1, 297060, Tempo, 437956
1, 297060, Note_on_c, 0, 68, 0
1, 297060, Note_on_c, 0, 70, 39
1, 297100, Tempo, 439560
1, 297120, Tempo, 441176
1, 297120, Note_on_c, 0, 70, 0
1, 297120, Note_on_c, 0, 69, 41
1, 297120, Note_on_c, 0, 48, 34
1, 297159, Control_c, 0, 64, 127
1, 297240, Note_on_c, 0, 48, 0
1, 297240, Note_on_c, 0, 69, 0
1, 297240, Note_on_c, 0, 64, 34
1, 297240, Note_on_c, 0, 60, 29
1, 297340, Tempo, 436364
1, 297360, Note_on_c, 0, 60, 0
1, 297360, Note_on_c, 0, 64, 0
1, 297360, Note_on_c, 0, 68, 42
1, 297360, Note_on_c, 0, 54, 34
1, 297380, Tempo, 434783
1, 297420, Tempo, 433213
1, 297460, Tempo, 431655
1, 297480, Note_on_c, 0, 54, 0
1, 297480, Note_on_c, 0, 68, 0
1, 297480, Note_on_c, 0, 64, 34
1, 297480, Note_on_c, 0, 60, 30
1, 297500, Tempo, 430108
1, 297540, Tempo, 428571
1, 297580, Tempo, 427046
1, 297600, Note_on_c, 0, 60, 0
1, 297600, Note_on_c, 0, 64, 0
1, 297600, Note_on_c, 0, 69, 42
1, 297600, Note_on_c, 0, 54, 34
1, 297620, Tempo, 425532
1, 297720, Tempo, 491803
1, 297720, Note_on_c, 0, 54, 0
1, 297720, Note_on_c, 0, 69, 0
1, 297720, Note_on_c, 0, 64, 36
1, 297720, Note_on_c, 0, 60, 30
1, 297780, Tempo, 424028
1, 297780, Note_on_c, 0, 64, 0
1, 297780, Note_on_c, 0, 72, 38
1, 297840, Tempo, 418118
1, 297840, Note_on_c, 0, 72, 0
1, 297840, Note_on_c, 0, 60, 0
1, 297840, Note_on_c, 0, 70, 44
1, 297840, Control_c, 0, 64, 0
1, 297840, Note_on_c, 0, 48, 38
1, 297879, Control_c, 0, 64, 127
1, 297960, Note_on_c, 0, 48, 0
1, 297960, Note_on_c, 0, 70, 0
1, 297960, Note_on_c, 0, 64, 38
1, 297960, Note_on_c, 0, 60, 31
1, 298080, Tempo, 413793
1, 298080, Note_on_c, 0, 60, 0
1, 298080, Note_on_c, 0, 64, 0
1, 298080, Note_on_c, 0, 69, 47
1, 298080, Note_on_c, 0, 55, 40
1, 298200, Note_on_c, 0, 55, 0
1, 298200, Note_on_c, 0, 69, 0
1, 298200, Note_on_c, 0, 64, 38
1, 298200, Note_on_c, 0, 60, 32
1, 298320, Tempo, 418118
1, 298320, Note_on_c, 0, 60, 0
1, 298320, Note_on_c, 0, 64, 0
1, 298320, Note_on_c, 0, 70, 48
1, 298320, Note_on_c, 0, 55, 42
1, 298440, Note_on_c, 0, 55, 0
1, 298440, Note_on_c, 0, 70, 0
1, 298440, Note_on_c, 0, 64, 40
1, 298440, Note_on_c, 0, 60, 31
1, 298560, Tempo, 425532
1, 298560, Note_on_c, 0, 60, 0
1, 298560, Note_on_c, 0, 64, 0
1, 298560, Note_on_c, 0, 71, 50
1, 298560, Note_on_c, 0, 48, 43
1, 298565, Control_c, 0, 64, 0
1, 298588, Control_c, 0, 64, 127
1, 298680, Tempo, 472441
1, 298680, Note_on_c, 0, 48, 0
1, 298680, Note_on_c, 0, 71, 0
1, 298680, Note_on_c, 0, 65, 41
1, 298680, Note_on_c, 0, 62, 32
1, 298800, Tempo, 419580
1, 298800, Note_on_c, 0, 62, 0
1, 298800, Note_on_c, 0, 65, 0
1, 298800, Note_on_c, 0, 77, 51
1, 298800, Note_on_c, 0, 56, 48
1, 298810, Control_c, 0, 64, 0
1, 298855, Control_c, 0, 64, 127
1, 298920, Note_on_c, 0, 56, 0
1, 298920, Note_on_c, 0, 65, 41
1, 298920, Note_on_c, 0, 62, 39
1, 299040, Note_on_c, 0, 62, 0
1, 299040, Note_on_c, 0, 65, 0
1, 299040, Note_on_c, 0, 71, 47
1, 299040, Note_on_c, 0, 56, 45
1, 299160, Tempo, 493827
1, 299160, Note_on_c, 0, 56, 0
1, 299160, Note_on_c, 0, 71, 0
1, 299160, Note_on_c, 0, 65, 39
1, 299160, Note_on_c, 0, 62, 33
1, 299220, Tempo, 424028
1, 299220, Note_on_c, 0, 65, 0
1, 299220, Note_on_c, 0, 74, 41
1, 299280, Tempo, 419580
1, 299280, Note_on_c, 0, 74, 0
1, 299280, Note_on_c, 0, 62, 0
1, 299280, Note_on_c, 0, 72, 50
1, 299280, Note_on_c, 0, 48, 44
1, 299289, Control_c, 0, 64, 0
1, 299343, Control_c, 0, 64, 127
1, 299400, Note_on_c, 0, 48, 0
1, 299400, Note_on_c, 0, 72, 0
1, 299400, Note_on_c, 0, 65, 42
1, 299400, Note_on_c, 0, 60, 34
1, 299520, Tempo, 415225
1, 299520, Note_on_c, 0, 60, 0
1, 299520, Note_on_c, 0, 65, 0
1, 299520, Note_on_c, 0, 71, 49
1, 299520, Note_on_c, 0, 57, 46
1, 299640, Note_on_c, 0, 57, 0
1, 299640, Note_on_c, 0, 71, 0
1, 299640, Note_on_c, 0, 65, 41
1, 299640, Note_on_c, 0, 60, 35
1, 299760, Tempo, 419580
1, 299760, Note_on_c, 0, 60, 0
1, 299760, Note_on_c, 0, 65, 0
1, 299760, Note_on_c, 0, 72, 49
1, 299760, Note_on_c, 0, 55, 47
1, 299880, Note_on_c, 0, 55, 0
1, 299880, Note_on_c, 0, 72, 0
1, 299880, Note_on_c, 0, 65, 44
1, 299880, Note_on_c, 0, 60, 36
1, 300000, Note_on_c, 0, 60, 0
1, 300000, Note_on_c, 0, 65, 0
1, 300000, Note_on_c, 0, 72, 51
1, 300000, Note_on_c, 0, 48, 48
1, 300006, Control_c, 0, 64, 0
1, 300046, Control_c, 0, 64, 127
1, 300120, Note_on_c, 0, 48, 0
1, 300120, Note_on_c, 0, 72, 0
1, 300120, Note_on_c, 0, 69, 44
1, 300120, Note_on_c, 0, 62, 37
1, 300240, Tempo, 430108
1, 300240, Note_on_c, 0, 62, 0
1, 300240, Note_on_c, 0, 69, 0
1, 300240, Note_on_c, 0, 77, 0
1, 300240, Note_on_c, 0, 81, 56
1, 300240, Note_on_c, 0, 75, 47
1, 300240, Note_on_c, 0, 54, 49
1, 300250, Control_c, 0, 64, 0
1, 300303, Control_c, 0, 64, 127
1, 300360, Tempo, 470588
1, 300360, Note_on_c, 0, 54, 0
1, 300360, Note_on_c, 0, 75, 0
1, 300360, Note_on_c, 0, 65, 47
1, 300360, Note_on_c, 0, 62, 39
1, 300480, Tempo, 419580
1, 300480, Note_on_c, 0, 62, 0
1, 300480, Note_on_c, 0, 65, 0
1, 300480, Note_on_c, 0, 74, 52
1, 300480, Note_on_c, 0, 57, 48
1, 300600, Note_on_c, 0, 57, 0
1, 300600, Note_on_c, 0, 74, 0
1, 300600, Note_on_c, 0, 65, 45
1, 300600, Note_on_c, 0, 62, 38
1, 300720, Tempo, 431655
1, 300720, Note_on_c, 0, 62, 0
1, 300720, Note_on_c, 0, 65, 0
1, 300720, Note_on_c, 0, 74, 53
1, 300720, Note_on_c, 0, 48, 49
1, 300729, Control_c, 0, 64, 0
1, 300777, Control_c, 0, 64, 127
1, 300840, Tempo, 465116
1, 300840, Note_on_c, 0, 48, 0
1, 300840, Note_on_c, 0, 74, 0
1, 300840, Note_on_c, 0, 67, 45
1, 300840, Note_on_c, 0, 62, 40
1, 300960, Tempo, 419580
1, 300960, Note_on_c, 0, 62, 0
1, 300960, Note_on_c, 0, 67, 0
1, 300960, Note_on_c, 0, 81, 0
1, 300960, Note_on_c, 0, 79, 58
1, 300960, Note_on_c, 0, 70, 53
1, 300960, Note_on_c, 0, 55, 47
1, 300967, Control_c, 0, 64, 0
1, 301016, Control_c, 0, 64, 127
1, 301080, Note_on_c, 0, 55, 0
1, 301080, Note_on_c, 0, 70, 0
1, 301080, Note_on_c, 0, 67, 45
1, 301080, Note_on_c, 0, 62, 40
1, 301200, Tempo, 419580
1, 301200, Note_on_c, 0, 62, 0
1, 301200, Note_on_c, 0, 67, 0
1, 301200, Note_on_c, 0, 70, 51
1, 301200, Note_on_c, 0, 53, 51
1, 301320, Note_on_c, 0, 53, 0
1, 301320, Note_on_c, 0, 70, 0
1, 301320, Note_on_c, 0, 67, 45
1, 301320, Note_on_c, 0, 62, 38
1, 301440, Tempo, 430108
1, 301440, Note_on_c, 0, 62, 0
1, 301440, Note_on_c, 0, 67, 0
1, 301440, Note_on_c, 0, 70, 51
1, 301440, Note_on_c, 0, 48, 49
1, 301449, Control_c, 0, 64, 0
1, 301491, Control_c, 0, 64, 127
1, 301560, Tempo, 454545
1, 301560, Note_on_c, 0, 48, 0
1, 301560, Note_on_c, 0, 70, 0
1, 301560, Note_on_c, 0, 67, 45
1, 301560, Note_on_c, 0, 60, 38
1, 301680, Tempo, 419580
1, 301680, Note_on_c, 0, 60, 0
1, 301680, Note_on_c, 0, 67, 0
1, 301680, Note_on_c, 0, 79, 0
1, 301680, Note_on_c, 0, 79, 58
1, 301680, Note_on_c, 0, 73, 42
1, 301680, Note_on_c, 0, 52, 47
1, 301686, Control_c, 0, 64, 0
1, 301749, Control_c, 0, 64, 127
1, 301800, Note_on_c, 0, 52, 0
1, 301800, Note_on_c, 0, 73, 0
1, 301800, Note_on_c, 0, 67, 45
1, 301800, Note_on_c, 0, 60, 38
1, 301920, Note_on_c, 0, 60, 0
1, 301920, Note_on_c, 0, 67, 0
1, 301920, Note_on_c, 0, 72, 51
1, 301920, Note_on_c, 0, 55, 47
1, 302040, Note_on_c, 0, 55, 0
1, 302040, Note_on_c, 0, 72, 0
1, 302040, Note_on_c, 0, 67, 45
1, 302040, Note_on_c, 0, 60, 38
1, 302160, Tempo, 434783
1, 302160, Note_on_c, 0, 60, 0
1, 302160, Note_on_c, 0, 67, 0
1, 302160, Note_on_c, 0, 72, 51
1, 302160, Control_c, 0, 64, 0
1, 302160, Note_on_c, 0, 48, 48
1, 302224, Control_c, 0, 64, 127
1, 302280, Tempo, 452830
1, 302280, Note_on_c, 0, 48, 0
1, 302280, Note_on_c, 0, 72, 0
1, 302280, Note_on_c, 0, 65, 45
1, 302280, Note_on_c, 0, 60, 38
1, 302400, Tempo, 421053
1, 302400, Note_on_c, 0, 60, 0
1, 302400, Note_on_c, 0, 65, 0
1, 302400, Note_on_c, 0, 79, 0
1, 302400, Note_on_c, 0, 77, 58
1, 302400, Note_on_c, 0, 69, 45
1, 302400, Note_on_c, 0, 53, 47
1, 302520, Note_on_c, 0, 53, 0
1, 302520, Note_on_c, 0, 69, 0
1, 302520, Note_on_c, 0, 65, 45
1, 302520, Note_on_c, 0, 60, 37
1, 302640, Note_on_c, 0, 60, 0
1, 302640, Note_on_c, 0, 65, 0
1, 302640, Note_on_c, 0, 69, 45
1, 302640, Note_on_c, 0, 48, 46
1, 302760, Tempo, 447761
1, 302760, Note_on_c, 0, 48, 0
1, 302760, Note_on_c, 0, 69, 0
1, 302760, Note_on_c, 0, 65, 45
1, 302760, Note_on_c, 0, 60, 37
1, 302880, Tempo, 421053
1, 302880, Note_on_c, 0, 60, 0
1, 302880, Note_on_c, 0, 65, 0
1, 302880, Note_on_c, 0, 77, 0
1, 302880, Note_on_c, 0, 64, 55
1, 302880, Control_c, 0, 64, 0
1, 302880, Note_on_c, 0, 52, 46
1, 302929, Control_c, 0, 64, 127
1, 303000, Tempo, 410959
1, 303000, Note_on_c, 0, 60, 42
1, 303000, Note_on_c, 0, 57, 36
1, 303120, Tempo, 421053
1, 303120, Note_on_c, 0, 57, 0
1, 303120, Note_on_c, 0, 60, 0
1, 303120, Note_on_c, 0, 72, 43
1, 303120, Note_on_c, 0, 45, 37
1, 303240, Note_on_c, 0, 45, 0
1, 303240, Note_on_c, 0, 72, 0
1, 303240, Note_on_c, 0, 60, 43
1, 303240, Note_on_c, 0, 57, 37
1, 303360, Note_on_c, 0, 57, 0
1, 303360, Note_on_c, 0, 64, 0
1, 303360, Note_on_c, 0, 52, 0
1, 303360, Note_on_c, 0, 60, 0
1, 303360, Note_on_c, 0, 65, 51
1, 303360, Note_on_c, 0, 53, 43
1, 303480, Tempo, 441176
1, 303480, Note_on_c, 0, 60, 44
1, 303480, Note_on_c, 0, 57, 38
1, 303600, Tempo, 421053
1, 303600, Note_on_c, 0, 57, 0
1, 303600, Note_on_c, 0, 65, 0
1, 303600, Note_on_c, 0, 53, 0
1, 303600, Note_on_c, 0, 60, 0
1, 303600, Note_on_c, 0, 66, 57
1, 303600, Note_on_c, 0, 54, 48
1, 303610, Control_c, 0, 64, 0
1, 303664, Control_c, 0, 64, 127
1, 303720, Note_on_c, 0, 62, 45
1, 303720, Note_on_c, 0, 58, 38
1, 303840, Tempo, 413793
1, 303840, Note_on_c, 0, 58, 0
1, 303840, Note_on_c, 0, 62, 0
1, 303840, Note_on_c, 0, 74, 45
1, 303840, Note_on_c, 0, 46, 39
1, 303960, Tempo, 421053
1, 303960, Note_on_c, 0, 46, 0
1, 303960, Note_on_c, 0, 74, 0
1, 303960, Note_on_c, 0, 62, 45
1, 303960, Note_on_c, 0, 58, 39
1, 304080, Note_on_c, 0, 58, 0
1, 304080, Note_on_c, 0, 66, 0
1, 304080, Note_on_c, 0, 54, 0
1, 304080, Note_on_c, 0, 62, 0
1, 304080, Note_on_c, 0, 67, 54
1, 304080, Note_on_c, 0, 55, 45
1, 304200, Tempo, 442804
1, 304200, Note_on_c, 0, 62, 45
1, 304200, Note_on_c, 0, 58, 38
1, 304320, Tempo, 412371
1, 304320, Note_on_c, 0, 58, 0
1, 304320, Note_on_c, 0, 67, 0
1, 304320, Note_on_c, 0, 55, 0
1, 304320, Note_on_c, 0, 62, 0
1, 304320, Note_on_c, 0, 68, 59
1, 304320, Note_on_c, 0, 56, 50
1, 304330, Control_c, 0, 64, 0
1, 304384, Control_c, 0, 64, 127
1, 304440, Tempo, 418118
1, 304440, Note_on_c, 0, 64, 46
1, 304440, Note_on_c, 0, 60, 37
1, 304560, Note_on_c, 0, 60, 0
1, 304560, Note_on_c, 0, 64, 0
1, 304560, Note_on_c, 0, 76, 47
1, 304560, Note_on_c, 0, 48, 38
1, 304680, Note_on_c, 0, 48, 0
1, 304680, Note_on_c, 0, 76, 0
1, 304680, Note_on_c, 0, 64, 47
1, 304680, Note_on_c, 0, 60, 38
1, 304800, Note_on_c, 0, 60, 0
1, 304800, Note_on_c, 0, 68, 0
1, 304800, Note_on_c, 0, 56, 0
1, 304800, Note_on_c, 0, 64, 0
1, 304800, Note_on_c, 0, 69, 56
1, 304800, Note_on_c, 0, 57, 47
1, 304920, Tempo, 441176
1, 304920, Note_on_c, 0, 64, 48
1, 304920, Note_on_c, 0, 60, 40
1, 305040, Tempo, 418118
1, 305040, Note_on_c, 0, 60, 0
1, 305040, Note_on_c, 0, 69, 0
1, 305040, Note_on_c, 0, 57, 0
1, 305040, Note_on_c, 0, 64, 0
1, 305040, Note_on_c, 0, 69, 62
1, 305040, Note_on_c, 0, 57, 52
1, 305048, Control_c, 0, 64, 0
1, 305111, Control_c, 0, 64, 127
1, 305160, Tempo, 408163
1, 305160, Note_on_c, 0, 65, 48
1, 305160, Note_on_c, 0, 62, 41
1, 305280, Tempo, 418118
1, 305280, Note_on_c, 0, 62, 0
1, 305280, Note_on_c, 0, 65, 0
1, 305280, Note_on_c, 0, 77, 49
1, 305280, Note_on_c, 0, 50, 41
1, 305400, Note_on_c, 0, 50, 0
1, 305400, Note_on_c, 0, 77, 0
1, 305400, Note_on_c, 0, 65, 49
1, 305400, Note_on_c, 0, 62, 41
1, 305520, Note_on_c, 0, 62, 0
1, 305520, Note_on_c, 0, 69, 0
1, 305520, Note_on_c, 0, 57, 0
1, 305520, Note_on_c, 0, 65, 0
1, 305520, Note_on_c, 0, 70, 58
1, 305520, Note_on_c, 0, 58, 49
1, 305640, Tempo, 433213
1, 305640, Note_on_c, 0, 65, 49
1, 305640, Note_on_c, 0, 62, 42
1, 305760, Tempo, 418118
1, 305760, Note_on_c, 0, 62, 0
1, 305760, Note_on_c, 0, 70, 0
1, 305760, Note_on_c, 0, 58, 0
1, 305760, Note_on_c, 0, 65, 0
1, 305760, Note_on_c, 0, 71, 64
1, 305760, Note_on_c, 0, 59, 54
1, 305769, Control_c, 0, 64, 0
1, 305845, Control_c, 0, 64, 127
1, 305880, Tempo, 408163
1, 305880, Note_on_c, 0, 67, 50
1, 305880, Note_on_c, 0, 64, 43
1, 306000, Tempo, 418118
1, 306000, Note_on_c, 0, 64, 0
1, 306000, Note_on_c, 0, 67, 0
1, 306000, Note_on_c, 0, 79, 50
1, 306000, Note_on_c, 0, 52, 44
1, 306120, Note_on_c, 0, 52, 0
1, 306120, Note_on_c, 0, 67, 51
1, 306120, Note_on_c, 0, 64, 44
1, 306240, Note_on_c, 0, 64, 0
1, 306240, Note_on_c, 0, 71, 0
1, 306240, Note_on_c, 0, 59, 0
1, 306240, Note_on_c, 0, 67, 0
1, 306240, Note_on_c, 0, 72, 60
1, 306240, Note_on_c, 0, 60, 51
1, 306360, Tempo, 433213
1, 306360, Note_on_c, 0, 67, 49
1, 306360, Note_on_c, 0, 64, 42
1, 306480, Tempo, 416667
1, 306480, Note_on_c, 0, 64, 0
1, 306480, Note_on_c, 0, 60, 0
1, 306480, Note_on_c, 0, 79, 0
1, 306480, Note_on_c, 0, 72, 0
1, 306480, Note_on_c, 0, 67, 0
1, 306480, Note_on_c, 0, 81, 67
1, 306480, Note_on_c, 0, 53, 55
1, 306490, Control_c, 0, 64, 0
1, 306558, Control_c, 0, 64, 127
1, 306600, Note_on_c, 0, 69, 57
1, 306600, Note_on_c, 0, 65, 45
1, 306720, Tempo, 408163
1, 306720, Note_on_c, 0, 65, 0
1, 306720, Note_on_c, 0, 69, 0
1, 306720, Note_on_c, 0, 72, 57
1, 306720, Note_on_c, 0, 60, 45
1, 306840, Tempo, 415225
1, 306840, Note_on_c, 0, 60, 0
1, 306840, Note_on_c, 0, 72, 0
1, 306840, Note_on_c, 0, 69, 57
1, 306840, Note_on_c, 0, 65, 46
1, 306960, Note_on_c, 0, 65, 0
1, 306960, Note_on_c, 0, 81, 0
1, 306960, Note_on_c, 0, 53, 0
1, 306960, Note_on_c, 0, 69, 0
1, 306960, Note_on_c, 0, 71, 53
1, 306960, Control_c, 0, 64, 0
1, 306960, Note_on_c, 0, 62, 40
1, 307080, Tempo, 434783
1, 307080, Note_on_c, 0, 68, 46
1, 307080, Note_on_c, 0, 65, 37
1, 307200, Tempo, 415225
1, 307200, Note_on_c, 0, 65, 0
1, 307200, Note_on_c, 0, 71, 0
1, 307200, Note_on_c, 0, 62, 0
1, 307200, Note_on_c, 0, 68, 0
1, 307200, Note_on_c, 0, 70, 53
1, 307200, Note_on_c, 0, 61, 43
1, 307255, Control_c, 0, 64, 127
1, 307260, Tempo, 416667
1, 307320, Tempo, 418118
1, 307320, Note_on_c, 0, 67, 46
1, 307320, Note_on_c, 0, 64, 31
1, 307380, Tempo, 419580
1, 307440, Tempo, 421053
1, 307440, Note_on_c, 0, 64, 0
1, 307440, Note_on_c, 0, 70, 0
1, 307440, Note_on_c, 0, 61, 0
1, 307440, Note_on_c, 0, 67, 0
1, 307440, Note_on_c, 0, 76, 53
1, 307440, Note_on_c, 0, 60, 43
1, 307500, Tempo, 422535
1, 307560, Tempo, 424028
1, 307560, Note_on_c, 0, 67, 45
1, 307560, Note_on_c, 0, 64, 32
1, 307620, Tempo, 425532
1, 307660, Tempo, 427046
1, 307680, Note_on_c, 0, 64, 0
1, 307680, Note_on_c, 0, 76, 0
1, 307680, Note_on_c, 0, 60, 0
1, 307680, Note_on_c, 0, 67, 0
1, 307680, Note_on_c, 0, 79, 53
1, 307680, Note_on_c, 0, 58, 42
1, 307800, Note_on_c, 0, 67, 46
1, 307800, Note_on_c, 0, 64, 31
1, 307920, Note_on_c, 0, 64, 0
1, 307920, Note_on_c, 0, 79, 0
1, 307920, Note_on_c, 0, 58, 0
1, 307920, Note_on_c, 0, 67, 0
1, 307920, Note_on_c, 0, 81, 53
1, 307920, Note_on_c, 0, 53, 43
1, 307920, Note_on_c, 0, 57, 43
1, 307925, Control_c, 0, 64, 0
1, 307991, Control_c, 0, 64, 127
1, 308040, Note_on_c, 0, 53, 0
1, 308040, Note_on_c, 0, 69, 45
1, 308040, Note_on_c, 0, 65, 30
1, 308160, Note_on_c, 0, 65, 0
1, 308160, Note_on_c, 0, 69, 0
1, 308160, Note_on_c, 0, 72, 48
1, 308160, Note_on_c, 0, 60, 33
1, 308280, Note_on_c, 0, 60, 0
1, 308280, Note_on_c, 0, 72, 0
1, 308280, Note_on_c, 0, 69, 44
1, 308280, Note_on_c, 0, 65, 29
1, 308358, Control_c, 0, 64, 0
1, 308400, Tempo, 428571
1, 308400, Note_on_c, 0, 65, 0
1, 308400, Note_on_c, 0, 81, 0
1, 308400, Note_on_c, 0, 57, 0
1, 308400, Note_on_c, 0, 69, 0
1, 308400, Note_on_c, 0, 71, 46
1, 308400, Note_on_c, 0, 62, 32
1, 308520, Tempo, 446097
1, 308520, Note_on_c, 0, 68, 36
1, 308520, Note_on_c, 0, 65, 29
1, 308640, Tempo, 415225
1, 308640, Note_on_c, 0, 65, 0
1, 308640, Note_on_c, 0, 71, 0
1, 308640, Note_on_c, 0, 62, 0
1, 308640, Note_on_c, 0, 68, 0
1, 308640, Note_on_c, 0, 70, 42
1, 308640, Note_on_c, 0, 61, 34
1, 308695, Control_c, 0, 64, 127
1, 308700, Tempo, 416667
1, 308760, Tempo, 418118
1, 308760, Note_on_c, 0, 67, 37
1, 308760, Note_on_c, 0, 64, 25
1, 308820, Tempo, 419580
1, 308880, Tempo, 421053
1, 308880, Note_on_c, 0, 64, 0
1, 308880, Note_on_c, 0, 70, 0
1, 308880, Note_on_c, 0, 61, 0
1, 308880, Note_on_c, 0, 67, 0
1, 308880, Note_on_c, 0, 76, 42
1, 308880, Note_on_c, 0, 60, 34
1, 308940, Tempo, 422535
1, 309000, Tempo, 424028
1, 309000, Note_on_c, 0, 67, 36
1, 309000, Note_on_c, 0, 64, 25
1, 309060, Tempo, 425532
1, 309100, Tempo, 427046
1, 309120, Note_on_c, 0, 64, 0
1, 309120, Note_on_c, 0, 76, 0
1, 309120, Note_on_c, 0, 60, 0
1, 309120, Note_on_c, 0, 67, 0
1, 309120, Note_on_c, 0, 79, 43
1, 309120, Note_on_c, 0, 58, 34
1, 309240, Note_on_c, 0, 67, 37
1, 309240, Note_on_c, 0, 64, 25
1, 309360, Note_on_c, 0, 64, 0
1, 309360, Note_on_c, 0, 79, 0
1, 309360, Note_on_c, 0, 58, 0
1, 309360, Note_on_c, 0, 67, 0
1, 309360, Note_on_c, 0, 81, 43
1, 309360, Note_on_c, 0, 53, 34
1, 309360, Note_on_c, 0, 57, 34
1, 309365, Control_c, 0, 64, 0
1, 309431, Control_c, 0, 64, 127
1, 309480, Note_on_c, 0, 53, 0
1, 309480, Note_on_c, 0, 69, 37
1, 309480, Note_on_c, 0, 65, 26
1, 309600, Note_on_c, 0, 65, 0
1, 309600, Note_on_c, 0, 69, 0
1, 309600, Note_on_c, 0, 57, 0
1, 309600, Note_on_c, 0, 68, 41
1, 309600, Note_on_c, 0, 64, 26
1, 309720, Note_on_c, 0, 64, 0
1, 309720, Note_on_c, 0, 68, 0
1, 309720, Note_on_c, 0, 69, 36
1, 309720, Note_on_c, 0, 65, 26
1, 309840, Note_on_c, 0, 65, 0
1, 309840, Note_on_c, 0, 69, 0
1, 309840, Note_on_c, 0, 81, 0
1, 309840, Note_on_c, 0, 81, 47
1, 309840, Control_c, 0, 64, 0
1, 309840, Note_on_c, 0, 53, 39
1, 309897, Control_c, 0, 64, 127
1, 309960, Note_on_c, 0, 69, 37
1, 309960, Note_on_c, 0, 65, 27
1, 310080, Tempo, 418118
1, 310080, Note_on_c, 0, 65, 0
1, 310080, Note_on_c, 0, 81, 0
1, 310080, Note_on_c, 0, 53, 0
1, 310080, Note_on_c, 0, 69, 0
1, 310080, Note_on_c, 0, 77, 50
1, 310080, Note_on_c, 0, 57, 45
1, 310200, Note_on_c, 0, 69, 38
1, 310200, Note_on_c, 0, 65, 27
1, 310320, Tempo, 425532
1, 310320, Note_on_c, 0, 65, 0
1, 310320, Note_on_c, 0, 77, 0
1, 310320, Note_on_c, 0, 57, 0
1, 310320, Note_on_c, 0, 69, 0
1, 310320, Note_on_c, 0, 72, 47
1, 310320, Note_on_c, 0, 60, 38
1, 310440, Note_on_c, 0, 69, 38
1, 310440, Note_on_c, 0, 65, 27
1, 310560, Note_on_c, 0, 65, 0
1, 310560, Note_on_c, 0, 72, 0
1, 310560, Note_on_c, 0, 60, 0
1, 310560, Note_on_c, 0, 69, 0
1, 310560, Note_on_c, 0, 81, 47
1, 310560, Note_on_c, 0, 48, 39
1, 310565, Control_c, 0, 64, 0
1, 310611, Control_c, 0, 64, 127
1, 310680, Note_on_c, 0, 69, 38
1, 310680, Note_on_c, 0, 65, 27
1, 310800, Tempo, 418118
1, 310800, Note_on_c, 0, 65, 0
1, 310800, Note_on_c, 0, 81, 0
1, 310800, Note_on_c, 0, 48, 0
1, 310800, Note_on_c, 0, 69, 0
1, 310800, Note_on_c, 0, 76, 52
1, 310800, Note_on_c, 0, 57, 46
1, 310920, Note_on_c, 0, 69, 38
1, 310920, Note_on_c, 0, 64, 28
1, 311040, Tempo, 425532
1, 311040, Note_on_c, 0, 64, 0
1, 311040, Note_on_c, 0, 76, 0
1, 311040, Note_on_c, 0, 57, 0
1, 311040, Note_on_c, 0, 69, 0
1, 311040, Note_on_c, 0, 72, 48
1, 311040, Note_on_c, 0, 60, 40
1, 311160, Note_on_c, 0, 69, 38
1, 311160, Note_on_c, 0, 64, 28
1, 311280, Note_on_c, 0, 64, 0
1, 311280, Note_on_c, 0, 72, 0
1, 311280, Note_on_c, 0, 60, 0
1, 311280, Note_on_c, 0, 69, 0
1, 311280, Note_on_c, 0, 81, 49
1, 311280, Note_on_c, 0, 51, 42
1, 311286, Control_c, 0, 64, 0
1, 311326, Control_c, 0, 64, 127
1, 311400, Note_on_c, 0, 69, 40
1, 311400, Note_on_c, 0, 63, 29
1, 311520, Note_on_c, 0, 63, 0
1, 311520, Note_on_c, 0, 81, 0
1, 311520, Note_on_c, 0, 51, 0
1, 311520, Note_on_c, 0, 69, 0
1, 311520, Note_on_c, 0, 77, 54
1, 311520, Note_on_c, 0, 57, 49
1, 311540, Tempo, 415225
1, 311640, Note_on_c, 0, 69, 41
1, 311640, Note_on_c, 0, 63, 29
1, 311760, Tempo, 424028
1, 311760, Note_on_c, 0, 63, 0
1, 311760, Note_on_c, 0, 77, 0
1, 311760, Note_on_c, 0, 57, 0
1, 311760, Note_on_c, 0, 69, 0
1, 311760, Note_on_c, 0, 72, 53
1, 311760, Note_on_c, 0, 60, 44
1, 311880, Note_on_c, 0, 69, 42
1, 311880, Note_on_c, 0, 63, 31
1, 312000, Tempo, 418118
1, 312000, Note_on_c, 0, 63, 0
1, 312000, Note_on_c, 0, 72, 0
1, 312000, Note_on_c, 0, 60, 0
1, 312000, Note_on_c, 0, 69, 0
1, 312000, Note_on_c, 0, 81, 60
1, 312000, Note_on_c, 0, 50, 55
1, 312007, Control_c, 0, 64, 0
1, 312040, Control_c, 0, 64, 127
1, 312120, Note_on_c, 0, 69, 44
1, 312120, Note_on_c, 0, 62, 31
1, 312240, Tempo, 431655
1, 312240, Note_on_c, 0, 62, 0
1, 312240, Note_on_c, 0, 81, 0
1, 312240, Note_on_c, 0, 50, 0
1, 312240, Note_on_c, 0, 69, 0
1, 312240, Note_on_c, 0, 72, 56
1, 312240, Note_on_c, 0, 54, 48
1, 312360, Note_on_c, 0, 69, 45
1, 312360, Note_on_c, 0, 62, 31
1, 312480, Tempo, 415225
1, 312480, Note_on_c, 0, 62, 0
1, 312480, Note_on_c, 0, 72, 0
1, 312480, Note_on_c, 0, 54, 0
1, 312480, Note_on_c, 0, 69, 0
1, 312480, Note_on_c, 0, 81, 63
1, 312480, Note_on_c, 0, 49, 55
1, 312490, Control_c, 0, 64, 0
1, 312514, Control_c, 0, 64, 127
1, 312600, Note_on_c, 0, 69, 45
1, 312600, Note_on_c, 0, 61, 33
1, 312720, Tempo, 424028
1, 312720, Note_on_c, 0, 61, 0
1, 312720, Note_on_c, 0, 81, 0
1, 312720, Note_on_c, 0, 49, 0
1, 312720, Note_on_c, 0, 69, 0
1, 312720, Note_on_c, 0, 73, 59
1, 312720, Note_on_c, 0, 54, 48
1, 312840, Note_on_c, 0, 69, 46
1, 312840, Note_on_c, 0, 61, 34
1, 312960, Tempo, 409556
1, 312960, Note_on_c, 0, 61, 0
1, 312960, Note_on_c, 0, 73, 0
1, 312960, Note_on_c, 0, 54, 0
1, 312960, Note_on_c, 0, 69, 0
1, 312960, Note_on_c, 0, 81, 70
1, 312960, Note_on_c, 0, 48, 59
1, 312966, Control_c, 0, 64, 0
1, 312989, Control_c, 0, 64, 127
1, 313080, Note_on_c, 0, 69, 49
1, 313080, Note_on_c, 0, 60, 35
1, 313200, Tempo, 418118
1, 313200, Note_on_c, 0, 60, 0
1, 313200, Note_on_c, 0, 81, 0
1, 313200, Note_on_c, 0, 48, 0
1, 313200, Note_on_c, 0, 69, 0
1, 313200, Note_on_c, 0, 74, 59
1, 313200, Note_on_c, 0, 54, 51
1, 313320, Note_on_c, 0, 69, 49
1, 313320, Note_on_c, 0, 60, 35
1, 313440, Tempo, 406780
1, 313440, Note_on_c, 0, 60, 0
1, 313440, Note_on_c, 0, 74, 0
1, 313440, Note_on_c, 0, 54, 0
1, 313440, Note_on_c, 0, 69, 0
1, 313440, Note_on_c, 0, 81, 71
1, 313440, Note_on_c, 0, 47, 64
1, 313446, Control_c, 0, 64, 0
1, 313486, Control_c, 0, 64, 127
1, 313560, Note_on_c, 0, 69, 50
1, 313560, Note_on_c, 0, 59, 37
1, 313680, Tempo, 415225
1, 313680, Note_on_c, 0, 59, 0
1, 313680, Note_on_c, 0, 81, 0
1, 313680, Note_on_c, 0, 47, 0
1, 313680, Note_on_c, 0, 69, 0
1, 313680, Note_on_c, 0, 75, 66
1, 313680, Note_on_c, 0, 54, 53
1, 313800, Note_on_c, 0, 69, 52
1, 313800, Note_on_c, 0, 59, 37
1, 313920, Tempo, 401338
1, 313920, Note_on_c, 0, 59, 0
1, 313920, Note_on_c, 0, 75, 0
1, 313920, Note_on_c, 0, 54, 0
1, 313920, Note_on_c, 0, 69, 0
1, 313920, Note_on_c, 0, 82, 74
1, 313920, Note_on_c, 0, 46, 69
1, 313927, Control_c, 0, 64, 0
1, 313966, Control_c, 0, 64, 127
1, 314040, Note_on_c, 0, 70, 54
1, 314040, Note_on_c, 0, 58, 39
1, 314160, Tempo, 409556
1, 314160, Note_on_c, 0, 58, 0
1, 314160, Note_on_c, 0, 82, 0
1, 314160, Note_on_c, 0, 46, 0
1, 314160, Note_on_c, 0, 70, 0
1, 314160, Note_on_c, 0, 75, 68
1, 314160, Note_on_c, 0, 54, 55
1, 314280, Note_on_c, 0, 70, 55
1, 314280, Note_on_c, 0, 58, 39
1, 314400, Tempo, 397351
1, 314400, Note_on_c, 0, 58, 0
1, 314400, Note_on_c, 0, 75, 0
1, 314400, Note_on_c, 0, 54, 0
1, 314400, Note_on_c, 0, 70, 0
1, 314400, Note_on_c, 0, 83, 80
1, 314400, Note_on_c, 0, 45, 70
1, 314406, Control_c, 0, 64, 0
1, 314463, Control_c, 0, 64, 127
1, 314520, Note_on_c, 0, 71, 57
1, 314520, Note_on_c, 0, 57, 40
1, 314640, Tempo, 422535
1, 314640, Note_on_c, 0, 57, 0
1, 314640, Note_on_c, 0, 83, 0
1, 314640, Note_on_c, 0, 45, 0
1, 314640, Note_on_c, 0, 71, 0
1, 314640, Note_on_c, 0, 75, 72
1, 314640, Note_on_c, 0, 54, 57
1, 314760, Note_on_c, 0, 71, 58
1, 314760, Note_on_c, 0, 57, 42
1, 314880, Tempo, 412371
1, 314880, Note_on_c, 0, 57, 0
1, 314880, Note_on_c, 0, 75, 0
1, 314880, Note_on_c, 0, 54, 0
1, 314880, Note_on_c, 0, 71, 0
1, 314880, Note_on_c, 0, 84, 84
1, 314880, Note_on_c, 0, 44, 72
1, 314886, Control_c, 0, 64, 0
1, 314931, Control_c, 0, 64, 127
1, 315000, Tempo, 444444
1, 315000, Note_on_c, 0, 72, 59
1, 315000, Note_on_c, 0, 56, 43
1, 315120, Note_on_c, 0, 56, 0
1, 315120, Note_on_c, 0, 84, 0
1, 315120, Note_on_c, 0, 44, 0
1, 315120, Note_on_c, 0, 72, 0
1, 315120, Note_on_c, 0, 73, 73
1, 315120, Note_on_c, 0, 85, 86
1, 315120, Control_c, 0, 64, 0
1, 315120, Note_on_c, 0, 37, 61
1, 315120, Note_on_c, 0, 49, 73
1, 315360, Tempo, 425532
1, 315360, Note_on_c, 0, 49, 0
1, 315360, Note_on_c, 0, 73, 0
1, 315360, Note_on_c, 0, 85, 0
1, 315360, Note_on_c, 0, 37, 0
1, 315360, Note_on_c, 0, 59, 65
1, 315440, Tempo, 424028
1, 315440, Control_c, 0, 64, 127
1, 315480, Note_on_c, 0, 59, 0
1, 315480, Note_on_c, 0, 61, 69
1, 315500, Tempo, 422535
1, 315560, Tempo, 421053
1, 315600, Note_on_c, 0, 61, 0
1, 315600, Note_on_c, 0, 65, 73
1, 315640, Tempo, 419580
1, 315700, Tempo, 418118
1, 315720, Note_on_c, 0, 65, 0
1, 315720, Note_on_c, 0, 68, 77
1, 315760, Tempo, 416667
1, 315820, Tempo, 415225
1, 315840, Note_on_c, 0, 68, 0
1, 315840, Note_on_c, 0, 71, 86
1, 315960, Note_on_c, 0, 71, 0
1, 315960, Note_on_c, 0, 83, 81
1, 316080, Tempo, 434783
1, 316080, Note_on_c, 0, 83, 0
1, 316080, Note_on_c, 0, 71, 77
1, 316100, Tempo, 436364
1, 316120, Tempo, 437956
1, 316140, Tempo, 439560
1, 316160, Tempo, 441176
1, 316180, Tempo, 442804
1, 316200, Tempo, 444444
1, 316200, Note_on_c, 0, 71, 0
1, 316200, Note_on_c, 0, 73, 78
1, 316220, Tempo, 446097
1, 316240, Tempo, 447761
1, 316260, Tempo, 451128
1, 316320, Tempo, 451128
1, 316320, Note_on_c, 0, 73, 0
1, 316320, Note_on_c, 0, 77, 79
1, 316320, Note_on_c, 0, 53, 58
1, 316320, Note_on_c, 0, 61, 69
1, 316440, Note_on_c, 0, 77, 0
1, 316440, Note_on_c, 0, 80, 81
1, 316560, Tempo, 472441
1, 316560, Note_on_c, 0, 80, 0
1, 316560, Note_on_c, 0, 61, 0
1, 316560, Note_on_c, 0, 53, 0
1, 316560, Note_on_c, 0, 83, 88
1, 316560, Note_on_c, 0, 56, 61
1, 316560, Note_on_c, 0, 65, 72
1, 316567, Control_c, 0, 64, 0
1, 316572, Tempo, 461538
1, 316617, Control_c, 0, 64, 127
1, 316624, Tempo, 463320
1, 316664, Tempo, 465116
1, 316680, Note_on_c, 0, 83, 0
1, 316680, Note_on_c, 0, 95, 85
1, 316720, Tempo, 466926
1, 316760, Tempo, 468750
1, 316800, Note_on_c, 0, 95, 0
1, 316800, Note_on_c, 0, 65, 0
1, 316800, Note_on_c, 0, 56, 0
1, 316800, Note_on_c, 0, 92, 81
1, 316800, Note_on_c, 0, 61, 56
1, 316800, Note_on_c, 0, 68, 67
1, 316812, Tempo, 470588
1, 316852, Tempo, 472441
1, 316904, Tempo, 474308
1, 316920, Note_on_c, 0, 92, 0
1, 316920, Note_on_c, 0, 89, 80
1, 316944, Tempo, 476190
1, 317000, Tempo, 478088
1, 317040, Tempo, 480000
1, 317040, Note_on_c, 0, 89, 0
1, 317040, Note_on_c, 0, 68, 0
1, 317040, Note_on_c, 0, 61, 0
1, 317040, Note_on_c, 0, 85, 79
1, 317040, Note_on_c, 0, 65, 56
1, 317040, Note_on_c, 0, 73, 67
1, 317160, Note_on_c, 0, 85, 0
1, 317160, Note_on_c, 0, 83, 78
1, 317260, Tempo, 463320
1, 317280, Note_on_c, 0, 83, 0
1, 317280, Note_on_c, 0, 73, 0
1, 317280, Note_on_c, 0, 65, 0
1, 317280, Note_on_c, 0, 80, 76
1, 317280, Note_on_c, 0, 65, 61
1, 317280, Note_on_c, 0, 73, 72
1, 317294, Control_c, 0, 64, 0
1, 317300, Tempo, 461538
1, 317320, Tempo, 459770
1, 317340, Tempo, 458015
1, 317360, Control_c, 0, 64, 127
1, 317380, Tempo, 456274
1, 317400, Tempo, 454545
1, 317400, Note_on_c, 0, 80, 0
1, 317400, Note_on_c, 0, 77, 75
1, 317420, Tempo, 452830
1, 317460, Tempo, 451128
1, 317480, Tempo, 449438
1, 317500, Tempo, 447761
1, 317520, Tempo, 446097
1, 317520, Note_on_c, 0, 77, 0
1, 317520, Note_on_c, 0, 73, 0
1, 317520, Note_on_c, 0, 65, 0
1, 317520, Note_on_c, 0, 73, 74
1, 317560, Tempo, 444444
1, 317580, Tempo, 442804
1, 317600, Tempo, 441176
1, 317640, Tempo, 439560
1, 317640, Note_on_c, 0, 73, 0
1, 317640, Note_on_c, 0, 71, 73
1, 317660, Tempo, 437956
1, 317680, Tempo, 436364
1, 317720, Tempo, 434783
1, 317740, Tempo, 433213
1, 317760, Tempo, 431655
1, 317760, Note_on_c, 0, 71, 0
1, 317760, Note_on_c, 0, 68, 72
1, 317780, Tempo, 430108
1, 317880, Note_on_c, 0, 68, 0
1, 317880, Note_on_c, 0, 65, 71
1, 318000, Tempo, 405405
1, 318000, Note_on_c, 0, 65, 0
1, 318000, Note_on_c, 0, 70, 67
1, 318000, Note_on_c, 0, 42, 61
1, 318000, Note_on_c, 0, 54, 61
1, 318011, Control_c, 0, 64, 0
1, 318120, Note_on_c, 0, 64, 61
1, 318140, Note_on_c, 0, 70, 0
1, 318240, Note_on_c, 0, 54, 0
1, 318240, Note_on_c, 0, 63, 62
1, 318240, Note_on_c, 0, 47, 55
1, 318260, Note_on_c, 0, 64, 0
1, 318360, Tempo, 416667
1, 318360, Note_on_c, 0, 69, 62
1, 318380, Note_on_c, 0, 63, 0
1, 318480, Tempo, 405405
1, 318480, Note_on_c, 0, 47, 0
1, 318480, Note_on_c, 0, 42, 0
1, 318480, Note_on_c, 0, 68, 64
1, 318480, Note_on_c, 0, 40, 61
1, 318480, Note_on_c, 0, 52, 61
1, 318500, Note_on_c, 0, 69, 0
1, 318600, Note_on_c, 0, 62, 63
1, 318620, Note_on_c, 0, 68, 0
1, 318720, Note_on_c, 0, 52, 0
1, 318720, Note_on_c, 0, 61, 70
1, 318720, Note_on_c, 0, 45, 54
1, 318740, Note_on_c, 0, 62, 0
1, 318840, Tempo, 415225
1, 318840, Note_on_c, 0, 67, 63
1, 318860, Note_on_c, 0, 61, 0
1, 318960, Tempo, 404040
1, 318960, Note_on_c, 0, 45, 0
1, 318960, Note_on_c, 0, 40, 0
1, 318960, Note_on_c, 0, 66, 63
1, 318960, Note_on_c, 0, 38, 61
1, 318960, Note_on_c, 0, 50, 61
1, 318980, Note_on_c, 0, 67, 0
1, 319080, Note_on_c, 0, 60, 63
1, 319100, Note_on_c, 0, 66, 0
1, 319200, Note_on_c, 0, 50, 0
1, 319200, Note_on_c, 0, 59, 63
1, 319200, Note_on_c, 0, 43, 54
1, 319220, Note_on_c, 0, 60, 0
1, 319320, Tempo, 415225
1, 319320, Note_on_c, 0, 65, 63
1, 319340, Note_on_c, 0, 59, 0
1, 319440, Tempo, 404040
1, 319440, Note_on_c, 0, 43, 0
1, 319440, Note_on_c, 0, 38, 0
1, 319440, Note_on_c, 0, 64, 66
1, 319440, Note_on_c, 0, 36, 56
1, 319440, Note_on_c, 0, 48, 56
1, 319460, Note_on_c, 0, 65, 0
1, 319560, Note_on_c, 0, 58, 56
1, 319580, Note_on_c, 0, 64, 0
1, 319680, Note_on_c, 0, 48, 0
1, 319680, Note_on_c, 0, 36, 0
1, 319680, Note_on_c, 0, 55, 58
1, 319680, Note_on_c, 0, 37, 58
1, 319680, Note_on_c, 0, 49, 58
1, 319700, Note_on_c, 0, 58, 0
1, 319800, Note_on_c, 0, 63, 60
1, 319820, Note_on_c, 0, 55, 0
1, 319920, Note_on_c, 0, 49, 0
1, 319920, Note_on_c, 0, 37, 0
1, 319920, Note_on_c, 0, 62, 62
1, 319920, Note_on_c, 0, 38, 59
1, 319920, Note_on_c, 0, 50, 59
1, 319940, Note_on_c, 0, 63, 0
1, 320040, Tempo, 413793
1, 320040, Note_on_c, 0, 55, 64
1, 320060, Note_on_c, 0, 62, 0
1, 320160, Tempo, 404040
1, 320160, Note_on_c, 0, 50, 0
1, 320160, Note_on_c, 0, 38, 0
1, 320160, Note_on_c, 0, 58, 70
1, 320160, Note_on_c, 0, 39, 61
1, 320160, Note_on_c, 0, 51, 61
1, 320180, Note_on_c, 0, 55, 0
1, 320280, Note_on_c, 0, 61, 64
1, 320300, Note_on_c, 0, 58, 0
1, 320400, Note_on_c, 0, 51, 0
1, 320400, Note_on_c, 0, 39, 0
1, 320400, Note_on_c, 0, 60, 66
1, 320400, Note_on_c, 0, 40, 63
1, 320400, Note_on_c, 0, 52, 63
1, 320420, Note_on_c, 0, 61, 0
1, 320520, Note_on_c, 0, 55, 67
1, 320540, Note_on_c, 0, 60, 0
1, 320640, Note_on_c, 0, 52, 0
1, 320640, Note_on_c, 0, 40, 0
1, 320640, Note_on_c, 0, 57, 69
1, 320640, Note_on_c, 0, 41, 65
1, 320640, Note_on_c, 0, 51, 65
1, 320660, Note_on_c, 0, 55, 0
1, 320760, Tempo, 419580
1, 320760, Note_on_c, 0, 60, 70
1, 320780, Note_on_c, 0, 57, 0
1, 320880, Tempo, 404040
1, 320880, Note_on_c, 0, 51, 0
1, 320880, Note_on_c, 0, 41, 0
1, 320880, Note_on_c, 0, 60, 0
1, 320880, Note_on_c, 0, 62, 70
1, 320880, Note_on_c, 0, 46, 63
1, 320880, Note_on_c, 0, 50, 63
1, 321000, Note_on_c, 0, 56, 64
1, 321020, Note_on_c, 0, 62, 0
1, 321120, Note_on_c, 0, 46, 0
1, 321120, Note_on_c, 0, 50, 0
1, 321120, Note_on_c, 0, 55, 64
1, 321120, Note_on_c, 0, 39, 54
1, 321140, Note_on_c, 0, 56, 0
1, 321240, Note_on_c, 0, 39, 0
1, 321240, Note_on_c, 0, 61, 64
1, 321260, Note_on_c, 0, 55, 0
1, 321360, Note_on_c, 0, 60, 63
1, 321360, Note_on_c, 0, 44, 54
1, 321380, Note_on_c, 0, 61, 0
1, 321480, Tempo, 418118
1, 321480, Note_on_c, 0, 44, 0
1, 321480, Note_on_c, 0, 54, 63
1, 321500, Note_on_c, 0, 60, 0
1, 321600, Tempo, 404040
1, 321600, Note_on_c, 0, 53, 70
1, 321600, Note_on_c, 0, 49, 60
1, 321620, Note_on_c, 0, 54, 0
1, 321720, Note_on_c, 0, 49, 0
1, 321720, Note_on_c, 0, 59, 60
1, 321740, Note_on_c, 0, 53, 0
1, 321840, Note_on_c, 0, 58, 60
1, 321840, Note_on_c, 0, 54, 52
1, 321860, Note_on_c, 0, 59, 0
1, 321960, Note_on_c, 0, 54, 0
1, 321960, Note_on_c, 0, 52, 57
1, 321980, Note_on_c, 0, 58, 0
1, 322080, Note_on_c, 0, 51, 55
1, 322080, Note_on_c, 0, 59, 52
1, 322100, Note_on_c, 0, 52, 0
1, 322200, Tempo, 419580
1, 322200, Note_on_c, 0, 59, 0
1, 322200, Note_on_c, 0, 57, 53
1, 322220, Note_on_c, 0, 51, 0
1, 322320, Note_on_c, 0, 56, 62
1, 322320, Note_on_c, 0, 64, 58
1, 322340, Tempo, 405405
1, 322340, Note_on_c, 0, 57, 0
1, 322360, Tempo, 404040
1, 322440, Note_on_c, 0, 64, 0
1, 322440, Note_on_c, 0, 50, 56
1, 322460, Note_on_c, 0, 56, 0
1, 322500, Tempo, 405405
1, 322560, Note_on_c, 0, 47, 54
1, 322560, Note_on_c, 0, 63, 50
1, 322580, Note_on_c, 0, 50, 0
1, 322640, Tempo, 406780
1, 322680, Note_on_c, 0, 63, 0
1, 322680, Note_on_c, 0, 56, 53
1, 322700, Note_on_c, 0, 47, 0
1, 322780, Tempo, 408163
1, 322800, Note_on_c, 0, 52, 51
1, 322800, Note_on_c, 0, 62, 50
1, 322820, Note_on_c, 0, 56, 0
1, 322920, Tempo, 433213
1, 322920, Note_on_c, 0, 62, 0
1, 322920, Note_on_c, 0, 47, 50
1, 322940, Note_on_c, 0, 52, 0
1, 323040, Tempo, 410959
1, 323040, Note_on_c, 0, 56, 57
1, 323040, Note_on_c, 0, 61, 57
1, 323060, Note_on_c, 0, 47, 0
1, 323160, Note_on_c, 0, 61, 0
1, 323160, Note_on_c, 0, 53, 55
1, 323180, Note_on_c, 0, 56, 0
1, 323280, Tempo, 421053
1, 323280, Note_on_c, 0, 48, 54
1, 323280, Note_on_c, 0, 60, 49
1, 323300, Note_on_c, 0, 53, 0
1, 323400, Note_on_c, 0, 60, 0
1, 323400, Note_on_c, 0, 56, 52
1, 323420, Note_on_c, 0, 48, 0
1, 323500, Tempo, 422535
1, 323520, Note_on_c, 0, 53, 51
1, 323520, Note_on_c, 0, 59, 49
1, 323540, Tempo, 424028
1, 323540, Note_on_c, 0, 56, 0
1, 323560, Tempo, 425532
1, 323600, Tempo, 427046
1, 323620, Tempo, 428571
1, 323640, Tempo, 430108
1, 323640, Note_on_c, 0, 59, 0
1, 323640, Note_on_c, 0, 51, 49
1, 323660, Note_on_c, 0, 53, 0
1, 323680, Tempo, 431655
1, 323700, Tempo, 433213
1, 323720, Tempo, 434783
1, 323760, Tempo, 436364
1, 323760, Note_on_c, 0, 51, 0
1, 323760, Note_on_c, 0, 57, 51
1, 323760, Note_on_c, 0, 60, 49
1, 323780, Tempo, 437956
1, 323800, Tempo, 439560
1, 323840, Tempo, 441176
1, 323860, Tempo, 442804
1, 323880, Tempo, 444444
1, 323880, Note_on_c, 0, 48, 42
1, 323900, Note_on_c, 0, 57, 0
1, 324000, Tempo, 397351
1, 324000, Note_on_c, 0, 60, 0
1, 324000, Note_on_c, 0, 51, 42
1, 324000, Note_on_c, 0, 72, 46
1, 324020, Note_on_c, 0, 48, 0
1, 324120, Note_on_c, 0, 54, 42
1, 324140, Note_on_c, 0, 51, 0
1, 324160, Tempo, 398671
1, 324240, Note_on_c, 0, 55, 42
1, 324240, Note_on_c, 0, 71, 47
1, 324260, Note_on_c, 0, 54, 0
1, 324260, Note_on_c, 0, 72, 0
1, 324300, Tempo, 400000
1, 324360, Note_on_c, 0, 50, 42
1, 324380, Note_on_c, 0, 55, 0
1, 324440, Tempo, 401338
1, 324480, Note_on_c, 0, 49, 51
1, 324480, Note_on_c, 0, 70, 47
1, 324500, Note_on_c, 0, 50, 0
1, 324500, Note_on_c, 0, 71, 0
1, 324580, Tempo, 402685
1, 324600, Note_on_c, 0, 52, 41
1, 324620, Note_on_c, 0, 49, 0
1, 324720, Tempo, 404040
1, 324720, Note_on_c, 0, 53, 41
1, 324720, Note_on_c, 0, 69, 47
1, 324740, Note_on_c, 0, 52, 0
1, 324740, Note_on_c, 0, 70, 0
1, 324840, Note_on_c, 0, 48, 41
1, 324860, Tempo, 405405
1, 324860, Note_on_c, 0, 53, 0
1, 324960, Note_on_c, 0, 53, 41
1, 324960, Note_on_c, 0, 68, 48
1, 324980, Note_on_c, 0, 48, 0
1, 324980, Note_on_c, 0, 69, 0
1, 325000, Tempo, 406780
1, 325080, Note_on_c, 0, 60, 41
1, 325100, Note_on_c, 0, 53, 0
1, 325140, Tempo, 408163
1, 325200, Tempo, 405405
1, 325200, Note_on_c, 0, 58, 50
1, 325200, Note_on_c, 0, 67, 49
1, 325220, Note_on_c, 0, 60, 0
1, 325220, Note_on_c, 0, 68, 0
1, 325320, Note_on_c, 0, 52, 40
1, 325340, Tempo, 398671
1, 325340, Note_on_c, 0, 58, 0
1, 325360, Tempo, 402685
1, 325440, Note_on_c, 0, 56, 41
1, 325440, Note_on_c, 0, 65, 45
1, 325460, Note_on_c, 0, 52, 0
1, 325460, Note_on_c, 0, 67, 0
1, 325520, Tempo, 404040
1, 325560, Note_on_c, 0, 59, 41
1, 325580, Note_on_c, 0, 56, 0
1, 325680, Tempo, 405405
1, 325680, Note_on_c, 0, 60, 41
1, 325680, Note_on_c, 0, 64, 45
1, 325700, Note_on_c, 0, 59, 0
1, 325700, Note_on_c, 0, 65, 0
1, 325800, Note_on_c, 0, 55, 41
1, 325820, Note_on_c, 0, 60, 0
1, 325840, Tempo, 406780
1, 325920, Note_on_c, 0, 58, 52
1, 325920, Note_on_c, 0, 63, 45
1, 325940, Note_on_c, 0, 55, 0
1, 325940, Note_on_c, 0, 64, 0
1, 326000, Tempo, 408163
1, 326040, Note_on_c, 0, 61, 42
1, 326060, Note_on_c, 0, 58, 0
1, 326160, Tempo, 409556
1, 326160, Note_on_c, 0, 62, 41
1, 326160, Note_on_c, 0, 62, 45
1, 326180, Note_on_c, 0, 61, 0
1, 326180, Note_on_c, 0, 63, 0
1, 326280, Note_on_c, 0, 55, 41
1, 326300, Note_on_c, 0, 62, 0
1, 326320, Tempo, 410959
1, 326400, Note_on_c, 0, 58, 41
1, 326400, Note_on_c, 0, 61, 45
1, 326420, Note_on_c, 0, 55, 0
1, 326420, Note_on_c, 0, 62, 0
1, 326480, Tempo, 412371
1, 326520, Note_on_c, 0, 65, 41
1, 326540, Note_on_c, 0, 58, 0
1, 326620, Tempo, 413793
1, 326640, Tempo, 409556
1, 326640, Note_on_c, 0, 64, 50
1, 326640, Note_on_c, 0, 60, 51
1, 326660, Note_on_c, 0, 65, 0
1, 326660, Note_on_c, 0, 61, 0
1, 326760, Note_on_c, 0, 55, 42
1, 326780, Note_on_c, 0, 64, 0
1, 326860, Note_on_c, 0, 60, 0
1, 326880, Tempo, 400000
1, 326880, Note_on_c, 0, 63, 42
1, 326880, Note_on_c, 0, 60, 49
1, 326900, Note_on_c, 0, 55, 0
1, 327000, Note_on_c, 0, 66, 42
1, 327020, Note_on_c, 0, 63, 0
1, 327120, Note_on_c, 0, 67, 42
1, 327120, Note_on_c, 0, 59, 50
1, 327140, Note_on_c, 0, 66, 0
1, 327140, Note_on_c, 0, 60, 0
1, 327180, Tempo, 401338
1, 327240, Note_on_c, 0, 62, 43
1, 327260, Note_on_c, 0, 67, 0
1, 327360, Note_on_c, 0, 61, 52
1, 327360, Note_on_c, 0, 58, 54
1, 327380, Note_on_c, 0, 62, 0
1, 327380, Note_on_c, 0, 59, 0
1, 327460, Tempo, 402685
1, 327480, Note_on_c, 0, 64, 42
1, 327500, Note_on_c, 0, 61, 0
1, 327600, Note_on_c, 0, 65, 43
1, 327600, Note_on_c, 0, 57, 52
1, 327620, Note_on_c, 0, 64, 0
1, 327620, Note_on_c, 0, 58, 0
1, 327720, Note_on_c, 0, 60, 43
1, 327740, Note_on_c, 0, 65, 0
1, 327760, Tempo, 404040
1, 327840, Note_on_c, 0, 65, 43
1, 327840, Note_on_c, 0, 56, 53
1, 327860, Note_on_c, 0, 60, 0
1, 327860, Note_on_c, 0, 57, 0
1, 327960, Note_on_c, 0, 72, 43
1, 327980, Note_on_c, 0, 65, 0
1, 328040, Tempo, 405405
1, 328080, Tempo, 396040
1, 328080, Note_on_c, 0, 70, 53
1, 328080, Note_on_c, 0, 55, 57
1, 328100, Note_on_c, 0, 72, 0
1, 328100, Note_on_c, 0, 56, 0
1, 328140, Tempo, 396040
1, 328200, Note_on_c, 0, 64, 43
1, 328220, Note_on_c, 0, 70, 0
1, 328320, Note_on_c, 0, 68, 44
1, 328320, Note_on_c, 0, 53, 53
1, 328340, Tempo, 397351
1, 328340, Note_on_c, 0, 64, 0
1, 328340, Note_on_c, 0, 55, 0
1, 328440, Note_on_c, 0, 71, 44
1, 328460, Note_on_c, 0, 68, 0
1, 328540, Tempo, 398671
1, 328560, Note_on_c, 0, 72, 44
1, 328560, Note_on_c, 0, 52, 54
1, 328580, Note_on_c, 0, 71, 0
1, 328580, Note_on_c, 0, 53, 0
1, 328680, Note_on_c, 0, 67, 45
1, 328700, Note_on_c, 0, 72, 0
1, 328740, Tempo, 400000
1, 328800, Note_on_c, 0, 70, 57
1, 328800, Note_on_c, 0, 51, 55
1, 328820, Note_on_c, 0, 67, 0
1, 328820, Note_on_c, 0, 52, 0
1, 328920, Tempo, 401338
1, 328920, Note_on_c, 0, 73, 49
1, 328940, Note_on_c, 0, 70, 0
1, 329040, Note_on_c, 0, 74, 45
1, 329040, Note_on_c, 0, 50, 58
1, 329060, Note_on_c, 0, 73, 0
1, 329060, Note_on_c, 0, 51, 0
1, 329120, Tempo, 402685
1, 329160, Note_on_c, 0, 67, 46
1, 329180, Note_on_c, 0, 74, 0
1, 329280, Note_on_c, 0, 70, 46
1, 329280, Note_on_c, 0, 49, 60
1, 329300, Note_on_c, 0, 67, 0
1, 329300, Note_on_c, 0, 50, 0
1, 329320, Tempo, 404040
1, 329400, Note_on_c, 0, 77, 46
1, 329420, Note_on_c, 0, 70, 0
1, 329500, Tempo, 405405
1, 329520, Tempo, 397351
1, 329520, Note_on_c, 0, 75, 57
1, 329520, Note_on_c, 0, 48, 62
1, 329540, Note_on_c, 0, 77, 0
1, 329540, Note_on_c, 0, 49, 0
1, 329640, Note_on_c, 0, 48, 0
1, 329640, Note_on_c, 0, 76, 55
1, 329660, Note_on_c, 0, 75, 0
1, 329760, Tempo, 412371
1, 329760, Note_on_c, 0, 76, 0
1, 329760, Note_on_c, 0, 67, 56
1, 329760, Note_on_c, 0, 58, 57
1, 329760, Note_on_c, 0, 60, 68
1, 329777, Control_c, 0, 64, 127
1, 329880, Note_on_c, 0, 67, 0
1, 329880, Note_on_c, 0, 69, 57
1, 330000, Tempo, 390879
1, 330000, Note_on_c, 0, 69, 0
1, 330000, Note_on_c, 0, 60, 0
1, 330000, Note_on_c, 0, 70, 58
1, 330000, Note_on_c, 0, 64, 63
1, 330120, Note_on_c, 0, 70, 0
1, 330120, Note_on_c, 0, 72, 59
1, 330194, Control_c, 0, 64, 0
1, 330240, Note_on_c, 0, 72, 0
1, 330240, Note_on_c, 0, 64, 0
1, 330240, Note_on_c, 0, 58, 0
1, 330240, Note_on_c, 0, 73, 60
1, 330240, Note_on_c, 0, 46, 60
1, 330360, Note_on_c, 0, 46, 0
1, 330360, Note_on_c, 0, 73, 0
1, 330360, Note_on_c, 0, 76, 61
1, 330480, Tempo, 392157
1, 330480, Note_on_c, 0, 76, 0
1, 330480, Note_on_c, 0, 79, 62
1, 330480, Note_on_c, 0, 55, 56
1, 330480, Note_on_c, 0, 58, 67
1, 330500, Tempo, 393443
1, 330520, Tempo, 394737
1, 330526, Control_c, 0, 64, 127
1, 330540, Tempo, 396040
1, 330560, Tempo, 397351
1, 330580, Tempo, 398671
1, 330600, Tempo, 400000
1, 330600, Note_on_c, 0, 79, 0
1, 330600, Note_on_c, 0, 81, 63
1, 330620, Tempo, 401338
1, 330640, Tempo, 402685
1, 330660, Tempo, 404040
1, 330680, Tempo, 405405
1, 330700, Tempo, 406780
1, 330720, Tempo, 408163
1, 330720, Note_on_c, 0, 81, 0
1, 330720, Note_on_c, 0, 58, 0
1, 330720, Note_on_c, 0, 82, 64
1, 330720, Note_on_c, 0, 64, 62
1, 330740, Tempo, 409556
1, 330760, Tempo, 410959
1, 330780, Tempo, 412371
1, 330840, Tempo, 439560
1, 330840, Note_on_c, 0, 82, 0
1, 330840, Note_on_c, 0, 84, 65
1, 330960, Tempo, 393443
1, 330960, Note_on_c, 0, 84, 0
1, 330960, Note_on_c, 0, 64, 0
1, 330960, Note_on_c, 0, 55, 0
1, 330960, Note_on_c, 0, 85, 68
1, 330960, Control_c, 0, 64, 0
1, 330960, Note_on_c, 0, 45, 60
1, 331080, Note_on_c, 0, 45, 0
1, 331080, Note_on_c, 0, 91, 67
1, 331100, Note_on_c, 0, 85, 0
1, 331200, Tempo, 410959
1, 331200, Note_on_c, 0, 91, 0
1, 331200, Note_on_c, 0, 88, 66
1, 331200, Note_on_c, 0, 52, 55
1, 331200, Note_on_c, 0, 55, 65
1, 331217, Control_c, 0, 64, 127
1, 331320, Note_on_c, 0, 88, 0
1, 331320, Note_on_c, 0, 85, 65
1, 331440, Tempo, 393443
1, 331440, Note_on_c, 0, 85, 0
1, 331440, Note_on_c, 0, 55, 0
1, 331440, Note_on_c, 0, 82, 64
1, 331440, Note_on_c, 0, 64, 61
1, 331560, Note_on_c, 0, 82, 0
1, 331560, Note_on_c, 0, 79, 63
1, 331674, Control_c, 0, 64, 0
1, 331680, Tempo, 388350
1, 331680, Note_on_c, 0, 79, 0
1, 331680, Note_on_c, 0, 64, 0
1, 331680, Note_on_c, 0, 52, 0
1, 331680, Note_on_c, 0, 76, 62
1, 331680, Note_on_c, 0, 45, 56
1, 331800, Note_on_c, 0, 45, 0
1, 331800, Note_on_c, 0, 73, 61
1, 331820, Note_on_c, 0, 76, 0
1, 331920, Tempo, 410959
1, 331920, Note_on_c, 0, 73, 0
1, 331920, Note_on_c, 0, 70, 60
1, 331920, Note_on_c, 0, 49, 51
1, 331920, Note_on_c, 0, 52, 61
1, 331943, Control_c, 0, 64, 127
1, 332040, Note_on_c, 0, 70, 0
1, 332040, Note_on_c, 0, 67, 59
1, 332160, Tempo, 394737
1, 332160, Note_on_c, 0, 67, 0
1, 332160, Note_on_c, 0, 52, 0
1, 332160, Note_on_c, 0, 64, 58
1, 332160, Note_on_c, 0, 57, 53
1, 332280, Note_on_c, 0, 64, 0
1, 332280, Note_on_c, 0, 61, 57
1, 332400, Note_on_c, 0, 61, 0
1, 332400, Note_on_c, 0, 57, 0
1, 332400, Note_on_c, 0, 49, 0
1, 332400, Note_on_c, 0, 62, 56
1, 332400, Control_c, 0, 64, 0
1, 332400, Note_on_c, 0, 50, 58
1, 332520, Note_on_c, 0, 50, 0
1, 332520, Note_on_c, 0, 74, 55
1, 332540, Note_on_c, 0, 62, 0
1, 332640, Tempo, 409556
1, 332640, Note_on_c, 0, 74, 0
1, 332640, Note_on_c, 0, 62, 57
1, 332640, Note_on_c, 0, 53, 56
1, 332640, Note_on_c, 0, 57, 66
1, 332657, Control_c, 0, 64, 127
1, 332760, Note_on_c, 0, 62, 0
1, 332760, Note_on_c, 0, 64, 59
1, 332880, Tempo, 394737
1, 332880, Note_on_c, 0, 64, 0
1, 332880, Note_on_c, 0, 57, 0
1, 332880, Note_on_c, 0, 65, 60
1, 332880, Note_on_c, 0, 62, 61
1, 333000, Note_on_c, 0, 65, 0
1, 333000, Note_on_c, 0, 67, 62
1, 333114, Control_c, 0, 64, 0
1, 333120, Tempo, 389610
1, 333120, Note_on_c, 0, 67, 0
1, 333120, Note_on_c, 0, 62, 0
1, 333120, Note_on_c, 0, 53, 0
1, 333120, Note_on_c, 0, 68, 63
1, 333120, Note_on_c, 0, 48, 58
1, 333240, Note_on_c, 0, 48, 0
1, 333240, Note_on_c, 0, 71, 65
1, 333260, Note_on_c, 0, 68, 0
1, 333360, Tempo, 396040
1, 333360, Note_on_c, 0, 71, 0
1, 333360, Note_on_c, 0, 74, 66
1, 333360, Note_on_c, 0, 53, 56
1, 333360, Note_on_c, 0, 56, 67
1, 333380, Tempo, 397351
1, 333400, Tempo, 398671
1, 333400, Control_c, 0, 64, 127
1, 333420, Tempo, 400000
1, 333440, Tempo, 401338
1, 333460, Tempo, 402685
1, 333480, Tempo, 404040
1, 333480, Note_on_c, 0, 74, 0
1, 333480, Note_on_c, 0, 76, 68
1, 333500, Tempo, 405405
1, 333520, Tempo, 406780
1, 333540, Tempo, 408163
1, 333560, Tempo, 409556
1, 333580, Tempo, 410959
1, 333600, Tempo, 412371
1, 333600, Note_on_c, 0, 76, 0
1, 333600, Note_on_c, 0, 56, 0
1, 333600, Note_on_c, 0, 77, 69
1, 333600, Note_on_c, 0, 62, 61
1, 333620, Tempo, 413793
1, 333640, Tempo, 415225
1, 333660, Tempo, 416667
1, 333680, Tempo, 418118
1, 333700, Tempo, 421053
1, 333720, Tempo, 444444
1, 333720, Note_on_c, 0, 77, 0
1, 333720, Note_on_c, 0, 79, 71
1, 333840, Tempo, 393443
1, 333840, Note_on_c, 0, 79, 0
1, 333840, Note_on_c, 0, 62, 0
1, 333840, Note_on_c, 0, 53, 0
1, 333840, Note_on_c, 0, 80, 72
1, 333840, Control_c, 0, 64, 0
1, 333840, Note_on_c, 0, 47, 56
1, 333960, Note_on_c, 0, 47, 0
1, 333960, Note_on_c, 0, 86, 67
1, 333980, Note_on_c, 0, 80, 0
1, 334080, Tempo, 412371
1, 334080, Note_on_c, 0, 86, 0
1, 334080, Note_on_c, 0, 83, 68
1, 334080, Note_on_c, 0, 50, 56
1, 334080, Note_on_c, 0, 53, 66
1, 334091, Control_c, 0, 64, 127
1, 334200, Note_on_c, 0, 83, 0
1, 334200, Note_on_c, 0, 80, 67
1, 334320, Tempo, 396040
1, 334320, Note_on_c, 0, 80, 0
1, 334320, Note_on_c, 0, 53, 0
1, 334320, Note_on_c, 0, 77, 66
1, 334320, Note_on_c, 0, 62, 59
1, 334440, Note_on_c, 0, 77, 0
1, 334440, Note_on_c, 0, 74, 66
1, 334560, Note_on_c, 0, 74, 0
1, 334560, Note_on_c, 0, 62, 0
1, 334560, Note_on_c, 0, 50, 0
1, 334560, Note_on_c, 0, 71, 65
1, 334560, Note_on_c, 0, 40, 56
1, 334566, Control_c, 0, 64, 0
1, 334680, Note_on_c, 0, 40, 0
1, 334680, Note_on_c, 0, 68, 64
1, 334700, Note_on_c, 0, 71, 0
1, 334800, Tempo, 410959
1, 334800, Note_on_c, 0, 68, 0
1, 334800, Note_on_c, 0, 65, 63
1, 334800, Note_on_c, 0, 44, 54
1, 334800, Note_on_c, 0, 47, 64
1, 334811, Control_c, 0, 64, 127
1, 334920, Note_on_c, 0, 65, 0
1, 334920, Note_on_c, 0, 62, 62
1, 335040, Tempo, 394737
1, 335040, Note_on_c, 0, 62, 0
1, 335040, Note_on_c, 0, 47, 0
1, 335040, Note_on_c, 0, 59, 61
1, 335040, Note_on_c, 0, 52, 57
1, 335160, Note_on_c, 0, 59, 0
1, 335160, Note_on_c, 0, 56, 60
1, 335280, Note_on_c, 0, 56, 0
1, 335280, Note_on_c, 0, 52, 0
1, 335280, Note_on_c, 0, 44, 0
1, 335280, Note_on_c, 0, 57, 68
1, 335280, Note_on_c, 0, 45, 68
1, 335284, Control_c, 0, 64, 0
1, 335338, Control_c, 0, 64, 127
1, 335400, Note_on_c, 0, 57, 0
1, 335400, Note_on_c, 0, 69, 59
1, 335520, Note_on_c, 0, 69, 0
1, 335520, Note_on_c, 0, 45, 0
1, 335520, Note_on_c, 0, 61, 59
1, 335520, Note_on_c, 0, 45, 62
1, 335520, Note_on_c, 0, 52, 73
1, 335524, Control_c, 0, 64, 0
1, 335583, Control_c, 0, 64, 127
1, 335640, Note_on_c, 0, 61, 0
1, 335640, Note_on_c, 0, 67, 59
1, 335760, Note_on_c, 0, 67, 0
1, 335760, Note_on_c, 0, 52, 0
1, 335760, Note_on_c, 0, 45, 0
1, 335760, Note_on_c, 0, 65, 59
1, 335760, Note_on_c, 0, 50, 57
1, 335760, Note_on_c, 0, 53, 68
1, 335768, Control_c, 0, 64, 0
1, 335815, Control_c, 0, 64, 127
1, 335880, Tempo, 421053
1, 335880, Note_on_c, 0, 65, 0
1, 335880, Note_on_c, 0, 62, 59
1, 336000, Tempo, 394737
1, 336000, Note_on_c, 0, 62, 0
1, 336000, Note_on_c, 0, 53, 0
1, 336000, Note_on_c, 0, 50, 0
1, 336000, Note_on_c, 0, 64, 67
1, 336000, Note_on_c, 0, 48, 61
1, 336000, Note_on_c, 0, 55, 72
1, 336006, Control_c, 0, 64, 0
1, 336052, Control_c, 0, 64, 127
1, 336120, Note_on_c, 0, 64, 0
1, 336120, Note_on_c, 0, 70, 57
1, 336240, Tempo, 389610
1, 336240, Note_on_c, 0, 70, 0
1, 336240, Note_on_c, 0, 55, 0
1, 336240, Note_on_c, 0, 48, 0
1, 336240, Note_on_c, 0, 69, 57
1, 336240, Note_on_c, 0, 53, 56
1, 336240, Note_on_c, 0, 57, 67
1, 336246, Control_c, 0, 64, 0
1, 336296, Control_c, 0, 64, 127
1, 336360, Tempo, 415225
1, 336360, Note_on_c, 0, 69, 0
1, 336360, Note_on_c, 0, 65, 57
1, 336480, Tempo, 394737
1, 336480, Note_on_c, 0, 65, 0
1, 336480, Note_on_c, 0, 57, 0
1, 336480, Note_on_c, 0, 53, 0
1, 336480, Note_on_c, 0, 68, 57
1, 336480, Note_on_c, 0, 52, 61
1, 336480, Note_on_c, 0, 59, 72
1, 336485, Control_c, 0, 64, 0
1, 336533, Control_c, 0, 64, 127
1, 336600, Note_on_c, 0, 68, 0
1, 336600, Note_on_c, 0, 74, 56
1, 336720, Note_on_c, 0, 74, 0
1, 336720, Note_on_c, 0, 59, 0
1, 336720, Note_on_c, 0, 52, 0
1, 336720, Note_on_c, 0, 72, 66
1, 336720, Note_on_c, 0, 60, 67
1, 336720, Note_on_c, 0, 57, 56
1, 336726, Control_c, 0, 64, 0
1, 336777, Control_c, 0, 64, 127
1, 336840, Tempo, 415225
1, 336840, Note_on_c, 0, 72, 0
1, 336840, Note_on_c, 0, 69, 57
1, 336960, Tempo, 394737
1, 336960, Note_on_c, 0, 69, 0
1, 336960, Note_on_c, 0, 57, 0
1, 336960, Note_on_c, 0, 60, 0
1, 336960, Note_on_c, 0, 71, 57
1, 336960, Note_on_c, 0, 55, 63
1, 336960, Note_on_c, 0, 62, 75
1, 336965, Control_c, 0, 64, 0
1, 337014, Control_c, 0, 64, 127
1, 337080, Note_on_c, 0, 71, 0
1, 337080, Note_on_c, 0, 77, 57
1, 337200, Tempo, 390879
1, 337200, Note_on_c, 0, 77, 0
1, 337200, Note_on_c, 0, 62, 0
1, 337200, Note_on_c, 0, 55, 0
1, 337200, Note_on_c, 0, 76, 56
1, 337200, Note_on_c, 0, 64, 69
1, 337200, Note_on_c, 0, 60, 58
1, 337203, Control_c, 0, 64, 0
1, 337252, Control_c, 0, 64, 127
1, 337320, Tempo, 410959
1, 337320, Note_on_c, 0, 76, 0
1, 337320, Note_on_c, 0, 72, 55
1, 337440, Tempo, 394737
1, 337440, Note_on_c, 0, 72, 0
1, 337440, Note_on_c, 0, 60, 0
1, 337440, Note_on_c, 0, 64, 0
1, 337440, Note_on_c, 0, 73, 65
1, 337440, Note_on_c, 0, 64, 75
1, 337440, Note_on_c, 0, 57, 63
1, 337449, Control_c, 0, 64, 0
1, 337501, Control_c, 0, 64, 127
1, 337560, Note_on_c, 0, 73, 0
1, 337560, Note_on_c, 0, 79, 56
1, 337680, Note_on_c, 0, 79, 0
1, 337680, Note_on_c, 0, 57, 0
1, 337680, Note_on_c, 0, 64, 0
1, 337680, Note_on_c, 0, 77, 56
1, 337680, Note_on_c, 0, 65, 70
1, 337680, Note_on_c, 0, 62, 59
1, 337686, Control_c, 0, 64, 0
1, 337741, Control_c, 0, 64, 127
1, 337800, Tempo, 412371
1, 337800, Note_on_c, 0, 77, 0
1, 337800, Note_on_c, 0, 74, 56
1, 337920, Tempo, 394737
1, 337920, Note_on_c, 0, 74, 0
1, 337920, Note_on_c, 0, 62, 0
1, 337920, Note_on_c, 0, 65, 0
1, 337920, Note_on_c, 0, 76, 56
1, 337920, Note_on_c, 0, 60, 63
1, 337920, Note_on_c, 0, 67, 75
1, 337926, Control_c, 0, 64, 0
1, 337978, Control_c, 0, 64, 127
1, 338040, Note_on_c, 0, 76, 0
1, 338040, Note_on_c, 0, 82, 56
1, 338160, Note_on_c, 0, 82, 0
1, 338160, Note_on_c, 0, 67, 0
1, 338160, Note_on_c, 0, 60, 0
1, 338160, Note_on_c, 0, 81, 69
1, 338160, Note_on_c, 0, 69, 69
1, 338160, Note_on_c, 0, 65, 58
1, 338165, Control_c, 0, 64, 0
1, 338229, Control_c, 0, 64, 127
1, 338280, Tempo, 427046
1, 338280, Note_on_c, 0, 81, 0
1, 338280, Note_on_c, 0, 77, 57
1, 338400, Tempo, 394737
1, 338400, Note_on_c, 0, 77, 0
1, 338400, Note_on_c, 0, 65, 0
1, 338400, Note_on_c, 0, 69, 0
1, 338400, Note_on_c, 0, 73, 57
1, 338400, Note_on_c, 0, 57, 54
1, 338409, Control_c, 0, 64, 0
1, 338457, Control_c, 0, 64, 127
1, 338520, Note_on_c, 0, 57, 0
1, 338520, Note_on_c, 0, 73, 0
1, 338520, Note_on_c, 0, 81, 58
1, 338520, Note_on_c, 0, 64, 55
1, 338640, Tempo, 390879
1, 338640, Note_on_c, 0, 64, 0
1, 338640, Note_on_c, 0, 81, 0
1, 338640, Note_on_c, 0, 77, 58
1, 338640, Note_on_c, 0, 62, 56
1, 338760, Tempo, 421053
1, 338760, Note_on_c, 0, 62, 0
1, 338760, Note_on_c, 0, 77, 0
1, 338760, Note_on_c, 0, 74, 60
1, 338760, Note_on_c, 0, 65, 58
1, 338880, Tempo, 394737
1, 338880, Note_on_c, 0, 65, 0
1, 338880, Note_on_c, 0, 74, 0
1, 338880, Note_on_c, 0, 76, 71
1, 338880, Note_on_c, 0, 60, 70
1, 338883, Control_c, 0, 64, 0
1, 338929, Control_c, 0, 64, 127
1, 339000, Note_on_c, 0, 60, 0
1, 339000, Note_on_c, 0, 76, 0
1, 339000, Note_on_c, 0, 84, 60
1, 339000, Note_on_c, 0, 67, 58
1, 339120, Note_on_c, 0, 67, 0
1, 339120, Note_on_c, 0, 84, 0
1, 339120, Note_on_c, 0, 81, 61
1, 339120, Note_on_c, 0, 65, 59
1, 339240, Note_on_c, 0, 65, 0
1, 339240, Note_on_c, 0, 81, 0
1, 339240, Note_on_c, 0, 77, 60
1, 339240, Note_on_c, 0, 69, 59
1, 339360, Note_on_c, 0, 69, 0
1, 339360, Note_on_c, 0, 77, 0
1, 339360, Note_on_c, 0, 80, 61
1, 339360, Note_on_c, 0, 64, 61
1, 339364, Control_c, 0, 64, 0
1, 339414, Control_c, 0, 64, 127
1, 339480, Tempo, 422535
1, 339480, Note_on_c, 0, 64, 0
1, 339480, Note_on_c, 0, 80, 0
1, 339480, Note_on_c, 0, 88, 61
1, 339480, Note_on_c, 0, 71, 61
1, 339600, Tempo, 394737
1, 339600, Note_on_c, 0, 71, 0
1, 339600, Note_on_c, 0, 88, 0
1, 339600, Note_on_c, 0, 84, 76
1, 339600, Note_on_c, 0, 69, 75
1, 339607, Control_c, 0, 64, 0
1, 339653, Control_c, 0, 64, 127
1, 339720, Note_on_c, 0, 69, 0
1, 339720, Note_on_c, 0, 84, 0
1, 339720, Note_on_c, 0, 81, 66
1, 339720, Note_on_c, 0, 72, 63
1, 339840, Note_on_c, 0, 72, 0
1, 339840, Note_on_c, 0, 81, 0
1, 339840, Note_on_c, 0, 83, 67
1, 339840, Note_on_c, 0, 67, 61
1, 339960, Note_on_c, 0, 67, 0
1, 339960, Note_on_c, 0, 83, 0
1, 339960, Note_on_c, 0, 91, 67
1, 339960, Note_on_c, 0, 74, 63
1, 340080, Note_on_c, 0, 74, 0
1, 340080, Note_on_c, 0, 91, 0
1, 340080, Note_on_c, 0, 88, 68
1, 340080, Note_on_c, 0, 72, 64
1, 340085, Control_c, 0, 64, 0
1, 340137, Control_c, 0, 64, 127
1, 340200, Tempo, 421053
1, 340200, Note_on_c, 0, 72, 0
1, 340200, Note_on_c, 0, 88, 0
1, 340200, Note_on_c, 0, 84, 68
1, 340200, Note_on_c, 0, 76, 65
1, 340320, Tempo, 394737
1, 340320, Note_on_c, 0, 76, 0
1, 340320, Note_on_c, 0, 84, 0
1, 340320, Note_on_c, 0, 85, 82
1, 340320, Note_on_c, 0, 69, 80
1, 340327, Control_c, 0, 64, 0
1, 340400, Control_c, 0, 64, 127
1, 340440, Note_on_c, 0, 69, 0
1, 340440, Note_on_c, 0, 85, 0
1, 340440, Note_on_c, 0, 93, 67
1, 340440, Note_on_c, 0, 76, 66
1, 340560, Note_on_c, 0, 76, 0
1, 340560, Note_on_c, 0, 93, 0
1, 340560, Note_on_c, 0, 89, 68
1, 340560, Note_on_c, 0, 74, 66
1, 340680, Note_on_c, 0, 74, 0
1, 340680, Note_on_c, 0, 89, 0
1, 340680, Note_on_c, 0, 86, 69
1, 340680, Note_on_c, 0, 77, 68
1, 340800, Note_on_c, 0, 77, 0
1, 340800, Note_on_c, 0, 86, 0
1, 340800, Note_on_c, 0, 88, 69
1, 340800, Note_on_c, 0, 72, 68
1, 340804, Control_c, 0, 64, 0
1, 340859, Control_c, 0, 64, 127
1, 340920, Tempo, 418118
1, 340920, Note_on_c, 0, 72, 0
1, 340920, Note_on_c, 0, 88, 0
1, 340920, Note_on_c, 0, 96, 70
1, 340920, Note_on_c, 0, 79, 68
1, 341040, Tempo, 409556
1, 341040, Note_on_c, 0, 79, 0
1, 341040, Note_on_c, 0, 96, 0
1, 341040, Note_on_c, 0, 93, 82
1, 341040, Control_c, 0, 64, 0
1, 341040, Note_on_c, 0, 81, 72
1, 341040, Note_on_c, 0, 77, 66
1, 341160, Note_on_c, 0, 77, 0
1, 341160, Note_on_c, 0, 81, 0
1, 341160, Note_on_c, 0, 93, 0
1, 341160, Note_on_c, 0, 89, 70
1, 341280, Tempo, 402685
1, 341280, Note_on_c, 0, 89, 0
1, 341280, Note_on_c, 0, 95, 70
1, 341280, Control_c, 0, 64, 127
1, 341280, Note_on_c, 0, 73, 53
1, 341280, Note_on_c, 0, 80, 63
1, 341400, Note_on_c, 0, 95, 0
1, 341400, Note_on_c, 0, 101, 71
1, 341520, Note_on_c, 0, 101, 0
1, 341520, Note_on_c, 0, 80, 0
1, 341520, Note_on_c, 0, 73, 0
1, 341520, Note_on_c, 0, 96, 78
1, 341520, Note_on_c, 0, 81, 66
1, 341520, Note_on_c, 0, 72, 56
1, 341529, Control_c, 0, 64, 0
1, 341550, Control_c, 0, 64, 127
1, 341640, Note_on_c, 0, 96, 0
1, 341640, Note_on_c, 0, 89, 71
1, 341760, Tempo, 408163
1, 341760, Note_on_c, 0, 89, 0
1, 341760, Note_on_c, 0, 72, 0
1, 341760, Note_on_c, 0, 81, 0
1, 341760, Note_on_c, 0, 95, 80
1, 341760, Note_on_c, 0, 73, 56
1, 341760, Note_on_c, 0, 80, 66
1, 341769, Control_c, 0, 64, 0
1, 341792, Control_c, 0, 64, 127
1, 341880, Note_on_c, 0, 95, 0
1, 341880, Note_on_c, 0, 101, 71
1, 342000, Tempo, 402685
1, 342000, Note_on_c, 0, 101, 0
1, 342000, Note_on_c, 0, 80, 0
1, 342000, Note_on_c, 0, 73, 0
1, 342000, Note_on_c, 0, 96, 80
1, 342000, Note_on_c, 0, 81, 66
1, 342000, Note_on_c, 0, 72, 56
1, 342005, Control_c, 0, 64, 0
1, 342032, Control_c, 0, 64, 127
1, 342120, Note_on_c, 0, 96, 0
1, 342120, Note_on_c, 0, 89, 72
1, 342240, Note_on_c, 0, 89, 0
1, 342240, Note_on_c, 0, 72, 0
1, 342240, Note_on_c, 0, 81, 0
1, 342240, Note_on_c, 0, 95, 79
1, 342240, Note_on_c, 0, 73, 56
1, 342240, Note_on_c, 0, 80, 66
1, 342245, Control_c, 0, 64, 0
1, 342266, Control_c, 0, 64, 127
1, 342360, Note_on_c, 0, 95, 0
1, 342360, Note_on_c, 0, 101, 72
1, 342480, Tempo, 406780
1, 342480, Note_on_c, 0, 101, 0
1, 342480, Note_on_c, 0, 80, 0
1, 342480, Note_on_c, 0, 73, 0
1, 342480, Note_on_c, 0, 96, 78
1, 342480, Note_on_c, 0, 72, 56
1, 342480, Note_on_c, 0, 81, 66
1, 342488, Control_c, 0, 64, 0
1, 342531, Control_c, 0, 64, 127
1, 342600, Note_on_c, 0, 96, 0
1, 342600, Note_on_c, 0, 89, 72
1, 342660, Tempo, 408163
1, 342720, Note_on_c, 0, 89, 0
1, 342720, Note_on_c, 0, 81, 0
1, 342720, Note_on_c, 0, 72, 0
1, 342720, Note_on_c, 0, 95, 78
1, 342720, Note_on_c, 0, 73, 56
1, 342720, Note_on_c, 0, 80, 66
1, 342729, Control_c, 0, 64, 0
1, 342789, Control_c, 0, 64, 127
1, 342840, Tempo, 409556
1, 342840, Note_on_c, 0, 95, 0
1, 342840, Note_on_c, 0, 101, 72
1, 342960, Note_on_c, 0, 101, 0
1, 342960, Note_on_c, 0, 80, 0
1, 342960, Note_on_c, 0, 73, 0
1, 342960, Note_on_c, 0, 96, 77
1, 342960, Note_on_c, 0, 72, 56
1, 342960, Note_on_c, 0, 81, 66
1, 342966, Control_c, 0, 64, 0
1, 343000, Tempo, 410959
1, 343011, Control_c, 0, 64, 127
1, 343080, Note_on_c, 0, 96, 0
1, 343080, Note_on_c, 0, 89, 71
1, 343180, Tempo, 412371
1, 343200, Note_on_c, 0, 89, 0
1, 343200, Note_on_c, 0, 81, 0
1, 343200, Note_on_c, 0, 72, 0
1, 343200, Note_on_c, 0, 95, 78
1, 343200, Note_on_c, 0, 73, 56
1, 343200, Note_on_c, 0, 80, 66
1, 343206, Control_c, 0, 64, 0
1, 343246, Control_c, 0, 64, 127
1, 343320, Note_on_c, 0, 95, 0
1, 343320, Note_on_c, 0, 101, 70
1, 343340, Tempo, 413793
1, 343440, Note_on_c, 0, 101, 0
1, 343440, Note_on_c, 0, 80, 0
1, 343440, Note_on_c, 0, 73, 0
1, 343440, Note_on_c, 0, 96, 79
1, 343440, Note_on_c, 0, 72, 56
1, 343440, Note_on_c, 0, 81, 66
1, 343449, Control_c, 0, 64, 0
1, 343486, Control_c, 0, 64, 127
1, 343520, Tempo, 415225
1, 343560, Note_on_c, 0, 96, 0
1, 343560, Note_on_c, 0, 89, 70
1, 343680, Tempo, 416667
1, 343680, Note_on_c, 0, 89, 0
1, 343680, Note_on_c, 0, 81, 0
1, 343680, Note_on_c, 0, 72, 0
1, 343680, Note_on_c, 0, 95, 78
1, 343680, Note_on_c, 0, 73, 56
1, 343680, Note_on_c, 0, 80, 66
1, 343689, Control_c, 0, 64, 0
1, 343720, Control_c, 0, 64, 127
1, 343800, Tempo, 459770
1, 343800, Note_on_c, 0, 95, 0
1, 343800, Note_on_c, 0, 101, 68
1, 343920, Tempo, 480000
1, 343920, Note_on_c, 0, 101, 0
1, 343920, Note_on_c, 0, 80, 0
1, 343920, Note_on_c, 0, 73, 0
1, 343920, Note_on_c, 0, 96, 78
1, 343920, Note_on_c, 0, 89, 78
1, 343920, Note_on_c, 0, 72, 55
1, 343920, Note_on_c, 0, 81, 64
1, 343925, Control_c, 0, 64, 0
1, 344040, Note_on_c, 0, 81, 0
1, 344040, Note_on_c, 0, 96, 0
1, 344040, Note_on_c, 0, 89, 0
1, 344040, Note_on_c, 0, 72, 0
1, 344640, Tempo, 545455
1, 344640, Note_on_c, 0, 63, 56
1, 344640, Note_on_c, 0, 66, 56
1, 344640, Note_on_c, 0, 72, 66
1, 344640, Note_on_c, 0, 48, 59
1, 344640, Note_on_c, 0, 57, 70
1, 345360, Time_signature, 9, 3, 12, 8
1, 345360, Note_on_c, 0, 57, 0
1, 345360, Note_on_c, 0, 72, 0
1, 345360, Note_on_c, 0, 63, 0
1, 345360, Note_on_c, 0, 66, 0
1, 345360, Note_on_c, 0, 48, 0
1, 345360, Note_on_c, 0, 67, 56
1, 345360, Note_on_c, 0, 64, 56
1, 345360, Note_on_c, 0, 72, 68
1, 345360, Note_on_c, 0, 48, 59
1, 345360, Note_on_c, 0, 58, 77
1, 346080, Note_on_c, 0, 64, 0
1, 346080, Note_on_c, 0, 64, 61
1, 346800, Tempo, 585366
1, 346800, Note_on_c, 0, 64, 0
1, 346800, Note_on_c, 0, 67, 0
1, 346800, Note_on_c, 0, 67, 61
1, 347520, Tempo, 705882
1, 347520, Note_on_c, 0, 67, 0
1, 347520, Note_on_c, 0, 67, 60
1, 347534, Control_c, 0, 64, 127
1, 348000, Note_on_c, 0, 58, 0
1, 348000, Note_on_c, 0, 48, 0
1, 348000, Note_on_c, 0, 72, 0
1, 348480, Note_on_c, 0, 67, 0
1, 348791, Control_c, 0, 64, 0
1, 348960, Tempo, 437956
1, 348960, Note_on_c, 0, 63, 42
1, 348960, Note_on_c, 0, 69, 50
1, 348960, Note_on_c, 0, 48, 34
1, 348960, Note_on_c, 0, 54, 34
1, 348960, Note_on_c, 0, 60, 40
1, 349073, Control_c, 0, 64, 127
1, 349435, Note_on_c, 0, 60, 0
1, 349435, Note_on_c, 0, 48, 0
1, 349435, Note_on_c, 0, 63, 0
1, 349435, Note_on_c, 0, 69, 0
1, 349435, Note_on_c, 0, 54, 0
1, 349440, Note_on_c, 0, 63, 40
1, 349440, Note_on_c, 0, 69, 48
1, 349440, Note_on_c, 0, 48, 30
1, 349440, Note_on_c, 0, 54, 30
1, 349440, Note_on_c, 0, 60, 36
1, 349678, Note_on_c, 0, 60, 0
1, 349678, Note_on_c, 0, 48, 0
1, 349678, Note_on_c, 0, 63, 0
1, 349678, Note_on_c, 0, 69, 0
1, 349678, Note_on_c, 0, 54, 0
1, 349680, Time_signature, 6, 3, 12, 8
1, 349680, Tempo, 442804
1, 349680, Note_on_c, 0, 64, 45
1, 349680, Note_on_c, 0, 70, 54
1, 349680, Note_on_c, 0, 48, 34
1, 349680, Note_on_c, 0, 55, 34
1, 349680, Note_on_c, 0, 60, 40
1, 349682, Control_c, 0, 64, 0
1, 349920, Tempo, 425532
1, 349933, Control_c, 0, 64, 127
1, 350155, Note_on_c, 0, 60, 0
1, 350155, Note_on_c, 0, 48, 0
1, 350155, Note_on_c, 0, 64, 0
1, 350155, Note_on_c, 0, 70, 0
1, 350155, Note_on_c, 0, 55, 0
1, 350160, Note_on_c, 0, 64, 43
1, 350160, Note_on_c, 0, 70, 52
1, 350160, Note_on_c, 0, 48, 31
1, 350160, Note_on_c, 0, 55, 31
1, 350160, Note_on_c, 0, 60, 37
1, 350398, Note_on_c, 0, 60, 0
1, 350398, Note_on_c, 0, 48, 0
1, 350398, Note_on_c, 0, 64, 0
1, 350398, Note_on_c, 0, 70, 0
1, 350398, Note_on_c, 0, 55, 0
1, 350400, Tempo, 437956
1, 350400, Note_on_c, 0, 65, 47
1, 350400, Note_on_c, 0, 71, 56
1, 350400, Note_on_c, 0, 48, 38
1, 350400, Note_on_c, 0, 56, 38
1, 350400, Note_on_c, 0, 62, 46
1, 350408, Control_c, 0, 64, 0
1, 350640, Tempo, 428571
1, 350653, Control_c, 0, 64, 127
1, 350875, Note_on_c, 0, 62, 0
1, 350875, Note_on_c, 0, 48, 0
1, 350875, Note_on_c, 0, 65, 0
1, 350875, Note_on_c, 0, 71, 0
1, 350875, Note_on_c, 0, 56, 0
1, 350880, Note_on_c, 0, 65, 45
1, 350880, Note_on_c, 0, 77, 54
1, 350880, Note_on_c, 0, 48, 36
1, 350880, Note_on_c, 0, 56, 36
1, 350880, Note_on_c, 0, 62, 42
1, 351118, Note_on_c, 0, 62, 0
1, 351118, Note_on_c, 0, 48, 0
1, 351118, Note_on_c, 0, 65, 0
1, 351118, Note_on_c, 0, 77, 0
1, 351118, Note_on_c, 0, 56, 0
1, 351120, Tempo, 439560
1, 351120, Note_on_c, 0, 65, 49
1, 351120, Note_on_c, 0, 72, 58
1, 351120, Note_on_c, 0, 48, 41
1, 351120, Note_on_c, 0, 57, 41
1, 351120, Note_on_c, 0, 60, 49
1, 351124, Control_c, 0, 64, 0
1, 351387, Control_c, 0, 64, 127
1, 351595, Note_on_c, 0, 60, 0
1, 351595, Note_on_c, 0, 48, 0
1, 351595, Note_on_c, 0, 65, 0
1, 351595, Note_on_c, 0, 72, 0
1, 351595, Note_on_c, 0, 57, 0
1, 351600, Tempo, 474308
1, 351600, Note_on_c, 0, 65, 49
1, 351600, Note_on_c, 0, 48, 39
1, 351600, Note_on_c, 0, 57, 39
1, 351600, Note_on_c, 0, 60, 46
1, 351838, Note_on_c, 0, 60, 0
1, 351838, Note_on_c, 0, 65, 0
1, 351838, Note_on_c, 0, 48, 0
1, 351838, Note_on_c, 0, 57, 0
1, 351840, Tempo, 434783
1, 351840, Note_on_c, 0, 69, 53
1, 351840, Note_on_c, 0, 74, 63
1, 351840, Control_c, 0, 64, 0
1, 351840, Note_on_c, 0, 48, 45
1, 351840, Note_on_c, 0, 54, 45
1, 351840, Note_on_c, 0, 62, 53
1, 352040, Control_c, 0, 64, 127
1, 352315, Note_on_c, 0, 62, 0
1, 352315, Note_on_c, 0, 48, 0
1, 352315, Note_on_c, 0, 69, 0
1, 352315, Note_on_c, 0, 74, 0
1, 352315, Note_on_c, 0, 54, 0
1, 352320, Tempo, 444444
1, 352320, Note_on_c, 0, 69, 51
1, 352320, Note_on_c, 0, 74, 61
1, 352320, Note_on_c, 0, 48, 40
1, 352320, Note_on_c, 0, 54, 40
1, 352320, Note_on_c, 0, 62, 48
1, 352558, Note_on_c, 0, 62, 0
1, 352558, Note_on_c, 0, 48, 0
1, 352558, Note_on_c, 0, 69, 0
1, 352558, Note_on_c, 0, 74, 0
1, 352558, Note_on_c, 0, 54, 0
1, 352560, Note_on_c, 0, 70, 50
1, 352560, Note_on_c, 0, 74, 60
1, 352560, Note_on_c, 0, 48, 41
1, 352560, Note_on_c, 0, 55, 41
1, 352560, Note_on_c, 0, 62, 49
1, 352565, Control_c, 0, 64, 0
1, 352729, Control_c, 0, 64, 127
1, 352800, Tempo, 524017
1, 352920, Tempo, 466926
1, 352920, Note_on_c, 0, 62, 0
1, 352920, Note_on_c, 0, 48, 0
1, 352920, Note_on_c, 0, 70, 0
1, 352920, Note_on_c, 0, 74, 0
1, 352920, Note_on_c, 0, 55, 0
1, 352920, Note_on_c, 0, 48, 25
1, 352944, Note_on_c, 0, 55, 32
1, 352968, Note_on_c, 0, 62, 33
1, 352992, Note_on_c, 0, 70, 44
1, 353016, Note_on_c, 0, 74, 52
1, 353040, Tempo, 495868
1, 353040, Note_on_c, 0, 82, 58
1, 353160, Tempo, 470588
1, 353160, Note_on_c, 0, 82, 0
1, 353160, Note_on_c, 0, 55, 0
1, 353160, Note_on_c, 0, 62, 0
1, 353160, Note_on_c, 0, 48, 0
1, 353160, Note_on_c, 0, 74, 0
1, 353160, Note_on_c, 0, 70, 0
1, 353160, Note_on_c, 0, 48, 30
1, 353184, Note_on_c, 0, 54, 30
1, 353208, Note_on_c, 0, 63, 37
1, 353232, Note_on_c, 0, 69, 40
1, 353256, Note_on_c, 0, 72, 49
1, 353280, Tempo, 491803
1, 353280, Note_on_c, 0, 81, 56
1, 353289, Control_c, 0, 64, 0
1, 353400, Tempo, 452830
1, 353481, Control_c, 0, 64, 127
1, 353520, Tempo, 491803
1, 353640, Tempo, 456274
1, 353640, Note_on_c, 0, 81, 0
1, 353640, Note_on_c, 0, 54, 0
1, 353640, Note_on_c, 0, 63, 0
1, 353640, Note_on_c, 0, 48, 0
1, 353640, Note_on_c, 0, 72, 0
1, 353640, Note_on_c, 0, 69, 0
1, 353640, Note_on_c, 0, 48, 28
1, 353664, Note_on_c, 0, 55, 28
1, 353688, Note_on_c, 0, 64, 34
1, 353712, Note_on_c, 0, 70, 39
1, 353736, Note_on_c, 0, 72, 46
1, 353760, Tempo, 526316
1, 353760, Note_on_c, 0, 79, 52
1, 353880, Tempo, 481928
1, 353880, Note_on_c, 0, 79, 0
1, 353880, Note_on_c, 0, 55, 0
1, 353880, Note_on_c, 0, 64, 0
1, 353880, Note_on_c, 0, 48, 0
1, 353880, Note_on_c, 0, 72, 0
1, 353880, Note_on_c, 0, 70, 0
1, 353880, Note_on_c, 0, 48, 27
1, 353904, Note_on_c, 0, 57, 27
1, 353928, Note_on_c, 0, 65, 33
1, 353952, Note_on_c, 0, 69, 34
1, 353976, Note_on_c, 0, 72, 39
1, 354000, Tempo, 478088
1, 354000, Note_on_c, 0, 77, 50
1, 354000, Control_c, 0, 64, 0
1, 354480, Note_on_c, 0, 77, 0
1, 354480, Note_on_c, 0, 57, 0
1, 354480, Note_on_c, 0, 65, 0
1, 354480, Note_on_c, 0, 48, 0
1, 354480, Note_on_c, 0, 72, 0
1, 354480, Note_on_c, 0, 69, 0
1, 354480, Note_on_c, 0, 48, 31
1, 354660, Note_on_c, 0, 48, 0
1, 354660, Note_on_c, 0, 48, 34
1, 354690, Note_on_c, 0, 54, 40
1, 354720, Tempo, 392157
1, 354720, Note_on_c, 0, 99, 40
1, 354720, Control_c, 0, 64, 127
1, 354720, Note_on_c, 0, 63, 40
1, 354840, Note_on_c, 0, 99, 0
1, 354840, Note_on_c, 0, 98, 39
1, 354960, Note_on_c, 0, 98, 0
1, 354960, Note_on_c, 0, 101, 42
1, 355080, Note_on_c, 0, 101, 0
1, 355080, Note_on_c, 0, 99, 39
1, 355200, Note_on_c, 0, 99, 0
1, 355200, Note_on_c, 0, 63, 0
1, 355200, Note_on_c, 0, 54, 0
1, 355200, Note_on_c, 0, 48, 0
1, 355200, Note_on_c, 0, 98, 39
1, 355200, Note_on_c, 0, 48, 40
1, 355320, Note_on_c, 0, 98, 0
1, 355320, Note_on_c, 0, 96, 39
1, 355380, Note_on_c, 0, 48, 0
1, 355380, Note_on_c, 0, 48, 38
1, 355410, Note_on_c, 0, 55, 38
1, 355440, Tempo, 406780
1, 355440, Note_on_c, 0, 96, 0
1, 355440, Note_on_c, 0, 94, 41
1, 355440, Note_on_c, 0, 62, 45
1, 355448, Control_c, 0, 64, 0
1, 355504, Control_c, 0, 64, 127
1, 355560, Note_on_c, 0, 94, 0
1, 355560, Note_on_c, 0, 93, 39
1, 355680, Tempo, 389610
1, 355680, Note_on_c, 0, 93, 0
1, 355680, Note_on_c, 0, 96, 43
1, 355800, Note_on_c, 0, 96, 0
1, 355800, Note_on_c, 0, 94, 39
1, 355920, Note_on_c, 0, 94, 0
1, 355920, Note_on_c, 0, 62, 0
1, 355920, Note_on_c, 0, 55, 0
1, 355920, Note_on_c, 0, 48, 0
1, 355920, Note_on_c, 0, 93, 39
1, 355920, Note_on_c, 0, 48, 42
1, 356040, Note_on_c, 0, 93, 0
1, 356040, Note_on_c, 0, 91, 39
1, 356100, Note_on_c, 0, 48, 0
1, 356100, Note_on_c, 0, 48, 37
1, 356130, Note_on_c, 0, 56, 45
1, 356160, Tempo, 402685
1, 356160, Note_on_c, 0, 91, 0
1, 356160, Note_on_c, 0, 89, 42
1, 356160, Note_on_c, 0, 65, 45
1, 356169, Control_c, 0, 64, 0
1, 356238, Control_c, 0, 64, 127
1, 356280, Note_on_c, 0, 89, 0
1, 356280, Note_on_c, 0, 88, 39
1, 356400, Tempo, 389610
1, 356400, Note_on_c, 0, 88, 0
1, 356400, Note_on_c, 0, 91, 44
1, 356520, Note_on_c, 0, 91, 0
1, 356520, Note_on_c, 0, 89, 40
1, 356640, Note_on_c, 0, 89, 0
1, 356640, Note_on_c, 0, 65, 0
1, 356640, Note_on_c, 0, 56, 0
1, 356640, Note_on_c, 0, 48, 0
1, 356640, Note_on_c, 0, 88, 40
1, 356640, Note_on_c, 0, 48, 42
1, 356760, Note_on_c, 0, 88, 0
1, 356760, Note_on_c, 0, 86, 40
1, 356820, Note_on_c, 0, 48, 0
1, 356820, Note_on_c, 0, 48, 37
1, 356850, Note_on_c, 0, 57, 37
1, 356880, Tempo, 400000
1, 356880, Note_on_c, 0, 86, 0
1, 356880, Note_on_c, 0, 84, 42
1, 356880, Note_on_c, 0, 60, 45
1, 356884, Control_c, 0, 64, 0
1, 356931, Control_c, 0, 64, 127
1, 357000, Note_on_c, 0, 84, 0
1, 357000, Note_on_c, 0, 83, 40
1, 357120, Tempo, 387572
1, 357120, Note_on_c, 0, 83, 0
1, 357120, Note_on_c, 0, 86, 45
1, 357240, Note_on_c, 0, 86, 0
1, 357240, Note_on_c, 0, 84, 41
1, 357360, Note_on_c, 0, 84, 0
1, 357360, Note_on_c, 0, 60, 0
1, 357360, Note_on_c, 0, 57, 0
1, 357360, Note_on_c, 0, 48, 0
1, 357360, Note_on_c, 0, 82, 41
1, 357360, Note_on_c, 0, 48, 42
1, 357480, Note_on_c, 0, 82, 0
1, 357480, Note_on_c, 0, 81, 42
1, 357540, Note_on_c, 0, 48, 0
1, 357540, Note_on_c, 0, 48, 42
1, 357570, Note_on_c, 0, 54, 42
1, 357600, Tempo, 395883
1, 357600, Note_on_c, 0, 81, 0
1, 357600, Note_on_c, 0, 86, 44
1, 357600, Note_on_c, 0, 62, 51
1, 357606, Control_c, 0, 64, 0
1, 357657, Control_c, 0, 64, 127
1, 357720, Note_on_c, 0, 86, 0
1, 357720, Note_on_c, 0, 85, 42
1, 357840, Tempo, 387572
1, 357840, Note_on_c, 0, 85, 0
1, 357840, Note_on_c, 0, 87, 47
1, 357960, Note_on_c, 0, 87, 0
1, 357960, Note_on_c, 0, 86, 43
1, 358080, Note_on_c, 0, 86, 0
1, 358080, Note_on_c, 0, 62, 0
1, 358080, Note_on_c, 0, 54, 0
1, 358080, Note_on_c, 0, 48, 0
1, 358080, Note_on_c, 0, 84, 43
1, 358080, Note_on_c, 0, 48, 47
1, 358200, Note_on_c, 0, 84, 0
1, 358200, Note_on_c, 0, 81, 43
1, 358260, Note_on_c, 0, 48, 0
1, 358260, Note_on_c, 0, 48, 42
1, 358290, Note_on_c, 0, 55, 42
1, 358320, Tempo, 397298
1, 358320, Note_on_c, 0, 81, 0
1, 358320, Note_on_c, 0, 82, 47
1, 358320, Note_on_c, 0, 62, 51
1, 358323, Control_c, 0, 64, 0
1, 358394, Control_c, 0, 64, 127
1, 358440, Note_on_c, 0, 82, 0
1, 358440, Note_on_c, 0, 81, 43
1, 358560, Tempo, 387572
1, 358560, Note_on_c, 0, 81, 0
1, 358560, Note_on_c, 0, 84, 48
1, 358680, Note_on_c, 0, 84, 0
1, 358680, Note_on_c, 0, 82, 44
1, 358800, Note_on_c, 0, 82, 0
1, 358800, Note_on_c, 0, 62, 0
1, 358800, Note_on_c, 0, 55, 0
1, 358800, Note_on_c, 0, 48, 0
1, 358800, Note_on_c, 0, 79, 44
1, 358800, Note_on_c, 0, 48, 47
1, 358920, Note_on_c, 0, 79, 0
1, 358920, Note_on_c, 0, 74, 44
1, 358980, Note_on_c, 0, 48, 0
1, 358980, Note_on_c, 0, 48, 43
1, 359010, Note_on_c, 0, 52, 43
1, 359040, Tempo, 397298
1, 359040, Note_on_c, 0, 74, 0
1, 359040, Note_on_c, 0, 72, 48
1, 359040, Note_on_c, 0, 60, 52
1, 359046, Control_c, 0, 64, 0
1, 359091, Control_c, 0, 64, 127
1, 359160, Note_on_c, 0, 72, 0
1, 359160, Note_on_c, 0, 71, 45
1, 359280, Tempo, 387572
1, 359280, Note_on_c, 0, 71, 0
1, 359280, Note_on_c, 0, 74, 50
1, 359400, Note_on_c, 0, 74, 0
1, 359400, Note_on_c, 0, 72, 45
1, 359520, Note_on_c, 0, 72, 0
1, 359520, Note_on_c, 0, 60, 0
1, 359520, Note_on_c, 0, 52, 0
1, 359520, Note_on_c, 0, 48, 0
1, 359520, Note_on_c, 0, 70, 45
1, 359520, Note_on_c, 0, 48, 50
1, 359640, Note_on_c, 0, 70, 0
1, 359640, Note_on_c, 0, 67, 45
1, 359700, Note_on_c, 0, 48, 0
1, 359700, Note_on_c, 0, 48, 45
1, 359730, Note_on_c, 0, 53, 45
1, 359760, Tempo, 395883
1, 359760, Note_on_c, 0, 67, 0
1, 359760, Note_on_c, 0, 69, 48
1, 359760, Control_c, 0, 64, 0
1, 359760, Note_on_c, 0, 60, 53
1, 359808, Control_c, 0, 64, 127
1, 359880, Note_on_c, 0, 69, 0
1, 359880, Note_on_c, 0, 68, 45
1, 360000, Tempo, 387572
1, 360000, Note_on_c, 0, 68, 0
1, 360000, Note_on_c, 0, 70, 51
1, 360120, Note_on_c, 0, 70, 0
1, 360120, Note_on_c, 0, 69, 45
1, 360240, Note_on_c, 0, 69, 0
1, 360240, Note_on_c, 0, 60, 0
1, 360240, Note_on_c, 0, 53, 0
1, 360240, Note_on_c, 0, 48, 0
1, 360240, Note_on_c, 0, 65, 47
1, 360240, Note_on_c, 0, 48, 51
1, 360360, Note_on_c, 0, 65, 0
1, 360360, Note_on_c, 0, 69, 47
1, 360480, Tempo, 386225
1, 360480, Note_on_c, 0, 69, 0
1, 360480, Note_on_c, 0, 48, 0
1, 360480, Note_on_c, 0, 63, 55
1, 360480, Note_on_c, 0, 48, 41
1, 360480, Note_on_c, 0, 54, 44
1, 360480, Note_on_c, 0, 60, 51
1, 360486, Control_c, 0, 64, 0
1, 360526, Control_c, 0, 64, 127
1, 360600, Note_on_c, 0, 69, 51
1, 360720, Tempo, 382214
1, 360720, Note_on_c, 0, 69, 0
1, 360720, Note_on_c, 0, 68, 51
1, 360840, Note_on_c, 0, 68, 0
1, 360840, Note_on_c, 0, 69, 51
1, 360955, Note_on_c, 0, 60, 0
1, 360955, Note_on_c, 0, 54, 0
1, 360955, Note_on_c, 0, 48, 0
1, 360960, Note_on_c, 0, 63, 0
1, 360960, Note_on_c, 0, 69, 0
1, 360960, Note_on_c, 0, 63, 52
1, 360960, Note_on_c, 0, 70, 48
1, 360960, Note_on_c, 0, 48, 35
1, 360960, Note_on_c, 0, 54, 41
1, 360960, Note_on_c, 0, 60, 51
1, 361080, Note_on_c, 0, 70, 0
1, 361080, Note_on_c, 0, 69, 48
1, 361198, Note_on_c, 0, 54, 0
1, 361198, Note_on_c, 0, 60, 0
1, 361198, Note_on_c, 0, 48, 0
1, 361200, Tempo, 395883
1, 361200, Note_on_c, 0, 63, 0
1, 361200, Note_on_c, 0, 69, 0
1, 361200, Note_on_c, 0, 64, 56
1, 361200, Note_on_c, 0, 48, 47
1, 361200, Note_on_c, 0, 55, 47
1, 361200, Note_on_c, 0, 60, 58
1, 361206, Control_c, 0, 64, 0
1, 361263, Control_c, 0, 64, 127
1, 361320, Note_on_c, 0, 70, 53
1, 361440, Tempo, 382214
1, 361440, Note_on_c, 0, 70, 0
1, 361440, Note_on_c, 0, 69, 53
1, 361560, Note_on_c, 0, 69, 0
1, 361560, Note_on_c, 0, 70, 53
1, 361675, Note_on_c, 0, 60, 0
1, 361675, Note_on_c, 0, 55, 0
1, 361675, Note_on_c, 0, 48, 0
1, 361680, Note_on_c, 0, 64, 0
1, 361680, Note_on_c, 0, 70, 0
1, 361680, Note_on_c, 0, 64, 53
1, 361680, Note_on_c, 0, 72, 51
1, 361680, Note_on_c, 0, 48, 44
1, 361680, Note_on_c, 0, 55, 44
1, 361680, Note_on_c, 0, 60, 53
1, 361800, Note_on_c, 0, 72, 0
1, 361800, Note_on_c, 0, 70, 51
1, 361918, Note_on_c, 0, 55, 0
1, 361918, Note_on_c, 0, 60, 0
1, 361918, Note_on_c, 0, 48, 0
1, 361920, Tempo, 397298
1, 361920, Note_on_c, 0, 64, 0
1, 361920, Note_on_c, 0, 70, 0
1, 361920, Note_on_c, 0, 65, 58
1, 361920, Note_on_c, 0, 48, 46
1, 361920, Note_on_c, 0, 56, 46
1, 361920, Note_on_c, 0, 62, 57
1, 361930, Control_c, 0, 64, 0
1, 361983, Control_c, 0, 64, 127
1, 362040, Note_on_c, 0, 71, 54
1, 362160, Tempo, 382214
1, 362160, Note_on_c, 0, 71, 0
1, 362160, Note_on_c, 0, 70, 54
1, 362280, Note_on_c, 0, 70, 0
1, 362280, Note_on_c, 0, 71, 54
1, 362395, Note_on_c, 0, 62, 0
1, 362395, Note_on_c, 0, 56, 0
1, 362395, Note_on_c, 0, 48, 0
1, 362400, Note_on_c, 0, 65, 0
1, 362400, Note_on_c, 0, 71, 0
1, 362400, Note_on_c, 0, 65, 56
1, 362400, Note_on_c, 0, 72, 53
1, 362400, Note_on_c, 0, 48, 44
1, 362400, Note_on_c, 0, 56, 54
1, 362400, Note_on_c, 0, 62, 54
1, 362520, Note_on_c, 0, 72, 0
1, 362520, Note_on_c, 0, 71, 53
1, 362638, Note_on_c, 0, 56, 0
1, 362638, Note_on_c, 0, 62, 0
1, 362638, Note_on_c, 0, 48, 0
1, 362640, Tempo, 395883
1, 362640, Note_on_c, 0, 65, 0
1, 362640, Note_on_c, 0, 71, 0
1, 362640, Note_on_c, 0, 65, 61
1, 362640, Note_on_c, 0, 48, 46
1, 362640, Note_on_c, 0, 57, 46
1, 362640, Note_on_c, 0, 60, 56
1, 362647, Control_c, 0, 64, 0
1, 362697, Control_c, 0, 64, 127
1, 362760, Note_on_c, 0, 72, 55
1, 362880, Tempo, 382214
1, 362880, Note_on_c, 0, 72, 0
1, 362880, Note_on_c, 0, 71, 55
1, 363000, Note_on_c, 0, 71, 0
1, 363000, Note_on_c, 0, 72, 56
1, 363120, Note_on_c, 0, 72, 0
1, 363120, Note_on_c, 0, 65, 0
1, 363120, Note_on_c, 0, 48, 0
1, 363120, Note_on_c, 0, 74, 53
1, 363120, Note_on_c, 0, 48, 54
1, 363240, Note_on_c, 0, 74, 0
1, 363240, Note_on_c, 0, 72, 53
1, 363360, Tempo, 395883
1, 363360, Note_on_c, 0, 72, 0
1, 363360, Note_on_c, 0, 48, 0
1, 363360, Note_on_c, 0, 57, 0
1, 363360, Note_on_c, 0, 60, 0
1, 363360, Note_on_c, 0, 69, 62
1, 363360, Note_on_c, 0, 48, 53
1, 363360, Note_on_c, 0, 54, 53
1, 363360, Note_on_c, 0, 62, 62
1, 363366, Control_c, 0, 64, 0
1, 363417, Control_c, 0, 64, 127
1, 363480, Note_on_c, 0, 74, 57
1, 363600, Tempo, 383534
1, 363600, Note_on_c, 0, 74, 0
1, 363600, Note_on_c, 0, 73, 57
1, 363720, Note_on_c, 0, 73, 0
1, 363720, Note_on_c, 0, 74, 57
1, 363840, Note_on_c, 0, 74, 0
1, 363840, Note_on_c, 0, 54, 0
1, 363840, Note_on_c, 0, 69, 0
1, 363840, Note_on_c, 0, 48, 0
1, 363840, Note_on_c, 0, 62, 0
1, 363840, Note_on_c, 0, 69, 59
1, 363840, Note_on_c, 0, 76, 56
1, 363840, Note_on_c, 0, 48, 51
1, 363840, Note_on_c, 0, 54, 51
1, 363840, Note_on_c, 0, 62, 60
1, 363960, Note_on_c, 0, 76, 0
1, 363960, Note_on_c, 0, 74, 56
1, 364080, Tempo, 397298
1, 364080, Note_on_c, 0, 74, 0
1, 364080, Note_on_c, 0, 62, 0
1, 364080, Note_on_c, 0, 69, 0
1, 364080, Note_on_c, 0, 48, 0
1, 364080, Note_on_c, 0, 54, 0
1, 364080, Note_on_c, 0, 74, 63
1, 364080, Note_on_c, 0, 46, 64
1, 364083, Control_c, 0, 64, 0
1, 364120, Control_c, 0, 64, 127
1, 364200, Tempo, 382214
1, 364200, Note_on_c, 0, 79, 58
1, 364320, Tempo, 380904
1, 364320, Note_on_c, 0, 79, 0
1, 364320, Note_on_c, 0, 46, 0
1, 364320, Note_on_c, 0, 78, 58
1, 364320, Note_on_c, 0, 62, 56
1, 364440, Note_on_c, 0, 78, 0
1, 364440, Note_on_c, 0, 79, 58
1, 364560, Note_on_c, 0, 79, 0
1, 364560, Note_on_c, 0, 62, 0
1, 364560, Note_on_c, 0, 74, 0
1, 364560, Note_on_c, 0, 74, 60
1, 364560, Note_on_c, 0, 81, 57
1, 364560, Note_on_c, 0, 67, 57
1, 364680, Note_on_c, 0, 81, 0
1, 364680, Note_on_c, 0, 79, 58
1, 364800, Tempo, 397298
1, 364800, Note_on_c, 0, 79, 0
1, 364800, Note_on_c, 0, 67, 0
1, 364800, Note_on_c, 0, 74, 0
1, 364800, Note_on_c, 0, 79, 67
1, 364800, Note_on_c, 0, 58, 66
1, 364810, Control_c, 0, 64, 0
1, 364874, Control_c, 0, 64, 127
1, 364920, Tempo, 382214
1, 364920, Note_on_c, 0, 84, 61
1, 365040, Tempo, 380904
1, 365040, Note_on_c, 0, 84, 0
1, 365040, Note_on_c, 0, 83, 61
1, 365040, Note_on_c, 0, 60, 56
1, 365160, Note_on_c, 0, 83, 0
1, 365160, Note_on_c, 0, 84, 61
1, 365280, Note_on_c, 0, 84, 0
1, 365280, Note_on_c, 0, 60, 0
1, 365280, Note_on_c, 0, 79, 0
1, 365280, Note_on_c, 0, 79, 67
1, 365280, Note_on_c, 0, 86, 59
1, 365280, Note_on_c, 0, 64, 58
1, 365400, Note_on_c, 0, 86, 0
1, 365400, Note_on_c, 0, 84, 59
1, 365520, Tempo, 395883
1, 365520, Note_on_c, 0, 84, 0
1, 365520, Note_on_c, 0, 64, 0
1, 365520, Note_on_c, 0, 79, 0
1, 365520, Note_on_c, 0, 58, 0
1, 365520, Note_on_c, 0, 84, 69
1, 365520, Note_on_c, 0, 57, 67
1, 365527, Control_c, 0, 64, 0
1, 365589, Control_c, 0, 64, 127
1, 365640, Tempo, 379603
1, 365640, Note_on_c, 0, 89, 61
1, 365760, Note_on_c, 0, 89, 0
1, 365760, Note_on_c, 0, 88, 63
1, 365760, Note_on_c, 0, 60, 59
1, 365880, Note_on_c, 0, 88, 0
1, 365880, Note_on_c, 0, 89, 59
1, 366000, Note_on_c, 0, 89, 0
1, 366000, Note_on_c, 0, 60, 0
1, 366000, Note_on_c, 0, 84, 0
1, 366000, Note_on_c, 0, 84, 66
1, 366000, Note_on_c, 0, 91, 61
1, 366000, Note_on_c, 0, 65, 61
1, 366120, Note_on_c, 0, 91, 0
1, 366120, Note_on_c, 0, 89, 61
1, 366240, Tempo, 372671
1, 366240, Note_on_c, 0, 89, 0
1, 366240, Note_on_c, 0, 65, 0
1, 366240, Note_on_c, 0, 84, 0
1, 366240, Note_on_c, 0, 57, 0
1, 366240, Note_on_c, 0, 86, 65
1, 366240, Note_on_c, 0, 58, 70
1, 366252, Control_c, 0, 64, 0
1, 366326, Control_c, 0, 64, 127
1, 366360, Note_on_c, 0, 86, 0
1, 366360, Note_on_c, 0, 85, 60
1, 366480, Tempo, 382166
1, 366480, Note_on_c, 0, 85, 0
1, 366480, Note_on_c, 0, 88, 66
1, 366480, Note_on_c, 0, 62, 62
1, 366600, Note_on_c, 0, 88, 0
1, 366600, Note_on_c, 0, 86, 63
1, 366720, Tempo, 387097
1, 366720, Note_on_c, 0, 86, 0
1, 366720, Note_on_c, 0, 62, 0
1, 366720, Note_on_c, 0, 79, 72
1, 366720, Note_on_c, 0, 67, 63
1, 366960, Tempo, 393056
1, 366960, Note_on_c, 0, 67, 0
1, 366960, Note_on_c, 0, 79, 0
1, 366960, Note_on_c, 0, 58, 0
1, 366960, Note_on_c, 0, 88, 75
1, 366960, Note_on_c, 0, 60, 74
1, 366968, Control_c, 0, 64, 0
1, 367006, Control_c, 0, 64, 127
1, 367080, Tempo, 378310
1, 367080, Note_on_c, 0, 93, 68
1, 367200, Note_on_c, 0, 93, 0
1, 367200, Note_on_c, 0, 92, 69
1, 367200, Note_on_c, 0, 64, 65
1, 367320, Note_on_c, 0, 92, 0
1, 367320, Note_on_c, 0, 93, 63
1, 367440, Note_on_c, 0, 93, 0
1, 367440, Note_on_c, 0, 64, 0
1, 367440, Note_on_c, 0, 88, 0
1, 367440, Note_on_c, 0, 88, 72
1, 367440, Note_on_c, 0, 94, 64
1, 367440, Note_on_c, 0, 69, 66
1, 367560, Note_on_c, 0, 94, 0
1, 367560, Note_on_c, 0, 93, 65
1, 367680, Tempo, 371517
1, 367680, Note_on_c, 0, 93, 0
1, 367680, Note_on_c, 0, 69, 0
1, 367680, Note_on_c, 0, 88, 0
1, 367680, Note_on_c, 0, 60, 0
1, 367680, Note_on_c, 0, 89, 72
1, 367680, Note_on_c, 0, 62, 75
1, 367687, Control_c, 0, 64, 0
1, 367754, Control_c, 0, 64, 127
1, 367800, Note_on_c, 0, 89, 0
1, 367800, Note_on_c, 0, 88, 65
1, 367920, Tempo, 379747
1, 367920, Note_on_c, 0, 88, 0
1, 367920, Note_on_c, 0, 91, 73
1, 367920, Note_on_c, 0, 65, 68
1, 368040, Note_on_c, 0, 91, 0
1, 368040, Note_on_c, 0, 89, 67
1, 368160, Tempo, 387097
1, 368160, Note_on_c, 0, 89, 0
1, 368160, Note_on_c, 0, 65, 0
1, 368160, Note_on_c, 0, 86, 75
1, 368160, Note_on_c, 0, 70, 69
1, 368400, Note_on_c, 0, 70, 0
1, 368400, Note_on_c, 0, 86, 0
1, 368400, Note_on_c, 0, 62, 0
1, 368400, Note_on_c, 0, 91, 85
1, 368400, Note_on_c, 0, 64, 84
1, 368409, Control_c, 0, 64, 0
1, 368463, Control_c, 0, 64, 127
1, 368520, Tempo, 377027
1, 368520, Note_on_c, 0, 96, 76
1, 368640, Note_on_c, 0, 96, 0
1, 368640, Note_on_c, 0, 95, 78
1, 368640, Note_on_c, 0, 67, 73
1, 368760, Note_on_c, 0, 95, 0
1, 368760, Note_on_c, 0, 96, 72
1, 368880, Note_on_c, 0, 96, 0
1, 368880, Note_on_c, 0, 67, 0
1, 368880, Note_on_c, 0, 91, 0
1, 368880, Note_on_c, 0, 91, 81
1, 368880, Note_on_c, 0, 98, 72
1, 368880, Note_on_c, 0, 72, 74
1, 369000, Note_on_c, 0, 98, 0
1, 369000, Note_on_c, 0, 96, 74
1, 369120, Tempo, 384887
1, 369120, Note_on_c, 0, 96, 0
1, 369120, Note_on_c, 0, 72, 0
1, 369120, Note_on_c, 0, 91, 0
1, 369120, Note_on_c, 0, 64, 0
1, 369120, Note_on_c, 0, 93, 79
1, 369120, Note_on_c, 0, 65, 82
1, 369130, Control_c, 0, 64, 0
1, 369171, Control_c, 0, 64, 127
1, 369240, Note_on_c, 0, 93, 0
1, 369240, Note_on_c, 0, 92, 73
1, 369360, Note_on_c, 0, 92, 0
1, 369360, Note_on_c, 0, 94, 80
1, 369360, Note_on_c, 0, 69, 73
1, 369480, Note_on_c, 0, 94, 0
1, 369480, Note_on_c, 0, 93, 73
1, 369600, Tempo, 493827
1, 369600, Note_on_c, 0, 93, 0
1, 369600, Note_on_c, 0, 69, 0
1, 369600, Note_on_c, 0, 89, 82
1, 369600, Note_on_c, 0, 72, 73
1, 369840, Tempo, 333333
1, 369840, Note_on_c, 0, 72, 0
1, 369840, Note_on_c, 0, 89, 0
1, 369840, Note_on_c, 0, 65, 0
1, 369840, Note_on_c, 0, 91, 48
1, 369840, Note_on_c, 0, 53, 40
1, 369850, Control_c, 0, 64, 0
1, 369891, Control_c, 0, 64, 127
1, 369960, Note_on_c, 0, 91, 0
1, 369960, Note_on_c, 0, 90, 42
1, 370080, Tempo, 346821
1, 370080, Note_on_c, 0, 90, 0
1, 370080, Note_on_c, 0, 93, 48
1, 370080, Note_on_c, 0, 59, 30
1, 370080, Note_on_c, 0, 62, 30
1, 370080, Note_on_c, 0, 67, 36
1, 370200, Note_on_c, 0, 93, 0
1, 370200, Note_on_c, 0, 91, 42
1, 370308, Note_on_c, 0, 62, 0
1, 370308, Note_on_c, 0, 67, 0
1, 370308, Note_on_c, 0, 59, 0
1, 370320, Tempo, 497925
1, 370320, Note_on_c, 0, 91, 0
1, 370320, Note_on_c, 0, 86, 43
1, 370320, Note_on_c, 0, 59, 30
1, 370320, Note_on_c, 0, 62, 30
1, 370320, Note_on_c, 0, 67, 36
1, 370548, Note_on_c, 0, 67, 0
1, 370548, Note_on_c, 0, 59, 0
1, 370548, Note_on_c, 0, 62, 0
1, 370560, Tempo, 333333
1, 370560, Note_on_c, 0, 86, 0
1, 370560, Note_on_c, 0, 53, 0
1, 370560, Note_on_c, 0, 91, 48
1, 370560, Note_on_c, 0, 53, 40
1, 370570, Control_c, 0, 64, 0
1, 370611, Control_c, 0, 64, 127
1, 370680, Note_on_c, 0, 91, 0
1, 370680, Note_on_c, 0, 90, 42
1, 370800, Tempo, 339943
1, 370800, Note_on_c, 0, 90, 0
1, 370800, Note_on_c, 0, 93, 48
1, 370800, Note_on_c, 0, 58, 30
1, 370800, Note_on_c, 0, 61, 30
1, 370800, Note_on_c, 0, 67, 36
1, 370920, Note_on_c, 0, 93, 0
1, 370920, Note_on_c, 0, 91, 42
1, 371028, Note_on_c, 0, 61, 0
1, 371028, Note_on_c, 0, 67, 0
1, 371028, Note_on_c, 0, 58, 0
1, 371040, Tempo, 500000
1, 371040, Note_on_c, 0, 91, 0
1, 371040, Note_on_c, 0, 85, 43
1, 371040, Note_on_c, 0, 58, 30
1, 371040, Note_on_c, 0, 61, 30
1, 371040, Note_on_c, 0, 67, 36
1, 371268, Note_on_c, 0, 67, 0
1, 371268, Note_on_c, 0, 58, 0
1, 371268, Note_on_c, 0, 61, 0
1, 371280, Tempo, 333333
1, 371280, Note_on_c, 0, 85, 0
1, 371280, Note_on_c, 0, 53, 0
1, 371280, Note_on_c, 0, 91, 48
1, 371280, Note_on_c, 0, 53, 40
1, 371290, Control_c, 0, 64, 0
1, 371331, Control_c, 0, 64, 127
1, 371400, Note_on_c, 0, 91, 0
1, 371400, Note_on_c, 0, 90, 42
1, 371520, Tempo, 342857
1, 371520, Note_on_c, 0, 90, 0
1, 371520, Note_on_c, 0, 93, 48
1, 371520, Note_on_c, 0, 58, 30
1, 371520, Note_on_c, 0, 60, 30
1, 371520, Note_on_c, 0, 64, 36
1, 371640, Note_on_c, 0, 93, 0
1, 371640, Note_on_c, 0, 91, 42
1, 371748, Note_on_c, 0, 60, 0
1, 371748, Note_on_c, 0, 64, 0
1, 371748, Note_on_c, 0, 58, 0
1, 371760, Tempo, 497925
1, 371760, Note_on_c, 0, 91, 0
1, 371760, Note_on_c, 0, 84, 43
1, 371760, Note_on_c, 0, 58, 30
1, 371760, Note_on_c, 0, 60, 30
1, 371760, Note_on_c, 0, 64, 36
1, 371988, Note_on_c, 0, 64, 0
1, 371988, Note_on_c, 0, 58, 0
1, 371988, Note_on_c, 0, 60, 0
1, 372000, Tempo, 384615
1, 372000, Note_on_c, 0, 84, 0
1, 372000, Note_on_c, 0, 53, 0
1, 372000, Note_on_c, 0, 89, 48
1, 372000, Note_on_c, 0, 53, 40
1, 372010, Control_c, 0, 64, 0
1, 372051, Control_c, 0, 64, 127
1, 372240, Tempo, 442804
1, 372240, Note_on_c, 0, 57, 30
1, 372240, Note_on_c, 0, 60, 30
1, 372240, Note_on_c, 0, 65, 36
1, 372468, Note_on_c, 0, 65, 0
1, 372468, Note_on_c, 0, 57, 0
1, 372468, Note_on_c, 0, 60, 0
1, 372480, Tempo, 519481
1, 372480, Note_on_c, 0, 89, 0
1, 372480, Note_on_c, 0, 101, 43
1, 372480, Note_on_c, 0, 57, 30
1, 372480, Note_on_c, 0, 60, 30
1, 372480, Note_on_c, 0, 65, 36
1, 372708, Note_on_c, 0, 65, 0
1, 372708, Note_on_c, 0, 57, 0
1, 372708, Note_on_c, 0, 60, 0
1, 372720, Tempo, 333333
1, 372720, Note_on_c, 0, 101, 0
1, 372720, Note_on_c, 0, 53, 0
1, 372720, Note_on_c, 0, 90, 48
1, 372720, Note_on_c, 0, 53, 40
1, 372730, Control_c, 0, 64, 0
1, 372771, Control_c, 0, 64, 127
1, 372840, Note_on_c, 0, 90, 0
1, 372840, Note_on_c, 0, 93, 42
1, 372960, Tempo, 345821
1, 372960, Note_on_c, 0, 93, 0
1, 372960, Note_on_c, 0, 91, 48
1, 372960, Note_on_c, 0, 59, 30
1, 372960, Note_on_c, 0, 62, 30
1, 372960, Note_on_c, 0, 67, 36
1, 373080, Tempo, 446097
1, 373080, Note_on_c, 0, 91, 0
1, 373080, Note_on_c, 0, 86, 42
1, 373188, Note_on_c, 0, 62, 0
1, 373188, Note_on_c, 0, 67, 0
1, 373188, Note_on_c, 0, 59, 0
1, 373200, Tempo, 497925
1, 373200, Note_on_c, 0, 86, 0
1, 373200, Note_on_c, 0, 98, 50
1, 373200, Note_on_c, 0, 59, 30
1, 373200, Note_on_c, 0, 62, 30
1, 373200, Note_on_c, 0, 67, 36
1, 373320, Note_on_c, 0, 98, 0
1, 373428, Note_on_c, 0, 62, 0
1, 373428, Note_on_c, 0, 67, 0
1, 373428, Note_on_c, 0, 59, 0
1, 373440, Tempo, 333333
1, 373440, Note_on_c, 0, 53, 0
1, 373440, Note_on_c, 0, 90, 48
1, 373440, Note_on_c, 0, 53, 40
1, 373450, Control_c, 0, 64, 0
1, 373491, Control_c, 0, 64, 127
1, 373560, Note_on_c, 0, 90, 0
1, 373560, Note_on_c, 0, 93, 42
1, 373680, Tempo, 346821
1, 373680, Note_on_c, 0, 93, 0
1, 373680, Note_on_c, 0, 91, 48
1, 373680, Note_on_c, 0, 58, 30
1, 373680, Note_on_c, 0, 61, 30
1, 373680, Note_on_c, 0, 67, 36
1, 373800, Tempo, 413793
1, 373800, Note_on_c, 0, 91, 0
1, 373800, Note_on_c, 0, 85, 42
1, 373908, Note_on_c, 0, 61, 0
1, 373908, Note_on_c, 0, 67, 0
1, 373908, Note_on_c, 0, 58, 0
1, 373920, Tempo, 500000
1, 373920, Note_on_c, 0, 85, 0
1, 373920, Note_on_c, 0, 97, 49
1, 373920, Note_on_c, 0, 58, 30
1, 373920, Note_on_c, 0, 61, 30
1, 373920, Note_on_c, 0, 67, 36
1, 374040, Note_on_c, 0, 97, 0
1, 374148, Note_on_c, 0, 61, 0
1, 374148, Note_on_c, 0, 67, 0
1, 374148, Note_on_c, 0, 58, 0
1, 374160, Tempo, 333333
1, 374160, Note_on_c, 0, 53, 0
1, 374160, Note_on_c, 0, 90, 48
1, 374160, Note_on_c, 0, 53, 40
1, 374170, Control_c, 0, 64, 0
1, 374211, Control_c, 0, 64, 127
1, 374280, Note_on_c, 0, 90, 0
1, 374280, Note_on_c, 0, 93, 42
1, 374400, Tempo, 351906
1, 374400, Note_on_c, 0, 93, 0
1, 374400, Note_on_c, 0, 91, 48
1, 374400, Note_on_c, 0, 58, 30
1, 374400, Note_on_c, 0, 60, 30
1, 374400, Note_on_c, 0, 64, 36
1, 374520, Tempo, 412371
1, 374520, Note_on_c, 0, 91, 0
1, 374520, Note_on_c, 0, 84, 42
1, 374628, Note_on_c, 0, 60, 0
1, 374628, Note_on_c, 0, 64, 0
1, 374628, Note_on_c, 0, 58, 0
1, 374640, Tempo, 526316
1, 374640, Note_on_c, 0, 84, 0
1, 374640, Note_on_c, 0, 96, 49
1, 374640, Note_on_c, 0, 58, 30
1, 374640, Note_on_c, 0, 60, 30
1, 374640, Note_on_c, 0, 64, 36
1, 374760, Note_on_c, 0, 96, 0
1, 374868, Note_on_c, 0, 60, 0
1, 374868, Note_on_c, 0, 64, 0
1, 374868, Note_on_c, 0, 58, 0
1, 374880, Tempo, 384615
1, 374880, Note_on_c, 0, 53, 0
1, 374880, Note_on_c, 0, 92, 48
1, 374880, Note_on_c, 0, 53, 40
1, 374890, Control_c, 0, 64, 0
1, 374931, Control_c, 0, 64, 127
1, 375000, Note_on_c, 0, 92, 0
1, 375000, Note_on_c, 0, 94, 42
1, 375120, Tempo, 441176
1, 375120, Note_on_c, 0, 94, 0
1, 375120, Note_on_c, 0, 93, 48
1, 375120, Note_on_c, 0, 57, 30
1, 375120, Note_on_c, 0, 60, 30
1, 375120, Note_on_c, 0, 65, 36
1, 375240, Tempo, 555556
1, 375240, Note_on_c, 0, 93, 0
1, 375240, Note_on_c, 0, 89, 42
1, 375348, Note_on_c, 0, 60, 0
1, 375348, Note_on_c, 0, 65, 0
1, 375348, Note_on_c, 0, 57, 0
1, 375360, Tempo, 524017
1, 375360, Note_on_c, 0, 89, 0
1, 375360, Note_on_c, 0, 101, 50
1, 375360, Note_on_c, 0, 57, 30
1, 375360, Note_on_c, 0, 60, 30
1, 375360, Note_on_c, 0, 65, 36
1, 375588, Note_on_c, 0, 65, 0
1, 375588, Note_on_c, 0, 57, 0
1, 375588, Note_on_c, 0, 60, 0
1, 375600, Tempo, 326975
1, 375600, Note_on_c, 0, 101, 0
1, 375600, Note_on_c, 0, 53, 0
1, 375600, Note_on_c, 0, 98, 60
1, 375600, Note_on_c, 0, 53, 45
1, 375601, Control_c, 0, 64, 0
1, 375646, Control_c, 0, 64, 127
1, 375720, Note_on_c, 0, 98, 0
1, 375720, Note_on_c, 0, 97, 55
1, 375840, Note_on_c, 0, 97, 0
1, 375840, Note_on_c, 0, 100, 55
1, 375840, Note_on_c, 0, 62, 40
1, 375840, Note_on_c, 0, 59, 40
1, 375960, Note_on_c, 0, 100, 0
1, 375960, Note_on_c, 0, 98, 55
1, 376080, Note_on_c, 0, 98, 0
1, 376080, Note_on_c, 0, 62, 0
1, 376080, Note_on_c, 0, 95, 57
1, 376080, Note_on_c, 0, 67, 40
1, 376200, Tempo, 368098
1, 376200, Note_on_c, 0, 95, 0
1, 376200, Note_on_c, 0, 91, 53
1, 376320, Tempo, 327869
1, 376320, Note_on_c, 0, 91, 0
1, 376320, Note_on_c, 0, 67, 0
1, 376320, Note_on_c, 0, 53, 0
1, 376320, Note_on_c, 0, 59, 0
1, 376320, Note_on_c, 0, 97, 60
1, 376320, Note_on_c, 0, 53, 47
1, 376326, Control_c, 0, 64, 0
1, 376377, Control_c, 0, 64, 127
1, 376440, Note_on_c, 0, 97, 0
1, 376440, Note_on_c, 0, 96, 55
1, 376560, Note_on_c, 0, 96, 0
1, 376560, Note_on_c, 0, 99, 55
1, 376560, Note_on_c, 0, 61, 40
1, 376560, Note_on_c, 0, 58, 40
1, 376680, Note_on_c, 0, 99, 0
1, 376680, Note_on_c, 0, 97, 55
1, 376800, Note_on_c, 0, 97, 0
1, 376800, Note_on_c, 0, 61, 0
1, 376800, Note_on_c, 0, 94, 57
1, 376800, Note_on_c, 0, 67, 40
1, 376920, Tempo, 368098
1, 376920, Note_on_c, 0, 94, 0
1, 376920, Note_on_c, 0, 91, 54
1, 377040, Tempo, 326975
1, 377040, Note_on_c, 0, 91, 0
1, 377040, Note_on_c, 0, 67, 0
1, 377040, Note_on_c, 0, 53, 0
1, 377040, Note_on_c, 0, 58, 0
1, 377040, Note_on_c, 0, 94, 61
1, 377040, Note_on_c, 0, 53, 46
1, 377048, Control_c, 0, 64, 0
1, 377089, Control_c, 0, 64, 127
1, 377160, Note_on_c, 0, 94, 0
1, 377160, Note_on_c, 0, 93, 55
1, 377280, Note_on_c, 0, 93, 0
1, 377280, Note_on_c, 0, 96, 55
1, 377280, Note_on_c, 0, 60, 40
1, 377280, Note_on_c, 0, 58, 40
1, 377400, Note_on_c, 0, 96, 0
1, 377400, Note_on_c, 0, 94, 55
1, 377520, Note_on_c, 0, 94, 0
1, 377520, Note_on_c, 0, 60, 0
1, 377520, Note_on_c, 0, 91, 58
1, 377520, Note_on_c, 0, 64, 40
1, 377640, Tempo, 368098
1, 377640, Note_on_c, 0, 91, 0
1, 377640, Note_on_c, 0, 88, 55
1, 377760, Tempo, 327869
1, 377760, Note_on_c, 0, 88, 0
1, 377760, Note_on_c, 0, 64, 0
1, 377760, Note_on_c, 0, 53, 0
1, 377760, Note_on_c, 0, 58, 0
1, 377760, Note_on_c, 0, 93, 60
1, 377760, Note_on_c, 0, 53, 47
1, 377766, Control_c, 0, 64, 0
1, 377817, Control_c, 0, 64, 127
1, 377880, Note_on_c, 0, 93, 0
1, 377880, Note_on_c, 0, 92, 55
1, 378000, Note_on_c, 0, 92, 0
1, 378000, Note_on_c, 0, 94, 55
1, 378000, Note_on_c, 0, 60, 40
1, 378000, Note_on_c, 0, 57, 40
1, 378120, Note_on_c, 0, 94, 0
1, 378120, Note_on_c, 0, 93, 55
1, 378240, Note_on_c, 0, 93, 0
1, 378240, Note_on_c, 0, 60, 0
1, 378240, Note_on_c, 0, 89, 56
1, 378240, Note_on_c, 0, 65, 40
1, 378360, Tempo, 365854
1, 378360, Note_on_c, 0, 89, 0
1, 378360, Note_on_c, 0, 84, 55
1, 378480, Tempo, 327869
1, 378480, Note_on_c, 0, 84, 0
1, 378480, Note_on_c, 0, 65, 0
1, 378480, Note_on_c, 0, 53, 0
1, 378480, Note_on_c, 0, 57, 0
1, 378480, Note_on_c, 0, 86, 60
1, 378480, Note_on_c, 0, 53, 45
1, 378488, Control_c, 0, 64, 0
1, 378560, Control_c, 0, 64, 127
1, 378600, Note_on_c, 0, 86, 0
1, 378600, Note_on_c, 0, 85, 55
1, 378720, Note_on_c, 0, 85, 0
1, 378720, Note_on_c, 0, 88, 54
1, 378720, Note_on_c, 0, 62, 39
1, 378720, Note_on_c, 0, 59, 39
1, 378840, Note_on_c, 0, 88, 0
1, 378840, Note_on_c, 0, 86, 53
1, 378960, Note_on_c, 0, 86, 0
1, 378960, Note_on_c, 0, 62, 0
1, 378960, Note_on_c, 0, 83, 55
1, 378960, Note_on_c, 0, 67, 38
1, 379080, Tempo, 368098
1, 379080, Note_on_c, 0, 83, 0
1, 379080, Note_on_c, 0, 79, 50
1, 379200, Tempo, 328767
1, 379200, Note_on_c, 0, 79, 0
1, 379200, Note_on_c, 0, 67, 0
1, 379200, Note_on_c, 0, 53, 0
1, 379200, Note_on_c, 0, 59, 0
1, 379200, Note_on_c, 0, 85, 57
1, 379200, Note_on_c, 0, 53, 44
1, 379206, Control_c, 0, 64, 0
1, 379251, Control_c, 0, 64, 127
1, 379320, Note_on_c, 0, 85, 0
1, 379320, Note_on_c, 0, 84, 52
1, 379440, Note_on_c, 0, 84, 0
1, 379440, Note_on_c, 0, 87, 51
1, 379440, Note_on_c, 0, 61, 37
1, 379440, Note_on_c, 0, 58, 37
1, 379560, Note_on_c, 0, 87, 0
1, 379560, Note_on_c, 0, 85, 51
1, 379680, Note_on_c, 0, 85, 0
1, 379680, Note_on_c, 0, 61, 0
1, 379680, Note_on_c, 0, 82, 52
1, 379680, Note_on_c, 0, 67, 36
1, 379800, Tempo, 368098
1, 379800, Note_on_c, 0, 82, 0
1, 379800, Note_on_c, 0, 79, 49
1, 379920, Tempo, 327869
1, 379920, Note_on_c, 0, 79, 0
1, 379920, Note_on_c, 0, 67, 0
1, 379920, Note_on_c, 0, 53, 0
1, 379920, Note_on_c, 0, 58, 0
1, 379920, Note_on_c, 0, 82, 54
1, 379920, Note_on_c, 0, 53, 41
1, 379928, Control_c, 0, 64, 0
1, 379977, Control_c, 0, 64, 127
1, 380040, Note_on_c, 0, 82, 0
1, 380040, Note_on_c, 0, 81, 49
1, 380160, Note_on_c, 0, 81, 0
1, 380160, Note_on_c, 0, 84, 48
1, 380160, Note_on_c, 0, 60, 35
1, 380160, Note_on_c, 0, 58, 35
1, 380280, Note_on_c, 0, 84, 0
1, 380280, Note_on_c, 0, 82, 48
1, 380400, Note_on_c, 0, 82, 0
1, 380400, Note_on_c, 0, 60, 0
1, 380400, Note_on_c, 0, 79, 50
1, 380400, Note_on_c, 0, 64, 34
1, 380520, Tempo, 368098
1, 380520, Note_on_c, 0, 79, 0
1, 380520, Note_on_c, 0, 76, 47
1, 380640, Tempo, 329670
1, 380640, Note_on_c, 0, 76, 0
1, 380640, Note_on_c, 0, 64, 0
1, 380640, Note_on_c, 0, 53, 0
1, 380640, Note_on_c, 0, 58, 0
1, 380640, Note_on_c, 0, 81, 51
1, 380640, Note_on_c, 0, 53, 39
1, 380650, Control_c, 0, 64, 0
1, 380714, Control_c, 0, 64, 127
1, 380760, Note_on_c, 0, 81, 0
1, 380760, Note_on_c, 0, 80, 46
1, 380880, Note_on_c, 0, 80, 0
1, 380880, Note_on_c, 0, 82, 46
1, 380880, Note_on_c, 0, 60, 33
1, 380880, Note_on_c, 0, 57, 33
1, 381000, Note_on_c, 0, 82, 0
1, 381000, Note_on_c, 0, 81, 45
1, 381120, Note_on_c, 0, 81, 0
1, 381120, Note_on_c, 0, 60, 0
1, 381120, Note_on_c, 0, 77, 45
1, 381120, Note_on_c, 0, 65, 32
1, 381240, Tempo, 365854
1, 381240, Note_on_c, 0, 77, 0
1, 381240, Note_on_c, 0, 72, 44
1, 381360, Tempo, 330579
1, 381360, Note_on_c, 0, 72, 0
1, 381360, Note_on_c, 0, 65, 0
1, 381360, Note_on_c, 0, 53, 0
1, 381360, Note_on_c, 0, 57, 0
1, 381360, Note_on_c, 0, 74, 48
1, 381360, Note_on_c, 0, 41, 36
1, 381369, Control_c, 0, 64, 0
1, 381417, Control_c, 0, 64, 127
1, 381480, Note_on_c, 0, 74, 0
1, 381480, Note_on_c, 0, 73, 44
1, 381600, Note_on_c, 0, 73, 0
1, 381600, Note_on_c, 0, 76, 44
1, 381600, Note_on_c, 0, 50, 32
1, 381600, Note_on_c, 0, 47, 32
1, 381720, Note_on_c, 0, 76, 0
1, 381720, Note_on_c, 0, 74, 44
1, 381840, Note_on_c, 0, 74, 0
1, 381840, Note_on_c, 0, 50, 0
1, 381840, Note_on_c, 0, 71, 45
1, 381840, Note_on_c, 0, 55, 32
1, 381960, Tempo, 368098
1, 381960, Note_on_c, 0, 71, 0
1, 381960, Note_on_c, 0, 67, 42
1, 382080, Tempo, 329670
1, 382080, Note_on_c, 0, 67, 0
1, 382080, Note_on_c, 0, 55, 0
1, 382080, Note_on_c, 0, 41, 0
1, 382080, Note_on_c, 0, 47, 0
1, 382080, Note_on_c, 0, 73, 48
1, 382080, Note_on_c, 0, 41, 37
1, 382086, Control_c, 0, 64, 0
1, 382154, Control_c, 0, 64, 127
1, 382200, Note_on_c, 0, 73, 0
1, 382200, Note_on_c, 0, 72, 44
1, 382320, Note_on_c, 0, 72, 0
1, 382320, Note_on_c, 0, 75, 44
1, 382320, Note_on_c, 0, 49, 32
1, 382320, Note_on_c, 0, 46, 32
1, 382440, Note_on_c, 0, 75, 0
1, 382440, Note_on_c, 0, 73, 44
1, 382560, Note_on_c, 0, 73, 0
1, 382560, Note_on_c, 0, 49, 0
1, 382560, Note_on_c, 0, 70, 45
1, 382560, Note_on_c, 0, 55, 32
1, 382680, Tempo, 368098
1, 382680, Note_on_c, 0, 70, 0
1, 382680, Note_on_c, 0, 67, 43
1, 382800, Tempo, 329670
1, 382800, Note_on_c, 0, 67, 0
1, 382800, Note_on_c, 0, 55, 0
1, 382800, Note_on_c, 0, 41, 0
1, 382800, Note_on_c, 0, 46, 0
1, 382800, Note_on_c, 0, 70, 48
1, 382800, Note_on_c, 0, 41, 36
1, 382808, Control_c, 0, 64, 0
1, 382863, Control_c, 0, 64, 127
1, 382920, Note_on_c, 0, 70, 0
1, 382920, Note_on_c, 0, 69, 44
1, 383040, Note_on_c, 0, 69, 0
1, 383040, Note_on_c, 0, 72, 44
1, 383040, Note_on_c, 0, 48, 32
1, 383040, Note_on_c, 0, 46, 32
1, 383160, Note_on_c, 0, 72, 0
1, 383160, Note_on_c, 0, 70, 44
1, 383280, Note_on_c, 0, 70, 0
1, 383280, Note_on_c, 0, 48, 0
1, 383280, Note_on_c, 0, 67, 46
1, 383280, Note_on_c, 0, 52, 32
1, 383400, Tempo, 368098
1, 383400, Note_on_c, 0, 67, 0
1, 383400, Note_on_c, 0, 64, 44
1, 383520, Tempo, 329670
1, 383520, Note_on_c, 0, 64, 0
1, 383520, Note_on_c, 0, 52, 0
1, 383520, Note_on_c, 0, 41, 0
1, 383520, Note_on_c, 0, 46, 0
1, 383520, Note_on_c, 0, 69, 48
1, 383520, Note_on_c, 0, 41, 37
1, 383526, Control_c, 0, 64, 0
1, 383577, Control_c, 0, 64, 127
1, 383640, Note_on_c, 0, 69, 0
1, 383640, Note_on_c, 0, 68, 44
1, 383760, Note_on_c, 0, 68, 0
1, 383760, Note_on_c, 0, 70, 44
1, 383760, Note_on_c, 0, 48, 32
1, 383760, Note_on_c, 0, 45, 32
1, 383880, Note_on_c, 0, 70, 0
1, 383880, Note_on_c, 0, 69, 44
1, 384000, Note_on_c, 0, 69, 0
1, 384000, Note_on_c, 0, 48, 0
1, 384000, Note_on_c, 0, 65, 44
1, 384000, Note_on_c, 0, 53, 32
1, 384120, Tempo, 365854
1, 384120, Note_on_c, 0, 65, 0
1, 384120, Note_on_c, 0, 60, 44
1, 384240, Tempo, 333333
1, 384240, Note_on_c, 0, 60, 0
1, 384240, Note_on_c, 0, 53, 0
1, 384240, Note_on_c, 0, 41, 0
1, 384240, Note_on_c, 0, 45, 0
1, 384240, Note_on_c, 0, 62, 40
1, 384240, Control_c, 0, 64, 0
1, 384240, Note_on_c, 0, 29, 30
1, 384360, Note_on_c, 0, 61, 37
1, 384380, Note_on_c, 0, 62, 0
1, 384480, Note_on_c, 0, 64, 37
1, 384480, Note_on_c, 0, 38, 27
1, 384500, Note_on_c, 0, 61, 0
1, 384600, Note_on_c, 0, 62, 36
1, 384620, Note_on_c, 0, 64, 0
1, 384720, Note_on_c, 0, 38, 0
1, 384720, Note_on_c, 0, 59, 37
1, 384720, Note_on_c, 0, 43, 26
1, 384740, Note_on_c, 0, 62, 0
1, 384840, Tempo, 368098
1, 384840, Note_on_c, 0, 55, 34
1, 384860, Note_on_c, 0, 59, 0
1, 384960, Tempo, 334262
1, 384960, Note_on_c, 0, 43, 0
1, 384960, Note_on_c, 0, 29, 0
1, 384960, Note_on_c, 0, 61, 39
1, 384960, Note_on_c, 0, 29, 30
1, 384980, Note_on_c, 0, 55, 0
1, 385080, Note_on_c, 0, 60, 36
1, 385100, Note_on_c, 0, 61, 0
1, 385200, Note_on_c, 0, 63, 35
1, 385200, Note_on_c, 0, 37, 26
1, 385220, Note_on_c, 0, 60, 0
1, 385320, Note_on_c, 0, 61, 35
1, 385340, Note_on_c, 0, 63, 0
1, 385440, Note_on_c, 0, 37, 0
1, 385440, Note_on_c, 0, 58, 36
1, 385440, Note_on_c, 0, 43, 25
1, 385460, Note_on_c, 0, 61, 0
1, 385560, Tempo, 368098
1, 385560, Note_on_c, 0, 55, 34
1, 385580, Note_on_c, 0, 58, 0
1, 385680, Tempo, 335196
1, 385680, Note_on_c, 0, 43, 0
1, 385680, Note_on_c, 0, 29, 0
1, 385680, Note_on_c, 0, 58, 38
1, 385680, Note_on_c, 0, 29, 28
1, 385700, Note_on_c, 0, 55, 0
1, 385800, Note_on_c, 0, 57, 35
1, 385820, Note_on_c, 0, 58, 0
1, 385920, Note_on_c, 0, 60, 35
1, 385920, Note_on_c, 0, 36, 25
1, 385940, Note_on_c, 0, 57, 0
1, 386040, Note_on_c, 0, 58, 34
1, 386060, Note_on_c, 0, 60, 0
1, 386160, Note_on_c, 0, 36, 0
1, 386160, Note_on_c, 0, 55, 36
1, 386160, Note_on_c, 0, 40, 25
1, 386180, Note_on_c, 0, 58, 0
1, 386280, Tempo, 368098
1, 386280, Note_on_c, 0, 52, 34
1, 386300, Note_on_c, 0, 55, 0
1, 386400, Tempo, 335196
1, 386400, Note_on_c, 0, 40, 0
1, 386400, Note_on_c, 0, 29, 0
1, 386400, Note_on_c, 0, 55, 37
1, 386400, Note_on_c, 0, 29, 28
1, 386420, Note_on_c, 0, 52, 0
1, 386520, Note_on_c, 0, 54, 34
1, 386540, Note_on_c, 0, 55, 0
1, 386640, Note_on_c, 0, 57, 34
1, 386640, Note_on_c, 0, 36, 30
1, 386660, Note_on_c, 0, 54, 0
1, 386760, Note_on_c, 0, 55, 34
1, 386780, Note_on_c, 0, 57, 0
1, 386880, Note_on_c, 0, 52, 33
1, 386900, Note_on_c, 0, 55, 0
1, 387000, Tempo, 365854
1, 387000, Note_on_c, 0, 48, 33
1, 387020, Note_on_c, 0, 52, 0
1, 387120, Tempo, 338028
1, 387120, Note_on_c, 0, 36, 0
1, 387120, Note_on_c, 0, 29, 0
1, 387120, Note_on_c, 0, 48, 0
1, 387120, Note_on_c, 0, 53, 36
1, 387120, Note_on_c, 0, 29, 27
1, 387240, Note_on_c, 0, 52, 33
1, 387260, Note_on_c, 0, 53, 0
1, 387360, Note_on_c, 0, 53, 33
1, 387360, Note_on_c, 0, 36, 29
1, 387380, Note_on_c, 0, 52, 0
1, 387480, Note_on_c, 0, 48, 32
1, 387500, Note_on_c, 0, 53, 0
1, 387600, Note_on_c, 0, 45, 34
1, 387620, Note_on_c, 0, 48, 0
1, 387720, Tempo, 368098
1, 387720, Note_on_c, 0, 48, 32
1, 387740, Note_on_c, 0, 45, 0
1, 387840, Tempo, 347826
1, 387840, Note_on_c, 0, 36, 0
1, 387840, Note_on_c, 0, 29, 0
1, 387840, Note_on_c, 0, 52, 35
1, 387840, Note_on_c, 0, 29, 27
1, 387860, Note_on_c, 0, 48, 0
1, 387960, Note_on_c, 0, 51, 32
1, 387980, Note_on_c, 0, 52, 0
1, 388080, Note_on_c, 0, 52, 32
1, 388080, Note_on_c, 0, 37, 29
1, 388100, Note_on_c, 0, 51, 0
1, 388200, Note_on_c, 0, 46, 32
1, 388220, Note_on_c, 0, 52, 0
1, 388320, Note_on_c, 0, 43, 31
1, 388340, Note_on_c, 0, 46, 0
1, 388440, Tempo, 379747
1, 388440, Note_on_c, 0, 46, 31
1, 388460, Note_on_c, 0, 43, 0
1, 388560, Tempo, 353982
1, 388560, Note_on_c, 0, 37, 0
1, 388560, Note_on_c, 0, 29, 0
1, 388560, Note_on_c, 0, 53, 34
1, 388560, Note_on_c, 0, 29, 25
1, 388580, Note_on_c, 0, 46, 0
1, 388680, Note_on_c, 0, 52, 31
1, 388700, Note_on_c, 0, 53, 0
1, 388800, Note_on_c, 0, 53, 31
1, 388800, Note_on_c, 0, 36, 27
1, 388820, Note_on_c, 0, 52, 0
1, 388920, Note_on_c, 0, 48, 31
1, 388940, Note_on_c, 0, 53, 0
1, 389040, Note_on_c, 0, 45, 33
1, 389060, Note_on_c, 0, 48, 0
1, 389160, Tempo, 383387
1, 389160, Note_on_c, 0, 48, 31
1, 389180, Note_on_c, 0, 45, 0
1, 389280, Tempo, 361446
1, 389280, Note_on_c, 0, 36, 0
1, 389280, Note_on_c, 0, 29, 0
1, 389280, Note_on_c, 0, 52, 34
1, 389280, Note_on_c, 0, 29, 26
1, 389300, Note_on_c, 0, 48, 0
1, 389400, Note_on_c, 0, 51, 31
1, 389420, Note_on_c, 0, 52, 0
1, 389520, Note_on_c, 0, 52, 31
1, 389520, Note_on_c, 0, 37, 28
1, 389540, Note_on_c, 0, 51, 0
1, 389640, Note_on_c, 0, 46, 31
1, 389660, Note_on_c, 0, 52, 0
1, 389760, Note_on_c, 0, 43, 31
1, 389780, Note_on_c, 0, 46, 0
1, 389880, Tempo, 394737
1, 389880, Note_on_c, 0, 46, 31
1, 389900, Note_on_c, 0, 43, 0
1, 390000, Tempo, 371517
1, 390000, Note_on_c, 0, 37, 0
1, 390000, Note_on_c, 0, 29, 0
1, 390000, Note_on_c, 0, 53, 34
1, 390000, Note_on_c, 0, 29, 25
1, 390020, Note_on_c, 0, 46, 0
1, 390120, Note_on_c, 0, 52, 31
1, 390140, Note_on_c, 0, 53, 0
1, 390240, Note_on_c, 0, 53, 31
1, 390240, Note_on_c, 0, 36, 29
1, 390260, Note_on_c, 0, 52, 0
1, 390360, Note_on_c, 0, 48, 31
1, 390380, Note_on_c, 0, 53, 0
1, 390480, Note_on_c, 0, 45, 33
1, 390500, Note_on_c, 0, 48, 0
1, 390600, Tempo, 413793
1, 390600, Note_on_c, 0, 48, 31
1, 390620, Note_on_c, 0, 45, 0
1, 390720, Tempo, 383387
1, 390720, Note_on_c, 0, 36, 0
1, 390720, Note_on_c, 0, 29, 0
1, 390720, Note_on_c, 0, 52, 34
1, 390720, Note_on_c, 0, 29, 26
1, 390740, Note_on_c, 0, 48, 0
1, 390840, Note_on_c, 0, 51, 31
1, 390860, Note_on_c, 0, 52, 0
1, 390960, Note_on_c, 0, 52, 31
1, 390960, Note_on_c, 0, 37, 28
1, 390980, Note_on_c, 0, 51, 0
1, 391080, Note_on_c, 0, 46, 31
1, 391100, Note_on_c, 0, 52, 0
1, 391200, Note_on_c, 0, 43, 31
1, 391220, Note_on_c, 0, 46, 0
1, 391320, Tempo, 413793
1, 391320, Note_on_c, 0, 46, 31
1, 391340, Note_on_c, 0, 43, 0
1, 391440, Tempo, 415225
1, 391440, Note_on_c, 0, 37, 0
1, 391440, Note_on_c, 0, 46, 0
1, 391440, Note_on_c, 0, 53, 31
1, 391440, Note_on_c, 0, 45, 26
1, 391440, Note_on_c, 0, 36, 24
1, 391680, Tempo, 425532
1, 391680, Note_on_c, 0, 36, 0
1, 391680, Note_on_c, 0, 29, 0
1, 391680, Note_on_c, 0, 53, 0
1, 391680, Note_on_c, 0, 45, 0
1, 392160, Note_on_c, 0, 64, 26
1, 392160, Note_on_c, 0, 72, 31
1, 392160, Note_on_c, 0, 48, 22
1, 392160, Note_on_c, 0, 58, 26
1, 392280, Note_on_c, 0, 58, 0
1, 392280, Note_on_c, 0, 64, 0
1, 392280, Note_on_c, 0, 72, 0
1, 392280, Note_on_c, 0, 48, 0
1, 392880, Note_on_c, 0, 57, 26
1, 392880, Note_on_c, 0, 65, 31
1, 392880, Note_on_c, 0, 41, 22
1, 392880, Note_on_c, 0, 48, 26
1, 393000, Marker_t, "Fine"
1, 393000, Note_on_c, 0, 48, 0
1, 393000, Note_on_c, 0, 57, 0
1, 393000, Note_on_c, 0, 65, 0
1, 393000, Note_on_c, 0, 41, 0
1, 393000, End_track
0, 0, End_of_file
