0, 0, Header, 0, 1, 480
1, 0, Start_track
1, 0, Title_t, "Sechs Moments Musicaux Opus 94 D 780"
1, 0, Title_t, "Nr. 1 in C-Dur"
1, 0, Copyright_t, "Copyright © 1999 by Bernd Krueger"
1, 0, Text_t, "Franz Schubert"
1, 0, Text_t, "Moderato"
1, 0, Text_t, "Erstausgabe: 1.7.99\012"
1, 0, Text_t, "Update: 3.7.99\012"
1, 0, Text_t, "Normierung: 23.12.2002\012"
1, 0, Text_t, "Update: 21.6.2007\012"
1, 0, Text_t, "Update: 16.3.2014 (keine Änderungen)\012"
1, 0, Text_t, "Dauer: 4:30 Minuten\012"
1, 0, SMPTE_offset, 96, 0, 3, 0, 0
1, 0, Time_signature, 3, 2, 24, 8
1, 0, Key_signature, 0, "major"
1, 0, Tempo, 542201
1, 0, Marker_t, "Teil 1"
1, 0, Program_c, 0, 0
1, 0, Control_c, 0, 7, 100
1, 0, Control_c, 0, 10, 64
1, 0, Control_c, 0, 91, 127
1, 0, Text_t, "bdca426d104a26ac9dcb070447587523"
1, 0, Program_c, 0, 0
1, 0, Control_c, 0, 7, 100
1, 0, Control_c, 0, 10, 64
1, 0, Control_c, 0, 64, 127
1, 0, Control_c, 0, 91, 127
1, 1, Note_on_c, 0, 67, 60
1, 1, Note_on_c, 0, 55, 54
1, 420, Note_on_c, 0, 69, 50
1, 420, Note_on_c, 0, 57, 44
1, 421, Note_on_c, 0, 55, 0
1, 421, Note_on_c, 0, 67, 0
1, 480, Tempo, 521739
1, 480, Note_on_c, 0, 69, 0
1, 480, Note_on_c, 0, 57, 0
1, 480, Note_on_c, 0, 67, 60
1, 480, Note_on_c, 0, 55, 54
1, 486, Control_c, 0, 64, 0
1, 530, Control_c, 0, 64, 127
1, 640, Tempo, 504202
1, 640, Note_on_c, 0, 55, 0
1, 640, Note_on_c, 0, 67, 0
1, 640, Note_on_c, 0, 64, 57
1, 640, Note_on_c, 0, 52, 50
1, 800, Note_on_c, 0, 52, 0
1, 800, Note_on_c, 0, 64, 0
1, 800, Note_on_c, 0, 60, 53
1, 800, Note_on_c, 0, 48, 47
1, 960, Tempo, 557103
1, 960, Note_on_c, 0, 48, 0
1, 960, Note_on_c, 0, 60, 0
1, 960, Note_on_c, 0, 67, 60
1, 960, Note_on_c, 0, 55, 54
1, 971, Control_c, 0, 64, 0
1, 1034, Control_c, 0, 64, 127
1, 1280, Tempo, 639250
1, 1320, Note_on_c, 0, 55, 0
1, 1320, Note_on_c, 0, 67, 0
1, 1320, Note_on_c, 0, 76, 56
1, 1320, Note_on_c, 0, 64, 51
1, 1440, Tempo, 589565
1, 1440, Note_on_c, 0, 64, 0
1, 1440, Note_on_c, 0, 76, 0
1, 1440, Note_on_c, 0, 76, 60
1, 1440, Control_c, 0, 64, 0
1, 1440, Note_on_c, 0, 64, 54
1, 1652, Control_c, 0, 64, 127
1, 2400, Note_on_c, 0, 64, 0
1, 2400, Note_on_c, 0, 76, 0
1, 2400, Note_on_c, 0, 72, 44
1, 2400, Note_on_c, 0, 60, 40
1, 2456, Control_c, 0, 64, 0
1, 2640, Note_on_c, 0, 60, 0
1, 2640, Note_on_c, 0, 72, 0
1, 2880, Tempo, 542201
1, 2880, Note_on_c, 0, 67, 59
1, 2901, Control_c, 0, 64, 127
1, 3300, Note_on_c, 0, 67, 0
1, 3300, Note_on_c, 0, 65, 50
1, 3360, Note_on_c, 0, 65, 0
1, 3360, Note_on_c, 0, 64, 60
1, 3369, Control_c, 0, 64, 0
1, 3417, Control_c, 0, 64, 127
1, 3520, Tempo, 526316
1, 3520, Note_on_c, 0, 64, 0
1, 3520, Note_on_c, 0, 60, 56
1, 3680, Note_on_c, 0, 60, 0
1, 3680, Note_on_c, 0, 55, 52
1, 3840, Tempo, 521739
1, 3840, Note_on_c, 0, 55, 0
1, 3840, Note_on_c, 0, 60, 60
1, 3854, Control_c, 0, 64, 0
1, 3886, Control_c, 0, 64, 127
1, 4000, Note_on_c, 0, 60, 0
1, 4000, Note_on_c, 0, 64, 57
1, 4160, Note_on_c, 0, 64, 0
1, 4160, Note_on_c, 0, 67, 54
1, 4320, Tempo, 566038
1, 4320, Note_on_c, 0, 67, 0
1, 4320, Note_on_c, 0, 55, 56
1, 4320, Note_on_c, 0, 64, 56
1, 4320, Note_on_c, 0, 67, 56
1, 4320, Control_c, 0, 64, 0
1, 4320, Note_on_c, 0, 43, 51
1, 4440, Note_on_c, 0, 43, 0
1, 4440, Note_on_c, 0, 55, 0
1, 4440, Note_on_c, 0, 64, 0
1, 4440, Note_on_c, 0, 67, 0
1, 4560, Tempo, 540541
1, 4560, Note_on_c, 0, 65, 53
1, 4560, Note_on_c, 0, 62, 53
1, 4560, Note_on_c, 0, 55, 53
1, 4560, Note_on_c, 0, 45, 46
1, 4680, Note_on_c, 0, 45, 0
1, 4680, Note_on_c, 0, 65, 0
1, 4680, Note_on_c, 0, 62, 0
1, 4680, Note_on_c, 0, 55, 0
1, 4680, Note_on_c, 0, 47, 46
1, 4800, Tempo, 571429
1, 4800, Note_on_c, 0, 47, 0
1, 4800, Note_on_c, 0, 55, 56
1, 4800, Note_on_c, 0, 60, 56
1, 4800, Note_on_c, 0, 64, 56
1, 4800, Note_on_c, 0, 48, 51
1, 4890, Note_on_c, 0, 48, 0
1, 4890, Note_on_c, 0, 55, 0
1, 4890, Note_on_c, 0, 60, 0
1, 4890, Note_on_c, 0, 64, 0
1, 5040, Tempo, 600000
1, 5040, Note_on_c, 0, 59, 50
1, 5040, Note_on_c, 0, 55, 50
1, 5040, Note_on_c, 0, 62, 50
1, 5040, Note_on_c, 0, 43, 45
1, 5130, Note_on_c, 0, 43, 0
1, 5130, Note_on_c, 0, 59, 0
1, 5130, Note_on_c, 0, 55, 0
1, 5130, Note_on_c, 0, 62, 0
1, 5280, Tempo, 572902
1, 5280, Note_on_c, 0, 55, 56
1, 5280, Note_on_c, 0, 64, 56
1, 5280, Note_on_c, 0, 60, 56
1, 5280, Note_on_c, 0, 48, 51
1, 5370, Note_on_c, 0, 48, 0
1, 5370, Note_on_c, 0, 55, 0
1, 5370, Note_on_c, 0, 64, 0
1, 5370, Note_on_c, 0, 60, 0
1, 5760, Tempo, 582524
1, 5760, Note_on_c, 0, 55, 41
1, 5760, Note_on_c, 0, 63, 41
1, 5760, Note_on_c, 0, 67, 41
1, 5760, Note_on_c, 0, 43, 36
1, 5880, Note_on_c, 0, 67, 0
1, 5880, Note_on_c, 0, 55, 0
1, 5880, Note_on_c, 0, 63, 0
1, 6000, Tempo, 560748
1, 6000, Note_on_c, 0, 43, 0
1, 6000, Note_on_c, 0, 65, 37
1, 6000, Note_on_c, 0, 55, 37
1, 6000, Note_on_c, 0, 62, 37
1, 6000, Note_on_c, 0, 45, 34
1, 6120, Note_on_c, 0, 45, 0
1, 6120, Note_on_c, 0, 65, 0
1, 6120, Note_on_c, 0, 55, 0
1, 6120, Note_on_c, 0, 62, 0
1, 6120, Note_on_c, 0, 47, 35
1, 6240, Tempo, 571429
1, 6240, Note_on_c, 0, 47, 0
1, 6240, Note_on_c, 0, 55, 41
1, 6240, Note_on_c, 0, 60, 41
1, 6240, Note_on_c, 0, 63, 41
1, 6240, Note_on_c, 0, 48, 36
1, 6330, Note_on_c, 0, 48, 0
1, 6330, Note_on_c, 0, 55, 0
1, 6330, Note_on_c, 0, 60, 0
1, 6330, Note_on_c, 0, 63, 0
1, 6480, Tempo, 576923
1, 6480, Note_on_c, 0, 62, 38
1, 6480, Note_on_c, 0, 55, 38
1, 6480, Note_on_c, 0, 59, 38
1, 6480, Note_on_c, 0, 43, 33
1, 6570, Note_on_c, 0, 43, 0
1, 6570, Note_on_c, 0, 62, 0
1, 6570, Note_on_c, 0, 55, 0
1, 6570, Note_on_c, 0, 59, 0
1, 6720, Tempo, 566038
1, 6720, Note_on_c, 0, 55, 43
1, 6720, Note_on_c, 0, 60, 43
1, 6720, Note_on_c, 0, 63, 43
1, 6720, Note_on_c, 0, 48, 36
1, 6810, Note_on_c, 0, 48, 0
1, 6810, Note_on_c, 0, 55, 0
1, 6810, Note_on_c, 0, 60, 0
1, 6810, Note_on_c, 0, 63, 0
1, 6960, Tempo, 550459
1, 6960, Note_on_c, 0, 65, 38
1, 6960, Note_on_c, 0, 58, 38
1, 6960, Note_on_c, 0, 62, 38
1, 6960, Note_on_c, 0, 46, 33
1, 7050, Note_on_c, 0, 46, 0
1, 7050, Note_on_c, 0, 65, 0
1, 7050, Note_on_c, 0, 58, 0
1, 7050, Note_on_c, 0, 62, 0
1, 7200, Tempo, 526316
1, 7200, Note_on_c, 0, 58, 53
1, 7200, Note_on_c, 0, 62, 53
1, 7200, Note_on_c, 0, 65, 53
1, 7200, Note_on_c, 0, 46, 49
1, 7200, Control_c, 0, 64, 127
1, 7440, Tempo, 560748
1, 7440, Note_on_c, 0, 46, 0
1, 7440, Note_on_c, 0, 58, 0
1, 7440, Note_on_c, 0, 62, 0
1, 7440, Note_on_c, 0, 65, 0
1, 7440, Note_on_c, 0, 63, 49
1, 7440, Note_on_c, 0, 58, 49
1, 7440, Note_on_c, 0, 67, 49
1, 7440, Note_on_c, 0, 51, 43
1, 7461, Control_c, 0, 64, 0
1, 7483, Control_c, 0, 64, 127
1, 7532, Control_c, 0, 64, 0
1, 7620, Note_on_c, 0, 51, 0
1, 7620, Note_on_c, 0, 63, 0
1, 7620, Note_on_c, 0, 58, 0
1, 7620, Note_on_c, 0, 67, 0
1, 7680, Tempo, 540541
1, 7680, Note_on_c, 0, 58, 58
1, 7680, Note_on_c, 0, 67, 58
1, 7680, Note_on_c, 0, 63, 58
1, 7680, Note_on_c, 0, 51, 50
1, 7703, Control_c, 0, 64, 127
1, 7920, Tempo, 572902
1, 7920, Note_on_c, 0, 51, 0
1, 7920, Note_on_c, 0, 58, 0
1, 7920, Note_on_c, 0, 67, 0
1, 7920, Note_on_c, 0, 63, 0
1, 7920, Note_on_c, 0, 62, 53
1, 7920, Note_on_c, 0, 66, 53
1, 7920, Note_on_c, 0, 69, 53
1, 7920, Note_on_c, 0, 50, 47
1, 7930, Control_c, 0, 64, 0
1, 7980, Control_c, 0, 64, 127
1, 8022, Control_c, 0, 64, 0
1, 8100, Note_on_c, 0, 50, 0
1, 8100, Note_on_c, 0, 62, 0
1, 8100, Note_on_c, 0, 66, 0
1, 8100, Note_on_c, 0, 69, 0
1, 8160, Tempo, 555556
1, 8160, Note_on_c, 0, 69, 63
1, 8160, Note_on_c, 0, 66, 63
1, 8160, Note_on_c, 0, 62, 63
1, 8160, Control_c, 0, 64, 127
1, 8160, Note_on_c, 0, 50, 56
1, 8397, Control_c, 0, 64, 0
1, 8400, Tempo, 571429
1, 8400, Note_on_c, 0, 50, 0
1, 8400, Note_on_c, 0, 69, 0
1, 8400, Note_on_c, 0, 66, 0
1, 8400, Note_on_c, 0, 62, 0
1, 8400, Note_on_c, 0, 62, 58
1, 8400, Note_on_c, 0, 67, 58
1, 8400, Note_on_c, 0, 70, 58
1, 8400, Note_on_c, 0, 55, 54
1, 8450, Control_c, 0, 64, 127
1, 8538, Control_c, 0, 64, 0
1, 8580, Note_on_c, 0, 55, 0
1, 8580, Note_on_c, 0, 62, 0
1, 8580, Note_on_c, 0, 67, 0
1, 8580, Note_on_c, 0, 70, 0
1, 8640, Note_on_c, 0, 70, 68
1, 8640, Note_on_c, 0, 62, 68
1, 8640, Note_on_c, 0, 67, 68
1, 8640, Control_c, 0, 64, 127
1, 8640, Note_on_c, 0, 55, 59
1, 8880, Tempo, 692361
1, 8880, Note_on_c, 0, 55, 0
1, 8880, Note_on_c, 0, 70, 0
1, 8880, Note_on_c, 0, 62, 0
1, 8880, Note_on_c, 0, 67, 0
1, 8880, Note_on_c, 0, 62, 66
1, 8880, Note_on_c, 0, 67, 66
1, 8880, Note_on_c, 0, 71, 66
1, 8880, Note_on_c, 0, 43, 57
1, 8880, Note_on_c, 0, 55, 57
1, 8880, Note_on_c, 0, 53, 57
1, 8896, Control_c, 0, 64, 0
1, 9006, Control_c, 0, 64, 127
1, 9120, Tempo, 652955
1, 9120, Note_on_c, 0, 53, 0
1, 9120, Note_on_c, 0, 67, 0
1, 9120, Note_on_c, 0, 71, 0
1, 9120, Note_on_c, 0, 62, 0
1, 9120, Note_on_c, 0, 55, 0
1, 9120, Note_on_c, 0, 43, 0
1, 9120, Note_on_c, 0, 67, 71
1, 9120, Note_on_c, 0, 62, 71
1, 9120, Note_on_c, 0, 71, 71
1, 9120, Note_on_c, 0, 53, 61
1, 9120, Note_on_c, 0, 43, 61
1, 9120, Note_on_c, 0, 55, 61
1, 9133, Control_c, 0, 64, 0
1, 9360, Control_c, 0, 64, 127
1, 9840, Tempo, 714456
1, 9840, Note_on_c, 0, 55, 0
1, 9840, Note_on_c, 0, 62, 0
1, 9840, Note_on_c, 0, 71, 0
1, 9840, Note_on_c, 0, 67, 0
1, 9840, Note_on_c, 0, 43, 0
1, 9840, Note_on_c, 0, 53, 0
1, 9840, Note_on_c, 0, 65, 54
1, 9840, Note_on_c, 0, 77, 54
1, 9840, Note_on_c, 0, 71, 54
1, 9840, Note_on_c, 0, 50, 48
1, 9840, Note_on_c, 0, 43, 48
1, 9840, Note_on_c, 0, 55, 48
1, 10080, Tempo, 589565
1, 10080, Note_on_c, 0, 55, 0
1, 10080, Note_on_c, 0, 77, 0
1, 10080, Note_on_c, 0, 71, 0
1, 10080, Note_on_c, 0, 65, 0
1, 10080, Note_on_c, 0, 43, 0
1, 10080, Note_on_c, 0, 50, 0
1, 10080, Note_on_c, 0, 64, 54
1, 10080, Note_on_c, 0, 72, 54
1, 10080, Note_on_c, 0, 76, 54
1, 10080, Note_on_c, 0, 55, 48
1, 10080, Note_on_c, 0, 48, 48
1, 10090, Control_c, 0, 64, 0
1, 10480, Control_c, 0, 64, 127
1, 11520, Tempo, 542201
1, 11520, Marker_t, "Teil 1 :"
1, 11520, Note_on_c, 0, 48, 0
1, 11520, Note_on_c, 0, 76, 0
1, 11520, Note_on_c, 0, 64, 0
1, 11520, Note_on_c, 0, 72, 0
1, 11520, Note_on_c, 0, 55, 0
1, 11520, Control_c, 0, 91, 127
1, 11520, Note_on_c, 0, 67, 60
1, 11520, Control_c, 0, 64, 0
1, 11520, Note_on_c, 0, 55, 54
1, 11591, Control_c, 0, 64, 127
1, 11940, Note_on_c, 0, 55, 0
1, 11940, Note_on_c, 0, 67, 0
1, 11940, Note_on_c, 0, 69, 50
1, 11940, Note_on_c, 0, 57, 44
1, 12000, Tempo, 526316
1, 12000, Note_on_c, 0, 57, 0
1, 12000, Note_on_c, 0, 69, 0
1, 12000, Note_on_c, 0, 67, 60
1, 12000, Note_on_c, 0, 55, 54
1, 12007, Control_c, 0, 64, 0
1, 12057, Control_c, 0, 64, 127
1, 12160, Tempo, 526316
1, 12160, Note_on_c, 0, 55, 0
1, 12160, Note_on_c, 0, 67, 0
1, 12160, Note_on_c, 0, 64, 57
1, 12160, Note_on_c, 0, 52, 50
1, 12200, Tempo, 508475
1, 12320, Note_on_c, 0, 52, 0
1, 12320, Note_on_c, 0, 64, 0
1, 12320, Note_on_c, 0, 60, 53
1, 12320, Note_on_c, 0, 48, 47
1, 12480, Tempo, 557103
1, 12480, Note_on_c, 0, 48, 0
1, 12480, Note_on_c, 0, 60, 0
1, 12480, Note_on_c, 0, 67, 60
1, 12480, Note_on_c, 0, 55, 54
1, 12490, Control_c, 0, 64, 0
1, 12554, Control_c, 0, 64, 127
1, 12800, Tempo, 639250
1, 12840, Note_on_c, 0, 55, 0
1, 12840, Note_on_c, 0, 67, 0
1, 12840, Note_on_c, 0, 76, 56
1, 12840, Note_on_c, 0, 64, 51
1, 12960, Tempo, 589565
1, 12960, Note_on_c, 0, 64, 0
1, 12960, Note_on_c, 0, 76, 0
1, 12960, Note_on_c, 0, 76, 60
1, 12960, Note_on_c, 0, 64, 54
1, 12962, Control_c, 0, 64, 0
1, 13186, Control_c, 0, 64, 127
1, 13920, Note_on_c, 0, 64, 0
1, 13920, Note_on_c, 0, 76, 0
1, 13920, Note_on_c, 0, 72, 44
1, 13920, Control_c, 0, 64, 0
1, 13920, Note_on_c, 0, 60, 40
1, 14160, Note_on_c, 0, 60, 0
1, 14160, Note_on_c, 0, 72, 0
1, 14400, Tempo, 542201
1, 14400, Note_on_c, 0, 67, 59
1, 14457, Control_c, 0, 64, 127
1, 14820, Note_on_c, 0, 67, 0
1, 14820, Note_on_c, 0, 65, 50
1, 14880, Note_on_c, 0, 65, 0
1, 14880, Note_on_c, 0, 64, 60
1, 14890, Control_c, 0, 64, 0
1, 14937, Control_c, 0, 64, 127
1, 15040, Tempo, 526316
1, 15040, Note_on_c, 0, 64, 0
1, 15040, Note_on_c, 0, 60, 56
1, 15200, Note_on_c, 0, 60, 0
1, 15200, Note_on_c, 0, 55, 52
1, 15360, Tempo, 526316
1, 15360, Note_on_c, 0, 55, 0
1, 15360, Note_on_c, 0, 60, 60
1, 15374, Control_c, 0, 64, 0
1, 15427, Control_c, 0, 64, 127
1, 15520, Note_on_c, 0, 60, 0
1, 15520, Note_on_c, 0, 64, 57
1, 15680, Note_on_c, 0, 64, 0
1, 15680, Note_on_c, 0, 67, 57
1, 15840, Tempo, 571429
1, 15840, Note_on_c, 0, 67, 0
1, 15840, Note_on_c, 0, 55, 56
1, 15840, Note_on_c, 0, 64, 56
1, 15840, Note_on_c, 0, 67, 56
1, 15840, Note_on_c, 0, 43, 51
1, 15861, Control_c, 0, 64, 0
1, 15960, Note_on_c, 0, 43, 0
1, 15960, Note_on_c, 0, 55, 0
1, 15960, Note_on_c, 0, 64, 0
1, 15960, Note_on_c, 0, 67, 0
1, 16080, Tempo, 540541
1, 16080, Note_on_c, 0, 55, 53
1, 16080, Note_on_c, 0, 62, 53
1, 16080, Note_on_c, 0, 65, 53
1, 16080, Note_on_c, 0, 45, 46
1, 16200, Note_on_c, 0, 45, 0
1, 16200, Note_on_c, 0, 55, 0
1, 16200, Note_on_c, 0, 62, 0
1, 16200, Note_on_c, 0, 65, 0
1, 16200, Note_on_c, 0, 47, 46
1, 16320, Tempo, 576923
1, 16320, Note_on_c, 0, 47, 0
1, 16320, Note_on_c, 0, 55, 56
1, 16320, Note_on_c, 0, 60, 56
1, 16320, Note_on_c, 0, 64, 56
1, 16320, Note_on_c, 0, 48, 51
1, 16410, Note_on_c, 0, 48, 0
1, 16410, Note_on_c, 0, 55, 0
1, 16410, Note_on_c, 0, 60, 0
1, 16410, Note_on_c, 0, 64, 0
1, 16560, Tempo, 594059
1, 16560, Note_on_c, 0, 55, 50
1, 16560, Note_on_c, 0, 59, 50
1, 16560, Note_on_c, 0, 62, 50
1, 16560, Note_on_c, 0, 43, 45
1, 16650, Note_on_c, 0, 43, 0
1, 16650, Note_on_c, 0, 55, 0
1, 16650, Note_on_c, 0, 59, 0
1, 16650, Note_on_c, 0, 62, 0
1, 16800, Tempo, 572902
1, 16800, Note_on_c, 0, 55, 56
1, 16800, Note_on_c, 0, 60, 56
1, 16800, Note_on_c, 0, 64, 56
1, 16800, Note_on_c, 0, 48, 51
1, 16890, Note_on_c, 0, 48, 0
1, 16890, Note_on_c, 0, 55, 0
1, 16890, Note_on_c, 0, 60, 0
1, 16890, Note_on_c, 0, 64, 0
1, 17280, Tempo, 582524
1, 17280, Note_on_c, 0, 55, 41
1, 17280, Note_on_c, 0, 63, 41
1, 17280, Note_on_c, 0, 67, 41
1, 17280, Note_on_c, 0, 43, 36
1, 17400, Note_on_c, 0, 67, 0
1, 17400, Note_on_c, 0, 55, 0
1, 17400, Note_on_c, 0, 63, 0
1, 17520, Tempo, 560748
1, 17520, Note_on_c, 0, 43, 0
1, 17520, Note_on_c, 0, 55, 37
1, 17520, Note_on_c, 0, 62, 37
1, 17520, Note_on_c, 0, 65, 37
1, 17520, Note_on_c, 0, 45, 34
1, 17640, Note_on_c, 0, 45, 0
1, 17640, Note_on_c, 0, 55, 0
1, 17640, Note_on_c, 0, 62, 0
1, 17640, Note_on_c, 0, 65, 0
1, 17640, Note_on_c, 0, 47, 35
1, 17760, Tempo, 571429
1, 17760, Note_on_c, 0, 47, 0
1, 17760, Note_on_c, 0, 55, 41
1, 17760, Note_on_c, 0, 60, 41
1, 17760, Note_on_c, 0, 63, 41
1, 17760, Note_on_c, 0, 48, 36
1, 17850, Note_on_c, 0, 48, 0
1, 17850, Note_on_c, 0, 55, 0
1, 17850, Note_on_c, 0, 60, 0
1, 17850, Note_on_c, 0, 63, 0
1, 18000, Tempo, 560748
1, 18000, Note_on_c, 0, 55, 38
1, 18000, Note_on_c, 0, 59, 38
1, 18000, Note_on_c, 0, 62, 38
1, 18000, Note_on_c, 0, 43, 33
1, 18090, Note_on_c, 0, 43, 0
1, 18090, Note_on_c, 0, 55, 0
1, 18090, Note_on_c, 0, 59, 0
1, 18090, Note_on_c, 0, 62, 0
1, 18240, Tempo, 571429
1, 18240, Note_on_c, 0, 55, 45
1, 18240, Note_on_c, 0, 60, 45
1, 18240, Note_on_c, 0, 63, 45
1, 18240, Note_on_c, 0, 48, 38
1, 18330, Note_on_c, 0, 48, 0
1, 18330, Note_on_c, 0, 55, 0
1, 18330, Note_on_c, 0, 60, 0
1, 18330, Note_on_c, 0, 63, 0
1, 18480, Tempo, 555556
1, 18480, Note_on_c, 0, 58, 41
1, 18480, Note_on_c, 0, 62, 41
1, 18480, Note_on_c, 0, 65, 41
1, 18480, Note_on_c, 0, 46, 36
1, 18600, Note_on_c, 0, 46, 0
1, 18600, Note_on_c, 0, 58, 0
1, 18600, Note_on_c, 0, 62, 0
1, 18600, Note_on_c, 0, 65, 0
1, 18720, Tempo, 526316
1, 18720, Note_on_c, 0, 58, 51
1, 18720, Note_on_c, 0, 62, 51
1, 18720, Note_on_c, 0, 65, 51
1, 18720, Note_on_c, 0, 46, 47
1, 18731, Control_c, 0, 64, 127
1, 18960, Tempo, 571429
1, 18960, Note_on_c, 0, 46, 0
1, 18960, Note_on_c, 0, 58, 0
1, 18960, Note_on_c, 0, 62, 0
1, 18960, Note_on_c, 0, 65, 0
1, 18960, Note_on_c, 0, 58, 48
1, 18960, Note_on_c, 0, 63, 48
1, 18960, Note_on_c, 0, 67, 48
1, 18960, Note_on_c, 0, 51, 43
1, 18967, Control_c, 0, 64, 0
1, 18999, Control_c, 0, 64, 127
1, 19059, Control_c, 0, 64, 0
1, 19140, Note_on_c, 0, 51, 0
1, 19140, Note_on_c, 0, 58, 0
1, 19140, Note_on_c, 0, 63, 0
1, 19140, Note_on_c, 0, 67, 0
1, 19200, Tempo, 540541
1, 19200, Note_on_c, 0, 58, 57
1, 19200, Note_on_c, 0, 63, 57
1, 19200, Note_on_c, 0, 67, 57
1, 19200, Note_on_c, 0, 51, 50
1, 19221, Control_c, 0, 64, 127
1, 19440, Tempo, 572902
1, 19440, Note_on_c, 0, 51, 0
1, 19440, Note_on_c, 0, 58, 0
1, 19440, Note_on_c, 0, 63, 0
1, 19440, Note_on_c, 0, 67, 0
1, 19440, Note_on_c, 0, 62, 54
1, 19440, Note_on_c, 0, 66, 54
1, 19440, Note_on_c, 0, 69, 54
1, 19440, Note_on_c, 0, 50, 48
1, 19446, Control_c, 0, 64, 0
1, 19486, Control_c, 0, 64, 127
1, 19549, Control_c, 0, 64, 0
1, 19620, Note_on_c, 0, 50, 0
1, 19620, Note_on_c, 0, 62, 0
1, 19620, Note_on_c, 0, 66, 0
1, 19620, Note_on_c, 0, 69, 0
1, 19680, Tempo, 560748
1, 19680, Note_on_c, 0, 62, 64
1, 19680, Note_on_c, 0, 66, 64
1, 19680, Note_on_c, 0, 69, 64
1, 19680, Note_on_c, 0, 50, 56
1, 19691, Control_c, 0, 64, 127
1, 19920, Note_on_c, 0, 50, 0
1, 19920, Note_on_c, 0, 62, 0
1, 19920, Note_on_c, 0, 66, 0
1, 19920, Note_on_c, 0, 69, 0
1, 19920, Note_on_c, 0, 62, 57
1, 19920, Note_on_c, 0, 67, 57
1, 19920, Note_on_c, 0, 70, 57
1, 19920, Note_on_c, 0, 55, 52
1, 19926, Control_c, 0, 64, 0
1, 19966, Control_c, 0, 64, 127
1, 20044, Control_c, 0, 64, 0
1, 20100, Note_on_c, 0, 55, 0
1, 20100, Note_on_c, 0, 62, 0
1, 20100, Note_on_c, 0, 67, 0
1, 20100, Note_on_c, 0, 70, 0
1, 20160, Tempo, 571429
1, 20160, Note_on_c, 0, 62, 66
1, 20160, Note_on_c, 0, 67, 66
1, 20160, Note_on_c, 0, 70, 66
1, 20160, Note_on_c, 0, 55, 59
1, 20233, Control_c, 0, 64, 127
1, 20400, Tempo, 688389
1, 20400, Note_on_c, 0, 55, 0
1, 20400, Note_on_c, 0, 62, 0
1, 20400, Note_on_c, 0, 67, 0
1, 20400, Note_on_c, 0, 70, 0
1, 20400, Note_on_c, 0, 62, 66
1, 20400, Note_on_c, 0, 67, 66
1, 20400, Note_on_c, 0, 71, 66
1, 20400, Note_on_c, 0, 43, 56
1, 20400, Note_on_c, 0, 53, 56
1, 20400, Note_on_c, 0, 55, 56
1, 20414, Control_c, 0, 64, 0
1, 20526, Control_c, 0, 64, 127
1, 20640, Tempo, 652955
1, 20640, Note_on_c, 0, 55, 0
1, 20640, Note_on_c, 0, 67, 0
1, 20640, Note_on_c, 0, 71, 0
1, 20640, Note_on_c, 0, 62, 0
1, 20640, Note_on_c, 0, 53, 0
1, 20640, Note_on_c, 0, 43, 0
1, 20640, Note_on_c, 0, 62, 69
1, 20640, Note_on_c, 0, 67, 69
1, 20640, Note_on_c, 0, 71, 69
1, 20640, Note_on_c, 0, 43, 63
1, 20640, Note_on_c, 0, 53, 63
1, 20640, Note_on_c, 0, 55, 63
1, 20659, Control_c, 0, 64, 0
1, 20835, Control_c, 0, 64, 127
1, 21360, Tempo, 714456
1, 21360, Note_on_c, 0, 55, 0
1, 21360, Note_on_c, 0, 67, 0
1, 21360, Note_on_c, 0, 71, 0
1, 21360, Note_on_c, 0, 62, 0
1, 21360, Note_on_c, 0, 53, 0
1, 21360, Note_on_c, 0, 43, 0
1, 21360, Note_on_c, 0, 65, 54
1, 21360, Note_on_c, 0, 71, 54
1, 21360, Note_on_c, 0, 77, 54
1, 21360, Note_on_c, 0, 43, 48
1, 21360, Note_on_c, 0, 50, 48
1, 21360, Note_on_c, 0, 55, 48
1, 21600, Tempo, 589565
1, 21600, Note_on_c, 0, 55, 0
1, 21600, Note_on_c, 0, 71, 0
1, 21600, Note_on_c, 0, 77, 0
1, 21600, Note_on_c, 0, 65, 0
1, 21600, Note_on_c, 0, 50, 0
1, 21600, Note_on_c, 0, 43, 0
1, 21600, Note_on_c, 0, 64, 54
1, 21600, Note_on_c, 0, 72, 54
1, 21600, Note_on_c, 0, 76, 54
1, 21600, Note_on_c, 0, 48, 48
1, 21600, Note_on_c, 0, 55, 48
1, 21654, Control_c, 0, 64, 0
1, 21974, Control_c, 0, 64, 127
1, 23040, Tempo, 562272
1, 23040, Marker_t, "Teil 2"
1, 23040, Note_on_c, 0, 55, 0
1, 23040, Note_on_c, 0, 76, 0
1, 23040, Note_on_c, 0, 64, 0
1, 23040, Note_on_c, 0, 72, 0
1, 23040, Note_on_c, 0, 48, 0
1, 23040, Note_on_c, 0, 76, 54
1, 23040, Control_c, 0, 64, 0
1, 23107, Control_c, 0, 64, 127
1, 23460, Note_on_c, 0, 76, 0
1, 23460, Note_on_c, 0, 77, 44
1, 23520, Tempo, 530973
1, 23520, Note_on_c, 0, 77, 0
1, 23520, Note_on_c, 0, 76, 54
1, 23527, Control_c, 0, 64, 0
1, 23580, Control_c, 0, 64, 127
1, 23680, Note_on_c, 0, 76, 0
1, 23680, Note_on_c, 0, 72, 50
1, 23840, Tempo, 566038
1, 23840, Note_on_c, 0, 72, 0
1, 23840, Note_on_c, 0, 69, 47
1, 23940, Note_on_c, 0, 69, 0
1, 23940, Note_on_c, 0, 74, 44
1, 23980, Tempo, 540541
1, 24000, Note_on_c, 0, 74, 0
1, 24000, Note_on_c, 0, 72, 54
1, 24006, Control_c, 0, 64, 0
1, 24060, Control_c, 0, 64, 127
1, 24160, Note_on_c, 0, 72, 0
1, 24160, Note_on_c, 0, 69, 51
1, 24320, Tempo, 583885
1, 24320, Note_on_c, 0, 69, 0
1, 24320, Note_on_c, 0, 64, 47
1, 24480, Tempo, 557103
1, 24480, Note_on_c, 0, 64, 0
1, 24480, Note_on_c, 0, 64, 54
1, 24480, Note_on_c, 0, 69, 54
1, 24480, Note_on_c, 0, 72, 54
1, 24480, Control_c, 0, 64, 0
1, 24480, Note_on_c, 0, 52, 52
1, 24537, Control_c, 0, 64, 127
1, 24720, Note_on_c, 0, 72, 0
1, 24720, Note_on_c, 0, 69, 0
1, 24720, Note_on_c, 0, 68, 43
1, 24720, Note_on_c, 0, 71, 51
1, 24900, Note_on_c, 0, 52, 0
1, 24900, Note_on_c, 0, 53, 44
1, 24960, Tempo, 631579
1, 24960, Note_on_c, 0, 53, 0
1, 24960, Note_on_c, 0, 71, 0
1, 24960, Note_on_c, 0, 68, 0
1, 24960, Note_on_c, 0, 64, 0
1, 24960, Note_on_c, 0, 68, 45
1, 24960, Note_on_c, 0, 64, 45
1, 24960, Note_on_c, 0, 71, 54
1, 24960, Note_on_c, 0, 52, 58
1, 24968, Control_c, 0, 64, 0
1, 25038, Control_c, 0, 64, 127
1, 25120, Note_on_c, 0, 52, 0
1, 25120, Note_on_c, 0, 47, 57
1, 25200, Note_on_c, 0, 68, 0
1, 25200, Note_on_c, 0, 71, 0
1, 25200, Note_on_c, 0, 64, 0
1, 25200, Note_on_c, 0, 66, 43
1, 25200, Note_on_c, 0, 64, 43
1, 25200, Note_on_c, 0, 69, 51
1, 25280, Tempo, 645995
1, 25280, Note_on_c, 0, 47, 0
1, 25280, Note_on_c, 0, 40, 54
1, 25440, Tempo, 595356
1, 25440, Note_on_c, 0, 40, 0
1, 25440, Note_on_c, 0, 69, 0
1, 25440, Note_on_c, 0, 64, 0
1, 25440, Note_on_c, 0, 66, 0
1, 25440, Note_on_c, 0, 64, 45
1, 25440, Note_on_c, 0, 68, 45
1, 25440, Note_on_c, 0, 71, 54
1, 25440, Note_on_c, 0, 52, 59
1, 25453, Control_c, 0, 64, 0
1, 25920, Tempo, 572902
1, 25920, Note_on_c, 0, 52, 0
1, 25920, Note_on_c, 0, 64, 0
1, 25920, Note_on_c, 0, 68, 0
1, 25920, Note_on_c, 0, 71, 0
1, 25920, Note_on_c, 0, 64, 45
1, 25920, Note_on_c, 0, 67, 45
1, 25920, Note_on_c, 0, 72, 54
1, 25920, Note_on_c, 0, 52, 52
1, 25984, Control_c, 0, 64, 127
1, 26160, Note_on_c, 0, 72, 0
1, 26160, Note_on_c, 0, 71, 51
1, 26340, Note_on_c, 0, 52, 0
1, 26340, Note_on_c, 0, 53, 44
1, 26400, Tempo, 618557
1, 26400, Note_on_c, 0, 53, 0
1, 26400, Note_on_c, 0, 71, 0
1, 26400, Note_on_c, 0, 67, 0
1, 26400, Note_on_c, 0, 64, 0
1, 26400, Note_on_c, 0, 64, 45
1, 26400, Note_on_c, 0, 67, 45
1, 26400, Note_on_c, 0, 71, 54
1, 26400, Note_on_c, 0, 52, 59
1, 26403, Control_c, 0, 64, 0
1, 26485, Control_c, 0, 64, 127
1, 26560, Note_on_c, 0, 52, 0
1, 26560, Note_on_c, 0, 55, 55
1, 26640, Tempo, 594059
1, 26640, Note_on_c, 0, 64, 0
1, 26640, Note_on_c, 0, 71, 0
1, 26640, Note_on_c, 0, 67, 0
1, 26640, Note_on_c, 0, 64, 44
1, 26640, Note_on_c, 0, 67, 44
1, 26640, Note_on_c, 0, 72, 52
1, 26720, Note_on_c, 0, 55, 0
1, 26720, Note_on_c, 0, 60, 53
1, 26880, Tempo, 612245
1, 26880, Note_on_c, 0, 60, 0
1, 26880, Note_on_c, 0, 72, 0
1, 26880, Note_on_c, 0, 67, 0
1, 26880, Note_on_c, 0, 64, 0
1, 26880, Note_on_c, 0, 67, 45
1, 26880, Note_on_c, 0, 71, 54
1, 26880, Note_on_c, 0, 65, 53
1, 26880, Note_on_c, 0, 62, 45
1, 26896, Control_c, 0, 64, 0
1, 26947, Control_c, 0, 64, 127
1, 27120, Note_on_c, 0, 71, 0
1, 27120, Note_on_c, 0, 77, 53
1, 27360, Note_on_c, 0, 77, 0
1, 27360, Note_on_c, 0, 62, 0
1, 27360, Note_on_c, 0, 65, 0
1, 27360, Note_on_c, 0, 67, 0
1, 27360, Note_on_c, 0, 76, 54
1, 27360, Control_c, 0, 64, 0
1, 27360, Note_on_c, 0, 64, 52
1, 27360, Note_on_c, 0, 60, 44
1, 27438, Control_c, 0, 64, 127
1, 27780, Note_on_c, 0, 76, 0
1, 27780, Note_on_c, 0, 74, 43
1, 27840, Note_on_c, 0, 74, 0
1, 27840, Note_on_c, 0, 60, 0
1, 27840, Note_on_c, 0, 64, 0
1, 27840, Note_on_c, 0, 72, 53
1, 27840, Note_on_c, 0, 66, 55
1, 27840, Note_on_c, 0, 62, 46
1, 27848, Control_c, 0, 64, 0
1, 27936, Control_c, 0, 64, 127
1, 28000, Note_on_c, 0, 72, 0
1, 28000, Note_on_c, 0, 71, 51
1, 28080, Note_on_c, 0, 62, 0
1, 28080, Note_on_c, 0, 66, 0
1, 28080, Note_on_c, 0, 66, 53
1, 28080, Note_on_c, 0, 62, 45
1, 28160, Note_on_c, 0, 71, 0
1, 28160, Note_on_c, 0, 69, 52
1, 28320, Tempo, 638298
1, 28320, Note_on_c, 0, 69, 0
1, 28320, Note_on_c, 0, 62, 0
1, 28320, Note_on_c, 0, 66, 0
1, 28320, Note_on_c, 0, 71, 55
1, 28320, Note_on_c, 0, 62, 47
1, 28320, Note_on_c, 0, 55, 47
1, 28320, Note_on_c, 0, 67, 56
1, 28334, Control_c, 0, 64, 0
1, 28800, Tempo, 582524
1, 28800, Note_on_c, 0, 67, 0
1, 28800, Note_on_c, 0, 71, 0
1, 28800, Note_on_c, 0, 62, 0
1, 28800, Note_on_c, 0, 55, 0
1, 28800, Note_on_c, 0, 71, 68
1, 28800, Note_on_c, 0, 59, 61
1, 28825, Control_c, 0, 64, 127
1, 29220, Tempo, 500000
1, 29220, Note_on_c, 0, 59, 0
1, 29220, Note_on_c, 0, 71, 0
1, 29220, Note_on_c, 0, 72, 58
1, 29220, Note_on_c, 0, 60, 51
1, 29280, Tempo, 526316
1, 29280, Note_on_c, 0, 60, 0
1, 29280, Note_on_c, 0, 72, 0
1, 29280, Note_on_c, 0, 71, 68
1, 29280, Note_on_c, 0, 59, 61
1, 29285, Control_c, 0, 64, 0
1, 29333, Control_c, 0, 64, 127
1, 29440, Tempo, 504202
1, 29440, Note_on_c, 0, 59, 0
1, 29440, Note_on_c, 0, 71, 0
1, 29440, Note_on_c, 0, 67, 66
1, 29440, Note_on_c, 0, 55, 59
1, 29600, Tempo, 576923
1, 29600, Note_on_c, 0, 55, 0
1, 29600, Note_on_c, 0, 67, 0
1, 29600, Note_on_c, 0, 64, 64
1, 29600, Note_on_c, 0, 52, 56
1, 29693, Control_c, 0, 64, 0
1, 29720, Note_on_c, 0, 52, 0
1, 29720, Note_on_c, 0, 64, 0
1, 29760, Tempo, 550459
1, 29760, Note_on_c, 0, 79, 82
1, 29760, Note_on_c, 0, 67, 74
1, 29806, Control_c, 0, 64, 127
1, 30000, Tempo, 606061
1, 30000, Note_on_c, 0, 67, 0
1, 30000, Note_on_c, 0, 79, 0
1, 30000, Note_on_c, 0, 76, 72
1, 30000, Note_on_c, 0, 64, 64
1, 30067, Control_c, 0, 64, 0
1, 30090, Note_on_c, 0, 64, 0
1, 30090, Note_on_c, 0, 76, 0
1, 30240, Tempo, 571429
1, 30240, Note_on_c, 0, 71, 70
1, 30240, Note_on_c, 0, 59, 62
1, 30332, Control_c, 0, 64, 127
1, 30660, Tempo, 508475
1, 30660, Note_on_c, 0, 59, 0
1, 30660, Note_on_c, 0, 71, 0
1, 30660, Note_on_c, 0, 72, 60
1, 30660, Note_on_c, 0, 60, 53
1, 30720, Tempo, 526316
1, 30720, Note_on_c, 0, 60, 0
1, 30720, Note_on_c, 0, 72, 0
1, 30720, Note_on_c, 0, 71, 71
1, 30720, Note_on_c, 0, 59, 64
1, 30726, Control_c, 0, 64, 0
1, 30777, Control_c, 0, 64, 127
1, 30880, Tempo, 504202
1, 30880, Note_on_c, 0, 59, 0
1, 30880, Note_on_c, 0, 71, 0
1, 30880, Note_on_c, 0, 67, 69
1, 30880, Note_on_c, 0, 55, 61
1, 31040, Tempo, 571429
1, 31040, Note_on_c, 0, 55, 0
1, 31040, Note_on_c, 0, 67, 0
1, 31040, Note_on_c, 0, 64, 66
1, 31040, Note_on_c, 0, 52, 57
1, 31066, Control_c, 0, 64, 0
1, 31160, Note_on_c, 0, 52, 0
1, 31160, Note_on_c, 0, 64, 0
1, 31200, Tempo, 555556
1, 31200, Note_on_c, 0, 79, 85
1, 31200, Note_on_c, 0, 67, 76
1, 31240, Tempo, 545455
1, 31260, Control_c, 0, 64, 127
1, 31440, Tempo, 582524
1, 31440, Note_on_c, 0, 67, 0
1, 31440, Note_on_c, 0, 79, 0
1, 31440, Note_on_c, 0, 76, 74
1, 31440, Note_on_c, 0, 64, 66
1, 31497, Control_c, 0, 64, 0
1, 31530, Note_on_c, 0, 64, 0
1, 31530, Note_on_c, 0, 76, 0
1, 31680, Tempo, 571429
1, 31680, Note_on_c, 0, 83, 90
1, 31680, Note_on_c, 0, 75, 90
1, 31680, Note_on_c, 0, 78, 90
1, 31680, Note_on_c, 0, 47, 77
1, 31689, Control_c, 0, 64, 127
1, 31920, Note_on_c, 0, 47, 0
1, 31920, Note_on_c, 0, 83, 0
1, 31920, Note_on_c, 0, 75, 0
1, 31920, Note_on_c, 0, 78, 0
1, 31920, Note_on_c, 0, 71, 87
1, 31920, Note_on_c, 0, 59, 72
1, 32003, Control_c, 0, 64, 0
1, 32010, Note_on_c, 0, 59, 0
1, 32010, Note_on_c, 0, 71, 0
1, 32100, Tempo, 491803
1, 32100, Note_on_c, 0, 81, 70
1, 32100, Note_on_c, 0, 63, 57
1, 32160, Tempo, 508475
1, 32160, Note_on_c, 0, 63, 0
1, 32160, Note_on_c, 0, 81, 0
1, 32160, Note_on_c, 0, 79, 87
1, 32160, Note_on_c, 0, 64, 73
1, 32320, Note_on_c, 0, 64, 0
1, 32320, Note_on_c, 0, 79, 0
1, 32320, Note_on_c, 0, 78, 83
1, 32320, Note_on_c, 0, 66, 67
1, 32480, Tempo, 594059
1, 32480, Note_on_c, 0, 66, 0
1, 32480, Note_on_c, 0, 78, 0
1, 32480, Note_on_c, 0, 76, 78
1, 32480, Note_on_c, 0, 67, 78
1, 32520, Tempo, 571429
1, 32640, Tempo, 555556
1, 32640, Note_on_c, 0, 67, 0
1, 32640, Note_on_c, 0, 76, 0
1, 32640, Note_on_c, 0, 83, 93
1, 32640, Note_on_c, 0, 75, 93
1, 32640, Note_on_c, 0, 78, 93
1, 32640, Note_on_c, 0, 47, 79
1, 32657, Control_c, 0, 64, 127
1, 32880, Note_on_c, 0, 47, 0
1, 32880, Note_on_c, 0, 83, 0
1, 32880, Note_on_c, 0, 75, 0
1, 32880, Note_on_c, 0, 78, 0
1, 32880, Note_on_c, 0, 71, 86
1, 32880, Note_on_c, 0, 59, 73
1, 32951, Control_c, 0, 64, 0
1, 32970, Note_on_c, 0, 59, 0
1, 32970, Note_on_c, 0, 71, 0
1, 33060, Tempo, 491803
1, 33060, Note_on_c, 0, 81, 74
1, 33060, Note_on_c, 0, 63, 57
1, 33120, Tempo, 508475
1, 33120, Note_on_c, 0, 63, 0
1, 33120, Note_on_c, 0, 81, 0
1, 33120, Note_on_c, 0, 79, 89
1, 33120, Note_on_c, 0, 64, 75
1, 33280, Note_on_c, 0, 64, 0
1, 33280, Note_on_c, 0, 79, 0
1, 33280, Note_on_c, 0, 78, 85
1, 33280, Note_on_c, 0, 66, 68
1, 33440, Tempo, 594059
1, 33440, Note_on_c, 0, 66, 0
1, 33440, Note_on_c, 0, 78, 0
1, 33440, Note_on_c, 0, 76, 82
1, 33440, Note_on_c, 0, 67, 66
1, 33600, Tempo, 587947
1, 33600, Note_on_c, 0, 67, 0
1, 33600, Note_on_c, 0, 76, 0
1, 33600, Note_on_c, 0, 83, 95
1, 33600, Note_on_c, 0, 75, 95
1, 33600, Note_on_c, 0, 78, 95
1, 33600, Note_on_c, 0, 47, 80
1, 33623, Control_c, 0, 64, 127
1, 33840, Tempo, 582524
1, 33840, Note_on_c, 0, 47, 0
1, 33840, Note_on_c, 0, 83, 0
1, 33840, Note_on_c, 0, 75, 0
1, 33840, Note_on_c, 0, 78, 0
1, 33840, Note_on_c, 0, 71, 89
1, 33840, Note_on_c, 0, 59, 75
1, 33930, Note_on_c, 0, 59, 0
1, 33930, Note_on_c, 0, 71, 0
1, 33983, Control_c, 0, 64, 0
1, 34080, Tempo, 617347
1, 34080, Note_on_c, 0, 95, 117
1, 34080, Note_on_c, 0, 35, 81
1, 34120, Control_c, 0, 64, 127
1, 34320, Note_on_c, 0, 35, 0
1, 34320, Note_on_c, 0, 95, 0
1, 34320, Note_on_c, 0, 83, 93
1, 34320, Note_on_c, 0, 47, 70
1, 34410, Note_on_c, 0, 47, 0
1, 34410, Note_on_c, 0, 83, 0
1, 34434, Control_c, 0, 64, 0
1, 34560, Tempo, 545455
1, 36000, Tempo, 560748
1, 36000, Note_on_c, 0, 79, 45
1, 36000, Note_on_c, 0, 64, 36
1, 36021, Control_c, 0, 64, 127
1, 36240, Tempo, 576923
1, 36240, Note_on_c, 0, 64, 0
1, 36240, Note_on_c, 0, 79, 0
1, 36240, Note_on_c, 0, 76, 30
1, 36240, Note_on_c, 0, 67, 25
1, 36360, Note_on_c, 0, 67, 0
1, 36360, Note_on_c, 0, 76, 0
1, 36367, Control_c, 0, 64, 0
1, 36480, Tempo, 555556
1, 36480, Note_on_c, 0, 79, 43
1, 36480, Note_on_c, 0, 64, 34
1, 36494, Control_c, 0, 64, 127
1, 36720, Tempo, 576923
1, 36720, Note_on_c, 0, 64, 0
1, 36720, Note_on_c, 0, 79, 0
1, 36720, Note_on_c, 0, 76, 31
1, 36720, Note_on_c, 0, 67, 25
1, 36791, Control_c, 0, 64, 0
1, 36840, Note_on_c, 0, 67, 0
1, 36840, Note_on_c, 0, 76, 0
1, 36953, Control_c, 0, 64, 127
1, 36960, Tempo, 560748
1, 36960, Note_on_c, 0, 79, 42
1, 36960, Note_on_c, 0, 64, 33
1, 37200, Tempo, 582524
1, 37200, Note_on_c, 0, 64, 0
1, 37200, Note_on_c, 0, 79, 0
1, 37200, Note_on_c, 0, 76, 31
1, 37200, Note_on_c, 0, 67, 26
1, 37320, Note_on_c, 0, 67, 0
1, 37320, Note_on_c, 0, 76, 0
1, 37348, Control_c, 0, 64, 0
1, 37440, Tempo, 560748
1, 37440, Note_on_c, 0, 79, 41
1, 37440, Control_c, 0, 64, 127
1, 37440, Note_on_c, 0, 64, 33
1, 37680, Tempo, 571429
1, 37680, Note_on_c, 0, 64, 0
1, 37680, Note_on_c, 0, 79, 0
1, 37680, Note_on_c, 0, 76, 29
1, 37680, Note_on_c, 0, 67, 24
1, 37800, Note_on_c, 0, 67, 0
1, 37800, Note_on_c, 0, 76, 0
1, 37807, Control_c, 0, 64, 0
1, 37920, Tempo, 560748
1, 37920, Note_on_c, 0, 79, 38
1, 37920, Note_on_c, 0, 64, 31
1, 37934, Control_c, 0, 64, 127
1, 38160, Tempo, 571429
1, 38160, Note_on_c, 0, 64, 0
1, 38160, Note_on_c, 0, 79, 0
1, 38160, Note_on_c, 0, 76, 27
1, 38160, Note_on_c, 0, 67, 23
1, 38280, Note_on_c, 0, 67, 0
1, 38280, Note_on_c, 0, 76, 0
1, 38301, Control_c, 0, 64, 0
1, 38400, Tempo, 560748
1, 38400, Note_on_c, 0, 79, 37
1, 38400, Note_on_c, 0, 64, 30
1, 38421, Control_c, 0, 64, 127
1, 38640, Tempo, 571429
1, 38640, Note_on_c, 0, 64, 0
1, 38640, Note_on_c, 0, 79, 0
1, 38640, Note_on_c, 0, 76, 26
1, 38640, Note_on_c, 0, 67, 21
1, 38760, Note_on_c, 0, 67, 0
1, 38760, Note_on_c, 0, 76, 0
1, 38802, Control_c, 0, 64, 0
1, 38880, Tempo, 542201
1, 38880, Note_on_c, 0, 79, 36
1, 38880, Note_on_c, 0, 76, 36
1, 38880, Note_on_c, 0, 55, 48
1, 38908, Control_c, 0, 64, 127
1, 39120, Note_on_c, 0, 76, 0
1, 39120, Note_on_c, 0, 79, 0
1, 39120, Note_on_c, 0, 67, 27
1, 39240, Note_on_c, 0, 67, 0
1, 39300, Note_on_c, 0, 55, 0
1, 39300, Note_on_c, 0, 57, 40
1, 39360, Note_on_c, 0, 57, 0
1, 39360, Note_on_c, 0, 76, 36
1, 39360, Note_on_c, 0, 79, 36
1, 39360, Note_on_c, 0, 55, 48
1, 39373, Control_c, 0, 64, 0
1, 39403, Control_c, 0, 64, 127
1, 39520, Note_on_c, 0, 55, 0
1, 39520, Note_on_c, 0, 52, 45
1, 39600, Note_on_c, 0, 79, 0
1, 39600, Note_on_c, 0, 76, 0
1, 39600, Note_on_c, 0, 67, 27
1, 39680, Note_on_c, 0, 52, 0
1, 39680, Note_on_c, 0, 48, 39
1, 39720, Note_on_c, 0, 67, 0
1, 39840, Tempo, 557103
1, 39840, Note_on_c, 0, 48, 0
1, 39840, Note_on_c, 0, 76, 36
1, 39840, Note_on_c, 0, 79, 36
1, 39840, Note_on_c, 0, 55, 48
1, 39851, Control_c, 0, 64, 0
1, 39907, Control_c, 0, 64, 127
1, 40080, Note_on_c, 0, 79, 0
1, 40080, Note_on_c, 0, 76, 0
1, 40080, Note_on_c, 0, 67, 27
1, 40160, Tempo, 639250
1, 40200, Note_on_c, 0, 67, 0
1, 40200, Note_on_c, 0, 55, 0
1, 40200, Note_on_c, 0, 64, 45
1, 40320, Tempo, 589565
1, 40320, Note_on_c, 0, 64, 0
1, 40320, Note_on_c, 0, 76, 38
1, 40320, Note_on_c, 0, 79, 38
1, 40320, Control_c, 0, 64, 0
1, 40320, Note_on_c, 0, 64, 48
1, 40518, Control_c, 0, 64, 127
1, 40560, Tempo, 571429
1, 40560, Note_on_c, 0, 79, 0
1, 40560, Note_on_c, 0, 76, 0
1, 40560, Note_on_c, 0, 67, 29
1, 40680, Note_on_c, 0, 67, 0
1, 40800, Note_on_c, 0, 76, 38
1, 40800, Note_on_c, 0, 79, 38
1, 41040, Tempo, 571429
1, 41040, Note_on_c, 0, 79, 0
1, 41040, Note_on_c, 0, 76, 0
1, 41040, Note_on_c, 0, 67, 27
1, 41160, Note_on_c, 0, 67, 0
1, 41280, Note_on_c, 0, 64, 0
1, 41280, Note_on_c, 0, 76, 34
1, 41280, Note_on_c, 0, 79, 34
1, 41280, Note_on_c, 0, 60, 36
1, 41520, Tempo, 571429
1, 41520, Note_on_c, 0, 60, 0
1, 41520, Note_on_c, 0, 79, 0
1, 41520, Note_on_c, 0, 76, 0
1, 41520, Note_on_c, 0, 67, 26
1, 41591, Control_c, 0, 64, 0
1, 41640, Note_on_c, 0, 67, 0
1, 41760, Tempo, 542201
1, 41760, Note_on_c, 0, 67, 51
1, 41834, Control_c, 0, 64, 127
1, 42180, Note_on_c, 0, 67, 0
1, 42180, Note_on_c, 0, 69, 48
1, 42240, Note_on_c, 0, 69, 0
1, 42240, Note_on_c, 0, 67, 57
1, 42250, Control_c, 0, 64, 0
1, 42290, Control_c, 0, 64, 127
1, 42400, Tempo, 526316
1, 42400, Note_on_c, 0, 67, 0
1, 42400, Note_on_c, 0, 64, 53
1, 42560, Note_on_c, 0, 64, 0
1, 42560, Note_on_c, 0, 60, 46
1, 42720, Tempo, 557103
1, 42720, Note_on_c, 0, 60, 0
1, 42720, Note_on_c, 0, 67, 57
1, 42736, Control_c, 0, 64, 0
1, 42791, Control_c, 0, 64, 127
1, 43040, Tempo, 639250
1, 43080, Note_on_c, 0, 67, 0
1, 43080, Note_on_c, 0, 76, 52
1, 43200, Tempo, 540541
1, 43200, Note_on_c, 0, 76, 0
1, 43200, Note_on_c, 0, 76, 57
1, 43200, Note_on_c, 0, 55, 48
1, 43211, Control_c, 0, 64, 0
1, 43246, Control_c, 0, 64, 127
1, 43620, Note_on_c, 0, 55, 0
1, 43620, Note_on_c, 0, 57, 40
1, 43680, Note_on_c, 0, 57, 0
1, 43680, Note_on_c, 0, 55, 48
1, 43687, Control_c, 0, 64, 0
1, 43747, Control_c, 0, 64, 127
1, 43840, Tempo, 526316
1, 43840, Note_on_c, 0, 55, 0
1, 43840, Note_on_c, 0, 52, 45
1, 44000, Note_on_c, 0, 52, 0
1, 44000, Note_on_c, 0, 48, 41
1, 44160, Tempo, 555556
1, 44160, Note_on_c, 0, 48, 0
1, 44160, Note_on_c, 0, 76, 0
1, 44160, Note_on_c, 0, 72, 35
1, 44160, Note_on_c, 0, 55, 48
1, 44167, Control_c, 0, 64, 0
1, 44213, Control_c, 0, 64, 127
1, 44400, Tempo, 588235
1, 44400, Note_on_c, 0, 72, 0
1, 44520, Note_on_c, 0, 55, 0
1, 44520, Note_on_c, 0, 64, 45
1, 44640, Tempo, 542201
1, 44640, Note_on_c, 0, 64, 0
1, 44640, Note_on_c, 0, 79, 72
1, 44640, Control_c, 0, 64, 0
1, 44640, Note_on_c, 0, 64, 48
1, 44690, Control_c, 0, 64, 127
1, 45060, Note_on_c, 0, 79, 0
1, 45060, Note_on_c, 0, 77, 56
1, 45120, Note_on_c, 0, 77, 0
1, 45120, Note_on_c, 0, 76, 68
1, 45129, Control_c, 0, 64, 0
1, 45170, Control_c, 0, 64, 127
1, 45280, Note_on_c, 0, 76, 0
1, 45280, Note_on_c, 0, 72, 63
1, 45440, Note_on_c, 0, 72, 0
1, 45440, Note_on_c, 0, 67, 59
1, 45600, Note_on_c, 0, 67, 0
1, 45600, Note_on_c, 0, 64, 0
1, 45600, Note_on_c, 0, 72, 69
1, 45600, Note_on_c, 0, 60, 38
1, 45607, Control_c, 0, 64, 0
1, 45660, Control_c, 0, 64, 127
1, 45760, Note_on_c, 0, 72, 0
1, 45760, Note_on_c, 0, 76, 65
1, 45840, Note_on_c, 0, 60, 0
1, 45920, Note_on_c, 0, 76, 0
1, 45920, Note_on_c, 0, 79, 61
1, 46080, Tempo, 566038
1, 46080, Note_on_c, 0, 79, 0
1, 46080, Note_on_c, 0, 67, 70
1, 46080, Note_on_c, 0, 76, 70
1, 46080, Note_on_c, 0, 79, 70
1, 46080, Control_c, 0, 64, 0
1, 46080, Note_on_c, 0, 43, 61
1, 46200, Note_on_c, 0, 43, 0
1, 46200, Note_on_c, 0, 67, 0
1, 46200, Note_on_c, 0, 76, 0
1, 46200, Note_on_c, 0, 79, 0
1, 46320, Tempo, 545455
1, 46320, Note_on_c, 0, 67, 66
1, 46320, Note_on_c, 0, 74, 66
1, 46320, Note_on_c, 0, 77, 66
1, 46320, Note_on_c, 0, 45, 55
1, 46440, Note_on_c, 0, 45, 0
1, 46440, Note_on_c, 0, 67, 0
1, 46440, Note_on_c, 0, 74, 0
1, 46440, Note_on_c, 0, 77, 0
1, 46440, Note_on_c, 0, 47, 55
1, 46560, Tempo, 571429
1, 46560, Note_on_c, 0, 47, 0
1, 46560, Note_on_c, 0, 67, 70
1, 46560, Note_on_c, 0, 72, 70
1, 46560, Note_on_c, 0, 76, 70
1, 46560, Note_on_c, 0, 48, 61
1, 46650, Note_on_c, 0, 48, 0
1, 46650, Note_on_c, 0, 67, 0
1, 46650, Note_on_c, 0, 72, 0
1, 46650, Note_on_c, 0, 76, 0
1, 46800, Tempo, 576923
1, 46800, Note_on_c, 0, 67, 63
1, 46800, Note_on_c, 0, 71, 63
1, 46800, Note_on_c, 0, 74, 63
1, 46800, Note_on_c, 0, 43, 53
1, 46890, Note_on_c, 0, 43, 0
1, 46890, Note_on_c, 0, 67, 0
1, 46890, Note_on_c, 0, 71, 0
1, 46890, Note_on_c, 0, 74, 0
1, 47040, Tempo, 572902
1, 47040, Note_on_c, 0, 67, 70
1, 47040, Note_on_c, 0, 72, 70
1, 47040, Note_on_c, 0, 76, 70
1, 47040, Note_on_c, 0, 48, 61
1, 47130, Note_on_c, 0, 48, 0
1, 47130, Note_on_c, 0, 67, 0
1, 47130, Note_on_c, 0, 72, 0
1, 47130, Note_on_c, 0, 76, 0
1, 47520, Tempo, 582524
1, 47520, Note_on_c, 0, 67, 45
1, 47520, Note_on_c, 0, 51, 38
1, 47520, Note_on_c, 0, 55, 38
1, 47640, Note_on_c, 0, 55, 0
1, 47640, Note_on_c, 0, 51, 0
1, 47760, Tempo, 560748
1, 47760, Note_on_c, 0, 67, 0
1, 47760, Note_on_c, 0, 69, 41
1, 47760, Note_on_c, 0, 50, 35
1, 47760, Note_on_c, 0, 53, 35
1, 47760, Note_on_c, 0, 55, 35
1, 47880, Note_on_c, 0, 55, 0
1, 47880, Note_on_c, 0, 69, 0
1, 47880, Note_on_c, 0, 50, 0
1, 47880, Note_on_c, 0, 53, 0
1, 47880, Note_on_c, 0, 71, 41
1, 48000, Tempo, 576923
1, 48000, Note_on_c, 0, 71, 0
1, 48000, Note_on_c, 0, 72, 45
1, 48000, Note_on_c, 0, 48, 38
1, 48000, Note_on_c, 0, 51, 38
1, 48000, Note_on_c, 0, 55, 38
1, 48090, Note_on_c, 0, 55, 0
1, 48090, Note_on_c, 0, 72, 0
1, 48090, Note_on_c, 0, 48, 0
1, 48090, Note_on_c, 0, 51, 0
1, 48240, Tempo, 566038
1, 48240, Note_on_c, 0, 67, 39
1, 48240, Note_on_c, 0, 47, 35
1, 48240, Note_on_c, 0, 50, 35
1, 48240, Note_on_c, 0, 55, 35
1, 48330, Note_on_c, 0, 55, 0
1, 48330, Note_on_c, 0, 67, 0
1, 48330, Note_on_c, 0, 47, 0
1, 48330, Note_on_c, 0, 50, 0
1, 48480, Tempo, 571429
1, 48480, Note_on_c, 0, 72, 48
1, 48480, Note_on_c, 0, 48, 42
1, 48480, Note_on_c, 0, 51, 42
1, 48480, Note_on_c, 0, 55, 42
1, 48570, Note_on_c, 0, 55, 0
1, 48570, Note_on_c, 0, 72, 0
1, 48570, Note_on_c, 0, 48, 0
1, 48570, Note_on_c, 0, 51, 0
1, 48720, Tempo, 550459
1, 48720, Note_on_c, 0, 70, 67
1, 48720, Note_on_c, 0, 82, 67
1, 48720, Note_on_c, 0, 50, 51
1, 48720, Note_on_c, 0, 53, 51
1, 48720, Note_on_c, 0, 58, 51
1, 48840, Note_on_c, 0, 58, 0
1, 48840, Note_on_c, 0, 50, 0
1, 48840, Note_on_c, 0, 70, 0
1, 48840, Note_on_c, 0, 82, 0
1, 48840, Note_on_c, 0, 53, 0
1, 48960, Tempo, 535714
1, 48960, Note_on_c, 0, 70, 68
1, 48960, Note_on_c, 0, 82, 68
1, 48960, Note_on_c, 0, 53, 55
1, 48960, Note_on_c, 0, 56, 55
1, 48960, Note_on_c, 0, 58, 55
1, 49080, Note_on_c, 0, 58, 0
1, 49080, Note_on_c, 0, 53, 0
1, 49080, Note_on_c, 0, 70, 0
1, 49080, Note_on_c, 0, 82, 0
1, 49080, Note_on_c, 0, 56, 0
1, 49200, Tempo, 555556
1, 49200, Note_on_c, 0, 87, 73
1, 49200, Note_on_c, 0, 75, 73
1, 49200, Note_on_c, 0, 51, 50
1, 49200, Note_on_c, 0, 55, 50
1, 49200, Note_on_c, 0, 58, 50
1, 49320, Note_on_c, 0, 58, 0
1, 49320, Note_on_c, 0, 51, 0
1, 49320, Note_on_c, 0, 87, 0
1, 49320, Note_on_c, 0, 75, 0
1, 49320, Note_on_c, 0, 55, 0
1, 49440, Tempo, 540541
1, 49440, Note_on_c, 0, 87, 78
1, 49440, Note_on_c, 0, 75, 78
1, 49440, Note_on_c, 0, 51, 55
1, 49440, Note_on_c, 0, 55, 55
1, 49440, Note_on_c, 0, 58, 55
1, 49560, Note_on_c, 0, 58, 0
1, 49560, Note_on_c, 0, 51, 0
1, 49560, Note_on_c, 0, 87, 0
1, 49560, Note_on_c, 0, 75, 0
1, 49560, Note_on_c, 0, 55, 0
1, 49680, Tempo, 555556
1, 49680, Note_on_c, 0, 86, 74
1, 49680, Note_on_c, 0, 74, 74
1, 49680, Note_on_c, 0, 54, 51
1, 49680, Note_on_c, 0, 57, 51
1, 49680, Note_on_c, 0, 62, 51
1, 49800, Note_on_c, 0, 62, 0
1, 49800, Note_on_c, 0, 54, 0
1, 49800, Note_on_c, 0, 86, 0
1, 49800, Note_on_c, 0, 74, 0
1, 49800, Note_on_c, 0, 57, 0
1, 49920, Tempo, 571429
1, 49920, Note_on_c, 0, 74, 81
1, 49920, Note_on_c, 0, 86, 81
1, 49920, Note_on_c, 0, 57, 64
1, 49920, Note_on_c, 0, 60, 64
1, 49920, Note_on_c, 0, 62, 64
1, 50040, Note_on_c, 0, 62, 0
1, 50040, Note_on_c, 0, 57, 0
1, 50040, Note_on_c, 0, 74, 0
1, 50040, Note_on_c, 0, 86, 0
1, 50040, Note_on_c, 0, 60, 0
1, 50160, Note_on_c, 0, 91, 79
1, 50160, Note_on_c, 0, 79, 79
1, 50160, Note_on_c, 0, 55, 60
1, 50160, Note_on_c, 0, 58, 60
1, 50160, Note_on_c, 0, 62, 60
1, 50280, Note_on_c, 0, 62, 0
1, 50280, Note_on_c, 0, 55, 0
1, 50280, Note_on_c, 0, 91, 0
1, 50280, Note_on_c, 0, 79, 0
1, 50280, Note_on_c, 0, 58, 0
1, 50400, Note_on_c, 0, 79, 83
1, 50400, Note_on_c, 0, 91, 83
1, 50400, Note_on_c, 0, 55, 65
1, 50400, Note_on_c, 0, 58, 65
1, 50400, Note_on_c, 0, 62, 65
1, 50520, Note_on_c, 0, 62, 0
1, 50520, Note_on_c, 0, 55, 0
1, 50520, Note_on_c, 0, 79, 0
1, 50520, Note_on_c, 0, 91, 0
1, 50520, Note_on_c, 0, 58, 0
1, 50640, Tempo, 619643
1, 50640, Note_on_c, 0, 89, 70
1, 50640, Note_on_c, 0, 77, 70
1, 50640, Note_on_c, 0, 43, 49
1, 50640, Note_on_c, 0, 50, 49
1, 50640, Note_on_c, 0, 59, 49
1, 50760, Note_on_c, 0, 59, 0
1, 50760, Note_on_c, 0, 43, 0
1, 50760, Note_on_c, 0, 89, 0
1, 50760, Note_on_c, 0, 77, 0
1, 50760, Note_on_c, 0, 50, 0
1, 50880, Tempo, 652955
1, 50880, Note_on_c, 0, 89, 66
1, 50880, Note_on_c, 0, 77, 66
1, 50880, Control_c, 0, 64, 127
1, 50880, Note_on_c, 0, 43, 47
1, 50880, Note_on_c, 0, 50, 47
1, 50880, Note_on_c, 0, 59, 47
1, 51600, Tempo, 714456
1, 51600, Note_on_c, 0, 59, 0
1, 51600, Note_on_c, 0, 43, 0
1, 51600, Note_on_c, 0, 89, 0
1, 51600, Note_on_c, 0, 77, 0
1, 51600, Note_on_c, 0, 50, 0
1, 51600, Note_on_c, 0, 71, 50
1, 51600, Note_on_c, 0, 83, 50
1, 51600, Note_on_c, 0, 65, 37
1, 51600, Note_on_c, 0, 67, 37
1, 51600, Note_on_c, 0, 55, 37
1, 51840, Tempo, 589565
1, 51840, Note_on_c, 0, 55, 0
1, 51840, Note_on_c, 0, 65, 0
1, 51840, Note_on_c, 0, 71, 0
1, 51840, Note_on_c, 0, 83, 0
1, 51840, Note_on_c, 0, 67, 0
1, 51840, Note_on_c, 0, 84, 45
1, 51840, Note_on_c, 0, 72, 45
1, 51840, Note_on_c, 0, 67, 35
1, 51840, Note_on_c, 0, 64, 35
1, 51840, Note_on_c, 0, 60, 35
1, 51843, Control_c, 0, 64, 0
1, 52134, Control_c, 0, 64, 127
1, 52800, Tempo, 572902
1, 53280, Tempo, 562272
1, 53280, Marker_t, "Teil 2 :"
1, 53280, Note_on_c, 0, 60, 0
1, 53280, Note_on_c, 0, 67, 0
1, 53280, Note_on_c, 0, 84, 0
1, 53280, Note_on_c, 0, 72, 0
1, 53280, Note_on_c, 0, 64, 0
1, 53280, Note_on_c, 0, 76, 54
1, 53280, Control_c, 0, 64, 0
1, 53326, Control_c, 0, 64, 127
1, 53700, Note_on_c, 0, 76, 0
1, 53700, Note_on_c, 0, 77, 44
1, 53760, Tempo, 542201
1, 53760, Note_on_c, 0, 77, 0
1, 53760, Note_on_c, 0, 76, 54
1, 53767, Control_c, 0, 64, 0
1, 53810, Control_c, 0, 64, 127
1, 53920, Note_on_c, 0, 76, 0
1, 53920, Note_on_c, 0, 72, 50
1, 54080, Tempo, 566038
1, 54080, Note_on_c, 0, 72, 0
1, 54080, Note_on_c, 0, 69, 47
1, 54180, Note_on_c, 0, 69, 0
1, 54180, Note_on_c, 0, 74, 44
1, 54220, Tempo, 540541
1, 54240, Note_on_c, 0, 74, 0
1, 54240, Note_on_c, 0, 72, 54
1, 54248, Control_c, 0, 64, 0
1, 54300, Control_c, 0, 64, 127
1, 54400, Note_on_c, 0, 72, 0
1, 54400, Note_on_c, 0, 69, 51
1, 54560, Tempo, 583885
1, 54560, Note_on_c, 0, 69, 0
1, 54560, Note_on_c, 0, 64, 47
1, 54720, Tempo, 557103
1, 54720, Note_on_c, 0, 64, 0
1, 54720, Note_on_c, 0, 64, 45
1, 54720, Note_on_c, 0, 69, 45
1, 54720, Note_on_c, 0, 72, 54
1, 54720, Note_on_c, 0, 52, 52
1, 54727, Control_c, 0, 64, 0
1, 54816, Control_c, 0, 64, 127
1, 54960, Note_on_c, 0, 72, 0
1, 54960, Note_on_c, 0, 69, 0
1, 54960, Note_on_c, 0, 68, 43
1, 54960, Note_on_c, 0, 71, 51
1, 55140, Note_on_c, 0, 52, 0
1, 55140, Note_on_c, 0, 53, 44
1, 55200, Tempo, 631579
1, 55200, Note_on_c, 0, 53, 0
1, 55200, Note_on_c, 0, 71, 0
1, 55200, Note_on_c, 0, 68, 0
1, 55200, Note_on_c, 0, 64, 0
1, 55200, Note_on_c, 0, 68, 45
1, 55200, Note_on_c, 0, 64, 45
1, 55200, Note_on_c, 0, 71, 54
1, 55200, Note_on_c, 0, 52, 58
1, 55207, Control_c, 0, 64, 0
1, 55242, Control_c, 0, 64, 127
1, 55360, Note_on_c, 0, 52, 0
1, 55360, Note_on_c, 0, 47, 57
1, 55440, Note_on_c, 0, 68, 0
1, 55440, Note_on_c, 0, 71, 0
1, 55440, Note_on_c, 0, 64, 0
1, 55440, Note_on_c, 0, 66, 43
1, 55440, Note_on_c, 0, 64, 43
1, 55440, Note_on_c, 0, 69, 51
1, 55520, Tempo, 645995
1, 55520, Note_on_c, 0, 47, 0
1, 55520, Note_on_c, 0, 40, 54
1, 55680, Tempo, 595356
1, 55680, Note_on_c, 0, 40, 0
1, 55680, Note_on_c, 0, 69, 0
1, 55680, Note_on_c, 0, 64, 0
1, 55680, Note_on_c, 0, 66, 0
1, 55680, Note_on_c, 0, 64, 45
1, 55680, Note_on_c, 0, 68, 45
1, 55680, Note_on_c, 0, 71, 54
1, 55680, Note_on_c, 0, 52, 59
1, 55687, Control_c, 0, 64, 0
1, 55765, Control_c, 0, 64, 127
1, 56160, Tempo, 572902
1, 56160, Note_on_c, 0, 52, 0
1, 56160, Note_on_c, 0, 64, 0
1, 56160, Note_on_c, 0, 68, 0
1, 56160, Note_on_c, 0, 71, 0
1, 56160, Note_on_c, 0, 64, 45
1, 56160, Note_on_c, 0, 67, 45
1, 56160, Note_on_c, 0, 72, 54
1, 56160, Control_c, 0, 64, 0
1, 56160, Note_on_c, 0, 52, 52
1, 56252, Control_c, 0, 64, 127
1, 56400, Note_on_c, 0, 72, 0
1, 56400, Note_on_c, 0, 71, 51
1, 56580, Note_on_c, 0, 52, 0
1, 56580, Note_on_c, 0, 53, 44
1, 56640, Tempo, 618557
1, 56640, Note_on_c, 0, 53, 0
1, 56640, Note_on_c, 0, 71, 0
1, 56640, Note_on_c, 0, 67, 0
1, 56640, Note_on_c, 0, 64, 0
1, 56640, Note_on_c, 0, 64, 45
1, 56640, Note_on_c, 0, 67, 45
1, 56640, Note_on_c, 0, 71, 54
1, 56640, Note_on_c, 0, 52, 59
1, 56645, Control_c, 0, 64, 0
1, 56711, Control_c, 0, 64, 127
1, 56800, Note_on_c, 0, 52, 0
1, 56800, Note_on_c, 0, 55, 55
1, 56880, Tempo, 582524
1, 56880, Note_on_c, 0, 64, 0
1, 56880, Note_on_c, 0, 71, 0
1, 56880, Note_on_c, 0, 67, 0
1, 56880, Note_on_c, 0, 64, 44
1, 56880, Note_on_c, 0, 67, 44
1, 56880, Note_on_c, 0, 72, 52
1, 56960, Note_on_c, 0, 55, 0
1, 56960, Note_on_c, 0, 60, 53
1, 57120, Tempo, 612245
1, 57120, Note_on_c, 0, 60, 0
1, 57120, Note_on_c, 0, 72, 0
1, 57120, Note_on_c, 0, 67, 0
1, 57120, Note_on_c, 0, 64, 0
1, 57120, Note_on_c, 0, 67, 45
1, 57120, Note_on_c, 0, 71, 54
1, 57120, Note_on_c, 0, 65, 53
1, 57120, Note_on_c, 0, 62, 45
1, 57134, Control_c, 0, 64, 0
1, 57219, Control_c, 0, 64, 127
1, 57360, Note_on_c, 0, 71, 0
1, 57360, Note_on_c, 0, 77, 53
1, 57600, Note_on_c, 0, 77, 0
1, 57600, Note_on_c, 0, 62, 0
1, 57600, Note_on_c, 0, 65, 0
1, 57600, Note_on_c, 0, 67, 0
1, 57600, Note_on_c, 0, 76, 54
1, 57600, Control_c, 0, 64, 0
1, 57600, Note_on_c, 0, 64, 52
1, 57600, Note_on_c, 0, 60, 44
1, 57717, Control_c, 0, 64, 127
1, 58020, Note_on_c, 0, 76, 0
1, 58020, Note_on_c, 0, 74, 43
1, 58080, Note_on_c, 0, 74, 0
1, 58080, Note_on_c, 0, 60, 0
1, 58080, Note_on_c, 0, 64, 0
1, 58080, Note_on_c, 0, 72, 53
1, 58080, Note_on_c, 0, 66, 55
1, 58080, Note_on_c, 0, 62, 46
1, 58090, Control_c, 0, 64, 0
1, 58147, Control_c, 0, 64, 127
1, 58240, Note_on_c, 0, 72, 0
1, 58240, Note_on_c, 0, 71, 51
1, 58320, Note_on_c, 0, 62, 0
1, 58320, Note_on_c, 0, 66, 0
1, 58320, Note_on_c, 0, 66, 53
1, 58320, Note_on_c, 0, 62, 45
1, 58400, Note_on_c, 0, 71, 0
1, 58400, Note_on_c, 0, 69, 52
1, 58560, Tempo, 638298
1, 58560, Note_on_c, 0, 69, 0
1, 58560, Note_on_c, 0, 62, 0
1, 58560, Note_on_c, 0, 66, 0
1, 58560, Note_on_c, 0, 71, 55
1, 58560, Note_on_c, 0, 62, 47
1, 58560, Note_on_c, 0, 55, 47
1, 58560, Note_on_c, 0, 67, 56
1, 58572, Control_c, 0, 64, 0
1, 59040, Tempo, 582524
1, 59040, Note_on_c, 0, 67, 0
1, 59040, Note_on_c, 0, 71, 0
1, 59040, Note_on_c, 0, 62, 0
1, 59040, Note_on_c, 0, 55, 0
1, 59040, Note_on_c, 0, 71, 68
1, 59040, Note_on_c, 0, 59, 61
1, 59068, Control_c, 0, 64, 127
1, 59379, Control_c, 0, 64, 0
1, 59460, Tempo, 504202
1, 59460, Note_on_c, 0, 59, 0
1, 59460, Note_on_c, 0, 71, 0
1, 59460, Note_on_c, 0, 72, 58
1, 59460, Note_on_c, 0, 60, 51
1, 59520, Tempo, 530973
1, 59520, Note_on_c, 0, 60, 0
1, 59520, Note_on_c, 0, 72, 0
1, 59520, Note_on_c, 0, 71, 68
1, 59520, Note_on_c, 0, 59, 61
1, 59531, Control_c, 0, 64, 127
1, 59680, Tempo, 504202
1, 59680, Note_on_c, 0, 59, 0
1, 59680, Note_on_c, 0, 71, 0
1, 59680, Note_on_c, 0, 67, 66
1, 59680, Note_on_c, 0, 55, 59
1, 59840, Tempo, 594059
1, 59840, Note_on_c, 0, 55, 0
1, 59840, Note_on_c, 0, 67, 0
1, 59840, Note_on_c, 0, 64, 64
1, 59840, Note_on_c, 0, 52, 56
1, 59884, Control_c, 0, 64, 0
1, 59960, Note_on_c, 0, 52, 0
1, 59960, Note_on_c, 0, 64, 0
1, 60000, Tempo, 555556
1, 60000, Note_on_c, 0, 79, 82
1, 60000, Note_on_c, 0, 67, 76
1, 60028, Control_c, 0, 64, 127
1, 60240, Tempo, 652174
1, 60240, Note_on_c, 0, 67, 0
1, 60240, Note_on_c, 0, 79, 0
1, 60240, Note_on_c, 0, 76, 72
1, 60240, Note_on_c, 0, 64, 64
1, 60318, Control_c, 0, 64, 0
1, 60330, Note_on_c, 0, 64, 0
1, 60330, Note_on_c, 0, 76, 0
1, 60480, Tempo, 576923
1, 60480, Note_on_c, 0, 71, 70
1, 60480, Note_on_c, 0, 59, 62
1, 60498, Control_c, 0, 64, 127
1, 60900, Tempo, 504202
1, 60900, Note_on_c, 0, 59, 0
1, 60900, Note_on_c, 0, 71, 0
1, 60900, Note_on_c, 0, 72, 56
1, 60900, Note_on_c, 0, 60, 53
1, 60960, Tempo, 530973
1, 60960, Note_on_c, 0, 60, 0
1, 60960, Note_on_c, 0, 72, 0
1, 60960, Note_on_c, 0, 71, 71
1, 60960, Note_on_c, 0, 59, 64
1, 60963, Control_c, 0, 64, 0
1, 61017, Control_c, 0, 64, 127
1, 61120, Tempo, 504202
1, 61120, Note_on_c, 0, 59, 0
1, 61120, Note_on_c, 0, 71, 0
1, 61120, Note_on_c, 0, 67, 69
1, 61120, Note_on_c, 0, 55, 61
1, 61280, Tempo, 600000
1, 61280, Note_on_c, 0, 55, 0
1, 61280, Note_on_c, 0, 67, 0
1, 61280, Note_on_c, 0, 64, 66
1, 61280, Note_on_c, 0, 52, 57
1, 61309, Control_c, 0, 64, 0
1, 61400, Note_on_c, 0, 52, 0
1, 61400, Note_on_c, 0, 64, 0
1, 61440, Tempo, 540541
1, 61440, Note_on_c, 0, 79, 85
1, 61440, Note_on_c, 0, 67, 76
1, 61458, Control_c, 0, 64, 127
1, 61680, Tempo, 612245
1, 61680, Note_on_c, 0, 67, 0
1, 61680, Note_on_c, 0, 79, 0
1, 61680, Note_on_c, 0, 76, 74
1, 61680, Note_on_c, 0, 64, 66
1, 61770, Note_on_c, 0, 64, 0
1, 61770, Note_on_c, 0, 76, 0
1, 61800, Control_c, 0, 64, 0
1, 61920, Tempo, 576923
1, 61920, Note_on_c, 0, 83, 90
1, 61920, Note_on_c, 0, 75, 90
1, 61920, Note_on_c, 0, 78, 90
1, 61920, Control_c, 0, 64, 127
1, 61920, Note_on_c, 0, 47, 77
1, 62160, Note_on_c, 0, 47, 0
1, 62160, Note_on_c, 0, 83, 0
1, 62160, Note_on_c, 0, 75, 0
1, 62160, Note_on_c, 0, 78, 0
1, 62160, Note_on_c, 0, 71, 87
1, 62160, Note_on_c, 0, 59, 72
1, 62243, Control_c, 0, 64, 0
1, 62250, Note_on_c, 0, 59, 0
1, 62250, Note_on_c, 0, 71, 0
1, 62340, Tempo, 495868
1, 62340, Note_on_c, 0, 81, 71
1, 62340, Note_on_c, 0, 63, 58
1, 62400, Tempo, 504202
1, 62400, Note_on_c, 0, 63, 0
1, 62400, Note_on_c, 0, 81, 0
1, 62400, Note_on_c, 0, 79, 87
1, 62400, Note_on_c, 0, 64, 73
1, 62560, Note_on_c, 0, 64, 0
1, 62560, Note_on_c, 0, 79, 0
1, 62560, Note_on_c, 0, 78, 83
1, 62560, Note_on_c, 0, 66, 67
1, 62720, Tempo, 617347
1, 62720, Note_on_c, 0, 66, 0
1, 62720, Note_on_c, 0, 78, 0
1, 62720, Note_on_c, 0, 76, 78
1, 62720, Note_on_c, 0, 67, 78
1, 62880, Tempo, 566038
1, 62880, Note_on_c, 0, 67, 0
1, 62880, Note_on_c, 0, 76, 0
1, 62880, Note_on_c, 0, 83, 93
1, 62880, Note_on_c, 0, 75, 93
1, 62880, Note_on_c, 0, 78, 93
1, 62880, Note_on_c, 0, 47, 79
1, 62897, Control_c, 0, 64, 127
1, 63120, Note_on_c, 0, 47, 0
1, 63120, Note_on_c, 0, 83, 0
1, 63120, Note_on_c, 0, 75, 0
1, 63120, Note_on_c, 0, 78, 0
1, 63120, Note_on_c, 0, 71, 86
1, 63120, Note_on_c, 0, 59, 73
1, 63191, Control_c, 0, 64, 0
1, 63210, Note_on_c, 0, 59, 0
1, 63210, Note_on_c, 0, 71, 0
1, 63300, Tempo, 487805
1, 63300, Note_on_c, 0, 81, 74
1, 63300, Note_on_c, 0, 63, 58
1, 63360, Tempo, 512821
1, 63360, Note_on_c, 0, 63, 0
1, 63360, Note_on_c, 0, 81, 0
1, 63360, Note_on_c, 0, 79, 89
1, 63360, Note_on_c, 0, 64, 75
1, 63520, Tempo, 495868
1, 63520, Note_on_c, 0, 64, 0
1, 63520, Note_on_c, 0, 79, 0
1, 63520, Note_on_c, 0, 78, 85
1, 63520, Note_on_c, 0, 66, 68
1, 63680, Tempo, 582524
1, 63680, Note_on_c, 0, 66, 0
1, 63680, Note_on_c, 0, 78, 0
1, 63680, Note_on_c, 0, 76, 82
1, 63680, Note_on_c, 0, 67, 66
1, 63840, Tempo, 566038
1, 63840, Note_on_c, 0, 67, 0
1, 63840, Note_on_c, 0, 76, 0
1, 63840, Note_on_c, 0, 83, 95
1, 63840, Note_on_c, 0, 75, 95
1, 63840, Note_on_c, 0, 78, 95
1, 63840, Note_on_c, 0, 47, 80
1, 63863, Control_c, 0, 64, 127
1, 64080, Tempo, 576923
1, 64080, Note_on_c, 0, 47, 0
1, 64080, Note_on_c, 0, 83, 0
1, 64080, Note_on_c, 0, 75, 0
1, 64080, Note_on_c, 0, 78, 0
1, 64080, Note_on_c, 0, 71, 89
1, 64080, Note_on_c, 0, 59, 75
1, 64170, Note_on_c, 0, 59, 0
1, 64170, Note_on_c, 0, 71, 0
1, 64223, Control_c, 0, 64, 0
1, 64320, Tempo, 617347
1, 64320, Note_on_c, 0, 95, 114
1, 64320, Note_on_c, 0, 35, 81
1, 64360, Control_c, 0, 64, 127
1, 64560, Note_on_c, 0, 35, 0
1, 64560, Note_on_c, 0, 95, 0
1, 64560, Note_on_c, 0, 83, 93
1, 64560, Note_on_c, 0, 47, 70
1, 64650, Note_on_c, 0, 47, 0
1, 64650, Note_on_c, 0, 83, 0
1, 64674, Control_c, 0, 64, 0
1, 64800, Tempo, 545455
1, 66240, Tempo, 560748
1, 66240, Note_on_c, 0, 79, 45
1, 66240, Note_on_c, 0, 64, 36
1, 66261, Control_c, 0, 64, 127
1, 66480, Tempo, 576923
1, 66480, Note_on_c, 0, 64, 0
1, 66480, Note_on_c, 0, 79, 0
1, 66480, Note_on_c, 0, 76, 30
1, 66480, Note_on_c, 0, 67, 25
1, 66600, Note_on_c, 0, 67, 0
1, 66600, Note_on_c, 0, 76, 0
1, 66607, Control_c, 0, 64, 0
1, 66720, Tempo, 555556
1, 66720, Note_on_c, 0, 79, 43
1, 66720, Note_on_c, 0, 64, 34
1, 66734, Control_c, 0, 64, 127
1, 66960, Tempo, 571429
1, 66960, Note_on_c, 0, 64, 0
1, 66960, Note_on_c, 0, 79, 0
1, 66960, Note_on_c, 0, 76, 31
1, 66960, Note_on_c, 0, 67, 25
1, 67031, Control_c, 0, 64, 0
1, 67080, Note_on_c, 0, 67, 0
1, 67080, Note_on_c, 0, 76, 0
1, 67193, Control_c, 0, 64, 127
1, 67200, Tempo, 560748
1, 67200, Note_on_c, 0, 79, 42
1, 67200, Note_on_c, 0, 64, 33
1, 67440, Tempo, 582524
1, 67440, Note_on_c, 0, 64, 0
1, 67440, Note_on_c, 0, 79, 0
1, 67440, Note_on_c, 0, 76, 31
1, 67440, Note_on_c, 0, 67, 26
1, 67560, Note_on_c, 0, 67, 0
1, 67560, Note_on_c, 0, 76, 0
1, 67588, Control_c, 0, 64, 0
1, 67680, Tempo, 560748
1, 67680, Note_on_c, 0, 79, 41
1, 67680, Control_c, 0, 64, 127
1, 67680, Note_on_c, 0, 64, 33
1, 67920, Tempo, 571429
1, 67920, Note_on_c, 0, 64, 0
1, 67920, Note_on_c, 0, 79, 0
1, 67920, Note_on_c, 0, 76, 29
1, 67920, Note_on_c, 0, 67, 24
1, 68040, Note_on_c, 0, 67, 0
1, 68040, Note_on_c, 0, 76, 0
1, 68047, Control_c, 0, 64, 0
1, 68160, Tempo, 560748
1, 68160, Note_on_c, 0, 79, 38
1, 68160, Note_on_c, 0, 64, 31
1, 68174, Control_c, 0, 64, 127
1, 68400, Tempo, 571429
1, 68400, Note_on_c, 0, 64, 0
1, 68400, Note_on_c, 0, 79, 0
1, 68400, Note_on_c, 0, 76, 27
1, 68400, Note_on_c, 0, 67, 23
1, 68520, Note_on_c, 0, 67, 0
1, 68520, Note_on_c, 0, 76, 0
1, 68541, Control_c, 0, 64, 0
1, 68640, Tempo, 560748
1, 68640, Note_on_c, 0, 79, 37
1, 68640, Note_on_c, 0, 64, 30
1, 68661, Control_c, 0, 64, 127
1, 68880, Tempo, 571429
1, 68880, Note_on_c, 0, 64, 0
1, 68880, Note_on_c, 0, 79, 0
1, 68880, Note_on_c, 0, 76, 26
1, 68880, Note_on_c, 0, 67, 21
1, 69000, Note_on_c, 0, 67, 0
1, 69000, Note_on_c, 0, 76, 0
1, 69042, Control_c, 0, 64, 0
1, 69120, Tempo, 542201
1, 69120, Note_on_c, 0, 79, 36
1, 69120, Note_on_c, 0, 76, 36
1, 69120, Note_on_c, 0, 55, 48
1, 69148, Control_c, 0, 64, 127
1, 69360, Note_on_c, 0, 76, 0
1, 69360, Note_on_c, 0, 79, 0
1, 69360, Note_on_c, 0, 67, 27
1, 69480, Note_on_c, 0, 67, 0
1, 69540, Note_on_c, 0, 55, 0
1, 69540, Note_on_c, 0, 57, 40
1, 69600, Note_on_c, 0, 57, 0
1, 69600, Note_on_c, 0, 76, 36
1, 69600, Note_on_c, 0, 79, 36
1, 69600, Note_on_c, 0, 55, 48
1, 69610, Control_c, 0, 64, 0
1, 69643, Control_c, 0, 64, 127
1, 69760, Tempo, 521739
1, 69760, Note_on_c, 0, 55, 0
1, 69760, Note_on_c, 0, 52, 45
1, 69840, Note_on_c, 0, 79, 0
1, 69840, Note_on_c, 0, 76, 0
1, 69840, Note_on_c, 0, 67, 27
1, 69920, Note_on_c, 0, 52, 0
1, 69920, Note_on_c, 0, 48, 39
1, 69960, Note_on_c, 0, 67, 0
1, 70080, Tempo, 557103
1, 70080, Note_on_c, 0, 48, 0
1, 70080, Note_on_c, 0, 76, 36
1, 70080, Note_on_c, 0, 79, 36
1, 70080, Note_on_c, 0, 55, 48
1, 70090, Control_c, 0, 64, 0
1, 70130, Control_c, 0, 64, 127
1, 70320, Note_on_c, 0, 79, 0
1, 70320, Note_on_c, 0, 76, 0
1, 70320, Note_on_c, 0, 67, 27
1, 70400, Tempo, 639250
1, 70440, Note_on_c, 0, 67, 0
1, 70440, Note_on_c, 0, 55, 0
1, 70440, Note_on_c, 0, 64, 45
1, 70560, Tempo, 589565
1, 70560, Note_on_c, 0, 64, 0
1, 70560, Note_on_c, 0, 76, 38
1, 70560, Note_on_c, 0, 79, 38
1, 70560, Note_on_c, 0, 64, 48
1, 70563, Control_c, 0, 64, 0
1, 70673, Control_c, 0, 64, 127
1, 70800, Tempo, 571429
1, 70800, Note_on_c, 0, 79, 0
1, 70800, Note_on_c, 0, 76, 0
1, 70800, Note_on_c, 0, 67, 29
1, 70920, Note_on_c, 0, 67, 0
1, 71040, Note_on_c, 0, 76, 38
1, 71040, Note_on_c, 0, 79, 38
1, 71280, Tempo, 571429
1, 71280, Note_on_c, 0, 79, 0
1, 71280, Note_on_c, 0, 76, 0
1, 71280, Note_on_c, 0, 67, 27
1, 71400, Note_on_c, 0, 67, 0
1, 71520, Note_on_c, 0, 64, 0
1, 71520, Note_on_c, 0, 76, 34
1, 71520, Note_on_c, 0, 79, 34
1, 71520, Note_on_c, 0, 60, 36
1, 71760, Tempo, 571429
1, 71760, Note_on_c, 0, 60, 0
1, 71760, Note_on_c, 0, 79, 0
1, 71760, Note_on_c, 0, 76, 0
1, 71760, Note_on_c, 0, 67, 26
1, 71831, Control_c, 0, 64, 0
1, 71880, Note_on_c, 0, 67, 0
1, 72000, Tempo, 542201
1, 72000, Note_on_c, 0, 67, 51
1, 72032, Control_c, 0, 64, 127
1, 72420, Note_on_c, 0, 67, 0
1, 72420, Note_on_c, 0, 69, 48
1, 72480, Note_on_c, 0, 69, 0
1, 72480, Note_on_c, 0, 67, 57
1, 72490, Control_c, 0, 64, 0
1, 72537, Control_c, 0, 64, 127
1, 72640, Tempo, 526316
1, 72640, Note_on_c, 0, 67, 0
1, 72640, Note_on_c, 0, 64, 53
1, 72800, Note_on_c, 0, 64, 0
1, 72800, Note_on_c, 0, 60, 46
1, 72960, Tempo, 557103
1, 72960, Note_on_c, 0, 60, 0
1, 72960, Note_on_c, 0, 67, 57
1, 72973, Control_c, 0, 64, 0
1, 73017, Control_c, 0, 64, 127
1, 73280, Tempo, 639250
1, 73320, Note_on_c, 0, 67, 0
1, 73320, Note_on_c, 0, 76, 52
1, 73440, Tempo, 540541
1, 73440, Note_on_c, 0, 76, 0
1, 73440, Note_on_c, 0, 76, 57
1, 73440, Control_c, 0, 64, 0
1, 73440, Note_on_c, 0, 55, 48
1, 73497, Control_c, 0, 64, 127
1, 73860, Note_on_c, 0, 55, 0
1, 73860, Note_on_c, 0, 57, 40
1, 73920, Note_on_c, 0, 57, 0
1, 73920, Note_on_c, 0, 55, 48
1, 73930, Control_c, 0, 64, 0
1, 73977, Control_c, 0, 64, 127
1, 74080, Tempo, 526316
1, 74080, Note_on_c, 0, 55, 0
1, 74080, Note_on_c, 0, 52, 45
1, 74240, Note_on_c, 0, 52, 0
1, 74240, Note_on_c, 0, 48, 41
1, 74400, Tempo, 555556
1, 74400, Note_on_c, 0, 48, 0
1, 74400, Note_on_c, 0, 76, 0
1, 74400, Note_on_c, 0, 72, 35
1, 74400, Note_on_c, 0, 55, 48
1, 74409, Control_c, 0, 64, 0
1, 74464, Control_c, 0, 64, 127
1, 74640, Tempo, 588235
1, 74640, Note_on_c, 0, 72, 0
1, 74760, Note_on_c, 0, 55, 0
1, 74760, Note_on_c, 0, 64, 45
1, 74880, Tempo, 542201
1, 74880, Note_on_c, 0, 64, 0
1, 74880, Note_on_c, 0, 79, 72
1, 74880, Note_on_c, 0, 64, 48
1, 74884, Control_c, 0, 64, 0
1, 74923, Control_c, 0, 64, 127
1, 75300, Note_on_c, 0, 79, 0
1, 75300, Note_on_c, 0, 77, 56
1, 75360, Note_on_c, 0, 77, 0
1, 75360, Note_on_c, 0, 76, 68
1, 75370, Control_c, 0, 64, 0
1, 75417, Control_c, 0, 64, 127
1, 75520, Note_on_c, 0, 76, 0
1, 75520, Note_on_c, 0, 72, 63
1, 75680, Note_on_c, 0, 72, 0
1, 75680, Note_on_c, 0, 67, 59
1, 75840, Note_on_c, 0, 67, 0
1, 75840, Note_on_c, 0, 64, 0
1, 75840, Note_on_c, 0, 72, 69
1, 75840, Note_on_c, 0, 60, 38
1, 75850, Control_c, 0, 64, 0
1, 75893, Control_c, 0, 64, 127
1, 76000, Note_on_c, 0, 72, 0
1, 76000, Note_on_c, 0, 76, 65
1, 76080, Note_on_c, 0, 60, 0
1, 76160, Note_on_c, 0, 76, 0
1, 76160, Note_on_c, 0, 79, 61
1, 76320, Tempo, 571429
1, 76320, Note_on_c, 0, 79, 0
1, 76320, Note_on_c, 0, 67, 70
1, 76320, Note_on_c, 0, 76, 70
1, 76320, Note_on_c, 0, 79, 70
1, 76320, Control_c, 0, 64, 0
1, 76320, Note_on_c, 0, 43, 61
1, 76440, Note_on_c, 0, 43, 0
1, 76440, Note_on_c, 0, 67, 0
1, 76440, Note_on_c, 0, 76, 0
1, 76440, Note_on_c, 0, 79, 0
1, 76560, Tempo, 550459
1, 76560, Note_on_c, 0, 67, 66
1, 76560, Note_on_c, 0, 74, 66
1, 76560, Note_on_c, 0, 77, 66
1, 76560, Note_on_c, 0, 45, 55
1, 76680, Note_on_c, 0, 45, 0
1, 76680, Note_on_c, 0, 67, 0
1, 76680, Note_on_c, 0, 74, 0
1, 76680, Note_on_c, 0, 77, 0
1, 76680, Note_on_c, 0, 47, 55
1, 76800, Tempo, 576923
1, 76800, Note_on_c, 0, 47, 0
1, 76800, Note_on_c, 0, 67, 70
1, 76800, Note_on_c, 0, 72, 70
1, 76800, Note_on_c, 0, 76, 70
1, 76800, Note_on_c, 0, 48, 61
1, 76890, Note_on_c, 0, 48, 0
1, 76890, Note_on_c, 0, 67, 0
1, 76890, Note_on_c, 0, 72, 0
1, 76890, Note_on_c, 0, 76, 0
1, 77040, Tempo, 588235
1, 77040, Note_on_c, 0, 67, 63
1, 77040, Note_on_c, 0, 71, 63
1, 77040, Note_on_c, 0, 74, 63
1, 77040, Note_on_c, 0, 43, 53
1, 77130, Note_on_c, 0, 43, 0
1, 77130, Note_on_c, 0, 67, 0
1, 77130, Note_on_c, 0, 71, 0
1, 77130, Note_on_c, 0, 74, 0
1, 77280, Tempo, 572902
1, 77280, Note_on_c, 0, 67, 70
1, 77280, Note_on_c, 0, 72, 70
1, 77280, Note_on_c, 0, 76, 70
1, 77280, Note_on_c, 0, 48, 61
1, 77370, Note_on_c, 0, 48, 0
1, 77370, Note_on_c, 0, 67, 0
1, 77370, Note_on_c, 0, 72, 0
1, 77370, Note_on_c, 0, 76, 0
1, 77760, Tempo, 600000
1, 77760, Note_on_c, 0, 67, 45
1, 77760, Note_on_c, 0, 51, 38
1, 77760, Note_on_c, 0, 55, 38
1, 77880, Note_on_c, 0, 55, 0
1, 77880, Note_on_c, 0, 51, 0
1, 78000, Tempo, 547096
1, 78000, Note_on_c, 0, 67, 0
1, 78000, Note_on_c, 0, 69, 41
1, 78000, Note_on_c, 0, 50, 35
1, 78000, Note_on_c, 0, 53, 35
1, 78000, Note_on_c, 0, 55, 35
1, 78120, Note_on_c, 0, 55, 0
1, 78120, Note_on_c, 0, 69, 0
1, 78120, Note_on_c, 0, 50, 0
1, 78120, Note_on_c, 0, 53, 0
1, 78120, Note_on_c, 0, 71, 41
1, 78240, Tempo, 576923
1, 78240, Note_on_c, 0, 71, 0
1, 78240, Note_on_c, 0, 72, 45
1, 78240, Note_on_c, 0, 48, 38
1, 78240, Note_on_c, 0, 51, 38
1, 78240, Note_on_c, 0, 55, 38
1, 78330, Note_on_c, 0, 55, 0
1, 78330, Note_on_c, 0, 72, 0
1, 78330, Note_on_c, 0, 48, 0
1, 78330, Note_on_c, 0, 51, 0
1, 78480, Tempo, 571429
1, 78480, Note_on_c, 0, 67, 39
1, 78480, Note_on_c, 0, 47, 35
1, 78480, Note_on_c, 0, 50, 35
1, 78480, Note_on_c, 0, 55, 35
1, 78570, Note_on_c, 0, 55, 0
1, 78570, Note_on_c, 0, 67, 0
1, 78570, Note_on_c, 0, 47, 0
1, 78570, Note_on_c, 0, 50, 0
1, 78720, Tempo, 566038
1, 78720, Note_on_c, 0, 72, 48
1, 78720, Note_on_c, 0, 48, 42
1, 78720, Note_on_c, 0, 51, 42
1, 78720, Note_on_c, 0, 55, 42
1, 78810, Note_on_c, 0, 55, 0
1, 78810, Note_on_c, 0, 72, 0
1, 78810, Note_on_c, 0, 48, 0
1, 78810, Note_on_c, 0, 51, 0
1, 78960, Tempo, 555556
1, 78960, Note_on_c, 0, 70, 64
1, 78960, Note_on_c, 0, 82, 64
1, 78960, Note_on_c, 0, 50, 49
1, 78960, Note_on_c, 0, 53, 49
1, 78960, Note_on_c, 0, 58, 49
1, 79080, Note_on_c, 0, 58, 0
1, 79080, Note_on_c, 0, 50, 0
1, 79080, Note_on_c, 0, 70, 0
1, 79080, Note_on_c, 0, 82, 0
1, 79080, Note_on_c, 0, 53, 0
1, 79200, Tempo, 537394
1, 79200, Note_on_c, 0, 70, 66
1, 79200, Note_on_c, 0, 82, 66
1, 79200, Note_on_c, 0, 53, 52
1, 79200, Note_on_c, 0, 56, 52
1, 79200, Note_on_c, 0, 58, 52
1, 79320, Note_on_c, 0, 58, 0
1, 79320, Note_on_c, 0, 53, 0
1, 79320, Note_on_c, 0, 70, 0
1, 79320, Note_on_c, 0, 82, 0
1, 79320, Note_on_c, 0, 56, 0
1, 79440, Tempo, 555556
1, 79440, Note_on_c, 0, 87, 71
1, 79440, Note_on_c, 0, 75, 71
1, 79440, Note_on_c, 0, 51, 52
1, 79440, Note_on_c, 0, 55, 52
1, 79440, Note_on_c, 0, 58, 52
1, 79560, Note_on_c, 0, 58, 0
1, 79560, Note_on_c, 0, 51, 0
1, 79560, Note_on_c, 0, 87, 0
1, 79560, Note_on_c, 0, 75, 0
1, 79560, Note_on_c, 0, 55, 0
1, 79680, Tempo, 540541
1, 79680, Note_on_c, 0, 87, 74
1, 79680, Note_on_c, 0, 75, 74
1, 79680, Note_on_c, 0, 51, 56
1, 79680, Note_on_c, 0, 55, 56
1, 79680, Note_on_c, 0, 58, 56
1, 79800, Note_on_c, 0, 58, 0
1, 79800, Note_on_c, 0, 51, 0
1, 79800, Note_on_c, 0, 87, 0
1, 79800, Note_on_c, 0, 75, 0
1, 79800, Note_on_c, 0, 55, 0
1, 79920, Tempo, 572902
1, 79920, Note_on_c, 0, 86, 70
1, 79920, Note_on_c, 0, 74, 70
1, 79920, Note_on_c, 0, 54, 54
1, 79920, Note_on_c, 0, 57, 54
1, 79920, Note_on_c, 0, 62, 54
1, 79960, Tempo, 555556
1, 80040, Note_on_c, 0, 62, 0
1, 80040, Note_on_c, 0, 54, 0
1, 80040, Note_on_c, 0, 86, 0
1, 80040, Note_on_c, 0, 74, 0
1, 80040, Note_on_c, 0, 57, 0
1, 80160, Tempo, 571429
1, 80160, Note_on_c, 0, 74, 79
1, 80160, Note_on_c, 0, 86, 79
1, 80160, Note_on_c, 0, 57, 59
1, 80160, Note_on_c, 0, 60, 59
1, 80160, Note_on_c, 0, 62, 59
1, 80280, Note_on_c, 0, 62, 0
1, 80280, Note_on_c, 0, 57, 0
1, 80280, Note_on_c, 0, 74, 0
1, 80280, Note_on_c, 0, 86, 0
1, 80280, Note_on_c, 0, 60, 0
1, 80400, Note_on_c, 0, 91, 81
1, 80400, Note_on_c, 0, 79, 81
1, 80400, Note_on_c, 0, 55, 56
1, 80400, Note_on_c, 0, 58, 56
1, 80400, Note_on_c, 0, 62, 56
1, 80520, Note_on_c, 0, 62, 0
1, 80520, Note_on_c, 0, 55, 0
1, 80520, Note_on_c, 0, 91, 0
1, 80520, Note_on_c, 0, 79, 0
1, 80520, Note_on_c, 0, 58, 0
1, 80640, Note_on_c, 0, 79, 85
1, 80640, Note_on_c, 0, 91, 85
1, 80640, Note_on_c, 0, 55, 64
1, 80640, Note_on_c, 0, 58, 64
1, 80640, Note_on_c, 0, 62, 64
1, 80760, Note_on_c, 0, 62, 0
1, 80760, Note_on_c, 0, 55, 0
1, 80760, Note_on_c, 0, 79, 0
1, 80760, Note_on_c, 0, 91, 0
1, 80760, Note_on_c, 0, 58, 0
1, 80880, Tempo, 619643
1, 80880, Note_on_c, 0, 89, 70
1, 80880, Note_on_c, 0, 77, 70
1, 80880, Note_on_c, 0, 43, 49
1, 80880, Note_on_c, 0, 50, 49
1, 80880, Note_on_c, 0, 59, 49
1, 81000, Note_on_c, 0, 59, 0
1, 81000, Note_on_c, 0, 43, 0
1, 81000, Note_on_c, 0, 89, 0
1, 81000, Note_on_c, 0, 77, 0
1, 81000, Note_on_c, 0, 50, 0
1, 81120, Tempo, 652955
1, 81120, Note_on_c, 0, 89, 66
1, 81120, Note_on_c, 0, 77, 66
1, 81120, Note_on_c, 0, 43, 47
1, 81120, Note_on_c, 0, 50, 47
1, 81120, Note_on_c, 0, 59, 47
1, 81126, Control_c, 0, 64, 127
1, 81840, Tempo, 714456
1, 81840, Note_on_c, 0, 59, 0
1, 81840, Note_on_c, 0, 43, 0
1, 81840, Note_on_c, 0, 89, 0
1, 81840, Note_on_c, 0, 77, 0
1, 81840, Note_on_c, 0, 50, 0
1, 81840, Note_on_c, 0, 71, 50
1, 81840, Note_on_c, 0, 83, 50
1, 81840, Note_on_c, 0, 65, 37
1, 81840, Note_on_c, 0, 67, 37
1, 81840, Note_on_c, 0, 55, 37
1, 82080, Tempo, 589565
1, 82080, Note_on_c, 0, 55, 0
1, 82080, Note_on_c, 0, 65, 0
1, 82080, Note_on_c, 0, 71, 0
1, 82080, Note_on_c, 0, 83, 0
1, 82080, Note_on_c, 0, 67, 0
1, 82080, Note_on_c, 0, 84, 45
1, 82080, Note_on_c, 0, 72, 45
1, 82080, Control_c, 0, 64, 0
1, 82080, Note_on_c, 0, 67, 35
1, 82080, Note_on_c, 0, 64, 35
1, 82080, Note_on_c, 0, 60, 35
1, 82427, Control_c, 0, 64, 127
1, 83040, Tempo, 572902
1, 83490, Note_on_c, 0, 60, 0
1, 83490, Note_on_c, 0, 67, 0
1, 83490, Note_on_c, 0, 84, 0
1, 83490, Note_on_c, 0, 72, 0
1, 83490, Note_on_c, 0, 64, 0
1, 83520, Key_signature, 1, "major"
1, 83520, Tempo, 540541
1, 83520, Marker_t, "Teil 3"
1, 83520, Note_on_c, 0, 67, 50
1, 83520, Control_c, 0, 64, 0
1, 83520, Note_on_c, 0, 47, 45
1, 83520, Note_on_c, 0, 43, 31
1, 83619, Control_c, 0, 64, 127
1, 83680, Note_on_c, 0, 47, 0
1, 83680, Note_on_c, 0, 67, 0
1, 83680, Note_on_c, 0, 62, 40
1, 83680, Note_on_c, 0, 50, 36
1, 83840, Note_on_c, 0, 50, 0
1, 83840, Note_on_c, 0, 62, 0
1, 83840, Note_on_c, 0, 59, 34
1, 83840, Note_on_c, 0, 55, 31
1, 84000, Note_on_c, 0, 55, 0
1, 84000, Note_on_c, 0, 59, 0
1, 84000, Note_on_c, 0, 67, 47
1, 84000, Note_on_c, 0, 47, 42
1, 84160, Note_on_c, 0, 47, 0
1, 84160, Note_on_c, 0, 67, 0
1, 84160, Note_on_c, 0, 62, 37
1, 84160, Note_on_c, 0, 50, 33
1, 84320, Note_on_c, 0, 50, 0
1, 84320, Note_on_c, 0, 62, 0
1, 84320, Note_on_c, 0, 59, 32
1, 84320, Note_on_c, 0, 55, 27
1, 84480, Tempo, 555556
1, 84480, Note_on_c, 0, 55, 0
1, 84480, Note_on_c, 0, 59, 0
1, 84480, Note_on_c, 0, 66, 47
1, 84480, Note_on_c, 0, 45, 41
1, 84495, Control_c, 0, 64, 0
1, 84640, Note_on_c, 0, 45, 0
1, 84640, Note_on_c, 0, 66, 0
1, 84640, Note_on_c, 0, 62, 38
1, 84640, Note_on_c, 0, 50, 33
1, 84643, Control_c, 0, 64, 127
1, 84800, Tempo, 576923
1, 84800, Note_on_c, 0, 50, 0
1, 84800, Note_on_c, 0, 62, 0
1, 84800, Note_on_c, 0, 57, 33
1, 84800, Note_on_c, 0, 54, 27
1, 84960, Tempo, 540541
1, 84960, Note_on_c, 0, 54, 0
1, 84960, Note_on_c, 0, 57, 0
1, 84960, Note_on_c, 0, 43, 0
1, 84960, Note_on_c, 0, 69, 50
1, 84960, Note_on_c, 0, 48, 45
1, 84960, Note_on_c, 0, 43, 31
1, 84964, Control_c, 0, 64, 0
1, 85087, Control_c, 0, 64, 127
1, 85120, Note_on_c, 0, 48, 0
1, 85120, Note_on_c, 0, 69, 0
1, 85120, Note_on_c, 0, 62, 41
1, 85120, Note_on_c, 0, 50, 36
1, 85280, Note_on_c, 0, 50, 0
1, 85280, Note_on_c, 0, 62, 0
1, 85280, Note_on_c, 0, 60, 33
1, 85280, Note_on_c, 0, 57, 29
1, 85440, Note_on_c, 0, 57, 0
1, 85440, Note_on_c, 0, 60, 0
1, 85440, Note_on_c, 0, 69, 48
1, 85440, Note_on_c, 0, 48, 43
1, 85600, Note_on_c, 0, 48, 0
1, 85600, Note_on_c, 0, 69, 0
1, 85600, Note_on_c, 0, 62, 38
1, 85600, Note_on_c, 0, 50, 33
1, 85760, Note_on_c, 0, 50, 0
1, 85760, Note_on_c, 0, 62, 0
1, 85760, Note_on_c, 0, 60, 30
1, 85760, Note_on_c, 0, 57, 28
1, 85920, Note_on_c, 0, 57, 0
1, 85920, Note_on_c, 0, 60, 0
1, 85920, Note_on_c, 0, 67, 48
1, 85920, Note_on_c, 0, 47, 43
1, 85927, Control_c, 0, 64, 0
1, 86033, Control_c, 0, 64, 127
1, 86080, Note_on_c, 0, 47, 0
1, 86080, Note_on_c, 0, 67, 0
1, 86080, Note_on_c, 0, 62, 38
1, 86080, Note_on_c, 0, 50, 33
1, 86240, Note_on_c, 0, 50, 0
1, 86240, Note_on_c, 0, 62, 0
1, 86240, Note_on_c, 0, 59, 31
1, 86240, Note_on_c, 0, 55, 28
1, 86400, Note_on_c, 0, 55, 0
1, 86400, Note_on_c, 0, 59, 0
1, 86400, Note_on_c, 0, 43, 0
1, 86400, Note_on_c, 0, 67, 47
1, 86400, Note_on_c, 0, 47, 42
1, 86560, Tempo, 566038
1, 86560, Note_on_c, 0, 47, 0
1, 86560, Note_on_c, 0, 67, 0
1, 86560, Note_on_c, 0, 62, 38
1, 86560, Note_on_c, 0, 50, 33
1, 86720, Tempo, 582524
1, 86720, Note_on_c, 0, 50, 0
1, 86720, Note_on_c, 0, 62, 0
1, 86720, Note_on_c, 0, 59, 31
1, 86720, Note_on_c, 0, 55, 28
1, 86880, Tempo, 594943
1, 86880, Note_on_c, 0, 55, 0
1, 86880, Note_on_c, 0, 59, 0
1, 86880, Note_on_c, 0, 62, 47
1, 86880, Note_on_c, 0, 66, 47
1, 86880, Note_on_c, 0, 69, 56
1, 86880, Note_on_c, 0, 50, 42
1, 86880, Note_on_c, 0, 54, 42
1, 86880, Note_on_c, 0, 57, 50
1, 86890, Control_c, 0, 64, 0
1, 86986, Control_c, 0, 64, 127
1, 87120, Tempo, 645023
1, 87120, Note_on_c, 0, 57, 0
1, 87120, Note_on_c, 0, 66, 0
1, 87120, Note_on_c, 0, 69, 0
1, 87120, Note_on_c, 0, 62, 0
1, 87120, Note_on_c, 0, 54, 0
1, 87120, Note_on_c, 0, 50, 0
1, 87120, Note_on_c, 0, 62, 51
1, 87120, Note_on_c, 0, 67, 51
1, 87120, Note_on_c, 0, 71, 61
1, 87120, Note_on_c, 0, 50, 45
1, 87120, Note_on_c, 0, 55, 45
1, 87120, Note_on_c, 0, 59, 53
1, 87360, Tempo, 600781
1, 87360, Note_on_c, 0, 59, 0
1, 87360, Note_on_c, 0, 67, 0
1, 87360, Note_on_c, 0, 71, 0
1, 87360, Note_on_c, 0, 62, 0
1, 87360, Note_on_c, 0, 55, 0
1, 87360, Note_on_c, 0, 50, 0
1, 87360, Note_on_c, 0, 62, 55
1, 87360, Note_on_c, 0, 69, 55
1, 87360, Note_on_c, 0, 72, 64
1, 87360, Note_on_c, 0, 50, 48
1, 87360, Note_on_c, 0, 57, 48
1, 87360, Note_on_c, 0, 60, 57
1, 87367, Control_c, 0, 64, 0
1, 87523, Control_c, 0, 64, 127
1, 87600, Tempo, 626501
1, 87720, Note_on_c, 0, 60, 0
1, 87720, Note_on_c, 0, 69, 0
1, 87720, Note_on_c, 0, 72, 0
1, 87720, Note_on_c, 0, 62, 0
1, 87720, Note_on_c, 0, 57, 0
1, 87720, Note_on_c, 0, 50, 0
1, 87720, Note_on_c, 0, 62, 49
1, 87720, Note_on_c, 0, 67, 49
1, 87720, Note_on_c, 0, 71, 59
1, 87720, Note_on_c, 0, 50, 42
1, 87720, Note_on_c, 0, 55, 42
1, 87720, Note_on_c, 0, 59, 51
1, 87840, Tempo, 598384
1, 87840, Note_on_c, 0, 59, 0
1, 87840, Note_on_c, 0, 67, 0
1, 87840, Note_on_c, 0, 71, 0
1, 87840, Note_on_c, 0, 62, 0
1, 87840, Note_on_c, 0, 55, 0
1, 87840, Note_on_c, 0, 50, 0
1, 87840, Note_on_c, 0, 62, 45
1, 87840, Note_on_c, 0, 67, 45
1, 87840, Note_on_c, 0, 71, 53
1, 87840, Note_on_c, 0, 50, 38
1, 87840, Note_on_c, 0, 55, 38
1, 87840, Note_on_c, 0, 59, 45
1, 87848, Control_c, 0, 64, 0
1, 88017, Control_c, 0, 64, 127
1, 88080, Tempo, 651890
1, 88320, Tempo, 666075
1, 88320, Note_on_c, 0, 59, 0
1, 88320, Note_on_c, 0, 67, 0
1, 88320, Note_on_c, 0, 71, 0
1, 88320, Note_on_c, 0, 62, 0
1, 88320, Note_on_c, 0, 55, 0
1, 88320, Note_on_c, 0, 50, 0
1, 88320, Note_on_c, 0, 62, 31
1, 88320, Note_on_c, 0, 66, 31
1, 88320, Note_on_c, 0, 69, 37
1, 88320, Note_on_c, 0, 50, 27
1, 88320, Note_on_c, 0, 54, 27
1, 88320, Note_on_c, 0, 57, 32
1, 88330, Control_c, 0, 64, 0
1, 88484, Control_c, 0, 64, 127
1, 88560, Tempo, 638298
1, 88560, Note_on_c, 0, 57, 0
1, 88560, Note_on_c, 0, 66, 0
1, 88560, Note_on_c, 0, 69, 0
1, 88560, Note_on_c, 0, 62, 0
1, 88560, Note_on_c, 0, 54, 0
1, 88560, Note_on_c, 0, 50, 0
1, 88560, Note_on_c, 0, 62, 29
1, 88560, Note_on_c, 0, 64, 29
1, 88560, Note_on_c, 0, 67, 35
1, 88560, Note_on_c, 0, 50, 26
1, 88560, Note_on_c, 0, 52, 26
1, 88560, Note_on_c, 0, 55, 31
1, 88800, Note_on_c, 0, 55, 0
1, 88800, Note_on_c, 0, 64, 0
1, 88800, Note_on_c, 0, 67, 0
1, 88800, Note_on_c, 0, 62, 0
1, 88800, Note_on_c, 0, 52, 0
1, 88800, Note_on_c, 0, 50, 0
1, 88800, Note_on_c, 0, 62, 31
1, 88800, Note_on_c, 0, 66, 31
1, 88800, Note_on_c, 0, 69, 37
1, 88800, Note_on_c, 0, 50, 28
1, 88800, Note_on_c, 0, 54, 28
1, 88800, Note_on_c, 0, 57, 33
1, 88805, Control_c, 0, 64, 0
1, 88964, Control_c, 0, 64, 127
1, 89280, Tempo, 540541
1, 89280, Note_on_c, 0, 57, 0
1, 89280, Note_on_c, 0, 66, 0
1, 89280, Note_on_c, 0, 69, 0
1, 89280, Note_on_c, 0, 62, 0
1, 89280, Note_on_c, 0, 54, 0
1, 89280, Note_on_c, 0, 50, 0
1, 89280, Note_on_c, 0, 74, 53
1, 89280, Note_on_c, 0, 67, 50
1, 89280, Control_c, 0, 64, 0
1, 89280, Note_on_c, 0, 47, 45
1, 89280, Note_on_c, 0, 43, 31
1, 89400, Control_c, 0, 64, 127
1, 89440, Note_on_c, 0, 47, 0
1, 89440, Note_on_c, 0, 67, 0
1, 89440, Note_on_c, 0, 62, 40
1, 89440, Note_on_c, 0, 50, 36
1, 89600, Note_on_c, 0, 50, 0
1, 89600, Note_on_c, 0, 62, 0
1, 89600, Note_on_c, 0, 71, 34
1, 89600, Note_on_c, 0, 55, 31
1, 89760, Note_on_c, 0, 55, 0
1, 89760, Note_on_c, 0, 71, 0
1, 89760, Note_on_c, 0, 67, 47
1, 89760, Note_on_c, 0, 47, 42
1, 89920, Note_on_c, 0, 47, 0
1, 89920, Note_on_c, 0, 67, 0
1, 89920, Note_on_c, 0, 62, 37
1, 89920, Note_on_c, 0, 50, 33
1, 90080, Note_on_c, 0, 50, 0
1, 90080, Note_on_c, 0, 62, 0
1, 90080, Note_on_c, 0, 71, 32
1, 90080, Note_on_c, 0, 55, 27
1, 90240, Tempo, 555556
1, 90240, Note_on_c, 0, 55, 0
1, 90240, Note_on_c, 0, 71, 0
1, 90240, Note_on_c, 0, 66, 47
1, 90240, Note_on_c, 0, 45, 41
1, 90252, Control_c, 0, 64, 0
1, 90381, Control_c, 0, 64, 127
1, 90400, Note_on_c, 0, 45, 0
1, 90400, Note_on_c, 0, 66, 0
1, 90400, Note_on_c, 0, 62, 38
1, 90400, Note_on_c, 0, 50, 33
1, 90560, Tempo, 576923
1, 90560, Note_on_c, 0, 50, 0
1, 90560, Note_on_c, 0, 62, 0
1, 90560, Note_on_c, 0, 69, 33
1, 90560, Note_on_c, 0, 54, 27
1, 90720, Tempo, 540541
1, 90720, Note_on_c, 0, 54, 0
1, 90720, Note_on_c, 0, 43, 0
1, 90720, Note_on_c, 0, 74, 0
1, 90720, Note_on_c, 0, 69, 0
1, 90720, Note_on_c, 0, 74, 53
1, 90720, Note_on_c, 0, 69, 50
1, 90720, Note_on_c, 0, 48, 45
1, 90720, Note_on_c, 0, 43, 31
1, 90724, Control_c, 0, 64, 0
1, 90826, Control_c, 0, 64, 127
1, 90880, Note_on_c, 0, 48, 0
1, 90880, Note_on_c, 0, 69, 0
1, 90880, Note_on_c, 0, 62, 41
1, 90880, Note_on_c, 0, 50, 36
1, 91040, Note_on_c, 0, 50, 0
1, 91040, Note_on_c, 0, 62, 0
1, 91040, Note_on_c, 0, 72, 33
1, 91040, Note_on_c, 0, 57, 29
1, 91200, Note_on_c, 0, 57, 0
1, 91200, Note_on_c, 0, 72, 0
1, 91200, Note_on_c, 0, 69, 48
1, 91200, Note_on_c, 0, 48, 43
1, 91360, Note_on_c, 0, 48, 0
1, 91360, Note_on_c, 0, 69, 0
1, 91360, Note_on_c, 0, 62, 38
1, 91360, Note_on_c, 0, 50, 33
1, 91520, Note_on_c, 0, 50, 0
1, 91520, Note_on_c, 0, 62, 0
1, 91520, Note_on_c, 0, 72, 30
1, 91520, Note_on_c, 0, 57, 28
1, 91680, Tempo, 555556
1, 91680, Note_on_c, 0, 57, 0
1, 91680, Note_on_c, 0, 72, 0
1, 91680, Note_on_c, 0, 67, 48
1, 91680, Note_on_c, 0, 47, 43
1, 91687, Control_c, 0, 64, 0
1, 91814, Control_c, 0, 64, 127
1, 91840, Note_on_c, 0, 47, 0
1, 91840, Note_on_c, 0, 67, 0
1, 91840, Note_on_c, 0, 62, 38
1, 91840, Note_on_c, 0, 50, 33
1, 92000, Tempo, 594059
1, 92000, Note_on_c, 0, 50, 0
1, 92000, Note_on_c, 0, 62, 0
1, 92000, Note_on_c, 0, 71, 31
1, 92000, Note_on_c, 0, 55, 28
1, 92160, Tempo, 576923
1, 92160, Note_on_c, 0, 55, 0
1, 92160, Note_on_c, 0, 43, 0
1, 92160, Note_on_c, 0, 74, 0
1, 92160, Note_on_c, 0, 71, 0
1, 92160, Note_on_c, 0, 62, 70
1, 92160, Control_c, 0, 64, 0
1, 92160, Note_on_c, 0, 50, 46
1, 92160, Note_on_c, 0, 47, 39
1, 92160, Note_on_c, 0, 43, 39
1, 92252, Control_c, 0, 64, 127
1, 92400, Tempo, 631579
1, 92400, Note_on_c, 0, 62, 0
1, 92400, Note_on_c, 0, 74, 68
1, 92640, Tempo, 594943
1, 92640, Note_on_c, 0, 74, 0
1, 92640, Note_on_c, 0, 43, 0
1, 92640, Note_on_c, 0, 47, 0
1, 92640, Note_on_c, 0, 50, 0
1, 92640, Note_on_c, 0, 64, 56
1, 92640, Note_on_c, 0, 76, 66
1, 92640, Note_on_c, 0, 43, 46
1, 92640, Note_on_c, 0, 48, 46
1, 92640, Note_on_c, 0, 52, 55
1, 92656, Control_c, 0, 64, 0
1, 92774, Control_c, 0, 64, 127
1, 92880, Tempo, 666667
1, 92880, Note_on_c, 0, 52, 0
1, 92880, Note_on_c, 0, 43, 0
1, 92880, Note_on_c, 0, 64, 0
1, 92880, Note_on_c, 0, 76, 0
1, 92880, Note_on_c, 0, 48, 0
1, 92880, Note_on_c, 0, 66, 61
1, 92880, Note_on_c, 0, 78, 72
1, 92880, Note_on_c, 0, 43, 49
1, 92880, Note_on_c, 0, 45, 49
1, 92880, Note_on_c, 0, 54, 58
1, 93120, Tempo, 618557
1, 93120, Note_on_c, 0, 54, 0
1, 93120, Note_on_c, 0, 43, 0
1, 93120, Note_on_c, 0, 66, 0
1, 93120, Note_on_c, 0, 78, 0
1, 93120, Note_on_c, 0, 45, 0
1, 93120, Note_on_c, 0, 67, 69
1, 93120, Note_on_c, 0, 79, 82
1, 93120, Note_on_c, 0, 43, 57
1, 93120, Note_on_c, 0, 55, 68
1, 93120, Note_on_c, 0, 47, 57
1, 93127, Control_c, 0, 64, 0
1, 93219, Control_c, 0, 64, 127
1, 93480, Note_on_c, 0, 47, 0
1, 93480, Note_on_c, 0, 43, 0
1, 93480, Note_on_c, 0, 67, 0
1, 93480, Note_on_c, 0, 79, 0
1, 93480, Note_on_c, 0, 55, 0
1, 93480, Note_on_c, 0, 62, 46
1, 93480, Note_on_c, 0, 67, 46
1, 93480, Note_on_c, 0, 71, 55
1, 93480, Note_on_c, 0, 50, 41
1, 93480, Note_on_c, 0, 55, 41
1, 93480, Note_on_c, 0, 59, 49
1, 93600, Note_on_c, 0, 59, 0
1, 93600, Note_on_c, 0, 67, 0
1, 93600, Note_on_c, 0, 71, 0
1, 93600, Note_on_c, 0, 62, 0
1, 93600, Note_on_c, 0, 55, 0
1, 93600, Note_on_c, 0, 50, 0
1, 93600, Note_on_c, 0, 62, 51
1, 93600, Note_on_c, 0, 71, 51
1, 93600, Note_on_c, 0, 74, 61
1, 93600, Note_on_c, 0, 50, 45
1, 93600, Note_on_c, 0, 62, 54
1, 93600, Note_on_c, 0, 59, 45
1, 93605, Control_c, 0, 64, 0
1, 93727, Control_c, 0, 64, 127
1, 93840, Tempo, 651890
1, 94080, Tempo, 666075
1, 94080, Note_on_c, 0, 59, 0
1, 94080, Note_on_c, 0, 71, 0
1, 94080, Note_on_c, 0, 74, 0
1, 94080, Note_on_c, 0, 62, 0
1, 94080, Note_on_c, 0, 62, 0
1, 94080, Note_on_c, 0, 50, 0
1, 94080, Note_on_c, 0, 62, 42
1, 94080, Note_on_c, 0, 66, 42
1, 94080, Note_on_c, 0, 72, 50
1, 94080, Note_on_c, 0, 50, 39
1, 94080, Note_on_c, 0, 57, 39
1, 94080, Note_on_c, 0, 60, 46
1, 94089, Control_c, 0, 64, 0
1, 94200, Control_c, 0, 64, 127
1, 94320, Tempo, 638298
1, 94440, Note_on_c, 0, 60, 0
1, 94440, Note_on_c, 0, 66, 0
1, 94440, Note_on_c, 0, 72, 0
1, 94440, Note_on_c, 0, 62, 0
1, 94440, Note_on_c, 0, 57, 0
1, 94440, Note_on_c, 0, 50, 0
1, 94440, Note_on_c, 0, 62, 37
1, 94440, Note_on_c, 0, 67, 37
1, 94440, Note_on_c, 0, 71, 44
1, 94440, Note_on_c, 0, 55, 31
1, 94440, Note_on_c, 0, 59, 37
1, 94560, Note_on_c, 0, 59, 0
1, 94560, Note_on_c, 0, 71, 0
1, 94560, Note_on_c, 0, 62, 0
1, 94560, Note_on_c, 0, 67, 0
1, 94560, Note_on_c, 0, 55, 0
1, 94560, Note_on_c, 0, 62, 34
1, 94560, Note_on_c, 0, 67, 34
1, 94560, Note_on_c, 0, 71, 41
1, 94560, Note_on_c, 0, 55, 28
1, 94560, Note_on_c, 0, 59, 34
1, 94569, Control_c, 0, 64, 0
1, 94701, Control_c, 0, 64, 127
1, 95040, Tempo, 540541
1, 95040, Marker_t, "Teil 3 :"
1, 95040, Note_on_c, 0, 59, 0
1, 95040, Note_on_c, 0, 71, 0
1, 95040, Note_on_c, 0, 62, 0
1, 95040, Note_on_c, 0, 67, 0
1, 95040, Note_on_c, 0, 55, 0
1, 95040, Note_on_c, 0, 67, 50
1, 95040, Note_on_c, 0, 47, 45
1, 95040, Note_on_c, 0, 43, 31
1, 95045, Control_c, 0, 64, 0
1, 95139, Control_c, 0, 64, 127
1, 95200, Note_on_c, 0, 47, 0
1, 95200, Note_on_c, 0, 67, 0
1, 95200, Note_on_c, 0, 62, 40
1, 95200, Note_on_c, 0, 50, 36
1, 95360, Note_on_c, 0, 50, 0
1, 95360, Note_on_c, 0, 62, 0
1, 95360, Note_on_c, 0, 59, 34
1, 95360, Note_on_c, 0, 55, 31
1, 95520, Note_on_c, 0, 55, 0
1, 95520, Note_on_c, 0, 59, 0
1, 95520, Note_on_c, 0, 67, 47
1, 95520, Note_on_c, 0, 47, 42
1, 95680, Note_on_c, 0, 47, 0
1, 95680, Note_on_c, 0, 67, 0
1, 95680, Note_on_c, 0, 62, 37
1, 95680, Note_on_c, 0, 50, 33
1, 95840, Note_on_c, 0, 50, 0
1, 95840, Note_on_c, 0, 62, 0
1, 95840, Note_on_c, 0, 59, 32
1, 95840, Note_on_c, 0, 55, 27
1, 96000, Tempo, 555556
1, 96000, Note_on_c, 0, 55, 0
1, 96000, Note_on_c, 0, 59, 0
1, 96000, Note_on_c, 0, 66, 47
1, 96000, Note_on_c, 0, 45, 41
1, 96014, Control_c, 0, 64, 0
1, 96120, Control_c, 0, 64, 127
1, 96160, Note_on_c, 0, 45, 0
1, 96160, Note_on_c, 0, 66, 0
1, 96160, Note_on_c, 0, 62, 38
1, 96160, Note_on_c, 0, 50, 33
1, 96320, Tempo, 576923
1, 96320, Note_on_c, 0, 50, 0
1, 96320, Note_on_c, 0, 62, 0
1, 96320, Note_on_c, 0, 57, 33
1, 96320, Note_on_c, 0, 54, 27
1, 96480, Tempo, 540541
1, 96480, Note_on_c, 0, 54, 0
1, 96480, Note_on_c, 0, 57, 0
1, 96480, Note_on_c, 0, 43, 0
1, 96480, Note_on_c, 0, 69, 50
1, 96480, Note_on_c, 0, 48, 45
1, 96480, Note_on_c, 0, 43, 31
1, 96485, Control_c, 0, 64, 0
1, 96614, Control_c, 0, 64, 127
1, 96640, Note_on_c, 0, 48, 0
1, 96640, Note_on_c, 0, 69, 0
1, 96640, Note_on_c, 0, 62, 41
1, 96640, Note_on_c, 0, 50, 36
1, 96800, Note_on_c, 0, 50, 0
1, 96800, Note_on_c, 0, 62, 0
1, 96800, Note_on_c, 0, 60, 33
1, 96800, Note_on_c, 0, 57, 29
1, 96960, Note_on_c, 0, 57, 0
1, 96960, Note_on_c, 0, 60, 0
1, 96960, Note_on_c, 0, 69, 48
1, 96960, Note_on_c, 0, 48, 43
1, 97120, Note_on_c, 0, 48, 0
1, 97120, Note_on_c, 0, 69, 0
1, 97120, Note_on_c, 0, 62, 38
1, 97120, Note_on_c, 0, 50, 33
1, 97280, Note_on_c, 0, 50, 0
1, 97280, Note_on_c, 0, 62, 0
1, 97280, Note_on_c, 0, 60, 30
1, 97280, Note_on_c, 0, 57, 28
1, 97440, Note_on_c, 0, 57, 0
1, 97440, Note_on_c, 0, 60, 0
1, 97440, Note_on_c, 0, 67, 48
1, 97440, Note_on_c, 0, 47, 43
1, 97447, Control_c, 0, 64, 0
1, 97546, Control_c, 0, 64, 127
1, 97600, Note_on_c, 0, 47, 0
1, 97600, Note_on_c, 0, 67, 0
1, 97600, Note_on_c, 0, 62, 38
1, 97600, Note_on_c, 0, 50, 33
1, 97760, Note_on_c, 0, 50, 0
1, 97760, Note_on_c, 0, 62, 0
1, 97760, Note_on_c, 0, 59, 31
1, 97760, Note_on_c, 0, 55, 28
1, 97920, Note_on_c, 0, 55, 0
1, 97920, Note_on_c, 0, 59, 0
1, 97920, Note_on_c, 0, 43, 0
1, 97920, Note_on_c, 0, 67, 47
1, 97920, Note_on_c, 0, 47, 42
1, 98080, Tempo, 566038
1, 98080, Note_on_c, 0, 47, 0
1, 98080, Note_on_c, 0, 67, 0
1, 98080, Note_on_c, 0, 62, 38
1, 98080, Note_on_c, 0, 50, 33
1, 98240, Tempo, 582524
1, 98240, Note_on_c, 0, 50, 0
1, 98240, Note_on_c, 0, 62, 0
1, 98240, Note_on_c, 0, 59, 31
1, 98240, Note_on_c, 0, 55, 28
1, 98400, Tempo, 594943
1, 98400, Note_on_c, 0, 55, 0
1, 98400, Note_on_c, 0, 59, 0
1, 98400, Note_on_c, 0, 62, 49
1, 98400, Note_on_c, 0, 66, 49
1, 98400, Note_on_c, 0, 69, 59
1, 98400, Note_on_c, 0, 50, 42
1, 98400, Note_on_c, 0, 54, 42
1, 98400, Note_on_c, 0, 57, 50
1, 98407, Control_c, 0, 64, 0
1, 98513, Control_c, 0, 64, 127
1, 98640, Tempo, 645023
1, 98640, Note_on_c, 0, 57, 0
1, 98640, Note_on_c, 0, 66, 0
1, 98640, Note_on_c, 0, 69, 0
1, 98640, Note_on_c, 0, 62, 0
1, 98640, Note_on_c, 0, 54, 0
1, 98640, Note_on_c, 0, 50, 0
1, 98640, Note_on_c, 0, 62, 51
1, 98640, Note_on_c, 0, 67, 51
1, 98640, Note_on_c, 0, 71, 61
1, 98640, Note_on_c, 0, 50, 45
1, 98640, Note_on_c, 0, 55, 45
1, 98640, Note_on_c, 0, 59, 53
1, 98880, Tempo, 600781
1, 98880, Note_on_c, 0, 59, 0
1, 98880, Note_on_c, 0, 67, 0
1, 98880, Note_on_c, 0, 71, 0
1, 98880, Note_on_c, 0, 62, 0
1, 98880, Note_on_c, 0, 55, 0
1, 98880, Note_on_c, 0, 50, 0
1, 98880, Note_on_c, 0, 62, 53
1, 98880, Note_on_c, 0, 69, 53
1, 98880, Note_on_c, 0, 72, 63
1, 98880, Note_on_c, 0, 50, 48
1, 98880, Note_on_c, 0, 57, 57
1, 98880, Note_on_c, 0, 60, 57
1, 98885, Control_c, 0, 64, 0
1, 99000, Control_c, 0, 64, 127
1, 99120, Tempo, 626501
1, 99240, Note_on_c, 0, 60, 0
1, 99240, Note_on_c, 0, 69, 0
1, 99240, Note_on_c, 0, 72, 0
1, 99240, Note_on_c, 0, 62, 0
1, 99240, Note_on_c, 0, 57, 0
1, 99240, Note_on_c, 0, 50, 0
1, 99240, Note_on_c, 0, 62, 49
1, 99240, Note_on_c, 0, 67, 49
1, 99240, Note_on_c, 0, 71, 59
1, 99240, Note_on_c, 0, 50, 42
1, 99240, Note_on_c, 0, 55, 42
1, 99240, Note_on_c, 0, 59, 51
1, 99360, Tempo, 598384
1, 99360, Note_on_c, 0, 59, 0
1, 99360, Note_on_c, 0, 67, 0
1, 99360, Note_on_c, 0, 71, 0
1, 99360, Note_on_c, 0, 62, 0
1, 99360, Note_on_c, 0, 55, 0
1, 99360, Note_on_c, 0, 50, 0
1, 99360, Note_on_c, 0, 62, 45
1, 99360, Note_on_c, 0, 67, 45
1, 99360, Note_on_c, 0, 71, 53
1, 99360, Note_on_c, 0, 50, 38
1, 99360, Note_on_c, 0, 55, 38
1, 99360, Note_on_c, 0, 59, 45
1, 99362, Control_c, 0, 64, 0
1, 99499, Control_c, 0, 64, 127
1, 99600, Tempo, 651890
1, 99840, Tempo, 666075
1, 99840, Note_on_c, 0, 59, 0
1, 99840, Note_on_c, 0, 67, 0
1, 99840, Note_on_c, 0, 71, 0
1, 99840, Note_on_c, 0, 62, 0
1, 99840, Note_on_c, 0, 55, 0
1, 99840, Note_on_c, 0, 50, 0
1, 99840, Note_on_c, 0, 62, 31
1, 99840, Note_on_c, 0, 66, 31
1, 99840, Note_on_c, 0, 69, 37
1, 99840, Note_on_c, 0, 50, 27
1, 99840, Note_on_c, 0, 54, 27
1, 99840, Note_on_c, 0, 57, 32
1, 99845, Control_c, 0, 64, 0
1, 99979, Control_c, 0, 64, 127
1, 100080, Tempo, 638298
1, 100080, Note_on_c, 0, 57, 0
1, 100080, Note_on_c, 0, 66, 0
1, 100080, Note_on_c, 0, 69, 0
1, 100080, Note_on_c, 0, 62, 0
1, 100080, Note_on_c, 0, 54, 0
1, 100080, Note_on_c, 0, 50, 0
1, 100080, Note_on_c, 0, 62, 29
1, 100080, Note_on_c, 0, 64, 29
1, 100080, Note_on_c, 0, 67, 29
1, 100080, Note_on_c, 0, 50, 26
1, 100080, Note_on_c, 0, 52, 26
1, 100080, Note_on_c, 0, 55, 31
1, 100320, Note_on_c, 0, 55, 0
1, 100320, Note_on_c, 0, 64, 0
1, 100320, Note_on_c, 0, 67, 0
1, 100320, Note_on_c, 0, 62, 0
1, 100320, Note_on_c, 0, 52, 0
1, 100320, Note_on_c, 0, 50, 0
1, 100320, Note_on_c, 0, 62, 31
1, 100320, Note_on_c, 0, 66, 31
1, 100320, Note_on_c, 0, 69, 37
1, 100320, Note_on_c, 0, 50, 28
1, 100320, Note_on_c, 0, 54, 28
1, 100320, Note_on_c, 0, 57, 33
1, 100331, Control_c, 0, 64, 0
1, 100472, Control_c, 0, 64, 127
1, 100800, Tempo, 540541
1, 100800, Note_on_c, 0, 57, 0
1, 100800, Note_on_c, 0, 66, 0
1, 100800, Note_on_c, 0, 69, 0
1, 100800, Note_on_c, 0, 62, 0
1, 100800, Note_on_c, 0, 54, 0
1, 100800, Note_on_c, 0, 50, 0
1, 100800, Note_on_c, 0, 74, 53
1, 100800, Note_on_c, 0, 67, 50
1, 100800, Note_on_c, 0, 47, 45
1, 100800, Note_on_c, 0, 43, 31
1, 100802, Control_c, 0, 64, 0
1, 100913, Control_c, 0, 64, 127
1, 100960, Note_on_c, 0, 47, 0
1, 100960, Note_on_c, 0, 67, 0
1, 100960, Note_on_c, 0, 62, 40
1, 100960, Note_on_c, 0, 50, 36
1, 101120, Note_on_c, 0, 50, 0
1, 101120, Note_on_c, 0, 62, 0
1, 101120, Note_on_c, 0, 71, 34
1, 101120, Note_on_c, 0, 55, 31
1, 101280, Note_on_c, 0, 55, 0
1, 101280, Note_on_c, 0, 71, 0
1, 101280, Note_on_c, 0, 67, 47
1, 101280, Note_on_c, 0, 47, 42
1, 101440, Note_on_c, 0, 47, 0
1, 101440, Note_on_c, 0, 67, 0
1, 101440, Note_on_c, 0, 62, 37
1, 101440, Note_on_c, 0, 50, 33
1, 101600, Note_on_c, 0, 50, 0
1, 101600, Note_on_c, 0, 62, 0
1, 101600, Note_on_c, 0, 71, 32
1, 101600, Note_on_c, 0, 55, 27
1, 101760, Tempo, 555556
1, 101760, Note_on_c, 0, 55, 0
1, 101760, Note_on_c, 0, 71, 0
1, 101760, Note_on_c, 0, 66, 47
1, 101760, Note_on_c, 0, 45, 41
1, 101773, Control_c, 0, 64, 0
1, 101901, Control_c, 0, 64, 127
1, 101920, Note_on_c, 0, 45, 0
1, 101920, Note_on_c, 0, 66, 0
1, 101920, Note_on_c, 0, 62, 38
1, 101920, Note_on_c, 0, 50, 33
1, 102080, Tempo, 576923
1, 102080, Note_on_c, 0, 50, 0
1, 102080, Note_on_c, 0, 62, 0
1, 102080, Note_on_c, 0, 69, 33
1, 102080, Note_on_c, 0, 54, 27
1, 102240, Tempo, 540541
1, 102240, Note_on_c, 0, 54, 0
1, 102240, Note_on_c, 0, 43, 0
1, 102240, Note_on_c, 0, 74, 0
1, 102240, Note_on_c, 0, 69, 0
1, 102240, Note_on_c, 0, 74, 53
1, 102240, Note_on_c, 0, 69, 50
1, 102240, Note_on_c, 0, 48, 45
1, 102240, Note_on_c, 0, 43, 31
1, 102244, Control_c, 0, 64, 0
1, 102396, Control_c, 0, 64, 127
1, 102400, Note_on_c, 0, 48, 0
1, 102400, Note_on_c, 0, 69, 0
1, 102400, Note_on_c, 0, 62, 41
1, 102400, Note_on_c, 0, 50, 36
1, 102560, Note_on_c, 0, 50, 0
1, 102560, Note_on_c, 0, 62, 0
1, 102560, Note_on_c, 0, 72, 33
1, 102560, Note_on_c, 0, 57, 29
1, 102720, Note_on_c, 0, 57, 0
1, 102720, Note_on_c, 0, 72, 0
1, 102720, Note_on_c, 0, 69, 48
1, 102720, Note_on_c, 0, 48, 43
1, 102880, Note_on_c, 0, 48, 0
1, 102880, Note_on_c, 0, 69, 0
1, 102880, Note_on_c, 0, 62, 38
1, 102880, Note_on_c, 0, 50, 33
1, 103040, Note_on_c, 0, 50, 0
1, 103040, Note_on_c, 0, 62, 0
1, 103040, Note_on_c, 0, 72, 30
1, 103040, Note_on_c, 0, 57, 28
1, 103200, Tempo, 555556
1, 103200, Note_on_c, 0, 57, 0
1, 103200, Note_on_c, 0, 72, 0
1, 103200, Note_on_c, 0, 67, 48
1, 103200, Note_on_c, 0, 47, 43
1, 103213, Control_c, 0, 64, 0
1, 103292, Control_c, 0, 64, 127
1, 103360, Note_on_c, 0, 47, 0
1, 103360, Note_on_c, 0, 67, 0
1, 103360, Note_on_c, 0, 62, 38
1, 103360, Note_on_c, 0, 50, 33
1, 103520, Tempo, 594059
1, 103520, Note_on_c, 0, 50, 0
1, 103520, Note_on_c, 0, 62, 0
1, 103520, Note_on_c, 0, 71, 31
1, 103520, Note_on_c, 0, 55, 28
1, 103680, Tempo, 576923
1, 103680, Note_on_c, 0, 55, 0
1, 103680, Note_on_c, 0, 43, 0
1, 103680, Note_on_c, 0, 74, 0
1, 103680, Note_on_c, 0, 71, 0
1, 103680, Note_on_c, 0, 62, 70
1, 103680, Control_c, 0, 64, 0
1, 103680, Note_on_c, 0, 50, 46
1, 103680, Note_on_c, 0, 47, 39
1, 103680, Note_on_c, 0, 43, 39
1, 103772, Control_c, 0, 64, 127
1, 103920, Tempo, 631579
1, 103920, Note_on_c, 0, 62, 0
1, 103920, Note_on_c, 0, 74, 68
1, 104160, Tempo, 594943
1, 104160, Note_on_c, 0, 74, 0
1, 104160, Note_on_c, 0, 43, 0
1, 104160, Note_on_c, 0, 47, 0
1, 104160, Note_on_c, 0, 50, 0
1, 104160, Note_on_c, 0, 64, 56
1, 104160, Note_on_c, 0, 76, 66
1, 104160, Note_on_c, 0, 43, 46
1, 104160, Note_on_c, 0, 48, 46
1, 104160, Note_on_c, 0, 52, 55
1, 104173, Control_c, 0, 64, 0
1, 104273, Control_c, 0, 64, 127
1, 104400, Tempo, 666667
1, 104400, Note_on_c, 0, 52, 0
1, 104400, Note_on_c, 0, 43, 0
1, 104400, Note_on_c, 0, 64, 0
1, 104400, Note_on_c, 0, 76, 0
1, 104400, Note_on_c, 0, 48, 0
1, 104400, Note_on_c, 0, 66, 61
1, 104400, Note_on_c, 0, 78, 72
1, 104400, Note_on_c, 0, 43, 49
1, 104400, Note_on_c, 0, 45, 49
1, 104400, Note_on_c, 0, 54, 58
1, 104640, Tempo, 618557
1, 104640, Note_on_c, 0, 54, 0
1, 104640, Note_on_c, 0, 43, 0
1, 104640, Note_on_c, 0, 66, 0
1, 104640, Note_on_c, 0, 78, 0
1, 104640, Note_on_c, 0, 45, 0
1, 104640, Note_on_c, 0, 67, 68
1, 104640, Note_on_c, 0, 79, 81
1, 104640, Note_on_c, 0, 43, 57
1, 104640, Note_on_c, 0, 55, 68
1, 104640, Note_on_c, 0, 47, 57
1, 104647, Control_c, 0, 64, 0
1, 104739, Control_c, 0, 64, 127
1, 105000, Note_on_c, 0, 47, 0
1, 105000, Note_on_c, 0, 43, 0
1, 105000, Note_on_c, 0, 67, 0
1, 105000, Note_on_c, 0, 79, 0
1, 105000, Note_on_c, 0, 55, 0
1, 105000, Note_on_c, 0, 62, 46
1, 105000, Note_on_c, 0, 67, 46
1, 105000, Note_on_c, 0, 71, 55
1, 105000, Note_on_c, 0, 50, 41
1, 105000, Note_on_c, 0, 55, 41
1, 105000, Note_on_c, 0, 59, 49
1, 105120, Note_on_c, 0, 59, 0
1, 105120, Note_on_c, 0, 67, 0
1, 105120, Note_on_c, 0, 71, 0
1, 105120, Note_on_c, 0, 62, 0
1, 105120, Note_on_c, 0, 55, 0
1, 105120, Note_on_c, 0, 50, 0
1, 105120, Note_on_c, 0, 62, 51
1, 105120, Note_on_c, 0, 71, 51
1, 105120, Note_on_c, 0, 74, 61
1, 105120, Note_on_c, 0, 50, 45
1, 105120, Note_on_c, 0, 62, 54
1, 105120, Note_on_c, 0, 59, 45
1, 105126, Control_c, 0, 64, 0
1, 105219, Control_c, 0, 64, 127
1, 105360, Tempo, 651890
1, 105600, Tempo, 666075
1, 105600, Note_on_c, 0, 59, 0
1, 105600, Note_on_c, 0, 71, 0
1, 105600, Note_on_c, 0, 74, 0
1, 105600, Note_on_c, 0, 62, 0
1, 105600, Note_on_c, 0, 62, 0
1, 105600, Note_on_c, 0, 50, 0
1, 105600, Note_on_c, 0, 62, 42
1, 105600, Note_on_c, 0, 66, 42
1, 105600, Note_on_c, 0, 72, 50
1, 105600, Note_on_c, 0, 50, 39
1, 105600, Note_on_c, 0, 57, 39
1, 105600, Note_on_c, 0, 60, 46
1, 105614, Control_c, 0, 64, 0
1, 105748, Control_c, 0, 64, 127
1, 105840, Tempo, 638298
1, 105960, Note_on_c, 0, 60, 0
1, 105960, Note_on_c, 0, 66, 0
1, 105960, Note_on_c, 0, 72, 0
1, 105960, Note_on_c, 0, 62, 0
1, 105960, Note_on_c, 0, 57, 0
1, 105960, Note_on_c, 0, 50, 0
1, 105960, Note_on_c, 0, 62, 37
1, 105960, Note_on_c, 0, 67, 37
1, 105960, Note_on_c, 0, 71, 44
1, 105960, Note_on_c, 0, 55, 31
1, 105960, Note_on_c, 0, 59, 37
1, 106080, Note_on_c, 0, 59, 0
1, 106080, Note_on_c, 0, 71, 0
1, 106080, Note_on_c, 0, 62, 0
1, 106080, Note_on_c, 0, 67, 0
1, 106080, Note_on_c, 0, 55, 0
1, 106080, Note_on_c, 0, 62, 34
1, 106080, Note_on_c, 0, 67, 34
1, 106080, Note_on_c, 0, 71, 41
1, 106080, Note_on_c, 0, 55, 28
1, 106080, Note_on_c, 0, 59, 34
1, 106086, Control_c, 0, 64, 0
1, 106179, Control_c, 0, 64, 127
1, 106550, Note_on_c, 0, 59, 0
1, 106550, Note_on_c, 0, 71, 0
1, 106550, Note_on_c, 0, 62, 0
1, 106550, Note_on_c, 0, 67, 0
1, 106550, Note_on_c, 0, 55, 0
1, 106560, Tempo, 581283
1, 106560, Marker_t, "Teil 4"
1, 106560, Note_on_c, 0, 57, 37
1, 106560, Note_on_c, 0, 66, 37
1, 106560, Note_on_c, 0, 69, 44
1, 106560, Control_c, 0, 64, 0
1, 106560, Note_on_c, 0, 38, 30
1, 106659, Control_c, 0, 64, 127
1, 106720, Note_on_c, 0, 38, 0
1, 106720, Note_on_c, 0, 45, 26
1, 106880, Note_on_c, 0, 45, 0
1, 106880, Note_on_c, 0, 38, 27
1, 107040, Note_on_c, 0, 38, 0
1, 107040, Note_on_c, 0, 57, 0
1, 107040, Note_on_c, 0, 66, 0
1, 107040, Note_on_c, 0, 69, 0
1, 107040, Note_on_c, 0, 57, 32
1, 107040, Note_on_c, 0, 64, 32
1, 107040, Note_on_c, 0, 67, 38
1, 107040, Note_on_c, 0, 33, 30
1, 107054, Control_c, 0, 64, 0
1, 107139, Control_c, 0, 64, 127
1, 107200, Note_on_c, 0, 33, 0
1, 107200, Note_on_c, 0, 38, 26
1, 107360, Note_on_c, 0, 38, 0
1, 107360, Note_on_c, 0, 33, 26
1, 107400, Note_on_c, 0, 67, 0
1, 107400, Note_on_c, 0, 57, 0
1, 107400, Note_on_c, 0, 64, 0
1, 107400, Note_on_c, 0, 57, 30
1, 107400, Note_on_c, 0, 62, 30
1, 107400, Note_on_c, 0, 66, 36
1, 107520, Note_on_c, 0, 66, 0
1, 107520, Note_on_c, 0, 33, 0
1, 107520, Note_on_c, 0, 57, 0
1, 107520, Note_on_c, 0, 62, 0
1, 107520, Note_on_c, 0, 57, 32
1, 107520, Note_on_c, 0, 62, 32
1, 107520, Note_on_c, 0, 66, 38
1, 107520, Note_on_c, 0, 38, 30
1, 107534, Control_c, 0, 64, 0
1, 107626, Control_c, 0, 64, 127
1, 107680, Note_on_c, 0, 38, 0
1, 107680, Note_on_c, 0, 45, 26
1, 107840, Note_on_c, 0, 45, 0
1, 107840, Note_on_c, 0, 38, 26
1, 108000, Note_on_c, 0, 38, 0
1, 108000, Note_on_c, 0, 57, 0
1, 108000, Note_on_c, 0, 62, 0
1, 108000, Note_on_c, 0, 66, 0
1, 108000, Note_on_c, 0, 66, 37
1, 108000, Note_on_c, 0, 74, 44
1, 108000, Control_c, 0, 64, 0
1, 108000, Note_on_c, 0, 33, 32
1, 108069, Control_c, 0, 64, 127
1, 108160, Note_on_c, 0, 33, 0
1, 108160, Note_on_c, 0, 38, 27
1, 108320, Note_on_c, 0, 38, 0
1, 108320, Note_on_c, 0, 33, 27
1, 108360, Note_on_c, 0, 74, 0
1, 108360, Note_on_c, 0, 66, 0
1, 108360, Note_on_c, 0, 67, 35
1, 108360, Note_on_c, 0, 76, 41
1, 108480, Note_on_c, 0, 76, 0
1, 108480, Note_on_c, 0, 67, 0
1, 108480, Note_on_c, 0, 33, 0
1, 108480, Note_on_c, 0, 66, 40
1, 108480, Note_on_c, 0, 74, 48
1, 108480, Note_on_c, 0, 38, 33
1, 108491, Control_c, 0, 64, 0
1, 108577, Control_c, 0, 64, 127
1, 108640, Note_on_c, 0, 38, 0
1, 108640, Note_on_c, 0, 45, 29
1, 108800, Note_on_c, 0, 45, 0
1, 108800, Note_on_c, 0, 38, 29
1, 108960, Note_on_c, 0, 38, 0
1, 108960, Note_on_c, 0, 74, 0
1, 108960, Note_on_c, 0, 66, 0
1, 108960, Note_on_c, 0, 69, 37
1, 108960, Note_on_c, 0, 76, 44
1, 108960, Note_on_c, 0, 33, 34
1, 108966, Control_c, 0, 64, 0
1, 109057, Control_c, 0, 64, 127
1, 109120, Note_on_c, 0, 33, 0
1, 109120, Note_on_c, 0, 37, 29
1, 109200, Note_on_c, 0, 76, 0
1, 109200, Note_on_c, 0, 69, 0
1, 109280, Note_on_c, 0, 37, 0
1, 109280, Note_on_c, 0, 33, 29
1, 109440, Tempo, 569963
1, 109440, Note_on_c, 0, 33, 0
1, 109440, Note_on_c, 0, 57, 47
1, 109440, Note_on_c, 0, 67, 47
1, 109440, Note_on_c, 0, 71, 56
1, 109440, Control_c, 0, 64, 0
1, 109440, Note_on_c, 0, 37, 30
1, 109509, Control_c, 0, 64, 127
1, 109600, Note_on_c, 0, 37, 0
1, 109600, Note_on_c, 0, 45, 27
1, 109760, Note_on_c, 0, 45, 0
1, 109760, Note_on_c, 0, 37, 27
1, 109920, Note_on_c, 0, 37, 0
1, 109920, Note_on_c, 0, 57, 0
1, 109920, Note_on_c, 0, 67, 0
1, 109920, Note_on_c, 0, 71, 0
1, 109920, Note_on_c, 0, 57, 40
1, 109920, Note_on_c, 0, 66, 40
1, 109920, Note_on_c, 0, 69, 48
1, 109920, Note_on_c, 0, 33, 30
1, 109931, Control_c, 0, 64, 0
1, 110023, Control_c, 0, 64, 127
1, 110080, Note_on_c, 0, 33, 0
1, 110080, Note_on_c, 0, 37, 27
1, 110240, Note_on_c, 0, 37, 0
1, 110240, Note_on_c, 0, 33, 27
1, 110280, Note_on_c, 0, 69, 0
1, 110280, Note_on_c, 0, 57, 0
1, 110280, Note_on_c, 0, 66, 0
1, 110280, Note_on_c, 0, 57, 32
1, 110280, Note_on_c, 0, 64, 32
1, 110280, Note_on_c, 0, 67, 38
1, 110400, Note_on_c, 0, 67, 0
1, 110400, Note_on_c, 0, 33, 0
1, 110400, Note_on_c, 0, 57, 0
1, 110400, Note_on_c, 0, 64, 0
1, 110400, Note_on_c, 0, 57, 35
1, 110400, Note_on_c, 0, 64, 35
1, 110400, Note_on_c, 0, 67, 42
1, 110400, Note_on_c, 0, 37, 33
1, 110413, Control_c, 0, 64, 0
1, 110509, Control_c, 0, 64, 127
1, 110560, Note_on_c, 0, 37, 0
1, 110560, Note_on_c, 0, 45, 29
1, 110640, Tempo, 624545
1, 110720, Note_on_c, 0, 45, 0
1, 110720, Note_on_c, 0, 37, 29
1, 110880, Note_on_c, 0, 37, 0
1, 110880, Note_on_c, 0, 57, 0
1, 110880, Note_on_c, 0, 64, 0
1, 110880, Note_on_c, 0, 67, 0
1, 110880, Note_on_c, 0, 69, 42
1, 110880, Note_on_c, 0, 76, 50
1, 110880, Control_c, 0, 64, 0
1, 110880, Note_on_c, 0, 33, 34
1, 110900, Tempo, 575595
1, 110960, Control_c, 0, 64, 127
1, 111040, Note_on_c, 0, 33, 0
1, 111040, Note_on_c, 0, 37, 30
1, 111200, Note_on_c, 0, 37, 0
1, 111200, Note_on_c, 0, 33, 30
1, 111240, Note_on_c, 0, 76, 0
1, 111240, Note_on_c, 0, 69, 0
1, 111240, Note_on_c, 0, 74, 39
1, 111240, Note_on_c, 0, 78, 47
1, 111360, Note_on_c, 0, 78, 0
1, 111360, Note_on_c, 0, 74, 0
1, 111360, Note_on_c, 0, 33, 0
1, 111360, Note_on_c, 0, 69, 44
1, 111360, Note_on_c, 0, 76, 52
1, 111360, Note_on_c, 0, 37, 35
1, 111371, Control_c, 0, 64, 0
1, 111452, Control_c, 0, 64, 127
1, 111520, Note_on_c, 0, 37, 0
1, 111520, Note_on_c, 0, 45, 30
1, 111680, Note_on_c, 0, 45, 0
1, 111680, Note_on_c, 0, 37, 30
1, 111840, Note_on_c, 0, 37, 0
1, 111840, Note_on_c, 0, 76, 0
1, 111840, Note_on_c, 0, 69, 0
1, 111840, Note_on_c, 0, 74, 41
1, 111840, Note_on_c, 0, 78, 49
1, 111840, Note_on_c, 0, 33, 35
1, 111845, Control_c, 0, 64, 0
1, 111920, Control_c, 0, 64, 127
1, 112000, Note_on_c, 0, 33, 0
1, 112000, Note_on_c, 0, 38, 30
1, 112080, Tempo, 605266
1, 112080, Note_on_c, 0, 78, 0
1, 112080, Note_on_c, 0, 74, 0
1, 112160, Note_on_c, 0, 38, 0
1, 112160, Note_on_c, 0, 33, 30
1, 112320, Tempo, 581283
1, 112320, Note_on_c, 0, 33, 0
1, 112320, Note_on_c, 0, 66, 56
1, 112320, Note_on_c, 0, 74, 67
1, 112320, Control_c, 0, 64, 0
1, 112320, Note_on_c, 0, 38, 34
1, 112440, Control_c, 0, 64, 127
1, 112480, Note_on_c, 0, 38, 0
1, 112480, Note_on_c, 0, 45, 29
1, 112640, Note_on_c, 0, 45, 0
1, 112640, Note_on_c, 0, 38, 31
1, 112800, Tempo, 593003
1, 112800, Note_on_c, 0, 38, 0
1, 112800, Note_on_c, 0, 74, 0
1, 112800, Note_on_c, 0, 66, 0
1, 112800, Note_on_c, 0, 69, 38
1, 112800, Note_on_c, 0, 73, 45
1, 112800, Note_on_c, 0, 33, 34
1, 112807, Control_c, 0, 64, 0
1, 112913, Control_c, 0, 64, 127
1, 112960, Note_on_c, 0, 33, 0
1, 112960, Note_on_c, 0, 38, 29
1, 113040, Tempo, 617983
1, 113040, Note_on_c, 0, 73, 0
1, 113040, Note_on_c, 0, 69, 0
1, 113040, Note_on_c, 0, 67, 38
1, 113040, Note_on_c, 0, 71, 45
1, 113120, Note_on_c, 0, 38, 0
1, 113120, Note_on_c, 0, 33, 29
1, 113280, Tempo, 599042
1, 113280, Note_on_c, 0, 33, 0
1, 113280, Note_on_c, 0, 71, 0
1, 113280, Note_on_c, 0, 67, 0
1, 113280, Note_on_c, 0, 57, 48
1, 113280, Note_on_c, 0, 66, 48
1, 113280, Note_on_c, 0, 69, 57
1, 113280, Note_on_c, 0, 38, 39
1, 113294, Control_c, 0, 64, 0
1, 113386, Control_c, 0, 64, 127
1, 113440, Note_on_c, 0, 38, 0
1, 113440, Note_on_c, 0, 45, 34
1, 113600, Note_on_c, 0, 45, 0
1, 113600, Note_on_c, 0, 38, 34
1, 113760, Tempo, 593003
1, 113760, Note_on_c, 0, 38, 0
1, 113760, Note_on_c, 0, 57, 0
1, 113760, Note_on_c, 0, 66, 0
1, 113760, Note_on_c, 0, 69, 0
1, 113760, Note_on_c, 0, 57, 38
1, 113760, Note_on_c, 0, 64, 38
1, 113760, Note_on_c, 0, 67, 45
1, 113760, Note_on_c, 0, 33, 36
1, 113766, Control_c, 0, 64, 0
1, 113863, Control_c, 0, 64, 127
1, 113920, Note_on_c, 0, 33, 0
1, 113920, Note_on_c, 0, 38, 31
1, 114000, Tempo, 617983
1, 114000, Note_on_c, 0, 57, 0
1, 114000, Note_on_c, 0, 67, 0
1, 114000, Note_on_c, 0, 64, 0
1, 114000, Note_on_c, 0, 57, 38
1, 114000, Note_on_c, 0, 62, 38
1, 114000, Note_on_c, 0, 66, 45
1, 114080, Note_on_c, 0, 38, 0
1, 114080, Note_on_c, 0, 33, 31
1, 114240, Tempo, 605266
1, 114240, Note_on_c, 0, 33, 0
1, 114240, Note_on_c, 0, 66, 0
1, 114240, Note_on_c, 0, 62, 0
1, 114240, Note_on_c, 0, 57, 0
1, 114240, Note_on_c, 0, 57, 49
1, 114240, Note_on_c, 0, 67, 49
1, 114240, Note_on_c, 0, 71, 58
1, 114240, Note_on_c, 0, 37, 37
1, 114251, Control_c, 0, 64, 0
1, 114349, Control_c, 0, 64, 127
1, 114400, Note_on_c, 0, 37, 0
1, 114400, Note_on_c, 0, 45, 33
1, 114560, Note_on_c, 0, 45, 0
1, 114560, Note_on_c, 0, 37, 33
1, 114720, Tempo, 617983
1, 114720, Note_on_c, 0, 37, 0
1, 114720, Note_on_c, 0, 57, 0
1, 114720, Note_on_c, 0, 67, 0
1, 114720, Note_on_c, 0, 71, 0
1, 114720, Note_on_c, 0, 57, 42
1, 114720, Note_on_c, 0, 66, 42
1, 114720, Note_on_c, 0, 69, 50
1, 114720, Note_on_c, 0, 33, 35
1, 114725, Control_c, 0, 64, 0
1, 114800, Control_c, 0, 64, 127
1, 114880, Note_on_c, 0, 33, 0
1, 114880, Note_on_c, 0, 37, 31
1, 114960, Note_on_c, 0, 57, 0
1, 114960, Note_on_c, 0, 69, 0
1, 114960, Note_on_c, 0, 66, 0
1, 114960, Note_on_c, 0, 57, 41
1, 114960, Note_on_c, 0, 64, 41
1, 114960, Note_on_c, 0, 67, 49
1, 115040, Note_on_c, 0, 37, 0
1, 115040, Note_on_c, 0, 33, 30
1, 115200, Note_on_c, 0, 33, 0
1, 115200, Note_on_c, 0, 67, 0
1, 115200, Note_on_c, 0, 64, 0
1, 115200, Note_on_c, 0, 57, 0
1, 115200, Note_on_c, 0, 62, 44
1, 115200, Note_on_c, 0, 66, 52
1, 115200, Note_on_c, 0, 38, 36
1, 115204, Control_c, 0, 64, 0
1, 115285, Control_c, 0, 64, 127
1, 115360, Note_on_c, 0, 38, 0
1, 115360, Note_on_c, 0, 45, 29
1, 115440, Note_on_c, 0, 66, 0
1, 115440, Note_on_c, 0, 62, 0
1, 115440, Note_on_c, 0, 57, 40
1, 115440, Note_on_c, 0, 64, 48
1, 115520, Note_on_c, 0, 45, 0
1, 115520, Note_on_c, 0, 38, 31
1, 115680, Note_on_c, 0, 38, 0
1, 115680, Note_on_c, 0, 64, 0
1, 115680, Note_on_c, 0, 57, 0
1, 115680, Note_on_c, 0, 54, 45
1, 115680, Note_on_c, 0, 62, 53
1, 115680, Note_on_c, 0, 33, 37
1, 115696, Control_c, 0, 64, 0
1, 115700, Tempo, 581283
1, 115814, Control_c, 0, 64, 127
1, 115840, Note_on_c, 0, 33, 0
1, 115840, Note_on_c, 0, 38, 30
1, 116000, Note_on_c, 0, 38, 0
1, 116000, Note_on_c, 0, 33, 30
1, 116160, Note_on_c, 0, 33, 0
1, 116160, Note_on_c, 0, 38, 36
1, 116320, Note_on_c, 0, 38, 0
1, 116320, Note_on_c, 0, 45, 32
1, 116400, Tempo, 617983
1, 116480, Note_on_c, 0, 45, 0
1, 116480, Note_on_c, 0, 38, 32
1, 116640, Tempo, 581283
1, 116640, Note_on_c, 0, 38, 0
1, 116640, Note_on_c, 0, 62, 0
1, 116640, Note_on_c, 0, 54, 0
1, 116640, Note_on_c, 0, 57, 42
1, 116640, Note_on_c, 0, 66, 42
1, 116640, Note_on_c, 0, 69, 50
1, 116640, Note_on_c, 0, 33, 42
1, 116641, Control_c, 0, 64, 0
1, 116760, Control_c, 0, 64, 127
1, 116800, Note_on_c, 0, 33, 0
1, 116800, Note_on_c, 0, 38, 39
1, 116960, Note_on_c, 0, 38, 0
1, 116960, Note_on_c, 0, 33, 39
1, 117120, Note_on_c, 0, 33, 0
1, 117120, Note_on_c, 0, 57, 0
1, 117120, Note_on_c, 0, 66, 0
1, 117120, Note_on_c, 0, 69, 0
1, 117120, Note_on_c, 0, 57, 39
1, 117120, Note_on_c, 0, 64, 39
1, 117120, Note_on_c, 0, 67, 47
1, 117120, Note_on_c, 0, 35, 43
1, 117127, Control_c, 0, 64, 0
1, 117219, Control_c, 0, 64, 127
1, 117280, Note_on_c, 0, 35, 0
1, 117280, Note_on_c, 0, 38, 39
1, 117440, Note_on_c, 0, 38, 0
1, 117440, Note_on_c, 0, 36, 40
1, 117480, Note_on_c, 0, 67, 0
1, 117480, Note_on_c, 0, 57, 0
1, 117480, Note_on_c, 0, 64, 0
1, 117480, Note_on_c, 0, 57, 39
1, 117480, Note_on_c, 0, 62, 39
1, 117480, Note_on_c, 0, 66, 46
1, 117597, Note_on_c, 0, 36, 0
1, 117600, Note_on_c, 0, 57, 0
1, 117600, Note_on_c, 0, 62, 0
1, 117600, Note_on_c, 0, 66, 0
1, 117600, Note_on_c, 0, 57, 40
1, 117600, Note_on_c, 0, 62, 40
1, 117600, Note_on_c, 0, 66, 48
1, 117600, Note_on_c, 0, 36, 46
1, 117611, Control_c, 0, 64, 0
1, 117699, Control_c, 0, 64, 127
1, 117760, Note_on_c, 0, 36, 0
1, 117760, Note_on_c, 0, 38, 42
1, 117920, Note_on_c, 0, 38, 0
1, 117920, Note_on_c, 0, 36, 42
1, 118080, Note_on_c, 0, 36, 0
1, 118080, Note_on_c, 0, 57, 0
1, 118080, Note_on_c, 0, 62, 0
1, 118080, Note_on_c, 0, 66, 0
1, 118080, Note_on_c, 0, 57, 48
1, 118080, Note_on_c, 0, 66, 48
1, 118080, Note_on_c, 0, 69, 57
1, 118080, Note_on_c, 0, 33, 48
1, 118083, Control_c, 0, 64, 0
1, 118179, Control_c, 0, 64, 127
1, 118240, Note_on_c, 0, 33, 0
1, 118240, Note_on_c, 0, 38, 43
1, 118400, Note_on_c, 0, 38, 0
1, 118400, Note_on_c, 0, 33, 43
1, 118560, Note_on_c, 0, 33, 0
1, 118560, Note_on_c, 0, 57, 0
1, 118560, Note_on_c, 0, 66, 0
1, 118560, Note_on_c, 0, 69, 0
1, 118560, Note_on_c, 0, 57, 45
1, 118560, Note_on_c, 0, 64, 45
1, 118560, Note_on_c, 0, 67, 54
1, 118560, Note_on_c, 0, 35, 49
1, 118577, Control_c, 0, 64, 0
1, 118680, Control_c, 0, 64, 127
1, 118720, Note_on_c, 0, 35, 0
1, 118720, Note_on_c, 0, 38, 44
1, 118880, Note_on_c, 0, 38, 0
1, 118880, Note_on_c, 0, 36, 44
1, 118920, Note_on_c, 0, 67, 0
1, 118920, Note_on_c, 0, 57, 0
1, 118920, Note_on_c, 0, 64, 0
1, 118920, Note_on_c, 0, 57, 45
1, 118920, Note_on_c, 0, 62, 45
1, 118920, Note_on_c, 0, 66, 45
1, 119040, Note_on_c, 0, 66, 0
1, 119040, Note_on_c, 0, 36, 0
1, 119040, Note_on_c, 0, 57, 0
1, 119040, Note_on_c, 0, 62, 0
1, 119040, Note_on_c, 0, 57, 47
1, 119040, Note_on_c, 0, 62, 47
1, 119040, Note_on_c, 0, 66, 56
1, 119040, Note_on_c, 0, 36, 54
1, 119052, Control_c, 0, 64, 0
1, 119146, Control_c, 0, 64, 127
1, 119200, Note_on_c, 0, 36, 0
1, 119200, Note_on_c, 0, 38, 44
1, 119280, Tempo, 631247
1, 119360, Note_on_c, 0, 38, 0
1, 119360, Note_on_c, 0, 36, 46
1, 119520, Tempo, 581283
1, 119520, Note_on_c, 0, 36, 0
1, 119520, Note_on_c, 0, 57, 0
1, 119520, Note_on_c, 0, 62, 0
1, 119520, Note_on_c, 0, 66, 0
1, 119520, Note_on_c, 0, 72, 70
1, 119520, Note_on_c, 0, 62, 59
1, 119520, Note_on_c, 0, 66, 59
1, 119520, Note_on_c, 0, 33, 57
1, 119524, Control_c, 0, 64, 0
1, 119626, Control_c, 0, 64, 127
1, 119680, Note_on_c, 0, 33, 0
1, 119680, Note_on_c, 0, 38, 51
1, 119840, Note_on_c, 0, 38, 0
1, 119840, Note_on_c, 0, 33, 51
1, 120000, Note_on_c, 0, 33, 0
1, 120000, Note_on_c, 0, 72, 0
1, 120000, Note_on_c, 0, 62, 0
1, 120000, Note_on_c, 0, 66, 0
1, 120000, Note_on_c, 0, 67, 54
1, 120000, Note_on_c, 0, 62, 54
1, 120000, Note_on_c, 0, 71, 64
1, 120000, Note_on_c, 0, 35, 64
1, 120014, Control_c, 0, 64, 0
1, 120092, Control_c, 0, 64, 127
1, 120160, Note_on_c, 0, 35, 0
1, 120160, Note_on_c, 0, 38, 54
1, 120320, Note_on_c, 0, 38, 0
1, 120320, Note_on_c, 0, 36, 54
1, 120360, Note_on_c, 0, 71, 0
1, 120360, Note_on_c, 0, 67, 0
1, 120360, Note_on_c, 0, 62, 0
1, 120360, Note_on_c, 0, 69, 59
1, 120360, Note_on_c, 0, 62, 50
1, 120360, Note_on_c, 0, 66, 50
1, 120477, Note_on_c, 0, 36, 0
1, 120480, Note_on_c, 0, 69, 0
1, 120480, Note_on_c, 0, 62, 0
1, 120480, Note_on_c, 0, 66, 0
1, 120480, Note_on_c, 0, 69, 61
1, 120480, Note_on_c, 0, 62, 51
1, 120480, Note_on_c, 0, 66, 51
1, 120480, Note_on_c, 0, 36, 71
1, 120487, Control_c, 0, 64, 0
1, 120586, Control_c, 0, 64, 127
1, 120640, Note_on_c, 0, 36, 0
1, 120640, Note_on_c, 0, 38, 55
1, 120720, Tempo, 645161
1, 120800, Note_on_c, 0, 38, 0
1, 120800, Note_on_c, 0, 36, 55
1, 120960, Tempo, 611558
1, 120960, Note_on_c, 0, 36, 0
1, 120960, Note_on_c, 0, 69, 0
1, 120960, Note_on_c, 0, 62, 0
1, 120960, Note_on_c, 0, 66, 0
1, 120960, Note_on_c, 0, 62, 62
1, 120960, Note_on_c, 0, 72, 62
1, 120960, Note_on_c, 0, 76, 74
1, 120960, Note_on_c, 0, 38, 72
1, 120964, Control_c, 0, 64, 0
1, 121059, Control_c, 0, 64, 127
1, 121120, Note_on_c, 0, 38, 0
1, 121120, Note_on_c, 0, 50, 62
1, 121280, Note_on_c, 0, 50, 0
1, 121280, Note_on_c, 0, 38, 62
1, 121440, Tempo, 631247
1, 121440, Note_on_c, 0, 38, 0
1, 121440, Note_on_c, 0, 62, 0
1, 121440, Note_on_c, 0, 72, 0
1, 121440, Note_on_c, 0, 76, 0
1, 121440, Note_on_c, 0, 62, 59
1, 121440, Note_on_c, 0, 71, 59
1, 121440, Note_on_c, 0, 74, 70
1, 121440, Note_on_c, 0, 40, 69
1, 121447, Control_c, 0, 64, 0
1, 121567, Control_c, 0, 64, 127
1, 121600, Note_on_c, 0, 40, 0
1, 121600, Note_on_c, 0, 50, 57
1, 121760, Note_on_c, 0, 50, 0
1, 121760, Note_on_c, 0, 42, 60
1, 121800, Note_on_c, 0, 74, 0
1, 121800, Note_on_c, 0, 62, 0
1, 121800, Note_on_c, 0, 71, 0
1, 121800, Note_on_c, 0, 62, 56
1, 121800, Note_on_c, 0, 69, 56
1, 121800, Note_on_c, 0, 72, 67
1, 121920, Note_on_c, 0, 72, 0
1, 121920, Note_on_c, 0, 42, 0
1, 121920, Note_on_c, 0, 62, 0
1, 121920, Note_on_c, 0, 69, 0
1, 121920, Note_on_c, 0, 62, 59
1, 121920, Note_on_c, 0, 72, 70
1, 121920, Note_on_c, 0, 69, 59
1, 121920, Note_on_c, 0, 42, 66
1, 121927, Control_c, 0, 64, 0
1, 122019, Control_c, 0, 64, 127
1, 122080, Note_on_c, 0, 42, 0
1, 122080, Note_on_c, 0, 50, 60
1, 122240, Note_on_c, 0, 50, 0
1, 122240, Note_on_c, 0, 42, 60
1, 122400, Tempo, 617983
1, 122400, Note_on_c, 0, 42, 0
1, 122400, Note_on_c, 0, 62, 0
1, 122400, Note_on_c, 0, 72, 0
1, 122400, Note_on_c, 0, 69, 0
1, 122400, Note_on_c, 0, 57, 44
1, 122400, Note_on_c, 0, 62, 44
1, 122400, Note_on_c, 0, 72, 52
1, 122400, Control_c, 0, 64, 0
1, 122400, Note_on_c, 0, 42, 43
1, 122533, Control_c, 0, 64, 127
1, 122560, Note_on_c, 0, 42, 0
1, 122560, Note_on_c, 0, 50, 36
1, 122720, Note_on_c, 0, 50, 0
1, 122720, Note_on_c, 0, 42, 37
1, 122880, Note_on_c, 0, 42, 0
1, 122880, Note_on_c, 0, 57, 0
1, 122880, Note_on_c, 0, 62, 0
1, 122880, Note_on_c, 0, 72, 0
1, 122880, Note_on_c, 0, 59, 39
1, 122880, Note_on_c, 0, 62, 39
1, 122880, Note_on_c, 0, 71, 46
1, 122880, Note_on_c, 0, 50, 37
1, 122883, Control_c, 0, 64, 0
1, 122981, Control_c, 0, 64, 127
1, 123040, Note_on_c, 0, 50, 0
1, 123040, Note_on_c, 0, 42, 33
1, 123200, Note_on_c, 0, 42, 0
1, 123200, Note_on_c, 0, 50, 33
1, 123240, Note_on_c, 0, 71, 0
1, 123240, Note_on_c, 0, 59, 0
1, 123240, Note_on_c, 0, 62, 0
1, 123240, Note_on_c, 0, 60, 35
1, 123240, Note_on_c, 0, 62, 35
1, 123240, Note_on_c, 0, 69, 42
1, 123360, Tempo, 593003
1, 123360, Note_on_c, 0, 69, 0
1, 123360, Note_on_c, 0, 50, 0
1, 123360, Note_on_c, 0, 60, 0
1, 123360, Note_on_c, 0, 62, 0
1, 123360, Note_on_c, 0, 60, 35
1, 123360, Note_on_c, 0, 62, 35
1, 123360, Note_on_c, 0, 69, 42
1, 123360, Note_on_c, 0, 42, 37
1, 123372, Control_c, 0, 64, 0
1, 123487, Control_c, 0, 64, 127
1, 123520, Note_on_c, 0, 42, 0
1, 123520, Note_on_c, 0, 50, 31
1, 123680, Note_on_c, 0, 50, 0
1, 123680, Note_on_c, 0, 42, 31
1, 123840, Tempo, 564493
1, 123840, Note_on_c, 0, 42, 0
1, 123840, Note_on_c, 0, 50, 35
1, 124000, Note_on_c, 0, 50, 0
1, 124000, Note_on_c, 0, 42, 30
1, 124160, Note_on_c, 0, 42, 0
1, 124160, Note_on_c, 0, 50, 30
1, 124320, Note_on_c, 0, 50, 0
1, 124320, Note_on_c, 0, 42, 35
1, 124480, Note_on_c, 0, 42, 0
1, 124480, Note_on_c, 0, 50, 30
1, 124640, Note_on_c, 0, 50, 0
1, 124640, Note_on_c, 0, 42, 30
1, 124800, Note_on_c, 0, 42, 0
1, 124800, Note_on_c, 0, 50, 35
1, 124960, Note_on_c, 0, 50, 0
1, 124960, Note_on_c, 0, 42, 29
1, 125120, Note_on_c, 0, 42, 0
1, 125120, Note_on_c, 0, 50, 29
1, 125280, Tempo, 540541
1, 125280, Note_on_c, 0, 50, 0
1, 125280, Note_on_c, 0, 69, 0
1, 125280, Note_on_c, 0, 62, 0
1, 125280, Note_on_c, 0, 60, 0
1, 125280, Note_on_c, 0, 67, 50
1, 125280, Control_c, 0, 64, 0
1, 125280, Note_on_c, 0, 46, 45
1, 125280, Note_on_c, 0, 43, 31
1, 125383, Control_c, 0, 64, 127
1, 125440, Note_on_c, 0, 46, 0
1, 125440, Note_on_c, 0, 67, 0
1, 125440, Note_on_c, 0, 62, 40
1, 125440, Note_on_c, 0, 50, 36
1, 125600, Note_on_c, 0, 50, 0
1, 125600, Note_on_c, 0, 62, 0
1, 125600, Note_on_c, 0, 58, 34
1, 125600, Note_on_c, 0, 55, 31
1, 125760, Note_on_c, 0, 55, 0
1, 125760, Note_on_c, 0, 58, 0
1, 125760, Note_on_c, 0, 67, 47
1, 125760, Note_on_c, 0, 46, 42
1, 125920, Note_on_c, 0, 46, 0
1, 125920, Note_on_c, 0, 67, 0
1, 125920, Note_on_c, 0, 62, 37
1, 125920, Note_on_c, 0, 50, 33
1, 126080, Note_on_c, 0, 50, 0
1, 126080, Note_on_c, 0, 62, 0
1, 126080, Note_on_c, 0, 58, 32
1, 126080, Note_on_c, 0, 55, 27
1, 126240, Tempo, 555556
1, 126240, Note_on_c, 0, 55, 0
1, 126240, Note_on_c, 0, 58, 0
1, 126240, Note_on_c, 0, 66, 47
1, 126240, Note_on_c, 0, 45, 41
1, 126252, Control_c, 0, 64, 0
1, 126337, Control_c, 0, 64, 127
1, 126400, Note_on_c, 0, 45, 0
1, 126400, Note_on_c, 0, 66, 0
1, 126400, Note_on_c, 0, 62, 38
1, 126400, Note_on_c, 0, 50, 33
1, 126560, Tempo, 576923
1, 126560, Note_on_c, 0, 50, 0
1, 126560, Note_on_c, 0, 62, 0
1, 126560, Note_on_c, 0, 57, 33
1, 126560, Note_on_c, 0, 54, 27
1, 126720, Tempo, 540541
1, 126720, Note_on_c, 0, 54, 0
1, 126720, Note_on_c, 0, 57, 0
1, 126720, Note_on_c, 0, 43, 0
1, 126720, Note_on_c, 0, 69, 50
1, 126720, Note_on_c, 0, 48, 45
1, 126720, Note_on_c, 0, 43, 31
1, 126726, Control_c, 0, 64, 0
1, 126806, Control_c, 0, 64, 127
1, 126880, Note_on_c, 0, 48, 0
1, 126880, Note_on_c, 0, 69, 0
1, 126880, Note_on_c, 0, 62, 41
1, 126880, Note_on_c, 0, 50, 36
1, 127040, Note_on_c, 0, 50, 0
1, 127040, Note_on_c, 0, 62, 0
1, 127040, Note_on_c, 0, 60, 33
1, 127040, Note_on_c, 0, 57, 29
1, 127200, Note_on_c, 0, 57, 0
1, 127200, Note_on_c, 0, 60, 0
1, 127200, Note_on_c, 0, 69, 48
1, 127200, Note_on_c, 0, 48, 43
1, 127360, Note_on_c, 0, 48, 0
1, 127360, Note_on_c, 0, 69, 0
1, 127360, Note_on_c, 0, 62, 38
1, 127360, Note_on_c, 0, 50, 33
1, 127520, Note_on_c, 0, 50, 0
1, 127520, Note_on_c, 0, 62, 0
1, 127520, Note_on_c, 0, 60, 30
1, 127520, Note_on_c, 0, 57, 28
1, 127680, Note_on_c, 0, 57, 0
1, 127680, Note_on_c, 0, 60, 0
1, 127680, Note_on_c, 0, 67, 48
1, 127680, Note_on_c, 0, 46, 43
1, 127694, Control_c, 0, 64, 0
1, 127766, Control_c, 0, 64, 127
1, 127840, Note_on_c, 0, 46, 0
1, 127840, Note_on_c, 0, 67, 0
1, 127840, Note_on_c, 0, 62, 38
1, 127840, Note_on_c, 0, 50, 33
1, 128000, Note_on_c, 0, 50, 0
1, 128000, Note_on_c, 0, 62, 0
1, 128000, Note_on_c, 0, 58, 31
1, 128000, Note_on_c, 0, 55, 28
1, 128160, Note_on_c, 0, 55, 0
1, 128160, Note_on_c, 0, 58, 0
1, 128160, Note_on_c, 0, 43, 0
1, 128160, Note_on_c, 0, 67, 47
1, 128160, Note_on_c, 0, 46, 42
1, 128320, Tempo, 566038
1, 128320, Note_on_c, 0, 46, 0
1, 128320, Note_on_c, 0, 67, 0
1, 128320, Note_on_c, 0, 62, 38
1, 128320, Note_on_c, 0, 50, 33
1, 128480, Tempo, 582524
1, 128480, Note_on_c, 0, 50, 0
1, 128480, Note_on_c, 0, 62, 0
1, 128480, Note_on_c, 0, 58, 31
1, 128480, Note_on_c, 0, 55, 28
1, 128640, Tempo, 594943
1, 128640, Note_on_c, 0, 55, 0
1, 128640, Note_on_c, 0, 58, 0
1, 128640, Note_on_c, 0, 62, 45
1, 128640, Note_on_c, 0, 66, 45
1, 128640, Note_on_c, 0, 69, 53
1, 128640, Note_on_c, 0, 50, 39
1, 128640, Note_on_c, 0, 54, 39
1, 128640, Note_on_c, 0, 57, 39
1, 128645, Control_c, 0, 64, 0
1, 128732, Control_c, 0, 64, 127
1, 128880, Tempo, 645023
1, 128880, Note_on_c, 0, 57, 0
1, 128880, Note_on_c, 0, 66, 0
1, 128880, Note_on_c, 0, 69, 0
1, 128880, Note_on_c, 0, 62, 0
1, 128880, Note_on_c, 0, 54, 0
1, 128880, Note_on_c, 0, 50, 0
1, 128880, Note_on_c, 0, 62, 47
1, 128880, Note_on_c, 0, 67, 47
1, 128880, Note_on_c, 0, 70, 56
1, 128880, Note_on_c, 0, 50, 41
1, 128880, Note_on_c, 0, 55, 41
1, 128880, Note_on_c, 0, 58, 49
1, 129120, Tempo, 600781
1, 129120, Note_on_c, 0, 58, 0
1, 129120, Note_on_c, 0, 67, 0
1, 129120, Note_on_c, 0, 70, 0
1, 129120, Note_on_c, 0, 62, 0
1, 129120, Note_on_c, 0, 55, 0
1, 129120, Note_on_c, 0, 50, 0
1, 129120, Note_on_c, 0, 62, 49
1, 129120, Note_on_c, 0, 69, 49
1, 129120, Note_on_c, 0, 72, 58
1, 129120, Note_on_c, 0, 50, 44
1, 129120, Note_on_c, 0, 57, 44
1, 129120, Note_on_c, 0, 60, 52
1, 129125, Control_c, 0, 64, 0
1, 129189, Control_c, 0, 64, 127
1, 129480, Note_on_c, 0, 60, 0
1, 129480, Note_on_c, 0, 69, 0
1, 129480, Note_on_c, 0, 72, 0
1, 129480, Note_on_c, 0, 62, 0
1, 129480, Note_on_c, 0, 57, 0
1, 129480, Note_on_c, 0, 50, 0
1, 129480, Note_on_c, 0, 62, 45
1, 129480, Note_on_c, 0, 67, 45
1, 129480, Note_on_c, 0, 70, 54
1, 129480, Note_on_c, 0, 50, 39
1, 129480, Note_on_c, 0, 55, 39
1, 129480, Note_on_c, 0, 58, 47
1, 129600, Note_on_c, 0, 58, 0
1, 129600, Note_on_c, 0, 67, 0
1, 129600, Note_on_c, 0, 70, 0
1, 129600, Note_on_c, 0, 62, 0
1, 129600, Note_on_c, 0, 55, 0
1, 129600, Note_on_c, 0, 50, 0
1, 129600, Note_on_c, 0, 62, 45
1, 129600, Note_on_c, 0, 67, 45
1, 129600, Note_on_c, 0, 70, 53
1, 129600, Note_on_c, 0, 50, 38
1, 129600, Note_on_c, 0, 55, 38
1, 129600, Note_on_c, 0, 58, 45
1, 129603, Control_c, 0, 64, 0
1, 129714, Control_c, 0, 64, 127
1, 129840, Tempo, 651890
1, 130080, Tempo, 666075
1, 130080, Note_on_c, 0, 58, 0
1, 130080, Note_on_c, 0, 67, 0
1, 130080, Note_on_c, 0, 70, 0
1, 130080, Note_on_c, 0, 62, 0
1, 130080, Note_on_c, 0, 55, 0
1, 130080, Note_on_c, 0, 50, 0
1, 130080, Note_on_c, 0, 62, 31
1, 130080, Note_on_c, 0, 66, 31
1, 130080, Note_on_c, 0, 69, 37
1, 130080, Note_on_c, 0, 50, 27
1, 130080, Note_on_c, 0, 54, 27
1, 130080, Note_on_c, 0, 57, 32
1, 130087, Control_c, 0, 64, 0
1, 130219, Control_c, 0, 64, 127
1, 130320, Tempo, 638298
1, 130320, Note_on_c, 0, 57, 0
1, 130320, Note_on_c, 0, 66, 0
1, 130320, Note_on_c, 0, 69, 0
1, 130320, Note_on_c, 0, 62, 0
1, 130320, Note_on_c, 0, 54, 0
1, 130320, Note_on_c, 0, 50, 0
1, 130320, Note_on_c, 0, 62, 29
1, 130320, Note_on_c, 0, 64, 29
1, 130320, Note_on_c, 0, 67, 35
1, 130320, Note_on_c, 0, 50, 26
1, 130320, Note_on_c, 0, 52, 26
1, 130320, Note_on_c, 0, 55, 31
1, 130560, Note_on_c, 0, 55, 0
1, 130560, Note_on_c, 0, 64, 0
1, 130560, Note_on_c, 0, 67, 0
1, 130560, Note_on_c, 0, 62, 0
1, 130560, Note_on_c, 0, 52, 0
1, 130560, Note_on_c, 0, 50, 0
1, 130560, Note_on_c, 0, 62, 31
1, 130560, Note_on_c, 0, 66, 31
1, 130560, Note_on_c, 0, 69, 37
1, 130560, Note_on_c, 0, 50, 28
1, 130560, Note_on_c, 0, 54, 28
1, 130560, Note_on_c, 0, 57, 33
1, 130572, Control_c, 0, 64, 0
1, 130724, Control_c, 0, 64, 127
1, 131040, Tempo, 540541
1, 131040, Note_on_c, 0, 57, 0
1, 131040, Note_on_c, 0, 66, 0
1, 131040, Note_on_c, 0, 69, 0
1, 131040, Note_on_c, 0, 62, 0
1, 131040, Note_on_c, 0, 54, 0
1, 131040, Note_on_c, 0, 50, 0
1, 131040, Note_on_c, 0, 74, 53
1, 131040, Note_on_c, 0, 67, 50
1, 131040, Note_on_c, 0, 47, 45
1, 131040, Note_on_c, 0, 43, 31
1, 131043, Control_c, 0, 64, 0
1, 131146, Control_c, 0, 64, 127
1, 131200, Note_on_c, 0, 47, 0
1, 131200, Note_on_c, 0, 67, 0
1, 131200, Note_on_c, 0, 62, 40
1, 131200, Note_on_c, 0, 50, 36
1, 131360, Note_on_c, 0, 50, 0
1, 131360, Note_on_c, 0, 62, 0
1, 131360, Note_on_c, 0, 71, 34
1, 131360, Note_on_c, 0, 55, 31
1, 131520, Note_on_c, 0, 55, 0
1, 131520, Note_on_c, 0, 71, 0
1, 131520, Note_on_c, 0, 67, 47
1, 131520, Note_on_c, 0, 47, 42
1, 131680, Note_on_c, 0, 47, 0
1, 131680, Note_on_c, 0, 67, 0
1, 131680, Note_on_c, 0, 62, 37
1, 131680, Note_on_c, 0, 50, 33
1, 131840, Note_on_c, 0, 50, 0
1, 131840, Note_on_c, 0, 62, 0
1, 131840, Note_on_c, 0, 71, 32
1, 131840, Note_on_c, 0, 55, 27
1, 132000, Tempo, 555556
1, 132000, Note_on_c, 0, 55, 0
1, 132000, Note_on_c, 0, 71, 0
1, 132000, Note_on_c, 0, 66, 47
1, 132000, Note_on_c, 0, 45, 41
1, 132007, Control_c, 0, 64, 0
1, 132134, Control_c, 0, 64, 127
1, 132160, Note_on_c, 0, 45, 0
1, 132160, Note_on_c, 0, 66, 0
1, 132160, Note_on_c, 0, 62, 38
1, 132160, Note_on_c, 0, 50, 33
1, 132320, Tempo, 576923
1, 132320, Note_on_c, 0, 50, 0
1, 132320, Note_on_c, 0, 62, 0
1, 132320, Note_on_c, 0, 69, 33
1, 132320, Note_on_c, 0, 54, 27
1, 132480, Tempo, 540541
1, 132480, Note_on_c, 0, 54, 0
1, 132480, Note_on_c, 0, 43, 0
1, 132480, Note_on_c, 0, 74, 0
1, 132480, Note_on_c, 0, 69, 0
1, 132480, Note_on_c, 0, 74, 53
1, 132480, Note_on_c, 0, 69, 50
1, 132480, Note_on_c, 0, 48, 45
1, 132480, Note_on_c, 0, 43, 31
1, 132486, Control_c, 0, 64, 0
1, 132579, Control_c, 0, 64, 127
1, 132640, Note_on_c, 0, 48, 0
1, 132640, Note_on_c, 0, 69, 0
1, 132640, Note_on_c, 0, 62, 41
1, 132640, Note_on_c, 0, 50, 36
1, 132800, Note_on_c, 0, 50, 0
1, 132800, Note_on_c, 0, 62, 0
1, 132800, Note_on_c, 0, 72, 33
1, 132800, Note_on_c, 0, 57, 29
1, 132960, Note_on_c, 0, 57, 0
1, 132960, Note_on_c, 0, 72, 0
1, 132960, Note_on_c, 0, 69, 48
1, 132960, Note_on_c, 0, 48, 43
1, 133120, Note_on_c, 0, 48, 0
1, 133120, Note_on_c, 0, 69, 0
1, 133120, Note_on_c, 0, 62, 38
1, 133120, Note_on_c, 0, 50, 33
1, 133280, Note_on_c, 0, 50, 0
1, 133280, Note_on_c, 0, 62, 0
1, 133280, Note_on_c, 0, 72, 30
1, 133280, Note_on_c, 0, 57, 28
1, 133440, Tempo, 555556
1, 133440, Note_on_c, 0, 57, 0
1, 133440, Note_on_c, 0, 72, 0
1, 133440, Note_on_c, 0, 67, 48
1, 133440, Note_on_c, 0, 47, 43
1, 133447, Control_c, 0, 64, 0
1, 133539, Control_c, 0, 64, 127
1, 133600, Note_on_c, 0, 47, 0
1, 133600, Note_on_c, 0, 67, 0
1, 133600, Note_on_c, 0, 62, 38
1, 133600, Note_on_c, 0, 50, 33
1, 133760, Tempo, 594059
1, 133760, Note_on_c, 0, 50, 0
1, 133760, Note_on_c, 0, 62, 0
1, 133760, Note_on_c, 0, 71, 31
1, 133760, Note_on_c, 0, 55, 28
1, 133920, Tempo, 576923
1, 133920, Note_on_c, 0, 55, 0
1, 133920, Note_on_c, 0, 43, 0
1, 133920, Note_on_c, 0, 74, 0
1, 133920, Note_on_c, 0, 71, 0
1, 133920, Note_on_c, 0, 62, 70
1, 133920, Note_on_c, 0, 50, 46
1, 133920, Note_on_c, 0, 47, 39
1, 133920, Note_on_c, 0, 43, 39
1, 133922, Control_c, 0, 64, 0
1, 134019, Control_c, 0, 64, 127
1, 134160, Tempo, 631579
1, 134160, Note_on_c, 0, 62, 0
1, 134160, Note_on_c, 0, 74, 68
1, 134400, Tempo, 594943
1, 134400, Note_on_c, 0, 74, 0
1, 134400, Note_on_c, 0, 43, 0
1, 134400, Note_on_c, 0, 47, 0
1, 134400, Note_on_c, 0, 50, 0
1, 134400, Note_on_c, 0, 64, 56
1, 134400, Note_on_c, 0, 76, 66
1, 134400, Note_on_c, 0, 43, 46
1, 134400, Note_on_c, 0, 48, 46
1, 134400, Note_on_c, 0, 52, 55
1, 134412, Control_c, 0, 64, 0
1, 134485, Control_c, 0, 64, 127
1, 134640, Tempo, 666667
1, 134640, Note_on_c, 0, 52, 0
1, 134640, Note_on_c, 0, 43, 0
1, 134640, Note_on_c, 0, 64, 0
1, 134640, Note_on_c, 0, 76, 0
1, 134640, Note_on_c, 0, 48, 0
1, 134640, Note_on_c, 0, 66, 62
1, 134640, Note_on_c, 0, 78, 74
1, 134640, Note_on_c, 0, 43, 49
1, 134640, Note_on_c, 0, 45, 49
1, 134640, Note_on_c, 0, 54, 58
1, 134880, Tempo, 618557
1, 134880, Note_on_c, 0, 54, 0
1, 134880, Note_on_c, 0, 43, 0
1, 134880, Note_on_c, 0, 66, 0
1, 134880, Note_on_c, 0, 78, 0
1, 134880, Note_on_c, 0, 45, 0
1, 134880, Note_on_c, 0, 67, 70
1, 134880, Note_on_c, 0, 79, 83
1, 134880, Note_on_c, 0, 43, 57
1, 134880, Note_on_c, 0, 55, 68
1, 134880, Note_on_c, 0, 47, 57
1, 134885, Control_c, 0, 64, 0
1, 134972, Control_c, 0, 64, 127
1, 135240, Note_on_c, 0, 47, 0
1, 135240, Note_on_c, 0, 43, 0
1, 135240, Note_on_c, 0, 67, 0
1, 135240, Note_on_c, 0, 79, 0
1, 135240, Note_on_c, 0, 55, 0
1, 135240, Note_on_c, 0, 62, 46
1, 135240, Note_on_c, 0, 67, 46
1, 135240, Note_on_c, 0, 71, 55
1, 135240, Note_on_c, 0, 50, 41
1, 135240, Note_on_c, 0, 55, 41
1, 135240, Note_on_c, 0, 59, 49
1, 135360, Note_on_c, 0, 59, 0
1, 135360, Note_on_c, 0, 67, 0
1, 135360, Note_on_c, 0, 71, 0
1, 135360, Note_on_c, 0, 62, 0
1, 135360, Note_on_c, 0, 55, 0
1, 135360, Note_on_c, 0, 50, 0
1, 135360, Note_on_c, 0, 62, 51
1, 135360, Note_on_c, 0, 71, 51
1, 135360, Note_on_c, 0, 74, 61
1, 135360, Note_on_c, 0, 50, 45
1, 135360, Note_on_c, 0, 59, 45
1, 135364, Control_c, 0, 64, 0
1, 135480, Control_c, 0, 64, 127
1, 135600, Tempo, 651890
1, 135840, Tempo, 666075
1, 135840, Note_on_c, 0, 59, 0
1, 135840, Note_on_c, 0, 74, 0
1, 135840, Note_on_c, 0, 62, 0
1, 135840, Note_on_c, 0, 71, 0
1, 135840, Note_on_c, 0, 50, 0
1, 135840, Note_on_c, 0, 62, 42
1, 135840, Note_on_c, 0, 66, 42
1, 135840, Note_on_c, 0, 72, 50
1, 135840, Note_on_c, 0, 50, 39
1, 135840, Note_on_c, 0, 57, 39
1, 135840, Note_on_c, 0, 60, 46
1, 135847, Control_c, 0, 64, 0
1, 135939, Control_c, 0, 64, 127
1, 136080, Tempo, 638298
1, 136200, Note_on_c, 0, 60, 0
1, 136200, Note_on_c, 0, 66, 0
1, 136200, Note_on_c, 0, 72, 0
1, 136200, Note_on_c, 0, 62, 0
1, 136200, Note_on_c, 0, 57, 0
1, 136200, Note_on_c, 0, 50, 0
1, 136200, Note_on_c, 0, 62, 37
1, 136200, Note_on_c, 0, 67, 37
1, 136200, Note_on_c, 0, 71, 44
1, 136200, Note_on_c, 0, 55, 31
1, 136200, Note_on_c, 0, 59, 37
1, 136320, Note_on_c, 0, 59, 0
1, 136320, Note_on_c, 0, 71, 0
1, 136320, Note_on_c, 0, 62, 0
1, 136320, Note_on_c, 0, 67, 0
1, 136320, Note_on_c, 0, 55, 0
1, 136320, Note_on_c, 0, 62, 34
1, 136320, Note_on_c, 0, 67, 34
1, 136320, Note_on_c, 0, 71, 41
1, 136320, Note_on_c, 0, 55, 28
1, 136320, Note_on_c, 0, 59, 34
1, 136329, Control_c, 0, 64, 0
1, 136440, Control_c, 0, 64, 127
1, 136800, Tempo, 581283
1, 136800, Marker_t, "Teil 4 :"
1, 136800, Note_on_c, 0, 59, 0
1, 136800, Note_on_c, 0, 71, 0
1, 136800, Note_on_c, 0, 62, 0
1, 136800, Note_on_c, 0, 67, 0
1, 136800, Note_on_c, 0, 55, 0
1, 136800, Note_on_c, 0, 57, 37
1, 136800, Note_on_c, 0, 66, 37
1, 136800, Note_on_c, 0, 69, 44
1, 136800, Note_on_c, 0, 38, 30
1, 136804, Control_c, 0, 64, 0
1, 136899, Control_c, 0, 64, 127
1, 136960, Note_on_c, 0, 38, 0
1, 136960, Note_on_c, 0, 45, 26
1, 137120, Note_on_c, 0, 45, 0
1, 137120, Note_on_c, 0, 38, 27
1, 137280, Note_on_c, 0, 38, 0
1, 137280, Note_on_c, 0, 57, 0
1, 137280, Note_on_c, 0, 66, 0
1, 137280, Note_on_c, 0, 69, 0
1, 137280, Note_on_c, 0, 57, 32
1, 137280, Note_on_c, 0, 64, 32
1, 137280, Note_on_c, 0, 67, 38
1, 137280, Note_on_c, 0, 33, 30
1, 137286, Control_c, 0, 64, 0
1, 137365, Control_c, 0, 64, 127
1, 137440, Note_on_c, 0, 33, 0
1, 137440, Note_on_c, 0, 38, 26
1, 137600, Note_on_c, 0, 38, 0
1, 137600, Note_on_c, 0, 33, 26
1, 137640, Note_on_c, 0, 67, 0
1, 137640, Note_on_c, 0, 57, 0
1, 137640, Note_on_c, 0, 64, 0
1, 137640, Note_on_c, 0, 57, 30
1, 137640, Note_on_c, 0, 62, 30
1, 137640, Note_on_c, 0, 66, 36
1, 137760, Note_on_c, 0, 66, 0
1, 137760, Note_on_c, 0, 33, 0
1, 137760, Note_on_c, 0, 57, 0
1, 137760, Note_on_c, 0, 62, 0
1, 137760, Note_on_c, 0, 57, 32
1, 137760, Note_on_c, 0, 62, 32
1, 137760, Note_on_c, 0, 66, 38
1, 137760, Note_on_c, 0, 38, 30
1, 137767, Control_c, 0, 64, 0
1, 137852, Control_c, 0, 64, 127
1, 137920, Note_on_c, 0, 38, 0
1, 137920, Note_on_c, 0, 45, 26
1, 138080, Note_on_c, 0, 45, 0
1, 138080, Note_on_c, 0, 38, 26
1, 138240, Note_on_c, 0, 38, 0
1, 138240, Note_on_c, 0, 57, 0
1, 138240, Note_on_c, 0, 62, 0
1, 138240, Note_on_c, 0, 66, 0
1, 138240, Note_on_c, 0, 66, 37
1, 138240, Note_on_c, 0, 74, 44
1, 138240, Note_on_c, 0, 33, 32
1, 138243, Control_c, 0, 64, 0
1, 138332, Control_c, 0, 64, 127
1, 138400, Note_on_c, 0, 33, 0
1, 138400, Note_on_c, 0, 38, 27
1, 138560, Note_on_c, 0, 38, 0
1, 138560, Note_on_c, 0, 33, 27
1, 138600, Note_on_c, 0, 74, 0
1, 138600, Note_on_c, 0, 66, 0
1, 138600, Note_on_c, 0, 67, 35
1, 138600, Note_on_c, 0, 76, 41
1, 138720, Note_on_c, 0, 76, 0
1, 138720, Note_on_c, 0, 67, 0
1, 138720, Note_on_c, 0, 33, 0
1, 138720, Note_on_c, 0, 66, 40
1, 138720, Note_on_c, 0, 74, 48
1, 138720, Note_on_c, 0, 38, 33
1, 138725, Control_c, 0, 64, 0
1, 138800, Control_c, 0, 64, 127
1, 138880, Note_on_c, 0, 38, 0
1, 138880, Note_on_c, 0, 45, 29
1, 139040, Note_on_c, 0, 45, 0
1, 139040, Note_on_c, 0, 38, 29
1, 139200, Note_on_c, 0, 38, 0
1, 139200, Note_on_c, 0, 74, 0
1, 139200, Note_on_c, 0, 66, 0
1, 139200, Note_on_c, 0, 69, 37
1, 139200, Note_on_c, 0, 76, 44
1, 139200, Note_on_c, 0, 33, 34
1, 139203, Control_c, 0, 64, 0
1, 139280, Control_c, 0, 64, 127
1, 139360, Note_on_c, 0, 33, 0
1, 139360, Note_on_c, 0, 37, 29
1, 139440, Note_on_c, 0, 76, 0
1, 139440, Note_on_c, 0, 69, 0
1, 139520, Note_on_c, 0, 37, 0
1, 139520, Note_on_c, 0, 33, 29
1, 139680, Tempo, 569963
1, 139680, Note_on_c, 0, 33, 0
1, 139680, Note_on_c, 0, 57, 46
1, 139680, Note_on_c, 0, 67, 46
1, 139680, Note_on_c, 0, 71, 55
1, 139680, Control_c, 0, 64, 0
1, 139680, Note_on_c, 0, 37, 30
1, 139783, Control_c, 0, 64, 127
1, 139840, Note_on_c, 0, 37, 0
1, 139840, Note_on_c, 0, 45, 27
1, 140000, Note_on_c, 0, 45, 0
1, 140000, Note_on_c, 0, 37, 27
1, 140160, Note_on_c, 0, 37, 0
1, 140160, Note_on_c, 0, 57, 0
1, 140160, Note_on_c, 0, 67, 0
1, 140160, Note_on_c, 0, 71, 0
1, 140160, Note_on_c, 0, 57, 39
1, 140160, Note_on_c, 0, 66, 39
1, 140160, Note_on_c, 0, 69, 47
1, 140160, Note_on_c, 0, 33, 30
1, 140167, Control_c, 0, 64, 0
1, 140246, Control_c, 0, 64, 127
1, 140320, Note_on_c, 0, 33, 0
1, 140320, Note_on_c, 0, 37, 27
1, 140480, Note_on_c, 0, 37, 0
1, 140480, Note_on_c, 0, 33, 27
1, 140520, Note_on_c, 0, 69, 0
1, 140520, Note_on_c, 0, 57, 0
1, 140520, Note_on_c, 0, 66, 0
1, 140520, Note_on_c, 0, 57, 32
1, 140520, Note_on_c, 0, 64, 32
1, 140520, Note_on_c, 0, 67, 38
1, 140640, Note_on_c, 0, 67, 0
1, 140640, Note_on_c, 0, 33, 0
1, 140640, Note_on_c, 0, 57, 0
1, 140640, Note_on_c, 0, 64, 0
1, 140640, Note_on_c, 0, 57, 35
1, 140640, Note_on_c, 0, 64, 35
1, 140640, Note_on_c, 0, 67, 42
1, 140640, Note_on_c, 0, 37, 33
1, 140653, Control_c, 0, 64, 0
1, 140737, Control_c, 0, 64, 127
1, 140800, Note_on_c, 0, 37, 0
1, 140800, Note_on_c, 0, 45, 29
1, 140880, Tempo, 624545
1, 140960, Note_on_c, 0, 45, 0
1, 140960, Note_on_c, 0, 37, 29
1, 141120, Note_on_c, 0, 37, 0
1, 141120, Note_on_c, 0, 57, 0
1, 141120, Note_on_c, 0, 64, 0
1, 141120, Note_on_c, 0, 67, 0
1, 141120, Note_on_c, 0, 69, 42
1, 141120, Note_on_c, 0, 76, 50
1, 141120, Note_on_c, 0, 33, 34
1, 141123, Control_c, 0, 64, 0
1, 141140, Tempo, 575595
1, 141229, Control_c, 0, 64, 127
1, 141280, Note_on_c, 0, 33, 0
1, 141280, Note_on_c, 0, 37, 30
1, 141440, Note_on_c, 0, 37, 0
1, 141440, Note_on_c, 0, 33, 30
1, 141480, Note_on_c, 0, 76, 0
1, 141480, Note_on_c, 0, 69, 0
1, 141480, Note_on_c, 0, 74, 39
1, 141480, Note_on_c, 0, 78, 47
1, 141600, Note_on_c, 0, 78, 0
1, 141600, Note_on_c, 0, 74, 0
1, 141600, Note_on_c, 0, 33, 0
1, 141600, Note_on_c, 0, 69, 44
1, 141600, Note_on_c, 0, 76, 52
1, 141600, Note_on_c, 0, 37, 35
1, 141611, Control_c, 0, 64, 0
1, 141692, Control_c, 0, 64, 127
1, 141760, Note_on_c, 0, 37, 0
1, 141760, Note_on_c, 0, 45, 30
1, 141920, Note_on_c, 0, 45, 0
1, 141920, Note_on_c, 0, 37, 30
1, 142080, Note_on_c, 0, 37, 0
1, 142080, Note_on_c, 0, 76, 0
1, 142080, Note_on_c, 0, 69, 0
1, 142080, Note_on_c, 0, 74, 41
1, 142080, Note_on_c, 0, 78, 49
1, 142080, Note_on_c, 0, 33, 35
1, 142094, Control_c, 0, 64, 0
1, 142183, Control_c, 0, 64, 127
1, 142240, Note_on_c, 0, 33, 0
1, 142240, Note_on_c, 0, 38, 30
1, 142320, Tempo, 605266
1, 142320, Note_on_c, 0, 78, 0
1, 142320, Note_on_c, 0, 74, 0
1, 142400, Note_on_c, 0, 38, 0
1, 142400, Note_on_c, 0, 33, 30
1, 142560, Tempo, 581283
1, 142560, Note_on_c, 0, 33, 0
1, 142560, Note_on_c, 0, 66, 51
1, 142560, Note_on_c, 0, 74, 61
1, 142560, Note_on_c, 0, 38, 34
1, 142563, Control_c, 0, 64, 0
1, 142687, Control_c, 0, 64, 127
1, 142720, Note_on_c, 0, 38, 0
1, 142720, Note_on_c, 0, 45, 29
1, 142880, Note_on_c, 0, 45, 0
1, 142880, Note_on_c, 0, 38, 31
1, 143040, Tempo, 593003
1, 143040, Note_on_c, 0, 38, 0
1, 143040, Note_on_c, 0, 74, 0
1, 143040, Note_on_c, 0, 66, 0
1, 143040, Note_on_c, 0, 69, 38
1, 143040, Note_on_c, 0, 73, 45
1, 143040, Note_on_c, 0, 33, 34
1, 143052, Control_c, 0, 64, 0
1, 143139, Control_c, 0, 64, 127
1, 143200, Note_on_c, 0, 33, 0
1, 143200, Note_on_c, 0, 38, 29
1, 143280, Tempo, 617983
1, 143280, Note_on_c, 0, 73, 0
1, 143280, Note_on_c, 0, 69, 0
1, 143280, Note_on_c, 0, 67, 38
1, 143280, Note_on_c, 0, 71, 45
1, 143360, Note_on_c, 0, 38, 0
1, 143360, Note_on_c, 0, 33, 29
1, 143520, Tempo, 599042
1, 143520, Note_on_c, 0, 33, 0
1, 143520, Note_on_c, 0, 71, 0
1, 143520, Note_on_c, 0, 67, 0
1, 143520, Note_on_c, 0, 57, 48
1, 143520, Note_on_c, 0, 66, 48
1, 143520, Note_on_c, 0, 69, 57
1, 143520, Note_on_c, 0, 38, 39
1, 143530, Control_c, 0, 64, 0
1, 143633, Control_c, 0, 64, 127
1, 143680, Note_on_c, 0, 38, 0
1, 143680, Note_on_c, 0, 45, 34
1, 143840, Note_on_c, 0, 45, 0
1, 143840, Note_on_c, 0, 38, 34
1, 144000, Tempo, 593003
1, 144000, Note_on_c, 0, 38, 0
1, 144000, Note_on_c, 0, 57, 0
1, 144000, Note_on_c, 0, 66, 0
1, 144000, Note_on_c, 0, 69, 0
1, 144000, Note_on_c, 0, 57, 38
1, 144000, Note_on_c, 0, 64, 38
1, 144000, Note_on_c, 0, 67, 45
1, 144000, Note_on_c, 0, 33, 36
1, 144006, Control_c, 0, 64, 0
1, 144092, Control_c, 0, 64, 127
1, 144160, Note_on_c, 0, 33, 0
1, 144160, Note_on_c, 0, 38, 31
1, 144240, Tempo, 617983
1, 144240, Note_on_c, 0, 57, 0
1, 144240, Note_on_c, 0, 67, 0
1, 144240, Note_on_c, 0, 64, 0
1, 144240, Note_on_c, 0, 57, 38
1, 144240, Note_on_c, 0, 62, 38
1, 144240, Note_on_c, 0, 66, 38
1, 144320, Note_on_c, 0, 38, 0
1, 144320, Note_on_c, 0, 33, 31
1, 144480, Tempo, 605266
1, 144480, Note_on_c, 0, 33, 0
1, 144480, Note_on_c, 0, 66, 0
1, 144480, Note_on_c, 0, 62, 0
1, 144480, Note_on_c, 0, 57, 0
1, 144480, Note_on_c, 0, 57, 49
1, 144480, Note_on_c, 0, 67, 49
1, 144480, Note_on_c, 0, 71, 58
1, 144480, Note_on_c, 0, 37, 37
1, 144491, Control_c, 0, 64, 0
1, 144589, Control_c, 0, 64, 127
1, 144640, Note_on_c, 0, 37, 0
1, 144640, Note_on_c, 0, 45, 33
1, 144800, Note_on_c, 0, 45, 0
1, 144800, Note_on_c, 0, 37, 33
1, 144960, Tempo, 617983
1, 144960, Note_on_c, 0, 37, 0
1, 144960, Note_on_c, 0, 57, 0
1, 144960, Note_on_c, 0, 67, 0
1, 144960, Note_on_c, 0, 71, 0
1, 144960, Note_on_c, 0, 57, 42
1, 144960, Note_on_c, 0, 66, 42
1, 144960, Note_on_c, 0, 69, 50
1, 144960, Note_on_c, 0, 33, 35
1, 144973, Control_c, 0, 64, 0
1, 145046, Control_c, 0, 64, 127
1, 145120, Note_on_c, 0, 33, 0
1, 145120, Note_on_c, 0, 37, 31
1, 145200, Note_on_c, 0, 57, 0
1, 145200, Note_on_c, 0, 69, 0
1, 145200, Note_on_c, 0, 66, 0
1, 145200, Note_on_c, 0, 57, 41
1, 145200, Note_on_c, 0, 64, 41
1, 145200, Note_on_c, 0, 67, 49
1, 145280, Note_on_c, 0, 37, 0
1, 145280, Note_on_c, 0, 33, 30
1, 145440, Note_on_c, 0, 33, 0
1, 145440, Note_on_c, 0, 67, 0
1, 145440, Note_on_c, 0, 64, 0
1, 145440, Note_on_c, 0, 57, 0
1, 145440, Note_on_c, 0, 62, 44
1, 145440, Note_on_c, 0, 66, 52
1, 145440, Note_on_c, 0, 38, 36
1, 145444, Control_c, 0, 64, 0
1, 145560, Control_c, 0, 64, 127
1, 145600, Note_on_c, 0, 38, 0
1, 145600, Note_on_c, 0, 45, 29
1, 145680, Note_on_c, 0, 66, 0
1, 145680, Note_on_c, 0, 62, 0
1, 145680, Note_on_c, 0, 57, 40
1, 145680, Note_on_c, 0, 64, 48
1, 145760, Note_on_c, 0, 45, 0
1, 145760, Note_on_c, 0, 38, 31
1, 145920, Note_on_c, 0, 38, 0
1, 145920, Note_on_c, 0, 64, 0
1, 145920, Note_on_c, 0, 57, 0
1, 145920, Note_on_c, 0, 54, 45
1, 145920, Note_on_c, 0, 62, 53
1, 145920, Note_on_c, 0, 33, 37
1, 145933, Control_c, 0, 64, 0
1, 145940, Tempo, 581283
1, 146068, Control_c, 0, 64, 127
1, 146080, Note_on_c, 0, 33, 0
1, 146080, Note_on_c, 0, 38, 30
1, 146240, Note_on_c, 0, 38, 0
1, 146240, Note_on_c, 0, 33, 30
1, 146400, Note_on_c, 0, 33, 0
1, 146400, Note_on_c, 0, 38, 36
1, 146560, Note_on_c, 0, 38, 0
1, 146560, Note_on_c, 0, 45, 32
1, 146640, Tempo, 617983
1, 146720, Note_on_c, 0, 45, 0
1, 146720, Note_on_c, 0, 38, 32
1, 146880, Tempo, 581283
1, 146880, Note_on_c, 0, 38, 0
1, 146880, Note_on_c, 0, 62, 0
1, 146880, Note_on_c, 0, 54, 0
1, 146880, Note_on_c, 0, 57, 44
1, 146880, Note_on_c, 0, 66, 44
1, 146880, Note_on_c, 0, 69, 52
1, 146880, Control_c, 0, 64, 0
1, 146880, Note_on_c, 0, 33, 42
1, 146965, Control_c, 0, 64, 127
1, 147040, Note_on_c, 0, 33, 0
1, 147040, Note_on_c, 0, 38, 39
1, 147200, Note_on_c, 0, 38, 0
1, 147200, Note_on_c, 0, 33, 39
1, 147360, Note_on_c, 0, 33, 0
1, 147360, Note_on_c, 0, 57, 0
1, 147360, Note_on_c, 0, 66, 0
1, 147360, Note_on_c, 0, 69, 0
1, 147360, Note_on_c, 0, 57, 41
1, 147360, Note_on_c, 0, 64, 41
1, 147360, Note_on_c, 0, 67, 49
1, 147360, Note_on_c, 0, 35, 43
1, 147375, Control_c, 0, 64, 0
1, 147459, Control_c, 0, 64, 127
1, 147520, Note_on_c, 0, 35, 0
1, 147520, Note_on_c, 0, 38, 39
1, 147680, Note_on_c, 0, 38, 0
1, 147680, Note_on_c, 0, 36, 40
1, 147720, Note_on_c, 0, 67, 0
1, 147720, Note_on_c, 0, 57, 0
1, 147720, Note_on_c, 0, 64, 0
1, 147720, Note_on_c, 0, 57, 39
1, 147720, Note_on_c, 0, 62, 39
1, 147720, Note_on_c, 0, 66, 46
1, 147840, Note_on_c, 0, 66, 0
1, 147840, Note_on_c, 0, 36, 0
1, 147840, Note_on_c, 0, 57, 0
1, 147840, Note_on_c, 0, 62, 0
1, 147840, Note_on_c, 0, 57, 40
1, 147840, Note_on_c, 0, 62, 40
1, 147840, Note_on_c, 0, 66, 48
1, 147840, Note_on_c, 0, 36, 46
1, 147853, Control_c, 0, 64, 0
1, 147939, Control_c, 0, 64, 127
1, 148000, Note_on_c, 0, 36, 0
1, 148000, Note_on_c, 0, 38, 42
1, 148160, Note_on_c, 0, 38, 0
1, 148160, Note_on_c, 0, 36, 42
1, 148320, Note_on_c, 0, 36, 0
1, 148320, Note_on_c, 0, 57, 0
1, 148320, Note_on_c, 0, 62, 0
1, 148320, Note_on_c, 0, 66, 0
1, 148320, Note_on_c, 0, 57, 48
1, 148320, Note_on_c, 0, 66, 57
1, 148320, Note_on_c, 0, 69, 57
1, 148320, Note_on_c, 0, 33, 48
1, 148325, Control_c, 0, 64, 0
1, 148426, Control_c, 0, 64, 127
1, 148480, Note_on_c, 0, 33, 0
1, 148480, Note_on_c, 0, 38, 43
1, 148640, Note_on_c, 0, 38, 0
1, 148640, Note_on_c, 0, 33, 43
1, 148800, Note_on_c, 0, 33, 0
1, 148800, Note_on_c, 0, 57, 0
1, 148800, Note_on_c, 0, 66, 0
1, 148800, Note_on_c, 0, 69, 0
1, 148800, Note_on_c, 0, 57, 45
1, 148800, Note_on_c, 0, 64, 45
1, 148800, Note_on_c, 0, 67, 54
1, 148800, Note_on_c, 0, 35, 49
1, 148807, Control_c, 0, 64, 0
1, 148913, Control_c, 0, 64, 127
1, 148960, Note_on_c, 0, 35, 0
1, 148960, Note_on_c, 0, 38, 44
1, 149120, Note_on_c, 0, 38, 0
1, 149120, Note_on_c, 0, 36, 44
1, 149160, Note_on_c, 0, 67, 0
1, 149160, Note_on_c, 0, 57, 0
1, 149160, Note_on_c, 0, 64, 0
1, 149160, Note_on_c, 0, 57, 45
1, 149160, Note_on_c, 0, 62, 45
1, 149160, Note_on_c, 0, 66, 53
1, 149280, Note_on_c, 0, 66, 0
1, 149280, Note_on_c, 0, 36, 0
1, 149280, Note_on_c, 0, 57, 0
1, 149280, Note_on_c, 0, 62, 0
1, 149280, Note_on_c, 0, 57, 47
1, 149280, Note_on_c, 0, 62, 47
1, 149280, Note_on_c, 0, 66, 56
1, 149280, Note_on_c, 0, 36, 54
1, 149294, Control_c, 0, 64, 0
1, 149365, Control_c, 0, 64, 127
1, 149440, Note_on_c, 0, 36, 0
1, 149440, Note_on_c, 0, 38, 44
1, 149520, Tempo, 631247
1, 149600, Note_on_c, 0, 38, 0
1, 149600, Note_on_c, 0, 36, 46
1, 149760, Tempo, 581283
1, 149760, Note_on_c, 0, 36, 0
1, 149760, Note_on_c, 0, 57, 0
1, 149760, Note_on_c, 0, 62, 0
1, 149760, Note_on_c, 0, 66, 0
1, 149760, Note_on_c, 0, 72, 70
1, 149760, Note_on_c, 0, 62, 59
1, 149760, Note_on_c, 0, 66, 59
1, 149760, Control_c, 0, 64, 0
1, 149760, Note_on_c, 0, 33, 57
1, 149873, Control_c, 0, 64, 127
1, 149920, Note_on_c, 0, 33, 0
1, 149920, Note_on_c, 0, 38, 51
1, 150080, Note_on_c, 0, 38, 0
1, 150080, Note_on_c, 0, 33, 51
1, 150240, Note_on_c, 0, 33, 0
1, 150240, Note_on_c, 0, 72, 0
1, 150240, Note_on_c, 0, 62, 0
1, 150240, Note_on_c, 0, 66, 0
1, 150240, Note_on_c, 0, 67, 66
1, 150240, Note_on_c, 0, 62, 56
1, 150240, Note_on_c, 0, 71, 66
1, 150240, Note_on_c, 0, 35, 64
1, 150246, Control_c, 0, 64, 0
1, 150332, Control_c, 0, 64, 127
1, 150400, Note_on_c, 0, 35, 0
1, 150400, Note_on_c, 0, 38, 54
1, 150560, Note_on_c, 0, 38, 0
1, 150560, Note_on_c, 0, 36, 54
1, 150600, Note_on_c, 0, 71, 0
1, 150600, Note_on_c, 0, 67, 0
1, 150600, Note_on_c, 0, 62, 0
1, 150600, Note_on_c, 0, 69, 59
1, 150600, Note_on_c, 0, 62, 50
1, 150600, Note_on_c, 0, 66, 50
1, 150720, Note_on_c, 0, 66, 0
1, 150720, Note_on_c, 0, 36, 0
1, 150720, Note_on_c, 0, 69, 0
1, 150720, Note_on_c, 0, 62, 0
1, 150720, Note_on_c, 0, 69, 61
1, 150720, Note_on_c, 0, 62, 51
1, 150720, Note_on_c, 0, 66, 51
1, 150720, Note_on_c, 0, 36, 71
1, 150727, Control_c, 0, 64, 0
1, 150819, Control_c, 0, 64, 127
1, 150880, Note_on_c, 0, 36, 0
1, 150880, Note_on_c, 0, 38, 55
1, 150960, Tempo, 645161
1, 151040, Note_on_c, 0, 38, 0
1, 151040, Note_on_c, 0, 36, 55
1, 151200, Tempo, 611558
1, 151200, Note_on_c, 0, 36, 0
1, 151200, Note_on_c, 0, 69, 0
1, 151200, Note_on_c, 0, 62, 0
1, 151200, Note_on_c, 0, 66, 0
1, 151200, Note_on_c, 0, 62, 61
1, 151200, Note_on_c, 0, 72, 61
1, 151200, Note_on_c, 0, 76, 72
1, 151200, Note_on_c, 0, 38, 72
1, 151207, Control_c, 0, 64, 0
1, 151320, Control_c, 0, 64, 127
1, 151360, Note_on_c, 0, 38, 0
1, 151360, Note_on_c, 0, 50, 62
1, 151520, Note_on_c, 0, 50, 0
1, 151520, Note_on_c, 0, 38, 62
1, 151680, Tempo, 631247
1, 151680, Note_on_c, 0, 38, 0
1, 151680, Note_on_c, 0, 62, 0
1, 151680, Note_on_c, 0, 72, 0
1, 151680, Note_on_c, 0, 76, 0
1, 151680, Note_on_c, 0, 62, 59
1, 151680, Note_on_c, 0, 71, 59
1, 151680, Note_on_c, 0, 74, 70
1, 151680, Note_on_c, 0, 40, 69
1, 151692, Control_c, 0, 64, 0
1, 151779, Control_c, 0, 64, 127
1, 151840, Note_on_c, 0, 40, 0
1, 151840, Note_on_c, 0, 50, 57
1, 152000, Note_on_c, 0, 50, 0
1, 152000, Note_on_c, 0, 42, 60
1, 152040, Note_on_c, 0, 74, 0
1, 152040, Note_on_c, 0, 62, 0
1, 152040, Note_on_c, 0, 71, 0
1, 152040, Note_on_c, 0, 62, 56
1, 152040, Note_on_c, 0, 69, 56
1, 152040, Note_on_c, 0, 72, 67
1, 152160, Note_on_c, 0, 72, 0
1, 152160, Note_on_c, 0, 42, 0
1, 152160, Note_on_c, 0, 62, 0
1, 152160, Note_on_c, 0, 69, 0
1, 152160, Note_on_c, 0, 62, 59
1, 152160, Note_on_c, 0, 72, 70
1, 152160, Note_on_c, 0, 69, 59
1, 152160, Note_on_c, 0, 42, 66
1, 152165, Control_c, 0, 64, 0
1, 152245, Control_c, 0, 64, 127
1, 152320, Note_on_c, 0, 42, 0
1, 152320, Note_on_c, 0, 50, 60
1, 152480, Note_on_c, 0, 50, 0
1, 152480, Note_on_c, 0, 42, 60
1, 152634, Note_on_c, 0, 42, 0
1, 152640, Tempo, 617983
1, 152640, Note_on_c, 0, 62, 0
1, 152640, Note_on_c, 0, 72, 0
1, 152640, Note_on_c, 0, 69, 0
1, 152640, Note_on_c, 0, 57, 44
1, 152640, Note_on_c, 0, 62, 44
1, 152640, Note_on_c, 0, 72, 52
1, 152640, Note_on_c, 0, 42, 43
1, 152643, Control_c, 0, 64, 0
1, 152748, Control_c, 0, 64, 127
1, 152800, Note_on_c, 0, 42, 0
1, 152800, Note_on_c, 0, 50, 36
1, 152960, Note_on_c, 0, 50, 0
1, 152960, Note_on_c, 0, 42, 37
1, 153120, Note_on_c, 0, 42, 0
1, 153120, Note_on_c, 0, 57, 0
1, 153120, Note_on_c, 0, 62, 0
1, 153120, Note_on_c, 0, 72, 0
1, 153120, Note_on_c, 0, 59, 39
1, 153120, Note_on_c, 0, 62, 39
1, 153120, Note_on_c, 0, 71, 46
1, 153120, Note_on_c, 0, 50, 37
1, 153127, Control_c, 0, 64, 0
1, 153202, Control_c, 0, 64, 127
1, 153280, Note_on_c, 0, 50, 0
1, 153280, Note_on_c, 0, 42, 33
1, 153440, Note_on_c, 0, 42, 0
1, 153440, Note_on_c, 0, 50, 33
1, 153480, Note_on_c, 0, 71, 0
1, 153480, Note_on_c, 0, 59, 0
1, 153480, Note_on_c, 0, 62, 0
1, 153480, Note_on_c, 0, 60, 35
1, 153480, Note_on_c, 0, 62, 35
1, 153480, Note_on_c, 0, 69, 42
1, 153600, Tempo, 593003
1, 153600, Note_on_c, 0, 69, 0
1, 153600, Note_on_c, 0, 50, 0
1, 153600, Note_on_c, 0, 60, 0
1, 153600, Note_on_c, 0, 62, 0
1, 153600, Note_on_c, 0, 60, 35
1, 153600, Note_on_c, 0, 62, 35
1, 153600, Note_on_c, 0, 69, 42
1, 153600, Note_on_c, 0, 42, 37
1, 153612, Control_c, 0, 64, 0
1, 153676, Control_c, 0, 64, 127
1, 153760, Note_on_c, 0, 42, 0
1, 153760, Note_on_c, 0, 50, 31
1, 153920, Note_on_c, 0, 50, 0
1, 153920, Note_on_c, 0, 42, 31
1, 154080, Tempo, 564493
1, 154080, Note_on_c, 0, 42, 0
1, 154080, Note_on_c, 0, 50, 35
1, 154240, Note_on_c, 0, 50, 0
1, 154240, Note_on_c, 0, 42, 30
1, 154400, Note_on_c, 0, 42, 0
1, 154400, Note_on_c, 0, 50, 30
1, 154560, Note_on_c, 0, 50, 0
1, 154560, Note_on_c, 0, 42, 35
1, 154720, Note_on_c, 0, 42, 0
1, 154720, Note_on_c, 0, 50, 30
1, 154880, Note_on_c, 0, 50, 0
1, 154880, Note_on_c, 0, 42, 30
1, 155040, Note_on_c, 0, 42, 0
1, 155040, Note_on_c, 0, 50, 35
1, 155200, Note_on_c, 0, 50, 0
1, 155200, Note_on_c, 0, 42, 29
1, 155360, Note_on_c, 0, 42, 0
1, 155360, Note_on_c, 0, 50, 29
1, 155520, Tempo, 540541
1, 155520, Note_on_c, 0, 50, 0
1, 155520, Note_on_c, 0, 69, 0
1, 155520, Note_on_c, 0, 62, 0
1, 155520, Note_on_c, 0, 60, 0
1, 155520, Note_on_c, 0, 67, 50
1, 155520, Control_c, 0, 64, 0
1, 155520, Note_on_c, 0, 46, 45
1, 155520, Note_on_c, 0, 43, 31
1, 155612, Control_c, 0, 64, 127
1, 155680, Note_on_c, 0, 46, 0
1, 155680, Note_on_c, 0, 67, 0
1, 155680, Note_on_c, 0, 62, 40
1, 155680, Note_on_c, 0, 50, 36
1, 155840, Note_on_c, 0, 50, 0
1, 155840, Note_on_c, 0, 62, 0
1, 155840, Note_on_c, 0, 58, 34
1, 155840, Note_on_c, 0, 55, 31
1, 156000, Note_on_c, 0, 55, 0
1, 156000, Note_on_c, 0, 58, 0
1, 156000, Note_on_c, 0, 67, 47
1, 156000, Note_on_c, 0, 46, 42
1, 156160, Note_on_c, 0, 46, 0
1, 156160, Note_on_c, 0, 67, 0
1, 156160, Note_on_c, 0, 62, 37
1, 156160, Note_on_c, 0, 50, 33
1, 156320, Note_on_c, 0, 50, 0
1, 156320, Note_on_c, 0, 62, 0
1, 156320, Note_on_c, 0, 58, 32
1, 156320, Note_on_c, 0, 55, 27
1, 156480, Tempo, 555556
1, 156480, Note_on_c, 0, 55, 0
1, 156480, Note_on_c, 0, 58, 0
1, 156480, Note_on_c, 0, 66, 47
1, 156480, Note_on_c, 0, 45, 41
1, 156492, Control_c, 0, 64, 0
1, 156560, Control_c, 0, 64, 127
1, 156640, Note_on_c, 0, 45, 0
1, 156640, Note_on_c, 0, 66, 0
1, 156640, Note_on_c, 0, 62, 38
1, 156640, Note_on_c, 0, 50, 33
1, 156800, Tempo, 576923
1, 156800, Note_on_c, 0, 50, 0
1, 156800, Note_on_c, 0, 62, 0
1, 156800, Note_on_c, 0, 57, 33
1, 156800, Note_on_c, 0, 54, 27
1, 156960, Tempo, 540541
1, 156960, Note_on_c, 0, 54, 0
1, 156960, Note_on_c, 0, 57, 0
1, 156960, Note_on_c, 0, 43, 0
1, 156960, Note_on_c, 0, 69, 50
1, 156960, Note_on_c, 0, 48, 45
1, 156960, Note_on_c, 0, 43, 31
1, 156967, Control_c, 0, 64, 0
1, 157046, Control_c, 0, 64, 127
1, 157120, Note_on_c, 0, 48, 0
1, 157120, Note_on_c, 0, 69, 0
1, 157120, Note_on_c, 0, 62, 41
1, 157120, Note_on_c, 0, 50, 36
1, 157280, Note_on_c, 0, 50, 0
1, 157280, Note_on_c, 0, 62, 0
1, 157280, Note_on_c, 0, 60, 33
1, 157280, Note_on_c, 0, 57, 29
1, 157440, Note_on_c, 0, 57, 0
1, 157440, Note_on_c, 0, 60, 0
1, 157440, Note_on_c, 0, 69, 48
1, 157440, Note_on_c, 0, 48, 43
1, 157600, Note_on_c, 0, 48, 0
1, 157600, Note_on_c, 0, 69, 0
1, 157600, Note_on_c, 0, 62, 38
1, 157600, Note_on_c, 0, 50, 33
1, 157760, Note_on_c, 0, 50, 0
1, 157760, Note_on_c, 0, 62, 0
1, 157760, Note_on_c, 0, 60, 30
1, 157760, Note_on_c, 0, 57, 28
1, 157920, Note_on_c, 0, 57, 0
1, 157920, Note_on_c, 0, 60, 0
1, 157920, Note_on_c, 0, 67, 48
1, 157920, Note_on_c, 0, 46, 43
1, 157934, Control_c, 0, 64, 0
1, 158012, Control_c, 0, 64, 127
1, 158080, Note_on_c, 0, 46, 0
1, 158080, Note_on_c, 0, 67, 0
1, 158080, Note_on_c, 0, 62, 38
1, 158080, Note_on_c, 0, 50, 33
1, 158240, Note_on_c, 0, 50, 0
1, 158240, Note_on_c, 0, 62, 0
1, 158240, Note_on_c, 0, 58, 31
1, 158240, Note_on_c, 0, 55, 28
1, 158400, Note_on_c, 0, 55, 0
1, 158400, Note_on_c, 0, 58, 0
1, 158400, Note_on_c, 0, 43, 0
1, 158400, Note_on_c, 0, 67, 47
1, 158400, Note_on_c, 0, 46, 42
1, 158560, Tempo, 566038
1, 158560, Note_on_c, 0, 46, 0
1, 158560, Note_on_c, 0, 67, 0
1, 158560, Note_on_c, 0, 62, 38
1, 158560, Note_on_c, 0, 50, 33
1, 158720, Tempo, 582524
1, 158720, Note_on_c, 0, 50, 0
1, 158720, Note_on_c, 0, 62, 0
1, 158720, Note_on_c, 0, 58, 31
1, 158720, Note_on_c, 0, 55, 28
1, 158880, Tempo, 594943
1, 158880, Note_on_c, 0, 55, 0
1, 158880, Note_on_c, 0, 58, 0
1, 158880, Note_on_c, 0, 62, 45
1, 158880, Note_on_c, 0, 66, 45
1, 158880, Note_on_c, 0, 69, 53
1, 158880, Note_on_c, 0, 50, 39
1, 158880, Note_on_c, 0, 54, 39
1, 158880, Note_on_c, 0, 57, 46
1, 158891, Control_c, 0, 64, 0
1, 158937, Control_c, 0, 64, 127
1, 159120, Tempo, 645023
1, 159120, Note_on_c, 0, 57, 0
1, 159120, Note_on_c, 0, 66, 0
1, 159120, Note_on_c, 0, 69, 0
1, 159120, Note_on_c, 0, 62, 0
1, 159120, Note_on_c, 0, 54, 0
1, 159120, Note_on_c, 0, 50, 0
1, 159120, Note_on_c, 0, 62, 46
1, 159120, Note_on_c, 0, 67, 46
1, 159120, Note_on_c, 0, 70, 55
1, 159120, Note_on_c, 0, 50, 41
1, 159120, Note_on_c, 0, 55, 41
1, 159120, Note_on_c, 0, 58, 49
1, 159360, Tempo, 600781
1, 159360, Note_on_c, 0, 58, 0
1, 159360, Note_on_c, 0, 67, 0
1, 159360, Note_on_c, 0, 70, 0
1, 159360, Note_on_c, 0, 62, 0
1, 159360, Note_on_c, 0, 55, 0
1, 159360, Note_on_c, 0, 50, 0
1, 159360, Note_on_c, 0, 62, 50
1, 159360, Note_on_c, 0, 69, 59
1, 159360, Note_on_c, 0, 72, 59
1, 159360, Note_on_c, 0, 50, 44
1, 159360, Note_on_c, 0, 57, 44
1, 159360, Note_on_c, 0, 60, 52
1, 159365, Control_c, 0, 64, 0
1, 159440, Control_c, 0, 64, 127
1, 159720, Note_on_c, 0, 60, 0
1, 159720, Note_on_c, 0, 69, 0
1, 159720, Note_on_c, 0, 72, 0
1, 159720, Note_on_c, 0, 62, 0
1, 159720, Note_on_c, 0, 57, 0
1, 159720, Note_on_c, 0, 50, 0
1, 159720, Note_on_c, 0, 62, 45
1, 159720, Note_on_c, 0, 67, 45
1, 159720, Note_on_c, 0, 70, 54
1, 159720, Note_on_c, 0, 50, 39
1, 159720, Note_on_c, 0, 55, 39
1, 159720, Note_on_c, 0, 58, 47
1, 159840, Note_on_c, 0, 58, 0
1, 159840, Note_on_c, 0, 67, 0
1, 159840, Note_on_c, 0, 70, 0
1, 159840, Note_on_c, 0, 62, 0
1, 159840, Note_on_c, 0, 55, 0
1, 159840, Note_on_c, 0, 50, 0
1, 159840, Note_on_c, 0, 62, 45
1, 159840, Note_on_c, 0, 67, 45
1, 159840, Note_on_c, 0, 70, 53
1, 159840, Note_on_c, 0, 50, 38
1, 159840, Note_on_c, 0, 55, 38
1, 159840, Note_on_c, 0, 58, 45
1, 159846, Control_c, 0, 64, 0
1, 159954, Control_c, 0, 64, 127
1, 160080, Tempo, 651890
1, 160320, Tempo, 666075
1, 160320, Note_on_c, 0, 58, 0
1, 160320, Note_on_c, 0, 67, 0
1, 160320, Note_on_c, 0, 70, 0
1, 160320, Note_on_c, 0, 62, 0
1, 160320, Note_on_c, 0, 55, 0
1, 160320, Note_on_c, 0, 50, 0
1, 160320, Note_on_c, 0, 62, 31
1, 160320, Note_on_c, 0, 66, 31
1, 160320, Note_on_c, 0, 69, 37
1, 160320, Note_on_c, 0, 50, 27
1, 160320, Note_on_c, 0, 54, 27
1, 160320, Note_on_c, 0, 57, 32
1, 160326, Control_c, 0, 64, 0
1, 160447, Control_c, 0, 64, 127
1, 160560, Tempo, 638298
1, 160560, Note_on_c, 0, 57, 0
1, 160560, Note_on_c, 0, 66, 0
1, 160560, Note_on_c, 0, 69, 0
1, 160560, Note_on_c, 0, 62, 0
1, 160560, Note_on_c, 0, 54, 0
1, 160560, Note_on_c, 0, 50, 0
1, 160560, Note_on_c, 0, 62, 29
1, 160560, Note_on_c, 0, 64, 29
1, 160560, Note_on_c, 0, 67, 35
1, 160560, Note_on_c, 0, 50, 26
1, 160560, Note_on_c, 0, 52, 26
1, 160560, Note_on_c, 0, 55, 26
1, 160800, Note_on_c, 0, 55, 0
1, 160800, Note_on_c, 0, 64, 0
1, 160800, Note_on_c, 0, 67, 0
1, 160800, Note_on_c, 0, 62, 0
1, 160800, Note_on_c, 0, 52, 0
1, 160800, Note_on_c, 0, 50, 0
1, 160800, Note_on_c, 0, 62, 31
1, 160800, Note_on_c, 0, 66, 31
1, 160800, Note_on_c, 0, 69, 37
1, 160800, Note_on_c, 0, 50, 28
1, 160800, Note_on_c, 0, 54, 28
1, 160800, Note_on_c, 0, 57, 33
1, 160809, Control_c, 0, 64, 0
1, 160939, Control_c, 0, 64, 127
1, 161280, Tempo, 540541
1, 161280, Note_on_c, 0, 57, 0
1, 161280, Note_on_c, 0, 66, 0
1, 161280, Note_on_c, 0, 69, 0
1, 161280, Note_on_c, 0, 62, 0
1, 161280, Note_on_c, 0, 54, 0
1, 161280, Note_on_c, 0, 50, 0
1, 161280, Note_on_c, 0, 74, 53
1, 161280, Note_on_c, 0, 67, 50
1, 161280, Control_c, 0, 64, 0
1, 161280, Note_on_c, 0, 47, 45
1, 161280, Note_on_c, 0, 43, 31
1, 161386, Control_c, 0, 64, 127
1, 161440, Note_on_c, 0, 47, 0
1, 161440, Note_on_c, 0, 67, 0
1, 161440, Note_on_c, 0, 62, 40
1, 161440, Note_on_c, 0, 50, 36
1, 161600, Note_on_c, 0, 50, 0
1, 161600, Note_on_c, 0, 62, 0
1, 161600, Note_on_c, 0, 71, 34
1, 161600, Note_on_c, 0, 55, 31
1, 161760, Note_on_c, 0, 55, 0
1, 161760, Note_on_c, 0, 71, 0
1, 161760, Note_on_c, 0, 67, 47
1, 161760, Note_on_c, 0, 47, 42
1, 161920, Note_on_c, 0, 47, 0
1, 161920, Note_on_c, 0, 67, 0
1, 161920, Note_on_c, 0, 62, 37
1, 161920, Note_on_c, 0, 50, 33
1, 162080, Note_on_c, 0, 50, 0
1, 162080, Note_on_c, 0, 62, 0
1, 162080, Note_on_c, 0, 71, 32
1, 162080, Note_on_c, 0, 55, 27
1, 162240, Tempo, 555556
1, 162240, Note_on_c, 0, 55, 0
1, 162240, Note_on_c, 0, 71, 0
1, 162240, Note_on_c, 0, 66, 47
1, 162240, Note_on_c, 0, 45, 41
1, 162255, Control_c, 0, 64, 0
1, 162353, Control_c, 0, 64, 127
1, 162400, Note_on_c, 0, 45, 0
1, 162400, Note_on_c, 0, 66, 0
1, 162400, Note_on_c, 0, 62, 38
1, 162400, Note_on_c, 0, 50, 33
1, 162560, Tempo, 576923
1, 162560, Note_on_c, 0, 50, 0
1, 162560, Note_on_c, 0, 62, 0
1, 162560, Note_on_c, 0, 69, 33
1, 162560, Note_on_c, 0, 54, 27
1, 162720, Tempo, 540541
1, 162720, Note_on_c, 0, 54, 0
1, 162720, Note_on_c, 0, 43, 0
1, 162720, Note_on_c, 0, 74, 0
1, 162720, Note_on_c, 0, 69, 0
1, 162720, Note_on_c, 0, 74, 53
1, 162720, Note_on_c, 0, 69, 50
1, 162720, Note_on_c, 0, 48, 45
1, 162720, Note_on_c, 0, 43, 31
1, 162725, Control_c, 0, 64, 0
1, 162840, Control_c, 0, 64, 127
1, 162880, Note_on_c, 0, 48, 0
1, 162880, Note_on_c, 0, 69, 0
1, 162880, Note_on_c, 0, 62, 41
1, 162880, Note_on_c, 0, 50, 36
1, 163040, Note_on_c, 0, 50, 0
1, 163040, Note_on_c, 0, 62, 0
1, 163040, Note_on_c, 0, 72, 33
1, 163040, Note_on_c, 0, 57, 29
1, 163200, Note_on_c, 0, 57, 0
1, 163200, Note_on_c, 0, 72, 0
1, 163200, Note_on_c, 0, 69, 48
1, 163200, Note_on_c, 0, 48, 43
1, 163360, Note_on_c, 0, 48, 0
1, 163360, Note_on_c, 0, 69, 0
1, 163360, Note_on_c, 0, 62, 38
1, 163360, Note_on_c, 0, 50, 33
1, 163520, Note_on_c, 0, 50, 0
1, 163520, Note_on_c, 0, 62, 0
1, 163520, Note_on_c, 0, 72, 30
1, 163520, Note_on_c, 0, 57, 28
1, 163680, Tempo, 555556
1, 163680, Note_on_c, 0, 57, 0
1, 163680, Note_on_c, 0, 72, 0
1, 163680, Note_on_c, 0, 67, 48
1, 163680, Note_on_c, 0, 47, 43
1, 163692, Control_c, 0, 64, 0
1, 163786, Control_c, 0, 64, 127
1, 163840, Note_on_c, 0, 47, 0
1, 163840, Note_on_c, 0, 67, 0
1, 163840, Note_on_c, 0, 62, 38
1, 163840, Note_on_c, 0, 50, 33
1, 164000, Tempo, 594059
1, 164000, Note_on_c, 0, 50, 0
1, 164000, Note_on_c, 0, 62, 0
1, 164000, Note_on_c, 0, 71, 31
1, 164000, Note_on_c, 0, 55, 28
1, 164160, Tempo, 576923
1, 164160, Note_on_c, 0, 55, 0
1, 164160, Note_on_c, 0, 43, 0
1, 164160, Note_on_c, 0, 74, 0
1, 164160, Note_on_c, 0, 71, 0
1, 164160, Note_on_c, 0, 62, 70
1, 164160, Note_on_c, 0, 50, 46
1, 164160, Note_on_c, 0, 47, 39
1, 164160, Note_on_c, 0, 43, 39
1, 164167, Control_c, 0, 64, 0
1, 164245, Control_c, 0, 64, 127
1, 164400, Tempo, 631579
1, 164400, Note_on_c, 0, 62, 0
1, 164400, Note_on_c, 0, 74, 68
1, 164640, Tempo, 594943
1, 164640, Note_on_c, 0, 74, 0
1, 164640, Note_on_c, 0, 43, 0
1, 164640, Note_on_c, 0, 47, 0
1, 164640, Note_on_c, 0, 50, 0
1, 164640, Note_on_c, 0, 64, 56
1, 164640, Note_on_c, 0, 76, 66
1, 164640, Note_on_c, 0, 43, 46
1, 164640, Note_on_c, 0, 48, 46
1, 164640, Note_on_c, 0, 52, 55
1, 164649, Control_c, 0, 64, 0
1, 164739, Control_c, 0, 64, 127
1, 164880, Tempo, 666667
1, 164880, Note_on_c, 0, 52, 0
1, 164880, Note_on_c, 0, 43, 0
1, 164880, Note_on_c, 0, 64, 0
1, 164880, Note_on_c, 0, 76, 0
1, 164880, Note_on_c, 0, 48, 0
1, 164880, Note_on_c, 0, 66, 62
1, 164880, Note_on_c, 0, 78, 73
1, 164880, Note_on_c, 0, 43, 49
1, 164880, Note_on_c, 0, 45, 49
1, 164880, Note_on_c, 0, 54, 58
1, 165120, Tempo, 618557
1, 165120, Note_on_c, 0, 54, 0
1, 165120, Note_on_c, 0, 43, 0
1, 165120, Note_on_c, 0, 66, 0
1, 165120, Note_on_c, 0, 78, 0
1, 165120, Note_on_c, 0, 45, 0
1, 165120, Note_on_c, 0, 67, 69
1, 165120, Note_on_c, 0, 79, 82
1, 165120, Note_on_c, 0, 43, 57
1, 165120, Note_on_c, 0, 55, 68
1, 165120, Note_on_c, 0, 47, 57
1, 165127, Control_c, 0, 64, 0
1, 165226, Control_c, 0, 64, 127
1, 165480, Note_on_c, 0, 47, 0
1, 165480, Note_on_c, 0, 43, 0
1, 165480, Note_on_c, 0, 67, 0
1, 165480, Note_on_c, 0, 79, 0
1, 165480, Note_on_c, 0, 55, 0
1, 165480, Note_on_c, 0, 62, 46
1, 165480, Note_on_c, 0, 67, 46
1, 165480, Note_on_c, 0, 71, 55
1, 165480, Note_on_c, 0, 50, 41
1, 165480, Note_on_c, 0, 55, 41
1, 165480, Note_on_c, 0, 59, 49
1, 165600, Note_on_c, 0, 59, 0
1, 165600, Note_on_c, 0, 67, 0
1, 165600, Note_on_c, 0, 71, 0
1, 165600, Note_on_c, 0, 62, 0
1, 165600, Note_on_c, 0, 55, 0
1, 165600, Note_on_c, 0, 50, 0
1, 165600, Note_on_c, 0, 71, 61
1, 165600, Note_on_c, 0, 74, 61
1, 165600, Note_on_c, 0, 50, 45
1, 165600, Note_on_c, 0, 62, 54
1, 165600, Note_on_c, 0, 59, 45
1, 165606, Control_c, 0, 64, 0
1, 165671, Control_c, 0, 64, 127
1, 165840, Tempo, 651890
1, 166080, Tempo, 666075
1, 166080, Note_on_c, 0, 59, 0
1, 166080, Note_on_c, 0, 50, 0
1, 166080, Note_on_c, 0, 71, 0
1, 166080, Note_on_c, 0, 74, 0
1, 166080, Note_on_c, 0, 62, 0
1, 166080, Note_on_c, 0, 62, 42
1, 166080, Note_on_c, 0, 66, 42
1, 166080, Note_on_c, 0, 72, 50
1, 166080, Note_on_c, 0, 50, 39
1, 166080, Note_on_c, 0, 57, 39
1, 166080, Note_on_c, 0, 60, 46
1, 166089, Control_c, 0, 64, 0
1, 166179, Control_c, 0, 64, 127
1, 166320, Tempo, 638298
1, 166440, Note_on_c, 0, 60, 0
1, 166440, Note_on_c, 0, 66, 0
1, 166440, Note_on_c, 0, 72, 0
1, 166440, Note_on_c, 0, 62, 0
1, 166440, Note_on_c, 0, 57, 0
1, 166440, Note_on_c, 0, 50, 0
1, 166440, Note_on_c, 0, 62, 37
1, 166440, Note_on_c, 0, 67, 37
1, 166440, Note_on_c, 0, 71, 44
1, 166440, Note_on_c, 0, 55, 31
1, 166440, Note_on_c, 0, 59, 37
1, 166560, Note_on_c, 0, 59, 0
1, 166560, Note_on_c, 0, 71, 0
1, 166560, Note_on_c, 0, 62, 0
1, 166560, Note_on_c, 0, 67, 0
1, 166560, Note_on_c, 0, 55, 0
1, 166560, Note_on_c, 0, 62, 34
1, 166560, Note_on_c, 0, 67, 34
1, 166560, Note_on_c, 0, 71, 41
1, 166560, Note_on_c, 0, 55, 28
1, 166560, Note_on_c, 0, 59, 34
1, 166571, Control_c, 0, 64, 0
1, 166631, Control_c, 0, 64, 127
1, 167040, Tempo, 581283
1, 167040, Marker_t, "Teil 5"
1, 167040, Note_on_c, 0, 59, 0
1, 167040, Note_on_c, 0, 71, 0
1, 167040, Note_on_c, 0, 62, 0
1, 167040, Note_on_c, 0, 67, 0
1, 167040, Note_on_c, 0, 55, 0
1, 167040, Note_on_c, 0, 64, 40
1, 167040, Note_on_c, 0, 67, 40
1, 167040, Note_on_c, 0, 72, 40
1, 167040, Control_c, 0, 64, 0
1, 167040, Note_on_c, 0, 43, 30
1, 167116, Control_c, 0, 64, 127
1, 167200, Note_on_c, 0, 43, 0
1, 167200, Note_on_c, 0, 55, 26
1, 167360, Note_on_c, 0, 55, 0
1, 167360, Note_on_c, 0, 43, 27
1, 167520, Note_on_c, 0, 43, 0
1, 167520, Note_on_c, 0, 64, 0
1, 167520, Note_on_c, 0, 67, 0
1, 167520, Note_on_c, 0, 72, 0
1, 167520, Note_on_c, 0, 62, 38
1, 167520, Note_on_c, 0, 67, 38
1, 167520, Note_on_c, 0, 71, 38
1, 167520, Note_on_c, 0, 55, 30
1, 167524, Control_c, 0, 64, 0
1, 167621, Control_c, 0, 64, 127
1, 167680, Note_on_c, 0, 55, 0
1, 167680, Note_on_c, 0, 43, 26
1, 167840, Note_on_c, 0, 43, 0
1, 167840, Note_on_c, 0, 55, 26
1, 167880, Note_on_c, 0, 71, 0
1, 167880, Note_on_c, 0, 62, 0
1, 167880, Note_on_c, 0, 67, 0
1, 167880, Note_on_c, 0, 60, 36
1, 167880, Note_on_c, 0, 67, 36
1, 167880, Note_on_c, 0, 69, 36
1, 168000, Note_on_c, 0, 69, 0
1, 168000, Note_on_c, 0, 55, 0
1, 168000, Note_on_c, 0, 60, 0
1, 168000, Note_on_c, 0, 67, 0
1, 168000, Note_on_c, 0, 60, 38
1, 168000, Note_on_c, 0, 67, 38
1, 168000, Note_on_c, 0, 69, 38
1, 168000, Note_on_c, 0, 43, 30
1, 168012, Control_c, 0, 64, 0
1, 168108, Control_c, 0, 64, 127
1, 168160, Note_on_c, 0, 43, 0
1, 168160, Note_on_c, 0, 55, 26
1, 168320, Note_on_c, 0, 55, 0
1, 168320, Note_on_c, 0, 43, 26
1, 168477, Note_on_c, 0, 43, 0
1, 168480, Tempo, 581283
1, 168480, Note_on_c, 0, 60, 0
1, 168480, Note_on_c, 0, 67, 0
1, 168480, Note_on_c, 0, 69, 0
1, 168480, Note_on_c, 0, 62, 40
1, 168480, Note_on_c, 0, 71, 40
1, 168480, Note_on_c, 0, 43, 30
1, 168484, Control_c, 0, 64, 0
1, 168572, Control_c, 0, 64, 127
1, 168640, Note_on_c, 0, 43, 0
1, 168640, Note_on_c, 0, 55, 26
1, 168800, Note_on_c, 0, 55, 0
1, 168800, Note_on_c, 0, 43, 27
1, 168960, Note_on_c, 0, 43, 0
1, 168960, Note_on_c, 0, 71, 0
1, 168960, Note_on_c, 0, 62, 0
1, 168960, Note_on_c, 0, 60, 38
1, 168960, Note_on_c, 0, 62, 38
1, 168960, Note_on_c, 0, 69, 38
1, 168960, Note_on_c, 0, 55, 30
1, 168972, Control_c, 0, 64, 0
1, 169066, Control_c, 0, 64, 127
1, 169120, Note_on_c, 0, 55, 0
1, 169120, Note_on_c, 0, 43, 26
1, 169280, Note_on_c, 0, 43, 0
1, 169280, Note_on_c, 0, 55, 26
1, 169320, Note_on_c, 0, 69, 0
1, 169320, Note_on_c, 0, 60, 0
1, 169320, Note_on_c, 0, 62, 0
1, 169320, Note_on_c, 0, 59, 36
1, 169320, Note_on_c, 0, 62, 36
1, 169320, Note_on_c, 0, 67, 36
1, 169440, Note_on_c, 0, 67, 0
1, 169440, Note_on_c, 0, 55, 0
1, 169440, Note_on_c, 0, 59, 0
1, 169440, Note_on_c, 0, 62, 0
1, 169440, Note_on_c, 0, 59, 38
1, 169440, Note_on_c, 0, 62, 38
1, 169440, Note_on_c, 0, 67, 38
1, 169440, Note_on_c, 0, 43, 30
1, 169447, Control_c, 0, 64, 0
1, 169539, Control_c, 0, 64, 127
1, 169600, Note_on_c, 0, 43, 0
1, 169600, Note_on_c, 0, 55, 26
1, 169680, Tempo, 612245
1, 169760, Note_on_c, 0, 55, 0
1, 169760, Note_on_c, 0, 43, 26
1, 169920, Tempo, 581283
1, 169920, Note_on_c, 0, 43, 0
1, 169920, Note_on_c, 0, 59, 0
1, 169920, Note_on_c, 0, 62, 0
1, 169920, Note_on_c, 0, 67, 0
1, 169920, Note_on_c, 0, 60, 40
1, 169920, Note_on_c, 0, 62, 40
1, 169920, Note_on_c, 0, 69, 40
1, 169920, Note_on_c, 0, 31, 30
1, 169924, Control_c, 0, 64, 0
1, 170019, Control_c, 0, 64, 127
1, 170080, Note_on_c, 0, 31, 0
1, 170080, Note_on_c, 0, 43, 26
1, 170240, Note_on_c, 0, 43, 0
1, 170240, Note_on_c, 0, 31, 27
1, 170400, Note_on_c, 0, 31, 0
1, 170400, Note_on_c, 0, 60, 0
1, 170400, Note_on_c, 0, 62, 0
1, 170400, Note_on_c, 0, 69, 0
1, 170400, Note_on_c, 0, 59, 38
1, 170400, Note_on_c, 0, 62, 38
1, 170400, Note_on_c, 0, 67, 38
1, 170400, Note_on_c, 0, 43, 30
1, 170417, Control_c, 0, 64, 0
1, 170492, Control_c, 0, 64, 127
1, 170560, Note_on_c, 0, 43, 0
1, 170560, Note_on_c, 0, 31, 26
1, 170720, Note_on_c, 0, 31, 0
1, 170720, Note_on_c, 0, 43, 26
1, 170760, Note_on_c, 0, 67, 0
1, 170760, Note_on_c, 0, 59, 0
1, 170760, Note_on_c, 0, 62, 0
1, 170760, Note_on_c, 0, 57, 36
1, 170760, Note_on_c, 0, 60, 36
1, 170760, Note_on_c, 0, 66, 36
1, 170880, Note_on_c, 0, 66, 0
1, 170880, Note_on_c, 0, 43, 0
1, 170880, Note_on_c, 0, 57, 0
1, 170880, Note_on_c, 0, 60, 0
1, 170880, Note_on_c, 0, 57, 38
1, 170880, Note_on_c, 0, 60, 38
1, 170880, Note_on_c, 0, 66, 38
1, 170880, Note_on_c, 0, 31, 30
1, 170894, Control_c, 0, 64, 0
1, 170972, Control_c, 0, 64, 127
1, 171040, Note_on_c, 0, 31, 0
1, 171040, Note_on_c, 0, 43, 26
1, 171200, Note_on_c, 0, 43, 0
1, 171200, Note_on_c, 0, 31, 26
1, 171357, Note_on_c, 0, 31, 0
1, 171360, Tempo, 581283
1, 171360, Note_on_c, 0, 57, 0
1, 171360, Note_on_c, 0, 60, 0
1, 171360, Note_on_c, 0, 66, 0
1, 171360, Note_on_c, 0, 59, 40
1, 171360, Note_on_c, 0, 67, 40
1, 171360, Note_on_c, 0, 31, 30
1, 171364, Control_c, 0, 64, 0
1, 171480, Control_c, 0, 64, 127
1, 171520, Note_on_c, 0, 31, 0
1, 171520, Note_on_c, 0, 43, 26
1, 171680, Note_on_c, 0, 43, 0
1, 171680, Note_on_c, 0, 31, 27
1, 171840, Note_on_c, 0, 31, 0
1, 171840, Note_on_c, 0, 67, 0
1, 171840, Note_on_c, 0, 59, 0
1, 171840, Note_on_c, 0, 57, 38
1, 171840, Note_on_c, 0, 62, 38
1, 171840, Note_on_c, 0, 43, 30
1, 171852, Control_c, 0, 64, 0
1, 171925, Control_c, 0, 64, 127
1, 172000, Note_on_c, 0, 43, 0
1, 172000, Note_on_c, 0, 31, 26
1, 172160, Note_on_c, 0, 31, 0
1, 172160, Note_on_c, 0, 43, 26
1, 172200, Note_on_c, 0, 62, 0
1, 172200, Note_on_c, 0, 57, 0
1, 172200, Note_on_c, 0, 55, 36
1, 172200, Note_on_c, 0, 59, 36
1, 172320, Note_on_c, 0, 59, 0
1, 172320, Note_on_c, 0, 55, 0
1, 172320, Note_on_c, 0, 43, 0
1, 172320, Note_on_c, 0, 55, 38
1, 172320, Note_on_c, 0, 59, 38
1, 172320, Note_on_c, 0, 31, 30
1, 172327, Control_c, 0, 64, 0
1, 172433, Control_c, 0, 64, 127
1, 172480, Note_on_c, 0, 31, 0
1, 172480, Note_on_c, 0, 43, 26
1, 172560, Tempo, 606061
1, 172640, Note_on_c, 0, 43, 0
1, 172640, Note_on_c, 0, 31, 26
1, 172797, Note_on_c, 0, 31, 0
1, 172800, Tempo, 600000
1, 172800, Note_on_c, 0, 59, 0
1, 172800, Note_on_c, 0, 55, 0
1, 172800, Note_on_c, 0, 55, 38
1, 172800, Note_on_c, 0, 62, 38
1, 172800, Note_on_c, 0, 65, 38
1, 172800, Note_on_c, 0, 31, 28
1, 172803, Control_c, 0, 64, 0
1, 172885, Control_c, 0, 64, 127
1, 172960, Note_on_c, 0, 31, 0
1, 172960, Note_on_c, 0, 43, 24
1, 173120, Note_on_c, 0, 43, 0
1, 173120, Note_on_c, 0, 31, 25
1, 173280, Note_on_c, 0, 31, 0
1, 173280, Note_on_c, 0, 55, 0
1, 173280, Note_on_c, 0, 62, 0
1, 173280, Note_on_c, 0, 65, 0
1, 173280, Note_on_c, 0, 55, 36
1, 173280, Note_on_c, 0, 60, 36
1, 173280, Note_on_c, 0, 64, 36
1, 173280, Note_on_c, 0, 43, 28
1, 173288, Control_c, 0, 64, 0
1, 173372, Control_c, 0, 64, 127
1, 173440, Note_on_c, 0, 43, 0
1, 173440, Note_on_c, 0, 31, 24
1, 173600, Note_on_c, 0, 31, 0
1, 173600, Note_on_c, 0, 43, 24
1, 173640, Note_on_c, 0, 64, 0
1, 173640, Note_on_c, 0, 55, 0
1, 173640, Note_on_c, 0, 60, 0
1, 173640, Note_on_c, 0, 55, 34
1, 173640, Note_on_c, 0, 59, 34
1, 173640, Note_on_c, 0, 62, 34
1, 173760, Note_on_c, 0, 62, 0
1, 173760, Note_on_c, 0, 43, 0
1, 173760, Note_on_c, 0, 55, 0
1, 173760, Note_on_c, 0, 59, 0
1, 173760, Note_on_c, 0, 55, 36
1, 173760, Note_on_c, 0, 59, 36
1, 173760, Note_on_c, 0, 62, 36
1, 173760, Note_on_c, 0, 31, 28
1, 173773, Control_c, 0, 64, 0
1, 173866, Control_c, 0, 64, 127
1, 173920, Note_on_c, 0, 31, 0
1, 173920, Note_on_c, 0, 43, 24
1, 174080, Note_on_c, 0, 43, 0
1, 174080, Note_on_c, 0, 31, 24
1, 174237, Note_on_c, 0, 31, 0
1, 174240, Tempo, 594059
1, 174240, Note_on_c, 0, 55, 0
1, 174240, Note_on_c, 0, 59, 0
1, 174240, Note_on_c, 0, 62, 0
1, 174240, Note_on_c, 0, 59, 38
1, 174240, Note_on_c, 0, 69, 38
1, 174240, Note_on_c, 0, 65, 38
1, 174240, Note_on_c, 0, 31, 28
1, 174244, Control_c, 0, 64, 0
1, 174325, Control_c, 0, 64, 127
1, 174400, Note_on_c, 0, 31, 0
1, 174400, Note_on_c, 0, 43, 24
1, 174560, Note_on_c, 0, 43, 0
1, 174560, Note_on_c, 0, 31, 24
1, 174680, Tempo, 582524
1, 174720, Note_on_c, 0, 31, 0
1, 174720, Note_on_c, 0, 59, 0
1, 174720, Note_on_c, 0, 69, 0
1, 174720, Note_on_c, 0, 65, 0
1, 174720, Note_on_c, 0, 59, 34
1, 174720, Note_on_c, 0, 67, 34
1, 174720, Note_on_c, 0, 64, 34
1, 174720, Note_on_c, 0, 43, 27
1, 174734, Control_c, 0, 64, 0
1, 174833, Control_c, 0, 64, 127
1, 174880, Note_on_c, 0, 43, 0
1, 174880, Note_on_c, 0, 31, 23
1, 175040, Note_on_c, 0, 31, 0
1, 175040, Note_on_c, 0, 43, 22
1, 175080, Note_on_c, 0, 64, 0
1, 175080, Note_on_c, 0, 59, 0
1, 175080, Note_on_c, 0, 67, 0
1, 175080, Note_on_c, 0, 62, 31
1, 175080, Note_on_c, 0, 59, 31
1, 175080, Note_on_c, 0, 65, 31
1, 175200, Note_on_c, 0, 65, 0
1, 175200, Note_on_c, 0, 43, 0
1, 175200, Note_on_c, 0, 62, 0
1, 175200, Note_on_c, 0, 59, 0
1, 175200, Note_on_c, 0, 65, 32
1, 175200, Note_on_c, 0, 59, 32
1, 175200, Note_on_c, 0, 62, 32
1, 175200, Note_on_c, 0, 31, 25
1, 175207, Control_c, 0, 64, 0
1, 175299, Control_c, 0, 64, 127
1, 175360, Note_on_c, 0, 31, 0
1, 175360, Note_on_c, 0, 43, 21
1, 175440, Tempo, 612245
1, 175520, Note_on_c, 0, 43, 0
1, 175520, Note_on_c, 0, 31, 21
1, 175677, Note_on_c, 0, 31, 0
1, 175680, Tempo, 652174
1, 175680, Note_on_c, 0, 65, 0
1, 175680, Note_on_c, 0, 59, 0
1, 175680, Note_on_c, 0, 62, 0
1, 175680, Note_on_c, 0, 69, 36
1, 175680, Note_on_c, 0, 59, 36
1, 175680, Note_on_c, 0, 65, 36
1, 175680, Note_on_c, 0, 31, 27
1, 175683, Control_c, 0, 64, 0
1, 175772, Control_c, 0, 64, 127
1, 175840, Note_on_c, 0, 31, 0
1, 175840, Note_on_c, 0, 43, 23
1, 175920, Tempo, 638298
1, 176000, Note_on_c, 0, 43, 0
1, 176000, Note_on_c, 0, 31, 24
1, 176040, Tempo, 645161
1, 176120, Tempo, 652174
1, 176160, Note_on_c, 0, 31, 0
1, 176160, Note_on_c, 0, 43, 27
1, 176240, Tempo, 659341
1, 176320, Tempo, 666667
1, 176320, Note_on_c, 0, 43, 0
1, 176320, Note_on_c, 0, 31, 23
1, 176400, Note_on_c, 0, 69, 0
1, 176400, Note_on_c, 0, 68, 36
1, 176440, Tempo, 674157
1, 176480, Note_on_c, 0, 31, 0
1, 176480, Note_on_c, 0, 43, 23
1, 176520, Tempo, 681818
1, 176640, Tempo, 759494
1, 176640, Note_on_c, 0, 43, 0
1, 176640, Note_on_c, 0, 68, 0
1, 176640, Note_on_c, 0, 67, 36
1, 176640, Note_on_c, 0, 31, 27
1, 176654, Control_c, 0, 64, 0
1, 176753, Control_c, 0, 64, 127
1, 176800, Note_on_c, 0, 31, 0
1, 176800, Note_on_c, 0, 43, 23
1, 176880, Tempo, 833333
1, 176880, Note_on_c, 0, 67, 0
1, 176880, Note_on_c, 0, 69, 36
1, 176960, Note_on_c, 0, 43, 0
1, 176960, Note_on_c, 0, 31, 23
1, 177120, Tempo, 882353
1, 177120, Note_on_c, 0, 31, 0
1, 177120, Note_on_c, 0, 69, 0
1, 177120, Note_on_c, 0, 65, 0
1, 177120, Note_on_c, 0, 59, 0
1, 177120, Note_on_c, 0, 69, 36
1, 177120, Note_on_c, 0, 59, 36
1, 177120, Note_on_c, 0, 65, 36
1, 177120, Control_c, 0, 64, 0
1, 177120, Note_on_c, 0, 43, 23
1, 177120, Note_on_c, 0, 50, 23
1, 177520, Control_c, 0, 64, 127
1, 177600, Tempo, 833333
1, 177600, Note_on_c, 0, 69, 0
1, 177600, Note_on_c, 0, 67, 36
1, 178560, Key_signature, 0, "major"
1, 178560, Tempo, 542201
1, 178560, Marker_t, "Teil 1"
1, 178560, Note_on_c, 0, 67, 0
1, 178560, Note_on_c, 0, 50, 0
1, 178560, Note_on_c, 0, 59, 0
1, 178560, Note_on_c, 0, 65, 0
1, 178560, Note_on_c, 0, 43, 0
1, 178560, Control_c, 0, 91, 127
1, 178560, Control_c, 0, 64, 0
1, 178560, Control_c, 0, 91, 127
1, 178561, Note_on_c, 0, 67, 60
1, 178561, Note_on_c, 0, 55, 54
1, 178638, Control_c, 0, 64, 127
1, 178980, Note_on_c, 0, 69, 50
1, 178980, Note_on_c, 0, 57, 44
1, 178981, Note_on_c, 0, 55, 0
1, 178981, Note_on_c, 0, 67, 0
1, 179040, Tempo, 526316
1, 179040, Note_on_c, 0, 69, 0
1, 179040, Note_on_c, 0, 57, 0
1, 179040, Note_on_c, 0, 67, 60
1, 179040, Note_on_c, 0, 55, 54
1, 179049, Control_c, 0, 64, 0
1, 179072, Control_c, 0, 64, 127
1, 179200, Tempo, 508475
1, 179200, Note_on_c, 0, 55, 0
1, 179200, Note_on_c, 0, 67, 0
1, 179200, Note_on_c, 0, 64, 57
1, 179200, Note_on_c, 0, 52, 50
1, 179360, Note_on_c, 0, 52, 0
1, 179360, Note_on_c, 0, 64, 0
1, 179360, Note_on_c, 0, 60, 53
1, 179360, Note_on_c, 0, 48, 47
1, 179520, Tempo, 557103
1, 179520, Note_on_c, 0, 48, 0
1, 179520, Note_on_c, 0, 60, 0
1, 179520, Note_on_c, 0, 67, 60
1, 179520, Note_on_c, 0, 55, 54
1, 179530, Control_c, 0, 64, 0
1, 179580, Control_c, 0, 64, 127
1, 179840, Tempo, 639250
1, 179880, Note_on_c, 0, 55, 0
1, 179880, Note_on_c, 0, 67, 0
1, 179880, Note_on_c, 0, 76, 56
1, 179880, Note_on_c, 0, 64, 51
1, 180000, Tempo, 589565
1, 180000, Note_on_c, 0, 64, 0
1, 180000, Note_on_c, 0, 76, 0
1, 180000, Note_on_c, 0, 76, 60
1, 180000, Note_on_c, 0, 64, 54
1, 180006, Control_c, 0, 64, 0
1, 180254, Control_c, 0, 64, 127
1, 180960, Note_on_c, 0, 64, 0
1, 180960, Note_on_c, 0, 76, 0
1, 180960, Note_on_c, 0, 72, 44
1, 180960, Note_on_c, 0, 60, 40
1, 180974, Control_c, 0, 64, 0
1, 181200, Note_on_c, 0, 60, 0
1, 181200, Note_on_c, 0, 72, 0
1, 181440, Tempo, 542201
1, 181440, Note_on_c, 0, 67, 59
1, 181468, Control_c, 0, 64, 127
1, 181860, Note_on_c, 0, 67, 0
1, 181860, Note_on_c, 0, 65, 50
1, 181920, Note_on_c, 0, 65, 0
1, 181920, Note_on_c, 0, 64, 60
1, 181932, Control_c, 0, 64, 0
1, 181977, Control_c, 0, 64, 127
1, 182080, Note_on_c, 0, 64, 0
1, 182080, Note_on_c, 0, 60, 56
1, 182240, Note_on_c, 0, 60, 0
1, 182240, Note_on_c, 0, 55, 52
1, 182400, Tempo, 530973
1, 182400, Note_on_c, 0, 55, 0
1, 182400, Note_on_c, 0, 60, 60
1, 182413, Control_c, 0, 64, 0
1, 182471, Control_c, 0, 64, 127
1, 182560, Note_on_c, 0, 60, 0
1, 182560, Note_on_c, 0, 64, 57
1, 182720, Note_on_c, 0, 64, 0
1, 182720, Note_on_c, 0, 67, 54
1, 182880, Tempo, 576923
1, 182880, Note_on_c, 0, 67, 0
1, 182880, Note_on_c, 0, 55, 56
1, 182880, Note_on_c, 0, 64, 56
1, 182880, Note_on_c, 0, 67, 56
1, 182880, Control_c, 0, 64, 0
1, 182880, Note_on_c, 0, 43, 51
1, 183000, Note_on_c, 0, 43, 0
1, 183000, Note_on_c, 0, 55, 0
1, 183000, Note_on_c, 0, 64, 0
1, 183000, Note_on_c, 0, 67, 0
1, 183120, Tempo, 550459
1, 183120, Note_on_c, 0, 55, 53
1, 183120, Note_on_c, 0, 62, 53
1, 183120, Note_on_c, 0, 65, 53
1, 183120, Note_on_c, 0, 45, 46
1, 183240, Note_on_c, 0, 45, 0
1, 183240, Note_on_c, 0, 55, 0
1, 183240, Note_on_c, 0, 62, 0
1, 183240, Note_on_c, 0, 65, 0
1, 183240, Note_on_c, 0, 47, 46
1, 183360, Tempo, 571429
1, 183360, Note_on_c, 0, 47, 0
1, 183360, Note_on_c, 0, 55, 56
1, 183360, Note_on_c, 0, 60, 56
1, 183360, Note_on_c, 0, 64, 56
1, 183360, Note_on_c, 0, 48, 51
1, 183450, Note_on_c, 0, 48, 0
1, 183450, Note_on_c, 0, 55, 0
1, 183450, Note_on_c, 0, 60, 0
1, 183450, Note_on_c, 0, 64, 0
1, 183600, Tempo, 588235
1, 183600, Note_on_c, 0, 55, 50
1, 183600, Note_on_c, 0, 59, 50
1, 183600, Note_on_c, 0, 62, 50
1, 183600, Note_on_c, 0, 43, 45
1, 183690, Note_on_c, 0, 43, 0
1, 183690, Note_on_c, 0, 55, 0
1, 183690, Note_on_c, 0, 59, 0
1, 183690, Note_on_c, 0, 62, 0
1, 183840, Tempo, 572902
1, 183840, Note_on_c, 0, 55, 56
1, 183840, Note_on_c, 0, 60, 56
1, 183840, Note_on_c, 0, 64, 56
1, 183840, Note_on_c, 0, 48, 51
1, 183960, Note_on_c, 0, 48, 0
1, 183960, Note_on_c, 0, 55, 0
1, 183960, Note_on_c, 0, 60, 0
1, 183960, Note_on_c, 0, 64, 0
1, 184320, Tempo, 582524
1, 184320, Note_on_c, 0, 55, 41
1, 184320, Note_on_c, 0, 63, 41
1, 184320, Note_on_c, 0, 67, 41
1, 184320, Note_on_c, 0, 43, 36
1, 184440, Note_on_c, 0, 67, 0
1, 184440, Note_on_c, 0, 55, 0
1, 184440, Note_on_c, 0, 63, 0
1, 184560, Tempo, 560748
1, 184560, Note_on_c, 0, 43, 0
1, 184560, Note_on_c, 0, 55, 37
1, 184560, Note_on_c, 0, 62, 37
1, 184560, Note_on_c, 0, 65, 37
1, 184560, Note_on_c, 0, 45, 34
1, 184680, Note_on_c, 0, 45, 0
1, 184680, Note_on_c, 0, 55, 0
1, 184680, Note_on_c, 0, 62, 0
1, 184680, Note_on_c, 0, 65, 0
1, 184680, Note_on_c, 0, 47, 35
1, 184800, Tempo, 566038
1, 184800, Note_on_c, 0, 47, 0
1, 184800, Note_on_c, 0, 55, 41
1, 184800, Note_on_c, 0, 60, 41
1, 184800, Note_on_c, 0, 63, 41
1, 184800, Note_on_c, 0, 48, 36
1, 184890, Note_on_c, 0, 63, 0
1, 184890, Note_on_c, 0, 55, 0
1, 184890, Note_on_c, 0, 60, 0
1, 184920, Note_on_c, 0, 48, 0
1, 185040, Tempo, 571429
1, 185040, Note_on_c, 0, 55, 38
1, 185040, Note_on_c, 0, 59, 38
1, 185040, Note_on_c, 0, 62, 38
1, 185040, Note_on_c, 0, 43, 33
1, 185130, Note_on_c, 0, 43, 0
1, 185130, Note_on_c, 0, 55, 0
1, 185130, Note_on_c, 0, 59, 0
1, 185130, Note_on_c, 0, 62, 0
1, 185280, Tempo, 571429
1, 185280, Note_on_c, 0, 55, 41
1, 185280, Note_on_c, 0, 60, 41
1, 185280, Note_on_c, 0, 63, 41
1, 185280, Note_on_c, 0, 48, 36
1, 185370, Note_on_c, 0, 48, 0
1, 185370, Note_on_c, 0, 55, 0
1, 185370, Note_on_c, 0, 60, 0
1, 185370, Note_on_c, 0, 63, 0
1, 185520, Tempo, 550459
1, 185520, Note_on_c, 0, 58, 38
1, 185520, Note_on_c, 0, 62, 38
1, 185520, Note_on_c, 0, 65, 38
1, 185520, Note_on_c, 0, 46, 33
1, 185610, Note_on_c, 0, 46, 0
1, 185610, Note_on_c, 0, 58, 0
1, 185610, Note_on_c, 0, 62, 0
1, 185610, Note_on_c, 0, 65, 0
1, 185760, Tempo, 537394
1, 185760, Note_on_c, 0, 58, 50
1, 185760, Note_on_c, 0, 62, 50
1, 185760, Note_on_c, 0, 65, 50
1, 185760, Control_c, 0, 64, 127
1, 185760, Note_on_c, 0, 46, 46
1, 186000, Tempo, 555556
1, 186000, Note_on_c, 0, 46, 0
1, 186000, Note_on_c, 0, 58, 0
1, 186000, Note_on_c, 0, 62, 0
1, 186000, Note_on_c, 0, 65, 0
1, 186000, Note_on_c, 0, 58, 48
1, 186000, Note_on_c, 0, 63, 48
1, 186000, Note_on_c, 0, 67, 48
1, 186000, Note_on_c, 0, 51, 43
1, 186010, Control_c, 0, 64, 0
1, 186043, Control_c, 0, 64, 127
1, 186080, Control_c, 0, 64, 0
1, 186180, Note_on_c, 0, 51, 0
1, 186180, Note_on_c, 0, 58, 0
1, 186180, Note_on_c, 0, 63, 0
1, 186180, Note_on_c, 0, 67, 0
1, 186229, Control_c, 0, 64, 127
1, 186240, Tempo, 552029
1, 186240, Note_on_c, 0, 58, 52
1, 186240, Note_on_c, 0, 63, 52
1, 186240, Note_on_c, 0, 67, 52
1, 186240, Note_on_c, 0, 51, 48
1, 186480, Tempo, 572902
1, 186480, Note_on_c, 0, 51, 0
1, 186480, Note_on_c, 0, 58, 0
1, 186480, Note_on_c, 0, 63, 0
1, 186480, Note_on_c, 0, 67, 0
1, 186480, Note_on_c, 0, 62, 54
1, 186480, Note_on_c, 0, 66, 54
1, 186480, Note_on_c, 0, 69, 54
1, 186480, Note_on_c, 0, 50, 46
1, 186488, Control_c, 0, 64, 0
1, 186508, Control_c, 0, 64, 127
1, 186544, Control_c, 0, 64, 0
1, 186660, Note_on_c, 0, 50, 0
1, 186660, Note_on_c, 0, 62, 0
1, 186660, Note_on_c, 0, 66, 0
1, 186660, Note_on_c, 0, 69, 0
1, 186720, Tempo, 555556
1, 186720, Note_on_c, 0, 62, 60
1, 186720, Note_on_c, 0, 66, 60
1, 186720, Note_on_c, 0, 69, 60
1, 186720, Control_c, 0, 64, 127
1, 186720, Note_on_c, 0, 50, 54
1, 186960, Tempo, 571429
1, 186960, Note_on_c, 0, 50, 0
1, 186960, Note_on_c, 0, 62, 0
1, 186960, Note_on_c, 0, 66, 0
1, 186960, Note_on_c, 0, 69, 0
1, 186960, Note_on_c, 0, 62, 57
1, 186960, Note_on_c, 0, 67, 57
1, 186960, Note_on_c, 0, 70, 57
1, 186960, Note_on_c, 0, 55, 51
1, 186969, Control_c, 0, 64, 0
1, 186985, Control_c, 0, 64, 127
1, 187031, Control_c, 0, 64, 0
1, 187140, Note_on_c, 0, 55, 0
1, 187140, Note_on_c, 0, 62, 0
1, 187140, Note_on_c, 0, 67, 0
1, 187140, Note_on_c, 0, 70, 0
1, 187200, Note_on_c, 0, 62, 66
1, 187200, Note_on_c, 0, 67, 66
1, 187200, Note_on_c, 0, 70, 66
1, 187200, Control_c, 0, 64, 127
1, 187200, Note_on_c, 0, 55, 59
1, 187440, Tempo, 704556
1, 187440, Note_on_c, 0, 55, 0
1, 187440, Note_on_c, 0, 62, 0
1, 187440, Note_on_c, 0, 67, 0
1, 187440, Note_on_c, 0, 70, 0
1, 187440, Note_on_c, 0, 62, 64
1, 187440, Note_on_c, 0, 67, 64
1, 187440, Note_on_c, 0, 71, 64
1, 187440, Note_on_c, 0, 43, 55
1, 187440, Note_on_c, 0, 53, 55
1, 187440, Note_on_c, 0, 55, 55
1, 187456, Control_c, 0, 64, 0
1, 187520, Control_c, 0, 64, 127
1, 187680, Tempo, 652955
1, 187680, Note_on_c, 0, 55, 0
1, 187680, Note_on_c, 0, 67, 0
1, 187680, Note_on_c, 0, 71, 0
1, 187680, Note_on_c, 0, 62, 0
1, 187680, Note_on_c, 0, 53, 0
1, 187680, Note_on_c, 0, 43, 0
1, 187680, Note_on_c, 0, 62, 70
1, 187680, Note_on_c, 0, 67, 70
1, 187680, Note_on_c, 0, 71, 70
1, 187680, Note_on_c, 0, 43, 61
1, 187680, Note_on_c, 0, 53, 61
1, 187680, Note_on_c, 0, 55, 61
1, 187693, Control_c, 0, 64, 0
1, 187875, Control_c, 0, 64, 127
1, 188400, Tempo, 714456
1, 188400, Note_on_c, 0, 55, 0
1, 188400, Note_on_c, 0, 67, 0
1, 188400, Note_on_c, 0, 71, 0
1, 188400, Note_on_c, 0, 62, 0
1, 188400, Note_on_c, 0, 53, 0
1, 188400, Note_on_c, 0, 43, 0
1, 188400, Note_on_c, 0, 65, 54
1, 188400, Note_on_c, 0, 71, 54
1, 188400, Note_on_c, 0, 77, 54
1, 188400, Note_on_c, 0, 43, 48
1, 188400, Note_on_c, 0, 50, 48
1, 188400, Note_on_c, 0, 55, 48
1, 188640, Tempo, 589565
1, 188640, Note_on_c, 0, 55, 0
1, 188640, Note_on_c, 0, 71, 0
1, 188640, Note_on_c, 0, 77, 0
1, 188640, Note_on_c, 0, 65, 0
1, 188640, Note_on_c, 0, 50, 0
1, 188640, Note_on_c, 0, 43, 0
1, 188640, Note_on_c, 0, 64, 54
1, 188640, Note_on_c, 0, 72, 54
1, 188640, Note_on_c, 0, 76, 54
1, 188640, Note_on_c, 0, 48, 48
1, 188640, Note_on_c, 0, 55, 48
1, 188653, Control_c, 0, 64, 0
1, 188960, Control_c, 0, 64, 127
1, 190080, Tempo, 562272
1, 190080, Marker_t, "Teil 2"
1, 190080, Note_on_c, 0, 55, 0
1, 190080, Note_on_c, 0, 76, 0
1, 190080, Note_on_c, 0, 64, 0
1, 190080, Note_on_c, 0, 72, 0
1, 190080, Note_on_c, 0, 48, 0
1, 190080, Note_on_c, 0, 76, 54
1, 190080, Control_c, 0, 64, 0
1, 190147, Control_c, 0, 64, 127
1, 190500, Note_on_c, 0, 76, 0
1, 190500, Note_on_c, 0, 77, 44
1, 190560, Tempo, 542201
1, 190560, Note_on_c, 0, 77, 0
1, 190560, Note_on_c, 0, 76, 54
1, 190567, Control_c, 0, 64, 0
1, 190634, Control_c, 0, 64, 127
1, 190720, Note_on_c, 0, 76, 0
1, 190720, Note_on_c, 0, 72, 50
1, 190880, Tempo, 566038
1, 190880, Note_on_c, 0, 72, 0
1, 190880, Note_on_c, 0, 69, 47
1, 190980, Note_on_c, 0, 69, 0
1, 190980, Note_on_c, 0, 74, 44
1, 191020, Tempo, 540541
1, 191040, Note_on_c, 0, 74, 0
1, 191040, Note_on_c, 0, 72, 54
1, 191047, Control_c, 0, 64, 0
1, 191097, Control_c, 0, 64, 127
1, 191200, Note_on_c, 0, 72, 0
1, 191200, Note_on_c, 0, 69, 51
1, 191360, Tempo, 583885
1, 191360, Note_on_c, 0, 69, 0
1, 191360, Note_on_c, 0, 64, 47
1, 191520, Tempo, 557103
1, 191520, Note_on_c, 0, 64, 0
1, 191520, Note_on_c, 0, 64, 45
1, 191520, Note_on_c, 0, 69, 45
1, 191520, Note_on_c, 0, 72, 54
1, 191520, Note_on_c, 0, 52, 52
1, 191527, Control_c, 0, 64, 0
1, 191584, Control_c, 0, 64, 127
1, 191760, Note_on_c, 0, 72, 0
1, 191760, Note_on_c, 0, 69, 0
1, 191760, Note_on_c, 0, 68, 43
1, 191760, Note_on_c, 0, 71, 51
1, 191940, Note_on_c, 0, 52, 0
1, 191940, Note_on_c, 0, 53, 44
1, 192000, Tempo, 631579
1, 192000, Note_on_c, 0, 53, 0
1, 192000, Note_on_c, 0, 71, 0
1, 192000, Note_on_c, 0, 68, 0
1, 192000, Note_on_c, 0, 64, 0
1, 192000, Note_on_c, 0, 68, 54
1, 192000, Note_on_c, 0, 64, 45
1, 192000, Note_on_c, 0, 71, 54
1, 192000, Note_on_c, 0, 52, 58
1, 192010, Control_c, 0, 64, 0
1, 192071, Control_c, 0, 64, 127
1, 192160, Note_on_c, 0, 52, 0
1, 192160, Note_on_c, 0, 47, 57
1, 192240, Note_on_c, 0, 68, 0
1, 192240, Note_on_c, 0, 71, 0
1, 192240, Note_on_c, 0, 64, 0
1, 192240, Note_on_c, 0, 66, 43
1, 192240, Note_on_c, 0, 64, 43
1, 192240, Note_on_c, 0, 69, 51
1, 192320, Tempo, 645995
1, 192320, Note_on_c, 0, 47, 0
1, 192320, Note_on_c, 0, 40, 54
1, 192480, Tempo, 595356
1, 192480, Note_on_c, 0, 40, 0
1, 192480, Note_on_c, 0, 69, 0
1, 192480, Note_on_c, 0, 64, 0
1, 192480, Note_on_c, 0, 66, 0
1, 192480, Note_on_c, 0, 64, 45
1, 192480, Note_on_c, 0, 68, 45
1, 192480, Note_on_c, 0, 71, 54
1, 192480, Note_on_c, 0, 52, 59
1, 192487, Control_c, 0, 64, 0
1, 192960, Tempo, 572902
1, 192960, Note_on_c, 0, 52, 0
1, 192960, Note_on_c, 0, 64, 0
1, 192960, Note_on_c, 0, 68, 0
1, 192960, Note_on_c, 0, 71, 0
1, 192960, Note_on_c, 0, 64, 45
1, 192960, Note_on_c, 0, 67, 45
1, 192960, Note_on_c, 0, 72, 54
1, 192960, Note_on_c, 0, 52, 52
1, 192964, Control_c, 0, 64, 127
1, 193200, Note_on_c, 0, 72, 0
1, 193200, Note_on_c, 0, 71, 51
1, 193380, Note_on_c, 0, 52, 0
1, 193380, Note_on_c, 0, 53, 44
1, 193440, Tempo, 625000
1, 193440, Note_on_c, 0, 53, 0
1, 193440, Note_on_c, 0, 71, 0
1, 193440, Note_on_c, 0, 67, 0
1, 193440, Note_on_c, 0, 64, 0
1, 193440, Note_on_c, 0, 64, 45
1, 193440, Note_on_c, 0, 67, 45
1, 193440, Note_on_c, 0, 71, 54
1, 193440, Note_on_c, 0, 52, 59
1, 193450, Control_c, 0, 64, 0
1, 193490, Control_c, 0, 64, 127
1, 193600, Note_on_c, 0, 52, 0
1, 193600, Note_on_c, 0, 55, 55
1, 193680, Tempo, 582524
1, 193680, Note_on_c, 0, 64, 0
1, 193680, Note_on_c, 0, 71, 0
1, 193680, Note_on_c, 0, 67, 0
1, 193680, Note_on_c, 0, 64, 44
1, 193680, Note_on_c, 0, 67, 44
1, 193680, Note_on_c, 0, 72, 52
1, 193760, Note_on_c, 0, 55, 0
1, 193760, Note_on_c, 0, 60, 53
1, 193920, Tempo, 612245
1, 193920, Note_on_c, 0, 60, 0
1, 193920, Note_on_c, 0, 72, 0
1, 193920, Note_on_c, 0, 67, 0
1, 193920, Note_on_c, 0, 64, 0
1, 193920, Note_on_c, 0, 67, 45
1, 193920, Note_on_c, 0, 71, 54
1, 193920, Note_on_c, 0, 65, 53
1, 193920, Note_on_c, 0, 62, 45
1, 193927, Control_c, 0, 64, 0
1, 193984, Control_c, 0, 64, 127
1, 194160, Note_on_c, 0, 71, 0
1, 194160, Note_on_c, 0, 77, 53
1, 194400, Note_on_c, 0, 77, 0
1, 194400, Note_on_c, 0, 62, 0
1, 194400, Note_on_c, 0, 65, 0
1, 194400, Note_on_c, 0, 67, 0
1, 194400, Note_on_c, 0, 76, 54
1, 194400, Note_on_c, 0, 64, 52
1, 194400, Note_on_c, 0, 60, 44
1, 194421, Control_c, 0, 64, 0
1, 194485, Control_c, 0, 64, 127
1, 194820, Note_on_c, 0, 76, 0
1, 194820, Note_on_c, 0, 74, 43
1, 194880, Note_on_c, 0, 74, 0
1, 194880, Note_on_c, 0, 60, 0
1, 194880, Note_on_c, 0, 64, 0
1, 194880, Note_on_c, 0, 72, 53
1, 194880, Note_on_c, 0, 66, 55
1, 194880, Note_on_c, 0, 62, 46
1, 194887, Control_c, 0, 64, 0
1, 194937, Control_c, 0, 64, 127
1, 195040, Note_on_c, 0, 72, 0
1, 195040, Note_on_c, 0, 71, 51
1, 195120, Note_on_c, 0, 62, 0
1, 195120, Note_on_c, 0, 66, 0
1, 195120, Note_on_c, 0, 66, 53
1, 195120, Note_on_c, 0, 62, 45
1, 195200, Note_on_c, 0, 71, 0
1, 195200, Note_on_c, 0, 69, 52
1, 195360, Tempo, 638298
1, 195360, Note_on_c, 0, 69, 0
1, 195360, Note_on_c, 0, 62, 0
1, 195360, Note_on_c, 0, 66, 0
1, 195360, Note_on_c, 0, 71, 55
1, 195360, Note_on_c, 0, 62, 47
1, 195360, Note_on_c, 0, 55, 47
1, 195360, Note_on_c, 0, 67, 56
1, 195378, Control_c, 0, 64, 0
1, 195840, Tempo, 582524
1, 195840, Note_on_c, 0, 67, 0
1, 195840, Note_on_c, 0, 71, 0
1, 195840, Note_on_c, 0, 62, 0
1, 195840, Note_on_c, 0, 55, 0
1, 195840, Note_on_c, 0, 71, 68
1, 195840, Note_on_c, 0, 59, 61
1, 195847, Control_c, 0, 64, 127
1, 196218, Control_c, 0, 64, 0
1, 196260, Tempo, 504202
1, 196260, Note_on_c, 0, 59, 0
1, 196260, Note_on_c, 0, 71, 0
1, 196260, Note_on_c, 0, 72, 58
1, 196260, Note_on_c, 0, 60, 51
1, 196320, Tempo, 526316
1, 196320, Note_on_c, 0, 60, 0
1, 196320, Note_on_c, 0, 72, 0
1, 196320, Note_on_c, 0, 71, 68
1, 196320, Note_on_c, 0, 59, 61
1, 196334, Control_c, 0, 64, 127
1, 196480, Tempo, 508475
1, 196480, Note_on_c, 0, 59, 0
1, 196480, Note_on_c, 0, 71, 0
1, 196480, Note_on_c, 0, 67, 66
1, 196480, Note_on_c, 0, 55, 59
1, 196640, Tempo, 594059
1, 196640, Note_on_c, 0, 55, 0
1, 196640, Note_on_c, 0, 67, 0
1, 196640, Note_on_c, 0, 64, 64
1, 196640, Note_on_c, 0, 52, 56
1, 196712, Control_c, 0, 64, 0
1, 196760, Note_on_c, 0, 52, 0
1, 196760, Note_on_c, 0, 64, 0
1, 196800, Tempo, 550459
1, 196800, Note_on_c, 0, 79, 82
1, 196800, Note_on_c, 0, 67, 76
1, 196825, Control_c, 0, 64, 127
1, 197040, Tempo, 652174
1, 197040, Note_on_c, 0, 67, 0
1, 197040, Note_on_c, 0, 79, 0
1, 197040, Note_on_c, 0, 76, 72
1, 197040, Note_on_c, 0, 64, 64
1, 197130, Note_on_c, 0, 64, 0
1, 197130, Note_on_c, 0, 76, 0
1, 197146, Control_c, 0, 64, 0
1, 197280, Tempo, 566038
1, 197280, Note_on_c, 0, 71, 70
1, 197280, Note_on_c, 0, 59, 62
1, 197301, Control_c, 0, 64, 127
1, 197665, Control_c, 0, 64, 0
1, 197700, Tempo, 504202
1, 197700, Note_on_c, 0, 59, 0
1, 197700, Note_on_c, 0, 71, 0
1, 197700, Note_on_c, 0, 72, 60
1, 197700, Note_on_c, 0, 60, 53
1, 197760, Tempo, 521739
1, 197760, Note_on_c, 0, 60, 0
1, 197760, Note_on_c, 0, 72, 0
1, 197760, Note_on_c, 0, 71, 71
1, 197760, Control_c, 0, 64, 127
1, 197760, Note_on_c, 0, 59, 64
1, 197920, Tempo, 504202
1, 197920, Note_on_c, 0, 59, 0
1, 197920, Note_on_c, 0, 71, 0
1, 197920, Note_on_c, 0, 67, 69
1, 197920, Note_on_c, 0, 55, 61
1, 198080, Tempo, 582524
1, 198080, Note_on_c, 0, 55, 0
1, 198080, Note_on_c, 0, 67, 0
1, 198080, Note_on_c, 0, 64, 66
1, 198080, Note_on_c, 0, 52, 57
1, 198124, Control_c, 0, 64, 0
1, 198200, Note_on_c, 0, 52, 0
1, 198200, Note_on_c, 0, 64, 0
1, 198240, Tempo, 545455
1, 198240, Note_on_c, 0, 79, 85
1, 198240, Note_on_c, 0, 67, 76
1, 198268, Control_c, 0, 64, 127
1, 198480, Tempo, 612245
1, 198480, Note_on_c, 0, 67, 0
1, 198480, Note_on_c, 0, 79, 0
1, 198480, Note_on_c, 0, 76, 74
1, 198480, Note_on_c, 0, 64, 66
1, 198570, Note_on_c, 0, 64, 0
1, 198570, Note_on_c, 0, 76, 0
1, 198611, Control_c, 0, 64, 0
1, 198720, Tempo, 566038
1, 198720, Note_on_c, 0, 83, 90
1, 198720, Note_on_c, 0, 75, 90
1, 198720, Note_on_c, 0, 78, 90
1, 198720, Note_on_c, 0, 47, 77
1, 198731, Control_c, 0, 64, 127
1, 198960, Note_on_c, 0, 47, 0
1, 198960, Note_on_c, 0, 83, 0
1, 198960, Note_on_c, 0, 75, 0
1, 198960, Note_on_c, 0, 78, 0
1, 198960, Note_on_c, 0, 71, 87
1, 198960, Note_on_c, 0, 59, 72
1, 199043, Control_c, 0, 64, 0
1, 199050, Note_on_c, 0, 59, 0
1, 199050, Note_on_c, 0, 71, 0
1, 199140, Tempo, 500000
1, 199140, Note_on_c, 0, 81, 70
1, 199140, Note_on_c, 0, 63, 55
1, 199200, Tempo, 512821
1, 199200, Note_on_c, 0, 63, 0
1, 199200, Note_on_c, 0, 81, 0
1, 199200, Note_on_c, 0, 79, 87
1, 199200, Note_on_c, 0, 64, 73
1, 199360, Tempo, 495868
1, 199360, Note_on_c, 0, 64, 0
1, 199360, Note_on_c, 0, 79, 0
1, 199360, Note_on_c, 0, 78, 83
1, 199360, Note_on_c, 0, 66, 67
1, 199520, Tempo, 617347
1, 199520, Note_on_c, 0, 66, 0
1, 199520, Note_on_c, 0, 78, 0
1, 199520, Note_on_c, 0, 76, 78
1, 199520, Note_on_c, 0, 67, 78
1, 199680, Tempo, 566038
1, 199680, Note_on_c, 0, 67, 0
1, 199680, Note_on_c, 0, 76, 0
1, 199680, Note_on_c, 0, 83, 93
1, 199680, Note_on_c, 0, 75, 93
1, 199680, Note_on_c, 0, 78, 93
1, 199680, Note_on_c, 0, 47, 79
1, 199697, Control_c, 0, 64, 127
1, 199920, Note_on_c, 0, 47, 0
1, 199920, Note_on_c, 0, 83, 0
1, 199920, Note_on_c, 0, 75, 0
1, 199920, Note_on_c, 0, 78, 0
1, 199920, Note_on_c, 0, 71, 86
1, 199920, Note_on_c, 0, 59, 73
1, 199991, Control_c, 0, 64, 0
1, 200010, Note_on_c, 0, 59, 0
1, 200010, Note_on_c, 0, 71, 0
1, 200100, Tempo, 500000
1, 200100, Note_on_c, 0, 81, 72
1, 200100, Note_on_c, 0, 63, 58
1, 200160, Tempo, 504202
1, 200160, Note_on_c, 0, 63, 0
1, 200160, Note_on_c, 0, 81, 0
1, 200160, Note_on_c, 0, 79, 89
1, 200160, Note_on_c, 0, 64, 75
1, 200320, Tempo, 495868
1, 200320, Note_on_c, 0, 64, 0
1, 200320, Note_on_c, 0, 79, 0
1, 200320, Note_on_c, 0, 78, 85
1, 200320, Note_on_c, 0, 66, 68
1, 200480, Tempo, 576923
1, 200480, Note_on_c, 0, 66, 0
1, 200480, Note_on_c, 0, 78, 0
1, 200480, Note_on_c, 0, 76, 82
1, 200480, Note_on_c, 0, 67, 66
1, 200640, Tempo, 560748
1, 200640, Note_on_c, 0, 67, 0
1, 200640, Note_on_c, 0, 76, 0
1, 200640, Note_on_c, 0, 83, 95
1, 200640, Note_on_c, 0, 75, 95
1, 200640, Note_on_c, 0, 78, 95
1, 200640, Note_on_c, 0, 47, 80
1, 200663, Control_c, 0, 64, 127
1, 200880, Tempo, 594059
1, 200880, Note_on_c, 0, 47, 0
1, 200880, Note_on_c, 0, 83, 0
1, 200880, Note_on_c, 0, 75, 0
1, 200880, Note_on_c, 0, 78, 0
1, 200880, Note_on_c, 0, 71, 89
1, 200880, Note_on_c, 0, 59, 75
1, 200970, Note_on_c, 0, 59, 0
1, 200970, Note_on_c, 0, 71, 0
1, 201023, Control_c, 0, 64, 0
1, 201120, Tempo, 617347
1, 201120, Note_on_c, 0, 95, 115
1, 201120, Note_on_c, 0, 35, 81
1, 201160, Control_c, 0, 64, 127
1, 201360, Note_on_c, 0, 35, 0
1, 201360, Note_on_c, 0, 95, 0
1, 201360, Note_on_c, 0, 83, 93
1, 201360, Note_on_c, 0, 47, 70
1, 201450, Note_on_c, 0, 47, 0
1, 201450, Note_on_c, 0, 83, 0
1, 201474, Control_c, 0, 64, 0
1, 201600, Tempo, 545455
1, 203040, Tempo, 560748
1, 203040, Note_on_c, 0, 79, 45
1, 203040, Note_on_c, 0, 64, 36
1, 203061, Control_c, 0, 64, 127
1, 203280, Tempo, 582524
1, 203280, Note_on_c, 0, 64, 0
1, 203280, Note_on_c, 0, 79, 0
1, 203280, Note_on_c, 0, 76, 30
1, 203280, Note_on_c, 0, 67, 25
1, 203400, Note_on_c, 0, 67, 0
1, 203400, Note_on_c, 0, 76, 0
1, 203407, Control_c, 0, 64, 0
1, 203520, Tempo, 555556
1, 203520, Note_on_c, 0, 79, 43
1, 203520, Note_on_c, 0, 64, 34
1, 203534, Control_c, 0, 64, 127
1, 203760, Tempo, 571429
1, 203760, Note_on_c, 0, 64, 0
1, 203760, Note_on_c, 0, 79, 0
1, 203760, Note_on_c, 0, 76, 31
1, 203760, Note_on_c, 0, 67, 25
1, 203831, Control_c, 0, 64, 0
1, 203880, Note_on_c, 0, 67, 0
1, 203880, Note_on_c, 0, 76, 0
1, 203993, Control_c, 0, 64, 127
1, 204000, Tempo, 560748
1, 204000, Note_on_c, 0, 79, 42
1, 204000, Note_on_c, 0, 64, 33
1, 204240, Tempo, 571429
1, 204240, Note_on_c, 0, 64, 0
1, 204240, Note_on_c, 0, 79, 0
1, 204240, Note_on_c, 0, 76, 31
1, 204240, Note_on_c, 0, 67, 26
1, 204360, Note_on_c, 0, 67, 0
1, 204360, Note_on_c, 0, 76, 0
1, 204388, Control_c, 0, 64, 0
1, 204480, Tempo, 560748
1, 204480, Note_on_c, 0, 79, 41
1, 204480, Control_c, 0, 64, 127
1, 204480, Note_on_c, 0, 64, 33
1, 204720, Tempo, 571429
1, 204720, Note_on_c, 0, 64, 0
1, 204720, Note_on_c, 0, 79, 0
1, 204720, Note_on_c, 0, 76, 29
1, 204720, Note_on_c, 0, 67, 24
1, 204840, Note_on_c, 0, 67, 0
1, 204840, Note_on_c, 0, 76, 0
1, 204847, Control_c, 0, 64, 0
1, 204960, Tempo, 560748
1, 204960, Note_on_c, 0, 79, 38
1, 204960, Note_on_c, 0, 64, 31
1, 204974, Control_c, 0, 64, 127
1, 205200, Tempo, 571429
1, 205200, Note_on_c, 0, 64, 0
1, 205200, Note_on_c, 0, 79, 0
1, 205200, Note_on_c, 0, 76, 27
1, 205200, Note_on_c, 0, 67, 23
1, 205320, Note_on_c, 0, 67, 0
1, 205320, Note_on_c, 0, 76, 0
1, 205341, Control_c, 0, 64, 0
1, 205440, Tempo, 560748
1, 205440, Note_on_c, 0, 79, 37
1, 205440, Note_on_c, 0, 64, 30
1, 205461, Control_c, 0, 64, 127
1, 205680, Tempo, 571429
1, 205680, Note_on_c, 0, 64, 0
1, 205680, Note_on_c, 0, 79, 0
1, 205680, Note_on_c, 0, 76, 26
1, 205680, Note_on_c, 0, 67, 21
1, 205800, Note_on_c, 0, 67, 0
1, 205800, Note_on_c, 0, 76, 0
1, 205842, Control_c, 0, 64, 0
1, 205920, Tempo, 542201
1, 205920, Note_on_c, 0, 79, 36
1, 205920, Note_on_c, 0, 76, 36
1, 205920, Note_on_c, 0, 55, 48
1, 205948, Control_c, 0, 64, 127
1, 206160, Note_on_c, 0, 76, 0
1, 206160, Note_on_c, 0, 79, 0
1, 206160, Note_on_c, 0, 67, 27
1, 206280, Note_on_c, 0, 67, 0
1, 206340, Note_on_c, 0, 55, 0
1, 206340, Note_on_c, 0, 57, 40
1, 206400, Note_on_c, 0, 57, 0
1, 206400, Note_on_c, 0, 76, 36
1, 206400, Note_on_c, 0, 79, 36
1, 206400, Note_on_c, 0, 55, 48
1, 206405, Control_c, 0, 64, 0
1, 206453, Control_c, 0, 64, 127
1, 206560, Note_on_c, 0, 55, 0
1, 206560, Note_on_c, 0, 52, 45
1, 206640, Note_on_c, 0, 79, 0
1, 206640, Note_on_c, 0, 76, 0
1, 206640, Note_on_c, 0, 67, 27
1, 206720, Note_on_c, 0, 52, 0
1, 206720, Note_on_c, 0, 48, 39
1, 206760, Note_on_c, 0, 67, 0
1, 206880, Tempo, 557103
1, 206880, Note_on_c, 0, 48, 0
1, 206880, Note_on_c, 0, 76, 36
1, 206880, Note_on_c, 0, 79, 36
1, 206880, Note_on_c, 0, 55, 48
1, 206890, Control_c, 0, 64, 0
1, 206958, Control_c, 0, 64, 127
1, 207120, Note_on_c, 0, 79, 0
1, 207120, Note_on_c, 0, 76, 0
1, 207120, Note_on_c, 0, 67, 27
1, 207200, Tempo, 639250
1, 207240, Note_on_c, 0, 67, 0
1, 207240, Note_on_c, 0, 55, 0
1, 207240, Note_on_c, 0, 64, 45
1, 207360, Tempo, 589565
1, 207360, Note_on_c, 0, 64, 0
1, 207360, Note_on_c, 0, 76, 38
1, 207360, Note_on_c, 0, 79, 38
1, 207360, Note_on_c, 0, 64, 48
1, 207363, Control_c, 0, 64, 0
1, 207501, Control_c, 0, 64, 127
1, 207600, Tempo, 571429
1, 207600, Note_on_c, 0, 79, 0
1, 207600, Note_on_c, 0, 76, 0
1, 207600, Note_on_c, 0, 67, 29
1, 207720, Note_on_c, 0, 67, 0
1, 207840, Note_on_c, 0, 76, 38
1, 207840, Note_on_c, 0, 79, 38
1, 208080, Tempo, 571429
1, 208080, Note_on_c, 0, 79, 0
1, 208080, Note_on_c, 0, 76, 0
1, 208080, Note_on_c, 0, 67, 27
1, 208200, Note_on_c, 0, 67, 0
1, 208320, Note_on_c, 0, 64, 0
1, 208320, Note_on_c, 0, 76, 34
1, 208320, Note_on_c, 0, 79, 34
1, 208320, Note_on_c, 0, 60, 36
1, 208560, Tempo, 571429
1, 208560, Note_on_c, 0, 60, 0
1, 208560, Note_on_c, 0, 79, 0
1, 208560, Note_on_c, 0, 76, 0
1, 208560, Note_on_c, 0, 67, 26
1, 208631, Control_c, 0, 64, 0
1, 208680, Note_on_c, 0, 67, 0
1, 208800, Tempo, 542201
1, 208800, Note_on_c, 0, 67, 47
1, 208857, Control_c, 0, 64, 127
1, 209220, Note_on_c, 0, 67, 0
1, 209220, Note_on_c, 0, 69, 44
1, 209280, Note_on_c, 0, 69, 0
1, 209280, Note_on_c, 0, 67, 52
1, 209289, Control_c, 0, 64, 0
1, 209337, Control_c, 0, 64, 127
1, 209440, Tempo, 526316
1, 209440, Note_on_c, 0, 67, 0
1, 209440, Note_on_c, 0, 64, 49
1, 209600, Note_on_c, 0, 64, 0
1, 209600, Note_on_c, 0, 60, 42
1, 209760, Tempo, 557103
1, 209760, Note_on_c, 0, 60, 0
1, 209760, Note_on_c, 0, 67, 52
1, 209768, Control_c, 0, 64, 0
1, 209827, Control_c, 0, 64, 127
1, 210080, Tempo, 639250
1, 210120, Note_on_c, 0, 67, 0
1, 210120, Note_on_c, 0, 76, 48
1, 210240, Tempo, 540541
1, 210240, Note_on_c, 0, 76, 0
1, 210240, Note_on_c, 0, 76, 52
1, 210240, Note_on_c, 0, 55, 48
1, 210252, Control_c, 0, 64, 0
1, 210286, Control_c, 0, 64, 127
1, 210660, Note_on_c, 0, 55, 0
1, 210660, Note_on_c, 0, 57, 40
1, 210720, Note_on_c, 0, 57, 0
1, 210720, Note_on_c, 0, 55, 48
1, 210728, Control_c, 0, 64, 0
1, 210777, Control_c, 0, 64, 127
1, 210880, Note_on_c, 0, 55, 0
1, 210880, Note_on_c, 0, 52, 45
1, 211040, Note_on_c, 0, 52, 0
1, 211040, Note_on_c, 0, 48, 41
1, 211200, Tempo, 555556
1, 211200, Note_on_c, 0, 48, 0
1, 211200, Note_on_c, 0, 76, 0
1, 211200, Note_on_c, 0, 72, 35
1, 211200, Note_on_c, 0, 55, 48
1, 211216, Control_c, 0, 64, 0
1, 211274, Control_c, 0, 64, 127
1, 211440, Tempo, 588235
1, 211440, Note_on_c, 0, 72, 0
1, 211560, Note_on_c, 0, 55, 0
1, 211560, Note_on_c, 0, 64, 45
1, 211680, Tempo, 542201
1, 211680, Note_on_c, 0, 64, 0
1, 211680, Note_on_c, 0, 79, 70
1, 211680, Note_on_c, 0, 64, 48
1, 211698, Control_c, 0, 64, 0
1, 211747, Control_c, 0, 64, 127
1, 212100, Note_on_c, 0, 79, 0
1, 212100, Note_on_c, 0, 77, 51
1, 212160, Note_on_c, 0, 77, 0
1, 212160, Note_on_c, 0, 76, 61
1, 212169, Control_c, 0, 64, 0
1, 212227, Control_c, 0, 64, 127
1, 212320, Note_on_c, 0, 76, 0
1, 212320, Note_on_c, 0, 72, 57
1, 212480, Note_on_c, 0, 72, 0
1, 212480, Note_on_c, 0, 67, 55
1, 212640, Note_on_c, 0, 67, 0
1, 212640, Note_on_c, 0, 64, 0
1, 212640, Note_on_c, 0, 72, 63
1, 212640, Note_on_c, 0, 60, 38
1, 212646, Control_c, 0, 64, 0
1, 212686, Control_c, 0, 64, 127
1, 212800, Note_on_c, 0, 72, 0
1, 212800, Note_on_c, 0, 76, 59
1, 212880, Note_on_c, 0, 60, 0
1, 212960, Note_on_c, 0, 76, 0
1, 212960, Note_on_c, 0, 79, 56
1, 213120, Tempo, 571429
1, 213120, Note_on_c, 0, 79, 0
1, 213120, Note_on_c, 0, 67, 70
1, 213120, Note_on_c, 0, 76, 70
1, 213120, Note_on_c, 0, 79, 70
1, 213120, Control_c, 0, 64, 0
1, 213120, Note_on_c, 0, 43, 61
1, 213240, Note_on_c, 0, 43, 0
1, 213240, Note_on_c, 0, 67, 0
1, 213240, Note_on_c, 0, 76, 0
1, 213240, Note_on_c, 0, 79, 0
1, 213360, Tempo, 540541
1, 213360, Note_on_c, 0, 67, 66
1, 213360, Note_on_c, 0, 74, 66
1, 213360, Note_on_c, 0, 77, 66
1, 213360, Note_on_c, 0, 45, 55
1, 213480, Note_on_c, 0, 45, 0
1, 213480, Note_on_c, 0, 67, 0
1, 213480, Note_on_c, 0, 74, 0
1, 213480, Note_on_c, 0, 77, 0
1, 213480, Note_on_c, 0, 47, 55
1, 213600, Tempo, 566038
1, 213600, Note_on_c, 0, 47, 0
1, 213600, Note_on_c, 0, 67, 70
1, 213600, Note_on_c, 0, 72, 70
1, 213600, Note_on_c, 0, 76, 70
1, 213600, Note_on_c, 0, 48, 61
1, 213690, Note_on_c, 0, 48, 0
1, 213690, Note_on_c, 0, 67, 0
1, 213690, Note_on_c, 0, 72, 0
1, 213690, Note_on_c, 0, 76, 0
1, 213840, Tempo, 588235
1, 213840, Note_on_c, 0, 67, 63
1, 213840, Note_on_c, 0, 71, 63
1, 213840, Note_on_c, 0, 74, 63
1, 213840, Note_on_c, 0, 43, 53
1, 213930, Note_on_c, 0, 43, 0
1, 213930, Note_on_c, 0, 67, 0
1, 213930, Note_on_c, 0, 71, 0
1, 213930, Note_on_c, 0, 74, 0
1, 214080, Tempo, 572902
1, 214080, Note_on_c, 0, 67, 70
1, 214080, Note_on_c, 0, 72, 70
1, 214080, Note_on_c, 0, 76, 70
1, 214080, Note_on_c, 0, 48, 61
1, 214200, Note_on_c, 0, 48, 0
1, 214200, Note_on_c, 0, 67, 0
1, 214200, Note_on_c, 0, 72, 0
1, 214200, Note_on_c, 0, 76, 0
1, 214560, Tempo, 582524
1, 214560, Note_on_c, 0, 67, 45
1, 214560, Note_on_c, 0, 51, 38
1, 214560, Note_on_c, 0, 55, 38
1, 214680, Note_on_c, 0, 55, 0
1, 214680, Note_on_c, 0, 51, 0
1, 214800, Tempo, 566038
1, 214800, Note_on_c, 0, 67, 0
1, 214800, Note_on_c, 0, 69, 41
1, 214800, Note_on_c, 0, 50, 35
1, 214800, Note_on_c, 0, 53, 35
1, 214800, Note_on_c, 0, 55, 35
1, 214920, Note_on_c, 0, 55, 0
1, 214920, Note_on_c, 0, 69, 0
1, 214920, Note_on_c, 0, 50, 0
1, 214920, Note_on_c, 0, 53, 0
1, 214920, Note_on_c, 0, 71, 41
1, 215040, Tempo, 588235
1, 215040, Note_on_c, 0, 71, 0
1, 215040, Note_on_c, 0, 72, 45
1, 215040, Note_on_c, 0, 48, 38
1, 215040, Note_on_c, 0, 51, 38
1, 215040, Note_on_c, 0, 55, 38
1, 215130, Note_on_c, 0, 55, 0
1, 215130, Note_on_c, 0, 72, 0
1, 215130, Note_on_c, 0, 48, 0
1, 215130, Note_on_c, 0, 51, 0
1, 215280, Tempo, 576923
1, 215280, Note_on_c, 0, 67, 39
1, 215280, Note_on_c, 0, 47, 35
1, 215280, Note_on_c, 0, 50, 35
1, 215280, Note_on_c, 0, 55, 35
1, 215370, Note_on_c, 0, 55, 0
1, 215370, Note_on_c, 0, 67, 0
1, 215370, Note_on_c, 0, 47, 0
1, 215370, Note_on_c, 0, 50, 0
1, 215520, Tempo, 566038
1, 215520, Note_on_c, 0, 72, 48
1, 215520, Note_on_c, 0, 48, 42
1, 215520, Note_on_c, 0, 51, 42
1, 215520, Note_on_c, 0, 55, 42
1, 215610, Note_on_c, 0, 55, 0
1, 215610, Note_on_c, 0, 72, 0
1, 215610, Note_on_c, 0, 48, 0
1, 215610, Note_on_c, 0, 51, 0
1, 215760, Tempo, 545455
1, 215760, Note_on_c, 0, 70, 65
1, 215760, Note_on_c, 0, 82, 65
1, 215760, Note_on_c, 0, 50, 49
1, 215760, Note_on_c, 0, 53, 49
1, 215760, Note_on_c, 0, 58, 49
1, 215880, Note_on_c, 0, 58, 0
1, 215880, Note_on_c, 0, 50, 0
1, 215880, Note_on_c, 0, 70, 0
1, 215880, Note_on_c, 0, 82, 0
1, 215880, Note_on_c, 0, 53, 0
1, 216000, Tempo, 535714
1, 216000, Note_on_c, 0, 70, 67
1, 216000, Note_on_c, 0, 82, 67
1, 216000, Note_on_c, 0, 53, 52
1, 216000, Note_on_c, 0, 56, 52
1, 216000, Note_on_c, 0, 58, 52
1, 216120, Note_on_c, 0, 58, 0
1, 216120, Note_on_c, 0, 53, 0
1, 216120, Note_on_c, 0, 70, 0
1, 216120, Note_on_c, 0, 82, 0
1, 216120, Note_on_c, 0, 56, 0
1, 216240, Tempo, 571429
1, 216240, Note_on_c, 0, 87, 70
1, 216240, Note_on_c, 0, 75, 70
1, 216240, Note_on_c, 0, 51, 49
1, 216240, Note_on_c, 0, 55, 49
1, 216240, Note_on_c, 0, 58, 49
1, 216360, Note_on_c, 0, 58, 0
1, 216360, Note_on_c, 0, 51, 0
1, 216360, Note_on_c, 0, 87, 0
1, 216360, Note_on_c, 0, 75, 0
1, 216360, Note_on_c, 0, 55, 0
1, 216480, Tempo, 555556
1, 216480, Note_on_c, 0, 87, 73
1, 216480, Note_on_c, 0, 75, 73
1, 216480, Note_on_c, 0, 51, 53
1, 216480, Note_on_c, 0, 55, 53
1, 216480, Note_on_c, 0, 58, 53
1, 216600, Note_on_c, 0, 58, 0
1, 216600, Note_on_c, 0, 51, 0
1, 216600, Note_on_c, 0, 87, 0
1, 216600, Note_on_c, 0, 75, 0
1, 216600, Note_on_c, 0, 55, 0
1, 216720, Tempo, 572902
1, 216720, Note_on_c, 0, 86, 71
1, 216720, Note_on_c, 0, 74, 71
1, 216720, Note_on_c, 0, 54, 51
1, 216720, Note_on_c, 0, 57, 51
1, 216720, Note_on_c, 0, 62, 51
1, 216840, Note_on_c, 0, 62, 0
1, 216840, Note_on_c, 0, 54, 0
1, 216840, Note_on_c, 0, 86, 0
1, 216840, Note_on_c, 0, 74, 0
1, 216840, Note_on_c, 0, 57, 0
1, 216960, Note_on_c, 0, 74, 78
1, 216960, Note_on_c, 0, 86, 78
1, 216960, Note_on_c, 0, 57, 57
1, 216960, Note_on_c, 0, 60, 57
1, 216960, Note_on_c, 0, 62, 57
1, 217080, Note_on_c, 0, 62, 0
1, 217080, Note_on_c, 0, 57, 0
1, 217080, Note_on_c, 0, 74, 0
1, 217080, Note_on_c, 0, 86, 0
1, 217080, Note_on_c, 0, 60, 0
1, 217200, Tempo, 588235
1, 217200, Note_on_c, 0, 91, 77
1, 217200, Note_on_c, 0, 79, 77
1, 217200, Note_on_c, 0, 55, 55
1, 217200, Note_on_c, 0, 58, 55
1, 217200, Note_on_c, 0, 62, 55
1, 217320, Note_on_c, 0, 62, 0
1, 217320, Note_on_c, 0, 55, 0
1, 217320, Note_on_c, 0, 91, 0
1, 217320, Note_on_c, 0, 79, 0
1, 217320, Note_on_c, 0, 58, 0
1, 217440, Note_on_c, 0, 79, 84
1, 217440, Note_on_c, 0, 91, 84
1, 217440, Note_on_c, 0, 55, 62
1, 217440, Note_on_c, 0, 58, 62
1, 217440, Note_on_c, 0, 62, 62
1, 217560, Note_on_c, 0, 62, 0
1, 217560, Note_on_c, 0, 55, 0
1, 217560, Note_on_c, 0, 79, 0
1, 217560, Note_on_c, 0, 91, 0
1, 217560, Note_on_c, 0, 58, 0
1, 217680, Tempo, 619643
1, 217680, Note_on_c, 0, 89, 70
1, 217680, Note_on_c, 0, 77, 70
1, 217680, Note_on_c, 0, 43, 49
1, 217680, Note_on_c, 0, 50, 49
1, 217680, Note_on_c, 0, 59, 49
1, 217800, Note_on_c, 0, 59, 0
1, 217800, Note_on_c, 0, 43, 0
1, 217800, Note_on_c, 0, 89, 0
1, 217800, Note_on_c, 0, 77, 0
1, 217800, Note_on_c, 0, 50, 0
1, 217920, Tempo, 722892
1, 217920, Note_on_c, 0, 89, 66
1, 217920, Note_on_c, 0, 77, 66
1, 217920, Control_c, 0, 64, 127
1, 217920, Note_on_c, 0, 43, 47
1, 217920, Note_on_c, 0, 50, 47
1, 217920, Note_on_c, 0, 59, 47
1, 218640, Tempo, 740741
1, 218640, Note_on_c, 0, 59, 0
1, 218640, Note_on_c, 0, 43, 0
1, 218640, Note_on_c, 0, 89, 0
1, 218640, Note_on_c, 0, 77, 0
1, 218640, Note_on_c, 0, 50, 0
1, 218640, Note_on_c, 0, 71, 48
1, 218640, Note_on_c, 0, 83, 48
1, 218640, Note_on_c, 0, 65, 37
1, 218640, Note_on_c, 0, 67, 37
1, 218640, Note_on_c, 0, 55, 37
1, 218880, Tempo, 589565
1, 218880, Note_on_c, 0, 55, 0
1, 218880, Note_on_c, 0, 65, 0
1, 218880, Note_on_c, 0, 71, 0
1, 218880, Note_on_c, 0, 83, 0
1, 218880, Note_on_c, 0, 67, 0
1, 218880, Note_on_c, 0, 84, 45
1, 218880, Note_on_c, 0, 72, 45
1, 218880, Note_on_c, 0, 67, 35
1, 218880, Note_on_c, 0, 64, 35
1, 218880, Note_on_c, 0, 60, 35
1, 218884, Control_c, 0, 64, 0
1, 219227, Control_c, 0, 64, 127
1, 220320, Note_on_c, 0, 60, 0
1, 220320, Note_on_c, 0, 67, 0
1, 220320, Note_on_c, 0, 84, 0
1, 220320, Note_on_c, 0, 72, 0
1, 220320, Note_on_c, 0, 64, 0
1, 220320, Control_c, 0, 64, 0
1, 220320, End_track
0, 0, End_of_file
