0, 0, Header, 0, 1, 480
1, 0, Start_track
1, 0, Title_t, "Sonate D960, 3. Satz"
1, 0, Copyright_t, "Copyright © 2002 by Bernd Krueger"
1, 0, Text_t, "Franz Schubert"
1, 0, Text_t, "Scherzo"
1, 0, Text_t, "Fertiggestellt am 21.07.2002\012"
1, 0, Text_t, "Normierung: 23.12.2002\012"
1, 0, Text_t, "Update am 24.3.2014\012"
1, 0, Text_t, "Dauer:  3:55 Minuten\012"
1, 0, Text_t, "Takt auf 3/8 statt 3/4 gesetzt.\012"
1, 0, SMPTE_offset, 96, 0, 3, 0, 0
1, 0, Time_signature, 3, 3, 12, 8
1, 0, Key_signature, -2, "major"
1, 0, Tempo, 461787
1, 0, Program_c, 0, 1
1, 0, Control_c, 0, 7, 100
1, 0, Control_c, 0, 10, 64
1, 0, Note_on_c, 0, 82, 54
1, 0, Control_c, 0, 91, 127
1, 0, Text_t, "bdca426d104a26ac9dcb070447587523"
1, 0, Program_c, 0, 1
1, 0, Control_c, 0, 7, 100
1, 0, Control_c, 0, 10, 64
1, 0, Control_c, 0, 64, 127
1, 0, Note_on_c, 0, 58, 31
1, 0, Note_on_c, 0, 62, 38
1, 120, Note_on_c, 0, 62, 0
1, 120, Note_on_c, 0, 58, 0
1, 120, Note_on_c, 0, 65, 25
1, 240, Note_on_c, 0, 65, 0
1, 240, Note_on_c, 0, 82, 0
1, 240, Note_on_c, 0, 81, 47
1, 240, Note_on_c, 0, 58, 24
1, 240, Note_on_c, 0, 62, 29
1, 240, Control_c, 0, 64, 0
1, 282, Control_c, 0, 64, 127
1, 360, Note_on_c, 0, 62, 0
1, 360, Note_on_c, 0, 58, 0
1, 360, Note_on_c, 0, 65, 24
1, 480, Note_on_c, 0, 65, 0
1, 480, Note_on_c, 0, 81, 0
1, 480, Note_on_c, 0, 82, 47
1, 480, Note_on_c, 0, 62, 29
1, 480, Note_on_c, 0, 58, 24
1, 486, Control_c, 0, 64, 0
1, 515, Control_c, 0, 64, 127
1, 600, Note_on_c, 0, 58, 0
1, 600, Note_on_c, 0, 62, 0
1, 600, Note_on_c, 0, 65, 25
1, 720, Tempo, 456274
1, 720, Note_on_c, 0, 65, 0
1, 720, Note_on_c, 0, 82, 0
1, 720, Note_on_c, 0, 79, 51
1, 720, Note_on_c, 0, 63, 34
1, 720, Note_on_c, 0, 58, 28
1, 727, Control_c, 0, 64, 0
1, 769, Control_c, 0, 64, 127
1, 840, Note_on_c, 0, 58, 0
1, 840, Note_on_c, 0, 63, 0
1, 840, Note_on_c, 0, 67, 25
1, 960, Tempo, 452625
1, 960, Note_on_c, 0, 67, 0
1, 960, Note_on_c, 0, 79, 0
1, 960, Note_on_c, 0, 81, 46
1, 960, Note_on_c, 0, 63, 29
1, 960, Note_on_c, 0, 58, 24
1, 974, Control_c, 0, 64, 0
1, 1009, Control_c, 0, 64, 127
1, 1080, Note_on_c, 0, 58, 0
1, 1080, Note_on_c, 0, 63, 0
1, 1080, Note_on_c, 0, 81, 0
1, 1080, Note_on_c, 0, 82, 47
1, 1080, Note_on_c, 0, 67, 24
1, 1200, Note_on_c, 0, 67, 0
1, 1200, Note_on_c, 0, 82, 0
1, 1200, Note_on_c, 0, 84, 49
1, 1200, Note_on_c, 0, 58, 24
1, 1200, Note_on_c, 0, 63, 29
1, 1320, Note_on_c, 0, 63, 0
1, 1320, Note_on_c, 0, 58, 0
1, 1320, Note_on_c, 0, 84, 0
1, 1320, Note_on_c, 0, 86, 50
1, 1320, Note_on_c, 0, 67, 24
1, 1440, Tempo, 458155
1, 1440, Note_on_c, 0, 67, 0
1, 1440, Note_on_c, 0, 86, 0
1, 1440, Note_on_c, 0, 82, 53
1, 1440, Note_on_c, 0, 58, 34
1, 1440, Note_on_c, 0, 62, 40
1, 1455, Control_c, 0, 64, 0
1, 1489, Control_c, 0, 64, 127
1, 1560, Note_on_c, 0, 62, 0
1, 1560, Note_on_c, 0, 58, 0
1, 1560, Note_on_c, 0, 65, 25
1, 1680, Tempo, 452625
1, 1680, Note_on_c, 0, 65, 0
1, 1680, Note_on_c, 0, 82, 0
1, 1680, Note_on_c, 0, 84, 54
1, 1680, Note_on_c, 0, 62, 29
1, 1680, Note_on_c, 0, 58, 24
1, 1680, Control_c, 0, 64, 0
1, 1729, Control_c, 0, 64, 127
1, 1800, Note_on_c, 0, 58, 0
1, 1800, Note_on_c, 0, 62, 0
1, 1800, Note_on_c, 0, 84, 0
1, 1800, Note_on_c, 0, 82, 47
1, 1800, Note_on_c, 0, 65, 24
1, 1920, Note_on_c, 0, 65, 0
1, 1920, Note_on_c, 0, 82, 0
1, 1920, Note_on_c, 0, 81, 51
1, 1920, Note_on_c, 0, 58, 24
1, 1920, Note_on_c, 0, 62, 29
1, 2040, Note_on_c, 0, 62, 0
1, 2040, Note_on_c, 0, 58, 0
1, 2040, Note_on_c, 0, 81, 0
1, 2040, Note_on_c, 0, 79, 47
1, 2040, Note_on_c, 0, 65, 24
1, 2160, Tempo, 463750
1, 2160, Note_on_c, 0, 65, 0
1, 2160, Note_on_c, 0, 79, 0
1, 2160, Note_on_c, 0, 77, 56
1, 2160, Control_c, 0, 64, 0
1, 2160, Note_on_c, 0, 63, 34
1, 2160, Note_on_c, 0, 57, 29
1, 2220, Note_on_c, 0, 77, 0
1, 2280, Note_on_c, 0, 57, 0
1, 2280, Note_on_c, 0, 63, 0
1, 2280, Note_on_c, 0, 65, 25
1, 2400, Note_on_c, 0, 65, 0
1, 2400, Note_on_c, 0, 77, 51
1, 2400, Note_on_c, 0, 57, 24
1, 2400, Note_on_c, 0, 63, 29
1, 2460, Note_on_c, 0, 77, 0
1, 2520, Note_on_c, 0, 63, 0
1, 2520, Note_on_c, 0, 57, 0
1, 2520, Note_on_c, 0, 65, 26
1, 2640, Tempo, 474608
1, 2640, Note_on_c, 0, 65, 0
1, 2640, Note_on_c, 0, 77, 50
1, 2640, Note_on_c, 0, 57, 24
1, 2640, Note_on_c, 0, 63, 29
1, 2700, Note_on_c, 0, 77, 0
1, 2760, Note_on_c, 0, 63, 0
1, 2760, Note_on_c, 0, 57, 0
1, 2760, Note_on_c, 0, 65, 25
1, 2880, Tempo, 463679
1, 2880, Note_on_c, 0, 65, 0
1, 2880, Note_on_c, 0, 78, 61
1, 2880, Note_on_c, 0, 63, 37
1, 2880, Note_on_c, 0, 57, 31
1, 2949, Control_c, 0, 64, 127
1, 3000, Note_on_c, 0, 57, 0
1, 3000, Note_on_c, 0, 63, 0
1, 3000, Note_on_c, 0, 66, 25
1, 3120, Note_on_c, 0, 66, 0
1, 3120, Note_on_c, 0, 78, 0
1, 3120, Note_on_c, 0, 90, 57
1, 3120, Note_on_c, 0, 57, 24
1, 3120, Note_on_c, 0, 63, 29
1, 3240, Note_on_c, 0, 63, 0
1, 3240, Note_on_c, 0, 57, 0
1, 3240, Note_on_c, 0, 66, 25
1, 3356, Control_c, 0, 64, 0
1, 3360, Tempo, 472776
1, 3360, Note_on_c, 0, 66, 0
1, 3360, Note_on_c, 0, 90, 0
1, 3360, Note_on_c, 0, 90, 57
1, 3360, Note_on_c, 0, 57, 24
1, 3360, Note_on_c, 0, 63, 29
1, 3420, Note_on_c, 0, 90, 0
1, 3480, Note_on_c, 0, 63, 0
1, 3480, Note_on_c, 0, 57, 0
1, 3480, Note_on_c, 0, 66, 25
1, 3600, Tempo, 463679
1, 3600, Note_on_c, 0, 66, 0
1, 3600, Note_on_c, 0, 91, 65
1, 3600, Note_on_c, 0, 58, 29
1, 3600, Note_on_c, 0, 63, 34
1, 3720, Note_on_c, 0, 63, 0
1, 3720, Note_on_c, 0, 58, 0
1, 3720, Note_on_c, 0, 67, 25
1, 3727, Control_c, 0, 64, 127
1, 3840, Note_on_c, 0, 67, 0
1, 3840, Note_on_c, 0, 91, 0
1, 3840, Note_on_c, 0, 79, 51
1, 3840, Note_on_c, 0, 63, 29
1, 3840, Note_on_c, 0, 58, 24
1, 3960, Note_on_c, 0, 58, 0
1, 3960, Note_on_c, 0, 63, 0
1, 3960, Note_on_c, 0, 67, 25
1, 4052, Control_c, 0, 64, 0
1, 4080, Note_on_c, 0, 67, 0
1, 4080, Note_on_c, 0, 79, 0
1, 4080, Note_on_c, 0, 79, 51
1, 4080, Note_on_c, 0, 58, 24
1, 4080, Note_on_c, 0, 63, 29
1, 4140, Note_on_c, 0, 79, 0
1, 4200, Note_on_c, 0, 63, 0
1, 4200, Note_on_c, 0, 58, 0
1, 4200, Note_on_c, 0, 67, 25
1, 4320, Note_on_c, 0, 67, 0
1, 4320, Note_on_c, 0, 81, 53
1, 4320, Note_on_c, 0, 60, 29
1, 4320, Note_on_c, 0, 63, 34
1, 4380, Note_on_c, 0, 81, 0
1, 4440, Note_on_c, 0, 63, 0
1, 4440, Note_on_c, 0, 60, 0
1, 4440, Note_on_c, 0, 65, 25
1, 4530, Note_on_c, 0, 94, 46
1, 4542, Control_c, 0, 64, 127
1, 4560, Tempo, 452625
1, 4560, Note_on_c, 0, 94, 0
1, 4560, Note_on_c, 0, 65, 0
1, 4560, Note_on_c, 0, 93, 52
1, 4560, Note_on_c, 0, 60, 24
1, 4560, Note_on_c, 0, 63, 29
1, 4680, Note_on_c, 0, 63, 0
1, 4680, Note_on_c, 0, 60, 0
1, 4680, Note_on_c, 0, 93, 0
1, 4680, Note_on_c, 0, 91, 51
1, 4680, Note_on_c, 0, 65, 25
1, 4800, Tempo, 458155
1, 4800, Note_on_c, 0, 65, 0
1, 4800, Note_on_c, 0, 91, 0
1, 4800, Note_on_c, 0, 93, 52
1, 4800, Note_on_c, 0, 60, 24
1, 4800, Note_on_c, 0, 63, 29
1, 4920, Note_on_c, 0, 63, 0
1, 4920, Note_on_c, 0, 60, 0
1, 4920, Note_on_c, 0, 65, 25
1, 5040, Note_on_c, 0, 65, 0
1, 5040, Note_on_c, 0, 93, 0
1, 5040, Note_on_c, 0, 94, 54
1, 5040, Note_on_c, 0, 58, 29
1, 5040, Note_on_c, 0, 62, 34
1, 5040, Control_c, 0, 64, 0
1, 5100, Note_on_c, 0, 94, 0
1, 5160, Note_on_c, 0, 62, 0
1, 5160, Note_on_c, 0, 58, 0
1, 5160, Note_on_c, 0, 65, 25
1, 5245, Control_c, 0, 64, 127
1, 5250, Note_on_c, 0, 84, 45
1, 5280, Tempo, 452625
1, 5280, Note_on_c, 0, 84, 0
1, 5280, Note_on_c, 0, 65, 0
1, 5280, Note_on_c, 0, 82, 51
1, 5280, Note_on_c, 0, 58, 24
1, 5280, Note_on_c, 0, 62, 29
1, 5400, Note_on_c, 0, 62, 0
1, 5400, Note_on_c, 0, 58, 0
1, 5400, Note_on_c, 0, 82, 0
1, 5400, Note_on_c, 0, 81, 47
1, 5400, Note_on_c, 0, 65, 25
1, 5520, Tempo, 484183
1, 5520, Note_on_c, 0, 65, 0
1, 5520, Note_on_c, 0, 81, 0
1, 5520, Note_on_c, 0, 82, 51
1, 5520, Note_on_c, 0, 58, 24
1, 5520, Note_on_c, 0, 62, 29
1, 5640, Note_on_c, 0, 62, 0
1, 5640, Note_on_c, 0, 58, 0
1, 5640, Note_on_c, 0, 82, 0
1, 5640, Note_on_c, 0, 65, 25
1, 5760, Tempo, 465477
1, 5760, Note_on_c, 0, 65, 0
1, 5760, Note_on_c, 0, 70, 34
1, 5760, Note_on_c, 0, 74, 40
1, 5760, Control_c, 0, 64, 0
1, 5760, Note_on_c, 0, 58, 48
1, 5880, Note_on_c, 0, 74, 0
1, 5880, Note_on_c, 0, 70, 0
1, 5880, Note_on_c, 0, 77, 35
1, 6000, Note_on_c, 0, 77, 0
1, 6000, Note_on_c, 0, 58, 0
1, 6000, Note_on_c, 0, 70, 34
1, 6000, Note_on_c, 0, 74, 41
1, 6000, Note_on_c, 0, 57, 40
1, 6120, Note_on_c, 0, 74, 0
1, 6120, Note_on_c, 0, 70, 0
1, 6120, Note_on_c, 0, 77, 34
1, 6240, Note_on_c, 0, 77, 0
1, 6240, Note_on_c, 0, 57, 0
1, 6240, Note_on_c, 0, 74, 41
1, 6240, Note_on_c, 0, 70, 34
1, 6240, Note_on_c, 0, 58, 40
1, 6360, Note_on_c, 0, 70, 0
1, 6360, Note_on_c, 0, 74, 0
1, 6360, Note_on_c, 0, 77, 35
1, 6480, Tempo, 456274
1, 6480, Note_on_c, 0, 77, 0
1, 6480, Note_on_c, 0, 58, 0
1, 6480, Note_on_c, 0, 70, 35
1, 6480, Note_on_c, 0, 74, 42
1, 6480, Note_on_c, 0, 55, 48
1, 6600, Note_on_c, 0, 74, 0
1, 6600, Note_on_c, 0, 70, 0
1, 6600, Note_on_c, 0, 79, 35
1, 6720, Tempo, 452625
1, 6720, Note_on_c, 0, 79, 0
1, 6720, Note_on_c, 0, 55, 0
1, 6720, Note_on_c, 0, 70, 34
1, 6720, Note_on_c, 0, 74, 41
1, 6720, Note_on_c, 0, 57, 39
1, 6840, Note_on_c, 0, 57, 0
1, 6840, Note_on_c, 0, 74, 0
1, 6840, Note_on_c, 0, 70, 0
1, 6840, Note_on_c, 0, 79, 34
1, 6840, Note_on_c, 0, 58, 39
1, 6960, Note_on_c, 0, 58, 0
1, 6960, Note_on_c, 0, 79, 0
1, 6960, Note_on_c, 0, 70, 34
1, 6960, Note_on_c, 0, 74, 41
1, 6960, Note_on_c, 0, 60, 40
1, 7080, Note_on_c, 0, 60, 0
1, 7080, Note_on_c, 0, 74, 0
1, 7080, Note_on_c, 0, 70, 0
1, 7080, Note_on_c, 0, 79, 34
1, 7080, Note_on_c, 0, 62, 40
1, 7200, Tempo, 458155
1, 7200, Note_on_c, 0, 62, 0
1, 7200, Note_on_c, 0, 79, 0
1, 7200, Note_on_c, 0, 70, 37
1, 7200, Note_on_c, 0, 74, 44
1, 7200, Note_on_c, 0, 58, 46
1, 7320, Note_on_c, 0, 74, 0
1, 7320, Note_on_c, 0, 70, 0
1, 7320, Note_on_c, 0, 77, 35
1, 7440, Tempo, 452625
1, 7440, Note_on_c, 0, 77, 0
1, 7440, Note_on_c, 0, 58, 0
1, 7440, Note_on_c, 0, 70, 34
1, 7440, Note_on_c, 0, 74, 41
1, 7440, Note_on_c, 0, 60, 44
1, 7560, Note_on_c, 0, 60, 0
1, 7560, Note_on_c, 0, 74, 0
1, 7560, Note_on_c, 0, 70, 0
1, 7560, Note_on_c, 0, 77, 34
1, 7560, Note_on_c, 0, 58, 40
1, 7680, Note_on_c, 0, 58, 0
1, 7680, Note_on_c, 0, 77, 0
1, 7680, Note_on_c, 0, 74, 41
1, 7680, Note_on_c, 0, 70, 34
1, 7680, Note_on_c, 0, 57, 44
1, 7800, Note_on_c, 0, 57, 0
1, 7800, Note_on_c, 0, 70, 0
1, 7800, Note_on_c, 0, 74, 0
1, 7800, Note_on_c, 0, 77, 34
1, 7800, Note_on_c, 0, 55, 40
1, 7920, Tempo, 463750
1, 7920, Note_on_c, 0, 55, 0
1, 7920, Note_on_c, 0, 77, 0
1, 7920, Note_on_c, 0, 75, 47
1, 7920, Note_on_c, 0, 69, 39
1, 7920, Note_on_c, 0, 53, 47
1, 7980, Note_on_c, 0, 53, 0
1, 8040, Note_on_c, 0, 69, 0
1, 8040, Note_on_c, 0, 75, 0
1, 8040, Note_on_c, 0, 77, 35
1, 8160, Note_on_c, 0, 77, 0
1, 8160, Note_on_c, 0, 75, 41
1, 8160, Note_on_c, 0, 69, 34
1, 8160, Note_on_c, 0, 53, 40
1, 8220, Note_on_c, 0, 53, 0
1, 8280, Note_on_c, 0, 69, 0
1, 8280, Note_on_c, 0, 75, 0
1, 8280, Note_on_c, 0, 77, 37
1, 8400, Tempo, 472776
1, 8400, Note_on_c, 0, 77, 0
1, 8400, Note_on_c, 0, 75, 41
1, 8400, Note_on_c, 0, 69, 34
1, 8400, Note_on_c, 0, 53, 40
1, 8460, Note_on_c, 0, 53, 0
1, 8520, Note_on_c, 0, 69, 0
1, 8520, Note_on_c, 0, 75, 0
1, 8520, Note_on_c, 0, 77, 35
1, 8640, Tempo, 463679
1, 8640, Note_on_c, 0, 77, 0
1, 8640, Note_on_c, 0, 69, 38
1, 8640, Note_on_c, 0, 75, 45
1, 8640, Note_on_c, 0, 54, 51
1, 8760, Note_on_c, 0, 75, 0
1, 8760, Note_on_c, 0, 69, 0
1, 8760, Note_on_c, 0, 81, 35
1, 8880, Note_on_c, 0, 81, 0
1, 8880, Note_on_c, 0, 54, 0
1, 8880, Note_on_c, 0, 69, 34
1, 8880, Note_on_c, 0, 75, 41
1, 8880, Note_on_c, 0, 66, 39
1, 9000, Note_on_c, 0, 75, 0
1, 9000, Note_on_c, 0, 69, 0
1, 9000, Note_on_c, 0, 81, 35
1, 9120, Tempo, 474608
1, 9120, Note_on_c, 0, 81, 0
1, 9120, Note_on_c, 0, 66, 0
1, 9120, Note_on_c, 0, 69, 34
1, 9120, Note_on_c, 0, 75, 41
1, 9120, Note_on_c, 0, 66, 41
1, 9180, Note_on_c, 0, 66, 0
1, 9240, Note_on_c, 0, 75, 0
1, 9240, Note_on_c, 0, 69, 0
1, 9240, Note_on_c, 0, 81, 35
1, 9360, Tempo, 463679
1, 9360, Note_on_c, 0, 81, 0
1, 9360, Note_on_c, 0, 75, 44
1, 9360, Note_on_c, 0, 70, 37
1, 9360, Note_on_c, 0, 67, 51
1, 9480, Note_on_c, 0, 70, 0
1, 9480, Note_on_c, 0, 75, 0
1, 9480, Note_on_c, 0, 82, 35
1, 9600, Note_on_c, 0, 82, 0
1, 9600, Note_on_c, 0, 67, 0
1, 9600, Note_on_c, 0, 70, 34
1, 9600, Note_on_c, 0, 75, 41
1, 9600, Note_on_c, 0, 55, 45
1, 9720, Note_on_c, 0, 75, 0
1, 9720, Note_on_c, 0, 70, 0
1, 9720, Note_on_c, 0, 81, 35
1, 9840, Note_on_c, 0, 81, 0
1, 9840, Note_on_c, 0, 55, 0
1, 9840, Note_on_c, 0, 70, 34
1, 9840, Note_on_c, 0, 75, 41
1, 9840, Note_on_c, 0, 55, 46
1, 9900, Note_on_c, 0, 55, 0
1, 9960, Note_on_c, 0, 75, 0
1, 9960, Note_on_c, 0, 70, 0
1, 9960, Note_on_c, 0, 79, 35
1, 10080, Note_on_c, 0, 79, 0
1, 10080, Note_on_c, 0, 68, 34
1, 10080, Note_on_c, 0, 74, 41
1, 10080, Note_on_c, 0, 58, 51
1, 10140, Note_on_c, 0, 58, 0
1, 10200, Note_on_c, 0, 74, 0
1, 10200, Note_on_c, 0, 68, 0
1, 10200, Note_on_c, 0, 77, 35
1, 10260, Note_on_c, 0, 48, 39
1, 10320, Tempo, 452625
1, 10320, Note_on_c, 0, 77, 0
1, 10320, Note_on_c, 0, 68, 34
1, 10320, Note_on_c, 0, 74, 41
1, 10320, Note_on_c, 0, 46, 46
1, 10340, Note_on_c, 0, 48, 0
1, 10440, Note_on_c, 0, 68, 0
1, 10440, Note_on_c, 0, 74, 0
1, 10440, Note_on_c, 0, 77, 35
1, 10440, Note_on_c, 0, 45, 42
1, 10460, Note_on_c, 0, 46, 0
1, 10560, Tempo, 491884
1, 10560, Note_on_c, 0, 77, 0
1, 10560, Note_on_c, 0, 74, 41
1, 10560, Note_on_c, 0, 68, 34
1, 10560, Note_on_c, 0, 46, 45
1, 10580, Note_on_c, 0, 45, 0
1, 10680, Note_on_c, 0, 74, 0
1, 10680, Note_on_c, 0, 68, 0
1, 10680, Note_on_c, 0, 77, 35
1, 10800, Tempo, 461787
1, 10800, Note_on_c, 0, 77, 0
1, 10800, Note_on_c, 0, 46, 0
1, 10800, Note_on_c, 0, 75, 41
1, 10800, Note_on_c, 0, 67, 34
1, 10800, Note_on_c, 0, 51, 42
1, 10860, Note_on_c, 0, 51, 0
1, 10920, Note_on_c, 0, 67, 0
1, 10920, Note_on_c, 0, 75, 0
1, 10920, Note_on_c, 0, 79, 35
1, 10980, Note_on_c, 0, 41, 37
1, 11040, Tempo, 452625
1, 11040, Note_on_c, 0, 79, 0
1, 11040, Note_on_c, 0, 75, 41
1, 11040, Note_on_c, 0, 67, 34
1, 11040, Note_on_c, 0, 39, 42
1, 11060, Note_on_c, 0, 41, 0
1, 11160, Note_on_c, 0, 75, 0
1, 11160, Note_on_c, 0, 67, 0
1, 11160, Note_on_c, 0, 79, 35
1, 11160, Note_on_c, 0, 38, 39
1, 11180, Note_on_c, 0, 39, 0
1, 11280, Tempo, 487171
1, 11280, Note_on_c, 0, 79, 0
1, 11280, Note_on_c, 0, 75, 41
1, 11280, Note_on_c, 0, 67, 34
1, 11280, Note_on_c, 0, 39, 42
1, 11300, Note_on_c, 0, 38, 0
1, 11400, Note_on_c, 0, 75, 0
1, 11400, Note_on_c, 0, 67, 0
1, 11400, Note_on_c, 0, 39, 0
1, 11520, Tempo, 492045
1, 11520, Note_on_c, 0, 82, 56
1, 11520, Note_on_c, 0, 63, 29
1, 11520, Note_on_c, 0, 67, 34
1, 11570, Control_c, 0, 64, 127
1, 11580, Note_on_c, 0, 82, 0
1, 11640, Note_on_c, 0, 67, 0
1, 11640, Note_on_c, 0, 63, 0
1, 11640, Note_on_c, 0, 70, 28
1, 11697, Control_c, 0, 64, 0
1, 11700, Note_on_c, 0, 80, 50
1, 11734, Control_c, 0, 64, 127
1, 11760, Note_on_c, 0, 80, 0
1, 11760, Note_on_c, 0, 70, 0
1, 11760, Note_on_c, 0, 79, 56
1, 11760, Note_on_c, 0, 63, 26
1, 11760, Note_on_c, 0, 67, 32
1, 11761, Tempo, 452625
1, 11880, Note_on_c, 0, 67, 0
1, 11880, Note_on_c, 0, 63, 0
1, 11880, Note_on_c, 0, 79, 0
1, 11880, Note_on_c, 0, 77, 52
1, 11880, Note_on_c, 0, 70, 28
1, 12000, Note_on_c, 0, 70, 0
1, 12000, Note_on_c, 0, 77, 0
1, 12000, Note_on_c, 0, 79, 56
1, 12000, Note_on_c, 0, 63, 26
1, 12000, Note_on_c, 0, 67, 32
1, 12001, Tempo, 458155
1, 12015, Control_c, 0, 64, 0
1, 12031, Control_c, 0, 64, 127
1, 12120, Note_on_c, 0, 67, 0
1, 12120, Note_on_c, 0, 63, 0
1, 12120, Note_on_c, 0, 70, 28
1, 12240, Tempo, 482199
1, 12240, Note_on_c, 0, 70, 0
1, 12240, Note_on_c, 0, 79, 0
1, 12240, Note_on_c, 0, 82, 56
1, 12240, Note_on_c, 0, 62, 26
1, 12240, Note_on_c, 0, 65, 32
1, 12255, Control_c, 0, 64, 0
1, 12290, Control_c, 0, 64, 127
1, 12300, Note_on_c, 0, 82, 0
1, 12360, Note_on_c, 0, 65, 0
1, 12360, Note_on_c, 0, 62, 0
1, 12360, Note_on_c, 0, 70, 28
1, 12420, Note_on_c, 0, 79, 49
1, 12424, Control_c, 0, 64, 0
1, 12459, Control_c, 0, 64, 127
1, 12480, Note_on_c, 0, 79, 0
1, 12480, Note_on_c, 0, 70, 0
1, 12480, Note_on_c, 0, 77, 56
1, 12480, Note_on_c, 0, 62, 26
1, 12480, Note_on_c, 0, 65, 32
1, 12481, Tempo, 452625
1, 12600, Note_on_c, 0, 65, 0
1, 12600, Note_on_c, 0, 62, 0
1, 12600, Note_on_c, 0, 77, 0
1, 12600, Note_on_c, 0, 76, 52
1, 12600, Note_on_c, 0, 70, 28
1, 12720, Tempo, 467108
1, 12720, Note_on_c, 0, 70, 0
1, 12720, Note_on_c, 0, 76, 0
1, 12720, Note_on_c, 0, 77, 56
1, 12720, Note_on_c, 0, 61, 26
1, 12720, Note_on_c, 0, 65, 32
1, 12724, Control_c, 0, 64, 0
1, 12769, Control_c, 0, 64, 127
1, 12840, Note_on_c, 0, 65, 0
1, 12840, Note_on_c, 0, 61, 0
1, 12840, Note_on_c, 0, 70, 28
1, 12960, Tempo, 482199
1, 12960, Note_on_c, 0, 70, 0
1, 12960, Note_on_c, 0, 77, 0
1, 12960, Note_on_c, 0, 84, 58
1, 12960, Note_on_c, 0, 60, 26
1, 12960, Note_on_c, 0, 65, 32
1, 12975, Control_c, 0, 64, 0
1, 12991, Control_c, 0, 64, 0
1, 13010, Control_c, 0, 64, 127
1, 13080, Note_on_c, 0, 65, 0
1, 13080, Note_on_c, 0, 60, 0
1, 13080, Note_on_c, 0, 68, 28
1, 13200, Note_on_c, 0, 68, 0
1, 13200, Note_on_c, 0, 84, 0
1, 13200, Note_on_c, 0, 82, 59
1, 13200, Note_on_c, 0, 60, 26
1, 13200, Note_on_c, 0, 65, 32
1, 13201, Tempo, 452625
1, 13218, Control_c, 0, 64, 0
1, 13309, Control_c, 0, 64, 127
1, 13320, Note_on_c, 0, 65, 0
1, 13320, Note_on_c, 0, 60, 0
1, 13320, Note_on_c, 0, 82, 0
1, 13320, Note_on_c, 0, 80, 54
1, 13320, Note_on_c, 0, 68, 28
1, 13440, Tempo, 478965
1, 13440, Note_on_c, 0, 68, 0
1, 13440, Note_on_c, 0, 80, 0
1, 13440, Note_on_c, 0, 79, 58
1, 13440, Note_on_c, 0, 60, 26
1, 13440, Note_on_c, 0, 65, 32
1, 13560, Note_on_c, 0, 65, 0
1, 13560, Note_on_c, 0, 60, 0
1, 13560, Note_on_c, 0, 79, 0
1, 13560, Note_on_c, 0, 77, 58
1, 13560, Note_on_c, 0, 68, 28
1, 13680, Tempo, 491400
1, 13680, Note_on_c, 0, 68, 0
1, 13680, Note_on_c, 0, 77, 0
1, 13680, Note_on_c, 0, 84, 58
1, 13680, Note_on_c, 0, 60, 26
1, 13680, Note_on_c, 0, 65, 32
1, 13680, Control_c, 0, 64, 0
1, 13695, Control_c, 0, 64, 0
1, 13730, Control_c, 0, 64, 127
1, 13800, Note_on_c, 0, 65, 0
1, 13800, Note_on_c, 0, 60, 0
1, 13800, Note_on_c, 0, 67, 28
1, 13920, Tempo, 472962
1, 13920, Note_on_c, 0, 67, 0
1, 13920, Note_on_c, 0, 84, 0
1, 13920, Note_on_c, 0, 72, 56
1, 13920, Note_on_c, 0, 60, 26
1, 13920, Note_on_c, 0, 64, 32
1, 13926, Control_c, 0, 64, 0
1, 13954, Control_c, 0, 64, 127
1, 14040, Note_on_c, 0, 64, 0
1, 14040, Note_on_c, 0, 60, 0
1, 14040, Note_on_c, 0, 67, 28
1, 14160, Note_on_c, 0, 67, 0
1, 14160, Note_on_c, 0, 72, 0
1, 14160, Note_on_c, 0, 72, 56
1, 14160, Note_on_c, 0, 60, 26
1, 14160, Note_on_c, 0, 64, 32
1, 14280, Note_on_c, 0, 64, 0
1, 14280, Note_on_c, 0, 60, 0
1, 14280, Note_on_c, 0, 67, 30
1, 14400, Tempo, 480962
1, 14400, Note_on_c, 0, 67, 0
1, 14400, Note_on_c, 0, 72, 0
1, 14400, Note_on_c, 0, 68, 37
1, 14400, Note_on_c, 0, 72, 44
1, 14400, Note_on_c, 0, 56, 37
1, 14400, Control_c, 0, 64, 0
1, 14400, Note_on_c, 0, 60, 44
1, 14520, Note_on_c, 0, 72, 0
1, 14520, Note_on_c, 0, 68, 0
1, 14520, Note_on_c, 0, 75, 39
1, 14640, Tempo, 478965
1, 14640, Note_on_c, 0, 75, 0
1, 14640, Note_on_c, 0, 60, 0
1, 14640, Note_on_c, 0, 68, 38
1, 14640, Note_on_c, 0, 72, 45
1, 14640, Note_on_c, 0, 61, 40
1, 14760, Note_on_c, 0, 72, 0
1, 14760, Note_on_c, 0, 68, 0
1, 14760, Note_on_c, 0, 75, 38
1, 14880, Tempo, 485084
1, 14880, Note_on_c, 0, 75, 0
1, 14880, Note_on_c, 0, 61, 0
1, 14880, Note_on_c, 0, 68, 38
1, 14880, Note_on_c, 0, 72, 45
1, 14880, Note_on_c, 0, 60, 40
1, 15000, Note_on_c, 0, 72, 0
1, 15000, Note_on_c, 0, 68, 0
1, 15000, Note_on_c, 0, 75, 39
1, 15080, Tempo, 474947
1, 15120, Tempo, 480962
1, 15120, Note_on_c, 0, 75, 0
1, 15120, Note_on_c, 0, 56, 0
1, 15120, Note_on_c, 0, 60, 0
1, 15120, Note_on_c, 0, 68, 37
1, 15120, Note_on_c, 0, 77, 44
1, 15120, Note_on_c, 0, 49, 37
1, 15120, Note_on_c, 0, 58, 44
1, 15240, Note_on_c, 0, 77, 0
1, 15240, Note_on_c, 0, 68, 0
1, 15240, Note_on_c, 0, 80, 39
1, 15360, Tempo, 474947
1, 15360, Note_on_c, 0, 80, 0
1, 15360, Note_on_c, 0, 58, 0
1, 15360, Note_on_c, 0, 68, 39
1, 15360, Note_on_c, 0, 77, 47
1, 15360, Note_on_c, 0, 53, 42
1, 15480, Note_on_c, 0, 77, 0
1, 15480, Note_on_c, 0, 68, 0
1, 15480, Note_on_c, 0, 80, 39
1, 15600, Note_on_c, 0, 80, 0
1, 15600, Note_on_c, 0, 53, 0
1, 15600, Note_on_c, 0, 68, 41
1, 15600, Note_on_c, 0, 77, 49
1, 15600, Note_on_c, 0, 55, 44
1, 15720, Tempo, 483014
1, 15720, Note_on_c, 0, 77, 0
1, 15720, Note_on_c, 0, 68, 0
1, 15720, Note_on_c, 0, 80, 43
1, 15780, Note_on_c, 0, 58, 44
1, 15840, Tempo, 474608
1, 15840, Note_on_c, 0, 58, 0
1, 15840, Note_on_c, 0, 55, 0
1, 15840, Note_on_c, 0, 49, 0
1, 15840, Note_on_c, 0, 80, 0
1, 15840, Note_on_c, 0, 68, 37
1, 15840, Note_on_c, 0, 72, 44
1, 15840, Note_on_c, 0, 51, 37
1, 15840, Note_on_c, 0, 56, 44
1, 15960, Note_on_c, 0, 72, 0
1, 15960, Note_on_c, 0, 68, 0
1, 15960, Note_on_c, 0, 75, 38
1, 16080, Note_on_c, 0, 75, 0
1, 16080, Note_on_c, 0, 56, 0
1, 16080, Note_on_c, 0, 68, 35
1, 16080, Note_on_c, 0, 72, 42
1, 16080, Note_on_c, 0, 55, 38
1, 16200, Note_on_c, 0, 72, 0
1, 16200, Note_on_c, 0, 68, 0
1, 16200, Note_on_c, 0, 75, 34
1, 16320, Tempo, 487171
1, 16320, Note_on_c, 0, 75, 0
1, 16320, Note_on_c, 0, 55, 0
1, 16320, Note_on_c, 0, 68, 34
1, 16320, Note_on_c, 0, 72, 40
1, 16320, Note_on_c, 0, 56, 35
1, 16440, Note_on_c, 0, 72, 0
1, 16440, Note_on_c, 0, 68, 0
1, 16440, Note_on_c, 0, 75, 33
1, 16560, Tempo, 476948
1, 16560, Note_on_c, 0, 75, 0
1, 16560, Note_on_c, 0, 56, 0
1, 16560, Note_on_c, 0, 67, 31
1, 16560, Note_on_c, 0, 73, 37
1, 16560, Note_on_c, 0, 58, 37
1, 16680, Tempo, 478965
1, 16680, Note_on_c, 0, 73, 0
1, 16680, Note_on_c, 0, 67, 0
1, 16680, Note_on_c, 0, 75, 32
1, 16760, Tempo, 480962
1, 16800, Note_on_c, 0, 75, 0
1, 16800, Note_on_c, 0, 67, 31
1, 16800, Note_on_c, 0, 73, 38
1, 16880, Tempo, 483014
1, 16920, Note_on_c, 0, 73, 0
1, 16920, Note_on_c, 0, 67, 0
1, 16920, Note_on_c, 0, 75, 31
1, 16960, Tempo, 485084
1, 17040, Note_on_c, 0, 75, 0
1, 17040, Note_on_c, 0, 58, 0
1, 17040, Note_on_c, 0, 67, 31
1, 17040, Note_on_c, 0, 73, 38
1, 17040, Note_on_c, 0, 59, 34
1, 17080, Tempo, 487171
1, 17160, Tempo, 489277
1, 17160, Note_on_c, 0, 73, 0
1, 17160, Note_on_c, 0, 67, 0
1, 17160, Note_on_c, 0, 75, 32
1, 17240, Tempo, 491400
1, 17280, Tempo, 492045
1, 17280, Note_on_c, 0, 75, 0
1, 17280, Note_on_c, 0, 51, 0
1, 17280, Note_on_c, 0, 59, 0
1, 17280, Note_on_c, 0, 68, 47
1, 17280, Note_on_c, 0, 72, 47
1, 17280, Note_on_c, 0, 75, 56
1, 17280, Note_on_c, 0, 56, 29
1, 17280, Note_on_c, 0, 60, 34
1, 17330, Control_c, 0, 64, 127
1, 17340, Note_on_c, 0, 75, 0
1, 17340, Note_on_c, 0, 68, 0
1, 17340, Note_on_c, 0, 72, 0
1, 17400, Note_on_c, 0, 56, 0
1, 17400, Note_on_c, 0, 60, 0
1, 17400, Note_on_c, 0, 63, 28
1, 17460, Note_on_c, 0, 73, 48
1, 17520, Note_on_c, 0, 73, 0
1, 17520, Note_on_c, 0, 63, 0
1, 17520, Note_on_c, 0, 72, 56
1, 17520, Note_on_c, 0, 56, 26
1, 17520, Note_on_c, 0, 60, 32
1, 17521, Tempo, 452625
1, 17527, Control_c, 0, 64, 0
1, 17549, Control_c, 0, 64, 127
1, 17640, Note_on_c, 0, 60, 0
1, 17640, Note_on_c, 0, 56, 0
1, 17640, Note_on_c, 0, 72, 0
1, 17640, Note_on_c, 0, 70, 52
1, 17640, Note_on_c, 0, 63, 28
1, 17760, Note_on_c, 0, 63, 0
1, 17760, Note_on_c, 0, 70, 0
1, 17760, Note_on_c, 0, 72, 56
1, 17760, Note_on_c, 0, 56, 26
1, 17760, Note_on_c, 0, 60, 32
1, 17761, Tempo, 458155
1, 17763, Control_c, 0, 64, 0
1, 17789, Control_c, 0, 64, 127
1, 17880, Note_on_c, 0, 60, 0
1, 17880, Note_on_c, 0, 56, 0
1, 17880, Note_on_c, 0, 63, 28
1, 18000, Tempo, 482199
1, 18000, Note_on_c, 0, 63, 0
1, 18000, Note_on_c, 0, 72, 0
1, 18000, Note_on_c, 0, 75, 56
1, 18000, Note_on_c, 0, 55, 26
1, 18000, Note_on_c, 0, 58, 32
1, 18000, Control_c, 0, 64, 0
1, 18015, Control_c, 0, 64, 0
1, 18050, Control_c, 0, 64, 127
1, 18060, Note_on_c, 0, 75, 0
1, 18120, Note_on_c, 0, 58, 0
1, 18120, Note_on_c, 0, 55, 0
1, 18120, Note_on_c, 0, 63, 28
1, 18180, Note_on_c, 0, 72, 48
1, 18240, Note_on_c, 0, 72, 0
1, 18240, Note_on_c, 0, 63, 0
1, 18240, Note_on_c, 0, 70, 56
1, 18240, Note_on_c, 0, 55, 26
1, 18240, Note_on_c, 0, 58, 32
1, 18241, Tempo, 452625
1, 18244, Control_c, 0, 64, 0
1, 18286, Control_c, 0, 64, 127
1, 18360, Note_on_c, 0, 58, 0
1, 18360, Note_on_c, 0, 55, 0
1, 18360, Note_on_c, 0, 70, 0
1, 18360, Note_on_c, 0, 69, 52
1, 18360, Note_on_c, 0, 63, 28
1, 18459, Control_c, 0, 64, 0
1, 18480, Tempo, 467108
1, 18480, Note_on_c, 0, 63, 0
1, 18480, Note_on_c, 0, 69, 0
1, 18480, Note_on_c, 0, 70, 56
1, 18480, Note_on_c, 0, 54, 26
1, 18480, Note_on_c, 0, 58, 32
1, 18494, Control_c, 0, 64, 127
1, 18600, Note_on_c, 0, 58, 0
1, 18600, Note_on_c, 0, 54, 0
1, 18600, Note_on_c, 0, 63, 28
1, 18720, Tempo, 482199
1, 18720, Note_on_c, 0, 63, 0
1, 18720, Note_on_c, 0, 70, 0
1, 18720, Note_on_c, 0, 77, 58
1, 18720, Note_on_c, 0, 53, 26
1, 18720, Note_on_c, 0, 58, 32
1, 18720, Control_c, 0, 64, 0
1, 18735, Control_c, 0, 64, 0
1, 18770, Control_c, 0, 64, 127
1, 18840, Note_on_c, 0, 58, 0
1, 18840, Note_on_c, 0, 53, 0
1, 18840, Note_on_c, 0, 61, 28
1, 18960, Note_on_c, 0, 61, 0
1, 18960, Note_on_c, 0, 77, 0
1, 18960, Note_on_c, 0, 75, 59
1, 18960, Note_on_c, 0, 53, 26
1, 18960, Note_on_c, 0, 58, 32
1, 18961, Tempo, 452625
1, 18980, Control_c, 0, 64, 0
1, 19011, Control_c, 0, 64, 127
1, 19080, Note_on_c, 0, 58, 0
1, 19080, Note_on_c, 0, 53, 0
1, 19080, Note_on_c, 0, 75, 0
1, 19080, Note_on_c, 0, 73, 54
1, 19080, Note_on_c, 0, 61, 28
1, 19200, Tempo, 476948
1, 19200, Note_on_c, 0, 61, 0
1, 19200, Note_on_c, 0, 73, 0
1, 19200, Note_on_c, 0, 72, 58
1, 19200, Note_on_c, 0, 53, 26
1, 19200, Note_on_c, 0, 58, 32
1, 19320, Note_on_c, 0, 58, 0
1, 19320, Note_on_c, 0, 53, 0
1, 19320, Note_on_c, 0, 72, 0
1, 19320, Note_on_c, 0, 70, 58
1, 19320, Note_on_c, 0, 61, 28
1, 19440, Tempo, 487171
1, 19440, Note_on_c, 0, 61, 0
1, 19440, Note_on_c, 0, 70, 0
1, 19440, Note_on_c, 0, 77, 58
1, 19440, Note_on_c, 0, 53, 26
1, 19440, Note_on_c, 0, 58, 32
1, 19440, Control_c, 0, 64, 0
1, 19455, Control_c, 0, 64, 0
1, 19490, Control_c, 0, 64, 127
1, 19560, Note_on_c, 0, 58, 0
1, 19560, Note_on_c, 0, 53, 0
1, 19560, Note_on_c, 0, 60, 28
1, 19680, Tempo, 474947
1, 19680, Note_on_c, 0, 60, 0
1, 19680, Note_on_c, 0, 77, 0
1, 19680, Note_on_c, 0, 65, 56
1, 19680, Note_on_c, 0, 53, 26
1, 19680, Note_on_c, 0, 57, 32
1, 19686, Control_c, 0, 64, 0
1, 19714, Control_c, 0, 64, 127
1, 19800, Note_on_c, 0, 57, 0
1, 19800, Note_on_c, 0, 53, 0
1, 19800, Note_on_c, 0, 60, 28
1, 19920, Note_on_c, 0, 60, 0
1, 19920, Note_on_c, 0, 65, 0
1, 19920, Note_on_c, 0, 65, 56
1, 19920, Note_on_c, 0, 53, 26
1, 19920, Note_on_c, 0, 57, 32
1, 20040, Note_on_c, 0, 57, 0
1, 20040, Note_on_c, 0, 53, 0
1, 20040, Note_on_c, 0, 60, 30
1, 20160, Tempo, 480962
1, 20160, Note_on_c, 0, 60, 0
1, 20160, Note_on_c, 0, 65, 0
1, 20160, Note_on_c, 0, 73, 37
1, 20160, Note_on_c, 0, 77, 44
1, 20160, Note_on_c, 0, 61, 37
1, 20160, Control_c, 0, 64, 0
1, 20160, Note_on_c, 0, 65, 44
1, 20280, Note_on_c, 0, 77, 0
1, 20280, Note_on_c, 0, 73, 0
1, 20280, Note_on_c, 0, 80, 39
1, 20400, Tempo, 478965
1, 20400, Note_on_c, 0, 80, 0
1, 20400, Note_on_c, 0, 65, 0
1, 20400, Note_on_c, 0, 73, 38
1, 20400, Note_on_c, 0, 77, 45
1, 20400, Note_on_c, 0, 66, 40
1, 20520, Note_on_c, 0, 77, 0
1, 20520, Note_on_c, 0, 73, 0
1, 20520, Note_on_c, 0, 80, 38
1, 20640, Tempo, 476948
1, 20640, Note_on_c, 0, 80, 0
1, 20640, Note_on_c, 0, 66, 0
1, 20640, Note_on_c, 0, 73, 38
1, 20640, Note_on_c, 0, 77, 45
1, 20640, Note_on_c, 0, 65, 40
1, 20760, Note_on_c, 0, 77, 0
1, 20760, Note_on_c, 0, 73, 0
1, 20760, Note_on_c, 0, 80, 39
1, 20840, Tempo, 474947
1, 20880, Tempo, 485084
1, 20880, Note_on_c, 0, 80, 0
1, 20880, Note_on_c, 0, 61, 0
1, 20880, Note_on_c, 0, 65, 0
1, 20880, Note_on_c, 0, 73, 37
1, 20880, Note_on_c, 0, 82, 44
1, 20880, Note_on_c, 0, 54, 37
1, 20880, Note_on_c, 0, 63, 44
1, 21000, Note_on_c, 0, 82, 0
1, 21000, Note_on_c, 0, 73, 0
1, 21000, Note_on_c, 0, 85, 39
1, 21120, Tempo, 472962
1, 21120, Note_on_c, 0, 85, 0
1, 21120, Note_on_c, 0, 63, 0
1, 21120, Note_on_c, 0, 73, 39
1, 21120, Note_on_c, 0, 82, 47
1, 21120, Note_on_c, 0, 58, 42
1, 21240, Note_on_c, 0, 82, 0
1, 21240, Note_on_c, 0, 73, 0
1, 21240, Note_on_c, 0, 85, 39
1, 21360, Note_on_c, 0, 85, 0
1, 21360, Note_on_c, 0, 58, 0
1, 21360, Note_on_c, 0, 73, 41
1, 21360, Note_on_c, 0, 82, 49
1, 21360, Note_on_c, 0, 60, 44
1, 21480, Tempo, 483014
1, 21480, Note_on_c, 0, 82, 0
1, 21480, Note_on_c, 0, 73, 0
1, 21480, Note_on_c, 0, 85, 43
1, 21540, Note_on_c, 0, 63, 41
1, 21600, Tempo, 474608
1, 21600, Note_on_c, 0, 63, 0
1, 21600, Note_on_c, 0, 60, 0
1, 21600, Note_on_c, 0, 54, 0
1, 21600, Note_on_c, 0, 85, 0
1, 21600, Note_on_c, 0, 73, 37
1, 21600, Note_on_c, 0, 77, 44
1, 21600, Note_on_c, 0, 56, 37
1, 21600, Note_on_c, 0, 61, 44
1, 21720, Note_on_c, 0, 77, 0
1, 21720, Note_on_c, 0, 73, 0
1, 21720, Note_on_c, 0, 80, 38
1, 21840, Note_on_c, 0, 80, 0
1, 21840, Note_on_c, 0, 61, 0
1, 21840, Note_on_c, 0, 73, 35
1, 21840, Note_on_c, 0, 77, 42
1, 21840, Note_on_c, 0, 60, 38
1, 21960, Note_on_c, 0, 77, 0
1, 21960, Note_on_c, 0, 73, 0
1, 21960, Note_on_c, 0, 80, 34
1, 22080, Note_on_c, 0, 80, 0
1, 22080, Note_on_c, 0, 60, 0
1, 22080, Note_on_c, 0, 73, 34
1, 22080, Note_on_c, 0, 77, 40
1, 22080, Note_on_c, 0, 61, 35
1, 22200, Note_on_c, 0, 77, 0
1, 22200, Note_on_c, 0, 73, 0
1, 22200, Note_on_c, 0, 80, 33
1, 22320, Tempo, 472776
1, 22320, Note_on_c, 0, 80, 0
1, 22320, Note_on_c, 0, 61, 0
1, 22320, Note_on_c, 0, 72, 31
1, 22320, Note_on_c, 0, 78, 37
1, 22320, Note_on_c, 0, 63, 37
1, 22430, Tempo, 474608
1, 22440, Note_on_c, 0, 78, 0
1, 22440, Note_on_c, 0, 72, 0
1, 22440, Note_on_c, 0, 80, 32
1, 22530, Tempo, 476531
1, 22560, Note_on_c, 0, 80, 0
1, 22560, Note_on_c, 0, 72, 31
1, 22560, Note_on_c, 0, 78, 38
1, 22630, Tempo, 478354
1, 22680, Note_on_c, 0, 78, 0
1, 22680, Note_on_c, 0, 72, 0
1, 22680, Note_on_c, 0, 80, 31
1, 22740, Tempo, 480384
1, 22800, Note_on_c, 0, 80, 0
1, 22800, Note_on_c, 0, 63, 0
1, 22800, Note_on_c, 0, 72, 31
1, 22800, Note_on_c, 0, 78, 38
1, 22800, Note_on_c, 0, 64, 34
1, 22840, Tempo, 482199
1, 22920, Note_on_c, 0, 78, 0
1, 22920, Note_on_c, 0, 72, 0
1, 22920, Note_on_c, 0, 80, 32
1, 22940, Tempo, 484183
1, 23040, Note_on_c, 0, 80, 0
1, 23040, Note_on_c, 0, 56, 0
1, 23040, Note_on_c, 0, 64, 0
1, 23040, Note_on_c, 0, 73, 31
1, 23040, Note_on_c, 0, 77, 31
1, 23040, Note_on_c, 0, 80, 37
1, 23040, Note_on_c, 0, 61, 29
1, 23040, Note_on_c, 0, 65, 34
1, 23100, Note_on_c, 0, 65, 0
1, 23100, Note_on_c, 0, 61, 0
1, 23280, Tempo, 489277
1, 23280, Note_on_c, 0, 73, 0
1, 23280, Note_on_c, 0, 77, 0
1, 23280, Note_on_c, 0, 80, 0
1, 23280, Note_on_c, 0, 49, 28
1, 23340, Note_on_c, 0, 49, 0
1, 23520, Tempo, 504498
1, 23520, Note_on_c, 0, 49, 28
1, 23580, Note_on_c, 0, 49, 0
1, 23760, Tempo, 483014
1, 23760, Note_on_c, 0, 61, 26
1, 23763, Note_on_c, 0, 65, 32
1, 23820, Note_on_c, 0, 61, 0
1, 23823, Note_on_c, 0, 65, 0
1, 24000, Tempo, 491400
1, 24000, Note_on_c, 0, 49, 28
1, 24060, Note_on_c, 0, 49, 0
1, 24240, Tempo, 502260
1, 24240, Note_on_c, 0, 49, 28
1, 24300, Note_on_c, 0, 49, 0
1, 24420, Note_on_c, 0, 73, 40
1, 24450, Note_on_c, 0, 77, 40
1, 24480, Tempo, 467108
1, 24480, Note_on_c, 0, 80, 51
1, 24480, Note_on_c, 0, 61, 28
1, 24480, Note_on_c, 0, 65, 33
1, 24540, Note_on_c, 0, 65, 0
1, 24540, Note_on_c, 0, 61, 0
1, 24600, Note_on_c, 0, 73, 0
1, 24600, Note_on_c, 0, 77, 0
1, 24600, Note_on_c, 0, 80, 0
1, 24720, Tempo, 461432
1, 24720, Note_on_c, 0, 78, 40
1, 24720, Note_on_c, 0, 49, 28
1, 24780, Note_on_c, 0, 49, 0
1, 24840, Note_on_c, 0, 78, 0
1, 24840, Note_on_c, 0, 77, 40
1, 24960, Tempo, 483014
1, 24960, Note_on_c, 0, 77, 0
1, 24960, Note_on_c, 0, 75, 40
1, 24960, Note_on_c, 0, 49, 28
1, 25020, Note_on_c, 0, 49, 0
1, 25080, Note_on_c, 0, 75, 0
1, 25080, Note_on_c, 0, 73, 40
1, 25140, Note_on_c, 0, 68, 40
1, 25170, Note_on_c, 0, 72, 40
1, 25200, Tempo, 465224
1, 25200, Note_on_c, 0, 73, 0
1, 25200, Note_on_c, 0, 75, 49
1, 25200, Note_on_c, 0, 61, 28
1, 25200, Note_on_c, 0, 66, 34
1, 25260, Note_on_c, 0, 66, 0
1, 25260, Note_on_c, 0, 61, 0
1, 25320, Note_on_c, 0, 68, 0
1, 25320, Note_on_c, 0, 72, 0
1, 25320, Note_on_c, 0, 75, 0
1, 25440, Tempo, 461432
1, 25440, Note_on_c, 0, 73, 40
1, 25440, Note_on_c, 0, 49, 28
1, 25500, Note_on_c, 0, 49, 0
1, 25560, Note_on_c, 0, 73, 0
1, 25560, Note_on_c, 0, 72, 40
1, 25680, Tempo, 478965
1, 25680, Note_on_c, 0, 72, 0
1, 25680, Note_on_c, 0, 70, 40
1, 25680, Note_on_c, 0, 49, 28
1, 25740, Note_on_c, 0, 49, 0
1, 25800, Note_on_c, 0, 70, 0
1, 25800, Note_on_c, 0, 68, 40
1, 25860, Note_on_c, 0, 73, 40
1, 25890, Note_on_c, 0, 77, 40
1, 25920, Tempo, 487171
1, 25920, Note_on_c, 0, 68, 0
1, 25920, Note_on_c, 0, 80, 53
1, 25920, Note_on_c, 0, 61, 28
1, 25920, Note_on_c, 0, 65, 33
1, 25980, Note_on_c, 0, 65, 0
1, 25980, Note_on_c, 0, 61, 0
1, 26040, Note_on_c, 0, 73, 0
1, 26040, Note_on_c, 0, 77, 0
1, 26040, Note_on_c, 0, 80, 0
1, 26160, Tempo, 461432
1, 26160, Note_on_c, 0, 78, 42
1, 26160, Note_on_c, 0, 49, 28
1, 26220, Note_on_c, 0, 49, 0
1, 26280, Note_on_c, 0, 78, 0
1, 26280, Note_on_c, 0, 77, 45
1, 26400, Note_on_c, 0, 77, 0
1, 26400, Note_on_c, 0, 75, 47
1, 26400, Note_on_c, 0, 49, 33
1, 26460, Note_on_c, 0, 49, 0
1, 26520, Note_on_c, 0, 75, 0
1, 26520, Note_on_c, 0, 73, 51
1, 26640, Tempo, 478965
1, 26640, Note_on_c, 0, 73, 0
1, 26640, Note_on_c, 0, 85, 57
1, 26640, Note_on_c, 0, 82, 57
1, 26640, Note_on_c, 0, 78, 57
1, 26640, Note_on_c, 0, 61, 31
1, 26640, Note_on_c, 0, 66, 38
1, 26700, Note_on_c, 0, 66, 0
1, 26700, Note_on_c, 0, 78, 0
1, 26700, Note_on_c, 0, 85, 0
1, 26700, Note_on_c, 0, 82, 0
1, 26700, Note_on_c, 0, 61, 0
1, 26720, Tempo, 480962
1, 26800, Tempo, 483014
1, 26880, Tempo, 485084
1, 26880, Note_on_c, 0, 78, 51
1, 26880, Note_on_c, 0, 82, 51
1, 26880, Note_on_c, 0, 85, 51
1, 26880, Note_on_c, 0, 49, 28
1, 26940, Note_on_c, 0, 49, 0
1, 26940, Note_on_c, 0, 78, 0
1, 26940, Note_on_c, 0, 82, 0
1, 26940, Note_on_c, 0, 85, 0
1, 26960, Tempo, 487171
1, 27040, Tempo, 489277
1, 27120, Tempo, 491400
1, 27120, Note_on_c, 0, 78, 51
1, 27120, Note_on_c, 0, 82, 51
1, 27120, Note_on_c, 0, 85, 51
1, 27120, Note_on_c, 0, 49, 28
1, 27180, Note_on_c, 0, 49, 0
1, 27180, Note_on_c, 0, 78, 0
1, 27180, Note_on_c, 0, 82, 0
1, 27180, Note_on_c, 0, 85, 0
1, 27360, Tempo, 467108
1, 27360, Note_on_c, 0, 58, 28
1, 27360, Note_on_c, 0, 61, 28
1, 27360, Note_on_c, 0, 66, 33
1, 27420, Note_on_c, 0, 66, 0
1, 27420, Note_on_c, 0, 61, 0
1, 27420, Note_on_c, 0, 58, 0
1, 27600, Tempo, 478965
1, 27600, Note_on_c, 0, 49, 25
1, 27660, Note_on_c, 0, 49, 0
1, 27840, Tempo, 489277
1, 27840, Note_on_c, 0, 49, 25
1, 27900, Note_on_c, 0, 49, 0
1, 28080, Tempo, 465224
1, 28080, Note_on_c, 0, 58, 25
1, 28080, Note_on_c, 0, 61, 25
1, 28080, Note_on_c, 0, 66, 30
1, 28140, Note_on_c, 0, 66, 0
1, 28140, Note_on_c, 0, 61, 0
1, 28140, Note_on_c, 0, 58, 0
1, 28320, Tempo, 478965
1, 28320, Note_on_c, 0, 49, 25
1, 28380, Note_on_c, 0, 49, 0
1, 28560, Note_on_c, 0, 49, 25
1, 28600, Tempo, 491400
1, 28620, Note_on_c, 0, 49, 0
1, 28800, Tempo, 478965
1, 28800, Note_on_c, 0, 65, 49
1, 28800, Control_c, 0, 64, 0
1, 28800, Note_on_c, 0, 56, 24
1, 28800, Note_on_c, 0, 61, 29
1, 28860, Note_on_c, 0, 61, 0
1, 28860, Note_on_c, 0, 56, 0
1, 28980, Tempo, 433244
1, 28980, Note_on_c, 0, 68, 32
1, 29040, Tempo, 472962
1, 29040, Note_on_c, 0, 68, 0
1, 29040, Note_on_c, 0, 65, 0
1, 29040, Note_on_c, 0, 66, 41
1, 29040, Note_on_c, 0, 49, 24
1, 29060, Control_c, 0, 64, 127
1, 29100, Note_on_c, 0, 49, 0
1, 29280, Note_on_c, 0, 66, 0
1, 29280, Note_on_c, 0, 65, 41
1, 29280, Note_on_c, 0, 49, 24
1, 29340, Note_on_c, 0, 49, 0
1, 29520, Tempo, 467108
1, 29520, Note_on_c, 0, 65, 0
1, 29520, Note_on_c, 0, 63, 48
1, 29520, Control_c, 0, 64, 0
1, 29520, Note_on_c, 0, 54, 25
1, 29520, Note_on_c, 0, 58, 30
1, 29566, Control_c, 0, 64, 127
1, 29580, Note_on_c, 0, 58, 0
1, 29580, Note_on_c, 0, 54, 0
1, 29760, Tempo, 457701
1, 29760, Note_on_c, 0, 63, 0
1, 29760, Note_on_c, 0, 65, 41
1, 29760, Note_on_c, 0, 42, 24
1, 29779, Control_c, 0, 64, 0
1, 29820, Note_on_c, 0, 42, 0
1, 29846, Control_c, 0, 64, 127
1, 29880, Note_on_c, 0, 65, 0
1, 29880, Note_on_c, 0, 66, 41
1, 29920, Tempo, 455858
1, 30000, Note_on_c, 0, 66, 0
1, 30000, Note_on_c, 0, 68, 43
1, 30000, Note_on_c, 0, 42, 24
1, 30060, Note_on_c, 0, 42, 0
1, 30080, Tempo, 454030
1, 30120, Note_on_c, 0, 68, 0
1, 30120, Note_on_c, 0, 70, 44
1, 30200, Tempo, 452216
1, 30240, Tempo, 465224
1, 30240, Note_on_c, 0, 70, 0
1, 30240, Note_on_c, 0, 72, 52
1, 30240, Control_c, 0, 64, 0
1, 30240, Note_on_c, 0, 63, 24
1, 30240, Note_on_c, 0, 66, 29
1, 30280, Control_c, 0, 64, 127
1, 30300, Note_on_c, 0, 66, 0
1, 30300, Note_on_c, 0, 63, 0
1, 30480, Tempo, 457701
1, 30480, Note_on_c, 0, 72, 0
1, 30480, Note_on_c, 0, 70, 50
1, 30480, Note_on_c, 0, 56, 24
1, 30501, Control_c, 0, 64, 0
1, 30526, Control_c, 0, 64, 127
1, 30540, Note_on_c, 0, 56, 0
1, 30600, Note_on_c, 0, 70, 0
1, 30600, Note_on_c, 0, 72, 46
1, 30720, Note_on_c, 0, 72, 0
1, 30720, Note_on_c, 0, 73, 48
1, 30720, Note_on_c, 0, 56, 24
1, 30780, Note_on_c, 0, 56, 0
1, 30840, Note_on_c, 0, 73, 0
1, 30840, Note_on_c, 0, 75, 50
1, 30960, Tempo, 483014
1, 30960, Note_on_c, 0, 75, 0
1, 30960, Note_on_c, 0, 77, 53
1, 30960, Control_c, 0, 64, 0
1, 30960, Note_on_c, 0, 65, 29
1, 30960, Note_on_c, 0, 61, 24
1, 31020, Note_on_c, 0, 61, 0
1, 31020, Note_on_c, 0, 65, 0
1, 31020, Note_on_c, 0, 77, 0
1, 31200, Note_on_c, 0, 77, 45
1, 31200, Note_on_c, 0, 49, 24
1, 31260, Note_on_c, 0, 49, 0
1, 31260, Note_on_c, 0, 77, 0
1, 31440, Tempo, 474608
1, 31440, Note_on_c, 0, 77, 44
1, 31440, Note_on_c, 0, 49, 24
1, 31500, Note_on_c, 0, 49, 0
1, 31500, Note_on_c, 0, 77, 0
1, 31680, Tempo, 485084
1, 31680, Note_on_c, 0, 61, 25
1, 31680, Note_on_c, 0, 65, 30
1, 31740, Note_on_c, 0, 65, 0
1, 31740, Note_on_c, 0, 61, 0
1, 31920, Tempo, 491400
1, 31920, Note_on_c, 0, 49, 25
1, 31980, Note_on_c, 0, 49, 0
1, 32160, Tempo, 504498
1, 32160, Note_on_c, 0, 49, 25
1, 32220, Note_on_c, 0, 49, 0
1, 32400, Tempo, 483014
1, 32400, Note_on_c, 0, 61, 25
1, 32403, Note_on_c, 0, 65, 31
1, 32460, Note_on_c, 0, 61, 0
1, 32463, Note_on_c, 0, 65, 0
1, 32640, Tempo, 491400
1, 32640, Note_on_c, 0, 49, 28
1, 32700, Note_on_c, 0, 49, 0
1, 32880, Tempo, 502260
1, 32880, Note_on_c, 0, 49, 28
1, 32940, Note_on_c, 0, 49, 0
1, 33060, Note_on_c, 0, 73, 40
1, 33090, Note_on_c, 0, 77, 40
1, 33120, Tempo, 470995
1, 33120, Note_on_c, 0, 80, 51
1, 33120, Note_on_c, 0, 61, 28
1, 33120, Note_on_c, 0, 65, 33
1, 33180, Note_on_c, 0, 65, 0
1, 33180, Note_on_c, 0, 61, 0
1, 33240, Note_on_c, 0, 73, 0
1, 33240, Note_on_c, 0, 77, 0
1, 33240, Note_on_c, 0, 80, 0
1, 33360, Tempo, 461432
1, 33360, Note_on_c, 0, 78, 40
1, 33360, Note_on_c, 0, 49, 28
1, 33420, Note_on_c, 0, 49, 0
1, 33480, Note_on_c, 0, 78, 0
1, 33480, Note_on_c, 0, 77, 40
1, 33600, Tempo, 476948
1, 33600, Note_on_c, 0, 77, 0
1, 33600, Note_on_c, 0, 75, 40
1, 33600, Note_on_c, 0, 49, 28
1, 33660, Note_on_c, 0, 49, 0
1, 33720, Note_on_c, 0, 75, 0
1, 33720, Note_on_c, 0, 73, 40
1, 33780, Note_on_c, 0, 68, 40
1, 33810, Note_on_c, 0, 72, 40
1, 33840, Tempo, 465224
1, 33840, Note_on_c, 0, 73, 0
1, 33840, Note_on_c, 0, 75, 49
1, 33840, Note_on_c, 0, 61, 28
1, 33840, Note_on_c, 0, 66, 34
1, 33900, Note_on_c, 0, 66, 0
1, 33900, Note_on_c, 0, 61, 0
1, 33960, Note_on_c, 0, 68, 0
1, 33960, Note_on_c, 0, 72, 0
1, 33960, Note_on_c, 0, 75, 0
1, 34080, Tempo, 461432
1, 34080, Note_on_c, 0, 73, 40
1, 34080, Note_on_c, 0, 49, 28
1, 34140, Note_on_c, 0, 49, 0
1, 34200, Note_on_c, 0, 73, 0
1, 34200, Note_on_c, 0, 72, 40
1, 34320, Tempo, 480962
1, 34320, Note_on_c, 0, 72, 0
1, 34320, Note_on_c, 0, 70, 40
1, 34320, Note_on_c, 0, 49, 28
1, 34380, Note_on_c, 0, 49, 0
1, 34440, Note_on_c, 0, 70, 0
1, 34440, Note_on_c, 0, 68, 40
1, 34500, Note_on_c, 0, 73, 40
1, 34530, Note_on_c, 0, 77, 40
1, 34560, Tempo, 487171
1, 34560, Note_on_c, 0, 68, 0
1, 34560, Note_on_c, 0, 80, 53
1, 34560, Note_on_c, 0, 61, 28
1, 34560, Note_on_c, 0, 65, 33
1, 34620, Note_on_c, 0, 65, 0
1, 34620, Note_on_c, 0, 61, 0
1, 34680, Note_on_c, 0, 73, 0
1, 34680, Note_on_c, 0, 77, 0
1, 34680, Note_on_c, 0, 80, 0
1, 34800, Tempo, 461432
1, 34800, Note_on_c, 0, 78, 42
1, 34800, Note_on_c, 0, 49, 28
1, 34860, Note_on_c, 0, 49, 0
1, 34920, Note_on_c, 0, 78, 0
1, 34920, Note_on_c, 0, 77, 45
1, 35040, Note_on_c, 0, 77, 0
1, 35040, Note_on_c, 0, 75, 47
1, 35040, Note_on_c, 0, 49, 33
1, 35100, Note_on_c, 0, 49, 0
1, 35160, Note_on_c, 0, 75, 0
1, 35160, Note_on_c, 0, 73, 51
1, 35280, Tempo, 485084
1, 35280, Note_on_c, 0, 73, 0
1, 35280, Note_on_c, 0, 85, 57
1, 35280, Note_on_c, 0, 81, 57
1, 35280, Note_on_c, 0, 78, 57
1, 35280, Note_on_c, 0, 61, 31
1, 35280, Note_on_c, 0, 66, 38
1, 35340, Note_on_c, 0, 66, 0
1, 35340, Note_on_c, 0, 78, 0
1, 35340, Note_on_c, 0, 85, 0
1, 35340, Note_on_c, 0, 81, 0
1, 35340, Note_on_c, 0, 61, 0
1, 35520, Note_on_c, 0, 78, 51
1, 35520, Note_on_c, 0, 81, 51
1, 35520, Note_on_c, 0, 85, 51
1, 35520, Note_on_c, 0, 49, 28
1, 35580, Note_on_c, 0, 49, 0
1, 35580, Note_on_c, 0, 78, 0
1, 35580, Note_on_c, 0, 81, 0
1, 35580, Note_on_c, 0, 85, 0
1, 35760, Tempo, 493543
1, 35760, Note_on_c, 0, 78, 51
1, 35760, Note_on_c, 0, 81, 51
1, 35760, Note_on_c, 0, 85, 51
1, 35760, Note_on_c, 0, 49, 28
1, 35820, Note_on_c, 0, 49, 0
1, 35820, Note_on_c, 0, 78, 0
1, 35820, Note_on_c, 0, 81, 0
1, 35820, Note_on_c, 0, 85, 0
1, 36000, Tempo, 467108
1, 36000, Note_on_c, 0, 57, 28
1, 36000, Note_on_c, 0, 61, 28
1, 36000, Note_on_c, 0, 66, 33
1, 36060, Note_on_c, 0, 66, 0
1, 36060, Note_on_c, 0, 61, 0
1, 36060, Note_on_c, 0, 57, 0
1, 36240, Tempo, 485084
1, 36240, Note_on_c, 0, 54, 25
1, 36300, Note_on_c, 0, 54, 0
1, 36480, Tempo, 493543
1, 36480, Note_on_c, 0, 54, 25
1, 36540, Note_on_c, 0, 54, 0
1, 36720, Tempo, 465224
1, 36720, Note_on_c, 0, 57, 25
1, 36720, Note_on_c, 0, 61, 25
1, 36720, Note_on_c, 0, 66, 30
1, 36780, Note_on_c, 0, 66, 0
1, 36780, Note_on_c, 0, 61, 0
1, 36780, Note_on_c, 0, 57, 0
1, 36960, Tempo, 485084
1, 36960, Note_on_c, 0, 54, 25
1, 37020, Note_on_c, 0, 54, 0
1, 37200, Tempo, 497843
1, 37200, Note_on_c, 0, 54, 25
1, 37260, Note_on_c, 0, 54, 0
1, 37440, Tempo, 480962
1, 37440, Note_on_c, 0, 73, 53
1, 37440, Note_on_c, 0, 66, 29
1, 37440, Control_c, 0, 64, 0
1, 37440, Note_on_c, 0, 57, 24
1, 37440, Note_on_c, 0, 61, 24
1, 37500, Note_on_c, 0, 61, 0
1, 37500, Note_on_c, 0, 57, 0
1, 37500, Note_on_c, 0, 66, 0
1, 37620, Tempo, 434909
1, 37620, Note_on_c, 0, 76, 38
1, 37680, Tempo, 472962
1, 37680, Note_on_c, 0, 76, 0
1, 37680, Note_on_c, 0, 73, 0
1, 37680, Note_on_c, 0, 74, 45
1, 37680, Note_on_c, 0, 54, 24
1, 37689, Control_c, 0, 64, 127
1, 37740, Note_on_c, 0, 54, 0
1, 37920, Note_on_c, 0, 74, 0
1, 37920, Note_on_c, 0, 73, 45
1, 37920, Note_on_c, 0, 54, 24
1, 37980, Note_on_c, 0, 54, 0
1, 38160, Tempo, 461432
1, 38160, Note_on_c, 0, 73, 0
1, 38160, Note_on_c, 0, 71, 52
1, 38160, Control_c, 0, 64, 0
1, 38160, Note_on_c, 0, 62, 25
1, 38160, Note_on_c, 0, 66, 30
1, 38206, Control_c, 0, 64, 127
1, 38220, Note_on_c, 0, 66, 0
1, 38220, Note_on_c, 0, 62, 0
1, 38400, Tempo, 457701
1, 38400, Note_on_c, 0, 71, 0
1, 38400, Note_on_c, 0, 73, 45
1, 38400, Note_on_c, 0, 50, 24
1, 38406, Control_c, 0, 64, 0
1, 38460, Note_on_c, 0, 50, 0
1, 38475, Control_c, 0, 64, 127
1, 38520, Note_on_c, 0, 73, 0
1, 38520, Note_on_c, 0, 74, 45
1, 38640, Note_on_c, 0, 74, 0
1, 38640, Note_on_c, 0, 76, 47
1, 38640, Note_on_c, 0, 50, 24
1, 38700, Note_on_c, 0, 50, 0
1, 38760, Note_on_c, 0, 76, 0
1, 38760, Note_on_c, 0, 78, 48
1, 38880, Tempo, 463320
1, 38880, Note_on_c, 0, 78, 0
1, 38880, Note_on_c, 0, 80, 52
1, 38880, Control_c, 0, 64, 0
1, 38880, Note_on_c, 0, 62, 24
1, 38880, Note_on_c, 0, 64, 29
1, 38920, Control_c, 0, 64, 127
1, 38940, Note_on_c, 0, 64, 0
1, 38940, Note_on_c, 0, 62, 0
1, 39120, Tempo, 457701
1, 39120, Note_on_c, 0, 80, 0
1, 39120, Note_on_c, 0, 78, 53
1, 39120, Note_on_c, 0, 52, 24
1, 39141, Control_c, 0, 64, 0
1, 39177, Control_c, 0, 64, 127
1, 39180, Note_on_c, 0, 52, 0
1, 39240, Note_on_c, 0, 78, 0
1, 39240, Note_on_c, 0, 80, 43
1, 39360, Tempo, 469043
1, 39360, Note_on_c, 0, 80, 0
1, 39360, Note_on_c, 0, 81, 46
1, 39360, Note_on_c, 0, 52, 24
1, 39420, Note_on_c, 0, 52, 0
1, 39480, Note_on_c, 0, 81, 0
1, 39480, Note_on_c, 0, 83, 49
1, 39600, Tempo, 480962
1, 39600, Note_on_c, 0, 83, 0
1, 39600, Note_on_c, 0, 85, 52
1, 39600, Control_c, 0, 64, 0
1, 39600, Note_on_c, 0, 64, 29
1, 39600, Note_on_c, 0, 61, 24
1, 39660, Note_on_c, 0, 61, 0
1, 39660, Note_on_c, 0, 64, 0
1, 39660, Note_on_c, 0, 85, 0
1, 39840, Note_on_c, 0, 85, 49
1, 39840, Note_on_c, 0, 57, 24
1, 39900, Note_on_c, 0, 57, 0
1, 39900, Note_on_c, 0, 85, 0
1, 40080, Tempo, 474608
1, 40080, Note_on_c, 0, 85, 48
1, 40080, Note_on_c, 0, 57, 24
1, 40140, Note_on_c, 0, 57, 0
1, 40140, Note_on_c, 0, 85, 0
1, 40320, Tempo, 485084
1, 40320, Note_on_c, 0, 61, 25
1, 40320, Note_on_c, 0, 64, 30
1, 40380, Note_on_c, 0, 64, 0
1, 40380, Note_on_c, 0, 61, 0
1, 40560, Note_on_c, 0, 57, 25
1, 40620, Note_on_c, 0, 57, 0
1, 40800, Tempo, 504498
1, 40800, Note_on_c, 0, 57, 26
1, 40860, Note_on_c, 0, 57, 0
1, 41040, Tempo, 472962
1, 41040, Note_on_c, 0, 73, 53
1, 41040, Note_on_c, 0, 64, 29
1, 41040, Control_c, 0, 64, 0
1, 41040, Note_on_c, 0, 61, 24
1, 41055, Note_on_c, 0, 61, 0
1, 41055, Note_on_c, 0, 64, 0
1, 41055, Note_on_c, 0, 73, 0
1, 41280, Note_on_c, 0, 73, 45
1, 41280, Note_on_c, 0, 57, 24
1, 41295, Note_on_c, 0, 57, 0
1, 41295, Note_on_c, 0, 73, 0
1, 41520, Note_on_c, 0, 73, 45
1, 41520, Note_on_c, 0, 57, 24
1, 41535, Note_on_c, 0, 57, 0
1, 41535, Note_on_c, 0, 73, 0
1, 41760, Tempo, 461432
1, 41760, Note_on_c, 0, 73, 52
1, 41760, Control_c, 0, 64, 0
1, 41760, Note_on_c, 0, 61, 25
1, 41760, Note_on_c, 0, 64, 30
1, 41806, Control_c, 0, 64, 127
1, 41820, Note_on_c, 0, 64, 0
1, 41820, Note_on_c, 0, 61, 0
1, 42000, Tempo, 461432
1, 42000, Note_on_c, 0, 73, 0
1, 42000, Note_on_c, 0, 76, 45
1, 42000, Note_on_c, 0, 58, 24
1, 42011, Control_c, 0, 64, 0
1, 42051, Control_c, 0, 64, 127
1, 42060, Note_on_c, 0, 58, 0
1, 42120, Note_on_c, 0, 76, 0
1, 42120, Note_on_c, 0, 74, 45
1, 42240, Note_on_c, 0, 74, 0
1, 42240, Note_on_c, 0, 73, 47
1, 42240, Note_on_c, 0, 58, 24
1, 42300, Note_on_c, 0, 58, 0
1, 42360, Note_on_c, 0, 73, 0
1, 42360, Note_on_c, 0, 76, 48
1, 42480, Tempo, 467108
1, 42480, Note_on_c, 0, 76, 0
1, 42480, Note_on_c, 0, 74, 52
1, 42480, Control_c, 0, 64, 0
1, 42480, Note_on_c, 0, 62, 24
1, 42480, Note_on_c, 0, 64, 29
1, 42540, Note_on_c, 0, 64, 0
1, 42540, Note_on_c, 0, 62, 0
1, 42540, Note_on_c, 0, 74, 0
1, 42720, Tempo, 459559
1, 42720, Note_on_c, 0, 74, 52
1, 42720, Note_on_c, 0, 59, 24
1, 42780, Note_on_c, 0, 59, 0
1, 42780, Note_on_c, 0, 74, 0
1, 42960, Tempo, 480962
1, 42960, Note_on_c, 0, 74, 51
1, 42960, Note_on_c, 0, 59, 24
1, 43020, Note_on_c, 0, 59, 0
1, 43020, Note_on_c, 0, 74, 0
1, 43200, Tempo, 483014
1, 43200, Note_on_c, 0, 86, 52
1, 43200, Note_on_c, 0, 64, 29
1, 43200, Note_on_c, 0, 62, 24
1, 43260, Note_on_c, 0, 62, 0
1, 43260, Note_on_c, 0, 64, 0
1, 43260, Note_on_c, 0, 86, 0
1, 43440, Note_on_c, 0, 86, 49
1, 43440, Note_on_c, 0, 59, 24
1, 43500, Note_on_c, 0, 59, 0
1, 43500, Note_on_c, 0, 86, 0
1, 43680, Tempo, 474608
1, 43680, Note_on_c, 0, 86, 48
1, 43680, Note_on_c, 0, 59, 24
1, 43740, Note_on_c, 0, 59, 0
1, 43740, Note_on_c, 0, 86, 0
1, 43920, Tempo, 485084
1, 43920, Note_on_c, 0, 62, 22
1, 43920, Note_on_c, 0, 64, 25
1, 43980, Note_on_c, 0, 64, 0
1, 43980, Note_on_c, 0, 62, 0
1, 44160, Note_on_c, 0, 59, 22
1, 44220, Note_on_c, 0, 59, 0
1, 44400, Tempo, 504498
1, 44400, Note_on_c, 0, 59, 22
1, 44460, Note_on_c, 0, 59, 0
1, 44640, Tempo, 472962
1, 44640, Note_on_c, 0, 74, 53
1, 44640, Note_on_c, 0, 64, 29
1, 44640, Control_c, 0, 64, 0
1, 44640, Note_on_c, 0, 62, 24
1, 44700, Note_on_c, 0, 62, 0
1, 44700, Note_on_c, 0, 64, 0
1, 44700, Note_on_c, 0, 74, 0
1, 44880, Note_on_c, 0, 74, 45
1, 44880, Note_on_c, 0, 59, 24
1, 44940, Note_on_c, 0, 59, 0
1, 44940, Note_on_c, 0, 74, 0
1, 45120, Note_on_c, 0, 74, 45
1, 45120, Note_on_c, 0, 59, 24
1, 45180, Note_on_c, 0, 59, 0
1, 45180, Note_on_c, 0, 74, 0
1, 45360, Tempo, 461432
1, 45360, Note_on_c, 0, 74, 52
1, 45360, Control_c, 0, 64, 0
1, 45360, Note_on_c, 0, 62, 25
1, 45360, Note_on_c, 0, 65, 30
1, 45406, Control_c, 0, 64, 127
1, 45420, Note_on_c, 0, 65, 0
1, 45420, Note_on_c, 0, 62, 0
1, 45600, Tempo, 457701
1, 45600, Note_on_c, 0, 74, 0
1, 45600, Note_on_c, 0, 77, 45
1, 45600, Note_on_c, 0, 59, 24
1, 45624, Control_c, 0, 64, 0
1, 45651, Control_c, 0, 64, 127
1, 45660, Note_on_c, 0, 59, 0
1, 45720, Note_on_c, 0, 77, 0
1, 45720, Note_on_c, 0, 76, 45
1, 45840, Note_on_c, 0, 76, 0
1, 45840, Note_on_c, 0, 74, 47
1, 45840, Note_on_c, 0, 59, 24
1, 45900, Note_on_c, 0, 59, 0
1, 45960, Note_on_c, 0, 74, 0
1, 45960, Note_on_c, 0, 77, 48
1, 46080, Tempo, 469043
1, 46080, Note_on_c, 0, 77, 0
1, 46080, Note_on_c, 0, 74, 52
1, 46080, Control_c, 0, 64, 0
1, 46080, Note_on_c, 0, 62, 24
1, 46080, Note_on_c, 0, 65, 29
1, 46140, Note_on_c, 0, 65, 0
1, 46140, Note_on_c, 0, 62, 0
1, 46140, Note_on_c, 0, 74, 0
1, 46320, Tempo, 455858
1, 46320, Note_on_c, 0, 74, 52
1, 46320, Note_on_c, 0, 59, 24
1, 46380, Note_on_c, 0, 59, 0
1, 46380, Note_on_c, 0, 74, 0
1, 46560, Tempo, 502260
1, 46560, Note_on_c, 0, 74, 52
1, 46560, Note_on_c, 0, 59, 24
1, 46620, Note_on_c, 0, 59, 0
1, 46620, Note_on_c, 0, 74, 0
1, 46800, Tempo, 483014
1, 46800, Note_on_c, 0, 86, 52
1, 46800, Note_on_c, 0, 65, 29
1, 46800, Note_on_c, 0, 62, 24
1, 46860, Note_on_c, 0, 62, 0
1, 46860, Note_on_c, 0, 65, 0
1, 46860, Note_on_c, 0, 86, 0
1, 47040, Tempo, 491400
1, 47040, Note_on_c, 0, 86, 49
1, 47040, Note_on_c, 0, 59, 24
1, 47100, Note_on_c, 0, 59, 0
1, 47100, Note_on_c, 0, 86, 0
1, 47280, Tempo, 502260
1, 47280, Note_on_c, 0, 86, 48
1, 47280, Note_on_c, 0, 59, 24
1, 47340, Note_on_c, 0, 59, 0
1, 47340, Note_on_c, 0, 86, 0
1, 47520, Tempo, 467108
1, 47520, Note_on_c, 0, 74, 56
1, 47520, Note_on_c, 0, 59, 26
1, 47520, Note_on_c, 0, 62, 32
1, 47600, Control_c, 0, 64, 127
1, 47640, Note_on_c, 0, 62, 0
1, 47640, Note_on_c, 0, 59, 0
1, 47640, Note_on_c, 0, 65, 26
1, 47760, Note_on_c, 0, 65, 0
1, 47760, Note_on_c, 0, 74, 0
1, 47760, Note_on_c, 0, 73, 52
1, 47760, Note_on_c, 0, 62, 28
1, 47760, Note_on_c, 0, 59, 22
1, 47771, Control_c, 0, 64, 0
1, 47800, Control_c, 0, 64, 127
1, 47880, Note_on_c, 0, 59, 0
1, 47880, Note_on_c, 0, 62, 0
1, 47880, Note_on_c, 0, 65, 26
1, 48000, Tempo, 478965
1, 48000, Note_on_c, 0, 65, 0
1, 48000, Note_on_c, 0, 73, 0
1, 48000, Note_on_c, 0, 74, 52
1, 48000, Note_on_c, 0, 62, 28
1, 48000, Note_on_c, 0, 59, 22
1, 48007, Control_c, 0, 64, 0
1, 48046, Control_c, 0, 64, 127
1, 48120, Note_on_c, 0, 59, 0
1, 48120, Note_on_c, 0, 62, 0
1, 48120, Note_on_c, 0, 65, 26
1, 48240, Tempo, 465224
1, 48240, Note_on_c, 0, 65, 0
1, 48240, Note_on_c, 0, 74, 0
1, 48240, Note_on_c, 0, 86, 56
1, 48240, Control_c, 0, 64, 0
1, 48240, Note_on_c, 0, 58, 26
1, 48240, Note_on_c, 0, 62, 32
1, 48280, Control_c, 0, 64, 127
1, 48360, Note_on_c, 0, 62, 0
1, 48360, Note_on_c, 0, 58, 0
1, 48360, Note_on_c, 0, 65, 26
1, 48480, Note_on_c, 0, 65, 0
1, 48480, Note_on_c, 0, 86, 0
1, 48480, Note_on_c, 0, 85, 52
1, 48480, Note_on_c, 0, 62, 28
1, 48480, Note_on_c, 0, 58, 22
1, 48497, Control_c, 0, 64, 0
1, 48551, Control_c, 0, 64, 127
1, 48600, Note_on_c, 0, 58, 0
1, 48600, Note_on_c, 0, 62, 0
1, 48600, Note_on_c, 0, 65, 26
1, 48720, Tempo, 478965
1, 48720, Note_on_c, 0, 65, 0
1, 48720, Note_on_c, 0, 85, 0
1, 48720, Note_on_c, 0, 86, 52
1, 48720, Note_on_c, 0, 62, 28
1, 48720, Note_on_c, 0, 58, 22
1, 48726, Control_c, 0, 64, 0
1, 48755, Control_c, 0, 64, 127
1, 48840, Note_on_c, 0, 58, 0
1, 48840, Note_on_c, 0, 62, 0
1, 48840, Note_on_c, 0, 65, 26
1, 48960, Tempo, 461787
1, 48960, Note_on_c, 0, 65, 0
1, 48960, Note_on_c, 0, 86, 0
1, 48960, Note_on_c, 0, 82, 54
1, 48960, Control_c, 0, 64, 0
1, 48960, Note_on_c, 0, 58, 31
1, 48960, Note_on_c, 0, 62, 38
1, 49031, Control_c, 0, 64, 127
1, 49080, Note_on_c, 0, 62, 0
1, 49080, Note_on_c, 0, 58, 0
1, 49080, Note_on_c, 0, 65, 25
1, 49200, Note_on_c, 0, 65, 0
1, 49200, Note_on_c, 0, 82, 0
1, 49200, Note_on_c, 0, 81, 47
1, 49200, Note_on_c, 0, 58, 24
1, 49200, Note_on_c, 0, 62, 29
1, 49214, Control_c, 0, 64, 0
1, 49285, Control_c, 0, 64, 127
1, 49320, Note_on_c, 0, 62, 0
1, 49320, Note_on_c, 0, 58, 0
1, 49320, Note_on_c, 0, 65, 24
1, 49440, Note_on_c, 0, 65, 0
1, 49440, Note_on_c, 0, 81, 0
1, 49440, Note_on_c, 0, 82, 48
1, 49440, Note_on_c, 0, 58, 24
1, 49440, Note_on_c, 0, 62, 29
1, 49457, Control_c, 0, 64, 0
1, 49497, Control_c, 0, 64, 127
1, 49560, Note_on_c, 0, 62, 0
1, 49560, Note_on_c, 0, 58, 0
1, 49560, Note_on_c, 0, 65, 25
1, 49680, Tempo, 456274
1, 49680, Note_on_c, 0, 65, 0
1, 49680, Note_on_c, 0, 82, 0
1, 49680, Note_on_c, 0, 79, 51
1, 49680, Control_c, 0, 64, 0
1, 49680, Note_on_c, 0, 58, 29
1, 49680, Note_on_c, 0, 63, 34
1, 49729, Control_c, 0, 64, 127
1, 49800, Note_on_c, 0, 63, 0
1, 49800, Note_on_c, 0, 58, 0
1, 49800, Note_on_c, 0, 67, 26
1, 49920, Tempo, 452625
1, 49920, Note_on_c, 0, 67, 0
1, 49920, Note_on_c, 0, 79, 0
1, 49920, Note_on_c, 0, 81, 48
1, 49920, Note_on_c, 0, 58, 25
1, 49920, Note_on_c, 0, 63, 30
1, 49943, Control_c, 0, 64, 0
1, 50040, Note_on_c, 0, 63, 0
1, 50040, Note_on_c, 0, 58, 0
1, 50040, Note_on_c, 0, 81, 0
1, 50040, Note_on_c, 0, 82, 49
1, 50040, Note_on_c, 0, 67, 25
1, 50054, Control_c, 0, 64, 127
1, 50160, Note_on_c, 0, 67, 0
1, 50160, Note_on_c, 0, 82, 0
1, 50160, Note_on_c, 0, 84, 51
1, 50160, Note_on_c, 0, 58, 25
1, 50160, Note_on_c, 0, 63, 30
1, 50280, Note_on_c, 0, 63, 0
1, 50280, Note_on_c, 0, 58, 0
1, 50280, Note_on_c, 0, 84, 0
1, 50280, Note_on_c, 0, 86, 52
1, 50280, Note_on_c, 0, 67, 25
1, 50400, Tempo, 458155
1, 50400, Note_on_c, 0, 67, 0
1, 50400, Note_on_c, 0, 86, 0
1, 50400, Note_on_c, 0, 82, 57
1, 50400, Control_c, 0, 64, 0
1, 50400, Note_on_c, 0, 58, 35
1, 50400, Note_on_c, 0, 62, 43
1, 50449, Control_c, 0, 64, 127
1, 50520, Note_on_c, 0, 62, 0
1, 50520, Note_on_c, 0, 58, 0
1, 50520, Note_on_c, 0, 65, 28
1, 50640, Tempo, 452625
1, 50640, Note_on_c, 0, 65, 0
1, 50640, Note_on_c, 0, 82, 0
1, 50640, Note_on_c, 0, 84, 58
1, 50640, Note_on_c, 0, 62, 31
1, 50640, Note_on_c, 0, 58, 25
1, 50656, Control_c, 0, 64, 0
1, 50725, Control_c, 0, 64, 127
1, 50760, Note_on_c, 0, 58, 0
1, 50760, Note_on_c, 0, 62, 0
1, 50760, Note_on_c, 0, 84, 0
1, 50760, Note_on_c, 0, 82, 51
1, 50760, Note_on_c, 0, 65, 26
1, 50880, Note_on_c, 0, 65, 0
1, 50880, Note_on_c, 0, 82, 0
1, 50880, Note_on_c, 0, 81, 56
1, 50880, Note_on_c, 0, 58, 26
1, 50880, Note_on_c, 0, 62, 32
1, 51000, Note_on_c, 0, 62, 0
1, 51000, Note_on_c, 0, 58, 0
1, 51000, Note_on_c, 0, 81, 0
1, 51000, Note_on_c, 0, 79, 51
1, 51000, Note_on_c, 0, 65, 26
1, 51120, Tempo, 463750
1, 51120, Note_on_c, 0, 65, 0
1, 51120, Note_on_c, 0, 79, 0
1, 51120, Note_on_c, 0, 77, 61
1, 51120, Note_on_c, 0, 57, 32
1, 51120, Note_on_c, 0, 63, 39
1, 51148, Control_c, 0, 64, 0
1, 51180, Note_on_c, 0, 77, 0
1, 51240, Note_on_c, 0, 63, 0
1, 51240, Note_on_c, 0, 57, 0
1, 51240, Note_on_c, 0, 65, 28
1, 51360, Note_on_c, 0, 65, 0
1, 51360, Note_on_c, 0, 77, 56
1, 51360, Note_on_c, 0, 57, 26
1, 51360, Note_on_c, 0, 63, 32
1, 51420, Note_on_c, 0, 77, 0
1, 51480, Note_on_c, 0, 63, 0
1, 51480, Note_on_c, 0, 57, 0
1, 51480, Note_on_c, 0, 65, 29
1, 51600, Tempo, 474608
1, 51600, Note_on_c, 0, 65, 0
1, 51600, Note_on_c, 0, 77, 56
1, 51600, Note_on_c, 0, 57, 28
1, 51600, Note_on_c, 0, 63, 33
1, 51660, Note_on_c, 0, 77, 0
1, 51720, Note_on_c, 0, 63, 0
1, 51720, Note_on_c, 0, 57, 0
1, 51720, Note_on_c, 0, 65, 28
1, 51840, Tempo, 463679
1, 51840, Note_on_c, 0, 65, 0
1, 51840, Note_on_c, 0, 78, 69
1, 51840, Note_on_c, 0, 57, 35
1, 51840, Note_on_c, 0, 63, 42
1, 51872, Control_c, 0, 64, 127
1, 51960, Note_on_c, 0, 63, 0
1, 51960, Note_on_c, 0, 57, 0
1, 51960, Note_on_c, 0, 66, 29
1, 52080, Note_on_c, 0, 66, 0
1, 52080, Note_on_c, 0, 78, 0
1, 52080, Note_on_c, 0, 90, 66
1, 52080, Note_on_c, 0, 57, 28
1, 52080, Note_on_c, 0, 63, 34
1, 52200, Note_on_c, 0, 63, 0
1, 52200, Note_on_c, 0, 57, 0
1, 52200, Note_on_c, 0, 66, 29
1, 52313, Control_c, 0, 64, 0
1, 52320, Tempo, 472776
1, 52320, Note_on_c, 0, 66, 0
1, 52320, Note_on_c, 0, 90, 0
1, 52320, Note_on_c, 0, 90, 67
1, 52320, Note_on_c, 0, 57, 28
1, 52320, Note_on_c, 0, 63, 34
1, 52380, Note_on_c, 0, 90, 0
1, 52440, Note_on_c, 0, 63, 0
1, 52440, Note_on_c, 0, 57, 0
1, 52440, Note_on_c, 0, 66, 30
1, 52560, Tempo, 463679
1, 52560, Note_on_c, 0, 66, 0
1, 52560, Note_on_c, 0, 91, 76
1, 52560, Control_c, 0, 64, 127
1, 52560, Note_on_c, 0, 58, 34
1, 52560, Note_on_c, 0, 63, 40
1, 52680, Note_on_c, 0, 63, 0
1, 52680, Note_on_c, 0, 58, 0
1, 52680, Note_on_c, 0, 67, 30
1, 52800, Note_on_c, 0, 67, 0
1, 52800, Note_on_c, 0, 91, 0
1, 52800, Note_on_c, 0, 79, 61
1, 52800, Note_on_c, 0, 58, 29
1, 52800, Note_on_c, 0, 63, 34
1, 52920, Note_on_c, 0, 63, 0
1, 52920, Note_on_c, 0, 58, 0
1, 52920, Note_on_c, 0, 67, 30
1, 53036, Control_c, 0, 64, 0
1, 53040, Note_on_c, 0, 67, 0
1, 53040, Note_on_c, 0, 79, 0
1, 53040, Note_on_c, 0, 79, 61
1, 53040, Note_on_c, 0, 58, 29
1, 53040, Note_on_c, 0, 63, 34
1, 53100, Note_on_c, 0, 79, 0
1, 53160, Note_on_c, 0, 63, 0
1, 53160, Note_on_c, 0, 58, 0
1, 53160, Note_on_c, 0, 67, 30
1, 53280, Note_on_c, 0, 67, 0
1, 53280, Note_on_c, 0, 81, 65
1, 53280, Note_on_c, 0, 60, 35
1, 53280, Note_on_c, 0, 63, 42
1, 53340, Note_on_c, 0, 81, 0
1, 53400, Note_on_c, 0, 63, 0
1, 53400, Note_on_c, 0, 60, 0
1, 53400, Note_on_c, 0, 67, 31
1, 53490, Note_on_c, 0, 94, 62
1, 53492, Control_c, 0, 64, 127
1, 53520, Tempo, 452625
1, 53520, Note_on_c, 0, 94, 0
1, 53520, Note_on_c, 0, 67, 0
1, 53520, Note_on_c, 0, 93, 65
1, 53520, Note_on_c, 0, 60, 30
1, 53520, Note_on_c, 0, 63, 35
1, 53640, Note_on_c, 0, 63, 0
1, 53640, Note_on_c, 0, 60, 0
1, 53640, Note_on_c, 0, 93, 0
1, 53640, Note_on_c, 0, 91, 62
1, 53640, Note_on_c, 0, 67, 31
1, 53760, Tempo, 458155
1, 53760, Note_on_c, 0, 67, 0
1, 53760, Note_on_c, 0, 91, 0
1, 53760, Note_on_c, 0, 93, 66
1, 53760, Note_on_c, 0, 60, 31
1, 53760, Note_on_c, 0, 63, 37
1, 53880, Note_on_c, 0, 63, 0
1, 53880, Note_on_c, 0, 60, 0
1, 53880, Note_on_c, 0, 67, 32
1, 54000, Note_on_c, 0, 67, 0
1, 54000, Note_on_c, 0, 93, 0
1, 54000, Note_on_c, 0, 94, 68
1, 54000, Control_c, 0, 64, 0
1, 54000, Note_on_c, 0, 55, 35
1, 54000, Note_on_c, 0, 62, 43
1, 54060, Note_on_c, 0, 94, 0
1, 54120, Note_on_c, 0, 62, 0
1, 54120, Note_on_c, 0, 55, 0
1, 54120, Note_on_c, 0, 67, 32
1, 54201, Control_c, 0, 64, 127
1, 54210, Note_on_c, 0, 84, 61
1, 54240, Tempo, 452625
1, 54240, Note_on_c, 0, 84, 0
1, 54240, Note_on_c, 0, 67, 0
1, 54240, Note_on_c, 0, 82, 63
1, 54240, Note_on_c, 0, 55, 31
1, 54240, Note_on_c, 0, 62, 37
1, 54360, Note_on_c, 0, 62, 0
1, 54360, Note_on_c, 0, 55, 0
1, 54360, Note_on_c, 0, 82, 0
1, 54360, Note_on_c, 0, 81, 60
1, 54360, Note_on_c, 0, 67, 32
1, 54480, Tempo, 484183
1, 54480, Note_on_c, 0, 67, 0
1, 54480, Note_on_c, 0, 81, 0
1, 54480, Note_on_c, 0, 82, 65
1, 54480, Note_on_c, 0, 55, 31
1, 54480, Note_on_c, 0, 62, 37
1, 54600, Note_on_c, 0, 62, 0
1, 54600, Note_on_c, 0, 55, 0
1, 54600, Note_on_c, 0, 82, 0
1, 54600, Note_on_c, 0, 67, 33
1, 54720, Tempo, 465477
1, 54720, Note_on_c, 0, 67, 0
1, 54720, Note_on_c, 0, 75, 44
1, 54720, Note_on_c, 0, 79, 52
1, 54720, Control_c, 0, 64, 0
1, 54720, Note_on_c, 0, 63, 62
1, 54840, Note_on_c, 0, 79, 0
1, 54840, Note_on_c, 0, 75, 0
1, 54840, Note_on_c, 0, 82, 46
1, 54960, Note_on_c, 0, 82, 0
1, 54960, Note_on_c, 0, 63, 0
1, 54960, Note_on_c, 0, 75, 45
1, 54960, Note_on_c, 0, 79, 53
1, 54960, Note_on_c, 0, 62, 52
1, 55080, Note_on_c, 0, 79, 0
1, 55080, Note_on_c, 0, 75, 0
1, 55080, Note_on_c, 0, 82, 45
1, 55200, Note_on_c, 0, 82, 0
1, 55200, Note_on_c, 0, 62, 0
1, 55200, Note_on_c, 0, 75, 45
1, 55200, Note_on_c, 0, 79, 53
1, 55200, Note_on_c, 0, 63, 52
1, 55320, Note_on_c, 0, 79, 0
1, 55320, Note_on_c, 0, 75, 0
1, 55320, Note_on_c, 0, 82, 46
1, 55440, Tempo, 456274
1, 55440, Note_on_c, 0, 82, 0
1, 55440, Note_on_c, 0, 63, 0
1, 55440, Note_on_c, 0, 75, 46
1, 55440, Note_on_c, 0, 79, 54
1, 55440, Note_on_c, 0, 60, 62
1, 55560, Note_on_c, 0, 79, 0
1, 55560, Note_on_c, 0, 75, 0
1, 55560, Note_on_c, 0, 84, 46
1, 55680, Tempo, 452625
1, 55680, Note_on_c, 0, 84, 0
1, 55680, Note_on_c, 0, 60, 0
1, 55680, Note_on_c, 0, 75, 45
1, 55680, Note_on_c, 0, 79, 53
1, 55680, Note_on_c, 0, 62, 50
1, 55800, Note_on_c, 0, 62, 0
1, 55800, Note_on_c, 0, 79, 0
1, 55800, Note_on_c, 0, 75, 0
1, 55800, Note_on_c, 0, 84, 45
1, 55800, Note_on_c, 0, 63, 50
1, 55920, Note_on_c, 0, 63, 0
1, 55920, Note_on_c, 0, 84, 0
1, 55920, Note_on_c, 0, 75, 45
1, 55920, Note_on_c, 0, 79, 53
1, 55920, Note_on_c, 0, 65, 52
1, 56040, Note_on_c, 0, 65, 0
1, 56040, Note_on_c, 0, 79, 0
1, 56040, Note_on_c, 0, 75, 0
1, 56040, Note_on_c, 0, 84, 45
1, 56040, Note_on_c, 0, 67, 52
1, 56160, Tempo, 458155
1, 56160, Note_on_c, 0, 67, 0
1, 56160, Note_on_c, 0, 84, 0
1, 56160, Note_on_c, 0, 75, 48
1, 56160, Note_on_c, 0, 79, 57
1, 56160, Note_on_c, 0, 63, 60
1, 56280, Note_on_c, 0, 79, 0
1, 56280, Note_on_c, 0, 75, 0
1, 56280, Note_on_c, 0, 82, 46
1, 56400, Tempo, 452625
1, 56400, Note_on_c, 0, 82, 0
1, 56400, Note_on_c, 0, 63, 0
1, 56400, Note_on_c, 0, 79, 53
1, 56400, Note_on_c, 0, 75, 45
1, 56400, Note_on_c, 0, 65, 57
1, 56520, Note_on_c, 0, 65, 0
1, 56520, Note_on_c, 0, 75, 0
1, 56520, Note_on_c, 0, 79, 0
1, 56520, Note_on_c, 0, 82, 45
1, 56520, Note_on_c, 0, 63, 52
1, 56640, Note_on_c, 0, 63, 0
1, 56640, Note_on_c, 0, 82, 0
1, 56640, Note_on_c, 0, 75, 45
1, 56640, Note_on_c, 0, 79, 53
1, 56640, Note_on_c, 0, 62, 57
1, 56760, Note_on_c, 0, 62, 0
1, 56760, Note_on_c, 0, 79, 0
1, 56760, Note_on_c, 0, 75, 0
1, 56760, Note_on_c, 0, 82, 45
1, 56760, Note_on_c, 0, 60, 52
1, 56880, Tempo, 463750
1, 56880, Note_on_c, 0, 60, 0
1, 56880, Note_on_c, 0, 82, 0
1, 56880, Note_on_c, 0, 74, 51
1, 56880, Note_on_c, 0, 80, 61
1, 56880, Note_on_c, 0, 58, 61
1, 56940, Note_on_c, 0, 58, 0
1, 57000, Note_on_c, 0, 80, 0
1, 57000, Note_on_c, 0, 74, 0
1, 57000, Note_on_c, 0, 82, 46
1, 57120, Note_on_c, 0, 82, 0
1, 57120, Note_on_c, 0, 74, 45
1, 57120, Note_on_c, 0, 80, 53
1, 57120, Note_on_c, 0, 58, 52
1, 57180, Note_on_c, 0, 58, 0
1, 57240, Note_on_c, 0, 80, 0
1, 57240, Note_on_c, 0, 74, 0
1, 57240, Note_on_c, 0, 82, 48
1, 57360, Tempo, 472776
1, 57360, Note_on_c, 0, 82, 0
1, 57360, Note_on_c, 0, 74, 45
1, 57360, Note_on_c, 0, 80, 53
1, 57360, Note_on_c, 0, 58, 52
1, 57420, Note_on_c, 0, 58, 0
1, 57480, Note_on_c, 0, 80, 0
1, 57480, Note_on_c, 0, 74, 0
1, 57480, Note_on_c, 0, 82, 46
1, 57600, Tempo, 463679
1, 57600, Note_on_c, 0, 82, 0
1, 57600, Note_on_c, 0, 74, 49
1, 57600, Note_on_c, 0, 80, 58
1, 57600, Note_on_c, 0, 59, 60
1, 57720, Note_on_c, 0, 80, 0
1, 57720, Note_on_c, 0, 74, 0
1, 57720, Note_on_c, 0, 86, 46
1, 57840, Note_on_c, 0, 86, 0
1, 57840, Note_on_c, 0, 59, 0
1, 57840, Note_on_c, 0, 74, 45
1, 57840, Note_on_c, 0, 80, 53
1, 57840, Note_on_c, 0, 71, 50
1, 57960, Note_on_c, 0, 80, 0
1, 57960, Note_on_c, 0, 74, 0
1, 57960, Note_on_c, 0, 86, 46
1, 58080, Tempo, 474608
1, 58080, Note_on_c, 0, 86, 0
1, 58080, Note_on_c, 0, 71, 0
1, 58080, Note_on_c, 0, 74, 45
1, 58080, Note_on_c, 0, 80, 53
1, 58080, Note_on_c, 0, 71, 53
1, 58140, Note_on_c, 0, 71, 0
1, 58200, Note_on_c, 0, 80, 0
1, 58200, Note_on_c, 0, 74, 0
1, 58200, Note_on_c, 0, 86, 46
1, 58320, Tempo, 463679
1, 58320, Note_on_c, 0, 86, 0
1, 58320, Note_on_c, 0, 75, 48
1, 58320, Note_on_c, 0, 79, 57
1, 58320, Note_on_c, 0, 72, 62
1, 58440, Note_on_c, 0, 79, 0
1, 58440, Note_on_c, 0, 75, 0
1, 58440, Note_on_c, 0, 87, 46
1, 58560, Note_on_c, 0, 87, 0
1, 58560, Note_on_c, 0, 72, 0
1, 58560, Note_on_c, 0, 75, 45
1, 58560, Note_on_c, 0, 79, 53
1, 58560, Note_on_c, 0, 60, 58
1, 58680, Note_on_c, 0, 79, 0
1, 58680, Note_on_c, 0, 75, 0
1, 58680, Note_on_c, 0, 87, 46
1, 58800, Note_on_c, 0, 87, 0
1, 58800, Note_on_c, 0, 60, 0
1, 58800, Note_on_c, 0, 75, 45
1, 58800, Note_on_c, 0, 79, 53
1, 58800, Note_on_c, 0, 60, 60
1, 58860, Note_on_c, 0, 60, 0
1, 58920, Note_on_c, 0, 79, 0
1, 58920, Note_on_c, 0, 75, 0
1, 58920, Note_on_c, 0, 86, 46
1, 59040, Note_on_c, 0, 86, 0
1, 59040, Note_on_c, 0, 75, 45
1, 59040, Note_on_c, 0, 81, 53
1, 59040, Note_on_c, 0, 65, 66
1, 59100, Note_on_c, 0, 65, 0
1, 59160, Note_on_c, 0, 81, 0
1, 59160, Note_on_c, 0, 75, 0
1, 59160, Note_on_c, 0, 84, 46
1, 59220, Note_on_c, 0, 55, 58
1, 59280, Tempo, 452625
1, 59280, Note_on_c, 0, 84, 0
1, 59280, Note_on_c, 0, 75, 45
1, 59280, Note_on_c, 0, 81, 53
1, 59280, Note_on_c, 0, 53, 67
1, 59300, Note_on_c, 0, 55, 0
1, 59400, Note_on_c, 0, 75, 0
1, 59400, Note_on_c, 0, 81, 0
1, 59400, Note_on_c, 0, 84, 46
1, 59400, Note_on_c, 0, 52, 62
1, 59420, Note_on_c, 0, 53, 0
1, 59520, Tempo, 491884
1, 59520, Note_on_c, 0, 84, 0
1, 59520, Note_on_c, 0, 75, 45
1, 59520, Note_on_c, 0, 81, 53
1, 59520, Note_on_c, 0, 53, 66
1, 59540, Note_on_c, 0, 52, 0
1, 59640, Note_on_c, 0, 75, 0
1, 59640, Note_on_c, 0, 81, 0
1, 59640, Note_on_c, 0, 84, 46
1, 59760, Tempo, 461787
1, 59760, Note_on_c, 0, 84, 0
1, 59760, Note_on_c, 0, 53, 0
1, 59760, Note_on_c, 0, 74, 45
1, 59760, Note_on_c, 0, 82, 53
1, 59760, Note_on_c, 0, 58, 62
1, 59820, Note_on_c, 0, 58, 0
1, 59880, Note_on_c, 0, 82, 0
1, 59880, Note_on_c, 0, 74, 0
1, 59880, Note_on_c, 0, 86, 46
1, 59940, Note_on_c, 0, 48, 54
1, 60000, Tempo, 452625
1, 60000, Note_on_c, 0, 86, 0
1, 60000, Note_on_c, 0, 74, 45
1, 60000, Note_on_c, 0, 82, 53
1, 60000, Note_on_c, 0, 46, 62
1, 60020, Note_on_c, 0, 48, 0
1, 60120, Note_on_c, 0, 74, 0
1, 60120, Note_on_c, 0, 82, 0
1, 60120, Note_on_c, 0, 86, 46
1, 60120, Note_on_c, 0, 45, 57
1, 60140, Note_on_c, 0, 46, 0
1, 60240, Tempo, 504498
1, 60240, Note_on_c, 0, 86, 0
1, 60240, Note_on_c, 0, 74, 45
1, 60240, Note_on_c, 0, 82, 53
1, 60240, Note_on_c, 0, 46, 62
1, 60260, Note_on_c, 0, 45, 0
1, 60360, Note_on_c, 0, 74, 0
1, 60360, Note_on_c, 0, 82, 0
1, 60360, Note_on_c, 0, 86, 46
1, 60480, Tempo, 456274
1, 60480, Note_on_c, 0, 86, 0
1, 60480, Note_on_c, 0, 46, 0
1, 60480, Note_on_c, 0, 75, 46
1, 60480, Note_on_c, 0, 81, 54
1, 60480, Note_on_c, 0, 41, 56
1, 60487, Control_c, 0, 64, 0
1, 60572, Control_c, 0, 64, 127
1, 60600, Note_on_c, 0, 81, 0
1, 60600, Note_on_c, 0, 75, 0
1, 60600, Note_on_c, 0, 84, 46
1, 60720, Tempo, 452625
1, 60720, Note_on_c, 0, 84, 0
1, 60720, Note_on_c, 0, 41, 0
1, 60720, Note_on_c, 0, 75, 45
1, 60720, Note_on_c, 0, 81, 53
1, 60720, Note_on_c, 0, 43, 44
1, 60739, Control_c, 0, 64, 0
1, 60826, Control_c, 0, 64, 127
1, 60840, Note_on_c, 0, 43, 0
1, 60840, Note_on_c, 0, 81, 0
1, 60840, Note_on_c, 0, 75, 0
1, 60840, Note_on_c, 0, 84, 45
1, 60840, Note_on_c, 0, 45, 44
1, 60960, Tempo, 469043
1, 60960, Note_on_c, 0, 45, 0
1, 60960, Note_on_c, 0, 84, 0
1, 60960, Note_on_c, 0, 75, 45
1, 60960, Note_on_c, 0, 81, 53
1, 60960, Note_on_c, 0, 46, 47
1, 61080, Note_on_c, 0, 46, 0
1, 61080, Note_on_c, 0, 81, 0
1, 61080, Note_on_c, 0, 75, 0
1, 61080, Note_on_c, 0, 84, 45
1, 61080, Note_on_c, 0, 48, 47
1, 61200, Tempo, 470995
1, 61200, Note_on_c, 0, 48, 0
1, 61200, Note_on_c, 0, 84, 0
1, 61200, Note_on_c, 0, 74, 48
1, 61200, Note_on_c, 0, 82, 57
1, 61200, Control_c, 0, 64, 0
1, 61200, Note_on_c, 0, 46, 53
1, 61240, Tempo, 478965
1, 61260, Note_on_c, 0, 46, 0
1, 61320, Tempo, 480962
1, 61320, Note_on_c, 0, 82, 0
1, 61320, Note_on_c, 0, 74, 0
1, 61320, Note_on_c, 0, 86, 46
1, 61400, Tempo, 483014
1, 61440, Note_on_c, 0, 86, 0
1, 61440, Note_on_c, 0, 82, 53
1, 61440, Note_on_c, 0, 74, 45
1, 61440, Note_on_c, 0, 46, 53
1, 61480, Tempo, 485084
1, 61500, Note_on_c, 0, 46, 0
1, 61560, Tempo, 487171
1, 61560, Note_on_c, 0, 74, 0
1, 61560, Note_on_c, 0, 82, 0
1, 61560, Note_on_c, 0, 86, 45
1, 61640, Tempo, 489277
1, 61680, Tempo, 491400
1, 61680, Note_on_c, 0, 86, 0
1, 61680, Note_on_c, 0, 74, 45
1, 61680, Note_on_c, 0, 82, 53
1, 61680, Note_on_c, 0, 46, 53
1, 61740, Note_on_c, 0, 46, 0
1, 61800, Note_on_c, 0, 82, 0
1, 61800, Note_on_c, 0, 74, 0
1, 61800, Note_on_c, 0, 86, 45
1, 61920, Tempo, 469043
1, 61920, Note_on_c, 0, 86, 0
1, 61920, Note_on_c, 0, 75, 41
1, 61920, Note_on_c, 0, 81, 49
1, 61920, Note_on_c, 0, 53, 50
1, 62012, Control_c, 0, 64, 127
1, 62040, Note_on_c, 0, 81, 0
1, 62040, Note_on_c, 0, 75, 0
1, 62040, Note_on_c, 0, 84, 41
1, 62160, Tempo, 457701
1, 62160, Note_on_c, 0, 84, 0
1, 62160, Note_on_c, 0, 53, 0
1, 62160, Note_on_c, 0, 75, 40
1, 62160, Note_on_c, 0, 81, 48
1, 62160, Note_on_c, 0, 55, 39
1, 62179, Control_c, 0, 64, 0
1, 62266, Control_c, 0, 64, 127
1, 62280, Note_on_c, 0, 55, 0
1, 62280, Note_on_c, 0, 81, 0
1, 62280, Note_on_c, 0, 75, 0
1, 62280, Note_on_c, 0, 84, 40
1, 62280, Note_on_c, 0, 57, 39
1, 62400, Tempo, 467108
1, 62400, Note_on_c, 0, 57, 0
1, 62400, Note_on_c, 0, 84, 0
1, 62400, Note_on_c, 0, 75, 40
1, 62400, Note_on_c, 0, 81, 48
1, 62400, Note_on_c, 0, 58, 41
1, 62520, Note_on_c, 0, 58, 0
1, 62520, Note_on_c, 0, 81, 0
1, 62520, Note_on_c, 0, 75, 0
1, 62520, Note_on_c, 0, 84, 40
1, 62520, Note_on_c, 0, 60, 41
1, 62640, Tempo, 485084
1, 62640, Note_on_c, 0, 60, 0
1, 62640, Note_on_c, 0, 84, 0
1, 62640, Note_on_c, 0, 74, 42
1, 62640, Note_on_c, 0, 82, 51
1, 62640, Control_c, 0, 64, 0
1, 62640, Note_on_c, 0, 58, 48
1, 62700, Note_on_c, 0, 58, 0
1, 62720, Tempo, 487171
1, 62760, Note_on_c, 0, 82, 0
1, 62760, Note_on_c, 0, 74, 0
1, 62760, Note_on_c, 0, 86, 41
1, 62800, Tempo, 489277
1, 62880, Tempo, 491400
1, 62880, Note_on_c, 0, 86, 0
1, 62880, Note_on_c, 0, 82, 48
1, 62880, Note_on_c, 0, 74, 40
1, 62880, Note_on_c, 0, 58, 48
1, 62940, Note_on_c, 0, 58, 0
1, 62960, Tempo, 493543
1, 63000, Note_on_c, 0, 74, 0
1, 63000, Note_on_c, 0, 82, 0
1, 63000, Note_on_c, 0, 86, 40
1, 63040, Tempo, 495663
1, 63080, Tempo, 487171
1, 63120, Tempo, 497843
1, 63120, Note_on_c, 0, 86, 0
1, 63120, Note_on_c, 0, 74, 40
1, 63120, Note_on_c, 0, 82, 48
1, 63120, Note_on_c, 0, 58, 48
1, 63180, Note_on_c, 0, 58, 0
1, 63240, Note_on_c, 0, 82, 0
1, 63240, Note_on_c, 0, 74, 0
1, 63240, Note_on_c, 0, 86, 40
1, 63360, Tempo, 485084
1, 63360, Note_on_c, 0, 86, 0
1, 63360, Note_on_c, 0, 75, 35
1, 63360, Note_on_c, 0, 81, 43
1, 63360, Note_on_c, 0, 65, 44
1, 63452, Control_c, 0, 64, 127
1, 63480, Note_on_c, 0, 81, 0
1, 63480, Note_on_c, 0, 75, 0
1, 63480, Note_on_c, 0, 84, 37
1, 63600, Tempo, 457701
1, 63600, Note_on_c, 0, 84, 0
1, 63600, Note_on_c, 0, 65, 0
1, 63600, Note_on_c, 0, 75, 35
1, 63600, Note_on_c, 0, 81, 42
1, 63600, Note_on_c, 0, 67, 34
1, 63649, Control_c, 0, 64, 0
1, 63706, Control_c, 0, 64, 127
1, 63720, Note_on_c, 0, 67, 0
1, 63720, Note_on_c, 0, 81, 0
1, 63720, Note_on_c, 0, 75, 0
1, 63720, Note_on_c, 0, 84, 35
1, 63720, Note_on_c, 0, 69, 34
1, 63840, Tempo, 483014
1, 63840, Note_on_c, 0, 69, 0
1, 63840, Note_on_c, 0, 84, 0
1, 63840, Note_on_c, 0, 75, 35
1, 63840, Note_on_c, 0, 81, 42
1, 63840, Note_on_c, 0, 70, 37
1, 63960, Note_on_c, 0, 70, 0
1, 63960, Note_on_c, 0, 81, 0
1, 63960, Note_on_c, 0, 75, 0
1, 63960, Note_on_c, 0, 84, 35
1, 63960, Note_on_c, 0, 72, 37
1, 64080, Tempo, 500042
1, 64080, Note_on_c, 0, 72, 0
1, 64080, Note_on_c, 0, 84, 0
1, 64080, Note_on_c, 0, 74, 38
1, 64080, Note_on_c, 0, 82, 45
1, 64080, Control_c, 0, 64, 0
1, 64080, Note_on_c, 0, 70, 42
1, 64140, Note_on_c, 0, 70, 0
1, 64200, Note_on_c, 0, 82, 0
1, 64200, Note_on_c, 0, 74, 0
1, 64200, Note_on_c, 0, 86, 37
1, 64320, Note_on_c, 0, 86, 0
1, 64320, Note_on_c, 0, 82, 42
1, 64320, Note_on_c, 0, 74, 35
1, 64320, Note_on_c, 0, 70, 42
1, 64380, Note_on_c, 0, 70, 0
1, 64440, Note_on_c, 0, 74, 0
1, 64440, Note_on_c, 0, 82, 0
1, 64440, Note_on_c, 0, 86, 35
1, 64560, Tempo, 644953
1, 64560, Note_on_c, 0, 86, 0
1, 64560, Note_on_c, 0, 74, 35
1, 64560, Note_on_c, 0, 82, 42
1, 64560, Note_on_c, 0, 70, 42
1, 64620, Note_on_c, 0, 70, 0
1, 64800, Tempo, 492045
1, 64800, Note_on_c, 0, 82, 0
1, 64800, Note_on_c, 0, 74, 0
1, 64800, Note_on_c, 0, 82, 56
1, 64800, Note_on_c, 0, 63, 29
1, 64800, Note_on_c, 0, 67, 34
1, 64850, Control_c, 0, 64, 127
1, 64860, Note_on_c, 0, 82, 0
1, 64920, Note_on_c, 0, 67, 0
1, 64920, Note_on_c, 0, 63, 0
1, 64920, Note_on_c, 0, 70, 28
1, 64980, Note_on_c, 0, 80, 48
1, 65040, Note_on_c, 0, 80, 0
1, 65040, Note_on_c, 0, 70, 0
1, 65040, Note_on_c, 0, 79, 56
1, 65040, Note_on_c, 0, 63, 26
1, 65040, Note_on_c, 0, 67, 32
1, 65041, Tempo, 452625
1, 65045, Control_c, 0, 64, 0
1, 65080, Control_c, 0, 64, 127
1, 65160, Note_on_c, 0, 67, 0
1, 65160, Note_on_c, 0, 63, 0
1, 65160, Note_on_c, 0, 79, 0
1, 65160, Note_on_c, 0, 77, 52
1, 65160, Note_on_c, 0, 70, 28
1, 65280, Note_on_c, 0, 70, 0
1, 65280, Note_on_c, 0, 77, 0
1, 65280, Note_on_c, 0, 79, 56
1, 65280, Note_on_c, 0, 63, 26
1, 65280, Note_on_c, 0, 67, 32
1, 65281, Tempo, 458155
1, 65294, Control_c, 0, 64, 0
1, 65314, Control_c, 0, 64, 127
1, 65400, Note_on_c, 0, 67, 0
1, 65400, Note_on_c, 0, 63, 0
1, 65400, Note_on_c, 0, 70, 28
1, 65520, Tempo, 482199
1, 65520, Note_on_c, 0, 70, 0
1, 65520, Note_on_c, 0, 79, 0
1, 65520, Note_on_c, 0, 82, 56
1, 65520, Note_on_c, 0, 62, 26
1, 65520, Note_on_c, 0, 65, 32
1, 65520, Control_c, 0, 64, 0
1, 65535, Control_c, 0, 64, 0
1, 65570, Control_c, 0, 64, 127
1, 65580, Note_on_c, 0, 82, 0
1, 65640, Note_on_c, 0, 65, 0
1, 65640, Note_on_c, 0, 62, 0
1, 65640, Note_on_c, 0, 70, 28
1, 65700, Note_on_c, 0, 79, 48
1, 65760, Note_on_c, 0, 79, 0
1, 65760, Note_on_c, 0, 70, 0
1, 65760, Note_on_c, 0, 77, 56
1, 65760, Note_on_c, 0, 62, 26
1, 65760, Note_on_c, 0, 65, 32
1, 65761, Tempo, 452625
1, 65764, Control_c, 0, 64, 0
1, 65803, Control_c, 0, 64, 127
1, 65880, Note_on_c, 0, 65, 0
1, 65880, Note_on_c, 0, 62, 0
1, 65880, Note_on_c, 0, 77, 0
1, 65880, Note_on_c, 0, 76, 52
1, 65880, Note_on_c, 0, 70, 28
1, 66000, Tempo, 467108
1, 66000, Note_on_c, 0, 70, 0
1, 66000, Note_on_c, 0, 76, 0
1, 66000, Note_on_c, 0, 77, 56
1, 66000, Note_on_c, 0, 61, 26
1, 66000, Note_on_c, 0, 65, 32
1, 66020, Control_c, 0, 64, 0
1, 66049, Control_c, 0, 64, 127
1, 66120, Note_on_c, 0, 65, 0
1, 66120, Note_on_c, 0, 61, 0
1, 66120, Note_on_c, 0, 70, 28
1, 66240, Tempo, 482199
1, 66240, Note_on_c, 0, 70, 0
1, 66240, Note_on_c, 0, 77, 0
1, 66240, Note_on_c, 0, 84, 58
1, 66240, Note_on_c, 0, 60, 26
1, 66240, Note_on_c, 0, 65, 32
1, 66255, Control_c, 0, 64, 0
1, 66274, Control_c, 0, 64, 0
1, 66290, Control_c, 0, 64, 127
1, 66360, Note_on_c, 0, 65, 0
1, 66360, Note_on_c, 0, 60, 0
1, 66360, Note_on_c, 0, 68, 28
1, 66480, Note_on_c, 0, 68, 0
1, 66480, Note_on_c, 0, 84, 0
1, 66480, Note_on_c, 0, 82, 59
1, 66480, Note_on_c, 0, 60, 26
1, 66480, Note_on_c, 0, 65, 32
1, 66481, Tempo, 452625
1, 66491, Control_c, 0, 64, 0
1, 66531, Control_c, 0, 64, 127
1, 66600, Note_on_c, 0, 65, 0
1, 66600, Note_on_c, 0, 60, 0
1, 66600, Note_on_c, 0, 82, 0
1, 66600, Note_on_c, 0, 80, 54
1, 66600, Note_on_c, 0, 68, 28
1, 66720, Tempo, 478965
1, 66720, Note_on_c, 0, 68, 0
1, 66720, Note_on_c, 0, 80, 0
1, 66720, Note_on_c, 0, 79, 58
1, 66720, Note_on_c, 0, 60, 26
1, 66720, Note_on_c, 0, 65, 32
1, 66840, Note_on_c, 0, 65, 0
1, 66840, Note_on_c, 0, 60, 0
1, 66840, Note_on_c, 0, 79, 0
1, 66840, Note_on_c, 0, 77, 58
1, 66840, Note_on_c, 0, 68, 28
1, 66960, Tempo, 491400
1, 66960, Note_on_c, 0, 68, 0
1, 66960, Note_on_c, 0, 77, 0
1, 66960, Note_on_c, 0, 84, 58
1, 66960, Note_on_c, 0, 60, 26
1, 66960, Note_on_c, 0, 65, 32
1, 66960, Control_c, 0, 64, 0
1, 66975, Control_c, 0, 64, 0
1, 67010, Control_c, 0, 64, 127
1, 67080, Note_on_c, 0, 65, 0
1, 67080, Note_on_c, 0, 60, 0
1, 67080, Note_on_c, 0, 67, 28
1, 67200, Tempo, 472962
1, 67200, Note_on_c, 0, 67, 0
1, 67200, Note_on_c, 0, 84, 0
1, 67200, Note_on_c, 0, 72, 56
1, 67200, Note_on_c, 0, 60, 26
1, 67200, Note_on_c, 0, 64, 32
1, 67206, Control_c, 0, 64, 0
1, 67234, Control_c, 0, 64, 127
1, 67320, Note_on_c, 0, 64, 0
1, 67320, Note_on_c, 0, 60, 0
1, 67320, Note_on_c, 0, 67, 28
1, 67440, Note_on_c, 0, 67, 0
1, 67440, Note_on_c, 0, 72, 0
1, 67440, Note_on_c, 0, 72, 56
1, 67440, Note_on_c, 0, 60, 26
1, 67440, Note_on_c, 0, 64, 32
1, 67560, Note_on_c, 0, 64, 0
1, 67560, Note_on_c, 0, 60, 0
1, 67560, Note_on_c, 0, 67, 30
1, 67680, Tempo, 480962
1, 67680, Note_on_c, 0, 67, 0
1, 67680, Note_on_c, 0, 72, 0
1, 67680, Note_on_c, 0, 68, 37
1, 67680, Note_on_c, 0, 72, 44
1, 67680, Note_on_c, 0, 56, 37
1, 67680, Control_c, 0, 64, 0
1, 67680, Note_on_c, 0, 60, 44
1, 67800, Note_on_c, 0, 72, 0
1, 67800, Note_on_c, 0, 68, 0
1, 67800, Note_on_c, 0, 75, 39
1, 67920, Tempo, 478965
1, 67920, Note_on_c, 0, 75, 0
1, 67920, Note_on_c, 0, 60, 0
1, 67920, Note_on_c, 0, 68, 38
1, 67920, Note_on_c, 0, 72, 45
1, 67920, Note_on_c, 0, 61, 40
1, 68040, Note_on_c, 0, 72, 0
1, 68040, Note_on_c, 0, 68, 0
1, 68040, Note_on_c, 0, 75, 38
1, 68160, Tempo, 485084
1, 68160, Note_on_c, 0, 75, 0
1, 68160, Note_on_c, 0, 61, 0
1, 68160, Note_on_c, 0, 68, 38
1, 68160, Note_on_c, 0, 72, 45
1, 68160, Note_on_c, 0, 60, 40
1, 68280, Note_on_c, 0, 72, 0
1, 68280, Note_on_c, 0, 68, 0
1, 68280, Note_on_c, 0, 75, 39
1, 68360, Tempo, 474947
1, 68400, Tempo, 480962
1, 68400, Note_on_c, 0, 75, 0
1, 68400, Note_on_c, 0, 56, 0
1, 68400, Note_on_c, 0, 60, 0
1, 68400, Note_on_c, 0, 68, 37
1, 68400, Note_on_c, 0, 77, 44
1, 68400, Note_on_c, 0, 49, 37
1, 68400, Note_on_c, 0, 58, 44
1, 68520, Note_on_c, 0, 77, 0
1, 68520, Note_on_c, 0, 68, 0
1, 68520, Note_on_c, 0, 80, 39
1, 68640, Tempo, 474947
1, 68640, Note_on_c, 0, 80, 0
1, 68640, Note_on_c, 0, 58, 0
1, 68640, Note_on_c, 0, 68, 39
1, 68640, Note_on_c, 0, 77, 47
1, 68640, Note_on_c, 0, 53, 42
1, 68760, Note_on_c, 0, 77, 0
1, 68760, Note_on_c, 0, 68, 0
1, 68760, Note_on_c, 0, 80, 39
1, 68880, Note_on_c, 0, 80, 0
1, 68880, Note_on_c, 0, 53, 0
1, 68880, Note_on_c, 0, 68, 41
1, 68880, Note_on_c, 0, 77, 49
1, 68880, Note_on_c, 0, 55, 44
1, 69000, Tempo, 483014
1, 69000, Note_on_c, 0, 77, 0
1, 69000, Note_on_c, 0, 68, 0
1, 69000, Note_on_c, 0, 80, 43
1, 69060, Note_on_c, 0, 58, 39
1, 69120, Tempo, 474608
1, 69120, Note_on_c, 0, 58, 0
1, 69120, Note_on_c, 0, 55, 0
1, 69120, Note_on_c, 0, 49, 0
1, 69120, Note_on_c, 0, 80, 0
1, 69120, Note_on_c, 0, 68, 37
1, 69120, Note_on_c, 0, 72, 44
1, 69120, Note_on_c, 0, 51, 37
1, 69120, Note_on_c, 0, 56, 44
1, 69240, Note_on_c, 0, 72, 0
1, 69240, Note_on_c, 0, 68, 0
1, 69240, Note_on_c, 0, 75, 38
1, 69360, Note_on_c, 0, 75, 0
1, 69360, Note_on_c, 0, 56, 0
1, 69360, Note_on_c, 0, 68, 35
1, 69360, Note_on_c, 0, 72, 42
1, 69360, Note_on_c, 0, 55, 38
1, 69480, Note_on_c, 0, 72, 0
1, 69480, Note_on_c, 0, 68, 0
1, 69480, Note_on_c, 0, 75, 34
1, 69600, Tempo, 487171
1, 69600, Note_on_c, 0, 75, 0
1, 69600, Note_on_c, 0, 55, 0
1, 69600, Note_on_c, 0, 68, 34
1, 69600, Note_on_c, 0, 72, 40
1, 69600, Note_on_c, 0, 56, 35
1, 69720, Note_on_c, 0, 72, 0
1, 69720, Note_on_c, 0, 68, 0
1, 69720, Note_on_c, 0, 75, 33
1, 69840, Tempo, 476948
1, 69840, Note_on_c, 0, 75, 0
1, 69840, Note_on_c, 0, 56, 0
1, 69840, Note_on_c, 0, 67, 31
1, 69840, Note_on_c, 0, 73, 37
1, 69840, Note_on_c, 0, 58, 37
1, 69960, Tempo, 478965
1, 69960, Note_on_c, 0, 73, 0
1, 69960, Note_on_c, 0, 67, 0
1, 69960, Note_on_c, 0, 75, 32
1, 70040, Tempo, 480962
1, 70080, Note_on_c, 0, 75, 0
1, 70080, Note_on_c, 0, 67, 31
1, 70080, Note_on_c, 0, 73, 38
1, 70160, Tempo, 483014
1, 70200, Note_on_c, 0, 73, 0
1, 70200, Note_on_c, 0, 67, 0
1, 70200, Note_on_c, 0, 75, 31
1, 70240, Tempo, 485084
1, 70320, Note_on_c, 0, 75, 0
1, 70320, Note_on_c, 0, 58, 0
1, 70320, Note_on_c, 0, 67, 31
1, 70320, Note_on_c, 0, 73, 38
1, 70320, Note_on_c, 0, 59, 34
1, 70360, Tempo, 487171
1, 70440, Tempo, 489277
1, 70440, Note_on_c, 0, 73, 0
1, 70440, Note_on_c, 0, 67, 0
1, 70440, Note_on_c, 0, 75, 32
1, 70520, Tempo, 491400
1, 70560, Tempo, 492045
1, 70560, Note_on_c, 0, 75, 0
1, 70560, Note_on_c, 0, 51, 0
1, 70560, Note_on_c, 0, 59, 0
1, 70560, Note_on_c, 0, 68, 47
1, 70560, Note_on_c, 0, 72, 47
1, 70560, Note_on_c, 0, 75, 56
1, 70560, Control_c, 0, 64, 0
1, 70560, Note_on_c, 0, 56, 29
1, 70560, Note_on_c, 0, 60, 34
1, 70610, Control_c, 0, 64, 127
1, 70620, Note_on_c, 0, 75, 0
1, 70620, Note_on_c, 0, 68, 0
1, 70620, Note_on_c, 0, 72, 0
1, 70680, Note_on_c, 0, 56, 0
1, 70680, Note_on_c, 0, 60, 0
1, 70680, Note_on_c, 0, 63, 28
1, 70740, Note_on_c, 0, 73, 49
1, 70800, Note_on_c, 0, 73, 0
1, 70800, Note_on_c, 0, 63, 0
1, 70800, Note_on_c, 0, 72, 56
1, 70800, Note_on_c, 0, 56, 26
1, 70800, Note_on_c, 0, 60, 32
1, 70801, Tempo, 452625
1, 70803, Control_c, 0, 64, 0
1, 70852, Control_c, 0, 64, 127
1, 70920, Note_on_c, 0, 60, 0
1, 70920, Note_on_c, 0, 56, 0
1, 70920, Note_on_c, 0, 72, 0
1, 70920, Note_on_c, 0, 70, 52
1, 70920, Note_on_c, 0, 63, 28
1, 71040, Note_on_c, 0, 63, 0
1, 71040, Note_on_c, 0, 70, 0
1, 71040, Note_on_c, 0, 72, 56
1, 71040, Note_on_c, 0, 56, 26
1, 71040, Note_on_c, 0, 60, 32
1, 71041, Tempo, 458155
1, 71046, Control_c, 0, 64, 0
1, 71069, Control_c, 0, 64, 127
1, 71160, Note_on_c, 0, 60, 0
1, 71160, Note_on_c, 0, 56, 0
1, 71160, Note_on_c, 0, 63, 28
1, 71280, Tempo, 482199
1, 71280, Note_on_c, 0, 63, 0
1, 71280, Note_on_c, 0, 72, 0
1, 71280, Note_on_c, 0, 75, 56
1, 71280, Note_on_c, 0, 55, 26
1, 71280, Note_on_c, 0, 58, 32
1, 71280, Control_c, 0, 64, 0
1, 71295, Control_c, 0, 64, 0
1, 71330, Control_c, 0, 64, 127
1, 71340, Note_on_c, 0, 75, 0
1, 71400, Note_on_c, 0, 58, 0
1, 71400, Note_on_c, 0, 55, 0
1, 71400, Note_on_c, 0, 63, 28
1, 71460, Note_on_c, 0, 72, 49
1, 71520, Note_on_c, 0, 72, 0
1, 71520, Note_on_c, 0, 63, 0
1, 71520, Note_on_c, 0, 70, 56
1, 71520, Note_on_c, 0, 55, 26
1, 71520, Note_on_c, 0, 58, 32
1, 71521, Tempo, 452625
1, 71527, Control_c, 0, 64, 0
1, 71573, Control_c, 0, 64, 127
1, 71640, Note_on_c, 0, 58, 0
1, 71640, Note_on_c, 0, 55, 0
1, 71640, Note_on_c, 0, 70, 0
1, 71640, Note_on_c, 0, 69, 52
1, 71640, Note_on_c, 0, 63, 28
1, 71760, Tempo, 467108
1, 71760, Note_on_c, 0, 63, 0
1, 71760, Note_on_c, 0, 69, 0
1, 71760, Note_on_c, 0, 70, 56
1, 71760, Note_on_c, 0, 54, 26
1, 71760, Note_on_c, 0, 58, 32
1, 71764, Control_c, 0, 64, 0
1, 71820, Control_c, 0, 64, 127
1, 71880, Note_on_c, 0, 58, 0
1, 71880, Note_on_c, 0, 54, 0
1, 71880, Note_on_c, 0, 63, 28
1, 72000, Tempo, 482199
1, 72000, Note_on_c, 0, 63, 0
1, 72000, Note_on_c, 0, 70, 0
1, 72000, Note_on_c, 0, 77, 58
1, 72000, Note_on_c, 0, 53, 26
1, 72000, Note_on_c, 0, 58, 32
1, 72000, Control_c, 0, 64, 0
1, 72015, Control_c, 0, 64, 0
1, 72050, Control_c, 0, 64, 127
1, 72120, Note_on_c, 0, 58, 0
1, 72120, Note_on_c, 0, 53, 0
1, 72120, Note_on_c, 0, 61, 28
1, 72240, Note_on_c, 0, 61, 0
1, 72240, Note_on_c, 0, 77, 0
1, 72240, Note_on_c, 0, 75, 59
1, 72240, Note_on_c, 0, 53, 26
1, 72240, Note_on_c, 0, 58, 32
1, 72241, Tempo, 452625
1, 72246, Control_c, 0, 64, 0
1, 72303, Control_c, 0, 64, 127
1, 72360, Note_on_c, 0, 58, 0
1, 72360, Note_on_c, 0, 53, 0
1, 72360, Note_on_c, 0, 75, 0
1, 72360, Note_on_c, 0, 73, 54
1, 72360, Note_on_c, 0, 61, 28
1, 72480, Tempo, 476948
1, 72480, Note_on_c, 0, 61, 0
1, 72480, Note_on_c, 0, 73, 0
1, 72480, Note_on_c, 0, 72, 58
1, 72480, Note_on_c, 0, 53, 26
1, 72480, Note_on_c, 0, 58, 32
1, 72600, Note_on_c, 0, 58, 0
1, 72600, Note_on_c, 0, 53, 0
1, 72600, Note_on_c, 0, 72, 0
1, 72600, Note_on_c, 0, 70, 58
1, 72600, Note_on_c, 0, 61, 28
1, 72720, Tempo, 487171
1, 72720, Note_on_c, 0, 61, 0
1, 72720, Note_on_c, 0, 70, 0
1, 72720, Note_on_c, 0, 77, 58
1, 72720, Note_on_c, 0, 53, 26
1, 72720, Note_on_c, 0, 58, 32
1, 72720, Control_c, 0, 64, 0
1, 72735, Control_c, 0, 64, 0
1, 72770, Control_c, 0, 64, 127
1, 72840, Note_on_c, 0, 58, 0
1, 72840, Note_on_c, 0, 53, 0
1, 72840, Note_on_c, 0, 60, 28
1, 72960, Tempo, 474947
1, 72960, Note_on_c, 0, 60, 0
1, 72960, Note_on_c, 0, 77, 0
1, 72960, Note_on_c, 0, 65, 56
1, 72960, Note_on_c, 0, 53, 26
1, 72960, Note_on_c, 0, 57, 32
1, 72966, Control_c, 0, 64, 0
1, 73008, Control_c, 0, 64, 127
1, 73080, Note_on_c, 0, 57, 0
1, 73080, Note_on_c, 0, 53, 0
1, 73080, Note_on_c, 0, 60, 28
1, 73200, Note_on_c, 0, 60, 0
1, 73200, Note_on_c, 0, 65, 0
1, 73200, Note_on_c, 0, 65, 56
1, 73200, Note_on_c, 0, 53, 26
1, 73200, Note_on_c, 0, 57, 32
1, 73320, Note_on_c, 0, 57, 0
1, 73320, Note_on_c, 0, 53, 0
1, 73320, Note_on_c, 0, 60, 30
1, 73440, Tempo, 480962
1, 73440, Note_on_c, 0, 60, 0
1, 73440, Note_on_c, 0, 65, 0
1, 73440, Note_on_c, 0, 73, 37
1, 73440, Note_on_c, 0, 77, 44
1, 73440, Note_on_c, 0, 61, 37
1, 73440, Control_c, 0, 64, 0
1, 73440, Note_on_c, 0, 65, 44
1, 73560, Note_on_c, 0, 77, 0
1, 73560, Note_on_c, 0, 73, 0
1, 73560, Note_on_c, 0, 80, 39
1, 73680, Tempo, 478965
1, 73680, Note_on_c, 0, 80, 0
1, 73680, Note_on_c, 0, 65, 0
1, 73680, Note_on_c, 0, 73, 38
1, 73680, Note_on_c, 0, 77, 45
1, 73680, Note_on_c, 0, 66, 40
1, 73800, Note_on_c, 0, 77, 0
1, 73800, Note_on_c, 0, 73, 0
1, 73800, Note_on_c, 0, 80, 38
1, 73920, Tempo, 476948
1, 73920, Note_on_c, 0, 80, 0
1, 73920, Note_on_c, 0, 66, 0
1, 73920, Note_on_c, 0, 73, 38
1, 73920, Note_on_c, 0, 77, 45
1, 73920, Note_on_c, 0, 65, 40
1, 74040, Note_on_c, 0, 77, 0
1, 74040, Note_on_c, 0, 73, 0
1, 74040, Note_on_c, 0, 80, 39
1, 74120, Tempo, 474947
1, 74160, Tempo, 485084
1, 74160, Note_on_c, 0, 80, 0
1, 74160, Note_on_c, 0, 61, 0
1, 74160, Note_on_c, 0, 65, 0
1, 74160, Note_on_c, 0, 73, 37
1, 74160, Note_on_c, 0, 82, 44
1, 74160, Note_on_c, 0, 54, 37
1, 74160, Note_on_c, 0, 63, 44
1, 74280, Note_on_c, 0, 82, 0
1, 74280, Note_on_c, 0, 73, 0
1, 74280, Note_on_c, 0, 85, 39
1, 74400, Tempo, 472962
1, 74400, Note_on_c, 0, 85, 0
1, 74400, Note_on_c, 0, 63, 0
1, 74400, Note_on_c, 0, 73, 39
1, 74400, Note_on_c, 0, 82, 47
1, 74400, Note_on_c, 0, 58, 42
1, 74520, Note_on_c, 0, 82, 0
1, 74520, Note_on_c, 0, 73, 0
1, 74520, Note_on_c, 0, 85, 39
1, 74640, Note_on_c, 0, 85, 0
1, 74640, Note_on_c, 0, 58, 0
1, 74640, Note_on_c, 0, 73, 41
1, 74640, Note_on_c, 0, 82, 49
1, 74640, Note_on_c, 0, 60, 44
1, 74760, Tempo, 483014
1, 74760, Note_on_c, 0, 82, 0
1, 74760, Note_on_c, 0, 73, 0
1, 74760, Note_on_c, 0, 85, 43
1, 74820, Note_on_c, 0, 63, 40
1, 74880, Tempo, 474608
1, 74880, Note_on_c, 0, 63, 0
1, 74880, Note_on_c, 0, 60, 0
1, 74880, Note_on_c, 0, 54, 0
1, 74880, Note_on_c, 0, 85, 0
1, 74880, Note_on_c, 0, 73, 37
1, 74880, Note_on_c, 0, 77, 44
1, 74880, Note_on_c, 0, 56, 37
1, 74880, Note_on_c, 0, 61, 44
1, 75000, Note_on_c, 0, 77, 0
1, 75000, Note_on_c, 0, 73, 0
1, 75000, Note_on_c, 0, 80, 38
1, 75120, Note_on_c, 0, 80, 0
1, 75120, Note_on_c, 0, 61, 0
1, 75120, Note_on_c, 0, 73, 35
1, 75120, Note_on_c, 0, 77, 42
1, 75120, Note_on_c, 0, 60, 38
1, 75240, Note_on_c, 0, 77, 0
1, 75240, Note_on_c, 0, 73, 0
1, 75240, Note_on_c, 0, 80, 34
1, 75360, Note_on_c, 0, 80, 0
1, 75360, Note_on_c, 0, 60, 0
1, 75360, Note_on_c, 0, 73, 34
1, 75360, Note_on_c, 0, 77, 40
1, 75360, Note_on_c, 0, 61, 35
1, 75480, Note_on_c, 0, 77, 0
1, 75480, Note_on_c, 0, 73, 0
1, 75480, Note_on_c, 0, 80, 33
1, 75600, Tempo, 472776
1, 75600, Note_on_c, 0, 80, 0
1, 75600, Note_on_c, 0, 61, 0
1, 75600, Note_on_c, 0, 72, 31
1, 75600, Note_on_c, 0, 78, 37
1, 75600, Note_on_c, 0, 63, 37
1, 75710, Tempo, 474608
1, 75720, Note_on_c, 0, 78, 0
1, 75720, Note_on_c, 0, 72, 0
1, 75720, Note_on_c, 0, 80, 32
1, 75810, Tempo, 476531
1, 75840, Note_on_c, 0, 80, 0
1, 75840, Note_on_c, 0, 72, 31
1, 75840, Note_on_c, 0, 78, 38
1, 75910, Tempo, 478354
1, 75960, Note_on_c, 0, 78, 0
1, 75960, Note_on_c, 0, 72, 0
1, 75960, Note_on_c, 0, 80, 31
1, 76020, Tempo, 480384
1, 76080, Note_on_c, 0, 80, 0
1, 76080, Note_on_c, 0, 63, 0
1, 76080, Note_on_c, 0, 72, 31
1, 76080, Note_on_c, 0, 78, 38
1, 76080, Note_on_c, 0, 64, 34
1, 76120, Tempo, 482199
1, 76200, Note_on_c, 0, 78, 0
1, 76200, Note_on_c, 0, 72, 0
1, 76200, Note_on_c, 0, 80, 32
1, 76220, Tempo, 484183
1, 76320, Tempo, 492045
1, 76320, Note_on_c, 0, 80, 0
1, 76320, Note_on_c, 0, 56, 0
1, 76320, Note_on_c, 0, 64, 0
1, 76320, Note_on_c, 0, 73, 31
1, 76320, Note_on_c, 0, 77, 31
1, 76320, Note_on_c, 0, 80, 37
1, 76320, Note_on_c, 0, 61, 29
1, 76320, Note_on_c, 0, 65, 34
1, 76380, Note_on_c, 0, 65, 0
1, 76380, Note_on_c, 0, 61, 0
1, 76560, Tempo, 489277
1, 76560, Note_on_c, 0, 73, 0
1, 76560, Note_on_c, 0, 77, 0
1, 76560, Note_on_c, 0, 80, 0
1, 76560, Note_on_c, 0, 49, 28
1, 76620, Note_on_c, 0, 49, 0
1, 76800, Tempo, 504498
1, 76800, Note_on_c, 0, 49, 28
1, 76860, Note_on_c, 0, 49, 0
1, 77040, Tempo, 483014
1, 77040, Note_on_c, 0, 61, 26
1, 77043, Note_on_c, 0, 65, 32
1, 77100, Note_on_c, 0, 61, 0
1, 77103, Note_on_c, 0, 65, 0
1, 77280, Tempo, 491400
1, 77280, Note_on_c, 0, 49, 28
1, 77340, Note_on_c, 0, 49, 0
1, 77520, Tempo, 502260
1, 77520, Note_on_c, 0, 49, 28
1, 77580, Note_on_c, 0, 49, 0
1, 77700, Note_on_c, 0, 73, 40
1, 77730, Note_on_c, 0, 77, 40
1, 77760, Tempo, 467108
1, 77760, Note_on_c, 0, 80, 51
1, 77760, Note_on_c, 0, 61, 28
1, 77760, Note_on_c, 0, 65, 33
1, 77820, Note_on_c, 0, 65, 0
1, 77820, Note_on_c, 0, 61, 0
1, 77880, Note_on_c, 0, 73, 0
1, 77880, Note_on_c, 0, 77, 0
1, 77880, Note_on_c, 0, 80, 0
1, 78000, Tempo, 461432
1, 78000, Note_on_c, 0, 78, 40
1, 78000, Note_on_c, 0, 49, 28
1, 78060, Note_on_c, 0, 49, 0
1, 78120, Note_on_c, 0, 78, 0
1, 78120, Note_on_c, 0, 77, 40
1, 78240, Tempo, 483014
1, 78240, Note_on_c, 0, 77, 0
1, 78240, Note_on_c, 0, 75, 40
1, 78240, Note_on_c, 0, 49, 28
1, 78300, Note_on_c, 0, 49, 0
1, 78360, Note_on_c, 0, 75, 0
1, 78360, Note_on_c, 0, 73, 40
1, 78420, Note_on_c, 0, 68, 40
1, 78450, Note_on_c, 0, 72, 40
1, 78480, Tempo, 465224
1, 78480, Note_on_c, 0, 73, 0
1, 78480, Note_on_c, 0, 75, 49
1, 78480, Note_on_c, 0, 61, 28
1, 78480, Note_on_c, 0, 66, 34
1, 78540, Note_on_c, 0, 66, 0
1, 78540, Note_on_c, 0, 61, 0
1, 78600, Note_on_c, 0, 68, 0
1, 78600, Note_on_c, 0, 72, 0
1, 78600, Note_on_c, 0, 75, 0
1, 78720, Tempo, 461432
1, 78720, Note_on_c, 0, 73, 40
1, 78720, Note_on_c, 0, 49, 28
1, 78780, Note_on_c, 0, 49, 0
1, 78840, Note_on_c, 0, 73, 0
1, 78840, Note_on_c, 0, 72, 40
1, 78960, Tempo, 478965
1, 78960, Note_on_c, 0, 72, 0
1, 78960, Note_on_c, 0, 70, 40
1, 78960, Note_on_c, 0, 49, 28
1, 79020, Note_on_c, 0, 49, 0
1, 79080, Note_on_c, 0, 70, 0
1, 79080, Note_on_c, 0, 68, 40
1, 79140, Note_on_c, 0, 73, 40
1, 79170, Note_on_c, 0, 77, 40
1, 79200, Tempo, 487171
1, 79200, Note_on_c, 0, 68, 0
1, 79200, Note_on_c, 0, 80, 53
1, 79200, Note_on_c, 0, 61, 28
1, 79200, Note_on_c, 0, 65, 33
1, 79260, Note_on_c, 0, 65, 0
1, 79260, Note_on_c, 0, 61, 0
1, 79320, Note_on_c, 0, 73, 0
1, 79320, Note_on_c, 0, 77, 0
1, 79320, Note_on_c, 0, 80, 0
1, 79440, Tempo, 461432
1, 79440, Note_on_c, 0, 78, 42
1, 79440, Note_on_c, 0, 49, 28
1, 79500, Note_on_c, 0, 49, 0
1, 79560, Note_on_c, 0, 78, 0
1, 79560, Note_on_c, 0, 77, 45
1, 79680, Note_on_c, 0, 77, 0
1, 79680, Note_on_c, 0, 75, 47
1, 79680, Note_on_c, 0, 49, 33
1, 79740, Note_on_c, 0, 49, 0
1, 79800, Note_on_c, 0, 75, 0
1, 79800, Note_on_c, 0, 73, 51
1, 79920, Tempo, 485084
1, 79920, Note_on_c, 0, 73, 0
1, 79920, Note_on_c, 0, 85, 57
1, 79920, Note_on_c, 0, 82, 57
1, 79920, Note_on_c, 0, 78, 57
1, 79920, Note_on_c, 0, 61, 31
1, 79920, Note_on_c, 0, 66, 38
1, 79980, Note_on_c, 0, 66, 0
1, 79980, Note_on_c, 0, 78, 0
1, 79980, Note_on_c, 0, 85, 0
1, 79980, Note_on_c, 0, 82, 0
1, 79980, Note_on_c, 0, 61, 0
1, 80160, Note_on_c, 0, 78, 51
1, 80160, Note_on_c, 0, 82, 51
1, 80160, Note_on_c, 0, 85, 51
1, 80160, Note_on_c, 0, 49, 28
1, 80220, Note_on_c, 0, 49, 0
1, 80220, Note_on_c, 0, 78, 0
1, 80220, Note_on_c, 0, 82, 0
1, 80220, Note_on_c, 0, 85, 0
1, 80400, Note_on_c, 0, 78, 51
1, 80400, Note_on_c, 0, 82, 51
1, 80400, Note_on_c, 0, 85, 51
1, 80400, Note_on_c, 0, 49, 28
1, 80460, Note_on_c, 0, 49, 0
1, 80460, Note_on_c, 0, 78, 0
1, 80460, Note_on_c, 0, 82, 0
1, 80460, Note_on_c, 0, 85, 0
1, 80640, Tempo, 467108
1, 80640, Note_on_c, 0, 58, 28
1, 80640, Note_on_c, 0, 61, 28
1, 80640, Note_on_c, 0, 66, 33
1, 80700, Note_on_c, 0, 66, 0
1, 80700, Note_on_c, 0, 61, 0
1, 80700, Note_on_c, 0, 58, 0
1, 80880, Tempo, 478965
1, 80880, Note_on_c, 0, 49, 25
1, 80940, Note_on_c, 0, 49, 0
1, 81120, Tempo, 489277
1, 81120, Note_on_c, 0, 49, 25
1, 81180, Note_on_c, 0, 49, 0
1, 81360, Tempo, 465224
1, 81360, Note_on_c, 0, 58, 25
1, 81360, Note_on_c, 0, 61, 25
1, 81360, Note_on_c, 0, 66, 30
1, 81420, Note_on_c, 0, 66, 0
1, 81420, Note_on_c, 0, 61, 0
1, 81420, Note_on_c, 0, 58, 0
1, 81600, Tempo, 478965
1, 81600, Note_on_c, 0, 49, 25
1, 81660, Note_on_c, 0, 49, 0
1, 81840, Note_on_c, 0, 49, 25
1, 81880, Tempo, 491400
1, 81900, Note_on_c, 0, 49, 0
1, 82080, Tempo, 478965
1, 82080, Note_on_c, 0, 65, 49
1, 82080, Control_c, 0, 64, 0
1, 82080, Note_on_c, 0, 56, 24
1, 82080, Note_on_c, 0, 61, 29
1, 82140, Note_on_c, 0, 61, 0
1, 82140, Note_on_c, 0, 56, 0
1, 82260, Tempo, 433244
1, 82260, Note_on_c, 0, 68, 32
1, 82320, Tempo, 472962
1, 82320, Note_on_c, 0, 68, 0
1, 82320, Note_on_c, 0, 65, 0
1, 82320, Note_on_c, 0, 66, 41
1, 82320, Note_on_c, 0, 49, 24
1, 82337, Control_c, 0, 64, 127
1, 82380, Note_on_c, 0, 49, 0
1, 82560, Note_on_c, 0, 66, 0
1, 82560, Note_on_c, 0, 65, 41
1, 82560, Note_on_c, 0, 49, 24
1, 82620, Note_on_c, 0, 49, 0
1, 82800, Tempo, 467108
1, 82800, Note_on_c, 0, 65, 0
1, 82800, Note_on_c, 0, 63, 48
1, 82800, Control_c, 0, 64, 0
1, 82800, Note_on_c, 0, 54, 25
1, 82800, Note_on_c, 0, 58, 30
1, 82846, Control_c, 0, 64, 127
1, 82860, Note_on_c, 0, 58, 0
1, 82860, Note_on_c, 0, 54, 0
1, 83040, Tempo, 457701
1, 83040, Note_on_c, 0, 63, 0
1, 83040, Note_on_c, 0, 65, 41
1, 83040, Note_on_c, 0, 42, 24
1, 83051, Control_c, 0, 64, 0
1, 83100, Note_on_c, 0, 42, 0
1, 83160, Note_on_c, 0, 65, 0
1, 83160, Note_on_c, 0, 66, 41
1, 83160, Control_c, 0, 64, 127
1, 83200, Tempo, 455858
1, 83280, Note_on_c, 0, 66, 0
1, 83280, Note_on_c, 0, 68, 43
1, 83280, Note_on_c, 0, 42, 24
1, 83340, Note_on_c, 0, 42, 0
1, 83360, Tempo, 454030
1, 83400, Note_on_c, 0, 68, 0
1, 83400, Note_on_c, 0, 70, 44
1, 83480, Tempo, 452216
1, 83520, Tempo, 465224
1, 83520, Note_on_c, 0, 70, 0
1, 83520, Note_on_c, 0, 72, 52
1, 83520, Control_c, 0, 64, 0
1, 83520, Note_on_c, 0, 63, 24
1, 83520, Note_on_c, 0, 66, 29
1, 83560, Control_c, 0, 64, 127
1, 83580, Note_on_c, 0, 66, 0
1, 83580, Note_on_c, 0, 63, 0
1, 83760, Tempo, 457701
1, 83760, Note_on_c, 0, 72, 0
1, 83760, Note_on_c, 0, 70, 50
1, 83760, Note_on_c, 0, 56, 24
1, 83766, Control_c, 0, 64, 0
1, 83820, Note_on_c, 0, 56, 0
1, 83840, Control_c, 0, 64, 127
1, 83880, Note_on_c, 0, 70, 0
1, 83880, Note_on_c, 0, 72, 46
1, 84000, Note_on_c, 0, 72, 0
1, 84000, Note_on_c, 0, 73, 48
1, 84000, Note_on_c, 0, 56, 24
1, 84060, Note_on_c, 0, 56, 0
1, 84120, Note_on_c, 0, 73, 0
1, 84120, Note_on_c, 0, 75, 50
1, 84240, Tempo, 472962
1, 84240, Note_on_c, 0, 75, 0
1, 84240, Note_on_c, 0, 77, 53
1, 84240, Control_c, 0, 64, 0
1, 84240, Note_on_c, 0, 65, 29
1, 84240, Note_on_c, 0, 61, 24
1, 84300, Note_on_c, 0, 61, 0
1, 84300, Note_on_c, 0, 65, 0
1, 84300, Note_on_c, 0, 77, 0
1, 84360, Tempo, 474947
1, 84440, Tempo, 476948
1, 84480, Note_on_c, 0, 77, 45
1, 84480, Note_on_c, 0, 49, 24
1, 84540, Note_on_c, 0, 49, 0
1, 84540, Note_on_c, 0, 77, 0
1, 84560, Tempo, 478965
1, 84640, Tempo, 480962
1, 84720, Tempo, 483014
1, 84720, Note_on_c, 0, 77, 44
1, 84720, Note_on_c, 0, 49, 24
1, 84780, Note_on_c, 0, 49, 0
1, 84780, Note_on_c, 0, 77, 0
1, 84960, Tempo, 485084
1, 84960, Note_on_c, 0, 61, 25
1, 84960, Note_on_c, 0, 65, 30
1, 85020, Note_on_c, 0, 65, 0
1, 85020, Note_on_c, 0, 61, 0
1, 85200, Tempo, 491400
1, 85200, Note_on_c, 0, 49, 25
1, 85260, Note_on_c, 0, 49, 0
1, 85440, Tempo, 504498
1, 85440, Note_on_c, 0, 49, 25
1, 85500, Note_on_c, 0, 49, 0
1, 85680, Tempo, 483014
1, 85680, Note_on_c, 0, 61, 25
1, 85683, Note_on_c, 0, 65, 31
1, 85740, Note_on_c, 0, 61, 0
1, 85743, Note_on_c, 0, 65, 0
1, 85920, Tempo, 491400
1, 85920, Note_on_c, 0, 49, 28
1, 85980, Note_on_c, 0, 49, 0
1, 86160, Tempo, 502260
1, 86160, Note_on_c, 0, 49, 28
1, 86220, Note_on_c, 0, 49, 0
1, 86340, Note_on_c, 0, 73, 40
1, 86370, Note_on_c, 0, 77, 40
1, 86400, Tempo, 470995
1, 86400, Note_on_c, 0, 80, 51
1, 86400, Note_on_c, 0, 61, 28
1, 86400, Note_on_c, 0, 65, 33
1, 86460, Note_on_c, 0, 65, 0
1, 86460, Note_on_c, 0, 61, 0
1, 86520, Note_on_c, 0, 73, 0
1, 86520, Note_on_c, 0, 77, 0
1, 86520, Note_on_c, 0, 80, 0
1, 86640, Tempo, 461432
1, 86640, Note_on_c, 0, 78, 40
1, 86640, Note_on_c, 0, 49, 28
1, 86700, Note_on_c, 0, 49, 0
1, 86760, Note_on_c, 0, 78, 0
1, 86760, Note_on_c, 0, 77, 40
1, 86880, Tempo, 476948
1, 86880, Note_on_c, 0, 77, 0
1, 86880, Note_on_c, 0, 75, 40
1, 86880, Note_on_c, 0, 49, 28
1, 86940, Note_on_c, 0, 49, 0
1, 87000, Note_on_c, 0, 75, 0
1, 87000, Note_on_c, 0, 73, 40
1, 87060, Note_on_c, 0, 68, 40
1, 87090, Note_on_c, 0, 72, 40
1, 87120, Tempo, 465224
1, 87120, Note_on_c, 0, 73, 0
1, 87120, Note_on_c, 0, 75, 49
1, 87120, Note_on_c, 0, 61, 28
1, 87120, Note_on_c, 0, 66, 34
1, 87180, Note_on_c, 0, 66, 0
1, 87180, Note_on_c, 0, 61, 0
1, 87240, Note_on_c, 0, 68, 0
1, 87240, Note_on_c, 0, 72, 0
1, 87240, Note_on_c, 0, 75, 0
1, 87360, Tempo, 461432
1, 87360, Note_on_c, 0, 73, 40
1, 87360, Note_on_c, 0, 49, 28
1, 87420, Note_on_c, 0, 49, 0
1, 87480, Note_on_c, 0, 73, 0
1, 87480, Note_on_c, 0, 72, 40
1, 87600, Tempo, 480962
1, 87600, Note_on_c, 0, 72, 0
1, 87600, Note_on_c, 0, 70, 40
1, 87600, Note_on_c, 0, 49, 28
1, 87660, Note_on_c, 0, 49, 0
1, 87720, Note_on_c, 0, 70, 0
1, 87720, Note_on_c, 0, 68, 40
1, 87780, Note_on_c, 0, 73, 40
1, 87810, Note_on_c, 0, 77, 40
1, 87840, Tempo, 487171
1, 87840, Note_on_c, 0, 68, 0
1, 87840, Note_on_c, 0, 80, 53
1, 87840, Note_on_c, 0, 61, 28
1, 87840, Note_on_c, 0, 65, 33
1, 87900, Note_on_c, 0, 65, 0
1, 87900, Note_on_c, 0, 61, 0
1, 87960, Note_on_c, 0, 73, 0
1, 87960, Note_on_c, 0, 77, 0
1, 87960, Note_on_c, 0, 80, 0
1, 88080, Tempo, 461432
1, 88080, Note_on_c, 0, 78, 42
1, 88080, Note_on_c, 0, 49, 28
1, 88140, Note_on_c, 0, 49, 0
1, 88200, Note_on_c, 0, 78, 0
1, 88200, Note_on_c, 0, 77, 45
1, 88320, Note_on_c, 0, 77, 0
1, 88320, Note_on_c, 0, 75, 47
1, 88320, Note_on_c, 0, 49, 33
1, 88380, Note_on_c, 0, 49, 0
1, 88440, Note_on_c, 0, 75, 0
1, 88440, Note_on_c, 0, 73, 51
1, 88520, Tempo, 478965
1, 88560, Note_on_c, 0, 73, 0
1, 88560, Note_on_c, 0, 85, 57
1, 88560, Note_on_c, 0, 81, 57
1, 88560, Note_on_c, 0, 78, 57
1, 88560, Note_on_c, 0, 61, 31
1, 88560, Note_on_c, 0, 66, 38
1, 88600, Tempo, 480962
1, 88620, Note_on_c, 0, 66, 0
1, 88620, Note_on_c, 0, 78, 0
1, 88620, Note_on_c, 0, 85, 0
1, 88620, Note_on_c, 0, 81, 0
1, 88620, Note_on_c, 0, 61, 0
1, 88680, Tempo, 483014
1, 88720, Tempo, 485084
1, 88800, Tempo, 487171
1, 88800, Note_on_c, 0, 78, 51
1, 88800, Note_on_c, 0, 81, 51
1, 88800, Note_on_c, 0, 85, 51
1, 88800, Note_on_c, 0, 49, 28
1, 88860, Note_on_c, 0, 49, 0
1, 88860, Note_on_c, 0, 78, 0
1, 88860, Note_on_c, 0, 81, 0
1, 88860, Note_on_c, 0, 85, 0
1, 88880, Tempo, 489277
1, 88920, Tempo, 491400
1, 89000, Tempo, 493543
1, 89040, Tempo, 495663
1, 89040, Note_on_c, 0, 78, 51
1, 89040, Note_on_c, 0, 81, 51
1, 89040, Note_on_c, 0, 85, 51
1, 89040, Note_on_c, 0, 49, 28
1, 89100, Note_on_c, 0, 49, 0
1, 89100, Note_on_c, 0, 78, 0
1, 89100, Note_on_c, 0, 81, 0
1, 89100, Note_on_c, 0, 85, 0
1, 89280, Tempo, 467108
1, 89280, Note_on_c, 0, 57, 28
1, 89280, Note_on_c, 0, 61, 28
1, 89280, Note_on_c, 0, 66, 33
1, 89340, Note_on_c, 0, 66, 0
1, 89340, Note_on_c, 0, 61, 0
1, 89340, Note_on_c, 0, 57, 0
1, 89520, Tempo, 485084
1, 89520, Note_on_c, 0, 54, 25
1, 89580, Note_on_c, 0, 54, 0
1, 89760, Tempo, 493543
1, 89760, Note_on_c, 0, 54, 25
1, 89820, Note_on_c, 0, 54, 0
1, 90000, Tempo, 465224
1, 90000, Note_on_c, 0, 57, 25
1, 90000, Note_on_c, 0, 61, 25
1, 90000, Note_on_c, 0, 66, 30
1, 90060, Note_on_c, 0, 66, 0
1, 90060, Note_on_c, 0, 61, 0
1, 90060, Note_on_c, 0, 57, 0
1, 90240, Tempo, 485084
1, 90240, Note_on_c, 0, 54, 25
1, 90300, Note_on_c, 0, 54, 0
1, 90480, Tempo, 497843
1, 90480, Note_on_c, 0, 54, 25
1, 90540, Note_on_c, 0, 54, 0
1, 90720, Tempo, 480962
1, 90720, Note_on_c, 0, 73, 53
1, 90720, Note_on_c, 0, 66, 29
1, 90720, Control_c, 0, 64, 0
1, 90720, Note_on_c, 0, 57, 24
1, 90720, Note_on_c, 0, 61, 24
1, 90780, Note_on_c, 0, 61, 0
1, 90780, Note_on_c, 0, 57, 0
1, 90780, Note_on_c, 0, 66, 0
1, 90900, Tempo, 434909
1, 90900, Note_on_c, 0, 76, 38
1, 90960, Tempo, 472962
1, 90960, Note_on_c, 0, 76, 0
1, 90960, Note_on_c, 0, 73, 0
1, 90960, Note_on_c, 0, 74, 45
1, 90960, Note_on_c, 0, 54, 24
1, 91003, Control_c, 0, 64, 127
1, 91020, Note_on_c, 0, 54, 0
1, 91200, Note_on_c, 0, 74, 0
1, 91200, Note_on_c, 0, 73, 45
1, 91200, Note_on_c, 0, 54, 24
1, 91260, Note_on_c, 0, 54, 0
1, 91440, Tempo, 461432
1, 91440, Note_on_c, 0, 73, 0
1, 91440, Note_on_c, 0, 71, 52
1, 91440, Control_c, 0, 64, 0
1, 91440, Note_on_c, 0, 62, 25
1, 91440, Note_on_c, 0, 66, 30
1, 91486, Control_c, 0, 64, 127
1, 91500, Note_on_c, 0, 66, 0
1, 91500, Note_on_c, 0, 62, 0
1, 91680, Tempo, 457701
1, 91680, Note_on_c, 0, 71, 0
1, 91680, Note_on_c, 0, 73, 45
1, 91680, Note_on_c, 0, 50, 24
1, 91692, Control_c, 0, 64, 0
1, 91740, Note_on_c, 0, 50, 0
1, 91777, Control_c, 0, 64, 127
1, 91800, Note_on_c, 0, 73, 0
1, 91800, Note_on_c, 0, 74, 45
1, 91920, Note_on_c, 0, 74, 0
1, 91920, Note_on_c, 0, 76, 47
1, 91920, Note_on_c, 0, 50, 24
1, 91980, Note_on_c, 0, 50, 0
1, 92040, Note_on_c, 0, 76, 0
1, 92040, Note_on_c, 0, 78, 48
1, 92160, Tempo, 463320
1, 92160, Note_on_c, 0, 78, 0
1, 92160, Note_on_c, 0, 80, 52
1, 92160, Control_c, 0, 64, 0
1, 92160, Note_on_c, 0, 62, 24
1, 92160, Note_on_c, 0, 64, 29
1, 92200, Control_c, 0, 64, 127
1, 92220, Note_on_c, 0, 64, 0
1, 92220, Note_on_c, 0, 62, 0
1, 92400, Tempo, 457701
1, 92400, Note_on_c, 0, 80, 0
1, 92400, Note_on_c, 0, 78, 53
1, 92400, Note_on_c, 0, 52, 24
1, 92417, Control_c, 0, 64, 0
1, 92460, Note_on_c, 0, 52, 0
1, 92509, Control_c, 0, 64, 127
1, 92520, Note_on_c, 0, 78, 0
1, 92520, Note_on_c, 0, 80, 43
1, 92640, Tempo, 469043
1, 92640, Note_on_c, 0, 80, 0
1, 92640, Note_on_c, 0, 81, 46
1, 92640, Note_on_c, 0, 52, 24
1, 92700, Note_on_c, 0, 52, 0
1, 92760, Note_on_c, 0, 81, 0
1, 92760, Note_on_c, 0, 83, 49
1, 92880, Tempo, 463750
1, 92880, Note_on_c, 0, 83, 0
1, 92880, Note_on_c, 0, 85, 52
1, 92880, Control_c, 0, 64, 0
1, 92880, Note_on_c, 0, 64, 29
1, 92880, Note_on_c, 0, 61, 24
1, 92940, Note_on_c, 0, 61, 0
1, 92940, Note_on_c, 0, 64, 0
1, 92940, Note_on_c, 0, 85, 0
1, 93120, Note_on_c, 0, 85, 49
1, 93120, Note_on_c, 0, 57, 24
1, 93180, Note_on_c, 0, 57, 0
1, 93180, Note_on_c, 0, 85, 0
1, 93360, Tempo, 474608
1, 93360, Note_on_c, 0, 85, 48
1, 93360, Note_on_c, 0, 57, 24
1, 93420, Note_on_c, 0, 57, 0
1, 93420, Note_on_c, 0, 85, 0
1, 93600, Tempo, 485084
1, 93600, Note_on_c, 0, 61, 25
1, 93600, Note_on_c, 0, 64, 30
1, 93660, Note_on_c, 0, 64, 0
1, 93660, Note_on_c, 0, 61, 0
1, 93840, Note_on_c, 0, 57, 25
1, 93900, Note_on_c, 0, 57, 0
1, 94080, Tempo, 504498
1, 94080, Note_on_c, 0, 57, 26
1, 94140, Note_on_c, 0, 57, 0
1, 94320, Tempo, 472962
1, 94320, Note_on_c, 0, 73, 53
1, 94320, Note_on_c, 0, 64, 29
1, 94320, Note_on_c, 0, 61, 24
1, 94380, Note_on_c, 0, 61, 0
1, 94380, Note_on_c, 0, 64, 0
1, 94380, Note_on_c, 0, 73, 0
1, 94560, Note_on_c, 0, 73, 45
1, 94560, Note_on_c, 0, 57, 24
1, 94620, Note_on_c, 0, 57, 0
1, 94620, Note_on_c, 0, 73, 0
1, 94800, Note_on_c, 0, 73, 45
1, 94800, Note_on_c, 0, 57, 24
1, 94860, Note_on_c, 0, 57, 0
1, 94860, Note_on_c, 0, 73, 0
1, 95040, Tempo, 461432
1, 95040, Note_on_c, 0, 73, 52
1, 95040, Control_c, 0, 64, 0
1, 95040, Note_on_c, 0, 61, 25
1, 95040, Note_on_c, 0, 64, 30
1, 95086, Control_c, 0, 64, 127
1, 95100, Note_on_c, 0, 64, 0
1, 95100, Note_on_c, 0, 61, 0
1, 95280, Tempo, 461432
1, 95280, Note_on_c, 0, 73, 0
1, 95280, Note_on_c, 0, 76, 45
1, 95280, Note_on_c, 0, 58, 24
1, 95291, Control_c, 0, 64, 0
1, 95337, Control_c, 0, 64, 127
1, 95340, Note_on_c, 0, 58, 0
1, 95400, Note_on_c, 0, 76, 0
1, 95400, Note_on_c, 0, 74, 45
1, 95520, Note_on_c, 0, 74, 0
1, 95520, Note_on_c, 0, 73, 47
1, 95520, Note_on_c, 0, 58, 24
1, 95580, Note_on_c, 0, 58, 0
1, 95640, Note_on_c, 0, 73, 0
1, 95640, Note_on_c, 0, 76, 48
1, 95760, Tempo, 467108
1, 95760, Note_on_c, 0, 76, 0
1, 95760, Note_on_c, 0, 74, 52
1, 95760, Control_c, 0, 64, 0
1, 95760, Note_on_c, 0, 62, 24
1, 95760, Note_on_c, 0, 64, 29
1, 95820, Note_on_c, 0, 64, 0
1, 95820, Note_on_c, 0, 62, 0
1, 95820, Note_on_c, 0, 74, 0
1, 96000, Tempo, 459559
1, 96000, Note_on_c, 0, 74, 52
1, 96000, Note_on_c, 0, 59, 24
1, 96060, Note_on_c, 0, 59, 0
1, 96060, Note_on_c, 0, 74, 0
1, 96240, Tempo, 480962
1, 96240, Note_on_c, 0, 74, 51
1, 96240, Note_on_c, 0, 59, 24
1, 96300, Note_on_c, 0, 59, 0
1, 96300, Note_on_c, 0, 74, 0
1, 96480, Tempo, 474947
1, 96480, Note_on_c, 0, 86, 52
1, 96480, Note_on_c, 0, 64, 29
1, 96480, Note_on_c, 0, 62, 24
1, 96540, Note_on_c, 0, 62, 0
1, 96540, Note_on_c, 0, 64, 0
1, 96540, Note_on_c, 0, 86, 0
1, 96720, Note_on_c, 0, 86, 49
1, 96720, Note_on_c, 0, 59, 24
1, 96780, Note_on_c, 0, 59, 0
1, 96780, Note_on_c, 0, 86, 0
1, 96960, Tempo, 474608
1, 96960, Note_on_c, 0, 86, 48
1, 96960, Note_on_c, 0, 59, 24
1, 97020, Note_on_c, 0, 59, 0
1, 97020, Note_on_c, 0, 86, 0
1, 97200, Tempo, 485084
1, 97200, Note_on_c, 0, 62, 22
1, 97200, Note_on_c, 0, 64, 25
1, 97260, Note_on_c, 0, 64, 0
1, 97260, Note_on_c, 0, 62, 0
1, 97440, Note_on_c, 0, 59, 22
1, 97500, Note_on_c, 0, 59, 0
1, 97680, Tempo, 504498
1, 97680, Note_on_c, 0, 59, 22
1, 97740, Note_on_c, 0, 59, 0
1, 97920, Tempo, 472962
1, 97920, Note_on_c, 0, 74, 53
1, 97920, Note_on_c, 0, 64, 29
1, 97920, Control_c, 0, 64, 0
1, 97920, Note_on_c, 0, 62, 24
1, 97980, Note_on_c, 0, 62, 0
1, 97980, Note_on_c, 0, 64, 0
1, 97980, Note_on_c, 0, 74, 0
1, 98160, Note_on_c, 0, 74, 45
1, 98160, Note_on_c, 0, 59, 24
1, 98220, Note_on_c, 0, 59, 0
1, 98220, Note_on_c, 0, 74, 0
1, 98400, Note_on_c, 0, 74, 45
1, 98400, Note_on_c, 0, 59, 24
1, 98460, Note_on_c, 0, 59, 0
1, 98460, Note_on_c, 0, 74, 0
1, 98640, Tempo, 461432
1, 98640, Note_on_c, 0, 74, 52
1, 98640, Control_c, 0, 64, 0
1, 98640, Note_on_c, 0, 62, 25
1, 98640, Note_on_c, 0, 65, 30
1, 98686, Control_c, 0, 64, 127
1, 98700, Note_on_c, 0, 65, 0
1, 98700, Note_on_c, 0, 62, 0
1, 98880, Tempo, 457701
1, 98880, Note_on_c, 0, 74, 0
1, 98880, Note_on_c, 0, 77, 45
1, 98880, Note_on_c, 0, 59, 24
1, 98889, Control_c, 0, 64, 0
1, 98940, Note_on_c, 0, 59, 0
1, 98972, Control_c, 0, 64, 127
1, 99000, Note_on_c, 0, 77, 0
1, 99000, Note_on_c, 0, 76, 45
1, 99120, Note_on_c, 0, 76, 0
1, 99120, Note_on_c, 0, 74, 47
1, 99120, Note_on_c, 0, 59, 24
1, 99180, Note_on_c, 0, 59, 0
1, 99240, Note_on_c, 0, 74, 0
1, 99240, Note_on_c, 0, 77, 48
1, 99360, Tempo, 469043
1, 99360, Note_on_c, 0, 77, 0
1, 99360, Note_on_c, 0, 74, 52
1, 99360, Control_c, 0, 64, 0
1, 99360, Note_on_c, 0, 62, 24
1, 99360, Note_on_c, 0, 65, 29
1, 99420, Note_on_c, 0, 65, 0
1, 99420, Note_on_c, 0, 62, 0
1, 99420, Note_on_c, 0, 74, 0
1, 99600, Tempo, 455858
1, 99600, Note_on_c, 0, 74, 52
1, 99600, Note_on_c, 0, 59, 24
1, 99660, Note_on_c, 0, 59, 0
1, 99660, Note_on_c, 0, 74, 0
1, 99840, Tempo, 502260
1, 99840, Note_on_c, 0, 74, 52
1, 99840, Note_on_c, 0, 59, 24
1, 99900, Note_on_c, 0, 59, 0
1, 99900, Note_on_c, 0, 74, 0
1, 100080, Tempo, 483014
1, 100080, Note_on_c, 0, 86, 52
1, 100080, Note_on_c, 0, 65, 29
1, 100080, Note_on_c, 0, 62, 24
1, 100140, Note_on_c, 0, 62, 0
1, 100140, Note_on_c, 0, 65, 0
1, 100140, Note_on_c, 0, 86, 0
1, 100320, Tempo, 491400
1, 100320, Note_on_c, 0, 86, 49
1, 100320, Note_on_c, 0, 59, 24
1, 100380, Note_on_c, 0, 59, 0
1, 100380, Note_on_c, 0, 86, 0
1, 100560, Tempo, 502260
1, 100560, Note_on_c, 0, 86, 48
1, 100560, Note_on_c, 0, 59, 24
1, 100620, Note_on_c, 0, 59, 0
1, 100620, Note_on_c, 0, 86, 0
1, 100800, Tempo, 467108
1, 100800, Note_on_c, 0, 74, 56
1, 100800, Note_on_c, 0, 59, 26
1, 100800, Note_on_c, 0, 62, 32
1, 100880, Control_c, 0, 64, 127
1, 100920, Note_on_c, 0, 62, 0
1, 100920, Note_on_c, 0, 59, 0
1, 100920, Note_on_c, 0, 65, 26
1, 101040, Note_on_c, 0, 65, 0
1, 101040, Note_on_c, 0, 74, 0
1, 101040, Note_on_c, 0, 73, 52
1, 101040, Note_on_c, 0, 62, 28
1, 101040, Note_on_c, 0, 59, 22
1, 101057, Control_c, 0, 64, 0
1, 101091, Control_c, 0, 64, 127
1, 101160, Note_on_c, 0, 59, 0
1, 101160, Note_on_c, 0, 62, 0
1, 101160, Note_on_c, 0, 65, 26
1, 101280, Tempo, 478965
1, 101280, Note_on_c, 0, 65, 0
1, 101280, Note_on_c, 0, 73, 0
1, 101280, Note_on_c, 0, 74, 52
1, 101280, Note_on_c, 0, 62, 28
1, 101280, Note_on_c, 0, 59, 22
1, 101291, Control_c, 0, 64, 0
1, 101343, Control_c, 0, 64, 127
1, 101400, Note_on_c, 0, 59, 0
1, 101400, Note_on_c, 0, 62, 0
1, 101400, Note_on_c, 0, 65, 26
1, 101520, Tempo, 465224
1, 101520, Note_on_c, 0, 65, 0
1, 101520, Note_on_c, 0, 74, 0
1, 101520, Note_on_c, 0, 86, 56
1, 101520, Control_c, 0, 64, 0
1, 101520, Note_on_c, 0, 58, 26
1, 101520, Note_on_c, 0, 62, 32
1, 101560, Control_c, 0, 64, 127
1, 101640, Note_on_c, 0, 62, 0
1, 101640, Note_on_c, 0, 58, 0
1, 101640, Note_on_c, 0, 65, 26
1, 101760, Note_on_c, 0, 65, 0
1, 101760, Note_on_c, 0, 86, 0
1, 101760, Note_on_c, 0, 85, 52
1, 101760, Note_on_c, 0, 62, 28
1, 101760, Note_on_c, 0, 58, 22
1, 101763, Control_c, 0, 64, 0
1, 101831, Control_c, 0, 64, 127
1, 101880, Note_on_c, 0, 58, 0
1, 101880, Note_on_c, 0, 62, 0
1, 101880, Note_on_c, 0, 65, 26
1, 102000, Tempo, 478965
1, 102000, Note_on_c, 0, 65, 0
1, 102000, Note_on_c, 0, 85, 0
1, 102000, Note_on_c, 0, 86, 52
1, 102000, Note_on_c, 0, 62, 28
1, 102000, Note_on_c, 0, 58, 22
1, 102008, Control_c, 0, 64, 0
1, 102064, Control_c, 0, 64, 127
1, 102120, Note_on_c, 0, 58, 0
1, 102120, Note_on_c, 0, 62, 0
1, 102120, Note_on_c, 0, 65, 26
1, 102240, Tempo, 461787
1, 102240, Note_on_c, 0, 65, 0
1, 102240, Note_on_c, 0, 86, 0
1, 102240, Note_on_c, 0, 82, 54
1, 102240, Control_c, 0, 64, 0
1, 102240, Note_on_c, 0, 58, 31
1, 102240, Note_on_c, 0, 62, 38
1, 102311, Control_c, 0, 64, 127
1, 102360, Note_on_c, 0, 62, 0
1, 102360, Note_on_c, 0, 58, 0
1, 102360, Note_on_c, 0, 65, 25
1, 102480, Note_on_c, 0, 65, 0
1, 102480, Note_on_c, 0, 82, 0
1, 102480, Note_on_c, 0, 81, 47
1, 102480, Note_on_c, 0, 58, 24
1, 102480, Note_on_c, 0, 62, 29
1, 102488, Control_c, 0, 64, 0
1, 102537, Control_c, 0, 64, 127
1, 102600, Note_on_c, 0, 62, 0
1, 102600, Note_on_c, 0, 58, 0
1, 102600, Note_on_c, 0, 65, 24
1, 102720, Note_on_c, 0, 65, 0
1, 102720, Note_on_c, 0, 81, 0
1, 102720, Note_on_c, 0, 82, 48
1, 102720, Note_on_c, 0, 58, 24
1, 102720, Note_on_c, 0, 62, 29
1, 102727, Control_c, 0, 64, 0
1, 102805, Control_c, 0, 64, 127
1, 102840, Note_on_c, 0, 62, 0
1, 102840, Note_on_c, 0, 58, 0
1, 102840, Note_on_c, 0, 65, 25
1, 102960, Tempo, 456274
1, 102960, Note_on_c, 0, 65, 0
1, 102960, Note_on_c, 0, 82, 0
1, 102960, Note_on_c, 0, 79, 51
1, 102960, Note_on_c, 0, 58, 29
1, 102960, Note_on_c, 0, 63, 34
1, 102962, Control_c, 0, 64, 0
1, 103009, Control_c, 0, 64, 127
1, 103080, Note_on_c, 0, 63, 0
1, 103080, Note_on_c, 0, 58, 0
1, 103080, Note_on_c, 0, 67, 26
1, 103200, Tempo, 452625
1, 103200, Note_on_c, 0, 67, 0
1, 103200, Note_on_c, 0, 79, 0
1, 103200, Note_on_c, 0, 81, 48
1, 103200, Note_on_c, 0, 58, 25
1, 103200, Note_on_c, 0, 63, 30
1, 103207, Control_c, 0, 64, 0
1, 103285, Control_c, 0, 64, 127
1, 103320, Note_on_c, 0, 63, 0
1, 103320, Note_on_c, 0, 58, 0
1, 103320, Note_on_c, 0, 81, 0
1, 103320, Note_on_c, 0, 82, 49
1, 103320, Note_on_c, 0, 67, 25
1, 103440, Note_on_c, 0, 67, 0
1, 103440, Note_on_c, 0, 82, 0
1, 103440, Note_on_c, 0, 84, 51
1, 103440, Note_on_c, 0, 58, 25
1, 103440, Note_on_c, 0, 63, 30
1, 103560, Note_on_c, 0, 63, 0
1, 103560, Note_on_c, 0, 58, 0
1, 103560, Note_on_c, 0, 84, 0
1, 103560, Note_on_c, 0, 86, 52
1, 103560, Note_on_c, 0, 67, 25
1, 103680, Tempo, 462999
1, 103680, Note_on_c, 0, 67, 0
1, 103680, Note_on_c, 0, 86, 0
1, 103680, Note_on_c, 0, 82, 57
1, 103680, Control_c, 0, 64, 0
1, 103680, Note_on_c, 0, 58, 35
1, 103680, Note_on_c, 0, 62, 43
1, 103729, Control_c, 0, 64, 127
1, 103800, Note_on_c, 0, 62, 0
1, 103800, Note_on_c, 0, 58, 0
1, 103800, Note_on_c, 0, 65, 28
1, 103920, Tempo, 457457
1, 103920, Note_on_c, 0, 65, 0
1, 103920, Note_on_c, 0, 82, 0
1, 103920, Note_on_c, 0, 84, 58
1, 103920, Note_on_c, 0, 62, 31
1, 103920, Note_on_c, 0, 58, 25
1, 103941, Control_c, 0, 64, 0
1, 103976, Control_c, 0, 64, 127
1, 104040, Note_on_c, 0, 58, 0
1, 104040, Note_on_c, 0, 62, 0
1, 104040, Note_on_c, 0, 84, 0
1, 104040, Note_on_c, 0, 82, 51
1, 104040, Note_on_c, 0, 65, 26
1, 104160, Note_on_c, 0, 65, 0
1, 104160, Note_on_c, 0, 82, 0
1, 104160, Note_on_c, 0, 81, 56
1, 104160, Note_on_c, 0, 58, 26
1, 104160, Note_on_c, 0, 62, 32
1, 104280, Note_on_c, 0, 62, 0
1, 104280, Note_on_c, 0, 58, 0
1, 104280, Note_on_c, 0, 81, 0
1, 104280, Note_on_c, 0, 79, 51
1, 104280, Note_on_c, 0, 65, 26
1, 104400, Tempo, 468713
1, 104400, Note_on_c, 0, 65, 0
1, 104400, Note_on_c, 0, 79, 0
1, 104400, Note_on_c, 0, 77, 61
1, 104400, Note_on_c, 0, 57, 32
1, 104400, Note_on_c, 0, 63, 39
1, 104428, Control_c, 0, 64, 0
1, 104460, Note_on_c, 0, 77, 0
1, 104520, Note_on_c, 0, 63, 0
1, 104520, Note_on_c, 0, 57, 0
1, 104520, Note_on_c, 0, 65, 28
1, 104640, Note_on_c, 0, 65, 0
1, 104640, Note_on_c, 0, 77, 56
1, 104640, Note_on_c, 0, 57, 26
1, 104640, Note_on_c, 0, 63, 32
1, 104700, Note_on_c, 0, 77, 0
1, 104760, Note_on_c, 0, 63, 0
1, 104760, Note_on_c, 0, 57, 0
1, 104760, Note_on_c, 0, 65, 29
1, 104880, Tempo, 479693
1, 104880, Note_on_c, 0, 65, 0
1, 104880, Note_on_c, 0, 77, 56
1, 104880, Note_on_c, 0, 57, 28
1, 104880, Note_on_c, 0, 63, 33
1, 104940, Note_on_c, 0, 77, 0
1, 105000, Note_on_c, 0, 63, 0
1, 105000, Note_on_c, 0, 57, 0
1, 105000, Note_on_c, 0, 65, 28
1, 105120, Tempo, 468640
1, 105120, Note_on_c, 0, 65, 0
1, 105120, Note_on_c, 0, 78, 69
1, 105120, Note_on_c, 0, 57, 35
1, 105120, Note_on_c, 0, 63, 42
1, 105189, Control_c, 0, 64, 127
1, 105240, Note_on_c, 0, 63, 0
1, 105240, Note_on_c, 0, 57, 0
1, 105240, Note_on_c, 0, 66, 29
1, 105360, Note_on_c, 0, 66, 0
1, 105360, Note_on_c, 0, 78, 0
1, 105360, Note_on_c, 0, 90, 66
1, 105360, Note_on_c, 0, 57, 28
1, 105360, Note_on_c, 0, 63, 34
1, 105480, Note_on_c, 0, 63, 0
1, 105480, Note_on_c, 0, 57, 0
1, 105480, Note_on_c, 0, 66, 29
1, 105596, Control_c, 0, 64, 0
1, 105600, Tempo, 477783
1, 105600, Note_on_c, 0, 66, 0
1, 105600, Note_on_c, 0, 90, 0
1, 105600, Note_on_c, 0, 90, 67
1, 105600, Note_on_c, 0, 57, 28
1, 105600, Note_on_c, 0, 63, 34
1, 105660, Note_on_c, 0, 90, 0
1, 105720, Note_on_c, 0, 63, 0
1, 105720, Note_on_c, 0, 57, 0
1, 105720, Note_on_c, 0, 66, 30
1, 105840, Tempo, 468640
1, 105840, Note_on_c, 0, 66, 0
1, 105840, Note_on_c, 0, 91, 76
1, 105840, Note_on_c, 0, 58, 34
1, 105840, Note_on_c, 0, 63, 40
1, 105960, Note_on_c, 0, 63, 0
1, 105960, Note_on_c, 0, 58, 0
1, 105960, Note_on_c, 0, 67, 30
1, 105967, Control_c, 0, 64, 127
1, 106080, Note_on_c, 0, 67, 0
1, 106080, Note_on_c, 0, 91, 0
1, 106080, Note_on_c, 0, 79, 61
1, 106080, Note_on_c, 0, 58, 29
1, 106080, Note_on_c, 0, 63, 34
1, 106200, Note_on_c, 0, 63, 0
1, 106200, Note_on_c, 0, 58, 0
1, 106200, Note_on_c, 0, 67, 30
1, 106320, Note_on_c, 0, 67, 0
1, 106320, Note_on_c, 0, 79, 0
1, 106320, Note_on_c, 0, 79, 61
1, 106320, Note_on_c, 0, 58, 29
1, 106320, Note_on_c, 0, 63, 34
1, 106338, Control_c, 0, 64, 0
1, 106380, Note_on_c, 0, 79, 0
1, 106440, Note_on_c, 0, 63, 0
1, 106440, Note_on_c, 0, 58, 0
1, 106440, Note_on_c, 0, 67, 30
1, 106560, Note_on_c, 0, 67, 0
1, 106560, Note_on_c, 0, 81, 65
1, 106560, Note_on_c, 0, 60, 35
1, 106560, Note_on_c, 0, 63, 42
1, 106609, Control_c, 0, 64, 127
1, 106620, Note_on_c, 0, 81, 0
1, 106680, Note_on_c, 0, 63, 0
1, 106680, Note_on_c, 0, 60, 0
1, 106680, Note_on_c, 0, 67, 31
1, 106770, Note_on_c, 0, 94, 62
1, 106800, Tempo, 457457
1, 106800, Note_on_c, 0, 94, 0
1, 106800, Note_on_c, 0, 67, 0
1, 106800, Note_on_c, 0, 93, 65
1, 106800, Note_on_c, 0, 60, 30
1, 106800, Note_on_c, 0, 63, 35
1, 106807, Control_c, 0, 64, 0
1, 106843, Control_c, 0, 64, 127
1, 106920, Note_on_c, 0, 63, 0
1, 106920, Note_on_c, 0, 60, 0
1, 106920, Note_on_c, 0, 93, 0
1, 106920, Note_on_c, 0, 91, 62
1, 106920, Note_on_c, 0, 67, 31
1, 107040, Tempo, 462999
1, 107040, Note_on_c, 0, 67, 0
1, 107040, Note_on_c, 0, 91, 0
1, 107040, Note_on_c, 0, 93, 66
1, 107040, Note_on_c, 0, 60, 31
1, 107040, Note_on_c, 0, 63, 37
1, 107160, Note_on_c, 0, 63, 0
1, 107160, Note_on_c, 0, 60, 0
1, 107160, Note_on_c, 0, 67, 32
1, 107280, Note_on_c, 0, 67, 0
1, 107280, Note_on_c, 0, 93, 0
1, 107280, Note_on_c, 0, 94, 68
1, 107280, Control_c, 0, 64, 0
1, 107280, Note_on_c, 0, 55, 35
1, 107280, Note_on_c, 0, 62, 43
1, 107333, Control_c, 0, 64, 127
1, 107340, Note_on_c, 0, 94, 0
1, 107400, Note_on_c, 0, 62, 0
1, 107400, Note_on_c, 0, 55, 0
1, 107400, Note_on_c, 0, 67, 32
1, 107490, Note_on_c, 0, 84, 61
1, 107520, Tempo, 457457
1, 107520, Note_on_c, 0, 84, 0
1, 107520, Note_on_c, 0, 67, 0
1, 107520, Note_on_c, 0, 82, 63
1, 107520, Note_on_c, 0, 55, 31
1, 107520, Note_on_c, 0, 62, 37
1, 107527, Control_c, 0, 64, 0
1, 107587, Control_c, 0, 64, 127
1, 107640, Note_on_c, 0, 62, 0
1, 107640, Note_on_c, 0, 55, 0
1, 107640, Note_on_c, 0, 82, 0
1, 107640, Note_on_c, 0, 81, 60
1, 107640, Note_on_c, 0, 67, 32
1, 107760, Tempo, 489317
1, 107760, Note_on_c, 0, 67, 0
1, 107760, Note_on_c, 0, 81, 0
1, 107760, Note_on_c, 0, 82, 65
1, 107760, Note_on_c, 0, 55, 31
1, 107760, Note_on_c, 0, 62, 37
1, 107880, Note_on_c, 0, 62, 0
1, 107880, Note_on_c, 0, 55, 0
1, 107880, Note_on_c, 0, 82, 0
1, 107880, Note_on_c, 0, 67, 33
1, 108000, Tempo, 470404
1, 108000, Note_on_c, 0, 67, 0
1, 108000, Note_on_c, 0, 75, 44
1, 108000, Note_on_c, 0, 79, 52
1, 108000, Control_c, 0, 64, 0
1, 108000, Note_on_c, 0, 63, 62
1, 108120, Note_on_c, 0, 79, 0
1, 108120, Note_on_c, 0, 75, 0
1, 108120, Note_on_c, 0, 82, 46
1, 108240, Note_on_c, 0, 82, 0
1, 108240, Note_on_c, 0, 63, 0
1, 108240, Note_on_c, 0, 75, 45
1, 108240, Note_on_c, 0, 79, 53
1, 108240, Note_on_c, 0, 62, 52
1, 108360, Note_on_c, 0, 79, 0
1, 108360, Note_on_c, 0, 75, 0
1, 108360, Note_on_c, 0, 82, 45
1, 108480, Note_on_c, 0, 82, 0
1, 108480, Note_on_c, 0, 62, 0
1, 108480, Note_on_c, 0, 75, 45
1, 108480, Note_on_c, 0, 79, 53
1, 108480, Note_on_c, 0, 63, 52
1, 108600, Note_on_c, 0, 79, 0
1, 108600, Note_on_c, 0, 75, 0
1, 108600, Note_on_c, 0, 82, 46
1, 108720, Tempo, 461113
1, 108720, Note_on_c, 0, 82, 0
1, 108720, Note_on_c, 0, 63, 0
1, 108720, Note_on_c, 0, 75, 46
1, 108720, Note_on_c, 0, 79, 54
1, 108720, Note_on_c, 0, 60, 62
1, 108840, Note_on_c, 0, 79, 0
1, 108840, Note_on_c, 0, 75, 0
1, 108840, Note_on_c, 0, 84, 46
1, 108960, Tempo, 457457
1, 108960, Note_on_c, 0, 84, 0
1, 108960, Note_on_c, 0, 60, 0
1, 108960, Note_on_c, 0, 75, 45
1, 108960, Note_on_c, 0, 79, 53
1, 108960, Note_on_c, 0, 62, 50
1, 109080, Note_on_c, 0, 62, 0
1, 109080, Note_on_c, 0, 79, 0
1, 109080, Note_on_c, 0, 75, 0
1, 109080, Note_on_c, 0, 84, 45
1, 109080, Note_on_c, 0, 63, 50
1, 109200, Note_on_c, 0, 63, 0
1, 109200, Note_on_c, 0, 84, 0
1, 109200, Note_on_c, 0, 75, 45
1, 109200, Note_on_c, 0, 79, 53
1, 109200, Note_on_c, 0, 65, 52
1, 109320, Note_on_c, 0, 65, 0
1, 109320, Note_on_c, 0, 79, 0
1, 109320, Note_on_c, 0, 75, 0
1, 109320, Note_on_c, 0, 84, 45
1, 109320, Note_on_c, 0, 67, 52
1, 109440, Tempo, 462999
1, 109440, Note_on_c, 0, 67, 0
1, 109440, Note_on_c, 0, 84, 0
1, 109440, Note_on_c, 0, 75, 48
1, 109440, Note_on_c, 0, 79, 57
1, 109440, Note_on_c, 0, 63, 60
1, 109560, Note_on_c, 0, 79, 0
1, 109560, Note_on_c, 0, 75, 0
1, 109560, Note_on_c, 0, 82, 46
1, 109680, Tempo, 457457
1, 109680, Note_on_c, 0, 82, 0
1, 109680, Note_on_c, 0, 63, 0
1, 109680, Note_on_c, 0, 79, 53
1, 109680, Note_on_c, 0, 75, 45
1, 109680, Note_on_c, 0, 65, 57
1, 109800, Note_on_c, 0, 65, 0
1, 109800, Note_on_c, 0, 75, 0
1, 109800, Note_on_c, 0, 79, 0
1, 109800, Note_on_c, 0, 82, 45
1, 109800, Note_on_c, 0, 63, 52
1, 109920, Note_on_c, 0, 63, 0
1, 109920, Note_on_c, 0, 82, 0
1, 109920, Note_on_c, 0, 75, 45
1, 109920, Note_on_c, 0, 79, 53
1, 109920, Note_on_c, 0, 62, 57
1, 110040, Note_on_c, 0, 62, 0
1, 110040, Note_on_c, 0, 79, 0
1, 110040, Note_on_c, 0, 75, 0
1, 110040, Note_on_c, 0, 82, 45
1, 110040, Note_on_c, 0, 60, 52
1, 110160, Tempo, 468713
1, 110160, Note_on_c, 0, 60, 0
1, 110160, Note_on_c, 0, 82, 0
1, 110160, Note_on_c, 0, 74, 51
1, 110160, Note_on_c, 0, 80, 61
1, 110160, Note_on_c, 0, 58, 61
1, 110220, Note_on_c, 0, 58, 0
1, 110280, Note_on_c, 0, 80, 0
1, 110280, Note_on_c, 0, 74, 0
1, 110280, Note_on_c, 0, 82, 46
1, 110400, Note_on_c, 0, 82, 0
1, 110400, Note_on_c, 0, 74, 45
1, 110400, Note_on_c, 0, 80, 53
1, 110400, Note_on_c, 0, 58, 52
1, 110460, Note_on_c, 0, 58, 0
1, 110520, Note_on_c, 0, 80, 0
1, 110520, Note_on_c, 0, 74, 0
1, 110520, Note_on_c, 0, 82, 48
1, 110640, Tempo, 477783
1, 110640, Note_on_c, 0, 82, 0
1, 110640, Note_on_c, 0, 74, 45
1, 110640, Note_on_c, 0, 80, 53
1, 110640, Note_on_c, 0, 58, 52
1, 110700, Note_on_c, 0, 58, 0
1, 110760, Note_on_c, 0, 80, 0
1, 110760, Note_on_c, 0, 74, 0
1, 110760, Note_on_c, 0, 82, 46
1, 110880, Tempo, 468640
1, 110880, Note_on_c, 0, 82, 0
1, 110880, Note_on_c, 0, 74, 49
1, 110880, Note_on_c, 0, 80, 58
1, 110880, Note_on_c, 0, 59, 60
1, 111000, Note_on_c, 0, 80, 0
1, 111000, Note_on_c, 0, 74, 0
1, 111000, Note_on_c, 0, 86, 46
1, 111120, Note_on_c, 0, 86, 0
1, 111120, Note_on_c, 0, 59, 0
1, 111120, Note_on_c, 0, 74, 45
1, 111120, Note_on_c, 0, 80, 53
1, 111120, Note_on_c, 0, 71, 50
1, 111240, Note_on_c, 0, 80, 0
1, 111240, Note_on_c, 0, 74, 0
1, 111240, Note_on_c, 0, 86, 46
1, 111360, Tempo, 479693
1, 111360, Note_on_c, 0, 86, 0
1, 111360, Note_on_c, 0, 71, 0
1, 111360, Note_on_c, 0, 74, 45
1, 111360, Note_on_c, 0, 80, 53
1, 111360, Note_on_c, 0, 71, 53
1, 111420, Note_on_c, 0, 71, 0
1, 111480, Note_on_c, 0, 80, 0
1, 111480, Note_on_c, 0, 74, 0
1, 111480, Note_on_c, 0, 86, 46
1, 111600, Tempo, 468640
1, 111600, Note_on_c, 0, 86, 0
1, 111600, Note_on_c, 0, 75, 48
1, 111600, Note_on_c, 0, 79, 57
1, 111600, Note_on_c, 0, 72, 62
1, 111720, Note_on_c, 0, 79, 0
1, 111720, Note_on_c, 0, 75, 0
1, 111720, Note_on_c, 0, 87, 46
1, 111840, Note_on_c, 0, 87, 0
1, 111840, Note_on_c, 0, 72, 0
1, 111840, Note_on_c, 0, 75, 45
1, 111840, Note_on_c, 0, 79, 53
1, 111840, Note_on_c, 0, 60, 58
1, 111960, Note_on_c, 0, 79, 0
1, 111960, Note_on_c, 0, 75, 0
1, 111960, Note_on_c, 0, 87, 46
1, 112080, Note_on_c, 0, 87, 0
1, 112080, Note_on_c, 0, 60, 0
1, 112080, Note_on_c, 0, 75, 45
1, 112080, Note_on_c, 0, 79, 53
1, 112080, Note_on_c, 0, 60, 60
1, 112140, Note_on_c, 0, 60, 0
1, 112200, Note_on_c, 0, 79, 0
1, 112200, Note_on_c, 0, 75, 0
1, 112200, Note_on_c, 0, 86, 46
1, 112320, Note_on_c, 0, 86, 0
1, 112320, Note_on_c, 0, 75, 45
1, 112320, Note_on_c, 0, 81, 53
1, 112320, Note_on_c, 0, 65, 66
1, 112380, Note_on_c, 0, 65, 0
1, 112440, Note_on_c, 0, 81, 0
1, 112440, Note_on_c, 0, 75, 0
1, 112440, Note_on_c, 0, 84, 46
1, 112500, Note_on_c, 0, 55, 58
1, 112560, Tempo, 457457
1, 112560, Note_on_c, 0, 84, 0
1, 112560, Note_on_c, 0, 75, 45
1, 112560, Note_on_c, 0, 81, 53
1, 112560, Note_on_c, 0, 53, 67
1, 112580, Note_on_c, 0, 55, 0
1, 112680, Note_on_c, 0, 75, 0
1, 112680, Note_on_c, 0, 81, 0
1, 112680, Note_on_c, 0, 84, 46
1, 112680, Note_on_c, 0, 52, 62
1, 112700, Note_on_c, 0, 53, 0
1, 112800, Tempo, 497100
1, 112800, Note_on_c, 0, 84, 0
1, 112800, Note_on_c, 0, 75, 45
1, 112800, Note_on_c, 0, 81, 53
1, 112800, Note_on_c, 0, 53, 66
1, 112820, Note_on_c, 0, 52, 0
1, 112920, Note_on_c, 0, 75, 0
1, 112920, Note_on_c, 0, 81, 0
1, 112920, Note_on_c, 0, 84, 46
1, 113040, Tempo, 466708
1, 113040, Note_on_c, 0, 84, 0
1, 113040, Note_on_c, 0, 53, 0
1, 113040, Note_on_c, 0, 74, 45
1, 113040, Note_on_c, 0, 82, 53
1, 113040, Note_on_c, 0, 58, 62
1, 113100, Note_on_c, 0, 58, 0
1, 113160, Note_on_c, 0, 82, 0
1, 113160, Note_on_c, 0, 74, 0
1, 113160, Note_on_c, 0, 86, 46
1, 113220, Note_on_c, 0, 48, 56
1, 113280, Tempo, 457457
1, 113280, Note_on_c, 0, 86, 0
1, 113280, Note_on_c, 0, 74, 45
1, 113280, Note_on_c, 0, 82, 53
1, 113280, Note_on_c, 0, 46, 62
1, 113300, Note_on_c, 0, 48, 0
1, 113400, Note_on_c, 0, 74, 0
1, 113400, Note_on_c, 0, 82, 0
1, 113400, Note_on_c, 0, 86, 46
1, 113400, Note_on_c, 0, 45, 57
1, 113420, Note_on_c, 0, 46, 0
1, 113520, Tempo, 509857
1, 113520, Note_on_c, 0, 86, 0
1, 113520, Note_on_c, 0, 74, 45
1, 113520, Note_on_c, 0, 82, 53
1, 113520, Note_on_c, 0, 46, 62
1, 113540, Note_on_c, 0, 45, 0
1, 113640, Note_on_c, 0, 74, 0
1, 113640, Note_on_c, 0, 82, 0
1, 113640, Note_on_c, 0, 86, 46
1, 113760, Tempo, 461113
1, 113760, Note_on_c, 0, 86, 0
1, 113760, Note_on_c, 0, 46, 0
1, 113760, Note_on_c, 0, 75, 46
1, 113760, Note_on_c, 0, 81, 54
1, 113760, Note_on_c, 0, 41, 56
1, 113767, Control_c, 0, 64, 0
1, 113852, Control_c, 0, 64, 127
1, 113880, Note_on_c, 0, 81, 0
1, 113880, Note_on_c, 0, 75, 0
1, 113880, Note_on_c, 0, 84, 46
1, 114000, Tempo, 457457
1, 114000, Note_on_c, 0, 84, 0
1, 114000, Note_on_c, 0, 41, 0
1, 114000, Note_on_c, 0, 75, 45
1, 114000, Note_on_c, 0, 81, 53
1, 114000, Note_on_c, 0, 43, 44
1, 114019, Control_c, 0, 64, 0
1, 114106, Control_c, 0, 64, 127
1, 114120, Note_on_c, 0, 43, 0
1, 114120, Note_on_c, 0, 81, 0
1, 114120, Note_on_c, 0, 75, 0
1, 114120, Note_on_c, 0, 84, 45
1, 114120, Note_on_c, 0, 45, 44
1, 114240, Note_on_c, 0, 45, 0
1, 114240, Note_on_c, 0, 84, 0
1, 114240, Note_on_c, 0, 75, 45
1, 114240, Note_on_c, 0, 81, 53
1, 114240, Note_on_c, 0, 46, 47
1, 114360, Note_on_c, 0, 46, 0
1, 114360, Note_on_c, 0, 81, 0
1, 114360, Note_on_c, 0, 75, 0
1, 114360, Note_on_c, 0, 84, 45
1, 114360, Note_on_c, 0, 48, 47
1, 114480, Tempo, 470995
1, 114480, Note_on_c, 0, 48, 0
1, 114480, Note_on_c, 0, 84, 0
1, 114480, Note_on_c, 0, 74, 48
1, 114480, Note_on_c, 0, 82, 57
1, 114480, Control_c, 0, 64, 0
1, 114480, Note_on_c, 0, 46, 53
1, 114540, Note_on_c, 0, 46, 0
1, 114560, Tempo, 472962
1, 114600, Note_on_c, 0, 82, 0
1, 114600, Note_on_c, 0, 74, 0
1, 114600, Note_on_c, 0, 86, 46
1, 114640, Tempo, 474947
1, 114720, Tempo, 476948
1, 114720, Note_on_c, 0, 86, 0
1, 114720, Note_on_c, 0, 82, 53
1, 114720, Note_on_c, 0, 74, 45
1, 114720, Note_on_c, 0, 46, 53
1, 114780, Note_on_c, 0, 46, 0
1, 114800, Tempo, 478965
1, 114840, Note_on_c, 0, 74, 0
1, 114840, Note_on_c, 0, 82, 0
1, 114840, Note_on_c, 0, 86, 45
1, 114880, Tempo, 480962
1, 114960, Tempo, 488162
1, 114960, Note_on_c, 0, 86, 0
1, 114960, Note_on_c, 0, 74, 45
1, 114960, Note_on_c, 0, 82, 53
1, 114960, Note_on_c, 0, 46, 53
1, 115020, Note_on_c, 0, 46, 0
1, 115080, Note_on_c, 0, 82, 0
1, 115080, Note_on_c, 0, 74, 0
1, 115080, Note_on_c, 0, 86, 45
1, 115200, Tempo, 474046
1, 115200, Note_on_c, 0, 86, 0
1, 115200, Note_on_c, 0, 75, 41
1, 115200, Note_on_c, 0, 81, 49
1, 115200, Note_on_c, 0, 53, 50
1, 115292, Control_c, 0, 64, 127
1, 115320, Note_on_c, 0, 81, 0
1, 115320, Note_on_c, 0, 75, 0
1, 115320, Note_on_c, 0, 84, 41
1, 115440, Tempo, 462570
1, 115440, Note_on_c, 0, 84, 0
1, 115440, Note_on_c, 0, 53, 0
1, 115440, Note_on_c, 0, 75, 40
1, 115440, Note_on_c, 0, 81, 48
1, 115440, Note_on_c, 0, 55, 39
1, 115459, Control_c, 0, 64, 0
1, 115546, Control_c, 0, 64, 127
1, 115560, Note_on_c, 0, 55, 0
1, 115560, Note_on_c, 0, 81, 0
1, 115560, Note_on_c, 0, 75, 0
1, 115560, Note_on_c, 0, 84, 40
1, 115560, Note_on_c, 0, 57, 39
1, 115680, Tempo, 472106
1, 115680, Note_on_c, 0, 57, 0
1, 115680, Note_on_c, 0, 84, 0
1, 115680, Note_on_c, 0, 75, 40
1, 115680, Note_on_c, 0, 81, 48
1, 115680, Note_on_c, 0, 58, 41
1, 115800, Note_on_c, 0, 58, 0
1, 115800, Note_on_c, 0, 81, 0
1, 115800, Note_on_c, 0, 75, 0
1, 115800, Note_on_c, 0, 84, 40
1, 115800, Note_on_c, 0, 60, 41
1, 115920, Tempo, 476948
1, 115920, Note_on_c, 0, 60, 0
1, 115920, Note_on_c, 0, 84, 0
1, 115920, Note_on_c, 0, 74, 42
1, 115920, Note_on_c, 0, 82, 51
1, 115920, Control_c, 0, 64, 0
1, 115920, Note_on_c, 0, 58, 48
1, 115980, Note_on_c, 0, 58, 0
1, 116000, Tempo, 478965
1, 116040, Note_on_c, 0, 82, 0
1, 116040, Note_on_c, 0, 74, 0
1, 116040, Note_on_c, 0, 86, 41
1, 116080, Tempo, 480962
1, 116160, Tempo, 483014
1, 116160, Note_on_c, 0, 86, 0
1, 116160, Note_on_c, 0, 82, 48
1, 116160, Note_on_c, 0, 74, 40
1, 116160, Note_on_c, 0, 58, 48
1, 116200, Tempo, 485084
1, 116220, Note_on_c, 0, 58, 0
1, 116280, Note_on_c, 0, 74, 0
1, 116280, Note_on_c, 0, 82, 0
1, 116280, Note_on_c, 0, 86, 40
1, 116400, Tempo, 503145
1, 116400, Note_on_c, 0, 86, 0
1, 116400, Note_on_c, 0, 74, 40
1, 116400, Note_on_c, 0, 82, 48
1, 116400, Note_on_c, 0, 58, 48
1, 116460, Note_on_c, 0, 58, 0
1, 116520, Note_on_c, 0, 82, 0
1, 116520, Note_on_c, 0, 74, 0
1, 116520, Note_on_c, 0, 86, 40
1, 116640, Tempo, 490236
1, 116640, Note_on_c, 0, 86, 0
1, 116640, Note_on_c, 0, 75, 35
1, 116640, Note_on_c, 0, 81, 43
1, 116640, Note_on_c, 0, 65, 44
1, 116732, Control_c, 0, 64, 127
1, 116760, Note_on_c, 0, 81, 0
1, 116760, Note_on_c, 0, 75, 0
1, 116760, Note_on_c, 0, 84, 37
1, 116880, Tempo, 462570
1, 116880, Note_on_c, 0, 84, 0
1, 116880, Note_on_c, 0, 65, 0
1, 116880, Note_on_c, 0, 75, 35
1, 116880, Note_on_c, 0, 81, 42
1, 116880, Note_on_c, 0, 67, 34
1, 116899, Control_c, 0, 64, 0
1, 116986, Control_c, 0, 64, 127
1, 117000, Note_on_c, 0, 67, 0
1, 117000, Note_on_c, 0, 81, 0
1, 117000, Note_on_c, 0, 75, 0
1, 117000, Note_on_c, 0, 84, 35
1, 117000, Note_on_c, 0, 69, 34
1, 117120, Tempo, 488162
1, 117120, Note_on_c, 0, 69, 0
1, 117120, Note_on_c, 0, 84, 0
1, 117120, Note_on_c, 0, 75, 35
1, 117120, Note_on_c, 0, 81, 42
1, 117120, Note_on_c, 0, 70, 37
1, 117240, Note_on_c, 0, 70, 0
1, 117240, Note_on_c, 0, 81, 0
1, 117240, Note_on_c, 0, 75, 0
1, 117240, Note_on_c, 0, 84, 35
1, 117240, Note_on_c, 0, 72, 37
1, 117360, Tempo, 505348
1, 117360, Note_on_c, 0, 72, 0
1, 117360, Note_on_c, 0, 84, 0
1, 117360, Note_on_c, 0, 86, 45
1, 117360, Note_on_c, 0, 74, 38
1, 117360, Note_on_c, 0, 82, 45
1, 117360, Control_c, 0, 64, 0
1, 117360, Note_on_c, 0, 70, 42
1, 117600, Note_on_c, 0, 70, 0
1, 117600, Note_on_c, 0, 86, 0
1, 117600, Note_on_c, 0, 74, 0
1, 117600, Note_on_c, 0, 82, 0
1, 117840, Tempo, 889284
1, 118080, Key_signature, -5, "major"
1, 118080, Tempo, 600000
1, 118080, Marker_t, "Trio"
1, 118080, Note_on_c, 0, 61, 45
1, 118080, Note_on_c, 0, 65, 45
1, 118108, Control_c, 0, 64, 127
1, 118320, Tempo, 583204
1, 118320, Note_on_c, 0, 46, 45
1, 118440, Note_on_c, 0, 46, 0
1, 118560, Tempo, 549551
1, 118560, Note_on_c, 0, 65, 0
1, 118560, Note_on_c, 0, 61, 0
1, 118560, Note_on_c, 0, 61, 45
1, 118560, Note_on_c, 0, 65, 45
1, 118800, Tempo, 580271
1, 118800, Control_c, 0, 64, 0
1, 118800, Note_on_c, 0, 49, 63
1, 118920, Note_on_c, 0, 49, 0
1, 118920, Note_on_c, 0, 65, 0
1, 118920, Note_on_c, 0, 61, 0
1, 119040, Tempo, 560329
1, 119040, Note_on_c, 0, 60, 34
1, 119040, Note_on_c, 0, 63, 41
1, 119040, Note_on_c, 0, 65, 41
1, 119130, Note_on_c, 0, 65, 0
1, 119130, Note_on_c, 0, 63, 0
1, 119130, Note_on_c, 0, 60, 0
1, 119280, Tempo, 580271
1, 119280, Note_on_c, 0, 58, 35
1, 119280, Note_on_c, 0, 61, 42
1, 119280, Note_on_c, 0, 65, 42
1, 119370, Note_on_c, 0, 65, 0
1, 119370, Note_on_c, 0, 61, 0
1, 119370, Note_on_c, 0, 58, 0
1, 119520, Tempo, 554888
1, 119520, Note_on_c, 0, 57, 38
1, 119520, Note_on_c, 0, 60, 45
1, 119520, Note_on_c, 0, 65, 45
1, 119527, Control_c, 0, 64, 127
1, 119760, Tempo, 580271
1, 119760, Note_on_c, 0, 42, 45
1, 120000, Tempo, 560329
1, 120000, Note_on_c, 0, 42, 0
1, 120000, Note_on_c, 0, 57, 0
1, 120000, Note_on_c, 0, 60, 0
1, 120000, Note_on_c, 0, 65, 0
1, 120000, Note_on_c, 0, 57, 38
1, 120000, Note_on_c, 0, 60, 45
1, 120000, Note_on_c, 0, 65, 45
1, 120240, Tempo, 580271
1, 120240, Control_c, 0, 64, 0
1, 120240, Note_on_c, 0, 41, 63
1, 120360, Note_on_c, 0, 41, 0
1, 120360, Note_on_c, 0, 57, 0
1, 120360, Note_on_c, 0, 60, 0
1, 120360, Note_on_c, 0, 65, 0
1, 120480, Tempo, 560329
1, 120480, Note_on_c, 0, 58, 34
1, 120480, Note_on_c, 0, 61, 41
1, 120480, Note_on_c, 0, 65, 41
1, 120570, Note_on_c, 0, 65, 0
1, 120570, Note_on_c, 0, 61, 0
1, 120570, Note_on_c, 0, 58, 0
1, 120720, Tempo, 580271
1, 120720, Note_on_c, 0, 60, 35
1, 120720, Note_on_c, 0, 63, 42
1, 120720, Note_on_c, 0, 65, 42
1, 120810, Note_on_c, 0, 65, 0
1, 120810, Note_on_c, 0, 63, 0
1, 120810, Note_on_c, 0, 60, 0
1, 120960, Tempo, 563222
1, 120960, Note_on_c, 0, 61, 45
1, 120960, Note_on_c, 0, 65, 45
1, 120981, Control_c, 0, 64, 127
1, 121200, Tempo, 583204
1, 121200, Note_on_c, 0, 46, 45
1, 121440, Tempo, 549551
1, 121440, Note_on_c, 0, 46, 0
1, 121440, Note_on_c, 0, 65, 0
1, 121440, Note_on_c, 0, 61, 0
1, 121440, Note_on_c, 0, 61, 45
1, 121440, Note_on_c, 0, 65, 45
1, 121680, Tempo, 580271
1, 121680, Note_on_c, 0, 49, 63
1, 121762, Control_c, 0, 64, 0
1, 121920, Tempo, 560329
1, 121920, Note_on_c, 0, 49, 0
1, 121920, Note_on_c, 0, 65, 0
1, 121920, Note_on_c, 0, 61, 0
1, 121920, Note_on_c, 0, 60, 34
1, 121920, Note_on_c, 0, 63, 41
1, 121920, Note_on_c, 0, 65, 41
1, 122010, Note_on_c, 0, 65, 0
1, 122010, Note_on_c, 0, 63, 0
1, 122010, Note_on_c, 0, 60, 0
1, 122160, Tempo, 580271
1, 122160, Note_on_c, 0, 58, 35
1, 122160, Note_on_c, 0, 61, 42
1, 122160, Note_on_c, 0, 65, 42
1, 122250, Note_on_c, 0, 65, 0
1, 122250, Note_on_c, 0, 61, 0
1, 122250, Note_on_c, 0, 58, 0
1, 122400, Tempo, 554888
1, 122400, Note_on_c, 0, 56, 32
1, 122400, Note_on_c, 0, 61, 38
1, 122400, Note_on_c, 0, 65, 38
1, 122400, Control_c, 0, 64, 127
1, 122640, Tempo, 580271
1, 122640, Note_on_c, 0, 41, 38
1, 122880, Tempo, 560329
1, 122880, Note_on_c, 0, 41, 0
1, 122880, Note_on_c, 0, 56, 0
1, 122880, Note_on_c, 0, 61, 0
1, 122880, Note_on_c, 0, 65, 0
1, 122880, Note_on_c, 0, 56, 32
1, 122880, Note_on_c, 0, 61, 38
1, 122880, Note_on_c, 0, 65, 38
1, 123120, Tempo, 595415
1, 123120, Note_on_c, 0, 32, 43
1, 123169, Control_c, 0, 64, 0
1, 123240, Note_on_c, 0, 32, 0
1, 123240, Note_on_c, 0, 56, 0
1, 123240, Note_on_c, 0, 61, 0
1, 123240, Note_on_c, 0, 65, 0
1, 123360, Tempo, 560329
1, 123360, Note_on_c, 0, 56, 28
1, 123360, Note_on_c, 0, 65, 34
1, 123360, Note_on_c, 0, 68, 34
1, 123450, Note_on_c, 0, 68, 0
1, 123450, Note_on_c, 0, 65, 0
1, 123450, Note_on_c, 0, 56, 0
1, 123600, Tempo, 592300
1, 123600, Note_on_c, 0, 56, 29
1, 123600, Note_on_c, 0, 65, 35
1, 123600, Note_on_c, 0, 68, 35
1, 123690, Note_on_c, 0, 68, 0
1, 123690, Note_on_c, 0, 65, 0
1, 123690, Note_on_c, 0, 56, 0
1, 123840, Tempo, 571537
1, 123840, Note_on_c, 0, 56, 32
1, 123840, Note_on_c, 0, 61, 38
1, 123840, Note_on_c, 0, 65, 38
1, 123840, Control_c, 0, 64, 127
1, 124080, Tempo, 589217
1, 124080, Note_on_c, 0, 37, 38
1, 124320, Tempo, 580271
1, 124320, Note_on_c, 0, 37, 0
1, 124320, Note_on_c, 0, 56, 0
1, 124320, Note_on_c, 0, 61, 0
1, 124320, Note_on_c, 0, 65, 0
1, 124320, Note_on_c, 0, 56, 32
1, 124320, Note_on_c, 0, 61, 38
1, 124320, Note_on_c, 0, 65, 38
1, 124560, Tempo, 592300
1, 124560, Control_c, 0, 64, 0
1, 124560, Note_on_c, 0, 37, 39
1, 124680, Note_on_c, 0, 37, 0
1, 124800, Note_on_c, 0, 56, 0
1, 124800, Note_on_c, 0, 61, 0
1, 124800, Note_on_c, 0, 65, 0
1, 124800, Note_on_c, 0, 49, 32
1, 124920, Note_on_c, 0, 49, 0
1, 125040, Tempo, 621891
1, 125040, Note_on_c, 0, 48, 29
1, 125160, Note_on_c, 0, 48, 0
1, 125280, Tempo, 579598
1, 125280, Note_on_c, 0, 61, 45
1, 125280, Note_on_c, 0, 65, 45
1, 125308, Control_c, 0, 64, 127
1, 125520, Tempo, 583204
1, 125520, Note_on_c, 0, 46, 45
1, 125640, Note_on_c, 0, 46, 0
1, 125760, Tempo, 549551
1, 125760, Note_on_c, 0, 65, 0
1, 125760, Note_on_c, 0, 61, 0
1, 125760, Note_on_c, 0, 61, 45
1, 125760, Note_on_c, 0, 65, 45
1, 126000, Tempo, 580271
1, 126000, Control_c, 0, 64, 0
1, 126000, Note_on_c, 0, 49, 63
1, 126120, Note_on_c, 0, 49, 0
1, 126120, Note_on_c, 0, 65, 0
1, 126120, Note_on_c, 0, 61, 0
1, 126240, Tempo, 560329
1, 126240, Note_on_c, 0, 60, 34
1, 126240, Note_on_c, 0, 63, 41
1, 126240, Note_on_c, 0, 65, 41
1, 126330, Note_on_c, 0, 65, 0
1, 126330, Note_on_c, 0, 63, 0
1, 126330, Note_on_c, 0, 60, 0
1, 126480, Tempo, 580271
1, 126480, Note_on_c, 0, 58, 35
1, 126480, Note_on_c, 0, 61, 42
1, 126480, Note_on_c, 0, 65, 42
1, 126570, Note_on_c, 0, 65, 0
1, 126570, Note_on_c, 0, 61, 0
1, 126570, Note_on_c, 0, 58, 0
1, 126720, Tempo, 554888
1, 126720, Note_on_c, 0, 57, 38
1, 126720, Note_on_c, 0, 60, 45
1, 126720, Note_on_c, 0, 65, 45
1, 126727, Control_c, 0, 64, 127
1, 126960, Tempo, 580271
1, 126960, Note_on_c, 0, 42, 45
1, 127200, Tempo, 560329
1, 127200, Note_on_c, 0, 42, 0
1, 127200, Note_on_c, 0, 57, 0
1, 127200, Note_on_c, 0, 60, 0
1, 127200, Note_on_c, 0, 65, 0
1, 127200, Note_on_c, 0, 57, 38
1, 127200, Note_on_c, 0, 60, 45
1, 127200, Note_on_c, 0, 65, 45
1, 127440, Tempo, 580271
1, 127440, Control_c, 0, 64, 0
1, 127440, Note_on_c, 0, 41, 63
1, 127560, Note_on_c, 0, 41, 0
1, 127560, Note_on_c, 0, 57, 0
1, 127560, Note_on_c, 0, 60, 0
1, 127560, Note_on_c, 0, 65, 0
1, 127680, Tempo, 560329
1, 127680, Note_on_c, 0, 58, 34
1, 127680, Note_on_c, 0, 61, 41
1, 127680, Note_on_c, 0, 65, 41
1, 127770, Note_on_c, 0, 65, 0
1, 127770, Note_on_c, 0, 61, 0
1, 127770, Note_on_c, 0, 58, 0
1, 127920, Tempo, 580271
1, 127920, Note_on_c, 0, 60, 35
1, 127920, Note_on_c, 0, 63, 42
1, 127920, Note_on_c, 0, 65, 42
1, 128010, Note_on_c, 0, 65, 0
1, 128010, Note_on_c, 0, 63, 0
1, 128010, Note_on_c, 0, 60, 0
1, 128160, Tempo, 563222
1, 128160, Note_on_c, 0, 61, 45
1, 128160, Note_on_c, 0, 65, 45
1, 128181, Control_c, 0, 64, 127
1, 128400, Tempo, 583204
1, 128400, Note_on_c, 0, 46, 45
1, 128640, Tempo, 549551
1, 128640, Note_on_c, 0, 46, 0
1, 128640, Note_on_c, 0, 65, 0
1, 128640, Note_on_c, 0, 61, 0
1, 128640, Note_on_c, 0, 61, 45
1, 128640, Note_on_c, 0, 65, 45
1, 128880, Tempo, 580271
1, 128880, Note_on_c, 0, 49, 63
1, 128962, Control_c, 0, 64, 0
1, 129120, Tempo, 560329
1, 129120, Note_on_c, 0, 49, 0
1, 129120, Note_on_c, 0, 65, 0
1, 129120, Note_on_c, 0, 61, 0
1, 129120, Note_on_c, 0, 60, 34
1, 129120, Note_on_c, 0, 63, 41
1, 129120, Note_on_c, 0, 65, 41
1, 129210, Note_on_c, 0, 65, 0
1, 129210, Note_on_c, 0, 63, 0
1, 129210, Note_on_c, 0, 60, 0
1, 129360, Tempo, 580271
1, 129360, Note_on_c, 0, 58, 35
1, 129360, Note_on_c, 0, 61, 42
1, 129360, Note_on_c, 0, 65, 42
1, 129450, Note_on_c, 0, 65, 0
1, 129450, Note_on_c, 0, 61, 0
1, 129450, Note_on_c, 0, 58, 0
1, 129600, Tempo, 554888
1, 129600, Note_on_c, 0, 56, 32
1, 129600, Note_on_c, 0, 61, 38
1, 129600, Note_on_c, 0, 65, 38
1, 129600, Control_c, 0, 64, 127
1, 129840, Tempo, 580271
1, 129840, Note_on_c, 0, 41, 38
1, 130080, Tempo, 560329
1, 130080, Note_on_c, 0, 41, 0
1, 130080, Note_on_c, 0, 56, 0
1, 130080, Note_on_c, 0, 61, 0
1, 130080, Note_on_c, 0, 65, 0
1, 130080, Note_on_c, 0, 56, 32
1, 130080, Note_on_c, 0, 61, 38
1, 130080, Note_on_c, 0, 65, 38
1, 130320, Tempo, 595415
1, 130320, Note_on_c, 0, 32, 43
1, 130369, Control_c, 0, 64, 0
1, 130440, Note_on_c, 0, 32, 0
1, 130440, Note_on_c, 0, 56, 0
1, 130440, Note_on_c, 0, 61, 0
1, 130440, Note_on_c, 0, 65, 0
1, 130560, Tempo, 560329
1, 130560, Note_on_c, 0, 56, 28
1, 130560, Note_on_c, 0, 65, 34
1, 130560, Note_on_c, 0, 68, 34
1, 130650, Note_on_c, 0, 68, 0
1, 130650, Note_on_c, 0, 65, 0
1, 130650, Note_on_c, 0, 56, 0
1, 130800, Tempo, 592300
1, 130800, Note_on_c, 0, 56, 29
1, 130800, Note_on_c, 0, 65, 35
1, 130800, Note_on_c, 0, 68, 35
1, 130890, Note_on_c, 0, 68, 0
1, 130890, Note_on_c, 0, 65, 0
1, 130890, Note_on_c, 0, 56, 0
1, 131040, Tempo, 571537
1, 131040, Note_on_c, 0, 56, 32
1, 131040, Note_on_c, 0, 61, 38
1, 131040, Note_on_c, 0, 65, 38
1, 131040, Control_c, 0, 64, 127
1, 131280, Tempo, 589217
1, 131280, Note_on_c, 0, 37, 38
1, 131520, Tempo, 618620
1, 131520, Note_on_c, 0, 37, 0
1, 131520, Note_on_c, 0, 56, 0
1, 131520, Note_on_c, 0, 61, 0
1, 131520, Note_on_c, 0, 65, 0
1, 131520, Note_on_c, 0, 56, 32
1, 131520, Note_on_c, 0, 61, 38
1, 131520, Note_on_c, 0, 65, 38
1, 131760, Tempo, 592300
1, 131760, Control_c, 0, 64, 0
1, 131760, Note_on_c, 0, 37, 39
1, 131880, Note_on_c, 0, 37, 0
1, 132000, Note_on_c, 0, 56, 0
1, 132000, Note_on_c, 0, 61, 0
1, 132000, Note_on_c, 0, 65, 0
1, 132000, Note_on_c, 0, 49, 32
1, 132120, Note_on_c, 0, 49, 0
1, 132240, Tempo, 615511
1, 132240, Note_on_c, 0, 48, 29
1, 132360, Note_on_c, 0, 48, 0
1, 132480, Tempo, 588178
1, 132480, Note_on_c, 0, 58, 38
1, 132480, Note_on_c, 0, 61, 45
1, 132480, Note_on_c, 0, 66, 45
1, 132487, Control_c, 0, 64, 127
1, 132720, Tempo, 580271
1, 132720, Note_on_c, 0, 46, 45
1, 132960, Tempo, 560329
1, 132960, Note_on_c, 0, 46, 0
1, 132960, Note_on_c, 0, 58, 0
1, 132960, Note_on_c, 0, 61, 0
1, 132960, Note_on_c, 0, 66, 0
1, 132960, Note_on_c, 0, 58, 39
1, 132960, Note_on_c, 0, 61, 47
1, 132960, Note_on_c, 0, 66, 47
1, 133200, Tempo, 580271
1, 133200, Control_c, 0, 64, 0
1, 133200, Note_on_c, 0, 49, 67
1, 133440, Tempo, 560329
1, 133440, Note_on_c, 0, 49, 0
1, 133440, Note_on_c, 0, 58, 0
1, 133440, Note_on_c, 0, 61, 0
1, 133440, Note_on_c, 0, 66, 0
1, 133440, Note_on_c, 0, 58, 38
1, 133440, Note_on_c, 0, 61, 45
1, 133440, Note_on_c, 0, 68, 45
1, 133530, Note_on_c, 0, 68, 0
1, 133530, Note_on_c, 0, 61, 0
1, 133530, Note_on_c, 0, 58, 0
1, 133680, Tempo, 580271
1, 133680, Note_on_c, 0, 58, 39
1, 133680, Note_on_c, 0, 61, 47
1, 133680, Note_on_c, 0, 70, 47
1, 133770, Note_on_c, 0, 70, 0
1, 133770, Note_on_c, 0, 61, 0
1, 133770, Note_on_c, 0, 58, 0
1, 133920, Tempo, 554888
1, 133920, Note_on_c, 0, 56, 43
1, 133920, Note_on_c, 0, 60, 51
1, 133920, Note_on_c, 0, 65, 51
1, 134005, Control_c, 0, 64, 127
1, 134160, Tempo, 580271
1, 134160, Note_on_c, 0, 48, 51
1, 134400, Tempo, 560329
1, 134400, Note_on_c, 0, 48, 0
1, 134400, Note_on_c, 0, 56, 0
1, 134400, Note_on_c, 0, 60, 0
1, 134400, Note_on_c, 0, 65, 0
1, 134400, Note_on_c, 0, 56, 42
1, 134400, Note_on_c, 0, 60, 50
1, 134400, Note_on_c, 0, 65, 50
1, 134640, Tempo, 580271
1, 134640, Control_c, 0, 64, 0
1, 134640, Note_on_c, 0, 36, 73
1, 134880, Tempo, 560329
1, 134880, Note_on_c, 0, 36, 0
1, 134880, Note_on_c, 0, 56, 0
1, 134880, Note_on_c, 0, 60, 0
1, 134880, Note_on_c, 0, 65, 0
1, 134880, Note_on_c, 0, 55, 39
1, 134880, Note_on_c, 0, 60, 47
1, 134880, Note_on_c, 0, 64, 47
1, 134970, Note_on_c, 0, 64, 0
1, 134970, Note_on_c, 0, 60, 0
1, 134970, Note_on_c, 0, 55, 0
1, 135120, Tempo, 580271
1, 135120, Note_on_c, 0, 55, 40
1, 135120, Note_on_c, 0, 60, 48
1, 135120, Note_on_c, 0, 64, 48
1, 135210, Note_on_c, 0, 64, 0
1, 135210, Note_on_c, 0, 60, 0
1, 135210, Note_on_c, 0, 55, 0
1, 135360, Tempo, 594059
1, 135360, Note_on_c, 0, 63, 45
1, 135360, Note_on_c, 0, 56, 38
1, 135360, Note_on_c, 0, 60, 45
1, 135473, Control_c, 0, 64, 127
1, 135600, Tempo, 580271
1, 135600, Note_on_c, 0, 48, 43
1, 135840, Tempo, 560329
1, 135840, Note_on_c, 0, 48, 0
1, 135840, Note_on_c, 0, 63, 0
1, 135840, Note_on_c, 0, 56, 0
1, 135840, Note_on_c, 0, 60, 0
1, 135840, Note_on_c, 0, 56, 38
1, 135840, Note_on_c, 0, 60, 45
1, 135840, Note_on_c, 0, 63, 45
1, 136080, Tempo, 597015
1, 136080, Note_on_c, 0, 60, 0
1, 136080, Note_on_c, 0, 56, 0
1, 136080, Note_on_c, 0, 58, 31
1, 136080, Note_on_c, 0, 61, 37
1, 136080, Control_c, 0, 64, 0
1, 136080, Note_on_c, 0, 51, 35
1, 136320, Tempo, 571320
1, 136320, Note_on_c, 0, 51, 0
1, 136320, Note_on_c, 0, 63, 0
1, 136320, Note_on_c, 0, 58, 0
1, 136320, Note_on_c, 0, 61, 0
1, 136320, Note_on_c, 0, 55, 34
1, 136320, Note_on_c, 0, 58, 41
1, 136320, Note_on_c, 0, 63, 41
1, 136410, Note_on_c, 0, 63, 0
1, 136410, Note_on_c, 0, 58, 0
1, 136410, Note_on_c, 0, 55, 0
1, 136560, Tempo, 594059
1, 136560, Note_on_c, 0, 55, 35
1, 136560, Note_on_c, 0, 58, 42
1, 136560, Note_on_c, 0, 63, 42
1, 136650, Note_on_c, 0, 63, 0
1, 136650, Note_on_c, 0, 58, 0
1, 136650, Note_on_c, 0, 55, 0
1, 136800, Tempo, 563222
1, 136800, Note_on_c, 0, 68, 45
1, 136800, Note_on_c, 0, 60, 38
1, 136800, Note_on_c, 0, 63, 45
1, 136913, Control_c, 0, 64, 127
1, 137040, Tempo, 621891
1, 137040, Note_on_c, 0, 44, 45
1, 137160, Note_on_c, 0, 44, 0
1, 137280, Tempo, 597015
1, 137280, Note_on_c, 0, 68, 0
1, 137280, Note_on_c, 0, 60, 0
1, 137280, Note_on_c, 0, 63, 0
1, 137280, Note_on_c, 0, 60, 42
1, 137280, Note_on_c, 0, 63, 50
1, 137280, Note_on_c, 0, 68, 50
1, 137280, Note_on_c, 0, 42, 48
1, 137400, Note_on_c, 0, 42, 0
1, 137520, Tempo, 606122
1, 137520, Note_on_c, 0, 68, 0
1, 137520, Note_on_c, 0, 69, 47
1, 137520, Control_c, 0, 64, 0
1, 137520, Note_on_c, 0, 41, 42
1, 137640, Note_on_c, 0, 41, 0
1, 137760, Tempo, 591133
1, 137760, Note_on_c, 0, 60, 0
1, 137760, Note_on_c, 0, 63, 0
1, 137760, Note_on_c, 0, 69, 0
1, 137760, Note_on_c, 0, 60, 34
1, 137760, Note_on_c, 0, 63, 41
1, 137760, Note_on_c, 0, 65, 41
1, 137850, Note_on_c, 0, 65, 0
1, 137850, Note_on_c, 0, 63, 0
1, 137850, Note_on_c, 0, 60, 0
1, 138000, Tempo, 612307
1, 138000, Note_on_c, 0, 60, 35
1, 138000, Note_on_c, 0, 63, 42
1, 138000, Note_on_c, 0, 65, 42
1, 138090, Note_on_c, 0, 65, 0
1, 138090, Note_on_c, 0, 63, 0
1, 138090, Note_on_c, 0, 60, 0
1, 138240, Tempo, 588178
1, 138240, Note_on_c, 0, 65, 45
1, 138240, Note_on_c, 0, 73, 45
1, 138261, Control_c, 0, 64, 127
1, 138480, Tempo, 583204
1, 138480, Note_on_c, 0, 58, 45
1, 138720, Tempo, 560538
1, 138720, Note_on_c, 0, 58, 0
1, 138720, Note_on_c, 0, 73, 0
1, 138720, Note_on_c, 0, 65, 0
1, 138720, Note_on_c, 0, 65, 45
1, 138720, Note_on_c, 0, 73, 45
1, 138960, Tempo, 580271
1, 138960, Note_on_c, 0, 61, 63
1, 139042, Control_c, 0, 64, 0
1, 139200, Tempo, 560329
1, 139200, Note_on_c, 0, 61, 0
1, 139200, Note_on_c, 0, 73, 0
1, 139200, Note_on_c, 0, 65, 0
1, 139200, Note_on_c, 0, 63, 41
1, 139200, Note_on_c, 0, 65, 41
1, 139200, Note_on_c, 0, 72, 41
1, 139290, Note_on_c, 0, 72, 0
1, 139290, Note_on_c, 0, 65, 0
1, 139290, Note_on_c, 0, 63, 0
1, 139440, Tempo, 580271
1, 139440, Note_on_c, 0, 61, 35
1, 139440, Note_on_c, 0, 65, 42
1, 139440, Note_on_c, 0, 70, 42
1, 139530, Note_on_c, 0, 70, 0
1, 139530, Note_on_c, 0, 65, 0
1, 139530, Note_on_c, 0, 61, 0
1, 139680, Tempo, 563222
1, 139680, Note_on_c, 0, 65, 45
1, 139680, Note_on_c, 0, 60, 38
1, 139680, Note_on_c, 0, 69, 45
1, 139701, Control_c, 0, 64, 127
1, 139920, Tempo, 583204
1, 139920, Note_on_c, 0, 54, 45
1, 140160, Tempo, 549551
1, 140160, Note_on_c, 0, 54, 0
1, 140160, Note_on_c, 0, 65, 0
1, 140160, Note_on_c, 0, 60, 0
1, 140160, Note_on_c, 0, 69, 0
1, 140160, Note_on_c, 0, 65, 45
1, 140160, Note_on_c, 0, 60, 38
1, 140160, Note_on_c, 0, 69, 45
1, 140400, Tempo, 580271
1, 140400, Note_on_c, 0, 53, 63
1, 140482, Control_c, 0, 64, 0
1, 140640, Tempo, 560329
1, 140640, Note_on_c, 0, 53, 0
1, 140640, Note_on_c, 0, 65, 0
1, 140640, Note_on_c, 0, 60, 0
1, 140640, Note_on_c, 0, 69, 0
1, 140640, Note_on_c, 0, 61, 34
1, 140640, Note_on_c, 0, 65, 41
1, 140640, Note_on_c, 0, 70, 41
1, 140730, Note_on_c, 0, 70, 0
1, 140730, Note_on_c, 0, 65, 0
1, 140730, Note_on_c, 0, 61, 0
1, 140880, Tempo, 580271
1, 140880, Note_on_c, 0, 63, 35
1, 140880, Note_on_c, 0, 65, 42
1, 140880, Note_on_c, 0, 72, 42
1, 140970, Note_on_c, 0, 72, 0
1, 140970, Note_on_c, 0, 65, 0
1, 140970, Note_on_c, 0, 63, 0
1, 141120, Tempo, 563222
1, 141120, Note_on_c, 0, 61, 45
1, 141120, Note_on_c, 0, 65, 45
1, 141141, Control_c, 0, 64, 127
1, 141360, Tempo, 583204
1, 141360, Note_on_c, 0, 46, 45
1, 141600, Tempo, 549551
1, 141600, Note_on_c, 0, 46, 0
1, 141600, Note_on_c, 0, 65, 0
1, 141600, Note_on_c, 0, 61, 0
1, 141600, Note_on_c, 0, 61, 45
1, 141600, Note_on_c, 0, 65, 45
1, 141840, Tempo, 580271
1, 141840, Note_on_c, 0, 49, 63
1, 141922, Control_c, 0, 64, 0
1, 142080, Tempo, 560329
1, 142080, Note_on_c, 0, 49, 0
1, 142080, Note_on_c, 0, 65, 0
1, 142080, Note_on_c, 0, 61, 0
1, 142080, Note_on_c, 0, 60, 34
1, 142080, Note_on_c, 0, 63, 41
1, 142080, Note_on_c, 0, 65, 41
1, 142170, Note_on_c, 0, 65, 0
1, 142170, Note_on_c, 0, 63, 0
1, 142170, Note_on_c, 0, 60, 0
1, 142320, Tempo, 580271
1, 142320, Note_on_c, 0, 58, 35
1, 142320, Note_on_c, 0, 61, 42
1, 142320, Note_on_c, 0, 65, 42
1, 142410, Note_on_c, 0, 65, 0
1, 142410, Note_on_c, 0, 61, 0
1, 142410, Note_on_c, 0, 58, 0
1, 142560, Tempo, 554888
1, 142560, Note_on_c, 0, 56, 32
1, 142560, Note_on_c, 0, 61, 38
1, 142560, Note_on_c, 0, 65, 38
1, 142560, Control_c, 0, 64, 127
1, 142800, Tempo, 638570
1, 142800, Note_on_c, 0, 41, 45
1, 143040, Tempo, 582468
1, 143040, Note_on_c, 0, 41, 0
1, 143040, Note_on_c, 0, 56, 0
1, 143040, Note_on_c, 0, 61, 0
1, 143040, Note_on_c, 0, 65, 0
1, 143040, Note_on_c, 0, 56, 32
1, 143040, Note_on_c, 0, 61, 38
1, 143040, Note_on_c, 0, 65, 38
1, 143280, Tempo, 625130
1, 143280, Note_on_c, 0, 29, 64
1, 143329, Control_c, 0, 64, 0
1, 143520, Tempo, 573998
1, 143520, Note_on_c, 0, 29, 0
1, 143520, Note_on_c, 0, 56, 0
1, 143520, Note_on_c, 0, 61, 0
1, 143520, Note_on_c, 0, 65, 0
1, 143520, Note_on_c, 0, 54, 28
1, 143520, Note_on_c, 0, 57, 34
1, 143520, Note_on_c, 0, 60, 34
1, 143520, Note_on_c, 0, 63, 34
1, 143610, Note_on_c, 0, 63, 0
1, 143610, Note_on_c, 0, 54, 0
1, 143610, Note_on_c, 0, 57, 0
1, 143610, Note_on_c, 0, 60, 0
1, 143760, Tempo, 592300
1, 143760, Note_on_c, 0, 54, 29
1, 143760, Note_on_c, 0, 57, 29
1, 143760, Note_on_c, 0, 60, 35
1, 143760, Note_on_c, 0, 63, 35
1, 143850, Note_on_c, 0, 63, 0
1, 143850, Note_on_c, 0, 54, 0
1, 143850, Note_on_c, 0, 57, 0
1, 143850, Note_on_c, 0, 60, 0
1, 144000, Tempo, 571537
1, 144000, Note_on_c, 0, 53, 32
1, 144000, Note_on_c, 0, 58, 38
1, 144000, Note_on_c, 0, 61, 38
1, 144000, Control_c, 0, 64, 127
1, 144240, Tempo, 589217
1, 144240, Note_on_c, 0, 34, 38
1, 144480, Tempo, 580271
1, 144480, Note_on_c, 0, 34, 0
1, 144480, Note_on_c, 0, 53, 0
1, 144480, Note_on_c, 0, 58, 0
1, 144480, Note_on_c, 0, 61, 0
1, 144480, Note_on_c, 0, 53, 32
1, 144480, Note_on_c, 0, 58, 38
1, 144480, Note_on_c, 0, 61, 38
1, 144720, Tempo, 592300
1, 144720, Control_c, 0, 64, 0
1, 144720, Note_on_c, 0, 46, 39
1, 144840, Note_on_c, 0, 46, 0
1, 144960, Note_on_c, 0, 53, 0
1, 144960, Note_on_c, 0, 58, 0
1, 144960, Note_on_c, 0, 61, 0
1, 144960, Note_on_c, 0, 49, 32
1, 145080, Note_on_c, 0, 49, 0
1, 145200, Tempo, 621891
1, 145200, Note_on_c, 0, 48, 29
1, 145320, Note_on_c, 0, 48, 0
1, 145440, Tempo, 609199
1, 145440, Note_on_c, 0, 58, 38
1, 145440, Note_on_c, 0, 61, 45
1, 145440, Note_on_c, 0, 66, 45
1, 145447, Control_c, 0, 64, 127
1, 145680, Tempo, 591133
1, 145680, Note_on_c, 0, 46, 45
1, 145920, Tempo, 571320
1, 145920, Note_on_c, 0, 46, 0
1, 145920, Note_on_c, 0, 58, 0
1, 145920, Note_on_c, 0, 61, 0
1, 145920, Note_on_c, 0, 66, 0
1, 145920, Note_on_c, 0, 58, 39
1, 145920, Note_on_c, 0, 61, 47
1, 145920, Note_on_c, 0, 66, 47
1, 146160, Tempo, 580271
1, 146160, Control_c, 0, 64, 0
1, 146160, Note_on_c, 0, 49, 67
1, 146400, Tempo, 568613
1, 146400, Note_on_c, 0, 49, 0
1, 146400, Note_on_c, 0, 58, 0
1, 146400, Note_on_c, 0, 61, 0
1, 146400, Note_on_c, 0, 66, 0
1, 146400, Note_on_c, 0, 58, 38
1, 146400, Note_on_c, 0, 61, 45
1, 146400, Note_on_c, 0, 68, 45
1, 146490, Note_on_c, 0, 68, 0
1, 146490, Note_on_c, 0, 61, 0
1, 146490, Note_on_c, 0, 58, 0
1, 146640, Tempo, 580271
1, 146640, Note_on_c, 0, 58, 39
1, 146640, Note_on_c, 0, 61, 47
1, 146640, Note_on_c, 0, 70, 47
1, 146730, Note_on_c, 0, 70, 0
1, 146730, Note_on_c, 0, 61, 0
1, 146730, Note_on_c, 0, 58, 0
1, 146880, Tempo, 563222
1, 146880, Note_on_c, 0, 56, 43
1, 146880, Note_on_c, 0, 60, 51
1, 146880, Note_on_c, 0, 65, 51
1, 146965, Control_c, 0, 64, 127
1, 147120, Tempo, 580271
1, 147120, Note_on_c, 0, 48, 51
1, 147360, Tempo, 563222
1, 147360, Note_on_c, 0, 48, 0
1, 147360, Note_on_c, 0, 56, 0
1, 147360, Note_on_c, 0, 60, 0
1, 147360, Note_on_c, 0, 65, 0
1, 147360, Note_on_c, 0, 56, 42
1, 147360, Note_on_c, 0, 60, 50
1, 147360, Note_on_c, 0, 65, 50
1, 147600, Tempo, 580271
1, 147600, Control_c, 0, 64, 0
1, 147600, Note_on_c, 0, 36, 73
1, 147840, Tempo, 565878
1, 147840, Note_on_c, 0, 36, 0
1, 147840, Note_on_c, 0, 56, 0
1, 147840, Note_on_c, 0, 60, 0
1, 147840, Note_on_c, 0, 65, 0
1, 147840, Note_on_c, 0, 55, 39
1, 147840, Note_on_c, 0, 60, 47
1, 147840, Note_on_c, 0, 64, 47
1, 147930, Note_on_c, 0, 64, 0
1, 147930, Note_on_c, 0, 60, 0
1, 147930, Note_on_c, 0, 55, 0
1, 148080, Tempo, 580271
1, 148080, Note_on_c, 0, 55, 40
1, 148080, Note_on_c, 0, 60, 48
1, 148080, Note_on_c, 0, 64, 48
1, 148170, Note_on_c, 0, 64, 0
1, 148170, Note_on_c, 0, 60, 0
1, 148170, Note_on_c, 0, 55, 0
1, 148320, Tempo, 594059
1, 148320, Note_on_c, 0, 63, 45
1, 148320, Note_on_c, 0, 56, 38
1, 148320, Note_on_c, 0, 60, 45
1, 148433, Control_c, 0, 64, 127
1, 148560, Tempo, 580271
1, 148560, Note_on_c, 0, 48, 43
1, 148800, Tempo, 560329
1, 148800, Note_on_c, 0, 48, 0
1, 148800, Note_on_c, 0, 63, 0
1, 148800, Note_on_c, 0, 56, 0
1, 148800, Note_on_c, 0, 60, 0
1, 148800, Note_on_c, 0, 56, 38
1, 148800, Note_on_c, 0, 60, 45
1, 148800, Note_on_c, 0, 63, 45
1, 149040, Tempo, 597015
1, 149040, Note_on_c, 0, 60, 0
1, 149040, Note_on_c, 0, 56, 0
1, 149040, Note_on_c, 0, 58, 31
1, 149040, Note_on_c, 0, 61, 37
1, 149040, Control_c, 0, 64, 0
1, 149040, Note_on_c, 0, 51, 35
1, 149280, Tempo, 571320
1, 149280, Note_on_c, 0, 51, 0
1, 149280, Note_on_c, 0, 63, 0
1, 149280, Note_on_c, 0, 58, 0
1, 149280, Note_on_c, 0, 61, 0
1, 149280, Note_on_c, 0, 55, 34
1, 149280, Note_on_c, 0, 58, 41
1, 149280, Note_on_c, 0, 63, 41
1, 149370, Note_on_c, 0, 63, 0
1, 149370, Note_on_c, 0, 58, 0
1, 149370, Note_on_c, 0, 55, 0
1, 149520, Tempo, 594059
1, 149520, Note_on_c, 0, 55, 35
1, 149520, Note_on_c, 0, 58, 42
1, 149520, Note_on_c, 0, 63, 42
1, 149610, Note_on_c, 0, 63, 0
1, 149610, Note_on_c, 0, 58, 0
1, 149610, Note_on_c, 0, 55, 0
1, 149760, Tempo, 563222
1, 149760, Note_on_c, 0, 68, 45
1, 149760, Note_on_c, 0, 60, 38
1, 149760, Note_on_c, 0, 63, 45
1, 149873, Control_c, 0, 64, 127
1, 150000, Tempo, 621891
1, 150000, Note_on_c, 0, 44, 45
1, 150120, Note_on_c, 0, 44, 0
1, 150240, Tempo, 648929
1, 150240, Note_on_c, 0, 68, 0
1, 150240, Note_on_c, 0, 60, 0
1, 150240, Note_on_c, 0, 63, 0
1, 150240, Note_on_c, 0, 60, 42
1, 150240, Note_on_c, 0, 63, 42
1, 150240, Note_on_c, 0, 68, 50
1, 150240, Note_on_c, 0, 42, 48
1, 150360, Note_on_c, 0, 42, 0
1, 150480, Tempo, 606122
1, 150480, Note_on_c, 0, 68, 0
1, 150480, Note_on_c, 0, 69, 47
1, 150480, Control_c, 0, 64, 0
1, 150480, Note_on_c, 0, 41, 42
1, 150600, Note_on_c, 0, 41, 0
1, 150720, Tempo, 591133
1, 150720, Note_on_c, 0, 60, 0
1, 150720, Note_on_c, 0, 63, 0
1, 150720, Note_on_c, 0, 69, 0
1, 150720, Note_on_c, 0, 60, 34
1, 150720, Note_on_c, 0, 63, 34
1, 150720, Note_on_c, 0, 65, 41
1, 150810, Note_on_c, 0, 65, 0
1, 150810, Note_on_c, 0, 63, 0
1, 150810, Note_on_c, 0, 60, 0
1, 150960, Tempo, 612307
1, 150960, Note_on_c, 0, 60, 35
1, 150960, Note_on_c, 0, 63, 35
1, 150960, Note_on_c, 0, 65, 42
1, 151050, Note_on_c, 0, 65, 0
1, 151050, Note_on_c, 0, 63, 0
1, 151050, Note_on_c, 0, 60, 0
1, 151200, Tempo, 588178
1, 151200, Note_on_c, 0, 65, 45
1, 151200, Note_on_c, 0, 73, 45
1, 151221, Control_c, 0, 64, 127
1, 151440, Tempo, 583204
1, 151440, Note_on_c, 0, 58, 45
1, 151680, Tempo, 560538
1, 151680, Note_on_c, 0, 58, 0
1, 151680, Note_on_c, 0, 73, 0
1, 151680, Note_on_c, 0, 65, 0
1, 151680, Note_on_c, 0, 65, 45
1, 151680, Note_on_c, 0, 73, 45
1, 151920, Tempo, 580271
1, 151920, Note_on_c, 0, 61, 63
1, 152002, Control_c, 0, 64, 0
1, 152160, Tempo, 560329
1, 152160, Note_on_c, 0, 61, 0
1, 152160, Note_on_c, 0, 73, 0
1, 152160, Note_on_c, 0, 65, 0
1, 152160, Note_on_c, 0, 63, 34
1, 152160, Note_on_c, 0, 65, 41
1, 152160, Note_on_c, 0, 72, 41
1, 152250, Note_on_c, 0, 72, 0
1, 152250, Note_on_c, 0, 65, 0
1, 152250, Note_on_c, 0, 63, 0
1, 152400, Tempo, 580271
1, 152400, Note_on_c, 0, 61, 35
1, 152400, Note_on_c, 0, 65, 42
1, 152400, Note_on_c, 0, 70, 42
1, 152490, Note_on_c, 0, 70, 0
1, 152490, Note_on_c, 0, 65, 0
1, 152490, Note_on_c, 0, 61, 0
1, 152640, Tempo, 563222
1, 152640, Note_on_c, 0, 65, 45
1, 152640, Note_on_c, 0, 60, 38
1, 152640, Note_on_c, 0, 69, 45
1, 152661, Control_c, 0, 64, 127
1, 152880, Tempo, 583204
1, 152880, Note_on_c, 0, 54, 45
1, 153120, Tempo, 549551
1, 153120, Note_on_c, 0, 54, 0
1, 153120, Note_on_c, 0, 65, 0
1, 153120, Note_on_c, 0, 60, 0
1, 153120, Note_on_c, 0, 69, 0
1, 153120, Note_on_c, 0, 65, 45
1, 153120, Note_on_c, 0, 60, 38
1, 153120, Note_on_c, 0, 69, 45
1, 153360, Tempo, 580271
1, 153360, Note_on_c, 0, 53, 63
1, 153442, Control_c, 0, 64, 0
1, 153600, Tempo, 560329
1, 153600, Note_on_c, 0, 53, 0
1, 153600, Note_on_c, 0, 65, 0
1, 153600, Note_on_c, 0, 60, 0
1, 153600, Note_on_c, 0, 69, 0
1, 153600, Note_on_c, 0, 61, 34
1, 153600, Note_on_c, 0, 65, 41
1, 153600, Note_on_c, 0, 70, 41
1, 153690, Note_on_c, 0, 70, 0
1, 153690, Note_on_c, 0, 65, 0
1, 153690, Note_on_c, 0, 61, 0
1, 153840, Tempo, 580271
1, 153840, Note_on_c, 0, 63, 35
1, 153840, Note_on_c, 0, 65, 42
1, 153840, Note_on_c, 0, 72, 42
1, 153930, Note_on_c, 0, 72, 0
1, 153930, Note_on_c, 0, 65, 0
1, 153930, Note_on_c, 0, 63, 0
1, 154080, Tempo, 563222
1, 154080, Note_on_c, 0, 61, 45
1, 154080, Note_on_c, 0, 65, 45
1, 154101, Control_c, 0, 64, 127
1, 154320, Tempo, 583204
1, 154320, Note_on_c, 0, 46, 45
1, 154560, Tempo, 549551
1, 154560, Note_on_c, 0, 46, 0
1, 154560, Note_on_c, 0, 65, 0
1, 154560, Note_on_c, 0, 61, 0
1, 154560, Note_on_c, 0, 61, 45
1, 154560, Note_on_c, 0, 65, 45
1, 154800, Tempo, 580271
1, 154800, Note_on_c, 0, 49, 63
1, 154882, Control_c, 0, 64, 0
1, 155040, Tempo, 560329
1, 155040, Note_on_c, 0, 49, 0
1, 155040, Note_on_c, 0, 65, 0
1, 155040, Note_on_c, 0, 61, 0
1, 155040, Note_on_c, 0, 60, 34
1, 155040, Note_on_c, 0, 63, 41
1, 155040, Note_on_c, 0, 65, 41
1, 155130, Note_on_c, 0, 65, 0
1, 155130, Note_on_c, 0, 63, 0
1, 155130, Note_on_c, 0, 60, 0
1, 155280, Tempo, 580271
1, 155280, Note_on_c, 0, 58, 35
1, 155280, Note_on_c, 0, 61, 42
1, 155280, Note_on_c, 0, 65, 42
1, 155370, Note_on_c, 0, 65, 0
1, 155370, Note_on_c, 0, 61, 0
1, 155370, Note_on_c, 0, 58, 0
1, 155520, Tempo, 554888
1, 155520, Note_on_c, 0, 56, 32
1, 155520, Note_on_c, 0, 61, 38
1, 155520, Note_on_c, 0, 65, 38
1, 155520, Control_c, 0, 64, 127
1, 155760, Tempo, 638570
1, 155760, Note_on_c, 0, 41, 45
1, 156000, Tempo, 600000
1, 156000, Note_on_c, 0, 41, 0
1, 156000, Note_on_c, 0, 56, 0
1, 156000, Note_on_c, 0, 61, 0
1, 156000, Note_on_c, 0, 65, 0
1, 156000, Note_on_c, 0, 56, 32
1, 156000, Note_on_c, 0, 61, 38
1, 156000, Note_on_c, 0, 65, 38
1, 156240, Tempo, 625130
1, 156240, Note_on_c, 0, 29, 64
1, 156289, Control_c, 0, 64, 0
1, 156480, Tempo, 591133
1, 156480, Note_on_c, 0, 29, 0
1, 156480, Note_on_c, 0, 56, 0
1, 156480, Note_on_c, 0, 61, 0
1, 156480, Note_on_c, 0, 65, 0
1, 156480, Note_on_c, 0, 54, 28
1, 156480, Note_on_c, 0, 57, 28
1, 156480, Note_on_c, 0, 60, 34
1, 156480, Note_on_c, 0, 63, 34
1, 156570, Note_on_c, 0, 63, 0
1, 156570, Note_on_c, 0, 54, 0
1, 156570, Note_on_c, 0, 57, 0
1, 156570, Note_on_c, 0, 60, 0
1, 156720, Tempo, 612307
1, 156720, Note_on_c, 0, 54, 29
1, 156720, Note_on_c, 0, 57, 29
1, 156720, Note_on_c, 0, 60, 35
1, 156720, Note_on_c, 0, 63, 35
1, 156810, Note_on_c, 0, 63, 0
1, 156810, Note_on_c, 0, 54, 0
1, 156810, Note_on_c, 0, 57, 0
1, 156810, Note_on_c, 0, 60, 0
1, 156960, Tempo, 628404
1, 156960, Note_on_c, 0, 53, 32
1, 156960, Note_on_c, 0, 58, 38
1, 156960, Note_on_c, 0, 61, 38
1, 156960, Control_c, 0, 64, 127
1, 157200, Tempo, 667037
1, 157200, Note_on_c, 0, 34, 38
1, 157440, Note_on_c, 0, 34, 0
1, 157440, Note_on_c, 0, 53, 0
1, 157440, Note_on_c, 0, 58, 0
1, 157440, Note_on_c, 0, 61, 0
1, 157440, Note_on_c, 0, 53, 32
1, 157440, Note_on_c, 0, 58, 38
1, 157440, Note_on_c, 0, 61, 38
1, 157680, Note_on_c, 0, 46, 39
1, 157920, Note_on_c, 0, 46, 0
1, 157920, Note_on_c, 0, 53, 0
1, 157920, Note_on_c, 0, 58, 0
1, 157920, Note_on_c, 0, 61, 0
1, 157947, Control_c, 0, 64, 0
1, 158160, Tempo, 621891
1, 158400, Key_signature, -2, "major"
1, 158400, Tempo, 461787
1, 158400, Marker_t, "D.C."
1, 158400, Note_on_c, 0, 82, 54
1, 158400, Control_c, 0, 64, 127
1, 158400, Note_on_c, 0, 58, 31
1, 158400, Note_on_c, 0, 62, 38
1, 158520, Note_on_c, 0, 62, 0
1, 158520, Note_on_c, 0, 58, 0
1, 158520, Note_on_c, 0, 65, 25
1, 158640, Note_on_c, 0, 65, 0
1, 158640, Note_on_c, 0, 82, 0
1, 158640, Note_on_c, 0, 81, 47
1, 158640, Note_on_c, 0, 58, 24
1, 158640, Note_on_c, 0, 62, 29
1, 158647, Control_c, 0, 64, 0
1, 158682, Control_c, 0, 64, 127
1, 158760, Note_on_c, 0, 62, 0
1, 158760, Note_on_c, 0, 58, 0
1, 158760, Note_on_c, 0, 65, 24
1, 158880, Note_on_c, 0, 65, 0
1, 158880, Note_on_c, 0, 81, 0
1, 158880, Note_on_c, 0, 82, 47
1, 158880, Control_c, 0, 64, 0
1, 158880, Note_on_c, 0, 58, 24
1, 158880, Note_on_c, 0, 62, 29
1, 158908, Control_c, 0, 64, 127
1, 159000, Note_on_c, 0, 62, 0
1, 159000, Note_on_c, 0, 58, 0
1, 159000, Note_on_c, 0, 65, 25
1, 159120, Tempo, 456274
1, 159120, Note_on_c, 0, 65, 0
1, 159120, Note_on_c, 0, 82, 0
1, 159120, Note_on_c, 0, 79, 51
1, 159120, Control_c, 0, 64, 0
1, 159120, Note_on_c, 0, 58, 28
1, 159120, Note_on_c, 0, 63, 34
1, 159169, Control_c, 0, 64, 127
1, 159240, Note_on_c, 0, 63, 0
1, 159240, Note_on_c, 0, 58, 0
1, 159240, Note_on_c, 0, 67, 25
1, 159360, Tempo, 452625
1, 159360, Note_on_c, 0, 67, 0
1, 159360, Note_on_c, 0, 79, 0
1, 159360, Note_on_c, 0, 81, 46
1, 159360, Note_on_c, 0, 58, 24
1, 159360, Note_on_c, 0, 63, 29
1, 159381, Control_c, 0, 64, 0
1, 159416, Control_c, 0, 64, 127
1, 159480, Note_on_c, 0, 63, 0
1, 159480, Note_on_c, 0, 58, 0
1, 159480, Note_on_c, 0, 81, 0
1, 159480, Note_on_c, 0, 82, 47
1, 159480, Note_on_c, 0, 67, 24
1, 159600, Note_on_c, 0, 67, 0
1, 159600, Note_on_c, 0, 82, 0
1, 159600, Note_on_c, 0, 84, 49
1, 159600, Note_on_c, 0, 58, 24
1, 159600, Note_on_c, 0, 63, 29
1, 159720, Note_on_c, 0, 63, 0
1, 159720, Note_on_c, 0, 58, 0
1, 159720, Note_on_c, 0, 84, 0
1, 159720, Note_on_c, 0, 86, 50
1, 159720, Note_on_c, 0, 67, 24
1, 159840, Tempo, 458155
1, 159840, Note_on_c, 0, 67, 0
1, 159840, Note_on_c, 0, 86, 0
1, 159840, Note_on_c, 0, 82, 53
1, 159840, Control_c, 0, 64, 0
1, 159840, Note_on_c, 0, 58, 34
1, 159840, Note_on_c, 0, 62, 40
1, 159889, Control_c, 0, 64, 127
1, 159960, Note_on_c, 0, 62, 0
1, 159960, Note_on_c, 0, 58, 0
1, 159960, Note_on_c, 0, 65, 25
1, 160080, Tempo, 452625
1, 160080, Note_on_c, 0, 65, 0
1, 160080, Note_on_c, 0, 82, 0
1, 160080, Note_on_c, 0, 84, 54
1, 160080, Note_on_c, 0, 62, 29
1, 160080, Note_on_c, 0, 58, 24
1, 160086, Control_c, 0, 64, 0
1, 160158, Control_c, 0, 64, 127
1, 160200, Note_on_c, 0, 58, 0
1, 160200, Note_on_c, 0, 62, 0
1, 160200, Note_on_c, 0, 84, 0
1, 160200, Note_on_c, 0, 82, 47
1, 160200, Note_on_c, 0, 65, 24
1, 160320, Note_on_c, 0, 65, 0
1, 160320, Note_on_c, 0, 82, 0
1, 160320, Note_on_c, 0, 81, 51
1, 160320, Note_on_c, 0, 58, 24
1, 160320, Note_on_c, 0, 62, 29
1, 160440, Note_on_c, 0, 62, 0
1, 160440, Note_on_c, 0, 58, 0
1, 160440, Note_on_c, 0, 81, 0
1, 160440, Note_on_c, 0, 79, 47
1, 160440, Note_on_c, 0, 65, 24
1, 160560, Tempo, 463750
1, 160560, Note_on_c, 0, 65, 0
1, 160560, Note_on_c, 0, 79, 0
1, 160560, Note_on_c, 0, 77, 56
1, 160560, Note_on_c, 0, 57, 29
1, 160560, Note_on_c, 0, 63, 34
1, 160588, Control_c, 0, 64, 0
1, 160620, Note_on_c, 0, 77, 0
1, 160680, Note_on_c, 0, 63, 0
1, 160680, Note_on_c, 0, 57, 0
1, 160680, Note_on_c, 0, 65, 25
1, 160800, Note_on_c, 0, 65, 0
1, 160800, Note_on_c, 0, 77, 51
1, 160800, Note_on_c, 0, 57, 24
1, 160800, Note_on_c, 0, 63, 29
1, 160860, Note_on_c, 0, 77, 0
1, 160920, Note_on_c, 0, 63, 0
1, 160920, Note_on_c, 0, 57, 0
1, 160920, Note_on_c, 0, 65, 26
1, 161040, Tempo, 474608
1, 161040, Note_on_c, 0, 65, 0
1, 161040, Note_on_c, 0, 77, 50
1, 161040, Note_on_c, 0, 57, 24
1, 161040, Note_on_c, 0, 63, 29
1, 161100, Note_on_c, 0, 77, 0
1, 161160, Note_on_c, 0, 63, 0
1, 161160, Note_on_c, 0, 57, 0
1, 161160, Note_on_c, 0, 65, 25
1, 161280, Tempo, 463679
1, 161280, Note_on_c, 0, 65, 0
1, 161280, Note_on_c, 0, 78, 61
1, 161280, Note_on_c, 0, 57, 31
1, 161280, Note_on_c, 0, 63, 37
1, 161349, Control_c, 0, 64, 127
1, 161400, Note_on_c, 0, 63, 0
1, 161400, Note_on_c, 0, 57, 0
1, 161400, Note_on_c, 0, 66, 25
1, 161520, Note_on_c, 0, 66, 0
1, 161520, Note_on_c, 0, 78, 0
1, 161520, Note_on_c, 0, 90, 57
1, 161520, Note_on_c, 0, 57, 24
1, 161520, Note_on_c, 0, 63, 29
1, 161640, Note_on_c, 0, 63, 0
1, 161640, Note_on_c, 0, 57, 0
1, 161640, Note_on_c, 0, 66, 25
1, 161749, Control_c, 0, 64, 0
1, 161760, Tempo, 472776
1, 161760, Note_on_c, 0, 66, 0
1, 161760, Note_on_c, 0, 90, 0
1, 161760, Note_on_c, 0, 90, 57
1, 161760, Note_on_c, 0, 57, 24
1, 161760, Note_on_c, 0, 63, 29
1, 161820, Note_on_c, 0, 90, 0
1, 161880, Note_on_c, 0, 63, 0
1, 161880, Note_on_c, 0, 57, 0
1, 161880, Note_on_c, 0, 66, 25
1, 162000, Tempo, 463679
1, 162000, Note_on_c, 0, 66, 0
1, 162000, Note_on_c, 0, 91, 65
1, 162000, Note_on_c, 0, 58, 29
1, 162000, Note_on_c, 0, 63, 34
1, 162011, Control_c, 0, 64, 127
1, 162120, Note_on_c, 0, 63, 0
1, 162120, Note_on_c, 0, 58, 0
1, 162120, Note_on_c, 0, 67, 25
1, 162240, Note_on_c, 0, 67, 0
1, 162240, Note_on_c, 0, 91, 0
1, 162240, Note_on_c, 0, 79, 51
1, 162240, Note_on_c, 0, 58, 24
1, 162240, Note_on_c, 0, 63, 29
1, 162360, Note_on_c, 0, 63, 0
1, 162360, Note_on_c, 0, 58, 0
1, 162360, Note_on_c, 0, 67, 25
1, 162480, Note_on_c, 0, 67, 0
1, 162480, Note_on_c, 0, 79, 0
1, 162480, Note_on_c, 0, 79, 51
1, 162480, Note_on_c, 0, 58, 24
1, 162480, Note_on_c, 0, 63, 29
1, 162501, Control_c, 0, 64, 0
1, 162540, Note_on_c, 0, 79, 0
1, 162600, Note_on_c, 0, 63, 0
1, 162600, Note_on_c, 0, 58, 0
1, 162600, Note_on_c, 0, 67, 25
1, 162720, Note_on_c, 0, 67, 0
1, 162720, Note_on_c, 0, 81, 53
1, 162720, Note_on_c, 0, 60, 29
1, 162720, Note_on_c, 0, 63, 34
1, 162769, Control_c, 0, 64, 127
1, 162780, Note_on_c, 0, 81, 0
1, 162840, Note_on_c, 0, 63, 0
1, 162840, Note_on_c, 0, 60, 0
1, 162840, Note_on_c, 0, 65, 25
1, 162930, Note_on_c, 0, 94, 45
1, 162960, Tempo, 452625
1, 162960, Note_on_c, 0, 94, 0
1, 162960, Note_on_c, 0, 65, 0
1, 162960, Note_on_c, 0, 93, 52
1, 162960, Note_on_c, 0, 60, 24
1, 162960, Note_on_c, 0, 63, 29
1, 162964, Control_c, 0, 64, 0
1, 163020, Control_c, 0, 64, 127
1, 163080, Note_on_c, 0, 63, 0
1, 163080, Note_on_c, 0, 60, 0
1, 163080, Note_on_c, 0, 93, 0
1, 163080, Note_on_c, 0, 91, 51
1, 163080, Note_on_c, 0, 65, 25
1, 163200, Tempo, 458155
1, 163200, Note_on_c, 0, 65, 0
1, 163200, Note_on_c, 0, 91, 0
1, 163200, Note_on_c, 0, 93, 52
1, 163200, Note_on_c, 0, 60, 24
1, 163200, Note_on_c, 0, 63, 29
1, 163320, Note_on_c, 0, 63, 0
1, 163320, Note_on_c, 0, 60, 0
1, 163320, Note_on_c, 0, 65, 25
1, 163440, Note_on_c, 0, 65, 0
1, 163440, Note_on_c, 0, 93, 0
1, 163440, Note_on_c, 0, 94, 54
1, 163440, Control_c, 0, 64, 0
1, 163440, Note_on_c, 0, 58, 29
1, 163440, Note_on_c, 0, 62, 34
1, 163493, Control_c, 0, 64, 127
1, 163500, Note_on_c, 0, 94, 0
1, 163560, Note_on_c, 0, 62, 0
1, 163560, Note_on_c, 0, 58, 0
1, 163560, Note_on_c, 0, 65, 25
1, 163650, Note_on_c, 0, 84, 45
1, 163680, Tempo, 452625
1, 163680, Note_on_c, 0, 84, 0
1, 163680, Note_on_c, 0, 65, 0
1, 163680, Note_on_c, 0, 82, 51
1, 163680, Note_on_c, 0, 58, 24
1, 163680, Note_on_c, 0, 62, 29
1, 163687, Control_c, 0, 64, 0
1, 163740, Control_c, 0, 64, 127
1, 163800, Note_on_c, 0, 62, 0
1, 163800, Note_on_c, 0, 58, 0
1, 163800, Note_on_c, 0, 82, 0
1, 163800, Note_on_c, 0, 81, 47
1, 163800, Note_on_c, 0, 65, 25
1, 163920, Tempo, 484183
1, 163920, Note_on_c, 0, 65, 0
1, 163920, Note_on_c, 0, 81, 0
1, 163920, Note_on_c, 0, 82, 51
1, 163920, Note_on_c, 0, 58, 24
1, 163920, Note_on_c, 0, 62, 29
1, 164040, Note_on_c, 0, 62, 0
1, 164040, Note_on_c, 0, 58, 0
1, 164040, Note_on_c, 0, 82, 0
1, 164040, Note_on_c, 0, 65, 25
1, 164160, Tempo, 465477
1, 164160, Note_on_c, 0, 65, 0
1, 164160, Note_on_c, 0, 70, 34
1, 164160, Note_on_c, 0, 74, 40
1, 164160, Control_c, 0, 64, 0
1, 164160, Note_on_c, 0, 58, 48
1, 164280, Note_on_c, 0, 74, 0
1, 164280, Note_on_c, 0, 70, 0
1, 164280, Note_on_c, 0, 77, 35
1, 164400, Note_on_c, 0, 77, 0
1, 164400, Note_on_c, 0, 58, 0
1, 164400, Note_on_c, 0, 70, 34
1, 164400, Note_on_c, 0, 74, 41
1, 164400, Note_on_c, 0, 57, 40
1, 164520, Note_on_c, 0, 74, 0
1, 164520, Note_on_c, 0, 70, 0
1, 164520, Note_on_c, 0, 77, 34
1, 164640, Note_on_c, 0, 77, 0
1, 164640, Note_on_c, 0, 57, 0
1, 164640, Note_on_c, 0, 70, 34
1, 164640, Note_on_c, 0, 74, 41
1, 164640, Note_on_c, 0, 58, 40
1, 164760, Note_on_c, 0, 74, 0
1, 164760, Note_on_c, 0, 70, 0
1, 164760, Note_on_c, 0, 77, 35
1, 164880, Tempo, 456274
1, 164880, Note_on_c, 0, 77, 0
1, 164880, Note_on_c, 0, 58, 0
1, 164880, Note_on_c, 0, 70, 35
1, 164880, Note_on_c, 0, 74, 42
1, 164880, Note_on_c, 0, 55, 48
1, 165000, Note_on_c, 0, 74, 0
1, 165000, Note_on_c, 0, 70, 0
1, 165000, Note_on_c, 0, 79, 35
1, 165120, Tempo, 452625
1, 165120, Note_on_c, 0, 79, 0
1, 165120, Note_on_c, 0, 55, 0
1, 165120, Note_on_c, 0, 70, 34
1, 165120, Note_on_c, 0, 74, 41
1, 165120, Note_on_c, 0, 57, 39
1, 165240, Note_on_c, 0, 57, 0
1, 165240, Note_on_c, 0, 74, 0
1, 165240, Note_on_c, 0, 70, 0
1, 165240, Note_on_c, 0, 79, 34
1, 165240, Note_on_c, 0, 58, 39
1, 165360, Note_on_c, 0, 58, 0
1, 165360, Note_on_c, 0, 79, 0
1, 165360, Note_on_c, 0, 70, 34
1, 165360, Note_on_c, 0, 74, 41
1, 165360, Note_on_c, 0, 60, 40
1, 165480, Note_on_c, 0, 60, 0
1, 165480, Note_on_c, 0, 74, 0
1, 165480, Note_on_c, 0, 70, 0
1, 165480, Note_on_c, 0, 79, 34
1, 165480, Note_on_c, 0, 62, 40
1, 165600, Tempo, 458155
1, 165600, Note_on_c, 0, 62, 0
1, 165600, Note_on_c, 0, 79, 0
1, 165600, Note_on_c, 0, 70, 37
1, 165600, Note_on_c, 0, 74, 44
1, 165600, Note_on_c, 0, 58, 46
1, 165720, Note_on_c, 0, 74, 0
1, 165720, Note_on_c, 0, 70, 0
1, 165720, Note_on_c, 0, 77, 35
1, 165840, Tempo, 452625
1, 165840, Note_on_c, 0, 77, 0
1, 165840, Note_on_c, 0, 58, 0
1, 165840, Note_on_c, 0, 74, 41
1, 165840, Note_on_c, 0, 70, 34
1, 165840, Note_on_c, 0, 60, 44
1, 165960, Note_on_c, 0, 60, 0
1, 165960, Note_on_c, 0, 70, 0
1, 165960, Note_on_c, 0, 74, 0
1, 165960, Note_on_c, 0, 77, 34
1, 165960, Note_on_c, 0, 58, 40
1, 166080, Note_on_c, 0, 58, 0
1, 166080, Note_on_c, 0, 77, 0
1, 166080, Note_on_c, 0, 70, 34
1, 166080, Note_on_c, 0, 74, 41
1, 166080, Note_on_c, 0, 57, 44
1, 166200, Note_on_c, 0, 57, 0
1, 166200, Note_on_c, 0, 74, 0
1, 166200, Note_on_c, 0, 70, 0
1, 166200, Note_on_c, 0, 77, 34
1, 166200, Note_on_c, 0, 55, 40
1, 166320, Tempo, 463750
1, 166320, Note_on_c, 0, 55, 0
1, 166320, Note_on_c, 0, 77, 0
1, 166320, Note_on_c, 0, 69, 39
1, 166320, Note_on_c, 0, 75, 47
1, 166320, Note_on_c, 0, 53, 47
1, 166440, Note_on_c, 0, 53, 0
1, 166440, Note_on_c, 0, 75, 0
1, 166440, Note_on_c, 0, 69, 0
1, 166440, Note_on_c, 0, 77, 35
1, 166560, Note_on_c, 0, 77, 0
1, 166560, Note_on_c, 0, 69, 34
1, 166560, Note_on_c, 0, 75, 41
1, 166560, Note_on_c, 0, 53, 40
1, 166680, Note_on_c, 0, 53, 0
1, 166680, Note_on_c, 0, 75, 0
1, 166680, Note_on_c, 0, 69, 0
1, 166680, Note_on_c, 0, 77, 37
1, 166800, Tempo, 472776
1, 166800, Note_on_c, 0, 77, 0
1, 166800, Note_on_c, 0, 69, 34
1, 166800, Note_on_c, 0, 75, 41
1, 166800, Note_on_c, 0, 53, 40
1, 166920, Note_on_c, 0, 53, 0
1, 166920, Note_on_c, 0, 75, 0
1, 166920, Note_on_c, 0, 69, 0
1, 166920, Note_on_c, 0, 77, 35
1, 167040, Tempo, 463679
1, 167040, Note_on_c, 0, 77, 0
1, 167040, Note_on_c, 0, 69, 38
1, 167040, Note_on_c, 0, 75, 45
1, 167040, Note_on_c, 0, 54, 51
1, 167160, Note_on_c, 0, 75, 0
1, 167160, Note_on_c, 0, 69, 0
1, 167160, Note_on_c, 0, 81, 35
1, 167280, Note_on_c, 0, 81, 0
1, 167280, Note_on_c, 0, 54, 0
1, 167280, Note_on_c, 0, 69, 34
1, 167280, Note_on_c, 0, 75, 41
1, 167280, Note_on_c, 0, 66, 39
1, 167400, Note_on_c, 0, 75, 0
1, 167400, Note_on_c, 0, 69, 0
1, 167400, Note_on_c, 0, 81, 35
1, 167520, Tempo, 474608
1, 167520, Note_on_c, 0, 81, 0
1, 167520, Note_on_c, 0, 66, 0
1, 167520, Note_on_c, 0, 69, 34
1, 167520, Note_on_c, 0, 75, 41
1, 167520, Note_on_c, 0, 66, 41
1, 167640, Note_on_c, 0, 66, 0
1, 167640, Note_on_c, 0, 75, 0
1, 167640, Note_on_c, 0, 69, 0
1, 167640, Note_on_c, 0, 81, 35
1, 167760, Tempo, 463679
1, 167760, Note_on_c, 0, 81, 0
1, 167760, Note_on_c, 0, 70, 37
1, 167760, Note_on_c, 0, 75, 44
1, 167760, Note_on_c, 0, 67, 51
1, 167880, Note_on_c, 0, 75, 0
1, 167880, Note_on_c, 0, 70, 0
1, 167880, Note_on_c, 0, 82, 35
1, 168000, Note_on_c, 0, 82, 0
1, 168000, Note_on_c, 0, 67, 0
1, 168000, Note_on_c, 0, 70, 34
1, 168000, Note_on_c, 0, 75, 41
1, 168000, Note_on_c, 0, 55, 45
1, 168120, Note_on_c, 0, 75, 0
1, 168120, Note_on_c, 0, 70, 0
1, 168120, Note_on_c, 0, 81, 35
1, 168240, Note_on_c, 0, 81, 0
1, 168240, Note_on_c, 0, 55, 0
1, 168240, Note_on_c, 0, 70, 34
1, 168240, Note_on_c, 0, 75, 41
1, 168240, Note_on_c, 0, 55, 46
1, 168360, Note_on_c, 0, 55, 0
1, 168360, Note_on_c, 0, 75, 0
1, 168360, Note_on_c, 0, 70, 0
1, 168360, Note_on_c, 0, 79, 35
1, 168480, Note_on_c, 0, 79, 0
1, 168480, Note_on_c, 0, 68, 34
1, 168480, Note_on_c, 0, 74, 41
1, 168480, Note_on_c, 0, 58, 51
1, 168540, Note_on_c, 0, 58, 0
1, 168600, Note_on_c, 0, 74, 0
1, 168600, Note_on_c, 0, 68, 0
1, 168600, Note_on_c, 0, 77, 35
1, 168660, Note_on_c, 0, 48, 39
1, 168720, Tempo, 452625
1, 168720, Note_on_c, 0, 77, 0
1, 168720, Note_on_c, 0, 68, 34
1, 168720, Note_on_c, 0, 74, 41
1, 168720, Note_on_c, 0, 46, 46
1, 168740, Note_on_c, 0, 48, 0
1, 168840, Note_on_c, 0, 68, 0
1, 168840, Note_on_c, 0, 74, 0
1, 168840, Note_on_c, 0, 77, 35
1, 168840, Note_on_c, 0, 45, 42
1, 168860, Note_on_c, 0, 46, 0
1, 168960, Tempo, 491884
1, 168960, Note_on_c, 0, 77, 0
1, 168960, Note_on_c, 0, 68, 34
1, 168960, Note_on_c, 0, 74, 41
1, 168960, Note_on_c, 0, 46, 45
1, 168980, Note_on_c, 0, 45, 0
1, 169080, Note_on_c, 0, 68, 0
1, 169080, Note_on_c, 0, 74, 0
1, 169080, Note_on_c, 0, 77, 35
1, 169200, Tempo, 461787
1, 169200, Note_on_c, 0, 77, 0
1, 169200, Note_on_c, 0, 46, 0
1, 169200, Note_on_c, 0, 67, 34
1, 169200, Note_on_c, 0, 75, 41
1, 169200, Note_on_c, 0, 51, 42
1, 169260, Note_on_c, 0, 51, 0
1, 169320, Note_on_c, 0, 75, 0
1, 169320, Note_on_c, 0, 67, 0
1, 169320, Note_on_c, 0, 79, 35
1, 169380, Note_on_c, 0, 41, 39
1, 169440, Tempo, 452625
1, 169440, Note_on_c, 0, 79, 0
1, 169440, Note_on_c, 0, 67, 34
1, 169440, Note_on_c, 0, 75, 41
1, 169440, Note_on_c, 0, 39, 42
1, 169460, Note_on_c, 0, 41, 0
1, 169560, Note_on_c, 0, 67, 0
1, 169560, Note_on_c, 0, 75, 0
1, 169560, Note_on_c, 0, 79, 35
1, 169560, Note_on_c, 0, 38, 39
1, 169580, Note_on_c, 0, 39, 0
1, 169680, Tempo, 487171
1, 169680, Note_on_c, 0, 79, 0
1, 169680, Note_on_c, 0, 67, 34
1, 169680, Note_on_c, 0, 75, 41
1, 169680, Note_on_c, 0, 39, 42
1, 169700, Note_on_c, 0, 38, 0
1, 169800, Note_on_c, 0, 67, 0
1, 169800, Note_on_c, 0, 75, 0
1, 169800, Note_on_c, 0, 39, 0
1, 169920, Tempo, 492045
1, 169920, Note_on_c, 0, 82, 56
1, 169920, Note_on_c, 0, 63, 29
1, 169920, Note_on_c, 0, 67, 34
1, 169970, Control_c, 0, 64, 127
1, 169980, Note_on_c, 0, 82, 0
1, 170040, Note_on_c, 0, 67, 0
1, 170040, Note_on_c, 0, 63, 0
1, 170040, Note_on_c, 0, 70, 28
1, 170100, Note_on_c, 0, 80, 47
1, 170160, Note_on_c, 0, 80, 0
1, 170160, Note_on_c, 0, 70, 0
1, 170160, Note_on_c, 0, 79, 56
1, 170160, Note_on_c, 0, 63, 26
1, 170160, Note_on_c, 0, 67, 32
1, 170161, Tempo, 452625
1, 170166, Control_c, 0, 64, 0
1, 170189, Control_c, 0, 64, 127
1, 170280, Note_on_c, 0, 67, 0
1, 170280, Note_on_c, 0, 63, 0
1, 170280, Note_on_c, 0, 79, 0
1, 170280, Note_on_c, 0, 77, 52
1, 170280, Note_on_c, 0, 70, 28
1, 170400, Note_on_c, 0, 70, 0
1, 170400, Note_on_c, 0, 77, 0
1, 170400, Note_on_c, 0, 79, 56
1, 170400, Note_on_c, 0, 63, 26
1, 170400, Note_on_c, 0, 67, 32
1, 170401, Tempo, 458155
1, 170410, Control_c, 0, 64, 0
1, 170449, Control_c, 0, 64, 127
1, 170520, Note_on_c, 0, 67, 0
1, 170520, Note_on_c, 0, 63, 0
1, 170520, Note_on_c, 0, 70, 28
1, 170640, Tempo, 482199
1, 170640, Note_on_c, 0, 70, 0
1, 170640, Note_on_c, 0, 79, 0
1, 170640, Note_on_c, 0, 82, 56
1, 170640, Note_on_c, 0, 62, 26
1, 170640, Note_on_c, 0, 65, 32
1, 170640, Control_c, 0, 64, 0
1, 170655, Control_c, 0, 64, 0
1, 170690, Control_c, 0, 64, 127
1, 170700, Note_on_c, 0, 82, 0
1, 170760, Note_on_c, 0, 65, 0
1, 170760, Note_on_c, 0, 62, 0
1, 170760, Note_on_c, 0, 70, 28
1, 170820, Note_on_c, 0, 79, 48
1, 170880, Note_on_c, 0, 79, 0
1, 170880, Note_on_c, 0, 70, 0
1, 170880, Note_on_c, 0, 77, 56
1, 170880, Note_on_c, 0, 62, 26
1, 170880, Note_on_c, 0, 65, 32
1, 170881, Tempo, 452625
1, 170888, Control_c, 0, 64, 0
1, 170919, Control_c, 0, 64, 127
1, 171000, Note_on_c, 0, 65, 0
1, 171000, Note_on_c, 0, 62, 0
1, 171000, Note_on_c, 0, 77, 0
1, 171000, Note_on_c, 0, 76, 52
1, 171000, Note_on_c, 0, 70, 28
1, 171120, Tempo, 467108
1, 171120, Note_on_c, 0, 70, 0
1, 171120, Note_on_c, 0, 76, 0
1, 171120, Note_on_c, 0, 77, 56
1, 171120, Note_on_c, 0, 61, 26
1, 171120, Note_on_c, 0, 65, 32
1, 171138, Control_c, 0, 64, 0
1, 171169, Control_c, 0, 64, 127
1, 171240, Note_on_c, 0, 65, 0
1, 171240, Note_on_c, 0, 61, 0
1, 171240, Note_on_c, 0, 70, 28
1, 171360, Tempo, 482199
1, 171360, Note_on_c, 0, 70, 0
1, 171360, Note_on_c, 0, 77, 0
1, 171360, Note_on_c, 0, 84, 58
1, 171360, Note_on_c, 0, 60, 26
1, 171360, Note_on_c, 0, 65, 32
1, 171360, Control_c, 0, 64, 0
1, 171375, Control_c, 0, 64, 0
1, 171410, Control_c, 0, 64, 127
1, 171480, Note_on_c, 0, 65, 0
1, 171480, Note_on_c, 0, 60, 0
1, 171480, Note_on_c, 0, 68, 28
1, 171600, Note_on_c, 0, 68, 0
1, 171600, Note_on_c, 0, 84, 0
1, 171600, Note_on_c, 0, 82, 59
1, 171600, Note_on_c, 0, 60, 26
1, 171600, Note_on_c, 0, 65, 32
1, 171601, Tempo, 452625
1, 171604, Control_c, 0, 64, 0
1, 171657, Control_c, 0, 64, 127
1, 171720, Note_on_c, 0, 65, 0
1, 171720, Note_on_c, 0, 60, 0
1, 171720, Note_on_c, 0, 82, 0
1, 171720, Note_on_c, 0, 80, 54
1, 171720, Note_on_c, 0, 68, 28
1, 171840, Tempo, 478965
1, 171840, Note_on_c, 0, 68, 0
1, 171840, Note_on_c, 0, 80, 0
1, 171840, Note_on_c, 0, 79, 58
1, 171840, Note_on_c, 0, 60, 26
1, 171840, Note_on_c, 0, 65, 32
1, 171960, Note_on_c, 0, 65, 0
1, 171960, Note_on_c, 0, 60, 0
1, 171960, Note_on_c, 0, 79, 0
1, 171960, Note_on_c, 0, 77, 58
1, 171960, Note_on_c, 0, 68, 28
1, 172080, Tempo, 491400
1, 172080, Note_on_c, 0, 68, 0
1, 172080, Note_on_c, 0, 77, 0
1, 172080, Note_on_c, 0, 84, 58
1, 172080, Note_on_c, 0, 60, 26
1, 172080, Note_on_c, 0, 65, 32
1, 172080, Control_c, 0, 64, 0
1, 172095, Control_c, 0, 64, 0
1, 172130, Control_c, 0, 64, 127
1, 172200, Note_on_c, 0, 65, 0
1, 172200, Note_on_c, 0, 60, 0
1, 172200, Note_on_c, 0, 67, 28
1, 172320, Tempo, 472962
1, 172320, Note_on_c, 0, 67, 0
1, 172320, Note_on_c, 0, 84, 0
1, 172320, Note_on_c, 0, 72, 56
1, 172320, Note_on_c, 0, 60, 26
1, 172320, Note_on_c, 0, 64, 32
1, 172326, Control_c, 0, 64, 0
1, 172406, Control_c, 0, 64, 127
1, 172440, Note_on_c, 0, 64, 0
1, 172440, Note_on_c, 0, 60, 0
1, 172440, Note_on_c, 0, 67, 28
1, 172560, Note_on_c, 0, 67, 0
1, 172560, Note_on_c, 0, 72, 0
1, 172560, Note_on_c, 0, 72, 56
1, 172560, Note_on_c, 0, 60, 26
1, 172560, Note_on_c, 0, 64, 32
1, 172680, Note_on_c, 0, 64, 0
1, 172680, Note_on_c, 0, 60, 0
1, 172680, Note_on_c, 0, 67, 30
1, 172800, Tempo, 480962
1, 172800, Note_on_c, 0, 67, 0
1, 172800, Note_on_c, 0, 72, 0
1, 172800, Note_on_c, 0, 68, 37
1, 172800, Note_on_c, 0, 72, 44
1, 172800, Note_on_c, 0, 56, 37
1, 172800, Control_c, 0, 64, 0
1, 172800, Note_on_c, 0, 60, 44
1, 172920, Note_on_c, 0, 72, 0
1, 172920, Note_on_c, 0, 68, 0
1, 172920, Note_on_c, 0, 75, 39
1, 173040, Tempo, 478965
1, 173040, Note_on_c, 0, 75, 0
1, 173040, Note_on_c, 0, 60, 0
1, 173040, Note_on_c, 0, 68, 38
1, 173040, Note_on_c, 0, 72, 45
1, 173040, Note_on_c, 0, 61, 40
1, 173160, Note_on_c, 0, 72, 0
1, 173160, Note_on_c, 0, 68, 0
1, 173160, Note_on_c, 0, 75, 38
1, 173280, Tempo, 485084
1, 173280, Note_on_c, 0, 75, 0
1, 173280, Note_on_c, 0, 61, 0
1, 173280, Note_on_c, 0, 68, 38
1, 173280, Note_on_c, 0, 72, 45
1, 173280, Note_on_c, 0, 60, 40
1, 173400, Note_on_c, 0, 72, 0
1, 173400, Note_on_c, 0, 68, 0
1, 173400, Note_on_c, 0, 75, 39
1, 173480, Tempo, 474947
1, 173520, Tempo, 480962
1, 173520, Note_on_c, 0, 75, 0
1, 173520, Note_on_c, 0, 56, 0
1, 173520, Note_on_c, 0, 60, 0
1, 173520, Note_on_c, 0, 68, 37
1, 173520, Note_on_c, 0, 77, 44
1, 173520, Note_on_c, 0, 49, 37
1, 173520, Note_on_c, 0, 58, 44
1, 173640, Note_on_c, 0, 77, 0
1, 173640, Note_on_c, 0, 68, 0
1, 173640, Note_on_c, 0, 80, 39
1, 173760, Tempo, 474947
1, 173760, Note_on_c, 0, 80, 0
1, 173760, Note_on_c, 0, 58, 0
1, 173760, Note_on_c, 0, 68, 39
1, 173760, Note_on_c, 0, 77, 47
1, 173760, Note_on_c, 0, 53, 42
1, 173880, Note_on_c, 0, 77, 0
1, 173880, Note_on_c, 0, 68, 0
1, 173880, Note_on_c, 0, 80, 39
1, 174000, Note_on_c, 0, 80, 0
1, 174000, Note_on_c, 0, 53, 0
1, 174000, Note_on_c, 0, 68, 41
1, 174000, Note_on_c, 0, 77, 49
1, 174000, Note_on_c, 0, 55, 44
1, 174120, Tempo, 483014
1, 174120, Note_on_c, 0, 77, 0
1, 174120, Note_on_c, 0, 68, 0
1, 174120, Note_on_c, 0, 80, 43
1, 174180, Note_on_c, 0, 58, 41
1, 174240, Tempo, 474608
1, 174240, Note_on_c, 0, 58, 0
1, 174240, Note_on_c, 0, 55, 0
1, 174240, Note_on_c, 0, 49, 0
1, 174240, Note_on_c, 0, 80, 0
1, 174240, Note_on_c, 0, 68, 37
1, 174240, Note_on_c, 0, 72, 44
1, 174240, Note_on_c, 0, 51, 37
1, 174240, Note_on_c, 0, 56, 44
1, 174360, Note_on_c, 0, 72, 0
1, 174360, Note_on_c, 0, 68, 0
1, 174360, Note_on_c, 0, 75, 38
1, 174480, Note_on_c, 0, 75, 0
1, 174480, Note_on_c, 0, 56, 0
1, 174480, Note_on_c, 0, 68, 35
1, 174480, Note_on_c, 0, 72, 42
1, 174480, Note_on_c, 0, 55, 38
1, 174600, Note_on_c, 0, 72, 0
1, 174600, Note_on_c, 0, 68, 0
1, 174600, Note_on_c, 0, 75, 34
1, 174720, Tempo, 487171
1, 174720, Note_on_c, 0, 75, 0
1, 174720, Note_on_c, 0, 55, 0
1, 174720, Note_on_c, 0, 68, 34
1, 174720, Note_on_c, 0, 72, 40
1, 174720, Note_on_c, 0, 56, 35
1, 174840, Note_on_c, 0, 72, 0
1, 174840, Note_on_c, 0, 68, 0
1, 174840, Note_on_c, 0, 75, 33
1, 174960, Tempo, 476948
1, 174960, Note_on_c, 0, 75, 0
1, 174960, Note_on_c, 0, 56, 0
1, 174960, Note_on_c, 0, 67, 31
1, 174960, Note_on_c, 0, 73, 37
1, 174960, Note_on_c, 0, 58, 37
1, 175080, Tempo, 478965
1, 175080, Note_on_c, 0, 73, 0
1, 175080, Note_on_c, 0, 67, 0
1, 175080, Note_on_c, 0, 75, 32
1, 175160, Tempo, 480962
1, 175200, Note_on_c, 0, 75, 0
1, 175200, Note_on_c, 0, 67, 31
1, 175200, Note_on_c, 0, 73, 38
1, 175280, Tempo, 483014
1, 175320, Note_on_c, 0, 73, 0
1, 175320, Note_on_c, 0, 67, 0
1, 175320, Note_on_c, 0, 75, 31
1, 175360, Tempo, 485084
1, 175440, Note_on_c, 0, 75, 0
1, 175440, Note_on_c, 0, 58, 0
1, 175440, Note_on_c, 0, 67, 31
1, 175440, Note_on_c, 0, 73, 38
1, 175440, Note_on_c, 0, 59, 34
1, 175480, Tempo, 487171
1, 175560, Tempo, 489277
1, 175560, Note_on_c, 0, 73, 0
1, 175560, Note_on_c, 0, 67, 0
1, 175560, Note_on_c, 0, 75, 32
1, 175640, Tempo, 491400
1, 175680, Tempo, 492045
1, 175680, Note_on_c, 0, 75, 0
1, 175680, Note_on_c, 0, 51, 0
1, 175680, Note_on_c, 0, 59, 0
1, 175680, Note_on_c, 0, 68, 47
1, 175680, Note_on_c, 0, 72, 47
1, 175680, Note_on_c, 0, 75, 56
1, 175680, Note_on_c, 0, 56, 29
1, 175680, Note_on_c, 0, 60, 34
1, 175737, Control_c, 0, 64, 127
1, 175740, Note_on_c, 0, 75, 0
1, 175740, Note_on_c, 0, 68, 0
1, 175740, Note_on_c, 0, 72, 0
1, 175800, Note_on_c, 0, 56, 0
1, 175800, Note_on_c, 0, 60, 0
1, 175800, Note_on_c, 0, 63, 28
1, 175860, Note_on_c, 0, 73, 49
1, 175920, Note_on_c, 0, 73, 0
1, 175920, Note_on_c, 0, 63, 0
1, 175920, Note_on_c, 0, 72, 56
1, 175920, Note_on_c, 0, 56, 26
1, 175920, Note_on_c, 0, 60, 32
1, 175921, Tempo, 452625
1, 175928, Control_c, 0, 64, 0
1, 175955, Control_c, 0, 64, 127
1, 176040, Note_on_c, 0, 60, 0
1, 176040, Note_on_c, 0, 56, 0
1, 176040, Note_on_c, 0, 72, 0
1, 176040, Note_on_c, 0, 70, 52
1, 176040, Note_on_c, 0, 63, 28
1, 176160, Note_on_c, 0, 63, 0
1, 176160, Note_on_c, 0, 70, 0
1, 176160, Note_on_c, 0, 72, 56
1, 176160, Note_on_c, 0, 56, 26
1, 176160, Note_on_c, 0, 60, 32
1, 176161, Tempo, 458155
1, 176172, Control_c, 0, 64, 0
1, 176197, Control_c, 0, 64, 127
1, 176280, Note_on_c, 0, 60, 0
1, 176280, Note_on_c, 0, 56, 0
1, 176280, Note_on_c, 0, 63, 28
1, 176400, Tempo, 482199
1, 176400, Note_on_c, 0, 63, 0
1, 176400, Note_on_c, 0, 72, 0
1, 176400, Note_on_c, 0, 75, 56
1, 176400, Note_on_c, 0, 55, 26
1, 176400, Note_on_c, 0, 58, 32
1, 176400, Control_c, 0, 64, 0
1, 176415, Control_c, 0, 64, 0
1, 176450, Control_c, 0, 64, 127
1, 176460, Note_on_c, 0, 75, 0
1, 176520, Note_on_c, 0, 58, 0
1, 176520, Note_on_c, 0, 55, 0
1, 176520, Note_on_c, 0, 63, 28
1, 176580, Note_on_c, 0, 72, 49
1, 176640, Note_on_c, 0, 72, 0
1, 176640, Note_on_c, 0, 63, 0
1, 176640, Note_on_c, 0, 70, 56
1, 176640, Note_on_c, 0, 55, 26
1, 176640, Note_on_c, 0, 58, 32
1, 176641, Tempo, 452625
1, 176648, Control_c, 0, 64, 0
1, 176676, Control_c, 0, 64, 127
1, 176760, Note_on_c, 0, 58, 0
1, 176760, Note_on_c, 0, 55, 0
1, 176760, Note_on_c, 0, 70, 0
1, 176760, Note_on_c, 0, 69, 52
1, 176760, Note_on_c, 0, 63, 28
1, 176880, Tempo, 467108
1, 176880, Note_on_c, 0, 63, 0
1, 176880, Note_on_c, 0, 69, 0
1, 176880, Note_on_c, 0, 70, 56
1, 176880, Note_on_c, 0, 54, 26
1, 176880, Note_on_c, 0, 58, 32
1, 176894, Control_c, 0, 64, 0
1, 176947, Control_c, 0, 64, 127
1, 177000, Note_on_c, 0, 58, 0
1, 177000, Note_on_c, 0, 54, 0
1, 177000, Note_on_c, 0, 63, 28
1, 177120, Tempo, 482199
1, 177120, Note_on_c, 0, 63, 0
1, 177120, Note_on_c, 0, 70, 0
1, 177120, Note_on_c, 0, 77, 58
1, 177120, Note_on_c, 0, 53, 26
1, 177120, Note_on_c, 0, 58, 32
1, 177120, Control_c, 0, 64, 0
1, 177135, Control_c, 0, 64, 0
1, 177170, Control_c, 0, 64, 127
1, 177240, Note_on_c, 0, 58, 0
1, 177240, Note_on_c, 0, 53, 0
1, 177240, Note_on_c, 0, 61, 28
1, 177360, Note_on_c, 0, 61, 0
1, 177360, Note_on_c, 0, 77, 0
1, 177360, Note_on_c, 0, 75, 59
1, 177360, Note_on_c, 0, 53, 26
1, 177360, Note_on_c, 0, 58, 32
1, 177361, Tempo, 452625
1, 177377, Control_c, 0, 64, 0
1, 177440, Control_c, 0, 64, 127
1, 177480, Note_on_c, 0, 58, 0
1, 177480, Note_on_c, 0, 53, 0
1, 177480, Note_on_c, 0, 75, 0
1, 177480, Note_on_c, 0, 73, 54
1, 177480, Note_on_c, 0, 61, 28
1, 177600, Tempo, 476948
1, 177600, Note_on_c, 0, 61, 0
1, 177600, Note_on_c, 0, 73, 0
1, 177600, Note_on_c, 0, 72, 58
1, 177600, Note_on_c, 0, 53, 26
1, 177600, Note_on_c, 0, 58, 32
1, 177720, Note_on_c, 0, 58, 0
1, 177720, Note_on_c, 0, 53, 0
1, 177720, Note_on_c, 0, 72, 0
1, 177720, Note_on_c, 0, 70, 58
1, 177720, Note_on_c, 0, 61, 28
1, 177840, Tempo, 487171
1, 177840, Note_on_c, 0, 61, 0
1, 177840, Note_on_c, 0, 70, 0
1, 177840, Note_on_c, 0, 77, 58
1, 177840, Note_on_c, 0, 53, 26
1, 177840, Note_on_c, 0, 58, 32
1, 177840, Control_c, 0, 64, 0
1, 177855, Control_c, 0, 64, 0
1, 177890, Control_c, 0, 64, 127
1, 177960, Note_on_c, 0, 58, 0
1, 177960, Note_on_c, 0, 53, 0
1, 177960, Note_on_c, 0, 60, 28
1, 178080, Tempo, 474947
1, 178080, Note_on_c, 0, 60, 0
1, 178080, Note_on_c, 0, 77, 0
1, 178080, Note_on_c, 0, 65, 56
1, 178080, Note_on_c, 0, 53, 26
1, 178080, Note_on_c, 0, 57, 32
1, 178086, Control_c, 0, 64, 0
1, 178165, Control_c, 0, 64, 127
1, 178200, Note_on_c, 0, 57, 0
1, 178200, Note_on_c, 0, 53, 0
1, 178200, Note_on_c, 0, 60, 28
1, 178320, Note_on_c, 0, 60, 0
1, 178320, Note_on_c, 0, 65, 0
1, 178320, Note_on_c, 0, 65, 56
1, 178320, Note_on_c, 0, 53, 26
1, 178320, Note_on_c, 0, 57, 32
1, 178440, Note_on_c, 0, 57, 0
1, 178440, Note_on_c, 0, 53, 0
1, 178440, Note_on_c, 0, 60, 30
1, 178560, Tempo, 480962
1, 178560, Note_on_c, 0, 60, 0
1, 178560, Note_on_c, 0, 65, 0
1, 178560, Note_on_c, 0, 73, 37
1, 178560, Note_on_c, 0, 77, 44
1, 178560, Note_on_c, 0, 61, 37
1, 178560, Control_c, 0, 64, 0
1, 178560, Note_on_c, 0, 65, 44
1, 178680, Note_on_c, 0, 77, 0
1, 178680, Note_on_c, 0, 73, 0
1, 178680, Note_on_c, 0, 80, 39
1, 178800, Tempo, 478965
1, 178800, Note_on_c, 0, 80, 0
1, 178800, Note_on_c, 0, 65, 0
1, 178800, Note_on_c, 0, 73, 38
1, 178800, Note_on_c, 0, 77, 45
1, 178800, Note_on_c, 0, 66, 40
1, 178920, Note_on_c, 0, 77, 0
1, 178920, Note_on_c, 0, 73, 0
1, 178920, Note_on_c, 0, 80, 38
1, 179040, Tempo, 476948
1, 179040, Note_on_c, 0, 80, 0
1, 179040, Note_on_c, 0, 66, 0
1, 179040, Note_on_c, 0, 73, 38
1, 179040, Note_on_c, 0, 77, 45
1, 179040, Note_on_c, 0, 65, 40
1, 179160, Note_on_c, 0, 77, 0
1, 179160, Note_on_c, 0, 73, 0
1, 179160, Note_on_c, 0, 80, 39
1, 179240, Tempo, 474947
1, 179280, Tempo, 485084
1, 179280, Note_on_c, 0, 80, 0
1, 179280, Note_on_c, 0, 61, 0
1, 179280, Note_on_c, 0, 65, 0
1, 179280, Note_on_c, 0, 73, 37
1, 179280, Note_on_c, 0, 82, 44
1, 179280, Note_on_c, 0, 54, 37
1, 179280, Note_on_c, 0, 63, 44
1, 179400, Note_on_c, 0, 82, 0
1, 179400, Note_on_c, 0, 73, 0
1, 179400, Note_on_c, 0, 85, 39
1, 179520, Tempo, 472962
1, 179520, Note_on_c, 0, 85, 0
1, 179520, Note_on_c, 0, 63, 0
1, 179520, Note_on_c, 0, 73, 39
1, 179520, Note_on_c, 0, 82, 47
1, 179520, Note_on_c, 0, 58, 42
1, 179640, Note_on_c, 0, 82, 0
1, 179640, Note_on_c, 0, 73, 0
1, 179640, Note_on_c, 0, 85, 39
1, 179760, Note_on_c, 0, 85, 0
1, 179760, Note_on_c, 0, 58, 0
1, 179760, Note_on_c, 0, 73, 41
1, 179760, Note_on_c, 0, 82, 49
1, 179760, Note_on_c, 0, 60, 44
1, 179880, Tempo, 483014
1, 179880, Note_on_c, 0, 82, 0
1, 179880, Note_on_c, 0, 73, 0
1, 179880, Note_on_c, 0, 85, 43
1, 179940, Note_on_c, 0, 63, 41
1, 180000, Tempo, 474608
1, 180000, Note_on_c, 0, 63, 0
1, 180000, Note_on_c, 0, 60, 0
1, 180000, Note_on_c, 0, 54, 0
1, 180000, Note_on_c, 0, 85, 0
1, 180000, Note_on_c, 0, 73, 37
1, 180000, Note_on_c, 0, 77, 44
1, 180000, Note_on_c, 0, 56, 37
1, 180000, Note_on_c, 0, 61, 44
1, 180120, Note_on_c, 0, 77, 0
1, 180120, Note_on_c, 0, 73, 0
1, 180120, Note_on_c, 0, 80, 38
1, 180240, Note_on_c, 0, 80, 0
1, 180240, Note_on_c, 0, 61, 0
1, 180240, Note_on_c, 0, 73, 35
1, 180240, Note_on_c, 0, 77, 42
1, 180240, Note_on_c, 0, 60, 38
1, 180360, Note_on_c, 0, 77, 0
1, 180360, Note_on_c, 0, 73, 0
1, 180360, Note_on_c, 0, 80, 34
1, 180480, Note_on_c, 0, 80, 0
1, 180480, Note_on_c, 0, 60, 0
1, 180480, Note_on_c, 0, 73, 34
1, 180480, Note_on_c, 0, 77, 40
1, 180480, Note_on_c, 0, 61, 35
1, 180600, Note_on_c, 0, 77, 0
1, 180600, Note_on_c, 0, 73, 0
1, 180600, Note_on_c, 0, 80, 33
1, 180720, Tempo, 472776
1, 180720, Note_on_c, 0, 80, 0
1, 180720, Note_on_c, 0, 61, 0
1, 180720, Note_on_c, 0, 72, 31
1, 180720, Note_on_c, 0, 78, 37
1, 180720, Note_on_c, 0, 63, 37
1, 180830, Tempo, 474608
1, 180840, Note_on_c, 0, 78, 0
1, 180840, Note_on_c, 0, 72, 0
1, 180840, Note_on_c, 0, 80, 32
1, 180930, Tempo, 476531
1, 180960, Note_on_c, 0, 80, 0
1, 180960, Note_on_c, 0, 72, 31
1, 180960, Note_on_c, 0, 78, 38
1, 181030, Tempo, 478354
1, 181080, Note_on_c, 0, 78, 0
1, 181080, Note_on_c, 0, 72, 0
1, 181080, Note_on_c, 0, 80, 31
1, 181140, Tempo, 480384
1, 181200, Note_on_c, 0, 80, 0
1, 181200, Note_on_c, 0, 63, 0
1, 181200, Note_on_c, 0, 72, 31
1, 181200, Note_on_c, 0, 78, 38
1, 181200, Note_on_c, 0, 64, 34
1, 181240, Tempo, 482199
1, 181320, Note_on_c, 0, 78, 0
1, 181320, Note_on_c, 0, 72, 0
1, 181320, Note_on_c, 0, 80, 32
1, 181340, Tempo, 484183
1, 181440, Tempo, 492045
1, 181440, Note_on_c, 0, 80, 0
1, 181440, Note_on_c, 0, 56, 0
1, 181440, Note_on_c, 0, 64, 0
1, 181440, Note_on_c, 0, 73, 31
1, 181440, Note_on_c, 0, 77, 31
1, 181440, Note_on_c, 0, 80, 37
1, 181440, Note_on_c, 0, 61, 29
1, 181440, Note_on_c, 0, 65, 34
1, 181500, Note_on_c, 0, 65, 0
1, 181500, Note_on_c, 0, 61, 0
1, 181680, Tempo, 489277
1, 181680, Note_on_c, 0, 73, 0
1, 181680, Note_on_c, 0, 77, 0
1, 181680, Note_on_c, 0, 80, 0
1, 181680, Note_on_c, 0, 49, 28
1, 181740, Note_on_c, 0, 49, 0
1, 181920, Tempo, 504498
1, 181920, Note_on_c, 0, 49, 28
1, 181980, Note_on_c, 0, 49, 0
1, 182160, Tempo, 483014
1, 182160, Note_on_c, 0, 61, 26
1, 182163, Note_on_c, 0, 65, 32
1, 182220, Note_on_c, 0, 61, 0
1, 182223, Note_on_c, 0, 65, 0
1, 182400, Tempo, 491400
1, 182400, Note_on_c, 0, 49, 28
1, 182460, Note_on_c, 0, 49, 0
1, 182640, Tempo, 502260
1, 182640, Note_on_c, 0, 49, 28
1, 182700, Note_on_c, 0, 49, 0
1, 182820, Note_on_c, 0, 73, 40
1, 182850, Note_on_c, 0, 77, 40
1, 182880, Tempo, 467108
1, 182880, Note_on_c, 0, 80, 51
1, 182880, Note_on_c, 0, 61, 28
1, 182880, Note_on_c, 0, 65, 33
1, 182940, Note_on_c, 0, 65, 0
1, 182940, Note_on_c, 0, 61, 0
1, 183000, Note_on_c, 0, 73, 0
1, 183000, Note_on_c, 0, 77, 0
1, 183000, Note_on_c, 0, 80, 0
1, 183120, Tempo, 461432
1, 183120, Note_on_c, 0, 78, 40
1, 183120, Note_on_c, 0, 49, 28
1, 183180, Note_on_c, 0, 49, 0
1, 183240, Note_on_c, 0, 78, 0
1, 183240, Note_on_c, 0, 77, 40
1, 183360, Tempo, 483014
1, 183360, Note_on_c, 0, 77, 0
1, 183360, Note_on_c, 0, 75, 40
1, 183360, Note_on_c, 0, 49, 28
1, 183420, Note_on_c, 0, 49, 0
1, 183480, Note_on_c, 0, 75, 0
1, 183480, Note_on_c, 0, 73, 40
1, 183540, Note_on_c, 0, 68, 40
1, 183570, Note_on_c, 0, 72, 40
1, 183600, Tempo, 465224
1, 183600, Note_on_c, 0, 73, 0
1, 183600, Note_on_c, 0, 75, 49
1, 183600, Note_on_c, 0, 61, 28
1, 183600, Note_on_c, 0, 66, 34
1, 183660, Note_on_c, 0, 66, 0
1, 183660, Note_on_c, 0, 61, 0
1, 183720, Note_on_c, 0, 68, 0
1, 183720, Note_on_c, 0, 72, 0
1, 183720, Note_on_c, 0, 75, 0
1, 183840, Tempo, 461432
1, 183840, Note_on_c, 0, 73, 40
1, 183840, Note_on_c, 0, 49, 28
1, 183900, Note_on_c, 0, 49, 0
1, 183960, Note_on_c, 0, 73, 0
1, 183960, Note_on_c, 0, 72, 40
1, 184080, Tempo, 478965
1, 184080, Note_on_c, 0, 72, 0
1, 184080, Note_on_c, 0, 70, 40
1, 184080, Note_on_c, 0, 49, 28
1, 184140, Note_on_c, 0, 49, 0
1, 184200, Note_on_c, 0, 70, 0
1, 184200, Note_on_c, 0, 68, 40
1, 184260, Note_on_c, 0, 73, 40
1, 184290, Note_on_c, 0, 77, 40
1, 184320, Tempo, 487171
1, 184320, Note_on_c, 0, 68, 0
1, 184320, Note_on_c, 0, 80, 53
1, 184320, Note_on_c, 0, 61, 28
1, 184320, Note_on_c, 0, 65, 33
1, 184380, Note_on_c, 0, 65, 0
1, 184380, Note_on_c, 0, 61, 0
1, 184440, Note_on_c, 0, 73, 0
1, 184440, Note_on_c, 0, 77, 0
1, 184440, Note_on_c, 0, 80, 0
1, 184560, Tempo, 461432
1, 184560, Note_on_c, 0, 78, 42
1, 184560, Note_on_c, 0, 49, 28
1, 184620, Note_on_c, 0, 49, 0
1, 184680, Note_on_c, 0, 78, 0
1, 184680, Note_on_c, 0, 77, 45
1, 184800, Note_on_c, 0, 77, 0
1, 184800, Note_on_c, 0, 75, 47
1, 184800, Note_on_c, 0, 49, 33
1, 184860, Note_on_c, 0, 49, 0
1, 184920, Note_on_c, 0, 75, 0
1, 184920, Note_on_c, 0, 73, 51
1, 185000, Tempo, 474947
1, 185040, Note_on_c, 0, 73, 0
1, 185040, Note_on_c, 0, 85, 57
1, 185040, Note_on_c, 0, 82, 57
1, 185040, Note_on_c, 0, 78, 57
1, 185040, Note_on_c, 0, 61, 31
1, 185040, Note_on_c, 0, 66, 38
1, 185100, Note_on_c, 0, 66, 0
1, 185100, Note_on_c, 0, 78, 0
1, 185100, Note_on_c, 0, 85, 0
1, 185100, Note_on_c, 0, 82, 0
1, 185100, Note_on_c, 0, 61, 0
1, 185120, Tempo, 476948
1, 185240, Tempo, 478965
1, 185280, Note_on_c, 0, 78, 51
1, 185280, Note_on_c, 0, 82, 51
1, 185280, Note_on_c, 0, 85, 51
1, 185280, Note_on_c, 0, 49, 28
1, 185340, Note_on_c, 0, 49, 0
1, 185340, Note_on_c, 0, 78, 0
1, 185340, Note_on_c, 0, 82, 0
1, 185340, Note_on_c, 0, 85, 0
1, 185360, Tempo, 480962
1, 185480, Tempo, 483014
1, 185520, Note_on_c, 0, 78, 51
1, 185520, Note_on_c, 0, 82, 51
1, 185520, Note_on_c, 0, 85, 51
1, 185520, Note_on_c, 0, 49, 28
1, 185580, Note_on_c, 0, 49, 0
1, 185580, Note_on_c, 0, 78, 0
1, 185580, Note_on_c, 0, 82, 0
1, 185580, Note_on_c, 0, 85, 0
1, 185600, Tempo, 485084
1, 185680, Tempo, 487171
1, 185760, Tempo, 467108
1, 185760, Note_on_c, 0, 58, 28
1, 185760, Note_on_c, 0, 61, 28
1, 185760, Note_on_c, 0, 66, 33
1, 185820, Note_on_c, 0, 66, 0
1, 185820, Note_on_c, 0, 61, 0
1, 185820, Note_on_c, 0, 58, 0
1, 186000, Tempo, 478965
1, 186000, Note_on_c, 0, 49, 25
1, 186060, Note_on_c, 0, 49, 0
1, 186240, Tempo, 489277
1, 186240, Note_on_c, 0, 49, 25
1, 186300, Note_on_c, 0, 49, 0
1, 186480, Tempo, 465224
1, 186480, Note_on_c, 0, 58, 25
1, 186480, Note_on_c, 0, 61, 25
1, 186480, Note_on_c, 0, 66, 30
1, 186540, Note_on_c, 0, 66, 0
1, 186540, Note_on_c, 0, 61, 0
1, 186540, Note_on_c, 0, 58, 0
1, 186720, Tempo, 478965
1, 186720, Note_on_c, 0, 49, 25
1, 186780, Note_on_c, 0, 49, 0
1, 186960, Note_on_c, 0, 49, 25
1, 187000, Tempo, 491400
1, 187020, Note_on_c, 0, 49, 0
1, 187200, Tempo, 478965
1, 187200, Note_on_c, 0, 65, 49
1, 187200, Control_c, 0, 64, 0
1, 187200, Note_on_c, 0, 56, 24
1, 187200, Note_on_c, 0, 61, 29
1, 187260, Note_on_c, 0, 61, 0
1, 187260, Note_on_c, 0, 56, 0
1, 187380, Tempo, 433244
1, 187380, Note_on_c, 0, 68, 34
1, 187440, Tempo, 472962
1, 187440, Note_on_c, 0, 68, 0
1, 187440, Note_on_c, 0, 65, 0
1, 187440, Note_on_c, 0, 66, 41
1, 187440, Note_on_c, 0, 49, 24
1, 187472, Control_c, 0, 64, 127
1, 187500, Note_on_c, 0, 49, 0
1, 187680, Note_on_c, 0, 66, 0
1, 187680, Note_on_c, 0, 65, 41
1, 187680, Note_on_c, 0, 49, 24
1, 187740, Note_on_c, 0, 49, 0
1, 187920, Tempo, 467108
1, 187920, Note_on_c, 0, 65, 0
1, 187920, Note_on_c, 0, 63, 48
1, 187920, Control_c, 0, 64, 0
1, 187920, Note_on_c, 0, 54, 25
1, 187920, Note_on_c, 0, 58, 30
1, 187966, Control_c, 0, 64, 127
1, 187980, Note_on_c, 0, 58, 0
1, 187980, Note_on_c, 0, 54, 0
1, 188160, Tempo, 457701
1, 188160, Note_on_c, 0, 63, 0
1, 188160, Note_on_c, 0, 65, 41
1, 188160, Note_on_c, 0, 42, 24
1, 188179, Control_c, 0, 64, 0
1, 188220, Note_on_c, 0, 42, 0
1, 188263, Control_c, 0, 64, 127
1, 188280, Note_on_c, 0, 65, 0
1, 188280, Note_on_c, 0, 66, 41
1, 188320, Tempo, 455858
1, 188400, Note_on_c, 0, 66, 0
1, 188400, Note_on_c, 0, 68, 43
1, 188400, Note_on_c, 0, 42, 24
1, 188460, Note_on_c, 0, 42, 0
1, 188480, Tempo, 454030
1, 188520, Note_on_c, 0, 68, 0
1, 188520, Note_on_c, 0, 70, 44
1, 188600, Tempo, 452216
1, 188640, Tempo, 465224
1, 188640, Note_on_c, 0, 70, 0
1, 188640, Note_on_c, 0, 72, 52
1, 188640, Control_c, 0, 64, 0
1, 188640, Note_on_c, 0, 63, 24
1, 188640, Note_on_c, 0, 66, 29
1, 188680, Control_c, 0, 64, 127
1, 188700, Note_on_c, 0, 66, 0
1, 188700, Note_on_c, 0, 63, 0
1, 188880, Tempo, 457701
1, 188880, Note_on_c, 0, 72, 0
1, 188880, Note_on_c, 0, 70, 50
1, 188880, Note_on_c, 0, 56, 24
1, 188894, Control_c, 0, 64, 0
1, 188940, Note_on_c, 0, 56, 0
1, 188949, Control_c, 0, 64, 127
1, 189000, Note_on_c, 0, 70, 0
1, 189000, Note_on_c, 0, 72, 46
1, 189120, Note_on_c, 0, 72, 0
1, 189120, Note_on_c, 0, 73, 48
1, 189120, Note_on_c, 0, 56, 24
1, 189180, Note_on_c, 0, 56, 0
1, 189240, Note_on_c, 0, 73, 0
1, 189240, Note_on_c, 0, 75, 50
1, 189360, Tempo, 463750
1, 189360, Note_on_c, 0, 75, 0
1, 189360, Note_on_c, 0, 77, 53
1, 189360, Control_c, 0, 64, 0
1, 189360, Note_on_c, 0, 65, 29
1, 189360, Note_on_c, 0, 61, 24
1, 189420, Note_on_c, 0, 61, 0
1, 189420, Note_on_c, 0, 65, 0
1, 189420, Note_on_c, 0, 77, 0
1, 189600, Note_on_c, 0, 77, 45
1, 189600, Note_on_c, 0, 49, 24
1, 189660, Note_on_c, 0, 49, 0
1, 189660, Note_on_c, 0, 77, 0
1, 189840, Tempo, 474608
1, 189840, Note_on_c, 0, 77, 44
1, 189840, Note_on_c, 0, 49, 24
1, 189900, Note_on_c, 0, 49, 0
1, 189900, Note_on_c, 0, 77, 0
1, 190080, Tempo, 485084
1, 190080, Note_on_c, 0, 61, 25
1, 190080, Note_on_c, 0, 65, 30
1, 190080, Control_c, 0, 64, 0
1, 190140, Note_on_c, 0, 65, 0
1, 190140, Note_on_c, 0, 61, 0
1, 190320, Tempo, 491400
1, 190320, Note_on_c, 0, 49, 25
1, 190380, Note_on_c, 0, 49, 0
1, 190560, Tempo, 504498
1, 190560, Note_on_c, 0, 49, 25
1, 190620, Note_on_c, 0, 49, 0
1, 190800, Tempo, 483014
1, 190800, Note_on_c, 0, 61, 25
1, 190803, Note_on_c, 0, 65, 31
1, 190860, Note_on_c, 0, 61, 0
1, 190863, Note_on_c, 0, 65, 0
1, 191040, Tempo, 491400
1, 191040, Note_on_c, 0, 49, 28
1, 191100, Note_on_c, 0, 49, 0
1, 191280, Tempo, 502260
1, 191280, Note_on_c, 0, 49, 28
1, 191340, Note_on_c, 0, 49, 0
1, 191460, Note_on_c, 0, 73, 40
1, 191490, Note_on_c, 0, 77, 40
1, 191520, Tempo, 470995
1, 191520, Note_on_c, 0, 80, 51
1, 191520, Note_on_c, 0, 61, 28
1, 191520, Note_on_c, 0, 65, 33
1, 191580, Note_on_c, 0, 65, 0
1, 191580, Note_on_c, 0, 61, 0
1, 191640, Note_on_c, 0, 73, 0
1, 191640, Note_on_c, 0, 77, 0
1, 191640, Note_on_c, 0, 80, 0
1, 191760, Tempo, 461432
1, 191760, Note_on_c, 0, 78, 40
1, 191760, Note_on_c, 0, 49, 28
1, 191820, Note_on_c, 0, 49, 0
1, 191880, Note_on_c, 0, 78, 0
1, 191880, Note_on_c, 0, 77, 40
1, 192000, Tempo, 476948
1, 192000, Note_on_c, 0, 77, 0
1, 192000, Note_on_c, 0, 75, 40
1, 192000, Note_on_c, 0, 49, 28
1, 192060, Note_on_c, 0, 49, 0
1, 192120, Note_on_c, 0, 75, 0
1, 192120, Note_on_c, 0, 73, 40
1, 192180, Note_on_c, 0, 68, 40
1, 192210, Note_on_c, 0, 72, 40
1, 192240, Tempo, 465224
1, 192240, Note_on_c, 0, 73, 0
1, 192240, Note_on_c, 0, 75, 49
1, 192240, Note_on_c, 0, 61, 28
1, 192240, Note_on_c, 0, 66, 34
1, 192300, Note_on_c, 0, 66, 0
1, 192300, Note_on_c, 0, 61, 0
1, 192360, Note_on_c, 0, 68, 0
1, 192360, Note_on_c, 0, 72, 0
1, 192360, Note_on_c, 0, 75, 0
1, 192480, Tempo, 461432
1, 192480, Note_on_c, 0, 73, 40
1, 192480, Note_on_c, 0, 49, 28
1, 192540, Note_on_c, 0, 49, 0
1, 192600, Note_on_c, 0, 73, 0
1, 192600, Note_on_c, 0, 72, 40
1, 192720, Tempo, 480962
1, 192720, Note_on_c, 0, 72, 0
1, 192720, Note_on_c, 0, 70, 40
1, 192720, Note_on_c, 0, 49, 28
1, 192780, Note_on_c, 0, 49, 0
1, 192840, Note_on_c, 0, 70, 0
1, 192840, Note_on_c, 0, 68, 40
1, 192900, Note_on_c, 0, 73, 40
1, 192930, Note_on_c, 0, 77, 40
1, 192960, Tempo, 487171
1, 192960, Note_on_c, 0, 68, 0
1, 192960, Note_on_c, 0, 80, 53
1, 192960, Note_on_c, 0, 61, 28
1, 192960, Note_on_c, 0, 65, 33
1, 193020, Note_on_c, 0, 65, 0
1, 193020, Note_on_c, 0, 61, 0
1, 193080, Note_on_c, 0, 73, 0
1, 193080, Note_on_c, 0, 77, 0
1, 193080, Note_on_c, 0, 80, 0
1, 193200, Tempo, 461432
1, 193200, Note_on_c, 0, 78, 42
1, 193200, Note_on_c, 0, 49, 28
1, 193260, Note_on_c, 0, 49, 0
1, 193320, Note_on_c, 0, 78, 0
1, 193320, Note_on_c, 0, 77, 45
1, 193440, Note_on_c, 0, 77, 0
1, 193440, Note_on_c, 0, 75, 47
1, 193440, Note_on_c, 0, 49, 33
1, 193500, Note_on_c, 0, 49, 0
1, 193560, Note_on_c, 0, 75, 0
1, 193560, Note_on_c, 0, 73, 51
1, 193680, Tempo, 480962
1, 193680, Note_on_c, 0, 73, 0
1, 193680, Note_on_c, 0, 85, 57
1, 193680, Note_on_c, 0, 81, 57
1, 193680, Note_on_c, 0, 78, 57
1, 193680, Note_on_c, 0, 61, 31
1, 193680, Note_on_c, 0, 66, 38
1, 193720, Tempo, 476948
1, 193740, Note_on_c, 0, 66, 0
1, 193740, Note_on_c, 0, 78, 0
1, 193740, Note_on_c, 0, 85, 0
1, 193740, Note_on_c, 0, 81, 0
1, 193740, Note_on_c, 0, 61, 0
1, 193840, Tempo, 478965
1, 193920, Tempo, 480962
1, 193920, Note_on_c, 0, 78, 51
1, 193920, Note_on_c, 0, 81, 51
1, 193920, Note_on_c, 0, 85, 51
1, 193920, Note_on_c, 0, 49, 28
1, 193980, Note_on_c, 0, 49, 0
1, 193980, Note_on_c, 0, 78, 0
1, 193980, Note_on_c, 0, 81, 0
1, 193980, Note_on_c, 0, 85, 0
1, 194000, Tempo, 483014
1, 194080, Tempo, 485084
1, 194160, Note_on_c, 0, 78, 51
1, 194160, Note_on_c, 0, 81, 51
1, 194160, Note_on_c, 0, 85, 51
1, 194160, Note_on_c, 0, 49, 28
1, 194220, Note_on_c, 0, 49, 0
1, 194220, Note_on_c, 0, 78, 0
1, 194220, Note_on_c, 0, 81, 0
1, 194220, Note_on_c, 0, 85, 0
1, 194400, Tempo, 467108
1, 194400, Note_on_c, 0, 57, 28
1, 194400, Note_on_c, 0, 61, 28
1, 194400, Note_on_c, 0, 66, 33
1, 194460, Note_on_c, 0, 66, 0
1, 194460, Note_on_c, 0, 61, 0
1, 194460, Note_on_c, 0, 57, 0
1, 194640, Tempo, 485084
1, 194640, Note_on_c, 0, 54, 25
1, 194700, Note_on_c, 0, 54, 0
1, 194880, Tempo, 493543
1, 194880, Note_on_c, 0, 54, 25
1, 194940, Note_on_c, 0, 54, 0
1, 195120, Tempo, 465224
1, 195120, Note_on_c, 0, 57, 25
1, 195120, Note_on_c, 0, 61, 25
1, 195120, Note_on_c, 0, 66, 30
1, 195180, Note_on_c, 0, 66, 0
1, 195180, Note_on_c, 0, 61, 0
1, 195180, Note_on_c, 0, 57, 0
1, 195360, Tempo, 485084
1, 195360, Note_on_c, 0, 54, 25
1, 195420, Note_on_c, 0, 54, 0
1, 195600, Tempo, 497843
1, 195600, Note_on_c, 0, 54, 25
1, 195660, Note_on_c, 0, 54, 0
1, 195840, Tempo, 480962
1, 195840, Note_on_c, 0, 73, 53
1, 195840, Note_on_c, 0, 66, 29
1, 195840, Control_c, 0, 64, 0
1, 195840, Note_on_c, 0, 57, 24
1, 195840, Note_on_c, 0, 61, 24
1, 195900, Note_on_c, 0, 61, 0
1, 195900, Note_on_c, 0, 57, 0
1, 195900, Note_on_c, 0, 66, 0
1, 196020, Tempo, 434909
1, 196020, Note_on_c, 0, 76, 38
1, 196080, Tempo, 472962
1, 196080, Note_on_c, 0, 76, 0
1, 196080, Note_on_c, 0, 73, 0
1, 196080, Note_on_c, 0, 74, 45
1, 196080, Note_on_c, 0, 54, 24
1, 196103, Control_c, 0, 64, 127
1, 196140, Note_on_c, 0, 54, 0
1, 196320, Note_on_c, 0, 74, 0
1, 196320, Note_on_c, 0, 73, 45
1, 196320, Note_on_c, 0, 54, 24
1, 196380, Note_on_c, 0, 54, 0
1, 196560, Tempo, 461432
1, 196560, Note_on_c, 0, 73, 0
1, 196560, Note_on_c, 0, 71, 52
1, 196560, Control_c, 0, 64, 0
1, 196560, Note_on_c, 0, 62, 25
1, 196560, Note_on_c, 0, 66, 30
1, 196606, Control_c, 0, 64, 127
1, 196620, Note_on_c, 0, 66, 0
1, 196620, Note_on_c, 0, 62, 0
1, 196800, Tempo, 457701
1, 196800, Note_on_c, 0, 71, 0
1, 196800, Note_on_c, 0, 73, 45
1, 196800, Note_on_c, 0, 50, 24
1, 196808, Control_c, 0, 64, 0
1, 196834, Control_c, 0, 64, 127
1, 196860, Note_on_c, 0, 50, 0
1, 196920, Note_on_c, 0, 73, 0
1, 196920, Note_on_c, 0, 74, 45
1, 197040, Note_on_c, 0, 74, 0
1, 197040, Note_on_c, 0, 76, 47
1, 197040, Note_on_c, 0, 50, 24
1, 197100, Note_on_c, 0, 50, 0
1, 197160, Note_on_c, 0, 76, 0
1, 197160, Note_on_c, 0, 78, 48
1, 197280, Tempo, 463320
1, 197280, Note_on_c, 0, 78, 0
1, 197280, Note_on_c, 0, 80, 52
1, 197280, Control_c, 0, 64, 0
1, 197280, Note_on_c, 0, 62, 24
1, 197280, Note_on_c, 0, 64, 29
1, 197320, Control_c, 0, 64, 127
1, 197340, Note_on_c, 0, 64, 0
1, 197340, Note_on_c, 0, 62, 0
1, 197520, Tempo, 457701
1, 197520, Note_on_c, 0, 80, 0
1, 197520, Note_on_c, 0, 78, 53
1, 197520, Note_on_c, 0, 52, 24
1, 197534, Control_c, 0, 64, 0
1, 197577, Control_c, 0, 64, 127
1, 197580, Note_on_c, 0, 52, 0
1, 197640, Note_on_c, 0, 78, 0
1, 197640, Note_on_c, 0, 80, 43
1, 197760, Tempo, 469043
1, 197760, Note_on_c, 0, 80, 0
1, 197760, Note_on_c, 0, 81, 46
1, 197760, Note_on_c, 0, 52, 24
1, 197820, Note_on_c, 0, 52, 0
1, 197880, Note_on_c, 0, 81, 0
1, 197880, Note_on_c, 0, 83, 49
1, 198000, Tempo, 463750
1, 198000, Note_on_c, 0, 83, 0
1, 198000, Note_on_c, 0, 85, 52
1, 198000, Control_c, 0, 64, 0
1, 198000, Note_on_c, 0, 64, 29
1, 198000, Note_on_c, 0, 61, 24
1, 198060, Note_on_c, 0, 61, 0
1, 198060, Note_on_c, 0, 64, 0
1, 198060, Note_on_c, 0, 85, 0
1, 198240, Note_on_c, 0, 85, 49
1, 198240, Note_on_c, 0, 57, 24
1, 198300, Note_on_c, 0, 57, 0
1, 198300, Note_on_c, 0, 85, 0
1, 198480, Tempo, 474608
1, 198480, Note_on_c, 0, 85, 48
1, 198480, Note_on_c, 0, 57, 24
1, 198540, Note_on_c, 0, 57, 0
1, 198540, Note_on_c, 0, 85, 0
1, 198720, Tempo, 485084
1, 198720, Note_on_c, 0, 61, 25
1, 198720, Note_on_c, 0, 64, 30
1, 198780, Note_on_c, 0, 64, 0
1, 198780, Note_on_c, 0, 61, 0
1, 198960, Note_on_c, 0, 57, 25
1, 199020, Note_on_c, 0, 57, 0
1, 199200, Tempo, 504498
1, 199200, Note_on_c, 0, 57, 26
1, 199260, Note_on_c, 0, 57, 0
1, 199440, Tempo, 472962
1, 199440, Note_on_c, 0, 73, 53
1, 199440, Note_on_c, 0, 64, 29
1, 199440, Control_c, 0, 64, 0
1, 199440, Note_on_c, 0, 61, 24
1, 199500, Note_on_c, 0, 61, 0
1, 199500, Note_on_c, 0, 64, 0
1, 199500, Note_on_c, 0, 73, 0
1, 199680, Note_on_c, 0, 73, 45
1, 199680, Note_on_c, 0, 57, 24
1, 199740, Note_on_c, 0, 57, 0
1, 199740, Note_on_c, 0, 73, 0
1, 199920, Note_on_c, 0, 73, 45
1, 199920, Note_on_c, 0, 57, 24
1, 199980, Note_on_c, 0, 57, 0
1, 199980, Note_on_c, 0, 73, 0
1, 200160, Tempo, 461432
1, 200160, Note_on_c, 0, 73, 52
1, 200160, Control_c, 0, 64, 0
1, 200160, Note_on_c, 0, 61, 25
1, 200160, Note_on_c, 0, 64, 30
1, 200206, Control_c, 0, 64, 127
1, 200220, Note_on_c, 0, 64, 0
1, 200220, Note_on_c, 0, 61, 0
1, 200400, Tempo, 461432
1, 200400, Note_on_c, 0, 73, 0
1, 200400, Note_on_c, 0, 76, 45
1, 200400, Note_on_c, 0, 58, 24
1, 200414, Control_c, 0, 64, 0
1, 200460, Note_on_c, 0, 58, 0
1, 200469, Control_c, 0, 64, 127
1, 200520, Note_on_c, 0, 76, 0
1, 200520, Note_on_c, 0, 74, 45
1, 200640, Note_on_c, 0, 74, 0
1, 200640, Note_on_c, 0, 73, 47
1, 200640, Note_on_c, 0, 58, 24
1, 200700, Note_on_c, 0, 58, 0
1, 200760, Note_on_c, 0, 73, 0
1, 200760, Note_on_c, 0, 76, 48
1, 200880, Tempo, 467108
1, 200880, Note_on_c, 0, 76, 0
1, 200880, Note_on_c, 0, 74, 52
1, 200880, Control_c, 0, 64, 0
1, 200880, Note_on_c, 0, 62, 24
1, 200880, Note_on_c, 0, 64, 29
1, 200940, Note_on_c, 0, 64, 0
1, 200940, Note_on_c, 0, 62, 0
1, 200940, Note_on_c, 0, 74, 0
1, 201120, Tempo, 459559
1, 201120, Note_on_c, 0, 74, 52
1, 201120, Note_on_c, 0, 59, 24
1, 201180, Note_on_c, 0, 59, 0
1, 201180, Note_on_c, 0, 74, 0
1, 201360, Tempo, 480962
1, 201360, Note_on_c, 0, 74, 51
1, 201360, Note_on_c, 0, 59, 24
1, 201420, Note_on_c, 0, 59, 0
1, 201420, Note_on_c, 0, 74, 0
1, 201600, Tempo, 474947
1, 201600, Note_on_c, 0, 86, 52
1, 201600, Note_on_c, 0, 64, 29
1, 201600, Note_on_c, 0, 62, 24
1, 201660, Note_on_c, 0, 62, 0
1, 201660, Note_on_c, 0, 64, 0
1, 201660, Note_on_c, 0, 86, 0
1, 201840, Note_on_c, 0, 86, 49
1, 201840, Note_on_c, 0, 59, 24
1, 201900, Note_on_c, 0, 59, 0
1, 201900, Note_on_c, 0, 86, 0
1, 202080, Tempo, 474608
1, 202080, Note_on_c, 0, 86, 48
1, 202080, Note_on_c, 0, 59, 24
1, 202140, Note_on_c, 0, 59, 0
1, 202140, Note_on_c, 0, 86, 0
1, 202320, Tempo, 485084
1, 202320, Note_on_c, 0, 62, 22
1, 202320, Note_on_c, 0, 64, 25
1, 202380, Note_on_c, 0, 64, 0
1, 202380, Note_on_c, 0, 62, 0
1, 202560, Note_on_c, 0, 59, 22
1, 202620, Note_on_c, 0, 59, 0
1, 202800, Tempo, 504498
1, 202800, Note_on_c, 0, 59, 22
1, 202860, Note_on_c, 0, 59, 0
1, 203040, Tempo, 472962
1, 203040, Note_on_c, 0, 74, 53
1, 203040, Note_on_c, 0, 64, 29
1, 203040, Control_c, 0, 64, 0
1, 203040, Note_on_c, 0, 62, 24
1, 203100, Note_on_c, 0, 62, 0
1, 203100, Note_on_c, 0, 64, 0
1, 203100, Note_on_c, 0, 74, 0
1, 203280, Note_on_c, 0, 74, 45
1, 203280, Note_on_c, 0, 59, 24
1, 203340, Note_on_c, 0, 59, 0
1, 203340, Note_on_c, 0, 74, 0
1, 203520, Note_on_c, 0, 74, 45
1, 203520, Note_on_c, 0, 59, 24
1, 203580, Note_on_c, 0, 59, 0
1, 203580, Note_on_c, 0, 74, 0
1, 203760, Tempo, 461432
1, 203760, Note_on_c, 0, 74, 52
1, 203760, Control_c, 0, 64, 0
1, 203760, Note_on_c, 0, 62, 25
1, 203760, Note_on_c, 0, 65, 30
1, 203806, Control_c, 0, 64, 127
1, 203820, Note_on_c, 0, 65, 0
1, 203820, Note_on_c, 0, 62, 0
1, 204000, Tempo, 457701
1, 204000, Note_on_c, 0, 74, 0
1, 204000, Note_on_c, 0, 77, 45
1, 204000, Note_on_c, 0, 59, 24
1, 204019, Control_c, 0, 64, 0
1, 204057, Control_c, 0, 64, 127
1, 204060, Note_on_c, 0, 59, 0
1, 204120, Note_on_c, 0, 77, 0
1, 204120, Note_on_c, 0, 76, 45
1, 204240, Note_on_c, 0, 76, 0
1, 204240, Note_on_c, 0, 74, 47
1, 204240, Note_on_c, 0, 59, 24
1, 204300, Note_on_c, 0, 59, 0
1, 204360, Note_on_c, 0, 74, 0
1, 204360, Note_on_c, 0, 77, 48
1, 204480, Tempo, 469043
1, 204480, Note_on_c, 0, 77, 0
1, 204480, Note_on_c, 0, 74, 52
1, 204480, Control_c, 0, 64, 0
1, 204480, Note_on_c, 0, 62, 24
1, 204480, Note_on_c, 0, 65, 29
1, 204540, Note_on_c, 0, 65, 0
1, 204540, Note_on_c, 0, 62, 0
1, 204540, Note_on_c, 0, 74, 0
1, 204720, Tempo, 455858
1, 204720, Note_on_c, 0, 74, 52
1, 204720, Note_on_c, 0, 59, 24
1, 204780, Note_on_c, 0, 59, 0
1, 204780, Note_on_c, 0, 74, 0
1, 204960, Tempo, 502260
1, 204960, Note_on_c, 0, 74, 52
1, 204960, Note_on_c, 0, 59, 24
1, 205020, Note_on_c, 0, 59, 0
1, 205020, Note_on_c, 0, 74, 0
1, 205200, Tempo, 483014
1, 205200, Note_on_c, 0, 86, 52
1, 205200, Note_on_c, 0, 65, 29
1, 205200, Note_on_c, 0, 62, 24
1, 205260, Note_on_c, 0, 62, 0
1, 205260, Note_on_c, 0, 65, 0
1, 205260, Note_on_c, 0, 86, 0
1, 205440, Tempo, 491400
1, 205440, Note_on_c, 0, 86, 49
1, 205440, Note_on_c, 0, 59, 24
1, 205500, Note_on_c, 0, 59, 0
1, 205500, Note_on_c, 0, 86, 0
1, 205680, Tempo, 502260
1, 205680, Note_on_c, 0, 86, 48
1, 205680, Note_on_c, 0, 59, 24
1, 205740, Note_on_c, 0, 59, 0
1, 205740, Note_on_c, 0, 86, 0
1, 205920, Tempo, 467108
1, 205920, Note_on_c, 0, 74, 56
1, 205920, Note_on_c, 0, 59, 26
1, 205920, Note_on_c, 0, 62, 32
1, 205960, Control_c, 0, 64, 127
1, 206040, Note_on_c, 0, 62, 0
1, 206040, Note_on_c, 0, 59, 0
1, 206040, Note_on_c, 0, 65, 26
1, 206160, Note_on_c, 0, 65, 0
1, 206160, Note_on_c, 0, 74, 0
1, 206160, Note_on_c, 0, 73, 52
1, 206160, Note_on_c, 0, 62, 28
1, 206160, Note_on_c, 0, 59, 22
1, 206169, Control_c, 0, 64, 0
1, 206223, Control_c, 0, 64, 127
1, 206280, Note_on_c, 0, 59, 0
1, 206280, Note_on_c, 0, 62, 0
1, 206280, Note_on_c, 0, 65, 26
1, 206400, Tempo, 478965
1, 206400, Note_on_c, 0, 65, 0
1, 206400, Note_on_c, 0, 73, 0
1, 206400, Note_on_c, 0, 74, 52
1, 206400, Note_on_c, 0, 62, 28
1, 206400, Note_on_c, 0, 59, 22
1, 206406, Control_c, 0, 64, 0
1, 206446, Control_c, 0, 64, 127
1, 206520, Note_on_c, 0, 59, 0
1, 206520, Note_on_c, 0, 62, 0
1, 206520, Note_on_c, 0, 65, 26
1, 206640, Tempo, 465224
1, 206640, Note_on_c, 0, 65, 0
1, 206640, Note_on_c, 0, 74, 0
1, 206640, Note_on_c, 0, 86, 56
1, 206640, Control_c, 0, 64, 0
1, 206640, Note_on_c, 0, 58, 26
1, 206640, Note_on_c, 0, 62, 32
1, 206680, Control_c, 0, 64, 127
1, 206760, Note_on_c, 0, 62, 0
1, 206760, Note_on_c, 0, 58, 0
1, 206760, Note_on_c, 0, 65, 26
1, 206880, Note_on_c, 0, 65, 0
1, 206880, Note_on_c, 0, 86, 0
1, 206880, Note_on_c, 0, 85, 52
1, 206880, Note_on_c, 0, 62, 28
1, 206880, Note_on_c, 0, 58, 22
1, 206886, Control_c, 0, 64, 0
1, 206944, Control_c, 0, 64, 127
1, 207000, Note_on_c, 0, 58, 0
1, 207000, Note_on_c, 0, 62, 0
1, 207000, Note_on_c, 0, 65, 26
1, 207120, Tempo, 478965
1, 207120, Note_on_c, 0, 65, 0
1, 207120, Note_on_c, 0, 85, 0
1, 207120, Note_on_c, 0, 86, 52
1, 207120, Note_on_c, 0, 62, 28
1, 207120, Note_on_c, 0, 58, 22
1, 207129, Control_c, 0, 64, 0
1, 207184, Control_c, 0, 64, 127
1, 207240, Note_on_c, 0, 58, 0
1, 207240, Note_on_c, 0, 62, 0
1, 207240, Note_on_c, 0, 65, 26
1, 207360, Tempo, 461787
1, 207360, Note_on_c, 0, 65, 0
1, 207360, Note_on_c, 0, 86, 0
1, 207360, Note_on_c, 0, 82, 54
1, 207360, Control_c, 0, 64, 0
1, 207360, Note_on_c, 0, 58, 31
1, 207360, Note_on_c, 0, 62, 38
1, 207431, Control_c, 0, 64, 127
1, 207480, Note_on_c, 0, 62, 0
1, 207480, Note_on_c, 0, 58, 0
1, 207480, Note_on_c, 0, 65, 25
1, 207600, Note_on_c, 0, 65, 0
1, 207600, Note_on_c, 0, 82, 0
1, 207600, Note_on_c, 0, 81, 47
1, 207600, Note_on_c, 0, 58, 24
1, 207600, Note_on_c, 0, 62, 29
1, 207619, Control_c, 0, 64, 0
1, 207671, Control_c, 0, 64, 127
1, 207720, Note_on_c, 0, 62, 0
1, 207720, Note_on_c, 0, 58, 0
1, 207720, Note_on_c, 0, 65, 24
1, 207840, Note_on_c, 0, 65, 0
1, 207840, Note_on_c, 0, 81, 0
1, 207840, Note_on_c, 0, 82, 48
1, 207840, Note_on_c, 0, 58, 24
1, 207840, Note_on_c, 0, 62, 29
1, 207847, Control_c, 0, 64, 0
1, 207875, Control_c, 0, 64, 127
1, 207960, Note_on_c, 0, 62, 0
1, 207960, Note_on_c, 0, 58, 0
1, 207960, Note_on_c, 0, 65, 25
1, 208080, Tempo, 456274
1, 208080, Note_on_c, 0, 65, 0
1, 208080, Note_on_c, 0, 82, 0
1, 208080, Note_on_c, 0, 79, 51
1, 208080, Control_c, 0, 64, 0
1, 208080, Note_on_c, 0, 58, 29
1, 208080, Note_on_c, 0, 63, 34
1, 208129, Control_c, 0, 64, 127
1, 208200, Note_on_c, 0, 63, 0
1, 208200, Note_on_c, 0, 58, 0
1, 208200, Note_on_c, 0, 67, 26
1, 208320, Tempo, 452625
1, 208320, Note_on_c, 0, 67, 0
1, 208320, Note_on_c, 0, 79, 0
1, 208320, Note_on_c, 0, 81, 48
1, 208320, Note_on_c, 0, 58, 25
1, 208320, Note_on_c, 0, 63, 30
1, 208334, Control_c, 0, 64, 0
1, 208419, Control_c, 0, 64, 127
1, 208440, Note_on_c, 0, 63, 0
1, 208440, Note_on_c, 0, 58, 0
1, 208440, Note_on_c, 0, 81, 0
1, 208440, Note_on_c, 0, 82, 49
1, 208440, Note_on_c, 0, 67, 25
1, 208560, Note_on_c, 0, 67, 0
1, 208560, Note_on_c, 0, 82, 0
1, 208560, Note_on_c, 0, 84, 51
1, 208560, Note_on_c, 0, 58, 25
1, 208560, Note_on_c, 0, 63, 30
1, 208680, Note_on_c, 0, 63, 0
1, 208680, Note_on_c, 0, 58, 0
1, 208680, Note_on_c, 0, 84, 0
1, 208680, Note_on_c, 0, 86, 52
1, 208680, Note_on_c, 0, 67, 25
1, 208800, Tempo, 462999
1, 208800, Note_on_c, 0, 67, 0
1, 208800, Note_on_c, 0, 86, 0
1, 208800, Note_on_c, 0, 82, 57
1, 208800, Control_c, 0, 64, 0
1, 208800, Note_on_c, 0, 58, 35
1, 208800, Note_on_c, 0, 62, 43
1, 208849, Control_c, 0, 64, 127
1, 208920, Note_on_c, 0, 62, 0
1, 208920, Note_on_c, 0, 58, 0
1, 208920, Note_on_c, 0, 65, 28
1, 209040, Tempo, 457457
1, 209040, Note_on_c, 0, 65, 0
1, 209040, Note_on_c, 0, 82, 0
1, 209040, Note_on_c, 0, 84, 58
1, 209040, Note_on_c, 0, 62, 31
1, 209040, Note_on_c, 0, 58, 25
1, 209043, Control_c, 0, 64, 0
1, 209089, Control_c, 0, 64, 127
1, 209160, Note_on_c, 0, 58, 0
1, 209160, Note_on_c, 0, 62, 0
1, 209160, Note_on_c, 0, 84, 0
1, 209160, Note_on_c, 0, 82, 51
1, 209160, Note_on_c, 0, 65, 26
1, 209280, Note_on_c, 0, 65, 0
1, 209280, Note_on_c, 0, 82, 0
1, 209280, Note_on_c, 0, 81, 56
1, 209280, Note_on_c, 0, 58, 26
1, 209280, Note_on_c, 0, 62, 32
1, 209400, Note_on_c, 0, 62, 0
1, 209400, Note_on_c, 0, 58, 0
1, 209400, Note_on_c, 0, 81, 0
1, 209400, Note_on_c, 0, 79, 51
1, 209400, Note_on_c, 0, 65, 26
1, 209520, Tempo, 468713
1, 209520, Note_on_c, 0, 65, 0
1, 209520, Note_on_c, 0, 79, 0
1, 209520, Note_on_c, 0, 77, 61
1, 209520, Note_on_c, 0, 57, 32
1, 209520, Note_on_c, 0, 63, 39
1, 209548, Control_c, 0, 64, 0
1, 209580, Note_on_c, 0, 77, 0
1, 209640, Note_on_c, 0, 63, 0
1, 209640, Note_on_c, 0, 57, 0
1, 209640, Note_on_c, 0, 65, 28
1, 209760, Note_on_c, 0, 65, 0
1, 209760, Note_on_c, 0, 77, 56
1, 209760, Note_on_c, 0, 57, 26
1, 209760, Note_on_c, 0, 63, 32
1, 209820, Note_on_c, 0, 77, 0
1, 209880, Note_on_c, 0, 63, 0
1, 209880, Note_on_c, 0, 57, 0
1, 209880, Note_on_c, 0, 65, 29
1, 210000, Tempo, 479693
1, 210000, Note_on_c, 0, 65, 0
1, 210000, Note_on_c, 0, 77, 56
1, 210000, Note_on_c, 0, 57, 28
1, 210000, Note_on_c, 0, 63, 33
1, 210060, Note_on_c, 0, 77, 0
1, 210120, Note_on_c, 0, 63, 0
1, 210120, Note_on_c, 0, 57, 0
1, 210120, Note_on_c, 0, 65, 28
1, 210240, Tempo, 468640
1, 210240, Note_on_c, 0, 65, 0
1, 210240, Note_on_c, 0, 78, 69
1, 210240, Note_on_c, 0, 57, 35
1, 210240, Note_on_c, 0, 63, 42
1, 210309, Control_c, 0, 64, 127
1, 210360, Note_on_c, 0, 63, 0
1, 210360, Note_on_c, 0, 57, 0
1, 210360, Note_on_c, 0, 66, 29
1, 210480, Note_on_c, 0, 66, 0
1, 210480, Note_on_c, 0, 78, 0
1, 210480, Note_on_c, 0, 90, 66
1, 210480, Note_on_c, 0, 57, 28
1, 210480, Note_on_c, 0, 63, 34
1, 210600, Note_on_c, 0, 63, 0
1, 210600, Note_on_c, 0, 57, 0
1, 210600, Note_on_c, 0, 66, 29
1, 210720, Tempo, 477783
1, 210720, Note_on_c, 0, 66, 0
1, 210720, Note_on_c, 0, 90, 0
1, 210720, Note_on_c, 0, 90, 67
1, 210720, Note_on_c, 0, 57, 28
1, 210720, Note_on_c, 0, 63, 34
1, 210727, Control_c, 0, 64, 0
1, 210780, Note_on_c, 0, 90, 0
1, 210840, Note_on_c, 0, 63, 0
1, 210840, Note_on_c, 0, 57, 0
1, 210840, Note_on_c, 0, 66, 30
1, 210960, Tempo, 468640
1, 210960, Note_on_c, 0, 66, 0
1, 210960, Note_on_c, 0, 91, 76
1, 210960, Note_on_c, 0, 58, 34
1, 210960, Note_on_c, 0, 63, 40
1, 211080, Note_on_c, 0, 63, 0
1, 211080, Note_on_c, 0, 58, 0
1, 211080, Note_on_c, 0, 67, 30
1, 211087, Control_c, 0, 64, 127
1, 211200, Note_on_c, 0, 67, 0
1, 211200, Note_on_c, 0, 91, 0
1, 211200, Note_on_c, 0, 79, 61
1, 211200, Note_on_c, 0, 58, 29
1, 211200, Note_on_c, 0, 63, 34
1, 211320, Note_on_c, 0, 63, 0
1, 211320, Note_on_c, 0, 58, 0
1, 211320, Note_on_c, 0, 67, 30
1, 211440, Note_on_c, 0, 67, 0
1, 211440, Note_on_c, 0, 79, 0
1, 211440, Note_on_c, 0, 79, 61
1, 211440, Note_on_c, 0, 58, 29
1, 211440, Note_on_c, 0, 63, 34
1, 211444, Control_c, 0, 64, 0
1, 211500, Note_on_c, 0, 79, 0
1, 211560, Note_on_c, 0, 63, 0
1, 211560, Note_on_c, 0, 58, 0
1, 211560, Note_on_c, 0, 67, 30
1, 211680, Note_on_c, 0, 67, 0
1, 211680, Note_on_c, 0, 81, 65
1, 211680, Note_on_c, 0, 60, 35
1, 211680, Note_on_c, 0, 63, 42
1, 211740, Note_on_c, 0, 81, 0
1, 211768, Control_c, 0, 64, 127
1, 211800, Note_on_c, 0, 63, 0
1, 211800, Note_on_c, 0, 60, 0
1, 211800, Note_on_c, 0, 67, 31
1, 211890, Note_on_c, 0, 94, 62
1, 211920, Tempo, 457457
1, 211920, Note_on_c, 0, 94, 0
1, 211920, Note_on_c, 0, 67, 0
1, 211920, Note_on_c, 0, 93, 65
1, 211920, Note_on_c, 0, 60, 30
1, 211920, Note_on_c, 0, 63, 35
1, 212040, Note_on_c, 0, 63, 0
1, 212040, Note_on_c, 0, 60, 0
1, 212040, Note_on_c, 0, 93, 0
1, 212040, Note_on_c, 0, 91, 62
1, 212040, Note_on_c, 0, 67, 31
1, 212160, Tempo, 462999
1, 212160, Note_on_c, 0, 67, 0
1, 212160, Note_on_c, 0, 91, 0
1, 212160, Note_on_c, 0, 93, 66
1, 212160, Note_on_c, 0, 60, 31
1, 212160, Note_on_c, 0, 63, 37
1, 212280, Note_on_c, 0, 63, 0
1, 212280, Note_on_c, 0, 60, 0
1, 212280, Note_on_c, 0, 67, 32
1, 212400, Note_on_c, 0, 67, 0
1, 212400, Note_on_c, 0, 93, 0
1, 212400, Note_on_c, 0, 94, 68
1, 212400, Control_c, 0, 64, 0
1, 212400, Note_on_c, 0, 55, 35
1, 212400, Note_on_c, 0, 62, 43
1, 212460, Note_on_c, 0, 94, 0
1, 212520, Note_on_c, 0, 62, 0
1, 212520, Note_on_c, 0, 55, 0
1, 212520, Note_on_c, 0, 67, 32
1, 212534, Control_c, 0, 64, 127
1, 212610, Note_on_c, 0, 84, 61
1, 212640, Tempo, 457457
1, 212640, Note_on_c, 0, 84, 0
1, 212640, Note_on_c, 0, 67, 0
1, 212640, Note_on_c, 0, 82, 63
1, 212640, Note_on_c, 0, 55, 31
1, 212640, Note_on_c, 0, 62, 37
1, 212760, Note_on_c, 0, 62, 0
1, 212760, Note_on_c, 0, 55, 0
1, 212760, Note_on_c, 0, 82, 0
1, 212760, Note_on_c, 0, 81, 60
1, 212760, Note_on_c, 0, 67, 32
1, 212880, Tempo, 489317
1, 212880, Note_on_c, 0, 67, 0
1, 212880, Note_on_c, 0, 81, 0
1, 212880, Note_on_c, 0, 82, 65
1, 212880, Note_on_c, 0, 55, 31
1, 212880, Note_on_c, 0, 62, 37
1, 213000, Note_on_c, 0, 62, 0
1, 213000, Note_on_c, 0, 55, 0
1, 213000, Note_on_c, 0, 82, 0
1, 213000, Note_on_c, 0, 67, 33
1, 213120, Tempo, 470404
1, 213120, Note_on_c, 0, 67, 0
1, 213120, Note_on_c, 0, 75, 44
1, 213120, Note_on_c, 0, 79, 52
1, 213120, Control_c, 0, 64, 0
1, 213120, Note_on_c, 0, 63, 62
1, 213240, Note_on_c, 0, 79, 0
1, 213240, Note_on_c, 0, 75, 0
1, 213240, Note_on_c, 0, 82, 46
1, 213360, Note_on_c, 0, 82, 0
1, 213360, Note_on_c, 0, 63, 0
1, 213360, Note_on_c, 0, 75, 45
1, 213360, Note_on_c, 0, 79, 53
1, 213360, Note_on_c, 0, 62, 52
1, 213480, Note_on_c, 0, 79, 0
1, 213480, Note_on_c, 0, 75, 0
1, 213480, Note_on_c, 0, 82, 45
1, 213600, Note_on_c, 0, 82, 0
1, 213600, Note_on_c, 0, 62, 0
1, 213600, Note_on_c, 0, 75, 45
1, 213600, Note_on_c, 0, 79, 53
1, 213600, Note_on_c, 0, 63, 52
1, 213720, Note_on_c, 0, 79, 0
1, 213720, Note_on_c, 0, 75, 0
1, 213720, Note_on_c, 0, 82, 46
1, 213840, Tempo, 461113
1, 213840, Note_on_c, 0, 82, 0
1, 213840, Note_on_c, 0, 63, 0
1, 213840, Note_on_c, 0, 75, 46
1, 213840, Note_on_c, 0, 79, 54
1, 213840, Note_on_c, 0, 60, 62
1, 213960, Note_on_c, 0, 79, 0
1, 213960, Note_on_c, 0, 75, 0
1, 213960, Note_on_c, 0, 84, 46
1, 214080, Tempo, 457457
1, 214080, Note_on_c, 0, 84, 0
1, 214080, Note_on_c, 0, 60, 0
1, 214080, Note_on_c, 0, 75, 45
1, 214080, Note_on_c, 0, 79, 53
1, 214080, Note_on_c, 0, 62, 50
1, 214200, Note_on_c, 0, 62, 0
1, 214200, Note_on_c, 0, 79, 0
1, 214200, Note_on_c, 0, 75, 0
1, 214200, Note_on_c, 0, 84, 45
1, 214200, Note_on_c, 0, 63, 50
1, 214320, Note_on_c, 0, 63, 0
1, 214320, Note_on_c, 0, 84, 0
1, 214320, Note_on_c, 0, 75, 45
1, 214320, Note_on_c, 0, 79, 53
1, 214320, Note_on_c, 0, 65, 52
1, 214440, Note_on_c, 0, 65, 0
1, 214440, Note_on_c, 0, 79, 0
1, 214440, Note_on_c, 0, 75, 0
1, 214440, Note_on_c, 0, 84, 45
1, 214440, Note_on_c, 0, 67, 52
1, 214560, Tempo, 462999
1, 214560, Note_on_c, 0, 67, 0
1, 214560, Note_on_c, 0, 84, 0
1, 214560, Note_on_c, 0, 75, 48
1, 214560, Note_on_c, 0, 79, 57
1, 214560, Note_on_c, 0, 63, 60
1, 214680, Note_on_c, 0, 79, 0
1, 214680, Note_on_c, 0, 75, 0
1, 214680, Note_on_c, 0, 82, 46
1, 214800, Tempo, 457457
1, 214800, Note_on_c, 0, 82, 0
1, 214800, Note_on_c, 0, 63, 0
1, 214800, Note_on_c, 0, 79, 53
1, 214800, Note_on_c, 0, 75, 45
1, 214800, Note_on_c, 0, 65, 57
1, 214920, Note_on_c, 0, 65, 0
1, 214920, Note_on_c, 0, 75, 0
1, 214920, Note_on_c, 0, 79, 0
1, 214920, Note_on_c, 0, 82, 45
1, 214920, Note_on_c, 0, 63, 52
1, 215040, Note_on_c, 0, 63, 0
1, 215040, Note_on_c, 0, 82, 0
1, 215040, Note_on_c, 0, 75, 45
1, 215040, Note_on_c, 0, 79, 53
1, 215040, Note_on_c, 0, 62, 57
1, 215160, Note_on_c, 0, 62, 0
1, 215160, Note_on_c, 0, 79, 0
1, 215160, Note_on_c, 0, 75, 0
1, 215160, Note_on_c, 0, 82, 45
1, 215160, Note_on_c, 0, 60, 52
1, 215240, Tempo, 469043
1, 215280, Note_on_c, 0, 60, 0
1, 215280, Note_on_c, 0, 82, 0
1, 215280, Note_on_c, 0, 74, 51
1, 215280, Note_on_c, 0, 80, 61
1, 215280, Note_on_c, 0, 58, 61
1, 215340, Note_on_c, 0, 58, 0
1, 215360, Tempo, 470995
1, 215400, Note_on_c, 0, 80, 0
1, 215400, Note_on_c, 0, 74, 0
1, 215400, Note_on_c, 0, 82, 46
1, 215440, Tempo, 472962
1, 215520, Tempo, 474947
1, 215520, Note_on_c, 0, 82, 0
1, 215520, Note_on_c, 0, 74, 45
1, 215520, Note_on_c, 0, 80, 53
1, 215520, Note_on_c, 0, 58, 52
1, 215580, Note_on_c, 0, 58, 0
1, 215600, Tempo, 476948
1, 215640, Note_on_c, 0, 80, 0
1, 215640, Note_on_c, 0, 74, 0
1, 215640, Note_on_c, 0, 82, 48
1, 215680, Tempo, 478965
1, 215760, Tempo, 480962
1, 215760, Note_on_c, 0, 82, 0
1, 215760, Note_on_c, 0, 74, 45
1, 215760, Note_on_c, 0, 80, 53
1, 215760, Note_on_c, 0, 58, 52
1, 215820, Note_on_c, 0, 58, 0
1, 215880, Note_on_c, 0, 80, 0
1, 215880, Note_on_c, 0, 74, 0
1, 215880, Note_on_c, 0, 82, 46
1, 216000, Tempo, 468640
1, 216000, Note_on_c, 0, 82, 0
1, 216000, Note_on_c, 0, 74, 49
1, 216000, Note_on_c, 0, 80, 58
1, 216000, Note_on_c, 0, 59, 60
1, 216120, Note_on_c, 0, 80, 0
1, 216120, Note_on_c, 0, 74, 0
1, 216120, Note_on_c, 0, 86, 46
1, 216240, Note_on_c, 0, 86, 0
1, 216240, Note_on_c, 0, 59, 0
1, 216240, Note_on_c, 0, 74, 45
1, 216240, Note_on_c, 0, 80, 53
1, 216240, Note_on_c, 0, 71, 50
1, 216360, Note_on_c, 0, 80, 0
1, 216360, Note_on_c, 0, 74, 0
1, 216360, Note_on_c, 0, 86, 46
1, 216480, Tempo, 479693
1, 216480, Note_on_c, 0, 86, 0
1, 216480, Note_on_c, 0, 71, 0
1, 216480, Note_on_c, 0, 74, 45
1, 216480, Note_on_c, 0, 80, 53
1, 216480, Note_on_c, 0, 71, 53
1, 216600, Note_on_c, 0, 71, 0
1, 216600, Note_on_c, 0, 80, 0
1, 216600, Note_on_c, 0, 74, 0
1, 216600, Note_on_c, 0, 86, 46
1, 216720, Tempo, 468640
1, 216720, Note_on_c, 0, 86, 0
1, 216720, Note_on_c, 0, 75, 48
1, 216720, Note_on_c, 0, 80, 57
1, 216720, Note_on_c, 0, 72, 62
1, 216840, Note_on_c, 0, 80, 0
1, 216840, Note_on_c, 0, 75, 0
1, 216840, Note_on_c, 0, 87, 46
1, 216960, Note_on_c, 0, 87, 0
1, 216960, Note_on_c, 0, 72, 0
1, 216960, Note_on_c, 0, 75, 45
1, 216960, Note_on_c, 0, 80, 53
1, 216960, Note_on_c, 0, 60, 58
1, 217080, Note_on_c, 0, 80, 0
1, 217080, Note_on_c, 0, 75, 0
1, 217080, Note_on_c, 0, 87, 46
1, 217200, Note_on_c, 0, 87, 0
1, 217200, Note_on_c, 0, 60, 0
1, 217200, Note_on_c, 0, 75, 45
1, 217200, Note_on_c, 0, 80, 53
1, 217200, Note_on_c, 0, 60, 60
1, 217320, Note_on_c, 0, 60, 0
1, 217320, Note_on_c, 0, 80, 0
1, 217320, Note_on_c, 0, 75, 0
1, 217320, Note_on_c, 0, 86, 46
1, 217440, Note_on_c, 0, 86, 0
1, 217440, Note_on_c, 0, 75, 45
1, 217440, Note_on_c, 0, 81, 53
1, 217440, Note_on_c, 0, 65, 66
1, 217500, Note_on_c, 0, 65, 0
1, 217560, Note_on_c, 0, 81, 0
1, 217560, Note_on_c, 0, 75, 0
1, 217560, Note_on_c, 0, 84, 46
1, 217620, Note_on_c, 0, 55, 58
1, 217680, Tempo, 457457
1, 217680, Note_on_c, 0, 84, 0
1, 217680, Note_on_c, 0, 75, 45
1, 217680, Note_on_c, 0, 81, 53
1, 217680, Note_on_c, 0, 53, 67
1, 217700, Note_on_c, 0, 55, 0
1, 217800, Note_on_c, 0, 75, 0
1, 217800, Note_on_c, 0, 81, 0
1, 217800, Note_on_c, 0, 84, 46
1, 217800, Note_on_c, 0, 52, 62
1, 217820, Note_on_c, 0, 53, 0
1, 217920, Tempo, 497100
1, 217920, Note_on_c, 0, 84, 0
1, 217920, Note_on_c, 0, 75, 45
1, 217920, Note_on_c, 0, 81, 53
1, 217920, Note_on_c, 0, 53, 66
1, 217940, Note_on_c, 0, 52, 0
1, 218040, Note_on_c, 0, 75, 0
1, 218040, Note_on_c, 0, 81, 0
1, 218040, Note_on_c, 0, 84, 46
1, 218160, Tempo, 466708
1, 218160, Note_on_c, 0, 84, 0
1, 218160, Note_on_c, 0, 53, 0
1, 218160, Note_on_c, 0, 74, 45
1, 218160, Note_on_c, 0, 82, 53
1, 218160, Note_on_c, 0, 58, 62
1, 218220, Note_on_c, 0, 58, 0
1, 218280, Note_on_c, 0, 82, 0
1, 218280, Note_on_c, 0, 74, 0
1, 218280, Note_on_c, 0, 86, 46
1, 218340, Note_on_c, 0, 48, 55
1, 218400, Tempo, 457457
1, 218400, Note_on_c, 0, 86, 0
1, 218400, Note_on_c, 0, 74, 45
1, 218400, Note_on_c, 0, 82, 53
1, 218400, Note_on_c, 0, 46, 62
1, 218420, Note_on_c, 0, 48, 0
1, 218520, Note_on_c, 0, 74, 0
1, 218520, Note_on_c, 0, 82, 0
1, 218520, Note_on_c, 0, 86, 46
1, 218520, Note_on_c, 0, 45, 57
1, 218540, Note_on_c, 0, 46, 0
1, 218640, Tempo, 509857
1, 218640, Note_on_c, 0, 86, 0
1, 218640, Note_on_c, 0, 74, 45
1, 218640, Note_on_c, 0, 82, 53
1, 218640, Note_on_c, 0, 46, 62
1, 218660, Note_on_c, 0, 45, 0
1, 218760, Note_on_c, 0, 74, 0
1, 218760, Note_on_c, 0, 82, 0
1, 218760, Note_on_c, 0, 86, 46
1, 218880, Tempo, 461113
1, 218880, Note_on_c, 0, 86, 0
1, 218880, Note_on_c, 0, 46, 0
1, 218880, Note_on_c, 0, 75, 46
1, 218880, Note_on_c, 0, 81, 54
1, 218880, Note_on_c, 0, 41, 56
1, 218887, Control_c, 0, 64, 0
1, 218972, Control_c, 0, 64, 127
1, 219000, Note_on_c, 0, 81, 0
1, 219000, Note_on_c, 0, 75, 0
1, 219000, Note_on_c, 0, 84, 46
1, 219120, Tempo, 457457
1, 219120, Note_on_c, 0, 84, 0
1, 219120, Note_on_c, 0, 41, 0
1, 219120, Note_on_c, 0, 75, 45
1, 219120, Note_on_c, 0, 81, 53
1, 219120, Note_on_c, 0, 43, 44
1, 219139, Control_c, 0, 64, 0
1, 219226, Control_c, 0, 64, 127
1, 219240, Note_on_c, 0, 43, 0
1, 219240, Note_on_c, 0, 81, 0
1, 219240, Note_on_c, 0, 75, 0
1, 219240, Note_on_c, 0, 84, 45
1, 219240, Note_on_c, 0, 45, 44
1, 219360, Note_on_c, 0, 45, 0
1, 219360, Note_on_c, 0, 84, 0
1, 219360, Note_on_c, 0, 75, 45
1, 219360, Note_on_c, 0, 81, 53
1, 219360, Note_on_c, 0, 46, 47
1, 219480, Note_on_c, 0, 46, 0
1, 219480, Note_on_c, 0, 81, 0
1, 219480, Note_on_c, 0, 75, 0
1, 219480, Note_on_c, 0, 84, 45
1, 219480, Note_on_c, 0, 48, 47
1, 219600, Tempo, 469043
1, 219600, Note_on_c, 0, 48, 0
1, 219600, Note_on_c, 0, 84, 0
1, 219600, Note_on_c, 0, 74, 48
1, 219600, Note_on_c, 0, 82, 57
1, 219600, Control_c, 0, 64, 0
1, 219600, Note_on_c, 0, 46, 53
1, 219660, Note_on_c, 0, 46, 0
1, 219680, Tempo, 470995
1, 219720, Note_on_c, 0, 82, 0
1, 219720, Note_on_c, 0, 74, 0
1, 219720, Note_on_c, 0, 86, 46
1, 219760, Tempo, 472962
1, 219800, Tempo, 474947
1, 219840, Note_on_c, 0, 86, 0
1, 219840, Note_on_c, 0, 82, 53
1, 219840, Note_on_c, 0, 74, 45
1, 219840, Note_on_c, 0, 46, 53
1, 219880, Tempo, 476948
1, 219900, Note_on_c, 0, 46, 0
1, 219960, Tempo, 478965
1, 219960, Note_on_c, 0, 74, 0
1, 219960, Note_on_c, 0, 82, 0
1, 219960, Note_on_c, 0, 86, 45
1, 220000, Tempo, 480962
1, 220040, Tempo, 470995
1, 220080, Tempo, 488162
1, 220080, Note_on_c, 0, 86, 0
1, 220080, Note_on_c, 0, 74, 45
1, 220080, Note_on_c, 0, 82, 53
1, 220080, Note_on_c, 0, 46, 53
1, 220140, Note_on_c, 0, 46, 0
1, 220200, Note_on_c, 0, 82, 0
1, 220200, Note_on_c, 0, 74, 0
1, 220200, Note_on_c, 0, 86, 45
1, 220320, Tempo, 474046
1, 220320, Note_on_c, 0, 86, 0
1, 220320, Note_on_c, 0, 75, 41
1, 220320, Note_on_c, 0, 81, 49
1, 220320, Note_on_c, 0, 53, 50
1, 220412, Control_c, 0, 64, 127
1, 220440, Note_on_c, 0, 81, 0
1, 220440, Note_on_c, 0, 75, 0
1, 220440, Note_on_c, 0, 84, 41
1, 220560, Tempo, 462570
1, 220560, Note_on_c, 0, 84, 0
1, 220560, Note_on_c, 0, 53, 0
1, 220560, Note_on_c, 0, 75, 40
1, 220560, Note_on_c, 0, 81, 48
1, 220560, Note_on_c, 0, 55, 39
1, 220579, Control_c, 0, 64, 0
1, 220666, Control_c, 0, 64, 127
1, 220680, Note_on_c, 0, 55, 0
1, 220680, Note_on_c, 0, 81, 0
1, 220680, Note_on_c, 0, 75, 0
1, 220680, Note_on_c, 0, 84, 40
1, 220680, Note_on_c, 0, 57, 39
1, 220800, Tempo, 472106
1, 220800, Note_on_c, 0, 57, 0
1, 220800, Note_on_c, 0, 84, 0
1, 220800, Note_on_c, 0, 75, 40
1, 220800, Note_on_c, 0, 81, 48
1, 220800, Note_on_c, 0, 58, 41
1, 220920, Note_on_c, 0, 58, 0
1, 220920, Note_on_c, 0, 81, 0
1, 220920, Note_on_c, 0, 75, 0
1, 220920, Note_on_c, 0, 84, 40
1, 220920, Note_on_c, 0, 60, 41
1, 221040, Tempo, 468238
1, 221040, Note_on_c, 0, 60, 0
1, 221040, Note_on_c, 0, 84, 0
1, 221040, Note_on_c, 0, 74, 42
1, 221040, Note_on_c, 0, 82, 51
1, 221040, Control_c, 0, 64, 0
1, 221040, Note_on_c, 0, 58, 48
1, 221080, Tempo, 476948
1, 221100, Note_on_c, 0, 58, 0
1, 221160, Note_on_c, 0, 82, 0
1, 221160, Note_on_c, 0, 74, 0
1, 221160, Note_on_c, 0, 86, 41
1, 221200, Tempo, 478965
1, 221280, Tempo, 480962
1, 221280, Note_on_c, 0, 86, 0
1, 221280, Note_on_c, 0, 82, 48
1, 221280, Note_on_c, 0, 74, 40
1, 221280, Note_on_c, 0, 58, 48
1, 221340, Note_on_c, 0, 58, 0
1, 221400, Note_on_c, 0, 74, 0
1, 221400, Note_on_c, 0, 82, 0
1, 221400, Note_on_c, 0, 86, 40
1, 221520, Tempo, 503145
1, 221520, Note_on_c, 0, 86, 0
1, 221520, Note_on_c, 0, 74, 40
1, 221520, Note_on_c, 0, 82, 48
1, 221520, Note_on_c, 0, 58, 48
1, 221580, Note_on_c, 0, 58, 0
1, 221640, Note_on_c, 0, 82, 0
1, 221640, Note_on_c, 0, 74, 0
1, 221640, Note_on_c, 0, 86, 40
1, 221760, Tempo, 490236
1, 221760, Note_on_c, 0, 86, 0
1, 221760, Note_on_c, 0, 75, 35
1, 221760, Note_on_c, 0, 81, 43
1, 221760, Note_on_c, 0, 65, 44
1, 221852, Control_c, 0, 64, 127
1, 221880, Note_on_c, 0, 81, 0
1, 221880, Note_on_c, 0, 75, 0
1, 221880, Note_on_c, 0, 84, 37
1, 222000, Tempo, 462570
1, 222000, Note_on_c, 0, 84, 0
1, 222000, Note_on_c, 0, 65, 0
1, 222000, Note_on_c, 0, 75, 35
1, 222000, Note_on_c, 0, 81, 42
1, 222000, Note_on_c, 0, 67, 34
1, 222019, Control_c, 0, 64, 0
1, 222106, Control_c, 0, 64, 127
1, 222120, Note_on_c, 0, 67, 0
1, 222120, Note_on_c, 0, 81, 0
1, 222120, Note_on_c, 0, 75, 0
1, 222120, Note_on_c, 0, 84, 35
1, 222120, Note_on_c, 0, 69, 34
1, 222240, Tempo, 488162
1, 222240, Note_on_c, 0, 69, 0
1, 222240, Note_on_c, 0, 84, 0
1, 222240, Note_on_c, 0, 75, 35
1, 222240, Note_on_c, 0, 81, 42
1, 222240, Note_on_c, 0, 70, 37
1, 222360, Note_on_c, 0, 70, 0
1, 222360, Note_on_c, 0, 81, 0
1, 222360, Note_on_c, 0, 75, 0
1, 222360, Note_on_c, 0, 84, 35
1, 222360, Note_on_c, 0, 72, 37
1, 222438, Control_c, 0, 64, 0
1, 222480, Tempo, 505348
1, 222480, Note_on_c, 0, 72, 0
1, 222480, Note_on_c, 0, 84, 0
1, 222480, Note_on_c, 0, 86, 45
1, 222480, Note_on_c, 0, 74, 38
1, 222480, Note_on_c, 0, 82, 45
1, 222480, Note_on_c, 0, 70, 42
1, 222720, Note_on_c, 0, 70, 0
1, 222720, Note_on_c, 0, 86, 0
1, 222720, Note_on_c, 0, 74, 0
1, 222720, Note_on_c, 0, 82, 0
1, 223200, Note_on_c, 0, 74, 33
1, 223200, Note_on_c, 0, 82, 39
1, 223200, Note_on_c, 0, 86, 39
1, 223200, Note_on_c, 0, 65, 28
1, 223200, Note_on_c, 0, 70, 33
1, 223440, Note_on_c, 0, 70, 0
1, 223440, Note_on_c, 0, 86, 0
1, 223440, Note_on_c, 0, 74, 0
1, 223440, Note_on_c, 0, 82, 0
1, 223440, Note_on_c, 0, 65, 0
1, 223920, Tempo, 513611
1, 223920, Note_on_c, 0, 74, 32
1, 223920, Note_on_c, 0, 82, 38
1, 223920, Note_on_c, 0, 86, 38
1, 223920, Note_on_c, 0, 62, 26
1, 223920, Note_on_c, 0, 65, 26
1, 223920, Note_on_c, 0, 70, 31
1, 224160, Note_on_c, 0, 70, 0
1, 224160, Note_on_c, 0, 82, 0
1, 224160, Note_on_c, 0, 86, 0
1, 224160, Note_on_c, 0, 74, 0
1, 224160, Note_on_c, 0, 65, 0
1, 224160, Note_on_c, 0, 62, 0
1, 224640, Note_on_c, 0, 74, 28
1, 224640, Note_on_c, 0, 82, 34
1, 224640, Note_on_c, 0, 86, 34
1, 224640, Note_on_c, 0, 58, 26
1, 224640, Note_on_c, 0, 65, 26
1, 224640, Note_on_c, 0, 70, 31
1, 225600, Note_on_c, 0, 70, 0
1, 225600, Note_on_c, 0, 82, 0
1, 225600, Note_on_c, 0, 86, 0
1, 225600, Note_on_c, 0, 74, 0
1, 225600, Note_on_c, 0, 65, 0
1, 225600, Note_on_c, 0, 58, 0
1, 225960, Control_c, 0, 64, 0
1, 225962, Tempo, 542986
1, 226080, Tempo, 600000
1, 226080, End_track
0, 0, End_of_file
