0, 0, Header, 0, 1, 480
1, 0, Start_track
1, 0, Title_t, "Kreisleriana 3"
1, 0, Copyright_t, "Copyright © 2007 by Bernd Krueger"
1, 0, Text_t, "Robert Schumann"
1, 0, Text_t, "Sehr aufgeregt"
1, 0, Text_t, "Erstellt: 18.1.2007\012"
1, 0, Text_t, "Update am 27.3.2014\012"
1, 0, Text_t, "Dauer:  4:14 Minuten\012"
1, 0, Time_signature, 2, 2, 24, 8
1, 0, Key_signature, -2, "major"
1, 0, Tempo, 600000
1, 0, Marker_t, "Sehr aufgeregt"
1, 0, Program_c, 0, 0
1, 0, Control_c, 0, 91, 127
1, 0, Text_t, "bdca426d104a26ac9dcb070447587523"
1, 0, Program_c, 0, 0
1, 0, Program_c, 0, 0
1, 720, Tempo, 504202
1, 720, Note_on_c, 0, 50, 46
1, 780, Note_on_c, 0, 50, 0
1, 960, Tempo, 452830
1, 960, Note_on_c, 0, 55, 50
1, 960, Note_on_c, 0, 43, 50
1, 960, Note_on_c, 0, 31, 42
1, 960, Control_c, 0, 64, 127
1, 1040, Note_on_c, 0, 55, 0
1, 1040, Note_on_c, 0, 50, 36
1, 1120, Tempo, 451807
1, 1120, Note_on_c, 0, 50, 0
1, 1120, Note_on_c, 0, 57, 36
1, 1200, Tempo, 533333
1, 1200, Note_on_c, 0, 57, 0
1, 1200, Note_on_c, 0, 58, 50
1, 1212, Control_c, 0, 64, 0
1, 1260, Note_on_c, 0, 58, 0
1, 1440, Tempo, 454545
1, 1440, Note_on_c, 0, 57, 50
1, 1483, Control_c, 0, 64, 127
1, 1520, Note_on_c, 0, 57, 0
1, 1520, Note_on_c, 0, 50, 36
1, 1600, Note_on_c, 0, 50, 0
1, 1600, Note_on_c, 0, 58, 36
1, 1680, Tempo, 535714
1, 1680, Note_on_c, 0, 58, 0
1, 1680, Note_on_c, 0, 60, 50
1, 1690, Control_c, 0, 64, 0
1, 1740, Note_on_c, 0, 60, 0
1, 1920, Tempo, 454545
1, 1920, Note_on_c, 0, 58, 50
1, 1941, Control_c, 0, 64, 127
1, 2000, Note_on_c, 0, 58, 0
1, 2000, Note_on_c, 0, 50, 35
1, 2080, Note_on_c, 0, 50, 0
1, 2080, Note_on_c, 0, 60, 35
1, 2160, Tempo, 528634
1, 2160, Note_on_c, 0, 60, 0
1, 2160, Note_on_c, 0, 62, 50
1, 2164, Control_c, 0, 64, 0
1, 2220, Note_on_c, 0, 62, 0
1, 2400, Tempo, 454545
1, 2400, Note_on_c, 0, 31, 0
1, 2400, Note_on_c, 0, 43, 0
1, 2400, Note_on_c, 0, 55, 50
1, 2421, Control_c, 0, 64, 127
1, 2480, Note_on_c, 0, 55, 0
1, 2480, Note_on_c, 0, 50, 36
1, 2560, Note_on_c, 0, 50, 0
1, 2560, Note_on_c, 0, 57, 36
1, 2640, Tempo, 528634
1, 2640, Note_on_c, 0, 57, 0
1, 2640, Note_on_c, 0, 58, 50
1, 2640, Note_on_c, 0, 34, 37
1, 2640, Note_on_c, 0, 46, 44
1, 2650, Control_c, 0, 64, 0
1, 2700, Note_on_c, 0, 46, 0
1, 2700, Note_on_c, 0, 34, 0
1, 2700, Note_on_c, 0, 58, 0
1, 2880, Tempo, 454545
1, 2880, Note_on_c, 0, 57, 50
1, 2880, Note_on_c, 0, 48, 50
1, 2880, Note_on_c, 0, 36, 42
1, 2895, Control_c, 0, 64, 127
1, 2960, Note_on_c, 0, 57, 0
1, 2960, Note_on_c, 0, 51, 38
1, 3000, Note_on_c, 0, 36, 0
1, 3000, Note_on_c, 0, 48, 0
1, 3040, Note_on_c, 0, 51, 0
1, 3040, Note_on_c, 0, 58, 38
1, 3120, Tempo, 526316
1, 3120, Note_on_c, 0, 58, 0
1, 3120, Note_on_c, 0, 60, 50
1, 3136, Control_c, 0, 64, 0
1, 3180, Note_on_c, 0, 60, 0
1, 3360, Tempo, 456274
1, 3360, Note_on_c, 0, 54, 50
1, 3360, Note_on_c, 0, 38, 40
1, 3360, Note_on_c, 0, 50, 48
1, 3392, Control_c, 0, 64, 127
1, 3440, Note_on_c, 0, 54, 0
1, 3440, Note_on_c, 0, 48, 40
1, 3480, Note_on_c, 0, 50, 0
1, 3480, Note_on_c, 0, 38, 0
1, 3520, Note_on_c, 0, 48, 0
1, 3520, Note_on_c, 0, 55, 40
1, 3600, Tempo, 521739
1, 3600, Note_on_c, 0, 55, 0
1, 3600, Note_on_c, 0, 57, 50
1, 3608, Control_c, 0, 64, 0
1, 3660, Note_on_c, 0, 57, 0
1, 3840, Tempo, 456274
1, 3840, Note_on_c, 0, 55, 50
1, 3840, Note_on_c, 0, 43, 50
1, 3840, Note_on_c, 0, 31, 42
1, 3852, Control_c, 0, 64, 127
1, 3920, Note_on_c, 0, 55, 0
1, 3920, Note_on_c, 0, 50, 40
1, 4000, Note_on_c, 0, 50, 0
1, 4000, Note_on_c, 0, 57, 41
1, 4080, Tempo, 519481
1, 4080, Note_on_c, 0, 57, 0
1, 4080, Note_on_c, 0, 31, 0
1, 4080, Note_on_c, 0, 43, 0
1, 4080, Note_on_c, 0, 58, 50
1, 4094, Control_c, 0, 64, 0
1, 4140, Note_on_c, 0, 58, 0
1, 4320, Tempo, 476190
1, 4320, Note_on_c, 0, 57, 50
1, 4440, Note_on_c, 0, 57, 0
1, 4500, Note_on_c, 0, 54, 44
1, 4560, Tempo, 504202
1, 4560, Note_on_c, 0, 54, 0
1, 4560, Note_on_c, 0, 50, 58
1, 4560, Note_on_c, 0, 38, 47
1, 4620, Note_on_c, 0, 38, 0
1, 4620, Note_on_c, 0, 50, 0
1, 4800, Tempo, 452830
1, 4800, Note_on_c, 0, 55, 50
1, 4800, Note_on_c, 0, 43, 50
1, 4800, Note_on_c, 0, 31, 42
1, 4800, Control_c, 0, 64, 127
1, 4880, Note_on_c, 0, 55, 0
1, 4880, Note_on_c, 0, 50, 38
1, 4960, Note_on_c, 0, 50, 0
1, 4960, Note_on_c, 0, 57, 38
1, 5040, Tempo, 533333
1, 5040, Note_on_c, 0, 57, 0
1, 5040, Note_on_c, 0, 58, 50
1, 5052, Control_c, 0, 64, 0
1, 5100, Note_on_c, 0, 58, 0
1, 5280, Tempo, 454545
1, 5280, Note_on_c, 0, 57, 50
1, 5323, Control_c, 0, 64, 127
1, 5360, Note_on_c, 0, 57, 0
1, 5360, Note_on_c, 0, 50, 38
1, 5440, Note_on_c, 0, 50, 0
1, 5440, Note_on_c, 0, 58, 38
1, 5520, Tempo, 535714
1, 5520, Note_on_c, 0, 58, 0
1, 5520, Note_on_c, 0, 60, 50
1, 5530, Control_c, 0, 64, 0
1, 5580, Note_on_c, 0, 60, 0
1, 5760, Tempo, 454545
1, 5760, Note_on_c, 0, 58, 50
1, 5781, Control_c, 0, 64, 127
1, 5840, Note_on_c, 0, 58, 0
1, 5840, Note_on_c, 0, 50, 37
1, 5920, Note_on_c, 0, 50, 0
1, 5920, Note_on_c, 0, 60, 37
1, 6000, Tempo, 528634
1, 6000, Note_on_c, 0, 60, 0
1, 6000, Note_on_c, 0, 62, 50
1, 6004, Control_c, 0, 64, 0
1, 6060, Note_on_c, 0, 62, 0
1, 6240, Tempo, 454545
1, 6240, Note_on_c, 0, 31, 0
1, 6240, Note_on_c, 0, 43, 0
1, 6240, Note_on_c, 0, 55, 50
1, 6261, Control_c, 0, 64, 127
1, 6320, Note_on_c, 0, 55, 0
1, 6320, Note_on_c, 0, 50, 40
1, 6400, Note_on_c, 0, 50, 0
1, 6400, Note_on_c, 0, 57, 40
1, 6480, Tempo, 528634
1, 6480, Note_on_c, 0, 57, 0
1, 6480, Note_on_c, 0, 58, 50
1, 6480, Note_on_c, 0, 46, 44
1, 6480, Note_on_c, 0, 34, 37
1, 6490, Control_c, 0, 64, 0
1, 6540, Note_on_c, 0, 34, 0
1, 6540, Note_on_c, 0, 46, 0
1, 6540, Note_on_c, 0, 58, 0
1, 6720, Tempo, 454545
1, 6720, Note_on_c, 0, 57, 50
1, 6720, Note_on_c, 0, 48, 50
1, 6720, Note_on_c, 0, 36, 42
1, 6735, Control_c, 0, 64, 127
1, 6800, Note_on_c, 0, 57, 0
1, 6800, Note_on_c, 0, 51, 40
1, 6840, Note_on_c, 0, 36, 0
1, 6840, Note_on_c, 0, 48, 0
1, 6880, Note_on_c, 0, 51, 0
1, 6880, Note_on_c, 0, 58, 40
1, 6960, Tempo, 526316
1, 6960, Note_on_c, 0, 58, 0
1, 6960, Note_on_c, 0, 60, 50
1, 6976, Control_c, 0, 64, 0
1, 7020, Note_on_c, 0, 60, 0
1, 7200, Tempo, 456274
1, 7200, Note_on_c, 0, 59, 50
1, 7200, Note_on_c, 0, 38, 40
1, 7200, Note_on_c, 0, 50, 48
1, 7232, Control_c, 0, 64, 127
1, 7280, Note_on_c, 0, 59, 0
1, 7280, Note_on_c, 0, 50, 39
1, 7320, Note_on_c, 0, 50, 0
1, 7320, Note_on_c, 0, 38, 0
1, 7360, Note_on_c, 0, 50, 0
1, 7360, Note_on_c, 0, 60, 40
1, 7440, Tempo, 521739
1, 7440, Note_on_c, 0, 60, 0
1, 7440, Note_on_c, 0, 62, 50
1, 7448, Control_c, 0, 64, 0
1, 7500, Note_on_c, 0, 62, 0
1, 7680, Tempo, 456274
1, 7680, Note_on_c, 0, 60, 50
1, 7680, Note_on_c, 0, 39, 42
1, 7680, Note_on_c, 0, 51, 50
1, 7692, Control_c, 0, 64, 127
1, 7760, Note_on_c, 0, 60, 0
1, 7760, Note_on_c, 0, 55, 41
1, 7840, Note_on_c, 0, 55, 0
1, 7840, Note_on_c, 0, 62, 41
1, 7920, Tempo, 481928
1, 7920, Note_on_c, 0, 62, 0
1, 7920, Note_on_c, 0, 51, 0
1, 7920, Note_on_c, 0, 39, 0
1, 7920, Note_on_c, 0, 63, 50
1, 7934, Control_c, 0, 64, 0
1, 7980, Note_on_c, 0, 63, 0
1, 8160, Tempo, 431655
1, 8160, Note_on_c, 0, 59, 54
1, 8177, Control_c, 0, 64, 127
1, 8240, Note_on_c, 0, 59, 0
1, 8240, Note_on_c, 0, 53, 45
1, 8320, Note_on_c, 0, 53, 0
1, 8320, Note_on_c, 0, 60, 45
1, 8400, Tempo, 510638
1, 8400, Note_on_c, 0, 60, 0
1, 8400, Note_on_c, 0, 62, 56
1, 8400, Note_on_c, 0, 38, 35
1, 8400, Note_on_c, 0, 50, 42
1, 8408, Control_c, 0, 64, 0
1, 8460, Note_on_c, 0, 62, 0
1, 8520, Note_on_c, 0, 50, 0
1, 8520, Note_on_c, 0, 38, 0
1, 8640, Tempo, 454545
1, 8640, Note_on_c, 0, 60, 59
1, 8640, Note_on_c, 0, 39, 46
1, 8640, Note_on_c, 0, 51, 55
1, 8655, Control_c, 0, 64, 127
1, 8720, Note_on_c, 0, 60, 0
1, 8720, Note_on_c, 0, 55, 48
1, 8760, Note_on_c, 0, 51, 0
1, 8760, Note_on_c, 0, 39, 0
1, 8800, Note_on_c, 0, 55, 0
1, 8800, Note_on_c, 0, 62, 48
1, 8880, Tempo, 526316
1, 8880, Note_on_c, 0, 62, 0
1, 8880, Note_on_c, 0, 63, 59
1, 8896, Control_c, 0, 64, 0
1, 8940, Note_on_c, 0, 63, 0
1, 9120, Tempo, 456274
1, 9120, Note_on_c, 0, 63, 63
1, 9120, Note_on_c, 0, 36, 48
1, 9120, Note_on_c, 0, 48, 57
1, 9152, Control_c, 0, 64, 127
1, 9200, Note_on_c, 0, 63, 0
1, 9200, Note_on_c, 0, 55, 51
1, 9240, Note_on_c, 0, 48, 0
1, 9240, Note_on_c, 0, 36, 0
1, 9280, Note_on_c, 0, 55, 0
1, 9280, Note_on_c, 0, 65, 51
1, 9360, Tempo, 521739
1, 9360, Note_on_c, 0, 65, 0
1, 9360, Note_on_c, 0, 67, 61
1, 9368, Control_c, 0, 64, 0
1, 9420, Note_on_c, 0, 67, 0
1, 9600, Tempo, 454545
1, 9600, Note_on_c, 0, 66, 70
1, 9600, Note_on_c, 0, 38, 50
1, 9600, Note_on_c, 0, 50, 59
1, 9615, Control_c, 0, 64, 127
1, 9680, Note_on_c, 0, 66, 0
1, 9680, Note_on_c, 0, 54, 53
1, 9760, Note_on_c, 0, 54, 0
1, 9760, Note_on_c, 0, 67, 54
1, 9840, Tempo, 526316
1, 9840, Note_on_c, 0, 67, 0
1, 9840, Note_on_c, 0, 50, 0
1, 9840, Note_on_c, 0, 38, 0
1, 9840, Note_on_c, 0, 69, 66
1, 9856, Control_c, 0, 64, 0
1, 9900, Note_on_c, 0, 69, 0
1, 10080, Note_on_c, 0, 62, 67
1, 10140, Note_on_c, 0, 62, 0
1, 10320, Tempo, 504202
1, 10320, Note_on_c, 0, 62, 64
1, 10320, Note_on_c, 0, 50, 61
1, 10380, Note_on_c, 0, 50, 0
1, 10380, Note_on_c, 0, 62, 0
1, 10560, Tempo, 476948
1, 10560, Note_on_c, 0, 67, 64
1, 10560, Note_on_c, 0, 43, 64
1, 10560, Note_on_c, 0, 46, 64
1, 10560, Note_on_c, 0, 55, 76
1, 10560, Control_c, 0, 64, 127
1, 10640, Note_on_c, 0, 67, 0
1, 10640, Note_on_c, 0, 62, 48
1, 10720, Note_on_c, 0, 62, 0
1, 10720, Note_on_c, 0, 69, 48
1, 10800, Tempo, 564440
1, 10800, Note_on_c, 0, 69, 0
1, 10800, Note_on_c, 0, 70, 64
1, 10815, Control_c, 0, 64, 0
1, 10860, Note_on_c, 0, 70, 0
1, 11040, Tempo, 478851
1, 11040, Note_on_c, 0, 55, 0
1, 11040, Note_on_c, 0, 46, 0
1, 11040, Note_on_c, 0, 69, 64
1, 11040, Note_on_c, 0, 50, 68
1, 11040, Note_on_c, 0, 57, 80
1, 11111, Control_c, 0, 64, 127
1, 11120, Note_on_c, 0, 69, 0
1, 11120, Note_on_c, 0, 62, 50
1, 11200, Note_on_c, 0, 62, 0
1, 11200, Note_on_c, 0, 70, 50
1, 11280, Tempo, 559180
1, 11280, Note_on_c, 0, 70, 0
1, 11280, Note_on_c, 0, 72, 64
1, 11301, Control_c, 0, 64, 0
1, 11340, Note_on_c, 0, 72, 0
1, 11520, Tempo, 476948
1, 11520, Note_on_c, 0, 57, 0
1, 11520, Note_on_c, 0, 50, 0
1, 11520, Note_on_c, 0, 43, 0
1, 11520, Note_on_c, 0, 70, 64
1, 11520, Note_on_c, 0, 58, 84
1, 11520, Note_on_c, 0, 55, 71
1, 11573, Control_c, 0, 64, 127
1, 11600, Note_on_c, 0, 70, 0
1, 11600, Note_on_c, 0, 62, 49
1, 11680, Note_on_c, 0, 62, 0
1, 11680, Note_on_c, 0, 72, 49
1, 11760, Tempo, 546448
1, 11760, Note_on_c, 0, 72, 0
1, 11760, Note_on_c, 0, 74, 64
1, 11785, Control_c, 0, 64, 0
1, 11820, Note_on_c, 0, 74, 0
1, 12000, Tempo, 471328
1, 12000, Note_on_c, 0, 55, 0
1, 12000, Note_on_c, 0, 58, 0
1, 12000, Note_on_c, 0, 67, 64
1, 12071, Control_c, 0, 64, 127
1, 12080, Note_on_c, 0, 67, 0
1, 12080, Note_on_c, 0, 62, 50
1, 12160, Note_on_c, 0, 62, 0
1, 12160, Note_on_c, 0, 69, 52
1, 12240, Tempo, 546448
1, 12240, Note_on_c, 0, 69, 0
1, 12240, Note_on_c, 0, 70, 64
1, 12240, Note_on_c, 0, 55, 72
1, 12240, Note_on_c, 0, 46, 61
1, 12250, Control_c, 0, 64, 0
1, 12300, Note_on_c, 0, 46, 0
1, 12300, Note_on_c, 0, 55, 0
1, 12300, Note_on_c, 0, 70, 0
1, 12480, Tempo, 475059
1, 12480, Note_on_c, 0, 69, 64
1, 12480, Note_on_c, 0, 57, 79
1, 12480, Note_on_c, 0, 55, 67
1, 12480, Note_on_c, 0, 48, 67
1, 12495, Control_c, 0, 64, 127
1, 12560, Note_on_c, 0, 69, 0
1, 12560, Note_on_c, 0, 63, 52
1, 12640, Note_on_c, 0, 63, 0
1, 12640, Note_on_c, 0, 70, 52
1, 12720, Tempo, 543971
1, 12720, Note_on_c, 0, 70, 0
1, 12720, Note_on_c, 0, 72, 64
1, 12724, Control_c, 0, 64, 0
1, 12780, Note_on_c, 0, 72, 0
1, 12960, Tempo, 478851
1, 12960, Note_on_c, 0, 48, 0
1, 12960, Note_on_c, 0, 55, 0
1, 12960, Note_on_c, 0, 57, 0
1, 12960, Note_on_c, 0, 66, 64
1, 12960, Note_on_c, 0, 62, 77
1, 12960, Note_on_c, 0, 54, 66
1, 12960, Note_on_c, 0, 50, 61
1, 12992, Control_c, 0, 64, 127
1, 13040, Note_on_c, 0, 66, 0
1, 13040, Note_on_c, 0, 60, 51
1, 13120, Note_on_c, 0, 60, 0
1, 13120, Note_on_c, 0, 67, 51
1, 13200, Tempo, 543971
1, 13200, Note_on_c, 0, 67, 0
1, 13200, Note_on_c, 0, 69, 64
1, 13209, Control_c, 0, 64, 0
1, 13260, Note_on_c, 0, 69, 0
1, 13440, Tempo, 471328
1, 13440, Note_on_c, 0, 50, 0
1, 13440, Note_on_c, 0, 54, 0
1, 13440, Note_on_c, 0, 62, 0
1, 13440, Note_on_c, 0, 67, 64
1, 13440, Note_on_c, 0, 55, 81
1, 13440, Note_on_c, 0, 43, 68
1, 13440, Note_on_c, 0, 46, 68
1, 13492, Control_c, 0, 64, 127
1, 13520, Note_on_c, 0, 67, 0
1, 13520, Note_on_c, 0, 62, 54
1, 13600, Note_on_c, 0, 62, 0
1, 13600, Note_on_c, 0, 69, 54
1, 13680, Tempo, 485830
1, 13680, Note_on_c, 0, 69, 0
1, 13680, Note_on_c, 0, 70, 64
1, 13694, Control_c, 0, 64, 0
1, 13740, Note_on_c, 0, 70, 0
1, 13920, Tempo, 471328
1, 13920, Note_on_c, 0, 46, 0
1, 13920, Note_on_c, 0, 43, 0
1, 13920, Note_on_c, 0, 55, 0
1, 13920, Note_on_c, 0, 69, 64
1, 14040, Note_on_c, 0, 69, 0
1, 14100, Note_on_c, 0, 66, 52
1, 14160, Tempo, 504202
1, 14160, Note_on_c, 0, 66, 0
1, 14160, Note_on_c, 0, 62, 71
1, 14160, Note_on_c, 0, 50, 81
1, 14220, Note_on_c, 0, 50, 0
1, 14220, Note_on_c, 0, 62, 0
1, 14400, Tempo, 476948
1, 14400, Note_on_c, 0, 67, 64
1, 14400, Note_on_c, 0, 43, 68
1, 14400, Note_on_c, 0, 46, 68
1, 14400, Note_on_c, 0, 55, 80
1, 14400, Control_c, 0, 64, 127
1, 14480, Note_on_c, 0, 67, 0
1, 14480, Note_on_c, 0, 62, 49
1, 14560, Note_on_c, 0, 62, 0
1, 14560, Note_on_c, 0, 69, 50
1, 14640, Tempo, 539084
1, 14640, Note_on_c, 0, 69, 0
1, 14640, Note_on_c, 0, 70, 64
1, 14651, Control_c, 0, 64, 0
1, 14700, Note_on_c, 0, 70, 0
1, 14880, Tempo, 480769
1, 14880, Note_on_c, 0, 55, 0
1, 14880, Note_on_c, 0, 46, 0
1, 14880, Note_on_c, 0, 69, 64
1, 14880, Note_on_c, 0, 50, 68
1, 14880, Note_on_c, 0, 57, 81
1, 14923, Control_c, 0, 64, 127
1, 14960, Note_on_c, 0, 69, 0
1, 14960, Note_on_c, 0, 62, 51
1, 15000, Tempo, 478851
1, 15040, Note_on_c, 0, 62, 0
1, 15040, Note_on_c, 0, 70, 52
1, 15120, Tempo, 543971
1, 15120, Note_on_c, 0, 70, 0
1, 15120, Note_on_c, 0, 72, 64
1, 15125, Control_c, 0, 64, 0
1, 15180, Note_on_c, 0, 72, 0
1, 15360, Tempo, 480769
1, 15360, Note_on_c, 0, 57, 0
1, 15360, Note_on_c, 0, 50, 0
1, 15360, Note_on_c, 0, 43, 0
1, 15360, Note_on_c, 0, 70, 64
1, 15360, Note_on_c, 0, 58, 85
1, 15360, Note_on_c, 0, 55, 72
1, 15396, Control_c, 0, 64, 127
1, 15440, Note_on_c, 0, 70, 0
1, 15440, Note_on_c, 0, 62, 55
1, 15520, Note_on_c, 0, 62, 0
1, 15520, Note_on_c, 0, 72, 55
1, 15600, Tempo, 521286
1, 15600, Note_on_c, 0, 72, 0
1, 15600, Note_on_c, 0, 74, 64
1, 15604, Control_c, 0, 64, 0
1, 15660, Note_on_c, 0, 74, 0
1, 15840, Tempo, 443656
1, 15840, Note_on_c, 0, 55, 0
1, 15840, Note_on_c, 0, 58, 0
1, 15840, Note_on_c, 0, 75, 71
1, 15861, Control_c, 0, 64, 127
1, 15920, Note_on_c, 0, 75, 0
1, 15920, Note_on_c, 0, 67, 56
1, 16000, Note_on_c, 0, 67, 0
1, 16000, Note_on_c, 0, 77, 56
1, 16080, Tempo, 528634
1, 16080, Note_on_c, 0, 77, 0
1, 16080, Note_on_c, 0, 79, 64
1, 16080, Note_on_c, 0, 51, 53
1, 16080, Note_on_c, 0, 39, 45
1, 16090, Control_c, 0, 64, 0
1, 16140, Note_on_c, 0, 39, 0
1, 16140, Note_on_c, 0, 51, 0
1, 16140, Note_on_c, 0, 79, 0
1, 16320, Tempo, 466926
1, 16320, Note_on_c, 0, 69, 59
1, 16320, Note_on_c, 0, 41, 62
1, 16320, Note_on_c, 0, 53, 74
1, 16335, Control_c, 0, 64, 127
1, 16400, Note_on_c, 0, 69, 0
1, 16400, Note_on_c, 0, 60, 47
1, 16440, Note_on_c, 0, 53, 0
1, 16440, Note_on_c, 0, 41, 0
1, 16480, Note_on_c, 0, 60, 0
1, 16480, Note_on_c, 0, 70, 47
1, 16560, Tempo, 523560
1, 16560, Note_on_c, 0, 70, 0
1, 16560, Note_on_c, 0, 72, 59
1, 16576, Control_c, 0, 64, 0
1, 16620, Note_on_c, 0, 72, 0
1, 16800, Tempo, 448430
1, 16800, Note_on_c, 0, 74, 71
1, 16800, Note_on_c, 0, 34, 55
1, 16800, Note_on_c, 0, 46, 65
1, 16832, Control_c, 0, 64, 127
1, 16880, Note_on_c, 0, 74, 0
1, 16880, Note_on_c, 0, 65, 52
1, 16920, Note_on_c, 0, 46, 0
1, 16920, Note_on_c, 0, 34, 0
1, 16960, Note_on_c, 0, 65, 0
1, 16960, Note_on_c, 0, 75, 55
1, 17040, Tempo, 521739
1, 17040, Note_on_c, 0, 75, 0
1, 17040, Note_on_c, 0, 77, 65
1, 17048, Control_c, 0, 64, 0
1, 17100, Note_on_c, 0, 77, 0
1, 17280, Tempo, 466926
1, 17280, Note_on_c, 0, 67, 59
1, 17280, Note_on_c, 0, 51, 75
1, 17280, Note_on_c, 0, 39, 63
1, 17292, Control_c, 0, 64, 127
1, 17360, Note_on_c, 0, 67, 0
1, 17360, Note_on_c, 0, 58, 44
1, 17440, Note_on_c, 0, 58, 0
1, 17440, Note_on_c, 0, 69, 44
1, 17520, Tempo, 508044
1, 17520, Note_on_c, 0, 69, 0
1, 17520, Note_on_c, 0, 39, 0
1, 17520, Note_on_c, 0, 51, 0
1, 17520, Note_on_c, 0, 70, 59
1, 17534, Control_c, 0, 64, 0
1, 17580, Note_on_c, 0, 70, 0
1, 17760, Tempo, 445302
1, 17760, Note_on_c, 0, 72, 68
1, 17777, Control_c, 0, 64, 127
1, 17840, Note_on_c, 0, 72, 0
1, 17840, Note_on_c, 0, 63, 51
1, 17920, Note_on_c, 0, 63, 0
1, 17920, Note_on_c, 0, 74, 51
1, 18000, Tempo, 510638
1, 18000, Note_on_c, 0, 74, 0
1, 18000, Note_on_c, 0, 75, 66
1, 18000, Note_on_c, 0, 45, 81
1, 18000, Note_on_c, 0, 33, 68
1, 18008, Control_c, 0, 64, 0
1, 18060, Note_on_c, 0, 75, 0
1, 18240, Tempo, 461538
1, 18240, Note_on_c, 0, 33, 0
1, 18240, Note_on_c, 0, 45, 0
1, 18240, Note_on_c, 0, 66, 59
1, 18240, Note_on_c, 0, 50, 74
1, 18240, Note_on_c, 0, 38, 62
1, 18255, Control_c, 0, 64, 127
1, 18320, Note_on_c, 0, 66, 0
1, 18320, Note_on_c, 0, 57, 45
1, 18400, Note_on_c, 0, 57, 0
1, 18400, Note_on_c, 0, 67, 45
1, 18480, Tempo, 526316
1, 18480, Note_on_c, 0, 67, 0
1, 18480, Note_on_c, 0, 69, 58
1, 18496, Control_c, 0, 64, 0
1, 18540, Note_on_c, 0, 69, 0
1, 18720, Tempo, 456274
1, 18720, Note_on_c, 0, 38, 0
1, 18720, Note_on_c, 0, 50, 0
1, 18720, Note_on_c, 0, 72, 66
1, 18752, Control_c, 0, 64, 127
1, 18800, Note_on_c, 0, 72, 0
1, 18800, Note_on_c, 0, 63, 50
1, 18880, Note_on_c, 0, 63, 0
1, 18880, Note_on_c, 0, 74, 51
1, 18960, Tempo, 521739
1, 18960, Note_on_c, 0, 74, 0
1, 18960, Note_on_c, 0, 75, 65
1, 18960, Note_on_c, 0, 32, 65
1, 18960, Note_on_c, 0, 44, 77
1, 18968, Control_c, 0, 64, 0
1, 19020, Note_on_c, 0, 75, 0
1, 19200, Tempo, 458015
1, 19200, Note_on_c, 0, 44, 0
1, 19200, Note_on_c, 0, 32, 0
1, 19200, Note_on_c, 0, 66, 62
1, 19200, Note_on_c, 0, 50, 68
1, 19200, Note_on_c, 0, 38, 57
1, 19215, Control_c, 0, 64, 127
1, 19280, Note_on_c, 0, 66, 0
1, 19280, Note_on_c, 0, 57, 47
1, 19360, Note_on_c, 0, 57, 0
1, 19360, Note_on_c, 0, 67, 51
1, 19440, Tempo, 526316
1, 19440, Note_on_c, 0, 67, 0
1, 19440, Note_on_c, 0, 69, 60
1, 19456, Control_c, 0, 64, 0
1, 19500, Note_on_c, 0, 69, 0
1, 19680, Tempo, 456274
1, 19680, Note_on_c, 0, 38, 0
1, 19680, Note_on_c, 0, 50, 0
1, 19680, Note_on_c, 0, 72, 66
1, 19743, Control_c, 0, 64, 127
1, 19760, Note_on_c, 0, 72, 0
1, 19760, Note_on_c, 0, 63, 53
1, 19840, Note_on_c, 0, 63, 0
1, 19840, Note_on_c, 0, 74, 50
1, 19920, Tempo, 521739
1, 19920, Note_on_c, 0, 74, 0
1, 19920, Note_on_c, 0, 75, 65
1, 19920, Note_on_c, 0, 33, 65
1, 19920, Note_on_c, 0, 45, 77
1, 19928, Control_c, 0, 64, 0
1, 19980, Note_on_c, 0, 75, 0
1, 20160, Tempo, 459770
1, 20160, Note_on_c, 0, 45, 0
1, 20160, Note_on_c, 0, 33, 0
1, 20160, Note_on_c, 0, 66, 66
1, 20160, Note_on_c, 0, 50, 68
1, 20160, Note_on_c, 0, 38, 57
1, 20175, Control_c, 0, 64, 127
1, 20240, Note_on_c, 0, 66, 0
1, 20240, Note_on_c, 0, 57, 51
1, 20320, Note_on_c, 0, 57, 0
1, 20320, Note_on_c, 0, 67, 51
1, 20400, Tempo, 526316
1, 20400, Note_on_c, 0, 67, 0
1, 20400, Note_on_c, 0, 69, 64
1, 20410, Control_c, 0, 64, 0
1, 20460, Note_on_c, 0, 69, 0
1, 20640, Tempo, 471550
1, 20640, Note_on_c, 0, 60, 59
1, 20709, Control_c, 0, 64, 127
1, 20720, Note_on_c, 0, 60, 0
1, 20720, Note_on_c, 0, 57, 47
1, 20800, Note_on_c, 0, 57, 0
1, 20800, Note_on_c, 0, 62, 45
1, 20880, Tempo, 541810
1, 20880, Note_on_c, 0, 62, 0
1, 20880, Note_on_c, 0, 63, 56
1, 20890, Control_c, 0, 64, 0
1, 20940, Note_on_c, 0, 63, 0
1, 21120, Tempo, 479080
1, 21120, Note_on_c, 0, 50, 0
1, 21120, Note_on_c, 0, 54, 54
1, 21155, Control_c, 0, 64, 127
1, 21200, Note_on_c, 0, 54, 0
1, 21200, Note_on_c, 0, 50, 38
1, 21280, Note_on_c, 0, 50, 0
1, 21280, Note_on_c, 0, 55, 38
1, 21360, Tempo, 526316
1, 21360, Note_on_c, 0, 55, 0
1, 21360, Note_on_c, 0, 57, 52
1, 21376, Control_c, 0, 64, 0
1, 21420, Note_on_c, 0, 57, 0
1, 21600, Note_on_c, 0, 38, 0
1, 21600, Note_on_c, 0, 50, 50
1, 21660, Note_on_c, 0, 50, 0
1, 21840, Tempo, 504202
1, 21840, Note_on_c, 0, 50, 52
1, 21840, Note_on_c, 0, 38, 52
1, 21900, Note_on_c, 0, 38, 0
1, 21900, Note_on_c, 0, 50, 0
1, 22080, Tempo, 466056
1, 22080, Note_on_c, 0, 55, 50
1, 22080, Note_on_c, 0, 31, 42
1, 22080, Note_on_c, 0, 43, 50
1, 22080, Control_c, 0, 64, 127
1, 22160, Note_on_c, 0, 55, 0
1, 22160, Note_on_c, 0, 50, 37
1, 22240, Note_on_c, 0, 50, 0
1, 22240, Note_on_c, 0, 57, 37
1, 22320, Tempo, 533333
1, 22320, Note_on_c, 0, 57, 0
1, 22320, Note_on_c, 0, 58, 50
1, 22332, Control_c, 0, 64, 0
1, 22380, Note_on_c, 0, 58, 0
1, 22560, Tempo, 466056
1, 22560, Note_on_c, 0, 57, 50
1, 22603, Control_c, 0, 64, 127
1, 22640, Note_on_c, 0, 57, 0
1, 22640, Note_on_c, 0, 50, 38
1, 22720, Note_on_c, 0, 50, 0
1, 22720, Note_on_c, 0, 58, 38
1, 22800, Tempo, 535714
1, 22800, Note_on_c, 0, 58, 0
1, 22800, Note_on_c, 0, 60, 50
1, 22810, Control_c, 0, 64, 0
1, 22860, Note_on_c, 0, 60, 0
1, 23040, Tempo, 462463
1, 23040, Note_on_c, 0, 58, 50
1, 23061, Control_c, 0, 64, 127
1, 23120, Note_on_c, 0, 58, 0
1, 23120, Note_on_c, 0, 50, 37
1, 23200, Note_on_c, 0, 50, 0
1, 23200, Note_on_c, 0, 60, 39
1, 23280, Tempo, 528634
1, 23280, Note_on_c, 0, 60, 0
1, 23280, Note_on_c, 0, 62, 51
1, 23284, Control_c, 0, 64, 0
1, 23340, Note_on_c, 0, 62, 0
1, 23520, Tempo, 454545
1, 23520, Note_on_c, 0, 43, 0
1, 23520, Note_on_c, 0, 31, 0
1, 23520, Note_on_c, 0, 55, 52
1, 23541, Control_c, 0, 64, 127
1, 23600, Note_on_c, 0, 55, 0
1, 23600, Note_on_c, 0, 50, 40
1, 23680, Note_on_c, 0, 50, 0
1, 23680, Note_on_c, 0, 57, 40
1, 23760, Tempo, 528634
1, 23760, Note_on_c, 0, 57, 0
1, 23760, Note_on_c, 0, 58, 53
1, 23760, Note_on_c, 0, 46, 47
1, 23760, Note_on_c, 0, 34, 39
1, 23770, Control_c, 0, 64, 0
1, 23820, Note_on_c, 0, 34, 0
1, 23820, Note_on_c, 0, 46, 0
1, 23820, Note_on_c, 0, 58, 0
1, 24000, Tempo, 454545
1, 24000, Note_on_c, 0, 57, 55
1, 24000, Note_on_c, 0, 36, 46
1, 24000, Note_on_c, 0, 48, 55
1, 24015, Control_c, 0, 64, 127
1, 24080, Note_on_c, 0, 57, 0
1, 24080, Note_on_c, 0, 51, 42
1, 24160, Note_on_c, 0, 51, 0
1, 24160, Note_on_c, 0, 58, 42
1, 24240, Tempo, 526316
1, 24240, Note_on_c, 0, 58, 0
1, 24240, Note_on_c, 0, 60, 56
1, 24256, Control_c, 0, 64, 0
1, 24300, Note_on_c, 0, 60, 0
1, 24480, Tempo, 456274
1, 24480, Note_on_c, 0, 48, 0
1, 24480, Note_on_c, 0, 36, 0
1, 24480, Note_on_c, 0, 59, 57
1, 24480, Note_on_c, 0, 38, 46
1, 24480, Note_on_c, 0, 50, 55
1, 24512, Control_c, 0, 64, 127
1, 24560, Note_on_c, 0, 59, 0
1, 24560, Note_on_c, 0, 53, 44
1, 24640, Note_on_c, 0, 53, 0
1, 24640, Note_on_c, 0, 60, 49
1, 24720, Tempo, 521739
1, 24720, Note_on_c, 0, 60, 0
1, 24720, Note_on_c, 0, 62, 58
1, 24728, Control_c, 0, 64, 0
1, 24780, Note_on_c, 0, 62, 0
1, 24960, Tempo, 454545
1, 24960, Note_on_c, 0, 50, 0
1, 24960, Note_on_c, 0, 38, 0
1, 24960, Note_on_c, 0, 60, 60
1, 24960, Note_on_c, 0, 51, 60
1, 24960, Note_on_c, 0, 39, 50
1, 24975, Control_c, 0, 64, 127
1, 25040, Note_on_c, 0, 60, 0
1, 25040, Note_on_c, 0, 51, 48
1, 25120, Note_on_c, 0, 51, 0
1, 25120, Note_on_c, 0, 62, 49
1, 25200, Tempo, 481928
1, 25200, Note_on_c, 0, 62, 0
1, 25200, Note_on_c, 0, 63, 61
1, 25216, Control_c, 0, 64, 0
1, 25260, Note_on_c, 0, 63, 0
1, 25440, Tempo, 456274
1, 25440, Note_on_c, 0, 39, 0
1, 25440, Note_on_c, 0, 51, 0
1, 25440, Note_on_c, 0, 59, 62
1, 25472, Control_c, 0, 64, 127
1, 25520, Note_on_c, 0, 59, 0
1, 25520, Note_on_c, 0, 53, 53
1, 25600, Note_on_c, 0, 53, 0
1, 25600, Note_on_c, 0, 60, 54
1, 25680, Tempo, 521739
1, 25680, Note_on_c, 0, 60, 0
1, 25680, Note_on_c, 0, 62, 63
1, 25680, Note_on_c, 0, 38, 50
1, 25680, Note_on_c, 0, 50, 60
1, 25688, Control_c, 0, 64, 0
1, 25740, Note_on_c, 0, 62, 0
1, 25800, Note_on_c, 0, 50, 0
1, 25800, Note_on_c, 0, 38, 0
1, 25920, Tempo, 454545
1, 25920, Note_on_c, 0, 60, 65
1, 25920, Note_on_c, 0, 48, 65
1, 25920, Note_on_c, 0, 36, 54
1, 25935, Control_c, 0, 64, 127
1, 26000, Note_on_c, 0, 60, 0
1, 26000, Note_on_c, 0, 55, 55
1, 26080, Note_on_c, 0, 55, 0
1, 26080, Note_on_c, 0, 62, 56
1, 26160, Tempo, 470588
1, 26160, Note_on_c, 0, 62, 0
1, 26160, Note_on_c, 0, 63, 66
1, 26280, Note_on_c, 0, 63, 0
1, 26280, Note_on_c, 0, 60, 63
1, 26400, Tempo, 456274
1, 26400, Note_on_c, 0, 60, 0
1, 26400, Note_on_c, 0, 36, 0
1, 26400, Note_on_c, 0, 48, 0
1, 26400, Note_on_c, 0, 62, 67
1, 26400, Note_on_c, 0, 38, 54
1, 26400, Note_on_c, 0, 50, 64
1, 26404, Control_c, 0, 64, 0
1, 26467, Control_c, 0, 64, 127
1, 26480, Note_on_c, 0, 62, 0
1, 26480, Note_on_c, 0, 55, 58
1, 26560, Note_on_c, 0, 55, 0
1, 26560, Note_on_c, 0, 63, 58
1, 26640, Tempo, 552995
1, 26640, Note_on_c, 0, 63, 0
1, 26640, Note_on_c, 0, 65, 68
1, 26648, Control_c, 0, 64, 0
1, 26700, Note_on_c, 0, 65, 0
1, 26880, Tempo, 476190
1, 26880, Note_on_c, 0, 50, 0
1, 26880, Note_on_c, 0, 38, 0
1, 26880, Note_on_c, 0, 64, 70
1, 26880, Note_on_c, 0, 37, 58
1, 26880, Note_on_c, 0, 49, 70
1, 26895, Control_c, 0, 64, 127
1, 26960, Note_on_c, 0, 64, 0
1, 26960, Note_on_c, 0, 55, 60
1, 27040, Note_on_c, 0, 55, 0
1, 27040, Note_on_c, 0, 66, 60
1, 27120, Tempo, 560748
1, 27120, Note_on_c, 0, 66, 0
1, 27120, Note_on_c, 0, 67, 70
1, 27130, Control_c, 0, 64, 0
1, 27240, Note_on_c, 0, 67, 0
1, 27360, Tempo, 506329
1, 27360, Note_on_c, 0, 67, 75
1, 27427, Control_c, 0, 64, 127
1, 27440, Note_on_c, 0, 67, 0
1, 27440, Note_on_c, 0, 58, 65
1, 27520, Note_on_c, 0, 58, 0
1, 27520, Note_on_c, 0, 69, 64
1, 27600, Tempo, 638298
1, 27600, Note_on_c, 0, 69, 0
1, 27600, Note_on_c, 0, 49, 0
1, 27600, Note_on_c, 0, 37, 0
1, 27600, Note_on_c, 0, 70, 75
1, 27600, Note_on_c, 0, 37, 56
1, 27600, Note_on_c, 0, 49, 67
1, 27608, Control_c, 0, 64, 0
1, 27660, Note_on_c, 0, 49, 0
1, 27660, Note_on_c, 0, 37, 0
1, 27720, Note_on_c, 0, 70, 0
1, 27840, Tempo, 552995
1, 27840, Note_on_c, 0, 62, 73
1, 27840, Note_on_c, 0, 74, 86
1, 27840, Note_on_c, 0, 50, 85
1, 27840, Note_on_c, 0, 38, 72
1, 28320, Note_on_c, 0, 38, 0
1, 28320, Note_on_c, 0, 62, 0
1, 28320, Note_on_c, 0, 74, 0
1, 28320, Note_on_c, 0, 50, 0
1, 28320, Note_on_c, 0, 62, 66
1, 28320, Note_on_c, 0, 66, 78
1, 28320, Note_on_c, 0, 57, 66
1, 28320, Note_on_c, 0, 38, 64
1, 28320, Note_on_c, 0, 50, 77
1, 28800, Tempo, 468750
1, 28800, Note_on_c, 0, 50, 0
1, 28800, Note_on_c, 0, 57, 0
1, 28800, Note_on_c, 0, 62, 0
1, 28800, Note_on_c, 0, 66, 0
1, 28800, Note_on_c, 0, 38, 0
1, 28800, Note_on_c, 0, 64, 70
1, 28800, Note_on_c, 0, 49, 70
1, 28800, Note_on_c, 0, 37, 58
1, 28846, Control_c, 0, 64, 127
1, 28880, Note_on_c, 0, 64, 0
1, 28880, Note_on_c, 0, 55, 60
1, 28960, Note_on_c, 0, 55, 0
1, 28960, Note_on_c, 0, 66, 60
1, 29040, Tempo, 555556
1, 29040, Note_on_c, 0, 66, 0
1, 29040, Note_on_c, 0, 67, 70
1, 29048, Control_c, 0, 64, 0
1, 29160, Note_on_c, 0, 67, 0
1, 29280, Tempo, 497925
1, 29280, Note_on_c, 0, 67, 74
1, 29347, Control_c, 0, 64, 127
1, 29360, Note_on_c, 0, 67, 0
1, 29360, Note_on_c, 0, 58, 67
1, 29440, Note_on_c, 0, 58, 0
1, 29440, Note_on_c, 0, 69, 70
1, 29520, Tempo, 747198
1, 29520, Note_on_c, 0, 69, 0
1, 29520, Note_on_c, 0, 37, 0
1, 29520, Note_on_c, 0, 49, 0
1, 29520, Note_on_c, 0, 70, 82
1, 29520, Note_on_c, 0, 49, 67
1, 29520, Note_on_c, 0, 37, 56
1, 29528, Control_c, 0, 64, 0
1, 29580, Note_on_c, 0, 37, 0
1, 29580, Note_on_c, 0, 49, 0
1, 29640, Note_on_c, 0, 70, 0
1, 29760, Tempo, 604230
1, 29760, Note_on_c, 0, 74, 80
1, 29760, Note_on_c, 0, 70, 80
1, 29760, Note_on_c, 0, 79, 94
1, 29760, Note_on_c, 0, 38, 79
1, 29760, Note_on_c, 0, 50, 93
1, 29860, Control_c, 0, 64, 127
1, 30240, Tempo, 764331
1, 30240, Note_on_c, 0, 50, 0
1, 30240, Note_on_c, 0, 79, 0
1, 30240, Note_on_c, 0, 74, 0
1, 30240, Note_on_c, 0, 70, 0
1, 30240, Note_on_c, 0, 38, 0
1, 30240, Note_on_c, 0, 66, 72
1, 30240, Note_on_c, 0, 74, 85
1, 30240, Note_on_c, 0, 69, 72
1, 30240, Note_on_c, 0, 38, 70
1, 30240, Note_on_c, 0, 50, 84
1, 30250, Control_c, 0, 64, 0
1, 30364, Control_c, 0, 64, 127
1, 30720, Note_on_c, 0, 50, 0
1, 30720, Note_on_c, 0, 69, 0
1, 30720, Note_on_c, 0, 66, 0
1, 30720, Note_on_c, 0, 74, 0
1, 30720, Note_on_c, 0, 38, 0
1, 30720, Note_on_c, 0, 62, 72
1, 30720, Note_on_c, 0, 67, 85
1, 30720, Note_on_c, 0, 58, 72
1, 30720, Note_on_c, 0, 43, 84
1, 30720, Note_on_c, 0, 31, 70
1, 30725, Control_c, 0, 64, 0
1, 30934, Control_c, 0, 64, 127
1, 31200, Note_on_c, 0, 31, 0
1, 31200, Note_on_c, 0, 58, 0
1, 31200, Note_on_c, 0, 62, 0
1, 31200, Note_on_c, 0, 67, 0
1, 31200, Note_on_c, 0, 43, 0
1, 31334, Control_c, 0, 64, 0
1, 31677, Note_on_c, 0, 53, 43
1, 31680, Tempo, 742390
1, 31680, Marker_t, "Etwas langsamer"
1, 31680, Note_on_c, 0, 34, 50
1, 31680, Note_on_c, 0, 46, 50
1, 31680, Control_c, 0, 64, 127
1, 31800, Note_on_c, 0, 50, 30
1, 31916, Note_on_c, 0, 55, 43
1, 31917, Note_on_c, 0, 53, 0
1, 31920, Note_on_c, 0, 50, 0
1, 32156, Note_on_c, 0, 55, 0
1, 32165, Note_on_c, 0, 57, 43
1, 32165, Control_c, 0, 64, 0
1, 32245, Control_c, 0, 64, 127
1, 32280, Note_on_c, 0, 50, 36
1, 32400, Note_on_c, 0, 50, 0
1, 32401, Note_on_c, 0, 58, 43
1, 32405, Note_on_c, 0, 57, 0
1, 32602, Tempo, 675524
1, 32616, Tempo, 711575
1, 32641, Note_on_c, 0, 58, 0
1, 32643, Control_c, 0, 64, 0
1, 32644, Note_on_c, 0, 60, 43
1, 32731, Tempo, 707380
1, 32746, Control_c, 0, 64, 127
1, 32760, Note_on_c, 0, 50, 31
1, 32827, Tempo, 703235
1, 32879, Note_on_c, 0, 62, 46
1, 32880, Note_on_c, 0, 50, 0
1, 32884, Note_on_c, 0, 60, 0
1, 32923, Tempo, 699138
1, 33038, Tempo, 695088
1, 33119, Note_on_c, 0, 62, 0
1, 33120, Note_on_c, 0, 46, 0
1, 33120, Note_on_c, 0, 34, 0
1, 33120, Note_on_c, 0, 48, 50
1, 33120, Note_on_c, 0, 32, 50
1, 33122, Note_on_c, 0, 63, 49
1, 33126, Control_c, 0, 64, 0
1, 33134, Tempo, 691085
1, 33176, Control_c, 0, 64, 127
1, 33230, Tempo, 687128
1, 33240, Note_on_c, 0, 50, 31
1, 33332, Tempo, 668003
1, 33358, Note_on_c, 0, 65, 56
1, 33360, Tempo, 786164
1, 33360, Note_on_c, 0, 50, 0
1, 33362, Note_on_c, 0, 63, 0
1, 33480, Tempo, 837989
1, 33598, Note_on_c, 0, 65, 0
1, 33600, Tempo, 788436
1, 33600, Note_on_c, 0, 32, 0
1, 33600, Note_on_c, 0, 48, 0
1, 33600, Note_on_c, 0, 47, 50
1, 33600, Note_on_c, 0, 31, 50
1, 33600, Control_c, 0, 64, 0
1, 33620, Note_on_c, 0, 67, 69
1, 33720, Tempo, 726392
1, 33720, Note_on_c, 0, 50, 35
1, 33720, Control_c, 0, 64, 127
1, 33840, Note_on_c, 0, 50, 0
1, 33840, Note_on_c, 0, 65, 59
1, 34080, Tempo, 709220
1, 34080, Note_on_c, 0, 65, 0
1, 34080, Note_on_c, 0, 63, 56
1, 34092, Control_c, 0, 64, 0
1, 34186, Control_c, 0, 64, 127
1, 34200, Note_on_c, 0, 50, 32
1, 34320, Note_on_c, 0, 50, 0
1, 34320, Note_on_c, 0, 63, 0
1, 34320, Note_on_c, 0, 62, 50
1, 34550, Note_on_c, 0, 67, 0
1, 34560, Tempo, 711575
1, 34560, Note_on_c, 0, 62, 0
1, 34560, Note_on_c, 0, 67, 59
1, 34560, Note_on_c, 0, 60, 43
1, 34566, Control_c, 0, 64, 0
1, 34617, Control_c, 0, 64, 127
1, 34680, Note_on_c, 0, 50, 30
1, 34800, Note_on_c, 0, 50, 0
1, 34800, Note_on_c, 0, 60, 0
1, 34800, Note_on_c, 0, 59, 41
1, 35040, Tempo, 703235
1, 35040, Note_on_c, 0, 59, 0
1, 35040, Note_on_c, 0, 67, 0
1, 35040, Note_on_c, 0, 31, 0
1, 35040, Note_on_c, 0, 47, 0
1, 35040, Note_on_c, 0, 57, 43
1, 35042, Note_on_c, 0, 69, 55
1, 35046, Control_c, 0, 64, 0
1, 35072, Control_c, 0, 64, 127
1, 35160, Note_on_c, 0, 50, 30
1, 35279, Note_on_c, 0, 71, 59
1, 35280, Tempo, 733317
1, 35280, Note_on_c, 0, 50, 0
1, 35280, Note_on_c, 0, 57, 0
1, 35280, Note_on_c, 0, 55, 40
1, 35282, Note_on_c, 0, 69, 0
1, 35400, Tempo, 847218
1, 35460, Note_on_c, 0, 63, 60
1, 35519, Note_on_c, 0, 71, 0
1, 35520, Tempo, 720115
1, 35520, Note_on_c, 0, 55, 0
1, 35520, Note_on_c, 0, 48, 45
1, 35520, Control_c, 0, 64, 0
1, 35540, Note_on_c, 0, 75, 69
1, 35633, Control_c, 0, 64, 127
1, 35640, Note_on_c, 0, 36, 31
1, 35760, Note_on_c, 0, 36, 0
1, 35760, Note_on_c, 0, 48, 0
1, 35760, Note_on_c, 0, 50, 42
1, 36000, Tempo, 707380
1, 36000, Note_on_c, 0, 50, 0
1, 36000, Note_on_c, 0, 51, 47
1, 36012, Control_c, 0, 64, 0
1, 36106, Control_c, 0, 64, 127
1, 36120, Note_on_c, 0, 48, 32
1, 36240, Note_on_c, 0, 48, 0
1, 36240, Note_on_c, 0, 51, 0
1, 36240, Note_on_c, 0, 53, 42
1, 36480, Tempo, 699138
1, 36480, Note_on_c, 0, 53, 0
1, 36480, Note_on_c, 0, 55, 48
1, 36480, Control_c, 0, 64, 0
1, 36533, Control_c, 0, 64, 127
1, 36600, Note_on_c, 0, 48, 32
1, 36720, Note_on_c, 0, 48, 0
1, 36720, Note_on_c, 0, 63, 0
1, 36720, Note_on_c, 0, 75, 0
1, 36720, Note_on_c, 0, 55, 0
1, 36720, Note_on_c, 0, 74, 51
1, 36720, Note_on_c, 0, 57, 39
1, 36960, Tempo, 724463
1, 36960, Note_on_c, 0, 57, 0
1, 36960, Note_on_c, 0, 59, 42
1, 36966, Control_c, 0, 64, 0
1, 37013, Control_c, 0, 64, 127
1, 37056, Note_on_c, 0, 74, 0
1, 37056, Note_on_c, 0, 72, 55
1, 37094, Tempo, 720115
1, 37118, Tempo, 724463
1, 37120, Note_on_c, 0, 59, 0
1, 37120, Note_on_c, 0, 60, 47
1, 37142, Tempo, 733317
1, 37152, Note_on_c, 0, 72, 0
1, 37152, Note_on_c, 0, 70, 53
1, 37166, Tempo, 737826
1, 37190, Tempo, 747012
1, 37214, Tempo, 751691
1, 37238, Tempo, 761228
1, 37248, Note_on_c, 0, 70, 0
1, 37248, Note_on_c, 0, 69, 51
1, 37262, Tempo, 771010
1, 37280, Note_on_c, 0, 60, 0
1, 37280, Note_on_c, 0, 62, 52
1, 37281, Tempo, 786164
1, 37300, Tempo, 796601
1, 37320, Tempo, 841279
1, 37330, Tempo, 900901
1, 37344, Note_on_c, 0, 69, 0
1, 37344, Note_on_c, 0, 67, 50
1, 37345, Tempo, 966184
1, 37360, Tempo, 1041667
1, 37375, Tempo, 1129944
1, 37390, Tempo, 1234568
1, 37405, Tempo, 1360544
1, 37411, Tempo, 751691
1, 37440, Tempo, 733317
1, 37440, Note_on_c, 0, 67, 0
1, 37440, Note_on_c, 0, 62, 0
1, 37440, Note_on_c, 0, 57, 57
1, 37440, Note_on_c, 0, 41, 57
1, 37440, Control_c, 0, 64, 0
1, 37447, Note_on_c, 0, 63, 59
1, 37450, Note_on_c, 0, 65, 59
1, 37539, Control_c, 0, 64, 127
1, 37560, Note_on_c, 0, 53, 32
1, 37680, Note_on_c, 0, 53, 0
1, 37682, Note_on_c, 0, 62, 53
1, 37687, Note_on_c, 0, 63, 0
1, 37920, Tempo, 699138
1, 37922, Note_on_c, 0, 62, 0
1, 37922, Note_on_c, 0, 60, 49
1, 37928, Control_c, 0, 64, 0
1, 37991, Control_c, 0, 64, 127
1, 38040, Note_on_c, 0, 53, 32
1, 38153, Note_on_c, 0, 58, 48
1, 38160, Note_on_c, 0, 53, 0
1, 38162, Note_on_c, 0, 60, 0
1, 38393, Note_on_c, 0, 58, 0
1, 38400, Note_on_c, 0, 57, 0
1, 38400, Note_on_c, 0, 57, 47
1, 38405, Control_c, 0, 64, 0
1, 38460, Control_c, 0, 64, 127
1, 38520, Note_on_c, 0, 53, 32
1, 38640, Note_on_c, 0, 53, 0
1, 38640, Note_on_c, 0, 57, 0
1, 38640, Note_on_c, 0, 55, 43
1, 38870, Tempo, 720115
1, 38880, Note_on_c, 0, 55, 0
1, 38880, Note_on_c, 0, 53, 46
1, 38886, Control_c, 0, 64, 0
1, 38894, Tempo, 724463
1, 38918, Tempo, 728863
1, 38926, Control_c, 0, 64, 127
1, 38942, Tempo, 733317
1, 38966, Tempo, 737826
1, 38976, Note_on_c, 0, 65, 0
1, 38976, Note_on_c, 0, 67, 42
1, 38990, Tempo, 742390
1, 39000, Note_on_c, 0, 53, 0
1, 39000, Note_on_c, 0, 51, 45
1, 39014, Tempo, 747012
1, 39038, Tempo, 751691
1, 39062, Tempo, 756430
1, 39072, Note_on_c, 0, 67, 0
1, 39072, Note_on_c, 0, 69, 46
1, 39086, Tempo, 761228
1, 39110, Tempo, 775996
1, 39120, Note_on_c, 0, 51, 0
1, 39120, Note_on_c, 0, 50, 44
1, 39134, Tempo, 791348
1, 39158, Tempo, 807320
1, 39168, Note_on_c, 0, 69, 0
1, 39168, Note_on_c, 0, 70, 50
1, 39182, Tempo, 823949
1, 39201, Tempo, 841279
1, 39220, Tempo, 853242
1, 39240, Tempo, 859353
1, 39240, Note_on_c, 0, 50, 0
1, 39240, Note_on_c, 0, 48, 42
1, 39259, Tempo, 871840
1, 39264, Tempo, 823949
1, 39264, Note_on_c, 0, 70, 0
1, 39264, Note_on_c, 0, 72, 54
1, 39284, Tempo, 962773
1, 39303, Tempo, 986518
1, 39322, Tempo, 1011463
1, 39341, Tempo, 1037703
1, 39360, Tempo, 703235
1, 39360, Note_on_c, 0, 72, 0
1, 39360, Note_on_c, 0, 48, 0
1, 39360, Note_on_c, 0, 41, 0
1, 39360, Note_on_c, 0, 34, 34
1, 39360, Note_on_c, 0, 46, 41
1, 39360, Control_c, 0, 64, 0
1, 39380, Note_on_c, 0, 74, 63
1, 39445, Control_c, 0, 64, 127
1, 39480, Note_on_c, 0, 62, 32
1, 39600, Tempo, 660647
1, 39600, Note_on_c, 0, 62, 0
1, 39600, Note_on_c, 0, 74, 0
1, 39600, Note_on_c, 0, 72, 56
1, 39720, Tempo, 907716
1, 39840, Tempo, 747012
1, 39840, Note_on_c, 0, 72, 0
1, 39840, Note_on_c, 0, 46, 0
1, 39840, Note_on_c, 0, 34, 0
1, 39840, Note_on_c, 0, 70, 63
1, 39845, Note_on_c, 0, 79, 65
1, 39861, Control_c, 0, 64, 0
1, 39939, Control_c, 0, 64, 127
1, 39960, Note_on_c, 0, 58, 32
1, 40080, Tempo, 699138
1, 40080, Note_on_c, 0, 58, 0
1, 40080, Note_on_c, 0, 70, 0
1, 40080, Note_on_c, 0, 69, 54
1, 40320, Tempo, 737826
1, 40320, Note_on_c, 0, 69, 0
1, 40320, Note_on_c, 0, 67, 48
1, 40320, Control_c, 0, 64, 0
1, 40387, Control_c, 0, 64, 127
1, 40440, Note_on_c, 0, 58, 37
1, 40560, Note_on_c, 0, 67, 0
1, 40560, Note_on_c, 0, 65, 44
1, 40560, Note_on_c, 0, 77, 52
1, 40565, Note_on_c, 0, 79, 0
1, 40800, Tempo, 835422
1, 40800, Note_on_c, 0, 77, 0
1, 40800, Note_on_c, 0, 65, 0
1, 40800, Note_on_c, 0, 64, 47
1, 40800, Note_on_c, 0, 76, 56
1, 40806, Control_c, 0, 64, 0
1, 40847, Control_c, 0, 64, 127
1, 40920, Tempo, 730816
1, 40920, Note_on_c, 0, 76, 0
1, 40920, Note_on_c, 0, 77, 44
1, 40980, Note_on_c, 0, 77, 0
1, 40980, Note_on_c, 0, 76, 35
1, 41040, Tempo, 881057
1, 41040, Note_on_c, 0, 76, 0
1, 41040, Note_on_c, 0, 64, 0
1, 41040, Note_on_c, 0, 62, 45
1, 41042, Note_on_c, 0, 74, 53
1, 41160, Note_on_c, 0, 62, 0
1, 41161, Note_on_c, 0, 72, 48
1, 41162, Note_on_c, 0, 60, 40
1, 41162, Note_on_c, 0, 74, 0
1, 41278, Note_on_c, 0, 72, 0
1, 41280, Tempo, 709220
1, 41280, Note_on_c, 0, 58, 0
1, 41280, Note_on_c, 0, 72, 53
1, 41280, Note_on_c, 0, 45, 41
1, 41280, Control_c, 0, 64, 0
1, 41282, Note_on_c, 0, 60, 0
1, 41365, Control_c, 0, 64, 127
1, 41400, Note_on_c, 0, 60, 32
1, 41520, Tempo, 749064
1, 41520, Note_on_c, 0, 60, 0
1, 41520, Note_on_c, 0, 72, 0
1, 41520, Note_on_c, 0, 70, 53
1, 41640, Tempo, 855920
1, 41760, Tempo, 728863
1, 41760, Note_on_c, 0, 70, 0
1, 41760, Note_on_c, 0, 45, 0
1, 41760, Note_on_c, 0, 69, 49
1, 41765, Note_on_c, 0, 77, 58
1, 41781, Control_c, 0, 64, 0
1, 41859, Control_c, 0, 64, 127
1, 41880, Note_on_c, 0, 57, 32
1, 42000, Note_on_c, 0, 57, 0
1, 42000, Note_on_c, 0, 69, 0
1, 42000, Note_on_c, 0, 67, 54
1, 42240, Tempo, 751691
1, 42240, Note_on_c, 0, 67, 0
1, 42240, Note_on_c, 0, 65, 48
1, 42240, Control_c, 0, 64, 0
1, 42307, Control_c, 0, 64, 127
1, 42360, Note_on_c, 0, 57, 37
1, 42480, Tempo, 801925
1, 42480, Note_on_c, 0, 65, 0
1, 42480, Note_on_c, 0, 76, 52
1, 42480, Note_on_c, 0, 64, 44
1, 42485, Note_on_c, 0, 77, 0
1, 42720, Tempo, 932836
1, 42720, Note_on_c, 0, 64, 0
1, 42720, Note_on_c, 0, 76, 0
1, 42720, Note_on_c, 0, 62, 47
1, 42720, Note_on_c, 0, 74, 56
1, 42720, Note_on_c, 0, 56, 41
1, 42720, Note_on_c, 0, 47, 41
1, 42726, Control_c, 0, 64, 0
1, 42767, Control_c, 0, 64, 127
1, 42840, Tempo, 874636
1, 42840, Note_on_c, 0, 74, 0
1, 42840, Note_on_c, 0, 76, 43
1, 42870, Note_on_c, 0, 76, 0
1, 42870, Note_on_c, 0, 74, 44
1, 42900, Note_on_c, 0, 74, 0
1, 42900, Note_on_c, 0, 73, 45
1, 42930, Note_on_c, 0, 73, 0
1, 42930, Note_on_c, 0, 74, 46
1, 42958, Note_on_c, 0, 76, 54
1, 42960, Tempo, 928793
1, 42960, Note_on_c, 0, 74, 0
1, 42960, Note_on_c, 0, 62, 0
1, 42962, Note_on_c, 0, 64, 45
1, 43078, Note_on_c, 0, 76, 0
1, 43080, Tempo, 1060071
1, 43081, Note_on_c, 0, 65, 46
1, 43082, Note_on_c, 0, 64, 0
1, 43082, Note_on_c, 0, 77, 55
1, 43198, Note_on_c, 0, 77, 0
1, 43200, Tempo, 878220
1, 43200, Note_on_c, 0, 57, 0
1, 43200, Note_on_c, 0, 56, 0
1, 43200, Note_on_c, 0, 47, 0
1, 43200, Note_on_c, 0, 77, 61
1, 43200, Note_on_c, 0, 60, 41
1, 43200, Note_on_c, 0, 57, 41
1, 43200, Note_on_c, 0, 48, 41
1, 43200, Control_c, 0, 64, 0
1, 43201, Note_on_c, 0, 65, 0
1, 43292, Control_c, 0, 64, 127
1, 43320, Note_on_c, 0, 65, 37
1, 43440, Tempo, 841279
1, 43440, Note_on_c, 0, 65, 0
1, 43440, Note_on_c, 0, 77, 0
1, 43440, Note_on_c, 0, 76, 53
1, 43680, Tempo, 775996
1, 43680, Note_on_c, 0, 76, 0
1, 43680, Note_on_c, 0, 74, 58
1, 43680, Control_c, 0, 64, 0
1, 43758, Control_c, 0, 64, 127
1, 43800, Note_on_c, 0, 65, 30
1, 43920, Tempo, 859353
1, 43920, Note_on_c, 0, 65, 0
1, 44040, Note_on_c, 0, 74, 0
1, 44040, Note_on_c, 0, 72, 52
1, 44160, Tempo, 823949
1, 44160, Note_on_c, 0, 72, 0
1, 44160, Note_on_c, 0, 48, 0
1, 44160, Note_on_c, 0, 60, 0
1, 44160, Note_on_c, 0, 57, 0
1, 44160, Note_on_c, 0, 72, 58
1, 44160, Note_on_c, 0, 58, 41
1, 44160, Note_on_c, 0, 64, 41
1, 44160, Note_on_c, 0, 48, 41
1, 44160, Control_c, 0, 64, 0
1, 44252, Control_c, 0, 64, 127
1, 44280, Note_on_c, 0, 60, 37
1, 44400, Note_on_c, 0, 60, 0
1, 44400, Note_on_c, 0, 72, 0
1, 44400, Note_on_c, 0, 70, 53
1, 44640, Note_on_c, 0, 70, 0
1, 44640, Note_on_c, 0, 69, 58
1, 44640, Control_c, 0, 64, 0
1, 44718, Control_c, 0, 64, 127
1, 44760, Note_on_c, 0, 60, 31
1, 44880, Tempo, 853242
1, 44880, Note_on_c, 0, 60, 0
1, 45000, Note_on_c, 0, 69, 0
1, 45000, Note_on_c, 0, 67, 52
1, 45120, Tempo, 823949
1, 45120, Note_on_c, 0, 67, 0
1, 45120, Note_on_c, 0, 48, 0
1, 45120, Note_on_c, 0, 64, 0
1, 45120, Note_on_c, 0, 58, 0
1, 45120, Note_on_c, 0, 67, 43
1, 45120, Control_c, 0, 64, 0
1, 45121, Note_on_c, 0, 53, 43
1, 45123, Note_on_c, 0, 60, 43
1, 45226, Control_c, 0, 64, 127
1, 45240, Note_on_c, 0, 58, 37
1, 45360, Note_on_c, 0, 52, 43
1, 45361, Note_on_c, 0, 53, 0
1, 45598, Note_on_c, 0, 50, 43
1, 45600, Note_on_c, 0, 52, 0
1, 45611, Control_c, 0, 64, 0
1, 45720, Note_on_c, 0, 58, 0
1, 45720, Note_on_c, 0, 58, 37
1, 45734, Control_c, 0, 64, 127
1, 45838, Note_on_c, 0, 50, 0
1, 45840, Note_on_c, 0, 48, 43
1, 46036, Tempo, 823949
1, 46075, Tempo, 829646
1, 46080, Note_on_c, 0, 48, 0
1, 46080, Note_on_c, 0, 58, 0
1, 46080, Note_on_c, 0, 67, 0
1, 46080, Note_on_c, 0, 65, 43
1, 46080, Control_c, 0, 64, 0
1, 46087, Note_on_c, 0, 53, 43
1, 46113, Tempo, 835422
1, 46152, Tempo, 841279
1, 46172, Control_c, 0, 64, 127
1, 46190, Tempo, 847218
1, 46200, Note_on_c, 0, 57, 31
1, 46228, Tempo, 853242
1, 46248, Tempo, 859353
1, 46286, Tempo, 865551
1, 46320, Note_on_c, 0, 65, 0
1, 46320, Note_on_c, 0, 63, 43
1, 46324, Tempo, 871840
1, 46363, Tempo, 878220
1, 46401, Tempo, 884695
1, 46440, Tempo, 891266
1, 46459, Tempo, 897935
1, 46497, Tempo, 904704
1, 46536, Tempo, 911577
1, 46560, Note_on_c, 0, 63, 0
1, 46560, Note_on_c, 0, 57, 0
1, 46560, Note_on_c, 0, 62, 47
1, 46560, Note_on_c, 0, 41, 43
1, 46563, Note_on_c, 0, 60, 0
1, 46574, Tempo, 918555
1, 46612, Tempo, 925640
1, 46617, Control_c, 0, 64, 0
1, 46632, Tempo, 932836
1, 46670, Tempo, 940144
1, 46680, Note_on_c, 0, 51, 31
1, 46708, Tempo, 947568
1, 46730, Control_c, 0, 64, 127
1, 46747, Tempo, 955110
1, 46785, Tempo, 962773
1, 46800, Note_on_c, 0, 62, 0
1, 46800, Note_on_c, 0, 61, 40
1, 46824, Tempo, 970560
1, 46843, Tempo, 978474
1, 46881, Tempo, 986518
1, 46920, Tempo, 994695
1, 46958, Tempo, 1003009
1, 46996, Tempo, 1011463
1, 47016, Tempo, 1020061
1, 47035, Note_on_c, 0, 53, 43
1, 47040, Tempo, 742390
1, 47040, Note_on_c, 0, 41, 0
1, 47040, Note_on_c, 0, 51, 0
1, 47040, Note_on_c, 0, 46, 50
1, 47040, Note_on_c, 0, 34, 50
1, 47041, Note_on_c, 0, 53, 0
1, 47046, Control_c, 0, 64, 0
1, 47125, Control_c, 0, 64, 127
1, 47160, Note_on_c, 0, 50, 30
1, 47273, Note_on_c, 0, 55, 43
1, 47275, Note_on_c, 0, 53, 0
1, 47280, Note_on_c, 0, 50, 0
1, 47280, Note_on_c, 0, 61, 0
1, 47280, Note_on_c, 0, 62, 43
1, 47513, Note_on_c, 0, 55, 0
1, 47520, Tempo, 719770
1, 47520, Note_on_c, 0, 62, 0
1, 47525, Note_on_c, 0, 57, 43
1, 47525, Control_c, 0, 64, 0
1, 47605, Control_c, 0, 64, 127
1, 47640, Note_on_c, 0, 50, 36
1, 47760, Note_on_c, 0, 50, 0
1, 47765, Note_on_c, 0, 57, 0
1, 47765, Note_on_c, 0, 58, 43
1, 47999, Note_on_c, 0, 60, 43
1, 48000, Tempo, 719770
1, 48003, Control_c, 0, 64, 0
1, 48005, Note_on_c, 0, 58, 0
1, 48091, Tempo, 707380
1, 48106, Control_c, 0, 64, 127
1, 48120, Note_on_c, 0, 50, 31
1, 48187, Tempo, 703235
1, 48236, Note_on_c, 0, 62, 46
1, 48239, Note_on_c, 0, 60, 0
1, 48240, Note_on_c, 0, 50, 0
1, 48283, Tempo, 699138
1, 48398, Tempo, 695088
1, 48476, Note_on_c, 0, 62, 0
1, 48480, Note_on_c, 0, 34, 0
1, 48480, Note_on_c, 0, 46, 0
1, 48480, Note_on_c, 0, 48, 50
1, 48480, Note_on_c, 0, 32, 50
1, 48486, Control_c, 0, 64, 0
1, 48487, Note_on_c, 0, 63, 49
1, 48494, Tempo, 691085
1, 48536, Control_c, 0, 64, 127
1, 48590, Tempo, 687128
1, 48600, Note_on_c, 0, 50, 31
1, 48692, Tempo, 668003
1, 48720, Tempo, 786164
1, 48720, Note_on_c, 0, 50, 0
1, 48725, Note_on_c, 0, 65, 56
1, 48727, Note_on_c, 0, 63, 0
1, 48780, Tempo, 849858
1, 48840, Tempo, 894188
1, 48922, Tempo, 683216
1, 48960, Tempo, 735294
1, 48960, Note_on_c, 0, 48, 0
1, 48960, Note_on_c, 0, 32, 0
1, 48960, Note_on_c, 0, 31, 50
1, 48960, Note_on_c, 0, 47, 50
1, 48960, Control_c, 0, 64, 0
1, 48965, Note_on_c, 0, 65, 0
1, 48985, Note_on_c, 0, 67, 67
1, 49080, Tempo, 709220
1, 49080, Note_on_c, 0, 50, 35
1, 49080, Control_c, 0, 64, 127
1, 49200, Note_on_c, 0, 50, 0
1, 49200, Note_on_c, 0, 65, 59
1, 49440, Note_on_c, 0, 65, 0
1, 49440, Note_on_c, 0, 63, 56
1, 49452, Control_c, 0, 64, 0
1, 49546, Control_c, 0, 64, 127
1, 49560, Note_on_c, 0, 50, 32
1, 49680, Note_on_c, 0, 50, 0
1, 49680, Note_on_c, 0, 63, 0
1, 49680, Note_on_c, 0, 62, 50
1, 49919, Note_on_c, 0, 67, 0
1, 49920, Tempo, 711575
1, 49920, Note_on_c, 0, 62, 0
1, 49920, Note_on_c, 0, 67, 59
1, 49920, Note_on_c, 0, 60, 43
1, 49926, Control_c, 0, 64, 0
1, 49977, Control_c, 0, 64, 127
1, 50040, Note_on_c, 0, 50, 30
1, 50160, Note_on_c, 0, 50, 0
1, 50160, Note_on_c, 0, 60, 0
1, 50160, Note_on_c, 0, 59, 41
1, 50400, Tempo, 703235
1, 50400, Note_on_c, 0, 59, 0
1, 50400, Note_on_c, 0, 67, 0
1, 50400, Note_on_c, 0, 47, 0
1, 50400, Note_on_c, 0, 31, 0
1, 50400, Note_on_c, 0, 57, 43
1, 50405, Note_on_c, 0, 69, 55
1, 50406, Control_c, 0, 64, 0
1, 50432, Control_c, 0, 64, 127
1, 50520, Note_on_c, 0, 50, 30
1, 50640, Tempo, 733317
1, 50640, Note_on_c, 0, 50, 0
1, 50640, Note_on_c, 0, 57, 0
1, 50640, Note_on_c, 0, 55, 40
1, 50643, Note_on_c, 0, 71, 59
1, 50645, Note_on_c, 0, 69, 0
1, 50760, Tempo, 847218
1, 50820, Note_on_c, 0, 63, 60
1, 50880, Tempo, 720115
1, 50880, Note_on_c, 0, 55, 0
1, 50880, Note_on_c, 0, 48, 45
1, 50880, Control_c, 0, 64, 0
1, 50883, Note_on_c, 0, 71, 0
1, 50885, Note_on_c, 0, 75, 69
1, 50993, Control_c, 0, 64, 127
1, 51000, Note_on_c, 0, 36, 31
1, 51120, Note_on_c, 0, 36, 0
1, 51120, Note_on_c, 0, 48, 0
1, 51120, Note_on_c, 0, 50, 42
1, 51360, Tempo, 707380
1, 51360, Note_on_c, 0, 50, 0
1, 51360, Note_on_c, 0, 51, 47
1, 51372, Control_c, 0, 64, 0
1, 51466, Control_c, 0, 64, 127
1, 51480, Note_on_c, 0, 48, 32
1, 51600, Note_on_c, 0, 48, 0
1, 51600, Note_on_c, 0, 51, 0
1, 51600, Note_on_c, 0, 53, 42
1, 51840, Tempo, 699138
1, 51840, Note_on_c, 0, 53, 0
1, 51840, Note_on_c, 0, 55, 48
1, 51840, Control_c, 0, 64, 0
1, 51893, Control_c, 0, 64, 127
1, 51960, Note_on_c, 0, 48, 32
1, 52080, Note_on_c, 0, 48, 0
1, 52080, Note_on_c, 0, 63, 0
1, 52080, Note_on_c, 0, 75, 0
1, 52080, Note_on_c, 0, 55, 0
1, 52080, Note_on_c, 0, 74, 51
1, 52080, Note_on_c, 0, 57, 39
1, 52320, Tempo, 724463
1, 52320, Note_on_c, 0, 57, 0
1, 52320, Note_on_c, 0, 59, 42
1, 52326, Control_c, 0, 64, 0
1, 52373, Control_c, 0, 64, 127
1, 52416, Note_on_c, 0, 74, 0
1, 52416, Note_on_c, 0, 72, 55
1, 52454, Tempo, 720115
1, 52478, Tempo, 724463
1, 52480, Note_on_c, 0, 59, 0
1, 52480, Note_on_c, 0, 60, 47
1, 52502, Tempo, 733317
1, 52512, Note_on_c, 0, 72, 0
1, 52512, Note_on_c, 0, 70, 53
1, 52526, Tempo, 737826
1, 52550, Tempo, 747012
1, 52574, Tempo, 751691
1, 52598, Tempo, 761228
1, 52608, Note_on_c, 0, 70, 0
1, 52608, Note_on_c, 0, 69, 51
1, 52622, Tempo, 771010
1, 52640, Note_on_c, 0, 60, 0
1, 52640, Note_on_c, 0, 62, 52
1, 52641, Tempo, 786164
1, 52660, Tempo, 796601
1, 52675, Tempo, 914634
1, 52690, Tempo, 943396
1, 52704, Note_on_c, 0, 69, 0
1, 52704, Note_on_c, 0, 67, 50
1, 52705, Tempo, 974026
1, 52720, Tempo, 1006711
1, 52735, Tempo, 1041667
1, 52750, Tempo, 1079137
1, 52765, Tempo, 1129944
1, 52771, Tempo, 751691
1, 52793, Note_on_c, 0, 63, 59
1, 52800, Tempo, 733317
1, 52800, Note_on_c, 0, 67, 0
1, 52800, Note_on_c, 0, 62, 0
1, 52800, Note_on_c, 0, 41, 57
1, 52800, Note_on_c, 0, 57, 57
1, 52800, Control_c, 0, 64, 0
1, 52810, Note_on_c, 0, 65, 59
1, 52899, Control_c, 0, 64, 127
1, 52920, Note_on_c, 0, 53, 32
1, 53033, Note_on_c, 0, 63, 0
1, 53037, Note_on_c, 0, 62, 53
1, 53040, Note_on_c, 0, 53, 0
1, 53277, Note_on_c, 0, 62, 0
1, 53280, Tempo, 699138
1, 53285, Note_on_c, 0, 60, 49
1, 53288, Control_c, 0, 64, 0
1, 53351, Control_c, 0, 64, 127
1, 53400, Note_on_c, 0, 53, 32
1, 53514, Note_on_c, 0, 58, 48
1, 53520, Note_on_c, 0, 53, 0
1, 53525, Note_on_c, 0, 60, 0
1, 53754, Note_on_c, 0, 58, 0
1, 53757, Note_on_c, 0, 57, 0
1, 53760, Note_on_c, 0, 57, 47
1, 53765, Control_c, 0, 64, 0
1, 53820, Control_c, 0, 64, 127
1, 53880, Note_on_c, 0, 53, 32
1, 53998, Note_on_c, 0, 55, 43
1, 54000, Note_on_c, 0, 57, 0
1, 54000, Note_on_c, 0, 53, 0
1, 54230, Tempo, 720115
1, 54238, Note_on_c, 0, 55, 0
1, 54240, Note_on_c, 0, 53, 46
1, 54246, Control_c, 0, 64, 0
1, 54254, Tempo, 724463
1, 54278, Tempo, 728863
1, 54286, Control_c, 0, 64, 127
1, 54302, Tempo, 733317
1, 54326, Tempo, 737826
1, 54336, Note_on_c, 0, 65, 0
1, 54336, Note_on_c, 0, 67, 42
1, 54350, Tempo, 742390
1, 54360, Note_on_c, 0, 53, 0
1, 54360, Note_on_c, 0, 51, 45
1, 54374, Tempo, 747012
1, 54398, Tempo, 751691
1, 54422, Tempo, 756430
1, 54432, Note_on_c, 0, 67, 0
1, 54432, Note_on_c, 0, 69, 46
1, 54446, Tempo, 761228
1, 54470, Tempo, 775996
1, 54480, Note_on_c, 0, 51, 0
1, 54480, Note_on_c, 0, 50, 44
1, 54494, Tempo, 791348
1, 54518, Tempo, 807320
1, 54528, Note_on_c, 0, 69, 0
1, 54528, Note_on_c, 0, 70, 50
1, 54542, Tempo, 823949
1, 54561, Tempo, 841279
1, 54580, Tempo, 853242
1, 54600, Tempo, 859353
1, 54600, Note_on_c, 0, 50, 0
1, 54600, Note_on_c, 0, 48, 42
1, 54619, Tempo, 871840
1, 54624, Tempo, 823949
1, 54624, Note_on_c, 0, 70, 0
1, 54624, Note_on_c, 0, 72, 54
1, 54644, Tempo, 962773
1, 54663, Tempo, 986518
1, 54682, Tempo, 1011463
1, 54701, Tempo, 1037703
1, 54720, Tempo, 703235
1, 54720, Note_on_c, 0, 72, 0
1, 54720, Note_on_c, 0, 48, 0
1, 54720, Note_on_c, 0, 41, 0
1, 54720, Note_on_c, 0, 46, 41
1, 54720, Note_on_c, 0, 34, 34
1, 54720, Control_c, 0, 64, 0
1, 54740, Note_on_c, 0, 74, 63
1, 54805, Control_c, 0, 64, 127
1, 54840, Note_on_c, 0, 62, 32
1, 54960, Tempo, 660647
1, 54960, Note_on_c, 0, 62, 0
1, 54960, Note_on_c, 0, 74, 0
1, 54960, Note_on_c, 0, 72, 56
1, 55080, Tempo, 841279
1, 55200, Tempo, 747012
1, 55200, Note_on_c, 0, 72, 0
1, 55200, Note_on_c, 0, 34, 0
1, 55200, Note_on_c, 0, 46, 0
1, 55200, Note_on_c, 0, 70, 63
1, 55205, Note_on_c, 0, 79, 63
1, 55221, Control_c, 0, 64, 0
1, 55299, Control_c, 0, 64, 127
1, 55320, Note_on_c, 0, 58, 32
1, 55440, Tempo, 699138
1, 55440, Note_on_c, 0, 58, 0
1, 55440, Note_on_c, 0, 70, 0
1, 55440, Note_on_c, 0, 69, 54
1, 55680, Tempo, 737826
1, 55680, Note_on_c, 0, 69, 0
1, 55680, Note_on_c, 0, 67, 48
1, 55680, Control_c, 0, 64, 0
1, 55747, Control_c, 0, 64, 127
1, 55800, Note_on_c, 0, 58, 37
1, 55920, Note_on_c, 0, 67, 0
1, 55920, Note_on_c, 0, 65, 44
1, 55921, Note_on_c, 0, 79, 0
1, 55924, Note_on_c, 0, 77, 52
1, 56160, Tempo, 835422
1, 56160, Note_on_c, 0, 65, 0
1, 56160, Note_on_c, 0, 64, 47
1, 56160, Note_on_c, 0, 76, 56
1, 56164, Note_on_c, 0, 77, 0
1, 56166, Control_c, 0, 64, 0
1, 56207, Control_c, 0, 64, 127
1, 56280, Tempo, 673401
1, 56280, Note_on_c, 0, 76, 0
1, 56280, Note_on_c, 0, 77, 39
1, 56340, Note_on_c, 0, 77, 0
1, 56340, Note_on_c, 0, 76, 36
1, 56396, Note_on_c, 0, 74, 53
1, 56400, Tempo, 796601
1, 56400, Note_on_c, 0, 76, 0
1, 56400, Note_on_c, 0, 64, 0
1, 56401, Note_on_c, 0, 62, 45
1, 56516, Note_on_c, 0, 74, 0
1, 56520, Tempo, 837989
1, 56521, Note_on_c, 0, 62, 0
1, 56521, Note_on_c, 0, 60, 40
1, 56527, Note_on_c, 0, 72, 48
1, 56639, Note_on_c, 0, 72, 0
1, 56640, Tempo, 695088
1, 56640, Note_on_c, 0, 58, 0
1, 56640, Note_on_c, 0, 72, 53
1, 56640, Note_on_c, 0, 45, 41
1, 56640, Control_c, 0, 64, 0
1, 56641, Note_on_c, 0, 60, 0
1, 56725, Control_c, 0, 64, 127
1, 56760, Note_on_c, 0, 60, 32
1, 56880, Tempo, 730816
1, 56880, Note_on_c, 0, 60, 0
1, 56880, Note_on_c, 0, 72, 0
1, 56880, Note_on_c, 0, 70, 53
1, 57000, Tempo, 837989
1, 57120, Tempo, 728863
1, 57120, Note_on_c, 0, 70, 0
1, 57120, Note_on_c, 0, 45, 0
1, 57120, Note_on_c, 0, 69, 49
1, 57124, Note_on_c, 0, 77, 58
1, 57141, Control_c, 0, 64, 0
1, 57219, Control_c, 0, 64, 127
1, 57240, Note_on_c, 0, 57, 32
1, 57360, Note_on_c, 0, 57, 0
1, 57360, Note_on_c, 0, 69, 0
1, 57360, Note_on_c, 0, 67, 54
1, 57600, Tempo, 751691
1, 57600, Note_on_c, 0, 67, 0
1, 57600, Note_on_c, 0, 65, 48
1, 57600, Control_c, 0, 64, 0
1, 57667, Control_c, 0, 64, 127
1, 57720, Note_on_c, 0, 57, 37
1, 57840, Tempo, 801925
1, 57840, Note_on_c, 0, 65, 0
1, 57840, Note_on_c, 0, 77, 0
1, 57840, Note_on_c, 0, 64, 44
1, 57840, Note_on_c, 0, 76, 52
1, 58080, Tempo, 1006711
1, 58080, Note_on_c, 0, 76, 0
1, 58080, Note_on_c, 0, 64, 0
1, 58080, Note_on_c, 0, 74, 56
1, 58080, Note_on_c, 0, 62, 47
1, 58080, Note_on_c, 0, 47, 41
1, 58080, Note_on_c, 0, 56, 41
1, 58086, Control_c, 0, 64, 0
1, 58127, Control_c, 0, 64, 127
1, 58200, Tempo, 837989
1, 58200, Note_on_c, 0, 74, 0
1, 58200, Note_on_c, 0, 76, 43
1, 58230, Note_on_c, 0, 76, 0
1, 58230, Note_on_c, 0, 74, 44
1, 58260, Note_on_c, 0, 74, 0
1, 58260, Note_on_c, 0, 73, 45
1, 58290, Note_on_c, 0, 73, 0
1, 58290, Note_on_c, 0, 74, 46
1, 58315, Note_on_c, 0, 76, 54
1, 58320, Tempo, 874636
1, 58320, Note_on_c, 0, 74, 0
1, 58320, Note_on_c, 0, 62, 0
1, 58321, Note_on_c, 0, 64, 45
1, 58435, Note_on_c, 0, 76, 0
1, 58439, Note_on_c, 0, 77, 55
1, 58440, Tempo, 1041667
1, 58441, Note_on_c, 0, 64, 0
1, 58444, Note_on_c, 0, 65, 46
1, 58559, Note_on_c, 0, 77, 0
1, 58560, Tempo, 878220
1, 58560, Note_on_c, 0, 47, 0
1, 58560, Note_on_c, 0, 57, 0
1, 58560, Note_on_c, 0, 56, 0
1, 58560, Note_on_c, 0, 77, 61
1, 58560, Note_on_c, 0, 57, 41
1, 58560, Note_on_c, 0, 48, 41
1, 58560, Note_on_c, 0, 60, 41
1, 58560, Control_c, 0, 64, 0
1, 58564, Note_on_c, 0, 65, 0
1, 58652, Control_c, 0, 64, 127
1, 58680, Note_on_c, 0, 65, 37
1, 58800, Tempo, 841279
1, 58800, Note_on_c, 0, 65, 0
1, 58800, Note_on_c, 0, 77, 0
1, 58800, Note_on_c, 0, 76, 53
1, 59040, Tempo, 775996
1, 59040, Note_on_c, 0, 76, 0
1, 59040, Note_on_c, 0, 74, 58
1, 59040, Control_c, 0, 64, 0
1, 59118, Control_c, 0, 64, 127
1, 59160, Note_on_c, 0, 65, 30
1, 59280, Tempo, 859353
1, 59280, Note_on_c, 0, 65, 0
1, 59400, Note_on_c, 0, 74, 0
1, 59400, Note_on_c, 0, 72, 52
1, 59520, Tempo, 823949
1, 59520, Note_on_c, 0, 72, 0
1, 59520, Note_on_c, 0, 60, 0
1, 59520, Note_on_c, 0, 57, 0
1, 59520, Note_on_c, 0, 48, 0
1, 59520, Note_on_c, 0, 72, 58
1, 59520, Note_on_c, 0, 64, 41
1, 59520, Note_on_c, 0, 58, 41
1, 59520, Note_on_c, 0, 48, 41
1, 59520, Control_c, 0, 64, 0
1, 59612, Control_c, 0, 64, 127
1, 59640, Note_on_c, 0, 60, 37
1, 59760, Note_on_c, 0, 60, 0
1, 59760, Note_on_c, 0, 72, 0
1, 59760, Note_on_c, 0, 70, 53
1, 60000, Note_on_c, 0, 70, 0
1, 60000, Note_on_c, 0, 69, 58
1, 60000, Control_c, 0, 64, 0
1, 60078, Control_c, 0, 64, 127
1, 60120, Note_on_c, 0, 60, 31
1, 60240, Tempo, 853242
1, 60240, Note_on_c, 0, 60, 0
1, 60360, Note_on_c, 0, 69, 0
1, 60360, Note_on_c, 0, 67, 52
1, 60479, Note_on_c, 0, 53, 43
1, 60480, Tempo, 823949
1, 60480, Note_on_c, 0, 67, 0
1, 60480, Note_on_c, 0, 64, 0
1, 60480, Note_on_c, 0, 48, 0
1, 60480, Note_on_c, 0, 58, 0
1, 60480, Note_on_c, 0, 67, 43
1, 60480, Note_on_c, 0, 60, 43
1, 60480, Control_c, 0, 64, 0
1, 60586, Control_c, 0, 64, 127
1, 60600, Note_on_c, 0, 58, 37
1, 60719, Note_on_c, 0, 53, 0
1, 60727, Note_on_c, 0, 52, 43
1, 60956, Note_on_c, 0, 50, 43
1, 60960, Tempo, 865052
1, 60967, Note_on_c, 0, 52, 0
1, 60971, Control_c, 0, 64, 0
1, 61080, Note_on_c, 0, 58, 0
1, 61080, Note_on_c, 0, 58, 37
1, 61094, Control_c, 0, 64, 127
1, 61196, Note_on_c, 0, 50, 0
1, 61200, Note_on_c, 0, 48, 43
1, 61200, Tempo, 954502
1, 61440, Note_on_c, 0, 48, 0
1, 61440, Tempo, 994036
1, 61440, Note_on_c, 0, 58, 0
1, 61440, Note_on_c, 0, 67, 0
1, 61440, Note_on_c, 0, 65, 43
1, 61440, Control_c, 0, 64, 0
1, 61445, Note_on_c, 0, 53, 43
1, 61532, Control_c, 0, 64, 127
1, 61560, Note_on_c, 0, 57, 31
1, 61920, Note_on_c, 0, 57, 0
1, 61920, Note_on_c, 0, 60, 0
1, 61920, Note_on_c, 0, 65, 0
1, 61925, Note_on_c, 0, 53, 0
1, 61977, Control_c, 0, 64, 0
1, 62340, Note_on_c, 0, 41, 50
1, 62376, Tempo, 1020061
1, 62395, Note_on_c, 0, 65, 43
1, 62400, Tempo, 707047
1, 62400, Note_on_c, 0, 57, 50
1, 62400, Control_c, 0, 64, 127
1, 62520, Note_on_c, 0, 63, 30
1, 62635, Note_on_c, 0, 65, 0
1, 62636, Note_on_c, 0, 67, 43
1, 62640, Note_on_c, 0, 63, 0
1, 62873, Note_on_c, 0, 69, 43
1, 62876, Note_on_c, 0, 67, 0
1, 62885, Control_c, 0, 64, 0
1, 62965, Control_c, 0, 64, 127
1, 63000, Note_on_c, 0, 63, 36
1, 63113, Note_on_c, 0, 69, 0
1, 63120, Note_on_c, 0, 63, 0
1, 63124, Note_on_c, 0, 70, 43
1, 63322, Tempo, 675524
1, 63336, Tempo, 711575
1, 63361, Note_on_c, 0, 72, 43
1, 63363, Control_c, 0, 64, 0
1, 63364, Note_on_c, 0, 70, 0
1, 63451, Tempo, 707380
1, 63466, Control_c, 0, 64, 127
1, 63480, Note_on_c, 0, 63, 31
1, 63547, Tempo, 703235
1, 63599, Note_on_c, 0, 74, 46
1, 63600, Note_on_c, 0, 63, 0
1, 63601, Note_on_c, 0, 72, 0
1, 63643, Tempo, 699138
1, 63758, Tempo, 695088
1, 63839, Note_on_c, 0, 74, 0
1, 63841, Note_on_c, 0, 75, 49
1, 63846, Control_c, 0, 64, 0
1, 63854, Tempo, 691085
1, 63896, Control_c, 0, 64, 127
1, 63950, Tempo, 687128
1, 63960, Note_on_c, 0, 63, 31
1, 64052, Tempo, 668003
1, 64077, Note_on_c, 0, 77, 56
1, 64080, Tempo, 775595
1, 64080, Note_on_c, 0, 63, 0
1, 64081, Note_on_c, 0, 75, 0
1, 64260, Note_on_c, 0, 39, 50
1, 64317, Note_on_c, 0, 77, 0
1, 64320, Tempo, 698812
1, 64320, Note_on_c, 0, 41, 0
1, 64320, Note_on_c, 0, 57, 0
1, 64320, Note_on_c, 0, 58, 50
1, 64320, Control_c, 0, 64, 0
1, 64330, Note_on_c, 0, 78, 62
1, 64440, Note_on_c, 0, 63, 35
1, 64440, Control_c, 0, 64, 127
1, 64560, Note_on_c, 0, 63, 0
1, 64563, Note_on_c, 0, 77, 59
1, 64570, Note_on_c, 0, 78, 0
1, 64795, Note_on_c, 0, 75, 56
1, 64800, Tempo, 698812
1, 64803, Note_on_c, 0, 77, 0
1, 64812, Control_c, 0, 64, 0
1, 64906, Control_c, 0, 64, 127
1, 64920, Note_on_c, 0, 63, 32
1, 65035, Note_on_c, 0, 75, 0
1, 65038, Note_on_c, 0, 73, 50
1, 65040, Note_on_c, 0, 63, 0
1, 65278, Note_on_c, 0, 73, 0
1, 65280, Tempo, 711575
1, 65280, Note_on_c, 0, 58, 0
1, 65280, Note_on_c, 0, 48, 50
1, 65281, Note_on_c, 0, 72, 43
1, 65286, Control_c, 0, 64, 0
1, 65337, Control_c, 0, 64, 127
1, 65400, Note_on_c, 0, 63, 30
1, 65520, Note_on_c, 0, 63, 0
1, 65521, Note_on_c, 0, 72, 0
1, 65524, Note_on_c, 0, 70, 41
1, 65760, Tempo, 703235
1, 65763, Note_on_c, 0, 69, 43
1, 65764, Note_on_c, 0, 70, 0
1, 65766, Control_c, 0, 64, 0
1, 65792, Control_c, 0, 64, 127
1, 65880, Note_on_c, 0, 63, 30
1, 66000, Tempo, 733317
1, 66000, Note_on_c, 0, 63, 0
1, 66003, Note_on_c, 0, 69, 0
1, 66008, Note_on_c, 0, 70, 40
1, 66120, Tempo, 847218
1, 66240, Tempo, 707047
1, 66240, Note_on_c, 0, 39, 0
1, 66240, Note_on_c, 0, 65, 36
1, 66240, Note_on_c, 0, 41, 42
1, 66247, Note_on_c, 0, 69, 36
1, 66248, Note_on_c, 0, 70, 0
1, 66249, Control_c, 0, 64, 0
1, 66311, Control_c, 0, 64, 127
1, 66360, Note_on_c, 0, 63, 25
1, 66480, Note_on_c, 0, 63, 0
1, 66480, Note_on_c, 0, 65, 0
1, 66482, Note_on_c, 0, 67, 36
1, 66487, Note_on_c, 0, 69, 0
1, 66713, Note_on_c, 0, 69, 36
1, 66722, Note_on_c, 0, 67, 0
1, 66725, Control_c, 0, 64, 0
1, 66805, Control_c, 0, 64, 127
1, 66840, Note_on_c, 0, 63, 30
1, 66953, Note_on_c, 0, 69, 0
1, 66960, Note_on_c, 0, 70, 36
1, 66960, Note_on_c, 0, 63, 0
1, 67162, Tempo, 675524
1, 67176, Tempo, 711575
1, 67197, Note_on_c, 0, 72, 36
1, 67200, Note_on_c, 0, 70, 0
1, 67203, Control_c, 0, 64, 0
1, 67291, Tempo, 707380
1, 67306, Control_c, 0, 64, 127
1, 67320, Note_on_c, 0, 63, 26
1, 67387, Tempo, 703235
1, 67433, Note_on_c, 0, 73, 39
1, 67437, Note_on_c, 0, 72, 0
1, 67440, Note_on_c, 0, 63, 0
1, 67440, Note_on_c, 0, 48, 0
1, 67440, Note_on_c, 0, 41, 0
1, 67483, Tempo, 699138
1, 67598, Tempo, 695088
1, 67673, Note_on_c, 0, 73, 0
1, 67681, Note_on_c, 0, 75, 41
1, 67686, Control_c, 0, 64, 0
1, 67694, Tempo, 691085
1, 67736, Control_c, 0, 64, 127
1, 67790, Tempo, 687128
1, 67800, Note_on_c, 0, 63, 26
1, 67892, Tempo, 668003
1, 67916, Note_on_c, 0, 77, 47
1, 67920, Tempo, 775595
1, 67920, Note_on_c, 0, 63, 0
1, 67921, Note_on_c, 0, 75, 0
1, 68100, Note_on_c, 0, 39, 42
1, 68156, Note_on_c, 0, 77, 0
1, 68160, Tempo, 698812
1, 68160, Note_on_c, 0, 58, 42
1, 68160, Control_c, 0, 64, 0
1, 68170, Note_on_c, 0, 78, 52
1, 68280, Note_on_c, 0, 63, 29
1, 68280, Control_c, 0, 64, 127
1, 68400, Note_on_c, 0, 63, 0
1, 68400, Note_on_c, 0, 77, 50
1, 68410, Note_on_c, 0, 78, 0
1, 68640, Tempo, 698812
1, 68640, Note_on_c, 0, 77, 0
1, 68640, Note_on_c, 0, 75, 47
1, 68652, Control_c, 0, 64, 0
1, 68746, Control_c, 0, 64, 127
1, 68760, Note_on_c, 0, 63, 27
1, 68880, Note_on_c, 0, 63, 0
1, 69000, Note_on_c, 0, 75, 0
1, 69000, Note_on_c, 0, 73, 42
1, 69120, Tempo, 711575
1, 69120, Note_on_c, 0, 73, 0
1, 69120, Note_on_c, 0, 58, 0
1, 69120, Note_on_c, 0, 39, 0
1, 69120, Note_on_c, 0, 42, 42
1, 69126, Control_c, 0, 64, 0
1, 69130, Note_on_c, 0, 73, 36
1, 69177, Control_c, 0, 64, 127
1, 69240, Note_on_c, 0, 63, 25
1, 69360, Note_on_c, 0, 63, 0
1, 69360, Note_on_c, 0, 72, 34
1, 69367, Note_on_c, 0, 73, 0
1, 69600, Tempo, 703235
1, 69600, Note_on_c, 0, 72, 0
1, 69600, Note_on_c, 0, 70, 36
1, 69606, Control_c, 0, 64, 0
1, 69632, Control_c, 0, 64, 127
1, 69660, Note_on_c, 0, 70, 0
1, 69660, Note_on_c, 0, 72, 36
1, 69720, Note_on_c, 0, 72, 0
1, 69720, Note_on_c, 0, 70, 41
1, 69720, Note_on_c, 0, 60, 41
1, 69840, Tempo, 733317
1, 69840, Note_on_c, 0, 60, 0
1, 69840, Note_on_c, 0, 44, 34
1, 69960, Tempo, 847218
1, 69960, Note_on_c, 0, 70, 0
1, 69960, Note_on_c, 0, 68, 34
1, 70080, Tempo, 707047
1, 70080, Note_on_c, 0, 68, 0
1, 70080, Note_on_c, 0, 44, 0
1, 70080, Note_on_c, 0, 42, 0
1, 70080, Note_on_c, 0, 49, 34
1, 70080, Note_on_c, 0, 41, 34
1, 70088, Tempo, 724113
1, 70090, Note_on_c, 0, 73, 36
1, 70126, Control_c, 0, 64, 0
1, 70200, Note_on_c, 0, 61, 36
1, 70207, Control_c, 0, 64, 127
1, 70232, Tempo, 719770
1, 70319, Note_on_c, 0, 51, 29
1, 70320, Note_on_c, 0, 49, 0
1, 70376, Tempo, 715478
1, 70496, Tempo, 711238
1, 70554, Note_on_c, 0, 53, 34
1, 70559, Note_on_c, 0, 51, 0
1, 70560, Note_on_c, 0, 41, 0
1, 70566, Control_c, 0, 64, 0
1, 70640, Tempo, 707047
1, 70680, Note_on_c, 0, 61, 0
1, 70680, Note_on_c, 0, 61, 36
1, 70680, Control_c, 0, 64, 127
1, 70760, Tempo, 702905
1, 70797, Note_on_c, 0, 54, 34
1, 70904, Tempo, 698812
1, 71024, Tempo, 694766
1, 71037, Note_on_c, 0, 54, 0
1, 71037, Note_on_c, 0, 56, 36
1, 71048, Control_c, 0, 64, 0
1, 71103, Control_c, 0, 64, 127
1, 71160, Note_on_c, 0, 61, 0
1, 71160, Note_on_c, 0, 61, 36
1, 71277, Note_on_c, 0, 56, 0
1, 71280, Note_on_c, 0, 58, 37
1, 71520, Note_on_c, 0, 58, 0
1, 71520, Note_on_c, 0, 73, 0
1, 71525, Note_on_c, 0, 60, 42
1, 71532, Control_c, 0, 64, 0
1, 71589, Control_c, 0, 64, 127
1, 71640, Note_on_c, 0, 61, 0
1, 71640, Note_on_c, 0, 61, 36
1, 71760, Note_on_c, 0, 61, 0
1, 71760, Note_on_c, 0, 61, 44
1, 71765, Note_on_c, 0, 60, 0
1, 71792, Tempo, 751315
1, 71880, Tempo, 939555
1, 71984, Tempo, 702905
1, 72005, Control_c, 0, 64, 0
1, 72010, Note_on_c, 0, 62, 45
1, 72086, Control_c, 0, 64, 127
1, 72120, Note_on_c, 0, 61, 0
1, 72120, Note_on_c, 0, 61, 36
1, 72240, Note_on_c, 0, 59, 42
1, 72250, Note_on_c, 0, 62, 0
1, 72480, Note_on_c, 0, 59, 0
1, 72480, Note_on_c, 0, 56, 38
1, 72600, Note_on_c, 0, 61, 0
1, 72600, Note_on_c, 0, 61, 36
1, 72720, Note_on_c, 0, 56, 0
1, 72720, Note_on_c, 0, 53, 37
1, 72954, Note_on_c, 0, 53, 0
1, 72960, Note_on_c, 0, 53, 0
1, 72960, Note_on_c, 0, 49, 36
1, 72966, Control_c, 0, 64, 0
1, 72992, Tempo, 707047
1, 73057, Control_c, 0, 64, 127
1, 73080, Note_on_c, 0, 61, 0
1, 73080, Note_on_c, 0, 61, 36
1, 73136, Tempo, 711238
1, 73200, Note_on_c, 0, 47, 35
1, 73256, Tempo, 715478
1, 73376, Tempo, 719770
1, 73440, Note_on_c, 0, 47, 0
1, 73440, Note_on_c, 0, 44, 34
1, 73520, Tempo, 724113
1, 73560, Note_on_c, 0, 61, 0
1, 73560, Note_on_c, 0, 61, 36
1, 73640, Tempo, 728509
1, 73680, Note_on_c, 0, 44, 0
1, 73680, Note_on_c, 0, 41, 33
1, 73760, Tempo, 732959
1, 73800, Note_on_c, 0, 61, 0
1, 73800, Note_on_c, 0, 61, 36
1, 73880, Tempo, 737463
1, 73920, Tempo, 707047
1, 73920, Note_on_c, 0, 41, 0
1, 73920, Note_on_c, 0, 42, 36
1, 73927, Control_c, 0, 64, 0
1, 73928, Tempo, 724113
1, 74040, Note_on_c, 0, 58, 30
1, 74054, Control_c, 0, 64, 127
1, 74072, Tempo, 719770
1, 74160, Note_on_c, 0, 58, 0
1, 74160, Note_on_c, 0, 61, 0
1, 74160, Note_on_c, 0, 63, 29
1, 74216, Tempo, 715478
1, 74336, Tempo, 711238
1, 74400, Note_on_c, 0, 63, 0
1, 74400, Note_on_c, 0, 65, 37
1, 74412, Control_c, 0, 64, 0
1, 74480, Tempo, 707047
1, 74485, Control_c, 0, 64, 127
1, 74520, Note_on_c, 0, 58, 30
1, 74600, Tempo, 702905
1, 74640, Note_on_c, 0, 58, 0
1, 74640, Note_on_c, 0, 65, 0
1, 74640, Note_on_c, 0, 66, 39
1, 74744, Tempo, 698812
1, 74864, Tempo, 694766
1, 74880, Note_on_c, 0, 66, 0
1, 74880, Note_on_c, 0, 68, 41
1, 74887, Control_c, 0, 64, 0
1, 74972, Control_c, 0, 64, 127
1, 75000, Note_on_c, 0, 58, 36
1, 75120, Note_on_c, 0, 58, 0
1, 75120, Note_on_c, 0, 68, 0
1, 75120, Note_on_c, 0, 70, 43
1, 75360, Note_on_c, 0, 70, 0
1, 75360, Note_on_c, 0, 71, 46
1, 75367, Control_c, 0, 64, 0
1, 75431, Control_c, 0, 64, 127
1, 75480, Note_on_c, 0, 58, 30
1, 75600, Note_on_c, 0, 58, 0
1, 75600, Note_on_c, 0, 71, 0
1, 75600, Note_on_c, 0, 73, 48
1, 75632, Tempo, 751315
1, 75720, Tempo, 939555
1, 75720, Note_on_c, 0, 42, 0
1, 75720, Note_on_c, 0, 49, 0
1, 75720, Note_on_c, 0, 49, 37
1, 75720, Note_on_c, 0, 42, 37
1, 75824, Tempo, 702905
1, 75840, Tempo, 715478
1, 75840, Note_on_c, 0, 49, 0
1, 75840, Note_on_c, 0, 73, 0
1, 75840, Note_on_c, 0, 50, 45
1, 75840, Control_c, 0, 64, 0
1, 75850, Note_on_c, 0, 74, 54
1, 75920, Control_c, 0, 64, 127
1, 75960, Note_on_c, 0, 59, 35
1, 76080, Note_on_c, 0, 59, 0
1, 76080, Note_on_c, 0, 74, 0
1, 76080, Note_on_c, 0, 71, 47
1, 76320, Note_on_c, 0, 71, 0
1, 76320, Note_on_c, 0, 68, 45
1, 76320, Note_on_c, 0, 62, 49
1, 76440, Note_on_c, 0, 59, 30
1, 76560, Note_on_c, 0, 59, 0
1, 76560, Note_on_c, 0, 68, 0
1, 76560, Note_on_c, 0, 65, 41
1, 76764, Tempo, 707047
1, 76797, Note_on_c, 0, 62, 0
1, 76800, Note_on_c, 0, 65, 0
1, 76800, Note_on_c, 0, 62, 46
1, 76860, Tempo, 711238
1, 76920, Note_on_c, 0, 56, 37
1, 76932, Tempo, 715478
1, 77004, Tempo, 719770
1, 77040, Note_on_c, 0, 56, 0
1, 77040, Note_on_c, 0, 59, 41
1, 77100, Tempo, 724113
1, 77172, Tempo, 728509
1, 77244, Tempo, 746640
1, 77268, Tempo, 751315
1, 77280, Note_on_c, 0, 59, 0
1, 77280, Note_on_c, 0, 62, 0
1, 77280, Note_on_c, 0, 56, 40
1, 77292, Tempo, 756048
1, 77316, Tempo, 760842
1, 77340, Tempo, 765697
1, 77364, Tempo, 775595
1, 77388, Tempo, 780640
1, 77400, Note_on_c, 0, 56, 0
1, 77400, Note_on_c, 0, 53, 38
1, 77412, Tempo, 785752
1, 77436, Tempo, 790931
1, 77460, Tempo, 801496
1, 77484, Tempo, 806885
1, 77508, Tempo, 812348
1, 77520, Note_on_c, 0, 53, 0
1, 77520, Note_on_c, 0, 50, 0
1, 77520, Note_on_c, 0, 50, 36
1, 77532, Tempo, 817884
1, 77556, Tempo, 823497
1, 77580, Tempo, 834957
1, 77604, Tempo, 840807
1, 77640, Tempo, 939555
1, 77640, Note_on_c, 0, 50, 0
1, 77640, Note_on_c, 0, 47, 34
1, 77760, Tempo, 707047
1, 77760, Note_on_c, 0, 47, 0
1, 77760, Note_on_c, 0, 42, 0
1, 77760, Note_on_c, 0, 61, 36
1, 77760, Note_on_c, 0, 49, 36
1, 77760, Note_on_c, 0, 42, 36
1, 77767, Control_c, 0, 64, 0
1, 77768, Tempo, 724113
1, 77880, Note_on_c, 0, 58, 30
1, 77894, Control_c, 0, 64, 127
1, 77912, Tempo, 719770
1, 78000, Note_on_c, 0, 58, 0
1, 78000, Note_on_c, 0, 61, 0
1, 78000, Note_on_c, 0, 63, 29
1, 78056, Tempo, 715478
1, 78176, Tempo, 711238
1, 78240, Note_on_c, 0, 63, 0
1, 78240, Note_on_c, 0, 65, 37
1, 78252, Control_c, 0, 64, 0
1, 78320, Tempo, 707047
1, 78325, Control_c, 0, 64, 127
1, 78360, Note_on_c, 0, 58, 30
1, 78440, Tempo, 702905
1, 78480, Note_on_c, 0, 58, 0
1, 78480, Note_on_c, 0, 65, 0
1, 78480, Note_on_c, 0, 66, 39
1, 78584, Tempo, 698812
1, 78704, Tempo, 694766
1, 78720, Note_on_c, 0, 66, 0
1, 78720, Note_on_c, 0, 68, 41
1, 78727, Control_c, 0, 64, 0
1, 78812, Control_c, 0, 64, 127
1, 78840, Note_on_c, 0, 58, 36
1, 78960, Note_on_c, 0, 58, 0
1, 78960, Note_on_c, 0, 68, 0
1, 78960, Note_on_c, 0, 70, 43
1, 79200, Note_on_c, 0, 70, 0
1, 79200, Note_on_c, 0, 71, 44
1, 79207, Control_c, 0, 64, 0
1, 79271, Control_c, 0, 64, 127
1, 79320, Note_on_c, 0, 58, 30
1, 79440, Note_on_c, 0, 58, 0
1, 79440, Note_on_c, 0, 71, 0
1, 79440, Note_on_c, 0, 72, 47
1, 79472, Tempo, 751315
1, 79560, Tempo, 939555
1, 79560, Note_on_c, 0, 49, 0
1, 79560, Note_on_c, 0, 49, 37
1, 79664, Tempo, 702905
1, 79680, Tempo, 728509
1, 79680, Note_on_c, 0, 49, 0
1, 79680, Note_on_c, 0, 72, 0
1, 79680, Note_on_c, 0, 42, 0
1, 79680, Note_on_c, 0, 52, 45
1, 79680, Note_on_c, 0, 36, 45
1, 79680, Control_c, 0, 64, 0
1, 79685, Note_on_c, 0, 73, 54
1, 79760, Control_c, 0, 64, 127
1, 79800, Note_on_c, 0, 58, 35
1, 79920, Note_on_c, 0, 58, 0
1, 79920, Note_on_c, 0, 73, 0
1, 79920, Note_on_c, 0, 70, 41
1, 80124, Tempo, 742023
1, 80160, Note_on_c, 0, 70, 0
1, 80160, Note_on_c, 0, 67, 45
1, 80160, Note_on_c, 0, 61, 41
1, 80280, Note_on_c, 0, 58, 30
1, 80400, Note_on_c, 0, 58, 0
1, 80400, Note_on_c, 0, 67, 0
1, 80400, Note_on_c, 0, 64, 41
1, 80637, Note_on_c, 0, 61, 0
1, 80640, Tempo, 788436
1, 80640, Note_on_c, 0, 64, 0
1, 80640, Note_on_c, 0, 61, 43
1, 80760, Note_on_c, 0, 55, 33
1, 80880, Note_on_c, 0, 55, 0
1, 80880, Note_on_c, 0, 61, 0
1, 80880, Note_on_c, 0, 58, 41
1, 81084, Tempo, 865052
1, 81108, Tempo, 873108
1, 81109, Tempo, 881057
1, 81120, Note_on_c, 0, 58, 0
1, 81120, Note_on_c, 0, 36, 0
1, 81120, Note_on_c, 0, 52, 0
1, 81120, Note_on_c, 0, 57, 46
1, 81120, Note_on_c, 0, 41, 34
1, 81133, Tempo, 887574
1, 81157, Tempo, 894188
1, 81181, Tempo, 907716
1, 81205, Tempo, 914634
1, 81229, Tempo, 928793
1, 81253, Tempo, 936037
1, 81277, Tempo, 950872
1, 81280, Note_on_c, 0, 53, 32
1, 81301, Tempo, 958466
1, 81325, Tempo, 966184
1, 81349, Tempo, 981997
1, 81373, Tempo, 990099
1, 81397, Tempo, 1006711
1, 81440, Note_on_c, 0, 51, 27
1, 81480, Tempo, 1617251
1, 81530, Control_c, 0, 64, 0
1, 81540, Tempo, 749064
1, 81540, Note_on_c, 0, 51, 0
1, 81540, Note_on_c, 0, 53, 0
1, 81540, Note_on_c, 0, 57, 0
1, 81540, Note_on_c, 0, 58, 36
1, 81600, Tempo, 744417
1, 81600, Note_on_c, 0, 58, 0
1, 81600, Note_on_c, 0, 41, 0
1, 81600, Note_on_c, 0, 58, 36
1, 81600, Note_on_c, 0, 53, 34
1, 81600, Note_on_c, 0, 34, 40
1, 81600, Note_on_c, 0, 46, 40
1, 81671, Control_c, 0, 64, 127
1, 81720, Note_on_c, 0, 50, 24
1, 81840, Note_on_c, 0, 50, 0
1, 81840, Note_on_c, 0, 58, 0
1, 81840, Note_on_c, 0, 53, 0
1, 81840, Note_on_c, 0, 55, 35
1, 82080, Note_on_c, 0, 55, 0
1, 82080, Note_on_c, 0, 57, 36
1, 82085, Control_c, 0, 64, 0
1, 82165, Control_c, 0, 64, 127
1, 82200, Note_on_c, 0, 50, 30
1, 82320, Note_on_c, 0, 50, 0
1, 82320, Note_on_c, 0, 57, 0
1, 82320, Note_on_c, 0, 58, 37
1, 82522, Tempo, 675524
1, 82536, Tempo, 711575
1, 82560, Note_on_c, 0, 58, 0
1, 82560, Note_on_c, 0, 60, 38
1, 82563, Control_c, 0, 64, 0
1, 82651, Tempo, 707380
1, 82666, Control_c, 0, 64, 127
1, 82680, Note_on_c, 0, 50, 28
1, 82747, Tempo, 703235
1, 82800, Note_on_c, 0, 50, 0
1, 82800, Note_on_c, 0, 60, 0
1, 82800, Note_on_c, 0, 62, 42
1, 82843, Tempo, 699138
1, 82958, Tempo, 695088
1, 83040, Note_on_c, 0, 62, 0
1, 83040, Note_on_c, 0, 34, 0
1, 83040, Note_on_c, 0, 46, 0
1, 83040, Note_on_c, 0, 63, 46
1, 83040, Note_on_c, 0, 48, 47
1, 83040, Note_on_c, 0, 32, 47
1, 83046, Control_c, 0, 64, 0
1, 83054, Tempo, 691085
1, 83096, Control_c, 0, 64, 127
1, 83150, Tempo, 687128
1, 83160, Note_on_c, 0, 50, 29
1, 83252, Tempo, 668003
1, 83280, Tempo, 786164
1, 83280, Note_on_c, 0, 50, 0
1, 83280, Note_on_c, 0, 63, 0
1, 83280, Note_on_c, 0, 65, 54
1, 83482, Tempo, 683216
1, 83520, Tempo, 711575
1, 83520, Note_on_c, 0, 65, 0
1, 83520, Note_on_c, 0, 32, 0
1, 83520, Note_on_c, 0, 48, 0
1, 83520, Note_on_c, 0, 31, 50
1, 83520, Note_on_c, 0, 47, 50
1, 83520, Control_c, 0, 64, 0
1, 83539, Note_on_c, 0, 67, 65
1, 83640, Note_on_c, 0, 50, 35
1, 83640, Control_c, 0, 64, 127
1, 83760, Note_on_c, 0, 50, 0
1, 83760, Note_on_c, 0, 65, 59
1, 84000, Note_on_c, 0, 65, 0
1, 84000, Note_on_c, 0, 63, 56
1, 84012, Control_c, 0, 64, 0
1, 84106, Control_c, 0, 64, 127
1, 84120, Note_on_c, 0, 50, 32
1, 84240, Note_on_c, 0, 50, 0
1, 84240, Note_on_c, 0, 63, 0
1, 84240, Note_on_c, 0, 62, 50
1, 84480, Tempo, 711575
1, 84480, Note_on_c, 0, 62, 0
1, 84480, Note_on_c, 0, 67, 0
1, 84480, Note_on_c, 0, 67, 59
1, 84480, Note_on_c, 0, 60, 43
1, 84486, Control_c, 0, 64, 0
1, 84537, Control_c, 0, 64, 127
1, 84600, Note_on_c, 0, 50, 30
1, 84720, Note_on_c, 0, 50, 0
1, 84720, Note_on_c, 0, 60, 0
1, 84720, Note_on_c, 0, 59, 41
1, 84956, Note_on_c, 0, 69, 55
1, 84960, Tempo, 703235
1, 84960, Note_on_c, 0, 59, 0
1, 84960, Note_on_c, 0, 31, 0
1, 84960, Note_on_c, 0, 67, 0
1, 84960, Note_on_c, 0, 47, 0
1, 84960, Note_on_c, 0, 57, 43
1, 84966, Control_c, 0, 64, 0
1, 84992, Control_c, 0, 64, 127
1, 85080, Note_on_c, 0, 50, 30
1, 85196, Note_on_c, 0, 69, 0
1, 85197, Note_on_c, 0, 71, 59
1, 85200, Tempo, 733317
1, 85200, Note_on_c, 0, 50, 0
1, 85200, Note_on_c, 0, 57, 0
1, 85200, Note_on_c, 0, 55, 40
1, 85320, Tempo, 847218
1, 85380, Note_on_c, 0, 63, 60
1, 85437, Note_on_c, 0, 71, 0
1, 85440, Tempo, 720115
1, 85440, Note_on_c, 0, 55, 0
1, 85440, Note_on_c, 0, 48, 45
1, 85440, Control_c, 0, 64, 0
1, 85446, Note_on_c, 0, 75, 69
1, 85553, Control_c, 0, 64, 127
1, 85560, Note_on_c, 0, 36, 31
1, 85680, Note_on_c, 0, 36, 0
1, 85680, Note_on_c, 0, 48, 0
1, 85680, Note_on_c, 0, 50, 42
1, 85920, Tempo, 707380
1, 85920, Note_on_c, 0, 50, 0
1, 85920, Note_on_c, 0, 51, 47
1, 85932, Control_c, 0, 64, 0
1, 86026, Control_c, 0, 64, 127
1, 86040, Note_on_c, 0, 48, 32
1, 86160, Note_on_c, 0, 48, 0
1, 86160, Note_on_c, 0, 51, 0
1, 86160, Note_on_c, 0, 53, 42
1, 86400, Tempo, 699138
1, 86400, Note_on_c, 0, 53, 0
1, 86400, Note_on_c, 0, 55, 48
1, 86400, Control_c, 0, 64, 0
1, 86453, Control_c, 0, 64, 127
1, 86520, Note_on_c, 0, 48, 32
1, 86640, Note_on_c, 0, 48, 0
1, 86640, Note_on_c, 0, 55, 0
1, 86640, Note_on_c, 0, 63, 0
1, 86640, Note_on_c, 0, 74, 51
1, 86640, Note_on_c, 0, 57, 39
1, 86646, Note_on_c, 0, 75, 0
1, 86880, Tempo, 724463
1, 86880, Note_on_c, 0, 57, 0
1, 86880, Note_on_c, 0, 59, 42
1, 86886, Control_c, 0, 64, 0
1, 86933, Control_c, 0, 64, 127
1, 86976, Note_on_c, 0, 74, 0
1, 86976, Note_on_c, 0, 72, 55
1, 87014, Tempo, 720115
1, 87038, Tempo, 724463
1, 87040, Note_on_c, 0, 59, 0
1, 87040, Note_on_c, 0, 60, 47
1, 87062, Tempo, 733317
1, 87072, Note_on_c, 0, 72, 0
1, 87072, Note_on_c, 0, 70, 53
1, 87086, Tempo, 737826
1, 87110, Tempo, 747012
1, 87134, Tempo, 751691
1, 87158, Tempo, 761228
1, 87168, Note_on_c, 0, 70, 0
1, 87168, Note_on_c, 0, 69, 51
1, 87182, Tempo, 771010
1, 87200, Note_on_c, 0, 60, 0
1, 87200, Note_on_c, 0, 62, 52
1, 87201, Tempo, 786164
1, 87220, Tempo, 796601
1, 87240, Tempo, 841279
1, 87259, Tempo, 884695
1, 87264, Note_on_c, 0, 69, 0
1, 87264, Note_on_c, 0, 67, 50
1, 87278, Tempo, 932836
1, 87297, Tempo, 986518
1, 87316, Tempo, 1046755
1, 87322, Tempo, 994695
1, 87331, Tempo, 751691
1, 87360, Tempo, 733317
1, 87360, Note_on_c, 0, 67, 0
1, 87360, Note_on_c, 0, 62, 0
1, 87360, Note_on_c, 0, 63, 59
1, 87360, Note_on_c, 0, 57, 57
1, 87360, Note_on_c, 0, 41, 57
1, 87360, Control_c, 0, 64, 0
1, 87370, Note_on_c, 0, 65, 59
1, 87459, Control_c, 0, 64, 127
1, 87480, Note_on_c, 0, 53, 32
1, 87600, Note_on_c, 0, 53, 0
1, 87600, Note_on_c, 0, 63, 0
1, 87600, Note_on_c, 0, 62, 53
1, 87840, Tempo, 699138
1, 87840, Note_on_c, 0, 62, 0
1, 87840, Note_on_c, 0, 60, 49
1, 87848, Control_c, 0, 64, 0
1, 87911, Control_c, 0, 64, 127
1, 87960, Note_on_c, 0, 53, 32
1, 88080, Note_on_c, 0, 53, 0
1, 88080, Note_on_c, 0, 60, 0
1, 88080, Note_on_c, 0, 58, 48
1, 88320, Note_on_c, 0, 58, 0
1, 88320, Note_on_c, 0, 57, 0
1, 88320, Note_on_c, 0, 57, 47
1, 88325, Control_c, 0, 64, 0
1, 88380, Control_c, 0, 64, 127
1, 88440, Note_on_c, 0, 53, 32
1, 88560, Note_on_c, 0, 53, 0
1, 88560, Note_on_c, 0, 57, 0
1, 88560, Note_on_c, 0, 55, 43
1, 88790, Tempo, 720115
1, 88800, Note_on_c, 0, 55, 0
1, 88800, Note_on_c, 0, 53, 46
1, 88806, Control_c, 0, 64, 0
1, 88814, Tempo, 724463
1, 88838, Tempo, 728863
1, 88846, Control_c, 0, 64, 127
1, 88862, Tempo, 733317
1, 88886, Tempo, 737826
1, 88896, Note_on_c, 0, 65, 0
1, 88896, Note_on_c, 0, 67, 42
1, 88910, Tempo, 742390
1, 88920, Note_on_c, 0, 53, 0
1, 88920, Note_on_c, 0, 51, 45
1, 88934, Tempo, 747012
1, 88958, Tempo, 751691
1, 88982, Tempo, 756430
1, 88992, Note_on_c, 0, 67, 0
1, 88992, Note_on_c, 0, 69, 46
1, 89006, Tempo, 761228
1, 89030, Tempo, 775996
1, 89040, Note_on_c, 0, 51, 0
1, 89040, Note_on_c, 0, 50, 44
1, 89054, Tempo, 791348
1, 89078, Tempo, 807320
1, 89088, Note_on_c, 0, 69, 0
1, 89088, Note_on_c, 0, 70, 50
1, 89102, Tempo, 823949
1, 89121, Tempo, 841279
1, 89140, Tempo, 853242
1, 89160, Tempo, 859353
1, 89160, Note_on_c, 0, 50, 0
1, 89160, Note_on_c, 0, 48, 42
1, 89179, Tempo, 871840
1, 89184, Tempo, 823949
1, 89184, Note_on_c, 0, 70, 0
1, 89184, Note_on_c, 0, 72, 54
1, 89204, Tempo, 962773
1, 89223, Tempo, 986518
1, 89242, Tempo, 1011463
1, 89261, Tempo, 1037703
1, 89280, Tempo, 703235
1, 89280, Note_on_c, 0, 72, 0
1, 89280, Note_on_c, 0, 48, 0
1, 89280, Note_on_c, 0, 41, 0
1, 89280, Note_on_c, 0, 74, 63
1, 89280, Note_on_c, 0, 46, 41
1, 89280, Note_on_c, 0, 34, 34
1, 89280, Control_c, 0, 64, 0
1, 89365, Control_c, 0, 64, 127
1, 89400, Note_on_c, 0, 62, 44
1, 89520, Tempo, 660647
1, 89520, Note_on_c, 0, 62, 0
1, 89520, Note_on_c, 0, 74, 0
1, 89520, Note_on_c, 0, 72, 56
1, 89640, Tempo, 841279
1, 89760, Tempo, 747012
1, 89760, Note_on_c, 0, 72, 0
1, 89760, Note_on_c, 0, 34, 0
1, 89760, Note_on_c, 0, 46, 0
1, 89760, Note_on_c, 0, 70, 63
1, 89770, Note_on_c, 0, 79, 63
1, 89781, Control_c, 0, 64, 0
1, 89859, Control_c, 0, 64, 127
1, 89880, Note_on_c, 0, 58, 42
1, 90000, Tempo, 699138
1, 90000, Note_on_c, 0, 58, 0
1, 90000, Note_on_c, 0, 70, 0
1, 90000, Note_on_c, 0, 69, 54
1, 90240, Tempo, 737826
1, 90240, Note_on_c, 0, 69, 0
1, 90240, Note_on_c, 0, 67, 48
1, 90240, Control_c, 0, 64, 0
1, 90307, Control_c, 0, 64, 127
1, 90360, Note_on_c, 0, 58, 37
1, 90480, Note_on_c, 0, 67, 0
1, 90480, Note_on_c, 0, 79, 0
1, 90480, Note_on_c, 0, 65, 44
1, 90485, Note_on_c, 0, 77, 52
1, 90720, Tempo, 835422
1, 90720, Note_on_c, 0, 77, 0
1, 90720, Note_on_c, 0, 65, 0
1, 90720, Note_on_c, 0, 76, 56
1, 90720, Note_on_c, 0, 64, 47
1, 90726, Control_c, 0, 64, 0
1, 90767, Control_c, 0, 64, 127
1, 90840, Tempo, 684932
1, 90840, Note_on_c, 0, 76, 0
1, 90840, Note_on_c, 0, 77, 44
1, 90900, Note_on_c, 0, 77, 0
1, 90900, Note_on_c, 0, 76, 37
1, 90960, Tempo, 796601
1, 90960, Note_on_c, 0, 76, 0
1, 90960, Note_on_c, 0, 64, 0
1, 90962, Note_on_c, 0, 62, 45
1, 90966, Note_on_c, 0, 74, 53
1, 91075, Note_on_c, 0, 72, 48
1, 91080, Tempo, 837989
1, 91082, Note_on_c, 0, 62, 0
1, 91085, Note_on_c, 0, 60, 40
1, 91086, Note_on_c, 0, 74, 0
1, 91195, Note_on_c, 0, 72, 0
1, 91200, Tempo, 695088
1, 91200, Note_on_c, 0, 58, 0
1, 91200, Note_on_c, 0, 72, 53
1, 91200, Note_on_c, 0, 45, 41
1, 91200, Control_c, 0, 64, 0
1, 91205, Note_on_c, 0, 60, 0
1, 91285, Control_c, 0, 64, 127
1, 91320, Note_on_c, 0, 60, 32
1, 91440, Tempo, 720115
1, 91440, Note_on_c, 0, 60, 0
1, 91440, Note_on_c, 0, 72, 0
1, 91440, Note_on_c, 0, 70, 53
1, 91560, Tempo, 791348
1, 91680, Tempo, 728863
1, 91680, Note_on_c, 0, 70, 0
1, 91680, Note_on_c, 0, 45, 0
1, 91680, Note_on_c, 0, 69, 49
1, 91687, Note_on_c, 0, 77, 58
1, 91701, Control_c, 0, 64, 0
1, 91779, Control_c, 0, 64, 127
1, 91800, Note_on_c, 0, 57, 32
1, 91920, Note_on_c, 0, 57, 0
1, 91920, Note_on_c, 0, 69, 0
1, 91920, Note_on_c, 0, 67, 54
1, 92160, Tempo, 751691
1, 92160, Note_on_c, 0, 67, 0
1, 92160, Note_on_c, 0, 65, 48
1, 92160, Control_c, 0, 64, 0
1, 92227, Control_c, 0, 64, 127
1, 92280, Note_on_c, 0, 57, 37
1, 92400, Tempo, 801925
1, 92400, Note_on_c, 0, 65, 0
1, 92400, Note_on_c, 0, 77, 0
1, 92400, Note_on_c, 0, 64, 44
1, 92400, Note_on_c, 0, 76, 52
1, 92640, Tempo, 932836
1, 92640, Note_on_c, 0, 76, 0
1, 92640, Note_on_c, 0, 64, 0
1, 92640, Note_on_c, 0, 62, 47
1, 92640, Note_on_c, 0, 74, 56
1, 92640, Note_on_c, 0, 47, 41
1, 92640, Note_on_c, 0, 56, 41
1, 92646, Control_c, 0, 64, 0
1, 92687, Control_c, 0, 64, 127
1, 92760, Tempo, 832178
1, 92760, Note_on_c, 0, 74, 0
1, 92760, Note_on_c, 0, 76, 43
1, 92790, Note_on_c, 0, 76, 0
1, 92790, Note_on_c, 0, 74, 44
1, 92820, Note_on_c, 0, 74, 0
1, 92820, Note_on_c, 0, 73, 45
1, 92850, Note_on_c, 0, 73, 0
1, 92850, Note_on_c, 0, 74, 46
1, 92878, Note_on_c, 0, 64, 45
1, 92880, Tempo, 853242
1, 92880, Note_on_c, 0, 74, 0
1, 92880, Note_on_c, 0, 62, 0
1, 92882, Note_on_c, 0, 76, 54
1, 92995, Note_on_c, 0, 65, 46
1, 92998, Note_on_c, 0, 64, 0
1, 93000, Tempo, 978474
1, 93000, Note_on_c, 0, 77, 55
1, 93002, Note_on_c, 0, 76, 0
1, 93115, Note_on_c, 0, 65, 0
1, 93120, Tempo, 878220
1, 93120, Note_on_c, 0, 47, 0
1, 93120, Note_on_c, 0, 57, 0
1, 93120, Note_on_c, 0, 77, 0
1, 93120, Note_on_c, 0, 56, 0
1, 93120, Note_on_c, 0, 77, 61
1, 93120, Note_on_c, 0, 48, 41
1, 93120, Note_on_c, 0, 60, 41
1, 93120, Note_on_c, 0, 57, 41
1, 93120, Control_c, 0, 64, 0
1, 93212, Control_c, 0, 64, 127
1, 93240, Note_on_c, 0, 65, 37
1, 93360, Tempo, 841279
1, 93360, Note_on_c, 0, 65, 0
1, 93360, Note_on_c, 0, 77, 0
1, 93360, Note_on_c, 0, 76, 53
1, 93600, Tempo, 775996
1, 93600, Note_on_c, 0, 76, 0
1, 93600, Note_on_c, 0, 74, 58
1, 93600, Control_c, 0, 64, 0
1, 93678, Control_c, 0, 64, 127
1, 93720, Note_on_c, 0, 65, 30
1, 93840, Tempo, 859353
1, 93840, Note_on_c, 0, 65, 0
1, 93960, Note_on_c, 0, 74, 0
1, 93960, Note_on_c, 0, 72, 52
1, 94080, Tempo, 823949
1, 94080, Note_on_c, 0, 72, 0
1, 94080, Note_on_c, 0, 57, 0
1, 94080, Note_on_c, 0, 60, 0
1, 94080, Note_on_c, 0, 48, 0
1, 94080, Note_on_c, 0, 72, 58
1, 94080, Note_on_c, 0, 64, 41
1, 94080, Note_on_c, 0, 58, 41
1, 94080, Note_on_c, 0, 48, 41
1, 94080, Control_c, 0, 64, 0
1, 94172, Control_c, 0, 64, 127
1, 94200, Note_on_c, 0, 60, 37
1, 94320, Note_on_c, 0, 60, 0
1, 94320, Note_on_c, 0, 72, 0
1, 94320, Note_on_c, 0, 70, 53
1, 94560, Note_on_c, 0, 70, 0
1, 94560, Note_on_c, 0, 69, 58
1, 94560, Control_c, 0, 64, 0
1, 94638, Control_c, 0, 64, 127
1, 94680, Note_on_c, 0, 60, 31
1, 94800, Tempo, 853242
1, 94800, Note_on_c, 0, 60, 0
1, 94920, Note_on_c, 0, 69, 0
1, 94920, Note_on_c, 0, 67, 52
1, 95040, Tempo, 823949
1, 95040, Note_on_c, 0, 67, 0
1, 95040, Note_on_c, 0, 48, 0
1, 95040, Note_on_c, 0, 58, 0
1, 95040, Note_on_c, 0, 64, 0
1, 95040, Note_on_c, 0, 67, 43
1, 95040, Note_on_c, 0, 60, 43
1, 95040, Note_on_c, 0, 53, 43
1, 95040, Control_c, 0, 64, 0
1, 95146, Control_c, 0, 64, 127
1, 95160, Note_on_c, 0, 58, 37
1, 95280, Note_on_c, 0, 53, 0
1, 95280, Note_on_c, 0, 52, 43
1, 95520, Tempo, 865052
1, 95520, Note_on_c, 0, 52, 0
1, 95520, Note_on_c, 0, 50, 43
1, 95531, Control_c, 0, 64, 0
1, 95640, Note_on_c, 0, 58, 0
1, 95640, Note_on_c, 0, 58, 37
1, 95654, Control_c, 0, 64, 127
1, 95760, Tempo, 954502
1, 95760, Note_on_c, 0, 50, 0
1, 95760, Note_on_c, 0, 48, 43
1, 96000, Tempo, 994036
1, 96000, Note_on_c, 0, 48, 0
1, 96000, Note_on_c, 0, 67, 0
1, 96000, Note_on_c, 0, 65, 43
1, 96000, Note_on_c, 0, 53, 43
1, 96000, Control_c, 0, 64, 0
1, 96092, Control_c, 0, 64, 127
1, 96120, Note_on_c, 0, 58, 0
1, 96120, Note_on_c, 0, 57, 31
1, 96480, Note_on_c, 0, 57, 0
1, 96480, Note_on_c, 0, 53, 0
1, 96480, Note_on_c, 0, 65, 0
1, 96480, Note_on_c, 0, 60, 0
1, 96537, Control_c, 0, 64, 0
1, 96960, Tempo, 707047
1, 96960, Note_on_c, 0, 57, 50
1, 96960, Note_on_c, 0, 41, 50
1, 96960, Control_c, 0, 64, 127
1, 96967, Note_on_c, 0, 65, 43
1, 97080, Note_on_c, 0, 63, 30
1, 97193, Note_on_c, 0, 67, 43
1, 97200, Note_on_c, 0, 63, 0
1, 97207, Note_on_c, 0, 65, 0
1, 97433, Note_on_c, 0, 67, 0
1, 97438, Note_on_c, 0, 69, 43
1, 97445, Control_c, 0, 64, 0
1, 97525, Control_c, 0, 64, 127
1, 97560, Note_on_c, 0, 63, 36
1, 97678, Note_on_c, 0, 69, 0
1, 97680, Note_on_c, 0, 63, 0
1, 97686, Note_on_c, 0, 70, 43
1, 97882, Tempo, 675524
1, 97896, Tempo, 711575
1, 97917, Note_on_c, 0, 72, 43
1, 97923, Control_c, 0, 64, 0
1, 97926, Note_on_c, 0, 70, 0
1, 98011, Tempo, 707380
1, 98026, Control_c, 0, 64, 127
1, 98040, Note_on_c, 0, 63, 31
1, 98107, Tempo, 703235
1, 98156, Note_on_c, 0, 74, 46
1, 98157, Note_on_c, 0, 72, 0
1, 98160, Note_on_c, 0, 63, 0
1, 98203, Tempo, 699138
1, 98318, Tempo, 695088
1, 98396, Note_on_c, 0, 74, 0
1, 98406, Control_c, 0, 64, 0
1, 98408, Note_on_c, 0, 75, 49
1, 98414, Tempo, 691085
1, 98456, Control_c, 0, 64, 127
1, 98510, Tempo, 687128
1, 98520, Note_on_c, 0, 63, 31
1, 98612, Tempo, 668003
1, 98640, Tempo, 775595
1, 98640, Note_on_c, 0, 63, 0
1, 98647, Note_on_c, 0, 77, 56
1, 98648, Note_on_c, 0, 75, 0
1, 98760, Tempo, 815217
1, 98820, Note_on_c, 0, 39, 50
1, 98880, Tempo, 698812
1, 98880, Note_on_c, 0, 57, 0
1, 98880, Note_on_c, 0, 41, 0
1, 98880, Note_on_c, 0, 58, 50
1, 98880, Control_c, 0, 64, 0
1, 98887, Note_on_c, 0, 77, 0
1, 98889, Note_on_c, 0, 78, 62
1, 99000, Note_on_c, 0, 63, 35
1, 99000, Control_c, 0, 64, 127
1, 99120, Note_on_c, 0, 63, 0
1, 99120, Note_on_c, 0, 78, 0
1, 99120, Note_on_c, 0, 77, 59
1, 99360, Tempo, 698812
1, 99360, Note_on_c, 0, 77, 0
1, 99365, Note_on_c, 0, 75, 56
1, 99372, Control_c, 0, 64, 0
1, 99466, Control_c, 0, 64, 127
1, 99480, Note_on_c, 0, 63, 32
1, 99595, Note_on_c, 0, 73, 50
1, 99600, Note_on_c, 0, 63, 0
1, 99605, Note_on_c, 0, 75, 0
1, 99835, Note_on_c, 0, 73, 0
1, 99840, Tempo, 711575
1, 99840, Note_on_c, 0, 58, 0
1, 99840, Note_on_c, 0, 48, 50
1, 99841, Note_on_c, 0, 72, 43
1, 99846, Control_c, 0, 64, 0
1, 99897, Control_c, 0, 64, 127
1, 99960, Note_on_c, 0, 63, 30
1, 100080, Note_on_c, 0, 63, 0
1, 100081, Note_on_c, 0, 72, 0
1, 100086, Note_on_c, 0, 70, 41
1, 100320, Tempo, 703235
1, 100325, Note_on_c, 0, 69, 43
1, 100326, Note_on_c, 0, 70, 0
1, 100326, Control_c, 0, 64, 0
1, 100352, Control_c, 0, 64, 127
1, 100440, Note_on_c, 0, 63, 30
1, 100559, Note_on_c, 0, 70, 40
1, 100560, Tempo, 733317
1, 100560, Note_on_c, 0, 63, 0
1, 100565, Note_on_c, 0, 69, 0
1, 100680, Tempo, 847218
1, 100794, Note_on_c, 0, 69, 36
1, 100799, Note_on_c, 0, 70, 0
1, 100800, Tempo, 707047
1, 100800, Note_on_c, 0, 39, 0
1, 100800, Note_on_c, 0, 65, 36
1, 100800, Note_on_c, 0, 41, 42
1, 100809, Control_c, 0, 64, 0
1, 100871, Control_c, 0, 64, 127
1, 100920, Note_on_c, 0, 63, 25
1, 101034, Note_on_c, 0, 69, 0
1, 101040, Note_on_c, 0, 63, 0
1, 101040, Note_on_c, 0, 65, 0
1, 101047, Note_on_c, 0, 67, 36
1, 101280, Note_on_c, 0, 69, 36
1, 101285, Control_c, 0, 64, 0
1, 101287, Note_on_c, 0, 67, 0
1, 101365, Control_c, 0, 64, 127
1, 101400, Note_on_c, 0, 63, 30
1, 101518, Note_on_c, 0, 70, 36
1, 101520, Note_on_c, 0, 63, 0
1, 101520, Note_on_c, 0, 69, 0
1, 101722, Tempo, 675524
1, 101736, Tempo, 711575
1, 101758, Note_on_c, 0, 70, 0
1, 101763, Control_c, 0, 64, 0
1, 101767, Note_on_c, 0, 72, 36
1, 101851, Tempo, 707380
1, 101866, Control_c, 0, 64, 127
1, 101880, Note_on_c, 0, 63, 26
1, 101947, Tempo, 703235
1, 101993, Note_on_c, 0, 73, 39
1, 102000, Note_on_c, 0, 63, 0
1, 102000, Note_on_c, 0, 48, 0
1, 102000, Note_on_c, 0, 41, 0
1, 102007, Note_on_c, 0, 72, 0
1, 102043, Tempo, 699138
1, 102158, Tempo, 695088
1, 102233, Note_on_c, 0, 73, 0
1, 102246, Note_on_c, 0, 75, 41
1, 102246, Control_c, 0, 64, 0
1, 102254, Tempo, 691085
1, 102296, Control_c, 0, 64, 127
1, 102350, Tempo, 687128
1, 102360, Note_on_c, 0, 63, 26
1, 102452, Tempo, 668003
1, 102475, Note_on_c, 0, 77, 47
1, 102480, Tempo, 775595
1, 102480, Note_on_c, 0, 63, 0
1, 102486, Note_on_c, 0, 75, 0
1, 102660, Note_on_c, 0, 39, 42
1, 102715, Note_on_c, 0, 77, 0
1, 102720, Tempo, 698812
1, 102720, Note_on_c, 0, 58, 42
1, 102720, Control_c, 0, 64, 0
1, 102730, Note_on_c, 0, 78, 52
1, 102840, Note_on_c, 0, 63, 29
1, 102840, Control_c, 0, 64, 127
1, 102960, Note_on_c, 0, 63, 0
1, 102960, Note_on_c, 0, 77, 50
1, 102970, Note_on_c, 0, 78, 0
1, 103200, Tempo, 698812
1, 103200, Note_on_c, 0, 77, 0
1, 103200, Note_on_c, 0, 75, 47
1, 103212, Control_c, 0, 64, 0
1, 103306, Control_c, 0, 64, 127
1, 103320, Note_on_c, 0, 63, 27
1, 103440, Note_on_c, 0, 63, 0
1, 103560, Note_on_c, 0, 75, 0
1, 103560, Note_on_c, 0, 73, 42
1, 103680, Tempo, 711575
1, 103680, Note_on_c, 0, 73, 0
1, 103680, Note_on_c, 0, 58, 0
1, 103680, Note_on_c, 0, 39, 0
1, 103680, Note_on_c, 0, 73, 36
1, 103680, Note_on_c, 0, 42, 42
1, 103686, Control_c, 0, 64, 0
1, 103737, Control_c, 0, 64, 127
1, 103800, Note_on_c, 0, 63, 25
1, 103920, Note_on_c, 0, 63, 0
1, 103920, Note_on_c, 0, 73, 0
1, 103920, Note_on_c, 0, 72, 34
1, 104160, Tempo, 703235
1, 104160, Note_on_c, 0, 72, 0
1, 104160, Note_on_c, 0, 70, 36
1, 104166, Control_c, 0, 64, 0
1, 104192, Control_c, 0, 64, 127
1, 104220, Note_on_c, 0, 70, 0
1, 104220, Note_on_c, 0, 72, 36
1, 104280, Note_on_c, 0, 72, 0
1, 104280, Note_on_c, 0, 70, 36
1, 104280, Note_on_c, 0, 60, 25
1, 104400, Tempo, 733317
1, 104400, Note_on_c, 0, 60, 0
1, 104400, Note_on_c, 0, 44, 34
1, 104520, Tempo, 847218
1, 104520, Note_on_c, 0, 70, 0
1, 104520, Note_on_c, 0, 68, 34
1, 104639, Note_on_c, 0, 49, 34
1, 104640, Tempo, 707047
1, 104640, Note_on_c, 0, 68, 0
1, 104640, Note_on_c, 0, 42, 0
1, 104640, Note_on_c, 0, 44, 0
1, 104640, Note_on_c, 0, 73, 36
1, 104640, Note_on_c, 0, 41, 34
1, 104648, Tempo, 724113
1, 104686, Control_c, 0, 64, 0
1, 104760, Note_on_c, 0, 61, 36
1, 104767, Control_c, 0, 64, 127
1, 104792, Tempo, 719770
1, 104879, Note_on_c, 0, 49, 0
1, 104882, Note_on_c, 0, 51, 29
1, 104936, Tempo, 715478
1, 105056, Tempo, 711238
1, 105120, Note_on_c, 0, 41, 0
1, 105122, Note_on_c, 0, 51, 0
1, 105124, Note_on_c, 0, 53, 34
1, 105126, Control_c, 0, 64, 0
1, 105200, Tempo, 707047
1, 105240, Note_on_c, 0, 61, 0
1, 105240, Note_on_c, 0, 61, 36
1, 105240, Control_c, 0, 64, 127
1, 105320, Tempo, 702905
1, 105360, Note_on_c, 0, 54, 34
1, 105464, Tempo, 698812
1, 105584, Tempo, 694766
1, 105600, Note_on_c, 0, 54, 0
1, 105605, Note_on_c, 0, 56, 36
1, 105608, Control_c, 0, 64, 0
1, 105663, Control_c, 0, 64, 127
1, 105720, Note_on_c, 0, 61, 0
1, 105720, Note_on_c, 0, 61, 36
1, 105845, Note_on_c, 0, 56, 0
1, 105846, Note_on_c, 0, 58, 36
1, 106079, Note_on_c, 0, 60, 40
1, 106080, Note_on_c, 0, 73, 0
1, 106086, Note_on_c, 0, 58, 0
1, 106092, Control_c, 0, 64, 0
1, 106149, Control_c, 0, 64, 127
1, 106200, Note_on_c, 0, 61, 0
1, 106200, Note_on_c, 0, 61, 36
1, 106319, Note_on_c, 0, 60, 0
1, 106320, Note_on_c, 0, 61, 0
1, 106320, Note_on_c, 0, 61, 43
1, 106352, Tempo, 751315
1, 106440, Tempo, 939555
1, 106544, Tempo, 702905
1, 106565, Control_c, 0, 64, 0
1, 106570, Note_on_c, 0, 62, 46
1, 106646, Control_c, 0, 64, 127
1, 106680, Note_on_c, 0, 61, 0
1, 106680, Note_on_c, 0, 61, 36
1, 106800, Note_on_c, 0, 62, 0
1, 106800, Note_on_c, 0, 59, 44
1, 107040, Note_on_c, 0, 59, 0
1, 107040, Note_on_c, 0, 56, 38
1, 107160, Note_on_c, 0, 61, 0
1, 107160, Note_on_c, 0, 61, 36
1, 107280, Note_on_c, 0, 56, 0
1, 107280, Note_on_c, 0, 53, 37
1, 107520, Note_on_c, 0, 53, 0
1, 107520, Note_on_c, 0, 49, 36
1, 107524, Note_on_c, 0, 53, 0
1, 107526, Control_c, 0, 64, 0
1, 107552, Tempo, 707047
1, 107617, Control_c, 0, 64, 127
1, 107640, Note_on_c, 0, 61, 0
1, 107640, Note_on_c, 0, 61, 36
1, 107696, Tempo, 711238
1, 107760, Note_on_c, 0, 47, 35
1, 107816, Tempo, 715478
1, 107936, Tempo, 719770
1, 108000, Note_on_c, 0, 47, 0
1, 108000, Note_on_c, 0, 44, 34
1, 108080, Tempo, 724113
1, 108120, Note_on_c, 0, 61, 0
1, 108120, Note_on_c, 0, 61, 36
1, 108200, Tempo, 728509
1, 108240, Note_on_c, 0, 44, 0
1, 108240, Note_on_c, 0, 41, 33
1, 108320, Tempo, 732959
1, 108360, Note_on_c, 0, 61, 0
1, 108360, Note_on_c, 0, 61, 36
1, 108440, Tempo, 737463
1, 108480, Tempo, 707047
1, 108480, Note_on_c, 0, 41, 0
1, 108480, Note_on_c, 0, 42, 36
1, 108487, Control_c, 0, 64, 0
1, 108488, Tempo, 724113
1, 108600, Note_on_c, 0, 58, 30
1, 108614, Control_c, 0, 64, 127
1, 108632, Tempo, 719770
1, 108720, Note_on_c, 0, 58, 0
1, 108720, Note_on_c, 0, 61, 0
1, 108720, Note_on_c, 0, 63, 29
1, 108776, Tempo, 715478
1, 108896, Tempo, 711238
1, 108960, Note_on_c, 0, 63, 0
1, 108960, Note_on_c, 0, 65, 37
1, 108972, Control_c, 0, 64, 0
1, 109040, Tempo, 707047
1, 109045, Control_c, 0, 64, 127
1, 109080, Note_on_c, 0, 58, 30
1, 109160, Tempo, 702905
1, 109200, Note_on_c, 0, 58, 0
1, 109200, Note_on_c, 0, 65, 0
1, 109200, Note_on_c, 0, 66, 39
1, 109304, Tempo, 698812
1, 109424, Tempo, 694766
1, 109440, Note_on_c, 0, 66, 0
1, 109440, Note_on_c, 0, 68, 41
1, 109447, Control_c, 0, 64, 0
1, 109532, Control_c, 0, 64, 127
1, 109560, Note_on_c, 0, 58, 36
1, 109680, Note_on_c, 0, 58, 0
1, 109680, Note_on_c, 0, 68, 0
1, 109680, Note_on_c, 0, 70, 43
1, 109920, Note_on_c, 0, 70, 0
1, 109920, Note_on_c, 0, 71, 44
1, 109927, Control_c, 0, 64, 0
1, 109991, Control_c, 0, 64, 127
1, 110040, Note_on_c, 0, 58, 30
1, 110160, Note_on_c, 0, 58, 0
1, 110160, Note_on_c, 0, 71, 0
1, 110160, Note_on_c, 0, 73, 47
1, 110192, Tempo, 751315
1, 110280, Tempo, 939555
1, 110280, Note_on_c, 0, 42, 0
1, 110280, Note_on_c, 0, 49, 0
1, 110280, Note_on_c, 0, 49, 37
1, 110280, Note_on_c, 0, 42, 37
1, 110384, Tempo, 702905
1, 110400, Tempo, 715478
1, 110400, Note_on_c, 0, 49, 0
1, 110400, Note_on_c, 0, 73, 0
1, 110400, Note_on_c, 0, 50, 45
1, 110400, Control_c, 0, 64, 0
1, 110410, Note_on_c, 0, 74, 54
1, 110480, Control_c, 0, 64, 127
1, 110520, Note_on_c, 0, 59, 35
1, 110640, Note_on_c, 0, 59, 0
1, 110640, Note_on_c, 0, 71, 41
1, 110650, Note_on_c, 0, 74, 0
1, 110880, Note_on_c, 0, 71, 0
1, 110880, Note_on_c, 0, 68, 45
1, 110880, Note_on_c, 0, 62, 49
1, 111000, Note_on_c, 0, 59, 30
1, 111120, Note_on_c, 0, 59, 0
1, 111120, Note_on_c, 0, 68, 0
1, 111120, Note_on_c, 0, 65, 41
1, 111324, Tempo, 707047
1, 111358, Note_on_c, 0, 62, 0
1, 111360, Note_on_c, 0, 65, 0
1, 111360, Note_on_c, 0, 62, 46
1, 111420, Tempo, 711238
1, 111480, Note_on_c, 0, 56, 37
1, 111492, Tempo, 715478
1, 111564, Tempo, 719770
1, 111600, Note_on_c, 0, 56, 0
1, 111600, Note_on_c, 0, 59, 41
1, 111660, Tempo, 724113
1, 111732, Tempo, 728509
1, 111804, Tempo, 746640
1, 111828, Tempo, 751315
1, 111840, Note_on_c, 0, 59, 0
1, 111840, Note_on_c, 0, 62, 0
1, 111840, Note_on_c, 0, 56, 40
1, 111852, Tempo, 756048
1, 111876, Tempo, 760842
1, 111900, Tempo, 765697
1, 111924, Tempo, 775595
1, 111948, Tempo, 780640
1, 111960, Note_on_c, 0, 56, 0
1, 111960, Note_on_c, 0, 53, 38
1, 111972, Tempo, 785752
1, 111996, Tempo, 790931
1, 112020, Tempo, 801496
1, 112044, Tempo, 806885
1, 112068, Tempo, 812348
1, 112080, Note_on_c, 0, 53, 0
1, 112080, Note_on_c, 0, 50, 0
1, 112080, Note_on_c, 0, 50, 36
1, 112092, Tempo, 817884
1, 112116, Tempo, 823497
1, 112140, Tempo, 834957
1, 112164, Tempo, 840807
1, 112200, Tempo, 939555
1, 112200, Note_on_c, 0, 50, 0
1, 112200, Note_on_c, 0, 47, 34
1, 112320, Tempo, 707047
1, 112320, Note_on_c, 0, 47, 0
1, 112320, Note_on_c, 0, 42, 0
1, 112320, Note_on_c, 0, 61, 36
1, 112320, Note_on_c, 0, 49, 36
1, 112320, Note_on_c, 0, 42, 36
1, 112327, Control_c, 0, 64, 0
1, 112328, Tempo, 724113
1, 112440, Note_on_c, 0, 58, 30
1, 112454, Control_c, 0, 64, 127
1, 112472, Tempo, 719770
1, 112560, Note_on_c, 0, 58, 0
1, 112560, Note_on_c, 0, 61, 0
1, 112560, Note_on_c, 0, 63, 29
1, 112616, Tempo, 715478
1, 112736, Tempo, 711238
1, 112800, Note_on_c, 0, 63, 0
1, 112800, Note_on_c, 0, 65, 37
1, 112812, Control_c, 0, 64, 0
1, 112880, Tempo, 707047
1, 112885, Control_c, 0, 64, 127
1, 112920, Note_on_c, 0, 58, 30
1, 113000, Tempo, 702905
1, 113040, Note_on_c, 0, 58, 0
1, 113040, Note_on_c, 0, 65, 0
1, 113040, Note_on_c, 0, 66, 39
1, 113144, Tempo, 698812
1, 113264, Tempo, 694766
1, 113280, Note_on_c, 0, 66, 0
1, 113280, Note_on_c, 0, 68, 41
1, 113287, Control_c, 0, 64, 0
1, 113372, Control_c, 0, 64, 127
1, 113400, Note_on_c, 0, 58, 36
1, 113520, Note_on_c, 0, 58, 0
1, 113520, Note_on_c, 0, 68, 0
1, 113520, Note_on_c, 0, 70, 43
1, 113760, Note_on_c, 0, 70, 0
1, 113760, Note_on_c, 0, 71, 44
1, 113767, Control_c, 0, 64, 0
1, 113831, Control_c, 0, 64, 127
1, 113880, Note_on_c, 0, 58, 30
1, 114000, Note_on_c, 0, 58, 0
1, 114000, Note_on_c, 0, 71, 0
1, 114000, Note_on_c, 0, 72, 43
1, 114032, Tempo, 751315
1, 114120, Tempo, 939555
1, 114120, Note_on_c, 0, 49, 0
1, 114120, Note_on_c, 0, 49, 37
1, 114224, Tempo, 702905
1, 114240, Tempo, 728509
1, 114240, Note_on_c, 0, 49, 0
1, 114240, Note_on_c, 0, 72, 0
1, 114240, Note_on_c, 0, 42, 0
1, 114240, Note_on_c, 0, 36, 45
1, 114240, Note_on_c, 0, 52, 45
1, 114240, Control_c, 0, 64, 0
1, 114249, Note_on_c, 0, 73, 50
1, 114320, Control_c, 0, 64, 127
1, 114360, Note_on_c, 0, 58, 35
1, 114480, Note_on_c, 0, 58, 0
1, 114480, Note_on_c, 0, 70, 41
1, 114489, Note_on_c, 0, 73, 0
1, 114684, Tempo, 742023
1, 114720, Note_on_c, 0, 70, 0
1, 114720, Note_on_c, 0, 67, 45
1, 114720, Note_on_c, 0, 61, 41
1, 114840, Note_on_c, 0, 58, 30
1, 114960, Note_on_c, 0, 58, 0
1, 114960, Note_on_c, 0, 67, 0
1, 114960, Note_on_c, 0, 64, 41
1, 115197, Note_on_c, 0, 61, 0
1, 115200, Tempo, 775595
1, 115200, Note_on_c, 0, 64, 0
1, 115200, Note_on_c, 0, 61, 43
1, 115320, Note_on_c, 0, 55, 33
1, 115440, Note_on_c, 0, 55, 0
1, 115440, Note_on_c, 0, 61, 0
1, 115440, Note_on_c, 0, 58, 41
1, 115644, Tempo, 865052
1, 115668, Tempo, 873108
1, 115680, Note_on_c, 0, 58, 0
1, 115680, Note_on_c, 0, 52, 0
1, 115680, Note_on_c, 0, 36, 0
1, 115680, Note_on_c, 0, 57, 46
1, 115680, Note_on_c, 0, 41, 34
1, 115692, Tempo, 879507
1, 115716, Tempo, 886001
1, 115740, Tempo, 892591
1, 115764, Tempo, 899281
1, 115788, Tempo, 906071
1, 115812, Tempo, 912964
1, 115836, Tempo, 927070
1, 115840, Note_on_c, 0, 53, 32
1, 115860, Tempo, 934288
1, 115884, Tempo, 941620
1, 115908, Tempo, 949067
1, 115932, Tempo, 956633
1, 115956, Tempo, 964320
1, 115980, Tempo, 980072
1, 116000, Note_on_c, 0, 51, 27
1, 116040, Tempo, 899281
1, 116090, Control_c, 0, 64, 0
1, 116100, Note_on_c, 0, 51, 0
1, 116100, Note_on_c, 0, 53, 0
1, 116100, Note_on_c, 0, 57, 0
1, 116100, Note_on_c, 0, 58, 36
1, 116160, Tempo, 742390
1, 116160, Note_on_c, 0, 58, 0
1, 116160, Note_on_c, 0, 41, 0
1, 116160, Note_on_c, 0, 53, 34
1, 116160, Note_on_c, 0, 58, 36
1, 116160, Note_on_c, 0, 34, 40
1, 116160, Note_on_c, 0, 46, 40
1, 116280, Note_on_c, 0, 50, 24
1, 116280, Control_c, 0, 64, 127
1, 116400, Note_on_c, 0, 55, 35
1, 116400, Note_on_c, 0, 50, 0
1, 116400, Note_on_c, 0, 58, 0
1, 116400, Note_on_c, 0, 53, 0
1, 116634, Note_on_c, 0, 57, 36
1, 116640, Note_on_c, 0, 55, 0
1, 116645, Control_c, 0, 64, 0
1, 116725, Control_c, 0, 64, 127
1, 116760, Note_on_c, 0, 50, 30
1, 116874, Note_on_c, 0, 57, 0
1, 116879, Note_on_c, 0, 58, 37
1, 116880, Note_on_c, 0, 50, 0
1, 117082, Tempo, 675524
1, 117096, Tempo, 711575
1, 117119, Note_on_c, 0, 58, 0
1, 117123, Note_on_c, 0, 60, 38
1, 117123, Control_c, 0, 64, 0
1, 117211, Tempo, 707380
1, 117226, Control_c, 0, 64, 127
1, 117240, Note_on_c, 0, 50, 28
1, 117307, Tempo, 703235
1, 117360, Note_on_c, 0, 50, 0
1, 117362, Note_on_c, 0, 62, 42
1, 117363, Note_on_c, 0, 60, 0
1, 117403, Tempo, 699138
1, 117518, Tempo, 695088
1, 117593, Note_on_c, 0, 63, 46
1, 117600, Note_on_c, 0, 34, 0
1, 117600, Note_on_c, 0, 46, 0
1, 117600, Note_on_c, 0, 48, 47
1, 117600, Note_on_c, 0, 32, 47
1, 117602, Note_on_c, 0, 62, 0
1, 117606, Control_c, 0, 64, 0
1, 117614, Tempo, 691085
1, 117656, Control_c, 0, 64, 127
1, 117710, Tempo, 687128
1, 117720, Note_on_c, 0, 50, 29
1, 117812, Tempo, 668003
1, 117833, Note_on_c, 0, 63, 0
1, 117840, Tempo, 786164
1, 117840, Note_on_c, 0, 50, 0
1, 117845, Note_on_c, 0, 65, 54
1, 117960, Tempo, 820793
1, 118042, Tempo, 683216
1, 118080, Tempo, 711575
1, 118080, Note_on_c, 0, 48, 0
1, 118080, Note_on_c, 0, 32, 0
1, 118080, Note_on_c, 0, 47, 50
1, 118080, Note_on_c, 0, 31, 50
1, 118080, Control_c, 0, 64, 0
1, 118085, Note_on_c, 0, 65, 0
1, 118090, Note_on_c, 0, 67, 62
1, 118200, Note_on_c, 0, 50, 35
1, 118200, Control_c, 0, 64, 127
1, 118320, Note_on_c, 0, 50, 0
1, 118320, Note_on_c, 0, 65, 59
1, 118560, Note_on_c, 0, 65, 0
1, 118560, Note_on_c, 0, 63, 56
1, 118572, Control_c, 0, 64, 0
1, 118666, Control_c, 0, 64, 127
1, 118680, Note_on_c, 0, 50, 32
1, 118800, Note_on_c, 0, 50, 0
1, 118800, Note_on_c, 0, 63, 0
1, 118800, Note_on_c, 0, 62, 50
1, 119040, Tempo, 711575
1, 119040, Note_on_c, 0, 62, 0
1, 119040, Note_on_c, 0, 67, 0
1, 119040, Note_on_c, 0, 67, 59
1, 119040, Note_on_c, 0, 60, 43
1, 119046, Control_c, 0, 64, 0
1, 119097, Control_c, 0, 64, 127
1, 119160, Note_on_c, 0, 50, 30
1, 119280, Note_on_c, 0, 50, 0
1, 119280, Note_on_c, 0, 60, 0
1, 119280, Note_on_c, 0, 59, 41
1, 119520, Tempo, 703235
1, 119520, Note_on_c, 0, 59, 0
1, 119520, Note_on_c, 0, 67, 0
1, 119520, Note_on_c, 0, 31, 0
1, 119520, Note_on_c, 0, 47, 0
1, 119520, Note_on_c, 0, 69, 55
1, 119520, Note_on_c, 0, 57, 43
1, 119526, Control_c, 0, 64, 0
1, 119552, Control_c, 0, 64, 127
1, 119640, Note_on_c, 0, 50, 30
1, 119760, Tempo, 733317
1, 119760, Note_on_c, 0, 50, 0
1, 119760, Note_on_c, 0, 57, 0
1, 119760, Note_on_c, 0, 69, 0
1, 119760, Note_on_c, 0, 71, 59
1, 119760, Note_on_c, 0, 55, 40
1, 119880, Tempo, 847218
1, 119940, Note_on_c, 0, 63, 60
1, 119997, Note_on_c, 0, 48, 45
1, 120000, Tempo, 720115
1, 120000, Note_on_c, 0, 55, 0
1, 120000, Note_on_c, 0, 71, 0
1, 120000, Note_on_c, 0, 75, 69
1, 120000, Control_c, 0, 64, 0
1, 120113, Control_c, 0, 64, 127
1, 120120, Note_on_c, 0, 36, 31
1, 120233, Note_on_c, 0, 50, 42
1, 120237, Note_on_c, 0, 48, 0
1, 120240, Note_on_c, 0, 36, 0
1, 120473, Note_on_c, 0, 50, 0
1, 120480, Tempo, 707380
1, 120486, Note_on_c, 0, 51, 47
1, 120492, Control_c, 0, 64, 0
1, 120586, Control_c, 0, 64, 127
1, 120600, Note_on_c, 0, 48, 32
1, 120720, Note_on_c, 0, 48, 0
1, 120721, Note_on_c, 0, 53, 42
1, 120726, Note_on_c, 0, 51, 0
1, 120960, Tempo, 699138
1, 120960, Control_c, 0, 64, 0
1, 120961, Note_on_c, 0, 53, 0
1, 120964, Note_on_c, 0, 55, 48
1, 121013, Control_c, 0, 64, 127
1, 121080, Note_on_c, 0, 48, 32
1, 121200, Note_on_c, 0, 48, 0
1, 121200, Note_on_c, 0, 63, 0
1, 121200, Note_on_c, 0, 75, 0
1, 121200, Note_on_c, 0, 74, 51
1, 121204, Note_on_c, 0, 55, 0
1, 121206, Note_on_c, 0, 57, 39
1, 121440, Tempo, 724463
1, 121440, Note_on_c, 0, 59, 42
1, 121446, Note_on_c, 0, 57, 0
1, 121446, Control_c, 0, 64, 0
1, 121493, Control_c, 0, 64, 127
1, 121536, Note_on_c, 0, 74, 0
1, 121536, Note_on_c, 0, 72, 55
1, 121574, Tempo, 720115
1, 121598, Tempo, 724463
1, 121600, Note_on_c, 0, 59, 0
1, 121600, Note_on_c, 0, 60, 47
1, 121622, Tempo, 733317
1, 121632, Note_on_c, 0, 72, 0
1, 121632, Note_on_c, 0, 70, 53
1, 121646, Tempo, 737826
1, 121670, Tempo, 747012
1, 121694, Tempo, 751691
1, 121718, Tempo, 761228
1, 121728, Note_on_c, 0, 70, 0
1, 121728, Note_on_c, 0, 69, 51
1, 121742, Tempo, 771010
1, 121760, Note_on_c, 0, 60, 0
1, 121760, Note_on_c, 0, 62, 52
1, 121761, Tempo, 786164
1, 121780, Tempo, 796601
1, 121800, Tempo, 841279
1, 121819, Tempo, 884695
1, 121824, Note_on_c, 0, 69, 0
1, 121824, Note_on_c, 0, 67, 50
1, 121838, Tempo, 932836
1, 121857, Tempo, 986518
1, 121876, Tempo, 1046755
1, 121882, Tempo, 994695
1, 121891, Tempo, 751691
1, 121920, Tempo, 733317
1, 121920, Note_on_c, 0, 67, 0
1, 121920, Note_on_c, 0, 62, 0
1, 121920, Note_on_c, 0, 65, 59
1, 121920, Note_on_c, 0, 63, 59
1, 121920, Note_on_c, 0, 57, 57
1, 121920, Note_on_c, 0, 41, 57
1, 121920, Control_c, 0, 64, 0
1, 122019, Control_c, 0, 64, 127
1, 122040, Note_on_c, 0, 53, 32
1, 122160, Note_on_c, 0, 53, 0
1, 122160, Note_on_c, 0, 63, 0
1, 122160, Note_on_c, 0, 62, 53
1, 122400, Tempo, 699138
1, 122400, Note_on_c, 0, 62, 0
1, 122400, Note_on_c, 0, 60, 49
1, 122408, Control_c, 0, 64, 0
1, 122471, Control_c, 0, 64, 127
1, 122520, Note_on_c, 0, 53, 32
1, 122640, Note_on_c, 0, 53, 0
1, 122640, Note_on_c, 0, 60, 0
1, 122640, Note_on_c, 0, 58, 48
1, 122880, Note_on_c, 0, 58, 0
1, 122880, Note_on_c, 0, 57, 0
1, 122880, Note_on_c, 0, 57, 47
1, 122885, Control_c, 0, 64, 0
1, 122940, Control_c, 0, 64, 127
1, 123000, Note_on_c, 0, 53, 32
1, 123120, Note_on_c, 0, 53, 0
1, 123120, Note_on_c, 0, 57, 0
1, 123120, Note_on_c, 0, 55, 43
1, 123350, Tempo, 720115
1, 123360, Note_on_c, 0, 55, 0
1, 123360, Note_on_c, 0, 53, 46
1, 123366, Control_c, 0, 64, 0
1, 123374, Tempo, 724463
1, 123398, Tempo, 728863
1, 123406, Control_c, 0, 64, 127
1, 123422, Tempo, 733317
1, 123446, Tempo, 737826
1, 123456, Note_on_c, 0, 65, 0
1, 123456, Note_on_c, 0, 67, 42
1, 123470, Tempo, 742390
1, 123480, Note_on_c, 0, 53, 0
1, 123480, Note_on_c, 0, 51, 45
1, 123494, Tempo, 747012
1, 123518, Tempo, 751691
1, 123542, Tempo, 756430
1, 123552, Note_on_c, 0, 67, 0
1, 123552, Note_on_c, 0, 69, 46
1, 123566, Tempo, 761228
1, 123590, Tempo, 775996
1, 123600, Note_on_c, 0, 51, 0
1, 123600, Note_on_c, 0, 50, 44
1, 123614, Tempo, 791348
1, 123638, Tempo, 807320
1, 123648, Note_on_c, 0, 69, 0
1, 123648, Note_on_c, 0, 70, 50
1, 123662, Tempo, 823949
1, 123681, Tempo, 841279
1, 123700, Tempo, 853242
1, 123720, Tempo, 859353
1, 123720, Note_on_c, 0, 50, 0
1, 123720, Note_on_c, 0, 48, 42
1, 123739, Tempo, 871840
1, 123744, Tempo, 823949
1, 123744, Note_on_c, 0, 70, 0
1, 123744, Note_on_c, 0, 72, 54
1, 123764, Tempo, 962773
1, 123783, Tempo, 986518
1, 123802, Tempo, 1011463
1, 123821, Tempo, 1037703
1, 123840, Tempo, 703235
1, 123840, Note_on_c, 0, 72, 0
1, 123840, Note_on_c, 0, 48, 0
1, 123840, Note_on_c, 0, 41, 0
1, 123840, Note_on_c, 0, 74, 59
1, 123840, Note_on_c, 0, 34, 34
1, 123840, Note_on_c, 0, 46, 41
1, 123840, Control_c, 0, 64, 0
1, 123925, Control_c, 0, 64, 127
1, 123960, Note_on_c, 0, 62, 32
1, 124080, Tempo, 660647
1, 124080, Note_on_c, 0, 62, 0
1, 124080, Note_on_c, 0, 74, 0
1, 124080, Note_on_c, 0, 72, 55
1, 124200, Tempo, 841279
1, 124320, Tempo, 747012
1, 124320, Note_on_c, 0, 72, 0
1, 124320, Note_on_c, 0, 46, 0
1, 124320, Note_on_c, 0, 34, 0
1, 124320, Note_on_c, 0, 70, 65
1, 124320, Note_on_c, 0, 66, 40
1, 124341, Control_c, 0, 64, 0
1, 124419, Control_c, 0, 64, 127
1, 124440, Note_on_c, 0, 62, 37
1, 124560, Tempo, 699138
1, 124560, Note_on_c, 0, 62, 0
1, 124560, Note_on_c, 0, 70, 0
1, 124560, Note_on_c, 0, 69, 54
1, 124800, Tempo, 703235
1, 124800, Note_on_c, 0, 69, 0
1, 124800, Control_c, 0, 64, 0
1, 124810, Note_on_c, 0, 79, 69
1, 124885, Control_c, 0, 64, 127
1, 124920, Note_on_c, 0, 66, 0
1, 124920, Note_on_c, 0, 67, 30
1, 125040, Tempo, 660647
1, 125040, Note_on_c, 0, 79, 0
1, 125040, Note_on_c, 0, 77, 56
1, 125160, Tempo, 841279
1, 125280, Tempo, 747012
1, 125280, Note_on_c, 0, 77, 0
1, 125280, Note_on_c, 0, 67, 0
1, 125280, Note_on_c, 0, 75, 64
1, 125280, Note_on_c, 0, 69, 32
1, 125301, Control_c, 0, 64, 0
1, 125379, Control_c, 0, 64, 127
1, 125400, Note_on_c, 0, 65, 32
1, 125520, Tempo, 699138
1, 125520, Note_on_c, 0, 65, 0
1, 125520, Note_on_c, 0, 69, 0
1, 125520, Note_on_c, 0, 75, 0
1, 125520, Note_on_c, 0, 74, 54
1, 125520, Note_on_c, 0, 70, 30
1, 125760, Tempo, 703235
1, 125760, Note_on_c, 0, 70, 0
1, 125760, Note_on_c, 0, 74, 0
1, 125760, Note_on_c, 0, 72, 59
1, 125760, Note_on_c, 0, 46, 41
1, 125760, Control_c, 0, 64, 0
1, 125845, Control_c, 0, 64, 127
1, 125880, Note_on_c, 0, 60, 32
1, 126000, Tempo, 660647
1, 126000, Note_on_c, 0, 60, 0
1, 126000, Note_on_c, 0, 72, 0
1, 126000, Note_on_c, 0, 70, 51
1, 126120, Tempo, 841279
1, 126240, Tempo, 747012
1, 126240, Note_on_c, 0, 70, 0
1, 126240, Note_on_c, 0, 46, 0
1, 126240, Note_on_c, 0, 68, 57
1, 126240, Note_on_c, 0, 63, 40
1, 126261, Control_c, 0, 64, 0
1, 126339, Control_c, 0, 64, 127
1, 126360, Note_on_c, 0, 60, 32
1, 126480, Tempo, 699138
1, 126480, Note_on_c, 0, 60, 0
1, 126480, Note_on_c, 0, 68, 0
1, 126480, Note_on_c, 0, 67, 52
1, 126720, Tempo, 703235
1, 126720, Note_on_c, 0, 67, 0
1, 126720, Control_c, 0, 64, 0
1, 126730, Note_on_c, 0, 77, 65
1, 126805, Control_c, 0, 64, 127
1, 126840, Note_on_c, 0, 63, 0
1, 126840, Note_on_c, 0, 65, 30
1, 126960, Tempo, 660647
1, 126960, Note_on_c, 0, 77, 0
1, 126960, Note_on_c, 0, 75, 56
1, 127080, Tempo, 841279
1, 127200, Tempo, 747012
1, 127200, Note_on_c, 0, 75, 0
1, 127200, Note_on_c, 0, 65, 0
1, 127200, Note_on_c, 0, 74, 64
1, 127200, Note_on_c, 0, 67, 32
1, 127221, Control_c, 0, 64, 0
1, 127299, Control_c, 0, 64, 127
1, 127320, Note_on_c, 0, 63, 32
1, 127440, Tempo, 699138
1, 127440, Note_on_c, 0, 63, 0
1, 127440, Note_on_c, 0, 67, 0
1, 127440, Note_on_c, 0, 74, 0
1, 127440, Note_on_c, 0, 72, 54
1, 127440, Note_on_c, 0, 68, 30
1, 127680, Tempo, 703235
1, 127680, Note_on_c, 0, 68, 0
1, 127680, Note_on_c, 0, 72, 0
1, 127680, Note_on_c, 0, 70, 59
1, 127680, Note_on_c, 0, 46, 41
1, 127680, Control_c, 0, 64, 0
1, 127765, Control_c, 0, 64, 127
1, 127800, Note_on_c, 0, 62, 32
1, 127920, Tempo, 660647
1, 127920, Note_on_c, 0, 62, 0
1, 127920, Note_on_c, 0, 70, 0
1, 127920, Note_on_c, 0, 68, 51
1, 128040, Tempo, 841279
1, 128160, Tempo, 747012
1, 128160, Note_on_c, 0, 68, 0
1, 128160, Note_on_c, 0, 67, 57
1, 128181, Control_c, 0, 64, 0
1, 128259, Control_c, 0, 64, 127
1, 128280, Note_on_c, 0, 56, 32
1, 128400, Tempo, 720981
1, 128400, Note_on_c, 0, 56, 0
1, 128400, Note_on_c, 0, 67, 0
1, 128400, Note_on_c, 0, 66, 52
1, 128400, Note_on_c, 0, 34, 41
1, 128640, Tempo, 734214
1, 128640, Note_on_c, 0, 34, 0
1, 128640, Note_on_c, 0, 66, 0
1, 128640, Note_on_c, 0, 46, 0
1, 128640, Note_on_c, 0, 67, 59
1, 128640, Note_on_c, 0, 39, 41
1, 128640, Control_c, 0, 64, 0
1, 128725, Control_c, 0, 64, 127
1, 128760, Note_on_c, 0, 55, 32
1, 128880, Tempo, 699953
1, 128880, Note_on_c, 0, 55, 0
1, 128880, Note_on_c, 0, 67, 0
1, 128880, Note_on_c, 0, 63, 51
1, 129000, Tempo, 841279
1, 129120, Tempo, 762195
1, 129120, Note_on_c, 0, 63, 0
1, 129120, Note_on_c, 0, 39, 0
1, 129120, Note_on_c, 0, 62, 53
1, 129120, Note_on_c, 0, 33, 29
1, 129120, Note_on_c, 0, 45, 35
1, 129141, Control_c, 0, 64, 0
1, 129219, Control_c, 0, 64, 127
1, 129240, Note_on_c, 0, 55, 32
1, 129360, Tempo, 842460
1, 129360, Note_on_c, 0, 55, 0
1, 129360, Note_on_c, 0, 62, 0
1, 129360, Note_on_c, 0, 61, 48
1, 129600, Tempo, 788436
1, 129600, Note_on_c, 0, 61, 0
1, 129600, Note_on_c, 0, 33, 0
1, 129600, Note_on_c, 0, 62, 53
1, 129600, Note_on_c, 0, 38, 36
1, 129604, Control_c, 0, 64, 0
1, 129671, Control_c, 0, 64, 127
1, 129760, Note_on_c, 0, 62, 0
1, 129760, Note_on_c, 0, 57, 41
1, 129920, Note_on_c, 0, 57, 0
1, 129920, Note_on_c, 0, 55, 41
1, 130080, Tempo, 832178
1, 130080, Note_on_c, 0, 55, 0
1, 130080, Note_on_c, 0, 54, 48
1, 130092, Control_c, 0, 64, 0
1, 130165, Control_c, 0, 64, 127
1, 130320, Tempo, 974026
1, 130320, Note_on_c, 0, 54, 0
1, 130320, Note_on_c, 0, 45, 0
1, 130320, Note_on_c, 0, 55, 34
1, 130320, Note_on_c, 0, 52, 28
1, 130320, Note_on_c, 0, 46, 31
1, 130465, Control_c, 0, 64, 0
1, 130500, Note_on_c, 0, 38, 35
1, 130560, Tempo, 815217
1, 130560, Note_on_c, 0, 46, 0
1, 130560, Note_on_c, 0, 52, 0
1, 130560, Note_on_c, 0, 38, 0
1, 130560, Note_on_c, 0, 55, 0
1, 130560, Note_on_c, 0, 54, 40
1, 130560, Note_on_c, 0, 57, 48
1, 130560, Note_on_c, 0, 62, 48
1, 130560, Note_on_c, 0, 45, 41
1, 130601, Control_c, 0, 64, 127
1, 130994, Control_c, 0, 64, 0
1, 131040, Tempo, 600000
1, 131040, Note_on_c, 0, 45, 0
1, 131040, Note_on_c, 0, 57, 0
1, 131040, Note_on_c, 0, 38, 0
1, 131040, Note_on_c, 0, 54, 0
1, 131040, Note_on_c, 0, 62, 0
1, 131280, Tempo, 504202
1, 131280, Note_on_c, 0, 50, 46
1, 131280, Note_on_c, 0, 38, 42
1, 131340, Note_on_c, 0, 38, 0
1, 131340, Note_on_c, 0, 50, 0
1, 131520, Tempo, 452830
1, 131520, Note_on_c, 0, 55, 50
1, 131520, Note_on_c, 0, 43, 50
1, 131520, Note_on_c, 0, 31, 42
1, 131563, Control_c, 0, 64, 127
1, 131600, Note_on_c, 0, 55, 0
1, 131600, Note_on_c, 0, 50, 35
1, 131680, Note_on_c, 0, 50, 0
1, 131680, Note_on_c, 0, 57, 35
1, 131760, Tempo, 533333
1, 131760, Note_on_c, 0, 57, 0
1, 131760, Note_on_c, 0, 58, 50
1, 131772, Control_c, 0, 64, 0
1, 131820, Note_on_c, 0, 58, 0
1, 132000, Tempo, 454545
1, 132000, Note_on_c, 0, 57, 50
1, 132043, Control_c, 0, 64, 127
1, 132080, Note_on_c, 0, 57, 0
1, 132080, Note_on_c, 0, 50, 38
1, 132160, Note_on_c, 0, 50, 0
1, 132160, Note_on_c, 0, 58, 39
1, 132240, Tempo, 535714
1, 132240, Note_on_c, 0, 58, 0
1, 132240, Note_on_c, 0, 60, 50
1, 132250, Control_c, 0, 64, 0
1, 132300, Note_on_c, 0, 60, 0
1, 132480, Tempo, 454545
1, 132480, Note_on_c, 0, 58, 50
1, 132501, Control_c, 0, 64, 127
1, 132560, Note_on_c, 0, 58, 0
1, 132560, Note_on_c, 0, 50, 36
1, 132640, Note_on_c, 0, 50, 0
1, 132640, Note_on_c, 0, 60, 36
1, 132720, Tempo, 528634
1, 132720, Note_on_c, 0, 60, 0
1, 132720, Note_on_c, 0, 62, 50
1, 132724, Control_c, 0, 64, 0
1, 132780, Note_on_c, 0, 62, 0
1, 132960, Tempo, 454545
1, 132960, Note_on_c, 0, 31, 0
1, 132960, Note_on_c, 0, 43, 0
1, 132960, Note_on_c, 0, 55, 50
1, 132981, Control_c, 0, 64, 127
1, 133040, Note_on_c, 0, 55, 0
1, 133040, Note_on_c, 0, 50, 37
1, 133120, Note_on_c, 0, 50, 0
1, 133120, Note_on_c, 0, 57, 37
1, 133200, Tempo, 528634
1, 133200, Note_on_c, 0, 57, 0
1, 133200, Note_on_c, 0, 58, 50
1, 133200, Note_on_c, 0, 34, 37
1, 133200, Note_on_c, 0, 46, 44
1, 133210, Control_c, 0, 64, 0
1, 133260, Note_on_c, 0, 46, 0
1, 133260, Note_on_c, 0, 34, 0
1, 133260, Note_on_c, 0, 58, 0
1, 133440, Tempo, 454545
1, 133440, Note_on_c, 0, 57, 50
1, 133440, Note_on_c, 0, 36, 42
1, 133440, Note_on_c, 0, 48, 50
1, 133455, Control_c, 0, 64, 127
1, 133520, Note_on_c, 0, 57, 0
1, 133520, Note_on_c, 0, 51, 38
1, 133560, Note_on_c, 0, 48, 0
1, 133560, Note_on_c, 0, 36, 0
1, 133600, Note_on_c, 0, 51, 0
1, 133600, Note_on_c, 0, 58, 38
1, 133680, Tempo, 526316
1, 133680, Note_on_c, 0, 58, 0
1, 133680, Note_on_c, 0, 60, 50
1, 133696, Control_c, 0, 64, 0
1, 133740, Note_on_c, 0, 60, 0
1, 133920, Tempo, 456274
1, 133920, Note_on_c, 0, 54, 50
1, 133920, Note_on_c, 0, 38, 40
1, 133920, Note_on_c, 0, 50, 48
1, 133952, Control_c, 0, 64, 127
1, 134000, Note_on_c, 0, 54, 0
1, 134000, Note_on_c, 0, 48, 37
1, 134040, Note_on_c, 0, 50, 0
1, 134040, Note_on_c, 0, 38, 0
1, 134080, Note_on_c, 0, 48, 0
1, 134080, Note_on_c, 0, 55, 37
1, 134160, Tempo, 521739
1, 134160, Note_on_c, 0, 55, 0
1, 134160, Note_on_c, 0, 57, 50
1, 134168, Control_c, 0, 64, 0
1, 134220, Note_on_c, 0, 57, 0
1, 134400, Tempo, 456274
1, 134400, Note_on_c, 0, 55, 50
1, 134400, Note_on_c, 0, 31, 42
1, 134400, Note_on_c, 0, 43, 50
1, 134412, Control_c, 0, 64, 127
1, 134480, Note_on_c, 0, 55, 0
1, 134480, Note_on_c, 0, 50, 39
1, 134560, Note_on_c, 0, 50, 0
1, 134560, Note_on_c, 0, 57, 39
1, 134640, Tempo, 519481
1, 134640, Note_on_c, 0, 57, 0
1, 134640, Note_on_c, 0, 43, 0
1, 134640, Note_on_c, 0, 31, 0
1, 134640, Note_on_c, 0, 58, 50
1, 134654, Control_c, 0, 64, 0
1, 134700, Note_on_c, 0, 58, 0
1, 134880, Tempo, 476190
1, 134880, Note_on_c, 0, 57, 50
1, 135000, Note_on_c, 0, 57, 0
1, 135060, Note_on_c, 0, 54, 44
1, 135120, Tempo, 504202
1, 135120, Note_on_c, 0, 54, 0
1, 135120, Note_on_c, 0, 50, 58
1, 135120, Note_on_c, 0, 38, 49
1, 135180, Note_on_c, 0, 38, 0
1, 135180, Note_on_c, 0, 50, 0
1, 135360, Tempo, 452830
1, 135360, Note_on_c, 0, 55, 50
1, 135360, Note_on_c, 0, 31, 42
1, 135360, Note_on_c, 0, 43, 50
1, 135360, Control_c, 0, 64, 127
1, 135440, Note_on_c, 0, 55, 0
1, 135440, Note_on_c, 0, 50, 37
1, 135520, Note_on_c, 0, 50, 0
1, 135520, Note_on_c, 0, 57, 37
1, 135600, Tempo, 533333
1, 135600, Note_on_c, 0, 57, 0
1, 135600, Note_on_c, 0, 58, 50
1, 135612, Control_c, 0, 64, 0
1, 135660, Note_on_c, 0, 58, 0
1, 135840, Tempo, 454545
1, 135840, Note_on_c, 0, 57, 50
1, 135883, Control_c, 0, 64, 127
1, 135920, Note_on_c, 0, 57, 0
1, 135920, Note_on_c, 0, 50, 39
1, 136000, Note_on_c, 0, 50, 0
1, 136000, Note_on_c, 0, 58, 39
1, 136080, Tempo, 535714
1, 136080, Note_on_c, 0, 58, 0
1, 136080, Note_on_c, 0, 60, 50
1, 136090, Control_c, 0, 64, 0
1, 136140, Note_on_c, 0, 60, 0
1, 136320, Tempo, 454545
1, 136320, Note_on_c, 0, 58, 50
1, 136341, Control_c, 0, 64, 127
1, 136400, Note_on_c, 0, 58, 0
1, 136400, Note_on_c, 0, 50, 37
1, 136480, Note_on_c, 0, 50, 0
1, 136480, Note_on_c, 0, 60, 37
1, 136560, Tempo, 528634
1, 136560, Note_on_c, 0, 60, 0
1, 136560, Note_on_c, 0, 62, 50
1, 136564, Control_c, 0, 64, 0
1, 136620, Note_on_c, 0, 62, 0
1, 136800, Tempo, 454545
1, 136800, Note_on_c, 0, 43, 0
1, 136800, Note_on_c, 0, 31, 0
1, 136800, Note_on_c, 0, 55, 50
1, 136821, Control_c, 0, 64, 127
1, 136880, Note_on_c, 0, 55, 0
1, 136880, Note_on_c, 0, 50, 39
1, 136960, Note_on_c, 0, 50, 0
1, 136960, Note_on_c, 0, 57, 39
1, 137040, Tempo, 528634
1, 137040, Note_on_c, 0, 57, 0
1, 137040, Note_on_c, 0, 58, 50
1, 137040, Note_on_c, 0, 34, 37
1, 137040, Note_on_c, 0, 46, 44
1, 137050, Control_c, 0, 64, 0
1, 137100, Note_on_c, 0, 46, 0
1, 137100, Note_on_c, 0, 34, 0
1, 137100, Note_on_c, 0, 58, 0
1, 137280, Tempo, 454545
1, 137280, Note_on_c, 0, 57, 50
1, 137280, Note_on_c, 0, 36, 42
1, 137280, Note_on_c, 0, 48, 50
1, 137295, Control_c, 0, 64, 127
1, 137360, Note_on_c, 0, 57, 0
1, 137360, Note_on_c, 0, 51, 39
1, 137400, Note_on_c, 0, 48, 0
1, 137400, Note_on_c, 0, 36, 0
1, 137440, Note_on_c, 0, 51, 0
1, 137440, Note_on_c, 0, 58, 39
1, 137520, Tempo, 526316
1, 137520, Note_on_c, 0, 58, 0
1, 137520, Note_on_c, 0, 60, 50
1, 137536, Control_c, 0, 64, 0
1, 137580, Note_on_c, 0, 60, 0
1, 137760, Tempo, 456274
1, 137760, Note_on_c, 0, 59, 50
1, 137760, Note_on_c, 0, 38, 40
1, 137760, Note_on_c, 0, 50, 48
1, 137792, Control_c, 0, 64, 127
1, 137840, Note_on_c, 0, 59, 0
1, 137840, Note_on_c, 0, 50, 38
1, 137880, Note_on_c, 0, 50, 0
1, 137880, Note_on_c, 0, 38, 0
1, 137920, Note_on_c, 0, 50, 0
1, 137920, Note_on_c, 0, 60, 38
1, 138000, Tempo, 521739
1, 138000, Note_on_c, 0, 60, 0
1, 138000, Note_on_c, 0, 62, 50
1, 138008, Control_c, 0, 64, 0
1, 138060, Note_on_c, 0, 62, 0
1, 138240, Tempo, 456274
1, 138240, Note_on_c, 0, 60, 50
1, 138240, Note_on_c, 0, 51, 50
1, 138240, Note_on_c, 0, 39, 42
1, 138252, Control_c, 0, 64, 127
1, 138320, Note_on_c, 0, 60, 0
1, 138320, Note_on_c, 0, 55, 42
1, 138400, Note_on_c, 0, 55, 0
1, 138400, Note_on_c, 0, 62, 44
1, 138480, Tempo, 481928
1, 138480, Note_on_c, 0, 62, 0
1, 138480, Note_on_c, 0, 39, 0
1, 138480, Note_on_c, 0, 51, 0
1, 138480, Note_on_c, 0, 63, 50
1, 138494, Control_c, 0, 64, 0
1, 138540, Note_on_c, 0, 63, 0
1, 138720, Tempo, 431655
1, 138720, Note_on_c, 0, 59, 54
1, 138737, Control_c, 0, 64, 127
1, 138800, Note_on_c, 0, 59, 0
1, 138800, Note_on_c, 0, 53, 50
1, 138880, Note_on_c, 0, 53, 0
1, 138880, Note_on_c, 0, 60, 50
1, 138960, Tempo, 510638
1, 138960, Note_on_c, 0, 60, 0
1, 138960, Note_on_c, 0, 62, 56
1, 138960, Note_on_c, 0, 38, 35
1, 138960, Note_on_c, 0, 50, 42
1, 138968, Control_c, 0, 64, 0
1, 139020, Note_on_c, 0, 62, 0
1, 139080, Note_on_c, 0, 50, 0
1, 139080, Note_on_c, 0, 38, 0
1, 139200, Tempo, 454545
1, 139200, Note_on_c, 0, 60, 59
1, 139200, Note_on_c, 0, 51, 55
1, 139200, Note_on_c, 0, 39, 46
1, 139215, Control_c, 0, 64, 127
1, 139280, Note_on_c, 0, 60, 0
1, 139280, Note_on_c, 0, 55, 51
1, 139320, Note_on_c, 0, 39, 0
1, 139320, Note_on_c, 0, 51, 0
1, 139360, Note_on_c, 0, 55, 0
1, 139360, Note_on_c, 0, 62, 51
1, 139440, Tempo, 526316
1, 139440, Note_on_c, 0, 62, 0
1, 139440, Note_on_c, 0, 63, 59
1, 139456, Control_c, 0, 64, 0
1, 139500, Note_on_c, 0, 63, 0
1, 139680, Tempo, 456274
1, 139680, Note_on_c, 0, 63, 63
1, 139680, Note_on_c, 0, 48, 57
1, 139680, Note_on_c, 0, 36, 48
1, 139712, Control_c, 0, 64, 127
1, 139760, Note_on_c, 0, 63, 0
1, 139760, Note_on_c, 0, 55, 53
1, 139800, Note_on_c, 0, 36, 0
1, 139800, Note_on_c, 0, 48, 0
1, 139840, Note_on_c, 0, 55, 0
1, 139840, Note_on_c, 0, 65, 54
1, 139920, Tempo, 521739
1, 139920, Note_on_c, 0, 65, 0
1, 139920, Note_on_c, 0, 67, 61
1, 139928, Control_c, 0, 64, 0
1, 139980, Note_on_c, 0, 67, 0
1, 140160, Tempo, 454545
1, 140160, Note_on_c, 0, 66, 70
1, 140160, Note_on_c, 0, 38, 50
1, 140160, Note_on_c, 0, 50, 59
1, 140175, Control_c, 0, 64, 127
1, 140240, Note_on_c, 0, 66, 0
1, 140240, Note_on_c, 0, 54, 57
1, 140320, Note_on_c, 0, 54, 0
1, 140320, Note_on_c, 0, 67, 57
1, 140400, Tempo, 526316
1, 140400, Note_on_c, 0, 67, 0
1, 140400, Note_on_c, 0, 50, 0
1, 140400, Note_on_c, 0, 38, 0
1, 140400, Note_on_c, 0, 69, 71
1, 140416, Control_c, 0, 64, 0
1, 140460, Note_on_c, 0, 69, 0
1, 140640, Note_on_c, 0, 62, 67
1, 140700, Note_on_c, 0, 62, 0
1, 140880, Tempo, 504202
1, 140880, Note_on_c, 0, 62, 73
1, 140880, Note_on_c, 0, 50, 70
1, 140940, Note_on_c, 0, 50, 0
1, 140940, Note_on_c, 0, 62, 0
1, 141120, Tempo, 475059
1, 141120, Note_on_c, 0, 67, 64
1, 141120, Note_on_c, 0, 46, 64
1, 141120, Note_on_c, 0, 55, 76
1, 141120, Note_on_c, 0, 43, 64
1, 141120, Control_c, 0, 64, 127
1, 141200, Note_on_c, 0, 67, 0
1, 141200, Note_on_c, 0, 62, 49
1, 141280, Note_on_c, 0, 62, 0
1, 141280, Note_on_c, 0, 69, 49
1, 141360, Tempo, 546448
1, 141360, Note_on_c, 0, 69, 0
1, 141360, Note_on_c, 0, 70, 64
1, 141375, Control_c, 0, 64, 0
1, 141420, Note_on_c, 0, 70, 0
1, 141600, Tempo, 478851
1, 141600, Note_on_c, 0, 46, 0
1, 141600, Note_on_c, 0, 55, 0
1, 141600, Note_on_c, 0, 69, 64
1, 141600, Note_on_c, 0, 57, 80
1, 141600, Note_on_c, 0, 50, 68
1, 141671, Control_c, 0, 64, 127
1, 141680, Note_on_c, 0, 69, 0
1, 141680, Note_on_c, 0, 62, 50
1, 141760, Note_on_c, 0, 62, 0
1, 141760, Note_on_c, 0, 70, 50
1, 141840, Tempo, 551471
1, 141840, Note_on_c, 0, 70, 0
1, 141840, Note_on_c, 0, 72, 64
1, 141861, Control_c, 0, 64, 0
1, 141900, Note_on_c, 0, 72, 0
1, 142080, Tempo, 480769
1, 142080, Note_on_c, 0, 50, 0
1, 142080, Note_on_c, 0, 57, 0
1, 142080, Note_on_c, 0, 43, 0
1, 142080, Note_on_c, 0, 70, 64
1, 142080, Note_on_c, 0, 55, 71
1, 142080, Note_on_c, 0, 58, 84
1, 142133, Control_c, 0, 64, 127
1, 142160, Note_on_c, 0, 70, 0
1, 142160, Note_on_c, 0, 62, 49
1, 142240, Note_on_c, 0, 62, 0
1, 142240, Note_on_c, 0, 72, 49
1, 142320, Tempo, 546448
1, 142320, Note_on_c, 0, 72, 0
1, 142320, Note_on_c, 0, 74, 64
1, 142345, Control_c, 0, 64, 0
1, 142380, Note_on_c, 0, 74, 0
1, 142560, Tempo, 471328
1, 142560, Note_on_c, 0, 58, 0
1, 142560, Note_on_c, 0, 55, 0
1, 142560, Note_on_c, 0, 67, 64
1, 142631, Control_c, 0, 64, 127
1, 142640, Note_on_c, 0, 67, 0
1, 142640, Note_on_c, 0, 62, 51
1, 142720, Note_on_c, 0, 62, 0
1, 142720, Note_on_c, 0, 69, 51
1, 142800, Tempo, 539084
1, 142800, Note_on_c, 0, 69, 0
1, 142800, Note_on_c, 0, 70, 64
1, 142800, Note_on_c, 0, 55, 72
1, 142800, Note_on_c, 0, 46, 61
1, 142810, Control_c, 0, 64, 0
1, 142860, Note_on_c, 0, 46, 0
1, 142860, Note_on_c, 0, 55, 0
1, 142860, Note_on_c, 0, 70, 0
1, 143040, Tempo, 473186
1, 143040, Note_on_c, 0, 69, 64
1, 143040, Note_on_c, 0, 48, 67
1, 143040, Note_on_c, 0, 57, 79
1, 143040, Note_on_c, 0, 55, 67
1, 143055, Control_c, 0, 64, 127
1, 143120, Note_on_c, 0, 69, 0
1, 143120, Note_on_c, 0, 63, 50
1, 143200, Note_on_c, 0, 63, 0
1, 143200, Note_on_c, 0, 70, 50
1, 143280, Tempo, 534283
1, 143280, Note_on_c, 0, 70, 0
1, 143280, Note_on_c, 0, 72, 64
1, 143284, Control_c, 0, 64, 0
1, 143340, Note_on_c, 0, 72, 0
1, 143520, Tempo, 475059
1, 143520, Note_on_c, 0, 55, 0
1, 143520, Note_on_c, 0, 57, 0
1, 143520, Note_on_c, 0, 48, 0
1, 143520, Note_on_c, 0, 66, 64
1, 143520, Note_on_c, 0, 62, 77
1, 143520, Note_on_c, 0, 54, 66
1, 143520, Note_on_c, 0, 50, 61
1, 143552, Control_c, 0, 64, 127
1, 143600, Note_on_c, 0, 66, 0
1, 143600, Note_on_c, 0, 60, 50
1, 143680, Note_on_c, 0, 60, 0
1, 143680, Note_on_c, 0, 67, 50
1, 143760, Tempo, 521739
1, 143760, Note_on_c, 0, 67, 0
1, 143760, Note_on_c, 0, 69, 64
1, 143769, Control_c, 0, 64, 0
1, 143820, Note_on_c, 0, 69, 0
1, 144000, Tempo, 461538
1, 144000, Note_on_c, 0, 50, 0
1, 144000, Note_on_c, 0, 54, 0
1, 144000, Note_on_c, 0, 62, 0
1, 144000, Note_on_c, 0, 67, 64
1, 144000, Note_on_c, 0, 55, 81
1, 144000, Note_on_c, 0, 46, 68
1, 144000, Note_on_c, 0, 50, 68
1, 144052, Control_c, 0, 64, 127
1, 144080, Note_on_c, 0, 67, 0
1, 144080, Note_on_c, 0, 62, 51
1, 144160, Note_on_c, 0, 62, 0
1, 144160, Note_on_c, 0, 69, 51
1, 144240, Tempo, 485830
1, 144240, Note_on_c, 0, 69, 0
1, 144240, Note_on_c, 0, 70, 64
1, 144254, Control_c, 0, 64, 0
1, 144300, Note_on_c, 0, 70, 0
1, 144480, Tempo, 459770
1, 144480, Note_on_c, 0, 50, 0
1, 144480, Note_on_c, 0, 46, 0
1, 144480, Note_on_c, 0, 55, 0
1, 144480, Note_on_c, 0, 69, 64
1, 144600, Note_on_c, 0, 69, 0
1, 144660, Note_on_c, 0, 66, 52
1, 144720, Tempo, 504202
1, 144720, Note_on_c, 0, 66, 0
1, 144720, Note_on_c, 0, 62, 62
1, 144720, Note_on_c, 0, 50, 71
1, 144780, Note_on_c, 0, 50, 0
1, 144780, Note_on_c, 0, 62, 0
1, 144960, Tempo, 465116
1, 144960, Note_on_c, 0, 67, 64
1, 144960, Note_on_c, 0, 43, 68
1, 144960, Note_on_c, 0, 46, 68
1, 144960, Note_on_c, 0, 55, 80
1, 144960, Control_c, 0, 64, 127
1, 145040, Note_on_c, 0, 67, 0
1, 145040, Note_on_c, 0, 62, 49
1, 145120, Note_on_c, 0, 62, 0
1, 145120, Note_on_c, 0, 69, 49
1, 145200, Tempo, 533333
1, 145200, Note_on_c, 0, 69, 0
1, 145200, Note_on_c, 0, 70, 64
1, 145211, Control_c, 0, 64, 0
1, 145260, Note_on_c, 0, 70, 0
1, 145440, Tempo, 465116
1, 145440, Note_on_c, 0, 55, 0
1, 145440, Note_on_c, 0, 46, 0
1, 145440, Note_on_c, 0, 69, 64
1, 145440, Note_on_c, 0, 57, 81
1, 145440, Note_on_c, 0, 50, 68
1, 145483, Control_c, 0, 64, 127
1, 145520, Note_on_c, 0, 69, 0
1, 145520, Note_on_c, 0, 62, 52
1, 145600, Note_on_c, 0, 62, 0
1, 145600, Note_on_c, 0, 70, 52
1, 145680, Tempo, 535714
1, 145680, Note_on_c, 0, 70, 0
1, 145680, Note_on_c, 0, 72, 64
1, 145685, Control_c, 0, 64, 0
1, 145740, Note_on_c, 0, 72, 0
1, 145920, Tempo, 465116
1, 145920, Note_on_c, 0, 50, 0
1, 145920, Note_on_c, 0, 57, 0
1, 145920, Note_on_c, 0, 43, 0
1, 145920, Note_on_c, 0, 70, 64
1, 145920, Note_on_c, 0, 55, 72
1, 145920, Note_on_c, 0, 58, 85
1, 145956, Control_c, 0, 64, 127
1, 146000, Note_on_c, 0, 70, 0
1, 146000, Note_on_c, 0, 62, 49
1, 146080, Note_on_c, 0, 62, 0
1, 146080, Note_on_c, 0, 72, 49
1, 146160, Tempo, 578369
1, 146160, Note_on_c, 0, 72, 0
1, 146160, Note_on_c, 0, 74, 64
1, 146164, Control_c, 0, 64, 0
1, 146220, Note_on_c, 0, 74, 0
1, 146400, Tempo, 429369
1, 146400, Note_on_c, 0, 58, 0
1, 146400, Note_on_c, 0, 55, 0
1, 146400, Note_on_c, 0, 75, 71
1, 146421, Control_c, 0, 64, 127
1, 146480, Note_on_c, 0, 75, 0
1, 146480, Note_on_c, 0, 67, 51
1, 146560, Note_on_c, 0, 67, 0
1, 146560, Note_on_c, 0, 77, 51
1, 146640, Tempo, 528634
1, 146640, Note_on_c, 0, 77, 0
1, 146640, Note_on_c, 0, 79, 64
1, 146640, Note_on_c, 0, 51, 53
1, 146640, Note_on_c, 0, 39, 45
1, 146650, Control_c, 0, 64, 0
1, 146700, Note_on_c, 0, 39, 0
1, 146700, Note_on_c, 0, 51, 0
1, 146700, Note_on_c, 0, 79, 0
1, 146880, Tempo, 466926
1, 146880, Note_on_c, 0, 69, 59
1, 146880, Note_on_c, 0, 53, 74
1, 146880, Note_on_c, 0, 41, 62
1, 146895, Control_c, 0, 64, 127
1, 146960, Note_on_c, 0, 69, 0
1, 146960, Note_on_c, 0, 60, 46
1, 147000, Note_on_c, 0, 41, 0
1, 147000, Note_on_c, 0, 53, 0
1, 147040, Note_on_c, 0, 60, 0
1, 147040, Note_on_c, 0, 70, 51
1, 147120, Tempo, 567430
1, 147120, Note_on_c, 0, 70, 0
1, 147120, Note_on_c, 0, 72, 59
1, 147136, Control_c, 0, 64, 0
1, 147180, Tempo, 532860
1, 147180, Note_on_c, 0, 72, 0
1, 147360, Tempo, 432464
1, 147360, Note_on_c, 0, 74, 71
1, 147360, Note_on_c, 0, 34, 55
1, 147360, Note_on_c, 0, 46, 65
1, 147392, Control_c, 0, 64, 127
1, 147440, Note_on_c, 0, 74, 0
1, 147440, Note_on_c, 0, 65, 53
1, 147480, Note_on_c, 0, 46, 0
1, 147480, Note_on_c, 0, 34, 0
1, 147520, Note_on_c, 0, 65, 0
1, 147520, Note_on_c, 0, 75, 53
1, 147600, Tempo, 521739
1, 147600, Note_on_c, 0, 75, 0
1, 147600, Note_on_c, 0, 77, 65
1, 147608, Control_c, 0, 64, 0
1, 147660, Note_on_c, 0, 77, 0
1, 147840, Tempo, 466926
1, 147840, Note_on_c, 0, 67, 59
1, 147840, Note_on_c, 0, 51, 75
1, 147840, Note_on_c, 0, 39, 63
1, 147852, Control_c, 0, 64, 127
1, 147920, Note_on_c, 0, 67, 0
1, 147920, Note_on_c, 0, 58, 47
1, 148000, Note_on_c, 0, 58, 0
1, 148000, Note_on_c, 0, 69, 47
1, 148080, Tempo, 488599
1, 148080, Note_on_c, 0, 69, 0
1, 148080, Note_on_c, 0, 39, 0
1, 148080, Note_on_c, 0, 51, 0
1, 148080, Note_on_c, 0, 70, 59
1, 148094, Control_c, 0, 64, 0
1, 148140, Note_on_c, 0, 70, 0
1, 148320, Tempo, 442022
1, 148320, Note_on_c, 0, 72, 68
1, 148337, Control_c, 0, 64, 127
1, 148400, Note_on_c, 0, 72, 0
1, 148400, Note_on_c, 0, 63, 54
1, 148480, Note_on_c, 0, 63, 0
1, 148480, Note_on_c, 0, 74, 54
1, 148560, Tempo, 510638
1, 148560, Note_on_c, 0, 74, 0
1, 148560, Note_on_c, 0, 75, 66
1, 148560, Note_on_c, 0, 33, 68
1, 148560, Note_on_c, 0, 45, 81
1, 148568, Control_c, 0, 64, 0
1, 148620, Note_on_c, 0, 75, 0
1, 148800, Tempo, 461538
1, 148800, Note_on_c, 0, 45, 0
1, 148800, Note_on_c, 0, 33, 0
1, 148800, Note_on_c, 0, 66, 59
1, 148800, Note_on_c, 0, 50, 74
1, 148800, Note_on_c, 0, 38, 62
1, 148815, Control_c, 0, 64, 127
1, 148880, Note_on_c, 0, 66, 0
1, 148880, Note_on_c, 0, 57, 46
1, 148960, Note_on_c, 0, 57, 0
1, 148960, Note_on_c, 0, 67, 46
1, 149040, Tempo, 526316
1, 149040, Note_on_c, 0, 67, 0
1, 149040, Note_on_c, 0, 69, 58
1, 149056, Control_c, 0, 64, 0
1, 149100, Note_on_c, 0, 69, 0
1, 149280, Tempo, 456274
1, 149280, Note_on_c, 0, 38, 0
1, 149280, Note_on_c, 0, 50, 0
1, 149280, Note_on_c, 0, 72, 66
1, 149312, Control_c, 0, 64, 127
1, 149360, Note_on_c, 0, 72, 0
1, 149360, Note_on_c, 0, 63, 51
1, 149440, Note_on_c, 0, 63, 0
1, 149440, Note_on_c, 0, 74, 51
1, 149520, Tempo, 521739
1, 149520, Note_on_c, 0, 74, 0
1, 149520, Note_on_c, 0, 75, 65
1, 149520, Note_on_c, 0, 44, 77
1, 149520, Note_on_c, 0, 32, 65
1, 149528, Control_c, 0, 64, 0
1, 149580, Note_on_c, 0, 75, 0
1, 149760, Tempo, 458015
1, 149760, Note_on_c, 0, 32, 0
1, 149760, Note_on_c, 0, 44, 0
1, 149760, Note_on_c, 0, 66, 62
1, 149760, Note_on_c, 0, 50, 68
1, 149760, Note_on_c, 0, 38, 57
1, 149775, Control_c, 0, 64, 127
1, 149840, Note_on_c, 0, 66, 0
1, 149840, Note_on_c, 0, 57, 51
1, 149920, Note_on_c, 0, 57, 0
1, 149920, Note_on_c, 0, 67, 46
1, 150000, Tempo, 526316
1, 150000, Note_on_c, 0, 67, 0
1, 150000, Note_on_c, 0, 69, 60
1, 150016, Control_c, 0, 64, 0
1, 150060, Note_on_c, 0, 69, 0
1, 150240, Tempo, 456274
1, 150240, Note_on_c, 0, 38, 0
1, 150240, Note_on_c, 0, 50, 0
1, 150240, Note_on_c, 0, 72, 66
1, 150303, Control_c, 0, 64, 127
1, 150320, Note_on_c, 0, 72, 0
1, 150320, Note_on_c, 0, 63, 50
1, 150400, Note_on_c, 0, 63, 0
1, 150400, Note_on_c, 0, 74, 50
1, 150480, Tempo, 521739
1, 150480, Note_on_c, 0, 74, 0
1, 150480, Note_on_c, 0, 75, 65
1, 150480, Note_on_c, 0, 33, 65
1, 150480, Note_on_c, 0, 45, 77
1, 150488, Control_c, 0, 64, 0
1, 150540, Note_on_c, 0, 75, 0
1, 150720, Tempo, 467873
1, 150720, Note_on_c, 0, 45, 0
1, 150720, Note_on_c, 0, 33, 0
1, 150720, Note_on_c, 0, 66, 66
1, 150720, Note_on_c, 0, 38, 57
1, 150720, Note_on_c, 0, 50, 68
1, 150735, Control_c, 0, 64, 127
1, 150800, Note_on_c, 0, 66, 0
1, 150800, Note_on_c, 0, 57, 53
1, 150880, Note_on_c, 0, 57, 0
1, 150880, Note_on_c, 0, 67, 53
1, 150960, Tempo, 518403
1, 150960, Note_on_c, 0, 67, 0
1, 150960, Note_on_c, 0, 69, 64
1, 150970, Control_c, 0, 64, 0
1, 151020, Note_on_c, 0, 69, 0
1, 151200, Tempo, 481000
1, 151200, Note_on_c, 0, 60, 59
1, 151269, Control_c, 0, 64, 127
1, 151280, Note_on_c, 0, 60, 0
1, 151280, Note_on_c, 0, 57, 47
1, 151360, Note_on_c, 0, 57, 0
1, 151360, Note_on_c, 0, 62, 47
1, 151440, Tempo, 529848
1, 151440, Note_on_c, 0, 62, 0
1, 151440, Note_on_c, 0, 63, 56
1, 151450, Control_c, 0, 64, 0
1, 151500, Note_on_c, 0, 63, 0
1, 151680, Tempo, 479080
1, 151680, Note_on_c, 0, 50, 0
1, 151680, Note_on_c, 0, 54, 51
1, 151715, Control_c, 0, 64, 127
1, 151760, Note_on_c, 0, 54, 0
1, 151760, Note_on_c, 0, 50, 43
1, 151840, Note_on_c, 0, 50, 0
1, 151840, Note_on_c, 0, 55, 43
1, 151920, Tempo, 526316
1, 151920, Note_on_c, 0, 55, 0
1, 151920, Note_on_c, 0, 57, 52
1, 151936, Control_c, 0, 64, 0
1, 151980, Note_on_c, 0, 57, 0
1, 152160, Note_on_c, 0, 38, 0
1, 152160, Note_on_c, 0, 50, 50
1, 152220, Note_on_c, 0, 50, 0
1, 152400, Tempo, 504202
1, 152400, Note_on_c, 0, 50, 52
1, 152400, Note_on_c, 0, 38, 52
1, 152460, Note_on_c, 0, 38, 0
1, 152460, Note_on_c, 0, 50, 0
1, 152640, Tempo, 452830
1, 152640, Note_on_c, 0, 55, 50
1, 152640, Note_on_c, 0, 31, 42
1, 152640, Note_on_c, 0, 43, 50
1, 152640, Control_c, 0, 64, 127
1, 152720, Note_on_c, 0, 55, 0
1, 152720, Note_on_c, 0, 50, 38
1, 152800, Note_on_c, 0, 50, 0
1, 152800, Note_on_c, 0, 57, 39
1, 152880, Tempo, 533333
1, 152880, Note_on_c, 0, 57, 0
1, 152880, Note_on_c, 0, 58, 50
1, 152892, Control_c, 0, 64, 0
1, 152940, Note_on_c, 0, 58, 0
1, 153120, Tempo, 454545
1, 153120, Note_on_c, 0, 57, 50
1, 153163, Control_c, 0, 64, 127
1, 153200, Note_on_c, 0, 57, 0
1, 153200, Note_on_c, 0, 50, 39
1, 153280, Note_on_c, 0, 50, 0
1, 153280, Note_on_c, 0, 58, 39
1, 153360, Tempo, 535714
1, 153360, Note_on_c, 0, 58, 0
1, 153360, Note_on_c, 0, 60, 50
1, 153370, Control_c, 0, 64, 0
1, 153420, Note_on_c, 0, 60, 0
1, 153600, Tempo, 454545
1, 153600, Note_on_c, 0, 58, 50
1, 153621, Control_c, 0, 64, 127
1, 153680, Note_on_c, 0, 58, 0
1, 153680, Note_on_c, 0, 50, 38
1, 153760, Note_on_c, 0, 50, 0
1, 153760, Note_on_c, 0, 60, 38
1, 153840, Tempo, 528634
1, 153840, Note_on_c, 0, 60, 0
1, 153840, Note_on_c, 0, 62, 51
1, 153844, Control_c, 0, 64, 0
1, 153900, Note_on_c, 0, 62, 0
1, 154080, Tempo, 454545
1, 154080, Note_on_c, 0, 43, 0
1, 154080, Note_on_c, 0, 31, 0
1, 154080, Note_on_c, 0, 55, 52
1, 154101, Control_c, 0, 64, 127
1, 154160, Note_on_c, 0, 55, 0
1, 154160, Note_on_c, 0, 50, 42
1, 154240, Note_on_c, 0, 50, 0
1, 154240, Note_on_c, 0, 57, 42
1, 154320, Tempo, 528634
1, 154320, Note_on_c, 0, 57, 0
1, 154320, Note_on_c, 0, 58, 53
1, 154320, Note_on_c, 0, 46, 47
1, 154320, Note_on_c, 0, 34, 39
1, 154330, Control_c, 0, 64, 0
1, 154380, Note_on_c, 0, 34, 0
1, 154380, Note_on_c, 0, 46, 0
1, 154380, Note_on_c, 0, 58, 0
1, 154560, Tempo, 454545
1, 154560, Note_on_c, 0, 57, 55
1, 154560, Note_on_c, 0, 48, 55
1, 154560, Note_on_c, 0, 36, 46
1, 154575, Control_c, 0, 64, 127
1, 154640, Note_on_c, 0, 57, 0
1, 154640, Note_on_c, 0, 51, 39
1, 154720, Note_on_c, 0, 51, 0
1, 154720, Note_on_c, 0, 58, 43
1, 154800, Tempo, 526316
1, 154800, Note_on_c, 0, 58, 0
1, 154800, Note_on_c, 0, 60, 56
1, 154816, Control_c, 0, 64, 0
1, 154860, Note_on_c, 0, 60, 0
1, 155040, Tempo, 456274
1, 155040, Note_on_c, 0, 36, 0
1, 155040, Note_on_c, 0, 48, 0
1, 155040, Note_on_c, 0, 59, 57
1, 155040, Note_on_c, 0, 50, 55
1, 155040, Note_on_c, 0, 38, 46
1, 155072, Control_c, 0, 64, 127
1, 155120, Note_on_c, 0, 59, 0
1, 155120, Note_on_c, 0, 53, 43
1, 155200, Note_on_c, 0, 53, 0
1, 155200, Note_on_c, 0, 60, 46
1, 155280, Tempo, 521739
1, 155280, Note_on_c, 0, 60, 0
1, 155280, Note_on_c, 0, 62, 58
1, 155288, Control_c, 0, 64, 0
1, 155340, Note_on_c, 0, 62, 0
1, 155520, Tempo, 454545
1, 155520, Note_on_c, 0, 38, 0
1, 155520, Note_on_c, 0, 50, 0
1, 155520, Note_on_c, 0, 60, 60
1, 155520, Note_on_c, 0, 39, 50
1, 155520, Note_on_c, 0, 51, 60
1, 155535, Control_c, 0, 64, 127
1, 155600, Note_on_c, 0, 60, 0
1, 155600, Note_on_c, 0, 51, 48
1, 155680, Note_on_c, 0, 51, 0
1, 155680, Note_on_c, 0, 62, 49
1, 155760, Tempo, 481928
1, 155760, Note_on_c, 0, 62, 0
1, 155760, Note_on_c, 0, 63, 61
1, 155776, Control_c, 0, 64, 0
1, 155820, Note_on_c, 0, 63, 0
1, 156000, Tempo, 456274
1, 156000, Note_on_c, 0, 51, 0
1, 156000, Note_on_c, 0, 39, 0
1, 156000, Note_on_c, 0, 59, 62
1, 156032, Control_c, 0, 64, 127
1, 156080, Note_on_c, 0, 59, 0
1, 156080, Note_on_c, 0, 53, 51
1, 156160, Note_on_c, 0, 53, 0
1, 156160, Note_on_c, 0, 60, 52
1, 156240, Tempo, 521739
1, 156240, Note_on_c, 0, 60, 0
1, 156240, Note_on_c, 0, 62, 63
1, 156240, Note_on_c, 0, 38, 50
1, 156240, Note_on_c, 0, 50, 60
1, 156248, Control_c, 0, 64, 0
1, 156300, Note_on_c, 0, 62, 0
1, 156360, Note_on_c, 0, 50, 0
1, 156360, Note_on_c, 0, 38, 0
1, 156480, Tempo, 454545
1, 156480, Note_on_c, 0, 60, 65
1, 156480, Note_on_c, 0, 48, 65
1, 156480, Note_on_c, 0, 36, 54
1, 156495, Control_c, 0, 64, 127
1, 156560, Note_on_c, 0, 60, 0
1, 156560, Note_on_c, 0, 55, 55
1, 156640, Note_on_c, 0, 55, 0
1, 156640, Note_on_c, 0, 62, 56
1, 156720, Tempo, 470588
1, 156720, Note_on_c, 0, 62, 0
1, 156720, Note_on_c, 0, 63, 66
1, 156840, Note_on_c, 0, 63, 0
1, 156840, Note_on_c, 0, 60, 63
1, 156960, Tempo, 456274
1, 156960, Note_on_c, 0, 60, 0
1, 156960, Note_on_c, 0, 36, 0
1, 156960, Note_on_c, 0, 48, 0
1, 156960, Note_on_c, 0, 62, 68
1, 156960, Note_on_c, 0, 50, 65
1, 156960, Note_on_c, 0, 38, 55
1, 156964, Control_c, 0, 64, 0
1, 157027, Control_c, 0, 64, 127
1, 157040, Note_on_c, 0, 62, 0
1, 157040, Note_on_c, 0, 55, 59
1, 157120, Note_on_c, 0, 55, 0
1, 157120, Note_on_c, 0, 63, 59
1, 157200, Tempo, 552995
1, 157200, Note_on_c, 0, 63, 0
1, 157200, Note_on_c, 0, 65, 70
1, 157208, Control_c, 0, 64, 0
1, 157260, Note_on_c, 0, 65, 0
1, 157440, Tempo, 476190
1, 157440, Note_on_c, 0, 38, 0
1, 157440, Note_on_c, 0, 50, 0
1, 157440, Note_on_c, 0, 64, 73
1, 157440, Note_on_c, 0, 49, 73
1, 157440, Note_on_c, 0, 37, 60
1, 157455, Control_c, 0, 64, 127
1, 157520, Note_on_c, 0, 64, 0
1, 157520, Note_on_c, 0, 55, 63
1, 157600, Note_on_c, 0, 55, 0
1, 157600, Note_on_c, 0, 66, 63
1, 157680, Tempo, 560748
1, 157680, Note_on_c, 0, 66, 0
1, 157680, Note_on_c, 0, 67, 74
1, 157690, Control_c, 0, 64, 0
1, 157800, Note_on_c, 0, 67, 0
1, 157920, Tempo, 506329
1, 157920, Note_on_c, 0, 67, 80
1, 157987, Control_c, 0, 64, 127
1, 158000, Note_on_c, 0, 67, 0
1, 158000, Note_on_c, 0, 58, 70
1, 158080, Note_on_c, 0, 58, 0
1, 158080, Note_on_c, 0, 69, 69
1, 158160, Tempo, 638298
1, 158160, Note_on_c, 0, 69, 0
1, 158160, Note_on_c, 0, 37, 0
1, 158160, Note_on_c, 0, 49, 0
1, 158160, Note_on_c, 0, 70, 81
1, 158160, Note_on_c, 0, 37, 60
1, 158160, Note_on_c, 0, 49, 72
1, 158168, Control_c, 0, 64, 0
1, 158220, Note_on_c, 0, 49, 0
1, 158220, Note_on_c, 0, 37, 0
1, 158220, Note_on_c, 0, 70, 0
1, 158400, Tempo, 559180
1, 158400, Note_on_c, 0, 62, 73
1, 158400, Note_on_c, 0, 74, 88
1, 158400, Note_on_c, 0, 38, 72
1, 158400, Note_on_c, 0, 50, 85
1, 158880, Note_on_c, 0, 50, 0
1, 158880, Note_on_c, 0, 62, 0
1, 158880, Note_on_c, 0, 74, 0
1, 158880, Note_on_c, 0, 38, 0
1, 158880, Note_on_c, 0, 57, 66
1, 158880, Note_on_c, 0, 62, 66
1, 158880, Note_on_c, 0, 66, 78
1, 158880, Note_on_c, 0, 38, 64
1, 158880, Note_on_c, 0, 50, 77
1, 159360, Tempo, 475059
1, 159360, Note_on_c, 0, 50, 0
1, 159360, Note_on_c, 0, 66, 0
1, 159360, Note_on_c, 0, 57, 0
1, 159360, Note_on_c, 0, 62, 0
1, 159360, Note_on_c, 0, 38, 0
1, 159360, Note_on_c, 0, 64, 70
1, 159360, Note_on_c, 0, 37, 58
1, 159360, Note_on_c, 0, 49, 70
1, 159383, Control_c, 0, 64, 127
1, 159440, Note_on_c, 0, 64, 0
1, 159440, Note_on_c, 0, 55, 60
1, 159520, Note_on_c, 0, 55, 0
1, 159520, Note_on_c, 0, 66, 60
1, 159600, Tempo, 555556
1, 159600, Note_on_c, 0, 66, 0
1, 159600, Note_on_c, 0, 67, 71
1, 159608, Control_c, 0, 64, 0
1, 159720, Note_on_c, 0, 67, 0
1, 159840, Tempo, 497925
1, 159840, Note_on_c, 0, 67, 77
1, 159907, Control_c, 0, 64, 127
1, 159920, Note_on_c, 0, 67, 0
1, 159920, Note_on_c, 0, 58, 70
1, 160000, Note_on_c, 0, 58, 0
1, 160000, Note_on_c, 0, 69, 74
1, 160080, Tempo, 733496
1, 160080, Note_on_c, 0, 69, 0
1, 160080, Note_on_c, 0, 49, 0
1, 160080, Note_on_c, 0, 37, 0
1, 160080, Note_on_c, 0, 70, 87
1, 160080, Note_on_c, 0, 37, 59
1, 160080, Note_on_c, 0, 49, 71
1, 160088, Control_c, 0, 64, 0
1, 160140, Note_on_c, 0, 49, 0
1, 160140, Note_on_c, 0, 37, 0
1, 160140, Note_on_c, 0, 70, 0
1, 160320, Tempo, 598205
1, 160320, Note_on_c, 0, 74, 80
1, 160320, Note_on_c, 0, 70, 80
1, 160320, Note_on_c, 0, 79, 94
1, 160320, Note_on_c, 0, 38, 79
1, 160320, Note_on_c, 0, 50, 93
1, 160420, Control_c, 0, 64, 127
1, 160800, Tempo, 764331
1, 160800, Note_on_c, 0, 50, 0
1, 160800, Note_on_c, 0, 79, 0
1, 160800, Note_on_c, 0, 74, 0
1, 160800, Note_on_c, 0, 70, 0
1, 160800, Note_on_c, 0, 38, 0
1, 160800, Note_on_c, 0, 66, 72
1, 160800, Note_on_c, 0, 69, 72
1, 160800, Note_on_c, 0, 74, 85
1, 160800, Note_on_c, 0, 50, 84
1, 160800, Note_on_c, 0, 38, 70
1, 160810, Control_c, 0, 64, 0
1, 160924, Control_c, 0, 64, 127
1, 161040, Note_on_c, 0, 74, 0
1, 161040, Note_on_c, 0, 66, 0
1, 161040, Note_on_c, 0, 69, 0
1, 161040, Note_on_c, 0, 65, 79
1, 161050, Control_c, 0, 64, 0
1, 161280, Tempo, 405132
1, 161280, Marker_t, "Noch schneller"
1, 161280, Note_on_c, 0, 65, 0
1, 161280, Note_on_c, 0, 50, 0
1, 161280, Note_on_c, 0, 38, 0
1, 161280, Note_on_c, 0, 80, 85
1, 161280, Note_on_c, 0, 43, 84
1, 161280, Note_on_c, 0, 31, 70
1, 161332, Control_c, 0, 64, 127
1, 161360, Note_on_c, 0, 80, 0
1, 161360, Note_on_c, 0, 68, 55
1, 161440, Note_on_c, 0, 68, 0
1, 161440, Note_on_c, 0, 80, 64
1, 161520, Tempo, 436047
1, 161520, Note_on_c, 0, 80, 0
1, 161520, Note_on_c, 0, 77, 77
1, 161520, Note_on_c, 0, 56, 72
1, 161523, Control_c, 0, 64, 0
1, 161640, Note_on_c, 0, 56, 0
1, 161640, Note_on_c, 0, 77, 0
1, 161760, Tempo, 406504
1, 161760, Note_on_c, 0, 31, 0
1, 161760, Note_on_c, 0, 43, 0
1, 161760, Note_on_c, 0, 77, 85
1, 161760, Note_on_c, 0, 69, 70
1, 161812, Control_c, 0, 64, 127
1, 161840, Note_on_c, 0, 69, 0
1, 161840, Note_on_c, 0, 77, 0
1, 161840, Note_on_c, 0, 65, 54
1, 161840, Note_on_c, 0, 56, 51
1, 161920, Note_on_c, 0, 56, 0
1, 161920, Note_on_c, 0, 65, 0
1, 161920, Note_on_c, 0, 75, 63
1, 161920, Note_on_c, 0, 58, 56
1, 162000, Tempo, 436047
1, 162000, Note_on_c, 0, 58, 0
1, 162000, Note_on_c, 0, 75, 0
1, 162000, Note_on_c, 0, 74, 77
1, 162000, Note_on_c, 0, 59, 66
1, 162003, Control_c, 0, 64, 0
1, 162120, Note_on_c, 0, 59, 0
1, 162120, Note_on_c, 0, 74, 0
1, 162240, Tempo, 405132
1, 162240, Note_on_c, 0, 74, 85
1, 162240, Note_on_c, 0, 65, 70
1, 162292, Control_c, 0, 64, 127
1, 162320, Note_on_c, 0, 65, 0
1, 162320, Note_on_c, 0, 74, 0
1, 162320, Note_on_c, 0, 62, 58
1, 162320, Note_on_c, 0, 53, 51
1, 162400, Note_on_c, 0, 53, 0
1, 162400, Note_on_c, 0, 62, 0
1, 162400, Note_on_c, 0, 72, 65
1, 162400, Note_on_c, 0, 55, 56
1, 162480, Tempo, 436047
1, 162480, Note_on_c, 0, 55, 0
1, 162480, Note_on_c, 0, 72, 0
1, 162480, Note_on_c, 0, 71, 77
1, 162480, Note_on_c, 0, 56, 66
1, 162483, Control_c, 0, 64, 0
1, 162600, Note_on_c, 0, 56, 0
1, 162600, Note_on_c, 0, 71, 0
1, 162720, Tempo, 405132
1, 162720, Note_on_c, 0, 71, 85
1, 162720, Note_on_c, 0, 62, 70
1, 162772, Control_c, 0, 64, 127
1, 162800, Note_on_c, 0, 62, 0
1, 162800, Note_on_c, 0, 71, 0
1, 162800, Note_on_c, 0, 59, 60
1, 162800, Note_on_c, 0, 50, 50
1, 162880, Note_on_c, 0, 50, 0
1, 162880, Note_on_c, 0, 59, 0
1, 162880, Note_on_c, 0, 68, 65
1, 162880, Note_on_c, 0, 51, 56
1, 162960, Tempo, 436047
1, 162960, Note_on_c, 0, 51, 0
1, 162960, Note_on_c, 0, 68, 0
1, 162960, Note_on_c, 0, 67, 77
1, 162960, Note_on_c, 0, 53, 66
1, 162963, Control_c, 0, 64, 0
1, 163080, Note_on_c, 0, 53, 0
1, 163080, Note_on_c, 0, 67, 0
1, 163200, Tempo, 414938
1, 163200, Note_on_c, 0, 67, 85
1, 163200, Note_on_c, 0, 63, 66
1, 163200, Note_on_c, 0, 51, 66
1, 163220, Control_c, 0, 64, 127
1, 163280, Note_on_c, 0, 67, 0
1, 163280, Note_on_c, 0, 60, 60
1, 163320, Note_on_c, 0, 51, 0
1, 163320, Note_on_c, 0, 63, 0
1, 163360, Note_on_c, 0, 60, 0
1, 163360, Note_on_c, 0, 71, 67
1, 163440, Tempo, 450789
1, 163440, Note_on_c, 0, 71, 0
1, 163440, Note_on_c, 0, 72, 77
1, 163447, Control_c, 0, 64, 0
1, 163560, Note_on_c, 0, 72, 0
1, 163680, Tempo, 417827
1, 163680, Note_on_c, 0, 72, 86
1, 163680, Note_on_c, 0, 31, 75
1, 163680, Note_on_c, 0, 43, 75
1, 163689, Control_c, 0, 64, 127
1, 163760, Note_on_c, 0, 72, 0
1, 163760, Note_on_c, 0, 63, 62
1, 163840, Note_on_c, 0, 63, 0
1, 163840, Note_on_c, 0, 74, 68
1, 163920, Tempo, 454201
1, 163920, Note_on_c, 0, 74, 0
1, 163920, Note_on_c, 0, 75, 79
1, 164040, Note_on_c, 0, 75, 0
1, 164160, Tempo, 419287
1, 164160, Note_on_c, 0, 75, 94
1, 164240, Note_on_c, 0, 75, 0
1, 164240, Note_on_c, 0, 67, 72
1, 164320, Note_on_c, 0, 67, 0
1, 164320, Note_on_c, 0, 77, 77
1, 164400, Tempo, 461184
1, 164400, Note_on_c, 0, 77, 0
1, 164400, Note_on_c, 0, 43, 0
1, 164400, Note_on_c, 0, 31, 0
1, 164400, Note_on_c, 0, 79, 92
1, 164400, Note_on_c, 0, 36, 67
1, 164400, Note_on_c, 0, 48, 67
1, 164520, Note_on_c, 0, 79, 0
1, 164640, Tempo, 428266
1, 164640, Note_on_c, 0, 48, 0
1, 164640, Note_on_c, 0, 36, 0
1, 164640, Note_on_c, 0, 79, 90
1, 164640, Note_on_c, 0, 51, 73
1, 164640, Note_on_c, 0, 39, 73
1, 164720, Note_on_c, 0, 79, 0
1, 164720, Note_on_c, 0, 72, 81
1, 164800, Note_on_c, 0, 72, 0
1, 164800, Note_on_c, 0, 83, 83
1, 164880, Tempo, 528169
1, 164880, Note_on_c, 0, 83, 0
1, 164880, Note_on_c, 0, 39, 0
1, 164880, Note_on_c, 0, 51, 0
1, 164880, Note_on_c, 0, 84, 97
1, 164880, Note_on_c, 0, 43, 70
1, 164880, Note_on_c, 0, 55, 70
1, 165000, Note_on_c, 0, 55, 0
1, 165000, Note_on_c, 0, 43, 0
1, 165000, Note_on_c, 0, 84, 0
1, 165009, Control_c, 0, 64, 0
1, 165120, Tempo, 406504
1, 165120, Note_on_c, 0, 87, 97
1, 165120, Note_on_c, 0, 45, 80
1, 165120, Note_on_c, 0, 43, 80
1, 165120, Note_on_c, 0, 57, 96
1, 165172, Control_c, 0, 64, 127
1, 165200, Note_on_c, 0, 87, 0
1, 165200, Note_on_c, 0, 75, 70
1, 165280, Note_on_c, 0, 75, 0
1, 165280, Note_on_c, 0, 86, 77
1, 165360, Tempo, 442478
1, 165360, Note_on_c, 0, 86, 0
1, 165360, Note_on_c, 0, 84, 87
1, 165360, Note_on_c, 0, 66, 82
1, 165363, Control_c, 0, 64, 0
1, 165480, Note_on_c, 0, 66, 0
1, 165480, Note_on_c, 0, 84, 0
1, 165600, Tempo, 405132
1, 165600, Note_on_c, 0, 57, 0
1, 165600, Note_on_c, 0, 43, 0
1, 165600, Note_on_c, 0, 45, 0
1, 165600, Note_on_c, 0, 84, 95
1, 165600, Note_on_c, 0, 78, 78
1, 165652, Control_c, 0, 64, 127
1, 165680, Note_on_c, 0, 78, 0
1, 165680, Note_on_c, 0, 84, 0
1, 165680, Note_on_c, 0, 72, 68
1, 165680, Note_on_c, 0, 66, 56
1, 165760, Note_on_c, 0, 66, 0
1, 165760, Note_on_c, 0, 72, 0
1, 165760, Note_on_c, 0, 82, 74
1, 165760, Note_on_c, 0, 67, 61
1, 165840, Tempo, 442478
1, 165840, Note_on_c, 0, 67, 0
1, 165840, Note_on_c, 0, 82, 0
1, 165840, Note_on_c, 0, 81, 84
1, 165840, Note_on_c, 0, 69, 72
1, 165843, Control_c, 0, 64, 0
1, 165960, Note_on_c, 0, 69, 0
1, 165960, Note_on_c, 0, 81, 0
1, 166080, Tempo, 405132
1, 166080, Note_on_c, 0, 81, 91
1, 166080, Note_on_c, 0, 75, 75
1, 166132, Control_c, 0, 64, 127
1, 166160, Note_on_c, 0, 75, 0
1, 166160, Note_on_c, 0, 81, 0
1, 166160, Note_on_c, 0, 67, 64
1, 166160, Note_on_c, 0, 63, 54
1, 166240, Note_on_c, 0, 63, 0
1, 166240, Note_on_c, 0, 67, 0
1, 166240, Note_on_c, 0, 79, 71
1, 166240, Note_on_c, 0, 65, 59
1, 166320, Tempo, 442478
1, 166320, Note_on_c, 0, 65, 0
1, 166320, Note_on_c, 0, 79, 0
1, 166320, Note_on_c, 0, 78, 81
1, 166320, Note_on_c, 0, 66, 69
1, 166323, Control_c, 0, 64, 0
1, 166440, Note_on_c, 0, 66, 0
1, 166440, Note_on_c, 0, 78, 0
1, 166560, Tempo, 403769
1, 166560, Note_on_c, 0, 78, 88
1, 166560, Note_on_c, 0, 69, 72
1, 166612, Control_c, 0, 64, 127
1, 166640, Note_on_c, 0, 69, 0
1, 166640, Note_on_c, 0, 78, 0
1, 166640, Note_on_c, 0, 66, 62
1, 166640, Note_on_c, 0, 60, 53
1, 166720, Note_on_c, 0, 60, 0
1, 166720, Note_on_c, 0, 66, 0
1, 166720, Note_on_c, 0, 75, 68
1, 166720, Note_on_c, 0, 61, 57
1, 166800, Tempo, 487409
1, 166800, Note_on_c, 0, 61, 0
1, 166800, Note_on_c, 0, 75, 0
1, 166800, Note_on_c, 0, 74, 78
1, 166800, Note_on_c, 0, 62, 67
1, 166803, Control_c, 0, 64, 0
1, 166920, Note_on_c, 0, 62, 0
1, 166920, Note_on_c, 0, 74, 0
1, 167040, Tempo, 406504
1, 167040, Note_on_c, 0, 82, 93
1, 167040, Note_on_c, 0, 55, 92
1, 167040, Note_on_c, 0, 43, 77
1, 167092, Control_c, 0, 64, 127
1, 167120, Note_on_c, 0, 82, 0
1, 167120, Note_on_c, 0, 70, 67
1, 167200, Note_on_c, 0, 70, 0
1, 167200, Note_on_c, 0, 81, 74
1, 167280, Tempo, 447427
1, 167280, Note_on_c, 0, 81, 0
1, 167280, Note_on_c, 0, 43, 0
1, 167280, Note_on_c, 0, 55, 0
1, 167280, Note_on_c, 0, 79, 83
1, 167280, Note_on_c, 0, 63, 78
1, 167283, Control_c, 0, 64, 0
1, 167400, Note_on_c, 0, 63, 0
1, 167400, Note_on_c, 0, 79, 0
1, 167520, Tempo, 407886
1, 167520, Note_on_c, 0, 79, 91
1, 167520, Note_on_c, 0, 75, 75
1, 167572, Control_c, 0, 64, 127
1, 167600, Note_on_c, 0, 75, 0
1, 167600, Note_on_c, 0, 79, 0
1, 167600, Note_on_c, 0, 67, 63
1, 167600, Note_on_c, 0, 63, 55
1, 167680, Note_on_c, 0, 63, 0
1, 167680, Note_on_c, 0, 67, 0
1, 167680, Note_on_c, 0, 77, 71
1, 167680, Note_on_c, 0, 65, 59
1, 167760, Tempo, 447427
1, 167760, Note_on_c, 0, 65, 0
1, 167760, Note_on_c, 0, 77, 0
1, 167760, Note_on_c, 0, 75, 82
1, 167760, Note_on_c, 0, 67, 70
1, 167763, Control_c, 0, 64, 0
1, 167880, Note_on_c, 0, 67, 0
1, 167880, Note_on_c, 0, 75, 0
1, 168000, Tempo, 410678
1, 168000, Note_on_c, 0, 82, 89
1, 168000, Note_on_c, 0, 55, 88
1, 168052, Control_c, 0, 64, 127
1, 168080, Note_on_c, 0, 82, 0
1, 168080, Note_on_c, 0, 70, 63
1, 168160, Note_on_c, 0, 70, 0
1, 168160, Note_on_c, 0, 81, 68
1, 168240, Tempo, 447427
1, 168240, Note_on_c, 0, 81, 0
1, 168240, Note_on_c, 0, 55, 0
1, 168240, Note_on_c, 0, 79, 80
1, 168240, Note_on_c, 0, 63, 68
1, 168243, Control_c, 0, 64, 0
1, 168360, Note_on_c, 0, 63, 0
1, 168360, Note_on_c, 0, 79, 0
1, 168480, Tempo, 405132
1, 168480, Note_on_c, 0, 79, 87
1, 168480, Note_on_c, 0, 75, 72
1, 168532, Control_c, 0, 64, 127
1, 168560, Note_on_c, 0, 75, 0
1, 168560, Note_on_c, 0, 79, 0
1, 168560, Note_on_c, 0, 67, 60
1, 168560, Note_on_c, 0, 63, 51
1, 168640, Note_on_c, 0, 63, 0
1, 168640, Note_on_c, 0, 67, 0
1, 168640, Note_on_c, 0, 77, 67
1, 168640, Note_on_c, 0, 65, 57
1, 168720, Tempo, 432900
1, 168720, Note_on_c, 0, 65, 0
1, 168720, Note_on_c, 0, 77, 0
1, 168720, Note_on_c, 0, 75, 78
1, 168720, Note_on_c, 0, 67, 67
1, 168723, Control_c, 0, 64, 0
1, 168840, Note_on_c, 0, 67, 0
1, 168840, Note_on_c, 0, 75, 0
1, 168960, Tempo, 401070
1, 168960, Note_on_c, 0, 82, 85
1, 168960, Note_on_c, 0, 55, 84
1, 169012, Control_c, 0, 64, 127
1, 169040, Note_on_c, 0, 82, 0
1, 169040, Note_on_c, 0, 70, 60
1, 169120, Note_on_c, 0, 70, 0
1, 169120, Note_on_c, 0, 81, 67
1, 169200, Tempo, 439239
1, 169200, Note_on_c, 0, 81, 0
1, 169200, Note_on_c, 0, 55, 0
1, 169200, Note_on_c, 0, 79, 77
1, 169200, Note_on_c, 0, 63, 66
1, 169203, Control_c, 0, 64, 0
1, 169320, Note_on_c, 0, 63, 0
1, 169320, Note_on_c, 0, 79, 0
1, 169440, Tempo, 402414
1, 169440, Note_on_c, 0, 79, 85
1, 169440, Note_on_c, 0, 75, 70
1, 169492, Control_c, 0, 64, 127
1, 169520, Note_on_c, 0, 75, 0
1, 169520, Note_on_c, 0, 79, 0
1, 169520, Note_on_c, 0, 67, 58
1, 169520, Note_on_c, 0, 63, 50
1, 169600, Note_on_c, 0, 63, 0
1, 169600, Note_on_c, 0, 67, 0
1, 169600, Note_on_c, 0, 77, 64
1, 169600, Note_on_c, 0, 65, 55
1, 169680, Tempo, 436047
1, 169680, Note_on_c, 0, 65, 0
1, 169680, Note_on_c, 0, 77, 0
1, 169680, Note_on_c, 0, 75, 76
1, 169680, Note_on_c, 0, 67, 65
1, 169683, Control_c, 0, 64, 0
1, 169800, Note_on_c, 0, 67, 0
1, 169800, Note_on_c, 0, 75, 0
1, 169920, Tempo, 402414
1, 169920, Note_on_c, 0, 75, 84
1, 169920, Note_on_c, 0, 72, 69
1, 169972, Control_c, 0, 64, 127
1, 170000, Note_on_c, 0, 72, 0
1, 170000, Note_on_c, 0, 75, 0
1, 170000, Note_on_c, 0, 63, 59
1, 170000, Note_on_c, 0, 60, 49
1, 170080, Note_on_c, 0, 60, 0
1, 170080, Note_on_c, 0, 63, 0
1, 170080, Note_on_c, 0, 74, 65
1, 170080, Note_on_c, 0, 62, 54
1, 170160, Tempo, 436047
1, 170160, Note_on_c, 0, 62, 0
1, 170160, Note_on_c, 0, 74, 0
1, 170160, Note_on_c, 0, 72, 75
1, 170160, Note_on_c, 0, 63, 64
1, 170163, Control_c, 0, 64, 0
1, 170280, Note_on_c, 0, 63, 0
1, 170280, Note_on_c, 0, 72, 0
1, 170400, Tempo, 402414
1, 170400, Note_on_c, 0, 72, 83
1, 170400, Note_on_c, 0, 66, 64
1, 170452, Control_c, 0, 64, 127
1, 170480, Note_on_c, 0, 72, 0
1, 170480, Note_on_c, 0, 60, 55
1, 170560, Note_on_c, 0, 60, 0
1, 170560, Note_on_c, 0, 70, 62
1, 170640, Tempo, 432900
1, 170640, Note_on_c, 0, 70, 0
1, 170640, Note_on_c, 0, 66, 0
1, 170640, Note_on_c, 0, 69, 74
1, 170640, Note_on_c, 0, 50, 64
1, 170643, Control_c, 0, 64, 0
1, 170760, Note_on_c, 0, 50, 0
1, 170760, Note_on_c, 0, 69, 0
1, 170880, Tempo, 404040
1, 170880, Note_on_c, 0, 70, 82
1, 170880, Note_on_c, 0, 43, 64
1, 170932, Control_c, 0, 64, 127
1, 170960, Note_on_c, 0, 70, 0
1, 170960, Note_on_c, 0, 58, 57
1, 171040, Note_on_c, 0, 58, 0
1, 171040, Note_on_c, 0, 69, 62
1, 171120, Tempo, 432900
1, 171120, Note_on_c, 0, 69, 0
1, 171120, Note_on_c, 0, 43, 0
1, 171120, Note_on_c, 0, 67, 73
1, 171120, Note_on_c, 0, 51, 63
1, 171123, Control_c, 0, 64, 0
1, 171240, Note_on_c, 0, 51, 0
1, 171240, Note_on_c, 0, 67, 0
1, 171360, Tempo, 405405
1, 171360, Note_on_c, 0, 67, 81
1, 171360, Note_on_c, 0, 63, 67
1, 171412, Control_c, 0, 64, 127
1, 171440, Note_on_c, 0, 63, 0
1, 171440, Note_on_c, 0, 67, 0
1, 171440, Note_on_c, 0, 55, 57
1, 171440, Note_on_c, 0, 51, 49
1, 171520, Note_on_c, 0, 51, 0
1, 171520, Note_on_c, 0, 55, 0
1, 171520, Note_on_c, 0, 65, 63
1, 171520, Note_on_c, 0, 53, 53
1, 171600, Tempo, 433213
1, 171600, Note_on_c, 0, 53, 0
1, 171600, Note_on_c, 0, 65, 0
1, 171600, Note_on_c, 0, 63, 73
1, 171600, Note_on_c, 0, 55, 62
1, 171603, Control_c, 0, 64, 0
1, 171720, Note_on_c, 0, 55, 0
1, 171720, Note_on_c, 0, 63, 0
1, 171840, Tempo, 406780
1, 171840, Note_on_c, 0, 70, 80
1, 171840, Note_on_c, 0, 43, 62
1, 171892, Control_c, 0, 64, 127
1, 171920, Note_on_c, 0, 70, 0
1, 171920, Note_on_c, 0, 58, 56
1, 172000, Note_on_c, 0, 58, 0
1, 172000, Note_on_c, 0, 69, 62
1, 172080, Tempo, 431344
1, 172080, Note_on_c, 0, 69, 0
1, 172080, Note_on_c, 0, 43, 0
1, 172080, Note_on_c, 0, 67, 72
1, 172080, Note_on_c, 0, 51, 62
1, 172083, Control_c, 0, 64, 0
1, 172200, Note_on_c, 0, 51, 0
1, 172200, Note_on_c, 0, 67, 0
1, 172320, Tempo, 406780
1, 172320, Note_on_c, 0, 67, 79
1, 172320, Note_on_c, 0, 63, 65
1, 172372, Control_c, 0, 64, 127
1, 172400, Note_on_c, 0, 63, 0
1, 172400, Note_on_c, 0, 67, 0
1, 172400, Note_on_c, 0, 55, 54
1, 172400, Note_on_c, 0, 51, 47
1, 172480, Note_on_c, 0, 51, 0
1, 172480, Note_on_c, 0, 55, 0
1, 172480, Note_on_c, 0, 65, 60
1, 172480, Note_on_c, 0, 53, 52
1, 172560, Tempo, 431344
1, 172560, Note_on_c, 0, 53, 0
1, 172560, Note_on_c, 0, 65, 0
1, 172560, Note_on_c, 0, 63, 71
1, 172560, Note_on_c, 0, 55, 61
1, 172563, Control_c, 0, 64, 0
1, 172680, Note_on_c, 0, 55, 0
1, 172680, Note_on_c, 0, 63, 0
1, 172800, Tempo, 399734
1, 172800, Note_on_c, 0, 70, 79
1, 172800, Note_on_c, 0, 43, 61
1, 172852, Control_c, 0, 64, 127
1, 172880, Note_on_c, 0, 70, 0
1, 172880, Note_on_c, 0, 58, 56
1, 172960, Note_on_c, 0, 58, 0
1, 172960, Note_on_c, 0, 69, 61
1, 173040, Tempo, 431344
1, 173040, Note_on_c, 0, 69, 0
1, 173040, Note_on_c, 0, 43, 0
1, 173040, Note_on_c, 0, 67, 71
1, 173040, Note_on_c, 0, 51, 61
1, 173043, Control_c, 0, 64, 0
1, 173160, Note_on_c, 0, 51, 0
1, 173160, Note_on_c, 0, 67, 0
1, 173280, Tempo, 399734
1, 173280, Note_on_c, 0, 67, 78
1, 173280, Note_on_c, 0, 63, 64
1, 173332, Control_c, 0, 64, 127
1, 173360, Note_on_c, 0, 63, 0
1, 173360, Note_on_c, 0, 67, 0
1, 173360, Note_on_c, 0, 55, 52
1, 173360, Note_on_c, 0, 51, 49
1, 173440, Note_on_c, 0, 51, 0
1, 173440, Note_on_c, 0, 55, 0
1, 173440, Note_on_c, 0, 65, 59
1, 173440, Note_on_c, 0, 53, 51
1, 173520, Tempo, 429799
1, 173520, Note_on_c, 0, 53, 0
1, 173520, Note_on_c, 0, 65, 0
1, 173520, Note_on_c, 0, 63, 70
1, 173520, Note_on_c, 0, 55, 60
1, 173523, Control_c, 0, 64, 0
1, 173640, Note_on_c, 0, 55, 0
1, 173640, Note_on_c, 0, 63, 0
1, 173760, Tempo, 401070
1, 173760, Note_on_c, 0, 63, 77
1, 173760, Note_on_c, 0, 60, 63
1, 173812, Control_c, 0, 64, 127
1, 173840, Note_on_c, 0, 60, 0
1, 173840, Note_on_c, 0, 63, 0
1, 173840, Note_on_c, 0, 51, 53
1, 173840, Note_on_c, 0, 48, 50
1, 173920, Note_on_c, 0, 48, 0
1, 173920, Note_on_c, 0, 51, 0
1, 173920, Note_on_c, 0, 62, 58
1, 173920, Note_on_c, 0, 50, 50
1, 174000, Tempo, 431344
1, 174000, Note_on_c, 0, 50, 0
1, 174000, Note_on_c, 0, 62, 0
1, 174000, Note_on_c, 0, 60, 70
1, 174000, Note_on_c, 0, 51, 60
1, 174003, Control_c, 0, 64, 0
1, 174120, Note_on_c, 0, 51, 0
1, 174120, Note_on_c, 0, 60, 0
1, 174240, Tempo, 401070
1, 174240, Note_on_c, 0, 60, 76
1, 174240, Note_on_c, 0, 54, 59
1, 174292, Control_c, 0, 64, 127
1, 174320, Note_on_c, 0, 60, 0
1, 174320, Note_on_c, 0, 48, 58
1, 174400, Note_on_c, 0, 48, 0
1, 174400, Note_on_c, 0, 58, 60
1, 174480, Tempo, 434468
1, 174480, Note_on_c, 0, 58, 0
1, 174480, Note_on_c, 0, 54, 0
1, 174480, Note_on_c, 0, 57, 69
1, 174480, Note_on_c, 0, 38, 59
1, 174483, Control_c, 0, 64, 0
1, 174600, Note_on_c, 0, 38, 0
1, 174600, Note_on_c, 0, 57, 0
1, 174720, Tempo, 398406
1, 174720, Note_on_c, 0, 58, 75
1, 174720, Note_on_c, 0, 31, 58
1, 174772, Control_c, 0, 64, 127
1, 174800, Note_on_c, 0, 58, 0
1, 174800, Note_on_c, 0, 46, 54
1, 174880, Note_on_c, 0, 46, 0
1, 174880, Note_on_c, 0, 57, 58
1, 174960, Tempo, 419580
1, 174960, Note_on_c, 0, 57, 0
1, 174960, Note_on_c, 0, 31, 0
1, 174960, Note_on_c, 0, 55, 68
1, 174960, Note_on_c, 0, 38, 58
1, 174963, Control_c, 0, 64, 0
1, 175080, Note_on_c, 0, 38, 0
1, 175080, Note_on_c, 0, 55, 0
1, 175200, Tempo, 397088
1, 175200, Note_on_c, 0, 60, 74
1, 175200, Note_on_c, 0, 54, 58
1, 175252, Control_c, 0, 64, 127
1, 175280, Note_on_c, 0, 60, 0
1, 175280, Note_on_c, 0, 48, 58
1, 175360, Note_on_c, 0, 48, 0
1, 175360, Note_on_c, 0, 58, 62
1, 175440, Tempo, 412371
1, 175440, Note_on_c, 0, 58, 0
1, 175440, Note_on_c, 0, 54, 0
1, 175440, Note_on_c, 0, 57, 67
1, 175440, Note_on_c, 0, 38, 58
1, 175443, Control_c, 0, 64, 0
1, 175560, Note_on_c, 0, 38, 0
1, 175560, Note_on_c, 0, 57, 0
1, 175680, Tempo, 393185
1, 175680, Note_on_c, 0, 58, 73
1, 175680, Note_on_c, 0, 31, 57
1, 175732, Control_c, 0, 64, 127
1, 175760, Note_on_c, 0, 58, 0
1, 175760, Note_on_c, 0, 46, 52
1, 175840, Note_on_c, 0, 46, 0
1, 175840, Note_on_c, 0, 57, 57
1, 175920, Tempo, 409556
1, 175920, Note_on_c, 0, 57, 0
1, 175920, Note_on_c, 0, 31, 0
1, 175920, Note_on_c, 0, 55, 66
1, 175920, Note_on_c, 0, 38, 57
1, 175923, Control_c, 0, 64, 0
1, 176040, Note_on_c, 0, 38, 0
1, 176040, Note_on_c, 0, 55, 0
1, 176160, Tempo, 389358
1, 176160, Note_on_c, 0, 60, 73
1, 176160, Note_on_c, 0, 54, 56
1, 176212, Control_c, 0, 64, 127
1, 176240, Note_on_c, 0, 60, 0
1, 176240, Note_on_c, 0, 48, 54
1, 176320, Note_on_c, 0, 48, 0
1, 176320, Note_on_c, 0, 58, 59
1, 176400, Tempo, 410959
1, 176400, Note_on_c, 0, 58, 0
1, 176400, Note_on_c, 0, 54, 0
1, 176400, Note_on_c, 0, 57, 66
1, 176400, Note_on_c, 0, 38, 56
1, 176403, Control_c, 0, 64, 0
1, 176520, Note_on_c, 0, 38, 0
1, 176520, Note_on_c, 0, 57, 0
1, 176640, Tempo, 385852
1, 176640, Note_on_c, 0, 62, 76
1, 176640, Note_on_c, 0, 31, 59
1, 176640, Note_on_c, 0, 43, 59
1, 176692, Control_c, 0, 64, 127
1, 176720, Note_on_c, 0, 62, 0
1, 176720, Note_on_c, 0, 46, 57
1, 176800, Note_on_c, 0, 46, 0
1, 176800, Note_on_c, 0, 60, 62
1, 176880, Tempo, 402685
1, 176880, Note_on_c, 0, 60, 0
1, 176880, Note_on_c, 0, 58, 70
1, 176883, Control_c, 0, 64, 0
1, 177000, Note_on_c, 0, 58, 0
1, 177120, Tempo, 383387
1, 177120, Note_on_c, 0, 67, 79
1, 177172, Control_c, 0, 64, 127
1, 177200, Note_on_c, 0, 67, 0
1, 177200, Note_on_c, 0, 55, 58
1, 177280, Note_on_c, 0, 55, 0
1, 177280, Note_on_c, 0, 63, 64
1, 177360, Tempo, 402685
1, 177360, Note_on_c, 0, 63, 0
1, 177360, Note_on_c, 0, 62, 72
1, 177363, Control_c, 0, 64, 0
1, 177480, Note_on_c, 0, 62, 0
1, 177600, Tempo, 380952
1, 177600, Note_on_c, 0, 70, 81
1, 177628, Control_c, 0, 64, 127
1, 177680, Note_on_c, 0, 70, 0
1, 177680, Note_on_c, 0, 58, 62
1, 177760, Note_on_c, 0, 58, 0
1, 177760, Note_on_c, 0, 69, 68
1, 177840, Tempo, 401338
1, 177840, Note_on_c, 0, 69, 0
1, 177840, Note_on_c, 0, 67, 74
1, 177853, Control_c, 0, 64, 0
1, 177960, Note_on_c, 0, 67, 0
1, 178080, Tempo, 378549
1, 178080, Note_on_c, 0, 43, 0
1, 178080, Note_on_c, 0, 31, 0
1, 178080, Note_on_c, 0, 74, 84
1, 178101, Control_c, 0, 64, 127
1, 178160, Note_on_c, 0, 74, 0
1, 178160, Note_on_c, 0, 62, 64
1, 178240, Note_on_c, 0, 62, 0
1, 178240, Note_on_c, 0, 70, 71
1, 178320, Tempo, 400000
1, 178320, Note_on_c, 0, 70, 0
1, 178320, Note_on_c, 0, 69, 77
1, 178320, Note_on_c, 0, 38, 66
1, 178320, Note_on_c, 0, 50, 66
1, 178330, Control_c, 0, 64, 0
1, 178440, Note_on_c, 0, 50, 0
1, 178440, Note_on_c, 0, 38, 0
1, 178440, Note_on_c, 0, 69, 0
1, 178560, Tempo, 377358
1, 178560, Note_on_c, 0, 79, 86
1, 178560, Note_on_c, 0, 31, 67
1, 178560, Note_on_c, 0, 43, 67
1, 178610, Control_c, 0, 64, 127
1, 178640, Note_on_c, 0, 79, 0
1, 178640, Note_on_c, 0, 67, 68
1, 178720, Note_on_c, 0, 67, 0
1, 178720, Note_on_c, 0, 75, 73
1, 178800, Tempo, 398671
1, 178800, Note_on_c, 0, 75, 0
1, 178800, Note_on_c, 0, 74, 80
1, 178812, Control_c, 0, 64, 0
1, 178920, Note_on_c, 0, 74, 0
1, 179040, Tempo, 377358
1, 179040, Note_on_c, 0, 82, 89
1, 179100, Control_c, 0, 64, 127
1, 179120, Note_on_c, 0, 82, 0
1, 179120, Note_on_c, 0, 70, 68
1, 179200, Note_on_c, 0, 70, 0
1, 179200, Note_on_c, 0, 81, 75
1, 179280, Tempo, 396040
1, 179280, Note_on_c, 0, 81, 0
1, 179280, Note_on_c, 0, 79, 82
1, 179290, Control_c, 0, 64, 0
1, 179400, Note_on_c, 0, 79, 0
1, 179520, Tempo, 376176
1, 179520, Note_on_c, 0, 86, 94
1, 179563, Control_c, 0, 64, 127
1, 179600, Note_on_c, 0, 86, 0
1, 179600, Note_on_c, 0, 74, 76
1, 179680, Note_on_c, 0, 74, 0
1, 179680, Note_on_c, 0, 84, 77
1, 179760, Tempo, 398671
1, 179760, Note_on_c, 0, 84, 0
1, 179760, Note_on_c, 0, 82, 84
1, 179772, Control_c, 0, 64, 0
1, 179880, Note_on_c, 0, 82, 0
1, 180000, Tempo, 375000
1, 180000, Note_on_c, 0, 43, 0
1, 180000, Note_on_c, 0, 31, 0
1, 180000, Note_on_c, 0, 91, 97
1, 180039, Control_c, 0, 64, 127
1, 180080, Note_on_c, 0, 91, 0
1, 180080, Note_on_c, 0, 79, 78
1, 180160, Note_on_c, 0, 79, 0
1, 180160, Note_on_c, 0, 87, 79
1, 180240, Tempo, 447427
1, 180240, Note_on_c, 0, 87, 0
1, 180240, Note_on_c, 0, 86, 87
1, 180240, Note_on_c, 0, 38, 74
1, 180240, Note_on_c, 0, 50, 74
1, 180252, Control_c, 0, 64, 0
1, 180297, Control_c, 0, 64, 127
1, 180360, Note_on_c, 0, 50, 0
1, 180360, Note_on_c, 0, 38, 0
1, 180360, Note_on_c, 0, 86, 0
1, 180480, Tempo, 416378
1, 180480, Note_on_c, 0, 94, 109
1, 180480, Note_on_c, 0, 82, 88
1, 180480, Note_on_c, 0, 31, 68
1, 180480, Note_on_c, 0, 43, 76
1, 180484, Control_c, 0, 64, 0
1, 180585, Control_c, 0, 64, 127
1, 180720, Note_on_c, 0, 43, 0
1, 180720, Note_on_c, 0, 31, 0
1, 180924, Tempo, 377121
1, 180960, Tempo, 326087
1, 180960, Note_on_c, 0, 82, 0
1, 180960, Note_on_c, 0, 94, 0
1, 180960, Note_on_c, 0, 79, 81
1, 180960, Note_on_c, 0, 91, 88
1, 181200, Note_on_c, 0, 82, 83
1, 181440, Note_on_c, 0, 91, 0
1, 181440, Note_on_c, 0, 79, 0
1, 181440, Note_on_c, 0, 74, 81
1, 181440, Note_on_c, 0, 86, 88
1, 181680, Note_on_c, 0, 82, 0
1, 181680, Note_on_c, 0, 79, 83
1, 181920, Note_on_c, 0, 86, 0
1, 181920, Note_on_c, 0, 74, 0
1, 181920, Note_on_c, 0, 70, 81
1, 181920, Note_on_c, 0, 82, 88
1, 182160, Note_on_c, 0, 79, 0
1, 182160, Note_on_c, 0, 74, 83
1, 182400, Tempo, 326087
1, 182400, Note_on_c, 0, 82, 0
1, 182400, Note_on_c, 0, 70, 0
1, 182400, Note_on_c, 0, 67, 81
1, 182400, Note_on_c, 0, 79, 88
1, 182640, Tempo, 328767
1, 182640, Note_on_c, 0, 74, 0
1, 182640, Note_on_c, 0, 70, 82
1, 182880, Tempo, 331492
1, 182880, Note_on_c, 0, 79, 0
1, 182880, Note_on_c, 0, 67, 0
1, 182880, Note_on_c, 0, 62, 81
1, 182880, Note_on_c, 0, 74, 88
1, 183120, Note_on_c, 0, 70, 0
1, 183120, Note_on_c, 0, 67, 80
1, 183360, Tempo, 326975
1, 183360, Note_on_c, 0, 74, 0
1, 183360, Note_on_c, 0, 62, 0
1, 183360, Note_on_c, 0, 58, 81
1, 183360, Note_on_c, 0, 70, 88
1, 183600, Tempo, 331492
1, 183600, Note_on_c, 0, 67, 0
1, 183600, Note_on_c, 0, 62, 80
1, 183840, Note_on_c, 0, 70, 0
1, 183840, Note_on_c, 0, 58, 0
1, 183840, Note_on_c, 0, 55, 81
1, 183840, Note_on_c, 0, 67, 88
1, 184080, Tempo, 435414
1, 184080, Note_on_c, 0, 62, 0
1, 184080, Note_on_c, 0, 58, 80
1, 184320, Tempo, 362319
1, 184320, Note_on_c, 0, 58, 0
1, 184320, Note_on_c, 0, 67, 0
1, 184320, Note_on_c, 0, 60, 66
1, 184320, Note_on_c, 0, 63, 85
1, 184320, Note_on_c, 0, 68, 96
1, 184320, Note_on_c, 0, 48, 78
1, 184322, Control_c, 0, 64, 0
1, 184549, Control_c, 0, 64, 127
1, 184800, Tempo, 343643
1, 184800, Note_on_c, 0, 55, 0
1, 184800, Note_on_c, 0, 56, 92
1, 185040, Note_on_c, 0, 54, 71
1, 185160, Tempo, 335008
1, 185280, Tempo, 347625
1, 185280, Note_on_c, 0, 56, 0
1, 185280, Note_on_c, 0, 68, 0
1, 185280, Note_on_c, 0, 60, 0
1, 185280, Note_on_c, 0, 63, 0
1, 185280, Note_on_c, 0, 57, 78
1, 185280, Note_on_c, 0, 69, 85
1, 185302, Tempo, 336889
1, 185520, Note_on_c, 0, 54, 0
1, 185520, Note_on_c, 0, 51, 71
1, 185556, Tempo, 363416
1, 185566, Tempo, 338792
1, 185758, Tempo, 337838
1, 185760, Note_on_c, 0, 57, 0
1, 185760, Note_on_c, 0, 60, 78
1, 185950, Tempo, 336889
1, 186000, Note_on_c, 0, 51, 0
1, 186000, Note_on_c, 0, 48, 73
1, 186142, Tempo, 335946
1, 186240, Note_on_c, 0, 48, 0
1, 186240, Note_on_c, 0, 63, 78
1, 186310, Tempo, 335008
1, 186480, Note_on_c, 0, 45, 73
1, 186502, Tempo, 334076
1, 186694, Tempo, 333148
1, 186720, Note_on_c, 0, 66, 78
1, 186886, Tempo, 332226
1, 186960, Note_on_c, 0, 45, 0
1, 186960, Note_on_c, 0, 42, 75
1, 187054, Tempo, 331309
1, 187200, Note_on_c, 0, 69, 0
1, 187200, Note_on_c, 0, 69, 78
1, 187246, Tempo, 330396
1, 187438, Tempo, 329489
1, 187440, Note_on_c, 0, 42, 0
1, 187440, Note_on_c, 0, 39, 76
1, 187630, Tempo, 328587
1, 187680, Note_on_c, 0, 72, 78
1, 187798, Tempo, 327690
1, 187860, Tempo, 349650
1, 187920, Tempo, 380711
1, 187920, Note_on_c, 0, 39, 0
1, 187920, Note_on_c, 0, 36, 79
1, 188160, Tempo, 349650
1, 188160, Note_on_c, 0, 36, 0
1, 188160, Note_on_c, 0, 72, 0
1, 188160, Note_on_c, 0, 69, 0
1, 188160, Note_on_c, 0, 63, 0
1, 188160, Note_on_c, 0, 48, 0
1, 188160, Note_on_c, 0, 66, 0
1, 188160, Note_on_c, 0, 60, 0
1, 188160, Note_on_c, 0, 62, 78
1, 188160, Note_on_c, 0, 67, 82
1, 188160, Note_on_c, 0, 70, 88
1, 188160, Note_on_c, 0, 31, 78
1, 188160, Note_on_c, 0, 43, 85
1, 188160, Control_c, 0, 64, 0
1, 188640, Tempo, 324324
1, 188640, Note_on_c, 0, 43, 0
1, 188640, Note_on_c, 0, 70, 0
1, 188640, Note_on_c, 0, 62, 0
1, 188640, Note_on_c, 0, 67, 0
1, 188640, Note_on_c, 0, 31, 0
1, 188640, Note_on_c, 0, 67, 85
1, 188640, Note_on_c, 0, 79, 92
1, 188880, Tempo, 330579
1, 188880, Note_on_c, 0, 70, 80
1, 189120, Tempo, 323450
1, 189120, Note_on_c, 0, 79, 0
1, 189120, Note_on_c, 0, 67, 0
1, 189120, Note_on_c, 0, 62, 85
1, 189120, Note_on_c, 0, 74, 92
1, 189360, Tempo, 330579
1, 189360, Note_on_c, 0, 70, 0
1, 189360, Note_on_c, 0, 67, 80
1, 189600, Tempo, 323450
1, 189600, Note_on_c, 0, 74, 0
1, 189600, Note_on_c, 0, 62, 0
1, 189600, Note_on_c, 0, 58, 85
1, 189600, Note_on_c, 0, 70, 92
1, 189840, Tempo, 332410
1, 189840, Note_on_c, 0, 67, 0
1, 189840, Note_on_c, 0, 62, 80
1, 190080, Tempo, 326797
1, 190080, Note_on_c, 0, 70, 0
1, 190080, Note_on_c, 0, 58, 0
1, 190080, Note_on_c, 0, 55, 85
1, 190080, Note_on_c, 0, 67, 92
1, 190320, Note_on_c, 0, 62, 0
1, 190320, Note_on_c, 0, 58, 80
1, 190560, Note_on_c, 0, 67, 0
1, 190560, Note_on_c, 0, 55, 0
1, 190560, Note_on_c, 0, 50, 85
1, 190560, Note_on_c, 0, 62, 92
1, 190800, Note_on_c, 0, 58, 0
1, 190800, Note_on_c, 0, 55, 80
1, 191040, Tempo, 354820
1, 191040, Note_on_c, 0, 62, 0
1, 191040, Note_on_c, 0, 50, 0
1, 191040, Note_on_c, 0, 46, 85
1, 191040, Note_on_c, 0, 58, 92
1, 191280, Note_on_c, 0, 55, 0
1, 191280, Note_on_c, 0, 50, 80
1, 191520, Tempo, 385604
1, 191520, Note_on_c, 0, 58, 0
1, 191520, Note_on_c, 0, 46, 0
1, 191520, Note_on_c, 0, 43, 85
1, 191520, Note_on_c, 0, 55, 92
1, 191760, Tempo, 437637
1, 191760, Note_on_c, 0, 50, 0
1, 191760, Note_on_c, 0, 46, 80
1, 192000, Tempo, 370142
1, 192000, Note_on_c, 0, 46, 0
1, 192000, Note_on_c, 0, 55, 0
1, 192000, Note_on_c, 0, 48, 68
1, 192000, Note_on_c, 0, 51, 83
1, 192000, Note_on_c, 0, 56, 95
1, 192000, Note_on_c, 0, 36, 100
1, 192002, Control_c, 0, 64, 0
1, 192229, Control_c, 0, 64, 127
1, 192480, Tempo, 346821
1, 192480, Note_on_c, 0, 43, 0
1, 192480, Note_on_c, 0, 44, 92
1, 192720, Tempo, 351906
1, 192720, Note_on_c, 0, 42, 78
1, 192960, Tempo, 346821
1, 192960, Note_on_c, 0, 44, 0
1, 192960, Note_on_c, 0, 56, 0
1, 192960, Note_on_c, 0, 48, 0
1, 192960, Note_on_c, 0, 51, 0
1, 192960, Note_on_c, 0, 45, 78
1, 192960, Note_on_c, 0, 57, 85
1, 193200, Tempo, 351906
1, 193200, Note_on_c, 0, 42, 0
1, 193200, Note_on_c, 0, 39, 78
1, 193440, Tempo, 347826
1, 193440, Note_on_c, 0, 45, 0
1, 193440, Note_on_c, 0, 48, 78
1, 193680, Tempo, 352941
1, 193680, Note_on_c, 0, 39, 0
1, 193680, Note_on_c, 0, 36, 78
1, 193920, Tempo, 346821
1, 193920, Note_on_c, 0, 36, 0
1, 193920, Note_on_c, 0, 36, 0
1, 193920, Note_on_c, 0, 51, 78
1, 193920, Note_on_c, 0, 36, 78
1, 194160, Tempo, 353982
1, 194160, Note_on_c, 0, 33, 78
1, 194400, Tempo, 347826
1, 194400, Note_on_c, 0, 54, 78
1, 194640, Tempo, 359281
1, 194640, Note_on_c, 0, 33, 0
1, 194640, Note_on_c, 0, 30, 78
1, 194880, Tempo, 350877
1, 194880, Note_on_c, 0, 57, 0
1, 194880, Note_on_c, 0, 54, 0
1, 194880, Note_on_c, 0, 57, 78
1, 195120, Tempo, 359281
1, 195120, Note_on_c, 0, 30, 0
1, 195120, Note_on_c, 0, 27, 78
1, 195360, Tempo, 353982
1, 195360, Note_on_c, 0, 60, 78
1, 195600, Tempo, 432277
1, 195600, Note_on_c, 0, 27, 0
1, 195600, Note_on_c, 0, 24, 78
1, 195840, Tempo, 378310
1, 195840, Note_on_c, 0, 24, 0
1, 195840, Note_on_c, 0, 60, 0
1, 195840, Note_on_c, 0, 57, 0
1, 195840, Note_on_c, 0, 48, 0
1, 195840, Note_on_c, 0, 36, 0
1, 195840, Note_on_c, 0, 51, 0
1, 195840, Note_on_c, 0, 50, 75
1, 195840, Note_on_c, 0, 55, 79
1, 195840, Note_on_c, 0, 58, 88
1, 195840, Note_on_c, 0, 31, 81
1, 195840, Control_c, 0, 64, 0
1, 196080, Control_c, 0, 64, 127
1, 196320, Tempo, 368098
1, 196320, Note_on_c, 0, 31, 0
1, 196320, Note_on_c, 0, 50, 0
1, 196320, Note_on_c, 0, 55, 0
1, 196320, Note_on_c, 0, 58, 0
1, 196320, Note_on_c, 0, 46, 78
1, 196560, Tempo, 376176
1, 196560, Note_on_c, 0, 62, 78
1, 196786, Tempo, 393185
1, 196800, Tempo, 383387
1, 196800, Note_on_c, 0, 46, 0
1, 196800, Note_on_c, 0, 50, 79
1, 197040, Tempo, 397351
1, 197040, Note_on_c, 0, 62, 0
1, 197040, Note_on_c, 0, 58, 81
1, 197170, Tempo, 399734
1, 197242, Tempo, 401070
1, 197280, Tempo, 388350
1, 197280, Note_on_c, 0, 50, 0
1, 197280, Note_on_c, 0, 55, 81
1, 197518, Note_on_c, 0, 55, 0
1, 197520, Tempo, 410959
1, 197520, Note_on_c, 0, 58, 0
1, 197520, Note_on_c, 0, 55, 82
1, 197698, Tempo, 409277
1, 197760, Tempo, 401338
1, 197760, Note_on_c, 0, 58, 85
1, 198000, Tempo, 424028
1, 198000, Note_on_c, 0, 55, 0
1, 198000, Note_on_c, 0, 50, 85
1, 198154, Tempo, 417827
1, 198240, Note_on_c, 0, 58, 0
1, 198240, Note_on_c, 0, 62, 87
1, 198480, Tempo, 437956
1, 198480, Note_on_c, 0, 50, 0
1, 198480, Note_on_c, 0, 46, 88
1, 198682, Tempo, 428266
1, 198706, Tempo, 426743
1, 198720, Tempo, 434783
1, 198720, Note_on_c, 0, 62, 0
1, 198720, Note_on_c, 0, 67, 88
1, 198960, Tempo, 454545
1, 198960, Note_on_c, 0, 46, 0
1, 198960, Note_on_c, 0, 43, 94
1, 199162, Tempo, 461184
1, 199200, Note_on_c, 0, 67, 0
1, 199200, Note_on_c, 0, 70, 91
1, 199354, Tempo, 477707
1, 199356, Tempo, 464756
1, 199380, Tempo, 468384
1, 199404, Tempo, 470219
1, 199428, Tempo, 472069
1, 199440, Tempo, 605449
1, 199440, Note_on_c, 0, 43, 0
1, 199440, Note_on_c, 0, 31, 103
1, 199680, Tempo, 507185
1, 199680, Note_on_c, 0, 79, 101
1, 200640, Note_on_c, 0, 79, 0
1, 200640, Note_on_c, 0, 31, 0
1, 200640, Note_on_c, 0, 70, 0
1, 202560, Control_c, 0, 64, 0
1, 202560, End_track
0, 0, End_of_file
