0, 0, Header, 0, 1, 480
1, 0, Start_track
1, 0, Title_t, "Kinderszenen Opus 15"
1, 0, Title_t, "Kuriose Geschichte"
1, 0, Copyright_t, "Copyright © 1997 von Bernd Krüger."
1, 0, Text_t, "Robert Schumann"
1, 0, Text_t, "Fertiggestellt am 22.11.97\012"
1, 0, Text_t, "Korrekturen am 4.9.98\012"
1, 0, Text_t, "Anpassungen an Digitalpiano am 1.1.99\012"
1, 0, Text_t, "Update am 16.6.99\012"
1, 0, Text_t, "Update am 9.7.99\012"
1, 0, Text_t, "Normierung: 23.12.2002\012"
1, 0, Text_t, "Update am 4.10.2008\012"
1, 0, Text_t, "Update am 26.3.14\012"
1, 0, Text_t, "Dauer: 0:56 Minuten\012"
1, 0, Time_signature, 3, 2, 24, 8
1, 0, Key_signature, 2, "major"
1, 0, Tempo, 446196
1, 0, Marker_t, "Curious Story"
1, 0, Program_c, 0, 0
1, 0, Control_c, 0, 7, 100
1, 0, Control_c, 0, 10, 64
1, 0, Control_c, 0, 91, 127
1, 0, Text_t, "bdca426d104a26ac9dcb070447587523"
1, 0, Program_c, 0, 0
1, 0, Control_c, 0, 7, 100
1, 0, Control_c, 0, 10, 64
1, 0, Control_c, 0, 64, 0
1, 959, Control_c, 0, 91, 127
1, 959, Control_c, 0, 91, 127
1, 960, Note_on_c, 0, 66, 62
1, 960, Note_on_c, 0, 50, 51
1, 960, Note_on_c, 0, 57, 51
1, 960, Control_c, 0, 64, 127
1, 1320, Tempo, 426409
1, 1320, Note_on_c, 0, 66, 0
1, 1320, Note_on_c, 0, 71, 50
1, 1379, Note_on_c, 0, 69, 55
1, 1380, Note_on_c, 0, 71, 0
1, 1439, Note_on_c, 0, 69, 0
1, 1440, Tempo, 433808
1, 1440, Note_on_c, 0, 57, 0
1, 1440, Note_on_c, 0, 50, 0
1, 1440, Note_on_c, 0, 61, 62
1, 1440, Note_on_c, 0, 67, 62
1, 1440, Note_on_c, 0, 57, 56
1, 1440, Note_on_c, 0, 52, 56
1, 1459, Control_c, 0, 64, 0
1, 1500, Note_on_c, 0, 52, 0
1, 1500, Note_on_c, 0, 61, 0
1, 1500, Note_on_c, 0, 67, 0
1, 1500, Note_on_c, 0, 57, 0
1, 1800, Tempo, 422535
1, 1800, Note_on_c, 0, 61, 57
1, 1800, Note_on_c, 0, 66, 57
1, 1800, Note_on_c, 0, 51, 47
1, 1800, Note_on_c, 0, 57, 47
1, 1860, Note_on_c, 0, 57, 0
1, 1860, Note_on_c, 0, 61, 0
1, 1860, Note_on_c, 0, 66, 0
1, 1860, Note_on_c, 0, 51, 0
1, 1920, Note_on_c, 0, 67, 60
1, 1920, Note_on_c, 0, 61, 60
1, 1920, Note_on_c, 0, 52, 51
1, 1920, Note_on_c, 0, 57, 51
1, 2160, Tempo, 471439
1, 2160, Note_on_c, 0, 57, 0
1, 2160, Note_on_c, 0, 67, 0
1, 2160, Note_on_c, 0, 61, 0
1, 2160, Note_on_c, 0, 52, 0
1, 2400, Tempo, 441469
1, 2400, Note_on_c, 0, 61, 62
1, 2400, Note_on_c, 0, 71, 62
1, 2400, Note_on_c, 0, 57, 55
1, 2400, Note_on_c, 0, 55, 55
1, 2417, Control_c, 0, 64, 127
1, 2880, Tempo, 435319
1, 2880, Note_on_c, 0, 55, 0
1, 2880, Note_on_c, 0, 61, 0
1, 2880, Note_on_c, 0, 71, 0
1, 2880, Note_on_c, 0, 57, 0
1, 2880, Note_on_c, 0, 69, 64
1, 2880, Note_on_c, 0, 62, 64
1, 2880, Note_on_c, 0, 54, 55
1, 2880, Note_on_c, 0, 57, 55
1, 2900, Control_c, 0, 64, 0
1, 2940, Note_on_c, 0, 57, 0
1, 2940, Note_on_c, 0, 54, 0
1, 3220, Tempo, 423519
1, 3240, Tempo, 422535
1, 3240, Note_on_c, 0, 57, 49
1, 3240, Note_on_c, 0, 53, 49
1, 3300, Note_on_c, 0, 53, 0
1, 3300, Note_on_c, 0, 57, 0
1, 3360, Note_on_c, 0, 57, 52
1, 3360, Note_on_c, 0, 54, 52
1, 3600, Tempo, 443033
1, 3600, Note_on_c, 0, 54, 0
1, 3600, Note_on_c, 0, 57, 0
1, 3840, Tempo, 441469
1, 3840, Note_on_c, 0, 62, 0
1, 3840, Note_on_c, 0, 69, 0
1, 3840, Note_on_c, 0, 74, 64
1, 3840, Note_on_c, 0, 69, 64
1, 3840, Note_on_c, 0, 57, 55
1, 3840, Note_on_c, 0, 54, 55
1, 3857, Control_c, 0, 64, 127
1, 4320, Tempo, 433808
1, 4320, Note_on_c, 0, 54, 0
1, 4320, Note_on_c, 0, 74, 0
1, 4320, Note_on_c, 0, 69, 0
1, 4320, Note_on_c, 0, 57, 0
1, 4320, Note_on_c, 0, 73, 64
1, 4320, Note_on_c, 0, 67, 64
1, 4320, Note_on_c, 0, 52, 55
1, 4320, Note_on_c, 0, 57, 55
1, 4341, Control_c, 0, 64, 0
1, 4380, Note_on_c, 0, 57, 0
1, 4380, Note_on_c, 0, 73, 0
1, 4380, Note_on_c, 0, 67, 0
1, 4380, Note_on_c, 0, 52, 0
1, 4680, Tempo, 421053
1, 4680, Note_on_c, 0, 66, 56
1, 4680, Note_on_c, 0, 71, 56
1, 4680, Note_on_c, 0, 57, 52
1, 4680, Note_on_c, 0, 50, 52
1, 4740, Note_on_c, 0, 50, 0
1, 4740, Note_on_c, 0, 66, 0
1, 4740, Note_on_c, 0, 71, 0
1, 4740, Note_on_c, 0, 57, 0
1, 4800, Note_on_c, 0, 69, 60
1, 4800, Note_on_c, 0, 64, 60
1, 4800, Note_on_c, 0, 57, 56
1, 4800, Note_on_c, 0, 49, 56
1, 5040, Tempo, 482393
1, 5040, Note_on_c, 0, 49, 0
1, 5040, Note_on_c, 0, 69, 0
1, 5040, Note_on_c, 0, 64, 0
1, 5040, Note_on_c, 0, 57, 0
1, 5280, Tempo, 446196
1, 5280, Note_on_c, 0, 79, 67
1, 5280, Note_on_c, 0, 67, 67
1, 5280, Note_on_c, 0, 69, 67
1, 5280, Note_on_c, 0, 45, 61
1, 5280, Note_on_c, 0, 57, 61
1, 5287, Control_c, 0, 64, 127
1, 5760, Tempo, 435319
1, 5760, Note_on_c, 0, 57, 0
1, 5760, Note_on_c, 0, 69, 0
1, 5760, Note_on_c, 0, 79, 0
1, 5760, Note_on_c, 0, 67, 0
1, 5760, Note_on_c, 0, 45, 0
1, 5760, Note_on_c, 0, 66, 67
1, 5760, Note_on_c, 0, 74, 67
1, 5760, Note_on_c, 0, 78, 67
1, 5760, Note_on_c, 0, 57, 58
1, 5760, Note_on_c, 0, 50, 58
1, 5781, Control_c, 0, 64, 0
1, 5820, Note_on_c, 0, 50, 0
1, 5820, Note_on_c, 0, 78, 0
1, 5820, Note_on_c, 0, 66, 0
1, 5820, Note_on_c, 0, 74, 0
1, 5820, Note_on_c, 0, 57, 0
1, 6120, Tempo, 422535
1, 6120, Note_on_c, 0, 67, 59
1, 6120, Note_on_c, 0, 76, 59
1, 6120, Note_on_c, 0, 73, 59
1, 6120, Note_on_c, 0, 52, 56
1, 6120, Note_on_c, 0, 57, 56
1, 6180, Note_on_c, 0, 57, 0
1, 6180, Note_on_c, 0, 73, 0
1, 6180, Note_on_c, 0, 67, 0
1, 6180, Note_on_c, 0, 76, 0
1, 6180, Note_on_c, 0, 52, 0
1, 6240, Note_on_c, 0, 69, 56
1, 6240, Note_on_c, 0, 74, 56
1, 6240, Note_on_c, 0, 57, 53
1, 6240, Note_on_c, 0, 54, 53
1, 6480, Tempo, 443033
1, 6480, Note_on_c, 0, 54, 0
1, 6480, Note_on_c, 0, 69, 0
1, 6480, Note_on_c, 0, 74, 0
1, 6480, Note_on_c, 0, 57, 0
1, 6720, Tempo, 441469
1, 6720, Note_on_c, 0, 66, 58
1, 6720, Note_on_c, 0, 50, 50
1, 6720, Note_on_c, 0, 57, 50
1, 6720, Control_c, 0, 64, 127
1, 7080, Tempo, 420669
1, 7080, Note_on_c, 0, 66, 0
1, 7080, Note_on_c, 0, 71, 50
1, 7139, Note_on_c, 0, 69, 55
1, 7140, Note_on_c, 0, 71, 0
1, 7199, Note_on_c, 0, 69, 0
1, 7200, Tempo, 427869
1, 7200, Note_on_c, 0, 57, 0
1, 7200, Note_on_c, 0, 50, 0
1, 7200, Note_on_c, 0, 67, 61
1, 7200, Note_on_c, 0, 61, 61
1, 7200, Note_on_c, 0, 52, 56
1, 7200, Note_on_c, 0, 57, 56
1, 7219, Control_c, 0, 64, 0
1, 7290, Note_on_c, 0, 57, 0
1, 7290, Note_on_c, 0, 67, 0
1, 7290, Note_on_c, 0, 61, 0
1, 7290, Note_on_c, 0, 52, 0
1, 7560, Tempo, 418118
1, 7560, Note_on_c, 0, 66, 57
1, 7560, Note_on_c, 0, 61, 57
1, 7560, Note_on_c, 0, 57, 53
1, 7560, Note_on_c, 0, 51, 53
1, 7620, Note_on_c, 0, 51, 0
1, 7620, Note_on_c, 0, 66, 0
1, 7620, Note_on_c, 0, 61, 0
1, 7620, Note_on_c, 0, 57, 0
1, 7680, Note_on_c, 0, 67, 61
1, 7680, Note_on_c, 0, 61, 61
1, 7680, Note_on_c, 0, 57, 56
1, 7680, Note_on_c, 0, 52, 56
1, 7920, Tempo, 473223
1, 7920, Note_on_c, 0, 52, 0
1, 7920, Note_on_c, 0, 67, 0
1, 7920, Note_on_c, 0, 61, 0
1, 7920, Note_on_c, 0, 57, 0
1, 8160, Tempo, 443033
1, 8160, Note_on_c, 0, 61, 64
1, 8160, Note_on_c, 0, 71, 64
1, 8160, Note_on_c, 0, 55, 58
1, 8160, Note_on_c, 0, 57, 58
1, 8183, Control_c, 0, 64, 127
1, 8640, Tempo, 435319
1, 8640, Note_on_c, 0, 57, 0
1, 8640, Note_on_c, 0, 61, 0
1, 8640, Note_on_c, 0, 71, 0
1, 8640, Note_on_c, 0, 55, 0
1, 8640, Note_on_c, 0, 62, 64
1, 8640, Note_on_c, 0, 69, 64
1, 8640, Note_on_c, 0, 57, 58
1, 8640, Note_on_c, 0, 54, 58
1, 8658, Control_c, 0, 64, 0
1, 8730, Note_on_c, 0, 54, 0
1, 8730, Note_on_c, 0, 57, 0
1, 8980, Tempo, 423519
1, 9000, Tempo, 424028
1, 9000, Note_on_c, 0, 53, 54
1, 9000, Note_on_c, 0, 57, 54
1, 9060, Note_on_c, 0, 57, 0
1, 9060, Note_on_c, 0, 53, 0
1, 9120, Note_on_c, 0, 57, 58
1, 9120, Note_on_c, 0, 54, 58
1, 9360, Tempo, 459313
1, 9360, Note_on_c, 0, 54, 0
1, 9360, Note_on_c, 0, 57, 0
1, 9600, Tempo, 433808
1, 9600, Note_on_c, 0, 69, 0
1, 9600, Note_on_c, 0, 62, 0
1, 9600, Note_on_c, 0, 74, 60
1, 9600, Note_on_c, 0, 69, 60
1, 9600, Note_on_c, 0, 57, 52
1, 9600, Note_on_c, 0, 54, 52
1, 9840, Note_on_c, 0, 57, 0
1, 9840, Note_on_c, 0, 59, 49
1, 9960, Tempo, 446196
1, 9960, Note_on_c, 0, 74, 0
1, 9960, Note_on_c, 0, 73, 56
1, 10080, Note_on_c, 0, 73, 0
1, 10080, Note_on_c, 0, 59, 0
1, 10080, Note_on_c, 0, 69, 0
1, 10080, Note_on_c, 0, 54, 0
1, 10080, Note_on_c, 0, 73, 60
1, 10080, Note_on_c, 0, 69, 60
1, 10080, Note_on_c, 0, 52, 48
1, 10080, Note_on_c, 0, 61, 48
1, 10320, Note_on_c, 0, 74, 54
1, 10320, Note_on_c, 0, 62, 50
1, 10344, Note_on_c, 0, 61, 0
1, 10344, Note_on_c, 0, 73, 0
1, 10560, Tempo, 435319
1, 10560, Note_on_c, 0, 52, 0
1, 10560, Note_on_c, 0, 76, 57
1, 10560, Note_on_c, 0, 64, 51
1, 10584, Note_on_c, 0, 62, 0
1, 10584, Note_on_c, 0, 74, 0
1, 10800, Note_on_c, 0, 78, 60
1, 10800, Note_on_c, 0, 66, 53
1, 10824, Note_on_c, 0, 64, 0
1, 10824, Note_on_c, 0, 76, 0
1, 11040, Tempo, 499750
1, 11040, Note_on_c, 0, 69, 0
1, 11040, Note_on_c, 0, 78, 0
1, 11040, Note_on_c, 0, 66, 0
1, 11040, Note_on_c, 0, 78, 62
1, 11040, Note_on_c, 0, 74, 45
1, 11040, Note_on_c, 0, 66, 55
1, 11040, Note_on_c, 0, 64, 45
1, 11400, Tempo, 597788
1, 11400, Note_on_c, 0, 66, 0
1, 11400, Note_on_c, 0, 78, 0
1, 11400, Note_on_c, 0, 80, 55
1, 11400, Note_on_c, 0, 68, 48
1, 11520, Tempo, 499750
1, 11520, Note_on_c, 0, 68, 0
1, 11520, Note_on_c, 0, 80, 0
1, 11520, Note_on_c, 0, 80, 51
1, 11520, Control_c, 0, 64, 127
1, 11520, Note_on_c, 0, 68, 45
1, 12000, Tempo, 531632
1, 12000, Note_on_c, 0, 68, 0
1, 12000, Note_on_c, 0, 64, 0
1, 12000, Note_on_c, 0, 74, 0
1, 12000, Note_on_c, 0, 80, 0
1, 12000, Note_on_c, 0, 81, 46
1, 12000, Note_on_c, 0, 73, 40
1, 12000, Note_on_c, 0, 57, 37
1, 12000, Note_on_c, 0, 69, 37
1, 12009, Control_c, 0, 64, 0
1, 12360, Note_on_c, 0, 69, 0
1, 12360, Note_on_c, 0, 81, 0
1, 12360, Note_on_c, 0, 73, 0
1, 12360, Note_on_c, 0, 57, 0
1, 12480, Tempo, 446196
1, 12480, Control_c, 0, 91, 127
1, 12480, Note_on_c, 0, 66, 59
1, 12480, Control_c, 0, 64, 127
1, 12480, Control_c, 0, 91, 127
1, 12480, Note_on_c, 0, 50, 50
1, 12480, Note_on_c, 0, 57, 50
1, 12840, Note_on_c, 0, 66, 0
1, 12840, Note_on_c, 0, 71, 50
1, 12841, Tempo, 426409
1, 12900, Note_on_c, 0, 71, 0
1, 12900, Note_on_c, 0, 69, 55
1, 12960, Note_on_c, 0, 69, 0
1, 12960, Note_on_c, 0, 57, 0
1, 12960, Note_on_c, 0, 50, 0
1, 12960, Note_on_c, 0, 61, 63
1, 12960, Note_on_c, 0, 67, 63
1, 12960, Note_on_c, 0, 52, 58
1, 12960, Note_on_c, 0, 57, 58
1, 12961, Tempo, 433808
1, 12980, Control_c, 0, 64, 0
1, 13020, Note_on_c, 0, 57, 0
1, 13020, Note_on_c, 0, 61, 0
1, 13020, Note_on_c, 0, 67, 0
1, 13020, Note_on_c, 0, 52, 0
1, 13320, Tempo, 418118
1, 13320, Note_on_c, 0, 61, 56
1, 13320, Note_on_c, 0, 66, 56
1, 13320, Note_on_c, 0, 51, 54
1, 13320, Note_on_c, 0, 57, 54
1, 13380, Note_on_c, 0, 57, 0
1, 13380, Note_on_c, 0, 61, 0
1, 13380, Note_on_c, 0, 66, 0
1, 13380, Note_on_c, 0, 51, 0
1, 13440, Note_on_c, 0, 61, 60
1, 13440, Note_on_c, 0, 67, 60
1, 13440, Note_on_c, 0, 52, 57
1, 13440, Note_on_c, 0, 57, 57
1, 13680, Note_on_c, 0, 57, 0
1, 13680, Note_on_c, 0, 61, 0
1, 13680, Note_on_c, 0, 67, 0
1, 13680, Note_on_c, 0, 52, 0
1, 13681, Tempo, 471439
1, 13920, Note_on_c, 0, 61, 63
1, 13920, Note_on_c, 0, 71, 63
1, 13920, Note_on_c, 0, 55, 57
1, 13920, Note_on_c, 0, 57, 57
1, 13921, Tempo, 441469
1, 13949, Control_c, 0, 64, 127
1, 14400, Note_on_c, 0, 57, 0
1, 14400, Note_on_c, 0, 61, 0
1, 14400, Note_on_c, 0, 71, 0
1, 14400, Note_on_c, 0, 55, 0
1, 14400, Note_on_c, 0, 62, 63
1, 14400, Note_on_c, 0, 69, 63
1, 14400, Note_on_c, 0, 54, 57
1, 14400, Note_on_c, 0, 57, 57
1, 14401, Tempo, 435319
1, 14423, Control_c, 0, 64, 0
1, 14460, Note_on_c, 0, 57, 0
1, 14460, Note_on_c, 0, 54, 0
1, 14760, Tempo, 421053
1, 14760, Note_on_c, 0, 53, 53
1, 14760, Note_on_c, 0, 57, 53
1, 14820, Note_on_c, 0, 57, 0
1, 14820, Note_on_c, 0, 53, 0
1, 14880, Note_on_c, 0, 54, 57
1, 14880, Note_on_c, 0, 57, 57
1, 15120, Note_on_c, 0, 57, 0
1, 15120, Note_on_c, 0, 54, 0
1, 15121, Tempo, 443033
1, 15360, Note_on_c, 0, 69, 0
1, 15360, Note_on_c, 0, 62, 0
1, 15360, Note_on_c, 0, 69, 64
1, 15360, Note_on_c, 0, 74, 64
1, 15360, Control_c, 0, 64, 127
1, 15360, Note_on_c, 0, 54, 56
1, 15360, Note_on_c, 0, 57, 56
1, 15361, Tempo, 441469
1, 15840, Note_on_c, 0, 57, 0
1, 15840, Note_on_c, 0, 69, 0
1, 15840, Note_on_c, 0, 74, 0
1, 15840, Note_on_c, 0, 54, 0
1, 15840, Note_on_c, 0, 67, 64
1, 15840, Note_on_c, 0, 73, 64
1, 15840, Note_on_c, 0, 52, 56
1, 15840, Note_on_c, 0, 57, 56
1, 15841, Tempo, 433808
1, 15861, Control_c, 0, 64, 0
1, 15900, Note_on_c, 0, 57, 0
1, 15900, Note_on_c, 0, 67, 0
1, 15900, Note_on_c, 0, 73, 0
1, 15900, Note_on_c, 0, 52, 0
1, 16200, Tempo, 421053
1, 16200, Note_on_c, 0, 66, 57
1, 16200, Note_on_c, 0, 71, 57
1, 16200, Note_on_c, 0, 50, 53
1, 16200, Note_on_c, 0, 57, 53
1, 16260, Note_on_c, 0, 57, 0
1, 16260, Note_on_c, 0, 66, 0
1, 16260, Note_on_c, 0, 71, 0
1, 16260, Note_on_c, 0, 50, 0
1, 16320, Note_on_c, 0, 64, 60
1, 16320, Note_on_c, 0, 69, 60
1, 16320, Note_on_c, 0, 49, 57
1, 16320, Note_on_c, 0, 57, 57
1, 16560, Tempo, 493827
1, 16560, Note_on_c, 0, 57, 0
1, 16560, Note_on_c, 0, 64, 0
1, 16560, Note_on_c, 0, 69, 0
1, 16560, Note_on_c, 0, 49, 0
1, 16800, Note_on_c, 0, 67, 68
1, 16800, Note_on_c, 0, 69, 68
1, 16800, Note_on_c, 0, 79, 68
1, 16800, Note_on_c, 0, 45, 60
1, 16800, Note_on_c, 0, 57, 60
1, 16801, Tempo, 446196
1, 16821, Control_c, 0, 64, 127
1, 17280, Note_on_c, 0, 57, 0
1, 17280, Note_on_c, 0, 79, 0
1, 17280, Note_on_c, 0, 67, 0
1, 17280, Note_on_c, 0, 69, 0
1, 17280, Note_on_c, 0, 45, 0
1, 17280, Note_on_c, 0, 66, 68
1, 17280, Note_on_c, 0, 74, 68
1, 17280, Note_on_c, 0, 78, 68
1, 17280, Note_on_c, 0, 50, 57
1, 17280, Note_on_c, 0, 57, 57
1, 17281, Tempo, 435319
1, 17300, Control_c, 0, 64, 0
1, 17340, Note_on_c, 0, 57, 0
1, 17340, Note_on_c, 0, 78, 0
1, 17340, Note_on_c, 0, 66, 0
1, 17340, Note_on_c, 0, 74, 0
1, 17340, Note_on_c, 0, 50, 0
1, 17640, Tempo, 419580
1, 17640, Note_on_c, 0, 67, 60
1, 17640, Note_on_c, 0, 73, 60
1, 17640, Note_on_c, 0, 76, 60
1, 17640, Note_on_c, 0, 52, 55
1, 17640, Note_on_c, 0, 57, 55
1, 17641, Tempo, 417827
1, 17700, Note_on_c, 0, 57, 0
1, 17700, Note_on_c, 0, 76, 0
1, 17700, Note_on_c, 0, 67, 0
1, 17700, Note_on_c, 0, 73, 0
1, 17700, Note_on_c, 0, 52, 0
1, 17760, Note_on_c, 0, 69, 57
1, 17760, Note_on_c, 0, 74, 57
1, 17760, Note_on_c, 0, 54, 55
1, 17760, Note_on_c, 0, 57, 55
1, 18000, Note_on_c, 0, 57, 0
1, 18000, Note_on_c, 0, 69, 0
1, 18000, Note_on_c, 0, 74, 0
1, 18000, Note_on_c, 0, 54, 0
1, 18001, Tempo, 443033
1, 18240, Note_on_c, 0, 66, 59
1, 18240, Note_on_c, 0, 50, 52
1, 18240, Note_on_c, 0, 57, 52
1, 18241, Tempo, 441469
1, 18268, Control_c, 0, 64, 127
1, 18600, Note_on_c, 0, 66, 0
1, 18600, Note_on_c, 0, 71, 50
1, 18601, Tempo, 420669
1, 18659, Note_on_c, 0, 69, 55
1, 18660, Note_on_c, 0, 71, 0
1, 18719, Note_on_c, 0, 69, 0
1, 18720, Note_on_c, 0, 57, 0
1, 18720, Note_on_c, 0, 50, 0
1, 18720, Note_on_c, 0, 61, 65
1, 18720, Note_on_c, 0, 67, 65
1, 18720, Note_on_c, 0, 52, 56
1, 18720, Note_on_c, 0, 57, 56
1, 18721, Tempo, 427869
1, 18739, Control_c, 0, 64, 0
1, 18810, Note_on_c, 0, 57, 0
1, 18810, Note_on_c, 0, 61, 0
1, 18810, Note_on_c, 0, 67, 0
1, 18810, Note_on_c, 0, 52, 0
1, 19080, Tempo, 416667
1, 19080, Note_on_c, 0, 61, 57
1, 19080, Note_on_c, 0, 66, 57
1, 19080, Note_on_c, 0, 51, 53
1, 19080, Note_on_c, 0, 57, 53
1, 19140, Note_on_c, 0, 57, 0
1, 19140, Note_on_c, 0, 61, 0
1, 19140, Note_on_c, 0, 66, 0
1, 19140, Note_on_c, 0, 51, 0
1, 19200, Note_on_c, 0, 61, 60
1, 19200, Note_on_c, 0, 67, 60
1, 19200, Note_on_c, 0, 52, 55
1, 19200, Note_on_c, 0, 57, 55
1, 19440, Tempo, 478698
1, 19440, Note_on_c, 0, 57, 0
1, 19440, Note_on_c, 0, 61, 0
1, 19440, Note_on_c, 0, 67, 0
1, 19440, Note_on_c, 0, 52, 0
1, 19680, Note_on_c, 0, 61, 63
1, 19680, Note_on_c, 0, 71, 63
1, 19680, Note_on_c, 0, 55, 56
1, 19680, Note_on_c, 0, 57, 56
1, 19681, Tempo, 443033
1, 19709, Control_c, 0, 64, 127
1, 20160, Note_on_c, 0, 57, 0
1, 20160, Note_on_c, 0, 61, 0
1, 20160, Note_on_c, 0, 71, 0
1, 20160, Note_on_c, 0, 55, 0
1, 20160, Note_on_c, 0, 62, 63
1, 20160, Note_on_c, 0, 69, 63
1, 20160, Note_on_c, 0, 54, 56
1, 20160, Note_on_c, 0, 57, 56
1, 20161, Tempo, 435319
1, 20183, Control_c, 0, 64, 0
1, 20250, Note_on_c, 0, 57, 0
1, 20250, Note_on_c, 0, 54, 0
1, 20520, Tempo, 421053
1, 20520, Note_on_c, 0, 53, 54
1, 20520, Note_on_c, 0, 57, 54
1, 20580, Note_on_c, 0, 57, 0
1, 20580, Note_on_c, 0, 53, 0
1, 20640, Note_on_c, 0, 54, 58
1, 20640, Note_on_c, 0, 57, 58
1, 20880, Note_on_c, 0, 57, 0
1, 20880, Note_on_c, 0, 54, 0
1, 20881, Tempo, 459313
1, 21120, Note_on_c, 0, 69, 0
1, 21120, Note_on_c, 0, 62, 0
1, 21120, Note_on_c, 0, 74, 60
1, 21120, Note_on_c, 0, 69, 60
1, 21120, Note_on_c, 0, 57, 52
1, 21120, Note_on_c, 0, 54, 52
1, 21121, Tempo, 433808
1, 21360, Note_on_c, 0, 57, 0
1, 21360, Note_on_c, 0, 59, 49
1, 21480, Note_on_c, 0, 74, 0
1, 21480, Note_on_c, 0, 73, 56
1, 21481, Tempo, 446196
1, 21600, Note_on_c, 0, 73, 0
1, 21600, Note_on_c, 0, 59, 0
1, 21600, Note_on_c, 0, 69, 0
1, 21600, Note_on_c, 0, 54, 0
1, 21600, Note_on_c, 0, 73, 60
1, 21600, Note_on_c, 0, 69, 60
1, 21600, Note_on_c, 0, 61, 48
1, 21600, Note_on_c, 0, 52, 48
1, 21840, Note_on_c, 0, 74, 54
1, 21840, Note_on_c, 0, 62, 50
1, 21864, Note_on_c, 0, 61, 0
1, 21864, Note_on_c, 0, 73, 0
1, 22080, Note_on_c, 0, 52, 0
1, 22080, Note_on_c, 0, 76, 57
1, 22080, Note_on_c, 0, 64, 51
1, 22081, Tempo, 435319
1, 22104, Note_on_c, 0, 74, 0
1, 22104, Note_on_c, 0, 62, 0
1, 22320, Note_on_c, 0, 78, 60
1, 22320, Note_on_c, 0, 66, 53
1, 22344, Note_on_c, 0, 64, 0
1, 22344, Note_on_c, 0, 76, 0
1, 22560, Tempo, 538503
1, 22560, Note_on_c, 0, 69, 0
1, 22560, Note_on_c, 0, 78, 0
1, 22560, Note_on_c, 0, 66, 0
1, 22560, Note_on_c, 0, 74, 45
1, 22560, Note_on_c, 0, 78, 62
1, 22560, Note_on_c, 0, 64, 45
1, 22560, Note_on_c, 0, 66, 55
1, 22920, Note_on_c, 0, 66, 0
1, 22920, Note_on_c, 0, 78, 0
1, 22920, Note_on_c, 0, 80, 55
1, 22920, Note_on_c, 0, 68, 48
1, 22921, Tempo, 597788
1, 23040, Note_on_c, 0, 68, 0
1, 23040, Note_on_c, 0, 80, 0
1, 23040, Note_on_c, 0, 80, 51
1, 23040, Control_c, 0, 64, 127
1, 23040, Note_on_c, 0, 68, 45
1, 23041, Tempo, 512033
1, 23520, Note_on_c, 0, 68, 0
1, 23520, Note_on_c, 0, 74, 0
1, 23520, Note_on_c, 0, 64, 0
1, 23520, Note_on_c, 0, 80, 0
1, 23520, Note_on_c, 0, 73, 40
1, 23520, Note_on_c, 0, 81, 46
1, 23520, Note_on_c, 0, 69, 37
1, 23520, Note_on_c, 0, 57, 37
1, 23522, Control_c, 0, 64, 0
1, 23880, Note_on_c, 0, 57, 0
1, 23880, Note_on_c, 0, 73, 0
1, 23880, Note_on_c, 0, 81, 0
1, 23880, Note_on_c, 0, 69, 0
1, 24000, Tempo, 476190
1, 24000, Note_on_c, 0, 72, 41
1, 24000, Note_on_c, 0, 76, 41
1, 24000, Note_on_c, 0, 57, 41
1, 24000, Note_on_c, 0, 64, 41
1, 24240, Tempo, 468750
1, 24240, Note_on_c, 0, 78, 41
1, 24240, Note_on_c, 0, 66, 41
1, 24264, Note_on_c, 0, 64, 0
1, 24264, Note_on_c, 0, 76, 0
1, 24480, Tempo, 478088
1, 24480, Note_on_c, 0, 72, 0
1, 24480, Note_on_c, 0, 57, 0
1, 24480, Note_on_c, 0, 71, 40
1, 24480, Note_on_c, 0, 79, 45
1, 24480, Note_on_c, 0, 59, 40
1, 24480, Note_on_c, 0, 67, 44
1, 24504, Note_on_c, 0, 66, 0
1, 24504, Note_on_c, 0, 78, 0
1, 24720, Tempo, 468750
1, 24720, Note_on_c, 0, 81, 41
1, 24720, Note_on_c, 0, 69, 41
1, 24744, Note_on_c, 0, 79, 0
1, 24744, Note_on_c, 0, 67, 0
1, 24960, Note_on_c, 0, 79, 41
1, 24960, Note_on_c, 0, 67, 41
1, 24984, Note_on_c, 0, 81, 0
1, 24984, Note_on_c, 0, 69, 0
1, 25200, Tempo, 459770
1, 25200, Note_on_c, 0, 78, 41
1, 25200, Note_on_c, 0, 66, 39
1, 25224, Note_on_c, 0, 79, 0
1, 25224, Note_on_c, 0, 67, 0
1, 25440, Tempo, 463320
1, 25440, Note_on_c, 0, 59, 0
1, 25440, Note_on_c, 0, 71, 0
1, 25440, Note_on_c, 0, 75, 40
1, 25440, Note_on_c, 0, 79, 43
1, 25440, Note_on_c, 0, 59, 40
1, 25440, Note_on_c, 0, 67, 41
1, 25464, Note_on_c, 0, 66, 0
1, 25464, Note_on_c, 0, 78, 0
1, 25680, Tempo, 481928
1, 25680, Note_on_c, 0, 78, 45
1, 25680, Note_on_c, 0, 66, 44
1, 25704, Note_on_c, 0, 79, 0
1, 25704, Note_on_c, 0, 67, 0
1, 25920, Tempo, 461538
1, 25920, Note_on_c, 0, 59, 0
1, 25920, Note_on_c, 0, 75, 0
1, 25920, Note_on_c, 0, 72, 47
1, 25920, Note_on_c, 0, 76, 47
1, 25920, Note_on_c, 0, 60, 46
1, 25920, Note_on_c, 0, 64, 46
1, 25944, Note_on_c, 0, 66, 0
1, 25944, Note_on_c, 0, 78, 0
1, 26160, Note_on_c, 0, 59, 43
1, 26184, Note_on_c, 0, 60, 0
1, 26400, Note_on_c, 0, 57, 42
1, 26424, Note_on_c, 0, 59, 0
1, 26640, Note_on_c, 0, 55, 41
1, 26664, Note_on_c, 0, 57, 0
1, 26880, Tempo, 472441
1, 26880, Note_on_c, 0, 72, 0
1, 26880, Note_on_c, 0, 76, 0
1, 26880, Note_on_c, 0, 64, 0
1, 26880, Note_on_c, 0, 55, 0
1, 26880, Note_on_c, 0, 69, 44
1, 26880, Note_on_c, 0, 74, 44
1, 26880, Note_on_c, 0, 55, 44
1, 26880, Note_on_c, 0, 62, 44
1, 27120, Note_on_c, 0, 72, 43
1, 27120, Note_on_c, 0, 54, 43
1, 27144, Note_on_c, 0, 55, 0
1, 27144, Note_on_c, 0, 74, 0
1, 27360, Note_on_c, 0, 69, 0
1, 27360, Note_on_c, 0, 67, 41
1, 27360, Note_on_c, 0, 71, 41
1, 27360, Note_on_c, 0, 55, 43
1, 27384, Note_on_c, 0, 72, 0
1, 27384, Note_on_c, 0, 54, 0
1, 27600, Note_on_c, 0, 54, 42
1, 27624, Note_on_c, 0, 55, 0
1, 27840, Tempo, 489796
1, 27840, Note_on_c, 0, 71, 0
1, 27840, Note_on_c, 0, 62, 0
1, 27840, Note_on_c, 0, 67, 0
1, 27840, Note_on_c, 0, 67, 44
1, 27840, Note_on_c, 0, 72, 44
1, 27840, Note_on_c, 0, 52, 41
1, 27840, Note_on_c, 0, 60, 41
1, 27864, Note_on_c, 0, 54, 0
1, 28080, Note_on_c, 0, 69, 43
1, 28080, Note_on_c, 0, 54, 40
1, 28104, Note_on_c, 0, 52, 0
1, 28104, Note_on_c, 0, 67, 0
1, 28320, Note_on_c, 0, 60, 0
1, 28320, Note_on_c, 0, 72, 0
1, 28320, Note_on_c, 0, 62, 42
1, 28320, Note_on_c, 0, 69, 42
1, 28320, Note_on_c, 0, 71, 42
1, 28320, Note_on_c, 0, 55, 41
1, 28320, Note_on_c, 0, 59, 41
1, 28344, Note_on_c, 0, 54, 0
1, 28344, Note_on_c, 0, 69, 0
1, 28560, Tempo, 506329
1, 28560, Note_on_c, 0, 69, 0
1, 28560, Note_on_c, 0, 67, 41
1, 28560, Note_on_c, 0, 50, 41
1, 28584, Note_on_c, 0, 62, 0
1, 28584, Note_on_c, 0, 55, 0
1, 28800, Tempo, 493827
1, 28800, Note_on_c, 0, 71, 0
1, 28800, Note_on_c, 0, 59, 0
1, 28800, Note_on_c, 0, 50, 0
1, 28800, Note_on_c, 0, 67, 0
1, 28800, Note_on_c, 0, 62, 37
1, 28800, Note_on_c, 0, 67, 37
1, 28800, Note_on_c, 0, 69, 37
1, 28800, Note_on_c, 0, 55, 36
1, 28800, Note_on_c, 0, 50, 36
1, 28800, Note_on_c, 0, 57, 36
1, 28920, Tempo, 495868
1, 29040, Tempo, 497925
1, 29040, Note_on_c, 0, 55, 0
1, 29040, Note_on_c, 0, 62, 0
1, 29040, Note_on_c, 0, 66, 35
1, 29040, Note_on_c, 0, 54, 35
1, 29064, Note_on_c, 0, 67, 0
1, 29160, Tempo, 500000
1, 29280, Tempo, 502092
1, 29280, Note_on_c, 0, 64, 34
1, 29280, Note_on_c, 0, 52, 34
1, 29304, Note_on_c, 0, 66, 0
1, 29304, Note_on_c, 0, 54, 0
1, 29400, Tempo, 504202
1, 29520, Tempo, 506329
1, 29520, Note_on_c, 0, 62, 32
1, 29520, Note_on_c, 0, 50, 32
1, 29544, Note_on_c, 0, 64, 0
1, 29544, Note_on_c, 0, 52, 0
1, 29640, Tempo, 508475
1, 29740, Tempo, 510638
1, 29753, Control_c, 0, 64, 127
1, 29760, Tempo, 446196
1, 29760, Note_on_c, 0, 62, 0
1, 29760, Note_on_c, 0, 50, 0
1, 29760, Note_on_c, 0, 69, 0
1, 29760, Note_on_c, 0, 50, 0
1, 29760, Note_on_c, 0, 62, 42
1, 29760, Note_on_c, 0, 66, 42
1, 29760, Note_on_c, 0, 50, 40
1, 29760, Note_on_c, 0, 57, 40
1, 29856, Note_on_c, 0, 57, 0
1, 30000, Note_on_c, 0, 50, 0
1, 30000, Note_on_c, 0, 62, 0
1, 30000, Note_on_c, 0, 60, 45
1, 30000, Note_on_c, 0, 51, 43
1, 30120, Tempo, 426409
1, 30120, Note_on_c, 0, 66, 0
1, 30120, Note_on_c, 0, 71, 40
1, 30179, Note_on_c, 0, 69, 44
1, 30180, Note_on_c, 0, 71, 0
1, 30180, Note_on_c, 0, 60, 0
1, 30239, Note_on_c, 0, 69, 0
1, 30240, Tempo, 433808
1, 30240, Note_on_c, 0, 57, 0
1, 30240, Note_on_c, 0, 51, 0
1, 30240, Note_on_c, 0, 61, 49
1, 30240, Note_on_c, 0, 67, 49
1, 30240, Note_on_c, 0, 52, 44
1, 30240, Note_on_c, 0, 57, 44
1, 30253, Control_c, 0, 64, 0
1, 30300, Note_on_c, 0, 57, 0
1, 30300, Note_on_c, 0, 61, 0
1, 30300, Note_on_c, 0, 67, 0
1, 30300, Note_on_c, 0, 52, 0
1, 30600, Tempo, 421053
1, 30600, Note_on_c, 0, 61, 44
1, 30600, Note_on_c, 0, 66, 44
1, 30600, Note_on_c, 0, 51, 38
1, 30600, Note_on_c, 0, 57, 38
1, 30660, Note_on_c, 0, 57, 0
1, 30660, Note_on_c, 0, 61, 0
1, 30660, Note_on_c, 0, 66, 0
1, 30660, Note_on_c, 0, 51, 0
1, 30720, Note_on_c, 0, 61, 47
1, 30720, Note_on_c, 0, 67, 47
1, 30720, Note_on_c, 0, 52, 40
1, 30720, Note_on_c, 0, 57, 40
1, 30960, Tempo, 471439
1, 30960, Note_on_c, 0, 57, 0
1, 30960, Note_on_c, 0, 61, 0
1, 30960, Note_on_c, 0, 67, 0
1, 30960, Note_on_c, 0, 52, 0
1, 31200, Tempo, 441469
1, 31200, Note_on_c, 0, 61, 49
1, 31200, Note_on_c, 0, 71, 49
1, 31200, Note_on_c, 0, 55, 44
1, 31200, Note_on_c, 0, 57, 44
1, 31223, Control_c, 0, 64, 127
1, 31680, Tempo, 435319
1, 31680, Note_on_c, 0, 57, 0
1, 31680, Note_on_c, 0, 61, 0
1, 31680, Note_on_c, 0, 71, 0
1, 31680, Note_on_c, 0, 55, 0
1, 31680, Note_on_c, 0, 62, 51
1, 31680, Note_on_c, 0, 69, 51
1, 31680, Note_on_c, 0, 54, 44
1, 31680, Note_on_c, 0, 57, 44
1, 31700, Control_c, 0, 64, 0
1, 31740, Note_on_c, 0, 57, 0
1, 31740, Note_on_c, 0, 54, 0
1, 32020, Tempo, 423519
1, 32040, Tempo, 421053
1, 32040, Note_on_c, 0, 53, 39
1, 32040, Note_on_c, 0, 57, 39
1, 32100, Note_on_c, 0, 57, 0
1, 32100, Note_on_c, 0, 53, 0
1, 32160, Note_on_c, 0, 54, 43
1, 32160, Note_on_c, 0, 57, 43
1, 32400, Tempo, 443033
1, 32400, Note_on_c, 0, 57, 0
1, 32400, Note_on_c, 0, 54, 0
1, 32640, Tempo, 441469
1, 32640, Note_on_c, 0, 69, 0
1, 32640, Note_on_c, 0, 62, 0
1, 32640, Note_on_c, 0, 69, 51
1, 32640, Note_on_c, 0, 74, 51
1, 32640, Note_on_c, 0, 54, 44
1, 32640, Note_on_c, 0, 57, 44
1, 32669, Control_c, 0, 64, 127
1, 33120, Tempo, 433808
1, 33120, Note_on_c, 0, 57, 0
1, 33120, Note_on_c, 0, 69, 0
1, 33120, Note_on_c, 0, 74, 0
1, 33120, Note_on_c, 0, 54, 0
1, 33120, Note_on_c, 0, 67, 51
1, 33120, Note_on_c, 0, 73, 51
1, 33120, Note_on_c, 0, 52, 44
1, 33120, Note_on_c, 0, 57, 44
1, 33140, Control_c, 0, 64, 0
1, 33180, Note_on_c, 0, 57, 0
1, 33180, Note_on_c, 0, 67, 0
1, 33180, Note_on_c, 0, 73, 0
1, 33180, Note_on_c, 0, 52, 0
1, 33480, Tempo, 421053
1, 33480, Note_on_c, 0, 66, 45
1, 33480, Note_on_c, 0, 71, 45
1, 33480, Note_on_c, 0, 50, 40
1, 33480, Note_on_c, 0, 57, 40
1, 33540, Note_on_c, 0, 57, 0
1, 33540, Note_on_c, 0, 66, 0
1, 33540, Note_on_c, 0, 71, 0
1, 33540, Note_on_c, 0, 50, 0
1, 33600, Note_on_c, 0, 64, 49
1, 33600, Note_on_c, 0, 69, 49
1, 33600, Note_on_c, 0, 49, 44
1, 33600, Note_on_c, 0, 57, 44
1, 33840, Tempo, 482393
1, 33840, Note_on_c, 0, 57, 0
1, 33840, Note_on_c, 0, 64, 0
1, 33840, Note_on_c, 0, 69, 0
1, 33840, Note_on_c, 0, 49, 0
1, 34080, Tempo, 446196
1, 34080, Note_on_c, 0, 67, 53
1, 34080, Note_on_c, 0, 69, 53
1, 34080, Note_on_c, 0, 79, 53
1, 34080, Control_c, 0, 64, 127
1, 34080, Note_on_c, 0, 45, 48
1, 34080, Note_on_c, 0, 57, 48
1, 34320, Note_on_c, 0, 45, 0
1, 34320, Note_on_c, 0, 49, 48
1, 34560, Tempo, 435319
1, 34560, Note_on_c, 0, 49, 0
1, 34560, Note_on_c, 0, 57, 0
1, 34560, Note_on_c, 0, 67, 0
1, 34560, Note_on_c, 0, 69, 0
1, 34560, Note_on_c, 0, 79, 0
1, 34560, Note_on_c, 0, 66, 53
1, 34560, Note_on_c, 0, 74, 53
1, 34560, Note_on_c, 0, 78, 53
1, 34560, Note_on_c, 0, 50, 46
1, 34560, Note_on_c, 0, 57, 46
1, 34579, Control_c, 0, 64, 0
1, 34620, Note_on_c, 0, 57, 0
1, 34620, Note_on_c, 0, 78, 0
1, 34620, Note_on_c, 0, 66, 0
1, 34620, Note_on_c, 0, 74, 0
1, 34620, Note_on_c, 0, 50, 0
1, 34920, Tempo, 421053
1, 34920, Note_on_c, 0, 67, 48
1, 34920, Note_on_c, 0, 73, 48
1, 34920, Note_on_c, 0, 76, 48
1, 34920, Note_on_c, 0, 52, 41
1, 34920, Note_on_c, 0, 57, 41
1, 34980, Note_on_c, 0, 57, 0
1, 34980, Note_on_c, 0, 76, 0
1, 34980, Note_on_c, 0, 67, 0
1, 34980, Note_on_c, 0, 73, 0
1, 34980, Note_on_c, 0, 52, 0
1, 35040, Note_on_c, 0, 69, 45
1, 35040, Note_on_c, 0, 74, 45
1, 35040, Note_on_c, 0, 54, 41
1, 35040, Note_on_c, 0, 57, 41
1, 35280, Tempo, 443033
1, 35280, Note_on_c, 0, 57, 0
1, 35280, Note_on_c, 0, 69, 0
1, 35280, Note_on_c, 0, 74, 0
1, 35280, Note_on_c, 0, 54, 0
1, 35520, Tempo, 441469
1, 35520, Note_on_c, 0, 66, 56
1, 35520, Note_on_c, 0, 50, 55
1, 35520, Note_on_c, 0, 57, 55
1, 35541, Control_c, 0, 64, 127
1, 35880, Tempo, 420669
1, 35880, Note_on_c, 0, 66, 0
1, 35880, Note_on_c, 0, 71, 50
1, 35939, Note_on_c, 0, 69, 55
1, 35940, Note_on_c, 0, 71, 0
1, 35999, Note_on_c, 0, 69, 0
1, 36000, Tempo, 427869
1, 36000, Note_on_c, 0, 57, 0
1, 36000, Note_on_c, 0, 50, 0
1, 36000, Note_on_c, 0, 61, 61
1, 36000, Note_on_c, 0, 67, 61
1, 36000, Note_on_c, 0, 52, 56
1, 36000, Note_on_c, 0, 57, 56
1, 36017, Control_c, 0, 64, 0
1, 36090, Note_on_c, 0, 57, 0
1, 36090, Note_on_c, 0, 61, 0
1, 36090, Note_on_c, 0, 67, 0
1, 36090, Note_on_c, 0, 52, 0
1, 36360, Tempo, 416667
1, 36360, Note_on_c, 0, 61, 56
1, 36360, Note_on_c, 0, 66, 56
1, 36360, Note_on_c, 0, 51, 47
1, 36360, Note_on_c, 0, 57, 47
1, 36420, Note_on_c, 0, 57, 0
1, 36420, Note_on_c, 0, 61, 0
1, 36420, Note_on_c, 0, 66, 0
1, 36420, Note_on_c, 0, 51, 0
1, 36480, Note_on_c, 0, 61, 59
1, 36480, Note_on_c, 0, 67, 59
1, 36480, Note_on_c, 0, 52, 50
1, 36480, Note_on_c, 0, 57, 50
1, 36720, Tempo, 473223
1, 36720, Note_on_c, 0, 57, 0
1, 36720, Note_on_c, 0, 61, 0
1, 36720, Note_on_c, 0, 67, 0
1, 36720, Note_on_c, 0, 52, 0
1, 36960, Tempo, 433808
1, 36960, Note_on_c, 0, 71, 60
1, 36960, Note_on_c, 0, 61, 60
1, 36960, Note_on_c, 0, 57, 52
1, 36960, Note_on_c, 0, 55, 52
1, 36971, Control_c, 0, 64, 127
1, 37320, Tempo, 466926
1, 37320, Note_on_c, 0, 71, 0
1, 37320, Note_on_c, 0, 69, 56
1, 37440, Tempo, 487805
1, 37440, Note_on_c, 0, 69, 0
1, 37440, Note_on_c, 0, 55, 0
1, 37440, Note_on_c, 0, 57, 0
1, 37440, Note_on_c, 0, 61, 0
1, 37440, Note_on_c, 0, 69, 60
1, 37440, Note_on_c, 0, 62, 60
1, 37440, Control_c, 0, 64, 0
1, 37440, Note_on_c, 0, 57, 45
1, 37440, Note_on_c, 0, 54, 45
1, 37680, Tempo, 461538
1, 37680, Note_on_c, 0, 71, 52
1, 37680, Note_on_c, 0, 59, 45
1, 37704, Note_on_c, 0, 57, 0
1, 37704, Note_on_c, 0, 69, 0
1, 37920, Tempo, 436364
1, 37920, Note_on_c, 0, 62, 0
1, 37920, Note_on_c, 0, 73, 54
1, 37920, Note_on_c, 0, 61, 46
1, 37944, Note_on_c, 0, 71, 0
1, 37944, Note_on_c, 0, 59, 0
1, 38160, Tempo, 459770
1, 38160, Note_on_c, 0, 74, 55
1, 38160, Note_on_c, 0, 62, 47
1, 38184, Note_on_c, 0, 61, 0
1, 38184, Note_on_c, 0, 73, 0
1, 38400, Tempo, 493827
1, 38400, Note_on_c, 0, 54, 0
1, 38400, Note_on_c, 0, 74, 0
1, 38400, Note_on_c, 0, 62, 0
1, 38400, Note_on_c, 0, 71, 57
1, 38400, Note_on_c, 0, 74, 57
1, 38400, Note_on_c, 0, 55, 48
1, 38400, Note_on_c, 0, 62, 48
1, 38640, Tempo, 506329
1, 38640, Note_on_c, 0, 76, 59
1, 38640, Note_on_c, 0, 64, 49
1, 38664, Note_on_c, 0, 62, 0
1, 38664, Note_on_c, 0, 74, 0
1, 38880, Tempo, 480000
1, 38880, Note_on_c, 0, 71, 0
1, 38880, Note_on_c, 0, 55, 0
1, 38880, Note_on_c, 0, 69, 61
1, 38880, Note_on_c, 0, 78, 61
1, 38880, Note_on_c, 0, 57, 50
1, 38880, Note_on_c, 0, 66, 50
1, 38904, Note_on_c, 0, 64, 0
1, 38904, Note_on_c, 0, 76, 0
1, 39120, Note_on_c, 0, 67, 47
1, 39144, Note_on_c, 0, 66, 0
1, 39360, Note_on_c, 0, 69, 0
1, 39360, Note_on_c, 0, 69, 52
1, 39384, Note_on_c, 0, 67, 0
1, 39560, Tempo, 508475
1, 39600, Tempo, 526316
1, 39600, Note_on_c, 0, 71, 51
1, 39624, Note_on_c, 0, 69, 0
1, 39840, Tempo, 550459
1, 39840, Note_on_c, 0, 78, 0
1, 39840, Note_on_c, 0, 71, 0
1, 39840, Note_on_c, 0, 71, 48
1, 39840, Note_on_c, 0, 76, 48
1, 39840, Note_on_c, 0, 67, 41
1, 40080, Tempo, 615385
1, 40080, Note_on_c, 0, 73, 48
1, 40104, Note_on_c, 0, 71, 0
1, 40320, Tempo, 655738
1, 40320, Note_on_c, 0, 57, 0
1, 40320, Note_on_c, 0, 73, 46
1, 40320, Note_on_c, 0, 62, 43
1, 40344, Note_on_c, 0, 73, 0
1, 40440, Control_c, 0, 64, 127
1, 40800, Note_on_c, 0, 73, 0
1, 40800, Note_on_c, 0, 67, 0
1, 40800, Note_on_c, 0, 76, 0
1, 40800, Note_on_c, 0, 74, 38
1, 40800, Note_on_c, 0, 66, 35
1, 40821, Control_c, 0, 64, 0
1, 41160, Note_on_c, 0, 66, 0
1, 41160, Note_on_c, 0, 74, 0
1, 41280, Tempo, 480000
1, 41280, Note_on_c, 0, 62, 0
1, 41280, Note_on_c, 0, 72, 41
1, 41280, Note_on_c, 0, 76, 41
1, 41280, Note_on_c, 0, 57, 41
1, 41280, Note_on_c, 0, 64, 41
1, 41520, Tempo, 470588
1, 41520, Note_on_c, 0, 78, 41
1, 41520, Note_on_c, 0, 66, 41
1, 41544, Note_on_c, 0, 64, 0
1, 41544, Note_on_c, 0, 76, 0
1, 41760, Tempo, 478088
1, 41760, Note_on_c, 0, 72, 0
1, 41760, Note_on_c, 0, 57, 0
1, 41760, Note_on_c, 0, 71, 40
1, 41760, Note_on_c, 0, 79, 45
1, 41760, Note_on_c, 0, 59, 40
1, 41760, Note_on_c, 0, 67, 44
1, 41784, Note_on_c, 0, 66, 0
1, 41784, Note_on_c, 0, 78, 0
1, 42000, Tempo, 468750
1, 42000, Note_on_c, 0, 81, 41
1, 42000, Note_on_c, 0, 69, 41
1, 42024, Note_on_c, 0, 79, 0
1, 42024, Note_on_c, 0, 67, 0
1, 42240, Tempo, 466926
1, 42240, Note_on_c, 0, 79, 41
1, 42240, Note_on_c, 0, 67, 41
1, 42264, Note_on_c, 0, 81, 0
1, 42264, Note_on_c, 0, 69, 0
1, 42480, Tempo, 459770
1, 42480, Note_on_c, 0, 78, 41
1, 42480, Note_on_c, 0, 66, 39
1, 42504, Note_on_c, 0, 79, 0
1, 42504, Note_on_c, 0, 67, 0
1, 42720, Tempo, 470588
1, 42720, Note_on_c, 0, 59, 0
1, 42720, Note_on_c, 0, 71, 0
1, 42720, Note_on_c, 0, 75, 40
1, 42720, Note_on_c, 0, 79, 43
1, 42720, Note_on_c, 0, 59, 40
1, 42720, Note_on_c, 0, 67, 41
1, 42744, Note_on_c, 0, 66, 0
1, 42744, Note_on_c, 0, 78, 0
1, 42960, Tempo, 481928
1, 42960, Note_on_c, 0, 78, 45
1, 42960, Note_on_c, 0, 66, 44
1, 42984, Note_on_c, 0, 79, 0
1, 42984, Note_on_c, 0, 67, 0
1, 43200, Tempo, 461538
1, 43200, Note_on_c, 0, 59, 0
1, 43200, Note_on_c, 0, 75, 0
1, 43200, Note_on_c, 0, 72, 47
1, 43200, Note_on_c, 0, 76, 47
1, 43200, Note_on_c, 0, 60, 46
1, 43200, Note_on_c, 0, 64, 46
1, 43224, Note_on_c, 0, 66, 0
1, 43224, Note_on_c, 0, 78, 0
1, 43440, Note_on_c, 0, 59, 43
1, 43464, Note_on_c, 0, 60, 0
1, 43680, Note_on_c, 0, 57, 42
1, 43704, Note_on_c, 0, 59, 0
1, 43920, Note_on_c, 0, 55, 41
1, 43944, Note_on_c, 0, 57, 0
1, 44160, Tempo, 472441
1, 44160, Note_on_c, 0, 72, 0
1, 44160, Note_on_c, 0, 76, 0
1, 44160, Note_on_c, 0, 64, 0
1, 44160, Note_on_c, 0, 55, 0
1, 44160, Note_on_c, 0, 69, 44
1, 44160, Note_on_c, 0, 74, 44
1, 44160, Note_on_c, 0, 55, 44
1, 44160, Note_on_c, 0, 62, 44
1, 44400, Note_on_c, 0, 72, 43
1, 44400, Note_on_c, 0, 54, 43
1, 44424, Note_on_c, 0, 55, 0
1, 44424, Note_on_c, 0, 74, 0
1, 44640, Note_on_c, 0, 69, 0
1, 44640, Note_on_c, 0, 67, 41
1, 44640, Note_on_c, 0, 71, 41
1, 44640, Note_on_c, 0, 55, 43
1, 44664, Note_on_c, 0, 72, 0
1, 44664, Note_on_c, 0, 54, 0
1, 44880, Note_on_c, 0, 54, 42
1, 44904, Note_on_c, 0, 55, 0
1, 45120, Tempo, 489796
1, 45120, Note_on_c, 0, 71, 0
1, 45120, Note_on_c, 0, 62, 0
1, 45120, Note_on_c, 0, 67, 0
1, 45120, Note_on_c, 0, 67, 44
1, 45120, Note_on_c, 0, 72, 44
1, 45120, Note_on_c, 0, 52, 41
1, 45120, Note_on_c, 0, 60, 41
1, 45144, Note_on_c, 0, 54, 0
1, 45360, Note_on_c, 0, 69, 43
1, 45360, Note_on_c, 0, 54, 40
1, 45384, Note_on_c, 0, 52, 0
1, 45384, Note_on_c, 0, 67, 0
1, 45600, Note_on_c, 0, 69, 0
1, 45600, Note_on_c, 0, 60, 0
1, 45600, Note_on_c, 0, 72, 0
1, 45600, Note_on_c, 0, 62, 42
1, 45600, Note_on_c, 0, 69, 42
1, 45600, Note_on_c, 0, 71, 42
1, 45600, Note_on_c, 0, 55, 41
1, 45600, Note_on_c, 0, 59, 41
1, 45624, Note_on_c, 0, 54, 0
1, 45840, Tempo, 506329
1, 45840, Note_on_c, 0, 62, 0
1, 45840, Note_on_c, 0, 69, 0
1, 45840, Note_on_c, 0, 67, 41
1, 45840, Note_on_c, 0, 50, 41
1, 45864, Note_on_c, 0, 55, 0
1, 46080, Tempo, 493827
1, 46080, Note_on_c, 0, 67, 0
1, 46080, Note_on_c, 0, 71, 0
1, 46080, Note_on_c, 0, 59, 0
1, 46080, Note_on_c, 0, 50, 0
1, 46080, Note_on_c, 0, 62, 37
1, 46080, Note_on_c, 0, 67, 37
1, 46080, Note_on_c, 0, 69, 37
1, 46080, Note_on_c, 0, 55, 36
1, 46080, Note_on_c, 0, 50, 36
1, 46080, Note_on_c, 0, 57, 36
1, 46200, Tempo, 495868
1, 46320, Tempo, 497925
1, 46320, Note_on_c, 0, 55, 0
1, 46320, Note_on_c, 0, 62, 0
1, 46320, Note_on_c, 0, 66, 35
1, 46320, Note_on_c, 0, 54, 35
1, 46344, Note_on_c, 0, 67, 0
1, 46440, Tempo, 500000
1, 46560, Tempo, 502092
1, 46560, Note_on_c, 0, 64, 34
1, 46560, Note_on_c, 0, 52, 34
1, 46584, Note_on_c, 0, 66, 0
1, 46584, Note_on_c, 0, 54, 0
1, 46680, Tempo, 504202
1, 46800, Tempo, 506329
1, 46800, Note_on_c, 0, 62, 32
1, 46800, Note_on_c, 0, 50, 32
1, 46824, Note_on_c, 0, 64, 0
1, 46824, Note_on_c, 0, 52, 0
1, 46920, Tempo, 508475
1, 47020, Tempo, 510638
1, 47040, Tempo, 446196
1, 47040, Note_on_c, 0, 62, 0
1, 47040, Note_on_c, 0, 50, 0
1, 47040, Note_on_c, 0, 69, 0
1, 47040, Note_on_c, 0, 50, 0
1, 47040, Note_on_c, 0, 62, 42
1, 47040, Note_on_c, 0, 66, 42
1, 47040, Note_on_c, 0, 50, 40
1, 47040, Note_on_c, 0, 57, 40
1, 47054, Control_c, 0, 64, 127
1, 47136, Note_on_c, 0, 57, 0
1, 47280, Note_on_c, 0, 50, 0
1, 47280, Note_on_c, 0, 62, 0
1, 47280, Note_on_c, 0, 60, 45
1, 47280, Note_on_c, 0, 51, 43
1, 47400, Tempo, 426409
1, 47400, Note_on_c, 0, 66, 0
1, 47400, Note_on_c, 0, 71, 40
1, 47459, Note_on_c, 0, 69, 44
1, 47460, Note_on_c, 0, 71, 0
1, 47460, Note_on_c, 0, 60, 0
1, 47519, Note_on_c, 0, 69, 0
1, 47520, Tempo, 433808
1, 47520, Note_on_c, 0, 57, 0
1, 47520, Note_on_c, 0, 51, 0
1, 47520, Note_on_c, 0, 61, 49
1, 47520, Note_on_c, 0, 67, 49
1, 47520, Note_on_c, 0, 52, 44
1, 47520, Note_on_c, 0, 57, 44
1, 47532, Control_c, 0, 64, 0
1, 47580, Note_on_c, 0, 57, 0
1, 47580, Note_on_c, 0, 61, 0
1, 47580, Note_on_c, 0, 67, 0
1, 47580, Note_on_c, 0, 52, 0
1, 47880, Tempo, 419580
1, 47880, Note_on_c, 0, 61, 47
1, 47880, Note_on_c, 0, 66, 47
1, 47880, Note_on_c, 0, 51, 39
1, 47880, Note_on_c, 0, 57, 39
1, 47940, Note_on_c, 0, 57, 0
1, 47940, Note_on_c, 0, 61, 0
1, 47940, Note_on_c, 0, 66, 0
1, 47940, Note_on_c, 0, 51, 0
1, 48000, Note_on_c, 0, 61, 50
1, 48000, Note_on_c, 0, 67, 50
1, 48000, Note_on_c, 0, 52, 43
1, 48000, Note_on_c, 0, 57, 43
1, 48240, Tempo, 471439
1, 48240, Note_on_c, 0, 57, 0
1, 48240, Note_on_c, 0, 61, 0
1, 48240, Note_on_c, 0, 67, 0
1, 48240, Note_on_c, 0, 52, 0
1, 48480, Tempo, 441469
1, 48480, Note_on_c, 0, 61, 49
1, 48480, Note_on_c, 0, 71, 49
1, 48480, Note_on_c, 0, 55, 44
1, 48480, Note_on_c, 0, 57, 44
1, 48520, Control_c, 0, 64, 127
1, 48960, Tempo, 435319
1, 48960, Note_on_c, 0, 57, 0
1, 48960, Note_on_c, 0, 61, 0
1, 48960, Note_on_c, 0, 71, 0
1, 48960, Note_on_c, 0, 55, 0
1, 48960, Note_on_c, 0, 62, 51
1, 48960, Note_on_c, 0, 69, 51
1, 48960, Note_on_c, 0, 54, 44
1, 48960, Note_on_c, 0, 57, 44
1, 48973, Control_c, 0, 64, 0
1, 49020, Note_on_c, 0, 57, 0
1, 49020, Note_on_c, 0, 54, 0
1, 49300, Tempo, 423519
1, 49320, Tempo, 419580
1, 49320, Note_on_c, 0, 53, 38
1, 49320, Note_on_c, 0, 57, 38
1, 49380, Note_on_c, 0, 57, 0
1, 49380, Note_on_c, 0, 53, 0
1, 49440, Note_on_c, 0, 54, 43
1, 49440, Note_on_c, 0, 57, 43
1, 49680, Tempo, 443033
1, 49680, Note_on_c, 0, 57, 0
1, 49680, Note_on_c, 0, 54, 0
1, 49920, Tempo, 441469
1, 49920, Note_on_c, 0, 69, 0
1, 49920, Note_on_c, 0, 62, 0
1, 49920, Note_on_c, 0, 69, 51
1, 49920, Note_on_c, 0, 74, 51
1, 49920, Note_on_c, 0, 54, 44
1, 49920, Note_on_c, 0, 57, 44
1, 49931, Control_c, 0, 64, 127
1, 50400, Tempo, 433808
1, 50400, Note_on_c, 0, 57, 0
1, 50400, Note_on_c, 0, 69, 0
1, 50400, Note_on_c, 0, 74, 0
1, 50400, Note_on_c, 0, 54, 0
1, 50400, Note_on_c, 0, 67, 51
1, 50400, Note_on_c, 0, 73, 51
1, 50400, Note_on_c, 0, 52, 44
1, 50400, Note_on_c, 0, 57, 44
1, 50412, Control_c, 0, 64, 0
1, 50460, Note_on_c, 0, 57, 0
1, 50460, Note_on_c, 0, 67, 0
1, 50460, Note_on_c, 0, 73, 0
1, 50460, Note_on_c, 0, 52, 0
1, 50760, Tempo, 420669
1, 50760, Note_on_c, 0, 66, 47
1, 50760, Note_on_c, 0, 71, 47
1, 50760, Note_on_c, 0, 50, 41
1, 50760, Note_on_c, 0, 57, 41
1, 50820, Note_on_c, 0, 57, 0
1, 50820, Note_on_c, 0, 66, 0
1, 50820, Note_on_c, 0, 71, 0
1, 50820, Note_on_c, 0, 50, 0
1, 50880, Note_on_c, 0, 64, 50
1, 50880, Note_on_c, 0, 69, 50
1, 50880, Note_on_c, 0, 49, 44
1, 50880, Note_on_c, 0, 57, 44
1, 51120, Tempo, 482393
1, 51120, Note_on_c, 0, 57, 0
1, 51120, Note_on_c, 0, 64, 0
1, 51120, Note_on_c, 0, 69, 0
1, 51120, Note_on_c, 0, 49, 0
1, 51360, Tempo, 446196
1, 51360, Note_on_c, 0, 67, 53
1, 51360, Note_on_c, 0, 69, 53
1, 51360, Note_on_c, 0, 79, 53
1, 51360, Note_on_c, 0, 45, 48
1, 51360, Note_on_c, 0, 57, 48
1, 51381, Control_c, 0, 64, 127
1, 51600, Note_on_c, 0, 45, 0
1, 51600, Note_on_c, 0, 49, 48
1, 51840, Tempo, 435319
1, 51840, Note_on_c, 0, 49, 0
1, 51840, Note_on_c, 0, 57, 0
1, 51840, Note_on_c, 0, 67, 0
1, 51840, Note_on_c, 0, 69, 0
1, 51840, Note_on_c, 0, 79, 0
1, 51840, Note_on_c, 0, 66, 53
1, 51840, Note_on_c, 0, 74, 53
1, 51840, Note_on_c, 0, 78, 53
1, 51840, Note_on_c, 0, 50, 46
1, 51840, Note_on_c, 0, 57, 46
1, 51856, Control_c, 0, 64, 0
1, 51900, Note_on_c, 0, 57, 0
1, 51900, Note_on_c, 0, 78, 0
1, 51900, Note_on_c, 0, 66, 0
1, 51900, Note_on_c, 0, 74, 0
1, 51900, Note_on_c, 0, 50, 0
1, 52200, Tempo, 424028
1, 52200, Note_on_c, 0, 67, 49
1, 52200, Note_on_c, 0, 73, 49
1, 52200, Note_on_c, 0, 76, 49
1, 52200, Note_on_c, 0, 52, 42
1, 52200, Note_on_c, 0, 57, 42
1, 52260, Note_on_c, 0, 57, 0
1, 52260, Note_on_c, 0, 76, 0
1, 52260, Note_on_c, 0, 67, 0
1, 52260, Note_on_c, 0, 73, 0
1, 52260, Note_on_c, 0, 52, 0
1, 52320, Note_on_c, 0, 69, 48
1, 52320, Note_on_c, 0, 74, 48
1, 52320, Note_on_c, 0, 54, 42
1, 52320, Note_on_c, 0, 57, 42
1, 52560, Tempo, 443033
1, 52560, Note_on_c, 0, 57, 0
1, 52560, Note_on_c, 0, 69, 0
1, 52560, Note_on_c, 0, 74, 0
1, 52560, Note_on_c, 0, 54, 0
1, 52800, Tempo, 441469
1, 52800, Note_on_c, 0, 66, 56
1, 52800, Note_on_c, 0, 50, 55
1, 52800, Note_on_c, 0, 57, 55
1, 52821, Control_c, 0, 64, 127
1, 53160, Tempo, 420669
1, 53160, Note_on_c, 0, 66, 0
1, 53160, Note_on_c, 0, 71, 50
1, 53219, Note_on_c, 0, 69, 55
1, 53220, Note_on_c, 0, 71, 0
1, 53279, Note_on_c, 0, 69, 0
1, 53280, Tempo, 427869
1, 53280, Note_on_c, 0, 57, 0
1, 53280, Note_on_c, 0, 50, 0
1, 53280, Note_on_c, 0, 61, 61
1, 53280, Note_on_c, 0, 67, 61
1, 53280, Note_on_c, 0, 52, 56
1, 53280, Note_on_c, 0, 57, 56
1, 53297, Control_c, 0, 64, 0
1, 53370, Note_on_c, 0, 57, 0
1, 53370, Note_on_c, 0, 61, 0
1, 53370, Note_on_c, 0, 67, 0
1, 53370, Note_on_c, 0, 52, 0
1, 53640, Tempo, 415225
1, 53640, Note_on_c, 0, 61, 53
1, 53640, Note_on_c, 0, 66, 53
1, 53640, Note_on_c, 0, 51, 47
1, 53640, Note_on_c, 0, 57, 47
1, 53700, Note_on_c, 0, 57, 0
1, 53700, Note_on_c, 0, 61, 0
1, 53700, Note_on_c, 0, 66, 0
1, 53700, Note_on_c, 0, 51, 0
1, 53760, Note_on_c, 0, 61, 57
1, 53760, Note_on_c, 0, 67, 57
1, 53760, Note_on_c, 0, 52, 52
1, 53760, Note_on_c, 0, 57, 52
1, 54000, Tempo, 473223
1, 54000, Note_on_c, 0, 57, 0
1, 54000, Note_on_c, 0, 61, 0
1, 54000, Note_on_c, 0, 67, 0
1, 54000, Note_on_c, 0, 52, 0
1, 54240, Tempo, 433808
1, 54240, Note_on_c, 0, 71, 60
1, 54240, Note_on_c, 0, 61, 60
1, 54240, Note_on_c, 0, 57, 52
1, 54240, Note_on_c, 0, 55, 52
1, 54600, Tempo, 466926
1, 54600, Note_on_c, 0, 71, 0
1, 54600, Note_on_c, 0, 69, 56
1, 54720, Tempo, 487805
1, 54720, Note_on_c, 0, 69, 0
1, 54720, Note_on_c, 0, 55, 0
1, 54720, Note_on_c, 0, 57, 0
1, 54720, Note_on_c, 0, 61, 0
1, 54720, Note_on_c, 0, 69, 60
1, 54720, Note_on_c, 0, 62, 60
1, 54720, Note_on_c, 0, 57, 45
1, 54720, Note_on_c, 0, 54, 45
1, 54960, Tempo, 461538
1, 54960, Note_on_c, 0, 71, 52
1, 54960, Note_on_c, 0, 59, 45
1, 54984, Note_on_c, 0, 57, 0
1, 54984, Note_on_c, 0, 69, 0
1, 55200, Tempo, 436364
1, 55200, Note_on_c, 0, 62, 0
1, 55200, Note_on_c, 0, 73, 54
1, 55200, Note_on_c, 0, 61, 46
1, 55224, Note_on_c, 0, 71, 0
1, 55224, Note_on_c, 0, 59, 0
1, 55440, Tempo, 459770
1, 55440, Note_on_c, 0, 74, 55
1, 55440, Note_on_c, 0, 62, 47
1, 55464, Note_on_c, 0, 61, 0
1, 55464, Note_on_c, 0, 73, 0
1, 55680, Tempo, 510638
1, 55680, Note_on_c, 0, 54, 0
1, 55680, Note_on_c, 0, 74, 0
1, 55680, Note_on_c, 0, 62, 0
1, 55680, Note_on_c, 0, 71, 57
1, 55680, Note_on_c, 0, 74, 57
1, 55680, Note_on_c, 0, 55, 48
1, 55680, Note_on_c, 0, 62, 48
1, 55920, Tempo, 519481
1, 55920, Note_on_c, 0, 76, 59
1, 55920, Note_on_c, 0, 64, 49
1, 55944, Note_on_c, 0, 62, 0
1, 55944, Note_on_c, 0, 74, 0
1, 56160, Tempo, 502092
1, 56160, Note_on_c, 0, 71, 0
1, 56160, Note_on_c, 0, 55, 0
1, 56160, Note_on_c, 0, 69, 61
1, 56160, Note_on_c, 0, 78, 61
1, 56160, Note_on_c, 0, 57, 50
1, 56160, Note_on_c, 0, 66, 50
1, 56184, Note_on_c, 0, 64, 0
1, 56184, Note_on_c, 0, 76, 0
1, 56400, Tempo, 504202
1, 56400, Note_on_c, 0, 67, 47
1, 56424, Note_on_c, 0, 66, 0
1, 56620, Tempo, 506329
1, 56640, Note_on_c, 0, 69, 0
1, 56640, Note_on_c, 0, 69, 52
1, 56664, Note_on_c, 0, 67, 0
1, 56840, Tempo, 508475
1, 56880, Tempo, 558140
1, 56880, Note_on_c, 0, 71, 51
1, 56904, Note_on_c, 0, 69, 0
1, 57120, Tempo, 612245
1, 57120, Note_on_c, 0, 78, 0
1, 57120, Note_on_c, 0, 71, 0
1, 57120, Note_on_c, 0, 71, 48
1, 57120, Note_on_c, 0, 76, 48
1, 57120, Note_on_c, 0, 67, 41
1, 57360, Tempo, 689655
1, 57360, Note_on_c, 0, 73, 48
1, 57384, Note_on_c, 0, 71, 0
1, 57600, Note_on_c, 0, 57, 0
1, 57600, Note_on_c, 0, 73, 46
1, 57600, Note_on_c, 0, 62, 43
1, 57624, Note_on_c, 0, 73, 0
1, 57720, Control_c, 0, 64, 127
1, 58053, Control_c, 0, 64, 0
1, 58080, Note_on_c, 0, 73, 0
1, 58080, Note_on_c, 0, 67, 0
1, 58080, Note_on_c, 0, 76, 0
1, 58080, Note_on_c, 0, 74, 38
1, 58080, Note_on_c, 0, 66, 35
1, 58560, Marker_t, "Fine"
1, 58560, Note_on_c, 0, 66, 0
1, 58560, Note_on_c, 0, 74, 0
1, 58560, Note_on_c, 0, 62, 0
1, 58560, End_track
0, 0, End_of_file
