0, 0, Header, 0, 1, 480
1, 0, Start_track
1, 0, Title_t, "Kinderszenen Opus 15"
1, 0, Title_t, "Ritter vom Steckenpferd"
1, 0, Copyright_t, "Copyright © 1997 von Bernd Krüger."
1, 0, Text_t, "Robert Schumann"
1, 0, Text_t, "Fertiggestellt am 19.12.97\012"
1, 0, Text_t, "Korrekturen am 4.9.98\012"
1, 0, Text_t, "Anpassungen an Digitalpiano am 1.1.99\012"
1, 0, Text_t, "Update am 16.6.99\012"
1, 0, Text_t, "Update am 9.7.99\012"
1, 0, Text_t, "Normierung: 23.12.2002\012"
1, 0, Text_t, "Update am 14.10.2008\012"
1, 0, Text_t, "Update am 26.3.2014\012"
1, 0, Text_t, "Dauer: 0:37 Minuten\012"
1, 0, Time_signature, 3, 2, 24, 8
1, 0, Key_signature, 0, "major"
1, 0, Tempo, 245902
1, 0, Marker_t, "On the Rocking Horse"
1, 0, Program_c, 0, 0
1, 0, Control_c, 0, 7, 100
1, 0, Control_c, 0, 10, 64
1, 0, Text_t, "bdca426d104a26ac9dcb070447587523"
1, 0, Control_c, 0, 91, 127
1, 0, Program_c, 0, 0
1, 0, Control_c, 0, 7, 100
1, 0, Control_c, 0, 10, 64
1, 0, Control_c, 0, 91, 127
1, 0, Control_c, 0, 64, 0
1, 1, Note_on_c, 0, 64, 68
1, 1, Note_on_c, 0, 67, 68
1, 226, Control_c, 0, 64, 127
1, 240, Tempo, 279070
1, 240, Note_on_c, 0, 79, 57
1, 240, Note_on_c, 0, 72, 57
1, 480, Note_on_c, 0, 55, 61
1, 715, Note_on_c, 0, 72, 0
1, 715, Note_on_c, 0, 79, 0
1, 720, Tempo, 260870
1, 720, Note_on_c, 0, 79, 57
1, 720, Note_on_c, 0, 72, 57
1, 958, Note_on_c, 0, 72, 0
1, 958, Note_on_c, 0, 79, 0
1, 960, Tempo, 251572
1, 960, Note_on_c, 0, 72, 70
1, 960, Note_on_c, 0, 81, 70
1, 960, Note_on_c, 0, 63, 51
1, 960, Note_on_c, 0, 66, 51
1, 961, Note_on_c, 0, 64, 0
1, 961, Note_on_c, 0, 67, 0
1, 967, Control_c, 0, 64, 0
1, 1435, Note_on_c, 0, 63, 0
1, 1435, Note_on_c, 0, 72, 0
1, 1435, Note_on_c, 0, 81, 0
1, 1435, Note_on_c, 0, 66, 0
1, 1440, Tempo, 244898
1, 1440, Note_on_c, 0, 64, 70
1, 1440, Note_on_c, 0, 67, 70
1, 1610, Control_c, 0, 64, 127
1, 1680, Tempo, 279070
1, 1680, Note_on_c, 0, 79, 57
1, 1680, Note_on_c, 0, 72, 57
1, 1920, Note_on_c, 0, 55, 0
1, 1920, Note_on_c, 0, 55, 59
1, 2155, Note_on_c, 0, 79, 0
1, 2155, Note_on_c, 0, 72, 0
1, 2160, Tempo, 260870
1, 2160, Note_on_c, 0, 79, 57
1, 2160, Note_on_c, 0, 72, 57
1, 2398, Note_on_c, 0, 72, 0
1, 2398, Note_on_c, 0, 79, 0
1, 2400, Tempo, 252101
1, 2400, Note_on_c, 0, 64, 0
1, 2400, Note_on_c, 0, 67, 0
1, 2400, Note_on_c, 0, 76, 68
1, 2400, Note_on_c, 0, 72, 68
1, 2400, Note_on_c, 0, 67, 51
1, 2400, Note_on_c, 0, 60, 51
1, 2414, Control_c, 0, 64, 0
1, 2875, Note_on_c, 0, 60, 0
1, 2875, Note_on_c, 0, 72, 0
1, 2875, Note_on_c, 0, 67, 0
1, 2875, Note_on_c, 0, 76, 0
1, 2880, Tempo, 245902
1, 2880, Note_on_c, 0, 67, 69
1, 2880, Note_on_c, 0, 62, 69
1, 3078, Control_c, 0, 64, 127
1, 3120, Tempo, 279070
1, 3120, Note_on_c, 0, 77, 54
1, 3120, Note_on_c, 0, 72, 54
1, 3360, Note_on_c, 0, 55, 0
1, 3360, Note_on_c, 0, 55, 58
1, 3595, Note_on_c, 0, 77, 0
1, 3595, Note_on_c, 0, 72, 0
1, 3600, Tempo, 266667
1, 3600, Note_on_c, 0, 72, 54
1, 3600, Note_on_c, 0, 77, 54
1, 3838, Note_on_c, 0, 77, 0
1, 3838, Note_on_c, 0, 72, 0
1, 3840, Tempo, 254777
1, 3840, Note_on_c, 0, 67, 0
1, 3840, Note_on_c, 0, 62, 0
1, 3840, Note_on_c, 0, 74, 65
1, 3840, Note_on_c, 0, 79, 65
1, 3840, Note_on_c, 0, 59, 47
1, 3840, Note_on_c, 0, 67, 47
1, 3854, Control_c, 0, 64, 0
1, 4315, Note_on_c, 0, 67, 0
1, 4315, Note_on_c, 0, 79, 0
1, 4315, Note_on_c, 0, 59, 0
1, 4315, Note_on_c, 0, 74, 0
1, 4320, Tempo, 250522
1, 4320, Note_on_c, 0, 60, 69
1, 4320, Note_on_c, 0, 67, 69
1, 4447, Control_c, 0, 64, 127
1, 4560, Tempo, 279070
1, 4560, Note_on_c, 0, 76, 51
1, 4560, Note_on_c, 0, 72, 51
1, 4800, Note_on_c, 0, 55, 0
1, 4800, Note_on_c, 0, 55, 57
1, 5035, Note_on_c, 0, 76, 0
1, 5035, Note_on_c, 0, 72, 0
1, 5040, Tempo, 267857
1, 5040, Note_on_c, 0, 72, 51
1, 5040, Note_on_c, 0, 76, 51
1, 5277, Note_on_c, 0, 67, 0
1, 5278, Note_on_c, 0, 72, 0
1, 5278, Note_on_c, 0, 76, 0
1, 5280, Tempo, 258065
1, 5280, Note_on_c, 0, 60, 0
1, 5280, Note_on_c, 0, 67, 60
1, 5280, Note_on_c, 0, 72, 60
1, 5280, Note_on_c, 0, 60, 46
1, 5280, Note_on_c, 0, 64, 46
1, 5303, Control_c, 0, 64, 0
1, 5755, Note_on_c, 0, 64, 0
1, 5755, Note_on_c, 0, 72, 0
1, 5755, Note_on_c, 0, 60, 0
1, 5755, Note_on_c, 0, 67, 0
1, 5760, Tempo, 244898
1, 5760, Control_c, 0, 91, 127
1, 5760, Control_c, 0, 91, 127
1, 5761, Note_on_c, 0, 64, 66
1, 5930, Control_c, 0, 64, 127
1, 6000, Tempo, 279070
1, 6000, Note_on_c, 0, 67, 45
1, 6000, Note_on_c, 0, 72, 45
1, 6240, Note_on_c, 0, 55, 0
1, 6240, Note_on_c, 0, 55, 46
1, 6475, Note_on_c, 0, 72, 0
1, 6475, Note_on_c, 0, 67, 0
1, 6480, Tempo, 262009
1, 6480, Note_on_c, 0, 67, 45
1, 6480, Note_on_c, 0, 72, 45
1, 6718, Note_on_c, 0, 72, 0
1, 6718, Note_on_c, 0, 67, 0
1, 6720, Tempo, 251046
1, 6720, Note_on_c, 0, 72, 55
1, 6720, Note_on_c, 0, 69, 55
1, 6720, Note_on_c, 0, 65, 39
1, 6721, Note_on_c, 0, 64, 0
1, 6734, Control_c, 0, 64, 0
1, 7195, Note_on_c, 0, 69, 0
1, 7195, Note_on_c, 0, 65, 0
1, 7195, Note_on_c, 0, 72, 0
1, 7200, Tempo, 247423
1, 7200, Note_on_c, 0, 64, 66
1, 7327, Control_c, 0, 64, 127
1, 7440, Tempo, 279070
1, 7440, Note_on_c, 0, 72, 45
1, 7440, Note_on_c, 0, 67, 45
1, 7680, Note_on_c, 0, 55, 0
1, 7680, Note_on_c, 0, 55, 44
1, 7915, Note_on_c, 0, 67, 0
1, 7915, Note_on_c, 0, 72, 0
1, 7920, Tempo, 261438
1, 7920, Note_on_c, 0, 72, 46
1, 7920, Note_on_c, 0, 67, 46
1, 8157, Note_on_c, 0, 64, 0
1, 8158, Note_on_c, 0, 67, 0
1, 8158, Note_on_c, 0, 72, 0
1, 8160, Tempo, 254237
1, 8160, Note_on_c, 0, 72, 54
1, 8160, Note_on_c, 0, 64, 54
1, 8160, Note_on_c, 0, 60, 39
1, 8174, Control_c, 0, 64, 0
1, 8635, Note_on_c, 0, 60, 0
1, 8635, Note_on_c, 0, 64, 0
1, 8635, Note_on_c, 0, 72, 0
1, 8640, Tempo, 250522
1, 8640, Note_on_c, 0, 62, 59
1, 8792, Control_c, 0, 64, 127
1, 8880, Tempo, 279070
1, 8880, Note_on_c, 0, 65, 43
1, 8880, Note_on_c, 0, 67, 43
1, 9120, Note_on_c, 0, 55, 0
1, 9120, Note_on_c, 0, 55, 44
1, 9355, Note_on_c, 0, 67, 0
1, 9355, Note_on_c, 0, 65, 0
1, 9360, Tempo, 269058
1, 9360, Note_on_c, 0, 67, 43
1, 9360, Note_on_c, 0, 65, 43
1, 9598, Note_on_c, 0, 65, 0
1, 9598, Note_on_c, 0, 67, 0
1, 9600, Tempo, 259179
1, 9600, Note_on_c, 0, 62, 0
1, 9600, Note_on_c, 0, 67, 58
1, 9600, Note_on_c, 0, 64, 38
1, 9610, Control_c, 0, 64, 0
1, 10075, Note_on_c, 0, 64, 0
1, 10075, Note_on_c, 0, 67, 0
1, 10080, Tempo, 254777
1, 10080, Note_on_c, 0, 60, 57
1, 10207, Control_c, 0, 64, 127
1, 10320, Tempo, 279070
1, 10320, Note_on_c, 0, 67, 34
1, 10320, Note_on_c, 0, 64, 34
1, 10560, Note_on_c, 0, 55, 0
1, 10560, Note_on_c, 0, 55, 44
1, 10795, Note_on_c, 0, 64, 0
1, 10795, Note_on_c, 0, 67, 0
1, 10800, Tempo, 272109
1, 10800, Note_on_c, 0, 67, 34
1, 10800, Note_on_c, 0, 64, 34
1, 11038, Note_on_c, 0, 64, 0
1, 11038, Note_on_c, 0, 67, 0
1, 11040, Tempo, 254777
1, 11040, Note_on_c, 0, 60, 0
1, 11040, Note_on_c, 0, 64, 45
1, 11040, Note_on_c, 0, 67, 45
1, 11040, Note_on_c, 0, 60, 35
1, 11047, Control_c, 0, 64, 0
1, 11515, Note_on_c, 0, 60, 0
1, 11515, Note_on_c, 0, 67, 0
1, 11515, Note_on_c, 0, 64, 0
1, 11520, Tempo, 245902
1, 11520, Note_on_c, 0, 55, 0
1, 11520, Control_c, 0, 91, 127
1, 11520, Control_c, 0, 91, 127
1, 11521, Note_on_c, 0, 67, 73
1, 11521, Note_on_c, 0, 64, 73
1, 11690, Control_c, 0, 64, 127
1, 11760, Tempo, 279070
1, 11760, Note_on_c, 0, 79, 57
1, 11760, Note_on_c, 0, 72, 57
1, 12000, Note_on_c, 0, 55, 61
1, 12235, Note_on_c, 0, 72, 0
1, 12235, Note_on_c, 0, 79, 0
1, 12240, Tempo, 260870
1, 12240, Note_on_c, 0, 72, 57
1, 12240, Note_on_c, 0, 79, 57
1, 12478, Note_on_c, 0, 79, 0
1, 12478, Note_on_c, 0, 72, 0
1, 12480, Tempo, 251572
1, 12480, Note_on_c, 0, 72, 70
1, 12480, Note_on_c, 0, 81, 70
1, 12480, Note_on_c, 0, 63, 51
1, 12480, Note_on_c, 0, 66, 51
1, 12481, Note_on_c, 0, 67, 0
1, 12481, Note_on_c, 0, 64, 0
1, 12496, Control_c, 0, 64, 0
1, 12955, Note_on_c, 0, 63, 0
1, 12955, Note_on_c, 0, 72, 0
1, 12955, Note_on_c, 0, 81, 0
1, 12955, Note_on_c, 0, 66, 0
1, 12960, Tempo, 244898
1, 12960, Note_on_c, 0, 64, 73
1, 12960, Note_on_c, 0, 67, 73
1, 13130, Control_c, 0, 64, 127
1, 13200, Tempo, 279070
1, 13200, Note_on_c, 0, 79, 57
1, 13200, Note_on_c, 0, 72, 57
1, 13440, Note_on_c, 0, 55, 0
1, 13440, Note_on_c, 0, 55, 59
1, 13675, Note_on_c, 0, 79, 0
1, 13675, Note_on_c, 0, 72, 0
1, 13680, Tempo, 260870
1, 13680, Note_on_c, 0, 72, 57
1, 13680, Note_on_c, 0, 79, 57
1, 13918, Note_on_c, 0, 79, 0
1, 13918, Note_on_c, 0, 72, 0
1, 13920, Tempo, 252101
1, 13920, Note_on_c, 0, 64, 0
1, 13920, Note_on_c, 0, 67, 0
1, 13920, Note_on_c, 0, 72, 68
1, 13920, Note_on_c, 0, 76, 68
1, 13920, Note_on_c, 0, 60, 51
1, 13920, Note_on_c, 0, 67, 51
1, 13938, Control_c, 0, 64, 0
1, 14395, Note_on_c, 0, 67, 0
1, 14395, Note_on_c, 0, 76, 0
1, 14395, Note_on_c, 0, 60, 0
1, 14395, Note_on_c, 0, 72, 0
1, 14400, Tempo, 245902
1, 14400, Note_on_c, 0, 62, 70
1, 14400, Note_on_c, 0, 67, 70
1, 14598, Control_c, 0, 64, 127
1, 14640, Tempo, 279070
1, 14640, Note_on_c, 0, 72, 54
1, 14640, Note_on_c, 0, 77, 54
1, 14880, Note_on_c, 0, 55, 0
1, 14880, Note_on_c, 0, 55, 58
1, 15115, Note_on_c, 0, 72, 0
1, 15115, Note_on_c, 0, 77, 0
1, 15120, Tempo, 266667
1, 15120, Note_on_c, 0, 72, 54
1, 15120, Note_on_c, 0, 77, 54
1, 15358, Note_on_c, 0, 77, 0
1, 15358, Note_on_c, 0, 72, 0
1, 15360, Tempo, 254777
1, 15360, Note_on_c, 0, 62, 0
1, 15360, Note_on_c, 0, 67, 0
1, 15360, Note_on_c, 0, 74, 67
1, 15360, Note_on_c, 0, 79, 67
1, 15360, Note_on_c, 0, 59, 47
1, 15360, Note_on_c, 0, 67, 47
1, 15372, Control_c, 0, 64, 0
1, 15835, Note_on_c, 0, 67, 0
1, 15835, Note_on_c, 0, 79, 0
1, 15835, Note_on_c, 0, 59, 0
1, 15835, Note_on_c, 0, 74, 0
1, 15840, Tempo, 250522
1, 15840, Note_on_c, 0, 60, 71
1, 15840, Note_on_c, 0, 67, 71
1, 16024, Control_c, 0, 64, 127
1, 16080, Tempo, 279070
1, 16080, Note_on_c, 0, 72, 51
1, 16080, Note_on_c, 0, 76, 51
1, 16320, Note_on_c, 0, 55, 0
1, 16320, Note_on_c, 0, 55, 57
1, 16555, Note_on_c, 0, 72, 0
1, 16555, Note_on_c, 0, 76, 0
1, 16560, Tempo, 267857
1, 16560, Note_on_c, 0, 72, 51
1, 16560, Note_on_c, 0, 76, 51
1, 16796, Note_on_c, 0, 67, 0
1, 16798, Note_on_c, 0, 72, 0
1, 16798, Note_on_c, 0, 76, 0
1, 16800, Tempo, 258065
1, 16800, Note_on_c, 0, 60, 0
1, 16800, Note_on_c, 0, 67, 63
1, 16800, Note_on_c, 0, 72, 63
1, 16800, Note_on_c, 0, 60, 46
1, 16800, Note_on_c, 0, 64, 46
1, 16815, Control_c, 0, 64, 0
1, 17275, Note_on_c, 0, 64, 0
1, 17275, Note_on_c, 0, 72, 0
1, 17275, Note_on_c, 0, 60, 0
1, 17275, Note_on_c, 0, 67, 0
1, 17280, Tempo, 244898
1, 17280, Control_c, 0, 91, 127
1, 17280, Control_c, 0, 91, 127
1, 17281, Note_on_c, 0, 64, 66
1, 17520, Tempo, 279070
1, 17520, Note_on_c, 0, 72, 45
1, 17520, Note_on_c, 0, 67, 45
1, 17577, Control_c, 0, 64, 127
1, 17760, Note_on_c, 0, 55, 0
1, 17760, Note_on_c, 0, 55, 46
1, 17995, Note_on_c, 0, 67, 0
1, 17995, Note_on_c, 0, 72, 0
1, 18000, Tempo, 262009
1, 18000, Note_on_c, 0, 67, 45
1, 18000, Note_on_c, 0, 72, 45
1, 18238, Note_on_c, 0, 72, 0
1, 18238, Note_on_c, 0, 67, 0
1, 18240, Tempo, 251046
1, 18240, Note_on_c, 0, 72, 56
1, 18240, Note_on_c, 0, 69, 56
1, 18240, Note_on_c, 0, 65, 39
1, 18241, Note_on_c, 0, 64, 0
1, 18258, Control_c, 0, 64, 0
1, 18715, Note_on_c, 0, 69, 0
1, 18715, Note_on_c, 0, 65, 0
1, 18715, Note_on_c, 0, 72, 0
1, 18720, Tempo, 247423
1, 18720, Note_on_c, 0, 64, 66
1, 18960, Tempo, 279070
1, 18960, Note_on_c, 0, 67, 45
1, 18960, Note_on_c, 0, 72, 45
1, 18974, Control_c, 0, 64, 127
1, 19200, Note_on_c, 0, 55, 0
1, 19200, Note_on_c, 0, 55, 44
1, 19435, Note_on_c, 0, 72, 0
1, 19435, Note_on_c, 0, 67, 0
1, 19440, Tempo, 261438
1, 19440, Note_on_c, 0, 72, 46
1, 19440, Note_on_c, 0, 67, 46
1, 19677, Note_on_c, 0, 64, 0
1, 19678, Note_on_c, 0, 67, 0
1, 19678, Note_on_c, 0, 72, 0
1, 19680, Tempo, 254237
1, 19680, Note_on_c, 0, 72, 55
1, 19680, Note_on_c, 0, 64, 55
1, 19680, Note_on_c, 0, 60, 39
1, 19694, Control_c, 0, 64, 0
1, 20155, Note_on_c, 0, 60, 0
1, 20155, Note_on_c, 0, 64, 0
1, 20155, Note_on_c, 0, 72, 0
1, 20160, Tempo, 250522
1, 20160, Note_on_c, 0, 62, 59
1, 20287, Control_c, 0, 64, 127
1, 20400, Tempo, 279070
1, 20400, Note_on_c, 0, 67, 43
1, 20400, Note_on_c, 0, 65, 43
1, 20640, Note_on_c, 0, 55, 0
1, 20640, Note_on_c, 0, 55, 44
1, 20875, Note_on_c, 0, 65, 0
1, 20875, Note_on_c, 0, 67, 0
1, 20880, Tempo, 269058
1, 20880, Note_on_c, 0, 67, 43
1, 20880, Note_on_c, 0, 65, 43
1, 21118, Note_on_c, 0, 65, 0
1, 21118, Note_on_c, 0, 67, 0
1, 21120, Tempo, 259179
1, 21120, Note_on_c, 0, 62, 0
1, 21120, Note_on_c, 0, 67, 54
1, 21120, Note_on_c, 0, 64, 38
1, 21133, Control_c, 0, 64, 0
1, 21595, Note_on_c, 0, 64, 0
1, 21595, Note_on_c, 0, 67, 0
1, 21600, Tempo, 254777
1, 21600, Note_on_c, 0, 60, 57
1, 21741, Control_c, 0, 64, 127
1, 21840, Tempo, 279070
1, 21840, Note_on_c, 0, 67, 34
1, 21840, Note_on_c, 0, 64, 34
1, 22080, Note_on_c, 0, 55, 0
1, 22080, Note_on_c, 0, 55, 44
1, 22315, Note_on_c, 0, 64, 0
1, 22315, Note_on_c, 0, 67, 0
1, 22320, Tempo, 272109
1, 22320, Note_on_c, 0, 67, 34
1, 22320, Note_on_c, 0, 64, 34
1, 22558, Note_on_c, 0, 64, 0
1, 22558, Note_on_c, 0, 67, 0
1, 22560, Tempo, 269058
1, 22560, Note_on_c, 0, 60, 0
1, 22560, Note_on_c, 0, 67, 46
1, 22560, Note_on_c, 0, 64, 46
1, 22560, Note_on_c, 0, 60, 35
1, 22570, Control_c, 0, 64, 0
1, 23035, Note_on_c, 0, 60, 0
1, 23035, Note_on_c, 0, 64, 0
1, 23035, Note_on_c, 0, 67, 0
1, 23040, Tempo, 245902
1, 23040, Note_on_c, 0, 55, 0
1, 23040, Control_c, 0, 91, 127
1, 23040, Note_on_c, 0, 58, 60
1, 23040, Control_c, 0, 91, 127
1, 23252, Control_c, 0, 64, 127
1, 23280, Tempo, 279070
1, 23280, Note_on_c, 0, 67, 46
1, 23280, Note_on_c, 0, 64, 46
1, 23280, Note_on_c, 0, 72, 46
1, 23520, Note_on_c, 0, 60, 58
1, 23755, Note_on_c, 0, 72, 0
1, 23755, Note_on_c, 0, 64, 0
1, 23755, Note_on_c, 0, 67, 0
1, 23760, Tempo, 260870
1, 23760, Note_on_c, 0, 72, 46
1, 23760, Note_on_c, 0, 64, 46
1, 23760, Note_on_c, 0, 67, 46
1, 23998, Note_on_c, 0, 67, 0
1, 23998, Note_on_c, 0, 72, 0
1, 23998, Note_on_c, 0, 64, 0
1, 24000, Tempo, 251572
1, 24000, Note_on_c, 0, 58, 0
1, 24000, Note_on_c, 0, 69, 55
1, 24000, Note_on_c, 0, 72, 55
1, 24000, Note_on_c, 0, 64, 55
1, 24000, Note_on_c, 0, 57, 56
1, 24014, Control_c, 0, 64, 0
1, 24475, Note_on_c, 0, 64, 0
1, 24475, Note_on_c, 0, 72, 0
1, 24475, Note_on_c, 0, 69, 0
1, 24480, Tempo, 245902
1, 24480, Note_on_c, 0, 57, 0
1, 24480, Control_c, 0, 91, 127
1, 24480, Note_on_c, 0, 55, 64
1, 24480, Control_c, 0, 91, 127
1, 24670, Control_c, 0, 64, 127
1, 24720, Tempo, 279070
1, 24720, Note_on_c, 0, 70, 47
1, 24720, Note_on_c, 0, 64, 47
1, 24720, Note_on_c, 0, 72, 47
1, 24960, Note_on_c, 0, 60, 0
1, 24960, Note_on_c, 0, 60, 60
1, 25195, Note_on_c, 0, 64, 0
1, 25195, Note_on_c, 0, 72, 0
1, 25195, Note_on_c, 0, 70, 0
1, 25200, Tempo, 260870
1, 25200, Note_on_c, 0, 72, 47
1, 25200, Note_on_c, 0, 64, 47
1, 25200, Note_on_c, 0, 70, 47
1, 25438, Note_on_c, 0, 70, 0
1, 25438, Note_on_c, 0, 72, 0
1, 25438, Note_on_c, 0, 64, 0
1, 25440, Tempo, 251572
1, 25440, Note_on_c, 0, 55, 0
1, 25440, Note_on_c, 0, 70, 57
1, 25440, Note_on_c, 0, 72, 57
1, 25440, Note_on_c, 0, 65, 57
1, 25440, Note_on_c, 0, 53, 58
1, 25455, Control_c, 0, 64, 0
1, 25915, Note_on_c, 0, 65, 0
1, 25915, Note_on_c, 0, 72, 0
1, 25915, Note_on_c, 0, 70, 0
1, 25920, Tempo, 245902
1, 25920, Note_on_c, 0, 53, 0
1, 25920, Control_c, 0, 91, 127
1, 25920, Note_on_c, 0, 52, 70
1, 25920, Control_c, 0, 91, 127
1, 26097, Control_c, 0, 64, 127
1, 26160, Tempo, 279070
1, 26160, Note_on_c, 0, 70, 54
1, 26160, Note_on_c, 0, 67, 54
1, 26160, Note_on_c, 0, 72, 54
1, 26400, Note_on_c, 0, 60, 0
1, 26400, Note_on_c, 0, 60, 68
1, 26635, Note_on_c, 0, 67, 0
1, 26635, Note_on_c, 0, 72, 0
1, 26635, Note_on_c, 0, 70, 0
1, 26640, Tempo, 264317
1, 26640, Note_on_c, 0, 72, 54
1, 26640, Note_on_c, 0, 67, 54
1, 26640, Note_on_c, 0, 70, 54
1, 26878, Note_on_c, 0, 70, 0
1, 26878, Note_on_c, 0, 72, 0
1, 26878, Note_on_c, 0, 67, 0
1, 26880, Tempo, 253700
1, 26880, Note_on_c, 0, 52, 0
1, 26880, Note_on_c, 0, 60, 0
1, 26880, Note_on_c, 0, 70, 67
1, 26880, Note_on_c, 0, 73, 67
1, 26880, Note_on_c, 0, 67, 67
1, 26880, Note_on_c, 0, 61, 68
1, 26880, Note_on_c, 0, 51, 68
1, 26895, Control_c, 0, 64, 0
1, 27355, Note_on_c, 0, 67, 0
1, 27355, Note_on_c, 0, 70, 0
1, 27355, Note_on_c, 0, 73, 0
1, 27360, Tempo, 245902
1, 27360, Note_on_c, 0, 51, 0
1, 27360, Control_c, 0, 91, 127
1, 27360, Note_on_c, 0, 50, 78
1, 27360, Control_c, 0, 91, 127
1, 27558, Control_c, 0, 64, 127
1, 27600, Tempo, 279070
1, 27600, Note_on_c, 0, 70, 57
1, 27600, Note_on_c, 0, 67, 57
1, 27600, Note_on_c, 0, 74, 57
1, 27840, Note_on_c, 0, 61, 0
1, 27840, Note_on_c, 0, 62, 73
1, 28075, Note_on_c, 0, 67, 0
1, 28075, Note_on_c, 0, 74, 0
1, 28075, Note_on_c, 0, 70, 0
1, 28080, Tempo, 263736
1, 28080, Note_on_c, 0, 74, 57
1, 28080, Note_on_c, 0, 67, 57
1, 28080, Note_on_c, 0, 70, 57
1, 28318, Note_on_c, 0, 70, 0
1, 28318, Note_on_c, 0, 74, 0
1, 28318, Note_on_c, 0, 67, 0
1, 28320, Tempo, 254237
1, 28320, Note_on_c, 0, 50, 0
1, 28320, Note_on_c, 0, 62, 0
1, 28320, Note_on_c, 0, 70, 73
1, 28320, Note_on_c, 0, 76, 73
1, 28320, Note_on_c, 0, 67, 73
1, 28320, Note_on_c, 0, 64, 73
1, 28320, Note_on_c, 0, 49, 73
1, 28326, Control_c, 0, 64, 0
1, 28795, Note_on_c, 0, 67, 0
1, 28795, Note_on_c, 0, 70, 0
1, 28795, Note_on_c, 0, 76, 0
1, 28800, Tempo, 245902
1, 28800, Note_on_c, 0, 64, 0
1, 28800, Note_on_c, 0, 49, 0
1, 28800, Control_c, 0, 91, 127
1, 28800, Note_on_c, 0, 50, 86
1, 28800, Control_c, 0, 91, 127
1, 29012, Control_c, 0, 64, 127
1, 29040, Tempo, 279070
1, 29040, Note_on_c, 0, 77, 59
1, 29040, Note_on_c, 0, 69, 59
1, 29040, Note_on_c, 0, 74, 59
1, 29280, Note_on_c, 0, 62, 81
1, 29515, Note_on_c, 0, 74, 0
1, 29515, Note_on_c, 0, 69, 0
1, 29515, Note_on_c, 0, 77, 0
1, 29520, Tempo, 260870
1, 29520, Note_on_c, 0, 74, 59
1, 29520, Note_on_c, 0, 69, 59
1, 29520, Note_on_c, 0, 77, 59
1, 29758, Note_on_c, 0, 77, 0
1, 29758, Note_on_c, 0, 74, 0
1, 29758, Note_on_c, 0, 69, 0
1, 29760, Tempo, 251572
1, 29760, Note_on_c, 0, 50, 0
1, 29760, Note_on_c, 0, 62, 0
1, 29760, Note_on_c, 0, 70, 82
1, 29760, Note_on_c, 0, 76, 82
1, 29760, Note_on_c, 0, 67, 82
1, 29760, Note_on_c, 0, 55, 77
1, 29760, Note_on_c, 0, 43, 77
1, 29776, Control_c, 0, 64, 0
1, 30235, Note_on_c, 0, 67, 0
1, 30235, Note_on_c, 0, 70, 0
1, 30235, Note_on_c, 0, 76, 0
1, 30240, Tempo, 245902
1, 30240, Note_on_c, 0, 55, 0
1, 30240, Note_on_c, 0, 43, 0
1, 30240, Control_c, 0, 91, 127
1, 30240, Note_on_c, 0, 45, 95
1, 30240, Control_c, 0, 91, 127
1, 30480, Tempo, 279070
1, 30480, Note_on_c, 0, 69, 63
1, 30480, Note_on_c, 0, 65, 63
1, 30480, Note_on_c, 0, 74, 63
1, 30480, Control_c, 0, 64, 127
1, 30720, Note_on_c, 0, 57, 92
1, 30955, Note_on_c, 0, 74, 0
1, 30955, Note_on_c, 0, 65, 0
1, 30955, Note_on_c, 0, 69, 0
1, 30960, Tempo, 263158
1, 30960, Note_on_c, 0, 69, 63
1, 30960, Note_on_c, 0, 65, 63
1, 30960, Note_on_c, 0, 74, 63
1, 31198, Note_on_c, 0, 74, 0
1, 31198, Note_on_c, 0, 69, 0
1, 31198, Note_on_c, 0, 65, 0
1, 31200, Tempo, 254237
1, 31200, Note_on_c, 0, 45, 0
1, 31200, Note_on_c, 0, 57, 0
1, 31200, Note_on_c, 0, 69, 83
1, 31200, Note_on_c, 0, 73, 83
1, 31200, Note_on_c, 0, 64, 83
1, 31200, Note_on_c, 0, 45, 90
1, 31200, Note_on_c, 0, 33, 90
1, 31212, Control_c, 0, 64, 0
1, 31675, Note_on_c, 0, 64, 0
1, 31675, Note_on_c, 0, 69, 0
1, 31675, Note_on_c, 0, 73, 0
1, 31680, Tempo, 245902
1, 31680, Note_on_c, 0, 45, 0
1, 31680, Note_on_c, 0, 33, 0
1, 31680, Control_c, 0, 91, 127
1, 31680, Note_on_c, 0, 38, 102
1, 31680, Control_c, 0, 91, 127
1, 31823, Control_c, 0, 64, 127
1, 31920, Tempo, 279070
1, 31920, Note_on_c, 0, 69, 68
1, 31920, Note_on_c, 0, 65, 68
1, 31920, Note_on_c, 0, 74, 68
1, 32160, Note_on_c, 0, 50, 95
1, 32395, Note_on_c, 0, 74, 0
1, 32395, Note_on_c, 0, 65, 0
1, 32395, Note_on_c, 0, 69, 0
1, 32400, Tempo, 260870
1, 32400, Note_on_c, 0, 69, 69
1, 32400, Note_on_c, 0, 65, 69
1, 32400, Note_on_c, 0, 74, 69
1, 32638, Note_on_c, 0, 74, 0
1, 32638, Note_on_c, 0, 69, 0
1, 32638, Note_on_c, 0, 65, 0
1, 32640, Tempo, 251572
1, 32640, Note_on_c, 0, 38, 0
1, 32640, Note_on_c, 0, 50, 0
1, 32640, Note_on_c, 0, 66, 87
1, 32640, Note_on_c, 0, 72, 87
1, 32640, Note_on_c, 0, 63, 87
1, 32640, Note_on_c, 0, 44, 92
1, 32640, Note_on_c, 0, 32, 92
1, 32656, Control_c, 0, 64, 0
1, 33115, Note_on_c, 0, 63, 0
1, 33115, Note_on_c, 0, 66, 0
1, 33115, Note_on_c, 0, 72, 0
1, 33120, Tempo, 245902
1, 33120, Note_on_c, 0, 44, 0
1, 33120, Note_on_c, 0, 32, 0
1, 33120, Control_c, 0, 91, 127
1, 33120, Note_on_c, 0, 31, 105
1, 33120, Note_on_c, 0, 43, 105
1, 33120, Control_c, 0, 91, 127
1, 33360, Tempo, 279070
1, 33360, Note_on_c, 0, 65, 75
1, 33360, Note_on_c, 0, 62, 75
1, 33360, Note_on_c, 0, 72, 75
1, 33374, Control_c, 0, 64, 127
1, 33600, Note_on_c, 0, 43, 0
1, 33600, Note_on_c, 0, 31, 0
1, 33600, Note_on_c, 0, 55, 100
1, 33835, Note_on_c, 0, 62, 0
1, 33835, Note_on_c, 0, 72, 0
1, 33835, Note_on_c, 0, 65, 0
1, 33840, Tempo, 264901
1, 33840, Note_on_c, 0, 65, 75
1, 33840, Note_on_c, 0, 62, 75
1, 33840, Note_on_c, 0, 72, 75
1, 34078, Note_on_c, 0, 72, 0
1, 34078, Note_on_c, 0, 62, 0
1, 34078, Note_on_c, 0, 65, 0
1, 34080, Tempo, 255864
1, 34080, Note_on_c, 0, 55, 0
1, 34080, Note_on_c, 0, 65, 89
1, 34080, Note_on_c, 0, 71, 89
1, 34080, Note_on_c, 0, 62, 89
1, 34080, Note_on_c, 0, 43, 95
1, 34080, Note_on_c, 0, 31, 95
1, 34090, Control_c, 0, 64, 0
1, 34555, Note_on_c, 0, 62, 0
1, 34555, Note_on_c, 0, 65, 0
1, 34555, Note_on_c, 0, 71, 0
1, 34560, Tempo, 244898
1, 34560, Note_on_c, 0, 43, 0
1, 34560, Note_on_c, 0, 31, 0
1, 34560, Control_c, 0, 91, 127
1, 34560, Note_on_c, 0, 36, 108
1, 34560, Control_c, 0, 91, 127
1, 34716, Control_c, 0, 64, 127
1, 34800, Tempo, 279070
1, 34800, Note_on_c, 0, 72, 73
1, 34800, Note_on_c, 0, 67, 73
1, 35040, Note_on_c, 0, 36, 0
1, 35040, Note_on_c, 0, 52, 90
1, 35275, Note_on_c, 0, 67, 0
1, 35275, Note_on_c, 0, 72, 0
1, 35280, Tempo, 262009
1, 35280, Note_on_c, 0, 67, 73
1, 35280, Note_on_c, 0, 72, 73
1, 35518, Note_on_c, 0, 72, 0
1, 35518, Note_on_c, 0, 67, 0
1, 35520, Tempo, 251046
1, 35520, Note_on_c, 0, 52, 0
1, 35520, Note_on_c, 0, 72, 91
1, 35520, Note_on_c, 0, 69, 91
1, 35520, Note_on_c, 0, 53, 86
1, 35538, Control_c, 0, 64, 0
1, 35995, Note_on_c, 0, 69, 0
1, 35995, Note_on_c, 0, 72, 0
1, 36000, Tempo, 244898
1, 36000, Note_on_c, 0, 53, 0
1, 36000, Note_on_c, 0, 52, 108
1, 36141, Control_c, 0, 64, 127
1, 36240, Tempo, 279070
1, 36240, Note_on_c, 0, 67, 76
1, 36240, Note_on_c, 0, 72, 76
1, 36480, Note_on_c, 0, 36, 90
1, 36715, Note_on_c, 0, 72, 0
1, 36715, Note_on_c, 0, 67, 0
1, 36720, Tempo, 255319
1, 36720, Note_on_c, 0, 72, 76
1, 36720, Note_on_c, 0, 67, 76
1, 36958, Note_on_c, 0, 67, 0
1, 36958, Note_on_c, 0, 72, 0
1, 36960, Tempo, 251046
1, 36960, Note_on_c, 0, 52, 0
1, 36960, Note_on_c, 0, 67, 91
1, 36960, Note_on_c, 0, 72, 91
1, 36960, Note_on_c, 0, 64, 91
1, 36960, Note_on_c, 0, 48, 87
1, 36978, Control_c, 0, 64, 0
1, 37435, Note_on_c, 0, 64, 0
1, 37435, Note_on_c, 0, 72, 0
1, 37435, Note_on_c, 0, 67, 0
1, 37440, Tempo, 245399
1, 37440, Note_on_c, 0, 36, 0
1, 37440, Note_on_c, 0, 48, 0
1, 37440, Note_on_c, 0, 50, 110
1, 37592, Control_c, 0, 64, 127
1, 37680, Tempo, 279070
1, 37680, Note_on_c, 0, 72, 81
1, 37680, Note_on_c, 0, 67, 81
1, 37680, Note_on_c, 0, 65, 81
1, 37920, Note_on_c, 0, 36, 92
1, 38155, Note_on_c, 0, 65, 0
1, 38155, Note_on_c, 0, 67, 0
1, 38155, Note_on_c, 0, 72, 0
1, 38160, Tempo, 254777
1, 38160, Note_on_c, 0, 72, 81
1, 38160, Note_on_c, 0, 67, 81
1, 38160, Note_on_c, 0, 65, 81
1, 38398, Note_on_c, 0, 65, 0
1, 38398, Note_on_c, 0, 72, 0
1, 38398, Note_on_c, 0, 67, 0
1, 38400, Tempo, 250000
1, 38400, Note_on_c, 0, 50, 0
1, 38400, Note_on_c, 0, 72, 96
1, 38400, Note_on_c, 0, 67, 96
1, 38400, Note_on_c, 0, 52, 87
1, 38405, Control_c, 0, 64, 0
1, 38875, Note_on_c, 0, 67, 0
1, 38875, Note_on_c, 0, 72, 0
1, 38880, Tempo, 244898
1, 38880, Note_on_c, 0, 36, 0
1, 38880, Note_on_c, 0, 52, 0
1, 38880, Note_on_c, 0, 48, 109
1, 39106, Control_c, 0, 64, 127
1, 39120, Tempo, 279070
1, 39120, Note_on_c, 0, 72, 84
1, 39120, Note_on_c, 0, 67, 84
1, 39120, Note_on_c, 0, 64, 84
1, 39360, Note_on_c, 0, 36, 93
1, 39595, Note_on_c, 0, 64, 0
1, 39595, Note_on_c, 0, 67, 0
1, 39595, Note_on_c, 0, 72, 0
1, 39600, Tempo, 272109
1, 39600, Note_on_c, 0, 72, 84
1, 39600, Note_on_c, 0, 67, 84
1, 39600, Note_on_c, 0, 64, 84
1, 39838, Note_on_c, 0, 64, 0
1, 39838, Note_on_c, 0, 72, 0
1, 39838, Note_on_c, 0, 67, 0
1, 39840, Tempo, 254777
1, 39840, Note_on_c, 0, 48, 0
1, 39840, Note_on_c, 0, 72, 99
1, 39840, Note_on_c, 0, 67, 99
1, 39840, Note_on_c, 0, 60, 99
1, 39840, Note_on_c, 0, 43, 91
1, 39850, Control_c, 0, 64, 0
1, 40315, Note_on_c, 0, 60, 0
1, 40315, Note_on_c, 0, 67, 0
1, 40315, Note_on_c, 0, 72, 0
1, 40320, Tempo, 244898
1, 40320, Note_on_c, 0, 36, 0
1, 40320, Note_on_c, 0, 43, 0
1, 40320, Control_c, 0, 91, 127
1, 40320, Note_on_c, 0, 52, 108
1, 40320, Note_on_c, 0, 43, 91
1, 40320, Control_c, 0, 91, 127
1, 40560, Tempo, 279070
1, 40560, Note_on_c, 0, 64, 76
1, 40560, Note_on_c, 0, 72, 76
1, 40560, Note_on_c, 0, 67, 76
1, 40588, Control_c, 0, 64, 127
1, 40800, Note_on_c, 0, 36, 86
1, 41035, Note_on_c, 0, 67, 0
1, 41035, Note_on_c, 0, 72, 0
1, 41035, Note_on_c, 0, 64, 0
1, 41040, Tempo, 254777
1, 41040, Note_on_c, 0, 64, 76
1, 41040, Note_on_c, 0, 67, 76
1, 41040, Note_on_c, 0, 72, 76
1, 41278, Note_on_c, 0, 72, 0
1, 41278, Note_on_c, 0, 64, 0
1, 41278, Note_on_c, 0, 67, 0
1, 41280, Tempo, 251046
1, 41280, Note_on_c, 0, 43, 0
1, 41280, Note_on_c, 0, 52, 0
1, 41280, Note_on_c, 0, 65, 92
1, 41280, Note_on_c, 0, 72, 92
1, 41280, Note_on_c, 0, 67, 92
1, 41280, Note_on_c, 0, 45, 79
1, 41280, Note_on_c, 0, 53, 94
1, 41292, Control_c, 0, 64, 0
1, 41755, Note_on_c, 0, 67, 0
1, 41755, Note_on_c, 0, 72, 0
1, 41755, Note_on_c, 0, 65, 0
1, 41760, Tempo, 244898
1, 41760, Note_on_c, 0, 36, 0
1, 41760, Note_on_c, 0, 45, 0
1, 41760, Note_on_c, 0, 53, 0
1, 41760, Note_on_c, 0, 43, 91
1, 41760, Note_on_c, 0, 52, 108
1, 42000, Tempo, 279070
1, 42000, Note_on_c, 0, 64, 76
1, 42000, Note_on_c, 0, 67, 76
1, 42000, Note_on_c, 0, 72, 76
1, 42014, Control_c, 0, 64, 127
1, 42240, Note_on_c, 0, 36, 86
1, 42475, Note_on_c, 0, 72, 0
1, 42475, Note_on_c, 0, 67, 0
1, 42475, Note_on_c, 0, 64, 0
1, 42480, Tempo, 251572
1, 42480, Note_on_c, 0, 64, 76
1, 42480, Note_on_c, 0, 72, 76
1, 42480, Note_on_c, 0, 67, 76
1, 42718, Note_on_c, 0, 67, 0
1, 42718, Note_on_c, 0, 64, 0
1, 42718, Note_on_c, 0, 72, 0
1, 42720, Tempo, 247934
1, 42720, Note_on_c, 0, 52, 0
1, 42720, Note_on_c, 0, 43, 0
1, 42720, Note_on_c, 0, 67, 91
1, 42720, Note_on_c, 0, 72, 91
1, 42720, Note_on_c, 0, 60, 91
1, 42720, Note_on_c, 0, 40, 78
1, 42720, Note_on_c, 0, 48, 93
1, 42730, Control_c, 0, 64, 0
1, 43195, Note_on_c, 0, 60, 0
1, 43195, Note_on_c, 0, 72, 0
1, 43195, Note_on_c, 0, 67, 0
1, 43200, Tempo, 245399
1, 43200, Note_on_c, 0, 36, 0
1, 43200, Note_on_c, 0, 40, 0
1, 43200, Note_on_c, 0, 48, 0
1, 43200, Note_on_c, 0, 41, 90
1, 43200, Note_on_c, 0, 50, 106
1, 43440, Tempo, 283019
1, 43440, Note_on_c, 0, 72, 75
1, 43440, Note_on_c, 0, 62, 75
1, 43440, Note_on_c, 0, 67, 75
1, 43468, Control_c, 0, 64, 127
1, 43680, Note_on_c, 0, 36, 87
1, 43915, Note_on_c, 0, 67, 0
1, 43915, Note_on_c, 0, 62, 0
1, 43915, Note_on_c, 0, 72, 0
1, 43920, Tempo, 267857
1, 43920, Note_on_c, 0, 72, 75
1, 43920, Note_on_c, 0, 62, 75
1, 43920, Note_on_c, 0, 67, 75
1, 44158, Note_on_c, 0, 67, 0
1, 44158, Note_on_c, 0, 72, 0
1, 44158, Note_on_c, 0, 62, 0
1, 44160, Tempo, 258621
1, 44160, Note_on_c, 0, 50, 0
1, 44160, Note_on_c, 0, 41, 0
1, 44160, Note_on_c, 0, 72, 91
1, 44160, Note_on_c, 0, 64, 91
1, 44160, Note_on_c, 0, 67, 91
1, 44160, Note_on_c, 0, 43, 79
1, 44160, Note_on_c, 0, 52, 94
1, 44172, Control_c, 0, 64, 0
1, 44635, Note_on_c, 0, 67, 0
1, 44635, Note_on_c, 0, 64, 0
1, 44635, Note_on_c, 0, 72, 0
1, 44640, Tempo, 244898
1, 44640, Note_on_c, 0, 36, 0
1, 44640, Note_on_c, 0, 43, 0
1, 44640, Note_on_c, 0, 52, 0
1, 44640, Note_on_c, 0, 40, 89
1, 44640, Note_on_c, 0, 48, 105
1, 44732, Control_c, 0, 64, 127
1, 44880, Tempo, 285036
1, 44880, Note_on_c, 0, 72, 74
1, 44880, Note_on_c, 0, 67, 74
1, 44880, Note_on_c, 0, 60, 74
1, 45120, Note_on_c, 0, 36, 88
1, 45355, Note_on_c, 0, 60, 0
1, 45355, Note_on_c, 0, 67, 0
1, 45355, Note_on_c, 0, 72, 0
1, 45360, Tempo, 272109
1, 45360, Note_on_c, 0, 72, 74
1, 45360, Note_on_c, 0, 60, 74
1, 45598, Note_on_c, 0, 60, 0
1, 45598, Note_on_c, 0, 72, 0
1, 45600, Tempo, 266075
1, 45600, Note_on_c, 0, 40, 0
1, 45600, Note_on_c, 0, 48, 0
1, 45600, Note_on_c, 0, 72, 92
1, 45600, Note_on_c, 0, 60, 92
1, 45600, Note_on_c, 0, 48, 95
1, 45616, Control_c, 0, 64, 0
1, 45960, Tempo, 300000
1, 45960, Note_on_c, 0, 48, 0
1, 45960, Note_on_c, 0, 60, 0
1, 45960, Note_on_c, 0, 72, 0
1, 46080, Tempo, 245902
1, 46080, Note_on_c, 0, 36, 0
1, 46080, Control_c, 0, 91, 127
1, 46080, Note_on_c, 0, 58, 60
1, 46080, Control_c, 0, 91, 127
1, 46193, Control_c, 0, 64, 127
1, 46320, Tempo, 279070
1, 46320, Note_on_c, 0, 67, 46
1, 46320, Note_on_c, 0, 64, 46
1, 46320, Note_on_c, 0, 72, 46
1, 46560, Note_on_c, 0, 60, 58
1, 46795, Note_on_c, 0, 72, 0
1, 46795, Note_on_c, 0, 64, 0
1, 46795, Note_on_c, 0, 67, 0
1, 46800, Tempo, 260870
1, 46800, Note_on_c, 0, 72, 46
1, 46800, Note_on_c, 0, 64, 46
1, 46800, Note_on_c, 0, 67, 46
1, 47038, Note_on_c, 0, 67, 0
1, 47038, Note_on_c, 0, 72, 0
1, 47038, Note_on_c, 0, 64, 0
1, 47040, Tempo, 251572
1, 47040, Note_on_c, 0, 58, 0
1, 47040, Note_on_c, 0, 69, 56
1, 47040, Note_on_c, 0, 72, 56
1, 47040, Note_on_c, 0, 64, 56
1, 47040, Note_on_c, 0, 57, 56
1, 47054, Control_c, 0, 64, 0
1, 47515, Note_on_c, 0, 64, 0
1, 47515, Note_on_c, 0, 72, 0
1, 47515, Note_on_c, 0, 69, 0
1, 47520, Tempo, 245902
1, 47520, Note_on_c, 0, 57, 0
1, 47520, Control_c, 0, 91, 127
1, 47520, Note_on_c, 0, 55, 64
1, 47520, Control_c, 0, 91, 127
1, 47697, Control_c, 0, 64, 127
1, 47760, Tempo, 279070
1, 47760, Note_on_c, 0, 70, 47
1, 47760, Note_on_c, 0, 64, 47
1, 47760, Note_on_c, 0, 72, 47
1, 48000, Note_on_c, 0, 60, 0
1, 48000, Note_on_c, 0, 60, 60
1, 48235, Note_on_c, 0, 64, 0
1, 48235, Note_on_c, 0, 72, 0
1, 48235, Note_on_c, 0, 70, 0
1, 48240, Tempo, 260870
1, 48240, Note_on_c, 0, 72, 47
1, 48240, Note_on_c, 0, 64, 47
1, 48240, Note_on_c, 0, 70, 47
1, 48478, Note_on_c, 0, 70, 0
1, 48478, Note_on_c, 0, 72, 0
1, 48478, Note_on_c, 0, 64, 0
1, 48480, Tempo, 251572
1, 48480, Note_on_c, 0, 55, 0
1, 48480, Note_on_c, 0, 70, 58
1, 48480, Note_on_c, 0, 72, 58
1, 48480, Note_on_c, 0, 65, 58
1, 48480, Note_on_c, 0, 53, 58
1, 48487, Control_c, 0, 64, 0
1, 48955, Note_on_c, 0, 65, 0
1, 48955, Note_on_c, 0, 72, 0
1, 48955, Note_on_c, 0, 70, 0
1, 48960, Tempo, 245902
1, 48960, Note_on_c, 0, 53, 0
1, 48960, Control_c, 0, 91, 127
1, 48960, Note_on_c, 0, 52, 70
1, 48960, Control_c, 0, 91, 127
1, 49188, Control_c, 0, 64, 127
1, 49200, Tempo, 279070
1, 49200, Note_on_c, 0, 70, 54
1, 49200, Note_on_c, 0, 67, 54
1, 49200, Note_on_c, 0, 72, 54
1, 49440, Note_on_c, 0, 60, 0
1, 49440, Note_on_c, 0, 60, 68
1, 49675, Note_on_c, 0, 67, 0
1, 49675, Note_on_c, 0, 72, 0
1, 49675, Note_on_c, 0, 70, 0
1, 49680, Tempo, 264317
1, 49680, Note_on_c, 0, 72, 54
1, 49680, Note_on_c, 0, 67, 54
1, 49680, Note_on_c, 0, 70, 54
1, 49918, Note_on_c, 0, 70, 0
1, 49918, Note_on_c, 0, 72, 0
1, 49918, Note_on_c, 0, 67, 0
1, 49920, Tempo, 253700
1, 49920, Note_on_c, 0, 52, 0
1, 49920, Note_on_c, 0, 60, 0
1, 49920, Note_on_c, 0, 70, 67
1, 49920, Note_on_c, 0, 73, 67
1, 49920, Note_on_c, 0, 67, 67
1, 49920, Note_on_c, 0, 61, 68
1, 49920, Note_on_c, 0, 51, 68
1, 49939, Control_c, 0, 64, 0
1, 50395, Note_on_c, 0, 67, 0
1, 50395, Note_on_c, 0, 70, 0
1, 50395, Note_on_c, 0, 73, 0
1, 50400, Tempo, 245902
1, 50400, Note_on_c, 0, 51, 0
1, 50400, Control_c, 0, 91, 127
1, 50400, Note_on_c, 0, 50, 78
1, 50400, Control_c, 0, 91, 127
1, 50598, Control_c, 0, 64, 127
1, 50640, Tempo, 279070
1, 50640, Note_on_c, 0, 70, 57
1, 50640, Note_on_c, 0, 67, 57
1, 50640, Note_on_c, 0, 74, 57
1, 50880, Note_on_c, 0, 61, 0
1, 50880, Note_on_c, 0, 62, 73
1, 51115, Note_on_c, 0, 67, 0
1, 51115, Note_on_c, 0, 74, 0
1, 51115, Note_on_c, 0, 70, 0
1, 51120, Tempo, 263736
1, 51120, Note_on_c, 0, 74, 57
1, 51120, Note_on_c, 0, 67, 57
1, 51120, Note_on_c, 0, 70, 57
1, 51358, Note_on_c, 0, 70, 0
1, 51358, Note_on_c, 0, 74, 0
1, 51358, Note_on_c, 0, 67, 0
1, 51360, Tempo, 254237
1, 51360, Note_on_c, 0, 50, 0
1, 51360, Note_on_c, 0, 62, 0
1, 51360, Note_on_c, 0, 70, 73
1, 51360, Note_on_c, 0, 76, 73
1, 51360, Note_on_c, 0, 67, 73
1, 51360, Note_on_c, 0, 64, 73
1, 51360, Note_on_c, 0, 49, 73
1, 51367, Control_c, 0, 64, 0
1, 51835, Note_on_c, 0, 67, 0
1, 51835, Note_on_c, 0, 70, 0
1, 51835, Note_on_c, 0, 76, 0
1, 51840, Tempo, 245902
1, 51840, Note_on_c, 0, 64, 0
1, 51840, Note_on_c, 0, 49, 0
1, 51840, Control_c, 0, 91, 127
1, 51840, Note_on_c, 0, 50, 86
1, 51840, Control_c, 0, 91, 127
1, 51996, Control_c, 0, 64, 127
1, 52080, Tempo, 279070
1, 52080, Note_on_c, 0, 77, 59
1, 52080, Note_on_c, 0, 69, 59
1, 52080, Note_on_c, 0, 74, 59
1, 52320, Note_on_c, 0, 62, 81
1, 52555, Note_on_c, 0, 74, 0
1, 52555, Note_on_c, 0, 69, 0
1, 52555, Note_on_c, 0, 77, 0
1, 52560, Tempo, 260870
1, 52560, Note_on_c, 0, 74, 59
1, 52560, Note_on_c, 0, 69, 59
1, 52560, Note_on_c, 0, 77, 59
1, 52798, Note_on_c, 0, 77, 0
1, 52798, Note_on_c, 0, 74, 0
1, 52798, Note_on_c, 0, 69, 0
1, 52800, Tempo, 251572
1, 52800, Note_on_c, 0, 50, 0
1, 52800, Note_on_c, 0, 62, 0
1, 52800, Note_on_c, 0, 70, 82
1, 52800, Note_on_c, 0, 76, 82
1, 52800, Note_on_c, 0, 67, 82
1, 52800, Note_on_c, 0, 55, 77
1, 52800, Note_on_c, 0, 43, 77
1, 52819, Control_c, 0, 64, 0
1, 53275, Note_on_c, 0, 67, 0
1, 53275, Note_on_c, 0, 70, 0
1, 53275, Note_on_c, 0, 76, 0
1, 53280, Tempo, 245902
1, 53280, Note_on_c, 0, 55, 0
1, 53280, Note_on_c, 0, 43, 0
1, 53280, Control_c, 0, 91, 127
1, 53280, Note_on_c, 0, 45, 95
1, 53280, Control_c, 0, 91, 127
1, 53351, Control_c, 0, 64, 127
1, 53520, Tempo, 279070
1, 53520, Note_on_c, 0, 69, 63
1, 53520, Note_on_c, 0, 65, 63
1, 53520, Note_on_c, 0, 74, 63
1, 53760, Note_on_c, 0, 57, 92
1, 53995, Note_on_c, 0, 74, 0
1, 53995, Note_on_c, 0, 65, 0
1, 53995, Note_on_c, 0, 69, 0
1, 54000, Tempo, 263158
1, 54000, Note_on_c, 0, 69, 63
1, 54000, Note_on_c, 0, 65, 63
1, 54000, Note_on_c, 0, 74, 63
1, 54238, Note_on_c, 0, 74, 0
1, 54238, Note_on_c, 0, 69, 0
1, 54238, Note_on_c, 0, 65, 0
1, 54240, Tempo, 254237
1, 54240, Note_on_c, 0, 45, 0
1, 54240, Note_on_c, 0, 57, 0
1, 54240, Note_on_c, 0, 69, 83
1, 54240, Note_on_c, 0, 73, 83
1, 54240, Note_on_c, 0, 64, 83
1, 54240, Note_on_c, 0, 45, 90
1, 54240, Note_on_c, 0, 33, 90
1, 54256, Control_c, 0, 64, 0
1, 54715, Note_on_c, 0, 64, 0
1, 54715, Note_on_c, 0, 69, 0
1, 54715, Note_on_c, 0, 73, 0
1, 54720, Tempo, 245902
1, 54720, Note_on_c, 0, 45, 0
1, 54720, Note_on_c, 0, 33, 0
1, 54720, Control_c, 0, 91, 127
1, 54720, Note_on_c, 0, 38, 102
1, 54720, Control_c, 0, 91, 127
1, 54811, Control_c, 0, 64, 127
1, 54960, Tempo, 279070
1, 54960, Note_on_c, 0, 69, 68
1, 54960, Note_on_c, 0, 65, 68
1, 54960, Note_on_c, 0, 74, 68
1, 55200, Note_on_c, 0, 50, 95
1, 55435, Note_on_c, 0, 74, 0
1, 55435, Note_on_c, 0, 65, 0
1, 55435, Note_on_c, 0, 69, 0
1, 55440, Tempo, 260870
1, 55440, Note_on_c, 0, 69, 69
1, 55440, Note_on_c, 0, 65, 69
1, 55440, Note_on_c, 0, 74, 69
1, 55678, Note_on_c, 0, 74, 0
1, 55678, Note_on_c, 0, 69, 0
1, 55678, Note_on_c, 0, 65, 0
1, 55680, Tempo, 251572
1, 55680, Note_on_c, 0, 38, 0
1, 55680, Note_on_c, 0, 50, 0
1, 55680, Note_on_c, 0, 66, 87
1, 55680, Note_on_c, 0, 72, 87
1, 55680, Note_on_c, 0, 63, 87
1, 55680, Note_on_c, 0, 44, 92
1, 55680, Note_on_c, 0, 32, 92
1, 55696, Control_c, 0, 64, 0
1, 56155, Note_on_c, 0, 63, 0
1, 56155, Note_on_c, 0, 66, 0
1, 56155, Note_on_c, 0, 72, 0
1, 56160, Tempo, 245902
1, 56160, Note_on_c, 0, 44, 0
1, 56160, Note_on_c, 0, 32, 0
1, 56160, Control_c, 0, 91, 127
1, 56160, Note_on_c, 0, 31, 105
1, 56160, Note_on_c, 0, 43, 105
1, 56160, Control_c, 0, 91, 127
1, 56386, Control_c, 0, 64, 127
1, 56400, Tempo, 279070
1, 56400, Note_on_c, 0, 65, 75
1, 56400, Note_on_c, 0, 62, 75
1, 56400, Note_on_c, 0, 72, 75
1, 56640, Note_on_c, 0, 43, 0
1, 56640, Note_on_c, 0, 31, 0
1, 56640, Note_on_c, 0, 55, 100
1, 56875, Note_on_c, 0, 62, 0
1, 56875, Note_on_c, 0, 72, 0
1, 56875, Note_on_c, 0, 65, 0
1, 56880, Tempo, 264901
1, 56880, Note_on_c, 0, 65, 75
1, 56880, Note_on_c, 0, 62, 75
1, 56880, Note_on_c, 0, 72, 75
1, 57118, Note_on_c, 0, 72, 0
1, 57118, Note_on_c, 0, 62, 0
1, 57118, Note_on_c, 0, 65, 0
1, 57120, Tempo, 255864
1, 57120, Note_on_c, 0, 55, 0
1, 57120, Note_on_c, 0, 65, 89
1, 57120, Note_on_c, 0, 71, 89
1, 57120, Note_on_c, 0, 62, 89
1, 57120, Note_on_c, 0, 43, 95
1, 57120, Note_on_c, 0, 31, 95
1, 57134, Control_c, 0, 64, 0
1, 57595, Note_on_c, 0, 62, 0
1, 57595, Note_on_c, 0, 65, 0
1, 57595, Note_on_c, 0, 71, 0
1, 57600, Tempo, 244898
1, 57600, Note_on_c, 0, 43, 0
1, 57600, Note_on_c, 0, 31, 0
1, 57600, Control_c, 0, 91, 127
1, 57600, Note_on_c, 0, 36, 112
1, 57600, Control_c, 0, 91, 127
1, 57770, Control_c, 0, 64, 127
1, 57840, Tempo, 279070
1, 57840, Note_on_c, 0, 72, 73
1, 57840, Note_on_c, 0, 67, 73
1, 58080, Note_on_c, 0, 36, 0
1, 58080, Note_on_c, 0, 52, 91
1, 58315, Note_on_c, 0, 67, 0
1, 58315, Note_on_c, 0, 72, 0
1, 58320, Tempo, 262009
1, 58320, Note_on_c, 0, 67, 73
1, 58320, Note_on_c, 0, 72, 73
1, 58558, Note_on_c, 0, 72, 0
1, 58558, Note_on_c, 0, 67, 0
1, 58560, Tempo, 251046
1, 58560, Note_on_c, 0, 52, 0
1, 58560, Note_on_c, 0, 72, 91
1, 58560, Note_on_c, 0, 69, 91
1, 58560, Note_on_c, 0, 53, 86
1, 58578, Control_c, 0, 64, 0
1, 59035, Note_on_c, 0, 69, 0
1, 59035, Note_on_c, 0, 72, 0
1, 59040, Tempo, 244898
1, 59040, Note_on_c, 0, 53, 0
1, 59040, Note_on_c, 0, 52, 110
1, 59238, Control_c, 0, 64, 127
1, 59280, Tempo, 279070
1, 59280, Note_on_c, 0, 67, 76
1, 59280, Note_on_c, 0, 72, 76
1, 59520, Note_on_c, 0, 36, 91
1, 59755, Note_on_c, 0, 72, 0
1, 59755, Note_on_c, 0, 67, 0
1, 59760, Tempo, 255319
1, 59760, Note_on_c, 0, 72, 76
1, 59760, Note_on_c, 0, 67, 76
1, 59998, Note_on_c, 0, 67, 0
1, 59998, Note_on_c, 0, 72, 0
1, 60000, Tempo, 251046
1, 60000, Note_on_c, 0, 52, 0
1, 60000, Note_on_c, 0, 67, 91
1, 60000, Note_on_c, 0, 72, 91
1, 60000, Note_on_c, 0, 64, 91
1, 60000, Note_on_c, 0, 48, 86
1, 60010, Control_c, 0, 64, 0
1, 60475, Note_on_c, 0, 64, 0
1, 60475, Note_on_c, 0, 72, 0
1, 60475, Note_on_c, 0, 67, 0
1, 60480, Tempo, 245399
1, 60480, Note_on_c, 0, 36, 0
1, 60480, Note_on_c, 0, 48, 0
1, 60480, Note_on_c, 0, 50, 108
1, 60695, Control_c, 0, 64, 127
1, 60720, Tempo, 279070
1, 60720, Note_on_c, 0, 72, 81
1, 60720, Note_on_c, 0, 67, 81
1, 60720, Note_on_c, 0, 65, 81
1, 60960, Note_on_c, 0, 36, 91
1, 61195, Note_on_c, 0, 65, 0
1, 61195, Note_on_c, 0, 67, 0
1, 61195, Note_on_c, 0, 72, 0
1, 61200, Tempo, 254777
1, 61200, Note_on_c, 0, 72, 81
1, 61200, Note_on_c, 0, 67, 81
1, 61200, Note_on_c, 0, 65, 81
1, 61438, Note_on_c, 0, 65, 0
1, 61438, Note_on_c, 0, 72, 0
1, 61438, Note_on_c, 0, 67, 0
1, 61440, Tempo, 250000
1, 61440, Note_on_c, 0, 50, 0
1, 61440, Note_on_c, 0, 72, 98
1, 61440, Note_on_c, 0, 67, 98
1, 61440, Note_on_c, 0, 52, 88
1, 61458, Control_c, 0, 64, 0
1, 61915, Note_on_c, 0, 67, 0
1, 61915, Note_on_c, 0, 72, 0
1, 61920, Tempo, 244898
1, 61920, Note_on_c, 0, 36, 0
1, 61920, Note_on_c, 0, 52, 0
1, 61920, Note_on_c, 0, 48, 109
1, 62090, Control_c, 0, 64, 127
1, 62160, Tempo, 279070
1, 62160, Note_on_c, 0, 72, 84
1, 62160, Note_on_c, 0, 67, 84
1, 62160, Note_on_c, 0, 64, 84
1, 62400, Note_on_c, 0, 36, 92
1, 62635, Note_on_c, 0, 64, 0
1, 62635, Note_on_c, 0, 67, 0
1, 62635, Note_on_c, 0, 72, 0
1, 62640, Tempo, 272109
1, 62640, Note_on_c, 0, 72, 84
1, 62640, Note_on_c, 0, 67, 84
1, 62640, Note_on_c, 0, 64, 84
1, 62878, Note_on_c, 0, 64, 0
1, 62878, Note_on_c, 0, 72, 0
1, 62878, Note_on_c, 0, 67, 0
1, 62880, Tempo, 254777
1, 62880, Note_on_c, 0, 48, 0
1, 62880, Note_on_c, 0, 72, 98
1, 62880, Note_on_c, 0, 67, 98
1, 62880, Note_on_c, 0, 60, 98
1, 62880, Note_on_c, 0, 43, 88
1, 62896, Control_c, 0, 64, 0
1, 63355, Note_on_c, 0, 60, 0
1, 63355, Note_on_c, 0, 67, 0
1, 63355, Note_on_c, 0, 72, 0
1, 63360, Tempo, 244898
1, 63360, Note_on_c, 0, 36, 0
1, 63360, Note_on_c, 0, 43, 0
1, 63360, Control_c, 0, 91, 127
1, 63360, Note_on_c, 0, 52, 107
1, 63360, Note_on_c, 0, 43, 107
1, 63360, Control_c, 0, 91, 127
1, 63600, Tempo, 279070
1, 63600, Note_on_c, 0, 64, 79
1, 63600, Note_on_c, 0, 72, 79
1, 63600, Note_on_c, 0, 67, 79
1, 63614, Control_c, 0, 64, 127
1, 63840, Note_on_c, 0, 36, 90
1, 64075, Note_on_c, 0, 67, 0
1, 64075, Note_on_c, 0, 72, 0
1, 64075, Note_on_c, 0, 64, 0
1, 64080, Tempo, 258065
1, 64080, Note_on_c, 0, 64, 79
1, 64080, Note_on_c, 0, 67, 79
1, 64080, Note_on_c, 0, 72, 79
1, 64318, Note_on_c, 0, 72, 0
1, 64318, Note_on_c, 0, 64, 0
1, 64318, Note_on_c, 0, 67, 0
1, 64320, Tempo, 254237
1, 64320, Note_on_c, 0, 43, 0
1, 64320, Note_on_c, 0, 52, 0
1, 64320, Note_on_c, 0, 65, 95
1, 64320, Note_on_c, 0, 72, 95
1, 64320, Note_on_c, 0, 67, 95
1, 64320, Note_on_c, 0, 45, 87
1, 64320, Note_on_c, 0, 53, 87
1, 64336, Control_c, 0, 64, 0
1, 64795, Note_on_c, 0, 67, 0
1, 64795, Note_on_c, 0, 72, 0
1, 64795, Note_on_c, 0, 65, 0
1, 64800, Tempo, 244898
1, 64800, Note_on_c, 0, 36, 0
1, 64800, Note_on_c, 0, 45, 0
1, 64800, Note_on_c, 0, 53, 0
1, 64800, Note_on_c, 0, 43, 108
1, 64800, Note_on_c, 0, 52, 108
1, 65040, Tempo, 279070
1, 65040, Note_on_c, 0, 64, 79
1, 65040, Note_on_c, 0, 67, 79
1, 65040, Note_on_c, 0, 72, 79
1, 65111, Control_c, 0, 64, 127
1, 65280, Note_on_c, 0, 36, 90
1, 65515, Note_on_c, 0, 72, 0
1, 65515, Note_on_c, 0, 67, 0
1, 65515, Note_on_c, 0, 64, 0
1, 65520, Tempo, 256959
1, 65520, Note_on_c, 0, 64, 79
1, 65520, Note_on_c, 0, 72, 79
1, 65520, Note_on_c, 0, 67, 79
1, 65758, Note_on_c, 0, 67, 0
1, 65758, Note_on_c, 0, 64, 0
1, 65758, Note_on_c, 0, 72, 0
1, 65760, Tempo, 252632
1, 65760, Note_on_c, 0, 52, 0
1, 65760, Note_on_c, 0, 43, 0
1, 65760, Note_on_c, 0, 67, 95
1, 65760, Note_on_c, 0, 72, 95
1, 65760, Note_on_c, 0, 60, 95
1, 65760, Note_on_c, 0, 40, 88
1, 65760, Note_on_c, 0, 48, 88
1, 65776, Control_c, 0, 64, 0
1, 66235, Note_on_c, 0, 60, 0
1, 66235, Note_on_c, 0, 72, 0
1, 66235, Note_on_c, 0, 67, 0
1, 66240, Tempo, 245399
1, 66240, Note_on_c, 0, 36, 0
1, 66240, Note_on_c, 0, 40, 0
1, 66240, Note_on_c, 0, 48, 0
1, 66240, Note_on_c, 0, 41, 108
1, 66240, Note_on_c, 0, 50, 108
1, 66410, Control_c, 0, 64, 127
1, 66480, Tempo, 283019
1, 66480, Note_on_c, 0, 72, 77
1, 66480, Note_on_c, 0, 62, 77
1, 66480, Note_on_c, 0, 67, 77
1, 66720, Note_on_c, 0, 36, 91
1, 66955, Note_on_c, 0, 67, 0
1, 66955, Note_on_c, 0, 62, 0
1, 66955, Note_on_c, 0, 72, 0
1, 66960, Tempo, 271493
1, 66960, Note_on_c, 0, 72, 77
1, 66960, Note_on_c, 0, 62, 77
1, 66960, Note_on_c, 0, 67, 77
1, 67198, Note_on_c, 0, 67, 0
1, 67198, Note_on_c, 0, 72, 0
1, 67198, Note_on_c, 0, 62, 0
1, 67200, Tempo, 263158
1, 67200, Note_on_c, 0, 50, 0
1, 67200, Note_on_c, 0, 41, 0
1, 67200, Note_on_c, 0, 72, 95
1, 67200, Note_on_c, 0, 64, 95
1, 67200, Note_on_c, 0, 67, 95
1, 67200, Note_on_c, 0, 43, 89
1, 67200, Note_on_c, 0, 52, 89
1, 67218, Control_c, 0, 64, 0
1, 67675, Note_on_c, 0, 67, 0
1, 67675, Note_on_c, 0, 64, 0
1, 67675, Note_on_c, 0, 72, 0
1, 67680, Tempo, 244898
1, 67680, Note_on_c, 0, 36, 0
1, 67680, Note_on_c, 0, 43, 0
1, 67680, Note_on_c, 0, 52, 0
1, 67680, Note_on_c, 0, 40, 109
1, 67680, Note_on_c, 0, 48, 109
1, 67821, Control_c, 0, 64, 127
1, 67920, Tempo, 285036
1, 67920, Note_on_c, 0, 72, 76
1, 67920, Note_on_c, 0, 67, 76
1, 67920, Note_on_c, 0, 60, 76
1, 68160, Note_on_c, 0, 36, 92
1, 68395, Note_on_c, 0, 60, 0
1, 68395, Note_on_c, 0, 67, 0
1, 68395, Note_on_c, 0, 72, 0
1, 68400, Tempo, 272109
1, 68400, Note_on_c, 0, 72, 76
1, 68400, Note_on_c, 0, 60, 76
1, 68638, Note_on_c, 0, 60, 0
1, 68638, Note_on_c, 0, 72, 0
1, 68640, Tempo, 258621
1, 68640, Note_on_c, 0, 40, 0
1, 68640, Note_on_c, 0, 48, 0
1, 68640, Note_on_c, 0, 72, 95
1, 68640, Note_on_c, 0, 60, 95
1, 68640, Note_on_c, 0, 48, 104
1, 69120, Tempo, 245902
1, 69120, Marker_t, "Fine"
1, 69120, Note_on_c, 0, 48, 0
1, 69120, Note_on_c, 0, 36, 0
1, 69120, Note_on_c, 0, 72, 0
1, 69120, Note_on_c, 0, 60, 0
1, 69600, Control_c, 0, 64, 0
1, 69600, End_track
0, 0, End_of_file
