0, 0, Header, 0, 1, 480
1, 0, Start_track
1, 0, Title_t, "Die Jahreszeiten"
1, 0, Title_t, "Oktober"
1, 0, Copyright_t, "Copyright © 2004 by Bernd Krueger"
1, 0, Text_t, "Peter Tschaikowsky"
1, 0, Text_t, "Andante doloroso e molto cantabile"
1, 0, Text_t, "Fertiggestellt am 25.11.2000\012"
1, 0, Text_t, "Normierung: 23.12.2002\012"
1, 0, Text_t, "Update am 6.9.2004\012"
1, 0, Text_t, "Update am 24.9.2008\012"
1, 0, Text_t, "Dauer: 3:12 Minuten\012"
1, 0, SMPTE_offset, 96, 0, 3, 0, 0
1, 0, Time_signature, 4, 2, 24, 8
1, 0, Key_signature, -1, "major"
1, 0, Tempo, 827586
1, 0, Program_c, 0, 0
1, 0, Control_c, 0, 7, 100
1, 0, Control_c, 0, 10, 64
1, 0, Note_on_c, 0, 65, 44
1, 0, Note_on_c, 0, 69, 49
1, 0, Text_t, "bdca426d104a26ac9dcb070447587523"
1, 0, Program_c, 0, 0
1, 0, Control_c, 0, 7, 100
1, 0, Control_c, 0, 10, 64
1, 0, Control_c, 0, 64, 127
1, 0, Note_on_c, 0, 50, 35
1, 0, Note_on_c, 0, 62, 39
1, 0, Note_on_c, 0, 57, 35
1, 480, Tempo, 805369
1, 480, Note_on_c, 0, 77, 52
1, 960, Tempo, 833333
1, 960, Note_on_c, 0, 57, 0
1, 960, Note_on_c, 0, 62, 0
1, 960, Note_on_c, 0, 50, 0
1, 960, Note_on_c, 0, 65, 0
1, 960, Note_on_c, 0, 69, 0
1, 960, Note_on_c, 0, 69, 49
1, 960, Note_on_c, 0, 67, 44
1, 960, Note_on_c, 0, 50, 27
1, 960, Note_on_c, 0, 57, 31
1, 960, Note_on_c, 0, 61, 31
1, 976, Control_c, 0, 64, 0
1, 1253, Control_c, 0, 64, 127
1, 1440, Tempo, 805369
1, 1440, Note_on_c, 0, 77, 0
1, 1440, Note_on_c, 0, 76, 53
1, 1920, Tempo, 816327
1, 1920, Note_on_c, 0, 67, 0
1, 1920, Note_on_c, 0, 57, 0
1, 1920, Note_on_c, 0, 50, 0
1, 1920, Note_on_c, 0, 69, 0
1, 1920, Note_on_c, 0, 61, 0
1, 1920, Note_on_c, 0, 65, 36
1, 1920, Note_on_c, 0, 69, 42
1, 1920, Note_on_c, 0, 50, 33
1, 1920, Note_on_c, 0, 62, 36
1, 1920, Note_on_c, 0, 57, 33
1, 1929, Control_c, 0, 64, 0
1, 2011, Control_c, 0, 64, 127
1, 2160, Note_on_c, 0, 76, 0
1, 2160, Note_on_c, 0, 74, 52
1, 2400, Note_on_c, 0, 74, 0
1, 2400, Note_on_c, 0, 57, 0
1, 2400, Note_on_c, 0, 50, 0
1, 2400, Note_on_c, 0, 65, 0
1, 2400, Note_on_c, 0, 69, 0
1, 2400, Note_on_c, 0, 62, 0
1, 2400, Note_on_c, 0, 68, 54
1, 2640, Note_on_c, 0, 68, 0
1, 2640, Note_on_c, 0, 69, 50
1, 2880, Note_on_c, 0, 69, 0
1, 2880, Note_on_c, 0, 62, 42
1, 2880, Note_on_c, 0, 69, 42
1, 2880, Note_on_c, 0, 74, 52
1, 2880, Note_on_c, 0, 57, 36
1, 2880, Note_on_c, 0, 53, 40
1, 2893, Control_c, 0, 64, 0
1, 3040, Control_c, 0, 64, 127
1, 3360, Note_on_c, 0, 53, 0
1, 3360, Note_on_c, 0, 54, 38
1, 3600, Note_on_c, 0, 74, 0
1, 3600, Note_on_c, 0, 72, 47
1, 3840, Note_on_c, 0, 72, 0
1, 3840, Note_on_c, 0, 54, 0
1, 3840, Note_on_c, 0, 57, 0
1, 3840, Note_on_c, 0, 69, 0
1, 3840, Note_on_c, 0, 67, 47
1, 3840, Note_on_c, 0, 70, 52
1, 3840, Note_on_c, 0, 55, 41
1, 3848, Control_c, 0, 64, 0
1, 4023, Control_c, 0, 64, 127
1, 4267, Tempo, 827586
1, 4320, Tempo, 805369
1, 4320, Note_on_c, 0, 55, 0
1, 4320, Note_on_c, 0, 62, 0
1, 4320, Note_on_c, 0, 67, 0
1, 4320, Note_on_c, 0, 70, 0
1, 4320, Note_on_c, 0, 70, 59
1, 4800, Tempo, 833333
1, 4800, Note_on_c, 0, 62, 49
1, 4800, Note_on_c, 0, 60, 44
1, 4800, Note_on_c, 0, 45, 27
1, 4800, Note_on_c, 0, 50, 31
1, 4807, Control_c, 0, 64, 0
1, 5051, Control_c, 0, 64, 127
1, 5280, Tempo, 805369
1, 5280, Note_on_c, 0, 70, 0
1, 5280, Note_on_c, 0, 66, 57
1, 5760, Tempo, 816327
1, 5760, Note_on_c, 0, 45, 0
1, 5760, Note_on_c, 0, 50, 0
1, 5760, Note_on_c, 0, 62, 0
1, 5760, Note_on_c, 0, 60, 0
1, 5760, Note_on_c, 0, 58, 36
1, 5760, Note_on_c, 0, 62, 36
1, 5760, Note_on_c, 0, 50, 42
1, 5760, Note_on_c, 0, 46, 36
1, 5776, Control_c, 0, 64, 0
1, 5897, Control_c, 0, 64, 127
1, 6000, Tempo, 800000
1, 6000, Note_on_c, 0, 66, 0
1, 6000, Note_on_c, 0, 67, 57
1, 6240, Tempo, 810811
1, 6240, Note_on_c, 0, 67, 0
1, 6240, Note_on_c, 0, 58, 0
1, 6240, Note_on_c, 0, 62, 0
1, 6240, Note_on_c, 0, 67, 36
1, 6240, Note_on_c, 0, 64, 34
1, 6240, Note_on_c, 0, 76, 62
1, 6240, Note_on_c, 0, 58, 34
1, 6480, Note_on_c, 0, 76, 0
1, 6480, Note_on_c, 0, 74, 58
1, 6720, Tempo, 821918
1, 6720, Note_on_c, 0, 74, 0
1, 6720, Note_on_c, 0, 58, 0
1, 6720, Note_on_c, 0, 67, 0
1, 6720, Note_on_c, 0, 46, 0
1, 6720, Note_on_c, 0, 50, 0
1, 6720, Note_on_c, 0, 64, 0
1, 6720, Note_on_c, 0, 64, 36
1, 6720, Note_on_c, 0, 67, 36
1, 6720, Note_on_c, 0, 74, 59
1, 6720, Note_on_c, 0, 45, 32
1, 6720, Note_on_c, 0, 57, 36
1, 6720, Note_on_c, 0, 52, 32
1, 6731, Control_c, 0, 64, 0
1, 6926, Control_c, 0, 64, 127
1, 7200, Note_on_c, 0, 74, 0
1, 7200, Note_on_c, 0, 73, 56
1, 7680, Note_on_c, 0, 73, 0
1, 7680, Note_on_c, 0, 52, 0
1, 7680, Note_on_c, 0, 45, 0
1, 7680, Note_on_c, 0, 64, 0
1, 7680, Note_on_c, 0, 67, 0
1, 7680, Note_on_c, 0, 57, 0
1, 7680, Control_c, 0, 64, 0
1, 7680, Note_on_c, 0, 55, 48
1, 7840, Tempo, 805369
1, 7840, Note_on_c, 0, 69, 58
1, 7971, Control_c, 0, 64, 127
1, 8000, Note_on_c, 0, 69, 0
1, 8000, Note_on_c, 0, 71, 55
1, 8160, Tempo, 800000
1, 8160, Note_on_c, 0, 71, 0
1, 8160, Note_on_c, 0, 73, 57
1, 8160, Note_on_c, 0, 61, 37
1, 8160, Note_on_c, 0, 57, 37
1, 8160, Note_on_c, 0, 64, 41
1, 8240, Tempo, 805369
1, 8320, Tempo, 810811
1, 8320, Note_on_c, 0, 73, 0
1, 8320, Note_on_c, 0, 74, 61
1, 8400, Tempo, 816327
1, 8440, Tempo, 821918
1, 8480, Note_on_c, 0, 74, 0
1, 8480, Note_on_c, 0, 76, 64
1, 8520, Tempo, 827586
1, 8600, Tempo, 833333
1, 8640, Tempo, 839161
1, 8640, Note_on_c, 0, 76, 0
1, 8640, Note_on_c, 0, 57, 0
1, 8640, Note_on_c, 0, 55, 0
1, 8640, Note_on_c, 0, 61, 0
1, 8640, Note_on_c, 0, 64, 0
1, 8640, Note_on_c, 0, 81, 68
1, 8640, Note_on_c, 0, 53, 40
1, 8651, Control_c, 0, 64, 0
1, 8766, Control_c, 0, 64, 127
1, 9120, Tempo, 821918
1, 9120, Note_on_c, 0, 65, 36
1, 9120, Note_on_c, 0, 57, 33
1, 9120, Note_on_c, 0, 62, 36
1, 9600, Note_on_c, 0, 62, 0
1, 9600, Note_on_c, 0, 65, 0
1, 9600, Note_on_c, 0, 57, 0
1, 9600, Note_on_c, 0, 53, 0
1, 9600, Note_on_c, 0, 52, 49
1, 9607, Control_c, 0, 64, 0
1, 9697, Control_c, 0, 64, 127
1, 9760, Tempo, 805369
1, 9760, Note_on_c, 0, 81, 0
1, 9760, Note_on_c, 0, 69, 61
1, 9920, Note_on_c, 0, 69, 0
1, 9920, Note_on_c, 0, 71, 57
1, 10080, Tempo, 800000
1, 10080, Note_on_c, 0, 71, 0
1, 10080, Note_on_c, 0, 73, 61
1, 10080, Note_on_c, 0, 67, 47
1, 10080, Note_on_c, 0, 57, 41
1, 10080, Note_on_c, 0, 61, 41
1, 10160, Tempo, 805369
1, 10240, Tempo, 810811
1, 10240, Note_on_c, 0, 73, 0
1, 10240, Note_on_c, 0, 74, 65
1, 10280, Tempo, 816327
1, 10360, Tempo, 821918
1, 10400, Tempo, 827586
1, 10400, Note_on_c, 0, 74, 0
1, 10400, Note_on_c, 0, 76, 68
1, 10440, Tempo, 833333
1, 10520, Tempo, 839161
1, 10560, Note_on_c, 0, 76, 0
1, 10560, Note_on_c, 0, 57, 0
1, 10560, Note_on_c, 0, 52, 0
1, 10560, Note_on_c, 0, 67, 0
1, 10560, Note_on_c, 0, 61, 0
1, 10560, Note_on_c, 0, 81, 72
1, 10560, Note_on_c, 0, 50, 50
1, 10571, Control_c, 0, 64, 0
1, 10737, Control_c, 0, 64, 127
1, 11040, Note_on_c, 0, 60, 37
1, 11040, Note_on_c, 0, 57, 37
1, 11040, Note_on_c, 0, 66, 41
1, 11280, Note_on_c, 0, 81, 0
1, 11280, Note_on_c, 0, 74, 67
1, 11520, Tempo, 821918
1, 11520, Note_on_c, 0, 74, 0
1, 11520, Note_on_c, 0, 66, 0
1, 11520, Note_on_c, 0, 50, 0
1, 11520, Note_on_c, 0, 60, 0
1, 11520, Note_on_c, 0, 57, 0
1, 11520, Note_on_c, 0, 79, 69
1, 11520, Note_on_c, 0, 43, 50
1, 11529, Control_c, 0, 64, 0
1, 11571, Control_c, 0, 64, 127
1, 11680, Note_on_c, 0, 79, 0
1, 11680, Note_on_c, 0, 77, 65
1, 11840, Note_on_c, 0, 77, 0
1, 11840, Note_on_c, 0, 76, 64
1, 11880, Tempo, 895522
1, 11940, Note_on_c, 0, 76, 0
1, 11940, Note_on_c, 0, 74, 62
1, 11970, Note_on_c, 0, 74, 0
1, 11970, Note_on_c, 0, 76, 62
1, 12000, Tempo, 821918
1, 12000, Note_on_c, 0, 76, 0
1, 12000, Note_on_c, 0, 43, 0
1, 12000, Note_on_c, 0, 74, 69
1, 12000, Note_on_c, 0, 67, 41
1, 12000, Note_on_c, 0, 58, 37
1, 12000, Note_on_c, 0, 55, 37
1, 12000, Note_on_c, 0, 62, 37
1, 12160, Note_on_c, 0, 74, 0
1, 12160, Note_on_c, 0, 73, 64
1, 12320, Tempo, 851064
1, 12320, Note_on_c, 0, 73, 0
1, 12320, Note_on_c, 0, 74, 64
1, 12480, Tempo, 821918
1, 12480, Note_on_c, 0, 74, 0
1, 12480, Note_on_c, 0, 55, 0
1, 12480, Note_on_c, 0, 67, 0
1, 12480, Note_on_c, 0, 58, 0
1, 12480, Note_on_c, 0, 62, 0
1, 12480, Note_on_c, 0, 77, 69
1, 12480, Note_on_c, 0, 44, 48
1, 12491, Control_c, 0, 64, 0
1, 12635, Control_c, 0, 64, 127
1, 12960, Note_on_c, 0, 44, 0
1, 12960, Note_on_c, 0, 62, 36
1, 12960, Note_on_c, 0, 59, 36
1, 12960, Note_on_c, 0, 56, 36
1, 12960, Note_on_c, 0, 65, 40
1, 13120, Note_on_c, 0, 77, 0
1, 13120, Note_on_c, 0, 76, 63
1, 13280, Tempo, 863309
1, 13280, Note_on_c, 0, 76, 0
1, 13280, Note_on_c, 0, 74, 57
1, 13440, Tempo, 816327
1, 13440, Note_on_c, 0, 65, 0
1, 13440, Note_on_c, 0, 56, 0
1, 13440, Note_on_c, 0, 62, 0
1, 13440, Note_on_c, 0, 59, 0
1, 13440, Note_on_c, 0, 45, 49
1, 13450, Control_c, 0, 64, 0
1, 13506, Control_c, 0, 64, 127
1, 13600, Note_on_c, 0, 74, 0
1, 13600, Note_on_c, 0, 73, 68
1, 13760, Note_on_c, 0, 73, 0
1, 13760, Note_on_c, 0, 72, 58
1, 13920, Tempo, 821918
1, 13920, Note_on_c, 0, 45, 0
1, 13920, Note_on_c, 0, 65, 45
1, 13920, Note_on_c, 0, 62, 39
1, 13920, Note_on_c, 0, 57, 39
1, 13931, Control_c, 0, 64, 0
1, 14005, Control_c, 0, 64, 127
1, 14080, Note_on_c, 0, 72, 0
1, 14080, Note_on_c, 0, 71, 66
1, 14240, Note_on_c, 0, 71, 0
1, 14240, Note_on_c, 0, 70, 57
1, 14400, Note_on_c, 0, 57, 0
1, 14400, Note_on_c, 0, 65, 0
1, 14400, Note_on_c, 0, 62, 0
1, 14400, Note_on_c, 0, 45, 48
1, 14416, Control_c, 0, 64, 0
1, 14479, Control_c, 0, 64, 127
1, 14560, Note_on_c, 0, 70, 0
1, 14560, Note_on_c, 0, 69, 63
1, 14720, Note_on_c, 0, 69, 0
1, 14720, Note_on_c, 0, 65, 55
1, 14880, Tempo, 805369
1, 14880, Note_on_c, 0, 45, 0
1, 14880, Note_on_c, 0, 61, 41
1, 14880, Note_on_c, 0, 57, 37
1, 14880, Note_on_c, 0, 55, 37
1, 14888, Control_c, 0, 64, 0
1, 14937, Control_c, 0, 64, 127
1, 15120, Tempo, 991736
1, 15140, Note_on_c, 0, 65, 0
1, 15140, Note_on_c, 0, 64, 50
1, 15170, Note_on_c, 0, 64, 0
1, 15170, Note_on_c, 0, 65, 50
1, 15200, Tempo, 833333
1, 15200, Note_on_c, 0, 65, 0
1, 15200, Note_on_c, 0, 64, 56
1, 15360, Tempo, 784314
1, 15360, Note_on_c, 0, 64, 0
1, 15360, Note_on_c, 0, 55, 0
1, 15360, Note_on_c, 0, 57, 0
1, 15360, Note_on_c, 0, 61, 0
1, 15360, Note_on_c, 0, 62, 54
1, 15360, Note_on_c, 0, 53, 42
1, 15360, Note_on_c, 0, 57, 50
1, 15360, Note_on_c, 0, 50, 40
1, 15365, Control_c, 0, 64, 0
1, 15566, Control_c, 0, 64, 127
1, 15600, Note_on_c, 0, 62, 0
1, 15840, Tempo, 759494
1, 15840, Note_on_c, 0, 65, 60
1, 16080, Tempo, 779221
1, 16080, Note_on_c, 0, 69, 49
1, 16320, Tempo, 769231
1, 16320, Note_on_c, 0, 53, 0
1, 16320, Note_on_c, 0, 50, 0
1, 16320, Note_on_c, 0, 57, 0
1, 16320, Note_on_c, 0, 55, 49
1, 16320, Note_on_c, 0, 57, 55
1, 16330, Control_c, 0, 64, 0
1, 16537, Control_c, 0, 64, 127
1, 16560, Tempo, 784314
1, 16560, Note_on_c, 0, 69, 0
1, 16560, Note_on_c, 0, 71, 53
1, 16800, Tempo, 794702
1, 16800, Note_on_c, 0, 65, 0
1, 16800, Note_on_c, 0, 64, 62
1, 17040, Note_on_c, 0, 71, 0
1, 17040, Note_on_c, 0, 73, 57
1, 17280, Tempo, 769231
1, 17280, Note_on_c, 0, 57, 0
1, 17280, Note_on_c, 0, 55, 0
1, 17280, Note_on_c, 0, 53, 41
1, 17280, Note_on_c, 0, 57, 47
1, 17290, Control_c, 0, 64, 0
1, 17361, Control_c, 0, 64, 127
1, 17520, Tempo, 779221
1, 17520, Note_on_c, 0, 64, 0
1, 17520, Note_on_c, 0, 73, 0
1, 17520, Note_on_c, 0, 74, 49
1, 17520, Note_on_c, 0, 62, 58
1, 17760, Tempo, 779221
1, 17760, Note_on_c, 0, 62, 0
1, 17760, Note_on_c, 0, 57, 0
1, 17760, Note_on_c, 0, 53, 0
1, 17760, Note_on_c, 0, 56, 61
1, 17767, Control_c, 0, 64, 0
1, 18000, Tempo, 769231
1, 18000, Note_on_c, 0, 74, 0
1, 18000, Note_on_c, 0, 73, 54
1, 18000, Note_on_c, 0, 57, 57
1, 18010, Note_on_c, 0, 56, 0
1, 18240, Tempo, 750000
1, 18240, Note_on_c, 0, 62, 62
1, 18240, Note_on_c, 0, 54, 47
1, 18249, Control_c, 0, 64, 0
1, 18339, Control_c, 0, 64, 127
1, 18480, Tempo, 755668
1, 18480, Note_on_c, 0, 73, 0
1, 18480, Note_on_c, 0, 72, 53
1, 18720, Tempo, 769231
1, 18720, Note_on_c, 0, 72, 0
1, 18720, Note_on_c, 0, 70, 52
1, 18960, Tempo, 784314
1, 18960, Note_on_c, 0, 70, 0
1, 18960, Note_on_c, 0, 62, 0
1, 18960, Note_on_c, 0, 69, 51
1, 18960, Note_on_c, 0, 60, 55
1, 19140, Tempo, 909091
1, 19140, Note_on_c, 0, 60, 0
1, 19140, Note_on_c, 0, 54, 0
1, 19140, Note_on_c, 0, 57, 0
1, 19140, Note_on_c, 0, 43, 47
1, 19170, Note_on_c, 0, 50, 47
1, 19200, Tempo, 774194
1, 19200, Note_on_c, 0, 69, 0
1, 19200, Note_on_c, 0, 67, 57
1, 19200, Note_on_c, 0, 58, 57
1, 19208, Control_c, 0, 64, 0
1, 19256, Control_c, 0, 64, 127
1, 19440, Tempo, 754717
1, 19440, Note_on_c, 0, 58, 0
1, 19440, Note_on_c, 0, 67, 0
1, 19440, Note_on_c, 0, 62, 53
1, 19680, Tempo, 750000
1, 19680, Note_on_c, 0, 50, 0
1, 19680, Note_on_c, 0, 43, 0
1, 19680, Note_on_c, 0, 58, 64
1, 19920, Tempo, 759494
1, 19920, Note_on_c, 0, 62, 0
1, 19920, Note_on_c, 0, 74, 67
1, 20160, Tempo, 759494
1, 20160, Note_on_c, 0, 48, 49
1, 20160, Note_on_c, 0, 50, 55
1, 20167, Control_c, 0, 64, 0
1, 20245, Control_c, 0, 64, 127
1, 20400, Tempo, 764331
1, 20400, Note_on_c, 0, 74, 0
1, 20400, Note_on_c, 0, 70, 63
1, 20640, Tempo, 774194
1, 20640, Note_on_c, 0, 58, 0
1, 20640, Note_on_c, 0, 54, 53
1, 20880, Tempo, 784314
1, 20880, Note_on_c, 0, 70, 0
1, 20880, Note_on_c, 0, 69, 57
1, 21120, Tempo, 800000
1, 21120, Note_on_c, 0, 50, 0
1, 21120, Note_on_c, 0, 48, 0
1, 21120, Note_on_c, 0, 46, 51
1, 21120, Note_on_c, 0, 50, 51
1, 21129, Control_c, 0, 64, 0
1, 21208, Control_c, 0, 64, 127
1, 21360, Tempo, 779221
1, 21360, Note_on_c, 0, 54, 0
1, 21360, Note_on_c, 0, 69, 0
1, 21360, Note_on_c, 0, 67, 57
1, 21360, Note_on_c, 0, 55, 62
1, 21600, Tempo, 805369
1, 21600, Note_on_c, 0, 55, 0
1, 21600, Note_on_c, 0, 50, 0
1, 21600, Note_on_c, 0, 46, 0
1, 21600, Note_on_c, 0, 64, 63
1, 21840, Note_on_c, 0, 64, 0
1, 21840, Note_on_c, 0, 67, 0
1, 21840, Note_on_c, 0, 68, 56
1, 21840, Note_on_c, 0, 62, 60
1, 22020, Tempo, 875912
1, 22020, Note_on_c, 0, 62, 0
1, 22020, Note_on_c, 0, 45, 36
1, 22035, Control_c, 0, 64, 0
1, 22050, Note_on_c, 0, 52, 36
1, 22080, Tempo, 800000
1, 22080, Note_on_c, 0, 62, 62
1, 22129, Control_c, 0, 64, 127
1, 22320, Note_on_c, 0, 68, 0
1, 22320, Note_on_c, 0, 69, 55
1, 22560, Tempo, 821918
1, 22560, Note_on_c, 0, 45, 0
1, 22560, Note_on_c, 0, 62, 0
1, 22560, Note_on_c, 0, 52, 0
1, 22560, Note_on_c, 0, 61, 57
1, 22800, Note_on_c, 0, 69, 0
1, 22800, Note_on_c, 0, 64, 53
1, 23040, Tempo, 821918
1, 23040, Note_on_c, 0, 64, 0
1, 23040, Note_on_c, 0, 61, 0
1, 23040, Note_on_c, 0, 58, 50
1, 23040, Note_on_c, 0, 60, 57
1, 23046, Control_c, 0, 64, 0
1, 23200, Tempo, 800000
1, 23200, Note_on_c, 0, 72, 69
1, 23331, Control_c, 0, 64, 127
1, 23360, Tempo, 851064
1, 23360, Note_on_c, 0, 72, 0
1, 23360, Note_on_c, 0, 74, 70
1, 23520, Tempo, 805369
1, 23520, Note_on_c, 0, 74, 0
1, 23520, Note_on_c, 0, 76, 73
1, 23520, Note_on_c, 0, 67, 59
1, 23680, Note_on_c, 0, 76, 0
1, 23680, Note_on_c, 0, 77, 70
1, 23840, Note_on_c, 0, 77, 0
1, 23840, Note_on_c, 0, 79, 67
1, 24000, Tempo, 821918
1, 24000, Note_on_c, 0, 79, 0
1, 24000, Note_on_c, 0, 58, 0
1, 24000, Note_on_c, 0, 60, 0
1, 24000, Note_on_c, 0, 72, 74
1, 24000, Note_on_c, 0, 60, 44
1, 24000, Note_on_c, 0, 57, 44
1, 24007, Control_c, 0, 64, 0
1, 24064, Control_c, 0, 64, 127
1, 24160, Note_on_c, 0, 67, 0
1, 24160, Note_on_c, 0, 65, 57
1, 24320, Tempo, 839161
1, 24320, Note_on_c, 0, 65, 0
1, 24320, Note_on_c, 0, 64, 57
1, 24480, Tempo, 816327
1, 24480, Note_on_c, 0, 64, 0
1, 24480, Note_on_c, 0, 67, 61
1, 24488, Control_c, 0, 64, 0
1, 24544, Control_c, 0, 64, 127
1, 24800, Tempo, 851064
1, 24800, Note_on_c, 0, 67, 0
1, 24800, Note_on_c, 0, 65, 59
1, 24960, Tempo, 821918
1, 24960, Note_on_c, 0, 65, 0
1, 24960, Note_on_c, 0, 72, 0
1, 24960, Note_on_c, 0, 60, 0
1, 24960, Note_on_c, 0, 57, 0
1, 24960, Control_c, 0, 64, 0
1, 24960, Note_on_c, 0, 65, 61
1, 24960, Note_on_c, 0, 55, 52
1, 24960, Note_on_c, 0, 57, 59
1, 25120, Tempo, 800000
1, 25120, Note_on_c, 0, 69, 71
1, 25251, Control_c, 0, 64, 127
1, 25280, Tempo, 833333
1, 25280, Note_on_c, 0, 69, 0
1, 25280, Note_on_c, 0, 71, 71
1, 25440, Tempo, 805369
1, 25440, Note_on_c, 0, 71, 0
1, 25440, Note_on_c, 0, 65, 0
1, 25440, Note_on_c, 0, 73, 73
1, 25440, Note_on_c, 0, 64, 57
1, 25600, Note_on_c, 0, 73, 0
1, 25600, Note_on_c, 0, 74, 70
1, 25760, Note_on_c, 0, 74, 0
1, 25760, Note_on_c, 0, 76, 67
1, 25920, Tempo, 821918
1, 25920, Note_on_c, 0, 76, 0
1, 25920, Note_on_c, 0, 55, 0
1, 25920, Note_on_c, 0, 57, 0
1, 25920, Note_on_c, 0, 69, 74
1, 25920, Note_on_c, 0, 57, 47
1, 25920, Note_on_c, 0, 53, 47
1, 25924, Control_c, 0, 64, 0
1, 25984, Control_c, 0, 64, 127
1, 26080, Note_on_c, 0, 64, 0
1, 26080, Note_on_c, 0, 62, 57
1, 26240, Tempo, 839161
1, 26240, Note_on_c, 0, 62, 0
1, 26240, Note_on_c, 0, 61, 57
1, 26400, Tempo, 816327
1, 26400, Note_on_c, 0, 61, 0
1, 26400, Note_on_c, 0, 64, 61
1, 26411, Control_c, 0, 64, 0
1, 26478, Control_c, 0, 64, 127
1, 26720, Note_on_c, 0, 64, 0
1, 26720, Note_on_c, 0, 62, 59
1, 26820, Note_on_c, 0, 43, 48
1, 26880, Note_on_c, 0, 43, 0
1, 26880, Note_on_c, 0, 53, 0
1, 26880, Note_on_c, 0, 69, 0
1, 26880, Note_on_c, 0, 57, 0
1, 26880, Note_on_c, 0, 62, 0
1, 26880, Note_on_c, 0, 60, 59
1, 26880, Note_on_c, 0, 50, 52
1, 26880, Note_on_c, 0, 55, 52
1, 26885, Control_c, 0, 64, 0
1, 27040, Note_on_c, 0, 64, 71
1, 27140, Note_on_c, 0, 64, 0
1, 27200, Note_on_c, 0, 65, 70
1, 27300, Note_on_c, 0, 65, 0
1, 27360, Note_on_c, 0, 60, 0
1, 27360, Note_on_c, 0, 67, 71
1, 27360, Note_on_c, 0, 58, 56
1, 27460, Note_on_c, 0, 67, 0
1, 27520, Note_on_c, 0, 69, 70
1, 27620, Note_on_c, 0, 69, 0
1, 27680, Tempo, 800000
1, 27680, Note_on_c, 0, 70, 71
1, 27716, Control_c, 0, 64, 127
1, 27840, Tempo, 816327
1, 27840, Note_on_c, 0, 58, 0
1, 27840, Note_on_c, 0, 50, 0
1, 27840, Note_on_c, 0, 55, 0
1, 27840, Note_on_c, 0, 46, 57
1, 28000, Note_on_c, 0, 70, 0
1, 28000, Note_on_c, 0, 70, 71
1, 28160, Note_on_c, 0, 70, 0
1, 28160, Note_on_c, 0, 69, 67
1, 28320, Note_on_c, 0, 46, 0
1, 28320, Note_on_c, 0, 62, 46
1, 28320, Note_on_c, 0, 57, 41
1, 28320, Note_on_c, 0, 53, 41
1, 28328, Control_c, 0, 64, 0
1, 28366, Control_c, 0, 64, 127
1, 28480, Note_on_c, 0, 69, 0
1, 28480, Note_on_c, 0, 68, 69
1, 28640, Note_on_c, 0, 68, 0
1, 28640, Note_on_c, 0, 67, 66
1, 28800, Tempo, 845070
1, 28800, Note_on_c, 0, 53, 0
1, 28800, Note_on_c, 0, 62, 0
1, 28800, Note_on_c, 0, 57, 0
1, 28800, Note_on_c, 0, 45, 53
1, 28809, Control_c, 0, 64, 0
1, 28881, Control_c, 0, 64, 127
1, 28960, Tempo, 816327
1, 28960, Note_on_c, 0, 67, 0
1, 28960, Note_on_c, 0, 66, 68
1, 29120, Note_on_c, 0, 66, 0
1, 29120, Note_on_c, 0, 65, 62
1, 29280, Note_on_c, 0, 45, 0
1, 29280, Note_on_c, 0, 57, 37
1, 29280, Note_on_c, 0, 55, 37
1, 29280, Note_on_c, 0, 61, 40
1, 29287, Control_c, 0, 64, 0
1, 29340, Control_c, 0, 64, 127
1, 29440, Note_on_c, 0, 65, 0
1, 29440, Note_on_c, 0, 63, 66
1, 29600, Tempo, 833333
1, 29600, Note_on_c, 0, 63, 0
1, 29600, Note_on_c, 0, 64, 61
1, 29760, Tempo, 839161
1, 29760, Note_on_c, 0, 61, 0
1, 29760, Note_on_c, 0, 57, 0
1, 29760, Note_on_c, 0, 55, 0
1, 29760, Note_on_c, 0, 53, 38
1, 29760, Note_on_c, 0, 57, 38
1, 29760, Note_on_c, 0, 38, 35
1, 29760, Note_on_c, 0, 45, 35
1, 29766, Control_c, 0, 64, 0
1, 29940, Control_c, 0, 64, 127
1, 30080, Tempo, 902256
1, 30080, Note_on_c, 0, 64, 0
1, 30080, Note_on_c, 0, 61, 55
1, 30240, Tempo, 923077
1, 30240, Note_on_c, 0, 61, 0
1, 30240, Note_on_c, 0, 61, 55
1, 30560, Note_on_c, 0, 61, 0
1, 30560, Note_on_c, 0, 62, 50
1, 30720, Tempo, 816549
1, 30720, Note_on_c, 0, 62, 0
1, 30720, Note_on_c, 0, 45, 0
1, 30720, Note_on_c, 0, 53, 0
1, 30720, Note_on_c, 0, 57, 0
1, 30720, Note_on_c, 0, 38, 0
1, 30720, Control_c, 0, 64, 0
1, 30720, Note_on_c, 0, 46, 48
1, 30801, Control_c, 0, 64, 127
1, 30880, Tempo, 795334
1, 30880, Note_on_c, 0, 67, 58
1, 31040, Note_on_c, 0, 67, 0
1, 31040, Note_on_c, 0, 69, 58
1, 31200, Tempo, 790097
1, 31200, Note_on_c, 0, 69, 0
1, 31200, Note_on_c, 0, 46, 0
1, 31200, Note_on_c, 0, 70, 57
1, 31200, Note_on_c, 0, 60, 37
1, 31200, Note_on_c, 0, 55, 37
1, 31200, Note_on_c, 0, 64, 41
1, 31213, Control_c, 0, 64, 0
1, 31271, Control_c, 0, 64, 127
1, 31320, Tempo, 795334
1, 31360, Note_on_c, 0, 70, 0
1, 31360, Note_on_c, 0, 71, 60
1, 31400, Tempo, 800427
1, 31520, Note_on_c, 0, 71, 0
1, 31520, Note_on_c, 0, 72, 63
1, 31680, Tempo, 816549
1, 31680, Note_on_c, 0, 72, 0
1, 31680, Note_on_c, 0, 60, 0
1, 31680, Note_on_c, 0, 55, 0
1, 31680, Note_on_c, 0, 64, 0
1, 31680, Note_on_c, 0, 77, 67
1, 31680, Note_on_c, 0, 45, 46
1, 31688, Control_c, 0, 64, 0
1, 31806, Control_c, 0, 64, 127
1, 32000, Note_on_c, 0, 77, 0
1, 32000, Note_on_c, 0, 76, 63
1, 32160, Tempo, 833449
1, 32160, Note_on_c, 0, 76, 0
1, 32160, Note_on_c, 0, 45, 0
1, 32160, Note_on_c, 0, 76, 65
1, 32160, Note_on_c, 0, 65, 41
1, 32160, Note_on_c, 0, 60, 37
1, 32160, Note_on_c, 0, 57, 37
1, 32480, Note_on_c, 0, 76, 0
1, 32480, Note_on_c, 0, 74, 63
1, 32640, Note_on_c, 0, 74, 0
1, 32640, Note_on_c, 0, 57, 0
1, 32640, Note_on_c, 0, 60, 0
1, 32640, Note_on_c, 0, 65, 0
1, 32640, Note_on_c, 0, 74, 64
1, 32640, Note_on_c, 0, 43, 46
1, 32647, Control_c, 0, 64, 0
1, 32739, Control_c, 0, 64, 127
1, 32800, Tempo, 805694
1, 32800, Note_on_c, 0, 64, 54
1, 32960, Note_on_c, 0, 64, 0
1, 32960, Note_on_c, 0, 65, 54
1, 33120, Tempo, 800427
1, 33120, Note_on_c, 0, 65, 0
1, 33120, Note_on_c, 0, 43, 0
1, 33120, Note_on_c, 0, 74, 0
1, 33120, Note_on_c, 0, 66, 56
1, 33120, Note_on_c, 0, 72, 67
1, 33120, Note_on_c, 0, 58, 36
1, 33120, Note_on_c, 0, 60, 36
1, 33120, Note_on_c, 0, 64, 41
1, 33131, Control_c, 0, 64, 0
1, 33191, Control_c, 0, 64, 127
1, 33280, Note_on_c, 0, 66, 0
1, 33280, Note_on_c, 0, 67, 56
1, 33440, Tempo, 833449
1, 33440, Note_on_c, 0, 67, 0
1, 33440, Note_on_c, 0, 68, 56
1, 33600, Tempo, 795334
1, 33600, Note_on_c, 0, 68, 0
1, 33600, Note_on_c, 0, 60, 0
1, 33600, Note_on_c, 0, 64, 0
1, 33600, Note_on_c, 0, 58, 0
1, 33600, Note_on_c, 0, 70, 67
1, 33600, Note_on_c, 0, 41, 46
1, 33612, Control_c, 0, 64, 0
1, 33667, Control_c, 0, 64, 127
1, 33760, Note_on_c, 0, 72, 0
1, 33760, Note_on_c, 0, 72, 56
1, 33920, Tempo, 816327
1, 33920, Note_on_c, 0, 72, 0
1, 33920, Note_on_c, 0, 71, 56
1, 34080, Note_on_c, 0, 71, 0
1, 34080, Note_on_c, 0, 41, 0
1, 34080, Note_on_c, 0, 70, 0
1, 34080, Note_on_c, 0, 74, 61
1, 34080, Note_on_c, 0, 69, 45
1, 34080, Note_on_c, 0, 65, 41
1, 34080, Note_on_c, 0, 57, 36
1, 34080, Note_on_c, 0, 60, 36
1, 34088, Control_c, 0, 64, 0
1, 34158, Control_c, 0, 64, 127
1, 34400, Note_on_c, 0, 74, 0
1, 34400, Note_on_c, 0, 72, 58
1, 34560, Tempo, 816549
1, 34560, Note_on_c, 0, 72, 0
1, 34560, Note_on_c, 0, 60, 0
1, 34560, Note_on_c, 0, 69, 0
1, 34560, Note_on_c, 0, 65, 0
1, 34560, Note_on_c, 0, 57, 0
1, 34560, Note_on_c, 0, 46, 48
1, 34563, Control_c, 0, 64, 0
1, 34641, Control_c, 0, 64, 127
1, 34720, Tempo, 795334
1, 34720, Note_on_c, 0, 67, 58
1, 34880, Note_on_c, 0, 67, 0
1, 34880, Note_on_c, 0, 69, 58
1, 35040, Tempo, 790097
1, 35040, Note_on_c, 0, 69, 0
1, 35040, Note_on_c, 0, 46, 0
1, 35040, Note_on_c, 0, 70, 57
1, 35040, Note_on_c, 0, 64, 41
1, 35040, Note_on_c, 0, 55, 37
1, 35040, Note_on_c, 0, 60, 37
1, 35053, Control_c, 0, 64, 0
1, 35104, Control_c, 0, 64, 127
1, 35160, Tempo, 795334
1, 35200, Note_on_c, 0, 70, 0
1, 35200, Note_on_c, 0, 71, 60
1, 35240, Tempo, 800427
1, 35360, Note_on_c, 0, 71, 0
1, 35360, Note_on_c, 0, 72, 63
1, 35520, Tempo, 816549
1, 35520, Note_on_c, 0, 72, 0
1, 35520, Note_on_c, 0, 64, 0
1, 35520, Note_on_c, 0, 55, 0
1, 35520, Note_on_c, 0, 60, 0
1, 35520, Note_on_c, 0, 77, 67
1, 35520, Note_on_c, 0, 45, 46
1, 35530, Control_c, 0, 64, 0
1, 35646, Control_c, 0, 64, 127
1, 35840, Note_on_c, 0, 77, 0
1, 35840, Note_on_c, 0, 76, 63
1, 36000, Tempo, 833449
1, 36000, Note_on_c, 0, 76, 0
1, 36000, Note_on_c, 0, 45, 0
1, 36000, Note_on_c, 0, 76, 65
1, 36000, Note_on_c, 0, 57, 37
1, 36000, Note_on_c, 0, 60, 37
1, 36000, Note_on_c, 0, 65, 41
1, 36320, Note_on_c, 0, 76, 0
1, 36320, Note_on_c, 0, 74, 63
1, 36480, Note_on_c, 0, 74, 0
1, 36480, Note_on_c, 0, 65, 0
1, 36480, Note_on_c, 0, 60, 0
1, 36480, Note_on_c, 0, 57, 0
1, 36480, Note_on_c, 0, 74, 64
1, 36480, Note_on_c, 0, 43, 46
1, 36486, Control_c, 0, 64, 0
1, 36554, Control_c, 0, 64, 127
1, 36640, Tempo, 805694
1, 36640, Note_on_c, 0, 64, 54
1, 36800, Note_on_c, 0, 64, 0
1, 36800, Note_on_c, 0, 63, 54
1, 36960, Tempo, 800427
1, 36960, Note_on_c, 0, 63, 0
1, 36960, Note_on_c, 0, 43, 0
1, 36960, Note_on_c, 0, 74, 0
1, 36960, Note_on_c, 0, 64, 56
1, 36960, Note_on_c, 0, 73, 67
1, 36960, Note_on_c, 0, 55, 36
1, 36960, Note_on_c, 0, 57, 36
1, 36971, Control_c, 0, 64, 0
1, 37031, Control_c, 0, 64, 127
1, 37120, Note_on_c, 0, 64, 0
1, 37120, Note_on_c, 0, 65, 56
1, 37280, Tempo, 833449
1, 37280, Note_on_c, 0, 65, 0
1, 37280, Note_on_c, 0, 64, 56
1, 37440, Tempo, 795334
1, 37440, Note_on_c, 0, 64, 0
1, 37440, Note_on_c, 0, 57, 0
1, 37440, Note_on_c, 0, 55, 0
1, 37440, Note_on_c, 0, 70, 67
1, 37440, Note_on_c, 0, 41, 46
1, 37449, Control_c, 0, 64, 0
1, 37507, Control_c, 0, 64, 127
1, 37600, Note_on_c, 0, 73, 0
1, 37600, Note_on_c, 0, 74, 64
1, 37760, Tempo, 816327
1, 37760, Note_on_c, 0, 74, 0
1, 37760, Note_on_c, 0, 73, 62
1, 37920, Note_on_c, 0, 73, 0
1, 37920, Note_on_c, 0, 41, 0
1, 37920, Note_on_c, 0, 70, 0
1, 37920, Note_on_c, 0, 69, 54
1, 37920, Note_on_c, 0, 76, 68
1, 37920, Note_on_c, 0, 57, 34
1, 37920, Note_on_c, 0, 53, 34
1, 37920, Note_on_c, 0, 62, 38
1, 37930, Control_c, 0, 64, 0
1, 38005, Control_c, 0, 64, 127
1, 38240, Note_on_c, 0, 76, 0
1, 38240, Note_on_c, 0, 74, 58
1, 38400, Tempo, 833449
1, 38400, Note_on_c, 0, 74, 0
1, 38400, Note_on_c, 0, 62, 0
1, 38400, Note_on_c, 0, 69, 0
1, 38400, Note_on_c, 0, 57, 0
1, 38400, Note_on_c, 0, 53, 0
1, 38400, Note_on_c, 0, 77, 68
1, 38400, Note_on_c, 0, 37, 46
1, 38410, Control_c, 0, 64, 0
1, 38488, Control_c, 0, 64, 127
1, 38560, Tempo, 805694
1, 38560, Note_on_c, 0, 67, 60
1, 38720, Note_on_c, 0, 67, 0
1, 38720, Note_on_c, 0, 66, 60
1, 38880, Tempo, 800427
1, 38880, Note_on_c, 0, 66, 0
1, 38880, Note_on_c, 0, 37, 0
1, 38880, Note_on_c, 0, 77, 0
1, 38880, Note_on_c, 0, 67, 70
1, 38880, Note_on_c, 0, 76, 70
1, 38880, Note_on_c, 0, 55, 36
1, 38880, Note_on_c, 0, 64, 36
1, 38880, Note_on_c, 0, 57, 36
1, 38891, Control_c, 0, 64, 0
1, 38951, Control_c, 0, 64, 127
1, 39040, Note_on_c, 0, 67, 0
1, 39040, Note_on_c, 0, 69, 60
1, 39200, Tempo, 833449
1, 39200, Note_on_c, 0, 69, 0
1, 39200, Note_on_c, 0, 67, 60
1, 39360, Tempo, 795334
1, 39360, Note_on_c, 0, 67, 0
1, 39360, Note_on_c, 0, 64, 0
1, 39360, Note_on_c, 0, 57, 0
1, 39360, Note_on_c, 0, 55, 0
1, 39360, Note_on_c, 0, 74, 72
1, 39360, Note_on_c, 0, 46, 46
1, 39371, Control_c, 0, 64, 0
1, 39427, Control_c, 0, 64, 127
1, 39520, Tempo, 833449
1, 39520, Note_on_c, 0, 76, 0
1, 39520, Note_on_c, 0, 77, 67
1, 39680, Note_on_c, 0, 77, 0
1, 39680, Note_on_c, 0, 76, 67
1, 39720, Tempo, 1142857
1, 39724, Tempo, 1153846
1, 39732, Tempo, 1165049
1, 39740, Tempo, 1176471
1, 39744, Tempo, 1188119
1, 39750, Note_on_c, 0, 76, 0
1, 39750, Note_on_c, 0, 46, 0
1, 39750, Note_on_c, 0, 45, 26
1, 39752, Tempo, 1200000
1, 39760, Tempo, 1224490
1, 39764, Tempo, 1237113
1, 39765, Note_on_c, 0, 52, 29
1, 39772, Tempo, 1250000
1, 39780, Tempo, 1263158
1, 39780, Note_on_c, 0, 57, 33
1, 39784, Tempo, 1276596
1, 39792, Tempo, 1290323
1, 39795, Note_on_c, 0, 64, 41
1, 39800, Tempo, 1318681
1, 39804, Tempo, 1333333
1, 39810, Note_on_c, 0, 67, 54
1, 39812, Tempo, 1348315
1, 39820, Tempo, 1363636
1, 39822, Control_c, 0, 64, 0
1, 39824, Tempo, 1379310
1, 39825, Note_on_c, 0, 73, 63
1, 39832, Tempo, 1411765
1, 39840, Tempo, 2028398
1, 39840, Note_on_c, 0, 74, 0
1, 39840, Note_on_c, 0, 82, 71
1, 39886, Control_c, 0, 64, 127
1, 40160, Tempo, 844951
1, 40160, Note_on_c, 0, 82, 0
1, 40160, Note_on_c, 0, 81, 57
1, 40320, Note_on_c, 0, 81, 0
1, 40320, Note_on_c, 0, 67, 0
1, 40320, Note_on_c, 0, 52, 0
1, 40320, Note_on_c, 0, 57, 0
1, 40320, Note_on_c, 0, 45, 0
1, 40320, Note_on_c, 0, 73, 0
1, 40320, Note_on_c, 0, 64, 0
1, 40320, Note_on_c, 0, 42, 51
1, 40323, Control_c, 0, 64, 0
1, 40401, Control_c, 0, 64, 127
1, 40480, Tempo, 816549
1, 40480, Note_on_c, 0, 81, 65
1, 40640, Note_on_c, 0, 81, 0
1, 40640, Note_on_c, 0, 80, 66
1, 40800, Tempo, 822143
1, 40800, Note_on_c, 0, 80, 0
1, 40800, Note_on_c, 0, 42, 0
1, 40800, Note_on_c, 0, 82, 70
1, 40800, Note_on_c, 0, 62, 46
1, 40800, Note_on_c, 0, 60, 46
1, 40800, Note_on_c, 0, 54, 46
1, 41120, Tempo, 844951
1, 41120, Note_on_c, 0, 82, 0
1, 41120, Note_on_c, 0, 81, 64
1, 41280, Tempo, 800427
1, 41280, Note_on_c, 0, 81, 0
1, 41280, Note_on_c, 0, 54, 0
1, 41280, Note_on_c, 0, 60, 0
1, 41280, Note_on_c, 0, 62, 0
1, 41280, Note_on_c, 0, 81, 67
1, 41280, Note_on_c, 0, 43, 49
1, 41292, Control_c, 0, 64, 0
1, 41375, Control_c, 0, 64, 127
1, 41440, Note_on_c, 0, 81, 0
1, 41440, Note_on_c, 0, 79, 59
1, 41600, Tempo, 822143
1, 41600, Note_on_c, 0, 79, 0
1, 41600, Note_on_c, 0, 78, 61
1, 41600, Note_on_c, 0, 62, 50
1, 41760, Note_on_c, 0, 62, 0
1, 41760, Note_on_c, 0, 78, 0
1, 41760, Note_on_c, 0, 43, 0
1, 41760, Note_on_c, 0, 81, 62
1, 41760, Note_on_c, 0, 58, 33
1, 41760, Note_on_c, 0, 65, 54
1, 41760, Note_on_c, 0, 55, 33
1, 41771, Control_c, 0, 64, 0
1, 41831, Control_c, 0, 64, 127
1, 41920, Note_on_c, 0, 65, 0
1, 41920, Note_on_c, 0, 64, 50
1, 42080, Tempo, 907990
1, 42080, Note_on_c, 0, 64, 0
1, 42080, Note_on_c, 0, 81, 0
1, 42080, Note_on_c, 0, 79, 63
1, 42080, Note_on_c, 0, 62, 46
1, 42180, Tempo, 822143
1, 42180, Note_on_c, 0, 62, 0
1, 42180, Note_on_c, 0, 55, 0
1, 42180, Note_on_c, 0, 58, 0
1, 42180, Note_on_c, 0, 79, 0
1, 42180, Note_on_c, 0, 48, 42
1, 42240, Tempo, 822143
1, 42240, Note_on_c, 0, 48, 0
1, 42240, Note_on_c, 0, 55, 45
1, 42240, Note_on_c, 0, 60, 45
1, 42240, Note_on_c, 0, 65, 51
1, 42246, Control_c, 0, 64, 0
1, 42367, Control_c, 0, 64, 127
1, 42400, Tempo, 816549
1, 42400, Note_on_c, 0, 79, 65
1, 42560, Note_on_c, 0, 79, 0
1, 42560, Note_on_c, 0, 78, 63
1, 42720, Tempo, 822143
1, 42720, Note_on_c, 0, 78, 0
1, 42720, Note_on_c, 0, 65, 0
1, 42720, Note_on_c, 0, 81, 67
1, 42720, Note_on_c, 0, 64, 44
1, 43040, Tempo, 844951
1, 43040, Note_on_c, 0, 81, 0
1, 43040, Note_on_c, 0, 79, 64
1, 43200, Tempo, 800427
1, 43200, Note_on_c, 0, 79, 0
1, 43200, Note_on_c, 0, 64, 0
1, 43200, Note_on_c, 0, 60, 0
1, 43200, Note_on_c, 0, 55, 0
1, 43200, Note_on_c, 0, 79, 69
1, 43200, Note_on_c, 0, 41, 49
1, 43207, Control_c, 0, 64, 0
1, 43256, Control_c, 0, 64, 127
1, 43360, Note_on_c, 0, 79, 0
1, 43360, Note_on_c, 0, 77, 66
1, 43520, Tempo, 822143
1, 43520, Note_on_c, 0, 77, 0
1, 43520, Note_on_c, 0, 76, 64
1, 43520, Note_on_c, 0, 60, 50
1, 43680, Note_on_c, 0, 60, 0
1, 43680, Note_on_c, 0, 76, 0
1, 43680, Note_on_c, 0, 41, 0
1, 43680, Note_on_c, 0, 79, 70
1, 43680, Note_on_c, 0, 53, 33
1, 43680, Note_on_c, 0, 57, 33
1, 43680, Note_on_c, 0, 64, 54
1, 43691, Control_c, 0, 64, 0
1, 43754, Control_c, 0, 64, 127
1, 43840, Note_on_c, 0, 64, 0
1, 43840, Note_on_c, 0, 62, 50
1, 44000, Tempo, 888099
1, 44000, Note_on_c, 0, 62, 0
1, 44000, Note_on_c, 0, 79, 0
1, 44000, Note_on_c, 0, 77, 62
1, 44000, Note_on_c, 0, 61, 46
1, 44100, Tempo, 822143
1, 44100, Note_on_c, 0, 61, 0
1, 44100, Note_on_c, 0, 77, 0
1, 44100, Note_on_c, 0, 46, 42
1, 44140, Control_c, 0, 64, 0
1, 44160, Tempo, 822143
1, 44160, Note_on_c, 0, 46, 0
1, 44160, Note_on_c, 0, 57, 0
1, 44160, Note_on_c, 0, 53, 0
1, 44160, Note_on_c, 0, 58, 45
1, 44160, Note_on_c, 0, 64, 51
1, 44160, Note_on_c, 0, 53, 45
1, 44206, Control_c, 0, 64, 127
1, 44320, Tempo, 816549
1, 44320, Note_on_c, 0, 77, 65
1, 44480, Note_on_c, 0, 77, 0
1, 44480, Note_on_c, 0, 76, 63
1, 44640, Tempo, 822143
1, 44640, Note_on_c, 0, 76, 0
1, 44640, Note_on_c, 0, 64, 0
1, 44640, Note_on_c, 0, 79, 70
1, 44640, Note_on_c, 0, 62, 46
1, 44960, Tempo, 844951
1, 44960, Note_on_c, 0, 79, 0
1, 44960, Note_on_c, 0, 77, 65
1, 45120, Tempo, 800427
1, 45120, Note_on_c, 0, 77, 0
1, 45120, Note_on_c, 0, 62, 0
1, 45120, Note_on_c, 0, 53, 0
1, 45120, Note_on_c, 0, 58, 0
1, 45120, Note_on_c, 0, 77, 69
1, 45120, Note_on_c, 0, 43, 49
1, 45129, Control_c, 0, 64, 0
1, 45222, Control_c, 0, 64, 127
1, 45280, Note_on_c, 0, 77, 0
1, 45280, Note_on_c, 0, 76, 66
1, 45440, Tempo, 822143
1, 45440, Note_on_c, 0, 76, 0
1, 45440, Note_on_c, 0, 74, 64
1, 45600, Note_on_c, 0, 74, 0
1, 45600, Note_on_c, 0, 43, 0
1, 45600, Note_on_c, 0, 77, 69
1, 45600, Note_on_c, 0, 62, 44
1, 45600, Note_on_c, 0, 55, 39
1, 45600, Note_on_c, 0, 58, 39
1, 45604, Control_c, 0, 64, 0
1, 45671, Control_c, 0, 64, 127
1, 45760, Note_on_c, 0, 77, 0
1, 45760, Note_on_c, 0, 76, 67
1, 45920, Note_on_c, 0, 76, 0
1, 45920, Note_on_c, 0, 74, 65
1, 46080, Tempo, 822143
1, 46080, Note_on_c, 0, 74, 0
1, 46080, Note_on_c, 0, 62, 0
1, 46080, Note_on_c, 0, 55, 0
1, 46080, Note_on_c, 0, 58, 0
1, 46080, Note_on_c, 0, 40, 48
1, 46091, Control_c, 0, 64, 0
1, 46179, Control_c, 0, 64, 127
1, 46240, Tempo, 816549
1, 46240, Note_on_c, 0, 67, 61
1, 46400, Note_on_c, 0, 67, 0
1, 46400, Note_on_c, 0, 69, 62
1, 46560, Tempo, 822143
1, 46560, Note_on_c, 0, 69, 0
1, 46560, Note_on_c, 0, 40, 0
1, 46560, Note_on_c, 0, 70, 66
1, 46560, Note_on_c, 0, 55, 43
1, 46560, Note_on_c, 0, 62, 43
1, 46560, Note_on_c, 0, 52, 43
1, 46720, Note_on_c, 0, 70, 0
1, 46720, Note_on_c, 0, 77, 62
1, 46880, Tempo, 844951
1, 46880, Note_on_c, 0, 77, 0
1, 46880, Note_on_c, 0, 76, 58
1, 47040, Tempo, 800427
1, 47040, Note_on_c, 0, 76, 0
1, 47040, Note_on_c, 0, 55, 0
1, 47040, Note_on_c, 0, 62, 0
1, 47040, Note_on_c, 0, 52, 0
1, 47040, Note_on_c, 0, 74, 64
1, 47040, Note_on_c, 0, 45, 46
1, 47052, Control_c, 0, 64, 0
1, 47096, Control_c, 0, 64, 127
1, 47200, Note_on_c, 0, 74, 0
1, 47200, Note_on_c, 0, 73, 61
1, 47360, Tempo, 805694
1, 47360, Note_on_c, 0, 73, 0
1, 47360, Note_on_c, 0, 72, 59
1, 47520, Tempo, 822143
1, 47520, Note_on_c, 0, 72, 0
1, 47520, Note_on_c, 0, 45, 0
1, 47520, Note_on_c, 0, 73, 62
1, 47520, Note_on_c, 0, 64, 41
1, 47520, Note_on_c, 0, 52, 37
1, 47520, Note_on_c, 0, 57, 37
1, 47530, Control_c, 0, 64, 0
1, 47605, Control_c, 0, 64, 127
1, 47760, Tempo, 851064
1, 47840, Note_on_c, 0, 73, 0
1, 47840, Note_on_c, 0, 69, 55
1, 48000, Tempo, 845070
1, 48000, Note_on_c, 0, 69, 0
1, 48000, Note_on_c, 0, 57, 0
1, 48000, Note_on_c, 0, 52, 0
1, 48000, Note_on_c, 0, 64, 0
1, 48000, Note_on_c, 0, 42, 43
1, 48007, Control_c, 0, 64, 0
1, 48074, Control_c, 0, 64, 127
1, 48160, Tempo, 816549
1, 48160, Note_on_c, 0, 81, 55
1, 48320, Note_on_c, 0, 81, 0
1, 48320, Note_on_c, 0, 80, 53
1, 48480, Tempo, 822143
1, 48480, Note_on_c, 0, 80, 0
1, 48480, Note_on_c, 0, 42, 0
1, 48480, Note_on_c, 0, 82, 58
1, 48480, Note_on_c, 0, 62, 31
1, 48480, Note_on_c, 0, 60, 31
1, 48480, Note_on_c, 0, 54, 31
1, 48800, Tempo, 844951
1, 48800, Note_on_c, 0, 82, 0
1, 48800, Note_on_c, 0, 81, 54
1, 48960, Tempo, 800427
1, 48960, Note_on_c, 0, 81, 0
1, 48960, Note_on_c, 0, 54, 0
1, 48960, Note_on_c, 0, 60, 0
1, 48960, Note_on_c, 0, 62, 0
1, 48960, Note_on_c, 0, 81, 56
1, 48960, Note_on_c, 0, 43, 41
1, 48968, Control_c, 0, 64, 0
1, 49016, Control_c, 0, 64, 127
1, 49120, Note_on_c, 0, 81, 0
1, 49120, Note_on_c, 0, 79, 52
1, 49280, Tempo, 822143
1, 49280, Note_on_c, 0, 79, 0
1, 49280, Note_on_c, 0, 78, 50
1, 49280, Note_on_c, 0, 62, 42
1, 49440, Note_on_c, 0, 62, 0
1, 49440, Note_on_c, 0, 78, 0
1, 49440, Note_on_c, 0, 43, 0
1, 49440, Note_on_c, 0, 81, 59
1, 49440, Note_on_c, 0, 55, 28
1, 49440, Note_on_c, 0, 58, 28
1, 49440, Note_on_c, 0, 65, 45
1, 49451, Control_c, 0, 64, 0
1, 49500, Control_c, 0, 64, 127
1, 49600, Note_on_c, 0, 65, 0
1, 49600, Note_on_c, 0, 64, 42
1, 49760, Tempo, 907990
1, 49760, Note_on_c, 0, 64, 0
1, 49760, Note_on_c, 0, 81, 0
1, 49760, Note_on_c, 0, 79, 53
1, 49760, Note_on_c, 0, 62, 39
1, 49860, Tempo, 822143
1, 49860, Note_on_c, 0, 62, 0
1, 49860, Note_on_c, 0, 55, 0
1, 49860, Note_on_c, 0, 58, 0
1, 49860, Note_on_c, 0, 79, 0
1, 49860, Note_on_c, 0, 48, 35
1, 49905, Control_c, 0, 64, 0
1, 49920, Tempo, 822143
1, 49920, Note_on_c, 0, 48, 0
1, 49920, Note_on_c, 0, 55, 34
1, 49920, Note_on_c, 0, 65, 43
1, 49920, Note_on_c, 0, 60, 34
1, 50001, Control_c, 0, 64, 127
1, 50080, Tempo, 816549
1, 50080, Note_on_c, 0, 79, 55
1, 50240, Note_on_c, 0, 79, 0
1, 50240, Note_on_c, 0, 78, 53
1, 50400, Tempo, 822143
1, 50400, Note_on_c, 0, 78, 0
1, 50400, Note_on_c, 0, 65, 0
1, 50400, Note_on_c, 0, 81, 58
1, 50400, Note_on_c, 0, 64, 39
1, 50720, Tempo, 844951
1, 50720, Note_on_c, 0, 81, 0
1, 50720, Note_on_c, 0, 79, 53
1, 50880, Tempo, 800427
1, 50880, Note_on_c, 0, 79, 0
1, 50880, Note_on_c, 0, 64, 0
1, 50880, Note_on_c, 0, 60, 0
1, 50880, Note_on_c, 0, 55, 0
1, 50880, Note_on_c, 0, 79, 57
1, 50880, Note_on_c, 0, 41, 41
1, 50887, Control_c, 0, 64, 0
1, 50936, Control_c, 0, 64, 127
1, 51040, Note_on_c, 0, 79, 0
1, 51040, Note_on_c, 0, 77, 56
1, 51200, Tempo, 822143
1, 51200, Note_on_c, 0, 77, 0
1, 51200, Note_on_c, 0, 76, 54
1, 51200, Note_on_c, 0, 60, 42
1, 51360, Note_on_c, 0, 60, 0
1, 51360, Note_on_c, 0, 76, 0
1, 51360, Note_on_c, 0, 41, 0
1, 51360, Note_on_c, 0, 79, 58
1, 51360, Note_on_c, 0, 57, 28
1, 51360, Note_on_c, 0, 64, 45
1, 51360, Note_on_c, 0, 53, 28
1, 51364, Control_c, 0, 64, 0
1, 51431, Control_c, 0, 64, 127
1, 51520, Note_on_c, 0, 64, 0
1, 51520, Note_on_c, 0, 62, 42
1, 51680, Tempo, 888099
1, 51680, Note_on_c, 0, 62, 0
1, 51680, Note_on_c, 0, 79, 0
1, 51680, Note_on_c, 0, 77, 52
1, 51680, Note_on_c, 0, 61, 39
1, 51780, Tempo, 822143
1, 51780, Note_on_c, 0, 61, 0
1, 51780, Note_on_c, 0, 77, 0
1, 51780, Note_on_c, 0, 46, 35
1, 51820, Control_c, 0, 64, 0
1, 51840, Tempo, 822143
1, 51840, Note_on_c, 0, 46, 0
1, 51840, Note_on_c, 0, 57, 0
1, 51840, Note_on_c, 0, 53, 0
1, 51840, Note_on_c, 0, 58, 38
1, 51840, Note_on_c, 0, 64, 43
1, 51840, Note_on_c, 0, 53, 38
1, 51871, Control_c, 0, 64, 127
1, 52000, Tempo, 816549
1, 52000, Note_on_c, 0, 77, 55
1, 52160, Note_on_c, 0, 77, 0
1, 52160, Note_on_c, 0, 76, 56
1, 52320, Tempo, 822143
1, 52320, Note_on_c, 0, 76, 0
1, 52320, Note_on_c, 0, 64, 0
1, 52320, Note_on_c, 0, 79, 59
1, 52320, Note_on_c, 0, 62, 39
1, 52640, Tempo, 844951
1, 52640, Note_on_c, 0, 79, 0
1, 52640, Note_on_c, 0, 77, 56
1, 52800, Tempo, 800427
1, 52800, Note_on_c, 0, 77, 0
1, 52800, Note_on_c, 0, 62, 0
1, 52800, Note_on_c, 0, 53, 0
1, 52800, Note_on_c, 0, 58, 0
1, 52800, Note_on_c, 0, 77, 58
1, 52800, Note_on_c, 0, 43, 41
1, 52808, Control_c, 0, 64, 0
1, 52856, Control_c, 0, 64, 127
1, 52960, Note_on_c, 0, 77, 0
1, 52960, Note_on_c, 0, 76, 56
1, 53120, Tempo, 822143
1, 53120, Note_on_c, 0, 76, 0
1, 53120, Note_on_c, 0, 74, 54
1, 53280, Note_on_c, 0, 74, 0
1, 53280, Note_on_c, 0, 43, 0
1, 53280, Note_on_c, 0, 77, 58
1, 53280, Note_on_c, 0, 62, 37
1, 53280, Note_on_c, 0, 58, 33
1, 53280, Note_on_c, 0, 55, 33
1, 53288, Control_c, 0, 64, 0
1, 53354, Control_c, 0, 64, 127
1, 53440, Note_on_c, 0, 77, 0
1, 53440, Note_on_c, 0, 76, 56
1, 53600, Note_on_c, 0, 76, 0
1, 53600, Note_on_c, 0, 74, 55
1, 53760, Tempo, 822143
1, 53760, Note_on_c, 0, 74, 0
1, 53760, Note_on_c, 0, 62, 0
1, 53760, Note_on_c, 0, 58, 0
1, 53760, Note_on_c, 0, 55, 0
1, 53760, Note_on_c, 0, 40, 43
1, 53770, Control_c, 0, 64, 0
1, 53855, Control_c, 0, 64, 127
1, 53920, Tempo, 816549
1, 53920, Note_on_c, 0, 67, 55
1, 54080, Note_on_c, 0, 67, 0
1, 54080, Note_on_c, 0, 69, 56
1, 54240, Tempo, 822143
1, 54240, Note_on_c, 0, 69, 0
1, 54240, Note_on_c, 0, 40, 0
1, 54240, Note_on_c, 0, 70, 59
1, 54240, Note_on_c, 0, 52, 39
1, 54240, Note_on_c, 0, 62, 39
1, 54240, Note_on_c, 0, 55, 39
1, 54400, Note_on_c, 0, 70, 0
1, 54400, Note_on_c, 0, 77, 56
1, 54560, Tempo, 844951
1, 54560, Note_on_c, 0, 77, 0
1, 54560, Note_on_c, 0, 76, 52
1, 54720, Tempo, 800427
1, 54720, Note_on_c, 0, 76, 0
1, 54720, Note_on_c, 0, 52, 0
1, 54720, Note_on_c, 0, 62, 0
1, 54720, Note_on_c, 0, 55, 0
1, 54720, Note_on_c, 0, 74, 57
1, 54720, Note_on_c, 0, 45, 41
1, 54731, Control_c, 0, 64, 0
1, 54791, Control_c, 0, 64, 127
1, 54880, Note_on_c, 0, 74, 0
1, 54880, Note_on_c, 0, 73, 55
1, 55040, Tempo, 805694
1, 55040, Note_on_c, 0, 73, 0
1, 55040, Note_on_c, 0, 72, 53
1, 55200, Tempo, 822143
1, 55200, Note_on_c, 0, 72, 0
1, 55200, Note_on_c, 0, 45, 0
1, 55200, Note_on_c, 0, 73, 56
1, 55200, Note_on_c, 0, 52, 33
1, 55200, Note_on_c, 0, 57, 33
1, 55200, Note_on_c, 0, 64, 37
1, 55204, Control_c, 0, 64, 0
1, 55271, Control_c, 0, 64, 127
1, 55440, Tempo, 845070
1, 55520, Note_on_c, 0, 73, 0
1, 55520, Note_on_c, 0, 69, 49
1, 55680, Tempo, 839161
1, 55680, Note_on_c, 0, 69, 0
1, 55680, Note_on_c, 0, 64, 0
1, 55680, Note_on_c, 0, 57, 0
1, 55680, Note_on_c, 0, 52, 0
1, 55680, Note_on_c, 0, 62, 49
1, 55680, Note_on_c, 0, 52, 36
1, 55680, Note_on_c, 0, 58, 41
1, 55680, Note_on_c, 0, 43, 36
1, 55685, Control_c, 0, 64, 0
1, 55754, Control_c, 0, 64, 127
1, 55840, Tempo, 805369
1, 55840, Note_on_c, 0, 67, 51
1, 56000, Note_on_c, 0, 67, 0
1, 56000, Note_on_c, 0, 66, 51
1, 56160, Tempo, 821918
1, 56160, Note_on_c, 0, 66, 0
1, 56160, Note_on_c, 0, 69, 54
1, 56171, Control_c, 0, 64, 0
1, 56252, Control_c, 0, 64, 127
1, 56480, Note_on_c, 0, 69, 0
1, 56480, Note_on_c, 0, 67, 52
1, 56640, Note_on_c, 0, 67, 0
1, 56640, Note_on_c, 0, 43, 0
1, 56640, Note_on_c, 0, 58, 0
1, 56640, Note_on_c, 0, 62, 0
1, 56640, Note_on_c, 0, 61, 41
1, 56640, Note_on_c, 0, 67, 49
1, 56640, Note_on_c, 0, 57, 47
1, 56640, Note_on_c, 0, 45, 42
1, 56649, Control_c, 0, 64, 0
1, 56767, Control_c, 0, 64, 127
1, 56800, Tempo, 805369
1, 56800, Note_on_c, 0, 52, 0
1, 56800, Note_on_c, 0, 52, 48
1, 56880, Note_on_c, 0, 57, 0
1, 56880, Note_on_c, 0, 45, 0
1, 56880, Note_on_c, 0, 61, 0
1, 56880, Note_on_c, 0, 67, 0
1, 56960, Tempo, 839161
1, 56960, Note_on_c, 0, 52, 0
1, 56960, Note_on_c, 0, 51, 45
1, 57120, Note_on_c, 0, 51, 0
1, 57120, Note_on_c, 0, 53, 49
1, 57131, Control_c, 0, 64, 0
1, 57233, Control_c, 0, 64, 127
1, 57440, Note_on_c, 0, 53, 0
1, 57440, Note_on_c, 0, 52, 44
1, 57600, Tempo, 839161
1, 57600, Note_on_c, 0, 52, 0
1, 57600, Note_on_c, 0, 62, 49
1, 57600, Control_c, 0, 64, 0
1, 57600, Note_on_c, 0, 43, 36
1, 57600, Note_on_c, 0, 58, 41
1, 57600, Note_on_c, 0, 52, 36
1, 57681, Control_c, 0, 64, 127
1, 57760, Tempo, 805369
1, 57760, Note_on_c, 0, 67, 51
1, 57920, Note_on_c, 0, 67, 0
1, 57920, Note_on_c, 0, 66, 51
1, 58080, Tempo, 821918
1, 58080, Note_on_c, 0, 66, 0
1, 58080, Note_on_c, 0, 69, 54
1, 58089, Control_c, 0, 64, 0
1, 58129, Control_c, 0, 64, 127
1, 58400, Note_on_c, 0, 69, 0
1, 58400, Note_on_c, 0, 67, 52
1, 58560, Note_on_c, 0, 67, 0
1, 58560, Note_on_c, 0, 58, 0
1, 58560, Note_on_c, 0, 62, 0
1, 58560, Note_on_c, 0, 43, 0
1, 58560, Note_on_c, 0, 61, 41
1, 58560, Note_on_c, 0, 67, 49
1, 58560, Note_on_c, 0, 45, 42
1, 58560, Note_on_c, 0, 57, 47
1, 58567, Control_c, 0, 64, 0
1, 58687, Control_c, 0, 64, 127
1, 58720, Tempo, 805369
1, 58720, Note_on_c, 0, 52, 0
1, 58720, Note_on_c, 0, 52, 49
1, 58800, Note_on_c, 0, 45, 0
1, 58800, Note_on_c, 0, 57, 0
1, 58800, Note_on_c, 0, 61, 0
1, 58800, Note_on_c, 0, 67, 0
1, 58880, Tempo, 839161
1, 58880, Note_on_c, 0, 52, 0
1, 58880, Note_on_c, 0, 51, 47
1, 59040, Note_on_c, 0, 51, 0
1, 59040, Note_on_c, 0, 53, 53
1, 59050, Control_c, 0, 64, 0
1, 59153, Control_c, 0, 64, 127
1, 59360, Note_on_c, 0, 53, 0
1, 59360, Note_on_c, 0, 52, 51
1, 59361, Control_c, 0, 64, 0
1, 59520, Tempo, 816327
1, 59520, Note_on_c, 0, 52, 0
1, 59520, Note_on_c, 0, 57, 56
1, 59840, Tempo, 851064
1, 59840, Note_on_c, 0, 57, 0
1, 59840, Note_on_c, 0, 55, 53
1, 60000, Tempo, 816327
1, 60000, Note_on_c, 0, 55, 0
1, 60000, Note_on_c, 0, 62, 57
1, 60320, Tempo, 794702
1, 60320, Note_on_c, 0, 62, 0
1, 60320, Note_on_c, 0, 61, 56
1, 60480, Tempo, 816327
1, 60480, Note_on_c, 0, 61, 0
1, 60480, Note_on_c, 0, 65, 64
1, 60640, Note_on_c, 0, 65, 0
1, 60640, Note_on_c, 0, 64, 58
1, 60800, Note_on_c, 0, 64, 0
1, 60800, Note_on_c, 0, 62, 55
1, 61120, Tempo, 833333
1, 61120, Note_on_c, 0, 62, 0
1, 61120, Note_on_c, 0, 61, 55
1, 61280, Note_on_c, 0, 61, 0
1, 61280, Note_on_c, 0, 58, 51
1, 61440, Tempo, 833333
1, 61560, Tempo, 839161
1, 61640, Tempo, 845070
1, 61760, Tempo, 851064
1, 61760, Note_on_c, 0, 58, 0
1, 61760, Note_on_c, 0, 57, 53
1, 61840, Tempo, 857143
1, 61920, Tempo, 863309
1, 62040, Tempo, 869565
1, 62120, Tempo, 875912
1, 62240, Tempo, 882353
1, 62240, Note_on_c, 0, 57, 0
1, 62240, Note_on_c, 0, 55, 52
1, 62320, Tempo, 888889
1, 62400, Tempo, 895522
1, 62520, Tempo, 902256
1, 62600, Tempo, 909091
1, 62720, Tempo, 916031
1, 62720, Note_on_c, 0, 55, 0
1, 62720, Note_on_c, 0, 53, 48
1, 62800, Tempo, 923077
1, 62880, Tempo, 930233
1, 63200, Tempo, 2448980
1, 63200, Note_on_c, 0, 53, 0
1, 63200, Note_on_c, 0, 52, 43
1, 63360, Tempo, 827586
1, 63360, Note_on_c, 0, 52, 0
1, 63360, Note_on_c, 0, 65, 44
1, 63360, Note_on_c, 0, 69, 49
1, 63360, Note_on_c, 0, 50, 35
1, 63360, Note_on_c, 0, 62, 39
1, 63360, Note_on_c, 0, 57, 35
1, 63573, Control_c, 0, 64, 127
1, 63840, Tempo, 805369
1, 63840, Note_on_c, 0, 77, 53
1, 64320, Tempo, 833333
1, 64320, Note_on_c, 0, 57, 0
1, 64320, Note_on_c, 0, 62, 0
1, 64320, Note_on_c, 0, 50, 0
1, 64320, Note_on_c, 0, 65, 0
1, 64320, Note_on_c, 0, 69, 0
1, 64320, Note_on_c, 0, 69, 49
1, 64320, Note_on_c, 0, 67, 44
1, 64320, Note_on_c, 0, 50, 27
1, 64320, Note_on_c, 0, 61, 31
1, 64320, Note_on_c, 0, 57, 31
1, 64330, Control_c, 0, 64, 0
1, 64613, Control_c, 0, 64, 127
1, 64800, Tempo, 805369
1, 64800, Note_on_c, 0, 77, 0
1, 64800, Note_on_c, 0, 76, 54
1, 65280, Tempo, 816327
1, 65280, Note_on_c, 0, 67, 0
1, 65280, Note_on_c, 0, 61, 0
1, 65280, Note_on_c, 0, 50, 0
1, 65280, Note_on_c, 0, 69, 0
1, 65280, Note_on_c, 0, 57, 0
1, 65280, Note_on_c, 0, 65, 36
1, 65280, Note_on_c, 0, 69, 42
1, 65280, Note_on_c, 0, 50, 33
1, 65280, Note_on_c, 0, 57, 33
1, 65280, Note_on_c, 0, 62, 36
1, 65288, Control_c, 0, 64, 0
1, 65417, Control_c, 0, 64, 127
1, 65520, Tempo, 800000
1, 65520, Note_on_c, 0, 76, 0
1, 65520, Note_on_c, 0, 74, 52
1, 65760, Tempo, 810811
1, 65760, Note_on_c, 0, 74, 0
1, 65760, Note_on_c, 0, 62, 0
1, 65760, Note_on_c, 0, 50, 0
1, 65760, Note_on_c, 0, 65, 0
1, 65760, Note_on_c, 0, 69, 0
1, 65760, Note_on_c, 0, 57, 0
1, 65760, Note_on_c, 0, 68, 55
1, 66000, Note_on_c, 0, 68, 0
1, 66000, Note_on_c, 0, 69, 52
1, 66240, Tempo, 805369
1, 66240, Note_on_c, 0, 69, 0
1, 66240, Note_on_c, 0, 62, 42
1, 66240, Note_on_c, 0, 69, 42
1, 66240, Note_on_c, 0, 74, 52
1, 66240, Note_on_c, 0, 53, 40
1, 66240, Note_on_c, 0, 57, 36
1, 66255, Control_c, 0, 64, 0
1, 66423, Control_c, 0, 64, 127
1, 66480, Tempo, 821918
1, 66720, Tempo, 810811
1, 66720, Note_on_c, 0, 53, 0
1, 66720, Note_on_c, 0, 54, 38
1, 66960, Note_on_c, 0, 74, 0
1, 66960, Note_on_c, 0, 72, 50
1, 67200, Note_on_c, 0, 72, 0
1, 67200, Note_on_c, 0, 54, 0
1, 67200, Note_on_c, 0, 57, 0
1, 67200, Note_on_c, 0, 69, 0
1, 67200, Note_on_c, 0, 67, 47
1, 67200, Note_on_c, 0, 70, 52
1, 67200, Note_on_c, 0, 55, 41
1, 67210, Control_c, 0, 64, 0
1, 67429, Control_c, 0, 64, 127
1, 67627, Tempo, 827586
1, 67680, Tempo, 805369
1, 67680, Note_on_c, 0, 55, 0
1, 67680, Note_on_c, 0, 62, 0
1, 67680, Note_on_c, 0, 67, 0
1, 67680, Note_on_c, 0, 70, 0
1, 67680, Note_on_c, 0, 70, 59
1, 68160, Tempo, 833333
1, 68160, Note_on_c, 0, 62, 49
1, 68160, Note_on_c, 0, 60, 44
1, 68160, Note_on_c, 0, 45, 27
1, 68160, Note_on_c, 0, 50, 31
1, 68173, Control_c, 0, 64, 0
1, 68389, Control_c, 0, 64, 127
1, 68640, Tempo, 805369
1, 68640, Note_on_c, 0, 70, 0
1, 68640, Note_on_c, 0, 66, 57
1, 69120, Tempo, 816327
1, 69120, Note_on_c, 0, 45, 0
1, 69120, Note_on_c, 0, 50, 0
1, 69120, Note_on_c, 0, 62, 0
1, 69120, Note_on_c, 0, 60, 0
1, 69120, Note_on_c, 0, 58, 36
1, 69120, Note_on_c, 0, 62, 36
1, 69120, Note_on_c, 0, 46, 36
1, 69120, Note_on_c, 0, 50, 42
1, 69130, Control_c, 0, 64, 0
1, 69269, Control_c, 0, 64, 127
1, 69360, Tempo, 800000
1, 69360, Note_on_c, 0, 66, 0
1, 69360, Note_on_c, 0, 67, 57
1, 69600, Tempo, 810811
1, 69600, Note_on_c, 0, 67, 0
1, 69600, Note_on_c, 0, 58, 0
1, 69600, Note_on_c, 0, 62, 0
1, 69600, Note_on_c, 0, 64, 36
1, 69600, Note_on_c, 0, 67, 36
1, 69600, Note_on_c, 0, 76, 62
1, 69600, Note_on_c, 0, 58, 36
1, 69840, Note_on_c, 0, 76, 0
1, 69840, Note_on_c, 0, 74, 58
1, 70080, Tempo, 821918
1, 70080, Note_on_c, 0, 74, 0
1, 70080, Note_on_c, 0, 58, 0
1, 70080, Note_on_c, 0, 64, 0
1, 70080, Note_on_c, 0, 50, 0
1, 70080, Note_on_c, 0, 46, 0
1, 70080, Note_on_c, 0, 67, 0
1, 70080, Note_on_c, 0, 64, 36
1, 70080, Note_on_c, 0, 67, 36
1, 70080, Note_on_c, 0, 74, 59
1, 70080, Note_on_c, 0, 45, 32
1, 70080, Note_on_c, 0, 52, 32
1, 70080, Note_on_c, 0, 57, 36
1, 70091, Control_c, 0, 64, 0
1, 70229, Control_c, 0, 64, 127
1, 70560, Note_on_c, 0, 74, 0
1, 70560, Note_on_c, 0, 73, 56
1, 71040, Note_on_c, 0, 73, 0
1, 71040, Note_on_c, 0, 57, 0
1, 71040, Note_on_c, 0, 45, 0
1, 71040, Note_on_c, 0, 64, 0
1, 71040, Note_on_c, 0, 67, 0
1, 71040, Note_on_c, 0, 52, 0
1, 71040, Control_c, 0, 64, 0
1, 71040, Note_on_c, 0, 55, 48
1, 71200, Tempo, 805369
1, 71200, Note_on_c, 0, 69, 58
1, 71331, Control_c, 0, 64, 127
1, 71360, Note_on_c, 0, 69, 0
1, 71360, Note_on_c, 0, 71, 55
1, 71520, Tempo, 800000
1, 71520, Note_on_c, 0, 71, 0
1, 71520, Note_on_c, 0, 73, 61
1, 71520, Note_on_c, 0, 64, 41
1, 71520, Note_on_c, 0, 61, 37
1, 71520, Note_on_c, 0, 57, 37
1, 71600, Tempo, 805369
1, 71680, Tempo, 810811
1, 71680, Note_on_c, 0, 73, 0
1, 71680, Note_on_c, 0, 74, 63
1, 71760, Tempo, 816327
1, 71800, Tempo, 821918
1, 71840, Note_on_c, 0, 74, 0
1, 71840, Note_on_c, 0, 76, 67
1, 71880, Tempo, 827586
1, 71960, Tempo, 833333
1, 72000, Tempo, 839161
1, 72000, Note_on_c, 0, 76, 0
1, 72000, Note_on_c, 0, 61, 0
1, 72000, Note_on_c, 0, 55, 0
1, 72000, Note_on_c, 0, 64, 0
1, 72000, Note_on_c, 0, 57, 0
1, 72000, Note_on_c, 0, 81, 68
1, 72000, Note_on_c, 0, 53, 46
1, 72011, Control_c, 0, 64, 0
1, 72126, Control_c, 0, 64, 127
1, 72480, Tempo, 821918
1, 72480, Note_on_c, 0, 65, 41
1, 72480, Note_on_c, 0, 62, 41
1, 72480, Note_on_c, 0, 57, 37
1, 72960, Note_on_c, 0, 57, 0
1, 72960, Note_on_c, 0, 65, 0
1, 72960, Note_on_c, 0, 62, 0
1, 72960, Note_on_c, 0, 53, 0
1, 72960, Note_on_c, 0, 52, 49
1, 72968, Control_c, 0, 64, 0
1, 73057, Control_c, 0, 64, 127
1, 73120, Tempo, 800000
1, 73120, Note_on_c, 0, 81, 0
1, 73120, Note_on_c, 0, 69, 61
1, 73280, Note_on_c, 0, 69, 0
1, 73280, Note_on_c, 0, 71, 58
1, 73440, Tempo, 800000
1, 73440, Note_on_c, 0, 71, 0
1, 73440, Note_on_c, 0, 73, 61
1, 73440, Note_on_c, 0, 67, 47
1, 73440, Note_on_c, 0, 61, 41
1, 73440, Note_on_c, 0, 57, 41
1, 73520, Tempo, 805369
1, 73600, Tempo, 810811
1, 73600, Note_on_c, 0, 73, 0
1, 73600, Note_on_c, 0, 74, 62
1, 73640, Tempo, 816327
1, 73720, Tempo, 821918
1, 73760, Tempo, 827586
1, 73760, Note_on_c, 0, 74, 0
1, 73760, Note_on_c, 0, 76, 65
1, 73800, Tempo, 833333
1, 73880, Tempo, 839161
1, 73920, Note_on_c, 0, 76, 0
1, 73920, Note_on_c, 0, 61, 0
1, 73920, Note_on_c, 0, 52, 0
1, 73920, Note_on_c, 0, 67, 0
1, 73920, Note_on_c, 0, 57, 0
1, 73920, Note_on_c, 0, 81, 68
1, 73920, Note_on_c, 0, 50, 50
1, 73933, Control_c, 0, 64, 0
1, 74046, Control_c, 0, 64, 127
1, 74400, Note_on_c, 0, 66, 41
1, 74400, Note_on_c, 0, 60, 37
1, 74400, Note_on_c, 0, 57, 37
1, 74640, Note_on_c, 0, 81, 0
1, 74640, Note_on_c, 0, 74, 68
1, 74880, Tempo, 821918
1, 74880, Note_on_c, 0, 74, 0
1, 74880, Note_on_c, 0, 57, 0
1, 74880, Note_on_c, 0, 50, 0
1, 74880, Note_on_c, 0, 66, 0
1, 74880, Note_on_c, 0, 60, 0
1, 74880, Note_on_c, 0, 79, 70
1, 74880, Note_on_c, 0, 43, 50
1, 74888, Control_c, 0, 64, 0
1, 74949, Control_c, 0, 64, 127
1, 75040, Note_on_c, 0, 79, 0
1, 75040, Note_on_c, 0, 77, 67
1, 75200, Note_on_c, 0, 77, 0
1, 75200, Note_on_c, 0, 76, 66
1, 75240, Tempo, 895522
1, 75300, Note_on_c, 0, 76, 0
1, 75300, Note_on_c, 0, 74, 62
1, 75330, Note_on_c, 0, 74, 0
1, 75330, Note_on_c, 0, 76, 62
1, 75360, Tempo, 821918
1, 75360, Note_on_c, 0, 76, 0
1, 75360, Note_on_c, 0, 43, 0
1, 75360, Note_on_c, 0, 74, 69
1, 75360, Note_on_c, 0, 67, 41
1, 75360, Note_on_c, 0, 62, 37
1, 75360, Note_on_c, 0, 58, 37
1, 75360, Note_on_c, 0, 55, 37
1, 75520, Note_on_c, 0, 74, 0
1, 75520, Note_on_c, 0, 73, 64
1, 75680, Tempo, 851064
1, 75680, Note_on_c, 0, 73, 0
1, 75680, Note_on_c, 0, 74, 64
1, 75840, Tempo, 810811
1, 75840, Note_on_c, 0, 74, 0
1, 75840, Note_on_c, 0, 58, 0
1, 75840, Note_on_c, 0, 67, 0
1, 75840, Note_on_c, 0, 62, 0
1, 75840, Note_on_c, 0, 55, 0
1, 75840, Note_on_c, 0, 77, 69
1, 75840, Note_on_c, 0, 44, 48
1, 75852, Control_c, 0, 64, 0
1, 75909, Control_c, 0, 64, 127
1, 76320, Tempo, 821918
1, 76320, Note_on_c, 0, 44, 0
1, 76320, Note_on_c, 0, 65, 40
1, 76320, Note_on_c, 0, 62, 36
1, 76320, Note_on_c, 0, 59, 36
1, 76320, Note_on_c, 0, 56, 36
1, 76480, Note_on_c, 0, 77, 0
1, 76480, Note_on_c, 0, 76, 63
1, 76640, Tempo, 863309
1, 76640, Note_on_c, 0, 76, 0
1, 76640, Note_on_c, 0, 74, 57
1, 76800, Tempo, 805369
1, 76800, Note_on_c, 0, 56, 0
1, 76800, Note_on_c, 0, 59, 0
1, 76800, Note_on_c, 0, 65, 0
1, 76800, Note_on_c, 0, 62, 0
1, 76800, Note_on_c, 0, 45, 49
1, 76806, Control_c, 0, 64, 0
1, 76882, Control_c, 0, 64, 127
1, 76960, Note_on_c, 0, 74, 0
1, 76960, Note_on_c, 0, 73, 68
1, 77040, Tempo, 816327
1, 77120, Note_on_c, 0, 73, 0
1, 77120, Note_on_c, 0, 72, 58
1, 77280, Tempo, 810811
1, 77280, Note_on_c, 0, 45, 0
1, 77280, Note_on_c, 0, 65, 45
1, 77280, Note_on_c, 0, 62, 39
1, 77280, Note_on_c, 0, 57, 39
1, 77288, Control_c, 0, 64, 0
1, 77340, Control_c, 0, 64, 127
1, 77440, Note_on_c, 0, 72, 0
1, 77440, Note_on_c, 0, 71, 66
1, 77520, Tempo, 821918
1, 77600, Note_on_c, 0, 71, 0
1, 77600, Note_on_c, 0, 70, 57
1, 77760, Tempo, 816327
1, 77760, Note_on_c, 0, 57, 0
1, 77760, Note_on_c, 0, 65, 0
1, 77760, Note_on_c, 0, 62, 0
1, 77760, Note_on_c, 0, 45, 48
1, 77769, Control_c, 0, 64, 0
1, 77829, Control_c, 0, 64, 127
1, 77920, Note_on_c, 0, 70, 0
1, 77920, Note_on_c, 0, 69, 63
1, 78000, Tempo, 821918
1, 78080, Note_on_c, 0, 69, 0
1, 78080, Note_on_c, 0, 65, 55
1, 78240, Tempo, 805369
1, 78240, Note_on_c, 0, 45, 0
1, 78240, Note_on_c, 0, 61, 41
1, 78240, Note_on_c, 0, 57, 37
1, 78240, Note_on_c, 0, 55, 37
1, 78253, Control_c, 0, 64, 0
1, 78313, Control_c, 0, 64, 127
1, 78480, Tempo, 991736
1, 78500, Note_on_c, 0, 65, 0
1, 78500, Note_on_c, 0, 64, 50
1, 78530, Note_on_c, 0, 64, 0
1, 78530, Note_on_c, 0, 65, 50
1, 78560, Tempo, 833333
1, 78560, Note_on_c, 0, 65, 0
1, 78560, Note_on_c, 0, 64, 56
1, 78720, Tempo, 784314
1, 78720, Note_on_c, 0, 64, 0
1, 78720, Note_on_c, 0, 55, 0
1, 78720, Note_on_c, 0, 57, 0
1, 78720, Note_on_c, 0, 61, 0
1, 78720, Note_on_c, 0, 62, 54
1, 78720, Control_c, 0, 64, 0
1, 78720, Note_on_c, 0, 50, 40
1, 78720, Note_on_c, 0, 53, 42
1, 78720, Note_on_c, 0, 57, 50
1, 78914, Control_c, 0, 64, 127
1, 78960, Note_on_c, 0, 62, 0
1, 79200, Tempo, 759494
1, 79200, Note_on_c, 0, 65, 60
1, 79440, Tempo, 779221
1, 79440, Note_on_c, 0, 69, 49
1, 79680, Tempo, 769231
1, 79680, Note_on_c, 0, 50, 0
1, 79680, Note_on_c, 0, 57, 0
1, 79680, Note_on_c, 0, 53, 0
1, 79680, Note_on_c, 0, 57, 55
1, 79680, Note_on_c, 0, 55, 49
1, 79688, Control_c, 0, 64, 0
1, 79909, Control_c, 0, 64, 127
1, 79920, Tempo, 784314
1, 79920, Note_on_c, 0, 69, 0
1, 79920, Note_on_c, 0, 71, 53
1, 80160, Tempo, 794702
1, 80160, Note_on_c, 0, 65, 0
1, 80160, Note_on_c, 0, 64, 62
1, 80400, Note_on_c, 0, 71, 0
1, 80400, Note_on_c, 0, 73, 57
1, 80640, Tempo, 769231
1, 80640, Note_on_c, 0, 55, 0
1, 80640, Note_on_c, 0, 57, 0
1, 80640, Note_on_c, 0, 53, 41
1, 80640, Note_on_c, 0, 57, 47
1, 80650, Control_c, 0, 64, 0
1, 80718, Control_c, 0, 64, 127
1, 80880, Tempo, 779221
1, 80880, Note_on_c, 0, 64, 0
1, 80880, Note_on_c, 0, 73, 0
1, 80880, Note_on_c, 0, 74, 49
1, 80880, Note_on_c, 0, 62, 58
1, 81106, Control_c, 0, 64, 0
1, 81120, Tempo, 774194
1, 81120, Note_on_c, 0, 62, 0
1, 81120, Note_on_c, 0, 57, 0
1, 81120, Note_on_c, 0, 53, 0
1, 81120, Note_on_c, 0, 56, 61
1, 81360, Tempo, 764331
1, 81360, Note_on_c, 0, 74, 0
1, 81360, Note_on_c, 0, 73, 54
1, 81360, Note_on_c, 0, 57, 57
1, 81370, Note_on_c, 0, 56, 0
1, 81600, Tempo, 750000
1, 81600, Note_on_c, 0, 54, 47
1, 81600, Note_on_c, 0, 62, 62
1, 81615, Control_c, 0, 64, 0
1, 81695, Control_c, 0, 64, 127
1, 81840, Tempo, 764331
1, 81840, Note_on_c, 0, 73, 0
1, 81840, Note_on_c, 0, 72, 53
1, 82080, Tempo, 769231
1, 82080, Note_on_c, 0, 72, 0
1, 82080, Note_on_c, 0, 70, 52
1, 82320, Tempo, 784314
1, 82320, Note_on_c, 0, 70, 0
1, 82320, Note_on_c, 0, 62, 0
1, 82320, Note_on_c, 0, 69, 51
1, 82320, Note_on_c, 0, 60, 55
1, 82500, Tempo, 909091
1, 82500, Note_on_c, 0, 60, 0
1, 82500, Note_on_c, 0, 57, 0
1, 82500, Note_on_c, 0, 54, 0
1, 82500, Note_on_c, 0, 43, 47
1, 82530, Note_on_c, 0, 50, 47
1, 82560, Tempo, 759494
1, 82560, Note_on_c, 0, 69, 0
1, 82560, Note_on_c, 0, 67, 57
1, 82560, Note_on_c, 0, 58, 57
1, 82566, Control_c, 0, 64, 0
1, 82694, Control_c, 0, 64, 127
1, 82800, Tempo, 759494
1, 82800, Note_on_c, 0, 58, 0
1, 82800, Note_on_c, 0, 67, 0
1, 82800, Note_on_c, 0, 62, 53
1, 83040, Tempo, 745342
1, 83040, Note_on_c, 0, 50, 0
1, 83040, Note_on_c, 0, 43, 0
1, 83040, Note_on_c, 0, 58, 64
1, 83280, Tempo, 759494
1, 83280, Note_on_c, 0, 62, 0
1, 83280, Note_on_c, 0, 74, 67
1, 83520, Tempo, 750000
1, 83520, Note_on_c, 0, 50, 55
1, 83520, Note_on_c, 0, 48, 49
1, 83531, Control_c, 0, 64, 0
1, 83612, Control_c, 0, 64, 127
1, 83760, Tempo, 764331
1, 83760, Note_on_c, 0, 74, 0
1, 83760, Note_on_c, 0, 70, 63
1, 84000, Tempo, 774194
1, 84000, Note_on_c, 0, 58, 0
1, 84000, Note_on_c, 0, 54, 53
1, 84240, Tempo, 784314
1, 84240, Note_on_c, 0, 70, 0
1, 84240, Note_on_c, 0, 69, 57
1, 84480, Tempo, 784314
1, 84480, Note_on_c, 0, 48, 0
1, 84480, Note_on_c, 0, 50, 0
1, 84480, Note_on_c, 0, 46, 51
1, 84480, Note_on_c, 0, 50, 51
1, 84487, Control_c, 0, 64, 0
1, 84568, Control_c, 0, 64, 127
1, 84720, Tempo, 779221
1, 84720, Note_on_c, 0, 54, 0
1, 84720, Note_on_c, 0, 69, 0
1, 84720, Note_on_c, 0, 67, 57
1, 84720, Note_on_c, 0, 55, 62
1, 84960, Tempo, 805369
1, 84960, Note_on_c, 0, 55, 0
1, 84960, Note_on_c, 0, 50, 0
1, 84960, Note_on_c, 0, 46, 0
1, 84960, Note_on_c, 0, 64, 63
1, 85200, Note_on_c, 0, 64, 0
1, 85200, Note_on_c, 0, 67, 0
1, 85200, Note_on_c, 0, 68, 56
1, 85200, Note_on_c, 0, 62, 60
1, 85380, Tempo, 875912
1, 85380, Note_on_c, 0, 62, 0
1, 85380, Note_on_c, 0, 45, 36
1, 85408, Control_c, 0, 64, 0
1, 85410, Note_on_c, 0, 52, 36
1, 85440, Tempo, 800000
1, 85440, Note_on_c, 0, 62, 62
1, 85518, Control_c, 0, 64, 127
1, 85680, Note_on_c, 0, 68, 0
1, 85680, Note_on_c, 0, 69, 55
1, 85920, Tempo, 821918
1, 85920, Note_on_c, 0, 45, 0
1, 85920, Note_on_c, 0, 62, 0
1, 85920, Note_on_c, 0, 52, 0
1, 85920, Note_on_c, 0, 61, 57
1, 86160, Note_on_c, 0, 69, 0
1, 86160, Note_on_c, 0, 64, 53
1, 86400, Tempo, 821918
1, 86400, Note_on_c, 0, 64, 0
1, 86400, Note_on_c, 0, 61, 0
1, 86400, Note_on_c, 0, 60, 57
1, 86400, Note_on_c, 0, 58, 50
1, 86405, Control_c, 0, 64, 0
1, 86560, Tempo, 800000
1, 86560, Note_on_c, 0, 72, 69
1, 86691, Control_c, 0, 64, 127
1, 86720, Tempo, 833333
1, 86720, Note_on_c, 0, 72, 0
1, 86720, Note_on_c, 0, 74, 70
1, 86880, Tempo, 805369
1, 86880, Note_on_c, 0, 74, 0
1, 86880, Note_on_c, 0, 76, 73
1, 86880, Note_on_c, 0, 67, 59
1, 87040, Note_on_c, 0, 76, 0
1, 87040, Note_on_c, 0, 77, 70
1, 87200, Note_on_c, 0, 77, 0
1, 87200, Note_on_c, 0, 79, 67
1, 87360, Tempo, 821918
1, 87360, Note_on_c, 0, 79, 0
1, 87360, Note_on_c, 0, 60, 0
1, 87360, Note_on_c, 0, 58, 0
1, 87360, Note_on_c, 0, 72, 74
1, 87360, Note_on_c, 0, 60, 44
1, 87360, Note_on_c, 0, 57, 44
1, 87369, Control_c, 0, 64, 0
1, 87448, Control_c, 0, 64, 127
1, 87520, Note_on_c, 0, 67, 0
1, 87520, Note_on_c, 0, 65, 57
1, 87680, Tempo, 839161
1, 87680, Note_on_c, 0, 65, 0
1, 87680, Note_on_c, 0, 64, 57
1, 87840, Tempo, 816327
1, 87840, Note_on_c, 0, 64, 0
1, 87840, Note_on_c, 0, 67, 61
1, 87851, Control_c, 0, 64, 0
1, 87918, Control_c, 0, 64, 127
1, 88160, Tempo, 851064
1, 88160, Note_on_c, 0, 67, 0
1, 88160, Note_on_c, 0, 65, 59
1, 88320, Tempo, 821918
1, 88320, Note_on_c, 0, 65, 0
1, 88320, Note_on_c, 0, 72, 0
1, 88320, Note_on_c, 0, 60, 0
1, 88320, Note_on_c, 0, 57, 0
1, 88320, Note_on_c, 0, 65, 61
1, 88320, Note_on_c, 0, 57, 59
1, 88320, Note_on_c, 0, 55, 52
1, 88330, Control_c, 0, 64, 0
1, 88480, Tempo, 800000
1, 88480, Note_on_c, 0, 69, 71
1, 88611, Control_c, 0, 64, 127
1, 88640, Tempo, 833333
1, 88640, Note_on_c, 0, 69, 0
1, 88640, Note_on_c, 0, 71, 71
1, 88800, Tempo, 800000
1, 88800, Note_on_c, 0, 71, 0
1, 88800, Note_on_c, 0, 65, 0
1, 88800, Note_on_c, 0, 73, 73
1, 88800, Note_on_c, 0, 64, 57
1, 88960, Note_on_c, 0, 73, 0
1, 88960, Note_on_c, 0, 74, 70
1, 89120, Note_on_c, 0, 74, 0
1, 89120, Note_on_c, 0, 76, 67
1, 89280, Tempo, 821918
1, 89280, Note_on_c, 0, 76, 0
1, 89280, Note_on_c, 0, 57, 0
1, 89280, Note_on_c, 0, 55, 0
1, 89280, Note_on_c, 0, 69, 74
1, 89280, Note_on_c, 0, 57, 47
1, 89280, Note_on_c, 0, 53, 47
1, 89293, Control_c, 0, 64, 0
1, 89347, Control_c, 0, 64, 127
1, 89440, Note_on_c, 0, 64, 0
1, 89440, Note_on_c, 0, 62, 57
1, 89600, Tempo, 839161
1, 89600, Note_on_c, 0, 62, 0
1, 89600, Note_on_c, 0, 61, 57
1, 89760, Tempo, 816327
1, 89760, Note_on_c, 0, 61, 0
1, 89760, Note_on_c, 0, 64, 61
1, 89771, Control_c, 0, 64, 0
1, 89838, Control_c, 0, 64, 127
1, 90080, Note_on_c, 0, 64, 0
1, 90080, Note_on_c, 0, 62, 59
1, 90180, Note_on_c, 0, 43, 48
1, 90240, Note_on_c, 0, 43, 0
1, 90240, Note_on_c, 0, 53, 0
1, 90240, Note_on_c, 0, 69, 0
1, 90240, Note_on_c, 0, 57, 0
1, 90240, Note_on_c, 0, 62, 0
1, 90240, Control_c, 0, 64, 0
1, 90240, Note_on_c, 0, 60, 59
1, 90240, Note_on_c, 0, 50, 52
1, 90240, Note_on_c, 0, 55, 52
1, 90400, Note_on_c, 0, 64, 71
1, 90500, Note_on_c, 0, 64, 0
1, 90560, Note_on_c, 0, 65, 70
1, 90660, Note_on_c, 0, 65, 0
1, 90720, Note_on_c, 0, 60, 0
1, 90720, Note_on_c, 0, 67, 71
1, 90720, Note_on_c, 0, 58, 56
1, 90820, Note_on_c, 0, 67, 0
1, 90880, Note_on_c, 0, 69, 70
1, 90980, Note_on_c, 0, 69, 0
1, 91040, Tempo, 800000
1, 91040, Note_on_c, 0, 70, 71
1, 91200, Tempo, 816327
1, 91200, Note_on_c, 0, 58, 0
1, 91200, Note_on_c, 0, 50, 0
1, 91200, Note_on_c, 0, 55, 0
1, 91200, Note_on_c, 0, 46, 57
1, 91225, Control_c, 0, 64, 127
1, 91360, Note_on_c, 0, 70, 0
1, 91360, Note_on_c, 0, 70, 71
1, 91520, Note_on_c, 0, 70, 0
1, 91520, Note_on_c, 0, 69, 67
1, 91680, Note_on_c, 0, 46, 0
1, 91680, Note_on_c, 0, 62, 46
1, 91680, Note_on_c, 0, 57, 41
1, 91680, Note_on_c, 0, 53, 41
1, 91691, Control_c, 0, 64, 0
1, 91726, Control_c, 0, 64, 127
1, 91840, Note_on_c, 0, 69, 0
1, 91840, Note_on_c, 0, 68, 69
1, 92000, Note_on_c, 0, 68, 0
1, 92000, Note_on_c, 0, 67, 66
1, 92160, Tempo, 845070
1, 92160, Note_on_c, 0, 53, 0
1, 92160, Note_on_c, 0, 62, 0
1, 92160, Note_on_c, 0, 57, 0
1, 92160, Note_on_c, 0, 45, 53
1, 92168, Control_c, 0, 64, 0
1, 92248, Control_c, 0, 64, 127
1, 92320, Tempo, 816327
1, 92320, Note_on_c, 0, 67, 0
1, 92320, Note_on_c, 0, 66, 68
1, 92480, Note_on_c, 0, 66, 0
1, 92480, Note_on_c, 0, 65, 62
1, 92640, Note_on_c, 0, 45, 0
1, 92640, Note_on_c, 0, 61, 40
1, 92640, Note_on_c, 0, 57, 37
1, 92640, Note_on_c, 0, 55, 37
1, 92651, Control_c, 0, 64, 0
1, 92707, Control_c, 0, 64, 127
1, 92800, Note_on_c, 0, 65, 0
1, 92800, Note_on_c, 0, 63, 66
1, 92960, Tempo, 833333
1, 92960, Note_on_c, 0, 63, 0
1, 92960, Note_on_c, 0, 64, 61
1, 93120, Tempo, 839161
1, 93120, Note_on_c, 0, 55, 0
1, 93120, Note_on_c, 0, 61, 0
1, 93120, Note_on_c, 0, 57, 0
1, 93120, Note_on_c, 0, 53, 38
1, 93120, Note_on_c, 0, 57, 38
1, 93120, Note_on_c, 0, 38, 35
1, 93120, Note_on_c, 0, 45, 35
1, 93129, Control_c, 0, 64, 0
1, 93222, Control_c, 0, 64, 127
1, 93440, Tempo, 902256
1, 93440, Note_on_c, 0, 64, 0
1, 93440, Note_on_c, 0, 61, 51
1, 93600, Tempo, 923077
1, 93600, Note_on_c, 0, 61, 0
1, 93600, Note_on_c, 0, 61, 50
1, 93920, Note_on_c, 0, 61, 0
1, 93920, Note_on_c, 0, 62, 45
1, 94078, Note_on_c, 0, 62, 0
1, 94080, Tempo, 816549
1, 94080, Note_on_c, 0, 45, 0
1, 94080, Note_on_c, 0, 53, 0
1, 94080, Note_on_c, 0, 57, 0
1, 94080, Note_on_c, 0, 38, 0
1, 94080, Note_on_c, 0, 50, 32
1, 94080, Note_on_c, 0, 55, 32
1, 94080, Note_on_c, 0, 58, 36
1, 94080, Note_on_c, 0, 62, 36
1, 94082, Control_c, 0, 64, 0
1, 94161, Control_c, 0, 64, 127
1, 94240, Tempo, 795334
1, 94240, Note_on_c, 0, 64, 45
1, 94400, Note_on_c, 0, 64, 0
1, 94400, Note_on_c, 0, 63, 46
1, 94560, Tempo, 790097
1, 94560, Note_on_c, 0, 63, 0
1, 94560, Note_on_c, 0, 64, 45
1, 94571, Control_c, 0, 64, 0
1, 94655, Control_c, 0, 64, 127
1, 94680, Tempo, 795334
1, 94720, Note_on_c, 0, 64, 0
1, 94720, Note_on_c, 0, 65, 43
1, 94760, Tempo, 800427
1, 94880, Tempo, 839161
1, 94880, Note_on_c, 0, 65, 0
1, 94880, Note_on_c, 0, 64, 43
1, 95040, Tempo, 816549
1, 95040, Note_on_c, 0, 62, 0
1, 95040, Note_on_c, 0, 58, 0
1, 95040, Note_on_c, 0, 50, 0
1, 95040, Note_on_c, 0, 55, 0
1, 95040, Note_on_c, 0, 53, 28
1, 95040, Note_on_c, 0, 57, 28
1, 95040, Note_on_c, 0, 38, 25
1, 95040, Note_on_c, 0, 45, 28
1, 95049, Control_c, 0, 64, 0
1, 95166, Control_c, 0, 64, 127
1, 95360, Tempo, 839161
1, 95360, Note_on_c, 0, 64, 0
1, 95360, Note_on_c, 0, 61, 40
1, 95520, Tempo, 833449
1, 95520, Note_on_c, 0, 61, 0
1, 95520, Note_on_c, 0, 61, 45
1, 95840, Note_on_c, 0, 61, 0
1, 95840, Note_on_c, 0, 62, 42
1, 95998, Note_on_c, 0, 62, 0
1, 96000, Tempo, 816549
1, 96000, Note_on_c, 0, 45, 0
1, 96000, Note_on_c, 0, 53, 0
1, 96000, Note_on_c, 0, 57, 0
1, 96000, Note_on_c, 0, 38, 0
1, 96000, Control_c, 0, 64, 0
1, 96000, Note_on_c, 0, 50, 32
1, 96000, Note_on_c, 0, 55, 32
1, 96000, Note_on_c, 0, 58, 36
1, 96000, Note_on_c, 0, 62, 36
1, 96127, Control_c, 0, 64, 127
1, 96160, Tempo, 795334
1, 96160, Note_on_c, 0, 67, 45
1, 96320, Note_on_c, 0, 67, 0
1, 96320, Note_on_c, 0, 69, 46
1, 96480, Tempo, 790097
1, 96480, Note_on_c, 0, 69, 0
1, 96480, Note_on_c, 0, 70, 47
1, 96497, Control_c, 0, 64, 0
1, 96600, Tempo, 795334
1, 96607, Control_c, 0, 64, 127
1, 96680, Tempo, 800427
1, 96800, Tempo, 816327
1, 96958, Note_on_c, 0, 62, 0
1, 96960, Tempo, 839161
1, 96960, Note_on_c, 0, 58, 0
1, 96960, Note_on_c, 0, 50, 0
1, 96960, Note_on_c, 0, 55, 0
1, 96960, Note_on_c, 0, 57, 28
1, 96960, Note_on_c, 0, 62, 28
1, 96960, Control_c, 0, 64, 0
1, 96960, Note_on_c, 0, 38, 25
1, 96960, Note_on_c, 0, 45, 28
1, 97086, Control_c, 0, 64, 127
1, 97120, Tempo, 800000
1, 97120, Note_on_c, 0, 70, 0
1, 97120, Note_on_c, 0, 65, 46
1, 97280, Note_on_c, 0, 65, 0
1, 97280, Note_on_c, 0, 67, 45
1, 97400, Tempo, 821918
1, 97440, Note_on_c, 0, 67, 0
1, 97440, Note_on_c, 0, 69, 49
1, 97454, Control_c, 0, 64, 0
1, 97567, Control_c, 0, 64, 127
1, 97920, Tempo, 816549
1, 97920, Note_on_c, 0, 69, 0
1, 97920, Note_on_c, 0, 45, 0
1, 97920, Note_on_c, 0, 57, 0
1, 97920, Note_on_c, 0, 62, 0
1, 97920, Note_on_c, 0, 38, 0
1, 97920, Note_on_c, 0, 50, 32
1, 97920, Note_on_c, 0, 55, 32
1, 97920, Note_on_c, 0, 58, 36
1, 97920, Note_on_c, 0, 62, 36
1, 97923, Control_c, 0, 64, 0
1, 98001, Control_c, 0, 64, 127
1, 98080, Tempo, 795334
1, 98080, Note_on_c, 0, 64, 45
1, 98240, Note_on_c, 0, 64, 0
1, 98240, Note_on_c, 0, 63, 46
1, 98400, Tempo, 790097
1, 98400, Note_on_c, 0, 63, 0
1, 98400, Note_on_c, 0, 64, 45
1, 98400, Control_c, 0, 64, 0
1, 98432, Control_c, 0, 64, 127
1, 98520, Tempo, 795334
1, 98560, Note_on_c, 0, 64, 0
1, 98560, Note_on_c, 0, 65, 43
1, 98600, Tempo, 800427
1, 98720, Tempo, 839161
1, 98720, Note_on_c, 0, 65, 0
1, 98720, Note_on_c, 0, 64, 43
1, 98880, Tempo, 816549
1, 98880, Note_on_c, 0, 62, 0
1, 98880, Note_on_c, 0, 58, 0
1, 98880, Note_on_c, 0, 50, 0
1, 98880, Note_on_c, 0, 55, 0
1, 98880, Note_on_c, 0, 53, 28
1, 98880, Note_on_c, 0, 57, 28
1, 98880, Note_on_c, 0, 38, 25
1, 98880, Note_on_c, 0, 45, 28
1, 98889, Control_c, 0, 64, 0
1, 99006, Control_c, 0, 64, 127
1, 99200, Tempo, 839161
1, 99200, Note_on_c, 0, 64, 0
1, 99200, Note_on_c, 0, 61, 40
1, 99360, Tempo, 833449
1, 99360, Note_on_c, 0, 61, 0
1, 99360, Note_on_c, 0, 61, 45
1, 99680, Note_on_c, 0, 61, 0
1, 99680, Note_on_c, 0, 62, 42
1, 99838, Note_on_c, 0, 62, 0
1, 99840, Tempo, 816549
1, 99840, Note_on_c, 0, 45, 0
1, 99840, Note_on_c, 0, 53, 0
1, 99840, Note_on_c, 0, 57, 0
1, 99840, Note_on_c, 0, 38, 0
1, 99840, Note_on_c, 0, 50, 32
1, 99840, Note_on_c, 0, 52, 32
1, 99840, Note_on_c, 0, 62, 36
1, 99844, Control_c, 0, 64, 0
1, 100000, Tempo, 795334
1, 100000, Note_on_c, 0, 55, 40
1, 100160, Note_on_c, 0, 57, 41
1, 100180, Note_on_c, 0, 55, 0
1, 100320, Tempo, 790097
1, 100320, Note_on_c, 0, 58, 42
1, 100340, Note_on_c, 0, 57, 0
1, 100440, Tempo, 795334
1, 100489, Control_c, 0, 64, 127
1, 100520, Tempo, 800427
1, 100640, Tempo, 816327
1, 100800, Tempo, 839161
1, 100800, Note_on_c, 0, 62, 0
1, 100800, Note_on_c, 0, 50, 0
1, 100800, Note_on_c, 0, 52, 0
1, 100800, Note_on_c, 0, 38, 25
1, 100800, Note_on_c, 0, 45, 28
1, 100809, Control_c, 0, 64, 0
1, 100926, Control_c, 0, 64, 127
1, 100960, Tempo, 800000
1, 100960, Note_on_c, 0, 58, 0
1, 100960, Note_on_c, 0, 53, 41
1, 101120, Note_on_c, 0, 55, 40
1, 101140, Note_on_c, 0, 53, 0
1, 101240, Tempo, 821918
1, 101280, Note_on_c, 0, 57, 44
1, 101293, Control_c, 0, 64, 0
1, 101300, Note_on_c, 0, 55, 0
1, 101393, Control_c, 0, 64, 127
1, 101760, Tempo, 816549
1, 101760, Note_on_c, 0, 38, 0
1, 101760, Note_on_c, 0, 45, 0
1, 101760, Note_on_c, 0, 57, 0
1, 101760, Control_c, 0, 64, 0
1, 101760, Note_on_c, 0, 50, 32
1, 101760, Note_on_c, 0, 52, 32
1, 101760, Note_on_c, 0, 62, 36
1, 101920, Tempo, 795334
1, 101920, Note_on_c, 0, 55, 40
1, 102080, Note_on_c, 0, 57, 41
1, 102100, Note_on_c, 0, 55, 0
1, 102240, Tempo, 790097
1, 102240, Note_on_c, 0, 58, 42
1, 102260, Note_on_c, 0, 57, 0
1, 102360, Tempo, 795334
1, 102438, Control_c, 0, 64, 127
1, 102440, Tempo, 800427
1, 102560, Tempo, 816327
1, 102720, Tempo, 839161
1, 102720, Note_on_c, 0, 62, 0
1, 102720, Note_on_c, 0, 50, 0
1, 102720, Note_on_c, 0, 52, 0
1, 102720, Note_on_c, 0, 38, 25
1, 102720, Note_on_c, 0, 45, 28
1, 102729, Control_c, 0, 64, 0
1, 102846, Control_c, 0, 64, 127
1, 102880, Tempo, 810811
1, 102880, Note_on_c, 0, 58, 0
1, 102880, Note_on_c, 0, 53, 41
1, 103040, Note_on_c, 0, 55, 40
1, 103060, Note_on_c, 0, 53, 0
1, 103160, Tempo, 821918
1, 103200, Note_on_c, 0, 57, 44
1, 103218, Control_c, 0, 64, 0
1, 103220, Note_on_c, 0, 55, 0
1, 103341, Control_c, 0, 64, 127
1, 103680, Tempo, 833333
1, 103680, Note_on_c, 0, 38, 0
1, 103680, Note_on_c, 0, 45, 0
1, 103680, Note_on_c, 0, 53, 25
1, 103680, Note_on_c, 0, 50, 25
1, 103680, Note_on_c, 0, 62, 28
1, 103686, Control_c, 0, 64, 0
1, 103761, Control_c, 0, 64, 127
1, 104000, Note_on_c, 0, 57, 0
1, 104000, Note_on_c, 0, 58, 36
1, 104160, Note_on_c, 0, 58, 0
1, 104160, Note_on_c, 0, 58, 39
1, 104174, Control_c, 0, 64, 0
1, 104245, Control_c, 0, 64, 127
1, 104480, Note_on_c, 0, 57, 36
1, 104500, Note_on_c, 0, 58, 0
1, 104613, Tempo, 821918
1, 104640, Note_on_c, 0, 57, 0
1, 104640, Note_on_c, 0, 58, 39
1, 104655, Control_c, 0, 64, 0
1, 104728, Control_c, 0, 64, 127
1, 104733, Tempo, 827586
1, 104813, Tempo, 833333
1, 104880, Note_on_c, 0, 53, 0
1, 104880, Note_on_c, 0, 62, 0
1, 104880, Note_on_c, 0, 50, 0
1, 104893, Tempo, 839161
1, 104960, Note_on_c, 0, 57, 34
1, 104973, Tempo, 845070
1, 104980, Note_on_c, 0, 58, 0
1, 105053, Tempo, 851064
1, 105120, Note_on_c, 0, 57, 0
1, 105120, Note_on_c, 0, 58, 36
1, 105133, Tempo, 857143
1, 105134, Control_c, 0, 64, 0
1, 105213, Tempo, 863309
1, 105222, Control_c, 0, 64, 127
1, 105293, Tempo, 869565
1, 105360, Tempo, 991736
1, 105440, Note_on_c, 0, 57, 30
1, 105460, Note_on_c, 0, 58, 0
1, 105600, Tempo, 1142857
1, 105600, Note_on_c, 0, 57, 0
1, 105600, Note_on_c, 0, 60, 35
1, 105616, Control_c, 0, 64, 0
1, 105826, Control_c, 0, 64, 127
1, 106320, Tempo, 3529412
1, 106400, Note_on_c, 0, 60, 0
1, 106400, Note_on_c, 0, 58, 23
1, 106560, Tempo, 3076923
1, 106560, Note_on_c, 0, 57, 22
1, 106576, Control_c, 0, 64, 0
1, 106600, Note_on_c, 0, 58, 0
1, 106673, Control_c, 0, 64, 127
1, 107520, Tempo, 857143
1, 107520, Note_on_c, 0, 57, 0
1, 107608, Control_c, 0, 64, 0
1, 107608, End_track
0, 0, End_of_file
