0, 0, Header, 0, 1, 480
1, 0, Start_track
1, 0, Title_t, "Beethoven Sonata No. 21 in C major"
1, 0, Title_t, "2. Movement"
1, 0, Copyright_t, "Copyright © 2003 by Bernd Krueger "
1, 0, Text_t, "Ludwig van Beethoven"
1, 0, Text_t, "Adagio molto"
1, 0, Text_t, "Fertiggestellt am 28.11.2003\012"
1, 0, Text_t, "Update am 25.6.2012\012"
1, 0, Text_t, "Dauer: 4:09 Minuten\012"
1, 0, SMPTE_offset, 96, 0, 3, 0, 0
1, 0, Time_signature, 6, 3, 12, 8
1, 0, Key_signature, -1, "major"
1, 0, Tempo, 3000000
1, 0, Program_c, 0, 1
1, 0, Control_c, 0, 7, 100
1, 0, Control_c, 0, 10, 64
1, 0, Control_c, 0, 91, 127
1, 0, Text_t, "bdca426d104a26ac9dcb070447587523"
1, 0, Program_c, 0, 1
1, 0, Control_c, 0, 7, 100
1, 0, Control_c, 0, 10, 64
1, 0, Note_on_c, 0, 29, 29
1, 0, Note_on_c, 0, 41, 35
1, 57, Control_c, 0, 64, 127
1, 240, Note_on_c, 0, 48, 41
1, 420, Tempo, 3333333
1, 420, Note_on_c, 0, 48, 0
1, 420, Note_on_c, 0, 48, 41
1, 480, Tempo, 3000000
1, 480, Note_on_c, 0, 48, 0
1, 480, Note_on_c, 0, 57, 47
1, 720, Note_on_c, 0, 57, 0
1, 720, Note_on_c, 0, 41, 0
1, 720, Note_on_c, 0, 29, 0
1, 720, Note_on_c, 0, 29, 29
1, 720, Note_on_c, 0, 41, 35
1, 738, Control_c, 0, 64, 0
1, 830, Control_c, 0, 64, 127
1, 960, Note_on_c, 0, 57, 40
1, 1140, Tempo, 3333333
1, 1140, Note_on_c, 0, 57, 0
1, 1140, Note_on_c, 0, 57, 40
1, 1200, Tempo, 3000000
1, 1200, Note_on_c, 0, 57, 0
1, 1200, Note_on_c, 0, 63, 46
1, 1440, Note_on_c, 0, 63, 0
1, 1440, Note_on_c, 0, 41, 0
1, 1440, Note_on_c, 0, 29, 0
1, 1450, Control_c, 0, 64, 0
1, 1680, Tempo, 2857143
1, 1680, Note_on_c, 0, 56, 36
1, 1680, Note_on_c, 0, 64, 36
1, 1680, Note_on_c, 0, 40, 26
1, 1680, Note_on_c, 0, 52, 31
1, 1829, Control_c, 0, 64, 127
1, 1908, Note_on_c, 0, 52, 0
1, 1908, Note_on_c, 0, 56, 0
1, 1908, Note_on_c, 0, 64, 0
1, 1908, Note_on_c, 0, 40, 0
1, 1920, Tempo, 3000000
1, 1920, Note_on_c, 0, 59, 30
1, 1920, Note_on_c, 0, 56, 25
1, 1920, Note_on_c, 0, 64, 30
1, 1920, Note_on_c, 0, 40, 21
1, 1920, Note_on_c, 0, 52, 25
1, 2148, Note_on_c, 0, 52, 0
1, 2148, Note_on_c, 0, 64, 0
1, 2148, Note_on_c, 0, 59, 0
1, 2148, Note_on_c, 0, 56, 0
1, 2148, Note_on_c, 0, 40, 0
1, 2160, Note_on_c, 0, 56, 24
1, 2160, Note_on_c, 0, 59, 28
1, 2160, Note_on_c, 0, 64, 28
1, 2160, Note_on_c, 0, 40, 20
1, 2160, Note_on_c, 0, 52, 24
1, 2640, Note_on_c, 0, 52, 0
1, 2640, Note_on_c, 0, 64, 0
1, 2640, Note_on_c, 0, 56, 0
1, 2640, Note_on_c, 0, 59, 0
1, 2640, Note_on_c, 0, 40, 0
1, 2652, Control_c, 0, 64, 0
1, 2880, Control_c, 0, 91, 127
1, 2880, Text_t, "bdca426d104a26ac9dcb070447587523"
1, 2880, Note_on_c, 0, 40, 31
1, 2880, Note_on_c, 0, 52, 38
1, 2947, Control_c, 0, 64, 127
1, 3120, Note_on_c, 0, 59, 41
1, 3300, Tempo, 3243243
1, 3300, Note_on_c, 0, 59, 0
1, 3300, Note_on_c, 0, 59, 41
1, 3360, Tempo, 3000000
1, 3360, Note_on_c, 0, 59, 0
1, 3360, Note_on_c, 0, 67, 47
1, 3600, Note_on_c, 0, 67, 0
1, 3600, Note_on_c, 0, 52, 0
1, 3600, Note_on_c, 0, 40, 0
1, 3600, Note_on_c, 0, 40, 31
1, 3600, Note_on_c, 0, 52, 38
1, 3618, Control_c, 0, 64, 0
1, 3671, Control_c, 0, 64, 127
1, 3840, Note_on_c, 0, 61, 40
1, 4020, Tempo, 3636364
1, 4020, Note_on_c, 0, 61, 0
1, 4020, Note_on_c, 0, 61, 40
1, 4080, Tempo, 3000000
1, 4080, Note_on_c, 0, 61, 0
1, 4080, Note_on_c, 0, 70, 46
1, 4320, Note_on_c, 0, 70, 0
1, 4320, Note_on_c, 0, 52, 0
1, 4320, Note_on_c, 0, 40, 0
1, 4335, Control_c, 0, 64, 0
1, 4560, Tempo, 2857143
1, 4560, Note_on_c, 0, 66, 32
1, 4560, Note_on_c, 0, 59, 36
1, 4560, Note_on_c, 0, 71, 36
1, 4560, Note_on_c, 0, 47, 26
1, 4560, Note_on_c, 0, 39, 26
1, 4560, Note_on_c, 0, 51, 31
1, 4709, Control_c, 0, 64, 127
1, 4788, Note_on_c, 0, 51, 0
1, 4788, Note_on_c, 0, 59, 0
1, 4788, Note_on_c, 0, 71, 0
1, 4788, Note_on_c, 0, 66, 0
1, 4788, Note_on_c, 0, 39, 0
1, 4788, Note_on_c, 0, 47, 0
1, 4800, Tempo, 3000000
1, 4800, Note_on_c, 0, 66, 32
1, 4800, Note_on_c, 0, 59, 27
1, 4800, Note_on_c, 0, 71, 32
1, 4800, Note_on_c, 0, 47, 23
1, 4800, Note_on_c, 0, 39, 23
1, 4800, Note_on_c, 0, 51, 27
1, 5028, Note_on_c, 0, 51, 0
1, 5028, Note_on_c, 0, 59, 0
1, 5028, Note_on_c, 0, 71, 0
1, 5028, Note_on_c, 0, 66, 0
1, 5028, Note_on_c, 0, 39, 0
1, 5028, Note_on_c, 0, 47, 0
1, 5040, Note_on_c, 0, 59, 24
1, 5040, Note_on_c, 0, 66, 28
1, 5040, Note_on_c, 0, 71, 28
1, 5040, Note_on_c, 0, 47, 20
1, 5040, Note_on_c, 0, 39, 20
1, 5040, Note_on_c, 0, 51, 24
1, 5520, Note_on_c, 0, 51, 0
1, 5520, Note_on_c, 0, 66, 0
1, 5520, Note_on_c, 0, 71, 0
1, 5520, Note_on_c, 0, 59, 0
1, 5520, Note_on_c, 0, 39, 0
1, 5520, Note_on_c, 0, 47, 0
1, 5532, Control_c, 0, 64, 0
1, 5760, Control_c, 0, 91, 127
1, 5760, Text_t, "bdca426d104a26ac9dcb070447587523"
1, 5760, Note_on_c, 0, 38, 38
1, 5760, Note_on_c, 0, 50, 45
1, 5813, Control_c, 0, 64, 127
1, 6000, Note_on_c, 0, 65, 46
1, 6120, Tempo, 2790698
1, 6180, Tempo, 3260870
1, 6180, Note_on_c, 0, 65, 0
1, 6180, Note_on_c, 0, 65, 54
1, 6240, Tempo, 3000000
1, 6240, Note_on_c, 0, 65, 0
1, 6240, Note_on_c, 0, 71, 60
1, 6480, Note_on_c, 0, 71, 0
1, 6480, Note_on_c, 0, 50, 0
1, 6480, Note_on_c, 0, 38, 0
1, 6480, Note_on_c, 0, 37, 42
1, 6480, Note_on_c, 0, 49, 50
1, 6491, Control_c, 0, 64, 0
1, 6593, Control_c, 0, 64, 127
1, 6720, Tempo, 2857143
1, 6720, Note_on_c, 0, 71, 60
1, 6900, Tempo, 3428571
1, 6900, Note_on_c, 0, 71, 0
1, 6900, Note_on_c, 0, 71, 60
1, 6960, Tempo, 3000000
1, 6960, Note_on_c, 0, 71, 0
1, 6960, Note_on_c, 0, 77, 70
1, 7200, Note_on_c, 0, 49, 0
1, 7200, Note_on_c, 0, 37, 0
1, 7200, Note_on_c, 0, 36, 44
1, 7200, Note_on_c, 0, 48, 52
1, 7217, Control_c, 0, 64, 0
1, 7374, Control_c, 0, 64, 127
1, 7428, Note_on_c, 0, 48, 0
1, 7428, Note_on_c, 0, 36, 0
1, 7440, Tempo, 2790698
1, 7440, Note_on_c, 0, 77, 0
1, 7440, Note_on_c, 0, 76, 65
1, 7440, Note_on_c, 0, 36, 44
1, 7440, Note_on_c, 0, 48, 52
1, 7668, Note_on_c, 0, 48, 0
1, 7668, Note_on_c, 0, 36, 0
1, 7680, Tempo, 3157895
1, 7680, Note_on_c, 0, 76, 0
1, 7680, Note_on_c, 0, 79, 68
1, 7680, Note_on_c, 0, 36, 44
1, 7680, Note_on_c, 0, 48, 52
1, 7908, Note_on_c, 0, 48, 0
1, 7908, Note_on_c, 0, 36, 0
1, 7920, Tempo, 3000000
1, 7920, Note_on_c, 0, 79, 0
1, 7920, Note_on_c, 0, 64, 32
1, 7920, Note_on_c, 0, 70, 39
1, 7920, Note_on_c, 0, 36, 31
1, 7920, Note_on_c, 0, 48, 36
1, 8254, Control_c, 0, 64, 0
1, 8400, Note_on_c, 0, 48, 0
1, 8400, Note_on_c, 0, 64, 0
1, 8400, Note_on_c, 0, 70, 0
1, 8400, Note_on_c, 0, 36, 0
1, 8880, Tempo, 2690583
1, 8880, Note_on_c, 0, 65, 35
1, 8880, Note_on_c, 0, 69, 42
1, 8880, Note_on_c, 0, 38, 28
1, 8880, Note_on_c, 0, 50, 34
1, 8880, Control_c, 0, 64, 127
1, 9108, Note_on_c, 0, 50, 0
1, 9108, Note_on_c, 0, 65, 0
1, 9108, Note_on_c, 0, 69, 0
1, 9108, Note_on_c, 0, 38, 0
1, 9120, Tempo, 3076923
1, 9120, Note_on_c, 0, 69, 40
1, 9120, Note_on_c, 0, 77, 48
1, 9120, Note_on_c, 0, 38, 35
1, 9120, Note_on_c, 0, 50, 42
1, 9340, Tempo, 3000000
1, 9348, Note_on_c, 0, 50, 0
1, 9348, Note_on_c, 0, 69, 0
1, 9348, Note_on_c, 0, 77, 0
1, 9348, Note_on_c, 0, 38, 0
1, 9360, Note_on_c, 0, 65, 30
1, 9360, Note_on_c, 0, 69, 36
1, 9360, Note_on_c, 0, 38, 24
1, 9360, Note_on_c, 0, 50, 29
1, 9614, Control_c, 0, 64, 0
1, 9840, Note_on_c, 0, 50, 0
1, 9840, Note_on_c, 0, 65, 0
1, 9840, Note_on_c, 0, 69, 0
1, 9840, Note_on_c, 0, 38, 0
1, 10080, Tempo, 2690583
1, 10080, Note_on_c, 0, 34, 38
1, 10080, Note_on_c, 0, 46, 45
1, 10240, Control_c, 0, 64, 127
1, 10320, Tempo, 3000000
1, 10320, Note_on_c, 0, 46, 0
1, 10320, Note_on_c, 0, 34, 0
1, 10320, Note_on_c, 0, 58, 36
1, 10320, Note_on_c, 0, 62, 36
1, 10320, Note_on_c, 0, 67, 43
1, 10560, Note_on_c, 0, 67, 0
1, 10560, Note_on_c, 0, 62, 0
1, 10560, Note_on_c, 0, 58, 0
1, 10574, Control_c, 0, 64, 0
1, 10800, Tempo, 2857143
1, 10800, Note_on_c, 0, 36, 35
1, 10800, Note_on_c, 0, 48, 42
1, 10947, Control_c, 0, 64, 127
1, 11040, Tempo, 3000000
1, 11040, Note_on_c, 0, 48, 0
1, 11040, Note_on_c, 0, 36, 0
1, 11040, Note_on_c, 0, 55, 34
1, 11040, Note_on_c, 0, 58, 34
1, 11040, Note_on_c, 0, 64, 40
1, 11267, Control_c, 0, 64, 0
1, 11280, Note_on_c, 0, 64, 0
1, 11280, Note_on_c, 0, 58, 0
1, 11280, Note_on_c, 0, 55, 0
1, 11520, Tempo, 3157895
1, 11520, Note_on_c, 0, 29, 32
1, 11520, Note_on_c, 0, 41, 38
1, 11570, Control_c, 0, 64, 127
1, 11748, Note_on_c, 0, 41, 0
1, 11748, Note_on_c, 0, 29, 0
1, 11760, Tempo, 2803738
1, 11760, Note_on_c, 0, 57, 27
1, 11760, Note_on_c, 0, 60, 27
1, 11760, Note_on_c, 0, 65, 33
1, 11760, Note_on_c, 0, 29, 23
1, 11760, Note_on_c, 0, 41, 27
1, 11988, Note_on_c, 0, 41, 0
1, 11988, Note_on_c, 0, 65, 0
1, 11988, Note_on_c, 0, 57, 0
1, 11988, Note_on_c, 0, 60, 0
1, 11988, Note_on_c, 0, 29, 0
1, 12000, Note_on_c, 0, 57, 27
1, 12000, Note_on_c, 0, 60, 27
1, 12000, Note_on_c, 0, 69, 33
1, 12000, Note_on_c, 0, 29, 23
1, 12000, Note_on_c, 0, 41, 27
1, 12228, Note_on_c, 0, 41, 0
1, 12228, Note_on_c, 0, 69, 0
1, 12228, Note_on_c, 0, 57, 0
1, 12228, Note_on_c, 0, 60, 0
1, 12228, Note_on_c, 0, 29, 0
1, 12240, Tempo, 3000000
1, 12240, Note_on_c, 0, 57, 27
1, 12240, Note_on_c, 0, 60, 27
1, 12240, Note_on_c, 0, 65, 33
1, 12240, Note_on_c, 0, 29, 23
1, 12240, Note_on_c, 0, 41, 27
1, 12685, Control_c, 0, 64, 0
1, 12720, Tempo, 2727273
1, 12720, Note_on_c, 0, 41, 0
1, 12720, Note_on_c, 0, 65, 0
1, 12720, Note_on_c, 0, 57, 0
1, 12720, Note_on_c, 0, 60, 0
1, 12720, Note_on_c, 0, 29, 0
1, 12720, Note_on_c, 0, 48, 53
1, 12900, Note_on_c, 0, 48, 0
1, 12900, Note_on_c, 0, 48, 53
1, 12930, Note_on_c, 0, 48, 0
1, 12930, Note_on_c, 0, 48, 53
1, 12958, Note_on_c, 0, 48, 0
1, 12960, Note_on_c, 0, 57, 61
1, 12960, Note_on_c, 0, 41, 41
1, 12960, Note_on_c, 0, 48, 49
1, 13320, Note_on_c, 0, 48, 0
1, 13320, Note_on_c, 0, 41, 0
1, 13320, Note_on_c, 0, 57, 0
1, 13320, Note_on_c, 0, 55, 58
1, 13320, Note_on_c, 0, 40, 39
1, 13320, Note_on_c, 0, 48, 48
1, 13430, Note_on_c, 0, 48, 0
1, 13430, Note_on_c, 0, 40, 0
1, 13430, Note_on_c, 0, 55, 0
1, 13440, Note_on_c, 0, 57, 61
1, 13440, Note_on_c, 0, 41, 42
1, 13440, Note_on_c, 0, 48, 50
1, 13550, Note_on_c, 0, 48, 0
1, 13550, Note_on_c, 0, 41, 0
1, 13550, Note_on_c, 0, 57, 0
1, 13560, Note_on_c, 0, 58, 64
1, 13560, Note_on_c, 0, 43, 45
1, 13560, Note_on_c, 0, 48, 53
1, 13670, Note_on_c, 0, 48, 0
1, 13670, Note_on_c, 0, 43, 0
1, 13670, Note_on_c, 0, 58, 0
1, 13680, Tempo, 2926829
1, 13680, Note_on_c, 0, 59, 68
1, 13680, Note_on_c, 0, 44, 48
1, 13680, Note_on_c, 0, 48, 58
1, 13800, Tempo, 2666667
1, 13800, Note_on_c, 0, 48, 0
1, 13800, Note_on_c, 0, 44, 0
1, 13800, Note_on_c, 0, 59, 0
1, 13800, Note_on_c, 0, 60, 73
1, 13800, Note_on_c, 0, 45, 50
1, 13800, Note_on_c, 0, 48, 60
1, 14040, Tempo, 2727273
1, 14040, Note_on_c, 0, 48, 0
1, 14040, Note_on_c, 0, 45, 0
1, 14040, Note_on_c, 0, 60, 0
1, 14040, Note_on_c, 0, 62, 71
1, 14040, Note_on_c, 0, 46, 50
1, 14040, Note_on_c, 0, 48, 61
1, 14280, Note_on_c, 0, 48, 0
1, 14280, Note_on_c, 0, 46, 0
1, 14280, Note_on_c, 0, 62, 0
1, 14280, Note_on_c, 0, 58, 48
1, 14280, Note_on_c, 0, 43, 40
1, 14280, Note_on_c, 0, 48, 40
1, 14340, Note_on_c, 0, 43, 0
1, 14340, Note_on_c, 0, 58, 0
1, 14340, Note_on_c, 0, 57, 43
1, 14340, Note_on_c, 0, 41, 35
1, 14400, Tempo, 2727273
1, 14400, Note_on_c, 0, 41, 0
1, 14400, Note_on_c, 0, 57, 0
1, 14400, Note_on_c, 0, 48, 0
1, 14400, Note_on_c, 0, 55, 45
1, 14400, Note_on_c, 0, 40, 40
1, 14400, Note_on_c, 0, 48, 40
1, 14520, Note_on_c, 0, 55, 0
1, 14520, Note_on_c, 0, 66, 48
1, 14630, Note_on_c, 0, 66, 0
1, 14640, Note_on_c, 0, 67, 48
1, 14750, Note_on_c, 0, 67, 0
1, 14760, Note_on_c, 0, 48, 0
1, 14760, Note_on_c, 0, 40, 0
1, 14760, Note_on_c, 0, 69, 49
1, 14760, Note_on_c, 0, 54, 35
1, 14760, Note_on_c, 0, 60, 29
1, 14870, Note_on_c, 0, 60, 0
1, 14870, Note_on_c, 0, 54, 0
1, 14870, Note_on_c, 0, 69, 0
1, 14880, Tempo, 2790698
1, 14880, Note_on_c, 0, 70, 53
1, 14880, Note_on_c, 0, 55, 38
1, 14880, Note_on_c, 0, 60, 32
1, 14990, Note_on_c, 0, 60, 0
1, 14990, Note_on_c, 0, 55, 0
1, 14990, Note_on_c, 0, 70, 0
1, 15000, Tempo, 2727273
1, 15000, Note_on_c, 0, 78, 54
1, 15000, Note_on_c, 0, 57, 40
1, 15000, Note_on_c, 0, 60, 34
1, 15110, Note_on_c, 0, 60, 0
1, 15110, Note_on_c, 0, 57, 0
1, 15110, Note_on_c, 0, 78, 0
1, 15120, Note_on_c, 0, 79, 55
1, 15120, Note_on_c, 0, 58, 51
1, 15120, Note_on_c, 0, 60, 51
1, 15230, Note_on_c, 0, 60, 0
1, 15230, Note_on_c, 0, 58, 0
1, 15230, Note_on_c, 0, 79, 0
1, 15240, Note_on_c, 0, 81, 56
1, 15240, Note_on_c, 0, 42, 51
1, 15350, Note_on_c, 0, 42, 0
1, 15350, Note_on_c, 0, 81, 0
1, 15360, Note_on_c, 0, 82, 57
1, 15360, Note_on_c, 0, 43, 55
1, 15470, Note_on_c, 0, 43, 0
1, 15470, Note_on_c, 0, 82, 0
1, 15480, Note_on_c, 0, 45, 51
1, 15590, Note_on_c, 0, 45, 0
1, 15600, Tempo, 2727273
1, 15600, Note_on_c, 0, 48, 57
1, 15600, Note_on_c, 0, 46, 57
1, 15710, Note_on_c, 0, 46, 0
1, 15720, Note_on_c, 0, 43, 50
1, 15780, Tempo, 3157895
1, 15780, Note_on_c, 0, 48, 0
1, 15780, Note_on_c, 0, 48, 57
1, 15810, Note_on_c, 0, 48, 0
1, 15810, Note_on_c, 0, 48, 53
1, 15830, Note_on_c, 0, 43, 0
1, 15840, Tempo, 2608696
1, 15840, Note_on_c, 0, 48, 0
1, 15840, Note_on_c, 0, 58, 69
1, 15840, Note_on_c, 0, 40, 41
1, 15960, Tempo, 2727273
1, 15960, Note_on_c, 0, 40, 0
1, 15960, Note_on_c, 0, 43, 40
1, 15960, Note_on_c, 0, 48, 46
1, 16200, Note_on_c, 0, 48, 0
1, 16200, Note_on_c, 0, 43, 0
1, 16200, Note_on_c, 0, 58, 0
1, 16200, Note_on_c, 0, 57, 63
1, 16200, Note_on_c, 0, 42, 42
1, 16200, Note_on_c, 0, 48, 52
1, 16310, Note_on_c, 0, 48, 0
1, 16310, Note_on_c, 0, 42, 0
1, 16310, Note_on_c, 0, 57, 0
1, 16320, Note_on_c, 0, 58, 66
1, 16320, Note_on_c, 0, 43, 46
1, 16320, Note_on_c, 0, 48, 55
1, 16430, Note_on_c, 0, 48, 0
1, 16430, Note_on_c, 0, 43, 0
1, 16430, Note_on_c, 0, 58, 0
1, 16440, Tempo, 2790698
1, 16440, Note_on_c, 0, 60, 68
1, 16440, Note_on_c, 0, 45, 49
1, 16440, Note_on_c, 0, 48, 58
1, 16550, Note_on_c, 0, 48, 0
1, 16550, Note_on_c, 0, 45, 0
1, 16550, Note_on_c, 0, 60, 0
1, 16560, Tempo, 3076923
1, 16560, Note_on_c, 0, 61, 71
1, 16560, Note_on_c, 0, 46, 52
1, 16560, Note_on_c, 0, 48, 63
1, 16680, Tempo, 2727273
1, 16680, Note_on_c, 0, 46, 0
1, 16680, Note_on_c, 0, 61, 0
1, 16680, Note_on_c, 0, 62, 69
1, 16680, Note_on_c, 0, 46, 55
1, 16920, Note_on_c, 0, 46, 0
1, 16920, Note_on_c, 0, 62, 0
1, 16920, Note_on_c, 0, 48, 0
1, 16920, Note_on_c, 0, 60, 74
1, 16920, Note_on_c, 0, 40, 50
1, 16920, Note_on_c, 0, 48, 50
1, 16920, Note_on_c, 0, 55, 61
1, 17160, Tempo, 2790698
1, 17160, Note_on_c, 0, 55, 0
1, 17160, Note_on_c, 0, 60, 0
1, 17160, Note_on_c, 0, 40, 0
1, 17160, Note_on_c, 0, 48, 0
1, 17160, Note_on_c, 0, 62, 55
1, 17160, Note_on_c, 0, 36, 26
1, 17160, Note_on_c, 0, 48, 26
1, 17160, Note_on_c, 0, 52, 37
1, 17220, Note_on_c, 0, 62, 0
1, 17220, Note_on_c, 0, 58, 50
1, 17280, Tempo, 2857143
1, 17280, Note_on_c, 0, 58, 0
1, 17280, Note_on_c, 0, 52, 0
1, 17280, Note_on_c, 0, 48, 0
1, 17280, Note_on_c, 0, 36, 0
1, 17280, Note_on_c, 0, 53, 44
1, 17280, Note_on_c, 0, 57, 44
1, 17280, Note_on_c, 0, 41, 29
1, 17280, Note_on_c, 0, 48, 38
1, 17400, Tempo, 2727273
1, 17400, Note_on_c, 0, 57, 0
1, 17400, Note_on_c, 0, 53, 0
1, 17400, Note_on_c, 0, 68, 48
1, 17510, Note_on_c, 0, 68, 0
1, 17520, Note_on_c, 0, 69, 48
1, 17630, Note_on_c, 0, 69, 0
1, 17640, Note_on_c, 0, 41, 0
1, 17640, Note_on_c, 0, 48, 0
1, 17640, Note_on_c, 0, 71, 49
1, 17640, Note_on_c, 0, 56, 35
1, 17750, Note_on_c, 0, 56, 0
1, 17750, Note_on_c, 0, 71, 0
1, 17760, Tempo, 2666667
1, 17760, Note_on_c, 0, 72, 49
1, 17760, Note_on_c, 0, 57, 38
1, 17870, Note_on_c, 0, 57, 0
1, 17870, Note_on_c, 0, 72, 0
1, 17880, Note_on_c, 0, 80, 54
1, 17880, Note_on_c, 0, 59, 40
1, 17990, Note_on_c, 0, 59, 0
1, 17990, Note_on_c, 0, 80, 0
1, 18000, Note_on_c, 0, 81, 55
1, 18000, Note_on_c, 0, 60, 47
1, 18110, Note_on_c, 0, 60, 0
1, 18110, Note_on_c, 0, 81, 0
1, 18120, Note_on_c, 0, 83, 56
1, 18120, Note_on_c, 0, 44, 41
1, 18230, Note_on_c, 0, 44, 0
1, 18230, Note_on_c, 0, 83, 0
1, 18240, Note_on_c, 0, 84, 57
1, 18240, Note_on_c, 0, 45, 50
1, 18350, Note_on_c, 0, 45, 0
1, 18350, Note_on_c, 0, 84, 0
1, 18360, Note_on_c, 0, 47, 51
1, 18470, Note_on_c, 0, 47, 0
1, 18480, Note_on_c, 0, 72, 61
1, 18480, Note_on_c, 0, 48, 56
1, 18590, Note_on_c, 0, 48, 0
1, 18600, Note_on_c, 0, 46, 51
1, 18660, Note_on_c, 0, 72, 0
1, 18660, Note_on_c, 0, 72, 61
1, 18710, Note_on_c, 0, 46, 0
1, 18720, Tempo, 2727273
1, 18720, Note_on_c, 0, 72, 0
1, 18720, Note_on_c, 0, 65, 68
1, 18720, Note_on_c, 0, 45, 56
1, 18960, Note_on_c, 0, 45, 0
1, 18960, Note_on_c, 0, 77, 68
1, 18960, Note_on_c, 0, 60, 54
1, 18960, Note_on_c, 0, 57, 45
1, 18989, Control_c, 0, 64, 127
1, 19140, Note_on_c, 0, 77, 0
1, 19140, Note_on_c, 0, 77, 59
1, 19200, Tempo, 2608696
1, 19200, Note_on_c, 0, 77, 0
1, 19200, Note_on_c, 0, 57, 0
1, 19200, Note_on_c, 0, 60, 0
1, 19200, Note_on_c, 0, 65, 0
1, 19200, Note_on_c, 0, 67, 58
1, 19200, Note_on_c, 0, 76, 69
1, 19200, Note_on_c, 0, 60, 60
1, 19200, Note_on_c, 0, 58, 51
1, 19209, Control_c, 0, 64, 0
1, 19440, Tempo, 2727273
1, 19440, Note_on_c, 0, 58, 0
1, 19440, Note_on_c, 0, 76, 0
1, 19440, Note_on_c, 0, 79, 66
1, 19440, Note_on_c, 0, 52, 46
1, 19680, Note_on_c, 0, 52, 0
1, 19680, Note_on_c, 0, 67, 0
1, 19680, Note_on_c, 0, 60, 0
1, 19680, Note_on_c, 0, 79, 0
1, 19680, Note_on_c, 0, 64, 53
1, 19680, Note_on_c, 0, 70, 63
1, 19680, Note_on_c, 0, 48, 46
1, 19680, Note_on_c, 0, 55, 55
1, 19852, Note_on_c, 0, 70, 0
1, 19860, Tempo, 3636364
1, 19860, Note_on_c, 0, 70, 59
1, 19885, Note_on_c, 0, 70, 0
1, 19890, Note_on_c, 0, 70, 56
1, 19915, Note_on_c, 0, 70, 0
1, 19920, Tempo, 2727273
1, 19920, Note_on_c, 0, 64, 0
1, 19920, Note_on_c, 0, 48, 0
1, 19920, Note_on_c, 0, 55, 0
1, 19920, Note_on_c, 0, 65, 43
1, 19920, Note_on_c, 0, 69, 52
1, 19920, Note_on_c, 0, 53, 45
1, 19920, Note_on_c, 0, 57, 53
1, 19980, Note_on_c, 0, 69, 0
1, 19980, Note_on_c, 0, 68, 51
1, 20040, Note_on_c, 0, 68, 0
1, 20040, Note_on_c, 0, 69, 51
1, 20100, Note_on_c, 0, 69, 0
1, 20100, Note_on_c, 0, 72, 47
1, 20160, Tempo, 2790698
1, 20160, Note_on_c, 0, 72, 0
1, 20160, Note_on_c, 0, 57, 0
1, 20160, Note_on_c, 0, 53, 0
1, 20160, Note_on_c, 0, 65, 0
1, 20160, Note_on_c, 0, 65, 52
1, 20400, Note_on_c, 0, 77, 62
1, 20400, Note_on_c, 0, 60, 54
1, 20400, Note_on_c, 0, 57, 45
1, 20446, Control_c, 0, 64, 127
1, 20580, Note_on_c, 0, 77, 0
1, 20580, Note_on_c, 0, 77, 54
1, 20640, Tempo, 2727273
1, 20640, Note_on_c, 0, 77, 0
1, 20640, Note_on_c, 0, 57, 0
1, 20640, Note_on_c, 0, 60, 0
1, 20640, Note_on_c, 0, 65, 0
1, 20640, Note_on_c, 0, 67, 58
1, 20640, Note_on_c, 0, 76, 69
1, 20640, Note_on_c, 0, 60, 60
1, 20640, Note_on_c, 0, 58, 51
1, 20653, Control_c, 0, 64, 0
1, 20880, Tempo, 2857143
1, 20880, Note_on_c, 0, 58, 0
1, 20880, Note_on_c, 0, 76, 0
1, 20880, Note_on_c, 0, 79, 60
1, 20880, Note_on_c, 0, 52, 46
1, 21120, Note_on_c, 0, 52, 0
1, 21120, Note_on_c, 0, 67, 0
1, 21120, Note_on_c, 0, 60, 0
1, 21120, Note_on_c, 0, 79, 0
1, 21120, Note_on_c, 0, 64, 49
1, 21120, Note_on_c, 0, 70, 58
1, 21120, Note_on_c, 0, 48, 46
1, 21120, Note_on_c, 0, 55, 55
1, 21198, Control_c, 0, 64, 127
1, 21300, Note_on_c, 0, 70, 0
1, 21300, Note_on_c, 0, 70, 49
1, 21360, Note_on_c, 0, 70, 0
1, 21360, Note_on_c, 0, 55, 0
1, 21360, Note_on_c, 0, 48, 0
1, 21360, Note_on_c, 0, 64, 0
1, 21360, Note_on_c, 0, 65, 49
1, 21360, Note_on_c, 0, 69, 58
1, 21360, Note_on_c, 0, 50, 45
1, 21360, Note_on_c, 0, 53, 53
1, 21374, Control_c, 0, 64, 0
1, 21600, Note_on_c, 0, 53, 0
1, 21600, Note_on_c, 0, 65, 0
1, 21600, Note_on_c, 0, 69, 0
1, 21600, Note_on_c, 0, 50, 0
1, 21600, Note_on_c, 0, 34, 38
1, 21600, Note_on_c, 0, 46, 45
1, 21787, Control_c, 0, 64, 127
1, 21840, Tempo, 3000000
1, 21840, Note_on_c, 0, 46, 0
1, 21840, Note_on_c, 0, 34, 0
1, 21840, Note_on_c, 0, 58, 40
1, 21840, Note_on_c, 0, 62, 40
1, 21840, Note_on_c, 0, 67, 48
1, 22080, Note_on_c, 0, 67, 0
1, 22080, Note_on_c, 0, 62, 0
1, 22080, Note_on_c, 0, 58, 0
1, 22147, Control_c, 0, 64, 0
1, 22320, Tempo, 2857143
1, 22320, Note_on_c, 0, 36, 35
1, 22320, Note_on_c, 0, 48, 42
1, 22520, Control_c, 0, 64, 127
1, 22560, Tempo, 3000000
1, 22560, Note_on_c, 0, 48, 0
1, 22560, Note_on_c, 0, 36, 0
1, 22560, Note_on_c, 0, 55, 38
1, 22560, Note_on_c, 0, 58, 38
1, 22560, Note_on_c, 0, 64, 45
1, 22787, Control_c, 0, 64, 0
1, 22800, Note_on_c, 0, 64, 0
1, 22800, Note_on_c, 0, 58, 0
1, 22800, Note_on_c, 0, 55, 0
1, 23040, Control_c, 0, 91, 127
1, 23040, Text_t, "bdca426d104a26ac9dcb070447587523"
1, 23040, Note_on_c, 0, 29, 29
1, 23040, Note_on_c, 0, 41, 35
1, 23107, Control_c, 0, 64, 127
1, 23280, Note_on_c, 0, 48, 41
1, 23460, Tempo, 3351955
1, 23460, Note_on_c, 0, 48, 0
1, 23460, Note_on_c, 0, 48, 41
1, 23520, Tempo, 3000000
1, 23520, Note_on_c, 0, 48, 0
1, 23520, Note_on_c, 0, 57, 47
1, 23760, Note_on_c, 0, 57, 0
1, 23760, Note_on_c, 0, 41, 0
1, 23760, Note_on_c, 0, 29, 0
1, 23760, Note_on_c, 0, 29, 31
1, 23760, Note_on_c, 0, 41, 38
1, 23774, Control_c, 0, 64, 0
1, 23877, Control_c, 0, 64, 127
1, 24000, Note_on_c, 0, 57, 40
1, 24180, Tempo, 3614458
1, 24180, Note_on_c, 0, 57, 0
1, 24180, Note_on_c, 0, 57, 40
1, 24240, Tempo, 3000000
1, 24240, Note_on_c, 0, 57, 0
1, 24240, Note_on_c, 0, 29, 0
1, 24240, Note_on_c, 0, 63, 50
1, 24300, Tempo, 2884615
1, 24300, Note_on_c, 0, 41, 0
1, 24300, Note_on_c, 0, 45, 39
1, 24360, Note_on_c, 0, 45, 0
1, 24360, Note_on_c, 0, 48, 44
1, 24420, Tempo, 3141361
1, 24420, Note_on_c, 0, 48, 0
1, 24420, Note_on_c, 0, 45, 38
1, 24480, Tempo, 3000000
1, 24480, Note_on_c, 0, 45, 0
1, 24480, Note_on_c, 0, 63, 0
1, 24480, Note_on_c, 0, 64, 47
1, 24480, Note_on_c, 0, 40, 41
1, 24492, Control_c, 0, 64, 0
1, 24708, Note_on_c, 0, 40, 0
1, 24708, Note_on_c, 0, 64, 0
1, 24720, Tempo, 3045685
1, 24720, Note_on_c, 0, 59, 36
1, 24720, Note_on_c, 0, 56, 36
1, 24720, Note_on_c, 0, 64, 36
1, 24720, Note_on_c, 0, 40, 26
1, 24720, Note_on_c, 0, 52, 31
1, 24857, Control_c, 0, 64, 127
1, 24948, Note_on_c, 0, 52, 0
1, 24948, Note_on_c, 0, 64, 0
1, 24948, Note_on_c, 0, 59, 0
1, 24948, Note_on_c, 0, 56, 0
1, 24948, Note_on_c, 0, 40, 0
1, 24960, Note_on_c, 0, 59, 30
1, 24960, Note_on_c, 0, 56, 25
1, 24960, Note_on_c, 0, 64, 30
1, 24960, Note_on_c, 0, 40, 21
1, 24960, Note_on_c, 0, 52, 25
1, 25188, Note_on_c, 0, 52, 0
1, 25188, Note_on_c, 0, 64, 0
1, 25188, Note_on_c, 0, 59, 0
1, 25188, Note_on_c, 0, 56, 0
1, 25188, Note_on_c, 0, 40, 0
1, 25200, Note_on_c, 0, 56, 24
1, 25200, Note_on_c, 0, 59, 28
1, 25200, Note_on_c, 0, 64, 28
1, 25200, Note_on_c, 0, 40, 20
1, 25200, Note_on_c, 0, 52, 23
1, 25428, Note_on_c, 0, 64, 0
1, 25428, Note_on_c, 0, 56, 0
1, 25428, Note_on_c, 0, 59, 0
1, 25440, Tempo, 3000000
1, 25440, Note_on_c, 0, 55, 58
1, 25461, Control_c, 0, 64, 0
1, 25668, Note_on_c, 0, 55, 0
1, 25680, Tempo, 3225806
1, 25680, Note_on_c, 0, 40, 0
1, 25680, Note_on_c, 0, 52, 0
1, 25680, Note_on_c, 0, 55, 63
1, 25908, Note_on_c, 0, 55, 0
1, 25920, Tempo, 3000000
1, 25920, Note_on_c, 0, 55, 46
1, 25920, Control_c, 0, 91, 127
1, 25920, Text_t, "bdca426d104a26ac9dcb070447587523"
1, 25920, Note_on_c, 0, 40, 27
1, 25920, Note_on_c, 0, 52, 34
1, 26016, Control_c, 0, 64, 127
1, 26160, Note_on_c, 0, 59, 41
1, 26340, Tempo, 3243243
1, 26340, Note_on_c, 0, 59, 0
1, 26340, Note_on_c, 0, 59, 41
1, 26400, Tempo, 3000000
1, 26400, Note_on_c, 0, 59, 0
1, 26400, Note_on_c, 0, 67, 47
1, 26640, Note_on_c, 0, 67, 0
1, 26640, Note_on_c, 0, 55, 0
1, 26640, Note_on_c, 0, 40, 0
1, 26640, Note_on_c, 0, 52, 0
1, 26640, Note_on_c, 0, 40, 31
1, 26640, Note_on_c, 0, 52, 38
1, 26653, Control_c, 0, 64, 0
1, 26718, Control_c, 0, 64, 127
1, 26880, Note_on_c, 0, 61, 40
1, 27060, Tempo, 3174603
1, 27060, Note_on_c, 0, 61, 0
1, 27060, Note_on_c, 0, 61, 40
1, 27120, Tempo, 3000000
1, 27120, Note_on_c, 0, 61, 0
1, 27120, Note_on_c, 0, 70, 46
1, 27180, Tempo, 2870813
1, 27180, Note_on_c, 0, 52, 0
1, 27180, Note_on_c, 0, 52, 38
1, 27240, Tempo, 3015075
1, 27240, Note_on_c, 0, 52, 0
1, 27240, Note_on_c, 0, 55, 42
1, 27300, Tempo, 3141361
1, 27300, Note_on_c, 0, 55, 0
1, 27300, Note_on_c, 0, 52, 38
1, 27360, Note_on_c, 0, 52, 0
1, 27360, Note_on_c, 0, 70, 0
1, 27360, Note_on_c, 0, 40, 0
1, 27360, Note_on_c, 0, 71, 47
1, 27360, Note_on_c, 0, 51, 46
1, 27376, Control_c, 0, 64, 0
1, 27588, Note_on_c, 0, 51, 0
1, 27588, Note_on_c, 0, 71, 0
1, 27600, Tempo, 3141361
1, 27600, Note_on_c, 0, 66, 32
1, 27600, Note_on_c, 0, 59, 36
1, 27600, Note_on_c, 0, 71, 36
1, 27600, Note_on_c, 0, 47, 26
1, 27600, Note_on_c, 0, 39, 26
1, 27600, Note_on_c, 0, 51, 31
1, 27749, Control_c, 0, 64, 127
1, 27828, Note_on_c, 0, 51, 0
1, 27828, Note_on_c, 0, 59, 0
1, 27828, Note_on_c, 0, 71, 0
1, 27828, Note_on_c, 0, 66, 0
1, 27828, Note_on_c, 0, 39, 0
1, 27828, Note_on_c, 0, 47, 0
1, 27840, Note_on_c, 0, 66, 32
1, 27840, Note_on_c, 0, 59, 27
1, 27840, Note_on_c, 0, 71, 32
1, 27840, Note_on_c, 0, 47, 23
1, 27840, Note_on_c, 0, 39, 23
1, 27840, Note_on_c, 0, 51, 27
1, 28068, Note_on_c, 0, 51, 0
1, 28068, Note_on_c, 0, 59, 0
1, 28068, Note_on_c, 0, 71, 0
1, 28068, Note_on_c, 0, 66, 0
1, 28068, Note_on_c, 0, 39, 0
1, 28068, Note_on_c, 0, 47, 0
1, 28080, Note_on_c, 0, 59, 27
1, 28080, Note_on_c, 0, 66, 32
1, 28080, Note_on_c, 0, 71, 32
1, 28080, Note_on_c, 0, 47, 23
1, 28080, Note_on_c, 0, 39, 23
1, 28080, Note_on_c, 0, 51, 27
1, 28308, Note_on_c, 0, 71, 0
1, 28308, Note_on_c, 0, 59, 0
1, 28308, Note_on_c, 0, 66, 0
1, 28320, Tempo, 3000000
1, 28320, Note_on_c, 0, 47, 0
1, 28320, Note_on_c, 0, 39, 0
1, 28320, Note_on_c, 0, 51, 0
1, 28320, Note_on_c, 0, 50, 45
1, 28320, Note_on_c, 0, 53, 55
1, 28548, Note_on_c, 0, 53, 0
1, 28548, Note_on_c, 0, 50, 0
1, 28560, Tempo, 3260870
1, 28560, Note_on_c, 0, 50, 49
1, 28560, Note_on_c, 0, 53, 60
1, 28788, Note_on_c, 0, 53, 0
1, 28788, Note_on_c, 0, 50, 0
1, 28800, Tempo, 2870813
1, 28800, Note_on_c, 0, 53, 37
1, 28800, Control_c, 0, 91, 127
1, 28800, Text_t, "bdca426d104a26ac9dcb070447587523"
1, 28800, Note_on_c, 0, 50, 30
1, 28800, Control_c, 0, 64, 0
1, 28886, Control_c, 0, 64, 127
1, 29040, Tempo, 2764977
1, 29040, Note_on_c, 0, 65, 46
1, 29220, Tempo, 2884615
1, 29220, Note_on_c, 0, 65, 0
1, 29220, Note_on_c, 0, 65, 48
1, 29280, Tempo, 2764977
1, 29280, Note_on_c, 0, 65, 0
1, 29280, Note_on_c, 0, 53, 0
1, 29280, Note_on_c, 0, 71, 54
1, 29340, Tempo, 2678571
1, 29340, Note_on_c, 0, 50, 0
1, 29340, Note_on_c, 0, 53, 40
1, 29400, Tempo, 2764977
1, 29400, Note_on_c, 0, 53, 0
1, 29400, Note_on_c, 0, 56, 45
1, 29460, Note_on_c, 0, 56, 0
1, 29460, Note_on_c, 0, 53, 41
1, 29520, Tempo, 2764977
1, 29520, Note_on_c, 0, 53, 0
1, 29520, Note_on_c, 0, 49, 52
1, 29533, Control_c, 0, 64, 0
1, 29606, Control_c, 0, 64, 127
1, 29760, Note_on_c, 0, 71, 0
1, 29760, Note_on_c, 0, 71, 50
1, 29940, Tempo, 2870813
1, 29940, Note_on_c, 0, 71, 0
1, 29940, Note_on_c, 0, 71, 54
1, 30000, Tempo, 2764977
1, 30000, Note_on_c, 0, 71, 0
1, 30000, Note_on_c, 0, 77, 58
1, 30060, Tempo, 2678571
1, 30060, Note_on_c, 0, 49, 0
1, 30060, Note_on_c, 0, 53, 46
1, 30120, Tempo, 2764977
1, 30120, Note_on_c, 0, 53, 0
1, 30120, Note_on_c, 0, 56, 50
1, 30180, Tempo, 2752294
1, 30180, Note_on_c, 0, 56, 0
1, 30180, Note_on_c, 0, 53, 46
1, 30240, Note_on_c, 0, 53, 0
1, 30240, Control_c, 0, 91, 127
1, 30240, Text_t, "bdca426d104a26ac9dcb070447587523"
1, 30240, Note_on_c, 0, 48, 56
1, 30257, Control_c, 0, 64, 0
1, 30323, Control_c, 0, 64, 127
1, 30480, Note_on_c, 0, 77, 0
1, 30480, Note_on_c, 0, 77, 51
1, 30660, Tempo, 2870813
1, 30660, Note_on_c, 0, 77, 0
1, 30660, Note_on_c, 0, 77, 53
1, 30720, Tempo, 2752294
1, 30720, Note_on_c, 0, 77, 0
1, 30720, Note_on_c, 0, 80, 66
1, 30780, Tempo, 2654867
1, 30780, Note_on_c, 0, 48, 0
1, 30780, Note_on_c, 0, 53, 51
1, 30840, Tempo, 2739726
1, 30840, Note_on_c, 0, 53, 0
1, 30840, Note_on_c, 0, 56, 55
1, 30900, Note_on_c, 0, 56, 0
1, 30900, Note_on_c, 0, 53, 50
1, 30960, Note_on_c, 0, 53, 0
1, 30960, Note_on_c, 0, 47, 62
1, 30974, Control_c, 0, 64, 0
1, 31055, Control_c, 0, 64, 127
1, 31200, Note_on_c, 0, 80, 0
1, 31200, Note_on_c, 0, 77, 61
1, 31380, Tempo, 2857143
1, 31380, Note_on_c, 0, 77, 0
1, 31380, Note_on_c, 0, 77, 61
1, 31440, Tempo, 2714932
1, 31440, Note_on_c, 0, 77, 0
1, 31440, Note_on_c, 0, 86, 75
1, 31500, Tempo, 2631579
1, 31500, Note_on_c, 0, 47, 0
1, 31500, Note_on_c, 0, 53, 58
1, 31560, Tempo, 2727273
1, 31560, Note_on_c, 0, 53, 0
1, 31560, Note_on_c, 0, 56, 62
1, 31620, Note_on_c, 0, 56, 0
1, 31620, Note_on_c, 0, 53, 56
1, 31680, Note_on_c, 0, 53, 0
1, 31680, Control_c, 0, 91, 127
1, 31680, Text_t, "bdca426d104a26ac9dcb070447587523"
1, 31680, Note_on_c, 0, 44, 70
1, 31692, Control_c, 0, 64, 0
1, 31740, Control_c, 0, 64, 127
1, 31920, Note_on_c, 0, 86, 0
1, 31920, Note_on_c, 0, 77, 70
1, 32100, Tempo, 2884615
1, 32100, Note_on_c, 0, 77, 0
1, 32100, Note_on_c, 0, 77, 70
1, 32160, Tempo, 2702703
1, 32160, Note_on_c, 0, 77, 0
1, 32160, Note_on_c, 0, 89, 82
1, 32220, Tempo, 2654867
1, 32220, Note_on_c, 0, 44, 0
1, 32220, Note_on_c, 0, 53, 68
1, 32280, Note_on_c, 0, 53, 0
1, 32280, Note_on_c, 0, 59, 73
1, 32340, Tempo, 2777778
1, 32340, Note_on_c, 0, 59, 0
1, 32340, Note_on_c, 0, 53, 68
1, 32400, Tempo, 2714932
1, 32400, Note_on_c, 0, 53, 0
1, 32400, Note_on_c, 0, 43, 82
1, 32418, Control_c, 0, 64, 0
1, 32469, Control_c, 0, 64, 127
1, 32640, Note_on_c, 0, 89, 0
1, 32640, Note_on_c, 0, 77, 73
1, 32820, Tempo, 2884615
1, 32820, Note_on_c, 0, 77, 0
1, 32820, Note_on_c, 0, 77, 66
1, 32880, Tempo, 2714932
1, 32880, Note_on_c, 0, 77, 0
1, 32880, Note_on_c, 0, 89, 88
1, 32940, Tempo, 2643172
1, 32940, Note_on_c, 0, 43, 0
1, 32940, Note_on_c, 0, 53, 76
1, 33000, Tempo, 2714932
1, 33000, Note_on_c, 0, 53, 0
1, 33000, Note_on_c, 0, 59, 80
1, 33060, Note_on_c, 0, 59, 0
1, 33060, Note_on_c, 0, 53, 76
1, 33120, Note_on_c, 0, 53, 0
1, 33120, Control_c, 0, 91, 127
1, 33120, Text_t, "bdca426d104a26ac9dcb070447587523"
1, 33120, Note_on_c, 0, 44, 92
1, 33131, Control_c, 0, 64, 0
1, 33177, Control_c, 0, 64, 127
1, 33360, Note_on_c, 0, 89, 0
1, 33360, Note_on_c, 0, 77, 72
1, 33540, Tempo, 2870813
1, 33540, Note_on_c, 0, 77, 0
1, 33540, Note_on_c, 0, 77, 74
1, 33600, Tempo, 2714932
1, 33600, Note_on_c, 0, 77, 0
1, 33600, Note_on_c, 0, 89, 90
1, 33660, Tempo, 2643172
1, 33660, Note_on_c, 0, 44, 0
1, 33660, Note_on_c, 0, 53, 75
1, 33720, Note_on_c, 0, 53, 0
1, 33720, Note_on_c, 0, 59, 82
1, 33780, Tempo, 2739726
1, 33780, Note_on_c, 0, 59, 0
1, 33780, Note_on_c, 0, 53, 74
1, 33840, Note_on_c, 0, 53, 0
1, 33840, Note_on_c, 0, 44, 90
1, 33852, Control_c, 0, 64, 0
1, 33900, Note_on_c, 0, 44, 0
1, 33900, Note_on_c, 0, 53, 72
1, 33909, Control_c, 0, 64, 127
1, 33960, Note_on_c, 0, 53, 0
1, 33960, Note_on_c, 0, 59, 81
1, 34020, Tempo, 2898551
1, 34020, Note_on_c, 0, 59, 0
1, 34020, Note_on_c, 0, 89, 0
1, 34020, Note_on_c, 0, 77, 79
1, 34020, Note_on_c, 0, 53, 64
1, 34080, Tempo, 2739726
1, 34080, Note_on_c, 0, 53, 0
1, 34080, Note_on_c, 0, 77, 0
1, 34080, Note_on_c, 0, 89, 93
1, 34080, Note_on_c, 0, 44, 71
1, 34140, Note_on_c, 0, 44, 0
1, 34140, Note_on_c, 0, 89, 0
1, 34140, Note_on_c, 0, 53, 52
1, 34200, Note_on_c, 0, 53, 0
1, 34200, Note_on_c, 0, 59, 54
1, 34260, Tempo, 2884615
1, 34260, Note_on_c, 0, 59, 0
1, 34260, Note_on_c, 0, 74, 74
1, 34260, Note_on_c, 0, 53, 51
1, 34320, Tempo, 2739726
1, 34320, Note_on_c, 0, 53, 0
1, 34320, Note_on_c, 0, 74, 0
1, 34320, Note_on_c, 0, 86, 89
1, 34320, Note_on_c, 0, 44, 57
1, 34380, Note_on_c, 0, 44, 0
1, 34380, Note_on_c, 0, 86, 0
1, 34380, Note_on_c, 0, 53, 49
1, 34440, Note_on_c, 0, 53, 0
1, 34440, Note_on_c, 0, 59, 52
1, 34500, Tempo, 2857143
1, 34500, Note_on_c, 0, 59, 0
1, 34500, Note_on_c, 0, 71, 64
1, 34500, Note_on_c, 0, 53, 48
1, 34560, Tempo, 2739726
1, 34560, Note_on_c, 0, 53, 0
1, 34560, Note_on_c, 0, 71, 0
1, 34560, Note_on_c, 0, 83, 75
1, 34560, Note_on_c, 0, 43, 55
1, 34572, Control_c, 0, 64, 0
1, 34600, Control_c, 0, 64, 127
1, 34620, Note_on_c, 0, 43, 0
1, 34620, Note_on_c, 0, 83, 0
1, 34620, Note_on_c, 0, 53, 47
1, 34680, Note_on_c, 0, 53, 0
1, 34680, Note_on_c, 0, 59, 50
1, 34740, Tempo, 2830189
1, 34740, Note_on_c, 0, 59, 0
1, 34740, Note_on_c, 0, 65, 63
1, 34740, Note_on_c, 0, 53, 46
1, 34800, Tempo, 2739726
1, 34800, Note_on_c, 0, 53, 0
1, 34800, Note_on_c, 0, 65, 0
1, 34800, Note_on_c, 0, 77, 72
1, 34800, Note_on_c, 0, 43, 53
1, 34860, Note_on_c, 0, 43, 0
1, 34860, Note_on_c, 0, 77, 0
1, 34860, Note_on_c, 0, 50, 45
1, 34920, Note_on_c, 0, 50, 0
1, 34920, Note_on_c, 0, 53, 48
1, 34980, Tempo, 2870813
1, 34980, Note_on_c, 0, 53, 0
1, 34980, Note_on_c, 0, 62, 52
1, 34980, Note_on_c, 0, 50, 44
1, 35040, Tempo, 2777778
1, 35040, Note_on_c, 0, 50, 0
1, 35040, Note_on_c, 0, 62, 0
1, 35040, Note_on_c, 0, 74, 60
1, 35040, Note_on_c, 0, 43, 51
1, 35100, Note_on_c, 0, 43, 0
1, 35100, Note_on_c, 0, 74, 0
1, 35100, Note_on_c, 0, 47, 42
1, 35160, Note_on_c, 0, 47, 0
1, 35160, Note_on_c, 0, 50, 44
1, 35220, Tempo, 2912621
1, 35220, Note_on_c, 0, 50, 0
1, 35220, Note_on_c, 0, 59, 47
1, 35220, Note_on_c, 0, 47, 40
1, 35280, Tempo, 2843602
1, 35280, Note_on_c, 0, 47, 0
1, 35280, Note_on_c, 0, 59, 0
1, 35280, Note_on_c, 0, 71, 55
1, 35280, Note_on_c, 0, 43, 45
1, 35295, Control_c, 0, 64, 0
1, 35332, Control_c, 0, 64, 127
1, 35340, Note_on_c, 0, 43, 0
1, 35340, Note_on_c, 0, 71, 0
1, 35340, Note_on_c, 0, 47, 37
1, 35400, Note_on_c, 0, 47, 0
1, 35400, Note_on_c, 0, 50, 39
1, 35460, Tempo, 2970297
1, 35460, Note_on_c, 0, 50, 0
1, 35460, Note_on_c, 0, 53, 42
1, 35460, Note_on_c, 0, 47, 35
1, 35520, Tempo, 2898551
1, 35520, Note_on_c, 0, 47, 0
1, 35520, Note_on_c, 0, 53, 0
1, 35520, Note_on_c, 0, 65, 48
1, 35520, Note_on_c, 0, 43, 42
1, 35580, Note_on_c, 0, 43, 0
1, 35580, Note_on_c, 0, 65, 0
1, 35580, Note_on_c, 0, 47, 33
1, 35640, Note_on_c, 0, 47, 0
1, 35640, Note_on_c, 0, 50, 36
1, 35698, Note_on_c, 0, 50, 0
1, 35700, Tempo, 3045685
1, 35700, Note_on_c, 0, 50, 38
1, 35700, Note_on_c, 0, 47, 32
1, 35760, Tempo, 2955665
1, 35760, Note_on_c, 0, 47, 0
1, 35760, Note_on_c, 0, 50, 0
1, 35760, Note_on_c, 0, 62, 42
1, 35760, Note_on_c, 0, 43, 37
1, 35820, Note_on_c, 0, 43, 0
1, 35820, Note_on_c, 0, 62, 0
1, 35820, Note_on_c, 0, 38, 30
1, 35880, Note_on_c, 0, 38, 0
1, 35880, Note_on_c, 0, 35, 31
1, 35940, Tempo, 3108808
1, 35940, Note_on_c, 0, 35, 0
1, 35940, Note_on_c, 0, 47, 32
1, 35940, Note_on_c, 0, 38, 28
1, 36000, Tempo, 3061224
1, 36000, Note_on_c, 0, 38, 0
1, 36000, Note_on_c, 0, 47, 0
1, 36000, Note_on_c, 0, 59, 40
1, 36000, Note_on_c, 0, 31, 32
1, 36017, Control_c, 0, 64, 0
1, 36228, Note_on_c, 0, 31, 0
1, 36228, Note_on_c, 0, 59, 0
1, 36240, Note_on_c, 0, 47, 25
1, 36240, Note_on_c, 0, 50, 25
1, 36240, Note_on_c, 0, 53, 30
1, 36240, Note_on_c, 0, 43, 25
1, 36240, Note_on_c, 0, 31, 21
1, 36468, Note_on_c, 0, 31, 0
1, 36468, Note_on_c, 0, 53, 0
1, 36468, Note_on_c, 0, 47, 0
1, 36468, Note_on_c, 0, 50, 0
1, 36468, Note_on_c, 0, 43, 0
1, 36480, Tempo, 3488372
1, 36480, Note_on_c, 0, 47, 23
1, 36480, Note_on_c, 0, 50, 23
1, 36480, Note_on_c, 0, 53, 28
1, 36480, Note_on_c, 0, 43, 25
1, 36480, Note_on_c, 0, 31, 21
1, 36708, Note_on_c, 0, 31, 0
1, 36708, Note_on_c, 0, 53, 0
1, 36708, Note_on_c, 0, 47, 0
1, 36708, Note_on_c, 0, 50, 0
1, 36708, Note_on_c, 0, 43, 0
1, 36720, Tempo, 3076923
1, 36720, Note_on_c, 0, 47, 23
1, 36720, Note_on_c, 0, 50, 23
1, 36720, Note_on_c, 0, 53, 28
1, 36720, Note_on_c, 0, 32, 21
1, 36720, Note_on_c, 0, 44, 25
1, 37200, Note_on_c, 0, 44, 0
1, 37200, Note_on_c, 0, 53, 0
1, 37200, Note_on_c, 0, 47, 0
1, 37200, Note_on_c, 0, 50, 0
1, 37200, Note_on_c, 0, 32, 0
1, 37200, Note_on_c, 0, 77, 40
1, 37440, Note_on_c, 0, 77, 0
1, 37440, Note_on_c, 0, 76, 40
1, 37534, Control_c, 0, 64, 127
1, 37680, Note_on_c, 0, 76, 0
1, 37680, Note_on_c, 0, 48, 24
1, 37680, Note_on_c, 0, 52, 28
1, 37680, Note_on_c, 0, 33, 18
1, 37680, Note_on_c, 0, 45, 22
1, 37908, Note_on_c, 0, 45, 0
1, 37908, Note_on_c, 0, 48, 0
1, 37908, Note_on_c, 0, 52, 0
1, 37908, Note_on_c, 0, 33, 0
1, 37920, Note_on_c, 0, 45, 21
1, 37920, Note_on_c, 0, 33, 17
1, 37920, Note_on_c, 0, 52, 26
1, 37920, Note_on_c, 0, 48, 22
1, 38148, Note_on_c, 0, 48, 0
1, 38148, Note_on_c, 0, 45, 0
1, 38148, Note_on_c, 0, 33, 0
1, 38148, Note_on_c, 0, 52, 0
1, 38160, Note_on_c, 0, 52, 25
1, 38160, Note_on_c, 0, 48, 21
1, 38160, Note_on_c, 0, 33, 17
1, 38160, Note_on_c, 0, 45, 20
1, 38520, Control_c, 0, 64, 0
1, 38640, Note_on_c, 0, 45, 0
1, 38640, Note_on_c, 0, 52, 0
1, 38640, Note_on_c, 0, 48, 0
1, 38640, Note_on_c, 0, 33, 0
1, 38640, Note_on_c, 0, 76, 40
1, 38880, Note_on_c, 0, 76, 0
1, 38880, Note_on_c, 0, 74, 40
1, 38880, Note_on_c, 0, 29, 21
1, 38880, Note_on_c, 0, 41, 25
1, 38983, Control_c, 0, 64, 127
1, 39120, Note_on_c, 0, 41, 0
1, 39120, Note_on_c, 0, 29, 0
1, 39120, Note_on_c, 0, 74, 0
1, 39120, Note_on_c, 0, 50, 20
1, 39120, Note_on_c, 0, 53, 25
1, 39120, Note_on_c, 0, 57, 30
1, 39326, Control_c, 0, 64, 0
1, 39360, Tempo, 3157895
1, 39360, Note_on_c, 0, 57, 0
1, 39360, Note_on_c, 0, 53, 0
1, 39360, Note_on_c, 0, 50, 0
1, 39360, Note_on_c, 0, 74, 40
1, 39463, Control_c, 0, 64, 127
1, 39600, Tempo, 3076923
1, 39600, Note_on_c, 0, 74, 0
1, 39600, Note_on_c, 0, 79, 40
1, 39600, Note_on_c, 0, 31, 21
1, 39600, Note_on_c, 0, 43, 25
1, 39840, Tempo, 3351955
1, 39840, Note_on_c, 0, 43, 0
1, 39840, Note_on_c, 0, 31, 0
1, 39840, Note_on_c, 0, 79, 0
1, 39840, Note_on_c, 0, 47, 21
1, 39840, Note_on_c, 0, 50, 25
1, 39840, Note_on_c, 0, 55, 30
1, 40080, Tempo, 5042017
1, 40080, Note_on_c, 0, 55, 0
1, 40080, Note_on_c, 0, 50, 0
1, 40080, Note_on_c, 0, 47, 0
1, 40080, Note_on_c, 0, 79, 71
1, 40085, Control_c, 0, 64, 0
1, 40320, Tempo, 4285714
1, 40320, Note_on_c, 0, 79, 0
1, 40320, End_track
0, 0, End_of_file
