0, 0, Header, 0, 1, 480
1, 0, Start_track
1, 0, Title_t, "Haydn: Klaviersonate Hoboken XVI: 33 3. Satz"
1, 0, Copyright_t, "Copyright © 2012 by Bernd Krueger"
1, 0, Text_t, "Bernd Krueger"
1, 0, Text_t, "Tempo di Menuet"
1, 0, Text_t, "Erstellt: 28.2.2012\012"
1, 0, Text_t, "Dauer:  3:57 Minuten\012"
1, 0, Time_signature, 3, 2, 24, 8
1, 0, Key_signature, 2, "major"
1, 0, Tempo, 490637
1, 0, Program_c, 0, 0
1, 0, Program_c, 0, 0
1, 0, Program_c, 0, 0
1, 960, Tempo, 509035
1, 960, Marker_t, "Teil 1"
1, 960, Note_on_c, 0, 69, 50
1, 1320, Note_on_c, 0, 69, 0
1, 1320, Note_on_c, 0, 66, 45
1, 1440, Tempo, 492045
1, 1440, Note_on_c, 0, 66, 0
1, 1440, Note_on_c, 0, 74, 50
1, 1440, Note_on_c, 0, 62, 46
1, 1560, Note_on_c, 0, 62, 0
1, 1560, Note_on_c, 0, 74, 0
1, 1920, Note_on_c, 0, 74, 47
1, 1920, Note_on_c, 0, 66, 41
1, 2040, Note_on_c, 0, 66, 0
1, 2040, Note_on_c, 0, 74, 0
1, 2400, Note_on_c, 0, 74, 47
1, 2400, Note_on_c, 0, 62, 41
1, 2640, Note_on_c, 0, 62, 0
1, 2640, Note_on_c, 0, 74, 0
1, 2640, Note_on_c, 0, 73, 47
1, 2700, Note_on_c, 0, 73, 0
1, 2700, Note_on_c, 0, 74, 47
1, 2760, Note_on_c, 0, 74, 0
1, 2760, Note_on_c, 0, 76, 47
1, 2820, Note_on_c, 0, 76, 0
1, 2820, Note_on_c, 0, 74, 47
1, 2880, Tempo, 487369
1, 2880, Note_on_c, 0, 74, 0
1, 2880, Note_on_c, 0, 73, 51
1, 2880, Note_on_c, 0, 69, 47
1, 3120, Tempo, 469631
1, 3240, Note_on_c, 0, 73, 0
1, 3240, Note_on_c, 0, 76, 52
1, 3360, Tempo, 473223
1, 3360, Note_on_c, 0, 76, 0
1, 3360, Note_on_c, 0, 69, 0
1, 3360, Note_on_c, 0, 79, 56
1, 3360, Note_on_c, 0, 57, 38
1, 3840, Tempo, 486657
1, 3840, Note_on_c, 0, 57, 0
1, 3840, Note_on_c, 0, 61, 38
1, 4200, Note_on_c, 0, 79, 0
1, 4200, Note_on_c, 0, 76, 51
1, 4320, Tempo, 476153
1, 4320, Note_on_c, 0, 76, 0
1, 4320, Note_on_c, 0, 61, 0
1, 4320, Note_on_c, 0, 78, 58
1, 4320, Note_on_c, 0, 62, 45
1, 4680, Tempo, 499168
1, 4680, Note_on_c, 0, 78, 0
1, 4680, Note_on_c, 0, 74, 53
1, 4800, Tempo, 471772
1, 4800, Note_on_c, 0, 74, 0
1, 4800, Note_on_c, 0, 62, 0
1, 4800, Note_on_c, 0, 81, 58
1, 4800, Note_on_c, 0, 66, 47
1, 5160, Tempo, 496771
1, 5160, Note_on_c, 0, 81, 0
1, 5160, Note_on_c, 0, 78, 54
1, 5280, Tempo, 480577
1, 5280, Note_on_c, 0, 78, 0
1, 5280, Note_on_c, 0, 66, 0
1, 5280, Note_on_c, 0, 83, 59
1, 5280, Note_on_c, 0, 67, 48
1, 5640, Tempo, 506543
1, 5640, Note_on_c, 0, 83, 0
1, 5640, Note_on_c, 0, 79, 48
1, 5760, Tempo, 496771
1, 5760, Note_on_c, 0, 79, 0
1, 5760, Note_on_c, 0, 67, 0
1, 5760, Note_on_c, 0, 78, 51
1, 5760, Note_on_c, 0, 69, 39
1, 6240, Note_on_c, 0, 69, 0
1, 6240, Note_on_c, 0, 78, 0
1, 6240, Note_on_c, 0, 76, 39
1, 6240, Note_on_c, 0, 57, 30
1, 6600, Note_on_c, 0, 57, 0
1, 6600, Note_on_c, 0, 76, 0
1, 6720, Tempo, 509035
1, 6720, Note_on_c, 0, 69, 50
1, 7080, Note_on_c, 0, 69, 0
1, 7080, Note_on_c, 0, 66, 45
1, 7200, Tempo, 492045
1, 7200, Note_on_c, 0, 66, 0
1, 7200, Note_on_c, 0, 74, 50
1, 7200, Note_on_c, 0, 62, 46
1, 7320, Note_on_c, 0, 62, 0
1, 7320, Note_on_c, 0, 74, 0
1, 7680, Note_on_c, 0, 74, 47
1, 7680, Note_on_c, 0, 66, 41
1, 7800, Note_on_c, 0, 66, 0
1, 7800, Note_on_c, 0, 74, 0
1, 8160, Note_on_c, 0, 74, 47
1, 8160, Note_on_c, 0, 62, 41
1, 8400, Note_on_c, 0, 62, 0
1, 8400, Note_on_c, 0, 74, 0
1, 8400, Note_on_c, 0, 73, 47
1, 8460, Note_on_c, 0, 73, 0
1, 8460, Note_on_c, 0, 74, 47
1, 8520, Note_on_c, 0, 74, 0
1, 8520, Note_on_c, 0, 76, 47
1, 8580, Note_on_c, 0, 76, 0
1, 8580, Note_on_c, 0, 74, 47
1, 8640, Tempo, 476153
1, 8640, Note_on_c, 0, 74, 0
1, 8640, Note_on_c, 0, 73, 58
1, 8640, Note_on_c, 0, 69, 47
1, 9000, Tempo, 499168
1, 9000, Note_on_c, 0, 73, 0
1, 9000, Note_on_c, 0, 76, 53
1, 9120, Tempo, 471772
1, 9120, Note_on_c, 0, 76, 0
1, 9120, Note_on_c, 0, 69, 0
1, 9120, Note_on_c, 0, 79, 58
1, 9120, Note_on_c, 0, 61, 38
1, 9480, Tempo, 496771
1, 9480, Note_on_c, 0, 79, 0
1, 9480, Note_on_c, 0, 76, 54
1, 9600, Tempo, 480577
1, 9600, Note_on_c, 0, 76, 0
1, 9600, Note_on_c, 0, 61, 0
1, 9600, Note_on_c, 0, 78, 59
1, 9600, Note_on_c, 0, 62, 39
1, 9960, Tempo, 506543
1, 9960, Note_on_c, 0, 78, 0
1, 9960, Note_on_c, 0, 74, 48
1, 10080, Tempo, 492045
1, 10080, Note_on_c, 0, 74, 0
1, 10080, Note_on_c, 0, 62, 0
1, 10080, Note_on_c, 0, 71, 58
1, 10080, Note_on_c, 0, 55, 39
1, 10080, Note_on_c, 0, 67, 47
1, 10200, Note_on_c, 0, 71, 0
1, 10560, Tempo, 505093
1, 10560, Note_on_c, 0, 76, 56
1, 10680, Note_on_c, 0, 76, 0
1, 11040, Tempo, 527241
1, 11040, Note_on_c, 0, 67, 0
1, 11040, Note_on_c, 0, 55, 0
1, 11040, Note_on_c, 0, 73, 45
1, 11040, Note_on_c, 0, 67, 45
1, 11040, Note_on_c, 0, 64, 40
1, 11040, Note_on_c, 0, 57, 34
1, 11280, Note_on_c, 0, 73, 0
1, 11280, Note_on_c, 0, 74, 55
1, 11340, Note_on_c, 0, 74, 0
1, 11340, Note_on_c, 0, 73, 48
1, 11400, Note_on_c, 0, 73, 0
1, 11400, Note_on_c, 0, 71, 48
1, 11460, Note_on_c, 0, 71, 0
1, 11460, Note_on_c, 0, 73, 48
1, 11520, Tempo, 492651
1, 11520, Note_on_c, 0, 73, 0
1, 11520, Note_on_c, 0, 67, 0
1, 11520, Note_on_c, 0, 64, 0
1, 11520, Note_on_c, 0, 57, 0
1, 11520, Note_on_c, 0, 74, 58
1, 11520, Note_on_c, 0, 66, 49
1, 11520, Note_on_c, 0, 62, 46
1, 12000, Tempo, 524980
1, 12000, Note_on_c, 0, 62, 0
1, 12000, Note_on_c, 0, 66, 0
1, 12000, Note_on_c, 0, 74, 0
1, 12000, Note_on_c, 0, 50, 28
1, 12480, Tempo, 509035
1, 12480, Marker_t, "Teil 1 Wiederholung"
1, 12480, Note_on_c, 0, 50, 0
1, 12480, Note_on_c, 0, 69, 50
1, 12840, Note_on_c, 0, 69, 0
1, 12840, Note_on_c, 0, 66, 45
1, 12960, Tempo, 492045
1, 12960, Note_on_c, 0, 66, 0
1, 12960, Note_on_c, 0, 74, 50
1, 12960, Note_on_c, 0, 62, 46
1, 13080, Note_on_c, 0, 62, 0
1, 13080, Note_on_c, 0, 74, 0
1, 13440, Note_on_c, 0, 74, 47
1, 13440, Note_on_c, 0, 66, 41
1, 13560, Note_on_c, 0, 66, 0
1, 13560, Note_on_c, 0, 74, 0
1, 13920, Note_on_c, 0, 74, 47
1, 13920, Note_on_c, 0, 62, 41
1, 14160, Note_on_c, 0, 62, 0
1, 14160, Note_on_c, 0, 74, 0
1, 14160, Note_on_c, 0, 73, 47
1, 14220, Note_on_c, 0, 73, 0
1, 14220, Note_on_c, 0, 74, 47
1, 14280, Note_on_c, 0, 74, 0
1, 14280, Note_on_c, 0, 76, 47
1, 14340, Note_on_c, 0, 76, 0
1, 14340, Note_on_c, 0, 74, 47
1, 14400, Tempo, 487369
1, 14400, Note_on_c, 0, 74, 0
1, 14400, Note_on_c, 0, 73, 51
1, 14400, Note_on_c, 0, 69, 47
1, 14640, Tempo, 469631
1, 14760, Note_on_c, 0, 73, 0
1, 14760, Note_on_c, 0, 76, 52
1, 14880, Tempo, 469888
1, 14880, Note_on_c, 0, 76, 0
1, 14880, Note_on_c, 0, 69, 0
1, 14880, Note_on_c, 0, 79, 56
1, 14880, Note_on_c, 0, 57, 38
1, 15360, Tempo, 482742
1, 15360, Note_on_c, 0, 57, 0
1, 15360, Note_on_c, 0, 61, 38
1, 15720, Note_on_c, 0, 79, 0
1, 15720, Note_on_c, 0, 76, 51
1, 15840, Tempo, 476153
1, 15840, Note_on_c, 0, 76, 0
1, 15840, Note_on_c, 0, 61, 0
1, 15840, Note_on_c, 0, 78, 58
1, 15840, Note_on_c, 0, 62, 45
1, 16200, Tempo, 499168
1, 16200, Note_on_c, 0, 78, 0
1, 16200, Note_on_c, 0, 74, 53
1, 16320, Tempo, 469888
1, 16320, Note_on_c, 0, 74, 0
1, 16320, Note_on_c, 0, 62, 0
1, 16320, Note_on_c, 0, 81, 58
1, 16320, Note_on_c, 0, 66, 47
1, 16680, Tempo, 496771
1, 16680, Note_on_c, 0, 81, 0
1, 16680, Note_on_c, 0, 78, 54
1, 16800, Tempo, 480577
1, 16800, Note_on_c, 0, 78, 0
1, 16800, Note_on_c, 0, 66, 0
1, 16800, Note_on_c, 0, 83, 59
1, 16800, Note_on_c, 0, 67, 48
1, 17160, Tempo, 516396
1, 17160, Note_on_c, 0, 83, 0
1, 17160, Note_on_c, 0, 79, 48
1, 17280, Tempo, 496771
1, 17280, Note_on_c, 0, 79, 0
1, 17280, Note_on_c, 0, 67, 0
1, 17280, Note_on_c, 0, 78, 51
1, 17280, Note_on_c, 0, 69, 39
1, 17760, Note_on_c, 0, 69, 0
1, 17760, Note_on_c, 0, 78, 0
1, 17760, Note_on_c, 0, 76, 39
1, 17760, Note_on_c, 0, 57, 30
1, 18120, Note_on_c, 0, 57, 0
1, 18120, Note_on_c, 0, 76, 0
1, 18240, Tempo, 509035
1, 18240, Note_on_c, 0, 69, 50
1, 18600, Note_on_c, 0, 69, 0
1, 18600, Note_on_c, 0, 66, 45
1, 18720, Tempo, 492045
1, 18720, Note_on_c, 0, 66, 0
1, 18720, Note_on_c, 0, 74, 50
1, 18720, Note_on_c, 0, 62, 46
1, 18840, Note_on_c, 0, 62, 0
1, 18840, Note_on_c, 0, 74, 0
1, 19200, Note_on_c, 0, 74, 47
1, 19200, Note_on_c, 0, 66, 41
1, 19320, Note_on_c, 0, 66, 0
1, 19320, Note_on_c, 0, 74, 0
1, 19680, Note_on_c, 0, 74, 47
1, 19680, Note_on_c, 0, 62, 41
1, 19920, Note_on_c, 0, 62, 0
1, 19920, Note_on_c, 0, 74, 0
1, 19920, Note_on_c, 0, 73, 47
1, 19980, Note_on_c, 0, 73, 0
1, 19980, Note_on_c, 0, 74, 47
1, 20040, Note_on_c, 0, 74, 0
1, 20040, Note_on_c, 0, 76, 47
1, 20100, Note_on_c, 0, 76, 0
1, 20100, Note_on_c, 0, 74, 47
1, 20160, Tempo, 476153
1, 20160, Note_on_c, 0, 74, 0
1, 20160, Note_on_c, 0, 73, 58
1, 20160, Note_on_c, 0, 69, 47
1, 20520, Tempo, 499168
1, 20520, Note_on_c, 0, 73, 0
1, 20520, Note_on_c, 0, 76, 53
1, 20640, Tempo, 471772
1, 20640, Note_on_c, 0, 76, 0
1, 20640, Note_on_c, 0, 69, 0
1, 20640, Note_on_c, 0, 79, 58
1, 20640, Note_on_c, 0, 61, 38
1, 21000, Tempo, 496771
1, 21000, Note_on_c, 0, 79, 0
1, 21000, Note_on_c, 0, 76, 54
1, 21120, Tempo, 480577
1, 21120, Note_on_c, 0, 76, 0
1, 21120, Note_on_c, 0, 61, 0
1, 21120, Note_on_c, 0, 78, 59
1, 21120, Note_on_c, 0, 62, 39
1, 21480, Tempo, 506543
1, 21480, Note_on_c, 0, 78, 0
1, 21480, Note_on_c, 0, 74, 48
1, 21600, Tempo, 487053
1, 21600, Note_on_c, 0, 74, 0
1, 21600, Note_on_c, 0, 62, 0
1, 21600, Note_on_c, 0, 71, 58
1, 21600, Note_on_c, 0, 55, 39
1, 21600, Note_on_c, 0, 67, 47
1, 21720, Note_on_c, 0, 71, 0
1, 22080, Tempo, 511553
1, 22080, Note_on_c, 0, 76, 56
1, 22200, Note_on_c, 0, 76, 0
1, 22560, Tempo, 527241
1, 22560, Note_on_c, 0, 67, 0
1, 22560, Note_on_c, 0, 55, 0
1, 22560, Note_on_c, 0, 73, 45
1, 22560, Note_on_c, 0, 67, 45
1, 22560, Note_on_c, 0, 64, 40
1, 22560, Note_on_c, 0, 57, 34
1, 22800, Note_on_c, 0, 73, 0
1, 22800, Note_on_c, 0, 74, 55
1, 22860, Note_on_c, 0, 74, 0
1, 22860, Note_on_c, 0, 73, 48
1, 22920, Note_on_c, 0, 73, 0
1, 22920, Note_on_c, 0, 71, 48
1, 22980, Note_on_c, 0, 71, 0
1, 22980, Note_on_c, 0, 73, 48
1, 23040, Tempo, 500877
1, 23040, Note_on_c, 0, 73, 0
1, 23040, Note_on_c, 0, 67, 0
1, 23040, Note_on_c, 0, 64, 0
1, 23040, Note_on_c, 0, 57, 0
1, 23040, Note_on_c, 0, 74, 58
1, 23040, Note_on_c, 0, 66, 49
1, 23040, Note_on_c, 0, 62, 46
1, 23520, Tempo, 524980
1, 23520, Note_on_c, 0, 62, 0
1, 23520, Note_on_c, 0, 66, 0
1, 23520, Note_on_c, 0, 74, 0
1, 23520, Note_on_c, 0, 50, 34
1, 24000, Marker_t, "Teil 2"
1, 24000, Note_on_c, 0, 50, 0
1, 24000, Note_on_c, 0, 81, 58
1, 24120, Tempo, 527241
1, 24360, Note_on_c, 0, 81, 0
1, 24360, Note_on_c, 0, 78, 53
1, 24480, Tempo, 478889
1, 24480, Note_on_c, 0, 78, 0
1, 24480, Note_on_c, 0, 86, 58
1, 24840, Tempo, 499168
1, 24840, Note_on_c, 0, 86, 0
1, 24840, Note_on_c, 0, 81, 53
1, 24960, Tempo, 478889
1, 24960, Note_on_c, 0, 81, 0
1, 24960, Note_on_c, 0, 83, 58
1, 24960, Note_on_c, 0, 74, 38
1, 25320, Tempo, 496771
1, 25320, Note_on_c, 0, 83, 0
1, 25320, Note_on_c, 0, 80, 54
1, 25440, Tempo, 476985
1, 25440, Note_on_c, 0, 80, 0
1, 25440, Note_on_c, 0, 74, 0
1, 25440, Note_on_c, 0, 81, 59
1, 25440, Note_on_c, 0, 73, 37
1, 25800, Tempo, 506543
1, 25800, Note_on_c, 0, 81, 0
1, 25800, Note_on_c, 0, 76, 48
1, 25920, Tempo, 471365
1, 25920, Note_on_c, 0, 76, 0
1, 25920, Note_on_c, 0, 73, 0
1, 25920, Note_on_c, 0, 79, 58
1, 25920, Note_on_c, 0, 71, 38
1, 26280, Tempo, 499168
1, 26280, Note_on_c, 0, 79, 0
1, 26280, Note_on_c, 0, 74, 54
1, 26400, Tempo, 475097
1, 26400, Note_on_c, 0, 74, 0
1, 26400, Note_on_c, 0, 71, 0
1, 26400, Note_on_c, 0, 78, 59
1, 26400, Note_on_c, 0, 69, 39
1, 26760, Tempo, 496771
1, 26760, Note_on_c, 0, 78, 0
1, 26760, Note_on_c, 0, 73, 57
1, 26880, Tempo, 478889
1, 26880, Note_on_c, 0, 73, 0
1, 26880, Note_on_c, 0, 69, 0
1, 26880, Note_on_c, 0, 76, 63
1, 26880, Note_on_c, 0, 67, 40
1, 27240, Tempo, 506543
1, 27240, Note_on_c, 0, 76, 0
1, 27240, Note_on_c, 0, 71, 52
1, 27360, Tempo, 484692
1, 27360, Note_on_c, 0, 71, 0
1, 27360, Note_on_c, 0, 67, 0
1, 27360, Note_on_c, 0, 74, 65
1, 27360, Note_on_c, 0, 66, 46
1, 27720, Tempo, 511553
1, 27720, Note_on_c, 0, 74, 0
1, 27720, Note_on_c, 0, 69, 61
1, 27840, Tempo, 490637
1, 27840, Note_on_c, 0, 69, 0
1, 27840, Note_on_c, 0, 66, 0
1, 27840, Note_on_c, 0, 73, 50
1, 27840, Note_on_c, 0, 79, 66
1, 27840, Note_on_c, 0, 64, 48
1, 28200, Tempo, 524980
1, 28200, Note_on_c, 0, 79, 0
1, 28200, Note_on_c, 0, 76, 58
1, 28320, Tempo, 496730
1, 28320, Note_on_c, 0, 76, 0
1, 28320, Note_on_c, 0, 64, 0
1, 28320, Note_on_c, 0, 73, 0
1, 28320, Note_on_c, 0, 74, 56
1, 28320, Note_on_c, 0, 78, 65
1, 28320, Note_on_c, 0, 62, 48
1, 28680, Tempo, 598265
1, 28680, Note_on_c, 0, 78, 0
1, 28680, Note_on_c, 0, 81, 57
1, 28800, Tempo, 513743
1, 28800, Note_on_c, 0, 81, 0
1, 28800, Note_on_c, 0, 62, 0
1, 28800, Note_on_c, 0, 74, 0
1, 28800, Note_on_c, 0, 74, 47
1, 28800, Note_on_c, 0, 78, 56
1, 28800, Note_on_c, 0, 69, 43
1, 29280, Note_on_c, 0, 69, 0
1, 29280, Note_on_c, 0, 78, 0
1, 29280, Note_on_c, 0, 74, 0
1, 29280, Note_on_c, 0, 73, 42
1, 29280, Note_on_c, 0, 76, 50
1, 29280, Note_on_c, 0, 57, 36
1, 29520, Note_on_c, 0, 57, 0
1, 29520, Note_on_c, 0, 76, 0
1, 29520, Note_on_c, 0, 73, 0
1, 29760, Tempo, 524980
1, 29760, Note_on_c, 0, 81, 58
1, 29880, Tempo, 527241
1, 30120, Note_on_c, 0, 81, 0
1, 30120, Note_on_c, 0, 78, 53
1, 30240, Tempo, 478889
1, 30240, Note_on_c, 0, 78, 0
1, 30240, Note_on_c, 0, 86, 58
1, 30600, Tempo, 499168
1, 30600, Note_on_c, 0, 86, 0
1, 30600, Note_on_c, 0, 81, 53
1, 30720, Tempo, 476985
1, 30720, Note_on_c, 0, 81, 0
1, 30720, Note_on_c, 0, 83, 58
1, 30720, Note_on_c, 0, 74, 38
1, 31080, Tempo, 496771
1, 31080, Note_on_c, 0, 83, 0
1, 31080, Note_on_c, 0, 80, 54
1, 31200, Tempo, 475097
1, 31200, Note_on_c, 0, 80, 0
1, 31200, Note_on_c, 0, 74, 0
1, 31200, Note_on_c, 0, 81, 59
1, 31200, Note_on_c, 0, 73, 37
1, 31560, Tempo, 506543
1, 31560, Note_on_c, 0, 81, 0
1, 31560, Note_on_c, 0, 76, 48
1, 31680, Tempo, 473223
1, 31680, Note_on_c, 0, 76, 0
1, 31680, Note_on_c, 0, 73, 0
1, 31680, Note_on_c, 0, 79, 58
1, 31680, Note_on_c, 0, 71, 38
1, 32040, Tempo, 499168
1, 32040, Note_on_c, 0, 79, 0
1, 32040, Note_on_c, 0, 74, 54
1, 32160, Tempo, 473223
1, 32160, Note_on_c, 0, 74, 0
1, 32160, Note_on_c, 0, 71, 0
1, 32160, Note_on_c, 0, 78, 60
1, 32160, Note_on_c, 0, 69, 39
1, 32520, Tempo, 496771
1, 32520, Note_on_c, 0, 78, 0
1, 32520, Note_on_c, 0, 73, 57
1, 32640, Tempo, 480808
1, 32640, Note_on_c, 0, 73, 0
1, 32640, Note_on_c, 0, 69, 0
1, 32640, Note_on_c, 0, 76, 63
1, 32640, Note_on_c, 0, 67, 41
1, 33000, Tempo, 506543
1, 33000, Note_on_c, 0, 76, 0
1, 33000, Note_on_c, 0, 71, 53
1, 33120, Tempo, 484692
1, 33120, Note_on_c, 0, 71, 0
1, 33120, Note_on_c, 0, 67, 0
1, 33120, Note_on_c, 0, 74, 66
1, 33120, Note_on_c, 0, 66, 47
1, 33480, Tempo, 511553
1, 33480, Note_on_c, 0, 74, 0
1, 33480, Note_on_c, 0, 69, 54
1, 33600, Tempo, 490637
1, 33600, Note_on_c, 0, 69, 0
1, 33600, Note_on_c, 0, 66, 0
1, 33600, Note_on_c, 0, 78, 66
1, 33600, Note_on_c, 0, 69, 42
1, 33960, Tempo, 524980
1, 34062, Tempo, 511553
1, 34080, Note_on_c, 0, 69, 0
1, 34080, Note_on_c, 0, 78, 0
1, 34080, Note_on_c, 0, 76, 47
1, 34080, Note_on_c, 0, 57, 38
1, 34100, Tempo, 509381
1, 34138, Tempo, 507228
1, 34140, Note_on_c, 0, 76, 0
1, 34140, Note_on_c, 0, 78, 44
1, 34153, Control_c, 0, 64, 127
1, 34158, Tempo, 505093
1, 34196, Tempo, 502976
1, 34200, Note_on_c, 0, 78, 0
1, 34200, Note_on_c, 0, 76, 47
1, 34215, Tempo, 500877
1, 34254, Tempo, 498795
1, 34260, Note_on_c, 0, 76, 0
1, 34260, Note_on_c, 0, 78, 45
1, 34273, Tempo, 496730
1, 34311, Tempo, 494682
1, 34320, Note_on_c, 0, 78, 0
1, 34320, Note_on_c, 0, 76, 47
1, 34330, Tempo, 492651
1, 34369, Tempo, 490637
1, 34380, Note_on_c, 0, 76, 0
1, 34380, Note_on_c, 0, 78, 43
1, 34388, Tempo, 488639
1, 34407, Tempo, 488639
1, 34426, Tempo, 498795
1, 34440, Note_on_c, 0, 78, 0
1, 34440, Note_on_c, 0, 76, 43
1, 34446, Tempo, 509381
1, 34480, Note_on_c, 0, 76, 0
1, 34480, Note_on_c, 0, 74, 43
1, 34520, Note_on_c, 0, 74, 0
1, 34521, Note_on_c, 0, 76, 43
1, 34560, Tempo, 518179
1, 34560, Note_on_c, 0, 57, 0
1, 34560, Note_on_c, 0, 74, 66
1, 34560, Note_on_c, 0, 62, 47
1, 34561, Note_on_c, 0, 76, 0
1, 34567, Control_c, 0, 64, 0
1, 35040, Tempo, 527287
1, 35040, Note_on_c, 0, 62, 0
1, 35040, Note_on_c, 0, 74, 0
1, 35040, Note_on_c, 0, 50, 31
1, 35400, Note_on_c, 0, 50, 0
1, 35520, Tempo, 524980
1, 35520, Marker_t, "Teil 2 Wiederholung"
1, 35520, Note_on_c, 0, 81, 58
1, 35640, Tempo, 527241
1, 35880, Note_on_c, 0, 81, 0
1, 35880, Note_on_c, 0, 78, 53
1, 36000, Tempo, 478889
1, 36000, Note_on_c, 0, 78, 0
1, 36000, Note_on_c, 0, 86, 58
1, 36360, Tempo, 499168
1, 36360, Note_on_c, 0, 86, 0
1, 36360, Note_on_c, 0, 81, 53
1, 36480, Tempo, 471735
1, 36480, Note_on_c, 0, 81, 0
1, 36480, Note_on_c, 0, 83, 58
1, 36480, Note_on_c, 0, 74, 38
1, 36840, Tempo, 496771
1, 36840, Note_on_c, 0, 83, 0
1, 36840, Note_on_c, 0, 80, 54
1, 36960, Tempo, 469888
1, 36960, Note_on_c, 0, 80, 0
1, 36960, Note_on_c, 0, 74, 0
1, 36960, Note_on_c, 0, 81, 59
1, 36960, Note_on_c, 0, 73, 37
1, 37320, Tempo, 506543
1, 37320, Note_on_c, 0, 81, 0
1, 37320, Note_on_c, 0, 76, 48
1, 37440, Tempo, 471365
1, 37440, Note_on_c, 0, 76, 0
1, 37440, Note_on_c, 0, 73, 0
1, 37440, Note_on_c, 0, 79, 58
1, 37440, Note_on_c, 0, 71, 38
1, 37800, Tempo, 499168
1, 37800, Note_on_c, 0, 79, 0
1, 37800, Note_on_c, 0, 74, 54
1, 37920, Tempo, 475097
1, 37920, Note_on_c, 0, 74, 0
1, 37920, Note_on_c, 0, 71, 0
1, 37920, Note_on_c, 0, 78, 59
1, 37920, Note_on_c, 0, 69, 39
1, 38280, Tempo, 496771
1, 38280, Note_on_c, 0, 78, 0
1, 38280, Note_on_c, 0, 73, 57
1, 38400, Tempo, 478889
1, 38400, Note_on_c, 0, 73, 0
1, 38400, Note_on_c, 0, 69, 0
1, 38400, Note_on_c, 0, 76, 63
1, 38400, Note_on_c, 0, 67, 40
1, 38760, Tempo, 506543
1, 38760, Note_on_c, 0, 76, 0
1, 38760, Note_on_c, 0, 71, 52
1, 38880, Tempo, 484692
1, 38880, Note_on_c, 0, 71, 0
1, 38880, Note_on_c, 0, 67, 0
1, 38880, Note_on_c, 0, 74, 65
1, 38880, Note_on_c, 0, 66, 46
1, 39240, Tempo, 511553
1, 39240, Note_on_c, 0, 74, 0
1, 39240, Note_on_c, 0, 69, 61
1, 39360, Tempo, 490637
1, 39360, Note_on_c, 0, 69, 0
1, 39360, Note_on_c, 0, 66, 0
1, 39360, Note_on_c, 0, 73, 50
1, 39360, Note_on_c, 0, 79, 66
1, 39360, Note_on_c, 0, 64, 48
1, 39720, Tempo, 524980
1, 39720, Note_on_c, 0, 79, 0
1, 39720, Note_on_c, 0, 76, 58
1, 39840, Tempo, 496730
1, 39840, Note_on_c, 0, 76, 0
1, 39840, Note_on_c, 0, 64, 0
1, 39840, Note_on_c, 0, 73, 0
1, 39840, Note_on_c, 0, 74, 56
1, 39840, Note_on_c, 0, 78, 65
1, 39840, Note_on_c, 0, 62, 48
1, 40200, Tempo, 598265
1, 40200, Note_on_c, 0, 78, 0
1, 40200, Note_on_c, 0, 81, 57
1, 40320, Tempo, 513743
1, 40320, Note_on_c, 0, 81, 0
1, 40320, Note_on_c, 0, 62, 0
1, 40320, Note_on_c, 0, 74, 0
1, 40320, Note_on_c, 0, 74, 47
1, 40320, Note_on_c, 0, 78, 56
1, 40320, Note_on_c, 0, 69, 43
1, 40800, Note_on_c, 0, 69, 0
1, 40800, Note_on_c, 0, 78, 0
1, 40800, Note_on_c, 0, 74, 0
1, 40800, Note_on_c, 0, 73, 42
1, 40800, Note_on_c, 0, 76, 50
1, 40800, Note_on_c, 0, 57, 36
1, 41040, Note_on_c, 0, 57, 0
1, 41040, Note_on_c, 0, 76, 0
1, 41040, Note_on_c, 0, 73, 0
1, 41280, Tempo, 524980
1, 41280, Note_on_c, 0, 81, 58
1, 41400, Tempo, 527241
1, 41640, Note_on_c, 0, 81, 0
1, 41640, Note_on_c, 0, 78, 53
1, 41760, Tempo, 478889
1, 41760, Note_on_c, 0, 78, 0
1, 41760, Note_on_c, 0, 86, 58
1, 42120, Tempo, 499168
1, 42120, Note_on_c, 0, 86, 0
1, 42120, Note_on_c, 0, 81, 53
1, 42240, Tempo, 473597
1, 42240, Note_on_c, 0, 81, 0
1, 42240, Note_on_c, 0, 83, 58
1, 42240, Note_on_c, 0, 74, 38
1, 42600, Tempo, 496771
1, 42600, Note_on_c, 0, 83, 0
1, 42600, Note_on_c, 0, 80, 54
1, 42720, Tempo, 471735
1, 42720, Note_on_c, 0, 80, 0
1, 42720, Note_on_c, 0, 74, 0
1, 42720, Note_on_c, 0, 81, 59
1, 42720, Note_on_c, 0, 73, 37
1, 43080, Tempo, 506543
1, 43080, Note_on_c, 0, 81, 0
1, 43080, Note_on_c, 0, 76, 48
1, 43200, Tempo, 473223
1, 43200, Note_on_c, 0, 76, 0
1, 43200, Note_on_c, 0, 73, 0
1, 43200, Note_on_c, 0, 79, 58
1, 43200, Note_on_c, 0, 71, 38
1, 43560, Tempo, 499168
1, 43560, Note_on_c, 0, 79, 0
1, 43560, Note_on_c, 0, 74, 54
1, 43680, Tempo, 473223
1, 43680, Note_on_c, 0, 74, 0
1, 43680, Note_on_c, 0, 71, 0
1, 43680, Note_on_c, 0, 78, 60
1, 43680, Note_on_c, 0, 69, 39
1, 44040, Tempo, 496771
1, 44040, Note_on_c, 0, 78, 0
1, 44040, Note_on_c, 0, 73, 57
1, 44160, Tempo, 480808
1, 44160, Note_on_c, 0, 73, 0
1, 44160, Note_on_c, 0, 69, 0
1, 44160, Note_on_c, 0, 76, 63
1, 44160, Note_on_c, 0, 67, 41
1, 44520, Tempo, 506543
1, 44520, Note_on_c, 0, 76, 0
1, 44520, Note_on_c, 0, 71, 53
1, 44640, Tempo, 484692
1, 44640, Note_on_c, 0, 71, 0
1, 44640, Note_on_c, 0, 67, 0
1, 44640, Note_on_c, 0, 74, 66
1, 44640, Note_on_c, 0, 66, 47
1, 45000, Tempo, 511553
1, 45000, Note_on_c, 0, 74, 0
1, 45000, Note_on_c, 0, 69, 54
1, 45120, Tempo, 490637
1, 45120, Note_on_c, 0, 69, 0
1, 45120, Note_on_c, 0, 66, 0
1, 45120, Note_on_c, 0, 78, 66
1, 45120, Note_on_c, 0, 69, 42
1, 45480, Tempo, 524980
1, 45582, Tempo, 511553
1, 45600, Note_on_c, 0, 69, 0
1, 45600, Note_on_c, 0, 78, 0
1, 45600, Note_on_c, 0, 76, 47
1, 45600, Note_on_c, 0, 57, 38
1, 45620, Tempo, 509381
1, 45658, Tempo, 507228
1, 45660, Note_on_c, 0, 76, 0
1, 45660, Note_on_c, 0, 78, 44
1, 45673, Control_c, 0, 64, 127
1, 45678, Tempo, 505093
1, 45716, Tempo, 502976
1, 45720, Note_on_c, 0, 78, 0
1, 45720, Note_on_c, 0, 76, 47
1, 45735, Tempo, 500877
1, 45774, Tempo, 498795
1, 45780, Note_on_c, 0, 76, 0
1, 45780, Note_on_c, 0, 78, 45
1, 45793, Tempo, 496730
1, 45831, Tempo, 494682
1, 45840, Note_on_c, 0, 78, 0
1, 45840, Note_on_c, 0, 76, 47
1, 45850, Tempo, 492651
1, 45889, Tempo, 490637
1, 45900, Note_on_c, 0, 76, 0
1, 45900, Note_on_c, 0, 78, 43
1, 45908, Tempo, 488639
1, 45927, Tempo, 488639
1, 45946, Tempo, 498795
1, 45960, Note_on_c, 0, 78, 0
1, 45960, Note_on_c, 0, 76, 43
1, 45966, Tempo, 509381
1, 46000, Note_on_c, 0, 76, 0
1, 46000, Note_on_c, 0, 74, 43
1, 46040, Note_on_c, 0, 74, 0
1, 46041, Note_on_c, 0, 76, 43
1, 46080, Tempo, 518179
1, 46080, Note_on_c, 0, 57, 0
1, 46080, Note_on_c, 0, 74, 66
1, 46080, Note_on_c, 0, 62, 47
1, 46081, Note_on_c, 0, 76, 0
1, 46087, Control_c, 0, 64, 0
1, 46560, Tempo, 527287
1, 46560, Note_on_c, 0, 62, 0
1, 46560, Note_on_c, 0, 74, 0
1, 46560, Note_on_c, 0, 50, 31
1, 46920, Note_on_c, 0, 50, 0
1, 47040, Tempo, 473223
1, 47040, Marker_t, "Teil 3"
1, 47040, Note_on_c, 0, 67, 58
1, 47160, Note_on_c, 0, 67, 0
1, 47160, Note_on_c, 0, 65, 58
1, 47280, Note_on_c, 0, 65, 0
1, 47280, Note_on_c, 0, 64, 61
1, 47400, Tempo, 518179
1, 47400, Note_on_c, 0, 64, 0
1, 47400, Note_on_c, 0, 62, 65
1, 47520, Key_signature, -1, "major"
1, 47520, Tempo, 478889
1, 47520, Note_on_c, 0, 62, 0
1, 47520, Note_on_c, 0, 74, 76
1, 48000, Tempo, 478889
1, 48000, Note_on_c, 0, 53, 47
1, 48360, Tempo, 496771
1, 48360, Note_on_c, 0, 74, 0
1, 48360, Note_on_c, 0, 69, 59
1, 48480, Tempo, 476985
1, 48480, Note_on_c, 0, 69, 0
1, 48480, Note_on_c, 0, 53, 0
1, 48480, Note_on_c, 0, 77, 65
1, 48480, Note_on_c, 0, 50, 40
1, 48840, Tempo, 506543
1, 48840, Note_on_c, 0, 77, 0
1, 48840, Note_on_c, 0, 69, 56
1, 48950, Note_on_c, 0, 69, 0
1, 48960, Tempo, 471365
1, 48960, Note_on_c, 0, 50, 0
1, 48960, Note_on_c, 0, 69, 63
1, 48960, Note_on_c, 0, 52, 48
1, 49320, Tempo, 499168
1, 49320, Note_on_c, 0, 69, 0
1, 49320, Note_on_c, 0, 68, 54
1, 49440, Tempo, 475097
1, 49440, Note_on_c, 0, 68, 0
1, 49440, Note_on_c, 0, 67, 64
1, 49920, Tempo, 478889
1, 49920, Note_on_c, 0, 52, 0
1, 49920, Note_on_c, 0, 49, 40
1, 50280, Tempo, 506543
1, 50280, Note_on_c, 0, 67, 0
1, 50280, Note_on_c, 0, 64, 56
1, 50400, Tempo, 484692
1, 50400, Note_on_c, 0, 64, 0
1, 50400, Note_on_c, 0, 49, 0
1, 50400, Note_on_c, 0, 65, 65
1, 50400, Note_on_c, 0, 50, 46
1, 50760, Tempo, 511553
1, 50760, Note_on_c, 0, 65, 0
1, 50760, Note_on_c, 0, 62, 61
1, 50880, Tempo, 490637
1, 50880, Note_on_c, 0, 62, 0
1, 50880, Note_on_c, 0, 50, 0
1, 50880, Note_on_c, 0, 69, 66
1, 50880, Note_on_c, 0, 41, 48
1, 51240, Tempo, 524980
1, 51240, Note_on_c, 0, 69, 0
1, 51240, Note_on_c, 0, 65, 58
1, 51360, Tempo, 496730
1, 51360, Note_on_c, 0, 65, 0
1, 51360, Note_on_c, 0, 41, 0
1, 51360, Note_on_c, 0, 70, 65
1, 51360, Note_on_c, 0, 43, 41
1, 51720, Tempo, 598265
1, 51720, Note_on_c, 0, 70, 0
1, 51720, Note_on_c, 0, 62, 49
1, 51830, Note_on_c, 0, 62, 0
1, 51840, Tempo, 513743
1, 51840, Note_on_c, 0, 43, 0
1, 51840, Note_on_c, 0, 62, 50
1, 51840, Note_on_c, 0, 45, 43
1, 52320, Note_on_c, 0, 45, 0
1, 52320, Note_on_c, 0, 62, 0
1, 52320, Note_on_c, 0, 61, 45
1, 52320, Note_on_c, 0, 33, 36
1, 52560, Note_on_c, 0, 33, 0
1, 52560, Note_on_c, 0, 61, 0
1, 52800, Tempo, 471365
1, 52800, Note_on_c, 0, 70, 58
1, 52920, Note_on_c, 0, 70, 0
1, 52920, Note_on_c, 0, 69, 58
1, 53040, Note_on_c, 0, 69, 0
1, 53040, Note_on_c, 0, 67, 61
1, 53160, Tempo, 518179
1, 53160, Note_on_c, 0, 67, 0
1, 53160, Note_on_c, 0, 65, 65
1, 53280, Tempo, 478889
1, 53280, Note_on_c, 0, 65, 0
1, 53280, Note_on_c, 0, 72, 76
1, 53280, Note_on_c, 0, 53, 39
1, 53280, Note_on_c, 0, 57, 39
1, 53280, Note_on_c, 0, 60, 47
1, 53365, Control_c, 0, 64, 127
1, 53640, Note_on_c, 0, 72, 0
1, 53640, Note_on_c, 0, 69, 63
1, 53760, Tempo, 478889
1, 53760, Note_on_c, 0, 69, 0
1, 53760, Note_on_c, 0, 77, 73
1, 54120, Tempo, 496771
1, 54120, Note_on_c, 0, 77, 0
1, 54120, Note_on_c, 0, 72, 64
1, 54240, Tempo, 476985
1, 54240, Note_on_c, 0, 72, 0
1, 54240, Note_on_c, 0, 60, 0
1, 54240, Note_on_c, 0, 57, 0
1, 54240, Note_on_c, 0, 53, 0
1, 54240, Note_on_c, 0, 81, 74
1, 54240, Note_on_c, 0, 63, 34
1, 54240, Note_on_c, 0, 65, 40
1, 54600, Tempo, 506543
1, 54600, Note_on_c, 0, 81, 0
1, 54600, Note_on_c, 0, 77, 68
1, 54710, Note_on_c, 0, 77, 0
1, 54720, Tempo, 471365
1, 54720, Note_on_c, 0, 65, 0
1, 54720, Note_on_c, 0, 63, 0
1, 54720, Note_on_c, 0, 82, 80
1, 54720, Note_on_c, 0, 65, 53
1, 54720, Note_on_c, 0, 62, 45
1, 54720, Control_c, 0, 64, 0
1, 54819, Control_c, 0, 64, 127
1, 55080, Tempo, 499168
1, 55080, Note_on_c, 0, 82, 0
1, 55080, Note_on_c, 0, 77, 70
1, 55200, Tempo, 475097
1, 55200, Note_on_c, 0, 77, 0
1, 55200, Note_on_c, 0, 62, 0
1, 55200, Note_on_c, 0, 86, 82
1, 55200, Note_on_c, 0, 58, 43
1, 55560, Note_on_c, 0, 86, 0
1, 55560, Note_on_c, 0, 77, 68
1, 55680, Tempo, 478889
1, 55680, Note_on_c, 0, 77, 0
1, 55680, Note_on_c, 0, 58, 0
1, 55680, Note_on_c, 0, 65, 0
1, 55680, Note_on_c, 0, 88, 81
1, 55680, Note_on_c, 0, 58, 54
1, 55680, Note_on_c, 0, 55, 45
1, 55694, Control_c, 0, 64, 0
1, 55779, Control_c, 0, 64, 127
1, 56040, Tempo, 506543
1, 56040, Note_on_c, 0, 88, 0
1, 56040, Note_on_c, 0, 79, 68
1, 56160, Tempo, 484692
1, 56160, Note_on_c, 0, 79, 0
1, 56160, Note_on_c, 0, 55, 0
1, 56160, Note_on_c, 0, 58, 0
1, 56160, Note_on_c, 0, 89, 80
1, 56160, Note_on_c, 0, 57, 51
1, 56160, Note_on_c, 0, 60, 61
1, 56160, Control_c, 0, 64, 0
1, 56271, Control_c, 0, 64, 127
1, 56520, Tempo, 511553
1, 56520, Note_on_c, 0, 89, 0
1, 56520, Note_on_c, 0, 77, 61
1, 56640, Tempo, 490637
1, 56640, Note_on_c, 0, 77, 0
1, 56640, Note_on_c, 0, 60, 0
1, 56640, Note_on_c, 0, 57, 0
1, 56640, Note_on_c, 0, 81, 66
1, 56640, Note_on_c, 0, 60, 42
1, 56667, Control_c, 0, 64, 0
1, 57000, Tempo, 524980
1, 57102, Tempo, 511553
1, 57120, Note_on_c, 0, 60, 0
1, 57120, Note_on_c, 0, 81, 0
1, 57120, Note_on_c, 0, 79, 47
1, 57120, Note_on_c, 0, 48, 38
1, 57140, Tempo, 509381
1, 57178, Tempo, 507228
1, 57180, Note_on_c, 0, 79, 0
1, 57180, Note_on_c, 0, 81, 44
1, 57193, Control_c, 0, 64, 127
1, 57198, Tempo, 505093
1, 57236, Tempo, 502976
1, 57240, Note_on_c, 0, 81, 0
1, 57240, Note_on_c, 0, 79, 47
1, 57255, Tempo, 500877
1, 57294, Tempo, 498795
1, 57300, Note_on_c, 0, 79, 0
1, 57300, Note_on_c, 0, 81, 45
1, 57313, Tempo, 496730
1, 57351, Tempo, 494682
1, 57360, Note_on_c, 0, 81, 0
1, 57360, Note_on_c, 0, 79, 47
1, 57370, Tempo, 492651
1, 57409, Tempo, 490637
1, 57420, Note_on_c, 0, 79, 0
1, 57420, Note_on_c, 0, 81, 43
1, 57428, Tempo, 488639
1, 57447, Tempo, 488639
1, 57466, Tempo, 498795
1, 57480, Note_on_c, 0, 81, 0
1, 57480, Note_on_c, 0, 79, 43
1, 57486, Tempo, 509381
1, 57520, Note_on_c, 0, 79, 0
1, 57520, Note_on_c, 0, 77, 43
1, 57560, Note_on_c, 0, 77, 0
1, 57561, Note_on_c, 0, 79, 43
1, 57600, Tempo, 518179
1, 57600, Note_on_c, 0, 48, 0
1, 57600, Note_on_c, 0, 77, 66
1, 57600, Note_on_c, 0, 53, 47
1, 57601, Note_on_c, 0, 79, 0
1, 57607, Control_c, 0, 64, 0
1, 58080, Tempo, 527287
1, 58080, Note_on_c, 0, 53, 0
1, 58080, Note_on_c, 0, 41, 31
1, 58440, Note_on_c, 0, 41, 0
1, 58440, Note_on_c, 0, 77, 0
1, 58560, Tempo, 473223
1, 58560, Marker_t, "Teil 3 Wiederholung"
1, 58560, Note_on_c, 0, 67, 58
1, 58680, Note_on_c, 0, 67, 0
1, 58680, Note_on_c, 0, 65, 58
1, 58800, Note_on_c, 0, 65, 0
1, 58800, Note_on_c, 0, 64, 61
1, 58920, Tempo, 518179
1, 58920, Note_on_c, 0, 64, 0
1, 58920, Note_on_c, 0, 62, 65
1, 59040, Tempo, 478889
1, 59040, Note_on_c, 0, 62, 0
1, 59040, Note_on_c, 0, 74, 76
1, 59520, Tempo, 471735
1, 59520, Note_on_c, 0, 53, 47
1, 59880, Tempo, 496771
1, 59880, Note_on_c, 0, 74, 0
1, 59880, Note_on_c, 0, 69, 59
1, 60000, Tempo, 476985
1, 60000, Note_on_c, 0, 69, 0
1, 60000, Note_on_c, 0, 53, 0
1, 60000, Note_on_c, 0, 77, 65
1, 60000, Note_on_c, 0, 50, 40
1, 60360, Tempo, 506543
1, 60360, Note_on_c, 0, 77, 0
1, 60360, Note_on_c, 0, 69, 56
1, 60470, Note_on_c, 0, 69, 0
1, 60480, Tempo, 471365
1, 60480, Note_on_c, 0, 50, 0
1, 60480, Note_on_c, 0, 69, 63
1, 60480, Note_on_c, 0, 52, 48
1, 60840, Tempo, 499168
1, 60840, Note_on_c, 0, 69, 0
1, 60840, Note_on_c, 0, 68, 54
1, 60960, Tempo, 475097
1, 60960, Note_on_c, 0, 68, 0
1, 60960, Note_on_c, 0, 67, 64
1, 61440, Tempo, 479272
1, 61440, Note_on_c, 0, 52, 0
1, 61440, Note_on_c, 0, 49, 40
1, 61800, Tempo, 506543
1, 61800, Note_on_c, 0, 67, 0
1, 61800, Note_on_c, 0, 64, 56
1, 61920, Tempo, 484692
1, 61920, Note_on_c, 0, 64, 0
1, 61920, Note_on_c, 0, 49, 0
1, 61920, Note_on_c, 0, 65, 65
1, 61920, Note_on_c, 0, 50, 46
1, 62280, Tempo, 511553
1, 62280, Note_on_c, 0, 65, 0
1, 62280, Note_on_c, 0, 62, 61
1, 62400, Tempo, 490637
1, 62400, Note_on_c, 0, 62, 0
1, 62400, Note_on_c, 0, 50, 0
1, 62400, Note_on_c, 0, 69, 66
1, 62400, Note_on_c, 0, 41, 48
1, 62760, Tempo, 524980
1, 62760, Note_on_c, 0, 69, 0
1, 62760, Note_on_c, 0, 65, 58
1, 62880, Tempo, 501295
1, 62880, Note_on_c, 0, 65, 0
1, 62880, Note_on_c, 0, 41, 0
1, 62880, Note_on_c, 0, 70, 65
1, 62880, Note_on_c, 0, 43, 41
1, 63240, Tempo, 598265
1, 63240, Note_on_c, 0, 70, 0
1, 63240, Note_on_c, 0, 62, 49
1, 63350, Note_on_c, 0, 62, 0
1, 63360, Tempo, 513743
1, 63360, Note_on_c, 0, 43, 0
1, 63360, Note_on_c, 0, 62, 50
1, 63360, Note_on_c, 0, 45, 43
1, 63840, Note_on_c, 0, 45, 0
1, 63840, Note_on_c, 0, 62, 0
1, 63840, Note_on_c, 0, 61, 45
1, 63840, Note_on_c, 0, 33, 36
1, 64080, Note_on_c, 0, 33, 0
1, 64080, Note_on_c, 0, 61, 0
1, 64320, Tempo, 471365
1, 64320, Note_on_c, 0, 70, 58
1, 64440, Note_on_c, 0, 70, 0
1, 64440, Note_on_c, 0, 69, 58
1, 64560, Note_on_c, 0, 69, 0
1, 64560, Note_on_c, 0, 67, 61
1, 64680, Tempo, 518179
1, 64680, Note_on_c, 0, 67, 0
1, 64680, Note_on_c, 0, 65, 65
1, 64800, Tempo, 478889
1, 64800, Note_on_c, 0, 65, 0
1, 64800, Note_on_c, 0, 72, 76
1, 64800, Note_on_c, 0, 53, 39
1, 64800, Note_on_c, 0, 57, 39
1, 64800, Note_on_c, 0, 60, 47
1, 64885, Control_c, 0, 64, 127
1, 65160, Note_on_c, 0, 72, 0
1, 65160, Note_on_c, 0, 69, 63
1, 65280, Tempo, 471735
1, 65280, Note_on_c, 0, 69, 0
1, 65280, Note_on_c, 0, 77, 73
1, 65640, Tempo, 496771
1, 65640, Note_on_c, 0, 77, 0
1, 65640, Note_on_c, 0, 72, 64
1, 65760, Tempo, 473597
1, 65760, Note_on_c, 0, 72, 0
1, 65760, Note_on_c, 0, 60, 0
1, 65760, Note_on_c, 0, 57, 0
1, 65760, Note_on_c, 0, 53, 0
1, 65760, Note_on_c, 0, 81, 74
1, 65760, Note_on_c, 0, 63, 34
1, 65760, Note_on_c, 0, 65, 40
1, 66120, Tempo, 506543
1, 66120, Note_on_c, 0, 81, 0
1, 66120, Note_on_c, 0, 77, 68
1, 66230, Note_on_c, 0, 77, 0
1, 66240, Tempo, 471365
1, 66240, Note_on_c, 0, 65, 0
1, 66240, Note_on_c, 0, 63, 0
1, 66240, Note_on_c, 0, 82, 80
1, 66240, Note_on_c, 0, 65, 53
1, 66240, Note_on_c, 0, 62, 45
1, 66240, Control_c, 0, 64, 0
1, 66339, Control_c, 0, 64, 127
1, 66600, Tempo, 499168
1, 66600, Note_on_c, 0, 82, 0
1, 66600, Note_on_c, 0, 77, 70
1, 66720, Tempo, 475097
1, 66720, Note_on_c, 0, 77, 0
1, 66720, Note_on_c, 0, 62, 0
1, 66720, Note_on_c, 0, 86, 82
1, 66720, Note_on_c, 0, 58, 43
1, 67080, Note_on_c, 0, 86, 0
1, 67080, Note_on_c, 0, 77, 68
1, 67200, Tempo, 478889
1, 67200, Note_on_c, 0, 77, 0
1, 67200, Note_on_c, 0, 58, 0
1, 67200, Note_on_c, 0, 65, 0
1, 67200, Note_on_c, 0, 88, 81
1, 67200, Note_on_c, 0, 58, 54
1, 67200, Note_on_c, 0, 55, 45
1, 67214, Control_c, 0, 64, 0
1, 67299, Control_c, 0, 64, 127
1, 67560, Tempo, 506543
1, 67560, Note_on_c, 0, 88, 0
1, 67560, Note_on_c, 0, 79, 68
1, 67680, Tempo, 484692
1, 67680, Note_on_c, 0, 79, 0
1, 67680, Note_on_c, 0, 55, 0
1, 67680, Note_on_c, 0, 58, 0
1, 67680, Note_on_c, 0, 89, 80
1, 67680, Note_on_c, 0, 57, 51
1, 67680, Note_on_c, 0, 60, 61
1, 67680, Control_c, 0, 64, 0
1, 67791, Control_c, 0, 64, 127
1, 68040, Tempo, 511553
1, 68040, Note_on_c, 0, 89, 0
1, 68040, Note_on_c, 0, 77, 61
1, 68160, Tempo, 490637
1, 68160, Note_on_c, 0, 77, 0
1, 68160, Note_on_c, 0, 60, 0
1, 68160, Note_on_c, 0, 57, 0
1, 68160, Note_on_c, 0, 81, 66
1, 68160, Note_on_c, 0, 60, 42
1, 68187, Control_c, 0, 64, 0
1, 68520, Tempo, 524980
1, 68622, Tempo, 511553
1, 68640, Note_on_c, 0, 60, 0
1, 68640, Note_on_c, 0, 81, 0
1, 68640, Note_on_c, 0, 79, 47
1, 68640, Note_on_c, 0, 48, 38
1, 68660, Tempo, 509381
1, 68698, Tempo, 507228
1, 68700, Note_on_c, 0, 79, 0
1, 68700, Note_on_c, 0, 81, 44
1, 68713, Control_c, 0, 64, 127
1, 68718, Tempo, 505093
1, 68756, Tempo, 502976
1, 68760, Note_on_c, 0, 81, 0
1, 68760, Note_on_c, 0, 79, 47
1, 68775, Tempo, 500877
1, 68814, Tempo, 498795
1, 68820, Note_on_c, 0, 79, 0
1, 68820, Note_on_c, 0, 81, 45
1, 68833, Tempo, 496730
1, 68871, Tempo, 494682
1, 68880, Note_on_c, 0, 81, 0
1, 68880, Note_on_c, 0, 79, 47
1, 68890, Tempo, 492651
1, 68929, Tempo, 490637
1, 68940, Note_on_c, 0, 79, 0
1, 68940, Note_on_c, 0, 81, 43
1, 68948, Tempo, 488639
1, 68967, Tempo, 488639
1, 68986, Tempo, 498795
1, 69000, Note_on_c, 0, 81, 0
1, 69000, Note_on_c, 0, 79, 43
1, 69006, Tempo, 509381
1, 69040, Note_on_c, 0, 79, 0
1, 69040, Note_on_c, 0, 77, 43
1, 69080, Note_on_c, 0, 77, 0
1, 69081, Note_on_c, 0, 79, 43
1, 69120, Tempo, 518179
1, 69120, Note_on_c, 0, 48, 0
1, 69120, Note_on_c, 0, 77, 66
1, 69120, Note_on_c, 0, 53, 47
1, 69121, Note_on_c, 0, 79, 0
1, 69127, Control_c, 0, 64, 0
1, 69600, Tempo, 527287
1, 69600, Note_on_c, 0, 53, 0
1, 69600, Note_on_c, 0, 41, 31
1, 69960, Note_on_c, 0, 41, 0
1, 69960, Note_on_c, 0, 77, 0
1, 70080, Tempo, 473223
1, 70080, Marker_t, "Teil 4"
1, 70080, Note_on_c, 0, 82, 49
1, 70200, Note_on_c, 0, 82, 0
1, 70200, Note_on_c, 0, 81, 49
1, 70320, Note_on_c, 0, 81, 0
1, 70320, Note_on_c, 0, 79, 51
1, 70440, Tempo, 518179
1, 70440, Note_on_c, 0, 79, 0
1, 70440, Note_on_c, 0, 77, 55
1, 70560, Tempo, 478889
1, 70560, Note_on_c, 0, 77, 0
1, 70560, Note_on_c, 0, 84, 64
1, 71040, Tempo, 478889
1, 71040, Note_on_c, 0, 69, 29
1, 71040, Note_on_c, 0, 72, 35
1, 71400, Tempo, 496771
1, 71400, Note_on_c, 0, 84, 0
1, 71400, Note_on_c, 0, 75, 46
1, 71520, Tempo, 476985
1, 71520, Note_on_c, 0, 75, 0
1, 71520, Note_on_c, 0, 72, 0
1, 71520, Note_on_c, 0, 69, 0
1, 71520, Note_on_c, 0, 77, 55
1, 71520, Note_on_c, 0, 67, 25
1, 71520, Note_on_c, 0, 70, 30
1, 71880, Tempo, 506543
1, 71880, Note_on_c, 0, 77, 0
1, 71880, Note_on_c, 0, 75, 47
1, 71990, Note_on_c, 0, 75, 0
1, 72000, Tempo, 471365
1, 72000, Note_on_c, 0, 70, 0
1, 72000, Note_on_c, 0, 67, 0
1, 72000, Note_on_c, 0, 74, 53
1, 72000, Note_on_c, 0, 69, 36
1, 72000, Note_on_c, 0, 66, 30
1, 72360, Tempo, 499168
1, 72360, Note_on_c, 0, 74, 0
1, 72360, Note_on_c, 0, 81, 45
1, 72480, Tempo, 475097
1, 72480, Note_on_c, 0, 81, 0
1, 72480, Note_on_c, 0, 86, 60
1, 72840, Note_on_c, 0, 86, 0
1, 72840, Note_on_c, 0, 81, 47
1, 72960, Tempo, 478889
1, 72960, Note_on_c, 0, 81, 0
1, 72960, Note_on_c, 0, 66, 0
1, 72960, Note_on_c, 0, 69, 0
1, 72960, Note_on_c, 0, 82, 58
1, 72960, Note_on_c, 0, 67, 28
1, 72960, Note_on_c, 0, 74, 34
1, 73320, Tempo, 506543
1, 73320, Note_on_c, 0, 82, 0
1, 73320, Note_on_c, 0, 79, 50
1, 73440, Tempo, 484692
1, 73440, Note_on_c, 0, 79, 0
1, 73440, Note_on_c, 0, 74, 0
1, 73440, Note_on_c, 0, 67, 0
1, 73440, Note_on_c, 0, 84, 60
1, 73440, Note_on_c, 0, 64, 33
1, 73440, Note_on_c, 0, 72, 39
1, 73800, Tempo, 511553
1, 73800, Note_on_c, 0, 84, 0
1, 73800, Note_on_c, 0, 79, 51
1, 73920, Tempo, 490637
1, 73920, Note_on_c, 0, 79, 0
1, 73920, Note_on_c, 0, 64, 0
1, 73920, Note_on_c, 0, 81, 56
1, 73920, Note_on_c, 0, 65, 40
1, 74280, Tempo, 524980
1, 74280, Note_on_c, 0, 81, 0
1, 74280, Note_on_c, 0, 77, 49
1, 74400, Tempo, 496730
1, 74400, Note_on_c, 0, 77, 0
1, 74400, Note_on_c, 0, 65, 0
1, 74400, Note_on_c, 0, 72, 0
1, 74400, Note_on_c, 0, 82, 55
1, 74400, Note_on_c, 0, 67, 34
1, 74400, Note_on_c, 0, 55, 28
1, 74640, Tempo, 482742
1, 74640, Note_on_c, 0, 82, 0
1, 74640, Note_on_c, 0, 79, 48
1, 74760, Tempo, 541565
1, 74760, Note_on_c, 0, 79, 0
1, 74760, Note_on_c, 0, 76, 41
1, 74870, Note_on_c, 0, 76, 0
1, 74880, Tempo, 513743
1, 74880, Note_on_c, 0, 55, 0
1, 74880, Note_on_c, 0, 67, 0
1, 74880, Note_on_c, 0, 74, 42
1, 74880, Note_on_c, 0, 57, 25
1, 74880, Note_on_c, 0, 64, 36
1, 75360, Note_on_c, 0, 74, 0
1, 75360, Note_on_c, 0, 73, 38
1, 75600, Note_on_c, 0, 73, 0
1, 75600, Note_on_c, 0, 64, 0
1, 75600, Note_on_c, 0, 57, 0
1, 75840, Tempo, 471365
1, 75840, Note_on_c, 0, 69, 47
1, 75960, Note_on_c, 0, 69, 0
1, 75960, Note_on_c, 0, 67, 49
1, 76080, Note_on_c, 0, 67, 0
1, 76080, Note_on_c, 0, 65, 50
1, 76200, Tempo, 518179
1, 76200, Note_on_c, 0, 65, 0
1, 76200, Note_on_c, 0, 64, 52
1, 76320, Tempo, 478889
1, 76320, Note_on_c, 0, 64, 0
1, 76320, Note_on_c, 0, 79, 64
1, 76461, Control_c, 0, 64, 127
1, 76800, Tempo, 478889
1, 76800, Note_on_c, 0, 58, 35
1, 76800, Note_on_c, 0, 61, 42
1, 77160, Tempo, 496771
1, 77160, Note_on_c, 0, 79, 0
1, 77160, Note_on_c, 0, 76, 64
1, 77280, Tempo, 476985
1, 77280, Note_on_c, 0, 76, 0
1, 77280, Note_on_c, 0, 61, 0
1, 77280, Note_on_c, 0, 58, 0
1, 77280, Note_on_c, 0, 85, 74
1, 77280, Note_on_c, 0, 55, 30
1, 77280, Note_on_c, 0, 58, 36
1, 77640, Tempo, 506543
1, 77640, Note_on_c, 0, 85, 0
1, 77640, Note_on_c, 0, 82, 68
1, 77750, Note_on_c, 0, 82, 0
1, 77760, Tempo, 471365
1, 77760, Note_on_c, 0, 58, 0
1, 77760, Note_on_c, 0, 55, 0
1, 77760, Note_on_c, 0, 86, 80
1, 77760, Note_on_c, 0, 53, 45
1, 77760, Note_on_c, 0, 62, 53
1, 77760, Note_on_c, 0, 57, 45
1, 77760, Control_c, 0, 64, 0
1, 77859, Control_c, 0, 64, 127
1, 78120, Tempo, 499168
1, 78120, Note_on_c, 0, 86, 0
1, 78120, Note_on_c, 0, 81, 70
1, 78240, Tempo, 475097
1, 78240, Note_on_c, 0, 81, 0
1, 78240, Note_on_c, 0, 57, 0
1, 78240, Note_on_c, 0, 62, 0
1, 78240, Note_on_c, 0, 53, 0
1, 78240, Note_on_c, 0, 88, 82
1, 78240, Note_on_c, 0, 52, 43
1, 78240, Note_on_c, 0, 55, 43
1, 78240, Note_on_c, 0, 61, 43
1, 78251, Control_c, 0, 64, 0
1, 78332, Control_c, 0, 64, 127
1, 78600, Note_on_c, 0, 88, 0
1, 78600, Note_on_c, 0, 81, 68
1, 78720, Tempo, 484692
1, 78720, Note_on_c, 0, 81, 0
1, 78720, Note_on_c, 0, 61, 0
1, 78720, Note_on_c, 0, 55, 0
1, 78720, Note_on_c, 0, 52, 0
1, 78720, Note_on_c, 0, 89, 81
1, 78720, Note_on_c, 0, 50, 45
1, 78720, Note_on_c, 0, 62, 54
1, 78720, Note_on_c, 0, 53, 45
1, 78734, Control_c, 0, 64, 0
1, 78819, Control_c, 0, 64, 127
1, 79080, Tempo, 531962
1, 79080, Note_on_c, 0, 89, 0
1, 79080, Note_on_c, 0, 86, 68
1, 79190, Note_on_c, 0, 86, 0
1, 79200, Tempo, 484692
1, 79200, Note_on_c, 0, 53, 0
1, 79200, Note_on_c, 0, 62, 0
1, 79200, Note_on_c, 0, 50, 0
1, 79200, Note_on_c, 0, 84, 80
1, 79200, Note_on_c, 0, 55, 61
1, 79200, Control_c, 0, 64, 0
1, 79311, Control_c, 0, 64, 127
1, 79320, Note_on_c, 0, 84, 0
1, 79320, Note_on_c, 0, 82, 61
1, 79440, Note_on_c, 0, 82, 0
1, 79440, Note_on_c, 0, 81, 68
1, 79560, Tempo, 511553
1, 79560, Note_on_c, 0, 81, 0
1, 79560, Note_on_c, 0, 79, 61
1, 79680, Tempo, 490637
1, 79680, Note_on_c, 0, 79, 0
1, 79680, Note_on_c, 0, 55, 0
1, 79680, Note_on_c, 0, 77, 66
1, 79680, Note_on_c, 0, 57, 42
1, 79707, Control_c, 0, 64, 0
1, 80040, Tempo, 524980
1, 80142, Tempo, 511553
1, 80160, Note_on_c, 0, 57, 0
1, 80160, Note_on_c, 0, 77, 0
1, 80160, Note_on_c, 0, 76, 47
1, 80160, Note_on_c, 0, 45, 38
1, 80180, Tempo, 509381
1, 80218, Tempo, 507228
1, 80220, Note_on_c, 0, 76, 0
1, 80220, Note_on_c, 0, 77, 44
1, 80233, Control_c, 0, 64, 127
1, 80238, Tempo, 505093
1, 80276, Tempo, 502976
1, 80280, Note_on_c, 0, 77, 0
1, 80280, Note_on_c, 0, 76, 47
1, 80295, Tempo, 500877
1, 80334, Tempo, 498795
1, 80340, Note_on_c, 0, 76, 0
1, 80340, Note_on_c, 0, 77, 45
1, 80353, Tempo, 496730
1, 80391, Tempo, 494682
1, 80400, Note_on_c, 0, 77, 0
1, 80400, Note_on_c, 0, 76, 47
1, 80410, Tempo, 492651
1, 80449, Tempo, 490637
1, 80460, Note_on_c, 0, 76, 0
1, 80460, Note_on_c, 0, 77, 43
1, 80468, Tempo, 488639
1, 80487, Tempo, 488639
1, 80506, Tempo, 498795
1, 80520, Note_on_c, 0, 77, 0
1, 80520, Note_on_c, 0, 76, 43
1, 80526, Tempo, 509381
1, 80560, Note_on_c, 0, 76, 0
1, 80560, Note_on_c, 0, 74, 43
1, 80600, Note_on_c, 0, 74, 0
1, 80601, Note_on_c, 0, 76, 43
1, 80640, Tempo, 518179
1, 80640, Note_on_c, 0, 45, 0
1, 80640, Note_on_c, 0, 74, 66
1, 80640, Note_on_c, 0, 50, 47
1, 80641, Note_on_c, 0, 76, 0
1, 80647, Control_c, 0, 64, 0
1, 81120, Tempo, 527287
1, 81120, Note_on_c, 0, 50, 0
1, 81120, Note_on_c, 0, 38, 31
1, 81480, Note_on_c, 0, 38, 0
1, 81480, Note_on_c, 0, 74, 0
1, 81600, Tempo, 464432
1, 81600, Marker_t, "Teil 4 Wiederholung"
1, 81600, Note_on_c, 0, 82, 49
1, 81720, Note_on_c, 0, 82, 0
1, 81720, Note_on_c, 0, 81, 49
1, 81840, Note_on_c, 0, 81, 0
1, 81840, Note_on_c, 0, 79, 51
1, 81960, Tempo, 518179
1, 81960, Note_on_c, 0, 79, 0
1, 81960, Note_on_c, 0, 77, 55
1, 82080, Tempo, 478889
1, 82080, Note_on_c, 0, 77, 0
1, 82080, Note_on_c, 0, 84, 64
1, 82560, Tempo, 473597
1, 82560, Note_on_c, 0, 69, 29
1, 82560, Note_on_c, 0, 72, 35
1, 82920, Tempo, 496771
1, 82920, Note_on_c, 0, 84, 0
1, 82920, Note_on_c, 0, 75, 46
1, 83040, Tempo, 476985
1, 83040, Note_on_c, 0, 75, 0
1, 83040, Note_on_c, 0, 72, 0
1, 83040, Note_on_c, 0, 69, 0
1, 83040, Note_on_c, 0, 77, 55
1, 83040, Note_on_c, 0, 67, 25
1, 83040, Note_on_c, 0, 70, 30
1, 83400, Tempo, 506543
1, 83400, Note_on_c, 0, 77, 0
1, 83400, Note_on_c, 0, 75, 47
1, 83510, Note_on_c, 0, 75, 0
1, 83520, Tempo, 471365
1, 83520, Note_on_c, 0, 70, 0
1, 83520, Note_on_c, 0, 67, 0
1, 83520, Note_on_c, 0, 74, 53
1, 83520, Note_on_c, 0, 69, 36
1, 83520, Note_on_c, 0, 66, 30
1, 83880, Tempo, 499168
1, 83880, Note_on_c, 0, 74, 0
1, 83880, Note_on_c, 0, 81, 45
1, 84000, Tempo, 469888
1, 84000, Note_on_c, 0, 81, 0
1, 84000, Note_on_c, 0, 86, 60
1, 84360, Note_on_c, 0, 86, 0
1, 84360, Note_on_c, 0, 81, 47
1, 84480, Tempo, 478889
1, 84480, Note_on_c, 0, 81, 0
1, 84480, Note_on_c, 0, 66, 0
1, 84480, Note_on_c, 0, 69, 0
1, 84480, Note_on_c, 0, 82, 58
1, 84480, Note_on_c, 0, 67, 28
1, 84480, Note_on_c, 0, 74, 34
1, 84840, Tempo, 506543
1, 84840, Note_on_c, 0, 82, 0
1, 84840, Note_on_c, 0, 79, 50
1, 84960, Tempo, 484692
1, 84960, Note_on_c, 0, 79, 0
1, 84960, Note_on_c, 0, 74, 0
1, 84960, Note_on_c, 0, 67, 0
1, 84960, Note_on_c, 0, 84, 60
1, 84960, Note_on_c, 0, 64, 33
1, 84960, Note_on_c, 0, 72, 39
1, 85320, Tempo, 511553
1, 85320, Note_on_c, 0, 84, 0
1, 85320, Note_on_c, 0, 79, 51
1, 85440, Tempo, 490637
1, 85440, Note_on_c, 0, 79, 0
1, 85440, Note_on_c, 0, 64, 0
1, 85440, Note_on_c, 0, 81, 56
1, 85440, Note_on_c, 0, 65, 40
1, 85800, Tempo, 524980
1, 85800, Note_on_c, 0, 81, 0
1, 85800, Note_on_c, 0, 77, 49
1, 85920, Tempo, 496730
1, 85920, Note_on_c, 0, 77, 0
1, 85920, Note_on_c, 0, 65, 0
1, 85920, Note_on_c, 0, 72, 0
1, 85920, Note_on_c, 0, 82, 55
1, 85920, Note_on_c, 0, 67, 34
1, 85920, Note_on_c, 0, 55, 28
1, 86160, Tempo, 482742
1, 86160, Note_on_c, 0, 82, 0
1, 86160, Note_on_c, 0, 79, 48
1, 86280, Tempo, 541565
1, 86280, Note_on_c, 0, 79, 0
1, 86280, Note_on_c, 0, 76, 41
1, 86390, Note_on_c, 0, 76, 0
1, 86400, Tempo, 513743
1, 86400, Note_on_c, 0, 55, 0
1, 86400, Note_on_c, 0, 67, 0
1, 86400, Note_on_c, 0, 74, 42
1, 86400, Note_on_c, 0, 57, 25
1, 86400, Note_on_c, 0, 64, 36
1, 86880, Note_on_c, 0, 74, 0
1, 86880, Note_on_c, 0, 73, 38
1, 87120, Note_on_c, 0, 73, 0
1, 87120, Note_on_c, 0, 64, 0
1, 87120, Note_on_c, 0, 57, 0
1, 87360, Tempo, 471365
1, 87360, Note_on_c, 0, 69, 47
1, 87480, Note_on_c, 0, 69, 0
1, 87480, Note_on_c, 0, 67, 49
1, 87600, Note_on_c, 0, 67, 0
1, 87600, Note_on_c, 0, 65, 50
1, 87720, Tempo, 518179
1, 87720, Note_on_c, 0, 65, 0
1, 87720, Note_on_c, 0, 64, 52
1, 87840, Tempo, 478889
1, 87840, Note_on_c, 0, 64, 0
1, 87840, Note_on_c, 0, 79, 64
1, 87981, Control_c, 0, 64, 127
1, 88320, Tempo, 478889
1, 88320, Note_on_c, 0, 58, 35
1, 88320, Note_on_c, 0, 61, 42
1, 88680, Tempo, 496771
1, 88680, Note_on_c, 0, 79, 0
1, 88680, Note_on_c, 0, 76, 64
1, 88800, Tempo, 473597
1, 88800, Note_on_c, 0, 76, 0
1, 88800, Note_on_c, 0, 61, 0
1, 88800, Note_on_c, 0, 58, 0
1, 88800, Note_on_c, 0, 85, 74
1, 88800, Note_on_c, 0, 55, 30
1, 88800, Note_on_c, 0, 58, 36
1, 89160, Tempo, 506543
1, 89160, Note_on_c, 0, 85, 0
1, 89160, Note_on_c, 0, 82, 68
1, 89270, Note_on_c, 0, 82, 0
1, 89280, Tempo, 466237
1, 89280, Note_on_c, 0, 58, 0
1, 89280, Note_on_c, 0, 55, 0
1, 89280, Note_on_c, 0, 86, 80
1, 89280, Note_on_c, 0, 53, 45
1, 89280, Note_on_c, 0, 62, 53
1, 89280, Note_on_c, 0, 57, 45
1, 89280, Control_c, 0, 64, 0
1, 89379, Control_c, 0, 64, 127
1, 89640, Tempo, 499168
1, 89640, Note_on_c, 0, 86, 0
1, 89640, Note_on_c, 0, 81, 70
1, 89760, Tempo, 475097
1, 89760, Note_on_c, 0, 81, 0
1, 89760, Note_on_c, 0, 57, 0
1, 89760, Note_on_c, 0, 62, 0
1, 89760, Note_on_c, 0, 53, 0
1, 89760, Note_on_c, 0, 88, 82
1, 89760, Note_on_c, 0, 52, 43
1, 89760, Note_on_c, 0, 55, 43
1, 89760, Note_on_c, 0, 61, 43
1, 89771, Control_c, 0, 64, 0
1, 89852, Control_c, 0, 64, 127
1, 90120, Note_on_c, 0, 88, 0
1, 90120, Note_on_c, 0, 81, 68
1, 90240, Tempo, 484692
1, 90240, Note_on_c, 0, 81, 0
1, 90240, Note_on_c, 0, 61, 0
1, 90240, Note_on_c, 0, 55, 0
1, 90240, Note_on_c, 0, 52, 0
1, 90240, Note_on_c, 0, 89, 81
1, 90240, Note_on_c, 0, 50, 45
1, 90240, Note_on_c, 0, 62, 54
1, 90240, Note_on_c, 0, 53, 45
1, 90254, Control_c, 0, 64, 0
1, 90339, Control_c, 0, 64, 127
1, 90600, Tempo, 539617
1, 90600, Note_on_c, 0, 89, 0
1, 90600, Note_on_c, 0, 86, 68
1, 90710, Note_on_c, 0, 86, 0
1, 90720, Tempo, 484692
1, 90720, Note_on_c, 0, 53, 0
1, 90720, Note_on_c, 0, 62, 0
1, 90720, Note_on_c, 0, 50, 0
1, 90720, Note_on_c, 0, 84, 80
1, 90720, Note_on_c, 0, 55, 61
1, 90720, Control_c, 0, 64, 0
1, 90831, Control_c, 0, 64, 127
1, 90840, Note_on_c, 0, 84, 0
1, 90840, Note_on_c, 0, 82, 61
1, 90960, Note_on_c, 0, 82, 0
1, 90960, Note_on_c, 0, 81, 68
1, 91080, Tempo, 511553
1, 91080, Note_on_c, 0, 81, 0
1, 91080, Note_on_c, 0, 79, 61
1, 91200, Tempo, 490637
1, 91200, Note_on_c, 0, 79, 0
1, 91200, Note_on_c, 0, 55, 0
1, 91200, Note_on_c, 0, 77, 66
1, 91200, Note_on_c, 0, 57, 42
1, 91227, Control_c, 0, 64, 0
1, 91560, Tempo, 524980
1, 91662, Tempo, 511553
1, 91680, Note_on_c, 0, 57, 0
1, 91680, Note_on_c, 0, 77, 0
1, 91680, Note_on_c, 0, 76, 47
1, 91680, Note_on_c, 0, 45, 38
1, 91700, Tempo, 509381
1, 91738, Tempo, 507228
1, 91740, Note_on_c, 0, 76, 0
1, 91740, Note_on_c, 0, 77, 44
1, 91753, Control_c, 0, 64, 127
1, 91758, Tempo, 505093
1, 91796, Tempo, 502976
1, 91800, Note_on_c, 0, 77, 0
1, 91800, Note_on_c, 0, 76, 47
1, 91815, Tempo, 500877
1, 91854, Tempo, 498795
1, 91860, Note_on_c, 0, 76, 0
1, 91860, Note_on_c, 0, 77, 45
1, 91873, Tempo, 496730
1, 91911, Tempo, 494682
1, 91920, Note_on_c, 0, 77, 0
1, 91920, Note_on_c, 0, 76, 47
1, 91930, Tempo, 492651
1, 91969, Tempo, 490637
1, 91980, Note_on_c, 0, 76, 0
1, 91980, Note_on_c, 0, 77, 43
1, 91988, Tempo, 488639
1, 92007, Tempo, 488639
1, 92026, Tempo, 498795
1, 92040, Note_on_c, 0, 77, 0
1, 92040, Note_on_c, 0, 76, 43
1, 92046, Tempo, 509381
1, 92080, Note_on_c, 0, 76, 0
1, 92080, Note_on_c, 0, 74, 43
1, 92120, Note_on_c, 0, 74, 0
1, 92121, Note_on_c, 0, 76, 43
1, 92160, Tempo, 518179
1, 92160, Note_on_c, 0, 45, 0
1, 92160, Note_on_c, 0, 74, 66
1, 92160, Note_on_c, 0, 50, 47
1, 92161, Note_on_c, 0, 76, 0
1, 92167, Control_c, 0, 64, 0
1, 92640, Tempo, 527287
1, 92640, Note_on_c, 0, 50, 0
1, 92640, Note_on_c, 0, 38, 31
1, 93000, Note_on_c, 0, 38, 0
1, 93000, Note_on_c, 0, 74, 0
1, 93120, Tempo, 482742
1, 93120, Marker_t, "Teil 5"
1, 93120, Note_on_c, 0, 67, 50
1, 93240, Note_on_c, 0, 67, 0
1, 93240, Note_on_c, 0, 66, 45
1, 93360, Note_on_c, 0, 66, 0
1, 93360, Note_on_c, 0, 64, 45
1, 93480, Note_on_c, 0, 64, 0
1, 93480, Note_on_c, 0, 62, 45
1, 93600, Key_signature, 2, "major"
1, 93600, Tempo, 482742
1, 93600, Note_on_c, 0, 62, 0
1, 93600, Note_on_c, 0, 74, 50
1, 93600, Note_on_c, 0, 62, 46
1, 93660, Note_on_c, 0, 62, 0
1, 93660, Note_on_c, 0, 74, 0
1, 93840, Tempo, 476985
1, 93840, Note_on_c, 0, 74, 50
1, 93900, Note_on_c, 0, 74, 0
1, 94080, Tempo, 482742
1, 94080, Note_on_c, 0, 66, 41
1, 94200, Note_on_c, 0, 66, 0
1, 94320, Note_on_c, 0, 74, 47
1, 94440, Note_on_c, 0, 74, 0
1, 94560, Note_on_c, 0, 76, 53
1, 94560, Note_on_c, 0, 62, 41
1, 94680, Note_on_c, 0, 76, 0
1, 94680, Note_on_c, 0, 74, 48
1, 94800, Note_on_c, 0, 74, 0
1, 94800, Note_on_c, 0, 62, 0
1, 94800, Note_on_c, 0, 73, 48
1, 94920, Note_on_c, 0, 73, 0
1, 94920, Note_on_c, 0, 74, 48
1, 95040, Tempo, 487369
1, 95040, Note_on_c, 0, 74, 0
1, 95040, Note_on_c, 0, 73, 51
1, 95040, Note_on_c, 0, 69, 47
1, 95100, Note_on_c, 0, 73, 0
1, 95280, Tempo, 469631
1, 95280, Note_on_c, 0, 69, 0
1, 95280, Note_on_c, 0, 79, 52
1, 95340, Note_on_c, 0, 79, 0
1, 95520, Tempo, 473223
1, 95520, Note_on_c, 0, 57, 38
1, 95760, Note_on_c, 0, 79, 56
1, 96000, Tempo, 482742
1, 96000, Note_on_c, 0, 79, 0
1, 96000, Note_on_c, 0, 57, 0
1, 96000, Note_on_c, 0, 81, 51
1, 96000, Note_on_c, 0, 61, 38
1, 96120, Note_on_c, 0, 81, 0
1, 96120, Note_on_c, 0, 79, 51
1, 96240, Note_on_c, 0, 79, 0
1, 96240, Note_on_c, 0, 78, 51
1, 96360, Note_on_c, 0, 78, 0
1, 96360, Note_on_c, 0, 76, 51
1, 96480, Tempo, 476153
1, 96480, Note_on_c, 0, 76, 0
1, 96480, Note_on_c, 0, 61, 0
1, 96480, Note_on_c, 0, 79, 58
1, 96480, Note_on_c, 0, 62, 45
1, 96600, Note_on_c, 0, 79, 0
1, 96600, Note_on_c, 0, 78, 53
1, 96720, Note_on_c, 0, 78, 0
1, 96720, Note_on_c, 0, 76, 53
1, 96840, Tempo, 482742
1, 96840, Note_on_c, 0, 76, 0
1, 96840, Note_on_c, 0, 74, 49
1, 96960, Tempo, 471772
1, 96960, Note_on_c, 0, 74, 0
1, 96960, Note_on_c, 0, 62, 0
1, 96960, Note_on_c, 0, 83, 62
1, 96960, Note_on_c, 0, 66, 47
1, 97080, Note_on_c, 0, 83, 0
1, 97080, Note_on_c, 0, 81, 56
1, 97200, Note_on_c, 0, 81, 0
1, 97200, Note_on_c, 0, 79, 56
1, 97320, Tempo, 496771
1, 97320, Note_on_c, 0, 79, 0
1, 97320, Note_on_c, 0, 78, 54
1, 97440, Tempo, 480577
1, 97440, Note_on_c, 0, 78, 0
1, 97440, Note_on_c, 0, 66, 0
1, 97440, Note_on_c, 0, 83, 65
1, 97440, Note_on_c, 0, 67, 55
1, 97560, Note_on_c, 0, 83, 0
1, 97560, Note_on_c, 0, 85, 49
1, 97680, Note_on_c, 0, 85, 0
1, 97680, Note_on_c, 0, 86, 46
1, 97800, Tempo, 506543
1, 97800, Note_on_c, 0, 86, 0
1, 97800, Note_on_c, 0, 79, 43
1, 97920, Tempo, 496771
1, 97920, Note_on_c, 0, 79, 0
1, 97920, Note_on_c, 0, 67, 0
1, 97920, Note_on_c, 0, 74, 51
1, 97920, Note_on_c, 0, 78, 51
1, 97920, Note_on_c, 0, 69, 39
1, 98400, Note_on_c, 0, 69, 0
1, 98400, Note_on_c, 0, 78, 0
1, 98400, Note_on_c, 0, 74, 0
1, 98400, Note_on_c, 0, 73, 39
1, 98400, Note_on_c, 0, 76, 39
1, 98400, Note_on_c, 0, 57, 30
1, 98760, Note_on_c, 0, 57, 0
1, 98760, Note_on_c, 0, 76, 0
1, 98760, Note_on_c, 0, 73, 0
1, 98880, Tempo, 480808
1, 98880, Note_on_c, 0, 67, 50
1, 99000, Note_on_c, 0, 67, 0
1, 99000, Note_on_c, 0, 66, 45
1, 99120, Note_on_c, 0, 66, 0
1, 99120, Note_on_c, 0, 64, 45
1, 99240, Note_on_c, 0, 64, 0
1, 99240, Note_on_c, 0, 62, 45
1, 99360, Tempo, 482742
1, 99360, Note_on_c, 0, 62, 0
1, 99360, Note_on_c, 0, 74, 50
1, 99360, Note_on_c, 0, 62, 46
1, 99420, Note_on_c, 0, 62, 0
1, 99420, Note_on_c, 0, 74, 0
1, 99600, Tempo, 476985
1, 99600, Note_on_c, 0, 74, 50
1, 99660, Note_on_c, 0, 74, 0
1, 99840, Tempo, 482742
1, 99840, Note_on_c, 0, 66, 41
1, 99960, Note_on_c, 0, 66, 0
1, 100080, Note_on_c, 0, 74, 47
1, 100200, Note_on_c, 0, 74, 0
1, 100320, Tempo, 475097
1, 100320, Note_on_c, 0, 76, 49
1, 100320, Note_on_c, 0, 62, 41
1, 100440, Note_on_c, 0, 76, 0
1, 100440, Note_on_c, 0, 74, 43
1, 100560, Note_on_c, 0, 74, 0
1, 100560, Note_on_c, 0, 62, 0
1, 100560, Note_on_c, 0, 73, 43
1, 100680, Note_on_c, 0, 73, 0
1, 100680, Note_on_c, 0, 74, 43
1, 100800, Tempo, 473223
1, 100800, Note_on_c, 0, 74, 0
1, 100800, Note_on_c, 0, 73, 51
1, 100800, Note_on_c, 0, 69, 47
1, 100860, Note_on_c, 0, 73, 0
1, 101040, Tempo, 492651
1, 101040, Note_on_c, 0, 69, 0
1, 101040, Note_on_c, 0, 79, 52
1, 101100, Note_on_c, 0, 79, 0
1, 101280, Tempo, 473223
1, 101280, Note_on_c, 0, 81, 56
1, 101280, Note_on_c, 0, 61, 38
1, 101400, Note_on_c, 0, 81, 0
1, 101400, Note_on_c, 0, 79, 51
1, 101520, Note_on_c, 0, 79, 0
1, 101520, Note_on_c, 0, 78, 51
1, 101640, Note_on_c, 0, 78, 0
1, 101640, Note_on_c, 0, 76, 48
1, 101760, Tempo, 482742
1, 101760, Note_on_c, 0, 76, 0
1, 101760, Note_on_c, 0, 61, 0
1, 101760, Note_on_c, 0, 79, 58
1, 101760, Note_on_c, 0, 62, 38
1, 101880, Note_on_c, 0, 79, 0
1, 101880, Note_on_c, 0, 78, 54
1, 102000, Note_on_c, 0, 78, 0
1, 102000, Note_on_c, 0, 76, 53
1, 102120, Tempo, 505093
1, 102120, Note_on_c, 0, 76, 0
1, 102120, Note_on_c, 0, 74, 53
1, 102240, Tempo, 476153
1, 102240, Note_on_c, 0, 74, 0
1, 102240, Note_on_c, 0, 62, 0
1, 102240, Note_on_c, 0, 83, 69
1, 102240, Note_on_c, 0, 55, 45
1, 102360, Note_on_c, 0, 83, 0
1, 102360, Note_on_c, 0, 85, 56
1, 102480, Note_on_c, 0, 85, 0
1, 102480, Note_on_c, 0, 86, 53
1, 102600, Tempo, 499168
1, 102600, Note_on_c, 0, 86, 0
1, 102600, Note_on_c, 0, 79, 56
1, 102720, Tempo, 471772
1, 102720, Note_on_c, 0, 79, 0
1, 102720, Note_on_c, 0, 55, 0
1, 102720, Note_on_c, 0, 78, 61
1, 102720, Note_on_c, 0, 57, 47
1, 102840, Note_on_c, 0, 78, 0
1, 102840, Note_on_c, 0, 79, 51
1, 102960, Note_on_c, 0, 79, 0
1, 102960, Note_on_c, 0, 81, 51
1, 103080, Tempo, 496771
1, 103080, Note_on_c, 0, 81, 0
1, 103080, Note_on_c, 0, 74, 51
1, 103200, Tempo, 480577
1, 103200, Note_on_c, 0, 74, 0
1, 103200, Note_on_c, 0, 57, 0
1, 103200, Note_on_c, 0, 76, 59
1, 103200, Note_on_c, 0, 45, 48
1, 103320, Note_on_c, 0, 76, 0
1, 103320, Note_on_c, 0, 78, 48
1, 103440, Note_on_c, 0, 78, 0
1, 103440, Note_on_c, 0, 79, 53
1, 103560, Tempo, 527287
1, 103560, Note_on_c, 0, 79, 0
1, 103560, Note_on_c, 0, 73, 48
1, 103680, Tempo, 507228
1, 103680, Note_on_c, 0, 73, 0
1, 103680, Note_on_c, 0, 45, 0
1, 103680, Note_on_c, 0, 74, 58
1, 103680, Note_on_c, 0, 50, 46
1, 104160, Tempo, 524980
1, 104160, Note_on_c, 0, 50, 0
1, 104160, Note_on_c, 0, 74, 0
1, 104160, Note_on_c, 0, 38, 28
1, 104640, Tempo, 482742
1, 104640, Marker_t, "Teil 5 Wiederholung"
1, 104640, Note_on_c, 0, 38, 0
1, 104640, Note_on_c, 0, 67, 50
1, 104760, Note_on_c, 0, 67, 0
1, 104760, Note_on_c, 0, 66, 45
1, 104880, Note_on_c, 0, 66, 0
1, 104880, Note_on_c, 0, 64, 45
1, 105000, Note_on_c, 0, 64, 0
1, 105000, Note_on_c, 0, 62, 45
1, 105120, Tempo, 469888
1, 105120, Note_on_c, 0, 62, 0
1, 105120, Note_on_c, 0, 74, 50
1, 105120, Note_on_c, 0, 62, 46
1, 105180, Note_on_c, 0, 62, 0
1, 105180, Note_on_c, 0, 74, 0
1, 105360, Tempo, 476985
1, 105360, Note_on_c, 0, 74, 50
1, 105420, Note_on_c, 0, 74, 0
1, 105600, Tempo, 482742
1, 105600, Note_on_c, 0, 66, 41
1, 105720, Note_on_c, 0, 66, 0
1, 105840, Note_on_c, 0, 74, 47
1, 105960, Note_on_c, 0, 74, 0
1, 106080, Note_on_c, 0, 76, 53
1, 106080, Note_on_c, 0, 62, 41
1, 106200, Note_on_c, 0, 76, 0
1, 106200, Note_on_c, 0, 74, 48
1, 106320, Note_on_c, 0, 74, 0
1, 106320, Note_on_c, 0, 62, 0
1, 106320, Note_on_c, 0, 73, 48
1, 106440, Note_on_c, 0, 73, 0
1, 106440, Note_on_c, 0, 74, 48
1, 106560, Tempo, 477365
1, 106560, Note_on_c, 0, 74, 0
1, 106560, Note_on_c, 0, 73, 51
1, 106560, Note_on_c, 0, 69, 47
1, 106620, Note_on_c, 0, 73, 0
1, 106800, Tempo, 469631
1, 106800, Note_on_c, 0, 69, 0
1, 106800, Note_on_c, 0, 79, 52
1, 106860, Note_on_c, 0, 79, 0
1, 107040, Tempo, 473223
1, 107040, Note_on_c, 0, 57, 38
1, 107280, Note_on_c, 0, 79, 56
1, 107520, Tempo, 482742
1, 107520, Note_on_c, 0, 79, 0
1, 107520, Note_on_c, 0, 57, 0
1, 107520, Note_on_c, 0, 81, 51
1, 107520, Note_on_c, 0, 61, 38
1, 107640, Note_on_c, 0, 81, 0
1, 107640, Note_on_c, 0, 79, 51
1, 107760, Note_on_c, 0, 79, 0
1, 107760, Note_on_c, 0, 78, 51
1, 107880, Note_on_c, 0, 78, 0
1, 107880, Note_on_c, 0, 76, 51
1, 108000, Tempo, 476153
1, 108000, Note_on_c, 0, 76, 0
1, 108000, Note_on_c, 0, 61, 0
1, 108000, Note_on_c, 0, 79, 58
1, 108000, Note_on_c, 0, 62, 45
1, 108120, Note_on_c, 0, 79, 0
1, 108120, Note_on_c, 0, 78, 53
1, 108240, Note_on_c, 0, 78, 0
1, 108240, Note_on_c, 0, 76, 53
1, 108360, Tempo, 482742
1, 108360, Note_on_c, 0, 76, 0
1, 108360, Note_on_c, 0, 74, 49
1, 108480, Tempo, 471772
1, 108480, Note_on_c, 0, 74, 0
1, 108480, Note_on_c, 0, 62, 0
1, 108480, Note_on_c, 0, 83, 59
1, 108480, Note_on_c, 0, 66, 47
1, 108600, Note_on_c, 0, 83, 0
1, 108600, Note_on_c, 0, 81, 54
1, 108720, Note_on_c, 0, 81, 0
1, 108720, Note_on_c, 0, 79, 54
1, 108840, Tempo, 496771
1, 108840, Note_on_c, 0, 79, 0
1, 108840, Note_on_c, 0, 78, 61
1, 108960, Tempo, 480577
1, 108960, Note_on_c, 0, 78, 0
1, 108960, Note_on_c, 0, 66, 0
1, 108960, Note_on_c, 0, 83, 68
1, 108960, Note_on_c, 0, 67, 48
1, 109080, Note_on_c, 0, 83, 0
1, 109080, Note_on_c, 0, 85, 60
1, 109200, Note_on_c, 0, 85, 0
1, 109200, Note_on_c, 0, 86, 54
1, 109320, Tempo, 506543
1, 109320, Note_on_c, 0, 86, 0
1, 109320, Note_on_c, 0, 79, 43
1, 109440, Tempo, 496771
1, 109440, Note_on_c, 0, 79, 0
1, 109440, Note_on_c, 0, 67, 0
1, 109440, Note_on_c, 0, 74, 51
1, 109440, Note_on_c, 0, 78, 51
1, 109440, Note_on_c, 0, 69, 39
1, 109920, Note_on_c, 0, 69, 0
1, 109920, Note_on_c, 0, 78, 0
1, 109920, Note_on_c, 0, 74, 0
1, 109920, Note_on_c, 0, 73, 39
1, 109920, Note_on_c, 0, 76, 39
1, 109920, Note_on_c, 0, 57, 30
1, 110280, Note_on_c, 0, 57, 0
1, 110280, Note_on_c, 0, 76, 0
1, 110280, Note_on_c, 0, 73, 0
1, 110400, Tempo, 480808
1, 110400, Note_on_c, 0, 67, 50
1, 110520, Note_on_c, 0, 67, 0
1, 110520, Note_on_c, 0, 66, 45
1, 110640, Note_on_c, 0, 66, 0
1, 110640, Note_on_c, 0, 64, 45
1, 110760, Note_on_c, 0, 64, 0
1, 110760, Note_on_c, 0, 62, 45
1, 110880, Tempo, 473597
1, 110880, Note_on_c, 0, 62, 0
1, 110880, Note_on_c, 0, 74, 50
1, 110880, Note_on_c, 0, 62, 46
1, 110940, Note_on_c, 0, 62, 0
1, 110940, Note_on_c, 0, 74, 0
1, 111120, Tempo, 476985
1, 111120, Note_on_c, 0, 74, 50
1, 111180, Note_on_c, 0, 74, 0
1, 111360, Tempo, 482742
1, 111360, Note_on_c, 0, 66, 41
1, 111480, Note_on_c, 0, 66, 0
1, 111600, Note_on_c, 0, 74, 47
1, 111720, Note_on_c, 0, 74, 0
1, 111840, Tempo, 475097
1, 111840, Note_on_c, 0, 76, 49
1, 111840, Note_on_c, 0, 62, 41
1, 111960, Note_on_c, 0, 76, 0
1, 111960, Note_on_c, 0, 74, 43
1, 112080, Note_on_c, 0, 74, 0
1, 112080, Note_on_c, 0, 62, 0
1, 112080, Note_on_c, 0, 73, 43
1, 112200, Note_on_c, 0, 73, 0
1, 112200, Note_on_c, 0, 74, 43
1, 112320, Tempo, 473223
1, 112320, Note_on_c, 0, 74, 0
1, 112320, Note_on_c, 0, 73, 51
1, 112320, Note_on_c, 0, 69, 47
1, 112380, Note_on_c, 0, 73, 0
1, 112560, Tempo, 499210
1, 112560, Note_on_c, 0, 69, 0
1, 112560, Note_on_c, 0, 79, 52
1, 112620, Note_on_c, 0, 79, 0
1, 112800, Tempo, 473223
1, 112800, Note_on_c, 0, 81, 56
1, 112800, Note_on_c, 0, 61, 43
1, 112920, Note_on_c, 0, 81, 0
1, 112920, Note_on_c, 0, 79, 51
1, 113040, Note_on_c, 0, 79, 0
1, 113040, Note_on_c, 0, 78, 51
1, 113160, Note_on_c, 0, 78, 0
1, 113160, Note_on_c, 0, 76, 48
1, 113280, Tempo, 482742
1, 113280, Note_on_c, 0, 76, 0
1, 113280, Note_on_c, 0, 61, 0
1, 113280, Note_on_c, 0, 79, 58
1, 113280, Note_on_c, 0, 62, 48
1, 113400, Note_on_c, 0, 79, 0
1, 113400, Note_on_c, 0, 78, 52
1, 113520, Note_on_c, 0, 78, 0
1, 113520, Note_on_c, 0, 76, 54
1, 113640, Tempo, 505093
1, 113640, Note_on_c, 0, 76, 0
1, 113640, Note_on_c, 0, 74, 57
1, 113760, Tempo, 476153
1, 113760, Note_on_c, 0, 74, 0
1, 113760, Note_on_c, 0, 62, 0
1, 113760, Note_on_c, 0, 83, 66
1, 113760, Note_on_c, 0, 55, 45
1, 113880, Note_on_c, 0, 83, 0
1, 113880, Note_on_c, 0, 85, 57
1, 114000, Note_on_c, 0, 85, 0
1, 114000, Note_on_c, 0, 86, 53
1, 114120, Tempo, 499168
1, 114120, Note_on_c, 0, 86, 0
1, 114120, Note_on_c, 0, 79, 51
1, 114240, Tempo, 471772
1, 114240, Note_on_c, 0, 79, 0
1, 114240, Note_on_c, 0, 55, 0
1, 114240, Note_on_c, 0, 78, 61
1, 114240, Note_on_c, 0, 57, 47
1, 114360, Note_on_c, 0, 78, 0
1, 114360, Note_on_c, 0, 79, 51
1, 114480, Note_on_c, 0, 79, 0
1, 114480, Note_on_c, 0, 81, 51
1, 114600, Tempo, 496771
1, 114600, Note_on_c, 0, 81, 0
1, 114600, Note_on_c, 0, 74, 51
1, 114720, Tempo, 480577
1, 114720, Note_on_c, 0, 74, 0
1, 114720, Note_on_c, 0, 57, 0
1, 114720, Note_on_c, 0, 76, 59
1, 114720, Note_on_c, 0, 45, 48
1, 114840, Note_on_c, 0, 76, 0
1, 114840, Note_on_c, 0, 78, 48
1, 114960, Note_on_c, 0, 78, 0
1, 114960, Note_on_c, 0, 79, 53
1, 115080, Tempo, 527287
1, 115080, Note_on_c, 0, 79, 0
1, 115080, Note_on_c, 0, 73, 48
1, 115200, Tempo, 507228
1, 115200, Note_on_c, 0, 73, 0
1, 115200, Note_on_c, 0, 45, 0
1, 115200, Note_on_c, 0, 74, 58
1, 115200, Note_on_c, 0, 50, 46
1, 115680, Tempo, 524980
1, 115680, Note_on_c, 0, 50, 0
1, 115680, Note_on_c, 0, 74, 0
1, 115680, Note_on_c, 0, 38, 28
1, 116160, Tempo, 482742
1, 116160, Marker_t, "Teil 6"
1, 116160, Note_on_c, 0, 38, 0
1, 116160, Note_on_c, 0, 67, 50
1, 116280, Note_on_c, 0, 67, 0
1, 116280, Note_on_c, 0, 66, 45
1, 116400, Note_on_c, 0, 66, 0
1, 116400, Note_on_c, 0, 64, 45
1, 116520, Note_on_c, 0, 64, 0
1, 116520, Note_on_c, 0, 62, 45
1, 116640, Tempo, 482742
1, 116640, Note_on_c, 0, 62, 0
1, 116640, Note_on_c, 0, 74, 50
1, 116700, Note_on_c, 0, 74, 0
1, 116880, Tempo, 476985
1, 116880, Note_on_c, 0, 74, 50
1, 116940, Note_on_c, 0, 74, 0
1, 117120, Tempo, 482742
1, 117120, Note_on_c, 0, 62, 38
1, 117360, Note_on_c, 0, 68, 47
1, 117480, Note_on_c, 0, 68, 0
1, 117600, Note_on_c, 0, 62, 0
1, 117600, Note_on_c, 0, 69, 53
1, 117600, Note_on_c, 0, 61, 37
1, 117720, Note_on_c, 0, 69, 0
1, 117720, Note_on_c, 0, 71, 48
1, 117840, Note_on_c, 0, 71, 0
1, 117840, Note_on_c, 0, 69, 48
1, 117960, Note_on_c, 0, 69, 0
1, 117960, Note_on_c, 0, 64, 48
1, 118080, Tempo, 487369
1, 118080, Note_on_c, 0, 64, 0
1, 118080, Note_on_c, 0, 61, 0
1, 118080, Note_on_c, 0, 67, 51
1, 118080, Note_on_c, 0, 59, 38
1, 118140, Note_on_c, 0, 67, 0
1, 118320, Tempo, 469631
1, 118320, Note_on_c, 0, 67, 52
1, 118380, Note_on_c, 0, 67, 0
1, 118560, Tempo, 473223
1, 118560, Note_on_c, 0, 59, 0
1, 118560, Note_on_c, 0, 57, 39
1, 118800, Note_on_c, 0, 66, 56
1, 119040, Tempo, 482742
1, 119040, Note_on_c, 0, 66, 0
1, 119040, Note_on_c, 0, 57, 0
1, 119040, Note_on_c, 0, 64, 51
1, 119040, Note_on_c, 0, 55, 40
1, 119160, Note_on_c, 0, 64, 0
1, 119160, Note_on_c, 0, 66, 47
1, 119280, Note_on_c, 0, 66, 0
1, 119280, Note_on_c, 0, 64, 47
1, 119400, Note_on_c, 0, 64, 0
1, 119400, Note_on_c, 0, 59, 47
1, 119520, Tempo, 476153
1, 119520, Note_on_c, 0, 59, 0
1, 119520, Note_on_c, 0, 55, 0
1, 119520, Note_on_c, 0, 62, 53
1, 119520, Note_on_c, 0, 54, 41
1, 119640, Note_on_c, 0, 62, 0
1, 119640, Note_on_c, 0, 64, 46
1, 119760, Note_on_c, 0, 64, 0
1, 119760, Note_on_c, 0, 62, 46
1, 119880, Tempo, 482742
1, 119880, Note_on_c, 0, 62, 0
1, 119880, Note_on_c, 0, 57, 46
1, 120000, Tempo, 471772
1, 120000, Note_on_c, 0, 57, 0
1, 120000, Note_on_c, 0, 54, 0
1, 120000, Note_on_c, 0, 67, 54
1, 120000, Note_on_c, 0, 52, 39
1, 120120, Note_on_c, 0, 67, 0
1, 120120, Note_on_c, 0, 69, 46
1, 120240, Note_on_c, 0, 69, 0
1, 120240, Note_on_c, 0, 67, 46
1, 120360, Tempo, 496771
1, 120360, Note_on_c, 0, 67, 0
1, 120360, Note_on_c, 0, 64, 43
1, 120480, Tempo, 480577
1, 120480, Note_on_c, 0, 64, 0
1, 120480, Note_on_c, 0, 52, 0
1, 120480, Note_on_c, 0, 66, 55
1, 120480, Note_on_c, 0, 50, 39
1, 120600, Note_on_c, 0, 66, 0
1, 120600, Note_on_c, 0, 67, 46
1, 120720, Note_on_c, 0, 67, 0
1, 120720, Note_on_c, 0, 66, 46
1, 120840, Tempo, 506543
1, 120840, Note_on_c, 0, 66, 0
1, 120840, Note_on_c, 0, 62, 46
1, 120950, Note_on_c, 0, 62, 0
1, 120960, Tempo, 496771
1, 120960, Note_on_c, 0, 50, 0
1, 120960, Note_on_c, 0, 66, 51
1, 120960, Note_on_c, 0, 62, 43
1, 120960, Note_on_c, 0, 57, 43
1, 121440, Note_on_c, 0, 57, 0
1, 121440, Note_on_c, 0, 62, 0
1, 121440, Note_on_c, 0, 66, 0
1, 121440, Note_on_c, 0, 61, 39
1, 121440, Note_on_c, 0, 64, 39
1, 121440, Note_on_c, 0, 45, 36
1, 121680, Note_on_c, 0, 45, 0
1, 121800, Note_on_c, 0, 64, 0
1, 121800, Note_on_c, 0, 61, 0
1, 121920, Tempo, 482742
1, 121920, Note_on_c, 0, 79, 63
1, 122040, Note_on_c, 0, 79, 0
1, 122040, Note_on_c, 0, 78, 56
1, 122160, Note_on_c, 0, 78, 0
1, 122160, Note_on_c, 0, 76, 56
1, 122280, Note_on_c, 0, 76, 0
1, 122280, Note_on_c, 0, 74, 56
1, 122400, Tempo, 482742
1, 122400, Note_on_c, 0, 74, 0
1, 122400, Note_on_c, 0, 86, 70
1, 122460, Note_on_c, 0, 86, 0
1, 122640, Tempo, 476985
1, 122640, Note_on_c, 0, 86, 67
1, 122700, Note_on_c, 0, 86, 0
1, 122880, Tempo, 482742
1, 122880, Note_on_c, 0, 74, 38
1, 123120, Note_on_c, 0, 80, 53
1, 123240, Note_on_c, 0, 80, 0
1, 123360, Note_on_c, 0, 74, 0
1, 123360, Note_on_c, 0, 80, 58
1, 123360, Note_on_c, 0, 73, 37
1, 123480, Note_on_c, 0, 80, 0
1, 123480, Note_on_c, 0, 81, 48
1, 123600, Note_on_c, 0, 81, 0
1, 123600, Note_on_c, 0, 83, 48
1, 123720, Tempo, 511553
1, 123720, Note_on_c, 0, 83, 0
1, 123720, Note_on_c, 0, 81, 48
1, 123810, Note_on_c, 0, 81, 0
1, 123840, Tempo, 482742
1, 123840, Note_on_c, 0, 73, 0
1, 123840, Note_on_c, 0, 81, 61
1, 123840, Note_on_c, 0, 71, 38
1, 123960, Note_on_c, 0, 81, 0
1, 123960, Note_on_c, 0, 79, 49
1, 124080, Tempo, 478889
1, 124080, Note_on_c, 0, 79, 0
1, 124080, Note_on_c, 0, 78, 49
1, 124200, Tempo, 511553
1, 124200, Note_on_c, 0, 78, 0
1, 124200, Note_on_c, 0, 79, 49
1, 124290, Note_on_c, 0, 79, 0
1, 124320, Tempo, 478889
1, 124320, Note_on_c, 0, 71, 0
1, 124320, Note_on_c, 0, 79, 59
1, 124320, Note_on_c, 0, 69, 39
1, 124440, Note_on_c, 0, 79, 0
1, 124440, Note_on_c, 0, 78, 48
1, 124560, Note_on_c, 0, 78, 0
1, 124560, Note_on_c, 0, 76, 48
1, 124680, Tempo, 511553
1, 124680, Note_on_c, 0, 76, 0
1, 124680, Note_on_c, 0, 78, 48
1, 124770, Note_on_c, 0, 78, 0
1, 124800, Tempo, 480808
1, 124800, Note_on_c, 0, 69, 0
1, 124800, Note_on_c, 0, 78, 58
1, 124800, Note_on_c, 0, 67, 40
1, 124920, Note_on_c, 0, 78, 0
1, 124920, Note_on_c, 0, 76, 47
1, 125040, Note_on_c, 0, 76, 0
1, 125040, Note_on_c, 0, 74, 47
1, 125160, Tempo, 515952
1, 125160, Note_on_c, 0, 74, 0
1, 125160, Note_on_c, 0, 76, 47
1, 125280, Tempo, 484692
1, 125280, Note_on_c, 0, 76, 0
1, 125280, Note_on_c, 0, 67, 0
1, 125280, Note_on_c, 0, 81, 68
1, 125280, Note_on_c, 0, 66, 47
1, 125520, Note_on_c, 0, 66, 0
1, 125520, Note_on_c, 0, 81, 0
1, 125640, Tempo, 511553
1, 125640, Note_on_c, 0, 83, 54
1, 125640, Note_on_c, 0, 67, 44
1, 125760, Tempo, 490637
1, 125760, Note_on_c, 0, 67, 0
1, 125760, Note_on_c, 0, 83, 0
1, 125760, Note_on_c, 0, 74, 66
1, 125760, Note_on_c, 0, 69, 42
1, 126120, Tempo, 524980
1, 126222, Tempo, 511553
1, 126240, Note_on_c, 0, 69, 0
1, 126240, Note_on_c, 0, 74, 0
1, 126240, Note_on_c, 0, 76, 47
1, 126240, Note_on_c, 0, 57, 38
1, 126260, Tempo, 509381
1, 126298, Tempo, 507228
1, 126300, Note_on_c, 0, 76, 0
1, 126300, Note_on_c, 0, 78, 44
1, 126313, Control_c, 0, 64, 127
1, 126318, Tempo, 505093
1, 126356, Tempo, 502976
1, 126360, Note_on_c, 0, 78, 0
1, 126360, Note_on_c, 0, 76, 47
1, 126375, Tempo, 500877
1, 126414, Tempo, 498795
1, 126420, Note_on_c, 0, 76, 0
1, 126420, Note_on_c, 0, 78, 45
1, 126433, Tempo, 496730
1, 126471, Tempo, 494682
1, 126480, Note_on_c, 0, 78, 0
1, 126480, Note_on_c, 0, 76, 47
1, 126490, Tempo, 492651
1, 126529, Tempo, 490637
1, 126540, Note_on_c, 0, 76, 0
1, 126540, Note_on_c, 0, 78, 43
1, 126548, Tempo, 488639
1, 126567, Tempo, 488639
1, 126586, Tempo, 498795
1, 126600, Note_on_c, 0, 78, 0
1, 126600, Note_on_c, 0, 76, 43
1, 126606, Tempo, 509381
1, 126640, Note_on_c, 0, 76, 0
1, 126640, Note_on_c, 0, 74, 43
1, 126680, Note_on_c, 0, 74, 0
1, 126681, Note_on_c, 0, 76, 43
1, 126720, Tempo, 518179
1, 126720, Note_on_c, 0, 57, 0
1, 126720, Note_on_c, 0, 74, 66
1, 126720, Note_on_c, 0, 62, 47
1, 126721, Note_on_c, 0, 76, 0
1, 126727, Control_c, 0, 64, 0
1, 127200, Tempo, 527287
1, 127200, Note_on_c, 0, 62, 0
1, 127200, Note_on_c, 0, 74, 0
1, 127200, Note_on_c, 0, 50, 31
1, 127560, Note_on_c, 0, 50, 0
1, 127680, Tempo, 482742
1, 127680, Marker_t, "Teil 6 Wiederholung"
1, 127680, Note_on_c, 0, 67, 50
1, 127800, Note_on_c, 0, 67, 0
1, 127800, Note_on_c, 0, 66, 45
1, 127920, Note_on_c, 0, 66, 0
1, 127920, Note_on_c, 0, 64, 45
1, 128040, Note_on_c, 0, 64, 0
1, 128040, Note_on_c, 0, 62, 45
1, 128160, Tempo, 468055
1, 128160, Note_on_c, 0, 62, 0
1, 128160, Note_on_c, 0, 74, 50
1, 128220, Note_on_c, 0, 74, 0
1, 128400, Tempo, 476985
1, 128400, Note_on_c, 0, 74, 50
1, 128460, Note_on_c, 0, 74, 0
1, 128640, Tempo, 482742
1, 128640, Note_on_c, 0, 62, 38
1, 128880, Note_on_c, 0, 68, 47
1, 129000, Note_on_c, 0, 68, 0
1, 129120, Note_on_c, 0, 62, 0
1, 129120, Note_on_c, 0, 69, 53
1, 129120, Note_on_c, 0, 61, 37
1, 129240, Note_on_c, 0, 69, 0
1, 129240, Note_on_c, 0, 71, 48
1, 129360, Note_on_c, 0, 71, 0
1, 129360, Note_on_c, 0, 69, 48
1, 129480, Note_on_c, 0, 69, 0
1, 129480, Note_on_c, 0, 64, 48
1, 129600, Tempo, 473597
1, 129600, Note_on_c, 0, 64, 0
1, 129600, Note_on_c, 0, 61, 0
1, 129600, Note_on_c, 0, 67, 51
1, 129600, Note_on_c, 0, 59, 38
1, 129660, Note_on_c, 0, 67, 0
1, 129840, Tempo, 469631
1, 129840, Note_on_c, 0, 67, 52
1, 129900, Note_on_c, 0, 67, 0
1, 130080, Tempo, 473223
1, 130080, Note_on_c, 0, 59, 0
1, 130080, Note_on_c, 0, 57, 39
1, 130320, Note_on_c, 0, 66, 56
1, 130560, Tempo, 482742
1, 130560, Note_on_c, 0, 66, 0
1, 130560, Note_on_c, 0, 57, 0
1, 130560, Note_on_c, 0, 64, 51
1, 130560, Note_on_c, 0, 55, 40
1, 130680, Note_on_c, 0, 64, 0
1, 130680, Note_on_c, 0, 66, 47
1, 130800, Note_on_c, 0, 66, 0
1, 130800, Note_on_c, 0, 64, 47
1, 130920, Note_on_c, 0, 64, 0
1, 130920, Note_on_c, 0, 59, 47
1, 131040, Tempo, 476153
1, 131040, Note_on_c, 0, 59, 0
1, 131040, Note_on_c, 0, 55, 0
1, 131040, Note_on_c, 0, 62, 53
1, 131040, Note_on_c, 0, 54, 41
1, 131160, Note_on_c, 0, 62, 0
1, 131160, Note_on_c, 0, 64, 46
1, 131280, Note_on_c, 0, 64, 0
1, 131280, Note_on_c, 0, 62, 46
1, 131400, Tempo, 482742
1, 131400, Note_on_c, 0, 62, 0
1, 131400, Note_on_c, 0, 57, 46
1, 131520, Tempo, 471772
1, 131520, Note_on_c, 0, 57, 0
1, 131520, Note_on_c, 0, 54, 0
1, 131520, Note_on_c, 0, 67, 54
1, 131520, Note_on_c, 0, 52, 39
1, 131640, Note_on_c, 0, 67, 0
1, 131640, Note_on_c, 0, 69, 46
1, 131760, Note_on_c, 0, 69, 0
1, 131760, Note_on_c, 0, 67, 46
1, 131880, Tempo, 496771
1, 131880, Note_on_c, 0, 67, 0
1, 131880, Note_on_c, 0, 64, 43
1, 132000, Tempo, 480577
1, 132000, Note_on_c, 0, 64, 0
1, 132000, Note_on_c, 0, 52, 0
1, 132000, Note_on_c, 0, 66, 55
1, 132000, Note_on_c, 0, 50, 39
1, 132120, Note_on_c, 0, 66, 0
1, 132120, Note_on_c, 0, 67, 46
1, 132240, Note_on_c, 0, 67, 0
1, 132240, Note_on_c, 0, 66, 46
1, 132360, Tempo, 506543
1, 132360, Note_on_c, 0, 66, 0
1, 132360, Note_on_c, 0, 62, 46
1, 132470, Note_on_c, 0, 62, 0
1, 132480, Tempo, 496771
1, 132480, Note_on_c, 0, 50, 0
1, 132480, Note_on_c, 0, 66, 51
1, 132480, Note_on_c, 0, 62, 43
1, 132480, Note_on_c, 0, 57, 43
1, 132960, Note_on_c, 0, 57, 0
1, 132960, Note_on_c, 0, 62, 0
1, 132960, Note_on_c, 0, 66, 0
1, 132960, Note_on_c, 0, 61, 39
1, 132960, Note_on_c, 0, 64, 39
1, 132960, Note_on_c, 0, 45, 36
1, 133200, Note_on_c, 0, 45, 0
1, 133320, Note_on_c, 0, 64, 0
1, 133320, Note_on_c, 0, 61, 0
1, 133440, Tempo, 482742
1, 133440, Note_on_c, 0, 79, 63
1, 133560, Note_on_c, 0, 79, 0
1, 133560, Note_on_c, 0, 78, 56
1, 133680, Note_on_c, 0, 78, 0
1, 133680, Note_on_c, 0, 76, 56
1, 133800, Note_on_c, 0, 76, 0
1, 133800, Note_on_c, 0, 74, 56
1, 133920, Tempo, 471735
1, 133920, Note_on_c, 0, 74, 0
1, 133920, Note_on_c, 0, 86, 70
1, 133980, Note_on_c, 0, 86, 0
1, 134160, Tempo, 476985
1, 134160, Note_on_c, 0, 86, 67
1, 134220, Note_on_c, 0, 86, 0
1, 134400, Tempo, 482742
1, 134400, Note_on_c, 0, 74, 38
1, 134640, Note_on_c, 0, 80, 53
1, 134760, Note_on_c, 0, 80, 0
1, 134880, Note_on_c, 0, 74, 0
1, 134880, Note_on_c, 0, 80, 58
1, 134880, Note_on_c, 0, 73, 37
1, 135000, Note_on_c, 0, 80, 0
1, 135000, Note_on_c, 0, 81, 48
1, 135120, Note_on_c, 0, 81, 0
1, 135120, Note_on_c, 0, 83, 48
1, 135240, Tempo, 511553
1, 135240, Note_on_c, 0, 83, 0
1, 135240, Note_on_c, 0, 81, 48
1, 135330, Note_on_c, 0, 81, 0
1, 135360, Tempo, 482742
1, 135360, Note_on_c, 0, 73, 0
1, 135360, Note_on_c, 0, 81, 61
1, 135360, Note_on_c, 0, 71, 38
1, 135480, Note_on_c, 0, 81, 0
1, 135480, Note_on_c, 0, 79, 49
1, 135600, Tempo, 478889
1, 135600, Note_on_c, 0, 79, 0
1, 135600, Note_on_c, 0, 78, 49
1, 135720, Tempo, 511553
1, 135720, Note_on_c, 0, 78, 0
1, 135720, Note_on_c, 0, 79, 49
1, 135810, Note_on_c, 0, 79, 0
1, 135840, Tempo, 473597
1, 135840, Note_on_c, 0, 71, 0
1, 135840, Note_on_c, 0, 79, 59
1, 135840, Note_on_c, 0, 69, 39
1, 135960, Note_on_c, 0, 79, 0
1, 135960, Note_on_c, 0, 78, 48
1, 136080, Note_on_c, 0, 78, 0
1, 136080, Note_on_c, 0, 76, 48
1, 136200, Tempo, 511553
1, 136200, Note_on_c, 0, 76, 0
1, 136200, Note_on_c, 0, 78, 48
1, 136290, Note_on_c, 0, 78, 0
1, 136320, Tempo, 475473
1, 136320, Note_on_c, 0, 69, 0
1, 136320, Note_on_c, 0, 78, 58
1, 136320, Note_on_c, 0, 67, 40
1, 136440, Note_on_c, 0, 78, 0
1, 136440, Note_on_c, 0, 76, 47
1, 136560, Note_on_c, 0, 76, 0
1, 136560, Note_on_c, 0, 74, 47
1, 136680, Tempo, 530082
1, 136680, Note_on_c, 0, 74, 0
1, 136680, Note_on_c, 0, 76, 47
1, 136800, Tempo, 484692
1, 136800, Note_on_c, 0, 76, 0
1, 136800, Note_on_c, 0, 67, 0
1, 136800, Note_on_c, 0, 81, 67
1, 136800, Note_on_c, 0, 66, 47
1, 137040, Note_on_c, 0, 66, 0
1, 137040, Note_on_c, 0, 81, 0
1, 137160, Tempo, 511553
1, 137160, Note_on_c, 0, 83, 58
1, 137160, Note_on_c, 0, 67, 44
1, 137280, Tempo, 490637
1, 137280, Note_on_c, 0, 67, 0
1, 137280, Note_on_c, 0, 83, 0
1, 137280, Note_on_c, 0, 74, 70
1, 137280, Note_on_c, 0, 69, 42
1, 137640, Tempo, 524980
1, 137742, Tempo, 511553
1, 137760, Note_on_c, 0, 69, 0
1, 137760, Note_on_c, 0, 74, 0
1, 137760, Note_on_c, 0, 76, 47
1, 137760, Note_on_c, 0, 57, 38
1, 137780, Tempo, 509381
1, 137818, Tempo, 507228
1, 137820, Note_on_c, 0, 76, 0
1, 137820, Note_on_c, 0, 78, 44
1, 137833, Control_c, 0, 64, 127
1, 137838, Tempo, 505093
1, 137876, Tempo, 502976
1, 137880, Note_on_c, 0, 78, 0
1, 137880, Note_on_c, 0, 76, 47
1, 137895, Tempo, 500877
1, 137934, Tempo, 498795
1, 137940, Note_on_c, 0, 76, 0
1, 137940, Note_on_c, 0, 78, 45
1, 137953, Tempo, 496730
1, 137991, Tempo, 494682
1, 138000, Note_on_c, 0, 78, 0
1, 138000, Note_on_c, 0, 76, 47
1, 138010, Tempo, 492651
1, 138049, Tempo, 490637
1, 138060, Note_on_c, 0, 76, 0
1, 138060, Note_on_c, 0, 78, 43
1, 138068, Tempo, 488639
1, 138087, Tempo, 488639
1, 138106, Tempo, 498795
1, 138120, Note_on_c, 0, 78, 0
1, 138120, Note_on_c, 0, 76, 43
1, 138126, Tempo, 509381
1, 138160, Note_on_c, 0, 76, 0
1, 138160, Note_on_c, 0, 74, 43
1, 138200, Note_on_c, 0, 74, 0
1, 138201, Note_on_c, 0, 76, 43
1, 138240, Tempo, 518179
1, 138240, Note_on_c, 0, 57, 0
1, 138240, Note_on_c, 0, 74, 66
1, 138240, Note_on_c, 0, 62, 47
1, 138241, Note_on_c, 0, 76, 0
1, 138247, Control_c, 0, 64, 0
1, 138720, Tempo, 527287
1, 138720, Note_on_c, 0, 62, 0
1, 138720, Note_on_c, 0, 74, 0
1, 138720, Note_on_c, 0, 50, 31
1, 139080, Note_on_c, 0, 50, 0
1, 139200, Tempo, 473223
1, 139200, Marker_t, "Teil 7"
1, 139200, Note_on_c, 0, 67, 58
1, 139320, Note_on_c, 0, 67, 0
1, 139320, Note_on_c, 0, 65, 58
1, 139440, Note_on_c, 0, 65, 0
1, 139440, Note_on_c, 0, 64, 61
1, 139560, Tempo, 518179
1, 139560, Note_on_c, 0, 64, 0
1, 139560, Note_on_c, 0, 62, 65
1, 139680, Key_signature, -1, "major"
1, 139680, Tempo, 478889
1, 139680, Note_on_c, 0, 62, 0
1, 139680, Note_on_c, 0, 74, 82
1, 140160, Tempo, 478889
1, 140160, Note_on_c, 0, 53, 47
1, 140400, Note_on_c, 0, 74, 0
1, 140400, Note_on_c, 0, 76, 64
1, 140520, Tempo, 496771
1, 140640, Tempo, 476985
1, 140640, Note_on_c, 0, 53, 0
1, 140640, Note_on_c, 0, 50, 40
1, 140880, Note_on_c, 0, 76, 0
1, 140880, Note_on_c, 0, 77, 69
1, 141000, Tempo, 486657
1, 141120, Tempo, 471365
1, 141120, Note_on_c, 0, 50, 0
1, 141120, Note_on_c, 0, 52, 48
1, 141360, Note_on_c, 0, 77, 0
1, 141360, Note_on_c, 0, 69, 69
1, 141480, Tempo, 484692
1, 141600, Tempo, 475097
1, 141600, Note_on_c, 0, 52, 0
1, 141600, Note_on_c, 0, 47, 40
1, 141840, Note_on_c, 0, 69, 0
1, 141840, Note_on_c, 0, 68, 65
1, 142080, Tempo, 478889
1, 142080, Note_on_c, 0, 47, 0
1, 142080, Note_on_c, 0, 49, 40
1, 142320, Note_on_c, 0, 68, 0
1, 142320, Note_on_c, 0, 67, 68
1, 142440, Tempo, 494682
1, 142560, Tempo, 484692
1, 142560, Note_on_c, 0, 49, 0
1, 142560, Note_on_c, 0, 50, 46
1, 142800, Note_on_c, 0, 67, 0
1, 142800, Note_on_c, 0, 65, 70
1, 142920, Tempo, 511553
1, 143040, Tempo, 490637
1, 143040, Note_on_c, 0, 50, 0
1, 143040, Note_on_c, 0, 41, 48
1, 143280, Note_on_c, 0, 65, 0
1, 143280, Note_on_c, 0, 69, 69
1, 143400, Tempo, 511989
1, 143520, Tempo, 525440
1, 143520, Note_on_c, 0, 69, 0
1, 143520, Note_on_c, 0, 41, 0
1, 143520, Note_on_c, 0, 69, 70
1, 143520, Note_on_c, 0, 43, 41
1, 143583, Control_c, 0, 64, 127
1, 143640, Tempo, 527751
1, 143640, Note_on_c, 0, 69, 0
1, 143640, Note_on_c, 0, 70, 55
1, 143680, Note_on_c, 0, 70, 0
1, 143680, Note_on_c, 0, 69, 43
1, 143720, Note_on_c, 0, 69, 0
1, 143721, Note_on_c, 0, 67, 39
1, 143760, Tempo, 539617
1, 143760, Note_on_c, 0, 69, 59
1, 143761, Note_on_c, 0, 67, 0
1, 143770, Control_c, 0, 64, 0
1, 143880, Tempo, 598265
1, 143880, Note_on_c, 0, 69, 0
1, 143880, Note_on_c, 0, 70, 49
1, 143990, Note_on_c, 0, 70, 0
1, 144000, Tempo, 513743
1, 144000, Note_on_c, 0, 43, 0
1, 144000, Note_on_c, 0, 62, 50
1, 144000, Note_on_c, 0, 45, 43
1, 144480, Note_on_c, 0, 45, 0
1, 144480, Note_on_c, 0, 62, 0
1, 144480, Note_on_c, 0, 61, 45
1, 144480, Note_on_c, 0, 33, 36
1, 144720, Note_on_c, 0, 33, 0
1, 144720, Note_on_c, 0, 61, 0
1, 144960, Tempo, 471365
1, 144960, Note_on_c, 0, 70, 58
1, 145080, Note_on_c, 0, 70, 0
1, 145080, Note_on_c, 0, 69, 58
1, 145200, Note_on_c, 0, 69, 0
1, 145200, Note_on_c, 0, 67, 61
1, 145320, Tempo, 518179
1, 145320, Note_on_c, 0, 67, 0
1, 145320, Note_on_c, 0, 65, 65
1, 145440, Tempo, 478889
1, 145440, Note_on_c, 0, 65, 0
1, 145440, Note_on_c, 0, 74, 81
1, 145440, Note_on_c, 0, 53, 39
1, 145440, Note_on_c, 0, 57, 39
1, 145440, Note_on_c, 0, 60, 47
1, 145559, Note_on_c, 0, 74, 0
1, 145560, Note_on_c, 0, 72, 63
1, 145680, Note_on_c, 0, 72, 0
1, 145680, Note_on_c, 0, 70, 63
1, 145800, Note_on_c, 0, 70, 0
1, 145800, Note_on_c, 0, 69, 63
1, 145920, Tempo, 473223
1, 145920, Note_on_c, 0, 69, 0
1, 145920, Note_on_c, 0, 79, 78
1, 146039, Note_on_c, 0, 79, 0
1, 146040, Note_on_c, 0, 77, 64
1, 146160, Note_on_c, 0, 77, 0
1, 146160, Note_on_c, 0, 76, 64
1, 146280, Tempo, 496771
1, 146280, Note_on_c, 0, 76, 0
1, 146280, Note_on_c, 0, 77, 64
1, 146400, Tempo, 471365
1, 146400, Note_on_c, 0, 77, 0
1, 146400, Note_on_c, 0, 60, 0
1, 146400, Note_on_c, 0, 57, 0
1, 146400, Note_on_c, 0, 53, 0
1, 146400, Note_on_c, 0, 82, 79
1, 146400, Note_on_c, 0, 63, 34
1, 146400, Note_on_c, 0, 65, 40
1, 146519, Note_on_c, 0, 82, 0
1, 146520, Note_on_c, 0, 81, 66
1, 146640, Note_on_c, 0, 81, 0
1, 146640, Note_on_c, 0, 79, 67
1, 146760, Tempo, 506543
1, 146760, Note_on_c, 0, 79, 0
1, 146760, Note_on_c, 0, 77, 67
1, 146870, Note_on_c, 0, 77, 0
1, 146880, Tempo, 471365
1, 146880, Note_on_c, 0, 65, 0
1, 146880, Note_on_c, 0, 63, 0
1, 146880, Note_on_c, 0, 84, 86
1, 146880, Note_on_c, 0, 65, 53
1, 146880, Note_on_c, 0, 62, 45
1, 146999, Note_on_c, 0, 84, 0
1, 147000, Note_on_c, 0, 82, 70
1, 147120, Note_on_c, 0, 82, 0
1, 147120, Note_on_c, 0, 81, 70
1, 147240, Tempo, 499168
1, 147240, Note_on_c, 0, 81, 0
1, 147240, Note_on_c, 0, 82, 70
1, 147360, Tempo, 475097
1, 147360, Note_on_c, 0, 82, 0
1, 147360, Note_on_c, 0, 62, 0
1, 147360, Note_on_c, 0, 86, 86
1, 147360, Note_on_c, 0, 58, 47
1, 147479, Note_on_c, 0, 86, 0
1, 147480, Note_on_c, 0, 82, 69
1, 147600, Note_on_c, 0, 82, 0
1, 147600, Note_on_c, 0, 81, 69
1, 147720, Note_on_c, 0, 81, 0
1, 147720, Note_on_c, 0, 79, 69
1, 147840, Tempo, 478889
1, 147840, Note_on_c, 0, 79, 0
1, 147840, Note_on_c, 0, 58, 0
1, 147840, Note_on_c, 0, 65, 0
1, 147840, Note_on_c, 0, 88, 85
1, 147840, Note_on_c, 0, 55, 49
1, 147840, Note_on_c, 0, 58, 58
1, 147959, Note_on_c, 0, 88, 0
1, 147960, Note_on_c, 0, 82, 68
1, 148080, Note_on_c, 0, 82, 0
1, 148080, Note_on_c, 0, 81, 68
1, 148200, Tempo, 506543
1, 148200, Note_on_c, 0, 81, 0
1, 148200, Note_on_c, 0, 79, 68
1, 148320, Tempo, 484692
1, 148320, Note_on_c, 0, 79, 0
1, 148320, Note_on_c, 0, 58, 0
1, 148320, Note_on_c, 0, 55, 0
1, 148320, Note_on_c, 0, 89, 80
1, 148320, Note_on_c, 0, 60, 68
1, 148320, Note_on_c, 0, 57, 57
1, 148320, Control_c, 0, 64, 0
1, 148431, Control_c, 0, 64, 127
1, 148439, Note_on_c, 0, 89, 0
1, 148440, Note_on_c, 0, 84, 61
1, 148560, Note_on_c, 0, 84, 0
1, 148560, Note_on_c, 0, 81, 61
1, 148680, Tempo, 511553
1, 148680, Note_on_c, 0, 81, 0
1, 148680, Note_on_c, 0, 77, 61
1, 148800, Tempo, 490637
1, 148800, Note_on_c, 0, 77, 0
1, 148800, Note_on_c, 0, 57, 0
1, 148800, Note_on_c, 0, 60, 0
1, 148800, Note_on_c, 0, 79, 45
1, 148800, Note_on_c, 0, 60, 42
1, 148802, Tempo, 529614
1, 148821, Tempo, 527287
1, 148827, Control_c, 0, 64, 0
1, 148841, Tempo, 524980
1, 148860, Tempo, 522694
1, 148860, Note_on_c, 0, 79, 0
1, 148860, Note_on_c, 0, 81, 39
1, 148879, Tempo, 520427
1, 148895, Control_c, 0, 64, 127
1, 148898, Tempo, 518179
1, 148917, Tempo, 513743
1, 148920, Note_on_c, 0, 81, 0
1, 148920, Note_on_c, 0, 79, 46
1, 148937, Tempo, 511553
1, 148956, Tempo, 509381
1, 148975, Tempo, 507228
1, 148980, Note_on_c, 0, 79, 0
1, 148980, Note_on_c, 0, 81, 40
1, 148994, Tempo, 505093
1, 149013, Tempo, 500877
1, 149033, Tempo, 505093
1, 149040, Note_on_c, 0, 81, 0
1, 149040, Note_on_c, 0, 79, 48
1, 149052, Tempo, 502976
1, 149071, Tempo, 500877
1, 149090, Tempo, 498795
1, 149100, Note_on_c, 0, 79, 0
1, 149100, Note_on_c, 0, 81, 45
1, 149109, Tempo, 496730
1, 149129, Tempo, 494682
1, 149148, Tempo, 492651
1, 149160, Note_on_c, 0, 81, 0
1, 149160, Note_on_c, 0, 79, 51
1, 149167, Tempo, 488639
1, 149205, Tempo, 486657
1, 149220, Note_on_c, 0, 79, 0
1, 149220, Note_on_c, 0, 81, 46
1, 149225, Tempo, 484692
1, 149244, Tempo, 482742
1, 149280, Note_on_c, 0, 81, 0
1, 149280, Note_on_c, 0, 60, 0
1, 149280, Note_on_c, 0, 79, 51
1, 149280, Note_on_c, 0, 48, 38
1, 149282, Tempo, 480808
1, 149301, Tempo, 478889
1, 149321, Tempo, 476985
1, 149340, Note_on_c, 0, 79, 0
1, 149340, Note_on_c, 0, 81, 47
1, 149359, Tempo, 478889
1, 149378, Tempo, 480808
1, 149397, Tempo, 482742
1, 149400, Note_on_c, 0, 81, 0
1, 149400, Note_on_c, 0, 79, 47
1, 149436, Tempo, 484692
1, 149455, Tempo, 486657
1, 149460, Note_on_c, 0, 79, 0
1, 149460, Note_on_c, 0, 81, 45
1, 149474, Tempo, 488639
1, 149493, Tempo, 490637
1, 149520, Note_on_c, 0, 81, 0
1, 149520, Note_on_c, 0, 79, 47
1, 149580, Note_on_c, 0, 79, 0
1, 149580, Note_on_c, 0, 81, 43
1, 149609, Tempo, 492651
1, 149626, Tempo, 498795
1, 149640, Note_on_c, 0, 81, 0
1, 149640, Note_on_c, 0, 79, 43
1, 149646, Tempo, 509381
1, 149680, Note_on_c, 0, 79, 0
1, 149680, Note_on_c, 0, 77, 43
1, 149720, Note_on_c, 0, 77, 0
1, 149721, Note_on_c, 0, 79, 43
1, 149760, Tempo, 518179
1, 149760, Note_on_c, 0, 48, 0
1, 149760, Note_on_c, 0, 77, 66
1, 149760, Note_on_c, 0, 53, 47
1, 149761, Note_on_c, 0, 79, 0
1, 149767, Control_c, 0, 64, 0
1, 150240, Tempo, 527287
1, 150240, Note_on_c, 0, 53, 0
1, 150240, Note_on_c, 0, 41, 31
1, 150600, Note_on_c, 0, 41, 0
1, 150600, Note_on_c, 0, 77, 0
1, 150720, Tempo, 473223
1, 150720, Marker_t, "Teil 7 Wiederholung"
1, 150720, Note_on_c, 0, 67, 58
1, 150840, Note_on_c, 0, 67, 0
1, 150840, Note_on_c, 0, 65, 58
1, 150960, Note_on_c, 0, 65, 0
1, 150960, Note_on_c, 0, 64, 61
1, 151080, Tempo, 518179
1, 151080, Note_on_c, 0, 64, 0
1, 151080, Note_on_c, 0, 62, 65
1, 151200, Tempo, 478889
1, 151200, Note_on_c, 0, 62, 0
1, 151200, Note_on_c, 0, 74, 82
1, 151680, Tempo, 471735
1, 151680, Note_on_c, 0, 53, 47
1, 151920, Note_on_c, 0, 74, 0
1, 151920, Note_on_c, 0, 76, 64
1, 152040, Tempo, 496771
1, 152160, Tempo, 473597
1, 152160, Note_on_c, 0, 53, 0
1, 152160, Note_on_c, 0, 50, 40
1, 152400, Note_on_c, 0, 76, 0
1, 152400, Note_on_c, 0, 77, 69
1, 152520, Tempo, 486657
1, 152640, Tempo, 471365
1, 152640, Note_on_c, 0, 50, 0
1, 152640, Note_on_c, 0, 52, 48
1, 152880, Note_on_c, 0, 77, 0
1, 152880, Note_on_c, 0, 69, 69
1, 153000, Tempo, 484692
1, 153120, Tempo, 475097
1, 153120, Note_on_c, 0, 52, 0
1, 153120, Note_on_c, 0, 47, 40
1, 153360, Note_on_c, 0, 69, 0
1, 153360, Note_on_c, 0, 68, 65
1, 153600, Tempo, 478889
1, 153600, Note_on_c, 0, 47, 0
1, 153600, Note_on_c, 0, 49, 40
1, 153840, Note_on_c, 0, 68, 0
1, 153840, Note_on_c, 0, 67, 68
1, 153960, Tempo, 494682
1, 154080, Tempo, 484692
1, 154080, Note_on_c, 0, 49, 0
1, 154080, Note_on_c, 0, 50, 46
1, 154320, Note_on_c, 0, 67, 0
1, 154320, Note_on_c, 0, 65, 70
1, 154440, Tempo, 511553
1, 154560, Tempo, 490637
1, 154560, Note_on_c, 0, 50, 0
1, 154560, Note_on_c, 0, 41, 48
1, 154800, Note_on_c, 0, 65, 0
1, 154800, Note_on_c, 0, 69, 69
1, 154920, Tempo, 524980
1, 155040, Tempo, 507657
1, 155040, Note_on_c, 0, 69, 0
1, 155040, Note_on_c, 0, 41, 0
1, 155040, Note_on_c, 0, 69, 70
1, 155040, Note_on_c, 0, 43, 41
1, 155088, Control_c, 0, 64, 127
1, 155160, Tempo, 523149
1, 155160, Note_on_c, 0, 69, 0
1, 155160, Note_on_c, 0, 70, 50
1, 155200, Note_on_c, 0, 70, 0
1, 155200, Note_on_c, 0, 69, 42
1, 155240, Note_on_c, 0, 69, 0
1, 155241, Note_on_c, 0, 67, 39
1, 155280, Tempo, 539617
1, 155280, Note_on_c, 0, 69, 59
1, 155281, Note_on_c, 0, 67, 0
1, 155290, Control_c, 0, 64, 0
1, 155400, Tempo, 598265
1, 155400, Note_on_c, 0, 69, 0
1, 155400, Note_on_c, 0, 70, 49
1, 155510, Note_on_c, 0, 70, 0
1, 155520, Tempo, 513743
1, 155520, Note_on_c, 0, 43, 0
1, 155520, Note_on_c, 0, 62, 50
1, 155520, Note_on_c, 0, 45, 43
1, 156000, Note_on_c, 0, 45, 0
1, 156000, Note_on_c, 0, 62, 0
1, 156000, Note_on_c, 0, 61, 45
1, 156000, Note_on_c, 0, 33, 36
1, 156240, Note_on_c, 0, 33, 0
1, 156240, Note_on_c, 0, 61, 0
1, 156480, Tempo, 471365
1, 156480, Note_on_c, 0, 70, 58
1, 156600, Note_on_c, 0, 70, 0
1, 156600, Note_on_c, 0, 69, 58
1, 156720, Note_on_c, 0, 69, 0
1, 156720, Note_on_c, 0, 67, 61
1, 156840, Tempo, 518179
1, 156840, Note_on_c, 0, 67, 0
1, 156840, Note_on_c, 0, 65, 65
1, 156960, Tempo, 475473
1, 156960, Note_on_c, 0, 65, 0
1, 156960, Note_on_c, 0, 74, 81
1, 156960, Note_on_c, 0, 53, 39
1, 156960, Note_on_c, 0, 57, 39
1, 156960, Note_on_c, 0, 60, 47
1, 157079, Note_on_c, 0, 74, 0
1, 157080, Note_on_c, 0, 72, 63
1, 157200, Note_on_c, 0, 72, 0
1, 157200, Note_on_c, 0, 70, 63
1, 157320, Note_on_c, 0, 70, 0
1, 157320, Note_on_c, 0, 69, 63
1, 157440, Tempo, 468055
1, 157440, Note_on_c, 0, 69, 0
1, 157440, Note_on_c, 0, 79, 78
1, 157559, Note_on_c, 0, 79, 0
1, 157560, Note_on_c, 0, 77, 64
1, 157680, Note_on_c, 0, 77, 0
1, 157680, Note_on_c, 0, 76, 64
1, 157800, Tempo, 496771
1, 157800, Note_on_c, 0, 76, 0
1, 157800, Note_on_c, 0, 77, 64
1, 157920, Tempo, 466237
1, 157920, Note_on_c, 0, 77, 0
1, 157920, Note_on_c, 0, 60, 0
1, 157920, Note_on_c, 0, 57, 0
1, 157920, Note_on_c, 0, 53, 0
1, 157920, Note_on_c, 0, 82, 79
1, 157920, Note_on_c, 0, 63, 34
1, 157920, Note_on_c, 0, 65, 40
1, 158039, Note_on_c, 0, 82, 0
1, 158040, Note_on_c, 0, 81, 66
1, 158160, Note_on_c, 0, 81, 0
1, 158160, Note_on_c, 0, 79, 67
1, 158280, Tempo, 506543
1, 158280, Note_on_c, 0, 79, 0
1, 158280, Note_on_c, 0, 77, 67
1, 158390, Note_on_c, 0, 77, 0
1, 158400, Tempo, 471365
1, 158400, Note_on_c, 0, 65, 0
1, 158400, Note_on_c, 0, 63, 0
1, 158400, Note_on_c, 0, 84, 86
1, 158400, Note_on_c, 0, 65, 53
1, 158400, Note_on_c, 0, 62, 45
1, 158519, Note_on_c, 0, 84, 0
1, 158520, Note_on_c, 0, 82, 70
1, 158640, Note_on_c, 0, 82, 0
1, 158640, Note_on_c, 0, 81, 70
1, 158760, Tempo, 499168
1, 158760, Note_on_c, 0, 81, 0
1, 158760, Note_on_c, 0, 82, 70
1, 158880, Tempo, 475097
1, 158880, Note_on_c, 0, 82, 0
1, 158880, Note_on_c, 0, 62, 0
1, 158880, Note_on_c, 0, 86, 86
1, 158880, Note_on_c, 0, 58, 47
1, 158999, Note_on_c, 0, 86, 0
1, 159000, Note_on_c, 0, 82, 69
1, 159120, Note_on_c, 0, 82, 0
1, 159120, Note_on_c, 0, 81, 69
1, 159240, Note_on_c, 0, 81, 0
1, 159240, Note_on_c, 0, 79, 69
1, 159360, Tempo, 478889
1, 159360, Note_on_c, 0, 79, 0
1, 159360, Note_on_c, 0, 58, 0
1, 159360, Note_on_c, 0, 65, 0
1, 159360, Note_on_c, 0, 88, 85
1, 159360, Note_on_c, 0, 55, 49
1, 159360, Note_on_c, 0, 58, 58
1, 159479, Note_on_c, 0, 88, 0
1, 159480, Note_on_c, 0, 82, 68
1, 159600, Note_on_c, 0, 82, 0
1, 159600, Note_on_c, 0, 81, 68
1, 159720, Tempo, 506543
1, 159720, Note_on_c, 0, 81, 0
1, 159720, Note_on_c, 0, 79, 68
1, 159840, Tempo, 484692
1, 159840, Note_on_c, 0, 79, 0
1, 159840, Note_on_c, 0, 58, 0
1, 159840, Note_on_c, 0, 55, 0
1, 159840, Note_on_c, 0, 89, 80
1, 159840, Note_on_c, 0, 60, 68
1, 159840, Note_on_c, 0, 57, 57
1, 159840, Control_c, 0, 64, 0
1, 159951, Control_c, 0, 64, 127
1, 159959, Note_on_c, 0, 89, 0
1, 159960, Note_on_c, 0, 84, 61
1, 160080, Note_on_c, 0, 84, 0
1, 160080, Note_on_c, 0, 81, 61
1, 160200, Tempo, 511553
1, 160200, Note_on_c, 0, 81, 0
1, 160200, Note_on_c, 0, 77, 61
1, 160320, Tempo, 490637
1, 160320, Note_on_c, 0, 77, 0
1, 160320, Note_on_c, 0, 57, 0
1, 160320, Note_on_c, 0, 60, 0
1, 160320, Note_on_c, 0, 79, 45
1, 160320, Note_on_c, 0, 60, 42
1, 160322, Tempo, 529614
1, 160341, Tempo, 527287
1, 160347, Control_c, 0, 64, 0
1, 160361, Tempo, 524980
1, 160380, Tempo, 522694
1, 160380, Note_on_c, 0, 79, 0
1, 160380, Note_on_c, 0, 81, 39
1, 160399, Tempo, 520427
1, 160415, Control_c, 0, 64, 127
1, 160418, Tempo, 518179
1, 160437, Tempo, 513743
1, 160440, Note_on_c, 0, 81, 0
1, 160440, Note_on_c, 0, 79, 46
1, 160457, Tempo, 511553
1, 160476, Tempo, 509381
1, 160495, Tempo, 507228
1, 160500, Note_on_c, 0, 79, 0
1, 160500, Note_on_c, 0, 81, 40
1, 160514, Tempo, 505093
1, 160533, Tempo, 500877
1, 160553, Tempo, 505093
1, 160560, Note_on_c, 0, 81, 0
1, 160560, Note_on_c, 0, 79, 48
1, 160572, Tempo, 502976
1, 160591, Tempo, 500877
1, 160610, Tempo, 498795
1, 160620, Note_on_c, 0, 79, 0
1, 160620, Note_on_c, 0, 81, 45
1, 160629, Tempo, 496730
1, 160649, Tempo, 494682
1, 160668, Tempo, 492651
1, 160680, Note_on_c, 0, 81, 0
1, 160680, Note_on_c, 0, 79, 51
1, 160687, Tempo, 488639
1, 160725, Tempo, 486657
1, 160740, Note_on_c, 0, 79, 0
1, 160740, Note_on_c, 0, 81, 46
1, 160745, Tempo, 484692
1, 160764, Tempo, 482742
1, 160800, Note_on_c, 0, 81, 0
1, 160800, Note_on_c, 0, 60, 0
1, 160800, Note_on_c, 0, 79, 51
1, 160800, Note_on_c, 0, 48, 38
1, 160802, Tempo, 480808
1, 160821, Tempo, 478889
1, 160841, Tempo, 476985
1, 160860, Note_on_c, 0, 79, 0
1, 160860, Note_on_c, 0, 81, 47
1, 160879, Tempo, 478889
1, 160898, Tempo, 480808
1, 160917, Tempo, 482742
1, 160920, Note_on_c, 0, 81, 0
1, 160920, Note_on_c, 0, 79, 47
1, 160956, Tempo, 484692
1, 160975, Tempo, 486657
1, 160980, Note_on_c, 0, 79, 0
1, 160980, Note_on_c, 0, 81, 45
1, 160994, Tempo, 488639
1, 161013, Tempo, 490637
1, 161040, Note_on_c, 0, 81, 0
1, 161040, Note_on_c, 0, 79, 47
1, 161100, Note_on_c, 0, 79, 0
1, 161100, Note_on_c, 0, 81, 43
1, 161129, Tempo, 492651
1, 161146, Tempo, 498795
1, 161160, Note_on_c, 0, 81, 0
1, 161160, Note_on_c, 0, 79, 43
1, 161166, Tempo, 509381
1, 161200, Note_on_c, 0, 79, 0
1, 161200, Note_on_c, 0, 77, 43
1, 161240, Note_on_c, 0, 77, 0
1, 161241, Note_on_c, 0, 79, 43
1, 161280, Tempo, 518179
1, 161280, Note_on_c, 0, 48, 0
1, 161280, Note_on_c, 0, 77, 66
1, 161280, Note_on_c, 0, 53, 47
1, 161281, Note_on_c, 0, 79, 0
1, 161287, Control_c, 0, 64, 0
1, 161760, Tempo, 527287
1, 161760, Note_on_c, 0, 53, 0
1, 161760, Note_on_c, 0, 41, 31
1, 162120, Note_on_c, 0, 41, 0
1, 162120, Note_on_c, 0, 77, 0
1, 162240, Tempo, 473223
1, 162240, Marker_t, "Teil 8"
1, 162240, Note_on_c, 0, 82, 49
1, 162360, Note_on_c, 0, 82, 0
1, 162360, Note_on_c, 0, 81, 49
1, 162480, Note_on_c, 0, 81, 0
1, 162480, Note_on_c, 0, 79, 51
1, 162600, Tempo, 518179
1, 162600, Note_on_c, 0, 79, 0
1, 162600, Note_on_c, 0, 77, 55
1, 162720, Tempo, 478889
1, 162720, Note_on_c, 0, 77, 0
1, 162720, Note_on_c, 0, 84, 64
1, 163200, Tempo, 478889
1, 163200, Note_on_c, 0, 69, 29
1, 163200, Note_on_c, 0, 72, 35
1, 163320, Note_on_c, 0, 84, 0
1, 163320, Note_on_c, 0, 75, 46
1, 163440, Note_on_c, 0, 75, 0
1, 163440, Note_on_c, 0, 74, 49
1, 163560, Tempo, 496771
1, 163560, Note_on_c, 0, 74, 0
1, 163560, Note_on_c, 0, 75, 46
1, 163680, Tempo, 476985
1, 163680, Note_on_c, 0, 75, 0
1, 163680, Note_on_c, 0, 72, 0
1, 163680, Note_on_c, 0, 69, 0
1, 163680, Note_on_c, 0, 77, 55
1, 163680, Note_on_c, 0, 67, 25
1, 163680, Note_on_c, 0, 70, 30
1, 163800, Note_on_c, 0, 77, 0
1, 163800, Note_on_c, 0, 75, 47
1, 163920, Note_on_c, 0, 75, 0
1, 163920, Note_on_c, 0, 74, 49
1, 164040, Tempo, 506543
1, 164040, Note_on_c, 0, 74, 0
1, 164040, Note_on_c, 0, 75, 44
1, 164150, Note_on_c, 0, 75, 0
1, 164160, Tempo, 471365
1, 164160, Note_on_c, 0, 70, 0
1, 164160, Note_on_c, 0, 67, 0
1, 164160, Note_on_c, 0, 74, 53
1, 164160, Note_on_c, 0, 69, 36
1, 164160, Note_on_c, 0, 66, 30
1, 164279, Note_on_c, 0, 74, 0
1, 164280, Note_on_c, 0, 81, 45
1, 164400, Note_on_c, 0, 81, 0
1, 164400, Note_on_c, 0, 82, 49
1, 164520, Tempo, 499168
1, 164520, Note_on_c, 0, 82, 0
1, 164520, Note_on_c, 0, 81, 45
1, 164640, Tempo, 475097
1, 164640, Note_on_c, 0, 81, 0
1, 164640, Note_on_c, 0, 86, 60
1, 164759, Note_on_c, 0, 86, 0
1, 164760, Note_on_c, 0, 84, 47
1, 164880, Note_on_c, 0, 84, 0
1, 164880, Note_on_c, 0, 82, 51
1, 165000, Note_on_c, 0, 82, 0
1, 165000, Note_on_c, 0, 81, 47
1, 165120, Tempo, 478889
1, 165120, Note_on_c, 0, 81, 0
1, 165120, Note_on_c, 0, 66, 0
1, 165120, Note_on_c, 0, 69, 0
1, 165120, Note_on_c, 0, 82, 58
1, 165120, Note_on_c, 0, 67, 28
1, 165120, Note_on_c, 0, 74, 34
1, 165239, Note_on_c, 0, 82, 0
1, 165240, Note_on_c, 0, 79, 50
1, 165360, Note_on_c, 0, 79, 0
1, 165360, Note_on_c, 0, 81, 53
1, 165480, Tempo, 506543
1, 165480, Note_on_c, 0, 81, 0
1, 165480, Note_on_c, 0, 82, 50
1, 165600, Tempo, 484692
1, 165600, Note_on_c, 0, 82, 0
1, 165600, Note_on_c, 0, 74, 0
1, 165600, Note_on_c, 0, 67, 0
1, 165600, Note_on_c, 0, 84, 60
1, 165600, Note_on_c, 0, 64, 33
1, 165600, Note_on_c, 0, 72, 39
1, 165719, Note_on_c, 0, 84, 0
1, 165720, Note_on_c, 0, 82, 51
1, 165840, Note_on_c, 0, 82, 0
1, 165840, Note_on_c, 0, 81, 51
1, 165960, Tempo, 498795
1, 165960, Note_on_c, 0, 81, 0
1, 165960, Note_on_c, 0, 79, 50
1, 166080, Tempo, 490637
1, 166080, Note_on_c, 0, 79, 0
1, 166080, Note_on_c, 0, 64, 0
1, 166080, Note_on_c, 0, 81, 56
1, 166080, Note_on_c, 0, 65, 40
1, 166199, Note_on_c, 0, 81, 0
1, 166200, Note_on_c, 0, 77, 49
1, 166320, Note_on_c, 0, 77, 0
1, 166320, Note_on_c, 0, 76, 49
1, 166440, Tempo, 524980
1, 166440, Note_on_c, 0, 76, 0
1, 166440, Note_on_c, 0, 74, 49
1, 166560, Tempo, 496730
1, 166560, Note_on_c, 0, 74, 0
1, 166560, Note_on_c, 0, 65, 0
1, 166560, Note_on_c, 0, 72, 0
1, 166560, Note_on_c, 0, 82, 55
1, 166560, Note_on_c, 0, 67, 34
1, 166560, Note_on_c, 0, 55, 28
1, 166680, Note_on_c, 0, 82, 0
1, 166680, Note_on_c, 0, 79, 48
1, 166800, Tempo, 482742
1, 166800, Note_on_c, 0, 79, 0
1, 166800, Note_on_c, 0, 77, 48
1, 166920, Tempo, 541565
1, 166920, Note_on_c, 0, 77, 0
1, 166920, Note_on_c, 0, 76, 41
1, 167030, Note_on_c, 0, 76, 0
1, 167040, Tempo, 513743
1, 167040, Note_on_c, 0, 55, 0
1, 167040, Note_on_c, 0, 67, 0
1, 167040, Note_on_c, 0, 74, 42
1, 167040, Note_on_c, 0, 57, 25
1, 167040, Note_on_c, 0, 64, 36
1, 167520, Note_on_c, 0, 74, 0
1, 167520, Note_on_c, 0, 73, 38
1, 167760, Note_on_c, 0, 73, 0
1, 167760, Note_on_c, 0, 64, 0
1, 167760, Note_on_c, 0, 57, 0
1, 168000, Tempo, 471365
1, 168000, Note_on_c, 0, 69, 47
1, 168120, Note_on_c, 0, 69, 0
1, 168120, Note_on_c, 0, 67, 49
1, 168240, Note_on_c, 0, 67, 0
1, 168240, Note_on_c, 0, 65, 50
1, 168360, Tempo, 518179
1, 168360, Note_on_c, 0, 65, 0
1, 168360, Note_on_c, 0, 64, 52
1, 168480, Tempo, 478889
1, 168480, Note_on_c, 0, 64, 0
1, 168480, Note_on_c, 0, 79, 64
1, 168960, Tempo, 478889
1, 168960, Note_on_c, 0, 58, 35
1, 168960, Note_on_c, 0, 61, 42
1, 169080, Note_on_c, 0, 79, 0
1, 169080, Note_on_c, 0, 81, 64
1, 169200, Note_on_c, 0, 81, 0
1, 169200, Note_on_c, 0, 79, 64
1, 169320, Tempo, 496771
1, 169320, Note_on_c, 0, 79, 0
1, 169320, Note_on_c, 0, 76, 64
1, 169440, Tempo, 475097
1, 169440, Note_on_c, 0, 76, 0
1, 169440, Note_on_c, 0, 61, 0
1, 169440, Note_on_c, 0, 58, 0
1, 169440, Note_on_c, 0, 85, 74
1, 169440, Note_on_c, 0, 55, 30
1, 169440, Note_on_c, 0, 58, 36
1, 169560, Note_on_c, 0, 85, 0
1, 169560, Note_on_c, 0, 86, 64
1, 169680, Note_on_c, 0, 86, 0
1, 169680, Note_on_c, 0, 85, 69
1, 169800, Tempo, 506543
1, 169800, Note_on_c, 0, 85, 0
1, 169800, Note_on_c, 0, 82, 68
1, 169910, Note_on_c, 0, 82, 0
1, 169920, Tempo, 471365
1, 169920, Note_on_c, 0, 58, 0
1, 169920, Note_on_c, 0, 55, 0
1, 169920, Note_on_c, 0, 86, 86
1, 169920, Note_on_c, 0, 53, 45
1, 169920, Note_on_c, 0, 62, 53
1, 169920, Note_on_c, 0, 57, 45
1, 170040, Note_on_c, 0, 86, 0
1, 170040, Note_on_c, 0, 88, 70
1, 170160, Note_on_c, 0, 88, 0
1, 170160, Note_on_c, 0, 86, 76
1, 170280, Tempo, 499168
1, 170280, Note_on_c, 0, 86, 0
1, 170280, Note_on_c, 0, 81, 70
1, 170400, Tempo, 475097
1, 170400, Note_on_c, 0, 81, 0
1, 170400, Note_on_c, 0, 57, 0
1, 170400, Note_on_c, 0, 62, 0
1, 170400, Note_on_c, 0, 53, 0
1, 170400, Note_on_c, 0, 88, 82
1, 170400, Note_on_c, 0, 52, 43
1, 170400, Note_on_c, 0, 55, 43
1, 170400, Note_on_c, 0, 61, 43
1, 170520, Note_on_c, 0, 88, 0
1, 170520, Note_on_c, 0, 89, 68
1, 170640, Note_on_c, 0, 89, 0
1, 170640, Note_on_c, 0, 88, 77
1, 170760, Note_on_c, 0, 88, 0
1, 170760, Note_on_c, 0, 81, 68
1, 170880, Tempo, 484692
1, 170880, Note_on_c, 0, 81, 0
1, 170880, Note_on_c, 0, 61, 0
1, 170880, Note_on_c, 0, 55, 0
1, 170880, Note_on_c, 0, 52, 0
1, 170880, Note_on_c, 0, 89, 81
1, 170880, Note_on_c, 0, 50, 45
1, 170880, Note_on_c, 0, 62, 54
1, 170880, Note_on_c, 0, 53, 45
1, 171000, Note_on_c, 0, 89, 0
1, 171000, Note_on_c, 0, 86, 68
1, 171120, Note_on_c, 0, 86, 0
1, 171120, Note_on_c, 0, 85, 74
1, 171240, Tempo, 531962
1, 171240, Note_on_c, 0, 85, 0
1, 171240, Note_on_c, 0, 86, 68
1, 171360, Tempo, 484692
1, 171360, Note_on_c, 0, 86, 0
1, 171360, Note_on_c, 0, 53, 0
1, 171360, Note_on_c, 0, 62, 0
1, 171360, Note_on_c, 0, 50, 0
1, 171360, Note_on_c, 0, 84, 80
1, 171360, Note_on_c, 0, 55, 61
1, 171480, Note_on_c, 0, 84, 0
1, 171480, Note_on_c, 0, 82, 61
1, 171600, Note_on_c, 0, 82, 0
1, 171600, Note_on_c, 0, 81, 68
1, 171720, Tempo, 511553
1, 171720, Note_on_c, 0, 81, 0
1, 171720, Note_on_c, 0, 79, 61
1, 171840, Tempo, 490637
1, 171840, Note_on_c, 0, 79, 0
1, 171840, Note_on_c, 0, 55, 0
1, 171840, Note_on_c, 0, 77, 66
1, 171840, Note_on_c, 0, 57, 42
1, 172200, Tempo, 524980
1, 172302, Tempo, 511553
1, 172320, Note_on_c, 0, 57, 0
1, 172320, Note_on_c, 0, 77, 0
1, 172320, Note_on_c, 0, 76, 47
1, 172320, Note_on_c, 0, 45, 38
1, 172340, Tempo, 509381
1, 172378, Tempo, 507228
1, 172380, Note_on_c, 0, 76, 0
1, 172380, Note_on_c, 0, 77, 44
1, 172393, Control_c, 0, 64, 127
1, 172398, Tempo, 505093
1, 172436, Tempo, 502976
1, 172440, Note_on_c, 0, 77, 0
1, 172440, Note_on_c, 0, 76, 47
1, 172455, Tempo, 500877
1, 172494, Tempo, 498795
1, 172500, Note_on_c, 0, 76, 0
1, 172500, Note_on_c, 0, 77, 45
1, 172513, Tempo, 496730
1, 172551, Tempo, 494682
1, 172560, Note_on_c, 0, 77, 0
1, 172560, Note_on_c, 0, 76, 47
1, 172570, Tempo, 492651
1, 172609, Tempo, 490637
1, 172620, Note_on_c, 0, 76, 0
1, 172620, Note_on_c, 0, 77, 43
1, 172628, Tempo, 488639
1, 172647, Tempo, 488639
1, 172666, Tempo, 498795
1, 172680, Note_on_c, 0, 77, 0
1, 172680, Note_on_c, 0, 76, 43
1, 172686, Tempo, 509381
1, 172720, Note_on_c, 0, 76, 0
1, 172720, Note_on_c, 0, 74, 43
1, 172760, Note_on_c, 0, 74, 0
1, 172761, Note_on_c, 0, 76, 43
1, 172800, Tempo, 518179
1, 172800, Note_on_c, 0, 45, 0
1, 172800, Note_on_c, 0, 74, 66
1, 172800, Note_on_c, 0, 50, 47
1, 172801, Note_on_c, 0, 76, 0
1, 172807, Control_c, 0, 64, 0
1, 173280, Tempo, 527287
1, 173280, Note_on_c, 0, 50, 0
1, 173280, Note_on_c, 0, 38, 31
1, 173640, Note_on_c, 0, 38, 0
1, 173640, Note_on_c, 0, 74, 0
1, 173760, Tempo, 473223
1, 173760, Marker_t, "Teil 8 Wiederholung"
1, 173760, Note_on_c, 0, 82, 49
1, 173880, Note_on_c, 0, 82, 0
1, 173880, Note_on_c, 0, 81, 49
1, 174000, Note_on_c, 0, 81, 0
1, 174000, Note_on_c, 0, 79, 51
1, 174120, Tempo, 518179
1, 174120, Note_on_c, 0, 79, 0
1, 174120, Note_on_c, 0, 77, 55
1, 174240, Tempo, 478889
1, 174240, Note_on_c, 0, 77, 0
1, 174240, Note_on_c, 0, 84, 64
1, 174720, Tempo, 478889
1, 174720, Note_on_c, 0, 69, 29
1, 174720, Note_on_c, 0, 72, 35
1, 174840, Note_on_c, 0, 84, 0
1, 174840, Note_on_c, 0, 75, 46
1, 174960, Note_on_c, 0, 75, 0
1, 174960, Note_on_c, 0, 74, 49
1, 175080, Tempo, 496771
1, 175080, Note_on_c, 0, 74, 0
1, 175080, Note_on_c, 0, 75, 46
1, 175200, Tempo, 469888
1, 175200, Note_on_c, 0, 75, 0
1, 175200, Note_on_c, 0, 72, 0
1, 175200, Note_on_c, 0, 69, 0
1, 175200, Note_on_c, 0, 77, 55
1, 175200, Note_on_c, 0, 67, 25
1, 175200, Note_on_c, 0, 70, 30
1, 175320, Note_on_c, 0, 77, 0
1, 175320, Note_on_c, 0, 75, 47
1, 175440, Note_on_c, 0, 75, 0
1, 175440, Note_on_c, 0, 74, 49
1, 175560, Tempo, 506543
1, 175560, Note_on_c, 0, 74, 0
1, 175560, Note_on_c, 0, 75, 44
1, 175670, Note_on_c, 0, 75, 0
1, 175680, Tempo, 466237
1, 175680, Note_on_c, 0, 70, 0
1, 175680, Note_on_c, 0, 67, 0
1, 175680, Note_on_c, 0, 74, 53
1, 175680, Note_on_c, 0, 69, 36
1, 175680, Note_on_c, 0, 66, 30
1, 175799, Note_on_c, 0, 74, 0
1, 175800, Note_on_c, 0, 81, 45
1, 175920, Note_on_c, 0, 81, 0
1, 175920, Note_on_c, 0, 82, 49
1, 176040, Tempo, 499168
1, 176040, Note_on_c, 0, 82, 0
1, 176040, Note_on_c, 0, 81, 45
1, 176160, Tempo, 471735
1, 176160, Note_on_c, 0, 81, 0
1, 176160, Note_on_c, 0, 86, 60
1, 176279, Note_on_c, 0, 86, 0
1, 176280, Note_on_c, 0, 84, 47
1, 176400, Note_on_c, 0, 84, 0
1, 176400, Note_on_c, 0, 82, 51
1, 176520, Note_on_c, 0, 82, 0
1, 176520, Note_on_c, 0, 81, 47
1, 176640, Tempo, 478889
1, 176640, Note_on_c, 0, 81, 0
1, 176640, Note_on_c, 0, 66, 0
1, 176640, Note_on_c, 0, 69, 0
1, 176640, Note_on_c, 0, 82, 58
1, 176640, Note_on_c, 0, 67, 28
1, 176640, Note_on_c, 0, 74, 34
1, 176759, Note_on_c, 0, 82, 0
1, 176760, Note_on_c, 0, 79, 50
1, 176880, Note_on_c, 0, 79, 0
1, 176880, Note_on_c, 0, 81, 53
1, 177000, Tempo, 506543
1, 177000, Note_on_c, 0, 81, 0
1, 177000, Note_on_c, 0, 82, 50
1, 177120, Tempo, 484692
1, 177120, Note_on_c, 0, 82, 0
1, 177120, Note_on_c, 0, 74, 0
1, 177120, Note_on_c, 0, 67, 0
1, 177120, Note_on_c, 0, 84, 60
1, 177120, Note_on_c, 0, 64, 33
1, 177120, Note_on_c, 0, 72, 39
1, 177239, Note_on_c, 0, 84, 0
1, 177240, Note_on_c, 0, 82, 51
1, 177360, Note_on_c, 0, 82, 0
1, 177360, Note_on_c, 0, 81, 51
1, 177480, Tempo, 498795
1, 177480, Note_on_c, 0, 81, 0
1, 177480, Note_on_c, 0, 79, 50
1, 177600, Tempo, 490637
1, 177600, Note_on_c, 0, 79, 0
1, 177600, Note_on_c, 0, 64, 0
1, 177600, Note_on_c, 0, 81, 56
1, 177600, Note_on_c, 0, 65, 40
1, 177719, Note_on_c, 0, 81, 0
1, 177720, Note_on_c, 0, 77, 49
1, 177840, Note_on_c, 0, 77, 0
1, 177840, Note_on_c, 0, 76, 49
1, 177960, Tempo, 524980
1, 177960, Note_on_c, 0, 76, 0
1, 177960, Note_on_c, 0, 74, 49
1, 178080, Tempo, 496730
1, 178080, Note_on_c, 0, 74, 0
1, 178080, Note_on_c, 0, 65, 0
1, 178080, Note_on_c, 0, 72, 0
1, 178080, Note_on_c, 0, 82, 55
1, 178080, Note_on_c, 0, 67, 34
1, 178080, Note_on_c, 0, 55, 28
1, 178200, Note_on_c, 0, 82, 0
1, 178200, Note_on_c, 0, 79, 48
1, 178320, Tempo, 482742
1, 178320, Note_on_c, 0, 79, 0
1, 178320, Note_on_c, 0, 77, 48
1, 178440, Tempo, 541565
1, 178440, Note_on_c, 0, 77, 0
1, 178440, Note_on_c, 0, 76, 41
1, 178550, Note_on_c, 0, 76, 0
1, 178560, Tempo, 513743
1, 178560, Note_on_c, 0, 55, 0
1, 178560, Note_on_c, 0, 67, 0
1, 178560, Note_on_c, 0, 74, 42
1, 178560, Note_on_c, 0, 57, 25
1, 178560, Note_on_c, 0, 64, 36
1, 179040, Note_on_c, 0, 74, 0
1, 179040, Note_on_c, 0, 73, 38
1, 179280, Note_on_c, 0, 73, 0
1, 179280, Note_on_c, 0, 64, 0
1, 179280, Note_on_c, 0, 57, 0
1, 179520, Tempo, 471365
1, 179520, Note_on_c, 0, 69, 47
1, 179640, Note_on_c, 0, 69, 0
1, 179640, Note_on_c, 0, 67, 49
1, 179760, Note_on_c, 0, 67, 0
1, 179760, Note_on_c, 0, 65, 50
1, 179880, Tempo, 518179
1, 179880, Note_on_c, 0, 65, 0
1, 179880, Note_on_c, 0, 64, 52
1, 180000, Tempo, 478889
1, 180000, Note_on_c, 0, 64, 0
1, 180000, Note_on_c, 0, 79, 64
1, 180480, Tempo, 473597
1, 180480, Note_on_c, 0, 58, 35
1, 180480, Note_on_c, 0, 61, 42
1, 180600, Note_on_c, 0, 79, 0
1, 180600, Note_on_c, 0, 81, 64
1, 180720, Note_on_c, 0, 81, 0
1, 180720, Note_on_c, 0, 79, 64
1, 180840, Tempo, 496771
1, 180840, Note_on_c, 0, 79, 0
1, 180840, Note_on_c, 0, 76, 64
1, 180960, Tempo, 469888
1, 180960, Note_on_c, 0, 76, 0
1, 180960, Note_on_c, 0, 61, 0
1, 180960, Note_on_c, 0, 58, 0
1, 180960, Note_on_c, 0, 85, 74
1, 180960, Note_on_c, 0, 55, 30
1, 180960, Note_on_c, 0, 58, 36
1, 181080, Note_on_c, 0, 85, 0
1, 181080, Note_on_c, 0, 86, 64
1, 181200, Note_on_c, 0, 86, 0
1, 181200, Note_on_c, 0, 85, 69
1, 181320, Tempo, 506543
1, 181320, Note_on_c, 0, 85, 0
1, 181320, Note_on_c, 0, 82, 68
1, 181430, Note_on_c, 0, 82, 0
1, 181440, Tempo, 464432
1, 181440, Note_on_c, 0, 58, 0
1, 181440, Note_on_c, 0, 55, 0
1, 181440, Note_on_c, 0, 86, 86
1, 181440, Note_on_c, 0, 53, 45
1, 181440, Note_on_c, 0, 62, 53
1, 181440, Note_on_c, 0, 57, 45
1, 181560, Note_on_c, 0, 86, 0
1, 181560, Note_on_c, 0, 88, 70
1, 181680, Note_on_c, 0, 88, 0
1, 181680, Note_on_c, 0, 86, 76
1, 181800, Tempo, 499168
1, 181800, Note_on_c, 0, 86, 0
1, 181800, Note_on_c, 0, 81, 70
1, 181920, Tempo, 469888
1, 181920, Note_on_c, 0, 81, 0
1, 181920, Note_on_c, 0, 57, 0
1, 181920, Note_on_c, 0, 62, 0
1, 181920, Note_on_c, 0, 53, 0
1, 181920, Note_on_c, 0, 88, 82
1, 181920, Note_on_c, 0, 52, 43
1, 181920, Note_on_c, 0, 55, 43
1, 181920, Note_on_c, 0, 61, 43
1, 182040, Note_on_c, 0, 88, 0
1, 182040, Note_on_c, 0, 89, 68
1, 182160, Note_on_c, 0, 89, 0
1, 182160, Note_on_c, 0, 88, 77
1, 182280, Note_on_c, 0, 88, 0
1, 182280, Note_on_c, 0, 81, 68
1, 182400, Tempo, 484692
1, 182400, Note_on_c, 0, 81, 0
1, 182400, Note_on_c, 0, 61, 0
1, 182400, Note_on_c, 0, 55, 0
1, 182400, Note_on_c, 0, 52, 0
1, 182400, Note_on_c, 0, 89, 81
1, 182400, Note_on_c, 0, 50, 45
1, 182400, Note_on_c, 0, 62, 54
1, 182400, Note_on_c, 0, 53, 45
1, 182520, Note_on_c, 0, 89, 0
1, 182520, Note_on_c, 0, 86, 68
1, 182640, Note_on_c, 0, 86, 0
1, 182640, Note_on_c, 0, 85, 74
1, 182760, Tempo, 557155
1, 182760, Note_on_c, 0, 85, 0
1, 182760, Note_on_c, 0, 86, 68
1, 182880, Tempo, 484692
1, 182880, Note_on_c, 0, 86, 0
1, 182880, Note_on_c, 0, 53, 0
1, 182880, Note_on_c, 0, 62, 0
1, 182880, Note_on_c, 0, 50, 0
1, 182880, Note_on_c, 0, 84, 80
1, 182880, Note_on_c, 0, 55, 61
1, 183000, Note_on_c, 0, 84, 0
1, 183000, Note_on_c, 0, 82, 61
1, 183120, Note_on_c, 0, 82, 0
1, 183120, Note_on_c, 0, 81, 68
1, 183240, Tempo, 511553
1, 183240, Note_on_c, 0, 81, 0
1, 183240, Note_on_c, 0, 79, 61
1, 183360, Tempo, 490637
1, 183360, Note_on_c, 0, 79, 0
1, 183360, Note_on_c, 0, 55, 0
1, 183360, Note_on_c, 0, 77, 66
1, 183360, Note_on_c, 0, 57, 42
1, 183720, Tempo, 524980
1, 183822, Tempo, 511553
1, 183840, Note_on_c, 0, 57, 0
1, 183840, Note_on_c, 0, 77, 0
1, 183840, Note_on_c, 0, 76, 47
1, 183840, Note_on_c, 0, 45, 38
1, 183860, Tempo, 509381
1, 183898, Tempo, 507228
1, 183900, Note_on_c, 0, 76, 0
1, 183900, Note_on_c, 0, 77, 44
1, 183913, Control_c, 0, 64, 127
1, 183918, Tempo, 505093
1, 183956, Tempo, 502976
1, 183960, Note_on_c, 0, 77, 0
1, 183960, Note_on_c, 0, 76, 47
1, 183975, Tempo, 500877
1, 184014, Tempo, 498795
1, 184020, Note_on_c, 0, 76, 0
1, 184020, Note_on_c, 0, 77, 45
1, 184033, Tempo, 496730
1, 184071, Tempo, 494682
1, 184080, Note_on_c, 0, 77, 0
1, 184080, Note_on_c, 0, 76, 47
1, 184090, Tempo, 492651
1, 184129, Tempo, 490637
1, 184140, Note_on_c, 0, 76, 0
1, 184140, Note_on_c, 0, 77, 43
1, 184148, Tempo, 488639
1, 184167, Tempo, 488639
1, 184186, Tempo, 498795
1, 184200, Note_on_c, 0, 77, 0
1, 184200, Note_on_c, 0, 76, 43
1, 184206, Tempo, 509381
1, 184240, Note_on_c, 0, 76, 0
1, 184240, Note_on_c, 0, 74, 43
1, 184280, Note_on_c, 0, 74, 0
1, 184281, Note_on_c, 0, 76, 43
1, 184320, Tempo, 518179
1, 184320, Note_on_c, 0, 45, 0
1, 184320, Note_on_c, 0, 74, 66
1, 184320, Note_on_c, 0, 50, 47
1, 184321, Note_on_c, 0, 76, 0
1, 184327, Control_c, 0, 64, 0
1, 184800, Tempo, 527287
1, 184800, Note_on_c, 0, 50, 0
1, 184800, Note_on_c, 0, 38, 31
1, 185160, Note_on_c, 0, 38, 0
1, 185160, Note_on_c, 0, 74, 0
1, 185280, Tempo, 509035
1, 185280, Marker_t, "Teil 9"
1, 185280, Note_on_c, 0, 69, 50
1, 185640, Note_on_c, 0, 69, 0
1, 185640, Note_on_c, 0, 66, 45
1, 185760, Key_signature, 2, "major"
1, 185760, Tempo, 492045
1, 185760, Note_on_c, 0, 66, 0
1, 185760, Note_on_c, 0, 74, 50
1, 185760, Note_on_c, 0, 62, 46
1, 185850, Note_on_c, 0, 62, 0
1, 185850, Note_on_c, 0, 74, 0
1, 186240, Note_on_c, 0, 74, 47
1, 186240, Note_on_c, 0, 66, 41
1, 186330, Note_on_c, 0, 66, 0
1, 186330, Note_on_c, 0, 74, 0
1, 186720, Note_on_c, 0, 74, 47
1, 186720, Note_on_c, 0, 62, 41
1, 186960, Note_on_c, 0, 62, 0
1, 186960, Note_on_c, 0, 74, 0
1, 186960, Note_on_c, 0, 73, 47
1, 187020, Note_on_c, 0, 73, 0
1, 187020, Note_on_c, 0, 74, 47
1, 187080, Note_on_c, 0, 74, 0
1, 187080, Note_on_c, 0, 76, 47
1, 187140, Note_on_c, 0, 76, 0
1, 187140, Note_on_c, 0, 74, 47
1, 187200, Tempo, 487369
1, 187200, Note_on_c, 0, 74, 0
1, 187200, Note_on_c, 0, 73, 51
1, 187200, Note_on_c, 0, 69, 47
1, 187440, Tempo, 469631
1, 187560, Note_on_c, 0, 73, 0
1, 187560, Note_on_c, 0, 76, 52
1, 187680, Tempo, 473223
1, 187680, Note_on_c, 0, 76, 0
1, 187680, Note_on_c, 0, 69, 0
1, 187680, Note_on_c, 0, 79, 56
1, 187680, Note_on_c, 0, 57, 38
1, 188160, Tempo, 486657
1, 188160, Note_on_c, 0, 57, 0
1, 188160, Note_on_c, 0, 61, 38
1, 188520, Note_on_c, 0, 79, 0
1, 188520, Note_on_c, 0, 76, 51
1, 188640, Tempo, 469888
1, 188640, Note_on_c, 0, 76, 0
1, 188640, Note_on_c, 0, 61, 0
1, 188640, Note_on_c, 0, 78, 58
1, 188640, Note_on_c, 0, 62, 45
1, 189000, Tempo, 518627
1, 189000, Note_on_c, 0, 78, 0
1, 189000, Note_on_c, 0, 74, 53
1, 189120, Tempo, 469888
1, 189120, Note_on_c, 0, 74, 0
1, 189120, Note_on_c, 0, 62, 0
1, 189120, Note_on_c, 0, 81, 58
1, 189120, Note_on_c, 0, 66, 47
1, 189480, Tempo, 520879
1, 189480, Note_on_c, 0, 81, 0
1, 189480, Note_on_c, 0, 78, 54
1, 189600, Tempo, 475473
1, 189600, Note_on_c, 0, 78, 0
1, 189600, Note_on_c, 0, 66, 0
1, 189600, Note_on_c, 0, 83, 59
1, 189600, Note_on_c, 0, 67, 48
1, 189960, Tempo, 559754
1, 189960, Note_on_c, 0, 83, 0
1, 189960, Note_on_c, 0, 79, 48
1, 190080, Tempo, 496771
1, 190080, Note_on_c, 0, 79, 0
1, 190080, Note_on_c, 0, 67, 0
1, 190080, Note_on_c, 0, 78, 51
1, 190080, Note_on_c, 0, 69, 39
1, 190560, Note_on_c, 0, 69, 0
1, 190560, Note_on_c, 0, 78, 0
1, 190560, Note_on_c, 0, 76, 39
1, 190560, Note_on_c, 0, 57, 30
1, 190920, Note_on_c, 0, 57, 0
1, 190920, Note_on_c, 0, 76, 0
1, 191040, Tempo, 509035
1, 191040, Note_on_c, 0, 69, 50
1, 191400, Note_on_c, 0, 69, 0
1, 191400, Note_on_c, 0, 66, 45
1, 191520, Tempo, 492045
1, 191520, Note_on_c, 0, 66, 0
1, 191520, Note_on_c, 0, 74, 50
1, 191520, Note_on_c, 0, 62, 46
1, 191610, Note_on_c, 0, 62, 0
1, 191610, Note_on_c, 0, 74, 0
1, 192000, Note_on_c, 0, 74, 47
1, 192000, Note_on_c, 0, 66, 41
1, 192090, Note_on_c, 0, 66, 0
1, 192090, Note_on_c, 0, 74, 0
1, 192480, Note_on_c, 0, 74, 47
1, 192480, Note_on_c, 0, 62, 41
1, 192720, Note_on_c, 0, 62, 0
1, 192720, Note_on_c, 0, 74, 0
1, 192720, Note_on_c, 0, 73, 47
1, 192780, Note_on_c, 0, 73, 0
1, 192780, Note_on_c, 0, 74, 47
1, 192840, Note_on_c, 0, 74, 0
1, 192840, Note_on_c, 0, 76, 47
1, 192900, Note_on_c, 0, 76, 0
1, 192900, Note_on_c, 0, 74, 47
1, 192960, Tempo, 476153
1, 192960, Note_on_c, 0, 74, 0
1, 192960, Note_on_c, 0, 73, 58
1, 192960, Note_on_c, 0, 69, 47
1, 193320, Tempo, 499168
1, 193320, Note_on_c, 0, 73, 0
1, 193320, Note_on_c, 0, 76, 53
1, 193440, Tempo, 468055
1, 193440, Note_on_c, 0, 76, 0
1, 193440, Note_on_c, 0, 69, 0
1, 193440, Note_on_c, 0, 79, 58
1, 193440, Note_on_c, 0, 61, 38
1, 193800, Tempo, 496771
1, 193800, Note_on_c, 0, 79, 0
1, 193800, Note_on_c, 0, 76, 54
1, 193920, Tempo, 475473
1, 193920, Note_on_c, 0, 76, 0
1, 193920, Note_on_c, 0, 61, 0
1, 193920, Note_on_c, 0, 78, 59
1, 193920, Note_on_c, 0, 62, 39
1, 194280, Tempo, 506543
1, 194280, Note_on_c, 0, 78, 0
1, 194280, Note_on_c, 0, 74, 48
1, 194400, Tempo, 492045
1, 194400, Note_on_c, 0, 74, 0
1, 194400, Note_on_c, 0, 62, 0
1, 194400, Note_on_c, 0, 71, 58
1, 194400, Note_on_c, 0, 55, 39
1, 194400, Note_on_c, 0, 67, 47
1, 194520, Note_on_c, 0, 71, 0
1, 194880, Tempo, 505093
1, 194880, Note_on_c, 0, 76, 56
1, 195000, Note_on_c, 0, 76, 0
1, 195360, Tempo, 527241
1, 195360, Note_on_c, 0, 67, 0
1, 195360, Note_on_c, 0, 55, 0
1, 195360, Note_on_c, 0, 73, 45
1, 195360, Note_on_c, 0, 67, 45
1, 195360, Note_on_c, 0, 64, 40
1, 195360, Note_on_c, 0, 57, 34
1, 195600, Note_on_c, 0, 73, 0
1, 195600, Note_on_c, 0, 74, 55
1, 195660, Note_on_c, 0, 74, 0
1, 195660, Note_on_c, 0, 73, 48
1, 195720, Note_on_c, 0, 73, 0
1, 195720, Note_on_c, 0, 71, 48
1, 195780, Note_on_c, 0, 71, 0
1, 195780, Note_on_c, 0, 73, 48
1, 195840, Tempo, 492651
1, 195840, Note_on_c, 0, 73, 0
1, 195840, Note_on_c, 0, 67, 0
1, 195840, Note_on_c, 0, 64, 0
1, 195840, Note_on_c, 0, 57, 0
1, 195840, Note_on_c, 0, 74, 58
1, 195840, Note_on_c, 0, 66, 49
1, 195840, Note_on_c, 0, 62, 46
1, 196320, Tempo, 524980
1, 196320, Note_on_c, 0, 62, 0
1, 196320, Note_on_c, 0, 66, 0
1, 196320, Note_on_c, 0, 74, 0
1, 196320, Note_on_c, 0, 50, 28
1, 196800, Tempo, 509035
1, 196800, Note_on_c, 0, 50, 0
1, 196800, Note_on_c, 0, 66, 50
1, 196920, Note_on_c, 0, 66, 0
1, 196920, Note_on_c, 0, 62, 45
1, 197040, Note_on_c, 0, 62, 0
1, 197040, Note_on_c, 0, 69, 45
1, 197160, Note_on_c, 0, 69, 0
1, 197160, Note_on_c, 0, 66, 45
1, 197280, Tempo, 492045
1, 197280, Note_on_c, 0, 66, 0
1, 197280, Note_on_c, 0, 74, 56
1, 197400, Note_on_c, 0, 74, 0
1, 197400, Note_on_c, 0, 69, 45
1, 197520, Note_on_c, 0, 69, 0
1, 197520, Note_on_c, 0, 71, 45
1, 197640, Note_on_c, 0, 71, 0
1, 197640, Note_on_c, 0, 73, 45
1, 197760, Note_on_c, 0, 73, 0
1, 197760, Note_on_c, 0, 74, 55
1, 197760, Note_on_c, 0, 66, 41
1, 197880, Note_on_c, 0, 74, 0
1, 197880, Note_on_c, 0, 76, 45
1, 198000, Note_on_c, 0, 76, 0
1, 198000, Note_on_c, 0, 78, 45
1, 198120, Note_on_c, 0, 78, 0
1, 198120, Note_on_c, 0, 79, 45
1, 198240, Note_on_c, 0, 79, 0
1, 198240, Note_on_c, 0, 66, 0
1, 198240, Note_on_c, 0, 81, 61
1, 198240, Note_on_c, 0, 62, 37
1, 198360, Note_on_c, 0, 81, 0
1, 198360, Note_on_c, 0, 78, 52
1, 198480, Note_on_c, 0, 78, 0
1, 198480, Note_on_c, 0, 76, 52
1, 198600, Tempo, 518179
1, 198600, Note_on_c, 0, 76, 0
1, 198600, Note_on_c, 0, 74, 50
1, 198720, Tempo, 488639
1, 198720, Note_on_c, 0, 74, 0
1, 198720, Note_on_c, 0, 62, 0
1, 198720, Note_on_c, 0, 73, 54
1, 198720, Note_on_c, 0, 64, 48
1, 198818, Tempo, 484692
1, 198840, Note_on_c, 0, 73, 0
1, 198840, Note_on_c, 0, 74, 45
1, 198960, Note_on_c, 0, 74, 0
1, 198960, Note_on_c, 0, 76, 45
1, 199080, Note_on_c, 0, 76, 0
1, 199080, Note_on_c, 0, 78, 45
1, 199200, Note_on_c, 0, 78, 0
1, 199200, Note_on_c, 0, 64, 0
1, 199200, Note_on_c, 0, 79, 51
1, 199200, Note_on_c, 0, 61, 41
1, 199320, Note_on_c, 0, 79, 0
1, 199320, Note_on_c, 0, 76, 47
1, 199440, Note_on_c, 0, 76, 0
1, 199440, Note_on_c, 0, 79, 48
1, 199560, Note_on_c, 0, 79, 0
1, 199560, Note_on_c, 0, 81, 49
1, 199680, Note_on_c, 0, 81, 0
1, 199680, Note_on_c, 0, 61, 0
1, 199680, Note_on_c, 0, 83, 55
1, 199680, Note_on_c, 0, 57, 46
1, 199800, Note_on_c, 0, 83, 0
1, 199800, Note_on_c, 0, 79, 45
1, 199920, Note_on_c, 0, 79, 0
1, 199920, Note_on_c, 0, 78, 45
1, 200040, Tempo, 509381
1, 200040, Note_on_c, 0, 78, 0
1, 200040, Note_on_c, 0, 76, 45
1, 200160, Tempo, 486657
1, 200160, Note_on_c, 0, 76, 0
1, 200160, Note_on_c, 0, 57, 0
1, 200160, Note_on_c, 0, 78, 55
1, 200160, Note_on_c, 0, 62, 45
1, 200239, Tempo, 482742
1, 200280, Note_on_c, 0, 78, 0
1, 200280, Note_on_c, 0, 74, 53
1, 200400, Note_on_c, 0, 74, 0
1, 200400, Note_on_c, 0, 76, 53
1, 200469, Tempo, 480808
1, 200520, Note_on_c, 0, 76, 0
1, 200520, Note_on_c, 0, 78, 53
1, 200640, Note_on_c, 0, 78, 0
1, 200640, Note_on_c, 0, 62, 0
1, 200640, Note_on_c, 0, 79, 64
1, 200640, Note_on_c, 0, 59, 52
1, 200700, Tempo, 478889
1, 200760, Note_on_c, 0, 79, 0
1, 200760, Note_on_c, 0, 81, 53
1, 200880, Note_on_c, 0, 81, 0
1, 200880, Note_on_c, 0, 83, 56
1, 200911, Tempo, 476985
1, 201000, Note_on_c, 0, 83, 0
1, 201000, Note_on_c, 0, 85, 58
1, 201026, Tempo, 478889
1, 201120, Note_on_c, 0, 85, 0
1, 201120, Note_on_c, 0, 59, 0
1, 201120, Note_on_c, 0, 86, 65
1, 201120, Note_on_c, 0, 55, 47
1, 201141, Tempo, 480808
1, 201240, Note_on_c, 0, 86, 0
1, 201240, Note_on_c, 0, 83, 57
1, 201257, Tempo, 482742
1, 201353, Tempo, 484692
1, 201360, Tempo, 505093
1, 201360, Note_on_c, 0, 83, 0
1, 201360, Note_on_c, 0, 81, 45
1, 201480, Tempo, 536721
1, 201480, Note_on_c, 0, 81, 0
1, 201480, Note_on_c, 0, 79, 45
1, 201600, Tempo, 513743
1, 201600, Note_on_c, 0, 79, 0
1, 201600, Note_on_c, 0, 55, 0
1, 201600, Note_on_c, 0, 74, 47
1, 201600, Note_on_c, 0, 78, 56
1, 201600, Note_on_c, 0, 57, 43
1, 202080, Note_on_c, 0, 57, 0
1, 202080, Note_on_c, 0, 78, 0
1, 202080, Note_on_c, 0, 74, 0
1, 202080, Note_on_c, 0, 73, 42
1, 202080, Note_on_c, 0, 76, 50
1, 202080, Note_on_c, 0, 45, 36
1, 202320, Note_on_c, 0, 45, 0
1, 202320, Note_on_c, 0, 76, 0
1, 202320, Note_on_c, 0, 73, 0
1, 202560, Tempo, 498795
1, 202560, Note_on_c, 0, 66, 46
1, 202680, Note_on_c, 0, 66, 0
1, 202680, Note_on_c, 0, 62, 47
1, 202800, Note_on_c, 0, 62, 0
1, 202800, Note_on_c, 0, 69, 49
1, 202920, Note_on_c, 0, 69, 0
1, 202920, Note_on_c, 0, 66, 53
1, 203040, Tempo, 492045
1, 203040, Note_on_c, 0, 66, 0
1, 203040, Note_on_c, 0, 74, 62
1, 203160, Note_on_c, 0, 74, 0
1, 203160, Note_on_c, 0, 69, 49
1, 203280, Note_on_c, 0, 69, 0
1, 203280, Note_on_c, 0, 71, 49
1, 203400, Note_on_c, 0, 71, 0
1, 203400, Note_on_c, 0, 73, 49
1, 203520, Note_on_c, 0, 73, 0
1, 203520, Note_on_c, 0, 74, 60
1, 203520, Note_on_c, 0, 66, 41
1, 203640, Note_on_c, 0, 74, 0
1, 203640, Note_on_c, 0, 76, 48
1, 203760, Note_on_c, 0, 76, 0
1, 203760, Note_on_c, 0, 78, 48
1, 203880, Note_on_c, 0, 78, 0
1, 203880, Note_on_c, 0, 79, 48
1, 204000, Note_on_c, 0, 79, 0
1, 204000, Note_on_c, 0, 66, 0
1, 204000, Note_on_c, 0, 81, 61
1, 204000, Note_on_c, 0, 62, 41
1, 204120, Note_on_c, 0, 81, 0
1, 204120, Note_on_c, 0, 78, 52
1, 204240, Note_on_c, 0, 78, 0
1, 204240, Note_on_c, 0, 76, 52
1, 204360, Tempo, 507228
1, 204360, Note_on_c, 0, 76, 0
1, 204360, Note_on_c, 0, 74, 50
1, 204480, Tempo, 488639
1, 204480, Note_on_c, 0, 74, 0
1, 204480, Note_on_c, 0, 62, 0
1, 204480, Note_on_c, 0, 73, 54
1, 204480, Note_on_c, 0, 64, 53
1, 204578, Tempo, 484692
1, 204600, Note_on_c, 0, 73, 0
1, 204600, Note_on_c, 0, 74, 45
1, 204720, Note_on_c, 0, 74, 0
1, 204720, Note_on_c, 0, 76, 45
1, 204840, Note_on_c, 0, 76, 0
1, 204840, Note_on_c, 0, 78, 45
1, 204960, Note_on_c, 0, 78, 0
1, 204960, Note_on_c, 0, 64, 0
1, 204960, Note_on_c, 0, 79, 56
1, 204960, Note_on_c, 0, 57, 41
1, 205080, Note_on_c, 0, 79, 0
1, 205080, Note_on_c, 0, 78, 47
1, 205200, Note_on_c, 0, 78, 0
1, 205200, Note_on_c, 0, 76, 48
1, 205320, Note_on_c, 0, 76, 0
1, 205320, Note_on_c, 0, 74, 49
1, 205440, Note_on_c, 0, 74, 0
1, 205440, Note_on_c, 0, 57, 0
1, 205440, Note_on_c, 0, 73, 55
1, 205440, Note_on_c, 0, 61, 37
1, 205560, Note_on_c, 0, 73, 0
1, 205560, Note_on_c, 0, 71, 45
1, 205680, Note_on_c, 0, 71, 0
1, 205680, Note_on_c, 0, 69, 45
1, 205800, Tempo, 509381
1, 205800, Note_on_c, 0, 69, 0
1, 205800, Note_on_c, 0, 67, 45
1, 205920, Tempo, 486657
1, 205920, Note_on_c, 0, 67, 0
1, 205920, Note_on_c, 0, 61, 0
1, 205920, Note_on_c, 0, 66, 55
1, 205920, Note_on_c, 0, 62, 45
1, 205999, Tempo, 482742
1, 206040, Note_on_c, 0, 66, 0
1, 206040, Note_on_c, 0, 69, 46
1, 206160, Note_on_c, 0, 69, 0
1, 206160, Note_on_c, 0, 67, 46
1, 206229, Tempo, 480808
1, 206280, Note_on_c, 0, 67, 0
1, 206280, Note_on_c, 0, 66, 46
1, 206400, Note_on_c, 0, 66, 0
1, 206400, Note_on_c, 0, 62, 0
1, 206400, Note_on_c, 0, 64, 55
1, 206400, Note_on_c, 0, 55, 39
1, 206460, Tempo, 478889
1, 206520, Note_on_c, 0, 64, 0
1, 206520, Note_on_c, 0, 71, 45
1, 206640, Note_on_c, 0, 71, 0
1, 206640, Note_on_c, 0, 69, 45
1, 206671, Tempo, 476985
1, 206760, Note_on_c, 0, 69, 0
1, 206760, Note_on_c, 0, 67, 45
1, 206786, Tempo, 478889
1, 206880, Note_on_c, 0, 67, 0
1, 206880, Note_on_c, 0, 55, 0
1, 206880, Note_on_c, 0, 66, 53
1, 206880, Note_on_c, 0, 57, 39
1, 206880, Note_on_c, 0, 45, 39
1, 206901, Tempo, 480808
1, 207000, Note_on_c, 0, 66, 0
1, 207000, Note_on_c, 0, 64, 42
1, 207017, Tempo, 482742
1, 207113, Tempo, 484692
1, 207120, Tempo, 505093
1, 207120, Note_on_c, 0, 64, 0
1, 207120, Note_on_c, 0, 62, 45
1, 207240, Tempo, 536721
1, 207240, Note_on_c, 0, 62, 0
1, 207240, Note_on_c, 0, 61, 38
1, 207360, Tempo, 513743
1, 207360, Note_on_c, 0, 61, 0
1, 207360, Note_on_c, 0, 45, 0
1, 207360, Note_on_c, 0, 57, 0
1, 207360, Note_on_c, 0, 62, 53
1, 207360, Note_on_c, 0, 50, 43
1, 207840, Note_on_c, 0, 50, 0
1, 207840, Note_on_c, 0, 62, 0
1, 207840, Note_on_c, 0, 38, 36
1, 208080, Note_on_c, 0, 38, 0
1, 208320, Tempo, 498795
1, 208320, Marker_t, "Teil 10"
1, 208320, Note_on_c, 0, 78, 53
1, 208384, Control_c, 0, 64, 127
1, 208440, Note_on_c, 0, 78, 0
1, 208440, Note_on_c, 0, 74, 55
1, 208560, Note_on_c, 0, 74, 0
1, 208560, Note_on_c, 0, 81, 61
1, 208680, Note_on_c, 0, 81, 0
1, 208680, Note_on_c, 0, 78, 63
1, 208800, Tempo, 482742
1, 208800, Note_on_c, 0, 78, 0
1, 208800, Note_on_c, 0, 86, 71
1, 208920, Note_on_c, 0, 86, 0
1, 208920, Note_on_c, 0, 81, 55
1, 209040, Note_on_c, 0, 81, 0
1, 209040, Note_on_c, 0, 78, 55
1, 209160, Note_on_c, 0, 78, 0
1, 209160, Note_on_c, 0, 74, 55
1, 209280, Tempo, 468055
1, 209280, Note_on_c, 0, 74, 0
1, 209280, Note_on_c, 0, 71, 69
1, 209294, Control_c, 0, 64, 0
1, 209400, Note_on_c, 0, 74, 56
1, 209430, Note_on_c, 0, 71, 0
1, 209520, Tempo, 470256
1, 209520, Note_on_c, 0, 74, 0
1, 209520, Note_on_c, 0, 76, 56
1, 209640, Note_on_c, 0, 76, 0
1, 209640, Note_on_c, 0, 80, 51
1, 209760, Tempo, 466237
1, 209760, Note_on_c, 0, 80, 0
1, 209760, Note_on_c, 0, 73, 68
1, 209880, Note_on_c, 0, 76, 55
1, 209910, Note_on_c, 0, 73, 0
1, 210000, Note_on_c, 0, 76, 0
1, 210000, Note_on_c, 0, 85, 53
1, 210120, Tempo, 481580
1, 210120, Note_on_c, 0, 85, 0
1, 210120, Note_on_c, 0, 88, 51
1, 210240, Tempo, 468055
1, 210240, Note_on_c, 0, 88, 0
1, 210240, Note_on_c, 0, 71, 62
1, 210360, Note_on_c, 0, 74, 53
1, 210390, Note_on_c, 0, 71, 0
1, 210480, Note_on_c, 0, 74, 0
1, 210480, Note_on_c, 0, 79, 53
1, 210600, Note_on_c, 0, 79, 0
1, 210600, Note_on_c, 0, 83, 53
1, 210720, Note_on_c, 0, 83, 0
1, 210720, Note_on_c, 0, 69, 58
1, 210840, Note_on_c, 0, 73, 47
1, 210870, Note_on_c, 0, 69, 0
1, 210960, Note_on_c, 0, 73, 0
1, 210960, Note_on_c, 0, 78, 47
1, 211080, Note_on_c, 0, 78, 0
1, 211080, Note_on_c, 0, 81, 47
1, 211200, Note_on_c, 0, 81, 0
1, 211200, Note_on_c, 0, 67, 55
1, 211320, Note_on_c, 0, 71, 48
1, 211350, Note_on_c, 0, 67, 0
1, 211440, Note_on_c, 0, 71, 0
1, 211440, Note_on_c, 0, 76, 48
1, 211560, Tempo, 485476
1, 211560, Note_on_c, 0, 76, 0
1, 211560, Note_on_c, 0, 79, 45
1, 211680, Tempo, 473223
1, 211680, Note_on_c, 0, 79, 0
1, 211680, Note_on_c, 0, 66, 61
1, 211800, Note_on_c, 0, 69, 50
1, 211830, Note_on_c, 0, 66, 0
1, 211920, Tempo, 475097
1, 211920, Note_on_c, 0, 69, 0
1, 211920, Note_on_c, 0, 74, 50
1, 212040, Note_on_c, 0, 74, 0
1, 212040, Note_on_c, 0, 78, 47
1, 212160, Tempo, 469520
1, 212160, Note_on_c, 0, 78, 0
1, 212160, Note_on_c, 0, 64, 55
1, 212280, Note_on_c, 0, 67, 50
1, 212310, Note_on_c, 0, 64, 0
1, 212400, Tempo, 478889
1, 212400, Note_on_c, 0, 67, 0
1, 212400, Note_on_c, 0, 73, 50
1, 212520, Note_on_c, 0, 73, 0
1, 212520, Note_on_c, 0, 79, 48
1, 212640, Tempo, 478889
1, 212640, Note_on_c, 0, 79, 0
1, 212640, Note_on_c, 0, 62, 54
1, 212760, Note_on_c, 0, 62, 0
1, 212760, Note_on_c, 0, 69, 46
1, 212774, Control_c, 0, 64, 127
1, 212880, Note_on_c, 0, 69, 0
1, 212880, Note_on_c, 0, 78, 46
1, 213000, Tempo, 548998
1, 213000, Note_on_c, 0, 78, 0
1, 213000, Note_on_c, 0, 86, 47
1, 213120, Tempo, 507228
1, 213120, Note_on_c, 0, 86, 0
1, 213120, Note_on_c, 0, 74, 47
1, 213120, Note_on_c, 0, 78, 56
1, 213120, Note_on_c, 0, 57, 43
1, 213134, Control_c, 0, 64, 0
1, 213600, Note_on_c, 0, 57, 0
1, 213600, Note_on_c, 0, 78, 0
1, 213600, Note_on_c, 0, 74, 0
1, 213600, Note_on_c, 0, 73, 42
1, 213600, Note_on_c, 0, 76, 50
1, 213600, Note_on_c, 0, 45, 36
1, 213840, Note_on_c, 0, 45, 0
1, 213840, Note_on_c, 0, 76, 0
1, 213840, Note_on_c, 0, 73, 0
1, 214080, Tempo, 498795
1, 214080, Note_on_c, 0, 78, 52
1, 214144, Control_c, 0, 64, 127
1, 214200, Note_on_c, 0, 78, 0
1, 214200, Note_on_c, 0, 74, 57
1, 214320, Note_on_c, 0, 74, 0
1, 214320, Note_on_c, 0, 81, 61
1, 214440, Note_on_c, 0, 81, 0
1, 214440, Note_on_c, 0, 78, 61
1, 214560, Tempo, 482742
1, 214560, Note_on_c, 0, 78, 0
1, 214560, Note_on_c, 0, 86, 73
1, 214680, Note_on_c, 0, 86, 0
1, 214680, Note_on_c, 0, 81, 57
1, 214800, Note_on_c, 0, 81, 0
1, 214800, Note_on_c, 0, 78, 57
1, 214920, Note_on_c, 0, 78, 0
1, 214920, Note_on_c, 0, 74, 57
1, 215040, Tempo, 469888
1, 215040, Note_on_c, 0, 74, 0
1, 215040, Note_on_c, 0, 71, 65
1, 215054, Control_c, 0, 64, 0
1, 215160, Note_on_c, 0, 74, 53
1, 215190, Note_on_c, 0, 71, 0
1, 215280, Tempo, 472106
1, 215280, Note_on_c, 0, 74, 0
1, 215280, Note_on_c, 0, 76, 53
1, 215400, Note_on_c, 0, 76, 0
1, 215400, Note_on_c, 0, 80, 53
1, 215520, Tempo, 468055
1, 215520, Note_on_c, 0, 80, 0
1, 215520, Note_on_c, 0, 73, 64
1, 215640, Note_on_c, 0, 76, 53
1, 215670, Note_on_c, 0, 73, 0
1, 215760, Tempo, 471735
1, 215760, Note_on_c, 0, 76, 0
1, 215760, Note_on_c, 0, 85, 53
1, 215880, Tempo, 479655
1, 215880, Note_on_c, 0, 85, 0
1, 215880, Note_on_c, 0, 88, 53
1, 216000, Tempo, 468055
1, 216000, Note_on_c, 0, 88, 0
1, 216000, Note_on_c, 0, 71, 61
1, 216120, Note_on_c, 0, 74, 49
1, 216150, Note_on_c, 0, 71, 0
1, 216240, Tempo, 473597
1, 216240, Note_on_c, 0, 74, 0
1, 216240, Note_on_c, 0, 79, 49
1, 216360, Note_on_c, 0, 79, 0
1, 216360, Note_on_c, 0, 83, 46
1, 216480, Tempo, 471365
1, 216480, Note_on_c, 0, 83, 0
1, 216480, Note_on_c, 0, 69, 57
1, 216600, Note_on_c, 0, 73, 43
1, 216630, Note_on_c, 0, 69, 0
1, 216720, Tempo, 473223
1, 216720, Note_on_c, 0, 73, 0
1, 216720, Note_on_c, 0, 78, 43
1, 216840, Tempo, 471365
1, 216840, Note_on_c, 0, 78, 0
1, 216840, Note_on_c, 0, 81, 43
1, 216960, Note_on_c, 0, 81, 0
1, 216960, Note_on_c, 0, 67, 50
1, 217080, Tempo, 478889
1, 217080, Note_on_c, 0, 71, 45
1, 217110, Note_on_c, 0, 67, 0
1, 217200, Note_on_c, 0, 71, 0
1, 217200, Note_on_c, 0, 76, 45
1, 217320, Tempo, 502976
1, 217320, Note_on_c, 0, 76, 0
1, 217320, Note_on_c, 0, 79, 45
1, 217440, Tempo, 478889
1, 217440, Note_on_c, 0, 79, 0
1, 217440, Note_on_c, 0, 66, 61
1, 217560, Note_on_c, 0, 69, 50
1, 217590, Note_on_c, 0, 66, 0
1, 217680, Tempo, 488639
1, 217680, Note_on_c, 0, 69, 0
1, 217680, Note_on_c, 0, 74, 50
1, 217800, Note_on_c, 0, 74, 0
1, 217800, Note_on_c, 0, 78, 47
1, 217920, Tempo, 482742
1, 217920, Note_on_c, 0, 78, 0
1, 217920, Note_on_c, 0, 67, 54
1, 218040, Note_on_c, 0, 71, 43
1, 218070, Note_on_c, 0, 67, 0
1, 218160, Note_on_c, 0, 71, 0
1, 218160, Note_on_c, 0, 76, 43
1, 218280, Tempo, 531962
1, 218280, Note_on_c, 0, 76, 0
1, 218280, Note_on_c, 0, 79, 42
1, 218400, Tempo, 496730
1, 218400, Note_on_c, 0, 79, 0
1, 218400, Note_on_c, 0, 57, 50
1, 218520, Note_on_c, 0, 57, 0
1, 218520, Note_on_c, 0, 64, 38
1, 218534, Control_c, 0, 64, 127
1, 218640, Tempo, 524980
1, 218640, Note_on_c, 0, 64, 0
1, 218640, Note_on_c, 0, 67, 38
1, 218760, Tempo, 580889
1, 218760, Note_on_c, 0, 67, 0
1, 218760, Note_on_c, 0, 73, 38
1, 218880, Tempo, 507228
1, 218880, Note_on_c, 0, 73, 0
1, 218880, Note_on_c, 0, 74, 50
1, 218880, Note_on_c, 0, 66, 50
1, 218880, Note_on_c, 0, 62, 39
1, 218894, Control_c, 0, 64, 0
1, 219360, Note_on_c, 0, 62, 0
1, 219360, Note_on_c, 0, 66, 0
1, 219360, Note_on_c, 0, 74, 0
1, 219360, Note_on_c, 0, 50, 33
1, 219600, Note_on_c, 0, 50, 0
1, 219840, Tempo, 498795
1, 219840, Marker_t, "Teil 10 Wiederholung"
1, 219840, Note_on_c, 0, 78, 39
1, 219904, Control_c, 0, 64, 127
1, 219960, Note_on_c, 0, 78, 0
1, 219960, Note_on_c, 0, 74, 41
1, 220080, Note_on_c, 0, 74, 0
1, 220080, Note_on_c, 0, 81, 45
1, 220200, Note_on_c, 0, 81, 0
1, 220200, Note_on_c, 0, 78, 47
1, 220320, Tempo, 492045
1, 220320, Note_on_c, 0, 78, 0
1, 220320, Note_on_c, 0, 86, 53
1, 220440, Note_on_c, 0, 86, 0
1, 220440, Note_on_c, 0, 81, 41
1, 220560, Note_on_c, 0, 81, 0
1, 220560, Note_on_c, 0, 78, 41
1, 220680, Note_on_c, 0, 78, 0
1, 220680, Note_on_c, 0, 74, 41
1, 220800, Tempo, 462642
1, 220800, Note_on_c, 0, 74, 0
1, 220800, Note_on_c, 0, 71, 51
1, 220814, Control_c, 0, 64, 0
1, 220920, Note_on_c, 0, 74, 42
1, 220950, Note_on_c, 0, 71, 0
1, 221040, Tempo, 471735
1, 221040, Note_on_c, 0, 74, 0
1, 221040, Note_on_c, 0, 76, 42
1, 221160, Tempo, 471735
1, 221160, Note_on_c, 0, 76, 0
1, 221160, Note_on_c, 0, 80, 38
1, 221280, Tempo, 473223
1, 221280, Note_on_c, 0, 80, 0
1, 221280, Note_on_c, 0, 73, 51
1, 221400, Note_on_c, 0, 76, 41
1, 221430, Note_on_c, 0, 73, 0
1, 221520, Tempo, 473223
1, 221520, Note_on_c, 0, 76, 0
1, 221520, Note_on_c, 0, 85, 39
1, 221640, Tempo, 491441
1, 221640, Note_on_c, 0, 85, 0
1, 221640, Note_on_c, 0, 88, 38
1, 221760, Tempo, 469520
1, 221760, Note_on_c, 0, 88, 0
1, 221760, Note_on_c, 0, 71, 46
1, 221880, Note_on_c, 0, 74, 39
1, 221910, Note_on_c, 0, 71, 0
1, 222000, Tempo, 469888
1, 222000, Note_on_c, 0, 74, 0
1, 222000, Note_on_c, 0, 79, 39
1, 222120, Tempo, 475473
1, 222120, Note_on_c, 0, 79, 0
1, 222120, Note_on_c, 0, 83, 39
1, 222240, Tempo, 467690
1, 222240, Note_on_c, 0, 83, 0
1, 222240, Note_on_c, 0, 69, 43
1, 222360, Note_on_c, 0, 73, 35
1, 222390, Note_on_c, 0, 69, 0
1, 222480, Tempo, 475097
1, 222480, Note_on_c, 0, 73, 0
1, 222480, Note_on_c, 0, 78, 35
1, 222600, Note_on_c, 0, 78, 0
1, 222600, Note_on_c, 0, 81, 35
1, 222720, Tempo, 467690
1, 222720, Note_on_c, 0, 81, 0
1, 222720, Note_on_c, 0, 67, 41
1, 222840, Tempo, 469520
1, 222840, Note_on_c, 0, 71, 36
1, 222870, Note_on_c, 0, 67, 0
1, 222960, Tempo, 471365
1, 222960, Note_on_c, 0, 71, 0
1, 222960, Note_on_c, 0, 76, 36
1, 223080, Tempo, 489436
1, 223080, Note_on_c, 0, 76, 0
1, 223080, Note_on_c, 0, 79, 33
1, 223200, Tempo, 469520
1, 223200, Note_on_c, 0, 79, 0
1, 223200, Note_on_c, 0, 66, 45
1, 223320, Note_on_c, 0, 69, 37
1, 223350, Note_on_c, 0, 66, 0
1, 223440, Tempo, 475097
1, 223440, Note_on_c, 0, 69, 0
1, 223440, Note_on_c, 0, 74, 37
1, 223560, Note_on_c, 0, 74, 0
1, 223560, Note_on_c, 0, 78, 35
1, 223680, Tempo, 469520
1, 223680, Note_on_c, 0, 78, 0
1, 223680, Note_on_c, 0, 64, 41
1, 223800, Note_on_c, 0, 67, 37
1, 223830, Note_on_c, 0, 64, 0
1, 223920, Tempo, 478889
1, 223920, Note_on_c, 0, 67, 0
1, 223920, Note_on_c, 0, 73, 37
1, 224040, Note_on_c, 0, 73, 0
1, 224040, Note_on_c, 0, 79, 36
1, 224160, Tempo, 487448
1, 224160, Note_on_c, 0, 79, 0
1, 224160, Note_on_c, 0, 62, 40
1, 224280, Note_on_c, 0, 62, 0
1, 224280, Note_on_c, 0, 69, 34
1, 224294, Control_c, 0, 64, 127
1, 224400, Note_on_c, 0, 69, 0
1, 224400, Note_on_c, 0, 78, 34
1, 224520, Tempo, 548998
1, 224520, Note_on_c, 0, 78, 0
1, 224520, Note_on_c, 0, 86, 35
1, 224640, Tempo, 507228
1, 224640, Note_on_c, 0, 86, 0
1, 224640, Note_on_c, 0, 74, 35
1, 224640, Note_on_c, 0, 78, 42
1, 224640, Note_on_c, 0, 57, 32
1, 224654, Control_c, 0, 64, 0
1, 225120, Note_on_c, 0, 57, 0
1, 225120, Note_on_c, 0, 78, 0
1, 225120, Note_on_c, 0, 74, 0
1, 225120, Note_on_c, 0, 73, 31
1, 225120, Note_on_c, 0, 76, 37
1, 225120, Note_on_c, 0, 45, 27
1, 225360, Note_on_c, 0, 45, 0
1, 225360, Note_on_c, 0, 76, 0
1, 225360, Note_on_c, 0, 73, 0
1, 225600, Tempo, 498795
1, 225600, Note_on_c, 0, 78, 39
1, 225664, Control_c, 0, 64, 127
1, 225720, Note_on_c, 0, 78, 0
1, 225720, Note_on_c, 0, 74, 42
1, 225840, Note_on_c, 0, 74, 0
1, 225840, Note_on_c, 0, 81, 45
1, 225960, Note_on_c, 0, 81, 0
1, 225960, Note_on_c, 0, 78, 45
1, 226080, Tempo, 482742
1, 226080, Note_on_c, 0, 78, 0
1, 226080, Note_on_c, 0, 86, 54
1, 226200, Note_on_c, 0, 86, 0
1, 226200, Note_on_c, 0, 81, 42
1, 226320, Note_on_c, 0, 81, 0
1, 226320, Note_on_c, 0, 78, 42
1, 226440, Note_on_c, 0, 78, 0
1, 226440, Note_on_c, 0, 74, 42
1, 226560, Tempo, 466237
1, 226560, Note_on_c, 0, 74, 0
1, 226560, Note_on_c, 0, 71, 48
1, 226574, Control_c, 0, 64, 0
1, 226680, Note_on_c, 0, 74, 39
1, 226710, Note_on_c, 0, 71, 0
1, 226800, Tempo, 466599
1, 226800, Note_on_c, 0, 74, 0
1, 226800, Note_on_c, 0, 76, 39
1, 226920, Note_on_c, 0, 76, 0
1, 226920, Note_on_c, 0, 80, 39
1, 227040, Tempo, 468055
1, 227040, Note_on_c, 0, 80, 0
1, 227040, Note_on_c, 0, 73, 48
1, 227160, Note_on_c, 0, 76, 39
1, 227190, Note_on_c, 0, 73, 0
1, 227280, Tempo, 470256
1, 227280, Note_on_c, 0, 76, 0
1, 227280, Note_on_c, 0, 85, 39
1, 227400, Tempo, 477745
1, 227400, Note_on_c, 0, 85, 0
1, 227400, Note_on_c, 0, 88, 39
1, 227520, Tempo, 468055
1, 227520, Note_on_c, 0, 88, 0
1, 227520, Note_on_c, 0, 71, 45
1, 227640, Note_on_c, 0, 74, 36
1, 227670, Note_on_c, 0, 71, 0
1, 227760, Tempo, 478889
1, 227760, Note_on_c, 0, 74, 0
1, 227760, Note_on_c, 0, 79, 36
1, 227880, Note_on_c, 0, 79, 0
1, 227880, Note_on_c, 0, 83, 34
1, 228000, Tempo, 475473
1, 228000, Note_on_c, 0, 83, 0
1, 228000, Note_on_c, 0, 69, 42
1, 228120, Tempo, 476985
1, 228120, Note_on_c, 0, 73, 32
1, 228150, Note_on_c, 0, 69, 0
1, 228240, Tempo, 475097
1, 228240, Note_on_c, 0, 73, 0
1, 228240, Note_on_c, 0, 78, 32
1, 228360, Tempo, 473223
1, 228360, Note_on_c, 0, 78, 0
1, 228360, Note_on_c, 0, 81, 32
1, 228480, Tempo, 473597
1, 228480, Note_on_c, 0, 81, 0
1, 228480, Note_on_c, 0, 67, 37
1, 228600, Tempo, 478889
1, 228600, Note_on_c, 0, 71, 33
1, 228630, Note_on_c, 0, 67, 0
1, 228720, Note_on_c, 0, 71, 0
1, 228720, Note_on_c, 0, 76, 33
1, 228840, Tempo, 502976
1, 228840, Note_on_c, 0, 76, 0
1, 228840, Note_on_c, 0, 79, 33
1, 228960, Tempo, 484692
1, 228960, Note_on_c, 0, 79, 0
1, 228960, Note_on_c, 0, 66, 45
1, 229080, Note_on_c, 0, 69, 37
1, 229110, Note_on_c, 0, 66, 0
1, 229200, Tempo, 502976
1, 229200, Note_on_c, 0, 69, 0
1, 229200, Note_on_c, 0, 74, 37
1, 229320, Note_on_c, 0, 74, 0
1, 229320, Note_on_c, 0, 78, 35
1, 229440, Tempo, 494682
1, 229440, Note_on_c, 0, 78, 0
1, 229440, Note_on_c, 0, 67, 40
1, 229560, Note_on_c, 0, 71, 32
1, 229590, Note_on_c, 0, 67, 0
1, 229680, Note_on_c, 0, 71, 0
1, 229680, Note_on_c, 0, 76, 32
1, 229800, Tempo, 531962
1, 229800, Note_on_c, 0, 76, 0
1, 229800, Note_on_c, 0, 79, 31
1, 229920, Tempo, 569855
1, 229920, Note_on_c, 0, 79, 0
1, 229920, Note_on_c, 0, 57, 37
1, 230040, Note_on_c, 0, 57, 0
1, 230040, Note_on_c, 0, 64, 28
1, 230054, Control_c, 0, 64, 127
1, 230160, Tempo, 604290
1, 230160, Note_on_c, 0, 64, 0
1, 230160, Note_on_c, 0, 67, 28
1, 230280, Tempo, 747291
1, 230280, Note_on_c, 0, 67, 0
1, 230280, Note_on_c, 0, 73, 28
1, 230400, Tempo, 647319
1, 230400, Note_on_c, 0, 73, 0
1, 230400, Note_on_c, 0, 74, 37
1, 230400, Note_on_c, 0, 66, 37
1, 230400, Note_on_c, 0, 62, 29
1, 230414, Control_c, 0, 64, 0
1, 230880, Note_on_c, 0, 62, 0
1, 230880, Note_on_c, 0, 66, 0
1, 230880, Note_on_c, 0, 74, 0
1, 230880, Note_on_c, 0, 50, 24
1, 231120, Note_on_c, 0, 50, 0
1, 231120, End_track
0, 0, End_of_file
