0, 0, Header, 0, 1, 480
1, 0, Start_track
1, 0, Title_t, "Haydn: Klaviersonate Hob. XVI:7, 3. Satz"
1, 0, Title_t, "Finale"
1, 0, Copyright_t, "Copyright © 2011 by Bernd Krueger"
1, 0, Text_t, "Bernd Krueger"
1, 0, Text_t, "Allegro"
1, 0, Text_t, "Erstellt: 28.10.2011\012"
1, 0, Text_t, "Dauer: 1:31 Minuten\012"
1, 0, Time_signature, 3, 3, 12, 8
1, 0, Key_signature, 0, "major"
1, 0, Tempo, 530786
1, 0, Marker_t, "Teil 1"
1, 0, Program_c, 0, 0
1, 0, Note_on_c, 0, 72, 60
1, 0, Program_c, 0, 0
1, 0, Note_on_c, 0, 60, 40
1, 0, Program_c, 0, 0
1, 36, Control_c, 0, 64, 127
1, 120, Note_on_c, 0, 60, 0
1, 120, Note_on_c, 0, 67, 32
1, 240, Note_on_c, 0, 67, 0
1, 240, Note_on_c, 0, 64, 40
1, 360, Note_on_c, 0, 64, 0
1, 360, Note_on_c, 0, 67, 32
1, 480, Note_on_c, 0, 67, 0
1, 480, Note_on_c, 0, 72, 0
1, 480, Note_on_c, 0, 76, 55
1, 480, Note_on_c, 0, 60, 40
1, 486, Control_c, 0, 64, 0
1, 560, Note_on_c, 0, 76, 0
1, 560, Note_on_c, 0, 74, 49
1, 600, Note_on_c, 0, 60, 0
1, 600, Note_on_c, 0, 67, 33
1, 640, Tempo, 595652
1, 640, Note_on_c, 0, 74, 0
1, 640, Note_on_c, 0, 72, 49
1, 720, Tempo, 529895
1, 720, Note_on_c, 0, 72, 0
1, 720, Note_on_c, 0, 67, 0
1, 720, Note_on_c, 0, 79, 60
1, 720, Note_on_c, 0, 59, 40
1, 777, Control_c, 0, 64, 127
1, 840, Note_on_c, 0, 59, 0
1, 840, Note_on_c, 0, 67, 32
1, 960, Note_on_c, 0, 67, 0
1, 960, Note_on_c, 0, 62, 37
1, 1080, Note_on_c, 0, 62, 0
1, 1080, Note_on_c, 0, 67, 33
1, 1120, Tempo, 581226
1, 1200, Tempo, 529895
1, 1200, Note_on_c, 0, 67, 0
1, 1200, Note_on_c, 0, 79, 0
1, 1200, Note_on_c, 0, 77, 52
1, 1200, Note_on_c, 0, 59, 40
1, 1207, Control_c, 0, 64, 0
1, 1271, Control_c, 0, 64, 127
1, 1320, Note_on_c, 0, 59, 0
1, 1320, Note_on_c, 0, 67, 35
1, 1440, Tempo, 541859
1, 1440, Note_on_c, 0, 67, 0
1, 1440, Note_on_c, 0, 77, 0
1, 1440, Note_on_c, 0, 76, 60
1, 1440, Note_on_c, 0, 60, 40
1, 1468, Control_c, 0, 64, 0
1, 1920, Tempo, 529895
1, 1920, Note_on_c, 0, 60, 0
1, 1920, Note_on_c, 0, 76, 0
1, 1920, Note_on_c, 0, 76, 60
1, 1920, Note_on_c, 0, 60, 36
1, 1977, Control_c, 0, 64, 127
1, 2040, Note_on_c, 0, 76, 0
1, 2040, Note_on_c, 0, 67, 40
1, 2160, Tempo, 529895
1, 2160, Note_on_c, 0, 67, 0
1, 2160, Note_on_c, 0, 60, 0
1, 2160, Note_on_c, 0, 74, 60
1, 2160, Note_on_c, 0, 59, 40
1, 2160, Control_c, 0, 64, 0
1, 2210, Control_c, 0, 64, 127
1, 2280, Note_on_c, 0, 74, 0
1, 2280, Note_on_c, 0, 67, 35
1, 2400, Tempo, 527565
1, 2400, Note_on_c, 0, 67, 0
1, 2400, Note_on_c, 0, 74, 60
1, 2520, Note_on_c, 0, 74, 0
1, 2520, Note_on_c, 0, 67, 39
1, 2640, Note_on_c, 0, 67, 0
1, 2640, Note_on_c, 0, 59, 0
1, 2640, Note_on_c, 0, 76, 61
1, 2640, Note_on_c, 0, 60, 43
1, 2650, Control_c, 0, 64, 0
1, 2746, Control_c, 0, 64, 127
1, 2760, Note_on_c, 0, 76, 0
1, 2760, Note_on_c, 0, 67, 38
1, 2880, Tempo, 527565
1, 2880, Note_on_c, 0, 67, 0
1, 2880, Note_on_c, 0, 60, 0
1, 2880, Note_on_c, 0, 77, 63
1, 2880, Note_on_c, 0, 62, 48
1, 2896, Control_c, 0, 64, 0
1, 2958, Control_c, 0, 64, 127
1, 3000, Note_on_c, 0, 77, 0
1, 3000, Note_on_c, 0, 67, 37
1, 3120, Note_on_c, 0, 67, 0
1, 3120, Note_on_c, 0, 62, 0
1, 3120, Note_on_c, 0, 76, 60
1, 3120, Note_on_c, 0, 60, 45
1, 3129, Control_c, 0, 64, 0
1, 3198, Control_c, 0, 64, 127
1, 3240, Note_on_c, 0, 76, 0
1, 3240, Note_on_c, 0, 67, 38
1, 3360, Tempo, 534616
1, 3360, Note_on_c, 0, 67, 0
1, 3360, Note_on_c, 0, 60, 0
1, 3360, Note_on_c, 0, 74, 58
1, 3360, Note_on_c, 0, 59, 40
1, 3369, Control_c, 0, 64, 0
1, 3452, Control_c, 0, 64, 127
1, 3480, Note_on_c, 0, 74, 0
1, 3480, Note_on_c, 0, 67, 38
1, 3600, Note_on_c, 0, 67, 0
1, 3600, Note_on_c, 0, 59, 0
1, 3600, Note_on_c, 0, 76, 60
1, 3600, Note_on_c, 0, 60, 43
1, 3600, Control_c, 0, 64, 0
1, 4080, Tempo, 546797
1, 4080, Note_on_c, 0, 60, 0
1, 4080, Note_on_c, 0, 76, 0
1, 4080, Note_on_c, 0, 67, 55
1, 4160, Note_on_c, 0, 67, 0
1, 4160, Note_on_c, 0, 69, 55
1, 4240, Tempo, 601624
1, 4240, Note_on_c, 0, 69, 0
1, 4240, Note_on_c, 0, 71, 55
1, 4320, Tempo, 534616
1, 4320, Note_on_c, 0, 71, 0
1, 4320, Note_on_c, 0, 72, 60
1, 4320, Note_on_c, 0, 60, 40
1, 4387, Control_c, 0, 64, 127
1, 4440, Note_on_c, 0, 60, 0
1, 4440, Note_on_c, 0, 67, 32
1, 4560, Note_on_c, 0, 67, 0
1, 4560, Note_on_c, 0, 64, 40
1, 4680, Note_on_c, 0, 64, 0
1, 4680, Note_on_c, 0, 67, 32
1, 4800, Note_on_c, 0, 67, 0
1, 4800, Note_on_c, 0, 72, 0
1, 4800, Note_on_c, 0, 76, 55
1, 4800, Note_on_c, 0, 60, 40
1, 4810, Control_c, 0, 64, 0
1, 4880, Note_on_c, 0, 76, 0
1, 4880, Note_on_c, 0, 74, 49
1, 4920, Note_on_c, 0, 60, 0
1, 4920, Note_on_c, 0, 67, 33
1, 4960, Tempo, 581226
1, 4960, Note_on_c, 0, 74, 0
1, 4960, Note_on_c, 0, 72, 49
1, 5040, Tempo, 534616
1, 5040, Note_on_c, 0, 72, 0
1, 5040, Note_on_c, 0, 67, 0
1, 5040, Note_on_c, 0, 79, 60
1, 5040, Note_on_c, 0, 59, 40
1, 5083, Control_c, 0, 64, 127
1, 5160, Note_on_c, 0, 59, 0
1, 5160, Note_on_c, 0, 67, 32
1, 5280, Note_on_c, 0, 67, 0
1, 5280, Note_on_c, 0, 62, 37
1, 5400, Note_on_c, 0, 62, 0
1, 5400, Note_on_c, 0, 67, 33
1, 5520, Tempo, 559545
1, 5520, Note_on_c, 0, 67, 0
1, 5520, Note_on_c, 0, 79, 0
1, 5520, Note_on_c, 0, 77, 52
1, 5520, Note_on_c, 0, 59, 40
1, 5529, Control_c, 0, 64, 0
1, 5598, Control_c, 0, 64, 127
1, 5640, Note_on_c, 0, 59, 0
1, 5640, Note_on_c, 0, 67, 35
1, 5760, Tempo, 534616
1, 5760, Note_on_c, 0, 67, 0
1, 5760, Note_on_c, 0, 77, 0
1, 5760, Note_on_c, 0, 76, 60
1, 5760, Note_on_c, 0, 60, 40
1, 5803, Control_c, 0, 64, 0
1, 6240, Note_on_c, 0, 60, 0
1, 6240, Note_on_c, 0, 76, 0
1, 6240, Note_on_c, 0, 76, 60
1, 6240, Note_on_c, 0, 60, 36
1, 6249, Control_c, 0, 64, 127
1, 6360, Note_on_c, 0, 76, 0
1, 6360, Note_on_c, 0, 67, 40
1, 6480, Tempo, 529895
1, 6480, Note_on_c, 0, 67, 0
1, 6480, Note_on_c, 0, 60, 0
1, 6480, Note_on_c, 0, 74, 60
1, 6480, Note_on_c, 0, 59, 40
1, 6480, Control_c, 0, 64, 0
1, 6579, Control_c, 0, 64, 127
1, 6600, Note_on_c, 0, 74, 0
1, 6600, Note_on_c, 0, 67, 35
1, 6720, Note_on_c, 0, 67, 0
1, 6720, Note_on_c, 0, 74, 60
1, 6840, Note_on_c, 0, 74, 0
1, 6840, Note_on_c, 0, 67, 39
1, 6960, Note_on_c, 0, 67, 0
1, 6960, Note_on_c, 0, 59, 0
1, 6960, Note_on_c, 0, 76, 61
1, 6960, Note_on_c, 0, 60, 43
1, 6973, Control_c, 0, 64, 0
1, 7038, Control_c, 0, 64, 127
1, 7080, Note_on_c, 0, 76, 0
1, 7080, Note_on_c, 0, 67, 38
1, 7200, Tempo, 534616
1, 7200, Note_on_c, 0, 67, 0
1, 7200, Note_on_c, 0, 60, 0
1, 7200, Note_on_c, 0, 74, 63
1, 7200, Note_on_c, 0, 59, 48
1, 7200, Control_c, 0, 64, 0
1, 7306, Control_c, 0, 64, 127
1, 7320, Note_on_c, 0, 74, 0
1, 7320, Note_on_c, 0, 67, 37
1, 7440, Note_on_c, 0, 67, 0
1, 7440, Note_on_c, 0, 74, 60
1, 7560, Note_on_c, 0, 74, 0
1, 7560, Note_on_c, 0, 67, 38
1, 7680, Tempo, 544316
1, 7680, Note_on_c, 0, 67, 0
1, 7680, Note_on_c, 0, 59, 0
1, 7680, Note_on_c, 0, 72, 58
1, 7680, Note_on_c, 0, 52, 40
1, 7698, Control_c, 0, 64, 0
1, 7765, Control_c, 0, 64, 127
1, 7800, Note_on_c, 0, 72, 0
1, 7800, Note_on_c, 0, 67, 38
1, 7920, Tempo, 534616
1, 7920, Note_on_c, 0, 67, 0
1, 7920, Note_on_c, 0, 52, 0
1, 7920, Note_on_c, 0, 71, 63
1, 7920, Note_on_c, 0, 50, 50
1, 7920, Control_c, 0, 64, 0
1, 8040, Note_on_c, 0, 71, 0
1, 8040, Note_on_c, 0, 74, 51
1, 8160, Note_on_c, 0, 74, 0
1, 8160, Note_on_c, 0, 71, 58
1, 8280, Note_on_c, 0, 71, 0
1, 8280, Note_on_c, 0, 67, 50
1, 8400, Note_on_c, 0, 67, 0
1, 8400, Note_on_c, 0, 50, 0
1, 8400, Note_on_c, 0, 69, 57
1, 8400, Note_on_c, 0, 38, 40
1, 8520, Note_on_c, 0, 69, 0
1, 8520, Note_on_c, 0, 66, 53
1, 8560, Tempo, 636740
1, 8640, Tempo, 537009
1, 8640, Note_on_c, 0, 66, 0
1, 8640, Note_on_c, 0, 38, 0
1, 8640, Note_on_c, 0, 67, 63
1, 8640, Note_on_c, 0, 43, 62
1, 8760, Note_on_c, 0, 43, 0
1, 8760, Note_on_c, 0, 55, 48
1, 8880, Note_on_c, 0, 55, 0
1, 8880, Note_on_c, 0, 45, 57
1, 9000, Note_on_c, 0, 45, 0
1, 9000, Note_on_c, 0, 57, 49
1, 9120, Note_on_c, 0, 57, 0
1, 9120, Note_on_c, 0, 67, 0
1, 9120, Note_on_c, 0, 47, 60
1, 9240, Note_on_c, 0, 47, 0
1, 9240, Note_on_c, 0, 59, 50
1, 9280, Tempo, 589797
1, 9360, Tempo, 529895
1, 9360, Note_on_c, 0, 59, 0
1, 9360, Note_on_c, 0, 45, 62
1, 9480, Note_on_c, 0, 45, 0
1, 9480, Note_on_c, 0, 57, 51
1, 9600, Note_on_c, 0, 57, 0
1, 9600, Note_on_c, 0, 47, 62
1, 9720, Note_on_c, 0, 47, 0
1, 9720, Note_on_c, 0, 59, 52
1, 9840, Note_on_c, 0, 59, 0
1, 9840, Note_on_c, 0, 48, 66
1, 9960, Note_on_c, 0, 48, 0
1, 9960, Note_on_c, 0, 60, 55
1, 10000, Tempo, 584055
1, 10080, Tempo, 529895
1, 10080, Note_on_c, 0, 60, 0
1, 10080, Note_on_c, 0, 47, 66
1, 10200, Note_on_c, 0, 47, 0
1, 10200, Note_on_c, 0, 59, 55
1, 10320, Note_on_c, 0, 59, 0
1, 10320, Note_on_c, 0, 48, 66
1, 10440, Note_on_c, 0, 48, 0
1, 10440, Note_on_c, 0, 60, 57
1, 10560, Note_on_c, 0, 60, 0
1, 10560, Note_on_c, 0, 50, 69
1, 10680, Note_on_c, 0, 50, 0
1, 10680, Note_on_c, 0, 62, 62
1, 10720, Tempo, 672420
1, 10800, Tempo, 564812
1, 10800, Note_on_c, 0, 62, 0
1, 10800, Note_on_c, 0, 52, 62
1, 10800, Note_on_c, 0, 64, 71
1, 11040, Tempo, 525256
1, 11040, Note_on_c, 0, 84, 63
1, 11120, Note_on_c, 0, 84, 0
1, 11120, Note_on_c, 0, 83, 57
1, 11200, Note_on_c, 0, 83, 0
1, 11200, Note_on_c, 0, 81, 57
1, 11280, Tempo, 541859
1, 11280, Note_on_c, 0, 81, 0
1, 11280, Note_on_c, 0, 64, 0
1, 11280, Note_on_c, 0, 52, 0
1, 11280, Note_on_c, 0, 79, 63
1, 11360, Note_on_c, 0, 79, 0
1, 11360, Note_on_c, 0, 78, 57
1, 11440, Tempo, 586912
1, 11440, Note_on_c, 0, 78, 0
1, 11440, Note_on_c, 0, 76, 56
1, 11520, Tempo, 532245
1, 11520, Note_on_c, 0, 76, 0
1, 11520, Note_on_c, 0, 74, 63
1, 11520, Note_on_c, 0, 54, 50
1, 11640, Note_on_c, 0, 74, 0
1, 11640, Note_on_c, 0, 81, 55
1, 11760, Note_on_c, 0, 81, 0
1, 11760, Note_on_c, 0, 84, 59
1, 11880, Note_on_c, 0, 84, 0
1, 11880, Note_on_c, 0, 81, 52
1, 12000, Note_on_c, 0, 81, 0
1, 12000, Note_on_c, 0, 54, 0
1, 12000, Note_on_c, 0, 83, 61
1, 12000, Note_on_c, 0, 55, 46
1, 12120, Note_on_c, 0, 83, 0
1, 12120, Note_on_c, 0, 79, 56
1, 12160, Tempo, 586912
1, 12240, Tempo, 575650
1, 12240, Note_on_c, 0, 79, 0
1, 12240, Note_on_c, 0, 55, 0
1, 12240, Note_on_c, 0, 81, 63
1, 12240, Note_on_c, 0, 60, 50
1, 12480, Note_on_c, 0, 60, 0
1, 12480, Note_on_c, 0, 81, 0
1, 12480, Note_on_c, 0, 79, 58
1, 12480, Note_on_c, 0, 62, 42
1, 12720, Note_on_c, 0, 62, 0
1, 12720, Note_on_c, 0, 79, 0
1, 12720, Note_on_c, 0, 78, 53
1, 12720, Note_on_c, 0, 50, 42
1, 12735, Control_c, 0, 64, 127
1, 12768, Note_on_c, 0, 78, 0
1, 12768, Note_on_c, 0, 79, 48
1, 12816, Note_on_c, 0, 79, 0
1, 12816, Note_on_c, 0, 78, 53
1, 12864, Note_on_c, 0, 78, 0
1, 12864, Note_on_c, 0, 79, 48
1, 12880, Tempo, 633379
1, 12912, Note_on_c, 0, 79, 0
1, 12912, Note_on_c, 0, 78, 48
1, 12960, Tempo, 537009
1, 12960, Note_on_c, 0, 78, 0
1, 12960, Note_on_c, 0, 50, 0
1, 12960, Note_on_c, 0, 71, 63
1, 12960, Note_on_c, 0, 74, 63
1, 12960, Note_on_c, 0, 79, 63
1, 12960, Note_on_c, 0, 43, 62
1, 12967, Control_c, 0, 64, 0
1, 13080, Note_on_c, 0, 43, 0
1, 13080, Note_on_c, 0, 55, 48
1, 13200, Note_on_c, 0, 55, 0
1, 13200, Note_on_c, 0, 45, 57
1, 13320, Note_on_c, 0, 45, 0
1, 13320, Note_on_c, 0, 57, 49
1, 13440, Note_on_c, 0, 57, 0
1, 13440, Note_on_c, 0, 79, 0
1, 13440, Note_on_c, 0, 74, 0
1, 13440, Note_on_c, 0, 71, 0
1, 13440, Note_on_c, 0, 47, 60
1, 13560, Note_on_c, 0, 47, 0
1, 13560, Note_on_c, 0, 59, 50
1, 13600, Tempo, 607718
1, 13680, Tempo, 529895
1, 13680, Note_on_c, 0, 59, 0
1, 13680, Note_on_c, 0, 45, 62
1, 13800, Note_on_c, 0, 45, 0
1, 13800, Note_on_c, 0, 57, 51
1, 13920, Note_on_c, 0, 57, 0
1, 13920, Note_on_c, 0, 47, 62
1, 14040, Note_on_c, 0, 47, 0
1, 14040, Note_on_c, 0, 59, 52
1, 14160, Note_on_c, 0, 59, 0
1, 14160, Note_on_c, 0, 48, 66
1, 14280, Note_on_c, 0, 48, 0
1, 14280, Note_on_c, 0, 60, 55
1, 14320, Tempo, 564812
1, 14400, Tempo, 522967
1, 14400, Note_on_c, 0, 60, 0
1, 14400, Note_on_c, 0, 47, 66
1, 14520, Note_on_c, 0, 47, 0
1, 14520, Note_on_c, 0, 59, 55
1, 14640, Note_on_c, 0, 59, 0
1, 14640, Note_on_c, 0, 48, 66
1, 14760, Note_on_c, 0, 48, 0
1, 14760, Note_on_c, 0, 60, 57
1, 14880, Note_on_c, 0, 60, 0
1, 14880, Note_on_c, 0, 50, 69
1, 15000, Note_on_c, 0, 50, 0
1, 15000, Note_on_c, 0, 62, 62
1, 15040, Tempo, 643570
1, 15120, Tempo, 589797
1, 15120, Note_on_c, 0, 62, 0
1, 15120, Note_on_c, 0, 52, 62
1, 15120, Note_on_c, 0, 64, 71
1, 15360, Tempo, 509641
1, 15360, Note_on_c, 0, 84, 63
1, 15440, Note_on_c, 0, 84, 0
1, 15440, Note_on_c, 0, 83, 57
1, 15520, Note_on_c, 0, 83, 0
1, 15520, Note_on_c, 0, 81, 57
1, 15600, Tempo, 534616
1, 15600, Note_on_c, 0, 81, 0
1, 15600, Note_on_c, 0, 64, 0
1, 15600, Note_on_c, 0, 52, 0
1, 15600, Note_on_c, 0, 79, 63
1, 15680, Note_on_c, 0, 79, 0
1, 15680, Note_on_c, 0, 78, 57
1, 15760, Note_on_c, 0, 78, 0
1, 15760, Note_on_c, 0, 76, 56
1, 15840, Note_on_c, 0, 76, 0
1, 15840, Note_on_c, 0, 74, 63
1, 15840, Note_on_c, 0, 54, 50
1, 15960, Note_on_c, 0, 74, 0
1, 15960, Note_on_c, 0, 81, 55
1, 16080, Note_on_c, 0, 81, 0
1, 16080, Note_on_c, 0, 84, 59
1, 16200, Note_on_c, 0, 84, 0
1, 16200, Note_on_c, 0, 81, 52
1, 16320, Tempo, 549300
1, 16320, Note_on_c, 0, 81, 0
1, 16320, Note_on_c, 0, 54, 0
1, 16320, Note_on_c, 0, 83, 61
1, 16320, Note_on_c, 0, 55, 46
1, 16440, Note_on_c, 0, 83, 0
1, 16440, Note_on_c, 0, 79, 56
1, 16480, Tempo, 607718
1, 16560, Tempo, 581226
1, 16560, Note_on_c, 0, 79, 0
1, 16560, Note_on_c, 0, 55, 0
1, 16560, Note_on_c, 0, 81, 63
1, 16560, Note_on_c, 0, 60, 50
1, 16800, Note_on_c, 0, 60, 0
1, 16800, Note_on_c, 0, 81, 0
1, 16800, Note_on_c, 0, 79, 58
1, 16800, Note_on_c, 0, 62, 42
1, 17040, Tempo, 601624
1, 17040, Note_on_c, 0, 62, 0
1, 17040, Note_on_c, 0, 79, 0
1, 17040, Note_on_c, 0, 78, 53
1, 17040, Note_on_c, 0, 50, 42
1, 17083, Control_c, 0, 64, 127
1, 17088, Note_on_c, 0, 78, 0
1, 17088, Note_on_c, 0, 79, 48
1, 17136, Note_on_c, 0, 79, 0
1, 17136, Note_on_c, 0, 78, 53
1, 17184, Note_on_c, 0, 78, 0
1, 17184, Note_on_c, 0, 79, 48
1, 17232, Note_on_c, 0, 79, 0
1, 17232, Note_on_c, 0, 78, 48
1, 17280, Tempo, 586912
1, 17280, Note_on_c, 0, 78, 0
1, 17280, Note_on_c, 0, 50, 0
1, 17280, Note_on_c, 0, 71, 63
1, 17280, Note_on_c, 0, 74, 63
1, 17280, Note_on_c, 0, 79, 63
1, 17280, Note_on_c, 0, 55, 50
1, 17287, Control_c, 0, 64, 0
1, 17520, Tempo, 620283
1, 17520, Note_on_c, 0, 55, 0
1, 17520, Note_on_c, 0, 50, 38
1, 17760, Tempo, 712335
1, 17760, Note_on_c, 0, 50, 0
1, 17760, Note_on_c, 0, 79, 0
1, 17760, Note_on_c, 0, 74, 0
1, 17760, Note_on_c, 0, 71, 0
1, 17760, Note_on_c, 0, 43, 46
1, 18000, Tempo, 530786
1, 18000, Marker_t, "Teil 1 Wiederholung"
1, 18000, Note_on_c, 0, 43, 0
1, 18000, Note_on_c, 0, 72, 60
1, 18000, Note_on_c, 0, 60, 40
1, 18060, Control_c, 0, 64, 127
1, 18120, Note_on_c, 0, 60, 0
1, 18120, Note_on_c, 0, 67, 32
1, 18240, Note_on_c, 0, 67, 0
1, 18240, Note_on_c, 0, 64, 40
1, 18360, Note_on_c, 0, 64, 0
1, 18360, Note_on_c, 0, 67, 32
1, 18480, Note_on_c, 0, 67, 0
1, 18480, Note_on_c, 0, 72, 0
1, 18480, Note_on_c, 0, 76, 55
1, 18480, Note_on_c, 0, 60, 40
1, 18486, Control_c, 0, 64, 0
1, 18560, Note_on_c, 0, 76, 0
1, 18560, Note_on_c, 0, 74, 49
1, 18600, Note_on_c, 0, 60, 0
1, 18600, Note_on_c, 0, 67, 33
1, 18640, Tempo, 595652
1, 18640, Note_on_c, 0, 74, 0
1, 18640, Note_on_c, 0, 72, 49
1, 18720, Tempo, 529895
1, 18720, Note_on_c, 0, 72, 0
1, 18720, Note_on_c, 0, 67, 0
1, 18720, Note_on_c, 0, 79, 60
1, 18720, Note_on_c, 0, 59, 40
1, 18777, Control_c, 0, 64, 127
1, 18840, Note_on_c, 0, 59, 0
1, 18840, Note_on_c, 0, 67, 32
1, 18960, Note_on_c, 0, 67, 0
1, 18960, Note_on_c, 0, 62, 37
1, 19080, Note_on_c, 0, 62, 0
1, 19080, Note_on_c, 0, 67, 33
1, 19120, Tempo, 581226
1, 19200, Tempo, 529895
1, 19200, Note_on_c, 0, 67, 0
1, 19200, Note_on_c, 0, 79, 0
1, 19200, Note_on_c, 0, 77, 52
1, 19200, Note_on_c, 0, 59, 40
1, 19207, Control_c, 0, 64, 0
1, 19271, Control_c, 0, 64, 127
1, 19320, Note_on_c, 0, 59, 0
1, 19320, Note_on_c, 0, 67, 35
1, 19440, Tempo, 537009
1, 19440, Note_on_c, 0, 67, 0
1, 19440, Note_on_c, 0, 77, 0
1, 19440, Note_on_c, 0, 76, 60
1, 19440, Note_on_c, 0, 60, 40
1, 19468, Control_c, 0, 64, 0
1, 19920, Note_on_c, 0, 60, 0
1, 19920, Note_on_c, 0, 76, 0
1, 19920, Note_on_c, 0, 76, 60
1, 19920, Note_on_c, 0, 60, 36
1, 19977, Control_c, 0, 64, 127
1, 20040, Note_on_c, 0, 76, 0
1, 20040, Note_on_c, 0, 67, 40
1, 20160, Tempo, 529895
1, 20160, Note_on_c, 0, 67, 0
1, 20160, Note_on_c, 0, 60, 0
1, 20160, Note_on_c, 0, 74, 60
1, 20160, Note_on_c, 0, 59, 40
1, 20160, Control_c, 0, 64, 0
1, 20210, Control_c, 0, 64, 127
1, 20280, Note_on_c, 0, 74, 0
1, 20280, Note_on_c, 0, 67, 35
1, 20400, Tempo, 527565
1, 20400, Note_on_c, 0, 67, 0
1, 20400, Note_on_c, 0, 74, 60
1, 20520, Note_on_c, 0, 74, 0
1, 20520, Note_on_c, 0, 67, 39
1, 20640, Note_on_c, 0, 67, 0
1, 20640, Note_on_c, 0, 59, 0
1, 20640, Note_on_c, 0, 76, 61
1, 20640, Note_on_c, 0, 60, 43
1, 20650, Control_c, 0, 64, 0
1, 20746, Control_c, 0, 64, 127
1, 20760, Note_on_c, 0, 76, 0
1, 20760, Note_on_c, 0, 67, 38
1, 20880, Tempo, 527565
1, 20880, Note_on_c, 0, 67, 0
1, 20880, Note_on_c, 0, 60, 0
1, 20880, Note_on_c, 0, 77, 63
1, 20880, Note_on_c, 0, 62, 48
1, 20896, Control_c, 0, 64, 0
1, 20958, Control_c, 0, 64, 127
1, 21000, Note_on_c, 0, 77, 0
1, 21000, Note_on_c, 0, 67, 37
1, 21120, Note_on_c, 0, 67, 0
1, 21120, Note_on_c, 0, 62, 0
1, 21120, Note_on_c, 0, 76, 60
1, 21120, Note_on_c, 0, 60, 45
1, 21129, Control_c, 0, 64, 0
1, 21198, Control_c, 0, 64, 127
1, 21240, Note_on_c, 0, 76, 0
1, 21240, Note_on_c, 0, 67, 38
1, 21360, Tempo, 534616
1, 21360, Note_on_c, 0, 67, 0
1, 21360, Note_on_c, 0, 60, 0
1, 21360, Note_on_c, 0, 74, 58
1, 21360, Note_on_c, 0, 59, 40
1, 21369, Control_c, 0, 64, 0
1, 21452, Control_c, 0, 64, 127
1, 21480, Note_on_c, 0, 74, 0
1, 21480, Note_on_c, 0, 67, 38
1, 21600, Tempo, 544316
1, 21600, Note_on_c, 0, 67, 0
1, 21600, Note_on_c, 0, 59, 0
1, 21600, Note_on_c, 0, 76, 60
1, 21600, Note_on_c, 0, 60, 43
1, 21600, Control_c, 0, 64, 0
1, 22080, Tempo, 546797
1, 22080, Note_on_c, 0, 60, 0
1, 22080, Note_on_c, 0, 76, 0
1, 22080, Note_on_c, 0, 67, 55
1, 22160, Note_on_c, 0, 67, 0
1, 22160, Note_on_c, 0, 69, 55
1, 22240, Tempo, 601624
1, 22240, Note_on_c, 0, 69, 0
1, 22240, Note_on_c, 0, 71, 55
1, 22320, Tempo, 534616
1, 22320, Note_on_c, 0, 71, 0
1, 22320, Note_on_c, 0, 72, 60
1, 22320, Note_on_c, 0, 60, 40
1, 22387, Control_c, 0, 64, 127
1, 22440, Note_on_c, 0, 60, 0
1, 22440, Note_on_c, 0, 67, 32
1, 22560, Note_on_c, 0, 67, 0
1, 22560, Note_on_c, 0, 64, 40
1, 22680, Note_on_c, 0, 64, 0
1, 22680, Note_on_c, 0, 67, 32
1, 22800, Note_on_c, 0, 67, 0
1, 22800, Note_on_c, 0, 72, 0
1, 22800, Note_on_c, 0, 76, 55
1, 22800, Note_on_c, 0, 60, 40
1, 22810, Control_c, 0, 64, 0
1, 22880, Note_on_c, 0, 76, 0
1, 22880, Note_on_c, 0, 74, 49
1, 22920, Note_on_c, 0, 60, 0
1, 22920, Note_on_c, 0, 67, 33
1, 22960, Tempo, 581226
1, 22960, Note_on_c, 0, 74, 0
1, 22960, Note_on_c, 0, 72, 49
1, 23040, Tempo, 534616
1, 23040, Note_on_c, 0, 72, 0
1, 23040, Note_on_c, 0, 67, 0
1, 23040, Note_on_c, 0, 79, 60
1, 23040, Note_on_c, 0, 59, 40
1, 23083, Control_c, 0, 64, 127
1, 23160, Note_on_c, 0, 59, 0
1, 23160, Note_on_c, 0, 67, 32
1, 23280, Note_on_c, 0, 67, 0
1, 23280, Note_on_c, 0, 62, 37
1, 23400, Note_on_c, 0, 62, 0
1, 23400, Note_on_c, 0, 67, 33
1, 23520, Tempo, 546797
1, 23520, Note_on_c, 0, 67, 0
1, 23520, Note_on_c, 0, 79, 0
1, 23520, Note_on_c, 0, 77, 52
1, 23520, Note_on_c, 0, 59, 40
1, 23529, Control_c, 0, 64, 0
1, 23598, Control_c, 0, 64, 127
1, 23640, Note_on_c, 0, 59, 0
1, 23640, Note_on_c, 0, 67, 35
1, 23760, Tempo, 534616
1, 23760, Note_on_c, 0, 67, 0
1, 23760, Note_on_c, 0, 77, 0
1, 23760, Note_on_c, 0, 76, 60
1, 23760, Note_on_c, 0, 60, 40
1, 23803, Control_c, 0, 64, 0
1, 24240, Note_on_c, 0, 60, 0
1, 24240, Note_on_c, 0, 76, 0
1, 24240, Note_on_c, 0, 76, 60
1, 24240, Note_on_c, 0, 60, 36
1, 24249, Control_c, 0, 64, 127
1, 24360, Note_on_c, 0, 76, 0
1, 24360, Note_on_c, 0, 67, 40
1, 24480, Tempo, 529895
1, 24480, Note_on_c, 0, 67, 0
1, 24480, Note_on_c, 0, 60, 0
1, 24480, Note_on_c, 0, 74, 60
1, 24480, Note_on_c, 0, 59, 40
1, 24480, Control_c, 0, 64, 0
1, 24579, Control_c, 0, 64, 127
1, 24600, Note_on_c, 0, 74, 0
1, 24600, Note_on_c, 0, 67, 35
1, 24720, Note_on_c, 0, 67, 0
1, 24720, Note_on_c, 0, 74, 60
1, 24840, Note_on_c, 0, 74, 0
1, 24840, Note_on_c, 0, 67, 39
1, 24960, Note_on_c, 0, 67, 0
1, 24960, Note_on_c, 0, 59, 0
1, 24960, Note_on_c, 0, 76, 61
1, 24960, Note_on_c, 0, 60, 43
1, 24973, Control_c, 0, 64, 0
1, 25038, Control_c, 0, 64, 127
1, 25080, Note_on_c, 0, 76, 0
1, 25080, Note_on_c, 0, 67, 38
1, 25200, Tempo, 534616
1, 25200, Note_on_c, 0, 67, 0
1, 25200, Note_on_c, 0, 60, 0
1, 25200, Note_on_c, 0, 74, 63
1, 25200, Note_on_c, 0, 59, 48
1, 25200, Control_c, 0, 64, 0
1, 25306, Control_c, 0, 64, 127
1, 25320, Note_on_c, 0, 74, 0
1, 25320, Note_on_c, 0, 67, 37
1, 25440, Note_on_c, 0, 67, 0
1, 25440, Note_on_c, 0, 74, 60
1, 25560, Note_on_c, 0, 74, 0
1, 25560, Note_on_c, 0, 67, 38
1, 25680, Tempo, 544316
1, 25680, Note_on_c, 0, 67, 0
1, 25680, Note_on_c, 0, 59, 0
1, 25680, Note_on_c, 0, 72, 58
1, 25680, Note_on_c, 0, 52, 40
1, 25698, Control_c, 0, 64, 0
1, 25765, Control_c, 0, 64, 127
1, 25800, Note_on_c, 0, 72, 0
1, 25800, Note_on_c, 0, 67, 38
1, 25920, Tempo, 534616
1, 25920, Note_on_c, 0, 67, 0
1, 25920, Note_on_c, 0, 52, 0
1, 25920, Note_on_c, 0, 71, 63
1, 25920, Note_on_c, 0, 50, 50
1, 25920, Control_c, 0, 64, 0
1, 26040, Note_on_c, 0, 71, 0
1, 26040, Note_on_c, 0, 74, 51
1, 26160, Note_on_c, 0, 74, 0
1, 26160, Note_on_c, 0, 71, 58
1, 26280, Note_on_c, 0, 71, 0
1, 26280, Note_on_c, 0, 67, 50
1, 26400, Note_on_c, 0, 67, 0
1, 26400, Note_on_c, 0, 50, 0
1, 26400, Note_on_c, 0, 69, 57
1, 26400, Note_on_c, 0, 38, 40
1, 26520, Note_on_c, 0, 69, 0
1, 26520, Note_on_c, 0, 66, 53
1, 26560, Tempo, 636740
1, 26640, Tempo, 537009
1, 26640, Note_on_c, 0, 66, 0
1, 26640, Note_on_c, 0, 38, 0
1, 26640, Note_on_c, 0, 67, 63
1, 26640, Note_on_c, 0, 43, 62
1, 26760, Note_on_c, 0, 43, 0
1, 26760, Note_on_c, 0, 55, 48
1, 26880, Note_on_c, 0, 55, 0
1, 26880, Note_on_c, 0, 45, 57
1, 27000, Note_on_c, 0, 45, 0
1, 27000, Note_on_c, 0, 57, 49
1, 27120, Note_on_c, 0, 57, 0
1, 27120, Note_on_c, 0, 67, 0
1, 27120, Note_on_c, 0, 47, 60
1, 27240, Note_on_c, 0, 47, 0
1, 27240, Note_on_c, 0, 59, 50
1, 27280, Tempo, 589797
1, 27360, Tempo, 529895
1, 27360, Note_on_c, 0, 59, 0
1, 27360, Note_on_c, 0, 45, 62
1, 27480, Note_on_c, 0, 45, 0
1, 27480, Note_on_c, 0, 57, 51
1, 27600, Note_on_c, 0, 57, 0
1, 27600, Note_on_c, 0, 47, 62
1, 27720, Note_on_c, 0, 47, 0
1, 27720, Note_on_c, 0, 59, 52
1, 27840, Note_on_c, 0, 59, 0
1, 27840, Note_on_c, 0, 48, 66
1, 27960, Note_on_c, 0, 48, 0
1, 27960, Note_on_c, 0, 60, 55
1, 28000, Tempo, 584055
1, 28080, Tempo, 529895
1, 28080, Note_on_c, 0, 60, 0
1, 28080, Note_on_c, 0, 47, 66
1, 28200, Note_on_c, 0, 47, 0
1, 28200, Note_on_c, 0, 59, 55
1, 28320, Note_on_c, 0, 59, 0
1, 28320, Note_on_c, 0, 48, 66
1, 28440, Note_on_c, 0, 48, 0
1, 28440, Note_on_c, 0, 60, 57
1, 28560, Note_on_c, 0, 60, 0
1, 28560, Note_on_c, 0, 50, 69
1, 28680, Note_on_c, 0, 50, 0
1, 28680, Note_on_c, 0, 62, 62
1, 28720, Tempo, 672420
1, 28800, Tempo, 564812
1, 28800, Note_on_c, 0, 62, 0
1, 28800, Note_on_c, 0, 52, 62
1, 28800, Note_on_c, 0, 64, 71
1, 29040, Tempo, 525256
1, 29040, Note_on_c, 0, 84, 63
1, 29120, Note_on_c, 0, 84, 0
1, 29120, Note_on_c, 0, 83, 57
1, 29200, Note_on_c, 0, 83, 0
1, 29200, Note_on_c, 0, 81, 57
1, 29280, Tempo, 541859
1, 29280, Note_on_c, 0, 81, 0
1, 29280, Note_on_c, 0, 64, 0
1, 29280, Note_on_c, 0, 52, 0
1, 29280, Note_on_c, 0, 79, 63
1, 29360, Note_on_c, 0, 79, 0
1, 29360, Note_on_c, 0, 78, 57
1, 29440, Tempo, 586912
1, 29440, Note_on_c, 0, 78, 0
1, 29440, Note_on_c, 0, 76, 56
1, 29520, Tempo, 532245
1, 29520, Note_on_c, 0, 76, 0
1, 29520, Note_on_c, 0, 74, 63
1, 29520, Note_on_c, 0, 54, 50
1, 29640, Note_on_c, 0, 74, 0
1, 29640, Note_on_c, 0, 81, 55
1, 29760, Note_on_c, 0, 81, 0
1, 29760, Note_on_c, 0, 84, 59
1, 29880, Note_on_c, 0, 84, 0
1, 29880, Note_on_c, 0, 81, 52
1, 30000, Note_on_c, 0, 81, 0
1, 30000, Note_on_c, 0, 54, 0
1, 30000, Note_on_c, 0, 83, 61
1, 30000, Note_on_c, 0, 55, 46
1, 30120, Note_on_c, 0, 83, 0
1, 30120, Note_on_c, 0, 79, 56
1, 30160, Tempo, 586912
1, 30240, Tempo, 575650
1, 30240, Note_on_c, 0, 79, 0
1, 30240, Note_on_c, 0, 55, 0
1, 30240, Note_on_c, 0, 81, 63
1, 30240, Note_on_c, 0, 60, 50
1, 30480, Note_on_c, 0, 60, 0
1, 30480, Note_on_c, 0, 81, 0
1, 30480, Note_on_c, 0, 79, 58
1, 30480, Note_on_c, 0, 62, 42
1, 30720, Tempo, 598623
1, 30720, Note_on_c, 0, 62, 0
1, 30720, Note_on_c, 0, 79, 0
1, 30720, Note_on_c, 0, 78, 53
1, 30720, Note_on_c, 0, 50, 42
1, 30735, Control_c, 0, 64, 127
1, 30768, Note_on_c, 0, 78, 0
1, 30768, Note_on_c, 0, 79, 48
1, 30816, Note_on_c, 0, 79, 0
1, 30816, Note_on_c, 0, 78, 53
1, 30864, Note_on_c, 0, 78, 0
1, 30864, Note_on_c, 0, 79, 48
1, 30880, Tempo, 633379
1, 30912, Note_on_c, 0, 79, 0
1, 30912, Note_on_c, 0, 78, 48
1, 30960, Tempo, 537009
1, 30960, Note_on_c, 0, 78, 0
1, 30960, Note_on_c, 0, 50, 0
1, 30960, Note_on_c, 0, 71, 63
1, 30960, Note_on_c, 0, 74, 63
1, 30960, Note_on_c, 0, 79, 63
1, 30960, Note_on_c, 0, 43, 62
1, 30967, Control_c, 0, 64, 0
1, 31080, Note_on_c, 0, 43, 0
1, 31080, Note_on_c, 0, 55, 48
1, 31200, Note_on_c, 0, 55, 0
1, 31200, Note_on_c, 0, 45, 57
1, 31320, Note_on_c, 0, 45, 0
1, 31320, Note_on_c, 0, 57, 49
1, 31440, Note_on_c, 0, 57, 0
1, 31440, Note_on_c, 0, 79, 0
1, 31440, Note_on_c, 0, 74, 0
1, 31440, Note_on_c, 0, 71, 0
1, 31440, Note_on_c, 0, 47, 60
1, 31560, Note_on_c, 0, 47, 0
1, 31560, Note_on_c, 0, 59, 50
1, 31600, Tempo, 607718
1, 31680, Tempo, 529895
1, 31680, Note_on_c, 0, 59, 0
1, 31680, Note_on_c, 0, 45, 62
1, 31800, Note_on_c, 0, 45, 0
1, 31800, Note_on_c, 0, 57, 51
1, 31920, Tempo, 525256
1, 31920, Note_on_c, 0, 57, 0
1, 31920, Note_on_c, 0, 47, 62
1, 32040, Note_on_c, 0, 47, 0
1, 32040, Note_on_c, 0, 59, 52
1, 32160, Note_on_c, 0, 59, 0
1, 32160, Note_on_c, 0, 48, 66
1, 32280, Note_on_c, 0, 48, 0
1, 32280, Note_on_c, 0, 60, 55
1, 32320, Tempo, 564812
1, 32400, Tempo, 522967
1, 32400, Note_on_c, 0, 60, 0
1, 32400, Note_on_c, 0, 47, 66
1, 32520, Note_on_c, 0, 47, 0
1, 32520, Note_on_c, 0, 59, 55
1, 32640, Tempo, 520698
1, 32640, Note_on_c, 0, 59, 0
1, 32640, Note_on_c, 0, 48, 66
1, 32760, Note_on_c, 0, 48, 0
1, 32760, Note_on_c, 0, 60, 57
1, 32880, Note_on_c, 0, 60, 0
1, 32880, Note_on_c, 0, 50, 69
1, 33000, Note_on_c, 0, 50, 0
1, 33000, Note_on_c, 0, 62, 62
1, 33040, Tempo, 643570
1, 33120, Tempo, 589797
1, 33120, Note_on_c, 0, 62, 0
1, 33120, Note_on_c, 0, 52, 62
1, 33120, Note_on_c, 0, 64, 71
1, 33360, Tempo, 509641
1, 33360, Note_on_c, 0, 84, 63
1, 33440, Note_on_c, 0, 84, 0
1, 33440, Note_on_c, 0, 83, 57
1, 33520, Note_on_c, 0, 83, 0
1, 33520, Note_on_c, 0, 81, 57
1, 33600, Tempo, 534616
1, 33600, Note_on_c, 0, 81, 0
1, 33600, Note_on_c, 0, 64, 0
1, 33600, Note_on_c, 0, 52, 0
1, 33600, Note_on_c, 0, 79, 63
1, 33680, Note_on_c, 0, 79, 0
1, 33680, Note_on_c, 0, 78, 57
1, 33760, Note_on_c, 0, 78, 0
1, 33760, Note_on_c, 0, 76, 56
1, 33840, Note_on_c, 0, 76, 0
1, 33840, Note_on_c, 0, 74, 63
1, 33840, Note_on_c, 0, 54, 50
1, 33960, Note_on_c, 0, 74, 0
1, 33960, Note_on_c, 0, 81, 55
1, 34080, Note_on_c, 0, 81, 0
1, 34080, Note_on_c, 0, 84, 59
1, 34200, Note_on_c, 0, 84, 0
1, 34200, Note_on_c, 0, 81, 52
1, 34320, Tempo, 549300
1, 34320, Note_on_c, 0, 81, 0
1, 34320, Note_on_c, 0, 54, 0
1, 34320, Note_on_c, 0, 83, 61
1, 34320, Note_on_c, 0, 55, 46
1, 34440, Note_on_c, 0, 83, 0
1, 34440, Note_on_c, 0, 79, 56
1, 34480, Tempo, 607718
1, 34560, Tempo, 581226
1, 34560, Note_on_c, 0, 79, 0
1, 34560, Note_on_c, 0, 55, 0
1, 34560, Note_on_c, 0, 81, 63
1, 34560, Note_on_c, 0, 60, 50
1, 34800, Note_on_c, 0, 60, 0
1, 34800, Note_on_c, 0, 81, 0
1, 34800, Note_on_c, 0, 79, 58
1, 34800, Note_on_c, 0, 62, 42
1, 35040, Tempo, 607718
1, 35040, Note_on_c, 0, 62, 0
1, 35040, Note_on_c, 0, 79, 0
1, 35040, Note_on_c, 0, 78, 53
1, 35040, Note_on_c, 0, 50, 42
1, 35083, Control_c, 0, 64, 127
1, 35088, Note_on_c, 0, 78, 0
1, 35088, Note_on_c, 0, 79, 48
1, 35136, Note_on_c, 0, 79, 0
1, 35136, Note_on_c, 0, 78, 53
1, 35184, Note_on_c, 0, 78, 0
1, 35184, Note_on_c, 0, 79, 48
1, 35232, Note_on_c, 0, 79, 0
1, 35232, Note_on_c, 0, 78, 48
1, 35280, Tempo, 589797
1, 35280, Note_on_c, 0, 78, 0
1, 35280, Note_on_c, 0, 50, 0
1, 35280, Note_on_c, 0, 71, 63
1, 35280, Note_on_c, 0, 74, 63
1, 35280, Note_on_c, 0, 79, 63
1, 35280, Note_on_c, 0, 55, 50
1, 35287, Control_c, 0, 64, 0
1, 35520, Tempo, 613936
1, 35520, Note_on_c, 0, 55, 0
1, 35520, Note_on_c, 0, 50, 38
1, 35760, Tempo, 708132
1, 35760, Note_on_c, 0, 50, 0
1, 35760, Note_on_c, 0, 79, 0
1, 35760, Note_on_c, 0, 74, 0
1, 35760, Note_on_c, 0, 71, 0
1, 35760, Note_on_c, 0, 43, 46
1, 36000, Tempo, 530786
1, 36000, Marker_t, "Teil 2"
1, 36000, Note_on_c, 0, 43, 0
1, 36000, Note_on_c, 0, 79, 69
1, 36000, Note_on_c, 0, 55, 40
1, 36036, Control_c, 0, 64, 127
1, 36120, Note_on_c, 0, 55, 0
1, 36120, Note_on_c, 0, 62, 32
1, 36240, Note_on_c, 0, 62, 0
1, 36240, Note_on_c, 0, 59, 40
1, 36360, Note_on_c, 0, 59, 0
1, 36360, Note_on_c, 0, 62, 32
1, 36480, Note_on_c, 0, 62, 0
1, 36480, Note_on_c, 0, 79, 0
1, 36480, Note_on_c, 0, 83, 61
1, 36480, Note_on_c, 0, 55, 40
1, 36486, Control_c, 0, 64, 0
1, 36551, Control_c, 0, 64, 127
1, 36560, Note_on_c, 0, 83, 0
1, 36560, Note_on_c, 0, 81, 51
1, 36600, Note_on_c, 0, 55, 0
1, 36600, Note_on_c, 0, 62, 33
1, 36640, Tempo, 595652
1, 36640, Note_on_c, 0, 81, 0
1, 36640, Note_on_c, 0, 79, 51
1, 36720, Tempo, 529895
1, 36720, Note_on_c, 0, 79, 0
1, 36720, Note_on_c, 0, 62, 0
1, 36720, Note_on_c, 0, 86, 69
1, 36720, Note_on_c, 0, 55, 40
1, 36720, Control_c, 0, 64, 0
1, 36777, Control_c, 0, 64, 127
1, 36840, Note_on_c, 0, 55, 0
1, 36840, Note_on_c, 0, 62, 32
1, 36960, Tempo, 539423
1, 36960, Note_on_c, 0, 62, 0
1, 36960, Note_on_c, 0, 59, 37
1, 37080, Tempo, 559545
1, 37080, Note_on_c, 0, 59, 0
1, 37080, Note_on_c, 0, 62, 33
1, 37120, Tempo, 554375
1, 37200, Tempo, 539423
1, 37200, Note_on_c, 0, 62, 0
1, 37200, Note_on_c, 0, 86, 0
1, 37200, Note_on_c, 0, 77, 52
1, 37200, Note_on_c, 0, 55, 40
1, 37320, Note_on_c, 0, 55, 0
1, 37320, Note_on_c, 0, 62, 35
1, 37360, Tempo, 607718
1, 37440, Tempo, 541859
1, 37440, Note_on_c, 0, 62, 0
1, 37440, Note_on_c, 0, 77, 0
1, 37440, Note_on_c, 0, 76, 60
1, 37440, Note_on_c, 0, 60, 40
1, 37446, Control_c, 0, 64, 0
1, 37510, Control_c, 0, 64, 127
1, 37560, Note_on_c, 0, 76, 0
1, 37560, Note_on_c, 0, 67, 35
1, 37680, Note_on_c, 0, 67, 0
1, 37680, Note_on_c, 0, 60, 0
1, 37680, Note_on_c, 0, 74, 60
1, 37680, Note_on_c, 0, 59, 45
1, 37682, Control_c, 0, 64, 0
1, 37744, Control_c, 0, 64, 127
1, 37800, Note_on_c, 0, 74, 0
1, 37800, Note_on_c, 0, 67, 39
1, 37840, Tempo, 592710
1, 37920, Tempo, 539423
1, 37920, Note_on_c, 0, 67, 0
1, 37920, Note_on_c, 0, 59, 0
1, 37920, Note_on_c, 0, 77, 60
1, 37920, Note_on_c, 0, 62, 36
1, 37926, Control_c, 0, 64, 0
1, 38012, Control_c, 0, 64, 127
1, 38040, Note_on_c, 0, 77, 0
1, 38040, Note_on_c, 0, 67, 40
1, 38160, Tempo, 532245
1, 38160, Note_on_c, 0, 67, 0
1, 38160, Note_on_c, 0, 62, 0
1, 38160, Note_on_c, 0, 76, 60
1, 38160, Note_on_c, 0, 60, 40
1, 38160, Control_c, 0, 64, 0
1, 38210, Control_c, 0, 64, 127
1, 38280, Note_on_c, 0, 76, 0
1, 38280, Note_on_c, 0, 67, 35
1, 38400, Tempo, 527565
1, 38400, Note_on_c, 0, 67, 0
1, 38400, Note_on_c, 0, 60, 0
1, 38400, Note_on_c, 0, 74, 60
1, 38400, Note_on_c, 0, 59, 45
1, 38418, Control_c, 0, 64, 0
1, 38480, Tempo, 556948
1, 38492, Control_c, 0, 64, 127
1, 38520, Note_on_c, 0, 74, 0
1, 38520, Note_on_c, 0, 67, 39
1, 38560, Tempo, 650548
1, 38640, Tempo, 546797
1, 38640, Note_on_c, 0, 67, 0
1, 38640, Note_on_c, 0, 59, 0
1, 38640, Note_on_c, 0, 79, 61
1, 38640, Note_on_c, 0, 64, 43
1, 38650, Control_c, 0, 64, 0
1, 38746, Control_c, 0, 64, 127
1, 38760, Note_on_c, 0, 79, 0
1, 38760, Note_on_c, 0, 67, 38
1, 38876, Note_on_c, 0, 64, 0
1, 38880, Tempo, 537009
1, 38880, Note_on_c, 0, 67, 0
1, 38880, Note_on_c, 0, 79, 63
1, 38880, Note_on_c, 0, 64, 48
1, 38896, Control_c, 0, 64, 0
1, 38958, Control_c, 0, 64, 127
1, 39000, Note_on_c, 0, 79, 0
1, 39000, Note_on_c, 0, 67, 37
1, 39120, Tempo, 544316
1, 39120, Note_on_c, 0, 67, 0
1, 39120, Note_on_c, 0, 64, 0
1, 39120, Note_on_c, 0, 77, 60
1, 39120, Note_on_c, 0, 62, 45
1, 39129, Control_c, 0, 64, 0
1, 39198, Control_c, 0, 64, 127
1, 39240, Note_on_c, 0, 77, 0
1, 39240, Note_on_c, 0, 67, 38
1, 39360, Tempo, 551826
1, 39360, Note_on_c, 0, 67, 0
1, 39360, Note_on_c, 0, 62, 0
1, 39360, Note_on_c, 0, 76, 58
1, 39360, Note_on_c, 0, 60, 40
1, 39369, Control_c, 0, 64, 0
1, 39452, Control_c, 0, 64, 127
1, 39480, Tempo, 546797
1, 39480, Note_on_c, 0, 76, 0
1, 39480, Note_on_c, 0, 67, 38
1, 39520, Tempo, 534616
1, 39600, Tempo, 544316
1, 39600, Note_on_c, 0, 67, 0
1, 39600, Note_on_c, 0, 60, 0
1, 39600, Note_on_c, 0, 74, 60
1, 39600, Note_on_c, 0, 55, 40
1, 39600, Control_c, 0, 64, 0
1, 39678, Control_c, 0, 64, 127
1, 39720, Note_on_c, 0, 55, 0
1, 39720, Note_on_c, 0, 62, 32
1, 39840, Note_on_c, 0, 62, 0
1, 39840, Note_on_c, 0, 59, 40
1, 39960, Note_on_c, 0, 59, 0
1, 39960, Note_on_c, 0, 62, 32
1, 40080, Note_on_c, 0, 62, 0
1, 40080, Note_on_c, 0, 74, 0
1, 40080, Note_on_c, 0, 55, 40
1, 40200, Tempo, 610811
1, 40200, Note_on_c, 0, 55, 0
1, 40200, Note_on_c, 0, 62, 33
1, 40320, Tempo, 541859
1, 40320, Note_on_c, 0, 62, 0
1, 40320, Note_on_c, 0, 79, 69
1, 40320, Note_on_c, 0, 55, 40
1, 40320, Control_c, 0, 64, 0
1, 40356, Control_c, 0, 64, 127
1, 40440, Note_on_c, 0, 55, 0
1, 40440, Note_on_c, 0, 62, 32
1, 40560, Tempo, 527565
1, 40560, Note_on_c, 0, 62, 0
1, 40560, Note_on_c, 0, 59, 40
1, 40680, Note_on_c, 0, 59, 0
1, 40680, Note_on_c, 0, 62, 32
1, 40800, Note_on_c, 0, 62, 0
1, 40800, Note_on_c, 0, 79, 0
1, 40800, Note_on_c, 0, 83, 61
1, 40800, Note_on_c, 0, 55, 40
1, 40806, Control_c, 0, 64, 0
1, 40871, Control_c, 0, 64, 127
1, 40880, Note_on_c, 0, 83, 0
1, 40880, Note_on_c, 0, 81, 51
1, 40920, Note_on_c, 0, 55, 0
1, 40920, Note_on_c, 0, 62, 33
1, 40960, Tempo, 595652
1, 40960, Note_on_c, 0, 81, 0
1, 40960, Note_on_c, 0, 79, 51
1, 41040, Tempo, 529895
1, 41040, Note_on_c, 0, 79, 0
1, 41040, Note_on_c, 0, 62, 0
1, 41040, Note_on_c, 0, 86, 69
1, 41040, Note_on_c, 0, 55, 40
1, 41040, Control_c, 0, 64, 0
1, 41097, Control_c, 0, 64, 127
1, 41160, Note_on_c, 0, 55, 0
1, 41160, Note_on_c, 0, 62, 32
1, 41280, Note_on_c, 0, 62, 0
1, 41280, Note_on_c, 0, 59, 37
1, 41400, Note_on_c, 0, 59, 0
1, 41400, Note_on_c, 0, 62, 33
1, 41440, Tempo, 554375
1, 41520, Tempo, 537009
1, 41520, Note_on_c, 0, 62, 0
1, 41520, Note_on_c, 0, 86, 0
1, 41520, Note_on_c, 0, 77, 44
1, 41520, Note_on_c, 0, 55, 34
1, 41640, Note_on_c, 0, 55, 0
1, 41640, Note_on_c, 0, 62, 29
1, 41680, Tempo, 607718
1, 41760, Tempo, 544316
1, 41760, Note_on_c, 0, 62, 0
1, 41760, Note_on_c, 0, 77, 0
1, 41760, Note_on_c, 0, 75, 51
1, 41760, Note_on_c, 0, 60, 34
1, 41766, Control_c, 0, 64, 0
1, 41830, Control_c, 0, 64, 127
1, 41880, Note_on_c, 0, 75, 0
1, 41880, Note_on_c, 0, 67, 29
1, 42000, Note_on_c, 0, 67, 0
1, 42000, Note_on_c, 0, 60, 0
1, 42000, Note_on_c, 0, 74, 51
1, 42000, Note_on_c, 0, 59, 38
1, 42002, Control_c, 0, 64, 0
1, 42064, Control_c, 0, 64, 127
1, 42120, Note_on_c, 0, 74, 0
1, 42120, Note_on_c, 0, 67, 33
1, 42160, Tempo, 592710
1, 42240, Tempo, 541859
1, 42240, Note_on_c, 0, 67, 0
1, 42240, Note_on_c, 0, 59, 0
1, 42240, Note_on_c, 0, 77, 51
1, 42240, Note_on_c, 0, 62, 30
1, 42246, Control_c, 0, 64, 0
1, 42332, Control_c, 0, 64, 127
1, 42360, Note_on_c, 0, 77, 0
1, 42360, Note_on_c, 0, 67, 34
1, 42480, Tempo, 537009
1, 42480, Note_on_c, 0, 67, 0
1, 42480, Note_on_c, 0, 62, 0
1, 42480, Note_on_c, 0, 75, 51
1, 42480, Note_on_c, 0, 60, 34
1, 42480, Control_c, 0, 64, 0
1, 42530, Control_c, 0, 64, 127
1, 42600, Note_on_c, 0, 75, 0
1, 42600, Note_on_c, 0, 67, 29
1, 42720, Tempo, 527565
1, 42720, Note_on_c, 0, 67, 0
1, 42720, Note_on_c, 0, 60, 0
1, 42720, Note_on_c, 0, 74, 51
1, 42720, Note_on_c, 0, 59, 38
1, 42738, Control_c, 0, 64, 0
1, 42800, Tempo, 556948
1, 42812, Control_c, 0, 64, 127
1, 42840, Tempo, 567483
1, 42840, Note_on_c, 0, 74, 0
1, 42840, Note_on_c, 0, 67, 33
1, 42880, Tempo, 650548
1, 42960, Tempo, 556948
1, 42960, Note_on_c, 0, 67, 0
1, 42960, Note_on_c, 0, 59, 0
1, 42960, Note_on_c, 0, 79, 51
1, 42960, Note_on_c, 0, 63, 36
1, 42970, Control_c, 0, 64, 0
1, 43066, Control_c, 0, 64, 127
1, 43080, Note_on_c, 0, 79, 0
1, 43080, Note_on_c, 0, 67, 32
1, 43195, Note_on_c, 0, 63, 0
1, 43200, Tempo, 549300
1, 43200, Note_on_c, 0, 67, 0
1, 43200, Note_on_c, 0, 79, 53
1, 43200, Note_on_c, 0, 63, 40
1, 43216, Control_c, 0, 64, 0
1, 43278, Control_c, 0, 64, 127
1, 43320, Note_on_c, 0, 79, 0
1, 43320, Note_on_c, 0, 67, 31
1, 43440, Note_on_c, 0, 67, 0
1, 43440, Note_on_c, 0, 63, 0
1, 43440, Note_on_c, 0, 77, 51
1, 43440, Note_on_c, 0, 62, 38
1, 43449, Control_c, 0, 64, 0
1, 43518, Control_c, 0, 64, 127
1, 43560, Note_on_c, 0, 77, 0
1, 43560, Note_on_c, 0, 67, 32
1, 43680, Tempo, 564812
1, 43680, Note_on_c, 0, 67, 0
1, 43680, Note_on_c, 0, 62, 0
1, 43680, Note_on_c, 0, 75, 49
1, 43680, Note_on_c, 0, 60, 34
1, 43689, Control_c, 0, 64, 0
1, 43772, Control_c, 0, 64, 127
1, 43800, Tempo, 554375
1, 43800, Note_on_c, 0, 75, 0
1, 43800, Note_on_c, 0, 67, 32
1, 43840, Tempo, 549300
1, 43920, Tempo, 556948
1, 43920, Note_on_c, 0, 67, 0
1, 43920, Note_on_c, 0, 60, 0
1, 43920, Note_on_c, 0, 74, 51
1, 43920, Note_on_c, 0, 55, 34
1, 43920, Control_c, 0, 64, 0
1, 43998, Control_c, 0, 64, 127
1, 44040, Note_on_c, 0, 55, 0
1, 44040, Note_on_c, 0, 62, 27
1, 44160, Note_on_c, 0, 62, 0
1, 44160, Note_on_c, 0, 59, 34
1, 44280, Note_on_c, 0, 59, 0
1, 44280, Note_on_c, 0, 62, 27
1, 44400, Tempo, 575650
1, 44400, Note_on_c, 0, 62, 0
1, 44400, Note_on_c, 0, 74, 0
1, 44400, Note_on_c, 0, 55, 34
1, 44520, Note_on_c, 0, 55, 0
1, 44520, Note_on_c, 0, 62, 28
1, 44560, Tempo, 738643
1, 44640, Tempo, 570180
1, 44640, Note_on_c, 0, 62, 0
1, 44640, Note_on_c, 0, 72, 60
1, 44640, Note_on_c, 0, 60, 40
1, 44640, Control_c, 0, 64, 0
1, 44707, Control_c, 0, 64, 127
1, 44760, Note_on_c, 0, 60, 0
1, 44760, Note_on_c, 0, 67, 32
1, 44880, Tempo, 534616
1, 44880, Note_on_c, 0, 67, 0
1, 44880, Note_on_c, 0, 64, 40
1, 45000, Note_on_c, 0, 64, 0
1, 45000, Note_on_c, 0, 67, 32
1, 45120, Note_on_c, 0, 67, 0
1, 45120, Note_on_c, 0, 72, 0
1, 45120, Note_on_c, 0, 76, 55
1, 45120, Note_on_c, 0, 60, 40
1, 45130, Control_c, 0, 64, 0
1, 45200, Note_on_c, 0, 76, 0
1, 45200, Note_on_c, 0, 74, 49
1, 45240, Note_on_c, 0, 60, 0
1, 45240, Note_on_c, 0, 67, 33
1, 45280, Tempo, 581226
1, 45280, Note_on_c, 0, 74, 0
1, 45280, Note_on_c, 0, 72, 49
1, 45360, Tempo, 534616
1, 45360, Note_on_c, 0, 72, 0
1, 45360, Note_on_c, 0, 67, 0
1, 45360, Note_on_c, 0, 79, 60
1, 45360, Note_on_c, 0, 59, 40
1, 45452, Control_c, 0, 64, 127
1, 45480, Note_on_c, 0, 59, 0
1, 45480, Note_on_c, 0, 67, 32
1, 45600, Note_on_c, 0, 67, 0
1, 45600, Note_on_c, 0, 62, 37
1, 45720, Note_on_c, 0, 62, 0
1, 45720, Note_on_c, 0, 67, 33
1, 45840, Tempo, 562166
1, 45840, Note_on_c, 0, 67, 0
1, 45840, Note_on_c, 0, 79, 0
1, 45840, Note_on_c, 0, 77, 52
1, 45840, Note_on_c, 0, 59, 40
1, 45849, Control_c, 0, 64, 0
1, 45918, Control_c, 0, 64, 127
1, 45960, Note_on_c, 0, 59, 0
1, 45960, Note_on_c, 0, 67, 35
1, 46080, Tempo, 539423
1, 46080, Note_on_c, 0, 67, 0
1, 46080, Note_on_c, 0, 77, 0
1, 46080, Note_on_c, 0, 76, 60
1, 46080, Note_on_c, 0, 60, 40
1, 46123, Control_c, 0, 64, 0
1, 46560, Note_on_c, 0, 60, 0
1, 46560, Note_on_c, 0, 76, 0
1, 46560, Note_on_c, 0, 76, 60
1, 46560, Note_on_c, 0, 60, 36
1, 46569, Control_c, 0, 64, 127
1, 46680, Note_on_c, 0, 76, 0
1, 46680, Note_on_c, 0, 67, 40
1, 46800, Tempo, 529895
1, 46800, Note_on_c, 0, 67, 0
1, 46800, Note_on_c, 0, 60, 0
1, 46800, Note_on_c, 0, 74, 60
1, 46800, Note_on_c, 0, 59, 40
1, 46800, Control_c, 0, 64, 0
1, 46899, Control_c, 0, 64, 127
1, 46920, Note_on_c, 0, 74, 0
1, 46920, Note_on_c, 0, 67, 35
1, 47040, Note_on_c, 0, 67, 0
1, 47040, Note_on_c, 0, 74, 60
1, 47160, Note_on_c, 0, 74, 0
1, 47160, Note_on_c, 0, 67, 39
1, 47280, Note_on_c, 0, 67, 0
1, 47280, Note_on_c, 0, 59, 0
1, 47280, Note_on_c, 0, 76, 61
1, 47280, Note_on_c, 0, 60, 43
1, 47293, Control_c, 0, 64, 0
1, 47358, Control_c, 0, 64, 127
1, 47400, Note_on_c, 0, 76, 0
1, 47400, Note_on_c, 0, 67, 38
1, 47520, Tempo, 534616
1, 47520, Note_on_c, 0, 67, 0
1, 47520, Note_on_c, 0, 60, 0
1, 47520, Note_on_c, 0, 77, 63
1, 47520, Note_on_c, 0, 62, 48
1, 47520, Control_c, 0, 64, 0
1, 47626, Control_c, 0, 64, 127
1, 47640, Note_on_c, 0, 77, 0
1, 47640, Note_on_c, 0, 67, 37
1, 47760, Note_on_c, 0, 67, 0
1, 47760, Note_on_c, 0, 62, 0
1, 47760, Note_on_c, 0, 76, 60
1, 47760, Note_on_c, 0, 60, 40
1, 47774, Control_c, 0, 64, 0
1, 47838, Control_c, 0, 64, 127
1, 47880, Note_on_c, 0, 76, 0
1, 47880, Note_on_c, 0, 67, 38
1, 48000, Tempo, 544316
1, 48000, Note_on_c, 0, 67, 0
1, 48000, Note_on_c, 0, 60, 0
1, 48000, Note_on_c, 0, 74, 58
1, 48000, Note_on_c, 0, 59, 40
1, 48018, Control_c, 0, 64, 0
1, 48085, Control_c, 0, 64, 127
1, 48120, Note_on_c, 0, 74, 0
1, 48120, Note_on_c, 0, 67, 38
1, 48240, Tempo, 537009
1, 48240, Note_on_c, 0, 67, 0
1, 48240, Note_on_c, 0, 59, 0
1, 48240, Note_on_c, 0, 76, 60
1, 48240, Note_on_c, 0, 48, 62
1, 48240, Control_c, 0, 64, 0
1, 48360, Note_on_c, 0, 48, 0
1, 48360, Note_on_c, 0, 60, 48
1, 48480, Note_on_c, 0, 60, 0
1, 48480, Note_on_c, 0, 50, 57
1, 48600, Note_on_c, 0, 50, 0
1, 48600, Note_on_c, 0, 62, 49
1, 48720, Note_on_c, 0, 62, 0
1, 48720, Note_on_c, 0, 76, 0
1, 48720, Note_on_c, 0, 52, 60
1, 48840, Note_on_c, 0, 52, 0
1, 48840, Note_on_c, 0, 64, 50
1, 48880, Tempo, 589797
1, 48960, Tempo, 529895
1, 48960, Note_on_c, 0, 64, 0
1, 48960, Note_on_c, 0, 50, 62
1, 49080, Note_on_c, 0, 50, 0
1, 49080, Note_on_c, 0, 62, 51
1, 49200, Note_on_c, 0, 62, 0
1, 49200, Note_on_c, 0, 52, 62
1, 49320, Note_on_c, 0, 52, 0
1, 49320, Note_on_c, 0, 64, 52
1, 49440, Note_on_c, 0, 64, 0
1, 49440, Note_on_c, 0, 53, 66
1, 49560, Note_on_c, 0, 53, 0
1, 49560, Note_on_c, 0, 65, 55
1, 49600, Tempo, 584055
1, 49680, Tempo, 529895
1, 49680, Note_on_c, 0, 65, 0
1, 49680, Note_on_c, 0, 52, 66
1, 49800, Note_on_c, 0, 52, 0
1, 49800, Note_on_c, 0, 64, 55
1, 49920, Note_on_c, 0, 64, 0
1, 49920, Note_on_c, 0, 53, 66
1, 50040, Note_on_c, 0, 53, 0
1, 50040, Note_on_c, 0, 65, 57
1, 50160, Note_on_c, 0, 65, 0
1, 50160, Note_on_c, 0, 55, 69
1, 50280, Note_on_c, 0, 55, 0
1, 50280, Note_on_c, 0, 67, 62
1, 50320, Tempo, 672420
1, 50400, Tempo, 564812
1, 50400, Note_on_c, 0, 67, 0
1, 50400, Note_on_c, 0, 45, 62
1, 50400, Note_on_c, 0, 57, 71
1, 50640, Tempo, 525256
1, 50640, Note_on_c, 0, 77, 63
1, 50720, Note_on_c, 0, 77, 0
1, 50720, Note_on_c, 0, 76, 57
1, 50800, Note_on_c, 0, 76, 0
1, 50800, Note_on_c, 0, 74, 57
1, 50880, Tempo, 541859
1, 50880, Note_on_c, 0, 74, 0
1, 50880, Note_on_c, 0, 57, 0
1, 50880, Note_on_c, 0, 45, 0
1, 50880, Note_on_c, 0, 72, 63
1, 50960, Note_on_c, 0, 72, 0
1, 50960, Note_on_c, 0, 71, 57
1, 51040, Tempo, 586912
1, 51040, Note_on_c, 0, 71, 0
1, 51040, Note_on_c, 0, 69, 56
1, 51120, Tempo, 532245
1, 51120, Note_on_c, 0, 69, 0
1, 51120, Note_on_c, 0, 67, 63
1, 51120, Note_on_c, 0, 59, 50
1, 51240, Note_on_c, 0, 67, 0
1, 51240, Note_on_c, 0, 74, 55
1, 51360, Note_on_c, 0, 74, 0
1, 51360, Note_on_c, 0, 77, 59
1, 51480, Note_on_c, 0, 77, 0
1, 51480, Note_on_c, 0, 74, 52
1, 51600, Note_on_c, 0, 74, 0
1, 51600, Note_on_c, 0, 59, 0
1, 51600, Note_on_c, 0, 76, 61
1, 51600, Note_on_c, 0, 60, 46
1, 51720, Note_on_c, 0, 76, 0
1, 51720, Note_on_c, 0, 72, 56
1, 51760, Tempo, 586912
1, 51840, Tempo, 575650
1, 51840, Note_on_c, 0, 72, 0
1, 51840, Note_on_c, 0, 60, 0
1, 51840, Note_on_c, 0, 74, 63
1, 51840, Note_on_c, 0, 53, 50
1, 52080, Note_on_c, 0, 53, 0
1, 52080, Note_on_c, 0, 74, 0
1, 52080, Note_on_c, 0, 72, 58
1, 52080, Note_on_c, 0, 55, 42
1, 52320, Note_on_c, 0, 55, 0
1, 52320, Note_on_c, 0, 72, 0
1, 52320, Note_on_c, 0, 71, 53
1, 52320, Note_on_c, 0, 43, 42
1, 52335, Control_c, 0, 64, 127
1, 52368, Note_on_c, 0, 71, 0
1, 52368, Note_on_c, 0, 72, 48
1, 52416, Note_on_c, 0, 72, 0
1, 52416, Note_on_c, 0, 71, 53
1, 52464, Note_on_c, 0, 71, 0
1, 52464, Note_on_c, 0, 72, 48
1, 52480, Tempo, 633379
1, 52512, Note_on_c, 0, 72, 0
1, 52512, Note_on_c, 0, 71, 48
1, 52560, Tempo, 537009
1, 52560, Note_on_c, 0, 71, 0
1, 52560, Note_on_c, 0, 43, 0
1, 52560, Note_on_c, 0, 72, 63
1, 52560, Note_on_c, 0, 48, 62
1, 52567, Control_c, 0, 64, 0
1, 52680, Note_on_c, 0, 48, 0
1, 52680, Note_on_c, 0, 60, 48
1, 52800, Note_on_c, 0, 60, 0
1, 52800, Note_on_c, 0, 50, 57
1, 52920, Note_on_c, 0, 50, 0
1, 52920, Note_on_c, 0, 62, 49
1, 53040, Note_on_c, 0, 62, 0
1, 53040, Note_on_c, 0, 72, 0
1, 53040, Note_on_c, 0, 52, 60
1, 53160, Note_on_c, 0, 52, 0
1, 53160, Note_on_c, 0, 64, 50
1, 53200, Tempo, 607718
1, 53280, Tempo, 529895
1, 53280, Note_on_c, 0, 64, 0
1, 53280, Note_on_c, 0, 50, 62
1, 53400, Note_on_c, 0, 50, 0
1, 53400, Note_on_c, 0, 62, 51
1, 53520, Note_on_c, 0, 62, 0
1, 53520, Note_on_c, 0, 52, 62
1, 53640, Note_on_c, 0, 52, 0
1, 53640, Note_on_c, 0, 64, 52
1, 53760, Note_on_c, 0, 64, 0
1, 53760, Note_on_c, 0, 53, 66
1, 53880, Note_on_c, 0, 53, 0
1, 53880, Note_on_c, 0, 65, 55
1, 53920, Tempo, 564812
1, 54000, Tempo, 522967
1, 54000, Note_on_c, 0, 65, 0
1, 54000, Note_on_c, 0, 52, 66
1, 54120, Note_on_c, 0, 52, 0
1, 54120, Note_on_c, 0, 64, 55
1, 54240, Note_on_c, 0, 64, 0
1, 54240, Note_on_c, 0, 53, 66
1, 54360, Note_on_c, 0, 53, 0
1, 54360, Note_on_c, 0, 65, 57
1, 54480, Note_on_c, 0, 65, 0
1, 54480, Note_on_c, 0, 55, 69
1, 54600, Note_on_c, 0, 55, 0
1, 54600, Note_on_c, 0, 67, 62
1, 54640, Tempo, 643570
1, 54720, Tempo, 589797
1, 54720, Note_on_c, 0, 67, 0
1, 54720, Note_on_c, 0, 45, 62
1, 54720, Note_on_c, 0, 57, 71
1, 54960, Tempo, 509641
1, 54960, Note_on_c, 0, 77, 63
1, 55040, Note_on_c, 0, 77, 0
1, 55040, Note_on_c, 0, 76, 57
1, 55120, Note_on_c, 0, 76, 0
1, 55120, Note_on_c, 0, 74, 57
1, 55200, Tempo, 534616
1, 55200, Note_on_c, 0, 74, 0
1, 55200, Note_on_c, 0, 57, 0
1, 55200, Note_on_c, 0, 45, 0
1, 55200, Note_on_c, 0, 72, 63
1, 55280, Note_on_c, 0, 72, 0
1, 55280, Note_on_c, 0, 71, 57
1, 55360, Note_on_c, 0, 71, 0
1, 55360, Note_on_c, 0, 69, 56
1, 55440, Note_on_c, 0, 69, 0
1, 55440, Note_on_c, 0, 67, 63
1, 55440, Note_on_c, 0, 59, 50
1, 55560, Note_on_c, 0, 67, 0
1, 55560, Note_on_c, 0, 74, 55
1, 55680, Note_on_c, 0, 74, 0
1, 55680, Note_on_c, 0, 77, 59
1, 55800, Note_on_c, 0, 77, 0
1, 55800, Note_on_c, 0, 74, 52
1, 55920, Tempo, 549300
1, 55920, Note_on_c, 0, 74, 0
1, 55920, Note_on_c, 0, 59, 0
1, 55920, Note_on_c, 0, 76, 61
1, 55920, Note_on_c, 0, 60, 46
1, 56040, Note_on_c, 0, 76, 0
1, 56040, Note_on_c, 0, 72, 56
1, 56080, Tempo, 607718
1, 56160, Tempo, 581226
1, 56160, Note_on_c, 0, 72, 0
1, 56160, Note_on_c, 0, 60, 0
1, 56160, Note_on_c, 0, 74, 63
1, 56160, Note_on_c, 0, 53, 50
1, 56400, Note_on_c, 0, 53, 0
1, 56400, Note_on_c, 0, 74, 0
1, 56400, Note_on_c, 0, 72, 58
1, 56400, Note_on_c, 0, 55, 42
1, 56640, Tempo, 601624
1, 56640, Note_on_c, 0, 55, 0
1, 56640, Note_on_c, 0, 72, 0
1, 56640, Note_on_c, 0, 71, 53
1, 56640, Note_on_c, 0, 43, 42
1, 56683, Control_c, 0, 64, 127
1, 56688, Note_on_c, 0, 71, 0
1, 56688, Note_on_c, 0, 72, 48
1, 56736, Note_on_c, 0, 72, 0
1, 56736, Note_on_c, 0, 71, 53
1, 56784, Note_on_c, 0, 71, 0
1, 56784, Note_on_c, 0, 72, 48
1, 56832, Note_on_c, 0, 72, 0
1, 56832, Note_on_c, 0, 71, 48
1, 56880, Tempo, 617093
1, 56880, Note_on_c, 0, 71, 0
1, 56880, Note_on_c, 0, 43, 0
1, 56880, Note_on_c, 0, 72, 63
1, 56880, Note_on_c, 0, 48, 50
1, 56887, Control_c, 0, 64, 0
1, 57120, Tempo, 661303
1, 57120, Note_on_c, 0, 48, 0
1, 57120, Note_on_c, 0, 36, 38
1, 57360, Note_on_c, 0, 36, 0
1, 57360, Note_on_c, 0, 72, 0
1, 57600, Tempo, 530786
1, 57600, Marker_t, "Teil 2 Wiederholung"
1, 57600, Note_on_c, 0, 79, 69
1, 57600, Note_on_c, 0, 55, 40
1, 57636, Control_c, 0, 64, 127
1, 57720, Note_on_c, 0, 55, 0
1, 57720, Note_on_c, 0, 62, 32
1, 57840, Note_on_c, 0, 62, 0
1, 57840, Note_on_c, 0, 59, 40
1, 57960, Note_on_c, 0, 59, 0
1, 57960, Note_on_c, 0, 62, 32
1, 58080, Note_on_c, 0, 62, 0
1, 58080, Note_on_c, 0, 79, 0
1, 58080, Note_on_c, 0, 83, 61
1, 58080, Note_on_c, 0, 55, 40
1, 58086, Control_c, 0, 64, 0
1, 58151, Control_c, 0, 64, 127
1, 58160, Note_on_c, 0, 83, 0
1, 58160, Note_on_c, 0, 81, 51
1, 58200, Note_on_c, 0, 55, 0
1, 58200, Note_on_c, 0, 62, 33
1, 58240, Tempo, 595652
1, 58240, Note_on_c, 0, 81, 0
1, 58240, Note_on_c, 0, 79, 51
1, 58320, Tempo, 529895
1, 58320, Note_on_c, 0, 79, 0
1, 58320, Note_on_c, 0, 62, 0
1, 58320, Note_on_c, 0, 86, 69
1, 58320, Note_on_c, 0, 55, 40
1, 58320, Control_c, 0, 64, 0
1, 58377, Control_c, 0, 64, 127
1, 58440, Note_on_c, 0, 55, 0
1, 58440, Note_on_c, 0, 62, 32
1, 58560, Note_on_c, 0, 62, 0
1, 58560, Note_on_c, 0, 59, 37
1, 58680, Tempo, 567483
1, 58680, Note_on_c, 0, 59, 0
1, 58680, Note_on_c, 0, 62, 33
1, 58720, Tempo, 554375
1, 58800, Tempo, 549300
1, 58800, Note_on_c, 0, 62, 0
1, 58800, Note_on_c, 0, 86, 0
1, 58800, Note_on_c, 0, 77, 52
1, 58800, Note_on_c, 0, 55, 40
1, 58920, Note_on_c, 0, 55, 0
1, 58920, Note_on_c, 0, 62, 35
1, 58960, Tempo, 607718
1, 59040, Tempo, 544316
1, 59040, Note_on_c, 0, 62, 0
1, 59040, Note_on_c, 0, 77, 0
1, 59040, Note_on_c, 0, 76, 60
1, 59040, Note_on_c, 0, 60, 40
1, 59046, Control_c, 0, 64, 0
1, 59110, Control_c, 0, 64, 127
1, 59160, Note_on_c, 0, 76, 0
1, 59160, Note_on_c, 0, 67, 35
1, 59280, Note_on_c, 0, 67, 0
1, 59280, Note_on_c, 0, 60, 0
1, 59280, Note_on_c, 0, 74, 60
1, 59280, Note_on_c, 0, 59, 45
1, 59282, Control_c, 0, 64, 0
1, 59344, Control_c, 0, 64, 127
1, 59400, Note_on_c, 0, 74, 0
1, 59400, Note_on_c, 0, 67, 39
1, 59440, Tempo, 592710
1, 59520, Tempo, 546797
1, 59520, Note_on_c, 0, 67, 0
1, 59520, Note_on_c, 0, 59, 0
1, 59520, Note_on_c, 0, 77, 60
1, 59520, Note_on_c, 0, 62, 36
1, 59526, Control_c, 0, 64, 0
1, 59612, Control_c, 0, 64, 127
1, 59640, Note_on_c, 0, 77, 0
1, 59640, Note_on_c, 0, 67, 40
1, 59760, Tempo, 541859
1, 59760, Note_on_c, 0, 67, 0
1, 59760, Note_on_c, 0, 62, 0
1, 59760, Note_on_c, 0, 76, 60
1, 59760, Note_on_c, 0, 60, 40
1, 59760, Control_c, 0, 64, 0
1, 59810, Control_c, 0, 64, 127
1, 59880, Note_on_c, 0, 76, 0
1, 59880, Note_on_c, 0, 67, 35
1, 60000, Tempo, 527565
1, 60000, Note_on_c, 0, 67, 0
1, 60000, Note_on_c, 0, 60, 0
1, 60000, Note_on_c, 0, 74, 60
1, 60000, Note_on_c, 0, 59, 45
1, 60018, Control_c, 0, 64, 0
1, 60080, Tempo, 556948
1, 60092, Control_c, 0, 64, 127
1, 60120, Note_on_c, 0, 74, 0
1, 60120, Note_on_c, 0, 67, 39
1, 60160, Tempo, 650548
1, 60240, Tempo, 544316
1, 60240, Note_on_c, 0, 67, 0
1, 60240, Note_on_c, 0, 59, 0
1, 60240, Note_on_c, 0, 79, 61
1, 60240, Note_on_c, 0, 64, 43
1, 60250, Control_c, 0, 64, 0
1, 60346, Control_c, 0, 64, 127
1, 60360, Note_on_c, 0, 79, 0
1, 60360, Note_on_c, 0, 67, 38
1, 60476, Note_on_c, 0, 64, 0
1, 60480, Tempo, 532245
1, 60480, Note_on_c, 0, 67, 0
1, 60480, Note_on_c, 0, 79, 63
1, 60480, Note_on_c, 0, 64, 48
1, 60496, Control_c, 0, 64, 0
1, 60558, Control_c, 0, 64, 127
1, 60600, Note_on_c, 0, 79, 0
1, 60600, Note_on_c, 0, 67, 37
1, 60720, Tempo, 541859
1, 60720, Note_on_c, 0, 67, 0
1, 60720, Note_on_c, 0, 64, 0
1, 60720, Note_on_c, 0, 77, 60
1, 60720, Note_on_c, 0, 62, 45
1, 60729, Control_c, 0, 64, 0
1, 60798, Control_c, 0, 64, 127
1, 60840, Note_on_c, 0, 77, 0
1, 60840, Note_on_c, 0, 67, 38
1, 60960, Tempo, 549300
1, 60960, Note_on_c, 0, 67, 0
1, 60960, Note_on_c, 0, 62, 0
1, 60960, Note_on_c, 0, 76, 58
1, 60960, Note_on_c, 0, 60, 40
1, 60969, Control_c, 0, 64, 0
1, 61052, Control_c, 0, 64, 127
1, 61080, Tempo, 544316
1, 61080, Note_on_c, 0, 76, 0
1, 61080, Note_on_c, 0, 67, 38
1, 61120, Tempo, 534616
1, 61200, Tempo, 544316
1, 61200, Note_on_c, 0, 67, 0
1, 61200, Note_on_c, 0, 60, 0
1, 61200, Note_on_c, 0, 74, 60
1, 61200, Note_on_c, 0, 55, 40
1, 61200, Control_c, 0, 64, 0
1, 61278, Control_c, 0, 64, 127
1, 61320, Note_on_c, 0, 55, 0
1, 61320, Note_on_c, 0, 62, 32
1, 61440, Note_on_c, 0, 62, 0
1, 61440, Note_on_c, 0, 59, 40
1, 61560, Note_on_c, 0, 59, 0
1, 61560, Note_on_c, 0, 62, 32
1, 61680, Note_on_c, 0, 62, 0
1, 61680, Note_on_c, 0, 74, 0
1, 61680, Note_on_c, 0, 55, 40
1, 61800, Tempo, 610811
1, 61800, Note_on_c, 0, 55, 0
1, 61800, Note_on_c, 0, 62, 33
1, 61920, Tempo, 541859
1, 61920, Note_on_c, 0, 62, 0
1, 61920, Note_on_c, 0, 79, 69
1, 61920, Note_on_c, 0, 55, 40
1, 61920, Control_c, 0, 64, 0
1, 61956, Control_c, 0, 64, 127
1, 62040, Note_on_c, 0, 55, 0
1, 62040, Note_on_c, 0, 62, 32
1, 62160, Tempo, 527565
1, 62160, Note_on_c, 0, 62, 0
1, 62160, Note_on_c, 0, 59, 40
1, 62280, Note_on_c, 0, 59, 0
1, 62280, Note_on_c, 0, 62, 32
1, 62400, Note_on_c, 0, 62, 0
1, 62400, Note_on_c, 0, 79, 0
1, 62400, Note_on_c, 0, 83, 61
1, 62400, Note_on_c, 0, 55, 40
1, 62406, Control_c, 0, 64, 0
1, 62471, Control_c, 0, 64, 127
1, 62480, Note_on_c, 0, 83, 0
1, 62480, Note_on_c, 0, 81, 51
1, 62520, Note_on_c, 0, 55, 0
1, 62520, Note_on_c, 0, 62, 33
1, 62560, Tempo, 595652
1, 62560, Note_on_c, 0, 81, 0
1, 62560, Note_on_c, 0, 79, 51
1, 62640, Tempo, 529895
1, 62640, Note_on_c, 0, 79, 0
1, 62640, Note_on_c, 0, 62, 0
1, 62640, Note_on_c, 0, 86, 69
1, 62640, Note_on_c, 0, 55, 40
1, 62640, Control_c, 0, 64, 0
1, 62697, Control_c, 0, 64, 127
1, 62760, Note_on_c, 0, 55, 0
1, 62760, Note_on_c, 0, 62, 32
1, 62880, Note_on_c, 0, 62, 0
1, 62880, Note_on_c, 0, 59, 37
1, 63000, Tempo, 575650
1, 63000, Note_on_c, 0, 59, 0
1, 63000, Note_on_c, 0, 62, 33
1, 63120, Tempo, 544316
1, 63120, Note_on_c, 0, 62, 0
1, 63120, Note_on_c, 0, 86, 0
1, 63120, Note_on_c, 0, 77, 44
1, 63120, Note_on_c, 0, 55, 34
1, 63240, Note_on_c, 0, 55, 0
1, 63240, Note_on_c, 0, 62, 29
1, 63280, Tempo, 607718
1, 63360, Tempo, 539423
1, 63360, Note_on_c, 0, 62, 0
1, 63360, Note_on_c, 0, 77, 0
1, 63360, Note_on_c, 0, 75, 51
1, 63360, Note_on_c, 0, 60, 34
1, 63366, Control_c, 0, 64, 0
1, 63430, Control_c, 0, 64, 127
1, 63480, Note_on_c, 0, 75, 0
1, 63480, Note_on_c, 0, 67, 29
1, 63600, Note_on_c, 0, 67, 0
1, 63600, Note_on_c, 0, 60, 0
1, 63600, Note_on_c, 0, 74, 51
1, 63600, Note_on_c, 0, 59, 38
1, 63602, Control_c, 0, 64, 0
1, 63664, Control_c, 0, 64, 127
1, 63720, Note_on_c, 0, 74, 0
1, 63720, Note_on_c, 0, 67, 33
1, 63760, Tempo, 592710
1, 63840, Tempo, 541859
1, 63840, Note_on_c, 0, 67, 0
1, 63840, Note_on_c, 0, 59, 0
1, 63840, Note_on_c, 0, 77, 51
1, 63840, Note_on_c, 0, 62, 30
1, 63846, Control_c, 0, 64, 0
1, 63932, Control_c, 0, 64, 127
1, 63960, Note_on_c, 0, 77, 0
1, 63960, Note_on_c, 0, 67, 34
1, 64080, Tempo, 529895
1, 64080, Note_on_c, 0, 67, 0
1, 64080, Note_on_c, 0, 62, 0
1, 64080, Note_on_c, 0, 75, 51
1, 64080, Note_on_c, 0, 60, 34
1, 64080, Control_c, 0, 64, 0
1, 64130, Control_c, 0, 64, 127
1, 64200, Note_on_c, 0, 75, 0
1, 64200, Note_on_c, 0, 67, 29
1, 64320, Tempo, 527565
1, 64320, Note_on_c, 0, 67, 0
1, 64320, Note_on_c, 0, 60, 0
1, 64320, Note_on_c, 0, 74, 51
1, 64320, Note_on_c, 0, 59, 38
1, 64338, Control_c, 0, 64, 0
1, 64400, Tempo, 556948
1, 64412, Control_c, 0, 64, 127
1, 64440, Tempo, 567483
1, 64440, Note_on_c, 0, 74, 0
1, 64440, Note_on_c, 0, 67, 33
1, 64480, Tempo, 650548
1, 64560, Tempo, 556948
1, 64560, Note_on_c, 0, 67, 0
1, 64560, Note_on_c, 0, 59, 0
1, 64560, Note_on_c, 0, 79, 51
1, 64560, Note_on_c, 0, 63, 36
1, 64570, Control_c, 0, 64, 0
1, 64666, Control_c, 0, 64, 127
1, 64680, Note_on_c, 0, 79, 0
1, 64680, Note_on_c, 0, 67, 32
1, 64795, Note_on_c, 0, 63, 0
1, 64800, Tempo, 546797
1, 64800, Note_on_c, 0, 67, 0
1, 64800, Note_on_c, 0, 79, 53
1, 64800, Note_on_c, 0, 63, 40
1, 64816, Control_c, 0, 64, 0
1, 64878, Control_c, 0, 64, 127
1, 64920, Note_on_c, 0, 79, 0
1, 64920, Note_on_c, 0, 67, 31
1, 65040, Note_on_c, 0, 67, 0
1, 65040, Note_on_c, 0, 63, 0
1, 65040, Note_on_c, 0, 77, 51
1, 65040, Note_on_c, 0, 62, 38
1, 65049, Control_c, 0, 64, 0
1, 65118, Control_c, 0, 64, 127
1, 65160, Note_on_c, 0, 77, 0
1, 65160, Note_on_c, 0, 67, 32
1, 65280, Tempo, 559545
1, 65280, Note_on_c, 0, 67, 0
1, 65280, Note_on_c, 0, 62, 0
1, 65280, Note_on_c, 0, 75, 49
1, 65280, Note_on_c, 0, 60, 34
1, 65289, Control_c, 0, 64, 0
1, 65372, Control_c, 0, 64, 127
1, 65400, Note_on_c, 0, 75, 0
1, 65400, Note_on_c, 0, 67, 32
1, 65440, Tempo, 549300
1, 65520, Tempo, 554375
1, 65520, Note_on_c, 0, 67, 0
1, 65520, Note_on_c, 0, 60, 0
1, 65520, Note_on_c, 0, 74, 51
1, 65520, Note_on_c, 0, 55, 34
1, 65520, Control_c, 0, 64, 0
1, 65598, Control_c, 0, 64, 127
1, 65640, Note_on_c, 0, 55, 0
1, 65640, Note_on_c, 0, 62, 27
1, 65760, Note_on_c, 0, 62, 0
1, 65760, Note_on_c, 0, 59, 34
1, 65880, Note_on_c, 0, 59, 0
1, 65880, Note_on_c, 0, 62, 27
1, 66000, Tempo, 575650
1, 66000, Note_on_c, 0, 62, 0
1, 66000, Note_on_c, 0, 74, 0
1, 66000, Note_on_c, 0, 55, 34
1, 66120, Note_on_c, 0, 55, 0
1, 66120, Note_on_c, 0, 62, 28
1, 66160, Tempo, 738643
1, 66240, Tempo, 570180
1, 66240, Note_on_c, 0, 62, 0
1, 66240, Note_on_c, 0, 72, 60
1, 66240, Note_on_c, 0, 60, 40
1, 66240, Control_c, 0, 64, 0
1, 66307, Control_c, 0, 64, 127
1, 66360, Note_on_c, 0, 60, 0
1, 66360, Note_on_c, 0, 67, 32
1, 66480, Tempo, 534616
1, 66480, Note_on_c, 0, 67, 0
1, 66480, Note_on_c, 0, 64, 40
1, 66600, Note_on_c, 0, 64, 0
1, 66600, Note_on_c, 0, 67, 32
1, 66720, Note_on_c, 0, 67, 0
1, 66720, Note_on_c, 0, 72, 0
1, 66720, Note_on_c, 0, 76, 55
1, 66720, Note_on_c, 0, 60, 40
1, 66730, Control_c, 0, 64, 0
1, 66800, Note_on_c, 0, 76, 0
1, 66800, Note_on_c, 0, 74, 49
1, 66840, Note_on_c, 0, 60, 0
1, 66840, Note_on_c, 0, 67, 33
1, 66880, Tempo, 581226
1, 66880, Note_on_c, 0, 74, 0
1, 66880, Note_on_c, 0, 72, 49
1, 66960, Tempo, 534616
1, 66960, Note_on_c, 0, 72, 0
1, 66960, Note_on_c, 0, 67, 0
1, 66960, Note_on_c, 0, 79, 60
1, 66960, Note_on_c, 0, 59, 40
1, 67052, Control_c, 0, 64, 127
1, 67080, Note_on_c, 0, 59, 0
1, 67080, Note_on_c, 0, 67, 32
1, 67200, Note_on_c, 0, 67, 0
1, 67200, Note_on_c, 0, 62, 37
1, 67320, Note_on_c, 0, 62, 0
1, 67320, Note_on_c, 0, 67, 33
1, 67440, Tempo, 564812
1, 67440, Note_on_c, 0, 67, 0
1, 67440, Note_on_c, 0, 79, 0
1, 67440, Note_on_c, 0, 77, 52
1, 67440, Note_on_c, 0, 59, 40
1, 67449, Control_c, 0, 64, 0
1, 67518, Control_c, 0, 64, 127
1, 67560, Note_on_c, 0, 59, 0
1, 67560, Note_on_c, 0, 67, 35
1, 67680, Tempo, 544316
1, 67680, Note_on_c, 0, 67, 0
1, 67680, Note_on_c, 0, 77, 0
1, 67680, Note_on_c, 0, 76, 60
1, 67680, Note_on_c, 0, 60, 40
1, 67723, Control_c, 0, 64, 0
1, 68160, Note_on_c, 0, 60, 0
1, 68160, Note_on_c, 0, 76, 0
1, 68160, Note_on_c, 0, 76, 60
1, 68160, Note_on_c, 0, 60, 36
1, 68169, Control_c, 0, 64, 127
1, 68280, Note_on_c, 0, 76, 0
1, 68280, Note_on_c, 0, 67, 40
1, 68400, Tempo, 529895
1, 68400, Note_on_c, 0, 67, 0
1, 68400, Note_on_c, 0, 60, 0
1, 68400, Note_on_c, 0, 74, 60
1, 68400, Note_on_c, 0, 59, 40
1, 68400, Control_c, 0, 64, 0
1, 68499, Control_c, 0, 64, 127
1, 68520, Note_on_c, 0, 74, 0
1, 68520, Note_on_c, 0, 67, 35
1, 68640, Note_on_c, 0, 67, 0
1, 68640, Note_on_c, 0, 74, 60
1, 68760, Note_on_c, 0, 74, 0
1, 68760, Note_on_c, 0, 67, 39
1, 68880, Note_on_c, 0, 67, 0
1, 68880, Note_on_c, 0, 59, 0
1, 68880, Note_on_c, 0, 76, 61
1, 68880, Note_on_c, 0, 60, 43
1, 68893, Control_c, 0, 64, 0
1, 68958, Control_c, 0, 64, 127
1, 69000, Note_on_c, 0, 76, 0
1, 69000, Note_on_c, 0, 67, 38
1, 69120, Tempo, 534616
1, 69120, Note_on_c, 0, 67, 0
1, 69120, Note_on_c, 0, 60, 0
1, 69120, Note_on_c, 0, 77, 63
1, 69120, Note_on_c, 0, 62, 48
1, 69120, Control_c, 0, 64, 0
1, 69226, Control_c, 0, 64, 127
1, 69240, Note_on_c, 0, 77, 0
1, 69240, Note_on_c, 0, 67, 37
1, 69360, Note_on_c, 0, 67, 0
1, 69360, Note_on_c, 0, 62, 0
1, 69360, Note_on_c, 0, 76, 60
1, 69360, Note_on_c, 0, 60, 40
1, 69374, Control_c, 0, 64, 0
1, 69438, Control_c, 0, 64, 127
1, 69480, Note_on_c, 0, 76, 0
1, 69480, Note_on_c, 0, 67, 38
1, 69600, Tempo, 544316
1, 69600, Note_on_c, 0, 67, 0
1, 69600, Note_on_c, 0, 60, 0
1, 69600, Note_on_c, 0, 74, 58
1, 69600, Note_on_c, 0, 59, 40
1, 69618, Control_c, 0, 64, 0
1, 69685, Control_c, 0, 64, 127
1, 69720, Note_on_c, 0, 74, 0
1, 69720, Note_on_c, 0, 67, 38
1, 69840, Tempo, 537009
1, 69840, Note_on_c, 0, 67, 0
1, 69840, Note_on_c, 0, 59, 0
1, 69840, Note_on_c, 0, 76, 60
1, 69840, Note_on_c, 0, 48, 62
1, 69840, Control_c, 0, 64, 0
1, 69960, Note_on_c, 0, 48, 0
1, 69960, Note_on_c, 0, 60, 48
1, 70080, Note_on_c, 0, 60, 0
1, 70080, Note_on_c, 0, 50, 57
1, 70200, Note_on_c, 0, 50, 0
1, 70200, Note_on_c, 0, 62, 49
1, 70320, Note_on_c, 0, 62, 0
1, 70320, Note_on_c, 0, 76, 0
1, 70320, Note_on_c, 0, 52, 60
1, 70440, Note_on_c, 0, 52, 0
1, 70440, Note_on_c, 0, 64, 50
1, 70480, Tempo, 589797
1, 70560, Tempo, 529895
1, 70560, Note_on_c, 0, 64, 0
1, 70560, Note_on_c, 0, 50, 62
1, 70680, Note_on_c, 0, 50, 0
1, 70680, Note_on_c, 0, 62, 51
1, 70800, Note_on_c, 0, 62, 0
1, 70800, Note_on_c, 0, 52, 62
1, 70920, Note_on_c, 0, 52, 0
1, 70920, Note_on_c, 0, 64, 52
1, 71040, Note_on_c, 0, 64, 0
1, 71040, Note_on_c, 0, 53, 66
1, 71160, Note_on_c, 0, 53, 0
1, 71160, Note_on_c, 0, 65, 55
1, 71200, Tempo, 584055
1, 71280, Tempo, 529895
1, 71280, Note_on_c, 0, 65, 0
1, 71280, Note_on_c, 0, 52, 66
1, 71400, Note_on_c, 0, 52, 0
1, 71400, Note_on_c, 0, 64, 55
1, 71520, Note_on_c, 0, 64, 0
1, 71520, Note_on_c, 0, 53, 66
1, 71640, Note_on_c, 0, 53, 0
1, 71640, Note_on_c, 0, 65, 57
1, 71760, Note_on_c, 0, 65, 0
1, 71760, Note_on_c, 0, 55, 69
1, 71880, Note_on_c, 0, 55, 0
1, 71880, Note_on_c, 0, 67, 62
1, 71920, Tempo, 672420
1, 72000, Tempo, 564812
1, 72000, Note_on_c, 0, 67, 0
1, 72000, Note_on_c, 0, 45, 62
1, 72000, Note_on_c, 0, 57, 71
1, 72240, Tempo, 525256
1, 72240, Note_on_c, 0, 77, 63
1, 72320, Note_on_c, 0, 77, 0
1, 72320, Note_on_c, 0, 76, 57
1, 72400, Note_on_c, 0, 76, 0
1, 72400, Note_on_c, 0, 74, 57
1, 72480, Tempo, 541859
1, 72480, Note_on_c, 0, 74, 0
1, 72480, Note_on_c, 0, 57, 0
1, 72480, Note_on_c, 0, 45, 0
1, 72480, Note_on_c, 0, 72, 63
1, 72560, Note_on_c, 0, 72, 0
1, 72560, Note_on_c, 0, 71, 57
1, 72640, Tempo, 586912
1, 72640, Note_on_c, 0, 71, 0
1, 72640, Note_on_c, 0, 69, 56
1, 72720, Tempo, 532245
1, 72720, Note_on_c, 0, 69, 0
1, 72720, Note_on_c, 0, 67, 63
1, 72720, Note_on_c, 0, 59, 50
1, 72840, Note_on_c, 0, 67, 0
1, 72840, Note_on_c, 0, 74, 55
1, 72960, Note_on_c, 0, 74, 0
1, 72960, Note_on_c, 0, 77, 59
1, 73080, Note_on_c, 0, 77, 0
1, 73080, Note_on_c, 0, 74, 52
1, 73200, Note_on_c, 0, 74, 0
1, 73200, Note_on_c, 0, 59, 0
1, 73200, Note_on_c, 0, 76, 61
1, 73200, Note_on_c, 0, 60, 46
1, 73320, Note_on_c, 0, 76, 0
1, 73320, Note_on_c, 0, 72, 56
1, 73360, Tempo, 586912
1, 73440, Tempo, 575650
1, 73440, Note_on_c, 0, 72, 0
1, 73440, Note_on_c, 0, 60, 0
1, 73440, Note_on_c, 0, 74, 63
1, 73440, Note_on_c, 0, 53, 50
1, 73680, Note_on_c, 0, 53, 0
1, 73680, Note_on_c, 0, 74, 0
1, 73680, Note_on_c, 0, 72, 58
1, 73680, Note_on_c, 0, 55, 42
1, 73920, Note_on_c, 0, 55, 0
1, 73920, Note_on_c, 0, 72, 0
1, 73920, Note_on_c, 0, 71, 53
1, 73920, Note_on_c, 0, 43, 42
1, 73935, Control_c, 0, 64, 127
1, 73968, Note_on_c, 0, 71, 0
1, 73968, Note_on_c, 0, 72, 48
1, 74016, Note_on_c, 0, 72, 0
1, 74016, Note_on_c, 0, 71, 53
1, 74064, Note_on_c, 0, 71, 0
1, 74064, Note_on_c, 0, 72, 48
1, 74080, Tempo, 633379
1, 74112, Note_on_c, 0, 72, 0
1, 74112, Note_on_c, 0, 71, 48
1, 74160, Tempo, 537009
1, 74160, Note_on_c, 0, 71, 0
1, 74160, Note_on_c, 0, 43, 0
1, 74160, Note_on_c, 0, 72, 63
1, 74160, Note_on_c, 0, 48, 62
1, 74167, Control_c, 0, 64, 0
1, 74280, Note_on_c, 0, 48, 0
1, 74280, Note_on_c, 0, 60, 48
1, 74400, Note_on_c, 0, 60, 0
1, 74400, Note_on_c, 0, 50, 57
1, 74520, Note_on_c, 0, 50, 0
1, 74520, Note_on_c, 0, 62, 49
1, 74640, Note_on_c, 0, 62, 0
1, 74640, Note_on_c, 0, 72, 0
1, 74640, Note_on_c, 0, 52, 60
1, 74760, Note_on_c, 0, 52, 0
1, 74760, Note_on_c, 0, 64, 50
1, 74800, Tempo, 607718
1, 74880, Tempo, 529895
1, 74880, Note_on_c, 0, 64, 0
1, 74880, Note_on_c, 0, 50, 62
1, 75000, Note_on_c, 0, 50, 0
1, 75000, Note_on_c, 0, 62, 51
1, 75120, Note_on_c, 0, 62, 0
1, 75120, Note_on_c, 0, 52, 62
1, 75240, Note_on_c, 0, 52, 0
1, 75240, Note_on_c, 0, 64, 52
1, 75360, Note_on_c, 0, 64, 0
1, 75360, Note_on_c, 0, 53, 66
1, 75480, Note_on_c, 0, 53, 0
1, 75480, Note_on_c, 0, 65, 55
1, 75520, Tempo, 564812
1, 75600, Tempo, 522967
1, 75600, Note_on_c, 0, 65, 0
1, 75600, Note_on_c, 0, 52, 66
1, 75720, Note_on_c, 0, 52, 0
1, 75720, Note_on_c, 0, 64, 55
1, 75840, Note_on_c, 0, 64, 0
1, 75840, Note_on_c, 0, 53, 66
1, 75960, Note_on_c, 0, 53, 0
1, 75960, Note_on_c, 0, 65, 57
1, 76080, Note_on_c, 0, 65, 0
1, 76080, Note_on_c, 0, 55, 69
1, 76200, Note_on_c, 0, 55, 0
1, 76200, Note_on_c, 0, 67, 62
1, 76240, Tempo, 643570
1, 76320, Tempo, 589797
1, 76320, Note_on_c, 0, 67, 0
1, 76320, Note_on_c, 0, 45, 62
1, 76320, Note_on_c, 0, 57, 71
1, 76560, Tempo, 509641
1, 76560, Note_on_c, 0, 77, 63
1, 76640, Note_on_c, 0, 77, 0
1, 76640, Note_on_c, 0, 76, 57
1, 76720, Note_on_c, 0, 76, 0
1, 76720, Note_on_c, 0, 74, 57
1, 76800, Tempo, 534616
1, 76800, Note_on_c, 0, 74, 0
1, 76800, Note_on_c, 0, 57, 0
1, 76800, Note_on_c, 0, 45, 0
1, 76800, Note_on_c, 0, 72, 63
1, 76880, Note_on_c, 0, 72, 0
1, 76880, Note_on_c, 0, 71, 57
1, 76960, Note_on_c, 0, 71, 0
1, 76960, Note_on_c, 0, 69, 56
1, 77040, Note_on_c, 0, 69, 0
1, 77040, Note_on_c, 0, 67, 63
1, 77040, Note_on_c, 0, 59, 50
1, 77160, Note_on_c, 0, 67, 0
1, 77160, Note_on_c, 0, 74, 55
1, 77280, Note_on_c, 0, 74, 0
1, 77280, Note_on_c, 0, 77, 59
1, 77400, Note_on_c, 0, 77, 0
1, 77400, Note_on_c, 0, 74, 52
1, 77520, Tempo, 549300
1, 77520, Note_on_c, 0, 74, 0
1, 77520, Note_on_c, 0, 59, 0
1, 77520, Note_on_c, 0, 76, 61
1, 77520, Note_on_c, 0, 60, 46
1, 77640, Tempo, 640137
1, 77640, Note_on_c, 0, 76, 0
1, 77640, Note_on_c, 0, 72, 56
1, 77760, Tempo, 595652
1, 77760, Note_on_c, 0, 72, 0
1, 77760, Note_on_c, 0, 60, 0
1, 77760, Note_on_c, 0, 74, 63
1, 77760, Note_on_c, 0, 53, 50
1, 78000, Note_on_c, 0, 53, 0
1, 78000, Note_on_c, 0, 74, 0
1, 78000, Note_on_c, 0, 72, 58
1, 78000, Note_on_c, 0, 55, 42
1, 78240, Tempo, 613936
1, 78240, Note_on_c, 0, 55, 0
1, 78240, Note_on_c, 0, 72, 0
1, 78240, Note_on_c, 0, 71, 53
1, 78240, Note_on_c, 0, 43, 42
1, 78283, Control_c, 0, 64, 127
1, 78288, Note_on_c, 0, 71, 0
1, 78288, Note_on_c, 0, 72, 48
1, 78336, Note_on_c, 0, 72, 0
1, 78336, Note_on_c, 0, 71, 53
1, 78384, Note_on_c, 0, 71, 0
1, 78384, Note_on_c, 0, 72, 48
1, 78432, Note_on_c, 0, 72, 0
1, 78432, Note_on_c, 0, 71, 48
1, 78480, Tempo, 691802
1, 78480, Note_on_c, 0, 71, 0
1, 78480, Note_on_c, 0, 43, 0
1, 78480, Note_on_c, 0, 72, 63
1, 78480, Note_on_c, 0, 48, 50
1, 78487, Control_c, 0, 64, 0
1, 78720, Tempo, 661303
1, 78720, Note_on_c, 0, 48, 0
1, 78720, Note_on_c, 0, 36, 38
1, 78960, Note_on_c, 0, 36, 0
1, 78960, Note_on_c, 0, 72, 0
1, 78960, End_track
0, 0, End_of_file
