0, 0, Header, 1, 2, 120
1, 0, Start_track
1, 0, Title_t, "--------"
1, 0, System_exclusive, 10, 65, 16, 66, 18, 64, 0, 127, 0, 65, 247
1, 0, Time_signature, 2, 1, 48, 8
1, 0, Key_signature, -4, "major"
1, 0, Tempo, 428571
1, 22080, Tempo, 379747
1, 42720, Tempo, 379747
1, 43405, Tempo, 377358
1, 44091, Tempo, 375000
1, 44777, Tempo, 372671
1, 45462, Tempo, 370370
1, 46148, Tempo, 368098
1, 46834, Tempo, 365854
1, 47520, Tempo, 363636
1, 47521, Tempo, 363636
1, 51360, Tempo, 400000
1, 51360, End_track
2, 0, Start_track
2, 0, Title_t, "Piano 1"
2, 0, Control_c, 0, 121, 64
2, 240, Program_c, 0, 0
2, 240, Control_c, 0, 7, 100
2, 240, Control_c, 0, 10, 63
2, 240, Control_c, 0, 91, 75
2, 1345, Note_on_c, 0, 60, 88
2, 1452, Note_on_c, 0, 60, 0
2, 1453, Note_on_c, 0, 65, 96
2, 1473, Note_on_c, 0, 65, 0
2, 1562, Note_on_c, 0, 68, 92
2, 1579, Note_on_c, 0, 68, 0
2, 1670, Note_on_c, 0, 72, 92
2, 1688, Note_on_c, 0, 72, 0
2, 1777, Note_on_c, 0, 77, 100
2, 1793, Note_on_c, 0, 77, 0
2, 1889, Note_on_c, 0, 80, 105
2, 1996, Note_on_c, 0, 56, 82
2, 1996, Note_on_c, 0, 53, 84
2, 1996, Note_on_c, 0, 60, 80
2, 2029, Note_on_c, 0, 79, 84
2, 2030, Note_on_c, 0, 80, 0
2, 2054, Note_on_c, 0, 77, 76
2, 2058, Note_on_c, 0, 79, 0
2, 2080, Note_on_c, 0, 77, 0
2, 2080, Note_on_c, 0, 76, 66
2, 2089, Note_on_c, 0, 56, 0
2, 2089, Note_on_c, 0, 53, 0
2, 2092, Note_on_c, 0, 60, 0
2, 2098, Note_on_c, 0, 76, 0
2, 2106, Note_on_c, 0, 77, 88
2, 2106, Note_on_c, 0, 56, 80
2, 2107, Note_on_c, 0, 60, 76
2, 2109, Note_on_c, 0, 53, 79
2, 2126, Note_on_c, 0, 77, 0
2, 2157, Note_on_c, 0, 56, 0
2, 2158, Note_on_c, 0, 53, 0
2, 2160, Note_on_c, 0, 60, 0
2, 2213, Note_on_c, 0, 53, 82
2, 2214, Note_on_c, 0, 56, 71
2, 2215, Note_on_c, 0, 60, 75
2, 2250, Note_on_c, 0, 56, 0
2, 2251, Note_on_c, 0, 60, 0
2, 2252, Note_on_c, 0, 53, 0
2, 2322, Note_on_c, 0, 60, 84
2, 2322, Note_on_c, 0, 52, 88
2, 2323, Note_on_c, 0, 58, 80
2, 2323, Note_on_c, 0, 67, 113
2, 2324, Note_on_c, 0, 55, 84
2, 2342, Note_on_c, 0, 67, 0
2, 2415, Note_on_c, 0, 58, 0
2, 2415, Note_on_c, 0, 55, 0
2, 2415, Note_on_c, 0, 60, 0
2, 2417, Note_on_c, 0, 52, 0
2, 2430, Note_on_c, 0, 72, 100
2, 2451, Note_on_c, 0, 72, 0
2, 2539, Note_on_c, 0, 76, 100
2, 2557, Note_on_c, 0, 76, 0
2, 2648, Note_on_c, 0, 79, 109
2, 2666, Note_on_c, 0, 79, 0
2, 2758, Note_on_c, 0, 82, 100
2, 2870, Note_on_c, 0, 60, 84
2, 2870, Note_on_c, 0, 58, 79
2, 2871, Note_on_c, 0, 55, 82
2, 2872, Note_on_c, 0, 52, 82
2, 2903, Note_on_c, 0, 80, 84
2, 2909, Note_on_c, 0, 82, 0
2, 2917, Note_on_c, 0, 58, 0
2, 2918, Note_on_c, 0, 55, 0
2, 2918, Note_on_c, 0, 52, 0
2, 2919, Note_on_c, 0, 60, 0
2, 2927, Note_on_c, 0, 80, 0
2, 2927, Note_on_c, 0, 79, 84
2, 2952, Note_on_c, 0, 79, 0
2, 2954, Note_on_c, 0, 77, 82
2, 2971, Note_on_c, 0, 60, 71
2, 2973, Note_on_c, 0, 58, 66
2, 2974, Note_on_c, 0, 77, 0
2, 2974, Note_on_c, 0, 55, 75
2, 2975, Note_on_c, 0, 52, 77
2, 2983, Note_on_c, 0, 79, 113
2, 2999, Note_on_c, 0, 79, 0
2, 3009, Note_on_c, 0, 58, 0
2, 3010, Note_on_c, 0, 52, 0
2, 3010, Note_on_c, 0, 55, 0
2, 3014, Note_on_c, 0, 60, 0
2, 3088, Note_on_c, 0, 58, 76
2, 3088, Note_on_c, 0, 60, 84
2, 3089, Note_on_c, 0, 52, 92
2, 3089, Note_on_c, 0, 55, 80
2, 3107, Note_on_c, 0, 55, 0
2, 3107, Note_on_c, 0, 58, 0
2, 3107, Note_on_c, 0, 60, 0
2, 3108, Note_on_c, 0, 52, 0
2, 3179, Note_on_c, 0, 72, 113
2, 3201, Note_on_c, 0, 72, 0
2, 3205, Note_on_c, 0, 80, 96
2, 3316, Note_on_c, 0, 60, 79
2, 3316, Note_on_c, 0, 56, 84
2, 3316, Note_on_c, 0, 53, 84
2, 3342, Note_on_c, 0, 80, 0
2, 3346, Note_on_c, 0, 79, 92
2, 3362, Note_on_c, 0, 60, 0
2, 3362, Note_on_c, 0, 56, 0
2, 3363, Note_on_c, 0, 53, 0
2, 3367, Note_on_c, 0, 77, 84
2, 3370, Note_on_c, 0, 79, 0
2, 3393, Note_on_c, 0, 77, 0
2, 3396, Note_on_c, 0, 76, 88
2, 3414, Note_on_c, 0, 76, 0
2, 3425, Note_on_c, 0, 77, 96
2, 3432, Note_on_c, 0, 60, 82
2, 3432, Note_on_c, 0, 56, 76
2, 3432, Note_on_c, 0, 53, 88
2, 3439, Note_on_c, 0, 77, 0
2, 3460, Note_on_c, 0, 56, 0
2, 3463, Note_on_c, 0, 60, 0
2, 3463, Note_on_c, 0, 53, 0
2, 3542, Note_on_c, 0, 53, 96
2, 3542, Note_on_c, 0, 60, 100
2, 3543, Note_on_c, 0, 56, 82
2, 3560, Note_on_c, 0, 60, 0
2, 3561, Note_on_c, 0, 56, 0
2, 3561, Note_on_c, 0, 53, 0
2, 3621, Note_on_c, 0, 72, 122
2, 3642, Note_on_c, 0, 72, 0
2, 3651, Note_on_c, 0, 82, 113
2, 3766, Note_on_c, 0, 55, 92
2, 3766, Note_on_c, 0, 58, 88
2, 3766, Note_on_c, 0, 64, 88
2, 3800, Note_on_c, 0, 80, 96
2, 3806, Note_on_c, 0, 82, 0
2, 3821, Note_on_c, 0, 55, 0
2, 3824, Note_on_c, 0, 79, 96
2, 3825, Note_on_c, 0, 80, 0
2, 3825, Note_on_c, 0, 58, 0
2, 3828, Note_on_c, 0, 64, 0
2, 3852, Note_on_c, 0, 77, 100
2, 3853, Note_on_c, 0, 79, 0
2, 3872, Note_on_c, 0, 77, 0
2, 3875, Note_on_c, 0, 58, 77
2, 3875, Note_on_c, 0, 64, 70
2, 3878, Note_on_c, 0, 55, 96
2, 3880, Note_on_c, 0, 79, 113
2, 3899, Note_on_c, 0, 79, 0
2, 3914, Note_on_c, 0, 58, 0
2, 3916, Note_on_c, 0, 55, 0
2, 3919, Note_on_c, 0, 64, 0
2, 3997, Note_on_c, 0, 55, 113
2, 3998, Note_on_c, 0, 58, 96
2, 3998, Note_on_c, 0, 64, 113
2, 4019, Note_on_c, 0, 64, 0
2, 4020, Note_on_c, 0, 58, 0
2, 4020, Note_on_c, 0, 55, 0
2, 4086, Note_on_c, 0, 72, 75
2, 4102, Note_on_c, 0, 77, 96
2, 4114, Note_on_c, 0, 80, 122
2, 4122, Note_on_c, 0, 84, 127
2, 4249, Note_on_c, 0, 56, 109
2, 4250, Note_on_c, 0, 60, 113
2, 4251, Note_on_c, 0, 65, 109
2, 4279, Control_c, 0, 64, 127
2, 4406, Note_on_c, 0, 82, 96
2, 4408, Note_on_c, 0, 77, 0
2, 4409, Note_on_c, 0, 72, 0
2, 4411, Note_on_c, 0, 80, 0
2, 4416, Note_on_c, 0, 84, 0
2, 4423, Control_c, 0, 64, 0
2, 4437, Note_on_c, 0, 65, 0
2, 4438, Note_on_c, 0, 60, 0
2, 4441, Note_on_c, 0, 56, 0
2, 4479, Note_on_c, 0, 80, 75
2, 4490, Note_on_c, 0, 82, 0
2, 4560, Note_on_c, 0, 79, 82
2, 4562, Note_on_c, 0, 80, 0
2, 4563, Note_on_c, 0, 58, 56
2, 4564, Note_on_c, 0, 62, 84
2, 4564, Note_on_c, 0, 67, 64
2, 4625, Control_c, 0, 64, 127
2, 4642, Note_on_c, 0, 77, 71
2, 4644, Note_on_c, 0, 79, 0
2, 4716, Control_c, 0, 64, 0
2, 4717, Note_on_c, 0, 58, 0
2, 4719, Note_on_c, 0, 62, 0
2, 4721, Note_on_c, 0, 67, 0
2, 4723, Note_on_c, 0, 77, 0
2, 4723, Note_on_c, 0, 76, 77
2, 4752, Note_on_c, 0, 77, 77
2, 4753, Note_on_c, 0, 76, 0
2, 4775, Note_on_c, 0, 77, 0
2, 4776, Note_on_c, 0, 79, 76
2, 4795, Note_on_c, 0, 77, 70
2, 4802, Note_on_c, 0, 79, 0
2, 4980, Note_on_c, 0, 76, 64
2, 4981, Note_on_c, 0, 60, 71
2, 4983, Note_on_c, 0, 67, 56
2, 4986, Note_on_c, 0, 77, 0
2, 5045, Control_c, 0, 64, 127
2, 5149, Note_on_c, 0, 67, 0
2, 5152, Note_on_c, 0, 60, 0
2, 5154, Note_on_c, 0, 76, 0
2, 5296, Control_c, 0, 64, 0
2, 5447, Note_on_c, 0, 43, 88
2, 5469, Note_on_c, 0, 43, 0
2, 5561, Note_on_c, 0, 48, 82
2, 5578, Note_on_c, 0, 48, 0
2, 5672, Note_on_c, 0, 51, 84
2, 5689, Note_on_c, 0, 51, 0
2, 5782, Note_on_c, 0, 55, 82
2, 5810, Note_on_c, 0, 55, 0
2, 5888, Note_on_c, 0, 60, 96
2, 5908, Note_on_c, 0, 60, 0
2, 6004, Note_on_c, 0, 63, 100
2, 6149, Note_on_c, 0, 63, 0
2, 6152, Note_on_c, 0, 62, 77
2, 6174, Note_on_c, 0, 60, 82
2, 6179, Note_on_c, 0, 62, 0
2, 6193, Note_on_c, 0, 59, 76
2, 6195, Note_on_c, 0, 60, 0
2, 6212, Note_on_c, 0, 59, 0
2, 6216, Note_on_c, 0, 60, 69
2, 6238, Note_on_c, 0, 60, 0
2, 6324, Note_on_c, 0, 60, 92
2, 6341, Note_on_c, 0, 60, 0
2, 6440, Note_on_c, 0, 68, 82
2, 6443, Note_on_c, 0, 60, 82
2, 6445, Note_on_c, 0, 65, 82
2, 6480, Control_c, 0, 64, 127
2, 6591, Note_on_c, 0, 75, 84
2, 6608, Control_c, 0, 64, 0
2, 6615, Note_on_c, 0, 73, 80
2, 6616, Note_on_c, 0, 75, 0
2, 6635, Note_on_c, 0, 73, 0
2, 6637, Note_on_c, 0, 72, 82
2, 6658, Note_on_c, 0, 72, 0
2, 6659, Note_on_c, 0, 73, 80
2, 6671, Note_on_c, 0, 73, 0
2, 6764, Note_on_c, 0, 73, 77
2, 6775, Note_on_c, 0, 73, 0
2, 6793, Note_on_c, 0, 65, 0
2, 6795, Note_on_c, 0, 60, 0
2, 6879, Note_on_c, 0, 73, 96
2, 6881, Note_on_c, 0, 65, 77
2, 6881, Note_on_c, 0, 58, 66
2, 6929, Control_c, 0, 64, 127
2, 6997, Note_on_c, 0, 68, 0
2, 7021, Control_c, 0, 64, 0
2, 7027, Note_on_c, 0, 70, 82
2, 7046, Note_on_c, 0, 68, 88
2, 7048, Note_on_c, 0, 70, 0
2, 7066, Note_on_c, 0, 68, 0
2, 7069, Note_on_c, 0, 67, 80
2, 7089, Note_on_c, 0, 68, 79
2, 7094, Note_on_c, 0, 67, 0
2, 7097, Note_on_c, 0, 68, 0
2, 7195, Note_on_c, 0, 68, 96
2, 7204, Note_on_c, 0, 68, 0
2, 7221, Note_on_c, 0, 58, 0
2, 7223, Note_on_c, 0, 65, 0
2, 7305, Note_on_c, 0, 58, 72
2, 7305, Note_on_c, 0, 67, 96
2, 7305, Note_on_c, 0, 63, 79
2, 7322, Control_c, 0, 64, 127
2, 7367, Note_on_c, 0, 73, 0
2, 7452, Note_on_c, 0, 75, 88
2, 7467, Note_on_c, 0, 75, 0
2, 7469, Control_c, 0, 64, 0
2, 7476, Note_on_c, 0, 73, 88
2, 7491, Note_on_c, 0, 73, 0
2, 7500, Note_on_c, 0, 72, 88
2, 7515, Note_on_c, 0, 72, 0
2, 7524, Note_on_c, 0, 73, 79
2, 7537, Note_on_c, 0, 73, 0
2, 7628, Note_on_c, 0, 73, 82
2, 7639, Note_on_c, 0, 73, 0
2, 7672, Note_on_c, 0, 63, 0
2, 7672, Note_on_c, 0, 58, 0
2, 7733, Note_on_c, 0, 67, 0
2, 7733, Note_on_c, 0, 68, 92
2, 7736, Note_on_c, 0, 56, 76
2, 7738, Note_on_c, 0, 63, 77
2, 7838, Control_c, 0, 64, 127
2, 7882, Note_on_c, 0, 73, 92
2, 7891, Control_c, 0, 64, 0
2, 7903, Note_on_c, 0, 73, 0
2, 7905, Note_on_c, 0, 72, 73
2, 7924, Note_on_c, 0, 72, 0
2, 7924, Note_on_c, 0, 71, 80
2, 7947, Note_on_c, 0, 71, 0
2, 7952, Note_on_c, 0, 72, 76
2, 7968, Note_on_c, 0, 72, 0
2, 8048, Note_on_c, 0, 72, 92
2, 8064, Note_on_c, 0, 72, 0
2, 8066, Note_on_c, 0, 68, 0
2, 8077, Note_on_c, 0, 63, 0
2, 8077, Note_on_c, 0, 56, 0
2, 8157, Note_on_c, 0, 65, 92
2, 8159, Note_on_c, 0, 72, 96
2, 8160, Note_on_c, 0, 61, 84
2, 8189, Control_c, 0, 64, 127
2, 8266, Note_on_c, 0, 70, 109
2, 8269, Note_on_c, 0, 72, 0
2, 8373, Note_on_c, 0, 61, 0
2, 8374, Note_on_c, 0, 62, 96
2, 8382, Control_c, 0, 64, 0
2, 8420, Control_c, 0, 64, 127
2, 8480, Note_on_c, 0, 70, 0
2, 8482, Control_c, 0, 64, 0
2, 8484, Note_on_c, 0, 68, 75
2, 8513, Control_c, 0, 64, 127
2, 8552, Note_on_c, 0, 68, 0
2, 8572, Note_on_c, 0, 65, 0
2, 8582, Note_on_c, 0, 62, 0
2, 8595, Control_c, 0, 64, 0
2, 8597, Note_on_c, 0, 67, 82
2, 8599, Note_on_c, 0, 63, 60
2, 8624, Control_c, 0, 64, 127
2, 8682, Note_on_c, 0, 67, 0
2, 8690, Note_on_c, 0, 63, 0
2, 8702, Control_c, 0, 64, 0
2, 8703, Note_on_c, 0, 75, 88
2, 8809, Note_on_c, 0, 73, 109
2, 8814, Note_on_c, 0, 75, 0
2, 8912, Note_on_c, 0, 73, 0
2, 8913, Note_on_c, 0, 72, 113
2, 8914, Note_on_c, 0, 60, 96
2, 8915, Note_on_c, 0, 63, 96
2, 8947, Control_c, 0, 64, 127
2, 9002, Note_on_c, 0, 60, 0
2, 9014, Note_on_c, 0, 63, 0
2, 9019, Control_c, 0, 64, 0
2, 9019, Note_on_c, 0, 61, 82
2, 9019, Note_on_c, 0, 65, 88
2, 9136, Note_on_c, 0, 70, 76
2, 9141, Note_on_c, 0, 72, 0
2, 9177, Control_c, 0, 64, 127
2, 9202, Note_on_c, 0, 61, 0
2, 9206, Note_on_c, 0, 65, 0
2, 9254, Note_on_c, 0, 65, 71
2, 9255, Control_c, 0, 64, 0
2, 9258, Note_on_c, 0, 62, 80
2, 9293, Control_c, 0, 64, 127
2, 9352, Note_on_c, 0, 70, 0
2, 9362, Control_c, 0, 64, 0
2, 9362, Note_on_c, 0, 68, 92
2, 9385, Control_c, 0, 64, 127
2, 9411, Note_on_c, 0, 68, 0
2, 9412, Note_on_c, 0, 65, 0
2, 9415, Note_on_c, 0, 62, 0
2, 9463, Control_c, 0, 64, 0
2, 9469, Note_on_c, 0, 63, 70
2, 9472, Note_on_c, 0, 67, 96
2, 9489, Control_c, 0, 64, 127
2, 9520, Note_on_c, 0, 67, 0
2, 9523, Note_on_c, 0, 63, 0
2, 9577, Control_c, 0, 64, 0
2, 9583, Note_on_c, 0, 75, 118
2, 9584, Note_on_c, 0, 63, 127
2, 9604, Control_c, 0, 64, 127
2, 9625, Note_on_c, 0, 75, 0
2, 9632, Note_on_c, 0, 63, 0
2, 9687, Control_c, 0, 64, 0
2, 9696, Note_on_c, 0, 61, 127
2, 9697, Note_on_c, 0, 73, 122
2, 9711, Control_c, 0, 64, 127
2, 9728, Note_on_c, 0, 73, 0
2, 9733, Note_on_c, 0, 61, 0
2, 9802, Control_c, 0, 64, 0
2, 9805, Note_on_c, 0, 60, 109
2, 9805, Note_on_c, 0, 51, 92
2, 9805, Note_on_c, 0, 72, 127
2, 9806, Note_on_c, 0, 48, 96
2, 9844, Control_c, 0, 64, 127
2, 9859, Note_on_c, 0, 48, 0
2, 9866, Note_on_c, 0, 51, 0
2, 9917, Control_c, 0, 64, 0
2, 9918, Note_on_c, 0, 53, 88
2, 9920, Note_on_c, 0, 49, 109
2, 9940, Control_c, 0, 64, 127
2, 9953, Note_on_c, 0, 72, 0
2, 9960, Note_on_c, 0, 60, 0
2, 10033, Control_c, 0, 64, 0
2, 10040, Note_on_c, 0, 58, 113
2, 10041, Note_on_c, 0, 70, 122
2, 10068, Control_c, 0, 64, 127
2, 10111, Note_on_c, 0, 49, 0
2, 10112, Note_on_c, 0, 53, 0
2, 10158, Control_c, 0, 64, 0
2, 10166, Note_on_c, 0, 53, 88
2, 10166, Note_on_c, 0, 50, 84
2, 10184, Control_c, 0, 64, 127
2, 10204, Note_on_c, 0, 70, 0
2, 10214, Note_on_c, 0, 58, 0
2, 10291, Control_c, 0, 64, 0
2, 10300, Note_on_c, 0, 68, 84
2, 10301, Note_on_c, 0, 56, 82
2, 10313, Control_c, 0, 64, 127
2, 10321, Note_on_c, 0, 50, 0
2, 10330, Note_on_c, 0, 53, 0
2, 10332, Note_on_c, 0, 68, 0
2, 10337, Note_on_c, 0, 56, 0
2, 10413, Control_c, 0, 64, 0
2, 10427, Note_on_c, 0, 55, 66
2, 10428, Note_on_c, 0, 67, 77
2, 10429, Note_on_c, 0, 51, 66
2, 10443, Control_c, 0, 64, 127
2, 10466, Note_on_c, 0, 55, 0
2, 10472, Note_on_c, 0, 67, 0
2, 10473, Note_on_c, 0, 51, 0
2, 10484, Note_on_c, 0, 63, 70
2, 10523, Control_c, 0, 64, 0
2, 10532, Note_on_c, 0, 51, 75
2, 10535, Note_on_c, 0, 63, 0
2, 10550, Control_c, 0, 64, 127
2, 10582, Note_on_c, 0, 63, 77
2, 10583, Note_on_c, 0, 51, 0
2, 10632, Note_on_c, 0, 51, 75
2, 10633, Note_on_c, 0, 63, 0
2, 10671, Note_on_c, 0, 51, 0
2, 10681, Note_on_c, 0, 63, 72
2, 10724, Note_on_c, 0, 63, 0
2, 10733, Note_on_c, 0, 51, 73
2, 10733, Note_on_c, 0, 76, 105
2, 10740, Control_c, 0, 64, 0
2, 10763, Control_c, 0, 64, 127
2, 10779, Note_on_c, 0, 51, 0
2, 10781, Note_on_c, 0, 63, 75
2, 10825, Note_on_c, 0, 63, 0
2, 10836, Note_on_c, 0, 75, 96
2, 10837, Note_on_c, 0, 51, 68
2, 10837, Control_c, 0, 64, 0
2, 10840, Note_on_c, 0, 76, 0
2, 10859, Control_c, 0, 64, 127
2, 10882, Note_on_c, 0, 51, 0
2, 10885, Note_on_c, 0, 63, 67
2, 10930, Note_on_c, 0, 63, 0
2, 10937, Note_on_c, 0, 73, 100
2, 10937, Note_on_c, 0, 51, 77
2, 10937, Control_c, 0, 64, 0
2, 10938, Note_on_c, 0, 75, 0
2, 10961, Control_c, 0, 64, 127
2, 10982, Note_on_c, 0, 51, 0
2, 10990, Note_on_c, 0, 63, 71
2, 10995, Note_on_c, 0, 73, 0
2, 11026, Note_on_c, 0, 63, 0
2, 11042, Note_on_c, 0, 70, 96
2, 11043, Note_on_c, 0, 51, 75
2, 11047, Control_c, 0, 64, 0
2, 11071, Control_c, 0, 64, 127
2, 11079, Note_on_c, 0, 51, 0
2, 11094, Note_on_c, 0, 63, 68
2, 11116, Note_on_c, 0, 70, 0
2, 11125, Note_on_c, 0, 63, 0
2, 11141, Note_on_c, 0, 51, 76
2, 11145, Note_on_c, 0, 67, 100
2, 11149, Control_c, 0, 64, 0
2, 11168, Control_c, 0, 64, 127
2, 11184, Note_on_c, 0, 51, 0
2, 11188, Note_on_c, 0, 67, 0
2, 11194, Note_on_c, 0, 63, 71
2, 11209, Note_on_c, 0, 63, 0
2, 11246, Control_c, 0, 64, 0
2, 11248, Note_on_c, 0, 51, 80
2, 11249, Note_on_c, 0, 64, 113
2, 11252, Note_on_c, 0, 61, 75
2, 11274, Control_c, 0, 64, 127
2, 11325, Note_on_c, 0, 51, 0
2, 11362, Control_c, 0, 64, 0
2, 11367, Note_on_c, 0, 51, 84
2, 11380, Control_c, 0, 64, 127
2, 11403, Note_on_c, 0, 51, 0
2, 11411, Note_on_c, 0, 64, 0
2, 11414, Note_on_c, 0, 63, 84
2, 11421, Note_on_c, 0, 61, 0
2, 11439, Note_on_c, 0, 63, 0
2, 11457, Control_c, 0, 64, 0
2, 11467, Note_on_c, 0, 68, 88
2, 11469, Note_on_c, 0, 51, 72
2, 11473, Note_on_c, 0, 60, 77
2, 11482, Control_c, 0, 64, 127
2, 11503, Note_on_c, 0, 68, 0
2, 11518, Note_on_c, 0, 60, 0
2, 11520, Note_on_c, 0, 63, 66
2, 11522, Note_on_c, 0, 51, 0
2, 11553, Note_on_c, 0, 63, 0
2, 11569, Control_c, 0, 64, 0
2, 11569, Note_on_c, 0, 51, 82
2, 11572, Note_on_c, 0, 76, 109
2, 11593, Control_c, 0, 64, 127
2, 11617, Note_on_c, 0, 51, 0
2, 11617, Note_on_c, 0, 63, 77
2, 11648, Note_on_c, 0, 76, 0
2, 11654, Note_on_c, 0, 63, 0
2, 11666, Note_on_c, 0, 51, 79
2, 11668, Note_on_c, 0, 75, 118
2, 11674, Control_c, 0, 64, 0
2, 11697, Control_c, 0, 64, 127
2, 11714, Note_on_c, 0, 51, 0
2, 11718, Note_on_c, 0, 63, 77
2, 11760, Note_on_c, 0, 63, 0
2, 11763, Note_on_c, 0, 75, 0
2, 11767, Note_on_c, 0, 51, 76
2, 11768, Note_on_c, 0, 73, 109
2, 11773, Control_c, 0, 64, 0
2, 11792, Control_c, 0, 64, 127
2, 11815, Note_on_c, 0, 51, 0
2, 11817, Note_on_c, 0, 73, 0
2, 11817, Note_on_c, 0, 63, 71
2, 11857, Note_on_c, 0, 63, 0
2, 11870, Note_on_c, 0, 70, 96
2, 11872, Note_on_c, 0, 51, 76
2, 11878, Control_c, 0, 64, 0
2, 11901, Control_c, 0, 64, 127
2, 11920, Note_on_c, 0, 51, 0
2, 11920, Note_on_c, 0, 63, 70
2, 11951, Note_on_c, 0, 70, 0
2, 11953, Note_on_c, 0, 63, 0
2, 11971, Note_on_c, 0, 51, 67
2, 11973, Note_on_c, 0, 67, 100
2, 11973, Control_c, 0, 64, 0
2, 11994, Control_c, 0, 64, 127
2, 12012, Note_on_c, 0, 67, 0
2, 12019, Note_on_c, 0, 51, 0
2, 12025, Note_on_c, 0, 63, 72
2, 12039, Note_on_c, 0, 63, 0
2, 12080, Note_on_c, 0, 51, 82
2, 12081, Note_on_c, 0, 64, 113
2, 12082, Note_on_c, 0, 61, 82
2, 12083, Control_c, 0, 64, 0
2, 12110, Control_c, 0, 64, 127
2, 12147, Note_on_c, 0, 51, 0
2, 12194, Control_c, 0, 64, 0
2, 12194, Note_on_c, 0, 51, 70
2, 12213, Control_c, 0, 64, 127
2, 12236, Note_on_c, 0, 51, 0
2, 12239, Note_on_c, 0, 63, 84
2, 12240, Note_on_c, 0, 64, 0
2, 12251, Note_on_c, 0, 61, 0
2, 12271, Note_on_c, 0, 63, 0
2, 12283, Control_c, 0, 64, 0
2, 12290, Note_on_c, 0, 68, 96
2, 12292, Note_on_c, 0, 51, 71
2, 12293, Note_on_c, 0, 60, 77
2, 12307, Control_c, 0, 64, 127
2, 12324, Note_on_c, 0, 68, 0
2, 12339, Note_on_c, 0, 60, 0
2, 12339, Note_on_c, 0, 63, 71
2, 12343, Note_on_c, 0, 51, 0
2, 12382, Note_on_c, 0, 63, 0
2, 12391, Note_on_c, 0, 51, 79
2, 12391, Control_c, 0, 64, 0
2, 12391, Note_on_c, 0, 76, 118
2, 12414, Control_c, 0, 64, 127
2, 12438, Note_on_c, 0, 63, 72
2, 12440, Note_on_c, 0, 51, 0
2, 12472, Note_on_c, 0, 76, 0
2, 12481, Note_on_c, 0, 63, 0
2, 12490, Note_on_c, 0, 51, 79
2, 12490, Note_on_c, 0, 75, 109
2, 12494, Control_c, 0, 64, 0
2, 12518, Control_c, 0, 64, 127
2, 12542, Note_on_c, 0, 63, 76
2, 12543, Note_on_c, 0, 51, 0
2, 12585, Note_on_c, 0, 63, 0
2, 12590, Note_on_c, 0, 75, 0
2, 12590, Note_on_c, 0, 51, 80
2, 12593, Note_on_c, 0, 73, 105
2, 12594, Control_c, 0, 64, 0
2, 12615, Control_c, 0, 64, 127
2, 12638, Note_on_c, 0, 51, 0
2, 12643, Note_on_c, 0, 63, 77
2, 12684, Note_on_c, 0, 73, 0
2, 12692, Note_on_c, 0, 70, 96
2, 12693, Note_on_c, 0, 63, 0
2, 12694, Control_c, 0, 64, 0
2, 12697, Note_on_c, 0, 61, 65
2, 12721, Control_c, 0, 64, 127
2, 12744, Note_on_c, 0, 61, 0
2, 12745, Note_on_c, 0, 63, 71
2, 12793, Control_c, 0, 64, 0
2, 12794, Note_on_c, 0, 63, 0
2, 12794, Note_on_c, 0, 70, 0
2, 12794, Note_on_c, 0, 67, 92
2, 12795, Note_on_c, 0, 61, 75
2, 12824, Control_c, 0, 64, 127
2, 12842, Note_on_c, 0, 61, 0
2, 12846, Note_on_c, 0, 63, 71
2, 12860, Note_on_c, 0, 67, 0
2, 12890, Note_on_c, 0, 63, 0
2, 12901, Control_c, 0, 64, 0
2, 12901, Note_on_c, 0, 60, 82
2, 12929, Control_c, 0, 64, 127
2, 12945, Note_on_c, 0, 60, 0
2, 12948, Note_on_c, 0, 63, 71
2, 12950, Note_on_c, 0, 67, 96
2, 12990, Control_c, 0, 64, 0
2, 12996, Note_on_c, 0, 67, 0
2, 12998, Note_on_c, 0, 63, 0
2, 13000, Note_on_c, 0, 70, 92
2, 13001, Note_on_c, 0, 60, 80
2, 13024, Control_c, 0, 64, 127
2, 13045, Note_on_c, 0, 70, 0
2, 13049, Note_on_c, 0, 60, 0
2, 13049, Note_on_c, 0, 68, 105
2, 13051, Note_on_c, 0, 63, 77
2, 13070, Note_on_c, 0, 68, 0
2, 13093, Note_on_c, 0, 63, 0
2, 13095, Control_c, 0, 64, 0
2, 13102, Note_on_c, 0, 55, 92
2, 13125, Control_c, 0, 64, 127
2, 13149, Note_on_c, 0, 55, 0
2, 13150, Note_on_c, 0, 63, 80
2, 13151, Note_on_c, 0, 69, 109
2, 13191, Control_c, 0, 64, 0
2, 13194, Note_on_c, 0, 63, 0
2, 13196, Note_on_c, 0, 69, 0
2, 13200, Note_on_c, 0, 72, 100
2, 13201, Note_on_c, 0, 55, 92
2, 13223, Control_c, 0, 64, 127
2, 13249, Note_on_c, 0, 72, 0
2, 13250, Note_on_c, 0, 70, 109
2, 13251, Note_on_c, 0, 63, 80
2, 13253, Note_on_c, 0, 55, 0
2, 13272, Note_on_c, 0, 70, 0
2, 13292, Note_on_c, 0, 63, 0
2, 13298, Control_c, 0, 64, 0
2, 13304, Note_on_c, 0, 56, 84
2, 13333, Control_c, 0, 64, 127
2, 13347, Note_on_c, 0, 63, 84
2, 13351, Note_on_c, 0, 71, 113
2, 13353, Note_on_c, 0, 56, 0
2, 13391, Note_on_c, 0, 71, 0
2, 13395, Control_c, 0, 64, 0
2, 13398, Note_on_c, 0, 63, 0
2, 13398, Note_on_c, 0, 56, 100
2, 13399, Note_on_c, 0, 73, 100
2, 13423, Control_c, 0, 64, 127
2, 13445, Note_on_c, 0, 73, 0
2, 13447, Note_on_c, 0, 56, 0
2, 13447, Note_on_c, 0, 63, 92
2, 13448, Note_on_c, 0, 72, 118
2, 13471, Note_on_c, 0, 72, 0
2, 13478, Note_on_c, 0, 63, 0
2, 13499, Note_on_c, 0, 53, 88
2, 13500, Control_c, 0, 64, 0
2, 13529, Control_c, 0, 64, 127
2, 13548, Note_on_c, 0, 62, 100
2, 13549, Note_on_c, 0, 74, 113
2, 13552, Note_on_c, 0, 53, 0
2, 13592, Note_on_c, 0, 62, 0
2, 13593, Note_on_c, 0, 74, 0
2, 13594, Control_c, 0, 64, 0
2, 13598, Note_on_c, 0, 56, 96
2, 13600, Note_on_c, 0, 80, 118
2, 13615, Control_c, 0, 64, 127
2, 13647, Note_on_c, 0, 56, 0
2, 13648, Note_on_c, 0, 62, 96
2, 13650, Note_on_c, 0, 80, 0
2, 13651, Note_on_c, 0, 74, 118
2, 13675, Note_on_c, 0, 62, 0
2, 13693, Note_on_c, 0, 74, 0
2, 13698, Control_c, 0, 64, 0
2, 13699, Note_on_c, 0, 51, 79
2, 13701, Note_on_c, 0, 75, 118
2, 13723, Control_c, 0, 64, 127
2, 13755, Note_on_c, 0, 63, 75
2, 13758, Note_on_c, 0, 51, 0
2, 13766, Note_on_c, 0, 75, 0
2, 13803, Control_c, 0, 64, 0
2, 13805, Note_on_c, 0, 63, 0
2, 13805, Note_on_c, 0, 55, 88
2, 13836, Control_c, 0, 64, 127
2, 13853, Note_on_c, 0, 55, 0
2, 13856, Note_on_c, 0, 63, 73
2, 13883, Note_on_c, 0, 63, 0
2, 13904, Note_on_c, 0, 53, 76
2, 13906, Control_c, 0, 64, 0
2, 13927, Control_c, 0, 64, 127
2, 13950, Note_on_c, 0, 62, 96
2, 13954, Note_on_c, 0, 74, 113
2, 13965, Note_on_c, 0, 53, 0
2, 13993, Note_on_c, 0, 74, 0
2, 13994, Note_on_c, 0, 62, 0
2, 13994, Control_c, 0, 64, 0
2, 13999, Note_on_c, 0, 56, 100
2, 14000, Note_on_c, 0, 80, 113
2, 14016, Control_c, 0, 64, 127
2, 14048, Note_on_c, 0, 56, 0
2, 14050, Note_on_c, 0, 80, 0
2, 14050, Note_on_c, 0, 74, 109
2, 14052, Note_on_c, 0, 62, 96
2, 14081, Note_on_c, 0, 62, 0
2, 14086, Note_on_c, 0, 74, 0
2, 14096, Control_c, 0, 64, 0
2, 14099, Note_on_c, 0, 51, 82
2, 14100, Note_on_c, 0, 75, 122
2, 14121, Control_c, 0, 64, 127
2, 14148, Note_on_c, 0, 63, 82
2, 14152, Note_on_c, 0, 51, 0
2, 14156, Note_on_c, 0, 75, 0
2, 14195, Note_on_c, 0, 63, 0
2, 14199, Note_on_c, 0, 55, 96
2, 14206, Control_c, 0, 64, 0
2, 14223, Control_c, 0, 64, 127
2, 14247, Note_on_c, 0, 55, 0
2, 14251, Note_on_c, 0, 63, 77
2, 14272, Note_on_c, 0, 63, 0
2, 14296, Note_on_c, 0, 49, 69
2, 14304, Control_c, 0, 64, 0
2, 14323, Control_c, 0, 64, 127
2, 14348, Note_on_c, 0, 49, 0
2, 14349, Note_on_c, 0, 58, 84
2, 14349, Note_on_c, 0, 79, 113
2, 14388, Note_on_c, 0, 79, 0
2, 14390, Note_on_c, 0, 58, 0
2, 14395, Control_c, 0, 64, 0
2, 14397, Note_on_c, 0, 49, 109
2, 14398, Note_on_c, 0, 88, 113
2, 14413, Control_c, 0, 64, 127
2, 14443, Note_on_c, 0, 49, 0
2, 14448, Note_on_c, 0, 88, 0
2, 14448, Note_on_c, 0, 58, 77
2, 14448, Note_on_c, 0, 79, 113
2, 14479, Note_on_c, 0, 58, 0
2, 14485, Note_on_c, 0, 79, 0
2, 14492, Control_c, 0, 64, 0
2, 14496, Note_on_c, 0, 48, 100
2, 14498, Note_on_c, 0, 80, 113
2, 14512, Control_c, 0, 64, 127
2, 14527, Note_on_c, 0, 80, 0
2, 14550, Note_on_c, 0, 56, 82
2, 14564, Note_on_c, 0, 48, 0
2, 14586, Note_on_c, 0, 56, 0
2, 14598, Note_on_c, 0, 51, 80
2, 14633, Note_on_c, 0, 51, 0
2, 14646, Note_on_c, 0, 56, 96
2, 14678, Note_on_c, 0, 56, 0
2, 14693, Control_c, 0, 64, 0
2, 14700, Note_on_c, 0, 49, 80
2, 14720, Control_c, 0, 64, 127
2, 14751, Note_on_c, 0, 58, 92
2, 14752, Note_on_c, 0, 79, 82
2, 14763, Note_on_c, 0, 49, 0
2, 14779, Note_on_c, 0, 79, 0
2, 14788, Note_on_c, 0, 58, 0
2, 14802, Control_c, 0, 64, 0
2, 14803, Note_on_c, 0, 88, 120
2, 14803, Note_on_c, 0, 52, 105
2, 14825, Control_c, 0, 64, 127
2, 14849, Note_on_c, 0, 58, 88
2, 14853, Note_on_c, 0, 52, 0
2, 14853, Note_on_c, 0, 79, 105
2, 14863, Note_on_c, 0, 88, 0
2, 14883, Note_on_c, 0, 79, 0
2, 14884, Note_on_c, 0, 58, 0
2, 14895, Control_c, 0, 64, 0
2, 14904, Note_on_c, 0, 48, 109
2, 14922, Control_c, 0, 64, 127
2, 14951, Note_on_c, 0, 79, 105
2, 14952, Note_on_c, 0, 56, 88
2, 14956, Note_on_c, 0, 48, 0
2, 14998, Control_c, 0, 64, 0
2, 15002, Note_on_c, 0, 79, 0
2, 15005, Note_on_c, 0, 56, 0
2, 15005, Note_on_c, 0, 82, 105
2, 15005, Note_on_c, 0, 51, 96
2, 15019, Control_c, 0, 64, 127
2, 15052, Note_on_c, 0, 82, 0
2, 15054, Note_on_c, 0, 80, 113
2, 15056, Note_on_c, 0, 51, 0
2, 15056, Note_on_c, 0, 56, 88
2, 15078, Note_on_c, 0, 80, 0
2, 15084, Note_on_c, 0, 56, 0
2, 15104, Control_c, 0, 64, 0
2, 15105, Note_on_c, 0, 43, 109
2, 15128, Control_c, 0, 64, 127
2, 15151, Note_on_c, 0, 43, 0
2, 15154, Note_on_c, 0, 81, 109
2, 15155, Note_on_c, 0, 55, 100
2, 15197, Control_c, 0, 64, 0
2, 15198, Note_on_c, 0, 81, 0
2, 15202, Note_on_c, 0, 55, 0
2, 15205, Note_on_c, 0, 84, 109
2, 15205, Note_on_c, 0, 51, 92
2, 15220, Control_c, 0, 64, 127
2, 15252, Note_on_c, 0, 84, 0
2, 15254, Note_on_c, 0, 82, 105
2, 15257, Note_on_c, 0, 51, 0
2, 15258, Note_on_c, 0, 55, 96
2, 15275, Note_on_c, 0, 82, 0
2, 15289, Note_on_c, 0, 55, 0
2, 15305, Control_c, 0, 64, 0
2, 15306, Note_on_c, 0, 44, 100
2, 15326, Control_c, 0, 64, 127
2, 15352, Note_on_c, 0, 44, 0
2, 15353, Note_on_c, 0, 56, 96
2, 15354, Note_on_c, 0, 83, 109
2, 15396, Note_on_c, 0, 83, 0
2, 15396, Note_on_c, 0, 56, 0
2, 15396, Control_c, 0, 64, 0
2, 15402, Note_on_c, 0, 51, 96
2, 15404, Note_on_c, 0, 85, 100
2, 15420, Control_c, 0, 64, 127
2, 15444, Note_on_c, 0, 85, 0
2, 15450, Note_on_c, 0, 84, 105
2, 15452, Note_on_c, 0, 56, 96
2, 15453, Note_on_c, 0, 51, 0
2, 15487, Note_on_c, 0, 84, 0
2, 15494, Note_on_c, 0, 56, 0
2, 15501, Note_on_c, 0, 46, 109
2, 15503, Control_c, 0, 64, 0
2, 15523, Control_c, 0, 64, 127
2, 15550, Note_on_c, 0, 58, 96
2, 15550, Note_on_c, 0, 84, 113
2, 15554, Note_on_c, 0, 46, 0
2, 15597, Note_on_c, 0, 58, 0
2, 15599, Note_on_c, 0, 84, 0
2, 15601, Control_c, 0, 64, 0
2, 15602, Note_on_c, 0, 51, 105
2, 15604, Note_on_c, 0, 89, 118
2, 15621, Control_c, 0, 64, 127
2, 15650, Note_on_c, 0, 51, 0
2, 15650, Note_on_c, 0, 87, 100
2, 15651, Note_on_c, 0, 58, 84
2, 15653, Note_on_c, 0, 89, 0
2, 15680, Note_on_c, 0, 87, 0
2, 15688, Note_on_c, 0, 58, 0
2, 15700, Note_on_c, 0, 48, 113
2, 15702, Control_c, 0, 64, 0
2, 15727, Control_c, 0, 64, 127
2, 15745, Note_on_c, 0, 86, 122
2, 15790, Note_on_c, 0, 86, 0
2, 15796, Control_c, 0, 64, 0
2, 15797, Note_on_c, 0, 51, 113
2, 15797, Note_on_c, 0, 89, 113
2, 15798, Note_on_c, 0, 48, 0
2, 15819, Control_c, 0, 64, 127
2, 15844, Note_on_c, 0, 89, 0
2, 15847, Note_on_c, 0, 87, 105
2, 15862, Control_c, 0, 64, 0
2, 15889, Control_c, 0, 64, 127
2, 15896, Note_on_c, 0, 85, 105
2, 15897, Note_on_c, 0, 87, 0
2, 15941, Note_on_c, 0, 85, 0
2, 15944, Note_on_c, 0, 84, 109
2, 15984, Control_c, 0, 64, 0
2, 15993, Note_on_c, 0, 84, 0
2, 15994, Note_on_c, 0, 56, 96
2, 15994, Note_on_c, 0, 82, 109
2, 15995, Note_on_c, 0, 51, 0
2, 16005, Control_c, 0, 64, 127
2, 16032, Note_on_c, 0, 82, 0
2, 16045, Note_on_c, 0, 80, 113
2, 16057, Note_on_c, 0, 80, 0
2, 16087, Note_on_c, 0, 56, 0
2, 16094, Note_on_c, 0, 49, 105
2, 16094, Control_c, 0, 64, 0
2, 16095, Note_on_c, 0, 79, 113
2, 16120, Control_c, 0, 64, 127
2, 16139, Note_on_c, 0, 79, 0
2, 16142, Note_on_c, 0, 77, 96
2, 16185, Note_on_c, 0, 77, 0
2, 16185, Control_c, 0, 64, 0
2, 16189, Note_on_c, 0, 49, 0
2, 16191, Note_on_c, 0, 75, 109
2, 16192, Note_on_c, 0, 53, 109
2, 16205, Control_c, 0, 64, 127
2, 16241, Note_on_c, 0, 75, 0
2, 16241, Note_on_c, 0, 73, 100
2, 16249, Note_on_c, 0, 73, 0
2, 16292, Note_on_c, 0, 72, 96
2, 16294, Control_c, 0, 64, 0
2, 16311, Control_c, 0, 64, 127
2, 16340, Note_on_c, 0, 72, 0
2, 16341, Note_on_c, 0, 70, 105
2, 16386, Control_c, 0, 64, 0
2, 16387, Note_on_c, 0, 70, 0
2, 16390, Note_on_c, 0, 68, 109
2, 16392, Note_on_c, 0, 58, 92
2, 16393, Note_on_c, 0, 53, 0
2, 16405, Control_c, 0, 64, 127
2, 16435, Note_on_c, 0, 68, 0
2, 16437, Note_on_c, 0, 67, 96
2, 16455, Note_on_c, 0, 67, 0
2, 16470, Note_on_c, 0, 58, 0
2, 16486, Control_c, 0, 64, 0
2, 16488, Note_on_c, 0, 65, 96
2, 16490, Note_on_c, 0, 51, 92
2, 16510, Control_c, 0, 64, 127
2, 16537, Note_on_c, 0, 63, 82
2, 16539, Note_on_c, 0, 65, 0
2, 16586, Note_on_c, 0, 63, 0
2, 16587, Note_on_c, 0, 51, 0
2, 16588, Note_on_c, 0, 62, 96
2, 16588, Note_on_c, 0, 56, 92
2, 16588, Control_c, 0, 64, 0
2, 16612, Control_c, 0, 64, 127
2, 16636, Note_on_c, 0, 63, 92
2, 16638, Note_on_c, 0, 62, 0
2, 16657, Control_c, 0, 64, 0
2, 16679, Control_c, 0, 64, 127
2, 16686, Note_on_c, 0, 63, 0
2, 16687, Note_on_c, 0, 62, 80
2, 16736, Note_on_c, 0, 62, 0
2, 16738, Note_on_c, 0, 63, 82
2, 16763, Note_on_c, 0, 56, 0
2, 16784, Note_on_c, 0, 63, 0
2, 16785, Note_on_c, 0, 62, 92
2, 16787, Control_c, 0, 64, 0
2, 16788, Note_on_c, 0, 60, 105
2, 16810, Control_c, 0, 64, 127
2, 16835, Note_on_c, 0, 62, 0
2, 16835, Note_on_c, 0, 63, 76
2, 16882, Note_on_c, 0, 63, 0
2, 16882, Control_c, 0, 64, 0
2, 16883, Note_on_c, 0, 60, 0
2, 16883, Note_on_c, 0, 62, 96
2, 16883, Note_on_c, 0, 61, 109
2, 16908, Control_c, 0, 64, 127
2, 16932, Note_on_c, 0, 63, 80
2, 16933, Note_on_c, 0, 62, 0
2, 16976, Control_c, 0, 64, 0
2, 16981, Note_on_c, 0, 63, 0
2, 16982, Note_on_c, 0, 65, 92
2, 16984, Note_on_c, 0, 58, 96
2, 16989, Note_on_c, 0, 61, 0
2, 16999, Control_c, 0, 64, 127
2, 17032, Note_on_c, 0, 63, 77
2, 17034, Note_on_c, 0, 65, 0
2, 17075, Control_c, 0, 64, 0
2, 17081, Note_on_c, 0, 63, 0
2, 17082, Note_on_c, 0, 62, 100
2, 17085, Note_on_c, 0, 58, 0
2, 17086, Note_on_c, 0, 55, 92
2, 17097, Control_c, 0, 64, 127
2, 17131, Note_on_c, 0, 62, 0
2, 17133, Note_on_c, 0, 63, 77
2, 17168, Control_c, 0, 64, 0
2, 17173, Note_on_c, 0, 63, 0
2, 17179, Note_on_c, 0, 65, 100
2, 17181, Note_on_c, 0, 55, 0
2, 17181, Note_on_c, 0, 49, 100
2, 17186, Control_c, 0, 64, 127
2, 17199, Note_on_c, 0, 49, 0
2, 17228, Note_on_c, 0, 63, 100
2, 17229, Note_on_c, 0, 65, 0
2, 17240, Note_on_c, 0, 63, 0
2, 17279, Note_on_c, 0, 36, 113
2, 17280, Control_c, 0, 64, 0
2, 17302, Control_c, 0, 64, 127
2, 17326, Note_on_c, 0, 84, 100
2, 17359, Note_on_c, 0, 84, 0
2, 17374, Note_on_c, 0, 36, 0
2, 17375, Control_c, 0, 64, 0
2, 17376, Note_on_c, 0, 39, 105
2, 17377, Note_on_c, 0, 89, 118
2, 17409, Control_c, 0, 64, 127
2, 17423, Note_on_c, 0, 89, 0
2, 17426, Note_on_c, 0, 87, 100
2, 17467, Control_c, 0, 64, 0
2, 17474, Note_on_c, 0, 85, 96
2, 17475, Note_on_c, 0, 87, 0
2, 17485, Control_c, 0, 64, 127
2, 17520, Note_on_c, 0, 85, 0
2, 17522, Note_on_c, 0, 84, 109
2, 17539, Note_on_c, 0, 84, 0
2, 17570, Note_on_c, 0, 82, 96
2, 17571, Control_c, 0, 64, 0
2, 17571, Note_on_c, 0, 44, 96
2, 17573, Note_on_c, 0, 39, 0
2, 17591, Control_c, 0, 64, 127
2, 17618, Note_on_c, 0, 82, 0
2, 17621, Note_on_c, 0, 80, 109
2, 17661, Note_on_c, 0, 80, 0
2, 17662, Note_on_c, 0, 44, 0
2, 17662, Control_c, 0, 64, 0
2, 17667, Note_on_c, 0, 37, 109
2, 17670, Note_on_c, 0, 79, 113
2, 17686, Control_c, 0, 64, 127
2, 17713, Note_on_c, 0, 79, 0
2, 17717, Note_on_c, 0, 77, 109
2, 17734, Note_on_c, 0, 77, 0
2, 17764, Note_on_c, 0, 75, 92
2, 17766, Control_c, 0, 64, 0
2, 17767, Note_on_c, 0, 41, 105
2, 17768, Note_on_c, 0, 37, 0
2, 17790, Control_c, 0, 64, 127
2, 17814, Note_on_c, 0, 73, 92
2, 17816, Note_on_c, 0, 75, 0
2, 17826, Control_c, 0, 64, 0
2, 17845, Control_c, 0, 64, 127
2, 17853, Note_on_c, 0, 73, 0
2, 17866, Note_on_c, 0, 72, 109
2, 17877, Note_on_c, 0, 72, 0
2, 17916, Note_on_c, 0, 70, 100
2, 17943, Note_on_c, 0, 70, 0
2, 17954, Control_c, 0, 64, 0
2, 17960, Note_on_c, 0, 68, 105
2, 17964, Note_on_c, 0, 46, 96
2, 17965, Note_on_c, 0, 41, 0
2, 17975, Control_c, 0, 64, 127
2, 18010, Note_on_c, 0, 68, 0
2, 18010, Note_on_c, 0, 67, 105
2, 18021, Note_on_c, 0, 67, 0
2, 18055, Note_on_c, 0, 46, 0
2, 18056, Note_on_c, 0, 39, 92
2, 18060, Note_on_c, 0, 65, 82
2, 18065, Control_c, 0, 64, 0
2, 18097, Control_c, 0, 64, 127
2, 18107, Note_on_c, 0, 63, 96
2, 18110, Note_on_c, 0, 65, 0
2, 18152, Note_on_c, 0, 39, 0
2, 18153, Note_on_c, 0, 63, 0
2, 18153, Note_on_c, 0, 61, 109
2, 18154, Control_c, 0, 64, 0
2, 18155, Note_on_c, 0, 44, 96
2, 18176, Control_c, 0, 64, 127
2, 18200, Note_on_c, 0, 61, 0
2, 18201, Note_on_c, 0, 60, 109
2, 18219, Note_on_c, 0, 60, 0
2, 18244, Control_c, 0, 64, 0
2, 18250, Note_on_c, 0, 58, 96
2, 18265, Control_c, 0, 64, 127
2, 18297, Note_on_c, 0, 56, 92
2, 18298, Note_on_c, 0, 58, 0
2, 18344, Note_on_c, 0, 56, 0
2, 18346, Note_on_c, 0, 44, 0
2, 18346, Note_on_c, 0, 55, 100
2, 18351, Note_on_c, 0, 48, 96
2, 18352, Control_c, 0, 64, 0
2, 18374, Control_c, 0, 64, 127
2, 18395, Note_on_c, 0, 55, 0
2, 18396, Note_on_c, 0, 53, 105
2, 18421, Note_on_c, 0, 53, 0
2, 18442, Control_c, 0, 64, 0
2, 18446, Note_on_c, 0, 48, 0
2, 18448, Note_on_c, 0, 49, 105
2, 18448, Note_on_c, 0, 51, 100
2, 18466, Control_c, 0, 64, 127
2, 18487, Note_on_c, 0, 51, 0
2, 18491, Note_on_c, 0, 53, 88
2, 18533, Note_on_c, 0, 53, 0
2, 18541, Control_c, 0, 64, 0
2, 18544, Note_on_c, 0, 55, 105
2, 18546, Note_on_c, 0, 46, 105
2, 18548, Note_on_c, 0, 49, 0
2, 18567, Control_c, 0, 64, 127
2, 18592, Note_on_c, 0, 55, 0
2, 18593, Note_on_c, 0, 56, 100
2, 18631, Control_c, 0, 64, 0
2, 18634, Note_on_c, 0, 56, 0
2, 18641, Note_on_c, 0, 46, 0
2, 18642, Note_on_c, 0, 58, 96
2, 18643, Note_on_c, 0, 43, 96
2, 18653, Control_c, 0, 64, 127
2, 18685, Note_on_c, 0, 58, 0
2, 18691, Note_on_c, 0, 60, 109
2, 18708, Note_on_c, 0, 60, 0
2, 18730, Note_on_c, 0, 43, 0
2, 18733, Control_c, 0, 64, 0
2, 18738, Note_on_c, 0, 39, 92
2, 18741, Note_on_c, 0, 61, 109
2, 18752, Control_c, 0, 64, 127
2, 18787, Note_on_c, 0, 61, 0
2, 18790, Note_on_c, 0, 58, 96
2, 18819, Note_on_c, 0, 58, 0
2, 18821, Note_on_c, 0, 39, 0
2, 18823, Control_c, 0, 64, 0
2, 18839, Note_on_c, 0, 56, 118
2, 18841, Note_on_c, 0, 44, 105
2, 18850, Control_c, 0, 64, 127
2, 18871, Note_on_c, 0, 56, 0
2, 18892, Note_on_c, 0, 44, 0
2, 18941, Control_c, 0, 64, 0
2, 18941, Note_on_c, 0, 56, 127
2, 18958, Control_c, 0, 64, 127
2, 19016, Note_on_c, 0, 56, 0
2, 19024, Control_c, 0, 64, 0
2, 19027, Note_on_c, 0, 62, 127
2, 19041, Note_on_c, 0, 62, 0
2, 19042, Note_on_c, 0, 71, 109
2, 19137, Note_on_c, 0, 59, 113
2, 19138, Note_on_c, 0, 50, 113
2, 19138, Note_on_c, 0, 53, 109
2, 19139, Note_on_c, 0, 56, 105
2, 19153, Note_on_c, 0, 50, 0
2, 19153, Note_on_c, 0, 59, 0
2, 19155, Note_on_c, 0, 56, 0
2, 19155, Note_on_c, 0, 53, 0
2, 19177, Note_on_c, 0, 71, 0
2, 19187, Note_on_c, 0, 70, 109
2, 19205, Note_on_c, 0, 70, 0
2, 19238, Note_on_c, 0, 68, 127
2, 19336, Note_on_c, 0, 51, 113
2, 19336, Note_on_c, 0, 56, 113
2, 19336, Note_on_c, 0, 60, 127
2, 19348, Note_on_c, 0, 60, 0
2, 19350, Note_on_c, 0, 56, 0
2, 19350, Note_on_c, 0, 51, 0
2, 19430, Note_on_c, 0, 68, 0
2, 19433, Note_on_c, 0, 67, 127
2, 19527, Note_on_c, 0, 61, 100
2, 19527, Note_on_c, 0, 58, 96
2, 19528, Note_on_c, 0, 51, 105
2, 19533, Control_c, 0, 64, 127
2, 19570, Note_on_c, 0, 51, 0
2, 19572, Note_on_c, 0, 61, 0
2, 19573, Note_on_c, 0, 58, 0
2, 19578, Note_on_c, 0, 75, 122
2, 19579, Control_c, 0, 64, 0
2, 19581, Note_on_c, 0, 67, 0
2, 19601, Note_on_c, 0, 75, 0
2, 19627, Note_on_c, 0, 75, 122
2, 19716, Note_on_c, 0, 75, 0
2, 19718, Note_on_c, 0, 68, 118
2, 19720, Note_on_c, 0, 56, 109
2, 19720, Note_on_c, 0, 60, 113
2, 19764, Note_on_c, 0, 68, 0
2, 19771, Note_on_c, 0, 60, 0
2, 19772, Note_on_c, 0, 56, 0
2, 19798, Note_on_c, 0, 62, 127
2, 19811, Note_on_c, 0, 62, 0
2, 19817, Note_on_c, 0, 71, 122
2, 19912, Note_on_c, 0, 50, 113
2, 19912, Note_on_c, 0, 59, 113
2, 19912, Note_on_c, 0, 53, 100
2, 19912, Note_on_c, 0, 56, 113
2, 19927, Note_on_c, 0, 59, 0
2, 19930, Note_on_c, 0, 53, 0
2, 19930, Note_on_c, 0, 56, 0
2, 19930, Note_on_c, 0, 50, 0
2, 19960, Note_on_c, 0, 70, 100
2, 19964, Note_on_c, 0, 71, 0
2, 19989, Note_on_c, 0, 70, 0
2, 20012, Note_on_c, 0, 68, 127
2, 20106, Note_on_c, 0, 56, 105
2, 20107, Note_on_c, 0, 51, 109
2, 20107, Note_on_c, 0, 60, 113
2, 20128, Note_on_c, 0, 60, 0
2, 20128, Note_on_c, 0, 51, 0
2, 20130, Note_on_c, 0, 56, 0
2, 20199, Note_on_c, 0, 68, 0
2, 20204, Note_on_c, 0, 67, 118
2, 20299, Note_on_c, 0, 61, 127
2, 20299, Note_on_c, 0, 58, 118
2, 20300, Note_on_c, 0, 51, 113
2, 20317, Note_on_c, 0, 61, 0
2, 20318, Note_on_c, 0, 51, 0
2, 20318, Note_on_c, 0, 58, 0
2, 20345, Note_on_c, 0, 75, 109
2, 20348, Note_on_c, 0, 67, 0
2, 20365, Note_on_c, 0, 75, 0
2, 20395, Note_on_c, 0, 75, 127
2, 20486, Note_on_c, 0, 60, 118
2, 20487, Note_on_c, 0, 56, 105
2, 20487, Note_on_c, 0, 68, 122
2, 20488, Note_on_c, 0, 75, 0
2, 20490, Control_c, 0, 64, 127
2, 20504, Note_on_c, 0, 68, 0
2, 20510, Note_on_c, 0, 60, 0
2, 20511, Note_on_c, 0, 56, 0
2, 20556, Control_c, 0, 64, 0
2, 20562, Note_on_c, 0, 74, 127
2, 20575, Note_on_c, 0, 74, 0
2, 20582, Note_on_c, 0, 83, 122
2, 20680, Note_on_c, 0, 62, 118
2, 20681, Note_on_c, 0, 68, 113
2, 20682, Note_on_c, 0, 65, 118
2, 20698, Note_on_c, 0, 65, 0
2, 20698, Note_on_c, 0, 68, 0
2, 20699, Note_on_c, 0, 62, 0
2, 20717, Note_on_c, 0, 83, 0
2, 20729, Note_on_c, 0, 82, 118
2, 20750, Note_on_c, 0, 82, 0
2, 20776, Note_on_c, 0, 80, 127
2, 20874, Note_on_c, 0, 68, 113
2, 20874, Note_on_c, 0, 72, 118
2, 20874, Note_on_c, 0, 63, 113
2, 20887, Note_on_c, 0, 72, 0
2, 20890, Note_on_c, 0, 63, 0
2, 20892, Note_on_c, 0, 68, 0
2, 20947, Note_on_c, 0, 80, 0
2, 20970, Note_on_c, 0, 79, 127
2, 21067, Note_on_c, 0, 73, 113
2, 21067, Note_on_c, 0, 63, 109
2, 21067, Note_on_c, 0, 70, 109
2, 21081, Note_on_c, 0, 73, 0
2, 21083, Note_on_c, 0, 70, 0
2, 21085, Note_on_c, 0, 63, 0
2, 21101, Note_on_c, 0, 79, 0
2, 21116, Note_on_c, 0, 87, 105
2, 21134, Note_on_c, 0, 87, 0
2, 21181, Note_on_c, 0, 87, 118
2, 21182, Note_on_c, 0, 79, 122
2, 21182, Note_on_c, 0, 73, 127
2, 21182, Note_on_c, 0, 56, 109
2, 21182, Note_on_c, 0, 61, 113
2, 21182, Note_on_c, 0, 63, 105
2, 21183, Note_on_c, 0, 67, 113
2, 21473, Control_c, 0, 64, 127
2, 21556, Note_on_c, 0, 87, 0
2, 21559, Note_on_c, 0, 79, 0
2, 21566, Note_on_c, 0, 73, 0
2, 21577, Note_on_c, 0, 61, 0
2, 21579, Note_on_c, 0, 63, 0
2, 21581, Note_on_c, 0, 67, 0
2, 21583, Note_on_c, 0, 56, 0
2, 21666, Note_on_c, 0, 68, 48
2, 21667, Note_on_c, 0, 56, 56
2, 21667, Note_on_c, 0, 80, 71
2, 21667, Note_on_c, 0, 60, 55
2, 21667, Note_on_c, 0, 75, 76
2, 21667, Note_on_c, 0, 72, 57
2, 21668, Note_on_c, 0, 63, 67
2, 21679, Control_c, 0, 64, 0
2, 21710, Control_c, 0, 64, 127
2, 21760, Note_on_c, 0, 60, 0
2, 21768, Note_on_c, 0, 63, 0
2, 21770, Note_on_c, 0, 56, 0
2, 21771, Note_on_c, 0, 68, 0
2, 21772, Note_on_c, 0, 72, 0
2, 21773, Note_on_c, 0, 75, 0
2, 21774, Note_on_c, 0, 80, 0
2, 21823, Control_c, 0, 64, 0
2, 22105, Note_on_c, 0, 63, 84
2, 22226, Note_on_c, 0, 68, 96
2, 22232, Note_on_c, 0, 63, 0
2, 22252, Note_on_c, 0, 68, 0
2, 22348, Note_on_c, 0, 72, 92
2, 22368, Note_on_c, 0, 72, 0
2, 22464, Note_on_c, 0, 75, 96
2, 22482, Note_on_c, 0, 75, 0
2, 22576, Note_on_c, 0, 80, 92
2, 22593, Note_on_c, 0, 80, 0
2, 22698, Note_on_c, 0, 84, 92
2, 22810, Note_on_c, 0, 56, 84
2, 22812, Note_on_c, 0, 63, 56
2, 22813, Note_on_c, 0, 60, 82
2, 22866, Note_on_c, 0, 82, 92
2, 22882, Note_on_c, 0, 84, 0
2, 22894, Note_on_c, 0, 80, 80
2, 22899, Note_on_c, 0, 60, 0
2, 22902, Note_on_c, 0, 82, 0
2, 22902, Note_on_c, 0, 56, 0
2, 22903, Note_on_c, 0, 63, 0
2, 22925, Note_on_c, 0, 63, 70
2, 22926, Note_on_c, 0, 80, 0
2, 22926, Note_on_c, 0, 79, 73
2, 22927, Note_on_c, 0, 56, 70
2, 22927, Note_on_c, 0, 60, 69
2, 22951, Note_on_c, 0, 80, 79
2, 22952, Note_on_c, 0, 79, 0
2, 22985, Note_on_c, 0, 80, 0
2, 22986, Note_on_c, 0, 60, 0
2, 22992, Note_on_c, 0, 56, 0
2, 22992, Note_on_c, 0, 63, 0
2, 23052, Note_on_c, 0, 56, 79
2, 23054, Note_on_c, 0, 63, 70
2, 23056, Note_on_c, 0, 60, 82
2, 23097, Note_on_c, 0, 60, 0
2, 23098, Note_on_c, 0, 63, 0
2, 23103, Note_on_c, 0, 56, 0
2, 23155, Note_on_c, 0, 73, 92
2, 23179, Note_on_c, 0, 73, 0
2, 23188, Note_on_c, 0, 85, 96
2, 23292, Note_on_c, 0, 55, 82
2, 23293, Note_on_c, 0, 61, 79
2, 23293, Note_on_c, 0, 63, 69
2, 23296, Note_on_c, 0, 58, 72
2, 23331, Note_on_c, 0, 58, 0
2, 23331, Note_on_c, 0, 61, 0
2, 23338, Note_on_c, 0, 63, 0
2, 23344, Note_on_c, 0, 55, 0
2, 23347, Note_on_c, 0, 84, 96
2, 23357, Note_on_c, 0, 85, 0
2, 23371, Note_on_c, 0, 82, 76
2, 23382, Note_on_c, 0, 84, 0
2, 23401, Note_on_c, 0, 81, 92
2, 23403, Note_on_c, 0, 82, 0
2, 23411, Note_on_c, 0, 63, 76
2, 23412, Note_on_c, 0, 55, 96
2, 23414, Note_on_c, 0, 61, 82
2, 23415, Note_on_c, 0, 58, 75
2, 23432, Note_on_c, 0, 81, 0
2, 23433, Note_on_c, 0, 82, 82
2, 23440, Note_on_c, 0, 58, 0
2, 23445, Note_on_c, 0, 61, 0
2, 23450, Note_on_c, 0, 63, 0
2, 23460, Note_on_c, 0, 55, 0
2, 23461, Note_on_c, 0, 82, 0
2, 23535, Note_on_c, 0, 55, 100
2, 23537, Note_on_c, 0, 58, 70
2, 23537, Note_on_c, 0, 63, 80
2, 23539, Note_on_c, 0, 61, 92
2, 23549, Note_on_c, 0, 58, 0
2, 23563, Note_on_c, 0, 61, 0
2, 23570, Note_on_c, 0, 55, 0
2, 23576, Note_on_c, 0, 63, 0
2, 23671, Note_on_c, 0, 70, 82
2, 23698, Note_on_c, 0, 70, 0
2, 23784, Note_on_c, 0, 73, 84
2, 23800, Note_on_c, 0, 73, 0
2, 23900, Note_on_c, 0, 79, 96
2, 23922, Note_on_c, 0, 79, 0
2, 24009, Note_on_c, 0, 82, 96
2, 24029, Note_on_c, 0, 82, 0
2, 24097, Note_on_c, 0, 73, 84
2, 24120, Note_on_c, 0, 73, 0
2, 24124, Note_on_c, 0, 85, 88
2, 24233, Note_on_c, 0, 61, 84
2, 24233, Note_on_c, 0, 58, 80
2, 24234, Note_on_c, 0, 55, 84
2, 24234, Note_on_c, 0, 64, 77
2, 24270, Note_on_c, 0, 58, 0
2, 24270, Note_on_c, 0, 61, 0
2, 24279, Note_on_c, 0, 64, 0
2, 24281, Note_on_c, 0, 84, 88
2, 24283, Note_on_c, 0, 55, 0
2, 24288, Note_on_c, 0, 85, 0
2, 24296, Note_on_c, 0, 84, 0
2, 24304, Note_on_c, 0, 82, 76
2, 24334, Note_on_c, 0, 81, 92
2, 24335, Note_on_c, 0, 82, 0
2, 24347, Note_on_c, 0, 55, 96
2, 24348, Note_on_c, 0, 64, 84
2, 24349, Note_on_c, 0, 61, 82
2, 24350, Note_on_c, 0, 58, 77
2, 24362, Note_on_c, 0, 81, 0
2, 24363, Note_on_c, 0, 82, 84
2, 24375, Note_on_c, 0, 61, 0
2, 24376, Note_on_c, 0, 58, 0
2, 24382, Note_on_c, 0, 64, 0
2, 24386, Note_on_c, 0, 82, 0
2, 24387, Note_on_c, 0, 55, 0
2, 24465, Note_on_c, 0, 55, 82
2, 24468, Note_on_c, 0, 64, 84
2, 24468, Note_on_c, 0, 58, 76
2, 24469, Note_on_c, 0, 61, 84
2, 24492, Note_on_c, 0, 58, 0
2, 24497, Note_on_c, 0, 61, 0
2, 24502, Note_on_c, 0, 64, 0
2, 24502, Note_on_c, 0, 55, 0
2, 24567, Note_on_c, 0, 73, 105
2, 24588, Note_on_c, 0, 73, 0
2, 24598, Note_on_c, 0, 85, 82
2, 24699, Note_on_c, 0, 54, 80
2, 24701, Note_on_c, 0, 64, 88
2, 24702, Note_on_c, 0, 61, 88
2, 24702, Note_on_c, 0, 58, 80
2, 24736, Note_on_c, 0, 58, 0
2, 24738, Note_on_c, 0, 61, 0
2, 24743, Note_on_c, 0, 64, 0
2, 24743, Note_on_c, 0, 54, 0
2, 24755, Note_on_c, 0, 84, 84
2, 24767, Note_on_c, 0, 85, 0
2, 24778, Note_on_c, 0, 82, 70
2, 24787, Note_on_c, 0, 84, 0
2, 24804, Note_on_c, 0, 81, 79
2, 24806, Note_on_c, 0, 82, 0
2, 24818, Note_on_c, 0, 54, 82
2, 24820, Note_on_c, 0, 64, 96
2, 24821, Note_on_c, 0, 61, 88
2, 24822, Note_on_c, 0, 58, 84
2, 24833, Note_on_c, 0, 81, 0
2, 24834, Note_on_c, 0, 82, 96
2, 24841, Note_on_c, 0, 58, 0
2, 24843, Note_on_c, 0, 61, 0
2, 24849, Note_on_c, 0, 54, 0
2, 24853, Note_on_c, 0, 64, 0
2, 24854, Note_on_c, 0, 82, 0
2, 24934, Note_on_c, 0, 54, 77
2, 24938, Note_on_c, 0, 61, 80
2, 24938, Note_on_c, 0, 64, 88
2, 24939, Note_on_c, 0, 58, 76
2, 24964, Note_on_c, 0, 54, 0
2, 24968, Note_on_c, 0, 61, 0
2, 24968, Note_on_c, 0, 64, 0
2, 24969, Note_on_c, 0, 58, 0
2, 25050, Note_on_c, 0, 81, 118
2, 25050, Note_on_c, 0, 53, 91
2, 25080, Note_on_c, 0, 53, 0
2, 25081, Control_c, 0, 64, 127
2, 25081, Control_c, 0, 64, 127
2, 25118, Note_on_c, 0, 65, 69
2, 25140, Note_on_c, 0, 81, 0
2, 25173, Note_on_c, 0, 65, 0
2, 25173, Note_on_c, 0, 53, 71
2, 25225, Note_on_c, 0, 53, 0
2, 25234, Note_on_c, 0, 65, 69
2, 25282, Note_on_c, 0, 65, 0
2, 25288, Note_on_c, 0, 53, 64
2, 25297, Control_c, 0, 64, 0
2, 25297, Control_c, 0, 64, 0
2, 25346, Note_on_c, 0, 53, 0
2, 25346, Control_c, 0, 64, 127
2, 25347, Control_c, 0, 64, 127
2, 25350, Note_on_c, 0, 65, 65
2, 25395, Note_on_c, 0, 65, 0
2, 25402, Note_on_c, 0, 53, 64
2, 25416, Note_on_c, 0, 78, 72
2, 25454, Note_on_c, 0, 53, 0
2, 25462, Note_on_c, 0, 65, 65
2, 25512, Note_on_c, 0, 65, 0
2, 25519, Note_on_c, 0, 53, 67
2, 25533, Control_c, 0, 64, 0
2, 25533, Control_c, 0, 64, 0
2, 25538, Note_on_c, 0, 77, 72
2, 25551, Note_on_c, 0, 78, 0
2, 25564, Control_c, 0, 64, 127
2, 25564, Control_c, 0, 64, 127
2, 25574, Note_on_c, 0, 53, 0
2, 25579, Note_on_c, 0, 65, 71
2, 25629, Note_on_c, 0, 65, 0
2, 25636, Note_on_c, 0, 53, 69
2, 25649, Note_on_c, 0, 75, 82
2, 25650, Note_on_c, 0, 77, 0
2, 25680, Note_on_c, 0, 53, 0
2, 25699, Note_on_c, 0, 65, 65
2, 25739, Note_on_c, 0, 65, 0
2, 25753, Note_on_c, 0, 53, 71
2, 25763, Note_on_c, 0, 72, 96
2, 25765, Note_on_c, 0, 75, 0
2, 25807, Note_on_c, 0, 53, 0
2, 25822, Note_on_c, 0, 65, 71
2, 25855, Note_on_c, 0, 65, 0
2, 25878, Note_on_c, 0, 69, 100
2, 25879, Note_on_c, 0, 53, 64
2, 25881, Note_on_c, 0, 72, 0
2, 25920, Note_on_c, 0, 65, 61
2, 25924, Note_on_c, 0, 53, 0
2, 25944, Note_on_c, 0, 65, 0
2, 25987, Control_c, 0, 64, 0
2, 25988, Control_c, 0, 64, 0
2, 25997, Note_on_c, 0, 53, 88
2, 25997, Note_on_c, 0, 63, 98
2, 25997, Note_on_c, 0, 66, 109
2, 26000, Note_on_c, 0, 69, 0
2, 26030, Control_c, 0, 64, 127
2, 26030, Control_c, 0, 64, 127
2, 26084, Note_on_c, 0, 53, 0
2, 26114, Note_on_c, 0, 53, 77
2, 26146, Note_on_c, 0, 53, 0
2, 26170, Note_on_c, 0, 66, 0
2, 26173, Note_on_c, 0, 65, 84
2, 26186, Note_on_c, 0, 63, 0
2, 26223, Control_c, 0, 64, 0
2, 26223, Control_c, 0, 64, 0
2, 26227, Note_on_c, 0, 53, 74
2, 26234, Note_on_c, 0, 61, 74
2, 26235, Note_on_c, 0, 70, 77
2, 26240, Note_on_c, 0, 65, 0
2, 26259, Control_c, 0, 64, 127
2, 26260, Control_c, 0, 64, 127
2, 26275, Note_on_c, 0, 61, 0
2, 26287, Note_on_c, 0, 53, 0
2, 26288, Note_on_c, 0, 65, 69
2, 26315, Note_on_c, 0, 70, 0
2, 26320, Note_on_c, 0, 65, 0
2, 26333, Control_c, 0, 64, 0
2, 26333, Control_c, 0, 64, 0
2, 26339, Note_on_c, 0, 53, 64
2, 26353, Note_on_c, 0, 78, 80
2, 26390, Control_c, 0, 64, 127
2, 26390, Control_c, 0, 64, 127
2, 26399, Note_on_c, 0, 53, 0
2, 26404, Note_on_c, 0, 65, 65
2, 26450, Note_on_c, 0, 65, 0
2, 26455, Note_on_c, 0, 53, 68
2, 26466, Control_c, 0, 64, 0
2, 26466, Control_c, 0, 64, 0
2, 26470, Note_on_c, 0, 77, 82
2, 26477, Note_on_c, 0, 78, 0
2, 26512, Control_c, 0, 64, 127
2, 26512, Control_c, 0, 64, 127
2, 26513, Note_on_c, 0, 53, 0
2, 26518, Note_on_c, 0, 65, 71
2, 26561, Note_on_c, 0, 65, 0
2, 26571, Note_on_c, 0, 53, 62
2, 26574, Control_c, 0, 64, 0
2, 26575, Control_c, 0, 64, 0
2, 26581, Note_on_c, 0, 75, 88
2, 26590, Note_on_c, 0, 77, 0
2, 26617, Control_c, 0, 64, 127
2, 26618, Control_c, 0, 64, 127
2, 26630, Note_on_c, 0, 53, 0
2, 26632, Note_on_c, 0, 65, 69
2, 26668, Note_on_c, 0, 65, 0
2, 26687, Note_on_c, 0, 53, 65
2, 26698, Note_on_c, 0, 72, 92
2, 26700, Note_on_c, 0, 75, 0
2, 26701, Control_c, 0, 64, 0
2, 26702, Control_c, 0, 64, 0
2, 26743, Control_c, 0, 64, 127
2, 26743, Control_c, 0, 64, 127
2, 26745, Note_on_c, 0, 53, 0
2, 26751, Note_on_c, 0, 65, 64
2, 26789, Note_on_c, 0, 65, 0
2, 26806, Note_on_c, 0, 53, 64
2, 26816, Note_on_c, 0, 69, 105
2, 26817, Note_on_c, 0, 72, 0
2, 26853, Note_on_c, 0, 53, 0
2, 26867, Note_on_c, 0, 65, 65
2, 26894, Note_on_c, 0, 65, 0
2, 26910, Control_c, 0, 64, 0
2, 26910, Control_c, 0, 64, 0
2, 26926, Note_on_c, 0, 53, 91
2, 26929, Note_on_c, 0, 66, 109
2, 26929, Note_on_c, 0, 63, 94
2, 26940, Note_on_c, 0, 69, 0
2, 26948, Control_c, 0, 64, 127
2, 26948, Control_c, 0, 64, 127
2, 27013, Note_on_c, 0, 53, 0
2, 27050, Note_on_c, 0, 53, 68
2, 27064, Note_on_c, 0, 63, 0
2, 27082, Note_on_c, 0, 53, 0
2, 27106, Note_on_c, 0, 66, 0
2, 27115, Note_on_c, 0, 65, 76
2, 27148, Control_c, 0, 64, 0
2, 27148, Control_c, 0, 64, 0
2, 27169, Note_on_c, 0, 53, 71
2, 27172, Note_on_c, 0, 61, 77
2, 27179, Note_on_c, 0, 70, 70
2, 27180, Note_on_c, 0, 65, 0
2, 27192, Control_c, 0, 64, 127
2, 27192, Control_c, 0, 64, 127
2, 27204, Note_on_c, 0, 61, 0
2, 27226, Note_on_c, 0, 53, 0
2, 27227, Note_on_c, 0, 65, 68
2, 27245, Note_on_c, 0, 70, 0
2, 27276, Note_on_c, 0, 65, 0
2, 27283, Control_c, 0, 64, 0
2, 27283, Control_c, 0, 64, 0
2, 27284, Note_on_c, 0, 53, 68
2, 27288, Note_on_c, 0, 78, 82
2, 27338, Note_on_c, 0, 53, 0
2, 27340, Control_c, 0, 64, 127
2, 27340, Control_c, 0, 64, 127
2, 27342, Note_on_c, 0, 65, 69
2, 27393, Note_on_c, 0, 65, 0
2, 27398, Note_on_c, 0, 53, 69
2, 27400, Control_c, 0, 64, 0
2, 27400, Control_c, 0, 64, 0
2, 27402, Note_on_c, 0, 77, 100
2, 27406, Note_on_c, 0, 78, 0
2, 27440, Control_c, 0, 64, 127
2, 27440, Control_c, 0, 64, 127
2, 27454, Note_on_c, 0, 53, 0
2, 27457, Note_on_c, 0, 65, 71
2, 27509, Control_c, 0, 64, 0
2, 27510, Control_c, 0, 64, 0
2, 27511, Note_on_c, 0, 65, 0
2, 27514, Note_on_c, 0, 53, 64
2, 27517, Note_on_c, 0, 75, 109
2, 27524, Note_on_c, 0, 77, 0
2, 27546, Control_c, 0, 64, 127
2, 27546, Control_c, 0, 64, 127
2, 27567, Note_on_c, 0, 53, 0
2, 27573, Note_on_c, 0, 65, 77
2, 27610, Control_c, 0, 64, 0
2, 27610, Control_c, 0, 64, 0
2, 27631, Note_on_c, 0, 63, 68
2, 27633, Note_on_c, 0, 65, 0
2, 27636, Note_on_c, 0, 75, 0
2, 27636, Note_on_c, 0, 72, 96
2, 27674, Control_c, 0, 64, 127
2, 27674, Control_c, 0, 64, 127
2, 27688, Note_on_c, 0, 63, 0
2, 27690, Note_on_c, 0, 65, 68
2, 27749, Note_on_c, 0, 63, 68
2, 27750, Note_on_c, 0, 65, 0
2, 27755, Note_on_c, 0, 72, 0
2, 27756, Note_on_c, 0, 69, 84
2, 27799, Control_c, 0, 64, 0
2, 27799, Control_c, 0, 64, 0
2, 27805, Note_on_c, 0, 63, 0
2, 27808, Note_on_c, 0, 65, 77
2, 27856, Note_on_c, 0, 69, 0
2, 27867, Note_on_c, 0, 65, 0
2, 27868, Note_on_c, 0, 61, 64
2, 27878, Control_c, 0, 64, 127
2, 27878, Control_c, 0, 64, 127
2, 27906, Control_c, 0, 64, 0
2, 27906, Control_c, 0, 64, 0
2, 27924, Note_on_c, 0, 61, 0
2, 27924, Note_on_c, 0, 65, 69
2, 27930, Note_on_c, 0, 69, 70
2, 27948, Control_c, 0, 64, 127
2, 27949, Control_c, 0, 64, 127
2, 27985, Note_on_c, 0, 65, 0
2, 27986, Note_on_c, 0, 61, 67
2, 27992, Note_on_c, 0, 72, 80
2, 27994, Control_c, 0, 64, 0
2, 27994, Control_c, 0, 64, 0
2, 28000, Note_on_c, 0, 69, 0
2, 28032, Control_c, 0, 64, 127
2, 28033, Control_c, 0, 64, 127
2, 28038, Note_on_c, 0, 61, 0
2, 28041, Note_on_c, 0, 65, 71
2, 28052, Note_on_c, 0, 70, 76
2, 28058, Note_on_c, 0, 72, 0
2, 28060, Control_c, 0, 64, 0
2, 28060, Control_c, 0, 64, 0
2, 28090, Note_on_c, 0, 70, 0
2, 28102, Note_on_c, 0, 65, 0
2, 28105, Note_on_c, 0, 60, 69
2, 28159, Note_on_c, 0, 60, 0
2, 28159, Note_on_c, 0, 65, 77
2, 28171, Note_on_c, 0, 70, 82
2, 28223, Note_on_c, 0, 65, 0
2, 28224, Note_on_c, 0, 60, 77
2, 28228, Note_on_c, 0, 73, 96
2, 28237, Note_on_c, 0, 70, 0
2, 28258, Control_c, 0, 64, 127
2, 28258, Control_c, 0, 64, 127
2, 28281, Note_on_c, 0, 60, 0
2, 28281, Note_on_c, 0, 65, 77
2, 28286, Note_on_c, 0, 72, 109
2, 28288, Note_on_c, 0, 73, 0
2, 28320, Control_c, 0, 64, 0
2, 28321, Control_c, 0, 64, 0
2, 28324, Note_on_c, 0, 72, 0
2, 28338, Note_on_c, 0, 65, 0
2, 28344, Note_on_c, 0, 58, 69
2, 28374, Control_c, 0, 64, 127
2, 28374, Control_c, 0, 64, 127
2, 28398, Note_on_c, 0, 58, 0
2, 28401, Note_on_c, 0, 65, 80
2, 28402, Note_on_c, 0, 72, 100
2, 28443, Control_c, 0, 64, 0
2, 28444, Control_c, 0, 64, 0
2, 28457, Note_on_c, 0, 65, 0
2, 28462, Note_on_c, 0, 58, 77
2, 28466, Note_on_c, 0, 75, 100
2, 28468, Note_on_c, 0, 72, 0
2, 28486, Control_c, 0, 64, 127
2, 28486, Control_c, 0, 64, 127
2, 28518, Note_on_c, 0, 58, 0
2, 28522, Note_on_c, 0, 65, 88
2, 28524, Note_on_c, 0, 73, 113
2, 28527, Note_on_c, 0, 75, 0
2, 28559, Note_on_c, 0, 73, 0
2, 28562, Note_on_c, 0, 65, 0
2, 28566, Control_c, 0, 64, 0
2, 28566, Control_c, 0, 64, 0
2, 28585, Note_on_c, 0, 56, 94
2, 28615, Control_c, 0, 64, 127
2, 28616, Control_c, 0, 64, 127
2, 28636, Note_on_c, 0, 56, 0
2, 28640, Note_on_c, 0, 71, 118
2, 28646, Note_on_c, 0, 66, 80
2, 28666, Control_c, 0, 64, 0
2, 28666, Control_c, 0, 64, 0
2, 28701, Note_on_c, 0, 66, 0
2, 28701, Control_c, 0, 64, 127
2, 28701, Control_c, 0, 64, 127
2, 28702, Note_on_c, 0, 71, 0
2, 28702, Note_on_c, 0, 73, 113
2, 28703, Note_on_c, 0, 56, 88
2, 28757, Note_on_c, 0, 66, 71
2, 28758, Note_on_c, 0, 73, 0
2, 28760, Note_on_c, 0, 56, 0
2, 28762, Note_on_c, 0, 72, 113
2, 28800, Note_on_c, 0, 66, 0
2, 28810, Control_c, 0, 64, 0
2, 28811, Control_c, 0, 64, 0
2, 28817, Note_on_c, 0, 55, 91
2, 28820, Note_on_c, 0, 72, 0
2, 28823, Note_on_c, 0, 71, 127
2, 28873, Control_c, 0, 64, 127
2, 28873, Control_c, 0, 64, 127
2, 28879, Note_on_c, 0, 67, 62
2, 28880, Note_on_c, 0, 55, 0
2, 28897, Control_c, 0, 64, 0
2, 28898, Control_c, 0, 64, 0
2, 28935, Note_on_c, 0, 55, 80
2, 28936, Note_on_c, 0, 67, 0
2, 28937, Note_on_c, 0, 71, 0
2, 28989, Note_on_c, 0, 55, 0
2, 28999, Note_on_c, 0, 67, 64
2, 29055, Note_on_c, 0, 67, 0
2, 29056, Note_on_c, 0, 55, 65
2, 29108, Note_on_c, 0, 55, 0
2, 29113, Note_on_c, 0, 67, 61
2, 29117, Control_c, 0, 64, 127
2, 29118, Control_c, 0, 64, 127
2, 29166, Note_on_c, 0, 55, 74
2, 29167, Note_on_c, 0, 67, 0
2, 29171, Control_c, 0, 64, 0
2, 29172, Control_c, 0, 64, 0
2, 29178, Note_on_c, 0, 80, 80
2, 29219, Control_c, 0, 64, 127
2, 29219, Control_c, 0, 64, 127
2, 29221, Note_on_c, 0, 55, 0
2, 29229, Note_on_c, 0, 67, 62
2, 29280, Note_on_c, 0, 79, 77
2, 29283, Note_on_c, 0, 67, 0
2, 29283, Note_on_c, 0, 55, 68
2, 29293, Control_c, 0, 64, 0
2, 29294, Control_c, 0, 64, 0
2, 29316, Note_on_c, 0, 80, 0
2, 29338, Note_on_c, 0, 55, 0
2, 29343, Control_c, 0, 64, 127
2, 29344, Control_c, 0, 64, 127
2, 29345, Note_on_c, 0, 67, 68
2, 29375, Note_on_c, 0, 67, 0
2, 29399, Note_on_c, 0, 79, 0
2, 29400, Note_on_c, 0, 55, 64
2, 29411, Control_c, 0, 64, 0
2, 29411, Control_c, 0, 64, 0
2, 29415, Note_on_c, 0, 77, 100
2, 29451, Control_c, 0, 64, 127
2, 29451, Control_c, 0, 64, 127
2, 29460, Note_on_c, 0, 55, 0
2, 29466, Note_on_c, 0, 67, 65
2, 29519, Control_c, 0, 64, 0
2, 29519, Control_c, 0, 64, 0
2, 29522, Note_on_c, 0, 55, 77
2, 29523, Note_on_c, 0, 67, 0
2, 29532, Note_on_c, 0, 77, 0
2, 29532, Note_on_c, 0, 74, 105
2, 29564, Control_c, 0, 64, 127
2, 29565, Control_c, 0, 64, 127
2, 29580, Note_on_c, 0, 55, 0
2, 29584, Note_on_c, 0, 67, 71
2, 29612, Control_c, 0, 64, 0
2, 29612, Control_c, 0, 64, 0
2, 29629, Note_on_c, 0, 67, 0
2, 29641, Note_on_c, 0, 55, 71
2, 29643, Note_on_c, 0, 74, 0
2, 29644, Note_on_c, 0, 71, 113
2, 29649, Control_c, 0, 64, 127
2, 29649, Control_c, 0, 64, 127
2, 29696, Note_on_c, 0, 55, 0
2, 29702, Note_on_c, 0, 67, 64
2, 29739, Note_on_c, 0, 67, 0
2, 29751, Control_c, 0, 64, 0
2, 29752, Control_c, 0, 64, 0
2, 29756, Note_on_c, 0, 65, 91
2, 29759, Note_on_c, 0, 71, 0
2, 29759, Note_on_c, 0, 55, 91
2, 29760, Note_on_c, 0, 68, 113
2, 29797, Control_c, 0, 64, 127
2, 29798, Control_c, 0, 64, 127
2, 29851, Note_on_c, 0, 55, 0
2, 29880, Note_on_c, 0, 55, 88
2, 29902, Note_on_c, 0, 65, 0
2, 29910, Note_on_c, 0, 55, 0
2, 29929, Note_on_c, 0, 68, 0
2, 29932, Note_on_c, 0, 67, 82
2, 29987, Control_c, 0, 64, 0
2, 29987, Control_c, 0, 64, 0
2, 29993, Note_on_c, 0, 72, 64
2, 29996, Note_on_c, 0, 55, 69
2, 29998, Note_on_c, 0, 63, 69
2, 30002, Note_on_c, 0, 67, 0
2, 30026, Control_c, 0, 64, 127
2, 30026, Control_c, 0, 64, 127
2, 30040, Note_on_c, 0, 63, 0
2, 30056, Note_on_c, 0, 72, 0
2, 30057, Note_on_c, 0, 55, 0
2, 30057, Note_on_c, 0, 67, 71
2, 30104, Note_on_c, 0, 80, 70
2, 30109, Control_c, 0, 64, 0
2, 30110, Note_on_c, 0, 67, 0
2, 30110, Control_c, 0, 64, 0
2, 30111, Note_on_c, 0, 55, 74
2, 30167, Note_on_c, 0, 67, 68
2, 30169, Note_on_c, 0, 55, 0
2, 30172, Control_c, 0, 64, 127
2, 30172, Control_c, 0, 64, 127
2, 30217, Note_on_c, 0, 67, 0
2, 30219, Control_c, 0, 64, 0
2, 30219, Control_c, 0, 64, 0
2, 30222, Note_on_c, 0, 55, 64
2, 30227, Note_on_c, 0, 79, 96
2, 30234, Note_on_c, 0, 80, 0
2, 30260, Control_c, 0, 64, 127
2, 30260, Control_c, 0, 64, 127
2, 30278, Note_on_c, 0, 55, 0
2, 30280, Note_on_c, 0, 67, 67
2, 30338, Note_on_c, 0, 67, 0
2, 30339, Note_on_c, 0, 55, 74
2, 30340, Note_on_c, 0, 77, 92
2, 30343, Control_c, 0, 64, 0
2, 30343, Control_c, 0, 64, 0
2, 30345, Note_on_c, 0, 79, 0
2, 30384, Control_c, 0, 64, 127
2, 30384, Control_c, 0, 64, 127
2, 30395, Note_on_c, 0, 55, 0
2, 30398, Note_on_c, 0, 67, 65
2, 30448, Note_on_c, 0, 67, 0
2, 30452, Note_on_c, 0, 55, 74
2, 30455, Control_c, 0, 64, 0
2, 30455, Control_c, 0, 64, 0
2, 30459, Note_on_c, 0, 77, 0
2, 30459, Note_on_c, 0, 74, 84
2, 30494, Control_c, 0, 64, 127
2, 30494, Control_c, 0, 64, 127
2, 30510, Note_on_c, 0, 55, 0
2, 30513, Note_on_c, 0, 67, 67
2, 30551, Note_on_c, 0, 67, 0
2, 30570, Control_c, 0, 64, 0
2, 30570, Control_c, 0, 64, 0
2, 30571, Note_on_c, 0, 55, 77
2, 30576, Note_on_c, 0, 74, 0
2, 30577, Note_on_c, 0, 71, 84
2, 30603, Control_c, 0, 64, 127
2, 30604, Control_c, 0, 64, 127
2, 30622, Note_on_c, 0, 55, 0
2, 30636, Note_on_c, 0, 67, 65
2, 30663, Note_on_c, 0, 67, 0
2, 30681, Control_c, 0, 64, 0
2, 30681, Control_c, 0, 64, 0
2, 30688, Note_on_c, 0, 65, 94
2, 30691, Note_on_c, 0, 68, 118
2, 30691, Note_on_c, 0, 55, 88
2, 30700, Note_on_c, 0, 71, 0
2, 30724, Control_c, 0, 64, 127
2, 30724, Control_c, 0, 64, 127
2, 30773, Note_on_c, 0, 55, 0
2, 30811, Note_on_c, 0, 55, 84
2, 30842, Note_on_c, 0, 65, 0
2, 30843, Note_on_c, 0, 55, 0
2, 30864, Note_on_c, 0, 67, 92
2, 30867, Note_on_c, 0, 68, 0
2, 30913, Control_c, 0, 64, 0
2, 30914, Control_c, 0, 64, 0
2, 30925, Note_on_c, 0, 63, 88
2, 30926, Note_on_c, 0, 72, 80
2, 30926, Note_on_c, 0, 55, 80
2, 30927, Note_on_c, 0, 67, 0
2, 30951, Control_c, 0, 64, 127
2, 30952, Control_c, 0, 64, 127
2, 30964, Note_on_c, 0, 63, 0
2, 30965, Note_on_c, 0, 55, 0
2, 30976, Note_on_c, 0, 72, 0
2, 31039, Note_on_c, 0, 65, 84
2, 31047, Note_on_c, 0, 56, 127
2, 31051, Control_c, 0, 64, 0
2, 31052, Control_c, 0, 64, 0
2, 31094, Note_on_c, 0, 65, 0
2, 31096, Note_on_c, 0, 62, 79
2, 31154, Note_on_c, 0, 65, 82
2, 31156, Note_on_c, 0, 62, 0
2, 31160, Note_on_c, 0, 56, 0
2, 31162, Note_on_c, 0, 55, 109
2, 31213, Note_on_c, 0, 62, 77
2, 31215, Note_on_c, 0, 65, 0
2, 31271, Note_on_c, 0, 65, 84
2, 31272, Note_on_c, 0, 62, 0
2, 31274, Note_on_c, 0, 55, 0
2, 31274, Note_on_c, 0, 53, 105
2, 31331, Note_on_c, 0, 65, 0
2, 31332, Note_on_c, 0, 62, 72
2, 31388, Note_on_c, 0, 62, 0
2, 31388, Note_on_c, 0, 65, 77
2, 31390, Note_on_c, 0, 53, 0
2, 31390, Note_on_c, 0, 50, 109
2, 31445, Note_on_c, 0, 62, 72
2, 31449, Note_on_c, 0, 65, 0
2, 31500, Note_on_c, 0, 62, 0
2, 31502, Note_on_c, 0, 65, 79
2, 31511, Note_on_c, 0, 47, 109
2, 31513, Note_on_c, 0, 50, 0
2, 31563, Note_on_c, 0, 65, 0
2, 31564, Note_on_c, 0, 62, 77
2, 31616, Note_on_c, 0, 62, 0
2, 31618, Note_on_c, 0, 65, 82
2, 31626, Note_on_c, 0, 47, 0
2, 31626, Note_on_c, 0, 44, 105
2, 31676, Note_on_c, 0, 65, 0
2, 31677, Note_on_c, 0, 62, 76
2, 31728, Note_on_c, 0, 62, 0
2, 31732, Note_on_c, 0, 71, 108
2, 31732, Note_on_c, 0, 65, 96
2, 31782, Note_on_c, 0, 43, 100
2, 31785, Note_on_c, 0, 44, 0
2, 31788, Note_on_c, 0, 62, 80
2, 31789, Note_on_c, 0, 65, 0
2, 31839, Note_on_c, 0, 62, 0
2, 31843, Note_on_c, 0, 63, 54
2, 31844, Note_on_c, 0, 43, 0
2, 31846, Note_on_c, 0, 72, 97
2, 31851, Note_on_c, 0, 48, 109
2, 31852, Note_on_c, 0, 71, 0
2, 31901, Note_on_c, 0, 60, 75
2, 31913, Note_on_c, 0, 63, 0
2, 31943, Note_on_c, 0, 48, 0
2, 31946, Note_on_c, 0, 72, 0
2, 31962, Note_on_c, 0, 63, 80
2, 31962, Note_on_c, 0, 54, 122
2, 31965, Note_on_c, 0, 60, 0
2, 32018, Note_on_c, 0, 63, 0
2, 32021, Note_on_c, 0, 60, 76
2, 32075, Note_on_c, 0, 60, 0
2, 32078, Note_on_c, 0, 63, 82
2, 32081, Note_on_c, 0, 54, 0
2, 32083, Note_on_c, 0, 53, 109
2, 32132, Note_on_c, 0, 63, 0
2, 32135, Note_on_c, 0, 60, 77
2, 32191, Note_on_c, 0, 60, 0
2, 32193, Note_on_c, 0, 63, 80
2, 32197, Note_on_c, 0, 51, 105
2, 32205, Note_on_c, 0, 53, 0
2, 32249, Note_on_c, 0, 63, 0
2, 32250, Note_on_c, 0, 60, 75
2, 32305, Note_on_c, 0, 60, 0
2, 32306, Note_on_c, 0, 63, 84
2, 32314, Note_on_c, 0, 48, 109
2, 32319, Note_on_c, 0, 51, 0
2, 32364, Note_on_c, 0, 63, 0
2, 32364, Note_on_c, 0, 60, 77
2, 32419, Note_on_c, 0, 60, 0
2, 32420, Note_on_c, 0, 63, 73
2, 32430, Note_on_c, 0, 45, 109
2, 32438, Note_on_c, 0, 48, 0
2, 32481, Note_on_c, 0, 63, 0
2, 32481, Note_on_c, 0, 60, 77
2, 32534, Note_on_c, 0, 60, 0
2, 32538, Note_on_c, 0, 63, 79
2, 32542, Note_on_c, 0, 45, 0
2, 32542, Note_on_c, 0, 42, 109
2, 32596, Note_on_c, 0, 63, 0
2, 32597, Note_on_c, 0, 60, 82
2, 32644, Note_on_c, 0, 60, 0
2, 32648, Note_on_c, 0, 69, 109
2, 32648, Note_on_c, 0, 63, 96
2, 32702, Note_on_c, 0, 42, 0
2, 32702, Note_on_c, 0, 41, 96
2, 32708, Note_on_c, 0, 60, 82
2, 32716, Note_on_c, 0, 63, 0
2, 32756, Note_on_c, 0, 60, 0
2, 32762, Note_on_c, 0, 41, 0
2, 32762, Note_on_c, 0, 46, 100
2, 32763, Note_on_c, 0, 70, 97
2, 32763, Note_on_c, 0, 61, 92
2, 32768, Note_on_c, 0, 69, 0
2, 32820, Note_on_c, 0, 58, 84
2, 32821, Note_on_c, 0, 61, 0
2, 32852, Note_on_c, 0, 46, 0
2, 32873, Note_on_c, 0, 58, 0
2, 32877, Note_on_c, 0, 52, 127
2, 32878, Note_on_c, 0, 70, 0
2, 32878, Note_on_c, 0, 61, 105
2, 32937, Note_on_c, 0, 61, 0
2, 32939, Note_on_c, 0, 58, 67
2, 32994, Note_on_c, 0, 58, 0
2, 32996, Note_on_c, 0, 61, 92
2, 33001, Note_on_c, 0, 51, 92
2, 33005, Note_on_c, 0, 52, 0
2, 33049, Note_on_c, 0, 61, 0
2, 33049, Note_on_c, 0, 58, 72
2, 33108, Note_on_c, 0, 49, 113
2, 33109, Note_on_c, 0, 51, 0
2, 33109, Note_on_c, 0, 61, 88
2, 33110, Note_on_c, 0, 58, 0
2, 33166, Note_on_c, 0, 61, 0
2, 33168, Note_on_c, 0, 58, 73
2, 33222, Note_on_c, 0, 58, 0
2, 33223, Note_on_c, 0, 61, 92
2, 33228, Note_on_c, 0, 49, 0
2, 33228, Note_on_c, 0, 46, 113
2, 33282, Note_on_c, 0, 58, 75
2, 33283, Note_on_c, 0, 61, 0
2, 33336, Note_on_c, 0, 61, 82
2, 33337, Note_on_c, 0, 58, 0
2, 33338, Note_on_c, 0, 43, 113
2, 33341, Note_on_c, 0, 46, 0
2, 33391, Note_on_c, 0, 61, 0
2, 33392, Note_on_c, 0, 58, 67
2, 33448, Note_on_c, 0, 58, 0
2, 33450, Note_on_c, 0, 61, 80
2, 33451, Note_on_c, 0, 43, 0
2, 33453, Note_on_c, 0, 40, 113
2, 33502, Note_on_c, 0, 61, 0
2, 33505, Note_on_c, 0, 58, 71
2, 33556, Note_on_c, 0, 58, 0
2, 33563, Note_on_c, 0, 40, 0
2, 33563, Note_on_c, 0, 61, 82
2, 33563, Note_on_c, 0, 39, 105
2, 33616, Note_on_c, 0, 61, 0
2, 33618, Note_on_c, 0, 58, 68
2, 33656, Note_on_c, 0, 58, 0
2, 33672, Note_on_c, 0, 67, 120
2, 33672, Note_on_c, 0, 61, 109
2, 33724, Note_on_c, 0, 58, 84
2, 33736, Note_on_c, 0, 61, 0
2, 33774, Note_on_c, 0, 58, 0
2, 33788, Note_on_c, 0, 61, 88
2, 33789, Note_on_c, 0, 51, 122
2, 33793, Note_on_c, 0, 39, 0
2, 33838, Note_on_c, 0, 58, 75
2, 33848, Note_on_c, 0, 61, 0
2, 33886, Note_on_c, 0, 58, 0
2, 33902, Note_on_c, 0, 60, 88
2, 33912, Note_on_c, 0, 67, 0
2, 33952, Note_on_c, 0, 56, 58
2, 33960, Note_on_c, 0, 60, 0
2, 34009, Note_on_c, 0, 56, 0
2, 34016, Note_on_c, 0, 63, 82
2, 34018, Note_on_c, 0, 48, 100
2, 34024, Note_on_c, 0, 51, 0
2, 34071, Note_on_c, 0, 56, 77
2, 34072, Note_on_c, 0, 63, 0
2, 34116, Note_on_c, 0, 56, 0
2, 34125, Note_on_c, 0, 68, 120
2, 34125, Note_on_c, 0, 63, 100
2, 34174, Note_on_c, 0, 63, 0
2, 34178, Note_on_c, 0, 56, 71
2, 34232, Note_on_c, 0, 36, 96
2, 34236, Note_on_c, 0, 56, 0
2, 34236, Note_on_c, 0, 48, 0
2, 34242, Note_on_c, 0, 63, 82
2, 34293, Note_on_c, 0, 56, 71
2, 34296, Note_on_c, 0, 63, 0
2, 34342, Note_on_c, 0, 56, 0
2, 34352, Note_on_c, 0, 61, 88
2, 34365, Note_on_c, 0, 68, 0
2, 34405, Note_on_c, 0, 61, 0
2, 34405, Note_on_c, 0, 56, 73
2, 34460, Note_on_c, 0, 56, 0
2, 34460, Note_on_c, 0, 36, 0
2, 34460, Note_on_c, 0, 37, 96
2, 34466, Note_on_c, 0, 61, 92
2, 34515, Note_on_c, 0, 56, 73
2, 34518, Note_on_c, 0, 61, 0
2, 34565, Note_on_c, 0, 56, 0
2, 34573, Note_on_c, 0, 65, 120
2, 34573, Note_on_c, 0, 61, 105
2, 34623, Note_on_c, 0, 61, 0
2, 34628, Note_on_c, 0, 56, 67
2, 34682, Note_on_c, 0, 56, 0
2, 34684, Note_on_c, 0, 61, 84
2, 34687, Note_on_c, 0, 49, 127
2, 34688, Note_on_c, 0, 37, 0
2, 34734, Note_on_c, 0, 61, 0
2, 34738, Note_on_c, 0, 56, 75
2, 34785, Note_on_c, 0, 56, 0
2, 34795, Note_on_c, 0, 61, 77
2, 34813, Note_on_c, 0, 65, 0
2, 34848, Note_on_c, 0, 55, 82
2, 34849, Note_on_c, 0, 61, 0
2, 34904, Note_on_c, 0, 55, 0
2, 34907, Note_on_c, 0, 61, 82
2, 34908, Note_on_c, 0, 46, 92
2, 34912, Note_on_c, 0, 49, 0
2, 34962, Note_on_c, 0, 55, 58
2, 34963, Note_on_c, 0, 61, 0
2, 35006, Note_on_c, 0, 55, 0
2, 35019, Note_on_c, 0, 67, 120
2, 35019, Note_on_c, 0, 61, 109
2, 35074, Note_on_c, 0, 61, 0
2, 35074, Note_on_c, 0, 55, 76
2, 35124, Note_on_c, 0, 55, 0
2, 35129, Note_on_c, 0, 34, 96
2, 35134, Note_on_c, 0, 46, 0
2, 35134, Note_on_c, 0, 61, 80
2, 35189, Note_on_c, 0, 55, 76
2, 35190, Note_on_c, 0, 61, 0
2, 35235, Note_on_c, 0, 55, 0
2, 35244, Note_on_c, 0, 60, 88
2, 35259, Note_on_c, 0, 67, 0
2, 35298, Note_on_c, 0, 55, 70
2, 35302, Note_on_c, 0, 60, 0
2, 35356, Note_on_c, 0, 55, 0
2, 35356, Note_on_c, 0, 60, 92
2, 35356, Note_on_c, 0, 36, 100
2, 35358, Note_on_c, 0, 34, 0
2, 35409, Note_on_c, 0, 60, 0
2, 35410, Note_on_c, 0, 55, 77
2, 35458, Note_on_c, 0, 55, 0
2, 35466, Note_on_c, 0, 60, 105
2, 35467, Note_on_c, 0, 64, 120
2, 35519, Note_on_c, 0, 60, 0
2, 35520, Note_on_c, 0, 55, 84
2, 35568, Note_on_c, 0, 55, 0
2, 35573, Note_on_c, 0, 60, 79
2, 35581, Note_on_c, 0, 48, 122
2, 35584, Note_on_c, 0, 36, 0
2, 35626, Note_on_c, 0, 55, 82
2, 35631, Note_on_c, 0, 60, 0
2, 35675, Note_on_c, 0, 55, 0
2, 35688, Note_on_c, 0, 56, 92
2, 35707, Note_on_c, 0, 64, 0
2, 35740, Note_on_c, 0, 53, 75
2, 35751, Note_on_c, 0, 56, 0
2, 35797, Note_on_c, 0, 53, 0
2, 35797, Note_on_c, 0, 60, 96
2, 35802, Note_on_c, 0, 44, 109
2, 35808, Note_on_c, 0, 48, 0
2, 35848, Note_on_c, 0, 53, 76
2, 35850, Note_on_c, 0, 60, 0
2, 35895, Note_on_c, 0, 53, 0
2, 35906, Note_on_c, 0, 65, 120
2, 35907, Note_on_c, 0, 60, 113
2, 35959, Note_on_c, 0, 60, 0
2, 35959, Note_on_c, 0, 53, 80
2, 36006, Note_on_c, 0, 53, 0
2, 36012, Note_on_c, 0, 32, 92
2, 36018, Note_on_c, 0, 44, 0
2, 36018, Note_on_c, 0, 60, 96
2, 36069, Note_on_c, 0, 53, 77
2, 36074, Note_on_c, 0, 60, 0
2, 36118, Note_on_c, 0, 32, 0
2, 36122, Note_on_c, 0, 53, 0
2, 36124, Note_on_c, 0, 65, 0
2, 36126, Note_on_c, 0, 61, 77
2, 36179, Note_on_c, 0, 53, 72
2, 36185, Note_on_c, 0, 61, 0
2, 36233, Note_on_c, 0, 34, 118
2, 36236, Note_on_c, 0, 53, 0
2, 36236, Note_on_c, 0, 61, 92
2, 36250, Control_c, 0, 64, 127
2, 36250, Control_c, 0, 64, 127
2, 36291, Note_on_c, 0, 53, 80
2, 36292, Note_on_c, 0, 61, 0
2, 36338, Note_on_c, 0, 53, 0
2, 36347, Note_on_c, 0, 61, 109
2, 36349, Note_on_c, 0, 65, 120
2, 36403, Note_on_c, 0, 61, 0
2, 36403, Note_on_c, 0, 53, 76
2, 36445, Control_c, 0, 64, 0
2, 36446, Control_c, 0, 64, 0
2, 36454, Note_on_c, 0, 53, 0
2, 36455, Note_on_c, 0, 46, 105
2, 36458, Note_on_c, 0, 61, 88
2, 36459, Note_on_c, 0, 34, 0
2, 36512, Note_on_c, 0, 53, 79
2, 36517, Note_on_c, 0, 61, 0
2, 36557, Note_on_c, 0, 53, 0
2, 36564, Note_on_c, 0, 46, 0
2, 36571, Note_on_c, 0, 62, 109
2, 36589, Note_on_c, 0, 65, 0
2, 36623, Note_on_c, 0, 53, 71
2, 36628, Note_on_c, 0, 62, 0
2, 36661, Note_on_c, 0, 53, 0
2, 36679, Note_on_c, 0, 35, 122
2, 36684, Note_on_c, 0, 56, 105
2, 36684, Note_on_c, 0, 62, 118
2, 36684, Note_on_c, 0, 65, 92
2, 36689, Control_c, 0, 64, 127
2, 36689, Control_c, 0, 64, 127
2, 36733, Note_on_c, 0, 53, 79
2, 36738, Note_on_c, 0, 62, 0
2, 36738, Note_on_c, 0, 56, 0
2, 36745, Note_on_c, 0, 65, 0
2, 36788, Note_on_c, 0, 53, 0
2, 36792, Note_on_c, 0, 56, 88
2, 36793, Note_on_c, 0, 62, 113
2, 36794, Note_on_c, 0, 65, 105
2, 36851, Note_on_c, 0, 53, 79
2, 36853, Note_on_c, 0, 65, 0
2, 36853, Note_on_c, 0, 56, 0
2, 36854, Note_on_c, 0, 62, 0
2, 36885, Control_c, 0, 64, 0
2, 36885, Control_c, 0, 64, 0
2, 36892, Note_on_c, 0, 53, 0
2, 36899, Note_on_c, 0, 56, 105
2, 36900, Note_on_c, 0, 65, 109
2, 36901, Note_on_c, 0, 62, 118
2, 36903, Note_on_c, 0, 47, 109
2, 36905, Note_on_c, 0, 35, 0
2, 36914, Control_c, 0, 64, 127
2, 36914, Control_c, 0, 64, 127
2, 36955, Note_on_c, 0, 53, 82
2, 36965, Note_on_c, 0, 62, 0
2, 36970, Note_on_c, 0, 65, 0
2, 36989, Note_on_c, 0, 53, 0
2, 36990, Note_on_c, 0, 47, 0
2, 36995, Note_on_c, 0, 56, 0
2, 37003, Note_on_c, 0, 36, 96
2, 37006, Control_c, 0, 64, 0
2, 37006, Control_c, 0, 64, 0
2, 37009, Note_on_c, 0, 60, 100
2, 37010, Note_on_c, 0, 55, 113
2, 37011, Note_on_c, 0, 64, 113
2, 37063, Note_on_c, 0, 48, 92
2, 37064, Note_on_c, 0, 36, 0
2, 37084, Note_on_c, 0, 55, 0
2, 37087, Note_on_c, 0, 60, 0
2, 37089, Note_on_c, 0, 64, 0
2, 37106, Note_on_c, 0, 48, 0
2, 37112, Note_on_c, 0, 52, 84
2, 37170, Note_on_c, 0, 48, 70
2, 37174, Note_on_c, 0, 52, 0
2, 37222, Note_on_c, 0, 52, 84
2, 37233, Note_on_c, 0, 48, 0
2, 37277, Note_on_c, 0, 48, 80
2, 37284, Note_on_c, 0, 52, 0
2, 37335, Note_on_c, 0, 52, 92
2, 37339, Note_on_c, 0, 48, 0
2, 37343, Note_on_c, 0, 72, 113
2, 37388, Note_on_c, 0, 48, 82
2, 37394, Note_on_c, 0, 52, 0
2, 37446, Note_on_c, 0, 53, 92
2, 37450, Note_on_c, 0, 48, 0
2, 37459, Note_on_c, 0, 68, 100
2, 37463, Note_on_c, 0, 72, 0
2, 37502, Note_on_c, 0, 48, 82
2, 37516, Note_on_c, 0, 53, 0
2, 37540, Note_on_c, 0, 68, 0
2, 37563, Note_on_c, 0, 53, 92
2, 37570, Note_on_c, 0, 48, 0
2, 37620, Note_on_c, 0, 48, 80
2, 37625, Note_on_c, 0, 53, 0
2, 37672, Note_on_c, 0, 53, 82
2, 37683, Note_on_c, 0, 48, 0
2, 37730, Note_on_c, 0, 48, 84
2, 37731, Note_on_c, 0, 53, 0
2, 37778, Note_on_c, 0, 77, 113
2, 37784, Note_on_c, 0, 56, 105
2, 37788, Note_on_c, 0, 48, 0
2, 37830, Note_on_c, 0, 48, 77
2, 37845, Note_on_c, 0, 56, 0
2, 37892, Note_on_c, 0, 76, 96
2, 37892, Note_on_c, 0, 55, 96
2, 37893, Note_on_c, 0, 48, 0
2, 37897, Note_on_c, 0, 77, 0
2, 37942, Note_on_c, 0, 48, 75
2, 37949, Note_on_c, 0, 55, 0
2, 37974, Note_on_c, 0, 76, 0
2, 38002, Note_on_c, 0, 55, 88
2, 38012, Note_on_c, 0, 48, 0
2, 38057, Note_on_c, 0, 48, 79
2, 38062, Note_on_c, 0, 55, 0
2, 38114, Note_on_c, 0, 55, 105
2, 38118, Note_on_c, 0, 48, 0
2, 38168, Note_on_c, 0, 48, 80
2, 38182, Note_on_c, 0, 55, 0
2, 38222, Note_on_c, 0, 84, 113
2, 38226, Note_on_c, 0, 48, 0
2, 38226, Note_on_c, 0, 58, 100
2, 38275, Note_on_c, 0, 48, 88
2, 38308, Note_on_c, 0, 58, 0
2, 38332, Note_on_c, 0, 56, 88
2, 38333, Note_on_c, 0, 48, 0
2, 38335, Note_on_c, 0, 77, 118
2, 38339, Note_on_c, 0, 84, 0
2, 38365, Note_on_c, 0, 77, 0
2, 38386, Note_on_c, 0, 48, 77
2, 38390, Note_on_c, 0, 56, 0
2, 38441, Note_on_c, 0, 60, 105
2, 38443, Note_on_c, 0, 48, 0
2, 38495, Note_on_c, 0, 48, 80
2, 38504, Note_on_c, 0, 60, 0
2, 38555, Note_on_c, 0, 48, 0
2, 38555, Note_on_c, 0, 59, 109
2, 38562, Note_on_c, 0, 77, 122
2, 38563, Note_on_c, 0, 89, 127
2, 38611, Note_on_c, 0, 48, 75
2, 38616, Note_on_c, 0, 59, 0
2, 38665, Note_on_c, 0, 48, 0
2, 38667, Note_on_c, 0, 62, 109
2, 38726, Note_on_c, 0, 48, 88
2, 38727, Note_on_c, 0, 62, 0
2, 38779, Note_on_c, 0, 48, 0
2, 38781, Note_on_c, 0, 89, 0
2, 38781, Note_on_c, 0, 77, 0
2, 38798, Note_on_c, 0, 60, 113
2, 38798, Note_on_c, 0, 76, 109
2, 38798, Note_on_c, 0, 88, 109
2, 38832, Note_on_c, 0, 48, 76
2, 38863, Note_on_c, 0, 60, 0
2, 38874, Note_on_c, 0, 76, 0
2, 38877, Note_on_c, 0, 88, 0
2, 38896, Note_on_c, 0, 52, 96
2, 38899, Note_on_c, 0, 48, 0
2, 38948, Note_on_c, 0, 48, 71
2, 38952, Note_on_c, 0, 52, 0
2, 39009, Note_on_c, 0, 52, 88
2, 39011, Note_on_c, 0, 48, 0
2, 39063, Note_on_c, 0, 48, 75
2, 39068, Note_on_c, 0, 52, 0
2, 39123, Note_on_c, 0, 48, 0
2, 39123, Note_on_c, 0, 55, 92
2, 39138, Note_on_c, 0, 74, 113
2, 39164, Note_on_c, 0, 72, 96
2, 39171, Note_on_c, 0, 74, 0
2, 39181, Note_on_c, 0, 48, 80
2, 39188, Note_on_c, 0, 55, 0
2, 39193, Note_on_c, 0, 71, 100
2, 39194, Note_on_c, 0, 72, 0
2, 39216, Note_on_c, 0, 72, 82
2, 39219, Note_on_c, 0, 71, 0
2, 39245, Note_on_c, 0, 72, 0
2, 39246, Note_on_c, 0, 53, 84
2, 39248, Note_on_c, 0, 48, 0
2, 39258, Note_on_c, 0, 68, 113
2, 39273, Note_on_c, 0, 68, 0
2, 39309, Note_on_c, 0, 48, 80
2, 39313, Note_on_c, 0, 53, 0
2, 39363, Note_on_c, 0, 53, 92
2, 39364, Note_on_c, 0, 68, 109
2, 39367, Note_on_c, 0, 48, 0
2, 39389, Note_on_c, 0, 68, 0
2, 39415, Note_on_c, 0, 48, 77
2, 39422, Note_on_c, 0, 53, 0
2, 39473, Note_on_c, 0, 53, 92
2, 39478, Note_on_c, 0, 48, 0
2, 39528, Note_on_c, 0, 48, 79
2, 39530, Note_on_c, 0, 53, 0
2, 39586, Note_on_c, 0, 48, 0
2, 39590, Note_on_c, 0, 56, 105
2, 39591, Note_on_c, 0, 79, 109
2, 39615, Note_on_c, 0, 77, 96
2, 39619, Note_on_c, 0, 79, 0
2, 39641, Note_on_c, 0, 48, 79
2, 39643, Note_on_c, 0, 77, 0
2, 39643, Note_on_c, 0, 76, 92
2, 39670, Note_on_c, 0, 76, 0
2, 39670, Note_on_c, 0, 56, 0
2, 39676, Note_on_c, 0, 77, 88
2, 39699, Note_on_c, 0, 77, 0
2, 39702, Note_on_c, 0, 48, 0
2, 39702, Note_on_c, 0, 55, 96
2, 39706, Note_on_c, 0, 76, 113
2, 39725, Note_on_c, 0, 76, 0
2, 39759, Note_on_c, 0, 48, 77
2, 39762, Note_on_c, 0, 55, 0
2, 39815, Note_on_c, 0, 48, 0
2, 39815, Note_on_c, 0, 55, 92
2, 39822, Note_on_c, 0, 76, 127
2, 39845, Note_on_c, 0, 76, 0
2, 39873, Note_on_c, 0, 48, 79
2, 39876, Note_on_c, 0, 55, 0
2, 39929, Note_on_c, 0, 55, 92
2, 39931, Note_on_c, 0, 48, 0
2, 39987, Note_on_c, 0, 48, 80
2, 39989, Note_on_c, 0, 55, 0
2, 40044, Note_on_c, 0, 48, 0
2, 40044, Note_on_c, 0, 86, 127
2, 40048, Note_on_c, 0, 58, 100
2, 40070, Note_on_c, 0, 84, 96
2, 40075, Note_on_c, 0, 86, 0
2, 40098, Note_on_c, 0, 84, 0
2, 40099, Note_on_c, 0, 83, 100
2, 40099, Note_on_c, 0, 48, 84
2, 40108, Note_on_c, 0, 58, 0
2, 40126, Note_on_c, 0, 83, 0
2, 40131, Note_on_c, 0, 84, 100
2, 40155, Note_on_c, 0, 84, 0
2, 40159, Note_on_c, 0, 56, 100
2, 40160, Note_on_c, 0, 48, 0
2, 40168, Note_on_c, 0, 77, 96
2, 40190, Note_on_c, 0, 77, 0
2, 40217, Note_on_c, 0, 48, 96
2, 40218, Note_on_c, 0, 56, 0
2, 40274, Note_on_c, 0, 48, 0
2, 40275, Note_on_c, 0, 60, 109
2, 40276, Note_on_c, 0, 77, 127
2, 40300, Note_on_c, 0, 77, 0
2, 40327, Note_on_c, 0, 48, 84
2, 40328, Note_on_c, 0, 48, 84
2, 40329, Note_on_c, 0, 60, 0
2, 40384, Note_on_c, 0, 48, 0
2, 40384, Note_on_c, 0, 48, 0
2, 40385, Note_on_c, 0, 59, 100
2, 40441, Note_on_c, 0, 48, 84
2, 40445, Note_on_c, 0, 59, 0
2, 40494, Note_on_c, 0, 77, 127
2, 40494, Note_on_c, 0, 89, 127
2, 40500, Note_on_c, 0, 62, 105
2, 40512, Note_on_c, 0, 48, 0
2, 40556, Note_on_c, 0, 48, 96
2, 40557, Note_on_c, 0, 62, 0
2, 40593, Note_on_c, 0, 77, 0
2, 40596, Note_on_c, 0, 89, 0
2, 40608, Note_on_c, 0, 76, 105
2, 40609, Note_on_c, 0, 88, 118
2, 40609, Note_on_c, 0, 60, 100
2, 40613, Note_on_c, 0, 48, 0
2, 40626, Note_on_c, 0, 76, 0
2, 40627, Note_on_c, 0, 88, 0
2, 40663, Note_on_c, 0, 48, 88
2, 40665, Note_on_c, 0, 60, 0
2, 40720, Note_on_c, 0, 76, 122
2, 40720, Note_on_c, 0, 88, 127
2, 40722, Note_on_c, 0, 60, 80
2, 40723, Note_on_c, 0, 48, 0
2, 40737, Note_on_c, 0, 76, 0
2, 40737, Note_on_c, 0, 88, 0
2, 40772, Note_on_c, 0, 48, 64
2, 40779, Note_on_c, 0, 60, 0
2, 40832, Note_on_c, 0, 58, 79
2, 40834, Note_on_c, 0, 48, 0
2, 40850, Control_c, 0, 64, 127
2, 40851, Control_c, 0, 64, 127
2, 40877, Control_c, 0, 64, 0
2, 40877, Control_c, 0, 64, 0
2, 40882, Note_on_c, 0, 48, 77
2, 40885, Note_on_c, 0, 58, 0
2, 40942, Note_on_c, 0, 48, 0
2, 40942, Note_on_c, 0, 58, 84
2, 40953, Note_on_c, 0, 73, 127
2, 40955, Note_on_c, 0, 85, 127
2, 40996, Note_on_c, 0, 48, 76
2, 41002, Note_on_c, 0, 58, 0
2, 41056, Note_on_c, 0, 56, 80
2, 41058, Note_on_c, 0, 48, 0
2, 41065, Note_on_c, 0, 73, 0
2, 41067, Note_on_c, 0, 85, 0
2, 41069, Note_on_c, 0, 72, 84
2, 41071, Note_on_c, 0, 84, 96
2, 41071, Control_c, 0, 64, 127
2, 41071, Control_c, 0, 64, 127
2, 41090, Control_c, 0, 64, 0
2, 41090, Control_c, 0, 64, 0
2, 41091, Note_on_c, 0, 72, 0
2, 41095, Note_on_c, 0, 84, 0
2, 41120, Note_on_c, 0, 48, 82
2, 41121, Note_on_c, 0, 56, 0
2, 41171, Note_on_c, 0, 48, 0
2, 41176, Note_on_c, 0, 60, 96
2, 41180, Note_on_c, 0, 84, 105
2, 41180, Note_on_c, 0, 72, 100
2, 41195, Note_on_c, 0, 72, 0
2, 41198, Note_on_c, 0, 84, 0
2, 41230, Note_on_c, 0, 48, 75
2, 41232, Note_on_c, 0, 60, 0
2, 41281, Note_on_c, 0, 48, 0
2, 41283, Note_on_c, 0, 59, 96
2, 41340, Note_on_c, 0, 48, 75
2, 41344, Note_on_c, 0, 59, 0
2, 41398, Note_on_c, 0, 62, 70
2, 41407, Note_on_c, 0, 77, 88
2, 41409, Note_on_c, 0, 89, 105
2, 41419, Note_on_c, 0, 48, 0
2, 41447, Note_on_c, 0, 62, 0
2, 41447, Note_on_c, 0, 48, 70
2, 41501, Note_on_c, 0, 77, 0
2, 41501, Note_on_c, 0, 89, 0
2, 41510, Note_on_c, 0, 48, 0
2, 41514, Note_on_c, 0, 60, 84
2, 41520, Note_on_c, 0, 88, 92
2, 41520, Note_on_c, 0, 76, 72
2, 41546, Note_on_c, 0, 76, 0
2, 41547, Note_on_c, 0, 88, 0
2, 41551, Control_c, 0, 64, 127
2, 41551, Control_c, 0, 64, 127
2, 41568, Note_on_c, 0, 60, 0
2, 41569, Note_on_c, 0, 48, 76
2, 41588, Control_c, 0, 64, 0
2, 41588, Control_c, 0, 64, 0
2, 41628, Note_on_c, 0, 76, 84
2, 41629, Note_on_c, 0, 48, 0
2, 41630, Note_on_c, 0, 88, 84
2, 41630, Note_on_c, 0, 60, 84
2, 41649, Note_on_c, 0, 88, 0
2, 41650, Note_on_c, 0, 76, 0
2, 41679, Note_on_c, 0, 48, 70
2, 41694, Note_on_c, 0, 60, 0
2, 41743, Note_on_c, 0, 58, 71
2, 41745, Note_on_c, 0, 48, 0
2, 41798, Note_on_c, 0, 58, 0
2, 41798, Note_on_c, 0, 48, 73
2, 41856, Note_on_c, 0, 48, 0
2, 41857, Note_on_c, 0, 58, 75
2, 41870, Note_on_c, 0, 73, 82
2, 41871, Note_on_c, 0, 85, 92
2, 41916, Note_on_c, 0, 58, 0
2, 41916, Note_on_c, 0, 48, 75
2, 41972, Note_on_c, 0, 73, 0
2, 41978, Note_on_c, 0, 48, 0
2, 41978, Note_on_c, 0, 85, 0
2, 41978, Note_on_c, 0, 56, 76
2, 41988, Note_on_c, 0, 72, 84
2, 41988, Note_on_c, 0, 84, 82
2, 42011, Note_on_c, 0, 72, 0
2, 42016, Note_on_c, 0, 84, 0
2, 42023, Note_on_c, 0, 56, 0
2, 42039, Note_on_c, 0, 48, 76
2, 42096, Note_on_c, 0, 48, 0
2, 42098, Note_on_c, 0, 60, 70
2, 42108, Note_on_c, 0, 72, 82
2, 42111, Note_on_c, 0, 84, 77
2, 42129, Note_on_c, 0, 72, 0
2, 42134, Note_on_c, 0, 84, 0
2, 42155, Note_on_c, 0, 48, 75
2, 42159, Note_on_c, 0, 60, 0
2, 42226, Note_on_c, 0, 48, 0
2, 42226, Note_on_c, 0, 59, 84
2, 42289, Note_on_c, 0, 48, 80
2, 42290, Note_on_c, 0, 59, 0
2, 42359, Note_on_c, 0, 77, 75
2, 42359, Note_on_c, 0, 89, 77
2, 42359, Note_on_c, 0, 62, 63
2, 42360, Note_on_c, 0, 48, 0
2, 42434, Note_on_c, 0, 48, 65
2, 42438, Note_on_c, 0, 62, 0
2, 42474, Note_on_c, 0, 77, 0
2, 42486, Note_on_c, 0, 89, 0
2, 42513, Note_on_c, 0, 48, 0
2, 42521, Note_on_c, 0, 76, 70
2, 42524, Note_on_c, 0, 88, 70
2, 42526, Note_on_c, 0, 60, 82
2, 42573, Note_on_c, 0, 60, 0
2, 42676, Note_on_c, 0, 60, 88
2, 42680, Note_on_c, 0, 76, 0
2, 42686, Note_on_c, 0, 88, 0
2, 42722, Note_on_c, 0, 60, 0
2, 42830, Note_on_c, 0, 60, 84
2, 42873, Note_on_c, 0, 60, 0
2, 42974, Note_on_c, 0, 60, 92
2, 43016, Note_on_c, 0, 60, 0
2, 43099, Note_on_c, 0, 60, 88
2, 43141, Note_on_c, 0, 60, 0
2, 43237, Note_on_c, 0, 60, 82
2, 43280, Note_on_c, 0, 60, 0
2, 43366, Note_on_c, 0, 60, 88
2, 43403, Note_on_c, 0, 60, 0
2, 43495, Note_on_c, 0, 60, 82
2, 43536, Note_on_c, 0, 60, 0
2, 43622, Note_on_c, 0, 60, 88
2, 43622, Note_on_c, 0, 61, 84
2, 43658, Note_on_c, 0, 60, 0
2, 43661, Note_on_c, 0, 61, 0
2, 43750, Note_on_c, 0, 61, 79
2, 43751, Note_on_c, 0, 60, 92
2, 43784, Note_on_c, 0, 60, 0
2, 43785, Note_on_c, 0, 61, 0
2, 43789, Note_on_c, 0, 68, 96
2, 43814, Note_on_c, 0, 68, 0
2, 43816, Note_on_c, 0, 66, 76
2, 43838, Note_on_c, 0, 66, 0
2, 43840, Note_on_c, 0, 65, 79
2, 43868, Note_on_c, 0, 65, 0
2, 43873, Note_on_c, 0, 66, 92
2, 43877, Note_on_c, 0, 60, 79
2, 43878, Note_on_c, 0, 61, 75
2, 43915, Note_on_c, 0, 61, 0
2, 43915, Note_on_c, 0, 60, 0
2, 43921, Note_on_c, 0, 66, 0
2, 44007, Note_on_c, 0, 61, 77
2, 44008, Note_on_c, 0, 60, 82
2, 44043, Note_on_c, 0, 60, 0
2, 44046, Note_on_c, 0, 61, 0
2, 44126, Note_on_c, 0, 58, 77
2, 44130, Note_on_c, 0, 61, 79
2, 44162, Note_on_c, 0, 58, 0
2, 44177, Note_on_c, 0, 61, 0
2, 44251, Note_on_c, 0, 61, 79
2, 44252, Note_on_c, 0, 58, 80
2, 44287, Note_on_c, 0, 58, 0
2, 44291, Note_on_c, 0, 87, 109
2, 44295, Note_on_c, 0, 61, 0
2, 44315, Note_on_c, 0, 85, 75
2, 44316, Note_on_c, 0, 87, 0
2, 44339, Note_on_c, 0, 85, 0
2, 44346, Note_on_c, 0, 84, 92
2, 44370, Note_on_c, 0, 84, 0
2, 44376, Note_on_c, 0, 85, 88
2, 44387, Note_on_c, 0, 58, 79
2, 44389, Note_on_c, 0, 61, 82
2, 44400, Note_on_c, 0, 85, 0
2, 44420, Note_on_c, 0, 58, 0
2, 44428, Note_on_c, 0, 61, 0
2, 44512, Note_on_c, 0, 61, 80
2, 44514, Note_on_c, 0, 58, 80
2, 44546, Note_on_c, 0, 58, 0
2, 44557, Note_on_c, 0, 61, 0
2, 44637, Note_on_c, 0, 58, 79
2, 44638, Note_on_c, 0, 60, 84
2, 44672, Note_on_c, 0, 58, 0
2, 44677, Note_on_c, 0, 60, 0
2, 44764, Note_on_c, 0, 58, 75
2, 44766, Note_on_c, 0, 60, 80
2, 44797, Note_on_c, 0, 58, 0
2, 44798, Note_on_c, 0, 60, 0
2, 44805, Note_on_c, 0, 65, 105
2, 44829, Note_on_c, 0, 65, 0
2, 44832, Note_on_c, 0, 64, 92
2, 44855, Note_on_c, 0, 64, 0
2, 44861, Note_on_c, 0, 62, 92
2, 44880, Note_on_c, 0, 62, 0
2, 44892, Note_on_c, 0, 60, 82
2, 44892, Note_on_c, 0, 64, 105
2, 44893, Note_on_c, 0, 58, 76
2, 44914, Note_on_c, 0, 64, 0
2, 44927, Note_on_c, 0, 58, 0
2, 44927, Note_on_c, 0, 60, 0
2, 45016, Note_on_c, 0, 60, 82
2, 45018, Note_on_c, 0, 58, 75
2, 45050, Note_on_c, 0, 60, 0
2, 45055, Note_on_c, 0, 58, 0
2, 45145, Note_on_c, 0, 56, 80
2, 45147, Note_on_c, 0, 60, 77
2, 45180, Note_on_c, 0, 56, 0
2, 45188, Note_on_c, 0, 60, 0
2, 45274, Note_on_c, 0, 60, 77
2, 45276, Note_on_c, 0, 56, 76
2, 45301, Note_on_c, 0, 85, 88
2, 45307, Note_on_c, 0, 56, 0
2, 45314, Note_on_c, 0, 60, 0
2, 45323, Note_on_c, 0, 85, 0
2, 45327, Note_on_c, 0, 84, 96
2, 45351, Note_on_c, 0, 84, 0
2, 45356, Note_on_c, 0, 83, 84
2, 45373, Note_on_c, 0, 83, 0
2, 45387, Note_on_c, 0, 84, 109
2, 45400, Note_on_c, 0, 56, 79
2, 45400, Note_on_c, 0, 60, 79
2, 45409, Note_on_c, 0, 84, 0
2, 45435, Note_on_c, 0, 56, 0
2, 45437, Note_on_c, 0, 60, 0
2, 45525, Note_on_c, 0, 60, 77
2, 45525, Note_on_c, 0, 56, 77
2, 45558, Note_on_c, 0, 56, 0
2, 45568, Note_on_c, 0, 60, 0
2, 45653, Note_on_c, 0, 56, 76
2, 45655, Note_on_c, 0, 58, 80
2, 45693, Note_on_c, 0, 56, 0
2, 45699, Note_on_c, 0, 58, 0
2, 45775, Note_on_c, 0, 58, 76
2, 45777, Note_on_c, 0, 56, 76
2, 45817, Note_on_c, 0, 63, 96
2, 45822, Note_on_c, 0, 56, 0
2, 45827, Note_on_c, 0, 58, 0
2, 45841, Note_on_c, 0, 63, 0
2, 45843, Note_on_c, 0, 62, 79
2, 45866, Note_on_c, 0, 62, 0
2, 45869, Note_on_c, 0, 60, 72
2, 45889, Note_on_c, 0, 60, 0
2, 45900, Note_on_c, 0, 62, 109
2, 45908, Note_on_c, 0, 58, 84
2, 45909, Note_on_c, 0, 56, 82
2, 45925, Note_on_c, 0, 62, 0
2, 45946, Note_on_c, 0, 56, 0
2, 45951, Note_on_c, 0, 58, 0
2, 46034, Note_on_c, 0, 58, 84
2, 46035, Note_on_c, 0, 56, 84
2, 46063, Note_on_c, 0, 56, 0
2, 46068, Note_on_c, 0, 58, 0
2, 46165, Note_on_c, 0, 64, 88
2, 46167, Note_on_c, 0, 55, 82
2, 46168, Note_on_c, 0, 58, 82
2, 46210, Note_on_c, 0, 55, 0
2, 46216, Note_on_c, 0, 64, 0
2, 46219, Note_on_c, 0, 58, 0
2, 46286, Note_on_c, 0, 58, 70
2, 46291, Note_on_c, 0, 55, 75
2, 46293, Note_on_c, 0, 64, 73
2, 46328, Note_on_c, 0, 55, 0
2, 46328, Note_on_c, 0, 58, 0
2, 46329, Note_on_c, 0, 84, 92
2, 46335, Note_on_c, 0, 64, 0
2, 46354, Note_on_c, 0, 82, 84
2, 46356, Note_on_c, 0, 84, 0
2, 46376, Note_on_c, 0, 82, 0
2, 46385, Note_on_c, 0, 81, 92
2, 46405, Note_on_c, 0, 81, 0
2, 46415, Note_on_c, 0, 82, 100
2, 46419, Note_on_c, 0, 58, 80
2, 46422, Note_on_c, 0, 55, 84
2, 46424, Note_on_c, 0, 64, 92
2, 46437, Note_on_c, 0, 82, 0
2, 46458, Note_on_c, 0, 58, 0
2, 46458, Note_on_c, 0, 55, 0
2, 46465, Note_on_c, 0, 64, 0
2, 46547, Note_on_c, 0, 58, 88
2, 46548, Note_on_c, 0, 64, 96
2, 46548, Note_on_c, 0, 55, 96
2, 46582, Note_on_c, 0, 58, 0
2, 46583, Note_on_c, 0, 64, 0
2, 46585, Note_on_c, 0, 55, 0
2, 46679, Note_on_c, 0, 56, 96
2, 46681, Note_on_c, 0, 53, 92
2, 46682, Note_on_c, 0, 65, 127
2, 46682, Note_on_c, 0, 60, 79
2, 46716, Note_on_c, 0, 65, 0
2, 46726, Note_on_c, 0, 56, 0
2, 46728, Note_on_c, 0, 53, 0
2, 46729, Note_on_c, 0, 60, 0
2, 46810, Note_on_c, 0, 68, 118
2, 46840, Note_on_c, 0, 68, 0
2, 46945, Note_on_c, 0, 72, 118
2, 46985, Note_on_c, 0, 72, 0
2, 47076, Note_on_c, 0, 77, 113
2, 47111, Note_on_c, 0, 77, 0
2, 47204, Note_on_c, 0, 80, 122
2, 47320, Note_on_c, 0, 53, 80
2, 47320, Note_on_c, 0, 56, 84
2, 47320, Note_on_c, 0, 60, 88
2, 47360, Note_on_c, 0, 56, 0
2, 47361, Note_on_c, 0, 60, 0
2, 47365, Note_on_c, 0, 53, 0
2, 47389, Note_on_c, 0, 80, 0
2, 47394, Note_on_c, 0, 79, 100
2, 47412, Note_on_c, 0, 77, 92
2, 47424, Note_on_c, 0, 79, 0
2, 47438, Note_on_c, 0, 60, 96
2, 47442, Note_on_c, 0, 77, 0
2, 47443, Note_on_c, 0, 76, 92
2, 47445, Note_on_c, 0, 53, 88
2, 47445, Note_on_c, 0, 56, 92
2, 47468, Note_on_c, 0, 76, 0
2, 47469, Note_on_c, 0, 77, 105
2, 47479, Note_on_c, 0, 60, 0
2, 47486, Note_on_c, 0, 56, 0
2, 47488, Note_on_c, 0, 53, 0
2, 47498, Note_on_c, 0, 77, 0
2, 47562, Note_on_c, 0, 56, 100
2, 47565, Note_on_c, 0, 53, 92
2, 47566, Note_on_c, 0, 60, 100
2, 47597, Note_on_c, 0, 60, 0
2, 47599, Note_on_c, 0, 56, 0
2, 47605, Note_on_c, 0, 53, 0
2, 47695, Note_on_c, 0, 67, 118
2, 47697, Note_on_c, 0, 58, 100
2, 47698, Note_on_c, 0, 55, 109
2, 47698, Note_on_c, 0, 52, 113
2, 47706, Note_on_c, 0, 59, 88
2, 47727, Note_on_c, 0, 67, 0
2, 47734, Note_on_c, 0, 59, 0
2, 47748, Note_on_c, 0, 55, 0
2, 47749, Note_on_c, 0, 52, 0
2, 47755, Note_on_c, 0, 58, 0
2, 47822, Note_on_c, 0, 72, 113
2, 47854, Note_on_c, 0, 72, 0
2, 47956, Note_on_c, 0, 76, 118
2, 47985, Note_on_c, 0, 76, 0
2, 48086, Note_on_c, 0, 79, 113
2, 48123, Note_on_c, 0, 79, 0
2, 48214, Note_on_c, 0, 82, 113
2, 48331, Note_on_c, 0, 58, 84
2, 48333, Note_on_c, 0, 55, 96
2, 48334, Note_on_c, 0, 52, 96
2, 48335, Note_on_c, 0, 60, 88
2, 48370, Note_on_c, 0, 60, 0
2, 48370, Note_on_c, 0, 55, 0
2, 48371, Note_on_c, 0, 52, 0
2, 48377, Note_on_c, 0, 58, 0
2, 48398, Note_on_c, 0, 80, 92
2, 48406, Note_on_c, 0, 82, 0
2, 48420, Note_on_c, 0, 79, 96
2, 48432, Note_on_c, 0, 80, 0
2, 48452, Note_on_c, 0, 77, 96
2, 48453, Note_on_c, 0, 79, 0
2, 48458, Note_on_c, 0, 58, 80
2, 48458, Note_on_c, 0, 55, 96
2, 48462, Note_on_c, 0, 52, 100
2, 48463, Note_on_c, 0, 60, 109
2, 48476, Note_on_c, 0, 79, 118
2, 48482, Note_on_c, 0, 77, 0
2, 48495, Note_on_c, 0, 60, 0
2, 48496, Note_on_c, 0, 52, 0
2, 48498, Note_on_c, 0, 55, 0
2, 48501, Note_on_c, 0, 58, 0
2, 48504, Note_on_c, 0, 79, 0
2, 48584, Note_on_c, 0, 55, 96
2, 48585, Note_on_c, 0, 58, 82
2, 48586, Note_on_c, 0, 52, 100
2, 48587, Note_on_c, 0, 60, 96
2, 48617, Note_on_c, 0, 60, 0
2, 48618, Note_on_c, 0, 52, 0
2, 48619, Note_on_c, 0, 58, 0
2, 48620, Note_on_c, 0, 55, 0
2, 48685, Note_on_c, 0, 72, 109
2, 48708, Note_on_c, 0, 80, 122
2, 48710, Note_on_c, 0, 72, 0
2, 48718, Note_on_c, 0, 53, 92
2, 48720, Note_on_c, 0, 60, 118
2, 48720, Note_on_c, 0, 56, 109
2, 48896, Note_on_c, 0, 80, 0
2, 48901, Note_on_c, 0, 79, 92
2, 48913, Note_on_c, 0, 56, 0
2, 48918, Note_on_c, 0, 53, 0
2, 48922, Note_on_c, 0, 60, 0
2, 48926, Note_on_c, 0, 77, 109
2, 48933, Note_on_c, 0, 79, 0
2, 48950, Note_on_c, 0, 76, 109
2, 48952, Note_on_c, 0, 77, 0
2, 48979, Note_on_c, 0, 76, 0
2, 48980, Note_on_c, 0, 77, 109
2, 49008, Note_on_c, 0, 77, 0
2, 49196, Note_on_c, 0, 72, 109
2, 49232, Note_on_c, 0, 55, 109
2, 49232, Note_on_c, 0, 58, 105
2, 49232, Note_on_c, 0, 64, 113
2, 49232, Note_on_c, 0, 82, 109
2, 49238, Note_on_c, 0, 72, 0
2, 49433, Note_on_c, 0, 80, 96
2, 49437, Note_on_c, 0, 82, 0
2, 49453, Note_on_c, 0, 79, 92
2, 49463, Note_on_c, 0, 58, 0
2, 49464, Note_on_c, 0, 55, 0
2, 49468, Note_on_c, 0, 80, 0
2, 49469, Note_on_c, 0, 64, 0
2, 49483, Note_on_c, 0, 79, 0
2, 49487, Note_on_c, 0, 77, 96
2, 49510, Note_on_c, 0, 77, 0
2, 49516, Note_on_c, 0, 79, 118
2, 49559, Note_on_c, 0, 79, 0
2, 49749, Note_on_c, 0, 72, 92
2, 49781, Note_on_c, 0, 77, 96
2, 49806, Note_on_c, 0, 80, 127
2, 49823, Note_on_c, 0, 65, 109
2, 49823, Note_on_c, 0, 60, 113
2, 49823, Note_on_c, 0, 56, 105
2, 49823, Note_on_c, 0, 84, 122
2, 49881, Note_on_c, 0, 60, 0
2, 49886, Note_on_c, 0, 65, 0
2, 49888, Note_on_c, 0, 56, 0
2, 50120, Note_on_c, 0, 72, 0
2, 50122, Note_on_c, 0, 58, 100
2, 50122, Note_on_c, 0, 61, 109
2, 50122, Note_on_c, 0, 67, 113
2, 50122, Note_on_c, 0, 82, 92
2, 50124, Note_on_c, 0, 77, 0
2, 50124, Note_on_c, 0, 80, 0
2, 50138, Note_on_c, 0, 84, 0
2, 50170, Note_on_c, 0, 61, 0
2, 50174, Note_on_c, 0, 67, 0
2, 50176, Note_on_c, 0, 58, 0
2, 50199, Note_on_c, 0, 80, 100
2, 50222, Note_on_c, 0, 82, 0
2, 50275, Note_on_c, 0, 79, 96
2, 50281, Note_on_c, 0, 80, 0
2, 50355, Note_on_c, 0, 79, 0
2, 50355, Note_on_c, 0, 77, 92
2, 50433, Note_on_c, 0, 77, 0
2, 50434, Note_on_c, 0, 76, 96
2, 50464, Note_on_c, 0, 77, 96
2, 50473, Note_on_c, 0, 76, 0
2, 50495, Note_on_c, 0, 77, 0
2, 50498, Note_on_c, 0, 79, 92
2, 50513, Note_on_c, 0, 79, 0
2, 50521, Note_on_c, 0, 60, 113
2, 50521, Note_on_c, 0, 67, 113
2, 50521, Note_on_c, 0, 77, 96
2, 50779, Note_on_c, 0, 60, 0
2, 50783, Note_on_c, 0, 67, 0
2, 50926, Note_on_c, 0, 76, 77
2, 50946, Note_on_c, 0, 77, 0
2, 51239, Note_on_c, 0, 76, 0
2, 51451, Note_on_c, 0, 48, 109
2, 51487, Note_on_c, 0, 48, 0
2, 51566, Note_on_c, 0, 53, 100
2, 51595, Note_on_c, 0, 53, 0
2, 51677, Note_on_c, 0, 56, 105
2, 51698, Note_on_c, 0, 56, 0
2, 51788, Note_on_c, 0, 60, 92
2, 51823, Note_on_c, 0, 60, 0
2, 51908, Note_on_c, 0, 65, 96
2, 51938, Note_on_c, 0, 65, 0
2, 52024, Note_on_c, 0, 68, 96
2, 52180, Note_on_c, 0, 68, 0
2, 52187, Note_on_c, 0, 67, 96
2, 52215, Note_on_c, 0, 65, 88
2, 52219, Note_on_c, 0, 67, 0
2, 52239, Note_on_c, 0, 65, 0
2, 52239, Note_on_c, 0, 64, 96
2, 52265, Note_on_c, 0, 64, 0
2, 52267, Note_on_c, 0, 65, 92
2, 52299, Note_on_c, 0, 65, 0
2, 52379, Note_on_c, 0, 65, 109
2, 52407, Note_on_c, 0, 65, 0
2, 52496, Note_on_c, 0, 66, 92
2, 52498, Note_on_c, 0, 65, 105
2, 52499, Note_on_c, 0, 82, 100
2, 52665, Note_on_c, 0, 80, 84
2, 52671, Note_on_c, 0, 82, 0
2, 52694, Note_on_c, 0, 78, 77
2, 52697, Note_on_c, 0, 80, 0
2, 52719, Note_on_c, 0, 78, 0
2, 52719, Note_on_c, 0, 77, 73
2, 52745, Note_on_c, 0, 78, 88
2, 52750, Note_on_c, 0, 77, 0
2, 52771, Note_on_c, 0, 78, 0
2, 52857, Note_on_c, 0, 78, 92
2, 52883, Note_on_c, 0, 78, 0
2, 52955, Note_on_c, 0, 65, 0
2, 52956, Note_on_c, 0, 66, 0
2, 52976, Note_on_c, 0, 63, 80
2, 52976, Note_on_c, 0, 66, 84
2, 52976, Note_on_c, 0, 78, 96
2, 53150, Note_on_c, 0, 73, 88
2, 53179, Note_on_c, 0, 72, 96
2, 53187, Note_on_c, 0, 73, 0
2, 53207, Note_on_c, 0, 72, 0
2, 53207, Note_on_c, 0, 71, 84
2, 53235, Note_on_c, 0, 72, 109
2, 53238, Note_on_c, 0, 71, 0
2, 53256, Note_on_c, 0, 72, 0
2, 53346, Note_on_c, 0, 72, 109
2, 53369, Note_on_c, 0, 72, 0
2, 53395, Note_on_c, 0, 63, 0
2, 53416, Note_on_c, 0, 66, 0
2, 53438, Note_on_c, 0, 78, 0
2, 53447, Note_on_c, 0, 72, 105
2, 53447, Note_on_c, 0, 69, 109
2, 53447, Note_on_c, 0, 63, 88
2, 53633, Note_on_c, 0, 78, 92
2, 53662, Note_on_c, 0, 77, 96
2, 53664, Note_on_c, 0, 78, 0
2, 53678, Note_on_c, 0, 76, 105
2, 53680, Note_on_c, 0, 77, 0
2, 53705, Note_on_c, 0, 76, 0
2, 53714, Note_on_c, 0, 77, 96
2, 53741, Note_on_c, 0, 77, 0
2, 53819, Note_on_c, 0, 77, 109
2, 53840, Note_on_c, 0, 77, 0
2, 53900, Note_on_c, 0, 72, 0
2, 53912, Note_on_c, 0, 69, 0
2, 53915, Note_on_c, 0, 63, 0
2, 53927, Note_on_c, 0, 77, 113
2, 53928, Note_on_c, 0, 61, 92
2, 53928, Note_on_c, 0, 65, 109
2, 54094, Note_on_c, 0, 72, 84
2, 54114, Note_on_c, 0, 70, 77
2, 54130, Note_on_c, 0, 72, 0
2, 54146, Note_on_c, 0, 69, 100
2, 54150, Note_on_c, 0, 70, 0
2, 54178, Note_on_c, 0, 69, 0
2, 54178, Note_on_c, 0, 70, 109
2, 54198, Note_on_c, 0, 70, 0
2, 54284, Note_on_c, 0, 70, 96
2, 54312, Note_on_c, 0, 70, 0
2, 54343, Note_on_c, 0, 65, 0
2, 54351, Note_on_c, 0, 61, 0
2, 54358, Note_on_c, 0, 77, 0
2, 54408, Note_on_c, 0, 71, 118
2, 54408, Note_on_c, 0, 65, 92
2, 54409, Note_on_c, 0, 62, 92
2, 54598, Note_on_c, 0, 79, 96
2, 54618, Note_on_c, 0, 77, 96
2, 54625, Note_on_c, 0, 79, 0
2, 54638, Note_on_c, 0, 76, 109
2, 54639, Note_on_c, 0, 77, 0
2, 54657, Note_on_c, 0, 77, 122
2, 54662, Note_on_c, 0, 76, 0
2, 54764, Note_on_c, 0, 65, 0
2, 54766, Note_on_c, 0, 64, 96
2, 54769, Note_on_c, 0, 79, 109
2, 54771, Note_on_c, 0, 77, 0
2, 54882, Note_on_c, 0, 79, 0
2, 54884, Note_on_c, 0, 80, 109
2, 54886, Note_on_c, 0, 65, 109
2, 54890, Note_on_c, 0, 64, 0
2, 54926, Note_on_c, 0, 71, 0
2, 54997, Note_on_c, 0, 65, 0
2, 54997, Note_on_c, 0, 67, 100
2, 54998, Note_on_c, 0, 80, 0
2, 54998, Note_on_c, 0, 76, 109
2, 55117, Note_on_c, 0, 68, 96
2, 55118, Note_on_c, 0, 67, 0
2, 55122, Note_on_c, 0, 77, 100
2, 55126, Note_on_c, 0, 76, 0
2, 55230, Note_on_c, 0, 65, 92
2, 55231, Note_on_c, 0, 68, 0
2, 55232, Note_on_c, 0, 77, 0
2, 55233, Note_on_c, 0, 71, 96
2, 55320, Note_on_c, 0, 65, 0
2, 55326, Note_on_c, 0, 62, 0
2, 55346, Note_on_c, 0, 71, 0
2, 55349, Note_on_c, 0, 64, 82
2, 55350, Note_on_c, 0, 72, 100
2, 55350, Note_on_c, 0, 60, 92
2, 55464, Note_on_c, 0, 64, 0
2, 55465, Note_on_c, 0, 76, 118
2, 55467, Note_on_c, 0, 67, 82
2, 55469, Note_on_c, 0, 72, 0
2, 55580, Note_on_c, 0, 65, 92
2, 55583, Note_on_c, 0, 67, 0
2, 55585, Note_on_c, 0, 77, 109
2, 55594, Note_on_c, 0, 76, 0
2, 55691, Note_on_c, 0, 64, 96
2, 55700, Note_on_c, 0, 79, 113
2, 55703, Note_on_c, 0, 65, 0
2, 55703, Note_on_c, 0, 77, 0
2, 55806, Note_on_c, 0, 64, 0
2, 55814, Note_on_c, 0, 79, 0
2, 55815, Note_on_c, 0, 80, 113
2, 55816, Note_on_c, 0, 65, 100
2, 55917, Note_on_c, 0, 65, 0
2, 55932, Note_on_c, 0, 76, 96
2, 55934, Note_on_c, 0, 70, 77
2, 55941, Note_on_c, 0, 80, 0
2, 56041, Note_on_c, 0, 70, 0
2, 56050, Note_on_c, 0, 61, 66
2, 56053, Note_on_c, 0, 68, 100
2, 56055, Note_on_c, 0, 60, 0
2, 56055, Note_on_c, 0, 77, 82
2, 56060, Note_on_c, 0, 76, 0
2, 56162, Note_on_c, 0, 77, 0
2, 56163, Note_on_c, 0, 65, 59
2, 56164, Note_on_c, 0, 71, 96
2, 56166, Note_on_c, 0, 68, 0
2, 56273, Note_on_c, 0, 61, 0
2, 56274, Note_on_c, 0, 65, 0
2, 56274, Note_on_c, 0, 71, 0
2, 56275, Note_on_c, 0, 48, 96
2, 56278, Note_on_c, 0, 72, 100
2, 56281, Note_on_c, 0, 64, 82
2, 56330, Note_on_c, 0, 48, 0
2, 56335, Note_on_c, 0, 60, 84
2, 56386, Note_on_c, 0, 60, 0
2, 56387, Note_on_c, 0, 48, 80
2, 56403, Note_on_c, 0, 72, 0
2, 56404, Note_on_c, 0, 64, 0
2, 56433, Note_on_c, 0, 48, 0
2, 56444, Note_on_c, 0, 60, 72
2, 56488, Note_on_c, 0, 60, 0
2, 56497, Note_on_c, 0, 48, 77
2, 56541, Note_on_c, 0, 48, 0
2, 56558, Note_on_c, 0, 60, 75
2, 56605, Note_on_c, 0, 60, 0
2, 56610, Note_on_c, 0, 73, 105
2, 56614, Note_on_c, 0, 48, 75
2, 56654, Note_on_c, 0, 48, 0
2, 56664, Note_on_c, 0, 60, 75
2, 56712, Note_on_c, 0, 60, 0
2, 56719, Note_on_c, 0, 48, 88
2, 56722, Note_on_c, 0, 72, 96
2, 56729, Note_on_c, 0, 73, 0
2, 56765, Note_on_c, 0, 48, 0
2, 56774, Note_on_c, 0, 60, 66
2, 56824, Note_on_c, 0, 60, 0
2, 56828, Note_on_c, 0, 48, 80
2, 56833, Note_on_c, 0, 70, 96
2, 56844, Note_on_c, 0, 72, 0
2, 56881, Note_on_c, 0, 48, 0
2, 56889, Note_on_c, 0, 60, 70
2, 56936, Note_on_c, 0, 60, 0
2, 56939, Note_on_c, 0, 67, 92
2, 56939, Note_on_c, 0, 48, 92
2, 56943, Note_on_c, 0, 70, 0
2, 56998, Note_on_c, 0, 48, 0
2, 56999, Note_on_c, 0, 60, 76
2, 57036, Note_on_c, 0, 60, 0
2, 57045, Note_on_c, 0, 48, 92
2, 57048, Note_on_c, 0, 64, 100
2, 57049, Note_on_c, 0, 67, 0
2, 57105, Note_on_c, 0, 48, 0
2, 57106, Note_on_c, 0, 60, 92
2, 57143, Note_on_c, 0, 60, 0
2, 57161, Note_on_c, 0, 61, 105
2, 57161, Note_on_c, 0, 58, 100
2, 57163, Note_on_c, 0, 64, 0
2, 57163, Note_on_c, 0, 48, 92
2, 57256, Note_on_c, 0, 48, 0
2, 57276, Note_on_c, 0, 48, 92
2, 57338, Note_on_c, 0, 60, 96
2, 57339, Note_on_c, 0, 61, 0
2, 57361, Note_on_c, 0, 48, 0
2, 57386, Note_on_c, 0, 58, 0
2, 57388, Note_on_c, 0, 48, 96
2, 57390, Note_on_c, 0, 56, 100
2, 57393, Note_on_c, 0, 65, 88
2, 57403, Note_on_c, 0, 60, 0
2, 57415, Control_c, 0, 64, 127
2, 57415, Control_c, 0, 64, 127
2, 57442, Note_on_c, 0, 56, 0
2, 57449, Note_on_c, 0, 48, 0
2, 57450, Note_on_c, 0, 65, 0
2, 57454, Note_on_c, 0, 60, 82
2, 57501, Note_on_c, 0, 60, 0
2, 57502, Control_c, 0, 64, 0
2, 57502, Control_c, 0, 64, 0
2, 57503, Note_on_c, 0, 48, 92
2, 57505, Note_on_c, 0, 85, 113
2, 57549, Control_c, 0, 64, 127
2, 57550, Control_c, 0, 64, 127
2, 57553, Note_on_c, 0, 48, 0
2, 57562, Note_on_c, 0, 60, 73
2, 57604, Note_on_c, 0, 60, 0
2, 57606, Note_on_c, 0, 85, 0
2, 57615, Note_on_c, 0, 48, 96
2, 57622, Note_on_c, 0, 84, 113
2, 57628, Control_c, 0, 64, 0
2, 57628, Control_c, 0, 64, 0
2, 57655, Note_on_c, 0, 48, 0
2, 57659, Control_c, 0, 64, 127
2, 57660, Control_c, 0, 64, 127
2, 57676, Note_on_c, 0, 60, 77
2, 57730, Note_on_c, 0, 60, 0
2, 57730, Control_c, 0, 64, 0
2, 57730, Control_c, 0, 64, 0
2, 57730, Note_on_c, 0, 82, 105
2, 57732, Note_on_c, 0, 48, 84
2, 57738, Note_on_c, 0, 84, 0
2, 57757, Control_c, 0, 64, 127
2, 57758, Control_c, 0, 64, 127
2, 57778, Note_on_c, 0, 48, 0
2, 57793, Note_on_c, 0, 60, 76
2, 57827, Control_c, 0, 64, 0
2, 57828, Control_c, 0, 64, 0
2, 57837, Note_on_c, 0, 60, 0
2, 57842, Note_on_c, 0, 48, 88
2, 57843, Note_on_c, 0, 79, 113
2, 57847, Note_on_c, 0, 82, 0
2, 57854, Control_c, 0, 64, 127
2, 57854, Control_c, 0, 64, 127
2, 57891, Note_on_c, 0, 48, 0
2, 57905, Note_on_c, 0, 60, 71
2, 57935, Control_c, 0, 64, 0
2, 57935, Control_c, 0, 64, 0
2, 57942, Note_on_c, 0, 60, 0
2, 57950, Note_on_c, 0, 48, 92
2, 57959, Note_on_c, 0, 79, 0
2, 57960, Note_on_c, 0, 76, 113
2, 57960, Control_c, 0, 64, 127
2, 57960, Control_c, 0, 64, 127
2, 58001, Note_on_c, 0, 48, 0
2, 58006, Note_on_c, 0, 60, 80
2, 58045, Note_on_c, 0, 60, 0
2, 58056, Note_on_c, 0, 76, 0
2, 58056, Note_on_c, 0, 58, 96
2, 58059, Note_on_c, 0, 48, 105
2, 58067, Note_on_c, 0, 73, 122
2, 58075, Control_c, 0, 64, 0
2, 58076, Control_c, 0, 64, 0
2, 58118, Control_c, 0, 64, 127
2, 58118, Control_c, 0, 64, 127
2, 58152, Note_on_c, 0, 48, 0
2, 58174, Note_on_c, 0, 48, 100
2, 58222, Note_on_c, 0, 73, 0
2, 58225, Control_c, 0, 64, 0
2, 58226, Control_c, 0, 64, 0
2, 58227, Note_on_c, 0, 72, 92
2, 58238, Note_on_c, 0, 48, 0
2, 58282, Note_on_c, 0, 48, 96
2, 58286, Note_on_c, 0, 77, 109
2, 58290, Note_on_c, 0, 72, 0
2, 58290, Note_on_c, 0, 56, 100
2, 58292, Note_on_c, 0, 58, 0
2, 58325, Note_on_c, 0, 77, 0
2, 58337, Note_on_c, 0, 48, 0
2, 58346, Note_on_c, 0, 60, 82
2, 58382, Note_on_c, 0, 60, 0
2, 58395, Note_on_c, 0, 48, 92
2, 58400, Note_on_c, 0, 85, 127
2, 58409, Control_c, 0, 64, 127
2, 58410, Control_c, 0, 64, 127
2, 58423, Note_on_c, 0, 56, 0
2, 58442, Note_on_c, 0, 48, 0
2, 58453, Note_on_c, 0, 60, 73
2, 58493, Note_on_c, 0, 60, 0
2, 58504, Note_on_c, 0, 85, 0
2, 58504, Note_on_c, 0, 48, 88
2, 58511, Note_on_c, 0, 84, 118
2, 58521, Control_c, 0, 64, 0
2, 58522, Control_c, 0, 64, 0
2, 58549, Note_on_c, 0, 48, 0
2, 58555, Control_c, 0, 64, 127
2, 58556, Control_c, 0, 64, 127
2, 58566, Note_on_c, 0, 60, 76
2, 58606, Note_on_c, 0, 60, 0
2, 58613, Note_on_c, 0, 48, 82
2, 58620, Note_on_c, 0, 82, 105
2, 58628, Note_on_c, 0, 84, 0
2, 58630, Control_c, 0, 64, 0
2, 58630, Control_c, 0, 64, 0
2, 58665, Note_on_c, 0, 48, 0
2, 58666, Control_c, 0, 64, 127
2, 58667, Control_c, 0, 64, 127
2, 58669, Note_on_c, 0, 60, 79
2, 58720, Note_on_c, 0, 60, 0
2, 58723, Note_on_c, 0, 58, 82
2, 58724, Note_on_c, 0, 79, 96
2, 58727, Note_on_c, 0, 82, 0
2, 58731, Control_c, 0, 64, 0
2, 58732, Control_c, 0, 64, 0
2, 58775, Note_on_c, 0, 58, 0
2, 58775, Note_on_c, 0, 60, 65
2, 58776, Control_c, 0, 64, 127
2, 58777, Control_c, 0, 64, 127
2, 58826, Note_on_c, 0, 60, 0
2, 58831, Note_on_c, 0, 79, 0
2, 58832, Note_on_c, 0, 76, 77
2, 58833, Note_on_c, 0, 58, 75
2, 58837, Control_c, 0, 64, 0
2, 58838, Control_c, 0, 64, 0
2, 58884, Note_on_c, 0, 58, 0
2, 58889, Note_on_c, 0, 60, 76
2, 58928, Note_on_c, 0, 60, 0
2, 58930, Note_on_c, 0, 76, 0
2, 58941, Note_on_c, 0, 56, 84
2, 58995, Note_on_c, 0, 65, 71
2, 58996, Note_on_c, 0, 76, 92
2, 59004, Note_on_c, 0, 56, 0
2, 59036, Control_c, 0, 64, 127
2, 59036, Control_c, 0, 64, 127
2, 59048, Note_on_c, 0, 65, 0
2, 59055, Note_on_c, 0, 60, 84
2, 59057, Note_on_c, 0, 79, 100
2, 59064, Note_on_c, 0, 76, 0
2, 59078, Control_c, 0, 64, 0
2, 59078, Control_c, 0, 64, 0
2, 59109, Note_on_c, 0, 65, 79
2, 59110, Note_on_c, 0, 60, 0
2, 59111, Note_on_c, 0, 77, 96
2, 59116, Note_on_c, 0, 79, 0
2, 59141, Note_on_c, 0, 77, 0
2, 59149, Note_on_c, 0, 65, 0
2, 59157, Note_on_c, 0, 55, 88
2, 59195, Control_c, 0, 64, 127
2, 59195, Control_c, 0, 64, 127
2, 59219, Note_on_c, 0, 77, 113
2, 59220, Note_on_c, 0, 64, 82
2, 59223, Note_on_c, 0, 55, 0
2, 59264, Note_on_c, 0, 64, 0
2, 59273, Note_on_c, 0, 58, 80
2, 59274, Note_on_c, 0, 77, 0
2, 59274, Note_on_c, 0, 80, 100
2, 59289, Control_c, 0, 64, 0
2, 59289, Control_c, 0, 64, 0
2, 59323, Note_on_c, 0, 58, 0
2, 59325, Note_on_c, 0, 64, 76
2, 59329, Note_on_c, 0, 79, 113
2, 59338, Note_on_c, 0, 80, 0
2, 59352, Note_on_c, 0, 79, 0
2, 59366, Note_on_c, 0, 64, 0
2, 59373, Note_on_c, 0, 53, 100
2, 59408, Control_c, 0, 64, 127
2, 59408, Control_c, 0, 64, 127
2, 59435, Note_on_c, 0, 79, 109
2, 59435, Note_on_c, 0, 60, 84
2, 59442, Note_on_c, 0, 53, 0
2, 59462, Control_c, 0, 64, 0
2, 59462, Control_c, 0, 64, 0
2, 59484, Note_on_c, 0, 60, 0
2, 59489, Note_on_c, 0, 56, 82
2, 59492, Note_on_c, 0, 82, 105
2, 59494, Note_on_c, 0, 79, 0
2, 59513, Control_c, 0, 64, 127
2, 59513, Control_c, 0, 64, 127
2, 59538, Note_on_c, 0, 56, 0
2, 59540, Note_on_c, 0, 60, 77
2, 59542, Note_on_c, 0, 80, 113
2, 59555, Note_on_c, 0, 82, 0
2, 59556, Control_c, 0, 64, 0
2, 59556, Control_c, 0, 64, 0
2, 59565, Note_on_c, 0, 80, 0
2, 59581, Note_on_c, 0, 60, 0
2, 59589, Note_on_c, 0, 50, 100
2, 59647, Note_on_c, 0, 83, 105
2, 59650, Note_on_c, 0, 50, 0
2, 59654, Note_on_c, 0, 59, 82
2, 59668, Control_c, 0, 64, 127
2, 59668, Control_c, 0, 64, 127
2, 59693, Note_on_c, 0, 83, 0
2, 59701, Note_on_c, 0, 59, 0
2, 59702, Note_on_c, 0, 89, 113
2, 59704, Note_on_c, 0, 53, 96
2, 59717, Control_c, 0, 64, 0
2, 59717, Control_c, 0, 64, 0
2, 59758, Note_on_c, 0, 83, 109
2, 59759, Note_on_c, 0, 89, 0
2, 59763, Note_on_c, 0, 53, 0
2, 59764, Note_on_c, 0, 59, 92
2, 59799, Note_on_c, 0, 59, 0
2, 59808, Note_on_c, 0, 83, 0
2, 59808, Note_on_c, 0, 48, 92
2, 59816, Note_on_c, 0, 84, 118
2, 59865, Note_on_c, 0, 60, 76
2, 59876, Note_on_c, 0, 48, 0
2, 59908, Note_on_c, 0, 60, 0
2, 59918, Note_on_c, 0, 52, 84
2, 59941, Note_on_c, 0, 84, 0
2, 59972, Note_on_c, 0, 52, 0
2, 59975, Note_on_c, 0, 60, 48
2, 60019, Note_on_c, 0, 60, 0
2, 60030, Note_on_c, 0, 49, 100
2, 60077, Control_c, 0, 64, 127
2, 60078, Control_c, 0, 64, 127
2, 60078, Note_on_c, 0, 83, 109
2, 60086, Note_on_c, 0, 59, 92
2, 60100, Control_c, 0, 64, 0
2, 60100, Control_c, 0, 64, 0
2, 60102, Note_on_c, 0, 49, 0
2, 60124, Note_on_c, 0, 59, 0
2, 60134, Note_on_c, 0, 53, 84
2, 60139, Note_on_c, 0, 83, 0
2, 60139, Note_on_c, 0, 89, 113
2, 60190, Note_on_c, 0, 53, 0
2, 60192, Note_on_c, 0, 83, 109
2, 60199, Note_on_c, 0, 89, 0
2, 60199, Note_on_c, 0, 59, 96
2, 60230, Note_on_c, 0, 59, 0
2, 60240, Note_on_c, 0, 83, 0
2, 60252, Note_on_c, 0, 48, 100
2, 60252, Note_on_c, 0, 84, 113
2, 60275, Control_c, 0, 64, 127
2, 60275, Control_c, 0, 64, 127
2, 60282, Control_c, 0, 64, 0
2, 60283, Control_c, 0, 64, 0
2, 60297, Note_on_c, 0, 60, 77
2, 60312, Note_on_c, 0, 48, 0
2, 60343, Note_on_c, 0, 60, 0
2, 60350, Note_on_c, 0, 84, 0
2, 60352, Note_on_c, 0, 52, 100
2, 60406, Note_on_c, 0, 60, 84
2, 60408, Note_on_c, 0, 52, 0
2, 60434, Note_on_c, 0, 60, 0
2, 60453, Note_on_c, 0, 46, 109
2, 60510, Note_on_c, 0, 76, 127
2, 60519, Control_c, 0, 64, 127
2, 60520, Control_c, 0, 64, 127
2, 60523, Note_on_c, 0, 46, 0
2, 60561, Note_on_c, 0, 76, 0
2, 60563, Control_c, 0, 64, 0
2, 60564, Control_c, 0, 64, 0
2, 60564, Note_on_c, 0, 49, 77
2, 60569, Note_on_c, 0, 85, 118
2, 60619, Note_on_c, 0, 49, 0
2, 60624, Note_on_c, 0, 76, 96
2, 60624, Note_on_c, 0, 55, 82
2, 60634, Note_on_c, 0, 85, 0
2, 60661, Note_on_c, 0, 55, 0
2, 60671, Note_on_c, 0, 44, 67
2, 60672, Note_on_c, 0, 76, 0
2, 60680, Note_on_c, 0, 77, 80
2, 60730, Note_on_c, 0, 53, 96
2, 60733, Note_on_c, 0, 44, 0
2, 60775, Note_on_c, 0, 53, 0
2, 60786, Note_on_c, 0, 48, 88
2, 60816, Note_on_c, 0, 77, 0
2, 60837, Note_on_c, 0, 48, 0
2, 60843, Note_on_c, 0, 53, 92
2, 60881, Note_on_c, 0, 53, 0
2, 60887, Note_on_c, 0, 46, 82
2, 60940, Note_on_c, 0, 55, 77
2, 60944, Note_on_c, 0, 76, 118
2, 60951, Control_c, 0, 64, 127
2, 60951, Control_c, 0, 64, 127
2, 60956, Note_on_c, 0, 46, 0
2, 60992, Note_on_c, 0, 55, 0
2, 60995, Note_on_c, 0, 49, 76
2, 60998, Note_on_c, 0, 76, 0
2, 61001, Note_on_c, 0, 85, 105
2, 61031, Control_c, 0, 64, 0
2, 61031, Control_c, 0, 64, 0
2, 61050, Note_on_c, 0, 49, 0
2, 61052, Note_on_c, 0, 55, 84
2, 61055, Note_on_c, 0, 85, 0
2, 61057, Note_on_c, 0, 76, 113
2, 61084, Note_on_c, 0, 76, 0
2, 61090, Note_on_c, 0, 55, 0
2, 61096, Note_on_c, 0, 44, 92
2, 61147, Control_c, 0, 64, 127
2, 61148, Control_c, 0, 64, 127
2, 61154, Note_on_c, 0, 53, 80
2, 61159, Note_on_c, 0, 76, 122
2, 61162, Note_on_c, 0, 44, 0
2, 61183, Control_c, 0, 64, 0
2, 61183, Control_c, 0, 64, 0
2, 61203, Note_on_c, 0, 76, 0
2, 61203, Note_on_c, 0, 53, 0
2, 61207, Note_on_c, 0, 48, 96
2, 61214, Note_on_c, 0, 79, 109
2, 61259, Note_on_c, 0, 48, 0
2, 61261, Note_on_c, 0, 53, 84
2, 61269, Note_on_c, 0, 79, 0
2, 61269, Note_on_c, 0, 77, 105
2, 61292, Note_on_c, 0, 77, 0
2, 61297, Note_on_c, 0, 53, 0
2, 61312, Note_on_c, 0, 40, 113
2, 61341, Control_c, 0, 64, 127
2, 61341, Control_c, 0, 64, 127
2, 61366, Note_on_c, 0, 77, 113
2, 61377, Note_on_c, 0, 52, 92
2, 61385, Note_on_c, 0, 40, 0
2, 61422, Note_on_c, 0, 52, 0
2, 61424, Note_on_c, 0, 80, 105
2, 61425, Note_on_c, 0, 77, 0
2, 61432, Note_on_c, 0, 48, 84
2, 61470, Note_on_c, 0, 80, 0
2, 61476, Note_on_c, 0, 79, 113
2, 61480, Control_c, 0, 64, 0
2, 61481, Control_c, 0, 64, 0
2, 61490, Note_on_c, 0, 48, 0
2, 61490, Note_on_c, 0, 52, 100
2, 61500, Note_on_c, 0, 79, 0
2, 61525, Note_on_c, 0, 52, 0
2, 61534, Note_on_c, 0, 41, 82
2, 61560, Control_c, 0, 64, 127
2, 61560, Control_c, 0, 64, 127
2, 61589, Note_on_c, 0, 53, 80
2, 61597, Note_on_c, 0, 79, 127
2, 61607, Note_on_c, 0, 41, 0
2, 61634, Note_on_c, 0, 53, 0
2, 61642, Note_on_c, 0, 48, 88
2, 61648, Note_on_c, 0, 79, 0
2, 61651, Note_on_c, 0, 82, 105
2, 61651, Control_c, 0, 64, 0
2, 61652, Control_c, 0, 64, 0
2, 61698, Note_on_c, 0, 82, 0
2, 61698, Note_on_c, 0, 53, 76
2, 61699, Note_on_c, 0, 48, 0
2, 61705, Note_on_c, 0, 80, 122
2, 61729, Note_on_c, 0, 80, 0
2, 61740, Note_on_c, 0, 53, 0
2, 61748, Note_on_c, 0, 43, 96
2, 61788, Control_c, 0, 64, 127
2, 61788, Control_c, 0, 64, 127
2, 61800, Note_on_c, 0, 55, 84
2, 61805, Note_on_c, 0, 81, 118
2, 61817, Note_on_c, 0, 43, 0
2, 61843, Note_on_c, 0, 55, 0
2, 61847, Note_on_c, 0, 81, 0
2, 61851, Note_on_c, 0, 48, 82
2, 61858, Note_on_c, 0, 84, 105
2, 61898, Control_c, 0, 64, 0
2, 61898, Control_c, 0, 64, 0
2, 61899, Note_on_c, 0, 84, 0
2, 61907, Note_on_c, 0, 55, 96
2, 61910, Note_on_c, 0, 82, 122
2, 61912, Note_on_c, 0, 48, 0
2, 61934, Note_on_c, 0, 82, 0
2, 61948, Note_on_c, 0, 55, 0
2, 61961, Note_on_c, 0, 44, 109
2, 62022, Note_on_c, 0, 84, 118
2, 62035, Control_c, 0, 64, 127
2, 62035, Control_c, 0, 64, 127
2, 62066, Note_on_c, 0, 84, 0
2, 62069, Note_on_c, 0, 44, 0
2, 62075, Note_on_c, 0, 89, 109
2, 62075, Note_on_c, 0, 48, 122
2, 62118, Note_on_c, 0, 89, 0
2, 62129, Note_on_c, 0, 87, 100
2, 62163, Control_c, 0, 64, 0
2, 62163, Control_c, 0, 64, 0
2, 62178, Note_on_c, 0, 87, 0
2, 62189, Note_on_c, 0, 85, 105
2, 62213, Control_c, 0, 64, 127
2, 62213, Control_c, 0, 64, 127
2, 62231, Note_on_c, 0, 85, 0
2, 62244, Note_on_c, 0, 84, 113
2, 62297, Note_on_c, 0, 82, 100
2, 62298, Note_on_c, 0, 84, 0
2, 62300, Note_on_c, 0, 48, 0
2, 62300, Note_on_c, 0, 53, 105
2, 62327, Note_on_c, 0, 82, 0
2, 62353, Note_on_c, 0, 80, 109
2, 62381, Note_on_c, 0, 80, 0
2, 62406, Control_c, 0, 64, 0
2, 62407, Control_c, 0, 64, 0
2, 62408, Note_on_c, 0, 79, 109
2, 62414, Note_on_c, 0, 53, 0
2, 62415, Note_on_c, 0, 46, 113
2, 62454, Control_c, 0, 64, 127
2, 62455, Control_c, 0, 64, 127
2, 62459, Note_on_c, 0, 79, 0
2, 62465, Note_on_c, 0, 77, 100
2, 62502, Note_on_c, 0, 77, 0
2, 62521, Note_on_c, 0, 75, 100
2, 62524, Note_on_c, 0, 46, 0
2, 62529, Note_on_c, 0, 49, 113
2, 62539, Control_c, 0, 64, 0
2, 62539, Control_c, 0, 64, 0
2, 62572, Note_on_c, 0, 75, 0
2, 62574, Note_on_c, 0, 73, 96
2, 62596, Control_c, 0, 64, 127
2, 62596, Control_c, 0, 64, 127
2, 62627, Note_on_c, 0, 73, 0
2, 62627, Control_c, 0, 64, 0
2, 62627, Control_c, 0, 64, 0
2, 62629, Note_on_c, 0, 72, 105
2, 62679, Note_on_c, 0, 72, 0
2, 62685, Note_on_c, 0, 70, 109
2, 62707, Control_c, 0, 64, 127
2, 62707, Control_c, 0, 64, 127
2, 62738, Note_on_c, 0, 68, 92
2, 62743, Note_on_c, 0, 70, 0
2, 62746, Control_c, 0, 64, 0
2, 62746, Control_c, 0, 64, 0
2, 62749, Note_on_c, 0, 55, 113
2, 62750, Note_on_c, 0, 49, 0
2, 62786, Control_c, 0, 64, 127
2, 62786, Control_c, 0, 64, 127
2, 62791, Control_c, 0, 64, 0
2, 62791, Control_c, 0, 64, 0
2, 62792, Note_on_c, 0, 68, 0
2, 62796, Note_on_c, 0, 67, 113
2, 62852, Note_on_c, 0, 67, 0
2, 62852, Note_on_c, 0, 65, 113
2, 62859, Control_c, 0, 64, 127
2, 62859, Control_c, 0, 64, 127
2, 62860, Note_on_c, 0, 48, 118
2, 62862, Note_on_c, 0, 55, 0
2, 62913, Note_on_c, 0, 64, 96
2, 62921, Note_on_c, 0, 65, 0
2, 62927, Control_c, 0, 64, 0
2, 62927, Control_c, 0, 64, 0
2, 62968, Note_on_c, 0, 61, 105
2, 62975, Note_on_c, 0, 64, 0
2, 62977, Note_on_c, 0, 48, 0
2, 62978, Note_on_c, 0, 53, 118
2, 62998, Control_c, 0, 64, 127
2, 62999, Control_c, 0, 64, 127
2, 63024, Note_on_c, 0, 61, 0
2, 63024, Note_on_c, 0, 60, 105
2, 63069, Control_c, 0, 64, 0
2, 63069, Control_c, 0, 64, 0
2, 63074, Note_on_c, 0, 60, 0
2, 63081, Note_on_c, 0, 59, 109
2, 63115, Control_c, 0, 64, 127
2, 63115, Control_c, 0, 64, 127
2, 63141, Note_on_c, 0, 60, 84
2, 63143, Note_on_c, 0, 59, 0
2, 63152, Control_c, 0, 64, 0
2, 63153, Control_c, 0, 64, 0
2, 63192, Note_on_c, 0, 59, 72
2, 63192, Note_on_c, 0, 56, 88
2, 63194, Note_on_c, 0, 60, 0
2, 63205, Note_on_c, 0, 53, 0
2, 63223, Control_c, 0, 64, 127
2, 63223, Control_c, 0, 64, 127
2, 63243, Note_on_c, 0, 60, 84
2, 63252, Note_on_c, 0, 59, 0
2, 63300, Note_on_c, 0, 60, 0
2, 63301, Note_on_c, 0, 59, 80
2, 63304, Note_on_c, 0, 58, 80
2, 63306, Control_c, 0, 64, 0
2, 63306, Control_c, 0, 64, 0
2, 63311, Note_on_c, 0, 56, 0
2, 63358, Note_on_c, 0, 60, 92
2, 63361, Note_on_c, 0, 59, 0
2, 63412, Note_on_c, 0, 61, 79
2, 63419, Note_on_c, 0, 55, 80
2, 63421, Note_on_c, 0, 60, 0
2, 63422, Note_on_c, 0, 58, 0
2, 63468, Note_on_c, 0, 60, 84
2, 63473, Note_on_c, 0, 61, 0
2, 63528, Note_on_c, 0, 59, 79
2, 63530, Note_on_c, 0, 60, 0
2, 63535, Note_on_c, 0, 52, 92
2, 63545, Note_on_c, 0, 55, 0
2, 63581, Note_on_c, 0, 60, 96
2, 63587, Note_on_c, 0, 59, 0
2, 63638, Note_on_c, 0, 60, 0
2, 63640, Note_on_c, 0, 61, 82
2, 63648, Note_on_c, 0, 46, 96
2, 63651, Note_on_c, 0, 52, 0
2, 63690, Note_on_c, 0, 60, 82
2, 63697, Note_on_c, 0, 61, 0
2, 63716, Note_on_c, 0, 60, 0
2, 63759, Note_on_c, 0, 46, 0
2, 63760, Note_on_c, 0, 44, 113
2, 63812, Control_c, 0, 64, 127
2, 63813, Control_c, 0, 64, 127
2, 63820, Note_on_c, 0, 84, 113
2, 63869, Note_on_c, 0, 44, 0
2, 63871, Note_on_c, 0, 84, 0
2, 63873, Note_on_c, 0, 48, 127
2, 63874, Note_on_c, 0, 89, 113
2, 63881, Control_c, 0, 64, 0
2, 63881, Control_c, 0, 64, 0
2, 63934, Note_on_c, 0, 87, 100
2, 63942, Note_on_c, 0, 89, 0
2, 63988, Note_on_c, 0, 85, 100
2, 64000, Note_on_c, 0, 87, 0
2, 64036, Note_on_c, 0, 85, 0
2, 64041, Note_on_c, 0, 84, 109
2, 64058, Control_c, 0, 64, 127
2, 64058, Control_c, 0, 64, 127
2, 64092, Note_on_c, 0, 82, 88
2, 64093, Note_on_c, 0, 84, 0
2, 64112, Note_on_c, 0, 53, 100
2, 64114, Note_on_c, 0, 48, 0
2, 64123, Note_on_c, 0, 82, 0
2, 64150, Note_on_c, 0, 80, 100
2, 64176, Note_on_c, 0, 80, 0
2, 64209, Note_on_c, 0, 79, 113
2, 64212, Control_c, 0, 64, 0
2, 64212, Control_c, 0, 64, 0
2, 64226, Note_on_c, 0, 46, 113
2, 64231, Note_on_c, 0, 53, 0
2, 64239, Note_on_c, 0, 79, 0
2, 64259, Control_c, 0, 64, 127
2, 64259, Control_c, 0, 64, 127
2, 64261, Note_on_c, 0, 77, 88
2, 64295, Control_c, 0, 64, 0
2, 64295, Control_c, 0, 64, 0
2, 64312, Note_on_c, 0, 77, 0
2, 64315, Note_on_c, 0, 75, 92
2, 64337, Note_on_c, 0, 46, 0
2, 64339, Note_on_c, 0, 49, 118
2, 64373, Note_on_c, 0, 73, 92
2, 64379, Note_on_c, 0, 75, 0
2, 64429, Note_on_c, 0, 73, 0
2, 64433, Note_on_c, 0, 72, 109
2, 64446, Control_c, 0, 64, 127
2, 64447, Control_c, 0, 64, 127
2, 64475, Control_c, 0, 64, 0
2, 64475, Control_c, 0, 64, 0
2, 64484, Note_on_c, 0, 70, 84
2, 64500, Note_on_c, 0, 72, 0
2, 64541, Note_on_c, 0, 68, 82
2, 64547, Note_on_c, 0, 70, 0
2, 64565, Note_on_c, 0, 55, 92
2, 64578, Note_on_c, 0, 49, 0
2, 64597, Note_on_c, 0, 67, 100
2, 64602, Note_on_c, 0, 68, 0
2, 64665, Note_on_c, 0, 67, 0
2, 64666, Note_on_c, 0, 65, 122
2, 64683, Note_on_c, 0, 55, 0
2, 64683, Note_on_c, 0, 48, 109
2, 64684, Control_c, 0, 64, 127
2, 64684, Control_c, 0, 64, 127
2, 64698, Control_c, 0, 64, 0
2, 64698, Control_c, 0, 64, 0
2, 64721, Note_on_c, 0, 64, 71
2, 64727, Note_on_c, 0, 65, 0
2, 64776, Note_on_c, 0, 61, 88
2, 64795, Note_on_c, 0, 64, 0
2, 64798, Note_on_c, 0, 53, 113
2, 64803, Note_on_c, 0, 48, 0
2, 64838, Note_on_c, 0, 61, 0
2, 64839, Note_on_c, 0, 60, 77
2, 64887, Note_on_c, 0, 60, 0
2, 64892, Note_on_c, 0, 59, 76
2, 64917, Control_c, 0, 64, 127
2, 64917, Control_c, 0, 64, 127
2, 64944, Control_c, 0, 64, 0
2, 64945, Control_c, 0, 64, 0
2, 64950, Note_on_c, 0, 59, 0
2, 64951, Note_on_c, 0, 60, 82
2, 65005, Note_on_c, 0, 60, 0
2, 65006, Note_on_c, 0, 56, 82
2, 65006, Note_on_c, 0, 59, 76
2, 65031, Note_on_c, 0, 53, 0
2, 65062, Note_on_c, 0, 59, 0
2, 65062, Note_on_c, 0, 60, 82
2, 65090, Note_on_c, 0, 56, 0
2, 65123, Note_on_c, 0, 60, 0
2, 65123, Note_on_c, 0, 59, 88
2, 65141, Control_c, 0, 64, 127
2, 65142, Control_c, 0, 64, 127
2, 65152, Control_c, 0, 64, 0
2, 65153, Control_c, 0, 64, 0
2, 65182, Note_on_c, 0, 60, 96
2, 65187, Note_on_c, 0, 59, 0
2, 65234, Note_on_c, 0, 61, 80
2, 65235, Note_on_c, 0, 60, 0
2, 65248, Note_on_c, 0, 36, 92
2, 65293, Note_on_c, 0, 60, 100
2, 65303, Note_on_c, 0, 61, 0
2, 65334, Note_on_c, 0, 36, 0
2, 65337, Note_on_c, 0, 60, 0
2, 65352, Note_on_c, 0, 60, 71
2, 65356, Note_on_c, 0, 36, 88
2, 65410, Note_on_c, 0, 58, 88
2, 65421, Note_on_c, 0, 60, 0
2, 65445, Note_on_c, 0, 36, 0
2, 65463, Note_on_c, 0, 56, 96
2, 65473, Note_on_c, 0, 58, 0
2, 65473, Note_on_c, 0, 36, 92
2, 65521, Note_on_c, 0, 55, 92
2, 65524, Note_on_c, 0, 56, 0
2, 65571, Note_on_c, 0, 36, 0
2, 65576, Note_on_c, 0, 55, 0
2, 65578, Note_on_c, 0, 41, 84
2, 65584, Note_on_c, 0, 53, 92
2, 65600, Control_c, 0, 64, 127
2, 65600, Control_c, 0, 64, 127
2, 65661, Note_on_c, 0, 53, 0
2, 65690, Note_on_c, 0, 53, 92
2, 65694, Control_c, 0, 64, 0
2, 65694, Control_c, 0, 64, 0
2, 65700, Note_on_c, 0, 41, 0
2, 65753, Note_on_c, 0, 53, 0
2, 65806, Note_on_c, 0, 68, 100
2, 65841, Control_c, 0, 64, 127
2, 65842, Control_c, 0, 64, 127
2, 65916, Note_on_c, 0, 53, 96
2, 65917, Note_on_c, 0, 50, 96
2, 65918, Note_on_c, 0, 59, 96
2, 65947, Note_on_c, 0, 59, 0
2, 65948, Note_on_c, 0, 50, 0
2, 65949, Note_on_c, 0, 53, 0
2, 65974, Note_on_c, 0, 67, 92
2, 65980, Note_on_c, 0, 68, 0
2, 65986, Control_c, 0, 64, 0
2, 65986, Control_c, 0, 64, 0
2, 66035, Note_on_c, 0, 65, 92
2, 66041, Note_on_c, 0, 67, 0
2, 66132, Control_c, 0, 64, 127
2, 66133, Control_c, 0, 64, 127
2, 66164, Note_on_c, 0, 56, 96
2, 66166, Note_on_c, 0, 48, 96
2, 66166, Note_on_c, 0, 60, 105
2, 66166, Note_on_c, 0, 53, 109
2, 66190, Note_on_c, 0, 48, 0
2, 66194, Note_on_c, 0, 53, 0
2, 66195, Note_on_c, 0, 56, 0
2, 66197, Note_on_c, 0, 60, 0
2, 66283, Control_c, 0, 64, 0
2, 66284, Control_c, 0, 64, 0
2, 66284, Note_on_c, 0, 64, 109
2, 66287, Note_on_c, 0, 65, 0
2, 66364, Control_c, 0, 64, 127
2, 66364, Control_c, 0, 64, 127
2, 66405, Note_on_c, 0, 58, 100
2, 66407, Note_on_c, 0, 55, 92
2, 66407, Note_on_c, 0, 48, 105
2, 66430, Note_on_c, 0, 55, 0
2, 66434, Note_on_c, 0, 48, 0
2, 66434, Note_on_c, 0, 58, 0
2, 66459, Note_on_c, 0, 72, 113
2, 66465, Note_on_c, 0, 64, 0
2, 66490, Note_on_c, 0, 72, 0
2, 66492, Control_c, 0, 64, 0
2, 66493, Control_c, 0, 64, 0
2, 66518, Note_on_c, 0, 72, 127
2, 66561, Control_c, 0, 64, 127
2, 66561, Control_c, 0, 64, 127
2, 66634, Control_c, 0, 64, 0
2, 66634, Control_c, 0, 64, 0
2, 66640, Note_on_c, 0, 65, 92
2, 66644, Note_on_c, 0, 72, 0
2, 66645, Note_on_c, 0, 53, 105
2, 66647, Note_on_c, 0, 56, 96
2, 66676, Note_on_c, 0, 53, 0
2, 66680, Note_on_c, 0, 56, 0
2, 66767, Note_on_c, 0, 68, 79
2, 66776, Note_on_c, 0, 65, 0
2, 66873, Note_on_c, 0, 50, 105
2, 66874, Note_on_c, 0, 56, 92
2, 66874, Note_on_c, 0, 59, 109
2, 66874, Note_on_c, 0, 53, 109
2, 66875, Control_c, 0, 64, 127
2, 66876, Control_c, 0, 64, 127
2, 66899, Note_on_c, 0, 50, 0
2, 66901, Note_on_c, 0, 53, 0
2, 66902, Note_on_c, 0, 56, 0
2, 66906, Note_on_c, 0, 59, 0
2, 66933, Note_on_c, 0, 67, 96
2, 66942, Note_on_c, 0, 68, 0
2, 66956, Control_c, 0, 64, 0
2, 66956, Control_c, 0, 64, 0
2, 66993, Note_on_c, 0, 65, 88
2, 66998, Note_on_c, 0, 67, 0
2, 67059, Control_c, 0, 64, 127
2, 67060, Control_c, 0, 64, 127
2, 67115, Note_on_c, 0, 56, 105
2, 67116, Note_on_c, 0, 60, 109
2, 67116, Note_on_c, 0, 53, 109
2, 67119, Note_on_c, 0, 48, 109
2, 67144, Note_on_c, 0, 48, 0
2, 67146, Note_on_c, 0, 60, 0
2, 67147, Note_on_c, 0, 56, 0
2, 67149, Note_on_c, 0, 53, 0
2, 67233, Note_on_c, 0, 65, 0
2, 67234, Note_on_c, 0, 64, 113
2, 67242, Control_c, 0, 64, 0
2, 67243, Control_c, 0, 64, 0
2, 67304, Control_c, 0, 64, 127
2, 67305, Control_c, 0, 64, 127
2, 67353, Note_on_c, 0, 48, 109
2, 67354, Note_on_c, 0, 55, 109
2, 67355, Note_on_c, 0, 58, 96
2, 67380, Note_on_c, 0, 48, 0
2, 67385, Note_on_c, 0, 58, 0
2, 67388, Note_on_c, 0, 55, 0
2, 67416, Note_on_c, 0, 72, 113
2, 67421, Note_on_c, 0, 64, 0
2, 67451, Note_on_c, 0, 72, 0
2, 67453, Control_c, 0, 64, 0
2, 67453, Control_c, 0, 64, 0
2, 67470, Note_on_c, 0, 72, 109
2, 67513, Control_c, 0, 64, 127
2, 67514, Control_c, 0, 64, 127
2, 67579, Note_on_c, 0, 56, 100
2, 67580, Note_on_c, 0, 53, 113
2, 67582, Note_on_c, 0, 65, 109
2, 67585, Note_on_c, 0, 72, 0
2, 67605, Note_on_c, 0, 65, 0
2, 67605, Note_on_c, 0, 53, 0
2, 67609, Note_on_c, 0, 56, 0
2, 67670, Note_on_c, 0, 72, 100
2, 67679, Control_c, 0, 64, 0
2, 67680, Control_c, 0, 64, 0
2, 67693, Note_on_c, 0, 72, 0
2, 67694, Note_on_c, 0, 80, 122
2, 67814, Note_on_c, 0, 61, 118
2, 67814, Note_on_c, 0, 65, 113
2, 67814, Note_on_c, 0, 68, 105
2, 67814, Note_on_c, 0, 71, 118
2, 67828, Control_c, 0, 64, 127
2, 67828, Control_c, 0, 64, 127
2, 67829, Note_on_c, 0, 78, 72
2, 67836, Note_on_c, 0, 78, 0
2, 67837, Note_on_c, 0, 61, 0
2, 67839, Note_on_c, 0, 65, 0
2, 67845, Note_on_c, 0, 68, 0
2, 67848, Note_on_c, 0, 71, 0
2, 67880, Control_c, 0, 64, 0
2, 67880, Control_c, 0, 64, 0
2, 67884, Note_on_c, 0, 79, 109
2, 67900, Note_on_c, 0, 80, 0
2, 67936, Note_on_c, 0, 79, 0
2, 67938, Note_on_c, 0, 77, 105
2, 68049, Note_on_c, 0, 68, 109
2, 68050, Note_on_c, 0, 60, 109
2, 68051, Note_on_c, 0, 72, 105
2, 68051, Note_on_c, 0, 65, 118
2, 68065, Control_c, 0, 64, 127
2, 68066, Control_c, 0, 64, 127
2, 68073, Note_on_c, 0, 72, 0
2, 68076, Note_on_c, 0, 60, 0
2, 68078, Note_on_c, 0, 65, 0
2, 68078, Note_on_c, 0, 68, 0
2, 68154, Control_c, 0, 64, 0
2, 68154, Control_c, 0, 64, 0
2, 68174, Note_on_c, 0, 77, 0
2, 68174, Note_on_c, 0, 76, 127
2, 68284, Control_c, 0, 64, 127
2, 68284, Control_c, 0, 64, 127
2, 68288, Note_on_c, 0, 67, 118
2, 68289, Note_on_c, 0, 58, 118
2, 68291, Note_on_c, 0, 60, 122
2, 68313, Note_on_c, 0, 67, 0
2, 68320, Note_on_c, 0, 60, 0
2, 68322, Note_on_c, 0, 58, 0
2, 68351, Note_on_c, 0, 76, 0
2, 68351, Note_on_c, 0, 84, 118
2, 68375, Control_c, 0, 64, 0
2, 68376, Control_c, 0, 64, 0
2, 68384, Note_on_c, 0, 84, 0
2, 68409, Note_on_c, 0, 60, 122
2, 68409, Note_on_c, 0, 65, 122
2, 68410, Note_on_c, 0, 84, 127
2, 68410, Note_on_c, 0, 75, 127
2, 68410, Note_on_c, 0, 72, 127
2, 68410, Note_on_c, 0, 57, 122
2, 68629, Control_c, 0, 64, 127
2, 68630, Control_c, 0, 64, 127
2, 68776, Note_on_c, 0, 84, 0
2, 68783, Note_on_c, 0, 75, 0
2, 68796, Note_on_c, 0, 72, 0
2, 68838, Note_on_c, 0, 57, 0
2, 68841, Note_on_c, 0, 60, 0
2, 68841, Note_on_c, 0, 65, 0
2, 68906, Note_on_c, 0, 77, 88
2, 68906, Note_on_c, 0, 73, 88
2, 68906, Note_on_c, 0, 70, 71
2, 68906, Note_on_c, 0, 61, 118
2, 68907, Note_on_c, 0, 58, 118
2, 68907, Note_on_c, 0, 65, 127
2, 68926, Control_c, 0, 64, 0
2, 68927, Control_c, 0, 64, 0
2, 68953, Note_on_c, 0, 61, 0
2, 68955, Note_on_c, 0, 58, 0
2, 68958, Note_on_c, 0, 65, 0
2, 68965, Note_on_c, 0, 70, 0
2, 68967, Note_on_c, 0, 73, 0
2, 68971, Note_on_c, 0, 77, 0
2, 69323, Note_on_c, 0, 58, 113
2, 69324, Note_on_c, 0, 61, 113
2, 69324, Note_on_c, 0, 65, 105
2, 69329, Note_on_c, 0, 70, 127
2, 69330, Note_on_c, 0, 73, 127
2, 69331, Note_on_c, 0, 82, 127
2, 69345, Note_on_c, 0, 70, 0
2, 69347, Note_on_c, 0, 73, 0
2, 69350, Note_on_c, 0, 58, 0
2, 69351, Note_on_c, 0, 65, 0
2, 69353, Note_on_c, 0, 61, 0
2, 69353, Note_on_c, 0, 82, 0
2, 69372, Note_on_c, 0, 63, 122
2, 69372, Note_on_c, 0, 82, 118
2, 69372, Note_on_c, 0, 55, 127
2, 69372, Note_on_c, 0, 58, 127
2, 69373, Note_on_c, 0, 70, 127
2, 69373, Note_on_c, 0, 73, 127
2, 69384, Control_c, 0, 64, 127
2, 69384, Control_c, 0, 64, 127
2, 69421, Control_c, 0, 64, 0
2, 69421, Control_c, 0, 64, 0
2, 69504, Control_c, 0, 64, 127
2, 69505, Control_c, 0, 64, 127
2, 69772, Note_on_c, 0, 82, 0
2, 69772, Note_on_c, 0, 63, 0
2, 69773, Note_on_c, 0, 73, 0
2, 69782, Note_on_c, 0, 70, 0
2, 69839, Note_on_c, 0, 55, 0
2, 69866, Note_on_c, 0, 58, 0
2, 69868, Control_c, 0, 64, 0
2, 69869, Control_c, 0, 64, 0
2, 69875, Note_on_c, 0, 56, 113
2, 69875, Note_on_c, 0, 60, 118
2, 69875, Note_on_c, 0, 63, 84
2, 69875, Note_on_c, 0, 75, 109
2, 69876, Note_on_c, 0, 68, 113
2, 69876, Note_on_c, 0, 72, 118
2, 69911, Note_on_c, 0, 72, 0
2, 69912, Note_on_c, 0, 68, 0
2, 69915, Note_on_c, 0, 75, 0
2, 69922, Note_on_c, 0, 63, 0
2, 69925, Note_on_c, 0, 56, 0
2, 69928, Note_on_c, 0, 60, 0
2, 70245, Note_on_c, 0, 53, 127
2, 70245, Note_on_c, 0, 61, 109
2, 70245, Note_on_c, 0, 80, 118
2, 70245, Note_on_c, 0, 72, 127
2, 70245, Note_on_c, 0, 68, 127
2, 70275, Note_on_c, 0, 68, 0
2, 70275, Note_on_c, 0, 80, 0
2, 70275, Note_on_c, 0, 53, 0
2, 70275, Note_on_c, 0, 61, 0
2, 70275, Note_on_c, 0, 72, 0
2, 70350, Note_on_c, 0, 55, 118
2, 70350, Note_on_c, 0, 74, 127
2, 70350, Note_on_c, 0, 70, 122
2, 70350, Note_on_c, 0, 67, 127
2, 70350, Note_on_c, 0, 61, 113
2, 70364, Note_on_c, 0, 67, 0
2, 70364, Note_on_c, 0, 70, 0
2, 70364, Note_on_c, 0, 74, 0
2, 70380, Note_on_c, 0, 55, 0
2, 70380, Note_on_c, 0, 61, 0
2, 70470, Note_on_c, 0, 70, 113
2, 70470, Note_on_c, 0, 52, 122
2, 70470, Note_on_c, 0, 60, 113
2, 70470, Note_on_c, 0, 79, 127
2, 70470, Note_on_c, 0, 67, 118
2, 70484, Note_on_c, 0, 79, 0
2, 70484, Note_on_c, 0, 52, 0
2, 70484, Note_on_c, 0, 70, 0
2, 70500, Note_on_c, 0, 60, 0
2, 70500, Note_on_c, 0, 67, 0
2, 70575, Note_on_c, 0, 53, 127
2, 70575, Note_on_c, 0, 72, 118
2, 70575, Note_on_c, 0, 60, 122
2, 70575, Note_on_c, 0, 65, 118
2, 70575, Note_on_c, 0, 68, 118
2, 70589, Note_on_c, 0, 53, 0
2, 70605, Note_on_c, 0, 65, 0
2, 70605, Note_on_c, 0, 72, 0
2, 70605, Note_on_c, 0, 60, 0
2, 70605, Note_on_c, 0, 68, 0
2, 70680, Note_on_c, 0, 65, 118
2, 70680, Note_on_c, 0, 77, 127
2, 70680, Note_on_c, 0, 61, 118
2, 70680, Note_on_c, 0, 68, 127
2, 70680, Note_on_c, 0, 49, 118
2, 70694, Note_on_c, 0, 65, 0
2, 70710, Note_on_c, 0, 68, 0
2, 70710, Note_on_c, 0, 61, 0
2, 70725, Note_on_c, 0, 77, 0
2, 70725, Note_on_c, 0, 49, 0
2, 70800, Note_on_c, 0, 77, 127
2, 70800, Note_on_c, 0, 49, 84
2, 70800, Note_on_c, 0, 74, 113
2, 70800, Note_on_c, 0, 58, 118
2, 70800, Note_on_c, 0, 46, 105
2, 70800, Note_on_c, 0, 55, 127
2, 70800, Note_on_c, 0, 65, 127
2, 70800, Note_on_c, 0, 67, 127
2, 70814, Note_on_c, 0, 74, 0
2, 70830, Note_on_c, 0, 67, 0
2, 70830, Note_on_c, 0, 55, 0
2, 70830, Note_on_c, 0, 49, 0
2, 70830, Note_on_c, 0, 77, 0
2, 70830, Note_on_c, 0, 65, 0
2, 70845, Note_on_c, 0, 58, 0
2, 70845, Note_on_c, 0, 46, 0
2, 71040, Note_on_c, 0, 70, 127
2, 71040, Note_on_c, 0, 71, 122
2, 71040, Note_on_c, 0, 60, 127
2, 71040, Note_on_c, 0, 55, 127
2, 71040, Note_on_c, 0, 52, 127
2, 71040, Note_on_c, 0, 48, 113
2, 71040, Note_on_c, 0, 76, 127
2, 71040, Note_on_c, 0, 67, 118
2, 71040, Note_on_c, 0, 64, 96
2, 71054, Note_on_c, 0, 71, 0
2, 71070, Note_on_c, 0, 52, 0
2, 71070, Note_on_c, 0, 70, 0
2, 71070, Note_on_c, 0, 48, 0
2, 71070, Note_on_c, 0, 60, 0
2, 71070, Note_on_c, 0, 55, 0
2, 71070, Note_on_c, 0, 67, 0
2, 71070, Note_on_c, 0, 76, 0
2, 71070, Note_on_c, 0, 64, 0
2, 71295, Note_on_c, 0, 48, 122
2, 71295, Note_on_c, 0, 77, 127
2, 71295, Note_on_c, 0, 68, 127
2, 71295, Note_on_c, 0, 72, 127
2, 71295, Note_on_c, 0, 65, 127
2, 71295, Note_on_c, 0, 76, 75
2, 71295, Note_on_c, 0, 44, 105
2, 71295, Note_on_c, 0, 41, 113
2, 71295, Note_on_c, 0, 53, 122
2, 71309, Note_on_c, 0, 76, 0
2, 71325, Note_on_c, 0, 72, 0
2, 71325, Note_on_c, 0, 68, 0
2, 71325, Note_on_c, 0, 65, 0
2, 71325, Note_on_c, 0, 77, 0
2, 71340, Note_on_c, 0, 48, 0
2, 71355, Note_on_c, 0, 53, 0
2, 71370, Note_on_c, 0, 44, 0
2, 71370, Note_on_c, 0, 41, 0
2, 71520, Control_c, 0, 121, 0
2, 71520, End_track
0, 0, End_of_file
