0, 0, Header, 1, 7, 480
1, 0, Start_track
1, 0, Title_t, "Seq-1"
1, 0, SMPTE_offset, 96, 0, 0, 0, 0
1, 0, Time_signature, 4, 2, 24, 8
1, 0, Tempo, 512820
1, 0, End_track
2, 0, Start_track
2, 0, Title_t, "Ludwig van Beethoven"
2, 3, Control_c, 0, 11, 86
2, 4, Control_c, 0, 7, 127
2, 463, Control_c, 0, 64, 127
2, 535, Note_on_c, 0, 67, 51
2, 547, Note_on_c, 0, 63, 40
2, 548, Note_on_c, 0, 58, 43
2, 549, Note_on_c, 0, 39, 63
2, 673, Note_off_c, 0, 39, 55
2, 676, Note_on_c, 0, 51, 38
2, 768, Note_off_c, 0, 51, 49
2, 782, Control_c, 0, 64, 20
2, 818, Note_on_c, 0, 51, 38
2, 909, Note_off_c, 0, 51, 49
2, 963, Note_on_c, 0, 51, 39
2, 1053, Note_off_c, 0, 51, 49
2, 1106, Note_on_c, 0, 51, 40
2, 1207, Note_off_c, 0, 51, 50
2, 1210, Note_off_c, 0, 58, 50
2, 1222, Note_off_c, 0, 63, 50
2, 1254, Note_on_c, 0, 51, 40
2, 1355, Note_off_c, 0, 51, 50
2, 1374, Note_off_c, 0, 67, 52
2, 1391, Note_on_c, 0, 63, 41
2, 1400, Note_on_c, 0, 58, 30
2, 1404, Note_on_c, 0, 51, 41
2, 1408, Note_on_c, 0, 55, 33
2, 1501, Note_off_c, 0, 51, 50
2, 1548, Note_on_c, 0, 51, 42
2, 1640, Note_off_c, 0, 58, 47
2, 1645, Note_off_c, 0, 51, 50
2, 1652, Note_off_c, 0, 55, 48
2, 1670, Note_off_c, 0, 63, 50
2, 1699, Note_on_c, 0, 51, 42
2, 1795, Note_off_c, 0, 51, 50
2, 1845, Note_on_c, 0, 51, 43
2, 1946, Note_off_c, 0, 51, 50
2, 1992, Note_on_c, 0, 51, 44
2, 2087, Note_off_c, 0, 51, 51
2, 2139, Note_on_c, 0, 51, 44
2, 2244, Note_off_c, 0, 51, 51
2, 2272, Control_c, 0, 64, 96
2, 2281, Note_on_c, 0, 70, 74
2, 2294, Note_on_c, 0, 63, 47
2, 2295, Note_on_c, 0, 39, 72
2, 2297, Note_on_c, 0, 67, 50
2, 2298, Note_on_c, 0, 58, 44
2, 2432, Note_off_c, 0, 39, 58
2, 2434, Note_on_c, 0, 51, 55
2, 2507, Note_off_c, 0, 51, 53
2, 2577, Note_on_c, 0, 51, 54
2, 2583, Control_c, 0, 64, 20
2, 2663, Note_off_c, 0, 51, 53
2, 2722, Note_on_c, 0, 51, 53
2, 2810, Note_off_c, 0, 51, 53
2, 2853, Note_on_c, 0, 51, 52
2, 2891, Note_off_c, 0, 63, 51
2, 2931, Note_off_c, 0, 58, 51
2, 2948, Note_off_c, 0, 51, 53
2, 2983, Note_off_c, 0, 67, 52
2, 2998, Note_on_c, 0, 51, 51
2, 3094, Note_off_c, 0, 51, 52
2, 3120, Note_off_c, 0, 70, 59
2, 3136, Note_on_c, 0, 67, 57
2, 3149, Note_on_c, 0, 63, 45
2, 3151, Note_on_c, 0, 51, 50
2, 3153, Note_on_c, 0, 58, 47
2, 3154, Note_on_c, 0, 55, 41
2, 3241, Note_off_c, 0, 51, 52
2, 3292, Note_on_c, 0, 51, 49
2, 3377, Note_off_c, 0, 55, 50
2, 3383, Note_off_c, 0, 58, 51
2, 3388, Note_off_c, 0, 63, 51
2, 3395, Note_off_c, 0, 51, 52
2, 3413, Note_off_c, 0, 67, 54
2, 3442, Note_on_c, 0, 51, 48
2, 3542, Note_off_c, 0, 51, 52
2, 3590, Note_on_c, 0, 51, 47
2, 3684, Note_off_c, 0, 51, 51
2, 3753, Note_on_c, 0, 51, 46
2, 3858, Note_off_c, 0, 51, 51
2, 3903, Note_on_c, 0, 51, 51
2, 3904, Note_on_c, 0, 70, 57
2, 4008, Note_off_c, 0, 51, 52
2, 4049, Note_on_c, 0, 75, 59
2, 4050, Note_on_c, 0, 63, 40
2, 4056, Note_off_c, 0, 70, 54
2, 4056, Note_on_c, 0, 55, 30
2, 4058, Note_on_c, 0, 51, 38
2, 4102, Control_c, 0, 64, 96
2, 4191, Note_on_c, 0, 74, 60
2, 4230, Note_off_c, 0, 75, 54
2, 4338, Note_on_c, 0, 77, 62
2, 4370, Note_off_c, 0, 74, 55
2, 4479, Note_off_c, 0, 51, 49
2, 4484, Note_on_c, 0, 75, 64
2, 4490, Note_on_c, 0, 56, 42
2, 4493, Note_on_c, 0, 53, 36
2, 4503, Note_off_c, 0, 77, 55
2, 4527, Note_off_c, 0, 55, 47
2, 4534, Control_c, 0, 64, 20
2, 4626, Note_on_c, 0, 74, 66
2, 4647, Note_off_c, 0, 75, 56
2, 4659, Control_c, 0, 64, 96
2, 4789, Note_on_c, 0, 77, 68
2, 4824, Note_off_c, 0, 74, 56
2, 4906, Note_off_c, 0, 53, 49
2, 4936, Note_on_c, 0, 75, 66
2, 4944, Note_on_c, 0, 58, 40
2, 4947, Note_on_c, 0, 55, 31
2, 4952, Note_off_c, 0, 77, 57
2, 4965, Note_off_c, 0, 56, 50
2, 4966, Control_c, 0, 64, 20
2, 5085, Note_on_c, 0, 74, 64
2, 5093, Control_c, 0, 64, 96
2, 5100, Note_off_c, 0, 75, 56
2, 5109, Note_off_c, 0, 63, 50
2, 5151, Note_off_c, 0, 55, 47
2, 5159, Note_off_c, 0, 58, 50
2, 5235, Note_on_c, 0, 77, 62
2, 5239, Note_off_c, 0, 74, 56
2, 5381, Note_on_c, 0, 75, 59
2, 5424, Note_off_c, 0, 77, 55
2, 5502, Control_c, 0, 64, 20
2, 5528, Note_on_c, 0, 74, 57
2, 5579, Note_off_c, 0, 75, 54
2, 5692, Note_on_c, 0, 72, 54
2, 5729, Note_off_c, 0, 74, 54
2, 5777, Note_off_c, 0, 72, 53
2, 5840, Note_on_c, 0, 80, 58
2, 5843, Note_on_c, 0, 70, 40
2, 5853, Note_on_c, 0, 62, 30
2, 5853, Note_on_c, 0, 58, 25
2, 5855, Control_c, 0, 64, 96
2, 5987, Note_on_c, 0, 79, 60
2, 6009, Note_off_c, 0, 80, 54
2, 6131, Note_on_c, 0, 82, 66
2, 6142, Note_off_c, 0, 79, 55
2, 6276, Note_off_c, 0, 58, 46
2, 6279, Note_on_c, 0, 80, 72
2, 6280, Note_on_c, 0, 63, 54
2, 6284, Note_on_c, 0, 60, 48
2, 6287, Control_c, 0, 64, 20
2, 6301, Note_off_c, 0, 82, 56
2, 6323, Note_off_c, 0, 62, 47
2, 6410, Control_c, 0, 64, 96
2, 6422, Note_on_c, 0, 79, 78
2, 6437, Note_off_c, 0, 80, 58
2, 6584, Note_on_c, 0, 82, 78
2, 6606, Note_off_c, 0, 79, 59
2, 6716, Control_c, 0, 64, 20
2, 6730, Note_off_c, 0, 82, 59
2, 6731, Note_on_c, 0, 80, 78
2, 6734, Note_off_c, 0, 63, 53
2, 6742, Note_on_c, 0, 65, 50
2, 6743, Note_on_c, 0, 62, 45
2, 6778, Note_off_c, 0, 60, 52
2, 6859, Control_c, 0, 64, 96
2, 6876, Note_off_c, 0, 80, 59
2, 6879, Note_on_c, 0, 79, 74
2, 6892, Note_off_c, 0, 70, 50
2, 6921, Note_off_c, 0, 62, 51
2, 6927, Note_off_c, 0, 65, 52
2, 7025, Note_off_c, 0, 79, 59
2, 7027, Note_on_c, 0, 82, 69
2, 7173, Note_on_c, 0, 80, 64
2, 7190, Note_off_c, 0, 82, 57
2, 7252, Control_c, 0, 64, 20
2, 7339, Note_on_c, 0, 79, 59
2, 7341, Note_off_c, 0, 80, 56
2, 7490, Note_on_c, 0, 77, 54
2, 7491, Note_off_c, 0, 79, 54
2, 7571, Note_off_c, 0, 77, 53
2, 7636, Note_on_c, 0, 87, 54
2, 7637, Note_on_c, 0, 75, 60
2, 7644, Note_on_c, 0, 67, 25
2, 7646, Note_on_c, 0, 63, 32
2, 7669, Control_c, 0, 64, 96
2, 7782, Note_on_c, 0, 86, 57
2, 7798, Note_off_c, 0, 87, 53
2, 7928, Note_on_c, 0, 89, 60
2, 7952, Note_off_c, 0, 86, 54
2, 8064, Note_off_c, 0, 63, 48
2, 8074, Note_on_c, 0, 68, 49
2, 8075, Note_on_c, 0, 87, 63
2, 8077, Note_off_c, 0, 67, 46
2, 8086, Note_off_c, 0, 89, 55
2, 8089, Note_on_c, 0, 65, 40
2, 8102, Control_c, 0, 64, 20
2, 8222, Control_c, 0, 64, 96
2, 8232, Note_on_c, 0, 86, 67
2, 8261, Note_off_c, 0, 87, 55
2, 8381, Note_on_c, 0, 89, 70
2, 8406, Note_off_c, 0, 86, 57
2, 8515, Note_off_c, 0, 65, 50
2, 8537, Note_off_c, 0, 89, 57
2, 8544, Note_on_c, 0, 87, 73
2, 8551, Note_on_c, 0, 70, 40
2, 8555, Note_on_c, 0, 67, 35
2, 8557, Note_off_c, 0, 68, 52
2, 8559, Control_c, 0, 64, 20
2, 8675, Note_on_c, 0, 86, 76
2, 8679, Note_off_c, 0, 87, 58
2, 8682, Control_c, 0, 64, 96
2, 8809, Note_off_c, 0, 75, 55
2, 8825, Note_on_c, 0, 89, 80
2, 8827, Note_off_c, 0, 86, 59
2, 8830, Note_off_c, 0, 67, 48
2, 8844, Note_off_c, 0, 70, 50
2, 8972, Note_on_c, 0, 87, 77
2, 8973, Note_on_c, 0, 75, 57
2, 8978, Note_on_c, 0, 73, 52
2, 8980, Note_on_c, 0, 67, 40
2, 8983, Note_on_c, 0, 70, 50
2, 8989, Note_off_c, 0, 89, 60
2, 8999, Control_c, 0, 64, 20
2, 9129, Control_c, 0, 64, 96
2, 9135, Note_on_c, 0, 85, 74
2, 9157, Note_off_c, 0, 87, 59
2, 9286, Note_on_c, 0, 84, 71
2, 9291, Note_off_c, 0, 85, 59
2, 9356, Note_off_c, 0, 70, 52
2, 9409, Note_off_c, 0, 67, 50
2, 9416, Note_off_c, 0, 73, 53
2, 9451, Note_on_c, 0, 83, 68
2, 9457, Note_on_c, 0, 72, 50
2, 9459, Note_off_c, 0, 84, 58
2, 9464, Note_on_c, 0, 68, 42
2, 9536, Control_c, 0, 64, 20
2, 9593, Note_off_c, 0, 83, 57
2, 9595, Note_on_c, 0, 84, 62
2, 9733, Note_off_c, 0, 68, 50
2, 9739, Note_off_c, 0, 84, 55
2, 9742, Note_off_c, 0, 72, 52
2, 9742, Note_off_c, 0, 75, 54
2, 9744, Note_on_c, 0, 82, 56
2, 9888, Note_on_c, 0, 80, 54
2, 9903, Note_off_c, 0, 82, 54
2, 10030, Note_on_c, 0, 79, 58
2, 10046, Note_off_c, 0, 80, 53
2, 10186, Note_on_c, 0, 77, 63
2, 10237, Note_off_c, 0, 79, 54
2, 10333, Note_on_c, 0, 75, 67
2, 10336, Note_on_c, 0, 63, 40
2, 10339, Note_on_c, 0, 67, 48
2, 10340, Note_on_c, 0, 58, 34
2, 10357, Note_off_c, 0, 77, 55
2, 10378, Control_c, 0, 64, 96
2, 10476, Note_on_c, 0, 74, 72
2, 10489, Note_off_c, 0, 75, 57
2, 10573, Note_off_c, 0, 67, 52
2, 10612, Note_off_c, 0, 58, 48
2, 10618, Note_off_c, 0, 63, 50
2, 10626, Note_on_c, 0, 77, 74
2, 10630, Note_off_c, 0, 74, 58
2, 10771, Note_on_c, 0, 80, 72
2, 10774, Note_off_c, 0, 77, 59
2, 10776, Note_on_c, 0, 68, 48
2, 10777, Note_on_c, 0, 65, 43
2, 10784, Note_on_c, 0, 58, 40
2, 10796, Control_c, 0, 64, 20
2, 10928, Control_c, 0, 64, 96
2, 10934, Note_on_c, 0, 77, 69
2, 10957, Note_off_c, 0, 80, 58
2, 11037, Note_off_c, 0, 65, 50
2, 11073, Note_off_c, 0, 68, 52
2, 11083, Note_on_c, 0, 74, 66
2, 11089, Note_off_c, 0, 58, 50
2, 11111, Note_off_c, 0, 77, 57
2, 11165, Note_off_c, 0, 74, 56
2, 11230, Note_on_c, 0, 75, 57
2, 11231, Note_on_c, 0, 63, 46
2, 11237, Control_c, 0, 64, 20
2, 11372, Control_c, 0, 64, 96
2, 11380, Note_off_c, 0, 63, 51
2, 11382, Note_on_c, 0, 62, 48
2, 11530, Note_off_c, 0, 75, 54
2, 11531, Note_off_c, 0, 62, 52
2, 11534, Note_on_c, 0, 65, 49
2, 11679, Note_off_c, 0, 65, 52
2, 11681, Note_on_c, 0, 67, 46
2, 11682, Note_on_c, 0, 79, 72
2, 11683, Note_on_c, 0, 75, 52
2, 11684, Note_on_c, 0, 63, 50
2, 11689, Control_c, 0, 64, 20
2, 11819, Control_c, 0, 64, 96
2, 11822, Note_off_c, 0, 63, 52
2, 11825, Note_on_c, 0, 62, 50
2, 11966, Note_off_c, 0, 62, 52
2, 11969, Note_on_c, 0, 65, 51
2, 12112, Note_off_c, 0, 65, 52
2, 12114, Note_on_c, 0, 63, 52
2, 12121, Control_c, 0, 64, 20
2, 12257, Note_off_c, 0, 63, 53
2, 12258, Note_on_c, 0, 62, 52
2, 12260, Control_c, 0, 64, 96
2, 12294, Note_off_c, 0, 75, 53
2, 12298, Note_off_c, 0, 67, 51
2, 12402, Note_off_c, 0, 62, 53
2, 12404, Note_on_c, 0, 65, 53
2, 12529, Note_off_c, 0, 79, 58
2, 12535, Note_off_c, 0, 65, 53
2, 12548, Note_on_c, 0, 80, 81
2, 12551, Note_on_c, 0, 63, 54
2, 12555, Note_on_c, 0, 68, 57
2, 12560, Note_on_c, 0, 75, 60
2, 12584, Control_c, 0, 64, 20
2, 12693, Note_off_c, 0, 63, 53
2, 12694, Note_on_c, 0, 62, 54
2, 12726, Control_c, 0, 64, 127
2, 12801, Note_off_c, 0, 75, 55
2, 12856, Note_off_c, 0, 62, 53
2, 12860, Note_on_c, 0, 60, 55
2, 12948, Note_off_c, 0, 68, 54
2, 12989, Note_off_c, 0, 80, 60
2, 12992, Note_off_c, 0, 60, 53
2, 13000, Note_on_c, 0, 82, 95
2, 13006, Note_on_c, 0, 79, 75
2, 13009, Note_on_c, 0, 70, 63
2, 13010, Note_on_c, 0, 58, 56
2, 13012, Note_on_c, 0, 75, 71
2, 13013, Control_c, 0, 64, 0
2, 13165, Control_c, 0, 64, 127
2, 13171, Note_off_c, 0, 58, 54
2, 13172, Note_on_c, 0, 57, 56
2, 13318, Note_off_c, 0, 57, 54
2, 13321, Note_on_c, 0, 60, 57
2, 13484, Note_off_c, 0, 60, 54
2, 13485, Note_on_c, 0, 58, 58
2, 13491, Control_c, 0, 64, 0
2, 13625, Note_off_c, 0, 75, 58
2, 13647, Note_off_c, 0, 58, 54
2, 13648, Note_on_c, 0, 56, 58
2, 13649, Control_c, 0, 64, 127
2, 13654, Note_off_c, 0, 70, 55
2, 13679, Note_off_c, 0, 79, 59
2, 13794, Note_off_c, 0, 56, 54
2, 13796, Note_on_c, 0, 55, 59
2, 13937, Note_off_c, 0, 82, 63
2, 13946, Note_off_c, 0, 55, 54
2, 13951, Note_on_c, 0, 74, 95
2, 13961, Note_on_c, 0, 53, 58
2, 13964, Note_on_c, 0, 46, 62
2, 13971, Note_on_c, 0, 70, 84
2, 13973, Note_on_c, 0, 68, 80
2, 13974, Note_on_c, 0, 62, 73
2, 13989, Control_c, 0, 64, 0
2, 14102, Note_off_c, 0, 53, 54
2, 14104, Note_on_c, 0, 55, 60
2, 14123, Control_c, 0, 64, 127
2, 14248, Note_off_c, 0, 55, 55
2, 14250, Note_on_c, 0, 56, 58
2, 14393, Note_off_c, 0, 56, 54
2, 14395, Note_on_c, 0, 58, 56
2, 14414, Control_c, 0, 64, 0
2, 14534, Note_off_c, 0, 62, 58
2, 14539, Note_off_c, 0, 58, 54
2, 14540, Note_on_c, 0, 53, 53
2, 14553, Control_c, 0, 64, 127
2, 14556, Note_off_c, 0, 68, 60
2, 14654, Note_off_c, 0, 70, 61
2, 14682, Note_off_c, 0, 53, 53
2, 14683, Note_on_c, 0, 56, 51
2, 14779, Note_off_c, 0, 56, 52
2, 14820, Note_off_c, 0, 74, 63
2, 14824, Note_on_c, 0, 75, 72
2, 14832, Note_off_c, 0, 46, 55
2, 14835, Note_on_c, 0, 51, 40
2, 14837, Note_on_c, 0, 55, 48
2, 14838, Note_on_c, 0, 51, 35
2, 14839, Note_on_c, 0, 67, 45
2, 14840, Note_on_c, 0, 70, 52
2, 14841, Note_on_c, 0, 63, 66
2, 14858, Control_c, 0, 64, 0
2, 14956, Note_off_c, 0, 55, 52
2, 14958, Note_on_c, 0, 53, 48
2, 15008, Control_c, 0, 64, 127
2, 15012, Note_off_c, 0, 63, 56
2, 15017, Note_off_c, 0, 70, 53
2, 15025, Note_off_c, 0, 67, 51
2, 15095, Note_off_c, 0, 75, 58
2, 15104, Note_off_c, 0, 53, 52
2, 15107, Note_off_c, 0, 51, 48
2, 15108, Note_off_c, 0, 51, 50
2, 15109, Note_on_c, 0, 55, 41
2, 15225, Control_c, 0, 64, 0
2, 15248, Note_off_c, 0, 55, 50
2, 15250, Note_on_c, 0, 56, 44
2, 15398, Note_off_c, 0, 56, 51
2, 15400, Note_on_c, 0, 58, 47
2, 15563, Note_off_c, 0, 58, 51
2, 15564, Note_on_c, 0, 60, 50
2, 15710, Note_off_c, 0, 60, 52
2, 15711, Note_on_c, 0, 62, 38
2, 15858, Note_off_c, 0, 62, 49
2, 15861, Note_on_c, 0, 63, 38
2, 16008, Note_off_c, 0, 63, 49
2, 16009, Note_on_c, 0, 65, 41
2, 16155, Note_off_c, 0, 65, 50
2, 16157, Note_on_c, 0, 75, 50
2, 16159, Note_on_c, 0, 67, 38
2, 16302, Note_off_c, 0, 75, 52
2, 16304, Note_off_c, 0, 67, 49
2, 16305, Note_on_c, 0, 68, 41
2, 16306, Note_on_c, 0, 77, 53
2, 16464, Note_off_c, 0, 77, 53
2, 16469, Note_off_c, 0, 68, 50
2, 16470, Note_on_c, 0, 79, 56
2, 16472, Note_on_c, 0, 70, 44
2, 16616, Note_off_c, 0, 79, 54
2, 16617, Note_off_c, 0, 70, 51
2, 16618, Note_on_c, 0, 77, 56
2, 16619, Note_on_c, 0, 68, 44
2, 16764, Note_off_c, 0, 77, 54
2, 16765, Note_off_c, 0, 68, 51
2, 16766, Note_on_c, 0, 67, 43
2, 16768, Note_on_c, 0, 75, 55
2, 16912, Note_off_c, 0, 75, 53
2, 16916, Note_off_c, 0, 67, 50
2, 16917, Note_on_c, 0, 74, 54
2, 16918, Note_on_c, 0, 65, 42
2, 17079, Note_off_c, 0, 74, 53
2, 17081, Note_off_c, 0, 65, 50
2, 17082, Note_on_c, 0, 63, 41
2, 17083, Note_on_c, 0, 72, 53
2, 17228, Note_off_c, 0, 63, 50
2, 17228, Note_off_c, 0, 72, 53
2, 17230, Note_on_c, 0, 62, 40
2, 17231, Note_on_c, 0, 70, 52
2, 17371, Note_off_c, 0, 70, 53
2, 17375, Note_off_c, 0, 62, 50
2, 17376, Note_on_c, 0, 68, 51
2, 17378, Note_on_c, 0, 60, 39
2, 17516, Note_off_c, 0, 68, 52
2, 17519, Note_off_c, 0, 60, 49
2, 17521, Note_on_c, 0, 67, 50
2, 17523, Note_on_c, 0, 58, 42
2, 17663, Note_off_c, 0, 67, 52
2, 17665, Note_off_c, 0, 58, 50
2, 17667, Note_on_c, 0, 60, 40
2, 17669, Note_on_c, 0, 68, 49
2, 17809, Note_off_c, 0, 60, 50
2, 17810, Note_off_c, 0, 68, 52
2, 17812, Note_on_c, 0, 58, 38
2, 17813, Note_on_c, 0, 67, 48
2, 17953, Note_off_c, 0, 67, 52
2, 17957, Note_off_c, 0, 58, 49
2, 17958, Note_on_c, 0, 56, 36
2, 17959, Note_on_c, 0, 65, 47
2, 18096, Note_off_c, 0, 56, 49
2, 18098, Note_off_c, 0, 65, 51
2, 18099, Note_on_c, 0, 63, 46
2, 18100, Note_on_c, 0, 55, 34
2, 18238, Note_off_c, 0, 63, 51
2, 18239, Note_off_c, 0, 55, 48
2, 18241, Note_on_c, 0, 53, 32
2, 18242, Note_on_c, 0, 62, 44
2, 18350, Note_off_c, 0, 53, 48
2, 18351, Note_off_c, 0, 62, 51
2, 18382, Note_on_c, 0, 63, 35
2, 18385, Note_on_c, 0, 51, 35
2, 18525, Note_off_c, 0, 63, 48
2, 18528, Note_on_c, 0, 65, 35
2, 18676, Note_off_c, 0, 51, 48
2, 18678, Note_off_c, 0, 65, 48
2, 18686, Note_on_c, 0, 67, 40
2, 18816, Note_off_c, 0, 67, 50
2, 18818, Note_on_c, 0, 68, 46
2, 18960, Note_off_c, 0, 68, 51
2, 18963, Note_on_c, 0, 70, 51
2, 19105, Note_off_c, 0, 70, 52
2, 19106, Note_on_c, 0, 72, 56
2, 19253, Note_off_c, 0, 72, 54
2, 19254, Note_on_c, 0, 74, 62
2, 19416, Note_off_c, 0, 74, 55
2, 19420, Note_on_c, 0, 75, 67
2, 19566, Note_off_c, 0, 75, 57
2, 19568, Note_on_c, 0, 77, 73
2, 19714, Note_off_c, 0, 77, 58
2, 19715, Note_on_c, 0, 79, 78
2, 19718, Note_on_c, 0, 63, 72
2, 19863, Note_on_c, 0, 80, 83
2, 19864, Note_on_c, 0, 65, 77
2, 19879, Note_off_c, 0, 63, 58
2, 19883, Note_off_c, 0, 79, 59
2, 20026, Note_on_c, 0, 82, 89
2, 20029, Note_on_c, 0, 67, 83
2, 20039, Note_off_c, 0, 80, 60
2, 20040, Note_off_c, 0, 65, 59
2, 20145, Note_off_c, 0, 82, 62
2, 20173, Note_on_c, 0, 80, 80
2, 20178, Note_on_c, 0, 65, 74
2, 20190, Note_off_c, 0, 67, 60
2, 20341, Note_on_c, 0, 63, 69
2, 20344, Note_on_c, 0, 79, 75
2, 20357, Note_off_c, 0, 80, 60
2, 20366, Note_off_c, 0, 65, 59
2, 20489, Note_on_c, 0, 77, 71
2, 20492, Note_on_c, 0, 62, 64
2, 20495, Note_off_c, 0, 79, 59
2, 20508, Note_off_c, 0, 63, 57
2, 20638, Note_on_c, 0, 75, 66
2, 20639, Note_on_c, 0, 60, 60
2, 20656, Note_off_c, 0, 62, 56
2, 20666, Note_off_c, 0, 77, 58
2, 20787, Note_on_c, 0, 74, 62
2, 20789, Note_on_c, 0, 58, 55
2, 20796, Note_off_c, 0, 75, 56
2, 20805, Note_off_c, 0, 60, 55
2, 20951, Note_on_c, 0, 72, 57
2, 20953, Note_on_c, 0, 56, 51
2, 20954, Note_off_c, 0, 58, 53
2, 20980, Note_off_c, 0, 74, 55
2, 21095, Note_on_c, 0, 70, 52
2, 21099, Note_on_c, 0, 55, 46
2, 21105, Note_off_c, 0, 72, 54
2, 21119, Note_off_c, 0, 56, 52
2, 21244, Note_on_c, 0, 56, 42
2, 21245, Note_on_c, 0, 72, 48
2, 21247, Note_off_c, 0, 70, 53
2, 21258, Note_off_c, 0, 55, 51
2, 21388, Note_off_c, 0, 56, 50
2, 21390, Note_on_c, 0, 55, 37
2, 21391, Note_on_c, 0, 70, 43
2, 21409, Note_off_c, 0, 72, 52
2, 21533, Note_on_c, 0, 68, 39
2, 21537, Note_on_c, 0, 53, 33
2, 21547, Note_off_c, 0, 70, 50
2, 21548, Note_off_c, 0, 55, 49
2, 21680, Note_on_c, 0, 51, 28
2, 21682, Note_on_c, 0, 67, 34
2, 21684, Note_off_c, 0, 68, 49
2, 21707, Note_off_c, 0, 53, 48
2, 21822, Note_on_c, 0, 65, 30
2, 21824, Note_on_c, 0, 50, 24
2, 21830, Note_off_c, 0, 67, 48
2, 21843, Note_off_c, 0, 51, 47
2, 21941, Note_off_c, 0, 50, 46
2, 21946, Note_off_c, 0, 65, 47
2, 21960, Note_on_c, 0, 67, 98
2, 21975, Note_on_c, 0, 63, 88
2, 21976, Note_on_c, 0, 55, 80
2, 21979, Note_on_c, 0, 58, 85
2, 21982, Control_c, 0, 64, 127
2, 21983, Note_on_c, 0, 49, 72
2, 21999, Note_on_c, 0, 39, 67
2, 22007, Note_on_c, 0, 37, 62
2, 22470, Note_off_c, 0, 55, 60
2, 22487, Note_off_c, 0, 63, 62
2, 22541, Note_off_c, 0, 58, 61
2, 22601, Note_off_c, 0, 67, 64
2, 22816, Note_on_c, 0, 63, 96
2, 22829, Note_on_c, 0, 51, 66
2, 22833, Note_on_c, 0, 58, 76
2, 22836, Note_on_c, 0, 55, 72
2, 22851, Control_c, 0, 64, 0
2, 23008, Control_c, 0, 64, 127
2, 23021, Note_off_c, 0, 39, 57
2, 23036, Note_off_c, 0, 49, 58
2, 23038, Note_off_c, 0, 37, 55
2, 23063, Note_off_c, 0, 51, 56
2, 23083, Note_off_c, 0, 58, 59
2, 23085, Note_off_c, 0, 55, 58
2, 23111, Note_off_c, 0, 63, 63
2, 23495, Control_c, 0, 64, 0
2, 23552, Note_on_c, 0, 79, 50
2, 23559, Note_on_c, 0, 67, 42
2, 23562, Note_on_c, 0, 61, 24
2, 23563, Note_on_c, 0, 63, 30
2, 23627, Note_off_c, 0, 67, 50
2, 23636, Note_off_c, 0, 63, 47
2, 23637, Note_off_c, 0, 79, 52
2, 23639, Note_off_c, 0, 61, 46
2, 23702, Note_on_c, 0, 80, 50
2, 23710, Note_on_c, 0, 63, 30
2, 23712, Note_on_c, 0, 60, 24
2, 23713, Note_on_c, 0, 68, 42
2, 23839, Note_off_c, 0, 63, 47
2, 23843, Note_off_c, 0, 68, 50
2, 23846, Note_off_c, 0, 60, 46
2, 23856, Note_off_c, 0, 80, 52
2, 23987, Note_on_c, 0, 80, 58
2, 23994, Note_on_c, 0, 68, 50
2, 23998, Note_on_c, 0, 60, 28
2, 23999, Note_on_c, 0, 63, 34
2, 24063, Note_off_c, 0, 68, 52
2, 24069, Note_off_c, 0, 80, 54
2, 24073, Note_off_c, 0, 60, 47
2, 24074, Note_off_c, 0, 63, 48
2, 24136, Note_on_c, 0, 80, 62
2, 24141, Note_on_c, 0, 68, 54
2, 24146, Note_on_c, 0, 63, 37
2, 24148, Note_on_c, 0, 60, 34
2, 24274, Note_off_c, 0, 63, 49
2, 24276, Note_off_c, 0, 60, 48
2, 24287, Note_off_c, 0, 80, 55
2, 24290, Note_off_c, 0, 68, 53
2, 24420, Note_on_c, 0, 84, 62
2, 24430, Note_on_c, 0, 68, 42
2, 24432, Note_on_c, 0, 72, 54
2, 24433, Note_on_c, 0, 63, 34
2, 24434, Note_on_c, 0, 60, 29
2, 24502, Note_off_c, 0, 68, 50
2, 24506, Note_off_c, 0, 84, 55
2, 24507, Note_off_c, 0, 63, 48
2, 24509, Note_off_c, 0, 60, 47
2, 24510, Note_off_c, 0, 72, 53
2, 24572, Note_on_c, 0, 87, 50
2, 24577, Note_on_c, 0, 75, 42
2, 24581, Note_on_c, 0, 60, 21
2, 24583, Note_on_c, 0, 63, 24
2, 24584, Note_on_c, 0, 68, 30
2, 24704, Note_off_c, 0, 68, 47
2, 24708, Note_off_c, 0, 75, 50
2, 24717, Note_off_c, 0, 63, 46
2, 24720, Note_off_c, 0, 60, 45
2, 24723, Note_off_c, 0, 87, 52
2, 25437, Note_on_c, 0, 69, 95
2, 25443, Note_on_c, 0, 51, 76
2, 25445, Note_on_c, 0, 66, 88
2, 25448, Note_on_c, 0, 60, 82
2, 25449, Note_on_c, 0, 57, 80
2, 25451, Note_on_c, 0, 39, 72
2, 25454, Control_c, 0, 64, 127
2, 26166, Note_off_c, 0, 57, 60
2, 26191, Note_off_c, 0, 66, 62
2, 26208, Note_off_c, 0, 60, 60
2, 26304, Note_off_c, 0, 69, 63
2, 26328, Note_on_c, 0, 66, 84
2, 26330, Note_on_c, 0, 60, 65
2, 26331, Note_on_c, 0, 57, 57
2, 26341, Control_c, 0, 64, 0
2, 26479, Control_c, 0, 64, 127
2, 26588, Note_off_c, 0, 39, 58
2, 26633, Note_off_c, 0, 51, 59
2, 26635, Note_off_c, 0, 66, 61
2, 26638, Note_off_c, 0, 60, 56
2, 26640, Note_off_c, 0, 57, 54
2, 26961, Control_c, 0, 64, 0
2, 27079, Note_on_c, 0, 81, 52
2, 27081, Note_on_c, 0, 69, 32
2, 27082, Note_on_c, 0, 66, 20
2, 27084, Note_on_c, 0, 63, 16
2, 27106, Note_off_c, 0, 66, 45
2, 27109, Note_off_c, 0, 69, 48
2, 27111, Note_off_c, 0, 63, 44
2, 27113, Note_off_c, 0, 81, 53
2, 27206, Note_on_c, 0, 82, 52
2, 27208, Note_on_c, 0, 65, 20
2, 27209, Note_on_c, 0, 70, 32
2, 27211, Note_on_c, 0, 61, 14
2, 27333, Note_off_c, 0, 65, 45
2, 27342, Note_off_c, 0, 61, 44
2, 27349, Note_off_c, 0, 70, 48
2, 27351, Note_off_c, 0, 82, 53
2, 27478, Note_on_c, 0, 70, 36
2, 27479, Note_on_c, 0, 82, 56
2, 27480, Note_on_c, 0, 65, 24
2, 27482, Note_on_c, 0, 61, 19
2, 27544, Note_off_c, 0, 70, 49
2, 27547, Note_off_c, 0, 61, 45
2, 27552, Note_off_c, 0, 65, 46
2, 27558, Note_off_c, 0, 82, 54
2, 27618, Note_on_c, 0, 70, 39
2, 27620, Note_on_c, 0, 82, 59
2, 27622, Note_on_c, 0, 61, 24
2, 27623, Note_on_c, 0, 65, 27
2, 27743, Note_off_c, 0, 65, 46
2, 27746, Note_off_c, 0, 70, 49
2, 27760, Note_off_c, 0, 61, 46
2, 27761, Note_off_c, 0, 82, 54
2, 27891, Note_on_c, 0, 85, 64
2, 27893, Note_on_c, 0, 70, 32
2, 27895, Note_on_c, 0, 73, 44
2, 27896, Note_on_c, 0, 65, 29
2, 27897, Note_on_c, 0, 61, 26
2, 27960, Note_off_c, 0, 73, 51
2, 27961, Note_off_c, 0, 61, 46
2, 27962, Note_off_c, 0, 65, 47
2, 27969, Note_off_c, 0, 70, 48
2, 27971, Note_off_c, 0, 85, 56
2, 28034, Note_on_c, 0, 61, 20
2, 28035, Note_on_c, 0, 89, 52
2, 28037, Note_on_c, 0, 77, 32
2, 28038, Note_on_c, 0, 70, 20
2, 28039, Note_on_c, 0, 65, 20
2, 28143, Note_off_c, 0, 70, 45
2, 28151, Note_off_c, 0, 77, 48
2, 28155, Note_off_c, 0, 65, 45
2, 28158, Note_off_c, 0, 61, 45
2, 28161, Note_off_c, 0, 89, 53
2, 28855, Note_on_c, 0, 85, 95
2, 28861, Note_on_c, 0, 76, 84
2, 28864, Note_on_c, 0, 73, 81
2, 28866, Note_on_c, 0, 54, 69
2, 28874, Control_c, 0, 64, 127
2, 28879, Note_on_c, 0, 42, 69
2, 29483, Note_off_c, 0, 42, 57
2, 29546, Note_off_c, 0, 76, 61
2, 29567, Note_off_c, 0, 54, 57
2, 29588, Note_off_c, 0, 73, 60
2, 29691, Note_off_c, 0, 85, 63
2, 29708, Note_on_c, 0, 82, 90
2, 29715, Note_on_c, 0, 70, 75
2, 29716, Note_on_c, 0, 76, 80
2, 29718, Note_on_c, 0, 66, 63
2, 29719, Note_on_c, 0, 54, 63
2, 29742, Control_c, 0, 64, 0
2, 29905, Control_c, 0, 64, 127
2, 30519, Note_off_c, 0, 70, 59
2, 30572, Note_off_c, 0, 54, 55
2, 30574, Note_off_c, 0, 66, 55
2, 30578, Note_off_c, 0, 76, 60
2, 30610, Note_off_c, 0, 82, 62
2, 30682, Note_on_c, 0, 81, 74
2, 30687, Note_on_c, 0, 65, 62
2, 30688, Note_on_c, 0, 53, 62
2, 30709, Control_c, 0, 64, 0
2, 30975, Note_off_c, 0, 81, 59
2, 30977, Note_off_c, 0, 65, 55
2, 30978, Note_on_c, 0, 84, 48
2, 30979, Note_on_c, 0, 60, 36
2, 31124, Note_off_c, 0, 84, 52
2, 31124, Note_off_c, 0, 60, 49
2, 31127, Note_on_c, 0, 77, 48
2, 31127, Note_on_c, 0, 65, 36
2, 31419, Note_off_c, 0, 77, 52
2, 31419, Note_off_c, 0, 65, 49
2, 31423, Note_on_c, 0, 81, 50
2, 31424, Note_on_c, 0, 63, 38
2, 31566, Note_off_c, 0, 81, 52
2, 31568, Note_off_c, 0, 63, 49
2, 31569, Note_on_c, 0, 82, 52
2, 31571, Note_on_c, 0, 61, 40
2, 31879, Note_off_c, 0, 82, 53
2, 31881, Note_off_c, 0, 61, 50
2, 31883, Note_on_c, 0, 85, 54
2, 31884, Note_on_c, 0, 58, 42
2, 32028, Note_off_c, 0, 85, 53
2, 32030, Note_off_c, 0, 58, 50
2, 32031, Note_on_c, 0, 77, 56
2, 32032, Note_on_c, 0, 61, 44
2, 32344, Note_off_c, 0, 77, 54
2, 32345, Note_off_c, 0, 61, 51
2, 32346, Note_on_c, 0, 82, 70
2, 32348, Note_on_c, 0, 64, 58
2, 32384, Note_off_c, 0, 53, 55
2, 32409, Note_off_c, 0, 82, 57
2, 32411, Note_off_c, 0, 64, 54
2, 32490, Note_on_c, 0, 81, 82
2, 32491, Note_on_c, 0, 65, 70
2, 32497, Note_on_c, 0, 53, 63
2, 32779, Note_off_c, 0, 81, 60
2, 32781, Note_off_c, 0, 65, 57
2, 32782, Note_on_c, 0, 84, 48
2, 32783, Note_on_c, 0, 60, 36
2, 32924, Note_off_c, 0, 84, 52
2, 32925, Note_off_c, 0, 60, 49
2, 32926, Note_on_c, 0, 65, 36
2, 32928, Note_on_c, 0, 81, 48
2, 33212, Note_off_c, 0, 81, 52
2, 33215, Note_off_c, 0, 65, 49
2, 33217, Note_on_c, 0, 77, 51
2, 33219, Note_on_c, 0, 63, 39
2, 33361, Note_off_c, 0, 77, 52
2, 33362, Note_off_c, 0, 63, 49
2, 33364, Note_on_c, 0, 82, 52
2, 33365, Note_on_c, 0, 61, 40
2, 33671, Note_off_c, 0, 82, 53
2, 33674, Note_off_c, 0, 61, 50
2, 33676, Note_on_c, 0, 85, 55
2, 33677, Note_on_c, 0, 58, 43
2, 33822, Note_off_c, 0, 85, 53
2, 33823, Note_off_c, 0, 58, 50
2, 33824, Note_on_c, 0, 77, 57
2, 33826, Note_on_c, 0, 61, 45
2, 34133, Note_off_c, 0, 77, 54
2, 34135, Note_off_c, 0, 61, 51
2, 34136, Note_on_c, 0, 82, 60
2, 34138, Note_on_c, 0, 64, 48
2, 34175, Note_off_c, 0, 53, 55
2, 34201, Note_off_c, 0, 64, 52
2, 34201, Note_off_c, 0, 82, 55
2, 34281, Note_on_c, 0, 81, 72
2, 34282, Note_on_c, 0, 65, 52
2, 34283, Note_on_c, 0, 53, 48
2, 34344, Note_off_c, 0, 81, 58
2, 34425, Note_on_c, 0, 83, 70
2, 34568, Note_off_c, 0, 65, 53
2, 34571, Note_off_c, 0, 53, 52
2, 34572, Note_on_c, 0, 84, 68
2, 34612, Note_off_c, 0, 83, 57
2, 34680, Note_off_c, 0, 84, 57
2, 34712, Note_on_c, 0, 77, 66
2, 34778, Note_off_c, 0, 77, 56
2, 34860, Note_on_c, 0, 80, 64
2, 35004, Note_on_c, 0, 81, 62
2, 35064, Note_off_c, 0, 80, 56
2, 35102, Note_off_c, 0, 81, 55
2, 35151, Note_on_c, 0, 72, 59
2, 35218, Note_off_c, 0, 72, 54
2, 35300, Note_on_c, 0, 76, 57
2, 35432, Note_on_c, 0, 77, 55
2, 35468, Note_off_c, 0, 76, 54
2, 35548, Note_off_c, 0, 77, 53
2, 35579, Note_on_c, 0, 69, 53
2, 35663, Note_off_c, 0, 69, 53
2, 35727, Note_on_c, 0, 71, 51
2, 35877, Note_on_c, 0, 72, 48
2, 35911, Note_off_c, 0, 71, 52
2, 35992, Note_off_c, 0, 72, 52
2, 36025, Note_on_c, 0, 53, 60
2, 36026, Note_on_c, 0, 65, 48
2, 36031, Control_c, 0, 64, 127
2, 36168, Note_off_c, 0, 53, 55
2, 36171, Note_on_c, 0, 63, 73
2, 36172, Note_on_c, 0, 69, 52
2, 36187, Note_off_c, 0, 65, 52
2, 36314, Note_on_c, 0, 72, 56
2, 36337, Note_off_c, 0, 69, 53
2, 36459, Note_off_c, 0, 72, 54
2, 36460, Note_on_c, 0, 77, 60
2, 36471, Control_c, 0, 64, 0
2, 36603, Note_on_c, 0, 69, 48
2, 36621, Note_off_c, 0, 77, 55
2, 36746, Note_on_c, 0, 72, 48
2, 36760, Note_off_c, 0, 69, 52
2, 36896, Note_on_c, 0, 65, 50
2, 36904, Note_off_c, 0, 72, 52
2, 37046, Note_on_c, 0, 72, 52
2, 37055, Note_off_c, 0, 65, 52
2, 37191, Note_on_c, 0, 69, 55
2, 37221, Note_off_c, 0, 72, 53
2, 37279, Note_off_c, 0, 63, 58
2, 37341, Note_on_c, 0, 70, 57
2, 37342, Note_on_c, 0, 62, 52
2, 37359, Note_off_c, 0, 69, 53
2, 37489, Note_on_c, 0, 72, 60
2, 37490, Note_on_c, 0, 60, 50
2, 37493, Note_off_c, 0, 70, 54
2, 37537, Note_off_c, 0, 62, 53
2, 37638, Note_on_c, 0, 74, 60
2, 37640, Note_on_c, 0, 58, 48
2, 37643, Note_off_c, 0, 72, 55
2, 37698, Note_off_c, 0, 60, 52
2, 37719, Note_off_c, 0, 74, 55
2, 37753, Note_off_c, 0, 58, 52
2, 37802, Note_on_c, 0, 65, 50
2, 37804, Note_on_c, 0, 53, 55
2, 37826, Control_c, 0, 64, 127
2, 37948, Note_on_c, 0, 69, 48
2, 37951, Note_on_c, 0, 63, 72
2, 37962, Note_off_c, 0, 65, 52
2, 38052, Note_off_c, 0, 53, 53
2, 38076, Note_on_c, 0, 72, 54
2, 38080, Note_off_c, 0, 69, 52
2, 38221, Note_on_c, 0, 77, 60
2, 38222, Note_off_c, 0, 72, 53
2, 38233, Control_c, 0, 64, 0
2, 38365, Note_on_c, 0, 69, 48
2, 38390, Note_off_c, 0, 77, 55
2, 38512, Note_on_c, 0, 72, 48
2, 38525, Note_off_c, 0, 69, 52
2, 38659, Note_on_c, 0, 65, 54
2, 38665, Note_off_c, 0, 72, 52
2, 38805, Note_on_c, 0, 72, 60
2, 38825, Note_off_c, 0, 65, 53
2, 38953, Note_on_c, 0, 69, 48
2, 38959, Note_off_c, 0, 72, 55
2, 39049, Note_off_c, 0, 63, 58
2, 39103, Note_on_c, 0, 70, 48
2, 39106, Note_on_c, 0, 62, 53
2, 39114, Note_off_c, 0, 69, 52
2, 39252, Note_off_c, 0, 70, 52
2, 39254, Note_on_c, 0, 72, 54
2, 39255, Note_on_c, 0, 60, 51
2, 39308, Note_off_c, 0, 62, 53
2, 39416, Note_off_c, 0, 72, 53
2, 39417, Note_on_c, 0, 74, 60
2, 39418, Note_on_c, 0, 58, 48
2, 39425, Note_off_c, 0, 60, 52
2, 39481, Note_off_c, 0, 74, 55
2, 39531, Note_off_c, 0, 58, 52
2, 39562, Note_on_c, 0, 66, 52
2, 39565, Note_on_c, 0, 60, 42
2, 39595, Control_c, 0, 64, 127
2, 39710, Note_on_c, 0, 69, 52
2, 39711, Note_on_c, 0, 57, 45
2, 39732, Note_off_c, 0, 66, 53
2, 39736, Note_off_c, 0, 60, 50
2, 39854, Note_on_c, 0, 66, 58
2, 39855, Note_on_c, 0, 60, 48
2, 39857, Note_off_c, 0, 69, 53
2, 39873, Note_off_c, 0, 57, 51
2, 40000, Note_on_c, 0, 67, 64
2, 40002, Note_on_c, 0, 58, 51
2, 40009, Note_off_c, 0, 60, 52
2, 40022, Note_off_c, 0, 66, 54
2, 40150, Note_on_c, 0, 57, 54
2, 40151, Note_on_c, 0, 69, 70
2, 40153, Note_off_c, 0, 67, 56
2, 40174, Note_off_c, 0, 58, 52
2, 40294, Note_off_c, 0, 57, 53
2, 40298, Note_on_c, 0, 55, 54
2, 40300, Note_on_c, 0, 70, 70
2, 40311, Note_off_c, 0, 69, 57
2, 40315, Control_c, 0, 64, 0
2, 40416, Note_off_c, 0, 70, 57
2, 40429, Note_off_c, 0, 55, 53
2, 40460, Note_on_c, 0, 62, 52
2, 40462, Note_on_c, 0, 56, 42
2, 40518, Control_c, 0, 64, 127
2, 40606, Note_on_c, 0, 65, 52
2, 40610, Note_off_c, 0, 56, 50
2, 40611, Note_on_c, 0, 53, 42
2, 40612, Note_off_c, 0, 62, 53
2, 40750, Note_on_c, 0, 62, 56
2, 40752, Note_on_c, 0, 56, 45
2, 40766, Note_off_c, 0, 53, 50
2, 40773, Note_off_c, 0, 65, 53
2, 40882, Note_on_c, 0, 55, 48
2, 40883, Note_on_c, 0, 63, 61
2, 40898, Note_off_c, 0, 62, 54
2, 40899, Note_off_c, 0, 56, 51
2, 41046, Note_on_c, 0, 53, 51
2, 41047, Note_on_c, 0, 65, 65
2, 41063, Note_off_c, 0, 55, 52
2, 41076, Note_off_c, 0, 63, 55
2, 41184, Control_c, 0, 64, 0
2, 41192, Note_on_c, 0, 67, 70
2, 41196, Note_on_c, 0, 51, 54
2, 41203, Note_off_c, 0, 53, 52
2, 41214, Note_off_c, 0, 65, 56
2, 41309, Note_off_c, 0, 51, 53
2, 41314, Note_off_c, 0, 67, 57
2, 41339, Note_on_c, 0, 53, 42
2, 41341, Note_on_c, 0, 59, 52
2, 41398, Control_c, 0, 64, 127
2, 41485, Note_on_c, 0, 62, 52
2, 41486, Note_on_c, 0, 50, 42
2, 41503, Note_off_c, 0, 53, 50
2, 41506, Note_off_c, 0, 59, 53
2, 41630, Note_on_c, 0, 59, 56
2, 41632, Note_on_c, 0, 53, 45
2, 41647, Note_off_c, 0, 62, 53
2, 41653, Note_off_c, 0, 50, 50
2, 41776, Note_on_c, 0, 60, 61
2, 41779, Note_on_c, 0, 51, 48
2, 41784, Note_off_c, 0, 53, 51
2, 41791, Note_off_c, 0, 59, 54
2, 41925, Note_on_c, 0, 50, 51
2, 41927, Note_on_c, 0, 62, 65
2, 41933, Note_off_c, 0, 60, 55
2, 41944, Note_off_c, 0, 51, 52
2, 42053, Control_c, 0, 64, 0
2, 42071, Note_on_c, 0, 63, 70
2, 42073, Note_on_c, 0, 48, 54
2, 42079, Note_off_c, 0, 62, 56
2, 42086, Note_off_c, 0, 50, 52
2, 42206, Note_off_c, 0, 63, 57
2, 42209, Note_off_c, 0, 48, 53
2, 42219, Note_on_c, 0, 58, 52
2, 42221, Note_on_c, 0, 53, 42
2, 42223, Note_on_c, 0, 41, 54
2, 42245, Control_c, 0, 64, 127
2, 42365, Note_on_c, 0, 62, 52
2, 42368, Note_off_c, 0, 53, 50
2, 42369, Note_on_c, 0, 50, 42
2, 42373, Note_off_c, 0, 58, 53
2, 42526, Note_on_c, 0, 65, 64
2, 42527, Note_off_c, 0, 41, 53
2, 42529, Note_off_c, 0, 62, 53
2, 42530, Note_on_c, 0, 46, 48
2, 42555, Note_off_c, 0, 50, 50
2, 42654, Note_off_c, 0, 65, 56
2, 42655, Note_off_c, 0, 46, 52
2, 42670, Note_on_c, 0, 63, 76
2, 42672, Note_on_c, 0, 41, 66
2, 42673, Note_on_c, 0, 53, 54
2, 42684, Control_c, 0, 64, 0
2, 42819, Note_on_c, 0, 60, 76
2, 42821, Note_on_c, 0, 51, 54
2, 42827, Control_c, 0, 64, 127
2, 42834, Note_off_c, 0, 63, 59
2, 42848, Note_off_c, 0, 53, 53
2, 42986, Note_on_c, 0, 48, 48
2, 42987, Note_on_c, 0, 57, 64
2, 42989, Note_off_c, 0, 51, 53
2, 43013, Note_off_c, 0, 60, 59
2, 43053, Note_off_c, 0, 57, 56
2, 43110, Note_off_c, 0, 48, 52
2, 43124, Note_on_c, 0, 58, 48
2, 43131, Note_on_c, 0, 46, 42
2, 43149, Control_c, 0, 64, 0
2, 43206, Note_off_c, 0, 41, 56
2, 43225, Note_off_c, 0, 46, 50
2, 43240, Note_off_c, 0, 58, 52
2, 43280, Note_on_c, 0, 58, 48
2, 43343, Note_off_c, 0, 58, 52
2, 43424, Note_on_c, 0, 60, 50
2, 43486, Note_off_c, 0, 60, 52
2, 43567, Note_on_c, 0, 61, 52
2, 43633, Note_off_c, 0, 61, 53
2, 43714, Note_on_c, 0, 62, 55
2, 43780, Note_off_c, 0, 62, 53
2, 43865, Note_on_c, 0, 63, 57
2, 43928, Note_off_c, 0, 63, 54
2, 44010, Note_on_c, 0, 64, 66
2, 44159, Note_on_c, 0, 65, 60
2, 44201, Note_off_c, 0, 64, 56
2, 44257, Note_off_c, 0, 65, 55
2, 44305, Note_on_c, 0, 63, 60
2, 44371, Note_off_c, 0, 63, 55
2, 44440, Note_on_c, 0, 62, 56
2, 44519, Note_off_c, 0, 62, 54
2, 44599, Note_on_c, 0, 60, 52
2, 44665, Note_off_c, 0, 60, 53
2, 44744, Note_on_c, 0, 58, 48
2, 44823, Note_off_c, 0, 58, 52
2, 44888, Note_on_c, 0, 69, 60
2, 44894, Note_on_c, 0, 65, 53
2, 44908, Control_c, 0, 64, 127
2, 44972, Note_off_c, 0, 65, 53
2, 45031, Note_off_c, 0, 69, 55
2, 45032, Note_on_c, 0, 89, 84
2, 45034, Note_on_c, 0, 64, 60
2, 45110, Note_off_c, 0, 64, 55
2, 45175, Note_on_c, 0, 63, 57
2, 45240, Control_c, 0, 64, 0
2, 45241, Note_off_c, 0, 63, 54
2, 45319, Note_on_c, 0, 60, 54
2, 45387, Note_off_c, 0, 60, 53
2, 45470, Note_on_c, 0, 57, 51
2, 45534, Note_off_c, 0, 57, 52
2, 45617, Note_on_c, 0, 53, 48
2, 45681, Note_off_c, 0, 53, 52
2, 45765, Note_on_c, 0, 52, 54
2, 45913, Note_on_c, 0, 53, 50
2, 45994, Note_off_c, 0, 52, 53
2, 46010, Note_off_c, 0, 53, 52
2, 46060, Note_off_c, 0, 89, 61
2, 46061, Note_on_c, 0, 69, 48
2, 46063, Note_on_c, 0, 51, 52
2, 46126, Note_off_c, 0, 69, 52
2, 46128, Note_off_c, 0, 51, 53
2, 46206, Note_on_c, 0, 70, 48
2, 46208, Note_on_c, 0, 50, 55
2, 46272, Note_off_c, 0, 70, 52
2, 46274, Note_off_c, 0, 50, 53
2, 46352, Note_on_c, 0, 72, 52
2, 46355, Note_on_c, 0, 48, 57
2, 46418, Note_off_c, 0, 72, 53
2, 46419, Note_off_c, 0, 48, 54
2, 46496, Note_on_c, 0, 74, 56
2, 46499, Note_on_c, 0, 46, 60
2, 46576, Note_off_c, 0, 74, 54
2, 46578, Note_off_c, 0, 46, 55
2, 46633, Note_on_c, 0, 69, 54
2, 46639, Note_on_c, 0, 65, 54
2, 46650, Control_c, 0, 64, 127
2, 46719, Note_off_c, 0, 65, 53
2, 46773, Note_off_c, 0, 69, 53
2, 46780, Note_on_c, 0, 89, 78
2, 46783, Note_on_c, 0, 64, 60
2, 46862, Note_off_c, 0, 64, 55
2, 46924, Note_on_c, 0, 63, 59
2, 46978, Control_c, 0, 64, 0
2, 47004, Note_off_c, 0, 63, 54
2, 47069, Note_on_c, 0, 60, 57
2, 47148, Note_off_c, 0, 60, 54
2, 47215, Note_on_c, 0, 57, 55
2, 47279, Note_off_c, 0, 57, 53
2, 47361, Note_on_c, 0, 53, 54
2, 47427, Note_off_c, 0, 53, 53
2, 47507, Note_on_c, 0, 52, 58
2, 47656, Note_on_c, 0, 53, 50
2, 47748, Note_off_c, 0, 52, 54
2, 47773, Note_off_c, 0, 53, 52
2, 47805, Note_off_c, 0, 89, 59
2, 47807, Note_on_c, 0, 69, 48
2, 47808, Note_on_c, 0, 51, 48
2, 47873, Note_off_c, 0, 69, 52
2, 47874, Note_off_c, 0, 51, 52
2, 47953, Note_on_c, 0, 70, 48
2, 47956, Note_on_c, 0, 50, 48
2, 48019, Note_off_c, 0, 70, 52
2, 48020, Note_off_c, 0, 50, 52
2, 48098, Note_on_c, 0, 72, 54
2, 48100, Note_on_c, 0, 48, 52
2, 48179, Note_off_c, 0, 72, 53
2, 48182, Note_off_c, 0, 48, 53
2, 48244, Note_on_c, 0, 74, 60
2, 48246, Note_on_c, 0, 46, 56
2, 48321, Note_off_c, 0, 74, 55
2, 48323, Note_off_c, 0, 46, 54
2, 48383, Note_on_c, 0, 45, 60
2, 48384, Note_on_c, 0, 66, 66
2, 48522, Control_c, 0, 64, 96
2, 48529, Note_on_c, 0, 60, 60
2, 48530, Note_off_c, 0, 66, 56
2, 48531, Note_on_c, 0, 69, 72
2, 48540, Note_off_c, 0, 45, 55
2, 48671, Note_off_c, 0, 69, 58
2, 48673, Note_on_c, 0, 66, 72
2, 48675, Note_on_c, 0, 57, 60
2, 48698, Note_off_c, 0, 60, 55
2, 48821, Note_on_c, 0, 67, 69
2, 48823, Note_on_c, 0, 58, 57
2, 48841, Note_off_c, 0, 57, 55
2, 48845, Note_off_c, 0, 66, 58
2, 48967, Note_on_c, 0, 69, 66
2, 48969, Note_on_c, 0, 57, 54
2, 48989, Note_off_c, 0, 67, 57
2, 48991, Note_off_c, 0, 58, 54
2, 49115, Note_on_c, 0, 70, 63
2, 49120, Note_on_c, 0, 55, 51
2, 49124, Note_off_c, 0, 69, 56
2, 49131, Control_c, 0, 64, 0
2, 49137, Note_off_c, 0, 57, 53
2, 49241, Note_off_c, 0, 70, 55
2, 49248, Note_off_c, 0, 55, 52
2, 49264, Note_on_c, 0, 56, 48
2, 49266, Note_on_c, 0, 62, 60
2, 49332, Control_c, 0, 64, 106
2, 49408, Note_on_c, 0, 53, 48
2, 49411, Note_off_c, 0, 62, 55
2, 49412, Note_on_c, 0, 65, 60
2, 49433, Note_off_c, 0, 56, 52
2, 49553, Note_on_c, 0, 62, 60
2, 49554, Note_on_c, 0, 56, 48
2, 49562, Note_off_c, 0, 53, 52
2, 49570, Note_off_c, 0, 65, 55
2, 49700, Note_on_c, 0, 63, 61
2, 49703, Note_on_c, 0, 55, 49
2, 49710, Note_off_c, 0, 62, 55
2, 49710, Note_off_c, 0, 56, 52
2, 49847, Note_on_c, 0, 65, 62
2, 49849, Note_off_c, 0, 63, 55
2, 49853, Note_on_c, 0, 53, 50
2, 49873, Note_off_c, 0, 55, 52
2, 49997, Note_on_c, 0, 51, 50
2, 49999, Note_on_c, 0, 67, 62
2, 50007, Control_c, 0, 64, 0
2, 50011, Note_off_c, 0, 65, 55
2, 50026, Note_off_c, 0, 53, 52
2, 50114, Note_off_c, 0, 67, 55
2, 50118, Note_off_c, 0, 51, 52
2, 50141, Note_on_c, 0, 59, 63
2, 50145, Note_on_c, 0, 53, 51
2, 50207, Control_c, 0, 64, 106
2, 50289, Note_on_c, 0, 62, 64
2, 50290, Note_on_c, 0, 50, 52
2, 50297, Note_off_c, 0, 59, 55
2, 50306, Note_off_c, 0, 53, 52
2, 50433, Note_on_c, 0, 53, 52
2, 50435, Note_on_c, 0, 59, 64
2, 50447, Note_off_c, 0, 62, 56
2, 50459, Note_off_c, 0, 50, 53
2, 50581, Note_on_c, 0, 60, 65
2, 50583, Note_on_c, 0, 51, 53
2, 50592, Note_off_c, 0, 53, 53
2, 50602, Note_off_c, 0, 59, 56
2, 50728, Note_on_c, 0, 62, 66
2, 50731, Note_on_c, 0, 50, 54
2, 50736, Note_off_c, 0, 60, 56
2, 50747, Note_off_c, 0, 51, 53
2, 50876, Note_on_c, 0, 63, 67
2, 50878, Note_on_c, 0, 48, 55
2, 50885, Control_c, 0, 64, 0
2, 50889, Note_off_c, 0, 50, 53
2, 50904, Note_off_c, 0, 62, 56
2, 50996, Note_off_c, 0, 48, 53
2, 51001, Note_off_c, 0, 63, 57
2, 51039, Note_on_c, 0, 58, 67
2, 51041, Note_on_c, 0, 53, 55
2, 51088, Control_c, 0, 64, 106
2, 51186, Note_off_c, 0, 58, 57
2, 51188, Note_on_c, 0, 62, 68
2, 51189, Note_on_c, 0, 50, 56
2, 51200, Note_off_c, 0, 53, 53
2, 51330, Note_on_c, 0, 65, 69
2, 51333, Note_on_c, 0, 41, 57
2, 51334, Note_off_c, 0, 62, 57
2, 51340, Note_off_c, 0, 50, 54
2, 51475, Note_on_c, 0, 51, 57
2, 51480, Note_on_c, 0, 60, 69
2, 51483, Note_off_c, 0, 41, 54
2, 51489, Note_off_c, 0, 65, 57
2, 51642, Note_on_c, 0, 48, 58
2, 51643, Note_on_c, 0, 63, 70
2, 51654, Note_off_c, 0, 60, 57
2, 51671, Note_off_c, 0, 51, 54
2, 51785, Control_c, 0, 64, 0
2, 51790, Note_on_c, 0, 69, 71
2, 51791, Note_on_c, 0, 41, 59
2, 51801, Note_off_c, 0, 48, 54
2, 51805, Note_off_c, 0, 63, 57
2, 51907, Note_off_c, 0, 41, 54
2, 51917, Note_off_c, 0, 69, 58
2, 51987, Note_on_c, 0, 70, 72
2, 51993, Note_on_c, 0, 62, 52
2, 51997, Note_on_c, 0, 46, 40
2, 51998, Note_on_c, 0, 34, 60
2, 52005, Control_c, 0, 64, 127
2, 52287, Note_off_c, 0, 70, 58
2, 52295, Note_off_c, 0, 62, 53
2, 52297, Note_off_c, 0, 46, 50
2, 52298, Note_off_c, 0, 34, 55
2, 52555, Note_on_c, 0, 74, 72
2, 52564, Note_on_c, 0, 46, 43
2, 52571, Note_on_c, 0, 62, 52
2, 52571, Note_on_c, 0, 53, 40
2, 52600, Control_c, 0, 64, 0
2, 52736, Control_c, 0, 64, 127
2, 52920, Note_off_c, 0, 46, 50
2, 52965, Note_off_c, 0, 62, 53
2, 52986, Note_off_c, 0, 74, 58
2, 52992, Note_on_c, 0, 72, 64
2, 53000, Note_on_c, 0, 63, 44
2, 53005, Note_on_c, 0, 48, 35
2, 53010, Note_on_c, 0, 57, 38
2, 53013, Control_c, 0, 64, 0
2, 53149, Control_c, 0, 64, 127
2, 53372, Note_off_c, 0, 48, 48
2, 53392, Note_off_c, 0, 63, 51
2, 53413, Note_off_c, 0, 57, 49
2, 53426, Note_off_c, 0, 72, 56
2, 53431, Note_on_c, 0, 70, 56
2, 53441, Note_on_c, 0, 58, 30
2, 53444, Note_on_c, 0, 50, 27
2, 53451, Note_on_c, 0, 65, 36
2, 53474, Control_c, 0, 64, 0
2, 53613, Control_c, 0, 64, 127
2, 53683, Note_off_c, 0, 53, 50
2, 53856, Note_off_c, 0, 58, 47
2, 53872, Note_off_c, 0, 50, 46
2, 53884, Note_off_c, 0, 65, 49
2, 53888, Note_off_c, 0, 70, 54
2, 53891, Note_on_c, 0, 67, 48
2, 53903, Note_on_c, 0, 55, 16
2, 53909, Note_on_c, 0, 51, 19
2, 54101, Note_off_c, 0, 55, 44
2, 54132, Note_off_c, 0, 67, 52
2, 54136, Note_off_c, 0, 51, 45
2, 54187, Control_c, 0, 64, 0
2, 54365, Note_on_c, 0, 75, 60
2, 54372, Note_on_c, 0, 55, 48
2, 54373, Note_on_c, 0, 63, 40
2, 54374, Note_on_c, 0, 48, 35
2, 54390, Control_c, 0, 64, 127
2, 54685, Note_off_c, 0, 63, 50
2, 54753, Note_off_c, 0, 48, 48
2, 54800, Note_off_c, 0, 75, 55
2, 54801, Note_on_c, 0, 74, 60
2, 54808, Note_on_c, 0, 65, 42
2, 54809, Note_on_c, 0, 59, 46
2, 54811, Note_on_c, 0, 50, 35
2, 54823, Control_c, 0, 64, 0
2, 54958, Control_c, 0, 64, 127
2, 55122, Note_off_c, 0, 65, 50
2, 55165, Note_off_c, 0, 50, 48
2, 55183, Note_off_c, 0, 59, 51
2, 55237, Note_off_c, 0, 74, 55
2, 55243, Note_on_c, 0, 72, 54
2, 55248, Note_on_c, 0, 60, 42
2, 55250, Note_on_c, 0, 67, 40
2, 55252, Note_on_c, 0, 51, 35
2, 55277, Control_c, 0, 64, 0
2, 55416, Control_c, 0, 64, 127
2, 55464, Note_off_c, 0, 55, 52
2, 55604, Note_off_c, 0, 67, 50
2, 55615, Note_off_c, 0, 51, 48
2, 55698, Note_off_c, 0, 72, 53
2, 55704, Note_on_c, 0, 69, 48
2, 55709, Note_on_c, 0, 53, 36
2, 55860, Note_off_c, 0, 60, 50
2, 55907, Note_off_c, 0, 53, 49
2, 55943, Control_c, 0, 64, 0
2, 55945, Note_off_c, 0, 69, 52
2, 56142, Control_c, 0, 64, 127
2, 56170, Note_on_c, 0, 81, 49
2, 56173, Note_on_c, 0, 65, 37
2, 56178, Note_on_c, 0, 69, 39
2, 56180, Note_on_c, 0, 53, 30
2, 56552, Note_off_c, 0, 69, 49
2, 56597, Note_off_c, 0, 53, 47
2, 56604, Note_off_c, 0, 81, 52
2, 56607, Note_off_c, 0, 65, 49
2, 56609, Note_on_c, 0, 82, 55
2, 56610, Note_on_c, 0, 64, 43
2, 56617, Note_on_c, 0, 70, 35
2, 56618, Note_on_c, 0, 55, 30
2, 56630, Control_c, 0, 64, 0
2, 56765, Control_c, 0, 64, 127
2, 57005, Note_off_c, 0, 55, 47
2, 57031, Note_off_c, 0, 70, 48
2, 57043, Note_off_c, 0, 82, 53
2, 57044, Note_off_c, 0, 64, 50
2, 57047, Note_on_c, 0, 84, 60
2, 57048, Note_on_c, 0, 63, 48
2, 57055, Note_on_c, 0, 72, 42
2, 57056, Note_on_c, 0, 57, 40
2, 57065, Control_c, 0, 64, 0
2, 57205, Control_c, 0, 64, 127
2, 57459, Note_off_c, 0, 72, 50
2, 57472, Note_off_c, 0, 57, 50
2, 57503, Note_off_c, 0, 84, 55
2, 57504, Note_off_c, 0, 63, 52
2, 57505, Note_on_c, 0, 86, 66
2, 57509, Note_on_c, 0, 62, 54
2, 57515, Note_on_c, 0, 74, 46
2, 57517, Note_on_c, 0, 58, 50
2, 57527, Control_c, 0, 64, 0
2, 57663, Control_c, 0, 64, 127
2, 57938, Note_off_c, 0, 74, 51
2, 57979, Note_off_c, 0, 58, 52
2, 57981, Note_off_c, 0, 86, 56
2, 57984, Note_off_c, 0, 62, 53
2, 57985, Note_on_c, 0, 89, 90
2, 57988, Note_on_c, 0, 60, 52
2, 57993, Note_on_c, 0, 77, 72
2, 57994, Note_on_c, 0, 57, 60
2, 58006, Control_c, 0, 64, 0
2, 58142, Control_c, 0, 64, 127
2, 58345, Note_off_c, 0, 57, 55
2, 58413, Note_off_c, 0, 60, 53
2, 58416, Note_on_c, 0, 58, 72
2, 58424, Note_on_c, 0, 55, 62
2, 58444, Control_c, 0, 64, 0
2, 58514, Note_off_c, 0, 77, 58
2, 58567, Note_on_c, 0, 79, 68
2, 58578, Control_c, 0, 64, 127
2, 58700, Note_off_c, 0, 79, 57
2, 58713, Note_on_c, 0, 77, 64
2, 58722, Note_off_c, 0, 89, 62
2, 58764, Note_off_c, 0, 55, 55
2, 58788, Note_off_c, 0, 77, 56
2, 58789, Note_off_c, 0, 58, 58
2, 58804, Note_on_c, 0, 89, 80
2, 58843, Note_on_c, 0, 76, 40
2, 58853, Note_off_c, 0, 89, 60
2, 58854, Note_on_c, 0, 88, 72
2, 58858, Note_on_c, 0, 58, 50
2, 58864, Note_on_c, 0, 48, 36
2, 58870, Control_c, 0, 64, 0
2, 59003, Note_off_c, 0, 88, 58
2, 59004, Note_on_c, 0, 86, 56
2, 59006, Control_c, 0, 64, 127
2, 59150, Note_off_c, 0, 86, 54
2, 59151, Note_on_c, 0, 88, 52
2, 59228, Note_off_c, 0, 76, 50
2, 59313, Note_off_c, 0, 88, 53
2, 59317, Note_off_c, 0, 58, 52
2, 59317, Note_off_c, 0, 48, 49
2, 59319, Note_on_c, 0, 89, 60
2, 59320, Note_on_c, 0, 57, 38
2, 59324, Note_on_c, 0, 77, 40
2, 59326, Note_on_c, 0, 53, 32
2, 59336, Control_c, 0, 64, 0
2, 59475, Control_c, 0, 64, 127
2, 59506, Note_off_c, 0, 53, 48
2, 59530, Note_off_c, 0, 57, 49
2, 59569, Note_off_c, 0, 77, 50
2, 59613, Note_off_c, 0, 89, 55
2, 59758, Note_on_c, 0, 62, 84
2, 59767, Note_on_c, 0, 58, 50
2, 59769, Note_on_c, 0, 46, 35
2, 59784, Note_on_c, 0, 53, 40
2, 59787, Control_c, 0, 64, 0
2, 59905, Note_on_c, 0, 74, 60
2, 59927, Control_c, 0, 64, 127
2, 59986, Note_off_c, 0, 74, 55
2, 60053, Note_on_c, 0, 74, 57
2, 60128, Note_off_c, 0, 62, 61
2, 60132, Note_off_c, 0, 74, 54
2, 60134, Note_off_c, 0, 58, 52
2, 60147, Note_off_c, 0, 46, 48
2, 60198, Note_on_c, 0, 48, 40
2, 60199, Note_on_c, 0, 74, 54
2, 60203, Note_on_c, 0, 63, 34
2, 60207, Note_on_c, 0, 57, 46
2, 60212, Control_c, 0, 64, 0
2, 60341, Note_on_c, 0, 72, 51
2, 60352, Control_c, 0, 64, 127
2, 60408, Note_off_c, 0, 74, 53
2, 60452, Note_off_c, 0, 72, 52
2, 60484, Note_on_c, 0, 72, 48
2, 60566, Note_off_c, 0, 72, 52
2, 60573, Note_off_c, 0, 63, 48
2, 60586, Note_off_c, 0, 48, 50
2, 60614, Note_off_c, 0, 57, 51
2, 60637, Note_on_c, 0, 58, 70
2, 60645, Note_on_c, 0, 50, 60
2, 60646, Note_on_c, 0, 65, 64
2, 60661, Control_c, 0, 64, 0
2, 60776, Note_on_c, 0, 70, 51
2, 60803, Control_c, 0, 64, 127
2, 60856, Note_off_c, 0, 70, 52
2, 60909, Note_off_c, 0, 65, 56
2, 60920, Note_on_c, 0, 70, 56
2, 61001, Note_off_c, 0, 70, 54
2, 61051, Note_off_c, 0, 58, 57
2, 61062, Note_off_c, 0, 50, 55
2, 61064, Note_off_c, 0, 53, 50
2, 61086, Note_on_c, 0, 51, 40
2, 61088, Note_on_c, 0, 55, 35
2, 61089, Note_on_c, 0, 69, 51
2, 61111, Control_c, 0, 64, 0
2, 61230, Note_on_c, 0, 67, 51
2, 61237, Note_off_c, 0, 69, 52
2, 61253, Control_c, 0, 64, 127
2, 61257, Note_off_c, 0, 51, 50
2, 61280, Note_off_c, 0, 55, 48
2, 61343, Note_off_c, 0, 67, 52
2, 61376, Note_on_c, 0, 67, 48
2, 61457, Note_off_c, 0, 67, 52
2, 61519, Note_on_c, 0, 63, 84
2, 61527, Note_on_c, 0, 48, 50
2, 61547, Note_on_c, 0, 55, 60
2, 61576, Control_c, 0, 64, 0
2, 61666, Note_on_c, 0, 75, 60
2, 61716, Control_c, 0, 64, 127
2, 61745, Note_off_c, 0, 75, 55
2, 61810, Note_on_c, 0, 75, 57
2, 61890, Note_off_c, 0, 48, 52
2, 61892, Note_off_c, 0, 75, 54
2, 61908, Note_off_c, 0, 63, 61
2, 61954, Note_on_c, 0, 59, 50
2, 61958, Note_on_c, 0, 75, 60
2, 61959, Note_on_c, 0, 65, 54
2, 61967, Note_on_c, 0, 50, 45
2, 61995, Control_c, 0, 64, 0
2, 62100, Note_on_c, 0, 74, 51
2, 62136, Control_c, 0, 64, 127
2, 62160, Note_off_c, 0, 75, 55
2, 62212, Note_off_c, 0, 74, 52
2, 62261, Note_on_c, 0, 74, 48
2, 62326, Note_off_c, 0, 74, 52
2, 62390, Note_off_c, 0, 59, 52
2, 62392, Note_off_c, 0, 65, 53
2, 62403, Note_off_c, 0, 50, 51
2, 62407, Note_on_c, 0, 67, 74
2, 62411, Note_on_c, 0, 51, 60
2, 62421, Note_on_c, 0, 60, 62
2, 62433, Control_c, 0, 64, 0
2, 62550, Note_on_c, 0, 72, 60
2, 62574, Control_c, 0, 64, 127
2, 62616, Note_off_c, 0, 72, 55
2, 62692, Note_off_c, 0, 67, 59
2, 62696, Note_on_c, 0, 72, 56
2, 62759, Note_off_c, 0, 72, 54
2, 62792, Note_off_c, 0, 55, 55
2, 62814, Note_off_c, 0, 51, 55
2, 62845, Note_on_c, 0, 70, 52
2, 62847, Note_on_c, 0, 53, 48
2, 62873, Control_c, 0, 64, 0
2, 62990, Note_on_c, 0, 69, 52
2, 63012, Note_off_c, 0, 70, 53
2, 63017, Control_c, 0, 64, 127
2, 63069, Note_off_c, 0, 60, 55
2, 63071, Note_off_c, 0, 53, 52
2, 63101, Note_off_c, 0, 69, 53
2, 63135, Note_on_c, 0, 69, 48
2, 63216, Note_off_c, 0, 69, 52
2, 63291, Note_on_c, 0, 81, 74
2, 63301, Note_on_c, 0, 77, 54
2, 63306, Note_on_c, 0, 69, 46
2, 63339, Control_c, 0, 64, 0
2, 63440, Note_on_c, 0, 65, 51
2, 63482, Control_c, 0, 64, 127
2, 63506, Note_off_c, 0, 65, 52
2, 63587, Note_on_c, 0, 65, 53
2, 63649, Note_off_c, 0, 65, 53
2, 63674, Note_off_c, 0, 77, 53
2, 63714, Note_off_c, 0, 69, 51
2, 63725, Note_off_c, 0, 81, 59
2, 63728, Note_on_c, 0, 82, 68
2, 63736, Note_on_c, 0, 65, 78
2, 63742, Note_on_c, 0, 70, 46
2, 63748, Control_c, 0, 64, 0
2, 63750, Note_on_c, 0, 79, 48
2, 63876, Note_on_c, 0, 64, 56
2, 63888, Control_c, 0, 64, 127
2, 63927, Note_off_c, 0, 65, 59
2, 63973, Note_off_c, 0, 64, 54
2, 64021, Note_on_c, 0, 64, 58
2, 64086, Note_off_c, 0, 64, 54
2, 64109, Note_off_c, 0, 79, 52
2, 64131, Note_off_c, 0, 70, 51
2, 64159, Note_off_c, 0, 82, 57
2, 64162, Note_on_c, 0, 84, 71
2, 64173, Note_on_c, 0, 72, 48
2, 64175, Note_on_c, 0, 81, 56
2, 64185, Control_c, 0, 64, 0
2, 64310, Note_on_c, 0, 63, 55
2, 64321, Control_c, 0, 64, 127
2, 64391, Note_off_c, 0, 63, 53
2, 64454, Note_on_c, 0, 63, 60
2, 64537, Note_off_c, 0, 63, 55
2, 64554, Note_off_c, 0, 72, 52
2, 64613, Note_off_c, 0, 84, 58
2, 64615, Note_on_c, 0, 86, 76
2, 64616, Note_off_c, 0, 81, 54
2, 64621, Note_on_c, 0, 82, 56
2, 64623, Note_on_c, 0, 63, 81
2, 64626, Note_on_c, 0, 74, 48
2, 64645, Control_c, 0, 64, 0
2, 64767, Note_on_c, 0, 62, 54
2, 64783, Control_c, 0, 64, 127
2, 64798, Note_off_c, 0, 63, 60
2, 64841, Note_off_c, 0, 86, 59
2, 64848, Note_off_c, 0, 82, 54
2, 64849, Note_off_c, 0, 74, 52
2, 64879, Note_off_c, 0, 62, 53
2, 64912, Note_on_c, 0, 62, 51
2, 64993, Note_off_c, 0, 62, 52
2, 65076, Note_on_c, 0, 53, 48
2, 65078, Control_c, 0, 64, 0
2, 65214, Control_c, 0, 64, 127
2, 65217, Note_on_c, 0, 82, 53
2, 65224, Note_on_c, 0, 70, 41
2, 65226, Note_on_c, 0, 65, 48
2, 65227, Note_on_c, 0, 62, 40
2, 65282, Note_off_c, 0, 82, 53
2, 65283, Note_off_c, 0, 70, 50
2, 65290, Note_off_c, 0, 65, 52
2, 65299, Note_off_c, 0, 62, 50
2, 65339, Note_off_c, 0, 53, 52
2, 65348, Note_on_c, 0, 82, 59
2, 65354, Note_on_c, 0, 70, 46
2, 65355, Note_on_c, 0, 62, 50
2, 65357, Note_on_c, 0, 65, 53
2, 65431, Note_off_c, 0, 82, 54
2, 65434, Note_off_c, 0, 70, 51
2, 65438, Note_off_c, 0, 62, 52
2, 65448, Note_off_c, 0, 65, 53
2, 65497, Note_on_c, 0, 82, 61
2, 65507, Note_on_c, 0, 70, 50
2, 65508, Note_on_c, 0, 41, 59
2, 65516, Control_c, 0, 64, 0
2, 65637, Note_off_c, 0, 70, 52
2, 65642, Note_off_c, 0, 82, 55
2, 65645, Note_on_c, 0, 81, 60
2, 65653, Note_on_c, 0, 60, 50
2, 65654, Note_on_c, 0, 63, 59
2, 65655, Note_on_c, 0, 69, 42
2, 65657, Control_c, 0, 64, 127
2, 65726, Note_off_c, 0, 63, 54
2, 65739, Note_off_c, 0, 60, 52
2, 65756, Note_off_c, 0, 69, 50
2, 65758, Note_off_c, 0, 81, 55
2, 65783, Note_off_c, 0, 41, 54
2, 65792, Note_on_c, 0, 81, 57
2, 65797, Note_on_c, 0, 63, 50
2, 65799, Note_on_c, 0, 69, 40
2, 65801, Note_on_c, 0, 60, 42
2, 65872, Note_off_c, 0, 81, 54
2, 65876, Note_off_c, 0, 69, 50
2, 65894, Note_off_c, 0, 63, 52
2, 65925, Note_off_c, 0, 60, 50
2, 65948, Note_on_c, 0, 53, 78
2, 65952, Control_c, 0, 64, 0
2, 66087, Note_on_c, 0, 79, 51
2, 66092, Control_c, 0, 64, 127
2, 66095, Note_on_c, 0, 62, 35
2, 66096, Note_on_c, 0, 67, 40
2, 66098, Note_on_c, 0, 58, 45
2, 66169, Note_off_c, 0, 79, 52
2, 66171, Note_off_c, 0, 67, 50
2, 66175, Note_off_c, 0, 62, 48
2, 66184, Note_off_c, 0, 58, 51
2, 66226, Note_off_c, 0, 53, 59
2, 66236, Note_on_c, 0, 79, 48
2, 66244, Note_on_c, 0, 62, 33
2, 66245, Note_on_c, 0, 67, 36
2, 66246, Note_on_c, 0, 58, 33
2, 66317, Note_off_c, 0, 79, 52
2, 66322, Note_off_c, 0, 67, 49
2, 66336, Note_off_c, 0, 58, 48
2, 66339, Note_off_c, 0, 62, 48
2, 66385, Note_on_c, 0, 79, 60
2, 66392, Note_on_c, 0, 67, 45
2, 66394, Note_on_c, 0, 41, 59
2, 66400, Control_c, 0, 64, 0
2, 66531, Note_off_c, 0, 79, 55
2, 66531, Note_off_c, 0, 67, 51
2, 66534, Note_on_c, 0, 77, 60
2, 66538, Control_c, 0, 64, 127
2, 66539, Note_on_c, 0, 65, 40
2, 66542, Note_on_c, 0, 60, 59
2, 66544, Note_on_c, 0, 57, 50
2, 66625, Note_off_c, 0, 57, 52
2, 66626, Note_off_c, 0, 60, 54
2, 66636, Note_off_c, 0, 65, 50
2, 66645, Note_off_c, 0, 77, 55
2, 66672, Note_off_c, 0, 41, 54
2, 66679, Note_on_c, 0, 77, 57
2, 66685, Note_on_c, 0, 60, 50
2, 66687, Note_on_c, 0, 65, 38
2, 66688, Note_on_c, 0, 57, 35
2, 66745, Note_off_c, 0, 77, 54
2, 66749, Note_off_c, 0, 65, 49
2, 66773, Note_off_c, 0, 57, 48
2, 66794, Note_off_c, 0, 60, 52
2, 66837, Note_on_c, 0, 53, 78
2, 66840, Control_c, 0, 64, 0
2, 66976, Note_on_c, 0, 75, 75
2, 66980, Control_c, 0, 64, 127
2, 66982, Note_on_c, 0, 63, 56
2, 66985, Note_on_c, 0, 58, 51
2, 66986, Note_on_c, 0, 55, 40
2, 67040, Note_off_c, 0, 75, 59
2, 67048, Note_off_c, 0, 63, 54
2, 67051, Note_off_c, 0, 58, 52
2, 67065, Note_off_c, 0, 55, 50
2, 67097, Note_off_c, 0, 53, 59
2, 67122, Note_on_c, 0, 75, 48
2, 67132, Note_on_c, 0, 58, 40
2, 67133, Note_on_c, 0, 63, 36
2, 67134, Note_on_c, 0, 55, 33
2, 67189, Note_off_c, 0, 75, 52
2, 67194, Note_off_c, 0, 63, 49
2, 67226, Note_off_c, 0, 55, 48
2, 67236, Note_off_c, 0, 58, 50
2, 67270, Note_on_c, 0, 75, 48
2, 67279, Note_on_c, 0, 63, 40
2, 67280, Note_on_c, 0, 41, 36
2, 67286, Control_c, 0, 64, 0
2, 67418, Note_on_c, 0, 74, 50
2, 67422, Note_off_c, 0, 63, 50
2, 67424, Control_c, 0, 64, 127
2, 67426, Note_on_c, 0, 57, 49
2, 67427, Note_on_c, 0, 62, 38
2, 67428, Note_on_c, 0, 53, 40
2, 67438, Note_off_c, 0, 75, 52
2, 67484, Note_off_c, 0, 57, 52
2, 67490, Note_off_c, 0, 53, 50
2, 67513, Note_off_c, 0, 74, 52
2, 67522, Note_off_c, 0, 62, 49
2, 67537, Note_off_c, 0, 41, 49
2, 67546, Note_on_c, 0, 74, 52
2, 67552, Note_on_c, 0, 62, 33
2, 67555, Note_on_c, 0, 57, 45
2, 67556, Note_on_c, 0, 53, 36
2, 67628, Note_off_c, 0, 74, 53
2, 67634, Note_off_c, 0, 53, 49
2, 67636, Note_off_c, 0, 62, 48
2, 67651, Note_off_c, 0, 57, 51
2, 67700, Note_on_c, 0, 41, 52
2, 67716, Control_c, 0, 64, 0
2, 67837, Note_on_c, 0, 72, 56
2, 67847, Note_on_c, 0, 60, 36
2, 67848, Note_on_c, 0, 55, 53
2, 67850, Note_on_c, 0, 51, 50
2, 67855, Control_c, 0, 64, 127
2, 67903, Note_off_c, 0, 72, 54
2, 67910, Note_off_c, 0, 60, 49
2, 67913, Note_off_c, 0, 51, 52
2, 67915, Note_off_c, 0, 55, 53
2, 67976, Note_off_c, 0, 41, 53
2, 67985, Note_on_c, 0, 72, 58
2, 67991, Note_on_c, 0, 60, 46
2, 67993, Note_on_c, 0, 55, 50
2, 67995, Note_on_c, 0, 51, 40
2, 68050, Note_off_c, 0, 72, 54
2, 68057, Note_off_c, 0, 60, 51
2, 68061, Note_off_c, 0, 51, 50
2, 68070, Note_off_c, 0, 55, 52
2, 68130, Note_on_c, 0, 72, 60
2, 68136, Note_on_c, 0, 60, 40
2, 68139, Note_on_c, 0, 41, 50
2, 68164, Control_c, 0, 64, 0
2, 68258, Note_on_c, 0, 70, 62
2, 68262, Note_off_c, 0, 72, 55
2, 68264, Note_off_c, 0, 60, 50
2, 68266, Note_on_c, 0, 58, 42
2, 68267, Note_on_c, 0, 50, 50
2, 68269, Note_on_c, 0, 53, 57
2, 68297, Control_c, 0, 64, 127
2, 68335, Note_off_c, 0, 50, 52
2, 68345, Note_off_c, 0, 53, 54
2, 68367, Note_off_c, 0, 70, 55
2, 68373, Note_off_c, 0, 58, 50
2, 68393, Note_off_c, 0, 41, 52
2, 68397, Note_on_c, 0, 70, 64
2, 68407, Note_on_c, 0, 53, 58
2, 68408, Note_on_c, 0, 58, 44
2, 68410, Note_on_c, 0, 50, 50
2, 68463, Note_off_c, 0, 70, 56
2, 68469, Note_off_c, 0, 58, 51
2, 68472, Note_off_c, 0, 53, 54
2, 68483, Note_off_c, 0, 50, 52
2, 68547, Note_on_c, 0, 70, 66
2, 68553, Note_on_c, 0, 41, 35
2, 68554, Note_on_c, 0, 58, 46
2, 68571, Control_c, 0, 64, 0
2, 68671, Note_on_c, 0, 69, 68
2, 68677, Note_off_c, 0, 58, 51
2, 68678, Note_on_c, 0, 57, 58
2, 68680, Note_on_c, 0, 51, 50
2, 68682, Note_off_c, 0, 70, 56
2, 68683, Note_on_c, 0, 48, 43
2, 68707, Control_c, 0, 64, 127
2, 68755, Note_off_c, 0, 51, 52
2, 68764, Note_off_c, 0, 48, 50
2, 68783, Note_off_c, 0, 69, 57
2, 68788, Note_off_c, 0, 57, 54
2, 68804, Note_off_c, 0, 41, 48
2, 68814, Note_on_c, 0, 69, 70
2, 68820, Note_on_c, 0, 57, 50
2, 68821, Note_on_c, 0, 51, 60
2, 68823, Note_on_c, 0, 48, 53
2, 68877, Note_off_c, 0, 69, 57
2, 68886, Note_off_c, 0, 57, 52
2, 68890, Note_off_c, 0, 48, 53
2, 68896, Note_off_c, 0, 51, 55
2, 68955, Note_on_c, 0, 69, 72
2, 68966, Note_on_c, 0, 41, 60
2, 68967, Note_on_c, 0, 57, 52
2, 68979, Control_c, 0, 64, 0
2, 69068, Control_c, 0, 64, 127
2, 69082, Note_on_c, 0, 67, 74
2, 69086, Note_off_c, 0, 69, 58
2, 69088, Note_off_c, 0, 57, 53
2, 69089, Note_on_c, 0, 50, 65
2, 69090, Note_on_c, 0, 55, 55
2, 69092, Note_on_c, 0, 46, 60
2, 69146, Note_off_c, 0, 50, 56
2, 69162, Note_off_c, 0, 46, 55
2, 69187, Note_off_c, 0, 67, 59
2, 69196, Note_off_c, 0, 55, 53
2, 69211, Note_off_c, 0, 41, 55
2, 69219, Note_on_c, 0, 67, 76
2, 69225, Note_on_c, 0, 55, 60
2, 69229, Note_on_c, 0, 50, 66
2, 69230, Note_on_c, 0, 46, 55
2, 69280, Note_off_c, 0, 67, 59
2, 69286, Note_off_c, 0, 46, 53
2, 69290, Note_off_c, 0, 55, 55
2, 69296, Note_off_c, 0, 50, 56
2, 69346, Note_on_c, 0, 67, 78
2, 69353, Note_on_c, 0, 55, 70
2, 69356, Note_on_c, 0, 41, 68
2, 69360, Control_c, 0, 64, 0
2, 69451, Control_c, 0, 64, 127
2, 69487, Note_on_c, 0, 65, 80
2, 69490, Note_off_c, 0, 55, 57
2, 69492, Note_on_c, 0, 53, 62
2, 69493, Note_on_c, 0, 45, 58
2, 69495, Note_on_c, 0, 48, 69
2, 69498, Note_off_c, 0, 67, 59
2, 69548, Note_off_c, 0, 48, 57
2, 69566, Note_off_c, 0, 45, 54
2, 69578, Note_off_c, 0, 65, 60
2, 69584, Note_off_c, 0, 53, 55
2, 69599, Note_off_c, 0, 41, 57
2, 69607, Note_on_c, 0, 65, 82
2, 69615, Note_on_c, 0, 48, 70
2, 69617, Note_on_c, 0, 53, 62
2, 69620, Note_on_c, 0, 45, 60
2, 69686, Note_off_c, 0, 45, 55
2, 69687, Note_off_c, 0, 65, 60
2, 69691, Note_off_c, 0, 48, 57
2, 69693, Note_off_c, 0, 53, 55
2, 69706, Control_c, 0, 64, 0
2, 69750, Note_on_c, 0, 65, 84
2, 69758, Note_on_c, 0, 53, 72
2, 69759, Note_on_c, 0, 42, 68
2, 69761, Note_on_c, 0, 36, 65
2, 69762, Note_on_c, 0, 30, 70
2, 69844, Note_off_c, 0, 53, 58
2, 69848, Note_off_c, 0, 36, 56
2, 69849, Note_off_c, 0, 42, 57
2, 69850, Note_off_c, 0, 30, 57
2, 69872, Note_off_c, 0, 65, 61
2, 69878, Note_on_c, 0, 63, 84
2, 69880, Note_on_c, 0, 51, 69
2, 69882, Note_on_c, 0, 60, 72
2, 69883, Note_on_c, 0, 57, 65
2, 69884, Note_on_c, 0, 30, 60
2, 69886, Note_on_c, 0, 36, 65
2, 69887, Note_on_c, 0, 42, 72
2, 69961, Note_off_c, 0, 42, 58
2, 69963, Note_off_c, 0, 30, 55
2, 69965, Note_off_c, 0, 63, 61
2, 69967, Note_off_c, 0, 57, 56
2, 69972, Note_off_c, 0, 51, 57
2, 69974, Note_off_c, 0, 36, 56
2, 69976, Note_off_c, 0, 60, 58
2, 70019, Note_on_c, 0, 60, 71
2, 70021, Note_on_c, 0, 51, 65
2, 70023, Note_on_c, 0, 63, 83
2, 70024, Note_on_c, 0, 57, 68
2, 70025, Note_on_c, 0, 30, 58
2, 70026, Note_on_c, 0, 36, 60
2, 70027, Note_on_c, 0, 42, 71
2, 70089, Note_off_c, 0, 57, 57
2, 70093, Note_off_c, 0, 30, 54
2, 70096, Note_off_c, 0, 51, 56
2, 70101, Note_off_c, 0, 63, 60
2, 70103, Note_off_c, 0, 60, 58
2, 70106, Note_off_c, 0, 42, 58
2, 70111, Note_off_c, 0, 36, 55
2, 70142, Note_on_c, 0, 63, 82
2, 70143, Note_on_c, 0, 60, 70
2, 70145, Note_on_c, 0, 51, 60
2, 70146, Note_on_c, 0, 57, 65
2, 70148, Note_on_c, 0, 36, 60
2, 70149, Note_on_c, 0, 42, 70
2, 70150, Note_on_c, 0, 30, 55
2, 70226, Note_off_c, 0, 42, 57
2, 70229, Note_off_c, 0, 63, 60
2, 70231, Note_off_c, 0, 57, 56
2, 70233, Note_off_c, 0, 36, 55
2, 70235, Note_off_c, 0, 51, 55
2, 70236, Note_off_c, 0, 60, 57
2, 70251, Note_off_c, 0, 30, 53
2, 70282, Note_on_c, 0, 63, 81
2, 70284, Note_on_c, 0, 57, 69
2, 70286, Note_on_c, 0, 60, 70
2, 70288, Note_on_c, 0, 51, 65
2, 70289, Note_on_c, 0, 36, 69
2, 70290, Note_on_c, 0, 42, 62
2, 70292, Note_on_c, 0, 30, 65
2, 70358, Note_off_c, 0, 42, 55
2, 70360, Note_off_c, 0, 36, 57
2, 70367, Note_off_c, 0, 57, 57
2, 70371, Note_off_c, 0, 63, 60
2, 70372, Note_off_c, 0, 51, 56
2, 70373, Note_off_c, 0, 60, 57
2, 70376, Note_off_c, 0, 30, 56
2, 70410, Note_on_c, 0, 60, 65
2, 70411, Note_on_c, 0, 63, 80
2, 70412, Note_on_c, 0, 57, 60
2, 70414, Note_on_c, 0, 42, 64
2, 70415, Note_on_c, 0, 36, 60
2, 70417, Note_on_c, 0, 51, 68
2, 70418, Note_on_c, 0, 30, 61
2, 70491, Note_off_c, 0, 60, 56
2, 70494, Note_off_c, 0, 30, 55
2, 70497, Note_off_c, 0, 42, 56
2, 70500, Note_off_c, 0, 36, 55
2, 70500, Note_off_c, 0, 57, 55
2, 70505, Note_off_c, 0, 51, 57
2, 70507, Note_off_c, 0, 63, 60
2, 70548, Note_on_c, 0, 60, 67
2, 70550, Note_on_c, 0, 42, 50
2, 70551, Note_on_c, 0, 63, 79
2, 70552, Note_on_c, 0, 51, 55
2, 70554, Note_on_c, 0, 57, 60
2, 70555, Note_on_c, 0, 36, 58
2, 70556, Note_on_c, 0, 30, 62
2, 70617, Note_off_c, 0, 63, 60
2, 70621, Note_off_c, 0, 36, 54
2, 70622, Note_off_c, 0, 42, 52
2, 70624, Note_off_c, 0, 60, 57
2, 70627, Note_off_c, 0, 57, 55
2, 70635, Note_off_c, 0, 51, 53
2, 70643, Note_off_c, 0, 30, 55
2, 70673, Note_on_c, 0, 63, 78
2, 70675, Note_on_c, 0, 51, 55
2, 70676, Note_on_c, 0, 60, 66
2, 70677, Note_on_c, 0, 57, 60
2, 70678, Note_on_c, 0, 30, 66
2, 70680, Note_on_c, 0, 42, 50
2, 70681, Note_on_c, 0, 36, 60
2, 70752, Note_off_c, 0, 51, 53
2, 70765, Note_off_c, 0, 57, 55
2, 70765, Note_off_c, 0, 36, 55
2, 70767, Note_off_c, 0, 30, 56
2, 70768, Note_off_c, 0, 63, 59
2, 70771, Note_off_c, 0, 60, 56
2, 70772, Note_off_c, 0, 42, 52
2, 70814, Note_on_c, 0, 63, 77
2, 70815, Note_on_c, 0, 60, 60
2, 70816, Note_on_c, 0, 51, 60
2, 70818, Note_on_c, 0, 30, 65
2, 70819, Note_on_c, 0, 57, 65
2, 70820, Note_on_c, 0, 36, 50
2, 70821, Note_on_c, 0, 42, 55
2, 70893, Note_off_c, 0, 51, 55
2, 70894, Note_off_c, 0, 36, 52
2, 70897, Note_off_c, 0, 30, 56
2, 70899, Note_off_c, 0, 57, 56
2, 70901, Note_off_c, 0, 60, 55
2, 70905, Note_off_c, 0, 63, 59
2, 70916, Note_off_c, 0, 42, 53
2, 70954, Note_on_c, 0, 63, 76
2, 70956, Note_on_c, 0, 57, 54
2, 70958, Note_on_c, 0, 60, 56
2, 70960, Note_on_c, 0, 51, 64
2, 70961, Note_on_c, 0, 36, 54
2, 70962, Note_on_c, 0, 42, 60
2, 70963, Note_on_c, 0, 30, 62
2, 71031, Note_off_c, 0, 63, 59
2, 71034, Note_off_c, 0, 60, 54
2, 71036, Note_off_c, 0, 57, 53
2, 71039, Note_off_c, 0, 36, 53
2, 71040, Note_off_c, 0, 51, 56
2, 71043, Note_off_c, 0, 30, 55
2, 71044, Note_off_c, 0, 42, 55
2, 71096, Note_on_c, 0, 63, 75
2, 71097, Note_on_c, 0, 60, 60
2, 71099, Note_on_c, 0, 51, 60
2, 71100, Note_on_c, 0, 57, 63
2, 71101, Note_on_c, 0, 42, 55
2, 71102, Note_on_c, 0, 36, 50
2, 71104, Note_on_c, 0, 30, 62
2, 71170, Note_off_c, 0, 57, 55
2, 71172, Note_off_c, 0, 42, 53
2, 71172, Note_off_c, 0, 30, 55
2, 71179, Note_off_c, 0, 51, 55
2, 71182, Note_off_c, 0, 60, 55
2, 71186, Note_off_c, 0, 36, 52
2, 71190, Note_off_c, 0, 63, 59
2, 71238, Note_on_c, 0, 63, 74
2, 71239, Note_on_c, 0, 60, 60
2, 71241, Note_on_c, 0, 51, 58
2, 71242, Note_on_c, 0, 57, 62
2, 71243, Note_on_c, 0, 30, 62
2, 71245, Note_on_c, 0, 36, 60
2, 71246, Note_on_c, 0, 42, 55
2, 71306, Note_off_c, 0, 57, 55
2, 71311, Note_off_c, 0, 51, 54
2, 71315, Note_off_c, 0, 36, 55
2, 71316, Note_off_c, 0, 42, 53
2, 71323, Note_off_c, 0, 30, 55
2, 71331, Note_off_c, 0, 60, 55
2, 71333, Note_off_c, 0, 63, 59
2, 71423, Note_on_c, 0, 64, 72
2, 71425, Note_on_c, 0, 43, 60
2, 71426, Note_on_c, 0, 52, 50
2, 71427, Note_on_c, 0, 55, 55
2, 71428, Note_on_c, 0, 31, 45
2, 71430, Note_on_c, 0, 60, 60
2, 71431, Note_on_c, 0, 36, 48
2, 71488, Control_c, 0, 64, 127
2, 71638, Note_off_c, 0, 64, 58
2, 71639, Note_off_c, 0, 36, 52
2, 71641, Note_off_c, 0, 31, 51
2, 71646, Note_off_c, 0, 55, 53
2, 71660, Note_off_c, 0, 60, 55
2, 71665, Note_off_c, 0, 43, 55
2, 71696, Note_off_c, 0, 52, 52
2, 71726, Control_c, 0, 64, 0
2, 71973, Note_on_c, 0, 55, 35
2, 71975, Note_on_c, 0, 60, 48
2, 71976, Note_on_c, 0, 52, 30
2, 71978, Note_on_c, 0, 43, 38
2, 72097, Control_c, 0, 64, 127
2, 72369, Control_c, 0, 64, 0
2, 72406, Note_off_c, 0, 60, 52
2, 72408, Note_off_c, 0, 52, 47
2, 72409, Note_on_c, 0, 59, 48
2, 72410, Note_on_c, 0, 53, 36
2, 72510, Control_c, 0, 64, 127
2, 72840, Note_off_c, 0, 59, 52
2, 72841, Note_off_c, 0, 53, 49
2, 72843, Note_on_c, 0, 65, 48
2, 72845, Note_on_c, 0, 47, 40
2, 72864, Control_c, 0, 64, 0
2, 73007, Control_c, 0, 64, 127
2, 73033, Note_off_c, 0, 43, 49
2, 73284, Note_off_c, 0, 65, 52
2, 73288, Note_off_c, 0, 47, 50
2, 73300, Note_on_c, 0, 64, 48
2, 73301, Note_on_c, 0, 48, 35
2, 73303, Note_on_c, 0, 43, 40
2, 73304, Control_c, 0, 64, 0
2, 73449, Control_c, 0, 64, 127
2, 73629, Note_off_c, 0, 64, 52
2, 73632, Note_off_c, 0, 55, 48
2, 73633, Note_off_c, 0, 48, 48
2, 73741, Note_on_c, 0, 67, 48
2, 73748, Note_on_c, 0, 55, 30
2, 73749, Note_on_c, 0, 60, 36
2, 73752, Note_on_c, 0, 52, 25
2, 73768, Control_c, 0, 64, 0
2, 73909, Control_c, 0, 64, 127
2, 73966, Note_off_c, 0, 43, 50
2, 74091, Note_off_c, 0, 60, 49
2, 74104, Note_off_c, 0, 52, 46
2, 74198, Note_on_c, 0, 59, 48
2, 74200, Note_on_c, 0, 53, 35
2, 74201, Control_c, 0, 64, 0
2, 74342, Control_c, 0, 64, 127
2, 74532, Note_off_c, 0, 59, 52
2, 74538, Note_off_c, 0, 53, 48
2, 74632, Note_on_c, 0, 65, 42
2, 74634, Note_on_c, 0, 47, 40
2, 74694, Control_c, 0, 64, 0
2, 74835, Control_c, 0, 64, 127
2, 74842, Note_off_c, 0, 55, 47
2, 74933, Note_off_c, 0, 65, 50
2, 74949, Note_off_c, 0, 47, 50
2, 75080, Note_on_c, 0, 64, 25
2, 75083, Note_on_c, 0, 55, 20
2, 75084, Note_on_c, 0, 48, 36
2, 75086, Note_on_c, 0, 43, 38
2, 75128, Control_c, 0, 64, 0
2, 75274, Control_c, 0, 64, 127
2, 75291, Note_off_c, 0, 67, 52
2, 75293, Note_off_c, 0, 64, 46
2, 75296, Note_off_c, 0, 48, 49
2, 75297, Note_off_c, 0, 55, 45
2, 75497, Note_on_c, 0, 78, 51
2, 75504, Note_on_c, 0, 66, 40
2, 75508, Note_on_c, 0, 48, 44
2, 75528, Control_c, 0, 64, 0
2, 75650, Note_off_c, 0, 66, 50
2, 75659, Note_on_c, 0, 79, 61
2, 75667, Note_on_c, 0, 67, 50
2, 75669, Control_c, 0, 64, 127
2, 75687, Note_off_c, 0, 78, 52
2, 75806, Note_off_c, 0, 67, 52
2, 75808, Note_on_c, 0, 81, 66
2, 75816, Note_on_c, 0, 69, 55
2, 75824, Note_off_c, 0, 79, 55
2, 75955, Note_off_c, 0, 81, 56
2, 75957, Note_off_c, 0, 69, 53
2, 75957, Note_on_c, 0, 79, 66
2, 75960, Note_off_c, 0, 48, 51
2, 75962, Note_on_c, 0, 67, 55
2, 75964, Note_on_c, 0, 47, 45
2, 75966, Control_c, 0, 64, 0
2, 76095, Note_off_c, 0, 67, 53
2, 76103, Note_on_c, 0, 77, 66
2, 76106, Control_c, 0, 64, 127
2, 76110, Note_on_c, 0, 65, 55
2, 76128, Note_off_c, 0, 79, 56
2, 76249, Note_off_c, 0, 65, 53
2, 76252, Note_on_c, 0, 76, 66
2, 76258, Note_on_c, 0, 64, 55
2, 76267, Note_off_c, 0, 77, 56
2, 76400, Note_on_c, 0, 74, 63
2, 76402, Note_off_c, 0, 64, 53
2, 76405, Note_off_c, 0, 47, 51
2, 76407, Note_on_c, 0, 62, 52
2, 76408, Note_on_c, 0, 53, 60
2, 76420, Note_off_c, 0, 76, 56
2, 76432, Control_c, 0, 64, 0
2, 76543, Note_off_c, 0, 62, 53
2, 76546, Note_off_c, 0, 74, 55
2, 76547, Note_on_c, 0, 72, 60
2, 76552, Note_on_c, 0, 60, 49
2, 76570, Control_c, 0, 64, 127
2, 76647, Note_off_c, 0, 43, 49
2, 76687, Note_off_c, 0, 60, 52
2, 76690, Note_on_c, 0, 71, 57
2, 76696, Note_on_c, 0, 59, 46
2, 76710, Note_off_c, 0, 72, 55
2, 76724, Note_off_c, 0, 53, 55
2, 76768, Note_off_c, 0, 71, 54
2, 76770, Note_off_c, 0, 59, 51
2, 76828, Note_on_c, 0, 72, 54
2, 76839, Note_on_c, 0, 52, 36
2, 76839, Note_on_c, 0, 43, 45
2, 76844, Note_on_c, 0, 60, 43
2, 76850, Control_c, 0, 64, 0
2, 76970, Note_off_c, 0, 60, 50
2, 76974, Note_on_c, 0, 74, 54
2, 76985, Control_c, 0, 64, 127
2, 76991, Note_on_c, 0, 62, 43
2, 76992, Note_off_c, 0, 72, 53
2, 77120, Note_off_c, 0, 62, 50
2, 77122, Note_on_c, 0, 76, 58
2, 77133, Note_on_c, 0, 64, 47
2, 77135, Note_off_c, 0, 74, 53
2, 77264, Note_off_c, 0, 64, 51
2, 77266, Note_on_c, 0, 78, 62
2, 77272, Note_off_c, 0, 52, 49
2, 77275, Note_on_c, 0, 48, 38
2, 77280, Note_on_c, 0, 66, 51
2, 77282, Note_off_c, 0, 76, 54
2, 77311, Control_c, 0, 64, 0
2, 77409, Note_on_c, 0, 79, 66
2, 77413, Note_off_c, 0, 66, 52
2, 77424, Note_on_c, 0, 67, 55
2, 77435, Note_off_c, 0, 78, 55
2, 77448, Control_c, 0, 64, 127
2, 77545, Note_off_c, 0, 67, 53
2, 77554, Note_on_c, 0, 81, 66
2, 77568, Note_off_c, 0, 79, 56
2, 77570, Note_on_c, 0, 69, 55
2, 77706, Note_off_c, 0, 69, 53
2, 77716, Note_on_c, 0, 79, 66
2, 77725, Note_off_c, 0, 48, 49
2, 77727, Note_on_c, 0, 46, 44
2, 77733, Note_on_c, 0, 67, 55
2, 77742, Note_off_c, 0, 81, 56
2, 77752, Control_c, 0, 64, 0
2, 77854, Note_off_c, 0, 67, 53
2, 77864, Note_off_c, 0, 79, 56
2, 77866, Note_on_c, 0, 77, 64
2, 77879, Note_on_c, 0, 65, 53
2, 77892, Control_c, 0, 64, 127
2, 78007, Note_off_c, 0, 65, 53
2, 78012, Note_on_c, 0, 76, 62
2, 78018, Note_off_c, 0, 77, 56
2, 78027, Note_on_c, 0, 64, 51
2, 78133, Note_off_c, 0, 64, 52
2, 78144, Note_on_c, 0, 74, 59
2, 78151, Note_off_c, 0, 76, 55
2, 78153, Note_off_c, 0, 46, 51
2, 78155, Note_on_c, 0, 53, 48
2, 78159, Note_on_c, 0, 62, 48
2, 78213, Control_c, 0, 64, 0
2, 78297, Note_off_c, 0, 62, 52
2, 78308, Note_off_c, 0, 74, 54
2, 78310, Note_on_c, 0, 72, 57
2, 78322, Note_on_c, 0, 60, 46
2, 78353, Control_c, 0, 64, 127
2, 78456, Note_on_c, 0, 71, 54
2, 78462, Note_off_c, 0, 60, 51
2, 78464, Note_off_c, 0, 72, 54
2, 78473, Note_on_c, 0, 59, 43
2, 78494, Note_off_c, 0, 53, 52
2, 78570, Note_off_c, 0, 59, 50
2, 78586, Note_off_c, 0, 71, 53
2, 78612, Note_off_c, 0, 43, 51
2, 78666, Note_on_c, 0, 72, 66
2, 78674, Note_on_c, 0, 52, 60
2, 78675, Note_on_c, 0, 48, 51
2, 78681, Note_on_c, 0, 60, 55
2, 78684, Control_c, 0, 64, 0
2, 78820, Control_c, 0, 64, 127
2, 79105, Note_off_c, 0, 52, 55
2, 79107, Note_off_c, 0, 48, 52
2, 79109, Note_on_c, 0, 55, 52
2, 79111, Note_on_c, 0, 46, 45
2, 79117, Control_c, 0, 64, 0
2, 79247, Note_on_c, 0, 74, 64
2, 79249, Note_off_c, 0, 60, 53
2, 79252, Control_c, 0, 64, 127
2, 79260, Note_on_c, 0, 62, 53
2, 79356, Note_off_c, 0, 72, 56
2, 79394, Note_on_c, 0, 76, 67
2, 79398, Note_off_c, 0, 62, 53
2, 79401, Note_off_c, 0, 74, 56
2, 79406, Note_on_c, 0, 64, 56
2, 79512, Note_off_c, 0, 76, 57
2, 79516, Note_off_c, 0, 64, 54
2, 79556, Note_on_c, 0, 77, 70
2, 79561, Note_off_c, 0, 55, 53
2, 79563, Note_off_c, 0, 46, 51
2, 79565, Note_on_c, 0, 53, 62
2, 79567, Note_on_c, 0, 45, 57
2, 79572, Note_on_c, 0, 65, 59
2, 79585, Control_c, 0, 64, 0
2, 79723, Control_c, 0, 64, 127
2, 79827, Note_off_c, 0, 65, 54
2, 79853, Note_on_c, 0, 75, 75
2, 79866, Note_on_c, 0, 63, 64
2, 79893, Note_off_c, 0, 77, 57
2, 79973, Note_off_c, 0, 63, 56
2, 79984, Note_on_c, 0, 74, 78
2, 79991, Note_off_c, 0, 45, 54
2, 79993, Note_on_c, 0, 58, 60
2, 79994, Note_on_c, 0, 46, 52
2, 79999, Note_on_c, 0, 62, 67
2, 80001, Note_off_c, 0, 75, 59
2, 80037, Control_c, 0, 64, 0
2, 80065, Note_off_c, 0, 62, 57
2, 80069, Note_off_c, 0, 74, 59
2, 80178, Control_c, 0, 64, 127
2, 80220, Note_off_c, 0, 58, 55
2, 80222, Note_off_c, 0, 53, 55
2, 80224, Note_off_c, 0, 46, 53
2, 80279, Note_on_c, 0, 75, 78
2, 80292, Note_on_c, 0, 63, 67
2, 80380, Note_off_c, 0, 75, 59
2, 80384, Note_off_c, 0, 63, 57
2, 80422, Note_on_c, 0, 74, 80
2, 80432, Note_on_c, 0, 54, 60
2, 80433, Note_on_c, 0, 42, 54
2, 80435, Note_on_c, 0, 50, 50
2, 80437, Note_on_c, 0, 62, 69
2, 80444, Control_c, 0, 64, 0
2, 80582, Control_c, 0, 64, 127
2, 80705, Note_off_c, 0, 62, 57
2, 80708, Note_on_c, 0, 72, 60
2, 80709, Note_on_c, 0, 60, 45
2, 80728, Note_off_c, 0, 74, 60
2, 80856, Note_off_c, 0, 54, 55
2, 80857, Note_off_c, 0, 72, 55
2, 80858, Note_off_c, 0, 60, 51
2, 80860, Note_off_c, 0, 42, 53
2, 80862, Note_on_c, 0, 70, 68
2, 80863, Note_on_c, 0, 55, 56
2, 80864, Note_on_c, 0, 43, 56
2, 80865, Control_c, 0, 64, 0
2, 80868, Note_on_c, 0, 58, 57
2, 80937, Note_off_c, 0, 70, 57
2, 80946, Note_off_c, 0, 58, 54
2, 81071, Note_off_c, 0, 55, 54
2, 81073, Note_off_c, 0, 43, 54
2, 81152, Note_on_c, 0, 74, 54
2, 81159, Note_on_c, 0, 62, 43
2, 81249, Note_off_c, 0, 74, 53
2, 81255, Note_off_c, 0, 62, 50
2, 81281, Note_off_c, 0, 50, 52
2, 81284, Note_on_c, 0, 72, 76
2, 81286, Note_on_c, 0, 51, 52
2, 81289, Note_on_c, 0, 60, 65
2, 81292, Note_on_c, 0, 39, 45
2, 81316, Control_c, 0, 64, 127
2, 81423, Note_off_c, 0, 72, 59
2, 81433, Note_off_c, 0, 60, 56
2, 81498, Control_c, 0, 64, 0
2, 81572, Note_off_c, 0, 51, 53
2, 81573, Note_on_c, 0, 70, 66
2, 81578, Note_off_c, 0, 39, 51
2, 81582, Note_on_c, 0, 58, 55
2, 81654, Note_off_c, 0, 70, 56
2, 81662, Note_off_c, 0, 58, 53
2, 81720, Note_on_c, 0, 69, 73
2, 81723, Note_on_c, 0, 53, 48
2, 81727, Note_on_c, 0, 57, 62
2, 81729, Note_on_c, 0, 41, 41
2, 81802, Note_off_c, 0, 69, 58
2, 81804, Note_off_c, 0, 53, 52
2, 81808, Note_off_c, 0, 57, 55
2, 81811, Note_off_c, 0, 41, 50
2, 82016, Note_on_c, 0, 72, 57
2, 82022, Note_on_c, 0, 60, 46
2, 82079, Note_off_c, 0, 72, 54
2, 82087, Note_off_c, 0, 60, 51
2, 82143, Note_on_c, 0, 70, 78
2, 82146, Note_on_c, 0, 46, 72
2, 82149, Note_on_c, 0, 58, 43
2, 82153, Note_on_c, 0, 34, 41
2, 82222, Note_off_c, 0, 70, 59
2, 82225, Note_off_c, 0, 46, 58
2, 82230, Note_off_c, 0, 58, 50
2, 82233, Note_off_c, 0, 34, 50
2, 82287, Note_on_c, 0, 70, 54
2, 82289, Note_on_c, 0, 46, 48
2, 82368, Note_off_c, 0, 70, 53
2, 82370, Note_off_c, 0, 46, 52
2, 82432, Note_on_c, 0, 70, 54
2, 82434, Note_on_c, 0, 46, 49
2, 82497, Note_off_c, 0, 70, 53
2, 82498, Note_off_c, 0, 46, 52
2, 82578, Note_on_c, 0, 70, 55
2, 82579, Note_on_c, 0, 46, 49
2, 82726, Note_on_c, 0, 69, 55
2, 82727, Note_on_c, 0, 45, 50
2, 82742, Note_off_c, 0, 70, 53
2, 82742, Note_off_c, 0, 46, 52
2, 82870, Note_on_c, 0, 70, 56
2, 82872, Note_on_c, 0, 46, 50
2, 82886, Note_off_c, 0, 69, 53
2, 82887, Note_off_c, 0, 45, 52
2, 82967, Note_off_c, 0, 70, 54
2, 82969, Note_off_c, 0, 46, 52
2, 83014, Note_on_c, 0, 74, 80
2, 83017, Note_on_c, 0, 50, 75
2, 83024, Note_on_c, 0, 62, 45
2, 83026, Note_on_c, 0, 38, 44
2, 83080, Note_off_c, 0, 74, 60
2, 83083, Note_off_c, 0, 50, 59
2, 83087, Note_off_c, 0, 62, 51
2, 83090, Note_off_c, 0, 38, 51
2, 83143, Note_on_c, 0, 74, 57
2, 83145, Note_on_c, 0, 50, 51
2, 83223, Note_off_c, 0, 74, 54
2, 83225, Note_off_c, 0, 50, 52
2, 83289, Note_on_c, 0, 74, 57
2, 83290, Note_on_c, 0, 50, 52
2, 83369, Note_off_c, 0, 74, 54
2, 83371, Note_off_c, 0, 50, 53
2, 83434, Note_on_c, 0, 74, 58
2, 83435, Note_on_c, 0, 50, 52
2, 83582, Note_on_c, 0, 73, 58
2, 83584, Note_on_c, 0, 49, 53
2, 83602, Note_off_c, 0, 74, 54
2, 83605, Note_off_c, 0, 50, 53
2, 83727, Note_on_c, 0, 74, 59
2, 83729, Note_on_c, 0, 50, 53
2, 83752, Note_off_c, 0, 73, 54
2, 83752, Note_off_c, 0, 49, 53
2, 83840, Note_off_c, 0, 74, 54
2, 83841, Note_off_c, 0, 50, 53
2, 83866, Note_on_c, 0, 77, 83
2, 83875, Note_on_c, 0, 53, 72
2, 83876, Note_on_c, 0, 41, 54
2, 83879, Note_on_c, 0, 65, 47
2, 83929, Note_off_c, 0, 77, 60
2, 83938, Note_off_c, 0, 53, 58
2, 83941, Note_off_c, 0, 41, 53
2, 83945, Note_off_c, 0, 65, 51
2, 84010, Note_on_c, 0, 77, 60
2, 84017, Note_on_c, 0, 53, 48
2, 84074, Note_off_c, 0, 77, 55
2, 84082, Note_off_c, 0, 53, 52
2, 84154, Note_on_c, 0, 77, 60
2, 84164, Note_on_c, 0, 53, 49
2, 84220, Note_off_c, 0, 77, 55
2, 84227, Note_off_c, 0, 53, 52
2, 84283, Note_on_c, 0, 77, 61
2, 84291, Note_on_c, 0, 53, 49
2, 84430, Note_on_c, 0, 76, 61
2, 84439, Note_on_c, 0, 52, 50
2, 84451, Note_off_c, 0, 77, 55
2, 84457, Note_off_c, 0, 53, 52
2, 84577, Note_on_c, 0, 77, 62
2, 84585, Note_on_c, 0, 53, 50
2, 84597, Note_off_c, 0, 76, 55
2, 84605, Note_off_c, 0, 52, 52
2, 84691, Note_off_c, 0, 77, 55
2, 84698, Note_off_c, 0, 53, 52
2, 84723, Note_on_c, 0, 82, 86
2, 84731, Note_on_c, 0, 58, 75
2, 84734, Note_on_c, 0, 46, 57
2, 84738, Note_on_c, 0, 70, 50
2, 84804, Note_off_c, 0, 82, 61
2, 84812, Note_off_c, 0, 58, 59
2, 84814, Note_off_c, 0, 46, 54
2, 84817, Note_off_c, 0, 70, 52
2, 84869, Note_on_c, 0, 82, 63
2, 84875, Note_on_c, 0, 58, 51
2, 84931, Note_off_c, 0, 82, 55
2, 84938, Note_off_c, 0, 58, 52
2, 85012, Note_on_c, 0, 82, 63
2, 85019, Note_on_c, 0, 58, 52
2, 85078, Note_off_c, 0, 82, 55
2, 85085, Note_off_c, 0, 58, 53
2, 85157, Note_on_c, 0, 82, 64
2, 85163, Note_on_c, 0, 58, 52
2, 85302, Note_off_c, 0, 82, 56
2, 85305, Note_on_c, 0, 81, 64
2, 85310, Note_off_c, 0, 58, 53
2, 85314, Note_on_c, 0, 57, 53
2, 85450, Note_off_c, 0, 81, 56
2, 85452, Note_on_c, 0, 82, 65
2, 85456, Note_off_c, 0, 57, 53
2, 85459, Note_on_c, 0, 58, 53
2, 85550, Note_off_c, 0, 82, 56
2, 85555, Note_off_c, 0, 58, 53
2, 85659, Note_on_c, 0, 55, 47
2, 85661, Note_on_c, 0, 58, 52
2, 85667, Note_on_c, 0, 70, 60
2, 85691, Control_c, 0, 64, 127
2, 85749, Note_on_c, 0, 72, 60
2, 85756, Note_off_c, 0, 70, 55
2, 85814, Note_on_c, 0, 70, 62
2, 85821, Note_off_c, 0, 72, 55
2, 85897, Note_on_c, 0, 69, 64
2, 85921, Note_off_c, 0, 70, 55
2, 85962, Note_on_c, 0, 70, 66
2, 85984, Note_off_c, 0, 69, 56
2, 86043, Note_on_c, 0, 69, 68
2, 86056, Note_off_c, 0, 70, 56
2, 86093, Control_c, 0, 64, 70
2, 86111, Note_on_c, 0, 70, 70
2, 86124, Note_off_c, 0, 69, 57
2, 86194, Note_on_c, 0, 71, 73
2, 86213, Note_off_c, 0, 70, 57
2, 86254, Control_c, 0, 64, 127
2, 86258, Note_off_c, 0, 55, 51
2, 86260, Note_on_c, 0, 72, 75
2, 86276, Note_off_c, 0, 71, 58
2, 86343, Note_on_c, 0, 73, 77
2, 86351, Note_off_c, 0, 72, 59
2, 86356, Note_off_c, 0, 58, 53
2, 86409, Note_on_c, 0, 74, 79
2, 86423, Note_off_c, 0, 73, 59
2, 86491, Note_on_c, 0, 75, 81
2, 86506, Note_off_c, 0, 74, 60
2, 86568, Note_on_c, 0, 54, 57
2, 86574, Note_on_c, 0, 76, 84
2, 86577, Note_on_c, 0, 58, 60
2, 86582, Note_on_c, 0, 61, 70
2, 86585, Note_on_c, 0, 64, 72
2, 86589, Note_off_c, 0, 75, 60
2, 86604, Note_on_c, 0, 77, 84
2, 86611, Note_off_c, 0, 76, 61
2, 86623, Control_c, 0, 64, 70
2, 86653, Note_on_c, 0, 78, 84
2, 86662, Note_off_c, 0, 77, 61
2, 86685, Note_on_c, 0, 79, 85
2, 86699, Note_off_c, 0, 78, 61
2, 86732, Note_on_c, 0, 80, 86
2, 86742, Note_off_c, 0, 79, 61
2, 86767, Note_on_c, 0, 81, 86
2, 86774, Note_off_c, 0, 80, 61
2, 86816, Note_on_c, 0, 82, 87
2, 86818, Note_off_c, 0, 81, 61
2, 86819, Control_c, 0, 64, 127
2, 86861, Note_on_c, 0, 83, 88
2, 86880, Note_off_c, 0, 82, 61
2, 86928, Note_on_c, 0, 84, 89
2, 86938, Note_off_c, 0, 83, 62
2, 87010, Note_on_c, 0, 85, 90
2, 87019, Note_off_c, 0, 84, 62
2, 87072, Note_on_c, 0, 86, 92
2, 87091, Note_off_c, 0, 85, 62
2, 87151, Note_on_c, 0, 87, 93
2, 87166, Note_off_c, 0, 54, 54
2, 87173, Note_off_c, 0, 86, 62
2, 87180, Note_off_c, 0, 58, 55
2, 87191, Note_off_c, 0, 61, 57
2, 87216, Note_on_c, 0, 88, 94
2, 87227, Note_off_c, 0, 87, 63
2, 87251, Note_off_c, 0, 64, 58
2, 87291, Note_off_c, 0, 88, 63
2, 87293, Note_on_c, 0, 65, 80
2, 87294, Note_on_c, 0, 89, 96
2, 87296, Note_on_c, 0, 62, 76
2, 87298, Note_on_c, 0, 53, 70
2, 87299, Note_on_c, 0, 58, 72
2, 87303, Control_c, 0, 64, 0
2, 87380, Note_off_c, 0, 53, 57
2, 87399, Note_off_c, 0, 58, 58
2, 87403, Note_off_c, 0, 65, 60
2, 87405, Note_off_c, 0, 62, 59
2, 87437, Note_on_c, 0, 53, 71
2, 87440, Control_c, 0, 64, 85
2, 87527, Note_off_c, 0, 53, 58
2, 87547, Note_off_c, 0, 89, 63
2, 87579, Note_on_c, 0, 53, 70
2, 87662, Note_off_c, 0, 53, 57
2, 87716, Note_on_c, 0, 86, 84
2, 87725, Note_on_c, 0, 82, 70
2, 87727, Note_on_c, 0, 74, 65
2, 87737, Control_c, 0, 64, 0
2, 87867, Note_on_c, 0, 53, 68
2, 87874, Control_c, 0, 64, 85
2, 87936, Note_off_c, 0, 53, 57
2, 87937, Note_off_c, 0, 82, 57
2, 87979, Note_off_c, 0, 74, 56
2, 87987, Note_off_c, 0, 86, 61
2, 88011, Note_on_c, 0, 53, 67
2, 88110, Note_off_c, 0, 53, 57
2, 88151, Note_on_c, 0, 87, 84
2, 88158, Note_on_c, 0, 84, 70
2, 88160, Note_on_c, 0, 75, 63
2, 88168, Control_c, 0, 64, 0
2, 88303, Note_on_c, 0, 41, 65
2, 88308, Control_c, 0, 64, 85
2, 88361, Note_off_c, 0, 75, 55
2, 88383, Note_off_c, 0, 84, 57
2, 88387, Note_off_c, 0, 41, 56
2, 88427, Note_off_c, 0, 87, 61
2, 88450, Note_on_c, 0, 41, 64
2, 88535, Note_off_c, 0, 41, 56
2, 88610, Note_on_c, 0, 81, 86
2, 88616, Note_on_c, 0, 75, 66
2, 88618, Note_on_c, 0, 72, 60
2, 88620, Note_on_c, 0, 69, 70
2, 88621, Control_c, 0, 64, 0
2, 88761, Control_c, 0, 64, 85
2, 88763, Note_on_c, 0, 41, 62
2, 88839, Note_off_c, 0, 69, 57
2, 88842, Note_off_c, 0, 75, 56
2, 88847, Note_off_c, 0, 72, 55
2, 88852, Note_off_c, 0, 41, 55
2, 88887, Note_off_c, 0, 81, 61
2, 88909, Note_on_c, 0, 41, 60
2, 89011, Note_off_c, 0, 41, 55
2, 89048, Control_c, 0, 64, 0
2, 89060, Note_on_c, 0, 58, 82
2, 89061, Note_on_c, 0, 34, 54
2, 89138, Note_off_c, 0, 58, 60
2, 89139, Note_off_c, 0, 34, 53
2, 89141, Note_on_c, 0, 70, 89
2, 89204, Note_off_c, 0, 70, 62
2, 89205, Note_on_c, 0, 58, 83
2, 89206, Note_on_c, 0, 46, 56
2, 89267, Note_off_c, 0, 58, 60
2, 89269, Note_off_c, 0, 46, 54
2, 89270, Note_on_c, 0, 70, 89
2, 89348, Note_off_c, 0, 70, 62
2, 89348, Note_on_c, 0, 58, 84
2, 89350, Note_on_c, 0, 46, 58
2, 89410, Note_off_c, 0, 58, 61
2, 89414, Note_off_c, 0, 46, 54
2, 89415, Note_on_c, 0, 70, 90
2, 89491, Note_off_c, 0, 70, 62
2, 89493, Note_on_c, 0, 58, 84
2, 89494, Note_on_c, 0, 46, 60
2, 89557, Note_off_c, 0, 58, 61
2, 89559, Note_on_c, 0, 70, 91
2, 89638, Note_off_c, 0, 70, 62
2, 89640, Note_on_c, 0, 57, 85
2, 89642, Note_on_c, 0, 45, 63
2, 89670, Note_off_c, 0, 46, 55
2, 89703, Note_off_c, 0, 57, 61
2, 89705, Note_on_c, 0, 69, 91
2, 89785, Note_off_c, 0, 69, 62
2, 89788, Note_on_c, 0, 58, 86
2, 89790, Note_on_c, 0, 46, 65
2, 89829, Note_off_c, 0, 45, 55
2, 89850, Note_off_c, 0, 58, 61
2, 89853, Note_on_c, 0, 70, 92
2, 89885, Note_off_c, 0, 46, 56
2, 89932, Note_off_c, 0, 70, 62
2, 89932, Note_on_c, 0, 62, 100
2, 89935, Note_on_c, 0, 38, 91
2, 89994, Note_off_c, 0, 62, 65
2, 89997, Note_off_c, 0, 38, 62
2, 89998, Note_on_c, 0, 74, 93
2, 90059, Note_off_c, 0, 74, 63
2, 90061, Note_on_c, 0, 62, 87
2, 90063, Note_on_c, 0, 50, 70
2, 90140, Note_off_c, 0, 62, 61
2, 90142, Note_off_c, 0, 50, 57
2, 90143, Note_on_c, 0, 74, 93
2, 90203, Note_off_c, 0, 74, 63
2, 90207, Note_on_c, 0, 62, 88
2, 90208, Note_on_c, 0, 50, 72
2, 90287, Note_off_c, 0, 62, 62
2, 90288, Note_off_c, 0, 50, 58
2, 90289, Note_on_c, 0, 74, 94
2, 90350, Note_off_c, 0, 74, 63
2, 90351, Note_on_c, 0, 62, 88
2, 90353, Note_on_c, 0, 50, 74
2, 90428, Note_off_c, 0, 62, 62
2, 90431, Note_on_c, 0, 74, 95
2, 90495, Note_off_c, 0, 74, 63
2, 90497, Note_on_c, 0, 49, 76
2, 90498, Note_on_c, 0, 61, 89
2, 90533, Note_off_c, 0, 50, 59
2, 90576, Note_off_c, 0, 61, 62
2, 90578, Note_on_c, 0, 73, 95
2, 90640, Note_off_c, 0, 73, 63
2, 90643, Note_on_c, 0, 62, 90
2, 90645, Note_on_c, 0, 50, 78
2, 90689, Note_off_c, 0, 49, 59
2, 90707, Note_off_c, 0, 62, 62
2, 90707, Note_on_c, 0, 74, 93
2, 90755, Note_off_c, 0, 50, 59
2, 90786, Note_off_c, 0, 74, 63
2, 90789, Note_on_c, 0, 41, 88
2, 90790, Note_on_c, 0, 65, 94
2, 90852, Note_off_c, 0, 65, 63
2, 90853, Note_on_c, 0, 77, 96
2, 90932, Note_off_c, 0, 41, 62
2, 90933, Note_off_c, 0, 77, 63
2, 90935, Note_on_c, 0, 65, 89
2, 90936, Note_on_c, 0, 53, 77
2, 90994, Note_off_c, 0, 65, 62
2, 90998, Note_off_c, 0, 53, 59
2, 90999, Note_on_c, 0, 77, 104
2, 91077, Note_off_c, 0, 77, 66
2, 91079, Note_on_c, 0, 65, 88
2, 91080, Note_on_c, 0, 53, 76
2, 91142, Note_off_c, 0, 65, 62
2, 91143, Note_off_c, 0, 53, 59
2, 91144, Note_on_c, 0, 77, 94
2, 91206, Note_off_c, 0, 77, 63
2, 91207, Note_on_c, 0, 65, 87
2, 91208, Note_on_c, 0, 53, 75
2, 91287, Note_off_c, 0, 65, 61
2, 91288, Note_on_c, 0, 77, 93
2, 91349, Note_off_c, 0, 77, 63
2, 91352, Note_on_c, 0, 64, 86
2, 91354, Note_on_c, 0, 52, 74
2, 91393, Note_off_c, 0, 53, 59
2, 91432, Note_off_c, 0, 64, 61
2, 91434, Note_on_c, 0, 76, 92
2, 91496, Note_off_c, 0, 76, 62
2, 91498, Note_on_c, 0, 65, 85
2, 91501, Note_on_c, 0, 53, 73
2, 91531, Note_off_c, 0, 52, 59
2, 91578, Note_off_c, 0, 65, 61
2, 91582, Note_on_c, 0, 77, 91
2, 91612, Note_off_c, 0, 53, 58
2, 91645, Note_off_c, 0, 77, 62
2, 91646, Note_on_c, 0, 70, 94
2, 91647, Note_on_c, 0, 46, 82
2, 91725, Note_off_c, 0, 70, 63
2, 91726, Note_off_c, 0, 46, 60
2, 91727, Note_on_c, 0, 82, 90
2, 91788, Note_off_c, 0, 82, 62
2, 91790, Note_on_c, 0, 70, 83
2, 91792, Note_on_c, 0, 58, 70
2, 91868, Note_off_c, 0, 70, 60
2, 91870, Note_off_c, 0, 58, 57
2, 91871, Note_on_c, 0, 82, 89
2, 91931, Note_off_c, 0, 82, 62
2, 91934, Note_on_c, 0, 70, 82
2, 91935, Note_on_c, 0, 58, 69
2, 91998, Note_off_c, 0, 70, 60
2, 91998, Note_off_c, 0, 58, 57
2, 92000, Note_on_c, 0, 82, 88
2, 92079, Note_off_c, 0, 82, 62
2, 92080, Note_on_c, 0, 70, 81
2, 92081, Note_on_c, 0, 58, 68
2, 92142, Note_off_c, 0, 70, 60
2, 92144, Note_on_c, 0, 82, 87
2, 92223, Note_off_c, 0, 82, 61
2, 92225, Note_on_c, 0, 57, 67
2, 92226, Note_on_c, 0, 69, 80
2, 92262, Note_off_c, 0, 58, 57
2, 92288, Note_off_c, 0, 69, 60
2, 92289, Note_on_c, 0, 81, 86
2, 92369, Note_off_c, 0, 81, 61
2, 92372, Note_on_c, 0, 70, 79
2, 92374, Note_on_c, 0, 58, 66
2, 92385, Note_off_c, 0, 57, 57
2, 92435, Note_off_c, 0, 70, 60
2, 92436, Note_on_c, 0, 82, 84
2, 92458, Control_c, 0, 64, 0
2, 92483, Note_off_c, 0, 58, 56
2, 92524, Note_off_c, 0, 82, 61
2, 92550, Note_on_c, 0, 43, 56
2, 92562, Note_on_c, 0, 55, 64
2, 92565, Note_on_c, 0, 58, 60
2, 92582, Note_on_c, 0, 46, 51
2, 92664, Note_on_c, 0, 60, 60
2, 92666, Note_off_c, 0, 58, 55
2, 92740, Note_on_c, 0, 58, 61
2, 92741, Control_c, 0, 64, 85
2, 92754, Note_off_c, 0, 60, 55
2, 92838, Note_on_c, 0, 57, 62
2, 92841, Note_off_c, 0, 58, 55
2, 92912, Note_on_c, 0, 58, 63
2, 92923, Note_off_c, 0, 57, 55
2, 93012, Note_on_c, 0, 57, 64
2, 93014, Note_off_c, 0, 58, 55
2, 93084, Note_on_c, 0, 58, 65
2, 93096, Note_off_c, 0, 57, 56
2, 93183, Note_off_c, 0, 58, 56
2, 93187, Note_on_c, 0, 59, 66
2, 93257, Note_on_c, 0, 60, 67
2, 93268, Note_off_c, 0, 59, 56
2, 93353, Note_on_c, 0, 61, 68
2, 93356, Note_off_c, 0, 60, 57
2, 93428, Note_on_c, 0, 62, 69
2, 93437, Note_off_c, 0, 46, 52
2, 93438, Note_off_c, 0, 55, 56
2, 93443, Note_off_c, 0, 61, 57
2, 93520, Note_on_c, 0, 63, 70
2, 93522, Note_off_c, 0, 43, 54
2, 93535, Note_off_c, 0, 62, 57
2, 93589, Note_on_c, 0, 46, 50
2, 93600, Note_off_c, 0, 63, 57
2, 93600, Note_on_c, 0, 64, 71
2, 93613, Note_on_c, 0, 54, 64
2, 93615, Note_on_c, 0, 42, 55
2, 93637, Control_c, 0, 64, 0
2, 93688, Note_on_c, 0, 65, 72
2, 93694, Note_off_c, 0, 64, 58
2, 93764, Note_on_c, 0, 66, 73
2, 93768, Note_off_c, 0, 65, 58
2, 93798, Control_c, 0, 64, 85
2, 93854, Note_off_c, 0, 66, 58
2, 93858, Note_on_c, 0, 67, 74
2, 93932, Note_on_c, 0, 68, 75
2, 93942, Note_off_c, 0, 67, 59
2, 94016, Note_on_c, 0, 69, 76
2, 94033, Note_off_c, 0, 68, 59
2, 94088, Note_on_c, 0, 70, 77
2, 94090, Note_off_c, 0, 69, 59
2, 94180, Note_on_c, 0, 71, 78
2, 94198, Note_off_c, 0, 70, 59
2, 94245, Note_on_c, 0, 72, 79
2, 94252, Note_off_c, 0, 71, 59
2, 94331, Note_on_c, 0, 73, 80
2, 94337, Note_off_c, 0, 72, 60
2, 94357, Note_off_c, 0, 54, 56
2, 94382, Note_off_c, 0, 42, 53
2, 94403, Note_on_c, 0, 74, 81
2, 94405, Note_off_c, 0, 73, 60
2, 94442, Note_off_c, 0, 46, 52
2, 94495, Note_on_c, 0, 75, 82
2, 94503, Note_off_c, 0, 74, 60
2, 94554, Note_off_c, 0, 75, 60
2, 94556, Note_on_c, 0, 53, 82
2, 94559, Note_on_c, 0, 41, 72
2, 94565, Note_on_c, 0, 46, 76
2, 94566, Note_on_c, 0, 76, 83
2, 94593, Control_c, 0, 64, 0
2, 94645, Note_on_c, 0, 77, 84
2, 94666, Note_off_c, 0, 76, 60
2, 94718, Note_off_c, 0, 77, 61
2, 94721, Note_on_c, 0, 78, 85
2, 94746, Control_c, 0, 64, 85
2, 94806, Note_on_c, 0, 79, 86
2, 94856, Note_off_c, 0, 78, 61
2, 94873, Note_off_c, 0, 79, 61
2, 94873, Note_on_c, 0, 80, 87
2, 94948, Note_on_c, 0, 81, 88
2, 94963, Note_off_c, 0, 80, 61
2, 95022, Note_on_c, 0, 82, 89
2, 95042, Note_off_c, 0, 81, 62
2, 95105, Note_on_c, 0, 83, 90
2, 95111, Note_off_c, 0, 82, 62
2, 95169, Note_on_c, 0, 84, 91
2, 95178, Note_off_c, 0, 83, 62
2, 95227, Note_off_c, 0, 53, 60
2, 95252, Note_on_c, 0, 85, 92
2, 95263, Note_off_c, 0, 84, 62
2, 95316, Note_off_c, 0, 46, 59
2, 95319, Note_on_c, 0, 84, 93
2, 95325, Note_off_c, 0, 85, 62
2, 95348, Note_off_c, 0, 41, 58
2, 95399, Note_on_c, 0, 85, 94
2, 95414, Note_off_c, 0, 84, 63
2, 95449, Note_off_c, 0, 85, 63
2, 95462, Note_on_c, 0, 46, 86
2, 95463, Note_on_c, 0, 52, 100
2, 95467, Note_on_c, 0, 40, 89
2, 95468, Note_on_c, 0, 84, 96
2, 95496, Control_c, 0, 64, 0
2, 95546, Note_on_c, 0, 85, 96
2, 95554, Note_off_c, 0, 84, 63
2, 95609, Note_on_c, 0, 84, 95
2, 95614, Note_off_c, 0, 85, 63
2, 95636, Control_c, 0, 64, 85
2, 95688, Note_on_c, 0, 85, 94
2, 95699, Note_off_c, 0, 84, 63
2, 95749, Note_on_c, 0, 84, 93
2, 95756, Note_off_c, 0, 85, 63
2, 95829, Note_on_c, 0, 85, 92
2, 95845, Note_off_c, 0, 84, 63
2, 95894, Note_on_c, 0, 84, 90
2, 95902, Note_off_c, 0, 85, 62
2, 95973, Note_on_c, 0, 85, 89
2, 95979, Note_off_c, 0, 84, 62
2, 96039, Note_on_c, 0, 84, 88
2, 96046, Note_off_c, 0, 85, 62
2, 96064, Note_off_c, 0, 52, 65
2, 96119, Note_on_c, 0, 85, 87
2, 96122, Note_off_c, 0, 84, 62
2, 96163, Note_off_c, 0, 46, 61
2, 96182, Note_on_c, 0, 84, 86
2, 96189, Note_off_c, 0, 40, 62
2, 96191, Note_off_c, 0, 85, 61
2, 96264, Note_on_c, 0, 85, 84
2, 96267, Note_off_c, 0, 84, 61
2, 96317, Note_off_c, 0, 85, 61
2, 96326, Note_on_c, 0, 53, 88
2, 96329, Note_on_c, 0, 86, 96
2, 96330, Note_on_c, 0, 46, 81
2, 96334, Note_on_c, 0, 41, 76
2, 96354, Control_c, 0, 64, 0
2, 96379, Note_on_c, 0, 87, 96
2, 96386, Note_off_c, 0, 86, 63
2, 96427, Note_on_c, 0, 86, 96
2, 96434, Note_off_c, 0, 87, 63
2, 96478, Note_on_c, 0, 84, 95
2, 96494, Note_off_c, 0, 86, 63
2, 96500, Control_c, 0, 64, 85
2, 96551, Note_off_c, 0, 46, 60
2, 96564, Note_off_c, 0, 53, 62
2, 96567, Note_off_c, 0, 41, 59
2, 96606, Note_off_c, 0, 84, 63
2, 96627, Note_on_c, 0, 82, 93
2, 96689, Note_off_c, 0, 82, 63
2, 96773, Note_on_c, 0, 82, 90
2, 96776, Note_on_c, 0, 62, 82
2, 96777, Note_on_c, 0, 53, 71
2, 96780, Note_on_c, 0, 58, 76
2, 96785, Control_c, 0, 64, 0
2, 96824, Note_off_c, 0, 82, 62
2, 96827, Note_on_c, 0, 84, 90
2, 96874, Note_on_c, 0, 82, 89
2, 96881, Note_off_c, 0, 84, 62
2, 96927, Note_on_c, 0, 81, 88
2, 96933, Control_c, 0, 64, 85
2, 96940, Note_off_c, 0, 82, 62
2, 96989, Note_off_c, 0, 53, 58
2, 97027, Note_off_c, 0, 62, 60
2, 97037, Note_off_c, 0, 58, 59
2, 97042, Note_off_c, 0, 81, 62
2, 97079, Note_on_c, 0, 79, 86
2, 97144, Note_off_c, 0, 79, 61
2, 97223, Control_c, 0, 64, 0
2, 97224, Note_on_c, 0, 62, 76
2, 97225, Note_on_c, 0, 53, 71
2, 97228, Note_on_c, 0, 77, 84
2, 97234, Note_on_c, 0, 58, 66
2, 97279, Note_off_c, 0, 77, 61
2, 97281, Note_on_c, 0, 79, 83
2, 97332, Note_on_c, 0, 77, 82
2, 97362, Note_off_c, 0, 79, 60
2, 97374, Control_c, 0, 64, 85
2, 97384, Note_on_c, 0, 75, 81
2, 97403, Note_off_c, 0, 77, 60
2, 97485, Note_off_c, 0, 58, 56
2, 97488, Note_off_c, 0, 62, 59
2, 97489, Note_off_c, 0, 53, 58
2, 97504, Note_off_c, 0, 75, 60
2, 97540, Note_on_c, 0, 74, 79
2, 97623, Note_off_c, 0, 74, 60
2, 97689, Note_on_c, 0, 63, 71
2, 97690, Note_on_c, 0, 72, 77
2, 97693, Note_on_c, 0, 53, 64
2, 97694, Note_on_c, 0, 60, 66
2, 97715, Control_c, 0, 64, 0
2, 97844, Note_off_c, 0, 72, 59
2, 97845, Note_on_c, 0, 75, 75
2, 97867, Control_c, 0, 64, 85
2, 97947, Note_off_c, 0, 63, 58
2, 97963, Note_off_c, 0, 75, 59
2, 97967, Note_off_c, 0, 53, 56
2, 97975, Note_off_c, 0, 60, 56
2, 97998, Note_on_c, 0, 69, 72
2, 98080, Note_off_c, 0, 69, 58
2, 98187, Note_on_c, 0, 70, 44
2, 98190, Note_on_c, 0, 58, 66
2, 98192, Note_on_c, 0, 62, 55
2, 98230, Control_c, 0, 64, 0
2, 98271, Note_off_c, 0, 70, 51
2, 98272, Note_on_c, 0, 74, 44
2, 98337, Note_off_c, 0, 74, 51
2, 98338, Note_on_c, 0, 82, 45
2, 98373, Control_c, 0, 64, 70
2, 98407, Note_off_c, 0, 62, 53
2, 98410, Note_off_c, 0, 58, 56
2, 98417, Note_off_c, 0, 82, 51
2, 98420, Note_on_c, 0, 74, 46
2, 98485, Note_off_c, 0, 74, 51
2, 98486, Note_on_c, 0, 82, 47
2, 98566, Note_off_c, 0, 82, 51
2, 98567, Note_on_c, 0, 74, 48
2, 98628, Note_off_c, 0, 74, 52
2, 98630, Note_on_c, 0, 70, 49
2, 98631, Note_on_c, 0, 46, 76
2, 98709, Note_off_c, 0, 70, 52
2, 98711, Note_on_c, 0, 74, 50
2, 98773, Note_off_c, 0, 74, 52
2, 98776, Note_on_c, 0, 82, 51
2, 98856, Note_off_c, 0, 82, 52
2, 98857, Note_on_c, 0, 74, 52
2, 98920, Note_off_c, 0, 74, 53
2, 98921, Note_on_c, 0, 82, 53
2, 99000, Note_off_c, 0, 82, 53
2, 99003, Note_on_c, 0, 74, 54
2, 99067, Note_off_c, 0, 74, 53
2, 99068, Note_on_c, 0, 71, 56
2, 99147, Note_off_c, 0, 71, 54
2, 99148, Note_on_c, 0, 74, 56
2, 99209, Note_off_c, 0, 74, 54
2, 99212, Note_on_c, 0, 80, 55
2, 99290, Note_off_c, 0, 80, 53
2, 99292, Note_on_c, 0, 74, 54
2, 99356, Note_off_c, 0, 74, 53
2, 99358, Note_on_c, 0, 80, 53
2, 99437, Note_off_c, 0, 80, 53
2, 99440, Note_on_c, 0, 74, 52
2, 99502, Note_off_c, 0, 74, 53
2, 99503, Note_on_c, 0, 70, 51
2, 99582, Note_off_c, 0, 70, 52
2, 99584, Note_on_c, 0, 74, 50
2, 99648, Note_off_c, 0, 74, 52
2, 99649, Note_on_c, 0, 82, 49
2, 99729, Note_off_c, 0, 82, 52
2, 99731, Note_on_c, 0, 74, 48
2, 99792, Note_off_c, 0, 74, 52
2, 99796, Note_on_c, 0, 82, 47
2, 99874, Note_off_c, 0, 82, 51
2, 99874, Note_on_c, 0, 74, 46
2, 99940, Note_off_c, 0, 74, 51
2, 99941, Note_on_c, 0, 68, 44
2, 100019, Note_off_c, 0, 68, 51
2, 100022, Note_on_c, 0, 74, 45
2, 100084, Note_off_c, 0, 74, 51
2, 100085, Note_on_c, 0, 83, 46
2, 100165, Note_off_c, 0, 83, 51
2, 100167, Note_on_c, 0, 74, 47
2, 100228, Note_off_c, 0, 74, 51
2, 100230, Note_on_c, 0, 83, 48
2, 100310, Note_off_c, 0, 83, 52
2, 100312, Note_on_c, 0, 74, 49
2, 100374, Note_off_c, 0, 74, 52
2, 100377, Note_off_c, 0, 46, 59
2, 100378, Note_on_c, 0, 70, 50
2, 100381, Note_on_c, 0, 58, 77
2, 100455, Note_off_c, 0, 70, 52
2, 100455, Note_on_c, 0, 74, 51
2, 100521, Note_off_c, 0, 74, 52
2, 100523, Note_on_c, 0, 82, 52
2, 100601, Note_off_c, 0, 82, 53
2, 100603, Note_on_c, 0, 74, 53
2, 100667, Note_off_c, 0, 74, 53
2, 100668, Note_on_c, 0, 82, 54
2, 100747, Note_off_c, 0, 82, 53
2, 100749, Note_on_c, 0, 74, 55
2, 100828, Note_off_c, 0, 74, 53
2, 100830, Note_on_c, 0, 71, 56
2, 100893, Note_off_c, 0, 71, 54
2, 100894, Note_on_c, 0, 74, 56
2, 100956, Note_off_c, 0, 74, 54
2, 100959, Note_on_c, 0, 80, 55
2, 101037, Note_off_c, 0, 80, 53
2, 101039, Note_on_c, 0, 74, 54
2, 101104, Note_off_c, 0, 74, 53
2, 101105, Note_on_c, 0, 80, 53
2, 101183, Note_off_c, 0, 80, 53
2, 101185, Note_on_c, 0, 74, 52
2, 101247, Note_off_c, 0, 74, 53
2, 101249, Note_on_c, 0, 68, 51
2, 101330, Note_off_c, 0, 68, 52
2, 101331, Note_on_c, 0, 74, 50
2, 101393, Note_off_c, 0, 74, 52
2, 101395, Note_on_c, 0, 83, 49
2, 101474, Note_off_c, 0, 83, 52
2, 101476, Note_on_c, 0, 74, 48
2, 101557, Note_off_c, 0, 74, 52
2, 101559, Note_on_c, 0, 83, 47
2, 101620, Note_off_c, 0, 83, 51
2, 101623, Note_on_c, 0, 74, 46
2, 101702, Note_off_c, 0, 74, 51
2, 101702, Note_on_c, 0, 67, 44
2, 101768, Note_off_c, 0, 67, 51
2, 101769, Note_on_c, 0, 75, 44
2, 101845, Note_off_c, 0, 75, 51
2, 101848, Note_on_c, 0, 82, 45
2, 101913, Note_off_c, 0, 82, 51
2, 101914, Note_on_c, 0, 75, 46
2, 101975, Note_off_c, 0, 75, 51
2, 101977, Note_on_c, 0, 82, 47
2, 102057, Note_off_c, 0, 82, 51
2, 102058, Note_on_c, 0, 75, 48
2, 102124, Note_off_c, 0, 58, 59
2, 102125, Note_off_c, 0, 75, 52
2, 102126, Note_on_c, 0, 68, 49
2, 102127, Note_on_c, 0, 46, 79
2, 102181, Control_c, 0, 64, 0
2, 102202, Note_off_c, 0, 68, 52
2, 102204, Note_on_c, 0, 75, 50
2, 102268, Note_off_c, 0, 75, 52
2, 102269, Note_on_c, 0, 80, 51
2, 102349, Note_off_c, 0, 80, 52
2, 102350, Note_on_c, 0, 75, 52
2, 102384, Control_c, 0, 64, 127
2, 102428, Note_off_c, 0, 75, 53
2, 102430, Note_on_c, 0, 80, 53
2, 102494, Note_off_c, 0, 80, 53
2, 102496, Note_on_c, 0, 75, 54
2, 102576, Note_off_c, 0, 75, 53
2, 102577, Note_on_c, 0, 70, 56
2, 102639, Note_off_c, 0, 70, 54
2, 102641, Note_on_c, 0, 75, 56
2, 102721, Note_off_c, 0, 75, 54
2, 102721, Note_on_c, 0, 79, 55
2, 102783, Note_off_c, 0, 79, 53
2, 102786, Note_on_c, 0, 75, 54
2, 102866, Note_off_c, 0, 75, 53
2, 102867, Note_on_c, 0, 79, 53
2, 102932, Note_off_c, 0, 79, 53
2, 102933, Note_on_c, 0, 75, 52
2, 102993, Note_off_c, 0, 75, 53
2, 102997, Note_on_c, 0, 70, 51
2, 103076, Note_off_c, 0, 70, 52
2, 103077, Note_on_c, 0, 75, 50
2, 103158, Note_off_c, 0, 75, 52
2, 103159, Note_on_c, 0, 78, 49
2, 103221, Note_off_c, 0, 78, 52
2, 103223, Note_on_c, 0, 75, 48
2, 103303, Note_off_c, 0, 75, 52
2, 103304, Note_on_c, 0, 78, 47
2, 103365, Note_off_c, 0, 78, 51
2, 103368, Note_on_c, 0, 75, 46
2, 103448, Note_off_c, 0, 75, 51
2, 103450, Note_on_c, 0, 69, 44
2, 103514, Note_off_c, 0, 69, 51
2, 103515, Note_on_c, 0, 75, 44
2, 103591, Note_off_c, 0, 75, 51
2, 103595, Note_on_c, 0, 78, 45
2, 103657, Note_off_c, 0, 78, 51
2, 103658, Note_on_c, 0, 75, 46
2, 103738, Note_off_c, 0, 75, 51
2, 103739, Note_on_c, 0, 78, 47
2, 103802, Note_off_c, 0, 78, 51
2, 103805, Note_on_c, 0, 75, 48
2, 103885, Note_off_c, 0, 46, 60
2, 103885, Note_off_c, 0, 75, 52
2, 103888, Note_on_c, 0, 69, 49
2, 103890, Note_on_c, 0, 34, 81
2, 103927, Control_c, 0, 64, 0
2, 103950, Note_off_c, 0, 69, 52
2, 103951, Note_on_c, 0, 75, 50
2, 104030, Note_off_c, 0, 75, 52
2, 104032, Note_on_c, 0, 77, 51
2, 104094, Note_off_c, 0, 77, 52
2, 104095, Note_on_c, 0, 75, 52
2, 104130, Control_c, 0, 64, 127
2, 104177, Note_off_c, 0, 75, 53
2, 104178, Note_on_c, 0, 77, 53
2, 104239, Note_off_c, 0, 77, 53
2, 104241, Note_on_c, 0, 75, 54
2, 104321, Note_off_c, 0, 75, 53
2, 104322, Note_on_c, 0, 69, 56
2, 104385, Note_off_c, 0, 69, 54
2, 104388, Note_on_c, 0, 75, 56
2, 104468, Note_off_c, 0, 75, 54
2, 104468, Note_on_c, 0, 77, 55
2, 104531, Note_off_c, 0, 77, 53
2, 104532, Note_on_c, 0, 75, 54
2, 104611, Note_off_c, 0, 75, 53
2, 104614, Note_on_c, 0, 77, 53
2, 104676, Note_off_c, 0, 77, 53
2, 104677, Note_on_c, 0, 75, 52
2, 104757, Note_off_c, 0, 75, 53
2, 104759, Note_on_c, 0, 69, 51
2, 104822, Note_off_c, 0, 69, 52
2, 104824, Note_on_c, 0, 75, 50
2, 104902, Note_off_c, 0, 75, 52
2, 104903, Note_on_c, 0, 77, 49
2, 104967, Note_off_c, 0, 77, 52
2, 104970, Note_on_c, 0, 75, 48
2, 105050, Note_off_c, 0, 75, 52
2, 105051, Note_on_c, 0, 77, 47
2, 105113, Note_off_c, 0, 77, 51
2, 105114, Note_on_c, 0, 75, 46
2, 105193, Note_off_c, 0, 75, 51
2, 105196, Note_on_c, 0, 70, 44
2, 105258, Note_off_c, 0, 70, 51
2, 105260, Note_on_c, 0, 74, 44
2, 105340, Note_off_c, 0, 74, 51
2, 105341, Note_on_c, 0, 77, 45
2, 105403, Note_off_c, 0, 77, 51
2, 105406, Note_on_c, 0, 74, 46
2, 105485, Note_off_c, 0, 74, 51
2, 105485, Note_on_c, 0, 77, 47
2, 105551, Note_off_c, 0, 77, 51
2, 105552, Note_on_c, 0, 74, 48
2, 105630, Note_off_c, 0, 74, 52
2, 105634, Note_off_c, 0, 34, 60
2, 105634, Note_on_c, 0, 65, 49
2, 105636, Note_on_c, 0, 46, 82
2, 105695, Note_off_c, 0, 65, 52
2, 105697, Note_on_c, 0, 70, 50
2, 105720, Control_c, 0, 64, 0
2, 105778, Note_off_c, 0, 70, 52
2, 105779, Note_on_c, 0, 74, 51
2, 105840, Note_off_c, 0, 74, 52
2, 105842, Note_on_c, 0, 70, 52
2, 105922, Note_off_c, 0, 70, 53
2, 105923, Note_on_c, 0, 74, 53
2, 105924, Control_c, 0, 64, 127
2, 105985, Note_off_c, 0, 74, 53
2, 105989, Note_on_c, 0, 70, 54
2, 106067, Note_off_c, 0, 70, 53
2, 106068, Note_on_c, 0, 65, 56
2, 106134, Note_off_c, 0, 65, 54
2, 106134, Note_on_c, 0, 71, 56
2, 106212, Note_off_c, 0, 71, 54
2, 106216, Note_on_c, 0, 74, 55
2, 106278, Note_off_c, 0, 74, 53
2, 106279, Note_on_c, 0, 71, 54
2, 106359, Note_off_c, 0, 71, 53
2, 106360, Note_on_c, 0, 74, 53
2, 106421, Note_off_c, 0, 74, 53
2, 106424, Note_on_c, 0, 71, 52
2, 106504, Note_off_c, 0, 71, 53
2, 106505, Note_on_c, 0, 65, 51
2, 106568, Note_off_c, 0, 65, 52
2, 106570, Note_on_c, 0, 70, 50
2, 106648, Note_off_c, 0, 70, 52
2, 106652, Note_on_c, 0, 74, 49
2, 106716, Note_off_c, 0, 74, 52
2, 106717, Note_on_c, 0, 70, 48
2, 106795, Note_off_c, 0, 70, 52
2, 106797, Note_on_c, 0, 74, 47
2, 106860, Note_off_c, 0, 74, 51
2, 106861, Note_on_c, 0, 70, 46
2, 106941, Note_off_c, 0, 70, 51
2, 106942, Note_on_c, 0, 65, 44
2, 107004, Note_off_c, 0, 65, 51
2, 107006, Note_on_c, 0, 68, 44
2, 107086, Note_off_c, 0, 68, 51
2, 107088, Note_on_c, 0, 74, 45
2, 107153, Note_off_c, 0, 74, 51
2, 107154, Note_on_c, 0, 68, 46
2, 107230, Note_off_c, 0, 68, 51
2, 107234, Note_on_c, 0, 74, 47
2, 107298, Note_off_c, 0, 74, 51
2, 107299, Note_on_c, 0, 68, 48
2, 107379, Note_off_c, 0, 46, 60
2, 107380, Note_off_c, 0, 68, 52
2, 107381, Note_on_c, 0, 65, 49
2, 107383, Note_on_c, 0, 58, 84
2, 107418, Control_c, 0, 64, 0
2, 107440, Note_off_c, 0, 65, 52
2, 107442, Note_on_c, 0, 70, 50
2, 107524, Note_off_c, 0, 70, 52
2, 107526, Note_on_c, 0, 74, 51
2, 107587, Note_off_c, 0, 74, 52
2, 107589, Note_on_c, 0, 70, 52
2, 107622, Control_c, 0, 64, 127
2, 107668, Note_off_c, 0, 70, 53
2, 107669, Note_on_c, 0, 74, 53
2, 107735, Note_off_c, 0, 74, 53
2, 107736, Note_on_c, 0, 70, 54
2, 107812, Note_off_c, 0, 70, 53
2, 107815, Note_on_c, 0, 65, 56
2, 107880, Note_off_c, 0, 65, 54
2, 107881, Note_on_c, 0, 71, 56
2, 107961, Note_off_c, 0, 71, 54
2, 107963, Note_on_c, 0, 74, 55
2, 108023, Note_off_c, 0, 74, 53
2, 108026, Note_on_c, 0, 71, 54
2, 108106, Note_off_c, 0, 71, 53
2, 108107, Note_on_c, 0, 74, 53
2, 108169, Note_off_c, 0, 74, 53
2, 108171, Note_on_c, 0, 71, 52
2, 108251, Note_off_c, 0, 71, 53
2, 108252, Note_on_c, 0, 65, 51
2, 108317, Note_off_c, 0, 65, 52
2, 108318, Note_on_c, 0, 68, 50
2, 108394, Note_off_c, 0, 68, 52
2, 108397, Note_on_c, 0, 74, 49
2, 108461, Note_off_c, 0, 74, 52
2, 108463, Note_on_c, 0, 68, 48
2, 108543, Note_off_c, 0, 68, 52
2, 108544, Note_on_c, 0, 74, 47
2, 108621, Note_off_c, 0, 74, 51
2, 108624, Note_on_c, 0, 68, 46
2, 108686, Note_off_c, 0, 68, 51
2, 108687, Note_on_c, 0, 63, 44
2, 108768, Note_off_c, 0, 63, 51
2, 108770, Note_on_c, 0, 67, 44
2, 108832, Note_off_c, 0, 67, 51
2, 108834, Note_on_c, 0, 75, 45
2, 108899, Note_off_c, 0, 75, 51
2, 108900, Note_on_c, 0, 67, 46
2, 108976, Note_off_c, 0, 67, 51
2, 108980, Note_on_c, 0, 75, 47
2, 109042, Note_off_c, 0, 75, 51
2, 109043, Note_on_c, 0, 67, 48
2, 109098, Control_c, 0, 64, 0
2, 109124, Note_off_c, 0, 58, 61
2, 109125, Note_off_c, 0, 67, 52
2, 109127, Note_on_c, 0, 63, 49
2, 109129, Note_on_c, 0, 46, 86
2, 109187, Note_off_c, 0, 63, 52
2, 109189, Note_on_c, 0, 68, 50
2, 109269, Note_off_c, 0, 68, 52
2, 109271, Note_on_c, 0, 75, 51
2, 109301, Control_c, 0, 64, 127
2, 109335, Note_off_c, 0, 75, 52
2, 109335, Note_on_c, 0, 68, 52
2, 109415, Note_off_c, 0, 68, 53
2, 109416, Note_on_c, 0, 75, 53
2, 109496, Note_off_c, 0, 75, 53
2, 109497, Note_on_c, 0, 68, 54
2, 109561, Note_off_c, 0, 68, 53
2, 109562, Note_on_c, 0, 63, 56
2, 109641, Note_off_c, 0, 63, 54
2, 109644, Note_on_c, 0, 70, 56
2, 109645, Note_on_c, 0, 67, 56
2, 109705, Note_off_c, 0, 70, 54
2, 109706, Note_off_c, 0, 67, 54
2, 109709, Note_on_c, 0, 75, 55
2, 109789, Note_off_c, 0, 75, 53
2, 109790, Note_on_c, 0, 70, 54
2, 109791, Note_on_c, 0, 67, 54
2, 109850, Note_off_c, 0, 70, 53
2, 109853, Note_off_c, 0, 67, 53
2, 109855, Note_on_c, 0, 75, 53
2, 109917, Note_off_c, 0, 75, 53
2, 109918, Note_on_c, 0, 70, 52
2, 109920, Note_on_c, 0, 67, 52
2, 109997, Note_off_c, 0, 70, 53
2, 109999, Note_off_c, 0, 67, 53
2, 110000, Note_on_c, 0, 63, 51
2, 110061, Note_off_c, 0, 63, 52
2, 110062, Note_on_c, 0, 66, 50
2, 110144, Note_off_c, 0, 66, 52
2, 110145, Note_on_c, 0, 70, 49
2, 110223, Note_off_c, 0, 70, 52
2, 110226, Note_on_c, 0, 66, 48
2, 110287, Note_off_c, 0, 66, 52
2, 110289, Note_on_c, 0, 70, 47
2, 110371, Note_off_c, 0, 70, 51
2, 110372, Note_on_c, 0, 66, 46
2, 110433, Note_off_c, 0, 66, 51
2, 110435, Note_on_c, 0, 60, 44
2, 110513, Note_off_c, 0, 60, 51
2, 110515, Note_on_c, 0, 66, 44
2, 110579, Note_off_c, 0, 66, 51
2, 110581, Note_on_c, 0, 70, 45
2, 110661, Note_off_c, 0, 70, 51
2, 110662, Note_on_c, 0, 66, 46
2, 110724, Note_off_c, 0, 66, 51
2, 110726, Note_on_c, 0, 70, 47
2, 110805, Note_off_c, 0, 70, 51
2, 110808, Note_on_c, 0, 66, 48
2, 110870, Note_off_c, 0, 46, 61
2, 110871, Note_off_c, 0, 66, 52
2, 110872, Note_on_c, 0, 60, 49
2, 110874, Note_on_c, 0, 34, 80
2, 110887, Control_c, 0, 64, 0
2, 110951, Note_off_c, 0, 60, 52
2, 110952, Note_on_c, 0, 66, 50
2, 111016, Note_off_c, 0, 66, 52
2, 111017, Note_on_c, 0, 69, 51
2, 111088, Control_c, 0, 64, 127
2, 111096, Note_off_c, 0, 69, 52
2, 111098, Note_on_c, 0, 66, 52
2, 111164, Note_off_c, 0, 66, 53
2, 111164, Note_on_c, 0, 69, 53
2, 111242, Note_off_c, 0, 69, 53
2, 111246, Note_on_c, 0, 66, 54
2, 111307, Note_off_c, 0, 66, 53
2, 111308, Note_on_c, 0, 60, 56
2, 111389, Note_off_c, 0, 60, 54
2, 111390, Note_on_c, 0, 65, 56
2, 111469, Note_off_c, 0, 65, 54
2, 111472, Note_on_c, 0, 69, 55
2, 111533, Note_off_c, 0, 69, 53
2, 111535, Note_on_c, 0, 65, 54
2, 111615, Note_off_c, 0, 65, 53
2, 111616, Note_on_c, 0, 69, 53
2, 111678, Note_off_c, 0, 69, 53
2, 111679, Note_on_c, 0, 65, 52
2, 111759, Note_off_c, 0, 65, 53
2, 111760, Note_on_c, 0, 60, 50
2, 111840, Note_off_c, 0, 60, 52
2, 111843, Note_on_c, 0, 63, 49
2, 111905, Note_off_c, 0, 63, 52
2, 111906, Note_on_c, 0, 69, 48
2, 111986, Note_off_c, 0, 69, 52
2, 111987, Note_on_c, 0, 63, 47
2, 112068, Note_off_c, 0, 63, 51
2, 112069, Note_on_c, 0, 69, 46
2, 112147, Note_off_c, 0, 69, 51
2, 112149, Note_on_c, 0, 63, 44
2, 112214, Note_off_c, 0, 63, 51
2, 112215, Note_on_c, 0, 70, 60
2, 112217, Note_on_c, 0, 62, 60
2, 112374, Note_off_c, 0, 70, 55
2, 112376, Note_off_c, 0, 62, 55
2, 112517, Control_c, 0, 64, 0
2, 112519, Note_off_c, 0, 34, 60
2, 112521, Note_on_c, 0, 62, 96
2, 112528, Note_on_c, 0, 50, 84
2, 112635, Control_c, 0, 64, 85
2, 112857, Note_off_c, 0, 50, 61
2, 112952, Note_off_c, 0, 62, 63
2, 112957, Note_on_c, 0, 58, 74
2, 112963, Note_on_c, 0, 46, 62
2, 113063, Note_off_c, 0, 46, 55
2, 113098, Note_off_c, 0, 58, 59
2, 113099, Note_on_c, 0, 53, 76
2, 113108, Note_on_c, 0, 41, 64
2, 113213, Note_off_c, 0, 53, 59
2, 113224, Note_off_c, 0, 41, 56
2, 113247, Control_c, 0, 64, 0
2, 113383, Note_on_c, 0, 75, 98
2, 113392, Note_on_c, 0, 63, 78
2, 113399, Note_on_c, 0, 53, 66
2, 113401, Note_on_c, 0, 60, 90
2, 113470, Control_c, 0, 64, 85
2, 113811, Note_off_c, 0, 60, 62
2, 113821, Note_on_c, 0, 72, 82
2, 113832, Note_on_c, 0, 57, 70
2, 113857, Note_off_c, 0, 53, 56
2, 113873, Note_off_c, 0, 63, 59
2, 113874, Note_off_c, 0, 75, 64
2, 113950, Note_on_c, 0, 74, 85
2, 113964, Note_on_c, 0, 58, 72
2, 113966, Note_on_c, 0, 62, 65
2, 113971, Note_on_c, 0, 46, 60
2, 113977, Note_off_c, 0, 72, 60
2, 114004, Note_off_c, 0, 57, 57
2, 114076, Note_off_c, 0, 74, 61
2, 114093, Control_c, 0, 64, 0
2, 114094, Note_off_c, 0, 58, 58
2, 114095, Note_off_c, 0, 62, 56
2, 114096, Note_off_c, 0, 46, 55
2, 114245, Note_on_c, 0, 50, 86
2, 114247, Note_on_c, 0, 62, 100
2, 114299, Control_c, 0, 64, 85
2, 114677, Note_off_c, 0, 50, 61
2, 114684, Note_off_c, 0, 62, 65
2, 114694, Note_on_c, 0, 58, 82
2, 114695, Note_on_c, 0, 46, 70
2, 114840, Note_on_c, 0, 53, 81
2, 114843, Note_on_c, 0, 41, 69
2, 114860, Note_off_c, 0, 46, 57
2, 114871, Note_off_c, 0, 58, 60
2, 114932, Control_c, 0, 64, 0
2, 114946, Note_off_c, 0, 53, 60
2, 114966, Note_off_c, 0, 41, 57
2, 115131, Note_on_c, 0, 77, 92
2, 115136, Note_on_c, 0, 60, 80
2, 115137, Note_on_c, 0, 53, 68
2, 115145, Note_on_c, 0, 75, 72
2, 115161, Control_c, 0, 64, 85
2, 115557, Note_on_c, 0, 57, 66
2, 115561, Note_on_c, 0, 72, 78
2, 115570, Note_off_c, 0, 60, 60
2, 115647, Note_off_c, 0, 75, 58
2, 115699, Note_off_c, 0, 53, 57
2, 115706, Note_on_c, 0, 74, 77
2, 115707, Note_on_c, 0, 58, 65
2, 115753, Note_off_c, 0, 72, 59
2, 115754, Note_off_c, 0, 57, 56
2, 115838, Note_off_c, 0, 74, 59
2, 115850, Note_off_c, 0, 58, 56
2, 115859, Control_c, 0, 64, 0
2, 115924, Note_off_c, 0, 77, 62
2, 115989, Note_on_c, 0, 62, 99
2, 115996, Note_on_c, 0, 50, 87
2, 116096, Control_c, 0, 64, 85
2, 116423, Note_on_c, 0, 58, 73
2, 116431, Note_on_c, 0, 46, 61
2, 116458, Note_off_c, 0, 50, 61
2, 116461, Note_off_c, 0, 62, 64
2, 116568, Note_on_c, 0, 53, 72
2, 116576, Note_on_c, 0, 41, 60
2, 116599, Note_off_c, 0, 46, 55
2, 116607, Note_off_c, 0, 58, 58
2, 116668, Control_c, 0, 64, 0
2, 116695, Note_off_c, 0, 41, 55
2, 116707, Note_off_c, 0, 53, 58
2, 116841, Note_on_c, 0, 87, 96
2, 116859, Note_on_c, 0, 53, 80
2, 116860, Note_on_c, 0, 75, 76
2, 116861, Note_on_c, 0, 63, 74
2, 116863, Note_on_c, 0, 65, 84
2, 116865, Note_on_c, 0, 60, 66
2, 116914, Control_c, 0, 64, 85
2, 117212, Note_off_c, 0, 60, 56
2, 117232, Note_off_c, 0, 53, 60
2, 117250, Note_off_c, 0, 63, 59
2, 117262, Note_off_c, 0, 65, 61
2, 117276, Note_off_c, 0, 75, 59
2, 117277, Note_on_c, 0, 84, 95
2, 117288, Note_on_c, 0, 72, 78
2, 117289, Note_on_c, 0, 63, 83
2, 117291, Note_on_c, 0, 53, 75
2, 117293, Note_on_c, 0, 57, 80
2, 117313, Note_off_c, 0, 87, 63
2, 117414, Note_off_c, 0, 72, 59
2, 117421, Note_off_c, 0, 84, 63
2, 117423, Note_off_c, 0, 53, 59
2, 117425, Note_off_c, 0, 63, 60
2, 117426, Note_on_c, 0, 82, 94
2, 117435, Note_off_c, 0, 57, 60
2, 117439, Note_on_c, 0, 58, 70
2, 117440, Note_on_c, 0, 70, 76
2, 117442, Note_on_c, 0, 62, 82
2, 117574, Note_off_c, 0, 70, 59
2, 117580, Note_off_c, 0, 62, 60
2, 117586, Control_c, 0, 64, 0
2, 117592, Note_off_c, 0, 58, 57
2, 117600, Note_off_c, 0, 82, 63
2, 117712, Note_on_c, 0, 89, 92
2, 117713, Note_on_c, 0, 77, 75
2, 117716, Note_on_c, 0, 65, 81
2, 117791, Note_off_c, 0, 89, 62
2, 117795, Note_off_c, 0, 65, 60
2, 117795, Note_off_c, 0, 77, 59
2, 117857, Note_on_c, 0, 86, 92
2, 117858, Note_on_c, 0, 74, 78
2, 117859, Note_on_c, 0, 62, 75
2, 117937, Note_off_c, 0, 86, 62
2, 117938, Note_off_c, 0, 62, 59
2, 117940, Note_off_c, 0, 74, 59
2, 118148, Note_on_c, 0, 82, 90
2, 118149, Note_on_c, 0, 70, 70
2, 118150, Note_on_c, 0, 58, 79
2, 118227, Note_off_c, 0, 82, 62
2, 118229, Note_off_c, 0, 58, 60
2, 118230, Note_off_c, 0, 70, 57
2, 118291, Note_on_c, 0, 77, 89
2, 118292, Note_on_c, 0, 65, 70
2, 118295, Note_on_c, 0, 53, 78
2, 118435, Note_off_c, 0, 77, 62
2, 118438, Note_off_c, 0, 53, 59
2, 118439, Note_off_c, 0, 65, 57
2, 118579, Note_on_c, 0, 74, 88
2, 118582, Note_on_c, 0, 62, 68
2, 118584, Note_on_c, 0, 50, 77
2, 118661, Note_off_c, 0, 74, 62
2, 118663, Note_off_c, 0, 62, 57
2, 118666, Note_off_c, 0, 50, 59
2, 118741, Note_on_c, 0, 70, 87
2, 118743, Note_on_c, 0, 58, 68
2, 118745, Note_on_c, 0, 46, 76
2, 118805, Note_off_c, 0, 70, 61
2, 118808, Note_off_c, 0, 46, 59
2, 118810, Note_off_c, 0, 58, 57
2, 119032, Note_on_c, 0, 65, 85
2, 119035, Note_on_c, 0, 53, 70
2, 119036, Note_on_c, 0, 41, 75
2, 119113, Note_off_c, 0, 65, 61
2, 119115, Note_off_c, 0, 53, 57
2, 119116, Note_off_c, 0, 41, 59
2, 119174, Note_on_c, 0, 70, 84
2, 119177, Note_on_c, 0, 46, 74
2, 119179, Note_on_c, 0, 58, 70
2, 119226, Control_c, 0, 64, 85
2, 119430, Note_off_c, 0, 46, 59
2, 119437, Note_off_c, 0, 70, 61
2, 119463, Note_off_c, 0, 58, 57
2, 119638, Note_on_c, 0, 58, 72
2, 119645, Note_on_c, 0, 34, 58
2, 119647, Note_on_c, 0, 53, 60
2, 119648, Note_on_c, 0, 46, 72
2, 119651, Note_on_c, 0, 50, 50
2, 119656, Control_c, 0, 64, 0
2, 119749, Control_c, 0, 64, 85
2, 119899, Note_off_c, 0, 58, 58
2, 119900, Note_off_c, 0, 50, 52
2, 119922, Note_off_c, 0, 53, 55
2, 119927, Note_off_c, 0, 34, 54
2, 119930, Note_off_c, 0, 46, 58
2, 120082, Note_on_c, 0, 58, 90
2, 120094, Note_on_c, 0, 53, 80
2, 120095, Note_on_c, 0, 50, 60
2, 120097, Note_on_c, 0, 46, 72
2, 120099, Note_on_c, 0, 34, 66
2, 120106, Control_c, 0, 64, 0
2, 120199, Control_c, 0, 64, 85
2, 120333, Note_off_c, 0, 53, 60
2, 120339, Note_off_c, 0, 50, 55
2, 120343, Note_off_c, 0, 34, 56
2, 120355, Note_off_c, 0, 58, 62
2, 120362, Note_off_c, 0, 46, 58
2, 120566, Control_c, 0, 64, 0
2, 120906, Control_c, 0, 64, 127
2, 120958, Note_on_c, 0, 67, 46
2, 120960, Note_on_c, 0, 39, 63
2, 120967, Note_on_c, 0, 63, 26
2, 120968, Note_on_c, 0, 58, 36
2, 121103, Note_off_c, 0, 39, 55
2, 121105, Note_on_c, 0, 51, 39
2, 121225, Note_off_c, 0, 51, 49
2, 121249, Note_on_c, 0, 51, 40
2, 121263, Control_c, 0, 64, 0
2, 121369, Note_off_c, 0, 51, 50
2, 121394, Note_on_c, 0, 51, 41
2, 121497, Note_off_c, 0, 51, 50
2, 121538, Note_on_c, 0, 51, 43
2, 121654, Note_off_c, 0, 51, 50
2, 121684, Note_on_c, 0, 51, 44
2, 121725, Note_off_c, 0, 58, 49
2, 121743, Note_off_c, 0, 63, 46
2, 121804, Note_off_c, 0, 51, 51
2, 121813, Note_off_c, 0, 67, 51
2, 121828, Note_on_c, 0, 63, 41
2, 121831, Note_on_c, 0, 51, 45
2, 121835, Note_on_c, 0, 58, 26
2, 121837, Note_on_c, 0, 55, 28
2, 121941, Note_off_c, 0, 51, 51
2, 121970, Note_on_c, 0, 51, 47
2, 122081, Note_off_c, 0, 55, 47
2, 122086, Note_off_c, 0, 58, 46
2, 122087, Note_off_c, 0, 63, 50
2, 122089, Note_off_c, 0, 51, 51
2, 122118, Note_on_c, 0, 51, 48
2, 122234, Note_off_c, 0, 51, 52
2, 122267, Note_on_c, 0, 51, 49
2, 122381, Note_off_c, 0, 51, 52
2, 122413, Note_on_c, 0, 51, 51
2, 122516, Note_off_c, 0, 51, 52
2, 122543, Note_on_c, 0, 51, 45
2, 122671, Note_off_c, 0, 51, 51
2, 122692, Note_on_c, 0, 70, 77
2, 122695, Control_c, 0, 64, 127
2, 122696, Note_on_c, 0, 39, 75
2, 122705, Note_on_c, 0, 67, 57
2, 122708, Note_on_c, 0, 63, 53
2, 122709, Note_on_c, 0, 58, 42
2, 122836, Note_off_c, 0, 39, 59
2, 122838, Note_on_c, 0, 51, 56
2, 122953, Note_off_c, 0, 51, 54
2, 122979, Note_on_c, 0, 51, 55
2, 123051, Control_c, 0, 64, 0
2, 123091, Note_off_c, 0, 51, 53
2, 123124, Note_on_c, 0, 51, 54
2, 123247, Note_off_c, 0, 51, 53
2, 123268, Note_on_c, 0, 51, 53
2, 123381, Note_off_c, 0, 51, 53
2, 123415, Note_on_c, 0, 51, 52
2, 123439, Note_off_c, 0, 67, 54
2, 123446, Note_off_c, 0, 58, 50
2, 123476, Note_off_c, 0, 63, 53
2, 123533, Note_off_c, 0, 51, 53
2, 123544, Note_off_c, 0, 70, 59
2, 123552, Note_on_c, 0, 67, 50
2, 123562, Note_on_c, 0, 63, 30
2, 123563, Note_on_c, 0, 58, 40
2, 123564, Note_on_c, 0, 51, 51
2, 123566, Note_on_c, 0, 55, 48
2, 123669, Note_off_c, 0, 51, 52
2, 123703, Note_on_c, 0, 51, 50
2, 123785, Note_off_c, 0, 58, 50
2, 123793, Note_off_c, 0, 63, 47
2, 123795, Note_off_c, 0, 55, 52
2, 123818, Note_off_c, 0, 51, 52
2, 123827, Note_off_c, 0, 67, 52
2, 123850, Note_on_c, 0, 51, 49
2, 123974, Note_off_c, 0, 51, 52
2, 123998, Note_on_c, 0, 51, 48
2, 124110, Note_off_c, 0, 51, 52
2, 124144, Note_on_c, 0, 51, 47
2, 124270, Note_off_c, 0, 51, 51
2, 124305, Note_on_c, 0, 70, 59
2, 124307, Note_on_c, 0, 51, 51
2, 124384, Control_c, 0, 11, 86
2, 124439, Note_off_c, 0, 51, 52
2, 124451, Note_off_c, 0, 70, 54
2, 124453, Note_on_c, 0, 75, 61
2, 124457, Note_on_c, 0, 55, 35
2, 124460, Note_on_c, 0, 51, 40
2, 124462, Note_on_c, 0, 63, 48
2, 124489, Control_c, 0, 64, 127
2, 124594, Note_on_c, 0, 74, 62
2, 124613, Note_off_c, 0, 75, 55
2, 124741, Note_on_c, 0, 77, 64
2, 124765, Note_off_c, 0, 74, 55
2, 124829, Control_c, 0, 7, 127
2, 124888, Note_on_c, 0, 75, 66
2, 124900, Note_on_c, 0, 56, 38
2, 124904, Note_off_c, 0, 77, 56
2, 124905, Note_on_c, 0, 53, 30
2, 124930, Note_off_c, 0, 55, 48
2, 124938, Note_off_c, 0, 51, 50
2, 124947, Control_c, 0, 64, 0
2, 125029, Note_on_c, 0, 74, 68
2, 125031, Note_off_c, 0, 75, 56
2, 125040, Control_c, 0, 64, 127
2, 125173, Note_on_c, 0, 77, 68
2, 125197, Note_off_c, 0, 74, 57
2, 125329, Note_off_c, 0, 56, 49
2, 125334, Note_off_c, 0, 77, 57
2, 125336, Note_on_c, 0, 75, 68
2, 125341, Control_c, 0, 64, 0
2, 125342, Note_on_c, 0, 58, 45
2, 125345, Note_on_c, 0, 55, 40
2, 125362, Note_off_c, 0, 53, 47
2, 125434, Control_c, 0, 64, 127
2, 125479, Note_on_c, 0, 74, 66
2, 125506, Note_off_c, 0, 75, 57
2, 125540, Note_off_c, 0, 58, 51
2, 125547, Note_off_c, 0, 55, 50
2, 125572, Note_off_c, 0, 63, 52
2, 125624, Note_on_c, 0, 77, 64
2, 125652, Note_off_c, 0, 74, 56
2, 125705, Control_c, 0, 64, 0
2, 125775, Note_on_c, 0, 75, 61
2, 125801, Note_off_c, 0, 77, 56
2, 125922, Note_on_c, 0, 74, 59
2, 125945, Note_off_c, 0, 75, 55
2, 126084, Note_on_c, 0, 72, 56
2, 126095, Note_off_c, 0, 74, 54
2, 126165, Note_off_c, 0, 72, 54
2, 126229, Control_c, 0, 64, 127
2, 126231, Note_on_c, 0, 70, 48
2, 126232, Note_on_c, 0, 80, 56
2, 126234, Note_on_c, 0, 58, 30
2, 126235, Note_on_c, 0, 62, 35
2, 126377, Note_on_c, 0, 79, 62
2, 126383, Note_off_c, 0, 80, 54
2, 126521, Note_on_c, 0, 82, 68
2, 126548, Note_off_c, 0, 79, 55
2, 126660, Note_off_c, 0, 62, 48
2, 126668, Note_off_c, 0, 58, 47
2, 126669, Note_on_c, 0, 80, 74
2, 126672, Note_on_c, 0, 60, 48
2, 126676, Note_on_c, 0, 63, 54
2, 126686, Control_c, 0, 64, 0
2, 126689, Note_off_c, 0, 82, 57
2, 126779, Control_c, 0, 64, 127
2, 126811, Note_on_c, 0, 79, 80
2, 126827, Note_off_c, 0, 80, 59
2, 126956, Note_on_c, 0, 82, 82
2, 126979, Note_off_c, 0, 79, 60
2, 127063, Note_off_c, 0, 60, 52
2, 127102, Note_off_c, 0, 82, 60
2, 127108, Note_off_c, 0, 63, 53
2, 127119, Note_on_c, 0, 80, 80
2, 127120, Note_on_c, 0, 65, 55
2, 127122, Note_on_c, 0, 62, 52
2, 127131, Control_c, 0, 64, 0
2, 127228, Control_c, 0, 64, 127
2, 127268, Note_on_c, 0, 79, 76
2, 127280, Note_off_c, 0, 80, 60
2, 127294, Note_off_c, 0, 65, 53
2, 127305, Note_off_c, 0, 62, 53
2, 127308, Note_off_c, 0, 70, 52
2, 127416, Note_on_c, 0, 82, 71
2, 127428, Note_off_c, 0, 79, 59
2, 127483, Control_c, 0, 64, 0
2, 127563, Note_on_c, 0, 80, 66
2, 127581, Note_off_c, 0, 82, 58
2, 127710, Note_on_c, 0, 79, 61
2, 127715, Note_off_c, 0, 80, 56
2, 127876, Note_on_c, 0, 77, 56
2, 127880, Note_off_c, 0, 79, 55
2, 127949, Note_off_c, 0, 77, 54
2, 128023, Note_on_c, 0, 87, 42
2, 128027, Control_c, 0, 64, 127
2, 128030, Note_on_c, 0, 63, 25
2, 128031, Note_on_c, 0, 67, 28
2, 128033, Note_on_c, 0, 75, 30
2, 128166, Note_off_c, 0, 87, 50
2, 128168, Note_on_c, 0, 86, 58
2, 128310, Note_off_c, 0, 86, 54
2, 128315, Note_on_c, 0, 89, 63
2, 128456, Note_off_c, 0, 89, 55
2, 128461, Note_on_c, 0, 87, 67
2, 128464, Note_on_c, 0, 65, 45
2, 128468, Note_on_c, 0, 68, 49
2, 128484, Control_c, 0, 64, 0
2, 128497, Note_off_c, 0, 67, 47
2, 128505, Note_off_c, 0, 63, 46
2, 128578, Control_c, 0, 64, 127
2, 128602, Note_off_c, 0, 87, 57
2, 128603, Note_on_c, 0, 86, 72
2, 128763, Note_off_c, 0, 86, 58
2, 128768, Note_on_c, 0, 89, 76
2, 128882, Note_off_c, 0, 65, 51
2, 128896, Note_off_c, 0, 89, 59
2, 128914, Note_on_c, 0, 87, 81
2, 128921, Note_on_c, 0, 70, 50
2, 128925, Note_on_c, 0, 67, 48
2, 128928, Note_off_c, 0, 68, 52
2, 128934, Control_c, 0, 64, 0
2, 129030, Control_c, 0, 64, 127
2, 129062, Note_off_c, 0, 87, 60
2, 129062, Note_on_c, 0, 86, 81
2, 129208, Note_off_c, 0, 75, 47
2, 129209, Note_off_c, 0, 67, 52
2, 129211, Note_off_c, 0, 86, 60
2, 129212, Note_on_c, 0, 89, 86
2, 129242, Note_off_c, 0, 70, 52
2, 129355, Note_off_c, 0, 89, 61
2, 129357, Note_on_c, 0, 75, 57
2, 129358, Note_on_c, 0, 87, 86
2, 129362, Control_c, 0, 64, 0
2, 129367, Note_on_c, 0, 73, 50
2, 129367, Note_on_c, 0, 67, 40
2, 129369, Note_on_c, 0, 70, 47
2, 129458, Control_c, 0, 64, 127
2, 129522, Note_off_c, 0, 87, 61
2, 129524, Note_on_c, 0, 85, 83
2, 129667, Note_off_c, 0, 85, 60
2, 129668, Note_on_c, 0, 84, 76
2, 129761, Note_off_c, 0, 73, 52
2, 129790, Note_off_c, 0, 67, 50
2, 129801, Note_off_c, 0, 70, 51
2, 129828, Note_off_c, 0, 84, 59
2, 129834, Note_on_c, 0, 83, 69
2, 129839, Note_on_c, 0, 72, 60
2, 129843, Note_on_c, 0, 68, 60
2, 129857, Control_c, 0, 64, 0
2, 129949, Control_c, 0, 64, 127
2, 129956, Note_off_c, 0, 83, 57
2, 129957, Note_on_c, 0, 84, 62
2, 129997, Note_off_c, 0, 75, 54
2, 130070, Note_off_c, 0, 72, 55
2, 130077, Note_off_c, 0, 68, 55
2, 130098, Note_off_c, 0, 84, 55
2, 130100, Note_on_c, 0, 82, 54
2, 130241, Note_off_c, 0, 82, 53
2, 130243, Note_on_c, 0, 80, 54
2, 130287, Control_c, 0, 64, 0
2, 130382, Control_c, 0, 64, 127
2, 130406, Note_off_c, 0, 80, 53
2, 130408, Note_on_c, 0, 79, 58
2, 130553, Note_off_c, 0, 79, 54
2, 130554, Note_on_c, 0, 77, 63
2, 130712, Note_off_c, 0, 77, 55
2, 130715, Note_on_c, 0, 75, 67
2, 130720, Note_on_c, 0, 63, 46
2, 130723, Note_on_c, 0, 67, 48
2, 130726, Note_on_c, 0, 58, 43
2, 130731, Control_c, 0, 64, 0
2, 130827, Control_c, 0, 64, 127
2, 130857, Note_off_c, 0, 75, 57
2, 130860, Note_on_c, 0, 74, 72
2, 130962, Note_off_c, 0, 58, 50
2, 130974, Note_off_c, 0, 67, 52
2, 131004, Note_off_c, 0, 63, 51
2, 131008, Note_off_c, 0, 74, 58
2, 131011, Note_on_c, 0, 77, 72
2, 131157, Note_off_c, 0, 77, 58
2, 131158, Note_on_c, 0, 80, 72
2, 131166, Note_on_c, 0, 58, 43
2, 131167, Note_on_c, 0, 68, 48
2, 131168, Note_on_c, 0, 65, 45
2, 131185, Control_c, 0, 64, 0
2, 131282, Control_c, 0, 64, 127
2, 131304, Note_off_c, 0, 80, 58
2, 131307, Note_on_c, 0, 77, 69
2, 131424, Note_off_c, 0, 65, 51
2, 131437, Note_off_c, 0, 68, 52
2, 131466, Note_off_c, 0, 58, 50
2, 131471, Note_off_c, 0, 77, 57
2, 131473, Note_on_c, 0, 74, 66
2, 131536, Note_off_c, 0, 74, 56
2, 131618, Note_on_c, 0, 63, 48
2, 131619, Note_on_c, 0, 75, 57
2, 131627, Control_c, 0, 64, 0
2, 131722, Control_c, 0, 64, 127
2, 131761, Note_off_c, 0, 63, 52
2, 131764, Note_on_c, 0, 62, 48
2, 131905, Note_off_c, 0, 75, 54
2, 131908, Note_off_c, 0, 62, 52
2, 131910, Note_on_c, 0, 65, 49
2, 132044, Note_on_c, 0, 79, 66
2, 132052, Note_off_c, 0, 65, 52
2, 132056, Note_on_c, 0, 67, 46
2, 132057, Note_on_c, 0, 63, 50
2, 132062, Note_on_c, 0, 75, 48
2, 132079, Control_c, 0, 64, 0
2, 132172, Control_c, 0, 64, 127
2, 132196, Note_off_c, 0, 63, 52
2, 132197, Note_on_c, 0, 62, 50
2, 132341, Note_off_c, 0, 62, 52
2, 132344, Note_on_c, 0, 65, 51
2, 132487, Note_off_c, 0, 65, 52
2, 132488, Note_on_c, 0, 63, 52
2, 132510, Control_c, 0, 64, 0
2, 132605, Control_c, 0, 64, 127
2, 132631, Note_off_c, 0, 63, 53
2, 132633, Note_on_c, 0, 62, 52
2, 132765, Note_off_c, 0, 75, 52
2, 132776, Note_off_c, 0, 62, 53
2, 132777, Note_on_c, 0, 65, 53
2, 132825, Note_off_c, 0, 67, 51
2, 132898, Note_off_c, 0, 79, 56
2, 132908, Note_off_c, 0, 65, 53
2, 132914, Note_on_c, 0, 80, 75
2, 132922, Note_on_c, 0, 75, 61
2, 132924, Note_on_c, 0, 68, 56
2, 132926, Note_on_c, 0, 63, 54
2, 132943, Control_c, 0, 64, 0
2, 133039, Control_c, 0, 64, 127
2, 133071, Note_off_c, 0, 63, 53
2, 133072, Note_on_c, 0, 62, 54
2, 133217, Note_off_c, 0, 62, 53
2, 133218, Note_on_c, 0, 60, 55
2, 133260, Note_off_c, 0, 75, 55
2, 133299, Note_off_c, 0, 68, 54
2, 133343, Note_off_c, 0, 80, 59
2, 133351, Note_off_c, 0, 60, 53
2, 133374, Note_on_c, 0, 82, 90
2, 133384, Note_on_c, 0, 75, 66
2, 133386, Note_on_c, 0, 58, 56
2, 133389, Note_on_c, 0, 79, 70
2, 133391, Note_on_c, 0, 70, 64
2, 133429, Control_c, 0, 64, 0
2, 133524, Control_c, 0, 64, 127
2, 133531, Note_off_c, 0, 58, 54
2, 133532, Note_on_c, 0, 57, 56
2, 133695, Note_off_c, 0, 57, 54
2, 133696, Note_on_c, 0, 60, 57
2, 133858, Note_off_c, 0, 60, 54
2, 133860, Note_on_c, 0, 58, 58
2, 133921, Control_c, 0, 64, 0
2, 134007, Note_off_c, 0, 58, 54
2, 134008, Note_on_c, 0, 56, 58
2, 134016, Note_off_c, 0, 79, 57
2, 134018, Control_c, 0, 64, 127
2, 134103, Note_off_c, 0, 75, 56
2, 134159, Note_off_c, 0, 70, 56
2, 134172, Note_off_c, 0, 56, 54
2, 134174, Note_on_c, 0, 55, 59
2, 134297, Note_off_c, 0, 82, 62
2, 134308, Note_off_c, 0, 55, 54
2, 134329, Note_on_c, 0, 74, 90
2, 134334, Note_on_c, 0, 62, 76
2, 134339, Note_on_c, 0, 70, 85
2, 134340, Note_on_c, 0, 53, 60
2, 134341, Note_on_c, 0, 46, 60
2, 134343, Note_on_c, 0, 68, 75
2, 134362, Control_c, 0, 64, 0
2, 134457, Control_c, 0, 64, 127
2, 134480, Note_off_c, 0, 53, 55
2, 134481, Note_on_c, 0, 55, 60
2, 134609, Note_off_c, 0, 55, 55
2, 134610, Note_on_c, 0, 56, 58
2, 134753, Note_off_c, 0, 56, 54
2, 134756, Note_on_c, 0, 58, 56
2, 134796, Control_c, 0, 64, 0
2, 134893, Control_c, 0, 64, 127
2, 134900, Note_off_c, 0, 58, 54
2, 134902, Note_on_c, 0, 53, 53
2, 134940, Note_off_c, 0, 68, 59
2, 134961, Note_off_c, 0, 62, 59
2, 134974, Note_off_c, 0, 70, 61
2, 135049, Note_off_c, 0, 53, 53
2, 135050, Note_on_c, 0, 56, 51
2, 135164, Note_off_c, 0, 56, 52
2, 135190, Note_off_c, 0, 74, 62
2, 135194, Note_on_c, 0, 75, 72
2, 135200, Note_off_c, 0, 46, 55
2, 135202, Note_on_c, 0, 70, 52
2, 135203, Note_on_c, 0, 63, 45
2, 135204, Note_on_c, 0, 67, 50
2, 135206, Note_on_c, 0, 55, 48
2, 135207, Note_on_c, 0, 51, 48
2, 135229, Control_c, 0, 64, 0
2, 135323, Control_c, 0, 64, 127
2, 135342, Note_off_c, 0, 55, 52
2, 135345, Note_on_c, 0, 53, 48
2, 135454, Note_off_c, 0, 63, 51
2, 135466, Note_off_c, 0, 70, 53
2, 135470, Note_off_c, 0, 67, 52
2, 135486, Note_off_c, 0, 75, 58
2, 135496, Note_off_c, 0, 53, 52
2, 135496, Note_on_c, 0, 55, 39
2, 135497, Note_off_c, 0, 51, 52
2, 135634, Note_off_c, 0, 55, 49
2, 135637, Note_on_c, 0, 56, 42
2, 135685, Control_c, 0, 64, 0
2, 135779, Note_off_c, 0, 56, 50
2, 135779, Note_on_c, 0, 58, 45
2, 135921, Note_off_c, 0, 58, 51
2, 135927, Note_on_c, 0, 60, 48
2, 136071, Note_off_c, 0, 60, 52
2, 136075, Note_on_c, 0, 62, 36
2, 136214, Note_on_c, 0, 63, 36
2, 136220, Note_off_c, 0, 62, 49
2, 136376, Note_off_c, 0, 63, 49
2, 136386, Note_on_c, 0, 65, 39
2, 136531, Note_on_c, 0, 67, 42
2, 136534, Note_off_c, 0, 65, 49
2, 136534, Note_on_c, 0, 75, 48
2, 136675, Note_on_c, 0, 68, 45
2, 136684, Note_on_c, 0, 77, 51
2, 136686, Note_off_c, 0, 75, 52
2, 136698, Note_off_c, 0, 67, 50
2, 136830, Note_on_c, 0, 70, 48
2, 136830, Note_on_c, 0, 79, 54
2, 136833, Note_off_c, 0, 68, 51
2, 136833, Note_off_c, 0, 77, 52
2, 136987, Note_on_c, 0, 77, 54
2, 136991, Note_on_c, 0, 68, 48
2, 137023, Note_off_c, 0, 70, 52
2, 137025, Note_off_c, 0, 79, 53
2, 137144, Note_on_c, 0, 67, 47
2, 137145, Note_on_c, 0, 75, 53
2, 137153, Note_off_c, 0, 77, 53
2, 137166, Note_off_c, 0, 68, 52
2, 137287, Note_on_c, 0, 74, 52
2, 137292, Note_off_c, 0, 75, 53
2, 137294, Note_on_c, 0, 65, 46
2, 137302, Note_off_c, 0, 67, 51
2, 137435, Note_off_c, 0, 74, 53
2, 137439, Note_on_c, 0, 63, 45
2, 137443, Note_on_c, 0, 72, 51
2, 137444, Note_off_c, 0, 65, 51
2, 137600, Note_on_c, 0, 70, 50
2, 137601, Note_on_c, 0, 62, 44
2, 137612, Note_off_c, 0, 63, 51
2, 137619, Note_off_c, 0, 72, 52
2, 137753, Note_on_c, 0, 60, 43
2, 137755, Note_off_c, 0, 62, 51
2, 137756, Note_on_c, 0, 68, 49
2, 137767, Note_off_c, 0, 70, 52
2, 137894, Note_on_c, 0, 67, 48
2, 137904, Note_off_c, 0, 68, 52
2, 137904, Note_on_c, 0, 58, 46
2, 137906, Note_off_c, 0, 60, 50
2, 138037, Note_on_c, 0, 68, 47
2, 138042, Note_off_c, 0, 67, 52
2, 138044, Note_on_c, 0, 60, 44
2, 138075, Note_off_c, 0, 58, 51
2, 138185, Note_on_c, 0, 58, 42
2, 138186, Note_on_c, 0, 67, 46
2, 138208, Note_off_c, 0, 68, 51
2, 138214, Note_off_c, 0, 60, 51
2, 138334, Note_off_c, 0, 67, 51
2, 138334, Note_on_c, 0, 65, 45
2, 138334, Note_on_c, 0, 56, 40
2, 138339, Note_off_c, 0, 58, 50
2, 138474, Note_on_c, 0, 63, 44
2, 138481, Note_on_c, 0, 55, 38
2, 138487, Note_off_c, 0, 56, 50
2, 138488, Note_off_c, 0, 65, 51
2, 138621, Note_on_c, 0, 53, 36
2, 138622, Note_on_c, 0, 62, 42
2, 138639, Note_off_c, 0, 63, 51
2, 138648, Note_off_c, 0, 55, 49
2, 138735, Note_off_c, 0, 53, 49
2, 138743, Note_off_c, 0, 62, 50
2, 138759, Note_on_c, 0, 51, 30
2, 138764, Note_on_c, 0, 63, 30
2, 138906, Note_on_c, 0, 65, 35
2, 138916, Note_off_c, 0, 63, 47
2, 139049, Note_off_c, 0, 65, 48
2, 139049, Note_on_c, 0, 67, 40
2, 139059, Note_off_c, 0, 51, 47
2, 139191, Note_off_c, 0, 67, 50
2, 139193, Note_on_c, 0, 68, 46
2, 139333, Note_on_c, 0, 70, 51
2, 139336, Note_off_c, 0, 68, 51
2, 139476, Note_off_c, 0, 70, 52
2, 139487, Note_on_c, 0, 72, 56
2, 139626, Note_on_c, 0, 74, 62
2, 139632, Note_off_c, 0, 72, 54
2, 139772, Note_off_c, 0, 74, 55
2, 139777, Note_on_c, 0, 75, 67
2, 139939, Note_off_c, 0, 75, 57
2, 139944, Note_on_c, 0, 77, 73
2, 140090, Note_on_c, 0, 63, 70
2, 140091, Note_off_c, 0, 77, 58
2, 140091, Note_on_c, 0, 79, 78
2, 140238, Note_on_c, 0, 65, 72
2, 140244, Note_off_c, 0, 63, 57
2, 140245, Note_on_c, 0, 80, 80
2, 140257, Note_off_c, 0, 79, 59
2, 140398, Note_on_c, 0, 67, 83
2, 140403, Note_on_c, 0, 82, 90
2, 140407, Note_off_c, 0, 80, 60
2, 140418, Note_off_c, 0, 65, 58
2, 140523, Note_off_c, 0, 82, 62
2, 140544, Note_on_c, 0, 80, 85
2, 140555, Note_on_c, 0, 65, 77
2, 140566, Note_off_c, 0, 67, 60
2, 140693, Note_on_c, 0, 63, 75
2, 140697, Note_on_c, 0, 79, 83
2, 140713, Note_off_c, 0, 65, 59
2, 140715, Note_off_c, 0, 80, 61
2, 140856, Note_on_c, 0, 77, 77
2, 140856, Note_on_c, 0, 62, 69
2, 140876, Note_off_c, 0, 63, 59
2, 140882, Note_off_c, 0, 79, 60
2, 141001, Note_on_c, 0, 60, 63
2, 141005, Note_on_c, 0, 75, 71
2, 141012, Note_off_c, 0, 62, 57
2, 141016, Note_off_c, 0, 77, 59
2, 141151, Note_on_c, 0, 58, 57
2, 141152, Note_on_c, 0, 74, 65
2, 141154, Note_off_c, 0, 75, 58
2, 141168, Note_off_c, 0, 60, 55
2, 141294, Note_on_c, 0, 56, 52
2, 141297, Note_on_c, 0, 72, 60
2, 141299, Note_off_c, 0, 74, 56
2, 141319, Note_off_c, 0, 58, 54
2, 141449, Note_on_c, 0, 55, 46
2, 141451, Note_on_c, 0, 70, 54
2, 141458, Note_off_c, 0, 72, 55
2, 141462, Note_off_c, 0, 56, 53
2, 141618, Note_on_c, 0, 72, 47
2, 141619, Note_off_c, 0, 70, 53
2, 141619, Note_on_c, 0, 56, 39
2, 141647, Note_off_c, 0, 55, 51
2, 141765, Note_on_c, 0, 55, 34
2, 141766, Note_on_c, 0, 70, 42
2, 141782, Note_off_c, 0, 72, 51
2, 141790, Note_off_c, 0, 56, 49
2, 141917, Note_on_c, 0, 53, 28
2, 141917, Note_on_c, 0, 68, 36
2, 141921, Note_off_c, 0, 55, 48
2, 141930, Note_off_c, 0, 70, 50
2, 142071, Note_on_c, 0, 51, 22
2, 142072, Note_on_c, 0, 67, 30
2, 142087, Note_off_c, 0, 53, 47
2, 142097, Note_off_c, 0, 68, 49
2, 142226, Note_on_c, 0, 65, 25
2, 142228, Note_on_c, 0, 50, 17
2, 142245, Note_off_c, 0, 51, 45
2, 142251, Note_off_c, 0, 67, 47
2, 142331, Note_off_c, 0, 65, 46
2, 142347, Note_off_c, 0, 50, 44
2, 142370, Note_on_c, 0, 67, 100
2, 142378, Note_on_c, 0, 63, 80
2, 142382, Note_on_c, 0, 58, 88
2, 142384, Note_on_c, 0, 49, 84
2, 142388, Note_on_c, 0, 39, 86
2, 142392, Note_on_c, 0, 55, 90
2, 142394, Note_on_c, 0, 37, 84
2, 142395, Control_c, 0, 64, 127
2, 143076, Note_off_c, 0, 63, 60
2, 143080, Note_off_c, 0, 58, 62
2, 143090, Note_off_c, 0, 55, 62
2, 143113, Note_off_c, 0, 67, 65
2, 143295, Note_on_c, 0, 63, 86
2, 143308, Note_on_c, 0, 55, 84
2, 143310, Note_on_c, 0, 58, 88
2, 143314, Note_on_c, 0, 51, 100
2, 143324, Control_c, 0, 64, 0
2, 143425, Control_c, 0, 64, 127
2, 143549, Note_off_c, 0, 49, 61
2, 143551, Note_off_c, 0, 39, 61
2, 143559, Note_off_c, 0, 37, 61
2, 143623, Note_off_c, 0, 58, 62
2, 143624, Note_off_c, 0, 55, 61
2, 143626, Note_off_c, 0, 51, 65
2, 143650, Note_off_c, 0, 63, 61
2, 143831, Control_c, 0, 64, 0
2, 144069, Note_on_c, 0, 79, 54
2, 144090, Note_on_c, 0, 67, 42
2, 144093, Note_on_c, 0, 61, 28
2, 144094, Note_on_c, 0, 63, 30
2, 144136, Note_off_c, 0, 79, 53
2, 144153, Note_off_c, 0, 67, 50
2, 144154, Note_off_c, 0, 61, 47
2, 144156, Note_off_c, 0, 63, 47
2, 144222, Note_on_c, 0, 80, 54
2, 144246, Note_on_c, 0, 60, 29
2, 144247, Note_on_c, 0, 63, 30
2, 144248, Note_on_c, 0, 68, 42
2, 144361, Note_off_c, 0, 80, 53
2, 144362, Note_off_c, 0, 68, 50
2, 144363, Note_off_c, 0, 63, 47
2, 144381, Note_off_c, 0, 60, 47
2, 144512, Note_on_c, 0, 80, 62
2, 144530, Note_on_c, 0, 68, 50
2, 144532, Note_on_c, 0, 63, 34
2, 144533, Note_on_c, 0, 60, 29
2, 144577, Note_off_c, 0, 80, 55
2, 144587, Note_off_c, 0, 60, 47
2, 144589, Note_off_c, 0, 68, 52
2, 144591, Note_off_c, 0, 63, 48
2, 144662, Note_on_c, 0, 80, 66
2, 144681, Note_on_c, 0, 68, 54
2, 144682, Note_on_c, 0, 60, 34
2, 144684, Note_on_c, 0, 63, 37
2, 144794, Note_off_c, 0, 63, 49
2, 144796, Note_off_c, 0, 80, 56
2, 144800, Note_off_c, 0, 68, 53
2, 144808, Note_off_c, 0, 60, 48
2, 144943, Note_on_c, 0, 84, 66
2, 144962, Note_on_c, 0, 63, 39
2, 144964, Note_on_c, 0, 72, 54
2, 144965, Note_on_c, 0, 68, 42
2, 144967, Note_on_c, 0, 60, 42
2, 145009, Note_off_c, 0, 84, 56
2, 145019, Note_off_c, 0, 60, 50
2, 145021, Note_off_c, 0, 72, 53
2, 145026, Note_off_c, 0, 63, 49
2, 145027, Note_off_c, 0, 68, 50
2, 145089, Note_on_c, 0, 87, 54
2, 145110, Note_on_c, 0, 75, 42
2, 145111, Note_on_c, 0, 68, 30
2, 145112, Note_on_c, 0, 60, 24
2, 145114, Note_on_c, 0, 63, 27
2, 145220, Note_off_c, 0, 75, 50
2, 145222, Note_off_c, 0, 87, 53
2, 145223, Note_off_c, 0, 68, 47
2, 145225, Note_off_c, 0, 60, 46
2, 145238, Note_off_c, 0, 63, 46
2, 145929, Note_on_c, 0, 69, 100
2, 145939, Note_on_c, 0, 66, 94
2, 145945, Note_on_c, 0, 60, 91
2, 145952, Note_on_c, 0, 51, 76
2, 145955, Note_on_c, 0, 57, 85
2, 145967, Note_on_c, 0, 39, 80
2, 145967, Control_c, 0, 64, 127
2, 146566, Note_off_c, 0, 60, 62
2, 146569, Note_off_c, 0, 69, 65
2, 146631, Note_off_c, 0, 57, 61
2, 146636, Note_off_c, 0, 66, 63
2, 146660, Note_off_c, 0, 39, 60
2, 146728, Note_off_c, 0, 51, 59
2, 146795, Note_on_c, 0, 66, 90
2, 146802, Note_on_c, 0, 60, 70
2, 146805, Note_on_c, 0, 57, 78
2, 146815, Control_c, 0, 64, 0
2, 146908, Control_c, 0, 64, 127
2, 147021, Note_off_c, 0, 57, 59
2, 147035, Note_off_c, 0, 60, 57
2, 147044, Note_off_c, 0, 66, 62
2, 147280, Control_c, 0, 64, 0
2, 147522, Note_on_c, 0, 81, 54
2, 147528, Note_on_c, 0, 69, 42
2, 147530, Note_on_c, 0, 63, 28
2, 147531, Note_on_c, 0, 66, 30
2, 147555, Note_off_c, 0, 81, 53
2, 147556, Note_off_c, 0, 69, 50
2, 147558, Note_off_c, 0, 63, 47
2, 147558, Note_off_c, 0, 66, 47
2, 147665, Note_on_c, 0, 82, 54
2, 147672, Note_on_c, 0, 65, 30
2, 147674, Note_on_c, 0, 70, 42
2, 147675, Note_on_c, 0, 61, 27
2, 147765, Note_off_c, 0, 70, 50
2, 147785, Note_off_c, 0, 65, 47
2, 147790, Note_off_c, 0, 61, 46
2, 147791, Note_off_c, 0, 82, 53
2, 147938, Note_on_c, 0, 82, 58
2, 147943, Note_on_c, 0, 70, 46
2, 147945, Note_on_c, 0, 65, 34
2, 147946, Note_on_c, 0, 61, 30
2, 147991, Note_off_c, 0, 65, 48
2, 147993, Note_off_c, 0, 70, 51
2, 147996, Note_off_c, 0, 61, 47
2, 147999, Note_off_c, 0, 82, 54
2, 148079, Note_on_c, 0, 82, 61
2, 148087, Note_on_c, 0, 70, 49
2, 148088, Note_on_c, 0, 61, 34
2, 148090, Note_on_c, 0, 65, 37
2, 148176, Note_off_c, 0, 65, 49
2, 148178, Note_off_c, 0, 61, 48
2, 148185, Note_off_c, 0, 70, 52
2, 148206, Note_off_c, 0, 82, 55
2, 148349, Note_on_c, 0, 85, 66
2, 148359, Note_on_c, 0, 70, 42
2, 148360, Note_on_c, 0, 73, 54
2, 148363, Note_on_c, 0, 65, 44
2, 148364, Note_on_c, 0, 61, 36
2, 148407, Note_off_c, 0, 73, 53
2, 148410, Note_off_c, 0, 70, 50
2, 148414, Note_off_c, 0, 65, 51
2, 148415, Note_off_c, 0, 61, 49
2, 148417, Note_off_c, 0, 85, 56
2, 148494, Note_on_c, 0, 89, 54
2, 148499, Note_on_c, 0, 77, 34
2, 148500, Note_on_c, 0, 65, 27
2, 148502, Note_on_c, 0, 61, 24
2, 148504, Note_on_c, 0, 70, 30
2, 148604, Note_off_c, 0, 65, 46
2, 148609, Note_off_c, 0, 77, 48
2, 148613, Note_off_c, 0, 70, 47
2, 148616, Note_off_c, 0, 61, 46
2, 148620, Note_off_c, 0, 89, 53
2, 149306, Note_on_c, 0, 85, 94
2, 149314, Note_on_c, 0, 54, 86
2, 149320, Note_on_c, 0, 76, 74
2, 149326, Note_on_c, 0, 73, 66
2, 149333, Note_on_c, 0, 42, 76
2, 149357, Control_c, 0, 64, 127
2, 149944, Note_off_c, 0, 54, 61
2, 149955, Note_off_c, 0, 42, 59
2, 150083, Note_off_c, 0, 76, 59
2, 150086, Note_off_c, 0, 73, 56
2, 150157, Note_off_c, 0, 85, 63
2, 150174, Note_on_c, 0, 82, 87
2, 150188, Note_on_c, 0, 66, 74
2, 150192, Note_on_c, 0, 70, 62
2, 150195, Note_on_c, 0, 76, 67
2, 150197, Note_on_c, 0, 54, 71
2, 150213, Control_c, 0, 64, 0
2, 150308, Control_c, 0, 64, 127
2, 150683, Control_c, 0, 64, 0
2, 150946, Note_off_c, 0, 54, 58
2, 150970, Note_off_c, 0, 66, 59
2, 151011, Note_off_c, 0, 76, 57
2, 151029, Note_off_c, 0, 70, 55
2, 151080, Note_off_c, 0, 82, 61
2, 151104, Note_on_c, 0, 81, 76
2, 151107, Note_on_c, 0, 65, 64
2, 151108, Note_on_c, 0, 53, 62
2, 151395, Note_off_c, 0, 81, 59
2, 151397, Note_off_c, 0, 65, 56
2, 151398, Note_on_c, 0, 84, 48
2, 151400, Note_on_c, 0, 60, 36
2, 151543, Note_off_c, 0, 84, 52
2, 151546, Note_off_c, 0, 60, 49
2, 151547, Note_on_c, 0, 77, 48
2, 151548, Note_on_c, 0, 65, 36
2, 151841, Note_off_c, 0, 77, 52
2, 151842, Note_off_c, 0, 65, 49
2, 151845, Note_on_c, 0, 81, 50
2, 151846, Note_on_c, 0, 63, 38
2, 151989, Note_off_c, 0, 81, 52
2, 151991, Note_off_c, 0, 63, 49
2, 151992, Note_on_c, 0, 82, 52
2, 151993, Note_on_c, 0, 61, 40
2, 152301, Note_off_c, 0, 82, 53
2, 152302, Note_off_c, 0, 61, 50
2, 152304, Note_on_c, 0, 85, 54
2, 152305, Note_on_c, 0, 58, 42
2, 152449, Note_off_c, 0, 85, 53
2, 152450, Note_off_c, 0, 58, 50
2, 152452, Note_on_c, 0, 77, 56
2, 152453, Note_on_c, 0, 61, 44
2, 152766, Note_off_c, 0, 77, 54
2, 152767, Note_off_c, 0, 61, 51
2, 152769, Note_on_c, 0, 82, 70
2, 152771, Note_on_c, 0, 64, 58
2, 152807, Note_off_c, 0, 53, 55
2, 152829, Note_off_c, 0, 82, 57
2, 152833, Note_off_c, 0, 64, 54
2, 152913, Note_on_c, 0, 81, 78
2, 152915, Note_on_c, 0, 65, 66
2, 152920, Note_on_c, 0, 53, 63
2, 153203, Note_off_c, 0, 81, 59
2, 153205, Note_off_c, 0, 65, 56
2, 153206, Note_on_c, 0, 84, 48
2, 153207, Note_on_c, 0, 60, 36
2, 153349, Note_off_c, 0, 84, 52
2, 153350, Note_off_c, 0, 60, 49
2, 153352, Note_on_c, 0, 65, 36
2, 153353, Note_on_c, 0, 81, 48
2, 153638, Note_off_c, 0, 81, 52
2, 153641, Note_off_c, 0, 65, 49
2, 153642, Note_on_c, 0, 77, 51
2, 153644, Note_on_c, 0, 63, 39
2, 153786, Note_off_c, 0, 77, 52
2, 153788, Note_off_c, 0, 63, 49
2, 153790, Note_on_c, 0, 82, 52
2, 153791, Note_on_c, 0, 61, 40
2, 154098, Note_off_c, 0, 82, 53
2, 154102, Note_off_c, 0, 61, 50
2, 154103, Note_on_c, 0, 58, 43
2, 154115, Note_on_c, 0, 85, 55
2, 154246, Note_off_c, 0, 58, 50
2, 154261, Note_off_c, 0, 85, 53
2, 154265, Note_on_c, 0, 77, 57
2, 154266, Note_on_c, 0, 61, 45
2, 154574, Note_off_c, 0, 77, 54
2, 154576, Note_off_c, 0, 61, 51
2, 154578, Note_on_c, 0, 82, 60
2, 154581, Note_on_c, 0, 64, 48
2, 154602, Note_off_c, 0, 53, 55
2, 154641, Note_off_c, 0, 64, 52
2, 154642, Note_off_c, 0, 82, 55
2, 154696, Note_on_c, 0, 81, 72
2, 154698, Note_on_c, 0, 53, 55
2, 154700, Note_on_c, 0, 65, 48
2, 154766, Note_off_c, 0, 81, 58
2, 154845, Note_on_c, 0, 83, 70
2, 154991, Note_off_c, 0, 53, 53
2, 154993, Note_on_c, 0, 84, 68
2, 154994, Note_off_c, 0, 65, 52
2, 155057, Note_off_c, 0, 83, 57
2, 155086, Note_off_c, 0, 84, 57
2, 155118, Note_on_c, 0, 77, 66
2, 155199, Note_off_c, 0, 77, 56
2, 155262, Note_on_c, 0, 80, 64
2, 155408, Note_on_c, 0, 81, 62
2, 155480, Note_off_c, 0, 80, 56
2, 155521, Note_off_c, 0, 81, 55
2, 155555, Note_on_c, 0, 72, 59
2, 155636, Note_off_c, 0, 72, 54
2, 155703, Note_on_c, 0, 76, 57
2, 155853, Note_on_c, 0, 77, 55
2, 155928, Note_off_c, 0, 76, 54
2, 155963, Note_off_c, 0, 77, 53
2, 155997, Note_on_c, 0, 69, 53
2, 156078, Note_off_c, 0, 69, 53
2, 156146, Note_on_c, 0, 71, 51
2, 156296, Note_on_c, 0, 72, 48
2, 156402, Note_off_c, 0, 71, 52
2, 156409, Note_off_c, 0, 72, 52
2, 156414, Control_c, 0, 64, 127
2, 156442, Note_on_c, 0, 65, 48
2, 156444, Note_on_c, 0, 53, 60
2, 156587, Note_off_c, 0, 53, 55
2, 156590, Note_on_c, 0, 69, 52
2, 156591, Note_on_c, 0, 63, 84
2, 156615, Note_off_c, 0, 65, 52
2, 156731, Note_on_c, 0, 72, 56
2, 156756, Note_off_c, 0, 69, 53
2, 156848, Control_c, 0, 64, 0
2, 156878, Note_on_c, 0, 77, 60
2, 156899, Note_off_c, 0, 72, 54
2, 157023, Note_on_c, 0, 69, 48
2, 157029, Note_off_c, 0, 77, 55
2, 157167, Note_on_c, 0, 72, 48
2, 157174, Note_off_c, 0, 69, 52
2, 157299, Note_on_c, 0, 65, 50
2, 157337, Note_off_c, 0, 72, 52
2, 157449, Note_on_c, 0, 72, 52
2, 157477, Note_off_c, 0, 65, 52
2, 157593, Note_on_c, 0, 69, 55
2, 157646, Note_off_c, 0, 72, 53
2, 157695, Note_off_c, 0, 63, 61
2, 157744, Note_on_c, 0, 70, 57
2, 157746, Note_on_c, 0, 62, 52
2, 157772, Note_off_c, 0, 69, 53
2, 157908, Note_on_c, 0, 72, 60
2, 157911, Note_on_c, 0, 60, 50
2, 157932, Note_off_c, 0, 70, 54
2, 157952, Note_off_c, 0, 62, 53
2, 158055, Note_on_c, 0, 74, 60
2, 158058, Note_on_c, 0, 58, 48
2, 158076, Note_off_c, 0, 72, 55
2, 158099, Note_off_c, 0, 60, 52
2, 158137, Note_off_c, 0, 74, 55
2, 158169, Note_off_c, 0, 58, 52
2, 158203, Note_on_c, 0, 65, 48
2, 158204, Note_on_c, 0, 53, 52
2, 158210, Control_c, 0, 64, 127
2, 158346, Note_off_c, 0, 53, 53
2, 158350, Note_off_c, 0, 65, 52
2, 158351, Note_on_c, 0, 69, 48
2, 158352, Note_on_c, 0, 63, 76
2, 158492, Note_on_c, 0, 72, 54
2, 158508, Note_off_c, 0, 69, 52
2, 158637, Note_on_c, 0, 77, 60
2, 158645, Control_c, 0, 64, 0
2, 158666, Note_off_c, 0, 72, 53
2, 158781, Note_on_c, 0, 69, 48
2, 158784, Note_off_c, 0, 77, 55
2, 158928, Note_on_c, 0, 72, 48
2, 158932, Note_off_c, 0, 69, 52
2, 159074, Note_on_c, 0, 65, 54
2, 159087, Note_off_c, 0, 72, 52
2, 159222, Note_on_c, 0, 72, 60
2, 159229, Control_c, 0, 64, 96
2, 159247, Note_off_c, 0, 65, 53
2, 159370, Note_on_c, 0, 69, 48
2, 159389, Note_off_c, 0, 72, 55
2, 159464, Note_off_c, 0, 63, 59
2, 159518, Note_on_c, 0, 62, 53
2, 159521, Note_on_c, 0, 70, 48
2, 159547, Note_off_c, 0, 69, 52
2, 159667, Note_on_c, 0, 72, 54
2, 159670, Note_on_c, 0, 60, 51
2, 159705, Note_off_c, 0, 70, 52
2, 159709, Note_off_c, 0, 62, 53
2, 159816, Note_on_c, 0, 58, 48
2, 159817, Note_on_c, 0, 74, 60
2, 159826, Note_off_c, 0, 72, 53
2, 159841, Control_c, 0, 64, 0
2, 159865, Note_off_c, 0, 60, 52
2, 159903, Note_off_c, 0, 74, 55
2, 159945, Note_off_c, 0, 58, 52
2, 159977, Note_on_c, 0, 66, 48
2, 159980, Note_on_c, 0, 60, 48
2, 160042, Control_c, 0, 64, 106
2, 160123, Note_on_c, 0, 69, 48
2, 160125, Note_on_c, 0, 57, 51
2, 160140, Note_off_c, 0, 66, 52
2, 160181, Note_off_c, 0, 60, 52
2, 160270, Note_on_c, 0, 66, 54
2, 160270, Note_on_c, 0, 60, 54
2, 160288, Note_off_c, 0, 57, 52
2, 160309, Note_off_c, 0, 69, 52
2, 160400, Note_on_c, 0, 58, 57
2, 160401, Note_on_c, 0, 67, 60
2, 160404, Note_off_c, 0, 66, 53
2, 160423, Note_off_c, 0, 60, 53
2, 160564, Note_on_c, 0, 69, 66
2, 160566, Note_on_c, 0, 57, 60
2, 160592, Note_off_c, 0, 58, 54
2, 160612, Note_off_c, 0, 67, 55
2, 160710, Note_on_c, 0, 70, 66
2, 160713, Note_on_c, 0, 55, 60
2, 160717, Control_c, 0, 64, 0
2, 160732, Note_off_c, 0, 57, 55
2, 160748, Note_off_c, 0, 69, 56
2, 160829, Note_off_c, 0, 70, 56
2, 160830, Note_off_c, 0, 55, 55
2, 160857, Note_on_c, 0, 56, 48
2, 160859, Note_on_c, 0, 62, 48
2, 160917, Control_c, 0, 64, 106
2, 161005, Note_on_c, 0, 53, 48
2, 161006, Note_on_c, 0, 65, 48
2, 161028, Note_off_c, 0, 62, 52
2, 161040, Note_off_c, 0, 56, 52
2, 161148, Note_on_c, 0, 62, 52
2, 161151, Note_on_c, 0, 56, 51
2, 161180, Note_off_c, 0, 65, 52
2, 161193, Note_off_c, 0, 53, 52
2, 161294, Note_on_c, 0, 63, 57
2, 161297, Note_on_c, 0, 55, 54
2, 161329, Note_off_c, 0, 62, 53
2, 161334, Note_off_c, 0, 56, 52
2, 161445, Note_on_c, 0, 53, 57
2, 161447, Note_on_c, 0, 65, 61
2, 161472, Note_off_c, 0, 63, 54
2, 161478, Note_off_c, 0, 55, 53
2, 161608, Note_on_c, 0, 67, 66
2, 161610, Note_on_c, 0, 51, 60
2, 161627, Control_c, 0, 64, 0
2, 161654, Note_off_c, 0, 65, 55
2, 161657, Note_off_c, 0, 53, 54
2, 161727, Note_off_c, 0, 51, 55
2, 161734, Note_off_c, 0, 67, 56
2, 161757, Note_on_c, 0, 59, 48
2, 161759, Note_on_c, 0, 53, 48
2, 161825, Control_c, 0, 64, 106
2, 161902, Note_on_c, 0, 50, 48
2, 161903, Note_on_c, 0, 62, 48
2, 161936, Note_off_c, 0, 59, 52
2, 161942, Note_off_c, 0, 53, 52
2, 162044, Note_on_c, 0, 59, 52
2, 162047, Note_on_c, 0, 53, 51
2, 162062, Note_off_c, 0, 50, 52
2, 162093, Note_off_c, 0, 62, 52
2, 162191, Note_on_c, 0, 60, 57
2, 162194, Note_on_c, 0, 51, 54
2, 162219, Note_off_c, 0, 53, 52
2, 162251, Note_off_c, 0, 59, 53
2, 162341, Note_on_c, 0, 62, 61
2, 162343, Note_on_c, 0, 50, 57
2, 162359, Note_off_c, 0, 60, 54
2, 162372, Note_off_c, 0, 51, 53
2, 162487, Note_on_c, 0, 63, 66
2, 162489, Note_on_c, 0, 48, 60
2, 162512, Note_off_c, 0, 62, 55
2, 162514, Note_off_c, 0, 50, 54
2, 162516, Control_c, 0, 64, 0
2, 162609, Note_off_c, 0, 48, 55
2, 162621, Note_off_c, 0, 63, 56
2, 162634, Note_on_c, 0, 58, 48
2, 162637, Note_on_c, 0, 53, 40
2, 162638, Note_on_c, 0, 41, 55
2, 162650, Control_c, 0, 64, 127
2, 162780, Note_on_c, 0, 62, 48
2, 162783, Note_on_c, 0, 50, 40
2, 162806, Note_off_c, 0, 58, 52
2, 162808, Note_off_c, 0, 53, 50
2, 162926, Note_on_c, 0, 65, 60
2, 162927, Note_off_c, 0, 41, 53
2, 162927, Note_on_c, 0, 46, 54
2, 162973, Note_off_c, 0, 50, 50
2, 162978, Note_off_c, 0, 62, 52
2, 163043, Note_off_c, 0, 46, 53
2, 163060, Note_off_c, 0, 65, 55
2, 163086, Note_on_c, 0, 63, 72
2, 163088, Note_on_c, 0, 53, 50
2, 163089, Note_on_c, 0, 41, 60
2, 163114, Control_c, 0, 64, 0
2, 163209, Control_c, 0, 64, 127
2, 163234, Note_off_c, 0, 53, 52
2, 163235, Note_off_c, 0, 63, 58
2, 163237, Note_on_c, 0, 60, 72
2, 163238, Note_on_c, 0, 51, 60
2, 163386, Note_off_c, 0, 60, 58
2, 163386, Note_on_c, 0, 48, 54
2, 163388, Note_on_c, 0, 57, 60
2, 163407, Note_off_c, 0, 51, 55
2, 163476, Note_off_c, 0, 57, 55
2, 163502, Note_off_c, 0, 48, 53
2, 163545, Note_off_c, 0, 41, 55
2, 163546, Note_on_c, 0, 58, 48
2, 163546, Note_on_c, 0, 46, 40
2, 163580, Control_c, 0, 64, 0
2, 163612, Note_off_c, 0, 46, 50
2, 163650, Note_off_c, 0, 58, 52
2, 163695, Note_on_c, 0, 58, 48
2, 163757, Note_off_c, 0, 58, 52
2, 163838, Note_on_c, 0, 60, 50
2, 163900, Note_off_c, 0, 60, 52
2, 163982, Note_on_c, 0, 61, 52
2, 164046, Note_off_c, 0, 61, 53
2, 164112, Note_on_c, 0, 62, 55
2, 164195, Note_off_c, 0, 62, 53
2, 164258, Note_on_c, 0, 63, 57
2, 164342, Note_off_c, 0, 63, 54
2, 164408, Note_on_c, 0, 64, 68
2, 164555, Note_on_c, 0, 65, 60
2, 164629, Note_off_c, 0, 64, 57
2, 164670, Note_off_c, 0, 65, 55
2, 164702, Note_on_c, 0, 63, 60
2, 164786, Note_off_c, 0, 63, 55
2, 164850, Note_on_c, 0, 62, 56
2, 164931, Note_off_c, 0, 62, 54
2, 164996, Note_on_c, 0, 60, 52
2, 165076, Note_off_c, 0, 60, 53
2, 165155, Note_on_c, 0, 58, 48
2, 165218, Note_off_c, 0, 58, 52
2, 165276, Control_c, 0, 64, 127
2, 165296, Note_on_c, 0, 69, 64
2, 165297, Note_on_c, 0, 65, 60
2, 165362, Note_off_c, 0, 65, 55
2, 165442, Note_off_c, 0, 69, 56
2, 165443, Note_on_c, 0, 89, 76
2, 165446, Note_on_c, 0, 64, 60
2, 165503, Note_off_c, 0, 64, 55
2, 165583, Note_on_c, 0, 63, 57
2, 165638, Control_c, 0, 64, 0
2, 165647, Note_off_c, 0, 63, 54
2, 165727, Note_on_c, 0, 60, 54
2, 165794, Note_off_c, 0, 60, 53
2, 165875, Note_on_c, 0, 57, 51
2, 165941, Note_off_c, 0, 57, 52
2, 166023, Note_on_c, 0, 53, 48
2, 166088, Note_off_c, 0, 53, 52
2, 166155, Note_on_c, 0, 52, 50
2, 166301, Note_on_c, 0, 53, 52
2, 166384, Note_off_c, 0, 52, 52
2, 166417, Note_off_c, 0, 53, 53
2, 166448, Note_off_c, 0, 89, 59
2, 166450, Note_on_c, 0, 69, 48
2, 166451, Note_on_c, 0, 51, 52
2, 166530, Note_off_c, 0, 69, 52
2, 166531, Note_off_c, 0, 51, 53
2, 166597, Note_on_c, 0, 70, 48
2, 166598, Note_on_c, 0, 50, 55
2, 166677, Note_off_c, 0, 70, 52
2, 166679, Note_off_c, 0, 50, 53
2, 166741, Note_on_c, 0, 72, 52
2, 166743, Note_on_c, 0, 48, 57
2, 166824, Note_off_c, 0, 72, 53
2, 166825, Note_off_c, 0, 48, 54
2, 166901, Note_on_c, 0, 74, 56
2, 166904, Note_on_c, 0, 46, 60
2, 166967, Note_off_c, 0, 74, 54
2, 166968, Note_off_c, 0, 46, 55
2, 167036, Control_c, 0, 64, 127
2, 167042, Note_on_c, 0, 69, 70
2, 167049, Note_on_c, 0, 65, 60
2, 167111, Note_off_c, 0, 65, 55
2, 167183, Note_off_c, 0, 69, 57
2, 167191, Note_on_c, 0, 89, 84
2, 167195, Note_on_c, 0, 64, 60
2, 167255, Note_off_c, 0, 64, 55
2, 167335, Note_on_c, 0, 63, 59
2, 167399, Control_c, 0, 64, 0
2, 167401, Note_off_c, 0, 63, 54
2, 167480, Note_on_c, 0, 60, 57
2, 167548, Note_off_c, 0, 60, 54
2, 167631, Note_on_c, 0, 57, 55
2, 167694, Note_off_c, 0, 57, 53
2, 167777, Note_on_c, 0, 53, 54
2, 167843, Note_off_c, 0, 53, 53
2, 167924, Note_on_c, 0, 52, 52
2, 168057, Note_on_c, 0, 53, 50
2, 168147, Note_off_c, 0, 52, 53
2, 168170, Note_off_c, 0, 53, 52
2, 168207, Note_off_c, 0, 89, 61
2, 168208, Note_on_c, 0, 69, 48
2, 168210, Note_on_c, 0, 51, 48
2, 168286, Note_off_c, 0, 69, 52
2, 168290, Note_off_c, 0, 51, 52
2, 168352, Note_on_c, 0, 70, 48
2, 168353, Note_on_c, 0, 50, 48
2, 168433, Note_off_c, 0, 70, 52
2, 168434, Note_off_c, 0, 50, 52
2, 168513, Note_on_c, 0, 72, 54
2, 168515, Note_on_c, 0, 48, 52
2, 168579, Note_off_c, 0, 72, 53
2, 168580, Note_off_c, 0, 48, 53
2, 168660, Note_on_c, 0, 74, 60
2, 168661, Note_on_c, 0, 46, 56
2, 168723, Note_off_c, 0, 74, 55
2, 168724, Note_off_c, 0, 46, 54
2, 168800, Note_on_c, 0, 66, 66
2, 168801, Note_on_c, 0, 45, 60
2, 168909, Control_c, 0, 64, 96
2, 168941, Note_off_c, 0, 66, 56
2, 168943, Note_on_c, 0, 60, 60
2, 168944, Note_off_c, 0, 45, 55
2, 168945, Note_on_c, 0, 69, 72
2, 169089, Note_on_c, 0, 66, 72
2, 169090, Note_on_c, 0, 57, 60
2, 169099, Note_off_c, 0, 69, 58
2, 169105, Note_off_c, 0, 60, 55
2, 169236, Note_on_c, 0, 58, 57
2, 169238, Note_on_c, 0, 67, 69
2, 169257, Note_off_c, 0, 66, 58
2, 169264, Note_off_c, 0, 57, 55
2, 169379, Note_on_c, 0, 57, 54
2, 169381, Note_on_c, 0, 69, 66
2, 169394, Note_off_c, 0, 58, 54
2, 169397, Note_off_c, 0, 67, 57
2, 169513, Control_c, 0, 64, 0
2, 169527, Note_on_c, 0, 70, 63
2, 169528, Note_on_c, 0, 55, 51
2, 169534, Note_off_c, 0, 69, 56
2, 169552, Note_off_c, 0, 57, 53
2, 169605, Note_off_c, 0, 55, 52
2, 169607, Note_off_c, 0, 70, 55
2, 169674, Note_on_c, 0, 62, 60
2, 169676, Note_on_c, 0, 56, 48
2, 169714, Control_c, 0, 64, 106
2, 169824, Note_on_c, 0, 53, 48
2, 169826, Note_on_c, 0, 65, 60
2, 169836, Note_off_c, 0, 62, 55
2, 169850, Note_off_c, 0, 56, 52
2, 169962, Note_on_c, 0, 62, 60
2, 169966, Note_on_c, 0, 56, 48
2, 169968, Note_off_c, 0, 65, 55
2, 169980, Note_off_c, 0, 53, 52
2, 170110, Note_on_c, 0, 63, 61
2, 170113, Note_off_c, 0, 62, 55
2, 170114, Note_on_c, 0, 55, 49
2, 170136, Note_off_c, 0, 56, 52
2, 170254, Note_on_c, 0, 65, 62
2, 170258, Note_on_c, 0, 53, 50
2, 170268, Note_off_c, 0, 63, 55
2, 170274, Note_off_c, 0, 55, 52
2, 170384, Control_c, 0, 64, 0
2, 170403, Note_on_c, 0, 67, 62
2, 170405, Note_on_c, 0, 51, 50
2, 170411, Note_off_c, 0, 65, 55
2, 170433, Note_off_c, 0, 53, 52
2, 170533, Note_off_c, 0, 67, 55
2, 170534, Note_off_c, 0, 51, 52
2, 170551, Note_on_c, 0, 53, 51
2, 170553, Note_on_c, 0, 59, 63
2, 170586, Control_c, 0, 64, 106
2, 170695, Note_on_c, 0, 62, 64
2, 170700, Note_off_c, 0, 53, 52
2, 170700, Note_on_c, 0, 50, 52
2, 170720, Note_off_c, 0, 59, 55
2, 170841, Note_on_c, 0, 59, 64
2, 170844, Note_on_c, 0, 53, 52
2, 170845, Note_off_c, 0, 62, 56
2, 170846, Note_off_c, 0, 50, 53
2, 170989, Note_on_c, 0, 51, 53
2, 170990, Note_on_c, 0, 60, 65
2, 170997, Note_off_c, 0, 53, 53
2, 171003, Note_off_c, 0, 59, 56
2, 171135, Note_on_c, 0, 62, 66
2, 171136, Note_on_c, 0, 50, 54
2, 171160, Note_off_c, 0, 51, 53
2, 171161, Note_off_c, 0, 60, 56
2, 171282, Note_on_c, 0, 48, 55
2, 171284, Note_on_c, 0, 63, 67
2, 171289, Control_c, 0, 64, 0
2, 171306, Note_off_c, 0, 62, 56
2, 171309, Note_off_c, 0, 50, 53
2, 171407, Note_off_c, 0, 63, 57
2, 171408, Note_off_c, 0, 48, 53
2, 171426, Note_on_c, 0, 58, 67
2, 171427, Note_on_c, 0, 53, 55
2, 171489, Control_c, 0, 64, 106
2, 171574, Note_on_c, 0, 50, 56
2, 171576, Note_on_c, 0, 62, 68
2, 171579, Note_off_c, 0, 53, 53
2, 171590, Note_off_c, 0, 58, 57
2, 171730, Note_on_c, 0, 65, 69
2, 171736, Note_on_c, 0, 41, 57
2, 171758, Note_off_c, 0, 50, 54
2, 171761, Note_off_c, 0, 62, 57
2, 171882, Note_on_c, 0, 60, 69
2, 171882, Note_on_c, 0, 51, 57
2, 171885, Note_off_c, 0, 65, 57
2, 171888, Note_off_c, 0, 41, 54
2, 172027, Note_on_c, 0, 63, 70
2, 172028, Note_on_c, 0, 48, 58
2, 172042, Note_off_c, 0, 60, 57
2, 172043, Note_off_c, 0, 51, 54
2, 172191, Note_on_c, 0, 69, 71
2, 172193, Note_on_c, 0, 41, 59
2, 172204, Control_c, 0, 64, 0
2, 172206, Note_off_c, 0, 48, 54
2, 172212, Note_off_c, 0, 63, 57
2, 172305, Note_off_c, 0, 69, 58
2, 172307, Note_off_c, 0, 41, 54
2, 172389, Note_on_c, 0, 70, 72
2, 172390, Note_on_c, 0, 62, 52
2, 172391, Note_on_c, 0, 46, 60
2, 172393, Note_on_c, 0, 34, 43
2, 172438, Control_c, 0, 64, 127
2, 172465, Control_c, 0, 64, 106
2, 172677, Note_off_c, 0, 70, 58
2, 172681, Note_off_c, 0, 34, 50
2, 172682, Note_off_c, 0, 46, 55
2, 172684, Note_off_c, 0, 62, 53
2, 172938, Note_on_c, 0, 74, 72
2, 172940, Note_on_c, 0, 53, 50
2, 172941, Note_on_c, 0, 46, 43
2, 172948, Note_on_c, 0, 62, 56
2, 172970, Control_c, 0, 64, 0
2, 173102, Control_c, 0, 64, 127
2, 173278, Note_off_c, 0, 62, 54
2, 173369, Note_off_c, 0, 74, 58
2, 173369, Note_off_c, 0, 46, 50
2, 173372, Note_on_c, 0, 72, 64
2, 173374, Note_on_c, 0, 57, 52
2, 173375, Note_on_c, 0, 48, 45
2, 173381, Note_on_c, 0, 63, 44
2, 173426, Control_c, 0, 64, 0
2, 173560, Control_c, 0, 64, 127
2, 173701, Note_off_c, 0, 63, 51
2, 173803, Note_off_c, 0, 72, 56
2, 173807, Note_off_c, 0, 48, 51
2, 173809, Note_off_c, 0, 57, 53
2, 173810, Note_on_c, 0, 70, 56
2, 173812, Note_on_c, 0, 58, 44
2, 173813, Note_on_c, 0, 50, 35
2, 173819, Note_on_c, 0, 65, 40
2, 173824, Control_c, 0, 64, 0
2, 173959, Control_c, 0, 64, 127
2, 174203, Note_off_c, 0, 65, 50
2, 174262, Note_off_c, 0, 70, 54
2, 174265, Note_off_c, 0, 53, 52
2, 174267, Note_off_c, 0, 58, 51
2, 174268, Note_off_c, 0, 50, 48
2, 174270, Note_on_c, 0, 67, 48
2, 174271, Note_on_c, 0, 55, 36
2, 174271, Note_on_c, 0, 51, 30
2, 174330, Control_c, 0, 64, 0
2, 174467, Control_c, 0, 64, 127
2, 174494, Note_off_c, 0, 67, 52
2, 174495, Note_off_c, 0, 55, 49
2, 174497, Note_off_c, 0, 51, 47
2, 174739, Note_on_c, 0, 75, 60
2, 174740, Note_on_c, 0, 63, 40
2, 174742, Note_on_c, 0, 55, 45
2, 174743, Note_on_c, 0, 48, 40
2, 174751, Control_c, 0, 64, 0
2, 174885, Control_c, 0, 64, 127
2, 175084, Note_off_c, 0, 63, 50
2, 175173, Note_off_c, 0, 48, 50
2, 175174, Note_on_c, 0, 74, 60
2, 175176, Note_on_c, 0, 65, 41
2, 175177, Note_on_c, 0, 59, 48
2, 175178, Note_on_c, 0, 50, 35
2, 175189, Control_c, 0, 64, 0
2, 175216, Note_off_c, 0, 75, 55
2, 175323, Control_c, 0, 64, 127
2, 175516, Note_off_c, 0, 65, 50
2, 175607, Note_off_c, 0, 59, 52
2, 175608, Note_off_c, 0, 74, 55
2, 175610, Note_off_c, 0, 50, 48
2, 175611, Note_on_c, 0, 72, 54
2, 175614, Note_on_c, 0, 67, 34
2, 175615, Note_on_c, 0, 51, 32
2, 175616, Note_on_c, 0, 60, 42
2, 175624, Control_c, 0, 64, 0
2, 175760, Control_c, 0, 64, 127
2, 176007, Note_off_c, 0, 67, 48
2, 176064, Note_off_c, 0, 72, 53
2, 176068, Note_off_c, 0, 51, 48
2, 176069, Note_off_c, 0, 55, 51
2, 176070, Note_on_c, 0, 69, 48
2, 176071, Note_on_c, 0, 53, 36
2, 176110, Control_c, 0, 64, 0
2, 176248, Control_c, 0, 64, 127
2, 176297, Note_off_c, 0, 60, 50
2, 176297, Note_off_c, 0, 53, 49
2, 176299, Note_off_c, 0, 69, 52
2, 176543, Note_on_c, 0, 81, 49
2, 176545, Note_on_c, 0, 69, 29
2, 176547, Note_on_c, 0, 65, 37
2, 176548, Note_on_c, 0, 53, 30
2, 176564, Control_c, 0, 64, 0
2, 176701, Control_c, 0, 64, 127
2, 176973, Note_off_c, 0, 81, 52
2, 176976, Note_off_c, 0, 69, 47
2, 176977, Note_off_c, 0, 65, 49
2, 176979, Note_off_c, 0, 53, 47
2, 176981, Note_on_c, 0, 82, 55
2, 176982, Note_on_c, 0, 70, 35
2, 176983, Note_on_c, 0, 64, 43
2, 176984, Note_on_c, 0, 55, 38
2, 176988, Control_c, 0, 64, 0
2, 177126, Control_c, 0, 64, 127
2, 177430, Note_off_c, 0, 82, 53
2, 177434, Note_off_c, 0, 70, 48
2, 177435, Note_off_c, 0, 64, 50
2, 177436, Note_off_c, 0, 55, 49
2, 177437, Note_on_c, 0, 84, 60
2, 177439, Note_on_c, 0, 72, 40
2, 177440, Note_on_c, 0, 63, 48
2, 177441, Note_on_c, 0, 57, 42
2, 177445, Control_c, 0, 64, 0
2, 177580, Control_c, 0, 64, 127
2, 177881, Note_off_c, 0, 84, 55
2, 177885, Note_off_c, 0, 72, 50
2, 177886, Note_off_c, 0, 63, 52
2, 177887, Note_off_c, 0, 57, 50
2, 177888, Note_on_c, 0, 86, 66
2, 177889, Note_on_c, 0, 74, 46
2, 177891, Note_on_c, 0, 62, 54
2, 177892, Note_on_c, 0, 58, 34
2, 177905, Control_c, 0, 64, 0
2, 178038, Control_c, 0, 64, 127
2, 178324, Note_off_c, 0, 86, 56
2, 178327, Note_off_c, 0, 74, 51
2, 178329, Note_off_c, 0, 62, 53
2, 178330, Note_off_c, 0, 58, 48
2, 178332, Note_on_c, 0, 77, 60
2, 178332, Note_on_c, 0, 89, 74
2, 178334, Note_on_c, 0, 60, 60
2, 178335, Note_on_c, 0, 57, 55
2, 178359, Control_c, 0, 64, 0
2, 178489, Control_c, 0, 64, 127
2, 178752, Note_off_c, 0, 60, 55
2, 178755, Note_off_c, 0, 57, 53
2, 178756, Note_on_c, 0, 58, 72
2, 178758, Note_on_c, 0, 55, 60
2, 178785, Control_c, 0, 64, 0
2, 178897, Note_off_c, 0, 77, 55
2, 178899, Note_on_c, 0, 79, 68
2, 178917, Control_c, 0, 64, 127
2, 179042, Note_off_c, 0, 79, 57
2, 179044, Note_on_c, 0, 77, 64
2, 179122, Note_off_c, 0, 89, 59
2, 179125, Note_off_c, 0, 77, 56
2, 179125, Note_off_c, 0, 58, 58
2, 179128, Note_off_c, 0, 55, 55
2, 179157, Note_on_c, 0, 89, 76
2, 179178, Note_on_c, 0, 76, 40
2, 179195, Note_on_c, 0, 58, 55
2, 179198, Note_on_c, 0, 48, 66
2, 179223, Note_on_c, 0, 88, 60
2, 179245, Control_c, 0, 64, 0
2, 179249, Note_off_c, 0, 89, 59
2, 179353, Note_on_c, 0, 86, 56
2, 179371, Note_off_c, 0, 88, 55
2, 179382, Control_c, 0, 64, 127
2, 179501, Note_off_c, 0, 86, 54
2, 179502, Note_on_c, 0, 88, 52
2, 179619, Note_off_c, 0, 76, 50
2, 179637, Note_off_c, 0, 48, 56
2, 179638, Note_off_c, 0, 58, 53
2, 179646, Note_off_c, 0, 88, 53
2, 179652, Note_on_c, 0, 57, 25
2, 179653, Note_on_c, 0, 89, 59
2, 179654, Note_on_c, 0, 77, 41
2, 179655, Note_on_c, 0, 53, 20
2, 179724, Control_c, 0, 64, 0
2, 179879, Note_off_c, 0, 57, 46
2, 179880, Note_off_c, 0, 53, 45
2, 179962, Note_off_c, 0, 77, 50
2, 179964, Note_off_c, 0, 89, 54
2, 180110, Note_on_c, 0, 62, 74
2, 180111, Note_on_c, 0, 58, 54
2, 180113, Note_on_c, 0, 53, 50
2, 180115, Note_on_c, 0, 46, 42
2, 180119, Control_c, 0, 64, 0
2, 180253, Control_c, 0, 64, 127
2, 180254, Note_on_c, 0, 74, 60
2, 180318, Note_off_c, 0, 74, 55
2, 180398, Note_on_c, 0, 74, 57
2, 180464, Note_off_c, 0, 74, 54
2, 180544, Note_off_c, 0, 62, 59
2, 180546, Note_off_c, 0, 58, 53
2, 180547, Note_off_c, 0, 46, 50
2, 180549, Note_on_c, 0, 63, 36
2, 180550, Note_on_c, 0, 74, 56
2, 180551, Note_on_c, 0, 57, 54
2, 180553, Note_on_c, 0, 48, 40
2, 180616, Control_c, 0, 64, 0
2, 180688, Note_on_c, 0, 72, 51
2, 180727, Note_off_c, 0, 74, 54
2, 180750, Control_c, 0, 64, 127
2, 180801, Note_off_c, 0, 72, 52
2, 180832, Note_on_c, 0, 72, 48
2, 180915, Note_off_c, 0, 72, 52
2, 180982, Note_off_c, 0, 57, 53
2, 180984, Note_off_c, 0, 48, 50
2, 180985, Note_off_c, 0, 63, 49
2, 180986, Note_on_c, 0, 58, 60
2, 180988, Note_on_c, 0, 65, 74
2, 180989, Note_on_c, 0, 50, 60
2, 181053, Control_c, 0, 64, 0
2, 181130, Note_on_c, 0, 70, 60
2, 181189, Control_c, 0, 64, 127
2, 181212, Note_off_c, 0, 70, 55
2, 181277, Note_on_c, 0, 70, 56
2, 181310, Note_off_c, 0, 65, 59
2, 181361, Note_off_c, 0, 70, 54
2, 181424, Note_off_c, 0, 58, 55
2, 181427, Note_off_c, 0, 50, 55
2, 181428, Note_off_c, 0, 53, 52
2, 181430, Note_on_c, 0, 55, 48
2, 181431, Note_on_c, 0, 51, 42
2, 181432, Note_on_c, 0, 69, 51
2, 181483, Control_c, 0, 64, 0
2, 181591, Note_on_c, 0, 67, 51
2, 181622, Control_c, 0, 64, 127
2, 181630, Note_off_c, 0, 69, 52
2, 181655, Note_off_c, 0, 55, 52
2, 181657, Note_off_c, 0, 51, 50
2, 181689, Note_off_c, 0, 67, 52
2, 181736, Note_on_c, 0, 67, 48
2, 181805, Note_off_c, 0, 67, 52
2, 181884, Note_on_c, 0, 63, 74
2, 181887, Note_on_c, 0, 55, 64
2, 181888, Note_on_c, 0, 48, 50
2, 181896, Control_c, 0, 64, 0
2, 182029, Control_c, 0, 64, 127
2, 182032, Note_on_c, 0, 75, 60
2, 182094, Note_off_c, 0, 75, 55
2, 182174, Note_on_c, 0, 75, 57
2, 182239, Note_off_c, 0, 75, 54
2, 182319, Note_off_c, 0, 63, 59
2, 182320, Note_off_c, 0, 48, 52
2, 182322, Note_on_c, 0, 65, 40
2, 182323, Note_on_c, 0, 75, 54
2, 182325, Note_on_c, 0, 59, 56
2, 182326, Note_on_c, 0, 50, 46
2, 182392, Control_c, 0, 64, 0
2, 182464, Note_on_c, 0, 74, 51
2, 182508, Control_c, 0, 64, 127
2, 182537, Note_off_c, 0, 75, 53
2, 182576, Note_off_c, 0, 74, 52
2, 182609, Note_on_c, 0, 74, 48
2, 182690, Note_off_c, 0, 74, 52
2, 182756, Note_off_c, 0, 59, 54
2, 182757, Note_off_c, 0, 65, 50
2, 182759, Note_off_c, 0, 50, 51
2, 182761, Note_on_c, 0, 67, 74
2, 182764, Note_on_c, 0, 60, 62
2, 182765, Note_on_c, 0, 51, 60
2, 182811, Control_c, 0, 64, 0
2, 182904, Note_on_c, 0, 72, 60
2, 182948, Control_c, 0, 64, 127
2, 182986, Note_off_c, 0, 72, 55
2, 183050, Note_on_c, 0, 72, 56
2, 183102, Note_off_c, 0, 67, 59
2, 183135, Note_off_c, 0, 72, 54
2, 183200, Note_off_c, 0, 51, 55
2, 183202, Note_off_c, 0, 55, 56
2, 183204, Note_on_c, 0, 53, 48
2, 183205, Note_on_c, 0, 70, 52
2, 183241, Control_c, 0, 64, 0
2, 183365, Note_on_c, 0, 69, 52
2, 183379, Control_c, 0, 64, 127
2, 183431, Note_off_c, 0, 60, 55
2, 183433, Note_off_c, 0, 53, 52
2, 183442, Note_off_c, 0, 70, 53
2, 183482, Note_off_c, 0, 69, 53
2, 183512, Note_on_c, 0, 69, 48
2, 183597, Note_off_c, 0, 69, 52
2, 183657, Note_on_c, 0, 81, 54
2, 183664, Note_on_c, 0, 77, 48
2, 183667, Note_on_c, 0, 69, 44
2, 183676, Control_c, 0, 64, 0
2, 183812, Note_on_c, 0, 65, 51
2, 183813, Control_c, 0, 64, 127
2, 183895, Note_off_c, 0, 65, 52
2, 183961, Note_on_c, 0, 65, 53
2, 184043, Note_off_c, 0, 65, 53
2, 184101, Note_off_c, 0, 81, 53
2, 184106, Note_on_c, 0, 82, 54
2, 184112, Note_off_c, 0, 69, 51
2, 184113, Note_off_c, 0, 77, 52
2, 184114, Note_on_c, 0, 79, 48
2, 184115, Note_on_c, 0, 70, 44
2, 184117, Note_on_c, 0, 65, 78
2, 184148, Control_c, 0, 64, 0
2, 184259, Note_on_c, 0, 64, 56
2, 184267, Control_c, 0, 64, 127
2, 184310, Note_off_c, 0, 65, 59
2, 184370, Note_off_c, 0, 64, 54
2, 184404, Note_on_c, 0, 64, 58
2, 184484, Note_off_c, 0, 64, 54
2, 184541, Note_off_c, 0, 82, 53
2, 184546, Note_on_c, 0, 84, 61
2, 184550, Note_off_c, 0, 70, 51
2, 184551, Note_off_c, 0, 79, 52
2, 184553, Note_on_c, 0, 72, 51
2, 184554, Note_on_c, 0, 81, 55
2, 184594, Control_c, 0, 64, 0
2, 184712, Note_on_c, 0, 63, 60
2, 184729, Control_c, 0, 64, 127
2, 184775, Note_off_c, 0, 63, 55
2, 184856, Note_on_c, 0, 63, 60
2, 184936, Note_off_c, 0, 63, 55
2, 184992, Note_off_c, 0, 84, 55
2, 184995, Note_on_c, 0, 86, 66
2, 185000, Note_off_c, 0, 81, 53
2, 185001, Note_off_c, 0, 72, 52
2, 185003, Note_on_c, 0, 74, 56
2, 185004, Note_on_c, 0, 82, 60
2, 185006, Note_on_c, 0, 63, 81
2, 185015, Control_c, 0, 64, 0
2, 185149, Control_c, 0, 64, 127
2, 185157, Note_on_c, 0, 62, 54
2, 185212, Note_off_c, 0, 86, 56
2, 185222, Note_off_c, 0, 63, 60
2, 185224, Note_off_c, 0, 74, 54
2, 185225, Note_off_c, 0, 82, 55
2, 185268, Note_off_c, 0, 62, 53
2, 185298, Note_on_c, 0, 62, 51
2, 185378, Note_off_c, 0, 62, 52
2, 185438, Note_on_c, 0, 53, 48
2, 185459, Control_c, 0, 64, 0
2, 185552, Control_c, 0, 64, 127
2, 185583, Note_on_c, 0, 82, 54
2, 185586, Note_on_c, 0, 65, 48
2, 185588, Note_on_c, 0, 62, 45
2, 185591, Note_on_c, 0, 70, 42
2, 185662, Note_off_c, 0, 82, 53
2, 185666, Note_off_c, 0, 70, 50
2, 185680, Note_off_c, 0, 65, 52
2, 185684, Note_off_c, 0, 62, 51
2, 185712, Note_off_c, 0, 53, 52
2, 185728, Note_on_c, 0, 82, 65
2, 185730, Note_on_c, 0, 62, 50
2, 185731, Note_on_c, 0, 65, 53
2, 185734, Note_on_c, 0, 70, 53
2, 185803, Note_off_c, 0, 70, 53
2, 185805, Note_off_c, 0, 82, 56
2, 185822, Note_off_c, 0, 65, 53
2, 185825, Note_off_c, 0, 62, 52
2, 185872, Note_on_c, 0, 82, 66
2, 185874, Note_on_c, 0, 41, 59
2, 185879, Note_on_c, 0, 70, 54
2, 185888, Control_c, 0, 64, 0
2, 185981, Control_c, 0, 64, 127
2, 186013, Note_off_c, 0, 82, 56
2, 186016, Note_on_c, 0, 60, 56
2, 186018, Note_on_c, 0, 81, 66
2, 186019, Note_on_c, 0, 63, 59
2, 186020, Note_off_c, 0, 70, 53
2, 186024, Note_on_c, 0, 69, 54
2, 186104, Note_off_c, 0, 63, 54
2, 186108, Note_off_c, 0, 60, 54
2, 186126, Note_off_c, 0, 81, 56
2, 186128, Note_off_c, 0, 69, 53
2, 186143, Note_off_c, 0, 41, 54
2, 186160, Note_on_c, 0, 63, 57
2, 186161, Note_on_c, 0, 81, 63
2, 186163, Note_on_c, 0, 60, 54
2, 186166, Note_on_c, 0, 69, 51
2, 186220, Note_off_c, 0, 81, 55
2, 186226, Note_off_c, 0, 69, 52
2, 186252, Note_off_c, 0, 63, 54
2, 186255, Note_off_c, 0, 60, 53
2, 186305, Note_on_c, 0, 53, 78
2, 186310, Control_c, 0, 64, 0
2, 186406, Control_c, 0, 64, 127
2, 186448, Note_on_c, 0, 79, 57
2, 186452, Note_on_c, 0, 58, 48
2, 186453, Note_on_c, 0, 62, 51
2, 186455, Note_on_c, 0, 67, 45
2, 186514, Note_off_c, 0, 79, 54
2, 186516, Note_off_c, 0, 67, 51
2, 186531, Note_off_c, 0, 58, 52
2, 186532, Note_off_c, 0, 62, 52
2, 186563, Note_off_c, 0, 53, 59
2, 186594, Note_on_c, 0, 79, 54
2, 186597, Note_on_c, 0, 62, 48
2, 186600, Note_on_c, 0, 58, 45
2, 186604, Note_on_c, 0, 67, 42
2, 186659, Note_off_c, 0, 67, 50
2, 186661, Note_off_c, 0, 79, 53
2, 186692, Note_off_c, 0, 62, 52
2, 186696, Note_off_c, 0, 58, 51
2, 186744, Note_on_c, 0, 79, 66
2, 186746, Note_on_c, 0, 41, 59
2, 186752, Note_on_c, 0, 67, 54
2, 186755, Control_c, 0, 64, 0
2, 186849, Control_c, 0, 64, 127
2, 186872, Note_off_c, 0, 67, 53
2, 186890, Note_off_c, 0, 79, 56
2, 186892, Note_on_c, 0, 77, 66
2, 186893, Note_on_c, 0, 60, 59
2, 186895, Note_on_c, 0, 57, 56
2, 186899, Note_on_c, 0, 65, 54
2, 186969, Note_off_c, 0, 57, 54
2, 186971, Note_off_c, 0, 60, 54
2, 186989, Note_off_c, 0, 77, 56
2, 186993, Note_off_c, 0, 65, 53
2, 187005, Note_off_c, 0, 41, 54
2, 187035, Note_on_c, 0, 77, 63
2, 187038, Note_on_c, 0, 57, 54
2, 187039, Note_on_c, 0, 60, 57
2, 187045, Note_on_c, 0, 65, 51
2, 187101, Note_off_c, 0, 65, 52
2, 187103, Note_off_c, 0, 77, 55
2, 187132, Note_off_c, 0, 60, 54
2, 187133, Note_off_c, 0, 57, 53
2, 187168, Note_on_c, 0, 53, 78
2, 187193, Control_c, 0, 64, 0
2, 187288, Control_c, 0, 64, 127
2, 187316, Note_on_c, 0, 55, 45
2, 187317, Note_on_c, 0, 75, 81
2, 187318, Note_on_c, 0, 58, 51
2, 187322, Note_on_c, 0, 63, 45
2, 187398, Note_off_c, 0, 75, 60
2, 187399, Note_off_c, 0, 63, 51
2, 187409, Note_off_c, 0, 55, 51
2, 187418, Note_off_c, 0, 58, 52
2, 187449, Note_off_c, 0, 53, 59
2, 187465, Note_on_c, 0, 58, 48
2, 187466, Note_on_c, 0, 75, 54
2, 187468, Note_on_c, 0, 55, 42
2, 187472, Note_on_c, 0, 63, 42
2, 187546, Note_off_c, 0, 63, 50
2, 187548, Note_off_c, 0, 75, 53
2, 187566, Note_off_c, 0, 58, 52
2, 187582, Note_off_c, 0, 55, 50
2, 187615, Note_on_c, 0, 75, 54
2, 187618, Note_on_c, 0, 41, 48
2, 187622, Note_on_c, 0, 63, 42
2, 187643, Control_c, 0, 64, 0
2, 187739, Control_c, 0, 64, 127
2, 187756, Note_off_c, 0, 63, 50
2, 187759, Note_off_c, 0, 75, 53
2, 187761, Note_on_c, 0, 74, 56
2, 187764, Note_on_c, 0, 57, 49
2, 187767, Note_on_c, 0, 53, 43
2, 187770, Note_on_c, 0, 62, 44
2, 187856, Note_off_c, 0, 53, 50
2, 187858, Note_off_c, 0, 57, 52
2, 187868, Note_off_c, 0, 62, 51
2, 187873, Note_off_c, 0, 74, 54
2, 187892, Note_off_c, 0, 41, 52
2, 187907, Note_on_c, 0, 57, 50
2, 187909, Note_on_c, 0, 74, 58
2, 187911, Note_on_c, 0, 53, 44
2, 187916, Note_on_c, 0, 62, 46
2, 187988, Note_off_c, 0, 74, 54
2, 187990, Note_off_c, 0, 62, 51
2, 188004, Note_off_c, 0, 57, 52
2, 188017, Note_off_c, 0, 53, 51
2, 188057, Note_on_c, 0, 41, 52
2, 188075, Control_c, 0, 64, 0
2, 188171, Control_c, 0, 64, 127
2, 188201, Note_on_c, 0, 72, 62
2, 188204, Note_on_c, 0, 51, 47
2, 188205, Note_on_c, 0, 55, 53
2, 188210, Note_on_c, 0, 60, 50
2, 188268, Note_off_c, 0, 72, 55
2, 188270, Note_off_c, 0, 60, 52
2, 188284, Note_off_c, 0, 51, 51
2, 188287, Note_off_c, 0, 55, 53
2, 188319, Note_off_c, 0, 41, 53
2, 188351, Note_on_c, 0, 55, 54
2, 188352, Note_on_c, 0, 72, 64
2, 188355, Note_on_c, 0, 51, 48
2, 188358, Note_on_c, 0, 60, 52
2, 188414, Note_off_c, 0, 72, 56
2, 188418, Note_off_c, 0, 60, 53
2, 188443, Note_off_c, 0, 55, 53
2, 188445, Note_off_c, 0, 51, 52
2, 188485, Note_on_c, 0, 72, 66
2, 188486, Note_on_c, 0, 41, 56
2, 188490, Note_on_c, 0, 60, 54
2, 188530, Control_c, 0, 64, 0
2, 188609, Note_off_c, 0, 60, 53
2, 188622, Control_c, 0, 64, 127
2, 188627, Note_off_c, 0, 72, 56
2, 188630, Note_on_c, 0, 70, 68
2, 188632, Note_on_c, 0, 53, 57
2, 188633, Note_on_c, 0, 50, 51
2, 188636, Note_on_c, 0, 58, 56
2, 188713, Note_off_c, 0, 50, 52
2, 188726, Note_off_c, 0, 53, 54
2, 188739, Note_off_c, 0, 70, 57
2, 188740, Note_off_c, 0, 58, 54
2, 188756, Note_off_c, 0, 41, 54
2, 188770, Note_on_c, 0, 53, 58
2, 188772, Note_on_c, 0, 70, 70
2, 188775, Note_on_c, 0, 50, 52
2, 188779, Note_on_c, 0, 58, 58
2, 188837, Note_off_c, 0, 70, 57
2, 188840, Note_off_c, 0, 58, 54
2, 188867, Note_off_c, 0, 50, 53
2, 188875, Note_off_c, 0, 53, 54
2, 188917, Note_on_c, 0, 70, 72
2, 188918, Note_on_c, 0, 41, 60
2, 188925, Note_on_c, 0, 58, 60
2, 188941, Control_c, 0, 64, 0
2, 189034, Note_off_c, 0, 58, 55
2, 189034, Control_c, 0, 64, 127
2, 189044, Note_off_c, 0, 70, 58
2, 189046, Note_on_c, 0, 69, 74
2, 189047, Note_on_c, 0, 51, 61
2, 189050, Note_on_c, 0, 48, 55
2, 189054, Note_on_c, 0, 57, 62
2, 189136, Note_off_c, 0, 51, 55
2, 189138, Note_off_c, 0, 48, 53
2, 189157, Note_off_c, 0, 57, 55
2, 189158, Note_off_c, 0, 69, 59
2, 189174, Note_off_c, 0, 41, 55
2, 189189, Note_on_c, 0, 69, 76
2, 189191, Note_on_c, 0, 51, 62
2, 189193, Note_on_c, 0, 48, 56
2, 189194, Note_on_c, 0, 57, 64
2, 189252, Note_off_c, 0, 69, 59
2, 189255, Note_off_c, 0, 57, 56
2, 189277, Note_off_c, 0, 48, 54
2, 189279, Note_off_c, 0, 51, 55
2, 189320, Note_on_c, 0, 69, 78
2, 189321, Note_on_c, 0, 41, 64
2, 189326, Note_on_c, 0, 57, 66
2, 189352, Control_c, 0, 64, 0
2, 189447, Control_c, 0, 64, 127
2, 189460, Note_off_c, 0, 57, 56
2, 189461, Note_off_c, 0, 69, 59
2, 189463, Note_on_c, 0, 67, 80
2, 189466, Note_on_c, 0, 46, 59
2, 189467, Note_on_c, 0, 50, 65
2, 189471, Note_on_c, 0, 55, 68
2, 189540, Note_off_c, 0, 46, 54
2, 189542, Note_off_c, 0, 50, 56
2, 189544, Note_off_c, 0, 55, 57
2, 189556, Note_off_c, 0, 67, 60
2, 189572, Note_off_c, 0, 41, 56
2, 189602, Note_on_c, 0, 50, 66
2, 189605, Note_on_c, 0, 67, 82
2, 189606, Note_on_c, 0, 46, 60
2, 189610, Note_on_c, 0, 55, 70
2, 189666, Note_off_c, 0, 67, 60
2, 189668, Note_off_c, 0, 55, 57
2, 189683, Note_off_c, 0, 50, 56
2, 189691, Note_off_c, 0, 46, 55
2, 189731, Note_on_c, 0, 67, 84
2, 189732, Note_on_c, 0, 41, 68
2, 189737, Note_on_c, 0, 55, 72
2, 189740, Control_c, 0, 64, 0
2, 189832, Control_c, 0, 64, 127
2, 189861, Note_off_c, 0, 55, 58
2, 189870, Note_off_c, 0, 67, 61
2, 189873, Note_on_c, 0, 65, 86
2, 189876, Note_on_c, 0, 48, 69
2, 189877, Note_on_c, 0, 45, 63
2, 189879, Note_on_c, 0, 53, 74
2, 189953, Note_off_c, 0, 48, 57
2, 189959, Note_off_c, 0, 45, 55
2, 189967, Note_off_c, 0, 65, 61
2, 189968, Note_off_c, 0, 53, 59
2, 189983, Note_off_c, 0, 41, 57
2, 189998, Note_on_c, 0, 65, 88
2, 190001, Note_on_c, 0, 45, 64
2, 190002, Note_on_c, 0, 48, 70
2, 190004, Note_on_c, 0, 53, 76
2, 190064, Note_off_c, 0, 65, 62
2, 190068, Note_off_c, 0, 53, 59
2, 190092, Note_off_c, 0, 45, 56
2, 190100, Note_off_c, 0, 48, 57
2, 190137, Note_on_c, 0, 65, 84
2, 190144, Note_on_c, 0, 36, 65
2, 190146, Note_on_c, 0, 42, 70
2, 190147, Note_on_c, 0, 53, 72
2, 190150, Note_on_c, 0, 30, 74
2, 190176, Control_c, 0, 64, 0
2, 190207, Note_off_c, 0, 30, 59
2, 190208, Note_off_c, 0, 42, 57
2, 190211, Note_off_c, 0, 53, 58
2, 190219, Note_off_c, 0, 36, 56
2, 190225, Note_off_c, 0, 65, 61
2, 190265, Note_on_c, 0, 63, 84
2, 190271, Note_on_c, 0, 60, 69
2, 190273, Note_on_c, 0, 42, 60
2, 190274, Note_on_c, 0, 51, 70
2, 190276, Note_on_c, 0, 57, 72
2, 190277, Note_on_c, 0, 36, 65
2, 190278, Note_on_c, 0, 30, 70
2, 190340, Note_off_c, 0, 63, 61
2, 190343, Note_off_c, 0, 60, 57
2, 190345, Note_off_c, 0, 51, 57
2, 190354, Note_off_c, 0, 36, 56
2, 190356, Note_off_c, 0, 42, 55
2, 190358, Note_off_c, 0, 57, 58
2, 190361, Note_off_c, 0, 30, 57
2, 190394, Note_on_c, 0, 63, 83
2, 190397, Note_on_c, 0, 60, 68
2, 190398, Note_on_c, 0, 51, 60
2, 190401, Note_on_c, 0, 57, 71
2, 190402, Note_on_c, 0, 36, 65
2, 190403, Note_on_c, 0, 42, 62
2, 190404, Note_on_c, 0, 30, 71
2, 190473, Note_off_c, 0, 30, 58
2, 190477, Note_off_c, 0, 60, 57
2, 190480, Note_off_c, 0, 36, 56
2, 190485, Note_off_c, 0, 57, 58
2, 190487, Note_off_c, 0, 63, 60
2, 190489, Note_off_c, 0, 42, 55
2, 190491, Note_off_c, 0, 51, 55
2, 190535, Note_on_c, 0, 63, 82
2, 190542, Note_on_c, 0, 60, 67
2, 190545, Note_on_c, 0, 57, 70
2, 190546, Note_on_c, 0, 51, 65
2, 190547, Note_on_c, 0, 42, 60
2, 190548, Note_on_c, 0, 30, 70
2, 190549, Note_on_c, 0, 36, 55
2, 190599, Note_off_c, 0, 63, 60
2, 190601, Note_off_c, 0, 60, 57
2, 190606, Note_off_c, 0, 42, 55
2, 190611, Note_off_c, 0, 36, 53
2, 190613, Note_off_c, 0, 30, 57
2, 190624, Note_off_c, 0, 51, 56
2, 190626, Note_off_c, 0, 57, 57
2, 190664, Note_on_c, 0, 63, 81
2, 190669, Note_on_c, 0, 60, 66
2, 190671, Note_on_c, 0, 51, 65
2, 190672, Note_on_c, 0, 57, 69
2, 190673, Note_on_c, 0, 36, 66
2, 190675, Note_on_c, 0, 30, 69
2, 190676, Note_on_c, 0, 42, 60
2, 190749, Note_off_c, 0, 30, 57
2, 190755, Note_off_c, 0, 42, 55
2, 190756, Note_off_c, 0, 51, 56
2, 190757, Note_off_c, 0, 60, 56
2, 190759, Note_off_c, 0, 57, 57
2, 190760, Note_off_c, 0, 63, 60
2, 190764, Note_off_c, 0, 36, 56
2, 190810, Note_on_c, 0, 63, 80
2, 190818, Note_on_c, 0, 42, 55
2, 190819, Note_on_c, 0, 60, 65
2, 190820, Note_on_c, 0, 51, 60
2, 190823, Note_on_c, 0, 36, 60
2, 190824, Note_on_c, 0, 57, 68
2, 190825, Note_on_c, 0, 30, 68
2, 190876, Note_off_c, 0, 63, 60
2, 190879, Note_off_c, 0, 60, 56
2, 190882, Note_off_c, 0, 42, 53
2, 190889, Note_off_c, 0, 51, 55
2, 190893, Note_off_c, 0, 36, 55
2, 190894, Note_off_c, 0, 57, 57
2, 190897, Note_off_c, 0, 30, 57
2, 190940, Note_on_c, 0, 63, 79
2, 190948, Note_on_c, 0, 60, 64
2, 190950, Note_on_c, 0, 57, 67
2, 190951, Note_on_c, 0, 36, 62
2, 190953, Note_on_c, 0, 42, 56
2, 190954, Note_on_c, 0, 51, 60
2, 190955, Note_on_c, 0, 30, 67
2, 191023, Note_off_c, 0, 36, 55
2, 191024, Note_off_c, 0, 51, 55
2, 191026, Note_off_c, 0, 63, 60
2, 191028, Note_off_c, 0, 30, 57
2, 191034, Note_off_c, 0, 42, 54
2, 191037, Note_off_c, 0, 60, 56
2, 191047, Note_off_c, 0, 57, 57
2, 191088, Note_on_c, 0, 63, 78
2, 191094, Note_on_c, 0, 60, 63
2, 191096, Note_on_c, 0, 42, 55
2, 191097, Note_on_c, 0, 51, 61
2, 191099, Note_on_c, 0, 30, 66
2, 191100, Note_on_c, 0, 36, 60
2, 191101, Note_on_c, 0, 57, 66
2, 191169, Note_off_c, 0, 63, 59
2, 191172, Note_off_c, 0, 60, 55
2, 191181, Note_off_c, 0, 57, 56
2, 191183, Note_off_c, 0, 42, 53
2, 191186, Note_off_c, 0, 30, 56
2, 191193, Note_off_c, 0, 36, 55
2, 191194, Note_off_c, 0, 51, 55
2, 191235, Note_on_c, 0, 63, 77
2, 191242, Note_on_c, 0, 60, 62
2, 191243, Note_on_c, 0, 51, 60
2, 191246, Note_on_c, 0, 57, 65
2, 191247, Note_on_c, 0, 30, 65
2, 191248, Note_on_c, 0, 36, 58
2, 191249, Note_on_c, 0, 42, 52
2, 191308, Note_off_c, 0, 42, 53
2, 191309, Note_off_c, 0, 36, 54
2, 191311, Note_off_c, 0, 30, 56
2, 191312, Note_off_c, 0, 51, 55
2, 191316, Note_off_c, 0, 63, 59
2, 191319, Note_off_c, 0, 57, 56
2, 191322, Note_off_c, 0, 60, 55
2, 191377, Note_on_c, 0, 63, 76
2, 191388, Note_on_c, 0, 51, 60
2, 191390, Note_on_c, 0, 57, 64
2, 191391, Note_on_c, 0, 60, 61
2, 191392, Note_on_c, 0, 42, 52
2, 191393, Note_on_c, 0, 36, 54
2, 191395, Note_on_c, 0, 30, 64
2, 191453, Note_off_c, 0, 36, 53
2, 191456, Note_off_c, 0, 51, 55
2, 191460, Note_off_c, 0, 57, 56
2, 191461, Note_off_c, 0, 63, 59
2, 191464, Note_off_c, 0, 30, 56
2, 191469, Note_off_c, 0, 42, 53
2, 191475, Note_off_c, 0, 60, 55
2, 191512, Note_on_c, 0, 63, 75
2, 191519, Note_on_c, 0, 60, 60
2, 191522, Note_on_c, 0, 57, 63
2, 191523, Note_on_c, 0, 42, 50
2, 191524, Note_on_c, 0, 51, 60
2, 191525, Note_on_c, 0, 36, 53
2, 191527, Note_on_c, 0, 30, 63
2, 191601, Note_off_c, 0, 36, 53
2, 191604, Note_off_c, 0, 51, 55
2, 191604, Note_off_c, 0, 63, 59
2, 191606, Note_off_c, 0, 57, 55
2, 191608, Note_off_c, 0, 42, 52
2, 191615, Note_off_c, 0, 30, 55
2, 191618, Note_off_c, 0, 60, 55
2, 191660, Note_on_c, 0, 63, 74
2, 191668, Note_on_c, 0, 57, 62
2, 191669, Note_on_c, 0, 42, 55
2, 191671, Note_on_c, 0, 60, 59
2, 191672, Note_on_c, 0, 51, 60
2, 191675, Note_on_c, 0, 30, 62
2, 191675, Note_on_c, 0, 36, 50
2, 191748, Note_off_c, 0, 63, 59
2, 191751, Note_off_c, 0, 57, 55
2, 191753, Note_off_c, 0, 30, 55
2, 191758, Note_off_c, 0, 36, 52
2, 191758, Note_off_c, 0, 60, 54
2, 191760, Note_off_c, 0, 42, 53
2, 191761, Note_off_c, 0, 51, 55
2, 191862, Note_on_c, 0, 64, 72
2, 191865, Note_on_c, 0, 52, 55
2, 191866, Note_on_c, 0, 55, 60
2, 191868, Note_on_c, 0, 60, 57
2, 191871, Note_on_c, 0, 31, 60
2, 191873, Note_on_c, 0, 36, 48
2, 191875, Note_on_c, 0, 43, 50
2, 191944, Control_c, 0, 64, 127
2, 192051, Note_off_c, 0, 52, 53
2, 192075, Note_off_c, 0, 31, 55
2, 192082, Note_off_c, 0, 36, 52
2, 192085, Note_off_c, 0, 43, 52
2, 192085, Note_off_c, 0, 55, 55
2, 192092, Note_off_c, 0, 64, 58
2, 192109, Note_off_c, 0, 60, 54
2, 192194, Control_c, 0, 64, 0
2, 192423, Note_on_c, 0, 60, 55
2, 192428, Note_on_c, 0, 55, 48
2, 192431, Note_on_c, 0, 52, 36
2, 192432, Note_on_c, 0, 43, 42
2, 192565, Control_c, 0, 64, 127
2, 192834, Control_c, 0, 64, 0
2, 192852, Note_off_c, 0, 60, 53
2, 192854, Note_on_c, 0, 59, 60
2, 192860, Note_off_c, 0, 52, 49
2, 192862, Note_on_c, 0, 53, 38
2, 192928, Control_c, 0, 64, 127
2, 193289, Note_off_c, 0, 59, 55
2, 193292, Note_on_c, 0, 65, 70
2, 193299, Note_off_c, 0, 53, 49
2, 193300, Note_on_c, 0, 47, 40
2, 193332, Control_c, 0, 64, 0
2, 193428, Control_c, 0, 64, 127
2, 193573, Note_off_c, 0, 43, 50
2, 193718, Note_off_c, 0, 65, 57
2, 193724, Note_off_c, 0, 47, 50
2, 193750, Note_on_c, 0, 64, 55
2, 193758, Note_on_c, 0, 48, 43
2, 193760, Note_on_c, 0, 43, 47
2, 193774, Control_c, 0, 64, 0
2, 193869, Control_c, 0, 64, 127
2, 193963, Note_off_c, 0, 55, 52
2, 194080, Note_off_c, 0, 64, 53
2, 194090, Note_off_c, 0, 48, 50
2, 194185, Note_on_c, 0, 60, 40
2, 194186, Note_on_c, 0, 67, 54
2, 194188, Note_on_c, 0, 52, 37
2, 194190, Note_on_c, 0, 55, 48
2, 194240, Control_c, 0, 64, 0
2, 194333, Control_c, 0, 64, 127
2, 194409, Note_off_c, 0, 43, 51
2, 194633, Note_off_c, 0, 60, 50
2, 194635, Note_off_c, 0, 52, 49
2, 194636, Note_on_c, 0, 59, 55
2, 194638, Note_on_c, 0, 53, 48
2, 194668, Control_c, 0, 64, 0
2, 194764, Control_c, 0, 64, 127
2, 195071, Note_off_c, 0, 59, 53
2, 195073, Note_off_c, 0, 53, 52
2, 195074, Note_on_c, 0, 65, 60
2, 195075, Note_on_c, 0, 47, 42
2, 195167, Control_c, 0, 64, 0
2, 195262, Control_c, 0, 64, 127
2, 195320, Note_off_c, 0, 55, 52
2, 195515, Note_off_c, 0, 65, 55
2, 195518, Note_off_c, 0, 47, 50
2, 195533, Note_on_c, 0, 64, 34
2, 195535, Note_on_c, 0, 55, 30
2, 195536, Note_on_c, 0, 48, 34
2, 195537, Note_on_c, 0, 43, 32
2, 195611, Control_c, 0, 64, 0
2, 195709, Control_c, 0, 64, 127
2, 195747, Note_off_c, 0, 67, 53
2, 195764, Note_off_c, 0, 64, 48
2, 195766, Note_off_c, 0, 48, 48
2, 195767, Note_off_c, 0, 55, 47
2, 195964, Note_on_c, 0, 78, 51
2, 195974, Note_on_c, 0, 66, 39
2, 195975, Note_on_c, 0, 48, 44
2, 196010, Control_c, 0, 64, 0
2, 196090, Note_off_c, 0, 66, 49
2, 196104, Control_c, 0, 64, 127
2, 196114, Note_off_c, 0, 78, 52
2, 196116, Note_on_c, 0, 79, 61
2, 196123, Note_on_c, 0, 67, 49
2, 196255, Note_off_c, 0, 67, 52
2, 196258, Note_off_c, 0, 79, 55
2, 196261, Note_on_c, 0, 81, 66
2, 196269, Note_on_c, 0, 69, 54
2, 196405, Note_off_c, 0, 69, 53
2, 196422, Note_off_c, 0, 81, 56
2, 196427, Note_on_c, 0, 79, 66
2, 196433, Note_off_c, 0, 48, 51
2, 196434, Note_on_c, 0, 67, 54
2, 196435, Note_on_c, 0, 47, 60
2, 196449, Control_c, 0, 64, 0
2, 196546, Control_c, 0, 64, 127
2, 196561, Note_off_c, 0, 67, 53
2, 196573, Note_off_c, 0, 79, 56
2, 196575, Note_on_c, 0, 77, 66
2, 196583, Note_on_c, 0, 65, 54
2, 196693, Note_off_c, 0, 65, 53
2, 196720, Note_off_c, 0, 77, 56
2, 196722, Note_on_c, 0, 76, 66
2, 196728, Note_on_c, 0, 64, 54
2, 196835, Note_off_c, 0, 64, 53
2, 196848, Note_off_c, 0, 76, 56
2, 196851, Note_on_c, 0, 74, 63
2, 196857, Note_off_c, 0, 47, 55
2, 196860, Note_on_c, 0, 62, 51
2, 196861, Note_on_c, 0, 53, 60
2, 196913, Control_c, 0, 64, 0
2, 197008, Note_off_c, 0, 62, 52
2, 197010, Control_c, 0, 64, 127
2, 197013, Note_off_c, 0, 74, 55
2, 197014, Note_on_c, 0, 72, 60
2, 197021, Note_on_c, 0, 60, 48
2, 197149, Note_off_c, 0, 60, 52
2, 197152, Note_off_c, 0, 43, 48
2, 197154, Note_off_c, 0, 72, 55
2, 197156, Note_on_c, 0, 71, 57
2, 197163, Note_on_c, 0, 59, 45
2, 197188, Note_off_c, 0, 53, 55
2, 197214, Note_off_c, 0, 59, 51
2, 197215, Note_off_c, 0, 71, 54
2, 197295, Note_on_c, 0, 72, 54
2, 197300, Note_on_c, 0, 60, 42
2, 197302, Note_on_c, 0, 52, 36
2, 197303, Note_on_c, 0, 43, 36
2, 197327, Control_c, 0, 64, 0
2, 197420, Control_c, 0, 64, 127
2, 197422, Note_off_c, 0, 60, 50
2, 197438, Note_off_c, 0, 72, 53
2, 197440, Note_on_c, 0, 74, 54
2, 197447, Note_on_c, 0, 62, 42
2, 197572, Note_off_c, 0, 62, 50
2, 197583, Note_off_c, 0, 74, 53
2, 197585, Note_on_c, 0, 76, 58
2, 197592, Note_on_c, 0, 64, 46
2, 197712, Note_off_c, 0, 64, 51
2, 197730, Note_off_c, 0, 76, 54
2, 197732, Note_on_c, 0, 78, 62
2, 197738, Note_off_c, 0, 52, 49
2, 197741, Note_on_c, 0, 66, 50
2, 197743, Note_on_c, 0, 48, 38
2, 197792, Control_c, 0, 64, 0
2, 197863, Note_off_c, 0, 66, 52
2, 197877, Note_off_c, 0, 78, 55
2, 197879, Note_on_c, 0, 79, 66
2, 197885, Note_on_c, 0, 67, 54
2, 197886, Control_c, 0, 64, 127
2, 198008, Note_off_c, 0, 67, 53
2, 198023, Note_off_c, 0, 79, 56
2, 198026, Note_on_c, 0, 81, 66
2, 198035, Note_on_c, 0, 69, 54
2, 198159, Note_off_c, 0, 69, 53
2, 198173, Note_off_c, 0, 81, 56
2, 198177, Note_on_c, 0, 79, 66
2, 198184, Note_off_c, 0, 48, 49
2, 198185, Note_on_c, 0, 67, 54
2, 198187, Note_on_c, 0, 46, 44
2, 198240, Control_c, 0, 64, 0
2, 198295, Note_off_c, 0, 67, 53
2, 198320, Note_off_c, 0, 79, 56
2, 198322, Note_on_c, 0, 77, 64
2, 198329, Note_on_c, 0, 65, 52
2, 198336, Control_c, 0, 64, 127
2, 198453, Note_off_c, 0, 65, 53
2, 198468, Note_off_c, 0, 77, 56
2, 198471, Note_on_c, 0, 76, 62
2, 198479, Note_on_c, 0, 64, 50
2, 198607, Note_off_c, 0, 64, 52
2, 198616, Note_off_c, 0, 76, 55
2, 198618, Note_on_c, 0, 74, 59
2, 198623, Note_off_c, 0, 46, 51
2, 198625, Note_on_c, 0, 62, 47
2, 198626, Note_on_c, 0, 53, 48
2, 198695, Control_c, 0, 64, 0
2, 198742, Note_off_c, 0, 62, 51
2, 198758, Note_off_c, 0, 74, 54
2, 198760, Note_on_c, 0, 72, 57
2, 198769, Note_on_c, 0, 60, 45
2, 198788, Control_c, 0, 64, 127
2, 198911, Note_off_c, 0, 60, 51
2, 198919, Note_off_c, 0, 72, 54
2, 198920, Note_on_c, 0, 71, 54
2, 198926, Note_on_c, 0, 59, 42
2, 198956, Note_off_c, 0, 53, 52
2, 199015, Note_off_c, 0, 59, 50
2, 199027, Note_off_c, 0, 71, 53
2, 199061, Note_on_c, 0, 72, 54
2, 199064, Note_off_c, 0, 43, 49
2, 199066, Note_on_c, 0, 60, 42
2, 199069, Note_on_c, 0, 48, 48
2, 199078, Note_on_c, 0, 52, 42
2, 199090, Control_c, 0, 64, 0
2, 199182, Control_c, 0, 64, 127
2, 199436, Note_off_c, 0, 52, 50
2, 199495, Note_on_c, 0, 55, 46
2, 199504, Note_off_c, 0, 48, 52
2, 199506, Note_on_c, 0, 46, 52
2, 199518, Control_c, 0, 64, 0
2, 199588, Note_off_c, 0, 60, 50
2, 199612, Control_c, 0, 64, 127
2, 199637, Note_off_c, 0, 72, 53
2, 199637, Note_on_c, 0, 74, 64
2, 199646, Note_on_c, 0, 62, 52
2, 199759, Note_off_c, 0, 62, 53
2, 199784, Note_off_c, 0, 74, 56
2, 199786, Note_on_c, 0, 76, 67
2, 199793, Note_on_c, 0, 64, 55
2, 199853, Note_off_c, 0, 55, 51
2, 199879, Note_off_c, 0, 64, 53
2, 199898, Note_off_c, 0, 76, 57
2, 199905, Note_off_c, 0, 46, 53
2, 199931, Note_on_c, 0, 77, 70
2, 199937, Note_on_c, 0, 45, 57
2, 199939, Note_on_c, 0, 65, 58
2, 199942, Note_on_c, 0, 53, 51
2, 199988, Control_c, 0, 64, 0
2, 200083, Control_c, 0, 64, 127
2, 200208, Note_off_c, 0, 65, 54
2, 200226, Note_off_c, 0, 77, 57
2, 200229, Note_on_c, 0, 75, 75
2, 200235, Note_on_c, 0, 63, 63
2, 200357, Note_off_c, 0, 63, 55
2, 200371, Note_off_c, 0, 45, 54
2, 200374, Note_off_c, 0, 75, 59
2, 200377, Note_on_c, 0, 74, 78
2, 200385, Note_on_c, 0, 62, 66
2, 200387, Note_on_c, 0, 58, 60
2, 200388, Note_on_c, 0, 46, 60
2, 200439, Note_off_c, 0, 74, 59
2, 200441, Note_off_c, 0, 62, 56
2, 200443, Control_c, 0, 64, 0
2, 200476, Note_off_c, 0, 53, 52
2, 200540, Control_c, 0, 64, 127
2, 200571, Note_off_c, 0, 46, 55
2, 200598, Note_off_c, 0, 58, 55
2, 200669, Note_on_c, 0, 75, 78
2, 200679, Note_on_c, 0, 63, 66
2, 200756, Note_off_c, 0, 63, 56
2, 200766, Note_off_c, 0, 75, 59
2, 200801, Note_on_c, 0, 74, 74
2, 200806, Note_on_c, 0, 62, 62
2, 200807, Note_on_c, 0, 54, 60
2, 200808, Note_on_c, 0, 42, 55
2, 200810, Note_on_c, 0, 50, 48
2, 200848, Control_c, 0, 64, 0
2, 200940, Control_c, 0, 64, 127
2, 201033, Note_off_c, 0, 62, 55
2, 201086, Note_off_c, 0, 74, 59
2, 201087, Note_on_c, 0, 72, 66
2, 201094, Note_on_c, 0, 60, 54
2, 201209, Note_off_c, 0, 60, 53
2, 201228, Note_off_c, 0, 72, 56
2, 201234, Note_on_c, 0, 70, 62
2, 201238, Note_off_c, 0, 54, 55
2, 201240, Note_off_c, 0, 42, 53
2, 201243, Note_on_c, 0, 58, 50
2, 201244, Note_on_c, 0, 55, 45
2, 201245, Note_on_c, 0, 43, 56
2, 201258, Control_c, 0, 64, 0
2, 201296, Note_off_c, 0, 58, 52
2, 201297, Note_off_c, 0, 70, 55
2, 201448, Note_off_c, 0, 55, 51
2, 201450, Note_off_c, 0, 43, 54
2, 201508, Note_on_c, 0, 74, 54
2, 201514, Note_on_c, 0, 62, 42
2, 201621, Note_off_c, 0, 62, 50
2, 201622, Note_off_c, 0, 74, 53
2, 201654, Note_on_c, 0, 72, 66
2, 201661, Note_off_c, 0, 50, 52
2, 201664, Note_on_c, 0, 60, 54
2, 201665, Note_on_c, 0, 51, 48
2, 201667, Note_on_c, 0, 39, 52
2, 201709, Control_c, 0, 64, 127
2, 201776, Note_off_c, 0, 60, 53
2, 201799, Note_off_c, 0, 72, 56
2, 201894, Control_c, 0, 64, 0
2, 201958, Note_off_c, 0, 51, 52
2, 201960, Note_off_c, 0, 39, 53
2, 201961, Note_on_c, 0, 70, 66
2, 201963, Note_on_c, 0, 58, 54
2, 202022, Note_off_c, 0, 70, 56
2, 202025, Note_off_c, 0, 58, 53
2, 202106, Note_on_c, 0, 69, 60
2, 202107, Note_on_c, 0, 57, 48
2, 202108, Note_on_c, 0, 53, 48
2, 202110, Note_on_c, 0, 41, 45
2, 202171, Note_off_c, 0, 69, 55
2, 202173, Note_off_c, 0, 57, 52
2, 202174, Note_off_c, 0, 53, 52
2, 202176, Note_off_c, 0, 41, 51
2, 202377, Note_on_c, 0, 72, 57
2, 202385, Note_on_c, 0, 60, 51
2, 202458, Note_off_c, 0, 72, 54
2, 202465, Note_off_c, 0, 60, 52
2, 202524, Note_on_c, 0, 70, 78
2, 202530, Note_on_c, 0, 46, 66
2, 202531, Note_on_c, 0, 58, 48
2, 202532, Note_on_c, 0, 34, 48
2, 202587, Note_off_c, 0, 70, 59
2, 202592, Note_off_c, 0, 58, 52
2, 202595, Note_off_c, 0, 34, 52
2, 202596, Note_off_c, 0, 46, 56
2, 202668, Note_on_c, 0, 70, 54
2, 202675, Note_on_c, 0, 46, 42
2, 202730, Note_off_c, 0, 70, 53
2, 202739, Note_off_c, 0, 46, 50
2, 202811, Note_on_c, 0, 70, 54
2, 202819, Note_on_c, 0, 46, 43
2, 202879, Note_off_c, 0, 70, 53
2, 202885, Note_off_c, 0, 46, 50
2, 202943, Note_on_c, 0, 70, 55
2, 202952, Note_on_c, 0, 46, 43
2, 203091, Note_on_c, 0, 69, 55
2, 203101, Note_on_c, 0, 45, 44
2, 203160, Note_off_c, 0, 46, 50
2, 203161, Note_off_c, 0, 70, 53
2, 203239, Note_on_c, 0, 70, 56
2, 203249, Note_on_c, 0, 46, 44
2, 203300, Note_off_c, 0, 69, 53
2, 203303, Note_off_c, 0, 45, 51
2, 203356, Note_off_c, 0, 70, 54
2, 203362, Note_off_c, 0, 46, 51
2, 203385, Note_on_c, 0, 74, 80
2, 203392, Note_on_c, 0, 62, 50
2, 203394, Note_on_c, 0, 50, 69
2, 203396, Note_on_c, 0, 38, 51
2, 203467, Note_off_c, 0, 74, 60
2, 203473, Note_off_c, 0, 62, 52
2, 203474, Note_off_c, 0, 50, 57
2, 203476, Note_off_c, 0, 38, 52
2, 203531, Note_on_c, 0, 74, 57
2, 203539, Note_on_c, 0, 50, 45
2, 203610, Note_off_c, 0, 74, 54
2, 203616, Note_off_c, 0, 50, 51
2, 203675, Note_on_c, 0, 74, 57
2, 203683, Note_on_c, 0, 50, 46
2, 203738, Note_off_c, 0, 74, 54
2, 203746, Note_off_c, 0, 50, 51
2, 203821, Note_on_c, 0, 74, 58
2, 203828, Note_on_c, 0, 50, 46
2, 203969, Note_on_c, 0, 73, 58
2, 203976, Note_on_c, 0, 49, 47
2, 204017, Note_off_c, 0, 74, 54
2, 204055, Note_off_c, 0, 50, 51
2, 204117, Note_on_c, 0, 74, 59
2, 204125, Note_on_c, 0, 50, 47
2, 204151, Note_off_c, 0, 73, 54
2, 204171, Note_off_c, 0, 49, 51
2, 204214, Note_off_c, 0, 74, 54
2, 204223, Note_off_c, 0, 50, 51
2, 204265, Note_on_c, 0, 77, 83
2, 204271, Note_on_c, 0, 53, 72
2, 204271, Note_on_c, 0, 65, 53
2, 204274, Note_on_c, 0, 41, 54
2, 204326, Note_off_c, 0, 77, 60
2, 204334, Note_off_c, 0, 41, 53
2, 204335, Note_off_c, 0, 65, 53
2, 204337, Note_off_c, 0, 53, 58
2, 204391, Note_on_c, 0, 77, 60
2, 204398, Note_on_c, 0, 53, 48
2, 204469, Note_off_c, 0, 77, 55
2, 204478, Note_off_c, 0, 53, 52
2, 204534, Note_on_c, 0, 77, 60
2, 204542, Note_on_c, 0, 53, 49
2, 204615, Note_off_c, 0, 77, 55
2, 204623, Note_off_c, 0, 53, 52
2, 204681, Note_on_c, 0, 77, 61
2, 204689, Note_on_c, 0, 53, 49
2, 204829, Note_on_c, 0, 76, 61
2, 204838, Note_on_c, 0, 52, 50
2, 204865, Note_off_c, 0, 77, 55
2, 204894, Note_off_c, 0, 53, 52
2, 204979, Note_on_c, 0, 77, 62
2, 204985, Note_on_c, 0, 53, 50
2, 205001, Note_off_c, 0, 76, 55
2, 205032, Note_off_c, 0, 52, 52
2, 205092, Note_off_c, 0, 77, 55
2, 205098, Note_off_c, 0, 53, 52
2, 205131, Note_on_c, 0, 82, 80
2, 205134, Note_on_c, 0, 58, 75
2, 205134, Note_on_c, 0, 70, 56
2, 205135, Note_on_c, 0, 46, 57
2, 205194, Note_off_c, 0, 82, 60
2, 205194, Note_off_c, 0, 70, 54
2, 205197, Note_off_c, 0, 46, 54
2, 205199, Note_off_c, 0, 58, 59
2, 205274, Note_on_c, 0, 82, 57
2, 205276, Note_on_c, 0, 58, 51
2, 205338, Note_off_c, 0, 82, 54
2, 205340, Note_off_c, 0, 58, 52
2, 205418, Note_on_c, 0, 58, 52
2, 205420, Note_on_c, 0, 82, 57
2, 205483, Note_off_c, 0, 82, 54
2, 205485, Note_off_c, 0, 58, 53
2, 205548, Note_on_c, 0, 58, 52
2, 205549, Note_on_c, 0, 82, 58
2, 205696, Note_on_c, 0, 57, 53
2, 205698, Note_on_c, 0, 81, 58
2, 205744, Note_off_c, 0, 58, 53
2, 205758, Note_off_c, 0, 82, 54
2, 205844, Note_on_c, 0, 82, 59
2, 205846, Note_on_c, 0, 58, 53
2, 205878, Note_off_c, 0, 81, 54
2, 205901, Note_off_c, 0, 57, 53
2, 205958, Note_off_c, 0, 82, 54
2, 205961, Note_off_c, 0, 58, 53
2, 206026, Note_on_c, 0, 55, 45
2, 206028, Note_on_c, 0, 70, 60
2, 206038, Note_on_c, 0, 58, 50
2, 206075, Control_c, 0, 64, 127
2, 206135, Note_on_c, 0, 72, 60
2, 206155, Note_off_c, 0, 70, 55
2, 206215, Note_on_c, 0, 70, 62
2, 206225, Note_off_c, 0, 72, 55
2, 206315, Note_on_c, 0, 69, 64
2, 206344, Note_off_c, 0, 70, 55
2, 206397, Note_on_c, 0, 70, 66
2, 206420, Note_off_c, 0, 69, 56
2, 206471, Note_on_c, 0, 69, 68
2, 206485, Note_off_c, 0, 70, 56
2, 206565, Control_c, 0, 64, 70
2, 206571, Note_on_c, 0, 70, 70
2, 206595, Note_off_c, 0, 69, 57
2, 206647, Note_on_c, 0, 71, 73
2, 206672, Note_off_c, 0, 70, 57
2, 206732, Control_c, 0, 64, 127
2, 206741, Note_on_c, 0, 72, 75
2, 206778, Note_off_c, 0, 71, 58
2, 206783, Note_off_c, 0, 58, 52
2, 206832, Note_on_c, 0, 73, 77
2, 206880, Note_off_c, 0, 72, 59
2, 206886, Note_off_c, 0, 55, 51
2, 206909, Note_on_c, 0, 74, 79
2, 206935, Note_off_c, 0, 73, 59
2, 207002, Note_on_c, 0, 75, 81
2, 207014, Note_off_c, 0, 74, 60
2, 207071, Note_on_c, 0, 76, 84
2, 207072, Note_on_c, 0, 61, 68
2, 207075, Note_on_c, 0, 54, 68
2, 207081, Note_on_c, 0, 58, 60
2, 207083, Note_on_c, 0, 64, 72
2, 207108, Note_off_c, 0, 75, 60
2, 207122, Note_on_c, 0, 77, 84
2, 207131, Note_off_c, 0, 76, 61
2, 207158, Note_on_c, 0, 78, 84
2, 207159, Control_c, 0, 64, 70
2, 207167, Note_off_c, 0, 77, 61
2, 207215, Note_on_c, 0, 79, 85
2, 207231, Note_off_c, 0, 78, 61
2, 207261, Note_on_c, 0, 80, 86
2, 207283, Note_off_c, 0, 79, 61
2, 207300, Note_on_c, 0, 81, 86
2, 207309, Note_off_c, 0, 80, 61
2, 207314, Control_c, 0, 64, 127
2, 207352, Note_on_c, 0, 82, 87
2, 207365, Note_off_c, 0, 81, 61
2, 207384, Note_on_c, 0, 83, 88
2, 207399, Note_off_c, 0, 82, 61
2, 207471, Note_on_c, 0, 84, 89
2, 207480, Note_off_c, 0, 83, 62
2, 207535, Note_on_c, 0, 85, 90
2, 207558, Note_off_c, 0, 84, 62
2, 207602, Note_off_c, 0, 61, 57
2, 207612, Note_off_c, 0, 54, 57
2, 207616, Note_off_c, 0, 64, 58
2, 207620, Note_on_c, 0, 86, 92
2, 207628, Note_off_c, 0, 58, 55
2, 207657, Note_off_c, 0, 85, 62
2, 207691, Note_on_c, 0, 87, 93
2, 207699, Note_off_c, 0, 86, 62
2, 207766, Note_on_c, 0, 88, 94
2, 207795, Note_off_c, 0, 87, 63
2, 207828, Note_off_c, 0, 88, 63
2, 207831, Note_on_c, 0, 62, 72
2, 207833, Note_on_c, 0, 89, 96
2, 207834, Note_on_c, 0, 65, 76
2, 207836, Note_on_c, 0, 58, 70
2, 207837, Note_on_c, 0, 53, 74
2, 207870, Control_c, 0, 64, 0
2, 207931, Note_off_c, 0, 53, 59
2, 207948, Note_off_c, 0, 58, 57
2, 207950, Note_off_c, 0, 65, 59
2, 207951, Note_off_c, 0, 62, 58
2, 207976, Note_on_c, 0, 53, 71
2, 208013, Control_c, 0, 64, 85
2, 208079, Note_off_c, 0, 53, 58
2, 208122, Note_on_c, 0, 53, 70
2, 208167, Note_off_c, 0, 89, 63
2, 208233, Note_off_c, 0, 53, 57
2, 208262, Note_on_c, 0, 86, 84
2, 208275, Note_on_c, 0, 82, 70
2, 208279, Note_on_c, 0, 74, 66
2, 208309, Control_c, 0, 64, 0
2, 208412, Note_on_c, 0, 53, 68
2, 208451, Control_c, 0, 64, 85
2, 208507, Note_off_c, 0, 53, 57
2, 208517, Note_off_c, 0, 74, 56
2, 208534, Note_off_c, 0, 86, 61
2, 208541, Note_off_c, 0, 82, 57
2, 208572, Note_on_c, 0, 53, 67
2, 208693, Note_off_c, 0, 53, 57
2, 208712, Note_on_c, 0, 87, 84
2, 208725, Note_on_c, 0, 84, 69
2, 208728, Note_on_c, 0, 75, 60
2, 208741, Control_c, 0, 64, 0
2, 208864, Note_on_c, 0, 41, 65
2, 208885, Control_c, 0, 64, 85
2, 208955, Note_off_c, 0, 75, 55
2, 208974, Note_off_c, 0, 84, 57
2, 208975, Note_off_c, 0, 41, 56
2, 208988, Note_off_c, 0, 87, 61
2, 209011, Note_on_c, 0, 41, 64
2, 209139, Note_off_c, 0, 41, 56
2, 209161, Note_on_c, 0, 81, 86
2, 209167, Note_on_c, 0, 69, 72
2, 209169, Note_on_c, 0, 75, 68
2, 209173, Note_on_c, 0, 72, 60
2, 209194, Control_c, 0, 64, 0
2, 209305, Note_on_c, 0, 41, 62
2, 209338, Control_c, 0, 64, 85
2, 209417, Note_off_c, 0, 75, 57
2, 209420, Note_off_c, 0, 41, 55
2, 209430, Note_off_c, 0, 72, 55
2, 209432, Note_off_c, 0, 69, 58
2, 209439, Note_off_c, 0, 81, 61
2, 209471, Note_on_c, 0, 41, 60
2, 209618, Note_off_c, 0, 41, 55
2, 209621, Note_on_c, 0, 58, 70
2, 209622, Note_on_c, 0, 34, 48
2, 209623, Control_c, 0, 64, 0
2, 209684, Note_off_c, 0, 58, 57
2, 209684, Note_off_c, 0, 34, 52
2, 209686, Note_on_c, 0, 70, 83
2, 209765, Note_on_c, 0, 58, 71
2, 209766, Note_on_c, 0, 46, 50
2, 209781, Note_off_c, 0, 70, 60
2, 209827, Note_off_c, 0, 46, 52
2, 209828, Note_off_c, 0, 58, 58
2, 209830, Note_on_c, 0, 70, 83
2, 209908, Note_on_c, 0, 58, 72
2, 209911, Note_on_c, 0, 46, 52
2, 209934, Note_off_c, 0, 70, 60
2, 209972, Note_off_c, 0, 58, 58
2, 209975, Note_off_c, 0, 46, 53
2, 209976, Note_on_c, 0, 70, 84
2, 210040, Note_on_c, 0, 58, 72
2, 210042, Note_on_c, 0, 46, 54
2, 210051, Note_off_c, 0, 70, 61
2, 210121, Note_off_c, 0, 58, 58
2, 210123, Note_on_c, 0, 70, 85
2, 210190, Note_on_c, 0, 57, 73
2, 210191, Note_on_c, 0, 45, 57
2, 210202, Note_off_c, 0, 70, 61
2, 210229, Note_off_c, 0, 46, 53
2, 210270, Note_off_c, 0, 57, 58
2, 210270, Note_on_c, 0, 69, 85
2, 210335, Note_on_c, 0, 58, 74
2, 210339, Note_on_c, 0, 46, 59
2, 210346, Note_off_c, 0, 69, 61
2, 210378, Note_off_c, 0, 45, 54
2, 210418, Note_off_c, 0, 58, 59
2, 210419, Note_on_c, 0, 70, 86
2, 210482, Note_on_c, 0, 62, 68
2, 210484, Note_off_c, 0, 70, 61
2, 210485, Note_on_c, 0, 38, 85
2, 210491, Note_off_c, 0, 46, 54
2, 210562, Note_off_c, 0, 62, 57
2, 210563, Note_off_c, 0, 38, 61
2, 210565, Note_on_c, 0, 74, 87
2, 210625, Note_on_c, 0, 62, 75
2, 210629, Note_on_c, 0, 50, 64
2, 210636, Note_off_c, 0, 74, 61
2, 210707, Note_off_c, 0, 50, 56
2, 210708, Note_off_c, 0, 62, 59
2, 210710, Note_on_c, 0, 74, 87
2, 210773, Note_on_c, 0, 62, 76
2, 210774, Note_on_c, 0, 50, 66
2, 210787, Note_off_c, 0, 74, 61
2, 210837, Note_off_c, 0, 50, 56
2, 210838, Note_off_c, 0, 62, 59
2, 210839, Note_on_c, 0, 74, 88
2, 210919, Note_on_c, 0, 62, 76
2, 210920, Note_on_c, 0, 50, 68
2, 210933, Note_off_c, 0, 74, 62
2, 210983, Note_off_c, 0, 62, 59
2, 210984, Note_on_c, 0, 74, 89
2, 211069, Note_on_c, 0, 61, 77
2, 211070, Note_on_c, 0, 49, 70
2, 211076, Note_off_c, 0, 74, 62
2, 211112, Note_off_c, 0, 50, 57
2, 211130, Note_off_c, 0, 61, 59
2, 211132, Note_on_c, 0, 73, 89
2, 211217, Note_on_c, 0, 62, 78
2, 211218, Note_on_c, 0, 50, 72
2, 211242, Note_off_c, 0, 73, 62
2, 211260, Note_off_c, 0, 49, 57
2, 211282, Note_off_c, 0, 62, 59
2, 211282, Note_on_c, 0, 74, 90
2, 211364, Note_on_c, 0, 65, 96
2, 211365, Note_off_c, 0, 74, 62
2, 211365, Note_on_c, 0, 41, 90
2, 211374, Note_off_c, 0, 50, 58
2, 211426, Note_off_c, 0, 65, 63
2, 211427, Note_on_c, 0, 77, 90
2, 211491, Note_off_c, 0, 41, 62
2, 211492, Note_on_c, 0, 65, 77
2, 211495, Note_on_c, 0, 53, 71
2, 211501, Note_off_c, 0, 77, 62
2, 211569, Note_off_c, 0, 53, 58
2, 211570, Note_off_c, 0, 65, 59
2, 211572, Note_on_c, 0, 77, 89
2, 211635, Note_on_c, 0, 65, 76
2, 211636, Note_on_c, 0, 53, 70
2, 211646, Note_off_c, 0, 77, 62
2, 211716, Note_off_c, 0, 65, 59
2, 211717, Note_off_c, 0, 53, 57
2, 211718, Note_on_c, 0, 77, 88
2, 211782, Note_on_c, 0, 65, 75
2, 211785, Note_on_c, 0, 53, 69
2, 211795, Note_off_c, 0, 77, 62
2, 211865, Note_off_c, 0, 65, 59
2, 211866, Note_on_c, 0, 77, 87
2, 211930, Note_on_c, 0, 64, 74
2, 211931, Note_on_c, 0, 52, 68
2, 211940, Note_off_c, 0, 77, 61
2, 211970, Note_off_c, 0, 53, 57
2, 212011, Note_off_c, 0, 64, 59
2, 212013, Note_on_c, 0, 76, 86
2, 212077, Note_on_c, 0, 65, 73
2, 212080, Note_on_c, 0, 53, 67
2, 212101, Note_off_c, 0, 76, 61
2, 212117, Note_off_c, 0, 52, 57
2, 212143, Note_off_c, 0, 65, 58
2, 212144, Note_on_c, 0, 77, 85
2, 212227, Note_on_c, 0, 70, 93
2, 212228, Note_on_c, 0, 46, 90
2, 212231, Note_off_c, 0, 53, 57
2, 212240, Note_off_c, 0, 77, 61
2, 212290, Note_off_c, 0, 70, 63
2, 212293, Note_off_c, 0, 46, 62
2, 212293, Note_on_c, 0, 82, 84
2, 212370, Note_on_c, 0, 70, 77
2, 212373, Note_on_c, 0, 58, 64
2, 212381, Note_off_c, 0, 82, 61
2, 212436, Note_off_c, 0, 58, 56
2, 212437, Note_off_c, 0, 70, 59
2, 212438, Note_on_c, 0, 82, 83
2, 212515, Note_on_c, 0, 70, 76
2, 212516, Note_on_c, 0, 58, 63
2, 212538, Note_off_c, 0, 82, 60
2, 212579, Note_off_c, 0, 58, 55
2, 212581, Note_off_c, 0, 70, 59
2, 212583, Note_on_c, 0, 82, 82
2, 212646, Note_on_c, 0, 70, 75
2, 212647, Note_on_c, 0, 58, 62
2, 212660, Note_off_c, 0, 82, 60
2, 212728, Note_off_c, 0, 70, 59
2, 212729, Note_on_c, 0, 82, 81
2, 212810, Note_off_c, 0, 58, 55
2, 212813, Note_on_c, 0, 69, 74
2, 212814, Note_on_c, 0, 57, 61
2, 212827, Note_off_c, 0, 82, 60
2, 212874, Note_off_c, 0, 69, 59
2, 212877, Note_on_c, 0, 81, 80
2, 212957, Note_off_c, 0, 57, 55
2, 212959, Note_on_c, 0, 70, 73
2, 212960, Note_on_c, 0, 58, 60
2, 212965, Note_off_c, 0, 81, 60
2, 213025, Note_off_c, 0, 70, 58
2, 213025, Note_on_c, 0, 82, 78
2, 213056, Note_off_c, 0, 58, 55
2, 213137, Note_off_c, 0, 82, 59
2, 213160, Note_on_c, 0, 58, 60
2, 213161, Note_on_c, 0, 55, 48
2, 213162, Note_on_c, 0, 46, 40
2, 213168, Note_on_c, 0, 43, 37
2, 213234, Control_c, 0, 64, 0
2, 213241, Note_on_c, 0, 60, 60
2, 213248, Note_off_c, 0, 58, 55
2, 213347, Note_on_c, 0, 58, 61
2, 213380, Note_off_c, 0, 60, 55
2, 213415, Control_c, 0, 64, 85
2, 213429, Note_on_c, 0, 57, 62
2, 213449, Note_off_c, 0, 58, 55
2, 213529, Note_on_c, 0, 58, 63
2, 213553, Note_off_c, 0, 57, 55
2, 213616, Note_on_c, 0, 57, 64
2, 213623, Note_off_c, 0, 58, 55
2, 213713, Note_on_c, 0, 58, 65
2, 213744, Note_off_c, 0, 57, 56
2, 213791, Note_on_c, 0, 59, 66
2, 213829, Note_off_c, 0, 58, 56
2, 213890, Note_on_c, 0, 60, 67
2, 213923, Note_off_c, 0, 59, 56
2, 213968, Note_on_c, 0, 61, 68
2, 213969, Note_off_c, 0, 46, 50
2, 213979, Note_off_c, 0, 60, 57
2, 214037, Note_off_c, 0, 43, 49
2, 214068, Note_on_c, 0, 62, 69
2, 214086, Note_off_c, 0, 55, 52
2, 214098, Note_off_c, 0, 61, 57
2, 214145, Note_on_c, 0, 63, 70
2, 214169, Note_off_c, 0, 62, 57
2, 214241, Note_on_c, 0, 42, 36
2, 214242, Note_on_c, 0, 54, 58
2, 214246, Note_on_c, 0, 46, 48
2, 214247, Note_on_c, 0, 64, 71
2, 214259, Note_off_c, 0, 63, 57
2, 214290, Control_c, 0, 64, 0
2, 214310, Note_on_c, 0, 65, 72
2, 214355, Note_off_c, 0, 64, 58
2, 214409, Note_on_c, 0, 66, 73
2, 214427, Note_off_c, 0, 65, 58
2, 214468, Control_c, 0, 64, 85
2, 214486, Note_on_c, 0, 67, 74
2, 214496, Note_off_c, 0, 66, 58
2, 214576, Note_on_c, 0, 68, 75
2, 214595, Note_off_c, 0, 67, 59
2, 214650, Note_on_c, 0, 69, 76
2, 214676, Note_off_c, 0, 68, 59
2, 214739, Note_on_c, 0, 70, 77
2, 214764, Note_off_c, 0, 69, 59
2, 214831, Note_on_c, 0, 71, 78
2, 214860, Note_off_c, 0, 70, 59
2, 214907, Note_on_c, 0, 72, 79
2, 214908, Note_off_c, 0, 71, 59
2, 214925, Note_off_c, 0, 46, 52
2, 214974, Note_on_c, 0, 73, 80
2, 214986, Note_off_c, 0, 42, 49
2, 215013, Note_off_c, 0, 72, 60
2, 215067, Note_on_c, 0, 74, 81
2, 215078, Note_off_c, 0, 73, 60
2, 215139, Note_on_c, 0, 75, 82
2, 215142, Note_off_c, 0, 54, 54
2, 215163, Note_off_c, 0, 74, 60
2, 215225, Note_on_c, 0, 76, 83
2, 215225, Note_on_c, 0, 53, 70
2, 215227, Note_on_c, 0, 46, 66
2, 215230, Note_off_c, 0, 75, 60
2, 215230, Note_on_c, 0, 41, 60
2, 215268, Control_c, 0, 64, 0
2, 215296, Note_on_c, 0, 77, 84
2, 215309, Note_off_c, 0, 76, 60
2, 215376, Note_on_c, 0, 78, 85
2, 215413, Note_off_c, 0, 77, 61
2, 215430, Control_c, 0, 64, 85
2, 215467, Note_on_c, 0, 79, 86
2, 215479, Note_off_c, 0, 78, 61
2, 215532, Note_on_c, 0, 80, 87
2, 215560, Note_off_c, 0, 79, 61
2, 215620, Note_on_c, 0, 81, 88
2, 215643, Note_off_c, 0, 80, 61
2, 215692, Note_on_c, 0, 82, 89
2, 215708, Note_off_c, 0, 81, 62
2, 215753, Note_on_c, 0, 83, 90
2, 215769, Note_off_c, 0, 82, 62
2, 215838, Note_on_c, 0, 84, 91
2, 215862, Note_off_c, 0, 83, 62
2, 215886, Note_off_c, 0, 46, 56
2, 215903, Note_on_c, 0, 85, 92
2, 215918, Note_off_c, 0, 84, 62
2, 215923, Note_off_c, 0, 53, 57
2, 215985, Note_on_c, 0, 84, 93
2, 216019, Note_off_c, 0, 85, 62
2, 216051, Note_on_c, 0, 85, 94
2, 216065, Note_off_c, 0, 41, 55
2, 216075, Note_off_c, 0, 84, 63
2, 216130, Note_on_c, 0, 40, 65
2, 216131, Note_on_c, 0, 46, 70
2, 216133, Note_on_c, 0, 52, 74
2, 216134, Note_off_c, 0, 85, 63
2, 216136, Note_on_c, 0, 84, 96
2, 216173, Control_c, 0, 64, 0
2, 216196, Note_on_c, 0, 85, 96
2, 216219, Note_off_c, 0, 84, 63
2, 216277, Note_on_c, 0, 84, 95
2, 216301, Note_off_c, 0, 85, 63
2, 216312, Control_c, 0, 64, 85
2, 216340, Note_on_c, 0, 85, 94
2, 216349, Note_off_c, 0, 84, 63
2, 216420, Note_on_c, 0, 84, 93
2, 216457, Note_off_c, 0, 85, 63
2, 216485, Note_on_c, 0, 85, 92
2, 216495, Note_off_c, 0, 84, 63
2, 216562, Note_on_c, 0, 84, 90
2, 216592, Note_off_c, 0, 85, 62
2, 216628, Note_on_c, 0, 85, 89
2, 216642, Note_off_c, 0, 84, 62
2, 216682, Note_off_c, 0, 46, 57
2, 216709, Note_on_c, 0, 84, 88
2, 216726, Note_off_c, 0, 85, 62
2, 216771, Note_on_c, 0, 85, 87
2, 216792, Note_off_c, 0, 84, 62
2, 216852, Note_on_c, 0, 84, 86
2, 216870, Note_off_c, 0, 52, 59
2, 216879, Note_off_c, 0, 85, 61
2, 216905, Note_off_c, 0, 40, 56
2, 216918, Note_on_c, 0, 85, 84
2, 216937, Note_off_c, 0, 84, 61
2, 216982, Note_off_c, 0, 85, 61
2, 216998, Note_on_c, 0, 46, 72
2, 216999, Note_on_c, 0, 86, 96
2, 217002, Note_on_c, 0, 53, 78
2, 217003, Note_on_c, 0, 41, 68
2, 217034, Control_c, 0, 64, 0
2, 217046, Note_off_c, 0, 86, 63
2, 217049, Note_on_c, 0, 87, 96
2, 217096, Note_off_c, 0, 87, 63
2, 217097, Note_on_c, 0, 86, 96
2, 217146, Note_on_c, 0, 84, 95
2, 217171, Note_off_c, 0, 86, 63
2, 217175, Control_c, 0, 64, 85
2, 217240, Note_off_c, 0, 41, 57
2, 217242, Note_off_c, 0, 46, 58
2, 217252, Note_off_c, 0, 53, 59
2, 217294, Note_on_c, 0, 82, 93
2, 217324, Note_off_c, 0, 84, 63
2, 217356, Note_off_c, 0, 82, 63
2, 217440, Note_on_c, 0, 62, 72
2, 217441, Note_on_c, 0, 82, 90
2, 217443, Note_on_c, 0, 58, 66
2, 217444, Note_on_c, 0, 53, 60
2, 217462, Control_c, 0, 64, 0
2, 217488, Note_off_c, 0, 82, 62
2, 217491, Note_on_c, 0, 84, 90
2, 217539, Note_off_c, 0, 84, 62
2, 217541, Note_on_c, 0, 82, 89
2, 217588, Note_on_c, 0, 81, 88
2, 217603, Control_c, 0, 64, 85
2, 217614, Note_off_c, 0, 82, 62
2, 217739, Note_off_c, 0, 62, 58
2, 217742, Note_off_c, 0, 53, 55
2, 217743, Note_off_c, 0, 58, 56
2, 217744, Note_on_c, 0, 79, 86
2, 217798, Note_off_c, 0, 81, 62
2, 217806, Note_off_c, 0, 79, 61
2, 217890, Note_on_c, 0, 62, 62
2, 217892, Note_on_c, 0, 58, 55
2, 217893, Note_on_c, 0, 77, 84
2, 217894, Note_on_c, 0, 53, 50
2, 217896, Control_c, 0, 64, 0
2, 217939, Note_off_c, 0, 77, 61
2, 217940, Note_on_c, 0, 79, 83
2, 217990, Note_off_c, 0, 79, 60
2, 217992, Note_on_c, 0, 77, 82
2, 218042, Control_c, 0, 64, 85
2, 218044, Note_on_c, 0, 75, 81
2, 218085, Note_off_c, 0, 77, 60
2, 218196, Note_off_c, 0, 58, 53
2, 218197, Note_off_c, 0, 62, 55
2, 218198, Note_off_c, 0, 53, 52
2, 218200, Note_on_c, 0, 74, 79
2, 218225, Note_off_c, 0, 75, 60
2, 218265, Note_off_c, 0, 74, 60
2, 218348, Note_on_c, 0, 72, 77
2, 218350, Note_on_c, 0, 63, 60
2, 218351, Note_on_c, 0, 60, 49
2, 218353, Note_on_c, 0, 53, 40
2, 218385, Control_c, 0, 64, 0
2, 218504, Note_off_c, 0, 72, 59
2, 218506, Note_on_c, 0, 75, 75
2, 218533, Control_c, 0, 64, 85
2, 218624, Note_off_c, 0, 75, 59
2, 218656, Note_off_c, 0, 63, 55
2, 218657, Note_off_c, 0, 60, 52
2, 218661, Note_off_c, 0, 53, 50
2, 218662, Note_on_c, 0, 69, 72
2, 218746, Note_off_c, 0, 69, 58
2, 218814, Note_on_c, 0, 70, 44
2, 218816, Note_on_c, 0, 62, 48
2, 218817, Note_on_c, 0, 58, 36
2, 218870, Control_c, 0, 64, 0
2, 218900, Note_off_c, 0, 70, 51
2, 218902, Note_on_c, 0, 74, 44
2, 218971, Note_off_c, 0, 74, 51
2, 218972, Note_on_c, 0, 82, 45
2, 219018, Control_c, 0, 64, 70
2, 219041, Note_off_c, 0, 82, 51
2, 219042, Note_on_c, 0, 74, 46
2, 219129, Note_off_c, 0, 62, 52
2, 219130, Note_off_c, 0, 74, 51
2, 219131, Note_off_c, 0, 58, 49
2, 219133, Note_on_c, 0, 82, 47
2, 219198, Note_off_c, 0, 82, 51
2, 219200, Note_on_c, 0, 74, 48
2, 219285, Note_off_c, 0, 74, 52
2, 219286, Note_on_c, 0, 70, 49
2, 219288, Note_on_c, 0, 46, 76
2, 219356, Note_off_c, 0, 70, 52
2, 219358, Note_on_c, 0, 74, 50
2, 219378, Control_c, 0, 64, 0
2, 219440, Note_off_c, 0, 74, 52
2, 219443, Note_on_c, 0, 82, 51
2, 219510, Note_off_c, 0, 82, 52
2, 219512, Note_on_c, 0, 74, 52
2, 219528, Control_c, 0, 64, 70
2, 219597, Note_off_c, 0, 74, 53
2, 219600, Note_on_c, 0, 82, 53
2, 219686, Note_off_c, 0, 82, 53
2, 219689, Note_on_c, 0, 74, 54
2, 219755, Note_off_c, 0, 74, 53
2, 219756, Note_on_c, 0, 71, 56
2, 219841, Note_off_c, 0, 71, 54
2, 219845, Note_on_c, 0, 74, 56
2, 219913, Note_off_c, 0, 74, 54
2, 219914, Note_on_c, 0, 80, 55
2, 219999, Note_off_c, 0, 80, 53
2, 220001, Note_on_c, 0, 74, 54
2, 220069, Note_off_c, 0, 74, 53
2, 220071, Note_on_c, 0, 80, 53
2, 220139, Note_off_c, 0, 80, 53
2, 220141, Note_on_c, 0, 74, 52
2, 220227, Note_off_c, 0, 74, 53
2, 220229, Note_on_c, 0, 70, 51
2, 220297, Note_off_c, 0, 70, 52
2, 220299, Note_on_c, 0, 74, 50
2, 220384, Note_off_c, 0, 74, 52
2, 220385, Note_on_c, 0, 82, 49
2, 220472, Note_off_c, 0, 82, 52
2, 220473, Note_on_c, 0, 74, 48
2, 220539, Note_off_c, 0, 74, 52
2, 220541, Note_on_c, 0, 82, 47
2, 220627, Note_off_c, 0, 82, 51
2, 220628, Note_on_c, 0, 74, 46
2, 220696, Note_off_c, 0, 74, 51
2, 220699, Note_on_c, 0, 68, 44
2, 220784, Note_off_c, 0, 68, 51
2, 220786, Note_on_c, 0, 74, 45
2, 220855, Note_off_c, 0, 74, 51
2, 220856, Note_on_c, 0, 83, 46
2, 220940, Note_off_c, 0, 83, 51
2, 220943, Note_on_c, 0, 74, 47
2, 221010, Note_off_c, 0, 74, 51
2, 221012, Note_on_c, 0, 83, 48
2, 221099, Note_off_c, 0, 83, 52
2, 221100, Note_on_c, 0, 74, 49
2, 221168, Note_off_c, 0, 74, 52
2, 221170, Note_off_c, 0, 46, 59
2, 221171, Note_on_c, 0, 70, 50
2, 221172, Note_on_c, 0, 58, 77
2, 221222, Control_c, 0, 64, 0
2, 221255, Note_off_c, 0, 70, 52
2, 221256, Note_on_c, 0, 74, 51
2, 221323, Note_off_c, 0, 74, 52
2, 221326, Note_on_c, 0, 82, 52
2, 221369, Control_c, 0, 64, 70
2, 221411, Note_off_c, 0, 82, 53
2, 221414, Note_on_c, 0, 74, 53
2, 221481, Note_off_c, 0, 74, 53
2, 221483, Note_on_c, 0, 82, 54
2, 221568, Note_off_c, 0, 82, 53
2, 221571, Note_on_c, 0, 74, 55
2, 221639, Note_off_c, 0, 74, 53
2, 221640, Note_on_c, 0, 71, 56
2, 221728, Note_off_c, 0, 71, 54
2, 221729, Note_on_c, 0, 74, 56
2, 221795, Note_off_c, 0, 74, 54
2, 221798, Note_on_c, 0, 80, 55
2, 221883, Note_off_c, 0, 80, 53
2, 221884, Note_on_c, 0, 74, 54
2, 221952, Note_off_c, 0, 74, 53
2, 221954, Note_on_c, 0, 80, 53
2, 222039, Note_off_c, 0, 80, 53
2, 222042, Note_on_c, 0, 74, 52
2, 222109, Note_off_c, 0, 74, 53
2, 222111, Note_on_c, 0, 68, 51
2, 222198, Note_off_c, 0, 68, 52
2, 222199, Note_on_c, 0, 74, 50
2, 222266, Note_off_c, 0, 74, 52
2, 222267, Note_on_c, 0, 83, 49
2, 222354, Note_off_c, 0, 83, 52
2, 222355, Note_on_c, 0, 74, 48
2, 222422, Note_off_c, 0, 74, 52
2, 222425, Note_on_c, 0, 83, 47
2, 222511, Note_off_c, 0, 83, 51
2, 222512, Note_on_c, 0, 74, 46
2, 222580, Note_off_c, 0, 74, 51
2, 222581, Note_on_c, 0, 67, 44
2, 222666, Note_off_c, 0, 67, 51
2, 222669, Note_on_c, 0, 75, 44
2, 222737, Note_off_c, 0, 75, 51
2, 222739, Note_on_c, 0, 82, 45
2, 222825, Note_off_c, 0, 82, 51
2, 222827, Note_on_c, 0, 75, 46
2, 222893, Note_off_c, 0, 75, 51
2, 222896, Note_on_c, 0, 82, 47
2, 222982, Note_off_c, 0, 82, 51
2, 222984, Note_on_c, 0, 75, 48
2, 223050, Note_off_c, 0, 75, 52
2, 223052, Note_off_c, 0, 58, 59
2, 223053, Note_on_c, 0, 68, 49
2, 223055, Note_on_c, 0, 46, 79
2, 223134, Control_c, 0, 64, 0
2, 223137, Note_off_c, 0, 68, 52
2, 223141, Note_on_c, 0, 75, 50
2, 223208, Note_off_c, 0, 75, 52
2, 223209, Note_on_c, 0, 80, 51
2, 223294, Note_off_c, 0, 80, 52
2, 223297, Note_on_c, 0, 75, 52
2, 223334, Control_c, 0, 64, 70
2, 223366, Note_off_c, 0, 75, 53
2, 223368, Note_on_c, 0, 80, 53
2, 223453, Note_off_c, 0, 80, 53
2, 223455, Note_on_c, 0, 75, 54
2, 223521, Note_off_c, 0, 75, 53
2, 223524, Note_on_c, 0, 70, 56
2, 223610, Note_off_c, 0, 70, 54
2, 223612, Note_on_c, 0, 75, 56
2, 223682, Note_off_c, 0, 75, 54
2, 223682, Note_on_c, 0, 79, 55
2, 223765, Note_off_c, 0, 79, 53
2, 223768, Note_on_c, 0, 75, 54
2, 223836, Note_off_c, 0, 75, 53
2, 223838, Note_on_c, 0, 79, 53
2, 223923, Note_off_c, 0, 79, 53
2, 223925, Note_on_c, 0, 75, 52
2, 223991, Note_off_c, 0, 75, 53
2, 223993, Note_on_c, 0, 70, 51
2, 224081, Note_off_c, 0, 70, 52
2, 224082, Note_on_c, 0, 75, 50
2, 224149, Note_off_c, 0, 75, 52
2, 224152, Note_on_c, 0, 78, 49
2, 224236, Note_off_c, 0, 78, 52
2, 224238, Note_on_c, 0, 75, 48
2, 224307, Note_off_c, 0, 75, 52
2, 224308, Note_on_c, 0, 78, 47
2, 224393, Note_off_c, 0, 78, 51
2, 224396, Note_on_c, 0, 75, 46
2, 224464, Note_off_c, 0, 75, 51
2, 224466, Note_on_c, 0, 69, 44
2, 224551, Note_off_c, 0, 69, 51
2, 224553, Note_on_c, 0, 75, 44
2, 224619, Note_off_c, 0, 75, 51
2, 224623, Note_on_c, 0, 78, 45
2, 224709, Note_off_c, 0, 78, 51
2, 224710, Note_on_c, 0, 75, 46
2, 224775, Note_off_c, 0, 75, 51
2, 224779, Note_on_c, 0, 78, 47
2, 224864, Note_off_c, 0, 78, 51
2, 224867, Note_on_c, 0, 75, 48
2, 224925, Control_c, 0, 64, 0
2, 224934, Note_off_c, 0, 46, 60
2, 224936, Note_off_c, 0, 75, 52
2, 224937, Note_on_c, 0, 69, 49
2, 224939, Note_on_c, 0, 34, 81
2, 225020, Note_off_c, 0, 69, 52
2, 225023, Note_on_c, 0, 75, 50
2, 225089, Note_off_c, 0, 75, 52
2, 225092, Note_on_c, 0, 77, 51
2, 225098, Control_c, 0, 64, 70
2, 225179, Note_off_c, 0, 77, 52
2, 225180, Note_on_c, 0, 75, 52
2, 225248, Note_off_c, 0, 75, 53
2, 225251, Note_on_c, 0, 77, 53
2, 225335, Note_off_c, 0, 77, 53
2, 225337, Note_on_c, 0, 75, 54
2, 225407, Note_off_c, 0, 75, 53
2, 225408, Note_on_c, 0, 69, 56
2, 225493, Note_off_c, 0, 69, 54
2, 225494, Note_on_c, 0, 75, 56
2, 225563, Note_off_c, 0, 75, 54
2, 225565, Note_on_c, 0, 77, 55
2, 225651, Note_off_c, 0, 77, 53
2, 225652, Note_on_c, 0, 75, 54
2, 225719, Note_off_c, 0, 75, 53
2, 225720, Note_on_c, 0, 77, 53
2, 225806, Note_off_c, 0, 77, 53
2, 225808, Note_on_c, 0, 75, 52
2, 225874, Note_off_c, 0, 75, 53
2, 225877, Note_on_c, 0, 69, 51
2, 225963, Note_off_c, 0, 69, 52
2, 225964, Note_on_c, 0, 75, 50
2, 226034, Note_off_c, 0, 75, 52
2, 226036, Note_on_c, 0, 77, 49
2, 226120, Note_off_c, 0, 77, 52
2, 226121, Note_on_c, 0, 75, 48
2, 226188, Note_off_c, 0, 75, 52
2, 226190, Note_on_c, 0, 77, 47
2, 226278, Note_off_c, 0, 77, 51
2, 226279, Note_on_c, 0, 75, 46
2, 226364, Note_off_c, 0, 75, 51
2, 226365, Note_on_c, 0, 70, 44
2, 226433, Note_off_c, 0, 70, 51
2, 226434, Note_on_c, 0, 74, 44
2, 226503, Note_off_c, 0, 74, 51
2, 226506, Note_on_c, 0, 77, 45
2, 226590, Note_off_c, 0, 77, 51
2, 226592, Note_on_c, 0, 74, 46
2, 226663, Note_off_c, 0, 74, 51
2, 226664, Note_on_c, 0, 77, 47
2, 226748, Note_off_c, 0, 77, 51
2, 226749, Note_on_c, 0, 74, 48
2, 226818, Note_off_c, 0, 34, 60
2, 226819, Note_off_c, 0, 74, 52
2, 226822, Note_on_c, 0, 65, 49
2, 226823, Note_on_c, 0, 46, 82
2, 226898, Control_c, 0, 64, 0
2, 226906, Note_off_c, 0, 65, 52
2, 226907, Note_on_c, 0, 70, 50
2, 226973, Note_off_c, 0, 70, 52
2, 226976, Note_on_c, 0, 74, 51
2, 227062, Note_off_c, 0, 74, 52
2, 227063, Note_on_c, 0, 70, 52
2, 227076, Control_c, 0, 64, 70
2, 227132, Note_off_c, 0, 70, 53
2, 227134, Note_on_c, 0, 74, 53
2, 227219, Note_off_c, 0, 74, 53
2, 227220, Note_on_c, 0, 70, 54
2, 227307, Note_off_c, 0, 70, 53
2, 227308, Note_on_c, 0, 65, 56
2, 227374, Note_off_c, 0, 65, 54
2, 227378, Note_on_c, 0, 71, 56
2, 227463, Note_off_c, 0, 71, 54
2, 227465, Note_on_c, 0, 74, 55
2, 227532, Note_off_c, 0, 74, 53
2, 227533, Note_on_c, 0, 71, 54
2, 227602, Note_off_c, 0, 71, 53
2, 227604, Note_on_c, 0, 74, 53
2, 227689, Note_off_c, 0, 74, 53
2, 227690, Note_on_c, 0, 71, 52
2, 227761, Note_off_c, 0, 71, 53
2, 227762, Note_on_c, 0, 65, 51
2, 227846, Note_off_c, 0, 65, 52
2, 227847, Note_on_c, 0, 70, 50
2, 227915, Note_off_c, 0, 70, 52
2, 227917, Note_on_c, 0, 74, 49
2, 228005, Note_off_c, 0, 74, 52
2, 228006, Note_on_c, 0, 70, 48
2, 228090, Note_off_c, 0, 70, 52
2, 228093, Note_on_c, 0, 74, 47
2, 228161, Note_off_c, 0, 74, 51
2, 228163, Note_on_c, 0, 70, 46
2, 228249, Note_off_c, 0, 70, 51
2, 228250, Note_on_c, 0, 65, 44
2, 228318, Note_off_c, 0, 65, 51
2, 228319, Note_on_c, 0, 68, 44
2, 228404, Note_off_c, 0, 68, 51
2, 228406, Note_on_c, 0, 74, 45
2, 228472, Note_off_c, 0, 74, 51
2, 228475, Note_on_c, 0, 68, 46
2, 228561, Note_off_c, 0, 68, 51
2, 228563, Note_on_c, 0, 74, 47
2, 228632, Note_off_c, 0, 74, 51
2, 228634, Note_on_c, 0, 68, 48
2, 228700, Note_off_c, 0, 68, 52
2, 228703, Note_off_c, 0, 46, 60
2, 228704, Note_on_c, 0, 65, 49
2, 228705, Note_on_c, 0, 58, 84
2, 228728, Control_c, 0, 64, 0
2, 228789, Note_off_c, 0, 65, 52
2, 228790, Note_on_c, 0, 70, 50
2, 228876, Note_off_c, 0, 70, 52
2, 228878, Note_on_c, 0, 74, 51
2, 228909, Control_c, 0, 64, 70
2, 228945, Note_off_c, 0, 74, 52
2, 228947, Note_on_c, 0, 70, 52
2, 229032, Note_off_c, 0, 70, 53
2, 229034, Note_on_c, 0, 74, 53
2, 229101, Note_off_c, 0, 74, 53
2, 229103, Note_on_c, 0, 70, 54
2, 229188, Note_off_c, 0, 70, 53
2, 229191, Note_on_c, 0, 65, 56
2, 229259, Note_off_c, 0, 65, 54
2, 229261, Note_on_c, 0, 71, 56
2, 229345, Note_off_c, 0, 71, 54
2, 229348, Note_on_c, 0, 74, 55
2, 229416, Note_off_c, 0, 74, 53
2, 229418, Note_on_c, 0, 71, 54
2, 229503, Note_off_c, 0, 71, 53
2, 229505, Note_on_c, 0, 74, 53
2, 229571, Note_off_c, 0, 74, 53
2, 229574, Note_on_c, 0, 71, 52
2, 229642, Note_off_c, 0, 71, 53
2, 229644, Note_on_c, 0, 65, 51
2, 229730, Note_off_c, 0, 65, 52
2, 229731, Note_on_c, 0, 68, 50
2, 229816, Note_off_c, 0, 68, 52
2, 229819, Note_on_c, 0, 74, 49
2, 229886, Note_off_c, 0, 74, 52
2, 229888, Note_on_c, 0, 68, 48
2, 229974, Note_off_c, 0, 68, 52
2, 229975, Note_on_c, 0, 74, 47
2, 230044, Note_off_c, 0, 74, 51
2, 230046, Note_on_c, 0, 68, 46
2, 230131, Note_off_c, 0, 68, 51
2, 230133, Note_on_c, 0, 63, 44
2, 230200, Note_off_c, 0, 63, 51
2, 230202, Note_on_c, 0, 67, 44
2, 230287, Note_off_c, 0, 67, 51
2, 230289, Note_on_c, 0, 75, 45
2, 230359, Note_off_c, 0, 75, 51
2, 230360, Note_on_c, 0, 67, 46
2, 230444, Note_off_c, 0, 67, 51
2, 230447, Note_on_c, 0, 75, 47
2, 230515, Note_off_c, 0, 75, 51
2, 230516, Note_on_c, 0, 67, 48
2, 230602, Note_off_c, 0, 58, 61
2, 230603, Note_off_c, 0, 67, 52
2, 230606, Note_on_c, 0, 63, 49
2, 230607, Note_on_c, 0, 46, 86
2, 230670, Note_off_c, 0, 63, 52
2, 230672, Control_c, 0, 64, 0
2, 230674, Note_on_c, 0, 68, 50
2, 230760, Note_off_c, 0, 68, 52
2, 230761, Note_on_c, 0, 75, 51
2, 230828, Note_off_c, 0, 75, 52
2, 230829, Note_on_c, 0, 68, 52
2, 230852, Control_c, 0, 64, 70
2, 230914, Note_off_c, 0, 68, 53
2, 230917, Note_on_c, 0, 75, 53
2, 230984, Note_off_c, 0, 75, 53
2, 230986, Note_on_c, 0, 68, 54
2, 231071, Note_off_c, 0, 68, 53
2, 231074, Note_on_c, 0, 63, 56
2, 231143, Note_off_c, 0, 63, 54
2, 231144, Note_on_c, 0, 70, 56
2, 231146, Note_on_c, 0, 67, 50
2, 231230, Note_off_c, 0, 70, 54
2, 231231, Note_off_c, 0, 67, 52
2, 231232, Note_on_c, 0, 75, 55
2, 231298, Note_off_c, 0, 75, 53
2, 231301, Note_on_c, 0, 67, 48
2, 231302, Note_on_c, 0, 70, 54
2, 231386, Note_off_c, 0, 67, 52
2, 231387, Note_off_c, 0, 70, 53
2, 231390, Note_on_c, 0, 75, 53
2, 231456, Note_off_c, 0, 75, 53
2, 231457, Note_on_c, 0, 67, 46
2, 231458, Note_on_c, 0, 70, 52
2, 231543, Note_off_c, 0, 70, 53
2, 231546, Note_off_c, 0, 67, 51
2, 231546, Note_on_c, 0, 63, 51
2, 231613, Note_off_c, 0, 63, 52
2, 231615, Note_on_c, 0, 66, 50
2, 231701, Note_off_c, 0, 66, 52
2, 231702, Note_on_c, 0, 70, 49
2, 231768, Note_off_c, 0, 70, 52
2, 231770, Note_on_c, 0, 66, 48
2, 231858, Note_off_c, 0, 66, 52
2, 231858, Note_on_c, 0, 70, 47
2, 231926, Note_off_c, 0, 70, 51
2, 231929, Note_on_c, 0, 66, 46
2, 232013, Note_off_c, 0, 66, 51
2, 232014, Note_on_c, 0, 60, 44
2, 232084, Note_off_c, 0, 60, 51
2, 232086, Note_on_c, 0, 66, 44
2, 232170, Note_off_c, 0, 66, 51
2, 232172, Note_on_c, 0, 70, 45
2, 232240, Note_off_c, 0, 70, 51
2, 232241, Note_on_c, 0, 66, 46
2, 232329, Note_off_c, 0, 66, 51
2, 232330, Note_on_c, 0, 70, 47
2, 232397, Note_off_c, 0, 70, 51
2, 232400, Note_on_c, 0, 66, 48
2, 232486, Note_off_c, 0, 46, 61
2, 232486, Note_off_c, 0, 66, 52
2, 232488, Note_on_c, 0, 60, 49
2, 232490, Note_on_c, 0, 34, 88
2, 232509, Control_c, 0, 64, 0
2, 232553, Note_off_c, 0, 60, 52
2, 232555, Note_on_c, 0, 66, 50
2, 232641, Note_off_c, 0, 66, 52
2, 232643, Note_on_c, 0, 69, 51
2, 232662, Control_c, 0, 64, 85
2, 232712, Note_off_c, 0, 69, 52
2, 232714, Note_on_c, 0, 66, 52
2, 232798, Note_off_c, 0, 66, 53
2, 232800, Note_on_c, 0, 69, 53
2, 232867, Note_off_c, 0, 69, 53
2, 232868, Note_on_c, 0, 66, 54
2, 232957, Note_off_c, 0, 66, 53
2, 232959, Note_on_c, 0, 60, 56
2, 233042, Note_off_c, 0, 60, 54
2, 233044, Note_on_c, 0, 65, 56
2, 233111, Note_off_c, 0, 65, 54
2, 233112, Note_on_c, 0, 69, 55
2, 233201, Note_off_c, 0, 69, 53
2, 233203, Note_on_c, 0, 65, 54
2, 233269, Note_off_c, 0, 65, 53
2, 233271, Note_on_c, 0, 69, 53
2, 233357, Note_off_c, 0, 69, 53
2, 233358, Note_on_c, 0, 65, 52
2, 233444, Note_off_c, 0, 65, 53
2, 233446, Note_on_c, 0, 60, 50
2, 233512, Note_off_c, 0, 60, 52
2, 233515, Note_on_c, 0, 63, 49
2, 233600, Note_off_c, 0, 63, 52
2, 233601, Note_on_c, 0, 69, 48
2, 233689, Note_off_c, 0, 69, 52
2, 233690, Note_on_c, 0, 63, 47
2, 233757, Note_off_c, 0, 63, 51
2, 233759, Note_on_c, 0, 69, 46
2, 233844, Note_off_c, 0, 69, 51
2, 233845, Note_on_c, 0, 63, 44
2, 233932, Note_off_c, 0, 63, 51
2, 233934, Note_on_c, 0, 70, 78
2, 233935, Note_on_c, 0, 62, 40
2, 234088, Note_off_c, 0, 70, 59
2, 234089, Note_off_c, 0, 62, 50
2, 234201, Control_c, 0, 64, 0
2, 234257, Note_off_c, 0, 34, 62
2, 234259, Note_on_c, 0, 62, 96
2, 234260, Note_on_c, 0, 50, 84
2, 234409, Control_c, 0, 64, 85
2, 234704, Note_on_c, 0, 58, 74
2, 234705, Note_on_c, 0, 46, 62
2, 234730, Note_off_c, 0, 62, 63
2, 234731, Note_off_c, 0, 50, 61
2, 234860, Note_on_c, 0, 53, 76
2, 234862, Note_on_c, 0, 41, 64
2, 234887, Note_off_c, 0, 58, 59
2, 234889, Note_off_c, 0, 46, 55
2, 234909, Control_c, 0, 64, 0
2, 234999, Note_off_c, 0, 41, 56
2, 235009, Note_off_c, 0, 53, 59
2, 235146, Note_on_c, 0, 75, 100
2, 235155, Control_c, 0, 64, 85
2, 235163, Note_on_c, 0, 60, 90
2, 235165, Note_on_c, 0, 53, 66
2, 235169, Note_on_c, 0, 63, 82
2, 235590, Note_on_c, 0, 72, 82
2, 235612, Note_on_c, 0, 57, 70
2, 235662, Note_off_c, 0, 60, 62
2, 235664, Note_off_c, 0, 75, 65
2, 235747, Note_off_c, 0, 63, 60
2, 235748, Note_on_c, 0, 74, 90
2, 235759, Note_off_c, 0, 53, 56
2, 235768, Note_on_c, 0, 62, 70
2, 235770, Note_on_c, 0, 58, 80
2, 235772, Note_on_c, 0, 46, 72
2, 235818, Note_off_c, 0, 72, 60
2, 235827, Note_off_c, 0, 57, 57
2, 235855, Control_c, 0, 64, 0
2, 235872, Note_off_c, 0, 74, 62
2, 235889, Note_off_c, 0, 46, 58
2, 235891, Note_off_c, 0, 58, 60
2, 235910, Note_off_c, 0, 62, 57
2, 236066, Note_on_c, 0, 62, 94
2, 236069, Note_on_c, 0, 50, 80
2, 236098, Control_c, 0, 64, 85
2, 236512, Note_off_c, 0, 62, 63
2, 236515, Note_off_c, 0, 50, 60
2, 236516, Note_on_c, 0, 46, 64
2, 236517, Note_on_c, 0, 58, 76
2, 236670, Note_on_c, 0, 53, 75
2, 236673, Note_on_c, 0, 41, 63
2, 236695, Note_off_c, 0, 58, 59
2, 236712, Note_off_c, 0, 46, 56
2, 236717, Control_c, 0, 64, 0
2, 236794, Note_off_c, 0, 41, 55
2, 236804, Note_off_c, 0, 53, 59
2, 236969, Note_on_c, 0, 77, 85
2, 236971, Note_on_c, 0, 53, 68
2, 236973, Note_on_c, 0, 60, 92
2, 236975, Control_c, 0, 64, 85
2, 236979, Note_on_c, 0, 75, 80
2, 237416, Note_on_c, 0, 57, 66
2, 237423, Note_on_c, 0, 72, 78
2, 237468, Note_off_c, 0, 75, 60
2, 237472, Note_off_c, 0, 60, 62
2, 237568, Note_off_c, 0, 53, 57
2, 237572, Note_on_c, 0, 58, 65
2, 237579, Note_on_c, 0, 74, 77
2, 237615, Note_off_c, 0, 72, 59
2, 237624, Control_c, 0, 64, 0
2, 237628, Note_off_c, 0, 57, 56
2, 237702, Note_off_c, 0, 58, 56
2, 237704, Note_off_c, 0, 74, 59
2, 237796, Note_off_c, 0, 77, 61
2, 237878, Control_c, 0, 64, 85
2, 237880, Note_on_c, 0, 62, 91
2, 237882, Note_on_c, 0, 50, 79
2, 238328, Note_on_c, 0, 58, 65
2, 238329, Note_on_c, 0, 46, 53
2, 238363, Note_off_c, 0, 62, 62
2, 238366, Note_off_c, 0, 50, 60
2, 238464, Note_on_c, 0, 53, 64
2, 238468, Note_on_c, 0, 41, 52
2, 238503, Note_off_c, 0, 58, 56
2, 238506, Note_off_c, 0, 46, 53
2, 238550, Control_c, 0, 64, 0
2, 238613, Note_off_c, 0, 53, 56
2, 238622, Note_off_c, 0, 41, 53
2, 238781, Note_on_c, 0, 87, 96
2, 238786, Note_on_c, 0, 65, 84
2, 238788, Note_on_c, 0, 63, 70
2, 238789, Note_on_c, 0, 60, 80
2, 238790, Note_on_c, 0, 53, 78
2, 238794, Note_on_c, 0, 75, 85
2, 238905, Control_c, 0, 64, 85
2, 239101, Note_off_c, 0, 65, 61
2, 239103, Note_off_c, 0, 63, 57
2, 239111, Note_off_c, 0, 60, 60
2, 239134, Note_off_c, 0, 53, 59
2, 239206, Note_off_c, 0, 87, 63
2, 239223, Note_on_c, 0, 84, 95
2, 239224, Note_on_c, 0, 63, 83
2, 239226, Note_on_c, 0, 57, 80
2, 239227, Note_on_c, 0, 53, 75
2, 239233, Note_on_c, 0, 72, 84
2, 239240, Note_off_c, 0, 75, 61
2, 239254, Control_c, 0, 64, 0
2, 239363, Control_c, 0, 64, 85
2, 239365, Note_off_c, 0, 72, 61
2, 239379, Note_off_c, 0, 84, 63
2, 239380, Note_off_c, 0, 57, 60
2, 239382, Note_off_c, 0, 63, 60
2, 239383, Note_off_c, 0, 53, 59
2, 239385, Note_on_c, 0, 82, 94
2, 239386, Note_on_c, 0, 62, 82
2, 239388, Note_on_c, 0, 58, 70
2, 239398, Note_on_c, 0, 70, 83
2, 239419, Control_c, 0, 64, 0
2, 239513, Note_off_c, 0, 58, 57
2, 239529, Control_c, 0, 64, 85
2, 239530, Note_off_c, 0, 82, 63
2, 239532, Note_off_c, 0, 62, 60
2, 239549, Note_off_c, 0, 70, 60
2, 239698, Note_on_c, 0, 89, 92
2, 239700, Note_on_c, 0, 65, 81
2, 239709, Note_on_c, 0, 77, 81
2, 239770, Note_off_c, 0, 89, 62
2, 239771, Note_off_c, 0, 65, 60
2, 239775, Note_off_c, 0, 77, 60
2, 239787, Control_c, 0, 64, 0
2, 239843, Note_on_c, 0, 86, 92
2, 239845, Note_on_c, 0, 62, 80
2, 239852, Note_on_c, 0, 74, 81
2, 239911, Note_off_c, 0, 62, 60
2, 239913, Note_off_c, 0, 86, 62
2, 239927, Note_off_c, 0, 74, 60
2, 240131, Note_on_c, 0, 82, 90
2, 240132, Note_on_c, 0, 58, 79
2, 240143, Note_on_c, 0, 70, 79
2, 240200, Note_off_c, 0, 58, 60
2, 240206, Note_off_c, 0, 82, 62
2, 240209, Note_off_c, 0, 70, 60
2, 240279, Note_on_c, 0, 77, 89
2, 240280, Note_on_c, 0, 53, 78
2, 240290, Note_on_c, 0, 65, 78
2, 240435, Note_off_c, 0, 53, 59
2, 240447, Note_off_c, 0, 77, 62
2, 240454, Note_off_c, 0, 65, 59
2, 240573, Note_on_c, 0, 74, 88
2, 240576, Note_on_c, 0, 50, 77
2, 240585, Note_on_c, 0, 62, 77
2, 240658, Note_off_c, 0, 74, 62
2, 240666, Note_off_c, 0, 50, 59
2, 240671, Note_off_c, 0, 62, 59
2, 240725, Note_on_c, 0, 70, 87
2, 240726, Note_on_c, 0, 46, 76
2, 240735, Note_on_c, 0, 58, 76
2, 240814, Note_off_c, 0, 46, 59
2, 240816, Note_off_c, 0, 70, 61
2, 240818, Note_off_c, 0, 58, 59
2, 241044, Note_on_c, 0, 65, 85
2, 241048, Note_on_c, 0, 41, 75
2, 241057, Note_on_c, 0, 53, 74
2, 241126, Note_off_c, 0, 65, 61
2, 241128, Note_off_c, 0, 41, 59
2, 241135, Note_off_c, 0, 53, 59
2, 241197, Note_on_c, 0, 46, 74
2, 241200, Note_on_c, 0, 70, 90
2, 241202, Note_on_c, 0, 58, 84
2, 241260, Control_c, 0, 64, 85
2, 241495, Note_off_c, 0, 46, 59
2, 241508, Note_off_c, 0, 70, 62
2, 241516, Note_off_c, 0, 58, 61
2, 241686, Note_on_c, 0, 50, 63
2, 241688, Note_on_c, 0, 58, 78
2, 241689, Note_on_c, 0, 46, 72
2, 241690, Note_on_c, 0, 53, 66
2, 241703, Note_on_c, 0, 34, 67
2, 241725, Control_c, 0, 64, 0
2, 241892, Control_c, 0, 64, 85
2, 241949, Note_off_c, 0, 53, 56
2, 241950, Note_off_c, 0, 58, 59
2, 241968, Note_off_c, 0, 34, 57
2, 241970, Note_off_c, 0, 46, 58
2, 242002, Note_off_c, 0, 50, 55
2, 242170, Note_on_c, 0, 58, 86
2, 242173, Note_on_c, 0, 53, 66
2, 242174, Note_on_c, 0, 50, 63
2, 242176, Note_on_c, 0, 46, 72
2, 242185, Note_on_c, 0, 34, 67
2, 242226, Control_c, 0, 64, 0
2, 242397, Control_c, 0, 64, 85
2, 242483, Note_off_c, 0, 58, 61
2, 242485, Note_off_c, 0, 50, 55
2, 242488, Note_off_c, 0, 53, 56
2, 242497, Note_off_c, 0, 34, 57
2, 242507, Note_off_c, 0, 46, 58
2, 242744, Control_c, 0, 64, 0
2, 243282, Control_c, 0, 64, 127
2, 243316, Note_on_c, 0, 62, 90
2, 243317, Note_on_c, 0, 59, 70
2, 243325, Note_on_c, 0, 53, 81
2, 243327, Note_on_c, 0, 31, 60
2, 243468, Note_off_c, 0, 31, 55
2, 243469, Note_on_c, 0, 43, 48
2, 243577, Control_c, 0, 64, 0
2, 243579, Note_off_c, 0, 43, 52
2, 243614, Note_on_c, 0, 43, 49
2, 243711, Note_off_c, 0, 43, 52
2, 243755, Note_on_c, 0, 43, 50
2, 243864, Note_off_c, 0, 43, 52
2, 243900, Note_on_c, 0, 43, 51
2, 243927, Note_off_c, 0, 53, 60
2, 243953, Note_off_c, 0, 59, 57
2, 244006, Note_off_c, 0, 43, 52
2, 244045, Note_on_c, 0, 43, 52
2, 244166, Note_off_c, 0, 62, 62
2, 244169, Note_off_c, 0, 43, 53
2, 244194, Note_on_c, 0, 59, 84
2, 244196, Note_on_c, 0, 43, 54
2, 244202, Note_on_c, 0, 50, 58
2, 244208, Note_on_c, 0, 53, 66
2, 244303, Note_off_c, 0, 43, 53
2, 244338, Note_on_c, 0, 43, 55
2, 244440, Note_off_c, 0, 53, 56
2, 244453, Note_off_c, 0, 50, 54
2, 244462, Note_off_c, 0, 43, 53
2, 244470, Note_off_c, 0, 59, 61
2, 244485, Note_on_c, 0, 43, 56
2, 244607, Note_off_c, 0, 43, 54
2, 244633, Note_on_c, 0, 43, 57
2, 244745, Note_off_c, 0, 43, 54
2, 244782, Note_on_c, 0, 43, 58
2, 244891, Note_off_c, 0, 43, 54
2, 244930, Note_on_c, 0, 43, 60
2, 245049, Control_c, 0, 64, 127
2, 245052, Note_off_c, 0, 43, 55
2, 245070, Note_on_c, 0, 65, 96
2, 245080, Note_on_c, 0, 31, 84
2, 245083, Note_on_c, 0, 59, 70
2, 245089, Note_on_c, 0, 62, 76
2, 245222, Note_off_c, 0, 31, 61
2, 245223, Note_on_c, 0, 43, 48
2, 245305, Control_c, 0, 64, 0
2, 245340, Note_off_c, 0, 43, 52
2, 245366, Note_on_c, 0, 43, 49
2, 245486, Note_off_c, 0, 43, 52
2, 245508, Note_on_c, 0, 43, 50
2, 245613, Note_off_c, 0, 43, 52
2, 245645, Note_off_c, 0, 62, 59
2, 245650, Note_on_c, 0, 43, 51
2, 245724, Note_off_c, 0, 59, 57
2, 245770, Note_off_c, 0, 43, 52
2, 245798, Note_on_c, 0, 43, 52
2, 245918, Note_off_c, 0, 43, 53
2, 245921, Note_off_c, 0, 65, 63
2, 245946, Note_on_c, 0, 62, 84
2, 245948, Note_on_c, 0, 43, 54
2, 245953, Note_on_c, 0, 53, 53
2, 245960, Note_on_c, 0, 59, 62
2, 246074, Note_off_c, 0, 43, 53
2, 246090, Note_on_c, 0, 43, 55
2, 246182, Note_off_c, 0, 53, 53
2, 246198, Note_off_c, 0, 59, 55
2, 246209, Note_off_c, 0, 43, 53
2, 246222, Note_off_c, 0, 62, 61
2, 246238, Note_on_c, 0, 43, 56
2, 246361, Note_off_c, 0, 43, 54
2, 246388, Note_on_c, 0, 43, 57
2, 246501, Note_off_c, 0, 43, 54
2, 246537, Note_on_c, 0, 43, 58
2, 246649, Note_off_c, 0, 43, 54
2, 246683, Note_on_c, 0, 43, 60
2, 246811, Note_off_c, 0, 43, 55
2, 246812, Control_c, 0, 64, 127
2, 246831, Note_on_c, 0, 60, 78
2, 246833, Note_on_c, 0, 55, 58
2, 246834, Note_on_c, 0, 48, 70
2, 246836, Note_on_c, 0, 51, 60
2, 246837, Note_on_c, 0, 36, 72
2, 246977, Note_off_c, 0, 48, 57
2, 246978, Note_off_c, 0, 36, 58
2, 246980, Note_on_c, 0, 50, 48
2, 247053, Note_off_c, 0, 51, 55
2, 247066, Control_c, 0, 64, 0
2, 247104, Note_off_c, 0, 55, 54
2, 247105, Note_off_c, 0, 60, 59
2, 247120, Note_on_c, 0, 51, 48
2, 247178, Note_off_c, 0, 50, 52
2, 247263, Note_on_c, 0, 53, 49
2, 247291, Note_off_c, 0, 51, 52
2, 247423, Note_on_c, 0, 55, 51
2, 247460, Note_off_c, 0, 53, 52
2, 247568, Note_on_c, 0, 56, 52
2, 247631, Note_off_c, 0, 55, 52
2, 247717, Note_on_c, 0, 59, 54
2, 247761, Note_off_c, 0, 56, 53
2, 247879, Note_on_c, 0, 60, 55
2, 247909, Note_off_c, 0, 59, 53
2, 248025, Note_on_c, 0, 62, 57
2, 248044, Note_off_c, 0, 60, 53
2, 248174, Note_on_c, 0, 63, 58
2, 248214, Note_off_c, 0, 62, 54
2, 248323, Note_on_c, 0, 65, 60
2, 248369, Note_off_c, 0, 63, 54
2, 248471, Note_on_c, 0, 67, 60
2, 248508, Note_off_c, 0, 65, 55
2, 248592, Note_off_c, 0, 67, 55
2, 248618, Note_on_c, 0, 71, 60
2, 248621, Note_on_c, 0, 65, 48
2, 248769, Note_on_c, 0, 63, 48
2, 248771, Note_off_c, 0, 65, 52
2, 248772, Note_on_c, 0, 72, 59
2, 248785, Note_off_c, 0, 71, 55
2, 248918, Note_on_c, 0, 62, 49
2, 248923, Note_on_c, 0, 74, 58
2, 248934, Note_off_c, 0, 63, 52
2, 248942, Note_off_c, 0, 72, 54
2, 249068, Note_on_c, 0, 75, 57
2, 249070, Note_on_c, 0, 60, 50
2, 249092, Note_off_c, 0, 62, 52
2, 249094, Note_off_c, 0, 74, 54
2, 249216, Note_on_c, 0, 59, 52
2, 249218, Note_on_c, 0, 77, 56
2, 249243, Note_off_c, 0, 75, 54
2, 249243, Note_off_c, 0, 60, 52
2, 249361, Note_on_c, 0, 79, 53
2, 249363, Note_on_c, 0, 56, 55
2, 249369, Note_off_c, 0, 77, 54
2, 249409, Note_off_c, 0, 59, 53
2, 249508, Note_on_c, 0, 80, 54
2, 249509, Note_on_c, 0, 55, 54
2, 249518, Note_off_c, 0, 79, 53
2, 249522, Note_off_c, 0, 56, 53
2, 249668, Note_off_c, 0, 80, 53
2, 249670, Note_on_c, 0, 53, 53
2, 249673, Note_on_c, 0, 83, 56
2, 249695, Note_off_c, 0, 55, 53
2, 249816, Note_on_c, 0, 84, 57
2, 249820, Note_on_c, 0, 51, 52
2, 249821, Note_off_c, 0, 83, 54
2, 249827, Note_off_c, 0, 53, 53
2, 249961, Note_off_c, 0, 84, 54
2, 249963, Note_on_c, 0, 50, 51
2, 249964, Note_on_c, 0, 86, 58
2, 249978, Note_off_c, 0, 51, 53
2, 250105, Note_off_c, 0, 50, 52
2, 250107, Note_on_c, 0, 48, 50
2, 250109, Note_on_c, 0, 87, 60
2, 250122, Note_off_c, 0, 86, 54
2, 250263, Note_on_c, 0, 89, 60
2, 250266, Note_on_c, 0, 47, 48
2, 250288, Note_off_c, 0, 87, 55
2, 250295, Note_off_c, 0, 48, 52
2, 250377, Note_off_c, 0, 89, 55
2, 250411, Note_on_c, 0, 48, 60
2, 250412, Note_on_c, 0, 87, 60
2, 250417, Note_off_c, 0, 47, 52
2, 250558, Note_on_c, 0, 85, 59
2, 250563, Note_off_c, 0, 87, 55
2, 250643, Note_off_c, 0, 48, 55
2, 250726, Note_on_c, 0, 84, 58
2, 250757, Note_off_c, 0, 85, 54
2, 250875, Note_on_c, 0, 82, 57
2, 250887, Note_off_c, 0, 84, 54
2, 251021, Note_on_c, 0, 80, 56
2, 251029, Note_off_c, 0, 82, 54
2, 251166, Note_on_c, 0, 79, 55
2, 251187, Note_off_c, 0, 80, 54
2, 251297, Note_on_c, 0, 77, 54
2, 251320, Note_off_c, 0, 79, 53
2, 251442, Note_on_c, 0, 75, 53
2, 251444, Note_off_c, 0, 77, 53
2, 251586, Note_on_c, 0, 73, 52
2, 251605, Note_off_c, 0, 75, 53
2, 251716, Note_on_c, 0, 72, 51
2, 251736, Note_off_c, 0, 73, 53
2, 251860, Note_on_c, 0, 70, 50
2, 251865, Note_off_c, 0, 72, 52
2, 251985, Note_on_c, 0, 68, 48
2, 252004, Note_off_c, 0, 70, 52
2, 252080, Note_off_c, 0, 68, 52
2, 252111, Note_on_c, 0, 67, 48
2, 252113, Note_on_c, 0, 61, 60
2, 252257, Note_on_c, 0, 60, 59
2, 252260, Note_off_c, 0, 67, 52
2, 252261, Note_on_c, 0, 68, 49
2, 252282, Note_off_c, 0, 61, 55
2, 252401, Note_on_c, 0, 58, 58
2, 252402, Note_on_c, 0, 70, 50
2, 252414, Note_off_c, 0, 60, 54
2, 252427, Note_off_c, 0, 68, 52
2, 252542, Note_on_c, 0, 72, 51
2, 252545, Note_on_c, 0, 56, 57
2, 252548, Note_off_c, 0, 58, 54
2, 252565, Note_off_c, 0, 70, 52
2, 252685, Note_on_c, 0, 73, 52
2, 252688, Note_on_c, 0, 55, 56
2, 252704, Note_off_c, 0, 56, 54
2, 252709, Note_off_c, 0, 72, 52
2, 252832, Note_off_c, 0, 73, 53
2, 252834, Note_on_c, 0, 53, 55
2, 252835, Note_on_c, 0, 75, 54
2, 252836, Note_off_c, 0, 55, 54
2, 252982, Note_on_c, 0, 51, 54
2, 252983, Note_on_c, 0, 77, 55
2, 252989, Note_off_c, 0, 75, 53
2, 252992, Note_off_c, 0, 53, 53
2, 253126, Note_on_c, 0, 49, 53
2, 253130, Note_on_c, 0, 79, 56
2, 253135, Note_off_c, 0, 77, 53
2, 253157, Note_off_c, 0, 51, 53
2, 253290, Note_on_c, 0, 48, 52
2, 253292, Note_on_c, 0, 80, 57
2, 253321, Note_off_c, 0, 49, 53
2, 253326, Note_off_c, 0, 79, 54
2, 253437, Note_on_c, 0, 82, 58
2, 253438, Note_on_c, 0, 46, 51
2, 253449, Note_off_c, 0, 48, 53
2, 253451, Note_off_c, 0, 80, 54
2, 253586, Note_on_c, 0, 84, 60
2, 253590, Note_off_c, 0, 82, 54
2, 253591, Note_on_c, 0, 44, 50
2, 253602, Note_off_c, 0, 46, 52
2, 253733, Note_on_c, 0, 85, 60
2, 253736, Note_on_c, 0, 43, 49
2, 253753, Note_off_c, 0, 44, 52
2, 253758, Note_off_c, 0, 84, 55
2, 253873, Note_off_c, 0, 43, 52
2, 253894, Note_on_c, 0, 44, 65
2, 253897, Note_on_c, 0, 84, 60
2, 253903, Note_off_c, 0, 85, 55
2, 254048, Note_on_c, 0, 82, 59
2, 254068, Note_off_c, 0, 84, 55
2, 254121, Note_off_c, 0, 44, 56
2, 254215, Note_on_c, 0, 80, 58
2, 254242, Note_off_c, 0, 82, 54
2, 254361, Note_on_c, 0, 79, 57
2, 254375, Note_off_c, 0, 80, 54
2, 254510, Note_on_c, 0, 77, 56
2, 254519, Note_off_c, 0, 79, 54
2, 254654, Note_on_c, 0, 75, 55
2, 254672, Note_off_c, 0, 77, 54
2, 254816, Note_on_c, 0, 73, 54
2, 254832, Note_off_c, 0, 75, 53
2, 254963, Note_on_c, 0, 72, 53
2, 254981, Note_off_c, 0, 73, 53
2, 255108, Note_on_c, 0, 70, 52
2, 255127, Note_off_c, 0, 72, 53
2, 255250, Note_on_c, 0, 68, 51
2, 255251, Note_off_c, 0, 70, 53
2, 255393, Note_on_c, 0, 67, 50
2, 255404, Note_off_c, 0, 68, 52
2, 255535, Note_on_c, 0, 65, 48
2, 255544, Note_off_c, 0, 67, 52
2, 255645, Note_off_c, 0, 65, 52
2, 255678, Note_on_c, 0, 58, 48
2, 255680, Note_on_c, 0, 64, 48
2, 255832, Note_on_c, 0, 65, 50
2, 255833, Note_on_c, 0, 56, 49
2, 255839, Note_off_c, 0, 64, 52
2, 255854, Note_off_c, 0, 58, 52
2, 255977, Note_off_c, 0, 65, 52
2, 255978, Note_on_c, 0, 55, 50
2, 255980, Note_on_c, 0, 67, 52
2, 255991, Note_off_c, 0, 56, 52
2, 256129, Note_on_c, 0, 68, 54
2, 256131, Note_on_c, 0, 53, 51
2, 256138, Note_off_c, 0, 67, 53
2, 256140, Note_off_c, 0, 55, 52
2, 256275, Note_on_c, 0, 70, 56
2, 256276, Note_on_c, 0, 52, 52
2, 256279, Note_off_c, 0, 68, 53
2, 256283, Note_off_c, 0, 53, 52
2, 256419, Note_off_c, 0, 70, 54
2, 256421, Note_on_c, 0, 49, 53
2, 256423, Note_on_c, 0, 72, 58
2, 256437, Note_off_c, 0, 52, 53
2, 256566, Note_on_c, 0, 73, 60
2, 256569, Note_on_c, 0, 48, 54
2, 256586, Note_off_c, 0, 49, 53
2, 256594, Note_off_c, 0, 72, 54
2, 256712, Note_on_c, 0, 76, 62
2, 256715, Note_on_c, 0, 46, 55
2, 256722, Note_off_c, 0, 73, 55
2, 256724, Note_off_c, 0, 48, 53
2, 256859, Note_on_c, 0, 44, 56
2, 256861, Note_on_c, 0, 77, 64
2, 256872, Note_off_c, 0, 46, 53
2, 256880, Note_off_c, 0, 76, 55
2, 257002, Note_on_c, 0, 43, 57
2, 257004, Note_on_c, 0, 79, 66
2, 257010, Note_off_c, 0, 44, 54
2, 257026, Note_off_c, 0, 77, 56
2, 257160, Note_on_c, 0, 41, 58
2, 257162, Note_on_c, 0, 80, 68
2, 257173, Note_off_c, 0, 79, 56
2, 257176, Note_off_c, 0, 43, 54
2, 257304, Note_on_c, 0, 82, 70
2, 257305, Note_on_c, 0, 40, 59
2, 257308, Note_off_c, 0, 41, 54
2, 257319, Note_off_c, 0, 80, 57
2, 257420, Note_off_c, 0, 40, 54
2, 257433, Note_off_c, 0, 82, 57
2, 257442, Note_on_c, 0, 80, 86
2, 257444, Note_on_c, 0, 41, 60
2, 257616, Note_off_c, 0, 80, 61
2, 257617, Note_off_c, 0, 41, 55
2, 257802, Note_on_c, 0, 56, 84
2, 257804, Note_on_c, 0, 44, 60
2, 257843, Control_c, 0, 64, 127
2, 258261, Note_off_c, 0, 56, 61
2, 258262, Note_off_c, 0, 44, 55
2, 258263, Note_on_c, 0, 53, 62
2, 258265, Note_on_c, 0, 41, 50
2, 258411, Note_off_c, 0, 53, 55
2, 258412, Note_off_c, 0, 41, 52
2, 258414, Note_on_c, 0, 36, 50
2, 258415, Note_on_c, 0, 48, 62
2, 258553, Note_off_c, 0, 36, 52
2, 258557, Note_off_c, 0, 48, 55
2, 258564, Control_c, 0, 64, 0
2, 258703, Note_on_c, 0, 73, 98
2, 258716, Note_on_c, 0, 58, 88
2, 258726, Note_on_c, 0, 48, 64
2, 258729, Note_on_c, 0, 64, 74
2, 258798, Control_c, 0, 64, 127
2, 259137, Note_off_c, 0, 58, 62
2, 259160, Note_on_c, 0, 70, 77
2, 259171, Note_off_c, 0, 73, 64
2, 259182, Note_on_c, 0, 55, 66
2, 259219, Note_off_c, 0, 64, 59
2, 259314, Note_on_c, 0, 68, 78
2, 259316, Note_off_c, 0, 55, 56
2, 259317, Note_off_c, 0, 48, 56
2, 259318, Note_off_c, 0, 70, 59
2, 259333, Note_on_c, 0, 53, 60
2, 259336, Note_on_c, 0, 65, 68
2, 259338, Note_on_c, 0, 56, 66
2, 259421, Control_c, 0, 64, 0
2, 259443, Note_off_c, 0, 56, 56
2, 259457, Note_off_c, 0, 65, 57
2, 259482, Note_off_c, 0, 68, 59
2, 259524, Note_off_c, 0, 53, 55
2, 259627, Note_on_c, 0, 44, 56
2, 259640, Note_on_c, 0, 56, 68
2, 259661, Control_c, 0, 64, 127
2, 260026, Note_off_c, 0, 44, 54
2, 260071, Note_off_c, 0, 56, 57
2, 260095, Note_on_c, 0, 41, 60
2, 260095, Note_on_c, 0, 53, 70
2, 260211, Note_off_c, 0, 41, 55
2, 260218, Note_off_c, 0, 53, 57
2, 260226, Note_on_c, 0, 48, 70
2, 260227, Note_on_c, 0, 36, 55
2, 260351, Control_c, 0, 64, 0
2, 260353, Note_off_c, 0, 48, 57
2, 260356, Note_off_c, 0, 36, 53
2, 260513, Note_on_c, 0, 76, 82
2, 260521, Note_on_c, 0, 73, 76
2, 260523, Note_on_c, 0, 64, 64
2, 260531, Note_on_c, 0, 48, 64
2, 260536, Note_on_c, 0, 58, 88
2, 260588, Control_c, 0, 64, 127
2, 260977, Note_off_c, 0, 58, 62
2, 260980, Note_on_c, 0, 70, 76
2, 260989, Note_on_c, 0, 55, 64
2, 261008, Note_off_c, 0, 73, 59
2, 261061, Note_off_c, 0, 64, 56
2, 261074, Note_off_c, 0, 48, 56
2, 261123, Note_on_c, 0, 77, 75
2, 261129, Note_off_c, 0, 70, 59
2, 261130, Note_off_c, 0, 55, 56
2, 261133, Note_on_c, 0, 68, 55
2, 261143, Note_on_c, 0, 65, 67
2, 261147, Note_on_c, 0, 53, 58
2, 261148, Note_on_c, 0, 56, 63
2, 261149, Note_off_c, 0, 76, 60
2, 261246, Control_c, 0, 64, 0
2, 261273, Note_off_c, 0, 56, 55
2, 261278, Note_off_c, 0, 53, 54
2, 261284, Note_off_c, 0, 65, 57
2, 261287, Note_off_c, 0, 68, 53
2, 261308, Note_off_c, 0, 77, 59
2, 261459, Note_on_c, 0, 56, 91
2, 261466, Note_on_c, 0, 44, 67
2, 261489, Control_c, 0, 64, 127
2, 261845, Note_off_c, 0, 44, 57
2, 261886, Note_off_c, 0, 56, 62
2, 261920, Note_on_c, 0, 53, 62
2, 261923, Note_on_c, 0, 41, 50
2, 262047, Note_off_c, 0, 41, 52
2, 262049, Note_off_c, 0, 53, 55
2, 262072, Note_on_c, 0, 42, 45
2, 262075, Note_on_c, 0, 54, 60
2, 262195, Note_off_c, 0, 54, 55
2, 262196, Note_off_c, 0, 42, 51
2, 262223, Control_c, 0, 64, 0
2, 262356, Note_on_c, 0, 75, 96
2, 262369, Note_on_c, 0, 60, 84
2, 262378, Note_on_c, 0, 54, 60
2, 262385, Note_on_c, 0, 63, 72
2, 262459, Control_c, 0, 64, 127
2, 262777, Note_off_c, 0, 60, 61
2, 262813, Note_on_c, 0, 72, 73
2, 262836, Note_on_c, 0, 57, 61
2, 262851, Note_off_c, 0, 75, 63
2, 262903, Note_off_c, 0, 54, 55
2, 262917, Note_off_c, 0, 63, 58
2, 262963, Note_off_c, 0, 57, 55
2, 262965, Note_on_c, 0, 70, 73
2, 262981, Note_off_c, 0, 72, 58
2, 262984, Note_on_c, 0, 55, 55
2, 262988, Note_on_c, 0, 62, 53
2, 262989, Note_on_c, 0, 58, 62
2, 263057, Control_c, 0, 64, 0
2, 263112, Note_off_c, 0, 55, 53
2, 263128, Note_off_c, 0, 58, 55
2, 263136, Note_off_c, 0, 62, 53
2, 263138, Note_off_c, 0, 70, 58
2, 263286, Note_on_c, 0, 58, 87
2, 263287, Note_on_c, 0, 46, 63
2, 263298, Control_c, 0, 64, 127
2, 263685, Note_off_c, 0, 46, 55
2, 263728, Note_off_c, 0, 58, 61
2, 263743, Note_on_c, 0, 55, 64
2, 263745, Note_on_c, 0, 43, 52
2, 263878, Note_off_c, 0, 43, 53
2, 263884, Note_off_c, 0, 55, 56
2, 263897, Note_on_c, 0, 50, 65
2, 263900, Note_on_c, 0, 38, 55
2, 263978, Control_c, 0, 64, 0
2, 264017, Note_off_c, 0, 38, 53
2, 264031, Note_off_c, 0, 50, 56
2, 264162, Note_on_c, 0, 78, 78
2, 264184, Note_on_c, 0, 75, 69
2, 264185, Note_on_c, 0, 50, 58
2, 264186, Note_on_c, 0, 60, 82
2, 264188, Note_on_c, 0, 66, 62
2, 264218, Control_c, 0, 64, 127
2, 264573, Note_off_c, 0, 60, 60
2, 264630, Note_off_c, 0, 75, 57
2, 264656, Note_on_c, 0, 72, 71
2, 264658, Note_on_c, 0, 57, 59
2, 264709, Note_off_c, 0, 66, 55
2, 264738, Note_off_c, 0, 50, 54
2, 264786, Note_off_c, 0, 78, 59
2, 264791, Note_on_c, 0, 79, 71
2, 264794, Note_off_c, 0, 57, 54
2, 264804, Note_off_c, 0, 72, 58
2, 264813, Note_on_c, 0, 70, 51
2, 264816, Note_on_c, 0, 55, 52
2, 264817, Note_on_c, 0, 67, 42
2, 264820, Note_on_c, 0, 58, 60
2, 264902, Control_c, 0, 64, 0
2, 264949, Note_off_c, 0, 58, 55
2, 264958, Note_off_c, 0, 67, 50
2, 264976, Note_off_c, 0, 79, 58
2, 264988, Note_off_c, 0, 70, 52
2, 265014, Note_off_c, 0, 55, 53
2, 265106, Note_on_c, 0, 58, 72
2, 265121, Note_on_c, 0, 46, 60
2, 265141, Control_c, 0, 64, 127
2, 265468, Note_off_c, 0, 46, 55
2, 265488, Note_off_c, 0, 58, 58
2, 265570, Note_on_c, 0, 55, 70
2, 265579, Note_on_c, 0, 43, 62
2, 265685, Note_off_c, 0, 43, 55
2, 265706, Note_off_c, 0, 55, 57
2, 265719, Note_on_c, 0, 51, 71
2, 265731, Note_on_c, 0, 39, 60
2, 265858, Note_off_c, 0, 51, 58
2, 265879, Note_off_c, 0, 39, 55
2, 265915, Control_c, 0, 64, 0
2, 265986, Note_on_c, 0, 85, 92
2, 266000, Note_on_c, 0, 63, 72
2, 266005, Note_on_c, 0, 73, 70
2, 266007, Note_on_c, 0, 79, 84
2, 266009, Note_on_c, 0, 67, 96
2, 266147, Control_c, 0, 64, 127
2, 266294, Note_off_c, 0, 63, 58
2, 266310, Note_off_c, 0, 79, 61
2, 266331, Note_off_c, 0, 85, 62
2, 266335, Note_off_c, 0, 67, 63
2, 266336, Note_off_c, 0, 73, 57
2, 266458, Note_on_c, 0, 85, 82
2, 266482, Note_on_c, 0, 79, 62
2, 266484, Note_on_c, 0, 63, 58
2, 266485, Note_on_c, 0, 73, 60
2, 266486, Note_on_c, 0, 67, 70
2, 266565, Note_off_c, 0, 67, 57
2, 266567, Note_off_c, 0, 73, 55
2, 266569, Note_off_c, 0, 79, 55
2, 266600, Note_off_c, 0, 63, 54
2, 266611, Note_off_c, 0, 85, 60
2, 266617, Note_on_c, 0, 86, 80
2, 266634, Note_on_c, 0, 62, 50
2, 266636, Note_on_c, 0, 74, 55
2, 266637, Note_on_c, 0, 69, 68
2, 266641, Note_on_c, 0, 78, 60
2, 266751, Note_off_c, 0, 74, 53
2, 266760, Control_c, 0, 64, 0
2, 266762, Note_off_c, 0, 78, 55
2, 266779, Note_off_c, 0, 69, 57
2, 266786, Note_off_c, 0, 86, 60
2, 266834, Note_off_c, 0, 62, 52
2, 266928, Note_on_c, 0, 62, 78
2, 266931, Note_on_c, 0, 50, 66
2, 266954, Note_on_c, 0, 38, 60
2, 266996, Control_c, 0, 64, 127
2, 267272, Note_off_c, 0, 50, 56
2, 267274, Note_off_c, 0, 62, 59
2, 267284, Note_off_c, 0, 38, 55
2, 267389, Note_on_c, 0, 62, 74
2, 267392, Note_on_c, 0, 50, 62
2, 267415, Note_on_c, 0, 38, 55
2, 267505, Note_off_c, 0, 38, 53
2, 267516, Note_off_c, 0, 50, 55
2, 267521, Note_off_c, 0, 62, 59
2, 267544, Note_on_c, 0, 51, 52
2, 267549, Note_on_c, 0, 63, 72
2, 267566, Note_on_c, 0, 39, 60
2, 267677, Control_c, 0, 64, 0
2, 267701, Note_off_c, 0, 39, 55
2, 267744, Note_off_c, 0, 51, 53
2, 267748, Note_off_c, 0, 63, 58
2, 267824, Note_on_c, 0, 85, 96
2, 267838, Note_on_c, 0, 73, 70
2, 267847, Note_on_c, 0, 67, 98
2, 267847, Note_on_c, 0, 79, 76
2, 267850, Note_on_c, 0, 63, 84
2, 267911, Control_c, 0, 64, 127
2, 268156, Note_off_c, 0, 67, 64
2, 268185, Note_off_c, 0, 63, 61
2, 268209, Note_off_c, 0, 73, 57
2, 268240, Note_off_c, 0, 79, 59
2, 268293, Note_off_c, 0, 85, 63
2, 268377, Note_on_c, 0, 85, 96
2, 268395, Note_on_c, 0, 79, 78
2, 268398, Note_on_c, 0, 67, 84
2, 268401, Note_on_c, 0, 73, 66
2, 268402, Note_on_c, 0, 63, 78
2, 268512, Note_off_c, 0, 63, 59
2, 268517, Note_off_c, 0, 79, 59
2, 268522, Note_off_c, 0, 67, 61
2, 268532, Note_off_c, 0, 73, 56
2, 268545, Note_off_c, 0, 85, 63
2, 268549, Note_on_c, 0, 86, 84
2, 268568, Note_on_c, 0, 69, 72
2, 268571, Note_on_c, 0, 78, 65
2, 268575, Note_on_c, 0, 62, 66
2, 268576, Note_on_c, 0, 66, 70
2, 268578, Note_on_c, 0, 74, 80
2, 268695, Control_c, 0, 64, 0
2, 268733, Note_off_c, 0, 78, 56
2, 268744, Note_off_c, 0, 74, 60
2, 268746, Note_off_c, 0, 66, 57
2, 268755, Note_off_c, 0, 62, 56
2, 268757, Note_off_c, 0, 69, 58
2, 268889, Note_off_c, 0, 86, 61
2, 268915, Note_on_c, 0, 74, 72
2, 268943, Control_c, 0, 64, 127
2, 269441, Note_on_c, 0, 73, 68
2, 269524, Note_off_c, 0, 74, 58
2, 269599, Note_on_c, 0, 74, 66
2, 269609, Note_off_c, 0, 73, 57
2, 269843, Note_off_c, 0, 74, 56
2, 269928, Note_on_c, 0, 74, 64
2, 269970, Control_c, 0, 64, 0
2, 270435, Note_on_c, 0, 73, 60
2, 270449, Note_off_c, 0, 74, 56
2, 270609, Note_on_c, 0, 72, 59
2, 270610, Note_on_c, 0, 60, 48
2, 270612, Note_off_c, 0, 73, 55
2, 270613, Note_on_c, 0, 57, 40
2, 270615, Note_on_c, 0, 51, 36
2, 270616, Note_on_c, 0, 54, 48
2, 270688, Control_c, 0, 64, 127
2, 270853, Note_off_c, 0, 72, 54
2, 270883, Note_off_c, 0, 57, 50
2, 270897, Note_off_c, 0, 54, 52
2, 270915, Note_off_c, 0, 51, 49
2, 270921, Note_off_c, 0, 60, 52
2, 270944, Note_on_c, 0, 72, 56
2, 271463, Note_on_c, 0, 71, 52
2, 271530, Note_off_c, 0, 72, 54
2, 271638, Note_on_c, 0, 72, 51
2, 271647, Note_off_c, 0, 71, 53
2, 271898, Note_off_c, 0, 72, 52
2, 271985, Note_on_c, 0, 72, 49
2, 272336, Control_c, 0, 64, 0
2, 272527, Note_on_c, 0, 71, 45
2, 272585, Control_c, 0, 64, 127
2, 272619, Note_off_c, 0, 72, 52
2, 272713, Note_off_c, 0, 71, 51
2, 272717, Note_on_c, 0, 64, 34
2, 272717, Note_on_c, 0, 72, 46
2, 272720, Note_on_c, 0, 60, 36
2, 272721, Note_on_c, 0, 40, 48
2, 272858, Note_off_c, 0, 40, 52
2, 272860, Note_on_c, 0, 52, 36
2, 272900, Control_c, 0, 64, 0
2, 272943, Note_off_c, 0, 52, 49
2, 273005, Note_on_c, 0, 52, 36
2, 273105, Note_off_c, 0, 52, 49
2, 273149, Note_on_c, 0, 52, 37
2, 273260, Note_off_c, 0, 52, 49
2, 273292, Note_on_c, 0, 52, 38
2, 273396, Note_off_c, 0, 52, 49
2, 273436, Note_on_c, 0, 52, 38
2, 273552, Note_off_c, 0, 52, 49
2, 273567, Note_off_c, 0, 72, 51
2, 273584, Note_on_c, 0, 52, 39
2, 273586, Note_on_c, 0, 69, 36
2, 273695, Note_off_c, 0, 52, 49
2, 273733, Note_on_c, 0, 52, 40
2, 273835, Note_off_c, 0, 52, 50
2, 273862, Note_off_c, 0, 69, 49
2, 273864, Note_off_c, 0, 64, 48
2, 273865, Note_off_c, 0, 60, 49
2, 273880, Note_on_c, 0, 52, 40
2, 273997, Note_off_c, 0, 52, 50
2, 274026, Note_on_c, 0, 52, 41
2, 274143, Note_off_c, 0, 52, 50
2, 274174, Note_on_c, 0, 52, 42
2, 274280, Note_off_c, 0, 52, 50
2, 274339, Note_on_c, 0, 52, 43
2, 274468, Control_c, 0, 64, 99
2, 274474, Note_off_c, 0, 52, 50
2, 274478, Note_on_c, 0, 74, 52
2, 274491, Note_on_c, 0, 40, 55
2, 274493, Note_on_c, 0, 71, 34
2, 274504, Note_on_c, 0, 62, 48
2, 274508, Note_on_c, 0, 64, 36
2, 274631, Note_off_c, 0, 40, 53
2, 274633, Note_on_c, 0, 52, 44
2, 274727, Note_off_c, 0, 52, 51
2, 274775, Note_on_c, 0, 52, 45
2, 274848, Control_c, 0, 64, 0
2, 274871, Note_off_c, 0, 52, 51
2, 274918, Note_on_c, 0, 52, 45
2, 275027, Note_off_c, 0, 52, 51
2, 275065, Note_on_c, 0, 52, 46
2, 275163, Note_off_c, 0, 52, 51
2, 275197, Note_off_c, 0, 71, 48
2, 275209, Note_on_c, 0, 52, 47
2, 275307, Note_off_c, 0, 52, 51
2, 275332, Note_off_c, 0, 74, 53
2, 275357, Note_on_c, 0, 68, 54
2, 275358, Note_on_c, 0, 52, 48
2, 275441, Note_off_c, 0, 62, 52
2, 275468, Note_off_c, 0, 52, 52
2, 275504, Note_on_c, 0, 52, 48
2, 275605, Note_off_c, 0, 52, 52
2, 275612, Note_off_c, 0, 64, 49
2, 275634, Note_off_c, 0, 68, 53
2, 275652, Note_on_c, 0, 52, 44
2, 275754, Note_off_c, 0, 52, 51
2, 275799, Note_on_c, 0, 52, 39
2, 275894, Note_off_c, 0, 52, 49
2, 275947, Note_on_c, 0, 52, 34
2, 276057, Note_off_c, 0, 52, 48
2, 276112, Note_on_c, 0, 52, 29
2, 276227, Note_off_c, 0, 52, 47
2, 276252, Control_c, 0, 64, 89
2, 276260, Note_on_c, 0, 72, 52
2, 276266, Note_on_c, 0, 45, 48
2, 276271, Note_on_c, 0, 60, 36
2, 276408, Note_on_c, 0, 52, 42
2, 276503, Note_off_c, 0, 52, 50
2, 276554, Note_on_c, 0, 52, 44
2, 276636, Note_off_c, 0, 45, 52
2, 276669, Note_off_c, 0, 52, 51
2, 276717, Note_on_c, 0, 48, 46
2, 276721, Note_on_c, 0, 45, 52
2, 276839, Note_off_c, 0, 48, 51
2, 276861, Note_on_c, 0, 52, 49
2, 276887, Note_off_c, 0, 60, 49
2, 276971, Note_off_c, 0, 52, 52
2, 277002, Note_off_c, 0, 72, 53
2, 277017, Note_on_c, 0, 76, 61
2, 277020, Note_on_c, 0, 52, 51
2, 277030, Note_on_c, 0, 64, 45
2, 277040, Control_c, 0, 64, 0
2, 277110, Note_off_c, 0, 64, 51
2, 277123, Note_off_c, 0, 45, 53
2, 277126, Note_off_c, 0, 76, 55
2, 277143, Note_off_c, 0, 52, 52
2, 277178, Note_on_c, 0, 47, 60
2, 277180, Note_on_c, 0, 76, 64
2, 277190, Note_on_c, 0, 64, 48
2, 277245, Control_c, 0, 64, 105
2, 277323, Note_on_c, 0, 52, 54
2, 277417, Note_off_c, 0, 64, 52
2, 277422, Note_off_c, 0, 52, 53
2, 277455, Note_off_c, 0, 76, 56
2, 277470, Note_on_c, 0, 74, 62
2, 277473, Note_on_c, 0, 52, 52
2, 277483, Note_on_c, 0, 62, 46
2, 277575, Note_off_c, 0, 47, 55
2, 277616, Note_off_c, 0, 62, 51
2, 277629, Note_off_c, 0, 52, 53
2, 277638, Note_off_c, 0, 74, 55
2, 277642, Note_on_c, 0, 72, 59
2, 277643, Note_on_c, 0, 44, 56
2, 277653, Note_on_c, 0, 60, 43
2, 277789, Note_on_c, 0, 52, 47
2, 277887, Note_off_c, 0, 60, 50
2, 277907, Note_off_c, 0, 52, 51
2, 277927, Note_off_c, 0, 72, 54
2, 277962, Note_on_c, 0, 52, 45
2, 277963, Note_on_c, 0, 71, 54
2, 277972, Note_on_c, 0, 59, 38
2, 277981, Control_c, 0, 64, 0
2, 278051, Note_off_c, 0, 52, 51
2, 278079, Note_off_c, 0, 59, 49
2, 278081, Note_off_c, 0, 71, 53
2, 278096, Note_off_c, 0, 44, 54
2, 278111, Note_on_c, 0, 45, 48
2, 278116, Note_on_c, 0, 72, 51
2, 278128, Note_on_c, 0, 60, 35
2, 278212, Control_c, 0, 64, 96
2, 278287, Note_on_c, 0, 52, 42
2, 278397, Note_off_c, 0, 52, 50
2, 278438, Note_on_c, 0, 52, 44
2, 278521, Note_off_c, 0, 45, 52
2, 278554, Note_off_c, 0, 52, 51
2, 278587, Note_on_c, 0, 48, 46
2, 278591, Note_on_c, 0, 45, 52
2, 278741, Note_off_c, 0, 48, 51
2, 278749, Note_on_c, 0, 52, 49
2, 278758, Note_off_c, 0, 60, 48
2, 278857, Note_off_c, 0, 52, 52
2, 278876, Note_off_c, 0, 72, 52
2, 278909, Note_on_c, 0, 52, 51
2, 278910, Note_on_c, 0, 76, 60
2, 278918, Note_on_c, 0, 64, 44
2, 278926, Control_c, 0, 64, 0
2, 278988, Note_off_c, 0, 45, 53
2, 278999, Note_off_c, 0, 64, 51
2, 279010, Note_off_c, 0, 76, 55
2, 279014, Note_off_c, 0, 52, 52
2, 279051, Note_on_c, 0, 47, 60
2, 279054, Note_on_c, 0, 76, 64
2, 279063, Note_on_c, 0, 64, 48
2, 279126, Control_c, 0, 64, 114
2, 279199, Note_on_c, 0, 52, 54
2, 279277, Note_off_c, 0, 64, 52
2, 279334, Note_off_c, 0, 52, 53
2, 279348, Note_off_c, 0, 76, 56
2, 279366, Note_on_c, 0, 52, 51
2, 279367, Note_on_c, 0, 74, 60
2, 279376, Note_on_c, 0, 62, 44
2, 279460, Note_off_c, 0, 47, 55
2, 279482, Note_off_c, 0, 52, 52
2, 279506, Note_off_c, 0, 62, 51
2, 279513, Note_on_c, 0, 44, 54
2, 279516, Note_off_c, 0, 74, 55
2, 279519, Note_on_c, 0, 72, 56
2, 279531, Note_on_c, 0, 60, 40
2, 279687, Note_on_c, 0, 52, 45
2, 279774, Note_off_c, 0, 60, 50
2, 279799, Note_off_c, 0, 52, 51
2, 279822, Note_off_c, 0, 72, 54
2, 279840, Note_on_c, 0, 71, 52
2, 279843, Note_on_c, 0, 52, 42
2, 279853, Note_on_c, 0, 59, 36
2, 279869, Control_c, 0, 64, 0
2, 279946, Note_off_c, 0, 52, 50
2, 279966, Note_off_c, 0, 44, 53
2, 279968, Note_off_c, 0, 59, 49
2, 279980, Note_off_c, 0, 71, 53
2, 280090, Note_on_c, 0, 77, 84
2, 280103, Note_on_c, 0, 45, 72
2, 280112, Note_on_c, 0, 69, 60
2, 280122, Note_on_c, 0, 65, 72
2, 280123, Note_on_c, 0, 74, 64
2, 280189, Control_c, 0, 64, 127
2, 280243, Note_off_c, 0, 45, 58
2, 280245, Note_on_c, 0, 57, 60
2, 280343, Note_off_c, 0, 57, 55
2, 280387, Note_on_c, 0, 57, 59
2, 280475, Note_off_c, 0, 57, 54
2, 280533, Note_on_c, 0, 57, 58
2, 280642, Note_off_c, 0, 57, 54
2, 280659, Note_off_c, 0, 74, 56
2, 280677, Note_on_c, 0, 57, 57
2, 280697, Note_off_c, 0, 65, 58
2, 280738, Note_off_c, 0, 69, 55
2, 280750, Note_off_c, 0, 77, 61
2, 280788, Note_off_c, 0, 57, 54
2, 280823, Note_on_c, 0, 57, 56
2, 280925, Note_off_c, 0, 57, 54
2, 280959, Control_c, 0, 64, 0
2, 280970, Note_on_c, 0, 74, 72
2, 280973, Note_on_c, 0, 57, 54
2, 281069, Note_off_c, 0, 57, 53
2, 281119, Note_on_c, 0, 57, 53
2, 281234, Note_off_c, 0, 57, 53
2, 281251, Note_off_c, 0, 74, 58
2, 281266, Note_on_c, 0, 57, 52
2, 281370, Note_off_c, 0, 57, 53
2, 281414, Note_on_c, 0, 57, 51
2, 281533, Note_off_c, 0, 57, 52
2, 281563, Note_on_c, 0, 57, 50
2, 281689, Note_off_c, 0, 57, 52
2, 281729, Note_on_c, 0, 57, 48
2, 281840, Note_off_c, 0, 57, 52
2, 281903, Control_c, 0, 64, 102
2, 281931, Note_on_c, 0, 79, 84
2, 281938, Note_on_c, 0, 73, 60
2, 281942, Note_on_c, 0, 76, 66
2, 281945, Note_on_c, 0, 45, 72
2, 281947, Note_on_c, 0, 67, 70
2, 281957, Note_on_c, 0, 69, 84
2, 282090, Note_off_c, 0, 45, 58
2, 282091, Note_on_c, 0, 57, 60
2, 282198, Note_off_c, 0, 57, 55
2, 282239, Note_on_c, 0, 57, 59
2, 282340, Note_off_c, 0, 57, 54
2, 282390, Note_on_c, 0, 57, 58
2, 282499, Note_off_c, 0, 57, 54
2, 282520, Note_off_c, 0, 73, 55
2, 282540, Note_on_c, 0, 57, 56
2, 282559, Note_off_c, 0, 76, 56
2, 282564, Note_off_c, 0, 69, 61
2, 282583, Note_off_c, 0, 67, 57
2, 282614, Note_off_c, 0, 79, 61
2, 282648, Note_off_c, 0, 57, 54
2, 282690, Note_on_c, 0, 57, 55
2, 282786, Note_off_c, 0, 57, 53
2, 282791, Control_c, 0, 64, 0
2, 282840, Note_on_c, 0, 57, 54
2, 282842, Note_on_c, 0, 73, 72
2, 282941, Note_off_c, 0, 57, 53
2, 282991, Note_on_c, 0, 57, 52
2, 283099, Note_off_c, 0, 57, 53
2, 283124, Note_off_c, 0, 73, 58
2, 283141, Note_on_c, 0, 57, 51
2, 283245, Note_off_c, 0, 57, 52
2, 283293, Note_on_c, 0, 57, 50
2, 283403, Note_off_c, 0, 57, 52
2, 283443, Note_on_c, 0, 57, 48
2, 283536, Note_off_c, 0, 57, 52
2, 283608, Note_on_c, 0, 57, 60
2, 283698, Control_c, 0, 64, 96
2, 283760, Note_off_c, 0, 57, 55
2, 283761, Note_on_c, 0, 77, 51
2, 283763, Note_on_c, 0, 50, 44
2, 283771, Note_on_c, 0, 65, 35
2, 283908, Note_on_c, 0, 57, 36
2, 284007, Note_off_c, 0, 57, 49
2, 284071, Note_on_c, 0, 57, 38
2, 284134, Note_off_c, 0, 50, 51
2, 284164, Note_off_c, 0, 57, 49
2, 284218, Note_on_c, 0, 50, 48
2, 284220, Note_on_c, 0, 53, 40
2, 284274, Note_off_c, 0, 65, 48
2, 284353, Note_off_c, 0, 53, 50
2, 284377, Note_on_c, 0, 57, 43
2, 284495, Note_off_c, 0, 57, 50
2, 284506, Note_off_c, 0, 77, 52
2, 284520, Note_on_c, 0, 81, 60
2, 284522, Control_c, 0, 64, 0
2, 284523, Note_on_c, 0, 57, 45
2, 284532, Note_on_c, 0, 69, 44
2, 284619, Note_off_c, 0, 69, 51
2, 284632, Note_off_c, 0, 81, 55
2, 284661, Note_off_c, 0, 57, 51
2, 284669, Note_off_c, 0, 50, 52
2, 284684, Note_on_c, 0, 81, 64
2, 284692, Note_on_c, 0, 52, 56
2, 284695, Note_on_c, 0, 69, 48
2, 284738, Control_c, 0, 64, 108
2, 284827, Note_on_c, 0, 57, 48
2, 284896, Note_off_c, 0, 69, 52
2, 284945, Note_off_c, 0, 57, 52
2, 284955, Note_off_c, 0, 81, 56
2, 284972, Note_on_c, 0, 79, 62
2, 284974, Note_on_c, 0, 57, 46
2, 284983, Note_on_c, 0, 67, 46
2, 285077, Note_off_c, 0, 52, 54
2, 285102, Note_off_c, 0, 67, 51
2, 285131, Note_off_c, 0, 57, 51
2, 285138, Note_off_c, 0, 79, 55
2, 285139, Note_on_c, 0, 77, 59
2, 285142, Note_on_c, 0, 49, 52
2, 285150, Note_on_c, 0, 65, 43
2, 285283, Note_on_c, 0, 57, 41
2, 285401, Note_off_c, 0, 65, 50
2, 285405, Note_off_c, 0, 57, 50
2, 285430, Note_off_c, 0, 77, 54
2, 285448, Note_on_c, 0, 76, 53
2, 285451, Note_on_c, 0, 57, 39
2, 285458, Note_on_c, 0, 64, 37
2, 285460, Control_c, 0, 64, 0
2, 285553, Note_off_c, 0, 57, 49
2, 285560, Note_off_c, 0, 49, 53
2, 285563, Note_off_c, 0, 64, 49
2, 285564, Note_off_c, 0, 76, 53
2, 285593, Note_on_c, 0, 50, 44
2, 285597, Note_on_c, 0, 77, 50
2, 285605, Note_on_c, 0, 65, 34
2, 285672, Control_c, 0, 64, 99
2, 285761, Note_on_c, 0, 57, 36
2, 285863, Note_off_c, 0, 57, 49
2, 285909, Note_on_c, 0, 57, 38
2, 285995, Note_off_c, 0, 50, 51
2, 286000, Note_off_c, 0, 57, 49
2, 286055, Note_on_c, 0, 50, 48
2, 286056, Note_on_c, 0, 53, 40
2, 286134, Note_off_c, 0, 65, 48
2, 286198, Note_off_c, 0, 53, 50
2, 286216, Note_on_c, 0, 57, 43
2, 286324, Note_off_c, 0, 57, 50
2, 286341, Note_off_c, 0, 77, 52
2, 286355, Control_c, 0, 64, 0
2, 286374, Note_on_c, 0, 81, 59
2, 286376, Note_on_c, 0, 57, 45
2, 286384, Note_on_c, 0, 69, 43
2, 286467, Note_off_c, 0, 69, 50
2, 286486, Note_off_c, 0, 81, 54
2, 286488, Note_off_c, 0, 50, 52
2, 286516, Note_off_c, 0, 57, 51
2, 286519, Note_on_c, 0, 52, 56
2, 286521, Note_on_c, 0, 81, 63
2, 286529, Note_on_c, 0, 69, 47
2, 286561, Control_c, 0, 64, 95
2, 286678, Note_on_c, 0, 57, 48
2, 286765, Note_off_c, 0, 69, 51
2, 286786, Note_off_c, 0, 57, 52
2, 286809, Note_off_c, 0, 81, 55
2, 286824, Note_on_c, 0, 79, 59
2, 286827, Note_on_c, 0, 57, 45
2, 286837, Note_on_c, 0, 67, 43
2, 286914, Note_off_c, 0, 52, 54
2, 286949, Note_off_c, 0, 67, 50
2, 286975, Note_off_c, 0, 57, 51
2, 286977, Note_off_c, 0, 79, 54
2, 286978, Note_on_c, 0, 77, 55
2, 286988, Note_on_c, 0, 49, 50
2, 286991, Note_on_c, 0, 65, 39
2, 287143, Note_on_c, 0, 57, 39
2, 287245, Note_off_c, 0, 65, 49
2, 287278, Note_off_c, 0, 57, 49
2, 287278, Note_off_c, 0, 77, 53
2, 287296, Note_on_c, 0, 76, 51
2, 287298, Note_on_c, 0, 57, 36
2, 287308, Note_on_c, 0, 64, 35
2, 287420, Note_off_c, 0, 57, 49
2, 287426, Note_off_c, 0, 64, 48
2, 287435, Note_off_c, 0, 76, 52
2, 287456, Note_off_c, 0, 49, 52
2, 287513, Note_on_c, 0, 77, 64
2, 287516, Note_on_c, 0, 57, 39
2, 287523, Note_on_c, 0, 50, 47
2, 287526, Note_on_c, 0, 65, 48
2, 287550, Control_c, 0, 64, 0
2, 287743, Control_c, 0, 64, 127
2, 288599, Note_off_c, 0, 77, 56
2, 288600, Note_on_c, 0, 69, 48
2, 288744, Note_off_c, 0, 50, 51
2, 288777, Note_off_c, 0, 57, 49
2, 288908, Note_off_c, 0, 65, 52
2, 288992, Note_off_c, 0, 69, 52
2, 289206, Control_c, 0, 64, 0
2, 289831, Note_on_c, 0, 77, 56
2, 289841, Note_on_c, 0, 65, 36
2, 289842, Note_on_c, 0, 58, 45
2, 289844, Note_on_c, 0, 50, 48
2, 289889, Control_c, 0, 64, 127
2, 291067, Note_off_c, 0, 77, 54
2, 291081, Note_on_c, 0, 68, 44
2, 291243, Note_off_c, 0, 50, 52
2, 291340, Note_off_c, 0, 65, 49
2, 291400, Note_off_c, 0, 58, 51
2, 291500, Note_off_c, 0, 68, 51
2, 291773, Control_c, 0, 64, 0
2, 292258, Control_c, 0, 64, 99
2, 292290, Note_on_c, 0, 67, 90
2, 292293, Note_on_c, 0, 39, 75
2, 292305, Note_on_c, 0, 58, 80
2, 292306, Note_on_c, 0, 63, 70
2, 292311, Note_on_c, 0, 55, 85
2, 292433, Note_off_c, 0, 39, 59
2, 292436, Note_on_c, 0, 51, 48
2, 292531, Note_off_c, 0, 51, 52
2, 292545, Control_c, 0, 64, 0
2, 292578, Note_on_c, 0, 51, 47
2, 292679, Note_off_c, 0, 51, 51
2, 292721, Note_on_c, 0, 51, 46
2, 292838, Note_off_c, 0, 51, 51
2, 292864, Note_on_c, 0, 51, 45
2, 292932, Note_off_c, 0, 63, 57
2, 292966, Note_off_c, 0, 51, 51
2, 293008, Note_on_c, 0, 51, 44
2, 293035, Note_off_c, 0, 55, 61
2, 293085, Note_off_c, 0, 58, 60
2, 293129, Note_off_c, 0, 51, 51
2, 293158, Note_off_c, 0, 67, 62
2, 293162, Note_on_c, 0, 63, 84
2, 293164, Note_on_c, 0, 55, 60
2, 293165, Note_on_c, 0, 58, 66
2, 293166, Note_on_c, 0, 51, 42
2, 293262, Note_off_c, 0, 51, 50
2, 293303, Note_on_c, 0, 51, 41
2, 293397, Note_off_c, 0, 58, 56
2, 293410, Note_off_c, 0, 51, 50
2, 293414, Note_off_c, 0, 63, 61
2, 293420, Note_off_c, 0, 55, 55
2, 293451, Note_on_c, 0, 51, 40
2, 293553, Note_off_c, 0, 51, 50
2, 293596, Note_on_c, 0, 51, 39
2, 293707, Note_off_c, 0, 51, 49
2, 293748, Note_on_c, 0, 51, 38
2, 293857, Note_off_c, 0, 51, 49
2, 293895, Note_on_c, 0, 51, 36
2, 294034, Note_off_c, 0, 51, 49
2, 294047, Control_c, 0, 64, 127
2, 294060, Note_on_c, 0, 70, 90
2, 294061, Note_on_c, 0, 39, 72
2, 294064, Note_on_c, 0, 67, 70
2, 294072, Note_on_c, 0, 63, 66
2, 294073, Note_on_c, 0, 58, 76
2, 294204, Note_off_c, 0, 39, 58
2, 294206, Note_on_c, 0, 51, 37
2, 294298, Note_off_c, 0, 51, 49
2, 294348, Note_on_c, 0, 51, 38
2, 294389, Control_c, 0, 64, 0
2, 294433, Note_off_c, 0, 51, 49
2, 294474, Note_on_c, 0, 51, 39
2, 294582, Note_off_c, 0, 51, 49
2, 294632, Note_on_c, 0, 51, 40
2, 294719, Note_off_c, 0, 58, 59
2, 294737, Note_off_c, 0, 51, 50
2, 294767, Note_off_c, 0, 63, 56
2, 294782, Note_on_c, 0, 51, 42
2, 294831, Note_off_c, 0, 67, 57
2, 294883, Note_off_c, 0, 51, 50
2, 294913, Note_off_c, 0, 70, 62
2, 294925, Note_on_c, 0, 67, 60
2, 294927, Note_on_c, 0, 58, 55
2, 294928, Note_on_c, 0, 63, 40
2, 294933, Note_on_c, 0, 51, 43
2, 294939, Note_on_c, 0, 55, 50
2, 295043, Note_off_c, 0, 51, 50
2, 295074, Note_on_c, 0, 51, 44
2, 295108, Note_off_c, 0, 55, 52
2, 295173, Note_off_c, 0, 58, 53
2, 295176, Note_off_c, 0, 63, 50
2, 295177, Note_off_c, 0, 67, 55
2, 295182, Note_off_c, 0, 51, 51
2, 295223, Note_on_c, 0, 51, 45
2, 295315, Note_off_c, 0, 51, 51
2, 295372, Note_on_c, 0, 51, 46
2, 295495, Note_off_c, 0, 51, 51
2, 295518, Note_on_c, 0, 51, 48
2, 295626, Note_off_c, 0, 51, 52
2, 295664, Note_on_c, 0, 70, 54
2, 295667, Note_on_c, 0, 51, 48
2, 295774, Note_off_c, 0, 51, 52
2, 295797, Note_off_c, 0, 70, 53
2, 295810, Note_on_c, 0, 75, 54
2, 295812, Note_on_c, 0, 63, 60
2, 295813, Note_on_c, 0, 55, 50
2, 295814, Control_c, 0, 64, 96
2, 295815, Note_on_c, 0, 51, 45
2, 295954, Note_off_c, 0, 75, 53
2, 295955, Note_on_c, 0, 74, 57
2, 296097, Note_off_c, 0, 74, 54
2, 296100, Note_on_c, 0, 77, 60
2, 296239, Note_off_c, 0, 77, 55
2, 296243, Note_on_c, 0, 75, 63
2, 296245, Note_on_c, 0, 56, 52
2, 296246, Note_on_c, 0, 53, 46
2, 296268, Control_c, 0, 64, 0
2, 296289, Note_off_c, 0, 51, 51
2, 296291, Note_off_c, 0, 55, 52
2, 296386, Note_off_c, 0, 75, 55
2, 296387, Note_on_c, 0, 74, 66
2, 296480, Control_c, 0, 64, 95
2, 296533, Note_off_c, 0, 74, 56
2, 296535, Note_on_c, 0, 77, 66
2, 296678, Note_off_c, 0, 77, 56
2, 296683, Note_on_c, 0, 75, 66
2, 296687, Note_on_c, 0, 58, 50
2, 296688, Note_on_c, 0, 55, 42
2, 296730, Note_off_c, 0, 56, 53
2, 296733, Note_off_c, 0, 53, 51
2, 296756, Control_c, 0, 64, 0
2, 296825, Note_off_c, 0, 75, 56
2, 296827, Note_on_c, 0, 74, 64
2, 296909, Note_off_c, 0, 58, 52
2, 296910, Note_off_c, 0, 55, 50
2, 296945, Note_off_c, 0, 63, 55
2, 296974, Note_off_c, 0, 74, 56
2, 296975, Note_on_c, 0, 77, 62
2, 297022, Control_c, 0, 64, 106
2, 297120, Note_off_c, 0, 77, 55
2, 297123, Note_on_c, 0, 75, 59
2, 297288, Note_off_c, 0, 75, 54
2, 297289, Note_on_c, 0, 74, 57
2, 297435, Note_off_c, 0, 74, 54
2, 297436, Note_on_c, 0, 72, 54
2, 297477, Control_c, 0, 64, 0
2, 297518, Note_off_c, 0, 72, 53
2, 297584, Note_on_c, 0, 80, 54
2, 297588, Note_on_c, 0, 58, 36
2, 297591, Note_on_c, 0, 70, 48
2, 297592, Note_on_c, 0, 62, 42
2, 297683, Control_c, 0, 64, 98
2, 297725, Note_off_c, 0, 80, 53
2, 297728, Note_on_c, 0, 79, 57
2, 297871, Note_off_c, 0, 79, 54
2, 297872, Note_on_c, 0, 82, 60
2, 298014, Note_off_c, 0, 82, 55
2, 298017, Note_on_c, 0, 80, 63
2, 298020, Note_on_c, 0, 60, 50
2, 298023, Note_on_c, 0, 63, 53
2, 298032, Control_c, 0, 64, 0
2, 298057, Note_off_c, 0, 62, 50
2, 298068, Note_off_c, 0, 58, 49
2, 298156, Note_off_c, 0, 80, 55
2, 298158, Note_on_c, 0, 79, 66
2, 298233, Control_c, 0, 64, 97
2, 298319, Note_off_c, 0, 79, 56
2, 298321, Note_on_c, 0, 82, 66
2, 298452, Note_off_c, 0, 82, 56
2, 298466, Note_on_c, 0, 80, 66
2, 298468, Note_on_c, 0, 65, 50
2, 298469, Note_on_c, 0, 62, 43
2, 298515, Note_off_c, 0, 60, 52
2, 298519, Control_c, 0, 64, 0
2, 298524, Note_off_c, 0, 63, 53
2, 298613, Note_off_c, 0, 80, 56
2, 298614, Note_on_c, 0, 79, 64
2, 298660, Note_off_c, 0, 62, 50
2, 298666, Note_off_c, 0, 65, 52
2, 298680, Note_off_c, 0, 70, 52
2, 298742, Control_c, 0, 64, 118
2, 298760, Note_off_c, 0, 79, 56
2, 298763, Note_on_c, 0, 82, 62
2, 298908, Note_off_c, 0, 82, 55
2, 298909, Note_on_c, 0, 80, 59
2, 299057, Note_off_c, 0, 80, 54
2, 299058, Note_on_c, 0, 79, 57
2, 299204, Note_off_c, 0, 79, 54
2, 299207, Note_on_c, 0, 77, 54
2, 299218, Control_c, 0, 64, 0
2, 299288, Note_off_c, 0, 77, 53
2, 299362, Note_on_c, 0, 75, 48
2, 299364, Note_on_c, 0, 67, 43
2, 299368, Note_on_c, 0, 87, 54
2, 299376, Note_on_c, 0, 63, 45
2, 299435, Control_c, 0, 64, 99
2, 299513, Note_off_c, 0, 87, 53
2, 299515, Note_on_c, 0, 86, 58
2, 299655, Note_off_c, 0, 86, 54
2, 299656, Note_on_c, 0, 89, 62
2, 299788, Note_off_c, 0, 67, 50
2, 299798, Note_off_c, 0, 89, 55
2, 299800, Note_on_c, 0, 65, 40
2, 299803, Note_on_c, 0, 87, 66
2, 299804, Note_on_c, 0, 68, 49
2, 299860, Note_off_c, 0, 63, 51
2, 299946, Note_off_c, 0, 87, 56
2, 299948, Note_on_c, 0, 86, 70
2, 300093, Note_off_c, 0, 86, 57
2, 300094, Note_on_c, 0, 89, 74
2, 300239, Note_off_c, 0, 89, 59
2, 300244, Note_on_c, 0, 87, 78
2, 300246, Note_on_c, 0, 70, 42
2, 300249, Note_on_c, 0, 67, 35
2, 300258, Note_off_c, 0, 68, 52
2, 300263, Note_off_c, 0, 65, 50
2, 300269, Control_c, 0, 64, 0
2, 300385, Note_off_c, 0, 87, 59
2, 300387, Note_on_c, 0, 86, 82
2, 300484, Control_c, 0, 64, 110
2, 300533, Note_off_c, 0, 86, 60
2, 300534, Note_on_c, 0, 89, 86
2, 300537, Note_off_c, 0, 70, 50
2, 300560, Note_off_c, 0, 67, 48
2, 300588, Note_off_c, 0, 75, 52
2, 300675, Note_on_c, 0, 75, 57
2, 300677, Note_off_c, 0, 89, 61
2, 300679, Note_on_c, 0, 70, 42
2, 300680, Note_on_c, 0, 87, 90
2, 300683, Note_on_c, 0, 67, 35
2, 300685, Note_on_c, 0, 73, 45
2, 300719, Control_c, 0, 64, 0
2, 300821, Note_off_c, 0, 87, 62
2, 300823, Note_on_c, 0, 85, 90
2, 300950, Control_c, 0, 64, 97
2, 300969, Note_off_c, 0, 85, 62
2, 300970, Note_on_c, 0, 84, 81
2, 301072, Note_off_c, 0, 67, 48
2, 301095, Note_off_c, 0, 70, 50
2, 301107, Note_off_c, 0, 73, 51
2, 301114, Note_off_c, 0, 84, 60
2, 301118, Note_on_c, 0, 72, 60
2, 301120, Note_on_c, 0, 68, 50
2, 301121, Note_on_c, 0, 83, 72
2, 301262, Note_off_c, 0, 83, 58
2, 301263, Note_on_c, 0, 84, 63
2, 301348, Note_off_c, 0, 75, 54
2, 301352, Control_c, 0, 64, 0
2, 301355, Note_off_c, 0, 68, 52
2, 301377, Note_off_c, 0, 72, 55
2, 301406, Note_off_c, 0, 84, 55
2, 301409, Note_on_c, 0, 82, 54
2, 301548, Control_c, 0, 64, 96
2, 301550, Note_on_c, 0, 80, 54
2, 301570, Note_off_c, 0, 82, 53
2, 301695, Note_on_c, 0, 79, 57
2, 301717, Note_off_c, 0, 80, 53
2, 301843, Note_off_c, 0, 79, 54
2, 301845, Note_on_c, 0, 77, 60
2, 301951, Control_c, 0, 64, 0
2, 301990, Note_on_c, 0, 67, 48
2, 301996, Note_on_c, 0, 75, 57
2, 302000, Note_on_c, 0, 58, 35
2, 302001, Note_on_c, 0, 63, 42
2, 302020, Note_off_c, 0, 77, 55
2, 302158, Control_c, 0, 64, 96
2, 302162, Note_on_c, 0, 74, 60
2, 302172, Note_off_c, 0, 75, 54
2, 302285, Note_off_c, 0, 67, 52
2, 302298, Note_off_c, 0, 58, 48
2, 302315, Note_off_c, 0, 63, 50
2, 302319, Note_on_c, 0, 77, 60
2, 302335, Note_off_c, 0, 74, 55
2, 302473, Note_on_c, 0, 80, 60
2, 302475, Note_on_c, 0, 68, 48
2, 302477, Note_on_c, 0, 65, 45
2, 302479, Note_on_c, 0, 58, 43
2, 302499, Note_off_c, 0, 77, 55
2, 302645, Note_on_c, 0, 77, 56
2, 302667, Note_off_c, 0, 80, 55
2, 302723, Control_c, 0, 64, 0
2, 302807, Note_off_c, 0, 58, 50
2, 302808, Note_off_c, 0, 65, 51
2, 302809, Note_off_c, 0, 68, 52
2, 302810, Note_on_c, 0, 74, 52
2, 302820, Note_off_c, 0, 77, 54
2, 302894, Note_off_c, 0, 74, 53
2, 302956, Note_on_c, 0, 75, 48
2, 302959, Note_on_c, 0, 63, 51
2, 302975, Control_c, 0, 64, 98
2, 303102, Note_on_c, 0, 62, 52
2, 303123, Note_off_c, 0, 63, 52
2, 303246, Note_off_c, 0, 75, 52
2, 303247, Note_on_c, 0, 65, 53
2, 303249, Note_off_c, 0, 62, 53
2, 303391, Note_on_c, 0, 79, 54
2, 303393, Note_on_c, 0, 63, 54
2, 303396, Note_off_c, 0, 65, 53
2, 303400, Note_on_c, 0, 75, 42
2, 303408, Note_on_c, 0, 67, 34
2, 303441, Control_c, 0, 64, 0
2, 303535, Note_on_c, 0, 62, 54
2, 303537, Note_off_c, 0, 63, 53
2, 303673, Control_c, 0, 64, 98
2, 303679, Note_on_c, 0, 65, 55
2, 303689, Note_off_c, 0, 62, 53
2, 303842, Note_on_c, 0, 63, 56
2, 303868, Note_off_c, 0, 65, 53
2, 303990, Note_on_c, 0, 62, 57
2, 304000, Note_off_c, 0, 63, 54
2, 304134, Note_off_c, 0, 62, 54
2, 304136, Note_on_c, 0, 65, 58
2, 304142, Note_off_c, 0, 67, 48
2, 304217, Note_off_c, 0, 75, 50
2, 304264, Note_off_c, 0, 79, 53
2, 304281, Note_on_c, 0, 80, 67
2, 304283, Note_off_c, 0, 65, 54
2, 304284, Note_on_c, 0, 63, 59
2, 304306, Note_on_c, 0, 68, 51
2, 304309, Note_on_c, 0, 75, 45
2, 304336, Control_c, 0, 64, 0
2, 304451, Note_on_c, 0, 62, 60
2, 304475, Note_off_c, 0, 63, 54
2, 304578, Control_c, 0, 64, 98
2, 304599, Note_on_c, 0, 60, 60
2, 304605, Note_off_c, 0, 62, 55
2, 304608, Note_off_c, 0, 75, 51
2, 304650, Note_off_c, 0, 68, 52
2, 304725, Note_off_c, 0, 60, 55
2, 304733, Note_off_c, 0, 80, 57
2, 304765, Note_on_c, 0, 82, 76
2, 304768, Note_on_c, 0, 58, 61
2, 304784, Note_on_c, 0, 70, 59
2, 304793, Note_on_c, 0, 75, 53
2, 304916, Note_on_c, 0, 56, 62
2, 304934, Control_c, 0, 64, 0
2, 304937, Note_off_c, 0, 58, 55
2, 305086, Note_on_c, 0, 55, 63
2, 305118, Note_off_c, 0, 56, 55
2, 305139, Note_off_c, 0, 75, 53
2, 305140, Note_off_c, 0, 70, 54
2, 305182, Control_c, 0, 64, 98
2, 305220, Note_off_c, 0, 82, 59
2, 305248, Note_off_c, 0, 55, 55
2, 305254, Note_on_c, 0, 84, 83
2, 305257, Note_on_c, 0, 53, 64
2, 305277, Note_on_c, 0, 75, 73
2, 305284, Note_on_c, 0, 72, 67
2, 305406, Control_c, 0, 64, 0
2, 305409, Note_on_c, 0, 51, 65
2, 305433, Note_off_c, 0, 53, 56
2, 305581, Note_on_c, 0, 49, 66
2, 305589, Note_off_c, 0, 72, 57
2, 305610, Note_off_c, 0, 51, 56
2, 305613, Note_off_c, 0, 75, 58
2, 305657, Control_c, 0, 64, 98
2, 305735, Note_off_c, 0, 84, 60
2, 305745, Note_off_c, 0, 49, 56
2, 305751, Note_on_c, 0, 85, 93
2, 305754, Note_on_c, 0, 48, 66
2, 305779, Note_on_c, 0, 73, 65
2, 305781, Note_on_c, 0, 75, 70
2, 305808, Control_c, 0, 64, 0
2, 305928, Note_on_c, 0, 46, 67
2, 305938, Note_off_c, 0, 48, 56
2, 306045, Note_off_c, 0, 73, 56
2, 306062, Control_c, 0, 64, 98
2, 306103, Note_on_c, 0, 44, 68
2, 306118, Note_off_c, 0, 46, 57
2, 306136, Note_off_c, 0, 75, 57
2, 306241, Note_off_c, 0, 85, 63
2, 306255, Note_off_c, 0, 44, 57
2, 306275, Note_on_c, 0, 43, 69
2, 306277, Note_on_c, 0, 87, 96
2, 306297, Note_on_c, 0, 75, 80
2, 306301, Control_c, 0, 64, 0
2, 306451, Note_off_c, 0, 43, 57
2, 306453, Note_on_c, 0, 41, 70
2, 306560, Control_c, 0, 64, 98
2, 306585, Note_off_c, 0, 75, 60
2, 306628, Note_off_c, 0, 41, 57
2, 306631, Note_on_c, 0, 39, 71
2, 306665, Note_off_c, 0, 87, 63
2, 306725, Note_off_c, 0, 39, 58
2, 306865, Note_on_c, 0, 39, 66
2, 306867, Note_on_c, 0, 32, 60
2, 306868, Note_on_c, 0, 84, 84
2, 306869, Note_on_c, 0, 72, 72
2, 306872, Note_on_c, 0, 44, 72
2, 306900, Control_c, 0, 64, 0
2, 306955, Note_off_c, 0, 84, 61
2, 306957, Note_off_c, 0, 72, 58
2, 307045, Note_on_c, 0, 87, 88
2, 307174, Note_off_c, 0, 32, 55
2, 307201, Note_off_c, 0, 39, 56
2, 307203, Note_off_c, 0, 44, 58
2, 307288, Note_on_c, 0, 85, 85
2, 307301, Note_off_c, 0, 87, 62
2, 307441, Control_c, 0, 64, 127
2, 307459, Note_on_c, 0, 39, 80
2, 307462, Note_off_c, 0, 85, 61
2, 307464, Note_on_c, 0, 84, 84
2, 307470, Note_on_c, 0, 34, 72
2, 307482, Note_on_c, 0, 46, 89
2, 307638, Note_off_c, 0, 84, 61
2, 307641, Note_on_c, 0, 82, 82
2, 307817, Note_off_c, 0, 82, 60
2, 307819, Note_on_c, 0, 80, 80
2, 307987, Note_off_c, 0, 80, 60
2, 307990, Note_on_c, 0, 79, 78
2, 308142, Note_off_c, 0, 79, 59
2, 308145, Note_on_c, 0, 77, 76
2, 308313, Note_off_c, 0, 77, 59
2, 308314, Note_on_c, 0, 75, 74
2, 308465, Note_off_c, 0, 75, 59
2, 308468, Note_on_c, 0, 73, 72
2, 308613, Note_off_c, 0, 73, 58
2, 308615, Note_on_c, 0, 72, 70
2, 308764, Note_off_c, 0, 72, 57
2, 308766, Note_on_c, 0, 70, 68
2, 308912, Note_off_c, 0, 70, 57
2, 308913, Note_on_c, 0, 68, 67
2, 309057, Note_off_c, 0, 68, 57
2, 309058, Note_on_c, 0, 67, 65
2, 309066, Note_off_c, 0, 46, 62
2, 309203, Note_off_c, 0, 67, 56
2, 309205, Note_on_c, 0, 65, 63
2, 309210, Note_off_c, 0, 34, 58
2, 309300, Note_off_c, 0, 39, 60
2, 309344, Note_off_c, 0, 65, 55
2, 309345, Note_on_c, 0, 63, 61
2, 309487, Note_off_c, 0, 63, 55
2, 309489, Note_on_c, 0, 62, 60
2, 309647, Note_off_c, 0, 62, 55
2, 309650, Note_on_c, 0, 65, 65
2, 309778, Note_off_c, 0, 65, 56
2, 309792, Note_on_c, 0, 31, 53
2, 309793, Note_on_c, 0, 39, 60
2, 309796, Note_on_c, 0, 63, 69
2, 309807, Control_c, 0, 64, 0
2, 309959, Note_off_c, 0, 63, 57
2, 309960, Note_on_c, 0, 62, 74
2, 310019, Control_c, 0, 64, 98
2, 310126, Note_off_c, 0, 62, 59
2, 310128, Note_on_c, 0, 65, 60
2, 310292, Note_off_c, 0, 65, 55
2, 310293, Note_on_c, 0, 63, 64
2, 310414, Note_off_c, 0, 31, 53
2, 310461, Note_off_c, 0, 63, 56
2, 310463, Note_on_c, 0, 65, 70
2, 310475, Note_off_c, 0, 39, 55
2, 310633, Note_off_c, 0, 65, 57
2, 310635, Note_on_c, 0, 61, 74
2, 310771, Note_off_c, 0, 61, 59
2, 310806, Note_on_c, 0, 60, 79
2, 310807, Note_on_c, 0, 39, 68
2, 310809, Note_on_c, 0, 44, 82
2, 310809, Note_on_c, 0, 32, 75
2, 310845, Control_c, 0, 64, 0
2, 310997, Note_off_c, 0, 60, 60
2, 311033, Control_c, 0, 64, 90
2, 311058, Note_on_c, 0, 84, 86
2, 311108, Note_off_c, 0, 44, 60
2, 311116, Note_off_c, 0, 39, 57
2, 311147, Note_off_c, 0, 32, 59
2, 311291, Note_on_c, 0, 87, 86
2, 311301, Note_off_c, 0, 84, 61
2, 311415, Note_off_c, 0, 87, 61
2, 311440, Note_on_c, 0, 39, 75
2, 311461, Note_on_c, 0, 46, 84
2, 311464, Note_on_c, 0, 85, 90
2, 311469, Note_on_c, 0, 34, 80
2, 311498, Control_c, 0, 64, 0
2, 311512, Note_off_c, 0, 85, 62
2, 311514, Note_on_c, 0, 87, 84
2, 311561, Note_off_c, 0, 87, 61
2, 311562, Note_on_c, 0, 85, 84
2, 311608, Note_off_c, 0, 85, 61
2, 311610, Note_on_c, 0, 84, 83
2, 311704, Control_c, 0, 64, 127
2, 311753, Note_on_c, 0, 82, 82
2, 311795, Note_off_c, 0, 84, 60
2, 311818, Note_off_c, 0, 82, 60
2, 311898, Note_on_c, 0, 80, 90
2, 311947, Note_off_c, 0, 80, 62
2, 311949, Note_on_c, 0, 82, 80
2, 311994, Note_off_c, 0, 82, 60
2, 311996, Note_on_c, 0, 80, 79
2, 312043, Note_off_c, 0, 80, 60
2, 312045, Note_on_c, 0, 79, 79
2, 312191, Note_on_c, 0, 77, 77
2, 312230, Note_off_c, 0, 79, 60
2, 312256, Note_off_c, 0, 77, 59
2, 312338, Note_on_c, 0, 75, 90
2, 312388, Note_off_c, 0, 75, 62
2, 312389, Note_on_c, 0, 77, 75
2, 312436, Note_off_c, 0, 77, 59
2, 312439, Note_on_c, 0, 75, 76
2, 312487, Note_off_c, 0, 75, 59
2, 312488, Note_on_c, 0, 73, 74
2, 312634, Note_on_c, 0, 72, 73
2, 312680, Note_off_c, 0, 73, 59
2, 312716, Note_off_c, 0, 72, 58
2, 312781, Note_on_c, 0, 70, 89
2, 312849, Note_off_c, 0, 70, 62
2, 312851, Note_on_c, 0, 72, 71
2, 312898, Note_off_c, 0, 72, 58
2, 312901, Note_on_c, 0, 70, 70
2, 312950, Note_off_c, 0, 70, 57
2, 312951, Note_on_c, 0, 68, 70
2, 313101, Note_on_c, 0, 67, 68
2, 313147, Note_off_c, 0, 68, 57
2, 313184, Note_off_c, 0, 67, 57
2, 313251, Note_on_c, 0, 65, 91
2, 313297, Note_off_c, 0, 39, 59
2, 313303, Note_off_c, 0, 65, 62
2, 313304, Note_on_c, 0, 67, 66
2, 313369, Note_off_c, 0, 67, 56
2, 313370, Note_on_c, 0, 65, 66
2, 313420, Note_off_c, 0, 65, 56
2, 313421, Note_on_c, 0, 63, 65
2, 313465, Note_off_c, 0, 34, 60
2, 313474, Note_off_c, 0, 46, 61
2, 313572, Note_on_c, 0, 62, 64
2, 313618, Note_off_c, 0, 63, 56
2, 313709, Note_off_c, 0, 62, 56
2, 313712, Note_on_c, 0, 31, 73
2, 313716, Note_on_c, 0, 43, 72
2, 313722, Note_on_c, 0, 39, 65
2, 313724, Note_on_c, 0, 63, 72
2, 313738, Control_c, 0, 64, 0
2, 313897, Note_on_c, 0, 65, 72
2, 313959, Control_c, 0, 64, 127
2, 313984, Note_off_c, 0, 63, 58
2, 314051, Note_on_c, 0, 62, 75
2, 314077, Note_off_c, 0, 65, 58
2, 314205, Note_on_c, 0, 63, 78
2, 314261, Note_off_c, 0, 62, 59
2, 314378, Note_on_c, 0, 65, 81
2, 314425, Note_off_c, 0, 63, 59
2, 314515, Note_off_c, 0, 31, 58
2, 314548, Note_on_c, 0, 61, 84
2, 314550, Note_off_c, 0, 43, 58
2, 314613, Note_off_c, 0, 65, 60
2, 314622, Note_off_c, 0, 39, 56
2, 314671, Note_off_c, 0, 61, 61
2, 314709, Note_on_c, 0, 60, 76
2, 314711, Note_on_c, 0, 44, 60
2, 314719, Note_on_c, 0, 32, 66
2, 314792, Control_c, 0, 64, 0
2, 314864, Note_on_c, 0, 61, 75
2, 314976, Note_off_c, 0, 60, 59
2, 315014, Control_c, 0, 64, 127
2, 315017, Note_on_c, 0, 59, 74
2, 315020, Note_off_c, 0, 61, 59
2, 315179, Note_on_c, 0, 60, 73
2, 315224, Note_off_c, 0, 59, 59
2, 315326, Note_on_c, 0, 61, 72
2, 315359, Note_off_c, 0, 60, 58
2, 315475, Note_on_c, 0, 62, 71
2, 315507, Note_off_c, 0, 61, 58
2, 315599, Note_off_c, 0, 62, 58
2, 315624, Note_on_c, 0, 63, 70
2, 315798, Note_on_c, 0, 64, 69
2, 315849, Note_off_c, 0, 63, 57
2, 315969, Note_on_c, 0, 65, 68
2, 315977, Note_off_c, 0, 64, 57
2, 316123, Note_off_c, 0, 44, 55
2, 316126, Note_on_c, 0, 66, 67
2, 316128, Note_on_c, 0, 45, 60
2, 316135, Note_off_c, 0, 32, 56
2, 316138, Note_on_c, 0, 33, 53
2, 316171, Control_c, 0, 64, 0
2, 316190, Note_off_c, 0, 65, 57
2, 316296, Note_on_c, 0, 65, 66
2, 316324, Note_off_c, 0, 66, 57
2, 316389, Control_c, 0, 64, 127
2, 316448, Note_on_c, 0, 63, 72
2, 316452, Note_off_c, 0, 65, 56
2, 316580, Note_off_c, 0, 63, 58
2, 316612, Note_off_c, 0, 45, 55
2, 316614, Note_on_c, 0, 62, 60
2, 316615, Note_on_c, 0, 46, 48
2, 316620, Note_off_c, 0, 33, 53
2, 316626, Note_on_c, 0, 34, 50
2, 316668, Control_c, 0, 64, 0
2, 316875, Control_c, 0, 64, 127
2, 316902, Note_off_c, 0, 62, 55
2, 316904, Note_on_c, 0, 65, 60
2, 316912, Note_off_c, 0, 34, 52
2, 317047, Note_off_c, 0, 65, 55
2, 317047, Note_on_c, 0, 62, 61
2, 317333, Note_off_c, 0, 62, 55
2, 317337, Note_on_c, 0, 58, 64
2, 317339, Note_on_c, 0, 56, 51
2, 317344, Control_c, 0, 64, 0
2, 317482, Note_off_c, 0, 58, 56
2, 317485, Note_off_c, 0, 56, 52
2, 317485, Note_on_c, 0, 63, 65
2, 317487, Note_on_c, 0, 54, 52
2, 317554, Control_c, 0, 64, 94
2, 317779, Note_off_c, 0, 63, 56
2, 317781, Note_off_c, 0, 54, 53
2, 317782, Note_on_c, 0, 66, 68
2, 317784, Note_on_c, 0, 51, 55
2, 317817, Control_c, 0, 64, 0
2, 317927, Note_off_c, 0, 66, 57
2, 317929, Note_off_c, 0, 51, 53
2, 317929, Note_on_c, 0, 58, 69
2, 317931, Note_on_c, 0, 54, 57
2, 317987, Note_off_c, 0, 46, 52
2, 318028, Control_c, 0, 64, 96
2, 318222, Note_off_c, 0, 54, 54
2, 318223, Note_off_c, 0, 58, 57
2, 318225, Note_on_c, 0, 63, 72
2, 318226, Note_on_c, 0, 57, 60
2, 318230, Control_c, 0, 64, 0
2, 318337, Note_off_c, 0, 63, 58
2, 318338, Note_off_c, 0, 57, 55
2, 318371, Note_on_c, 0, 62, 58
2, 318372, Note_on_c, 0, 58, 48
2, 318373, Note_on_c, 0, 46, 43
2, 318401, Control_c, 0, 64, 98
2, 318657, Note_off_c, 0, 62, 54
2, 318659, Note_off_c, 0, 58, 52
2, 318661, Note_off_c, 0, 46, 50
2, 318662, Note_on_c, 0, 74, 60
2, 318665, Note_on_c, 0, 65, 48
2, 318675, Control_c, 0, 64, 0
2, 318791, Note_on_c, 0, 82, 61
2, 318799, Note_off_c, 0, 74, 55
2, 318801, Note_on_c, 0, 62, 49
2, 318803, Note_off_c, 0, 65, 52
2, 318878, Control_c, 0, 64, 93
2, 319096, Note_off_c, 0, 82, 55
2, 319100, Note_on_c, 0, 80, 65
2, 319101, Note_on_c, 0, 58, 52
2, 319142, Note_off_c, 0, 62, 52
2, 319261, Note_on_c, 0, 63, 53
2, 319262, Note_on_c, 0, 78, 66
2, 319276, Note_off_c, 0, 80, 56
2, 319279, Note_off_c, 0, 58, 53
2, 319468, Control_c, 0, 64, 0
2, 319551, Note_on_c, 0, 75, 70
2, 319554, Note_on_c, 0, 66, 56
2, 319557, Note_off_c, 0, 78, 56
2, 319587, Note_off_c, 0, 63, 53
2, 319669, Control_c, 0, 64, 93
2, 319692, Note_on_c, 0, 78, 72
2, 319697, Note_off_c, 0, 66, 54
2, 319699, Note_on_c, 0, 58, 57
2, 319704, Note_off_c, 0, 75, 57
2, 319996, Note_off_c, 0, 78, 58
2, 320002, Note_on_c, 0, 81, 72
2, 320004, Note_on_c, 0, 63, 60
2, 320044, Note_off_c, 0, 58, 54
2, 320166, Note_on_c, 0, 82, 60
2, 320167, Note_on_c, 0, 62, 53
2, 320168, Note_on_c, 0, 58, 48
2, 320171, Note_off_c, 0, 81, 58
2, 320196, Note_off_c, 0, 63, 55
2, 320231, Note_off_c, 0, 82, 55
2, 320274, Control_c, 0, 64, 0
2, 320310, Note_on_c, 0, 88, 60
2, 320379, Note_off_c, 0, 62, 53
2, 320380, Note_off_c, 0, 58, 52
2, 320462, Note_on_c, 0, 89, 66
2, 320488, Note_off_c, 0, 88, 55
2, 320579, Note_off_c, 0, 89, 56
2, 320611, Note_on_c, 0, 82, 72
2, 320677, Note_off_c, 0, 82, 58
2, 320761, Note_on_c, 0, 85, 72
2, 320913, Note_on_c, 0, 86, 72
2, 320937, Note_off_c, 0, 85, 58
2, 321011, Note_off_c, 0, 86, 58
2, 321064, Note_on_c, 0, 77, 48
2, 321129, Note_off_c, 0, 77, 52
2, 321213, Note_on_c, 0, 81, 48
2, 321345, Note_on_c, 0, 82, 52
2, 321385, Note_off_c, 0, 81, 52
2, 321462, Note_off_c, 0, 82, 53
2, 321497, Note_on_c, 0, 74, 56
2, 321580, Note_off_c, 0, 74, 54
2, 321649, Note_on_c, 0, 76, 60
2, 321798, Note_on_c, 0, 77, 60
2, 321853, Note_off_c, 0, 76, 55
2, 321893, Control_c, 0, 64, 96
2, 321915, Note_off_c, 0, 77, 55
2, 321947, Note_on_c, 0, 73, 48
2, 321951, Note_on_c, 0, 58, 52
2, 322101, Note_off_c, 0, 58, 53
2, 322102, Note_on_c, 0, 74, 48
2, 322104, Note_on_c, 0, 68, 76
2, 322145, Note_off_c, 0, 73, 52
2, 322250, Note_off_c, 0, 74, 52
2, 322251, Note_on_c, 0, 70, 49
2, 322296, Control_c, 0, 64, 0
2, 322398, Note_on_c, 0, 73, 50
2, 322416, Note_off_c, 0, 70, 52
2, 322552, Note_on_c, 0, 74, 52
2, 322558, Note_off_c, 0, 73, 52
2, 322701, Note_on_c, 0, 70, 53
2, 322710, Note_off_c, 0, 74, 53
2, 322852, Note_on_c, 0, 73, 54
2, 322854, Note_off_c, 0, 70, 53
2, 323000, Note_on_c, 0, 74, 56
2, 323020, Note_off_c, 0, 73, 53
2, 323153, Note_on_c, 0, 70, 57
2, 323161, Note_off_c, 0, 74, 54
2, 323294, Note_on_c, 0, 75, 58
2, 323303, Note_off_c, 0, 68, 59
2, 323305, Note_on_c, 0, 67, 51
2, 323319, Note_off_c, 0, 70, 54
2, 323445, Note_on_c, 0, 77, 60
2, 323455, Note_on_c, 0, 65, 50
2, 323472, Note_off_c, 0, 67, 52
2, 323473, Note_off_c, 0, 75, 54
2, 323594, Note_on_c, 0, 79, 60
2, 323601, Note_off_c, 0, 77, 55
2, 323605, Note_on_c, 0, 63, 48
2, 323614, Note_off_c, 0, 65, 52
2, 323725, Note_off_c, 0, 79, 55
2, 323727, Note_off_c, 0, 63, 52
2, 323740, Control_c, 0, 64, 127
2, 323770, Note_on_c, 0, 73, 48
2, 323772, Note_on_c, 0, 58, 52
2, 323919, Note_off_c, 0, 73, 52
2, 323921, Note_off_c, 0, 58, 53
2, 323924, Note_on_c, 0, 68, 76
2, 323925, Note_on_c, 0, 74, 48
2, 324070, Note_off_c, 0, 74, 52
2, 324072, Note_on_c, 0, 70, 49
2, 324154, Control_c, 0, 64, 0
2, 324220, Note_off_c, 0, 70, 52
2, 324222, Note_on_c, 0, 73, 50
2, 324353, Note_off_c, 0, 73, 52
2, 324356, Note_on_c, 0, 74, 52
2, 324504, Note_off_c, 0, 74, 53
2, 324506, Note_on_c, 0, 70, 53
2, 324655, Note_off_c, 0, 70, 53
2, 324657, Note_on_c, 0, 73, 54
2, 324806, Note_off_c, 0, 73, 53
2, 324808, Note_on_c, 0, 74, 56
2, 324957, Note_off_c, 0, 74, 54
2, 324958, Note_on_c, 0, 70, 57
2, 325076, Control_c, 0, 64, 96
2, 325106, Note_off_c, 0, 68, 59
2, 325107, Note_off_c, 0, 70, 54
2, 325108, Note_on_c, 0, 75, 58
2, 325111, Note_on_c, 0, 67, 51
2, 325273, Note_on_c, 0, 65, 50
2, 325275, Note_on_c, 0, 77, 60
2, 325286, Note_off_c, 0, 75, 54
2, 325290, Note_off_c, 0, 67, 52
2, 325424, Note_off_c, 0, 65, 52
2, 325425, Note_on_c, 0, 79, 60
2, 325428, Note_on_c, 0, 63, 48
2, 325436, Note_off_c, 0, 77, 55
2, 325476, Control_c, 0, 64, 0
2, 325543, Note_off_c, 0, 63, 52
2, 325566, Note_off_c, 0, 79, 55
2, 325577, Note_on_c, 0, 65, 40
2, 325580, Note_on_c, 0, 71, 48
2, 325650, Control_c, 0, 64, 96
2, 325727, Note_on_c, 0, 74, 48
2, 325728, Note_on_c, 0, 62, 40
2, 325749, Note_off_c, 0, 71, 52
2, 325769, Note_off_c, 0, 65, 50
2, 325873, Note_on_c, 0, 71, 52
2, 325881, Note_on_c, 0, 65, 42
2, 325905, Note_off_c, 0, 62, 50
2, 325908, Note_off_c, 0, 74, 52
2, 326031, Note_on_c, 0, 72, 56
2, 326032, Note_on_c, 0, 63, 44
2, 326058, Note_off_c, 0, 65, 50
2, 326070, Note_off_c, 0, 71, 53
2, 326177, Note_on_c, 0, 74, 60
2, 326182, Note_on_c, 0, 62, 46
2, 326193, Note_off_c, 0, 63, 51
2, 326199, Note_off_c, 0, 72, 54
2, 326327, Note_on_c, 0, 60, 54
2, 326328, Note_on_c, 0, 75, 60
2, 326358, Note_off_c, 0, 62, 51
2, 326367, Control_c, 0, 64, 0
2, 326385, Note_off_c, 0, 74, 55
2, 326457, Note_off_c, 0, 75, 55
2, 326460, Note_off_c, 0, 60, 53
2, 326489, Note_on_c, 0, 67, 48
2, 326495, Note_on_c, 0, 61, 40
2, 326587, Control_c, 0, 64, 96
2, 326632, Note_on_c, 0, 70, 48
2, 326633, Note_on_c, 0, 60, 40
2, 326641, Note_off_c, 0, 67, 52
2, 326643, Note_off_c, 0, 61, 50
2, 326782, Note_on_c, 0, 67, 51
2, 326783, Note_on_c, 0, 61, 41
2, 326789, Note_off_c, 0, 60, 50
2, 326797, Note_off_c, 0, 70, 52
2, 326928, Note_on_c, 0, 68, 54
2, 326932, Note_on_c, 0, 60, 43
2, 326937, Note_off_c, 0, 61, 50
2, 326950, Note_off_c, 0, 67, 52
2, 327096, Note_on_c, 0, 70, 57
2, 327101, Note_on_c, 0, 58, 44
2, 327125, Note_off_c, 0, 68, 53
2, 327151, Note_off_c, 0, 60, 50
2, 327248, Note_on_c, 0, 72, 60
2, 327250, Note_on_c, 0, 56, 46
2, 327255, Note_off_c, 0, 58, 51
2, 327279, Control_c, 0, 64, 0
2, 327297, Note_off_c, 0, 70, 54
2, 327375, Note_off_c, 0, 56, 51
2, 327380, Note_off_c, 0, 72, 55
2, 327393, Note_on_c, 0, 58, 48
2, 327395, Note_on_c, 0, 64, 48
2, 327489, Control_c, 0, 64, 98
2, 327543, Note_on_c, 0, 67, 48
2, 327549, Note_on_c, 0, 55, 48
2, 327552, Note_off_c, 0, 58, 52
2, 327574, Note_off_c, 0, 64, 52
2, 327697, Note_on_c, 0, 64, 51
2, 327700, Note_on_c, 0, 58, 49
2, 327715, Note_off_c, 0, 55, 52
2, 327748, Note_off_c, 0, 67, 52
2, 327850, Note_on_c, 0, 56, 51
2, 327851, Note_on_c, 0, 65, 54
2, 327874, Note_off_c, 0, 58, 52
2, 327894, Note_off_c, 0, 64, 52
2, 328000, Note_on_c, 0, 55, 52
2, 328001, Note_on_c, 0, 67, 57
2, 328010, Note_off_c, 0, 65, 53
2, 328014, Note_off_c, 0, 56, 52
2, 328147, Note_on_c, 0, 68, 60
2, 328150, Note_on_c, 0, 53, 54
2, 328157, Note_off_c, 0, 55, 53
2, 328182, Control_c, 0, 64, 0
2, 328186, Note_off_c, 0, 67, 54
2, 328272, Note_off_c, 0, 53, 53
2, 328274, Note_off_c, 0, 68, 55
2, 328300, Note_on_c, 0, 63, 48
2, 328301, Note_on_c, 0, 58, 48
2, 328303, Note_on_c, 0, 46, 48
2, 328400, Control_c, 0, 64, 98
2, 328449, Note_off_c, 0, 63, 52
2, 328450, Note_off_c, 0, 58, 52
2, 328451, Note_on_c, 0, 67, 52
2, 328454, Note_on_c, 0, 55, 48
2, 328616, Note_off_c, 0, 67, 53
2, 328618, Note_on_c, 0, 70, 60
2, 328619, Note_on_c, 0, 51, 54
2, 328625, Note_off_c, 0, 46, 52
2, 328637, Note_off_c, 0, 55, 52
2, 328750, Note_off_c, 0, 70, 55
2, 328752, Note_off_c, 0, 51, 53
2, 328766, Note_on_c, 0, 58, 60
2, 328767, Note_on_c, 0, 68, 72
2, 328770, Note_on_c, 0, 46, 60
2, 328785, Control_c, 0, 64, 0
2, 328934, Note_on_c, 0, 65, 72
2, 328936, Note_on_c, 0, 56, 60
2, 328939, Note_off_c, 0, 58, 55
2, 328946, Note_off_c, 0, 68, 58
2, 329005, Control_c, 0, 64, 98
2, 329084, Note_off_c, 0, 56, 55
2, 329085, Note_on_c, 0, 62, 56
2, 329087, Note_off_c, 0, 65, 58
2, 329088, Note_on_c, 0, 53, 54
2, 329206, Note_off_c, 0, 62, 54
2, 329211, Note_off_c, 0, 53, 53
2, 329250, Note_off_c, 0, 46, 55
2, 329252, Note_on_c, 0, 63, 48
2, 329254, Note_on_c, 0, 55, 37
2, 329255, Note_on_c, 0, 51, 30
2, 329291, Control_c, 0, 64, 0
2, 329335, Note_off_c, 0, 55, 49
2, 329336, Note_off_c, 0, 51, 47
2, 329353, Note_off_c, 0, 63, 52
2, 329403, Note_on_c, 0, 63, 48
2, 329484, Note_off_c, 0, 63, 52
2, 329570, Note_on_c, 0, 65, 54
2, 329651, Note_off_c, 0, 65, 53
2, 329735, Note_on_c, 0, 66, 60
2, 329868, Note_on_c, 0, 67, 66
2, 329917, Note_off_c, 0, 66, 55
2, 329985, Note_off_c, 0, 67, 56
2, 330018, Note_on_c, 0, 65, 61
2, 330102, Note_off_c, 0, 65, 55
2, 330172, Note_on_c, 0, 63, 59
2, 330253, Note_off_c, 0, 63, 54
2, 330321, Note_on_c, 0, 67, 58
2, 330405, Note_off_c, 0, 67, 54
2, 330469, Note_on_c, 0, 65, 57
2, 330553, Note_off_c, 0, 65, 54
2, 330621, Note_on_c, 0, 63, 56
2, 330704, Note_off_c, 0, 63, 54
2, 330771, Note_on_c, 0, 62, 55
2, 330855, Note_off_c, 0, 62, 53
2, 330921, Note_on_c, 0, 60, 54
2, 330991, Note_off_c, 0, 60, 53
2, 331072, Note_on_c, 0, 62, 60
2, 331073, Note_on_c, 0, 58, 53
2, 331081, Control_c, 0, 64, 98
2, 331139, Note_off_c, 0, 58, 53
2, 331224, Note_off_c, 0, 62, 55
2, 331225, Note_on_c, 0, 82, 84
2, 331226, Note_on_c, 0, 57, 52
2, 331288, Note_off_c, 0, 57, 53
2, 331373, Note_on_c, 0, 56, 51
2, 331379, Control_c, 0, 64, 0
2, 331440, Note_off_c, 0, 56, 52
2, 331523, Note_on_c, 0, 53, 50
2, 331589, Note_off_c, 0, 53, 52
2, 331674, Note_on_c, 0, 50, 49
2, 331740, Note_off_c, 0, 50, 52
2, 331825, Note_on_c, 0, 46, 48
2, 331891, Note_off_c, 0, 46, 52
2, 331974, Note_on_c, 0, 45, 60
2, 332107, Note_on_c, 0, 46, 65
2, 332168, Note_off_c, 0, 45, 55
2, 332224, Note_off_c, 0, 46, 56
2, 332259, Note_off_c, 0, 82, 61
2, 332262, Note_on_c, 0, 62, 48
2, 332263, Note_on_c, 0, 44, 57
2, 332342, Note_off_c, 0, 62, 52
2, 332344, Note_off_c, 0, 44, 54
2, 332410, Note_on_c, 0, 63, 48
2, 332411, Note_on_c, 0, 43, 54
2, 332492, Note_off_c, 0, 63, 52
2, 332495, Note_off_c, 0, 43, 53
2, 332576, Note_on_c, 0, 65, 52
2, 332578, Note_on_c, 0, 41, 51
2, 332643, Note_off_c, 0, 65, 53
2, 332646, Note_off_c, 0, 41, 52
2, 332727, Note_on_c, 0, 67, 56
2, 332729, Note_on_c, 0, 39, 48
2, 332810, Note_off_c, 0, 67, 54
2, 332812, Note_off_c, 0, 39, 52
2, 332895, Note_on_c, 0, 58, 50
2, 332896, Note_on_c, 0, 62, 54
2, 332909, Control_c, 0, 64, 96
2, 332961, Note_off_c, 0, 58, 52
2, 333027, Note_off_c, 0, 62, 53
2, 333028, Note_on_c, 0, 82, 78
2, 333030, Note_on_c, 0, 57, 60
2, 333108, Note_off_c, 0, 57, 55
2, 333178, Note_on_c, 0, 56, 57
2, 333202, Control_c, 0, 64, 0
2, 333260, Note_off_c, 0, 56, 54
2, 333326, Note_on_c, 0, 53, 54
2, 333412, Note_off_c, 0, 53, 53
2, 333480, Note_on_c, 0, 50, 51
2, 333561, Note_off_c, 0, 50, 52
2, 333628, Note_on_c, 0, 46, 48
2, 333712, Note_off_c, 0, 46, 52
2, 333780, Note_on_c, 0, 45, 48
2, 333931, Note_on_c, 0, 46, 49
2, 333963, Note_off_c, 0, 45, 52
2, 334045, Note_off_c, 0, 46, 52
2, 334081, Note_off_c, 0, 82, 59
2, 334082, Note_on_c, 0, 62, 48
2, 334083, Note_on_c, 0, 44, 51
2, 334145, Note_off_c, 0, 62, 52
2, 334149, Note_off_c, 0, 44, 52
2, 334231, Note_on_c, 0, 63, 48
2, 334232, Note_on_c, 0, 43, 53
2, 334313, Note_off_c, 0, 63, 52
2, 334315, Note_off_c, 0, 43, 53
2, 334379, Note_on_c, 0, 65, 54
2, 334384, Note_on_c, 0, 41, 54
2, 334465, Note_off_c, 0, 65, 53
2, 334466, Note_off_c, 0, 41, 53
2, 334548, Note_on_c, 0, 67, 60
2, 334549, Note_on_c, 0, 39, 56
2, 334614, Note_off_c, 0, 67, 55
2, 334616, Note_off_c, 0, 39, 54
2, 334699, Note_on_c, 0, 65, 66
2, 334700, Note_on_c, 0, 47, 58
2, 334847, Note_off_c, 0, 65, 56
2, 334851, Note_off_c, 0, 47, 54
2, 334852, Note_on_c, 0, 74, 72
2, 334853, Note_on_c, 0, 59, 60
2, 334864, Control_c, 0, 64, 96
2, 334997, Note_off_c, 0, 59, 55
2, 335000, Note_on_c, 0, 77, 72
2, 335004, Note_off_c, 0, 74, 58
2, 335004, Note_on_c, 0, 62, 60
2, 335147, Note_off_c, 0, 77, 58
2, 335152, Note_on_c, 0, 75, 72
2, 335155, Note_on_c, 0, 60, 60
2, 335170, Note_off_c, 0, 62, 55
2, 335301, Note_off_c, 0, 60, 55
2, 335303, Note_on_c, 0, 74, 69
2, 335304, Note_on_c, 0, 62, 59
2, 335307, Note_off_c, 0, 75, 58
2, 335452, Note_on_c, 0, 63, 57
2, 335454, Note_off_c, 0, 74, 57
2, 335455, Note_on_c, 0, 72, 66
2, 335469, Note_off_c, 0, 62, 54
2, 335487, Control_c, 0, 64, 0
2, 335563, Note_off_c, 0, 63, 54
2, 335576, Note_off_c, 0, 72, 56
2, 335601, Note_on_c, 0, 73, 63
2, 335603, Note_on_c, 0, 55, 56
2, 335694, Control_c, 0, 64, 106
2, 335767, Note_off_c, 0, 73, 55
2, 335770, Note_off_c, 0, 55, 54
2, 335771, Note_on_c, 0, 58, 54
2, 335773, Note_on_c, 0, 70, 60
2, 335914, Note_off_c, 0, 58, 53
2, 335918, Note_on_c, 0, 73, 57
2, 335921, Note_on_c, 0, 55, 53
2, 335931, Note_off_c, 0, 70, 55
2, 336069, Note_on_c, 0, 72, 54
2, 336073, Note_on_c, 0, 56, 51
2, 336079, Note_off_c, 0, 73, 54
2, 336089, Note_off_c, 0, 55, 53
2, 336237, Note_on_c, 0, 70, 51
2, 336238, Note_on_c, 0, 58, 50
2, 336242, Note_off_c, 0, 56, 52
2, 336261, Note_off_c, 0, 72, 53
2, 336381, Note_off_c, 0, 58, 52
2, 336385, Control_c, 0, 64, 0
2, 336386, Note_on_c, 0, 60, 48
2, 336388, Note_on_c, 0, 68, 52
2, 336391, Note_off_c, 0, 70, 52
2, 336527, Note_off_c, 0, 68, 53
2, 336530, Note_off_c, 0, 60, 52
2, 336552, Note_on_c, 0, 52, 48
2, 336556, Note_on_c, 0, 70, 48
2, 336590, Control_c, 0, 64, 106
2, 336700, Note_off_c, 0, 52, 52
2, 336705, Note_on_c, 0, 67, 50
2, 336707, Note_on_c, 0, 55, 49
2, 336714, Note_off_c, 0, 70, 52
2, 336853, Note_on_c, 0, 52, 51
2, 336857, Note_on_c, 0, 70, 53
2, 336873, Note_off_c, 0, 67, 52
2, 336879, Note_off_c, 0, 55, 52
2, 337005, Note_on_c, 0, 68, 56
2, 337009, Note_on_c, 0, 53, 52
2, 337017, Note_off_c, 0, 52, 52
2, 337021, Note_off_c, 0, 70, 53
2, 337157, Note_on_c, 0, 67, 58
2, 337160, Note_on_c, 0, 55, 54
2, 337177, Note_off_c, 0, 53, 53
2, 337180, Note_off_c, 0, 68, 54
2, 337315, Control_c, 0, 64, 0
2, 337319, Note_off_c, 0, 55, 53
2, 337323, Note_on_c, 0, 65, 61
2, 337324, Note_on_c, 0, 56, 55
2, 337340, Note_off_c, 0, 67, 54
2, 337438, Note_off_c, 0, 56, 53
2, 337461, Note_off_c, 0, 65, 55
2, 337471, Note_on_c, 0, 63, 64
2, 337474, Note_on_c, 0, 58, 57
2, 337521, Control_c, 0, 64, 106
2, 337643, Note_off_c, 0, 63, 56
2, 337644, Note_on_c, 0, 67, 66
2, 337647, Note_on_c, 0, 55, 58
2, 337649, Note_off_c, 0, 58, 54
2, 337807, Note_on_c, 0, 70, 69
2, 337810, Note_off_c, 0, 55, 54
2, 337812, Note_on_c, 0, 46, 60
2, 337823, Note_off_c, 0, 67, 56
2, 337974, Note_on_c, 0, 65, 72
2, 337976, Note_on_c, 0, 56, 60
2, 337998, Note_off_c, 0, 46, 55
2, 338014, Note_off_c, 0, 70, 57
2, 338139, Note_off_c, 0, 56, 55
2, 338140, Note_off_c, 0, 65, 58
2, 338143, Note_on_c, 0, 53, 60
2, 338145, Note_on_c, 0, 68, 72
2, 338256, Control_c, 0, 64, 0
2, 338309, Note_on_c, 0, 74, 68
2, 338311, Note_on_c, 0, 46, 54
2, 338321, Note_off_c, 0, 53, 55
2, 338337, Note_off_c, 0, 68, 58
2, 338419, Note_off_c, 0, 74, 57
2, 338427, Note_off_c, 0, 46, 53
2, 338531, Control_c, 0, 64, 106
2, 338535, Note_on_c, 0, 75, 63
2, 338536, Note_on_c, 0, 67, 50
2, 338538, Note_on_c, 0, 55, 48
2, 338540, Note_on_c, 0, 51, 45
2, 338870, Note_off_c, 0, 75, 55
2, 338872, Note_off_c, 0, 67, 52
2, 338873, Note_off_c, 0, 55, 52
2, 338874, Note_off_c, 0, 51, 51
2, 339214, Note_on_c, 0, 67, 50
2, 339215, Note_on_c, 0, 55, 40
2, 339217, Note_on_c, 0, 46, 30
2, 339218, Note_on_c, 0, 51, 32
2, 339220, Note_on_c, 0, 39, 36
2, 339235, Control_c, 0, 64, 0
2, 339451, Control_c, 0, 64, 96
2, 339651, Note_off_c, 0, 67, 52
2, 339652, Note_off_c, 0, 55, 50
2, 339654, Note_off_c, 0, 51, 48
2, 339655, Note_off_c, 0, 39, 49
2, 339657, Note_on_c, 0, 65, 51
2, 339658, Note_on_c, 0, 56, 40
2, 339659, Note_on_c, 0, 50, 30
2, 339660, Note_on_c, 0, 41, 36
2, 340103, Note_off_c, 0, 65, 52
2, 340104, Note_off_c, 0, 56, 50
2, 340106, Note_off_c, 0, 50, 47
2, 340108, Note_off_c, 0, 41, 49
2, 340109, Note_on_c, 0, 63, 54
2, 340111, Note_on_c, 0, 58, 41
2, 340112, Note_on_c, 0, 51, 42
2, 340113, Note_on_c, 0, 43, 37
2, 340122, Control_c, 0, 64, 0
2, 340331, Control_c, 0, 64, 98
2, 340590, Note_off_c, 0, 63, 53
2, 340591, Note_off_c, 0, 51, 50
2, 340592, Note_off_c, 0, 58, 50
2, 340595, Note_off_c, 0, 46, 47
2, 340595, Note_off_c, 0, 43, 49
2, 340597, Note_on_c, 0, 60, 60
2, 340598, Note_on_c, 0, 48, 48
2, 340599, Note_on_c, 0, 44, 36
2, 340843, Control_c, 0, 64, 0
2, 340859, Note_off_c, 0, 60, 55
2, 340860, Note_off_c, 0, 48, 52
2, 340862, Note_off_c, 0, 44, 49
2, 341075, Control_c, 0, 64, 98
2, 341104, Note_on_c, 0, 68, 48
2, 341106, Note_on_c, 0, 56, 30
2, 341107, Note_on_c, 0, 48, 25
2, 341109, Note_on_c, 0, 53, 36
2, 341110, Note_on_c, 0, 41, 36
2, 341529, Note_off_c, 0, 68, 52
2, 341531, Note_off_c, 0, 56, 47
2, 341531, Note_off_c, 0, 53, 49
2, 341533, Note_off_c, 0, 41, 49
2, 341535, Note_on_c, 0, 67, 48
2, 341536, Note_on_c, 0, 58, 36
2, 341537, Note_on_c, 0, 52, 30
2, 341538, Note_on_c, 0, 43, 25
2, 342001, Note_off_c, 0, 67, 52
2, 342003, Note_off_c, 0, 52, 47
2, 342004, Note_off_c, 0, 58, 49
2, 342006, Note_off_c, 0, 43, 46
2, 342008, Note_on_c, 0, 65, 54
2, 342008, Note_on_c, 0, 60, 42
2, 342010, Note_on_c, 0, 44, 40
2, 342011, Note_on_c, 0, 53, 35
2, 342013, Control_c, 0, 64, 0
2, 342225, Control_c, 0, 64, 98
2, 342487, Note_off_c, 0, 65, 53
2, 342488, Note_off_c, 0, 48, 46
2, 342489, Note_off_c, 0, 60, 50
2, 342492, Note_off_c, 0, 44, 50
2, 342493, Note_on_c, 0, 46, 48
2, 342494, Note_on_c, 0, 62, 60
2, 342736, Note_off_c, 0, 62, 55
2, 342826, Note_off_c, 0, 53, 48
2, 342829, Note_off_c, 0, 46, 52
2, 342830, Control_c, 0, 64, 0
2, 342993, Note_on_c, 0, 74, 53
2, 342994, Note_on_c, 0, 70, 41
2, 342995, Note_on_c, 0, 58, 36
2, 343058, Control_c, 0, 64, 98
2, 343432, Note_off_c, 0, 74, 53
2, 343433, Note_off_c, 0, 58, 49
2, 343435, Note_off_c, 0, 70, 50
2, 343435, Note_on_c, 0, 75, 52
2, 343437, Note_on_c, 0, 69, 40
2, 343438, Note_on_c, 0, 60, 34
2, 343440, Control_c, 0, 64, 0
2, 343673, Control_c, 0, 64, 98
2, 343886, Note_off_c, 0, 75, 53
2, 343890, Note_off_c, 0, 60, 48
2, 343891, Note_off_c, 0, 69, 50
2, 343892, Note_on_c, 0, 77, 56
2, 343894, Note_on_c, 0, 68, 48
2, 343895, Note_on_c, 0, 62, 42
2, 343901, Control_c, 0, 64, 0
2, 344144, Control_c, 0, 64, 98
2, 344393, Note_off_c, 0, 77, 54
2, 344397, Note_off_c, 0, 62, 50
2, 344398, Note_off_c, 0, 68, 52
2, 344399, Note_on_c, 0, 79, 64
2, 344400, Note_on_c, 0, 67, 50
2, 344401, Note_on_c, 0, 63, 48
2, 344404, Control_c, 0, 64, 0
2, 344652, Control_c, 0, 64, 98
2, 344791, Note_off_c, 0, 79, 56
2, 344792, Note_off_c, 0, 67, 52
2, 344906, Note_off_c, 0, 63, 52
2, 344908, Note_on_c, 0, 70, 76
2, 344909, Note_on_c, 0, 82, 86
2, 344911, Note_on_c, 0, 65, 54
2, 344912, Note_on_c, 0, 62, 50
2, 344921, Control_c, 0, 64, 0
2, 345144, Control_c, 0, 64, 98
2, 345385, Note_off_c, 0, 65, 53
2, 345386, Note_off_c, 0, 62, 52
2, 345387, Note_on_c, 0, 63, 60
2, 345388, Note_on_c, 0, 60, 64
2, 345528, Note_off_c, 0, 82, 61
2, 345529, Note_on_c, 0, 84, 64
2, 345669, Note_off_c, 0, 84, 56
2, 345672, Note_on_c, 0, 82, 56
2, 345710, Note_off_c, 0, 70, 59
2, 345711, Note_off_c, 0, 63, 55
2, 345782, Note_off_c, 0, 82, 54
2, 345800, Note_off_c, 0, 60, 56
2, 345813, Control_c, 0, 64, 0
2, 345821, Note_on_c, 0, 70, 54
2, 345824, Note_on_c, 0, 82, 42
2, 345846, Note_on_c, 0, 63, 32
2, 345847, Note_on_c, 0, 53, 30
2, 345870, Note_off_c, 0, 70, 53
2, 345872, Note_off_c, 0, 82, 50
2, 345874, Note_on_c, 0, 81, 50
2, 345875, Note_on_c, 0, 69, 40
2, 346029, Note_off_c, 0, 81, 52
2, 346032, Note_off_c, 0, 69, 50
2, 346033, Note_on_c, 0, 79, 48
2, 346034, Note_on_c, 0, 67, 36
2, 346036, Control_c, 0, 64, 98
2, 346173, Note_off_c, 0, 79, 52
2, 346174, Note_off_c, 0, 67, 49
2, 346176, Note_on_c, 0, 81, 54
2, 346178, Note_on_c, 0, 69, 42
2, 346268, Note_off_c, 0, 81, 53
2, 346270, Note_off_c, 0, 69, 50
2, 346287, Note_off_c, 0, 63, 48
2, 346289, Note_off_c, 0, 53, 47
2, 346311, Note_on_c, 0, 62, 49
2, 346312, Note_on_c, 0, 58, 40
2, 346319, Note_on_c, 0, 82, 60
2, 346320, Note_on_c, 0, 70, 40
2, 346473, Control_c, 0, 64, 0
2, 346516, Note_off_c, 0, 62, 52
2, 346516, Note_off_c, 0, 58, 50
2, 346602, Note_off_c, 0, 82, 55
2, 346605, Note_off_c, 0, 70, 50
2, 346696, Control_c, 0, 64, 98
2, 346737, Note_on_c, 0, 58, 54
2, 346739, Note_on_c, 0, 67, 60
2, 346740, Note_on_c, 0, 51, 50
2, 346881, Note_on_c, 0, 79, 60
2, 346944, Note_off_c, 0, 79, 55
2, 347025, Note_on_c, 0, 79, 62
2, 347091, Note_off_c, 0, 79, 55
2, 347170, Note_off_c, 0, 67, 55
2, 347173, Note_on_c, 0, 68, 42
2, 347175, Note_on_c, 0, 79, 56
2, 347175, Note_on_c, 0, 62, 60
2, 347177, Note_on_c, 0, 53, 50
2, 347184, Note_off_c, 0, 51, 52
2, 347320, Note_on_c, 0, 77, 52
2, 347337, Note_off_c, 0, 79, 54
2, 347435, Note_off_c, 0, 77, 53
2, 347468, Note_on_c, 0, 77, 48
2, 347535, Note_off_c, 0, 77, 52
2, 347617, Note_off_c, 0, 68, 50
2, 347619, Note_off_c, 0, 53, 52
2, 347620, Note_off_c, 0, 62, 55
2, 347623, Note_on_c, 0, 63, 68
2, 347624, Note_on_c, 0, 55, 58
2, 347625, Note_on_c, 0, 70, 84
2, 347629, Control_c, 0, 64, 0
2, 347770, Note_on_c, 0, 75, 60
2, 347834, Control_c, 0, 64, 98
2, 347852, Note_off_c, 0, 75, 55
2, 347921, Note_on_c, 0, 75, 56
2, 347972, Note_off_c, 0, 70, 61
2, 348004, Note_off_c, 0, 75, 54
2, 348077, Note_off_c, 0, 63, 57
2, 348077, Note_off_c, 0, 58, 53
2, 348079, Note_off_c, 0, 55, 54
2, 348080, Note_on_c, 0, 74, 58
2, 348082, Note_on_c, 0, 60, 52
2, 348083, Note_on_c, 0, 56, 46
2, 348232, Note_on_c, 0, 72, 51
2, 348263, Note_off_c, 0, 74, 54
2, 348287, Control_c, 0, 64, 0
2, 348316, Note_off_c, 0, 60, 53
2, 348317, Note_off_c, 0, 56, 51
2, 348349, Note_off_c, 0, 72, 52
2, 348386, Note_on_c, 0, 72, 48
2, 348471, Note_off_c, 0, 72, 52
2, 348528, Control_c, 0, 64, 98
2, 348538, Note_on_c, 0, 60, 60
2, 348540, Note_on_c, 0, 68, 84
2, 348541, Note_on_c, 0, 53, 48
2, 348682, Note_on_c, 0, 80, 60
2, 348763, Note_off_c, 0, 80, 55
2, 348844, Note_on_c, 0, 80, 57
2, 348908, Note_off_c, 0, 80, 54
2, 348990, Note_off_c, 0, 68, 61
2, 348992, Note_off_c, 0, 53, 52
2, 348994, Note_on_c, 0, 70, 40
2, 348995, Note_on_c, 0, 80, 54
2, 348998, Note_on_c, 0, 64, 50
2, 348999, Note_on_c, 0, 52, 37
2, 349137, Note_on_c, 0, 79, 51
2, 349165, Note_off_c, 0, 80, 53
2, 349237, Note_off_c, 0, 79, 52
2, 349285, Note_on_c, 0, 79, 48
2, 349353, Note_off_c, 0, 79, 52
2, 349437, Note_off_c, 0, 64, 52
2, 349439, Note_off_c, 0, 52, 49
2, 349440, Note_off_c, 0, 70, 50
2, 349441, Note_on_c, 0, 65, 64
2, 349442, Note_on_c, 0, 72, 84
2, 349443, Note_on_c, 0, 56, 56
2, 349448, Control_c, 0, 64, 0
2, 349588, Note_on_c, 0, 77, 60
2, 349653, Note_off_c, 0, 77, 55
2, 349654, Control_c, 0, 64, 98
2, 349738, Note_on_c, 0, 77, 57
2, 349826, Note_off_c, 0, 77, 54
2, 349893, Note_off_c, 0, 72, 61
2, 349896, Note_off_c, 0, 56, 54
2, 349897, Note_off_c, 0, 60, 55
2, 349899, Note_on_c, 0, 58, 60
2, 349900, Note_on_c, 0, 75, 54
2, 349953, Control_c, 0, 64, 0
2, 350050, Note_on_c, 0, 74, 51
2, 350092, Note_off_c, 0, 75, 53
2, 350132, Note_off_c, 0, 58, 55
2, 350136, Note_off_c, 0, 65, 56
2, 350170, Note_off_c, 0, 74, 52
2, 350192, Control_c, 0, 64, 98
2, 350203, Note_on_c, 0, 74, 48
2, 350271, Note_off_c, 0, 74, 52
2, 350354, Note_on_c, 0, 82, 68
2, 350366, Note_on_c, 0, 74, 55
2, 350500, Note_on_c, 0, 70, 48
2, 350578, Note_off_c, 0, 70, 52
2, 350645, Note_on_c, 0, 70, 50
2, 350703, Control_c, 0, 64, 0
2, 350726, Note_off_c, 0, 70, 52
2, 350785, Note_off_c, 0, 74, 53
2, 350790, Note_on_c, 0, 84, 68
2, 350793, Note_on_c, 0, 70, 52
2, 350802, Note_on_c, 0, 75, 55
2, 350805, Note_off_c, 0, 82, 57
2, 350932, Control_c, 0, 64, 98
2, 350937, Note_off_c, 0, 70, 53
2, 350939, Note_on_c, 0, 68, 54
2, 351052, Note_off_c, 0, 68, 53
2, 351087, Note_on_c, 0, 68, 56
2, 351167, Note_off_c, 0, 68, 54
2, 351227, Note_off_c, 0, 75, 53
2, 351235, Note_off_c, 0, 84, 57
2, 351237, Note_on_c, 0, 86, 72
2, 351246, Note_on_c, 0, 77, 59
2, 351285, Control_c, 0, 64, 0
2, 351386, Note_on_c, 0, 68, 61
2, 351471, Note_off_c, 0, 68, 55
2, 351519, Control_c, 0, 64, 98
2, 351537, Note_on_c, 0, 68, 63
2, 351622, Note_off_c, 0, 68, 55
2, 351679, Note_off_c, 0, 77, 54
2, 351693, Note_off_c, 0, 86, 58
2, 351695, Note_on_c, 0, 87, 76
2, 351696, Note_on_c, 0, 68, 65
2, 351704, Note_on_c, 0, 79, 63
2, 351739, Control_c, 0, 64, 0
2, 351845, Note_off_c, 0, 68, 56
2, 351846, Note_on_c, 0, 67, 67
2, 351899, Note_off_c, 0, 79, 55
2, 351931, Note_off_c, 0, 87, 59
2, 351967, Note_off_c, 0, 67, 57
2, 351999, Note_on_c, 0, 67, 69
2, 352086, Note_off_c, 0, 67, 57
2, 352137, Control_c, 0, 64, 127
2, 352154, Note_on_c, 0, 58, 72
2, 352286, Note_on_c, 0, 87, 78
2, 352295, Note_on_c, 0, 75, 66
2, 352297, Note_on_c, 0, 67, 66
2, 352299, Note_on_c, 0, 70, 72
2, 352351, Note_off_c, 0, 87, 59
2, 352353, Note_off_c, 0, 67, 56
2, 352357, Note_off_c, 0, 70, 58
2, 352360, Note_off_c, 0, 75, 56
2, 352429, Note_on_c, 0, 87, 78
2, 352438, Note_off_c, 0, 58, 58
2, 352440, Note_on_c, 0, 70, 72
2, 352442, Note_on_c, 0, 75, 66
2, 352443, Note_on_c, 0, 67, 66
2, 352489, Note_off_c, 0, 70, 58
2, 352491, Note_off_c, 0, 67, 56
2, 352493, Note_off_c, 0, 87, 59
2, 352504, Note_off_c, 0, 75, 56
2, 352572, Note_on_c, 0, 87, 76
2, 352585, Note_on_c, 0, 75, 64
2, 352586, Note_on_c, 0, 46, 70
2, 352589, Control_c, 0, 64, 0
2, 352717, Note_on_c, 0, 86, 74
2, 352725, Note_off_c, 0, 75, 56
2, 352727, Note_on_c, 0, 68, 68
2, 352728, Note_on_c, 0, 74, 62
2, 352731, Note_on_c, 0, 65, 62
2, 352752, Note_off_c, 0, 87, 59
2, 352790, Control_c, 0, 64, 127
2, 352801, Note_off_c, 0, 68, 57
2, 352808, Note_off_c, 0, 65, 55
2, 352811, Note_off_c, 0, 86, 59
2, 352822, Note_off_c, 0, 74, 55
2, 352859, Note_on_c, 0, 86, 72
2, 352868, Note_off_c, 0, 46, 57
2, 352869, Note_on_c, 0, 68, 66
2, 352871, Note_on_c, 0, 74, 60
2, 352873, Note_on_c, 0, 65, 60
2, 352922, Note_off_c, 0, 86, 58
2, 352924, Note_off_c, 0, 65, 55
2, 352925, Note_off_c, 0, 68, 56
2, 352935, Note_off_c, 0, 74, 55
2, 353011, Note_on_c, 0, 58, 64
2, 353021, Control_c, 0, 64, 0
2, 353144, Note_on_c, 0, 84, 68
2, 353156, Note_on_c, 0, 67, 62
2, 353157, Note_on_c, 0, 72, 56
2, 353158, Note_on_c, 0, 63, 56
2, 353206, Note_off_c, 0, 63, 54
2, 353209, Note_off_c, 0, 84, 57
2, 353212, Note_off_c, 0, 67, 55
2, 353218, Note_off_c, 0, 72, 54
2, 353220, Control_c, 0, 64, 99
2, 353291, Note_on_c, 0, 84, 66
2, 353298, Note_off_c, 0, 58, 56
2, 353301, Note_on_c, 0, 67, 60
2, 353302, Note_on_c, 0, 63, 54
2, 353303, Note_on_c, 0, 72, 54
2, 353360, Note_off_c, 0, 67, 55
2, 353364, Note_off_c, 0, 63, 53
2, 353368, Note_off_c, 0, 84, 56
2, 353378, Note_off_c, 0, 72, 53
2, 353432, Note_on_c, 0, 84, 64
2, 353442, Note_on_c, 0, 72, 52
2, 353444, Note_on_c, 0, 46, 58
2, 353465, Control_c, 0, 64, 0
2, 353574, Note_off_c, 0, 84, 56
2, 353580, Note_on_c, 0, 82, 62
2, 353585, Note_off_c, 0, 72, 53
2, 353588, Note_on_c, 0, 65, 56
2, 353589, Note_on_c, 0, 70, 50
2, 353591, Note_on_c, 0, 62, 50
2, 353660, Control_c, 0, 64, 106
2, 353688, Note_off_c, 0, 82, 55
2, 353690, Note_off_c, 0, 62, 52
2, 353691, Note_off_c, 0, 65, 54
2, 353696, Note_off_c, 0, 70, 52
2, 353721, Note_on_c, 0, 82, 60
2, 353729, Note_off_c, 0, 46, 54
2, 353730, Note_on_c, 0, 70, 48
2, 353731, Note_on_c, 0, 65, 54
2, 353733, Note_on_c, 0, 62, 48
2, 353792, Note_off_c, 0, 65, 53
2, 353797, Note_off_c, 0, 82, 55
2, 353801, Note_off_c, 0, 62, 52
2, 353808, Note_off_c, 0, 70, 52
2, 353873, Note_on_c, 0, 58, 52
2, 353888, Control_c, 0, 64, 0
2, 354004, Note_on_c, 0, 80, 56
2, 354013, Note_on_c, 0, 68, 44
2, 354015, Note_on_c, 0, 60, 44
2, 354017, Note_on_c, 0, 63, 50
2, 354079, Control_c, 0, 64, 98
2, 354085, Note_off_c, 0, 80, 54
2, 354094, Note_off_c, 0, 68, 51
2, 354115, Note_off_c, 0, 60, 51
2, 354119, Note_off_c, 0, 63, 52
2, 354144, Note_off_c, 0, 58, 53
2, 354148, Note_on_c, 0, 80, 54
2, 354158, Note_on_c, 0, 63, 48
2, 354160, Note_on_c, 0, 60, 42
2, 354161, Note_on_c, 0, 68, 42
2, 354228, Note_off_c, 0, 80, 53
2, 354237, Note_off_c, 0, 68, 50
2, 354277, Note_off_c, 0, 60, 50
2, 354282, Note_off_c, 0, 63, 52
2, 354308, Note_on_c, 0, 80, 54
2, 354319, Note_on_c, 0, 68, 42
2, 354321, Note_on_c, 0, 46, 48
2, 354329, Control_c, 0, 64, 0
2, 354450, Note_off_c, 0, 80, 53
2, 354452, Note_on_c, 0, 79, 56
2, 354461, Note_off_c, 0, 68, 50
2, 354464, Note_on_c, 0, 67, 44
2, 354465, Note_on_c, 0, 62, 50
2, 354467, Note_on_c, 0, 58, 44
2, 354519, Control_c, 0, 64, 99
2, 354547, Note_off_c, 0, 79, 54
2, 354548, Note_off_c, 0, 62, 52
2, 354549, Note_off_c, 0, 58, 51
2, 354555, Note_off_c, 0, 67, 51
2, 354573, Note_off_c, 0, 46, 52
2, 354593, Note_on_c, 0, 79, 59
2, 354604, Note_on_c, 0, 62, 52
2, 354605, Note_on_c, 0, 67, 47
2, 354606, Note_on_c, 0, 58, 46
2, 354658, Note_off_c, 0, 79, 54
2, 354666, Note_off_c, 0, 67, 51
2, 354727, Note_off_c, 0, 58, 51
2, 354729, Note_off_c, 0, 62, 53
2, 354747, Note_on_c, 0, 46, 54
2, 354880, Note_on_c, 0, 77, 65
2, 354891, Note_on_c, 0, 65, 53
2, 354894, Note_on_c, 0, 60, 56
2, 354895, Note_on_c, 0, 56, 50
2, 354943, Note_off_c, 0, 77, 56
2, 354954, Note_off_c, 0, 65, 53
2, 354986, Note_off_c, 0, 60, 54
2, 354992, Note_off_c, 0, 56, 52
2, 355018, Note_off_c, 0, 46, 53
2, 355023, Note_on_c, 0, 77, 68
2, 355032, Note_on_c, 0, 65, 56
2, 355034, Note_on_c, 0, 60, 58
2, 355035, Note_on_c, 0, 56, 52
2, 355103, Note_off_c, 0, 77, 57
2, 355112, Note_off_c, 0, 65, 54
2, 355150, Note_off_c, 0, 60, 54
2, 355151, Note_off_c, 0, 56, 53
2, 355169, Note_on_c, 0, 77, 70
2, 355178, Note_on_c, 0, 65, 58
2, 355180, Note_on_c, 0, 46, 60
2, 355192, Control_c, 0, 64, 0
2, 355310, Note_off_c, 0, 77, 57
2, 355312, Note_on_c, 0, 75, 73
2, 355318, Note_off_c, 0, 65, 54
2, 355321, Note_on_c, 0, 58, 62
2, 355323, Note_on_c, 0, 63, 61
2, 355325, Note_on_c, 0, 55, 56
2, 355395, Control_c, 0, 64, 98
2, 355418, Note_off_c, 0, 55, 54
2, 355421, Note_off_c, 0, 75, 58
2, 355432, Note_off_c, 0, 63, 55
2, 355440, Note_off_c, 0, 58, 55
2, 355446, Note_off_c, 0, 46, 55
2, 355453, Note_on_c, 0, 75, 76
2, 355462, Note_on_c, 0, 63, 64
2, 355464, Note_on_c, 0, 55, 58
2, 355465, Note_on_c, 0, 58, 64
2, 355533, Note_off_c, 0, 75, 59
2, 355542, Note_off_c, 0, 63, 56
2, 355582, Note_off_c, 0, 55, 54
2, 355583, Note_off_c, 0, 58, 56
2, 355599, Note_on_c, 0, 75, 79
2, 355607, Note_on_c, 0, 63, 67
2, 355609, Note_on_c, 0, 46, 67
2, 355738, Note_off_c, 0, 75, 60
2, 355743, Note_on_c, 0, 74, 82
2, 355750, Note_off_c, 0, 63, 57
2, 355752, Note_on_c, 0, 53, 63
2, 355754, Note_on_c, 0, 62, 70
2, 355755, Note_on_c, 0, 56, 69
2, 355835, Note_off_c, 0, 53, 55
2, 355840, Note_off_c, 0, 56, 57
2, 355850, Note_off_c, 0, 74, 60
2, 355864, Note_off_c, 0, 62, 57
2, 355877, Note_off_c, 0, 46, 57
2, 355882, Note_on_c, 0, 74, 85
2, 355891, Note_on_c, 0, 56, 71
2, 355892, Note_on_c, 0, 62, 73
2, 355898, Note_on_c, 0, 53, 65
2, 355961, Note_off_c, 0, 74, 61
2, 355972, Note_off_c, 0, 62, 58
2, 356005, Note_off_c, 0, 53, 56
2, 356028, Note_off_c, 0, 56, 58
2, 356043, Note_on_c, 0, 74, 87
2, 356054, Note_on_c, 0, 62, 75
2, 356056, Note_on_c, 0, 46, 73
2, 356058, Control_c, 0, 64, 0
2, 356184, Note_off_c, 0, 74, 61
2, 356187, Note_on_c, 0, 72, 90
2, 356195, Note_off_c, 0, 62, 59
2, 356198, Note_on_c, 0, 55, 75
2, 356199, Note_on_c, 0, 60, 78
2, 356201, Note_on_c, 0, 51, 69
2, 356260, Control_c, 0, 64, 98
2, 356296, Note_off_c, 0, 72, 62
2, 356298, Note_off_c, 0, 55, 59
2, 356299, Note_off_c, 0, 51, 57
2, 356307, Note_off_c, 0, 60, 59
2, 356322, Note_off_c, 0, 46, 58
2, 356330, Note_on_c, 0, 72, 93
2, 356338, Note_on_c, 0, 60, 81
2, 356341, Note_on_c, 0, 51, 71
2, 356343, Note_on_c, 0, 55, 77
2, 356391, Note_off_c, 0, 72, 63
2, 356404, Note_off_c, 0, 60, 60
2, 356463, Note_off_c, 0, 55, 59
2, 356467, Note_off_c, 0, 51, 58
2, 356473, Note_on_c, 0, 72, 96
2, 356484, Note_on_c, 0, 60, 84
2, 356486, Note_on_c, 0, 46, 79
2, 356613, Note_off_c, 0, 72, 63
2, 356616, Note_on_c, 0, 70, 99
2, 356625, Note_off_c, 0, 60, 61
2, 356627, Note_on_c, 0, 53, 81
2, 356628, Note_on_c, 0, 58, 87
2, 356629, Note_on_c, 0, 50, 75
2, 356724, Note_off_c, 0, 53, 60
2, 356726, Note_off_c, 0, 70, 64
2, 356735, Note_off_c, 0, 50, 59
2, 356737, Note_off_c, 0, 58, 61
2, 356753, Note_off_c, 0, 46, 60
2, 356758, Note_on_c, 0, 70, 102
2, 356768, Note_on_c, 0, 53, 84
2, 356769, Note_on_c, 0, 58, 90
2, 356771, Note_on_c, 0, 50, 78
2, 356822, Note_off_c, 0, 70, 65
2, 356830, Note_off_c, 0, 58, 62
2, 356902, Note_off_c, 0, 53, 61
2, 356903, Note_on_c, 0, 70, 102
2, 356904, Note_off_c, 0, 50, 59
2, 356915, Note_on_c, 0, 47, 84
2, 356916, Note_on_c, 0, 58, 90
2, 356917, Note_on_c, 0, 41, 84
2, 356918, Note_on_c, 0, 35, 84
2, 356934, Control_c, 0, 64, 0
2, 356968, Note_off_c, 0, 47, 61
2, 356969, Note_off_c, 0, 41, 61
2, 356974, Note_off_c, 0, 35, 61
2, 357014, Note_off_c, 0, 70, 65
2, 357020, Note_off_c, 0, 58, 62
2, 357041, Note_on_c, 0, 68, 93
2, 357043, Note_on_c, 0, 65, 87
2, 357045, Note_on_c, 0, 62, 84
2, 357046, Note_on_c, 0, 56, 82
2, 357047, Note_on_c, 0, 47, 77
2, 357048, Note_on_c, 0, 35, 81
2, 357049, Note_on_c, 0, 41, 79
2, 357080, Note_off_c, 0, 68, 63
2, 357082, Note_off_c, 0, 65, 61
2, 357084, Note_off_c, 0, 62, 61
2, 357087, Note_off_c, 0, 56, 60
2, 357111, Note_off_c, 0, 35, 60
2, 357113, Note_off_c, 0, 41, 60
2, 357114, Note_off_c, 0, 47, 59
2, 357180, Note_on_c, 0, 68, 90
2, 357182, Note_on_c, 0, 65, 84
2, 357183, Note_on_c, 0, 56, 79
2, 357185, Note_on_c, 0, 62, 81
2, 357186, Note_on_c, 0, 41, 76
2, 357187, Note_on_c, 0, 47, 74
2, 357189, Note_on_c, 0, 35, 78
2, 357256, Note_off_c, 0, 41, 59
2, 357257, Note_off_c, 0, 47, 59
2, 357260, Note_off_c, 0, 35, 59
2, 357275, Note_off_c, 0, 56, 60
2, 357280, Note_off_c, 0, 65, 61
2, 357281, Note_off_c, 0, 68, 62
2, 357285, Note_off_c, 0, 62, 60
2, 357325, Note_on_c, 0, 68, 87
2, 357326, Note_on_c, 0, 65, 81
2, 357328, Note_on_c, 0, 62, 78
2, 357329, Note_on_c, 0, 41, 73
2, 357330, Note_on_c, 0, 56, 76
2, 357332, Note_on_c, 0, 47, 71
2, 357333, Note_on_c, 0, 35, 75
2, 357382, Note_off_c, 0, 41, 58
2, 357382, Note_off_c, 0, 35, 59
2, 357385, Note_off_c, 0, 47, 58
2, 357404, Note_off_c, 0, 68, 61
2, 357405, Note_off_c, 0, 62, 59
2, 357408, Note_off_c, 0, 65, 60
2, 357410, Note_off_c, 0, 56, 59
2, 357469, Note_on_c, 0, 65, 78
2, 357470, Note_on_c, 0, 68, 84
2, 357472, Note_on_c, 0, 62, 75
2, 357474, Note_on_c, 0, 56, 73
2, 357475, Note_on_c, 0, 47, 68
2, 357476, Note_on_c, 0, 35, 72
2, 357477, Note_on_c, 0, 41, 70
2, 357528, Note_off_c, 0, 47, 57
2, 357529, Note_off_c, 0, 35, 58
2, 357530, Note_off_c, 0, 41, 57
2, 357548, Note_off_c, 0, 65, 59
2, 357550, Note_off_c, 0, 62, 59
2, 357557, Note_off_c, 0, 56, 58
2, 357558, Note_off_c, 0, 68, 61
2, 357596, Note_on_c, 0, 65, 75
2, 357598, Note_on_c, 0, 56, 70
2, 357600, Note_on_c, 0, 62, 72
2, 357601, Note_on_c, 0, 47, 65
2, 357602, Note_on_c, 0, 68, 81
2, 357603, Note_on_c, 0, 35, 69
2, 357604, Note_on_c, 0, 41, 67
2, 357666, Note_off_c, 0, 35, 57
2, 357669, Note_off_c, 0, 47, 56
2, 357672, Note_off_c, 0, 41, 57
2, 357693, Note_off_c, 0, 65, 59
2, 357697, Note_off_c, 0, 62, 58
2, 357699, Note_off_c, 0, 56, 57
2, 357701, Note_off_c, 0, 68, 60
2, 357739, Note_on_c, 0, 68, 78
2, 357741, Note_on_c, 0, 62, 69
2, 357743, Note_on_c, 0, 47, 62
2, 357744, Note_on_c, 0, 65, 72
2, 357745, Note_on_c, 0, 56, 67
2, 357747, Note_on_c, 0, 35, 66
2, 357748, Note_on_c, 0, 41, 64
2, 357809, Note_off_c, 0, 35, 56
2, 357814, Note_off_c, 0, 47, 55
2, 357816, Note_off_c, 0, 41, 56
2, 357832, Note_off_c, 0, 68, 59
2, 357835, Note_off_c, 0, 65, 58
2, 357836, Note_off_c, 0, 62, 57
2, 357851, Note_off_c, 0, 56, 57
2, 357881, Note_on_c, 0, 65, 69
2, 357883, Note_on_c, 0, 68, 75
2, 357884, Note_on_c, 0, 62, 66
2, 357885, Note_on_c, 0, 56, 64
2, 357886, Note_on_c, 0, 35, 63
2, 357888, Note_on_c, 0, 41, 61
2, 357889, Note_on_c, 0, 47, 59
2, 357937, Note_off_c, 0, 47, 54
2, 357942, Note_off_c, 0, 41, 55
2, 357945, Note_off_c, 0, 35, 55
2, 357974, Note_off_c, 0, 62, 56
2, 357985, Note_off_c, 0, 56, 56
2, 357987, Note_off_c, 0, 68, 59
2, 357989, Note_off_c, 0, 65, 57
2, 358026, Note_on_c, 0, 65, 66
2, 358027, Note_on_c, 0, 62, 63
2, 358028, Note_on_c, 0, 68, 72
2, 358030, Note_on_c, 0, 56, 61
2, 358032, Note_on_c, 0, 47, 56
2, 358033, Note_on_c, 0, 35, 60
2, 358034, Note_on_c, 0, 41, 58
2, 358084, Note_off_c, 0, 47, 54
2, 358086, Note_off_c, 0, 41, 54
2, 358088, Note_off_c, 0, 35, 55
2, 358117, Note_off_c, 0, 65, 56
2, 358118, Note_off_c, 0, 62, 55
2, 358127, Note_off_c, 0, 68, 58
2, 358130, Note_off_c, 0, 56, 55
2, 358168, Note_on_c, 0, 65, 63
2, 358170, Note_on_c, 0, 68, 69
2, 358171, Note_on_c, 0, 56, 58
2, 358172, Note_on_c, 0, 62, 60
2, 358174, Note_on_c, 0, 47, 53
2, 358176, Note_on_c, 0, 35, 57
2, 358177, Note_on_c, 0, 41, 55
2, 358224, Note_off_c, 0, 41, 53
2, 358227, Note_off_c, 0, 35, 54
2, 358228, Note_off_c, 0, 47, 53
2, 358266, Note_off_c, 0, 68, 57
2, 358268, Note_off_c, 0, 65, 55
2, 358273, Note_off_c, 0, 62, 55
2, 358279, Note_off_c, 0, 56, 54
2, 358310, Note_on_c, 0, 68, 66
2, 358313, Note_on_c, 0, 62, 57
2, 358314, Note_on_c, 0, 65, 60
2, 358316, Note_on_c, 0, 56, 55
2, 358317, Note_on_c, 0, 47, 50
2, 358318, Note_on_c, 0, 41, 52
2, 358319, Note_on_c, 0, 35, 54
2, 358367, Note_off_c, 0, 47, 52
2, 358368, Note_off_c, 0, 41, 53
2, 358371, Note_off_c, 0, 35, 53
2, 358409, Note_off_c, 0, 65, 55
2, 358415, Note_off_c, 0, 68, 56
2, 358418, Note_off_c, 0, 56, 53
2, 358423, Note_off_c, 0, 62, 54
2, 358451, Note_on_c, 0, 68, 63
2, 358455, Note_on_c, 0, 65, 57
2, 358457, Note_on_c, 0, 62, 54
2, 358458, Note_on_c, 0, 47, 47
2, 358459, Note_on_c, 0, 41, 49
2, 358461, Note_on_c, 0, 56, 52
2, 358462, Note_on_c, 0, 35, 51
2, 358513, Note_off_c, 0, 41, 52
2, 358514, Note_off_c, 0, 35, 52
2, 358515, Note_off_c, 0, 47, 51
2, 358549, Note_off_c, 0, 68, 55
2, 358555, Note_off_c, 0, 62, 53
2, 358563, Note_off_c, 0, 65, 54
2, 358567, Note_off_c, 0, 56, 53
2, 358661, Note_on_c, 0, 69, 60
2, 358663, Note_on_c, 0, 60, 51
2, 358664, Note_on_c, 0, 65, 54
2, 358665, Note_on_c, 0, 41, 46
2, 358669, Note_on_c, 0, 36, 48
2, 358670, Note_on_c, 0, 57, 49
2, 358671, Note_on_c, 0, 48, 44
2, 358902, Note_off_c, 0, 69, 55
2, 358921, Note_off_c, 0, 48, 51
2, 358926, Note_off_c, 0, 57, 52
2, 358939, Note_off_c, 0, 60, 52
2, 358940, Note_off_c, 0, 65, 53
2, 358942, Note_off_c, 0, 36, 52
2, 358944, Note_off_c, 0, 41, 51
2, 359214, Note_on_c, 0, 60, 44
2, 359215, Note_on_c, 0, 57, 36
2, 359216, Note_on_c, 0, 65, 51
2, 359217, Note_on_c, 0, 48, 36
2, 359259, Control_c, 0, 64, 0
2, 359460, Control_c, 0, 64, 110
2, 359558, Note_off_c, 0, 57, 49
2, 359665, Note_off_c, 0, 65, 52
2, 359666, Note_on_c, 0, 64, 48
2, 359668, Note_on_c, 0, 58, 36
2, 359996, Note_off_c, 0, 58, 49
2, 360105, Note_off_c, 0, 64, 52
2, 360108, Note_on_c, 0, 70, 52
2, 360112, Note_on_c, 0, 52, 40
2, 360117, Control_c, 0, 64, 0
2, 360322, Control_c, 0, 64, 98
2, 360400, Note_off_c, 0, 48, 49
2, 360464, Note_off_c, 0, 52, 50
2, 360560, Note_off_c, 0, 70, 53
2, 360578, Note_on_c, 0, 69, 56
2, 360580, Note_on_c, 0, 53, 44
2, 360582, Note_on_c, 0, 48, 40
2, 360583, Control_c, 0, 64, 0
2, 360698, Note_off_c, 0, 60, 51
2, 360798, Control_c, 0, 64, 110
2, 360901, Note_off_c, 0, 53, 51
2, 360956, Note_off_c, 0, 69, 54
2, 361072, Note_on_c, 0, 72, 60
2, 361075, Note_on_c, 0, 60, 38
2, 361077, Note_on_c, 0, 65, 40
2, 361078, Note_on_c, 0, 57, 48
2, 361085, Control_c, 0, 64, 0
2, 361128, Note_off_c, 0, 48, 50
2, 361286, Control_c, 0, 64, 110
2, 361394, Note_off_c, 0, 57, 52
2, 361433, Note_off_c, 0, 65, 50
2, 361511, Note_on_c, 0, 64, 60
2, 361511, Note_on_c, 0, 58, 48
2, 361841, Note_off_c, 0, 64, 55
2, 361858, Note_off_c, 0, 58, 52
2, 361973, Note_on_c, 0, 52, 42
2, 361974, Note_on_c, 0, 70, 54
2, 361977, Control_c, 0, 64, 0
2, 362183, Control_c, 0, 64, 98
2, 362330, Note_off_c, 0, 52, 50
2, 362438, Note_off_c, 0, 60, 49
2, 362444, Note_off_c, 0, 70, 53
2, 362447, Note_on_c, 0, 69, 48
2, 362448, Note_on_c, 0, 53, 36
2, 362450, Note_on_c, 0, 48, 36
2, 362469, Control_c, 0, 64, 0
2, 362684, Control_c, 0, 64, 110
2, 362702, Note_off_c, 0, 72, 55
2, 362704, Note_off_c, 0, 69, 52
2, 362706, Note_off_c, 0, 53, 49
2, 362925, Note_on_c, 0, 83, 54
2, 362936, Note_on_c, 0, 71, 42
2, 362937, Note_on_c, 0, 53, 36
2, 363085, Note_on_c, 0, 84, 54
2, 363095, Note_off_c, 0, 71, 50
2, 363098, Note_on_c, 0, 72, 42
2, 363114, Note_off_c, 0, 83, 53
2, 363233, Note_on_c, 0, 86, 58
2, 363241, Note_off_c, 0, 72, 50
2, 363244, Note_on_c, 0, 74, 46
2, 363261, Note_off_c, 0, 84, 53
2, 363382, Note_on_c, 0, 84, 63
2, 363388, Note_off_c, 0, 74, 51
2, 363391, Note_on_c, 0, 72, 51
2, 363394, Note_off_c, 0, 86, 54
2, 363395, Note_on_c, 0, 52, 36
2, 363410, Note_off_c, 0, 53, 49
2, 363529, Note_on_c, 0, 82, 63
2, 363539, Note_off_c, 0, 72, 52
2, 363540, Note_on_c, 0, 70, 51
2, 363545, Note_off_c, 0, 84, 55
2, 363680, Note_off_c, 0, 82, 55
2, 363682, Note_on_c, 0, 81, 66
2, 363689, Note_off_c, 0, 70, 52
2, 363692, Note_on_c, 0, 69, 54
2, 363831, Note_on_c, 0, 79, 66
2, 363840, Note_off_c, 0, 69, 53
2, 363841, Note_off_c, 0, 81, 56
2, 363844, Note_off_c, 0, 52, 49
2, 363845, Note_on_c, 0, 67, 54
2, 363846, Note_on_c, 0, 58, 43
2, 363985, Note_on_c, 0, 77, 62
2, 363993, Note_off_c, 0, 79, 56
2, 363996, Note_off_c, 0, 67, 53
2, 363997, Note_on_c, 0, 65, 50
2, 364029, Note_off_c, 0, 48, 49
2, 364138, Note_on_c, 0, 76, 58
2, 364143, Note_off_c, 0, 77, 55
2, 364149, Note_off_c, 0, 65, 52
2, 364152, Note_on_c, 0, 64, 46
2, 364200, Note_off_c, 0, 58, 50
2, 364260, Note_off_c, 0, 76, 54
2, 364268, Note_off_c, 0, 64, 51
2, 364289, Note_on_c, 0, 77, 54
2, 364300, Note_on_c, 0, 65, 42
2, 364302, Note_on_c, 0, 48, 55
2, 364303, Note_on_c, 0, 57, 48
2, 364315, Control_c, 0, 64, 0
2, 364435, Note_off_c, 0, 77, 53
2, 364436, Note_on_c, 0, 79, 54
2, 364443, Note_off_c, 0, 65, 50
2, 364446, Note_on_c, 0, 67, 42
2, 364544, Control_c, 0, 64, 110
2, 364581, Note_on_c, 0, 81, 58
2, 364584, Note_off_c, 0, 79, 53
2, 364591, Note_off_c, 0, 67, 50
2, 364594, Note_on_c, 0, 69, 46
2, 364728, Note_on_c, 0, 83, 62
2, 364735, Note_off_c, 0, 57, 52
2, 364737, Note_off_c, 0, 69, 51
2, 364738, Note_on_c, 0, 71, 50
2, 364740, Note_on_c, 0, 53, 46
2, 364749, Note_off_c, 0, 81, 54
2, 364874, Note_on_c, 0, 84, 66
2, 364883, Note_off_c, 0, 71, 52
2, 364885, Note_on_c, 0, 72, 54
2, 364901, Note_off_c, 0, 83, 55
2, 365037, Note_off_c, 0, 84, 56
2, 365039, Note_on_c, 0, 86, 66
2, 365049, Note_off_c, 0, 72, 53
2, 365050, Note_on_c, 0, 74, 54
2, 365188, Note_on_c, 0, 84, 66
2, 365196, Note_off_c, 0, 53, 51
2, 365196, Note_off_c, 0, 74, 53
2, 365199, Note_on_c, 0, 72, 54
2, 365201, Note_on_c, 0, 52, 40
2, 365213, Note_off_c, 0, 86, 56
2, 365339, Note_on_c, 0, 82, 64
2, 365347, Note_off_c, 0, 72, 53
2, 365349, Note_on_c, 0, 70, 52
2, 365366, Note_off_c, 0, 84, 56
2, 365489, Note_on_c, 0, 81, 62
2, 365496, Note_off_c, 0, 70, 53
2, 365500, Note_on_c, 0, 69, 50
2, 365512, Note_off_c, 0, 82, 56
2, 365637, Note_off_c, 0, 81, 55
2, 365645, Note_on_c, 0, 79, 59
2, 365650, Note_off_c, 0, 52, 50
2, 365653, Note_off_c, 0, 69, 52
2, 365654, Note_on_c, 0, 67, 47
2, 365656, Note_on_c, 0, 58, 36
2, 365795, Note_on_c, 0, 77, 57
2, 365806, Note_off_c, 0, 67, 51
2, 365808, Note_on_c, 0, 65, 45
2, 365814, Note_off_c, 0, 79, 54
2, 365969, Note_on_c, 0, 76, 54
2, 365976, Note_off_c, 0, 65, 51
2, 365979, Note_on_c, 0, 64, 42
2, 366001, Note_off_c, 0, 77, 54
2, 366009, Note_off_c, 0, 58, 49
2, 366089, Note_off_c, 0, 76, 53
2, 366093, Note_off_c, 0, 64, 50
2, 366108, Note_on_c, 0, 77, 58
2, 366124, Note_off_c, 0, 48, 53
2, 366127, Note_on_c, 0, 65, 40
2, 366130, Note_on_c, 0, 57, 32
2, 366139, Note_on_c, 0, 53, 40
2, 366141, Control_c, 0, 64, 0
2, 366366, Control_c, 0, 64, 110
2, 366577, Note_off_c, 0, 53, 50
2, 366592, Note_on_c, 0, 51, 40
2, 366722, Note_on_c, 0, 79, 57
2, 366727, Note_off_c, 0, 77, 54
2, 366728, Note_off_c, 0, 57, 48
2, 366731, Note_off_c, 0, 65, 50
2, 366733, Note_on_c, 0, 58, 36
2, 366734, Note_on_c, 0, 67, 45
2, 366871, Note_off_c, 0, 79, 54
2, 366874, Note_on_c, 0, 81, 58
2, 366882, Note_off_c, 0, 67, 51
2, 366884, Note_on_c, 0, 69, 46
2, 366886, Note_on_c, 0, 60, 36
2, 366887, Note_off_c, 0, 58, 49
2, 366973, Control_c, 0, 64, 0
2, 366990, Note_off_c, 0, 81, 54
2, 366999, Note_off_c, 0, 51, 50
2, 367001, Note_off_c, 0, 69, 51
2, 367025, Note_off_c, 0, 60, 49
2, 367042, Note_on_c, 0, 82, 60
2, 367052, Note_on_c, 0, 70, 48
2, 367054, Note_on_c, 0, 58, 40
2, 367065, Note_on_c, 0, 50, 48
2, 367193, Control_c, 0, 64, 110
2, 367333, Note_off_c, 0, 82, 55
2, 367335, Note_on_c, 0, 80, 62
2, 367344, Note_off_c, 0, 70, 52
2, 367346, Note_on_c, 0, 68, 50
2, 367478, Note_off_c, 0, 80, 55
2, 367479, Note_on_c, 0, 79, 64
2, 367487, Note_off_c, 0, 68, 52
2, 367490, Note_off_c, 0, 50, 52
2, 367492, Note_on_c, 0, 63, 39
2, 367493, Note_on_c, 0, 67, 52
2, 367497, Control_c, 0, 64, 0
2, 367501, Note_on_c, 0, 51, 47
2, 367559, Note_off_c, 0, 79, 56
2, 367569, Note_off_c, 0, 67, 53
2, 367771, Note_on_c, 0, 80, 64
2, 367784, Note_on_c, 0, 68, 52
2, 367889, Note_off_c, 0, 80, 56
2, 367901, Note_off_c, 0, 68, 53
2, 367928, Note_off_c, 0, 58, 50
2, 367929, Note_on_c, 0, 79, 64
2, 367930, Note_off_c, 0, 51, 51
2, 367936, Note_off_c, 0, 63, 49
2, 367938, Note_on_c, 0, 67, 52
2, 367940, Note_on_c, 0, 59, 36
2, 367941, Note_on_c, 0, 55, 44
2, 367950, Note_on_c, 0, 47, 44
2, 367983, Control_c, 0, 64, 110
2, 368222, Note_off_c, 0, 79, 56
2, 368224, Note_on_c, 0, 77, 60
2, 368234, Note_off_c, 0, 67, 53
2, 368237, Note_on_c, 0, 65, 48
2, 368332, Note_off_c, 0, 47, 51
2, 368367, Note_off_c, 0, 77, 55
2, 368370, Note_on_c, 0, 75, 58
2, 368376, Note_off_c, 0, 59, 49
2, 368378, Note_off_c, 0, 65, 52
2, 368383, Note_on_c, 0, 60, 33
2, 368385, Note_on_c, 0, 63, 46
2, 368392, Note_on_c, 0, 48, 41
2, 368432, Note_off_c, 0, 75, 54
2, 368442, Note_off_c, 0, 63, 51
2, 368453, Control_c, 0, 64, 0
2, 368645, Note_on_c, 0, 79, 54
2, 368653, Note_on_c, 0, 67, 42
2, 368737, Note_off_c, 0, 48, 50
2, 368760, Note_off_c, 0, 79, 53
2, 368768, Note_off_c, 0, 67, 50
2, 368794, Note_on_c, 0, 77, 51
2, 368802, Note_off_c, 0, 55, 51
2, 368803, Note_off_c, 0, 60, 48
2, 368806, Note_on_c, 0, 56, 30
2, 368807, Note_on_c, 0, 65, 39
2, 368816, Control_c, 0, 64, 110
2, 368818, Note_on_c, 0, 44, 38
2, 368941, Note_off_c, 0, 77, 52
2, 368953, Note_off_c, 0, 65, 49
2, 369097, Note_on_c, 0, 75, 51
2, 369106, Note_on_c, 0, 63, 39
2, 369110, Note_off_c, 0, 44, 49
2, 369155, Note_off_c, 0, 56, 47
2, 369177, Note_off_c, 0, 75, 52
2, 369188, Note_off_c, 0, 63, 49
2, 369245, Note_on_c, 0, 74, 51
2, 369252, Control_c, 0, 64, 0
2, 369255, Note_on_c, 0, 62, 39
2, 369258, Note_on_c, 0, 58, 28
2, 369267, Note_on_c, 0, 46, 36
2, 369316, Note_off_c, 0, 74, 52
2, 369325, Note_off_c, 0, 62, 49
2, 369543, Control_c, 0, 64, 110
2, 369546, Note_off_c, 0, 46, 49
2, 369556, Note_on_c, 0, 77, 51
2, 369568, Note_on_c, 0, 65, 39
2, 369595, Note_off_c, 0, 58, 47
2, 369622, Note_off_c, 0, 77, 52
2, 369634, Note_off_c, 0, 65, 49
2, 369698, Note_on_c, 0, 63, 48
2, 369700, Note_on_c, 0, 75, 72
2, 369701, Note_on_c, 0, 39, 48
2, 369701, Note_on_c, 0, 51, 72
2, 369779, Note_off_c, 0, 63, 52
2, 369779, Note_off_c, 0, 75, 58
2, 369781, Note_off_c, 0, 39, 52
2, 369781, Note_off_c, 0, 51, 58
2, 369792, Control_c, 0, 64, 0
2, 369841, Note_on_c, 0, 75, 48
2, 369843, Note_on_c, 0, 51, 48
2, 369921, Note_off_c, 0, 75, 52
2, 369923, Note_off_c, 0, 51, 52
2, 369985, Note_on_c, 0, 75, 49
2, 369987, Note_on_c, 0, 51, 48
2, 370063, Note_off_c, 0, 51, 52
2, 370065, Note_off_c, 0, 75, 52
2, 370125, Note_on_c, 0, 75, 50
2, 370129, Note_on_c, 0, 51, 49
2, 370273, Note_off_c, 0, 51, 52
2, 370275, Note_on_c, 0, 50, 49
2, 370276, Note_on_c, 0, 74, 51
2, 370291, Note_off_c, 0, 75, 52
2, 370414, Note_on_c, 0, 51, 50
2, 370417, Note_on_c, 0, 75, 52
2, 370431, Note_off_c, 0, 74, 52
2, 370432, Note_off_c, 0, 50, 52
2, 370524, Note_off_c, 0, 51, 52
2, 370527, Note_off_c, 0, 75, 53
2, 370556, Note_on_c, 0, 79, 77
2, 370558, Note_on_c, 0, 55, 74
2, 370560, Note_on_c, 0, 67, 53
2, 370561, Note_on_c, 0, 43, 50
2, 370636, Note_off_c, 0, 79, 59
2, 370638, Note_off_c, 0, 67, 53
2, 370639, Note_off_c, 0, 43, 52
2, 370640, Note_off_c, 0, 55, 59
2, 370700, Note_on_c, 0, 79, 54
2, 370703, Note_on_c, 0, 55, 51
2, 370778, Note_off_c, 0, 79, 53
2, 370783, Note_off_c, 0, 55, 52
2, 370842, Note_on_c, 0, 79, 55
2, 370845, Note_on_c, 0, 55, 52
2, 370923, Note_off_c, 0, 79, 53
2, 370925, Note_off_c, 0, 55, 53
2, 370989, Note_on_c, 0, 79, 56
2, 370990, Note_on_c, 0, 55, 52
2, 371131, Note_on_c, 0, 78, 57
2, 371135, Note_on_c, 0, 54, 53
2, 371141, Note_off_c, 0, 55, 53
2, 371143, Note_off_c, 0, 79, 54
2, 371275, Note_on_c, 0, 79, 58
2, 371278, Note_on_c, 0, 55, 53
2, 371291, Note_off_c, 0, 78, 54
2, 371292, Note_off_c, 0, 54, 53
2, 371385, Note_off_c, 0, 79, 54
2, 371387, Note_off_c, 0, 55, 53
2, 371432, Note_on_c, 0, 70, 60
2, 371434, Note_on_c, 0, 82, 84
2, 371436, Note_on_c, 0, 58, 78
2, 371437, Note_on_c, 0, 46, 54
2, 371495, Note_off_c, 0, 70, 55
2, 371497, Note_off_c, 0, 58, 59
2, 371498, Note_off_c, 0, 82, 61
2, 371499, Note_off_c, 0, 46, 53
2, 371560, Note_on_c, 0, 82, 61
2, 371562, Note_on_c, 0, 58, 54
2, 371641, Note_off_c, 0, 58, 53
2, 371642, Note_off_c, 0, 82, 55
2, 371702, Note_on_c, 0, 82, 62
2, 371704, Note_on_c, 0, 58, 55
2, 371782, Note_off_c, 0, 82, 55
2, 371784, Note_off_c, 0, 58, 53
2, 371846, Note_on_c, 0, 82, 63
2, 371848, Note_on_c, 0, 58, 56
2, 371993, Note_on_c, 0, 57, 56
2, 371994, Note_on_c, 0, 81, 64
2, 372002, Note_off_c, 0, 58, 54
2, 372014, Note_off_c, 0, 82, 55
2, 372134, Note_on_c, 0, 82, 65
2, 372137, Note_on_c, 0, 58, 57
2, 372152, Note_off_c, 0, 81, 56
2, 372157, Note_off_c, 0, 57, 54
2, 372229, Note_off_c, 0, 82, 56
2, 372230, Note_off_c, 0, 58, 54
2, 372275, Note_on_c, 0, 75, 66
2, 372277, Note_on_c, 0, 87, 90
2, 372279, Note_on_c, 0, 63, 81
2, 372281, Note_on_c, 0, 51, 57
2, 372338, Note_off_c, 0, 75, 56
2, 372340, Note_off_c, 0, 87, 62
2, 372342, Note_off_c, 0, 51, 54
2, 372344, Note_off_c, 0, 63, 60
2, 372420, Note_on_c, 0, 87, 67
2, 372421, Note_on_c, 0, 63, 58
2, 372482, Note_off_c, 0, 87, 57
2, 372484, Note_off_c, 0, 63, 54
2, 372562, Note_on_c, 0, 87, 68
2, 372563, Note_on_c, 0, 63, 58
2, 372626, Note_off_c, 0, 87, 57
2, 372627, Note_off_c, 0, 63, 54
2, 372706, Note_on_c, 0, 87, 69
2, 372708, Note_on_c, 0, 63, 59
2, 372831, Note_on_c, 0, 86, 70
2, 372837, Note_on_c, 0, 62, 60
2, 372840, Note_off_c, 0, 87, 57
2, 372846, Note_off_c, 0, 63, 54
2, 372977, Note_on_c, 0, 87, 66
2, 372978, Note_on_c, 0, 63, 54
2, 372980, Note_off_c, 0, 62, 55
2, 372996, Note_off_c, 0, 86, 57
2, 373088, Note_off_c, 0, 87, 56
2, 373088, Note_off_c, 0, 63, 53
2, 373173, Note_on_c, 0, 48, 48
2, 373176, Note_on_c, 0, 51, 53
2, 373184, Note_on_c, 0, 63, 60
2, 373199, Control_c, 0, 64, 127
2, 373264, Note_on_c, 0, 65, 60
2, 373280, Note_off_c, 0, 63, 55
2, 373329, Note_on_c, 0, 63, 61
2, 373350, Note_off_c, 0, 65, 55
2, 373392, Note_on_c, 0, 62, 63
2, 373415, Note_off_c, 0, 63, 55
2, 373471, Note_on_c, 0, 63, 65
2, 373486, Note_off_c, 0, 62, 55
2, 373537, Note_on_c, 0, 62, 66
2, 373548, Note_off_c, 0, 63, 56
2, 373610, Note_on_c, 0, 63, 68
2, 373648, Note_off_c, 0, 62, 56
2, 373677, Note_on_c, 0, 64, 70
2, 373696, Note_off_c, 0, 63, 57
2, 373757, Note_on_c, 0, 65, 72
2, 373795, Note_off_c, 0, 64, 57
2, 373800, Note_off_c, 0, 51, 53
2, 373834, Note_on_c, 0, 66, 73
2, 373856, Note_off_c, 0, 65, 58
2, 373898, Note_on_c, 0, 67, 75
2, 373909, Note_off_c, 0, 48, 52
2, 373930, Note_off_c, 0, 66, 58
2, 373978, Note_on_c, 0, 68, 77
2, 374007, Note_off_c, 0, 67, 59
2, 374046, Note_on_c, 0, 69, 78
2, 374049, Note_on_c, 0, 51, 65
2, 374050, Note_on_c, 0, 47, 54
2, 374051, Note_on_c, 0, 54, 60
2, 374055, Note_on_c, 0, 57, 62
2, 374073, Note_off_c, 0, 68, 59
2, 374077, Control_c, 0, 64, 0
2, 374092, Note_on_c, 0, 70, 79
2, 374105, Note_off_c, 0, 69, 59
2, 374127, Note_on_c, 0, 71, 80
2, 374139, Note_off_c, 0, 70, 60
2, 374173, Note_on_c, 0, 72, 81
2, 374196, Note_off_c, 0, 71, 60
2, 374225, Note_on_c, 0, 73, 82
2, 374237, Note_off_c, 0, 72, 60
2, 374247, Note_on_c, 0, 74, 83
2, 374270, Note_off_c, 0, 73, 60
2, 374272, Control_c, 0, 64, 127
2, 374299, Note_on_c, 0, 75, 84
2, 374320, Note_off_c, 0, 74, 60
2, 374350, Note_on_c, 0, 76, 85
2, 374365, Note_off_c, 0, 75, 61
2, 374413, Note_on_c, 0, 77, 87
2, 374438, Note_off_c, 0, 76, 61
2, 374489, Note_on_c, 0, 78, 89
2, 374543, Note_off_c, 0, 77, 61
2, 374555, Note_on_c, 0, 79, 90
2, 374574, Note_off_c, 0, 78, 62
2, 374616, Note_off_c, 0, 54, 55
2, 374629, Note_on_c, 0, 80, 92
2, 374637, Note_off_c, 0, 57, 55
2, 374645, Note_off_c, 0, 79, 62
2, 374646, Note_off_c, 0, 51, 56
2, 374672, Note_off_c, 0, 47, 53
2, 374699, Note_on_c, 0, 81, 94
2, 374718, Note_off_c, 0, 80, 62
2, 374775, Note_on_c, 0, 82, 96
2, 374778, Note_on_c, 0, 55, 76
2, 374779, Note_on_c, 0, 58, 80
2, 374787, Control_c, 0, 64, 0
2, 374789, Note_off_c, 0, 81, 63
2, 374880, Note_off_c, 0, 58, 60
2, 374898, Note_off_c, 0, 55, 59
2, 374919, Note_on_c, 0, 58, 84
2, 374983, Control_c, 0, 64, 127
2, 375029, Note_off_c, 0, 58, 61
2, 375064, Note_off_c, 0, 82, 63
2, 375065, Note_on_c, 0, 58, 82
2, 375221, Note_off_c, 0, 58, 60
2, 375223, Note_on_c, 0, 79, 92
2, 375225, Note_on_c, 0, 75, 72
2, 375226, Note_on_c, 0, 67, 80
2, 375235, Control_c, 0, 64, 0
2, 375364, Note_on_c, 0, 58, 76
2, 375410, Control_c, 0, 64, 127
2, 375475, Note_off_c, 0, 58, 59
2, 375507, Note_off_c, 0, 79, 62
2, 375509, Note_off_c, 0, 75, 58
2, 375511, Note_off_c, 0, 67, 60
2, 375512, Note_on_c, 0, 58, 74
2, 375668, Note_off_c, 0, 58, 59
2, 375669, Note_on_c, 0, 80, 80
2, 375672, Note_on_c, 0, 77, 61
2, 375673, Note_on_c, 0, 68, 56
2, 375692, Control_c, 0, 64, 0
2, 375824, Note_on_c, 0, 46, 68
2, 375894, Control_c, 0, 64, 95
2, 375936, Note_off_c, 0, 46, 57
2, 375969, Note_off_c, 0, 77, 55
2, 375970, Note_off_c, 0, 80, 60
2, 375972, Note_off_c, 0, 68, 54
2, 375974, Note_on_c, 0, 46, 66
2, 376130, Note_off_c, 0, 46, 56
2, 376131, Note_on_c, 0, 74, 72
2, 376133, Note_on_c, 0, 68, 60
2, 376134, Note_on_c, 0, 65, 55
2, 376139, Control_c, 0, 64, 0
2, 376288, Note_on_c, 0, 46, 58
2, 376338, Control_c, 0, 64, 95
2, 376401, Note_off_c, 0, 46, 54
2, 376432, Note_off_c, 0, 68, 55
2, 376432, Note_off_c, 0, 74, 58
2, 376434, Note_off_c, 0, 65, 53
2, 376435, Note_on_c, 0, 46, 60
2, 376590, Note_off_c, 0, 46, 55
2, 376652, Note_on_c, 0, 51, 88
2, 376653, Note_on_c, 0, 39, 80
2, 376686, Control_c, 0, 64, 0
2, 376730, Note_off_c, 0, 51, 62
2, 376731, Note_off_c, 0, 39, 60
2, 376732, Note_on_c, 0, 63, 74
2, 376795, Note_off_c, 0, 63, 59
2, 376796, Note_on_c, 0, 51, 74
2, 376797, Note_on_c, 0, 39, 62
2, 376873, Note_off_c, 0, 51, 59
2, 376874, Note_off_c, 0, 39, 55
2, 376876, Note_on_c, 0, 63, 75
2, 376936, Note_off_c, 0, 63, 59
2, 376938, Note_on_c, 0, 51, 75
2, 376939, Note_on_c, 0, 39, 68
2, 377019, Note_off_c, 0, 51, 59
2, 377020, Note_off_c, 0, 39, 57
2, 377021, Note_on_c, 0, 63, 76
2, 377079, Note_off_c, 0, 63, 59
2, 377081, Note_on_c, 0, 51, 70
2, 377082, Note_on_c, 0, 39, 82
2, 377159, Note_off_c, 0, 51, 57
2, 377161, Note_on_c, 0, 63, 77
2, 377222, Note_off_c, 0, 63, 59
2, 377224, Note_off_c, 0, 39, 60
2, 377226, Note_on_c, 0, 50, 68
2, 377226, Note_on_c, 0, 38, 84
2, 377303, Note_off_c, 0, 50, 57
2, 377303, Note_on_c, 0, 62, 80
2, 377367, Note_off_c, 0, 38, 61
2, 377369, Note_off_c, 0, 62, 60
2, 377370, Note_on_c, 0, 51, 70
2, 377372, Note_on_c, 0, 39, 85
2, 377444, Note_off_c, 0, 51, 57
2, 377447, Note_on_c, 0, 63, 66
2, 377480, Note_off_c, 0, 39, 61
2, 377509, Note_off_c, 0, 63, 56
2, 377511, Note_on_c, 0, 55, 68
2, 377512, Note_on_c, 0, 31, 86
2, 377590, Note_off_c, 0, 55, 57
2, 377591, Note_off_c, 0, 31, 61
2, 377592, Note_on_c, 0, 67, 80
2, 377653, Note_off_c, 0, 67, 60
2, 377655, Note_on_c, 0, 55, 81
2, 377657, Note_on_c, 0, 43, 72
2, 377734, Note_off_c, 0, 55, 60
2, 377735, Note_off_c, 0, 43, 58
2, 377736, Note_on_c, 0, 67, 81
2, 377795, Note_off_c, 0, 67, 60
2, 377797, Note_on_c, 0, 55, 82
2, 377799, Note_on_c, 0, 43, 76
2, 377875, Note_off_c, 0, 55, 60
2, 377877, Note_off_c, 0, 43, 59
2, 377878, Note_on_c, 0, 67, 82
2, 377939, Note_off_c, 0, 67, 60
2, 377941, Note_on_c, 0, 55, 67
2, 377942, Note_on_c, 0, 43, 83
2, 378018, Note_off_c, 0, 55, 57
2, 378021, Note_on_c, 0, 67, 83
2, 378083, Note_off_c, 0, 43, 60
2, 378084, Note_off_c, 0, 67, 60
2, 378087, Note_on_c, 0, 54, 64
2, 378088, Note_on_c, 0, 42, 84
2, 378163, Note_off_c, 0, 54, 56
2, 378163, Note_on_c, 0, 66, 84
2, 378240, Note_off_c, 0, 66, 61
2, 378242, Note_off_c, 0, 42, 61
2, 378244, Note_on_c, 0, 55, 70
2, 378245, Note_on_c, 0, 43, 86
2, 378307, Note_off_c, 0, 55, 57
2, 378308, Note_on_c, 0, 67, 83
2, 378338, Note_off_c, 0, 43, 61
2, 378386, Note_off_c, 0, 67, 60
2, 378387, Note_on_c, 0, 58, 80
2, 378390, Note_on_c, 0, 34, 89
2, 378447, Note_off_c, 0, 58, 60
2, 378452, Note_off_c, 0, 34, 62
2, 378453, Note_on_c, 0, 70, 86
2, 378528, Note_off_c, 0, 70, 61
2, 378530, Note_on_c, 0, 58, 72
2, 378531, Note_on_c, 0, 46, 82
2, 378593, Note_off_c, 0, 58, 58
2, 378594, Note_off_c, 0, 46, 60
2, 378595, Note_on_c, 0, 70, 85
2, 378671, Note_off_c, 0, 70, 61
2, 378673, Note_on_c, 0, 58, 84
2, 378674, Note_on_c, 0, 46, 78
2, 378736, Note_off_c, 0, 58, 61
2, 378736, Note_off_c, 0, 46, 59
2, 378738, Note_on_c, 0, 70, 84
2, 378797, Note_off_c, 0, 70, 61
2, 378802, Note_on_c, 0, 46, 81
2, 378803, Note_on_c, 0, 58, 68
2, 378878, Note_off_c, 0, 58, 57
2, 378880, Note_on_c, 0, 70, 83
2, 378959, Note_off_c, 0, 46, 60
2, 378961, Note_off_c, 0, 70, 60
2, 378962, Note_on_c, 0, 45, 77
2, 378963, Note_on_c, 0, 57, 67
2, 379021, Note_off_c, 0, 57, 57
2, 379023, Note_on_c, 0, 69, 82
2, 379101, Note_off_c, 0, 45, 59
2, 379103, Note_off_c, 0, 69, 60
2, 379103, Note_on_c, 0, 46, 88
2, 379105, Note_on_c, 0, 58, 47
2, 379165, Note_off_c, 0, 58, 51
2, 379166, Note_on_c, 0, 70, 75
2, 379213, Note_off_c, 0, 46, 62
2, 379244, Note_off_c, 0, 70, 59
2, 379246, Note_on_c, 0, 63, 80
2, 379247, Note_on_c, 0, 39, 85
2, 379308, Note_off_c, 0, 63, 60
2, 379309, Note_off_c, 0, 39, 61
2, 379311, Note_on_c, 0, 75, 80
2, 379391, Note_off_c, 0, 75, 60
2, 379391, Note_on_c, 0, 63, 79
2, 379392, Note_on_c, 0, 51, 58
2, 379451, Note_off_c, 0, 63, 60
2, 379453, Note_off_c, 0, 51, 54
2, 379455, Note_on_c, 0, 75, 79
2, 379531, Note_off_c, 0, 75, 60
2, 379532, Note_on_c, 0, 63, 78
2, 379534, Note_on_c, 0, 51, 54
2, 379595, Note_off_c, 0, 63, 59
2, 379597, Note_off_c, 0, 51, 53
2, 379597, Note_on_c, 0, 75, 78
2, 379673, Note_off_c, 0, 75, 59
2, 379674, Note_on_c, 0, 63, 62
2, 379677, Note_on_c, 0, 51, 80
2, 379739, Note_off_c, 0, 63, 55
2, 379741, Note_on_c, 0, 75, 77
2, 379816, Note_off_c, 0, 75, 59
2, 379818, Note_off_c, 0, 51, 60
2, 379820, Note_on_c, 0, 62, 61
2, 379821, Note_on_c, 0, 50, 76
2, 379881, Note_off_c, 0, 62, 55
2, 379883, Note_on_c, 0, 74, 76
2, 379961, Note_off_c, 0, 50, 59
2, 379963, Note_off_c, 0, 74, 59
2, 379964, Note_on_c, 0, 63, 60
2, 379965, Note_on_c, 0, 51, 72
2, 380038, Note_off_c, 0, 63, 55
2, 380041, Note_on_c, 0, 75, 74
2, 380074, Note_off_c, 0, 51, 58
2, 380104, Note_off_c, 0, 75, 59
2, 380160, Note_on_c, 0, 36, 37
2, 380165, Note_on_c, 0, 48, 48
2, 380166, Note_on_c, 0, 51, 60
2, 380172, Note_on_c, 0, 39, 40
2, 380196, Control_c, 0, 64, 96
2, 380244, Note_off_c, 0, 51, 55
2, 380245, Note_on_c, 0, 53, 60
2, 380306, Note_off_c, 0, 53, 55
2, 380309, Note_on_c, 0, 51, 60
2, 380371, Note_off_c, 0, 51, 55
2, 380372, Note_on_c, 0, 50, 61
2, 380448, Note_off_c, 0, 50, 55
2, 380451, Note_on_c, 0, 51, 62
2, 380513, Note_off_c, 0, 51, 55
2, 380514, Note_on_c, 0, 50, 63
2, 380592, Note_on_c, 0, 51, 63
2, 380605, Note_off_c, 0, 50, 55
2, 380659, Note_on_c, 0, 52, 64
2, 380666, Note_off_c, 0, 51, 55
2, 380735, Note_on_c, 0, 53, 65
2, 380753, Note_off_c, 0, 52, 56
2, 380817, Note_on_c, 0, 54, 66
2, 380830, Note_off_c, 0, 53, 56
2, 380862, Note_off_c, 0, 36, 49
2, 380877, Note_on_c, 0, 55, 67
2, 380888, Note_off_c, 0, 54, 56
2, 380904, Note_off_c, 0, 48, 52
2, 380919, Note_off_c, 0, 39, 50
2, 380963, Note_on_c, 0, 56, 67
2, 380970, Note_off_c, 0, 55, 57
2, 381017, Note_off_c, 0, 56, 57
2, 381019, Note_on_c, 0, 47, 49
2, 381021, Note_on_c, 0, 39, 52
2, 381022, Note_on_c, 0, 57, 68
2, 381026, Note_on_c, 0, 35, 40
2, 381036, Control_c, 0, 64, 0
2, 381102, Note_on_c, 0, 58, 69
2, 381114, Note_off_c, 0, 57, 57
2, 381170, Note_on_c, 0, 59, 70
2, 381180, Note_off_c, 0, 58, 57
2, 381245, Control_c, 0, 64, 105
2, 381248, Note_on_c, 0, 60, 70
2, 381260, Note_off_c, 0, 59, 57
2, 381308, Note_on_c, 0, 61, 71
2, 381322, Note_off_c, 0, 60, 57
2, 381387, Note_on_c, 0, 62, 72
2, 381408, Note_off_c, 0, 61, 58
2, 381453, Note_on_c, 0, 63, 73
2, 381459, Note_off_c, 0, 62, 58
2, 381538, Note_on_c, 0, 64, 74
2, 381549, Note_off_c, 0, 63, 58
2, 381602, Note_on_c, 0, 65, 74
2, 381615, Note_off_c, 0, 64, 59
2, 381680, Note_on_c, 0, 66, 75
2, 381696, Note_off_c, 0, 65, 59
2, 381701, Note_off_c, 0, 35, 50
2, 381713, Note_off_c, 0, 47, 52
2, 381739, Note_off_c, 0, 39, 53
2, 381754, Note_on_c, 0, 67, 76
2, 381769, Note_off_c, 0, 66, 59
2, 381819, Note_on_c, 0, 68, 77
2, 381832, Note_off_c, 0, 67, 59
2, 381900, Note_on_c, 0, 39, 45
2, 381903, Note_on_c, 0, 34, 40
2, 381905, Note_on_c, 0, 69, 78
2, 381906, Note_on_c, 0, 46, 60
2, 381912, Note_off_c, 0, 68, 59
2, 381919, Control_c, 0, 64, 0
2, 381964, Note_on_c, 0, 70, 78
2, 381975, Note_off_c, 0, 69, 59
2, 382046, Note_on_c, 0, 71, 79
2, 382063, Note_off_c, 0, 70, 59
2, 382109, Note_on_c, 0, 72, 80
2, 382113, Control_c, 0, 64, 98
2, 382121, Note_off_c, 0, 71, 60
2, 382185, Note_on_c, 0, 73, 81
2, 382207, Note_off_c, 0, 72, 60
2, 382246, Note_on_c, 0, 74, 81
2, 382261, Note_off_c, 0, 73, 60
2, 382329, Note_on_c, 0, 75, 82
2, 382339, Note_off_c, 0, 74, 60
2, 382390, Note_on_c, 0, 76, 83
2, 382407, Note_off_c, 0, 75, 60
2, 382474, Note_on_c, 0, 77, 84
2, 382489, Note_off_c, 0, 76, 60
2, 382509, Note_off_c, 0, 39, 51
2, 382536, Note_off_c, 0, 77, 61
2, 382537, Note_on_c, 0, 78, 85
2, 382595, Note_off_c, 0, 34, 50
2, 382613, Note_off_c, 0, 46, 55
2, 382616, Note_off_c, 0, 78, 61
2, 382617, Note_on_c, 0, 77, 75
2, 382677, Note_off_c, 0, 77, 59
2, 382680, Note_on_c, 0, 78, 76
2, 382742, Note_off_c, 0, 78, 59
2, 382755, Note_on_c, 0, 39, 60
2, 382757, Note_on_c, 0, 33, 51
2, 382759, Note_on_c, 0, 45, 72
2, 382761, Note_on_c, 0, 77, 70
2, 382777, Control_c, 0, 64, 0
2, 382823, Note_off_c, 0, 77, 57
2, 382824, Note_on_c, 0, 78, 78
2, 382901, Note_off_c, 0, 78, 59
2, 382902, Note_on_c, 0, 77, 78
2, 382964, Note_off_c, 0, 77, 59
2, 382965, Note_on_c, 0, 78, 79
2, 382976, Control_c, 0, 64, 96
2, 383043, Note_off_c, 0, 78, 60
2, 383046, Note_on_c, 0, 77, 80
2, 383108, Note_off_c, 0, 77, 60
2, 383109, Note_on_c, 0, 78, 81
2, 383187, Note_off_c, 0, 78, 60
2, 383189, Note_on_c, 0, 77, 82
2, 383252, Note_off_c, 0, 77, 60
2, 383253, Note_on_c, 0, 78, 82
2, 383331, Note_off_c, 0, 78, 60
2, 383331, Note_on_c, 0, 77, 83
2, 383397, Note_off_c, 0, 77, 60
2, 383398, Note_on_c, 0, 78, 84
2, 383433, Note_off_c, 0, 33, 52
2, 383468, Note_off_c, 0, 45, 58
2, 383473, Note_off_c, 0, 78, 61
2, 383476, Note_off_c, 0, 39, 55
2, 383476, Note_on_c, 0, 77, 85
2, 383553, Note_off_c, 0, 77, 61
2, 383554, Note_on_c, 0, 78, 96
2, 383619, Note_off_c, 0, 78, 63
2, 383621, Note_on_c, 0, 79, 86
2, 383623, Note_on_c, 0, 39, 65
2, 383624, Note_on_c, 0, 46, 72
2, 383626, Note_on_c, 0, 34, 58
2, 383665, Note_off_c, 0, 79, 61
2, 383667, Note_on_c, 0, 80, 86
2, 383668, Control_c, 0, 64, 0
2, 383712, Note_off_c, 0, 80, 61
2, 383714, Note_on_c, 0, 79, 85
2, 383760, Note_off_c, 0, 79, 61
2, 383762, Note_on_c, 0, 77, 84
2, 383842, Note_off_c, 0, 34, 54
2, 383845, Note_off_c, 0, 46, 58
2, 383858, Note_off_c, 0, 39, 56
2, 383868, Control_c, 0, 64, 96
2, 383872, Note_off_c, 0, 77, 61
2, 383905, Note_on_c, 0, 75, 92
2, 383985, Note_off_c, 0, 75, 62
2, 384045, Note_on_c, 0, 75, 90
2, 384048, Note_on_c, 0, 51, 65
2, 384049, Note_on_c, 0, 46, 60
2, 384051, Note_on_c, 0, 55, 69
2, 384091, Control_c, 0, 64, 0
2, 384110, Note_off_c, 0, 75, 62
2, 384112, Note_on_c, 0, 77, 90
2, 384157, Note_off_c, 0, 77, 62
2, 384160, Note_on_c, 0, 75, 89
2, 384208, Note_off_c, 0, 75, 62
2, 384209, Note_on_c, 0, 74, 88
2, 384271, Note_off_c, 0, 51, 56
2, 384282, Note_off_c, 0, 55, 57
2, 384291, Control_c, 0, 64, 96
2, 384300, Note_off_c, 0, 46, 55
2, 384317, Note_off_c, 0, 74, 62
2, 384351, Note_on_c, 0, 72, 86
2, 384428, Note_off_c, 0, 72, 61
2, 384454, Control_c, 0, 64, 0
2, 384491, Note_on_c, 0, 70, 84
2, 384493, Note_on_c, 0, 55, 66
2, 384494, Note_on_c, 0, 51, 56
2, 384496, Note_on_c, 0, 46, 50
2, 384557, Note_off_c, 0, 70, 61
2, 384559, Note_on_c, 0, 72, 84
2, 384604, Note_off_c, 0, 72, 61
2, 384605, Note_on_c, 0, 70, 83
2, 384652, Note_off_c, 0, 70, 60
2, 384653, Note_on_c, 0, 68, 82
2, 384654, Control_c, 0, 64, 96
2, 384724, Note_off_c, 0, 51, 54
2, 384727, Note_off_c, 0, 55, 56
2, 384764, Note_off_c, 0, 68, 60
2, 384768, Note_off_c, 0, 46, 52
2, 384798, Note_on_c, 0, 67, 80
2, 384875, Note_off_c, 0, 67, 60
2, 384954, Note_on_c, 0, 65, 78
2, 384955, Note_on_c, 0, 53, 60
2, 384957, Note_on_c, 0, 56, 63
2, 384959, Note_on_c, 0, 46, 55
2, 384963, Control_c, 0, 64, 0
2, 385114, Note_off_c, 0, 65, 59
2, 385115, Note_on_c, 0, 68, 76
2, 385164, Control_c, 0, 64, 96
2, 385192, Note_off_c, 0, 56, 55
2, 385207, Note_off_c, 0, 53, 55
2, 385225, Note_off_c, 0, 68, 59
2, 385235, Note_off_c, 0, 46, 53
2, 385276, Note_on_c, 0, 62, 74
2, 385336, Note_off_c, 0, 62, 59
2, 385409, Control_c, 0, 64, 0
2, 385418, Note_on_c, 0, 55, 50
2, 385419, Note_on_c, 0, 51, 60
2, 385420, Note_on_c, 0, 63, 72
2, 385575, Note_off_c, 0, 63, 58
2, 385636, Note_on_c, 0, 87, 48
2, 385670, Control_c, 0, 64, 96
2, 385715, Note_off_c, 0, 87, 52
2, 385716, Note_on_c, 0, 79, 48
2, 385720, Note_off_c, 0, 55, 52
2, 385721, Note_off_c, 0, 51, 55
2, 385777, Note_off_c, 0, 79, 52
2, 385784, Note_on_c, 0, 87, 50
2, 385858, Note_off_c, 0, 87, 52
2, 385859, Note_on_c, 0, 79, 53
2, 385921, Note_off_c, 0, 79, 53
2, 385922, Note_on_c, 0, 51, 80
2, 385924, Note_on_c, 0, 75, 56
2, 386000, Note_off_c, 0, 75, 54
2, 386002, Note_on_c, 0, 79, 58
2, 386054, Control_c, 0, 64, 0
2, 386067, Note_off_c, 0, 79, 54
2, 386068, Note_on_c, 0, 87, 61
2, 386144, Note_off_c, 0, 87, 55
2, 386145, Note_on_c, 0, 79, 64
2, 386208, Note_off_c, 0, 79, 56
2, 386209, Note_on_c, 0, 87, 66
2, 386255, Control_c, 0, 64, 96
2, 386287, Note_off_c, 0, 87, 56
2, 386289, Note_on_c, 0, 79, 69
2, 386365, Note_off_c, 0, 79, 57
2, 386368, Note_on_c, 0, 76, 72
2, 386431, Note_off_c, 0, 76, 58
2, 386432, Note_on_c, 0, 79, 72
2, 386496, Note_off_c, 0, 79, 58
2, 386497, Note_on_c, 0, 85, 70
2, 386573, Note_off_c, 0, 85, 57
2, 386575, Note_on_c, 0, 79, 68
2, 386637, Note_off_c, 0, 79, 57
2, 386639, Note_on_c, 0, 85, 65
2, 386717, Note_off_c, 0, 85, 56
2, 386718, Note_on_c, 0, 79, 63
2, 386780, Note_off_c, 0, 79, 55
2, 386781, Note_on_c, 0, 75, 60
2, 386861, Note_off_c, 0, 75, 55
2, 386863, Note_on_c, 0, 79, 58
2, 386923, Note_off_c, 0, 79, 54
2, 386925, Note_on_c, 0, 87, 56
2, 387005, Note_off_c, 0, 87, 54
2, 387005, Note_on_c, 0, 79, 53
2, 387085, Note_off_c, 0, 79, 53
2, 387086, Note_on_c, 0, 87, 51
2, 387146, Note_off_c, 0, 87, 52
2, 387148, Note_on_c, 0, 79, 48
2, 387225, Note_off_c, 0, 79, 52
2, 387226, Note_on_c, 0, 73, 48
2, 387290, Note_off_c, 0, 73, 52
2, 387292, Note_on_c, 0, 79, 49
2, 387367, Note_off_c, 0, 79, 52
2, 387369, Note_on_c, 0, 88, 50
2, 387435, Note_off_c, 0, 88, 52
2, 387436, Note_on_c, 0, 79, 51
2, 387513, Note_off_c, 0, 79, 52
2, 387514, Note_on_c, 0, 88, 52
2, 387575, Note_off_c, 0, 88, 53
2, 387580, Note_on_c, 0, 79, 53
2, 387656, Note_off_c, 0, 51, 60
2, 387658, Note_off_c, 0, 79, 53
2, 387660, Note_on_c, 0, 63, 79
2, 387662, Note_on_c, 0, 75, 54
2, 387719, Note_off_c, 0, 75, 53
2, 387720, Note_on_c, 0, 79, 55
2, 387799, Note_off_c, 0, 79, 53
2, 387801, Note_on_c, 0, 87, 56
2, 387809, Control_c, 0, 64, 0
2, 387864, Note_off_c, 0, 87, 54
2, 387864, Note_on_c, 0, 79, 57
2, 387941, Note_off_c, 0, 79, 54
2, 387943, Note_on_c, 0, 87, 58
2, 388005, Note_off_c, 0, 87, 54
2, 388006, Note_on_c, 0, 79, 60
2, 388009, Control_c, 0, 64, 96
2, 388086, Note_off_c, 0, 79, 55
2, 388087, Note_on_c, 0, 76, 60
2, 388148, Note_off_c, 0, 76, 55
2, 388150, Note_on_c, 0, 79, 59
2, 388228, Note_off_c, 0, 79, 54
2, 388229, Note_on_c, 0, 85, 58
2, 388293, Note_off_c, 0, 85, 54
2, 388294, Note_on_c, 0, 79, 57
2, 388373, Note_off_c, 0, 79, 54
2, 388373, Note_on_c, 0, 85, 56
2, 388436, Note_off_c, 0, 85, 54
2, 388438, Note_on_c, 0, 79, 55
2, 388518, Note_off_c, 0, 79, 53
2, 388519, Note_on_c, 0, 73, 54
2, 388579, Note_off_c, 0, 73, 53
2, 388580, Note_on_c, 0, 79, 53
2, 388659, Note_off_c, 0, 79, 53
2, 388661, Note_on_c, 0, 88, 52
2, 388738, Note_off_c, 0, 88, 53
2, 388739, Note_on_c, 0, 79, 51
2, 388801, Note_off_c, 0, 79, 52
2, 388802, Note_on_c, 0, 88, 50
2, 388883, Note_off_c, 0, 88, 52
2, 388884, Note_on_c, 0, 79, 48
2, 388946, Note_off_c, 0, 79, 52
2, 388948, Note_on_c, 0, 72, 48
2, 389025, Note_off_c, 0, 72, 52
2, 389026, Note_on_c, 0, 80, 50
2, 389089, Note_off_c, 0, 80, 52
2, 389090, Note_on_c, 0, 87, 52
2, 389166, Note_off_c, 0, 87, 53
2, 389168, Note_on_c, 0, 80, 54
2, 389231, Note_off_c, 0, 80, 53
2, 389232, Note_on_c, 0, 87, 56
2, 389312, Note_off_c, 0, 87, 54
2, 389313, Note_on_c, 0, 80, 58
2, 389374, Note_off_c, 0, 80, 54
2, 389377, Note_off_c, 0, 63, 60
2, 389378, Note_on_c, 0, 51, 77
2, 389379, Note_on_c, 0, 73, 61
2, 389401, Control_c, 0, 64, 0
2, 389455, Note_off_c, 0, 73, 55
2, 389457, Note_on_c, 0, 80, 63
2, 389518, Note_off_c, 0, 80, 55
2, 389519, Note_on_c, 0, 85, 65
2, 389596, Note_off_c, 0, 85, 56
2, 389597, Note_on_c, 0, 80, 67
2, 389601, Control_c, 0, 64, 96
2, 389663, Note_off_c, 0, 80, 57
2, 389664, Note_on_c, 0, 85, 69
2, 389740, Note_off_c, 0, 85, 57
2, 389741, Note_on_c, 0, 80, 72
2, 389820, Note_off_c, 0, 80, 58
2, 389821, Note_on_c, 0, 75, 72
2, 389887, Note_off_c, 0, 75, 58
2, 389887, Note_on_c, 0, 80, 70
2, 389962, Note_off_c, 0, 80, 57
2, 389966, Note_on_c, 0, 84, 68
2, 390027, Note_off_c, 0, 84, 57
2, 390028, Note_on_c, 0, 80, 66
2, 390108, Note_off_c, 0, 80, 56
2, 390109, Note_on_c, 0, 84, 64
2, 390169, Note_off_c, 0, 84, 56
2, 390171, Note_on_c, 0, 80, 62
2, 390236, Note_off_c, 0, 80, 55
2, 390236, Note_on_c, 0, 75, 59
2, 390311, Note_off_c, 0, 75, 54
2, 390315, Note_on_c, 0, 80, 57
2, 390395, Note_off_c, 0, 80, 54
2, 390397, Note_on_c, 0, 83, 55
2, 390457, Note_off_c, 0, 83, 53
2, 390458, Note_on_c, 0, 80, 53
2, 390533, Note_off_c, 0, 80, 53
2, 390537, Note_on_c, 0, 83, 51
2, 390602, Note_off_c, 0, 83, 52
2, 390602, Note_on_c, 0, 80, 48
2, 390679, Note_off_c, 0, 80, 52
2, 390681, Note_on_c, 0, 74, 48
2, 390745, Note_off_c, 0, 74, 52
2, 390747, Note_on_c, 0, 80, 49
2, 390823, Note_off_c, 0, 80, 52
2, 390824, Note_on_c, 0, 83, 50
2, 390887, Note_off_c, 0, 83, 52
2, 390889, Note_on_c, 0, 80, 51
2, 390966, Note_off_c, 0, 80, 52
2, 390968, Note_on_c, 0, 83, 52
2, 391029, Note_off_c, 0, 83, 53
2, 391031, Note_on_c, 0, 80, 54
2, 391111, Note_off_c, 0, 51, 59
2, 391112, Note_off_c, 0, 80, 53
2, 391113, Note_on_c, 0, 74, 55
2, 391115, Note_on_c, 0, 39, 75
2, 391174, Note_off_c, 0, 74, 53
2, 391175, Note_on_c, 0, 80, 56
2, 391185, Control_c, 0, 64, 0
2, 391253, Note_off_c, 0, 80, 54
2, 391254, Note_on_c, 0, 82, 57
2, 391334, Note_off_c, 0, 82, 54
2, 391335, Note_on_c, 0, 80, 58
2, 391385, Control_c, 0, 64, 96
2, 391395, Note_off_c, 0, 80, 54
2, 391396, Note_on_c, 0, 82, 60
2, 391475, Note_off_c, 0, 82, 55
2, 391477, Note_on_c, 0, 80, 60
2, 391537, Note_off_c, 0, 80, 55
2, 391540, Note_on_c, 0, 74, 60
2, 391618, Note_off_c, 0, 74, 55
2, 391619, Note_on_c, 0, 80, 59
2, 391684, Note_off_c, 0, 80, 54
2, 391685, Note_on_c, 0, 82, 58
2, 391761, Note_off_c, 0, 82, 54
2, 391763, Note_on_c, 0, 80, 57
2, 391826, Note_off_c, 0, 80, 54
2, 391827, Note_on_c, 0, 82, 56
2, 391905, Note_off_c, 0, 82, 54
2, 391907, Note_on_c, 0, 80, 55
2, 391969, Note_off_c, 0, 80, 53
2, 391971, Note_on_c, 0, 74, 54
2, 392048, Note_off_c, 0, 74, 53
2, 392049, Note_on_c, 0, 80, 53
2, 392112, Note_off_c, 0, 80, 53
2, 392115, Note_on_c, 0, 82, 52
2, 392192, Note_off_c, 0, 82, 53
2, 392193, Note_on_c, 0, 80, 51
2, 392255, Note_off_c, 0, 80, 52
2, 392256, Note_on_c, 0, 82, 50
2, 392332, Note_off_c, 0, 82, 52
2, 392337, Note_on_c, 0, 80, 48
2, 392398, Note_off_c, 0, 80, 52
2, 392400, Note_on_c, 0, 75, 48
2, 392479, Note_off_c, 0, 75, 52
2, 392480, Note_on_c, 0, 79, 50
2, 392540, Note_off_c, 0, 79, 52
2, 392543, Note_on_c, 0, 82, 52
2, 392623, Note_off_c, 0, 82, 53
2, 392624, Note_on_c, 0, 79, 55
2, 392685, Note_off_c, 0, 79, 53
2, 392686, Note_on_c, 0, 82, 57
2, 392763, Note_off_c, 0, 82, 54
2, 392766, Note_on_c, 0, 79, 60
2, 392828, Note_off_c, 0, 39, 59
2, 392829, Note_off_c, 0, 79, 55
2, 392831, Note_on_c, 0, 51, 74
2, 392832, Note_on_c, 0, 67, 62
2, 392897, Control_c, 0, 64, 0
2, 392905, Note_off_c, 0, 67, 55
2, 392907, Note_on_c, 0, 75, 64
2, 392973, Note_off_c, 0, 75, 56
2, 392974, Note_on_c, 0, 79, 67
2, 393052, Note_off_c, 0, 79, 57
2, 393053, Note_on_c, 0, 75, 69
2, 393097, Control_c, 0, 64, 96
2, 393131, Note_off_c, 0, 75, 57
2, 393132, Note_on_c, 0, 79, 72
2, 393196, Note_off_c, 0, 79, 58
2, 393197, Note_on_c, 0, 75, 72
2, 393274, Note_off_c, 0, 75, 58
2, 393276, Note_on_c, 0, 67, 72
2, 393337, Note_off_c, 0, 67, 58
2, 393338, Note_on_c, 0, 76, 70
2, 393418, Note_off_c, 0, 76, 57
2, 393419, Note_on_c, 0, 79, 68
2, 393481, Note_off_c, 0, 79, 57
2, 393482, Note_on_c, 0, 76, 66
2, 393561, Note_off_c, 0, 76, 56
2, 393563, Note_on_c, 0, 79, 64
2, 393626, Note_off_c, 0, 79, 56
2, 393627, Note_on_c, 0, 76, 62
2, 393704, Note_off_c, 0, 76, 55
2, 393705, Note_on_c, 0, 67, 59
2, 393766, Note_off_c, 0, 67, 54
2, 393767, Note_on_c, 0, 75, 57
2, 393847, Note_off_c, 0, 75, 54
2, 393849, Note_on_c, 0, 79, 55
2, 393911, Note_off_c, 0, 79, 53
2, 393913, Note_on_c, 0, 75, 53
2, 393990, Note_off_c, 0, 75, 53
2, 393991, Note_on_c, 0, 79, 51
2, 394054, Note_off_c, 0, 79, 52
2, 394055, Note_on_c, 0, 75, 48
2, 394133, Note_off_c, 0, 75, 52
2, 394135, Note_on_c, 0, 67, 48
2, 394197, Note_off_c, 0, 67, 52
2, 394199, Note_on_c, 0, 73, 49
2, 394276, Note_off_c, 0, 73, 52
2, 394277, Note_on_c, 0, 79, 50
2, 394339, Note_off_c, 0, 79, 52
2, 394342, Note_on_c, 0, 73, 51
2, 394419, Note_off_c, 0, 73, 52
2, 394421, Note_on_c, 0, 79, 52
2, 394484, Note_off_c, 0, 79, 53
2, 394486, Note_on_c, 0, 73, 54
2, 394563, Note_off_c, 0, 73, 53
2, 394565, Note_off_c, 0, 51, 59
2, 394566, Note_on_c, 0, 63, 72
2, 394567, Note_on_c, 0, 67, 55
2, 394627, Note_off_c, 0, 67, 53
2, 394628, Note_on_c, 0, 75, 56
2, 394705, Note_off_c, 0, 75, 54
2, 394707, Note_on_c, 0, 79, 57
2, 394709, Control_c, 0, 64, 0
2, 394784, Note_off_c, 0, 79, 54
2, 394787, Note_on_c, 0, 75, 58
2, 394849, Note_off_c, 0, 75, 54
2, 394851, Note_on_c, 0, 79, 60
2, 394908, Control_c, 0, 64, 96
2, 394929, Note_off_c, 0, 79, 55
2, 394931, Note_on_c, 0, 75, 60
2, 394992, Note_off_c, 0, 75, 55
2, 394993, Note_on_c, 0, 67, 60
2, 395073, Note_off_c, 0, 67, 55
2, 395074, Note_on_c, 0, 76, 59
2, 395135, Note_off_c, 0, 76, 54
2, 395137, Note_on_c, 0, 79, 58
2, 395214, Note_off_c, 0, 79, 54
2, 395215, Note_on_c, 0, 76, 57
2, 395280, Note_off_c, 0, 76, 54
2, 395282, Note_on_c, 0, 79, 56
2, 395357, Note_off_c, 0, 79, 54
2, 395359, Note_on_c, 0, 76, 55
2, 395425, Note_off_c, 0, 76, 53
2, 395425, Note_on_c, 0, 67, 54
2, 395503, Note_off_c, 0, 67, 53
2, 395504, Note_on_c, 0, 73, 53
2, 395565, Note_off_c, 0, 73, 53
2, 395566, Note_on_c, 0, 79, 52
2, 395645, Note_off_c, 0, 79, 53
2, 395647, Note_on_c, 0, 73, 51
2, 395707, Note_off_c, 0, 73, 52
2, 395710, Note_on_c, 0, 79, 50
2, 395787, Note_off_c, 0, 79, 52
2, 395788, Note_on_c, 0, 73, 48
2, 395868, Note_off_c, 0, 73, 52
2, 395870, Note_on_c, 0, 68, 48
2, 395931, Note_off_c, 0, 68, 52
2, 395933, Note_on_c, 0, 72, 50
2, 395995, Note_off_c, 0, 72, 52
2, 395996, Note_on_c, 0, 80, 52
2, 396076, Note_off_c, 0, 80, 53
2, 396077, Note_on_c, 0, 72, 54
2, 396137, Note_off_c, 0, 72, 53
2, 396139, Note_on_c, 0, 80, 56
2, 396218, Note_off_c, 0, 80, 54
2, 396220, Note_on_c, 0, 72, 58
2, 396281, Note_off_c, 0, 72, 54
2, 396283, Note_off_c, 0, 63, 58
2, 396284, Note_on_c, 0, 68, 61
2, 396286, Note_on_c, 0, 51, 70
2, 396310, Control_c, 0, 64, 0
2, 396363, Note_off_c, 0, 68, 55
2, 396363, Note_on_c, 0, 71, 63
2, 396426, Note_off_c, 0, 71, 55
2, 396427, Note_on_c, 0, 80, 65
2, 396503, Note_off_c, 0, 80, 56
2, 396505, Note_on_c, 0, 71, 67
2, 396511, Control_c, 0, 64, 96
2, 396584, Note_off_c, 0, 71, 57
2, 396585, Note_on_c, 0, 80, 69
2, 396648, Note_off_c, 0, 80, 57
2, 396650, Note_on_c, 0, 71, 72
2, 396726, Note_off_c, 0, 71, 58
2, 396728, Note_on_c, 0, 68, 72
2, 396792, Note_off_c, 0, 68, 58
2, 396793, Note_on_c, 0, 70, 70
2, 396873, Note_off_c, 0, 70, 57
2, 396873, Note_on_c, 0, 75, 68
2, 396933, Note_off_c, 0, 75, 57
2, 396935, Note_on_c, 0, 70, 66
2, 397013, Note_off_c, 0, 70, 56
2, 397014, Note_on_c, 0, 75, 64
2, 397075, Note_off_c, 0, 75, 56
2, 397077, Note_on_c, 0, 70, 62
2, 397157, Note_off_c, 0, 70, 55
2, 397160, Note_on_c, 0, 67, 59
2, 397221, Note_off_c, 0, 67, 54
2, 397221, Note_on_c, 0, 70, 57
2, 397300, Note_off_c, 0, 70, 54
2, 397301, Note_on_c, 0, 75, 55
2, 397364, Note_off_c, 0, 75, 53
2, 397365, Note_on_c, 0, 70, 53
2, 397442, Note_off_c, 0, 70, 53
2, 397444, Note_on_c, 0, 75, 51
2, 397506, Note_off_c, 0, 75, 52
2, 397509, Note_on_c, 0, 70, 48
2, 397586, Note_off_c, 0, 70, 52
2, 397587, Note_on_c, 0, 65, 48
2, 397665, Note_off_c, 0, 65, 52
2, 397667, Note_on_c, 0, 68, 49
2, 397731, Note_off_c, 0, 68, 52
2, 397732, Note_on_c, 0, 75, 50
2, 397794, Note_off_c, 0, 75, 52
2, 397795, Note_on_c, 0, 72, 51
2, 397875, Note_off_c, 0, 72, 52
2, 397876, Note_on_c, 0, 75, 52
2, 397937, Note_off_c, 0, 75, 53
2, 397939, Note_on_c, 0, 72, 53
2, 398016, Note_off_c, 0, 51, 57
2, 398016, Note_off_c, 0, 72, 53
2, 398019, Note_on_c, 0, 39, 68
2, 398020, Note_on_c, 0, 65, 54
2, 398079, Note_off_c, 0, 65, 53
2, 398081, Note_on_c, 0, 68, 55
2, 398109, Control_c, 0, 64, 0
2, 398160, Note_off_c, 0, 68, 53
2, 398161, Note_on_c, 0, 74, 56
2, 398240, Note_off_c, 0, 74, 54
2, 398242, Note_on_c, 0, 68, 57
2, 398302, Note_off_c, 0, 68, 54
2, 398304, Note_on_c, 0, 74, 58
2, 398307, Control_c, 0, 64, 96
2, 398382, Note_off_c, 0, 74, 54
2, 398383, Note_on_c, 0, 68, 60
2, 398445, Note_off_c, 0, 68, 55
2, 398447, Note_on_c, 0, 65, 60
2, 398523, Note_off_c, 0, 65, 55
2, 398526, Note_on_c, 0, 70, 59
2, 398591, Note_off_c, 0, 70, 54
2, 398592, Note_on_c, 0, 74, 58
2, 398670, Note_off_c, 0, 74, 54
2, 398671, Note_on_c, 0, 70, 57
2, 398732, Note_off_c, 0, 70, 54
2, 398734, Note_on_c, 0, 74, 56
2, 398814, Note_off_c, 0, 74, 54
2, 398815, Note_on_c, 0, 70, 55
2, 398875, Note_off_c, 0, 70, 53
2, 398877, Note_on_c, 0, 65, 54
2, 398954, Note_off_c, 0, 65, 53
2, 398957, Note_on_c, 0, 71, 53
2, 398958, Note_on_c, 0, 68, 50
2, 399020, Note_off_c, 0, 71, 53
2, 399021, Note_off_c, 0, 68, 52
2, 399022, Note_on_c, 0, 74, 52
2, 399096, Note_off_c, 0, 74, 53
2, 399099, Note_on_c, 0, 71, 51
2, 399101, Note_on_c, 0, 68, 47
2, 399179, Note_off_c, 0, 71, 52
2, 399181, Note_off_c, 0, 68, 51
2, 399182, Note_on_c, 0, 74, 50
2, 399243, Note_off_c, 0, 74, 52
2, 399244, Note_on_c, 0, 71, 48
2, 399245, Note_on_c, 0, 68, 43
2, 399320, Note_off_c, 0, 71, 52
2, 399322, Note_off_c, 0, 68, 50
2, 399324, Note_on_c, 0, 75, 60
2, 399325, Note_on_c, 0, 70, 44
2, 399327, Note_on_c, 0, 67, 54
2, 399327, Note_on_c, 0, 51, 46
2, 399337, Control_c, 0, 64, 0
2, 399491, Note_off_c, 0, 75, 55
2, 399495, Note_off_c, 0, 51, 51
2, 399497, Note_off_c, 0, 70, 51
2, 399528, Note_off_c, 0, 67, 53
2, 399537, Control_c, 0, 64, 96
2, 399595, Note_off_c, 0, 39, 57
2, 399607, Note_on_c, 0, 67, 73
2, 399609, Note_on_c, 0, 55, 60
2, 400087, Note_on_c, 0, 63, 51
2, 400088, Note_on_c, 0, 51, 46
2, 400118, Note_off_c, 0, 67, 58
2, 400121, Note_off_c, 0, 55, 55
2, 400230, Note_on_c, 0, 58, 52
2, 400232, Note_on_c, 0, 46, 50
2, 400263, Note_off_c, 0, 63, 52
2, 400263, Note_off_c, 0, 51, 51
2, 400317, Control_c, 0, 64, 0
2, 400376, Note_off_c, 0, 58, 53
2, 400377, Note_off_c, 0, 46, 52
2, 400514, Note_on_c, 0, 68, 58
2, 400516, Note_on_c, 0, 77, 82
2, 400518, Note_on_c, 0, 58, 54
2, 400519, Note_on_c, 0, 62, 64
2, 400520, Control_c, 0, 64, 96
2, 400978, Note_on_c, 0, 74, 60
2, 400979, Note_on_c, 0, 65, 54
2, 400985, Note_off_c, 0, 77, 60
2, 400986, Note_off_c, 0, 62, 56
2, 401124, Note_off_c, 0, 58, 53
2, 401126, Note_on_c, 0, 75, 61
2, 401126, Note_on_c, 0, 67, 44
2, 401128, Note_on_c, 0, 63, 51
2, 401129, Note_on_c, 0, 51, 36
2, 401131, Note_off_c, 0, 68, 54
2, 401131, Note_off_c, 0, 74, 55
2, 401133, Note_off_c, 0, 65, 53
2, 401223, Control_c, 0, 64, 0
2, 401250, Note_off_c, 0, 75, 55
2, 401265, Note_off_c, 0, 51, 49
2, 401274, Note_off_c, 0, 63, 52
2, 401275, Note_off_c, 0, 67, 51
2, 401406, Note_on_c, 0, 55, 72
2, 401408, Note_on_c, 0, 67, 82
2, 401423, Control_c, 0, 64, 96
2, 401886, Note_on_c, 0, 51, 50
2, 401887, Note_on_c, 0, 63, 60
2, 401914, Note_off_c, 0, 67, 60
2, 401915, Note_off_c, 0, 55, 58
2, 402027, Note_on_c, 0, 58, 61
2, 402030, Note_on_c, 0, 46, 51
2, 402057, Note_off_c, 0, 63, 55
2, 402059, Note_off_c, 0, 51, 52
2, 402128, Control_c, 0, 64, 0
2, 402156, Note_off_c, 0, 46, 52
2, 402175, Note_off_c, 0, 58, 55
2, 402297, Note_on_c, 0, 68, 67
2, 402299, Note_on_c, 0, 80, 91
2, 402300, Note_on_c, 0, 58, 62
2, 402302, Note_on_c, 0, 65, 81
2, 402329, Control_c, 0, 64, 96
2, 402778, Note_on_c, 0, 77, 69
2, 402779, Note_on_c, 0, 62, 64
2, 402797, Note_off_c, 0, 80, 62
2, 402799, Note_off_c, 0, 65, 60
2, 402922, Note_on_c, 0, 79, 70
2, 402923, Note_on_c, 0, 67, 56
2, 402925, Note_on_c, 0, 63, 64
2, 402926, Note_on_c, 0, 51, 50
2, 402940, Note_off_c, 0, 77, 57
2, 402942, Note_off_c, 0, 68, 57
2, 402943, Note_off_c, 0, 62, 56
2, 402945, Note_off_c, 0, 58, 55
2, 403010, Control_c, 0, 64, 0
2, 403045, Note_off_c, 0, 79, 57
2, 403054, Note_off_c, 0, 63, 56
2, 403061, Note_off_c, 0, 51, 52
2, 403075, Note_off_c, 0, 67, 54
2, 403203, Note_on_c, 0, 67, 91
2, 403205, Note_on_c, 0, 55, 80
2, 403209, Control_c, 0, 64, 96
2, 403668, Note_on_c, 0, 63, 69
2, 403669, Note_on_c, 0, 51, 55
2, 403673, Note_off_c, 0, 67, 62
2, 403675, Note_off_c, 0, 55, 60
2, 403811, Note_on_c, 0, 58, 70
2, 403813, Note_on_c, 0, 46, 60
2, 403817, Note_off_c, 0, 63, 57
2, 403818, Note_off_c, 0, 51, 53
2, 403883, Control_c, 0, 64, 0
2, 403940, Note_off_c, 0, 46, 55
2, 403946, Note_off_c, 0, 58, 57
2, 404083, Control_c, 0, 64, 96
2, 404095, Note_on_c, 0, 89, 96
2, 404098, Note_on_c, 0, 46, 80
2, 404100, Note_on_c, 0, 34, 74
2, 404101, Note_on_c, 0, 80, 76
2, 404103, Note_on_c, 0, 77, 72
2, 404453, Note_off_c, 0, 34, 59
2, 404454, Note_off_c, 0, 80, 59
2, 404489, Note_off_c, 0, 77, 58
2, 404499, Note_off_c, 0, 46, 60
2, 404557, Note_off_c, 0, 89, 63
2, 404588, Note_on_c, 0, 86, 66
2, 404590, Note_on_c, 0, 46, 54
2, 404592, Note_on_c, 0, 34, 50
2, 404594, Note_on_c, 0, 80, 50
2, 404596, Note_on_c, 0, 77, 43
2, 404676, Note_off_c, 0, 77, 50
2, 404679, Note_off_c, 0, 80, 52
2, 404692, Note_off_c, 0, 86, 56
2, 404702, Control_c, 0, 64, 0
2, 404719, Note_off_c, 0, 34, 52
2, 404722, Note_off_c, 0, 46, 53
2, 404802, Note_on_c, 0, 89, 96
2, 404804, Note_on_c, 0, 35, 84
2, 404806, Note_on_c, 0, 86, 76
2, 404808, Note_on_c, 0, 80, 80
2, 404809, Note_on_c, 0, 77, 70
2, 404905, Control_c, 0, 64, 96
2, 404942, Note_off_c, 0, 35, 61
2, 404943, Note_on_c, 0, 47, 84
2, 405024, Note_off_c, 0, 47, 61
2, 405082, Note_on_c, 0, 47, 83
2, 405178, Note_off_c, 0, 47, 60
2, 405226, Note_on_c, 0, 47, 82
2, 405320, Note_off_c, 0, 47, 60
2, 405350, Control_c, 0, 64, 0
2, 405368, Note_on_c, 0, 47, 81
2, 405462, Note_off_c, 0, 47, 60
2, 405513, Note_on_c, 0, 47, 80
2, 405597, Note_off_c, 0, 47, 60
2, 405662, Note_on_c, 0, 47, 78
2, 405689, Note_off_c, 0, 80, 60
2, 405694, Note_off_c, 0, 86, 59
2, 405752, Note_off_c, 0, 77, 57
2, 405757, Note_off_c, 0, 47, 59
2, 405808, Note_on_c, 0, 47, 77
2, 405891, Note_off_c, 0, 47, 59
2, 405926, Note_off_c, 0, 89, 63
2, 405941, Note_on_c, 0, 86, 87
2, 405945, Note_on_c, 0, 47, 76
2, 405949, Note_on_c, 0, 80, 67
2, 405950, Note_on_c, 0, 77, 70
2, 406015, Note_off_c, 0, 80, 57
2, 406017, Note_off_c, 0, 77, 57
2, 406021, Note_off_c, 0, 86, 61
2, 406039, Note_off_c, 0, 47, 59
2, 406086, Note_on_c, 0, 89, 86
2, 406088, Note_on_c, 0, 47, 60
2, 406090, Note_on_c, 0, 86, 68
2, 406091, Note_on_c, 0, 80, 65
2, 406092, Note_on_c, 0, 77, 60
2, 406181, Note_off_c, 0, 47, 55
2, 406206, Note_off_c, 0, 77, 55
2, 406212, Note_off_c, 0, 86, 57
2, 406218, Note_off_c, 0, 80, 56
2, 406245, Note_off_c, 0, 89, 61
2, 406248, Note_on_c, 0, 47, 74
2, 406339, Note_off_c, 0, 47, 59
2, 406386, Note_on_c, 0, 86, 84
2, 406389, Note_on_c, 0, 80, 72
2, 406391, Note_on_c, 0, 77, 70
2, 406392, Note_on_c, 0, 47, 72
2, 406452, Note_off_c, 0, 86, 61
2, 406453, Note_off_c, 0, 80, 58
2, 406456, Note_off_c, 0, 77, 57
2, 406499, Note_off_c, 0, 47, 58
2, 406500, Control_c, 0, 64, 98
2, 406531, Note_on_c, 0, 87, 96
2, 406534, Note_on_c, 0, 36, 80
2, 406536, Note_on_c, 0, 84, 78
2, 406538, Note_on_c, 0, 79, 75
2, 406540, Note_on_c, 0, 75, 85
2, 406673, Note_off_c, 0, 36, 60
2, 406675, Note_on_c, 0, 48, 84
2, 406785, Note_off_c, 0, 48, 61
2, 406817, Note_on_c, 0, 48, 83
2, 406874, Control_c, 0, 64, 0
2, 406928, Note_off_c, 0, 48, 60
2, 406961, Note_on_c, 0, 48, 82
2, 407071, Note_off_c, 0, 48, 60
2, 407105, Note_on_c, 0, 48, 81
2, 407160, Note_off_c, 0, 79, 59
2, 407166, Note_off_c, 0, 75, 61
2, 407175, Note_off_c, 0, 84, 59
2, 407215, Note_off_c, 0, 48, 60
2, 407246, Note_on_c, 0, 48, 80
2, 407357, Note_off_c, 0, 48, 60
2, 407372, Note_off_c, 0, 87, 63
2, 407389, Note_on_c, 0, 84, 84
2, 407393, Note_on_c, 0, 48, 78
2, 407396, Note_on_c, 0, 79, 70
2, 407398, Note_on_c, 0, 75, 66
2, 407399, Note_on_c, 0, 72, 70
2, 407516, Note_off_c, 0, 48, 59
2, 407534, Note_on_c, 0, 48, 77
2, 407618, Note_off_c, 0, 79, 57
2, 407624, Note_off_c, 0, 75, 56
2, 407625, Note_off_c, 0, 72, 57
2, 407645, Note_off_c, 0, 48, 59
2, 407678, Note_off_c, 0, 84, 61
2, 407680, Note_on_c, 0, 48, 76
2, 407789, Note_off_c, 0, 48, 59
2, 407819, Note_on_c, 0, 48, 75
2, 407930, Note_off_c, 0, 48, 59
2, 407963, Note_on_c, 0, 48, 74
2, 408073, Note_off_c, 0, 48, 59
2, 408107, Note_on_c, 0, 79, 84
2, 408108, Note_on_c, 0, 72, 66
2, 408109, Note_on_c, 0, 76, 70
2, 408110, Note_on_c, 0, 48, 72
2, 408112, Note_on_c, 0, 70, 80
2, 408197, Note_off_c, 0, 76, 57
2, 408198, Note_off_c, 0, 72, 56
2, 408200, Note_off_c, 0, 70, 60
2, 408207, Note_off_c, 0, 79, 61
2, 408219, Note_off_c, 0, 48, 58
2, 408234, Control_c, 0, 64, 98
2, 408243, Note_on_c, 0, 80, 96
2, 408257, Note_on_c, 0, 77, 76
2, 408259, Note_on_c, 0, 41, 84
2, 408260, Note_on_c, 0, 68, 80
2, 408262, Note_on_c, 0, 72, 70
2, 408392, Note_off_c, 0, 41, 61
2, 408394, Note_on_c, 0, 53, 84
2, 408504, Note_off_c, 0, 53, 61
2, 408534, Note_on_c, 0, 53, 83
2, 408559, Control_c, 0, 64, 0
2, 408645, Note_off_c, 0, 53, 60
2, 408680, Note_on_c, 0, 53, 82
2, 408790, Note_off_c, 0, 68, 60
2, 408791, Note_off_c, 0, 53, 60
2, 408796, Note_off_c, 0, 72, 57
2, 408801, Note_off_c, 0, 80, 63
2, 408822, Note_on_c, 0, 53, 81
2, 408829, Note_off_c, 0, 77, 59
2, 408933, Note_off_c, 0, 53, 60
2, 408966, Note_on_c, 0, 53, 80
2, 409076, Note_off_c, 0, 53, 60
2, 409103, Control_c, 0, 64, 99
2, 409124, Note_on_c, 0, 72, 64
2, 409126, Note_on_c, 0, 65, 62
2, 409127, Note_on_c, 0, 77, 84
2, 409128, Note_on_c, 0, 41, 78
2, 409130, Note_on_c, 0, 68, 70
2, 409252, Note_off_c, 0, 41, 59
2, 409254, Note_on_c, 0, 53, 77
2, 409294, Note_off_c, 0, 65, 55
2, 409296, Note_off_c, 0, 77, 61
2, 409308, Note_off_c, 0, 72, 56
2, 409327, Note_off_c, 0, 68, 57
2, 409364, Note_off_c, 0, 53, 59
2, 409376, Control_c, 0, 64, 0
2, 409401, Note_on_c, 0, 53, 76
2, 409506, Note_off_c, 0, 53, 59
2, 409539, Note_on_c, 0, 39, 75
2, 409683, Note_off_c, 0, 39, 59
2, 409684, Note_on_c, 0, 51, 74
2, 409795, Note_off_c, 0, 51, 59
2, 409841, Note_on_c, 0, 72, 66
2, 409842, Note_on_c, 0, 77, 84
2, 409844, Note_on_c, 0, 65, 80
2, 409845, Note_on_c, 0, 69, 70
2, 409846, Note_on_c, 0, 51, 72
2, 409915, Note_off_c, 0, 65, 60
2, 409919, Note_off_c, 0, 72, 56
2, 409922, Note_off_c, 0, 69, 57
2, 409922, Note_off_c, 0, 77, 61
2, 409952, Note_off_c, 0, 51, 58
2, 409975, Note_on_c, 0, 77, 96
2, 409980, Note_on_c, 0, 65, 90
2, 409988, Note_on_c, 0, 38, 84
2, 409990, Note_on_c, 0, 70, 80
2, 409995, Note_on_c, 0, 68, 76
2, 409998, Control_c, 0, 64, 99
2, 410129, Note_off_c, 0, 38, 61
2, 410131, Note_on_c, 0, 50, 84
2, 410223, Note_off_c, 0, 50, 61
2, 410271, Note_on_c, 0, 50, 83
2, 410273, Control_c, 0, 64, 0
2, 410368, Note_off_c, 0, 50, 60
2, 410414, Note_on_c, 0, 46, 81
2, 410478, Note_off_c, 0, 77, 63
2, 410485, Note_off_c, 0, 68, 59
2, 410508, Note_off_c, 0, 65, 62
2, 410509, Note_off_c, 0, 46, 60
2, 410557, Note_on_c, 0, 58, 80
2, 410569, Note_off_c, 0, 70, 60
2, 410668, Note_off_c, 0, 58, 60
2, 410701, Note_on_c, 0, 58, 78
2, 410812, Note_off_c, 0, 58, 59
2, 410844, Note_on_c, 0, 74, 60
2, 410846, Note_on_c, 0, 68, 46
2, 410847, Note_on_c, 0, 58, 77
2, 410849, Note_on_c, 0, 65, 55
2, 410850, Control_c, 0, 64, 96
2, 410971, Note_off_c, 0, 58, 59
2, 410987, Note_on_c, 0, 58, 75
2, 411098, Note_off_c, 0, 58, 59
2, 411128, Note_off_c, 0, 74, 55
2, 411131, Note_off_c, 0, 65, 53
2, 411132, Note_off_c, 0, 68, 51
2, 411134, Note_on_c, 0, 58, 74
2, 411151, Control_c, 0, 64, 0
2, 411241, Note_off_c, 0, 58, 59
2, 411274, Note_on_c, 0, 68, 60
2, 411275, Note_on_c, 0, 65, 49
2, 411277, Note_on_c, 0, 58, 72
2, 411278, Note_on_c, 0, 62, 55
2, 411336, Control_c, 0, 64, 96
2, 411385, Note_off_c, 0, 58, 58
2, 411417, Note_on_c, 0, 58, 70
2, 411527, Note_off_c, 0, 58, 57
2, 411559, Note_off_c, 0, 68, 55
2, 411561, Note_off_c, 0, 62, 53
2, 411562, Note_off_c, 0, 65, 52
2, 411563, Note_on_c, 0, 58, 69
2, 411637, Control_c, 0, 64, 0
2, 411670, Note_off_c, 0, 58, 57
2, 411705, Note_on_c, 0, 65, 57
2, 411706, Note_on_c, 0, 62, 46
2, 411707, Note_on_c, 0, 58, 67
2, 411708, Note_on_c, 0, 56, 40
2, 411823, Control_c, 0, 64, 96
2, 411830, Note_off_c, 0, 58, 57
2, 411863, Note_on_c, 0, 58, 66
2, 411973, Note_off_c, 0, 58, 56
2, 412006, Note_off_c, 0, 65, 54
2, 412008, Note_off_c, 0, 56, 50
2, 412011, Note_off_c, 0, 62, 51
2, 412012, Note_on_c, 0, 58, 64
2, 412117, Note_off_c, 0, 58, 56
2, 412125, Control_c, 0, 64, 0
2, 412164, Note_on_c, 0, 62, 55
2, 412166, Note_on_c, 0, 56, 45
2, 412167, Note_on_c, 0, 53, 40
2, 412169, Note_on_c, 0, 58, 63
2, 412228, Control_c, 0, 64, 96
2, 412277, Note_off_c, 0, 58, 55
2, 412308, Note_on_c, 0, 58, 61
2, 412419, Note_off_c, 0, 58, 55
2, 412466, Note_off_c, 0, 62, 53
2, 412469, Note_off_c, 0, 53, 50
2, 412470, Note_off_c, 0, 56, 51
2, 412471, Note_on_c, 0, 58, 59
2, 412529, Control_c, 0, 64, 0
2, 412577, Note_off_c, 0, 58, 54
2, 412610, Note_on_c, 0, 56, 53
2, 412611, Note_on_c, 0, 53, 47
2, 412612, Note_on_c, 0, 58, 40
2, 412614, Note_on_c, 0, 50, 36
2, 412683, Control_c, 0, 64, 96
2, 412753, Note_off_c, 0, 58, 50
2, 412769, Note_on_c, 0, 58, 56
2, 412880, Note_off_c, 0, 58, 54
2, 412927, Note_off_c, 0, 56, 53
2, 412931, Note_off_c, 0, 50, 49
2, 412933, Note_off_c, 0, 53, 51
2, 412934, Note_on_c, 0, 58, 55
2, 412984, Control_c, 0, 64, 0
2, 413039, Note_off_c, 0, 58, 53
2, 413087, Note_on_c, 0, 53, 51
2, 413089, Note_on_c, 0, 50, 40
2, 413090, Note_on_c, 0, 58, 53
2, 413092, Note_on_c, 0, 44, 36
2, 413184, Control_c, 0, 64, 96
2, 413200, Note_off_c, 0, 58, 53
2, 413246, Note_on_c, 0, 58, 52
2, 413357, Note_off_c, 0, 58, 53
2, 413390, Note_off_c, 0, 50, 50
2, 413391, Note_off_c, 0, 53, 52
2, 413393, Note_off_c, 0, 44, 49
2, 413394, Note_on_c, 0, 58, 50
2, 413485, Control_c, 0, 64, 0
2, 413519, Note_off_c, 0, 58, 52
2, 413550, Note_on_c, 0, 51, 40
2, 413550, Note_on_c, 0, 43, 31
2, 413552, Note_on_c, 0, 58, 48
2, 413593, Control_c, 0, 64, 96
2, 413868, Note_off_c, 0, 51, 50
2, 413869, Note_off_c, 0, 43, 47
2, 413871, Note_off_c, 0, 58, 52
2, 413894, Control_c, 0, 64, 0
2, 414025, Note_on_c, 0, 79, 60
2, 414028, Note_on_c, 0, 67, 48
2, 414029, Note_on_c, 0, 58, 43
2, 414031, Note_on_c, 0, 51, 40
2, 414089, Control_c, 0, 64, 98
2, 414457, Note_off_c, 0, 79, 55
2, 414459, Note_off_c, 0, 67, 52
2, 414461, Note_off_c, 0, 51, 50
2, 414462, Note_on_c, 0, 77, 60
2, 414463, Note_on_c, 0, 68, 45
2, 414464, Note_on_c, 0, 62, 40
2, 414465, Note_on_c, 0, 53, 55
2, 414886, Note_off_c, 0, 77, 55
2, 414888, Note_off_c, 0, 68, 51
2, 414889, Note_off_c, 0, 62, 50
2, 414890, Note_off_c, 0, 53, 53
2, 414891, Note_on_c, 0, 75, 54
2, 414893, Note_on_c, 0, 70, 40
2, 414894, Note_on_c, 0, 63, 36
2, 414895, Note_on_c, 0, 55, 48
2, 414897, Control_c, 0, 64, 0
2, 415092, Control_c, 0, 64, 98
2, 415315, Note_off_c, 0, 75, 53
2, 415318, Note_off_c, 0, 70, 50
2, 415319, Note_off_c, 0, 63, 49
2, 415320, Note_off_c, 0, 55, 52
2, 415321, Note_off_c, 0, 58, 50
2, 415322, Note_on_c, 0, 72, 48
2, 415324, Note_on_c, 0, 60, 34
2, 415325, Note_on_c, 0, 56, 40
2, 415626, Control_c, 0, 64, 0
2, 415633, Note_off_c, 0, 72, 52
2, 415636, Note_off_c, 0, 56, 50
2, 415638, Note_off_c, 0, 60, 48
2, 415793, Note_on_c, 0, 80, 60
2, 415795, Note_on_c, 0, 68, 48
2, 415797, Note_on_c, 0, 60, 52
2, 415798, Note_on_c, 0, 53, 46
2, 415839, Control_c, 0, 64, 95
2, 416209, Note_off_c, 0, 80, 55
2, 416210, Note_off_c, 0, 53, 51
2, 416212, Note_off_c, 0, 68, 52
2, 416212, Note_on_c, 0, 79, 60
2, 416214, Note_on_c, 0, 70, 45
2, 416215, Note_on_c, 0, 64, 50
2, 416216, Note_on_c, 0, 55, 55
2, 416654, Note_off_c, 0, 79, 55
2, 416656, Note_off_c, 0, 64, 52
2, 416657, Note_off_c, 0, 70, 51
2, 416659, Note_off_c, 0, 55, 53
2, 416660, Note_on_c, 0, 77, 54
2, 416661, Note_on_c, 0, 72, 42
2, 416662, Note_on_c, 0, 65, 36
2, 416663, Note_on_c, 0, 56, 48
2, 416665, Control_c, 0, 64, 0
2, 416856, Control_c, 0, 64, 98
2, 417081, Note_off_c, 0, 77, 53
2, 417084, Note_off_c, 0, 60, 53
2, 417085, Note_off_c, 0, 72, 50
2, 417087, Note_off_c, 0, 56, 52
2, 417089, Note_on_c, 0, 74, 50
2, 417090, Note_on_c, 0, 58, 42
2, 417402, Note_off_c, 0, 74, 52
2, 417404, Note_off_c, 0, 58, 50
2, 417405, Note_off_c, 0, 65, 49
2, 417560, Note_on_c, 0, 55, 48
2, 417561, Note_on_c, 0, 70, 61
2, 417562, Note_on_c, 0, 51, 41
2, 417564, Control_c, 0, 64, 0
2, 417703, Note_on_c, 0, 67, 60
2, 417765, Note_off_c, 0, 67, 55
2, 417775, Control_c, 0, 64, 95
2, 417847, Note_on_c, 0, 67, 57
2, 417892, Control_c, 0, 64, 0
2, 417911, Note_off_c, 0, 67, 54
2, 417990, Note_off_c, 0, 70, 55
2, 417991, Note_off_c, 0, 51, 50
2, 417993, Note_off_c, 0, 55, 52
2, 417995, Note_on_c, 0, 67, 54
2, 417996, Note_on_c, 0, 74, 55
2, 417997, Note_on_c, 0, 56, 45
2, 417998, Note_on_c, 0, 56, 40
2, 417999, Note_on_c, 0, 53, 55
2, 418086, Control_c, 0, 64, 95
2, 418134, Note_off_c, 0, 67, 53
2, 418135, Note_on_c, 0, 65, 51
2, 418244, Note_off_c, 0, 65, 52
2, 418276, Note_on_c, 0, 65, 48
2, 418338, Note_off_c, 0, 65, 52
2, 418420, Note_off_c, 0, 74, 53
2, 418422, Note_off_c, 0, 56, 50
2, 418424, Note_off_c, 0, 56, 51
2, 418424, Note_off_c, 0, 53, 53
2, 418426, Note_on_c, 0, 75, 60
2, 418427, Note_on_c, 0, 58, 48
2, 418428, Note_on_c, 0, 55, 40
2, 418434, Control_c, 0, 64, 0
2, 418561, Note_on_c, 0, 63, 60
2, 418626, Note_off_c, 0, 63, 55
2, 418629, Control_c, 0, 64, 95
2, 418705, Note_on_c, 0, 63, 57
2, 418769, Note_off_c, 0, 63, 54
2, 418850, Note_off_c, 0, 75, 55
2, 418850, Note_off_c, 0, 58, 52
2, 418852, Note_off_c, 0, 55, 50
2, 418854, Note_on_c, 0, 72, 54
2, 418855, Note_on_c, 0, 60, 42
2, 418856, Note_on_c, 0, 56, 36
2, 418857, Note_on_c, 0, 62, 50
2, 418961, Note_off_c, 0, 62, 52
2, 418992, Note_on_c, 0, 63, 51
2, 419055, Note_off_c, 0, 60, 50
2, 419057, Note_off_c, 0, 72, 53
2, 419058, Note_off_c, 0, 56, 49
2, 419102, Note_off_c, 0, 63, 52
2, 419137, Note_on_c, 0, 63, 48
2, 419140, Control_c, 0, 64, 0
2, 419199, Note_off_c, 0, 63, 52
2, 419279, Note_on_c, 0, 72, 60
2, 419281, Note_on_c, 0, 56, 48
2, 419283, Note_on_c, 0, 53, 45
2, 419336, Control_c, 0, 64, 95
2, 419422, Note_on_c, 0, 68, 60
2, 419487, Note_off_c, 0, 68, 55
2, 419563, Note_on_c, 0, 68, 57
2, 419644, Note_off_c, 0, 68, 54
2, 419688, Control_c, 0, 64, 0
2, 419708, Note_off_c, 0, 72, 55
2, 419710, Note_off_c, 0, 56, 52
2, 419712, Note_off_c, 0, 53, 51
2, 419713, Note_on_c, 0, 76, 54
2, 419714, Note_on_c, 0, 68, 50
2, 419715, Note_on_c, 0, 58, 48
2, 419717, Note_on_c, 0, 55, 45
2, 419852, Note_off_c, 0, 68, 52
2, 419853, Note_on_c, 0, 67, 51
2, 419882, Control_c, 0, 64, 95
2, 419963, Note_off_c, 0, 67, 52
2, 419994, Note_on_c, 0, 67, 48
2, 420059, Note_off_c, 0, 67, 52
2, 420136, Note_off_c, 0, 76, 53
2, 420138, Note_off_c, 0, 58, 52
2, 420140, Note_off_c, 0, 55, 51
2, 420141, Note_on_c, 0, 77, 60
2, 420142, Note_on_c, 0, 60, 45
2, 420144, Note_on_c, 0, 56, 40
2, 420157, Control_c, 0, 64, 0
2, 420281, Note_on_c, 0, 65, 60
2, 420351, Control_c, 0, 64, 95
2, 420359, Note_off_c, 0, 65, 55
2, 420425, Note_on_c, 0, 65, 57
2, 420505, Note_off_c, 0, 65, 54
2, 420566, Note_off_c, 0, 77, 55
2, 420569, Note_off_c, 0, 56, 50
2, 420570, Note_off_c, 0, 60, 51
2, 420571, Note_on_c, 0, 74, 56
2, 420573, Note_on_c, 0, 64, 40
2, 420574, Note_on_c, 0, 62, 36
2, 420575, Note_on_c, 0, 58, 48
2, 420579, Control_c, 0, 64, 0
2, 420678, Note_off_c, 0, 64, 50
2, 420711, Note_on_c, 0, 65, 51
2, 420790, Note_off_c, 0, 74, 54
2, 420792, Note_off_c, 0, 58, 52
2, 420793, Note_off_c, 0, 62, 49
2, 420795, Control_c, 0, 64, 95
2, 420822, Note_off_c, 0, 65, 52
2, 420855, Note_on_c, 0, 65, 48
2, 420935, Note_off_c, 0, 65, 52
2, 420996, Note_on_c, 0, 74, 50
2, 420998, Note_on_c, 0, 70, 40
2, 421062, Control_c, 0, 64, 0
2, 421140, Note_on_c, 0, 68, 48
2, 421142, Note_on_c, 0, 60, 36
2, 421220, Note_off_c, 0, 68, 52
2, 421221, Note_off_c, 0, 60, 49
2, 421275, Control_c, 0, 64, 95
2, 421284, Note_on_c, 0, 68, 49
2, 421285, Note_on_c, 0, 60, 40
2, 421364, Note_off_c, 0, 68, 52
2, 421365, Note_off_c, 0, 60, 50
2, 421427, Note_off_c, 0, 74, 52
2, 421429, Note_off_c, 0, 70, 50
2, 421431, Note_on_c, 0, 75, 52
2, 421432, Note_on_c, 0, 72, 45
2, 421433, Note_on_c, 0, 68, 49
2, 421435, Note_on_c, 0, 60, 43
2, 421569, Note_off_c, 0, 68, 52
2, 421572, Note_off_c, 0, 60, 50
2, 421573, Note_on_c, 0, 67, 50
2, 421574, Note_on_c, 0, 58, 42
2, 421681, Note_off_c, 0, 67, 52
2, 421683, Note_off_c, 0, 58, 50
2, 421713, Note_on_c, 0, 67, 51
2, 421715, Note_on_c, 0, 58, 43
2, 421792, Note_off_c, 0, 67, 52
2, 421793, Note_off_c, 0, 58, 50
2, 421842, Control_c, 0, 64, 0
2, 421857, Note_off_c, 0, 75, 53
2, 421858, Note_off_c, 0, 72, 51
2, 421860, Note_on_c, 0, 77, 57
2, 421862, Note_on_c, 0, 74, 46
2, 422014, Note_on_c, 0, 65, 52
2, 422018, Note_on_c, 0, 56, 45
2, 422057, Control_c, 0, 64, 95
2, 422080, Note_off_c, 0, 65, 53
2, 422082, Note_off_c, 0, 56, 51
2, 422158, Note_on_c, 0, 65, 53
2, 422159, Note_on_c, 0, 56, 46
2, 422238, Note_off_c, 0, 65, 53
2, 422239, Note_off_c, 0, 56, 51
2, 422304, Note_off_c, 0, 77, 54
2, 422305, Note_off_c, 0, 74, 51
2, 422307, Note_on_c, 0, 79, 62
2, 422308, Note_on_c, 0, 65, 53
2, 422309, Note_on_c, 0, 75, 50
2, 422310, Note_on_c, 0, 56, 48
2, 422461, Note_off_c, 0, 65, 53
2, 422461, Note_off_c, 0, 56, 52
2, 422463, Note_on_c, 0, 63, 54
2, 422464, Note_on_c, 0, 55, 45
2, 422572, Note_off_c, 0, 63, 53
2, 422573, Note_off_c, 0, 55, 51
2, 422620, Note_off_c, 0, 79, 55
2, 422621, Note_off_c, 0, 75, 52
2, 422622, Note_on_c, 0, 63, 54
2, 422624, Note_on_c, 0, 55, 48
2, 422635, Control_c, 0, 64, 0
2, 422683, Note_off_c, 0, 63, 53
2, 422685, Note_off_c, 0, 55, 52
2, 422761, Note_on_c, 0, 87, 66
2, 422768, Note_on_c, 0, 79, 50
2, 422774, Note_on_c, 0, 75, 43
2, 422850, Control_c, 0, 64, 95
2, 422922, Note_on_c, 0, 60, 56
2, 422924, Note_on_c, 0, 51, 50
2, 423004, Note_off_c, 0, 60, 54
2, 423005, Note_off_c, 0, 51, 52
2, 423083, Note_on_c, 0, 60, 56
2, 423084, Note_on_c, 0, 51, 48
2, 423105, Note_off_c, 0, 87, 56
2, 423138, Note_off_c, 0, 79, 52
2, 423161, Note_off_c, 0, 60, 54
2, 423162, Note_off_c, 0, 51, 52
2, 423177, Note_off_c, 0, 75, 50
2, 423220, Control_c, 0, 64, 0
2, 423235, Note_on_c, 0, 87, 71
2, 423245, Note_on_c, 0, 80, 60
2, 423246, Note_on_c, 0, 60, 57
2, 423248, Note_on_c, 0, 51, 50
2, 423252, Note_on_c, 0, 77, 55
2, 423383, Note_off_c, 0, 60, 54
2, 423386, Note_off_c, 0, 51, 52
2, 423387, Note_on_c, 0, 58, 58
2, 423389, Note_on_c, 0, 49, 49
2, 423435, Control_c, 0, 64, 95
2, 423479, Note_off_c, 0, 58, 54
2, 423481, Note_off_c, 0, 49, 52
2, 423529, Note_on_c, 0, 58, 58
2, 423530, Note_on_c, 0, 49, 50
2, 423555, Note_off_c, 0, 87, 58
2, 423560, Note_off_c, 0, 80, 55
2, 423566, Note_off_c, 0, 77, 53
2, 423592, Note_off_c, 0, 58, 54
2, 423593, Note_off_c, 0, 49, 52
2, 423672, Note_on_c, 0, 87, 76
2, 423674, Note_on_c, 0, 82, 60
2, 423683, Note_on_c, 0, 79, 52
2, 423705, Control_c, 0, 64, 0
2, 423814, Note_on_c, 0, 58, 60
2, 423815, Note_on_c, 0, 49, 50
2, 423895, Note_off_c, 0, 58, 55
2, 423896, Note_off_c, 0, 49, 52
2, 423917, Control_c, 0, 64, 95
2, 423957, Note_on_c, 0, 58, 60
2, 423959, Note_on_c, 0, 49, 48
2, 424003, Note_off_c, 0, 87, 59
2, 424007, Note_off_c, 0, 82, 55
2, 424036, Note_off_c, 0, 58, 55
2, 424038, Note_off_c, 0, 49, 52
2, 424039, Note_off_c, 0, 79, 53
2, 424116, Note_on_c, 0, 87, 80
2, 424119, Note_on_c, 0, 58, 61
2, 424120, Note_on_c, 0, 49, 57
2, 424122, Note_on_c, 0, 80, 70
2, 424124, Note_on_c, 0, 84, 65
2, 424150, Control_c, 0, 64, 0
2, 424259, Note_off_c, 0, 58, 55
2, 424260, Note_off_c, 0, 49, 54
2, 424262, Note_on_c, 0, 56, 61
2, 424263, Note_on_c, 0, 48, 55
2, 424354, Note_off_c, 0, 80, 57
2, 424363, Control_c, 0, 64, 95
2, 424371, Note_off_c, 0, 48, 53
2, 424372, Note_off_c, 0, 56, 55
2, 424374, Note_off_c, 0, 84, 56
2, 424418, Note_off_c, 0, 87, 60
2, 424421, Note_on_c, 0, 56, 62
2, 424423, Note_on_c, 0, 48, 52
2, 424498, Note_off_c, 0, 56, 55
2, 424499, Note_off_c, 0, 48, 53
2, 424577, Note_on_c, 0, 87, 84
2, 424578, Note_on_c, 0, 75, 66
2, 424722, Note_on_c, 0, 55, 63
2, 424723, Note_on_c, 0, 46, 58
2, 424801, Note_off_c, 0, 55, 55
2, 424802, Note_off_c, 0, 46, 54
2, 424833, Note_off_c, 0, 87, 61
2, 424852, Note_off_c, 0, 75, 56
2, 424870, Control_c, 0, 64, 0
2, 424882, Note_on_c, 0, 55, 64
2, 424883, Note_on_c, 0, 46, 58
2, 424960, Note_off_c, 0, 55, 56
2, 424962, Note_off_c, 0, 46, 54
2, 425039, Note_on_c, 0, 75, 83
2, 425042, Note_on_c, 0, 55, 65
2, 425043, Note_on_c, 0, 46, 60
2, 425044, Note_on_c, 0, 63, 70
2, 425084, Control_c, 0, 64, 95
2, 425182, Note_off_c, 0, 55, 56
2, 425185, Note_off_c, 0, 46, 55
2, 425186, Note_on_c, 0, 53, 65
2, 425188, Note_on_c, 0, 44, 59
2, 425278, Note_off_c, 0, 53, 56
2, 425280, Note_off_c, 0, 44, 54
2, 425314, Note_off_c, 0, 63, 57
2, 425326, Note_on_c, 0, 53, 66
2, 425328, Note_on_c, 0, 44, 60
2, 425347, Note_off_c, 0, 75, 60
2, 425390, Note_off_c, 0, 44, 55
2, 425391, Note_off_c, 0, 53, 56
2, 425469, Control_c, 0, 64, 0
2, 425472, Note_on_c, 0, 82, 79
2, 425477, Note_on_c, 0, 70, 65
2, 425612, Note_on_c, 0, 51, 67
2, 425613, Note_on_c, 0, 43, 56
2, 425677, Note_off_c, 0, 51, 57
2, 425678, Note_off_c, 0, 43, 54
2, 425683, Control_c, 0, 64, 95
2, 425739, Note_off_c, 0, 70, 56
2, 425754, Note_off_c, 0, 82, 60
2, 425756, Note_on_c, 0, 51, 68
2, 425758, Note_on_c, 0, 43, 63
2, 425835, Note_off_c, 0, 51, 57
2, 425836, Note_off_c, 0, 43, 55
2, 425900, Note_on_c, 0, 70, 75
2, 425901, Note_on_c, 0, 51, 68
2, 425903, Note_on_c, 0, 43, 57
2, 425908, Note_on_c, 0, 58, 60
2, 425913, Control_c, 0, 64, 0
2, 426059, Note_off_c, 0, 51, 57
2, 426060, Note_off_c, 0, 43, 54
2, 426061, Note_on_c, 0, 50, 69
2, 426063, Note_on_c, 0, 41, 60
2, 426127, Control_c, 0, 64, 95
2, 426170, Note_off_c, 0, 50, 57
2, 426171, Note_off_c, 0, 41, 55
2, 426179, Note_off_c, 0, 58, 55
2, 426200, Note_on_c, 0, 50, 70
2, 426202, Note_on_c, 0, 41, 62
2, 426214, Note_off_c, 0, 70, 59
2, 426282, Note_off_c, 0, 41, 55
2, 426283, Note_off_c, 0, 50, 57
2, 426332, Control_c, 0, 64, 0
2, 426361, Note_on_c, 0, 80, 72
2, 426368, Note_on_c, 0, 68, 57
2, 426521, Note_on_c, 0, 48, 71
2, 426522, Note_on_c, 0, 39, 65
2, 426545, Control_c, 0, 64, 95
2, 426581, Note_off_c, 0, 68, 54
2, 426600, Note_off_c, 0, 39, 56
2, 426605, Note_off_c, 0, 48, 58
2, 426645, Note_off_c, 0, 80, 58
2, 426677, Note_on_c, 0, 48, 72
2, 426679, Note_on_c, 0, 39, 64
2, 426768, Control_c, 0, 64, 0
2, 426823, Note_on_c, 0, 58, 96
2, 426826, Note_off_c, 0, 48, 58
2, 426827, Note_off_c, 0, 39, 56
2, 426830, Note_on_c, 0, 56, 80
2, 426964, Note_on_c, 0, 46, 84
2, 426966, Note_on_c, 0, 38, 76
2, 426983, Control_c, 0, 64, 95
2, 427040, Note_off_c, 0, 46, 61
2, 427049, Note_off_c, 0, 38, 59
2, 427070, Note_off_c, 0, 56, 60
2, 427090, Note_off_c, 0, 58, 63
2, 427107, Note_on_c, 0, 46, 84
2, 427109, Note_on_c, 0, 38, 70
2, 427187, Note_off_c, 0, 46, 61
2, 427197, Note_off_c, 0, 38, 57
2, 427199, Control_c, 0, 64, 0
2, 427248, Note_on_c, 0, 63, 94
2, 427251, Note_on_c, 0, 58, 78
2, 427252, Note_on_c, 0, 56, 70
2, 427256, Note_on_c, 0, 51, 80
2, 427394, Note_on_c, 0, 46, 78
2, 427395, Note_on_c, 0, 36, 70
2, 427414, Control_c, 0, 64, 95
2, 427472, Note_off_c, 0, 46, 59
2, 427483, Note_off_c, 0, 36, 57
2, 427492, Note_off_c, 0, 58, 59
2, 427497, Note_off_c, 0, 51, 60
2, 427504, Note_off_c, 0, 63, 63
2, 427531, Note_off_c, 0, 56, 57
2, 427537, Note_on_c, 0, 46, 75
2, 427539, Note_on_c, 0, 36, 66
2, 427613, Note_off_c, 0, 36, 56
2, 427625, Note_off_c, 0, 46, 59
2, 427683, Note_on_c, 0, 62, 88
2, 427686, Note_on_c, 0, 58, 68
2, 427687, Note_on_c, 0, 46, 72
2, 427688, Note_on_c, 0, 34, 65
2, 427689, Note_on_c, 0, 50, 88
2, 427690, Note_on_c, 0, 56, 78
2, 427715, Control_c, 0, 64, 0
2, 427853, Note_off_c, 0, 62, 62
2, 427861, Note_off_c, 0, 50, 62
2, 427888, Note_off_c, 0, 56, 59
2, 427889, Note_off_c, 0, 58, 57
2, 427929, Control_c, 0, 64, 95
2, 427987, Note_on_c, 0, 68, 100
2, 428170, Control_c, 0, 64, 0
2, 428460, Note_off_c, 0, 68, 65
2, 428463, Note_on_c, 0, 65, 82
2, 428604, Note_off_c, 0, 34, 56
2, 428606, Note_off_c, 0, 65, 60
2, 428607, Note_on_c, 0, 62, 80
2, 428705, Note_off_c, 0, 62, 60
2, 428760, Control_c, 0, 64, 0
2, 428875, Note_on_c, 0, 80, 96
2, 428877, Note_on_c, 0, 59, 82
2, 428881, Note_on_c, 0, 68, 78
2, 428965, Control_c, 0, 64, 127
2, 429292, Note_off_c, 0, 68, 59
2, 429354, Note_on_c, 0, 77, 74
2, 429357, Note_on_c, 0, 56, 60
2, 429360, Note_on_c, 0, 65, 62
2, 429410, Note_off_c, 0, 59, 60
2, 429450, Note_off_c, 0, 80, 63
2, 429491, Note_off_c, 0, 65, 55
2, 429498, Note_on_c, 0, 74, 72
2, 429500, Note_on_c, 0, 53, 60
2, 429505, Note_on_c, 0, 62, 56
2, 429522, Note_off_c, 0, 77, 59
2, 429523, Note_off_c, 0, 56, 55
2, 429597, Note_off_c, 0, 53, 55
2, 429600, Note_off_c, 0, 74, 58
2, 429603, Note_off_c, 0, 62, 54
2, 429681, Control_c, 0, 64, 0
2, 429782, Note_on_c, 0, 68, 96
2, 429885, Control_c, 0, 64, 127
2, 430181, Note_off_c, 0, 46, 58
2, 430261, Note_on_c, 0, 65, 84
2, 430330, Note_off_c, 0, 68, 63
2, 430387, Note_on_c, 0, 62, 80
2, 430411, Note_off_c, 0, 65, 61
2, 430501, Control_c, 0, 64, 0
2, 430506, Note_off_c, 0, 62, 60
2, 430673, Note_on_c, 0, 83, 96
2, 430676, Note_on_c, 0, 56, 84
2, 430677, Note_on_c, 0, 71, 80
2, 430705, Control_c, 0, 64, 127
2, 431127, Note_off_c, 0, 71, 60
2, 431153, Note_on_c, 0, 80, 84
2, 431156, Note_on_c, 0, 53, 72
2, 431159, Note_on_c, 0, 68, 64
2, 431177, Note_off_c, 0, 56, 61
2, 431215, Note_off_c, 0, 83, 63
2, 431269, Note_off_c, 0, 68, 56
2, 431296, Note_on_c, 0, 77, 72
2, 431297, Note_on_c, 0, 50, 55
2, 431302, Note_on_c, 0, 65, 60
2, 431305, Note_off_c, 0, 80, 61
2, 431307, Note_off_c, 0, 53, 58
2, 431390, Note_off_c, 0, 77, 58
2, 431394, Note_off_c, 0, 65, 55
2, 431403, Note_off_c, 0, 50, 53
2, 431457, Control_c, 0, 64, 0
2, 431580, Note_on_c, 0, 71, 61
2, 431662, Control_c, 0, 64, 127
2, 432043, Note_on_c, 0, 68, 60
2, 432055, Note_off_c, 0, 71, 55
2, 432203, Note_on_c, 0, 65, 55
2, 432219, Note_off_c, 0, 68, 55
2, 432319, Note_off_c, 0, 65, 53
2, 432368, Control_c, 0, 64, 0
2, 432488, Note_on_c, 0, 71, 60
2, 432572, Control_c, 0, 64, 127
2, 432982, Note_on_c, 0, 68, 55
2, 433074, Note_off_c, 0, 71, 55
2, 433140, Note_on_c, 0, 65, 48
2, 433149, Note_off_c, 0, 68, 53
2, 433274, Note_off_c, 0, 65, 52
2, 433356, Control_c, 0, 64, 0
2, 433445, Note_on_c, 0, 71, 84
2, 433561, Control_c, 0, 64, 127
2, 433936, Note_on_c, 0, 70, 72
2, 433977, Note_off_c, 0, 71, 61
2, 434096, Note_on_c, 0, 69, 60
2, 434127, Note_off_c, 0, 70, 58
2, 434226, Note_off_c, 0, 69, 55
2, 434247, Control_c, 0, 64, 0
2, 434428, Note_on_c, 0, 69, 84
2, 434431, Note_on_c, 0, 60, 72
2, 434451, Control_c, 0, 64, 127
2, 434895, Note_off_c, 0, 60, 58
2, 434922, Note_on_c, 0, 68, 56
2, 434927, Note_on_c, 0, 59, 45
2, 434959, Note_off_c, 0, 69, 61
2, 435099, Note_on_c, 0, 67, 54
2, 435101, Note_on_c, 0, 58, 44
2, 435105, Note_off_c, 0, 59, 51
2, 435113, Note_off_c, 0, 68, 54
2, 435213, Control_c, 0, 64, 0
2, 435215, Note_off_c, 0, 67, 53
2, 435224, Note_off_c, 0, 58, 51
2, 435418, Control_c, 0, 64, 127
2, 435462, Note_on_c, 0, 79, 51
2, 435465, Note_on_c, 0, 58, 35
2, 435468, Note_on_c, 0, 67, 40
2, 435965, Note_off_c, 0, 67, 50
2, 436006, Note_on_c, 0, 78, 47
2, 436009, Note_on_c, 0, 57, 32
2, 436013, Note_on_c, 0, 66, 36
2, 436042, Note_off_c, 0, 58, 48
2, 436075, Note_off_c, 0, 79, 52
2, 436169, Note_off_c, 0, 66, 49
2, 436183, Note_on_c, 0, 77, 45
2, 436185, Note_on_c, 0, 56, 30
2, 436189, Note_on_c, 0, 65, 34
2, 436214, Note_off_c, 0, 78, 51
2, 436216, Note_off_c, 0, 57, 48
2, 436312, Note_off_c, 0, 65, 48
2, 436316, Note_off_c, 0, 56, 47
2, 436319, Note_off_c, 0, 77, 51
2, 436327, Control_c, 0, 64, 0
2, 436532, Control_c, 0, 64, 127
2, 436560, Note_on_c, 0, 76, 66
2, 436565, Note_on_c, 0, 55, 55
2, 436569, Note_on_c, 0, 64, 42
2, 437034, Note_off_c, 0, 64, 50
2, 437119, Note_off_c, 0, 76, 56
2, 437121, Note_off_c, 0, 55, 53
2, 437122, Note_on_c, 0, 75, 40
2, 437126, Note_on_c, 0, 54, 26
2, 437128, Note_on_c, 0, 69, 30
2, 437129, Note_on_c, 0, 63, 32
2, 437280, Control_c, 0, 64, 0
2, 437283, Note_off_c, 0, 69, 47
2, 437293, Note_off_c, 0, 54, 46
2, 437315, Note_on_c, 0, 68, 36
2, 437316, Note_on_c, 0, 53, 24
2, 437317, Note_on_c, 0, 46, 20
2, 437483, Control_c, 0, 64, 127
2, 438194, Note_off_c, 0, 63, 48
2, 438456, Note_off_c, 0, 75, 50
2, 438457, Note_on_c, 0, 74, 48
2, 438462, Note_on_c, 0, 62, 36
2, 438464, Note_on_c, 0, 58, 24
2, 438588, Control_c, 0, 64, 0
2, 438794, Control_c, 0, 64, 127
2, 439019, Note_off_c, 0, 68, 49
2, 439123, Note_off_c, 0, 46, 45
2, 439329, Note_off_c, 0, 53, 46
2, 439455, Note_off_c, 0, 62, 49
2, 439461, Note_off_c, 0, 58, 46
2, 439600, Note_off_c, 0, 74, 52
2, 439609, Note_on_c, 0, 75, 48
2, 439611, Note_on_c, 0, 39, 26
2, 439612, Note_on_c, 0, 67, 40
2, 439613, Note_on_c, 0, 63, 34
2, 439743, Note_off_c, 0, 39, 46
2, 439745, Note_on_c, 0, 51, 40
2, 439825, Note_off_c, 0, 63, 48
2, 439835, Note_off_c, 0, 67, 50
2, 439853, Note_off_c, 0, 51, 50
2, 439888, Note_off_c, 0, 75, 52
2, 439889, Note_on_c, 0, 51, 40
2, 439936, Control_c, 0, 64, 0
2, 439997, Note_off_c, 0, 51, 50
2, 440037, Note_on_c, 0, 51, 41
2, 440145, Note_off_c, 0, 51, 50
2, 440182, Note_on_c, 0, 51, 42
2, 440290, Note_off_c, 0, 51, 50
2, 440333, Note_on_c, 0, 51, 42
2, 440441, Note_off_c, 0, 51, 50
2, 440492, Note_on_c, 0, 67, 52
2, 440495, Note_on_c, 0, 63, 40
2, 440497, Note_on_c, 0, 58, 35
2, 440498, Note_on_c, 0, 51, 43
2, 440606, Note_off_c, 0, 51, 50
2, 440634, Note_on_c, 0, 51, 44
2, 440746, Note_off_c, 0, 51, 51
2, 440781, Note_on_c, 0, 51, 44
2, 440891, Note_off_c, 0, 51, 51
2, 440939, Note_on_c, 0, 51, 45
2, 441050, Note_off_c, 0, 51, 51
2, 441080, Note_on_c, 0, 51, 46
2, 441118, Note_off_c, 0, 58, 48
2, 441132, Note_off_c, 0, 63, 50
2, 441153, Note_off_c, 0, 67, 53
2, 441190, Note_off_c, 0, 51, 51
2, 441225, Note_on_c, 0, 51, 46
2, 441335, Note_off_c, 0, 51, 51
2, 441346, Control_c, 0, 64, 98
2, 441384, Note_on_c, 0, 63, 60
2, 441386, Note_on_c, 0, 58, 40
2, 441387, Note_on_c, 0, 55, 55
2, 441388, Note_on_c, 0, 39, 38
2, 441525, Note_off_c, 0, 39, 49
2, 441527, Note_on_c, 0, 51, 40
2, 441609, Note_off_c, 0, 58, 50
2, 441610, Note_off_c, 0, 63, 55
2, 441618, Note_off_c, 0, 55, 53
2, 441638, Note_off_c, 0, 51, 50
2, 441674, Note_on_c, 0, 51, 41
2, 441723, Control_c, 0, 64, 0
2, 441783, Note_off_c, 0, 51, 50
2, 441814, Note_on_c, 0, 51, 42
2, 441924, Note_off_c, 0, 51, 50
2, 441971, Note_on_c, 0, 51, 43
2, 442082, Note_off_c, 0, 51, 50
2, 442115, Note_on_c, 0, 51, 45
2, 442227, Note_off_c, 0, 51, 51
2, 442260, Note_on_c, 0, 70, 70
2, 442263, Note_on_c, 0, 51, 46
2, 442266, Note_on_c, 0, 63, 60
2, 442267, Note_on_c, 0, 58, 62
2, 442268, Note_on_c, 0, 67, 50
2, 442279, Control_c, 0, 64, 98
2, 442353, Note_off_c, 0, 51, 51
2, 442402, Note_on_c, 0, 51, 47
2, 442513, Note_off_c, 0, 51, 51
2, 442574, Control_c, 0, 64, 0
2, 442705, Note_on_c, 0, 51, 50
2, 442800, Note_off_c, 0, 51, 52
2, 442849, Note_on_c, 0, 51, 51
2, 442923, Note_off_c, 0, 58, 55
2, 442926, Note_off_c, 0, 63, 55
2, 442959, Note_off_c, 0, 51, 52
2, 442985, Note_off_c, 0, 67, 52
2, 442990, Note_on_c, 0, 51, 52
2, 443101, Note_off_c, 0, 51, 53
2, 443121, Control_c, 0, 64, 98
2, 443134, Note_off_c, 0, 70, 57
2, 443141, Note_on_c, 0, 39, 53
2, 443143, Note_on_c, 0, 67, 76
2, 443144, Note_on_c, 0, 63, 56
2, 443146, Note_on_c, 0, 58, 70
2, 443147, Note_on_c, 0, 55, 64
2, 443212, Note_off_c, 0, 39, 53
2, 443215, Note_on_c, 0, 51, 54
2, 443293, Note_off_c, 0, 51, 53
2, 443294, Note_on_c, 0, 50, 55
2, 443338, Control_c, 0, 64, 0
2, 443358, Note_off_c, 0, 50, 53
2, 443360, Note_on_c, 0, 51, 55
2, 443392, Note_off_c, 0, 55, 56
2, 443398, Note_off_c, 0, 63, 54
2, 443400, Note_off_c, 0, 67, 59
2, 443402, Note_off_c, 0, 58, 57
2, 443440, Note_off_c, 0, 51, 53
2, 443443, Note_on_c, 0, 50, 56
2, 443517, Note_off_c, 0, 50, 54
2, 443517, Note_on_c, 0, 51, 57
2, 443580, Note_off_c, 0, 51, 54
2, 443581, Note_on_c, 0, 75, 80
2, 443582, Note_on_c, 0, 70, 65
2, 443585, Note_on_c, 0, 50, 57
2, 443586, Note_on_c, 0, 67, 70
2, 443587, Note_on_c, 0, 63, 60
2, 443659, Note_off_c, 0, 50, 54
2, 443662, Note_on_c, 0, 51, 56
2, 443741, Note_off_c, 0, 70, 56
2, 443742, Note_off_c, 0, 75, 60
2, 443745, Note_off_c, 0, 67, 57
2, 443746, Note_off_c, 0, 63, 55
2, 443747, Note_off_c, 0, 51, 54
2, 443748, Note_on_c, 0, 50, 58
2, 443802, Note_off_c, 0, 50, 54
2, 443804, Note_on_c, 0, 51, 59
2, 443881, Note_off_c, 0, 51, 54
2, 443883, Note_on_c, 0, 50, 60
2, 443963, Note_off_c, 0, 50, 55
2, 443964, Note_on_c, 0, 51, 60
2, 444023, Note_off_c, 0, 51, 55
2, 444026, Note_on_c, 0, 70, 84
2, 444027, Note_on_c, 0, 67, 70
2, 444028, Note_on_c, 0, 63, 76
2, 444030, Note_on_c, 0, 58, 66
2, 444031, Note_on_c, 0, 39, 61
2, 444103, Note_off_c, 0, 39, 55
2, 444106, Note_on_c, 0, 51, 62
2, 444185, Note_off_c, 0, 67, 57
2, 444188, Note_off_c, 0, 70, 61
2, 444188, Note_off_c, 0, 58, 56
2, 444190, Note_off_c, 0, 63, 59
2, 444191, Note_off_c, 0, 51, 55
2, 444192, Note_on_c, 0, 50, 62
2, 444247, Note_off_c, 0, 50, 55
2, 444250, Note_on_c, 0, 51, 63
2, 444329, Note_off_c, 0, 51, 55
2, 444331, Note_on_c, 0, 50, 63
2, 444393, Note_off_c, 0, 50, 55
2, 444394, Note_on_c, 0, 51, 64
2, 444469, Note_off_c, 0, 51, 56
2, 444471, Note_on_c, 0, 79, 88
2, 444472, Note_on_c, 0, 75, 70
2, 444474, Note_on_c, 0, 50, 65
2, 444475, Note_on_c, 0, 70, 80
2, 444476, Note_on_c, 0, 67, 69
2, 444551, Note_off_c, 0, 50, 56
2, 444553, Note_on_c, 0, 51, 65
2, 444615, Note_off_c, 0, 75, 57
2, 444616, Note_off_c, 0, 70, 60
2, 444617, Note_off_c, 0, 79, 62
2, 444618, Note_off_c, 0, 67, 57
2, 444620, Note_off_c, 0, 51, 56
2, 444621, Note_on_c, 0, 50, 66
2, 444692, Note_off_c, 0, 50, 56
2, 444694, Note_on_c, 0, 51, 67
2, 444774, Note_off_c, 0, 51, 57
2, 444775, Note_on_c, 0, 50, 67
2, 444854, Note_off_c, 0, 50, 57
2, 444856, Note_on_c, 0, 51, 68
2, 444918, Note_off_c, 0, 51, 57
2, 444920, Note_on_c, 0, 75, 92
2, 444921, Note_on_c, 0, 70, 80
2, 444922, Note_on_c, 0, 39, 68
2, 444923, Note_on_c, 0, 67, 65
2, 444925, Note_on_c, 0, 63, 76
2, 444997, Note_off_c, 0, 39, 57
2, 444998, Note_on_c, 0, 51, 69
2, 445075, Note_off_c, 0, 70, 60
2, 445078, Note_off_c, 0, 75, 62
2, 445078, Note_off_c, 0, 67, 56
2, 445080, Note_off_c, 0, 51, 57
2, 445082, Note_off_c, 0, 63, 59
2, 445082, Note_on_c, 0, 50, 70
2, 445138, Note_off_c, 0, 50, 57
2, 445140, Note_on_c, 0, 51, 70
2, 445218, Note_off_c, 0, 51, 57
2, 445219, Note_on_c, 0, 50, 71
2, 445299, Note_off_c, 0, 50, 58
2, 445301, Note_on_c, 0, 51, 72
2, 445320, Control_c, 0, 64, 98
2, 445362, Note_off_c, 0, 51, 58
2, 445363, Note_on_c, 0, 82, 93
2, 445365, Note_on_c, 0, 79, 77
2, 445366, Note_on_c, 0, 75, 81
2, 445367, Note_on_c, 0, 70, 87
2, 445368, Note_on_c, 0, 50, 72
2, 445441, Note_off_c, 0, 50, 58
2, 445442, Note_on_c, 0, 51, 72
2, 445522, Note_off_c, 0, 51, 58
2, 445524, Note_on_c, 0, 50, 71
2, 445601, Note_off_c, 0, 50, 58
2, 445603, Note_on_c, 0, 51, 70
2, 445679, Note_off_c, 0, 82, 63
2, 445682, Note_off_c, 0, 79, 59
2, 445682, Note_off_c, 0, 70, 61
2, 445684, Note_off_c, 0, 75, 60
2, 445685, Note_off_c, 0, 51, 57
2, 445686, Note_on_c, 0, 50, 70
2, 445744, Note_off_c, 0, 50, 57
2, 445746, Note_on_c, 0, 51, 69
2, 445824, Note_off_c, 0, 51, 57
2, 445826, Note_on_c, 0, 79, 93
2, 445827, Note_on_c, 0, 75, 73
2, 445828, Note_on_c, 0, 70, 81
2, 445830, Note_on_c, 0, 67, 87
2, 445831, Note_on_c, 0, 46, 68
2, 445902, Note_off_c, 0, 46, 57
2, 445904, Note_on_c, 0, 51, 68
2, 445970, Note_off_c, 0, 51, 57
2, 445971, Note_on_c, 0, 50, 67
2, 446047, Note_off_c, 0, 50, 57
2, 446049, Note_on_c, 0, 51, 66
2, 446126, Note_off_c, 0, 75, 58
2, 446127, Note_off_c, 0, 79, 63
2, 446129, Note_off_c, 0, 67, 61
2, 446130, Note_off_c, 0, 70, 60
2, 446131, Note_off_c, 0, 51, 56
2, 446133, Note_on_c, 0, 50, 65
2, 446190, Note_off_c, 0, 50, 56
2, 446192, Note_on_c, 0, 51, 65
2, 446268, Note_off_c, 0, 51, 56
2, 446270, Note_on_c, 0, 87, 87
2, 446271, Note_on_c, 0, 82, 77
2, 446273, Note_on_c, 0, 79, 72
2, 446274, Note_on_c, 0, 75, 81
2, 446275, Note_on_c, 0, 43, 64
2, 446348, Note_off_c, 0, 43, 56
2, 446350, Note_on_c, 0, 51, 63
2, 446429, Note_off_c, 0, 51, 55
2, 446430, Note_on_c, 0, 50, 63
2, 446507, Note_off_c, 0, 50, 55
2, 446510, Note_on_c, 0, 51, 62
2, 446572, Note_off_c, 0, 82, 59
2, 446574, Note_off_c, 0, 87, 61
2, 446575, Note_off_c, 0, 75, 60
2, 446576, Note_off_c, 0, 79, 58
2, 446577, Note_off_c, 0, 51, 55
2, 446578, Note_on_c, 0, 50, 61
2, 446652, Note_off_c, 0, 50, 55
2, 446653, Note_on_c, 0, 51, 60
2, 446722, Control_c, 0, 64, 0
2, 446728, Note_off_c, 0, 51, 55
2, 446732, Note_on_c, 0, 63, 84
2, 446737, Note_on_c, 0, 55, 78
2, 446739, Note_on_c, 0, 39, 74
2, 446743, Note_on_c, 0, 58, 64
2, 446905, Control_c, 0, 64, 98
2, 447049, Note_off_c, 0, 63, 61
2, 447055, Note_off_c, 0, 55, 59
2, 447057, Note_off_c, 0, 39, 59
2, 447061, Note_off_c, 0, 58, 56
2, 447192, Note_on_c, 0, 58, 79
2, 447194, Note_on_c, 0, 56, 74
2, 447195, Note_on_c, 0, 62, 94
2, 447197, Note_on_c, 0, 46, 84
2, 447198, Note_on_c, 0, 53, 90
2, 447200, Note_on_c, 0, 34, 79
2, 447239, Control_c, 0, 64, 0
2, 447419, Control_c, 0, 64, 98
2, 447527, Note_off_c, 0, 58, 60
2, 447529, Note_off_c, 0, 56, 59
2, 447531, Note_off_c, 0, 62, 63
2, 447533, Note_off_c, 0, 46, 61
2, 447534, Note_off_c, 0, 53, 62
2, 447536, Note_off_c, 0, 34, 60
2, 447686, Note_on_c, 0, 63, 82
2, 447688, Note_on_c, 0, 58, 64
2, 447690, Note_on_c, 0, 55, 59
2, 447692, Note_on_c, 0, 51, 48
2, 447693, Note_on_c, 0, 39, 82
2, 447698, Control_c, 0, 64, 0
2, 447879, Control_c, 0, 64, 98
2, 448019, Note_off_c, 0, 63, 60
2, 448021, Note_off_c, 0, 58, 56
2, 448023, Note_off_c, 0, 51, 52
2, 448024, Note_off_c, 0, 55, 54
2, 448025, Note_off_c, 0, 39, 60
2, 448098, Control_c, 0, 64, 0
2, 448169, Note_on_c, 0, 86, 92
2, 448181, Note_on_c, 0, 82, 80
2, 448182, Note_on_c, 0, 80, 71
2, 448183, Note_on_c, 0, 46, 92
2, 448184, Note_on_c, 0, 77, 85
2, 448186, Note_on_c, 0, 74, 80
2, 448187, Note_on_c, 0, 34, 86
2, 448269, Control_c, 0, 64, 98
2, 448355, Note_off_c, 0, 82, 60
2, 448357, Note_off_c, 0, 77, 61
2, 448360, Note_off_c, 0, 46, 62
2, 448360, Note_off_c, 0, 80, 58
2, 448362, Note_off_c, 0, 34, 61
2, 448363, Note_off_c, 0, 74, 60
2, 448423, Note_off_c, 0, 86, 62
2, 448504, Control_c, 0, 64, 0
2, 448714, Note_on_c, 0, 87, 96
2, 448723, Note_on_c, 0, 82, 74
2, 448724, Note_on_c, 0, 79, 86
2, 448726, Note_on_c, 0, 75, 88
2, 448727, Note_on_c, 0, 39, 90
2, 448728, Note_on_c, 0, 51, 96
2, 448872, Control_c, 0, 64, 98
2, 448900, Note_off_c, 0, 82, 59
2, 448901, Note_off_c, 0, 79, 61
2, 448903, Note_off_c, 0, 39, 62
2, 448905, Note_off_c, 0, 75, 62
2, 448906, Note_off_c, 0, 51, 63
2, 448950, Note_off_c, 0, 87, 63
2, 449322, Control_c, 0, 64, 0
2, 454413, Note_on_c, 0, 64, 47
2, 454466, Control_c, 0, 64, 127
2, 454469, Note_on_c, 0, 55, 32
2, 454471, Note_on_c, 0, 43, 22
2, 454475, Note_on_c, 0, 48, 27
2, 454477, Note_on_c, 0, 60, 37
2, 454478, Note_on_c, 0, 36, 22
2, 455717, Note_off_c, 0, 60, 49
2, 455821, Note_off_c, 0, 43, 45
2, 455949, Note_off_c, 0, 55, 48
2, 456133, Note_on_c, 0, 65, 54
2, 456142, Note_off_c, 0, 64, 51
2, 456185, Note_on_c, 0, 43, 27
2, 456187, Note_on_c, 0, 55, 37
2, 456189, Note_on_c, 0, 35, 22
2, 456192, Note_on_c, 0, 47, 32
2, 456193, Control_c, 0, 64, 0
2, 456196, Note_on_c, 0, 62, 42
2, 456211, Note_off_c, 0, 36, 45
2, 456227, Note_off_c, 0, 48, 46
2, 456367, Control_c, 0, 64, 110
2, 456692, Note_off_c, 0, 43, 46
2, 456701, Note_off_c, 0, 35, 45
2, 456722, Note_off_c, 0, 55, 49
2, 456726, Note_off_c, 0, 47, 48
2, 456737, Note_off_c, 0, 62, 50
2, 456768, Note_off_c, 0, 65, 53
2, 456884, Control_c, 0, 64, 0
2, 459692, Note_on_c, 0, 67, 51
2, 459721, Control_c, 0, 64, 127
2, 459758, Note_on_c, 0, 35, 12
2, 459759, Note_on_c, 0, 55, 28
2, 459760, Note_on_c, 0, 47, 24
2, 459761, Note_on_c, 0, 43, 10
2, 461033, Note_off_c, 0, 55, 47
2, 461096, Note_on_c, 0, 62, 40
2, 461119, Note_off_c, 0, 67, 52
2, 461151, Note_off_c, 0, 43, 42
2, 461564, Note_on_c, 0, 64, 28
2, 461617, Note_off_c, 0, 62, 50
2, 461623, Note_on_c, 0, 55, 25
2, 461624, Note_on_c, 0, 48, 20
2, 461626, Note_on_c, 0, 43, 15
2, 461627, Note_on_c, 0, 36, 10
2, 461651, Control_c, 0, 64, 0
2, 461656, Note_off_c, 0, 47, 46
2, 461707, Note_off_c, 0, 35, 43
2, 461827, Control_c, 0, 64, 127
2, 462043, Note_off_c, 0, 48, 45
2, 462105, Note_off_c, 0, 55, 46
2, 462188, Note_off_c, 0, 43, 44
2, 462191, Note_off_c, 0, 36, 42
2, 462315, Note_off_c, 0, 64, 47
2, 462454, Control_c, 0, 64, 0
2, 465508, Control_c, 0, 64, 127
2, 465531, Note_on_c, 0, 64, 57
2, 465618, Note_on_c, 0, 48, 10
2, 465620, Note_on_c, 0, 52, 24
2, 465622, Note_on_c, 0, 60, 35
2, 465626, Note_on_c, 0, 36, 15
2, 465629, Note_on_c, 0, 55, 30
2, 467022, Note_off_c, 0, 60, 48
2, 467050, Note_off_c, 0, 52, 46
2, 467163, Note_off_c, 0, 55, 47
2, 467266, Note_off_c, 0, 48, 42
2, 467317, Note_on_c, 0, 62, 44
2, 467380, Note_off_c, 0, 64, 54
2, 467383, Note_off_c, 0, 36, 44
2, 467386, Note_on_c, 0, 42, 20
2, 467395, Note_on_c, 0, 57, 26
2, 467398, Note_on_c, 0, 30, 10
2, 467399, Note_on_c, 0, 50, 20
2, 467443, Control_c, 0, 64, 0
2, 467603, Control_c, 0, 64, 96
2, 467907, Note_off_c, 0, 50, 45
2, 467914, Note_off_c, 0, 57, 46
2, 467949, Note_off_c, 0, 30, 42
2, 467963, Note_off_c, 0, 42, 45
2, 468014, Note_off_c, 0, 62, 51
2, 468265, Control_c, 0, 64, 0
2, 471062, Note_on_c, 0, 62, 48
2, 471127, Note_on_c, 0, 50, 42
2, 471128, Note_on_c, 0, 42, 24
2, 471129, Note_on_c, 0, 30, 24
2, 471235, Control_c, 0, 64, 127
2, 472433, Note_off_c, 0, 62, 52
2, 472434, Note_on_c, 0, 57, 59
2, 472508, Note_off_c, 0, 50, 50
2, 472661, Note_off_c, 0, 42, 46
2, 472692, Note_off_c, 0, 57, 54
2, 472875, Note_on_c, 0, 60, 72
2, 472947, Note_on_c, 0, 55, 40
2, 472949, Note_on_c, 0, 29, 25
2, 472950, Note_on_c, 0, 41, 30
2, 472952, Note_on_c, 0, 50, 30
2, 472988, Control_c, 0, 64, 0
2, 473058, Note_off_c, 0, 30, 46
2, 473180, Control_c, 0, 64, 127
2, 475852, Note_off_c, 0, 29, 46
2, 475943, Note_off_c, 0, 50, 47
2, 475945, Note_off_c, 0, 55, 50
2, 475953, Note_on_c, 0, 59, 35
2, 475983, Note_off_c, 0, 60, 58
2, 475994, Note_off_c, 0, 41, 47
2, 476584, Note_off_c, 0, 59, 48
2, 476907, Note_on_c, 0, 60, 47
2, 476954, Control_c, 0, 64, 0
2, 476963, Note_on_c, 0, 52, 22
2, 476964, Note_on_c, 0, 55, 27
2, 476965, Note_on_c, 0, 40, 18
2, 477154, Control_c, 0, 64, 127
2, 478213, Note_off_c, 0, 55, 46
2, 478277, Note_off_c, 0, 52, 45
2, 478582, Note_on_c, 0, 62, 60
2, 478625, Note_off_c, 0, 60, 51
2, 478646, Note_on_c, 0, 59, 40
2, 478648, Note_on_c, 0, 55, 35
2, 478649, Note_on_c, 0, 53, 30
2, 478651, Note_on_c, 0, 50, 20
2, 478652, Note_on_c, 0, 38, 29
2, 478685, Control_c, 0, 64, 0
2, 478706, Note_off_c, 0, 40, 44
2, 478861, Control_c, 0, 64, 127
2, 479871, Note_off_c, 0, 53, 47
2, 479901, Note_off_c, 0, 55, 48
2, 479986, Note_off_c, 0, 59, 50
2, 480012, Note_off_c, 0, 50, 45
2, 480304, Note_on_c, 0, 64, 66
2, 480329, Note_off_c, 0, 62, 55
2, 480354, Note_on_c, 0, 48, 34
2, 480357, Note_on_c, 0, 60, 44
2, 480361, Note_on_c, 0, 55, 20
2, 480364, Control_c, 0, 64, 0
2, 480365, Note_on_c, 0, 36, 30
2, 480371, Note_off_c, 0, 38, 47
2, 480533, Control_c, 0, 64, 127
2, 481414, Note_off_c, 0, 55, 45
2, 481430, Note_off_c, 0, 36, 47
2, 481435, Note_off_c, 0, 48, 48
2, 481556, Note_off_c, 0, 60, 51
2, 481709, Note_off_c, 0, 64, 56
2, 481922, Control_c, 0, 67, 127
2, 482197, Note_on_c, 0, 64, 60
2, 482229, Note_on_c, 0, 41, 36
2, 482235, Control_c, 0, 64, 0
2, 482236, Note_on_c, 0, 29, 30
2, 482239, Note_on_c, 0, 55, 35
2, 482243, Note_on_c, 0, 57, 40
2, 482395, Control_c, 0, 64, 127
2, 483504, Note_off_c, 0, 55, 48
2, 483923, Note_on_c, 0, 62, 48
2, 483928, Note_on_c, 0, 53, 33
2, 483936, Control_c, 0, 64, 0
2, 483968, Note_off_c, 0, 64, 55
2, 484101, Control_c, 0, 64, 127
2, 485147, Note_off_c, 0, 57, 50
2, 485237, Note_off_c, 0, 53, 48
2, 485593, Note_off_c, 0, 62, 52
2, 485606, Note_on_c, 0, 60, 36
2, 485626, Note_on_c, 0, 57, 24
2, 485629, Note_on_c, 0, 52, 20
2, 485637, Control_c, 0, 64, 0
2, 485837, Control_c, 0, 64, 127
2, 486162, Note_off_c, 0, 29, 47
2, 486582, Note_off_c, 0, 41, 49
2, 486775, Note_off_c, 0, 57, 46
2, 486842, Note_off_c, 0, 52, 45
2, 487059, Note_off_c, 0, 60, 49
2, 487084, Control_c, 0, 67, 0
2, 487559, Note_on_c, 0, 59, 44
2, 487567, Note_on_c, 0, 43, 34
2, 487569, Note_on_c, 0, 57, 30
2, 487570, Note_on_c, 0, 50, 24
2, 487571, Note_on_c, 0, 31, 39
2, 487592, Control_c, 0, 64, 0
2, 487778, Control_c, 0, 64, 127
2, 489302, Note_on_c, 0, 55, 36
2, 489424, Note_off_c, 0, 57, 47
2, 490189, Note_on_c, 0, 56, 63
2, 490240, Note_off_c, 0, 55, 49
2, 491262, Note_on_c, 0, 55, 42
2, 491336, Note_off_c, 0, 56, 55
2, 492042, Note_off_c, 0, 50, 46
2, 492122, Note_off_c, 0, 55, 50
2, 492184, Note_off_c, 0, 59, 51
2, 492188, Note_off_c, 0, 43, 48
2, 492299, Note_on_c, 0, 59, 36
2, 492348, Note_on_c, 0, 53, 21
2, 492350, Note_on_c, 0, 50, 16
2, 492393, Control_c, 0, 64, 0
2, 492583, Control_c, 0, 64, 127
2, 493035, Note_off_c, 0, 53, 45
2, 493038, Note_off_c, 0, 50, 44
2, 493187, Note_off_c, 0, 59, 49
2, 493373, Note_on_c, 0, 62, 60
2, 493398, Note_off_c, 0, 31, 49
2, 493414, Note_on_c, 0, 36, 48
2, 493427, Note_on_c, 0, 59, 40
2, 493429, Note_on_c, 0, 53, 48
2, 493431, Note_on_c, 0, 43, 36
2, 493490, Control_c, 0, 64, 0
2, 493651, Control_c, 0, 64, 127
2, 494473, Note_off_c, 0, 53, 52
2, 494642, Note_off_c, 0, 43, 49
2, 494704, Note_off_c, 0, 59, 50
2, 495244, Note_off_c, 0, 62, 55
2, 495286, Note_on_c, 0, 60, 48
2, 495294, Note_on_c, 0, 48, 30
2, 495295, Note_on_c, 0, 52, 36
2, 495386, Control_c, 0, 64, 0
2, 495477, Note_off_c, 0, 48, 47
2, 495496, Note_off_c, 0, 60, 52
2, 495596, Control_c, 0, 64, 127
2, 495697, Note_off_c, 0, 52, 49
2, 496337, Note_off_c, 0, 36, 52
2, 497395, Control_c, 0, 64, 0
2, 498925, Note_on_c, 0, 60, 46
2, 499436, Note_off_c, 0, 60, 51
2, 499444, Note_on_c, 0, 67, 52
2, 499467, Control_c, 0, 64, 127
2, 500715, Note_on_c, 0, 66, 48
2, 500772, Note_off_c, 0, 67, 53
2, 500961, Note_off_c, 0, 66, 52
2, 501092, Note_on_c, 0, 74, 58
2, 501144, Note_on_c, 0, 65, 38
2, 501145, Note_on_c, 0, 50, 20
2, 501146, Note_on_c, 0, 45, 15
2, 501151, Note_on_c, 0, 57, 25
2, 501156, Note_on_c, 0, 60, 30
2, 501222, Control_c, 0, 64, 0
2, 501406, Control_c, 0, 64, 127
2, 502129, Note_off_c, 0, 60, 47
2, 502147, Note_off_c, 0, 45, 44
2, 502242, Note_off_c, 0, 65, 49
2, 502290, Note_off_c, 0, 50, 45
2, 502318, Note_off_c, 0, 57, 46
2, 502680, Note_off_c, 0, 74, 54
2, 502901, Note_on_c, 0, 74, 76
2, 502952, Note_on_c, 0, 50, 42
2, 502958, Note_on_c, 0, 60, 54
2, 502961, Note_on_c, 0, 65, 63
2, 502962, Note_on_c, 0, 57, 48
2, 502967, Note_on_c, 0, 45, 31
2, 503021, Control_c, 0, 64, 0
2, 503201, Control_c, 0, 64, 127
2, 504057, Note_off_c, 0, 45, 47
2, 504067, Note_off_c, 0, 50, 50
2, 504140, Note_off_c, 0, 60, 53
2, 504199, Note_off_c, 0, 65, 55
2, 504436, Note_off_c, 0, 57, 52
2, 504766, Note_off_c, 0, 74, 59
2, 505001, Note_on_c, 0, 74, 65
2, 505037, Note_on_c, 0, 71, 42
2, 505060, Note_on_c, 0, 67, 32
2, 505062, Note_on_c, 0, 62, 27
2, 505063, Note_on_c, 0, 59, 22
2, 505065, Note_on_c, 0, 50, 20
2, 505066, Note_on_c, 0, 43, 20
2, 505141, Control_c, 0, 64, 0
2, 505327, Control_c, 0, 64, 127
2, 505871, Note_off_c, 0, 74, 56
2, 505929, Note_on_c, 0, 76, 50
2, 506159, Note_on_c, 0, 74, 54
2, 506164, Note_off_c, 0, 71, 50
2, 506180, Note_off_c, 0, 62, 46
2, 506188, Note_off_c, 0, 76, 52
2, 506217, Note_off_c, 0, 67, 48
2, 506314, Note_on_c, 0, 73, 52
2, 506341, Note_off_c, 0, 74, 53
2, 506466, Note_on_c, 0, 74, 49
2, 506495, Note_off_c, 0, 73, 53
2, 506641, Note_on_c, 0, 79, 76
2, 506678, Note_off_c, 0, 74, 52
2, 506855, Control_c, 0, 64, 0
2, 507031, Control_c, 0, 64, 127
2, 507160, Note_off_c, 0, 50, 45
2, 507531, Note_off_c, 0, 43, 45
2, 507549, Note_off_c, 0, 59, 45
2, 507954, Note_on_c, 0, 71, 36
2, 508012, Note_off_c, 0, 79, 59
2, 508342, Note_on_c, 0, 72, 39
2, 508349, Control_c, 0, 64, 0
2, 508396, Note_off_c, 0, 71, 49
2, 508495, Control_c, 0, 64, 127
2, 508736, Note_on_c, 0, 73, 43
2, 508784, Note_off_c, 0, 72, 49
2, 509121, Note_on_c, 0, 76, 47
2, 509148, Note_off_c, 0, 73, 50
2, 509501, Note_on_c, 0, 74, 51
2, 509554, Note_off_c, 0, 76, 51
2, 509812, Note_off_c, 0, 74, 52
2, 509918, Note_on_c, 0, 67, 36
2, 509929, Control_c, 0, 64, 0
2, 510099, Control_c, 0, 64, 127
2, 511189, Note_on_c, 0, 66, 47
2, 511262, Note_off_c, 0, 67, 49
2, 511481, Note_off_c, 0, 66, 51
2, 511590, Note_on_c, 0, 74, 68
2, 511625, Note_on_c, 0, 60, 24
2, 511625, Note_on_c, 0, 65, 30
2, 511629, Note_on_c, 0, 57, 14
2, 511632, Note_on_c, 0, 50, 10
2, 511635, Note_on_c, 0, 45, 10
2, 511657, Control_c, 0, 64, 0
2, 511824, Control_c, 0, 64, 127
2, 512626, Note_off_c, 0, 60, 46
2, 512655, Note_off_c, 0, 57, 44
2, 512798, Note_off_c, 0, 45, 42
2, 512808, Note_off_c, 0, 50, 42
2, 512872, Note_off_c, 0, 65, 47
2, 513009, Note_off_c, 0, 74, 57
2, 513283, Note_on_c, 0, 74, 77
2, 513318, Note_on_c, 0, 60, 44
2, 513321, Note_on_c, 0, 45, 29
2, 513322, Note_on_c, 0, 65, 49
2, 513330, Note_on_c, 0, 50, 29
2, 513331, Note_on_c, 0, 57, 39
2, 513407, Control_c, 0, 64, 0
2, 513578, Control_c, 0, 64, 127
2, 514393, Note_off_c, 0, 65, 52
2, 514517, Note_off_c, 0, 57, 49
2, 514571, Note_off_c, 0, 45, 47
2, 514598, Note_off_c, 0, 60, 51
2, 514722, Note_off_c, 0, 50, 47
2, 514773, Note_off_c, 0, 74, 59
2, 515277, Note_on_c, 0, 74, 63
2, 515310, Note_on_c, 0, 71, 20
2, 515313, Note_on_c, 0, 67, 20
2, 515320, Note_on_c, 0, 59, 14
2, 515321, Note_on_c, 0, 43, 10
2, 515322, Note_on_c, 0, 62, 20
2, 515324, Note_on_c, 0, 50, 10
2, 515363, Control_c, 0, 64, 0
2, 515548, Control_c, 0, 64, 127
2, 516131, Note_off_c, 0, 74, 55
2, 516150, Note_on_c, 0, 76, 45
2, 516340, Note_off_c, 0, 71, 45
2, 516360, Note_on_c, 0, 74, 48
2, 516364, Note_off_c, 0, 67, 45
2, 516377, Note_off_c, 0, 62, 45
2, 516391, Note_off_c, 0, 76, 51
2, 516513, Note_on_c, 0, 73, 51
2, 516544, Note_off_c, 0, 74, 52
2, 516654, Note_on_c, 0, 74, 54
2, 516686, Note_off_c, 0, 73, 52
2, 516823, Note_on_c, 0, 83, 75
2, 516870, Note_off_c, 0, 74, 53
2, 516934, Control_c, 0, 64, 0
2, 517111, Control_c, 0, 64, 127
2, 517426, Note_off_c, 0, 43, 42
2, 517465, Note_off_c, 0, 50, 42
2, 517518, Note_off_c, 0, 59, 44
2, 518326, Note_on_c, 0, 79, 60
2, 518363, Note_off_c, 0, 83, 59
2, 518373, Control_c, 0, 64, 0
2, 518563, Control_c, 0, 64, 127
2, 518828, Note_on_c, 0, 78, 58
2, 518893, Note_off_c, 0, 79, 55
2, 519027, Note_on_c, 0, 79, 56
2, 519064, Note_off_c, 0, 78, 54
2, 519252, Note_on_c, 0, 81, 55
2, 519269, Note_off_c, 0, 79, 54
2, 519420, Note_on_c, 0, 79, 54
2, 519443, Note_off_c, 0, 81, 53
2, 519597, Note_on_c, 0, 73, 52
2, 519604, Note_off_c, 0, 79, 53
2, 519606, Control_c, 0, 64, 0
2, 519736, Control_c, 0, 64, 127
2, 519791, Note_on_c, 0, 74, 51
2, 519810, Note_off_c, 0, 73, 53
2, 519989, Note_on_c, 0, 76, 50
2, 519995, Note_off_c, 0, 74, 52
2, 520251, Note_on_c, 0, 74, 48
2, 520299, Note_off_c, 0, 76, 52
2, 520449, Note_off_c, 0, 74, 52
2, 520506, Note_on_c, 0, 67, 33
2, 520553, Control_c, 0, 64, 0
2, 520745, Control_c, 0, 64, 127
2, 521812, Note_on_c, 0, 66, 28
2, 521857, Note_off_c, 0, 67, 48
2, 522091, Note_off_c, 0, 66, 47
2, 522201, Note_on_c, 0, 74, 54
2, 522230, Note_on_c, 0, 57, 50
2, 522232, Note_on_c, 0, 65, 34
2, 522233, Note_on_c, 0, 60, 39
2, 522234, Note_on_c, 0, 50, 30
2, 522235, Note_on_c, 0, 45, 42
2, 522236, Control_c, 0, 64, 0
2, 522435, Control_c, 0, 64, 127
2, 522888, Note_off_c, 0, 74, 53
2, 523132, Note_on_c, 0, 74, 57
2, 523196, Note_off_c, 0, 57, 52
2, 523398, Note_off_c, 0, 45, 50
2, 523409, Note_off_c, 0, 65, 48
2, 523480, Note_off_c, 0, 50, 47
2, 523562, Note_off_c, 0, 60, 49
2, 524049, Note_on_c, 0, 65, 74
2, 524050, Note_on_c, 0, 50, 66
2, 524053, Note_on_c, 0, 44, 46
2, 524054, Note_on_c, 0, 56, 56
2, 524055, Note_on_c, 0, 60, 54
2, 524132, Control_c, 0, 64, 0
2, 524332, Control_c, 0, 64, 127
2, 524854, Note_off_c, 0, 74, 54
2, 525021, Note_on_c, 0, 74, 78
2, 525183, Note_off_c, 0, 44, 51
2, 525255, Note_off_c, 0, 56, 54
2, 525284, Note_off_c, 0, 60, 53
2, 525437, Note_off_c, 0, 50, 56
2, 525455, Note_off_c, 0, 65, 59
2, 525994, Note_on_c, 0, 43, 78
2, 526145, Note_on_c, 0, 47, 79
2, 526195, Control_c, 0, 64, 0
2, 526284, Note_on_c, 0, 50, 81
2, 526396, Control_c, 0, 64, 127
2, 526401, Note_on_c, 0, 53, 82
2, 526497, Note_on_c, 0, 55, 84
2, 526532, Note_off_c, 0, 43, 59
2, 526598, Note_off_c, 0, 55, 61
2, 526639, Note_off_c, 0, 53, 60
2, 526668, Note_off_c, 0, 50, 60
2, 526675, Note_off_c, 0, 47, 60
2, 526814, Note_off_c, 0, 74, 59
2, 526958, Note_on_c, 0, 74, 72
2, 527075, Note_off_c, 0, 74, 58
2, 527077, Note_on_c, 0, 76, 72
2, 527192, Note_off_c, 0, 76, 58
2, 527194, Note_on_c, 0, 77, 84
2, 528160, Note_on_c, 0, 55, 48
2, 528394, Note_on_c, 0, 59, 48
2, 528428, Control_c, 0, 64, 0
2, 528598, Control_c, 0, 64, 127
2, 528627, Note_off_c, 0, 77, 61
2, 528631, Note_on_c, 0, 62, 48
2, 528786, Note_off_c, 0, 55, 52
2, 528810, Note_off_c, 0, 59, 52
2, 528862, Note_on_c, 0, 76, 36
2, 528865, Note_on_c, 0, 65, 48
2, 528933, Note_off_c, 0, 62, 52
2, 529016, Note_off_c, 0, 65, 52
2, 529101, Note_on_c, 0, 74, 30
2, 529183, Note_off_c, 0, 76, 49
2, 529360, Note_off_c, 0, 74, 47
2, 529513, Control_c, 0, 64, 0
2, 529798, Note_on_c, 0, 72, 33
2, 530035, Note_on_c, 0, 71, 27
2, 530074, Note_off_c, 0, 72, 48
2, 530220, Note_off_c, 0, 71, 46
2, 530787, Note_on_c, 0, 69, 29
2, 531037, Note_on_c, 0, 67, 22
2, 531100, Note_off_c, 0, 69, 47
2, 531304, Note_off_c, 0, 67, 45
2, 531787, Note_on_c, 0, 65, 37
2, 531870, Control_c, 0, 67, 127
2, 531946, Note_off_c, 0, 65, 49
2, 531947, Control_c, 0, 64, 0
2, 532011, Note_on_c, 0, 64, 42
2, 532049, Note_on_c, 0, 36, 24
2, 532051, Note_on_c, 0, 55, 20
2, 532052, Note_on_c, 0, 48, 34
2, 532196, Control_c, 0, 64, 127
2, 533173, Note_off_c, 0, 55, 45
2, 533713, Note_off_c, 0, 36, 46
2, 533714, Note_on_c, 0, 65, 42
2, 533752, Note_on_c, 0, 55, 30
2, 533753, Note_on_c, 0, 50, 26
2, 533754, Note_on_c, 0, 35, 20
2, 533760, Note_off_c, 0, 48, 48
2, 533788, Note_off_c, 0, 64, 50
2, 533840, Control_c, 0, 64, 0
2, 534025, Control_c, 0, 64, 127
2, 534205, Note_off_c, 0, 35, 45
2, 534211, Note_off_c, 0, 55, 47
2, 534226, Note_off_c, 0, 50, 46
2, 534413, Note_off_c, 0, 65, 50
2, 534556, Control_c, 0, 64, 0
2, 537412, Note_on_c, 0, 67, 48
2, 537489, Note_on_c, 0, 43, 23
2, 537490, Note_on_c, 0, 35, 26
2, 537491, Note_on_c, 0, 55, 33
2, 537492, Note_on_c, 0, 47, 36
2, 537519, Control_c, 0, 64, 127
2, 538556, Note_off_c, 0, 55, 48
2, 538729, Note_on_c, 0, 62, 52
2, 538731, Note_off_c, 0, 43, 45
2, 538756, Note_off_c, 0, 67, 52
2, 539167, Note_on_c, 0, 64, 45
2, 539212, Note_off_c, 0, 62, 53
2, 539246, Note_on_c, 0, 48, 36
2, 539247, Note_on_c, 0, 55, 30
2, 539248, Note_on_c, 0, 43, 26
2, 539249, Note_on_c, 0, 36, 17
2, 539268, Note_off_c, 0, 35, 46
2, 539285, Note_off_c, 0, 47, 49
2, 539293, Control_c, 0, 64, 0
2, 539502, Control_c, 0, 64, 127
2, 539660, Note_off_c, 0, 48, 49
2, 539684, Note_off_c, 0, 43, 46
2, 539711, Note_off_c, 0, 55, 47
2, 539727, Note_off_c, 0, 36, 44
2, 539870, Note_off_c, 0, 64, 51
2, 539986, Control_c, 0, 64, 0
2, 541263, Control_c, 0, 67, 0
2, 542924, Note_on_c, 0, 67, 60
2, 542955, Control_c, 0, 64, 127
2, 542984, Note_on_c, 0, 57, 40
2, 542986, Note_on_c, 0, 49, 45
2, 542986, Note_on_c, 0, 45, 36
2, 542988, Note_on_c, 0, 37, 30
2, 543895, Note_off_c, 0, 49, 51
2, 543924, Note_off_c, 0, 57, 50
2, 544041, Note_off_c, 0, 45, 49
2, 544175, Note_off_c, 0, 37, 47
2, 544211, Note_on_c, 0, 64, 60
2, 544255, Note_off_c, 0, 67, 55
2, 544465, Note_off_c, 0, 64, 55
2, 544631, Note_on_c, 0, 65, 61
2, 544689, Note_on_c, 0, 50, 49
2, 544690, Note_on_c, 0, 57, 41
2, 544691, Note_on_c, 0, 38, 38
2, 544700, Control_c, 0, 64, 0
2, 544871, Control_c, 0, 64, 127
2, 545192, Note_off_c, 0, 57, 50
2, 545198, Note_off_c, 0, 38, 49
2, 545250, Note_off_c, 0, 50, 52
2, 545592, Note_on_c, 0, 58, 73
2, 545593, Note_on_c, 0, 53, 49
2, 545607, Control_c, 0, 64, 0
2, 545777, Control_c, 0, 64, 127
2, 546047, Note_off_c, 0, 65, 55
2, 546059, Note_on_c, 0, 70, 66
2, 546277, Note_on_c, 0, 69, 62
2, 546319, Note_off_c, 0, 70, 56
2, 546443, Note_off_c, 0, 69, 55
2, 546467, Note_off_c, 0, 53, 52
2, 546492, Note_on_c, 0, 67, 67
2, 546512, Note_on_c, 0, 55, 56
2, 546514, Note_on_c, 0, 52, 45
2, 546523, Control_c, 0, 64, 0
2, 546704, Control_c, 0, 64, 127
2, 547446, Note_off_c, 0, 58, 58
2, 547479, Note_on_c, 0, 60, 68
2, 547537, Control_c, 0, 64, 0
2, 547708, Control_c, 0, 64, 127
2, 547946, Note_off_c, 0, 67, 57
2, 547964, Note_on_c, 0, 72, 72
2, 548199, Note_on_c, 0, 70, 68
2, 548269, Note_off_c, 0, 72, 58
2, 548382, Note_off_c, 0, 70, 57
2, 548413, Note_off_c, 0, 55, 54
2, 548424, Note_off_c, 0, 52, 51
2, 548432, Note_on_c, 0, 69, 72
2, 548452, Note_on_c, 0, 57, 60
2, 548454, Note_on_c, 0, 53, 48
2, 548459, Control_c, 0, 64, 0
2, 548643, Control_c, 0, 64, 127
2, 549259, Note_off_c, 0, 60, 57
2, 549285, Note_on_c, 0, 54, 54
2, 549287, Note_on_c, 0, 62, 74
2, 549292, Control_c, 0, 64, 0
2, 549363, Note_off_c, 0, 53, 52
2, 549463, Control_c, 0, 64, 127
2, 549701, Note_off_c, 0, 69, 58
2, 549719, Note_on_c, 0, 74, 63
2, 549811, Note_off_c, 0, 57, 55
2, 549936, Note_on_c, 0, 72, 62
2, 549976, Note_off_c, 0, 74, 55
2, 550079, Note_off_c, 0, 72, 55
2, 550118, Note_on_c, 0, 71, 60
2, 550141, Note_on_c, 0, 59, 48
2, 550143, Note_on_c, 0, 55, 36
2, 550146, Control_c, 0, 64, 0
2, 550225, Note_off_c, 0, 54, 53
2, 550331, Control_c, 0, 64, 127
2, 550839, Note_off_c, 0, 59, 52
2, 550942, Note_off_c, 0, 62, 59
2, 551026, Note_on_c, 0, 77, 78
2, 551035, Note_off_c, 0, 71, 55
2, 551074, Note_on_c, 0, 65, 54
2, 551076, Note_on_c, 0, 59, 30
2, 551077, Note_on_c, 0, 62, 40
2, 551078, Note_on_c, 0, 56, 45
2, 551130, Control_c, 0, 64, 0
2, 551133, Note_off_c, 0, 55, 49
2, 551306, Control_c, 0, 64, 127
2, 552008, Note_on_c, 0, 57, 40
2, 552123, Note_off_c, 0, 56, 51
2, 552540, Note_off_c, 0, 59, 47
2, 552964, Note_on_c, 0, 76, 48
2, 553014, Note_on_c, 0, 64, 28
2, 553017, Note_on_c, 0, 60, 30
2, 553021, Note_off_c, 0, 65, 53
2, 553027, Control_c, 0, 64, 0
2, 553044, Note_off_c, 0, 77, 59
2, 553048, Note_off_c, 0, 62, 50
2, 553236, Control_c, 0, 64, 127
2, 553592, Note_off_c, 0, 64, 47
2, 553640, Note_off_c, 0, 60, 47
2, 553714, Note_off_c, 0, 76, 52
2, 553747, Control_c, 0, 67, 127
2, 553792, Note_off_c, 0, 57, 50
2, 553984, Note_on_c, 0, 62, 36
2, 554014, Note_on_c, 0, 54, 24
2, 554015, Note_on_c, 0, 60, 30
2, 554039, Control_c, 0, 64, 0
2, 554211, Control_c, 0, 64, 127
2, 555635, Note_off_c, 0, 60, 47
2, 555652, Note_off_c, 0, 62, 49
2, 555700, Note_on_c, 0, 69, 53
2, 555913, Note_on_c, 0, 67, 51
2, 555917, Note_off_c, 0, 69, 53
2, 555921, Note_off_c, 0, 54, 46
2, 555953, Note_on_c, 0, 64, 38
2, 555955, Note_on_c, 0, 55, 26
2, 555957, Note_on_c, 0, 60, 31
2, 555961, Control_c, 0, 64, 0
2, 556136, Control_c, 0, 64, 127
2, 557006, Note_off_c, 0, 64, 49
2, 557183, Note_off_c, 0, 67, 52
2, 557208, Note_off_c, 0, 60, 47
2, 557562, Note_on_c, 0, 67, 39
2, 557677, Note_off_c, 0, 67, 49
2, 557817, Note_on_c, 0, 67, 37
2, 557860, Note_off_c, 0, 55, 46
2, 557875, Note_on_c, 0, 62, 15
2, 557876, Note_on_c, 0, 59, 25
2, 557877, Note_on_c, 0, 53, 21
2, 557878, Note_on_c, 0, 43, 15
2, 557879, Note_on_c, 0, 31, 22
2, 557892, Control_c, 0, 64, 0
2, 558067, Control_c, 0, 64, 127
2, 559170, Note_off_c, 0, 67, 49
2, 559210, Note_off_c, 0, 62, 44
2, 559232, Note_off_c, 0, 59, 46
2, 559475, Note_off_c, 0, 31, 45
2, 559489, Note_off_c, 0, 53, 45
2, 559654, Note_off_c, 0, 43, 44
2, 559695, Note_on_c, 0, 67, 33
2, 559901, Note_on_c, 0, 61, 49
2, 559945, Note_off_c, 0, 67, 48
2, 559949, Note_on_c, 0, 55, 23
2, 559951, Note_on_c, 0, 52, 30
2, 559952, Note_on_c, 0, 46, 23
2, 559953, Note_on_c, 0, 34, 16
2, 559977, Control_c, 0, 64, 0
2, 560154, Control_c, 0, 64, 127
2, 561284, Note_off_c, 0, 52, 47
2, 561345, Note_off_c, 0, 34, 44
2, 561393, Note_off_c, 0, 55, 45
2, 561503, Note_off_c, 0, 46, 45
2, 561717, Note_off_c, 0, 61, 52
2, 561957, Control_c, 0, 67, 0
2, 562498, Control_c, 0, 64, 0
2, 562658, Note_on_c, 0, 61, 97
2, 562668, Note_on_c, 0, 55, 81
2, 562671, Note_on_c, 0, 52, 85
2, 562672, Note_on_c, 0, 45, 89
2, 562673, Note_on_c, 0, 33, 75
2, 562738, Control_c, 0, 64, 127
2, 562788, Note_off_c, 0, 52, 61
2, 562815, Note_off_c, 0, 55, 60
2, 562854, Note_off_c, 0, 61, 64
2, 562880, Note_off_c, 0, 45, 62
2, 562885, Note_off_c, 0, 33, 59
2, 563024, Control_c, 0, 64, 0
2, 563628, Note_on_c, 0, 62, 98
2, 563639, Note_on_c, 0, 57, 84
2, 563640, Note_on_c, 0, 53, 74
2, 563641, Note_on_c, 0, 50, 89
2, 563644, Note_on_c, 0, 45, 83
2, 563645, Note_on_c, 0, 38, 75
2, 563713, Control_c, 0, 64, 127
2, 563773, Note_off_c, 0, 57, 61
2, 563808, Note_off_c, 0, 50, 62
2, 563812, Note_off_c, 0, 53, 59
2, 563820, Note_off_c, 0, 45, 60
2, 563842, Note_off_c, 0, 38, 59
2, 563848, Note_off_c, 0, 62, 64
2, 563951, Control_c, 0, 64, 0
2, 564664, Note_on_c, 0, 64, 94
2, 564672, Note_on_c, 0, 57, 85
2, 564675, Note_on_c, 0, 52, 89
2, 564677, Note_on_c, 0, 49, 77
2, 564679, Note_on_c, 0, 37, 87
2, 564706, Control_c, 0, 64, 127
2, 564847, Note_off_c, 0, 64, 63
2, 564852, Note_off_c, 0, 57, 61
2, 564862, Note_off_c, 0, 52, 62
2, 564867, Note_off_c, 0, 49, 59
2, 564869, Note_off_c, 0, 37, 61
2, 564960, Control_c, 0, 64, 0
2, 568777, Control_c, 0, 64, 127
2, 568830, Note_on_c, 0, 52, 85
2, 568831, Note_on_c, 0, 57, 76
2, 568833, Note_on_c, 0, 49, 90
2, 568836, Note_on_c, 0, 37, 80
2, 568838, Note_on_c, 0, 64, 96
2, 568967, Note_off_c, 0, 49, 62
2, 568972, Note_off_c, 0, 64, 63
2, 568984, Note_off_c, 0, 37, 60
2, 568992, Note_off_c, 0, 52, 61
2, 568996, Note_off_c, 0, 57, 59
2, 569059, Control_c, 0, 64, 0
2, 569805, Note_on_c, 0, 62, 80
2, 569806, Note_on_c, 0, 57, 90
2, 569808, Note_on_c, 0, 65, 95
2, 569809, Note_on_c, 0, 50, 80
2, 569811, Note_on_c, 0, 45, 78
2, 569812, Note_on_c, 0, 38, 89
2, 569813, Note_on_c, 0, 53, 88
2, 569820, Control_c, 0, 64, 127
2, 569987, Note_off_c, 0, 57, 62
2, 569993, Note_off_c, 0, 50, 60
2, 570000, Note_off_c, 0, 62, 60
2, 570010, Note_off_c, 0, 65, 63
2, 570012, Note_off_c, 0, 38, 62
2, 570014, Note_off_c, 0, 45, 59
2, 570029, Note_off_c, 0, 53, 62
2, 570103, Control_c, 0, 64, 0
2, 571003, Note_on_c, 0, 67, 98
2, 571022, Note_on_c, 0, 64, 80
2, 571024, Note_on_c, 0, 36, 80
2, 571026, Note_on_c, 0, 60, 90
2, 571027, Note_on_c, 0, 48, 75
2, 571029, Note_on_c, 0, 55, 85
2, 571058, Control_c, 0, 64, 127
2, 571177, Note_off_c, 0, 64, 60
2, 571197, Note_off_c, 0, 55, 61
2, 571219, Note_off_c, 0, 48, 59
2, 571222, Note_off_c, 0, 60, 62
2, 571225, Note_off_c, 0, 36, 60
2, 571233, Note_off_c, 0, 67, 64
2, 571340, Control_c, 0, 64, 0
2, 575396, Control_c, 0, 67, 127
2, 575615, Control_c, 0, 64, 127
2, 575625, Note_on_c, 0, 67, 46
2, 575679, Note_on_c, 0, 48, 32
2, 575682, Note_on_c, 0, 55, 22
2, 575684, Note_on_c, 0, 64, 26
2, 575685, Note_on_c, 0, 36, 22
2, 575686, Note_on_c, 0, 60, 36
2, 576345, Note_off_c, 0, 64, 46
2, 576374, Note_off_c, 0, 55, 45
2, 576380, Note_off_c, 0, 48, 48
2, 576388, Note_off_c, 0, 60, 49
2, 576713, Note_on_c, 0, 69, 58
2, 576741, Note_off_c, 0, 67, 51
2, 576759, Note_on_c, 0, 48, 26
2, 576760, Note_on_c, 0, 53, 32
2, 576765, Note_on_c, 0, 41, 22
2, 576766, Note_off_c, 0, 36, 45
2, 576768, Note_on_c, 0, 60, 38
2, 576769, Note_on_c, 0, 65, 34
2, 576770, Note_on_c, 0, 57, 42
2, 576780, Control_c, 0, 64, 0
2, 576965, Control_c, 0, 64, 127
2, 577406, Note_off_c, 0, 60, 49
2, 577423, Note_off_c, 0, 48, 46
2, 577434, Note_off_c, 0, 57, 50
2, 577456, Note_off_c, 0, 65, 48
2, 577490, Note_off_c, 0, 53, 48
2, 577847, Note_on_c, 0, 67, 73
2, 577891, Note_on_c, 0, 43, 37
2, 577894, Note_on_c, 0, 48, 43
2, 577900, Note_on_c, 0, 60, 48
2, 577901, Control_c, 0, 64, 0
2, 577903, Note_on_c, 0, 55, 51
2, 577904, Note_on_c, 0, 64, 53
2, 577914, Note_off_c, 0, 69, 54
2, 577924, Note_off_c, 0, 41, 45
2, 578061, Control_c, 0, 64, 127
2, 578231, Control_c, 0, 67, 0
2, 578486, Note_off_c, 0, 48, 50
2, 578488, Note_off_c, 0, 55, 52
2, 578499, Note_off_c, 0, 43, 49
2, 578584, Note_off_c, 0, 64, 53
2, 578594, Note_off_c, 0, 60, 52
2, 578652, Note_off_c, 0, 67, 58
2, 578918, Note_on_c, 0, 66, 80
2, 578973, Note_on_c, 0, 45, 42
2, 578974, Note_on_c, 0, 60, 58
2, 578977, Note_on_c, 0, 48, 48
2, 578979, Note_on_c, 0, 62, 68
2, 578980, Note_on_c, 0, 57, 56
2, 579028, Control_c, 0, 64, 0
2, 579207, Control_c, 0, 64, 127
2, 579617, Note_off_c, 0, 60, 54
2, 579622, Note_off_c, 0, 57, 54
2, 579653, Note_off_c, 0, 62, 57
2, 579755, Note_off_c, 0, 45, 50
2, 579759, Note_off_c, 0, 48, 52
2, 580425, Control_c, 0, 67, 127
2, 580740, Note_off_c, 0, 66, 60
2, 580830, Note_on_c, 0, 67, 50
2, 580913, Note_on_c, 0, 64, 20
2, 580915, Note_on_c, 0, 43, 22
2, 580916, Note_on_c, 0, 55, 22
2, 580918, Note_on_c, 0, 48, 20
2, 580919, Note_on_c, 0, 60, 22
2, 580977, Control_c, 0, 64, 0
2, 581161, Control_c, 0, 64, 127
2, 581712, Note_off_c, 0, 48, 45
2, 581884, Note_off_c, 0, 64, 45
2, 581944, Note_off_c, 0, 43, 45
2, 581983, Note_off_c, 0, 60, 45
2, 582004, Note_off_c, 0, 55, 45
2, 582470, Note_off_c, 0, 67, 52
2, 582588, Note_on_c, 0, 67, 44
2, 582726, Note_off_c, 0, 67, 51
2, 582843, Note_on_c, 0, 67, 50
2, 582853, Note_on_c, 0, 53, 26
2, 582854, Note_on_c, 0, 43, 22
2, 582855, Note_on_c, 0, 62, 27
2, 582856, Note_on_c, 0, 59, 22
2, 582857, Note_on_c, 0, 31, 21
2, 582897, Control_c, 0, 64, 0
2, 583091, Control_c, 0, 64, 127
2, 584234, Note_off_c, 0, 59, 45
2, 584269, Note_off_c, 0, 53, 46
2, 584278, Note_off_c, 0, 31, 45
2, 584287, Note_off_c, 0, 62, 46
2, 584315, Note_off_c, 0, 67, 52
2, 584324, Note_off_c, 0, 43, 45
2, 584390, Note_on_c, 0, 67, 50
2, 584487, Control_c, 0, 64, 0
2, 584645, Note_on_c, 0, 60, 38
2, 584646, Note_off_c, 0, 67, 52
2, 584697, Note_on_c, 0, 55, 26
2, 584699, Note_on_c, 0, 52, 20
2, 584700, Note_on_c, 0, 48, 15
2, 584701, Note_on_c, 0, 36, 25
2, 584752, Control_c, 0, 64, 127
2, 585667, Note_off_c, 0, 60, 49
2, 585705, Note_off_c, 0, 36, 46
2, 585754, Note_off_c, 0, 48, 44
2, 586072, Note_on_c, 0, 60, 30
2, 586075, Note_on_c, 0, 48, 30
2, 586101, Note_off_c, 0, 55, 46
2, 586150, Control_c, 0, 64, 0
2, 586184, Control_c, 0, 67, 0
2, 586268, Note_off_c, 0, 52, 45
2, 586403, Control_c, 0, 64, 127
2, 586502, Note_off_c, 0, 60, 47
2, 586505, Note_off_c, 0, 48, 47
2, 586506, Note_on_c, 0, 59, 35
2, 586508, Note_on_c, 0, 47, 35
2, 586933, Note_off_c, 0, 59, 48
2, 586936, Note_off_c, 0, 47, 48
2, 586937, Note_on_c, 0, 60, 41
2, 586940, Note_on_c, 0, 48, 41
2, 587381, Note_off_c, 0, 60, 50
2, 587386, Note_off_c, 0, 48, 50
2, 587387, Note_on_c, 0, 59, 47
2, 587388, Note_on_c, 0, 47, 47
2, 587817, Note_off_c, 0, 59, 51
2, 587819, Note_off_c, 0, 47, 51
2, 587821, Note_on_c, 0, 60, 53
2, 587822, Note_on_c, 0, 48, 53
2, 588261, Note_off_c, 0, 60, 53
2, 588263, Note_off_c, 0, 48, 53
2, 588265, Note_on_c, 0, 63, 62
2, 588266, Note_on_c, 0, 51, 62
2, 588269, Control_c, 0, 64, 0
2, 588448, Control_c, 0, 64, 127
2, 588808, Note_off_c, 0, 63, 55
2, 588811, Note_off_c, 0, 51, 55
2, 588813, Note_on_c, 0, 61, 51
2, 588816, Note_on_c, 0, 49, 51
2, 589341, Note_off_c, 0, 61, 52
2, 589343, Note_off_c, 0, 49, 52
2, 589343, Note_on_c, 0, 60, 40
2, 589345, Note_on_c, 0, 48, 40
2, 589450, Control_c, 0, 64, 0
2, 589642, Control_c, 0, 64, 127
2, 589923, Note_off_c, 0, 60, 50
2, 589927, Note_off_c, 0, 48, 50
2, 589928, Note_on_c, 0, 58, 30
2, 589929, Note_on_c, 0, 46, 30
2, 590420, Note_off_c, 0, 58, 47
2, 590422, Note_off_c, 0, 46, 47
2, 590537, Control_c, 0, 64, 0
2, 590545, Note_on_c, 0, 63, 60
2, 590598, Note_on_c, 0, 32, 36
2, 590602, Note_on_c, 0, 51, 36
2, 590608, Note_on_c, 0, 56, 30
2, 590614, Note_on_c, 0, 60, 48
2, 590762, Note_off_c, 0, 32, 49
2, 591049, Note_on_c, 0, 44, 36
2, 591200, Note_off_c, 0, 44, 49
2, 591469, Note_on_c, 0, 48, 36
2, 591603, Note_off_c, 0, 48, 49
2, 591887, Note_on_c, 0, 44, 36
2, 592028, Note_off_c, 0, 44, 49
2, 592320, Note_on_c, 0, 32, 37
2, 592437, Note_off_c, 0, 32, 49
2, 592487, Note_off_c, 0, 56, 47
2, 592534, Note_off_c, 0, 60, 52
2, 592719, Note_off_c, 0, 51, 49
2, 592773, Note_on_c, 0, 44, 37
2, 592912, Note_off_c, 0, 44, 49
2, 593000, Note_off_c, 0, 63, 55
2, 593187, Note_on_c, 0, 63, 61
2, 593225, Note_on_c, 0, 48, 38
2, 593232, Note_on_c, 0, 51, 30
2, 593234, Note_on_c, 0, 60, 45
2, 593236, Note_on_c, 0, 56, 38
2, 593369, Note_off_c, 0, 48, 49
2, 593674, Note_on_c, 0, 44, 38
2, 593811, Note_off_c, 0, 44, 49
2, 593931, Note_off_c, 0, 60, 51
2, 593951, Note_off_c, 0, 63, 55
2, 593978, Note_off_c, 0, 51, 47
2, 593997, Note_off_c, 0, 56, 49
2, 594105, Note_on_c, 0, 63, 63
2, 594145, Note_on_c, 0, 32, 39
2, 594149, Note_on_c, 0, 60, 48
2, 594150, Note_on_c, 0, 51, 30
2, 594156, Note_on_c, 0, 56, 39
2, 594279, Note_off_c, 0, 32, 49
2, 594611, Note_on_c, 0, 44, 39
2, 594714, Note_off_c, 0, 56, 49
2, 594734, Note_off_c, 0, 44, 49
2, 594756, Note_off_c, 0, 60, 52
2, 594809, Note_off_c, 0, 51, 47
2, 595050, Note_on_c, 0, 68, 64
2, 595076, Note_off_c, 0, 63, 55
2, 595081, Note_on_c, 0, 48, 40
2, 595095, Note_on_c, 0, 60, 40
2, 595097, Note_on_c, 0, 64, 48
2, 595099, Note_on_c, 0, 56, 34
2, 595229, Note_off_c, 0, 48, 50
2, 595547, Note_on_c, 0, 44, 40
2, 595710, Note_off_c, 0, 44, 50
2, 595790, Note_off_c, 0, 64, 52
2, 595817, Note_off_c, 0, 56, 48
2, 595850, Note_off_c, 0, 68, 56
2, 595854, Note_off_c, 0, 60, 50
2, 595988, Note_on_c, 0, 68, 66
2, 596021, Note_on_c, 0, 34, 41
2, 596033, Note_on_c, 0, 56, 36
2, 596035, Note_on_c, 0, 61, 40
2, 596041, Note_on_c, 0, 63, 50
2, 596141, Note_off_c, 0, 34, 50
2, 596431, Note_on_c, 0, 46, 41
2, 596564, Note_off_c, 0, 46, 50
2, 596865, Note_on_c, 0, 49, 42
2, 596976, Note_off_c, 0, 49, 50
2, 597284, Note_on_c, 0, 46, 42
2, 597414, Note_off_c, 0, 46, 50
2, 597488, Note_off_c, 0, 56, 49
2, 597672, Note_off_c, 0, 68, 56
2, 597674, Note_on_c, 0, 67, 69
2, 597705, Note_on_c, 0, 34, 42
2, 597714, Note_on_c, 0, 55, 50
2, 597860, Note_off_c, 0, 34, 50
2, 598167, Note_on_c, 0, 46, 43
2, 598274, Note_off_c, 0, 46, 50
2, 598620, Note_on_c, 0, 49, 43
2, 598728, Note_off_c, 0, 49, 50
2, 598765, Note_off_c, 0, 61, 50
2, 598914, Note_off_c, 0, 63, 52
2, 599042, Note_off_c, 0, 67, 57
2, 599073, Note_on_c, 0, 46, 44
2, 599081, Note_off_c, 0, 55, 52
2, 599205, Note_off_c, 0, 46, 51
2, 599495, Note_on_c, 0, 69, 72
2, 599524, Note_on_c, 0, 36, 44
2, 599535, Note_on_c, 0, 66, 55
2, 599536, Note_on_c, 0, 63, 40
2, 599536, Note_on_c, 0, 57, 45
2, 599674, Note_off_c, 0, 36, 51
2, 600024, Note_on_c, 0, 48, 45
2, 600178, Note_off_c, 0, 48, 51
2, 600525, Note_on_c, 0, 51, 45
2, 600663, Note_off_c, 0, 51, 51
2, 600802, Note_off_c, 0, 66, 53
2, 600814, Note_off_c, 0, 69, 58
2, 600889, Note_off_c, 0, 63, 50
2, 601013, Note_off_c, 0, 57, 51
2, 601028, Note_on_c, 0, 48, 48
2, 601193, Note_off_c, 0, 48, 52
2, 601269, Note_on_c, 0, 69, 72
2, 601289, Note_on_c, 0, 63, 60
2, 601290, Note_on_c, 0, 66, 50
2, 601291, Note_on_c, 0, 57, 48
2, 601427, Note_off_c, 0, 69, 58
2, 601446, Note_off_c, 0, 57, 52
2, 601448, Note_off_c, 0, 63, 55
2, 601450, Note_off_c, 0, 66, 52
2, 601520, Note_on_c, 0, 69, 86
2, 601530, Note_on_c, 0, 37, 48
2, 601539, Note_on_c, 0, 57, 60
2, 601540, Note_on_c, 0, 65, 70
2, 601660, Note_off_c, 0, 37, 52
2, 601946, Note_on_c, 0, 49, 47
2, 602082, Note_off_c, 0, 49, 51
2, 602380, Note_on_c, 0, 53, 46
2, 602525, Note_off_c, 0, 53, 51
2, 602793, Note_off_c, 0, 57, 55
2, 602799, Note_on_c, 0, 49, 45
2, 602931, Note_off_c, 0, 49, 51
2, 603224, Note_off_c, 0, 69, 61
2, 603236, Note_on_c, 0, 70, 68
2, 603236, Note_on_c, 0, 37, 44
2, 603244, Note_on_c, 0, 58, 56
2, 603375, Note_off_c, 0, 37, 51
2, 603683, Note_on_c, 0, 49, 43
2, 603822, Note_off_c, 0, 49, 50
2, 604134, Note_on_c, 0, 53, 42
2, 604276, Note_off_c, 0, 53, 50
2, 604287, Note_off_c, 0, 65, 57
2, 604420, Note_off_c, 0, 70, 57
2, 604465, Note_off_c, 0, 58, 54
2, 604587, Note_on_c, 0, 49, 41
2, 604711, Note_off_c, 0, 49, 50
2, 604821, Note_on_c, 0, 70, 65
2, 604830, Note_on_c, 0, 58, 50
2, 605005, Note_off_c, 0, 58, 52
2, 605011, Note_on_c, 0, 73, 64
2, 605035, Note_off_c, 0, 70, 56
2, 605040, Note_on_c, 0, 39, 40
2, 605050, Note_on_c, 0, 61, 52
2, 605051, Note_on_c, 0, 63, 48
2, 605204, Note_off_c, 0, 39, 50
2, 605539, Note_on_c, 0, 51, 39
2, 605687, Note_off_c, 0, 51, 49
2, 606041, Note_on_c, 0, 55, 38
2, 606212, Note_off_c, 0, 55, 49
2, 606366, Note_off_c, 0, 61, 53
2, 606505, Note_off_c, 0, 63, 52
2, 606540, Note_on_c, 0, 51, 37
2, 606679, Note_off_c, 0, 51, 49
2, 606746, Note_off_c, 0, 73, 56
2, 606790, Note_on_c, 0, 67, 61
2, 606801, Note_on_c, 0, 63, 49
2, 606802, Note_on_c, 0, 61, 40
2, 606946, Note_off_c, 0, 61, 50
2, 606954, Note_off_c, 0, 63, 52
2, 607017, Note_on_c, 0, 70, 60
2, 607026, Note_off_c, 0, 67, 55
2, 607048, Note_on_c, 0, 44, 36
2, 607056, Note_on_c, 0, 63, 48
2, 607057, Note_on_c, 0, 61, 40
2, 607174, Note_off_c, 0, 44, 49
2, 607477, Note_on_c, 0, 51, 36
2, 607619, Note_off_c, 0, 51, 49
2, 607895, Note_on_c, 0, 55, 37
2, 608016, Note_off_c, 0, 55, 49
2, 608329, Note_on_c, 0, 51, 38
2, 608463, Note_off_c, 0, 51, 49
2, 608750, Note_on_c, 0, 44, 39
2, 608751, Note_on_c, 0, 68, 56
2, 608752, Note_on_c, 0, 60, 44
2, 608770, Note_off_c, 0, 70, 55
2, 608799, Note_off_c, 0, 61, 50
2, 608896, Note_off_c, 0, 44, 49
2, 609200, Note_on_c, 0, 56, 40
2, 609325, Note_off_c, 0, 63, 52
2, 609351, Note_off_c, 0, 56, 50
2, 609433, Note_off_c, 0, 60, 51
2, 609434, Note_off_c, 0, 68, 54
2, 609647, Note_on_c, 0, 48, 41
2, 609791, Note_off_c, 0, 48, 50
2, 610099, Note_on_c, 0, 60, 42
2, 610252, Note_off_c, 0, 60, 50
2, 610567, Note_on_c, 0, 44, 43
2, 610726, Note_off_c, 0, 44, 50
2, 611052, Note_on_c, 0, 56, 44
2, 611206, Note_off_c, 0, 56, 51
2, 611537, Note_on_c, 0, 41, 45
2, 611681, Note_off_c, 0, 41, 51
2, 612020, Note_on_c, 0, 53, 46
2, 612159, Note_off_c, 0, 53, 51
2, 612441, Note_on_c, 0, 72, 50
2, 612491, Note_on_c, 0, 64, 36
2, 612492, Note_on_c, 0, 67, 30
2, 612493, Note_on_c, 0, 60, 40
2, 612495, Note_on_c, 0, 40, 48
2, 612637, Note_off_c, 0, 40, 52
2, 612923, Note_on_c, 0, 52, 48
2, 613070, Note_off_c, 0, 52, 52
2, 613342, Note_on_c, 0, 55, 50
2, 613474, Note_off_c, 0, 55, 52
2, 613775, Note_on_c, 0, 52, 52
2, 613919, Note_off_c, 0, 52, 53
2, 614194, Note_on_c, 0, 40, 54
2, 614348, Note_off_c, 0, 40, 53
2, 614435, Note_off_c, 0, 67, 47
2, 614502, Note_off_c, 0, 64, 49
2, 614646, Note_on_c, 0, 52, 56
2, 614741, Note_off_c, 0, 60, 50
2, 614797, Note_off_c, 0, 52, 54
2, 614915, Note_off_c, 0, 72, 52
2, 615059, Note_on_c, 0, 72, 45
2, 615099, Note_on_c, 0, 43, 58
2, 615108, Note_on_c, 0, 67, 30
2, 615109, Note_on_c, 0, 64, 20
2, 615110, Note_on_c, 0, 60, 36
2, 615253, Note_off_c, 0, 43, 54
2, 615403, Note_off_c, 0, 64, 45
2, 615471, Note_off_c, 0, 60, 49
2, 615494, Note_off_c, 0, 67, 47
2, 615525, Note_off_c, 0, 72, 51
2, 615565, Note_on_c, 0, 55, 61
2, 615702, Note_off_c, 0, 55, 55
2, 615968, Note_on_c, 0, 72, 60
2, 616020, Note_on_c, 0, 40, 63
2, 616026, Note_on_c, 0, 67, 40
2, 616028, Note_on_c, 0, 64, 36
2, 616029, Note_on_c, 0, 60, 50
2, 616174, Note_off_c, 0, 40, 55
2, 616334, Note_off_c, 0, 67, 50
2, 616369, Note_off_c, 0, 64, 49
2, 616429, Note_off_c, 0, 60, 52
2, 616453, Note_off_c, 0, 72, 55
2, 616501, Note_on_c, 0, 52, 65
2, 616648, Note_off_c, 0, 52, 56
2, 616948, Note_on_c, 0, 72, 72
2, 616989, Note_on_c, 0, 36, 67
2, 616996, Note_on_c, 0, 67, 52
2, 616997, Note_on_c, 0, 64, 40
2, 616998, Note_on_c, 0, 60, 60
2, 617126, Note_off_c, 0, 36, 57
2, 617359, Note_off_c, 0, 60, 55
2, 617363, Note_off_c, 0, 67, 53
2, 617389, Note_off_c, 0, 64, 50
2, 617434, Note_off_c, 0, 72, 58
2, 617469, Note_on_c, 0, 48, 69
2, 617607, Note_off_c, 0, 48, 57
2, 617927, Note_on_c, 0, 76, 84
2, 617956, Note_on_c, 0, 73, 64
2, 617957, Note_on_c, 0, 67, 52
2, 617958, Note_on_c, 0, 64, 66
2, 617960, Note_on_c, 0, 34, 72
2, 618076, Note_off_c, 0, 34, 58
2, 618371, Note_on_c, 0, 46, 36
2, 618510, Note_off_c, 0, 46, 49
2, 618806, Note_on_c, 0, 49, 36
2, 618917, Note_off_c, 0, 49, 49
2, 619221, Note_on_c, 0, 46, 38
2, 619262, Note_off_c, 0, 67, 53
2, 619277, Note_off_c, 0, 73, 56
2, 619349, Note_off_c, 0, 46, 49
2, 619608, Note_on_c, 0, 77, 57
2, 619646, Note_on_c, 0, 72, 42
2, 619648, Note_on_c, 0, 68, 34
2, 619649, Note_on_c, 0, 65, 44
2, 619651, Note_on_c, 0, 32, 40
2, 619677, Note_off_c, 0, 76, 61
2, 619678, Note_off_c, 0, 64, 56
2, 619786, Note_off_c, 0, 32, 50
2, 620110, Note_off_c, 0, 68, 48
2, 620111, Note_off_c, 0, 72, 50
2, 620112, Note_off_c, 0, 65, 51
2, 620114, Note_on_c, 0, 44, 43
2, 620236, Note_off_c, 0, 44, 50
2, 620289, Note_off_c, 0, 77, 54
2, 620561, Note_on_c, 0, 36, 45
2, 620705, Note_off_c, 0, 36, 51
2, 621010, Note_on_c, 0, 48, 48
2, 621149, Note_off_c, 0, 48, 52
2, 621463, Note_on_c, 0, 32, 50
2, 621631, Note_off_c, 0, 32, 52
2, 621965, Note_on_c, 0, 44, 52
2, 622119, Note_off_c, 0, 44, 53
2, 622467, Note_on_c, 0, 29, 55
2, 622620, Note_off_c, 0, 29, 53
2, 622965, Note_on_c, 0, 41, 57
2, 623126, Note_off_c, 0, 41, 54
2, 623220, Note_on_c, 0, 65, 72
2, 623221, Note_on_c, 0, 53, 60
2, 623357, Note_off_c, 0, 65, 58
2, 623375, Note_off_c, 0, 53, 55
2, 623460, Note_on_c, 0, 67, 84
2, 623469, Note_on_c, 0, 37, 60
2, 623478, Note_on_c, 0, 65, 72
2, 623480, Note_on_c, 0, 55, 60
2, 623611, Note_off_c, 0, 37, 55
2, 623887, Note_on_c, 0, 49, 60
2, 624024, Note_off_c, 0, 49, 55
2, 624319, Note_on_c, 0, 35, 59
2, 624458, Note_off_c, 0, 35, 54
2, 624674, Note_off_c, 0, 55, 55
2, 624710, Note_off_c, 0, 65, 58
2, 624738, Note_on_c, 0, 47, 58
2, 624859, Note_off_c, 0, 47, 54
2, 624876, Note_off_c, 0, 67, 61
2, 624956, Note_on_c, 0, 67, 81
2, 624966, Note_on_c, 0, 65, 70
2, 624967, Note_on_c, 0, 55, 65
2, 625101, Note_off_c, 0, 55, 56
2, 625104, Note_off_c, 0, 65, 57
2, 625138, Note_off_c, 0, 67, 60
2, 625176, Note_on_c, 0, 68, 80
2, 625177, Note_on_c, 0, 36, 57
2, 625185, Note_on_c, 0, 65, 68
2, 625186, Note_on_c, 0, 60, 60
2, 625188, Note_on_c, 0, 56, 72
2, 625299, Note_off_c, 0, 36, 54
2, 625622, Note_on_c, 0, 48, 56
2, 625772, Note_off_c, 0, 48, 54
2, 626075, Note_on_c, 0, 53, 55
2, 626204, Note_off_c, 0, 53, 53
2, 626452, Note_off_c, 0, 56, 58
2, 626483, Note_off_c, 0, 60, 55
2, 626512, Note_off_c, 0, 65, 57
2, 626526, Note_on_c, 0, 48, 54
2, 626668, Note_off_c, 0, 48, 53
2, 626690, Note_off_c, 0, 68, 60
2, 626761, Note_on_c, 0, 68, 71
2, 626771, Note_on_c, 0, 65, 59
2, 626772, Note_on_c, 0, 60, 50
2, 626773, Note_on_c, 0, 56, 62
2, 626929, Note_off_c, 0, 60, 52
2, 626930, Note_off_c, 0, 56, 55
2, 626942, Note_off_c, 0, 65, 54
2, 626963, Note_off_c, 0, 68, 58
2, 626978, Note_on_c, 0, 70, 70
2, 626980, Note_on_c, 0, 36, 53
2, 626988, Note_on_c, 0, 64, 58
2, 626990, Note_on_c, 0, 60, 60
2, 626991, Note_on_c, 0, 58, 65
2, 627145, Note_off_c, 0, 36, 53
2, 627462, Note_on_c, 0, 48, 52
2, 627624, Note_off_c, 0, 48, 53
2, 627945, Note_on_c, 0, 52, 51
2, 628084, Note_off_c, 0, 52, 52
2, 628347, Note_off_c, 0, 58, 56
2, 628392, Note_off_c, 0, 64, 54
2, 628431, Note_on_c, 0, 48, 50
2, 628455, Note_off_c, 0, 60, 55
2, 628568, Note_off_c, 0, 48, 52
2, 628666, Note_off_c, 0, 70, 57
2, 628684, Note_on_c, 0, 67, 62
2, 628693, Note_on_c, 0, 64, 50
2, 628694, Note_on_c, 0, 60, 38
2, 628695, Note_on_c, 0, 58, 42
2, 628837, Note_off_c, 0, 60, 49
2, 628838, Note_off_c, 0, 58, 50
2, 628860, Note_off_c, 0, 64, 52
2, 628882, Note_off_c, 0, 67, 55
2, 628921, Note_on_c, 0, 65, 60
2, 628923, Note_on_c, 0, 41, 48
2, 628931, Note_on_c, 0, 56, 48
2, 628932, Note_on_c, 0, 60, 40
2, 629118, Control_c, 0, 64, 127
2, 629350, Note_on_c, 0, 53, 47
2, 629355, Note_off_c, 0, 41, 52
2, 629770, Note_on_c, 0, 42, 46
2, 629812, Note_off_c, 0, 53, 51
2, 630205, Note_on_c, 0, 54, 45
2, 630245, Note_off_c, 0, 42, 51
2, 630291, Note_off_c, 0, 56, 52
2, 630398, Note_off_c, 0, 60, 50
2, 630622, Note_off_c, 0, 65, 55
2, 630624, Note_on_c, 0, 43, 44
2, 630698, Note_off_c, 0, 54, 51
2, 631072, Note_on_c, 0, 55, 43
2, 631081, Note_off_c, 0, 43, 51
2, 631522, Note_off_c, 0, 55, 50
2, 631524, Note_on_c, 0, 44, 42
2, 631594, Control_c, 0, 64, 0
2, 631848, Control_c, 0, 64, 94
2, 631975, Note_on_c, 0, 56, 41
2, 632021, Note_off_c, 0, 44, 50
2, 632442, Note_on_c, 0, 42, 40
2, 632482, Note_off_c, 0, 56, 50
2, 632961, Note_on_c, 0, 54, 39
2, 632993, Note_off_c, 0, 42, 50
2, 633477, Note_on_c, 0, 39, 38
2, 633582, Note_off_c, 0, 54, 49
2, 633724, Control_c, 0, 64, 0
2, 633998, Note_on_c, 0, 51, 36
2, 634095, Note_off_c, 0, 39, 49
2, 634379, Note_off_c, 0, 51, 49
2, 634476, Note_on_c, 0, 68, 48
2, 634516, Note_on_c, 0, 65, 36
2, 634517, Note_on_c, 0, 61, 27
2, 634518, Note_on_c, 0, 56, 40
2, 634519, Note_on_c, 0, 37, 36
2, 634687, Note_off_c, 0, 37, 49
2, 634930, Note_on_c, 0, 49, 37
2, 635088, Note_off_c, 0, 49, 49
2, 635366, Note_on_c, 0, 53, 38
2, 635519, Note_off_c, 0, 53, 49
2, 635782, Note_on_c, 0, 49, 39
2, 635963, Note_off_c, 0, 49, 49
2, 636218, Note_on_c, 0, 37, 41
2, 636378, Note_off_c, 0, 37, 50
2, 636571, Note_off_c, 0, 65, 49
2, 636574, Note_off_c, 0, 56, 50
2, 636670, Note_on_c, 0, 49, 42
2, 636733, Note_off_c, 0, 61, 46
2, 636834, Note_off_c, 0, 49, 50
2, 636882, Note_off_c, 0, 68, 52
2, 637083, Note_on_c, 0, 68, 54
2, 637122, Note_on_c, 0, 65, 42
2, 637123, Note_on_c, 0, 61, 30
2, 637124, Note_on_c, 0, 56, 48
2, 637126, Note_on_c, 0, 53, 43
2, 637282, Note_off_c, 0, 53, 50
2, 637570, Note_on_c, 0, 49, 44
2, 637708, Note_off_c, 0, 61, 47
2, 637732, Note_off_c, 0, 56, 52
2, 637745, Note_off_c, 0, 49, 51
2, 637755, Note_off_c, 0, 65, 50
2, 637802, Note_off_c, 0, 68, 53
2, 637985, Note_on_c, 0, 68, 60
2, 638025, Note_on_c, 0, 65, 48
2, 638026, Note_on_c, 0, 61, 40
2, 638027, Note_on_c, 0, 56, 51
2, 638029, Note_on_c, 0, 37, 46
2, 638240, Note_off_c, 0, 37, 51
2, 638523, Note_on_c, 0, 49, 47
2, 638712, Note_off_c, 0, 49, 51
2, 638820, Note_off_c, 0, 61, 50
2, 638836, Note_off_c, 0, 56, 52
2, 638842, Note_off_c, 0, 65, 52
2, 638973, Note_off_c, 0, 68, 55
2, 639009, Note_on_c, 0, 73, 66
2, 639028, Note_on_c, 0, 53, 48
2, 639037, Note_on_c, 0, 69, 54
2, 639038, Note_on_c, 0, 65, 48
2, 639039, Note_on_c, 0, 61, 56
2, 639222, Note_off_c, 0, 53, 52
2, 639527, Note_on_c, 0, 49, 49
2, 639727, Note_off_c, 0, 49, 52
2, 639785, Note_off_c, 0, 61, 54
2, 639813, Note_off_c, 0, 73, 56
2, 639816, Note_off_c, 0, 65, 52
2, 639907, Note_off_c, 0, 69, 53
2, 640014, Note_on_c, 0, 73, 72
2, 640034, Note_on_c, 0, 61, 65
2, 640036, Note_on_c, 0, 68, 60
2, 640037, Note_on_c, 0, 66, 48
2, 640038, Note_on_c, 0, 39, 51
2, 640194, Note_off_c, 0, 39, 52
2, 640462, Note_on_c, 0, 51, 52
2, 640635, Note_off_c, 0, 51, 53
2, 640881, Note_on_c, 0, 54, 53
2, 641063, Note_off_c, 0, 54, 53
2, 641295, Note_off_c, 0, 73, 58
2, 641299, Note_on_c, 0, 51, 54
2, 641484, Note_off_c, 0, 51, 53
2, 641735, Note_off_c, 0, 61, 56
2, 641736, Note_on_c, 0, 39, 56
2, 641737, Note_on_c, 0, 72, 60
2, 641738, Note_on_c, 0, 60, 48
2, 641900, Note_off_c, 0, 39, 54
2, 642183, Note_on_c, 0, 51, 57
2, 642417, Note_off_c, 0, 51, 54
2, 642635, Note_on_c, 0, 54, 58
2, 642869, Note_off_c, 0, 54, 54
2, 643085, Note_off_c, 0, 60, 52
2, 643087, Note_off_c, 0, 72, 55
2, 643089, Note_on_c, 0, 51, 60
2, 643319, Note_off_c, 0, 66, 52
2, 643321, Note_off_c, 0, 51, 55
2, 643362, Note_off_c, 0, 68, 55
2, 643514, Note_on_c, 0, 74, 84
2, 643543, Note_on_c, 0, 41, 60
2, 643549, Note_on_c, 0, 71, 72
2, 643550, Note_on_c, 0, 68, 60
2, 643551, Note_on_c, 0, 62, 74
2, 643706, Note_off_c, 0, 41, 55
2, 644038, Note_on_c, 0, 53, 60
2, 644201, Note_off_c, 0, 53, 55
2, 644539, Note_on_c, 0, 56, 52
2, 644699, Note_off_c, 0, 56, 53
2, 644831, Note_off_c, 0, 71, 58
2, 644836, Note_off_c, 0, 68, 55
2, 644919, Note_off_c, 0, 62, 59
2, 645035, Note_off_c, 0, 74, 61
2, 645042, Note_on_c, 0, 53, 44
2, 645203, Note_off_c, 0, 53, 51
2, 645284, Note_on_c, 0, 74, 72
2, 645304, Note_on_c, 0, 71, 60
2, 645305, Note_on_c, 0, 68, 66
2, 645306, Note_on_c, 0, 62, 70
2, 645449, Note_off_c, 0, 74, 58
2, 645470, Note_off_c, 0, 62, 57
2, 645488, Note_off_c, 0, 71, 55
2, 645497, Note_off_c, 0, 68, 56
2, 645534, Note_on_c, 0, 74, 84
2, 645546, Note_on_c, 0, 42, 60
2, 645553, Note_on_c, 0, 70, 62
2, 645554, Note_on_c, 0, 62, 70
2, 645692, Note_off_c, 0, 42, 55
2, 645975, Note_on_c, 0, 54, 36
2, 646115, Note_off_c, 0, 54, 49
2, 646395, Note_on_c, 0, 58, 38
2, 646528, Note_off_c, 0, 58, 49
2, 646830, Note_on_c, 0, 54, 40
2, 646901, Note_off_c, 0, 62, 57
2, 646965, Note_off_c, 0, 54, 50
2, 647240, Note_on_c, 0, 75, 64
2, 647251, Note_on_c, 0, 42, 42
2, 647259, Note_on_c, 0, 63, 52
2, 647287, Note_off_c, 0, 74, 61
2, 647388, Note_off_c, 0, 42, 50
2, 647697, Note_on_c, 0, 54, 44
2, 647863, Note_off_c, 0, 54, 51
2, 648150, Note_on_c, 0, 58, 46
2, 648261, Note_off_c, 0, 70, 55
2, 648280, Note_off_c, 0, 58, 51
2, 648395, Note_off_c, 0, 63, 53
2, 648608, Note_off_c, 0, 75, 56
2, 648619, Note_on_c, 0, 54, 48
2, 648742, Note_off_c, 0, 54, 52
2, 649030, Note_on_c, 0, 76, 74
2, 649071, Note_on_c, 0, 70, 62
2, 649072, Note_on_c, 0, 73, 54
2, 649073, Note_on_c, 0, 64, 69
2, 649075, Note_on_c, 0, 43, 50
2, 649212, Note_off_c, 0, 43, 52
2, 649570, Note_on_c, 0, 55, 52
2, 649729, Note_off_c, 0, 55, 53
2, 650071, Note_on_c, 0, 58, 54
2, 650243, Note_off_c, 0, 58, 53
2, 650354, Note_off_c, 0, 73, 53
2, 650384, Note_off_c, 0, 70, 55
2, 650439, Note_off_c, 0, 64, 57
2, 650571, Note_on_c, 0, 55, 56
2, 650722, Note_off_c, 0, 55, 54
2, 650766, Note_off_c, 0, 76, 59
2, 650814, Note_on_c, 0, 76, 82
2, 650834, Note_on_c, 0, 73, 62
2, 650835, Note_on_c, 0, 70, 72
2, 650836, Note_on_c, 0, 64, 76
2, 650986, Note_off_c, 0, 64, 59
2, 651000, Note_off_c, 0, 76, 60
2, 651005, Note_off_c, 0, 73, 55
2, 651026, Note_off_c, 0, 70, 58
2, 651049, Note_on_c, 0, 76, 84
2, 651080, Note_on_c, 0, 44, 58
2, 651088, Note_on_c, 0, 72, 72
2, 651089, Note_on_c, 0, 64, 68
2, 651204, Note_off_c, 0, 44, 54
2, 651490, Note_on_c, 0, 56, 61
2, 651647, Note_off_c, 0, 56, 55
2, 651765, Note_off_c, 0, 64, 57
2, 651899, Note_on_c, 0, 77, 94
2, 651928, Note_on_c, 0, 60, 87
2, 651938, Note_on_c, 0, 65, 90
2, 651962, Note_off_c, 0, 76, 61
2, 652059, Note_off_c, 0, 60, 61
2, 652343, Note_on_c, 0, 56, 65
2, 652468, Note_off_c, 0, 56, 56
2, 652761, Note_on_c, 0, 44, 67
2, 652912, Note_off_c, 0, 44, 57
2, 653229, Note_on_c, 0, 56, 69
2, 653230, Note_off_c, 0, 65, 62
2, 653304, Note_off_c, 0, 72, 58
2, 653370, Note_off_c, 0, 56, 57
2, 653635, Note_on_c, 0, 75, 77
2, 653652, Note_off_c, 0, 77, 63
2, 653685, Note_on_c, 0, 60, 71
2, 653694, Note_on_c, 0, 66, 66
2, 653695, Note_on_c, 0, 63, 70
2, 653818, Note_off_c, 0, 60, 58
2, 654087, Note_off_c, 0, 63, 57
2, 654130, Note_on_c, 0, 56, 73
2, 654158, Note_off_c, 0, 66, 56
2, 654171, Note_off_c, 0, 75, 59
2, 654268, Note_off_c, 0, 56, 58
2, 654565, Note_on_c, 0, 74, 74
2, 654587, Note_on_c, 0, 44, 75
2, 654595, Note_on_c, 0, 66, 60
2, 654597, Note_on_c, 0, 62, 63
2, 654734, Note_off_c, 0, 44, 59
2, 655029, Note_off_c, 0, 66, 55
2, 655082, Note_on_c, 0, 56, 77
2, 655102, Note_off_c, 0, 62, 55
2, 655233, Note_off_c, 0, 56, 59
2, 655256, Note_off_c, 0, 74, 59
2, 655566, Note_on_c, 0, 72, 60
2, 655588, Note_on_c, 0, 44, 67
2, 655596, Note_on_c, 0, 66, 48
2, 655598, Note_on_c, 0, 60, 53
2, 655744, Note_off_c, 0, 44, 57
2, 656029, Note_off_c, 0, 60, 53
2, 656086, Note_on_c, 0, 56, 69
2, 656126, Note_off_c, 0, 66, 52
2, 656188, Note_off_c, 0, 72, 55
2, 656268, Note_off_c, 0, 56, 57
2, 656572, Note_on_c, 0, 67, 84
2, 656589, Note_on_c, 0, 55, 70
2, 656591, Note_on_c, 0, 43, 76
2, 656592, Note_on_c, 0, 31, 80
2, 656754, Control_c, 0, 64, 127
2, 659210, Note_off_c, 0, 55, 57
2, 659437, Note_off_c, 0, 67, 61
2, 659650, Note_off_c, 0, 31, 60
2, 659693, Note_off_c, 0, 43, 59
2, 660196, Note_on_c, 0, 67, 72
2, 660215, Note_on_c, 0, 55, 60
2, 660216, Note_on_c, 0, 43, 55
2, 660217, Note_on_c, 0, 31, 65
2, 660240, Control_c, 0, 64, 0
2, 660464, Control_c, 0, 64, 127
2, 661147, Note_off_c, 0, 55, 55
2, 661284, Note_off_c, 0, 31, 56
2, 661292, Note_off_c, 0, 67, 58
2, 661303, Note_off_c, 0, 43, 53
2, 661482, Note_on_c, 0, 67, 72
2, 661501, Note_on_c, 0, 55, 63
2, 661502, Note_on_c, 0, 43, 56
2, 661503, Note_on_c, 0, 31, 68
2, 661807, Note_off_c, 0, 55, 55
2, 661823, Note_off_c, 0, 43, 54
2, 661829, Note_off_c, 0, 67, 58
2, 661835, Note_off_c, 0, 31, 57
2, 661884, Note_on_c, 0, 66, 84
2, 661923, Note_on_c, 0, 54, 70
2, 661925, Note_on_c, 0, 42, 66
2, 661926, Note_on_c, 0, 30, 75
2, 661930, Control_c, 0, 64, 0
2, 662208, Control_c, 0, 64, 127
2, 663255, Note_off_c, 0, 42, 56
2, 663259, Note_off_c, 0, 66, 61
2, 663356, Note_off_c, 0, 54, 57
2, 663371, Note_off_c, 0, 30, 59
2, 663520, Control_c, 0, 64, 0
2, 663677, Note_on_c, 0, 84, 33
2, 663732, Control_c, 0, 64, 127
2, 663790, Note_off_c, 0, 84, 48
2, 663791, Note_on_c, 0, 86, 36
2, 663908, Note_off_c, 0, 86, 49
2, 663909, Note_on_c, 0, 87, 40
2, 664844, Note_off_c, 0, 87, 50
2, 665663, Note_on_c, 0, 84, 30
2, 665780, Note_off_c, 0, 84, 47
2, 665781, Note_on_c, 0, 86, 33
2, 665897, Note_off_c, 0, 86, 48
2, 665898, Note_on_c, 0, 87, 37
2, 666833, Note_off_c, 0, 87, 49
2, 667633, Control_c, 0, 64, 0
2, 667730, Note_on_c, 0, 67, 48
2, 667769, Note_on_c, 0, 31, 36
2, 667778, Note_on_c, 0, 55, 30
2, 667780, Note_on_c, 0, 43, 24
2, 667835, Control_c, 0, 64, 127
2, 670013, Note_off_c, 0, 55, 47
2, 670191, Note_off_c, 0, 43, 46
2, 670335, Note_off_c, 0, 31, 49
2, 670476, Note_off_c, 0, 67, 52
2, 671142, Note_on_c, 0, 68, 72
2, 671183, Note_on_c, 0, 32, 36
2, 671192, Note_on_c, 0, 44, 60
2, 671193, Note_on_c, 0, 56, 48
2, 671212, Control_c, 0, 64, 0
2, 671437, Control_c, 0, 64, 127
2, 672026, Note_off_c, 0, 56, 52
2, 672142, Note_off_c, 0, 44, 55
2, 672218, Note_off_c, 0, 68, 58
2, 672301, Note_off_c, 0, 32, 49
2, 672615, Note_on_c, 0, 67, 44
2, 672635, Note_on_c, 0, 31, 34
2, 672644, Note_on_c, 0, 55, 32
2, 672646, Note_on_c, 0, 43, 40
2, 672920, Note_off_c, 0, 55, 48
2, 672947, Note_off_c, 0, 43, 50
2, 673010, Note_off_c, 0, 67, 51
2, 673012, Control_c, 0, 64, 0
2, 673019, Note_off_c, 0, 31, 48
2, 673090, Note_on_c, 0, 66, 42
2, 673120, Note_on_c, 0, 30, 33
2, 673129, Note_on_c, 0, 54, 36
2, 673131, Note_on_c, 0, 42, 40
2, 673290, Control_c, 0, 64, 127
2, 674139, Note_off_c, 0, 54, 49
2, 674203, Note_off_c, 0, 42, 50
2, 674345, Note_off_c, 0, 30, 48
2, 674411, Note_off_c, 0, 66, 50
2, 674556, Control_c, 0, 64, 0
2, 674706, Note_on_c, 0, 84, 30
2, 674743, Control_c, 0, 64, 127
2, 674803, Note_on_c, 0, 86, 33
2, 674820, Note_off_c, 0, 84, 47
2, 674920, Note_on_c, 0, 87, 37
2, 674985, Note_off_c, 0, 86, 48
2, 675770, Note_off_c, 0, 87, 49
2, 676490, Note_on_c, 0, 84, 34
2, 676625, Note_on_c, 0, 86, 38
2, 676667, Note_off_c, 0, 84, 48
2, 676741, Note_on_c, 0, 87, 41
2, 676769, Note_off_c, 0, 86, 49
2, 677711, Note_off_c, 0, 87, 50
2, 678679, Note_on_c, 0, 41, 24
2, 678688, Note_on_c, 0, 29, 24
2, 679966, Note_off_c, 0, 29, 46
2, 680317, Note_off_c, 0, 41, 46
2, 680319, Note_on_c, 0, 84, 30
2, 680417, Note_off_c, 0, 84, 47
2, 680418, Note_on_c, 0, 86, 33
2, 680533, Note_off_c, 0, 86, 48
2, 680534, Note_on_c, 0, 87, 37
2, 682153, Note_off_c, 0, 87, 49
2, 682156, Note_on_c, 0, 84, 34
2, 682287, Note_off_c, 0, 84, 48
2, 682289, Note_on_c, 0, 86, 38
2, 682403, Note_off_c, 0, 86, 49
2, 682406, Note_on_c, 0, 87, 41
2, 684364, Note_on_c, 0, 86, 56
2, 684408, Note_off_c, 0, 87, 50
2, 684413, Note_on_c, 0, 58, 10
2, 684415, Note_on_c, 0, 74, 40
2, 684422, Note_on_c, 0, 65, 20
2, 684424, Note_on_c, 0, 70, 30
2, 685721, Note_off_c, 0, 65, 45
2, 685825, Note_off_c, 0, 70, 47
2, 685883, Note_off_c, 0, 74, 50
2, 686129, Note_on_c, 0, 87, 61
2, 686151, Note_off_c, 0, 58, 42
2, 686166, Note_on_c, 0, 69, 40
2, 686168, Note_on_c, 0, 65, 30
2, 686169, Note_on_c, 0, 60, 18
2, 686176, Note_on_c, 0, 75, 48
2, 686193, Note_off_c, 0, 86, 54
2, 686213, Control_c, 0, 64, 0
2, 686434, Control_c, 0, 64, 127
2, 686642, Note_off_c, 0, 75, 52
2, 686726, Note_off_c, 0, 65, 47
2, 686750, Note_off_c, 0, 87, 55
2, 686769, Note_off_c, 0, 60, 44
2, 686777, Note_off_c, 0, 69, 50
2, 686988, Control_c, 0, 64, 0
2, 690128, Note_on_c, 0, 89, 60
2, 690177, Note_on_c, 0, 69, 30
2, 690179, Note_on_c, 0, 57, 10
2, 690180, Note_on_c, 0, 75, 40
2, 690181, Note_on_c, 0, 65, 20
2, 690239, Control_c, 0, 64, 127
2, 691449, Note_on_c, 0, 84, 58
2, 691547, Note_off_c, 0, 65, 45
2, 691549, Note_off_c, 0, 89, 55
2, 691670, Note_off_c, 0, 75, 50
2, 691893, Note_on_c, 0, 86, 57
2, 691913, Note_off_c, 0, 69, 47
2, 691915, Note_off_c, 0, 57, 42
2, 691933, Note_on_c, 0, 74, 45
2, 691935, Note_on_c, 0, 70, 33
2, 691936, Note_on_c, 0, 65, 25
2, 691937, Note_on_c, 0, 58, 20
2, 691946, Control_c, 0, 64, 0
2, 691964, Note_off_c, 0, 84, 54
2, 692195, Control_c, 0, 64, 127
2, 692293, Note_off_c, 0, 74, 51
2, 692408, Note_off_c, 0, 65, 46
2, 692427, Note_off_c, 0, 58, 45
2, 692478, Note_off_c, 0, 70, 48
2, 692501, Note_off_c, 0, 86, 54
2, 692715, Control_c, 0, 64, 0
2, 695893, Note_on_c, 0, 79, 45
2, 695942, Note_on_c, 0, 67, 39
2, 695944, Note_on_c, 0, 62, 27
2, 695944, Note_on_c, 0, 59, 20
2, 695958, Control_c, 0, 64, 127
2, 697162, Note_on_c, 0, 74, 49
2, 697255, Note_off_c, 0, 79, 51
2, 697503, Note_off_c, 0, 67, 49
2, 697597, Note_on_c, 0, 75, 48
2, 697647, Note_on_c, 0, 67, 36
2, 697653, Note_off_c, 0, 74, 52
2, 697656, Note_on_c, 0, 60, 24
2, 697658, Note_on_c, 0, 63, 20
2, 697665, Control_c, 0, 64, 0
2, 697678, Note_off_c, 0, 59, 45
2, 697722, Note_off_c, 0, 62, 46
2, 697912, Control_c, 0, 64, 127
2, 698069, Note_off_c, 0, 67, 49
2, 698115, Note_off_c, 0, 63, 45
2, 698210, Note_off_c, 0, 75, 52
2, 698226, Note_off_c, 0, 60, 46
2, 698570, Control_c, 0, 64, 0
2, 701957, Note_on_c, 0, 79, 60
2, 702133, Control_c, 0, 64, 127
2, 703442, Note_off_c, 0, 79, 55
2, 703446, Note_on_c, 0, 74, 36
2, 703548, Control_c, 0, 64, 0
2, 703637, Note_on_c, 0, 79, 61
2, 703644, Note_off_c, 0, 74, 49
2, 703646, Note_on_c, 0, 75, 42
2, 703798, Control_c, 0, 64, 127
2, 705223, Note_off_c, 0, 79, 55
2, 705224, Note_on_c, 0, 74, 48
2, 705232, Note_off_c, 0, 75, 50
2, 705234, Note_on_c, 0, 71, 40
2, 705438, Note_on_c, 0, 87, 67
2, 705455, Note_off_c, 0, 74, 52
2, 705459, Control_c, 0, 64, 0
2, 705465, Note_off_c, 0, 71, 50
2, 705468, Note_on_c, 0, 72, 70
2, 705470, Note_on_c, 0, 75, 43
2, 705708, Control_c, 0, 64, 127
2, 706792, Note_off_c, 0, 72, 57
2, 706908, Note_off_c, 0, 75, 50
2, 707126, Note_off_c, 0, 87, 57
2, 707148, Note_on_c, 0, 83, 50
2, 707158, Note_on_c, 0, 71, 40
2, 707159, Note_on_c, 0, 67, 34
2, 707213, Control_c, 0, 64, 0
2, 707350, Note_off_c, 0, 67, 48
2, 707355, Note_off_c, 0, 71, 50
2, 707368, Note_on_c, 0, 84, 74
2, 707394, Note_off_c, 0, 83, 52
2, 707407, Note_on_c, 0, 72, 50
2, 707408, Note_on_c, 0, 68, 43
2, 707462, Control_c, 0, 64, 127
2, 708541, Note_off_c, 0, 72, 52
2, 708589, Note_off_c, 0, 68, 50
2, 708851, Note_off_c, 0, 84, 59
2, 708884, Note_on_c, 0, 79, 64
2, 708894, Note_on_c, 0, 67, 50
2, 708895, Note_on_c, 0, 64, 45
2, 709047, Control_c, 0, 64, 0
2, 709061, Note_off_c, 0, 64, 51
2, 709071, Note_off_c, 0, 67, 52
2, 709073, Note_on_c, 0, 80, 81
2, 709097, Note_off_c, 0, 79, 56
2, 709111, Note_on_c, 0, 68, 57
2, 709112, Note_on_c, 0, 65, 45
2, 709297, Control_c, 0, 64, 127
2, 710357, Note_off_c, 0, 68, 54
2, 710475, Note_off_c, 0, 65, 51
2, 710516, Note_off_c, 0, 80, 60
2, 710687, Note_on_c, 0, 80, 73
2, 710707, Note_on_c, 0, 68, 64
2, 710708, Note_on_c, 0, 65, 56
2, 710709, Note_on_c, 0, 63, 70
2, 710822, Note_off_c, 0, 63, 57
2, 710824, Note_off_c, 0, 65, 54
2, 710826, Note_off_c, 0, 80, 58
2, 710841, Note_off_c, 0, 68, 56
2, 710878, Control_c, 0, 64, 0
2, 710895, Note_on_c, 0, 80, 78
2, 710923, Note_on_c, 0, 68, 64
2, 710925, Note_on_c, 0, 65, 60
2, 710926, Note_on_c, 0, 62, 46
2, 711128, Control_c, 0, 64, 127
2, 712179, Note_off_c, 0, 68, 56
2, 712196, Note_off_c, 0, 62, 51
2, 712284, Note_off_c, 0, 65, 55
2, 712506, Note_off_c, 0, 80, 59
2, 712658, Note_on_c, 0, 80, 78
2, 712679, Note_on_c, 0, 68, 60
2, 712681, Note_on_c, 0, 63, 70
2, 712682, Note_on_c, 0, 60, 65
2, 712766, Control_c, 0, 64, 0
2, 712831, Note_off_c, 0, 80, 59
2, 712837, Note_off_c, 0, 60, 56
2, 712840, Note_off_c, 0, 68, 55
2, 712856, Note_off_c, 0, 63, 57
2, 712904, Note_on_c, 0, 80, 84
2, 712932, Note_on_c, 0, 68, 68
2, 712934, Note_on_c, 0, 62, 72
2, 712935, Note_on_c, 0, 59, 60
2, 713014, Control_c, 0, 64, 127
2, 713574, Note_off_c, 0, 62, 58
2, 713580, Note_off_c, 0, 68, 57
2, 713675, Note_off_c, 0, 59, 55
2, 714186, Note_off_c, 0, 80, 61
2, 714206, Note_on_c, 0, 77, 60
2, 714639, Note_off_c, 0, 77, 55
2, 714640, Note_on_c, 0, 74, 48
2, 714730, Control_c, 0, 64, 0
2, 714856, Note_off_c, 0, 74, 52
2, 715525, Note_on_c, 0, 71, 48
2, 715741, Note_off_c, 0, 71, 52
2, 716443, Note_on_c, 0, 68, 46
2, 716695, Note_off_c, 0, 68, 51
2, 717428, Note_on_c, 0, 65, 43
2, 717682, Note_off_c, 0, 65, 50
2, 718466, Note_on_c, 0, 62, 40
2, 718733, Note_off_c, 0, 62, 50
2, 719569, Note_on_c, 0, 59, 38
2, 719868, Note_off_c, 0, 59, 49
2, 720757, Note_on_c, 0, 56, 36
2, 721055, Note_off_c, 0, 56, 49
2, 722024, Note_on_c, 0, 53, 48
2, 722359, Note_off_c, 0, 53, 52
2, 723395, Note_on_c, 0, 50, 48
2, 723746, Note_off_c, 0, 50, 52
2, 724799, Note_on_c, 0, 47, 47
2, 725150, Note_off_c, 0, 47, 51
2, 726184, Note_on_c, 0, 44, 45
2, 726887, Note_off_c, 0, 44, 51
2, 727590, Note_on_c, 0, 53, 60
2, 727592, Note_on_c, 0, 41, 43
2, 728699, Note_off_c, 0, 53, 55
2, 728711, Note_on_c, 0, 50, 60
2, 728713, Note_on_c, 0, 38, 42
2, 728726, Note_off_c, 0, 41, 50
2, 729663, Note_on_c, 0, 47, 56
2, 729664, Note_on_c, 0, 35, 40
2, 729691, Note_off_c, 0, 38, 50
2, 729775, Note_off_c, 0, 50, 55
2, 730600, Note_on_c, 0, 44, 52
2, 730601, Note_on_c, 0, 32, 38
2, 730636, Note_off_c, 0, 47, 54
2, 730667, Note_off_c, 0, 35, 50
2, 731671, Note_on_c, 0, 43, 48
2, 731672, Note_on_c, 0, 31, 36
2, 731712, Note_off_c, 0, 32, 49
2, 731811, Note_off_c, 0, 44, 53
2, 732421, Note_off_c, 0, 43, 52
2, 732615, Note_off_c, 0, 31, 49
2, 732754, Note_on_c, 0, 30, 24
2, 732755, Note_on_c, 0, 42, 24
2, 732822, Control_c, 0, 64, 127
2, 733560, Note_on_c, 0, 69, 40
2, 733598, Note_on_c, 0, 62, 25
2, 733599, Note_on_c, 0, 60, 30
2, 734073, Note_off_c, 0, 42, 46
2, 734179, Note_off_c, 0, 30, 46
2, 734231, Note_off_c, 0, 60, 47
2, 734283, Note_off_c, 0, 62, 46
2, 734411, Note_off_c, 0, 69, 50
2, 734445, Note_on_c, 0, 43, 27
2, 734447, Note_on_c, 0, 31, 22
2, 734464, Control_c, 0, 64, 0
2, 734703, Control_c, 0, 64, 127
2, 735415, Note_on_c, 0, 67, 38
2, 735455, Note_on_c, 0, 62, 30
2, 735457, Note_on_c, 0, 60, 20
2, 735970, Note_off_c, 0, 43, 46
2, 736129, Note_off_c, 0, 31, 45
2, 736182, Note_off_c, 0, 62, 47
2, 736225, Note_off_c, 0, 60, 45
2, 736417, Note_off_c, 0, 67, 49
2, 736449, Note_on_c, 0, 43, 35
2, 736450, Note_on_c, 0, 31, 30
2, 736458, Control_c, 0, 64, 0
2, 736691, Control_c, 0, 64, 127
2, 737523, Note_on_c, 0, 65, 37
2, 737542, Note_on_c, 0, 62, 20
2, 737543, Note_on_c, 0, 59, 14
2, 738036, Note_off_c, 0, 31, 47
2, 738061, Note_off_c, 0, 43, 48
2, 738193, Note_off_c, 0, 62, 45
2, 738289, Note_off_c, 0, 65, 49
2, 738297, Note_off_c, 0, 59, 44
2, 738575, Note_on_c, 0, 64, 40
2, 738604, Note_on_c, 0, 60, 20
2, 738605, Note_on_c, 0, 55, 25
2, 738606, Note_on_c, 0, 48, 18
2, 738607, Note_on_c, 0, 43, 20
2, 738608, Note_on_c, 0, 36, 15
2, 738609, Control_c, 0, 64, 0
2, 738841, Control_c, 0, 64, 127
2, 739842, Note_off_c, 0, 43, 45
2, 739915, Note_off_c, 0, 60, 45
2, 740003, Note_off_c, 0, 55, 46
2, 740279, Note_on_c, 0, 65, 45
2, 740290, Note_off_c, 0, 48, 44
2, 740293, Note_off_c, 0, 36, 44
2, 740308, Note_on_c, 0, 62, 35
2, 740309, Note_on_c, 0, 55, 30
2, 740310, Note_on_c, 0, 47, 20
2, 740311, Note_on_c, 0, 43, 15
2, 740313, Note_on_c, 0, 35, 10
2, 740315, Control_c, 0, 64, 0
2, 740335, Note_off_c, 0, 64, 50
2, 740549, Control_c, 0, 64, 127
2, 740808, Note_off_c, 0, 62, 48
2, 740815, Note_off_c, 0, 55, 47
2, 740829, Note_off_c, 0, 43, 44
2, 740863, Note_off_c, 0, 47, 45
2, 740868, Note_off_c, 0, 35, 42
2, 740934, Note_off_c, 0, 65, 51
2, 741075, Control_c, 0, 64, 0
2, 744541, Note_on_c, 0, 67, 40
2, 744614, Control_c, 0, 64, 127
2, 744618, Note_on_c, 0, 47, 20
2, 744620, Note_on_c, 0, 35, 10
2, 744621, Note_on_c, 0, 55, 28
2, 744622, Note_on_c, 0, 43, 15
2, 745848, Note_off_c, 0, 67, 50
2, 745850, Note_on_c, 0, 62, 38
2, 745945, Note_off_c, 0, 43, 44
2, 746106, Note_off_c, 0, 55, 47
2, 746284, Note_on_c, 0, 64, 37
2, 746302, Note_off_c, 0, 62, 49
2, 746306, Note_off_c, 0, 47, 45
2, 746307, Note_off_c, 0, 35, 42
2, 746322, Note_on_c, 0, 55, 22
2, 746324, Note_on_c, 0, 48, 20
2, 746325, Note_on_c, 0, 43, 15
2, 746326, Note_on_c, 0, 36, 10
2, 746354, Control_c, 0, 64, 0
2, 746589, Control_c, 0, 64, 127
2, 746749, Note_off_c, 0, 55, 45
2, 746882, Note_off_c, 0, 64, 49
2, 746914, Note_off_c, 0, 36, 42
2, 746965, Note_off_c, 0, 43, 44
2, 747007, Note_off_c, 0, 48, 45
2, 747120, Control_c, 0, 64, 0
2, 750567, Note_on_c, 0, 64, 40
2, 750635, Note_on_c, 0, 60, 20
2, 750636, Note_on_c, 0, 55, 25
2, 750637, Note_on_c, 0, 48, 15
2, 750638, Note_on_c, 0, 52, 30
2, 750639, Note_on_c, 0, 36, 10
2, 750692, Control_c, 0, 64, 127
2, 752132, Note_off_c, 0, 55, 46
2, 752252, Note_off_c, 0, 48, 44
2, 752283, Note_off_c, 0, 60, 45
2, 752572, Note_off_c, 0, 64, 50
2, 752576, Note_on_c, 0, 62, 38
2, 752644, Note_on_c, 0, 57, 25
2, 752645, Note_on_c, 0, 50, 20
2, 752646, Note_on_c, 0, 42, 15
2, 752647, Note_on_c, 0, 30, 10
2, 752658, Note_off_c, 0, 52, 47
2, 752660, Note_off_c, 0, 36, 42
2, 752673, Control_c, 0, 64, 0
2, 752907, Control_c, 0, 64, 127
2, 753189, Note_off_c, 0, 50, 45
2, 753193, Note_off_c, 0, 30, 42
2, 753208, Note_off_c, 0, 42, 44
2, 753260, Note_off_c, 0, 57, 46
2, 753324, Note_off_c, 0, 62, 49
2, 753394, Control_c, 0, 64, 0
2, 756602, Note_on_c, 0, 62, 40
2, 756659, Note_on_c, 0, 50, 30
2, 756661, Note_on_c, 0, 42, 20
2, 756662, Note_on_c, 0, 30, 10
2, 756665, Control_c, 0, 64, 127
2, 757872, Note_off_c, 0, 62, 50
2, 757880, Note_on_c, 0, 57, 39
2, 758007, Note_off_c, 0, 50, 47
2, 758043, Note_off_c, 0, 42, 45
2, 758195, Note_off_c, 0, 57, 49
2, 758316, Note_on_c, 0, 60, 63
2, 758365, Note_on_c, 0, 55, 43
2, 758366, Note_on_c, 0, 50, 35
2, 758367, Note_on_c, 0, 41, 25
2, 758369, Note_on_c, 0, 29, 15
2, 758374, Control_c, 0, 64, 0
2, 758449, Note_off_c, 0, 30, 42
2, 758607, Control_c, 0, 64, 127
2, 761362, Note_on_c, 0, 59, 38
2, 761394, Note_off_c, 0, 60, 55
2, 761435, Note_off_c, 0, 41, 46
2, 761613, Note_off_c, 0, 29, 44
2, 761664, Note_off_c, 0, 55, 50
2, 761782, Note_off_c, 0, 50, 48
2, 762112, Note_off_c, 0, 59, 49
2, 762335, Note_on_c, 0, 60, 40
2, 762366, Note_on_c, 0, 40, 30
2, 762375, Note_on_c, 0, 55, 20
2, 762376, Note_on_c, 0, 52, 15
2, 762387, Control_c, 0, 64, 0
2, 762621, Control_c, 0, 64, 127
2, 763704, Note_off_c, 0, 52, 44
2, 763772, Note_off_c, 0, 55, 45
2, 764008, Note_off_c, 0, 60, 50
2, 764024, Note_on_c, 0, 62, 50
2, 764035, Note_off_c, 0, 40, 47
2, 764054, Note_on_c, 0, 38, 40
2, 764064, Note_on_c, 0, 59, 30
2, 764065, Note_on_c, 0, 55, 25
2, 764067, Note_on_c, 0, 53, 20
2, 764067, Note_on_c, 0, 50, 35
2, 764125, Control_c, 0, 64, 0
2, 764359, Control_c, 0, 64, 127
2, 765400, Note_off_c, 0, 53, 45
2, 765423, Note_off_c, 0, 50, 48
2, 765494, Note_off_c, 0, 59, 47
2, 765537, Note_off_c, 0, 55, 46
2, 765828, Note_off_c, 0, 62, 52
2, 765857, Note_off_c, 0, 38, 50
2, 765863, Note_on_c, 0, 64, 60
2, 765902, Note_on_c, 0, 60, 40
2, 765904, Note_on_c, 0, 36, 36
2, 765911, Note_on_c, 0, 55, 25
2, 765922, Note_on_c, 0, 48, 35
2, 765956, Control_c, 0, 64, 0
2, 766190, Control_c, 0, 64, 127
2, 767032, Note_off_c, 0, 55, 46
2, 767147, Note_off_c, 0, 48, 48
2, 767227, Note_off_c, 0, 60, 50
2, 767317, Note_off_c, 0, 64, 55
2, 767356, Note_off_c, 0, 36, 49
2, 767744, Note_on_c, 0, 64, 60
2, 767812, Note_on_c, 0, 41, 48
2, 767813, Note_on_c, 0, 55, 34
2, 767814, Note_on_c, 0, 29, 40
2, 767815, Note_on_c, 0, 57, 40
2, 767852, Control_c, 0, 64, 0
2, 768086, Control_c, 0, 64, 127
2, 769534, Note_off_c, 0, 64, 55
2, 769557, Note_on_c, 0, 62, 52
2, 769567, Note_off_c, 0, 55, 48
2, 769569, Note_on_c, 0, 53, 47
2, 769579, Control_c, 0, 64, 0
2, 769813, Control_c, 0, 64, 127
2, 771207, Note_off_c, 0, 57, 50
2, 771421, Note_off_c, 0, 53, 51
2, 771438, Note_on_c, 0, 60, 44
2, 771445, Note_off_c, 0, 62, 53
2, 771448, Note_on_c, 0, 57, 30
2, 771449, Note_on_c, 0, 52, 20
2, 771452, Control_c, 0, 64, 0
2, 771686, Control_c, 0, 64, 127
2, 772683, Note_off_c, 0, 57, 47
2, 772706, Note_off_c, 0, 52, 45
2, 773060, Note_off_c, 0, 60, 51
2, 773323, Note_off_c, 0, 29, 50
2, 773381, Note_off_c, 0, 41, 52
2, 773597, Note_on_c, 0, 57, 43
2, 773598, Note_on_c, 0, 59, 30
2, 773601, Control_c, 0, 64, 0
2, 773605, Note_on_c, 0, 50, 25
2, 773607, Note_on_c, 0, 43, 20
2, 773608, Note_on_c, 0, 31, 15
2, 773836, Control_c, 0, 64, 127
2, 774463, Note_on_c, 0, 56, 66
2, 774522, Note_off_c, 0, 57, 50
2, 776215, Note_off_c, 0, 56, 56
2, 776218, Note_on_c, 0, 55, 41
2, 777012, Note_off_c, 0, 50, 46
2, 777187, Note_off_c, 0, 55, 50
2, 777187, Note_on_c, 0, 54, 40
2, 777276, Note_off_c, 0, 59, 47
2, 777642, Note_off_c, 0, 31, 44
2, 778071, Note_off_c, 0, 43, 45
2, 778139, Note_off_c, 0, 54, 50
2, 778155, Note_on_c, 0, 59, 30
2, 778156, Note_on_c, 0, 53, 42
2, 778165, Note_on_c, 0, 50, 25
2, 778173, Control_c, 0, 64, 0
2, 778407, Control_c, 0, 64, 127
2, 778731, Note_off_c, 0, 50, 46
2, 778938, Note_off_c, 0, 59, 47
2, 778945, Note_off_c, 0, 53, 50
2, 779097, Note_on_c, 0, 62, 44
2, 779135, Note_on_c, 0, 59, 25
2, 779136, Note_on_c, 0, 43, 20
2, 779137, Note_on_c, 0, 53, 30
2, 779138, Note_on_c, 0, 36, 10
2, 779152, Control_c, 0, 64, 0
2, 779386, Control_c, 0, 64, 127
2, 780583, Note_off_c, 0, 59, 46
2, 780650, Note_off_c, 0, 43, 45
2, 780852, Note_off_c, 0, 62, 51
2, 780883, Note_on_c, 0, 60, 36
2, 780891, Note_on_c, 0, 52, 25
2, 780893, Note_on_c, 0, 48, 15
2, 780898, Control_c, 0, 64, 0
2, 780942, Note_off_c, 0, 53, 47
2, 781030, Note_off_c, 0, 60, 49
2, 781117, Note_off_c, 0, 48, 44
2, 781202, Control_c, 0, 64, 127
2, 781511, Note_off_c, 0, 36, 42
2, 781529, Note_off_c, 0, 52, 46
2, 781994, Control_c, 0, 64, 0
2, 784387, Note_on_c, 0, 60, 40
2, 784889, Note_off_c, 0, 60, 50
2, 784890, Note_on_c, 0, 67, 41
2, 786159, Note_on_c, 0, 66, 43
2, 786201, Note_off_c, 0, 67, 50
2, 786475, Note_off_c, 0, 66, 50
2, 786549, Note_on_c, 0, 74, 50
2, 786578, Note_on_c, 0, 57, 38
2, 786580, Note_on_c, 0, 66, 30
2, 786581, Note_on_c, 0, 60, 40
2, 786582, Note_on_c, 0, 50, 35
2, 786583, Note_on_c, 0, 45, 28
2, 786636, Control_c, 0, 64, 127
2, 788161, Note_off_c, 0, 50, 48
2, 788200, Note_off_c, 0, 57, 49
2, 788212, Note_off_c, 0, 60, 50
2, 788224, Note_off_c, 0, 45, 47
2, 788245, Note_off_c, 0, 66, 47
2, 788368, Note_off_c, 0, 74, 52
2, 788467, Note_on_c, 0, 74, 71
2, 788517, Note_on_c, 0, 66, 51
2, 788518, Note_on_c, 0, 60, 61
2, 788519, Note_on_c, 0, 57, 59
2, 788520, Note_on_c, 0, 50, 51
2, 788523, Note_on_c, 0, 45, 46
2, 788541, Control_c, 0, 64, 0
2, 788781, Control_c, 0, 64, 127
2, 789919, Note_off_c, 0, 45, 51
2, 790031, Note_off_c, 0, 60, 55
2, 790076, Note_off_c, 0, 57, 54
2, 790104, Note_off_c, 0, 66, 52
2, 790192, Note_off_c, 0, 50, 52
2, 790404, Note_off_c, 0, 74, 58
2, 790592, Note_on_c, 0, 74, 45
2, 790641, Note_on_c, 0, 71, 30
2, 790642, Note_on_c, 0, 67, 25
2, 790643, Note_on_c, 0, 62, 20
2, 790644, Note_on_c, 0, 59, 30
2, 790645, Note_on_c, 0, 50, 20
2, 790646, Note_on_c, 0, 43, 10
2, 790653, Control_c, 0, 64, 0
2, 790892, Control_c, 0, 64, 127
2, 791445, Note_off_c, 0, 74, 51
2, 791482, Note_on_c, 0, 76, 66
2, 791676, Note_on_c, 0, 74, 56
2, 791691, Note_off_c, 0, 76, 56
2, 791808, Note_off_c, 0, 67, 46
2, 791818, Note_on_c, 0, 73, 48
2, 791839, Note_off_c, 0, 74, 54
2, 791880, Note_off_c, 0, 71, 47
2, 791922, Note_off_c, 0, 62, 45
2, 791972, Note_on_c, 0, 74, 54
2, 791983, Note_off_c, 0, 73, 52
2, 792159, Note_on_c, 0, 83, 72
2, 792182, Note_off_c, 0, 74, 53
2, 793000, Note_off_c, 0, 50, 45
2, 793262, Control_c, 0, 64, 0
2, 793276, Note_off_c, 0, 59, 47
2, 793328, Note_off_c, 0, 43, 42
2, 793502, Control_c, 0, 64, 127
2, 793510, Note_off_c, 0, 83, 58
2, 793510, Note_on_c, 0, 73, 49
2, 793960, Note_on_c, 0, 76, 48
2, 794005, Note_off_c, 0, 73, 52
2, 794282, Note_on_c, 0, 74, 47
2, 794335, Note_off_c, 0, 76, 52
2, 794546, Note_on_c, 0, 70, 46
2, 794555, Control_c, 0, 64, 0
2, 794600, Note_off_c, 0, 74, 51
2, 794742, Control_c, 0, 64, 127
2, 794833, Note_on_c, 0, 72, 45
2, 794868, Note_off_c, 0, 70, 51
2, 795116, Note_on_c, 0, 71, 44
2, 795162, Note_off_c, 0, 72, 51
2, 795447, Note_on_c, 0, 67, 48
2, 795458, Note_off_c, 0, 71, 51
2, 795685, Note_off_c, 0, 67, 52
2, 795686, Note_on_c, 0, 66, 48
2, 795775, Note_off_c, 0, 66, 52
2, 795775, Note_on_c, 0, 67, 48
2, 795890, Note_off_c, 0, 67, 52
2, 795892, Note_on_c, 0, 69, 48
2, 795988, Note_off_c, 0, 69, 52
2, 795993, Note_on_c, 0, 67, 48
2, 796050, Control_c, 0, 64, 0
2, 796288, Control_c, 0, 64, 127
2, 797310, Note_on_c, 0, 66, 52
2, 797367, Note_off_c, 0, 67, 52
2, 797643, Note_off_c, 0, 66, 53
2, 797708, Note_on_c, 0, 74, 66
2, 797758, Note_on_c, 0, 66, 48
2, 797759, Note_on_c, 0, 60, 34
2, 797760, Note_on_c, 0, 57, 24
2, 797761, Note_on_c, 0, 50, 14
2, 797762, Note_on_c, 0, 45, 19
2, 797763, Control_c, 0, 64, 0
2, 798000, Control_c, 0, 64, 127
2, 799102, Note_off_c, 0, 57, 46
2, 799125, Note_off_c, 0, 66, 52
2, 799197, Note_off_c, 0, 60, 48
2, 799313, Note_off_c, 0, 45, 45
2, 799337, Note_off_c, 0, 74, 56
2, 799339, Note_off_c, 0, 50, 44
2, 799530, Note_on_c, 0, 74, 78
2, 799579, Note_on_c, 0, 57, 42
2, 799581, Note_on_c, 0, 66, 58
2, 799582, Note_on_c, 0, 60, 51
2, 799583, Note_on_c, 0, 50, 42
2, 799584, Note_on_c, 0, 45, 37
2, 799586, Control_c, 0, 64, 0
2, 799825, Control_c, 0, 64, 127
2, 801050, Note_off_c, 0, 57, 50
2, 801095, Note_off_c, 0, 66, 54
2, 801104, Note_off_c, 0, 60, 52
2, 801123, Note_off_c, 0, 50, 50
2, 801257, Note_off_c, 0, 45, 49
2, 801399, Note_off_c, 0, 74, 59
2, 801550, Note_on_c, 0, 74, 54
2, 801589, Note_on_c, 0, 71, 34
2, 801590, Note_on_c, 0, 67, 24
2, 801591, Note_on_c, 0, 62, 14
2, 801593, Note_on_c, 0, 43, 22
2, 801594, Note_on_c, 0, 50, 20
2, 801595, Note_on_c, 0, 59, 10
2, 801604, Control_c, 0, 64, 0
2, 801843, Control_c, 0, 64, 127
2, 802398, Note_off_c, 0, 74, 53
2, 802424, Note_on_c, 0, 76, 60
2, 802605, Note_on_c, 0, 74, 56
2, 802616, Note_off_c, 0, 76, 55
2, 802758, Note_off_c, 0, 71, 48
2, 802760, Note_on_c, 0, 73, 52
2, 802779, Note_off_c, 0, 74, 54
2, 802824, Note_off_c, 0, 67, 46
2, 802910, Note_off_c, 0, 62, 44
2, 802912, Note_on_c, 0, 74, 48
2, 802914, Note_off_c, 0, 73, 53
2, 803080, Note_on_c, 0, 83, 72
2, 803120, Note_off_c, 0, 74, 52
2, 804090, Note_off_c, 0, 59, 42
2, 804218, Note_off_c, 0, 43, 45
2, 804351, Note_off_c, 0, 50, 45
2, 804477, Control_c, 0, 64, 0
2, 804581, Note_off_c, 0, 83, 58
2, 804583, Note_on_c, 0, 78, 48
2, 804718, Control_c, 0, 64, 127
2, 805062, Note_on_c, 0, 81, 48
2, 805113, Note_off_c, 0, 78, 52
2, 805362, Note_on_c, 0, 79, 46
2, 805393, Note_off_c, 0, 81, 52
2, 805663, Note_on_c, 0, 73, 43
2, 805689, Note_off_c, 0, 79, 51
2, 805966, Note_on_c, 0, 76, 40
2, 805975, Note_off_c, 0, 73, 50
2, 806108, Note_on_c, 0, 74, 39
2, 806134, Note_off_c, 0, 76, 50
2, 806265, Note_on_c, 0, 66, 38
2, 806295, Note_off_c, 0, 74, 49
2, 806422, Note_on_c, 0, 72, 36
2, 806448, Note_off_c, 0, 66, 49
2, 806594, Note_on_c, 0, 71, 36
2, 806627, Note_off_c, 0, 72, 49
2, 806753, Note_on_c, 0, 67, 36
2, 806761, Note_off_c, 0, 71, 49
2, 806853, Note_off_c, 0, 67, 49
2, 806904, Note_on_c, 0, 66, 48
2, 807013, Note_on_c, 0, 67, 48
2, 807026, Control_c, 0, 64, 0
2, 807045, Note_off_c, 0, 66, 52
2, 807118, Note_on_c, 0, 69, 48
2, 807144, Note_off_c, 0, 67, 52
2, 807167, Control_c, 0, 64, 127
2, 807244, Note_off_c, 0, 69, 52
2, 807246, Note_on_c, 0, 67, 48
2, 808638, Note_on_c, 0, 66, 52
2, 808678, Note_off_c, 0, 67, 52
2, 808985, Note_off_c, 0, 66, 53
2, 809081, Note_on_c, 0, 74, 54
2, 809118, Note_on_c, 0, 57, 40
2, 809120, Note_on_c, 0, 66, 39
2, 809121, Note_on_c, 0, 60, 30
2, 809122, Note_on_c, 0, 50, 35
2, 809123, Note_on_c, 0, 45, 30
2, 809128, Control_c, 0, 64, 0
2, 809367, Control_c, 0, 64, 127
2, 809764, Note_off_c, 0, 74, 53
2, 810007, Note_on_c, 0, 74, 63
2, 810415, Note_off_c, 0, 45, 47
2, 810486, Note_off_c, 0, 60, 47
2, 810494, Note_off_c, 0, 50, 48
2, 810542, Note_off_c, 0, 66, 49
2, 810599, Note_off_c, 0, 57, 50
2, 810939, Note_on_c, 0, 65, 70
2, 810940, Note_on_c, 0, 60, 58
2, 810941, Note_on_c, 0, 56, 53
2, 810942, Note_on_c, 0, 50, 63
2, 810944, Note_on_c, 0, 44, 48
2, 810956, Control_c, 0, 64, 0
2, 811195, Control_c, 0, 64, 127
2, 811764, Note_off_c, 0, 74, 55
2, 811896, Note_on_c, 0, 74, 90
2, 812478, Note_off_c, 0, 50, 55
2, 812548, Note_off_c, 0, 65, 57
2, 812614, Note_off_c, 0, 44, 52
2, 812615, Note_off_c, 0, 56, 53
2, 812635, Note_off_c, 0, 60, 54
2, 812873, Note_on_c, 0, 43, 76
2, 812955, Control_c, 0, 64, 0
2, 813034, Note_on_c, 0, 47, 78
2, 813193, Control_c, 0, 64, 127
2, 813200, Note_on_c, 0, 50, 80
2, 813368, Note_on_c, 0, 53, 82
2, 813534, Note_on_c, 0, 55, 84
2, 813665, Note_off_c, 0, 74, 62
2, 813701, Note_off_c, 0, 43, 59
2, 813704, Note_off_c, 0, 50, 60
2, 813704, Note_off_c, 0, 47, 59
2, 813705, Note_off_c, 0, 55, 61
2, 813707, Note_off_c, 0, 53, 60
2, 813708, Note_on_c, 0, 74, 72
2, 813817, Note_off_c, 0, 74, 58
2, 813820, Note_on_c, 0, 76, 72
2, 813920, Note_off_c, 0, 76, 58
2, 813923, Note_on_c, 0, 77, 84
2, 813978, Control_c, 0, 64, 0
2, 814216, Control_c, 0, 64, 127
2, 814772, Note_on_c, 0, 55, 48
2, 814889, Note_on_c, 0, 59, 48
2, 815006, Note_on_c, 0, 62, 48
2, 815071, Note_off_c, 0, 77, 61
2, 815123, Note_on_c, 0, 65, 48
2, 815125, Note_on_c, 0, 77, 48
2, 815192, Control_c, 0, 64, 0
2, 815220, Note_on_c, 0, 76, 39
2, 815277, Note_off_c, 0, 77, 52
2, 815339, Note_on_c, 0, 74, 30
2, 815357, Note_off_c, 0, 55, 52
2, 815358, Note_off_c, 0, 59, 52
2, 815360, Note_off_c, 0, 62, 52
2, 815360, Note_off_c, 0, 65, 52
2, 815373, Note_off_c, 0, 76, 49
2, 815551, Note_off_c, 0, 74, 47
2, 815810, Control_c, 0, 64, 127
2, 816008, Note_on_c, 0, 74, 43
2, 816102, Note_on_c, 0, 72, 34
2, 816133, Note_off_c, 0, 74, 50
2, 816199, Note_on_c, 0, 71, 25
2, 816246, Note_off_c, 0, 72, 48
2, 816434, Note_off_c, 0, 71, 46
2, 816920, Note_on_c, 0, 71, 38
2, 817025, Note_on_c, 0, 69, 28
2, 817084, Note_off_c, 0, 71, 49
2, 817115, Note_on_c, 0, 67, 20
2, 817133, Note_off_c, 0, 69, 47
2, 817317, Note_off_c, 0, 67, 45
2, 817844, Note_on_c, 0, 67, 33
2, 817951, Note_on_c, 0, 65, 15
2, 817998, Note_off_c, 0, 67, 48
2, 818026, Note_off_c, 0, 65, 44
2, 818042, Note_on_c, 0, 64, 43
2, 818091, Note_on_c, 0, 55, 30
2, 818092, Note_on_c, 0, 48, 25
2, 818093, Note_on_c, 0, 36, 20
2, 819709, Note_off_c, 0, 55, 47
2, 820200, Note_off_c, 0, 64, 50
2, 820201, Note_on_c, 0, 65, 40
2, 820244, Note_off_c, 0, 36, 45
2, 820245, Note_off_c, 0, 48, 46
2, 820249, Note_on_c, 0, 55, 30
2, 820251, Note_on_c, 0, 50, 20
2, 820252, Note_on_c, 0, 35, 14
2, 820277, Control_c, 0, 64, 0
2, 820517, Control_c, 0, 64, 127
2, 820719, Note_off_c, 0, 35, 44
2, 820748, Note_off_c, 0, 50, 45
2, 820992, Note_off_c, 0, 55, 47
2, 821050, Note_off_c, 0, 65, 50
2, 821149, Control_c, 0, 64, 0
2, 821503, Note_on_c, 0, 79, 48
2, 821593, Control_c, 0, 64, 127
2, 821939, Note_on_c, 0, 78, 48
2, 821967, Note_off_c, 0, 79, 52
2, 822390, Note_on_c, 0, 79, 51
2, 822449, Note_off_c, 0, 78, 52
2, 822842, Note_on_c, 0, 81, 54
2, 822936, Note_off_c, 0, 79, 52
2, 823294, Note_on_c, 0, 79, 57
2, 823348, Note_off_c, 0, 81, 53
2, 823642, Note_off_c, 0, 79, 54
2, 823696, Note_on_c, 0, 67, 38
2, 823745, Note_on_c, 0, 55, 24
2, 823746, Note_on_c, 0, 47, 19
2, 823747, Note_on_c, 0, 43, 29
2, 823748, Note_on_c, 0, 35, 14
2, 823772, Control_c, 0, 64, 0
2, 824012, Control_c, 0, 64, 127
2, 825017, Note_on_c, 0, 62, 33
2, 825090, Note_off_c, 0, 67, 49
2, 825234, Note_off_c, 0, 43, 47
2, 825322, Note_off_c, 0, 55, 46
2, 825451, Note_on_c, 0, 64, 40
2, 825484, Note_off_c, 0, 47, 45
2, 825485, Note_off_c, 0, 35, 44
2, 825500, Note_on_c, 0, 55, 26
2, 825501, Note_on_c, 0, 48, 19
2, 825502, Note_on_c, 0, 43, 32
2, 825503, Note_on_c, 0, 36, 14
2, 825507, Note_off_c, 0, 62, 48
2, 825600, Control_c, 0, 64, 0
2, 825840, Control_c, 0, 64, 127
2, 825993, Note_off_c, 0, 48, 45
2, 826060, Note_off_c, 0, 36, 44
2, 826070, Note_off_c, 0, 43, 48
2, 826082, Note_off_c, 0, 55, 46
2, 826354, Note_off_c, 0, 64, 50
2, 826716, Control_c, 0, 64, 0
2, 826869, Note_on_c, 0, 79, 30
2, 826879, Note_on_c, 0, 67, 24
2, 826956, Control_c, 0, 64, 127
2, 827252, Note_off_c, 0, 67, 46
2, 827318, Note_off_c, 0, 79, 47
2, 827322, Note_on_c, 0, 78, 36
2, 827332, Note_on_c, 0, 66, 31
2, 827743, Note_off_c, 0, 66, 47
2, 827840, Note_off_c, 0, 78, 49
2, 827841, Note_on_c, 0, 79, 50
2, 827849, Note_on_c, 0, 67, 44
2, 828300, Note_off_c, 0, 67, 51
2, 828354, Note_off_c, 0, 79, 52
2, 828357, Note_on_c, 0, 81, 47
2, 828366, Note_on_c, 0, 69, 40
2, 828786, Note_off_c, 0, 69, 50
2, 828875, Note_off_c, 0, 81, 51
2, 828876, Note_on_c, 0, 79, 30
2, 828885, Note_on_c, 0, 67, 24
2, 829201, Note_off_c, 0, 67, 46
2, 829314, Control_c, 0, 64, 0
2, 829316, Note_on_c, 0, 69, 50
2, 829393, Note_off_c, 0, 79, 47
2, 829395, Note_on_c, 0, 49, 42
2, 829396, Note_on_c, 0, 57, 30
2, 829397, Note_on_c, 0, 45, 35
2, 829398, Note_on_c, 0, 37, 30
2, 829555, Control_c, 0, 64, 127
2, 830593, Note_on_c, 0, 64, 48
2, 830636, Note_off_c, 0, 69, 52
2, 830760, Note_off_c, 0, 37, 47
2, 830783, Note_off_c, 0, 57, 47
2, 830787, Note_off_c, 0, 49, 50
2, 830844, Note_off_c, 0, 45, 48
2, 830909, Note_off_c, 0, 64, 52
2, 831021, Note_on_c, 0, 65, 52
2, 831101, Note_on_c, 0, 50, 40
2, 831102, Note_on_c, 0, 38, 32
2, 831128, Control_c, 0, 64, 0
2, 831368, Control_c, 0, 64, 127
2, 831781, Note_on_c, 0, 53, 54
2, 831998, Note_off_c, 0, 38, 48
2, 831999, Note_off_c, 0, 53, 53
2, 832001, Note_off_c, 0, 50, 50
2, 832002, Note_on_c, 0, 58, 62
2, 832016, Control_c, 0, 64, 0
2, 832255, Control_c, 0, 64, 127
2, 832373, Note_off_c, 0, 65, 53
2, 832449, Note_on_c, 0, 70, 67
2, 832684, Note_on_c, 0, 69, 69
2, 832723, Note_off_c, 0, 70, 57
2, 832850, Note_off_c, 0, 69, 57
2, 832901, Note_on_c, 0, 67, 72
2, 832902, Note_on_c, 0, 52, 60
2, 832917, Control_c, 0, 64, 0
2, 833155, Control_c, 0, 64, 127
2, 833285, Note_off_c, 0, 58, 55
2, 833653, Note_on_c, 0, 55, 60
2, 833902, Note_off_c, 0, 55, 55
2, 833905, Note_on_c, 0, 60, 65
2, 834001, Control_c, 0, 64, 0
2, 834237, Control_c, 0, 64, 127
2, 834404, Note_off_c, 0, 67, 58
2, 834407, Note_on_c, 0, 72, 69
2, 834656, Note_on_c, 0, 70, 68
2, 834682, Note_off_c, 0, 72, 57
2, 834855, Note_off_c, 0, 70, 57
2, 834886, Note_off_c, 0, 52, 55
2, 834902, Control_c, 0, 64, 0
2, 834907, Note_on_c, 0, 53, 55
2, 834908, Note_on_c, 0, 69, 66
2, 835139, Control_c, 0, 64, 127
2, 835556, Note_off_c, 0, 60, 56
2, 835557, Note_on_c, 0, 57, 51
2, 835760, Note_off_c, 0, 53, 53
2, 835761, Note_off_c, 0, 57, 52
2, 835762, Note_on_c, 0, 62, 56
2, 835764, Note_on_c, 0, 54, 50
2, 835837, Control_c, 0, 64, 0
2, 836075, Control_c, 0, 64, 127
2, 836192, Note_off_c, 0, 69, 56
2, 836194, Note_on_c, 0, 74, 62
2, 836394, Note_on_c, 0, 72, 60
2, 836437, Note_off_c, 0, 74, 55
2, 836520, Control_c, 0, 64, 0
2, 836561, Note_off_c, 0, 72, 55
2, 836610, Note_off_c, 0, 54, 52
2, 836611, Note_on_c, 0, 71, 60
2, 836613, Note_on_c, 0, 55, 49
2, 836756, Control_c, 0, 64, 127
2, 837128, Note_off_c, 0, 62, 54
2, 837294, Note_off_c, 0, 55, 52
2, 837296, Note_on_c, 0, 60, 49
2, 837487, Note_on_c, 0, 77, 80
2, 837514, Note_off_c, 0, 60, 52
2, 837516, Note_off_c, 0, 71, 55
2, 837518, Note_on_c, 0, 59, 48
2, 837519, Note_on_c, 0, 65, 60
2, 837520, Note_on_c, 0, 56, 48
2, 837525, Control_c, 0, 64, 0
2, 837763, Control_c, 0, 64, 127
2, 838196, Note_off_c, 0, 59, 52
2, 838200, Note_on_c, 0, 60, 48
2, 838431, Note_off_c, 0, 60, 52
2, 838434, Note_on_c, 0, 62, 47
2, 839185, Note_off_c, 0, 62, 51
2, 839185, Note_on_c, 0, 59, 43
2, 839408, Note_off_c, 0, 77, 60
2, 839412, Note_on_c, 0, 76, 60
2, 839435, Note_off_c, 0, 56, 52
2, 839437, Note_off_c, 0, 65, 55
2, 839438, Note_off_c, 0, 59, 50
2, 839441, Note_on_c, 0, 64, 48
2, 839442, Note_on_c, 0, 57, 42
2, 839443, Note_on_c, 0, 60, 32
2, 839459, Control_c, 0, 64, 0
2, 839698, Control_c, 0, 64, 127
2, 839987, Note_off_c, 0, 60, 48
2, 840158, Note_off_c, 0, 76, 55
2, 840187, Note_off_c, 0, 57, 50
2, 840190, Note_on_c, 0, 60, 38
2, 840403, Note_off_c, 0, 60, 49
2, 840405, Note_off_c, 0, 64, 52
2, 840418, Note_on_c, 0, 62, 36
2, 840437, Note_on_c, 0, 54, 10
2, 840438, Note_on_c, 0, 60, 20
2, 840450, Control_c, 0, 64, 0
2, 840688, Control_c, 0, 64, 127
2, 841887, Note_on_c, 0, 69, 30
2, 842022, Note_off_c, 0, 62, 49
2, 842039, Note_off_c, 0, 60, 45
2, 842087, Note_off_c, 0, 69, 47
2, 842089, Note_on_c, 0, 67, 34
2, 842126, Note_off_c, 0, 54, 42
2, 842128, Note_on_c, 0, 64, 24
2, 842136, Control_c, 0, 64, 0
2, 842137, Note_on_c, 0, 60, 18
2, 842139, Note_on_c, 0, 55, 12
2, 842375, Control_c, 0, 64, 127
2, 843564, Note_off_c, 0, 67, 48
2, 843581, Note_off_c, 0, 60, 44
2, 843671, Note_on_c, 0, 67, 35
2, 843736, Note_off_c, 0, 55, 43
2, 843858, Note_off_c, 0, 67, 48
2, 843911, Note_on_c, 0, 67, 22
2, 843945, Note_off_c, 0, 64, 46
2, 843970, Note_on_c, 0, 62, 14
2, 843971, Note_on_c, 0, 59, 29
2, 843972, Note_on_c, 0, 53, 24
2, 843973, Note_on_c, 0, 43, 19
2, 843974, Note_on_c, 0, 31, 14
2, 843983, Control_c, 0, 64, 0
2, 844222, Control_c, 0, 64, 127
2, 844893, Note_off_c, 0, 53, 46
2, 844908, Note_off_c, 0, 59, 47
2, 844984, Note_off_c, 0, 31, 44
2, 844991, Note_off_c, 0, 62, 44
2, 845033, Note_off_c, 0, 43, 45
2, 845178, Note_off_c, 0, 67, 45
2, 845595, Note_on_c, 0, 67, 30
2, 845844, Note_off_c, 0, 67, 47
2, 845852, Note_on_c, 0, 61, 36
2, 845889, Control_c, 0, 64, 0
2, 845901, Note_on_c, 0, 55, 30
2, 845902, Note_on_c, 0, 52, 25
2, 845904, Note_on_c, 0, 46, 15
2, 845904, Note_on_c, 0, 34, 20
2, 846127, Control_c, 0, 64, 127
2, 847131, Note_off_c, 0, 34, 45
2, 847226, Note_off_c, 0, 46, 44
2, 847246, Note_off_c, 0, 52, 46
2, 847331, Note_off_c, 0, 55, 47
2, 847552, Note_off_c, 0, 61, 49
2, 847731, Control_c, 0, 64, 0
2, 848389, Control_c, 0, 64, 127
2, 848443, Note_on_c, 0, 61, 90
2, 848449, Note_on_c, 0, 52, 74
2, 848450, Note_on_c, 0, 33, 81
2, 848452, Note_on_c, 0, 55, 78
2, 848457, Note_on_c, 0, 45, 84
2, 848599, Control_c, 0, 64, 0
2, 848649, Note_off_c, 0, 52, 59
2, 848659, Note_off_c, 0, 33, 60
2, 848685, Note_off_c, 0, 45, 61
2, 848690, Note_off_c, 0, 55, 59
2, 848701, Note_off_c, 0, 61, 62
2, 849326, Control_c, 0, 64, 127
2, 849346, Note_on_c, 0, 62, 91
2, 849350, Note_on_c, 0, 50, 86
2, 849354, Note_on_c, 0, 38, 66
2, 849356, Note_on_c, 0, 45, 76
2, 849358, Note_on_c, 0, 53, 71
2, 849360, Note_on_c, 0, 57, 79
2, 849558, Note_off_c, 0, 50, 61
2, 849564, Note_off_c, 0, 38, 56
2, 849582, Note_off_c, 0, 45, 59
2, 849608, Note_off_c, 0, 57, 60
2, 849626, Note_off_c, 0, 53, 58
2, 849637, Note_off_c, 0, 62, 62
2, 849647, Control_c, 0, 64, 0
2, 850319, Note_on_c, 0, 64, 94
2, 850322, Note_on_c, 0, 37, 70
2, 850323, Note_on_c, 0, 57, 82
2, 850325, Note_on_c, 0, 52, 76
2, 850327, Note_on_c, 0, 49, 86
2, 850372, Control_c, 0, 64, 127
2, 850548, Note_off_c, 0, 57, 60
2, 850551, Note_off_c, 0, 52, 59
2, 850553, Note_off_c, 0, 37, 57
2, 850571, Note_off_c, 0, 49, 61
2, 850590, Note_off_c, 0, 64, 63
2, 850695, Control_c, 0, 64, 0
2, 854104, Control_c, 0, 64, 127
2, 854154, Note_on_c, 0, 37, 76
2, 854156, Note_on_c, 0, 64, 96
2, 854160, Note_on_c, 0, 57, 84
2, 854162, Note_on_c, 0, 52, 80
2, 854163, Note_on_c, 0, 49, 90
2, 854298, Note_off_c, 0, 37, 59
2, 854339, Note_off_c, 0, 57, 61
2, 854344, Note_off_c, 0, 49, 62
2, 854370, Note_off_c, 0, 52, 60
2, 854373, Note_off_c, 0, 64, 63
2, 854412, Control_c, 0, 64, 0
2, 855054, Control_c, 0, 64, 127
2, 855090, Note_on_c, 0, 38, 76
2, 855092, Note_on_c, 0, 53, 85
2, 855093, Note_on_c, 0, 65, 90
2, 855095, Note_on_c, 0, 45, 68
2, 855097, Note_on_c, 0, 57, 80
2, 855098, Note_on_c, 0, 50, 75
2, 855099, Note_on_c, 0, 62, 78
2, 855324, Note_off_c, 0, 65, 62
2, 855333, Note_off_c, 0, 50, 59
2, 855336, Note_off_c, 0, 45, 57
2, 855347, Note_off_c, 0, 57, 60
2, 855355, Note_off_c, 0, 38, 59
2, 855380, Note_off_c, 0, 53, 61
2, 855390, Note_off_c, 0, 62, 59
2, 855392, Control_c, 0, 64, 0
2, 856419, Control_c, 0, 64, 127
2, 856426, Note_on_c, 0, 48, 80
2, 856428, Note_on_c, 0, 36, 76
2, 856429, Note_on_c, 0, 60, 85
2, 856430, Note_on_c, 0, 64, 70
2, 856432, Note_on_c, 0, 55, 75
2, 856437, Note_on_c, 0, 67, 92
2, 856655, Note_off_c, 0, 36, 59
2, 856657, Note_off_c, 0, 48, 60
2, 856688, Note_off_c, 0, 55, 59
2, 856693, Note_off_c, 0, 60, 61
2, 856707, Note_off_c, 0, 67, 62
2, 856711, Note_off_c, 0, 64, 57
2, 856736, Control_c, 0, 64, 0
2, 860920, Control_c, 0, 67, 127
2, 861304, Note_on_c, 0, 67, 46
2, 861333, Note_on_c, 0, 36, 20
2, 861343, Control_c, 0, 64, 127
2, 861344, Note_on_c, 0, 48, 30
2, 861345, Note_on_c, 0, 64, 20
2, 861346, Note_on_c, 0, 60, 24
2, 861348, Note_on_c, 0, 55, 34
2, 861857, Note_off_c, 0, 55, 48
2, 861882, Note_off_c, 0, 60, 46
2, 861940, Note_off_c, 0, 64, 45
2, 861942, Note_off_c, 0, 48, 47
2, 862190, Note_off_c, 0, 67, 51
2, 862208, Note_on_c, 0, 69, 64
2, 862247, Note_on_c, 0, 65, 32
2, 862248, Note_on_c, 0, 60, 27
2, 862250, Note_on_c, 0, 57, 38
2, 862250, Note_on_c, 0, 53, 32
2, 862252, Note_on_c, 0, 48, 22
2, 862253, Note_on_c, 0, 41, 18
2, 862254, Control_c, 0, 64, 0
2, 862284, Note_off_c, 0, 36, 45
2, 862474, Control_c, 0, 64, 127
2, 862793, Note_off_c, 0, 48, 45
2, 862817, Note_off_c, 0, 57, 49
2, 862884, Note_off_c, 0, 60, 46
2, 862921, Note_off_c, 0, 65, 48
2, 862940, Note_off_c, 0, 53, 48
2, 863000, Control_c, 0, 67, 0
2, 863159, Note_off_c, 0, 69, 56
2, 863176, Note_on_c, 0, 67, 60
2, 863216, Note_on_c, 0, 64, 34
2, 863217, Note_on_c, 0, 60, 14
2, 863218, Note_on_c, 0, 55, 32
2, 863219, Note_on_c, 0, 48, 24
2, 863220, Note_on_c, 0, 43, 19
2, 863221, Control_c, 0, 64, 0
2, 863260, Note_off_c, 0, 41, 44
2, 863434, Control_c, 0, 64, 127
2, 863654, Note_off_c, 0, 64, 48
2, 863676, Note_off_c, 0, 55, 48
2, 863693, Note_off_c, 0, 48, 46
2, 863736, Note_off_c, 0, 60, 44
2, 863910, Note_off_c, 0, 67, 55
2, 864018, Note_off_c, 0, 43, 45
2, 864156, Note_on_c, 0, 66, 76
2, 864192, Control_c, 0, 64, 0
2, 864194, Note_on_c, 0, 57, 56
2, 864196, Note_on_c, 0, 60, 48
2, 864197, Note_on_c, 0, 48, 63
2, 864198, Note_on_c, 0, 45, 44
2, 864409, Control_c, 0, 64, 127
2, 864676, Note_off_c, 0, 57, 54
2, 864684, Note_off_c, 0, 45, 51
2, 864701, Note_off_c, 0, 60, 52
2, 864759, Note_off_c, 0, 48, 55
2, 864808, Note_off_c, 0, 66, 59
2, 865007, Note_on_c, 0, 74, 88
2, 865037, Note_on_c, 0, 60, 66
2, 865038, Note_on_c, 0, 48, 50
2, 865039, Note_on_c, 0, 56, 56
2, 865040, Note_on_c, 0, 44, 46
2, 865041, Note_on_c, 0, 66, 76
2, 865043, Control_c, 0, 64, 0
2, 865262, Control_c, 0, 64, 127
2, 865672, Note_off_c, 0, 60, 56
2, 865672, Note_off_c, 0, 66, 59
2, 865760, Note_off_c, 0, 74, 62
2, 865785, Note_off_c, 0, 48, 52
2, 865788, Note_off_c, 0, 44, 51
2, 865789, Note_off_c, 0, 56, 54
2, 865913, Note_on_c, 0, 43, 70
2, 866024, Note_on_c, 0, 60, 79
2, 866030, Note_on_c, 0, 48, 40
2, 866042, Control_c, 0, 64, 0
2, 866077, Note_on_c, 0, 52, 45
2, 866135, Note_on_c, 0, 55, 60
2, 866181, Note_on_c, 0, 67, 80
2, 866224, Note_off_c, 0, 60, 60
2, 866261, Control_c, 0, 64, 127
2, 866281, Note_on_c, 0, 76, 90
2, 866382, Note_off_c, 0, 67, 60
2, 866711, Note_off_c, 0, 48, 50
2, 866759, Note_off_c, 0, 52, 51
2, 866818, Note_off_c, 0, 55, 55
2, 867026, Note_on_c, 0, 55, 60
2, 867027, Note_on_c, 0, 52, 55
2, 867028, Note_on_c, 0, 48, 43
2, 867051, Control_c, 0, 64, 0
2, 867266, Note_off_c, 0, 76, 62
2, 867279, Note_off_c, 0, 43, 57
2, 867294, Control_c, 0, 64, 127
2, 867310, Note_on_c, 0, 77, 85
2, 867421, Note_off_c, 0, 77, 61
2, 867425, Note_on_c, 0, 76, 82
2, 867533, Note_off_c, 0, 76, 60
2, 867555, Note_on_c, 0, 74, 79
2, 867668, Note_off_c, 0, 74, 60
2, 867678, Note_on_c, 0, 76, 75
2, 867686, Note_off_c, 0, 55, 55
2, 867766, Note_off_c, 0, 52, 53
2, 867785, Note_off_c, 0, 48, 50
2, 867875, Note_off_c, 0, 76, 59
2, 867927, Note_on_c, 0, 79, 72
2, 867928, Note_on_c, 0, 55, 36
2, 867929, Note_on_c, 0, 53, 40
2, 867930, Note_on_c, 0, 50, 30
2, 867932, Note_on_c, 0, 43, 24
2, 867934, Control_c, 0, 64, 0
2, 868153, Control_c, 0, 64, 127
2, 868410, Note_on_c, 0, 77, 65
2, 868413, Note_off_c, 0, 79, 58
2, 868659, Note_off_c, 0, 53, 50
2, 868661, Note_off_c, 0, 50, 47
2, 868663, Note_off_c, 0, 55, 49
2, 868895, Note_off_c, 0, 77, 56
2, 868897, Note_on_c, 0, 74, 58
2, 868898, Note_on_c, 0, 55, 36
2, 868899, Note_on_c, 0, 53, 32
2, 868900, Note_on_c, 0, 50, 20
2, 868904, Control_c, 0, 64, 0
2, 869123, Control_c, 0, 64, 127
2, 869378, Note_off_c, 0, 43, 46
2, 869382, Note_off_c, 0, 74, 54
2, 869383, Note_on_c, 0, 71, 51
2, 869629, Note_off_c, 0, 50, 45
2, 869630, Note_off_c, 0, 53, 48
2, 869631, Note_off_c, 0, 55, 49
2, 869863, Note_off_c, 0, 71, 52
2, 869865, Note_on_c, 0, 72, 44
2, 869867, Note_on_c, 0, 48, 25
2, 869868, Note_on_c, 0, 55, 36
2, 869869, Note_on_c, 0, 52, 30
2, 869899, Control_c, 0, 64, 0
2, 870117, Control_c, 0, 64, 127
2, 870282, Note_on_c, 0, 67, 48
2, 870284, Note_off_c, 0, 72, 51
2, 870717, Note_on_c, 0, 79, 48
2, 870814, Note_off_c, 0, 67, 52
2, 871032, Note_off_c, 0, 79, 52
2, 871132, Note_off_c, 0, 48, 46
2, 871135, Note_on_c, 0, 79, 48
2, 871258, Note_off_c, 0, 79, 52
2, 871473, Control_c, 0, 64, 0
2, 871569, Note_on_c, 0, 48, 44
2, 871697, Control_c, 0, 64, 127
2, 872018, Note_on_c, 0, 67, 58
2, 872321, Note_off_c, 0, 55, 49
2, 872323, Note_off_c, 0, 52, 47
2, 872472, Note_on_c, 0, 79, 68
2, 872474, Note_on_c, 0, 55, 48
2, 872475, Note_on_c, 0, 52, 40
2, 872577, Note_off_c, 0, 67, 54
2, 872805, Note_off_c, 0, 79, 57
2, 872921, Note_on_c, 0, 79, 79
2, 873064, Note_off_c, 0, 79, 60
2, 873154, Note_off_c, 0, 55, 52
2, 873157, Note_off_c, 0, 52, 50
2, 873261, Note_off_c, 0, 48, 51
2, 873345, Control_c, 0, 64, 0
2, 873374, Note_on_c, 0, 52, 45
2, 873375, Note_on_c, 0, 48, 36
2, 873376, Note_on_c, 0, 55, 52
2, 873579, Control_c, 0, 64, 127
2, 873857, Note_on_c, 0, 67, 79
2, 874346, Note_off_c, 0, 52, 51
2, 874348, Note_on_c, 0, 79, 79
2, 874349, Note_on_c, 0, 60, 56
2, 874415, Note_off_c, 0, 55, 53
2, 874442, Note_off_c, 0, 67, 60
2, 874710, Note_off_c, 0, 79, 60
2, 874826, Note_on_c, 0, 79, 82
2, 874980, Note_off_c, 0, 79, 60
2, 875077, Note_off_c, 0, 60, 54
2, 875280, Control_c, 0, 64, 0
2, 875309, Note_off_c, 0, 48, 49
2, 875313, Note_on_c, 0, 60, 84
2, 875325, Note_on_c, 0, 50, 54
2, 875336, Note_on_c, 0, 55, 60
2, 875337, Note_on_c, 0, 53, 70
2, 875504, Control_c, 0, 64, 98
2, 875745, Note_on_c, 0, 67, 84
2, 876166, Note_on_c, 0, 79, 84
2, 876271, Note_off_c, 0, 67, 61
2, 876481, Note_off_c, 0, 79, 61
2, 876598, Note_on_c, 0, 79, 80
2, 876771, Control_c, 0, 64, 0
2, 876798, Note_off_c, 0, 79, 60
2, 877013, Control_c, 0, 64, 127
2, 877016, Note_on_c, 0, 59, 57
2, 877093, Note_off_c, 0, 60, 61
2, 877466, Note_on_c, 0, 67, 72
2, 877921, Note_on_c, 0, 79, 68
2, 877960, Note_off_c, 0, 53, 57
2, 877971, Note_off_c, 0, 50, 53
2, 878018, Note_off_c, 0, 55, 55
2, 878026, Note_off_c, 0, 67, 58
2, 878267, Note_off_c, 0, 79, 57
2, 878369, Note_off_c, 0, 59, 54
2, 878370, Note_on_c, 0, 79, 64
2, 878560, Note_off_c, 0, 79, 56
2, 878718, Control_c, 0, 64, 0
2, 878839, Note_on_c, 0, 61, 50
2, 878848, Note_on_c, 0, 55, 40
2, 878849, Note_on_c, 0, 52, 32
2, 878947, Control_c, 0, 64, 127
2, 879339, Note_on_c, 0, 69, 56
2, 879340, Note_on_c, 0, 67, 50
2, 879843, Note_on_c, 0, 81, 52
2, 879845, Note_on_c, 0, 79, 46
2, 879949, Note_off_c, 0, 67, 52
2, 879950, Note_off_c, 0, 69, 54
2, 880207, Note_off_c, 0, 79, 51
2, 880210, Note_off_c, 0, 81, 53
2, 880343, Note_on_c, 0, 81, 48
2, 880345, Note_on_c, 0, 79, 40
2, 880346, Note_on_c, 0, 64, 34
2, 880388, Note_off_c, 0, 55, 50
2, 880399, Note_off_c, 0, 61, 52
2, 880489, Note_off_c, 0, 52, 48
2, 880496, Note_off_c, 0, 81, 52
2, 880506, Note_off_c, 0, 79, 50
2, 880620, Control_c, 0, 64, 0
2, 880708, Note_off_c, 0, 64, 48
2, 880816, Note_on_c, 0, 64, 72
2, 880849, Control_c, 0, 64, 127
2, 880856, Note_on_c, 0, 61, 60
2, 880857, Note_on_c, 0, 57, 48
2, 880858, Note_on_c, 0, 53, 36
2, 881259, Note_on_c, 0, 69, 84
2, 881678, Note_on_c, 0, 81, 90
2, 881769, Note_off_c, 0, 69, 61
2, 881997, Note_off_c, 0, 81, 62
2, 882114, Note_on_c, 0, 81, 76
2, 882239, Note_off_c, 0, 81, 59
2, 882291, Control_c, 0, 64, 0
2, 882304, Note_off_c, 0, 61, 55
2, 882520, Control_c, 0, 64, 127
2, 882531, Note_on_c, 0, 62, 60
2, 882605, Note_off_c, 0, 64, 58
2, 882982, Note_on_c, 0, 69, 60
2, 883449, Note_on_c, 0, 81, 60
2, 883521, Note_off_c, 0, 57, 52
2, 883731, Note_off_c, 0, 53, 49
2, 883784, Note_off_c, 0, 81, 55
2, 883900, Note_off_c, 0, 62, 55
2, 883904, Note_on_c, 0, 82, 72
2, 883905, Note_on_c, 0, 70, 65
2, 883965, Note_off_c, 0, 69, 55
2, 884117, Note_off_c, 0, 70, 56
2, 884119, Note_off_c, 0, 82, 58
2, 884192, Control_c, 0, 64, 0
2, 884325, Note_on_c, 0, 64, 84
2, 884365, Note_on_c, 0, 60, 72
2, 884366, Note_on_c, 0, 58, 60
2, 884368, Note_on_c, 0, 55, 54
2, 884417, Control_c, 0, 64, 99
2, 884837, Note_on_c, 0, 72, 84
2, 885321, Note_on_c, 0, 84, 78
2, 885323, Note_on_c, 0, 82, 70
2, 885440, Note_off_c, 0, 72, 61
2, 885512, Note_off_c, 0, 55, 53
2, 885538, Note_off_c, 0, 58, 55
2, 885582, Note_off_c, 0, 60, 58
2, 885687, Note_off_c, 0, 82, 57
2, 885690, Note_off_c, 0, 84, 59
2, 885806, Note_on_c, 0, 84, 72
2, 885808, Note_on_c, 0, 82, 60
2, 885809, Note_on_c, 0, 67, 65
2, 885852, Note_off_c, 0, 64, 61
2, 886039, Note_off_c, 0, 82, 55
2, 886041, Note_off_c, 0, 67, 56
2, 886042, Note_off_c, 0, 84, 58
2, 886059, Control_c, 0, 64, 0
2, 886255, Note_on_c, 0, 67, 68
2, 886292, Note_on_c, 0, 57, 56
2, 886293, Note_on_c, 0, 60, 80
2, 886298, Control_c, 0, 64, 127
2, 886706, Note_on_c, 0, 72, 92
2, 887141, Note_on_c, 0, 84, 86
2, 887262, Note_off_c, 0, 72, 62
2, 887460, Note_off_c, 0, 84, 61
2, 887561, Note_on_c, 0, 84, 90
2, 887618, Note_off_c, 0, 57, 54
2, 887642, Note_off_c, 0, 67, 57
2, 887750, Note_off_c, 0, 60, 60
2, 887777, Note_off_c, 0, 84, 62
2, 887918, Control_c, 0, 64, 0
2, 887938, Note_on_c, 0, 65, 80
2, 887976, Note_on_c, 0, 57, 74
2, 887978, Note_on_c, 0, 60, 88
2, 888136, Control_c, 0, 64, 127
2, 888445, Note_on_c, 0, 74, 85
2, 888447, Note_on_c, 0, 72, 76
2, 888899, Note_on_c, 0, 86, 82
2, 888900, Note_on_c, 0, 84, 73
2, 889004, Note_off_c, 0, 72, 59
2, 889007, Note_off_c, 0, 74, 61
2, 889113, Note_off_c, 0, 57, 59
2, 889225, Note_off_c, 0, 65, 60
2, 889231, Note_off_c, 0, 84, 58
2, 889233, Note_off_c, 0, 86, 60
2, 889235, Note_off_c, 0, 60, 62
2, 889348, Note_on_c, 0, 86, 80
2, 889350, Note_on_c, 0, 84, 72
2, 889546, Note_off_c, 0, 86, 60
2, 889550, Note_off_c, 0, 84, 58
2, 889565, Control_c, 0, 64, 0
2, 889566, Note_on_c, 0, 57, 50
2, 889567, Note_on_c, 0, 65, 56
2, 889569, Note_on_c, 0, 60, 68
2, 889733, Note_off_c, 0, 57, 52
2, 889742, Note_off_c, 0, 65, 54
2, 889754, Note_off_c, 0, 60, 57
2, 889770, Note_on_c, 0, 66, 80
2, 889779, Control_c, 0, 64, 127
2, 889799, Note_on_c, 0, 60, 72
2, 889801, Note_on_c, 0, 57, 66
2, 889802, Note_on_c, 0, 62, 92
2, 890301, Note_on_c, 0, 74, 75
2, 890302, Note_on_c, 0, 72, 66
2, 890803, Note_on_c, 0, 86, 72
2, 890804, Note_on_c, 0, 84, 64
2, 890911, Note_off_c, 0, 74, 59
2, 890913, Note_off_c, 0, 72, 56
2, 891024, Note_off_c, 0, 66, 60
2, 891185, Note_off_c, 0, 86, 58
2, 891187, Note_off_c, 0, 84, 56
2, 891220, Note_off_c, 0, 62, 62
2, 891277, Note_off_c, 0, 57, 56
2, 891286, Note_off_c, 0, 60, 58
2, 891303, Note_on_c, 0, 86, 70
2, 891304, Note_on_c, 0, 84, 62
2, 891363, Control_c, 0, 64, 0
2, 891537, Note_off_c, 0, 86, 57
2, 891538, Note_off_c, 0, 84, 55
2, 891554, Note_on_c, 0, 66, 56
2, 891556, Note_on_c, 0, 62, 68
2, 891557, Note_on_c, 0, 60, 56
2, 891558, Note_on_c, 0, 57, 49
2, 891597, Control_c, 0, 64, 127
2, 891731, Note_off_c, 0, 62, 57
2, 891732, Note_off_c, 0, 60, 54
2, 891735, Note_off_c, 0, 57, 52
2, 891742, Note_off_c, 0, 66, 54
2, 891807, Note_on_c, 0, 59, 68
2, 891809, Note_on_c, 0, 62, 81
2, 891810, Note_on_c, 0, 55, 58
2, 891811, Note_on_c, 0, 67, 56
2, 891812, Note_on_c, 0, 83, 68
2, 891813, Note_on_c, 0, 86, 92
2, 892455, Note_off_c, 0, 55, 54
2, 892459, Note_off_c, 0, 59, 57
2, 892462, Note_off_c, 0, 62, 60
2, 892464, Note_off_c, 0, 67, 54
2, 892658, Note_off_c, 0, 86, 62
2, 892660, Note_off_c, 0, 83, 57
2, 892662, Note_on_c, 0, 67, 58
2, 892671, Control_c, 0, 64, 0
2, 892904, Control_c, 0, 64, 127
2, 893442, Note_off_c, 0, 67, 54
2, 893508, Note_on_c, 0, 67, 30
2, 893914, Note_off_c, 0, 67, 47
2, 894411, Note_on_c, 0, 67, 31
2, 894754, Note_off_c, 0, 67, 47
2, 895313, Note_on_c, 0, 67, 33
2, 895714, Note_off_c, 0, 67, 48
2, 896316, Note_on_c, 0, 67, 35
2, 896708, Note_off_c, 0, 67, 48
2, 897288, Note_on_c, 0, 71, 48
2, 897320, Note_on_c, 0, 65, 36
2, 897321, Note_on_c, 0, 67, 36
2, 897325, Control_c, 0, 64, 0
2, 897577, Control_c, 0, 64, 127
2, 897819, Note_off_c, 0, 67, 49
2, 898170, Note_on_c, 0, 67, 36
2, 898576, Note_off_c, 0, 71, 52
2, 898578, Note_on_c, 0, 74, 48
2, 898603, Note_off_c, 0, 65, 49
2, 898606, Note_on_c, 0, 62, 33
2, 898728, Note_off_c, 0, 67, 49
2, 898994, Note_off_c, 0, 74, 52
2, 898996, Note_on_c, 0, 72, 47
2, 899023, Note_off_c, 0, 62, 48
2, 899026, Note_on_c, 0, 64, 30
2, 899027, Note_on_c, 0, 67, 34
2, 899033, Control_c, 0, 64, 0
2, 899240, Note_off_c, 0, 67, 48
2, 899249, Control_c, 0, 64, 127
2, 899315, Note_off_c, 0, 64, 47
2, 899340, Note_off_c, 0, 72, 51
2, 899925, Note_on_c, 0, 67, 32
2, 900473, Note_off_c, 0, 67, 48
2, 900843, Note_on_c, 0, 67, 30
2, 901440, Note_off_c, 0, 67, 47
2, 901846, Note_on_c, 0, 67, 28
2, 902475, Note_off_c, 0, 67, 47
2, 902811, Note_on_c, 0, 77, 52
2, 902851, Note_on_c, 0, 67, 26
2, 902852, Note_on_c, 0, 62, 36
2, 902859, Control_c, 0, 64, 0
2, 903078, Control_c, 0, 64, 127
2, 903313, Note_off_c, 0, 67, 46
2, 903701, Note_on_c, 0, 67, 24
2, 904082, Note_off_c, 0, 77, 53
2, 904085, Note_on_c, 0, 74, 49
2, 904118, Note_off_c, 0, 62, 49
2, 904122, Note_on_c, 0, 59, 36
2, 904229, Note_off_c, 0, 67, 46
2, 904497, Note_off_c, 0, 74, 52
2, 904500, Note_on_c, 0, 76, 48
2, 904503, Control_c, 0, 64, 0
2, 904538, Note_off_c, 0, 59, 49
2, 904540, Note_on_c, 0, 67, 24
2, 904541, Note_on_c, 0, 60, 36
2, 904720, Control_c, 0, 64, 127
2, 904808, Note_off_c, 0, 67, 46
2, 904814, Note_off_c, 0, 76, 52
2, 904895, Note_off_c, 0, 60, 49
2, 905457, Note_on_c, 0, 55, 28
2, 906125, Note_off_c, 0, 55, 47
2, 906360, Note_on_c, 0, 55, 30
2, 907077, Note_off_c, 0, 55, 47
2, 907328, Note_on_c, 0, 55, 32
2, 908046, Note_off_c, 0, 55, 48
2, 908279, Note_on_c, 0, 83, 52
2, 908299, Note_on_c, 0, 55, 35
2, 908301, Note_on_c, 0, 53, 43
2, 908317, Note_on_c, 0, 71, 45
2, 908329, Control_c, 0, 64, 0
2, 908546, Control_c, 0, 64, 127
2, 908931, Note_off_c, 0, 55, 48
2, 909148, Note_on_c, 0, 55, 37
2, 909243, Note_off_c, 0, 71, 51
2, 909549, Note_off_c, 0, 83, 53
2, 909550, Note_on_c, 0, 86, 60
2, 909568, Note_on_c, 0, 50, 46
2, 909588, Note_off_c, 0, 53, 50
2, 909589, Note_on_c, 0, 74, 52
2, 909785, Note_off_c, 0, 55, 49
2, 909916, Note_off_c, 0, 74, 53
2, 909983, Note_off_c, 0, 86, 55
2, 909985, Note_on_c, 0, 84, 60
2, 910004, Note_on_c, 0, 55, 40
2, 910005, Note_on_c, 0, 52, 48
2, 910025, Note_on_c, 0, 72, 52
2, 910036, Control_c, 0, 64, 0
2, 910068, Note_off_c, 0, 50, 51
2, 910253, Control_c, 0, 64, 127
2, 910580, Note_off_c, 0, 72, 53
2, 910650, Note_off_c, 0, 84, 55
2, 910670, Note_off_c, 0, 55, 50
2, 910671, Note_off_c, 0, 52, 52
2, 910903, Note_on_c, 0, 55, 40
2, 911587, Note_off_c, 0, 55, 50
2, 911809, Note_on_c, 0, 55, 36
2, 912559, Note_off_c, 0, 55, 49
2, 912808, Note_on_c, 0, 55, 32
2, 913560, Note_off_c, 0, 55, 48
2, 913794, Note_on_c, 0, 89, 60
2, 913804, Control_c, 0, 64, 0
2, 913813, Note_on_c, 0, 50, 46
2, 913814, Note_on_c, 0, 55, 36
2, 913823, Note_on_c, 0, 77, 60
2, 914020, Control_c, 0, 64, 127
2, 914448, Note_off_c, 0, 55, 49
2, 914663, Note_on_c, 0, 55, 32
2, 914837, Note_off_c, 0, 77, 55
2, 915062, Note_off_c, 0, 89, 55
2, 915085, Note_on_c, 0, 47, 40
2, 915086, Note_on_c, 0, 86, 56
2, 915094, Note_on_c, 0, 74, 51
2, 915115, Note_off_c, 0, 50, 51
2, 915298, Note_off_c, 0, 55, 48
2, 915420, Note_off_c, 0, 74, 52
2, 915517, Note_off_c, 0, 86, 54
2, 915520, Note_on_c, 0, 48, 38
2, 915522, Note_on_c, 0, 55, 28
2, 915523, Note_on_c, 0, 88, 54
2, 915530, Note_on_c, 0, 76, 48
2, 915563, Control_c, 0, 64, 0
2, 915654, Note_off_c, 0, 47, 50
2, 915780, Control_c, 0, 64, 127
2, 916069, Note_off_c, 0, 76, 52
2, 916101, Note_off_c, 0, 88, 53
2, 916202, Note_off_c, 0, 55, 47
2, 916203, Note_off_c, 0, 48, 49
2, 916419, Note_on_c, 0, 84, 51
2, 916430, Note_on_c, 0, 72, 42
2, 916617, Control_c, 0, 64, 0
2, 916944, Note_off_c, 0, 72, 50
2, 917068, Note_off_c, 0, 84, 52
2, 917270, Note_on_c, 0, 57, 24
2, 917278, Note_on_c, 0, 45, 16
2, 917279, Control_c, 0, 64, 95
2, 917625, Note_off_c, 0, 45, 44
2, 917731, Note_off_c, 0, 57, 46
2, 917974, Control_c, 0, 64, 0
2, 918195, Note_on_c, 0, 81, 48
2, 918198, Control_c, 0, 64, 95
2, 918205, Note_on_c, 0, 69, 36
2, 918643, Note_off_c, 0, 69, 49
2, 918656, Note_off_c, 0, 81, 52
2, 918906, Control_c, 0, 64, 0
2, 919116, Control_c, 0, 64, 95
2, 919121, Note_on_c, 0, 56, 48
2, 919130, Note_on_c, 0, 44, 40
2, 919621, Note_off_c, 0, 44, 50
2, 919721, Note_off_c, 0, 56, 52
2, 919791, Control_c, 0, 64, 0
2, 919906, Note_on_c, 0, 80, 54
2, 919915, Note_on_c, 0, 68, 42
2, 919980, Control_c, 0, 64, 0
2, 920429, Note_off_c, 0, 68, 50
2, 920495, Note_off_c, 0, 80, 53
2, 920521, Control_c, 0, 64, 0
2, 920693, Note_on_c, 0, 55, 44
2, 920702, Note_on_c, 0, 43, 36
2, 920723, Control_c, 0, 64, 127
2, 921185, Note_off_c, 0, 43, 49
2, 921324, Note_off_c, 0, 55, 51
2, 921416, Control_c, 0, 64, 0
2, 921527, Note_on_c, 0, 79, 51
2, 921535, Note_on_c, 0, 67, 39
2, 921604, Control_c, 0, 64, 96
2, 922001, Note_off_c, 0, 67, 49
2, 922160, Note_off_c, 0, 79, 52
2, 922244, Control_c, 0, 64, 0
2, 922374, Note_on_c, 0, 43, 36
2, 922375, Note_on_c, 0, 31, 30
2, 922456, Control_c, 0, 64, 0
2, 923074, Note_off_c, 0, 43, 49
2, 923075, Note_off_c, 0, 31, 47
2, 923298, Note_on_c, 0, 71, 51
2, 923322, Control_c, 0, 64, 0
2, 923328, Note_on_c, 0, 65, 39
2, 923329, Note_on_c, 0, 62, 30
2, 923559, Control_c, 0, 64, 127
2, 924045, Note_off_c, 0, 65, 49
2, 924267, Note_on_c, 0, 72, 48
2, 924282, Note_off_c, 0, 62, 47
2, 924296, Note_on_c, 0, 64, 36
2, 924297, Note_on_c, 0, 43, 34
2, 924299, Note_on_c, 0, 36, 24
2, 924312, Note_off_c, 0, 71, 52
2, 924328, Control_c, 0, 64, 0
2, 924544, Control_c, 0, 64, 127
2, 924904, Note_off_c, 0, 72, 52
2, 924931, Note_off_c, 0, 64, 49
2, 925119, Note_on_c, 0, 88, 60
2, 925147, Note_off_c, 0, 36, 46
2, 925149, Note_off_c, 0, 43, 48
2, 925151, Note_on_c, 0, 48, 36
2, 925176, Control_c, 0, 64, 0
2, 925391, Control_c, 0, 64, 127
2, 925985, Note_on_c, 0, 79, 48
2, 925986, Note_on_c, 0, 55, 40
2, 925988, Note_on_c, 0, 52, 32
2, 926871, Note_off_c, 0, 88, 55
2, 926906, Note_off_c, 0, 52, 48
2, 926906, Note_off_c, 0, 55, 50
2, 926909, Note_on_c, 0, 76, 48
2, 926910, Note_on_c, 0, 86, 56
2, 926912, Note_on_c, 0, 60, 40
2, 926944, Note_off_c, 0, 79, 52
2, 927354, Note_off_c, 0, 86, 54
2, 927356, Note_on_c, 0, 84, 54
2, 927726, Note_off_c, 0, 84, 53
2, 927788, Note_off_c, 0, 60, 50
2, 927790, Note_off_c, 0, 48, 49
2, 927805, Note_on_c, 0, 84, 52
2, 927806, Note_on_c, 0, 77, 44
2, 927808, Note_on_c, 0, 62, 58
2, 927809, Note_on_c, 0, 55, 46
2, 927822, Control_c, 0, 64, 0
2, 927826, Note_off_c, 0, 76, 52
2, 928038, Control_c, 0, 64, 127
2, 928308, Note_on_c, 0, 83, 50
2, 928394, Note_off_c, 0, 84, 53
2, 928807, Note_off_c, 0, 62, 54
2, 928811, Note_on_c, 0, 81, 48
2, 928813, Note_on_c, 0, 74, 40
2, 928814, Note_on_c, 0, 65, 35
2, 928892, Note_off_c, 0, 83, 52
2, 928921, Note_off_c, 0, 77, 51
2, 929308, Note_on_c, 0, 83, 48
2, 929402, Note_off_c, 0, 81, 52
2, 929560, Note_off_c, 0, 74, 50
2, 929693, Note_off_c, 0, 83, 52
2, 929810, Note_off_c, 0, 65, 48
2, 929811, Note_off_c, 0, 55, 51
2, 929813, Note_on_c, 0, 76, 36
2, 929814, Note_on_c, 0, 36, 24
2, 929815, Note_on_c, 0, 43, 30
2, 929817, Note_on_c, 0, 84, 60
2, 929840, Control_c, 0, 64, 0
2, 930056, Control_c, 0, 64, 127
2, 930580, Note_off_c, 0, 84, 55
2, 930584, Note_on_c, 0, 86, 60
2, 930717, Note_off_c, 0, 86, 55
2, 930722, Note_on_c, 0, 84, 60
2, 930846, Note_on_c, 0, 83, 54
2, 930856, Note_off_c, 0, 84, 55
2, 930974, Note_on_c, 0, 84, 48
2, 930988, Note_off_c, 0, 83, 53
2, 931348, Note_off_c, 0, 76, 49
2, 931350, Note_off_c, 0, 36, 46
2, 931351, Note_off_c, 0, 43, 47
2, 931352, Note_on_c, 0, 48, 38
2, 931354, Note_on_c, 0, 88, 60
2, 931355, Note_off_c, 0, 84, 52
2, 931390, Control_c, 0, 64, 0
2, 931607, Control_c, 0, 64, 127
2, 932199, Note_on_c, 0, 79, 48
2, 932201, Note_on_c, 0, 55, 43
2, 932202, Note_on_c, 0, 52, 36
2, 933036, Note_off_c, 0, 55, 50
2, 933037, Note_off_c, 0, 52, 49
2, 933039, Note_off_c, 0, 79, 52
2, 933041, Note_on_c, 0, 76, 48
2, 933042, Note_on_c, 0, 60, 54
2, 933043, Note_on_c, 0, 86, 60
2, 933072, Note_off_c, 0, 88, 55
2, 933469, Note_on_c, 0, 84, 56
2, 933470, Note_off_c, 0, 86, 55
2, 933839, Note_off_c, 0, 84, 54
2, 933870, Note_off_c, 0, 60, 53
2, 933872, Note_off_c, 0, 48, 49
2, 933874, Note_off_c, 0, 76, 52
2, 933888, Note_on_c, 0, 84, 52
2, 933889, Note_on_c, 0, 62, 60
2, 933890, Note_on_c, 0, 77, 40
2, 933892, Note_on_c, 0, 55, 48
2, 933906, Control_c, 0, 64, 0
2, 934122, Control_c, 0, 64, 127
2, 934373, Note_on_c, 0, 83, 48
2, 934375, Note_off_c, 0, 84, 53
2, 934857, Note_off_c, 0, 62, 55
2, 934859, Note_off_c, 0, 77, 50
2, 934861, Note_on_c, 0, 81, 48
2, 934863, Note_on_c, 0, 74, 36
2, 934864, Note_on_c, 0, 65, 30
2, 934924, Note_off_c, 0, 83, 52
2, 935344, Note_on_c, 0, 83, 48
2, 935422, Note_off_c, 0, 81, 52
2, 935619, Note_off_c, 0, 74, 49
2, 935740, Note_off_c, 0, 65, 47
2, 935767, Note_off_c, 0, 83, 52
2, 935854, Note_on_c, 0, 86, 50
2, 935870, Note_off_c, 0, 55, 52
2, 935875, Note_on_c, 0, 60, 36
2, 935876, Note_on_c, 0, 74, 30
2, 935877, Note_on_c, 0, 65, 40
2, 935889, Control_c, 0, 64, 0
2, 936126, Control_c, 0, 64, 127
2, 937886, Note_off_c, 0, 86, 52
2, 937888, Note_on_c, 0, 84, 40
2, 937910, Note_off_c, 0, 65, 50
2, 937912, Note_off_c, 0, 74, 47
2, 937914, Note_on_c, 0, 72, 30
2, 937915, Note_on_c, 0, 64, 24
2, 937928, Control_c, 0, 64, 0
2, 938176, Control_c, 0, 64, 127
2, 938705, Note_off_c, 0, 84, 50
2, 938731, Note_off_c, 0, 72, 47
2, 939016, Note_off_c, 0, 64, 46
2, 939016, Note_off_c, 0, 60, 49
2, 939018, Note_on_c, 0, 48, 35
2, 939031, Note_on_c, 0, 36, 27
2, 939753, Note_off_c, 0, 36, 46
2, 939991, Note_on_c, 0, 47, 34
2, 939992, Note_off_c, 0, 48, 48
2, 940000, Note_on_c, 0, 35, 26
2, 940833, Note_off_c, 0, 35, 46
2, 941024, Note_off_c, 0, 47, 48
2, 941028, Note_on_c, 0, 46, 33
2, 941038, Note_on_c, 0, 34, 25
2, 941658, Note_off_c, 0, 34, 46
2, 941812, Note_off_c, 0, 46, 48
2, 942035, Note_on_c, 0, 64, 51
2, 942063, Note_on_c, 0, 61, 31
2, 942064, Note_on_c, 0, 55, 25
2, 942066, Note_on_c, 0, 45, 20
2, 942067, Note_on_c, 0, 33, 10
2, 942090, Control_c, 0, 64, 0
2, 942306, Control_c, 0, 64, 127
2, 943739, Note_off_c, 0, 64, 52
2, 943740, Note_on_c, 0, 65, 42
2, 943767, Note_off_c, 0, 55, 46
2, 943768, Note_off_c, 0, 61, 47
2, 943770, Note_on_c, 0, 62, 30
2, 943771, Note_on_c, 0, 53, 20
2, 943781, Control_c, 0, 64, 0
2, 943998, Control_c, 0, 64, 127
2, 944101, Note_off_c, 0, 53, 45
2, 944170, Note_off_c, 0, 65, 50
2, 944183, Note_off_c, 0, 62, 47
2, 944451, Control_c, 0, 64, 0
2, 945636, Note_off_c, 0, 33, 42
2, 945637, Note_off_c, 0, 45, 45
2, 945640, Note_on_c, 0, 44, 28
2, 945642, Note_on_c, 0, 32, 22
2, 945699, Control_c, 0, 64, 127
2, 947473, Note_on_c, 0, 67, 38
2, 947510, Note_off_c, 0, 32, 45
2, 947511, Note_off_c, 0, 44, 47
2, 947512, Note_on_c, 0, 53, 26
2, 947514, Note_on_c, 0, 59, 28
2, 947515, Note_on_c, 0, 43, 22
2, 947516, Note_on_c, 0, 31, 10
2, 947545, Control_c, 0, 64, 0
2, 947761, Control_c, 0, 64, 127
2, 948740, Note_on_c, 0, 62, 37
2, 948768, Note_off_c, 0, 67, 49
2, 949179, Note_on_c, 0, 64, 36
2, 949202, Note_off_c, 0, 62, 49
2, 949213, Note_off_c, 0, 53, 46
2, 949217, Note_off_c, 0, 59, 47
2, 949222, Control_c, 0, 64, 0
2, 949227, Note_on_c, 0, 60, 24
2, 949229, Note_on_c, 0, 52, 17
2, 949438, Control_c, 0, 64, 127
2, 949600, Note_off_c, 0, 52, 44
2, 949614, Note_off_c, 0, 60, 46
2, 949626, Note_off_c, 0, 64, 49
2, 949870, Control_c, 0, 64, 0
2, 951148, Note_off_c, 0, 31, 42
2, 951150, Note_off_c, 0, 43, 45
2, 951153, Note_on_c, 0, 42, 84
2, 951155, Note_on_c, 0, 30, 76
2, 951213, Control_c, 0, 64, 127
2, 953070, Note_on_c, 0, 64, 90
2, 953089, Note_on_c, 0, 52, 48
2, 953091, Note_on_c, 0, 57, 60
2, 953102, Control_c, 0, 64, 0
2, 953318, Control_c, 0, 64, 127
2, 954374, Note_off_c, 0, 64, 62
2, 954809, Note_on_c, 0, 62, 48
2, 954826, Note_off_c, 0, 52, 52
2, 954830, Note_on_c, 0, 50, 36
2, 956763, Note_off_c, 0, 42, 61
2, 956768, Note_off_c, 0, 30, 59
2, 956769, Note_on_c, 0, 41, 42
2, 956770, Note_on_c, 0, 29, 38
2, 956808, Control_c, 0, 64, 0
2, 957023, Control_c, 0, 64, 127
2, 957715, Note_off_c, 0, 62, 52
2, 957728, Note_off_c, 0, 50, 49
2, 957730, Note_off_c, 0, 57, 55
2, 957731, Note_on_c, 0, 64, 46
2, 957941, Note_off_c, 0, 64, 51
2, 957943, Note_on_c, 0, 62, 45
2, 958156, Note_on_c, 0, 61, 44
2, 958171, Note_off_c, 0, 62, 51
2, 958369, Note_off_c, 0, 29, 49
2, 958370, Note_off_c, 0, 41, 50
2, 958371, Note_on_c, 0, 62, 44
2, 958406, Note_off_c, 0, 61, 51
2, 958531, Note_off_c, 0, 62, 51
2, 958532, Note_on_c, 0, 72, 43
2, 958695, Note_on_c, 0, 69, 42
2, 958699, Note_off_c, 0, 72, 50
2, 958845, Note_on_c, 0, 62, 42
2, 958853, Note_off_c, 0, 69, 50
2, 958944, Note_off_c, 0, 62, 50
2, 959209, Note_on_c, 0, 59, 41
2, 959253, Note_on_c, 0, 53, 31
2, 959254, Note_on_c, 0, 50, 25
2, 959255, Note_on_c, 0, 43, 20
2, 959256, Note_on_c, 0, 31, 15
2, 959267, Control_c, 0, 64, 0
2, 959492, Control_c, 0, 64, 127
2, 960087, Note_off_c, 0, 31, 44
2, 960132, Note_off_c, 0, 53, 47
2, 960138, Note_off_c, 0, 59, 50
2, 960160, Note_off_c, 0, 50, 46
2, 960176, Note_off_c, 0, 43, 45
2, 961416, Note_on_c, 0, 60, 36
2, 961466, Note_on_c, 0, 48, 18
2, 961488, Control_c, 0, 64, 0
2, 961498, Note_on_c, 0, 52, 24
2, 961499, Note_on_c, 0, 36, 10
2, 961723, Control_c, 0, 64, 127
2, 962652, Note_off_c, 0, 48, 44
2, 962780, Note_off_c, 0, 52, 46
2, 962893, Note_off_c, 0, 36, 42
2, 962949, Note_off_c, 0, 60, 49
2, 963477, Control_c, 0, 64, 0
2, 968810, Note_on_c, 0, 70, 50
2, 968825, Control_c, 0, 64, 127
2, 968835, Note_on_c, 0, 63, 36
2, 968836, Note_on_c, 0, 67, 30
2, 968837, Note_on_c, 0, 58, 40
2, 969128, Note_on_c, 0, 51, 48
2, 969213, Note_off_c, 0, 67, 47
2, 969410, Note_on_c, 0, 67, 52
2, 969427, Note_off_c, 0, 51, 52
2, 969428, Note_on_c, 0, 55, 48
2, 969433, Note_off_c, 0, 70, 52
2, 969519, Note_off_c, 0, 58, 50
2, 969535, Note_off_c, 0, 63, 49
2, 969727, Note_off_c, 0, 55, 52
2, 969729, Note_on_c, 0, 63, 56
2, 969749, Note_on_c, 0, 58, 52
2, 969771, Note_off_c, 0, 67, 53
2, 970023, Note_on_c, 0, 67, 60
2, 970032, Note_on_c, 0, 55, 56
2, 970076, Note_off_c, 0, 63, 54
2, 970306, Note_on_c, 0, 70, 64
2, 970313, Note_off_c, 0, 55, 54
2, 970316, Note_on_c, 0, 51, 60
2, 970487, Control_c, 0, 64, 0
2, 970512, Note_off_c, 0, 51, 55
2, 970529, Note_off_c, 0, 70, 56
2, 970619, Note_on_c, 0, 75, 68
2, 970629, Note_on_c, 0, 46, 60
2, 970709, Control_c, 0, 64, 98
2, 970932, Note_on_c, 0, 79, 72
2, 970967, Note_off_c, 0, 75, 57
2, 971148, Note_off_c, 0, 67, 55
2, 971248, Note_on_c, 0, 77, 72
2, 971257, Note_on_c, 0, 56, 48
2, 971258, Note_on_c, 0, 65, 60
2, 971269, Note_off_c, 0, 79, 58
2, 971302, Note_off_c, 0, 58, 53
2, 971401, Note_on_c, 0, 74, 66
2, 971421, Note_off_c, 0, 77, 58
2, 971499, Note_off_c, 0, 46, 55
2, 971511, Note_off_c, 0, 74, 56
2, 971513, Note_off_c, 0, 65, 55
2, 971561, Note_on_c, 0, 75, 60
2, 971564, Note_on_c, 0, 51, 36
2, 971570, Note_on_c, 0, 67, 47
2, 971571, Note_on_c, 0, 55, 36
2, 971621, Note_off_c, 0, 56, 52
2, 971630, Control_c, 0, 64, 0
2, 971699, Note_on_c, 0, 79, 54
2, 971730, Note_off_c, 0, 55, 49
2, 971750, Note_off_c, 0, 75, 55
2, 971778, Note_off_c, 0, 51, 49
2, 971857, Note_on_c, 0, 70, 48
2, 971864, Note_off_c, 0, 67, 51
2, 971928, Note_off_c, 0, 79, 53
2, 972015, Note_off_c, 0, 70, 52
2, 972504, Note_on_c, 0, 72, 48
2, 972515, Note_on_c, 0, 63, 32
2, 972516, Note_on_c, 0, 56, 39
2, 972518, Control_c, 0, 64, 94
2, 972647, Note_on_c, 0, 75, 60
2, 972687, Note_off_c, 0, 72, 52
2, 972802, Note_on_c, 0, 70, 72
2, 972814, Note_on_c, 0, 55, 42
2, 972844, Note_off_c, 0, 75, 55
2, 972887, Note_off_c, 0, 56, 49
2, 972902, Control_c, 0, 64, 0
2, 972975, Note_off_c, 0, 70, 58
2, 972996, Note_off_c, 0, 55, 50
2, 973340, Note_off_c, 0, 63, 48
2, 973436, Control_c, 0, 64, 98
2, 973458, Note_on_c, 0, 68, 52
2, 973469, Note_on_c, 0, 65, 36
2, 973471, Note_on_c, 0, 58, 40
2, 973472, Note_on_c, 0, 50, 30
2, 973601, Note_on_c, 0, 70, 48
2, 973647, Note_off_c, 0, 68, 53
2, 973688, Note_off_c, 0, 65, 49
2, 973744, Note_on_c, 0, 67, 73
2, 973755, Note_on_c, 0, 63, 49
2, 973756, Note_on_c, 0, 51, 40
2, 973786, Note_off_c, 0, 70, 52
2, 973819, Note_off_c, 0, 50, 47
2, 973846, Control_c, 0, 64, 0
2, 973906, Note_off_c, 0, 63, 52
2, 973913, Note_off_c, 0, 67, 58
2, 973988, Note_off_c, 0, 51, 50
2, 974231, Note_off_c, 0, 58, 50
2, 974379, Note_on_c, 0, 65, 60
2, 974380, Note_on_c, 0, 58, 40
2, 974381, Note_on_c, 0, 62, 47
2, 974382, Note_on_c, 0, 46, 60
2, 974429, Control_c, 0, 64, 98
2, 974615, Note_off_c, 0, 65, 55
2, 974674, Note_on_c, 0, 68, 55
2, 974676, Note_on_c, 0, 65, 49
2, 974677, Note_on_c, 0, 50, 40
2, 974710, Note_off_c, 0, 46, 55
2, 974723, Note_off_c, 0, 62, 51
2, 974888, Note_off_c, 0, 58, 50
2, 974910, Note_off_c, 0, 68, 53
2, 974912, Note_off_c, 0, 65, 52
2, 974967, Control_c, 0, 64, 0
2, 974987, Note_on_c, 0, 67, 57
2, 974990, Note_on_c, 0, 63, 40
2, 974992, Note_on_c, 0, 58, 35
2, 974992, Note_on_c, 0, 51, 54
2, 975026, Note_off_c, 0, 50, 50
2, 975116, Note_off_c, 0, 67, 54
2, 975121, Note_off_c, 0, 58, 48
2, 975125, Note_off_c, 0, 63, 50
2, 975148, Note_off_c, 0, 51, 53
2, 975301, Note_on_c, 0, 65, 60
2, 975302, Note_on_c, 0, 62, 50
2, 975304, Note_on_c, 0, 58, 42
2, 975305, Note_on_c, 0, 46, 48
2, 975419, Note_off_c, 0, 62, 52
2, 975425, Note_off_c, 0, 65, 55
2, 975427, Note_off_c, 0, 46, 52
2, 975428, Note_off_c, 0, 58, 50
2, 976251, Note_on_c, 0, 70, 53
2, 976270, Control_c, 0, 64, 127
2, 976290, Note_on_c, 0, 63, 36
2, 976292, Note_on_c, 0, 67, 41
2, 976295, Note_on_c, 0, 58, 30
2, 976570, Note_on_c, 0, 51, 48
2, 976637, Note_off_c, 0, 67, 50
2, 976860, Note_on_c, 0, 67, 52
2, 976868, Note_off_c, 0, 70, 53
2, 976870, Note_on_c, 0, 55, 45
2, 976884, Note_off_c, 0, 51, 52
2, 976986, Note_off_c, 0, 58, 47
2, 977013, Note_off_c, 0, 63, 49
2, 977186, Note_on_c, 0, 63, 56
2, 977196, Note_on_c, 0, 58, 51
2, 977224, Note_off_c, 0, 67, 53
2, 977246, Note_off_c, 0, 55, 51
2, 977466, Note_on_c, 0, 67, 60
2, 977474, Note_on_c, 0, 55, 54
2, 977509, Note_off_c, 0, 63, 54
2, 977763, Note_on_c, 0, 70, 64
2, 977771, Note_on_c, 0, 51, 57
2, 977828, Note_off_c, 0, 55, 53
2, 977862, Control_c, 0, 64, 0
2, 978074, Note_on_c, 0, 75, 68
2, 978081, Control_c, 0, 64, 127
2, 978085, Note_on_c, 0, 46, 60
2, 978105, Note_off_c, 0, 51, 54
2, 978357, Note_off_c, 0, 75, 57
2, 978359, Note_on_c, 0, 79, 72
2, 978645, Note_off_c, 0, 70, 56
2, 978654, Note_off_c, 0, 67, 55
2, 978658, Note_on_c, 0, 77, 60
2, 978658, Note_on_c, 0, 68, 45
2, 978660, Note_on_c, 0, 65, 40
2, 978661, Note_on_c, 0, 59, 30
2, 978669, Note_on_c, 0, 47, 36
2, 978687, Note_off_c, 0, 79, 58
2, 978736, Note_off_c, 0, 58, 52
2, 978752, Note_off_c, 0, 46, 55
2, 978812, Note_on_c, 0, 74, 58
2, 978838, Note_off_c, 0, 77, 55
2, 978967, Note_off_c, 0, 68, 51
2, 978968, Note_off_c, 0, 65, 50
2, 978972, Note_on_c, 0, 75, 55
2, 978973, Note_on_c, 0, 67, 40
2, 978975, Note_on_c, 0, 63, 48
2, 978976, Note_on_c, 0, 60, 36
2, 978977, Note_on_c, 0, 48, 30
2, 978990, Control_c, 0, 64, 0
2, 979015, Note_off_c, 0, 59, 47
2, 979031, Note_off_c, 0, 74, 54
2, 979071, Note_off_c, 0, 75, 53
2, 979079, Note_off_c, 0, 47, 49
2, 979112, Note_off_c, 0, 63, 52
2, 979124, Note_off_c, 0, 67, 50
2, 979135, Note_off_c, 0, 48, 47
2, 979144, Note_off_c, 0, 60, 49
2, 980275, Note_on_c, 0, 77, 36
2, 980401, Control_c, 0, 64, 96
2, 980573, Note_on_c, 0, 75, 40
2, 980581, Note_on_c, 0, 65, 36
2, 980586, Note_on_c, 0, 57, 30
2, 980587, Note_on_c, 0, 53, 25
2, 980589, Note_on_c, 0, 45, 20
2, 980597, Note_off_c, 0, 77, 49
2, 980713, Note_off_c, 0, 75, 50
2, 980714, Note_on_c, 0, 72, 42
2, 980873, Note_on_c, 0, 74, 48
2, 980882, Note_on_c, 0, 58, 36
2, 980883, Note_on_c, 0, 46, 24
2, 980926, Note_off_c, 0, 72, 50
2, 980949, Note_off_c, 0, 57, 47
2, 980950, Note_off_c, 0, 45, 45
2, 980995, Note_off_c, 0, 74, 52
2, 980999, Control_c, 0, 64, 0
2, 981006, Note_off_c, 0, 58, 49
2, 981039, Note_off_c, 0, 46, 46
2, 981072, Note_off_c, 0, 53, 46
2, 981131, Note_off_c, 0, 65, 49
2, 982515, Note_on_c, 0, 87, 51
2, 982525, Note_on_c, 0, 57, 22
2, 982527, Note_on_c, 0, 65, 28
2, 982528, Note_on_c, 0, 60, 28
2, 982658, Note_on_c, 0, 84, 52
2, 982669, Note_off_c, 0, 87, 52
2, 982783, Note_on_c, 0, 86, 54
2, 982787, Note_off_c, 0, 84, 53
2, 982793, Note_on_c, 0, 62, 33
2, 982796, Note_on_c, 0, 58, 27
2, 982823, Note_off_c, 0, 60, 47
2, 982835, Note_off_c, 0, 57, 45
2, 982918, Note_off_c, 0, 65, 47
2, 982922, Note_on_c, 0, 89, 56
2, 982964, Note_off_c, 0, 86, 53
2, 982990, Note_off_c, 0, 62, 48
2, 982997, Note_off_c, 0, 58, 46
2, 983050, Note_off_c, 0, 89, 54
2, 983062, Note_on_c, 0, 77, 57
2, 983071, Note_on_c, 0, 65, 61
2, 983085, Note_on_c, 0, 60, 31
2, 983086, Note_on_c, 0, 63, 37
2, 983160, Note_off_c, 0, 77, 54
2, 983280, Note_off_c, 0, 60, 47
2, 983295, Note_off_c, 0, 63, 49
2, 983361, Note_on_c, 0, 87, 61
2, 983370, Note_on_c, 0, 60, 36
2, 983372, Note_on_c, 0, 57, 42
2, 983500, Note_on_c, 0, 84, 62
2, 983518, Note_off_c, 0, 87, 55
2, 983580, Note_off_c, 0, 60, 49
2, 983630, Note_on_c, 0, 86, 64
2, 983641, Note_on_c, 0, 62, 40
2, 983642, Note_on_c, 0, 58, 46
2, 983649, Note_off_c, 0, 84, 55
2, 983690, Note_off_c, 0, 57, 50
2, 983717, Note_off_c, 0, 65, 55
2, 983769, Note_on_c, 0, 89, 66
2, 983773, Note_off_c, 0, 86, 56
2, 983854, Note_off_c, 0, 62, 50
2, 983856, Note_off_c, 0, 58, 51
2, 983890, Note_off_c, 0, 89, 56
2, 983909, Note_on_c, 0, 77, 67
2, 983919, Note_on_c, 0, 65, 75
2, 983921, Note_on_c, 0, 63, 45
2, 983922, Note_on_c, 0, 60, 51
2, 984028, Note_off_c, 0, 77, 57
2, 984124, Note_off_c, 0, 63, 51
2, 984145, Note_off_c, 0, 60, 52
2, 984205, Note_on_c, 0, 87, 70
2, 984216, Note_on_c, 0, 60, 50
2, 984218, Note_on_c, 0, 57, 56
2, 984348, Note_on_c, 0, 84, 72
2, 984372, Note_off_c, 0, 87, 57
2, 984458, Note_off_c, 0, 60, 52
2, 984491, Note_on_c, 0, 86, 74
2, 984502, Note_on_c, 0, 62, 54
2, 984503, Note_on_c, 0, 58, 60
2, 984514, Note_off_c, 0, 84, 58
2, 984527, Note_off_c, 0, 65, 59
2, 984569, Note_off_c, 0, 57, 54
2, 984613, Note_on_c, 0, 89, 75
2, 984632, Note_off_c, 0, 86, 59
2, 984745, Note_off_c, 0, 89, 59
2, 984749, Note_off_c, 0, 58, 55
2, 984751, Note_off_c, 0, 62, 53
2, 984754, Note_on_c, 0, 77, 77
2, 984765, Note_on_c, 0, 63, 65
2, 984766, Note_on_c, 0, 65, 89
2, 984768, Note_on_c, 0, 60, 59
2, 984881, Note_off_c, 0, 77, 59
2, 984975, Note_off_c, 0, 60, 54
2, 984994, Note_off_c, 0, 63, 56
2, 985053, Note_on_c, 0, 87, 80
2, 985061, Note_on_c, 0, 60, 63
2, 985063, Note_on_c, 0, 57, 69
2, 985195, Note_on_c, 0, 84, 82
2, 985257, Note_off_c, 0, 87, 60
2, 985286, Note_off_c, 0, 84, 60
2, 985294, Note_off_c, 0, 60, 55
2, 985337, Note_on_c, 0, 86, 84
2, 985348, Note_on_c, 0, 62, 66
2, 985349, Note_on_c, 0, 58, 72
2, 985446, Note_off_c, 0, 57, 57
2, 985476, Note_off_c, 0, 86, 61
2, 985485, Note_on_c, 0, 89, 84
2, 985542, Note_off_c, 0, 65, 62
2, 985568, Note_off_c, 0, 62, 56
2, 985570, Note_off_c, 0, 58, 58
2, 985641, Note_off_c, 0, 89, 61
2, 985644, Note_on_c, 0, 87, 83
2, 985783, Note_off_c, 0, 87, 60
2, 985785, Note_on_c, 0, 86, 81
2, 985923, Note_off_c, 0, 86, 60
2, 985924, Note_on_c, 0, 84, 80
2, 985926, Note_on_c, 0, 52, 82
2, 986064, Note_off_c, 0, 84, 60
2, 986065, Note_on_c, 0, 82, 78
2, 986219, Note_off_c, 0, 82, 59
2, 986222, Note_on_c, 0, 81, 77
2, 986223, Note_on_c, 0, 53, 65
2, 986337, Note_off_c, 0, 52, 60
2, 986361, Note_off_c, 0, 81, 59
2, 986363, Note_on_c, 0, 82, 75
2, 986440, Note_off_c, 0, 53, 56
2, 986518, Note_off_c, 0, 82, 59
2, 986520, Note_on_c, 0, 86, 74
2, 986658, Note_off_c, 0, 86, 59
2, 986660, Note_on_c, 0, 77, 72
2, 986800, Note_off_c, 0, 77, 58
2, 986802, Note_on_c, 0, 84, 71
2, 986803, Note_on_c, 0, 41, 58
2, 986943, Note_off_c, 0, 84, 58
2, 986944, Note_off_c, 0, 41, 54
2, 986946, Note_on_c, 0, 75, 69
2, 987098, Note_off_c, 0, 75, 57
2, 987100, Note_on_c, 0, 82, 68
2, 987102, Note_on_c, 0, 46, 54
2, 987110, Note_on_c, 0, 74, 62
2, 987220, Note_off_c, 0, 74, 55
2, 987239, Note_off_c, 0, 82, 57
2, 987241, Note_off_c, 0, 46, 53
2, 987243, Note_on_c, 0, 77, 66
2, 987396, Note_off_c, 0, 77, 56
2, 987397, Note_on_c, 0, 75, 65
2, 987536, Note_off_c, 0, 75, 56
2, 987538, Note_on_c, 0, 74, 63
2, 987677, Note_off_c, 0, 74, 55
2, 987679, Note_on_c, 0, 72, 62
2, 987681, Note_on_c, 0, 40, 72
2, 987819, Note_off_c, 0, 72, 55
2, 987820, Note_on_c, 0, 70, 60
2, 987974, Note_off_c, 0, 70, 55
2, 987977, Note_on_c, 0, 69, 60
2, 987979, Note_on_c, 0, 41, 48
2, 988051, Note_off_c, 0, 40, 58
2, 988116, Note_off_c, 0, 69, 55
2, 988118, Note_on_c, 0, 70, 61
2, 988195, Note_off_c, 0, 41, 52
2, 988273, Note_off_c, 0, 70, 55
2, 988274, Note_on_c, 0, 74, 62
2, 988412, Note_off_c, 0, 74, 55
2, 988415, Note_on_c, 0, 65, 63
2, 988555, Note_off_c, 0, 65, 55
2, 988557, Note_on_c, 0, 41, 52
2, 988558, Note_on_c, 0, 72, 64
2, 988559, Note_on_c, 0, 29, 46
2, 988682, Note_off_c, 0, 29, 51
2, 988685, Note_off_c, 0, 41, 53
2, 988712, Note_off_c, 0, 72, 56
2, 988714, Note_on_c, 0, 63, 65
2, 988853, Note_off_c, 0, 63, 56
2, 988855, Note_on_c, 0, 70, 66
2, 988857, Note_on_c, 0, 34, 48
2, 988858, Note_on_c, 0, 46, 54
2, 988864, Note_on_c, 0, 62, 60
2, 988967, Note_off_c, 0, 46, 53
2, 988971, Note_off_c, 0, 34, 52
2, 988984, Note_off_c, 0, 62, 55
2, 988992, Note_off_c, 0, 70, 56
2, 988997, Note_on_c, 0, 65, 67
2, 989136, Note_off_c, 0, 65, 57
2, 989137, Note_on_c, 0, 62, 68
2, 989275, Note_off_c, 0, 62, 57
2, 989276, Note_on_c, 0, 58, 69
2, 989416, Note_off_c, 0, 58, 57
2, 989418, Note_on_c, 0, 53, 70
2, 989575, Note_off_c, 0, 53, 57
2, 989576, Note_on_c, 0, 50, 72
2, 989715, Note_off_c, 0, 50, 58
2, 989717, Note_on_c, 0, 46, 60
2, 989718, Note_on_c, 0, 34, 54
2, 989835, Note_off_c, 0, 34, 53
2, 989845, Note_off_c, 0, 46, 55
2, 990593, Note_on_c, 0, 70, 54
2, 990637, Control_c, 0, 64, 127
2, 990640, Note_on_c, 0, 67, 34
2, 990642, Note_on_c, 0, 63, 42
2, 990643, Note_on_c, 0, 58, 30
2, 990936, Note_on_c, 0, 51, 48
2, 990998, Note_off_c, 0, 67, 48
2, 991214, Note_off_c, 0, 70, 53
2, 991219, Note_on_c, 0, 67, 52
2, 991220, Note_on_c, 0, 55, 40
2, 991241, Note_off_c, 0, 51, 52
2, 991279, Note_off_c, 0, 63, 50
2, 991374, Note_off_c, 0, 58, 47
2, 991537, Note_on_c, 0, 63, 56
2, 991548, Note_on_c, 0, 58, 50
2, 991562, Note_off_c, 0, 67, 53
2, 991587, Note_off_c, 0, 55, 50
2, 991813, Note_on_c, 0, 67, 60
2, 991818, Note_on_c, 0, 55, 56
2, 991877, Note_off_c, 0, 63, 54
2, 992113, Note_on_c, 0, 70, 64
2, 992113, Note_on_c, 0, 51, 56
2, 992143, Note_off_c, 0, 55, 54
2, 992329, Note_off_c, 0, 51, 54
2, 992331, Note_off_c, 0, 70, 56
2, 992376, Control_c, 0, 64, 0
2, 992425, Note_on_c, 0, 75, 68
2, 992446, Note_on_c, 0, 46, 60
2, 992585, Control_c, 0, 64, 127
2, 992737, Note_off_c, 0, 75, 57
2, 992739, Note_on_c, 0, 79, 74
2, 992959, Note_off_c, 0, 67, 55
2, 993052, Note_on_c, 0, 77, 72
2, 993056, Note_on_c, 0, 56, 48
2, 993058, Note_on_c, 0, 65, 60
2, 993083, Note_off_c, 0, 79, 59
2, 993091, Note_off_c, 0, 58, 52
2, 993209, Note_on_c, 0, 74, 66
2, 993246, Note_off_c, 0, 77, 58
2, 993316, Note_off_c, 0, 65, 55
2, 993317, Note_off_c, 0, 74, 56
2, 993366, Note_on_c, 0, 75, 60
2, 993369, Note_on_c, 0, 51, 36
2, 993370, Note_on_c, 0, 67, 40
2, 993371, Note_on_c, 0, 55, 48
2, 993385, Note_off_c, 0, 46, 55
2, 993411, Note_off_c, 0, 56, 52
2, 993507, Note_on_c, 0, 79, 54
2, 993527, Note_off_c, 0, 55, 52
2, 993539, Note_off_c, 0, 75, 55
2, 993584, Note_off_c, 0, 51, 49
2, 993592, Control_c, 0, 64, 0
2, 993648, Note_off_c, 0, 67, 50
2, 993649, Note_on_c, 0, 70, 48
2, 993684, Note_off_c, 0, 79, 53
2, 993810, Note_off_c, 0, 70, 52
2, 994277, Control_c, 0, 64, 127
2, 994304, Note_on_c, 0, 72, 50
2, 994306, Note_on_c, 0, 63, 39
2, 994308, Note_on_c, 0, 56, 48
2, 994461, Note_on_c, 0, 75, 60
2, 994510, Note_off_c, 0, 72, 52
2, 994605, Note_on_c, 0, 55, 42
2, 994606, Note_on_c, 0, 70, 72
2, 994645, Note_off_c, 0, 56, 52
2, 994648, Note_off_c, 0, 75, 55
2, 994672, Control_c, 0, 64, 0
2, 994768, Note_off_c, 0, 70, 58
2, 994854, Note_off_c, 0, 55, 50
2, 995179, Note_off_c, 0, 63, 49
2, 995260, Note_on_c, 0, 68, 48
2, 995262, Note_on_c, 0, 50, 49
2, 995263, Note_on_c, 0, 58, 49
2, 995269, Note_on_c, 0, 65, 42
2, 995271, Control_c, 0, 64, 127
2, 995418, Note_on_c, 0, 70, 48
2, 995468, Note_off_c, 0, 68, 52
2, 995518, Note_off_c, 0, 65, 50
2, 995562, Note_on_c, 0, 67, 73
2, 995564, Note_on_c, 0, 51, 53
2, 995570, Note_on_c, 0, 63, 43
2, 995605, Note_off_c, 0, 70, 52
2, 995646, Note_off_c, 0, 50, 52
2, 995647, Control_c, 0, 64, 0
2, 995721, Note_off_c, 0, 63, 50
2, 995754, Note_off_c, 0, 67, 58
2, 995795, Note_off_c, 0, 51, 53
2, 996113, Note_off_c, 0, 58, 52
2, 996158, Control_c, 0, 64, 127
2, 996185, Note_on_c, 0, 65, 53
2, 996188, Note_on_c, 0, 62, 42
2, 996189, Note_on_c, 0, 58, 36
2, 996191, Note_on_c, 0, 46, 60
2, 996342, Note_off_c, 0, 65, 53
2, 996441, Note_off_c, 0, 46, 55
2, 996459, Note_on_c, 0, 68, 55
2, 996468, Note_on_c, 0, 65, 49
2, 996470, Note_on_c, 0, 50, 60
2, 996510, Note_off_c, 0, 62, 50
2, 996674, Note_off_c, 0, 65, 52
2, 996693, Note_off_c, 0, 68, 53
2, 996716, Note_off_c, 0, 58, 49
2, 996743, Control_c, 0, 64, 0
2, 996765, Note_off_c, 0, 50, 55
2, 996780, Note_on_c, 0, 67, 57
2, 996781, Note_on_c, 0, 63, 50
2, 996782, Note_on_c, 0, 58, 43
2, 996784, Note_on_c, 0, 51, 54
2, 996897, Note_off_c, 0, 63, 52
2, 996904, Note_off_c, 0, 58, 50
2, 996912, Note_off_c, 0, 67, 54
2, 996918, Note_off_c, 0, 51, 53
2, 997094, Note_on_c, 0, 65, 60
2, 997095, Note_on_c, 0, 62, 48
2, 997096, Note_on_c, 0, 58, 36
2, 997097, Note_on_c, 0, 46, 30
2, 997222, Note_off_c, 0, 58, 49
2, 997224, Note_off_c, 0, 46, 47
2, 997226, Note_off_c, 0, 65, 55
2, 997229, Note_off_c, 0, 62, 52
2, 998069, Note_on_c, 0, 70, 52
2, 998079, Control_c, 0, 64, 127
2, 998080, Note_on_c, 0, 67, 40
2, 998082, Note_on_c, 0, 63, 36
2, 998084, Note_on_c, 0, 58, 30
2, 998377, Note_on_c, 0, 51, 48
2, 998519, Note_off_c, 0, 67, 50
2, 998675, Note_off_c, 0, 51, 52
2, 998676, Note_on_c, 0, 67, 52
2, 998678, Note_on_c, 0, 55, 48
2, 998691, Note_off_c, 0, 70, 53
2, 998747, Note_off_c, 0, 63, 49
2, 998769, Note_off_c, 0, 58, 47
2, 998976, Note_off_c, 0, 55, 52
2, 998978, Note_on_c, 0, 63, 56
2, 998999, Note_on_c, 0, 58, 45
2, 999007, Note_off_c, 0, 67, 53
2, 999272, Note_on_c, 0, 67, 60
2, 999273, Note_on_c, 0, 55, 54
2, 999286, Control_c, 0, 64, 0
2, 999308, Note_off_c, 0, 63, 54
2, 999487, Control_c, 0, 64, 127
2, 999568, Note_off_c, 0, 55, 53
2, 999569, Note_on_c, 0, 70, 64
2, 999571, Note_on_c, 0, 51, 57
2, 999788, Note_off_c, 0, 51, 54
2, 999867, Note_on_c, 0, 75, 68
2, 999885, Note_on_c, 0, 46, 60
2, 1000167, Note_on_c, 0, 79, 72
2, 1000183, Note_off_c, 0, 75, 57
2, 1000444, Note_off_c, 0, 70, 56
2, 1000461, Note_off_c, 0, 67, 55
2, 1000465, Note_on_c, 0, 77, 60
2, 1000467, Note_on_c, 0, 68, 40
2, 1000468, Note_on_c, 0, 65, 48
2, 1000469, Note_on_c, 0, 59, 50
2, 1000470, Note_on_c, 0, 47, 36
2, 1000482, Note_off_c, 0, 58, 51
2, 1000482, Note_off_c, 0, 46, 55
2, 1000485, Note_off_c, 0, 79, 58
2, 1000522, Control_c, 0, 64, 0
2, 1000619, Note_on_c, 0, 74, 58
2, 1000637, Note_off_c, 0, 77, 55
2, 1000726, Note_off_c, 0, 74, 54
2, 1000774, Note_off_c, 0, 68, 50
2, 1000776, Note_off_c, 0, 65, 52
2, 1000777, Note_off_c, 0, 59, 52
2, 1000778, Note_off_c, 0, 47, 49
2, 1000780, Note_on_c, 0, 75, 48
2, 1000781, Note_on_c, 0, 60, 36
2, 1000782, Note_on_c, 0, 67, 40
2, 1000783, Note_on_c, 0, 63, 30
2, 1000784, Note_on_c, 0, 48, 30
2, 1000913, Note_off_c, 0, 48, 47
2, 1000915, Note_off_c, 0, 60, 49
2, 1000918, Note_off_c, 0, 75, 52
2, 1000919, Note_off_c, 0, 67, 50
2, 1000929, Note_off_c, 0, 63, 47
2, 1002081, Control_c, 0, 64, 127
2, 1002082, Note_on_c, 0, 77, 36
2, 1002380, Note_on_c, 0, 75, 40
2, 1002392, Note_on_c, 0, 65, 36
2, 1002393, Note_on_c, 0, 57, 24
2, 1002394, Note_on_c, 0, 53, 30
2, 1002395, Note_on_c, 0, 45, 26
2, 1002410, Note_off_c, 0, 77, 49
2, 1002520, Note_on_c, 0, 72, 42
2, 1002543, Note_off_c, 0, 75, 50
2, 1002664, Note_on_c, 0, 74, 48
2, 1002672, Note_on_c, 0, 58, 36
2, 1002674, Note_on_c, 0, 46, 24
2, 1002684, Note_off_c, 0, 72, 50
2, 1002707, Note_off_c, 0, 57, 46
2, 1002748, Note_off_c, 0, 45, 46
2, 1002749, Control_c, 0, 64, 0
2, 1002793, Note_off_c, 0, 74, 52
2, 1002825, Note_off_c, 0, 46, 46
2, 1002826, Note_off_c, 0, 58, 49
2, 1002920, Note_off_c, 0, 65, 49
2, 1002923, Note_off_c, 0, 53, 47
2, 1004315, Note_on_c, 0, 87, 51
2, 1004325, Note_on_c, 0, 65, 30
2, 1004326, Note_on_c, 0, 60, 25
2, 1004328, Note_on_c, 0, 57, 22
2, 1004457, Note_on_c, 0, 84, 52
2, 1004469, Note_off_c, 0, 87, 52
2, 1004553, Note_off_c, 0, 60, 46
2, 1004598, Note_on_c, 0, 86, 54
2, 1004612, Note_on_c, 0, 58, 27
2, 1004613, Note_on_c, 0, 62, 42
2, 1004614, Note_off_c, 0, 84, 53
2, 1004663, Note_off_c, 0, 57, 45
2, 1004739, Note_on_c, 0, 89, 56
2, 1004755, Note_off_c, 0, 86, 53
2, 1004782, Note_off_c, 0, 65, 47
2, 1004859, Note_off_c, 0, 89, 54
2, 1004873, Note_off_c, 0, 62, 50
2, 1004874, Note_off_c, 0, 58, 46
2, 1004880, Note_on_c, 0, 77, 57
2, 1004889, Note_on_c, 0, 65, 61
2, 1004890, Note_on_c, 0, 63, 42
2, 1004891, Note_on_c, 0, 60, 31
2, 1004966, Note_off_c, 0, 77, 54
2, 1005118, Note_off_c, 0, 60, 47
2, 1005155, Note_off_c, 0, 63, 50
2, 1005160, Note_on_c, 0, 87, 61
2, 1005171, Note_on_c, 0, 57, 36
2, 1005172, Note_on_c, 0, 60, 36
2, 1005303, Note_on_c, 0, 84, 62
2, 1005340, Note_off_c, 0, 87, 55
2, 1005433, Note_off_c, 0, 60, 49
2, 1005445, Note_on_c, 0, 86, 64
2, 1005454, Note_on_c, 0, 62, 40
2, 1005456, Note_on_c, 0, 58, 46
2, 1005492, Note_off_c, 0, 84, 55
2, 1005541, Note_off_c, 0, 57, 49
2, 1005585, Note_on_c, 0, 89, 66
2, 1005623, Note_off_c, 0, 86, 56
2, 1005628, Note_off_c, 0, 65, 55
2, 1005677, Note_off_c, 0, 62, 50
2, 1005697, Note_off_c, 0, 89, 56
2, 1005719, Note_off_c, 0, 58, 51
2, 1005724, Note_on_c, 0, 77, 67
2, 1005735, Note_on_c, 0, 65, 60
2, 1005744, Note_on_c, 0, 63, 51
2, 1005745, Note_on_c, 0, 60, 45
2, 1005828, Note_off_c, 0, 77, 57
2, 1005961, Note_off_c, 0, 60, 51
2, 1005977, Note_off_c, 0, 63, 52
2, 1006023, Note_on_c, 0, 87, 70
2, 1006031, Note_on_c, 0, 60, 50
2, 1006034, Note_on_c, 0, 57, 56
2, 1006149, Note_on_c, 0, 84, 72
2, 1006176, Note_off_c, 0, 87, 57
2, 1006292, Note_on_c, 0, 86, 74
2, 1006299, Note_off_c, 0, 60, 52
2, 1006301, Note_off_c, 0, 84, 58
2, 1006302, Note_on_c, 0, 62, 54
2, 1006303, Note_on_c, 0, 58, 60
2, 1006365, Note_off_c, 0, 57, 54
2, 1006431, Note_on_c, 0, 89, 75
2, 1006443, Note_off_c, 0, 86, 59
2, 1006474, Note_off_c, 0, 65, 55
2, 1006564, Note_off_c, 0, 89, 59
2, 1006565, Note_off_c, 0, 62, 53
2, 1006567, Note_off_c, 0, 58, 55
2, 1006570, Note_on_c, 0, 77, 77
2, 1006579, Note_on_c, 0, 65, 68
2, 1006582, Note_on_c, 0, 60, 59
2, 1006584, Note_on_c, 0, 63, 65
2, 1006672, Note_off_c, 0, 77, 59
2, 1006776, Note_off_c, 0, 60, 54
2, 1006794, Note_off_c, 0, 63, 56
2, 1006869, Note_on_c, 0, 87, 80
2, 1006879, Note_on_c, 0, 57, 69
2, 1006880, Note_on_c, 0, 60, 63
2, 1007009, Note_on_c, 0, 84, 82
2, 1007094, Note_off_c, 0, 87, 60
2, 1007117, Note_off_c, 0, 60, 55
2, 1007119, Note_off_c, 0, 84, 60
2, 1007151, Note_on_c, 0, 86, 84
2, 1007162, Note_on_c, 0, 62, 66
2, 1007164, Note_on_c, 0, 58, 72
2, 1007213, Note_off_c, 0, 57, 57
2, 1007290, Note_off_c, 0, 86, 61
2, 1007293, Note_on_c, 0, 89, 84
2, 1007349, Note_off_c, 0, 65, 57
2, 1007432, Note_off_c, 0, 89, 61
2, 1007435, Note_on_c, 0, 87, 83
2, 1007444, Note_off_c, 0, 58, 58
2, 1007445, Note_off_c, 0, 62, 56
2, 1007575, Note_off_c, 0, 87, 60
2, 1007576, Note_on_c, 0, 86, 81
2, 1007730, Note_off_c, 0, 86, 60
2, 1007732, Note_on_c, 0, 84, 80
2, 1007733, Note_on_c, 0, 52, 76
2, 1007871, Note_off_c, 0, 84, 60
2, 1007872, Note_on_c, 0, 82, 78
2, 1008027, Note_off_c, 0, 82, 59
2, 1008030, Note_on_c, 0, 81, 77
2, 1008031, Note_on_c, 0, 53, 65
2, 1008094, Note_off_c, 0, 52, 59
2, 1008167, Note_off_c, 0, 81, 59
2, 1008170, Note_on_c, 0, 82, 75
2, 1008246, Note_off_c, 0, 53, 56
2, 1008310, Note_off_c, 0, 82, 59
2, 1008311, Note_on_c, 0, 86, 74
2, 1008450, Note_off_c, 0, 86, 59
2, 1008452, Note_on_c, 0, 77, 72
2, 1008606, Note_off_c, 0, 77, 58
2, 1008609, Note_on_c, 0, 41, 58
2, 1008610, Note_on_c, 0, 84, 71
2, 1008711, Note_off_c, 0, 41, 54
2, 1008749, Note_off_c, 0, 84, 58
2, 1008750, Note_on_c, 0, 75, 69
2, 1008905, Note_off_c, 0, 75, 57
2, 1008906, Note_on_c, 0, 82, 68
2, 1008907, Note_on_c, 0, 46, 54
2, 1008909, Note_on_c, 0, 74, 68
2, 1009009, Note_off_c, 0, 46, 53
2, 1009045, Note_off_c, 0, 82, 57
2, 1009048, Note_off_c, 0, 74, 57
2, 1009049, Note_on_c, 0, 77, 66
2, 1009187, Note_off_c, 0, 77, 56
2, 1009189, Note_on_c, 0, 75, 65
2, 1009331, Note_off_c, 0, 75, 56
2, 1009331, Note_on_c, 0, 74, 63
2, 1009485, Note_off_c, 0, 74, 55
2, 1009487, Note_on_c, 0, 72, 62
2, 1009488, Note_on_c, 0, 40, 68
2, 1009626, Note_off_c, 0, 72, 55
2, 1009627, Note_on_c, 0, 70, 60
2, 1009782, Note_off_c, 0, 70, 55
2, 1009785, Note_on_c, 0, 69, 60
2, 1009786, Note_on_c, 0, 41, 48
2, 1009863, Note_off_c, 0, 40, 57
2, 1009922, Note_off_c, 0, 69, 55
2, 1009925, Note_on_c, 0, 70, 61
2, 1010001, Note_off_c, 0, 41, 52
2, 1010064, Note_off_c, 0, 70, 55
2, 1010066, Note_on_c, 0, 74, 62
2, 1010221, Note_off_c, 0, 74, 55
2, 1010223, Note_on_c, 0, 65, 63
2, 1010362, Note_off_c, 0, 65, 55
2, 1010364, Note_on_c, 0, 29, 46
2, 1010365, Note_on_c, 0, 41, 52
2, 1010366, Note_on_c, 0, 72, 64
2, 1010442, Note_off_c, 0, 29, 51
2, 1010462, Note_off_c, 0, 41, 53
2, 1010502, Note_off_c, 0, 72, 56
2, 1010506, Note_on_c, 0, 63, 65
2, 1010660, Note_off_c, 0, 63, 56
2, 1010661, Note_on_c, 0, 70, 66
2, 1010662, Note_on_c, 0, 34, 48
2, 1010664, Note_on_c, 0, 46, 54
2, 1010665, Note_on_c, 0, 62, 66
2, 1010751, Note_off_c, 0, 34, 52
2, 1010765, Note_off_c, 0, 46, 53
2, 1010800, Note_off_c, 0, 62, 56
2, 1010801, Note_off_c, 0, 70, 56
2, 1010804, Note_on_c, 0, 65, 67
2, 1010927, Note_off_c, 0, 65, 57
2, 1010928, Note_on_c, 0, 62, 68
2, 1011084, Note_off_c, 0, 62, 57
2, 1011085, Note_on_c, 0, 58, 69
2, 1011224, Note_off_c, 0, 58, 57
2, 1011225, Note_on_c, 0, 53, 70
2, 1011363, Note_off_c, 0, 53, 57
2, 1011365, Note_on_c, 0, 50, 72
2, 1011522, Note_off_c, 0, 50, 58
2, 1011524, Note_on_c, 0, 34, 54
2, 1011525, Note_on_c, 0, 46, 60
2, 1011622, Note_off_c, 0, 46, 55
2, 1011632, Note_off_c, 0, 34, 53
2, 1012446, Note_on_c, 0, 58, 35
2, 1013027, Note_on_c, 0, 55, 40
2, 1013053, Note_off_c, 0, 58, 48
2, 1013322, Note_on_c, 0, 70, 48
2, 1013325, Note_on_c, 0, 52, 42
2, 1013350, Note_off_c, 0, 55, 50
2, 1013606, Note_on_c, 0, 55, 44
2, 1013631, Note_off_c, 0, 52, 50
2, 1013919, Note_on_c, 0, 58, 47
2, 1013921, Note_on_c, 0, 67, 50
2, 1013925, Note_off_c, 0, 70, 52
2, 1013948, Note_off_c, 0, 55, 51
2, 1014151, Note_off_c, 0, 58, 51
2, 1014231, Note_on_c, 0, 64, 53
2, 1014233, Note_on_c, 0, 61, 49
2, 1014239, Note_off_c, 0, 67, 52
2, 1014529, Note_on_c, 0, 67, 56
2, 1014536, Note_off_c, 0, 64, 53
2, 1014829, Note_on_c, 0, 70, 59
2, 1014832, Note_on_c, 0, 58, 54
2, 1014834, Note_off_c, 0, 67, 54
2, 1014859, Note_off_c, 0, 61, 52
2, 1015085, Note_off_c, 0, 70, 54
2, 1015143, Note_on_c, 0, 55, 56
2, 1015145, Note_on_c, 0, 73, 61
2, 1015173, Note_off_c, 0, 58, 53
2, 1015438, Note_on_c, 0, 58, 59
2, 1015469, Note_off_c, 0, 55, 54
2, 1015720, Note_on_c, 0, 70, 67
2, 1015724, Note_on_c, 0, 61, 61
2, 1015753, Note_off_c, 0, 58, 54
2, 1015793, Note_off_c, 0, 73, 55
2, 1015955, Note_off_c, 0, 61, 55
2, 1016037, Note_on_c, 0, 64, 64
2, 1016038, Note_on_c, 0, 67, 70
2, 1016082, Note_off_c, 0, 70, 57
2, 1016331, Note_on_c, 0, 70, 72
2, 1016336, Note_off_c, 0, 67, 57
2, 1016613, Note_on_c, 0, 73, 75
2, 1016616, Note_off_c, 0, 70, 58
2, 1016617, Note_on_c, 0, 61, 68
2, 1016642, Note_off_c, 0, 64, 56
2, 1016855, Note_off_c, 0, 73, 59
2, 1016928, Note_on_c, 0, 76, 78
2, 1016929, Note_on_c, 0, 58, 62
2, 1016955, Note_off_c, 0, 61, 57
2, 1017223, Note_on_c, 0, 61, 73
2, 1017251, Note_off_c, 0, 58, 55
2, 1017523, Note_off_c, 0, 76, 59
2, 1017525, Note_on_c, 0, 64, 67
2, 1017526, Note_on_c, 0, 73, 84
2, 1017551, Note_off_c, 0, 61, 58
2, 1017756, Note_off_c, 0, 73, 61
2, 1017758, Note_off_c, 0, 64, 57
2, 1017835, Note_on_c, 0, 70, 52
2, 1017836, Note_on_c, 0, 67, 40
2, 1017880, Control_c, 0, 64, 92
2, 1018131, Note_on_c, 0, 73, 78
2, 1018429, Note_on_c, 0, 76, 72
2, 1018448, Note_off_c, 0, 73, 59
2, 1018744, Note_on_c, 0, 79, 66
2, 1018758, Control_c, 0, 64, 0
2, 1018766, Note_off_c, 0, 76, 58
2, 1018960, Control_c, 0, 64, 86
2, 1019027, Note_on_c, 0, 77, 60
2, 1019050, Note_off_c, 0, 79, 56
2, 1019338, Note_on_c, 0, 76, 54
2, 1019374, Note_off_c, 0, 77, 55
2, 1019527, Note_off_c, 0, 67, 50
2, 1019529, Note_off_c, 0, 70, 53
2, 1019573, Note_off_c, 0, 76, 53
2, 1019654, Note_on_c, 0, 72, 48
2, 1019655, Note_on_c, 0, 76, 60
2, 1019657, Note_on_c, 0, 68, 34
2, 1019666, Control_c, 0, 64, 0
2, 1019868, Control_c, 0, 64, 86
2, 1019916, Note_on_c, 0, 77, 48
2, 1020007, Note_off_c, 0, 76, 55
2, 1020146, Note_off_c, 0, 77, 52
2, 1020239, Note_on_c, 0, 79, 60
2, 1020287, Note_off_c, 0, 79, 55
2, 1020288, Note_on_c, 0, 77, 62
2, 1020334, Note_off_c, 0, 77, 55
2, 1020335, Note_on_c, 0, 79, 64
2, 1020379, Note_off_c, 0, 79, 56
2, 1020381, Note_on_c, 0, 77, 66
2, 1020425, Note_off_c, 0, 77, 56
2, 1020427, Note_on_c, 0, 76, 68
2, 1020474, Note_off_c, 0, 76, 57
2, 1020475, Note_on_c, 0, 77, 70
2, 1020535, Note_off_c, 0, 77, 57
2, 1020554, Note_on_c, 0, 80, 96
2, 1020595, Control_c, 0, 64, 0
2, 1020797, Control_c, 0, 64, 86
2, 1020852, Note_on_c, 0, 79, 72
2, 1020921, Note_off_c, 0, 80, 63
2, 1021150, Note_on_c, 0, 77, 70
2, 1021195, Note_off_c, 0, 79, 58
2, 1021329, Note_off_c, 0, 72, 52
2, 1021330, Note_off_c, 0, 68, 48
2, 1021384, Note_off_c, 0, 77, 57
2, 1021456, Note_on_c, 0, 73, 55
2, 1021458, Note_on_c, 0, 70, 40
2, 1021459, Note_on_c, 0, 67, 32
2, 1021473, Control_c, 0, 64, 0
2, 1021673, Control_c, 0, 64, 86
2, 1021751, Note_on_c, 0, 76, 65
2, 1021986, Note_off_c, 0, 76, 56
2, 1022055, Note_on_c, 0, 76, 63
2, 1022212, Note_off_c, 0, 76, 55
2, 1022307, Note_on_c, 0, 76, 60
2, 1022363, Note_on_c, 0, 79, 84
2, 1022370, Note_off_c, 0, 76, 55
2, 1022377, Control_c, 0, 64, 0
2, 1022578, Control_c, 0, 64, 86
2, 1022660, Note_on_c, 0, 77, 60
2, 1022709, Note_off_c, 0, 79, 61
2, 1022957, Note_on_c, 0, 76, 57
2, 1022996, Note_off_c, 0, 77, 55
2, 1023160, Note_off_c, 0, 73, 53
2, 1023162, Note_off_c, 0, 70, 50
2, 1023163, Note_off_c, 0, 67, 48
2, 1023192, Note_off_c, 0, 76, 54
2, 1023274, Note_on_c, 0, 72, 49
2, 1023275, Note_on_c, 0, 68, 40
2, 1023282, Control_c, 0, 64, 0
2, 1023484, Control_c, 0, 64, 86
2, 1023568, Note_on_c, 0, 77, 51
2, 1023765, Note_off_c, 0, 77, 52
2, 1023863, Note_on_c, 0, 77, 48
2, 1024025, Note_off_c, 0, 77, 52
2, 1024122, Note_on_c, 0, 77, 60
2, 1024171, Note_off_c, 0, 77, 55
2, 1024179, Note_on_c, 0, 80, 65
2, 1024182, Control_c, 0, 64, 0
2, 1024385, Control_c, 0, 64, 86
2, 1024478, Note_on_c, 0, 79, 60
2, 1024525, Note_off_c, 0, 80, 56
2, 1024775, Note_on_c, 0, 77, 58
2, 1024820, Note_off_c, 0, 79, 55
2, 1024946, Note_off_c, 0, 68, 50
2, 1024948, Note_off_c, 0, 72, 52
2, 1024993, Note_off_c, 0, 77, 54
2, 1025074, Note_on_c, 0, 75, 56
2, 1025075, Note_on_c, 0, 68, 43
2, 1025077, Note_on_c, 0, 65, 35
2, 1025084, Control_c, 0, 64, 0
2, 1025284, Control_c, 0, 64, 86
2, 1025386, Note_on_c, 0, 74, 54
2, 1025450, Note_off_c, 0, 75, 54
2, 1025605, Note_off_c, 0, 74, 53
2, 1025682, Note_on_c, 0, 74, 52
2, 1025811, Note_off_c, 0, 74, 53
2, 1025932, Note_on_c, 0, 74, 50
2, 1025996, Note_on_c, 0, 77, 50
2, 1026000, Note_off_c, 0, 74, 52
2, 1026003, Control_c, 0, 64, 0
2, 1026203, Control_c, 0, 64, 86
2, 1026310, Note_off_c, 0, 77, 52
2, 1026311, Note_on_c, 0, 75, 47
2, 1026638, Note_on_c, 0, 74, 45
2, 1026655, Note_off_c, 0, 75, 51
2, 1026818, Note_off_c, 0, 68, 50
2, 1026821, Note_off_c, 0, 65, 48
2, 1026970, Note_on_c, 0, 72, 43
2, 1026972, Note_on_c, 0, 65, 36
2, 1026973, Note_on_c, 0, 62, 30
2, 1026983, Note_off_c, 0, 74, 51
2, 1026985, Control_c, 0, 64, 0
2, 1027195, Control_c, 0, 64, 86
2, 1027320, Note_on_c, 0, 70, 41
2, 1027338, Note_off_c, 0, 72, 50
2, 1027712, Note_on_c, 0, 69, 39
2, 1027733, Note_off_c, 0, 70, 50
2, 1028173, Control_c, 0, 64, 0
2, 1028178, Note_on_c, 0, 70, 36
2, 1028201, Note_off_c, 0, 69, 49
2, 1028476, Control_c, 0, 64, 86
2, 1028717, Note_on_c, 0, 72, 38
2, 1028744, Note_off_c, 0, 70, 49
2, 1029383, Note_off_c, 0, 72, 49
2, 1029391, Note_on_c, 0, 68, 42
2, 1029797, Note_off_c, 0, 65, 49
2, 1029802, Note_off_c, 0, 62, 47
2, 1029917, Note_off_c, 0, 68, 50
2, 1030061, Note_on_c, 0, 70, 48
2, 1030068, Control_c, 0, 64, 0
2, 1030080, Note_on_c, 0, 67, 30
2, 1030082, Note_on_c, 0, 63, 42
2, 1030083, Note_on_c, 0, 58, 35
2, 1030280, Control_c, 0, 64, 127
2, 1030374, Note_on_c, 0, 51, 45
2, 1030423, Note_off_c, 0, 67, 47
2, 1030656, Note_on_c, 0, 55, 48
2, 1030658, Note_on_c, 0, 67, 48
2, 1030675, Note_off_c, 0, 70, 52
2, 1030679, Note_off_c, 0, 58, 48
2, 1030691, Note_off_c, 0, 51, 51
2, 1030768, Note_off_c, 0, 63, 50
2, 1030983, Note_on_c, 0, 63, 52
2, 1031001, Note_on_c, 0, 58, 51
2, 1031030, Note_off_c, 0, 67, 52
2, 1031043, Note_off_c, 0, 55, 52
2, 1031280, Note_on_c, 0, 67, 57
2, 1031285, Note_on_c, 0, 55, 54
2, 1031290, Control_c, 0, 64, 0
2, 1031337, Note_off_c, 0, 63, 53
2, 1031500, Control_c, 0, 64, 127
2, 1031566, Note_on_c, 0, 70, 62
2, 1031568, Note_on_c, 0, 51, 57
2, 1031658, Note_off_c, 0, 55, 53
2, 1031880, Note_off_c, 0, 51, 54
2, 1031887, Note_on_c, 0, 75, 67
2, 1031905, Note_on_c, 0, 46, 60
2, 1032228, Note_on_c, 0, 79, 74
2, 1032261, Note_off_c, 0, 75, 57
2, 1032551, Note_on_c, 0, 44, 48
2, 1032555, Note_off_c, 0, 67, 54
2, 1032560, Note_on_c, 0, 77, 72
2, 1032571, Note_on_c, 0, 65, 60
2, 1032594, Note_off_c, 0, 79, 59
2, 1032699, Note_off_c, 0, 46, 55
2, 1032721, Note_on_c, 0, 74, 66
2, 1032757, Note_off_c, 0, 77, 58
2, 1032800, Note_off_c, 0, 70, 55
2, 1032829, Control_c, 0, 64, 0
2, 1032844, Note_off_c, 0, 65, 55
2, 1032851, Note_off_c, 0, 74, 56
2, 1032876, Note_on_c, 0, 43, 48
2, 1032884, Note_on_c, 0, 75, 60
2, 1032885, Note_on_c, 0, 67, 52
2, 1032909, Note_off_c, 0, 44, 52
2, 1033026, Note_on_c, 0, 79, 54
2, 1033067, Note_off_c, 0, 75, 55
2, 1033071, Note_off_c, 0, 67, 53
2, 1033095, Note_off_c, 0, 43, 52
2, 1033122, Note_off_c, 0, 58, 52
2, 1033185, Note_on_c, 0, 70, 48
2, 1033238, Note_off_c, 0, 79, 53
2, 1033414, Note_off_c, 0, 70, 52
2, 1033803, Control_c, 0, 64, 127
2, 1033840, Note_on_c, 0, 72, 60
2, 1033841, Note_on_c, 0, 63, 50
2, 1033843, Note_on_c, 0, 56, 42
2, 1033982, Note_on_c, 0, 75, 60
2, 1034032, Note_off_c, 0, 72, 55
2, 1034123, Note_on_c, 0, 70, 59
2, 1034125, Note_on_c, 0, 55, 40
2, 1034174, Note_off_c, 0, 75, 55
2, 1034183, Note_off_c, 0, 56, 50
2, 1034210, Control_c, 0, 64, 0
2, 1034313, Note_off_c, 0, 55, 50
2, 1034320, Note_off_c, 0, 70, 54
2, 1034677, Note_off_c, 0, 63, 52
2, 1034707, Control_c, 0, 64, 127
2, 1034747, Note_on_c, 0, 65, 36
2, 1034749, Note_on_c, 0, 68, 52
2, 1034750, Note_on_c, 0, 50, 40
2, 1034752, Note_on_c, 0, 58, 30
2, 1034892, Note_on_c, 0, 70, 50
2, 1034937, Note_off_c, 0, 68, 53
2, 1035048, Note_off_c, 0, 65, 49
2, 1035050, Note_on_c, 0, 51, 34
2, 1035051, Note_on_c, 0, 67, 48
2, 1035052, Note_on_c, 0, 63, 40
2, 1035093, Note_off_c, 0, 70, 52
2, 1035100, Note_off_c, 0, 50, 50
2, 1035102, Control_c, 0, 64, 0
2, 1035240, Note_off_c, 0, 67, 52
2, 1035241, Note_off_c, 0, 63, 50
2, 1035267, Note_off_c, 0, 51, 48
2, 1035475, Note_off_c, 0, 58, 47
2, 1035654, Control_c, 0, 64, 127
2, 1035657, Note_on_c, 0, 65, 48
2, 1035660, Note_on_c, 0, 58, 38
2, 1035661, Note_on_c, 0, 46, 40
2, 1035666, Note_on_c, 0, 62, 30
2, 1035881, Note_off_c, 0, 65, 52
2, 1035954, Note_on_c, 0, 68, 63
2, 1035957, Note_on_c, 0, 50, 38
2, 1035965, Note_on_c, 0, 65, 54
2, 1036001, Note_off_c, 0, 62, 47
2, 1036006, Note_off_c, 0, 46, 50
2, 1036130, Control_c, 0, 64, 0
2, 1036139, Note_off_c, 0, 65, 53
2, 1036190, Note_off_c, 0, 68, 55
2, 1036192, Note_off_c, 0, 50, 49
2, 1036193, Note_off_c, 0, 58, 49
2, 1036267, Note_on_c, 0, 67, 48
2, 1036279, Note_on_c, 0, 63, 36
2, 1036280, Note_on_c, 0, 58, 30
2, 1036282, Note_on_c, 0, 51, 26
2, 1036398, Note_off_c, 0, 51, 46
2, 1036404, Note_off_c, 0, 58, 47
2, 1036411, Note_off_c, 0, 63, 49
2, 1036424, Note_off_c, 0, 67, 52
2, 1036579, Note_on_c, 0, 65, 42
2, 1036593, Note_on_c, 0, 62, 30
2, 1036594, Note_on_c, 0, 58, 36
2, 1036597, Note_on_c, 0, 46, 25
2, 1036709, Note_off_c, 0, 46, 46
2, 1036713, Note_off_c, 0, 62, 47
2, 1036714, Note_off_c, 0, 58, 49
2, 1036738, Note_off_c, 0, 65, 50
2, 1037595, Control_c, 0, 64, 127
2, 1037604, Note_on_c, 0, 70, 55
2, 1037634, Note_on_c, 0, 66, 48
2, 1037635, Note_on_c, 0, 63, 30
2, 1037637, Note_on_c, 0, 58, 36
2, 1037946, Note_on_c, 0, 51, 48
2, 1038093, Note_off_c, 0, 66, 52
2, 1038226, Note_off_c, 0, 70, 53
2, 1038247, Note_on_c, 0, 66, 48
2, 1038256, Note_on_c, 0, 54, 40
2, 1038305, Note_off_c, 0, 51, 52
2, 1038317, Note_off_c, 0, 58, 49
2, 1038330, Note_off_c, 0, 63, 47
2, 1038562, Note_on_c, 0, 63, 50
2, 1038582, Note_on_c, 0, 58, 42
2, 1038611, Note_off_c, 0, 66, 52
2, 1038628, Note_off_c, 0, 54, 50
2, 1038857, Note_on_c, 0, 54, 46
2, 1038859, Note_on_c, 0, 66, 52
2, 1038920, Note_off_c, 0, 63, 52
2, 1039155, Note_on_c, 0, 70, 55
2, 1039156, Note_on_c, 0, 51, 48
2, 1039162, Control_c, 0, 64, 0
2, 1039193, Note_off_c, 0, 54, 51
2, 1039379, Control_c, 0, 64, 127
2, 1039480, Note_on_c, 0, 75, 63
2, 1039498, Note_on_c, 0, 46, 50
2, 1039512, Note_off_c, 0, 51, 52
2, 1039822, Note_on_c, 0, 78, 60
2, 1039869, Note_off_c, 0, 75, 55
2, 1040106, Note_off_c, 0, 66, 53
2, 1040174, Note_off_c, 0, 70, 53
2, 1040178, Note_on_c, 0, 77, 60
2, 1040180, Note_on_c, 0, 68, 45
2, 1040181, Note_on_c, 0, 65, 40
2, 1040222, Note_off_c, 0, 78, 55
2, 1040258, Note_off_c, 0, 46, 52
2, 1040260, Note_off_c, 0, 58, 50
2, 1040320, Note_on_c, 0, 74, 54
2, 1040362, Note_off_c, 0, 77, 55
2, 1040406, Control_c, 0, 64, 0
2, 1040442, Note_off_c, 0, 65, 50
2, 1040444, Note_off_c, 0, 68, 51
2, 1040446, Note_off_c, 0, 74, 53
2, 1040472, Note_on_c, 0, 75, 48
2, 1040492, Note_on_c, 0, 66, 36
2, 1040493, Note_on_c, 0, 63, 30
2, 1040494, Note_on_c, 0, 59, 40
2, 1040504, Note_on_c, 0, 47, 36
2, 1040753, Note_off_c, 0, 66, 49
2, 1040757, Note_off_c, 0, 59, 50
2, 1040764, Note_off_c, 0, 47, 49
2, 1040767, Note_off_c, 0, 63, 47
2, 1040809, Note_off_c, 0, 75, 52
2, 1042156, Note_on_c, 0, 76, 40
2, 1042165, Note_on_c, 0, 66, 36
2, 1042166, Note_on_c, 0, 58, 30
2, 1042168, Note_on_c, 0, 46, 24
2, 1042169, Note_on_c, 0, 54, 26
2, 1042300, Note_on_c, 0, 73, 38
2, 1042331, Note_off_c, 0, 76, 50
2, 1042445, Note_on_c, 0, 75, 38
2, 1042457, Note_on_c, 0, 47, 24
2, 1042459, Note_on_c, 0, 59, 36
2, 1042480, Note_off_c, 0, 73, 49
2, 1042495, Note_off_c, 0, 46, 46
2, 1042533, Note_off_c, 0, 58, 47
2, 1042606, Note_off_c, 0, 75, 49
2, 1042628, Note_off_c, 0, 59, 49
2, 1042642, Note_off_c, 0, 47, 46
2, 1042677, Note_off_c, 0, 66, 49
2, 1042680, Note_off_c, 0, 54, 46
2, 1043037, Note_on_c, 0, 76, 46
2, 1043048, Note_on_c, 0, 66, 42
2, 1043049, Note_on_c, 0, 58, 36
2, 1043051, Note_on_c, 0, 46, 24
2, 1043053, Note_on_c, 0, 54, 28
2, 1043182, Note_on_c, 0, 73, 48
2, 1043236, Note_off_c, 0, 76, 51
2, 1043328, Note_on_c, 0, 75, 48
2, 1043331, Note_off_c, 0, 73, 52
2, 1043337, Note_on_c, 0, 59, 30
2, 1043341, Note_on_c, 0, 47, 24
2, 1043377, Note_off_c, 0, 58, 49
2, 1043381, Note_off_c, 0, 46, 46
2, 1043474, Note_off_c, 0, 47, 46
2, 1043485, Note_off_c, 0, 75, 52
2, 1043501, Note_off_c, 0, 59, 47
2, 1043560, Note_off_c, 0, 66, 50
2, 1043562, Note_off_c, 0, 54, 47
2, 1043919, Note_on_c, 0, 76, 39
2, 1043929, Note_on_c, 0, 66, 30
2, 1043931, Note_on_c, 0, 58, 25
2, 1043932, Note_on_c, 0, 54, 20
2, 1043933, Note_on_c, 0, 46, 24
2, 1044065, Note_on_c, 0, 73, 36
2, 1044076, Note_off_c, 0, 76, 49
2, 1044148, Note_off_c, 0, 54, 45
2, 1044167, Note_off_c, 0, 58, 46
2, 1044182, Note_off_c, 0, 46, 46
2, 1044210, Note_on_c, 0, 75, 38
2, 1044222, Note_on_c, 0, 47, 24
2, 1044224, Note_on_c, 0, 59, 29
2, 1044234, Note_off_c, 0, 73, 49
2, 1044382, Note_off_c, 0, 75, 49
2, 1044442, Note_off_c, 0, 66, 47
2, 1044521, Note_on_c, 0, 78, 48
2, 1044524, Note_on_c, 0, 66, 35
2, 1044571, Control_c, 0, 64, 127
2, 1044827, Note_off_c, 0, 47, 46
2, 1044828, Note_on_c, 0, 51, 40
2, 1045109, Note_off_c, 0, 66, 48
2, 1045116, Note_off_c, 0, 51, 50
2, 1045118, Note_on_c, 0, 68, 46
2, 1045120, Note_on_c, 0, 53, 48
2, 1045142, Control_c, 0, 64, 0
2, 1045357, Control_c, 0, 64, 127
2, 1045404, Note_on_c, 0, 76, 60
2, 1045446, Note_off_c, 0, 78, 52
2, 1045710, Note_off_c, 0, 59, 47
2, 1045711, Note_on_c, 0, 61, 46
2, 1045997, Note_off_c, 0, 68, 51
2, 1045999, Note_off_c, 0, 53, 52
2, 1046001, Note_on_c, 0, 70, 46
2, 1046002, Note_on_c, 0, 54, 65
2, 1046026, Control_c, 0, 64, 0
2, 1046241, Control_c, 0, 64, 127
2, 1046287, Note_off_c, 0, 70, 51
2, 1046290, Note_on_c, 0, 71, 42
2, 1046291, Note_on_c, 0, 75, 72
2, 1046328, Note_off_c, 0, 76, 55
2, 1046591, Note_off_c, 0, 61, 51
2, 1046593, Note_on_c, 0, 63, 66
2, 1046736, Note_off_c, 0, 75, 58
2, 1046861, Note_on_c, 0, 73, 56
2, 1046879, Note_off_c, 0, 63, 56
2, 1046883, Note_on_c, 0, 64, 60
2, 1046930, Control_c, 0, 64, 0
2, 1047145, Note_off_c, 0, 71, 50
2, 1047146, Control_c, 0, 64, 127
2, 1047170, Note_off_c, 0, 64, 55
2, 1047171, Note_on_c, 0, 70, 48
2, 1047172, Note_on_c, 0, 66, 54
2, 1047473, Note_off_c, 0, 66, 53
2, 1047476, Note_on_c, 0, 64, 48
2, 1047744, Note_off_c, 0, 73, 54
2, 1047758, Note_on_c, 0, 75, 48
2, 1047763, Note_off_c, 0, 70, 52
2, 1047765, Note_off_c, 0, 54, 56
2, 1047767, Note_off_c, 0, 64, 52
2, 1047768, Note_on_c, 0, 71, 40
2, 1047770, Note_on_c, 0, 63, 32
2, 1047771, Note_on_c, 0, 59, 48
2, 1047776, Control_c, 0, 64, 0
2, 1047991, Control_c, 0, 64, 127
2, 1048036, Note_on_c, 0, 78, 60
2, 1048042, Note_off_c, 0, 75, 52
2, 1048053, Note_off_c, 0, 71, 50
2, 1048054, Note_off_c, 0, 63, 48
2, 1048055, Note_on_c, 0, 66, 40
2, 1048356, Note_on_c, 0, 51, 48
2, 1048660, Note_off_c, 0, 66, 50
2, 1048662, Note_off_c, 0, 51, 52
2, 1048663, Note_on_c, 0, 68, 52
2, 1048664, Note_on_c, 0, 52, 47
2, 1048951, Note_on_c, 0, 76, 57
2, 1048960, Control_c, 0, 64, 0
2, 1048995, Note_off_c, 0, 78, 55
2, 1049176, Control_c, 0, 64, 127
2, 1049238, Note_off_c, 0, 59, 52
2, 1049239, Note_on_c, 0, 61, 55
2, 1049545, Note_off_c, 0, 52, 51
2, 1049546, Note_off_c, 0, 68, 53
2, 1049547, Note_on_c, 0, 70, 53
2, 1049548, Note_on_c, 0, 55, 49
2, 1049832, Note_off_c, 0, 70, 53
2, 1049834, Note_on_c, 0, 75, 72
2, 1049852, Note_on_c, 0, 71, 50
2, 1049873, Control_c, 0, 64, 0
2, 1049895, Note_off_c, 0, 76, 54
2, 1050088, Control_c, 0, 64, 127
2, 1050137, Note_off_c, 0, 61, 53
2, 1050139, Note_on_c, 0, 63, 54
2, 1050279, Note_off_c, 0, 55, 52
2, 1050427, Note_off_c, 0, 71, 52
2, 1050440, Note_on_c, 0, 70, 50
2, 1050443, Note_on_c, 0, 55, 52
2, 1050715, Note_on_c, 0, 73, 69
2, 1050767, Note_off_c, 0, 75, 58
2, 1050769, Control_c, 0, 64, 0
2, 1050859, Note_off_c, 0, 63, 53
2, 1050982, Control_c, 0, 64, 127
2, 1051020, Note_on_c, 0, 63, 56
2, 1051083, Note_off_c, 0, 55, 53
2, 1051307, Note_off_c, 0, 70, 52
2, 1051309, Note_on_c, 0, 56, 53
2, 1051597, Note_on_c, 0, 71, 58
2, 1051627, Control_c, 0, 64, 0
2, 1051652, Note_off_c, 0, 73, 57
2, 1051742, Note_off_c, 0, 63, 54
2, 1051843, Control_c, 0, 64, 127
2, 1051900, Note_on_c, 0, 63, 48
2, 1051982, Note_off_c, 0, 56, 53
2, 1052206, Note_on_c, 0, 58, 46
2, 1052528, Note_on_c, 0, 70, 47
2, 1052591, Note_off_c, 0, 71, 54
2, 1052620, Control_c, 0, 64, 0
2, 1052670, Note_off_c, 0, 63, 52
2, 1052831, Note_on_c, 0, 63, 41
2, 1052836, Control_c, 0, 64, 127
2, 1052911, Note_off_c, 0, 58, 51
2, 1053168, Note_on_c, 0, 60, 39
2, 1053493, Note_on_c, 0, 69, 36
2, 1053569, Note_off_c, 0, 70, 51
2, 1053579, Control_c, 0, 64, 0
2, 1053685, Note_off_c, 0, 63, 50
2, 1053813, Control_c, 0, 64, 127
2, 1053857, Note_off_c, 0, 69, 49
2, 1053859, Note_on_c, 0, 63, 32
2, 1053963, Note_off_c, 0, 60, 49
2, 1054240, Note_off_c, 0, 63, 48
2, 1054256, Control_c, 0, 64, 0
2, 1055334, Note_on_c, 0, 58, 36
2, 1055632, Note_off_c, 0, 58, 49
2, 1055633, Note_on_c, 0, 70, 36
2, 1055850, Note_off_c, 0, 70, 49
2, 1055912, Note_on_c, 0, 70, 39
2, 1056131, Note_off_c, 0, 70, 49
2, 1056211, Note_on_c, 0, 70, 42
2, 1056430, Note_off_c, 0, 70, 50
2, 1056507, Note_on_c, 0, 70, 45
2, 1056728, Note_off_c, 0, 70, 51
2, 1056789, Note_on_c, 0, 80, 48
2, 1056792, Note_on_c, 0, 65, 40
2, 1056793, Note_on_c, 0, 70, 48
2, 1056931, Note_on_c, 0, 62, 41
2, 1056933, Note_on_c, 0, 77, 49
2, 1056977, Note_off_c, 0, 80, 52
2, 1056994, Note_off_c, 0, 70, 52
2, 1057005, Note_off_c, 0, 65, 50
2, 1057074, Note_on_c, 0, 70, 51
2, 1057076, Note_on_c, 0, 79, 51
2, 1057077, Note_on_c, 0, 63, 42
2, 1057115, Note_off_c, 0, 77, 52
2, 1057143, Note_off_c, 0, 62, 50
2, 1057197, Note_off_c, 0, 79, 52
2, 1057198, Note_off_c, 0, 63, 50
2, 1057292, Note_off_c, 0, 70, 52
2, 1057369, Note_on_c, 0, 58, 44
2, 1057371, Note_on_c, 0, 70, 54
2, 1057585, Note_off_c, 0, 58, 51
2, 1057590, Note_off_c, 0, 70, 53
2, 1057654, Note_on_c, 0, 68, 46
2, 1057655, Note_on_c, 0, 70, 57
2, 1057656, Note_on_c, 0, 77, 57
2, 1057794, Note_on_c, 0, 65, 48
2, 1057796, Note_on_c, 0, 74, 58
2, 1057800, Note_off_c, 0, 77, 54
2, 1057829, Note_off_c, 0, 68, 51
2, 1057855, Note_off_c, 0, 70, 54
2, 1057937, Note_on_c, 0, 67, 49
2, 1057938, Note_on_c, 0, 70, 60
2, 1057940, Note_on_c, 0, 75, 60
2, 1057960, Note_off_c, 0, 74, 54
2, 1057992, Note_off_c, 0, 65, 52
2, 1058066, Note_off_c, 0, 75, 55
2, 1058075, Note_off_c, 0, 67, 52
2, 1058154, Note_off_c, 0, 70, 55
2, 1058233, Note_on_c, 0, 58, 51
2, 1058234, Note_on_c, 0, 70, 63
2, 1058446, Note_off_c, 0, 58, 52
2, 1058449, Note_off_c, 0, 70, 55
2, 1058513, Note_on_c, 0, 80, 66
2, 1058515, Note_on_c, 0, 65, 53
2, 1058517, Note_on_c, 0, 70, 66
2, 1058657, Note_on_c, 0, 62, 54
2, 1058659, Note_on_c, 0, 77, 67
2, 1058730, Note_off_c, 0, 80, 56
2, 1058732, Note_off_c, 0, 65, 53
2, 1058748, Note_off_c, 0, 70, 56
2, 1058794, Note_on_c, 0, 79, 69
2, 1058797, Note_on_c, 0, 70, 69
2, 1058798, Note_on_c, 0, 63, 55
2, 1058856, Note_off_c, 0, 62, 53
2, 1058858, Note_off_c, 0, 77, 57
2, 1058927, Note_off_c, 0, 79, 57
2, 1058937, Note_off_c, 0, 63, 53
2, 1059016, Note_off_c, 0, 70, 57
2, 1059093, Note_on_c, 0, 70, 72
2, 1059095, Note_on_c, 0, 58, 57
2, 1059309, Note_off_c, 0, 58, 54
2, 1059312, Note_off_c, 0, 70, 58
2, 1059376, Note_on_c, 0, 77, 75
2, 1059378, Note_on_c, 0, 70, 66
2, 1059380, Note_on_c, 0, 68, 59
2, 1059519, Note_on_c, 0, 65, 60
2, 1059519, Note_on_c, 0, 74, 76
2, 1059550, Note_off_c, 0, 68, 54
2, 1059593, Note_off_c, 0, 77, 59
2, 1059660, Note_off_c, 0, 70, 56
2, 1059663, Note_on_c, 0, 67, 61
2, 1059664, Note_on_c, 0, 75, 78
2, 1059694, Note_off_c, 0, 65, 55
2, 1059734, Note_off_c, 0, 74, 59
2, 1059783, Note_off_c, 0, 67, 55
2, 1059796, Note_off_c, 0, 75, 59
2, 1059955, Note_on_c, 0, 75, 81
2, 1059957, Note_on_c, 0, 63, 69
2, 1060175, Note_off_c, 0, 75, 60
2, 1060177, Note_off_c, 0, 63, 57
2, 1060238, Note_on_c, 0, 84, 84
2, 1060240, Note_on_c, 0, 75, 75
2, 1060242, Note_on_c, 0, 68, 72
2, 1060381, Note_on_c, 0, 80, 84
2, 1060382, Note_on_c, 0, 65, 72
2, 1060431, Note_off_c, 0, 84, 61
2, 1060434, Note_off_c, 0, 68, 58
2, 1060447, Note_off_c, 0, 75, 59
2, 1060519, Note_on_c, 0, 82, 82
2, 1060521, Note_on_c, 0, 75, 72
2, 1060523, Note_on_c, 0, 67, 70
2, 1060558, Note_off_c, 0, 80, 61
2, 1060561, Note_off_c, 0, 65, 58
2, 1060626, Note_off_c, 0, 82, 60
2, 1060653, Note_off_c, 0, 67, 57
2, 1060738, Note_off_c, 0, 75, 58
2, 1060817, Note_on_c, 0, 75, 78
2, 1060819, Note_on_c, 0, 63, 66
2, 1061037, Note_off_c, 0, 75, 59
2, 1061065, Note_off_c, 0, 63, 56
2, 1061099, Note_on_c, 0, 80, 74
2, 1061101, Note_on_c, 0, 75, 66
2, 1061103, Note_on_c, 0, 72, 62
2, 1061240, Note_on_c, 0, 78, 72
2, 1061242, Note_on_c, 0, 69, 60
2, 1061282, Note_off_c, 0, 72, 55
2, 1061295, Note_off_c, 0, 80, 59
2, 1061311, Note_off_c, 0, 75, 56
2, 1061380, Note_on_c, 0, 79, 72
2, 1061382, Note_on_c, 0, 75, 65
2, 1061384, Note_on_c, 0, 70, 60
2, 1061408, Note_off_c, 0, 69, 55
2, 1061421, Note_off_c, 0, 78, 58
2, 1061526, Note_off_c, 0, 70, 55
2, 1061528, Note_off_c, 0, 79, 58
2, 1061601, Note_off_c, 0, 75, 56
2, 1061677, Note_on_c, 0, 75, 73
2, 1061679, Note_on_c, 0, 63, 61
2, 1061897, Note_off_c, 0, 75, 58
2, 1061925, Note_off_c, 0, 63, 55
2, 1061961, Note_on_c, 0, 84, 75
2, 1061963, Note_on_c, 0, 68, 63
2, 1061965, Note_on_c, 0, 75, 70
2, 1062103, Note_on_c, 0, 80, 76
2, 1062105, Note_on_c, 0, 65, 64
2, 1062143, Note_off_c, 0, 68, 55
2, 1062156, Note_off_c, 0, 84, 59
2, 1062161, Note_off_c, 0, 75, 57
2, 1062244, Note_on_c, 0, 82, 77
2, 1062245, Note_on_c, 0, 67, 65
2, 1062246, Note_on_c, 0, 75, 68
2, 1062284, Note_off_c, 0, 65, 56
2, 1062299, Note_off_c, 0, 80, 59
2, 1062371, Note_off_c, 0, 82, 59
2, 1062387, Note_off_c, 0, 67, 56
2, 1062462, Note_off_c, 0, 75, 57
2, 1062542, Note_on_c, 0, 75, 78
2, 1062543, Note_on_c, 0, 63, 66
2, 1062759, Note_off_c, 0, 75, 59
2, 1062821, Note_off_c, 0, 63, 56
2, 1062823, Note_on_c, 0, 80, 80
2, 1062825, Note_on_c, 0, 72, 68
2, 1062826, Note_on_c, 0, 75, 72
2, 1062965, Note_on_c, 0, 78, 81
2, 1062966, Note_on_c, 0, 69, 69
2, 1063007, Note_off_c, 0, 80, 60
2, 1063008, Note_off_c, 0, 72, 57
2, 1063052, Note_off_c, 0, 75, 58
2, 1063103, Note_on_c, 0, 79, 82
2, 1063104, Note_on_c, 0, 70, 70
2, 1063106, Note_on_c, 0, 75, 76
2, 1063133, Note_off_c, 0, 78, 60
2, 1063135, Note_off_c, 0, 69, 57
2, 1063240, Note_off_c, 0, 70, 57
2, 1063243, Note_off_c, 0, 79, 60
2, 1063324, Note_off_c, 0, 75, 59
2, 1063401, Note_on_c, 0, 75, 84
2, 1063402, Note_on_c, 0, 63, 72
2, 1063620, Note_off_c, 0, 75, 61
2, 1063621, Note_off_c, 0, 63, 58
2, 1063685, Note_on_c, 0, 67, 72
2, 1063686, Note_on_c, 0, 85, 84
2, 1063687, Note_on_c, 0, 75, 68
2, 1063689, Note_on_c, 0, 63, 72
2, 1063690, Note_on_c, 0, 55, 58
2, 1063741, Control_c, 0, 64, 105
2, 1063824, Note_on_c, 0, 82, 84
2, 1063861, Note_off_c, 0, 85, 61
2, 1063916, Note_off_c, 0, 82, 61
2, 1063966, Note_off_c, 0, 75, 57
2, 1063969, Note_on_c, 0, 68, 72
2, 1063971, Note_on_c, 0, 84, 84
2, 1063972, Note_on_c, 0, 56, 61
2, 1064026, Note_off_c, 0, 67, 58
2, 1064026, Note_off_c, 0, 55, 54
2, 1064101, Control_c, 0, 64, 0
2, 1064105, Note_off_c, 0, 84, 61
2, 1064108, Note_on_c, 0, 87, 83
2, 1064264, Note_off_c, 0, 68, 58
2, 1064266, Note_off_c, 0, 87, 60
2, 1064268, Note_off_c, 0, 56, 55
2, 1064268, Note_off_c, 0, 63, 58
2, 1064270, Note_on_c, 0, 86, 84
2, 1064404, Note_off_c, 0, 86, 61
2, 1064406, Note_on_c, 0, 84, 82
2, 1064559, Note_off_c, 0, 84, 60
2, 1064562, Note_on_c, 0, 82, 81
2, 1064563, Note_on_c, 0, 56, 76
2, 1064702, Note_off_c, 0, 82, 60
2, 1064703, Note_on_c, 0, 80, 80
2, 1064843, Note_off_c, 0, 80, 60
2, 1064845, Note_on_c, 0, 58, 63
2, 1064847, Note_on_c, 0, 79, 68
2, 1064902, Note_off_c, 0, 56, 59
2, 1064983, Note_off_c, 0, 79, 57
2, 1064985, Note_on_c, 0, 82, 79
2, 1065061, Note_off_c, 0, 58, 55
2, 1065141, Note_off_c, 0, 82, 60
2, 1065143, Note_on_c, 0, 87, 78
2, 1065282, Note_off_c, 0, 87, 59
2, 1065283, Note_on_c, 0, 79, 78
2, 1065436, Note_off_c, 0, 79, 59
2, 1065439, Note_on_c, 0, 86, 77
2, 1065440, Note_on_c, 0, 68, 68
2, 1065442, Control_c, 0, 64, 105
2, 1065443, Note_on_c, 0, 59, 56
2, 1065444, Note_on_c, 0, 65, 60
2, 1065580, Note_off_c, 0, 86, 59
2, 1065581, Note_on_c, 0, 77, 76
2, 1065663, Note_off_c, 0, 65, 55
2, 1065719, Note_off_c, 0, 77, 59
2, 1065724, Note_on_c, 0, 87, 76
2, 1065726, Note_on_c, 0, 67, 53
2, 1065727, Note_on_c, 0, 63, 48
2, 1065728, Note_on_c, 0, 60, 40
2, 1065780, Note_off_c, 0, 59, 54
2, 1065782, Note_off_c, 0, 68, 57
2, 1065861, Note_off_c, 0, 87, 59
2, 1065863, Note_on_c, 0, 75, 75
2, 1065915, Control_c, 0, 64, 0
2, 1065983, Note_off_c, 0, 63, 52
2, 1066019, Note_off_c, 0, 75, 59
2, 1066021, Note_off_c, 0, 67, 53
2, 1066022, Note_off_c, 0, 60, 50
2, 1066023, Note_on_c, 0, 74, 76
2, 1066160, Note_off_c, 0, 74, 59
2, 1066161, Note_on_c, 0, 72, 74
2, 1066314, Note_off_c, 0, 72, 59
2, 1066317, Note_on_c, 0, 70, 73
2, 1066318, Note_on_c, 0, 44, 72
2, 1066457, Note_off_c, 0, 70, 58
2, 1066458, Note_on_c, 0, 68, 72
2, 1066598, Note_off_c, 0, 68, 58
2, 1066600, Note_on_c, 0, 67, 72
2, 1066602, Note_on_c, 0, 46, 48
2, 1066685, Note_off_c, 0, 44, 58
2, 1066738, Note_off_c, 0, 67, 58
2, 1066740, Note_on_c, 0, 70, 74
2, 1066897, Note_off_c, 0, 46, 52
2, 1066898, Note_off_c, 0, 70, 59
2, 1066899, Note_on_c, 0, 75, 76
2, 1067037, Note_off_c, 0, 75, 59
2, 1067038, Note_on_c, 0, 67, 78
2, 1067190, Control_c, 0, 64, 105
2, 1067192, Note_off_c, 0, 67, 59
2, 1067195, Note_on_c, 0, 53, 58
2, 1067196, Note_on_c, 0, 74, 80
2, 1067197, Note_on_c, 0, 56, 68
2, 1067198, Note_on_c, 0, 47, 50
2, 1067334, Note_off_c, 0, 74, 60
2, 1067335, Note_on_c, 0, 65, 82
2, 1067401, Note_off_c, 0, 53, 54
2, 1067474, Note_off_c, 0, 65, 60
2, 1067477, Note_on_c, 0, 75, 84
2, 1067479, Note_on_c, 0, 55, 64
2, 1067481, Note_on_c, 0, 51, 58
2, 1067482, Note_on_c, 0, 48, 50
2, 1067522, Note_off_c, 0, 47, 52
2, 1067536, Note_off_c, 0, 56, 57
2, 1067615, Note_off_c, 0, 75, 61
2, 1067616, Note_on_c, 0, 63, 84
2, 1067666, Control_c, 0, 64, 0
2, 1067706, Note_off_c, 0, 51, 54
2, 1067772, Note_off_c, 0, 63, 61
2, 1067774, Note_off_c, 0, 55, 56
2, 1067776, Note_off_c, 0, 48, 52
2, 1067777, Note_on_c, 0, 62, 81
2, 1067915, Note_off_c, 0, 62, 60
2, 1067916, Note_on_c, 0, 60, 78
2, 1068069, Note_off_c, 0, 60, 59
2, 1068070, Note_on_c, 0, 58, 75
2, 1068072, Note_on_c, 0, 32, 83
2, 1068210, Note_off_c, 0, 58, 59
2, 1068212, Note_on_c, 0, 56, 71
2, 1068353, Note_off_c, 0, 56, 58
2, 1068355, Note_on_c, 0, 55, 68
2, 1068356, Note_on_c, 0, 34, 72
2, 1068427, Note_off_c, 0, 32, 60
2, 1068492, Note_off_c, 0, 55, 57
2, 1068494, Note_on_c, 0, 58, 65
2, 1068571, Note_off_c, 0, 34, 58
2, 1068648, Note_off_c, 0, 58, 56
2, 1068651, Note_on_c, 0, 63, 62
2, 1068653, Note_on_c, 0, 46, 68
2, 1068791, Note_off_c, 0, 63, 55
2, 1068792, Note_on_c, 0, 55, 58
2, 1068880, Note_off_c, 0, 46, 57
2, 1068931, Note_off_c, 0, 55, 54
2, 1068947, Note_on_c, 0, 62, 55
2, 1068948, Note_on_c, 0, 46, 64
2, 1069088, Note_off_c, 0, 62, 53
2, 1069090, Note_on_c, 0, 53, 52
2, 1069230, Note_off_c, 0, 46, 56
2, 1069231, Note_off_c, 0, 53, 53
2, 1069232, Note_on_c, 0, 63, 60
2, 1069234, Note_on_c, 0, 55, 45
2, 1069236, Note_on_c, 0, 39, 64
2, 1069325, Control_c, 0, 64, 105
2, 1069526, Note_off_c, 0, 63, 55
2, 1069528, Note_off_c, 0, 55, 51
2, 1069529, Note_on_c, 0, 51, 72
2, 1069745, Note_off_c, 0, 51, 58
2, 1069825, Note_on_c, 0, 51, 70
2, 1070124, Note_off_c, 0, 51, 57
2, 1070124, Note_on_c, 0, 67, 76
2, 1070125, Note_on_c, 0, 49, 54
2, 1070132, Note_on_c, 0, 63, 56
2, 1070133, Note_on_c, 0, 58, 61
2, 1070135, Note_on_c, 0, 55, 68
2, 1070148, Control_c, 0, 64, 0
2, 1070357, Control_c, 0, 64, 102
2, 1070420, Note_off_c, 0, 49, 53
2, 1070422, Note_on_c, 0, 51, 65
2, 1070638, Note_off_c, 0, 55, 57
2, 1070706, Note_off_c, 0, 63, 54
2, 1070718, Note_off_c, 0, 51, 56
2, 1070719, Note_on_c, 0, 46, 63
2, 1070729, Note_off_c, 0, 58, 55
2, 1070818, Note_off_c, 0, 67, 59
2, 1071031, Note_off_c, 0, 46, 55
2, 1071033, Note_on_c, 0, 68, 68
2, 1071034, Note_on_c, 0, 48, 55
2, 1071040, Note_on_c, 0, 63, 48
2, 1071041, Note_on_c, 0, 60, 54
2, 1071042, Note_on_c, 0, 56, 58
2, 1071048, Control_c, 0, 64, 0
2, 1071257, Control_c, 0, 64, 102
2, 1071344, Note_off_c, 0, 48, 53
2, 1071346, Note_on_c, 0, 51, 58
2, 1071557, Note_off_c, 0, 60, 53
2, 1071629, Note_off_c, 0, 56, 54
2, 1071656, Note_off_c, 0, 63, 52
2, 1071658, Note_off_c, 0, 51, 54
2, 1071659, Note_on_c, 0, 44, 56
2, 1071743, Note_off_c, 0, 68, 57
2, 1071985, Note_off_c, 0, 44, 54
2, 1071988, Note_on_c, 0, 70, 61
2, 1071989, Note_on_c, 0, 50, 53
2, 1071995, Note_on_c, 0, 62, 48
2, 1071997, Note_on_c, 0, 56, 42
2, 1072004, Control_c, 0, 64, 0
2, 1072213, Control_c, 0, 64, 102
2, 1072314, Note_off_c, 0, 50, 53
2, 1072316, Note_on_c, 0, 53, 51
2, 1072538, Note_off_c, 0, 56, 50
2, 1072597, Note_off_c, 0, 62, 52
2, 1072627, Note_off_c, 0, 53, 52
2, 1072630, Note_on_c, 0, 46, 48
2, 1072712, Note_off_c, 0, 70, 55
2, 1072878, Note_off_c, 0, 46, 52
2, 1072935, Control_c, 0, 64, 0
2, 1072957, Note_off_c, 0, 39, 56
2, 1072960, Note_on_c, 0, 63, 72
2, 1072960, Note_on_c, 0, 55, 68
2, 1072962, Note_on_c, 0, 51, 60
2, 1073146, Control_c, 0, 64, 102
2, 1073256, Note_off_c, 0, 63, 58
2, 1073256, Note_off_c, 0, 55, 57
2, 1073259, Note_on_c, 0, 75, 72
2, 1073490, Note_off_c, 0, 75, 58
2, 1073569, Note_on_c, 0, 75, 68
2, 1073772, Note_off_c, 0, 75, 57
2, 1073866, Note_on_c, 0, 73, 63
2, 1073868, Note_on_c, 0, 58, 48
2, 1073869, Note_on_c, 0, 55, 52
2, 1073881, Control_c, 0, 64, 0
2, 1074091, Control_c, 0, 64, 102
2, 1074181, Note_on_c, 0, 75, 58
2, 1074239, Note_off_c, 0, 73, 55
2, 1074492, Note_on_c, 0, 70, 53
2, 1074566, Note_off_c, 0, 75, 54
2, 1074688, Note_off_c, 0, 58, 52
2, 1074724, Note_off_c, 0, 55, 53
2, 1074825, Note_on_c, 0, 72, 48
2, 1074828, Note_on_c, 0, 60, 57
2, 1074829, Note_on_c, 0, 56, 50
2, 1074832, Control_c, 0, 64, 0
2, 1074863, Note_off_c, 0, 70, 53
2, 1075041, Control_c, 0, 64, 102
2, 1075150, Note_on_c, 0, 75, 48
2, 1075185, Note_off_c, 0, 72, 52
2, 1075480, Note_on_c, 0, 68, 55
2, 1075503, Note_off_c, 0, 75, 52
2, 1075610, Note_off_c, 0, 51, 55
2, 1075632, Note_off_c, 0, 56, 52
2, 1075636, Note_off_c, 0, 60, 54
2, 1075715, Note_off_c, 0, 68, 53
2, 1075810, Note_on_c, 0, 74, 62
2, 1075819, Note_on_c, 0, 65, 50
2, 1075821, Note_on_c, 0, 62, 42
2, 1075822, Note_on_c, 0, 58, 36
2, 1075823, Note_on_c, 0, 56, 30
2, 1075824, Note_on_c, 0, 53, 48
2, 1075826, Note_on_c, 0, 51, 54
2, 1075827, Note_on_c, 0, 68, 42
2, 1075833, Control_c, 0, 64, 0
2, 1076043, Control_c, 0, 64, 102
2, 1076108, Note_on_c, 0, 77, 69
2, 1076157, Note_off_c, 0, 74, 55
2, 1076421, Note_on_c, 0, 70, 76
2, 1076476, Note_off_c, 0, 77, 57
2, 1076494, Note_off_c, 0, 51, 53
2, 1076520, Note_off_c, 0, 56, 47
2, 1076527, Note_off_c, 0, 62, 50
2, 1076532, Note_off_c, 0, 68, 50
2, 1076541, Note_off_c, 0, 65, 52
2, 1076562, Note_off_c, 0, 58, 49
2, 1076581, Note_off_c, 0, 53, 52
2, 1076653, Note_off_c, 0, 70, 59
2, 1076733, Note_on_c, 0, 75, 84
2, 1076736, Note_on_c, 0, 63, 51
2, 1076738, Note_on_c, 0, 58, 51
2, 1076738, Note_on_c, 0, 55, 51
2, 1076741, Note_on_c, 0, 51, 51
2, 1076779, Control_c, 0, 64, 0
2, 1076872, Note_off_c, 0, 75, 61
2, 1076875, Note_off_c, 0, 63, 52
2, 1076878, Note_off_c, 0, 55, 52
2, 1076878, Note_off_c, 0, 58, 52
2, 1076880, Note_off_c, 0, 51, 52
2, 1076881, Note_on_c, 0, 70, 84
2, 1076988, Control_c, 0, 64, 102
2, 1077031, Note_off_c, 0, 70, 61
2, 1077033, Note_on_c, 0, 67, 78
2, 1077187, Note_off_c, 0, 67, 59
2, 1077188, Note_on_c, 0, 63, 72
2, 1077343, Note_off_c, 0, 63, 58
2, 1077345, Note_on_c, 0, 58, 66
2, 1077516, Note_off_c, 0, 58, 56
2, 1077519, Note_on_c, 0, 55, 60
2, 1077688, Note_off_c, 0, 55, 55
2, 1077690, Note_on_c, 0, 51, 48
2, 1077691, Note_on_c, 0, 39, 48
2, 1077713, Control_c, 0, 64, 0
2, 1077920, Control_c, 0, 64, 102
2, 1078033, Note_off_c, 0, 51, 52
2, 1078034, Note_off_c, 0, 39, 52
2, 1078416, Control_c, 0, 64, 0
2, 1078737, Note_on_c, 0, 58, 37
2, 1079335, Note_off_c, 0, 58, 49
2, 1079336, Note_on_c, 0, 55, 31
2, 1079614, Note_off_c, 0, 55, 47
2, 1079617, Note_on_c, 0, 52, 34
2, 1079619, Note_on_c, 0, 70, 49
2, 1079913, Note_off_c, 0, 52, 48
2, 1079915, Note_on_c, 0, 55, 37
2, 1080226, Note_off_c, 0, 70, 52
2, 1080228, Note_off_c, 0, 55, 49
2, 1080228, Note_on_c, 0, 67, 32
2, 1080229, Note_on_c, 0, 58, 41
2, 1080446, Note_off_c, 0, 58, 50
2, 1080523, Note_off_c, 0, 67, 48
2, 1080525, Note_on_c, 0, 64, 36
2, 1080527, Note_on_c, 0, 61, 44
2, 1080822, Note_off_c, 0, 64, 49
2, 1080823, Note_on_c, 0, 67, 40
2, 1081136, Note_off_c, 0, 61, 51
2, 1081137, Note_off_c, 0, 67, 50
2, 1081139, Note_on_c, 0, 70, 44
2, 1081140, Note_on_c, 0, 58, 50
2, 1081449, Note_off_c, 0, 70, 51
2, 1081450, Note_off_c, 0, 58, 52
2, 1081452, Note_on_c, 0, 73, 48
2, 1081453, Note_on_c, 0, 55, 54
2, 1081730, Note_off_c, 0, 55, 53
2, 1081731, Note_on_c, 0, 58, 57
2, 1082028, Note_off_c, 0, 73, 52
2, 1082029, Note_off_c, 0, 58, 54
2, 1082030, Note_on_c, 0, 70, 56
2, 1082032, Note_on_c, 0, 61, 60
2, 1082263, Note_off_c, 0, 61, 55
2, 1082342, Note_off_c, 0, 70, 54
2, 1082343, Note_on_c, 0, 67, 60
2, 1082345, Note_on_c, 0, 64, 63
2, 1082623, Note_off_c, 0, 67, 55
2, 1082625, Note_on_c, 0, 70, 64
2, 1082921, Note_off_c, 0, 64, 55
2, 1082922, Note_off_c, 0, 70, 56
2, 1082923, Note_on_c, 0, 61, 62
2, 1082925, Note_on_c, 0, 73, 68
2, 1083234, Note_off_c, 0, 61, 55
2, 1083236, Note_off_c, 0, 73, 57
2, 1083237, Note_on_c, 0, 58, 65
2, 1083238, Note_on_c, 0, 76, 72
2, 1083516, Note_off_c, 0, 58, 56
2, 1083518, Note_on_c, 0, 61, 68
2, 1083829, Note_off_c, 0, 76, 58
2, 1083832, Note_off_c, 0, 61, 57
2, 1083832, Note_on_c, 0, 64, 71
2, 1083833, Note_on_c, 0, 73, 79
2, 1084048, Note_off_c, 0, 73, 60
2, 1084051, Note_off_c, 0, 64, 58
2, 1084127, Note_on_c, 0, 70, 56
2, 1084128, Note_on_c, 0, 67, 49
2, 1084133, Control_c, 0, 64, 98
2, 1084426, Note_on_c, 0, 73, 78
2, 1084722, Note_off_c, 0, 73, 59
2, 1084724, Note_on_c, 0, 76, 72
2, 1085036, Note_off_c, 0, 76, 58
2, 1085037, Note_on_c, 0, 79, 66
2, 1085047, Control_c, 0, 64, 0
2, 1085252, Control_c, 0, 64, 93
2, 1085332, Note_off_c, 0, 79, 56
2, 1085334, Note_on_c, 0, 77, 60
2, 1085447, Note_off_c, 0, 67, 52
2, 1085631, Note_off_c, 0, 77, 55
2, 1085632, Note_on_c, 0, 76, 54
2, 1085714, Note_off_c, 0, 70, 54
2, 1085867, Note_off_c, 0, 76, 53
2, 1085947, Note_on_c, 0, 76, 60
2, 1085947, Note_on_c, 0, 72, 42
2, 1085949, Note_on_c, 0, 68, 34
2, 1085955, Control_c, 0, 64, 0
2, 1086163, Control_c, 0, 64, 93
2, 1086243, Note_off_c, 0, 76, 55
2, 1086244, Note_on_c, 0, 77, 48
2, 1086557, Note_off_c, 0, 77, 52
2, 1086558, Note_on_c, 0, 79, 60
2, 1086602, Note_off_c, 0, 79, 55
2, 1086605, Note_on_c, 0, 77, 62
2, 1086650, Note_off_c, 0, 77, 55
2, 1086651, Note_on_c, 0, 79, 64
2, 1086695, Note_off_c, 0, 79, 56
2, 1086697, Note_on_c, 0, 77, 66
2, 1086743, Note_off_c, 0, 77, 56
2, 1086746, Note_on_c, 0, 76, 68
2, 1086791, Note_off_c, 0, 76, 57
2, 1086792, Note_on_c, 0, 77, 70
2, 1086852, Note_off_c, 0, 77, 57
2, 1086854, Note_on_c, 0, 80, 86
2, 1086908, Control_c, 0, 64, 0
2, 1087113, Control_c, 0, 64, 93
2, 1087135, Note_off_c, 0, 80, 61
2, 1087136, Note_on_c, 0, 79, 72
2, 1087449, Note_off_c, 0, 79, 58
2, 1087451, Note_on_c, 0, 77, 70
2, 1087452, Note_off_c, 0, 72, 50
2, 1087542, Note_off_c, 0, 68, 48
2, 1087684, Note_off_c, 0, 77, 57
2, 1087764, Note_on_c, 0, 73, 47
2, 1087765, Note_on_c, 0, 70, 42
2, 1087767, Note_on_c, 0, 67, 34
2, 1087839, Control_c, 0, 64, 0
2, 1088043, Note_on_c, 0, 76, 65
2, 1088045, Control_c, 0, 64, 93
2, 1088225, Note_off_c, 0, 76, 56
2, 1088338, Note_on_c, 0, 76, 63
2, 1088505, Note_off_c, 0, 76, 55
2, 1088613, Note_on_c, 0, 76, 60
2, 1088662, Note_off_c, 0, 76, 55
2, 1088670, Note_on_c, 0, 79, 80
2, 1088708, Control_c, 0, 64, 0
2, 1088913, Control_c, 0, 64, 93
2, 1088970, Note_off_c, 0, 79, 60
2, 1088971, Note_on_c, 0, 77, 60
2, 1089164, Note_off_c, 0, 70, 50
2, 1089258, Note_off_c, 0, 73, 51
2, 1089265, Note_off_c, 0, 77, 55
2, 1089267, Note_on_c, 0, 76, 57
2, 1089363, Note_off_c, 0, 67, 48
2, 1089500, Note_off_c, 0, 76, 54
2, 1089580, Note_on_c, 0, 72, 41
2, 1089582, Note_on_c, 0, 68, 33
2, 1089608, Control_c, 0, 64, 0
2, 1089818, Control_c, 0, 64, 90
2, 1089863, Note_on_c, 0, 77, 51
2, 1090052, Note_off_c, 0, 77, 52
2, 1090164, Note_on_c, 0, 77, 48
2, 1090318, Note_off_c, 0, 77, 52
2, 1090431, Note_on_c, 0, 77, 60
2, 1090444, Control_c, 0, 64, 0
2, 1090477, Note_off_c, 0, 77, 55
2, 1090490, Note_on_c, 0, 80, 60
2, 1090650, Control_c, 0, 64, 93
2, 1090785, Note_off_c, 0, 80, 55
2, 1090786, Note_on_c, 0, 79, 60
2, 1091048, Note_off_c, 0, 72, 50
2, 1091084, Note_off_c, 0, 79, 55
2, 1091085, Note_on_c, 0, 77, 58
2, 1091103, Note_off_c, 0, 68, 48
2, 1091304, Note_off_c, 0, 77, 54
2, 1091380, Note_on_c, 0, 75, 56
2, 1091382, Note_on_c, 0, 68, 43
2, 1091383, Note_on_c, 0, 65, 36
2, 1091390, Control_c, 0, 64, 0
2, 1091609, Control_c, 0, 64, 96
2, 1091679, Note_off_c, 0, 75, 54
2, 1091680, Note_on_c, 0, 74, 54
2, 1091912, Note_off_c, 0, 74, 53
2, 1091992, Note_on_c, 0, 74, 52
2, 1092147, Note_off_c, 0, 74, 53
2, 1092223, Note_on_c, 0, 74, 50
2, 1092287, Note_off_c, 0, 74, 52
2, 1092305, Note_on_c, 0, 77, 50
2, 1092323, Control_c, 0, 64, 0
2, 1092528, Control_c, 0, 64, 93
2, 1092617, Note_off_c, 0, 77, 52
2, 1092618, Note_on_c, 0, 75, 47
2, 1092919, Note_off_c, 0, 68, 50
2, 1092930, Note_off_c, 0, 75, 51
2, 1092932, Note_on_c, 0, 74, 45
2, 1093031, Note_off_c, 0, 65, 49
2, 1093260, Note_off_c, 0, 74, 51
2, 1093265, Control_c, 0, 64, 0
2, 1093266, Note_on_c, 0, 72, 43
2, 1093267, Note_on_c, 0, 65, 36
2, 1093268, Note_on_c, 0, 62, 30
2, 1093505, Control_c, 0, 64, 96
2, 1093618, Note_off_c, 0, 72, 50
2, 1093621, Note_on_c, 0, 70, 41
2, 1094037, Note_off_c, 0, 70, 50
2, 1094040, Note_on_c, 0, 69, 39
2, 1094208, Control_c, 0, 64, 0
2, 1094499, Control_c, 0, 64, 93
2, 1094512, Note_off_c, 0, 69, 49
2, 1094514, Note_on_c, 0, 70, 36
2, 1095063, Note_off_c, 0, 70, 49
2, 1095065, Note_on_c, 0, 72, 38
2, 1095440, Note_off_c, 0, 62, 47
2, 1095482, Note_off_c, 0, 65, 49
2, 1095718, Note_off_c, 0, 72, 49
2, 1095719, Note_on_c, 0, 68, 42
2, 1095775, Control_c, 0, 64, 0
2, 1096282, Note_off_c, 0, 68, 50
2, 1096439, Note_on_c, 0, 70, 55
2, 1096461, Note_on_c, 0, 67, 35
2, 1096462, Note_on_c, 0, 58, 30
2, 1096466, Control_c, 0, 64, 127
2, 1096469, Note_on_c, 0, 63, 42
2, 1096737, Note_on_c, 0, 51, 45
2, 1096898, Note_off_c, 0, 67, 48
2, 1097029, Note_off_c, 0, 70, 53
2, 1097041, Note_off_c, 0, 51, 51
2, 1097042, Note_on_c, 0, 67, 50
2, 1097045, Note_on_c, 0, 55, 48
2, 1097116, Note_off_c, 0, 58, 47
2, 1097129, Note_off_c, 0, 63, 50
2, 1097367, Note_off_c, 0, 67, 52
2, 1097370, Note_off_c, 0, 55, 52
2, 1097372, Note_on_c, 0, 63, 52
2, 1097395, Note_on_c, 0, 58, 40
2, 1097638, Note_on_c, 0, 67, 57
2, 1097654, Note_off_c, 0, 63, 53
2, 1097656, Note_on_c, 0, 55, 54
2, 1097954, Note_off_c, 0, 55, 53
2, 1097956, Note_on_c, 0, 70, 62
2, 1097958, Note_on_c, 0, 51, 57
2, 1097964, Control_c, 0, 64, 0
2, 1098181, Control_c, 0, 64, 127
2, 1098196, Note_off_c, 0, 70, 55
2, 1098198, Note_off_c, 0, 51, 54
2, 1098277, Note_on_c, 0, 75, 67
2, 1098299, Note_on_c, 0, 46, 60
2, 1098606, Note_off_c, 0, 75, 57
2, 1098607, Note_on_c, 0, 79, 75
2, 1098935, Note_off_c, 0, 67, 54
2, 1098954, Note_off_c, 0, 79, 59
2, 1098957, Note_on_c, 0, 77, 72
2, 1098959, Note_on_c, 0, 65, 60
2, 1098973, Note_off_c, 0, 46, 55
2, 1098978, Note_on_c, 0, 44, 48
2, 1099047, Control_c, 0, 64, 0
2, 1099116, Note_off_c, 0, 77, 58
2, 1099119, Note_on_c, 0, 74, 66
2, 1099230, Note_off_c, 0, 74, 56
2, 1099261, Note_off_c, 0, 65, 55
2, 1099263, Note_on_c, 0, 75, 60
2, 1099264, Note_on_c, 0, 67, 60
2, 1099281, Note_off_c, 0, 44, 52
2, 1099284, Note_on_c, 0, 43, 48
2, 1099423, Note_off_c, 0, 75, 55
2, 1099424, Note_on_c, 0, 79, 54
2, 1099503, Note_off_c, 0, 58, 50
2, 1099504, Note_off_c, 0, 43, 52
2, 1099563, Note_off_c, 0, 67, 55
2, 1099564, Note_off_c, 0, 79, 53
2, 1099566, Note_on_c, 0, 70, 48
2, 1099892, Note_off_c, 0, 70, 52
2, 1100196, Control_c, 0, 64, 98
2, 1100210, Note_on_c, 0, 72, 60
2, 1100220, Note_on_c, 0, 63, 42
2, 1100222, Note_on_c, 0, 56, 45
2, 1100354, Note_on_c, 0, 75, 60
2, 1100374, Note_off_c, 0, 72, 55
2, 1100513, Note_on_c, 0, 70, 59
2, 1100520, Note_on_c, 0, 55, 40
2, 1100532, Note_off_c, 0, 75, 55
2, 1100540, Note_off_c, 0, 56, 51
2, 1100579, Control_c, 0, 64, 0
2, 1100655, Note_off_c, 0, 70, 54
2, 1100674, Note_off_c, 0, 55, 50
2, 1100856, Note_off_c, 0, 63, 50
2, 1101117, Note_on_c, 0, 68, 52
2, 1101129, Note_on_c, 0, 65, 45
2, 1101130, Note_on_c, 0, 58, 40
2, 1101132, Note_on_c, 0, 50, 36
2, 1101138, Control_c, 0, 64, 99
2, 1101276, Note_on_c, 0, 70, 50
2, 1101321, Note_off_c, 0, 68, 53
2, 1101420, Note_on_c, 0, 67, 48
2, 1101431, Note_on_c, 0, 51, 34
2, 1101432, Note_on_c, 0, 63, 38
2, 1101461, Note_off_c, 0, 70, 52
2, 1101471, Note_off_c, 0, 65, 51
2, 1101474, Note_off_c, 0, 50, 49
2, 1101486, Control_c, 0, 64, 0
2, 1101556, Note_off_c, 0, 67, 52
2, 1101569, Note_off_c, 0, 63, 49
2, 1101585, Note_off_c, 0, 51, 48
2, 1101785, Note_off_c, 0, 58, 50
2, 1102036, Note_on_c, 0, 65, 52
2, 1102053, Note_on_c, 0, 62, 38
2, 1102055, Note_on_c, 0, 58, 42
2, 1102056, Note_on_c, 0, 46, 30
2, 1102060, Control_c, 0, 64, 96
2, 1102278, Note_off_c, 0, 65, 53
2, 1102320, Note_off_c, 0, 46, 47
2, 1102333, Note_on_c, 0, 68, 63
2, 1102336, Note_on_c, 0, 50, 28
2, 1102337, Note_on_c, 0, 65, 43
2, 1102378, Note_off_c, 0, 62, 49
2, 1102389, Control_c, 0, 64, 0
2, 1102470, Note_off_c, 0, 68, 55
2, 1102481, Note_off_c, 0, 50, 47
2, 1102498, Note_off_c, 0, 65, 50
2, 1102572, Note_off_c, 0, 58, 50
2, 1102648, Note_on_c, 0, 67, 50
2, 1102649, Note_on_c, 0, 63, 30
2, 1102651, Note_on_c, 0, 51, 26
2, 1102652, Note_on_c, 0, 58, 40
2, 1102821, Note_off_c, 0, 67, 52
2, 1102822, Note_off_c, 0, 58, 50
2, 1102824, Note_off_c, 0, 51, 46
2, 1102824, Note_off_c, 0, 63, 47
2, 1102978, Note_on_c, 0, 62, 36
2, 1102980, Note_on_c, 0, 65, 48
2, 1102981, Note_on_c, 0, 46, 24
2, 1102982, Note_on_c, 0, 58, 30
2, 1103134, Note_off_c, 0, 65, 52
2, 1103135, Note_off_c, 0, 58, 47
2, 1103137, Note_off_c, 0, 62, 49
2, 1103138, Note_off_c, 0, 46, 46
2, 1103890, Note_on_c, 0, 70, 55
2, 1103917, Control_c, 0, 64, 127
2, 1103918, Note_on_c, 0, 66, 35
2, 1103920, Note_on_c, 0, 63, 40
2, 1103921, Note_on_c, 0, 58, 30
2, 1104198, Note_on_c, 0, 51, 45
2, 1104277, Note_off_c, 0, 66, 48
2, 1104478, Note_on_c, 0, 66, 48
2, 1104497, Note_off_c, 0, 70, 53
2, 1104499, Note_off_c, 0, 51, 51
2, 1104500, Note_on_c, 0, 54, 43
2, 1104578, Note_off_c, 0, 58, 47
2, 1104581, Note_off_c, 0, 63, 50
2, 1104790, Note_off_c, 0, 66, 52
2, 1104814, Note_off_c, 0, 54, 50
2, 1104815, Note_on_c, 0, 63, 42
2, 1104833, Note_on_c, 0, 58, 51
2, 1105106, Note_off_c, 0, 63, 50
2, 1105107, Note_on_c, 0, 66, 52
2, 1105110, Note_on_c, 0, 54, 54
2, 1105119, Control_c, 0, 64, 0
2, 1105339, Control_c, 0, 64, 127
2, 1105391, Note_off_c, 0, 54, 53
2, 1105393, Note_on_c, 0, 70, 55
2, 1105394, Note_on_c, 0, 51, 57
2, 1105702, Note_off_c, 0, 51, 54
2, 1105704, Note_on_c, 0, 75, 62
2, 1105724, Note_on_c, 0, 46, 55
2, 1106030, Note_off_c, 0, 75, 55
2, 1106032, Note_on_c, 0, 78, 60
2, 1106361, Note_off_c, 0, 70, 53
2, 1106362, Note_off_c, 0, 78, 55
2, 1106364, Note_off_c, 0, 66, 53
2, 1106365, Note_on_c, 0, 77, 60
2, 1106367, Note_on_c, 0, 68, 40
2, 1106368, Note_on_c, 0, 65, 32
2, 1106457, Note_off_c, 0, 58, 52
2, 1106459, Note_off_c, 0, 46, 53
2, 1106486, Control_c, 0, 64, 0
2, 1106518, Note_off_c, 0, 77, 55
2, 1106519, Note_on_c, 0, 74, 54
2, 1106628, Note_off_c, 0, 74, 53
2, 1106675, Note_off_c, 0, 68, 50
2, 1106677, Note_off_c, 0, 65, 48
2, 1106679, Note_on_c, 0, 75, 50
2, 1106680, Note_on_c, 0, 66, 28
2, 1106681, Note_on_c, 0, 63, 36
2, 1106682, Note_on_c, 0, 59, 20
2, 1106683, Note_on_c, 0, 47, 30
2, 1107003, Note_off_c, 0, 75, 52
2, 1107005, Note_off_c, 0, 66, 47
2, 1107006, Note_off_c, 0, 59, 45
2, 1107007, Note_off_c, 0, 63, 49
2, 1107008, Note_off_c, 0, 47, 47
2, 1108310, Note_on_c, 0, 76, 42
2, 1108319, Note_on_c, 0, 66, 36
2, 1108321, Note_on_c, 0, 58, 30
2, 1108322, Note_on_c, 0, 54, 26
2, 1108323, Note_on_c, 0, 46, 24
2, 1108452, Note_on_c, 0, 73, 36
2, 1108486, Note_off_c, 0, 76, 50
2, 1108579, Note_on_c, 0, 75, 38
2, 1108589, Note_on_c, 0, 47, 24
2, 1108591, Note_on_c, 0, 59, 30
2, 1108613, Note_off_c, 0, 73, 49
2, 1108623, Note_off_c, 0, 46, 46
2, 1108626, Note_off_c, 0, 58, 47
2, 1108711, Note_off_c, 0, 75, 49
2, 1108720, Note_off_c, 0, 59, 47
2, 1108743, Note_off_c, 0, 47, 46
2, 1108843, Note_off_c, 0, 66, 49
2, 1108845, Note_off_c, 0, 54, 46
2, 1109172, Note_on_c, 0, 76, 46
2, 1109181, Note_on_c, 0, 66, 30
2, 1109183, Note_on_c, 0, 58, 36
2, 1109184, Note_on_c, 0, 54, 27
2, 1109186, Note_on_c, 0, 46, 24
2, 1109311, Note_on_c, 0, 73, 48
2, 1109349, Note_off_c, 0, 76, 51
2, 1109442, Note_on_c, 0, 75, 48
2, 1109450, Note_on_c, 0, 47, 24
2, 1109452, Note_on_c, 0, 59, 36
2, 1109476, Note_off_c, 0, 73, 52
2, 1109488, Note_off_c, 0, 46, 46
2, 1109490, Note_off_c, 0, 58, 49
2, 1109570, Note_off_c, 0, 75, 52
2, 1109573, Note_off_c, 0, 47, 46
2, 1109601, Note_off_c, 0, 59, 49
2, 1109707, Note_off_c, 0, 66, 47
2, 1109709, Note_off_c, 0, 54, 46
2, 1110034, Note_on_c, 0, 76, 42
2, 1110043, Note_on_c, 0, 58, 24
2, 1110044, Note_on_c, 0, 66, 30
2, 1110046, Note_on_c, 0, 54, 25
2, 1110047, Note_on_c, 0, 46, 20
2, 1110173, Note_off_c, 0, 76, 50
2, 1110175, Note_on_c, 0, 73, 36
2, 1110300, Note_off_c, 0, 73, 49
2, 1110303, Note_on_c, 0, 75, 36
2, 1110308, Note_off_c, 0, 58, 46
2, 1110311, Note_off_c, 0, 46, 45
2, 1110312, Note_off_c, 0, 54, 46
2, 1110313, Note_on_c, 0, 47, 24
2, 1110315, Note_on_c, 0, 59, 30
2, 1110462, Note_off_c, 0, 66, 47
2, 1110518, Note_off_c, 0, 75, 49
2, 1110588, Note_on_c, 0, 78, 52
2, 1110606, Note_on_c, 0, 66, 36
2, 1110617, Control_c, 0, 64, 96
2, 1110903, Note_off_c, 0, 47, 46
2, 1110905, Note_on_c, 0, 51, 40
2, 1111201, Note_off_c, 0, 66, 49
2, 1111204, Note_off_c, 0, 51, 50
2, 1111205, Note_on_c, 0, 68, 54
2, 1111207, Note_on_c, 0, 53, 43
2, 1111233, Control_c, 0, 64, 0
2, 1111453, Control_c, 0, 64, 106
2, 1111467, Note_off_c, 0, 78, 53
2, 1111484, Note_on_c, 0, 76, 60
2, 1111764, Note_off_c, 0, 59, 47
2, 1111766, Note_on_c, 0, 61, 64
2, 1112064, Note_off_c, 0, 53, 50
2, 1112065, Note_off_c, 0, 68, 53
2, 1112067, Note_on_c, 0, 70, 50
2, 1112069, Note_on_c, 0, 54, 57
2, 1112082, Control_c, 0, 64, 0
2, 1112306, Control_c, 0, 64, 118
2, 1112343, Note_off_c, 0, 76, 55
2, 1112346, Note_off_c, 0, 70, 52
2, 1112348, Note_on_c, 0, 75, 72
2, 1112349, Note_on_c, 0, 71, 42
2, 1112626, Note_off_c, 0, 61, 56
2, 1112627, Note_on_c, 0, 63, 66
2, 1112783, Note_off_c, 0, 75, 58
2, 1112917, Note_on_c, 0, 73, 56
2, 1112925, Note_off_c, 0, 63, 56
2, 1112927, Note_on_c, 0, 64, 60
2, 1112946, Control_c, 0, 64, 0
2, 1113158, Control_c, 0, 64, 99
2, 1113180, Note_off_c, 0, 71, 50
2, 1113205, Note_off_c, 0, 64, 55
2, 1113208, Note_on_c, 0, 70, 48
2, 1113209, Note_on_c, 0, 66, 54
2, 1113489, Note_off_c, 0, 66, 53
2, 1113489, Note_on_c, 0, 64, 48
2, 1113776, Note_off_c, 0, 73, 54
2, 1113788, Note_off_c, 0, 64, 52
2, 1113790, Note_off_c, 0, 70, 52
2, 1113791, Note_off_c, 0, 54, 54
2, 1113792, Note_on_c, 0, 75, 54
2, 1113793, Note_on_c, 0, 71, 36
2, 1113794, Note_on_c, 0, 63, 30
2, 1113795, Note_on_c, 0, 59, 40
2, 1113797, Control_c, 0, 64, 0
2, 1114003, Control_c, 0, 64, 98
2, 1114061, Note_on_c, 0, 78, 60
2, 1114068, Note_off_c, 0, 75, 53
2, 1114069, Note_off_c, 0, 71, 49
2, 1114070, Note_off_c, 0, 63, 47
2, 1114072, Note_on_c, 0, 66, 36
2, 1114367, Note_on_c, 0, 51, 48
2, 1114663, Note_off_c, 0, 66, 49
2, 1114666, Note_off_c, 0, 51, 52
2, 1114668, Note_on_c, 0, 68, 52
2, 1114669, Note_on_c, 0, 52, 50
2, 1114688, Control_c, 0, 64, 0
2, 1114893, Control_c, 0, 64, 119
2, 1114920, Note_off_c, 0, 78, 55
2, 1114930, Note_on_c, 0, 76, 57
2, 1115227, Note_off_c, 0, 59, 50
2, 1115230, Note_on_c, 0, 61, 55
2, 1115510, Note_off_c, 0, 52, 52
2, 1115511, Note_off_c, 0, 68, 53
2, 1115513, Note_on_c, 0, 70, 57
2, 1115514, Note_on_c, 0, 55, 60
2, 1115790, Note_off_c, 0, 76, 54
2, 1115791, Note_off_c, 0, 70, 54
2, 1115793, Note_on_c, 0, 75, 72
2, 1115796, Note_on_c, 0, 71, 42
2, 1115798, Control_c, 0, 64, 0
2, 1116004, Control_c, 0, 64, 127
2, 1116088, Note_off_c, 0, 61, 53
2, 1116091, Note_on_c, 0, 63, 60
2, 1116199, Note_off_c, 0, 55, 55
2, 1116373, Note_off_c, 0, 71, 50
2, 1116388, Note_on_c, 0, 70, 48
2, 1116390, Note_on_c, 0, 55, 54
2, 1116668, Note_off_c, 0, 75, 58
2, 1116670, Note_on_c, 0, 73, 69
2, 1116704, Control_c, 0, 64, 0
2, 1116810, Note_off_c, 0, 63, 55
2, 1116909, Control_c, 0, 64, 100
2, 1116951, Note_on_c, 0, 63, 56
2, 1117030, Note_off_c, 0, 55, 53
2, 1117250, Note_off_c, 0, 70, 52
2, 1117252, Note_on_c, 0, 56, 53
2, 1117514, Note_off_c, 0, 73, 57
2, 1117516, Note_on_c, 0, 71, 58
2, 1117526, Control_c, 0, 64, 0
2, 1117671, Note_off_c, 0, 63, 54
2, 1117738, Control_c, 0, 64, 127
2, 1117813, Note_on_c, 0, 63, 48
2, 1117890, Note_off_c, 0, 56, 53
2, 1118126, Note_on_c, 0, 58, 46
2, 1118424, Note_off_c, 0, 71, 54
2, 1118426, Note_on_c, 0, 70, 47
2, 1118435, Control_c, 0, 64, 0
2, 1118582, Note_off_c, 0, 63, 52
2, 1118640, Control_c, 0, 64, 99
2, 1118737, Note_on_c, 0, 63, 41
2, 1118815, Note_off_c, 0, 58, 51
2, 1119049, Note_on_c, 0, 60, 39
2, 1119379, Note_off_c, 0, 70, 51
2, 1119379, Note_on_c, 0, 69, 36
2, 1119392, Control_c, 0, 64, 0
2, 1119535, Note_off_c, 0, 63, 50
2, 1119605, Control_c, 0, 64, 0
2, 1119708, Note_off_c, 0, 69, 49
2, 1119710, Note_on_c, 0, 63, 36
2, 1119785, Note_off_c, 0, 60, 49
2, 1120037, Note_off_c, 0, 63, 49
2, 1120210, Control_c, 0, 64, 0
2, 1121024, Note_on_c, 0, 58, 36
2, 1121321, Note_off_c, 0, 58, 49
2, 1121322, Note_on_c, 0, 70, 26
2, 1121540, Note_off_c, 0, 70, 46
2, 1121619, Note_on_c, 0, 70, 29
2, 1121838, Note_off_c, 0, 70, 47
2, 1121902, Note_on_c, 0, 70, 32
2, 1122122, Note_off_c, 0, 70, 48
2, 1122198, Note_on_c, 0, 70, 35
2, 1122418, Note_off_c, 0, 70, 48
2, 1122495, Note_on_c, 0, 70, 38
2, 1122497, Note_on_c, 0, 80, 48
2, 1122499, Note_on_c, 0, 65, 40
2, 1122637, Note_off_c, 0, 65, 50
2, 1122639, Note_on_c, 0, 62, 41
2, 1122640, Note_on_c, 0, 77, 49
2, 1122652, Note_off_c, 0, 80, 52
2, 1122701, Note_off_c, 0, 70, 49
2, 1122765, Note_on_c, 0, 79, 51
2, 1122766, Note_on_c, 0, 70, 41
2, 1122768, Note_on_c, 0, 63, 42
2, 1122779, Note_off_c, 0, 77, 52
2, 1122790, Note_off_c, 0, 62, 50
2, 1122914, Note_off_c, 0, 63, 50
2, 1122915, Note_off_c, 0, 79, 52
2, 1122985, Note_off_c, 0, 70, 50
2, 1123061, Note_on_c, 0, 70, 44
2, 1123062, Note_on_c, 0, 58, 44
2, 1123280, Note_off_c, 0, 70, 51
2, 1123357, Note_off_c, 0, 58, 51
2, 1123359, Note_on_c, 0, 77, 57
2, 1123361, Note_on_c, 0, 70, 47
2, 1123363, Note_on_c, 0, 68, 46
2, 1123500, Note_on_c, 0, 74, 58
2, 1123502, Note_on_c, 0, 65, 48
2, 1123532, Note_off_c, 0, 77, 54
2, 1123535, Note_off_c, 0, 68, 51
2, 1123561, Note_off_c, 0, 70, 51
2, 1123626, Note_on_c, 0, 70, 50
2, 1123628, Note_on_c, 0, 75, 60
2, 1123630, Note_on_c, 0, 67, 49
2, 1123641, Note_off_c, 0, 65, 52
2, 1123651, Note_off_c, 0, 74, 54
2, 1123760, Note_off_c, 0, 75, 55
2, 1123798, Note_off_c, 0, 67, 52
2, 1123843, Note_off_c, 0, 70, 52
2, 1123923, Note_on_c, 0, 70, 53
2, 1123925, Note_on_c, 0, 58, 51
2, 1124143, Note_off_c, 0, 70, 53
2, 1124219, Note_off_c, 0, 58, 52
2, 1124221, Note_on_c, 0, 70, 56
2, 1124223, Note_on_c, 0, 80, 66
2, 1124225, Note_on_c, 0, 65, 53
2, 1124364, Note_on_c, 0, 62, 54
2, 1124365, Note_on_c, 0, 77, 67
2, 1124398, Note_off_c, 0, 65, 53
2, 1124419, Note_off_c, 0, 80, 56
2, 1124422, Note_off_c, 0, 70, 54
2, 1124486, Note_on_c, 0, 70, 50
2, 1124488, Note_on_c, 0, 79, 69
2, 1124489, Note_on_c, 0, 63, 55
2, 1124508, Note_off_c, 0, 62, 53
2, 1124517, Note_off_c, 0, 77, 57
2, 1124623, Note_off_c, 0, 63, 53
2, 1124633, Note_off_c, 0, 79, 57
2, 1124705, Note_off_c, 0, 70, 52
2, 1124782, Note_on_c, 0, 70, 62
2, 1124784, Note_on_c, 0, 58, 57
2, 1125005, Note_off_c, 0, 70, 55
2, 1125081, Note_off_c, 0, 58, 54
2, 1125083, Note_on_c, 0, 70, 50
2, 1125085, Note_on_c, 0, 68, 59
2, 1125086, Note_on_c, 0, 77, 75
2, 1125224, Note_on_c, 0, 74, 76
2, 1125225, Note_on_c, 0, 65, 60
2, 1125266, Note_off_c, 0, 77, 59
2, 1125268, Note_off_c, 0, 68, 54
2, 1125351, Note_on_c, 0, 67, 61
2, 1125353, Note_on_c, 0, 75, 78
2, 1125394, Note_off_c, 0, 74, 59
2, 1125395, Note_off_c, 0, 70, 52
2, 1125398, Note_off_c, 0, 65, 55
2, 1125464, Note_off_c, 0, 67, 55
2, 1125474, Note_off_c, 0, 75, 59
2, 1125645, Note_on_c, 0, 75, 71
2, 1125647, Note_on_c, 0, 63, 69
2, 1125865, Note_off_c, 0, 75, 58
2, 1125943, Note_off_c, 0, 63, 57
2, 1125944, Note_on_c, 0, 84, 84
2, 1125946, Note_on_c, 0, 75, 55
2, 1125948, Note_on_c, 0, 68, 72
2, 1126083, Note_off_c, 0, 84, 61
2, 1126085, Note_off_c, 0, 68, 58
2, 1126087, Note_on_c, 0, 80, 84
2, 1126088, Note_on_c, 0, 65, 72
2, 1126127, Note_off_c, 0, 75, 53
2, 1126193, Note_off_c, 0, 80, 61
2, 1126194, Note_off_c, 0, 65, 58
2, 1126209, Note_on_c, 0, 82, 82
2, 1126212, Note_on_c, 0, 75, 56
2, 1126214, Note_on_c, 0, 67, 70
2, 1126301, Note_off_c, 0, 82, 60
2, 1126362, Note_off_c, 0, 67, 57
2, 1126429, Note_off_c, 0, 75, 54
2, 1126506, Note_on_c, 0, 75, 50
2, 1126507, Note_on_c, 0, 63, 66
2, 1126727, Note_off_c, 0, 75, 52
2, 1126805, Note_off_c, 0, 63, 56
2, 1126806, Note_on_c, 0, 80, 74
2, 1126809, Note_on_c, 0, 75, 56
2, 1126810, Note_on_c, 0, 72, 62
2, 1126944, Note_off_c, 0, 80, 59
2, 1126946, Note_off_c, 0, 72, 55
2, 1126947, Note_on_c, 0, 78, 72
2, 1126949, Note_on_c, 0, 69, 60
2, 1127028, Note_off_c, 0, 75, 54
2, 1127055, Note_off_c, 0, 78, 58
2, 1127057, Note_off_c, 0, 69, 55
2, 1127072, Note_on_c, 0, 79, 72
2, 1127074, Note_on_c, 0, 75, 53
2, 1127076, Note_on_c, 0, 70, 60
2, 1127178, Note_off_c, 0, 70, 55
2, 1127189, Note_off_c, 0, 79, 58
2, 1127289, Note_off_c, 0, 75, 53
2, 1127368, Note_on_c, 0, 75, 63
2, 1127369, Note_on_c, 0, 63, 61
2, 1127589, Note_off_c, 0, 75, 55
2, 1127669, Note_off_c, 0, 63, 55
2, 1127670, Note_on_c, 0, 75, 50
2, 1127671, Note_on_c, 0, 84, 75
2, 1127672, Note_on_c, 0, 68, 63
2, 1127808, Note_off_c, 0, 84, 59
2, 1127810, Note_off_c, 0, 68, 55
2, 1127811, Note_on_c, 0, 80, 76
2, 1127812, Note_on_c, 0, 65, 64
2, 1127892, Note_off_c, 0, 75, 52
2, 1127934, Note_off_c, 0, 80, 59
2, 1127936, Note_off_c, 0, 65, 56
2, 1127937, Note_on_c, 0, 82, 77
2, 1127939, Note_on_c, 0, 75, 50
2, 1127940, Note_on_c, 0, 67, 65
2, 1128037, Note_off_c, 0, 82, 59
2, 1128100, Note_off_c, 0, 67, 56
2, 1128151, Note_off_c, 0, 75, 52
2, 1128230, Note_on_c, 0, 75, 68
2, 1128232, Note_on_c, 0, 63, 66
2, 1128449, Note_off_c, 0, 75, 57
2, 1128526, Note_off_c, 0, 63, 56
2, 1128529, Note_on_c, 0, 75, 50
2, 1128530, Note_on_c, 0, 80, 80
2, 1128531, Note_on_c, 0, 72, 68
2, 1128670, Note_off_c, 0, 80, 60
2, 1128672, Note_off_c, 0, 72, 57
2, 1128673, Note_on_c, 0, 78, 81
2, 1128675, Note_on_c, 0, 69, 69
2, 1128741, Note_off_c, 0, 75, 52
2, 1128779, Note_off_c, 0, 69, 57
2, 1128781, Note_off_c, 0, 78, 60
2, 1128796, Note_on_c, 0, 75, 50
2, 1128797, Note_on_c, 0, 79, 82
2, 1128799, Note_on_c, 0, 70, 70
2, 1128904, Note_off_c, 0, 70, 57
2, 1128918, Note_off_c, 0, 79, 60
2, 1129013, Note_off_c, 0, 75, 52
2, 1129090, Note_on_c, 0, 75, 74
2, 1129094, Note_on_c, 0, 63, 72
2, 1129311, Note_off_c, 0, 75, 59
2, 1129311, Note_off_c, 0, 63, 58
2, 1129385, Control_c, 0, 64, 127
2, 1129388, Note_on_c, 0, 75, 54
2, 1129390, Note_on_c, 0, 85, 84
2, 1129392, Note_on_c, 0, 67, 72
2, 1129393, Note_on_c, 0, 55, 72
2, 1129399, Note_on_c, 0, 63, 63
2, 1129530, Note_off_c, 0, 85, 61
2, 1129533, Note_on_c, 0, 82, 84
2, 1129655, Note_off_c, 0, 82, 61
2, 1129658, Note_off_c, 0, 75, 53
2, 1129660, Note_on_c, 0, 84, 84
2, 1129661, Note_on_c, 0, 68, 72
2, 1129662, Note_on_c, 0, 56, 54
2, 1129714, Note_off_c, 0, 55, 58
2, 1129730, Note_off_c, 0, 67, 58
2, 1129811, Control_c, 0, 64, 0
2, 1129814, Note_off_c, 0, 84, 61
2, 1129815, Note_on_c, 0, 87, 83
2, 1129901, Note_off_c, 0, 63, 55
2, 1129954, Note_off_c, 0, 87, 60
2, 1129955, Note_off_c, 0, 68, 58
2, 1129956, Note_off_c, 0, 56, 53
2, 1129958, Note_on_c, 0, 86, 82
2, 1130111, Note_off_c, 0, 86, 60
2, 1130112, Note_on_c, 0, 84, 82
2, 1130252, Note_off_c, 0, 84, 60
2, 1130253, Note_on_c, 0, 82, 81
2, 1130254, Note_on_c, 0, 56, 86
2, 1130392, Note_off_c, 0, 82, 60
2, 1130394, Note_on_c, 0, 80, 80
2, 1130532, Note_off_c, 0, 80, 60
2, 1130534, Note_on_c, 0, 79, 73
2, 1130538, Note_on_c, 0, 58, 63
2, 1130620, Note_off_c, 0, 56, 61
2, 1130690, Note_off_c, 0, 79, 58
2, 1130692, Note_on_c, 0, 82, 79
2, 1130751, Note_off_c, 0, 58, 55
2, 1130830, Note_off_c, 0, 82, 60
2, 1130831, Note_on_c, 0, 87, 78
2, 1130986, Note_off_c, 0, 87, 59
2, 1130988, Note_on_c, 0, 79, 78
2, 1131104, Control_c, 0, 64, 127
2, 1131119, Note_on_c, 0, 68, 74
2, 1131130, Note_off_c, 0, 79, 59
2, 1131131, Note_on_c, 0, 86, 77
2, 1131133, Note_on_c, 0, 65, 56
2, 1131134, Note_on_c, 0, 59, 62
2, 1131268, Note_off_c, 0, 86, 59
2, 1131270, Note_on_c, 0, 77, 76
2, 1131374, Note_off_c, 0, 65, 54
2, 1131411, Note_off_c, 0, 77, 59
2, 1131414, Note_on_c, 0, 67, 53
2, 1131415, Note_on_c, 0, 87, 73
2, 1131416, Note_on_c, 0, 63, 48
2, 1131417, Note_on_c, 0, 60, 42
2, 1131460, Note_off_c, 0, 68, 59
2, 1131469, Note_off_c, 0, 59, 55
2, 1131569, Note_off_c, 0, 87, 58
2, 1131570, Note_on_c, 0, 75, 75
2, 1131594, Control_c, 0, 64, 0
2, 1131651, Note_off_c, 0, 63, 52
2, 1131709, Note_off_c, 0, 75, 59
2, 1131710, Note_off_c, 0, 67, 53
2, 1131711, Note_off_c, 0, 60, 50
2, 1131713, Note_on_c, 0, 74, 74
2, 1131864, Note_off_c, 0, 74, 59
2, 1131866, Note_on_c, 0, 72, 74
2, 1132006, Note_off_c, 0, 72, 59
2, 1132008, Note_on_c, 0, 70, 73
2, 1132009, Note_on_c, 0, 44, 74
2, 1132147, Note_off_c, 0, 70, 58
2, 1132149, Note_on_c, 0, 68, 72
2, 1132288, Note_off_c, 0, 68, 58
2, 1132289, Note_on_c, 0, 67, 72
2, 1132291, Note_on_c, 0, 46, 48
2, 1132360, Note_off_c, 0, 44, 59
2, 1132444, Note_off_c, 0, 67, 58
2, 1132446, Note_on_c, 0, 70, 74
2, 1132585, Note_off_c, 0, 46, 52
2, 1132586, Note_off_c, 0, 70, 59
2, 1132587, Note_on_c, 0, 75, 76
2, 1132741, Note_off_c, 0, 75, 59
2, 1132743, Note_on_c, 0, 67, 78
2, 1132867, Control_c, 0, 64, 127
2, 1132874, Note_on_c, 0, 56, 68
2, 1132885, Note_off_c, 0, 67, 59
2, 1132886, Note_on_c, 0, 74, 80
2, 1132888, Note_on_c, 0, 47, 48
2, 1132889, Note_on_c, 0, 53, 58
2, 1133023, Note_off_c, 0, 74, 60
2, 1133025, Note_on_c, 0, 65, 82
2, 1133117, Note_off_c, 0, 53, 54
2, 1133180, Note_off_c, 0, 65, 60
2, 1133184, Note_on_c, 0, 75, 84
2, 1133185, Note_on_c, 0, 55, 64
2, 1133186, Note_on_c, 0, 48, 50
2, 1133188, Note_on_c, 0, 51, 58
2, 1133225, Note_off_c, 0, 47, 52
2, 1133231, Note_off_c, 0, 56, 57
2, 1133323, Note_off_c, 0, 75, 61
2, 1133324, Note_on_c, 0, 63, 84
2, 1133349, Control_c, 0, 64, 0
2, 1133393, Note_off_c, 0, 51, 54
2, 1133463, Note_off_c, 0, 63, 61
2, 1133464, Note_off_c, 0, 55, 56
2, 1133465, Note_off_c, 0, 48, 52
2, 1133467, Note_on_c, 0, 62, 81
2, 1133619, Note_off_c, 0, 62, 60
2, 1133621, Note_on_c, 0, 60, 78
2, 1133759, Note_off_c, 0, 60, 59
2, 1133761, Note_on_c, 0, 58, 75
2, 1133763, Note_on_c, 0, 32, 86
2, 1133902, Note_off_c, 0, 58, 59
2, 1133904, Note_on_c, 0, 56, 71
2, 1134058, Note_off_c, 0, 56, 58
2, 1134060, Note_on_c, 0, 55, 68
2, 1134061, Note_on_c, 0, 34, 72
2, 1134130, Note_off_c, 0, 32, 61
2, 1134198, Note_off_c, 0, 55, 57
2, 1134199, Note_on_c, 0, 58, 65
2, 1134276, Note_off_c, 0, 34, 58
2, 1134339, Note_off_c, 0, 58, 56
2, 1134341, Note_on_c, 0, 63, 62
2, 1134342, Note_on_c, 0, 46, 68
2, 1134496, Note_off_c, 0, 63, 55
2, 1134497, Note_on_c, 0, 55, 58
2, 1134569, Note_off_c, 0, 46, 57
2, 1134621, Note_off_c, 0, 55, 54
2, 1134637, Note_on_c, 0, 62, 55
2, 1134639, Note_on_c, 0, 46, 64
2, 1134794, Note_off_c, 0, 62, 53
2, 1134796, Note_on_c, 0, 53, 52
2, 1134935, Note_off_c, 0, 46, 56
2, 1134937, Note_off_c, 0, 53, 53
2, 1134938, Note_on_c, 0, 55, 60
2, 1134939, Note_on_c, 0, 63, 70
2, 1134940, Note_on_c, 0, 39, 68
2, 1134945, Control_c, 0, 64, 127
2, 1135218, Note_off_c, 0, 55, 55
2, 1135219, Note_off_c, 0, 63, 57
2, 1135220, Note_on_c, 0, 51, 72
2, 1135436, Note_off_c, 0, 51, 58
2, 1135512, Note_on_c, 0, 51, 70
2, 1135800, Note_on_c, 0, 67, 76
2, 1135811, Note_on_c, 0, 63, 56
2, 1135812, Note_on_c, 0, 58, 61
2, 1135813, Note_on_c, 0, 55, 68
2, 1135814, Note_off_c, 0, 51, 57
2, 1135816, Control_c, 0, 64, 0
2, 1135817, Note_on_c, 0, 49, 68
2, 1136023, Control_c, 0, 64, 127
2, 1136110, Note_off_c, 0, 49, 57
2, 1136111, Note_on_c, 0, 51, 65
2, 1136316, Note_off_c, 0, 55, 57
2, 1136383, Note_off_c, 0, 63, 54
2, 1136406, Note_off_c, 0, 58, 55
2, 1136421, Note_off_c, 0, 51, 56
2, 1136423, Note_on_c, 0, 46, 63
2, 1136495, Note_off_c, 0, 67, 59
2, 1136710, Note_on_c, 0, 68, 68
2, 1136717, Note_on_c, 0, 63, 48
2, 1136719, Note_on_c, 0, 60, 54
2, 1136720, Note_on_c, 0, 56, 58
2, 1136735, Note_off_c, 0, 46, 55
2, 1136736, Control_c, 0, 64, 0
2, 1136739, Note_on_c, 0, 48, 60
2, 1136959, Control_c, 0, 64, 127
2, 1137050, Note_off_c, 0, 48, 55
2, 1137052, Note_on_c, 0, 51, 58
2, 1137235, Note_off_c, 0, 60, 53
2, 1137305, Note_off_c, 0, 56, 54
2, 1137335, Note_off_c, 0, 63, 52
2, 1137364, Note_off_c, 0, 51, 54
2, 1137365, Note_on_c, 0, 44, 56
2, 1137420, Note_off_c, 0, 68, 57
2, 1137664, Note_on_c, 0, 70, 61
2, 1137675, Note_on_c, 0, 62, 48
2, 1137677, Note_on_c, 0, 56, 42
2, 1137678, Note_off_c, 0, 44, 54
2, 1137679, Note_on_c, 0, 50, 53
2, 1137682, Control_c, 0, 64, 0
2, 1137901, Control_c, 0, 64, 127
2, 1138005, Note_off_c, 0, 50, 53
2, 1138007, Note_on_c, 0, 53, 51
2, 1138215, Note_off_c, 0, 56, 50
2, 1138275, Note_off_c, 0, 62, 52
2, 1138335, Note_off_c, 0, 53, 52
2, 1138336, Note_on_c, 0, 46, 48
2, 1138390, Note_off_c, 0, 70, 55
2, 1138570, Note_off_c, 0, 46, 52
2, 1138664, Note_off_c, 0, 39, 57
2, 1138666, Note_on_c, 0, 63, 72
2, 1138667, Note_on_c, 0, 55, 52
2, 1138669, Note_on_c, 0, 51, 60
2, 1138670, Control_c, 0, 64, 0
2, 1138878, Control_c, 0, 64, 127
2, 1138907, Note_off_c, 0, 55, 53
2, 1138962, Note_off_c, 0, 63, 58
2, 1138963, Note_on_c, 0, 75, 72
2, 1139179, Note_off_c, 0, 75, 58
2, 1139257, Note_on_c, 0, 75, 68
2, 1139503, Note_off_c, 0, 75, 57
2, 1139571, Note_on_c, 0, 73, 63
2, 1139573, Control_c, 0, 64, 0
2, 1139575, Note_on_c, 0, 58, 60
2, 1139576, Note_on_c, 0, 55, 48
2, 1139795, Control_c, 0, 64, 127
2, 1139886, Note_on_c, 0, 75, 58
2, 1139913, Note_off_c, 0, 73, 55
2, 1140200, Note_on_c, 0, 70, 53
2, 1140263, Note_off_c, 0, 75, 54
2, 1140263, Note_off_c, 0, 55, 52
2, 1140394, Note_off_c, 0, 58, 55
2, 1140514, Note_on_c, 0, 72, 48
2, 1140516, Note_on_c, 0, 60, 57
2, 1140517, Note_on_c, 0, 56, 50
2, 1140519, Note_off_c, 0, 70, 53
2, 1140534, Control_c, 0, 64, 0
2, 1140753, Control_c, 0, 64, 127
2, 1140843, Note_on_c, 0, 75, 48
2, 1140872, Note_off_c, 0, 72, 52
2, 1140885, Note_off_c, 0, 51, 55
2, 1141171, Note_on_c, 0, 68, 55
2, 1141174, Note_off_c, 0, 75, 52
2, 1141302, Note_off_c, 0, 60, 54
2, 1141303, Note_off_c, 0, 56, 52
2, 1141395, Note_off_c, 0, 68, 53
2, 1141499, Note_on_c, 0, 74, 62
2, 1141509, Note_on_c, 0, 62, 54
2, 1141511, Note_on_c, 0, 65, 45
2, 1141512, Note_on_c, 0, 58, 48
2, 1141514, Note_on_c, 0, 56, 30
2, 1141515, Note_on_c, 0, 51, 40
2, 1141517, Note_on_c, 0, 53, 25
2, 1141518, Note_on_c, 0, 68, 50
2, 1141520, Control_c, 0, 64, 0
2, 1141726, Control_c, 0, 64, 127
2, 1141814, Note_on_c, 0, 77, 69
2, 1141855, Note_off_c, 0, 74, 55
2, 1142110, Note_on_c, 0, 70, 76
2, 1142141, Note_off_c, 0, 77, 57
2, 1142173, Note_off_c, 0, 53, 46
2, 1142206, Note_off_c, 0, 65, 51
2, 1142240, Note_off_c, 0, 58, 52
2, 1142257, Note_off_c, 0, 56, 47
2, 1142258, Note_off_c, 0, 51, 50
2, 1142291, Note_off_c, 0, 62, 53
2, 1142317, Note_off_c, 0, 68, 52
2, 1142345, Note_off_c, 0, 70, 59
2, 1142423, Note_on_c, 0, 75, 84
2, 1142424, Note_on_c, 0, 63, 51
2, 1142425, Note_on_c, 0, 58, 45
2, 1142427, Note_on_c, 0, 55, 40
2, 1142428, Note_on_c, 0, 51, 30
2, 1142436, Control_c, 0, 64, 0
2, 1142565, Note_off_c, 0, 75, 61
2, 1142566, Note_off_c, 0, 63, 52
2, 1142567, Note_off_c, 0, 55, 50
2, 1142568, Note_off_c, 0, 58, 51
2, 1142570, Note_off_c, 0, 51, 47
2, 1142571, Note_on_c, 0, 70, 84
2, 1142644, Control_c, 0, 64, 127
2, 1142721, Note_off_c, 0, 70, 61
2, 1142722, Note_on_c, 0, 67, 78
2, 1142876, Note_off_c, 0, 67, 59
2, 1142879, Note_on_c, 0, 63, 72
2, 1143033, Note_off_c, 0, 63, 58
2, 1143035, Note_on_c, 0, 58, 66
2, 1143206, Note_off_c, 0, 58, 56
2, 1143208, Note_on_c, 0, 55, 60
2, 1143380, Note_off_c, 0, 55, 55
2, 1143380, Note_on_c, 0, 51, 48
2, 1143390, Note_on_c, 0, 39, 32
2, 1143414, Control_c, 0, 64, 0
2, 1143623, Control_c, 0, 64, 127
2, 1143737, Note_off_c, 0, 51, 52
2, 1143748, Note_off_c, 0, 39, 48
2, 1144266, Note_on_c, 0, 58, 36
2, 1144283, Control_c, 0, 64, 0
2, 1144500, Control_c, 0, 64, 127
2, 1144544, Note_off_c, 0, 58, 49
2, 1144547, Note_on_c, 0, 54, 36
2, 1144549, Note_on_c, 0, 39, 36
2, 1144642, Note_off_c, 0, 54, 49
2, 1144643, Note_off_c, 0, 39, 49
2, 1144645, Note_on_c, 0, 58, 37
2, 1144646, Note_on_c, 0, 46, 37
2, 1144734, Note_off_c, 0, 58, 49
2, 1144736, Note_off_c, 0, 46, 49
2, 1144737, Note_on_c, 0, 66, 48
2, 1144739, Note_on_c, 0, 51, 38
2, 1144846, Note_off_c, 0, 66, 52
2, 1144847, Note_off_c, 0, 51, 49
2, 1144847, Note_on_c, 0, 54, 39
2, 1144849, Note_on_c, 0, 39, 39
2, 1144938, Note_off_c, 0, 54, 49
2, 1144939, Note_off_c, 0, 39, 49
2, 1144941, Note_on_c, 0, 58, 40
2, 1144942, Note_on_c, 0, 46, 40
2, 1145032, Note_off_c, 0, 58, 50
2, 1145035, Note_off_c, 0, 46, 50
2, 1145036, Note_on_c, 0, 66, 50
2, 1145038, Note_on_c, 0, 51, 42
2, 1145125, Note_off_c, 0, 66, 52
2, 1145126, Note_off_c, 0, 51, 50
2, 1145128, Note_on_c, 0, 54, 43
2, 1145129, Note_on_c, 0, 39, 43
2, 1145236, Note_off_c, 0, 54, 50
2, 1145238, Note_off_c, 0, 39, 50
2, 1145240, Note_on_c, 0, 58, 44
2, 1145241, Note_on_c, 0, 46, 44
2, 1145328, Note_off_c, 0, 58, 51
2, 1145331, Note_off_c, 0, 46, 51
2, 1145332, Note_on_c, 0, 66, 57
2, 1145333, Note_on_c, 0, 51, 45
2, 1145424, Note_off_c, 0, 66, 54
2, 1145425, Note_off_c, 0, 51, 51
2, 1145428, Control_c, 0, 64, 0
2, 1145429, Note_on_c, 0, 54, 46
2, 1145430, Note_on_c, 0, 39, 46
2, 1145533, Note_off_c, 0, 54, 51
2, 1145534, Note_off_c, 0, 39, 51
2, 1145535, Note_on_c, 0, 58, 48
2, 1145537, Note_on_c, 0, 46, 48
2, 1145618, Control_c, 0, 64, 127
2, 1145642, Note_off_c, 0, 58, 52
2, 1145644, Note_off_c, 0, 46, 52
2, 1145645, Note_on_c, 0, 66, 60
2, 1145646, Note_on_c, 0, 51, 48
2, 1145739, Note_off_c, 0, 66, 55
2, 1145739, Note_off_c, 0, 51, 52
2, 1145741, Note_on_c, 0, 53, 46
2, 1145743, Note_on_c, 0, 38, 46
2, 1145831, Note_off_c, 0, 53, 51
2, 1145833, Note_off_c, 0, 38, 51
2, 1145834, Note_on_c, 0, 58, 44
2, 1145835, Note_on_c, 0, 46, 44
2, 1145943, Note_off_c, 0, 58, 51
2, 1145944, Note_off_c, 0, 46, 51
2, 1145944, Note_on_c, 0, 65, 48
2, 1145946, Note_on_c, 0, 50, 42
2, 1146034, Note_off_c, 0, 65, 52
2, 1146036, Note_off_c, 0, 50, 50
2, 1146037, Note_on_c, 0, 54, 40
2, 1146038, Note_on_c, 0, 39, 40
2, 1146129, Note_off_c, 0, 54, 50
2, 1146131, Note_off_c, 0, 39, 50
2, 1146133, Note_on_c, 0, 58, 38
2, 1146134, Note_on_c, 0, 46, 38
2, 1146238, Note_off_c, 0, 58, 49
2, 1146239, Note_off_c, 0, 46, 49
2, 1146240, Note_on_c, 0, 66, 50
2, 1146242, Note_on_c, 0, 51, 35
2, 1146332, Note_off_c, 0, 66, 52
2, 1146334, Control_c, 0, 64, 0
2, 1146336, Note_on_c, 0, 56, 92
2, 1146337, Note_on_c, 0, 41, 78
2, 1146338, Note_off_c, 0, 51, 48
2, 1146425, Note_on_c, 0, 58, 48
2, 1146427, Note_on_c, 0, 46, 48
2, 1146474, Note_off_c, 0, 56, 62
2, 1146518, Note_off_c, 0, 41, 59
2, 1146521, Note_off_c, 0, 58, 52
2, 1146522, Note_off_c, 0, 46, 52
2, 1146524, Note_on_c, 0, 68, 67
2, 1146526, Control_c, 0, 64, 127
2, 1146527, Note_on_c, 0, 53, 55
2, 1146616, Note_on_c, 0, 56, 48
2, 1146618, Note_on_c, 0, 41, 48
2, 1146640, Note_off_c, 0, 53, 53
2, 1146642, Note_off_c, 0, 68, 57
2, 1146709, Note_off_c, 0, 56, 52
2, 1146710, Note_off_c, 0, 41, 52
2, 1146711, Note_on_c, 0, 58, 47
2, 1146713, Note_on_c, 0, 46, 47
2, 1146818, Note_off_c, 0, 58, 51
2, 1146820, Note_off_c, 0, 46, 51
2, 1146821, Note_on_c, 0, 68, 59
2, 1146822, Note_on_c, 0, 53, 46
2, 1146911, Note_off_c, 0, 68, 54
2, 1146913, Note_off_c, 0, 53, 51
2, 1146915, Note_on_c, 0, 56, 45
2, 1146917, Note_on_c, 0, 41, 45
2, 1147005, Note_off_c, 0, 56, 51
2, 1147007, Note_off_c, 0, 41, 51
2, 1147008, Note_on_c, 0, 58, 44
2, 1147010, Note_on_c, 0, 46, 44
2, 1147113, Note_off_c, 0, 58, 51
2, 1147116, Note_off_c, 0, 46, 51
2, 1147117, Note_on_c, 0, 68, 56
2, 1147118, Note_on_c, 0, 53, 44
2, 1147208, Note_off_c, 0, 68, 54
2, 1147210, Note_off_c, 0, 53, 51
2, 1147211, Control_c, 0, 64, 0
2, 1147215, Note_on_c, 0, 56, 43
2, 1147215, Note_on_c, 0, 41, 43
2, 1147319, Note_off_c, 0, 56, 50
2, 1147320, Note_off_c, 0, 41, 50
2, 1147321, Note_on_c, 0, 58, 42
2, 1147322, Note_on_c, 0, 46, 42
2, 1147392, Control_c, 0, 64, 127
2, 1147414, Note_off_c, 0, 58, 50
2, 1147414, Note_off_c, 0, 46, 50
2, 1147418, Note_on_c, 0, 68, 53
2, 1147419, Note_on_c, 0, 53, 41
2, 1147523, Note_off_c, 0, 68, 53
2, 1147524, Note_off_c, 0, 53, 50
2, 1147525, Note_on_c, 0, 56, 40
2, 1147527, Note_on_c, 0, 41, 40
2, 1147632, Note_off_c, 0, 56, 50
2, 1147634, Note_off_c, 0, 41, 50
2, 1147635, Note_on_c, 0, 58, 40
2, 1147636, Note_on_c, 0, 46, 40
2, 1147728, Note_off_c, 0, 58, 50
2, 1147728, Note_off_c, 0, 46, 50
2, 1147730, Note_on_c, 0, 68, 50
2, 1147732, Note_on_c, 0, 53, 39
2, 1147836, Note_off_c, 0, 68, 52
2, 1147837, Note_off_c, 0, 53, 49
2, 1147838, Note_on_c, 0, 56, 38
2, 1147840, Note_on_c, 0, 41, 38
2, 1147945, Note_off_c, 0, 56, 49
2, 1147947, Note_off_c, 0, 41, 49
2, 1147948, Note_on_c, 0, 58, 37
2, 1147950, Note_on_c, 0, 46, 37
2, 1148042, Note_off_c, 0, 58, 49
2, 1148043, Note_off_c, 0, 46, 49
2, 1148044, Note_on_c, 0, 68, 48
2, 1148046, Note_on_c, 0, 53, 36
2, 1148132, Note_off_c, 0, 68, 52
2, 1148134, Note_off_c, 0, 53, 49
2, 1148135, Control_c, 0, 64, 0
2, 1148137, Note_on_c, 0, 54, 36
2, 1148138, Note_on_c, 0, 39, 36
2, 1148229, Note_off_c, 0, 54, 49
2, 1148230, Note_off_c, 0, 39, 49
2, 1148231, Note_on_c, 0, 58, 37
2, 1148233, Note_on_c, 0, 46, 37
2, 1148321, Note_off_c, 0, 58, 49
2, 1148324, Note_off_c, 0, 46, 49
2, 1148325, Note_on_c, 0, 66, 50
2, 1148326, Note_on_c, 0, 51, 38
2, 1148327, Control_c, 0, 64, 127
2, 1148414, Note_off_c, 0, 66, 52
2, 1148416, Note_off_c, 0, 51, 49
2, 1148417, Note_on_c, 0, 54, 39
2, 1148419, Note_on_c, 0, 39, 39
2, 1148524, Note_off_c, 0, 54, 49
2, 1148526, Note_off_c, 0, 39, 49
2, 1148527, Note_on_c, 0, 58, 40
2, 1148528, Note_on_c, 0, 46, 40
2, 1148621, Note_off_c, 0, 58, 50
2, 1148621, Note_off_c, 0, 46, 50
2, 1148623, Note_on_c, 0, 66, 54
2, 1148624, Note_on_c, 0, 51, 41
2, 1148713, Note_off_c, 0, 66, 53
2, 1148714, Note_off_c, 0, 51, 50
2, 1148717, Note_on_c, 0, 54, 42
2, 1148718, Note_on_c, 0, 39, 42
2, 1148824, Note_off_c, 0, 54, 50
2, 1148825, Note_off_c, 0, 39, 50
2, 1148826, Note_on_c, 0, 58, 43
2, 1148828, Note_on_c, 0, 46, 43
2, 1148917, Note_off_c, 0, 58, 50
2, 1148918, Note_off_c, 0, 46, 50
2, 1148920, Note_on_c, 0, 66, 57
2, 1148921, Note_on_c, 0, 51, 44
2, 1149011, Note_off_c, 0, 66, 54
2, 1149013, Note_off_c, 0, 51, 51
2, 1149014, Control_c, 0, 64, 0
2, 1149014, Note_on_c, 0, 54, 45
2, 1149016, Note_on_c, 0, 39, 45
2, 1149119, Note_off_c, 0, 54, 51
2, 1149121, Note_off_c, 0, 39, 51
2, 1149122, Note_on_c, 0, 58, 46
2, 1149124, Note_on_c, 0, 46, 46
2, 1149206, Control_c, 0, 64, 127
2, 1149229, Note_off_c, 0, 58, 51
2, 1149231, Note_off_c, 0, 46, 51
2, 1149232, Note_on_c, 0, 66, 60
2, 1149234, Note_on_c, 0, 51, 47
2, 1149325, Note_off_c, 0, 66, 55
2, 1149328, Note_off_c, 0, 51, 51
2, 1149328, Note_on_c, 0, 53, 48
2, 1149329, Note_on_c, 0, 38, 48
2, 1149434, Note_off_c, 0, 53, 52
2, 1149436, Note_off_c, 0, 38, 52
2, 1149437, Note_on_c, 0, 58, 48
2, 1149438, Note_on_c, 0, 46, 48
2, 1149528, Note_off_c, 0, 58, 52
2, 1149529, Note_off_c, 0, 46, 52
2, 1149531, Note_on_c, 0, 65, 48
2, 1149533, Note_on_c, 0, 50, 48
2, 1149621, Note_off_c, 0, 65, 52
2, 1149623, Note_off_c, 0, 50, 52
2, 1149624, Note_on_c, 0, 54, 48
2, 1149625, Note_on_c, 0, 39, 48
2, 1149718, Note_off_c, 0, 54, 52
2, 1149718, Note_off_c, 0, 39, 52
2, 1149719, Note_on_c, 0, 58, 48
2, 1149721, Note_on_c, 0, 46, 48
2, 1149826, Note_off_c, 0, 58, 52
2, 1149827, Note_off_c, 0, 46, 52
2, 1149828, Note_on_c, 0, 66, 65
2, 1149830, Note_on_c, 0, 51, 53
2, 1149920, Control_c, 0, 64, 0
2, 1149922, Note_on_c, 0, 56, 88
2, 1149924, Note_on_c, 0, 41, 64
2, 1149926, Note_off_c, 0, 51, 53
2, 1149928, Note_off_c, 0, 66, 56
2, 1150014, Note_on_c, 0, 61, 60
2, 1150015, Note_on_c, 0, 49, 48
2, 1150108, Note_off_c, 0, 61, 55
2, 1150108, Note_off_c, 0, 49, 52
2, 1150111, Note_on_c, 0, 68, 60
2, 1150112, Note_on_c, 0, 53, 48
2, 1150119, Note_off_c, 0, 56, 62
2, 1150126, Note_off_c, 0, 41, 56
2, 1150128, Control_c, 0, 64, 127
2, 1150201, Note_off_c, 0, 68, 55
2, 1150202, Note_off_c, 0, 53, 52
2, 1150203, Note_on_c, 0, 56, 48
2, 1150204, Note_on_c, 0, 41, 48
2, 1150297, Note_off_c, 0, 56, 52
2, 1150297, Note_off_c, 0, 41, 52
2, 1150299, Note_on_c, 0, 61, 59
2, 1150301, Note_on_c, 0, 49, 47
2, 1150405, Note_off_c, 0, 61, 54
2, 1150407, Note_off_c, 0, 49, 51
2, 1150408, Note_on_c, 0, 68, 58
2, 1150409, Note_on_c, 0, 53, 46
2, 1150500, Note_off_c, 0, 68, 54
2, 1150501, Note_off_c, 0, 53, 51
2, 1150503, Note_on_c, 0, 56, 45
2, 1150504, Note_on_c, 0, 41, 45
2, 1150594, Note_off_c, 0, 56, 51
2, 1150595, Note_off_c, 0, 41, 51
2, 1150596, Note_on_c, 0, 61, 56
2, 1150597, Note_on_c, 0, 49, 44
2, 1150702, Note_off_c, 0, 61, 54
2, 1150703, Note_off_c, 0, 49, 51
2, 1150706, Note_on_c, 0, 68, 56
2, 1150707, Note_on_c, 0, 53, 44
2, 1150795, Note_off_c, 0, 68, 54
2, 1150796, Note_off_c, 0, 53, 51
2, 1150798, Control_c, 0, 64, 0
2, 1150799, Note_on_c, 0, 56, 43
2, 1150800, Note_on_c, 0, 41, 43
2, 1150905, Note_off_c, 0, 56, 50
2, 1150907, Note_off_c, 0, 41, 50
2, 1150908, Note_on_c, 0, 61, 54
2, 1150910, Note_on_c, 0, 49, 42
2, 1150991, Control_c, 0, 64, 127
2, 1150999, Note_off_c, 0, 61, 53
2, 1151002, Note_off_c, 0, 49, 50
2, 1151003, Note_on_c, 0, 68, 53
2, 1151004, Note_on_c, 0, 53, 41
2, 1151109, Note_off_c, 0, 68, 53
2, 1151111, Note_off_c, 0, 53, 50
2, 1151112, Note_on_c, 0, 56, 40
2, 1151114, Note_on_c, 0, 41, 40
2, 1151219, Note_off_c, 0, 56, 50
2, 1151221, Note_off_c, 0, 41, 50
2, 1151222, Note_on_c, 0, 61, 52
2, 1151223, Note_on_c, 0, 49, 40
2, 1151314, Note_off_c, 0, 61, 53
2, 1151315, Note_off_c, 0, 49, 50
2, 1151316, Note_on_c, 0, 68, 51
2, 1151318, Note_on_c, 0, 53, 39
2, 1151423, Note_off_c, 0, 68, 52
2, 1151424, Note_off_c, 0, 53, 49
2, 1151426, Note_on_c, 0, 56, 38
2, 1151427, Note_on_c, 0, 41, 38
2, 1151533, Note_off_c, 0, 56, 49
2, 1151534, Note_off_c, 0, 41, 49
2, 1151535, Note_on_c, 0, 61, 49
2, 1151536, Note_on_c, 0, 49, 37
2, 1151628, Note_off_c, 0, 61, 52
2, 1151629, Note_off_c, 0, 49, 49
2, 1151631, Note_on_c, 0, 68, 48
2, 1151632, Note_on_c, 0, 53, 36
2, 1151722, Note_off_c, 0, 68, 52
2, 1151723, Note_off_c, 0, 53, 49
2, 1151725, Note_on_c, 0, 58, 25
2, 1151726, Control_c, 0, 64, 0
2, 1151727, Note_on_c, 0, 42, 25
2, 1151817, Note_off_c, 0, 58, 46
2, 1151817, Note_off_c, 0, 42, 46
2, 1151819, Note_on_c, 0, 61, 28
2, 1151820, Note_on_c, 0, 49, 28
2, 1151908, Note_off_c, 0, 61, 47
2, 1151910, Note_off_c, 0, 49, 47
2, 1151912, Note_on_c, 0, 70, 31
2, 1151914, Note_on_c, 0, 54, 31
2, 1151943, Control_c, 0, 64, 127
2, 1152002, Note_off_c, 0, 70, 47
2, 1152004, Note_off_c, 0, 54, 47
2, 1152005, Note_on_c, 0, 58, 34
2, 1152007, Note_on_c, 0, 42, 34
2, 1152110, Note_off_c, 0, 58, 48
2, 1152114, Note_off_c, 0, 42, 48
2, 1152115, Note_on_c, 0, 61, 38
2, 1152116, Note_on_c, 0, 49, 38
2, 1152207, Note_off_c, 0, 61, 49
2, 1152209, Note_off_c, 0, 49, 49
2, 1152210, Note_on_c, 0, 70, 41
2, 1152211, Note_on_c, 0, 54, 41
2, 1152300, Note_off_c, 0, 70, 50
2, 1152301, Note_off_c, 0, 54, 50
2, 1152304, Note_on_c, 0, 58, 45
2, 1152305, Note_on_c, 0, 42, 45
2, 1152411, Note_off_c, 0, 58, 51
2, 1152412, Note_off_c, 0, 42, 51
2, 1152413, Note_on_c, 0, 61, 48
2, 1152415, Note_on_c, 0, 49, 48
2, 1152505, Note_off_c, 0, 61, 52
2, 1152507, Note_off_c, 0, 49, 52
2, 1152509, Note_on_c, 0, 70, 52
2, 1152510, Note_on_c, 0, 54, 52
2, 1152601, Note_off_c, 0, 70, 53
2, 1152601, Note_off_c, 0, 54, 53
2, 1152602, Note_on_c, 0, 58, 55
2, 1152604, Control_c, 0, 64, 0
2, 1152605, Note_on_c, 0, 30, 55
2, 1152709, Note_off_c, 0, 58, 53
2, 1152710, Note_off_c, 0, 30, 53
2, 1152711, Note_on_c, 0, 61, 59
2, 1152713, Note_on_c, 0, 37, 59
2, 1152811, Control_c, 0, 64, 127
2, 1152817, Note_off_c, 0, 61, 54
2, 1152819, Note_off_c, 0, 37, 54
2, 1152820, Note_on_c, 0, 70, 63
2, 1152822, Note_on_c, 0, 42, 63
2, 1152914, Note_off_c, 0, 70, 55
2, 1152915, Note_off_c, 0, 42, 55
2, 1152916, Note_on_c, 0, 58, 66
2, 1152917, Note_on_c, 0, 30, 66
2, 1153021, Note_off_c, 0, 58, 56
2, 1153022, Note_off_c, 0, 30, 56
2, 1153024, Note_on_c, 0, 61, 70
2, 1153025, Note_on_c, 0, 37, 70
2, 1153132, Note_off_c, 0, 61, 57
2, 1153133, Note_off_c, 0, 37, 57
2, 1153134, Note_on_c, 0, 70, 73
2, 1153137, Note_on_c, 0, 42, 74
2, 1153225, Note_off_c, 0, 70, 58
2, 1153227, Note_off_c, 0, 42, 59
2, 1153228, Note_on_c, 0, 58, 77
2, 1153229, Note_on_c, 0, 30, 77
2, 1153334, Note_off_c, 0, 58, 59
2, 1153336, Note_off_c, 0, 30, 59
2, 1153337, Note_on_c, 0, 61, 81
2, 1153338, Note_on_c, 0, 37, 81
2, 1153444, Note_off_c, 0, 61, 60
2, 1153447, Note_off_c, 0, 37, 60
2, 1153447, Note_on_c, 0, 70, 84
2, 1153449, Note_on_c, 0, 42, 84
2, 1153552, Note_off_c, 0, 70, 61
2, 1153555, Note_off_c, 0, 42, 61
2, 1153556, Control_c, 0, 64, 0
2, 1153559, Note_on_c, 0, 58, 60
2, 1153560, Note_on_c, 0, 35, 60
2, 1153664, Note_off_c, 0, 58, 55
2, 1153665, Note_off_c, 0, 35, 55
2, 1153667, Note_on_c, 0, 63, 59
2, 1153668, Note_on_c, 0, 39, 59
2, 1153749, Control_c, 0, 64, 127
2, 1153756, Note_off_c, 0, 63, 54
2, 1153759, Note_off_c, 0, 39, 54
2, 1153760, Note_on_c, 0, 70, 58
2, 1153761, Note_on_c, 0, 47, 58
2, 1153852, Note_off_c, 0, 70, 54
2, 1153853, Note_off_c, 0, 47, 54
2, 1153855, Note_on_c, 0, 56, 57
2, 1153856, Note_on_c, 0, 35, 57
2, 1153946, Note_off_c, 0, 56, 54
2, 1153947, Note_off_c, 0, 35, 54
2, 1153949, Note_on_c, 0, 63, 56
2, 1153950, Note_on_c, 0, 39, 56
2, 1154042, Note_off_c, 0, 63, 54
2, 1154042, Note_off_c, 0, 39, 54
2, 1154044, Note_on_c, 0, 68, 56
2, 1154045, Note_on_c, 0, 47, 56
2, 1154135, Note_off_c, 0, 68, 54
2, 1154136, Note_off_c, 0, 47, 54
2, 1154137, Note_on_c, 0, 56, 55
2, 1154139, Note_on_c, 0, 35, 55
2, 1154245, Note_off_c, 0, 56, 53
2, 1154246, Note_off_c, 0, 35, 53
2, 1154248, Note_on_c, 0, 63, 54
2, 1154249, Note_on_c, 0, 39, 54
2, 1154337, Note_off_c, 0, 63, 53
2, 1154340, Note_off_c, 0, 39, 53
2, 1154341, Note_on_c, 0, 68, 53
2, 1154342, Note_on_c, 0, 47, 53
2, 1154446, Note_off_c, 0, 68, 53
2, 1154447, Note_off_c, 0, 47, 53
2, 1154448, Control_c, 0, 64, 0
2, 1154450, Note_on_c, 0, 56, 52
2, 1154451, Note_on_c, 0, 35, 52
2, 1154540, Note_off_c, 0, 56, 53
2, 1154541, Note_off_c, 0, 35, 53
2, 1154543, Note_on_c, 0, 63, 51
2, 1154546, Note_on_c, 0, 39, 51
2, 1154642, Control_c, 0, 64, 127
2, 1154650, Note_off_c, 0, 63, 52
2, 1154652, Note_off_c, 0, 39, 52
2, 1154653, Note_on_c, 0, 68, 51
2, 1154654, Note_on_c, 0, 47, 51
2, 1154744, Note_off_c, 0, 68, 52
2, 1154746, Note_off_c, 0, 47, 52
2, 1154747, Note_on_c, 0, 54, 50
2, 1154749, Note_on_c, 0, 35, 50
2, 1154854, Note_off_c, 0, 54, 52
2, 1154855, Note_off_c, 0, 35, 52
2, 1154857, Note_on_c, 0, 56, 49
2, 1154858, Note_on_c, 0, 39, 49
2, 1154948, Note_off_c, 0, 56, 52
2, 1154950, Note_off_c, 0, 39, 52
2, 1154951, Note_on_c, 0, 66, 48
2, 1154952, Note_on_c, 0, 47, 48
2, 1155042, Note_off_c, 0, 66, 52
2, 1155043, Note_off_c, 0, 47, 52
2, 1155045, Note_on_c, 0, 54, 47
2, 1155046, Note_on_c, 0, 35, 47
2, 1155138, Note_off_c, 0, 54, 51
2, 1155140, Note_off_c, 0, 35, 51
2, 1155141, Note_on_c, 0, 56, 47
2, 1155142, Note_on_c, 0, 39, 47
2, 1155248, Note_off_c, 0, 56, 51
2, 1155249, Note_off_c, 0, 39, 51
2, 1155249, Note_on_c, 0, 66, 46
2, 1155251, Note_on_c, 0, 47, 46
2, 1155338, Note_off_c, 0, 66, 51
2, 1155341, Note_off_c, 0, 47, 51
2, 1155342, Control_c, 0, 64, 0
2, 1155344, Note_on_c, 0, 54, 45
2, 1155345, Note_on_c, 0, 35, 45
2, 1155433, Note_off_c, 0, 54, 51
2, 1155435, Note_off_c, 0, 35, 51
2, 1155436, Note_on_c, 0, 56, 44
2, 1155438, Note_on_c, 0, 39, 44
2, 1155528, Note_off_c, 0, 56, 51
2, 1155530, Note_off_c, 0, 39, 51
2, 1155531, Note_on_c, 0, 66, 43
2, 1155532, Note_on_c, 0, 47, 43
2, 1155535, Control_c, 0, 64, 127
2, 1155622, Note_off_c, 0, 66, 50
2, 1155623, Note_off_c, 0, 47, 50
2, 1155625, Note_on_c, 0, 53, 43
2, 1155627, Note_on_c, 0, 35, 43
2, 1155732, Note_off_c, 0, 53, 50
2, 1155734, Note_off_c, 0, 35, 50
2, 1155735, Note_on_c, 0, 56, 42
2, 1155736, Note_on_c, 0, 39, 42
2, 1155825, Note_off_c, 0, 56, 50
2, 1155826, Note_off_c, 0, 39, 50
2, 1155829, Note_on_c, 0, 65, 41
2, 1155829, Note_on_c, 0, 47, 41
2, 1155921, Note_off_c, 0, 65, 50
2, 1155922, Note_off_c, 0, 47, 50
2, 1155923, Note_on_c, 0, 53, 40
2, 1155924, Note_on_c, 0, 35, 40
2, 1156015, Note_off_c, 0, 53, 50
2, 1156016, Note_off_c, 0, 35, 50
2, 1156017, Note_on_c, 0, 56, 39
2, 1156019, Note_on_c, 0, 39, 39
2, 1156122, Note_off_c, 0, 56, 49
2, 1156124, Note_off_c, 0, 39, 49
2, 1156126, Note_on_c, 0, 65, 38
2, 1156127, Note_on_c, 0, 47, 38
2, 1156215, Note_off_c, 0, 65, 49
2, 1156218, Note_off_c, 0, 47, 49
2, 1156219, Control_c, 0, 64, 0
2, 1156221, Note_on_c, 0, 53, 38
2, 1156222, Note_on_c, 0, 35, 38
2, 1156311, Note_off_c, 0, 53, 49
2, 1156313, Note_off_c, 0, 35, 49
2, 1156314, Note_on_c, 0, 56, 37
2, 1156315, Note_on_c, 0, 39, 37
2, 1156421, Note_off_c, 0, 56, 49
2, 1156422, Control_c, 0, 64, 127
2, 1156424, Note_off_c, 0, 39, 49
2, 1156425, Note_on_c, 0, 65, 36
2, 1156426, Note_on_c, 0, 47, 36
2, 1156531, Note_off_c, 0, 65, 49
2, 1156532, Note_off_c, 0, 47, 49
2, 1156534, Note_on_c, 0, 54, 35
2, 1156535, Note_on_c, 0, 35, 35
2, 1156624, Note_off_c, 0, 54, 48
2, 1156625, Note_off_c, 0, 35, 48
2, 1156627, Note_on_c, 0, 57, 34
2, 1156628, Note_on_c, 0, 39, 34
2, 1156735, Note_off_c, 0, 57, 48
2, 1156735, Note_off_c, 0, 39, 48
2, 1156736, Note_on_c, 0, 66, 33
2, 1156738, Note_on_c, 0, 47, 33
2, 1156844, Note_off_c, 0, 66, 48
2, 1156845, Note_off_c, 0, 47, 48
2, 1156848, Note_on_c, 0, 51, 33
2, 1156849, Note_on_c, 0, 35, 33
2, 1156954, Note_off_c, 0, 51, 48
2, 1156955, Note_off_c, 0, 35, 48
2, 1156957, Note_on_c, 0, 57, 32
2, 1156958, Note_on_c, 0, 39, 32
2, 1157062, Note_off_c, 0, 57, 48
2, 1157063, Note_off_c, 0, 39, 48
2, 1157065, Note_on_c, 0, 63, 31
2, 1157066, Note_on_c, 0, 47, 31
2, 1157174, Note_off_c, 0, 63, 47
2, 1157175, Note_off_c, 0, 47, 47
2, 1157218, Control_c, 0, 64, 0
2, 1157221, Note_on_c, 0, 62, 40
2, 1157231, Note_on_c, 0, 34, 30
2, 1157232, Note_on_c, 0, 58, 20
2, 1157233, Note_on_c, 0, 50, 28
2, 1157234, Note_on_c, 0, 46, 36
2, 1157433, Note_off_c, 0, 58, 45
2, 1157444, Control_c, 0, 64, 127
2, 1157476, Note_off_c, 0, 46, 49
2, 1157477, Note_off_c, 0, 50, 47
2, 1157478, Note_off_c, 0, 34, 47
2, 1157503, Note_off_c, 0, 62, 50
2, 1157581, Note_on_c, 0, 65, 39
2, 1157591, Note_on_c, 0, 62, 19
2, 1157593, Note_on_c, 0, 58, 28
2, 1157594, Note_on_c, 0, 53, 36
2, 1157595, Note_on_c, 0, 46, 30
2, 1157797, Note_off_c, 0, 46, 47
2, 1157810, Note_off_c, 0, 58, 47
2, 1157831, Note_off_c, 0, 53, 49
2, 1157833, Note_off_c, 0, 62, 45
2, 1157849, Note_off_c, 0, 65, 49
2, 1157957, Note_on_c, 0, 65, 36
2, 1157966, Note_on_c, 0, 53, 37
2, 1157967, Note_on_c, 0, 62, 16
2, 1157969, Note_on_c, 0, 58, 24
2, 1157970, Note_on_c, 0, 46, 30
2, 1158179, Note_off_c, 0, 46, 47
2, 1158197, Note_off_c, 0, 62, 44
2, 1158210, Note_off_c, 0, 58, 46
2, 1158228, Note_off_c, 0, 53, 49
2, 1158277, Note_off_c, 0, 65, 49
2, 1158348, Note_on_c, 0, 65, 36
2, 1158358, Note_on_c, 0, 62, 16
2, 1158359, Note_on_c, 0, 58, 28
2, 1158360, Note_on_c, 0, 53, 32
2, 1158361, Note_on_c, 0, 46, 20
2, 1158616, Note_off_c, 0, 58, 47
2, 1158628, Note_off_c, 0, 62, 44
2, 1158639, Note_off_c, 0, 53, 48
2, 1158641, Note_off_c, 0, 46, 45
2, 1158677, Note_off_c, 0, 65, 49
2, 1158819, Control_c, 0, 64, 0
2, 1159149, Note_on_c, 0, 58, 38
2, 1159444, Note_off_c, 0, 58, 49
2, 1159445, Note_on_c, 0, 54, 36
2, 1159447, Control_c, 0, 64, 127
2, 1159448, Note_on_c, 0, 39, 36
2, 1159539, Note_off_c, 0, 54, 49
2, 1159541, Note_off_c, 0, 39, 49
2, 1159542, Note_on_c, 0, 58, 37
2, 1159544, Note_on_c, 0, 46, 37
2, 1159631, Note_off_c, 0, 58, 49
2, 1159633, Note_off_c, 0, 46, 49
2, 1159634, Note_on_c, 0, 66, 48
2, 1159636, Note_on_c, 0, 51, 38
2, 1159725, Note_off_c, 0, 66, 52
2, 1159727, Note_off_c, 0, 51, 49
2, 1159729, Note_on_c, 0, 54, 39
2, 1159730, Note_on_c, 0, 39, 39
2, 1159822, Note_off_c, 0, 54, 49
2, 1159823, Note_off_c, 0, 39, 49
2, 1159824, Note_on_c, 0, 58, 40
2, 1159826, Note_on_c, 0, 46, 40
2, 1159915, Note_off_c, 0, 58, 50
2, 1159917, Note_off_c, 0, 46, 50
2, 1159917, Note_on_c, 0, 66, 50
2, 1159919, Note_on_c, 0, 51, 42
2, 1160007, Note_off_c, 0, 66, 52
2, 1160011, Note_off_c, 0, 51, 50
2, 1160012, Note_on_c, 0, 54, 43
2, 1160013, Note_on_c, 0, 39, 43
2, 1160117, Note_off_c, 0, 54, 50
2, 1160120, Note_off_c, 0, 39, 50
2, 1160121, Note_on_c, 0, 58, 44
2, 1160122, Note_on_c, 0, 46, 44
2, 1160211, Note_off_c, 0, 58, 51
2, 1160213, Note_off_c, 0, 46, 51
2, 1160214, Note_on_c, 0, 66, 57
2, 1160216, Note_on_c, 0, 51, 45
2, 1160320, Note_off_c, 0, 66, 54
2, 1160324, Note_off_c, 0, 51, 51
2, 1160325, Control_c, 0, 64, 0
2, 1160326, Note_on_c, 0, 54, 46
2, 1160328, Note_on_c, 0, 39, 46
2, 1160415, Note_off_c, 0, 54, 51
2, 1160417, Note_off_c, 0, 39, 51
2, 1160418, Note_on_c, 0, 58, 48
2, 1160420, Note_on_c, 0, 46, 48
2, 1160505, Control_c, 0, 64, 127
2, 1160525, Note_off_c, 0, 58, 52
2, 1160528, Note_off_c, 0, 46, 52
2, 1160529, Note_on_c, 0, 66, 60
2, 1160530, Note_on_c, 0, 51, 48
2, 1160618, Note_off_c, 0, 66, 55
2, 1160620, Note_off_c, 0, 51, 52
2, 1160621, Note_on_c, 0, 53, 46
2, 1160622, Note_on_c, 0, 38, 46
2, 1160728, Note_off_c, 0, 53, 51
2, 1160729, Note_off_c, 0, 38, 51
2, 1160730, Note_on_c, 0, 58, 44
2, 1160732, Note_on_c, 0, 46, 44
2, 1160822, Note_off_c, 0, 58, 51
2, 1160823, Note_off_c, 0, 46, 51
2, 1160825, Note_on_c, 0, 65, 48
2, 1160827, Note_on_c, 0, 50, 42
2, 1160918, Note_off_c, 0, 65, 52
2, 1160919, Note_off_c, 0, 50, 50
2, 1160920, Note_on_c, 0, 54, 40
2, 1160922, Note_on_c, 0, 39, 40
2, 1161011, Note_off_c, 0, 54, 50
2, 1161012, Note_off_c, 0, 39, 50
2, 1161013, Note_on_c, 0, 58, 38
2, 1161014, Note_on_c, 0, 46, 38
2, 1161120, Note_off_c, 0, 58, 49
2, 1161121, Note_off_c, 0, 46, 49
2, 1161123, Note_on_c, 0, 66, 60
2, 1161124, Note_on_c, 0, 51, 36
2, 1161214, Note_off_c, 0, 66, 55
2, 1161217, Note_off_c, 0, 51, 49
2, 1161219, Control_c, 0, 64, 0
2, 1161220, Note_on_c, 0, 41, 84
2, 1161221, Note_on_c, 0, 56, 96
2, 1161310, Note_on_c, 0, 58, 48
2, 1161311, Note_on_c, 0, 46, 48
2, 1161402, Note_off_c, 0, 58, 52
2, 1161402, Note_off_c, 0, 46, 52
2, 1161404, Note_on_c, 0, 68, 60
2, 1161405, Control_c, 0, 64, 127
2, 1161406, Note_off_c, 0, 41, 61
2, 1161408, Note_on_c, 0, 53, 48
2, 1161417, Note_off_c, 0, 56, 63
2, 1161496, Note_off_c, 0, 53, 52
2, 1161497, Note_off_c, 0, 68, 55
2, 1161499, Note_on_c, 0, 56, 48
2, 1161500, Note_on_c, 0, 41, 48
2, 1161606, Note_off_c, 0, 56, 52
2, 1161607, Note_off_c, 0, 41, 52
2, 1161609, Note_on_c, 0, 58, 47
2, 1161611, Note_on_c, 0, 46, 47
2, 1161700, Note_off_c, 0, 58, 51
2, 1161702, Note_off_c, 0, 46, 51
2, 1161703, Note_on_c, 0, 68, 59
2, 1161704, Note_on_c, 0, 53, 46
2, 1161795, Note_off_c, 0, 68, 54
2, 1161795, Note_off_c, 0, 53, 51
2, 1161797, Note_on_c, 0, 56, 45
2, 1161798, Note_on_c, 0, 41, 45
2, 1161905, Note_off_c, 0, 56, 51
2, 1161906, Note_off_c, 0, 41, 51
2, 1161907, Note_on_c, 0, 58, 44
2, 1161909, Note_on_c, 0, 46, 44
2, 1161997, Note_off_c, 0, 58, 51
2, 1162000, Note_off_c, 0, 46, 51
2, 1162001, Note_on_c, 0, 68, 56
2, 1162002, Note_on_c, 0, 53, 44
2, 1162091, Note_off_c, 0, 68, 54
2, 1162093, Note_off_c, 0, 53, 51
2, 1162094, Control_c, 0, 64, 0
2, 1162096, Note_on_c, 0, 56, 43
2, 1162097, Note_on_c, 0, 41, 43
2, 1162202, Note_off_c, 0, 56, 50
2, 1162204, Note_off_c, 0, 41, 50
2, 1162205, Note_on_c, 0, 58, 42
2, 1162206, Note_on_c, 0, 46, 42
2, 1162277, Control_c, 0, 64, 127
2, 1162310, Note_off_c, 0, 58, 50
2, 1162313, Note_off_c, 0, 46, 50
2, 1162315, Note_on_c, 0, 68, 53
2, 1162316, Note_on_c, 0, 53, 41
2, 1162405, Note_off_c, 0, 68, 53
2, 1162406, Note_off_c, 0, 53, 50
2, 1162408, Note_on_c, 0, 56, 40
2, 1162409, Note_on_c, 0, 41, 40
2, 1162516, Note_off_c, 0, 56, 50
2, 1162517, Note_off_c, 0, 41, 50
2, 1162518, Note_on_c, 0, 58, 40
2, 1162519, Note_on_c, 0, 46, 40
2, 1162625, Note_off_c, 0, 58, 50
2, 1162626, Note_off_c, 0, 46, 50
2, 1162629, Note_on_c, 0, 68, 50
2, 1162630, Note_on_c, 0, 53, 39
2, 1162719, Note_off_c, 0, 68, 52
2, 1162720, Note_off_c, 0, 53, 49
2, 1162721, Note_on_c, 0, 56, 38
2, 1162723, Note_on_c, 0, 41, 38
2, 1162829, Note_off_c, 0, 56, 49
2, 1162831, Note_off_c, 0, 41, 49
2, 1162832, Note_on_c, 0, 58, 37
2, 1162833, Note_on_c, 0, 46, 37
2, 1162922, Note_off_c, 0, 58, 49
2, 1162923, Note_off_c, 0, 46, 49
2, 1162924, Note_on_c, 0, 68, 48
2, 1162925, Note_on_c, 0, 53, 36
2, 1163031, Note_off_c, 0, 68, 52
2, 1163032, Note_off_c, 0, 53, 49
2, 1163034, Note_on_c, 0, 54, 36
2, 1163035, Control_c, 0, 64, 0
2, 1163037, Note_on_c, 0, 39, 36
2, 1163127, Note_off_c, 0, 54, 49
2, 1163129, Note_off_c, 0, 39, 49
2, 1163129, Note_on_c, 0, 58, 37
2, 1163131, Note_on_c, 0, 46, 37
2, 1163218, Note_off_c, 0, 58, 49
2, 1163220, Control_c, 0, 64, 127
2, 1163221, Note_off_c, 0, 46, 49
2, 1163222, Note_on_c, 0, 66, 50
2, 1163224, Note_on_c, 0, 51, 38
2, 1163312, Note_off_c, 0, 66, 52
2, 1163314, Note_off_c, 0, 51, 49
2, 1163316, Note_on_c, 0, 54, 39
2, 1163317, Note_on_c, 0, 39, 39
2, 1163409, Note_off_c, 0, 54, 49
2, 1163411, Note_off_c, 0, 39, 49
2, 1163413, Note_on_c, 0, 58, 40
2, 1163414, Note_on_c, 0, 46, 40
2, 1163502, Note_off_c, 0, 58, 50
2, 1163504, Note_off_c, 0, 46, 50
2, 1163505, Note_on_c, 0, 66, 54
2, 1163506, Note_on_c, 0, 51, 41
2, 1163597, Note_off_c, 0, 66, 53
2, 1163599, Note_off_c, 0, 51, 50
2, 1163600, Note_on_c, 0, 54, 42
2, 1163602, Note_on_c, 0, 39, 42
2, 1163706, Note_off_c, 0, 54, 50
2, 1163707, Note_off_c, 0, 39, 50
2, 1163708, Note_on_c, 0, 58, 43
2, 1163710, Note_on_c, 0, 46, 43
2, 1163799, Note_off_c, 0, 58, 50
2, 1163801, Note_off_c, 0, 46, 50
2, 1163802, Note_on_c, 0, 66, 57
2, 1163804, Note_on_c, 0, 51, 44
2, 1163909, Note_off_c, 0, 66, 54
2, 1163910, Note_off_c, 0, 51, 51
2, 1163913, Note_on_c, 0, 54, 45
2, 1163914, Control_c, 0, 64, 0
2, 1163917, Note_on_c, 0, 39, 45
2, 1164004, Note_off_c, 0, 54, 51
2, 1164005, Note_off_c, 0, 39, 51
2, 1164006, Note_on_c, 0, 58, 46
2, 1164007, Note_on_c, 0, 46, 46
2, 1164094, Control_c, 0, 64, 127
2, 1164112, Note_off_c, 0, 58, 51
2, 1164114, Note_off_c, 0, 46, 51
2, 1164115, Note_on_c, 0, 66, 60
2, 1164116, Note_on_c, 0, 51, 47
2, 1164220, Note_off_c, 0, 66, 55
2, 1164223, Note_off_c, 0, 51, 51
2, 1164225, Note_on_c, 0, 53, 48
2, 1164227, Note_on_c, 0, 38, 48
2, 1164315, Note_off_c, 0, 53, 52
2, 1164317, Note_off_c, 0, 38, 52
2, 1164318, Note_on_c, 0, 58, 48
2, 1164320, Note_on_c, 0, 46, 48
2, 1164408, Note_off_c, 0, 58, 52
2, 1164413, Note_off_c, 0, 46, 52
2, 1164414, Note_on_c, 0, 65, 48
2, 1164415, Note_on_c, 0, 50, 48
2, 1164504, Note_off_c, 0, 65, 52
2, 1164505, Note_off_c, 0, 50, 52
2, 1164508, Note_on_c, 0, 54, 48
2, 1164509, Note_on_c, 0, 39, 48
2, 1164615, Note_off_c, 0, 54, 52
2, 1164616, Note_off_c, 0, 39, 52
2, 1164619, Note_on_c, 0, 58, 48
2, 1164620, Note_on_c, 0, 46, 48
2, 1164709, Note_off_c, 0, 58, 52
2, 1164710, Note_off_c, 0, 46, 52
2, 1164711, Note_on_c, 0, 66, 60
2, 1164712, Note_on_c, 0, 51, 48
2, 1164803, Note_off_c, 0, 66, 55
2, 1164805, Note_off_c, 0, 51, 52
2, 1164806, Control_c, 0, 64, 0
2, 1164807, Note_on_c, 0, 56, 96
2, 1164808, Note_on_c, 0, 41, 84
2, 1164897, Note_on_c, 0, 61, 60
2, 1164898, Note_on_c, 0, 49, 48
2, 1164989, Note_off_c, 0, 61, 55
2, 1164990, Note_off_c, 0, 49, 52
2, 1164991, Control_c, 0, 64, 127
2, 1164992, Note_on_c, 0, 68, 60
2, 1164994, Note_on_c, 0, 53, 48
2, 1165010, Note_off_c, 0, 56, 63
2, 1165016, Note_off_c, 0, 41, 61
2, 1165084, Note_off_c, 0, 68, 55
2, 1165087, Note_off_c, 0, 53, 52
2, 1165088, Note_on_c, 0, 56, 48
2, 1165089, Note_on_c, 0, 41, 48
2, 1165192, Note_off_c, 0, 56, 52
2, 1165195, Note_off_c, 0, 41, 52
2, 1165197, Note_on_c, 0, 61, 59
2, 1165198, Note_on_c, 0, 49, 47
2, 1165287, Note_off_c, 0, 61, 54
2, 1165288, Note_off_c, 0, 49, 51
2, 1165290, Note_on_c, 0, 68, 58
2, 1165291, Note_on_c, 0, 53, 46
2, 1165382, Note_off_c, 0, 68, 54
2, 1165382, Note_off_c, 0, 53, 51
2, 1165384, Note_on_c, 0, 56, 45
2, 1165385, Note_on_c, 0, 41, 45
2, 1165477, Note_off_c, 0, 56, 51
2, 1165478, Note_off_c, 0, 41, 51
2, 1165481, Note_on_c, 0, 61, 56
2, 1165482, Note_on_c, 0, 49, 44
2, 1165587, Note_off_c, 0, 61, 54
2, 1165588, Note_off_c, 0, 49, 51
2, 1165590, Note_on_c, 0, 68, 56
2, 1165592, Note_on_c, 0, 53, 44
2, 1165680, Note_off_c, 0, 68, 54
2, 1165682, Note_off_c, 0, 53, 51
2, 1165683, Note_on_c, 0, 56, 43
2, 1165684, Control_c, 0, 64, 0
2, 1165686, Note_on_c, 0, 41, 43
2, 1165791, Note_off_c, 0, 56, 50
2, 1165792, Note_off_c, 0, 41, 50
2, 1165793, Note_on_c, 0, 61, 54
2, 1165795, Note_on_c, 0, 49, 42
2, 1165865, Control_c, 0, 64, 127
2, 1165899, Note_off_c, 0, 61, 53
2, 1165900, Note_off_c, 0, 49, 50
2, 1165902, Note_on_c, 0, 68, 53
2, 1165904, Note_on_c, 0, 53, 41
2, 1165992, Note_off_c, 0, 68, 53
2, 1165994, Note_off_c, 0, 53, 50
2, 1165995, Note_on_c, 0, 56, 40
2, 1165996, Note_on_c, 0, 41, 40
2, 1166102, Note_off_c, 0, 56, 50
2, 1166105, Note_off_c, 0, 41, 50
2, 1166106, Note_on_c, 0, 61, 52
2, 1166108, Note_on_c, 0, 49, 40
2, 1166211, Note_off_c, 0, 61, 53
2, 1166214, Note_off_c, 0, 49, 50
2, 1166215, Note_on_c, 0, 68, 51
2, 1166217, Note_on_c, 0, 53, 39
2, 1166305, Note_off_c, 0, 68, 52
2, 1166307, Note_off_c, 0, 53, 49
2, 1166308, Note_on_c, 0, 56, 38
2, 1166310, Note_on_c, 0, 41, 38
2, 1166416, Note_off_c, 0, 56, 49
2, 1166419, Note_off_c, 0, 41, 49
2, 1166420, Note_on_c, 0, 61, 49
2, 1166421, Note_on_c, 0, 49, 37
2, 1166509, Note_off_c, 0, 61, 52
2, 1166509, Note_off_c, 0, 49, 49
2, 1166511, Note_on_c, 0, 68, 48
2, 1166512, Note_on_c, 0, 53, 36
2, 1166618, Note_off_c, 0, 68, 52
2, 1166619, Note_off_c, 0, 53, 49
2, 1166621, Control_c, 0, 64, 0
2, 1166623, Note_on_c, 0, 42, 30
2, 1166623, Note_on_c, 0, 58, 48
2, 1166714, Note_off_c, 0, 42, 47
2, 1166715, Note_off_c, 0, 58, 52
2, 1166716, Note_on_c, 0, 49, 33
2, 1166718, Note_on_c, 0, 61, 49
2, 1166804, Control_c, 0, 64, 127
2, 1166808, Note_off_c, 0, 49, 48
2, 1166809, Note_off_c, 0, 61, 52
2, 1166811, Note_on_c, 0, 54, 36
2, 1166812, Note_on_c, 0, 70, 50
2, 1166902, Note_off_c, 0, 54, 49
2, 1166903, Note_off_c, 0, 70, 52
2, 1166903, Note_on_c, 0, 58, 39
2, 1166905, Note_on_c, 0, 42, 39
2, 1166997, Note_off_c, 0, 58, 49
2, 1166998, Note_off_c, 0, 42, 49
2, 1166999, Note_on_c, 0, 61, 42
2, 1167002, Note_on_c, 0, 49, 42
2, 1167088, Note_off_c, 0, 61, 50
2, 1167091, Note_off_c, 0, 49, 50
2, 1167091, Note_on_c, 0, 70, 45
2, 1167093, Note_on_c, 0, 54, 45
2, 1167183, Note_off_c, 0, 70, 51
2, 1167185, Note_off_c, 0, 54, 51
2, 1167187, Note_on_c, 0, 58, 48
2, 1167188, Note_on_c, 0, 42, 48
2, 1167293, Note_off_c, 0, 58, 52
2, 1167294, Note_off_c, 0, 42, 52
2, 1167295, Note_on_c, 0, 61, 51
2, 1167296, Note_on_c, 0, 49, 51
2, 1167387, Note_off_c, 0, 61, 52
2, 1167388, Note_off_c, 0, 49, 52
2, 1167391, Note_on_c, 0, 70, 54
2, 1167392, Note_on_c, 0, 54, 54
2, 1167497, Note_off_c, 0, 70, 53
2, 1167498, Note_off_c, 0, 54, 53
2, 1167500, Control_c, 0, 64, 0
2, 1167501, Note_on_c, 0, 58, 58
2, 1167503, Note_on_c, 0, 30, 58
2, 1167590, Note_off_c, 0, 58, 54
2, 1167592, Note_off_c, 0, 30, 54
2, 1167594, Note_on_c, 0, 61, 61
2, 1167595, Note_on_c, 0, 37, 61
2, 1167681, Control_c, 0, 64, 127
2, 1167701, Note_off_c, 0, 61, 55
2, 1167702, Note_off_c, 0, 37, 55
2, 1167705, Note_on_c, 0, 70, 65
2, 1167706, Note_on_c, 0, 42, 65
2, 1167795, Note_off_c, 0, 70, 56
2, 1167796, Note_off_c, 0, 42, 56
2, 1167797, Note_on_c, 0, 58, 68
2, 1167798, Note_on_c, 0, 30, 68
2, 1167904, Note_off_c, 0, 58, 57
2, 1167905, Note_off_c, 0, 30, 57
2, 1167906, Note_on_c, 0, 61, 71
2, 1167909, Note_on_c, 0, 37, 71
2, 1168015, Note_off_c, 0, 61, 58
2, 1168017, Note_off_c, 0, 37, 58
2, 1168019, Note_on_c, 0, 70, 75
2, 1168020, Note_on_c, 0, 42, 75
2, 1168125, Note_off_c, 0, 70, 59
2, 1168126, Note_off_c, 0, 42, 59
2, 1168128, Note_on_c, 0, 58, 78
2, 1168129, Note_on_c, 0, 30, 78
2, 1168234, Note_off_c, 0, 58, 59
2, 1168235, Note_off_c, 0, 30, 59
2, 1168236, Note_on_c, 0, 61, 82
2, 1168238, Note_on_c, 0, 37, 82
2, 1168344, Note_off_c, 0, 61, 60
2, 1168345, Note_off_c, 0, 37, 60
2, 1168346, Note_on_c, 0, 70, 85
2, 1168347, Note_on_c, 0, 42, 85
2, 1168453, Note_off_c, 0, 70, 61
2, 1168453, Note_off_c, 0, 42, 61
2, 1168455, Control_c, 0, 64, 0
2, 1168456, Note_on_c, 0, 58, 72
2, 1168457, Note_on_c, 0, 35, 60
2, 1168543, Note_off_c, 0, 58, 58
2, 1168548, Note_off_c, 0, 35, 55
2, 1168549, Note_on_c, 0, 63, 72
2, 1168551, Note_on_c, 0, 39, 60
2, 1168636, Control_c, 0, 64, 127
2, 1168639, Note_off_c, 0, 63, 58
2, 1168643, Note_off_c, 0, 39, 55
2, 1168644, Note_on_c, 0, 70, 71
2, 1168645, Note_on_c, 0, 47, 59
2, 1168734, Note_off_c, 0, 70, 58
2, 1168734, Note_off_c, 0, 47, 54
2, 1168736, Note_on_c, 0, 56, 69
2, 1168737, Note_on_c, 0, 35, 57
2, 1168829, Note_off_c, 0, 56, 57
2, 1168830, Note_off_c, 0, 35, 54
2, 1168831, Note_on_c, 0, 63, 67
2, 1168833, Note_on_c, 0, 39, 55
2, 1168922, Note_off_c, 0, 63, 57
2, 1168924, Note_off_c, 0, 39, 53
2, 1168925, Note_on_c, 0, 68, 66
2, 1168926, Note_on_c, 0, 47, 54
2, 1169031, Note_off_c, 0, 68, 56
2, 1169032, Note_off_c, 0, 47, 53
2, 1169035, Note_on_c, 0, 56, 64
2, 1169036, Note_on_c, 0, 35, 52
2, 1169126, Note_off_c, 0, 56, 56
2, 1169126, Note_off_c, 0, 35, 53
2, 1169127, Note_on_c, 0, 63, 62
2, 1169129, Note_on_c, 0, 39, 50
2, 1169222, Note_off_c, 0, 63, 55
2, 1169224, Note_off_c, 0, 39, 52
2, 1169224, Note_on_c, 0, 68, 60
2, 1169226, Note_on_c, 0, 47, 48
2, 1169331, Note_off_c, 0, 68, 55
2, 1169332, Note_off_c, 0, 47, 52
2, 1169334, Control_c, 0, 64, 0
2, 1169335, Note_on_c, 0, 56, 60
2, 1169336, Note_on_c, 0, 35, 48
2, 1169422, Note_off_c, 0, 56, 55
2, 1169424, Note_off_c, 0, 35, 52
2, 1169426, Note_on_c, 0, 63, 60
2, 1169429, Note_on_c, 0, 39, 48
2, 1169511, Control_c, 0, 64, 127
2, 1169533, Note_off_c, 0, 63, 55
2, 1169535, Note_off_c, 0, 39, 52
2, 1169536, Note_on_c, 0, 68, 59
2, 1169538, Note_on_c, 0, 47, 48
2, 1169642, Note_off_c, 0, 68, 54
2, 1169644, Note_off_c, 0, 47, 52
2, 1169645, Note_on_c, 0, 54, 47
2, 1169647, Note_on_c, 0, 35, 47
2, 1169736, Note_off_c, 0, 54, 51
2, 1169740, Note_off_c, 0, 35, 51
2, 1169740, Note_on_c, 0, 56, 47
2, 1169742, Note_on_c, 0, 39, 47
2, 1169829, Note_off_c, 0, 56, 51
2, 1169832, Note_off_c, 0, 39, 51
2, 1169832, Note_on_c, 0, 66, 57
2, 1169834, Note_on_c, 0, 47, 47
2, 1169925, Note_off_c, 0, 66, 54
2, 1169926, Note_off_c, 0, 47, 51
2, 1169928, Note_on_c, 0, 54, 46
2, 1169930, Note_on_c, 0, 35, 46
2, 1170035, Note_off_c, 0, 54, 51
2, 1170037, Note_off_c, 0, 35, 51
2, 1170038, Note_on_c, 0, 56, 46
2, 1170039, Note_on_c, 0, 39, 46
2, 1170129, Note_off_c, 0, 56, 51
2, 1170129, Note_off_c, 0, 39, 51
2, 1170133, Note_on_c, 0, 66, 55
2, 1170133, Note_on_c, 0, 47, 46
2, 1170224, Note_off_c, 0, 66, 53
2, 1170224, Note_off_c, 0, 47, 51
2, 1170226, Control_c, 0, 64, 0
2, 1170227, Note_on_c, 0, 54, 45
2, 1170228, Note_on_c, 0, 35, 45
2, 1170315, Note_off_c, 0, 54, 51
2, 1170317, Note_off_c, 0, 35, 51
2, 1170319, Note_on_c, 0, 56, 45
2, 1170322, Note_on_c, 0, 39, 45
2, 1170408, Control_c, 0, 64, 127
2, 1170426, Note_off_c, 0, 56, 51
2, 1170428, Note_off_c, 0, 39, 51
2, 1170429, Note_on_c, 0, 66, 53
2, 1170430, Note_on_c, 0, 47, 45
2, 1170519, Note_off_c, 0, 66, 53
2, 1170522, Note_off_c, 0, 47, 51
2, 1170523, Note_on_c, 0, 53, 44
2, 1170524, Note_on_c, 0, 35, 44
2, 1170615, Note_off_c, 0, 53, 51
2, 1170616, Note_off_c, 0, 35, 51
2, 1170617, Note_on_c, 0, 56, 44
2, 1170619, Note_on_c, 0, 39, 44
2, 1170708, Note_off_c, 0, 56, 51
2, 1170710, Note_off_c, 0, 39, 51
2, 1170712, Note_on_c, 0, 65, 51
2, 1170713, Note_on_c, 0, 47, 44
2, 1170801, Note_off_c, 0, 65, 52
2, 1170803, Note_off_c, 0, 47, 51
2, 1170804, Note_on_c, 0, 53, 43
2, 1170805, Note_on_c, 0, 35, 43
2, 1170912, Note_off_c, 0, 53, 50
2, 1170912, Note_off_c, 0, 35, 50
2, 1170914, Note_on_c, 0, 56, 43
2, 1170916, Note_on_c, 0, 39, 43
2, 1171007, Note_off_c, 0, 56, 50
2, 1171008, Note_off_c, 0, 39, 50
2, 1171010, Note_on_c, 0, 65, 49
2, 1171011, Note_on_c, 0, 47, 43
2, 1171099, Note_off_c, 0, 65, 52
2, 1171101, Note_off_c, 0, 47, 50
2, 1171103, Control_c, 0, 64, 0
2, 1171105, Note_on_c, 0, 53, 42
2, 1171106, Note_on_c, 0, 35, 42
2, 1171209, Note_off_c, 0, 53, 50
2, 1171211, Note_off_c, 0, 35, 50
2, 1171212, Note_on_c, 0, 56, 42
2, 1171214, Note_on_c, 0, 39, 42
2, 1171287, Control_c, 0, 64, 127
2, 1171302, Note_off_c, 0, 56, 50
2, 1171304, Note_off_c, 0, 39, 50
2, 1171305, Note_on_c, 0, 65, 47
2, 1171306, Note_on_c, 0, 47, 42
2, 1171411, Note_off_c, 0, 65, 51
2, 1171414, Note_off_c, 0, 47, 50
2, 1171415, Note_on_c, 0, 54, 41
2, 1171418, Note_on_c, 0, 35, 41
2, 1171523, Note_off_c, 0, 54, 50
2, 1171525, Note_off_c, 0, 35, 50
2, 1171526, Note_on_c, 0, 57, 41
2, 1171527, Note_on_c, 0, 39, 41
2, 1171616, Note_off_c, 0, 57, 50
2, 1171618, Note_off_c, 0, 39, 50
2, 1171619, Note_on_c, 0, 66, 45
2, 1171620, Note_on_c, 0, 47, 41
2, 1171725, Note_off_c, 0, 66, 51
2, 1171728, Note_off_c, 0, 47, 50
2, 1171728, Note_on_c, 0, 51, 40
2, 1171730, Note_on_c, 0, 35, 40
2, 1171836, Note_off_c, 0, 51, 50
2, 1171838, Note_off_c, 0, 35, 50
2, 1171839, Note_on_c, 0, 57, 40
2, 1171840, Note_on_c, 0, 39, 40
2, 1171946, Note_off_c, 0, 57, 50
2, 1171947, Note_off_c, 0, 39, 50
2, 1171949, Note_on_c, 0, 63, 43
2, 1171950, Note_on_c, 0, 47, 40
2, 1172054, Note_off_c, 0, 63, 50
2, 1172058, Note_off_c, 0, 47, 50
2, 1172119, Note_on_c, 0, 62, 42
2, 1172120, Control_c, 0, 64, 0
2, 1172122, Note_on_c, 0, 58, 22
2, 1172123, Note_on_c, 0, 50, 36
2, 1172124, Note_on_c, 0, 46, 30
2, 1172126, Note_on_c, 0, 34, 25
2, 1172259, Note_off_c, 0, 46, 47
2, 1172272, Note_off_c, 0, 50, 49
2, 1172277, Note_off_c, 0, 62, 50
2, 1172285, Note_off_c, 0, 58, 45
2, 1172304, Note_off_c, 0, 34, 46
2, 1172329, Control_c, 0, 64, 127
2, 1172454, Note_on_c, 0, 65, 40
2, 1172463, Note_on_c, 0, 62, 20
2, 1172465, Note_on_c, 0, 53, 38
2, 1172466, Note_on_c, 0, 58, 32
2, 1172467, Note_on_c, 0, 46, 30
2, 1172618, Note_off_c, 0, 62, 45
2, 1172620, Note_off_c, 0, 53, 49
2, 1172628, Note_off_c, 0, 46, 47
2, 1172655, Note_off_c, 0, 65, 50
2, 1172659, Note_off_c, 0, 58, 48
2, 1172827, Note_on_c, 0, 65, 39
2, 1172841, Note_on_c, 0, 62, 19
2, 1172843, Note_on_c, 0, 58, 28
2, 1172844, Note_on_c, 0, 53, 30
2, 1172845, Note_on_c, 0, 46, 37
2, 1173024, Note_off_c, 0, 53, 47
2, 1173039, Note_off_c, 0, 62, 45
2, 1173045, Note_off_c, 0, 65, 49
2, 1173049, Note_off_c, 0, 46, 49
2, 1173051, Note_off_c, 0, 58, 47
2, 1173220, Note_on_c, 0, 65, 37
2, 1173232, Note_on_c, 0, 62, 17
2, 1173233, Note_on_c, 0, 53, 36
2, 1173235, Note_on_c, 0, 58, 30
2, 1173236, Note_on_c, 0, 46, 25
2, 1173409, Note_off_c, 0, 53, 49
2, 1173412, Note_off_c, 0, 58, 47
2, 1173424, Note_off_c, 0, 46, 46
2, 1173453, Note_off_c, 0, 65, 49
2, 1173463, Note_off_c, 0, 62, 44
2, 1173878, Control_c, 0, 64, 0
2, 1174043, Note_on_c, 0, 65, 48
2, 1174452, Note_off_c, 0, 65, 52
2, 1174453, Note_on_c, 0, 61, 48
2, 1174454, Control_c, 0, 64, 127
2, 1174456, Note_on_c, 0, 46, 36
2, 1174545, Note_off_c, 0, 61, 52
2, 1174548, Note_off_c, 0, 46, 49
2, 1174549, Note_on_c, 0, 65, 49
2, 1174550, Note_on_c, 0, 53, 37
2, 1174640, Note_off_c, 0, 65, 52
2, 1174641, Note_off_c, 0, 53, 49
2, 1174642, Note_on_c, 0, 73, 50
2, 1174644, Note_on_c, 0, 58, 38
2, 1174733, Note_off_c, 0, 73, 52
2, 1174736, Note_off_c, 0, 58, 49
2, 1174737, Note_on_c, 0, 61, 52
2, 1174739, Note_on_c, 0, 46, 40
2, 1174828, Note_off_c, 0, 61, 53
2, 1174830, Note_off_c, 0, 46, 50
2, 1174831, Note_on_c, 0, 65, 53
2, 1174833, Note_on_c, 0, 53, 41
2, 1174922, Note_off_c, 0, 65, 53
2, 1174923, Note_off_c, 0, 53, 50
2, 1174925, Note_on_c, 0, 73, 54
2, 1174926, Note_on_c, 0, 58, 42
2, 1175015, Note_off_c, 0, 73, 53
2, 1175016, Note_off_c, 0, 58, 50
2, 1175018, Note_on_c, 0, 61, 56
2, 1175020, Note_on_c, 0, 46, 44
2, 1175126, Note_off_c, 0, 61, 54
2, 1175127, Note_off_c, 0, 46, 51
2, 1175129, Note_on_c, 0, 65, 57
2, 1175130, Note_on_c, 0, 53, 45
2, 1175222, Note_off_c, 0, 65, 54
2, 1175222, Note_off_c, 0, 53, 51
2, 1175224, Note_on_c, 0, 73, 58
2, 1175226, Note_on_c, 0, 58, 46
2, 1175312, Note_off_c, 0, 73, 54
2, 1175315, Note_off_c, 0, 58, 51
2, 1175315, Control_c, 0, 64, 0
2, 1175317, Note_on_c, 0, 61, 60
2, 1175318, Note_on_c, 0, 46, 48
2, 1175423, Note_off_c, 0, 61, 55
2, 1175425, Note_off_c, 0, 46, 52
2, 1175426, Note_on_c, 0, 65, 60
2, 1175427, Note_on_c, 0, 53, 48
2, 1175508, Control_c, 0, 64, 127
2, 1175516, Note_off_c, 0, 65, 55
2, 1175518, Note_off_c, 0, 53, 52
2, 1175520, Note_on_c, 0, 73, 59
2, 1175522, Note_on_c, 0, 58, 47
2, 1175626, Note_off_c, 0, 73, 54
2, 1175627, Note_off_c, 0, 58, 51
2, 1175629, Note_on_c, 0, 60, 57
2, 1175631, Note_on_c, 0, 45, 45
2, 1175720, Note_off_c, 0, 60, 54
2, 1175723, Note_off_c, 0, 45, 51
2, 1175724, Note_on_c, 0, 65, 55
2, 1175725, Note_on_c, 0, 53, 43
2, 1175830, Note_off_c, 0, 65, 53
2, 1175833, Note_off_c, 0, 53, 50
2, 1175834, Note_on_c, 0, 72, 54
2, 1175836, Note_on_c, 0, 57, 42
2, 1175939, Note_off_c, 0, 72, 53
2, 1175941, Note_off_c, 0, 57, 50
2, 1175942, Note_on_c, 0, 61, 52
2, 1175943, Note_on_c, 0, 46, 40
2, 1176035, Note_off_c, 0, 61, 53
2, 1176036, Note_off_c, 0, 46, 50
2, 1176038, Note_on_c, 0, 65, 50
2, 1176039, Note_on_c, 0, 53, 38
2, 1176144, Note_off_c, 0, 65, 52
2, 1176145, Note_off_c, 0, 53, 49
2, 1176147, Note_on_c, 0, 73, 48
2, 1176149, Note_on_c, 0, 58, 36
2, 1176253, Note_off_c, 0, 73, 52
2, 1176254, Note_off_c, 0, 58, 49
2, 1176257, Note_on_c, 0, 63, 93
2, 1176259, Note_on_c, 0, 48, 81
2, 1176263, Control_c, 0, 64, 0
2, 1176351, Note_on_c, 0, 65, 48
2, 1176353, Note_on_c, 0, 53, 36
2, 1176383, Note_off_c, 0, 48, 60
2, 1176398, Note_off_c, 0, 63, 63
2, 1176442, Note_off_c, 0, 65, 52
2, 1176443, Note_off_c, 0, 53, 49
2, 1176444, Note_on_c, 0, 75, 48
2, 1176446, Note_on_c, 0, 60, 36
2, 1176451, Control_c, 0, 64, 127
2, 1176535, Note_off_c, 0, 75, 52
2, 1176537, Note_off_c, 0, 60, 49
2, 1176538, Note_on_c, 0, 63, 48
2, 1176540, Note_on_c, 0, 48, 36
2, 1176628, Note_off_c, 0, 63, 52
2, 1176631, Note_off_c, 0, 48, 49
2, 1176632, Note_on_c, 0, 65, 49
2, 1176634, Note_on_c, 0, 53, 37
2, 1176723, Note_off_c, 0, 65, 52
2, 1176725, Note_off_c, 0, 53, 49
2, 1176726, Note_on_c, 0, 75, 50
2, 1176728, Note_on_c, 0, 60, 38
2, 1176832, Note_off_c, 0, 75, 52
2, 1176835, Note_off_c, 0, 60, 49
2, 1176835, Note_on_c, 0, 63, 51
2, 1176837, Note_on_c, 0, 48, 39
2, 1176926, Note_off_c, 0, 63, 52
2, 1176928, Note_off_c, 0, 48, 49
2, 1176930, Note_on_c, 0, 65, 52
2, 1176931, Note_on_c, 0, 53, 40
2, 1177022, Note_off_c, 0, 65, 53
2, 1177023, Note_off_c, 0, 53, 50
2, 1177024, Note_on_c, 0, 75, 52
2, 1177025, Note_on_c, 0, 60, 40
2, 1177131, Note_off_c, 0, 75, 53
2, 1177132, Note_off_c, 0, 60, 50
2, 1177134, Control_c, 0, 64, 0
2, 1177136, Note_on_c, 0, 63, 53
2, 1177137, Note_on_c, 0, 48, 41
2, 1177226, Note_off_c, 0, 63, 53
2, 1177227, Note_off_c, 0, 48, 50
2, 1177228, Note_on_c, 0, 65, 54
2, 1177229, Note_on_c, 0, 53, 42
2, 1177319, Control_c, 0, 64, 127
2, 1177335, Note_off_c, 0, 65, 53
2, 1177336, Note_off_c, 0, 53, 50
2, 1177338, Note_on_c, 0, 75, 55
2, 1177339, Note_on_c, 0, 60, 43
2, 1177428, Note_off_c, 0, 75, 53
2, 1177430, Note_off_c, 0, 60, 50
2, 1177431, Note_on_c, 0, 63, 56
2, 1177432, Note_on_c, 0, 48, 44
2, 1177539, Note_off_c, 0, 63, 54
2, 1177539, Note_off_c, 0, 48, 51
2, 1177540, Note_on_c, 0, 65, 56
2, 1177541, Note_on_c, 0, 53, 44
2, 1177630, Note_off_c, 0, 65, 54
2, 1177634, Note_off_c, 0, 53, 51
2, 1177636, Note_on_c, 0, 75, 57
2, 1177637, Note_on_c, 0, 60, 45
2, 1177740, Note_off_c, 0, 75, 54
2, 1177742, Note_off_c, 0, 60, 51
2, 1177744, Note_on_c, 0, 63, 58
2, 1177746, Note_on_c, 0, 48, 46
2, 1177850, Note_off_c, 0, 63, 54
2, 1177852, Note_off_c, 0, 48, 51
2, 1177854, Note_on_c, 0, 65, 59
2, 1177855, Note_on_c, 0, 53, 47
2, 1177962, Note_off_c, 0, 65, 54
2, 1177964, Note_off_c, 0, 53, 51
2, 1177964, Note_on_c, 0, 75, 60
2, 1177966, Note_on_c, 0, 60, 48
2, 1178053, Note_off_c, 0, 75, 55
2, 1178056, Note_off_c, 0, 60, 52
2, 1178057, Control_c, 0, 64, 0
2, 1178060, Note_on_c, 0, 61, 60
2, 1178061, Note_on_c, 0, 46, 48
2, 1178150, Note_off_c, 0, 61, 55
2, 1178151, Note_off_c, 0, 46, 52
2, 1178152, Note_on_c, 0, 65, 60
2, 1178153, Note_on_c, 0, 53, 48
2, 1178240, Control_c, 0, 64, 127
2, 1178242, Note_off_c, 0, 65, 55
2, 1178244, Note_off_c, 0, 53, 52
2, 1178245, Note_on_c, 0, 73, 59
2, 1178246, Note_on_c, 0, 58, 47
2, 1178339, Note_off_c, 0, 73, 54
2, 1178339, Note_off_c, 0, 58, 51
2, 1178342, Note_on_c, 0, 61, 58
2, 1178343, Note_on_c, 0, 46, 46
2, 1178447, Note_off_c, 0, 61, 54
2, 1178448, Note_off_c, 0, 46, 51
2, 1178451, Note_on_c, 0, 65, 58
2, 1178452, Note_on_c, 0, 53, 46
2, 1178542, Note_off_c, 0, 65, 54
2, 1178543, Note_off_c, 0, 53, 51
2, 1178544, Note_on_c, 0, 73, 57
2, 1178545, Note_on_c, 0, 58, 45
2, 1178634, Note_off_c, 0, 73, 54
2, 1178635, Note_off_c, 0, 58, 51
2, 1178637, Note_on_c, 0, 61, 56
2, 1178638, Note_on_c, 0, 46, 44
2, 1178729, Note_off_c, 0, 61, 54
2, 1178732, Note_off_c, 0, 46, 51
2, 1178733, Note_on_c, 0, 65, 56
2, 1178734, Note_on_c, 0, 53, 44
2, 1178838, Note_off_c, 0, 65, 54
2, 1178840, Note_off_c, 0, 53, 51
2, 1178842, Note_on_c, 0, 73, 55
2, 1178844, Note_on_c, 0, 58, 43
2, 1178932, Note_off_c, 0, 73, 53
2, 1178935, Note_off_c, 0, 58, 50
2, 1178936, Control_c, 0, 64, 0
2, 1178937, Note_on_c, 0, 61, 54
2, 1178938, Note_on_c, 0, 46, 42
2, 1179025, Note_off_c, 0, 61, 53
2, 1179027, Note_off_c, 0, 46, 50
2, 1179028, Note_on_c, 0, 65, 53
2, 1179030, Note_on_c, 0, 53, 41
2, 1179115, Control_c, 0, 64, 127
2, 1179136, Note_off_c, 0, 65, 53
2, 1179138, Note_off_c, 0, 53, 50
2, 1179139, Note_on_c, 0, 73, 53
2, 1179140, Note_on_c, 0, 58, 41
2, 1179230, Note_off_c, 0, 73, 53
2, 1179231, Note_off_c, 0, 58, 50
2, 1179233, Note_on_c, 0, 60, 52
2, 1179234, Note_on_c, 0, 45, 40
2, 1179340, Note_off_c, 0, 60, 53
2, 1179341, Note_off_c, 0, 45, 50
2, 1179343, Note_on_c, 0, 65, 51
2, 1179344, Note_on_c, 0, 53, 39
2, 1179450, Note_off_c, 0, 65, 52
2, 1179450, Note_off_c, 0, 53, 49
2, 1179451, Note_on_c, 0, 72, 51
2, 1179453, Note_on_c, 0, 57, 39
2, 1179545, Note_off_c, 0, 72, 52
2, 1179546, Note_off_c, 0, 57, 49
2, 1179547, Note_on_c, 0, 61, 50
2, 1179550, Note_on_c, 0, 46, 38
2, 1179653, Note_off_c, 0, 61, 52
2, 1179655, Note_off_c, 0, 46, 49
2, 1179656, Note_on_c, 0, 65, 49
2, 1179658, Note_on_c, 0, 53, 37
2, 1179763, Note_off_c, 0, 65, 52
2, 1179764, Note_off_c, 0, 53, 49
2, 1179765, Note_on_c, 0, 73, 48
2, 1179766, Note_on_c, 0, 58, 36
2, 1179873, Note_off_c, 0, 73, 52
2, 1179873, Note_off_c, 0, 58, 49
2, 1179875, Note_on_c, 0, 62, 93
2, 1179876, Control_c, 0, 64, 0
2, 1179878, Note_on_c, 0, 44, 81
2, 1179966, Note_on_c, 0, 70, 48
2, 1179969, Note_on_c, 0, 46, 36
2, 1180007, Note_off_c, 0, 62, 63
2, 1180017, Note_off_c, 0, 44, 60
2, 1180060, Note_off_c, 0, 70, 52
2, 1180062, Note_off_c, 0, 46, 49
2, 1180063, Note_on_c, 0, 74, 48
2, 1180064, Control_c, 0, 64, 127
2, 1180065, Note_on_c, 0, 56, 36
2, 1180155, Note_off_c, 0, 74, 52
2, 1180155, Note_off_c, 0, 56, 49
2, 1180156, Note_on_c, 0, 62, 49
2, 1180158, Note_on_c, 0, 44, 37
2, 1180249, Note_off_c, 0, 62, 52
2, 1180251, Note_off_c, 0, 44, 49
2, 1180253, Note_on_c, 0, 70, 51
2, 1180254, Note_on_c, 0, 46, 39
2, 1180344, Note_off_c, 0, 70, 52
2, 1180344, Note_off_c, 0, 46, 49
2, 1180345, Note_on_c, 0, 74, 53
2, 1180347, Note_on_c, 0, 56, 41
2, 1180436, Note_off_c, 0, 74, 53
2, 1180437, Note_off_c, 0, 56, 50
2, 1180439, Note_on_c, 0, 62, 54
2, 1180440, Note_on_c, 0, 44, 42
2, 1180544, Note_off_c, 0, 62, 53
2, 1180546, Note_off_c, 0, 44, 50
2, 1180547, Note_on_c, 0, 70, 56
2, 1180549, Note_on_c, 0, 46, 44
2, 1180642, Note_off_c, 0, 70, 54
2, 1180643, Note_off_c, 0, 46, 51
2, 1180644, Note_on_c, 0, 74, 58
2, 1180647, Note_on_c, 0, 56, 46
2, 1180733, Note_off_c, 0, 74, 54
2, 1180735, Note_off_c, 0, 56, 51
2, 1180736, Control_c, 0, 64, 0
2, 1180737, Note_on_c, 0, 62, 60
2, 1180739, Note_on_c, 0, 44, 48
2, 1180844, Note_off_c, 0, 62, 55
2, 1180846, Note_off_c, 0, 44, 52
2, 1180847, Note_on_c, 0, 70, 60
2, 1180849, Note_on_c, 0, 46, 48
2, 1180922, Control_c, 0, 64, 127
2, 1180937, Note_off_c, 0, 70, 55
2, 1180939, Note_off_c, 0, 46, 52
2, 1180940, Note_on_c, 0, 74, 59
2, 1180941, Note_on_c, 0, 56, 47
2, 1181046, Note_off_c, 0, 74, 54
2, 1181047, Note_off_c, 0, 56, 51
2, 1181049, Note_on_c, 0, 62, 57
2, 1181050, Note_on_c, 0, 44, 45
2, 1181140, Note_off_c, 0, 62, 54
2, 1181141, Note_off_c, 0, 44, 51
2, 1181145, Note_on_c, 0, 70, 55
2, 1181146, Note_on_c, 0, 46, 43
2, 1181251, Note_off_c, 0, 70, 53
2, 1181252, Note_off_c, 0, 46, 50
2, 1181253, Note_on_c, 0, 74, 54
2, 1181255, Note_on_c, 0, 56, 42
2, 1181360, Note_off_c, 0, 74, 53
2, 1181361, Note_off_c, 0, 56, 50
2, 1181362, Note_on_c, 0, 62, 52
2, 1181364, Note_on_c, 0, 44, 40
2, 1181456, Note_off_c, 0, 62, 53
2, 1181457, Note_off_c, 0, 44, 50
2, 1181459, Note_on_c, 0, 70, 50
2, 1181460, Note_on_c, 0, 46, 38
2, 1181564, Note_off_c, 0, 70, 52
2, 1181565, Note_off_c, 0, 46, 49
2, 1181567, Note_on_c, 0, 74, 48
2, 1181568, Note_on_c, 0, 56, 36
2, 1181674, Note_off_c, 0, 74, 52
2, 1181674, Note_off_c, 0, 56, 49
2, 1181675, Control_c, 0, 64, 0
2, 1181677, Note_on_c, 0, 63, 40
2, 1181679, Note_on_c, 0, 42, 40
2, 1181770, Note_off_c, 0, 63, 50
2, 1181771, Note_off_c, 0, 42, 50
2, 1181774, Note_on_c, 0, 70, 42
2, 1181775, Note_on_c, 0, 46, 42
2, 1181860, Control_c, 0, 64, 127
2, 1181863, Note_off_c, 0, 70, 50
2, 1181865, Note_off_c, 0, 46, 50
2, 1181865, Note_on_c, 0, 75, 45
2, 1181867, Note_on_c, 0, 54, 45
2, 1181954, Note_off_c, 0, 75, 51
2, 1181956, Note_off_c, 0, 54, 51
2, 1181957, Note_on_c, 0, 63, 48
2, 1181959, Note_on_c, 0, 42, 48
2, 1182050, Note_off_c, 0, 63, 52
2, 1182054, Note_off_c, 0, 42, 52
2, 1182054, Note_on_c, 0, 70, 51
2, 1182056, Note_on_c, 0, 46, 51
2, 1182159, Note_off_c, 0, 70, 52
2, 1182162, Note_off_c, 0, 46, 52
2, 1182163, Note_on_c, 0, 75, 54
2, 1182164, Note_on_c, 0, 54, 54
2, 1182253, Note_off_c, 0, 75, 53
2, 1182254, Note_off_c, 0, 54, 53
2, 1182256, Note_on_c, 0, 65, 57
2, 1182257, Note_on_c, 0, 38, 57
2, 1182347, Note_off_c, 0, 65, 54
2, 1182347, Note_off_c, 0, 38, 54
2, 1182349, Note_on_c, 0, 70, 60
2, 1182351, Note_on_c, 0, 46, 60
2, 1182443, Note_off_c, 0, 70, 55
2, 1182444, Note_off_c, 0, 46, 55
2, 1182447, Note_on_c, 0, 77, 63
2, 1182447, Note_on_c, 0, 50, 63
2, 1182553, Note_off_c, 0, 77, 55
2, 1182553, Note_off_c, 0, 50, 55
2, 1182556, Note_on_c, 0, 66, 66
2, 1182557, Control_c, 0, 64, 0
2, 1182558, Note_on_c, 0, 39, 66
2, 1182647, Note_off_c, 0, 66, 56
2, 1182648, Note_off_c, 0, 39, 56
2, 1182649, Note_on_c, 0, 70, 69
2, 1182650, Note_on_c, 0, 46, 69
2, 1182736, Control_c, 0, 64, 127
2, 1182738, Note_off_c, 0, 70, 57
2, 1182739, Note_off_c, 0, 46, 57
2, 1182741, Note_on_c, 0, 78, 72
2, 1182743, Note_on_c, 0, 51, 72
2, 1182833, Note_off_c, 0, 78, 58
2, 1182836, Note_off_c, 0, 51, 58
2, 1182837, Note_on_c, 0, 66, 75
2, 1182838, Note_on_c, 0, 39, 75
2, 1182926, Note_off_c, 0, 66, 59
2, 1182928, Note_off_c, 0, 39, 59
2, 1182929, Note_on_c, 0, 70, 78
2, 1182930, Note_on_c, 0, 46, 78
2, 1183022, Note_off_c, 0, 70, 59
2, 1183023, Note_off_c, 0, 46, 59
2, 1183026, Note_on_c, 0, 78, 80
2, 1183027, Note_on_c, 0, 51, 80
2, 1183115, Note_off_c, 0, 78, 60
2, 1183117, Note_off_c, 0, 51, 60
2, 1183118, Note_on_c, 0, 69, 83
2, 1183119, Note_on_c, 0, 35, 83
2, 1183227, Note_off_c, 0, 69, 60
2, 1183227, Note_off_c, 0, 35, 60
2, 1183229, Note_on_c, 0, 75, 87
2, 1183230, Note_on_c, 0, 39, 87
2, 1183318, Note_off_c, 0, 75, 61
2, 1183320, Note_off_c, 0, 39, 61
2, 1183321, Note_on_c, 0, 81, 89
2, 1183322, Note_on_c, 0, 47, 90
2, 1183416, Note_off_c, 0, 81, 62
2, 1183417, Note_off_c, 0, 47, 62
2, 1183417, Control_c, 0, 64, 0
2, 1183420, Note_on_c, 0, 70, 93
2, 1183421, Note_on_c, 0, 46, 92
2, 1183422, Note_on_c, 0, 34, 92
2, 1183525, Note_off_c, 0, 70, 63
2, 1183526, Note_on_c, 0, 74, 91
2, 1183599, Control_c, 0, 64, 127
2, 1183616, Note_off_c, 0, 74, 62
2, 1183617, Note_on_c, 0, 82, 91
2, 1183709, Note_off_c, 0, 82, 62
2, 1183711, Note_off_c, 0, 34, 62
2, 1183713, Note_off_c, 0, 46, 62
2, 1183714, Control_c, 0, 64, 0
2, 1183715, Note_on_c, 0, 68, 90
2, 1183806, Note_off_c, 0, 68, 62
2, 1183807, Note_on_c, 0, 71, 89
2, 1183899, Note_off_c, 0, 71, 62
2, 1183900, Note_on_c, 0, 80, 88
2, 1183994, Note_off_c, 0, 80, 62
2, 1183995, Note_on_c, 0, 66, 87
2, 1184102, Note_off_c, 0, 66, 61
2, 1184104, Note_on_c, 0, 70, 86
2, 1184198, Note_off_c, 0, 70, 61
2, 1184199, Note_on_c, 0, 78, 85
2, 1184289, Note_off_c, 0, 78, 61
2, 1184290, Note_on_c, 0, 65, 84
2, 1184398, Note_off_c, 0, 65, 61
2, 1184400, Note_on_c, 0, 68, 83
2, 1184492, Note_off_c, 0, 68, 60
2, 1184494, Note_on_c, 0, 77, 82
2, 1184601, Note_off_c, 0, 77, 60
2, 1184604, Note_on_c, 0, 63, 81
2, 1184711, Note_off_c, 0, 63, 60
2, 1184714, Note_on_c, 0, 66, 80
2, 1184807, Note_off_c, 0, 66, 60
2, 1184808, Note_on_c, 0, 75, 79
2, 1184916, Note_off_c, 0, 75, 60
2, 1184917, Note_on_c, 0, 62, 78
2, 1185025, Note_off_c, 0, 62, 59
2, 1185027, Note_on_c, 0, 65, 77
2, 1185137, Note_off_c, 0, 65, 59
2, 1185138, Note_on_c, 0, 74, 76
2, 1185247, Note_off_c, 0, 74, 59
2, 1185248, Control_c, 0, 64, 127
2, 1185251, Note_on_c, 0, 63, 48
2, 1185252, Note_on_c, 0, 39, 36
2, 1185340, Note_off_c, 0, 63, 52
2, 1185342, Note_off_c, 0, 39, 49
2, 1185343, Note_on_c, 0, 66, 48
2, 1185344, Note_on_c, 0, 46, 36
2, 1185436, Note_off_c, 0, 66, 52
2, 1185436, Note_off_c, 0, 46, 49
2, 1185438, Note_on_c, 0, 75, 49
2, 1185439, Note_on_c, 0, 51, 38
2, 1185529, Note_off_c, 0, 75, 52
2, 1185530, Note_off_c, 0, 51, 49
2, 1185531, Note_on_c, 0, 54, 40
2, 1185533, Note_on_c, 0, 39, 40
2, 1185620, Note_off_c, 0, 54, 50
2, 1185622, Note_off_c, 0, 39, 50
2, 1185623, Note_on_c, 0, 58, 43
2, 1185624, Note_on_c, 0, 46, 43
2, 1185716, Note_off_c, 0, 58, 50
2, 1185719, Note_off_c, 0, 46, 50
2, 1185720, Note_on_c, 0, 66, 53
2, 1185722, Note_on_c, 0, 51, 45
2, 1185808, Note_off_c, 0, 66, 53
2, 1185811, Note_off_c, 0, 51, 51
2, 1185812, Note_on_c, 0, 54, 48
2, 1185813, Note_on_c, 0, 39, 48
2, 1185918, Note_off_c, 0, 54, 52
2, 1185919, Note_off_c, 0, 39, 52
2, 1185921, Note_on_c, 0, 58, 50
2, 1185923, Note_on_c, 0, 46, 50
2, 1186013, Note_off_c, 0, 58, 52
2, 1186015, Note_off_c, 0, 46, 52
2, 1186015, Note_on_c, 0, 66, 57
2, 1186017, Note_on_c, 0, 51, 52
2, 1186123, Note_off_c, 0, 66, 54
2, 1186125, Note_off_c, 0, 51, 53
2, 1186126, Control_c, 0, 64, 0
2, 1186127, Note_on_c, 0, 54, 55
2, 1186128, Note_on_c, 0, 39, 55
2, 1186219, Note_off_c, 0, 54, 53
2, 1186220, Note_off_c, 0, 39, 53
2, 1186221, Note_on_c, 0, 58, 57
2, 1186222, Note_on_c, 0, 46, 57
2, 1186308, Control_c, 0, 64, 127
2, 1186310, Note_off_c, 0, 58, 54
2, 1186312, Note_off_c, 0, 46, 54
2, 1186313, Note_on_c, 0, 66, 60
2, 1186315, Note_on_c, 0, 51, 60
2, 1186403, Note_off_c, 0, 66, 55
2, 1186405, Note_off_c, 0, 51, 55
2, 1186406, Note_on_c, 0, 53, 60
2, 1186410, Note_on_c, 0, 38, 60
2, 1186498, Note_off_c, 0, 53, 55
2, 1186502, Note_off_c, 0, 38, 55
2, 1186502, Note_on_c, 0, 58, 58
2, 1186504, Note_on_c, 0, 46, 58
2, 1186591, Note_off_c, 0, 58, 54
2, 1186594, Note_off_c, 0, 46, 54
2, 1186595, Note_on_c, 0, 65, 48
2, 1186596, Note_on_c, 0, 50, 56
2, 1186687, Note_off_c, 0, 65, 52
2, 1186688, Note_off_c, 0, 50, 54
2, 1186690, Note_on_c, 0, 54, 53
2, 1186691, Note_on_c, 0, 39, 53
2, 1186796, Note_off_c, 0, 54, 53
2, 1186797, Note_off_c, 0, 39, 53
2, 1186799, Note_on_c, 0, 58, 51
2, 1186800, Note_on_c, 0, 46, 51
2, 1186892, Note_off_c, 0, 58, 52
2, 1186892, Note_off_c, 0, 46, 52
2, 1186895, Note_on_c, 0, 66, 60
2, 1186896, Note_on_c, 0, 51, 48
2, 1187002, Note_off_c, 0, 66, 55
2, 1187003, Note_off_c, 0, 51, 52
2, 1187006, Note_on_c, 0, 56, 94
2, 1187007, Control_c, 0, 64, 0
2, 1187008, Note_on_c, 0, 41, 88
2, 1187097, Note_on_c, 0, 58, 48
2, 1187098, Note_on_c, 0, 46, 48
2, 1187132, Note_off_c, 0, 41, 62
2, 1187153, Note_off_c, 0, 56, 63
2, 1187186, Control_c, 0, 64, 127
2, 1187191, Note_off_c, 0, 58, 52
2, 1187191, Note_off_c, 0, 46, 52
2, 1187193, Note_on_c, 0, 68, 48
2, 1187194, Note_on_c, 0, 53, 48
2, 1187282, Note_off_c, 0, 68, 52
2, 1187284, Note_off_c, 0, 53, 52
2, 1187286, Note_on_c, 0, 56, 49
2, 1187288, Note_on_c, 0, 41, 49
2, 1187375, Note_off_c, 0, 56, 52
2, 1187377, Note_off_c, 0, 41, 52
2, 1187378, Note_on_c, 0, 58, 50
2, 1187379, Note_on_c, 0, 46, 50
2, 1187471, Note_off_c, 0, 58, 52
2, 1187472, Note_off_c, 0, 46, 52
2, 1187473, Note_on_c, 0, 68, 49
2, 1187475, Note_on_c, 0, 53, 51
2, 1187563, Note_off_c, 0, 68, 52
2, 1187566, Note_off_c, 0, 53, 52
2, 1187566, Note_on_c, 0, 56, 52
2, 1187568, Note_on_c, 0, 41, 52
2, 1187673, Note_off_c, 0, 56, 53
2, 1187674, Note_off_c, 0, 41, 53
2, 1187676, Note_on_c, 0, 58, 53
2, 1187678, Note_on_c, 0, 46, 53
2, 1187768, Note_off_c, 0, 58, 53
2, 1187769, Note_off_c, 0, 46, 53
2, 1187770, Note_on_c, 0, 68, 52
2, 1187772, Note_on_c, 0, 53, 54
2, 1187878, Note_off_c, 0, 68, 53
2, 1187880, Note_off_c, 0, 53, 53
2, 1187881, Note_on_c, 0, 56, 55
2, 1187882, Control_c, 0, 64, 0
2, 1187883, Note_on_c, 0, 41, 55
2, 1187974, Note_off_c, 0, 56, 53
2, 1187974, Note_off_c, 0, 41, 53
2, 1187976, Note_on_c, 0, 58, 56
2, 1187977, Note_on_c, 0, 46, 56
2, 1188064, Note_off_c, 0, 58, 54
2, 1188067, Note_off_c, 0, 46, 54
2, 1188069, Note_on_c, 0, 68, 55
2, 1188070, Note_on_c, 0, 53, 57
2, 1188071, Control_c, 0, 64, 127
2, 1188158, Note_off_c, 0, 68, 53
2, 1188160, Note_off_c, 0, 53, 54
2, 1188161, Note_on_c, 0, 56, 58
2, 1188165, Note_on_c, 0, 41, 58
2, 1188253, Note_off_c, 0, 56, 54
2, 1188255, Note_off_c, 0, 41, 54
2, 1188256, Note_on_c, 0, 58, 59
2, 1188257, Note_on_c, 0, 46, 59
2, 1188346, Note_off_c, 0, 58, 54
2, 1188347, Note_off_c, 0, 46, 54
2, 1188349, Note_on_c, 0, 68, 58
2, 1188350, Note_on_c, 0, 53, 60
2, 1188443, Note_off_c, 0, 68, 54
2, 1188443, Note_off_c, 0, 53, 55
2, 1188445, Note_on_c, 0, 56, 60
2, 1188446, Note_on_c, 0, 41, 60
2, 1188551, Note_off_c, 0, 56, 55
2, 1188552, Note_off_c, 0, 41, 55
2, 1188554, Note_on_c, 0, 58, 57
2, 1188555, Note_on_c, 0, 46, 57
2, 1188647, Note_off_c, 0, 58, 54
2, 1188647, Note_off_c, 0, 46, 54
2, 1188649, Note_on_c, 0, 68, 60
2, 1188651, Note_on_c, 0, 53, 54
2, 1188757, Note_off_c, 0, 68, 55
2, 1188758, Note_off_c, 0, 53, 53
2, 1188760, Note_on_c, 0, 54, 51
2, 1188761, Control_c, 0, 64, 0
2, 1188762, Note_on_c, 0, 39, 51
2, 1188850, Note_off_c, 0, 54, 52
2, 1188852, Note_off_c, 0, 39, 52
2, 1188853, Note_on_c, 0, 58, 48
2, 1188854, Note_on_c, 0, 46, 48
2, 1188944, Note_off_c, 0, 58, 52
2, 1188945, Note_off_c, 0, 46, 52
2, 1188946, Note_on_c, 0, 66, 59
2, 1188948, Note_on_c, 0, 51, 48
2, 1188955, Control_c, 0, 64, 127
2, 1189036, Note_off_c, 0, 66, 54
2, 1189039, Note_off_c, 0, 51, 52
2, 1189041, Note_on_c, 0, 54, 49
2, 1189042, Note_on_c, 0, 39, 49
2, 1189130, Note_off_c, 0, 54, 52
2, 1189131, Note_off_c, 0, 39, 52
2, 1189132, Note_on_c, 0, 58, 50
2, 1189134, Note_on_c, 0, 46, 50
2, 1189226, Note_off_c, 0, 58, 52
2, 1189228, Note_off_c, 0, 46, 52
2, 1189228, Note_on_c, 0, 66, 57
2, 1189230, Note_on_c, 0, 51, 51
2, 1189334, Note_off_c, 0, 66, 54
2, 1189336, Note_off_c, 0, 51, 52
2, 1189337, Note_on_c, 0, 54, 52
2, 1189338, Note_on_c, 0, 39, 52
2, 1189428, Note_off_c, 0, 54, 53
2, 1189430, Note_off_c, 0, 39, 53
2, 1189431, Note_on_c, 0, 58, 53
2, 1189433, Note_on_c, 0, 46, 53
2, 1189523, Note_off_c, 0, 58, 53
2, 1189524, Note_off_c, 0, 46, 53
2, 1189525, Note_on_c, 0, 66, 55
2, 1189526, Note_on_c, 0, 51, 54
2, 1189633, Note_off_c, 0, 66, 53
2, 1189634, Note_off_c, 0, 51, 53
2, 1189636, Control_c, 0, 64, 0
2, 1189638, Note_on_c, 0, 54, 55
2, 1189639, Note_on_c, 0, 39, 55
2, 1189726, Note_off_c, 0, 54, 53
2, 1189727, Note_off_c, 0, 39, 53
2, 1189729, Note_on_c, 0, 58, 56
2, 1189730, Note_on_c, 0, 46, 56
2, 1189817, Control_c, 0, 64, 127
2, 1189820, Note_off_c, 0, 58, 54
2, 1189822, Note_off_c, 0, 46, 54
2, 1189824, Note_on_c, 0, 66, 53
2, 1189825, Note_on_c, 0, 51, 57
2, 1189913, Note_off_c, 0, 66, 53
2, 1189915, Note_off_c, 0, 51, 54
2, 1189916, Note_on_c, 0, 53, 58
2, 1189917, Note_on_c, 0, 38, 58
2, 1190008, Note_off_c, 0, 53, 54
2, 1190009, Note_off_c, 0, 38, 54
2, 1190010, Note_on_c, 0, 58, 59
2, 1190012, Note_on_c, 0, 46, 59
2, 1190102, Note_off_c, 0, 58, 54
2, 1190103, Note_off_c, 0, 46, 54
2, 1190106, Note_on_c, 0, 65, 75
2, 1190107, Note_on_c, 0, 50, 60
2, 1190198, Note_off_c, 0, 65, 59
2, 1190198, Note_off_c, 0, 50, 55
2, 1190200, Note_on_c, 0, 54, 60
2, 1190201, Note_on_c, 0, 39, 60
2, 1190306, Note_off_c, 0, 54, 55
2, 1190307, Note_off_c, 0, 39, 55
2, 1190309, Note_on_c, 0, 58, 54
2, 1190310, Note_on_c, 0, 46, 54
2, 1190401, Note_off_c, 0, 58, 53
2, 1190402, Note_off_c, 0, 46, 53
2, 1190403, Note_on_c, 0, 66, 48
2, 1190405, Note_on_c, 0, 51, 48
2, 1190511, Note_off_c, 0, 66, 52
2, 1190512, Note_off_c, 0, 51, 52
2, 1190513, Control_c, 0, 64, 0
2, 1190514, Note_on_c, 0, 56, 93
2, 1190516, Note_on_c, 0, 35, 87
2, 1190605, Note_on_c, 0, 63, 50
2, 1190608, Note_on_c, 0, 39, 48
2, 1190699, Note_off_c, 0, 63, 52
2, 1190701, Note_off_c, 0, 39, 52
2, 1190701, Note_on_c, 0, 68, 52
2, 1190703, Note_on_c, 0, 47, 48
2, 1190705, Control_c, 0, 64, 127
2, 1190711, Note_off_c, 0, 35, 61
2, 1190715, Note_off_c, 0, 56, 63
2, 1190791, Note_off_c, 0, 68, 53
2, 1190794, Note_off_c, 0, 47, 52
2, 1190795, Note_on_c, 0, 56, 48
2, 1190796, Note_on_c, 0, 35, 48
2, 1190885, Note_off_c, 0, 56, 52
2, 1190886, Note_off_c, 0, 35, 52
2, 1190888, Note_on_c, 0, 63, 56
2, 1190890, Note_on_c, 0, 39, 49
2, 1190981, Note_off_c, 0, 63, 54
2, 1190982, Note_off_c, 0, 39, 52
2, 1190983, Note_on_c, 0, 68, 58
2, 1190984, Note_on_c, 0, 47, 50
2, 1191073, Note_off_c, 0, 68, 54
2, 1191075, Note_off_c, 0, 47, 52
2, 1191076, Note_on_c, 0, 56, 51
2, 1191078, Note_on_c, 0, 35, 51
2, 1191182, Note_off_c, 0, 56, 52
2, 1191184, Note_off_c, 0, 35, 52
2, 1191185, Note_on_c, 0, 63, 62
2, 1191186, Note_on_c, 0, 39, 52
2, 1191275, Note_off_c, 0, 63, 55
2, 1191278, Note_off_c, 0, 39, 53
2, 1191279, Note_on_c, 0, 68, 64
2, 1191281, Note_on_c, 0, 47, 53
2, 1191384, Note_off_c, 0, 68, 56
2, 1191388, Note_off_c, 0, 47, 53
2, 1191389, Control_c, 0, 64, 0
2, 1191391, Note_on_c, 0, 56, 54
2, 1191392, Note_on_c, 0, 35, 54
2, 1191481, Note_off_c, 0, 56, 53
2, 1191482, Note_off_c, 0, 35, 53
2, 1191484, Note_on_c, 0, 63, 68
2, 1191485, Note_on_c, 0, 39, 54
2, 1191575, Note_off_c, 0, 63, 57
2, 1191576, Note_off_c, 0, 39, 53
2, 1191577, Note_on_c, 0, 68, 70
2, 1191579, Note_on_c, 0, 47, 55
2, 1191581, Control_c, 0, 64, 127
2, 1191668, Note_off_c, 0, 68, 57
2, 1191670, Note_off_c, 0, 47, 53
2, 1191671, Note_on_c, 0, 56, 56
2, 1191672, Note_on_c, 0, 35, 56
2, 1191764, Note_off_c, 0, 56, 54
2, 1191764, Note_off_c, 0, 35, 54
2, 1191765, Note_on_c, 0, 63, 74
2, 1191767, Note_on_c, 0, 39, 57
2, 1191857, Note_off_c, 0, 63, 59
2, 1191858, Note_off_c, 0, 39, 54
2, 1191861, Note_on_c, 0, 68, 76
2, 1191862, Note_on_c, 0, 47, 58
2, 1191953, Note_off_c, 0, 68, 59
2, 1191953, Note_off_c, 0, 47, 54
2, 1191955, Note_on_c, 0, 58, 59
2, 1191956, Note_on_c, 0, 34, 59
2, 1192060, Note_off_c, 0, 58, 54
2, 1192061, Note_off_c, 0, 34, 54
2, 1192062, Note_on_c, 0, 63, 80
2, 1192064, Note_on_c, 0, 39, 60
2, 1192153, Note_off_c, 0, 63, 60
2, 1192156, Note_off_c, 0, 39, 55
2, 1192157, Note_on_c, 0, 70, 82
2, 1192158, Note_on_c, 0, 46, 60
2, 1192264, Note_off_c, 0, 70, 60
2, 1192265, Note_off_c, 0, 46, 55
2, 1192267, Control_c, 0, 64, 0
2, 1192269, Note_on_c, 0, 59, 94
2, 1192270, Note_on_c, 0, 32, 82
2, 1192360, Note_on_c, 0, 63, 48
2, 1192361, Note_on_c, 0, 39, 36
2, 1192416, Note_off_c, 0, 59, 63
2, 1192420, Note_off_c, 0, 32, 60
2, 1192453, Note_off_c, 0, 63, 52
2, 1192453, Note_off_c, 0, 39, 49
2, 1192455, Note_on_c, 0, 71, 48
2, 1192456, Note_on_c, 0, 44, 36
2, 1192478, Control_c, 0, 64, 127
2, 1192547, Note_off_c, 0, 71, 52
2, 1192549, Note_off_c, 0, 44, 49
2, 1192550, Note_on_c, 0, 59, 48
2, 1192551, Note_on_c, 0, 32, 36
2, 1192640, Note_off_c, 0, 59, 52
2, 1192641, Note_off_c, 0, 32, 49
2, 1192643, Note_on_c, 0, 63, 48
2, 1192645, Note_on_c, 0, 39, 36
2, 1192736, Note_off_c, 0, 63, 52
2, 1192737, Note_off_c, 0, 39, 49
2, 1192738, Note_on_c, 0, 71, 48
2, 1192739, Note_on_c, 0, 44, 36
2, 1192827, Note_off_c, 0, 71, 52
2, 1192828, Note_off_c, 0, 44, 49
2, 1192830, Note_on_c, 0, 59, 48
2, 1192832, Note_on_c, 0, 32, 36
2, 1192937, Note_off_c, 0, 59, 52
2, 1192939, Note_off_c, 0, 32, 49
2, 1192940, Note_on_c, 0, 63, 48
2, 1192941, Note_on_c, 0, 39, 36
2, 1193030, Note_off_c, 0, 63, 52
2, 1193033, Note_off_c, 0, 39, 49
2, 1193034, Note_on_c, 0, 71, 48
2, 1193035, Note_on_c, 0, 44, 36
2, 1193139, Note_off_c, 0, 71, 52
2, 1193142, Note_off_c, 0, 44, 49
2, 1193144, Control_c, 0, 64, 0
2, 1193146, Note_on_c, 0, 62, 94
2, 1193147, Note_on_c, 0, 34, 82
2, 1193239, Note_on_c, 0, 68, 48
2, 1193240, Note_on_c, 0, 41, 36
2, 1193330, Note_off_c, 0, 68, 52
2, 1193332, Note_off_c, 0, 41, 49
2, 1193332, Note_on_c, 0, 74, 48
2, 1193334, Note_on_c, 0, 46, 36
2, 1193343, Note_off_c, 0, 62, 63
2, 1193343, Note_off_c, 0, 34, 60
2, 1193355, Control_c, 0, 64, 127
2, 1193424, Note_off_c, 0, 74, 52
2, 1193425, Note_off_c, 0, 46, 49
2, 1193428, Note_on_c, 0, 62, 49
2, 1193429, Note_on_c, 0, 34, 37
2, 1193518, Note_off_c, 0, 62, 52
2, 1193520, Note_off_c, 0, 34, 49
2, 1193520, Note_on_c, 0, 68, 51
2, 1193522, Note_on_c, 0, 41, 39
2, 1193610, Note_off_c, 0, 68, 52
2, 1193613, Note_off_c, 0, 41, 49
2, 1193614, Note_on_c, 0, 74, 53
2, 1193617, Note_on_c, 0, 46, 41
2, 1193705, Note_off_c, 0, 74, 53
2, 1193708, Note_off_c, 0, 46, 50
2, 1193708, Note_on_c, 0, 62, 55
2, 1193709, Note_on_c, 0, 34, 43
2, 1193814, Note_off_c, 0, 62, 53
2, 1193817, Note_off_c, 0, 34, 50
2, 1193818, Note_on_c, 0, 68, 57
2, 1193819, Note_on_c, 0, 41, 45
2, 1193908, Note_off_c, 0, 68, 54
2, 1193910, Note_off_c, 0, 41, 51
2, 1193912, Note_on_c, 0, 74, 59
2, 1193913, Note_on_c, 0, 46, 47
2, 1194019, Note_off_c, 0, 74, 54
2, 1194020, Note_off_c, 0, 46, 51
2, 1194022, Control_c, 0, 64, 0
2, 1194023, Note_on_c, 0, 63, 61
2, 1194025, Note_on_c, 0, 39, 49
2, 1194112, Note_off_c, 0, 63, 55
2, 1194114, Note_off_c, 0, 39, 52
2, 1194115, Note_on_c, 0, 66, 63
2, 1194116, Note_on_c, 0, 46, 51
2, 1194209, Note_off_c, 0, 66, 55
2, 1194209, Note_off_c, 0, 46, 52
2, 1194211, Note_on_c, 0, 75, 65
2, 1194212, Note_on_c, 0, 51, 53
2, 1194240, Control_c, 0, 64, 127
2, 1194302, Note_off_c, 0, 75, 56
2, 1194304, Note_off_c, 0, 51, 53
2, 1194305, Note_on_c, 0, 63, 67
2, 1194306, Note_on_c, 0, 39, 55
2, 1194395, Note_off_c, 0, 63, 57
2, 1194396, Note_off_c, 0, 39, 53
2, 1194397, Note_on_c, 0, 66, 69
2, 1194399, Note_on_c, 0, 46, 57
2, 1194489, Note_off_c, 0, 66, 57
2, 1194490, Note_off_c, 0, 46, 54
2, 1194492, Note_on_c, 0, 75, 71
2, 1194493, Note_on_c, 0, 51, 59
2, 1194582, Note_off_c, 0, 75, 58
2, 1194584, Note_off_c, 0, 51, 54
2, 1194585, Note_on_c, 0, 65, 72
2, 1194586, Note_on_c, 0, 38, 60
2, 1194692, Note_off_c, 0, 65, 58
2, 1194694, Note_off_c, 0, 38, 55
2, 1194695, Note_on_c, 0, 70, 74
2, 1194696, Note_on_c, 0, 46, 62
2, 1194785, Note_off_c, 0, 70, 59
2, 1194786, Note_off_c, 0, 46, 55
2, 1194789, Note_on_c, 0, 77, 76
2, 1194790, Note_on_c, 0, 50, 64
2, 1194895, Note_off_c, 0, 77, 59
2, 1194896, Note_off_c, 0, 50, 56
2, 1194897, Control_c, 0, 64, 0
2, 1194900, Note_on_c, 0, 66, 78
2, 1194901, Note_on_c, 0, 39, 66
2, 1194991, Note_off_c, 0, 66, 59
2, 1194991, Note_off_c, 0, 39, 56
2, 1194994, Note_on_c, 0, 70, 80
2, 1194995, Note_on_c, 0, 46, 68
2, 1195085, Note_off_c, 0, 70, 60
2, 1195086, Note_off_c, 0, 46, 57
2, 1195087, Note_on_c, 0, 78, 82
2, 1195089, Note_on_c, 0, 51, 70
2, 1195110, Control_c, 0, 64, 127
2, 1195179, Note_off_c, 0, 78, 60
2, 1195180, Note_off_c, 0, 51, 57
2, 1195181, Note_on_c, 0, 66, 84
2, 1195184, Note_on_c, 0, 39, 72
2, 1195270, Note_off_c, 0, 66, 61
2, 1195273, Note_off_c, 0, 39, 58
2, 1195274, Note_on_c, 0, 70, 86
2, 1195275, Note_on_c, 0, 46, 74
2, 1195365, Note_off_c, 0, 70, 61
2, 1195367, Note_off_c, 0, 46, 59
2, 1195368, Note_on_c, 0, 78, 88
2, 1195370, Note_on_c, 0, 51, 76
2, 1195473, Note_off_c, 0, 78, 62
2, 1195476, Note_off_c, 0, 51, 59
2, 1195477, Note_on_c, 0, 69, 90
2, 1195478, Note_on_c, 0, 35, 78
2, 1195568, Note_off_c, 0, 69, 62
2, 1195569, Note_off_c, 0, 35, 59
2, 1195572, Note_on_c, 0, 78, 92
2, 1195573, Note_on_c, 0, 39, 80
2, 1195664, Note_off_c, 0, 78, 62
2, 1195665, Note_off_c, 0, 39, 60
2, 1195666, Note_on_c, 0, 81, 94
2, 1195667, Note_on_c, 0, 47, 82
2, 1195775, Note_off_c, 0, 81, 63
2, 1195775, Note_off_c, 0, 47, 60
2, 1195777, Control_c, 0, 64, 0
2, 1195778, Note_on_c, 0, 70, 96
2, 1195780, Note_on_c, 0, 34, 84
2, 1195867, Note_off_c, 0, 70, 63
2, 1195869, Note_off_c, 0, 34, 61
2, 1195870, Note_on_c, 0, 78, 96
2, 1195871, Note_on_c, 0, 39, 84
2, 1195958, Control_c, 0, 64, 127
2, 1195964, Note_off_c, 0, 78, 63
2, 1195964, Note_off_c, 0, 39, 61
2, 1195965, Note_on_c, 0, 82, 96
2, 1195967, Note_on_c, 0, 46, 84
2, 1196055, Note_off_c, 0, 82, 63
2, 1196058, Note_off_c, 0, 46, 61
2, 1196059, Note_on_c, 0, 70, 95
2, 1196060, Note_on_c, 0, 34, 83
2, 1196148, Note_off_c, 0, 70, 63
2, 1196150, Note_off_c, 0, 34, 60
2, 1196151, Note_on_c, 0, 78, 94
2, 1196153, Note_on_c, 0, 39, 82
2, 1196244, Note_off_c, 0, 78, 63
2, 1196245, Note_off_c, 0, 39, 60
2, 1196247, Note_on_c, 0, 82, 94
2, 1196248, Note_on_c, 0, 46, 82
2, 1196353, Note_off_c, 0, 82, 63
2, 1196356, Note_off_c, 0, 46, 60
2, 1196356, Note_on_c, 0, 70, 93
2, 1196357, Note_on_c, 0, 34, 81
2, 1196446, Note_off_c, 0, 70, 63
2, 1196447, Note_off_c, 0, 34, 60
2, 1196449, Note_on_c, 0, 78, 92
2, 1196451, Note_on_c, 0, 39, 80
2, 1196540, Note_off_c, 0, 78, 62
2, 1196541, Note_off_c, 0, 39, 60
2, 1196544, Note_on_c, 0, 82, 92
2, 1196545, Note_on_c, 0, 46, 80
2, 1196650, Note_off_c, 0, 82, 62
2, 1196651, Note_off_c, 0, 46, 60
2, 1196652, Note_on_c, 0, 74, 91
2, 1196653, Control_c, 0, 64, 0
2, 1196655, Note_on_c, 0, 34, 79
2, 1196746, Note_off_c, 0, 74, 62
2, 1196747, Note_off_c, 0, 34, 60
2, 1196750, Note_on_c, 0, 80, 90
2, 1196750, Note_on_c, 0, 41, 78
2, 1196836, Control_c, 0, 64, 127
2, 1196840, Note_off_c, 0, 80, 62
2, 1196840, Note_off_c, 0, 41, 59
2, 1196842, Note_on_c, 0, 86, 89
2, 1196843, Note_on_c, 0, 46, 77
2, 1196930, Note_off_c, 0, 86, 62
2, 1196933, Note_off_c, 0, 46, 59
2, 1196934, Note_on_c, 0, 74, 89
2, 1196937, Note_on_c, 0, 34, 77
2, 1197026, Note_off_c, 0, 74, 62
2, 1197028, Note_off_c, 0, 34, 59
2, 1197029, Note_on_c, 0, 80, 88
2, 1197030, Note_on_c, 0, 41, 76
2, 1197120, Note_off_c, 0, 80, 62
2, 1197121, Note_off_c, 0, 41, 59
2, 1197123, Note_on_c, 0, 86, 87
2, 1197124, Note_on_c, 0, 46, 75
2, 1197229, Note_off_c, 0, 86, 61
2, 1197230, Note_off_c, 0, 46, 59
2, 1197232, Note_on_c, 0, 74, 87
2, 1197233, Note_on_c, 0, 34, 75
2, 1197324, Note_off_c, 0, 74, 61
2, 1197325, Note_off_c, 0, 34, 59
2, 1197327, Note_on_c, 0, 80, 86
2, 1197328, Note_on_c, 0, 41, 74
2, 1197418, Note_off_c, 0, 80, 61
2, 1197420, Note_off_c, 0, 41, 59
2, 1197421, Note_on_c, 0, 86, 85
2, 1197422, Note_on_c, 0, 46, 73
2, 1197530, Note_off_c, 0, 86, 61
2, 1197530, Note_off_c, 0, 46, 58
2, 1197532, Note_on_c, 0, 87, 96
2, 1197534, Note_on_c, 0, 39, 72
2, 1197540, Note_on_c, 0, 78, 86
2, 1197541, Note_on_c, 0, 75, 89
2, 1197593, Control_c, 0, 64, 0
2, 1197621, Note_off_c, 0, 39, 58
2, 1197622, Note_on_c, 0, 46, 72
2, 1197713, Note_off_c, 0, 46, 58
2, 1197718, Note_on_c, 0, 51, 69
2, 1197766, Note_off_c, 0, 78, 61
2, 1197777, Control_c, 0, 64, 127
2, 1197780, Note_off_c, 0, 75, 62
2, 1197809, Note_off_c, 0, 87, 63
2, 1197813, Note_off_c, 0, 51, 57
2, 1197814, Note_on_c, 0, 39, 66
2, 1197902, Note_off_c, 0, 39, 56
2, 1197905, Note_on_c, 0, 46, 63
2, 1198000, Note_off_c, 0, 46, 55
2, 1198000, Note_on_c, 0, 51, 59
2, 1198108, Note_off_c, 0, 51, 54
2, 1198109, Note_on_c, 0, 39, 56
2, 1198201, Note_off_c, 0, 39, 54
2, 1198203, Note_on_c, 0, 46, 53
2, 1198295, Note_off_c, 0, 46, 53
2, 1198296, Note_on_c, 0, 51, 50
2, 1198404, Note_off_c, 0, 51, 52
2, 1198406, Note_on_c, 0, 39, 46
2, 1198500, Control_c, 0, 67, 127
2, 1198501, Note_off_c, 0, 39, 51
2, 1198502, Note_on_c, 0, 46, 43
2, 1198592, Note_off_c, 0, 46, 50
2, 1198593, Note_on_c, 0, 51, 40
2, 1198685, Note_off_c, 0, 51, 50
2, 1198688, Note_on_c, 0, 39, 36
2, 1198689, Note_on_c, 0, 66, 48
2, 1198782, Note_off_c, 0, 39, 49
2, 1198783, Note_on_c, 0, 46, 36
2, 1198875, Note_off_c, 0, 46, 49
2, 1198877, Note_on_c, 0, 51, 36
2, 1198984, Note_off_c, 0, 51, 49
2, 1198986, Note_on_c, 0, 39, 37
2, 1198987, Note_on_c, 0, 65, 48
2, 1199033, Note_off_c, 0, 66, 52
2, 1199079, Note_off_c, 0, 39, 49
2, 1199080, Note_on_c, 0, 46, 37
2, 1199174, Note_off_c, 0, 46, 49
2, 1199176, Note_on_c, 0, 51, 38
2, 1199284, Note_off_c, 0, 51, 49
2, 1199285, Note_on_c, 0, 56, 38
2, 1199287, Note_on_c, 0, 63, 50
2, 1199288, Control_c, 0, 64, 0
2, 1199289, Note_on_c, 0, 53, 38
2, 1199290, Note_on_c, 0, 39, 38
2, 1199331, Note_off_c, 0, 65, 52
2, 1199375, Note_off_c, 0, 39, 49
2, 1199377, Note_on_c, 0, 47, 39
2, 1199469, Note_off_c, 0, 47, 49
2, 1199473, Note_on_c, 0, 50, 39
2, 1199478, Control_c, 0, 64, 127
2, 1199563, Note_off_c, 0, 50, 49
2, 1199566, Note_on_c, 0, 39, 40
2, 1199659, Note_off_c, 0, 39, 50
2, 1199660, Note_on_c, 0, 47, 40
2, 1199753, Note_off_c, 0, 47, 50
2, 1199755, Note_on_c, 0, 50, 41
2, 1199863, Note_off_c, 0, 50, 50
2, 1199865, Note_on_c, 0, 39, 42
2, 1199866, Note_on_c, 0, 62, 54
2, 1199911, Note_off_c, 0, 63, 52
2, 1199956, Note_off_c, 0, 39, 50
2, 1199958, Note_on_c, 0, 47, 42
2, 1200050, Note_off_c, 0, 47, 50
2, 1200051, Note_on_c, 0, 50, 43
2, 1200159, Note_off_c, 0, 50, 50
2, 1200162, Note_on_c, 0, 63, 56
2, 1200164, Note_on_c, 0, 39, 43
2, 1200208, Note_off_c, 0, 62, 53
2, 1200254, Note_off_c, 0, 39, 50
2, 1200256, Note_on_c, 0, 47, 44
2, 1200347, Note_off_c, 0, 47, 51
2, 1200348, Note_on_c, 0, 50, 44
2, 1200440, Note_off_c, 0, 50, 51
2, 1200441, Note_on_c, 0, 39, 45
2, 1200536, Note_off_c, 0, 39, 51
2, 1200538, Note_on_c, 0, 47, 45
2, 1200630, Note_off_c, 0, 47, 51
2, 1200631, Note_on_c, 0, 50, 46
2, 1200665, Note_off_c, 0, 63, 54
2, 1200739, Note_off_c, 0, 56, 49
2, 1200741, Note_off_c, 0, 53, 49
2, 1200741, Note_off_c, 0, 50, 51
2, 1200743, Note_on_c, 0, 65, 60
2, 1200744, Note_on_c, 0, 39, 46
2, 1200833, Note_off_c, 0, 39, 51
2, 1200835, Note_on_c, 0, 47, 47
2, 1200927, Note_off_c, 0, 47, 51
2, 1200930, Note_on_c, 0, 50, 48
2, 1200947, Control_c, 0, 64, 0
2, 1200968, Note_off_c, 0, 65, 55
2, 1201039, Note_off_c, 0, 50, 52
2, 1201040, Note_on_c, 0, 54, 48
2, 1201042, Note_on_c, 0, 58, 60
2, 1201043, Note_on_c, 0, 39, 48
2, 1201130, Note_off_c, 0, 39, 52
2, 1201132, Note_on_c, 0, 46, 48
2, 1201160, Control_c, 0, 64, 127
2, 1201225, Note_off_c, 0, 46, 52
2, 1201228, Note_on_c, 0, 51, 47
2, 1201318, Note_off_c, 0, 51, 51
2, 1201320, Note_on_c, 0, 39, 46
2, 1201414, Note_off_c, 0, 39, 51
2, 1201415, Note_on_c, 0, 46, 46
2, 1201522, Note_off_c, 0, 46, 51
2, 1201524, Note_on_c, 0, 51, 45
2, 1201619, Note_off_c, 0, 51, 51
2, 1201620, Note_on_c, 0, 39, 44
2, 1201710, Note_off_c, 0, 39, 51
2, 1201712, Note_on_c, 0, 46, 44
2, 1201820, Note_off_c, 0, 46, 51
2, 1201823, Note_on_c, 0, 51, 43
2, 1201914, Note_off_c, 0, 51, 50
2, 1201915, Note_on_c, 0, 39, 42
2, 1202009, Note_off_c, 0, 39, 50
2, 1202010, Note_on_c, 0, 46, 42
2, 1202102, Note_off_c, 0, 46, 50
2, 1202103, Note_on_c, 0, 51, 41
2, 1202212, Note_off_c, 0, 58, 55
2, 1202214, Note_off_c, 0, 51, 50
2, 1202215, Note_on_c, 0, 39, 40
2, 1202216, Note_on_c, 0, 66, 51
2, 1202306, Note_off_c, 0, 39, 50
2, 1202307, Note_on_c, 0, 46, 40
2, 1202402, Note_off_c, 0, 46, 50
2, 1202403, Note_on_c, 0, 51, 39
2, 1202495, Note_off_c, 0, 54, 52
2, 1202496, Note_off_c, 0, 51, 49
2, 1202498, Note_on_c, 0, 39, 38
2, 1202499, Note_on_c, 0, 65, 49
2, 1202524, Note_off_c, 0, 66, 52
2, 1202606, Note_off_c, 0, 39, 49
2, 1202607, Note_on_c, 0, 46, 38
2, 1202697, Note_off_c, 0, 46, 49
2, 1202699, Note_on_c, 0, 51, 37
2, 1202808, Note_off_c, 0, 51, 49
2, 1202809, Note_on_c, 0, 63, 47
2, 1202810, Note_on_c, 0, 56, 36
2, 1202812, Note_on_c, 0, 53, 36
2, 1202813, Note_on_c, 0, 39, 36
2, 1202836, Note_off_c, 0, 65, 52
2, 1202848, Control_c, 0, 64, 0
2, 1202900, Note_off_c, 0, 39, 49
2, 1202902, Note_on_c, 0, 47, 36
2, 1202996, Note_off_c, 0, 47, 49
2, 1202997, Note_on_c, 0, 50, 35
2, 1203033, Control_c, 0, 64, 127
2, 1203105, Note_off_c, 0, 50, 48
2, 1203106, Note_on_c, 0, 39, 34
2, 1203199, Note_off_c, 0, 39, 48
2, 1203200, Note_on_c, 0, 47, 34
2, 1203309, Note_off_c, 0, 47, 48
2, 1203311, Note_on_c, 0, 50, 33
2, 1203419, Note_off_c, 0, 50, 48
2, 1203421, Note_on_c, 0, 39, 32
2, 1203423, Note_on_c, 0, 62, 42
2, 1203448, Note_off_c, 0, 63, 51
2, 1203511, Note_off_c, 0, 39, 48
2, 1203513, Note_on_c, 0, 47, 32
2, 1203623, Note_off_c, 0, 47, 48
2, 1203624, Note_on_c, 0, 50, 31
2, 1203716, Note_off_c, 0, 50, 47
2, 1203717, Note_on_c, 0, 63, 40
2, 1203719, Note_on_c, 0, 39, 30
2, 1203745, Note_off_c, 0, 62, 50
2, 1203826, Note_off_c, 0, 39, 47
2, 1203827, Note_on_c, 0, 47, 30
2, 1203935, Note_off_c, 0, 47, 47
2, 1203937, Note_on_c, 0, 50, 29
2, 1204047, Note_off_c, 0, 50, 47
2, 1204048, Note_on_c, 0, 39, 28
2, 1204156, Note_off_c, 0, 39, 47
2, 1204157, Note_on_c, 0, 47, 28
2, 1204247, Note_off_c, 0, 47, 47
2, 1204250, Note_on_c, 0, 50, 27
2, 1204286, Note_off_c, 0, 63, 50
2, 1204361, Note_off_c, 0, 53, 49
2, 1204362, Note_off_c, 0, 56, 49
2, 1204364, Note_off_c, 0, 50, 46
2, 1204365, Note_on_c, 0, 39, 26
2, 1204366, Note_on_c, 0, 65, 36
2, 1204467, Note_off_c, 0, 39, 46
2, 1204469, Note_on_c, 0, 47, 26
2, 1204577, Note_off_c, 0, 47, 46
2, 1204578, Note_on_c, 0, 50, 25
2, 1204613, Note_off_c, 0, 65, 49
2, 1204688, Note_off_c, 0, 50, 46
2, 1204799, Note_on_c, 0, 58, 24
2, 1204800, Note_on_c, 0, 46, 20
2, 1204801, Note_on_c, 0, 39, 16
2, 1204807, Control_c, 0, 64, 0
2, 1205047, Control_c, 0, 64, 127
2, 1206770, Note_off_c, 0, 58, 46
2, 1206772, Note_off_c, 0, 39, 44
2, 1206773, Note_off_c, 0, 46, 45
2, 1206775, Note_on_c, 0, 63, 30
2, 1207727, Note_off_c, 0, 63, 47
2, 1207728, Note_on_c, 0, 67, 20
2, 1208443, Note_off_c, 0, 67, 45
2, 1208617, Control_c, 0, 67, 0
2, 1208759, Note_on_c, 0, 70, 53
2, 1208777, Note_on_c, 0, 67, 33
2, 1208780, Note_on_c, 0, 58, 36
2, 1208781, Note_on_c, 0, 63, 42
2, 1208786, Control_c, 0, 64, 127
2, 1209074, Note_on_c, 0, 51, 48
2, 1209124, Note_off_c, 0, 67, 48
2, 1209354, Note_on_c, 0, 67, 52
2, 1209373, Note_off_c, 0, 51, 52
2, 1209373, Note_on_c, 0, 55, 48
2, 1209395, Note_off_c, 0, 70, 53
2, 1209460, Note_off_c, 0, 58, 49
2, 1209488, Note_off_c, 0, 63, 50
2, 1209672, Note_off_c, 0, 55, 52
2, 1209675, Note_on_c, 0, 63, 56
2, 1209676, Note_on_c, 0, 58, 48
2, 1209684, Note_off_c, 0, 67, 53
2, 1209947, Note_on_c, 0, 67, 60
2, 1209970, Note_on_c, 0, 55, 56
2, 1210019, Note_off_c, 0, 63, 54
2, 1210266, Note_off_c, 0, 55, 54
2, 1210266, Note_on_c, 0, 70, 64
2, 1210268, Note_on_c, 0, 51, 60
2, 1210303, Control_c, 0, 64, 0
2, 1210485, Note_off_c, 0, 70, 56
2, 1210487, Note_off_c, 0, 51, 55
2, 1210510, Control_c, 0, 64, 127
2, 1210547, Note_on_c, 0, 46, 60
2, 1210549, Note_on_c, 0, 75, 68
2, 1210877, Note_on_c, 0, 79, 75
2, 1210910, Note_off_c, 0, 75, 57
2, 1211185, Note_off_c, 0, 67, 55
2, 1211205, Note_off_c, 0, 58, 52
2, 1211207, Note_on_c, 0, 77, 70
2, 1211208, Note_on_c, 0, 65, 72
2, 1211210, Note_on_c, 0, 56, 48
2, 1211238, Note_off_c, 0, 79, 59
2, 1211361, Note_on_c, 0, 74, 66
2, 1211396, Note_off_c, 0, 77, 57
2, 1211471, Note_off_c, 0, 74, 56
2, 1211474, Control_c, 0, 64, 0
2, 1211501, Note_off_c, 0, 65, 58
2, 1211503, Note_off_c, 0, 56, 52
2, 1211504, Note_off_c, 0, 46, 55
2, 1211505, Note_on_c, 0, 67, 60
2, 1211506, Note_on_c, 0, 75, 60
2, 1211507, Note_on_c, 0, 55, 48
2, 1211509, Note_on_c, 0, 51, 48
2, 1211659, Note_on_c, 0, 79, 54
2, 1211689, Note_off_c, 0, 75, 55
2, 1211721, Note_off_c, 0, 51, 52
2, 1211722, Note_off_c, 0, 55, 52
2, 1211801, Note_off_c, 0, 67, 55
2, 1211803, Note_on_c, 0, 70, 48
2, 1211828, Note_off_c, 0, 79, 53
2, 1211982, Note_off_c, 0, 70, 52
2, 1212400, Control_c, 0, 64, 127
2, 1212415, Note_on_c, 0, 72, 50
2, 1212427, Note_on_c, 0, 63, 30
2, 1212428, Note_on_c, 0, 56, 42
2, 1212560, Note_on_c, 0, 75, 54
2, 1212593, Note_off_c, 0, 72, 52
2, 1212703, Note_on_c, 0, 70, 60
2, 1212711, Note_on_c, 0, 55, 41
2, 1212736, Note_off_c, 0, 75, 53
2, 1212743, Note_off_c, 0, 56, 50
2, 1212826, Control_c, 0, 64, 0
2, 1212867, Note_off_c, 0, 70, 55
2, 1212884, Note_off_c, 0, 55, 50
2, 1213291, Note_off_c, 0, 63, 47
2, 1213320, Control_c, 0, 64, 127
2, 1213324, Note_on_c, 0, 68, 60
2, 1213336, Note_on_c, 0, 50, 30
2, 1213338, Note_on_c, 0, 65, 40
2, 1213339, Note_on_c, 0, 58, 36
2, 1213467, Note_on_c, 0, 70, 54
2, 1213513, Note_off_c, 0, 68, 55
2, 1213594, Note_off_c, 0, 65, 50
2, 1213610, Note_on_c, 0, 67, 48
2, 1213621, Note_on_c, 0, 51, 36
2, 1213622, Note_on_c, 0, 63, 40
2, 1213653, Note_off_c, 0, 70, 53
2, 1213663, Note_off_c, 0, 50, 47
2, 1213718, Control_c, 0, 64, 0
2, 1213746, Note_off_c, 0, 67, 52
2, 1213763, Note_off_c, 0, 51, 49
2, 1213765, Note_off_c, 0, 63, 50
2, 1214073, Note_off_c, 0, 58, 49
2, 1214239, Control_c, 0, 64, 127
2, 1214243, Note_on_c, 0, 62, 43
2, 1214244, Note_on_c, 0, 65, 63
2, 1214246, Note_on_c, 0, 58, 48
2, 1214247, Note_on_c, 0, 46, 36
2, 1214458, Note_off_c, 0, 65, 55
2, 1214531, Note_on_c, 0, 68, 63
2, 1214543, Note_on_c, 0, 50, 48
2, 1214544, Note_on_c, 0, 65, 55
2, 1214580, Note_off_c, 0, 62, 50
2, 1214608, Note_off_c, 0, 46, 49
2, 1214654, Note_off_c, 0, 68, 55
2, 1214678, Note_off_c, 0, 58, 52
2, 1214693, Note_off_c, 0, 65, 53
2, 1214733, Note_off_c, 0, 50, 52
2, 1214839, Note_on_c, 0, 67, 56
2, 1214841, Note_on_c, 0, 63, 36
2, 1214842, Note_on_c, 0, 58, 42
2, 1214844, Note_on_c, 0, 51, 30
2, 1214870, Control_c, 0, 64, 0
2, 1214995, Note_off_c, 0, 67, 54
2, 1214998, Note_off_c, 0, 63, 49
2, 1214999, Note_off_c, 0, 58, 50
2, 1215001, Note_off_c, 0, 51, 47
2, 1215152, Note_on_c, 0, 65, 48
2, 1215154, Note_on_c, 0, 62, 28
2, 1215156, Note_on_c, 0, 58, 36
2, 1215157, Note_on_c, 0, 46, 30
2, 1215323, Note_off_c, 0, 65, 52
2, 1215326, Note_off_c, 0, 62, 47
2, 1215327, Note_off_c, 0, 58, 49
2, 1215328, Note_off_c, 0, 46, 47
2, 1216112, Note_on_c, 0, 70, 51
2, 1216129, Note_on_c, 0, 63, 36
2, 1216141, Note_on_c, 0, 67, 31
2, 1216144, Note_on_c, 0, 58, 30
2, 1216148, Control_c, 0, 64, 127
2, 1216435, Note_on_c, 0, 51, 48
2, 1216579, Note_off_c, 0, 67, 47
2, 1216720, Note_off_c, 0, 51, 52
2, 1216721, Note_off_c, 0, 70, 52
2, 1216722, Note_on_c, 0, 67, 57
2, 1216730, Note_on_c, 0, 55, 48
2, 1216825, Note_off_c, 0, 63, 49
2, 1216849, Note_off_c, 0, 58, 47
2, 1217034, Note_off_c, 0, 67, 54
2, 1217036, Note_on_c, 0, 63, 60
2, 1217044, Note_off_c, 0, 55, 52
2, 1217053, Note_on_c, 0, 58, 51
2, 1217329, Note_on_c, 0, 67, 63
2, 1217341, Note_on_c, 0, 55, 54
2, 1217381, Note_off_c, 0, 63, 55
2, 1217620, Note_on_c, 0, 51, 57
2, 1217627, Note_on_c, 0, 70, 66
2, 1217635, Note_off_c, 0, 55, 53
2, 1217703, Control_c, 0, 64, 0
2, 1217836, Note_off_c, 0, 51, 54
2, 1217847, Note_off_c, 0, 70, 56
2, 1217901, Note_on_c, 0, 46, 60
2, 1217904, Control_c, 0, 64, 127
2, 1217909, Note_on_c, 0, 75, 69
2, 1218240, Note_on_c, 0, 79, 76
2, 1218259, Note_off_c, 0, 75, 57
2, 1218565, Note_off_c, 0, 67, 55
2, 1218569, Note_off_c, 0, 79, 59
2, 1218570, Note_on_c, 0, 77, 72
2, 1218571, Note_on_c, 0, 68, 52
2, 1218572, Note_on_c, 0, 65, 60
2, 1218574, Note_on_c, 0, 59, 36
2, 1218575, Note_on_c, 0, 47, 48
2, 1218587, Note_off_c, 0, 58, 52
2, 1218621, Note_off_c, 0, 46, 55
2, 1218724, Note_on_c, 0, 74, 60
2, 1218746, Note_off_c, 0, 77, 58
2, 1218761, Control_c, 0, 64, 0
2, 1218833, Note_off_c, 0, 74, 55
2, 1218865, Note_off_c, 0, 68, 53
2, 1218868, Note_off_c, 0, 47, 52
2, 1218869, Note_off_c, 0, 59, 49
2, 1218870, Note_off_c, 0, 65, 55
2, 1218872, Note_on_c, 0, 75, 52
2, 1218878, Note_on_c, 0, 67, 32
2, 1218878, Note_on_c, 0, 63, 45
2, 1218880, Note_on_c, 0, 48, 30
2, 1218881, Note_on_c, 0, 60, 36
2, 1219058, Note_off_c, 0, 48, 47
2, 1219059, Note_off_c, 0, 60, 49
2, 1219074, Note_off_c, 0, 67, 48
2, 1219074, Note_off_c, 0, 63, 51
2, 1219100, Note_off_c, 0, 75, 53
2, 1220095, Control_c, 0, 64, 127
2, 1220100, Note_on_c, 0, 77, 40
2, 1220418, Note_on_c, 0, 57, 40
2, 1220420, Note_on_c, 0, 75, 38
2, 1220421, Note_on_c, 0, 65, 30
2, 1220423, Note_on_c, 0, 53, 36
2, 1220424, Note_on_c, 0, 45, 30
2, 1220471, Note_off_c, 0, 77, 50
2, 1220574, Note_on_c, 0, 72, 42
2, 1220603, Note_off_c, 0, 75, 49
2, 1220732, Note_on_c, 0, 74, 48
2, 1220735, Note_on_c, 0, 58, 36
2, 1220736, Note_on_c, 0, 46, 30
2, 1220740, Note_off_c, 0, 72, 50
2, 1220765, Note_off_c, 0, 57, 50
2, 1220767, Note_off_c, 0, 45, 47
2, 1220795, Control_c, 0, 64, 0
2, 1220862, Note_off_c, 0, 74, 52
2, 1220901, Note_off_c, 0, 46, 47
2, 1220903, Note_off_c, 0, 58, 49
2, 1220964, Note_off_c, 0, 65, 47
2, 1220966, Note_off_c, 0, 53, 49
2, 1222344, Note_on_c, 0, 87, 51
2, 1222345, Note_on_c, 0, 65, 28
2, 1222346, Note_on_c, 0, 60, 28
2, 1222348, Note_on_c, 0, 57, 22
2, 1222485, Note_on_c, 0, 84, 52
2, 1222523, Note_off_c, 0, 87, 52
2, 1222560, Note_off_c, 0, 57, 45
2, 1222562, Note_off_c, 0, 60, 47
2, 1222626, Note_on_c, 0, 86, 54
2, 1222628, Note_on_c, 0, 58, 27
2, 1222630, Note_on_c, 0, 62, 33
2, 1222631, Note_off_c, 0, 84, 53
2, 1222768, Note_on_c, 0, 89, 56
2, 1222806, Note_off_c, 0, 86, 53
2, 1222824, Note_off_c, 0, 65, 47
2, 1222877, Note_off_c, 0, 62, 48
2, 1222879, Note_off_c, 0, 58, 46
2, 1222907, Note_on_c, 0, 77, 57
2, 1222909, Note_on_c, 0, 63, 37
2, 1222910, Note_on_c, 0, 65, 61
2, 1222911, Note_on_c, 0, 60, 31
2, 1222913, Note_off_c, 0, 89, 54
2, 1223024, Note_off_c, 0, 77, 54
2, 1223134, Note_off_c, 0, 60, 47
2, 1223189, Note_off_c, 0, 63, 49
2, 1223219, Note_on_c, 0, 87, 61
2, 1223221, Note_on_c, 0, 60, 42
2, 1223222, Note_on_c, 0, 57, 36
2, 1223346, Note_on_c, 0, 84, 62
2, 1223382, Note_off_c, 0, 87, 55
2, 1223487, Note_off_c, 0, 60, 50
2, 1223487, Note_on_c, 0, 86, 64
2, 1223489, Note_on_c, 0, 58, 40
2, 1223491, Note_on_c, 0, 62, 46
2, 1223520, Note_off_c, 0, 57, 49
2, 1223523, Note_off_c, 0, 84, 55
2, 1223628, Note_on_c, 0, 89, 66
2, 1223658, Note_off_c, 0, 86, 56
2, 1223684, Note_off_c, 0, 65, 55
2, 1223737, Note_off_c, 0, 62, 51
2, 1223739, Note_off_c, 0, 58, 50
2, 1223746, Note_off_c, 0, 89, 56
2, 1223766, Note_on_c, 0, 77, 67
2, 1223770, Note_on_c, 0, 63, 51
2, 1223771, Note_on_c, 0, 65, 75
2, 1223773, Note_on_c, 0, 60, 45
2, 1223881, Note_off_c, 0, 77, 57
2, 1223968, Note_off_c, 0, 60, 51
2, 1224034, Note_off_c, 0, 63, 52
2, 1224065, Note_on_c, 0, 87, 70
2, 1224066, Note_on_c, 0, 60, 56
2, 1224068, Note_on_c, 0, 57, 50
2, 1224209, Note_on_c, 0, 84, 72
2, 1224211, Note_off_c, 0, 87, 57
2, 1224334, Note_off_c, 0, 57, 52
2, 1224335, Note_off_c, 0, 60, 54
2, 1224336, Note_on_c, 0, 58, 54
2, 1224338, Note_on_c, 0, 86, 74
2, 1224339, Note_on_c, 0, 62, 60
2, 1224346, Note_off_c, 0, 84, 58
2, 1224474, Note_on_c, 0, 89, 75
2, 1224492, Note_off_c, 0, 86, 59
2, 1224545, Note_off_c, 0, 65, 59
2, 1224599, Note_off_c, 0, 62, 55
2, 1224601, Note_off_c, 0, 58, 53
2, 1224613, Note_on_c, 0, 77, 77
2, 1224615, Note_on_c, 0, 65, 89
2, 1224616, Note_on_c, 0, 60, 59
2, 1224618, Note_on_c, 0, 63, 65
2, 1224632, Note_off_c, 0, 89, 59
2, 1224729, Note_off_c, 0, 77, 59
2, 1224837, Note_off_c, 0, 60, 54
2, 1224897, Note_off_c, 0, 63, 56
2, 1224913, Note_on_c, 0, 57, 63
2, 1224914, Note_on_c, 0, 87, 80
2, 1224915, Note_on_c, 0, 60, 69
2, 1225052, Note_on_c, 0, 84, 82
2, 1225090, Note_off_c, 0, 87, 60
2, 1225195, Note_off_c, 0, 60, 57
2, 1225196, Note_off_c, 0, 57, 55
2, 1225197, Note_on_c, 0, 58, 66
2, 1225199, Note_on_c, 0, 86, 84
2, 1225200, Note_on_c, 0, 62, 72
2, 1225223, Note_off_c, 0, 84, 60
2, 1225336, Note_on_c, 0, 89, 84
2, 1225364, Note_off_c, 0, 86, 61
2, 1225492, Note_off_c, 0, 89, 61
2, 1225493, Note_off_c, 0, 65, 62
2, 1225495, Note_off_c, 0, 58, 56
2, 1225496, Note_off_c, 0, 62, 58
2, 1225498, Note_on_c, 0, 87, 83
2, 1225632, Note_off_c, 0, 87, 60
2, 1225634, Note_on_c, 0, 86, 81
2, 1225773, Note_off_c, 0, 86, 60
2, 1225775, Note_on_c, 0, 84, 80
2, 1225776, Note_on_c, 0, 52, 83
2, 1225915, Note_off_c, 0, 84, 60
2, 1225917, Note_on_c, 0, 82, 78
2, 1226071, Note_off_c, 0, 82, 59
2, 1226073, Note_on_c, 0, 81, 77
2, 1226074, Note_on_c, 0, 53, 65
2, 1226153, Note_off_c, 0, 52, 60
2, 1226212, Note_off_c, 0, 81, 59
2, 1226213, Note_on_c, 0, 82, 75
2, 1226289, Note_off_c, 0, 53, 56
2, 1226367, Note_off_c, 0, 82, 59
2, 1226369, Note_on_c, 0, 86, 74
2, 1226510, Note_off_c, 0, 86, 59
2, 1226512, Note_on_c, 0, 77, 72
2, 1226649, Note_off_c, 0, 77, 58
2, 1226651, Note_on_c, 0, 84, 71
2, 1226652, Note_on_c, 0, 41, 58
2, 1226791, Note_off_c, 0, 84, 58
2, 1226792, Note_off_c, 0, 41, 54
2, 1226794, Note_on_c, 0, 75, 69
2, 1226948, Note_off_c, 0, 75, 57
2, 1226949, Note_on_c, 0, 82, 68
2, 1226951, Note_on_c, 0, 74, 68
2, 1226952, Note_on_c, 0, 46, 54
2, 1227089, Note_off_c, 0, 82, 57
2, 1227091, Note_off_c, 0, 46, 53
2, 1227093, Note_off_c, 0, 74, 57
2, 1227093, Note_on_c, 0, 77, 66
2, 1227246, Note_off_c, 0, 77, 56
2, 1227248, Note_on_c, 0, 75, 65
2, 1227387, Note_off_c, 0, 75, 56
2, 1227389, Note_on_c, 0, 74, 63
2, 1227528, Note_off_c, 0, 74, 55
2, 1227530, Note_on_c, 0, 72, 62
2, 1227531, Note_on_c, 0, 40, 72
2, 1227670, Note_off_c, 0, 72, 55
2, 1227672, Note_on_c, 0, 70, 60
2, 1227826, Note_off_c, 0, 70, 55
2, 1227828, Note_on_c, 0, 69, 60
2, 1227829, Note_on_c, 0, 41, 48
2, 1227922, Note_off_c, 0, 40, 58
2, 1227966, Note_off_c, 0, 69, 55
2, 1227967, Note_on_c, 0, 70, 61
2, 1228044, Note_off_c, 0, 41, 52
2, 1228122, Note_off_c, 0, 70, 55
2, 1228124, Note_on_c, 0, 74, 62
2, 1228265, Note_off_c, 0, 74, 55
2, 1228267, Note_on_c, 0, 65, 63
2, 1228404, Note_off_c, 0, 65, 55
2, 1228407, Note_on_c, 0, 29, 50
2, 1228408, Note_on_c, 0, 41, 56
2, 1228409, Note_on_c, 0, 72, 64
2, 1228509, Note_off_c, 0, 41, 54
2, 1228517, Note_off_c, 0, 29, 52
2, 1228544, Note_off_c, 0, 72, 56
2, 1228548, Note_on_c, 0, 63, 65
2, 1228702, Note_off_c, 0, 63, 56
2, 1228704, Note_on_c, 0, 70, 66
2, 1228705, Note_on_c, 0, 34, 54
2, 1228706, Note_on_c, 0, 46, 60
2, 1228707, Note_on_c, 0, 62, 66
2, 1228822, Note_off_c, 0, 46, 55
2, 1228827, Note_off_c, 0, 34, 53
2, 1228844, Note_off_c, 0, 70, 56
2, 1228846, Note_off_c, 0, 62, 56
2, 1228848, Note_on_c, 0, 65, 67
2, 1229002, Note_off_c, 0, 65, 57
2, 1229003, Note_on_c, 0, 62, 68
2, 1229142, Note_off_c, 0, 62, 57
2, 1229143, Note_on_c, 0, 58, 69
2, 1229314, Note_off_c, 0, 58, 57
2, 1229316, Note_on_c, 0, 53, 70
2, 1229471, Note_off_c, 0, 53, 57
2, 1229472, Note_on_c, 0, 50, 72
2, 1229641, Note_off_c, 0, 50, 58
2, 1229643, Note_on_c, 0, 46, 72
2, 1229645, Note_on_c, 0, 34, 66
2, 1229762, Note_off_c, 0, 34, 56
2, 1229784, Note_off_c, 0, 46, 58
2, 1230708, Note_on_c, 0, 58, 30
2, 1231273, Note_off_c, 0, 58, 47
2, 1231274, Note_on_c, 0, 55, 34
2, 1231554, Note_off_c, 0, 55, 48
2, 1231556, Note_on_c, 0, 52, 36
2, 1231557, Note_on_c, 0, 70, 30
2, 1231835, Note_off_c, 0, 52, 49
2, 1231837, Note_on_c, 0, 55, 38
2, 1232149, Note_off_c, 0, 70, 47
2, 1232149, Note_off_c, 0, 55, 49
2, 1232152, Note_on_c, 0, 58, 41
2, 1232153, Note_on_c, 0, 67, 36
2, 1232384, Note_off_c, 0, 58, 50
2, 1232461, Note_off_c, 0, 67, 49
2, 1232463, Note_on_c, 0, 64, 40
2, 1232465, Note_on_c, 0, 61, 43
2, 1232759, Note_off_c, 0, 64, 50
2, 1232760, Note_on_c, 0, 67, 44
2, 1233059, Note_off_c, 0, 67, 51
2, 1233060, Note_off_c, 0, 61, 50
2, 1233062, Note_on_c, 0, 58, 48
2, 1233063, Note_on_c, 0, 70, 47
2, 1233372, Note_off_c, 0, 58, 52
2, 1233373, Note_off_c, 0, 70, 51
2, 1233374, Note_on_c, 0, 55, 50
2, 1233375, Note_on_c, 0, 73, 51
2, 1233669, Note_off_c, 0, 55, 52
2, 1233671, Note_on_c, 0, 58, 53
2, 1233980, Note_off_c, 0, 73, 52
2, 1233982, Note_off_c, 0, 58, 53
2, 1233983, Note_on_c, 0, 70, 58
2, 1233985, Note_on_c, 0, 61, 55
2, 1234217, Note_off_c, 0, 61, 53
2, 1234293, Note_off_c, 0, 70, 54
2, 1234297, Note_on_c, 0, 64, 58
2, 1234298, Note_on_c, 0, 67, 62
2, 1234578, Note_off_c, 0, 67, 55
2, 1234579, Note_on_c, 0, 70, 65
2, 1234906, Note_off_c, 0, 64, 54
2, 1234908, Note_off_c, 0, 70, 56
2, 1234909, Note_on_c, 0, 61, 62
2, 1234911, Note_on_c, 0, 73, 69
2, 1235219, Note_off_c, 0, 61, 55
2, 1235221, Note_off_c, 0, 73, 57
2, 1235222, Note_on_c, 0, 58, 65
2, 1235224, Note_on_c, 0, 76, 72
2, 1235518, Note_off_c, 0, 58, 56
2, 1235520, Note_on_c, 0, 61, 67
2, 1235831, Note_off_c, 0, 76, 58
2, 1235833, Note_off_c, 0, 61, 57
2, 1235834, Note_on_c, 0, 64, 69
2, 1235835, Note_on_c, 0, 73, 79
2, 1236080, Note_off_c, 0, 73, 60
2, 1236082, Note_off_c, 0, 64, 57
2, 1236158, Note_on_c, 0, 70, 72
2, 1236167, Note_on_c, 0, 67, 66
2, 1236188, Control_c, 0, 64, 127
2, 1236442, Note_on_c, 0, 73, 78
2, 1236756, Note_on_c, 0, 76, 72
2, 1236779, Note_off_c, 0, 73, 59
2, 1237071, Note_on_c, 0, 79, 66
2, 1237092, Note_off_c, 0, 76, 58
2, 1237094, Control_c, 0, 64, 0
2, 1237294, Control_c, 0, 64, 127
2, 1237351, Note_on_c, 0, 77, 60
2, 1237375, Note_off_c, 0, 79, 56
2, 1237502, Note_off_c, 0, 67, 56
2, 1237665, Note_on_c, 0, 76, 54
2, 1237689, Note_off_c, 0, 77, 55
2, 1237900, Note_off_c, 0, 76, 53
2, 1237976, Note_off_c, 0, 70, 58
2, 1237978, Note_on_c, 0, 76, 48
2, 1237979, Note_on_c, 0, 72, 60
2, 1237985, Control_c, 0, 64, 0
2, 1237988, Note_on_c, 0, 68, 54
2, 1238195, Control_c, 0, 64, 127
2, 1238275, Note_on_c, 0, 77, 48
2, 1238330, Note_off_c, 0, 76, 52
2, 1238572, Note_off_c, 0, 77, 52
2, 1238573, Note_on_c, 0, 79, 54
2, 1238617, Note_off_c, 0, 79, 53
2, 1238620, Note_on_c, 0, 77, 55
2, 1238668, Note_off_c, 0, 77, 53
2, 1238669, Note_on_c, 0, 79, 56
2, 1238729, Note_off_c, 0, 79, 54
2, 1238730, Note_on_c, 0, 77, 57
2, 1238775, Note_off_c, 0, 77, 54
2, 1238776, Note_on_c, 0, 76, 58
2, 1238823, Note_off_c, 0, 76, 54
2, 1238825, Note_on_c, 0, 77, 59
2, 1238886, Note_off_c, 0, 77, 54
2, 1238887, Note_on_c, 0, 80, 73
2, 1238972, Control_c, 0, 64, 0
2, 1239168, Note_on_c, 0, 79, 60
2, 1239184, Control_c, 0, 64, 127
2, 1239192, Note_off_c, 0, 80, 58
2, 1239480, Note_on_c, 0, 77, 57
2, 1239493, Note_off_c, 0, 68, 53
2, 1239505, Note_off_c, 0, 79, 55
2, 1239715, Note_off_c, 0, 77, 54
2, 1239794, Note_off_c, 0, 72, 55
2, 1239796, Note_on_c, 0, 73, 57
2, 1239806, Control_c, 0, 64, 0
2, 1239806, Note_on_c, 0, 70, 51
2, 1239807, Note_on_c, 0, 67, 45
2, 1240014, Control_c, 0, 64, 127
2, 1240076, Note_on_c, 0, 76, 51
2, 1240252, Note_off_c, 0, 76, 52
2, 1240347, Note_on_c, 0, 76, 48
2, 1240505, Note_off_c, 0, 76, 52
2, 1240623, Note_on_c, 0, 76, 60
2, 1240672, Control_c, 0, 64, 0
2, 1240686, Note_on_c, 0, 79, 76
2, 1240713, Note_off_c, 0, 76, 55
2, 1240882, Control_c, 0, 64, 127
2, 1240971, Note_on_c, 0, 77, 60
2, 1241001, Note_off_c, 0, 79, 59
2, 1241181, Note_off_c, 0, 67, 51
2, 1241251, Note_off_c, 0, 70, 52
2, 1241284, Note_on_c, 0, 76, 57
2, 1241330, Note_off_c, 0, 77, 55
2, 1241516, Note_off_c, 0, 76, 54
2, 1241596, Note_off_c, 0, 73, 54
2, 1241598, Note_on_c, 0, 72, 50
2, 1241608, Note_on_c, 0, 68, 44
2, 1241695, Control_c, 0, 64, 0
2, 1241908, Control_c, 0, 64, 127
2, 1241910, Note_on_c, 0, 77, 51
2, 1242092, Note_off_c, 0, 77, 52
2, 1242205, Note_on_c, 0, 77, 48
2, 1242329, Note_off_c, 0, 77, 52
2, 1242478, Note_on_c, 0, 77, 72
2, 1242534, Control_c, 0, 64, 0
2, 1242536, Note_on_c, 0, 80, 65
2, 1242582, Note_off_c, 0, 77, 58
2, 1242743, Control_c, 0, 64, 127
2, 1242819, Note_on_c, 0, 79, 72
2, 1242881, Note_off_c, 0, 80, 56
2, 1243130, Note_on_c, 0, 77, 69
2, 1243195, Note_off_c, 0, 79, 58
2, 1243205, Note_off_c, 0, 68, 51
2, 1243365, Note_off_c, 0, 77, 57
2, 1243431, Note_off_c, 0, 72, 52
2, 1243445, Note_on_c, 0, 68, 43
2, 1243446, Note_on_c, 0, 75, 66
2, 1243448, Note_on_c, 0, 65, 37
2, 1243455, Control_c, 0, 64, 0
2, 1243667, Control_c, 0, 64, 127
2, 1243741, Note_off_c, 0, 75, 56
2, 1243742, Note_on_c, 0, 74, 63
2, 1243960, Note_off_c, 0, 74, 55
2, 1244038, Note_on_c, 0, 74, 59
2, 1244180, Note_off_c, 0, 74, 54
2, 1244271, Note_on_c, 0, 74, 56
2, 1244325, Control_c, 0, 64, 0
2, 1244337, Note_on_c, 0, 77, 56
2, 1244339, Note_off_c, 0, 74, 54
2, 1244533, Control_c, 0, 64, 127
2, 1244651, Note_off_c, 0, 77, 54
2, 1244652, Note_on_c, 0, 75, 53
2, 1244980, Note_on_c, 0, 74, 50
2, 1245012, Note_off_c, 0, 65, 49
2, 1245015, Note_off_c, 0, 75, 53
2, 1245310, Note_off_c, 0, 68, 50
2, 1245312, Note_on_c, 0, 72, 46
2, 1245314, Note_on_c, 0, 65, 36
2, 1245315, Note_on_c, 0, 62, 30
2, 1245317, Note_off_c, 0, 74, 52
2, 1245393, Control_c, 0, 64, 0
2, 1245603, Control_c, 0, 64, 127
2, 1245655, Note_on_c, 0, 70, 43
2, 1245718, Note_off_c, 0, 72, 51
2, 1246014, Note_on_c, 0, 69, 40
2, 1246032, Note_off_c, 0, 70, 50
2, 1246366, Note_on_c, 0, 70, 36
2, 1246375, Note_off_c, 0, 69, 50
2, 1246504, Control_c, 0, 64, 0
2, 1246769, Control_c, 0, 64, 127
2, 1246771, Note_on_c, 0, 72, 60
2, 1246812, Note_off_c, 0, 70, 49
2, 1247244, Note_on_c, 0, 68, 42
2, 1247263, Note_off_c, 0, 65, 49
2, 1247355, Note_off_c, 0, 72, 55
2, 1247359, Note_off_c, 0, 62, 47
2, 1247668, Note_off_c, 0, 68, 50
2, 1247758, Note_on_c, 0, 70, 53
2, 1247784, Note_on_c, 0, 67, 33
2, 1247787, Note_on_c, 0, 63, 42
2, 1247788, Note_on_c, 0, 58, 30
2, 1247795, Control_c, 0, 64, 0
2, 1247989, Control_c, 0, 64, 127
2, 1248067, Note_on_c, 0, 51, 45
2, 1248210, Note_off_c, 0, 67, 48
2, 1248347, Note_off_c, 0, 70, 53
2, 1248356, Note_off_c, 0, 58, 47
2, 1248357, Note_off_c, 0, 63, 50
2, 1248359, Note_off_c, 0, 51, 51
2, 1248360, Note_on_c, 0, 67, 52
2, 1248367, Note_on_c, 0, 55, 48
2, 1248665, Note_off_c, 0, 67, 53
2, 1248669, Note_on_c, 0, 63, 56
2, 1248677, Note_off_c, 0, 55, 52
2, 1248680, Note_on_c, 0, 58, 51
2, 1248974, Note_off_c, 0, 63, 54
2, 1248976, Note_on_c, 0, 67, 60
2, 1248986, Note_on_c, 0, 55, 54
2, 1249260, Note_on_c, 0, 70, 64
2, 1249271, Note_off_c, 0, 55, 53
2, 1249273, Note_on_c, 0, 51, 57
2, 1249313, Control_c, 0, 64, 0
2, 1249487, Note_off_c, 0, 70, 56
2, 1249496, Note_off_c, 0, 51, 54
2, 1249522, Control_c, 0, 64, 127
2, 1249568, Note_on_c, 0, 75, 68
2, 1249577, Note_on_c, 0, 46, 60
2, 1249894, Note_off_c, 0, 75, 57
2, 1249898, Note_on_c, 0, 79, 78
2, 1250224, Note_off_c, 0, 67, 55
2, 1250226, Note_off_c, 0, 79, 59
2, 1250227, Note_on_c, 0, 77, 72
2, 1250229, Note_on_c, 0, 65, 52
2, 1250236, Note_off_c, 0, 46, 55
2, 1250238, Note_on_c, 0, 44, 48
2, 1250386, Note_off_c, 0, 77, 58
2, 1250388, Note_on_c, 0, 74, 66
2, 1250499, Note_off_c, 0, 74, 56
2, 1250547, Note_off_c, 0, 65, 53
2, 1250549, Note_on_c, 0, 75, 60
2, 1250550, Note_on_c, 0, 67, 50
2, 1250556, Note_off_c, 0, 44, 52
2, 1250559, Note_on_c, 0, 43, 48
2, 1250567, Control_c, 0, 64, 0
2, 1250689, Note_off_c, 0, 75, 55
2, 1250691, Note_on_c, 0, 79, 54
2, 1250763, Note_off_c, 0, 43, 52
2, 1250765, Note_off_c, 0, 58, 52
2, 1250830, Note_off_c, 0, 79, 53
2, 1250833, Note_off_c, 0, 67, 52
2, 1250834, Note_on_c, 0, 70, 48
2, 1251129, Note_off_c, 0, 70, 52
2, 1251433, Note_on_c, 0, 72, 60
2, 1251434, Control_c, 0, 64, 127
2, 1251442, Note_on_c, 0, 63, 37
2, 1251445, Note_on_c, 0, 56, 42
2, 1251576, Note_on_c, 0, 75, 60
2, 1251621, Note_off_c, 0, 72, 55
2, 1251716, Note_on_c, 0, 70, 57
2, 1251727, Note_on_c, 0, 55, 34
2, 1251763, Note_off_c, 0, 75, 55
2, 1251773, Note_off_c, 0, 56, 50
2, 1251842, Control_c, 0, 64, 0
2, 1251878, Note_off_c, 0, 55, 48
2, 1251883, Note_off_c, 0, 70, 54
2, 1252239, Note_off_c, 0, 63, 49
2, 1252322, Control_c, 0, 64, 127
2, 1252341, Note_on_c, 0, 68, 43
2, 1252351, Note_on_c, 0, 65, 30
2, 1252354, Note_on_c, 0, 58, 20
2, 1252355, Note_on_c, 0, 50, 26
2, 1252484, Note_on_c, 0, 70, 40
2, 1252518, Note_off_c, 0, 68, 50
2, 1252637, Note_off_c, 0, 65, 47
2, 1252642, Note_on_c, 0, 67, 36
2, 1252651, Note_on_c, 0, 63, 30
2, 1252653, Note_on_c, 0, 51, 24
2, 1252673, Note_off_c, 0, 70, 50
2, 1252719, Control_c, 0, 64, 0
2, 1252733, Note_off_c, 0, 50, 46
2, 1252815, Note_off_c, 0, 67, 49
2, 1252828, Note_off_c, 0, 63, 47
2, 1252830, Note_off_c, 0, 51, 46
2, 1253185, Note_off_c, 0, 58, 45
2, 1253254, Control_c, 0, 64, 127
2, 1253259, Note_on_c, 0, 65, 50
2, 1253261, Note_on_c, 0, 62, 30
2, 1253262, Note_on_c, 0, 58, 40
2, 1253263, Note_on_c, 0, 46, 48
2, 1253466, Note_off_c, 0, 65, 52
2, 1253542, Note_off_c, 0, 62, 47
2, 1253544, Note_off_c, 0, 46, 52
2, 1253548, Note_on_c, 0, 68, 62
2, 1253557, Note_on_c, 0, 65, 42
2, 1253559, Note_on_c, 0, 50, 38
2, 1253767, Note_off_c, 0, 68, 55
2, 1253776, Note_off_c, 0, 65, 50
2, 1253778, Note_off_c, 0, 50, 49
2, 1253779, Note_off_c, 0, 58, 50
2, 1253855, Note_on_c, 0, 58, 39
2, 1253856, Note_on_c, 0, 67, 50
2, 1253857, Note_on_c, 0, 63, 30
2, 1253859, Note_on_c, 0, 51, 27
2, 1253871, Control_c, 0, 64, 0
2, 1253968, Note_off_c, 0, 67, 52
2, 1253974, Note_off_c, 0, 58, 49
2, 1253979, Note_off_c, 0, 63, 47
2, 1253982, Note_off_c, 0, 51, 46
2, 1254167, Note_on_c, 0, 65, 45
2, 1254169, Note_on_c, 0, 62, 36
2, 1254171, Note_on_c, 0, 58, 30
2, 1254172, Note_on_c, 0, 46, 35
2, 1254306, Note_off_c, 0, 65, 51
2, 1254314, Note_off_c, 0, 62, 49
2, 1254317, Note_off_c, 0, 58, 47
2, 1254318, Note_off_c, 0, 46, 48
2, 1255129, Note_on_c, 0, 70, 55
2, 1255154, Control_c, 0, 64, 127
2, 1255157, Note_on_c, 0, 66, 35
2, 1255159, Note_on_c, 0, 63, 40
2, 1255160, Note_on_c, 0, 58, 30
2, 1255453, Note_on_c, 0, 51, 50
2, 1255610, Note_off_c, 0, 66, 48
2, 1255691, Note_off_c, 0, 70, 53
2, 1255717, Note_on_c, 0, 66, 48
2, 1255720, Note_off_c, 0, 58, 47
2, 1255723, Note_off_c, 0, 51, 52
2, 1255735, Note_on_c, 0, 54, 50
2, 1255910, Note_off_c, 0, 63, 50
2, 1256029, Note_off_c, 0, 66, 52
2, 1256049, Note_off_c, 0, 54, 52
2, 1256052, Note_on_c, 0, 63, 50
2, 1256071, Note_on_c, 0, 58, 52
2, 1256345, Note_off_c, 0, 63, 52
2, 1256346, Note_on_c, 0, 66, 52
2, 1256366, Note_on_c, 0, 54, 56
2, 1256628, Note_on_c, 0, 70, 55
2, 1256645, Control_c, 0, 64, 0
2, 1256647, Note_off_c, 0, 54, 54
2, 1256649, Note_on_c, 0, 51, 60
2, 1256856, Control_c, 0, 64, 127
2, 1256942, Note_on_c, 0, 75, 57
2, 1256958, Note_off_c, 0, 51, 55
2, 1256962, Note_on_c, 0, 46, 60
2, 1257255, Note_on_c, 0, 78, 60
2, 1257299, Note_off_c, 0, 75, 54
2, 1257567, Note_off_c, 0, 70, 53
2, 1257568, Note_off_c, 0, 66, 53
2, 1257570, Note_on_c, 0, 77, 55
2, 1257572, Note_on_c, 0, 68, 60
2, 1257573, Note_on_c, 0, 65, 53
2, 1257614, Note_off_c, 0, 78, 55
2, 1257664, Note_off_c, 0, 58, 53
2, 1257666, Note_off_c, 0, 46, 55
2, 1257709, Note_on_c, 0, 74, 54
2, 1257753, Note_off_c, 0, 77, 53
2, 1257817, Note_off_c, 0, 74, 53
2, 1257866, Note_off_c, 0, 68, 55
2, 1257868, Note_off_c, 0, 65, 53
2, 1257869, Note_on_c, 0, 75, 48
2, 1257871, Note_on_c, 0, 66, 28
2, 1257872, Note_on_c, 0, 63, 36
2, 1257873, Note_on_c, 0, 59, 30
2, 1257874, Note_on_c, 0, 47, 24
2, 1258162, Note_off_c, 0, 75, 52
2, 1258164, Note_off_c, 0, 66, 47
2, 1258165, Note_off_c, 0, 63, 49
2, 1258166, Note_off_c, 0, 59, 47
2, 1258168, Note_off_c, 0, 47, 46
2, 1258169, Control_c, 0, 64, 0
2, 1259392, Note_on_c, 0, 76, 36
2, 1259402, Note_on_c, 0, 66, 30
2, 1259403, Note_on_c, 0, 58, 36
2, 1259404, Note_on_c, 0, 54, 24
2, 1259405, Note_on_c, 0, 46, 20
2, 1259532, Note_on_c, 0, 73, 36
2, 1259587, Note_off_c, 0, 76, 49
2, 1259675, Note_on_c, 0, 75, 37
2, 1259686, Note_on_c, 0, 47, 24
2, 1259688, Note_on_c, 0, 59, 30
2, 1259728, Note_off_c, 0, 73, 49
2, 1259738, Note_off_c, 0, 46, 45
2, 1259740, Note_off_c, 0, 58, 49
2, 1259818, Note_off_c, 0, 75, 49
2, 1259829, Note_off_c, 0, 54, 46
2, 1259919, Note_off_c, 0, 59, 47
2, 1259920, Note_off_c, 0, 47, 46
2, 1259974, Note_off_c, 0, 66, 47
2, 1260284, Note_on_c, 0, 76, 41
2, 1260294, Note_on_c, 0, 66, 30
2, 1260296, Note_on_c, 0, 54, 28
2, 1260298, Note_on_c, 0, 58, 36
2, 1260299, Note_on_c, 0, 46, 22
2, 1260410, Note_on_c, 0, 73, 42
2, 1260435, Note_off_c, 0, 76, 50
2, 1260552, Note_on_c, 0, 75, 43
2, 1260564, Note_on_c, 0, 59, 31
2, 1260565, Note_on_c, 0, 47, 25
2, 1260577, Note_off_c, 0, 73, 50
2, 1260585, Note_off_c, 0, 58, 49
2, 1260587, Note_off_c, 0, 46, 45
2, 1260679, Note_off_c, 0, 54, 47
2, 1260702, Note_off_c, 0, 75, 50
2, 1260796, Note_off_c, 0, 59, 47
2, 1260799, Note_off_c, 0, 47, 46
2, 1260822, Note_off_c, 0, 66, 47
2, 1261162, Note_on_c, 0, 76, 48
2, 1261171, Note_on_c, 0, 58, 36
2, 1261172, Note_on_c, 0, 66, 40
2, 1261173, Note_on_c, 0, 54, 40
2, 1261175, Note_on_c, 0, 46, 30
2, 1261287, Note_on_c, 0, 73, 48
2, 1261356, Note_off_c, 0, 76, 52
2, 1261425, Note_off_c, 0, 54, 50
2, 1261433, Note_on_c, 0, 75, 46
2, 1261441, Note_on_c, 0, 47, 36
2, 1261443, Note_on_c, 0, 59, 40
2, 1261497, Note_off_c, 0, 73, 52
2, 1261506, Note_off_c, 0, 58, 49
2, 1261508, Note_off_c, 0, 46, 47
2, 1261578, Note_off_c, 0, 66, 50
2, 1261598, Note_off_c, 0, 75, 51
2, 1261701, Note_on_c, 0, 78, 65
2, 1261719, Note_on_c, 0, 66, 40
2, 1261810, Control_c, 0, 64, 127
2, 1262016, Note_off_c, 0, 47, 49
2, 1262019, Note_on_c, 0, 51, 44
2, 1262314, Note_off_c, 0, 66, 50
2, 1262316, Note_off_c, 0, 51, 51
2, 1262317, Note_on_c, 0, 68, 48
2, 1262319, Note_on_c, 0, 53, 48
2, 1262349, Control_c, 0, 64, 0
2, 1262546, Control_c, 0, 64, 127
2, 1262576, Note_off_c, 0, 78, 56
2, 1262597, Note_on_c, 0, 76, 72
2, 1262893, Note_off_c, 0, 59, 50
2, 1262896, Note_on_c, 0, 61, 56
2, 1263192, Note_off_c, 0, 53, 52
2, 1263193, Note_off_c, 0, 68, 52
2, 1263194, Note_on_c, 0, 70, 54
2, 1263196, Note_on_c, 0, 54, 54
2, 1263200, Control_c, 0, 64, 0
2, 1263405, Control_c, 0, 64, 127
2, 1263457, Note_off_c, 0, 76, 58
2, 1263460, Note_off_c, 0, 70, 53
2, 1263461, Note_on_c, 0, 75, 72
2, 1263462, Note_on_c, 0, 71, 47
2, 1263756, Note_off_c, 0, 61, 54
2, 1263757, Note_on_c, 0, 63, 57
2, 1263895, Note_off_c, 0, 75, 58
2, 1264052, Note_off_c, 0, 63, 54
2, 1264055, Note_on_c, 0, 73, 64
2, 1264055, Note_on_c, 0, 64, 50
2, 1264063, Control_c, 0, 64, 0
2, 1264274, Control_c, 0, 64, 127
2, 1264319, Note_off_c, 0, 64, 52
2, 1264320, Note_on_c, 0, 70, 48
2, 1264322, Note_on_c, 0, 66, 51
2, 1264373, Note_off_c, 0, 71, 51
2, 1264634, Note_off_c, 0, 66, 52
2, 1264635, Note_on_c, 0, 64, 48
2, 1264930, Note_off_c, 0, 73, 56
2, 1264932, Note_off_c, 0, 64, 52
2, 1264932, Note_off_c, 0, 70, 52
2, 1264934, Note_off_c, 0, 54, 53
2, 1264935, Note_on_c, 0, 75, 63
2, 1264937, Note_on_c, 0, 71, 40
2, 1264939, Note_on_c, 0, 63, 48
2, 1264940, Note_on_c, 0, 59, 36
2, 1264942, Control_c, 0, 64, 0
2, 1265137, Control_c, 0, 64, 127
2, 1265212, Note_off_c, 0, 75, 55
2, 1265214, Note_off_c, 0, 71, 50
2, 1265215, Note_off_c, 0, 63, 52
2, 1265217, Note_on_c, 0, 78, 60
2, 1265218, Note_on_c, 0, 66, 42
2, 1265495, Note_on_c, 0, 51, 48
2, 1265793, Note_off_c, 0, 66, 50
2, 1265795, Note_on_c, 0, 68, 52
2, 1265796, Note_on_c, 0, 52, 50
2, 1265818, Note_off_c, 0, 51, 52
2, 1266074, Note_off_c, 0, 78, 55
2, 1266075, Note_on_c, 0, 76, 69
2, 1266092, Control_c, 0, 64, 0
2, 1266293, Control_c, 0, 64, 127
2, 1266370, Note_off_c, 0, 59, 49
2, 1266373, Note_on_c, 0, 61, 55
2, 1266669, Note_off_c, 0, 68, 53
2, 1266671, Note_on_c, 0, 70, 49
2, 1266672, Note_on_c, 0, 55, 57
2, 1266695, Note_off_c, 0, 52, 52
2, 1266951, Note_off_c, 0, 76, 57
2, 1266953, Note_off_c, 0, 70, 52
2, 1266954, Note_on_c, 0, 75, 72
2, 1266964, Note_on_c, 0, 71, 42
2, 1266983, Control_c, 0, 64, 0
2, 1267180, Control_c, 0, 64, 127
2, 1267248, Note_off_c, 0, 61, 53
2, 1267250, Note_on_c, 0, 63, 54
2, 1267345, Note_off_c, 0, 55, 54
2, 1267541, Note_off_c, 0, 71, 50
2, 1267547, Note_on_c, 0, 70, 48
2, 1267548, Note_on_c, 0, 55, 54
2, 1267829, Note_off_c, 0, 75, 58
2, 1267830, Note_on_c, 0, 73, 60
2, 1267838, Control_c, 0, 64, 0
2, 1267970, Note_off_c, 0, 63, 53
2, 1268044, Control_c, 0, 64, 127
2, 1268110, Note_on_c, 0, 63, 56
2, 1268189, Note_off_c, 0, 55, 53
2, 1268409, Note_off_c, 0, 70, 52
2, 1268410, Note_on_c, 0, 56, 53
2, 1268688, Note_off_c, 0, 73, 55
2, 1268691, Note_on_c, 0, 71, 58
2, 1268698, Control_c, 0, 64, 0
2, 1268832, Note_off_c, 0, 63, 54
2, 1268889, Control_c, 0, 64, 127
2, 1268988, Note_on_c, 0, 63, 48
2, 1269068, Note_off_c, 0, 56, 53
2, 1269286, Note_on_c, 0, 58, 46
2, 1269599, Note_off_c, 0, 71, 54
2, 1269601, Note_on_c, 0, 70, 47
2, 1269629, Control_c, 0, 64, 0
2, 1269756, Note_off_c, 0, 63, 52
2, 1269831, Control_c, 0, 64, 127
2, 1269911, Note_on_c, 0, 63, 41
2, 1269991, Note_off_c, 0, 58, 51
2, 1270241, Note_on_c, 0, 60, 39
2, 1270602, Note_off_c, 0, 70, 51
2, 1270603, Note_on_c, 0, 69, 36
2, 1270608, Control_c, 0, 64, 0
2, 1270773, Note_off_c, 0, 63, 50
2, 1270813, Control_c, 0, 64, 127
2, 1270947, Note_off_c, 0, 69, 49
2, 1270948, Note_on_c, 0, 63, 36
2, 1271041, Note_off_c, 0, 60, 49
2, 1271306, Note_off_c, 0, 63, 49
2, 1271701, Control_c, 0, 64, 0
2, 1272355, Note_on_c, 0, 58, 36
2, 1272638, Note_off_c, 0, 58, 49
2, 1272639, Note_on_c, 0, 70, 30
2, 1272858, Note_off_c, 0, 70, 47
2, 1272921, Note_on_c, 0, 70, 29
2, 1273140, Note_off_c, 0, 70, 47
2, 1273203, Note_on_c, 0, 70, 32
2, 1273421, Note_off_c, 0, 70, 48
2, 1273485, Note_on_c, 0, 70, 35
2, 1273705, Note_off_c, 0, 70, 48
2, 1273781, Note_on_c, 0, 80, 48
2, 1273783, Note_on_c, 0, 70, 38
2, 1273784, Note_on_c, 0, 65, 40
2, 1273908, Note_on_c, 0, 77, 49
2, 1273910, Note_on_c, 0, 62, 41
2, 1273925, Note_off_c, 0, 80, 52
2, 1273955, Note_off_c, 0, 65, 50
2, 1273979, Note_off_c, 0, 70, 49
2, 1274048, Note_on_c, 0, 70, 41
2, 1274049, Note_on_c, 0, 63, 42
2, 1274051, Note_on_c, 0, 79, 51
2, 1274054, Note_off_c, 0, 77, 52
2, 1274086, Note_off_c, 0, 62, 50
2, 1274197, Note_off_c, 0, 79, 52
2, 1274201, Note_off_c, 0, 63, 50
2, 1274267, Note_off_c, 0, 70, 50
2, 1274344, Note_on_c, 0, 70, 44
2, 1274347, Note_on_c, 0, 58, 44
2, 1274564, Note_off_c, 0, 70, 51
2, 1274643, Note_on_c, 0, 77, 57
2, 1274644, Note_on_c, 0, 70, 47
2, 1274646, Note_on_c, 0, 68, 46
2, 1274649, Note_off_c, 0, 58, 51
2, 1274770, Note_on_c, 0, 74, 58
2, 1274771, Note_on_c, 0, 65, 48
2, 1274800, Note_off_c, 0, 68, 51
2, 1274818, Note_off_c, 0, 77, 54
2, 1274851, Note_off_c, 0, 70, 51
2, 1274913, Note_on_c, 0, 70, 50
2, 1274914, Note_on_c, 0, 67, 49
2, 1274915, Note_on_c, 0, 75, 60
2, 1274917, Note_off_c, 0, 74, 54
2, 1274952, Note_off_c, 0, 65, 52
2, 1275043, Note_off_c, 0, 75, 55
2, 1275100, Note_off_c, 0, 67, 52
2, 1275130, Note_off_c, 0, 70, 52
2, 1275210, Note_on_c, 0, 70, 53
2, 1275211, Note_on_c, 0, 58, 51
2, 1275427, Note_off_c, 0, 70, 53
2, 1275506, Note_on_c, 0, 80, 66
2, 1275507, Note_on_c, 0, 70, 56
2, 1275509, Note_on_c, 0, 65, 53
2, 1275548, Note_off_c, 0, 58, 52
2, 1275632, Note_on_c, 0, 62, 54
2, 1275633, Note_on_c, 0, 77, 67
2, 1275638, Note_off_c, 0, 80, 56
2, 1275693, Note_off_c, 0, 65, 53
2, 1275712, Note_off_c, 0, 70, 54
2, 1275771, Note_on_c, 0, 79, 69
2, 1275774, Note_on_c, 0, 70, 59
2, 1275775, Note_on_c, 0, 63, 55
2, 1275788, Note_off_c, 0, 77, 57
2, 1275802, Note_off_c, 0, 62, 53
2, 1275914, Note_off_c, 0, 79, 57
2, 1275935, Note_off_c, 0, 63, 53
2, 1275992, Note_off_c, 0, 70, 54
2, 1276069, Note_on_c, 0, 70, 62
2, 1276070, Note_on_c, 0, 58, 57
2, 1276288, Note_off_c, 0, 70, 55
2, 1276368, Note_on_c, 0, 70, 65
2, 1276369, Note_on_c, 0, 77, 75
2, 1276370, Note_on_c, 0, 68, 59
2, 1276402, Note_off_c, 0, 58, 54
2, 1276510, Note_on_c, 0, 65, 60
2, 1276511, Note_on_c, 0, 74, 76
2, 1276548, Note_off_c, 0, 77, 59
2, 1276573, Note_off_c, 0, 68, 54
2, 1276634, Note_off_c, 0, 70, 56
2, 1276634, Note_on_c, 0, 75, 78
2, 1276636, Note_on_c, 0, 67, 61
2, 1276670, Note_off_c, 0, 65, 55
2, 1276681, Note_off_c, 0, 74, 59
2, 1276773, Note_off_c, 0, 75, 59
2, 1276796, Note_off_c, 0, 67, 55
2, 1276931, Note_on_c, 0, 75, 63
2, 1276932, Note_on_c, 0, 63, 63
2, 1277150, Note_off_c, 0, 75, 55
2, 1277227, Note_off_c, 0, 63, 55
2, 1277229, Note_on_c, 0, 75, 66
2, 1277230, Note_on_c, 0, 84, 84
2, 1277232, Note_on_c, 0, 68, 66
2, 1277370, Note_on_c, 0, 80, 84
2, 1277373, Note_on_c, 0, 65, 66
2, 1277398, Note_off_c, 0, 84, 61
2, 1277415, Note_off_c, 0, 68, 56
2, 1277422, Note_off_c, 0, 75, 56
2, 1277495, Note_on_c, 0, 75, 62
2, 1277496, Note_on_c, 0, 82, 80
2, 1277497, Note_on_c, 0, 67, 62
2, 1277512, Note_off_c, 0, 80, 61
2, 1277523, Note_off_c, 0, 65, 56
2, 1277622, Note_off_c, 0, 82, 60
2, 1277703, Note_off_c, 0, 67, 55
2, 1277716, Note_off_c, 0, 75, 55
2, 1277793, Note_on_c, 0, 75, 54
2, 1277794, Note_on_c, 0, 63, 54
2, 1278010, Note_off_c, 0, 75, 53
2, 1278058, Note_off_c, 0, 63, 53
2, 1278089, Note_on_c, 0, 75, 66
2, 1278090, Note_on_c, 0, 80, 84
2, 1278092, Note_on_c, 0, 72, 66
2, 1278233, Note_on_c, 0, 78, 84
2, 1278235, Note_on_c, 0, 69, 66
2, 1278273, Note_off_c, 0, 80, 61
2, 1278295, Note_off_c, 0, 75, 56
2, 1278297, Note_off_c, 0, 72, 56
2, 1278357, Note_on_c, 0, 75, 62
2, 1278358, Note_on_c, 0, 70, 62
2, 1278359, Note_on_c, 0, 79, 80
2, 1278372, Note_off_c, 0, 78, 61
2, 1278384, Note_off_c, 0, 69, 56
2, 1278492, Note_off_c, 0, 79, 60
2, 1278504, Note_off_c, 0, 70, 55
2, 1278577, Note_off_c, 0, 75, 55
2, 1278653, Note_on_c, 0, 75, 54
2, 1278656, Note_on_c, 0, 63, 54
2, 1278872, Note_off_c, 0, 75, 53
2, 1278889, Note_off_c, 0, 63, 53
2, 1278951, Note_on_c, 0, 75, 66
2, 1278952, Note_on_c, 0, 84, 84
2, 1278954, Note_on_c, 0, 68, 66
2, 1279093, Note_on_c, 0, 65, 66
2, 1279095, Note_on_c, 0, 80, 84
2, 1279116, Note_off_c, 0, 84, 61
2, 1279142, Note_off_c, 0, 68, 56
2, 1279154, Note_off_c, 0, 75, 56
2, 1279221, Note_on_c, 0, 75, 62
2, 1279223, Note_on_c, 0, 67, 62
2, 1279224, Note_on_c, 0, 82, 80
2, 1279248, Note_off_c, 0, 80, 61
2, 1279260, Note_off_c, 0, 65, 56
2, 1279351, Note_off_c, 0, 82, 60
2, 1279438, Note_off_c, 0, 67, 55
2, 1279439, Note_off_c, 0, 75, 55
2, 1279515, Note_on_c, 0, 75, 54
2, 1279517, Note_on_c, 0, 63, 54
2, 1279734, Note_off_c, 0, 75, 53
2, 1279814, Note_on_c, 0, 75, 66
2, 1279815, Note_on_c, 0, 80, 84
2, 1279817, Note_on_c, 0, 72, 66
2, 1279824, Note_off_c, 0, 63, 53
2, 1279956, Note_on_c, 0, 78, 84
2, 1279958, Note_on_c, 0, 69, 72
2, 1279983, Note_off_c, 0, 72, 56
2, 1279984, Note_off_c, 0, 80, 61
2, 1279997, Note_off_c, 0, 75, 56
2, 1280076, Note_off_c, 0, 78, 61
2, 1280079, Note_on_c, 0, 75, 62
2, 1280080, Note_on_c, 0, 79, 80
2, 1280082, Note_on_c, 0, 70, 68
2, 1280088, Note_off_c, 0, 69, 58
2, 1280175, Note_off_c, 0, 79, 60
2, 1280211, Note_off_c, 0, 70, 57
2, 1280242, Note_off_c, 0, 75, 55
2, 1280376, Note_on_c, 0, 75, 72
2, 1280386, Note_on_c, 0, 63, 60
2, 1280589, Note_off_c, 0, 63, 55
2, 1280597, Note_off_c, 0, 75, 58
2, 1280673, Note_on_c, 0, 85, 82
2, 1280676, Note_on_c, 0, 75, 82
2, 1280677, Note_on_c, 0, 67, 70
2, 1280679, Note_on_c, 0, 55, 51
2, 1280680, Note_on_c, 0, 63, 56
2, 1280690, Control_c, 0, 64, 127
2, 1280815, Note_off_c, 0, 85, 60
2, 1280817, Note_on_c, 0, 82, 79
2, 1280941, Note_off_c, 0, 75, 60
2, 1280942, Note_off_c, 0, 82, 60
2, 1280944, Note_on_c, 0, 84, 82
2, 1280946, Note_on_c, 0, 68, 70
2, 1280947, Note_on_c, 0, 56, 56
2, 1281032, Note_off_c, 0, 55, 52
2, 1281033, Note_off_c, 0, 67, 57
2, 1281082, Note_off_c, 0, 84, 60
2, 1281083, Note_on_c, 0, 87, 86
2, 1281088, Control_c, 0, 64, 0
2, 1281157, Note_off_c, 0, 63, 54
2, 1281239, Note_off_c, 0, 87, 61
2, 1281242, Note_off_c, 0, 68, 57
2, 1281243, Note_off_c, 0, 56, 54
2, 1281245, Note_on_c, 0, 86, 80
2, 1281380, Note_off_c, 0, 86, 60
2, 1281381, Note_on_c, 0, 84, 78
2, 1281520, Note_off_c, 0, 84, 59
2, 1281522, Note_on_c, 0, 82, 76
2, 1281523, Note_on_c, 0, 56, 82
2, 1281676, Note_off_c, 0, 82, 59
2, 1281678, Note_on_c, 0, 80, 78
2, 1281818, Note_off_c, 0, 80, 59
2, 1281821, Note_on_c, 0, 79, 78
2, 1281822, Note_on_c, 0, 58, 61
2, 1281896, Note_off_c, 0, 56, 60
2, 1281960, Note_off_c, 0, 79, 59
2, 1281960, Note_on_c, 0, 82, 77
2, 1282038, Note_off_c, 0, 58, 55
2, 1282098, Note_off_c, 0, 82, 59
2, 1282102, Note_on_c, 0, 87, 86
2, 1282257, Note_off_c, 0, 87, 61
2, 1282258, Note_on_c, 0, 79, 76
2, 1282391, Note_on_c, 0, 68, 66
2, 1282398, Note_off_c, 0, 79, 59
2, 1282399, Note_on_c, 0, 86, 82
2, 1282402, Note_on_c, 0, 59, 46
2, 1282404, Control_c, 0, 64, 127
2, 1282409, Note_on_c, 0, 65, 54
2, 1282553, Note_off_c, 0, 86, 60
2, 1282556, Note_on_c, 0, 77, 74
2, 1282652, Note_off_c, 0, 65, 53
2, 1282695, Note_off_c, 0, 77, 59
2, 1282699, Note_on_c, 0, 87, 80
2, 1282701, Note_on_c, 0, 67, 51
2, 1282701, Note_on_c, 0, 60, 36
2, 1282710, Note_on_c, 0, 63, 46
2, 1282764, Note_off_c, 0, 68, 56
2, 1282787, Note_off_c, 0, 59, 51
2, 1282820, Control_c, 0, 64, 0
2, 1282837, Note_off_c, 0, 87, 60
2, 1282838, Note_on_c, 0, 75, 73
2, 1282939, Note_off_c, 0, 63, 51
2, 1282992, Note_off_c, 0, 75, 58
2, 1282995, Note_off_c, 0, 67, 52
2, 1282997, Note_off_c, 0, 60, 49
2, 1282999, Note_on_c, 0, 74, 72
2, 1283135, Note_off_c, 0, 74, 58
2, 1283136, Note_on_c, 0, 72, 72
2, 1283275, Note_off_c, 0, 72, 58
2, 1283277, Note_on_c, 0, 70, 71
2, 1283279, Note_on_c, 0, 44, 70
2, 1283432, Note_off_c, 0, 70, 58
2, 1283434, Note_on_c, 0, 68, 70
2, 1283574, Note_off_c, 0, 68, 57
2, 1283576, Note_on_c, 0, 67, 70
2, 1283577, Note_on_c, 0, 46, 46
2, 1283678, Note_off_c, 0, 44, 57
2, 1283730, Note_off_c, 0, 67, 57
2, 1283731, Note_on_c, 0, 70, 72
2, 1283870, Note_off_c, 0, 70, 58
2, 1283873, Note_off_c, 0, 46, 51
2, 1283873, Note_on_c, 0, 75, 78
2, 1284012, Note_off_c, 0, 75, 59
2, 1284013, Note_on_c, 0, 67, 76
2, 1284127, Control_c, 0, 64, 127
2, 1284152, Note_off_c, 0, 67, 59
2, 1284154, Note_on_c, 0, 74, 86
2, 1284155, Note_on_c, 0, 53, 66
2, 1284157, Note_on_c, 0, 47, 56
2, 1284308, Note_off_c, 0, 74, 61
2, 1284310, Note_on_c, 0, 65, 80
2, 1284379, Note_off_c, 0, 53, 56
2, 1284450, Note_off_c, 0, 65, 60
2, 1284454, Note_on_c, 0, 75, 82
2, 1284456, Note_on_c, 0, 51, 56
2, 1284456, Note_on_c, 0, 55, 62
2, 1284458, Note_on_c, 0, 48, 48
2, 1284528, Note_off_c, 0, 47, 54
2, 1284557, Control_c, 0, 64, 0
2, 1284608, Note_off_c, 0, 75, 60
2, 1284608, Note_on_c, 0, 63, 82
2, 1284691, Note_off_c, 0, 51, 54
2, 1284746, Note_off_c, 0, 63, 60
2, 1284749, Note_off_c, 0, 55, 55
2, 1284751, Note_off_c, 0, 48, 52
2, 1284753, Note_on_c, 0, 62, 79
2, 1284888, Note_off_c, 0, 62, 60
2, 1284890, Note_on_c, 0, 60, 76
2, 1285030, Note_off_c, 0, 60, 59
2, 1285032, Note_on_c, 0, 58, 73
2, 1285034, Note_on_c, 0, 32, 76
2, 1285187, Note_off_c, 0, 58, 58
2, 1285189, Note_on_c, 0, 56, 69
2, 1285327, Note_off_c, 0, 56, 57
2, 1285329, Note_on_c, 0, 55, 66
2, 1285331, Note_on_c, 0, 34, 70
2, 1285405, Note_off_c, 0, 32, 59
2, 1285484, Note_off_c, 0, 55, 56
2, 1285486, Note_on_c, 0, 58, 63
2, 1285546, Note_off_c, 0, 34, 57
2, 1285625, Note_off_c, 0, 58, 55
2, 1285627, Note_on_c, 0, 63, 60
2, 1285628, Note_on_c, 0, 46, 62
2, 1285765, Note_off_c, 0, 63, 55
2, 1285767, Note_on_c, 0, 55, 56
2, 1285820, Note_off_c, 0, 46, 55
2, 1285891, Note_off_c, 0, 55, 54
2, 1285909, Note_on_c, 0, 62, 53
2, 1285910, Note_on_c, 0, 46, 54
2, 1286063, Note_off_c, 0, 62, 53
2, 1286065, Note_on_c, 0, 53, 50
2, 1286204, Note_off_c, 0, 53, 52
2, 1286207, Note_off_c, 0, 46, 53
2, 1286208, Note_on_c, 0, 63, 46
2, 1286209, Note_on_c, 0, 55, 31
2, 1286211, Note_on_c, 0, 39, 36
2, 1286216, Control_c, 0, 64, 127
2, 1286487, Note_off_c, 0, 63, 51
2, 1286488, Note_off_c, 0, 55, 47
2, 1286489, Note_on_c, 0, 51, 46
2, 1286705, Note_off_c, 0, 51, 51
2, 1286786, Note_on_c, 0, 51, 45
2, 1287048, Note_on_c, 0, 67, 62
2, 1287066, Note_off_c, 0, 51, 51
2, 1287067, Note_on_c, 0, 49, 43
2, 1287076, Note_on_c, 0, 63, 42
2, 1287077, Note_on_c, 0, 58, 47
2, 1287079, Note_on_c, 0, 55, 54
2, 1287083, Control_c, 0, 64, 0
2, 1287294, Control_c, 0, 64, 127
2, 1287363, Note_off_c, 0, 49, 50
2, 1287365, Note_on_c, 0, 51, 41
2, 1287582, Note_off_c, 0, 55, 53
2, 1287649, Note_off_c, 0, 63, 50
2, 1287672, Note_off_c, 0, 58, 51
2, 1287678, Note_off_c, 0, 51, 50
2, 1287680, Note_on_c, 0, 46, 40
2, 1287743, Note_off_c, 0, 67, 55
2, 1287975, Note_off_c, 0, 46, 50
2, 1287976, Note_on_c, 0, 68, 54
2, 1287977, Note_on_c, 0, 48, 38
2, 1287983, Note_on_c, 0, 63, 34
2, 1287985, Note_on_c, 0, 60, 40
2, 1287986, Note_on_c, 0, 56, 44
2, 1288002, Control_c, 0, 64, 0
2, 1288212, Control_c, 0, 64, 127
2, 1288288, Note_off_c, 0, 48, 49
2, 1288289, Note_on_c, 0, 51, 36
2, 1288501, Note_off_c, 0, 60, 50
2, 1288572, Note_off_c, 0, 56, 51
2, 1288599, Note_off_c, 0, 63, 48
2, 1288617, Note_off_c, 0, 51, 49
2, 1288618, Note_on_c, 0, 44, 34
2, 1288686, Note_off_c, 0, 68, 53
2, 1288930, Note_off_c, 0, 44, 48
2, 1288932, Note_on_c, 0, 50, 34
2, 1288933, Note_on_c, 0, 70, 47
2, 1288942, Note_on_c, 0, 62, 34
2, 1288943, Note_on_c, 0, 56, 28
2, 1288952, Control_c, 0, 64, 0
2, 1289163, Control_c, 0, 64, 127
2, 1289260, Note_off_c, 0, 50, 48
2, 1289261, Note_on_c, 0, 53, 38
2, 1289482, Note_off_c, 0, 56, 47
2, 1289540, Note_off_c, 0, 62, 48
2, 1289589, Note_off_c, 0, 53, 49
2, 1289590, Note_on_c, 0, 46, 42
2, 1289656, Note_off_c, 0, 70, 51
2, 1289839, Note_off_c, 0, 46, 50
2, 1289918, Note_off_c, 0, 39, 49
2, 1289919, Note_on_c, 0, 63, 60
2, 1289921, Note_on_c, 0, 51, 54
2, 1289923, Note_on_c, 0, 55, 60
2, 1289945, Control_c, 0, 64, 0
2, 1290160, Control_c, 0, 64, 127
2, 1290198, Note_off_c, 0, 63, 55
2, 1290201, Note_off_c, 0, 55, 55
2, 1290202, Note_on_c, 0, 75, 58
2, 1290418, Note_off_c, 0, 75, 54
2, 1290498, Note_on_c, 0, 75, 56
2, 1290742, Note_off_c, 0, 75, 54
2, 1290780, Note_on_c, 0, 73, 54
2, 1290781, Note_on_c, 0, 58, 60
2, 1290791, Note_on_c, 0, 55, 54
2, 1290841, Control_c, 0, 64, 0
2, 1291056, Control_c, 0, 64, 127
2, 1291079, Note_on_c, 0, 75, 52
2, 1291106, Note_off_c, 0, 73, 53
2, 1291374, Note_on_c, 0, 70, 50
2, 1291398, Note_off_c, 0, 75, 53
2, 1291472, Note_off_c, 0, 55, 53
2, 1291688, Note_off_c, 0, 58, 55
2, 1291690, Note_on_c, 0, 72, 48
2, 1291691, Note_on_c, 0, 60, 57
2, 1291702, Note_on_c, 0, 56, 51
2, 1291710, Control_c, 0, 64, 0
2, 1291729, Note_off_c, 0, 70, 52
2, 1291924, Control_c, 0, 64, 127
2, 1292002, Note_on_c, 0, 75, 48
2, 1292029, Note_off_c, 0, 72, 52
2, 1292247, Note_off_c, 0, 56, 52
2, 1292300, Note_on_c, 0, 68, 61
2, 1292377, Note_off_c, 0, 60, 54
2, 1292378, Note_off_c, 0, 51, 53
2, 1292386, Note_off_c, 0, 75, 52
2, 1292518, Note_off_c, 0, 68, 55
2, 1292611, Note_on_c, 0, 74, 78
2, 1292614, Note_on_c, 0, 62, 54
2, 1292615, Note_on_c, 0, 65, 65
2, 1292617, Note_on_c, 0, 58, 50
2, 1292618, Note_on_c, 0, 56, 45
2, 1292619, Note_on_c, 0, 53, 40
2, 1292620, Note_on_c, 0, 51, 54
2, 1292628, Control_c, 0, 64, 0
2, 1292630, Note_on_c, 0, 68, 58
2, 1292820, Control_c, 0, 64, 127
2, 1292910, Note_on_c, 0, 77, 74
2, 1292921, Note_off_c, 0, 74, 59
2, 1293224, Note_on_c, 0, 70, 74
2, 1293234, Note_off_c, 0, 77, 59
2, 1293301, Note_off_c, 0, 62, 53
2, 1293303, Note_off_c, 0, 58, 52
2, 1293303, Note_off_c, 0, 56, 51
2, 1293305, Note_off_c, 0, 51, 53
2, 1293306, Note_off_c, 0, 53, 50
2, 1293459, Note_off_c, 0, 70, 59
2, 1293536, Note_off_c, 0, 65, 56
2, 1293538, Note_on_c, 0, 75, 72
2, 1293539, Note_on_c, 0, 63, 51
2, 1293540, Note_on_c, 0, 58, 45
2, 1293542, Note_on_c, 0, 55, 40
2, 1293543, Note_on_c, 0, 51, 36
2, 1293554, Note_off_c, 0, 68, 54
2, 1293611, Control_c, 0, 64, 0
2, 1293708, Note_off_c, 0, 75, 58
2, 1293709, Note_off_c, 0, 63, 52
2, 1293711, Note_off_c, 0, 58, 51
2, 1293714, Note_off_c, 0, 55, 50
2, 1293715, Note_off_c, 0, 51, 49
2, 1293716, Note_on_c, 0, 70, 76
2, 1293882, Note_off_c, 0, 70, 59
2, 1293883, Note_on_c, 0, 67, 70
2, 1294053, Note_off_c, 0, 67, 57
2, 1294054, Note_on_c, 0, 63, 64
2, 1294226, Note_off_c, 0, 63, 56
2, 1294228, Note_on_c, 0, 58, 58
2, 1294413, Note_off_c, 0, 58, 54
2, 1294416, Note_on_c, 0, 55, 52
2, 1294511, Control_c, 0, 64, 127
2, 1294602, Note_off_c, 0, 55, 53
2, 1294604, Note_on_c, 0, 51, 48
2, 1294612, Note_on_c, 0, 39, 42
2, 1294884, Note_off_c, 0, 39, 50
2, 1294947, Note_off_c, 0, 51, 52
2, 1295361, Control_c, 0, 64, 0
2, 1300644, Note_on_c, 0, 77, 48
2, 1301645, Note_on_c, 0, 75, 48
2, 1301672, Note_off_c, 0, 77, 52
2, 1301897, Note_off_c, 0, 75, 52
2, 1301974, Control_c, 0, 64, 127
2, 1301981, Note_on_c, 0, 75, 65
2, 1301983, Note_on_c, 0, 46, 36
2, 1301991, Note_on_c, 0, 68, 48
2, 1301992, Note_on_c, 0, 65, 36
2, 1302195, Note_off_c, 0, 46, 49
2, 1302198, Note_on_c, 0, 58, 36
2, 1302365, Note_off_c, 0, 58, 49
2, 1302416, Note_on_c, 0, 74, 53
2, 1302418, Note_on_c, 0, 58, 38
2, 1302446, Note_off_c, 0, 75, 56
2, 1302581, Note_off_c, 0, 58, 49
2, 1302649, Note_on_c, 0, 58, 40
2, 1302817, Note_off_c, 0, 58, 50
2, 1302883, Note_on_c, 0, 58, 43
2, 1303029, Note_off_c, 0, 68, 52
2, 1303050, Note_off_c, 0, 58, 50
2, 1303118, Note_on_c, 0, 58, 45
2, 1303120, Note_on_c, 0, 77, 56
2, 1303129, Control_c, 0, 64, 0
2, 1303145, Note_off_c, 0, 65, 49
2, 1303149, Note_off_c, 0, 74, 53
2, 1303335, Note_off_c, 0, 58, 51
2, 1303338, Note_on_c, 0, 63, 50
2, 1303340, Note_on_c, 0, 75, 53
2, 1303348, Note_on_c, 0, 67, 33
2, 1303354, Control_c, 0, 64, 127
2, 1303367, Note_off_c, 0, 77, 54
2, 1303550, Note_on_c, 0, 72, 51
2, 1303553, Note_on_c, 0, 58, 48
2, 1303585, Note_off_c, 0, 75, 53
2, 1303707, Note_off_c, 0, 67, 48
2, 1303716, Note_off_c, 0, 72, 52
2, 1303771, Note_off_c, 0, 58, 52
2, 1303772, Note_on_c, 0, 72, 60
2, 1303774, Note_on_c, 0, 62, 40
2, 1303781, Note_on_c, 0, 65, 40
2, 1303788, Control_c, 0, 64, 0
2, 1303836, Note_off_c, 0, 63, 52
2, 1304003, Note_on_c, 0, 58, 42
2, 1304012, Control_c, 0, 64, 127
2, 1304185, Note_off_c, 0, 58, 50
2, 1304252, Note_on_c, 0, 70, 58
2, 1304255, Note_on_c, 0, 58, 39
2, 1304305, Note_off_c, 0, 72, 55
2, 1304418, Note_off_c, 0, 58, 49
2, 1304486, Note_on_c, 0, 58, 36
2, 1304618, Note_off_c, 0, 65, 50
2, 1304653, Note_off_c, 0, 58, 49
2, 1304720, Note_off_c, 0, 62, 50
2, 1304723, Note_on_c, 0, 58, 36
2, 1304872, Note_off_c, 0, 58, 49
2, 1304922, Note_on_c, 0, 71, 57
2, 1304923, Note_on_c, 0, 58, 40
2, 1305037, Note_off_c, 0, 70, 54
2, 1305121, Note_off_c, 0, 58, 50
2, 1305123, Note_on_c, 0, 72, 60
2, 1305125, Note_on_c, 0, 65, 40
2, 1305126, Note_on_c, 0, 50, 44
2, 1305129, Control_c, 0, 64, 0
2, 1305160, Note_off_c, 0, 71, 54
2, 1305338, Note_off_c, 0, 50, 51
2, 1305341, Note_on_c, 0, 58, 48
2, 1305342, Note_on_c, 0, 68, 60
2, 1305353, Control_c, 0, 64, 127
2, 1305361, Note_off_c, 0, 72, 55
2, 1305481, Note_off_c, 0, 68, 55
2, 1305556, Note_off_c, 0, 65, 50
2, 1305558, Note_off_c, 0, 58, 52
2, 1305560, Note_on_c, 0, 51, 48
2, 1305561, Note_on_c, 0, 68, 60
2, 1305774, Note_off_c, 0, 51, 52
2, 1305776, Note_on_c, 0, 67, 57
2, 1305777, Note_on_c, 0, 58, 45
2, 1305826, Note_off_c, 0, 68, 55
2, 1305992, Note_off_c, 0, 58, 51
2, 1305994, Note_on_c, 0, 70, 54
2, 1305995, Note_on_c, 0, 55, 42
2, 1306012, Note_off_c, 0, 67, 54
2, 1306201, Control_c, 0, 64, 0
2, 1306208, Note_off_c, 0, 55, 50
2, 1306210, Note_on_c, 0, 63, 51
2, 1306211, Note_on_c, 0, 58, 39
2, 1306229, Note_off_c, 0, 70, 53
2, 1306375, Note_off_c, 0, 63, 52
2, 1306424, Note_off_c, 0, 58, 49
2, 1306426, Note_on_c, 0, 63, 48
2, 1306427, Control_c, 0, 64, 127
2, 1306428, Note_on_c, 0, 56, 36
2, 1306429, Note_on_c, 0, 53, 30
2, 1306658, Note_off_c, 0, 56, 49
2, 1306661, Note_off_c, 0, 53, 47
2, 1306662, Note_on_c, 0, 62, 50
2, 1306664, Note_on_c, 0, 58, 36
2, 1306700, Note_off_c, 0, 63, 52
2, 1306891, Note_off_c, 0, 58, 49
2, 1306895, Note_on_c, 0, 65, 51
2, 1306896, Note_on_c, 0, 55, 38
2, 1306898, Note_on_c, 0, 51, 32
2, 1306939, Note_off_c, 0, 62, 52
2, 1307108, Note_off_c, 0, 55, 49
2, 1307112, Note_off_c, 0, 51, 48
2, 1307114, Note_on_c, 0, 63, 54
2, 1307116, Note_on_c, 0, 58, 40
2, 1307137, Control_c, 0, 64, 0
2, 1307157, Note_off_c, 0, 65, 52
2, 1307328, Note_off_c, 0, 58, 50
2, 1307329, Note_on_c, 0, 67, 57
2, 1307330, Note_on_c, 0, 46, 42
2, 1307360, Control_c, 0, 64, 127
2, 1307594, Note_off_c, 0, 46, 50
2, 1307596, Note_on_c, 0, 58, 44
2, 1307796, Note_off_c, 0, 58, 51
2, 1307864, Note_on_c, 0, 65, 60
2, 1307867, Note_on_c, 0, 58, 46
2, 1307868, Note_on_c, 0, 62, 50
2, 1307913, Note_off_c, 0, 67, 54
2, 1307946, Note_off_c, 0, 63, 53
2, 1308045, Note_off_c, 0, 58, 51
2, 1308095, Note_on_c, 0, 58, 48
2, 1308212, Note_off_c, 0, 65, 55
2, 1308215, Note_off_c, 0, 62, 52
2, 1308321, Note_on_c, 0, 77, 72
2, 1308329, Note_off_c, 0, 58, 52
2, 1308332, Note_on_c, 0, 68, 48
2, 1308333, Note_on_c, 0, 72, 58
2, 1308337, Control_c, 0, 64, 0
2, 1308529, Note_off_c, 0, 68, 52
2, 1308531, Note_off_c, 0, 72, 54
2, 1308533, Note_on_c, 0, 58, 46
2, 1308559, Control_c, 0, 64, 127
2, 1308731, Note_off_c, 0, 58, 51
2, 1308733, Note_on_c, 0, 70, 44
2, 1308734, Note_on_c, 0, 67, 38
2, 1308933, Note_off_c, 0, 70, 51
2, 1308934, Note_off_c, 0, 67, 49
2, 1308935, Note_on_c, 0, 75, 69
2, 1308936, Note_on_c, 0, 58, 42
2, 1308974, Note_off_c, 0, 77, 58
2, 1309084, Note_off_c, 0, 75, 57
2, 1309132, Note_off_c, 0, 58, 50
2, 1309133, Note_on_c, 0, 74, 66
2, 1309134, Note_on_c, 0, 65, 34
2, 1309136, Note_on_c, 0, 68, 40
2, 1309200, Control_c, 0, 64, 0
2, 1309214, Note_off_c, 0, 74, 56
2, 1309216, Note_on_c, 0, 75, 65
2, 1309281, Note_off_c, 0, 75, 56
2, 1309284, Note_on_c, 0, 77, 64
2, 1309365, Note_off_c, 0, 65, 48
2, 1309366, Note_off_c, 0, 77, 56
2, 1309368, Note_on_c, 0, 58, 38
2, 1309369, Note_on_c, 0, 75, 63
2, 1309422, Control_c, 0, 64, 127
2, 1309532, Note_off_c, 0, 58, 49
2, 1309599, Note_on_c, 0, 74, 60
2, 1309601, Note_on_c, 0, 58, 36
2, 1309656, Note_off_c, 0, 75, 55
2, 1309749, Note_off_c, 0, 58, 49
2, 1309800, Note_on_c, 0, 58, 36
2, 1309913, Note_off_c, 0, 68, 50
2, 1309985, Note_off_c, 0, 58, 49
2, 1310020, Note_on_c, 0, 68, 38
2, 1310021, Note_on_c, 0, 65, 25
2, 1310028, Control_c, 0, 64, 0
2, 1310237, Note_off_c, 0, 65, 46
2, 1310238, Note_on_c, 0, 77, 72
2, 1310240, Note_on_c, 0, 58, 40
2, 1310243, Note_off_c, 0, 74, 55
2, 1310252, Control_c, 0, 64, 127
2, 1310453, Note_off_c, 0, 58, 50
2, 1310455, Note_off_c, 0, 68, 49
2, 1310456, Note_on_c, 0, 75, 72
2, 1310457, Note_on_c, 0, 63, 43
2, 1310459, Note_on_c, 0, 67, 59
2, 1310460, Note_off_c, 0, 77, 58
2, 1310602, Note_off_c, 0, 63, 50
2, 1310653, Note_on_c, 0, 72, 66
2, 1310654, Note_on_c, 0, 58, 45
2, 1310661, Note_off_c, 0, 75, 58
2, 1310770, Note_off_c, 0, 67, 54
2, 1310818, Note_off_c, 0, 72, 56
2, 1310827, Control_c, 0, 64, 0
2, 1310869, Note_off_c, 0, 58, 51
2, 1310871, Note_on_c, 0, 69, 60
2, 1310872, Note_on_c, 0, 65, 42
2, 1310873, Note_on_c, 0, 62, 48
2, 1311052, Control_c, 0, 64, 127
2, 1311137, Note_off_c, 0, 62, 52
2, 1311139, Note_on_c, 0, 58, 48
2, 1311309, Note_off_c, 0, 58, 52
2, 1311388, Note_on_c, 0, 70, 60
2, 1311390, Note_on_c, 0, 58, 46
2, 1311445, Note_off_c, 0, 69, 55
2, 1311543, Note_off_c, 0, 58, 51
2, 1311622, Note_on_c, 0, 58, 44
2, 1311776, Note_off_c, 0, 58, 51
2, 1311856, Note_off_c, 0, 65, 50
2, 1311857, Note_on_c, 0, 58, 41
2, 1312021, Note_off_c, 0, 58, 50
2, 1312074, Note_on_c, 0, 71, 53
2, 1312077, Note_on_c, 0, 58, 39
2, 1312176, Note_off_c, 0, 70, 55
2, 1312290, Control_c, 0, 64, 0
2, 1312291, Note_off_c, 0, 58, 49
2, 1312292, Note_on_c, 0, 72, 51
2, 1312294, Note_on_c, 0, 50, 36
2, 1312295, Note_on_c, 0, 65, 31
2, 1312333, Note_off_c, 0, 71, 53
2, 1312513, Control_c, 0, 64, 127
2, 1312524, Note_off_c, 0, 50, 49
2, 1312526, Note_on_c, 0, 68, 48
2, 1312528, Note_on_c, 0, 58, 36
2, 1312548, Note_off_c, 0, 72, 52
2, 1312707, Note_off_c, 0, 68, 52
2, 1312776, Note_off_c, 0, 58, 49
2, 1312778, Note_off_c, 0, 65, 47
2, 1312780, Note_on_c, 0, 67, 50
2, 1312781, Note_on_c, 0, 51, 36
2, 1312782, Note_on_c, 0, 63, 30
2, 1312992, Note_off_c, 0, 51, 49
2, 1312994, Note_on_c, 0, 70, 51
2, 1312995, Note_on_c, 0, 55, 39
2, 1313026, Note_off_c, 0, 67, 52
2, 1313210, Note_off_c, 0, 55, 49
2, 1313212, Note_off_c, 0, 63, 47
2, 1313214, Note_on_c, 0, 68, 54
2, 1313215, Note_on_c, 0, 44, 42
2, 1313216, Note_on_c, 0, 60, 34
2, 1313218, Control_c, 0, 64, 0
2, 1313226, Note_off_c, 0, 70, 52
2, 1313427, Note_off_c, 0, 44, 50
2, 1313428, Note_on_c, 0, 65, 57
2, 1313430, Note_on_c, 0, 56, 45
2, 1313441, Control_c, 0, 64, 127
2, 1313447, Note_off_c, 0, 68, 53
2, 1313576, Note_off_c, 0, 65, 54
2, 1313643, Note_off_c, 0, 60, 48
2, 1313646, Note_off_c, 0, 56, 51
2, 1313648, Note_on_c, 0, 63, 60
2, 1313649, Note_on_c, 0, 46, 48
2, 1313655, Note_on_c, 0, 55, 40
2, 1313811, Note_off_c, 0, 46, 52
2, 1313869, Note_on_c, 0, 46, 46
2, 1314028, Note_off_c, 0, 55, 50
2, 1314058, Control_c, 0, 64, 0
2, 1314073, Note_off_c, 0, 46, 51
2, 1314080, Note_on_c, 0, 67, 56
2, 1314082, Note_on_c, 0, 62, 42
2, 1314084, Note_on_c, 0, 34, 38
2, 1314093, Note_on_c, 0, 56, 50
2, 1314134, Note_off_c, 0, 63, 55
2, 1314283, Control_c, 0, 64, 127
2, 1314329, Note_off_c, 0, 34, 49
2, 1314332, Note_on_c, 0, 65, 52
2, 1314333, Note_on_c, 0, 46, 44
2, 1314351, Note_off_c, 0, 67, 54
2, 1314464, Note_off_c, 0, 56, 52
2, 1314481, Note_off_c, 0, 62, 50
2, 1314512, Note_off_c, 0, 65, 53
2, 1314565, Note_off_c, 0, 46, 51
2, 1314566, Note_on_c, 0, 63, 50
2, 1314568, Note_on_c, 0, 39, 30
2, 1314577, Note_on_c, 0, 55, 40
2, 1314590, Control_c, 0, 64, 0
2, 1314816, Control_c, 0, 64, 127
2, 1315011, Note_off_c, 0, 55, 50
2, 1315132, Note_off_c, 0, 63, 52
2, 1315133, Note_off_c, 0, 39, 47
2, 1315134, Note_on_c, 0, 51, 36
2, 1315448, Control_c, 0, 64, 0
2, 1315681, Note_off_c, 0, 51, 49
2, 1315683, Note_on_c, 0, 55, 56
2, 1315781, Note_off_c, 0, 55, 54
2, 1315784, Note_on_c, 0, 58, 58
2, 1315855, Note_off_c, 0, 58, 54
2, 1315882, Note_on_c, 0, 63, 60
2, 1315883, Note_on_c, 0, 58, 39
2, 1315984, Note_off_c, 0, 63, 55
2, 1315985, Note_on_c, 0, 67, 62
2, 1316068, Note_off_c, 0, 58, 49
2, 1316069, Note_off_c, 0, 67, 55
2, 1316070, Note_on_c, 0, 70, 64
2, 1316118, Note_on_c, 0, 55, 42
2, 1316165, Note_off_c, 0, 70, 56
2, 1316168, Note_on_c, 0, 75, 66
2, 1316266, Note_off_c, 0, 75, 56
2, 1316268, Note_on_c, 0, 58, 45
2, 1316270, Note_on_c, 0, 79, 68
2, 1316367, Note_off_c, 0, 79, 57
2, 1316369, Note_on_c, 0, 77, 70
2, 1316466, Note_off_c, 0, 58, 51
2, 1316468, Note_off_c, 0, 77, 57
2, 1316470, Note_on_c, 0, 75, 72
2, 1316472, Note_on_c, 0, 56, 48
2, 1316498, Control_c, 0, 64, 127
2, 1316536, Note_off_c, 0, 55, 50
2, 1316701, Note_on_c, 0, 58, 48
2, 1316953, Note_off_c, 0, 58, 52
2, 1316954, Note_on_c, 0, 74, 60
2, 1316957, Note_on_c, 0, 53, 44
2, 1316965, Control_c, 0, 64, 0
2, 1316999, Note_off_c, 0, 75, 58
2, 1317049, Note_off_c, 0, 56, 52
2, 1317186, Control_c, 0, 64, 127
2, 1317187, Note_on_c, 0, 58, 40
2, 1317420, Note_off_c, 0, 74, 55
2, 1317422, Note_off_c, 0, 58, 50
2, 1317423, Note_on_c, 0, 75, 60
2, 1317426, Note_on_c, 0, 55, 36
2, 1317477, Control_c, 0, 64, 0
2, 1317503, Note_off_c, 0, 53, 51
2, 1317519, Note_off_c, 0, 75, 55
2, 1317605, Note_on_c, 0, 77, 63
2, 1317606, Note_on_c, 0, 58, 36
2, 1317703, Note_off_c, 0, 77, 55
2, 1317802, Note_off_c, 0, 58, 49
2, 1317806, Note_on_c, 0, 51, 40
2, 1317807, Note_on_c, 0, 79, 66
2, 1317867, Note_off_c, 0, 55, 49
2, 1317904, Note_off_c, 0, 79, 56
2, 1318021, Note_on_c, 0, 81, 69
2, 1318023, Note_on_c, 0, 58, 44
2, 1318138, Note_off_c, 0, 81, 57
2, 1318255, Note_off_c, 0, 58, 51
2, 1318257, Note_on_c, 0, 46, 48
2, 1318259, Note_on_c, 0, 84, 72
2, 1318288, Control_c, 0, 64, 95
2, 1318298, Note_off_c, 0, 51, 50
2, 1318489, Note_off_c, 0, 46, 52
2, 1318490, Note_on_c, 0, 58, 48
2, 1318665, Note_off_c, 0, 58, 52
2, 1318723, Note_on_c, 0, 82, 60
2, 1318724, Note_on_c, 0, 58, 45
2, 1318768, Note_off_c, 0, 84, 58
2, 1318899, Note_off_c, 0, 58, 51
2, 1318903, Control_c, 0, 64, 0
2, 1318957, Note_on_c, 0, 58, 42
2, 1319075, Note_off_c, 0, 82, 55
2, 1319192, Note_off_c, 0, 58, 50
2, 1319193, Note_on_c, 0, 55, 48
2, 1319291, Note_off_c, 0, 55, 52
2, 1319293, Note_on_c, 0, 58, 48
2, 1319358, Note_off_c, 0, 58, 52
2, 1319392, Note_on_c, 0, 63, 50
2, 1319393, Note_on_c, 0, 58, 36
2, 1319494, Note_off_c, 0, 63, 52
2, 1319495, Note_on_c, 0, 67, 52
2, 1319592, Note_off_c, 0, 67, 53
2, 1319594, Note_off_c, 0, 58, 49
2, 1319595, Note_on_c, 0, 70, 55
2, 1319597, Note_on_c, 0, 55, 37
2, 1319692, Note_off_c, 0, 70, 53
2, 1319694, Note_on_c, 0, 75, 57
2, 1319791, Note_off_c, 0, 75, 54
2, 1319795, Note_on_c, 0, 79, 60
2, 1319796, Note_on_c, 0, 58, 39
2, 1319893, Note_off_c, 0, 79, 55
2, 1319895, Note_on_c, 0, 77, 48
2, 1319993, Note_off_c, 0, 58, 49
2, 1319995, Note_off_c, 0, 77, 52
2, 1319996, Note_on_c, 0, 56, 42
2, 1319997, Note_on_c, 0, 75, 60
2, 1319999, Control_c, 0, 64, 0
2, 1320062, Note_off_c, 0, 55, 49
2, 1320207, Control_c, 0, 64, 127
2, 1320211, Note_on_c, 0, 58, 44
2, 1320429, Note_off_c, 0, 75, 55
2, 1320431, Note_off_c, 0, 58, 51
2, 1320432, Note_on_c, 0, 53, 47
2, 1320434, Note_on_c, 0, 74, 60
2, 1320468, Note_off_c, 0, 56, 50
2, 1320511, Note_off_c, 0, 74, 55
2, 1320513, Note_on_c, 0, 75, 61
2, 1320594, Note_off_c, 0, 75, 55
2, 1320596, Note_on_c, 0, 74, 63
2, 1320644, Note_on_c, 0, 58, 48
2, 1320678, Note_off_c, 0, 74, 55
2, 1320680, Note_on_c, 0, 72, 64
2, 1320779, Note_off_c, 0, 72, 56
2, 1320781, Note_on_c, 0, 74, 66
2, 1320878, Note_off_c, 0, 74, 56
2, 1320881, Note_off_c, 0, 58, 52
2, 1320884, Note_on_c, 0, 55, 54
2, 1320885, Note_on_c, 0, 75, 68
2, 1320980, Note_off_c, 0, 53, 51
2, 1320996, Note_off_c, 0, 75, 57
2, 1321047, Control_c, 0, 64, 0
2, 1321129, Note_on_c, 0, 77, 72
2, 1321132, Note_on_c, 0, 58, 61
2, 1321133, Note_on_c, 0, 65, 72
2, 1321281, Note_off_c, 0, 77, 58
2, 1321282, Note_off_c, 0, 65, 58
2, 1321414, Note_off_c, 0, 58, 55
2, 1321416, Note_on_c, 0, 79, 76
2, 1321418, Note_on_c, 0, 67, 76
2, 1321420, Note_on_c, 0, 51, 69
2, 1321476, Note_off_c, 0, 55, 53
2, 1321563, Note_off_c, 0, 79, 59
2, 1321564, Note_off_c, 0, 67, 59
2, 1321732, Note_on_c, 0, 81, 80
2, 1321733, Note_on_c, 0, 69, 80
2, 1321735, Note_on_c, 0, 58, 76
2, 1321881, Note_off_c, 0, 51, 57
2, 1321884, Note_off_c, 0, 81, 60
2, 1321884, Note_off_c, 0, 69, 60
2, 1322001, Note_off_c, 0, 58, 59
2, 1322201, Note_on_c, 0, 82, 84
2, 1322202, Note_on_c, 0, 70, 72
2, 1322204, Note_on_c, 0, 58, 66
2, 1322205, Note_on_c, 0, 46, 72
2, 1322258, Control_c, 0, 64, 127
2, 1323118, Note_off_c, 0, 70, 58
2, 1323217, Note_off_c, 0, 46, 58
2, 1323338, Note_off_c, 0, 58, 56
2, 1323413, Note_off_c, 0, 82, 61
2, 1323610, Note_on_c, 0, 89, 54
2, 1323611, Note_on_c, 0, 68, 36
2, 1323612, Note_on_c, 0, 72, 40
2, 1323613, Control_c, 0, 64, 0
2, 1323618, Note_on_c, 0, 77, 44
2, 1323805, Note_off_c, 0, 68, 49
2, 1323806, Note_off_c, 0, 72, 50
2, 1323807, Note_on_c, 0, 58, 36
2, 1323817, Control_c, 0, 64, 127
2, 1324005, Note_off_c, 0, 58, 49
2, 1324007, Note_on_c, 0, 70, 38
2, 1324008, Note_on_c, 0, 67, 33
2, 1324078, Note_off_c, 0, 77, 51
2, 1324221, Note_off_c, 0, 89, 53
2, 1324224, Note_off_c, 0, 70, 49
2, 1324226, Note_off_c, 0, 67, 48
2, 1324227, Note_on_c, 0, 87, 54
2, 1324228, Note_on_c, 0, 58, 40
2, 1324235, Note_on_c, 0, 75, 44
2, 1324349, Control_c, 0, 64, 0
2, 1324353, Note_off_c, 0, 75, 51
2, 1324372, Note_off_c, 0, 87, 53
2, 1324438, Note_off_c, 0, 58, 50
2, 1324441, Note_on_c, 0, 87, 57
2, 1324444, Note_on_c, 0, 68, 42
2, 1324445, Note_on_c, 0, 65, 38
2, 1324452, Note_on_c, 0, 75, 47
2, 1324569, Control_c, 0, 64, 127
2, 1324673, Note_off_c, 0, 65, 49
2, 1324676, Note_on_c, 0, 58, 44
2, 1324826, Note_off_c, 0, 75, 51
2, 1324850, Note_off_c, 0, 58, 51
2, 1324891, Note_off_c, 0, 87, 54
2, 1324923, Note_on_c, 0, 86, 64
2, 1324927, Note_on_c, 0, 58, 46
2, 1324935, Note_on_c, 0, 74, 54
2, 1324970, Control_c, 0, 64, 0
2, 1325082, Note_off_c, 0, 58, 51
2, 1325157, Note_on_c, 0, 58, 49
2, 1325177, Control_c, 0, 64, 127
2, 1325232, Note_off_c, 0, 68, 50
2, 1325359, Note_off_c, 0, 58, 52
2, 1325391, Note_on_c, 0, 68, 51
2, 1325395, Note_on_c, 0, 65, 46
2, 1325437, Control_c, 0, 64, 0
2, 1325500, Note_off_c, 0, 74, 53
2, 1325593, Note_off_c, 0, 86, 56
2, 1325595, Note_off_c, 0, 65, 51
2, 1325597, Note_on_c, 0, 89, 74
2, 1325598, Note_on_c, 0, 58, 53
2, 1325607, Note_on_c, 0, 77, 64
2, 1325642, Control_c, 0, 64, 127
2, 1325749, Note_off_c, 0, 77, 56
2, 1325793, Note_off_c, 0, 89, 59
2, 1325794, Note_off_c, 0, 68, 52
2, 1325796, Note_off_c, 0, 58, 53
2, 1325798, Note_on_c, 0, 87, 77
2, 1325799, Note_on_c, 0, 67, 55
2, 1325800, Note_on_c, 0, 63, 42
2, 1325807, Note_on_c, 0, 75, 67
2, 1325944, Note_off_c, 0, 63, 50
2, 1325982, Note_off_c, 0, 75, 57
2, 1326011, Note_off_c, 0, 87, 59
2, 1326012, Note_on_c, 0, 84, 80
2, 1326014, Note_on_c, 0, 58, 57
2, 1326024, Note_on_c, 0, 72, 70
2, 1326109, Note_off_c, 0, 67, 53
2, 1326133, Note_off_c, 0, 72, 57
2, 1326161, Note_off_c, 0, 84, 60
2, 1326217, Control_c, 0, 64, 0
2, 1326226, Note_off_c, 0, 58, 54
2, 1326229, Note_on_c, 0, 81, 84
2, 1326231, Note_on_c, 0, 65, 60
2, 1326233, Note_on_c, 0, 62, 52
2, 1326239, Note_on_c, 0, 69, 64
2, 1326420, Control_c, 0, 64, 127
2, 1326479, Note_off_c, 0, 62, 53
2, 1326480, Note_on_c, 0, 58, 60
2, 1326678, Note_off_c, 0, 58, 55
2, 1326684, Note_off_c, 0, 69, 56
2, 1326738, Note_on_c, 0, 82, 82
2, 1326746, Note_off_c, 0, 81, 61
2, 1326749, Note_on_c, 0, 70, 72
2, 1326750, Note_on_c, 0, 58, 58
2, 1326782, Control_c, 0, 64, 0
2, 1326912, Note_off_c, 0, 58, 54
2, 1326981, Note_on_c, 0, 58, 56
2, 1327001, Control_c, 0, 64, 127
2, 1327146, Note_off_c, 0, 58, 54
2, 1327215, Note_off_c, 0, 65, 55
2, 1327216, Note_on_c, 0, 58, 53
2, 1327364, Note_off_c, 0, 58, 53
2, 1327387, Control_c, 0, 64, 0
2, 1327403, Note_off_c, 0, 82, 60
2, 1327414, Note_off_c, 0, 70, 58
2, 1327415, Note_on_c, 0, 83, 75
2, 1327418, Note_on_c, 0, 71, 65
2, 1327419, Note_on_c, 0, 58, 51
2, 1327606, Control_c, 0, 64, 127
2, 1327630, Note_off_c, 0, 83, 59
2, 1327633, Note_off_c, 0, 58, 52
2, 1327635, Note_off_c, 0, 71, 56
2, 1327636, Note_on_c, 0, 84, 72
2, 1327637, Note_on_c, 0, 72, 62
2, 1327639, Note_on_c, 0, 62, 48
2, 1327640, Note_on_c, 0, 50, 40
2, 1327649, Control_c, 0, 64, 0
2, 1327864, Note_off_c, 0, 84, 58
2, 1327868, Note_off_c, 0, 50, 50
2, 1327869, Note_off_c, 0, 62, 52
2, 1327870, Note_off_c, 0, 72, 55
2, 1327871, Control_c, 0, 64, 127
2, 1327873, Note_on_c, 0, 68, 60
2, 1327874, Note_on_c, 0, 80, 70
2, 1327875, Note_on_c, 0, 58, 46
2, 1328034, Note_off_c, 0, 68, 55
2, 1328036, Note_off_c, 0, 80, 57
2, 1328098, Note_off_c, 0, 58, 51
2, 1328101, Note_on_c, 0, 67, 58
2, 1328103, Note_on_c, 0, 79, 68
2, 1328104, Note_on_c, 0, 63, 49
2, 1328105, Note_on_c, 0, 51, 44
2, 1328108, Control_c, 0, 64, 0
2, 1328326, Control_c, 0, 64, 127
2, 1328332, Note_off_c, 0, 79, 57
2, 1328335, Note_off_c, 0, 51, 51
2, 1328337, Note_off_c, 0, 63, 52
2, 1328338, Note_off_c, 0, 67, 54
2, 1328339, Note_on_c, 0, 70, 55
2, 1328341, Note_on_c, 0, 82, 65
2, 1328342, Note_on_c, 0, 55, 41
2, 1328583, Note_off_c, 0, 82, 56
2, 1328586, Note_off_c, 0, 55, 50
2, 1328586, Note_off_c, 0, 70, 53
2, 1328588, Note_on_c, 0, 80, 63
2, 1328590, Note_on_c, 0, 72, 53
2, 1328591, Note_on_c, 0, 44, 39
2, 1328615, Control_c, 0, 64, 0
2, 1328833, Note_off_c, 0, 80, 55
2, 1328834, Control_c, 0, 64, 127
2, 1328836, Note_off_c, 0, 44, 49
2, 1328837, Note_off_c, 0, 72, 53
2, 1328838, Note_on_c, 0, 68, 50
2, 1328840, Note_on_c, 0, 77, 60
2, 1328841, Note_on_c, 0, 56, 36
2, 1329035, Note_off_c, 0, 68, 52
2, 1329037, Note_off_c, 0, 77, 55
2, 1329053, Control_c, 0, 64, 0
2, 1329087, Note_off_c, 0, 56, 49
2, 1329088, Note_on_c, 0, 67, 37
2, 1329089, Note_on_c, 0, 75, 60
2, 1329092, Note_on_c, 0, 46, 37
2, 1329184, Note_off_c, 0, 75, 55
2, 1329186, Note_on_c, 0, 77, 62
2, 1329268, Note_on_c, 0, 75, 64
2, 1329273, Control_c, 0, 64, 127
2, 1329280, Note_off_c, 0, 77, 55
2, 1329320, Note_off_c, 0, 46, 49
2, 1329321, Note_on_c, 0, 58, 39
2, 1329370, Note_off_c, 0, 75, 56
2, 1329371, Note_on_c, 0, 74, 67
2, 1329470, Note_off_c, 0, 74, 57
2, 1329471, Note_on_c, 0, 75, 69
2, 1329551, Note_off_c, 0, 75, 57
2, 1329554, Note_off_c, 0, 58, 49
2, 1329555, Note_off_c, 0, 67, 49
2, 1329557, Note_on_c, 0, 79, 72
2, 1329558, Note_on_c, 0, 74, 52
2, 1329559, Note_on_c, 0, 68, 60
2, 1329562, Note_on_c, 0, 34, 41
2, 1329563, Control_c, 0, 64, 0
2, 1329751, Control_c, 0, 64, 127
2, 1329785, Note_off_c, 0, 79, 58
2, 1329789, Note_off_c, 0, 34, 50
2, 1329789, Note_on_c, 0, 77, 60
2, 1329791, Note_on_c, 0, 46, 42
2, 1330019, Note_off_c, 0, 77, 55
2, 1330022, Note_off_c, 0, 74, 53
2, 1330023, Note_off_c, 0, 68, 55
2, 1330025, Note_off_c, 0, 46, 50
2, 1330026, Note_on_c, 0, 75, 60
2, 1330027, Note_on_c, 0, 67, 45
2, 1330030, Note_on_c, 0, 39, 44
2, 1330073, Control_c, 0, 64, 0
2, 1330263, Control_c, 0, 64, 127
2, 1330571, Note_off_c, 0, 75, 55
2, 1330573, Note_off_c, 0, 67, 51
2, 1330576, Note_off_c, 0, 39, 51
2, 1330576, Note_on_c, 0, 51, 48
2, 1330655, Control_c, 0, 64, 0
2, 1331108, Note_off_c, 0, 51, 52
2, 1331109, Note_on_c, 0, 31, 85
2, 1331205, Note_off_c, 0, 31, 61
2, 1331208, Note_on_c, 0, 34, 84
2, 1331307, Note_off_c, 0, 34, 61
2, 1331310, Note_on_c, 0, 58, 48
2, 1331311, Note_on_c, 0, 39, 83
2, 1331407, Note_off_c, 0, 39, 60
2, 1331409, Note_on_c, 0, 43, 81
2, 1331420, Note_off_c, 0, 58, 52
2, 1331507, Note_off_c, 0, 43, 60
2, 1331509, Note_on_c, 0, 58, 47
2, 1331511, Note_on_c, 0, 46, 79
2, 1331608, Note_off_c, 0, 46, 60
2, 1331610, Note_on_c, 0, 51, 78
2, 1331626, Note_off_c, 0, 58, 51
2, 1331710, Note_off_c, 0, 51, 59
2, 1331711, Note_on_c, 0, 58, 43
2, 1331712, Note_on_c, 0, 55, 76
2, 1331810, Note_off_c, 0, 55, 59
2, 1331811, Note_on_c, 0, 53, 74
2, 1331821, Note_off_c, 0, 58, 50
2, 1331908, Note_off_c, 0, 53, 59
2, 1331910, Note_on_c, 0, 56, 34
2, 1331912, Note_on_c, 0, 58, 42
2, 1331913, Note_on_c, 0, 51, 72
2, 1332042, Note_off_c, 0, 56, 48
2, 1332044, Note_off_c, 0, 58, 50
2, 1332125, Note_on_c, 0, 58, 38
2, 1332128, Note_on_c, 0, 56, 30
2, 1332264, Note_off_c, 0, 56, 47
2, 1332271, Note_off_c, 0, 58, 49
2, 1332342, Note_on_c, 0, 58, 38
2, 1332345, Note_on_c, 0, 56, 30
2, 1332347, Note_on_c, 0, 50, 60
2, 1332395, Note_off_c, 0, 51, 58
2, 1332468, Note_off_c, 0, 58, 49
2, 1332480, Note_off_c, 0, 56, 47
2, 1332577, Note_on_c, 0, 56, 30
2, 1332579, Note_on_c, 0, 58, 38
2, 1332695, Note_off_c, 0, 50, 55
2, 1332716, Note_off_c, 0, 58, 49
2, 1332722, Note_off_c, 0, 56, 47
2, 1332810, Note_on_c, 0, 55, 40
2, 1332812, Note_on_c, 0, 58, 48
2, 1332926, Note_off_c, 0, 55, 50
2, 1332930, Note_off_c, 0, 58, 52
2, 1333012, Note_on_c, 0, 55, 40
2, 1333013, Note_on_c, 0, 58, 48
2, 1333136, Note_off_c, 0, 55, 50
2, 1333142, Note_off_c, 0, 58, 52
2, 1333210, Note_on_c, 0, 75, 60
2, 1333214, Note_on_c, 0, 55, 38
2, 1333215, Note_on_c, 0, 58, 46
2, 1333323, Note_off_c, 0, 58, 51
2, 1333339, Note_off_c, 0, 55, 49
2, 1333413, Note_on_c, 0, 58, 44
2, 1333416, Note_on_c, 0, 55, 36
2, 1333526, Note_off_c, 0, 58, 51
2, 1333531, Note_off_c, 0, 55, 49
2, 1333550, Note_off_c, 0, 75, 55
2, 1333614, Note_on_c, 0, 75, 60
2, 1333616, Note_on_c, 0, 56, 34
2, 1333617, Note_on_c, 0, 58, 42
2, 1333728, Note_off_c, 0, 58, 50
2, 1333738, Note_off_c, 0, 56, 48
2, 1333831, Note_on_c, 0, 56, 32
2, 1333832, Note_on_c, 0, 58, 40
2, 1333954, Note_off_c, 0, 58, 50
2, 1333962, Note_off_c, 0, 56, 48
2, 1334049, Note_on_c, 0, 58, 38
2, 1334050, Note_on_c, 0, 74, 68
2, 1334052, Note_on_c, 0, 56, 30
2, 1334122, Note_off_c, 0, 75, 55
2, 1334195, Note_off_c, 0, 58, 49
2, 1334207, Note_off_c, 0, 56, 47
2, 1334281, Note_on_c, 0, 58, 36
2, 1334283, Note_on_c, 0, 56, 28
2, 1334465, Note_off_c, 0, 56, 47
2, 1334474, Note_off_c, 0, 58, 49
2, 1334498, Note_off_c, 0, 74, 57
2, 1334534, Note_on_c, 0, 55, 42
2, 1334535, Note_on_c, 0, 58, 50
2, 1334536, Note_on_c, 0, 31, 84
2, 1334632, Note_off_c, 0, 31, 61
2, 1334634, Note_on_c, 0, 34, 84
2, 1334643, Note_off_c, 0, 55, 50
2, 1334645, Note_off_c, 0, 58, 52
2, 1334731, Note_off_c, 0, 34, 61
2, 1334735, Note_on_c, 0, 55, 41
2, 1334736, Note_on_c, 0, 58, 49
2, 1334737, Note_on_c, 0, 39, 83
2, 1334832, Note_off_c, 0, 39, 60
2, 1334833, Note_on_c, 0, 43, 81
2, 1334843, Note_off_c, 0, 58, 52
2, 1334858, Note_off_c, 0, 55, 50
2, 1334933, Note_off_c, 0, 43, 60
2, 1334935, Note_on_c, 0, 58, 45
2, 1334937, Note_on_c, 0, 55, 37
2, 1334938, Note_on_c, 0, 46, 79
2, 1335034, Note_off_c, 0, 46, 60
2, 1335036, Note_on_c, 0, 51, 78
2, 1335044, Note_off_c, 0, 55, 49
2, 1335060, Note_off_c, 0, 58, 51
2, 1335135, Note_off_c, 0, 51, 59
2, 1335136, Note_on_c, 0, 58, 41
2, 1335137, Note_on_c, 0, 55, 45
2, 1335213, Note_off_c, 0, 55, 51
2, 1335235, Note_on_c, 0, 53, 74
2, 1335265, Note_off_c, 0, 58, 50
2, 1335335, Note_off_c, 0, 53, 59
2, 1335336, Note_on_c, 0, 56, 40
2, 1335338, Note_on_c, 0, 58, 48
2, 1335339, Note_on_c, 0, 51, 72
2, 1335455, Note_off_c, 0, 58, 52
2, 1335456, Note_off_c, 0, 56, 50
2, 1335551, Note_on_c, 0, 58, 44
2, 1335554, Note_on_c, 0, 56, 36
2, 1335661, Note_off_c, 0, 58, 51
2, 1335680, Note_off_c, 0, 56, 49
2, 1335753, Note_on_c, 0, 58, 40
2, 1335756, Note_on_c, 0, 56, 32
2, 1335757, Note_on_c, 0, 50, 60
2, 1335817, Note_off_c, 0, 51, 58
2, 1335902, Note_off_c, 0, 58, 50
2, 1335910, Note_off_c, 0, 56, 48
2, 1336001, Note_on_c, 0, 56, 28
2, 1336003, Note_on_c, 0, 58, 36
2, 1336120, Note_off_c, 0, 50, 55
2, 1336162, Note_off_c, 0, 58, 49
2, 1336180, Note_off_c, 0, 56, 47
2, 1336235, Note_on_c, 0, 56, 40
2, 1336237, Note_on_c, 0, 59, 48
2, 1336239, Note_on_c, 0, 53, 37
2, 1336352, Note_off_c, 0, 59, 52
2, 1336356, Note_off_c, 0, 56, 50
2, 1336359, Note_off_c, 0, 53, 49
2, 1336437, Note_on_c, 0, 56, 40
2, 1336439, Note_on_c, 0, 59, 48
2, 1336441, Note_on_c, 0, 53, 37
2, 1336551, Note_off_c, 0, 53, 49
2, 1336565, Note_off_c, 0, 56, 50
2, 1336568, Note_off_c, 0, 59, 52
2, 1336638, Note_on_c, 0, 74, 60
2, 1336641, Note_on_c, 0, 56, 38
2, 1336642, Note_on_c, 0, 59, 46
2, 1336643, Note_on_c, 0, 53, 35
2, 1336760, Note_off_c, 0, 53, 48
2, 1336765, Note_off_c, 0, 59, 51
2, 1336770, Note_off_c, 0, 56, 49
2, 1336837, Note_on_c, 0, 56, 36
2, 1336839, Note_on_c, 0, 59, 44
2, 1336841, Note_on_c, 0, 53, 33
2, 1336953, Note_off_c, 0, 56, 49
2, 1336962, Note_off_c, 0, 53, 48
2, 1336968, Note_off_c, 0, 59, 51
2, 1336987, Note_off_c, 0, 74, 55
2, 1337040, Note_on_c, 0, 74, 60
2, 1337043, Note_on_c, 0, 53, 31
2, 1337044, Note_on_c, 0, 55, 34
2, 1337045, Note_on_c, 0, 59, 42
2, 1337174, Note_off_c, 0, 53, 47
2, 1337175, Note_off_c, 0, 59, 50
2, 1337179, Note_off_c, 0, 55, 48
2, 1337256, Note_on_c, 0, 53, 29
2, 1337258, Note_on_c, 0, 55, 32
2, 1337259, Note_on_c, 0, 59, 40
2, 1337415, Note_off_c, 0, 55, 48
2, 1337434, Note_off_c, 0, 59, 50
2, 1337435, Note_off_c, 0, 53, 47
2, 1337473, Note_on_c, 0, 75, 66
2, 1337476, Note_on_c, 0, 55, 30
2, 1337476, Note_on_c, 0, 60, 38
2, 1337558, Note_off_c, 0, 74, 55
2, 1337674, Note_off_c, 0, 60, 49
2, 1337676, Note_off_c, 0, 55, 47
2, 1337741, Note_on_c, 0, 60, 36
2, 1337743, Note_on_c, 0, 55, 30
2, 1337860, Note_off_c, 0, 75, 56
2, 1337916, Note_off_c, 0, 55, 47
2, 1337926, Note_off_c, 0, 60, 49
2, 1337990, Note_on_c, 0, 60, 42
2, 1337992, Note_on_c, 0, 63, 50
2, 1337994, Note_on_c, 0, 55, 39
2, 1338093, Note_on_c, 0, 31, 80
2, 1338138, Note_off_c, 0, 63, 52
2, 1338141, Note_off_c, 0, 60, 50
2, 1338154, Note_off_c, 0, 55, 49
2, 1338178, Note_off_c, 0, 31, 61
2, 1338190, Note_on_c, 0, 63, 49
2, 1338193, Note_on_c, 0, 55, 38
2, 1338195, Note_on_c, 0, 60, 41
2, 1338197, Note_on_c, 0, 36, 80
2, 1338292, Note_off_c, 0, 36, 61
2, 1338294, Note_on_c, 0, 39, 78
2, 1338329, Note_off_c, 0, 63, 52
2, 1338346, Note_off_c, 0, 60, 50
2, 1338352, Note_off_c, 0, 55, 49
2, 1338376, Note_off_c, 0, 39, 60
2, 1338392, Note_on_c, 0, 63, 45
2, 1338395, Note_on_c, 0, 55, 34
2, 1338396, Note_on_c, 0, 60, 37
2, 1338397, Note_on_c, 0, 43, 76
2, 1338493, Note_off_c, 0, 43, 60
2, 1338494, Note_on_c, 0, 48, 74
2, 1338529, Note_off_c, 0, 60, 49
2, 1338538, Note_off_c, 0, 63, 51
2, 1338547, Note_off_c, 0, 55, 48
2, 1338580, Note_off_c, 0, 48, 59
2, 1338593, Note_on_c, 0, 60, 33
2, 1338594, Note_on_c, 0, 63, 41
2, 1338597, Note_on_c, 0, 55, 30
2, 1338598, Note_on_c, 0, 51, 72
2, 1338692, Note_off_c, 0, 51, 59
2, 1338694, Note_on_c, 0, 50, 70
2, 1338727, Note_off_c, 0, 63, 50
2, 1338741, Note_off_c, 0, 60, 48
2, 1338743, Note_off_c, 0, 55, 47
2, 1338779, Note_off_c, 0, 50, 59
2, 1338794, Note_on_c, 0, 55, 39
2, 1338796, Note_on_c, 0, 62, 42
2, 1338797, Note_on_c, 0, 65, 50
2, 1338798, Note_on_c, 0, 48, 68
2, 1338946, Note_off_c, 0, 65, 52
2, 1338950, Note_off_c, 0, 62, 50
2, 1338959, Note_off_c, 0, 55, 49
2, 1339010, Note_on_c, 0, 65, 46
2, 1339012, Note_on_c, 0, 55, 35
2, 1339014, Note_on_c, 0, 62, 38
2, 1339144, Note_off_c, 0, 65, 51
2, 1339156, Note_off_c, 0, 62, 49
2, 1339163, Note_off_c, 0, 55, 48
2, 1339228, Note_on_c, 0, 65, 42
2, 1339231, Note_on_c, 0, 55, 31
2, 1339231, Note_on_c, 0, 62, 34
2, 1339233, Note_on_c, 0, 47, 56
2, 1339283, Note_off_c, 0, 48, 58
2, 1339385, Note_off_c, 0, 62, 48
2, 1339396, Note_off_c, 0, 65, 50
2, 1339403, Note_off_c, 0, 55, 47
2, 1339462, Note_on_c, 0, 65, 38
2, 1339464, Note_on_c, 0, 55, 27
2, 1339465, Note_on_c, 0, 62, 30
2, 1339580, Note_off_c, 0, 47, 55
2, 1339612, Note_off_c, 0, 62, 47
2, 1339621, Note_off_c, 0, 55, 46
2, 1339630, Note_off_c, 0, 65, 49
2, 1339697, Note_on_c, 0, 63, 48
2, 1339698, Note_on_c, 0, 55, 37
2, 1339699, Note_on_c, 0, 60, 40
2, 1339818, Note_off_c, 0, 55, 49
2, 1339826, Note_off_c, 0, 60, 50
2, 1339841, Note_off_c, 0, 63, 52
2, 1339897, Note_on_c, 0, 60, 40
2, 1339898, Note_on_c, 0, 63, 48
2, 1339899, Note_on_c, 0, 55, 37
2, 1340025, Note_off_c, 0, 60, 50
2, 1340038, Note_off_c, 0, 55, 49
2, 1340040, Note_off_c, 0, 63, 52
2, 1340096, Note_on_c, 0, 63, 46
2, 1340098, Note_on_c, 0, 84, 60
2, 1340100, Note_on_c, 0, 55, 35
2, 1340102, Note_on_c, 0, 60, 38
2, 1340232, Note_off_c, 0, 63, 51
2, 1340233, Note_off_c, 0, 55, 48
2, 1340251, Note_off_c, 0, 60, 49
2, 1340296, Note_on_c, 0, 63, 44
2, 1340299, Note_on_c, 0, 55, 33
2, 1340301, Note_on_c, 0, 60, 36
2, 1340454, Note_off_c, 0, 84, 55
2, 1340464, Note_off_c, 0, 63, 51
2, 1340472, Note_off_c, 0, 55, 48
2, 1340487, Note_off_c, 0, 60, 49
2, 1340518, Note_on_c, 0, 62, 34
2, 1340519, Note_on_c, 0, 65, 42
2, 1340520, Note_on_c, 0, 84, 72
2, 1340522, Note_on_c, 0, 55, 31
2, 1340657, Note_off_c, 0, 62, 48
2, 1340673, Note_off_c, 0, 55, 47
2, 1340674, Note_off_c, 0, 65, 50
2, 1340732, Note_on_c, 0, 62, 32
2, 1340733, Note_on_c, 0, 65, 40
2, 1340735, Note_on_c, 0, 55, 29
2, 1340874, Note_off_c, 0, 55, 47
2, 1340880, Note_off_c, 0, 62, 48
2, 1340881, Note_off_c, 0, 65, 50
2, 1340950, Note_on_c, 0, 65, 38
2, 1340952, Note_on_c, 0, 83, 67
2, 1340953, Note_on_c, 0, 55, 27
2, 1340955, Note_on_c, 0, 62, 30
2, 1341009, Note_off_c, 0, 84, 58
2, 1341112, Note_off_c, 0, 62, 47
2, 1341121, Note_off_c, 0, 65, 49
2, 1341123, Note_off_c, 0, 55, 46
2, 1341184, Note_on_c, 0, 62, 28
2, 1341186, Note_on_c, 0, 65, 36
2, 1341187, Note_on_c, 0, 55, 25
2, 1341302, Note_off_c, 0, 83, 57
2, 1341332, Note_off_c, 0, 62, 47
2, 1341342, Note_off_c, 0, 55, 46
2, 1341356, Note_off_c, 0, 65, 49
2, 1341418, Note_on_c, 0, 60, 40
2, 1341420, Note_on_c, 0, 63, 48
2, 1341421, Note_on_c, 0, 55, 37
2, 1341548, Note_off_c, 0, 63, 52
2, 1341556, Note_off_c, 0, 55, 49
2, 1341565, Note_off_c, 0, 60, 50
2, 1341616, Note_on_c, 0, 63, 48
2, 1341618, Note_on_c, 0, 55, 37
2, 1341620, Note_on_c, 0, 60, 40
2, 1341756, Note_off_c, 0, 60, 50
2, 1341758, Note_off_c, 0, 63, 52
2, 1341759, Note_off_c, 0, 55, 49
2, 1341817, Note_on_c, 0, 63, 46
2, 1341820, Note_on_c, 0, 55, 35
2, 1341822, Note_on_c, 0, 60, 38
2, 1341823, Note_on_c, 0, 48, 72
2, 1341832, Note_on_c, 0, 36, 66
2, 1341941, Note_off_c, 0, 63, 51
2, 1341946, Note_off_c, 0, 55, 48
2, 1341963, Note_off_c, 0, 60, 49
2, 1342019, Note_on_c, 0, 60, 36
2, 1342020, Note_on_c, 0, 63, 44
2, 1342022, Note_on_c, 0, 55, 33
2, 1342100, Note_off_c, 0, 36, 56
2, 1342140, Note_off_c, 0, 48, 58
2, 1342152, Note_off_c, 0, 55, 48
2, 1342154, Note_off_c, 0, 60, 49
2, 1342157, Note_off_c, 0, 63, 51
2, 1342219, Note_on_c, 0, 53, 43
2, 1342220, Note_on_c, 0, 60, 46
2, 1342221, Note_on_c, 0, 63, 54
2, 1342224, Note_on_c, 0, 46, 70
2, 1342233, Note_on_c, 0, 34, 64
2, 1342353, Note_off_c, 0, 63, 53
2, 1342356, Note_off_c, 0, 60, 51
2, 1342358, Note_off_c, 0, 53, 50
2, 1342434, Note_on_c, 0, 63, 52
2, 1342437, Note_on_c, 0, 53, 41
2, 1342439, Note_on_c, 0, 60, 44
2, 1342583, Note_off_c, 0, 53, 50
2, 1342584, Note_off_c, 0, 60, 51
2, 1342593, Note_off_c, 0, 63, 53
2, 1342636, Note_on_c, 0, 60, 42
2, 1342637, Note_on_c, 0, 63, 50
2, 1342639, Note_on_c, 0, 53, 39
2, 1342641, Note_on_c, 0, 45, 60
2, 1342651, Note_on_c, 0, 33, 54
2, 1342670, Note_off_c, 0, 46, 57
2, 1342757, Note_off_c, 0, 34, 56
2, 1342777, Note_off_c, 0, 53, 49
2, 1342778, Note_off_c, 0, 60, 50
2, 1342781, Note_off_c, 0, 63, 52
2, 1342870, Note_on_c, 0, 60, 40
2, 1342871, Note_on_c, 0, 63, 48
2, 1342873, Note_on_c, 0, 53, 37
2, 1342988, Note_off_c, 0, 45, 55
2, 1342997, Note_off_c, 0, 33, 53
2, 1343001, Note_off_c, 0, 53, 49
2, 1343008, Note_off_c, 0, 63, 52
2, 1343024, Note_off_c, 0, 60, 50
2, 1343105, Note_on_c, 0, 58, 42
2, 1343106, Note_on_c, 0, 62, 48
2, 1343107, Note_on_c, 0, 53, 36
2, 1343249, Note_off_c, 0, 53, 49
2, 1343251, Note_off_c, 0, 62, 52
2, 1343254, Note_off_c, 0, 58, 50
2, 1343306, Note_on_c, 0, 53, 36
2, 1343307, Note_on_c, 0, 58, 42
2, 1343308, Note_on_c, 0, 62, 48
2, 1343439, Note_off_c, 0, 58, 50
2, 1343445, Note_off_c, 0, 62, 52
2, 1343445, Note_off_c, 0, 53, 49
2, 1343505, Note_on_c, 0, 82, 60
2, 1343507, Note_on_c, 0, 58, 40
2, 1343508, Note_on_c, 0, 62, 46
2, 1343510, Note_on_c, 0, 53, 34
2, 1343642, Note_off_c, 0, 58, 50
2, 1343644, Note_off_c, 0, 62, 51
2, 1343666, Note_off_c, 0, 53, 48
2, 1343706, Note_on_c, 0, 62, 44
2, 1343709, Note_on_c, 0, 53, 32
2, 1343710, Note_on_c, 0, 58, 38
2, 1343846, Note_off_c, 0, 82, 55
2, 1343852, Note_off_c, 0, 62, 51
2, 1343871, Note_off_c, 0, 53, 48
2, 1343872, Note_off_c, 0, 58, 49
2, 1343909, Note_on_c, 0, 82, 69
2, 1343911, Note_on_c, 0, 60, 36
2, 1343913, Note_on_c, 0, 63, 42
2, 1343914, Note_on_c, 0, 53, 30
2, 1344064, Note_off_c, 0, 53, 47
2, 1344070, Note_off_c, 0, 63, 50
2, 1344072, Note_off_c, 0, 60, 49
2, 1344125, Note_on_c, 0, 60, 34
2, 1344126, Note_on_c, 0, 63, 40
2, 1344128, Note_on_c, 0, 53, 28
2, 1344275, Note_off_c, 0, 63, 50
2, 1344284, Note_off_c, 0, 53, 47
2, 1344300, Note_off_c, 0, 60, 48
2, 1344340, Note_on_c, 0, 81, 72
2, 1344343, Note_on_c, 0, 60, 32
2, 1344344, Note_on_c, 0, 63, 38
2, 1344346, Note_on_c, 0, 53, 26
2, 1344387, Note_off_c, 0, 82, 57
2, 1344511, Note_off_c, 0, 63, 49
2, 1344520, Note_off_c, 0, 53, 46
2, 1344533, Note_off_c, 0, 60, 48
2, 1344575, Note_on_c, 0, 63, 36
2, 1344577, Note_on_c, 0, 53, 12
2, 1344578, Note_on_c, 0, 60, 22
2, 1344692, Note_off_c, 0, 81, 58
2, 1344709, Note_off_c, 0, 63, 49
2, 1344725, Note_off_c, 0, 53, 43
2, 1344728, Note_off_c, 0, 60, 45
2, 1344808, Note_on_c, 0, 62, 36
2, 1344811, Note_on_c, 0, 53, 24
2, 1344812, Note_on_c, 0, 58, 28
2, 1344927, Note_off_c, 0, 58, 47
2, 1344933, Note_off_c, 0, 62, 49
2, 1344935, Note_off_c, 0, 53, 46
2, 1345008, Note_on_c, 0, 62, 36
2, 1345011, Note_on_c, 0, 46, 54
2, 1345013, Note_on_c, 0, 53, 24
2, 1345014, Note_on_c, 0, 58, 28
2, 1345118, Note_off_c, 0, 62, 49
2, 1345137, Note_off_c, 0, 53, 46
2, 1345141, Note_off_c, 0, 58, 47
2, 1345164, Note_off_c, 0, 46, 53
2, 1345210, Note_on_c, 0, 58, 32
2, 1345211, Note_on_c, 0, 62, 40
2, 1345213, Note_on_c, 0, 46, 54
2, 1345215, Note_on_c, 0, 53, 28
2, 1345333, Note_off_c, 0, 53, 47
2, 1345353, Note_off_c, 0, 58, 48
2, 1345355, Note_off_c, 0, 62, 50
2, 1345381, Note_off_c, 0, 46, 53
2, 1345430, Note_on_c, 0, 53, 26
2, 1345431, Note_on_c, 0, 58, 30
2, 1345432, Note_on_c, 0, 62, 38
2, 1345433, Note_on_c, 0, 46, 57
2, 1345558, Note_off_c, 0, 53, 46
2, 1345562, Note_off_c, 0, 62, 49
2, 1345567, Note_off_c, 0, 58, 47
2, 1345595, Note_off_c, 0, 46, 54
2, 1345646, Note_on_c, 0, 53, 30
2, 1345647, Note_on_c, 0, 60, 34
2, 1345648, Note_on_c, 0, 63, 42
2, 1345650, Note_on_c, 0, 45, 60
2, 1345764, Note_on_c, 0, 46, 61
2, 1345780, Note_off_c, 0, 45, 55
2, 1345792, Note_off_c, 0, 60, 48
2, 1345808, Note_off_c, 0, 63, 50
2, 1345814, Note_off_c, 0, 53, 47
2, 1345861, Note_on_c, 0, 63, 46
2, 1345864, Note_on_c, 0, 48, 63
2, 1345866, Note_on_c, 0, 53, 34
2, 1345867, Note_on_c, 0, 60, 38
2, 1345874, Note_off_c, 0, 46, 55
2, 1345981, Note_on_c, 0, 46, 64
2, 1345984, Note_off_c, 0, 48, 55
2, 1346011, Note_off_c, 0, 53, 48
2, 1346019, Note_off_c, 0, 63, 51
2, 1346022, Note_off_c, 0, 60, 49
2, 1346047, Note_off_c, 0, 46, 56
2, 1346078, Note_on_c, 0, 63, 38
2, 1346081, Note_on_c, 0, 45, 66
2, 1346082, Note_on_c, 0, 53, 26
2, 1346083, Note_on_c, 0, 60, 30
2, 1346228, Note_off_c, 0, 45, 56
2, 1346239, Note_off_c, 0, 63, 49
2, 1346240, Note_off_c, 0, 53, 46
2, 1346245, Note_off_c, 0, 60, 47
2, 1346296, Note_on_c, 0, 60, 34
2, 1346298, Note_on_c, 0, 63, 42
2, 1346299, Note_on_c, 0, 53, 30
2, 1346445, Note_off_c, 0, 53, 47
2, 1346450, Note_off_c, 0, 60, 48
2, 1346459, Note_off_c, 0, 63, 50
2, 1346514, Note_on_c, 0, 58, 22
2, 1346514, Note_on_c, 0, 62, 30
2, 1346516, Note_on_c, 0, 53, 18
2, 1346665, Note_off_c, 0, 62, 47
2, 1346670, Note_off_c, 0, 53, 44
2, 1346674, Note_off_c, 0, 58, 45
2, 1346705, Note_on_c, 0, 82, 72
2, 1346715, Note_on_c, 0, 58, 22
2, 1346717, Note_on_c, 0, 62, 30
2, 1346719, Note_on_c, 0, 53, 18
2, 1346844, Note_off_c, 0, 82, 58
2, 1346850, Note_off_c, 0, 58, 45
2, 1346855, Note_off_c, 0, 62, 47
2, 1346859, Note_off_c, 0, 53, 44
2, 1346915, Note_on_c, 0, 82, 72
2, 1346918, Note_on_c, 0, 53, 20
2, 1346919, Note_on_c, 0, 58, 24
2, 1346921, Note_on_c, 0, 62, 32
2, 1347043, Note_off_c, 0, 82, 58
2, 1347054, Note_off_c, 0, 58, 46
2, 1347059, Note_off_c, 0, 62, 48
2, 1347075, Note_off_c, 0, 53, 45
2, 1347114, Note_on_c, 0, 62, 34
2, 1347116, Note_on_c, 0, 82, 75
2, 1347118, Note_on_c, 0, 53, 22
2, 1347120, Note_on_c, 0, 58, 26
2, 1347269, Note_off_c, 0, 82, 59
2, 1347273, Note_off_c, 0, 53, 45
2, 1347281, Note_off_c, 0, 58, 46
2, 1347285, Note_off_c, 0, 62, 48
2, 1347318, Note_on_c, 0, 81, 78
2, 1347321, Note_on_c, 0, 53, 24
2, 1347323, Note_on_c, 0, 60, 28
2, 1347324, Note_on_c, 0, 63, 36
2, 1347418, Note_on_c, 0, 82, 79
2, 1347452, Note_off_c, 0, 81, 59
2, 1347463, Note_off_c, 0, 63, 49
2, 1347465, Note_off_c, 0, 53, 46
2, 1347479, Note_off_c, 0, 60, 47
2, 1347514, Note_on_c, 0, 84, 81
2, 1347518, Note_on_c, 0, 53, 26
2, 1347519, Note_on_c, 0, 60, 30
2, 1347520, Note_on_c, 0, 63, 38
2, 1347540, Note_off_c, 0, 82, 60
2, 1347618, Note_on_c, 0, 82, 82
2, 1347624, Note_off_c, 0, 84, 60
2, 1347652, Note_off_c, 0, 63, 49
2, 1347654, Note_off_c, 0, 53, 46
2, 1347655, Note_off_c, 0, 60, 47
2, 1347684, Note_off_c, 0, 82, 60
2, 1347716, Note_on_c, 0, 63, 40
2, 1347718, Note_on_c, 0, 81, 84
2, 1347719, Note_on_c, 0, 53, 28
2, 1347720, Note_on_c, 0, 60, 32
2, 1347862, Note_off_c, 0, 63, 50
2, 1347869, Note_off_c, 0, 81, 61
2, 1347875, Note_off_c, 0, 60, 48
2, 1347894, Note_off_c, 0, 53, 47
2, 1347933, Note_on_c, 0, 60, 34
2, 1347935, Note_on_c, 0, 63, 42
2, 1347937, Note_on_c, 0, 53, 30
2, 1348086, Note_off_c, 0, 53, 47
2, 1348090, Note_off_c, 0, 60, 48
2, 1348092, Note_off_c, 0, 63, 50
2, 1348152, Note_on_c, 0, 53, 42
2, 1348152, Note_on_c, 0, 58, 46
2, 1348154, Note_on_c, 0, 62, 54
2, 1348274, Note_off_c, 0, 58, 51
2, 1348276, Note_off_c, 0, 53, 50
2, 1348283, Note_off_c, 0, 62, 53
2, 1348352, Note_on_c, 0, 62, 54
2, 1348354, Note_on_c, 0, 53, 42
2, 1348356, Note_on_c, 0, 58, 46
2, 1348357, Note_on_c, 0, 46, 72
2, 1348476, Note_off_c, 0, 58, 51
2, 1348481, Note_off_c, 0, 46, 58
2, 1348489, Note_off_c, 0, 53, 50
2, 1348497, Note_off_c, 0, 62, 53
2, 1348553, Note_on_c, 0, 58, 44
2, 1348555, Note_on_c, 0, 62, 52
2, 1348557, Note_on_c, 0, 53, 40
2, 1348558, Note_on_c, 0, 46, 72
2, 1348698, Note_off_c, 0, 46, 58
2, 1348709, Note_off_c, 0, 62, 53
2, 1348713, Note_off_c, 0, 58, 51
2, 1348715, Note_off_c, 0, 53, 50
2, 1348770, Note_on_c, 0, 58, 42
2, 1348771, Note_on_c, 0, 62, 50
2, 1348773, Note_on_c, 0, 53, 38
2, 1348774, Note_on_c, 0, 46, 74
2, 1348914, Note_off_c, 0, 46, 59
2, 1348916, Note_off_c, 0, 58, 50
2, 1348922, Note_off_c, 0, 62, 52
2, 1348931, Note_off_c, 0, 53, 49
2, 1348979, Control_c, 0, 64, 95
2, 1348987, Note_on_c, 0, 63, 66
2, 1348990, Note_on_c, 0, 45, 76
2, 1348997, Note_on_c, 0, 60, 60
2, 1349000, Note_on_c, 0, 53, 54
2, 1349088, Note_on_c, 0, 46, 78
2, 1349115, Note_off_c, 0, 45, 59
2, 1349188, Note_on_c, 0, 48, 79
2, 1349212, Note_off_c, 0, 46, 59
2, 1349272, Control_c, 0, 64, 0
2, 1349289, Note_on_c, 0, 46, 80
2, 1349318, Note_off_c, 0, 48, 60
2, 1349355, Note_off_c, 0, 46, 60
2, 1349386, Note_on_c, 0, 45, 81
2, 1349503, Note_off_c, 0, 45, 60
2, 1349620, Note_on_c, 0, 41, 84
2, 1349678, Note_off_c, 0, 60, 55
2, 1349683, Note_off_c, 0, 53, 53
2, 1349738, Note_off_c, 0, 41, 61
2, 1349822, Note_off_c, 0, 63, 56
2, 1349854, Note_on_c, 0, 62, 60
2, 1349857, Control_c, 0, 64, 96
2, 1349859, Note_on_c, 0, 46, 84
2, 1349865, Note_on_c, 0, 58, 54
2, 1349868, Note_on_c, 0, 53, 48
2, 1349957, Note_on_c, 0, 48, 82
2, 1349981, Note_off_c, 0, 46, 61
2, 1350056, Note_on_c, 0, 50, 80
2, 1350077, Note_off_c, 0, 48, 60
2, 1350140, Control_c, 0, 64, 0
2, 1350156, Note_on_c, 0, 48, 78
2, 1350181, Note_off_c, 0, 50, 60
2, 1350222, Note_off_c, 0, 48, 59
2, 1350256, Note_on_c, 0, 46, 76
2, 1350373, Note_off_c, 0, 46, 59
2, 1350490, Note_on_c, 0, 41, 72
2, 1350579, Note_off_c, 0, 53, 52
2, 1350596, Note_off_c, 0, 58, 53
2, 1350607, Note_off_c, 0, 41, 58
2, 1350714, Control_c, 0, 64, 97
2, 1350719, Note_on_c, 0, 53, 72
2, 1350724, Note_off_c, 0, 62, 55
2, 1350728, Note_on_c, 0, 69, 60
2, 1350730, Note_on_c, 0, 51, 62
2, 1350731, Note_on_c, 0, 48, 58
2, 1350827, Note_on_c, 0, 70, 63
2, 1350855, Note_off_c, 0, 69, 55
2, 1350927, Note_on_c, 0, 72, 66
2, 1350952, Note_off_c, 0, 70, 55
2, 1351024, Note_on_c, 0, 70, 69
2, 1351036, Control_c, 0, 64, 0
2, 1351063, Note_off_c, 0, 72, 56
2, 1351092, Note_off_c, 0, 70, 57
2, 1351127, Note_on_c, 0, 69, 72
2, 1351225, Note_off_c, 0, 48, 54
2, 1351244, Note_off_c, 0, 69, 58
2, 1351252, Note_off_c, 0, 51, 55
2, 1351363, Note_on_c, 0, 65, 72
2, 1351364, Note_on_c, 0, 41, 66
2, 1351478, Note_off_c, 0, 65, 58
2, 1351551, Note_off_c, 0, 53, 58
2, 1351561, Note_off_c, 0, 41, 56
2, 1351582, Control_c, 0, 64, 99
2, 1351595, Note_on_c, 0, 70, 64
2, 1351597, Note_on_c, 0, 53, 64
2, 1351598, Note_on_c, 0, 50, 54
2, 1351695, Note_on_c, 0, 72, 64
2, 1351723, Note_off_c, 0, 70, 55
2, 1351794, Note_on_c, 0, 74, 68
2, 1351805, Note_off_c, 0, 72, 55
2, 1351896, Note_on_c, 0, 72, 72
2, 1351904, Control_c, 0, 64, 0
2, 1351914, Note_off_c, 0, 74, 56
2, 1351961, Note_off_c, 0, 72, 57
2, 1351995, Note_on_c, 0, 70, 76
2, 1352070, Note_off_c, 0, 50, 53
2, 1352095, Note_off_c, 0, 70, 58
2, 1352212, Note_on_c, 0, 65, 76
2, 1352215, Note_on_c, 0, 41, 60
2, 1352329, Note_off_c, 0, 65, 58
2, 1352447, Note_off_c, 0, 41, 55
2, 1352448, Note_off_c, 0, 53, 56
2, 1352449, Note_on_c, 0, 75, 76
2, 1352451, Control_c, 0, 64, 95
2, 1352452, Note_on_c, 0, 45, 60
2, 1352458, Note_on_c, 0, 65, 68
2, 1352461, Note_on_c, 0, 63, 64
2, 1352562, Note_on_c, 0, 46, 63
2, 1352568, Note_off_c, 0, 45, 55
2, 1352663, Note_on_c, 0, 48, 66
2, 1352670, Note_off_c, 0, 46, 55
2, 1352772, Control_c, 0, 64, 0
2, 1352780, Note_on_c, 0, 46, 69
2, 1352807, Note_off_c, 0, 48, 56
2, 1352862, Note_off_c, 0, 46, 57
2, 1352882, Note_on_c, 0, 45, 72
2, 1352999, Note_off_c, 0, 45, 58
2, 1353116, Note_on_c, 0, 41, 72
2, 1353211, Note_off_c, 0, 65, 57
2, 1353229, Note_off_c, 0, 63, 56
2, 1353233, Note_off_c, 0, 41, 58
2, 1353331, Note_off_c, 0, 75, 59
2, 1353348, Control_c, 0, 64, 96
2, 1353350, Note_on_c, 0, 74, 69
2, 1353352, Note_on_c, 0, 46, 60
2, 1353359, Note_on_c, 0, 62, 57
2, 1353361, Note_on_c, 0, 65, 61
2, 1353449, Note_on_c, 0, 48, 60
2, 1353490, Note_off_c, 0, 46, 55
2, 1353549, Note_on_c, 0, 50, 64
2, 1353583, Note_off_c, 0, 48, 55
2, 1353651, Note_on_c, 0, 48, 68
2, 1353668, Control_c, 0, 64, 0
2, 1353694, Note_off_c, 0, 50, 56
2, 1353733, Note_off_c, 0, 48, 57
2, 1353749, Note_on_c, 0, 46, 72
2, 1353867, Note_off_c, 0, 46, 58
2, 1353879, Note_off_c, 0, 65, 55
2, 1353884, Note_off_c, 0, 62, 54
2, 1353949, Note_off_c, 0, 74, 57
2, 1353967, Note_on_c, 0, 65, 60
2, 1353968, Note_on_c, 0, 41, 72
2, 1354083, Note_off_c, 0, 41, 58
2, 1354184, Note_off_c, 0, 65, 55
2, 1354185, Note_on_c, 0, 69, 60
2, 1354188, Control_c, 0, 64, 98
2, 1354189, Note_on_c, 0, 53, 68
2, 1354196, Note_on_c, 0, 51, 60
2, 1354198, Note_on_c, 0, 48, 55
2, 1354286, Note_on_c, 0, 70, 63
2, 1354318, Note_off_c, 0, 69, 55
2, 1354385, Note_on_c, 0, 72, 66
2, 1354412, Note_off_c, 0, 70, 55
2, 1354485, Note_on_c, 0, 70, 69
2, 1354498, Control_c, 0, 64, 0
2, 1354520, Note_off_c, 0, 72, 56
2, 1354568, Note_off_c, 0, 70, 57
2, 1354584, Note_on_c, 0, 69, 72
2, 1354666, Note_off_c, 0, 48, 53
2, 1354696, Note_off_c, 0, 51, 55
2, 1354701, Note_off_c, 0, 69, 58
2, 1354819, Note_off_c, 0, 53, 57
2, 1354821, Note_on_c, 0, 65, 72
2, 1354823, Note_on_c, 0, 41, 60
2, 1354936, Note_off_c, 0, 65, 58
2, 1355052, Note_off_c, 0, 41, 55
2, 1355054, Note_on_c, 0, 70, 60
2, 1355055, Control_c, 0, 64, 96
2, 1355056, Note_on_c, 0, 53, 60
2, 1355057, Note_on_c, 0, 50, 45
2, 1355153, Note_on_c, 0, 72, 60
2, 1355167, Note_off_c, 0, 70, 55
2, 1355254, Note_on_c, 0, 74, 62
2, 1355299, Note_off_c, 0, 72, 55
2, 1355354, Note_on_c, 0, 72, 64
2, 1355364, Control_c, 0, 64, 0
2, 1355376, Note_off_c, 0, 74, 55
2, 1355420, Note_off_c, 0, 72, 56
2, 1355453, Note_on_c, 0, 70, 67
2, 1355525, Note_off_c, 0, 50, 51
2, 1355553, Note_off_c, 0, 70, 57
2, 1355556, Note_off_c, 0, 53, 55
2, 1355670, Note_on_c, 0, 71, 72
2, 1355673, Note_on_c, 0, 53, 72
2, 1355674, Note_on_c, 0, 56, 78
2, 1355676, Note_on_c, 0, 50, 66
2, 1355787, Note_off_c, 0, 71, 58
2, 1355849, Note_off_c, 0, 50, 56
2, 1355851, Note_off_c, 0, 53, 58
2, 1355903, Control_c, 0, 64, 100
2, 1355905, Note_off_c, 0, 56, 59
2, 1355908, Note_on_c, 0, 72, 72
2, 1355909, Note_on_c, 0, 55, 84
2, 1355919, Note_on_c, 0, 51, 78
2, 1356006, Note_on_c, 0, 74, 72
2, 1356046, Note_off_c, 0, 72, 58
2, 1356106, Note_on_c, 0, 75, 73
2, 1356121, Note_off_c, 0, 74, 58
2, 1356206, Note_on_c, 0, 74, 74
2, 1356214, Control_c, 0, 64, 0
2, 1356223, Note_off_c, 0, 51, 59
2, 1356232, Note_off_c, 0, 75, 58
2, 1356272, Note_off_c, 0, 74, 59
2, 1356306, Note_off_c, 0, 55, 61
2, 1356308, Note_on_c, 0, 72, 75
2, 1356405, Note_off_c, 0, 72, 59
2, 1356506, Note_on_c, 0, 79, 77
2, 1356623, Note_off_c, 0, 79, 59
2, 1356723, Note_on_c, 0, 75, 78
2, 1356823, Note_off_c, 0, 75, 59
2, 1356925, Note_on_c, 0, 84, 80
2, 1357025, Note_off_c, 0, 84, 60
2, 1357125, Note_on_c, 0, 79, 82
2, 1357224, Note_off_c, 0, 79, 60
2, 1357325, Note_on_c, 0, 87, 84
2, 1357425, Note_off_c, 0, 87, 61
2, 1357511, Control_c, 0, 64, 127
2, 1357526, Note_on_c, 0, 72, 72
2, 1357527, Note_on_c, 0, 63, 60
2, 1357538, Note_on_c, 0, 57, 48
2, 1357539, Note_on_c, 0, 60, 54
2, 1357541, Note_on_c, 0, 53, 54
2, 1357627, Note_on_c, 0, 74, 48
2, 1357648, Note_off_c, 0, 72, 58
2, 1357727, Note_on_c, 0, 75, 48
2, 1357737, Note_off_c, 0, 74, 52
2, 1357828, Note_on_c, 0, 74, 49
2, 1357835, Note_off_c, 0, 75, 52
2, 1357839, Note_off_c, 0, 60, 53
2, 1357843, Control_c, 0, 64, 0
2, 1357860, Note_off_c, 0, 57, 52
2, 1357887, Note_off_c, 0, 53, 53
2, 1357894, Note_off_c, 0, 74, 52
2, 1357925, Note_off_c, 0, 63, 55
2, 1357931, Note_on_c, 0, 72, 50
2, 1358026, Note_off_c, 0, 72, 52
2, 1358127, Note_on_c, 0, 81, 52
2, 1358227, Note_off_c, 0, 81, 53
2, 1358345, Note_on_c, 0, 75, 54
2, 1358446, Note_off_c, 0, 75, 53
2, 1358546, Note_on_c, 0, 84, 56
2, 1358644, Note_off_c, 0, 84, 54
2, 1358745, Note_on_c, 0, 81, 58
2, 1358846, Note_off_c, 0, 81, 54
2, 1358946, Note_on_c, 0, 87, 60
2, 1359046, Note_off_c, 0, 87, 55
2, 1359148, Note_on_c, 0, 72, 36
2, 1359149, Note_on_c, 0, 63, 36
2, 1359150, Control_c, 0, 64, 86
2, 1359159, Note_on_c, 0, 57, 24
2, 1359160, Note_on_c, 0, 60, 30
2, 1359161, Note_on_c, 0, 54, 30
2, 1359248, Note_on_c, 0, 74, 36
2, 1359288, Note_off_c, 0, 72, 49
2, 1359348, Note_on_c, 0, 75, 37
2, 1359378, Note_off_c, 0, 74, 49
2, 1359466, Note_on_c, 0, 74, 39
2, 1359480, Control_c, 0, 64, 0
2, 1359488, Note_off_c, 0, 60, 47
2, 1359493, Note_off_c, 0, 57, 46
2, 1359512, Note_off_c, 0, 54, 47
2, 1359514, Note_off_c, 0, 75, 49
2, 1359548, Note_off_c, 0, 74, 49
2, 1359565, Note_off_c, 0, 63, 49
2, 1359569, Note_on_c, 0, 72, 41
2, 1359680, Note_off_c, 0, 72, 50
2, 1359782, Note_on_c, 0, 81, 45
2, 1359899, Note_off_c, 0, 81, 51
2, 1359999, Note_on_c, 0, 75, 48
2, 1360099, Note_off_c, 0, 75, 52
2, 1360200, Note_on_c, 0, 84, 52
2, 1360299, Note_off_c, 0, 84, 53
2, 1360399, Note_on_c, 0, 81, 56
2, 1360500, Note_off_c, 0, 81, 54
2, 1360601, Note_on_c, 0, 87, 60
2, 1360701, Note_off_c, 0, 87, 55
2, 1360802, Note_on_c, 0, 62, 37
2, 1360803, Note_on_c, 0, 86, 60
2, 1360812, Note_on_c, 0, 58, 31
2, 1360815, Note_on_c, 0, 55, 25
2, 1360919, Note_off_c, 0, 86, 55
2, 1360942, Control_c, 0, 64, 96
2, 1361036, Note_on_c, 0, 81, 59
2, 1361141, Note_off_c, 0, 58, 47
2, 1361144, Note_off_c, 0, 55, 46
2, 1361151, Note_off_c, 0, 62, 49
2, 1361255, Note_on_c, 0, 82, 57
2, 1361307, Note_off_c, 0, 81, 54
2, 1361352, Control_c, 0, 64, 0
2, 1361421, Note_off_c, 0, 82, 54
2, 1361470, Note_on_c, 0, 78, 56
2, 1361498, Control_c, 0, 64, 127
2, 1361705, Note_on_c, 0, 60, 41
2, 1361706, Note_on_c, 0, 79, 54
2, 1361717, Note_on_c, 0, 55, 35
2, 1361718, Note_on_c, 0, 51, 29
2, 1361748, Note_off_c, 0, 78, 54
2, 1361761, Control_c, 0, 64, 0
2, 1361855, Note_off_c, 0, 79, 53
2, 1361904, Note_on_c, 0, 74, 53
2, 1361908, Control_c, 0, 64, 98
2, 1362007, Note_off_c, 0, 60, 50
2, 1362021, Note_off_c, 0, 55, 48
2, 1362062, Note_off_c, 0, 51, 47
2, 1362107, Note_on_c, 0, 75, 51
2, 1362172, Control_c, 0, 64, 0
2, 1362200, Note_off_c, 0, 74, 53
2, 1362255, Note_off_c, 0, 75, 52
2, 1362304, Note_on_c, 0, 72, 50
2, 1362338, Control_c, 0, 64, 98
2, 1362505, Note_on_c, 0, 77, 48
2, 1362508, Note_on_c, 0, 58, 38
2, 1362509, Note_on_c, 0, 62, 44
2, 1362512, Note_on_c, 0, 53, 32
2, 1362552, Control_c, 0, 64, 0
2, 1362566, Note_off_c, 0, 72, 52
2, 1362655, Note_off_c, 0, 77, 52
2, 1362723, Note_on_c, 0, 73, 48
2, 1362735, Control_c, 0, 64, 98
2, 1362818, Note_off_c, 0, 58, 49
2, 1362844, Note_off_c, 0, 53, 48
2, 1362924, Note_off_c, 0, 62, 51
2, 1362926, Note_on_c, 0, 74, 54
2, 1362960, Control_c, 0, 64, 0
2, 1363035, Note_off_c, 0, 73, 52
2, 1363090, Note_off_c, 0, 74, 53
2, 1363140, Note_on_c, 0, 70, 60
2, 1363156, Control_c, 0, 64, 98
2, 1363359, Note_on_c, 0, 75, 60
2, 1363361, Note_on_c, 0, 63, 48
2, 1363362, Note_on_c, 0, 53, 36
2, 1363363, Note_on_c, 0, 60, 42
2, 1363414, Note_off_c, 0, 70, 55
2, 1363420, Control_c, 0, 64, 0
2, 1363542, Note_off_c, 0, 75, 55
2, 1363591, Note_on_c, 0, 71, 60
2, 1363614, Control_c, 0, 64, 96
2, 1363732, Note_off_c, 0, 53, 49
2, 1363770, Note_off_c, 0, 60, 50
2, 1363827, Note_off_c, 0, 63, 52
2, 1363830, Note_on_c, 0, 72, 56
2, 1363882, Note_off_c, 0, 71, 55
2, 1363897, Control_c, 0, 64, 0
2, 1364010, Note_off_c, 0, 72, 54
2, 1364058, Note_on_c, 0, 69, 52
2, 1364100, Control_c, 0, 64, 98
2, 1364296, Note_on_c, 0, 70, 48
2, 1364305, Note_on_c, 0, 58, 30
2, 1364306, Note_on_c, 0, 62, 42
2, 1364309, Note_on_c, 0, 46, 24
2, 1364355, Control_c, 0, 64, 0
2, 1364365, Note_off_c, 0, 69, 53
2, 1364560, Control_c, 0, 64, 99
2, 1364821, Note_off_c, 0, 46, 46
2, 1364896, Note_off_c, 0, 62, 50
2, 1364905, Note_off_c, 0, 58, 47
2, 1364947, Note_off_c, 0, 70, 52
2, 1365115, Control_c, 0, 64, 0
2, 1365163, Note_on_c, 0, 67, 72
2, 1365596, Note_off_c, 0, 67, 58
2, 1365599, Note_on_c, 0, 68, 72
2, 1365601, Note_on_c, 0, 74, 54
2, 1365609, Note_on_c, 0, 71, 44
2, 1365671, Note_on_c, 0, 67, 69
2, 1365680, Note_off_c, 0, 68, 58
2, 1365730, Note_on_c, 0, 68, 66
2, 1365737, Note_off_c, 0, 67, 57
2, 1365802, Note_on_c, 0, 67, 63
2, 1365810, Note_off_c, 0, 68, 56
2, 1365855, Note_off_c, 0, 71, 51
2, 1365872, Note_off_c, 0, 74, 53
2, 1365885, Note_off_c, 0, 67, 55
2, 1365887, Note_on_c, 0, 66, 60
2, 1365937, Note_on_c, 0, 67, 60
2, 1365967, Note_off_c, 0, 66, 55
2, 1366000, Note_on_c, 0, 75, 60
2, 1366003, Note_on_c, 0, 63, 44
2, 1366010, Note_on_c, 0, 72, 50
2, 1366018, Note_off_c, 0, 67, 55
2, 1366023, Control_c, 0, 64, 127
2, 1366320, Note_off_c, 0, 75, 55
2, 1366433, Note_on_c, 0, 79, 60
2, 1366443, Note_on_c, 0, 75, 50
2, 1366444, Note_on_c, 0, 60, 50
2, 1366462, Control_c, 0, 64, 0
2, 1366471, Note_off_c, 0, 63, 51
2, 1366500, Note_off_c, 0, 72, 52
2, 1366607, Control_c, 0, 64, 90
2, 1366647, Note_off_c, 0, 75, 52
2, 1366685, Note_off_c, 0, 79, 55
2, 1366685, Note_off_c, 0, 60, 52
2, 1366861, Control_c, 0, 64, 0
2, 1366866, Note_on_c, 0, 65, 72
2, 1367284, Note_off_c, 0, 65, 58
2, 1367287, Note_on_c, 0, 72, 48
2, 1367288, Note_on_c, 0, 67, 72
2, 1367295, Note_on_c, 0, 69, 42
2, 1367348, Note_on_c, 0, 65, 69
2, 1367367, Note_off_c, 0, 67, 58
2, 1367402, Note_on_c, 0, 67, 66
2, 1367433, Note_off_c, 0, 65, 57
2, 1367478, Note_on_c, 0, 65, 63
2, 1367487, Note_off_c, 0, 67, 56
2, 1367495, Note_off_c, 0, 69, 50
2, 1367536, Note_off_c, 0, 72, 52
2, 1367560, Note_off_c, 0, 65, 55
2, 1367561, Note_on_c, 0, 64, 60
2, 1367625, Note_on_c, 0, 65, 60
2, 1367642, Note_off_c, 0, 64, 55
2, 1367688, Note_on_c, 0, 74, 48
2, 1367698, Note_on_c, 0, 70, 42
2, 1367701, Note_on_c, 0, 62, 36
2, 1367706, Note_off_c, 0, 65, 55
2, 1367718, Control_c, 0, 64, 98
2, 1368001, Note_off_c, 0, 74, 52
2, 1368118, Control_c, 0, 64, 0
2, 1368121, Note_on_c, 0, 77, 56
2, 1368130, Note_on_c, 0, 74, 50
2, 1368132, Note_on_c, 0, 58, 36
2, 1368167, Note_off_c, 0, 62, 49
2, 1368226, Note_off_c, 0, 70, 50
2, 1368264, Control_c, 0, 64, 96
2, 1368361, Note_off_c, 0, 74, 52
2, 1368366, Note_off_c, 0, 77, 54
2, 1368387, Note_off_c, 0, 58, 49
2, 1368553, Note_on_c, 0, 63, 46
2, 1368554, Note_on_c, 0, 77, 64
2, 1368557, Note_on_c, 0, 60, 40
2, 1368561, Note_on_c, 0, 57, 35
2, 1368568, Control_c, 0, 64, 0
2, 1368761, Control_c, 0, 64, 0
2, 1368829, Note_off_c, 0, 60, 50
2, 1368851, Note_off_c, 0, 57, 48
2, 1368855, Note_off_c, 0, 63, 51
2, 1368936, Note_off_c, 0, 77, 56
2, 1368947, Note_on_c, 0, 79, 72
2, 1368958, Note_on_c, 0, 63, 56
2, 1368961, Note_on_c, 0, 53, 56
2, 1368963, Note_on_c, 0, 60, 50
2, 1368966, Control_c, 0, 64, 0
2, 1369010, Note_on_c, 0, 77, 72
2, 1369030, Note_off_c, 0, 79, 58
2, 1369074, Note_on_c, 0, 79, 69
2, 1369092, Note_off_c, 0, 77, 58
2, 1369138, Note_on_c, 0, 77, 66
2, 1369157, Note_off_c, 0, 79, 57
2, 1369161, Control_c, 0, 64, 0
2, 1369216, Note_on_c, 0, 76, 63
2, 1369221, Note_off_c, 0, 77, 56
2, 1369284, Note_on_c, 0, 77, 62
2, 1369289, Note_off_c, 0, 53, 54
2, 1369292, Note_off_c, 0, 60, 52
2, 1369297, Note_off_c, 0, 76, 55
2, 1369308, Note_off_c, 0, 63, 54
2, 1369361, Note_on_c, 0, 75, 60
2, 1369366, Note_on_c, 0, 62, 50
2, 1369367, Note_off_c, 0, 77, 55
2, 1369377, Note_on_c, 0, 58, 43
2, 1369387, Control_c, 0, 64, 0
2, 1369552, Control_c, 0, 64, 95
2, 1369575, Note_on_c, 0, 74, 60
2, 1369613, Note_off_c, 0, 75, 55
2, 1369791, Note_on_c, 0, 72, 56
2, 1369828, Note_off_c, 0, 74, 55
2, 1369998, Note_off_c, 0, 58, 50
2, 1370025, Note_on_c, 0, 70, 52
2, 1370031, Note_off_c, 0, 62, 52
2, 1370067, Note_off_c, 0, 72, 54
2, 1370255, Note_on_c, 0, 58, 30
2, 1370258, Note_on_c, 0, 64, 36
2, 1370260, Note_on_c, 0, 69, 48
2, 1370263, Control_c, 0, 64, 0
2, 1370265, Note_on_c, 0, 55, 32
2, 1370317, Note_off_c, 0, 70, 53
2, 1370440, Control_c, 0, 64, 96
2, 1370493, Note_on_c, 0, 70, 48
2, 1370507, Note_off_c, 0, 69, 52
2, 1370712, Note_on_c, 0, 71, 52
2, 1370734, Note_off_c, 0, 70, 52
2, 1370886, Note_off_c, 0, 58, 47
2, 1370910, Note_on_c, 0, 72, 56
2, 1370913, Note_off_c, 0, 71, 53
2, 1370919, Note_off_c, 0, 55, 48
2, 1370979, Note_off_c, 0, 64, 49
2, 1371076, Note_off_c, 0, 72, 54
2, 1371131, Note_on_c, 0, 65, 60
2, 1371143, Note_on_c, 0, 57, 48
2, 1371144, Note_on_c, 0, 53, 40
2, 1371159, Control_c, 0, 64, 0
2, 1371335, Control_c, 0, 64, 98
2, 1371510, Note_off_c, 0, 53, 50
2, 1371516, Note_off_c, 0, 57, 52
2, 1371563, Note_off_c, 0, 65, 55
2, 1371735, Control_c, 0, 64, 0
2, 1371979, Note_on_c, 0, 53, 48
2, 1372380, Note_off_c, 0, 53, 52
2, 1372383, Note_on_c, 0, 74, 64
2, 1372384, Note_on_c, 0, 71, 54
2, 1372386, Note_on_c, 0, 67, 50
2, 1372386, Note_on_c, 0, 55, 72
2, 1372457, Note_on_c, 0, 53, 72
2, 1372464, Note_off_c, 0, 55, 58
2, 1372519, Note_on_c, 0, 55, 70
2, 1372540, Note_off_c, 0, 53, 58
2, 1372541, Note_off_c, 0, 71, 53
2, 1372543, Note_off_c, 0, 67, 52
2, 1372544, Note_off_c, 0, 74, 56
2, 1372584, Note_on_c, 0, 53, 68
2, 1372602, Note_off_c, 0, 55, 57
2, 1372648, Note_on_c, 0, 52, 66
2, 1372665, Note_off_c, 0, 53, 57
2, 1372709, Note_on_c, 0, 53, 65
2, 1372731, Note_off_c, 0, 52, 56
2, 1372783, Note_on_c, 0, 79, 68
2, 1372785, Note_on_c, 0, 51, 64
2, 1372788, Control_c, 0, 64, 96
2, 1372792, Note_off_c, 0, 53, 56
2, 1373181, Note_off_c, 0, 79, 57
2, 1373184, Note_on_c, 0, 80, 72
2, 1373187, Note_on_c, 0, 48, 60
2, 1373217, Control_c, 0, 64, 0
2, 1373242, Note_off_c, 0, 51, 56
2, 1373256, Note_on_c, 0, 79, 72
2, 1373266, Note_off_c, 0, 80, 58
2, 1373332, Note_on_c, 0, 80, 68
2, 1373341, Note_off_c, 0, 79, 58
2, 1373407, Note_on_c, 0, 79, 64
2, 1373413, Note_off_c, 0, 80, 57
2, 1373479, Note_on_c, 0, 78, 60
2, 1373485, Note_off_c, 0, 48, 55
2, 1373488, Note_off_c, 0, 79, 56
2, 1373541, Note_on_c, 0, 79, 60
2, 1373559, Note_off_c, 0, 78, 55
2, 1373586, Note_on_c, 0, 51, 72
2, 1373623, Note_off_c, 0, 79, 55
2, 1373985, Note_off_c, 0, 51, 58
2, 1373986, Note_on_c, 0, 72, 60
2, 1373989, Note_on_c, 0, 69, 45
2, 1373990, Note_on_c, 0, 65, 38
2, 1373991, Note_on_c, 0, 53, 72
2, 1374050, Note_on_c, 0, 51, 70
2, 1374070, Note_off_c, 0, 53, 58
2, 1374106, Note_on_c, 0, 53, 68
2, 1374132, Note_off_c, 0, 51, 57
2, 1374143, Note_off_c, 0, 65, 49
2, 1374147, Note_off_c, 0, 69, 51
2, 1374161, Note_off_c, 0, 72, 55
2, 1374169, Note_on_c, 0, 51, 65
2, 1374186, Note_off_c, 0, 53, 57
2, 1374252, Note_off_c, 0, 51, 56
2, 1374253, Note_on_c, 0, 50, 63
2, 1374315, Note_on_c, 0, 51, 62
2, 1374332, Note_off_c, 0, 50, 55
2, 1374387, Control_c, 0, 64, 96
2, 1374389, Note_on_c, 0, 77, 72
2, 1374397, Note_off_c, 0, 51, 55
2, 1374418, Note_on_c, 0, 50, 60
2, 1374787, Note_off_c, 0, 77, 58
2, 1374790, Note_on_c, 0, 79, 72
2, 1374791, Note_on_c, 0, 46, 48
2, 1374816, Control_c, 0, 64, 0
2, 1374851, Note_off_c, 0, 50, 55
2, 1374862, Note_on_c, 0, 77, 70
2, 1374873, Note_off_c, 0, 79, 58
2, 1374928, Note_on_c, 0, 79, 68
2, 1374943, Note_off_c, 0, 77, 57
2, 1374990, Note_on_c, 0, 77, 65
2, 1375008, Note_off_c, 0, 79, 57
2, 1375074, Note_off_c, 0, 77, 56
2, 1375076, Note_on_c, 0, 76, 63
2, 1375086, Note_off_c, 0, 46, 52
2, 1375135, Note_on_c, 0, 77, 62
2, 1375157, Note_off_c, 0, 76, 55
2, 1375190, Note_on_c, 0, 89, 60
2, 1375191, Note_on_c, 0, 53, 72
2, 1375192, Note_on_c, 0, 51, 60
2, 1375193, Note_on_c, 0, 48, 52
2, 1375194, Note_on_c, 0, 45, 45
2, 1375215, Note_off_c, 0, 77, 55
2, 1375237, Control_c, 0, 64, 96
2, 1375390, Note_off_c, 0, 89, 55
2, 1375591, Note_off_c, 0, 45, 51
2, 1375592, Note_on_c, 0, 88, 84
2, 1375593, Note_on_c, 0, 41, 60
2, 1375656, Control_c, 0, 64, 0
2, 1375692, Note_on_c, 0, 89, 84
2, 1375710, Note_off_c, 0, 88, 61
2, 1375769, Note_off_c, 0, 51, 55
2, 1375773, Note_off_c, 0, 89, 61
2, 1375789, Note_on_c, 0, 88, 84
2, 1375812, Note_off_c, 0, 53, 58
2, 1375863, Note_off_c, 0, 48, 53
2, 1375892, Note_on_c, 0, 89, 84
2, 1375930, Note_off_c, 0, 88, 61
2, 1375974, Note_off_c, 0, 89, 61
2, 1375980, Note_off_c, 0, 41, 55
2, 1375990, Note_on_c, 0, 53, 40
2, 1375992, Note_on_c, 0, 87, 48
2, 1375994, Note_on_c, 0, 50, 34
2, 1375995, Note_on_c, 0, 46, 30
2, 1376149, Note_off_c, 0, 50, 48
2, 1376155, Note_off_c, 0, 53, 50
2, 1376156, Note_off_c, 0, 46, 47
2, 1376213, Note_on_c, 0, 86, 48
2, 1376255, Note_off_c, 0, 87, 52
2, 1376328, Note_off_c, 0, 86, 52
2, 1376425, Note_on_c, 0, 58, 45
2, 1376427, Note_on_c, 0, 53, 40
2, 1376428, Note_on_c, 0, 84, 49
2, 1376430, Note_on_c, 0, 50, 36
2, 1376507, Note_off_c, 0, 84, 52
2, 1376510, Note_on_c, 0, 86, 50
2, 1376575, Note_off_c, 0, 86, 52
2, 1376577, Note_on_c, 0, 84, 50
2, 1376597, Note_off_c, 0, 58, 51
2, 1376603, Note_off_c, 0, 50, 49
2, 1376607, Note_off_c, 0, 53, 50
2, 1376644, Note_on_c, 0, 82, 51
2, 1376680, Note_off_c, 0, 84, 52
2, 1376775, Note_off_c, 0, 82, 52
2, 1376858, Note_on_c, 0, 82, 53
2, 1376861, Note_on_c, 0, 60, 40
2, 1376863, Note_on_c, 0, 57, 30
2, 1376864, Note_on_c, 0, 53, 32
2, 1377030, Note_off_c, 0, 57, 47
2, 1377031, Note_off_c, 0, 53, 48
2, 1377034, Note_off_c, 0, 60, 50
2, 1377065, Note_on_c, 0, 81, 54
2, 1377117, Note_off_c, 0, 82, 53
2, 1377175, Note_off_c, 0, 81, 53
2, 1377261, Note_on_c, 0, 60, 50
2, 1377262, Note_on_c, 0, 79, 56
2, 1377264, Note_on_c, 0, 57, 43
2, 1377266, Note_on_c, 0, 53, 40
2, 1377267, Note_on_c, 0, 51, 36
2, 1377326, Note_off_c, 0, 79, 54
2, 1377329, Note_on_c, 0, 81, 57
2, 1377394, Note_off_c, 0, 81, 54
2, 1377396, Note_on_c, 0, 79, 57
2, 1377420, Note_off_c, 0, 51, 49
2, 1377426, Note_off_c, 0, 60, 52
2, 1377437, Note_off_c, 0, 57, 50
2, 1377439, Note_off_c, 0, 53, 50
2, 1377463, Note_on_c, 0, 77, 58
2, 1377488, Note_off_c, 0, 79, 54
2, 1377612, Note_off_c, 0, 77, 54
2, 1377663, Note_on_c, 0, 77, 60
2, 1377664, Note_on_c, 0, 58, 45
2, 1377665, Note_on_c, 0, 53, 40
2, 1377666, Note_on_c, 0, 50, 32
2, 1377779, Note_off_c, 0, 77, 55
2, 1377879, Note_on_c, 0, 79, 60
2, 1377918, Control_c, 0, 64, 96
2, 1377996, Note_on_c, 0, 81, 58
2, 1378038, Note_off_c, 0, 79, 55
2, 1378096, Note_off_c, 0, 58, 51
2, 1378099, Note_off_c, 0, 50, 48
2, 1378100, Note_off_c, 0, 53, 50
2, 1378101, Note_on_c, 0, 82, 56
2, 1378143, Note_off_c, 0, 81, 54
2, 1378213, Note_on_c, 0, 84, 53
2, 1378237, Note_off_c, 0, 82, 54
2, 1378315, Note_on_c, 0, 86, 51
2, 1378358, Note_off_c, 0, 84, 53
2, 1378414, Note_on_c, 0, 87, 48
2, 1378442, Control_c, 0, 64, 0
2, 1378449, Note_off_c, 0, 86, 52
2, 1378494, Note_off_c, 0, 87, 52
2, 1378528, Note_on_c, 0, 89, 84
2, 1378531, Note_on_c, 0, 53, 72
2, 1378533, Note_on_c, 0, 51, 60
2, 1378535, Note_on_c, 0, 48, 54
2, 1378536, Note_on_c, 0, 45, 65
2, 1378630, Note_off_c, 0, 89, 61
2, 1378638, Control_c, 0, 64, 89
2, 1378730, Note_on_c, 0, 88, 84
2, 1378831, Note_on_c, 0, 89, 72
2, 1378883, Note_off_c, 0, 88, 61
2, 1378918, Note_off_c, 0, 89, 58
2, 1378931, Control_c, 0, 64, 0
2, 1378933, Note_off_c, 0, 45, 56
2, 1378935, Note_on_c, 0, 41, 60
2, 1378936, Note_on_c, 0, 88, 72
2, 1379032, Note_on_c, 0, 89, 72
2, 1379083, Note_off_c, 0, 88, 58
2, 1379098, Note_off_c, 0, 89, 58
2, 1379120, Note_off_c, 0, 51, 55
2, 1379133, Note_on_c, 0, 88, 78
2, 1379144, Note_off_c, 0, 48, 53
2, 1379172, Note_off_c, 0, 53, 58
2, 1379232, Note_on_c, 0, 89, 84
2, 1379282, Note_off_c, 0, 88, 59
2, 1379298, Note_off_c, 0, 89, 61
2, 1379320, Note_off_c, 0, 41, 55
2, 1379332, Note_on_c, 0, 53, 60
2, 1379334, Note_on_c, 0, 50, 48
2, 1379336, Note_on_c, 0, 46, 42
2, 1379549, Note_off_c, 0, 53, 55
2, 1379550, Note_off_c, 0, 50, 52
2, 1379553, Note_off_c, 0, 46, 50
2, 1379554, Note_on_c, 0, 87, 60
2, 1379651, Note_on_c, 0, 86, 60
2, 1379722, Note_off_c, 0, 87, 55
2, 1379767, Note_off_c, 0, 86, 55
2, 1379768, Note_on_c, 0, 58, 48
2, 1379770, Note_on_c, 0, 53, 40
2, 1379771, Note_on_c, 0, 50, 34
2, 1379985, Note_off_c, 0, 58, 52
2, 1379987, Note_off_c, 0, 53, 50
2, 1379988, Note_off_c, 0, 50, 48
2, 1379989, Note_on_c, 0, 84, 57
2, 1380085, Note_on_c, 0, 82, 56
2, 1380146, Note_off_c, 0, 84, 54
2, 1380202, Note_off_c, 0, 82, 54
2, 1380204, Note_on_c, 0, 60, 48
2, 1380205, Note_on_c, 0, 57, 45
2, 1380206, Note_on_c, 0, 53, 40
2, 1380401, Note_off_c, 0, 60, 52
2, 1380403, Note_off_c, 0, 53, 50
2, 1380405, Note_off_c, 0, 57, 51
2, 1380407, Note_on_c, 0, 82, 53
2, 1380504, Note_on_c, 0, 81, 52
2, 1380570, Note_off_c, 0, 82, 53
2, 1380601, Note_off_c, 0, 81, 53
2, 1380603, Note_on_c, 0, 60, 48
2, 1380605, Note_on_c, 0, 57, 40
2, 1380606, Note_on_c, 0, 53, 36
2, 1380608, Note_on_c, 0, 51, 30
2, 1380805, Note_off_c, 0, 60, 52
2, 1380805, Note_off_c, 0, 57, 50
2, 1380808, Note_off_c, 0, 53, 49
2, 1380809, Note_off_c, 0, 51, 47
2, 1380810, Note_on_c, 0, 79, 49
2, 1380904, Note_on_c, 0, 77, 48
2, 1380994, Note_off_c, 0, 77, 52
2, 1381005, Note_on_c, 0, 76, 36
2, 1381006, Note_on_c, 0, 58, 30
2, 1381008, Control_c, 0, 64, 98
2, 1381010, Note_on_c, 0, 53, 25
2, 1381011, Note_on_c, 0, 50, 32
2, 1381022, Note_off_c, 0, 79, 52
2, 1381104, Note_on_c, 0, 77, 50
2, 1381152, Note_off_c, 0, 76, 49
2, 1381221, Note_on_c, 0, 79, 52
2, 1381280, Note_off_c, 0, 77, 52
2, 1381338, Note_on_c, 0, 81, 54
2, 1381379, Note_off_c, 0, 79, 53
2, 1381437, Note_off_c, 0, 58, 47
2, 1381441, Note_off_c, 0, 53, 46
2, 1381442, Note_off_c, 0, 50, 48
2, 1381443, Note_on_c, 0, 82, 56
2, 1381475, Note_off_c, 0, 81, 53
2, 1381555, Note_on_c, 0, 84, 58
2, 1381602, Note_off_c, 0, 82, 54
2, 1381672, Note_on_c, 0, 86, 60
2, 1381725, Note_off_c, 0, 84, 54
2, 1381771, Note_on_c, 0, 87, 60
2, 1381832, Note_off_c, 0, 86, 55
2, 1381889, Note_on_c, 0, 88, 84
2, 1381892, Note_on_c, 0, 45, 90
2, 1381893, Note_on_c, 0, 33, 80
2, 1381896, Control_c, 0, 64, 0
2, 1381921, Note_off_c, 0, 87, 55
2, 1381991, Note_on_c, 0, 89, 84
2, 1382040, Note_off_c, 0, 88, 61
2, 1382091, Note_on_c, 0, 88, 85
2, 1382115, Note_off_c, 0, 89, 61
2, 1382130, Control_c, 0, 64, 114
2, 1382191, Note_on_c, 0, 89, 87
2, 1382213, Note_off_c, 0, 88, 61
2, 1382293, Note_off_c, 0, 33, 60
2, 1382294, Note_off_c, 0, 45, 62
2, 1382295, Note_on_c, 0, 88, 89
2, 1382296, Note_on_c, 0, 41, 90
2, 1382298, Note_on_c, 0, 29, 84
2, 1382312, Note_off_c, 0, 89, 61
2, 1382389, Note_on_c, 0, 89, 90
2, 1382430, Note_off_c, 0, 88, 62
2, 1382490, Note_on_c, 0, 88, 92
2, 1382509, Note_off_c, 0, 89, 62
2, 1382590, Note_off_c, 0, 41, 62
2, 1382595, Note_off_c, 0, 29, 61
2, 1382595, Note_on_c, 0, 89, 94
2, 1382646, Control_c, 0, 64, 0
2, 1382648, Note_off_c, 0, 88, 62
2, 1382691, Note_off_c, 0, 89, 63
2, 1382693, Note_on_c, 0, 87, 96
2, 1382695, Note_on_c, 0, 46, 85
2, 1382696, Note_on_c, 0, 34, 75
2, 1382809, Note_off_c, 0, 87, 63
2, 1382811, Note_on_c, 0, 86, 96
2, 1382907, Note_off_c, 0, 86, 63
2, 1382911, Note_off_c, 0, 34, 59
2, 1382912, Note_off_c, 0, 46, 61
2, 1382914, Note_on_c, 0, 84, 84
2, 1383025, Note_off_c, 0, 84, 61
2, 1383028, Note_on_c, 0, 82, 72
2, 1383099, Note_off_c, 0, 82, 58
2, 1383126, Note_on_c, 0, 82, 60
2, 1383127, Note_on_c, 0, 50, 76
2, 1383129, Note_on_c, 0, 38, 70
2, 1383242, Note_off_c, 0, 82, 55
2, 1383244, Note_on_c, 0, 81, 60
2, 1383344, Note_off_c, 0, 81, 55
2, 1383346, Note_off_c, 0, 38, 57
2, 1383347, Note_off_c, 0, 50, 59
2, 1383349, Note_on_c, 0, 79, 60
2, 1383461, Note_off_c, 0, 79, 55
2, 1383463, Note_on_c, 0, 77, 60
2, 1383543, Note_off_c, 0, 77, 55
2, 1383578, Note_on_c, 0, 77, 50
2, 1383580, Note_on_c, 0, 53, 67
2, 1383582, Note_on_c, 0, 41, 59
2, 1383695, Note_off_c, 0, 77, 52
2, 1383696, Note_on_c, 0, 75, 50
2, 1383794, Note_off_c, 0, 53, 57
2, 1383796, Note_off_c, 0, 75, 52
2, 1383797, Note_off_c, 0, 41, 54
2, 1383798, Note_on_c, 0, 74, 50
2, 1383894, Note_off_c, 0, 74, 52
2, 1383895, Note_on_c, 0, 72, 50
2, 1383994, Note_off_c, 0, 72, 52
2, 1383996, Note_on_c, 0, 74, 50
2, 1383998, Note_on_c, 0, 41, 58
2, 1384094, Note_off_c, 0, 74, 52
2, 1384097, Note_on_c, 0, 72, 50
2, 1384178, Note_off_c, 0, 72, 52
2, 1384180, Note_off_c, 0, 41, 54
2, 1384181, Note_on_c, 0, 70, 50
2, 1384261, Note_off_c, 0, 70, 52
2, 1384263, Note_on_c, 0, 69, 50
2, 1384346, Note_off_c, 0, 69, 52
2, 1384347, Note_on_c, 0, 46, 40
2, 1384348, Note_on_c, 0, 72, 48
2, 1384479, Note_on_c, 0, 70, 48
2, 1384506, Note_off_c, 0, 72, 52
2, 1384612, Note_on_c, 0, 69, 52
2, 1384662, Note_off_c, 0, 70, 52
2, 1384747, Note_on_c, 0, 72, 56
2, 1384775, Note_off_c, 0, 69, 53
2, 1384882, Note_on_c, 0, 70, 54
2, 1384896, Note_off_c, 0, 72, 54
2, 1385017, Note_on_c, 0, 69, 52
2, 1385038, Note_off_c, 0, 70, 53
2, 1385150, Note_off_c, 0, 46, 50
2, 1385151, Note_on_c, 0, 72, 60
2, 1385175, Note_off_c, 0, 69, 53
2, 1385282, Note_on_c, 0, 70, 58
2, 1385325, Note_off_c, 0, 72, 55
2, 1385415, Note_on_c, 0, 69, 56
2, 1385472, Note_off_c, 0, 70, 54
2, 1385548, Note_on_c, 0, 72, 53
2, 1385585, Note_off_c, 0, 69, 54
2, 1385699, Note_on_c, 0, 70, 51
2, 1385732, Note_off_c, 0, 72, 53
2, 1385835, Note_on_c, 0, 69, 48
2, 1385862, Note_off_c, 0, 70, 52
2, 1385922, Note_off_c, 0, 69, 52
2, 1385982, Note_on_c, 0, 72, 46
2, 1386134, Note_on_c, 0, 70, 44
2, 1386165, Note_off_c, 0, 72, 51
2, 1386268, Note_on_c, 0, 69, 41
2, 1386313, Note_off_c, 0, 70, 51
2, 1386420, Note_on_c, 0, 72, 39
2, 1386448, Note_off_c, 0, 69, 50
2, 1386569, Note_on_c, 0, 70, 36
2, 1386604, Note_off_c, 0, 72, 49
2, 1386702, Note_on_c, 0, 69, 36
2, 1386733, Note_off_c, 0, 70, 49
2, 1386800, Note_off_c, 0, 69, 49
2, 1386853, Note_on_c, 0, 72, 36
2, 1386953, Note_on_c, 0, 70, 42
2, 1386977, Note_off_c, 0, 72, 49
2, 1387053, Note_on_c, 0, 69, 48
2, 1387062, Note_off_c, 0, 70, 50
2, 1387154, Note_on_c, 0, 70, 54
2, 1387171, Note_off_c, 0, 69, 52
2, 1387255, Note_on_c, 0, 71, 60
2, 1387273, Note_off_c, 0, 70, 53
2, 1387321, Note_on_c, 0, 72, 64
2, 1387338, Note_off_c, 0, 71, 55
2, 1387388, Note_on_c, 0, 73, 68
2, 1387408, Note_off_c, 0, 72, 56
2, 1387453, Note_on_c, 0, 74, 72
2, 1387472, Note_off_c, 0, 73, 57
2, 1387522, Note_on_c, 0, 75, 76
2, 1387538, Note_off_c, 0, 74, 58
2, 1387587, Note_on_c, 0, 76, 80
2, 1387590, Note_off_c, 0, 75, 59
2, 1387636, Note_off_c, 0, 76, 60
2, 1387654, Note_on_c, 0, 77, 76
2, 1387758, Control_c, 0, 64, 127
2, 1388524, Note_on_c, 0, 68, 36
2, 1388532, Note_on_c, 0, 65, 27
2, 1388535, Control_c, 0, 64, 0
2, 1388735, Control_c, 0, 64, 115
2, 1389173, Note_off_c, 0, 77, 59
2, 1389176, Note_on_c, 0, 75, 53
2, 1389359, Note_off_c, 0, 75, 53
2, 1389387, Control_c, 0, 64, 0
2, 1389392, Note_on_c, 0, 75, 53
2, 1389394, Note_on_c, 0, 46, 36
2, 1389586, Control_c, 0, 64, 115
2, 1389625, Note_off_c, 0, 46, 49
2, 1389628, Note_on_c, 0, 58, 36
2, 1389811, Note_off_c, 0, 58, 49
2, 1389877, Note_on_c, 0, 74, 59
2, 1389879, Note_on_c, 0, 58, 38
2, 1389885, Control_c, 0, 64, 0
2, 1389958, Note_off_c, 0, 75, 53
2, 1390045, Note_off_c, 0, 58, 49
2, 1390085, Control_c, 0, 64, 115
2, 1390111, Note_on_c, 0, 58, 40
2, 1390265, Note_off_c, 0, 58, 50
2, 1390328, Note_on_c, 0, 58, 43
2, 1390477, Note_off_c, 0, 58, 50
2, 1390528, Note_on_c, 0, 77, 60
2, 1390532, Note_on_c, 0, 58, 45
2, 1390538, Control_c, 0, 64, 0
2, 1390571, Note_off_c, 0, 68, 49
2, 1390647, Note_off_c, 0, 74, 54
2, 1390671, Note_off_c, 0, 65, 46
2, 1390732, Note_off_c, 0, 58, 51
2, 1390733, Note_on_c, 0, 75, 60
2, 1390736, Note_on_c, 0, 63, 56
2, 1390737, Note_on_c, 0, 67, 34
2, 1390739, Control_c, 0, 64, 115
2, 1390753, Note_off_c, 0, 77, 55
2, 1390948, Note_on_c, 0, 72, 54
2, 1390950, Note_on_c, 0, 58, 48
2, 1390990, Note_off_c, 0, 75, 55
2, 1391072, Note_off_c, 0, 67, 48
2, 1391097, Note_off_c, 0, 72, 53
2, 1391148, Note_off_c, 0, 58, 52
2, 1391150, Note_on_c, 0, 72, 53
2, 1391151, Note_on_c, 0, 62, 48
2, 1391153, Note_on_c, 0, 65, 24
2, 1391182, Control_c, 0, 64, 0
2, 1391231, Note_off_c, 0, 63, 54
2, 1391381, Control_c, 0, 64, 115
2, 1391397, Note_on_c, 0, 58, 42
2, 1391582, Note_off_c, 0, 58, 50
2, 1391633, Note_on_c, 0, 70, 55
2, 1391635, Note_on_c, 0, 58, 39
2, 1391740, Note_off_c, 0, 72, 53
2, 1391800, Note_off_c, 0, 58, 49
2, 1391849, Note_on_c, 0, 58, 36
2, 1391854, Control_c, 0, 64, 0
2, 1391911, Note_off_c, 0, 65, 46
2, 1392014, Note_off_c, 0, 58, 49
2, 1392055, Control_c, 0, 64, 115
2, 1392065, Note_off_c, 0, 62, 52
2, 1392068, Note_on_c, 0, 58, 36
2, 1392216, Note_off_c, 0, 58, 49
2, 1392267, Note_on_c, 0, 58, 40
2, 1392268, Note_on_c, 0, 71, 57
2, 1392394, Note_off_c, 0, 70, 53
2, 1392469, Note_off_c, 0, 58, 50
2, 1392471, Note_on_c, 0, 72, 60
2, 1392472, Note_on_c, 0, 50, 44
2, 1392474, Note_on_c, 0, 65, 38
2, 1392475, Control_c, 0, 64, 0
2, 1392513, Note_off_c, 0, 71, 54
2, 1392668, Note_off_c, 0, 50, 51
2, 1392670, Note_on_c, 0, 58, 48
2, 1392671, Note_on_c, 0, 68, 60
2, 1392673, Control_c, 0, 64, 115
2, 1392694, Note_off_c, 0, 72, 55
2, 1392824, Note_off_c, 0, 68, 55
2, 1392868, Note_off_c, 0, 65, 49
2, 1392872, Note_off_c, 0, 58, 52
2, 1392873, Note_on_c, 0, 68, 60
2, 1392874, Note_on_c, 0, 51, 48
2, 1392898, Control_c, 0, 64, 0
2, 1393086, Note_off_c, 0, 51, 52
2, 1393087, Note_on_c, 0, 67, 56
2, 1393089, Note_on_c, 0, 58, 42
2, 1393097, Control_c, 0, 64, 115
2, 1393123, Note_off_c, 0, 68, 55
2, 1393303, Note_off_c, 0, 58, 50
2, 1393305, Note_on_c, 0, 70, 52
2, 1393307, Note_on_c, 0, 55, 36
2, 1393328, Note_off_c, 0, 67, 54
2, 1393380, Control_c, 0, 64, 0
2, 1393538, Note_off_c, 0, 55, 49
2, 1393539, Note_on_c, 0, 63, 48
2, 1393542, Note_on_c, 0, 58, 36
2, 1393559, Note_off_c, 0, 70, 53
2, 1393579, Control_c, 0, 64, 115
2, 1393703, Note_off_c, 0, 63, 52
2, 1393752, Note_off_c, 0, 58, 49
2, 1393755, Note_on_c, 0, 53, 36
2, 1393757, Note_on_c, 0, 56, 40
2, 1393758, Note_on_c, 0, 63, 48
2, 1393794, Control_c, 0, 64, 0
2, 1393954, Note_off_c, 0, 56, 50
2, 1393956, Note_off_c, 0, 53, 49
2, 1393958, Note_on_c, 0, 62, 51
2, 1393959, Note_on_c, 0, 58, 37
2, 1393966, Note_off_c, 0, 63, 52
2, 1393994, Control_c, 0, 64, 115
2, 1394155, Note_off_c, 0, 58, 49
2, 1394157, Note_on_c, 0, 65, 54
2, 1394159, Note_on_c, 0, 51, 39
2, 1394160, Note_on_c, 0, 55, 40
2, 1394195, Note_off_c, 0, 62, 52
2, 1394215, Control_c, 0, 64, 0
2, 1394389, Note_off_c, 0, 55, 50
2, 1394391, Note_off_c, 0, 51, 49
2, 1394392, Note_off_c, 0, 65, 53
2, 1394393, Note_on_c, 0, 63, 57
2, 1394394, Note_on_c, 0, 58, 41
2, 1394414, Control_c, 0, 64, 115
2, 1394623, Note_off_c, 0, 58, 50
2, 1394624, Note_on_c, 0, 67, 60
2, 1394625, Note_on_c, 0, 46, 42
2, 1394649, Control_c, 0, 64, 0
2, 1394828, Control_c, 0, 64, 115
2, 1394839, Note_off_c, 0, 46, 50
2, 1394841, Note_on_c, 0, 58, 44
2, 1394991, Note_off_c, 0, 58, 51
2, 1395039, Note_off_c, 0, 63, 54
2, 1395040, Note_off_c, 0, 67, 55
2, 1395042, Note_on_c, 0, 65, 48
2, 1395044, Note_on_c, 0, 62, 40
2, 1395045, Note_on_c, 0, 58, 34
2, 1395097, Control_c, 0, 64, 0
2, 1395207, Note_off_c, 0, 58, 48
2, 1395268, Note_on_c, 0, 58, 48
2, 1395276, Control_c, 0, 64, 115
2, 1395375, Note_off_c, 0, 65, 52
2, 1395377, Note_off_c, 0, 62, 50
2, 1395466, Note_on_c, 0, 77, 72
2, 1395476, Note_on_c, 0, 72, 52
2, 1395478, Note_on_c, 0, 68, 46
2, 1395485, Note_off_c, 0, 58, 52
2, 1395594, Control_c, 0, 64, 0
2, 1395674, Note_off_c, 0, 72, 53
2, 1395677, Note_off_c, 0, 68, 51
2, 1395678, Note_on_c, 0, 58, 46
2, 1395794, Control_c, 0, 64, 115
2, 1395875, Note_off_c, 0, 58, 51
2, 1395877, Note_on_c, 0, 70, 44
2, 1395878, Note_on_c, 0, 67, 44
2, 1396028, Control_c, 0, 64, 0
2, 1396110, Note_off_c, 0, 70, 51
2, 1396112, Note_off_c, 0, 67, 51
2, 1396113, Note_on_c, 0, 75, 66
2, 1396115, Note_on_c, 0, 58, 42
2, 1396145, Note_off_c, 0, 77, 58
2, 1396227, Control_c, 0, 64, 115
2, 1396276, Note_off_c, 0, 75, 56
2, 1396326, Note_off_c, 0, 58, 50
2, 1396327, Note_on_c, 0, 74, 60
2, 1396329, Note_on_c, 0, 65, 36
2, 1396331, Note_on_c, 0, 68, 40
2, 1396412, Note_on_c, 0, 75, 58
2, 1396451, Note_off_c, 0, 74, 55
2, 1396476, Control_c, 0, 64, 0
2, 1396493, Note_off_c, 0, 75, 54
2, 1396496, Note_on_c, 0, 77, 56
2, 1396577, Note_off_c, 0, 65, 49
2, 1396580, Note_on_c, 0, 58, 38
2, 1396581, Note_on_c, 0, 75, 54
2, 1396626, Note_off_c, 0, 77, 54
2, 1396675, Control_c, 0, 64, 115
2, 1396711, Note_off_c, 0, 58, 49
2, 1396811, Note_on_c, 0, 74, 48
2, 1396814, Note_on_c, 0, 58, 36
2, 1396884, Control_c, 0, 64, 0
2, 1396890, Note_off_c, 0, 75, 53
2, 1396951, Note_off_c, 0, 58, 49
2, 1397045, Note_on_c, 0, 58, 36
2, 1397086, Control_c, 0, 64, 115
2, 1397104, Note_off_c, 0, 68, 50
2, 1397262, Note_off_c, 0, 58, 49
2, 1397278, Note_on_c, 0, 68, 40
2, 1397280, Note_on_c, 0, 65, 34
2, 1397295, Control_c, 0, 64, 0
2, 1397495, Control_c, 0, 64, 115
2, 1397497, Note_off_c, 0, 65, 48
2, 1397499, Note_on_c, 0, 58, 44
2, 1397501, Note_on_c, 0, 77, 60
2, 1397519, Note_off_c, 0, 74, 52
2, 1397715, Note_off_c, 0, 68, 50
2, 1397716, Note_off_c, 0, 58, 51
2, 1397718, Note_on_c, 0, 67, 48
2, 1397719, Note_on_c, 0, 75, 60
2, 1397720, Note_on_c, 0, 63, 40
2, 1397734, Control_c, 0, 64, 0
2, 1397753, Note_off_c, 0, 77, 55
2, 1397898, Note_off_c, 0, 63, 50
2, 1397933, Control_c, 0, 64, 115
2, 1397949, Note_on_c, 0, 72, 54
2, 1397950, Note_on_c, 0, 58, 48
2, 1397986, Note_off_c, 0, 75, 55
2, 1398065, Note_off_c, 0, 67, 52
2, 1398132, Note_off_c, 0, 72, 53
2, 1398183, Control_c, 0, 64, 0
2, 1398184, Note_off_c, 0, 58, 52
2, 1398185, Note_on_c, 0, 65, 40
2, 1398186, Note_on_c, 0, 69, 48
2, 1398187, Note_on_c, 0, 62, 34
2, 1398381, Control_c, 0, 64, 115
2, 1398391, Note_on_c, 0, 58, 41
2, 1398398, Note_off_c, 0, 62, 48
2, 1398556, Note_off_c, 0, 58, 50
2, 1398618, Note_on_c, 0, 58, 37
2, 1398619, Note_on_c, 0, 70, 60
2, 1398635, Control_c, 0, 64, 0
2, 1398660, Note_off_c, 0, 69, 52
2, 1398784, Note_off_c, 0, 58, 49
2, 1398833, Note_on_c, 0, 58, 36
2, 1398836, Control_c, 0, 64, 115
2, 1399002, Note_off_c, 0, 58, 49
2, 1399026, Control_c, 0, 64, 0
2, 1399050, Note_off_c, 0, 65, 50
2, 1399052, Note_on_c, 0, 58, 36
2, 1399217, Note_off_c, 0, 58, 49
2, 1399225, Control_c, 0, 64, 115
2, 1399267, Note_on_c, 0, 71, 57
2, 1399271, Note_on_c, 0, 58, 45
2, 1399312, Note_off_c, 0, 70, 55
2, 1399440, Control_c, 0, 64, 0
2, 1399469, Note_off_c, 0, 58, 51
2, 1399471, Note_on_c, 0, 72, 54
2, 1399472, Note_on_c, 0, 50, 36
2, 1399473, Note_on_c, 0, 65, 45
2, 1399509, Note_off_c, 0, 71, 54
2, 1399640, Control_c, 0, 64, 115
2, 1399703, Note_off_c, 0, 50, 49
2, 1399705, Note_on_c, 0, 68, 51
2, 1399706, Note_on_c, 0, 58, 36
2, 1399728, Note_off_c, 0, 72, 53
2, 1399869, Note_off_c, 0, 68, 52
2, 1399919, Note_off_c, 0, 65, 51
2, 1399921, Note_off_c, 0, 58, 49
2, 1399923, Note_on_c, 0, 67, 48
2, 1399924, Note_on_c, 0, 51, 36
2, 1399926, Note_on_c, 0, 63, 40
2, 1399927, Control_c, 0, 64, 0
2, 1400127, Control_c, 0, 64, 115
2, 1400136, Note_off_c, 0, 51, 49
2, 1400139, Note_on_c, 0, 55, 39
2, 1400140, Note_on_c, 0, 70, 48
2, 1400166, Note_off_c, 0, 67, 52
2, 1400354, Note_off_c, 0, 63, 50
2, 1400357, Note_off_c, 0, 55, 49
2, 1400358, Note_on_c, 0, 68, 52
2, 1400360, Note_on_c, 0, 44, 42
2, 1400361, Note_on_c, 0, 60, 52
2, 1400366, Control_c, 0, 64, 0
2, 1400384, Note_off_c, 0, 70, 52
2, 1400566, Control_c, 0, 64, 115
2, 1400589, Note_off_c, 0, 44, 50
2, 1400591, Note_on_c, 0, 65, 56
2, 1400592, Note_on_c, 0, 56, 45
2, 1400617, Note_off_c, 0, 68, 53
2, 1400754, Note_off_c, 0, 65, 54
2, 1400780, Control_c, 0, 64, 0
2, 1400805, Note_off_c, 0, 56, 51
2, 1400807, Note_off_c, 0, 60, 53
2, 1400809, Note_on_c, 0, 46, 48
2, 1400811, Note_on_c, 0, 55, 52
2, 1400812, Note_on_c, 0, 63, 60
2, 1400971, Note_off_c, 0, 46, 52
2, 1400980, Control_c, 0, 64, 115
2, 1401022, Note_on_c, 0, 46, 48
2, 1401240, Note_off_c, 0, 55, 53
2, 1401241, Note_off_c, 0, 46, 52
2, 1401243, Note_on_c, 0, 62, 40
2, 1401245, Note_on_c, 0, 56, 34
2, 1401246, Note_on_c, 0, 67, 56
2, 1401248, Note_on_c, 0, 34, 46
2, 1401249, Control_c, 0, 64, 0
2, 1401292, Note_off_c, 0, 63, 55
2, 1401447, Control_c, 0, 64, 115
2, 1401474, Note_off_c, 0, 34, 51
2, 1401475, Note_on_c, 0, 65, 52
2, 1401477, Note_on_c, 0, 46, 44
2, 1401541, Note_off_c, 0, 67, 54
2, 1401658, Note_off_c, 0, 65, 53
2, 1401705, Note_off_c, 0, 62, 50
2, 1401709, Note_off_c, 0, 56, 48
2, 1401710, Note_off_c, 0, 46, 51
2, 1401712, Note_on_c, 0, 63, 48
2, 1401714, Note_on_c, 0, 55, 40
2, 1401715, Note_on_c, 0, 39, 34
2, 1401760, Control_c, 0, 64, 0
2, 1401960, Control_c, 0, 64, 115
2, 1402259, Note_off_c, 0, 63, 52
2, 1402260, Note_off_c, 0, 55, 50
2, 1402263, Note_off_c, 0, 39, 48
2, 1402264, Note_on_c, 0, 51, 36
2, 1402433, Control_c, 0, 64, 0
2, 1402812, Note_off_c, 0, 51, 49
2, 1402813, Note_on_c, 0, 55, 56
2, 1402911, Note_off_c, 0, 55, 54
2, 1402913, Note_on_c, 0, 58, 58
2, 1402993, Note_off_c, 0, 58, 54
2, 1403010, Note_on_c, 0, 63, 60
2, 1403012, Note_on_c, 0, 58, 37
2, 1403110, Note_off_c, 0, 63, 55
2, 1403113, Note_on_c, 0, 67, 62
2, 1403210, Note_off_c, 0, 58, 49
2, 1403213, Note_off_c, 0, 67, 55
2, 1403215, Note_on_c, 0, 55, 39
2, 1403215, Note_on_c, 0, 70, 64
2, 1403310, Note_off_c, 0, 70, 56
2, 1403312, Note_on_c, 0, 75, 66
2, 1403412, Note_off_c, 0, 75, 56
2, 1403414, Note_on_c, 0, 79, 68
2, 1403415, Note_on_c, 0, 58, 41
2, 1403514, Note_off_c, 0, 79, 57
2, 1403515, Note_on_c, 0, 77, 70
2, 1403611, Note_off_c, 0, 77, 57
2, 1403614, Note_off_c, 0, 58, 50
2, 1403616, Note_on_c, 0, 56, 42
2, 1403618, Note_on_c, 0, 75, 72
2, 1403647, Control_c, 0, 64, 127
2, 1403691, Note_off_c, 0, 55, 49
2, 1403881, Note_on_c, 0, 58, 44
2, 1404131, Note_off_c, 0, 58, 51
2, 1404134, Note_on_c, 0, 74, 60
2, 1404136, Note_on_c, 0, 53, 46
2, 1404139, Control_c, 0, 64, 0
2, 1404146, Note_off_c, 0, 56, 50
2, 1404208, Note_off_c, 0, 75, 58
2, 1404348, Note_on_c, 0, 58, 48
2, 1404369, Control_c, 0, 64, 0
2, 1404583, Note_off_c, 0, 74, 55
2, 1404584, Note_off_c, 0, 58, 52
2, 1404585, Note_on_c, 0, 55, 48
2, 1404586, Note_on_c, 0, 75, 60
2, 1404654, Note_off_c, 0, 53, 51
2, 1404684, Note_off_c, 0, 75, 55
2, 1404709, Control_c, 0, 64, 0
2, 1404781, Note_on_c, 0, 77, 66
2, 1404784, Note_on_c, 0, 58, 51
2, 1404882, Note_off_c, 0, 77, 56
2, 1404981, Note_off_c, 0, 58, 52
2, 1404985, Note_on_c, 0, 51, 54
2, 1404986, Note_on_c, 0, 79, 72
2, 1404998, Note_off_c, 0, 55, 52
2, 1405083, Note_off_c, 0, 79, 58
2, 1405183, Note_on_c, 0, 58, 57
2, 1405184, Note_on_c, 0, 81, 78
2, 1405285, Note_off_c, 0, 81, 59
2, 1405381, Note_off_c, 0, 58, 54
2, 1405385, Note_on_c, 0, 84, 84
2, 1405388, Note_on_c, 0, 46, 60
2, 1405412, Note_off_c, 0, 51, 53
2, 1405422, Control_c, 0, 64, 98
2, 1405615, Note_off_c, 0, 46, 55
2, 1405619, Note_on_c, 0, 58, 50
2, 1405763, Note_off_c, 0, 58, 52
2, 1405869, Note_on_c, 0, 58, 54
2, 1405871, Note_on_c, 0, 82, 60
2, 1405914, Note_off_c, 0, 84, 61
2, 1406043, Note_off_c, 0, 58, 53
2, 1406084, Note_on_c, 0, 58, 48
2, 1406185, Note_off_c, 0, 82, 55
2, 1406279, Control_c, 0, 64, 0
2, 1406301, Note_off_c, 0, 58, 52
2, 1406304, Note_on_c, 0, 55, 60
2, 1406403, Note_off_c, 0, 55, 55
2, 1406405, Note_on_c, 0, 58, 61
2, 1406471, Note_off_c, 0, 58, 55
2, 1406498, Control_c, 0, 64, 97
2, 1406504, Note_on_c, 0, 63, 63
2, 1406505, Note_on_c, 0, 58, 49
2, 1406604, Note_off_c, 0, 63, 55
2, 1406605, Note_on_c, 0, 67, 65
2, 1406704, Note_off_c, 0, 58, 52
2, 1406706, Note_off_c, 0, 67, 56
2, 1406706, Note_on_c, 0, 70, 66
2, 1406709, Note_on_c, 0, 55, 53
2, 1406802, Note_off_c, 0, 70, 56
2, 1406805, Note_on_c, 0, 75, 68
2, 1406902, Note_off_c, 0, 75, 57
2, 1406906, Note_on_c, 0, 58, 56
2, 1406907, Note_on_c, 0, 79, 70
2, 1407004, Note_off_c, 0, 79, 57
2, 1407007, Note_on_c, 0, 77, 72
2, 1407105, Note_off_c, 0, 58, 54
2, 1407107, Note_off_c, 0, 77, 58
2, 1407109, Note_on_c, 0, 75, 72
2, 1407110, Note_on_c, 0, 56, 60
2, 1407160, Note_off_c, 0, 55, 53
2, 1407186, Control_c, 0, 64, 0
2, 1407205, Note_on_c, 0, 74, 70
2, 1407258, Note_off_c, 0, 75, 58
2, 1407307, Note_on_c, 0, 72, 68
2, 1407308, Note_on_c, 0, 58, 57
2, 1407329, Note_off_c, 0, 74, 57
2, 1407405, Control_c, 0, 64, 97
2, 1407423, Note_on_c, 0, 70, 66
2, 1407460, Note_off_c, 0, 72, 57
2, 1407524, Note_off_c, 0, 58, 54
2, 1407527, Note_on_c, 0, 69, 64
2, 1407528, Note_on_c, 0, 53, 51
2, 1407554, Note_off_c, 0, 70, 56
2, 1407561, Note_off_c, 0, 56, 55
2, 1407641, Note_on_c, 0, 70, 62
2, 1407713, Note_off_c, 0, 69, 56
2, 1407741, Note_on_c, 0, 72, 60
2, 1407743, Note_on_c, 0, 58, 48
2, 1407776, Note_off_c, 0, 70, 55
2, 1407859, Note_on_c, 0, 74, 60
2, 1407898, Note_off_c, 0, 72, 55
2, 1407939, Note_off_c, 0, 74, 55
2, 1407972, Note_off_c, 0, 58, 52
2, 1407975, Note_on_c, 0, 75, 60
2, 1407977, Note_on_c, 0, 55, 48
2, 1408048, Note_off_c, 0, 53, 52
2, 1408089, Note_off_c, 0, 75, 55
2, 1408130, Control_c, 0, 64, 0
2, 1408224, Note_on_c, 0, 77, 66
2, 1408226, Note_on_c, 0, 58, 52
2, 1408359, Note_off_c, 0, 77, 56
2, 1408509, Note_off_c, 0, 58, 53
2, 1408511, Note_on_c, 0, 51, 56
2, 1408512, Note_on_c, 0, 79, 72
2, 1408600, Note_off_c, 0, 55, 52
2, 1408657, Note_off_c, 0, 79, 58
2, 1408809, Note_on_c, 0, 81, 72
2, 1408811, Note_on_c, 0, 58, 60
2, 1408960, Note_off_c, 0, 81, 58
2, 1409094, Note_off_c, 0, 58, 55
2, 1409172, Note_off_c, 0, 51, 54
2, 1409300, Note_on_c, 0, 82, 48
2, 1409304, Note_on_c, 0, 70, 36
2, 1409306, Note_on_c, 0, 58, 30
2, 1409307, Note_on_c, 0, 46, 40
2, 1409482, Control_c, 0, 64, 99
2, 1410676, Note_off_c, 0, 82, 52
2, 1410729, Note_off_c, 0, 58, 47
2, 1410762, Note_off_c, 0, 46, 50
2, 1410870, Note_off_c, 0, 70, 49
2, 1411102, Note_on_c, 0, 83, 86
2, 1411104, Note_on_c, 0, 71, 74
2, 1411105, Note_on_c, 0, 59, 66
2, 1411107, Note_on_c, 0, 47, 59
2, 1411120, Control_c, 0, 64, 0
2, 1411354, Control_c, 0, 64, 127
2, 1412734, Note_off_c, 0, 59, 56
2, 1412827, Note_off_c, 0, 47, 54
2, 1413016, Note_off_c, 0, 71, 59
2, 1413047, Note_off_c, 0, 83, 61
2, 1413212, Control_c, 0, 64, 0
2, 1413359, Note_on_c, 0, 84, 84
2, 1413360, Note_on_c, 0, 48, 60
2, 1413362, Note_on_c, 0, 72, 70
2, 1413454, Note_off_c, 0, 48, 55
2, 1413456, Note_on_c, 0, 51, 60
2, 1413460, Control_c, 0, 64, 127
2, 1413557, Note_off_c, 0, 51, 55
2, 1413558, Note_on_c, 0, 55, 72
2, 1413655, Note_off_c, 0, 55, 58
2, 1413657, Note_on_c, 0, 60, 72
2, 1413754, Note_off_c, 0, 60, 58
2, 1413758, Note_on_c, 0, 56, 72
2, 1413855, Control_c, 0, 64, 0
2, 1413856, Note_off_c, 0, 56, 58
2, 1413858, Note_on_c, 0, 55, 66
2, 1413956, Note_off_c, 0, 55, 56
2, 1413957, Note_on_c, 0, 54, 60
2, 1414056, Note_off_c, 0, 54, 55
2, 1414058, Note_on_c, 0, 55, 60
2, 1414157, Note_off_c, 0, 72, 57
2, 1414158, Note_off_c, 0, 55, 55
2, 1414159, Note_off_c, 0, 84, 61
2, 1414160, Note_on_c, 0, 48, 60
2, 1414255, Note_off_c, 0, 48, 55
2, 1414258, Note_on_c, 0, 51, 66
2, 1414340, Note_off_c, 0, 51, 56
2, 1414343, Note_on_c, 0, 55, 72
2, 1414441, Note_off_c, 0, 55, 58
2, 1414442, Note_on_c, 0, 60, 72
2, 1414521, Note_on_c, 0, 75, 98
2, 1414524, Note_off_c, 0, 60, 58
2, 1414526, Note_on_c, 0, 67, 84
2, 1414528, Note_on_c, 0, 72, 78
2, 1414530, Note_on_c, 0, 63, 80
2, 1414530, Note_on_c, 0, 56, 72
2, 1414625, Note_off_c, 0, 56, 58
2, 1414627, Note_on_c, 0, 55, 66
2, 1414666, Note_off_c, 0, 75, 64
2, 1414672, Note_off_c, 0, 67, 61
2, 1414695, Note_off_c, 0, 63, 60
2, 1414701, Note_off_c, 0, 72, 59
2, 1414729, Note_off_c, 0, 55, 56
2, 1414730, Note_on_c, 0, 54, 60
2, 1414809, Note_off_c, 0, 54, 55
2, 1414811, Note_on_c, 0, 55, 60
2, 1414906, Note_on_c, 0, 75, 64
2, 1414908, Note_off_c, 0, 55, 55
2, 1414910, Note_on_c, 0, 79, 84
2, 1414913, Note_on_c, 0, 72, 70
2, 1414914, Note_on_c, 0, 48, 60
2, 1414916, Note_on_c, 0, 67, 80
2, 1414918, Control_c, 0, 64, 98
2, 1415010, Note_off_c, 0, 48, 55
2, 1415011, Note_on_c, 0, 51, 66
2, 1415109, Note_off_c, 0, 51, 56
2, 1415111, Note_on_c, 0, 55, 72
2, 1415199, Note_off_c, 0, 79, 61
2, 1415210, Note_off_c, 0, 55, 58
2, 1415211, Note_off_c, 0, 75, 56
2, 1415212, Note_on_c, 0, 60, 72
2, 1415216, Note_off_c, 0, 72, 57
2, 1415258, Note_off_c, 0, 67, 60
2, 1415314, Note_off_c, 0, 60, 58
2, 1415316, Note_on_c, 0, 56, 72
2, 1415400, Control_c, 0, 64, 0
2, 1415410, Note_off_c, 0, 56, 58
2, 1415412, Note_on_c, 0, 55, 66
2, 1415510, Note_off_c, 0, 55, 56
2, 1415511, Note_on_c, 0, 54, 60
2, 1415611, Note_off_c, 0, 54, 55
2, 1415612, Note_on_c, 0, 55, 60
2, 1415711, Note_off_c, 0, 55, 55
2, 1415712, Note_on_c, 0, 48, 60
2, 1415793, Note_off_c, 0, 48, 55
2, 1415795, Note_on_c, 0, 51, 66
2, 1415892, Note_off_c, 0, 51, 56
2, 1415896, Note_on_c, 0, 55, 72
2, 1415994, Note_off_c, 0, 55, 58
2, 1415997, Note_on_c, 0, 60, 72
2, 1416091, Note_on_c, 0, 84, 96
2, 1416096, Note_off_c, 0, 60, 58
2, 1416097, Note_on_c, 0, 72, 78
2, 1416099, Note_on_c, 0, 75, 84
2, 1416100, Note_on_c, 0, 79, 76
2, 1416101, Note_on_c, 0, 56, 72
2, 1416196, Note_off_c, 0, 56, 58
2, 1416197, Note_on_c, 0, 55, 66
2, 1416239, Note_off_c, 0, 75, 61
2, 1416241, Note_off_c, 0, 72, 59
2, 1416246, Note_off_c, 0, 84, 63
2, 1416251, Note_off_c, 0, 79, 59
2, 1416282, Note_off_c, 0, 55, 56
2, 1416285, Note_on_c, 0, 54, 60
2, 1416378, Note_off_c, 0, 54, 55
2, 1416380, Note_on_c, 0, 55, 60
2, 1416444, Control_c, 0, 64, 127
2, 1416476, Note_on_c, 0, 74, 84
2, 1416478, Note_off_c, 0, 55, 55
2, 1416480, Note_on_c, 0, 62, 80
2, 1416483, Note_on_c, 0, 47, 60
2, 1416486, Note_on_c, 0, 71, 64
2, 1416487, Note_on_c, 0, 67, 72
2, 1416578, Note_off_c, 0, 47, 55
2, 1416582, Note_on_c, 0, 50, 64
2, 1416680, Note_off_c, 0, 50, 56
2, 1416681, Note_on_c, 0, 55, 68
2, 1416780, Note_off_c, 0, 55, 57
2, 1416782, Note_on_c, 0, 59, 72
2, 1416787, Note_off_c, 0, 74, 61
2, 1416798, Note_off_c, 0, 71, 56
2, 1416803, Note_off_c, 0, 62, 60
2, 1416831, Note_off_c, 0, 67, 58
2, 1416884, Note_off_c, 0, 59, 58
2, 1416887, Note_on_c, 0, 56, 72
2, 1416979, Note_off_c, 0, 56, 58
2, 1416981, Note_on_c, 0, 55, 66
2, 1417079, Note_off_c, 0, 55, 56
2, 1417082, Note_on_c, 0, 54, 60
2, 1417100, Control_c, 0, 64, 0
2, 1417179, Note_off_c, 0, 54, 55
2, 1417183, Note_on_c, 0, 55, 60
2, 1417281, Note_off_c, 0, 55, 55
2, 1417283, Note_on_c, 0, 47, 60
2, 1417365, Note_off_c, 0, 47, 55
2, 1417367, Note_on_c, 0, 50, 66
2, 1417466, Note_off_c, 0, 50, 56
2, 1417467, Note_on_c, 0, 55, 72
2, 1417564, Note_off_c, 0, 55, 58
2, 1417566, Note_on_c, 0, 59, 72
2, 1417646, Note_on_c, 0, 74, 76
2, 1417648, Note_on_c, 0, 79, 96
2, 1417649, Note_off_c, 0, 59, 58
2, 1417651, Note_on_c, 0, 67, 84
2, 1417654, Note_on_c, 0, 56, 72
2, 1417657, Note_on_c, 0, 71, 80
2, 1417749, Note_off_c, 0, 56, 58
2, 1417750, Note_on_c, 0, 55, 66
2, 1417800, Note_off_c, 0, 71, 60
2, 1417802, Note_off_c, 0, 67, 61
2, 1417808, Note_off_c, 0, 74, 59
2, 1417811, Note_off_c, 0, 79, 63
2, 1417853, Note_off_c, 0, 55, 56
2, 1417855, Note_on_c, 0, 54, 60
2, 1417935, Note_off_c, 0, 54, 55
2, 1417936, Note_on_c, 0, 55, 60
2, 1418013, Control_c, 0, 64, 127
2, 1418031, Note_off_c, 0, 55, 55
2, 1418033, Note_on_c, 0, 74, 80
2, 1418035, Note_on_c, 0, 83, 64
2, 1418037, Note_on_c, 0, 47, 60
2, 1418039, Note_on_c, 0, 79, 72
2, 1418040, Note_on_c, 0, 86, 84
2, 1418133, Note_off_c, 0, 47, 55
2, 1418135, Note_on_c, 0, 50, 66
2, 1418232, Note_off_c, 0, 50, 56
2, 1418234, Note_on_c, 0, 55, 72
2, 1418334, Note_off_c, 0, 55, 58
2, 1418335, Note_on_c, 0, 59, 72
2, 1418435, Note_off_c, 0, 59, 58
2, 1418436, Note_on_c, 0, 56, 72
2, 1418535, Note_off_c, 0, 56, 58
2, 1418537, Note_on_c, 0, 55, 66
2, 1418634, Note_off_c, 0, 55, 56
2, 1418637, Note_on_c, 0, 54, 60
2, 1418672, Note_off_c, 0, 79, 58
2, 1418676, Control_c, 0, 64, 0
2, 1418708, Note_off_c, 0, 74, 60
2, 1418712, Note_off_c, 0, 86, 61
2, 1418724, Note_off_c, 0, 83, 56
2, 1418734, Note_off_c, 0, 54, 55
2, 1418736, Note_on_c, 0, 55, 60
2, 1418841, Note_off_c, 0, 55, 55
2, 1418842, Note_on_c, 0, 47, 60
2, 1418936, Note_off_c, 0, 47, 55
2, 1418937, Note_on_c, 0, 50, 66
2, 1419020, Note_off_c, 0, 50, 56
2, 1419021, Note_on_c, 0, 55, 72
2, 1419120, Note_off_c, 0, 55, 58
2, 1419122, Note_on_c, 0, 59, 72
2, 1419219, Note_off_c, 0, 59, 58
2, 1419220, Note_on_c, 0, 79, 82
2, 1419223, Note_on_c, 0, 74, 78
2, 1419224, Note_on_c, 0, 83, 74
2, 1419225, Note_on_c, 0, 86, 94
2, 1419226, Note_on_c, 0, 56, 72
2, 1419302, Note_off_c, 0, 56, 58
2, 1419305, Note_on_c, 0, 55, 69
2, 1419361, Note_off_c, 0, 74, 59
2, 1419367, Note_off_c, 0, 83, 59
2, 1419376, Note_off_c, 0, 79, 60
2, 1419380, Note_off_c, 0, 86, 63
2, 1419408, Note_off_c, 0, 55, 57
2, 1419410, Note_on_c, 0, 54, 66
2, 1419488, Note_off_c, 0, 54, 56
2, 1419489, Note_on_c, 0, 55, 63
2, 1419589, Note_off_c, 0, 55, 55
2, 1419590, Note_on_c, 0, 48, 60
2, 1419591, Note_on_c, 0, 75, 60
2, 1419597, Control_c, 0, 64, 100
2, 1419688, Note_off_c, 0, 75, 55
2, 1419691, Note_on_c, 0, 79, 60
2, 1419787, Note_off_c, 0, 79, 55
2, 1419789, Note_on_c, 0, 84, 66
2, 1419887, Note_off_c, 0, 84, 56
2, 1419889, Note_on_c, 0, 87, 72
2, 1419988, Note_off_c, 0, 48, 55
2, 1419989, Note_off_c, 0, 87, 58
2, 1419990, Note_on_c, 0, 60, 63
2, 1419992, Note_on_c, 0, 89, 86
2, 1419995, Note_on_c, 0, 63, 87
2, 1420089, Note_off_c, 0, 89, 61
2, 1420090, Note_on_c, 0, 87, 72
2, 1420190, Note_off_c, 0, 87, 58
2, 1420191, Note_on_c, 0, 86, 68
2, 1420287, Note_off_c, 0, 86, 57
2, 1420290, Note_on_c, 0, 87, 64
2, 1420314, Control_c, 0, 64, 0
2, 1420323, Note_off_c, 0, 63, 61
2, 1420325, Note_off_c, 0, 60, 55
2, 1420390, Note_off_c, 0, 87, 56
2, 1420394, Note_on_c, 0, 46, 69
2, 1420395, Note_on_c, 0, 75, 60
2, 1420490, Note_off_c, 0, 75, 55
2, 1420491, Note_on_c, 0, 79, 60
2, 1420549, Control_c, 0, 64, 100
2, 1420606, Note_off_c, 0, 79, 55
2, 1420608, Note_on_c, 0, 84, 66
2, 1420706, Note_off_c, 0, 84, 56
2, 1420707, Note_on_c, 0, 87, 72
2, 1420805, Note_on_c, 0, 63, 78
2, 1420808, Note_off_c, 0, 46, 57
2, 1420809, Note_off_c, 0, 87, 58
2, 1420810, Note_on_c, 0, 61, 70
2, 1420811, Note_on_c, 0, 89, 86
2, 1420818, Note_on_c, 0, 58, 60
2, 1420923, Note_off_c, 0, 89, 61
2, 1420925, Note_on_c, 0, 87, 72
2, 1421025, Note_off_c, 0, 87, 58
2, 1421026, Note_on_c, 0, 86, 68
2, 1421143, Note_off_c, 0, 86, 57
2, 1421144, Note_on_c, 0, 87, 64
2, 1421155, Note_off_c, 0, 63, 59
2, 1421162, Note_off_c, 0, 61, 57
2, 1421191, Control_c, 0, 64, 0
2, 1421196, Note_off_c, 0, 58, 55
2, 1421244, Note_off_c, 0, 87, 56
2, 1421247, Note_on_c, 0, 75, 60
2, 1421248, Note_on_c, 0, 44, 60
2, 1421341, Note_off_c, 0, 75, 55
2, 1421343, Note_on_c, 0, 79, 60
2, 1421425, Control_c, 0, 64, 100
2, 1421443, Note_off_c, 0, 79, 55
2, 1421446, Note_on_c, 0, 84, 66
2, 1421542, Note_off_c, 0, 84, 56
2, 1421544, Note_on_c, 0, 87, 72
2, 1421643, Note_off_c, 0, 44, 55
2, 1421644, Note_off_c, 0, 87, 58
2, 1421645, Note_on_c, 0, 56, 64
2, 1421647, Note_on_c, 0, 89, 84
2, 1421648, Note_on_c, 0, 60, 75
2, 1421649, Note_on_c, 0, 63, 88
2, 1421743, Note_off_c, 0, 89, 61
2, 1421745, Note_on_c, 0, 87, 72
2, 1421844, Note_off_c, 0, 87, 58
2, 1421845, Note_on_c, 0, 86, 68
2, 1421941, Note_off_c, 0, 63, 62
2, 1421943, Note_off_c, 0, 86, 57
2, 1421946, Note_on_c, 0, 87, 64
2, 1421976, Note_off_c, 0, 56, 56
2, 1421993, Note_off_c, 0, 60, 59
2, 1422039, Control_c, 0, 64, 0
2, 1422042, Note_off_c, 0, 87, 56
2, 1422047, Note_on_c, 0, 43, 69
2, 1422048, Note_on_c, 0, 76, 60
2, 1422144, Note_off_c, 0, 76, 55
2, 1422147, Note_on_c, 0, 82, 60
2, 1422262, Note_off_c, 0, 82, 55
2, 1422263, Note_on_c, 0, 85, 66
2, 1422273, Control_c, 0, 64, 100
2, 1422360, Note_off_c, 0, 85, 56
2, 1422362, Note_on_c, 0, 88, 72
2, 1422462, Note_off_c, 0, 43, 57
2, 1422462, Note_off_c, 0, 88, 58
2, 1422464, Note_on_c, 0, 64, 76
2, 1422466, Note_on_c, 0, 89, 84
2, 1422467, Note_on_c, 0, 58, 72
2, 1422470, Note_on_c, 0, 61, 80
2, 1422472, Note_on_c, 0, 55, 78
2, 1422578, Note_off_c, 0, 89, 61
2, 1422580, Note_on_c, 0, 88, 72
2, 1422679, Note_off_c, 0, 88, 58
2, 1422680, Note_on_c, 0, 86, 60
2, 1422780, Note_off_c, 0, 86, 55
2, 1422781, Note_on_c, 0, 88, 60
2, 1422807, Note_off_c, 0, 58, 58
2, 1422810, Note_off_c, 0, 64, 59
2, 1422847, Note_off_c, 0, 61, 60
2, 1422850, Note_off_c, 0, 55, 59
2, 1422878, Control_c, 0, 64, 0
2, 1422897, Note_off_c, 0, 88, 55
2, 1422900, Note_on_c, 0, 44, 60
2, 1422995, Note_on_c, 0, 89, 84
2, 1423095, Note_off_c, 0, 89, 61
2, 1423098, Note_on_c, 0, 84, 84
2, 1423112, Control_c, 0, 64, 100
2, 1423197, Note_off_c, 0, 84, 61
2, 1423198, Note_on_c, 0, 80, 82
2, 1423298, Note_off_c, 0, 44, 55
2, 1423298, Note_off_c, 0, 80, 60
2, 1423301, Note_on_c, 0, 60, 50
2, 1423302, Note_on_c, 0, 65, 64
2, 1423307, Note_on_c, 0, 56, 44
2, 1423397, Note_on_c, 0, 89, 78
2, 1423497, Note_off_c, 0, 89, 59
2, 1423499, Note_on_c, 0, 84, 76
2, 1423597, Note_off_c, 0, 84, 59
2, 1423599, Note_on_c, 0, 80, 74
2, 1423601, Note_off_c, 0, 56, 51
2, 1423614, Note_off_c, 0, 60, 52
2, 1423645, Note_off_c, 0, 65, 56
2, 1423687, Control_c, 0, 64, 0
2, 1423697, Note_off_c, 0, 80, 59
2, 1423703, Note_on_c, 0, 46, 69
2, 1423797, Note_on_c, 0, 86, 70
2, 1423900, Note_off_c, 0, 86, 57
2, 1423901, Note_on_c, 0, 80, 68
2, 1423921, Control_c, 0, 64, 100
2, 1423998, Note_off_c, 0, 80, 57
2, 1424000, Note_on_c, 0, 77, 66
2, 1424117, Note_off_c, 0, 46, 57
2, 1424118, Note_off_c, 0, 77, 56
2, 1424119, Note_on_c, 0, 58, 65
2, 1424120, Note_on_c, 0, 68, 72
2, 1424122, Note_on_c, 0, 65, 60
2, 1424216, Note_on_c, 0, 86, 62
2, 1424317, Note_off_c, 0, 86, 55
2, 1424318, Note_on_c, 0, 80, 60
2, 1424416, Note_off_c, 0, 80, 55
2, 1424418, Note_on_c, 0, 77, 60
2, 1424421, Note_off_c, 0, 65, 55
2, 1424449, Note_off_c, 0, 68, 58
2, 1424452, Note_off_c, 0, 58, 56
2, 1424495, Control_c, 0, 64, 0
2, 1424517, Note_off_c, 0, 77, 55
2, 1424522, Note_on_c, 0, 51, 72
2, 1424616, Note_on_c, 0, 87, 84
2, 1424719, Note_off_c, 0, 87, 61
2, 1424720, Note_on_c, 0, 82, 84
2, 1424730, Control_c, 0, 64, 100
2, 1424817, Note_off_c, 0, 82, 61
2, 1424819, Note_on_c, 0, 79, 81
2, 1424919, Note_off_c, 0, 51, 58
2, 1424919, Note_off_c, 0, 79, 60
2, 1424921, Note_on_c, 0, 75, 78
2, 1425017, Note_off_c, 0, 75, 59
2, 1425020, Note_on_c, 0, 70, 75
2, 1425118, Note_off_c, 0, 70, 59
2, 1425120, Note_on_c, 0, 67, 72
2, 1425218, Note_off_c, 0, 67, 58
2, 1425222, Note_on_c, 0, 63, 72
2, 1425258, Control_c, 0, 64, 0
2, 1425318, Note_off_c, 0, 63, 58
2, 1425320, Note_on_c, 0, 51, 64
2, 1425331, Note_on_c, 0, 39, 64
2, 1425421, Note_on_c, 0, 58, 73
2, 1425491, Control_c, 0, 64, 100
2, 1425537, Note_off_c, 0, 58, 58
2, 1425538, Note_on_c, 0, 67, 75
2, 1425637, Note_off_c, 0, 67, 59
2, 1425639, Note_on_c, 0, 70, 76
2, 1425679, Note_off_c, 0, 39, 56
2, 1425738, Note_off_c, 0, 70, 59
2, 1425738, Note_off_c, 0, 51, 56
2, 1425740, Note_on_c, 0, 50, 60
2, 1425749, Note_on_c, 0, 38, 60
2, 1425787, Control_c, 0, 64, 0
2, 1425853, Note_on_c, 0, 59, 79
2, 1425953, Note_off_c, 0, 59, 60
2, 1425956, Note_on_c, 0, 65, 81
2, 1426021, Control_c, 0, 64, 100
2, 1426053, Note_off_c, 0, 65, 60
2, 1426056, Note_on_c, 0, 71, 82
2, 1426060, Note_off_c, 0, 38, 55
2, 1426154, Note_off_c, 0, 71, 60
2, 1426155, Note_off_c, 0, 50, 55
2, 1426158, Note_on_c, 0, 72, 84
2, 1426160, Note_on_c, 0, 67, 64
2, 1426161, Note_on_c, 0, 63, 72
2, 1426162, Note_on_c, 0, 60, 88
2, 1426163, Note_on_c, 0, 48, 60
2, 1426254, Note_off_c, 0, 48, 55
2, 1426256, Note_on_c, 0, 51, 66
2, 1426356, Note_off_c, 0, 51, 56
2, 1426357, Note_on_c, 0, 55, 72
2, 1426375, Note_off_c, 0, 60, 62
2, 1426456, Note_off_c, 0, 55, 58
2, 1426458, Note_on_c, 0, 60, 72
2, 1426555, Note_off_c, 0, 72, 61
2, 1426557, Note_off_c, 0, 67, 56
2, 1426559, Note_off_c, 0, 63, 58
2, 1426559, Note_off_c, 0, 60, 58
2, 1426561, Note_on_c, 0, 56, 72
2, 1426656, Note_off_c, 0, 56, 58
2, 1426658, Note_on_c, 0, 55, 66
2, 1426756, Note_off_c, 0, 55, 56
2, 1426758, Note_on_c, 0, 54, 60
2, 1426792, Control_c, 0, 64, 0
2, 1426857, Note_off_c, 0, 54, 55
2, 1426858, Note_on_c, 0, 55, 60
2, 1426956, Note_off_c, 0, 55, 55
2, 1426958, Note_on_c, 0, 48, 60
2, 1427058, Note_off_c, 0, 48, 55
2, 1427059, Note_on_c, 0, 51, 66
2, 1427158, Note_off_c, 0, 51, 56
2, 1427160, Note_on_c, 0, 55, 72
2, 1427240, Note_off_c, 0, 55, 58
2, 1427243, Note_on_c, 0, 60, 72
2, 1427340, Note_off_c, 0, 60, 58
2, 1427342, Note_on_c, 0, 75, 96
2, 1427344, Note_on_c, 0, 72, 76
2, 1427345, Note_on_c, 0, 67, 80
2, 1427347, Note_on_c, 0, 63, 84
2, 1427349, Note_on_c, 0, 56, 72
2, 1427423, Note_off_c, 0, 56, 58
2, 1427425, Note_on_c, 0, 55, 66
2, 1427527, Note_off_c, 0, 72, 59
2, 1427528, Note_off_c, 0, 75, 63
2, 1427529, Note_off_c, 0, 67, 60
2, 1427530, Note_off_c, 0, 63, 61
2, 1427532, Note_off_c, 0, 55, 56
2, 1427533, Note_on_c, 0, 54, 60
2, 1427623, Note_off_c, 0, 54, 55
2, 1427626, Note_on_c, 0, 55, 60
2, 1427707, Note_off_c, 0, 55, 55
2, 1427711, Note_on_c, 0, 79, 84
2, 1427712, Note_on_c, 0, 75, 64
2, 1427713, Note_on_c, 0, 72, 72
2, 1427714, Note_on_c, 0, 48, 60
2, 1427716, Note_on_c, 0, 67, 76
2, 1427717, Control_c, 0, 64, 127
2, 1427808, Note_off_c, 0, 48, 55
2, 1427810, Note_on_c, 0, 51, 66
2, 1427909, Note_off_c, 0, 51, 56
2, 1427910, Note_on_c, 0, 55, 72
2, 1428009, Note_off_c, 0, 55, 58
2, 1428011, Note_on_c, 0, 60, 72
2, 1428112, Note_off_c, 0, 79, 61
2, 1428112, Note_off_c, 0, 75, 56
2, 1428113, Note_off_c, 0, 72, 58
2, 1428115, Note_off_c, 0, 67, 59
2, 1428116, Note_off_c, 0, 60, 58
2, 1428117, Note_on_c, 0, 56, 72
2, 1428208, Note_off_c, 0, 56, 58
2, 1428211, Note_on_c, 0, 55, 66
2, 1428309, Note_off_c, 0, 55, 56
2, 1428311, Note_on_c, 0, 54, 60
2, 1428344, Control_c, 0, 64, 0
2, 1428409, Note_off_c, 0, 54, 55
2, 1428413, Note_on_c, 0, 55, 60
2, 1428510, Note_off_c, 0, 55, 55
2, 1428512, Note_on_c, 0, 48, 60
2, 1428611, Note_off_c, 0, 48, 55
2, 1428612, Note_on_c, 0, 51, 66
2, 1428711, Note_off_c, 0, 51, 56
2, 1428713, Note_on_c, 0, 55, 72
2, 1428794, Note_off_c, 0, 55, 58
2, 1428796, Note_on_c, 0, 60, 72
2, 1428894, Note_off_c, 0, 60, 58
2, 1428897, Note_on_c, 0, 84, 96
2, 1428898, Note_on_c, 0, 79, 76
2, 1428899, Note_on_c, 0, 75, 80
2, 1428901, Note_on_c, 0, 72, 84
2, 1428902, Note_on_c, 0, 56, 72
2, 1428996, Note_off_c, 0, 56, 58
2, 1428997, Note_on_c, 0, 55, 66
2, 1429095, Note_off_c, 0, 79, 59
2, 1429096, Note_off_c, 0, 84, 63
2, 1429098, Note_off_c, 0, 72, 61
2, 1429099, Note_off_c, 0, 75, 60
2, 1429100, Note_off_c, 0, 55, 56
2, 1429102, Note_on_c, 0, 54, 60
2, 1429178, Note_off_c, 0, 54, 55
2, 1429180, Note_on_c, 0, 55, 60
2, 1429263, Control_c, 0, 64, 106
2, 1429280, Note_off_c, 0, 55, 55
2, 1429282, Note_on_c, 0, 74, 84
2, 1429283, Note_on_c, 0, 71, 64
2, 1429284, Note_on_c, 0, 47, 60
2, 1429286, Note_on_c, 0, 67, 72
2, 1429287, Note_on_c, 0, 62, 76
2, 1429378, Note_off_c, 0, 47, 55
2, 1429381, Note_on_c, 0, 50, 64
2, 1429479, Note_off_c, 0, 50, 56
2, 1429481, Note_on_c, 0, 55, 68
2, 1429579, Note_off_c, 0, 55, 57
2, 1429581, Note_on_c, 0, 59, 72
2, 1429680, Note_off_c, 0, 71, 56
2, 1429682, Note_off_c, 0, 74, 61
2, 1429683, Note_off_c, 0, 67, 58
2, 1429684, Note_off_c, 0, 62, 59
2, 1429685, Note_off_c, 0, 59, 58
2, 1429687, Note_on_c, 0, 56, 72
2, 1429782, Note_off_c, 0, 56, 58
2, 1429783, Note_on_c, 0, 55, 66
2, 1429881, Note_off_c, 0, 55, 56
2, 1429883, Note_on_c, 0, 54, 60
2, 1429921, Control_c, 0, 64, 0
2, 1429981, Note_off_c, 0, 54, 55
2, 1429984, Note_on_c, 0, 55, 60
2, 1430080, Note_off_c, 0, 55, 55
2, 1430083, Note_on_c, 0, 47, 60
2, 1430181, Note_off_c, 0, 47, 55
2, 1430183, Note_on_c, 0, 50, 66
2, 1430282, Note_off_c, 0, 50, 56
2, 1430283, Note_on_c, 0, 55, 72
2, 1430366, Note_off_c, 0, 55, 58
2, 1430367, Note_on_c, 0, 59, 72
2, 1430466, Note_off_c, 0, 59, 58
2, 1430468, Note_on_c, 0, 79, 95
2, 1430469, Note_on_c, 0, 74, 75
2, 1430471, Note_on_c, 0, 71, 83
2, 1430472, Note_on_c, 0, 67, 78
2, 1430473, Note_on_c, 0, 56, 72
2, 1430566, Note_off_c, 0, 56, 58
2, 1430569, Note_on_c, 0, 55, 66
2, 1430651, Note_off_c, 0, 74, 59
2, 1430652, Note_off_c, 0, 79, 63
2, 1430652, Note_off_c, 0, 67, 59
2, 1430654, Note_off_c, 0, 71, 60
2, 1430655, Note_off_c, 0, 55, 56
2, 1430656, Note_on_c, 0, 54, 60
2, 1430751, Note_off_c, 0, 54, 55
2, 1430752, Note_on_c, 0, 55, 60
2, 1430828, Control_c, 0, 64, 110
2, 1430851, Note_off_c, 0, 55, 55
2, 1430853, Note_on_c, 0, 86, 84
2, 1430854, Note_on_c, 0, 83, 64
2, 1430855, Note_on_c, 0, 79, 72
2, 1430856, Note_on_c, 0, 74, 80
2, 1430857, Note_on_c, 0, 47, 60
2, 1430951, Note_off_c, 0, 47, 55
2, 1430952, Note_on_c, 0, 50, 66
2, 1431049, Note_off_c, 0, 50, 56
2, 1431051, Note_on_c, 0, 55, 72
2, 1431151, Note_off_c, 0, 55, 58
2, 1431154, Note_on_c, 0, 59, 72
2, 1431250, Note_off_c, 0, 59, 58
2, 1431253, Note_on_c, 0, 56, 72
2, 1431351, Note_off_c, 0, 56, 58
2, 1431353, Note_on_c, 0, 55, 66
2, 1431452, Note_off_c, 0, 55, 56
2, 1431453, Note_on_c, 0, 54, 60
2, 1431547, Control_c, 0, 64, 0
2, 1431553, Note_off_c, 0, 54, 55
2, 1431554, Note_on_c, 0, 55, 60
2, 1431653, Note_off_c, 0, 83, 56
2, 1431655, Note_off_c, 0, 86, 61
2, 1431656, Note_off_c, 0, 79, 58
2, 1431657, Note_off_c, 0, 74, 60
2, 1431657, Note_off_c, 0, 55, 55
2, 1431660, Note_on_c, 0, 47, 60
2, 1431737, Note_off_c, 0, 47, 55
2, 1431739, Note_on_c, 0, 50, 66
2, 1431835, Note_off_c, 0, 50, 56
2, 1431837, Note_on_c, 0, 55, 72
2, 1431920, Note_off_c, 0, 55, 58
2, 1431921, Note_on_c, 0, 59, 72
2, 1432020, Note_off_c, 0, 59, 58
2, 1432022, Note_on_c, 0, 86, 96
2, 1432023, Note_on_c, 0, 83, 76
2, 1432024, Note_on_c, 0, 79, 84
2, 1432025, Note_on_c, 0, 74, 80
2, 1432026, Note_on_c, 0, 56, 72
2, 1432118, Note_off_c, 0, 56, 58
2, 1432121, Note_on_c, 0, 55, 69
2, 1432204, Note_off_c, 0, 86, 63
2, 1432207, Note_off_c, 0, 83, 59
2, 1432208, Note_off_c, 0, 74, 60
2, 1432209, Note_off_c, 0, 79, 61
2, 1432210, Note_off_c, 0, 55, 57
2, 1432212, Note_on_c, 0, 54, 66
2, 1432303, Note_off_c, 0, 54, 56
2, 1432304, Note_on_c, 0, 55, 63
2, 1432388, Note_off_c, 0, 55, 55
2, 1432389, Note_on_c, 0, 75, 60
2, 1432390, Note_on_c, 0, 48, 55
2, 1432394, Control_c, 0, 64, 99
2, 1432489, Note_off_c, 0, 75, 55
2, 1432491, Note_on_c, 0, 79, 60
2, 1432587, Note_off_c, 0, 79, 55
2, 1432590, Note_on_c, 0, 84, 66
2, 1432687, Note_off_c, 0, 84, 56
2, 1432689, Note_on_c, 0, 87, 72
2, 1432789, Note_off_c, 0, 87, 58
2, 1432792, Note_off_c, 0, 48, 53
2, 1432793, Note_on_c, 0, 63, 87
2, 1432794, Note_on_c, 0, 89, 96
2, 1432795, Note_on_c, 0, 60, 63
2, 1432888, Note_off_c, 0, 89, 63
2, 1432889, Note_on_c, 0, 87, 72
2, 1432989, Note_off_c, 0, 87, 58
2, 1432991, Note_on_c, 0, 86, 68
2, 1433086, Control_c, 0, 64, 0
2, 1433090, Note_off_c, 0, 86, 57
2, 1433091, Note_on_c, 0, 87, 64
2, 1433189, Note_off_c, 0, 87, 56
2, 1433190, Note_off_c, 0, 60, 55
2, 1433192, Note_off_c, 0, 63, 61
2, 1433194, Note_on_c, 0, 75, 60
2, 1433195, Note_on_c, 0, 46, 69
2, 1433301, Control_c, 0, 64, 95
2, 1433306, Note_off_c, 0, 75, 55
2, 1433308, Note_on_c, 0, 79, 60
2, 1433406, Note_off_c, 0, 79, 55
2, 1433409, Note_on_c, 0, 84, 66
2, 1433506, Note_off_c, 0, 84, 56
2, 1433508, Note_on_c, 0, 87, 72
2, 1433623, Note_off_c, 0, 87, 58
2, 1433625, Note_off_c, 0, 46, 57
2, 1433627, Note_on_c, 0, 89, 96
2, 1433628, Note_on_c, 0, 63, 76
2, 1433629, Note_on_c, 0, 58, 72
2, 1433630, Note_on_c, 0, 61, 84
2, 1433725, Note_off_c, 0, 89, 63
2, 1433725, Note_on_c, 0, 87, 72
2, 1433842, Note_off_c, 0, 87, 58
2, 1433843, Note_on_c, 0, 86, 68
2, 1433941, Note_off_c, 0, 86, 57
2, 1433943, Note_on_c, 0, 87, 64
2, 1434008, Control_c, 0, 64, 0
2, 1434042, Note_off_c, 0, 61, 61
2, 1434044, Note_off_c, 0, 87, 56
2, 1434045, Note_off_c, 0, 63, 59
2, 1434046, Note_off_c, 0, 58, 58
2, 1434047, Note_on_c, 0, 75, 60
2, 1434048, Note_on_c, 0, 44, 60
2, 1434143, Note_off_c, 0, 75, 55
2, 1434144, Note_on_c, 0, 79, 60
2, 1434221, Control_c, 0, 64, 95
2, 1434242, Note_off_c, 0, 79, 55
2, 1434244, Note_on_c, 0, 84, 66
2, 1434342, Note_off_c, 0, 84, 56
2, 1434345, Note_on_c, 0, 87, 72
2, 1434442, Note_off_c, 0, 44, 55
2, 1434444, Note_off_c, 0, 87, 58
2, 1434445, Note_on_c, 0, 63, 80
2, 1434447, Note_on_c, 0, 89, 90
2, 1434448, Note_on_c, 0, 60, 64
2, 1434449, Note_on_c, 0, 56, 60
2, 1434544, Note_off_c, 0, 89, 62
2, 1434544, Note_on_c, 0, 87, 72
2, 1434643, Note_off_c, 0, 87, 58
2, 1434645, Note_on_c, 0, 86, 68
2, 1434744, Note_off_c, 0, 86, 57
2, 1434746, Note_on_c, 0, 87, 64
2, 1434762, Control_c, 0, 64, 0
2, 1434842, Note_off_c, 0, 87, 56
2, 1434845, Note_off_c, 0, 63, 60
2, 1434846, Note_off_c, 0, 60, 56
2, 1434848, Note_off_c, 0, 56, 55
2, 1434850, Note_on_c, 0, 76, 60
2, 1434852, Note_on_c, 0, 43, 69
2, 1434959, Note_off_c, 0, 76, 55
2, 1434962, Note_on_c, 0, 82, 60
2, 1434977, Control_c, 0, 64, 95
2, 1435060, Note_off_c, 0, 82, 55
2, 1435063, Note_on_c, 0, 85, 66
2, 1435161, Note_off_c, 0, 85, 56
2, 1435164, Note_on_c, 0, 88, 72
2, 1435277, Note_off_c, 0, 88, 58
2, 1435280, Note_off_c, 0, 43, 57
2, 1435281, Note_on_c, 0, 89, 96
2, 1435282, Note_on_c, 0, 64, 80
2, 1435285, Note_on_c, 0, 61, 62
2, 1435286, Note_on_c, 0, 58, 72
2, 1435287, Note_on_c, 0, 55, 58
2, 1435377, Note_off_c, 0, 89, 63
2, 1435379, Note_on_c, 0, 88, 72
2, 1435480, Note_off_c, 0, 88, 58
2, 1435481, Note_on_c, 0, 86, 60
2, 1435597, Note_off_c, 0, 86, 55
2, 1435598, Note_on_c, 0, 88, 60
2, 1435640, Control_c, 0, 64, 0
2, 1435697, Note_off_c, 0, 64, 60
2, 1435698, Note_off_c, 0, 88, 55
2, 1435700, Note_off_c, 0, 58, 58
2, 1435701, Note_off_c, 0, 61, 55
2, 1435702, Note_off_c, 0, 55, 54
2, 1435703, Note_on_c, 0, 44, 60
2, 1435797, Note_on_c, 0, 89, 84
2, 1435855, Control_c, 0, 64, 95
2, 1435895, Note_off_c, 0, 89, 61
2, 1435898, Note_on_c, 0, 84, 84
2, 1435996, Note_off_c, 0, 84, 61
2, 1435999, Note_on_c, 0, 80, 82
2, 1436097, Note_off_c, 0, 44, 55
2, 1436099, Note_off_c, 0, 80, 60
2, 1436101, Note_on_c, 0, 65, 64
2, 1436102, Note_on_c, 0, 60, 46
2, 1436105, Note_on_c, 0, 56, 58
2, 1436196, Note_on_c, 0, 89, 78
2, 1436299, Note_off_c, 0, 89, 59
2, 1436300, Note_on_c, 0, 84, 76
2, 1436398, Note_off_c, 0, 84, 59
2, 1436400, Note_on_c, 0, 80, 74
2, 1436465, Control_c, 0, 64, 0
2, 1436496, Note_off_c, 0, 80, 59
2, 1436500, Note_off_c, 0, 60, 51
2, 1436501, Note_off_c, 0, 65, 56
2, 1436503, Note_off_c, 0, 56, 54
2, 1436504, Note_on_c, 0, 46, 69
2, 1436596, Note_on_c, 0, 86, 70
2, 1436678, Control_c, 0, 64, 95
2, 1436713, Note_off_c, 0, 86, 57
2, 1436717, Note_on_c, 0, 80, 68
2, 1436815, Note_off_c, 0, 80, 57
2, 1436818, Note_on_c, 0, 77, 66
2, 1436916, Note_off_c, 0, 46, 57
2, 1436917, Note_off_c, 0, 77, 56
2, 1436920, Note_on_c, 0, 68, 72
2, 1436921, Note_on_c, 0, 65, 52
2, 1436923, Note_on_c, 0, 58, 60
2, 1437015, Note_on_c, 0, 86, 62
2, 1437118, Note_off_c, 0, 86, 55
2, 1437119, Note_on_c, 0, 80, 60
2, 1437217, Note_off_c, 0, 80, 55
2, 1437219, Note_on_c, 0, 77, 60
2, 1437313, Control_c, 0, 64, 0
2, 1437334, Note_off_c, 0, 68, 58
2, 1437335, Note_off_c, 0, 77, 55
2, 1437336, Note_off_c, 0, 65, 53
2, 1437338, Note_off_c, 0, 58, 55
2, 1437339, Note_on_c, 0, 51, 72
2, 1437433, Note_on_c, 0, 87, 84
2, 1437527, Control_c, 0, 64, 95
2, 1437533, Note_off_c, 0, 87, 61
2, 1437536, Note_on_c, 0, 82, 82
2, 1437634, Note_off_c, 0, 82, 60
2, 1437636, Note_on_c, 0, 79, 80
2, 1437736, Note_off_c, 0, 51, 58
2, 1437737, Note_off_c, 0, 79, 60
2, 1437739, Note_on_c, 0, 75, 78
2, 1437835, Note_off_c, 0, 75, 59
2, 1437837, Note_on_c, 0, 70, 80
2, 1437937, Note_off_c, 0, 70, 60
2, 1437938, Note_on_c, 0, 67, 75
2, 1438034, Note_off_c, 0, 67, 59
2, 1438037, Note_on_c, 0, 63, 72
2, 1438134, Note_off_c, 0, 63, 58
2, 1438138, Note_on_c, 0, 51, 70
2, 1438147, Note_on_c, 0, 39, 62
2, 1438235, Note_on_c, 0, 58, 73
2, 1438337, Note_off_c, 0, 58, 58
2, 1438339, Note_on_c, 0, 67, 75
2, 1438438, Note_off_c, 0, 67, 59
2, 1438438, Note_on_c, 0, 70, 76
2, 1438468, Note_off_c, 0, 39, 55
2, 1438553, Note_off_c, 0, 70, 59
2, 1438555, Note_off_c, 0, 51, 57
2, 1438556, Note_on_c, 0, 49, 60
2, 1438568, Note_on_c, 0, 37, 52
2, 1438654, Note_on_c, 0, 58, 79
2, 1438756, Note_off_c, 0, 58, 60
2, 1438757, Note_on_c, 0, 65, 81
2, 1438853, Note_off_c, 0, 65, 60
2, 1438856, Note_on_c, 0, 70, 82
2, 1438886, Control_c, 0, 64, 0
2, 1438930, Note_off_c, 0, 37, 53
2, 1438971, Note_off_c, 0, 70, 60
2, 1438973, Note_off_c, 0, 49, 55
2, 1438975, Note_on_c, 0, 64, 84
2, 1438977, Note_on_c, 0, 58, 64
2, 1438978, Note_on_c, 0, 55, 78
2, 1438979, Note_on_c, 0, 36, 60
2, 1439071, Note_off_c, 0, 36, 55
2, 1439074, Note_on_c, 0, 40, 66
2, 1439171, Note_off_c, 0, 40, 56
2, 1439172, Note_on_c, 0, 43, 72
2, 1439273, Note_off_c, 0, 43, 58
2, 1439275, Note_on_c, 0, 48, 72
2, 1439374, Note_off_c, 0, 58, 56
2, 1439374, Note_off_c, 0, 64, 61
2, 1439376, Note_off_c, 0, 55, 59
2, 1439377, Note_off_c, 0, 48, 58
2, 1439378, Note_on_c, 0, 49, 72
2, 1439473, Note_off_c, 0, 49, 58
2, 1439475, Note_on_c, 0, 48, 66
2, 1439574, Note_off_c, 0, 48, 56
2, 1439574, Note_on_c, 0, 47, 60
2, 1439672, Note_off_c, 0, 47, 55
2, 1439675, Note_on_c, 0, 48, 60
2, 1439772, Note_off_c, 0, 48, 55
2, 1439776, Note_on_c, 0, 36, 60
2, 1439857, Note_off_c, 0, 36, 55
2, 1439859, Note_on_c, 0, 40, 66
2, 1439958, Note_off_c, 0, 40, 56
2, 1439959, Note_on_c, 0, 43, 72
2, 1440058, Note_off_c, 0, 43, 58
2, 1440060, Note_on_c, 0, 48, 72
2, 1440140, Note_off_c, 0, 48, 58
2, 1440143, Note_on_c, 0, 70, 92
2, 1440144, Note_on_c, 0, 67, 72
2, 1440145, Note_on_c, 0, 64, 84
2, 1440147, Note_on_c, 0, 58, 79
2, 1440148, Note_on_c, 0, 49, 66
2, 1440241, Note_off_c, 0, 49, 56
2, 1440244, Note_on_c, 0, 48, 66
2, 1440341, Note_off_c, 0, 67, 58
2, 1440343, Note_off_c, 0, 70, 62
2, 1440344, Note_off_c, 0, 58, 60
2, 1440344, Note_off_c, 0, 64, 61
2, 1440347, Note_off_c, 0, 48, 56
2, 1440348, Note_on_c, 0, 47, 60
2, 1440426, Note_off_c, 0, 47, 55
2, 1440426, Note_on_c, 0, 48, 60
2, 1440500, Control_c, 0, 64, 115
2, 1440525, Note_off_c, 0, 48, 55
2, 1440527, Note_on_c, 0, 76, 84
2, 1440528, Note_on_c, 0, 70, 64
2, 1440529, Note_on_c, 0, 67, 72
2, 1440530, Note_on_c, 0, 64, 80
2, 1440532, Note_on_c, 0, 36, 60
2, 1440627, Note_off_c, 0, 36, 55
2, 1440627, Note_on_c, 0, 40, 66
2, 1440725, Note_off_c, 0, 40, 56
2, 1440728, Note_on_c, 0, 43, 72
2, 1440825, Note_off_c, 0, 43, 58
2, 1440827, Note_on_c, 0, 48, 72
2, 1440926, Note_off_c, 0, 70, 56
2, 1440927, Note_off_c, 0, 76, 61
2, 1440928, Note_off_c, 0, 64, 60
2, 1440930, Note_off_c, 0, 67, 58
2, 1440932, Note_off_c, 0, 48, 58
2, 1440933, Note_on_c, 0, 49, 72
2, 1441028, Note_off_c, 0, 49, 58
2, 1441029, Note_on_c, 0, 48, 66
2, 1441129, Note_off_c, 0, 48, 56
2, 1441129, Note_on_c, 0, 47, 60
2, 1441226, Note_off_c, 0, 47, 55
2, 1441229, Note_on_c, 0, 48, 60
2, 1441257, Control_c, 0, 64, 0
2, 1441328, Note_off_c, 0, 48, 55
2, 1441329, Note_on_c, 0, 36, 60
2, 1441427, Note_off_c, 0, 36, 55
2, 1441430, Note_on_c, 0, 40, 66
2, 1441511, Note_off_c, 0, 40, 56
2, 1441512, Note_on_c, 0, 43, 72
2, 1441613, Note_off_c, 0, 43, 58
2, 1441615, Note_on_c, 0, 48, 72
2, 1441695, Note_off_c, 0, 48, 58
2, 1441697, Note_on_c, 0, 82, 94
2, 1441698, Note_on_c, 0, 79, 74
2, 1441700, Note_on_c, 0, 49, 72
2, 1441701, Note_on_c, 0, 76, 82
2, 1441702, Note_on_c, 0, 70, 60
2, 1441796, Note_off_c, 0, 49, 58
2, 1441797, Note_on_c, 0, 48, 66
2, 1441895, Note_off_c, 0, 79, 59
2, 1441897, Note_off_c, 0, 82, 63
2, 1441899, Note_off_c, 0, 76, 60
2, 1441900, Note_off_c, 0, 70, 55
2, 1441901, Note_off_c, 0, 48, 56
2, 1441902, Note_on_c, 0, 47, 60
2, 1441978, Note_off_c, 0, 47, 55
2, 1441979, Note_on_c, 0, 48, 60
2, 1442050, Control_c, 0, 64, 118
2, 1442081, Note_off_c, 0, 48, 55
2, 1442083, Note_on_c, 0, 80, 84
2, 1442085, Note_on_c, 0, 77, 64
2, 1442086, Note_on_c, 0, 72, 72
2, 1442087, Note_on_c, 0, 68, 60
2, 1442088, Note_on_c, 0, 41, 60
2, 1442180, Note_off_c, 0, 41, 55
2, 1442181, Note_on_c, 0, 44, 66
2, 1442278, Note_off_c, 0, 44, 56
2, 1442281, Note_on_c, 0, 48, 72
2, 1442380, Note_off_c, 0, 48, 58
2, 1442382, Note_on_c, 0, 53, 72
2, 1442481, Note_off_c, 0, 77, 56
2, 1442482, Note_off_c, 0, 80, 61
2, 1442483, Note_off_c, 0, 68, 55
2, 1442485, Note_off_c, 0, 72, 58
2, 1442486, Note_off_c, 0, 53, 58
2, 1442487, Note_on_c, 0, 55, 72
2, 1442581, Note_off_c, 0, 55, 58
2, 1442583, Note_on_c, 0, 53, 66
2, 1442681, Note_off_c, 0, 53, 56
2, 1442682, Note_on_c, 0, 52, 60
2, 1442783, Note_off_c, 0, 52, 55
2, 1442785, Note_on_c, 0, 53, 60
2, 1442881, Note_off_c, 0, 53, 55
2, 1442883, Note_on_c, 0, 41, 60
2, 1442908, Control_c, 0, 64, 0
2, 1442980, Note_off_c, 0, 41, 55
2, 1442983, Note_on_c, 0, 44, 66
2, 1443064, Note_off_c, 0, 44, 56
2, 1443066, Note_on_c, 0, 48, 72
2, 1443165, Note_off_c, 0, 48, 58
2, 1443167, Note_on_c, 0, 53, 72
2, 1443266, Note_off_c, 0, 53, 58
2, 1443267, Note_on_c, 0, 84, 96
2, 1443269, Note_on_c, 0, 80, 76
2, 1443270, Note_on_c, 0, 77, 85
2, 1443271, Note_on_c, 0, 72, 80
2, 1443273, Note_on_c, 0, 55, 72
2, 1443368, Note_off_c, 0, 55, 58
2, 1443369, Note_on_c, 0, 53, 66
2, 1443449, Note_off_c, 0, 84, 63
2, 1443452, Note_off_c, 0, 80, 59
2, 1443454, Note_off_c, 0, 72, 60
2, 1443455, Note_off_c, 0, 77, 61
2, 1443456, Note_off_c, 0, 53, 56
2, 1443457, Note_on_c, 0, 52, 60
2, 1443551, Note_off_c, 0, 52, 55
2, 1443551, Note_on_c, 0, 53, 60
2, 1443626, Control_c, 0, 64, 99
2, 1443650, Note_off_c, 0, 53, 55
2, 1443652, Note_on_c, 0, 84, 84
2, 1443654, Note_on_c, 0, 81, 64
2, 1443655, Note_on_c, 0, 75, 75
2, 1443657, Note_on_c, 0, 42, 60
2, 1443658, Note_on_c, 0, 72, 80
2, 1443751, Note_off_c, 0, 42, 55
2, 1443753, Note_on_c, 0, 45, 66
2, 1443851, Note_off_c, 0, 45, 56
2, 1443852, Note_on_c, 0, 48, 72
2, 1443950, Note_off_c, 0, 48, 58
2, 1443953, Note_on_c, 0, 54, 72
2, 1444050, Note_off_c, 0, 84, 61
2, 1444052, Note_off_c, 0, 81, 56
2, 1444054, Note_off_c, 0, 75, 59
2, 1444055, Note_off_c, 0, 72, 60
2, 1444057, Note_off_c, 0, 54, 58
2, 1444058, Note_on_c, 0, 55, 72
2, 1444152, Note_off_c, 0, 55, 58
2, 1444154, Note_on_c, 0, 54, 66
2, 1444252, Note_off_c, 0, 54, 56
2, 1444254, Note_on_c, 0, 55, 60
2, 1444352, Note_off_c, 0, 55, 55
2, 1444354, Note_on_c, 0, 54, 60
2, 1444406, Control_c, 0, 64, 0
2, 1444453, Note_off_c, 0, 54, 55
2, 1444454, Note_on_c, 0, 42, 60
2, 1444553, Note_off_c, 0, 42, 55
2, 1444554, Note_on_c, 0, 45, 66
2, 1444634, Note_off_c, 0, 45, 56
2, 1444638, Note_on_c, 0, 48, 72
2, 1444735, Note_off_c, 0, 48, 58
2, 1444737, Note_on_c, 0, 54, 72
2, 1444838, Note_off_c, 0, 54, 58
2, 1444839, Note_on_c, 0, 72, 90
2, 1444840, Note_on_c, 0, 69, 70
2, 1444842, Note_on_c, 0, 63, 82
2, 1444843, Note_on_c, 0, 55, 72
2, 1444845, Note_on_c, 0, 60, 75
2, 1444937, Note_off_c, 0, 55, 58
2, 1444938, Note_on_c, 0, 54, 66
2, 1445021, Note_off_c, 0, 72, 62
2, 1445022, Note_off_c, 0, 69, 57
2, 1445023, Note_off_c, 0, 63, 60
2, 1445025, Note_off_c, 0, 60, 59
2, 1445026, Note_off_c, 0, 54, 56
2, 1445027, Note_on_c, 0, 55, 60
2, 1445121, Note_off_c, 0, 55, 55
2, 1445123, Note_on_c, 0, 54, 60
2, 1445220, Note_off_c, 0, 54, 55
2, 1445223, Note_on_c, 0, 59, 60
2, 1445224, Note_on_c, 0, 43, 60
2, 1445262, Control_c, 0, 64, 96
2, 1445320, Note_off_c, 0, 59, 55
2, 1445322, Note_on_c, 0, 62, 60
2, 1445423, Note_off_c, 0, 62, 55
2, 1445424, Note_on_c, 0, 67, 66
2, 1445522, Note_off_c, 0, 67, 56
2, 1445524, Note_on_c, 0, 71, 72
2, 1445622, Note_off_c, 0, 43, 55
2, 1445624, Note_off_c, 0, 71, 58
2, 1445625, Note_on_c, 0, 72, 72
2, 1445626, Note_on_c, 0, 55, 89
2, 1445721, Note_off_c, 0, 72, 58
2, 1445724, Note_on_c, 0, 71, 66
2, 1445822, Note_off_c, 0, 71, 56
2, 1445825, Note_on_c, 0, 70, 60
2, 1445922, Note_off_c, 0, 70, 55
2, 1445924, Note_on_c, 0, 71, 60
2, 1446022, Note_off_c, 0, 71, 55
2, 1446024, Note_on_c, 0, 65, 60
2, 1446037, Control_c, 0, 64, 0
2, 1446125, Note_off_c, 0, 65, 55
2, 1446126, Note_on_c, 0, 71, 66
2, 1446224, Note_off_c, 0, 71, 56
2, 1446226, Note_on_c, 0, 74, 72
2, 1446256, Control_c, 0, 64, 98
2, 1446324, Note_off_c, 0, 74, 58
2, 1446325, Note_on_c, 0, 77, 72
2, 1446406, Note_off_c, 0, 77, 58
2, 1446410, Note_on_c, 0, 79, 72
2, 1446411, Note_on_c, 0, 62, 75
2, 1446507, Note_off_c, 0, 79, 58
2, 1446508, Note_on_c, 0, 77, 66
2, 1446607, Note_off_c, 0, 77, 56
2, 1446609, Note_on_c, 0, 76, 60
2, 1446710, Note_off_c, 0, 76, 55
2, 1446711, Note_on_c, 0, 77, 60
2, 1446809, Note_off_c, 0, 77, 55
2, 1446811, Note_on_c, 0, 63, 60
2, 1446813, Note_on_c, 0, 60, 80
2, 1446837, Control_c, 0, 64, 0
2, 1446892, Note_off_c, 0, 62, 59
2, 1446908, Note_off_c, 0, 63, 55
2, 1446910, Note_on_c, 0, 67, 64
2, 1446991, Note_off_c, 0, 67, 56
2, 1446995, Note_on_c, 0, 72, 68
2, 1447057, Control_c, 0, 64, 98
2, 1447091, Note_off_c, 0, 72, 57
2, 1447092, Note_on_c, 0, 75, 72
2, 1447192, Note_off_c, 0, 75, 58
2, 1447195, Note_on_c, 0, 67, 84
2, 1447197, Note_on_c, 0, 77, 72
2, 1447242, Note_off_c, 0, 60, 60
2, 1447311, Note_off_c, 0, 77, 58
2, 1447312, Note_on_c, 0, 75, 66
2, 1447412, Note_off_c, 0, 75, 56
2, 1447413, Note_on_c, 0, 74, 60
2, 1447511, Note_off_c, 0, 74, 55
2, 1447513, Note_on_c, 0, 75, 60
2, 1447609, Note_off_c, 0, 75, 55
2, 1447612, Note_on_c, 0, 72, 60
2, 1447615, Note_on_c, 0, 63, 82
2, 1447641, Note_off_c, 0, 67, 61
2, 1447656, Control_c, 0, 64, 0
2, 1447710, Note_off_c, 0, 72, 55
2, 1447713, Note_on_c, 0, 75, 66
2, 1447827, Note_off_c, 0, 75, 56
2, 1447830, Note_on_c, 0, 79, 72
2, 1447875, Control_c, 0, 64, 98
2, 1447928, Note_off_c, 0, 79, 58
2, 1447930, Note_on_c, 0, 84, 72
2, 1448045, Note_off_c, 0, 84, 58
2, 1448048, Note_on_c, 0, 60, 77
2, 1448049, Note_on_c, 0, 86, 72
2, 1448115, Note_off_c, 0, 63, 60
2, 1448145, Note_off_c, 0, 86, 58
2, 1448146, Note_on_c, 0, 84, 66
2, 1448262, Note_off_c, 0, 84, 56
2, 1448263, Note_on_c, 0, 83, 60
2, 1448362, Note_off_c, 0, 83, 55
2, 1448365, Note_on_c, 0, 84, 60
2, 1448425, Note_off_c, 0, 55, 62
2, 1448427, Note_off_c, 0, 60, 59
2, 1448460, Control_c, 0, 64, 0
2, 1448463, Note_off_c, 0, 84, 55
2, 1448466, Note_on_c, 0, 43, 68
2, 1448468, Note_on_c, 0, 71, 60
2, 1448563, Note_off_c, 0, 71, 55
2, 1448566, Note_on_c, 0, 74, 66
2, 1448662, Note_off_c, 0, 74, 56
2, 1448665, Note_on_c, 0, 79, 72
2, 1448680, Control_c, 0, 64, 98
2, 1448764, Note_off_c, 0, 79, 58
2, 1448765, Note_on_c, 0, 83, 72
2, 1448864, Note_off_c, 0, 83, 58
2, 1448866, Note_on_c, 0, 84, 72
2, 1448867, Note_on_c, 0, 55, 93
2, 1448965, Note_off_c, 0, 84, 58
2, 1448965, Note_on_c, 0, 83, 66
2, 1449064, Note_off_c, 0, 83, 56
2, 1449066, Note_on_c, 0, 82, 60
2, 1449167, Note_off_c, 0, 82, 55
2, 1449168, Note_on_c, 0, 83, 60
2, 1449206, Control_c, 0, 64, 0
2, 1449264, Note_off_c, 0, 83, 55
2, 1449267, Note_on_c, 0, 77, 60
2, 1449364, Note_off_c, 0, 77, 55
2, 1449367, Note_on_c, 0, 83, 66
2, 1449426, Control_c, 0, 64, 98
2, 1449464, Note_off_c, 0, 83, 56
2, 1449465, Note_on_c, 0, 86, 72
2, 1449548, Note_off_c, 0, 86, 58
2, 1449549, Note_on_c, 0, 89, 72
2, 1449649, Note_off_c, 0, 89, 58
2, 1449651, Note_on_c, 0, 47, 75
2, 1449652, Note_on_c, 0, 88, 72
2, 1449748, Note_off_c, 0, 88, 58
2, 1449751, Note_on_c, 0, 89, 66
2, 1449850, Note_off_c, 0, 89, 56
2, 1449852, Note_on_c, 0, 88, 60
2, 1449933, Note_off_c, 0, 88, 55
2, 1449934, Note_on_c, 0, 89, 60
2, 1449980, Control_c, 0, 64, 0
2, 1450033, Note_off_c, 0, 47, 59
2, 1450035, Note_off_c, 0, 89, 55
2, 1450037, Note_on_c, 0, 48, 77
2, 1450038, Note_on_c, 0, 75, 60
2, 1450134, Note_off_c, 0, 75, 55
2, 1450135, Note_on_c, 0, 79, 66
2, 1450202, Control_c, 0, 64, 98
2, 1450215, Note_off_c, 0, 79, 56
2, 1450219, Note_on_c, 0, 84, 72
2, 1450318, Note_off_c, 0, 84, 58
2, 1450320, Note_on_c, 0, 87, 78
2, 1450357, Note_off_c, 0, 55, 63
2, 1450400, Note_off_c, 0, 87, 59
2, 1450403, Note_off_c, 0, 48, 59
2, 1450418, Note_on_c, 0, 89, 84
2, 1450420, Note_on_c, 0, 55, 80
2, 1450518, Note_off_c, 0, 89, 61
2, 1450519, Note_on_c, 0, 87, 84
2, 1450619, Note_off_c, 0, 87, 61
2, 1450621, Note_on_c, 0, 86, 80
2, 1450720, Note_off_c, 0, 86, 60
2, 1450720, Note_on_c, 0, 87, 76
2, 1450819, Note_off_c, 0, 87, 59
2, 1450821, Note_on_c, 0, 51, 77
2, 1450822, Note_on_c, 0, 72, 72
2, 1450830, Control_c, 0, 64, 0
2, 1450934, Note_off_c, 0, 72, 58
2, 1450937, Note_on_c, 0, 75, 72
2, 1451033, Note_off_c, 0, 75, 58
2, 1451038, Note_on_c, 0, 79, 76
2, 1451050, Control_c, 0, 64, 98
2, 1451136, Note_off_c, 0, 79, 59
2, 1451139, Note_on_c, 0, 84, 80
2, 1451254, Note_off_c, 0, 84, 60
2, 1451256, Note_off_c, 0, 51, 59
2, 1451257, Note_on_c, 0, 48, 65
2, 1451258, Note_on_c, 0, 86, 84
2, 1451353, Note_off_c, 0, 86, 61
2, 1451355, Note_on_c, 0, 84, 84
2, 1451471, Note_off_c, 0, 84, 61
2, 1451473, Note_on_c, 0, 83, 72
2, 1451571, Note_off_c, 0, 48, 56
2, 1451573, Note_off_c, 0, 83, 58
2, 1451574, Note_on_c, 0, 84, 60
2, 1451586, Note_off_c, 0, 43, 57
2, 1451654, Note_off_c, 0, 84, 55
2, 1451687, Note_on_c, 0, 43, 56
2, 1451688, Note_on_c, 0, 83, 60
2, 1451731, Control_c, 0, 64, 0
2, 1451789, Note_off_c, 0, 83, 55
2, 1451791, Note_on_c, 0, 86, 84
2, 1451890, Note_off_c, 0, 86, 61
2, 1451890, Note_on_c, 0, 84, 84
2, 1451952, Control_c, 0, 64, 98
2, 1452006, Note_off_c, 0, 84, 61
2, 1452007, Note_on_c, 0, 83, 82
2, 1452103, Note_off_c, 0, 83, 60
2, 1452108, Note_off_c, 0, 55, 60
2, 1452109, Note_off_c, 0, 43, 54
2, 1452110, Note_on_c, 0, 80, 80
2, 1452221, Note_off_c, 0, 80, 60
2, 1452224, Note_on_c, 0, 79, 78
2, 1452320, Note_off_c, 0, 79, 59
2, 1452325, Note_on_c, 0, 77, 76
2, 1452424, Note_off_c, 0, 77, 59
2, 1452425, Note_on_c, 0, 75, 74
2, 1452523, Note_off_c, 0, 75, 59
2, 1452525, Note_on_c, 0, 74, 72
2, 1452641, Note_off_c, 0, 74, 58
2, 1452643, Note_on_c, 0, 72, 70
2, 1452742, Note_off_c, 0, 72, 57
2, 1452742, Note_on_c, 0, 71, 68
2, 1452842, Note_off_c, 0, 71, 57
2, 1452844, Note_on_c, 0, 68, 66
2, 1452941, Note_off_c, 0, 68, 56
2, 1452942, Note_on_c, 0, 67, 64
2, 1453039, Note_off_c, 0, 67, 56
2, 1453043, Note_on_c, 0, 65, 62
2, 1453140, Note_off_c, 0, 65, 55
2, 1453144, Note_on_c, 0, 63, 60
2, 1453156, Control_c, 0, 64, 0
2, 1453242, Note_off_c, 0, 63, 55
2, 1453243, Note_on_c, 0, 62, 60
2, 1453342, Note_off_c, 0, 62, 55
2, 1453344, Note_on_c, 0, 60, 84
2, 1453346, Note_on_c, 0, 55, 64
2, 1453347, Note_on_c, 0, 51, 72
2, 1453349, Note_on_c, 0, 36, 60
2, 1453374, Control_c, 0, 64, 98
2, 1453443, Note_off_c, 0, 36, 55
2, 1453443, Note_on_c, 0, 39, 66
2, 1453544, Note_off_c, 0, 39, 56
2, 1453546, Note_on_c, 0, 43, 72
2, 1453642, Note_off_c, 0, 43, 58
2, 1453643, Note_on_c, 0, 48, 72
2, 1453742, Note_off_c, 0, 48, 58
2, 1453745, Note_on_c, 0, 50, 72
2, 1453841, Note_off_c, 0, 50, 58
2, 1453844, Note_on_c, 0, 48, 66
2, 1453944, Note_off_c, 0, 48, 56
2, 1453945, Note_on_c, 0, 47, 60
2, 1454044, Note_off_c, 0, 47, 55
2, 1454046, Note_on_c, 0, 48, 60
2, 1454130, Control_c, 0, 64, 0
2, 1454145, Note_off_c, 0, 55, 56
2, 1454146, Note_off_c, 0, 60, 61
2, 1454147, Note_off_c, 0, 51, 58
2, 1454149, Note_off_c, 0, 48, 55
2, 1454150, Note_on_c, 0, 36, 60
2, 1454244, Note_off_c, 0, 36, 55
2, 1454246, Note_on_c, 0, 39, 66
2, 1454327, Note_off_c, 0, 39, 56
2, 1454330, Note_on_c, 0, 43, 72
2, 1454426, Note_off_c, 0, 43, 58
2, 1454429, Note_on_c, 0, 48, 72
2, 1454529, Note_off_c, 0, 48, 58
2, 1454530, Note_on_c, 0, 75, 96
2, 1454532, Note_on_c, 0, 72, 84
2, 1454533, Note_on_c, 0, 67, 80
2, 1454534, Note_on_c, 0, 50, 72
2, 1454535, Note_on_c, 0, 63, 90
2, 1454612, Note_off_c, 0, 50, 58
2, 1454613, Note_on_c, 0, 48, 66
2, 1454712, Note_off_c, 0, 75, 63
2, 1454715, Note_off_c, 0, 72, 61
2, 1454716, Note_off_c, 0, 67, 60
2, 1454717, Note_off_c, 0, 63, 62
2, 1454718, Note_off_c, 0, 48, 56
2, 1454719, Note_on_c, 0, 47, 60
2, 1454795, Note_off_c, 0, 47, 55
2, 1454798, Note_on_c, 0, 48, 60
2, 1454894, Note_off_c, 0, 48, 55
2, 1454897, Note_on_c, 0, 79, 84
2, 1454899, Note_on_c, 0, 75, 70
2, 1454900, Note_on_c, 0, 72, 64
2, 1454902, Note_on_c, 0, 36, 60
2, 1454904, Note_on_c, 0, 67, 80
2, 1454906, Control_c, 0, 64, 98
2, 1454997, Note_off_c, 0, 36, 55
2, 1454998, Note_on_c, 0, 39, 66
2, 1455097, Note_off_c, 0, 39, 56
2, 1455099, Note_on_c, 0, 43, 72
2, 1455199, Note_off_c, 0, 43, 58
2, 1455199, Note_on_c, 0, 48, 72
2, 1455298, Note_off_c, 0, 79, 61
2, 1455301, Note_off_c, 0, 75, 57
2, 1455301, Note_off_c, 0, 72, 56
2, 1455303, Note_off_c, 0, 67, 60
2, 1455304, Note_off_c, 0, 48, 58
2, 1455305, Note_on_c, 0, 50, 72
2, 1455395, Note_off_c, 0, 50, 58
2, 1455398, Note_on_c, 0, 48, 66
2, 1455496, Note_off_c, 0, 48, 56
2, 1455498, Note_on_c, 0, 47, 60
2, 1455597, Note_off_c, 0, 47, 55
2, 1455598, Note_on_c, 0, 48, 60
2, 1455635, Control_c, 0, 64, 0
2, 1455699, Note_off_c, 0, 48, 55
2, 1455701, Note_on_c, 0, 36, 60
2, 1455799, Note_off_c, 0, 36, 55
2, 1455801, Note_on_c, 0, 39, 66
2, 1455882, Note_off_c, 0, 39, 56
2, 1455884, Note_on_c, 0, 43, 72
2, 1455982, Note_off_c, 0, 43, 58
2, 1455983, Note_on_c, 0, 48, 72
2, 1456081, Note_off_c, 0, 48, 58
2, 1456083, Note_on_c, 0, 84, 98
2, 1456085, Note_on_c, 0, 79, 80
2, 1456087, Note_on_c, 0, 75, 75
2, 1456088, Note_on_c, 0, 50, 72
2, 1456089, Note_on_c, 0, 72, 80
2, 1456168, Note_off_c, 0, 50, 58
2, 1456169, Note_on_c, 0, 48, 66
2, 1456267, Note_off_c, 0, 84, 64
2, 1456268, Note_off_c, 0, 79, 60
2, 1456270, Note_off_c, 0, 75, 59
2, 1456272, Note_off_c, 0, 72, 60
2, 1456273, Note_off_c, 0, 48, 56
2, 1456274, Note_on_c, 0, 47, 60
2, 1456365, Note_off_c, 0, 47, 55
2, 1456367, Note_on_c, 0, 48, 60
2, 1456449, Note_off_c, 0, 48, 55
2, 1456450, Note_on_c, 0, 60, 60
2, 1456451, Note_on_c, 0, 46, 84
2, 1456461, Note_on_c, 0, 34, 76
2, 1456465, Control_c, 0, 64, 127
2, 1456550, Note_off_c, 0, 60, 55
2, 1456552, Note_on_c, 0, 64, 60
2, 1456650, Note_off_c, 0, 64, 55
2, 1456651, Note_on_c, 0, 67, 72
2, 1456751, Note_off_c, 0, 67, 58
2, 1456753, Note_on_c, 0, 72, 72
2, 1456852, Note_off_c, 0, 72, 58
2, 1456854, Note_on_c, 0, 73, 72
2, 1456952, Note_off_c, 0, 73, 58
2, 1456953, Note_on_c, 0, 72, 66
2, 1457052, Note_off_c, 0, 72, 56
2, 1457055, Note_on_c, 0, 71, 60
2, 1457059, Note_off_c, 0, 34, 59
2, 1457150, Note_off_c, 0, 71, 55
2, 1457152, Note_on_c, 0, 72, 60
2, 1457181, Control_c, 0, 64, 0
2, 1457251, Note_off_c, 0, 46, 61
2, 1457252, Note_off_c, 0, 72, 55
2, 1457255, Note_on_c, 0, 64, 60
2, 1457351, Note_off_c, 0, 64, 55
2, 1457354, Note_on_c, 0, 67, 66
2, 1457435, Note_off_c, 0, 67, 56
2, 1457438, Note_on_c, 0, 72, 72
2, 1457536, Note_off_c, 0, 72, 58
2, 1457537, Note_on_c, 0, 76, 72
2, 1457635, Note_on_c, 0, 55, 84
2, 1457637, Note_off_c, 0, 76, 58
2, 1457640, Note_on_c, 0, 77, 96
2, 1457643, Note_on_c, 0, 58, 90
2, 1457644, Note_on_c, 0, 46, 80
2, 1457646, Note_on_c, 0, 52, 74
2, 1457720, Note_off_c, 0, 77, 63
2, 1457721, Note_on_c, 0, 76, 69
2, 1457820, Note_off_c, 0, 76, 57
2, 1457821, Note_on_c, 0, 75, 66
2, 1457851, Note_off_c, 0, 58, 62
2, 1457877, Note_off_c, 0, 46, 60
2, 1457880, Note_off_c, 0, 55, 61
2, 1457888, Note_off_c, 0, 52, 59
2, 1457903, Note_off_c, 0, 75, 56
2, 1457907, Note_on_c, 0, 76, 63
2, 1457987, Note_off_c, 0, 76, 55
2, 1458003, Note_on_c, 0, 67, 60
2, 1458007, Note_on_c, 0, 46, 84
2, 1458015, Note_on_c, 0, 34, 76
2, 1458016, Control_c, 0, 64, 127
2, 1458104, Note_off_c, 0, 67, 55
2, 1458107, Note_on_c, 0, 72, 60
2, 1458204, Note_off_c, 0, 72, 55
2, 1458206, Note_on_c, 0, 76, 66
2, 1458304, Note_off_c, 0, 76, 56
2, 1458306, Note_on_c, 0, 79, 72
2, 1458405, Note_off_c, 0, 79, 58
2, 1458406, Note_on_c, 0, 80, 72
2, 1458504, Note_off_c, 0, 80, 58
2, 1458508, Note_on_c, 0, 79, 72
2, 1458527, Note_off_c, 0, 46, 61
2, 1458604, Note_off_c, 0, 79, 58
2, 1458608, Note_on_c, 0, 78, 60
2, 1458637, Note_off_c, 0, 34, 59
2, 1458706, Note_off_c, 0, 78, 55
2, 1458707, Note_on_c, 0, 79, 60
2, 1458731, Control_c, 0, 64, 0
2, 1458807, Note_off_c, 0, 79, 55
2, 1458810, Note_on_c, 0, 72, 60
2, 1458906, Note_off_c, 0, 72, 55
2, 1458908, Note_on_c, 0, 76, 63
2, 1459006, Note_off_c, 0, 76, 55
2, 1459008, Note_on_c, 0, 79, 66
2, 1459089, Note_off_c, 0, 79, 56
2, 1459093, Note_on_c, 0, 84, 69
2, 1459162, Control_c, 0, 64, 98
2, 1459189, Note_off_c, 0, 84, 57
2, 1459191, Note_on_c, 0, 55, 84
2, 1459192, Note_on_c, 0, 52, 72
2, 1459193, Note_on_c, 0, 85, 72
2, 1459197, Note_on_c, 0, 58, 96
2, 1459200, Note_on_c, 0, 46, 90
2, 1459290, Note_off_c, 0, 85, 58
2, 1459291, Note_on_c, 0, 84, 72
2, 1459392, Note_off_c, 0, 84, 58
2, 1459394, Note_on_c, 0, 83, 68
2, 1459414, Note_off_c, 0, 55, 61
2, 1459444, Note_off_c, 0, 52, 58
2, 1459450, Note_off_c, 0, 58, 63
2, 1459475, Note_off_c, 0, 83, 57
2, 1459476, Note_on_c, 0, 84, 64
2, 1459482, Note_off_c, 0, 46, 62
2, 1459521, Control_c, 0, 64, 0
2, 1459575, Note_off_c, 0, 84, 56
2, 1459576, Note_on_c, 0, 53, 72
2, 1459580, Note_on_c, 0, 44, 80
2, 1459581, Note_on_c, 0, 72, 60
2, 1459583, Note_on_c, 0, 56, 84
2, 1459586, Note_on_c, 0, 48, 60
2, 1459674, Note_off_c, 0, 72, 55
2, 1459678, Note_on_c, 0, 77, 60
2, 1459731, Control_c, 0, 64, 127
2, 1459774, Note_off_c, 0, 77, 55
2, 1459778, Note_on_c, 0, 80, 68
2, 1459818, Note_off_c, 0, 53, 58
2, 1459837, Note_off_c, 0, 56, 61
2, 1459844, Note_off_c, 0, 44, 60
2, 1459860, Note_off_c, 0, 80, 57
2, 1459862, Note_on_c, 0, 84, 76
2, 1459867, Note_off_c, 0, 48, 55
2, 1459959, Note_off_c, 0, 84, 59
2, 1459964, Note_on_c, 0, 86, 84
2, 1460059, Note_off_c, 0, 86, 61
2, 1460061, Note_on_c, 0, 84, 84
2, 1460158, Note_off_c, 0, 84, 61
2, 1460160, Note_on_c, 0, 83, 60
2, 1460223, Control_c, 0, 64, 0
2, 1460260, Note_off_c, 0, 83, 55
2, 1460263, Note_on_c, 0, 84, 60
2, 1460359, Note_off_c, 0, 84, 55
2, 1460363, Note_on_c, 0, 53, 52
2, 1460364, Note_on_c, 0, 68, 60
2, 1460461, Note_off_c, 0, 53, 53
2, 1460462, Note_off_c, 0, 68, 55
2, 1460463, Note_on_c, 0, 56, 52
2, 1460465, Note_on_c, 0, 72, 66
2, 1460562, Note_off_c, 0, 56, 53
2, 1460564, Note_off_c, 0, 72, 56
2, 1460566, Note_on_c, 0, 60, 58
2, 1460567, Note_on_c, 0, 77, 72
2, 1460661, Note_off_c, 0, 60, 54
2, 1460663, Note_off_c, 0, 77, 58
2, 1460664, Note_on_c, 0, 65, 64
2, 1460666, Note_on_c, 0, 80, 78
2, 1460778, Note_off_c, 0, 65, 56
2, 1460781, Note_off_c, 0, 80, 59
2, 1460781, Note_on_c, 0, 82, 84
2, 1460782, Note_on_c, 0, 67, 64
2, 1460878, Note_off_c, 0, 82, 61
2, 1460880, Note_off_c, 0, 67, 56
2, 1460881, Note_on_c, 0, 80, 84
2, 1460883, Note_on_c, 0, 65, 64
2, 1460977, Note_off_c, 0, 80, 61
2, 1460978, Note_off_c, 0, 65, 56
2, 1460980, Note_on_c, 0, 79, 60
2, 1460983, Note_on_c, 0, 64, 52
2, 1461094, Note_off_c, 0, 79, 55
2, 1461096, Note_off_c, 0, 64, 53
2, 1461097, Note_on_c, 0, 80, 60
2, 1461100, Note_on_c, 0, 65, 52
2, 1461179, Note_off_c, 0, 80, 55
2, 1461181, Note_off_c, 0, 65, 53
2, 1461195, Note_on_c, 0, 65, 52
2, 1461199, Note_on_c, 0, 50, 52
2, 1461295, Note_off_c, 0, 65, 53
2, 1461297, Note_off_c, 0, 50, 53
2, 1461299, Note_on_c, 0, 53, 58
2, 1461300, Note_on_c, 0, 71, 66
2, 1461397, Note_off_c, 0, 53, 54
2, 1461398, Note_off_c, 0, 71, 56
2, 1461399, Note_on_c, 0, 59, 64
2, 1461401, Note_on_c, 0, 74, 72
2, 1461480, Note_off_c, 0, 59, 56
2, 1461482, Note_off_c, 0, 74, 58
2, 1461482, Note_on_c, 0, 62, 70
2, 1461484, Note_on_c, 0, 77, 78
2, 1461579, Note_off_c, 0, 77, 59
2, 1461581, Note_off_c, 0, 62, 57
2, 1461583, Note_on_c, 0, 79, 84
2, 1461585, Note_on_c, 0, 63, 76
2, 1461679, Note_off_c, 0, 79, 61
2, 1461680, Note_off_c, 0, 63, 59
2, 1461682, Note_on_c, 0, 77, 84
2, 1461685, Note_on_c, 0, 62, 76
2, 1461796, Note_off_c, 0, 77, 61
2, 1461798, Note_off_c, 0, 62, 59
2, 1461799, Note_on_c, 0, 76, 72
2, 1461802, Note_on_c, 0, 61, 64
2, 1461898, Note_off_c, 0, 76, 58
2, 1461900, Note_off_c, 0, 61, 56
2, 1461902, Note_on_c, 0, 62, 52
2, 1461903, Note_on_c, 0, 77, 60
2, 1461982, Note_off_c, 0, 62, 53
2, 1461983, Note_off_c, 0, 77, 55
2, 1461998, Note_on_c, 0, 62, 52
2, 1462000, Note_on_c, 0, 47, 52
2, 1462099, Note_off_c, 0, 62, 53
2, 1462101, Note_off_c, 0, 47, 53
2, 1462101, Note_on_c, 0, 50, 52
2, 1462103, Note_on_c, 0, 67, 60
2, 1462200, Note_off_c, 0, 50, 53
2, 1462202, Note_off_c, 0, 67, 55
2, 1462203, Note_on_c, 0, 55, 64
2, 1462204, Note_on_c, 0, 71, 72
2, 1462280, Note_off_c, 0, 71, 58
2, 1462283, Note_off_c, 0, 55, 56
2, 1462285, Note_on_c, 0, 74, 72
2, 1462287, Note_on_c, 0, 59, 64
2, 1462380, Note_off_c, 0, 74, 58
2, 1462382, Note_off_c, 0, 59, 56
2, 1462384, Note_on_c, 0, 75, 72
2, 1462387, Note_on_c, 0, 60, 64
2, 1462498, Note_off_c, 0, 75, 58
2, 1462500, Note_off_c, 0, 60, 56
2, 1462501, Note_on_c, 0, 74, 66
2, 1462504, Note_on_c, 0, 59, 58
2, 1462600, Note_off_c, 0, 74, 56
2, 1462601, Note_off_c, 0, 59, 54
2, 1462603, Note_on_c, 0, 58, 52
2, 1462605, Note_on_c, 0, 73, 60
2, 1462699, Note_off_c, 0, 58, 53
2, 1462701, Note_off_c, 0, 73, 55
2, 1462703, Note_on_c, 0, 59, 52
2, 1462704, Note_on_c, 0, 74, 60
2, 1462812, Control_c, 0, 64, 127
2, 1462816, Note_off_c, 0, 59, 53
2, 1462817, Note_off_c, 0, 74, 55
2, 1462820, Note_on_c, 0, 55, 60
2, 1462821, Note_on_c, 0, 48, 70
2, 1462825, Note_on_c, 0, 51, 48
2, 1462826, Note_on_c, 0, 60, 72
2, 1462917, Note_on_c, 0, 67, 61
2, 1463019, Note_off_c, 0, 67, 55
2, 1463021, Note_on_c, 0, 72, 63
2, 1463075, Note_off_c, 0, 60, 58
2, 1463084, Note_off_c, 0, 48, 57
2, 1463095, Note_off_c, 0, 55, 55
2, 1463101, Note_off_c, 0, 51, 52
2, 1463116, Note_off_c, 0, 72, 55
2, 1463119, Note_on_c, 0, 75, 64
2, 1463192, Control_c, 0, 64, 0
2, 1463217, Note_off_c, 0, 75, 56
2, 1463223, Note_on_c, 0, 62, 74
2, 1463224, Note_on_c, 0, 53, 60
2, 1463226, Note_on_c, 0, 56, 64
2, 1463316, Note_on_c, 0, 68, 68
2, 1463419, Note_off_c, 0, 68, 57
2, 1463420, Note_on_c, 0, 74, 69
2, 1463442, Control_c, 0, 64, 99
2, 1463484, Note_off_c, 0, 56, 56
2, 1463493, Note_off_c, 0, 62, 59
2, 1463511, Note_off_c, 0, 53, 55
2, 1463518, Note_off_c, 0, 74, 57
2, 1463520, Note_on_c, 0, 77, 71
2, 1463620, Note_off_c, 0, 77, 58
2, 1463622, Note_on_c, 0, 63, 69
2, 1463624, Note_on_c, 0, 60, 60
2, 1463628, Note_on_c, 0, 55, 55
2, 1463660, Control_c, 0, 64, 0
2, 1463701, Note_on_c, 0, 67, 74
2, 1463802, Note_off_c, 0, 67, 59
2, 1463805, Note_on_c, 0, 72, 76
2, 1463816, Note_off_c, 0, 60, 55
2, 1463839, Note_off_c, 0, 63, 57
2, 1463847, Control_c, 0, 64, 90
2, 1463850, Note_off_c, 0, 55, 53
2, 1463902, Note_off_c, 0, 72, 59
2, 1463904, Note_on_c, 0, 75, 77
2, 1463970, Note_off_c, 0, 75, 59
2, 1463999, Note_on_c, 0, 59, 72
2, 1464004, Note_on_c, 0, 62, 80
2, 1464006, Note_on_c, 0, 55, 60
2, 1464011, Control_c, 0, 64, 0
2, 1464087, Note_on_c, 0, 65, 80
2, 1464158, Control_c, 0, 64, 108
2, 1464189, Note_off_c, 0, 65, 60
2, 1464191, Note_on_c, 0, 71, 82
2, 1464220, Note_off_c, 0, 55, 55
2, 1464246, Note_off_c, 0, 59, 58
2, 1464249, Note_off_c, 0, 62, 60
2, 1464287, Note_off_c, 0, 71, 60
2, 1464289, Note_on_c, 0, 74, 84
2, 1464355, Note_off_c, 0, 74, 61
2, 1464385, Note_on_c, 0, 55, 48
2, 1464389, Note_on_c, 0, 48, 55
2, 1464391, Note_on_c, 0, 60, 60
2, 1464393, Note_on_c, 0, 51, 40
2, 1464406, Control_c, 0, 64, 0
2, 1464487, Note_on_c, 0, 72, 81
2, 1464589, Note_off_c, 0, 72, 60
2, 1464590, Note_on_c, 0, 71, 78
2, 1464639, Note_off_c, 0, 55, 52
2, 1464640, Control_c, 0, 64, 0
2, 1464652, Note_off_c, 0, 60, 55
2, 1464680, Note_off_c, 0, 48, 53
2, 1464688, Note_off_c, 0, 71, 59
2, 1464690, Note_on_c, 0, 72, 75
2, 1464693, Note_off_c, 0, 51, 50
2, 1464790, Note_off_c, 0, 72, 59
2, 1464793, Note_on_c, 0, 71, 72
2, 1464888, Note_off_c, 0, 71, 58
2, 1464890, Note_on_c, 0, 72, 69
2, 1464988, Note_off_c, 0, 72, 57
2, 1464991, Note_on_c, 0, 67, 66
2, 1465088, Note_off_c, 0, 67, 56
2, 1465090, Note_on_c, 0, 63, 63
2, 1465189, Note_off_c, 0, 63, 55
2, 1465191, Note_on_c, 0, 60, 60
2, 1465374, Note_on_c, 0, 47, 57
2, 1465471, Note_off_c, 0, 47, 54
2, 1465475, Note_on_c, 0, 48, 55
2, 1465574, Note_off_c, 0, 60, 55
2, 1465576, Note_off_c, 0, 48, 53
2, 1465578, Note_on_c, 0, 47, 54
2, 1465657, Note_off_c, 0, 47, 53
2, 1465659, Note_on_c, 0, 48, 52
2, 1465759, Note_off_c, 0, 48, 53
2, 1465760, Note_on_c, 0, 47, 50
2, 1465858, Note_off_c, 0, 47, 52
2, 1465860, Note_on_c, 0, 48, 48
2, 1465942, Control_c, 0, 64, 98
2, 1465957, Note_off_c, 0, 48, 52
2, 1465959, Note_on_c, 0, 64, 84
2, 1465961, Note_on_c, 0, 58, 70
2, 1465963, Note_on_c, 0, 36, 60
2, 1465965, Note_on_c, 0, 55, 78
2, 1466058, Note_off_c, 0, 36, 55
2, 1466060, Note_on_c, 0, 40, 66
2, 1466158, Note_off_c, 0, 40, 56
2, 1466161, Note_on_c, 0, 43, 72
2, 1466258, Note_off_c, 0, 43, 58
2, 1466260, Note_on_c, 0, 48, 72
2, 1466359, Note_off_c, 0, 58, 57
2, 1466360, Note_off_c, 0, 64, 61
2, 1466362, Note_off_c, 0, 48, 58
2, 1466364, Note_off_c, 0, 55, 59
2, 1466365, Note_on_c, 0, 49, 72
2, 1466461, Note_off_c, 0, 49, 58
2, 1466462, Note_on_c, 0, 48, 66
2, 1466560, Note_off_c, 0, 48, 56
2, 1466562, Note_on_c, 0, 47, 60
2, 1466659, Note_off_c, 0, 47, 55
2, 1466660, Control_c, 0, 64, 0
2, 1466662, Note_on_c, 0, 48, 60
2, 1466758, Note_off_c, 0, 48, 55
2, 1466762, Note_on_c, 0, 36, 60
2, 1466844, Note_off_c, 0, 36, 55
2, 1466846, Note_on_c, 0, 40, 66
2, 1466944, Note_off_c, 0, 40, 56
2, 1466946, Note_on_c, 0, 43, 72
2, 1467046, Note_off_c, 0, 43, 58
2, 1467047, Note_on_c, 0, 48, 72
2, 1467127, Note_off_c, 0, 48, 58
2, 1467129, Note_on_c, 0, 70, 96
2, 1467131, Note_on_c, 0, 67, 76
2, 1467133, Note_on_c, 0, 64, 84
2, 1467135, Note_on_c, 0, 49, 72
2, 1467136, Note_on_c, 0, 58, 90
2, 1467227, Note_off_c, 0, 49, 58
2, 1467230, Note_on_c, 0, 48, 66
2, 1467328, Note_off_c, 0, 70, 63
2, 1467330, Note_off_c, 0, 67, 59
2, 1467333, Note_off_c, 0, 58, 62
2, 1467334, Note_off_c, 0, 64, 61
2, 1467335, Note_off_c, 0, 48, 56
2, 1467336, Note_on_c, 0, 47, 60
2, 1467411, Note_off_c, 0, 47, 55
2, 1467413, Note_on_c, 0, 48, 60
2, 1467514, Note_off_c, 0, 48, 55
2, 1467515, Note_on_c, 0, 76, 84
2, 1467517, Note_on_c, 0, 70, 72
2, 1467518, Note_on_c, 0, 67, 60
2, 1467519, Note_on_c, 0, 64, 80
2, 1467520, Note_on_c, 0, 36, 60
2, 1467522, Control_c, 0, 64, 98
2, 1467612, Note_off_c, 0, 36, 55
2, 1467614, Note_on_c, 0, 40, 66
2, 1467711, Note_off_c, 0, 40, 56
2, 1467714, Note_on_c, 0, 43, 72
2, 1467811, Note_off_c, 0, 43, 58
2, 1467815, Note_on_c, 0, 48, 72
2, 1467914, Note_off_c, 0, 70, 58
2, 1467915, Note_off_c, 0, 76, 61
2, 1467918, Note_off_c, 0, 64, 60
2, 1467919, Note_off_c, 0, 67, 55
2, 1467920, Note_off_c, 0, 48, 58
2, 1467921, Note_on_c, 0, 49, 72
2, 1468015, Note_off_c, 0, 49, 58
2, 1468016, Note_on_c, 0, 48, 66
2, 1468114, Note_off_c, 0, 48, 56
2, 1468115, Note_on_c, 0, 47, 60
2, 1468215, Note_off_c, 0, 47, 55
2, 1468216, Note_on_c, 0, 48, 60
2, 1468239, Control_c, 0, 64, 0
2, 1468313, Note_off_c, 0, 48, 55
2, 1468316, Note_on_c, 0, 36, 60
2, 1468413, Note_off_c, 0, 36, 55
2, 1468416, Note_on_c, 0, 40, 66
2, 1468497, Note_off_c, 0, 40, 56
2, 1468499, Note_on_c, 0, 43, 72
2, 1468599, Note_off_c, 0, 43, 58
2, 1468600, Note_on_c, 0, 48, 72
2, 1468683, Note_off_c, 0, 48, 58
2, 1468684, Note_on_c, 0, 79, 84
2, 1468685, Note_on_c, 0, 82, 98
2, 1468686, Note_on_c, 0, 76, 72
2, 1468687, Note_on_c, 0, 70, 90
2, 1468689, Note_on_c, 0, 49, 72
2, 1468783, Note_off_c, 0, 49, 58
2, 1468784, Note_on_c, 0, 48, 66
2, 1468882, Note_off_c, 0, 82, 64
2, 1468884, Note_off_c, 0, 79, 61
2, 1468885, Note_off_c, 0, 70, 62
2, 1468887, Note_off_c, 0, 76, 58
2, 1468889, Note_off_c, 0, 48, 56
2, 1468891, Note_on_c, 0, 47, 60
2, 1468966, Note_off_c, 0, 47, 55
2, 1468967, Note_on_c, 0, 48, 60
2, 1469067, Note_off_c, 0, 48, 55
2, 1469068, Note_on_c, 0, 80, 84
2, 1469070, Note_on_c, 0, 77, 72
2, 1469071, Note_on_c, 0, 72, 60
2, 1469071, Note_on_c, 0, 68, 80
2, 1469073, Note_on_c, 0, 41, 60
2, 1469101, Control_c, 0, 64, 98
2, 1469166, Note_off_c, 0, 41, 55
2, 1469168, Note_on_c, 0, 44, 66
2, 1469268, Note_off_c, 0, 44, 56
2, 1469268, Note_on_c, 0, 48, 72
2, 1469366, Note_off_c, 0, 48, 58
2, 1469369, Note_on_c, 0, 53, 72
2, 1469467, Note_off_c, 0, 80, 61
2, 1469470, Note_off_c, 0, 77, 58
2, 1469470, Note_off_c, 0, 68, 60
2, 1469473, Note_off_c, 0, 72, 55
2, 1469473, Note_off_c, 0, 53, 58
2, 1469475, Note_on_c, 0, 55, 72
2, 1469567, Note_off_c, 0, 55, 58
2, 1469568, Note_on_c, 0, 53, 66
2, 1469668, Note_off_c, 0, 53, 56
2, 1469669, Note_on_c, 0, 52, 60
2, 1469769, Note_off_c, 0, 52, 55
2, 1469770, Note_on_c, 0, 53, 60
2, 1469802, Control_c, 0, 64, 0
2, 1469868, Note_off_c, 0, 53, 55
2, 1469869, Note_on_c, 0, 41, 60
2, 1469969, Note_off_c, 0, 41, 55
2, 1469970, Note_on_c, 0, 44, 66
2, 1470051, Note_off_c, 0, 44, 56
2, 1470053, Note_on_c, 0, 48, 72
2, 1470151, Note_off_c, 0, 48, 58
2, 1470153, Note_on_c, 0, 53, 72
2, 1470253, Note_off_c, 0, 53, 58
2, 1470254, Note_on_c, 0, 84, 96
2, 1470256, Note_on_c, 0, 80, 84
2, 1470258, Note_on_c, 0, 77, 72
2, 1470259, Note_on_c, 0, 55, 72
2, 1470260, Note_on_c, 0, 72, 90
2, 1470355, Note_off_c, 0, 55, 58
2, 1470356, Note_on_c, 0, 53, 66
2, 1470436, Note_off_c, 0, 84, 63
2, 1470438, Note_off_c, 0, 80, 61
2, 1470440, Note_off_c, 0, 77, 58
2, 1470441, Note_off_c, 0, 72, 62
2, 1470443, Note_off_c, 0, 53, 56
2, 1470444, Note_on_c, 0, 52, 60
2, 1470538, Note_off_c, 0, 52, 55
2, 1470540, Note_on_c, 0, 53, 60
2, 1470636, Note_off_c, 0, 53, 55
2, 1470638, Note_on_c, 0, 84, 84
2, 1470639, Note_on_c, 0, 81, 72
2, 1470641, Note_on_c, 0, 75, 60
2, 1470642, Note_on_c, 0, 42, 60
2, 1470644, Note_on_c, 0, 72, 80
2, 1470651, Control_c, 0, 64, 110
2, 1470737, Note_off_c, 0, 42, 55
2, 1470739, Note_on_c, 0, 45, 66
2, 1470838, Note_off_c, 0, 45, 56
2, 1470839, Note_on_c, 0, 48, 72
2, 1470939, Note_off_c, 0, 48, 58
2, 1470940, Note_on_c, 0, 54, 72
2, 1471037, Note_off_c, 0, 84, 61
2, 1471040, Note_off_c, 0, 81, 58
2, 1471041, Note_off_c, 0, 75, 55
2, 1471043, Note_off_c, 0, 72, 60
2, 1471044, Note_off_c, 0, 54, 58
2, 1471044, Note_on_c, 0, 55, 72
2, 1471139, Note_off_c, 0, 55, 58
2, 1471140, Note_on_c, 0, 54, 66
2, 1471238, Note_off_c, 0, 54, 56
2, 1471240, Note_on_c, 0, 55, 60
2, 1471339, Note_off_c, 0, 55, 55
2, 1471340, Note_on_c, 0, 54, 60
2, 1471382, Control_c, 0, 64, 0
2, 1471438, Note_off_c, 0, 54, 55
2, 1471440, Note_on_c, 0, 42, 60
2, 1471540, Note_off_c, 0, 42, 55
2, 1471541, Note_on_c, 0, 45, 66
2, 1471622, Note_off_c, 0, 45, 56
2, 1471625, Note_on_c, 0, 48, 72
2, 1471723, Note_off_c, 0, 48, 58
2, 1471725, Note_on_c, 0, 54, 72
2, 1471823, Note_off_c, 0, 54, 58
2, 1471825, Note_on_c, 0, 72, 84
2, 1471827, Note_on_c, 0, 69, 72
2, 1471828, Note_on_c, 0, 63, 60
2, 1471830, Note_on_c, 0, 60, 80
2, 1471831, Note_on_c, 0, 55, 72
2, 1471923, Note_off_c, 0, 55, 58
2, 1471924, Note_on_c, 0, 54, 66
2, 1472008, Note_off_c, 0, 69, 58
2, 1472010, Note_off_c, 0, 72, 61
2, 1472011, Note_off_c, 0, 60, 60
2, 1472012, Note_off_c, 0, 63, 55
2, 1472013, Note_off_c, 0, 54, 56
2, 1472014, Note_on_c, 0, 55, 60
2, 1472107, Note_off_c, 0, 55, 55
2, 1472110, Note_on_c, 0, 54, 60
2, 1472207, Note_off_c, 0, 54, 55
2, 1472209, Note_on_c, 0, 43, 60
2, 1472210, Note_on_c, 0, 59, 60
2, 1472260, Control_c, 0, 64, 99
2, 1472308, Note_off_c, 0, 59, 55
2, 1472310, Note_on_c, 0, 62, 60
2, 1472408, Note_off_c, 0, 62, 55
2, 1472410, Note_on_c, 0, 67, 66
2, 1472509, Note_off_c, 0, 67, 56
2, 1472510, Note_on_c, 0, 71, 72
2, 1472609, Note_off_c, 0, 43, 55
2, 1472610, Note_off_c, 0, 71, 58
2, 1472612, Note_on_c, 0, 55, 83
2, 1472613, Note_on_c, 0, 72, 72
2, 1472710, Note_off_c, 0, 72, 58
2, 1472712, Note_on_c, 0, 71, 66
2, 1472808, Note_off_c, 0, 71, 56
2, 1472811, Note_on_c, 0, 70, 60
2, 1472909, Note_off_c, 0, 70, 55
2, 1472911, Note_on_c, 0, 71, 60
2, 1472947, Control_c, 0, 64, 0
2, 1473010, Note_off_c, 0, 71, 55
2, 1473012, Note_on_c, 0, 65, 60
2, 1473110, Note_off_c, 0, 65, 55
2, 1473112, Note_on_c, 0, 71, 66
2, 1473152, Control_c, 0, 64, 95
2, 1473211, Note_off_c, 0, 71, 56
2, 1473212, Note_on_c, 0, 74, 72
2, 1473311, Note_off_c, 0, 74, 58
2, 1473312, Note_on_c, 0, 77, 72
2, 1473393, Note_off_c, 0, 77, 58
2, 1473396, Note_on_c, 0, 62, 69
2, 1473398, Note_on_c, 0, 79, 72
2, 1473494, Note_off_c, 0, 79, 58
2, 1473496, Note_on_c, 0, 77, 66
2, 1473595, Note_off_c, 0, 77, 56
2, 1473597, Note_on_c, 0, 76, 60
2, 1473695, Note_off_c, 0, 76, 55
2, 1473697, Note_on_c, 0, 77, 60
2, 1473737, Control_c, 0, 64, 0
2, 1473796, Note_off_c, 0, 77, 55
2, 1473797, Note_on_c, 0, 63, 60
2, 1473798, Note_on_c, 0, 60, 74
2, 1473831, Note_off_c, 0, 62, 57
2, 1473896, Note_off_c, 0, 63, 55
2, 1473897, Note_on_c, 0, 67, 64
2, 1473938, Control_c, 0, 64, 110
2, 1473979, Note_off_c, 0, 67, 56
2, 1473981, Note_on_c, 0, 72, 68
2, 1474079, Note_off_c, 0, 72, 57
2, 1474081, Note_on_c, 0, 75, 72
2, 1474180, Note_off_c, 0, 75, 58
2, 1474182, Note_on_c, 0, 67, 78
2, 1474184, Note_on_c, 0, 77, 72
2, 1474215, Note_off_c, 0, 60, 59
2, 1474298, Note_off_c, 0, 77, 58
2, 1474298, Note_on_c, 0, 75, 66
2, 1474397, Note_off_c, 0, 75, 56
2, 1474399, Note_on_c, 0, 74, 60
2, 1474498, Note_off_c, 0, 74, 55
2, 1474499, Note_on_c, 0, 75, 60
2, 1474526, Control_c, 0, 64, 0
2, 1474598, Note_off_c, 0, 75, 55
2, 1474599, Note_on_c, 0, 72, 60
2, 1474601, Note_on_c, 0, 63, 76
2, 1474633, Note_off_c, 0, 67, 59
2, 1474696, Note_off_c, 0, 72, 55
2, 1474700, Note_on_c, 0, 75, 66
2, 1474741, Control_c, 0, 64, 97
2, 1474813, Note_off_c, 0, 75, 56
2, 1474817, Note_on_c, 0, 79, 72
2, 1474914, Note_off_c, 0, 79, 58
2, 1474917, Note_on_c, 0, 84, 72
2, 1475032, Note_off_c, 0, 84, 58
2, 1475034, Note_on_c, 0, 60, 71
2, 1475036, Note_on_c, 0, 86, 72
2, 1475070, Note_off_c, 0, 63, 59
2, 1475132, Note_off_c, 0, 86, 58
2, 1475133, Note_on_c, 0, 84, 66
2, 1475249, Note_off_c, 0, 84, 56
2, 1475250, Note_on_c, 0, 83, 60
2, 1475350, Note_off_c, 0, 60, 58
2, 1475352, Note_off_c, 0, 83, 55
2, 1475353, Note_on_c, 0, 84, 60
2, 1475376, Control_c, 0, 64, 0
2, 1475450, Note_off_c, 0, 55, 60
2, 1475452, Note_off_c, 0, 84, 55
2, 1475453, Note_on_c, 0, 71, 60
2, 1475455, Note_on_c, 0, 43, 66
2, 1475551, Note_off_c, 0, 71, 55
2, 1475552, Note_on_c, 0, 74, 66
2, 1475576, Control_c, 0, 64, 127
2, 1475649, Note_off_c, 0, 74, 56
2, 1475652, Note_on_c, 0, 79, 72
2, 1475749, Note_off_c, 0, 79, 58
2, 1475753, Note_on_c, 0, 83, 72
2, 1475850, Note_off_c, 0, 83, 58
2, 1475851, Note_on_c, 0, 84, 72
2, 1475853, Note_on_c, 0, 55, 91
2, 1475951, Note_off_c, 0, 84, 58
2, 1475952, Note_on_c, 0, 83, 66
2, 1476052, Note_off_c, 0, 83, 56
2, 1476054, Note_on_c, 0, 82, 60
2, 1476152, Note_off_c, 0, 82, 55
2, 1476154, Note_on_c, 0, 83, 60
2, 1476179, Control_c, 0, 64, 0
2, 1476252, Note_off_c, 0, 83, 55
2, 1476253, Note_on_c, 0, 77, 60
2, 1476351, Note_off_c, 0, 77, 55
2, 1476354, Note_on_c, 0, 83, 66
2, 1476384, Control_c, 0, 64, 99
2, 1476452, Note_off_c, 0, 83, 56
2, 1476455, Note_on_c, 0, 86, 72
2, 1476536, Note_off_c, 0, 86, 58
2, 1476537, Note_on_c, 0, 89, 72
2, 1476637, Note_off_c, 0, 89, 58
2, 1476639, Note_on_c, 0, 47, 73
2, 1476640, Note_on_c, 0, 88, 72
2, 1476737, Note_off_c, 0, 88, 58
2, 1476739, Note_on_c, 0, 89, 66
2, 1476836, Note_off_c, 0, 89, 56
2, 1476837, Note_on_c, 0, 88, 60
2, 1476918, Note_off_c, 0, 88, 55
2, 1476923, Note_on_c, 0, 89, 60
2, 1476983, Control_c, 0, 64, 0
2, 1477021, Note_off_c, 0, 89, 55
2, 1477023, Note_on_c, 0, 48, 75
2, 1477025, Note_on_c, 0, 75, 60
2, 1477081, Note_off_c, 0, 47, 58
2, 1477121, Note_off_c, 0, 75, 55
2, 1477122, Note_on_c, 0, 79, 66
2, 1477188, Control_c, 0, 64, 105
2, 1477206, Note_off_c, 0, 79, 56
2, 1477207, Note_on_c, 0, 84, 72
2, 1477303, Note_off_c, 0, 84, 58
2, 1477305, Note_on_c, 0, 87, 78
2, 1477315, Note_off_c, 0, 55, 62
2, 1477386, Note_off_c, 0, 87, 59
2, 1477404, Note_on_c, 0, 89, 84
2, 1477407, Note_on_c, 0, 55, 78
2, 1477451, Note_off_c, 0, 48, 59
2, 1477504, Note_off_c, 0, 89, 61
2, 1477505, Note_on_c, 0, 87, 84
2, 1477605, Note_off_c, 0, 87, 61
2, 1477606, Note_on_c, 0, 86, 80
2, 1477706, Note_off_c, 0, 86, 60
2, 1477707, Note_on_c, 0, 87, 76
2, 1477744, Control_c, 0, 64, 0
2, 1477807, Note_off_c, 0, 87, 59
2, 1477809, Note_on_c, 0, 72, 72
2, 1477811, Note_on_c, 0, 51, 75
2, 1477924, Note_off_c, 0, 72, 58
2, 1477926, Note_on_c, 0, 75, 72
2, 1477954, Control_c, 0, 64, 127
2, 1478021, Note_off_c, 0, 75, 58
2, 1478024, Note_on_c, 0, 79, 76
2, 1478122, Note_off_c, 0, 79, 59
2, 1478124, Note_on_c, 0, 84, 80
2, 1478239, Note_off_c, 0, 84, 60
2, 1478242, Note_off_c, 0, 51, 59
2, 1478242, Note_on_c, 0, 86, 84
2, 1478244, Note_on_c, 0, 48, 63
2, 1478339, Note_off_c, 0, 86, 61
2, 1478343, Note_on_c, 0, 84, 84
2, 1478458, Note_off_c, 0, 84, 61
2, 1478460, Note_on_c, 0, 83, 72
2, 1478557, Note_off_c, 0, 48, 55
2, 1478559, Note_off_c, 0, 83, 58
2, 1478561, Note_on_c, 0, 84, 60
2, 1478642, Note_off_c, 0, 43, 56
2, 1478644, Note_off_c, 0, 84, 55
2, 1478661, Control_c, 0, 64, 0
2, 1478674, Note_on_c, 0, 43, 60
2, 1478675, Note_on_c, 0, 83, 60
2, 1478775, Note_off_c, 0, 83, 55
2, 1478776, Note_on_c, 0, 86, 84
2, 1478876, Note_off_c, 0, 86, 61
2, 1478877, Note_on_c, 0, 84, 84
2, 1478895, Control_c, 0, 64, 110
2, 1478993, Note_off_c, 0, 84, 61
2, 1478994, Note_on_c, 0, 83, 82
2, 1479095, Note_off_c, 0, 55, 59
2, 1479095, Note_off_c, 0, 83, 60
2, 1479097, Note_off_c, 0, 43, 55
2, 1479099, Note_on_c, 0, 80, 80
2, 1479211, Note_off_c, 0, 80, 60
2, 1479213, Note_on_c, 0, 79, 78
2, 1479310, Note_off_c, 0, 79, 59
2, 1479312, Note_on_c, 0, 77, 76
2, 1479409, Note_off_c, 0, 77, 59
2, 1479412, Note_on_c, 0, 75, 74
2, 1479509, Note_off_c, 0, 75, 59
2, 1479511, Note_on_c, 0, 74, 72
2, 1479628, Note_off_c, 0, 74, 58
2, 1479629, Note_on_c, 0, 72, 70
2, 1479727, Note_off_c, 0, 72, 57
2, 1479728, Note_on_c, 0, 71, 68
2, 1479828, Note_off_c, 0, 71, 57
2, 1479829, Note_on_c, 0, 68, 66
2, 1479929, Note_off_c, 0, 68, 56
2, 1479930, Note_on_c, 0, 67, 64
2, 1480026, Note_off_c, 0, 67, 56
2, 1480029, Note_on_c, 0, 65, 62
2, 1480032, Control_c, 0, 64, 0
2, 1480128, Note_off_c, 0, 65, 55
2, 1480131, Note_on_c, 0, 63, 60
2, 1480228, Note_off_c, 0, 63, 55
2, 1480230, Note_on_c, 0, 62, 60
2, 1480329, Note_off_c, 0, 62, 55
2, 1480332, Note_on_c, 0, 60, 84
2, 1480333, Note_on_c, 0, 55, 72
2, 1480334, Note_on_c, 0, 51, 78
2, 1480335, Note_on_c, 0, 36, 60
2, 1480357, Control_c, 0, 64, 99
2, 1480429, Note_off_c, 0, 36, 55
2, 1480430, Note_on_c, 0, 39, 66
2, 1480530, Note_off_c, 0, 39, 56
2, 1480531, Note_on_c, 0, 43, 72
2, 1480631, Note_off_c, 0, 43, 58
2, 1480632, Note_on_c, 0, 48, 72
2, 1480727, Note_off_c, 0, 48, 58
2, 1480731, Note_on_c, 0, 50, 72
2, 1480830, Note_off_c, 0, 50, 58
2, 1480833, Note_on_c, 0, 48, 66
2, 1480931, Note_off_c, 0, 55, 58
2, 1480932, Note_off_c, 0, 48, 56
2, 1480933, Note_on_c, 0, 47, 60
2, 1480987, Note_off_c, 0, 60, 61
2, 1481023, Note_off_c, 0, 51, 59
2, 1481030, Note_off_c, 0, 47, 55
2, 1481032, Note_on_c, 0, 48, 60
2, 1481064, Control_c, 0, 64, 0
2, 1481134, Note_off_c, 0, 48, 55
2, 1481135, Note_on_c, 0, 36, 60
2, 1481232, Note_off_c, 0, 36, 55
2, 1481233, Note_on_c, 0, 39, 66
2, 1481314, Note_off_c, 0, 39, 56
2, 1481316, Note_on_c, 0, 43, 72
2, 1481415, Note_off_c, 0, 43, 58
2, 1481418, Note_on_c, 0, 48, 72
2, 1481513, Note_on_c, 0, 75, 98
2, 1481515, Note_off_c, 0, 48, 58
2, 1481518, Note_on_c, 0, 67, 72
2, 1481520, Note_on_c, 0, 72, 84
2, 1481521, Note_on_c, 0, 50, 72
2, 1481524, Note_on_c, 0, 63, 90
2, 1481600, Note_off_c, 0, 50, 58
2, 1481601, Note_on_c, 0, 48, 66
2, 1481659, Note_off_c, 0, 75, 64
2, 1481660, Note_off_c, 0, 72, 61
2, 1481664, Note_off_c, 0, 67, 58
2, 1481676, Note_off_c, 0, 63, 62
2, 1481702, Note_off_c, 0, 48, 56
2, 1481705, Note_on_c, 0, 47, 60
2, 1481781, Note_off_c, 0, 47, 55
2, 1481784, Note_on_c, 0, 48, 60
2, 1481881, Note_on_c, 0, 72, 60
2, 1481882, Note_on_c, 0, 75, 72
2, 1481883, Note_on_c, 0, 79, 84
2, 1481884, Note_off_c, 0, 48, 55
2, 1481886, Control_c, 0, 64, 127
2, 1481888, Note_on_c, 0, 36, 60
2, 1481892, Note_on_c, 0, 67, 80
2, 1481983, Note_off_c, 0, 36, 55
2, 1481984, Note_on_c, 0, 39, 66
2, 1482084, Note_off_c, 0, 39, 56
2, 1482085, Note_on_c, 0, 43, 72
2, 1482184, Note_off_c, 0, 67, 60
2, 1482186, Note_off_c, 0, 43, 58
2, 1482186, Note_on_c, 0, 48, 72
2, 1482213, Note_off_c, 0, 75, 58
2, 1482223, Note_off_c, 0, 72, 55
2, 1482223, Note_off_c, 0, 79, 61
2, 1482287, Note_off_c, 0, 48, 58
2, 1482290, Note_on_c, 0, 50, 72
2, 1482384, Note_off_c, 0, 50, 58
2, 1482386, Note_on_c, 0, 48, 66
2, 1482482, Note_off_c, 0, 48, 56
2, 1482486, Note_on_c, 0, 47, 60
2, 1482585, Note_off_c, 0, 47, 55
2, 1482587, Note_on_c, 0, 48, 60
2, 1482643, Control_c, 0, 64, 0
2, 1482685, Note_off_c, 0, 48, 55
2, 1482686, Note_on_c, 0, 36, 60
2, 1482786, Note_off_c, 0, 36, 55
2, 1482787, Note_on_c, 0, 39, 66
2, 1482868, Note_off_c, 0, 39, 56
2, 1482870, Note_on_c, 0, 43, 72
2, 1482968, Note_off_c, 0, 43, 58
2, 1482971, Note_on_c, 0, 48, 72
2, 1483067, Note_on_c, 0, 75, 72
2, 1483068, Note_off_c, 0, 48, 58
2, 1483070, Note_on_c, 0, 72, 90
2, 1483073, Note_on_c, 0, 84, 98
2, 1483075, Note_on_c, 0, 50, 72
2, 1483077, Note_on_c, 0, 79, 84
2, 1483153, Note_off_c, 0, 50, 58
2, 1483154, Note_on_c, 0, 48, 66
2, 1483207, Note_off_c, 0, 72, 62
2, 1483216, Note_off_c, 0, 75, 58
2, 1483226, Note_off_c, 0, 79, 61
2, 1483228, Note_off_c, 0, 84, 64
2, 1483255, Note_off_c, 0, 48, 56
2, 1483258, Note_on_c, 0, 47, 60
2, 1483354, Note_off_c, 0, 47, 55
2, 1483356, Note_on_c, 0, 48, 60
2, 1483436, Note_off_c, 0, 48, 55
2, 1483439, Note_on_c, 0, 46, 84
2, 1483440, Note_on_c, 0, 60, 60
2, 1483459, Note_on_c, 0, 34, 74
2, 1483462, Control_c, 0, 64, 115
2, 1483535, Note_off_c, 0, 60, 55
2, 1483537, Note_on_c, 0, 64, 60
2, 1483637, Note_off_c, 0, 64, 55
2, 1483639, Note_on_c, 0, 67, 72
2, 1483739, Note_off_c, 0, 67, 58
2, 1483740, Note_on_c, 0, 72, 72
2, 1483839, Note_off_c, 0, 72, 58
2, 1483840, Note_on_c, 0, 73, 72
2, 1483937, Note_off_c, 0, 73, 58
2, 1483940, Note_on_c, 0, 72, 66
2, 1484038, Note_off_c, 0, 72, 56
2, 1484040, Note_on_c, 0, 71, 60
2, 1484047, Note_off_c, 0, 34, 59
2, 1484137, Note_off_c, 0, 71, 55
2, 1484141, Note_on_c, 0, 72, 60
2, 1484179, Control_c, 0, 64, 0
2, 1484237, Note_off_c, 0, 46, 61
2, 1484239, Note_off_c, 0, 72, 55
2, 1484241, Note_on_c, 0, 64, 60
2, 1484340, Note_off_c, 0, 64, 55
2, 1484341, Note_on_c, 0, 67, 66
2, 1484424, Note_off_c, 0, 67, 56
2, 1484426, Note_on_c, 0, 72, 72
2, 1484522, Note_off_c, 0, 72, 58
2, 1484525, Note_on_c, 0, 76, 72
2, 1484622, Note_off_c, 0, 76, 58
2, 1484624, Note_on_c, 0, 58, 98
2, 1484625, Note_on_c, 0, 52, 72
2, 1484627, Note_on_c, 0, 77, 96
2, 1484629, Note_on_c, 0, 46, 90
2, 1484632, Note_on_c, 0, 55, 84
2, 1484706, Note_off_c, 0, 77, 63
2, 1484707, Note_on_c, 0, 76, 69
2, 1484807, Note_off_c, 0, 76, 57
2, 1484808, Note_on_c, 0, 75, 66
2, 1484815, Note_off_c, 0, 52, 58
2, 1484827, Note_off_c, 0, 58, 64
2, 1484841, Note_off_c, 0, 46, 62
2, 1484865, Note_off_c, 0, 55, 61
2, 1484891, Note_off_c, 0, 75, 56
2, 1484893, Note_on_c, 0, 76, 63
2, 1484973, Note_off_c, 0, 76, 55
2, 1484990, Note_on_c, 0, 67, 60
2, 1484993, Note_on_c, 0, 46, 84
2, 1484998, Control_c, 0, 64, 127
2, 1485011, Note_on_c, 0, 34, 74
2, 1485090, Note_off_c, 0, 67, 55
2, 1485093, Note_on_c, 0, 72, 60
2, 1485191, Note_off_c, 0, 72, 55
2, 1485193, Note_on_c, 0, 76, 66
2, 1485291, Note_off_c, 0, 76, 56
2, 1485292, Note_on_c, 0, 79, 72
2, 1485392, Note_off_c, 0, 79, 58
2, 1485394, Note_on_c, 0, 80, 72
2, 1485494, Note_off_c, 0, 80, 58
2, 1485495, Note_on_c, 0, 79, 72
2, 1485592, Note_off_c, 0, 79, 58
2, 1485594, Note_on_c, 0, 78, 60
2, 1485646, Note_off_c, 0, 34, 59
2, 1485693, Note_off_c, 0, 78, 55
2, 1485696, Note_on_c, 0, 79, 60
2, 1485729, Control_c, 0, 64, 0
2, 1485793, Note_off_c, 0, 79, 55
2, 1485795, Note_off_c, 0, 46, 61
2, 1485797, Note_on_c, 0, 72, 60
2, 1485894, Note_off_c, 0, 72, 55
2, 1485895, Note_on_c, 0, 76, 63
2, 1485993, Note_off_c, 0, 76, 55
2, 1485994, Note_on_c, 0, 79, 66
2, 1486078, Note_off_c, 0, 79, 56
2, 1486079, Note_on_c, 0, 84, 69
2, 1486144, Control_c, 0, 64, 108
2, 1486177, Note_off_c, 0, 84, 57
2, 1486178, Note_on_c, 0, 46, 90
2, 1486180, Note_on_c, 0, 85, 72
2, 1486181, Note_on_c, 0, 52, 76
2, 1486183, Note_on_c, 0, 58, 96
2, 1486183, Note_on_c, 0, 55, 84
2, 1486278, Note_off_c, 0, 85, 58
2, 1486281, Note_on_c, 0, 84, 72
2, 1486329, Control_c, 0, 64, 97
2, 1486378, Note_off_c, 0, 84, 58
2, 1486380, Note_on_c, 0, 83, 68
2, 1486413, Note_off_c, 0, 55, 61
2, 1486424, Note_off_c, 0, 58, 63
2, 1486436, Note_off_c, 0, 52, 59
2, 1486442, Note_off_c, 0, 46, 62
2, 1486460, Note_off_c, 0, 83, 57
2, 1486462, Note_on_c, 0, 84, 64
2, 1486562, Note_on_c, 0, 53, 72
2, 1486564, Note_off_c, 0, 84, 56
2, 1486565, Note_on_c, 0, 48, 60
2, 1486567, Note_on_c, 0, 56, 84
2, 1486569, Note_on_c, 0, 72, 60
2, 1486573, Note_on_c, 0, 44, 80
2, 1486592, Control_c, 0, 64, 0
2, 1486661, Note_off_c, 0, 72, 55
2, 1486664, Note_on_c, 0, 77, 60
2, 1486762, Note_off_c, 0, 77, 55
2, 1486764, Note_on_c, 0, 80, 68
2, 1486765, Note_off_c, 0, 48, 55
2, 1486777, Control_c, 0, 64, 98
2, 1486823, Note_off_c, 0, 44, 60
2, 1486825, Note_off_c, 0, 56, 61
2, 1486841, Note_off_c, 0, 53, 58
2, 1486846, Note_off_c, 0, 80, 57
2, 1486848, Note_on_c, 0, 84, 76
2, 1486947, Note_off_c, 0, 84, 59
2, 1486951, Note_on_c, 0, 86, 84
2, 1487046, Note_off_c, 0, 86, 61
2, 1487047, Note_on_c, 0, 84, 84
2, 1487147, Note_off_c, 0, 84, 61
2, 1487148, Note_on_c, 0, 83, 60
2, 1487221, Control_c, 0, 64, 0
2, 1487245, Note_off_c, 0, 83, 55
2, 1487249, Note_on_c, 0, 84, 60
2, 1487347, Note_off_c, 0, 84, 55
2, 1487349, Note_on_c, 0, 53, 51
2, 1487351, Note_on_c, 0, 68, 60
2, 1487447, Note_off_c, 0, 68, 55
2, 1487450, Note_off_c, 0, 53, 52
2, 1487451, Note_on_c, 0, 56, 51
2, 1487452, Note_on_c, 0, 72, 66
2, 1487547, Note_off_c, 0, 56, 52
2, 1487549, Note_off_c, 0, 72, 56
2, 1487550, Note_on_c, 0, 60, 57
2, 1487552, Note_on_c, 0, 77, 72
2, 1487648, Note_off_c, 0, 60, 54
2, 1487650, Note_off_c, 0, 77, 58
2, 1487652, Note_on_c, 0, 65, 63
2, 1487653, Note_on_c, 0, 80, 78
2, 1487765, Note_off_c, 0, 65, 55
2, 1487767, Note_off_c, 0, 80, 59
2, 1487769, Note_on_c, 0, 67, 63
2, 1487770, Note_on_c, 0, 82, 84
2, 1487864, Note_off_c, 0, 67, 55
2, 1487866, Note_off_c, 0, 82, 61
2, 1487868, Note_on_c, 0, 65, 63
2, 1487870, Note_on_c, 0, 80, 84
2, 1487967, Note_off_c, 0, 65, 55
2, 1487969, Note_off_c, 0, 80, 61
2, 1487970, Note_on_c, 0, 79, 60
2, 1487971, Note_on_c, 0, 64, 51
2, 1488081, Note_off_c, 0, 79, 55
2, 1488084, Note_off_c, 0, 64, 52
2, 1488085, Note_on_c, 0, 80, 60
2, 1488086, Note_on_c, 0, 65, 51
2, 1488166, Note_off_c, 0, 80, 55
2, 1488167, Note_off_c, 0, 65, 52
2, 1488181, Note_on_c, 0, 65, 60
2, 1488185, Note_on_c, 0, 50, 51
2, 1488283, Note_off_c, 0, 65, 55
2, 1488285, Note_off_c, 0, 50, 52
2, 1488287, Note_on_c, 0, 53, 57
2, 1488288, Note_on_c, 0, 71, 66
2, 1488383, Note_off_c, 0, 53, 54
2, 1488385, Note_off_c, 0, 71, 56
2, 1488386, Note_on_c, 0, 59, 63
2, 1488387, Note_on_c, 0, 74, 72
2, 1488467, Note_off_c, 0, 59, 55
2, 1488468, Note_off_c, 0, 74, 58
2, 1488471, Note_on_c, 0, 62, 69
2, 1488472, Note_on_c, 0, 77, 78
2, 1488566, Note_off_c, 0, 62, 57
2, 1488568, Note_off_c, 0, 77, 59
2, 1488569, Note_on_c, 0, 79, 84
2, 1488570, Note_on_c, 0, 63, 75
2, 1488666, Note_off_c, 0, 79, 61
2, 1488669, Note_off_c, 0, 63, 59
2, 1488670, Note_on_c, 0, 77, 84
2, 1488672, Note_on_c, 0, 62, 75
2, 1488782, Note_off_c, 0, 77, 61
2, 1488786, Note_off_c, 0, 62, 59
2, 1488787, Note_on_c, 0, 76, 72
2, 1488790, Note_on_c, 0, 61, 63
2, 1488883, Note_off_c, 0, 76, 58
2, 1488886, Note_off_c, 0, 61, 55
2, 1488888, Note_on_c, 0, 77, 60
2, 1488889, Note_on_c, 0, 62, 51
2, 1488969, Note_off_c, 0, 77, 55
2, 1488970, Note_off_c, 0, 62, 52
2, 1488984, Note_on_c, 0, 62, 60
2, 1488987, Note_on_c, 0, 47, 51
2, 1489085, Note_off_c, 0, 62, 55
2, 1489087, Note_off_c, 0, 47, 52
2, 1489088, Note_on_c, 0, 50, 51
2, 1489089, Note_on_c, 0, 67, 60
2, 1489185, Note_off_c, 0, 50, 52
2, 1489187, Note_off_c, 0, 67, 55
2, 1489188, Note_on_c, 0, 55, 63
2, 1489190, Note_on_c, 0, 71, 72
2, 1489269, Note_off_c, 0, 55, 55
2, 1489271, Note_off_c, 0, 71, 58
2, 1489272, Note_on_c, 0, 74, 72
2, 1489273, Note_on_c, 0, 59, 63
2, 1489368, Note_off_c, 0, 74, 58
2, 1489371, Note_off_c, 0, 59, 55
2, 1489372, Note_on_c, 0, 75, 72
2, 1489374, Note_on_c, 0, 60, 63
2, 1489484, Note_off_c, 0, 75, 58
2, 1489488, Note_off_c, 0, 60, 55
2, 1489489, Note_on_c, 0, 74, 66
2, 1489491, Note_on_c, 0, 59, 57
2, 1489585, Note_off_c, 0, 74, 56
2, 1489588, Note_off_c, 0, 59, 54
2, 1489590, Note_on_c, 0, 58, 51
2, 1489591, Note_on_c, 0, 73, 60
2, 1489687, Note_off_c, 0, 58, 52
2, 1489688, Note_off_c, 0, 73, 55
2, 1489690, Note_on_c, 0, 59, 51
2, 1489692, Note_on_c, 0, 74, 60
2, 1489805, Note_off_c, 0, 59, 52
2, 1489806, Note_off_c, 0, 74, 55
2, 1489807, Note_on_c, 0, 55, 60
2, 1489808, Note_on_c, 0, 48, 68
2, 1489810, Note_on_c, 0, 60, 72
2, 1489812, Note_on_c, 0, 51, 46
2, 1489904, Note_on_c, 0, 67, 61
2, 1490004, Note_off_c, 0, 67, 55
2, 1490006, Note_on_c, 0, 72, 63
2, 1490045, Note_off_c, 0, 48, 57
2, 1490061, Note_off_c, 0, 51, 51
2, 1490076, Note_off_c, 0, 55, 55
2, 1490080, Note_off_c, 0, 60, 58
2, 1490105, Note_off_c, 0, 72, 55
2, 1490107, Note_on_c, 0, 75, 64
2, 1490203, Note_off_c, 0, 75, 56
2, 1490205, Note_on_c, 0, 62, 64
2, 1490206, Note_on_c, 0, 53, 55
2, 1490208, Note_on_c, 0, 56, 60
2, 1490305, Note_on_c, 0, 68, 68
2, 1490404, Note_off_c, 0, 68, 57
2, 1490408, Note_on_c, 0, 74, 69
2, 1490460, Note_off_c, 0, 53, 53
2, 1490463, Note_off_c, 0, 62, 56
2, 1490498, Note_off_c, 0, 56, 55
2, 1490505, Note_off_c, 0, 74, 57
2, 1490507, Note_on_c, 0, 77, 71
2, 1490606, Note_off_c, 0, 77, 58
2, 1490607, Note_on_c, 0, 60, 60
2, 1490614, Note_on_c, 0, 63, 69
2, 1490616, Note_on_c, 0, 55, 54
2, 1490689, Note_on_c, 0, 67, 74
2, 1490787, Note_off_c, 0, 67, 59
2, 1490790, Note_on_c, 0, 72, 76
2, 1490810, Note_off_c, 0, 63, 57
2, 1490834, Note_off_c, 0, 60, 55
2, 1490839, Note_off_c, 0, 55, 53
2, 1490889, Note_off_c, 0, 72, 59
2, 1490892, Note_on_c, 0, 75, 77
2, 1490957, Note_off_c, 0, 75, 59
2, 1490986, Note_on_c, 0, 62, 72
2, 1490992, Note_on_c, 0, 59, 68
2, 1490994, Note_on_c, 0, 55, 60
2, 1491074, Note_on_c, 0, 65, 80
2, 1491174, Note_off_c, 0, 65, 60
2, 1491176, Note_on_c, 0, 71, 82
2, 1491213, Note_off_c, 0, 59, 57
2, 1491232, Note_off_c, 0, 55, 55
2, 1491242, Note_off_c, 0, 62, 58
2, 1491273, Note_off_c, 0, 71, 60
2, 1491275, Note_on_c, 0, 74, 84
2, 1491341, Note_off_c, 0, 74, 61
2, 1491345, Note_on_c, 0, 60, 60
2, 1491440, Note_off_c, 0, 60, 55
2, 1491443, Note_on_c, 0, 63, 64
2, 1491542, Note_off_c, 0, 63, 56
2, 1491543, Note_on_c, 0, 67, 69
2, 1491642, Note_off_c, 0, 67, 57
2, 1491644, Note_on_c, 0, 72, 73
2, 1491742, Note_off_c, 0, 72, 58
2, 1491743, Note_on_c, 0, 74, 78
2, 1491840, Note_off_c, 0, 74, 59
2, 1491843, Note_on_c, 0, 72, 82
2, 1491941, Note_off_c, 0, 72, 60
2, 1491943, Note_on_c, 0, 71, 87
2, 1492042, Note_off_c, 0, 71, 61
2, 1492043, Note_on_c, 0, 72, 91
2, 1492127, Note_off_c, 0, 72, 62
2, 1492159, Note_on_c, 0, 56, 90
2, 1492160, Note_on_c, 0, 72, 96
2, 1492260, Note_off_c, 0, 56, 62
2, 1492262, Note_off_c, 0, 72, 63
2, 1492264, Note_on_c, 0, 60, 90
2, 1492265, Note_on_c, 0, 77, 96
2, 1492361, Note_off_c, 0, 60, 62
2, 1492362, Note_off_c, 0, 77, 63
2, 1492364, Note_on_c, 0, 65, 83
2, 1492365, Note_on_c, 0, 80, 92
2, 1492459, Note_off_c, 0, 80, 62
2, 1492462, Note_off_c, 0, 65, 60
2, 1492464, Note_on_c, 0, 84, 87
2, 1492465, Note_on_c, 0, 68, 76
2, 1492561, Note_off_c, 0, 84, 61
2, 1492562, Note_off_c, 0, 68, 59
2, 1492563, Note_on_c, 0, 86, 82
2, 1492565, Note_on_c, 0, 70, 69
2, 1492677, Note_off_c, 0, 86, 60
2, 1492679, Note_off_c, 0, 70, 57
2, 1492680, Note_on_c, 0, 84, 77
2, 1492682, Note_on_c, 0, 68, 62
2, 1492776, Note_off_c, 0, 84, 59
2, 1492779, Note_off_c, 0, 68, 55
2, 1492781, Note_on_c, 0, 67, 54
2, 1492782, Note_on_c, 0, 83, 72
2, 1492879, Note_off_c, 0, 67, 53
2, 1492880, Note_off_c, 0, 83, 58
2, 1492881, Note_on_c, 0, 68, 54
2, 1492882, Note_on_c, 0, 84, 72
2, 1492963, Note_off_c, 0, 68, 53
2, 1492964, Note_off_c, 0, 84, 58
2, 1492978, Note_on_c, 0, 68, 72
2, 1492979, Note_on_c, 0, 53, 60
2, 1493080, Note_off_c, 0, 68, 58
2, 1493081, Note_off_c, 0, 53, 55
2, 1493082, Note_on_c, 0, 72, 78
2, 1493084, Note_on_c, 0, 56, 66
2, 1493180, Note_off_c, 0, 72, 59
2, 1493182, Note_off_c, 0, 56, 56
2, 1493182, Note_on_c, 0, 77, 84
2, 1493184, Note_on_c, 0, 60, 72
2, 1493278, Note_off_c, 0, 77, 61
2, 1493281, Note_off_c, 0, 60, 58
2, 1493283, Note_on_c, 0, 80, 90
2, 1493285, Note_on_c, 0, 65, 78
2, 1493380, Note_off_c, 0, 80, 62
2, 1493381, Note_off_c, 0, 65, 59
2, 1493382, Note_on_c, 0, 82, 96
2, 1493384, Note_on_c, 0, 67, 84
2, 1493496, Note_off_c, 0, 82, 63
2, 1493498, Note_off_c, 0, 67, 61
2, 1493499, Note_on_c, 0, 80, 96
2, 1493501, Note_on_c, 0, 65, 84
2, 1493595, Note_off_c, 0, 80, 63
2, 1493598, Note_off_c, 0, 65, 61
2, 1493600, Note_on_c, 0, 79, 84
2, 1493601, Note_on_c, 0, 64, 72
2, 1493698, Note_off_c, 0, 79, 61
2, 1493699, Note_off_c, 0, 64, 58
2, 1493700, Note_on_c, 0, 80, 72
2, 1493701, Note_on_c, 0, 65, 60
2, 1493782, Note_off_c, 0, 80, 58
2, 1493783, Note_off_c, 0, 65, 55
2, 1493797, Note_on_c, 0, 65, 72
2, 1493798, Note_on_c, 0, 50, 60
2, 1493898, Note_off_c, 0, 65, 58
2, 1493900, Note_off_c, 0, 50, 55
2, 1493901, Note_on_c, 0, 71, 72
2, 1493903, Note_on_c, 0, 53, 60
2, 1493999, Note_off_c, 0, 71, 58
2, 1494001, Note_off_c, 0, 53, 55
2, 1494001, Note_on_c, 0, 74, 80
2, 1494003, Note_on_c, 0, 59, 68
2, 1494097, Note_off_c, 0, 74, 60
2, 1494100, Note_off_c, 0, 59, 57
2, 1494102, Note_on_c, 0, 77, 88
2, 1494104, Note_on_c, 0, 62, 76
2, 1494199, Note_off_c, 0, 77, 62
2, 1494200, Note_off_c, 0, 62, 59
2, 1494201, Note_on_c, 0, 79, 96
2, 1494202, Note_on_c, 0, 63, 84
2, 1494297, Note_off_c, 0, 79, 63
2, 1494299, Note_off_c, 0, 63, 61
2, 1494301, Note_on_c, 0, 77, 96
2, 1494303, Note_on_c, 0, 62, 84
2, 1494414, Note_off_c, 0, 77, 63
2, 1494416, Note_off_c, 0, 62, 61
2, 1494418, Note_on_c, 0, 76, 72
2, 1494420, Note_on_c, 0, 61, 60
2, 1494516, Note_off_c, 0, 76, 58
2, 1494518, Note_off_c, 0, 61, 55
2, 1494519, Note_on_c, 0, 77, 72
2, 1494520, Note_on_c, 0, 62, 60
2, 1494636, Note_on_c, 0, 65, 84
2, 1494636, Note_on_c, 0, 47, 72
2, 1494644, Note_off_c, 0, 77, 58
2, 1494655, Note_off_c, 0, 62, 55
2, 1494733, Note_on_c, 0, 68, 48
2, 1494751, Note_off_c, 0, 65, 61
2, 1494834, Note_on_c, 0, 73, 48
2, 1494854, Note_off_c, 0, 68, 52
2, 1494935, Note_on_c, 0, 74, 51
2, 1494945, Note_off_c, 0, 73, 52
2, 1495036, Note_off_c, 0, 47, 58
2, 1495038, Note_on_c, 0, 75, 60
2, 1495054, Note_off_c, 0, 74, 52
2, 1495134, Note_on_c, 0, 74, 57
2, 1495141, Note_off_c, 0, 75, 55
2, 1495235, Note_on_c, 0, 73, 60
2, 1495252, Note_off_c, 0, 74, 54
2, 1495335, Note_on_c, 0, 74, 60
2, 1495354, Note_off_c, 0, 73, 55
2, 1495435, Note_off_c, 0, 74, 55
2, 1495436, Note_on_c, 0, 65, 60
2, 1495520, Note_on_c, 0, 68, 60
2, 1495524, Note_off_c, 0, 65, 55
2, 1495620, Note_on_c, 0, 73, 59
2, 1495635, Note_off_c, 0, 68, 55
2, 1495718, Note_on_c, 0, 74, 59
2, 1495735, Note_off_c, 0, 73, 54
2, 1495820, Note_on_c, 0, 75, 64
2, 1495842, Note_off_c, 0, 74, 54
2, 1495921, Note_on_c, 0, 74, 58
2, 1495946, Note_off_c, 0, 75, 56
2, 1496020, Note_on_c, 0, 73, 57
2, 1496035, Note_off_c, 0, 74, 54
2, 1496105, Note_on_c, 0, 74, 57
2, 1496119, Note_off_c, 0, 73, 54
2, 1496203, Note_off_c, 0, 74, 54
2, 1496206, Note_on_c, 0, 65, 56
2, 1496304, Note_on_c, 0, 68, 56
2, 1496309, Note_off_c, 0, 65, 54
2, 1496421, Note_on_c, 0, 73, 55
2, 1496429, Note_off_c, 0, 68, 54
2, 1496520, Note_off_c, 0, 73, 53
2, 1496522, Note_on_c, 0, 74, 54
2, 1496622, Note_on_c, 0, 75, 60
2, 1496639, Note_off_c, 0, 74, 53
2, 1496722, Note_on_c, 0, 74, 53
2, 1496741, Note_off_c, 0, 75, 55
2, 1496823, Note_on_c, 0, 73, 53
2, 1496833, Note_off_c, 0, 74, 53
2, 1496923, Note_off_c, 0, 73, 53
2, 1496925, Note_on_c, 0, 74, 52
2, 1497037, Note_off_c, 0, 74, 53
2, 1497041, Note_on_c, 0, 65, 52
2, 1497139, Note_on_c, 0, 68, 51
2, 1497155, Note_off_c, 0, 65, 53
2, 1497239, Note_on_c, 0, 73, 51
2, 1497254, Note_off_c, 0, 68, 52
2, 1497341, Note_on_c, 0, 74, 50
2, 1497350, Note_off_c, 0, 73, 52
2, 1497441, Note_on_c, 0, 75, 56
2, 1497455, Note_off_c, 0, 74, 52
2, 1497541, Note_on_c, 0, 74, 49
2, 1497582, Note_off_c, 0, 75, 54
2, 1497642, Note_on_c, 0, 73, 48
2, 1497662, Note_off_c, 0, 74, 52
2, 1497743, Note_on_c, 0, 74, 48
2, 1497769, Note_off_c, 0, 73, 52
2, 1497841, Note_off_c, 0, 74, 52
2, 1497843, Note_on_c, 0, 65, 47
2, 1497844, Note_on_c, 0, 46, 48
2, 1497846, Control_c, 0, 64, 127
2, 1497853, Note_on_c, 0, 34, 40
2, 1497941, Note_on_c, 0, 68, 47
2, 1497947, Note_off_c, 0, 65, 51
2, 1498042, Note_on_c, 0, 73, 46
2, 1498059, Note_off_c, 0, 68, 51
2, 1498143, Note_on_c, 0, 74, 46
2, 1498160, Note_off_c, 0, 73, 51
2, 1498191, Note_off_c, 0, 34, 50
2, 1498244, Note_off_c, 0, 46, 52
2, 1498247, Note_on_c, 0, 75, 51
2, 1498255, Note_off_c, 0, 74, 51
2, 1498361, Note_on_c, 0, 74, 45
2, 1498382, Note_off_c, 0, 75, 52
2, 1498462, Note_on_c, 0, 73, 44
2, 1498464, Note_off_c, 0, 74, 51
2, 1498579, Note_on_c, 0, 74, 44
2, 1498592, Note_off_c, 0, 73, 51
2, 1498676, Note_off_c, 0, 74, 51
2, 1498677, Note_on_c, 0, 65, 43
2, 1498687, Control_c, 0, 64, 0
2, 1498792, Note_on_c, 0, 68, 42
2, 1498814, Note_off_c, 0, 65, 50
2, 1498893, Control_c, 0, 64, 127
2, 1498910, Note_off_c, 0, 68, 50
2, 1498911, Note_on_c, 0, 73, 42
2, 1499026, Note_on_c, 0, 74, 41
2, 1499038, Note_off_c, 0, 73, 50
2, 1499143, Note_on_c, 0, 75, 47
2, 1499167, Note_off_c, 0, 74, 50
2, 1499278, Note_on_c, 0, 74, 40
2, 1499288, Note_off_c, 0, 75, 51
2, 1499394, Note_on_c, 0, 73, 40
2, 1499414, Note_off_c, 0, 74, 50
2, 1499531, Note_on_c, 0, 74, 39
2, 1499548, Note_off_c, 0, 73, 50
2, 1499645, Note_off_c, 0, 74, 49
2, 1499648, Note_on_c, 0, 65, 39
2, 1499662, Control_c, 0, 64, 0
2, 1499781, Note_on_c, 0, 68, 38
2, 1499822, Note_off_c, 0, 65, 49
2, 1499868, Control_c, 0, 64, 127
2, 1499914, Note_on_c, 0, 73, 38
2, 1499923, Note_off_c, 0, 68, 49
2, 1500064, Note_on_c, 0, 74, 37
2, 1500082, Note_off_c, 0, 73, 49
2, 1500196, Note_on_c, 0, 75, 42
2, 1500206, Note_off_c, 0, 74, 49
2, 1500330, Note_on_c, 0, 74, 36
2, 1500375, Note_off_c, 0, 75, 50
2, 1500482, Note_on_c, 0, 73, 48
2, 1500518, Note_off_c, 0, 74, 49
2, 1500616, Note_on_c, 0, 74, 60
2, 1500646, Note_off_c, 0, 73, 52
2, 1500768, Note_off_c, 0, 74, 55
2, 1500769, Note_on_c, 0, 77, 72
2, 1500892, Control_c, 0, 64, 0
2, 1501096, Control_c, 0, 64, 127
2, 1501401, Note_off_c, 0, 77, 58
2, 1501402, Note_on_c, 0, 75, 60
2, 1501566, Note_off_c, 0, 75, 55
2, 1501617, Note_on_c, 0, 75, 68
2, 1501621, Note_on_c, 0, 68, 44
2, 1501622, Note_on_c, 0, 65, 34
2, 1501624, Note_on_c, 0, 46, 48
2, 1501627, Control_c, 0, 64, 0
2, 1501832, Control_c, 0, 64, 127
2, 1501869, Note_off_c, 0, 46, 52
2, 1501870, Note_on_c, 0, 58, 40
2, 1502054, Note_off_c, 0, 58, 50
2, 1502103, Note_on_c, 0, 74, 60
2, 1502105, Note_on_c, 0, 58, 38
2, 1502137, Note_off_c, 0, 75, 57
2, 1502268, Note_off_c, 0, 58, 49
2, 1502337, Note_on_c, 0, 58, 36
2, 1502503, Note_off_c, 0, 58, 49
2, 1502553, Note_on_c, 0, 58, 34
2, 1502598, Note_off_c, 0, 68, 51
2, 1502695, Note_off_c, 0, 65, 48
2, 1502703, Note_off_c, 0, 58, 48
2, 1502755, Note_on_c, 0, 58, 32
2, 1502757, Note_on_c, 0, 77, 54
2, 1502778, Control_c, 0, 64, 0
2, 1502791, Note_off_c, 0, 74, 55
2, 1502956, Note_off_c, 0, 58, 48
2, 1502958, Note_on_c, 0, 67, 38
2, 1502960, Note_on_c, 0, 75, 52
2, 1502961, Note_on_c, 0, 63, 50
2, 1502982, Control_c, 0, 64, 127
2, 1502990, Note_off_c, 0, 77, 53
2, 1503171, Note_on_c, 0, 72, 50
2, 1503174, Note_on_c, 0, 58, 36
2, 1503208, Note_off_c, 0, 75, 53
2, 1503328, Note_off_c, 0, 67, 49
2, 1503339, Note_off_c, 0, 72, 52
2, 1503392, Note_off_c, 0, 58, 49
2, 1503393, Note_on_c, 0, 72, 72
2, 1503395, Note_on_c, 0, 62, 48
2, 1503396, Note_on_c, 0, 65, 36
2, 1503412, Control_c, 0, 64, 0
2, 1503449, Note_off_c, 0, 63, 52
2, 1503616, Control_c, 0, 64, 127
2, 1503641, Note_on_c, 0, 58, 36
2, 1503824, Note_off_c, 0, 58, 49
2, 1503891, Note_on_c, 0, 70, 50
2, 1503893, Note_on_c, 0, 58, 38
2, 1503930, Note_off_c, 0, 72, 58
2, 1504059, Note_off_c, 0, 58, 49
2, 1504107, Note_on_c, 0, 58, 40
2, 1504161, Note_off_c, 0, 65, 49
2, 1504292, Note_off_c, 0, 58, 50
2, 1504341, Note_off_c, 0, 62, 52
2, 1504344, Note_on_c, 0, 58, 42
2, 1504491, Note_off_c, 0, 58, 50
2, 1504542, Note_on_c, 0, 58, 44
2, 1504544, Note_on_c, 0, 71, 57
2, 1504583, Note_off_c, 0, 70, 52
2, 1504744, Note_off_c, 0, 58, 51
2, 1504746, Note_on_c, 0, 72, 60
2, 1504747, Note_on_c, 0, 50, 46
2, 1504748, Note_on_c, 0, 65, 46
2, 1504749, Control_c, 0, 64, 0
2, 1504780, Note_off_c, 0, 71, 54
2, 1504952, Control_c, 0, 64, 127
2, 1504961, Note_off_c, 0, 50, 51
2, 1504963, Note_on_c, 0, 58, 48
2, 1504964, Note_on_c, 0, 68, 60
2, 1504999, Note_off_c, 0, 72, 55
2, 1505117, Note_off_c, 0, 68, 55
2, 1505160, Note_off_c, 0, 65, 51
2, 1505162, Note_off_c, 0, 58, 52
2, 1505177, Note_on_c, 0, 51, 48
2, 1505178, Note_on_c, 0, 68, 60
2, 1505394, Note_off_c, 0, 51, 52
2, 1505397, Note_on_c, 0, 58, 45
2, 1505398, Note_on_c, 0, 67, 57
2, 1505410, Control_c, 0, 64, 0
2, 1505440, Note_off_c, 0, 68, 55
2, 1505612, Note_off_c, 0, 58, 51
2, 1505613, Note_on_c, 0, 70, 54
2, 1505615, Note_on_c, 0, 55, 42
2, 1505616, Control_c, 0, 64, 127
2, 1505658, Note_off_c, 0, 67, 54
2, 1505829, Note_off_c, 0, 55, 50
2, 1505831, Note_on_c, 0, 63, 51
2, 1505833, Note_on_c, 0, 58, 39
2, 1505875, Note_off_c, 0, 70, 53
2, 1505997, Note_off_c, 0, 63, 52
2, 1506045, Note_off_c, 0, 58, 49
2, 1506047, Note_on_c, 0, 56, 36
2, 1506048, Note_on_c, 0, 63, 48
2, 1506050, Note_on_c, 0, 53, 33
2, 1506054, Control_c, 0, 64, 0
2, 1506245, Note_off_c, 0, 56, 49
2, 1506248, Note_off_c, 0, 53, 48
2, 1506250, Note_on_c, 0, 62, 48
2, 1506252, Note_on_c, 0, 58, 36
2, 1506258, Control_c, 0, 64, 127
2, 1506275, Note_off_c, 0, 63, 52
2, 1506447, Note_off_c, 0, 58, 49
2, 1506449, Note_on_c, 0, 65, 51
2, 1506451, Note_on_c, 0, 51, 35
2, 1506452, Note_on_c, 0, 55, 38
2, 1506477, Note_off_c, 0, 62, 52
2, 1506648, Note_off_c, 0, 55, 49
2, 1506650, Note_off_c, 0, 51, 48
2, 1506652, Note_on_c, 0, 63, 54
2, 1506653, Note_on_c, 0, 58, 40
2, 1506658, Control_c, 0, 64, 0
2, 1506676, Note_off_c, 0, 65, 52
2, 1506863, Control_c, 0, 64, 127
2, 1506864, Note_off_c, 0, 58, 50
2, 1506866, Note_on_c, 0, 67, 57
2, 1506867, Note_on_c, 0, 46, 42
2, 1507098, Note_off_c, 0, 46, 50
2, 1507100, Note_on_c, 0, 58, 44
2, 1507283, Note_off_c, 0, 58, 51
2, 1507347, Note_off_c, 0, 63, 53
2, 1507350, Note_off_c, 0, 67, 54
2, 1507352, Note_on_c, 0, 65, 63
2, 1507354, Note_on_c, 0, 58, 46
2, 1507355, Note_on_c, 0, 62, 57
2, 1507357, Control_c, 0, 64, 0
2, 1507533, Note_off_c, 0, 58, 51
2, 1507560, Control_c, 0, 64, 127
2, 1507581, Note_on_c, 0, 58, 48
2, 1507717, Note_off_c, 0, 65, 55
2, 1507719, Note_off_c, 0, 62, 54
2, 1507825, Note_on_c, 0, 77, 84
2, 1507833, Note_off_c, 0, 58, 52
2, 1507836, Note_on_c, 0, 72, 48
2, 1507838, Note_on_c, 0, 68, 48
2, 1507847, Control_c, 0, 64, 0
2, 1508034, Note_off_c, 0, 72, 52
2, 1508036, Note_off_c, 0, 68, 52
2, 1508037, Note_on_c, 0, 58, 45
2, 1508053, Control_c, 0, 64, 127
2, 1508234, Note_off_c, 0, 58, 51
2, 1508236, Note_on_c, 0, 70, 42
2, 1508237, Note_on_c, 0, 67, 42
2, 1508470, Note_off_c, 0, 70, 50
2, 1508471, Note_off_c, 0, 67, 50
2, 1508473, Note_on_c, 0, 75, 78
2, 1508474, Note_on_c, 0, 58, 39
2, 1508510, Note_off_c, 0, 77, 61
2, 1508593, Control_c, 0, 64, 0
2, 1508635, Note_off_c, 0, 75, 59
2, 1508702, Note_off_c, 0, 58, 49
2, 1508704, Note_on_c, 0, 74, 72
2, 1508705, Note_on_c, 0, 65, 36
2, 1508707, Note_on_c, 0, 68, 36
2, 1508772, Note_on_c, 0, 75, 70
2, 1508799, Note_off_c, 0, 74, 58
2, 1508800, Control_c, 0, 64, 127
2, 1508853, Note_on_c, 0, 77, 68
2, 1508883, Note_off_c, 0, 75, 57
2, 1508937, Note_off_c, 0, 65, 49
2, 1508939, Note_on_c, 0, 75, 66
2, 1508941, Note_on_c, 0, 58, 37
2, 1508965, Note_off_c, 0, 77, 57
2, 1509102, Note_off_c, 0, 58, 49
2, 1509171, Note_off_c, 0, 75, 56
2, 1509173, Note_on_c, 0, 74, 60
2, 1509173, Note_on_c, 0, 58, 40
2, 1509178, Control_c, 0, 64, 0
2, 1509336, Note_off_c, 0, 58, 50
2, 1509355, Note_off_c, 0, 68, 49
2, 1509383, Control_c, 0, 64, 127
2, 1509405, Note_on_c, 0, 58, 44
2, 1509606, Note_off_c, 0, 58, 51
2, 1509639, Note_on_c, 0, 68, 48
2, 1509640, Note_on_c, 0, 65, 48
2, 1509662, Control_c, 0, 64, 0
2, 1509774, Note_off_c, 0, 74, 55
2, 1509775, Note_on_c, 0, 75, 70
2, 1509838, Note_off_c, 0, 65, 52
2, 1509840, Note_on_c, 0, 58, 47
2, 1509866, Control_c, 0, 64, 127
2, 1509906, Note_on_c, 0, 74, 72
2, 1509916, Note_off_c, 0, 75, 57
2, 1510016, Note_off_c, 0, 74, 58
2, 1510038, Note_off_c, 0, 58, 51
2, 1510040, Note_off_c, 0, 68, 52
2, 1510041, Note_on_c, 0, 77, 72
2, 1510043, Note_on_c, 0, 67, 44
2, 1510045, Note_on_c, 0, 63, 44
2, 1510175, Note_on_c, 0, 75, 68
2, 1510188, Note_off_c, 0, 63, 51
2, 1510209, Note_off_c, 0, 77, 58
2, 1510257, Note_on_c, 0, 58, 40
2, 1510323, Note_on_c, 0, 72, 64
2, 1510327, Note_off_c, 0, 75, 57
2, 1510359, Note_off_c, 0, 67, 51
2, 1510383, Control_c, 0, 64, 0
2, 1510390, Note_off_c, 0, 72, 56
2, 1510475, Note_off_c, 0, 58, 50
2, 1510477, Note_on_c, 0, 69, 60
2, 1510479, Note_on_c, 0, 65, 36
2, 1510480, Note_on_c, 0, 62, 36
2, 1510587, Control_c, 0, 64, 127
2, 1510724, Note_off_c, 0, 62, 49
2, 1510725, Note_on_c, 0, 58, 36
2, 1510908, Note_off_c, 0, 58, 49
2, 1510974, Note_off_c, 0, 69, 55
2, 1510976, Note_on_c, 0, 70, 87
2, 1510977, Control_c, 0, 64, 0
2, 1510979, Note_on_c, 0, 58, 40
2, 1511141, Note_off_c, 0, 58, 50
2, 1511182, Control_c, 0, 64, 127
2, 1511193, Note_on_c, 0, 58, 44
2, 1511376, Note_off_c, 0, 58, 51
2, 1511427, Note_off_c, 0, 65, 49
2, 1511428, Note_on_c, 0, 58, 48
2, 1511559, Note_off_c, 0, 70, 61
2, 1511561, Note_on_c, 0, 72, 71
2, 1511578, Note_off_c, 0, 58, 52
2, 1511615, Control_c, 0, 64, 0
2, 1511627, Note_on_c, 0, 58, 46
2, 1511695, Note_on_c, 0, 71, 72
2, 1511721, Note_off_c, 0, 72, 58
2, 1511821, Control_c, 0, 64, 127
2, 1511826, Note_off_c, 0, 58, 51
2, 1511829, Note_on_c, 0, 74, 72
2, 1511830, Note_on_c, 0, 50, 38
2, 1511834, Note_off_c, 0, 71, 58
2, 1511964, Note_on_c, 0, 72, 60
2, 1511997, Note_off_c, 0, 74, 58
2, 1512046, Note_off_c, 0, 50, 49
2, 1512047, Note_on_c, 0, 58, 36
2, 1512054, Control_c, 0, 64, 0
2, 1512113, Note_on_c, 0, 68, 48
2, 1512118, Note_off_c, 0, 72, 55
2, 1512177, Note_off_c, 0, 68, 52
2, 1512246, Note_off_c, 0, 58, 49
2, 1512247, Note_on_c, 0, 67, 48
2, 1512249, Note_on_c, 0, 51, 36
2, 1512259, Control_c, 0, 64, 127
2, 1512397, Note_on_c, 0, 68, 56
2, 1512465, Note_off_c, 0, 51, 49
2, 1512466, Note_on_c, 0, 55, 40
2, 1512469, Note_off_c, 0, 67, 52
2, 1512548, Note_on_c, 0, 67, 64
2, 1512648, Note_off_c, 0, 68, 54
2, 1512662, Note_off_c, 0, 67, 56
2, 1512699, Note_off_c, 0, 55, 50
2, 1512700, Note_on_c, 0, 60, 45
2, 1512701, Note_on_c, 0, 70, 72
2, 1512703, Note_on_c, 0, 44, 45
2, 1512847, Note_on_c, 0, 68, 72
2, 1512911, Note_off_c, 0, 70, 58
2, 1512932, Note_off_c, 0, 44, 51
2, 1512934, Note_on_c, 0, 56, 48
2, 1513014, Note_on_c, 0, 65, 66
2, 1513017, Control_c, 0, 64, 0
2, 1513043, Note_off_c, 0, 68, 58
2, 1513098, Note_off_c, 0, 65, 56
2, 1513183, Note_off_c, 0, 56, 52
2, 1513183, Note_off_c, 0, 60, 51
2, 1513184, Note_on_c, 0, 63, 60
2, 1513186, Note_on_c, 0, 55, 48
2, 1513187, Note_on_c, 0, 46, 48
2, 1513220, Control_c, 0, 64, 127
2, 1513364, Note_off_c, 0, 46, 52
2, 1513416, Note_off_c, 0, 63, 55
2, 1513417, Note_on_c, 0, 46, 44
2, 1513418, Note_on_c, 0, 65, 60
2, 1513497, Note_off_c, 0, 65, 55
2, 1513500, Note_on_c, 0, 63, 64
2, 1513567, Note_off_c, 0, 55, 52
2, 1513568, Note_off_c, 0, 63, 56
2, 1513571, Note_on_c, 0, 62, 69
2, 1513633, Note_off_c, 0, 62, 57
2, 1513634, Note_on_c, 0, 63, 69
2, 1513698, Note_off_c, 0, 46, 51
2, 1513700, Note_off_c, 0, 63, 57
2, 1513701, Note_on_c, 0, 67, 72
2, 1513702, Note_on_c, 0, 62, 50
2, 1513704, Note_on_c, 0, 56, 40
2, 1513705, Note_on_c, 0, 34, 36
2, 1513707, Control_c, 0, 64, 0
2, 1513912, Control_c, 0, 64, 127
2, 1513952, Note_off_c, 0, 34, 49
2, 1513953, Note_on_c, 0, 65, 60
2, 1513954, Note_on_c, 0, 46, 36
2, 1513995, Note_off_c, 0, 67, 58
2, 1514133, Note_off_c, 0, 65, 55
2, 1514200, Note_off_c, 0, 62, 52
2, 1514203, Note_off_c, 0, 56, 50
2, 1514204, Note_off_c, 0, 46, 49
2, 1514205, Note_on_c, 0, 63, 48
2, 1514207, Note_on_c, 0, 39, 36
2, 1514208, Note_on_c, 0, 55, 40
2, 1514281, Control_c, 0, 64, 0
2, 1514488, Control_c, 0, 64, 127
2, 1514619, Note_off_c, 0, 63, 52
2, 1514620, Note_off_c, 0, 55, 50
2, 1514751, Note_off_c, 0, 39, 49
2, 1514753, Note_on_c, 0, 51, 39
2, 1514917, Control_c, 0, 64, 0
2, 1515304, Note_off_c, 0, 51, 49
2, 1515305, Note_on_c, 0, 55, 53
2, 1515403, Note_off_c, 0, 55, 53
2, 1515405, Note_on_c, 0, 58, 54
2, 1515485, Note_off_c, 0, 58, 53
2, 1515505, Note_on_c, 0, 63, 56
2, 1515516, Note_on_c, 0, 58, 45
2, 1515603, Note_off_c, 0, 63, 54
2, 1515606, Note_on_c, 0, 67, 57
2, 1515704, Note_off_c, 0, 67, 54
2, 1515708, Note_on_c, 0, 70, 58
2, 1515709, Note_on_c, 0, 55, 47
2, 1515714, Note_off_c, 0, 58, 51
2, 1515804, Note_off_c, 0, 70, 54
2, 1515806, Note_on_c, 0, 75, 60
2, 1515907, Note_off_c, 0, 75, 55
2, 1515908, Note_on_c, 0, 79, 60
2, 1515909, Note_on_c, 0, 58, 48
2, 1516006, Note_off_c, 0, 79, 55
2, 1516008, Note_on_c, 0, 77, 60
2, 1516106, Note_off_c, 0, 77, 55
2, 1516107, Note_off_c, 0, 58, 52
2, 1516109, Note_on_c, 0, 56, 48
2, 1516110, Note_on_c, 0, 75, 58
2, 1516136, Control_c, 0, 64, 127
2, 1516175, Note_off_c, 0, 55, 51
2, 1516339, Note_on_c, 0, 58, 42
2, 1516590, Note_off_c, 0, 58, 50
2, 1516593, Note_on_c, 0, 74, 48
2, 1516595, Note_on_c, 0, 53, 36
2, 1516599, Control_c, 0, 64, 0
2, 1516658, Note_off_c, 0, 56, 52
2, 1516685, Note_off_c, 0, 75, 54
2, 1516803, Control_c, 0, 64, 127
2, 1516807, Note_on_c, 0, 58, 36
2, 1517025, Note_off_c, 0, 74, 52
2, 1517027, Note_off_c, 0, 58, 49
2, 1517029, Note_on_c, 0, 75, 48
2, 1517030, Note_on_c, 0, 55, 36
2, 1517094, Note_off_c, 0, 53, 49
2, 1517124, Note_off_c, 0, 75, 52
2, 1517183, Control_c, 0, 64, 0
2, 1517225, Note_on_c, 0, 58, 37
2, 1517226, Note_on_c, 0, 77, 57
2, 1517325, Note_off_c, 0, 77, 54
2, 1517428, Note_off_c, 0, 58, 49
2, 1517429, Note_on_c, 0, 79, 66
2, 1517431, Note_on_c, 0, 51, 39
2, 1517496, Note_off_c, 0, 55, 49
2, 1517524, Note_off_c, 0, 79, 56
2, 1517626, Note_on_c, 0, 81, 75
2, 1517627, Note_on_c, 0, 58, 41
2, 1517728, Note_off_c, 0, 81, 59
2, 1517826, Note_off_c, 0, 58, 50
2, 1517830, Note_on_c, 0, 46, 42
2, 1517831, Note_on_c, 0, 84, 84
2, 1517896, Note_off_c, 0, 51, 49
2, 1518079, Note_off_c, 0, 46, 50
2, 1518080, Note_on_c, 0, 58, 44
2, 1518261, Note_off_c, 0, 58, 51
2, 1518313, Note_on_c, 0, 82, 60
2, 1518314, Note_on_c, 0, 58, 46
2, 1518352, Note_off_c, 0, 84, 61
2, 1518477, Note_off_c, 0, 58, 51
2, 1518529, Note_on_c, 0, 58, 48
2, 1518646, Note_off_c, 0, 82, 55
2, 1518746, Note_off_c, 0, 58, 52
2, 1518747, Note_on_c, 0, 55, 48
2, 1518846, Note_off_c, 0, 55, 52
2, 1518848, Note_on_c, 0, 58, 48
2, 1518928, Note_off_c, 0, 58, 52
2, 1518946, Note_on_c, 0, 63, 51
2, 1518957, Note_on_c, 0, 58, 47
2, 1519044, Note_off_c, 0, 63, 52
2, 1519048, Note_on_c, 0, 67, 54
2, 1519146, Note_off_c, 0, 67, 53
2, 1519148, Note_on_c, 0, 70, 58
2, 1519150, Note_on_c, 0, 55, 43
2, 1519155, Note_off_c, 0, 58, 51
2, 1519248, Note_off_c, 0, 70, 54
2, 1519250, Note_on_c, 0, 75, 61
2, 1519348, Note_off_c, 0, 75, 55
2, 1519350, Note_on_c, 0, 79, 65
2, 1519352, Note_on_c, 0, 58, 40
2, 1519448, Note_off_c, 0, 79, 56
2, 1519449, Note_on_c, 0, 77, 68
2, 1519542, Control_c, 0, 64, 127
2, 1519546, Note_off_c, 0, 77, 57
2, 1519549, Note_off_c, 0, 58, 50
2, 1519551, Note_on_c, 0, 75, 72
2, 1519552, Note_on_c, 0, 56, 36
2, 1519586, Note_off_c, 0, 55, 50
2, 1519765, Note_on_c, 0, 58, 36
2, 1519982, Note_off_c, 0, 75, 58
2, 1519984, Note_off_c, 0, 58, 49
2, 1519986, Note_on_c, 0, 74, 60
2, 1519987, Note_on_c, 0, 53, 41
2, 1520015, Control_c, 0, 64, 0
2, 1520022, Note_off_c, 0, 56, 49
2, 1520068, Note_off_c, 0, 74, 55
2, 1520069, Note_on_c, 0, 75, 60
2, 1520151, Note_off_c, 0, 75, 55
2, 1520152, Note_on_c, 0, 74, 61
2, 1520200, Note_on_c, 0, 58, 46
2, 1520221, Control_c, 0, 64, 127
2, 1520232, Note_off_c, 0, 74, 55
2, 1520235, Note_on_c, 0, 72, 63
2, 1520332, Note_off_c, 0, 72, 55
2, 1520334, Note_on_c, 0, 74, 65
2, 1520419, Note_off_c, 0, 58, 51
2, 1520420, Note_off_c, 0, 74, 56
2, 1520421, Note_on_c, 0, 75, 66
2, 1520423, Note_on_c, 0, 55, 51
2, 1520458, Note_off_c, 0, 53, 50
2, 1520535, Note_off_c, 0, 75, 56
2, 1520556, Control_c, 0, 64, 0
2, 1520668, Note_on_c, 0, 77, 71
2, 1520668, Note_on_c, 0, 65, 62
2, 1520669, Note_on_c, 0, 58, 56
2, 1520800, Note_off_c, 0, 77, 58
2, 1520801, Note_off_c, 0, 65, 55
2, 1520935, Note_off_c, 0, 58, 54
2, 1520937, Note_on_c, 0, 79, 75
2, 1520939, Note_on_c, 0, 51, 61
2, 1520941, Note_on_c, 0, 67, 70
2, 1520975, Note_off_c, 0, 55, 52
2, 1521085, Note_off_c, 0, 79, 59
2, 1521087, Note_off_c, 0, 67, 57
2, 1521238, Note_on_c, 0, 81, 79
2, 1521239, Note_on_c, 0, 69, 72
2, 1521240, Note_on_c, 0, 58, 66
2, 1521386, Note_off_c, 0, 81, 60
2, 1521387, Note_off_c, 0, 69, 58
2, 1521389, Note_off_c, 0, 51, 55
2, 1521470, Note_off_c, 0, 58, 56
2, 1521670, Note_on_c, 0, 82, 84
2, 1521672, Note_on_c, 0, 70, 72
2, 1521673, Note_on_c, 0, 58, 80
2, 1521675, Note_on_c, 0, 46, 70
2, 1521682, Control_c, 0, 64, 127
2, 1523008, Note_off_c, 0, 82, 61
2, 1523009, Note_off_c, 0, 70, 58
2, 1523010, Note_off_c, 0, 58, 60
2, 1523011, Note_off_c, 0, 46, 57
2, 1523012, Note_on_c, 0, 89, 48
2, 1523013, Note_on_c, 0, 72, 36
2, 1523014, Note_on_c, 0, 68, 32
2, 1523022, Note_on_c, 0, 77, 38
2, 1523024, Control_c, 0, 64, 0
2, 1523207, Note_off_c, 0, 68, 48
2, 1523209, Note_on_c, 0, 58, 36
2, 1523229, Control_c, 0, 64, 127
2, 1523407, Note_off_c, 0, 72, 49
2, 1523409, Note_off_c, 0, 58, 49
2, 1523411, Note_on_c, 0, 70, 38
2, 1523412, Note_on_c, 0, 67, 36
2, 1523500, Note_off_c, 0, 77, 49
2, 1523625, Note_off_c, 0, 89, 52
2, 1523629, Note_off_c, 0, 67, 49
2, 1523630, Note_on_c, 0, 87, 54
2, 1523631, Note_on_c, 0, 58, 40
2, 1523639, Note_on_c, 0, 75, 44
2, 1523760, Note_off_c, 0, 75, 51
2, 1523792, Note_off_c, 0, 87, 53
2, 1523843, Note_off_c, 0, 58, 50
2, 1523844, Note_off_c, 0, 70, 49
2, 1523846, Note_on_c, 0, 68, 42
2, 1523847, Note_on_c, 0, 87, 57
2, 1523849, Note_on_c, 0, 65, 42
2, 1523856, Note_on_c, 0, 75, 47
2, 1523857, Control_c, 0, 64, 0
2, 1524041, Note_off_c, 0, 65, 50
2, 1524045, Note_on_c, 0, 58, 44
2, 1524061, Control_c, 0, 64, 127
2, 1524174, Note_off_c, 0, 75, 51
2, 1524195, Note_off_c, 0, 58, 51
2, 1524260, Note_on_c, 0, 86, 64
2, 1524262, Note_on_c, 0, 58, 46
2, 1524271, Note_on_c, 0, 74, 54
2, 1524287, Note_off_c, 0, 87, 54
2, 1524339, Control_c, 0, 64, 0
2, 1524414, Note_off_c, 0, 58, 51
2, 1524478, Note_on_c, 0, 58, 49
2, 1524544, Control_c, 0, 64, 127
2, 1524593, Note_off_c, 0, 68, 50
2, 1524678, Note_off_c, 0, 58, 52
2, 1524711, Note_on_c, 0, 68, 51
2, 1524712, Note_on_c, 0, 65, 45
2, 1524808, Note_off_c, 0, 74, 53
2, 1524913, Note_off_c, 0, 86, 56
2, 1524915, Note_off_c, 0, 65, 51
2, 1524917, Note_on_c, 0, 89, 74
2, 1524918, Note_on_c, 0, 58, 53
2, 1524924, Note_on_c, 0, 77, 64
2, 1524949, Control_c, 0, 64, 0
2, 1525091, Note_off_c, 0, 77, 56
2, 1525114, Note_off_c, 0, 89, 59
2, 1525115, Note_off_c, 0, 68, 52
2, 1525116, Note_off_c, 0, 58, 53
2, 1525118, Note_on_c, 0, 87, 77
2, 1525119, Note_on_c, 0, 67, 55
2, 1525120, Note_on_c, 0, 63, 50
2, 1525128, Note_on_c, 0, 75, 67
2, 1525153, Control_c, 0, 64, 127
2, 1525264, Note_off_c, 0, 63, 52
2, 1525294, Note_off_c, 0, 75, 57
2, 1525328, Note_off_c, 0, 87, 59
2, 1525332, Note_on_c, 0, 84, 80
2, 1525334, Note_on_c, 0, 58, 57
2, 1525343, Note_on_c, 0, 72, 70
2, 1525429, Note_off_c, 0, 67, 53
2, 1525480, Note_off_c, 0, 72, 57
2, 1525499, Note_off_c, 0, 84, 60
2, 1525546, Note_off_c, 0, 58, 54
2, 1525549, Note_on_c, 0, 81, 84
2, 1525550, Note_on_c, 0, 65, 69
2, 1525552, Note_on_c, 0, 62, 60
2, 1525558, Note_on_c, 0, 69, 74
2, 1525569, Control_c, 0, 64, 0
2, 1525772, Control_c, 0, 64, 127
2, 1525780, Note_off_c, 0, 62, 55
2, 1525783, Note_on_c, 0, 58, 60
2, 1525966, Note_off_c, 0, 58, 55
2, 1525975, Note_off_c, 0, 69, 59
2, 1526030, Note_off_c, 0, 81, 61
2, 1526034, Note_on_c, 0, 82, 82
2, 1526036, Note_on_c, 0, 58, 58
2, 1526045, Note_on_c, 0, 70, 72
2, 1526055, Control_c, 0, 64, 0
2, 1526199, Note_off_c, 0, 58, 54
2, 1526260, Control_c, 0, 64, 127
2, 1526270, Note_on_c, 0, 58, 56
2, 1526395, Note_off_c, 0, 58, 54
2, 1526466, Note_off_c, 0, 65, 57
2, 1526467, Note_on_c, 0, 58, 53
2, 1526548, Note_off_c, 0, 70, 58
2, 1526615, Note_off_c, 0, 58, 53
2, 1526668, Note_off_c, 0, 82, 60
2, 1526668, Note_on_c, 0, 83, 75
2, 1526670, Note_on_c, 0, 58, 51
2, 1526679, Note_on_c, 0, 71, 65
2, 1526846, Note_off_c, 0, 71, 56
2, 1526865, Note_off_c, 0, 83, 59
2, 1526868, Note_off_c, 0, 58, 52
2, 1526870, Note_on_c, 0, 84, 72
2, 1526872, Note_on_c, 0, 62, 48
2, 1526873, Note_on_c, 0, 50, 43
2, 1526880, Note_on_c, 0, 72, 62
2, 1526884, Control_c, 0, 64, 0
2, 1527028, Note_off_c, 0, 72, 55
2, 1527067, Note_off_c, 0, 84, 58
2, 1527070, Note_off_c, 0, 50, 50
2, 1527071, Note_off_c, 0, 62, 52
2, 1527073, Note_on_c, 0, 58, 46
2, 1527074, Note_on_c, 0, 80, 70
2, 1527081, Note_on_c, 0, 68, 60
2, 1527090, Control_c, 0, 64, 127
2, 1527285, Note_off_c, 0, 58, 51
2, 1527286, Note_on_c, 0, 79, 68
2, 1527288, Note_on_c, 0, 63, 44
2, 1527290, Note_on_c, 0, 51, 40
2, 1527296, Note_on_c, 0, 67, 58
2, 1527351, Note_off_c, 0, 68, 55
2, 1527402, Note_off_c, 0, 80, 57
2, 1527459, Note_off_c, 0, 67, 54
2, 1527502, Note_off_c, 0, 79, 57
2, 1527504, Note_off_c, 0, 51, 50
2, 1527505, Note_off_c, 0, 63, 51
2, 1527506, Note_on_c, 0, 82, 65
2, 1527508, Note_on_c, 0, 55, 41
2, 1527517, Note_on_c, 0, 70, 55
2, 1527527, Control_c, 0, 64, 0
2, 1527709, Note_off_c, 0, 70, 53
2, 1527732, Control_c, 0, 64, 127
2, 1527736, Note_off_c, 0, 82, 56
2, 1527738, Note_off_c, 0, 55, 50
2, 1527739, Note_on_c, 0, 80, 63
2, 1527741, Note_on_c, 0, 44, 39
2, 1527748, Note_on_c, 0, 72, 53
2, 1527920, Note_off_c, 0, 72, 53
2, 1527954, Note_off_c, 0, 80, 55
2, 1527956, Note_off_c, 0, 44, 49
2, 1527957, Note_on_c, 0, 77, 60
2, 1527959, Note_on_c, 0, 56, 36
2, 1527966, Note_on_c, 0, 68, 50
2, 1528111, Note_off_c, 0, 68, 52
2, 1528136, Note_off_c, 0, 77, 55
2, 1528187, Note_off_c, 0, 56, 49
2, 1528189, Note_on_c, 0, 75, 60
2, 1528190, Note_on_c, 0, 67, 42
2, 1528192, Note_on_c, 0, 46, 36
2, 1528200, Control_c, 0, 64, 0
2, 1528285, Note_off_c, 0, 75, 55
2, 1528288, Note_on_c, 0, 77, 60
2, 1528369, Note_off_c, 0, 77, 55
2, 1528371, Note_on_c, 0, 75, 61
2, 1528405, Control_c, 0, 64, 127
2, 1528421, Note_off_c, 0, 46, 49
2, 1528422, Note_on_c, 0, 58, 37
2, 1528472, Note_off_c, 0, 75, 55
2, 1528473, Note_on_c, 0, 74, 61
2, 1528555, Note_off_c, 0, 74, 55
2, 1528557, Note_on_c, 0, 75, 62
2, 1528656, Note_off_c, 0, 75, 55
2, 1528657, Note_off_c, 0, 58, 49
2, 1528659, Note_off_c, 0, 67, 50
2, 1528660, Note_on_c, 0, 79, 72
2, 1528662, Note_on_c, 0, 74, 52
2, 1528663, Note_on_c, 0, 68, 46
2, 1528664, Note_on_c, 0, 34, 39
2, 1528728, Control_c, 0, 64, 0
2, 1528888, Note_off_c, 0, 79, 58
2, 1528891, Note_off_c, 0, 34, 49
2, 1528892, Note_on_c, 0, 77, 64
2, 1528893, Note_on_c, 0, 46, 41
2, 1528931, Control_c, 0, 64, 127
2, 1529122, Note_off_c, 0, 77, 56
2, 1529126, Note_off_c, 0, 74, 53
2, 1529127, Note_off_c, 0, 68, 51
2, 1529128, Note_off_c, 0, 46, 50
2, 1529130, Note_on_c, 0, 75, 65
2, 1529131, Note_on_c, 0, 67, 55
2, 1529132, Note_on_c, 0, 39, 43
2, 1529136, Control_c, 0, 64, 0
2, 1529341, Control_c, 0, 64, 127
2, 1529657, Note_off_c, 0, 75, 56
2, 1529658, Note_off_c, 0, 67, 53
2, 1529660, Note_off_c, 0, 39, 50
2, 1529662, Note_on_c, 0, 51, 48
2, 1529867, Control_c, 0, 64, 0
2, 1530211, Note_off_c, 0, 51, 52
2, 1530212, Note_on_c, 0, 31, 84
2, 1530308, Note_off_c, 0, 31, 61
2, 1530310, Note_on_c, 0, 34, 84
2, 1530409, Note_off_c, 0, 34, 61
2, 1530412, Note_on_c, 0, 58, 56
2, 1530414, Note_on_c, 0, 39, 83
2, 1530510, Note_off_c, 0, 39, 60
2, 1530511, Note_on_c, 0, 43, 81
2, 1530522, Note_off_c, 0, 58, 54
2, 1530608, Note_off_c, 0, 43, 60
2, 1530610, Note_on_c, 0, 58, 55
2, 1530613, Note_on_c, 0, 46, 79
2, 1530710, Note_off_c, 0, 46, 60
2, 1530711, Note_on_c, 0, 51, 78
2, 1530739, Note_off_c, 0, 58, 53
2, 1530811, Note_off_c, 0, 51, 59
2, 1530813, Note_on_c, 0, 58, 51
2, 1530813, Note_on_c, 0, 55, 76
2, 1530912, Note_off_c, 0, 55, 59
2, 1530913, Note_on_c, 0, 53, 74
2, 1530932, Note_off_c, 0, 58, 52
2, 1531009, Note_off_c, 0, 53, 59
2, 1531012, Note_on_c, 0, 56, 40
2, 1531013, Note_on_c, 0, 58, 48
2, 1531015, Note_on_c, 0, 51, 72
2, 1531128, Note_off_c, 0, 58, 52
2, 1531143, Note_off_c, 0, 56, 50
2, 1531228, Note_on_c, 0, 58, 44
2, 1531230, Note_on_c, 0, 56, 36
2, 1531340, Note_off_c, 0, 56, 49
2, 1531341, Note_off_c, 0, 58, 51
2, 1531445, Note_on_c, 0, 58, 44
2, 1531447, Note_on_c, 0, 56, 36
2, 1531448, Note_on_c, 0, 50, 60
2, 1531486, Note_off_c, 0, 51, 58
2, 1531585, Note_off_c, 0, 56, 49
2, 1531588, Note_off_c, 0, 58, 51
2, 1531662, Note_on_c, 0, 56, 36
2, 1531663, Note_on_c, 0, 58, 44
2, 1531779, Note_off_c, 0, 50, 55
2, 1531793, Note_off_c, 0, 56, 49
2, 1531802, Note_off_c, 0, 58, 51
2, 1531897, Note_on_c, 0, 55, 40
2, 1531898, Note_on_c, 0, 58, 48
2, 1532008, Note_off_c, 0, 58, 52
2, 1532020, Note_off_c, 0, 55, 50
2, 1532099, Note_on_c, 0, 55, 40
2, 1532100, Note_on_c, 0, 58, 48
2, 1532207, Note_off_c, 0, 55, 50
2, 1532221, Note_off_c, 0, 58, 52
2, 1532296, Note_on_c, 0, 75, 60
2, 1532299, Note_on_c, 0, 55, 38
2, 1532301, Note_on_c, 0, 58, 46
2, 1532410, Note_off_c, 0, 58, 51
2, 1532416, Note_off_c, 0, 55, 49
2, 1532498, Note_on_c, 0, 55, 36
2, 1532499, Note_on_c, 0, 58, 44
2, 1532611, Note_off_c, 0, 55, 49
2, 1532621, Note_off_c, 0, 58, 51
2, 1532669, Note_off_c, 0, 75, 55
2, 1532699, Note_on_c, 0, 58, 42
2, 1532700, Note_on_c, 0, 75, 60
2, 1532703, Note_on_c, 0, 56, 34
2, 1532820, Note_off_c, 0, 58, 50
2, 1532822, Note_off_c, 0, 56, 48
2, 1532915, Note_on_c, 0, 58, 40
2, 1532918, Note_on_c, 0, 56, 32
2, 1533033, Note_off_c, 0, 58, 50
2, 1533037, Note_off_c, 0, 56, 48
2, 1533134, Note_on_c, 0, 56, 30
2, 1533136, Note_on_c, 0, 58, 38
2, 1533137, Note_on_c, 0, 74, 68
2, 1533196, Note_off_c, 0, 75, 55
2, 1533252, Note_off_c, 0, 58, 49
2, 1533258, Note_off_c, 0, 56, 47
2, 1533349, Note_on_c, 0, 58, 36
2, 1533352, Note_on_c, 0, 56, 28
2, 1533488, Note_off_c, 0, 58, 49
2, 1533514, Note_off_c, 0, 56, 47
2, 1533535, Note_off_c, 0, 74, 57
2, 1533551, Note_on_c, 0, 55, 40
2, 1533552, Note_on_c, 0, 58, 48
2, 1533553, Note_on_c, 0, 31, 84
2, 1533650, Note_off_c, 0, 31, 61
2, 1533652, Note_on_c, 0, 34, 84
2, 1533666, Note_off_c, 0, 58, 52
2, 1533677, Note_off_c, 0, 55, 50
2, 1533752, Note_off_c, 0, 34, 61
2, 1533753, Note_on_c, 0, 55, 39
2, 1533754, Note_on_c, 0, 58, 47
2, 1533756, Note_on_c, 0, 39, 83
2, 1533851, Note_off_c, 0, 39, 60
2, 1533854, Note_on_c, 0, 43, 81
2, 1533863, Note_off_c, 0, 55, 49
2, 1533882, Note_off_c, 0, 58, 51
2, 1533952, Note_off_c, 0, 43, 60
2, 1533954, Note_on_c, 0, 55, 35
2, 1533956, Note_on_c, 0, 58, 43
2, 1533957, Note_on_c, 0, 46, 79
2, 1534052, Note_off_c, 0, 46, 60
2, 1534054, Note_on_c, 0, 51, 78
2, 1534071, Note_off_c, 0, 55, 48
2, 1534074, Note_off_c, 0, 58, 50
2, 1534154, Note_off_c, 0, 51, 59
2, 1534155, Note_on_c, 0, 58, 63
2, 1534157, Note_on_c, 0, 55, 55
2, 1534235, Note_off_c, 0, 55, 53
2, 1534253, Note_on_c, 0, 53, 74
2, 1534272, Note_off_c, 0, 58, 55
2, 1534354, Note_off_c, 0, 53, 59
2, 1534355, Note_on_c, 0, 56, 36
2, 1534357, Note_on_c, 0, 58, 44
2, 1534358, Note_on_c, 0, 51, 72
2, 1534496, Note_off_c, 0, 58, 51
2, 1534498, Note_off_c, 0, 56, 49
2, 1534569, Note_on_c, 0, 58, 40
2, 1534571, Note_on_c, 0, 56, 32
2, 1534699, Note_off_c, 0, 58, 50
2, 1534702, Note_off_c, 0, 56, 48
2, 1534789, Note_on_c, 0, 56, 28
2, 1534791, Note_on_c, 0, 58, 36
2, 1534793, Note_on_c, 0, 50, 60
2, 1534863, Note_off_c, 0, 51, 58
2, 1534915, Note_off_c, 0, 56, 47
2, 1534935, Note_off_c, 0, 58, 49
2, 1535005, Note_on_c, 0, 58, 32
2, 1535007, Note_on_c, 0, 56, 24
2, 1535122, Note_off_c, 0, 50, 55
2, 1535164, Note_off_c, 0, 56, 46
2, 1535181, Note_off_c, 0, 58, 48
2, 1535222, Note_on_c, 0, 55, 40
2, 1535224, Note_on_c, 0, 58, 48
2, 1535337, Note_off_c, 0, 58, 52
2, 1535353, Note_off_c, 0, 55, 50
2, 1535424, Note_on_c, 0, 55, 40
2, 1535425, Note_on_c, 0, 58, 48
2, 1535538, Note_off_c, 0, 55, 50
2, 1535539, Note_off_c, 0, 58, 52
2, 1535622, Note_on_c, 0, 75, 60
2, 1535624, Note_on_c, 0, 55, 38
2, 1535625, Note_on_c, 0, 58, 46
2, 1535733, Note_off_c, 0, 55, 49
2, 1535746, Note_off_c, 0, 58, 51
2, 1535823, Note_on_c, 0, 55, 36
2, 1535824, Note_on_c, 0, 58, 44
2, 1535934, Note_off_c, 0, 58, 51
2, 1535944, Note_off_c, 0, 55, 49
2, 1536024, Note_on_c, 0, 60, 42
2, 1536026, Note_on_c, 0, 76, 64
2, 1536027, Note_on_c, 0, 55, 34
2, 1536029, Note_on_c, 0, 58, 36
2, 1536139, Note_off_c, 0, 75, 55
2, 1536181, Note_off_c, 0, 55, 48
2, 1536186, Note_off_c, 0, 60, 50
2, 1536197, Note_off_c, 0, 58, 49
2, 1536242, Note_on_c, 0, 55, 32
2, 1536243, Note_on_c, 0, 60, 40
2, 1536244, Note_on_c, 0, 58, 34
2, 1536390, Note_off_c, 0, 58, 48
2, 1536407, Note_off_c, 0, 55, 48
2, 1536407, Note_off_c, 0, 60, 50
2, 1536458, Note_on_c, 0, 77, 69
2, 1536460, Note_on_c, 0, 56, 30
2, 1536461, Note_on_c, 0, 60, 38
2, 1536502, Note_off_c, 0, 76, 56
2, 1536605, Note_off_c, 0, 56, 47
2, 1536612, Note_off_c, 0, 60, 49
2, 1536675, Note_on_c, 0, 60, 36
2, 1536677, Note_on_c, 0, 56, 28
2, 1536775, Note_off_c, 0, 77, 57
2, 1536825, Note_off_c, 0, 60, 49
2, 1536829, Note_off_c, 0, 56, 47
2, 1536893, Note_on_c, 0, 60, 57
2, 1536896, Note_on_c, 0, 56, 49
2, 1536993, Note_on_c, 0, 36, 84
2, 1537002, Note_off_c, 0, 60, 54
2, 1537020, Note_off_c, 0, 56, 52
2, 1537093, Note_off_c, 0, 36, 61
2, 1537095, Note_on_c, 0, 60, 55
2, 1537097, Note_on_c, 0, 56, 47
2, 1537098, Note_on_c, 0, 41, 84
2, 1537195, Note_off_c, 0, 41, 61
2, 1537197, Note_on_c, 0, 44, 80
2, 1537205, Note_off_c, 0, 56, 51
2, 1537226, Note_off_c, 0, 60, 53
2, 1537292, Note_off_c, 0, 44, 60
2, 1537296, Note_on_c, 0, 56, 41
2, 1537297, Note_on_c, 0, 60, 49
2, 1537298, Note_on_c, 0, 48, 76
2, 1537393, Note_off_c, 0, 48, 59
2, 1537396, Note_on_c, 0, 53, 72
2, 1537446, Note_off_c, 0, 56, 50
2, 1537447, Note_off_c, 0, 60, 52
2, 1537493, Note_off_c, 0, 53, 58
2, 1537496, Note_on_c, 0, 56, 44
2, 1537497, Note_on_c, 0, 60, 48
2, 1537594, Note_off_c, 0, 56, 51
2, 1537596, Note_on_c, 0, 55, 64
2, 1537645, Note_off_c, 0, 60, 52
2, 1537696, Note_off_c, 0, 55, 56
2, 1537696, Note_on_c, 0, 60, 53
2, 1537698, Note_on_c, 0, 58, 47
2, 1537700, Note_on_c, 0, 53, 60
2, 1537820, Note_off_c, 0, 60, 53
2, 1537826, Note_off_c, 0, 58, 51
2, 1537913, Note_on_c, 0, 58, 42
2, 1537915, Note_on_c, 0, 60, 48
2, 1538046, Note_off_c, 0, 58, 50
2, 1538059, Note_off_c, 0, 60, 52
2, 1538131, Note_on_c, 0, 58, 36
2, 1538133, Note_on_c, 0, 60, 42
2, 1538134, Note_on_c, 0, 52, 48
2, 1538184, Note_off_c, 0, 53, 55
2, 1538253, Note_off_c, 0, 60, 50
2, 1538260, Note_off_c, 0, 58, 49
2, 1538346, Note_on_c, 0, 60, 36
2, 1538349, Note_on_c, 0, 58, 30
2, 1538446, Note_off_c, 0, 52, 52
2, 1538473, Note_off_c, 0, 58, 47
2, 1538475, Note_off_c, 0, 60, 49
2, 1538563, Note_on_c, 0, 60, 36
2, 1538566, Note_on_c, 0, 56, 30
2, 1538691, Note_off_c, 0, 60, 49
2, 1538694, Note_off_c, 0, 56, 47
2, 1538765, Note_on_c, 0, 56, 30
2, 1538767, Note_on_c, 0, 60, 36
2, 1538888, Note_off_c, 0, 56, 47
2, 1538897, Note_off_c, 0, 60, 49
2, 1538966, Note_on_c, 0, 60, 38
2, 1538968, Note_on_c, 0, 77, 60
2, 1538970, Note_on_c, 0, 56, 32
2, 1539086, Note_off_c, 0, 56, 48
2, 1539108, Note_off_c, 0, 60, 49
2, 1539165, Note_on_c, 0, 60, 40
2, 1539168, Note_on_c, 0, 56, 34
2, 1539317, Note_off_c, 0, 77, 55
2, 1539334, Note_off_c, 0, 56, 48
2, 1539340, Note_off_c, 0, 60, 50
2, 1539368, Note_on_c, 0, 77, 60
2, 1539371, Note_on_c, 0, 58, 36
2, 1539373, Note_on_c, 0, 60, 42
2, 1539516, Note_off_c, 0, 60, 50
2, 1539541, Note_off_c, 0, 58, 49
2, 1539600, Note_on_c, 0, 58, 38
2, 1539601, Note_on_c, 0, 60, 44
2, 1539753, Note_off_c, 0, 58, 49
2, 1539766, Note_off_c, 0, 60, 51
2, 1539833, Note_on_c, 0, 60, 46
2, 1539834, Note_on_c, 0, 76, 54
2, 1539837, Note_on_c, 0, 58, 40
2, 1539909, Note_off_c, 0, 77, 55
2, 1539993, Note_off_c, 0, 60, 51
2, 1539995, Note_off_c, 0, 58, 50
2, 1540068, Note_on_c, 0, 58, 42
2, 1540069, Note_on_c, 0, 60, 48
2, 1540185, Note_off_c, 0, 76, 53
2, 1540215, Note_off_c, 0, 58, 50
2, 1540228, Note_off_c, 0, 60, 52
2, 1540302, Note_on_c, 0, 56, 41
2, 1540303, Note_on_c, 0, 60, 47
2, 1540415, Note_off_c, 0, 56, 50
2, 1540433, Note_off_c, 0, 60, 51
2, 1540503, Note_on_c, 0, 56, 37
2, 1540505, Note_on_c, 0, 60, 43
2, 1540506, Note_on_c, 0, 41, 58
2, 1540623, Note_off_c, 0, 60, 50
2, 1540628, Note_off_c, 0, 56, 49
2, 1540660, Note_off_c, 0, 41, 54
2, 1540702, Note_on_c, 0, 60, 40
2, 1540705, Note_on_c, 0, 56, 34
2, 1540706, Note_on_c, 0, 41, 58
2, 1540815, Note_off_c, 0, 56, 48
2, 1540824, Note_off_c, 0, 60, 50
2, 1540860, Note_off_c, 0, 41, 54
2, 1540903, Note_on_c, 0, 56, 30
2, 1540904, Note_on_c, 0, 60, 36
2, 1540906, Note_on_c, 0, 41, 58
2, 1541013, Note_off_c, 0, 60, 49
2, 1541032, Note_off_c, 0, 56, 47
2, 1541104, Note_off_c, 0, 41, 54
2, 1541106, Note_on_c, 0, 60, 48
2, 1541108, Note_on_c, 0, 58, 42
2, 1541109, Note_on_c, 0, 40, 59
2, 1541204, Note_on_c, 0, 41, 59
2, 1541217, Note_off_c, 0, 58, 50
2, 1541226, Note_off_c, 0, 60, 52
2, 1541232, Note_off_c, 0, 40, 54
2, 1541305, Note_on_c, 0, 58, 40
2, 1541307, Note_on_c, 0, 60, 46
2, 1541309, Note_on_c, 0, 43, 60
2, 1541331, Note_off_c, 0, 41, 54
2, 1541422, Note_on_c, 0, 41, 60
2, 1541447, Note_off_c, 0, 58, 50
2, 1541451, Note_off_c, 0, 60, 51
2, 1541461, Note_off_c, 0, 43, 55
2, 1541504, Note_off_c, 0, 41, 55
2, 1541520, Note_on_c, 0, 60, 41
2, 1541523, Note_on_c, 0, 58, 35
2, 1541525, Note_on_c, 0, 40, 48
2, 1541657, Note_off_c, 0, 60, 50
2, 1541661, Note_off_c, 0, 58, 48
2, 1541740, Note_off_c, 0, 40, 52
2, 1541741, Note_on_c, 0, 60, 36
2, 1541743, Note_on_c, 0, 58, 30
2, 1541863, Note_off_c, 0, 58, 47
2, 1541869, Note_off_c, 0, 60, 49
2, 1541956, Note_on_c, 0, 56, 27
2, 1541957, Note_on_c, 0, 60, 33
2, 1542058, Note_off_c, 0, 56, 46
2, 1542058, Note_off_c, 0, 60, 48
2, 1542157, Note_on_c, 0, 60, 33
2, 1542159, Note_on_c, 0, 65, 37
2, 1542160, Note_on_c, 0, 77, 72
2, 1542161, Note_on_c, 0, 56, 27
2, 1542268, Note_off_c, 0, 65, 49
2, 1542279, Note_off_c, 0, 60, 48
2, 1542285, Note_off_c, 0, 56, 46
2, 1542310, Note_off_c, 0, 77, 58
2, 1542356, Note_on_c, 0, 77, 72
2, 1542359, Note_on_c, 0, 60, 31
2, 1542360, Note_on_c, 0, 65, 41
2, 1542362, Note_on_c, 0, 56, 26
2, 1542467, Note_off_c, 0, 65, 50
2, 1542475, Note_off_c, 0, 60, 47
2, 1542491, Note_off_c, 0, 56, 46
2, 1542512, Note_off_c, 0, 77, 58
2, 1542558, Note_on_c, 0, 65, 45
2, 1542559, Note_on_c, 0, 77, 75
2, 1542562, Note_on_c, 0, 56, 35
2, 1542562, Note_on_c, 0, 60, 41
2, 1542704, Note_off_c, 0, 56, 48
2, 1542706, Note_off_c, 0, 65, 51
2, 1542708, Note_off_c, 0, 60, 50
2, 1542759, Note_off_c, 0, 77, 59
2, 1542761, Note_on_c, 0, 76, 78
2, 1542764, Note_on_c, 0, 58, 37
2, 1542765, Note_on_c, 0, 60, 41
2, 1542767, Note_on_c, 0, 67, 45
2, 1542876, Note_on_c, 0, 77, 80
2, 1542878, Note_off_c, 0, 58, 49
2, 1542880, Note_off_c, 0, 67, 51
2, 1542900, Note_off_c, 0, 76, 59
2, 1542907, Note_off_c, 0, 60, 50
2, 1542977, Note_on_c, 0, 60, 37
2, 1542979, Note_on_c, 0, 67, 41
2, 1542980, Note_on_c, 0, 79, 82
2, 1542981, Note_on_c, 0, 58, 33
2, 1542990, Note_off_c, 0, 77, 60
2, 1543094, Note_on_c, 0, 77, 84
2, 1543097, Note_off_c, 0, 67, 50
2, 1543110, Note_off_c, 0, 60, 49
2, 1543118, Note_off_c, 0, 79, 60
2, 1543129, Note_off_c, 0, 58, 48
2, 1543174, Note_off_c, 0, 77, 61
2, 1543192, Note_on_c, 0, 76, 72
2, 1543194, Note_on_c, 0, 60, 33
2, 1543196, Note_on_c, 0, 67, 37
2, 1543197, Note_on_c, 0, 58, 29
2, 1543306, Note_off_c, 0, 67, 49
2, 1543321, Note_off_c, 0, 60, 48
2, 1543337, Note_off_c, 0, 58, 47
2, 1543391, Note_off_c, 0, 76, 58
2, 1543409, Note_on_c, 0, 67, 33
2, 1543412, Note_on_c, 0, 58, 25
2, 1543413, Note_on_c, 0, 60, 29
2, 1543540, Note_off_c, 0, 67, 48
2, 1543542, Note_off_c, 0, 60, 47
2, 1543554, Note_off_c, 0, 58, 46
2, 1543626, Note_on_c, 0, 60, 30
2, 1543627, Note_on_c, 0, 65, 36
2, 1543629, Note_on_c, 0, 56, 27
2, 1543734, Note_off_c, 0, 60, 47
2, 1543738, Note_off_c, 0, 56, 46
2, 1543743, Note_off_c, 0, 65, 49
2, 1543828, Note_on_c, 0, 60, 30
2, 1543829, Note_on_c, 0, 65, 36
2, 1543831, Note_on_c, 0, 56, 27
2, 1543832, Note_on_c, 0, 41, 58
2, 1543926, Note_off_c, 0, 65, 49
2, 1543943, Note_off_c, 0, 60, 47
2, 1543959, Note_off_c, 0, 56, 46
2, 1543995, Note_off_c, 0, 41, 54
2, 1544028, Note_on_c, 0, 65, 39
2, 1544030, Note_on_c, 0, 56, 30
2, 1544031, Note_on_c, 0, 60, 33
2, 1544033, Note_on_c, 0, 41, 58
2, 1544141, Note_off_c, 0, 65, 49
2, 1544148, Note_off_c, 0, 56, 47
2, 1544165, Note_off_c, 0, 60, 48
2, 1544196, Note_off_c, 0, 41, 54
2, 1544228, Note_on_c, 0, 65, 42
2, 1544231, Note_on_c, 0, 56, 33
2, 1544232, Note_on_c, 0, 60, 36
2, 1544234, Note_on_c, 0, 41, 58
2, 1544345, Note_off_c, 0, 60, 49
2, 1544347, Note_off_c, 0, 65, 50
2, 1544355, Note_off_c, 0, 56, 48
2, 1544415, Note_off_c, 0, 41, 54
2, 1544430, Note_on_c, 0, 58, 40
2, 1544431, Note_on_c, 0, 65, 46
2, 1544432, Note_on_c, 0, 56, 37
2, 1544434, Note_on_c, 0, 38, 59
2, 1544530, Note_on_c, 0, 39, 59
2, 1544541, Note_off_c, 0, 65, 51
2, 1544548, Note_off_c, 0, 56, 49
2, 1544551, Note_off_c, 0, 38, 54
2, 1544554, Note_off_c, 0, 58, 50
2, 1544647, Note_off_c, 0, 39, 54
2, 1544648, Note_on_c, 0, 58, 42
2, 1544649, Note_on_c, 0, 65, 48
2, 1544651, Note_on_c, 0, 56, 39
2, 1544652, Note_on_c, 0, 41, 60
2, 1544748, Note_on_c, 0, 39, 60
2, 1544772, Note_off_c, 0, 41, 55
2, 1544774, Note_off_c, 0, 58, 50
2, 1544776, Note_off_c, 0, 56, 49
2, 1544778, Note_off_c, 0, 65, 52
2, 1544829, Note_off_c, 0, 39, 55
2, 1544863, Note_on_c, 0, 65, 47
2, 1544866, Note_on_c, 0, 56, 38
2, 1544867, Note_on_c, 0, 58, 41
2, 1544868, Note_on_c, 0, 38, 48
2, 1544982, Note_off_c, 0, 56, 49
2, 1544996, Note_off_c, 0, 65, 51
2, 1544998, Note_off_c, 0, 58, 50
2, 1545066, Note_off_c, 0, 38, 52
2, 1545080, Note_on_c, 0, 65, 36
2, 1545083, Note_on_c, 0, 56, 27
2, 1545084, Note_on_c, 0, 58, 30
2, 1545181, Note_off_c, 0, 58, 47
2, 1545193, Note_off_c, 0, 65, 49
2, 1545206, Note_off_c, 0, 56, 46
2, 1545299, Note_on_c, 0, 63, 33
2, 1545301, Note_on_c, 0, 55, 24
2, 1545303, Note_on_c, 0, 58, 27
2, 1545393, Note_off_c, 0, 58, 46
2, 1545401, Note_off_c, 0, 55, 46
2, 1545410, Note_off_c, 0, 63, 48
2, 1545498, Note_on_c, 0, 63, 36
2, 1545499, Note_on_c, 0, 75, 72
2, 1545502, Note_on_c, 0, 55, 27
2, 1545503, Note_on_c, 0, 58, 30
2, 1545605, Note_off_c, 0, 63, 49
2, 1545609, Note_off_c, 0, 58, 47
2, 1545612, Note_off_c, 0, 55, 46
2, 1545665, Note_off_c, 0, 75, 58
2, 1545700, Note_on_c, 0, 58, 33
2, 1545701, Note_on_c, 0, 63, 39
2, 1545702, Note_on_c, 0, 75, 72
2, 1545704, Note_on_c, 0, 55, 30
2, 1545815, Note_off_c, 0, 63, 49
2, 1545818, Note_off_c, 0, 55, 47
2, 1545824, Note_off_c, 0, 58, 48
2, 1545865, Note_off_c, 0, 75, 58
2, 1545900, Note_on_c, 0, 75, 76
2, 1545902, Note_on_c, 0, 58, 36
2, 1545903, Note_on_c, 0, 63, 42
2, 1545905, Note_on_c, 0, 55, 33
2, 1546022, Note_off_c, 0, 63, 50
2, 1546033, Note_off_c, 0, 55, 48
2, 1546045, Note_off_c, 0, 58, 49
2, 1546100, Note_off_c, 0, 75, 59
2, 1546105, Note_on_c, 0, 58, 36
2, 1546106, Note_on_c, 0, 65, 42
2, 1546107, Note_on_c, 0, 74, 80
2, 1546108, Note_on_c, 0, 56, 33
2, 1546200, Note_on_c, 0, 75, 82
2, 1546204, Note_off_c, 0, 58, 49
2, 1546217, Note_off_c, 0, 65, 50
2, 1546240, Note_off_c, 0, 56, 48
2, 1546247, Note_off_c, 0, 74, 60
2, 1546303, Note_off_c, 0, 75, 60
2, 1546317, Note_on_c, 0, 65, 44
2, 1546318, Note_on_c, 0, 77, 84
2, 1546320, Note_on_c, 0, 56, 35
2, 1546322, Note_on_c, 0, 58, 38
2, 1546420, Note_on_c, 0, 75, 84
2, 1546435, Note_off_c, 0, 56, 48
2, 1546437, Note_off_c, 0, 58, 49
2, 1546440, Note_off_c, 0, 65, 51
2, 1546447, Note_off_c, 0, 77, 61
2, 1546501, Note_off_c, 0, 75, 61
2, 1546537, Note_on_c, 0, 58, 40
2, 1546538, Note_on_c, 0, 65, 46
2, 1546539, Note_on_c, 0, 74, 80
2, 1546540, Note_on_c, 0, 56, 37
2, 1546653, Note_off_c, 0, 56, 49
2, 1546656, Note_off_c, 0, 58, 50
2, 1546663, Note_off_c, 0, 65, 51
2, 1546718, Note_off_c, 0, 74, 60
2, 1546750, Note_on_c, 0, 65, 49
2, 1546754, Note_on_c, 0, 56, 40
2, 1546755, Note_on_c, 0, 58, 43
2, 1546857, Note_off_c, 0, 65, 52
2, 1546868, Note_off_c, 0, 58, 50
2, 1546876, Note_off_c, 0, 56, 50
2, 1546953, Note_on_c, 0, 63, 42
2, 1546955, Note_on_c, 0, 55, 33
2, 1546956, Note_on_c, 0, 58, 36
2, 1547066, Note_off_c, 0, 63, 50
2, 1547079, Note_off_c, 0, 58, 49
2, 1547082, Note_off_c, 0, 55, 48
2, 1547153, Note_on_c, 0, 58, 36
2, 1547154, Note_on_c, 0, 63, 42
2, 1547156, Note_on_c, 0, 55, 33
2, 1547157, Note_on_c, 0, 39, 72
2, 1547260, Note_off_c, 0, 58, 49
2, 1547271, Note_off_c, 0, 63, 50
2, 1547287, Note_off_c, 0, 55, 48
2, 1547296, Note_off_c, 0, 39, 58
2, 1547355, Note_on_c, 0, 55, 33
2, 1547356, Note_on_c, 0, 58, 36
2, 1547357, Note_on_c, 0, 63, 42
2, 1547358, Note_on_c, 0, 39, 72
2, 1547472, Note_off_c, 0, 58, 49
2, 1547480, Note_off_c, 0, 63, 50
2, 1547482, Note_off_c, 0, 55, 48
2, 1547496, Note_off_c, 0, 39, 58
2, 1547554, Note_on_c, 0, 63, 43
2, 1547555, Note_on_c, 0, 55, 34
2, 1547557, Note_on_c, 0, 58, 37
2, 1547558, Note_on_c, 0, 39, 72
2, 1547668, Note_off_c, 0, 63, 50
2, 1547680, Note_off_c, 0, 58, 49
2, 1547688, Note_off_c, 0, 55, 48
2, 1547741, Note_off_c, 0, 39, 58
2, 1547744, Control_c, 0, 64, 98
2, 1547755, Note_on_c, 0, 58, 62
2, 1547757, Note_on_c, 0, 68, 72
2, 1547759, Note_on_c, 0, 38, 72
2, 1547761, Note_on_c, 0, 56, 54
2, 1547872, Note_on_c, 0, 39, 72
2, 1547898, Note_off_c, 0, 38, 58
2, 1547972, Note_on_c, 0, 41, 72
2, 1547994, Note_off_c, 0, 39, 58
2, 1548090, Note_on_c, 0, 39, 72
2, 1548113, Note_off_c, 0, 41, 58
2, 1548124, Control_c, 0, 64, 0
2, 1548172, Note_off_c, 0, 39, 58
2, 1548189, Note_on_c, 0, 38, 72
2, 1548256, Note_off_c, 0, 58, 55
2, 1548306, Note_off_c, 0, 38, 58
2, 1548405, Note_on_c, 0, 34, 72
2, 1548488, Note_off_c, 0, 56, 53
2, 1548523, Note_off_c, 0, 34, 58
2, 1548607, Note_off_c, 0, 68, 58
2, 1548623, Note_on_c, 0, 67, 74
2, 1548626, Note_on_c, 0, 58, 64
2, 1548627, Note_on_c, 0, 55, 58
2, 1548629, Note_on_c, 0, 39, 72
2, 1548631, Control_c, 0, 64, 99
2, 1548723, Note_on_c, 0, 41, 72
2, 1548747, Note_off_c, 0, 39, 58
2, 1548825, Note_on_c, 0, 43, 72
2, 1548879, Note_off_c, 0, 41, 58
2, 1548925, Note_on_c, 0, 41, 72
2, 1548965, Note_off_c, 0, 43, 58
2, 1548968, Control_c, 0, 64, 0
2, 1549011, Note_off_c, 0, 41, 58
2, 1549026, Note_on_c, 0, 39, 72
2, 1549125, Note_off_c, 0, 39, 58
2, 1549224, Note_on_c, 0, 34, 72
2, 1549294, Note_off_c, 0, 58, 56
2, 1549320, Note_off_c, 0, 55, 54
2, 1549325, Note_off_c, 0, 34, 58
2, 1549426, Note_off_c, 0, 67, 59
2, 1549427, Note_on_c, 0, 62, 67
2, 1549429, Note_on_c, 0, 50, 72
2, 1549431, Note_on_c, 0, 46, 72
2, 1549432, Note_on_c, 0, 44, 72
2, 1549433, Note_on_c, 0, 41, 72
2, 1549436, Control_c, 0, 64, 127
2, 1549526, Note_on_c, 0, 63, 67
2, 1549553, Note_off_c, 0, 62, 57
2, 1549626, Note_on_c, 0, 65, 68
2, 1549645, Note_off_c, 0, 63, 57
2, 1549728, Note_on_c, 0, 63, 68
2, 1549743, Control_c, 0, 64, 0
2, 1549748, Note_off_c, 0, 65, 57
2, 1549810, Note_off_c, 0, 63, 57
2, 1549825, Note_on_c, 0, 62, 68
2, 1549942, Note_off_c, 0, 62, 57
2, 1550055, Note_off_c, 0, 50, 58
2, 1550060, Note_on_c, 0, 58, 69
2, 1550078, Note_off_c, 0, 41, 58
2, 1550133, Note_off_c, 0, 46, 58
2, 1550135, Note_off_c, 0, 44, 58
2, 1550177, Note_off_c, 0, 58, 57
2, 1550294, Note_on_c, 0, 63, 70
2, 1550296, Note_on_c, 0, 51, 72
2, 1550297, Note_on_c, 0, 46, 72
2, 1550299, Note_on_c, 0, 43, 72
2, 1550304, Control_c, 0, 64, 100
2, 1550397, Note_on_c, 0, 65, 70
2, 1550420, Note_off_c, 0, 63, 57
2, 1550494, Note_on_c, 0, 67, 70
2, 1550516, Note_off_c, 0, 65, 57
2, 1550595, Note_on_c, 0, 65, 71
2, 1550635, Note_off_c, 0, 67, 57
2, 1550639, Control_c, 0, 64, 0
2, 1550679, Note_off_c, 0, 65, 58
2, 1550696, Note_on_c, 0, 63, 71
2, 1550778, Note_off_c, 0, 43, 58
2, 1550814, Note_off_c, 0, 63, 58
2, 1550817, Note_off_c, 0, 51, 58
2, 1550835, Note_off_c, 0, 46, 58
2, 1550930, Note_on_c, 0, 70, 72
2, 1550932, Note_on_c, 0, 58, 72
2, 1550934, Note_on_c, 0, 46, 72
2, 1551048, Note_off_c, 0, 70, 58
2, 1551050, Note_off_c, 0, 58, 58
2, 1551165, Note_off_c, 0, 46, 58
2, 1551166, Note_on_c, 0, 80, 78
2, 1551168, Note_on_c, 0, 70, 68
2, 1551170, Note_on_c, 0, 50, 72
2, 1551171, Note_on_c, 0, 68, 60
2, 1551176, Control_c, 0, 64, 98
2, 1551282, Note_on_c, 0, 51, 72
2, 1551311, Note_off_c, 0, 50, 58
2, 1551382, Note_on_c, 0, 53, 72
2, 1551397, Note_off_c, 0, 51, 58
2, 1551498, Note_on_c, 0, 51, 72
2, 1551517, Control_c, 0, 64, 0
2, 1551521, Note_off_c, 0, 53, 58
2, 1551564, Note_off_c, 0, 51, 58
2, 1551597, Note_on_c, 0, 50, 72
2, 1551714, Note_off_c, 0, 50, 58
2, 1551832, Note_on_c, 0, 46, 72
2, 1551881, Note_off_c, 0, 70, 57
2, 1551903, Note_off_c, 0, 68, 55
2, 1551948, Note_off_c, 0, 46, 58
2, 1552047, Note_off_c, 0, 80, 59
2, 1552065, Note_on_c, 0, 79, 75
2, 1552068, Note_on_c, 0, 70, 70
2, 1552068, Note_on_c, 0, 67, 66
2, 1552070, Note_on_c, 0, 51, 72
2, 1552077, Control_c, 0, 64, 98
2, 1552167, Note_on_c, 0, 53, 72
2, 1552188, Note_off_c, 0, 51, 58
2, 1552267, Note_on_c, 0, 55, 72
2, 1552297, Note_off_c, 0, 53, 58
2, 1552367, Note_on_c, 0, 53, 72
2, 1552388, Note_off_c, 0, 55, 58
2, 1552394, Control_c, 0, 64, 0
2, 1552432, Note_off_c, 0, 53, 58
2, 1552466, Note_on_c, 0, 51, 72
2, 1552505, Note_off_c, 0, 70, 57
2, 1552541, Note_off_c, 0, 67, 56
2, 1552569, Note_off_c, 0, 51, 58
2, 1552667, Note_off_c, 0, 79, 59
2, 1552685, Note_on_c, 0, 46, 72
2, 1552687, Note_on_c, 0, 70, 77
2, 1552783, Note_off_c, 0, 46, 58
2, 1552901, Note_off_c, 0, 70, 59
2, 1552903, Note_on_c, 0, 62, 72
2, 1552905, Note_on_c, 0, 74, 78
2, 1552906, Note_on_c, 0, 53, 78
2, 1552908, Note_on_c, 0, 58, 60
2, 1552909, Note_on_c, 0, 56, 75
2, 1552912, Control_c, 0, 64, 98
2, 1553003, Note_on_c, 0, 75, 78
2, 1553017, Note_off_c, 0, 74, 59
2, 1553103, Note_on_c, 0, 77, 79
2, 1553120, Note_off_c, 0, 75, 59
2, 1553202, Note_on_c, 0, 75, 79
2, 1553228, Control_c, 0, 64, 0
2, 1553234, Note_off_c, 0, 77, 60
2, 1553271, Note_off_c, 0, 75, 60
2, 1553302, Note_on_c, 0, 74, 79
2, 1553419, Note_off_c, 0, 74, 60
2, 1553529, Note_off_c, 0, 58, 55
2, 1553537, Note_on_c, 0, 70, 80
2, 1553541, Note_off_c, 0, 56, 59
2, 1553544, Note_off_c, 0, 62, 58
2, 1553594, Note_off_c, 0, 53, 59
2, 1553654, Note_off_c, 0, 70, 60
2, 1553770, Control_c, 0, 64, 99
2, 1553771, Note_on_c, 0, 63, 72
2, 1553772, Note_on_c, 0, 75, 81
2, 1553774, Note_on_c, 0, 58, 72
2, 1553775, Note_on_c, 0, 55, 72
2, 1553871, Note_on_c, 0, 77, 81
2, 1553890, Note_off_c, 0, 75, 60
2, 1553972, Note_on_c, 0, 79, 81
2, 1554002, Note_off_c, 0, 77, 60
2, 1554072, Note_on_c, 0, 77, 82
2, 1554077, Control_c, 0, 64, 0
2, 1554090, Note_off_c, 0, 79, 60
2, 1554138, Note_off_c, 0, 77, 60
2, 1554171, Note_on_c, 0, 75, 82
2, 1554285, Note_off_c, 0, 55, 58
2, 1554289, Note_off_c, 0, 75, 60
2, 1554295, Note_off_c, 0, 58, 58
2, 1554298, Note_off_c, 0, 63, 58
2, 1554405, Note_on_c, 0, 76, 83
2, 1554408, Note_on_c, 0, 61, 72
2, 1554408, Note_on_c, 0, 58, 72
2, 1554410, Note_on_c, 0, 64, 83
2, 1554411, Note_on_c, 0, 55, 72
2, 1554523, Note_off_c, 0, 76, 60
2, 1554526, Note_off_c, 0, 64, 60
2, 1554583, Note_off_c, 0, 61, 58
2, 1554586, Note_off_c, 0, 58, 58
2, 1554611, Note_off_c, 0, 55, 58
2, 1554641, Note_on_c, 0, 77, 84
2, 1554643, Note_on_c, 0, 60, 72
2, 1554645, Note_on_c, 0, 65, 84
2, 1554646, Note_on_c, 0, 56, 72
2, 1554662, Control_c, 0, 64, 99
2, 1554739, Note_off_c, 0, 77, 61
2, 1554742, Note_on_c, 0, 67, 84
2, 1554798, Note_off_c, 0, 65, 61
2, 1554840, Note_on_c, 0, 68, 80
2, 1554868, Note_off_c, 0, 67, 61
2, 1554940, Note_on_c, 0, 67, 76
2, 1554958, Control_c, 0, 64, 0
2, 1554965, Note_off_c, 0, 68, 60
2, 1554967, Note_off_c, 0, 56, 58
2, 1554976, Note_off_c, 0, 60, 58
2, 1555021, Note_off_c, 0, 67, 59
2, 1555040, Note_on_c, 0, 65, 72
2, 1555155, Note_off_c, 0, 65, 58
2, 1555272, Note_on_c, 0, 72, 72
2, 1555389, Note_off_c, 0, 72, 58
2, 1555506, Note_on_c, 0, 68, 74
2, 1555606, Note_off_c, 0, 68, 59
2, 1555708, Note_on_c, 0, 77, 76
2, 1555809, Note_off_c, 0, 77, 59
2, 1555909, Note_on_c, 0, 72, 79
2, 1556010, Note_off_c, 0, 72, 60
2, 1556110, Note_on_c, 0, 80, 81
2, 1556208, Note_off_c, 0, 80, 60
2, 1556309, Note_on_c, 0, 65, 84
2, 1556310, Note_on_c, 0, 62, 72
2, 1556313, Note_on_c, 0, 58, 65
2, 1556315, Control_c, 0, 64, 97
2, 1556430, Note_on_c, 0, 67, 60
2, 1556459, Note_off_c, 0, 65, 61
2, 1556527, Note_on_c, 0, 68, 60
2, 1556563, Note_off_c, 0, 67, 55
2, 1556644, Note_on_c, 0, 67, 59
2, 1556669, Note_off_c, 0, 68, 55
2, 1556694, Control_c, 0, 64, 0
2, 1556728, Note_off_c, 0, 67, 54
2, 1556742, Note_off_c, 0, 62, 58
2, 1556746, Note_off_c, 0, 58, 56
2, 1556748, Note_on_c, 0, 65, 57
2, 1556863, Note_off_c, 0, 65, 54
2, 1556962, Note_on_c, 0, 72, 54
2, 1557079, Note_off_c, 0, 72, 53
2, 1557180, Note_on_c, 0, 68, 50
2, 1557278, Note_off_c, 0, 68, 52
2, 1557378, Note_on_c, 0, 77, 47
2, 1557495, Note_off_c, 0, 77, 51
2, 1557596, Note_on_c, 0, 72, 43
2, 1557697, Note_off_c, 0, 72, 50
2, 1557798, Note_on_c, 0, 80, 40
2, 1557898, Note_off_c, 0, 80, 50
2, 1557986, Control_c, 0, 64, 99
2, 1558013, Note_on_c, 0, 62, 24
2, 1558015, Note_on_c, 0, 59, 20
2, 1558016, Note_on_c, 0, 74, 45
2, 1558020, Note_on_c, 0, 68, 36
2, 1558022, Note_on_c, 0, 65, 30
2, 1558117, Note_on_c, 0, 75, 36
2, 1558143, Note_off_c, 0, 74, 51
2, 1558216, Note_on_c, 0, 77, 37
2, 1558236, Note_off_c, 0, 75, 49
2, 1558317, Note_off_c, 0, 59, 45
2, 1558319, Note_off_c, 0, 62, 46
2, 1558334, Note_on_c, 0, 75, 39
2, 1558339, Note_off_c, 0, 65, 47
2, 1558341, Note_off_c, 0, 68, 49
2, 1558365, Note_off_c, 0, 77, 49
2, 1558376, Control_c, 0, 64, 0
2, 1558414, Note_off_c, 0, 75, 49
2, 1558435, Note_on_c, 0, 74, 40
2, 1558548, Note_off_c, 0, 74, 50
2, 1558665, Note_on_c, 0, 80, 44
2, 1558782, Note_off_c, 0, 80, 51
2, 1558899, Note_on_c, 0, 77, 47
2, 1559016, Note_off_c, 0, 77, 51
2, 1559117, Note_on_c, 0, 86, 50
2, 1559218, Note_off_c, 0, 86, 52
2, 1559320, Note_on_c, 0, 80, 53
2, 1559437, Note_off_c, 0, 80, 53
2, 1559534, Note_on_c, 0, 89, 56
2, 1559634, Note_off_c, 0, 89, 54
2, 1559735, Note_on_c, 0, 87, 60
2, 1559738, Note_on_c, 0, 60, 25
2, 1559741, Note_on_c, 0, 67, 40
2, 1559743, Note_on_c, 0, 63, 35
2, 1559838, Control_c, 0, 64, 95
2, 1559853, Note_off_c, 0, 87, 55
2, 1559952, Note_on_c, 0, 86, 60
2, 1560103, Note_off_c, 0, 63, 48
2, 1560111, Note_off_c, 0, 60, 46
2, 1560117, Note_off_c, 0, 67, 50
2, 1560173, Note_on_c, 0, 87, 60
2, 1560238, Control_c, 0, 64, 0
2, 1560266, Note_off_c, 0, 86, 55
2, 1560337, Note_off_c, 0, 87, 55
2, 1560389, Note_on_c, 0, 83, 59
2, 1560570, Control_c, 0, 64, 127
2, 1560606, Note_on_c, 0, 65, 38
2, 1560607, Note_on_c, 0, 84, 58
2, 1560608, Note_on_c, 0, 60, 28
2, 1560610, Note_on_c, 0, 56, 20
2, 1560721, Note_off_c, 0, 83, 54
2, 1560755, Note_off_c, 0, 84, 54
2, 1560822, Note_on_c, 0, 79, 57
2, 1560930, Note_off_c, 0, 56, 45
2, 1560947, Note_off_c, 0, 65, 49
2, 1560959, Note_off_c, 0, 60, 47
2, 1561028, Note_on_c, 0, 80, 56
2, 1561100, Note_off_c, 0, 79, 54
2, 1561172, Note_off_c, 0, 80, 54
2, 1561223, Note_on_c, 0, 77, 56
2, 1561258, Control_c, 0, 64, 96
2, 1561440, Note_on_c, 0, 58, 30
2, 1561443, Note_on_c, 0, 82, 55
2, 1561445, Note_on_c, 0, 67, 40
2, 1561447, Note_on_c, 0, 63, 35
2, 1561523, Note_off_c, 0, 77, 54
2, 1561565, Control_c, 0, 64, 0
2, 1561591, Note_off_c, 0, 82, 53
2, 1561640, Note_on_c, 0, 78, 54
2, 1561749, Note_off_c, 0, 58, 47
2, 1561755, Note_off_c, 0, 63, 48
2, 1561784, Note_off_c, 0, 67, 50
2, 1561863, Note_on_c, 0, 79, 53
2, 1561940, Note_off_c, 0, 78, 53
2, 1562026, Note_off_c, 0, 79, 53
2, 1562076, Note_on_c, 0, 75, 52
2, 1562105, Control_c, 0, 64, 96
2, 1562291, Note_on_c, 0, 80, 52
2, 1562298, Note_on_c, 0, 46, 33
2, 1562300, Note_on_c, 0, 58, 38
2, 1562402, Note_off_c, 0, 75, 53
2, 1562456, Control_c, 0, 64, 0
2, 1562474, Note_off_c, 0, 80, 53
2, 1562526, Note_on_c, 0, 76, 51
2, 1562662, Note_off_c, 0, 58, 49
2, 1562667, Note_off_c, 0, 46, 48
2, 1562763, Note_on_c, 0, 77, 50
2, 1562870, Note_off_c, 0, 76, 52
2, 1562943, Note_off_c, 0, 77, 52
2, 1562994, Note_on_c, 0, 74, 49
2, 1563228, Note_on_c, 0, 75, 48
2, 1563230, Note_on_c, 0, 39, 30
2, 1563236, Note_on_c, 0, 51, 36
2, 1563276, Control_c, 0, 64, 127
2, 1563323, Note_off_c, 0, 74, 52
2, 1563879, Note_off_c, 0, 75, 52
2, 1563883, Note_off_c, 0, 51, 49
2, 1563889, Control_c, 0, 64, 0
2, 1563928, Note_off_c, 0, 39, 47
2, 1564099, Note_on_c, 0, 72, 36
2, 1564532, Note_off_c, 0, 72, 49
2, 1564533, Note_on_c, 0, 79, 56
2, 1564536, Note_on_c, 0, 74, 44
2, 1564542, Note_on_c, 0, 76, 48
2, 1564607, Note_on_c, 0, 72, 45
2, 1564615, Note_off_c, 0, 74, 51
2, 1564663, Note_on_c, 0, 74, 47
2, 1564672, Note_off_c, 0, 72, 51
2, 1564727, Note_on_c, 0, 72, 48
2, 1564745, Note_off_c, 0, 74, 51
2, 1564799, Note_off_c, 0, 79, 54
2, 1564809, Note_off_c, 0, 72, 52
2, 1564812, Note_on_c, 0, 71, 50
2, 1564813, Note_off_c, 0, 76, 52
2, 1564908, Note_off_c, 0, 71, 52
2, 1564912, Note_on_c, 0, 72, 51
2, 1564934, Note_on_c, 0, 80, 64
2, 1564937, Note_on_c, 0, 68, 52
2, 1564946, Note_on_c, 0, 77, 56
2, 1564963, Note_off_c, 0, 72, 52
2, 1565287, Note_off_c, 0, 80, 56
2, 1565367, Note_on_c, 0, 84, 72
2, 1565370, Note_on_c, 0, 65, 52
2, 1565377, Note_on_c, 0, 80, 64
2, 1565434, Note_off_c, 0, 68, 53
2, 1565465, Note_off_c, 0, 77, 54
2, 1565631, Note_off_c, 0, 80, 56
2, 1565683, Note_off_c, 0, 84, 58
2, 1565685, Note_off_c, 0, 65, 53
2, 1565801, Note_on_c, 0, 70, 50
2, 1566203, Note_off_c, 0, 70, 52
2, 1566204, Note_on_c, 0, 77, 48
2, 1566207, Note_on_c, 0, 72, 48
2, 1566215, Note_on_c, 0, 74, 40
2, 1566260, Note_on_c, 0, 70, 50
2, 1566269, Note_off_c, 0, 72, 52
2, 1566326, Note_on_c, 0, 72, 52
2, 1566342, Note_off_c, 0, 70, 52
2, 1566400, Note_on_c, 0, 70, 55
2, 1566409, Note_off_c, 0, 72, 53
2, 1566482, Note_off_c, 0, 70, 53
2, 1566504, Note_off_c, 0, 74, 50
2, 1566511, Note_on_c, 0, 69, 57
2, 1566512, Note_off_c, 0, 77, 52
2, 1566566, Note_off_c, 0, 69, 54
2, 1566574, Note_on_c, 0, 70, 58
2, 1566607, Note_on_c, 0, 67, 50
2, 1566618, Note_on_c, 0, 75, 40
2, 1566618, Note_on_c, 0, 79, 60
2, 1566625, Note_off_c, 0, 70, 54
2, 1566918, Note_off_c, 0, 79, 55
2, 1567023, Note_on_c, 0, 82, 62
2, 1567026, Note_on_c, 0, 63, 42
2, 1567032, Note_on_c, 0, 79, 54
2, 1567072, Note_off_c, 0, 67, 52
2, 1567086, Note_off_c, 0, 75, 50
2, 1567288, Note_off_c, 0, 79, 53
2, 1567357, Note_off_c, 0, 82, 55
2, 1567359, Note_off_c, 0, 63, 50
2, 1567455, Note_on_c, 0, 82, 66
2, 1567467, Note_on_c, 0, 65, 54
2, 1567468, Note_on_c, 0, 68, 46
2, 1567469, Note_on_c, 0, 62, 50
2, 1567755, Note_off_c, 0, 65, 53
2, 1567768, Note_off_c, 0, 62, 52
2, 1567799, Note_off_c, 0, 68, 51
2, 1567841, Note_off_c, 0, 82, 56
2, 1567856, Note_on_c, 0, 68, 48
2, 1567858, Note_on_c, 0, 84, 52
2, 1567860, Note_on_c, 0, 65, 36
2, 1567861, Note_on_c, 0, 58, 30
2, 1567932, Note_on_c, 0, 82, 48
2, 1567941, Note_off_c, 0, 84, 53
2, 1567996, Note_on_c, 0, 84, 51
2, 1568013, Note_off_c, 0, 82, 52
2, 1568068, Note_on_c, 0, 82, 54
2, 1568077, Note_off_c, 0, 84, 52
2, 1568135, Note_off_c, 0, 82, 53
2, 1568157, Note_on_c, 0, 81, 57
2, 1568174, Note_off_c, 0, 65, 49
2, 1568186, Note_off_c, 0, 68, 52
2, 1568188, Note_off_c, 0, 58, 47
2, 1568205, Note_off_c, 0, 81, 54
2, 1568214, Note_on_c, 0, 82, 58
2, 1568262, Note_on_c, 0, 67, 48
2, 1568264, Note_on_c, 0, 80, 60
2, 1568265, Note_on_c, 0, 63, 52
2, 1568273, Note_off_c, 0, 82, 54
2, 1568476, Note_off_c, 0, 80, 55
2, 1568477, Note_on_c, 0, 79, 60
2, 1568692, Note_off_c, 0, 79, 55
2, 1568693, Note_on_c, 0, 77, 54
2, 1568897, Note_off_c, 0, 63, 53
2, 1568901, Note_off_c, 0, 67, 52
2, 1568910, Note_off_c, 0, 77, 53
2, 1568912, Note_on_c, 0, 75, 48
2, 1569109, Note_off_c, 0, 75, 52
2, 1569129, Note_on_c, 0, 74, 50
2, 1569130, Note_on_c, 0, 63, 42
2, 1569131, Note_on_c, 0, 69, 30
2, 1569133, Note_on_c, 0, 60, 40
2, 1569328, Note_off_c, 0, 74, 52
2, 1569331, Note_on_c, 0, 75, 54
2, 1569528, Note_off_c, 0, 75, 53
2, 1569530, Note_on_c, 0, 76, 60
2, 1569745, Note_off_c, 0, 76, 55
2, 1569746, Note_on_c, 0, 77, 60
2, 1569765, Note_off_c, 0, 63, 50
2, 1569773, Note_off_c, 0, 60, 50
2, 1569806, Note_off_c, 0, 69, 47
2, 1569913, Note_off_c, 0, 77, 55
2, 1569966, Note_on_c, 0, 70, 48
2, 1569967, Note_on_c, 0, 62, 40
2, 1569969, Note_on_c, 0, 58, 36
2, 1570413, Note_off_c, 0, 70, 52
2, 1570416, Note_off_c, 0, 58, 49
2, 1570417, Note_off_c, 0, 62, 50
2, 1570848, Note_on_c, 0, 58, 72
2, 1571250, Note_off_c, 0, 58, 58
2, 1571252, Note_on_c, 0, 76, 72
2, 1571253, Note_on_c, 0, 72, 60
2, 1571255, Note_on_c, 0, 60, 72
2, 1571256, Note_on_c, 0, 67, 54
2, 1571325, Note_on_c, 0, 58, 74
2, 1571332, Note_off_c, 0, 60, 58
2, 1571398, Note_on_c, 0, 60, 76
2, 1571406, Note_off_c, 0, 58, 59
2, 1571449, Note_off_c, 0, 76, 58
2, 1571451, Note_off_c, 0, 67, 53
2, 1571453, Note_off_c, 0, 72, 55
2, 1571471, Note_on_c, 0, 58, 79
2, 1571480, Note_off_c, 0, 60, 59
2, 1571537, Note_off_c, 0, 58, 60
2, 1571569, Note_on_c, 0, 57, 81
2, 1571618, Note_off_c, 0, 57, 60
2, 1571627, Note_on_c, 0, 58, 82
2, 1571651, Note_on_c, 0, 84, 72
2, 1571652, Note_on_c, 0, 56, 84
2, 1571660, Note_off_c, 0, 58, 60
2, 1572052, Note_off_c, 0, 84, 58
2, 1572054, Note_off_c, 0, 56, 61
2, 1572055, Note_on_c, 0, 86, 76
2, 1572057, Note_on_c, 0, 53, 72
2, 1572136, Note_off_c, 0, 86, 59
2, 1572137, Note_on_c, 0, 84, 76
2, 1572219, Note_off_c, 0, 84, 59
2, 1572221, Note_on_c, 0, 86, 77
2, 1572301, Note_off_c, 0, 86, 59
2, 1572303, Note_on_c, 0, 84, 78
2, 1572353, Note_off_c, 0, 53, 58
2, 1572370, Note_off_c, 0, 84, 59
2, 1572371, Note_on_c, 0, 83, 79
2, 1572418, Note_off_c, 0, 83, 60
2, 1572439, Note_on_c, 0, 84, 79
2, 1572453, Note_on_c, 0, 56, 73
2, 1572472, Note_off_c, 0, 84, 60
2, 1572852, Note_off_c, 0, 56, 58
2, 1572853, Note_on_c, 0, 74, 84
2, 1572855, Note_on_c, 0, 70, 76
2, 1572857, Note_on_c, 0, 65, 70
2, 1572858, Note_on_c, 0, 58, 78
2, 1572938, Note_off_c, 0, 58, 59
2, 1572939, Note_on_c, 0, 56, 79
2, 1573002, Note_on_c, 0, 58, 80
2, 1573019, Note_off_c, 0, 56, 60
2, 1573053, Note_off_c, 0, 70, 59
2, 1573055, Note_off_c, 0, 74, 61
2, 1573057, Note_off_c, 0, 65, 57
2, 1573078, Note_on_c, 0, 56, 81
2, 1573083, Note_off_c, 0, 58, 60
2, 1573144, Note_off_c, 0, 56, 60
2, 1573153, Note_on_c, 0, 55, 82
2, 1573201, Note_off_c, 0, 55, 60
2, 1573213, Note_on_c, 0, 56, 83
2, 1573243, Note_off_c, 0, 56, 60
2, 1573255, Note_on_c, 0, 82, 84
2, 1573274, Note_on_c, 0, 55, 84
2, 1573657, Note_off_c, 0, 82, 61
2, 1573659, Note_on_c, 0, 51, 84
2, 1573660, Note_on_c, 0, 84, 78
2, 1573676, Note_off_c, 0, 55, 61
2, 1573740, Note_off_c, 0, 84, 59
2, 1573741, Note_on_c, 0, 82, 77
2, 1573821, Note_off_c, 0, 82, 59
2, 1573824, Note_on_c, 0, 84, 76
2, 1573905, Note_off_c, 0, 84, 59
2, 1573907, Note_on_c, 0, 82, 75
2, 1573956, Note_off_c, 0, 51, 61
2, 1573974, Note_off_c, 0, 82, 59
2, 1573975, Note_on_c, 0, 81, 74
2, 1574023, Note_off_c, 0, 81, 59
2, 1574043, Note_on_c, 0, 82, 73
2, 1574057, Note_on_c, 0, 58, 78
2, 1574059, Note_on_c, 0, 56, 60
2, 1574060, Note_on_c, 0, 53, 50
2, 1574062, Note_on_c, 0, 50, 75
2, 1574075, Note_off_c, 0, 82, 58
2, 1574111, Control_c, 0, 64, 92
2, 1574459, Note_off_c, 0, 50, 59
2, 1574460, Note_on_c, 0, 46, 72
2, 1574461, Note_on_c, 0, 84, 66
2, 1574468, Control_c, 0, 64, 0
2, 1574540, Note_off_c, 0, 84, 56
2, 1574543, Note_on_c, 0, 82, 65
2, 1574624, Note_off_c, 0, 82, 56
2, 1574625, Note_on_c, 0, 84, 64
2, 1574644, Note_off_c, 0, 58, 59
2, 1574693, Note_off_c, 0, 53, 52
2, 1574710, Note_off_c, 0, 84, 56
2, 1574711, Note_on_c, 0, 82, 63
2, 1574749, Note_off_c, 0, 56, 55
2, 1574774, Note_off_c, 0, 82, 55
2, 1574777, Note_on_c, 0, 81, 62
2, 1574827, Note_off_c, 0, 81, 55
2, 1574827, Note_on_c, 0, 82, 61
2, 1574858, Note_off_c, 0, 82, 55
2, 1574864, Note_off_c, 0, 46, 58
2, 1574865, Note_on_c, 0, 58, 48
2, 1574866, Note_on_c, 0, 80, 60
2, 1574868, Note_on_c, 0, 55, 42
2, 1574869, Note_on_c, 0, 51, 38
2, 1575026, Note_off_c, 0, 51, 49
2, 1575032, Note_off_c, 0, 55, 50
2, 1575033, Note_off_c, 0, 58, 52
2, 1575081, Note_on_c, 0, 79, 60
2, 1575137, Note_off_c, 0, 80, 55
2, 1575242, Note_off_c, 0, 79, 55
2, 1575294, Note_on_c, 0, 63, 46
2, 1575295, Note_on_c, 0, 77, 58
2, 1575297, Note_on_c, 0, 58, 40
2, 1575298, Note_on_c, 0, 55, 35
2, 1575359, Note_off_c, 0, 77, 54
2, 1575362, Note_on_c, 0, 79, 58
2, 1575443, Note_off_c, 0, 79, 54
2, 1575444, Note_on_c, 0, 77, 57
2, 1575452, Note_off_c, 0, 63, 51
2, 1575465, Note_off_c, 0, 55, 48
2, 1575479, Note_off_c, 0, 58, 50
2, 1575512, Note_on_c, 0, 75, 56
2, 1575541, Note_off_c, 0, 77, 54
2, 1575678, Note_off_c, 0, 75, 54
2, 1575728, Note_on_c, 0, 75, 54
2, 1575729, Note_on_c, 0, 65, 42
2, 1575730, Note_on_c, 0, 62, 36
2, 1575731, Note_on_c, 0, 58, 30
2, 1575795, Note_off_c, 0, 75, 53
2, 1575796, Note_on_c, 0, 77, 54
2, 1575858, Note_off_c, 0, 77, 53
2, 1575863, Note_on_c, 0, 75, 53
2, 1575883, Note_off_c, 0, 62, 49
2, 1575898, Note_off_c, 0, 65, 50
2, 1575903, Note_off_c, 0, 58, 47
2, 1575932, Note_on_c, 0, 74, 52
2, 1575964, Note_off_c, 0, 75, 53
2, 1576079, Note_off_c, 0, 74, 53
2, 1576128, Note_on_c, 0, 65, 38
2, 1576130, Note_on_c, 0, 62, 30
2, 1576131, Note_on_c, 0, 72, 50
2, 1576133, Note_on_c, 0, 58, 35
2, 1576134, Note_on_c, 0, 56, 25
2, 1576195, Note_off_c, 0, 72, 52
2, 1576197, Note_on_c, 0, 74, 50
2, 1576263, Note_off_c, 0, 74, 52
2, 1576264, Note_on_c, 0, 72, 49
2, 1576283, Note_off_c, 0, 65, 49
2, 1576298, Note_off_c, 0, 62, 47
2, 1576301, Note_off_c, 0, 56, 46
2, 1576305, Note_off_c, 0, 58, 48
2, 1576332, Note_on_c, 0, 70, 48
2, 1576354, Note_off_c, 0, 72, 52
2, 1576479, Note_off_c, 0, 70, 52
2, 1576529, Note_on_c, 0, 70, 60
2, 1576532, Note_on_c, 0, 58, 36
2, 1576533, Note_on_c, 0, 63, 42
2, 1576534, Note_on_c, 0, 55, 30
2, 1576746, Note_on_c, 0, 72, 60
2, 1576783, Note_off_c, 0, 70, 55
2, 1576848, Note_on_c, 0, 74, 64
2, 1576857, Note_off_c, 0, 63, 50
2, 1576869, Note_off_c, 0, 72, 55
2, 1576873, Note_off_c, 0, 58, 49
2, 1576875, Note_off_c, 0, 55, 47
2, 1576970, Note_on_c, 0, 75, 68
2, 1576988, Note_off_c, 0, 74, 56
2, 1577063, Note_on_c, 0, 77, 72
2, 1577087, Note_off_c, 0, 75, 57
2, 1577181, Note_on_c, 0, 79, 76
2, 1577204, Note_off_c, 0, 77, 58
2, 1577284, Note_on_c, 0, 80, 80
2, 1577290, Note_off_c, 0, 79, 59
2, 1577379, Note_off_c, 0, 80, 60
2, 1577400, Note_on_c, 0, 58, 72
2, 1577402, Note_on_c, 0, 56, 60
2, 1577403, Note_on_c, 0, 82, 84
2, 1577404, Note_on_c, 0, 53, 55
2, 1577406, Note_on_c, 0, 50, 74
2, 1577461, Control_c, 0, 64, 96
2, 1577498, Note_off_c, 0, 82, 61
2, 1577599, Note_on_c, 0, 81, 84
2, 1577699, Note_on_c, 0, 82, 81
2, 1577745, Note_off_c, 0, 81, 61
2, 1577799, Note_off_c, 0, 50, 59
2, 1577801, Note_off_c, 0, 82, 60
2, 1577802, Note_on_c, 0, 46, 60
2, 1577803, Note_on_c, 0, 81, 78
2, 1577900, Note_on_c, 0, 82, 75
2, 1577953, Note_off_c, 0, 81, 59
2, 1577999, Note_off_c, 0, 82, 59
2, 1578001, Note_on_c, 0, 84, 72
2, 1578013, Note_off_c, 0, 56, 55
2, 1578037, Control_c, 0, 64, 0
2, 1578058, Note_off_c, 0, 53, 53
2, 1578075, Note_off_c, 0, 58, 58
2, 1578102, Note_on_c, 0, 82, 72
2, 1578127, Note_off_c, 0, 84, 58
2, 1578168, Note_off_c, 0, 82, 58
2, 1578202, Note_off_c, 0, 46, 55
2, 1578204, Note_on_c, 0, 58, 50
2, 1578206, Note_on_c, 0, 55, 45
2, 1578208, Note_on_c, 0, 51, 40
2, 1578360, Note_off_c, 0, 58, 52
2, 1578369, Note_off_c, 0, 55, 51
2, 1578374, Note_off_c, 0, 51, 50
2, 1578419, Note_on_c, 0, 80, 60
2, 1578518, Note_on_c, 0, 79, 60
2, 1578594, Note_off_c, 0, 80, 55
2, 1578602, Note_off_c, 0, 79, 55
2, 1578635, Note_on_c, 0, 63, 47
2, 1578636, Note_on_c, 0, 58, 40
2, 1578639, Note_on_c, 0, 55, 35
2, 1578796, Note_off_c, 0, 58, 50
2, 1578797, Note_off_c, 0, 55, 48
2, 1578802, Note_off_c, 0, 63, 51
2, 1578839, Note_on_c, 0, 77, 57
2, 1578954, Note_on_c, 0, 75, 56
2, 1579018, Note_off_c, 0, 77, 54
2, 1579036, Note_off_c, 0, 75, 54
2, 1579051, Note_on_c, 0, 65, 41
2, 1579053, Note_on_c, 0, 62, 35
2, 1579055, Note_on_c, 0, 58, 30
2, 1579202, Note_off_c, 0, 62, 48
2, 1579204, Note_off_c, 0, 65, 50
2, 1579224, Note_off_c, 0, 58, 47
2, 1579255, Note_on_c, 0, 75, 53
2, 1579353, Note_on_c, 0, 74, 52
2, 1579413, Note_off_c, 0, 75, 53
2, 1579437, Note_off_c, 0, 74, 53
2, 1579454, Note_on_c, 0, 62, 36
2, 1579455, Note_on_c, 0, 65, 40
2, 1579458, Note_on_c, 0, 58, 30
2, 1579459, Note_on_c, 0, 56, 26
2, 1579609, Note_off_c, 0, 56, 46
2, 1579612, Note_off_c, 0, 62, 49
2, 1579620, Note_off_c, 0, 58, 47
2, 1579620, Note_off_c, 0, 65, 50
2, 1579658, Note_on_c, 0, 72, 49
2, 1579755, Note_on_c, 0, 70, 48
2, 1579780, Note_off_c, 0, 72, 52
2, 1579836, Note_off_c, 0, 70, 52
2, 1579856, Note_on_c, 0, 68, 60
2, 1579857, Note_on_c, 0, 63, 48
2, 1579859, Note_on_c, 0, 58, 40
2, 1579860, Note_on_c, 0, 55, 34
2, 1579975, Note_on_c, 0, 70, 60
2, 1579994, Note_off_c, 0, 68, 55
2, 1580071, Note_on_c, 0, 72, 63
2, 1580088, Note_off_c, 0, 70, 55
2, 1580174, Note_off_c, 0, 58, 50
2, 1580188, Note_on_c, 0, 74, 66
2, 1580195, Note_off_c, 0, 55, 48
2, 1580216, Note_off_c, 0, 72, 55
2, 1580230, Note_off_c, 0, 63, 52
2, 1580293, Note_on_c, 0, 75, 70
2, 1580298, Note_off_c, 0, 74, 56
2, 1580407, Note_on_c, 0, 77, 73
2, 1580436, Note_off_c, 0, 75, 57
2, 1580508, Note_on_c, 0, 79, 77
2, 1580538, Note_off_c, 0, 77, 58
2, 1580624, Note_on_c, 0, 80, 80
2, 1580659, Note_off_c, 0, 79, 59
2, 1580725, Note_on_c, 0, 81, 84
2, 1580727, Note_on_c, 0, 50, 84
2, 1580736, Note_on_c, 0, 38, 76
2, 1580752, Control_c, 0, 64, 127
2, 1580755, Note_off_c, 0, 80, 60
2, 1580826, Note_on_c, 0, 82, 84
2, 1580847, Note_off_c, 0, 81, 61
2, 1580924, Note_on_c, 0, 81, 82
2, 1580955, Note_off_c, 0, 82, 61
2, 1581026, Note_on_c, 0, 82, 80
2, 1581048, Note_off_c, 0, 81, 60
2, 1581111, Note_off_c, 0, 38, 59
2, 1581124, Note_off_c, 0, 50, 61
2, 1581128, Note_on_c, 0, 81, 77
2, 1581129, Note_on_c, 0, 46, 72
2, 1581141, Note_off_c, 0, 82, 60
2, 1581142, Note_on_c, 0, 34, 64
2, 1581226, Note_on_c, 0, 82, 75
2, 1581252, Note_off_c, 0, 81, 59
2, 1581327, Note_on_c, 0, 84, 72
2, 1581336, Note_off_c, 0, 82, 59
2, 1581365, Note_off_c, 0, 34, 56
2, 1581427, Note_off_c, 0, 46, 58
2, 1581429, Note_on_c, 0, 82, 72
2, 1581439, Control_c, 0, 64, 0
2, 1581457, Note_off_c, 0, 84, 58
2, 1581524, Note_off_c, 0, 82, 58
2, 1581527, Note_on_c, 0, 80, 84
2, 1581528, Note_on_c, 0, 51, 70
2, 1581539, Note_on_c, 0, 39, 62
2, 1581642, Note_off_c, 0, 80, 61
2, 1581645, Note_on_c, 0, 79, 84
2, 1581742, Note_off_c, 0, 79, 61
2, 1581744, Note_on_c, 0, 77, 72
2, 1581844, Note_off_c, 0, 77, 58
2, 1581845, Note_on_c, 0, 75, 72
2, 1581961, Note_off_c, 0, 75, 58
2, 1581962, Note_on_c, 0, 74, 72
2, 1582060, Note_off_c, 0, 74, 58
2, 1582062, Note_on_c, 0, 75, 76
2, 1582178, Note_off_c, 0, 75, 59
2, 1582179, Note_on_c, 0, 77, 80
2, 1582253, Note_off_c, 0, 39, 55
2, 1582278, Note_off_c, 0, 77, 60
2, 1582279, Note_on_c, 0, 75, 84
2, 1582289, Note_off_c, 0, 51, 57
2, 1582394, Note_off_c, 0, 75, 61
2, 1582398, Note_on_c, 0, 74, 84
2, 1582399, Note_on_c, 0, 48, 60
2, 1582409, Note_on_c, 0, 36, 52
2, 1582496, Note_off_c, 0, 74, 61
2, 1582497, Note_on_c, 0, 72, 82
2, 1582594, Note_off_c, 0, 72, 60
2, 1582597, Note_on_c, 0, 70, 80
2, 1582695, Note_off_c, 0, 70, 60
2, 1582698, Note_on_c, 0, 69, 78
2, 1582795, Note_off_c, 0, 69, 59
2, 1582797, Note_on_c, 0, 75, 76
2, 1582897, Note_off_c, 0, 75, 59
2, 1582898, Note_on_c, 0, 69, 74
2, 1582996, Note_off_c, 0, 69, 59
2, 1582998, Note_on_c, 0, 75, 72
2, 1583001, Note_off_c, 0, 36, 53
2, 1583093, Note_off_c, 0, 48, 55
2, 1583098, Note_off_c, 0, 75, 58
2, 1583100, Note_on_c, 0, 69, 72
2, 1583198, Note_off_c, 0, 69, 58
2, 1583201, Note_on_c, 0, 46, 48
2, 1583202, Note_on_c, 0, 72, 48
2, 1583212, Note_on_c, 0, 34, 40
2, 1583297, Note_off_c, 0, 72, 52
2, 1583299, Note_on_c, 0, 70, 48
2, 1583414, Note_off_c, 0, 70, 52
2, 1583416, Note_on_c, 0, 69, 49
2, 1583514, Note_off_c, 0, 69, 52
2, 1583516, Note_on_c, 0, 70, 50
2, 1583544, Note_off_c, 0, 34, 50
2, 1583630, Note_off_c, 0, 70, 52
2, 1583633, Note_off_c, 0, 46, 52
2, 1583634, Note_on_c, 0, 71, 52
2, 1583731, Note_off_c, 0, 71, 53
2, 1583733, Note_on_c, 0, 72, 53
2, 1583848, Note_off_c, 0, 72, 53
2, 1583850, Note_on_c, 0, 73, 54
2, 1583950, Note_off_c, 0, 73, 53
2, 1583951, Note_on_c, 0, 74, 56
2, 1584067, Note_off_c, 0, 74, 54
2, 1584068, Note_on_c, 0, 75, 57
2, 1584166, Note_off_c, 0, 75, 54
2, 1584168, Note_on_c, 0, 76, 58
2, 1584267, Note_off_c, 0, 76, 54
2, 1584268, Note_on_c, 0, 77, 60
2, 1584365, Note_off_c, 0, 77, 55
2, 1584368, Note_on_c, 0, 78, 60
2, 1584466, Note_off_c, 0, 78, 55
2, 1584469, Note_on_c, 0, 79, 60
2, 1584567, Note_off_c, 0, 79, 55
2, 1584568, Note_on_c, 0, 80, 56
2, 1584667, Note_off_c, 0, 80, 54
2, 1584669, Note_on_c, 0, 81, 52
2, 1584769, Note_off_c, 0, 81, 53
2, 1584770, Note_on_c, 0, 82, 48
2, 1584868, Note_off_c, 0, 82, 52
2, 1584870, Note_on_c, 0, 83, 36
2, 1585018, Note_off_c, 0, 83, 49
2, 1585067, Note_on_c, 0, 84, 36
2, 1585237, Note_off_c, 0, 84, 49
2, 1585286, Note_on_c, 0, 85, 37
2, 1585454, Note_off_c, 0, 85, 49
2, 1585503, Note_on_c, 0, 86, 39
2, 1585668, Note_off_c, 0, 86, 49
2, 1585736, Note_on_c, 0, 87, 40
2, 1585902, Note_off_c, 0, 87, 50
2, 1585954, Note_on_c, 0, 88, 42
2, 1586120, Note_off_c, 0, 88, 50
2, 1586174, Note_on_c, 0, 89, 43
2, 1586200, Control_c, 0, 64, 127
2, 1586773, Note_on_c, 0, 87, 48
2, 1586822, Note_off_c, 0, 89, 50
2, 1586925, Note_off_c, 0, 87, 52
2, 1586973, Note_on_c, 0, 86, 48
2, 1586975, Note_on_c, 0, 65, 40
2, 1586976, Note_on_c, 0, 68, 36
2, 1587006, Control_c, 0, 64, 0
2, 1587056, Note_on_c, 0, 87, 54
2, 1587076, Note_off_c, 0, 86, 52
2, 1587124, Note_on_c, 0, 89, 60
2, 1587138, Note_off_c, 0, 87, 53
2, 1587209, Note_off_c, 0, 65, 50
2, 1587210, Note_on_c, 0, 87, 60
2, 1587212, Note_on_c, 0, 58, 37
2, 1587219, Note_off_c, 0, 89, 55
2, 1587231, Control_c, 0, 64, 110
2, 1587376, Note_off_c, 0, 58, 49
2, 1587426, Note_on_c, 0, 58, 40
2, 1587428, Note_on_c, 0, 86, 48
2, 1587449, Note_off_c, 0, 87, 55
2, 1587592, Note_off_c, 0, 58, 50
2, 1587641, Note_on_c, 0, 58, 44
2, 1587797, Note_off_c, 0, 68, 49
2, 1587809, Note_off_c, 0, 58, 51
2, 1587855, Control_c, 0, 64, 0
2, 1587875, Note_on_c, 0, 65, 40
2, 1587876, Note_on_c, 0, 68, 48
2, 1588076, Note_off_c, 0, 65, 50
2, 1588077, Note_on_c, 0, 89, 60
2, 1588079, Control_c, 0, 64, 110
2, 1588080, Note_on_c, 0, 58, 48
2, 1588104, Note_off_c, 0, 86, 52
2, 1588278, Note_off_c, 0, 58, 52
2, 1588281, Note_on_c, 0, 67, 44
2, 1588283, Note_on_c, 0, 63, 40
2, 1588284, Note_on_c, 0, 87, 60
2, 1588302, Note_off_c, 0, 89, 55
2, 1588342, Note_off_c, 0, 68, 52
2, 1588427, Note_off_c, 0, 63, 50
2, 1588479, Note_on_c, 0, 84, 54
2, 1588480, Note_on_c, 0, 58, 40
2, 1588502, Note_off_c, 0, 87, 55
2, 1588576, Note_off_c, 0, 67, 51
2, 1588629, Note_off_c, 0, 84, 53
2, 1588655, Control_c, 0, 64, 0
2, 1588678, Note_off_c, 0, 58, 50
2, 1588680, Note_on_c, 0, 83, 48
2, 1588682, Note_on_c, 0, 65, 36
2, 1588683, Note_on_c, 0, 62, 32
2, 1588747, Note_on_c, 0, 84, 48
2, 1588762, Note_off_c, 0, 83, 52
2, 1588811, Note_on_c, 0, 86, 60
2, 1588823, Note_off_c, 0, 84, 52
2, 1588879, Control_c, 0, 64, 110
2, 1588895, Note_off_c, 0, 62, 48
2, 1588896, Note_on_c, 0, 84, 60
2, 1588897, Note_on_c, 0, 58, 36
2, 1588911, Note_off_c, 0, 86, 55
2, 1589045, Note_off_c, 0, 58, 49
2, 1589114, Note_on_c, 0, 58, 39
2, 1589115, Note_on_c, 0, 82, 48
2, 1589155, Note_off_c, 0, 84, 55
2, 1589265, Note_off_c, 0, 58, 49
2, 1589313, Note_on_c, 0, 58, 42
2, 1589322, Control_c, 0, 64, 0
2, 1589481, Note_off_c, 0, 58, 50
2, 1589529, Note_on_c, 0, 58, 45
2, 1589546, Control_c, 0, 64, 110
2, 1589681, Note_off_c, 0, 58, 51
2, 1589732, Note_on_c, 0, 58, 48
2, 1589734, Note_on_c, 0, 83, 54
2, 1589761, Note_off_c, 0, 82, 52
2, 1589932, Note_off_c, 0, 65, 49
2, 1589934, Note_off_c, 0, 58, 52
2, 1589936, Note_on_c, 0, 62, 48
2, 1589937, Note_on_c, 0, 84, 60
2, 1589938, Note_on_c, 0, 50, 52
2, 1589940, Control_c, 0, 64, 0
2, 1589959, Note_off_c, 0, 83, 53
2, 1590131, Note_off_c, 0, 62, 52
2, 1590134, Note_on_c, 0, 58, 46
2, 1590135, Note_on_c, 0, 80, 60
2, 1590159, Note_off_c, 0, 84, 55
2, 1590161, Control_c, 0, 64, 110
2, 1590282, Note_off_c, 0, 80, 55
2, 1590332, Note_off_c, 0, 58, 51
2, 1590335, Note_on_c, 0, 63, 44
2, 1590336, Note_on_c, 0, 80, 60
2, 1590337, Note_on_c, 0, 51, 50
2, 1590389, Note_off_c, 0, 50, 53
2, 1590550, Note_off_c, 0, 63, 51
2, 1590553, Note_on_c, 0, 58, 41
2, 1590554, Note_on_c, 0, 79, 60
2, 1590595, Note_off_c, 0, 80, 55
2, 1590740, Control_c, 0, 64, 0
2, 1590767, Note_off_c, 0, 58, 50
2, 1590769, Note_on_c, 0, 70, 50
2, 1590771, Note_on_c, 0, 82, 56
2, 1590773, Note_on_c, 0, 67, 45
2, 1590775, Note_on_c, 0, 55, 39
2, 1590809, Note_off_c, 0, 79, 55
2, 1590825, Note_off_c, 0, 51, 52
2, 1590965, Control_c, 0, 64, 110
2, 1590985, Note_off_c, 0, 67, 51
2, 1590986, Note_on_c, 0, 75, 52
2, 1590988, Note_on_c, 0, 58, 36
2, 1591027, Note_off_c, 0, 82, 54
2, 1591143, Note_off_c, 0, 75, 53
2, 1591184, Note_off_c, 0, 70, 52
2, 1591186, Note_off_c, 0, 58, 49
2, 1591202, Note_on_c, 0, 75, 50
2, 1591204, Note_on_c, 0, 68, 36
2, 1591205, Note_on_c, 0, 65, 40
2, 1591206, Note_on_c, 0, 53, 36
2, 1591243, Note_off_c, 0, 55, 49
2, 1591401, Note_off_c, 0, 65, 50
2, 1591405, Note_on_c, 0, 58, 39
2, 1591406, Note_on_c, 0, 74, 48
2, 1591442, Note_off_c, 0, 75, 52
2, 1591603, Note_off_c, 0, 58, 49
2, 1591605, Note_off_c, 0, 68, 49
2, 1591606, Note_on_c, 0, 77, 56
2, 1591608, Note_on_c, 0, 67, 56
2, 1591609, Note_on_c, 0, 63, 38
2, 1591610, Note_on_c, 0, 51, 42
2, 1591633, Control_c, 0, 64, 0
2, 1591642, Note_off_c, 0, 74, 52
2, 1591662, Note_off_c, 0, 53, 49
2, 1591753, Note_off_c, 0, 63, 49
2, 1591804, Note_on_c, 0, 58, 45
2, 1591806, Note_on_c, 0, 75, 64
2, 1591842, Note_off_c, 0, 77, 54
2, 1591857, Control_c, 0, 64, 110
2, 1591955, Note_off_c, 0, 75, 56
2, 1591961, Note_off_c, 0, 51, 50
2, 1591986, Note_off_c, 0, 67, 54
2, 1591989, Note_off_c, 0, 58, 51
2, 1592003, Note_on_c, 0, 79, 72
2, 1592006, Note_on_c, 0, 46, 48
2, 1592013, Note_on_c, 0, 75, 60
2, 1592221, Note_off_c, 0, 46, 52
2, 1592223, Note_on_c, 0, 58, 45
2, 1592393, Note_off_c, 0, 58, 51
2, 1592438, Note_on_c, 0, 58, 44
2, 1592439, Note_on_c, 0, 77, 60
2, 1592443, Control_c, 0, 64, 0
2, 1592448, Note_on_c, 0, 74, 50
2, 1592466, Note_off_c, 0, 75, 55
2, 1592468, Note_off_c, 0, 79, 58
2, 1592608, Note_off_c, 0, 58, 51
2, 1592667, Control_c, 0, 64, 110
2, 1592672, Note_on_c, 0, 58, 40
2, 1592719, Note_off_c, 0, 74, 52
2, 1592788, Note_off_c, 0, 77, 55
2, 1592906, Note_off_c, 0, 58, 50
2, 1592907, Note_on_c, 0, 68, 30
2, 1592908, Note_on_c, 0, 72, 36
2, 1593105, Note_off_c, 0, 72, 49
2, 1593107, Note_off_c, 0, 68, 47
2, 1593109, Note_on_c, 0, 89, 61
2, 1593110, Note_on_c, 0, 58, 36
2, 1593118, Note_on_c, 0, 77, 51
2, 1593134, Control_c, 0, 64, 0
2, 1593307, Note_off_c, 0, 58, 49
2, 1593309, Note_on_c, 0, 70, 38
2, 1593311, Note_on_c, 0, 67, 32
2, 1593359, Control_c, 0, 64, 110
2, 1593430, Note_off_c, 0, 77, 52
2, 1593507, Note_off_c, 0, 89, 55
2, 1593508, Note_off_c, 0, 70, 49
2, 1593511, Note_off_c, 0, 67, 48
2, 1593512, Note_on_c, 0, 88, 64
2, 1593514, Note_on_c, 0, 58, 40
2, 1593522, Note_on_c, 0, 76, 54
2, 1593708, Note_off_c, 0, 58, 50
2, 1593710, Note_on_c, 0, 66, 36
2, 1593711, Note_on_c, 0, 69, 42
2, 1593852, Note_off_c, 0, 76, 53
2, 1593924, Note_off_c, 0, 88, 56
2, 1593926, Note_off_c, 0, 66, 49
2, 1593928, Note_off_c, 0, 69, 50
2, 1593929, Note_on_c, 0, 87, 66
2, 1593932, Note_on_c, 0, 58, 44
2, 1593939, Note_on_c, 0, 75, 56
2, 1593983, Control_c, 0, 64, 0
2, 1594142, Note_off_c, 0, 58, 51
2, 1594143, Note_on_c, 0, 68, 46
2, 1594144, Note_on_c, 0, 65, 40
2, 1594207, Control_c, 0, 64, 110
2, 1594269, Note_off_c, 0, 75, 54
2, 1594360, Note_off_c, 0, 87, 56
2, 1594363, Note_off_c, 0, 68, 51
2, 1594364, Note_off_c, 0, 65, 50
2, 1594365, Note_on_c, 0, 58, 48
2, 1594367, Note_on_c, 0, 86, 69
2, 1594375, Note_on_c, 0, 74, 59
2, 1594577, Note_off_c, 0, 58, 52
2, 1594578, Note_on_c, 0, 67, 50
2, 1594581, Note_on_c, 0, 64, 44
2, 1594732, Note_off_c, 0, 74, 54
2, 1594775, Note_off_c, 0, 86, 57
2, 1594778, Note_off_c, 0, 67, 52
2, 1594780, Note_off_c, 0, 64, 51
2, 1594782, Note_on_c, 0, 85, 72
2, 1594783, Note_on_c, 0, 58, 52
2, 1594790, Note_on_c, 0, 73, 62
2, 1594802, Control_c, 0, 64, 0
2, 1594977, Note_off_c, 0, 58, 53
2, 1594978, Note_on_c, 0, 66, 54
2, 1594979, Note_on_c, 0, 63, 48
2, 1595026, Control_c, 0, 64, 110
2, 1595093, Note_off_c, 0, 73, 55
2, 1595180, Note_off_c, 0, 85, 58
2, 1595182, Note_off_c, 0, 66, 53
2, 1595183, Note_off_c, 0, 63, 52
2, 1595184, Note_on_c, 0, 84, 74
2, 1595185, Note_on_c, 0, 58, 56
2, 1595194, Note_on_c, 0, 72, 64
2, 1595378, Note_off_c, 0, 58, 54
2, 1595380, Note_on_c, 0, 62, 52
2, 1595382, Note_on_c, 0, 65, 58
2, 1595508, Note_off_c, 0, 72, 56
2, 1595595, Note_off_c, 0, 84, 59
2, 1595598, Note_off_c, 0, 65, 54
2, 1595600, Note_off_c, 0, 62, 53
2, 1595602, Note_on_c, 0, 83, 77
2, 1595603, Note_on_c, 0, 58, 60
2, 1595609, Note_on_c, 0, 71, 67
2, 1595616, Control_c, 0, 64, 0
2, 1595813, Note_off_c, 0, 58, 55
2, 1595816, Note_on_c, 0, 61, 56
2, 1595817, Note_on_c, 0, 64, 62
2, 1595841, Control_c, 0, 64, 110
2, 1595983, Note_off_c, 0, 71, 57
2, 1596030, Note_off_c, 0, 83, 59
2, 1596032, Note_off_c, 0, 61, 54
2, 1596034, Note_off_c, 0, 64, 55
2, 1596035, Note_on_c, 0, 58, 64
2, 1596037, Note_on_c, 0, 82, 80
2, 1596045, Note_on_c, 0, 70, 70
2, 1596248, Note_off_c, 0, 58, 56
2, 1596250, Note_on_c, 0, 63, 66
2, 1596251, Note_on_c, 0, 60, 60
2, 1596375, Note_off_c, 0, 70, 57
2, 1596482, Note_off_c, 0, 82, 60
2, 1596485, Note_off_c, 0, 63, 56
2, 1596485, Note_off_c, 0, 60, 55
2, 1596487, Note_on_c, 0, 81, 82
2, 1596488, Note_on_c, 0, 58, 68
2, 1596494, Control_c, 0, 64, 0
2, 1596496, Note_on_c, 0, 69, 72
2, 1596700, Note_off_c, 0, 58, 57
2, 1596702, Note_on_c, 0, 65, 70
2, 1596704, Note_on_c, 0, 62, 64
2, 1596718, Control_c, 0, 64, 110
2, 1596858, Note_off_c, 0, 69, 58
2, 1596935, Note_off_c, 0, 81, 60
2, 1596936, Note_off_c, 0, 65, 57
2, 1596938, Note_off_c, 0, 62, 56
2, 1596939, Note_on_c, 0, 80, 84
2, 1596940, Note_on_c, 0, 58, 72
2, 1596949, Note_on_c, 0, 68, 74
2, 1597168, Note_off_c, 0, 58, 58
2, 1597170, Note_on_c, 0, 51, 72
2, 1597292, Note_off_c, 0, 68, 59
2, 1597312, Control_c, 0, 64, 0
2, 1597383, Note_off_c, 0, 80, 61
2, 1597386, Note_off_c, 0, 51, 58
2, 1597388, Note_on_c, 0, 79, 60
2, 1597389, Note_on_c, 0, 63, 48
2, 1597396, Note_on_c, 0, 67, 50
2, 1597537, Control_c, 0, 64, 110
2, 1597577, Note_off_c, 0, 67, 52
2, 1597596, Note_on_c, 0, 82, 60
2, 1597601, Note_off_c, 0, 79, 55
2, 1597603, Note_off_c, 0, 63, 52
2, 1597606, Note_on_c, 0, 72, 47
2, 1597607, Note_on_c, 0, 44, 40
2, 1597736, Note_on_c, 0, 80, 60
2, 1597779, Note_off_c, 0, 82, 55
2, 1597817, Note_off_c, 0, 44, 50
2, 1597818, Note_on_c, 0, 56, 45
2, 1597887, Note_off_c, 0, 80, 55
2, 1597888, Note_on_c, 0, 77, 59
2, 1597982, Note_off_c, 0, 77, 54
2, 1598036, Note_off_c, 0, 72, 51
2, 1598039, Note_off_c, 0, 56, 51
2, 1598040, Note_on_c, 0, 75, 57
2, 1598042, Note_on_c, 0, 67, 43
2, 1598043, Note_on_c, 0, 46, 40
2, 1598057, Control_c, 0, 64, 0
2, 1598119, Note_off_c, 0, 75, 54
2, 1598121, Note_on_c, 0, 77, 56
2, 1598217, Note_off_c, 0, 77, 54
2, 1598221, Note_on_c, 0, 75, 55
2, 1598270, Note_off_c, 0, 46, 50
2, 1598272, Note_on_c, 0, 58, 42
2, 1598283, Control_c, 0, 64, 110
2, 1598303, Note_off_c, 0, 75, 53
2, 1598305, Note_on_c, 0, 74, 53
2, 1598403, Note_off_c, 0, 74, 53
2, 1598404, Note_on_c, 0, 75, 52
2, 1598504, Note_off_c, 0, 67, 50
2, 1598506, Note_off_c, 0, 75, 53
2, 1598507, Note_off_c, 0, 58, 50
2, 1598508, Note_on_c, 0, 79, 51
2, 1598510, Note_on_c, 0, 34, 40
2, 1598511, Note_on_c, 0, 74, 40
2, 1598512, Note_on_c, 0, 68, 36
2, 1598540, Control_c, 0, 64, 0
2, 1598737, Note_off_c, 0, 34, 50
2, 1598741, Note_on_c, 0, 77, 48
2, 1598742, Note_on_c, 0, 46, 38
2, 1598766, Control_c, 0, 64, 110
2, 1598770, Note_off_c, 0, 79, 52
2, 1598971, Note_off_c, 0, 77, 52
2, 1598973, Note_off_c, 0, 74, 50
2, 1598975, Note_off_c, 0, 68, 49
2, 1598976, Note_off_c, 0, 46, 49
2, 1598978, Note_on_c, 0, 51, 60
2, 1598979, Note_on_c, 0, 75, 72
2, 1598980, Note_on_c, 0, 67, 48
2, 1598981, Note_on_c, 0, 39, 36
2, 1599023, Control_c, 0, 64, 0
2, 1599190, Note_off_c, 0, 51, 55
2, 1599190, Note_on_c, 0, 46, 36
2, 1599306, Note_off_c, 0, 75, 58
2, 1599307, Note_off_c, 0, 67, 52
2, 1599355, Note_off_c, 0, 46, 49
2, 1599413, Note_on_c, 0, 46, 37
2, 1599422, Note_off_c, 0, 39, 49
2, 1599580, Note_off_c, 0, 46, 49
2, 1599638, Note_on_c, 0, 46, 39
2, 1599807, Note_off_c, 0, 46, 49
2, 1599866, Note_on_c, 0, 46, 41
2, 1599873, Note_on_c, 0, 55, 54
2, 1599972, Note_off_c, 0, 55, 53
2, 1599976, Note_on_c, 0, 58, 54
2, 1600012, Note_off_c, 0, 46, 50
2, 1600057, Note_off_c, 0, 58, 53
2, 1600074, Note_on_c, 0, 63, 55
2, 1600077, Note_on_c, 0, 46, 43
2, 1600174, Note_off_c, 0, 63, 53
2, 1600176, Note_on_c, 0, 67, 56
2, 1600224, Note_off_c, 0, 46, 50
2, 1600276, Note_off_c, 0, 67, 54
2, 1600276, Note_on_c, 0, 70, 81
2, 1600277, Note_on_c, 0, 43, 53
2, 1600279, Note_on_c, 0, 55, 69
2, 1600375, Note_off_c, 0, 70, 60
2, 1600377, Note_on_c, 0, 75, 57
2, 1600493, Note_off_c, 0, 55, 57
2, 1600495, Note_off_c, 0, 75, 54
2, 1600496, Note_on_c, 0, 46, 48
2, 1600497, Note_on_c, 0, 79, 58
2, 1600588, Control_c, 0, 64, 110
2, 1600592, Note_off_c, 0, 79, 54
2, 1600594, Note_on_c, 0, 77, 59
2, 1600676, Note_off_c, 0, 43, 53
2, 1600691, Note_off_c, 0, 77, 54
2, 1600694, Note_off_c, 0, 46, 52
2, 1600696, Note_on_c, 0, 75, 60
2, 1600697, Note_on_c, 0, 44, 58
2, 1600699, Note_on_c, 0, 56, 48
2, 1600909, Note_off_c, 0, 56, 52
2, 1600912, Note_on_c, 0, 46, 47
2, 1601081, Control_c, 0, 64, 0
2, 1601095, Note_off_c, 0, 44, 54
2, 1601103, Note_on_c, 0, 41, 62
2, 1601104, Note_on_c, 0, 53, 45
2, 1601127, Note_off_c, 0, 46, 51
2, 1601130, Note_on_c, 0, 74, 48
2, 1601222, Note_off_c, 0, 75, 55
2, 1601295, Control_c, 0, 64, 110
2, 1601350, Note_off_c, 0, 53, 51
2, 1601381, Note_on_c, 0, 46, 43
2, 1601493, Note_off_c, 0, 74, 52
2, 1601550, Note_off_c, 0, 41, 55
2, 1601605, Note_on_c, 0, 43, 67
2, 1601607, Note_on_c, 0, 55, 42
2, 1601610, Note_off_c, 0, 46, 50
2, 1601614, Note_on_c, 0, 75, 48
2, 1601713, Note_off_c, 0, 75, 52
2, 1601723, Control_c, 0, 64, 0
2, 1601804, Note_off_c, 0, 55, 50
2, 1601812, Note_on_c, 0, 77, 51
2, 1601815, Note_on_c, 0, 46, 40
2, 1601913, Note_off_c, 0, 77, 52
2, 1602014, Note_off_c, 0, 46, 50
2, 1602016, Note_on_c, 0, 79, 54
2, 1602029, Note_on_c, 0, 51, 38
2, 1602031, Note_on_c, 0, 39, 56
2, 1602111, Note_off_c, 0, 79, 53
2, 1602120, Note_off_c, 0, 43, 57
2, 1602216, Note_on_c, 0, 81, 57
2, 1602217, Note_on_c, 0, 46, 36
2, 1602227, Note_off_c, 0, 51, 49
2, 1602312, Note_off_c, 0, 81, 54
2, 1602414, Note_off_c, 0, 46, 49
2, 1602415, Note_on_c, 0, 84, 84
2, 1602417, Note_on_c, 0, 34, 48
2, 1602425, Control_c, 0, 64, 110
2, 1602462, Note_off_c, 0, 39, 54
2, 1602649, Note_on_c, 0, 46, 48
2, 1602815, Note_off_c, 0, 46, 52
2, 1602865, Note_off_c, 0, 34, 52
2, 1602867, Note_on_c, 0, 82, 48
2, 1602869, Note_on_c, 0, 46, 50
2, 1602938, Control_c, 0, 64, 0
2, 1602977, Note_off_c, 0, 84, 61
2, 1603048, Note_off_c, 0, 46, 52
2, 1603117, Note_on_c, 0, 46, 52
2, 1603234, Note_off_c, 0, 82, 52
2, 1603300, Note_off_c, 0, 46, 53
2, 1603365, Note_on_c, 0, 55, 51
2, 1603367, Note_on_c, 0, 46, 54
2, 1603467, Note_off_c, 0, 55, 52
2, 1603468, Note_on_c, 0, 58, 53
2, 1603516, Note_off_c, 0, 46, 53
2, 1603567, Note_off_c, 0, 58, 53
2, 1603569, Note_on_c, 0, 63, 55
2, 1603570, Note_on_c, 0, 46, 56
2, 1603669, Note_off_c, 0, 63, 53
2, 1603669, Note_on_c, 0, 67, 57
2, 1603716, Note_off_c, 0, 46, 54
2, 1603766, Note_off_c, 0, 67, 54
2, 1603769, Note_on_c, 0, 70, 83
2, 1603771, Note_on_c, 0, 55, 66
2, 1603772, Note_on_c, 0, 43, 58
2, 1603866, Note_off_c, 0, 70, 60
2, 1603869, Note_on_c, 0, 75, 61
2, 1603967, Note_off_c, 0, 55, 56
2, 1603969, Note_off_c, 0, 75, 55
2, 1603971, Note_on_c, 0, 79, 63
2, 1603972, Note_on_c, 0, 46, 45
2, 1604067, Note_off_c, 0, 79, 55
2, 1604069, Note_on_c, 0, 77, 65
2, 1604169, Note_off_c, 0, 46, 51
2, 1604170, Note_off_c, 0, 77, 56
2, 1604171, Note_off_c, 0, 43, 54
2, 1604173, Note_on_c, 0, 75, 66
2, 1604174, Note_on_c, 0, 56, 56
2, 1604175, Note_on_c, 0, 44, 63
2, 1604180, Control_c, 0, 64, 110
2, 1604270, Note_on_c, 0, 74, 68
2, 1604323, Note_off_c, 0, 75, 56
2, 1604370, Note_off_c, 0, 56, 54
2, 1604371, Note_on_c, 0, 72, 70
2, 1604372, Note_on_c, 0, 46, 65
2, 1604410, Note_off_c, 0, 74, 57
2, 1604471, Note_on_c, 0, 70, 72
2, 1604504, Note_off_c, 0, 72, 57
2, 1604570, Note_off_c, 0, 44, 55
2, 1604571, Note_off_c, 0, 46, 56
2, 1604572, Note_on_c, 0, 69, 74
2, 1604573, Note_on_c, 0, 41, 67
2, 1604575, Note_on_c, 0, 53, 50
2, 1604601, Control_c, 0, 64, 0
2, 1604605, Note_off_c, 0, 70, 58
2, 1604670, Note_on_c, 0, 70, 76
2, 1604700, Note_off_c, 0, 69, 59
2, 1604787, Note_off_c, 0, 53, 52
2, 1604790, Note_on_c, 0, 72, 78
2, 1604791, Note_on_c, 0, 46, 69
2, 1604794, Control_c, 0, 64, 110
2, 1604838, Note_off_c, 0, 70, 59
2, 1604904, Note_on_c, 0, 74, 80
2, 1604929, Note_off_c, 0, 72, 59
2, 1605019, Note_off_c, 0, 41, 57
2, 1605022, Note_off_c, 0, 46, 57
2, 1605024, Note_off_c, 0, 74, 60
2, 1605025, Note_on_c, 0, 75, 84
2, 1605025, Note_on_c, 0, 55, 60
2, 1605027, Note_on_c, 0, 43, 72
2, 1605107, Control_c, 0, 64, 0
2, 1605137, Note_off_c, 0, 75, 61
2, 1605269, Note_off_c, 0, 55, 55
2, 1605272, Note_on_c, 0, 77, 84
2, 1605273, Note_on_c, 0, 65, 72
2, 1605274, Note_on_c, 0, 46, 68
2, 1605406, Note_off_c, 0, 77, 61
2, 1605409, Note_off_c, 0, 65, 58
2, 1605538, Note_off_c, 0, 46, 57
2, 1605539, Note_off_c, 0, 43, 58
2, 1605541, Note_on_c, 0, 79, 78
2, 1605542, Note_on_c, 0, 51, 66
2, 1605544, Note_on_c, 0, 67, 68
2, 1605545, Note_on_c, 0, 39, 56
2, 1605670, Note_off_c, 0, 79, 59
2, 1605674, Note_off_c, 0, 67, 57
2, 1605755, Note_off_c, 0, 51, 56
2, 1605822, Note_on_c, 0, 81, 72
2, 1605824, Note_on_c, 0, 69, 60
2, 1605825, Note_on_c, 0, 46, 54
2, 1605972, Note_off_c, 0, 81, 58
2, 1605974, Note_off_c, 0, 69, 55
2, 1605975, Note_off_c, 0, 39, 54
2, 1606034, Note_off_c, 0, 46, 53
2, 1606270, Note_on_c, 0, 82, 84
2, 1606274, Note_on_c, 0, 70, 72
2, 1606275, Note_on_c, 0, 46, 78
2, 1606276, Note_on_c, 0, 34, 70
2, 1606315, Control_c, 0, 64, 95
2, 1608330, Note_off_c, 0, 70, 58
2, 1608416, Note_off_c, 0, 46, 59
2, 1608548, Note_off_c, 0, 34, 57
2, 1608637, Note_off_c, 0, 82, 61
2, 1608699, Control_c, 0, 64, 0
2, 1608721, Control_c, 0, 67, 127
2, 1608882, Note_on_c, 0, 83, 52
2, 1608883, Note_on_c, 0, 71, 40
2, 1608885, Note_on_c, 0, 35, 36
2, 1608886, Note_on_c, 0, 47, 30
2, 1609066, Control_c, 0, 64, 110
2, 1609094, Note_off_c, 0, 47, 47
2, 1609097, Note_off_c, 0, 35, 49
2, 1609098, Note_on_c, 0, 59, 30
2, 1609241, Note_off_c, 0, 59, 47
2, 1609313, Note_on_c, 0, 59, 32
2, 1609459, Note_off_c, 0, 59, 48
2, 1609530, Note_on_c, 0, 59, 34
2, 1609666, Note_off_c, 0, 59, 48
2, 1609749, Note_off_c, 0, 83, 53
2, 1609749, Note_off_c, 0, 71, 50
2, 1609751, Note_on_c, 0, 59, 36
2, 1609872, Note_off_c, 0, 59, 49
2, 1609946, Note_on_c, 0, 59, 38
2, 1610078, Note_off_c, 0, 59, 49
2, 1610146, Note_on_c, 0, 59, 40
2, 1610258, Note_off_c, 0, 59, 50
2, 1610350, Note_on_c, 0, 59, 42
2, 1610475, Note_off_c, 0, 59, 50
2, 1610550, Note_on_c, 0, 59, 42
2, 1610669, Note_off_c, 0, 59, 50
2, 1610750, Note_on_c, 0, 59, 41
2, 1610871, Note_off_c, 0, 59, 50
2, 1610950, Note_on_c, 0, 59, 39
2, 1611071, Note_off_c, 0, 59, 49
2, 1611152, Note_on_c, 0, 59, 37
2, 1611267, Note_off_c, 0, 59, 49
2, 1611350, Note_on_c, 0, 78, 56
2, 1611356, Note_on_c, 0, 59, 36
2, 1611362, Note_on_c, 0, 69, 40
2, 1611363, Note_on_c, 0, 66, 30
2, 1611376, Control_c, 0, 64, 0
2, 1611475, Note_off_c, 0, 59, 49
2, 1611569, Note_on_c, 0, 59, 34
2, 1611580, Control_c, 0, 64, 110
2, 1611715, Note_off_c, 0, 59, 48
2, 1611785, Note_on_c, 0, 59, 32
2, 1611920, Note_off_c, 0, 59, 48
2, 1612003, Note_off_c, 0, 78, 54
2, 1612004, Note_on_c, 0, 76, 68
2, 1612006, Note_on_c, 0, 59, 30
2, 1612131, Note_off_c, 0, 59, 47
2, 1612170, Note_off_c, 0, 76, 57
2, 1612221, Note_on_c, 0, 47, 36
2, 1612223, Note_on_c, 0, 76, 72
2, 1612225, Control_c, 0, 64, 0
2, 1612438, Note_off_c, 0, 47, 49
2, 1612440, Control_c, 0, 64, 110
2, 1612441, Note_on_c, 0, 59, 31
2, 1612574, Note_off_c, 0, 59, 47
2, 1612673, Note_on_c, 0, 59, 33
2, 1612674, Note_on_c, 0, 75, 60
2, 1612750, Note_off_c, 0, 76, 58
2, 1612820, Note_off_c, 0, 59, 48
2, 1612924, Note_on_c, 0, 59, 35
2, 1613058, Note_off_c, 0, 59, 48
2, 1613100, Note_off_c, 0, 66, 47
2, 1613157, Note_on_c, 0, 59, 42
2, 1613228, Note_off_c, 0, 69, 50
2, 1613305, Note_off_c, 0, 59, 50
2, 1613351, Control_c, 0, 64, 0
2, 1613356, Note_off_c, 0, 75, 55
2, 1613359, Note_on_c, 0, 78, 48
2, 1613360, Note_on_c, 0, 59, 44
2, 1613558, Note_off_c, 0, 78, 52
2, 1613560, Note_off_c, 0, 59, 51
2, 1613561, Control_c, 0, 64, 110
2, 1613562, Note_on_c, 0, 68, 36
2, 1613564, Note_on_c, 0, 76, 56
2, 1613565, Note_on_c, 0, 64, 46
2, 1613792, Note_off_c, 0, 76, 54
2, 1613793, Note_on_c, 0, 73, 64
2, 1613795, Note_on_c, 0, 59, 48
2, 1613934, Note_off_c, 0, 68, 49
2, 1613976, Note_off_c, 0, 73, 56
2, 1614028, Note_off_c, 0, 59, 52
2, 1614029, Note_on_c, 0, 73, 72
2, 1614030, Note_on_c, 0, 63, 48
2, 1614032, Note_on_c, 0, 66, 36
2, 1614057, Control_c, 0, 64, 0
2, 1614117, Note_off_c, 0, 64, 51
2, 1614242, Note_on_c, 0, 59, 47
2, 1614263, Control_c, 0, 64, 110
2, 1614409, Note_off_c, 0, 59, 51
2, 1614460, Note_on_c, 0, 59, 45
2, 1614461, Note_on_c, 0, 71, 60
2, 1614502, Note_off_c, 0, 73, 58
2, 1614615, Note_off_c, 0, 66, 49
2, 1614643, Note_off_c, 0, 59, 51
2, 1614709, Note_off_c, 0, 63, 52
2, 1614713, Note_on_c, 0, 59, 43
2, 1614893, Note_off_c, 0, 59, 50
2, 1614944, Note_on_c, 0, 59, 42
2, 1615095, Note_off_c, 0, 59, 50
2, 1615133, Control_c, 0, 64, 0
2, 1615147, Note_on_c, 0, 59, 40
2, 1615149, Note_on_c, 0, 72, 54
2, 1615186, Note_off_c, 0, 71, 55
2, 1615345, Control_c, 0, 64, 110
2, 1615347, Note_off_c, 0, 59, 50
2, 1615349, Note_on_c, 0, 66, 40
2, 1615350, Note_on_c, 0, 73, 51
2, 1615351, Note_on_c, 0, 51, 38
2, 1615387, Note_off_c, 0, 72, 53
2, 1615578, Note_off_c, 0, 51, 49
2, 1615582, Note_on_c, 0, 69, 48
2, 1615583, Note_on_c, 0, 59, 36
2, 1615621, Note_off_c, 0, 73, 52
2, 1615764, Note_off_c, 0, 69, 52
2, 1615808, Control_c, 0, 64, 0
2, 1615814, Note_off_c, 0, 59, 49
2, 1615815, Note_off_c, 0, 66, 50
2, 1615817, Note_on_c, 0, 69, 48
2, 1615818, Note_on_c, 0, 52, 36
2, 1616018, Control_c, 0, 64, 110
2, 1616030, Note_off_c, 0, 52, 49
2, 1616033, Note_on_c, 0, 68, 52
2, 1616034, Note_on_c, 0, 59, 40
2, 1616044, Note_off_c, 0, 69, 52
2, 1616231, Note_off_c, 0, 59, 50
2, 1616233, Note_on_c, 0, 71, 56
2, 1616235, Note_on_c, 0, 56, 44
2, 1616245, Note_off_c, 0, 68, 53
2, 1616433, Note_off_c, 0, 56, 51
2, 1616435, Note_on_c, 0, 64, 60
2, 1616437, Note_on_c, 0, 59, 48
2, 1616470, Note_off_c, 0, 71, 54
2, 1616476, Control_c, 0, 64, 0
2, 1616576, Note_off_c, 0, 64, 55
2, 1616616, Note_off_c, 0, 59, 52
2, 1616647, Note_on_c, 0, 64, 60
2, 1616651, Note_on_c, 0, 57, 48
2, 1616652, Note_on_c, 0, 54, 43
2, 1616676, Control_c, 0, 64, 110
2, 1616849, Note_off_c, 0, 57, 52
2, 1616852, Note_off_c, 0, 54, 50
2, 1616853, Note_on_c, 0, 63, 56
2, 1616855, Note_on_c, 0, 59, 42
2, 1616895, Note_off_c, 0, 64, 55
2, 1617067, Note_off_c, 0, 59, 50
2, 1617068, Note_on_c, 0, 66, 52
2, 1617069, Note_on_c, 0, 52, 36
2, 1617071, Note_on_c, 0, 56, 42
2, 1617097, Note_off_c, 0, 63, 54
2, 1617283, Note_off_c, 0, 56, 50
2, 1617284, Note_off_c, 0, 52, 49
2, 1617287, Note_on_c, 0, 64, 48
2, 1617288, Note_on_c, 0, 59, 36
2, 1617322, Note_off_c, 0, 66, 53
2, 1617352, Control_c, 0, 64, 0
2, 1617434, Note_off_c, 0, 59, 49
2, 1617436, Note_off_c, 0, 64, 52
2, 1617500, Note_on_c, 0, 68, 48
2, 1617501, Note_on_c, 0, 54, 36
2, 1617503, Note_on_c, 0, 51, 30
2, 1617553, Control_c, 0, 64, 110
2, 1617720, Note_off_c, 0, 54, 49
2, 1617721, Note_off_c, 0, 51, 47
2, 1617723, Note_on_c, 0, 66, 52
2, 1617725, Note_on_c, 0, 59, 40
2, 1617756, Note_off_c, 0, 68, 52
2, 1617934, Note_off_c, 0, 59, 50
2, 1617938, Note_on_c, 0, 71, 56
2, 1617939, Note_on_c, 0, 56, 44
2, 1617969, Note_off_c, 0, 66, 53
2, 1618154, Note_off_c, 0, 56, 51
2, 1618157, Note_on_c, 0, 59, 48
2, 1618158, Note_on_c, 0, 64, 60
2, 1618202, Control_c, 0, 64, 0
2, 1618205, Note_off_c, 0, 71, 54
2, 1618310, Note_off_c, 0, 64, 55
2, 1618354, Note_off_c, 0, 59, 52
2, 1618370, Note_on_c, 0, 64, 60
2, 1618372, Note_on_c, 0, 57, 48
2, 1618373, Note_on_c, 0, 54, 36
2, 1618400, Control_c, 0, 64, 110
2, 1618604, Note_off_c, 0, 57, 52
2, 1618607, Note_off_c, 0, 54, 49
2, 1618608, Note_on_c, 0, 63, 56
2, 1618609, Note_on_c, 0, 59, 42
2, 1618630, Note_off_c, 0, 64, 55
2, 1618822, Note_off_c, 0, 59, 50
2, 1618823, Note_on_c, 0, 66, 52
2, 1618824, Note_on_c, 0, 52, 36
2, 1618826, Note_on_c, 0, 56, 40
2, 1618851, Note_off_c, 0, 63, 54
2, 1619056, Note_off_c, 0, 56, 50
2, 1619057, Note_off_c, 0, 52, 49
2, 1619059, Note_on_c, 0, 64, 48
2, 1619060, Note_on_c, 0, 59, 36
2, 1619102, Control_c, 0, 64, 0
2, 1619108, Note_off_c, 0, 66, 53
2, 1619222, Note_off_c, 0, 59, 49
2, 1619223, Note_off_c, 0, 64, 52
2, 1619271, Note_on_c, 0, 54, 60
2, 1619273, Note_on_c, 0, 51, 50
2, 1619301, Control_c, 0, 64, 110
2, 1619504, Note_off_c, 0, 54, 55
2, 1619507, Note_on_c, 0, 59, 60
2, 1619622, Control_c, 0, 67, 0
2, 1619739, Note_off_c, 0, 59, 55
2, 1619741, Note_off_c, 0, 51, 52
2, 1619743, Note_on_c, 0, 50, 80
2, 1619744, Note_on_c, 0, 53, 92
2, 1619805, Control_c, 0, 64, 0
2, 1619973, Note_on_c, 0, 59, 48
2, 1620003, Control_c, 0, 64, 110
2, 1620206, Note_on_c, 0, 80, 96
2, 1620221, Note_on_c, 0, 68, 85
2, 1620305, Note_off_c, 0, 59, 52
2, 1620408, Note_on_c, 0, 59, 45
2, 1620490, Note_off_c, 0, 53, 62
2, 1620507, Note_off_c, 0, 50, 60
2, 1620593, Note_off_c, 0, 59, 51
2, 1620610, Note_on_c, 0, 53, 42
2, 1620611, Note_on_c, 0, 50, 40
2, 1620638, Control_c, 0, 64, 0
2, 1620809, Note_off_c, 0, 53, 50
2, 1620812, Note_on_c, 0, 58, 39
2, 1620838, Control_c, 0, 64, 110
2, 1621010, Note_off_c, 0, 50, 50
2, 1621011, Note_off_c, 0, 58, 49
2, 1621012, Note_on_c, 0, 51, 36
2, 1621044, Note_off_c, 0, 68, 61
2, 1621226, Note_off_c, 0, 80, 63
2, 1621230, Note_off_c, 0, 51, 49
2, 1621232, Note_on_c, 0, 79, 48
2, 1621234, Note_on_c, 0, 58, 36
2, 1621240, Note_on_c, 0, 67, 37
2, 1621437, Note_off_c, 0, 67, 49
2, 1621445, Note_off_c, 0, 79, 52
2, 1621446, Note_off_c, 0, 58, 49
2, 1621448, Note_on_c, 0, 82, 48
2, 1621449, Note_on_c, 0, 55, 42
2, 1621457, Note_on_c, 0, 70, 37
2, 1621472, Control_c, 0, 64, 0
2, 1621654, Note_off_c, 0, 70, 49
2, 1621663, Note_off_c, 0, 82, 52
2, 1621663, Note_off_c, 0, 55, 50
2, 1621667, Note_on_c, 0, 75, 60
2, 1621669, Note_on_c, 0, 58, 48
2, 1621672, Control_c, 0, 64, 110
2, 1621675, Note_on_c, 0, 63, 49
2, 1621816, Note_off_c, 0, 63, 52
2, 1621830, Note_off_c, 0, 75, 55
2, 1621878, Note_off_c, 0, 58, 52
2, 1621881, Note_on_c, 0, 75, 60
2, 1621883, Note_on_c, 0, 56, 48
2, 1621884, Note_on_c, 0, 53, 40
2, 1621890, Note_on_c, 0, 63, 49
2, 1622058, Note_off_c, 0, 63, 52
2, 1622078, Note_off_c, 0, 75, 55
2, 1622081, Note_off_c, 0, 53, 50
2, 1622083, Note_off_c, 0, 56, 52
2, 1622084, Note_on_c, 0, 74, 60
2, 1622085, Note_on_c, 0, 58, 42
2, 1622094, Note_on_c, 0, 62, 49
2, 1622273, Note_off_c, 0, 62, 52
2, 1622280, Note_off_c, 0, 74, 55
2, 1622283, Note_off_c, 0, 58, 50
2, 1622284, Note_on_c, 0, 77, 48
2, 1622286, Note_on_c, 0, 55, 36
2, 1622287, Note_on_c, 0, 51, 30
2, 1622291, Control_c, 0, 64, 0
2, 1622294, Note_on_c, 0, 65, 37
2, 1622454, Note_off_c, 0, 65, 49
2, 1622479, Note_off_c, 0, 77, 52
2, 1622483, Note_off_c, 0, 55, 49
2, 1622484, Note_off_c, 0, 51, 47
2, 1622487, Note_on_c, 0, 75, 36
2, 1622488, Note_on_c, 0, 58, 36
2, 1622491, Control_c, 0, 64, 110
2, 1622494, Note_on_c, 0, 63, 25
2, 1622618, Note_off_c, 0, 63, 46
2, 1622631, Note_off_c, 0, 75, 49
2, 1622634, Note_off_c, 0, 58, 49
2, 1622682, Note_on_c, 0, 79, 40
2, 1622684, Note_on_c, 0, 53, 36
2, 1622686, Note_on_c, 0, 50, 30
2, 1622691, Note_on_c, 0, 67, 38
2, 1622873, Note_off_c, 0, 67, 49
2, 1622898, Note_off_c, 0, 79, 50
2, 1622900, Note_off_c, 0, 50, 47
2, 1622901, Note_off_c, 0, 53, 49
2, 1622903, Note_on_c, 0, 77, 39
2, 1622904, Note_on_c, 0, 58, 38
2, 1622913, Note_on_c, 0, 65, 28
2, 1623093, Note_off_c, 0, 65, 47
2, 1623096, Control_c, 0, 64, 0
2, 1623115, Note_off_c, 0, 77, 49
2, 1623117, Note_off_c, 0, 58, 49
2, 1623119, Note_on_c, 0, 82, 42
2, 1623121, Note_on_c, 0, 55, 40
2, 1623128, Note_on_c, 0, 70, 31
2, 1623295, Control_c, 0, 64, 110
2, 1623320, Note_off_c, 0, 70, 47
2, 1623333, Note_off_c, 0, 82, 50
2, 1623334, Note_off_c, 0, 55, 50
2, 1623337, Note_on_c, 0, 75, 45
2, 1623338, Note_on_c, 0, 63, 40
2, 1623340, Note_on_c, 0, 58, 42
2, 1623483, Note_off_c, 0, 75, 51
2, 1623484, Note_off_c, 0, 63, 50
2, 1623549, Note_off_c, 0, 58, 50
2, 1623551, Note_on_c, 0, 75, 48
2, 1623554, Note_on_c, 0, 53, 45
2, 1623555, Note_on_c, 0, 56, 40
2, 1623560, Note_on_c, 0, 63, 37
2, 1623744, Note_off_c, 0, 63, 49
2, 1623752, Note_off_c, 0, 53, 51
2, 1623753, Note_off_c, 0, 56, 50
2, 1623755, Note_on_c, 0, 74, 51
2, 1623758, Note_on_c, 0, 58, 47
2, 1623764, Note_on_c, 0, 62, 40
2, 1623828, Note_off_c, 0, 75, 52
2, 1623860, Control_c, 0, 64, 0
2, 1623930, Note_off_c, 0, 62, 50
2, 1623951, Note_off_c, 0, 74, 52
2, 1623954, Note_off_c, 0, 58, 51
2, 1623955, Note_on_c, 0, 77, 54
2, 1623956, Note_on_c, 0, 55, 49
2, 1623957, Note_on_c, 0, 51, 40
2, 1623966, Note_on_c, 0, 65, 43
2, 1624061, Control_c, 0, 64, 110
2, 1624125, Note_off_c, 0, 65, 50
2, 1624153, Note_off_c, 0, 55, 52
2, 1624156, Note_off_c, 0, 51, 50
2, 1624157, Note_on_c, 0, 75, 57
2, 1624159, Note_on_c, 0, 58, 51
2, 1624167, Note_on_c, 0, 63, 46
2, 1624208, Note_off_c, 0, 77, 53
2, 1624280, Note_off_c, 0, 63, 51
2, 1624301, Note_off_c, 0, 75, 54
2, 1624305, Note_off_c, 0, 58, 52
2, 1624352, Note_on_c, 0, 79, 60
2, 1624355, Note_on_c, 0, 53, 54
2, 1624356, Note_on_c, 0, 50, 50
2, 1624363, Note_on_c, 0, 67, 49
2, 1624554, Note_off_c, 0, 67, 52
2, 1624571, Note_off_c, 0, 53, 53
2, 1624573, Note_off_c, 0, 50, 52
2, 1624574, Note_on_c, 0, 77, 63
2, 1624575, Note_on_c, 0, 58, 56
2, 1624583, Note_on_c, 0, 65, 52
2, 1624603, Note_off_c, 0, 79, 55
2, 1624714, Note_off_c, 0, 65, 53
2, 1624719, Note_off_c, 0, 77, 55
2, 1624724, Control_c, 0, 64, 0
2, 1624787, Note_off_c, 0, 58, 54
2, 1624789, Note_on_c, 0, 80, 66
2, 1624791, Note_on_c, 0, 51, 58
2, 1624793, Note_on_c, 0, 49, 58
2, 1624798, Note_on_c, 0, 68, 55
2, 1624923, Control_c, 0, 64, 110
2, 1624973, Note_off_c, 0, 68, 53
2, 1624988, Note_off_c, 0, 51, 54
2, 1624991, Note_off_c, 0, 49, 54
2, 1624992, Note_on_c, 0, 79, 69
2, 1624993, Note_on_c, 0, 58, 60
2, 1625003, Note_on_c, 0, 67, 58
2, 1625023, Note_off_c, 0, 80, 56
2, 1625135, Note_off_c, 0, 67, 54
2, 1625153, Note_off_c, 0, 79, 57
2, 1625204, Note_off_c, 0, 58, 55
2, 1625206, Note_on_c, 0, 82, 72
2, 1625209, Note_on_c, 0, 51, 63
2, 1625210, Note_on_c, 0, 48, 60
2, 1625215, Note_on_c, 0, 70, 61
2, 1625412, Note_off_c, 0, 70, 55
2, 1625439, Note_off_c, 0, 51, 55
2, 1625443, Note_off_c, 0, 48, 55
2, 1625444, Note_on_c, 0, 80, 75
2, 1625446, Note_on_c, 0, 60, 65
2, 1625452, Note_on_c, 0, 68, 64
2, 1625495, Note_off_c, 0, 82, 58
2, 1625606, Note_off_c, 0, 68, 56
2, 1625621, Note_off_c, 0, 80, 59
2, 1625645, Control_c, 0, 64, 0
2, 1625672, Note_off_c, 0, 60, 56
2, 1625674, Note_on_c, 0, 84, 78
2, 1625677, Note_on_c, 0, 51, 67
2, 1625678, Note_on_c, 0, 43, 60
2, 1625683, Note_on_c, 0, 72, 67
2, 1625844, Control_c, 0, 64, 110
2, 1625906, Note_off_c, 0, 51, 57
2, 1625910, Note_off_c, 0, 43, 55
2, 1625911, Note_on_c, 0, 83, 81
2, 1625913, Note_on_c, 0, 55, 69
2, 1625920, Note_on_c, 0, 71, 70
2, 1625963, Note_off_c, 0, 72, 57
2, 1625965, Note_off_c, 0, 84, 59
2, 1626077, Note_off_c, 0, 71, 57
2, 1626089, Note_off_c, 0, 83, 60
2, 1626140, Note_off_c, 0, 55, 57
2, 1626142, Note_on_c, 0, 86, 84
2, 1626145, Note_on_c, 0, 44, 72
2, 1626152, Note_on_c, 0, 74, 70
2, 1626176, Control_c, 0, 64, 0
2, 1626364, Note_off_c, 0, 74, 57
2, 1626378, Control_c, 0, 64, 110
2, 1626390, Note_off_c, 0, 86, 61
2, 1626392, Note_off_c, 0, 44, 58
2, 1626395, Note_on_c, 0, 84, 84
2, 1626398, Note_on_c, 0, 48, 72
2, 1626404, Note_on_c, 0, 72, 74
2, 1626605, Note_off_c, 0, 72, 59
2, 1626622, Note_off_c, 0, 84, 61
2, 1626625, Note_off_c, 0, 48, 58
2, 1626628, Note_on_c, 0, 82, 79
2, 1626630, Note_on_c, 0, 53, 67
2, 1626638, Note_on_c, 0, 70, 69
2, 1626656, Control_c, 0, 64, 0
2, 1626836, Note_off_c, 0, 70, 57
2, 1626854, Control_c, 0, 64, 110
2, 1626875, Note_off_c, 0, 82, 60
2, 1626877, Note_off_c, 0, 53, 57
2, 1626878, Note_on_c, 0, 80, 74
2, 1626881, Note_on_c, 0, 56, 62
2, 1626889, Note_on_c, 0, 68, 66
2, 1627105, Note_off_c, 0, 68, 56
2, 1627127, Note_off_c, 0, 80, 59
2, 1627129, Note_off_c, 0, 56, 55
2, 1627131, Note_on_c, 0, 79, 69
2, 1627132, Note_on_c, 0, 46, 57
2, 1627138, Note_on_c, 0, 67, 58
2, 1627197, Control_c, 0, 64, 0
2, 1627350, Note_off_c, 0, 67, 54
2, 1627393, Note_off_c, 0, 79, 57
2, 1627396, Control_c, 0, 64, 110
2, 1627397, Note_off_c, 0, 46, 54
2, 1627398, Note_on_c, 0, 77, 64
2, 1627399, Note_on_c, 0, 56, 52
2, 1627401, Note_on_c, 0, 53, 48
2, 1627408, Note_on_c, 0, 65, 40
2, 1627630, Note_off_c, 0, 65, 50
2, 1627643, Note_off_c, 0, 77, 56
2, 1627646, Note_off_c, 0, 53, 52
2, 1627647, Note_off_c, 0, 56, 53
2, 1627650, Note_on_c, 0, 80, 59
2, 1627651, Note_on_c, 0, 58, 47
2, 1627658, Note_on_c, 0, 68, 49
2, 1627897, Note_off_c, 0, 68, 52
2, 1627911, Note_off_c, 0, 80, 54
2, 1627913, Note_off_c, 0, 58, 51
2, 1627914, Note_on_c, 0, 74, 54
2, 1627916, Note_on_c, 0, 56, 42
2, 1627917, Note_on_c, 0, 62, 46
2, 1627919, Note_on_c, 0, 53, 36
2, 1627936, Control_c, 0, 64, 0
2, 1628111, Note_off_c, 0, 74, 53
2, 1628113, Note_off_c, 0, 62, 51
2, 1628181, Note_off_c, 0, 53, 49
2, 1628182, Note_off_c, 0, 56, 50
2, 1628183, Control_c, 0, 64, 127
2, 1628184, Note_on_c, 0, 75, 48
2, 1628186, Note_on_c, 0, 51, 36
2, 1628191, Note_on_c, 0, 63, 42
2, 1628298, Note_off_c, 0, 51, 49
2, 1628299, Note_on_c, 0, 55, 36
2, 1628394, Note_off_c, 0, 55, 49
2, 1628397, Note_on_c, 0, 58, 36
2, 1628438, Note_off_c, 0, 63, 50
2, 1628494, Note_off_c, 0, 58, 49
2, 1628498, Note_on_c, 0, 63, 36
2, 1628613, Note_off_c, 0, 63, 49
2, 1628615, Note_on_c, 0, 58, 36
2, 1628713, Note_off_c, 0, 58, 49
2, 1628714, Note_on_c, 0, 63, 37
2, 1628831, Note_off_c, 0, 63, 49
2, 1628832, Note_on_c, 0, 58, 37
2, 1628930, Note_off_c, 0, 58, 49
2, 1628932, Note_on_c, 0, 55, 37
2, 1629047, Note_off_c, 0, 75, 52
2, 1629050, Note_off_c, 0, 55, 49
2, 1629052, Note_on_c, 0, 51, 37
2, 1629165, Note_off_c, 0, 51, 49
2, 1629166, Note_on_c, 0, 55, 38
2, 1629265, Note_off_c, 0, 55, 49
2, 1629266, Note_on_c, 0, 58, 38
2, 1629383, Note_off_c, 0, 58, 49
2, 1629384, Note_on_c, 0, 67, 49
2, 1629385, Note_on_c, 0, 63, 38
2, 1629482, Note_off_c, 0, 67, 52
2, 1629483, Note_off_c, 0, 63, 49
2, 1629486, Note_on_c, 0, 79, 50
2, 1629487, Note_on_c, 0, 58, 38
2, 1629600, Note_off_c, 0, 58, 49
2, 1629602, Note_on_c, 0, 63, 39
2, 1629698, Note_off_c, 0, 63, 49
2, 1629701, Note_on_c, 0, 58, 39
2, 1629816, Note_off_c, 0, 58, 49
2, 1629818, Note_on_c, 0, 55, 39
2, 1629933, Note_off_c, 0, 79, 52
2, 1629935, Note_off_c, 0, 55, 49
2, 1629937, Control_c, 0, 64, 0
2, 1629938, Note_on_c, 0, 70, 54
2, 1629940, Note_on_c, 0, 43, 39
2, 1630032, Note_off_c, 0, 70, 53
2, 1630036, Note_off_c, 0, 43, 49
2, 1630037, Note_on_c, 0, 82, 55
2, 1630038, Note_on_c, 0, 46, 40
2, 1630142, Control_c, 0, 64, 127
2, 1630149, Note_off_c, 0, 46, 50
2, 1630152, Note_on_c, 0, 51, 40
2, 1630266, Note_off_c, 0, 51, 50
2, 1630269, Note_on_c, 0, 55, 40
2, 1630383, Note_off_c, 0, 55, 50
2, 1630386, Note_on_c, 0, 51, 40
2, 1630483, Note_off_c, 0, 51, 50
2, 1630485, Note_on_c, 0, 55, 41
2, 1630601, Note_off_c, 0, 55, 50
2, 1630603, Note_on_c, 0, 51, 41
2, 1630718, Note_off_c, 0, 51, 50
2, 1630720, Note_on_c, 0, 46, 41
2, 1630836, Note_off_c, 0, 82, 53
2, 1630837, Note_off_c, 0, 46, 50
2, 1630839, Note_on_c, 0, 43, 42
2, 1630952, Note_off_c, 0, 43, 50
2, 1630953, Note_on_c, 0, 46, 42
2, 1631053, Note_off_c, 0, 46, 50
2, 1631054, Note_on_c, 0, 51, 42
2, 1631171, Note_off_c, 0, 51, 50
2, 1631172, Note_on_c, 0, 75, 64
2, 1631174, Note_on_c, 0, 55, 42
2, 1631287, Note_off_c, 0, 75, 56
2, 1631288, Note_off_c, 0, 55, 50
2, 1631290, Note_on_c, 0, 87, 65
2, 1631291, Note_on_c, 0, 51, 43
2, 1631404, Note_off_c, 0, 51, 50
2, 1631405, Note_on_c, 0, 55, 43
2, 1631522, Note_off_c, 0, 55, 50
2, 1631523, Note_on_c, 0, 51, 43
2, 1631639, Note_off_c, 0, 51, 50
2, 1631640, Note_on_c, 0, 46, 43
2, 1631756, Note_off_c, 0, 87, 56
2, 1631757, Note_off_c, 0, 46, 50
2, 1631759, Control_c, 0, 64, 0
2, 1631761, Note_on_c, 0, 53, 69
2, 1631762, Note_on_c, 0, 44, 44
2, 1631871, Note_off_c, 0, 53, 57
2, 1631872, Note_off_c, 0, 44, 51
2, 1631876, Note_on_c, 0, 65, 70
2, 1631877, Note_on_c, 0, 48, 44
2, 1631952, Control_c, 0, 64, 127
2, 1631989, Note_off_c, 0, 48, 51
2, 1631990, Note_on_c, 0, 51, 44
2, 1632107, Note_off_c, 0, 51, 51
2, 1632108, Note_on_c, 0, 53, 44
2, 1632223, Note_off_c, 0, 53, 51
2, 1632224, Note_on_c, 0, 51, 45
2, 1632341, Note_off_c, 0, 51, 51
2, 1632342, Note_on_c, 0, 53, 45
2, 1632457, Note_off_c, 0, 53, 51
2, 1632458, Note_on_c, 0, 51, 45
2, 1632575, Note_off_c, 0, 51, 51
2, 1632576, Note_on_c, 0, 48, 45
2, 1632691, Note_off_c, 0, 65, 57
2, 1632692, Note_off_c, 0, 48, 51
2, 1632693, Note_on_c, 0, 44, 46
2, 1632808, Note_off_c, 0, 44, 51
2, 1632809, Note_on_c, 0, 48, 46
2, 1632926, Note_off_c, 0, 48, 51
2, 1632927, Note_on_c, 0, 51, 46
2, 1633059, Note_off_c, 0, 51, 51
2, 1633060, Note_on_c, 0, 72, 79
2, 1633061, Note_on_c, 0, 53, 46
2, 1633175, Note_off_c, 0, 72, 60
2, 1633176, Note_off_c, 0, 53, 51
2, 1633178, Note_on_c, 0, 84, 80
2, 1633179, Note_on_c, 0, 51, 47
2, 1633292, Note_off_c, 0, 51, 51
2, 1633293, Note_on_c, 0, 53, 47
2, 1633409, Note_off_c, 0, 53, 51
2, 1633411, Note_on_c, 0, 51, 47
2, 1633541, Note_off_c, 0, 51, 51
2, 1633543, Note_on_c, 0, 53, 48
2, 1633660, Note_off_c, 0, 84, 60
2, 1633661, Note_off_c, 0, 53, 52
2, 1633663, Note_on_c, 0, 82, 84
2, 1633664, Control_c, 0, 64, 0
2, 1633666, Note_on_c, 0, 46, 48
2, 1633675, Note_on_c, 0, 70, 76
2, 1633777, Note_off_c, 0, 46, 52
2, 1633778, Note_on_c, 0, 56, 48
2, 1633894, Note_off_c, 0, 56, 52
2, 1633895, Note_on_c, 0, 50, 47
2, 1634028, Note_off_c, 0, 50, 51
2, 1634029, Note_on_c, 0, 56, 46
2, 1634144, Note_off_c, 0, 56, 51
2, 1634146, Note_on_c, 0, 53, 45
2, 1634261, Note_off_c, 0, 53, 51
2, 1634263, Note_on_c, 0, 56, 45
2, 1634394, Note_off_c, 0, 56, 51
2, 1634396, Note_on_c, 0, 50, 44
2, 1634511, Note_off_c, 0, 50, 51
2, 1634512, Note_on_c, 0, 56, 43
2, 1634646, Note_off_c, 0, 56, 50
2, 1634648, Note_on_c, 0, 46, 42
2, 1634743, Note_off_c, 0, 70, 59
2, 1634763, Note_off_c, 0, 46, 50
2, 1634765, Note_on_c, 0, 56, 42
2, 1634895, Note_off_c, 0, 82, 61
2, 1634898, Note_off_c, 0, 56, 50
2, 1634900, Note_on_c, 0, 50, 41
2, 1634901, Note_on_c, 0, 81, 66
2, 1634909, Note_on_c, 0, 69, 58
2, 1635013, Note_off_c, 0, 50, 50
2, 1635015, Note_on_c, 0, 56, 40
2, 1635106, Note_off_c, 0, 69, 54
2, 1635146, Note_off_c, 0, 81, 56
2, 1635149, Note_off_c, 0, 56, 50
2, 1635151, Note_on_c, 0, 53, 39
2, 1635153, Note_on_c, 0, 80, 60
2, 1635160, Note_on_c, 0, 68, 52
2, 1635262, Note_off_c, 0, 53, 49
2, 1635266, Note_on_c, 0, 56, 39
2, 1635342, Note_off_c, 0, 68, 53
2, 1635398, Note_off_c, 0, 80, 55
2, 1635401, Note_off_c, 0, 56, 49
2, 1635402, Note_on_c, 0, 77, 54
2, 1635403, Note_on_c, 0, 50, 38
2, 1635411, Note_on_c, 0, 65, 46
2, 1635514, Note_off_c, 0, 50, 49
2, 1635516, Note_on_c, 0, 56, 37
2, 1635570, Note_off_c, 0, 65, 51
2, 1635581, Note_off_c, 0, 77, 53
2, 1635647, Note_off_c, 0, 56, 49
2, 1635649, Control_c, 0, 64, 127
2, 1635651, Note_on_c, 0, 75, 48
2, 1635652, Note_on_c, 0, 51, 36
2, 1635662, Note_on_c, 0, 63, 36
2, 1635782, Note_off_c, 0, 51, 49
2, 1635784, Note_on_c, 0, 55, 36
2, 1635899, Note_off_c, 0, 55, 49
2, 1635901, Note_on_c, 0, 58, 36
2, 1635945, Note_off_c, 0, 63, 49
2, 1636032, Note_off_c, 0, 58, 49
2, 1636034, Note_on_c, 0, 63, 36
2, 1636148, Note_off_c, 0, 63, 49
2, 1636150, Note_on_c, 0, 58, 37
2, 1636267, Note_off_c, 0, 58, 49
2, 1636268, Note_on_c, 0, 63, 37
2, 1636383, Note_off_c, 0, 63, 49
2, 1636384, Note_on_c, 0, 58, 38
2, 1636501, Note_off_c, 0, 58, 49
2, 1636502, Note_on_c, 0, 55, 38
2, 1636616, Note_off_c, 0, 75, 52
2, 1636618, Note_off_c, 0, 55, 49
2, 1636619, Note_on_c, 0, 51, 38
2, 1636733, Note_off_c, 0, 51, 49
2, 1636735, Note_on_c, 0, 55, 39
2, 1636852, Note_off_c, 0, 55, 49
2, 1636853, Note_on_c, 0, 58, 39
2, 1636952, Note_off_c, 0, 58, 49
2, 1636953, Note_on_c, 0, 67, 49
2, 1636955, Note_on_c, 0, 63, 40
2, 1637052, Note_off_c, 0, 67, 52
2, 1637054, Note_off_c, 0, 63, 50
2, 1637055, Note_on_c, 0, 79, 74
2, 1637056, Note_on_c, 0, 58, 40
2, 1637169, Note_off_c, 0, 58, 50
2, 1637171, Note_on_c, 0, 63, 40
2, 1637267, Note_off_c, 0, 79, 59
2, 1637271, Note_off_c, 0, 63, 50
2, 1637272, Note_on_c, 0, 58, 41
2, 1637385, Note_off_c, 0, 58, 50
2, 1637388, Note_on_c, 0, 55, 41
2, 1637485, Note_off_c, 0, 55, 50
2, 1637489, Control_c, 0, 64, 0
2, 1637491, Note_on_c, 0, 70, 53
2, 1637492, Note_on_c, 0, 43, 42
2, 1637602, Note_off_c, 0, 70, 53
2, 1637605, Note_off_c, 0, 43, 50
2, 1637607, Note_on_c, 0, 82, 54
2, 1637608, Note_on_c, 0, 46, 42
2, 1637683, Control_c, 0, 64, 127
2, 1637704, Note_off_c, 0, 46, 50
2, 1637705, Note_on_c, 0, 51, 42
2, 1637821, Note_off_c, 0, 51, 50
2, 1637822, Note_on_c, 0, 55, 43
2, 1637920, Note_off_c, 0, 55, 50
2, 1637922, Note_on_c, 0, 51, 43
2, 1638038, Note_off_c, 0, 51, 50
2, 1638040, Note_on_c, 0, 55, 44
2, 1638138, Note_off_c, 0, 55, 51
2, 1638140, Note_on_c, 0, 51, 44
2, 1638255, Note_off_c, 0, 51, 51
2, 1638256, Note_on_c, 0, 46, 44
2, 1638357, Note_off_c, 0, 82, 53
2, 1638358, Note_off_c, 0, 46, 51
2, 1638359, Note_on_c, 0, 43, 45
2, 1638473, Note_off_c, 0, 43, 51
2, 1638475, Note_on_c, 0, 46, 45
2, 1638571, Note_off_c, 0, 46, 51
2, 1638574, Note_on_c, 0, 51, 46
2, 1638671, Note_off_c, 0, 51, 51
2, 1638675, Note_on_c, 0, 75, 60
2, 1638676, Note_on_c, 0, 55, 46
2, 1638789, Note_off_c, 0, 75, 55
2, 1638792, Note_off_c, 0, 55, 51
2, 1638793, Note_on_c, 0, 87, 84
2, 1638794, Note_on_c, 0, 51, 46
2, 1638889, Note_off_c, 0, 51, 51
2, 1638890, Note_on_c, 0, 55, 47
2, 1639007, Note_off_c, 0, 87, 61
2, 1639009, Note_off_c, 0, 55, 51
2, 1639011, Note_on_c, 0, 51, 47
2, 1639107, Note_off_c, 0, 51, 51
2, 1639109, Note_on_c, 0, 46, 48
2, 1639226, Note_off_c, 0, 46, 52
2, 1639226, Control_c, 0, 64, 0
2, 1639228, Note_on_c, 0, 56, 60
2, 1639229, Note_on_c, 0, 44, 48
2, 1639325, Note_off_c, 0, 56, 55
2, 1639326, Note_off_c, 0, 44, 52
2, 1639327, Note_on_c, 0, 68, 84
2, 1639329, Note_on_c, 0, 48, 48
2, 1639421, Control_c, 0, 64, 127
2, 1639442, Note_off_c, 0, 48, 52
2, 1639444, Note_on_c, 0, 51, 48
2, 1639543, Note_off_c, 0, 51, 52
2, 1639544, Note_on_c, 0, 53, 47
2, 1639659, Note_off_c, 0, 53, 51
2, 1639660, Note_on_c, 0, 51, 47
2, 1639759, Note_off_c, 0, 51, 51
2, 1639761, Note_on_c, 0, 53, 46
2, 1639875, Note_off_c, 0, 68, 61
2, 1639878, Note_off_c, 0, 53, 51
2, 1639880, Note_on_c, 0, 51, 46
2, 1639976, Note_off_c, 0, 51, 51
2, 1639978, Note_on_c, 0, 48, 46
2, 1640075, Note_off_c, 0, 48, 51
2, 1640079, Note_on_c, 0, 44, 45
2, 1640193, Note_off_c, 0, 44, 51
2, 1640196, Note_on_c, 0, 48, 45
2, 1640293, Note_off_c, 0, 48, 51
2, 1640294, Note_on_c, 0, 51, 44
2, 1640411, Note_off_c, 0, 51, 51
2, 1640412, Note_on_c, 0, 75, 55
2, 1640413, Note_on_c, 0, 53, 44
2, 1640511, Note_off_c, 0, 75, 53
2, 1640513, Note_off_c, 0, 53, 51
2, 1640514, Note_on_c, 0, 87, 79
2, 1640515, Note_on_c, 0, 51, 44
2, 1640629, Note_off_c, 0, 51, 51
2, 1640630, Note_on_c, 0, 53, 43
2, 1640728, Note_off_c, 0, 87, 60
2, 1640730, Note_off_c, 0, 53, 50
2, 1640731, Note_on_c, 0, 51, 43
2, 1640846, Note_off_c, 0, 51, 50
2, 1640848, Note_on_c, 0, 48, 42
2, 1640946, Note_off_c, 0, 48, 50
2, 1640948, Control_c, 0, 64, 0
2, 1640949, Note_on_c, 0, 57, 53
2, 1640950, Note_on_c, 0, 45, 42
2, 1641062, Note_off_c, 0, 57, 53
2, 1641064, Note_off_c, 0, 45, 50
2, 1641065, Note_on_c, 0, 69, 77
2, 1641066, Note_on_c, 0, 48, 42
2, 1641141, Control_c, 0, 64, 127
2, 1641162, Note_off_c, 0, 48, 50
2, 1641165, Note_on_c, 0, 51, 41
2, 1641279, Note_off_c, 0, 51, 50
2, 1641282, Note_on_c, 0, 53, 41
2, 1641379, Note_off_c, 0, 53, 50
2, 1641382, Note_on_c, 0, 51, 40
2, 1641497, Note_off_c, 0, 51, 50
2, 1641499, Note_on_c, 0, 53, 40
2, 1641596, Note_off_c, 0, 69, 59
2, 1641598, Note_off_c, 0, 53, 50
2, 1641600, Note_on_c, 0, 51, 40
2, 1641697, Note_off_c, 0, 51, 50
2, 1641698, Note_on_c, 0, 48, 39
2, 1641815, Note_off_c, 0, 48, 49
2, 1641816, Note_on_c, 0, 45, 39
2, 1641915, Note_off_c, 0, 45, 49
2, 1641917, Note_on_c, 0, 48, 38
2, 1642034, Note_off_c, 0, 48, 49
2, 1642034, Note_on_c, 0, 51, 38
2, 1642132, Note_off_c, 0, 51, 49
2, 1642134, Note_on_c, 0, 75, 48
2, 1642135, Note_on_c, 0, 53, 38
2, 1642250, Note_off_c, 0, 75, 52
2, 1642252, Note_off_c, 0, 53, 49
2, 1642253, Note_on_c, 0, 87, 72
2, 1642254, Note_on_c, 0, 51, 37
2, 1642349, Note_off_c, 0, 51, 49
2, 1642350, Note_on_c, 0, 53, 37
2, 1642465, Note_off_c, 0, 87, 58
2, 1642467, Note_off_c, 0, 53, 49
2, 1642468, Note_on_c, 0, 51, 36
2, 1642565, Note_off_c, 0, 51, 49
2, 1642568, Note_on_c, 0, 48, 36
2, 1642683, Note_off_c, 0, 48, 49
2, 1642685, Note_on_c, 0, 70, 84
2, 1642687, Control_c, 0, 64, 0
2, 1642688, Note_on_c, 0, 46, 60
2, 1642698, Note_on_c, 0, 58, 72
2, 1642783, Note_off_c, 0, 46, 55
2, 1642784, Note_on_c, 0, 51, 60
2, 1642879, Control_c, 0, 64, 127
2, 1642900, Note_off_c, 0, 51, 55
2, 1642901, Note_on_c, 0, 55, 59
2, 1642907, Note_off_c, 0, 58, 58
2, 1643000, Note_off_c, 0, 55, 54
2, 1643004, Note_on_c, 0, 58, 57
2, 1643006, Note_off_c, 0, 70, 61
2, 1643085, Note_off_c, 0, 58, 54
2, 1643117, Note_on_c, 0, 82, 96
2, 1643121, Note_on_c, 0, 55, 56
2, 1643127, Note_on_c, 0, 70, 67
2, 1643218, Note_off_c, 0, 55, 54
2, 1643219, Note_on_c, 0, 58, 54
2, 1643336, Note_off_c, 0, 58, 53
2, 1643337, Note_on_c, 0, 55, 52
2, 1643436, Note_off_c, 0, 55, 53
2, 1643437, Note_on_c, 0, 51, 51
2, 1643554, Note_off_c, 0, 51, 52
2, 1643555, Note_on_c, 0, 46, 49
2, 1643671, Note_off_c, 0, 46, 52
2, 1643672, Note_on_c, 0, 51, 48
2, 1643767, Note_off_c, 0, 51, 52
2, 1643770, Note_on_c, 0, 55, 46
2, 1643784, Note_off_c, 0, 70, 57
2, 1643884, Note_off_c, 0, 55, 51
2, 1643887, Note_on_c, 0, 58, 44
2, 1644001, Note_off_c, 0, 82, 63
2, 1644004, Note_off_c, 0, 58, 51
2, 1644007, Note_on_c, 0, 80, 59
2, 1644009, Control_c, 0, 64, 0
2, 1644010, Note_on_c, 0, 55, 43
2, 1644016, Note_on_c, 0, 68, 47
2, 1644119, Note_off_c, 0, 55, 50
2, 1644121, Note_on_c, 0, 58, 41
2, 1644219, Note_off_c, 0, 68, 51
2, 1644234, Note_off_c, 0, 80, 54
2, 1644238, Note_off_c, 0, 58, 50
2, 1644241, Note_on_c, 0, 55, 40
2, 1644243, Note_on_c, 0, 79, 54
2, 1644250, Note_on_c, 0, 67, 42
2, 1644352, Note_off_c, 0, 55, 50
2, 1644355, Note_on_c, 0, 51, 38
2, 1644395, Note_off_c, 0, 67, 50
2, 1644422, Note_off_c, 0, 79, 53
2, 1644469, Note_off_c, 0, 51, 49
2, 1644472, Note_on_c, 0, 79, 48
2, 1644475, Note_on_c, 0, 46, 36
2, 1644483, Note_on_c, 0, 67, 36
2, 1644586, Note_off_c, 0, 46, 49
2, 1644589, Note_on_c, 0, 56, 36
2, 1644688, Note_off_c, 0, 56, 49
2, 1644691, Note_on_c, 0, 58, 36
2, 1644804, Note_off_c, 0, 58, 49
2, 1644806, Note_on_c, 0, 56, 37
2, 1644907, Note_off_c, 0, 56, 49
2, 1644908, Note_on_c, 0, 58, 38
2, 1645023, Note_off_c, 0, 58, 49
2, 1645025, Note_on_c, 0, 56, 39
2, 1645124, Note_off_c, 0, 56, 49
2, 1645125, Note_on_c, 0, 58, 39
2, 1645241, Note_off_c, 0, 58, 49
2, 1645242, Note_on_c, 0, 56, 40
2, 1645358, Note_off_c, 0, 56, 50
2, 1645359, Note_on_c, 0, 46, 41
2, 1645451, Note_off_c, 0, 67, 49
2, 1645475, Note_off_c, 0, 46, 50
2, 1645476, Note_on_c, 0, 56, 42
2, 1645591, Note_off_c, 0, 79, 52
2, 1645594, Note_off_c, 0, 56, 50
2, 1645595, Note_on_c, 0, 77, 54
2, 1645595, Note_on_c, 0, 58, 42
2, 1645602, Note_on_c, 0, 65, 42
2, 1645707, Note_off_c, 0, 58, 50
2, 1645709, Note_on_c, 0, 56, 43
2, 1645784, Note_off_c, 0, 65, 50
2, 1645825, Note_off_c, 0, 77, 53
2, 1645827, Note_off_c, 0, 56, 50
2, 1645829, Note_on_c, 0, 80, 56
2, 1645829, Note_on_c, 0, 58, 44
2, 1645836, Note_on_c, 0, 68, 44
2, 1645941, Note_off_c, 0, 58, 51
2, 1645943, Note_on_c, 0, 56, 45
2, 1646021, Note_off_c, 0, 68, 51
2, 1646060, Note_off_c, 0, 56, 51
2, 1646061, Note_off_c, 0, 80, 54
2, 1646063, Note_on_c, 0, 74, 58
2, 1646063, Note_on_c, 0, 58, 46
2, 1646070, Note_on_c, 0, 62, 46
2, 1646192, Note_off_c, 0, 58, 51
2, 1646194, Note_on_c, 0, 56, 46
2, 1646208, Note_off_c, 0, 62, 51
2, 1646243, Note_off_c, 0, 74, 54
2, 1646310, Note_off_c, 0, 56, 51
2, 1646312, Control_c, 0, 64, 127
2, 1646313, Note_on_c, 0, 75, 60
2, 1646315, Note_on_c, 0, 51, 47
2, 1646331, Note_on_c, 0, 63, 42
2, 1646442, Note_off_c, 0, 51, 51
2, 1646444, Note_on_c, 0, 55, 48
2, 1646561, Note_off_c, 0, 55, 52
2, 1646562, Note_on_c, 0, 58, 49
2, 1646584, Note_off_c, 0, 63, 50
2, 1646677, Note_off_c, 0, 58, 52
2, 1646679, Note_on_c, 0, 63, 49
2, 1646809, Note_off_c, 0, 63, 52
2, 1646811, Note_on_c, 0, 58, 50
2, 1646925, Note_off_c, 0, 58, 52
2, 1646927, Note_on_c, 0, 63, 51
2, 1647043, Note_off_c, 0, 63, 52
2, 1647045, Note_on_c, 0, 58, 52
2, 1647159, Note_off_c, 0, 58, 53
2, 1647161, Note_on_c, 0, 55, 53
2, 1647277, Note_off_c, 0, 75, 55
2, 1647279, Note_off_c, 0, 55, 53
2, 1647281, Note_on_c, 0, 51, 53
2, 1647379, Note_off_c, 0, 51, 53
2, 1647381, Note_on_c, 0, 55, 54
2, 1647497, Note_off_c, 0, 55, 53
2, 1647498, Note_on_c, 0, 58, 55
2, 1647614, Note_off_c, 0, 58, 53
2, 1647615, Note_on_c, 0, 63, 56
2, 1647715, Note_off_c, 0, 63, 54
2, 1647716, Note_on_c, 0, 79, 48
2, 1647717, Note_on_c, 0, 58, 56
2, 1647724, Note_on_c, 0, 67, 36
2, 1647831, Note_off_c, 0, 58, 54
2, 1647833, Note_on_c, 0, 63, 57
2, 1647932, Note_off_c, 0, 63, 54
2, 1647933, Note_on_c, 0, 58, 58
2, 1648049, Note_off_c, 0, 58, 54
2, 1648050, Note_on_c, 0, 55, 59
2, 1648146, Note_off_c, 0, 55, 54
2, 1648152, Note_on_c, 0, 51, 60
2, 1648158, Control_c, 0, 64, 0
2, 1648263, Note_off_c, 0, 51, 55
2, 1648266, Note_on_c, 0, 56, 60
2, 1648352, Control_c, 0, 64, 127
2, 1648363, Note_off_c, 0, 56, 55
2, 1648365, Note_on_c, 0, 58, 57
2, 1648464, Note_off_c, 0, 58, 54
2, 1648466, Note_on_c, 0, 62, 54
2, 1648470, Note_off_c, 0, 67, 49
2, 1648582, Note_off_c, 0, 79, 52
2, 1648585, Note_off_c, 0, 62, 53
2, 1648586, Note_on_c, 0, 77, 52
2, 1648588, Note_on_c, 0, 58, 50
2, 1648596, Note_on_c, 0, 65, 40
2, 1648681, Note_off_c, 0, 58, 52
2, 1648682, Note_on_c, 0, 62, 47
2, 1648798, Note_off_c, 0, 62, 51
2, 1648800, Note_on_c, 0, 58, 43
2, 1648900, Note_off_c, 0, 58, 50
2, 1648901, Note_on_c, 0, 56, 40
2, 1648930, Note_off_c, 0, 65, 50
2, 1649017, Note_off_c, 0, 77, 53
2, 1649019, Note_off_c, 0, 56, 50
2, 1649020, Note_on_c, 0, 51, 36
2, 1649117, Note_off_c, 0, 51, 49
2, 1649119, Note_on_c, 0, 56, 36
2, 1649235, Note_off_c, 0, 56, 49
2, 1649237, Note_on_c, 0, 58, 36
2, 1649334, Note_off_c, 0, 58, 49
2, 1649336, Note_on_c, 0, 70, 56
2, 1649338, Note_on_c, 0, 62, 36
2, 1649451, Note_off_c, 0, 70, 54
2, 1649453, Note_off_c, 0, 62, 49
2, 1649455, Note_on_c, 0, 82, 57
2, 1649456, Note_on_c, 0, 58, 36
2, 1649551, Note_off_c, 0, 58, 49
2, 1649553, Note_on_c, 0, 62, 36
2, 1649668, Note_off_c, 0, 62, 49
2, 1649670, Note_on_c, 0, 58, 36
2, 1649767, Note_off_c, 0, 58, 49
2, 1649769, Note_on_c, 0, 56, 36
2, 1649869, Note_off_c, 0, 82, 54
2, 1649869, Note_off_c, 0, 56, 49
2, 1649874, Note_on_c, 0, 75, 60
2, 1649875, Note_on_c, 0, 51, 36
2, 1649880, Control_c, 0, 64, 0
2, 1649986, Note_off_c, 0, 75, 55
2, 1649988, Note_off_c, 0, 51, 49
2, 1649989, Note_on_c, 0, 87, 60
2, 1649990, Note_on_c, 0, 55, 36
2, 1650076, Control_c, 0, 64, 127
2, 1650085, Note_off_c, 0, 55, 49
2, 1650087, Note_on_c, 0, 58, 36
2, 1650202, Note_off_c, 0, 58, 49
2, 1650203, Note_on_c, 0, 63, 36
2, 1650304, Note_off_c, 0, 63, 49
2, 1650305, Note_on_c, 0, 58, 36
2, 1650421, Note_off_c, 0, 58, 49
2, 1650422, Note_on_c, 0, 63, 36
2, 1650519, Note_off_c, 0, 63, 49
2, 1650523, Note_on_c, 0, 58, 36
2, 1650637, Note_off_c, 0, 58, 49
2, 1650640, Note_on_c, 0, 55, 36
2, 1650738, Note_off_c, 0, 87, 55
2, 1650740, Note_off_c, 0, 55, 49
2, 1650742, Note_on_c, 0, 51, 36
2, 1650855, Note_off_c, 0, 51, 49
2, 1650856, Note_on_c, 0, 55, 36
2, 1650954, Note_off_c, 0, 55, 49
2, 1650955, Note_on_c, 0, 58, 36
2, 1651072, Note_off_c, 0, 58, 49
2, 1651073, Note_on_c, 0, 63, 36
2, 1651171, Note_off_c, 0, 63, 49
2, 1651173, Note_on_c, 0, 79, 48
2, 1651175, Note_on_c, 0, 58, 40
2, 1651183, Note_on_c, 0, 67, 36
2, 1651288, Note_off_c, 0, 58, 50
2, 1651290, Note_on_c, 0, 63, 45
2, 1651389, Note_off_c, 0, 63, 51
2, 1651391, Note_on_c, 0, 58, 50
2, 1651490, Note_off_c, 0, 58, 52
2, 1651491, Note_on_c, 0, 55, 55
2, 1651606, Note_off_c, 0, 55, 53
2, 1651607, Control_c, 0, 64, 0
2, 1651610, Note_on_c, 0, 51, 60
2, 1651705, Note_off_c, 0, 51, 55
2, 1651708, Note_on_c, 0, 56, 60
2, 1651800, Control_c, 0, 64, 127
2, 1651822, Note_off_c, 0, 56, 55
2, 1651825, Note_on_c, 0, 58, 60
2, 1651923, Note_off_c, 0, 58, 55
2, 1651927, Note_on_c, 0, 62, 59
2, 1651941, Note_off_c, 0, 67, 49
2, 1652041, Note_off_c, 0, 79, 52
2, 1652044, Note_off_c, 0, 62, 54
2, 1652045, Note_on_c, 0, 77, 53
2, 1652047, Note_on_c, 0, 58, 58
2, 1652055, Note_on_c, 0, 65, 41
2, 1652141, Note_off_c, 0, 58, 54
2, 1652143, Note_on_c, 0, 62, 57
2, 1652259, Note_off_c, 0, 62, 54
2, 1652260, Note_on_c, 0, 58, 56
2, 1652358, Note_off_c, 0, 58, 54
2, 1652359, Note_on_c, 0, 56, 55
2, 1652412, Note_off_c, 0, 65, 50
2, 1652476, Note_off_c, 0, 77, 53
2, 1652477, Note_off_c, 0, 56, 53
2, 1652479, Note_on_c, 0, 51, 54
2, 1652575, Note_off_c, 0, 51, 53
2, 1652577, Note_on_c, 0, 56, 54
2, 1652691, Note_off_c, 0, 56, 53
2, 1652693, Note_on_c, 0, 58, 53
2, 1652793, Note_off_c, 0, 58, 53
2, 1652795, Note_on_c, 0, 70, 60
2, 1652797, Note_on_c, 0, 62, 52
2, 1652912, Note_off_c, 0, 70, 55
2, 1652912, Note_off_c, 0, 62, 53
2, 1652913, Note_on_c, 0, 82, 60
2, 1652915, Note_on_c, 0, 58, 51
2, 1653009, Note_off_c, 0, 58, 52
2, 1653011, Note_on_c, 0, 62, 50
2, 1653124, Note_off_c, 0, 62, 52
2, 1653127, Note_on_c, 0, 58, 49
2, 1653226, Note_off_c, 0, 58, 52
2, 1653229, Note_on_c, 0, 56, 48
2, 1653343, Note_off_c, 0, 82, 55
2, 1653346, Note_off_c, 0, 56, 52
2, 1653347, Note_on_c, 0, 63, 60
2, 1653349, Note_on_c, 0, 51, 48
2, 1653356, Control_c, 0, 64, 0
2, 1653444, Note_off_c, 0, 63, 55
2, 1653447, Note_off_c, 0, 51, 52
2, 1653449, Note_on_c, 0, 75, 60
2, 1653450, Note_on_c, 0, 55, 48
2, 1653552, Control_c, 0, 64, 127
2, 1653562, Note_off_c, 0, 55, 52
2, 1653565, Note_on_c, 0, 58, 48
2, 1653663, Note_off_c, 0, 58, 52
2, 1653664, Note_on_c, 0, 63, 47
2, 1653780, Note_off_c, 0, 63, 51
2, 1653781, Note_on_c, 0, 58, 47
2, 1653897, Note_off_c, 0, 58, 51
2, 1653898, Note_on_c, 0, 63, 47
2, 1654014, Note_off_c, 0, 63, 51
2, 1654015, Note_on_c, 0, 58, 46
2, 1654113, Note_off_c, 0, 58, 51
2, 1654114, Note_on_c, 0, 55, 46
2, 1654231, Note_off_c, 0, 75, 55
2, 1654232, Note_off_c, 0, 55, 51
2, 1654234, Note_on_c, 0, 46, 45
2, 1654348, Note_off_c, 0, 46, 51
2, 1654349, Note_on_c, 0, 51, 45
2, 1654465, Note_off_c, 0, 51, 51
2, 1654466, Note_on_c, 0, 55, 45
2, 1654582, Note_off_c, 0, 55, 51
2, 1654583, Note_on_c, 0, 67, 56
2, 1654585, Note_on_c, 0, 58, 44
2, 1654681, Note_off_c, 0, 67, 54
2, 1654683, Note_off_c, 0, 58, 51
2, 1654684, Note_on_c, 0, 55, 44
2, 1654686, Note_on_c, 0, 79, 56
2, 1654797, Note_off_c, 0, 55, 51
2, 1654799, Note_on_c, 0, 58, 44
2, 1654915, Note_off_c, 0, 58, 51
2, 1654917, Note_on_c, 0, 55, 43
2, 1655032, Note_off_c, 0, 55, 50
2, 1655033, Note_on_c, 0, 51, 43
2, 1655150, Note_off_c, 0, 79, 54
2, 1655151, Note_off_c, 0, 51, 50
2, 1655152, Note_on_c, 0, 70, 54
2, 1655155, Note_on_c, 0, 43, 42
2, 1655169, Control_c, 0, 64, 0
2, 1655266, Note_off_c, 0, 70, 53
2, 1655268, Note_off_c, 0, 43, 50
2, 1655269, Note_on_c, 0, 82, 54
2, 1655270, Note_on_c, 0, 46, 42
2, 1655366, Control_c, 0, 64, 127
2, 1655383, Note_off_c, 0, 46, 50
2, 1655385, Note_on_c, 0, 51, 42
2, 1655500, Note_off_c, 0, 51, 50
2, 1655501, Note_on_c, 0, 55, 41
2, 1655617, Note_off_c, 0, 55, 50
2, 1655619, Note_on_c, 0, 51, 41
2, 1655751, Note_off_c, 0, 51, 50
2, 1655752, Note_on_c, 0, 55, 41
2, 1655869, Note_off_c, 0, 55, 50
2, 1655870, Note_on_c, 0, 51, 40
2, 1655986, Note_off_c, 0, 51, 50
2, 1655987, Note_on_c, 0, 46, 40
2, 1656103, Note_off_c, 0, 82, 53
2, 1656104, Note_off_c, 0, 46, 50
2, 1656105, Note_on_c, 0, 39, 39
2, 1656236, Note_off_c, 0, 39, 49
2, 1656237, Note_on_c, 0, 43, 39
2, 1656353, Note_off_c, 0, 43, 49
2, 1656355, Note_on_c, 0, 46, 39
2, 1656470, Note_off_c, 0, 46, 49
2, 1656472, Note_on_c, 0, 75, 50
2, 1656473, Note_on_c, 0, 51, 38
2, 1656604, Note_off_c, 0, 75, 52
2, 1656605, Note_off_c, 0, 51, 49
2, 1656608, Note_on_c, 0, 87, 50
2, 1656609, Note_on_c, 0, 46, 38
2, 1656721, Note_off_c, 0, 46, 49
2, 1656722, Note_on_c, 0, 51, 38
2, 1656838, Note_off_c, 0, 51, 49
2, 1656839, Note_on_c, 0, 46, 37
2, 1656971, Note_off_c, 0, 46, 49
2, 1656972, Note_on_c, 0, 43, 37
2, 1657088, Note_off_c, 0, 87, 52
2, 1657089, Note_off_c, 0, 43, 49
2, 1657091, Note_on_c, 0, 55, 30
2, 1657093, Note_on_c, 0, 63, 48
2, 1657094, Note_on_c, 0, 39, 36
2, 1657109, Control_c, 0, 64, 0
2, 1657223, Note_off_c, 0, 39, 49
2, 1657225, Note_on_c, 0, 43, 36
2, 1657312, Control_c, 0, 64, 127
2, 1657344, Note_off_c, 0, 43, 49
2, 1657346, Note_on_c, 0, 46, 36
2, 1657488, Note_off_c, 0, 46, 49
2, 1657490, Note_on_c, 0, 51, 35
2, 1657547, Note_off_c, 0, 55, 47
2, 1657636, Note_off_c, 0, 63, 52
2, 1657638, Note_off_c, 0, 51, 48
2, 1657641, Note_on_c, 0, 46, 34
2, 1657772, Note_off_c, 0, 46, 48
2, 1657775, Note_on_c, 0, 51, 33
2, 1657929, Note_off_c, 0, 51, 48
2, 1657932, Note_on_c, 0, 46, 32
2, 1658096, Note_off_c, 0, 46, 48
2, 1658097, Note_on_c, 0, 43, 32
2, 1658264, Note_off_c, 0, 43, 48
2, 1658266, Note_on_c, 0, 58, 25
2, 1658267, Note_on_c, 0, 63, 48
2, 1658268, Note_on_c, 0, 55, 19
2, 1658270, Note_on_c, 0, 39, 31
2, 1658419, Note_off_c, 0, 39, 47
2, 1658421, Note_on_c, 0, 43, 30
2, 1658602, Note_off_c, 0, 43, 47
2, 1658602, Note_on_c, 0, 46, 29
2, 1658792, Note_off_c, 0, 46, 47
2, 1658793, Note_on_c, 0, 51, 28
2, 1658815, Note_off_c, 0, 58, 46
2, 1658898, Note_off_c, 0, 55, 45
2, 1658992, Note_off_c, 0, 63, 52
2, 1658995, Note_off_c, 0, 51, 47
2, 1659000, Note_on_c, 0, 46, 28
2, 1659201, Note_off_c, 0, 46, 47
2, 1659205, Note_on_c, 0, 51, 27
2, 1659420, Note_off_c, 0, 51, 46
2, 1659425, Note_on_c, 0, 46, 26
2, 1659649, Note_off_c, 0, 46, 46
2, 1659653, Note_on_c, 0, 43, 25
2, 1659895, Note_off_c, 0, 43, 46
2, 1660064, Note_on_c, 0, 63, 40
2, 1660082, Note_on_c, 0, 58, 18
2, 1660089, Note_on_c, 0, 55, 12
2, 1660090, Note_on_c, 0, 39, 24
2, 1660118, Control_c, 0, 64, 0
2, 1660295, Control_c, 0, 64, 127
2, 1660875, Note_off_c, 0, 58, 44
2, 1660968, Note_off_c, 0, 55, 43
2, 1661123, Note_off_c, 0, 63, 50
2, 1661148, Note_off_c, 0, 39, 46
2, 1661643, Control_c, 0, 64, 90
2, 1661839, Control_c, 0, 64, 72
2, 1662034, Control_c, 0, 64, 54
2, 1662229, Control_c, 0, 64, 36
2, 1662424, Control_c, 0, 64, 18
2, 1662619, Control_c, 0, 64, 0
2, 1662619, End_track
3, 0, Start_track
3, 0, Title_t, "Sonata No. 4, in Eb, Op. 7"
3, 0, Channel_prefix, 0
3, 0, End_track
4, 0, Start_track
4, 0, Title_t, "Sequence by Richard Carlson"
4, 0, Channel_prefix, 0
4, 0, End_track
5, 0, Start_track
5, 0, Title_t, "http://geocities.com/lionheart2251"
5, 0, Channel_prefix, 0
5, 0, End_track
6, 0, Start_track
6, 0, Title_t, "Lionheart2251@yahoo.com"
6, 0, Channel_prefix, 0
6, 0, End_track
7, 0, Start_track
7, 0, Title_t, "Copyright2008"
7, 0, Channel_prefix, 0
7, 0, End_track
0, 0, End_of_file
