0, 0, Header, 0, 1, 384
1, 0, Start_track
1, 0, Tempo, 512820
1, 0, Title_t, "Beethoven Sonata1. Movement"
1, 0, Program_c, 0, 1
1, 0, Control_c, 0, 7, 100
1, 748, Note_on_c, 0, 51, 72
1, 748, Note_on_c, 0, 55, 72
1, 748, Note_on_c, 0, 60, 83
1, 751, Control_c, 0, 91, 127
1, 751, Program_c, 0, 1
1, 751, Control_c, 0, 7, 100
1, 754, Note_on_c, 0, 36, 64
1, 754, Note_on_c, 0, 39, 64
1, 754, Note_on_c, 0, 43, 64
1, 757, Note_on_c, 0, 48, 74
1, 757, Control_c, 0, 64, 0
1, 3837, Note_on_c, 0, 60, 0
1, 3837, Note_on_c, 0, 55, 0
1, 3837, Note_on_c, 0, 51, 0
1, 3840, Note_on_c, 0, 55, 50
1, 3840, Note_on_c, 0, 60, 57
1, 3840, Note_on_c, 0, 48, 0
1, 3843, Note_on_c, 0, 36, 0
1, 3843, Note_on_c, 0, 39, 0
1, 3843, Note_on_c, 0, 43, 0
1, 3846, Note_on_c, 0, 51, 46
1, 4118, Note_on_c, 0, 60, 0
1, 4118, Note_on_c, 0, 55, 0
1, 4118, Note_on_c, 0, 55, 52
1, 4121, Note_on_c, 0, 59, 52
1, 4121, Note_on_c, 0, 62, 60
1, 4121, Note_on_c, 0, 51, 0
1, 4124, Note_on_c, 0, 50, 51
1, 4960, Note_on_c, 0, 62, 0
1, 4960, Note_on_c, 0, 59, 0
1, 4960, Note_on_c, 0, 55, 0
1, 4963, Note_on_c, 0, 55, 49
1, 4963, Note_on_c, 0, 60, 56
1, 4963, Note_on_c, 0, 63, 56
1, 4966, Note_on_c, 0, 50, 0
1, 4966, Note_on_c, 0, 48, 46
1, 5291, Note_on_c, 0, 63, 0
1, 5291, Note_on_c, 0, 60, 0
1, 5291, Note_on_c, 0, 55, 0
1, 5294, Note_on_c, 0, 57, 52
1, 5294, Note_on_c, 0, 60, 60
1, 5294, Note_on_c, 0, 63, 60
1, 5297, Note_on_c, 0, 48, 0
1, 5297, Note_on_c, 0, 54, 49
1, 7752, Note_on_c, 0, 63, 0
1, 7752, Note_on_c, 0, 60, 0
1, 7752, Note_on_c, 0, 57, 0
1, 7755, Note_on_c, 0, 59, 39
1, 7755, Note_on_c, 0, 62, 46
1, 7755, Note_on_c, 0, 54, 0
1, 7758, Note_on_c, 0, 55, 35
1, 8876, Note_on_c, 0, 62, 0
1, 8876, Note_on_c, 0, 59, 0
1, 8876, Note_on_c, 0, 55, 0
1, 9718, Note_on_c, 0, 44, 80
1, 9999, Note_on_c, 0, 59, 81
1, 9999, Note_on_c, 0, 62, 81
1, 9999, Note_on_c, 0, 65, 91
1, 10002, Control_c, 0, 91, 127
1, 10002, Note_on_c, 0, 44, 0
1, 10002, Note_on_c, 0, 56, 83
1, 13088, Note_on_c, 0, 65, 0
1, 13088, Note_on_c, 0, 62, 0
1, 13088, Note_on_c, 0, 59, 0
1, 13091, Note_on_c, 0, 62, 52
1, 13091, Note_on_c, 0, 59, 52
1, 13091, Note_on_c, 0, 65, 60
1, 13094, Note_on_c, 0, 56, 0
1, 13094, Note_on_c, 0, 56, 48
1, 13368, Note_on_c, 0, 65, 0
1, 13368, Note_on_c, 0, 59, 0
1, 13368, Note_on_c, 0, 62, 0
1, 13371, Note_on_c, 0, 59, 54
1, 13371, Note_on_c, 0, 62, 54
1, 13371, Note_on_c, 0, 67, 63
1, 13374, Note_on_c, 0, 56, 0
1, 13374, Note_on_c, 0, 55, 53
1, 14211, Note_on_c, 0, 67, 0
1, 14211, Note_on_c, 0, 62, 0
1, 14211, Note_on_c, 0, 59, 0
1, 14214, Note_on_c, 0, 62, 59
1, 14214, Note_on_c, 0, 68, 59
1, 14214, Note_on_c, 0, 59, 51
1, 14217, Note_on_c, 0, 55, 0
1, 14217, Note_on_c, 0, 53, 48
1, 14536, Note_on_c, 0, 59, 0
1, 14536, Note_on_c, 0, 68, 0
1, 14536, Note_on_c, 0, 62, 0
1, 14539, Note_on_c, 0, 68, 63
1, 14539, Note_on_c, 0, 59, 54
1, 14539, Note_on_c, 0, 62, 63
1, 14542, Note_on_c, 0, 53, 0
1, 14542, Note_on_c, 0, 51, 47
1, 16998, Note_on_c, 0, 62, 0
1, 16998, Note_on_c, 0, 59, 0
1, 16998, Note_on_c, 0, 68, 0
1, 17001, Note_on_c, 0, 60, 41
1, 17001, Note_on_c, 0, 67, 48
1, 17001, Note_on_c, 0, 63, 41
1, 18121, Note_on_c, 0, 63, 0
1, 18121, Note_on_c, 0, 67, 0
1, 18121, Note_on_c, 0, 60, 0
1, 18124, Note_on_c, 0, 51, 0
1, 18964, Note_on_c, 0, 51, 83
1, 19245, Note_on_c, 0, 66, 85
1, 19245, Note_on_c, 0, 69, 85
1, 19245, Note_on_c, 0, 72, 96
1, 19248, Control_c, 0, 91, 127
1, 19248, Note_on_c, 0, 51, 0
1, 19248, Note_on_c, 0, 63, 87
1, 22333, Note_on_c, 0, 72, 0
1, 22333, Note_on_c, 0, 69, 0
1, 22333, Note_on_c, 0, 66, 0
1, 22336, Note_on_c, 0, 69, 59
1, 22336, Note_on_c, 0, 66, 59
1, 22336, Note_on_c, 0, 72, 68
1, 22339, Note_on_c, 0, 63, 0
1, 22339, Note_on_c, 0, 63, 55
1, 22614, Note_on_c, 0, 72, 0
1, 22614, Note_on_c, 0, 66, 0
1, 22614, Note_on_c, 0, 69, 0
1, 22617, Note_on_c, 0, 66, 64
1, 22617, Note_on_c, 0, 69, 64
1, 22617, Note_on_c, 0, 74, 75
1, 22620, Note_on_c, 0, 63, 0
1, 22620, Note_on_c, 0, 62, 62
1, 23478, Note_on_c, 0, 74, 0
1, 23478, Note_on_c, 0, 69, 0
1, 23478, Note_on_c, 0, 66, 0
1, 23481, Note_on_c, 0, 69, 78
1, 23481, Note_on_c, 0, 75, 78
1, 23481, Note_on_c, 0, 66, 67
1, 23484, Note_on_c, 0, 62, 0
1, 23484, Note_on_c, 0, 60, 62
1, 23790, Note_on_c, 0, 66, 0
1, 23790, Note_on_c, 0, 75, 0
1, 23790, Note_on_c, 0, 69, 0
1, 23793, Note_on_c, 0, 75, 85
1, 23793, Note_on_c, 0, 66, 73
1, 23793, Note_on_c, 0, 69, 73
1, 23796, Note_on_c, 0, 60, 0
1, 23796, Note_on_c, 0, 60, 76
1, 26186, Note_on_c, 0, 69, 0
1, 26186, Note_on_c, 0, 66, 0
1, 26186, Note_on_c, 0, 75, 0
1, 26189, Note_on_c, 0, 62, 45
1, 26189, Note_on_c, 0, 74, 52
1, 26189, Note_on_c, 0, 67, 45
1, 26192, Note_on_c, 0, 60, 0
1, 26192, Note_on_c, 0, 59, 45
1, 26467, Note_on_c, 0, 67, 0
1, 26467, Note_on_c, 0, 74, 0
1, 26467, Note_on_c, 0, 62, 0
1, 26470, Note_on_c, 0, 59, 0
1, 27029, Note_on_c, 0, 69, 61
1, 27029, Note_on_c, 0, 66, 61
1, 27029, Note_on_c, 0, 72, 70
1, 27032, Note_on_c, 0, 63, 57
1, 27310, Note_on_c, 0, 72, 0
1, 27310, Note_on_c, 0, 66, 0
1, 27310, Note_on_c, 0, 69, 0
1, 27313, Note_on_c, 0, 66, 66
1, 27313, Note_on_c, 0, 69, 66
1, 27313, Note_on_c, 0, 74, 78
1, 27316, Note_on_c, 0, 63, 0
1, 27316, Note_on_c, 0, 62, 64
1, 28208, Note_on_c, 0, 74, 0
1, 28208, Note_on_c, 0, 69, 0
1, 28208, Note_on_c, 0, 66, 0
1, 28211, Note_on_c, 0, 69, 81
1, 28211, Note_on_c, 0, 75, 81
1, 28211, Note_on_c, 0, 66, 69
1, 28214, Note_on_c, 0, 62, 0
1, 28214, Note_on_c, 0, 60, 64
1, 28508, Note_on_c, 0, 66, 0
1, 28508, Note_on_c, 0, 75, 0
1, 28508, Note_on_c, 0, 69, 0
1, 28511, Note_on_c, 0, 75, 88
1, 28511, Note_on_c, 0, 66, 76
1, 28511, Note_on_c, 0, 69, 76
1, 28514, Note_on_c, 0, 60, 0
1, 28514, Note_on_c, 0, 60, 82
1, 30754, Note_on_c, 0, 69, 0
1, 30754, Note_on_c, 0, 66, 0
1, 30754, Note_on_c, 0, 75, 0
1, 30757, Note_on_c, 0, 67, 57
1, 30757, Note_on_c, 0, 74, 65
1, 30757, Note_on_c, 0, 60, 0
1, 30760, Note_on_c, 0, 59, 53
1, 30760, Note_on_c, 0, 62, 61
1, 31824, Note_on_c, 0, 74, 0
1, 31824, Note_on_c, 0, 67, 0
1, 31824, Note_on_c, 0, 67, 63
1, 31827, Note_on_c, 0, 72, 63
1, 31827, Note_on_c, 0, 76, 74
1, 31827, Note_on_c, 0, 62, 0
1, 31830, Note_on_c, 0, 59, 0
1, 31830, Note_on_c, 0, 64, 67
1, 31830, Note_on_c, 0, 58, 58
1, 31833, Note_on_c, 0, 60, 58
1, 33055, Note_on_c, 0, 76, 0
1, 33055, Note_on_c, 0, 72, 0
1, 33055, Note_on_c, 0, 67, 0
1, 33058, Note_on_c, 0, 68, 68
1, 33058, Note_on_c, 0, 72, 68
1, 33058, Note_on_c, 0, 77, 81
1, 33061, Note_on_c, 0, 60, 0
1, 33061, Note_on_c, 0, 58, 0
1, 33061, Note_on_c, 0, 64, 0
1, 33064, Note_on_c, 0, 65, 75
1, 33064, Note_on_c, 0, 60, 63
1, 33064, Note_on_c, 0, 56, 63
1, 33583, Note_on_c, 0, 77, 0
1, 33583, Note_on_c, 0, 72, 0
1, 33583, Note_on_c, 0, 68, 0
1, 33586, Note_on_c, 0, 56, 0
1, 33586, Note_on_c, 0, 60, 0
1, 33586, Note_on_c, 0, 65, 0
1, 34112, Note_on_c, 0, 80, 95
1, 35235, Note_on_c, 0, 34, 95
1, 35235, Note_on_c, 0, 46, 95
1, 35551, Note_on_c, 0, 80, 0
1, 35551, Note_on_c, 0, 79, 72
1, 35693, Note_on_c, 0, 79, 0
1, 35693, Note_on_c, 0, 80, 74
1, 35832, Note_on_c, 0, 80, 0
1, 35832, Note_on_c, 0, 82, 76
1, 35970, Note_on_c, 0, 82, 0
1, 35970, Note_on_c, 0, 80, 78
1, 36106, Note_on_c, 0, 80, 0
1, 36106, Note_on_c, 0, 79, 78
1, 36239, Note_on_c, 0, 79, 0
1, 36239, Note_on_c, 0, 77, 78
1, 36370, Note_on_c, 0, 77, 0
1, 36370, Note_on_c, 0, 75, 78
1, 36503, Note_on_c, 0, 75, 0
1, 36503, Note_on_c, 0, 74, 78
1, 36641, Note_on_c, 0, 74, 0
1, 36641, Note_on_c, 0, 72, 78
1, 36784, Note_on_c, 0, 72, 0
1, 36784, Note_on_c, 0, 70, 78
1, 36933, Note_on_c, 0, 70, 0
1, 36933, Note_on_c, 0, 68, 74
1, 37001, Note_on_c, 0, 68, 0
1, 37001, Note_on_c, 0, 67, 73
1, 37071, Note_on_c, 0, 67, 0
1, 37071, Note_on_c, 0, 65, 70
1, 37142, Note_on_c, 0, 65, 0
1, 37142, Note_on_c, 0, 63, 69
1, 37215, Note_on_c, 0, 63, 0
1, 37215, Note_on_c, 0, 62, 68
1, 37290, Note_on_c, 0, 62, 0
1, 37290, Note_on_c, 0, 65, 67
1, 37366, Note_on_c, 0, 65, 0
1, 37366, Note_on_c, 0, 68, 65
1, 37444, Note_on_c, 0, 68, 0
1, 37444, Note_on_c, 0, 65, 64
1, 37525, Note_on_c, 0, 65, 0
1, 37525, Note_on_c, 0, 62, 63
1, 37597, Note_on_c, 0, 62, 0
1, 37597, Note_on_c, 0, 63, 60
1, 37597, Note_on_c, 0, 46, 0
1, 37600, Note_on_c, 0, 34, 0
1, 37600, Note_on_c, 0, 39, 55
1, 37600, Note_on_c, 0, 51, 60
1, 38159, Note_on_c, 0, 63, 0
1, 38159, Note_on_c, 0, 51, 0
1, 38159, Note_on_c, 0, 39, 0
1, 38162, Note_on_c, 0, 51, 32
1, 38162, Note_on_c, 0, 55, 37
1, 38162, Note_on_c, 0, 58, 42
1, 38720, Note_on_c, 0, 63, 56
1, 38720, Note_on_c, 0, 75, 65
1, 38720, Note_on_c, 0, 58, 0
1, 38723, Note_on_c, 0, 55, 0
1, 38723, Note_on_c, 0, 51, 0
1, 38723, Note_on_c, 0, 51, 32
1, 38726, Note_on_c, 0, 55, 37
1, 38726, Note_on_c, 0, 58, 42
1, 39282, Note_on_c, 0, 58, 0
1, 39282, Note_on_c, 0, 55, 0
1, 39282, Note_on_c, 0, 51, 0
1, 39285, Note_on_c, 0, 51, 32
1, 39285, Note_on_c, 0, 55, 37
1, 39285, Note_on_c, 0, 58, 42
1, 39844, Note_on_c, 0, 58, 0
1, 39844, Note_on_c, 0, 55, 0
1, 39844, Note_on_c, 0, 51, 0
1, 39847, Note_on_c, 0, 51, 32
1, 39847, Note_on_c, 0, 55, 37
1, 39847, Note_on_c, 0, 58, 42
1, 40405, Note_on_c, 0, 58, 0
1, 40405, Note_on_c, 0, 55, 0
1, 40405, Note_on_c, 0, 51, 0
1, 40408, Note_on_c, 0, 51, 32
1, 40408, Note_on_c, 0, 55, 37
1, 40408, Note_on_c, 0, 58, 42
1, 40686, Note_on_c, 0, 75, 0
1, 40686, Note_on_c, 0, 63, 0
1, 40686, Note_on_c, 0, 63, 56
1, 40689, Note_on_c, 0, 75, 65
1, 40967, Note_on_c, 0, 75, 0
1, 40967, Note_on_c, 0, 63, 0
1, 40967, Note_on_c, 0, 65, 58
1, 40970, Note_on_c, 0, 77, 67
1, 40970, Note_on_c, 0, 58, 0
1, 40970, Note_on_c, 0, 55, 0
1, 40973, Note_on_c, 0, 51, 0
1, 40973, Note_on_c, 0, 51, 32
1, 40973, Note_on_c, 0, 55, 37
1, 40976, Note_on_c, 0, 58, 42
1, 41528, Note_on_c, 0, 58, 0
1, 41528, Note_on_c, 0, 55, 0
1, 41528, Note_on_c, 0, 51, 0
1, 41531, Note_on_c, 0, 51, 32
1, 41531, Note_on_c, 0, 55, 37
1, 41531, Note_on_c, 0, 58, 42
1, 41809, Note_on_c, 0, 77, 0
1, 41809, Note_on_c, 0, 65, 0
1, 41809, Note_on_c, 0, 67, 59
1, 41812, Note_on_c, 0, 79, 69
1, 42121, Note_on_c, 0, 79, 0
1, 42121, Note_on_c, 0, 67, 0
1, 42121, Note_on_c, 0, 67, 59
1, 42124, Note_on_c, 0, 79, 69
1, 42124, Note_on_c, 0, 58, 0
1, 42124, Note_on_c, 0, 55, 0
1, 42127, Note_on_c, 0, 51, 0
1, 42127, Note_on_c, 0, 51, 33
1, 42127, Note_on_c, 0, 56, 37
1, 42130, Note_on_c, 0, 60, 43
1, 42683, Note_on_c, 0, 60, 0
1, 42683, Note_on_c, 0, 56, 0
1, 42683, Note_on_c, 0, 51, 0
1, 42686, Note_on_c, 0, 51, 34
1, 42686, Note_on_c, 0, 56, 38
1, 42686, Note_on_c, 0, 60, 44
1, 43244, Note_on_c, 0, 79, 0
1, 43244, Note_on_c, 0, 67, 0
1, 43244, Note_on_c, 0, 65, 52
1, 43247, Note_on_c, 0, 77, 60
1, 43247, Note_on_c, 0, 60, 0
1, 43247, Note_on_c, 0, 56, 0
1, 43250, Note_on_c, 0, 51, 0
1, 43250, Note_on_c, 0, 51, 34
1, 43250, Note_on_c, 0, 56, 38
1, 43253, Note_on_c, 0, 60, 44
1, 43806, Note_on_c, 0, 77, 0
1, 43806, Note_on_c, 0, 65, 0
1, 43806, Note_on_c, 0, 60, 0
1, 43809, Note_on_c, 0, 56, 0
1, 43809, Note_on_c, 0, 51, 0
1, 43809, Note_on_c, 0, 51, 34
1, 43812, Note_on_c, 0, 56, 38
1, 43812, Note_on_c, 0, 60, 44
1, 44087, Note_on_c, 0, 65, 101
1, 44368, Note_on_c, 0, 65, 0
1, 44368, Note_on_c, 0, 53, 92
1, 44368, Note_on_c, 0, 56, 92
1, 44371, Note_on_c, 0, 59, 92
1, 44371, Note_on_c, 0, 65, 107
1, 44371, Note_on_c, 0, 60, 0
1, 44374, Note_on_c, 0, 56, 0
1, 44374, Note_on_c, 0, 51, 0
1, 44374, Note_on_c, 0, 38, 79
1, 44377, Note_on_c, 0, 50, 92
1, 44909, Note_on_c, 0, 50, 0
1, 44909, Note_on_c, 0, 38, 0
1, 44909, Note_on_c, 0, 38, 79
1, 44912, Note_on_c, 0, 50, 92
1, 45180, Note_on_c, 0, 65, 0
1, 45180, Note_on_c, 0, 53, 0
1, 45180, Note_on_c, 0, 56, 0
1, 45183, Note_on_c, 0, 59, 0
1, 45183, Note_on_c, 0, 53, 85
1, 45183, Note_on_c, 0, 56, 85
1, 45186, Note_on_c, 0, 59, 85
1, 45186, Note_on_c, 0, 65, 100
1, 45450, Note_on_c, 0, 65, 0
1, 45450, Note_on_c, 0, 53, 0
1, 45450, Note_on_c, 0, 56, 0
1, 45453, Note_on_c, 0, 59, 0
1, 45453, Note_on_c, 0, 53, 90
1, 45453, Note_on_c, 0, 56, 90
1, 45456, Note_on_c, 0, 60, 90
1, 45456, Note_on_c, 0, 65, 104
1, 45456, Note_on_c, 0, 50, 0
1, 45459, Note_on_c, 0, 38, 0
1, 45459, Note_on_c, 0, 36, 79
1, 45459, Note_on_c, 0, 48, 92
1, 45992, Note_on_c, 0, 48, 0
1, 45992, Note_on_c, 0, 36, 0
1, 45992, Note_on_c, 0, 36, 79
1, 45995, Note_on_c, 0, 48, 92
1, 46262, Note_on_c, 0, 65, 0
1, 46262, Note_on_c, 0, 53, 0
1, 46262, Note_on_c, 0, 56, 0
1, 46265, Note_on_c, 0, 60, 0
1, 46265, Note_on_c, 0, 53, 90
1, 46265, Note_on_c, 0, 56, 90
1, 46268, Note_on_c, 0, 60, 90
1, 46268, Note_on_c, 0, 65, 104
1, 46554, Note_on_c, 0, 65, 0
1, 46554, Note_on_c, 0, 53, 0
1, 46554, Note_on_c, 0, 56, 0
1, 46557, Note_on_c, 0, 60, 0
1, 46557, Note_on_c, 0, 53, 90
1, 46557, Note_on_c, 0, 56, 90
1, 46560, Note_on_c, 0, 62, 90
1, 46560, Note_on_c, 0, 65, 104
1, 46560, Note_on_c, 0, 48, 0
1, 46563, Note_on_c, 0, 36, 0
1, 46563, Note_on_c, 0, 35, 79
1, 46563, Note_on_c, 0, 47, 92
1, 47116, Note_on_c, 0, 47, 0
1, 47116, Note_on_c, 0, 35, 0
1, 47116, Note_on_c, 0, 47, 28
1, 47119, Note_on_c, 0, 50, 28
1, 47119, Note_on_c, 0, 53, 33
1, 47119, Note_on_c, 0, 56, 38
1, 47677, Note_on_c, 0, 65, 0
1, 47677, Note_on_c, 0, 53, 0
1, 47677, Note_on_c, 0, 56, 0
1, 47680, Note_on_c, 0, 62, 0
1, 47680, Note_on_c, 0, 65, 56
1, 47680, Note_on_c, 0, 77, 65
1, 47683, Note_on_c, 0, 56, 0
1, 47683, Note_on_c, 0, 47, 0
1, 47683, Note_on_c, 0, 50, 0
1, 47686, Note_on_c, 0, 53, 0
1, 47686, Note_on_c, 0, 47, 28
1, 47686, Note_on_c, 0, 50, 28
1, 47689, Note_on_c, 0, 53, 33
1, 47689, Note_on_c, 0, 56, 38
1, 48239, Note_on_c, 0, 56, 0
1, 48239, Note_on_c, 0, 47, 0
1, 48239, Note_on_c, 0, 50, 0
1, 48242, Note_on_c, 0, 53, 0
1, 48242, Note_on_c, 0, 47, 28
1, 48242, Note_on_c, 0, 50, 28
1, 48245, Note_on_c, 0, 53, 33
1, 48245, Note_on_c, 0, 56, 38
1, 48800, Note_on_c, 0, 56, 0
1, 48800, Note_on_c, 0, 47, 0
1, 48800, Note_on_c, 0, 50, 0
1, 48803, Note_on_c, 0, 53, 0
1, 48803, Note_on_c, 0, 46, 28
1, 48803, Note_on_c, 0, 50, 28
1, 48806, Note_on_c, 0, 53, 33
1, 48806, Note_on_c, 0, 56, 38
1, 49362, Note_on_c, 0, 56, 0
1, 49362, Note_on_c, 0, 46, 0
1, 49362, Note_on_c, 0, 50, 0
1, 49365, Note_on_c, 0, 53, 0
1, 49365, Note_on_c, 0, 46, 28
1, 49365, Note_on_c, 0, 50, 28
1, 49368, Note_on_c, 0, 53, 33
1, 49368, Note_on_c, 0, 56, 38
1, 49643, Note_on_c, 0, 77, 0
1, 49643, Note_on_c, 0, 65, 0
1, 49643, Note_on_c, 0, 65, 56
1, 49646, Note_on_c, 0, 77, 65
1, 49924, Note_on_c, 0, 77, 0
1, 49924, Note_on_c, 0, 65, 0
1, 49924, Note_on_c, 0, 67, 58
1, 49927, Note_on_c, 0, 79, 67
1, 49927, Note_on_c, 0, 56, 0
1, 49927, Note_on_c, 0, 46, 0
1, 49930, Note_on_c, 0, 50, 0
1, 49930, Note_on_c, 0, 53, 0
1, 49930, Note_on_c, 0, 46, 28
1, 49933, Note_on_c, 0, 50, 28
1, 49933, Note_on_c, 0, 53, 33
1, 49933, Note_on_c, 0, 56, 38
1, 50485, Note_on_c, 0, 56, 0
1, 50485, Note_on_c, 0, 46, 0
1, 50485, Note_on_c, 0, 50, 0
1, 50488, Note_on_c, 0, 53, 0
1, 50488, Note_on_c, 0, 46, 28
1, 50488, Note_on_c, 0, 50, 28
1, 50491, Note_on_c, 0, 53, 33
1, 50491, Note_on_c, 0, 56, 38
1, 50766, Note_on_c, 0, 79, 0
1, 50766, Note_on_c, 0, 67, 0
1, 50766, Note_on_c, 0, 68, 59
1, 50769, Note_on_c, 0, 80, 69
1, 51078, Note_on_c, 0, 80, 0
1, 51078, Note_on_c, 0, 68, 0
1, 51078, Note_on_c, 0, 68, 59
1, 51081, Note_on_c, 0, 80, 69
1, 51081, Note_on_c, 0, 56, 0
1, 51081, Note_on_c, 0, 46, 0
1, 51084, Note_on_c, 0, 50, 0
1, 51084, Note_on_c, 0, 53, 0
1, 51084, Note_on_c, 0, 46, 29
1, 51087, Note_on_c, 0, 49, 29
1, 51087, Note_on_c, 0, 52, 34
1, 51087, Note_on_c, 0, 55, 38
1, 51640, Note_on_c, 0, 55, 0
1, 51640, Note_on_c, 0, 46, 0
1, 51640, Note_on_c, 0, 49, 0
1, 51643, Note_on_c, 0, 52, 0
1, 51643, Note_on_c, 0, 46, 29
1, 51643, Note_on_c, 0, 49, 29
1, 51646, Note_on_c, 0, 52, 35
1, 51646, Note_on_c, 0, 55, 39
1, 52201, Note_on_c, 0, 80, 0
1, 52201, Note_on_c, 0, 68, 0
1, 52201, Note_on_c, 0, 67, 56
1, 52204, Note_on_c, 0, 79, 65
1, 52204, Note_on_c, 0, 55, 0
1, 52204, Note_on_c, 0, 46, 0
1, 52207, Note_on_c, 0, 49, 0
1, 52207, Note_on_c, 0, 52, 0
1, 52207, Note_on_c, 0, 46, 29
1, 52210, Note_on_c, 0, 49, 29
1, 52210, Note_on_c, 0, 52, 35
1, 52210, Note_on_c, 0, 55, 39
1, 52763, Note_on_c, 0, 79, 0
1, 52763, Note_on_c, 0, 67, 0
1, 52763, Note_on_c, 0, 55, 0
1, 52766, Note_on_c, 0, 46, 0
1, 52766, Note_on_c, 0, 49, 0
1, 52766, Note_on_c, 0, 52, 0
1, 52769, Note_on_c, 0, 46, 29
1, 52769, Note_on_c, 0, 49, 29
1, 52769, Note_on_c, 0, 52, 35
1, 52772, Note_on_c, 0, 55, 39
1, 53044, Note_on_c, 0, 55, 86
1, 53044, Note_on_c, 0, 61, 86
1, 53044, Note_on_c, 0, 64, 86
1, 53047, Note_on_c, 0, 67, 101
1, 53324, Note_on_c, 0, 67, 0
1, 53324, Note_on_c, 0, 55, 0
1, 53324, Note_on_c, 0, 61, 0
1, 53327, Note_on_c, 0, 64, 0
1, 53327, Note_on_c, 0, 57, 92
1, 53327, Note_on_c, 0, 61, 92
1, 53330, Note_on_c, 0, 63, 92
1, 53330, Note_on_c, 0, 69, 107
1, 53330, Note_on_c, 0, 55, 0
1, 53333, Note_on_c, 0, 46, 0
1, 53333, Note_on_c, 0, 49, 0
1, 53333, Note_on_c, 0, 52, 0
1, 53336, Note_on_c, 0, 33, 79
1, 53336, Note_on_c, 0, 45, 92
1, 53866, Note_on_c, 0, 45, 0
1, 53866, Note_on_c, 0, 33, 0
1, 53866, Note_on_c, 0, 33, 79
1, 53869, Note_on_c, 0, 45, 92
1, 54136, Note_on_c, 0, 69, 0
1, 54136, Note_on_c, 0, 57, 0
1, 54136, Note_on_c, 0, 61, 0
1, 54139, Note_on_c, 0, 63, 0
1, 54139, Note_on_c, 0, 57, 85
1, 54139, Note_on_c, 0, 61, 85
1, 54142, Note_on_c, 0, 63, 85
1, 54142, Note_on_c, 0, 69, 100
1, 54407, Note_on_c, 0, 69, 0
1, 54407, Note_on_c, 0, 57, 0
1, 54407, Note_on_c, 0, 61, 0
1, 54410, Note_on_c, 0, 63, 0
1, 54410, Note_on_c, 0, 58, 90
1, 54410, Note_on_c, 0, 61, 90
1, 54413, Note_on_c, 0, 63, 90
1, 54413, Note_on_c, 0, 70, 104
1, 54413, Note_on_c, 0, 45, 0
1, 54416, Note_on_c, 0, 33, 0
1, 54416, Note_on_c, 0, 31, 79
1, 54416, Note_on_c, 0, 43, 92
1, 54948, Note_on_c, 0, 43, 0
1, 54948, Note_on_c, 0, 31, 0
1, 54948, Note_on_c, 0, 31, 79
1, 54951, Note_on_c, 0, 43, 92
1, 55219, Note_on_c, 0, 70, 0
1, 55219, Note_on_c, 0, 58, 0
1, 55219, Note_on_c, 0, 61, 0
1, 55222, Note_on_c, 0, 63, 0
1, 55222, Note_on_c, 0, 58, 90
1, 55222, Note_on_c, 0, 61, 90
1, 55225, Note_on_c, 0, 63, 90
1, 55225, Note_on_c, 0, 70, 104
1, 55490, Note_on_c, 0, 70, 0
1, 55490, Note_on_c, 0, 58, 0
1, 55490, Note_on_c, 0, 61, 0
1, 55493, Note_on_c, 0, 63, 0
1, 55493, Note_on_c, 0, 57, 90
1, 55493, Note_on_c, 0, 62, 90
1, 55496, Note_on_c, 0, 66, 90
1, 55496, Note_on_c, 0, 69, 104
1, 55496, Note_on_c, 0, 43, 0
1, 55499, Note_on_c, 0, 31, 0
1, 55499, Note_on_c, 0, 30, 79
1, 55499, Note_on_c, 0, 42, 92
1, 56044, Note_on_c, 0, 42, 0
1, 56044, Note_on_c, 0, 30, 0
1, 56044, Note_on_c, 0, 54, 34
1, 56047, Note_on_c, 0, 57, 38
1, 56047, Note_on_c, 0, 62, 44
1, 56599, Note_on_c, 0, 69, 0
1, 56599, Note_on_c, 0, 57, 0
1, 56599, Note_on_c, 0, 62, 0
1, 56602, Note_on_c, 0, 66, 0
1, 56602, Note_on_c, 0, 69, 56
1, 56602, Note_on_c, 0, 81, 65
1, 56605, Note_on_c, 0, 62, 0
1, 56605, Note_on_c, 0, 57, 0
1, 56605, Note_on_c, 0, 54, 0
1, 56608, Note_on_c, 0, 54, 34
1, 56608, Note_on_c, 0, 57, 38
1, 56608, Note_on_c, 0, 62, 44
1, 57154, Note_on_c, 0, 62, 0
1, 57154, Note_on_c, 0, 57, 0
1, 57154, Note_on_c, 0, 54, 0
1, 57157, Note_on_c, 0, 54, 34
1, 57157, Note_on_c, 0, 57, 38
1, 57157, Note_on_c, 0, 62, 44
1, 57708, Note_on_c, 0, 62, 0
1, 57708, Note_on_c, 0, 57, 0
1, 57708, Note_on_c, 0, 54, 0
1, 57711, Note_on_c, 0, 54, 34
1, 57711, Note_on_c, 0, 57, 38
1, 57711, Note_on_c, 0, 62, 44
1, 58263, Note_on_c, 0, 62, 0
1, 58263, Note_on_c, 0, 57, 0
1, 58263, Note_on_c, 0, 54, 0
1, 58266, Note_on_c, 0, 54, 34
1, 58266, Note_on_c, 0, 57, 38
1, 58266, Note_on_c, 0, 62, 44
1, 58540, Note_on_c, 0, 81, 0
1, 58540, Note_on_c, 0, 69, 0
1, 58540, Note_on_c, 0, 69, 56
1, 58543, Note_on_c, 0, 81, 65
1, 58818, Note_on_c, 0, 81, 0
1, 58818, Note_on_c, 0, 69, 0
1, 58818, Note_on_c, 0, 71, 58
1, 58821, Note_on_c, 0, 83, 67
1, 58821, Note_on_c, 0, 62, 0
1, 58821, Note_on_c, 0, 57, 0
1, 58824, Note_on_c, 0, 54, 0
1, 58824, Note_on_c, 0, 54, 34
1, 58824, Note_on_c, 0, 57, 38
1, 58827, Note_on_c, 0, 62, 44
1, 59372, Note_on_c, 0, 62, 0
1, 59372, Note_on_c, 0, 57, 0
1, 59372, Note_on_c, 0, 54, 0
1, 59375, Note_on_c, 0, 54, 34
1, 59375, Note_on_c, 0, 57, 38
1, 59375, Note_on_c, 0, 62, 44
1, 59650, Note_on_c, 0, 83, 0
1, 59650, Note_on_c, 0, 71, 0
1, 59650, Note_on_c, 0, 72, 59
1, 59653, Note_on_c, 0, 84, 69
1, 59962, Note_on_c, 0, 84, 0
1, 59962, Note_on_c, 0, 72, 0
1, 59962, Note_on_c, 0, 72, 59
1, 59965, Note_on_c, 0, 84, 69
1, 59965, Note_on_c, 0, 62, 0
1, 59965, Note_on_c, 0, 57, 0
1, 59968, Note_on_c, 0, 54, 0
1, 59968, Note_on_c, 0, 53, 35
1, 59968, Note_on_c, 0, 56, 39
1, 59971, Note_on_c, 0, 62, 45
1, 60523, Note_on_c, 0, 62, 0
1, 60523, Note_on_c, 0, 56, 0
1, 60523, Note_on_c, 0, 53, 0
1, 60526, Note_on_c, 0, 53, 35
1, 60526, Note_on_c, 0, 56, 40
1, 60526, Note_on_c, 0, 62, 46
1, 61085, Note_on_c, 0, 84, 0
1, 61085, Note_on_c, 0, 72, 0
1, 61085, Note_on_c, 0, 71, 56
1, 61088, Note_on_c, 0, 83, 65
1, 61088, Note_on_c, 0, 62, 0
1, 61088, Note_on_c, 0, 56, 0
1, 61091, Note_on_c, 0, 53, 0
1, 61091, Note_on_c, 0, 53, 35
1, 61091, Note_on_c, 0, 56, 40
1, 61094, Note_on_c, 0, 62, 46
1, 61626, Note_on_c, 0, 83, 0
1, 61626, Note_on_c, 0, 71, 0
1, 61626, Note_on_c, 0, 62, 0
1, 61629, Note_on_c, 0, 56, 0
1, 61629, Note_on_c, 0, 53, 0
1, 61629, Note_on_c, 0, 53, 35
1, 61632, Note_on_c, 0, 56, 40
1, 61632, Note_on_c, 0, 62, 46
1, 62167, Note_on_c, 0, 62, 0
1, 62167, Note_on_c, 0, 56, 0
1, 62167, Note_on_c, 0, 53, 0
1, 62170, Note_on_c, 0, 50, 45
1, 62170, Note_on_c, 0, 53, 52
1, 62170, Note_on_c, 0, 59, 60
1, 62715, Note_on_c, 0, 59, 0
1, 62715, Note_on_c, 0, 53, 0
1, 62715, Note_on_c, 0, 50, 0
1, 62718, Note_on_c, 0, 50, 45
1, 62718, Note_on_c, 0, 53, 52
1, 62718, Note_on_c, 0, 59, 60
1, 63255, Note_on_c, 0, 71, 82
1, 63255, Note_on_c, 0, 83, 82
1, 63255, Note_on_c, 0, 59, 0
1, 63258, Note_on_c, 0, 53, 0
1, 63258, Note_on_c, 0, 50, 0
1, 63258, Note_on_c, 0, 50, 45
1, 63261, Note_on_c, 0, 53, 52
1, 63261, Note_on_c, 0, 59, 60
1, 63788, Note_on_c, 0, 59, 0
1, 63788, Note_on_c, 0, 53, 0
1, 63788, Note_on_c, 0, 50, 0
1, 63791, Note_on_c, 0, 50, 45
1, 63791, Note_on_c, 0, 53, 52
1, 63791, Note_on_c, 0, 59, 60
1, 64066, Note_on_c, 0, 83, 0
1, 64066, Note_on_c, 0, 71, 0
1, 64066, Note_on_c, 0, 72, 73
1, 64069, Note_on_c, 0, 84, 85
1, 64343, Note_on_c, 0, 84, 0
1, 64343, Note_on_c, 0, 72, 0
1, 64343, Note_on_c, 0, 73, 91
1, 64346, Note_on_c, 0, 85, 91
1, 64346, Note_on_c, 0, 59, 0
1, 64346, Note_on_c, 0, 53, 0
1, 64349, Note_on_c, 0, 50, 0
1, 64349, Note_on_c, 0, 47, 57
1, 64349, Note_on_c, 0, 50, 57
1, 64352, Note_on_c, 0, 56, 66
1, 64891, Note_on_c, 0, 56, 0
1, 64891, Note_on_c, 0, 50, 0
1, 64891, Note_on_c, 0, 47, 0
1, 64894, Note_on_c, 0, 47, 59
1, 64894, Note_on_c, 0, 50, 59
1, 64894, Note_on_c, 0, 56, 68
1, 65439, Note_on_c, 0, 85, 0
1, 65439, Note_on_c, 0, 73, 0
1, 65439, Note_on_c, 0, 74, 96
1, 65442, Note_on_c, 0, 86, 96
1, 65442, Note_on_c, 0, 56, 0
1, 65442, Note_on_c, 0, 50, 0
1, 65445, Note_on_c, 0, 47, 0
1, 65445, Note_on_c, 0, 47, 54
1, 65445, Note_on_c, 0, 50, 54
1, 65448, Note_on_c, 0, 56, 62
1, 65961, Note_on_c, 0, 56, 0
1, 65961, Note_on_c, 0, 50, 0
1, 65961, Note_on_c, 0, 47, 0
1, 65964, Note_on_c, 0, 47, 54
1, 65964, Note_on_c, 0, 50, 54
1, 65964, Note_on_c, 0, 56, 62
1, 66484, Note_on_c, 0, 86, 0
1, 66484, Note_on_c, 0, 74, 0
1, 66484, Note_on_c, 0, 56, 0
1, 66487, Note_on_c, 0, 50, 0
1, 66487, Note_on_c, 0, 47, 0
1, 66487, Note_on_c, 0, 44, 55
1, 66490, Note_on_c, 0, 47, 63
1, 66490, Note_on_c, 0, 53, 74
1, 67006, Note_on_c, 0, 53, 0
1, 67006, Note_on_c, 0, 47, 0
1, 67006, Note_on_c, 0, 44, 0
1, 67009, Note_on_c, 0, 44, 55
1, 67009, Note_on_c, 0, 47, 63
1, 67009, Note_on_c, 0, 53, 74
1, 67541, Note_on_c, 0, 74, 101
1, 67541, Note_on_c, 0, 86, 102
1, 67541, Note_on_c, 0, 53, 0
1, 67544, Note_on_c, 0, 47, 0
1, 67544, Note_on_c, 0, 44, 0
1, 67544, Note_on_c, 0, 44, 55
1, 67547, Note_on_c, 0, 47, 63
1, 67547, Note_on_c, 0, 53, 74
1, 68076, Note_on_c, 0, 53, 0
1, 68076, Note_on_c, 0, 47, 0
1, 68076, Note_on_c, 0, 44, 0
1, 68079, Note_on_c, 0, 44, 55
1, 68079, Note_on_c, 0, 47, 63
1, 68079, Note_on_c, 0, 53, 74
1, 68343, Note_on_c, 0, 86, 0
1, 68343, Note_on_c, 0, 74, 0
1, 68343, Note_on_c, 0, 75, 91
1, 68346, Note_on_c, 0, 87, 93
1, 68643, Note_on_c, 0, 87, 0
1, 68643, Note_on_c, 0, 75, 0
1, 68643, Note_on_c, 0, 76, 99
1, 68646, Note_on_c, 0, 88, 99
1, 68646, Note_on_c, 0, 53, 0
1, 68646, Note_on_c, 0, 47, 0
1, 68649, Note_on_c, 0, 44, 0
1, 68649, Note_on_c, 0, 43, 55
1, 68649, Note_on_c, 0, 47, 63
1, 68652, Note_on_c, 0, 53, 75
1, 69177, Note_on_c, 0, 53, 0
1, 69177, Note_on_c, 0, 47, 0
1, 69177, Note_on_c, 0, 43, 0
1, 69180, Note_on_c, 0, 43, 55
1, 69180, Note_on_c, 0, 47, 63
1, 69180, Note_on_c, 0, 53, 75
1, 69712, Note_on_c, 0, 88, 0
1, 69712, Note_on_c, 0, 76, 0
1, 69712, Note_on_c, 0, 77, 99
1, 69715, Note_on_c, 0, 89, 101
1, 69715, Note_on_c, 0, 53, 0
1, 69715, Note_on_c, 0, 47, 0
1, 69718, Note_on_c, 0, 43, 0
1, 69718, Note_on_c, 0, 43, 55
1, 69718, Note_on_c, 0, 47, 63
1, 69721, Note_on_c, 0, 53, 75
1, 70247, Note_on_c, 0, 53, 0
1, 70247, Note_on_c, 0, 47, 0
1, 70247, Note_on_c, 0, 43, 0
1, 70250, Note_on_c, 0, 43, 55
1, 70250, Note_on_c, 0, 47, 63
1, 70250, Note_on_c, 0, 53, 75
1, 70778, Note_on_c, 0, 53, 0
1, 70778, Note_on_c, 0, 47, 0
1, 70778, Note_on_c, 0, 43, 0
1, 70781, Note_on_c, 0, 44, 56
1, 70781, Note_on_c, 0, 48, 65
1, 70781, Note_on_c, 0, 53, 77
1, 71289, Note_on_c, 0, 53, 0
1, 71289, Note_on_c, 0, 48, 0
1, 71289, Note_on_c, 0, 44, 0
1, 71292, Note_on_c, 0, 44, 58
1, 71292, Note_on_c, 0, 48, 67
1, 71292, Note_on_c, 0, 53, 79
1, 71799, Note_on_c, 0, 89, 0
1, 71799, Note_on_c, 0, 77, 0
1, 71799, Note_on_c, 0, 77, 107
1, 71802, Note_on_c, 0, 89, 107
1, 71802, Note_on_c, 0, 53, 0
1, 71802, Note_on_c, 0, 48, 0
1, 71805, Note_on_c, 0, 44, 0
1, 71805, Note_on_c, 0, 44, 60
1, 71805, Note_on_c, 0, 48, 70
1, 71808, Note_on_c, 0, 53, 81
1, 72340, Note_on_c, 0, 53, 0
1, 72340, Note_on_c, 0, 48, 0
1, 72340, Note_on_c, 0, 44, 0
1, 72343, Note_on_c, 0, 44, 61
1, 72343, Note_on_c, 0, 48, 72
1, 72343, Note_on_c, 0, 53, 84
1, 72982, Note_on_c, 0, 89, 0
1, 72982, Note_on_c, 0, 77, 0
1, 72982, Note_on_c, 0, 77, 107
1, 72985, Note_on_c, 0, 89, 107
1, 72985, Note_on_c, 0, 53, 0
1, 72985, Note_on_c, 0, 48, 0
1, 72988, Note_on_c, 0, 44, 0
1, 72988, Note_on_c, 0, 43, 86
1, 72988, Note_on_c, 0, 47, 86
1, 72991, Note_on_c, 0, 53, 86
1, 74052, Note_on_c, 0, 53, 0
1, 74052, Note_on_c, 0, 47, 0
1, 74052, Note_on_c, 0, 43, 0
1, 74319, Note_on_c, 0, 89, 0
1, 74319, Note_on_c, 0, 77, 0
1, 74319, Note_on_c, 0, 87, 73
1, 74453, Note_on_c, 0, 87, 0
1, 74453, Note_on_c, 0, 86, 73
1, 74587, Note_on_c, 0, 86, 0
1, 74587, Note_on_c, 0, 89, 73
1, 74720, Note_on_c, 0, 89, 0
1, 74720, Note_on_c, 0, 87, 73
1, 74854, Note_on_c, 0, 87, 0
1, 74854, Note_on_c, 0, 86, 73
1, 74988, Note_on_c, 0, 86, 0
1, 74988, Note_on_c, 0, 84, 73
1, 75122, Note_on_c, 0, 84, 0
1, 75122, Note_on_c, 0, 83, 73
1, 75392, Note_on_c, 0, 83, 0
1, 75663, Note_on_c, 0, 83, 62
1, 75951, Note_on_c, 0, 83, 0
1, 76239, Note_on_c, 0, 77, 49
1, 76239, Note_on_c, 0, 83, 57
1, 76239, Note_on_c, 0, 67, 45
1, 76242, Note_on_c, 0, 74, 52
1, 76538, Note_on_c, 0, 83, 0
1, 76538, Note_on_c, 0, 77, 0
1, 76538, Note_on_c, 0, 74, 0
1, 76541, Note_on_c, 0, 67, 0
1, 76838, Note_on_c, 0, 77, 50
1, 76838, Note_on_c, 0, 83, 58
1, 76838, Note_on_c, 0, 67, 45
1, 76841, Note_on_c, 0, 74, 52
1, 77164, Note_on_c, 0, 83, 0
1, 77164, Note_on_c, 0, 77, 0
1, 77164, Note_on_c, 0, 74, 0
1, 77167, Note_on_c, 0, 67, 0
1, 77489, Note_on_c, 0, 75, 50
1, 77489, Note_on_c, 0, 84, 58
1, 77489, Note_on_c, 0, 68, 45
1, 77492, Note_on_c, 0, 72, 52
1, 78598, Note_on_c, 0, 84, 0
1, 78598, Note_on_c, 0, 75, 0
1, 78598, Note_on_c, 0, 72, 0
1, 78601, Note_on_c, 0, 68, 0
1, 81847, Note_on_c, 0, 84, 76
1, 83184, Note_on_c, 0, 84, 0
1, 83184, Note_on_c, 0, 83, 72
1, 83318, Note_on_c, 0, 83, 0
1, 83318, Note_on_c, 0, 84, 74
1, 83452, Note_on_c, 0, 84, 0
1, 83452, Note_on_c, 0, 86, 77
1, 83541, Note_on_c, 0, 86, 0
1, 83541, Note_on_c, 0, 84, 76
1, 83630, Note_on_c, 0, 84, 0
1, 83630, Note_on_c, 0, 82, 75
1, 83719, Note_on_c, 0, 82, 0
1, 83719, Note_on_c, 0, 80, 74
1, 83808, Note_on_c, 0, 80, 0
1, 83808, Note_on_c, 0, 79, 72
1, 83897, Note_on_c, 0, 79, 0
1, 83897, Note_on_c, 0, 82, 70
1, 83987, Note_on_c, 0, 82, 0
1, 83987, Note_on_c, 0, 80, 73
1, 84261, Note_on_c, 0, 80, 0
1, 84545, Note_on_c, 0, 80, 59
1, 84837, Note_on_c, 0, 80, 0
1, 85128, Note_on_c, 0, 80, 57
1, 85128, Note_on_c, 0, 60, 38
1, 85128, Note_on_c, 0, 53, 38
1, 85131, Note_on_c, 0, 62, 44
1, 85424, Note_on_c, 0, 80, 0
1, 85424, Note_on_c, 0, 62, 0
1, 85424, Note_on_c, 0, 53, 0
1, 85427, Note_on_c, 0, 60, 0
1, 85720, Note_on_c, 0, 80, 58
1, 85720, Note_on_c, 0, 60, 38
1, 85720, Note_on_c, 0, 53, 38
1, 85723, Note_on_c, 0, 62, 44
1, 86050, Note_on_c, 0, 80, 0
1, 86050, Note_on_c, 0, 62, 0
1, 86050, Note_on_c, 0, 53, 0
1, 86053, Note_on_c, 0, 60, 0
1, 86380, Note_on_c, 0, 79, 60
1, 86380, Note_on_c, 0, 60, 38
1, 86380, Note_on_c, 0, 55, 38
1, 86383, Note_on_c, 0, 63, 44
1, 86996, Note_on_c, 0, 79, 0
1, 86996, Note_on_c, 0, 87, 76
1, 87544, Note_on_c, 0, 63, 0
1, 87544, Note_on_c, 0, 55, 0
1, 87544, Note_on_c, 0, 60, 0
1, 87635, Note_on_c, 0, 87, 0
1, 87635, Note_on_c, 0, 86, 62
1, 87723, Note_on_c, 0, 86, 0
1, 87723, Note_on_c, 0, 85, 62
1, 87811, Note_on_c, 0, 85, 0
1, 87811, Note_on_c, 0, 84, 62
1, 87899, Note_on_c, 0, 84, 0
1, 87899, Note_on_c, 0, 83, 62
1, 87987, Note_on_c, 0, 83, 0
1, 87987, Note_on_c, 0, 82, 63
1, 88075, Note_on_c, 0, 82, 0
1, 88075, Note_on_c, 0, 81, 63
1, 88150, Note_on_c, 0, 81, 0
1, 88150, Note_on_c, 0, 80, 63
1, 88225, Note_on_c, 0, 80, 0
1, 88225, Note_on_c, 0, 79, 63
1, 88300, Note_on_c, 0, 79, 0
1, 88300, Note_on_c, 0, 78, 64
1, 88375, Note_on_c, 0, 78, 0
1, 88375, Note_on_c, 0, 77, 64
1, 88450, Note_on_c, 0, 77, 0
1, 88450, Note_on_c, 0, 76, 64
1, 88521, Note_on_c, 0, 76, 0
1, 88521, Note_on_c, 0, 75, 64
1, 88562, Note_on_c, 0, 75, 0
1, 88562, Note_on_c, 0, 74, 64
1, 88562, Note_on_c, 0, 43, 43
1, 88565, Note_on_c, 0, 50, 43
1, 88565, Note_on_c, 0, 53, 50
1, 88631, Note_on_c, 0, 74, 0
1, 88631, Note_on_c, 0, 73, 65
1, 88700, Note_on_c, 0, 73, 0
1, 88700, Note_on_c, 0, 72, 65
1, 88769, Note_on_c, 0, 72, 0
1, 88769, Note_on_c, 0, 71, 66
1, 88838, Note_on_c, 0, 71, 0
1, 88838, Note_on_c, 0, 70, 66
1, 88906, Note_on_c, 0, 70, 0
1, 88906, Note_on_c, 0, 69, 66
1, 88974, Note_on_c, 0, 69, 0
1, 88974, Note_on_c, 0, 68, 67
1, 89041, Note_on_c, 0, 68, 0
1, 89041, Note_on_c, 0, 67, 67
1, 89109, Note_on_c, 0, 67, 0
1, 89109, Note_on_c, 0, 66, 67
1, 89109, Note_on_c, 0, 53, 0
1, 89112, Note_on_c, 0, 50, 0
1, 89112, Note_on_c, 0, 43, 0
1, 89176, Note_on_c, 0, 66, 0
1, 89176, Note_on_c, 0, 65, 68
1, 89243, Note_on_c, 0, 65, 0
1, 89243, Note_on_c, 0, 64, 67
1, 89309, Note_on_c, 0, 64, 0
1, 89309, Note_on_c, 0, 63, 67
1, 89375, Note_on_c, 0, 63, 0
1, 89375, Note_on_c, 0, 62, 68
1, 89442, Note_on_c, 0, 62, 0
1, 89442, Note_on_c, 0, 61, 74
1, 89510, Note_on_c, 0, 61, 0
1, 89510, Note_on_c, 0, 60, 79
1, 89578, Note_on_c, 0, 60, 0
1, 89578, Note_on_c, 0, 59, 84
1, 89648, Note_on_c, 0, 59, 0
1, 89648, Note_on_c, 0, 68, 93
1, 90441, Note_on_c, 0, 68, 0
1, 90441, Note_on_c, 0, 59, 79
1, 90675, Note_on_c, 0, 59, 0
1, 90675, Note_on_c, 0, 60, 60
1, 90675, Note_on_c, 0, 36, 54
1, 90737, Control_c, 0, 64, 127
1, 90751, Note_on_c, 0, 48, 51
1, 90827, Note_on_c, 0, 48, 0
1, 90827, Note_on_c, 0, 36, 0
1, 90827, Note_on_c, 0, 36, 54
1, 90903, Note_on_c, 0, 48, 51
1, 90978, Note_on_c, 0, 48, 0
1, 90978, Note_on_c, 0, 36, 0
1, 90978, Note_on_c, 0, 36, 54
1, 91052, Note_on_c, 0, 48, 51
1, 91091, Control_c, 0, 64, 0
1, 91126, Note_on_c, 0, 60, 0
1, 91126, Note_on_c, 0, 58, 62
1, 91126, Note_on_c, 0, 64, 62
1, 91129, Note_on_c, 0, 48, 0
1, 91129, Note_on_c, 0, 36, 0
1, 91129, Note_on_c, 0, 36, 55
1, 91181, Note_on_c, 0, 64, 0
1, 91181, Note_on_c, 0, 58, 0
1, 91199, Note_on_c, 0, 48, 51
1, 91272, Note_on_c, 0, 56, 64
1, 91272, Note_on_c, 0, 65, 64
1, 91272, Note_on_c, 0, 48, 0
1, 91275, Note_on_c, 0, 36, 0
1, 91275, Note_on_c, 0, 36, 55
1, 91327, Note_on_c, 0, 65, 0
1, 91327, Note_on_c, 0, 56, 0
1, 91345, Note_on_c, 0, 48, 56
1, 91418, Note_on_c, 0, 64, 66
1, 91418, Note_on_c, 0, 67, 66
1, 91418, Note_on_c, 0, 48, 0
1, 91421, Note_on_c, 0, 36, 0
1, 91421, Note_on_c, 0, 36, 57
1, 91472, Note_on_c, 0, 67, 0
1, 91472, Note_on_c, 0, 64, 0
1, 91490, Note_on_c, 0, 48, 57
1, 91562, Note_on_c, 0, 65, 67
1, 91562, Note_on_c, 0, 68, 67
1, 91562, Note_on_c, 0, 48, 0
1, 91565, Note_on_c, 0, 36, 0
1, 91565, Note_on_c, 0, 36, 59
1, 91616, Note_on_c, 0, 68, 0
1, 91616, Note_on_c, 0, 65, 0
1, 91634, Note_on_c, 0, 48, 60
1, 91706, Note_on_c, 0, 62, 69
1, 91706, Note_on_c, 0, 71, 69
1, 91706, Note_on_c, 0, 48, 0
1, 91709, Note_on_c, 0, 36, 0
1, 91709, Note_on_c, 0, 36, 61
1, 91761, Note_on_c, 0, 71, 0
1, 91761, Note_on_c, 0, 62, 0
1, 91779, Note_on_c, 0, 48, 63
1, 91853, Note_on_c, 0, 63, 72
1, 91853, Note_on_c, 0, 72, 72
1, 91853, Note_on_c, 0, 48, 0
1, 91856, Note_on_c, 0, 36, 0
1, 91856, Note_on_c, 0, 36, 65
1, 91911, Note_on_c, 0, 72, 0
1, 91911, Note_on_c, 0, 63, 0
1, 91930, Note_on_c, 0, 48, 60
1, 92003, Control_c, 0, 64, 127
1, 92008, Note_on_c, 0, 64, 65
1, 92008, Note_on_c, 0, 72, 65
1, 92008, Note_on_c, 0, 48, 0
1, 92011, Note_on_c, 0, 36, 0
1, 92011, Note_on_c, 0, 36, 63
1, 92081, Note_on_c, 0, 48, 57
1, 92154, Note_on_c, 0, 48, 0
1, 92154, Note_on_c, 0, 36, 0
1, 92154, Note_on_c, 0, 36, 63
1, 92227, Note_on_c, 0, 48, 57
1, 92300, Note_on_c, 0, 72, 0
1, 92300, Note_on_c, 0, 64, 0
1, 92300, Note_on_c, 0, 70, 61
1, 92303, Note_on_c, 0, 76, 61
1, 92303, Note_on_c, 0, 48, 0
1, 92303, Note_on_c, 0, 36, 0
1, 92306, Control_c, 0, 64, 0
1, 92306, Note_on_c, 0, 36, 54
1, 92354, Note_on_c, 0, 76, 0
1, 92354, Note_on_c, 0, 70, 0
1, 92373, Note_on_c, 0, 48, 50
1, 92446, Note_on_c, 0, 68, 63
1, 92446, Note_on_c, 0, 77, 63
1, 92446, Note_on_c, 0, 48, 0
1, 92449, Note_on_c, 0, 36, 0
1, 92449, Note_on_c, 0, 36, 53
1, 92500, Note_on_c, 0, 77, 0
1, 92500, Note_on_c, 0, 68, 0
1, 92518, Note_on_c, 0, 48, 55
1, 92591, Note_on_c, 0, 76, 65
1, 92591, Note_on_c, 0, 79, 65
1, 92591, Note_on_c, 0, 48, 0
1, 92594, Note_on_c, 0, 36, 0
1, 92594, Note_on_c, 0, 36, 56
1, 92646, Note_on_c, 0, 79, 0
1, 92646, Note_on_c, 0, 76, 0
1, 92664, Note_on_c, 0, 48, 57
1, 92736, Note_on_c, 0, 77, 67
1, 92736, Note_on_c, 0, 80, 67
1, 92736, Note_on_c, 0, 48, 0
1, 92739, Note_on_c, 0, 36, 0
1, 92739, Note_on_c, 0, 36, 58
1, 92790, Note_on_c, 0, 80, 0
1, 92790, Note_on_c, 0, 77, 0
1, 92808, Note_on_c, 0, 48, 60
1, 92880, Note_on_c, 0, 74, 69
1, 92880, Note_on_c, 0, 83, 69
1, 92880, Note_on_c, 0, 48, 0
1, 92883, Note_on_c, 0, 36, 0
1, 92883, Note_on_c, 0, 36, 61
1, 92935, Note_on_c, 0, 83, 0
1, 92935, Note_on_c, 0, 74, 0
1, 92953, Note_on_c, 0, 48, 63
1, 93025, Note_on_c, 0, 72, 61
1, 93025, Note_on_c, 0, 79, 72
1, 93025, Note_on_c, 0, 75, 61
1, 93028, Note_on_c, 0, 84, 72
1, 93028, Note_on_c, 0, 48, 0
1, 93028, Note_on_c, 0, 36, 0
1, 93031, Note_on_c, 0, 36, 65
1, 93059, Control_c, 0, 64, 127
1, 93099, Note_on_c, 0, 48, 60
1, 93173, Note_on_c, 0, 48, 0
1, 93173, Note_on_c, 0, 36, 0
1, 93173, Note_on_c, 0, 36, 63
1, 93247, Note_on_c, 0, 48, 57
1, 93320, Note_on_c, 0, 84, 0
1, 93320, Note_on_c, 0, 72, 0
1, 93320, Note_on_c, 0, 79, 0
1, 93323, Note_on_c, 0, 75, 0
1, 93323, Note_on_c, 0, 67, 63
1, 93323, Note_on_c, 0, 71, 63
1, 93326, Note_on_c, 0, 77, 74
1, 93326, Note_on_c, 0, 79, 74
1, 93326, Note_on_c, 0, 48, 0
1, 93329, Note_on_c, 0, 36, 0
1, 93329, Note_on_c, 0, 38, 65
1, 93329, Control_c, 0, 64, 0
1, 93377, Control_c, 0, 64, 127
1, 93394, Note_on_c, 0, 50, 60
1, 93467, Note_on_c, 0, 50, 0
1, 93467, Note_on_c, 0, 38, 0
1, 93467, Note_on_c, 0, 38, 65
1, 93543, Note_on_c, 0, 50, 61
1, 93619, Note_on_c, 0, 79, 0
1, 93619, Note_on_c, 0, 67, 0
1, 93619, Note_on_c, 0, 71, 0
1, 93622, Note_on_c, 0, 77, 0
1, 93622, Note_on_c, 0, 67, 66
1, 93622, Note_on_c, 0, 72, 66
1, 93625, Note_on_c, 0, 75, 78
1, 93625, Note_on_c, 0, 50, 0
1, 93625, Note_on_c, 0, 38, 0
1, 93628, Note_on_c, 0, 39, 65
1, 93628, Control_c, 0, 64, 0
1, 93658, Control_c, 0, 64, 127
1, 93693, Note_on_c, 0, 51, 65
1, 93766, Note_on_c, 0, 51, 0
1, 93766, Note_on_c, 0, 39, 0
1, 93766, Note_on_c, 0, 39, 65
1, 93840, Note_on_c, 0, 51, 65
1, 93914, Note_on_c, 0, 75, 0
1, 93914, Note_on_c, 0, 72, 0
1, 93914, Note_on_c, 0, 67, 0
1, 93917, Note_on_c, 0, 65, 70
1, 93917, Note_on_c, 0, 68, 70
1, 93917, Note_on_c, 0, 74, 82
1, 93920, Note_on_c, 0, 51, 0
1, 93920, Note_on_c, 0, 39, 0
1, 93920, Note_on_c, 0, 41, 65
1, 93923, Control_c, 0, 64, 0
1, 93963, Control_c, 0, 64, 127
1, 93988, Note_on_c, 0, 53, 63
1, 94062, Note_on_c, 0, 53, 0
1, 94062, Note_on_c, 0, 41, 0
1, 94062, Note_on_c, 0, 41, 65
1, 94138, Note_on_c, 0, 53, 65
1, 94213, Note_on_c, 0, 74, 0
1, 94213, Note_on_c, 0, 68, 0
1, 94213, Note_on_c, 0, 65, 0
1, 94216, Note_on_c, 0, 63, 73
1, 94216, Note_on_c, 0, 67, 85
1, 94216, Note_on_c, 0, 72, 85
1, 94219, Note_on_c, 0, 53, 0
1, 94219, Note_on_c, 0, 41, 0
1, 94219, Note_on_c, 0, 43, 66
1, 94222, Control_c, 0, 64, 0
1, 94257, Control_c, 0, 64, 127
1, 94288, Note_on_c, 0, 55, 66
1, 94363, Note_on_c, 0, 55, 0
1, 94363, Note_on_c, 0, 43, 0
1, 94363, Note_on_c, 0, 43, 67
1, 94439, Note_on_c, 0, 55, 67
1, 94514, Note_on_c, 0, 67, 0
1, 94514, Note_on_c, 0, 66, 85
1, 94514, Note_on_c, 0, 55, 0
1, 94517, Note_on_c, 0, 43, 0
1, 94517, Note_on_c, 0, 44, 68
1, 94520, Control_c, 0, 64, 0
1, 94559, Control_c, 0, 64, 127
1, 94589, Note_on_c, 0, 56, 69
1, 94665, Note_on_c, 0, 56, 0
1, 94665, Note_on_c, 0, 44, 0
1, 94665, Note_on_c, 0, 44, 69
1, 94740, Note_on_c, 0, 56, 70
1, 94815, Note_on_c, 0, 66, 0
1, 94815, Note_on_c, 0, 69, 88
1, 94815, Note_on_c, 0, 56, 0
1, 94818, Note_on_c, 0, 44, 0
1, 94818, Note_on_c, 0, 42, 70
1, 94818, Control_c, 0, 64, 0
1, 94844, Control_c, 0, 64, 127
1, 94890, Note_on_c, 0, 54, 65
1, 94966, Note_on_c, 0, 54, 0
1, 94966, Note_on_c, 0, 42, 0
1, 94966, Note_on_c, 0, 42, 72
1, 95041, Note_on_c, 0, 54, 65
1, 95116, Note_on_c, 0, 69, 0
1, 95116, Note_on_c, 0, 72, 0
1, 95116, Note_on_c, 0, 63, 0
1, 95119, Note_on_c, 0, 62, 73
1, 95119, Note_on_c, 0, 65, 73
1, 95119, Note_on_c, 0, 71, 85
1, 95122, Note_on_c, 0, 54, 0
1, 95122, Note_on_c, 0, 42, 0
1, 95122, Note_on_c, 0, 43, 68
1, 95125, Control_c, 0, 64, 0
1, 95152, Control_c, 0, 64, 127
1, 95191, Note_on_c, 0, 55, 65
1, 95267, Note_on_c, 0, 55, 0
1, 95267, Note_on_c, 0, 43, 0
1, 95267, Note_on_c, 0, 43, 68
1, 95342, Note_on_c, 0, 55, 65
1, 95417, Note_on_c, 0, 71, 0
1, 95417, Note_on_c, 0, 65, 0
1, 95417, Note_on_c, 0, 62, 0
1, 95420, Note_on_c, 0, 60, 78
1, 95420, Note_on_c, 0, 63, 78
1, 95420, Note_on_c, 0, 72, 90
1, 95423, Note_on_c, 0, 55, 0
1, 95423, Note_on_c, 0, 43, 0
1, 95423, Note_on_c, 0, 36, 58
1, 95426, Control_c, 0, 64, 0
1, 95475, Note_on_c, 0, 72, 0
1, 95475, Note_on_c, 0, 63, 0
1, 95475, Note_on_c, 0, 60, 0
1, 95494, Note_on_c, 0, 48, 55
1, 95570, Note_on_c, 0, 60, 78
1, 95570, Note_on_c, 0, 48, 0
1, 95570, Note_on_c, 0, 36, 0
1, 95573, Control_c, 0, 64, 127
1, 95573, Note_on_c, 0, 36, 54
1, 95645, Note_on_c, 0, 48, 51
1, 95720, Note_on_c, 0, 48, 0
1, 95720, Note_on_c, 0, 36, 0
1, 95720, Note_on_c, 0, 36, 54
1, 95795, Note_on_c, 0, 48, 50
1, 95833, Control_c, 0, 64, 0
1, 95868, Note_on_c, 0, 60, 0
1, 95868, Note_on_c, 0, 58, 62
1, 95868, Note_on_c, 0, 64, 62
1, 95871, Note_on_c, 0, 48, 0
1, 95871, Note_on_c, 0, 36, 0
1, 95871, Note_on_c, 0, 36, 54
1, 95924, Note_on_c, 0, 64, 0
1, 95924, Note_on_c, 0, 58, 0
1, 95942, Note_on_c, 0, 48, 51
1, 96015, Note_on_c, 0, 56, 64
1, 96015, Note_on_c, 0, 65, 64
1, 96015, Note_on_c, 0, 48, 0
1, 96018, Note_on_c, 0, 36, 0
1, 96018, Note_on_c, 0, 36, 54
1, 96070, Note_on_c, 0, 65, 0
1, 96070, Note_on_c, 0, 56, 0
1, 96088, Note_on_c, 0, 48, 56
1, 96161, Note_on_c, 0, 64, 65
1, 96161, Note_on_c, 0, 67, 65
1, 96161, Note_on_c, 0, 48, 0
1, 96164, Note_on_c, 0, 36, 0
1, 96164, Note_on_c, 0, 36, 57
1, 96215, Note_on_c, 0, 67, 0
1, 96215, Note_on_c, 0, 64, 0
1, 96233, Note_on_c, 0, 48, 57
1, 96305, Note_on_c, 0, 65, 67
1, 96305, Note_on_c, 0, 68, 67
1, 96305, Note_on_c, 0, 48, 0
1, 96308, Note_on_c, 0, 36, 0
1, 96308, Note_on_c, 0, 36, 59
1, 96359, Note_on_c, 0, 68, 0
1, 96359, Note_on_c, 0, 65, 0
1, 96377, Note_on_c, 0, 48, 60
1, 96449, Note_on_c, 0, 62, 69
1, 96449, Note_on_c, 0, 71, 69
1, 96449, Note_on_c, 0, 48, 0
1, 96452, Note_on_c, 0, 36, 0
1, 96452, Note_on_c, 0, 36, 61
1, 96503, Note_on_c, 0, 71, 0
1, 96503, Note_on_c, 0, 62, 0
1, 96521, Note_on_c, 0, 48, 63
1, 96593, Note_on_c, 0, 63, 72
1, 96593, Note_on_c, 0, 72, 72
1, 96593, Note_on_c, 0, 48, 0
1, 96596, Note_on_c, 0, 36, 0
1, 96596, Note_on_c, 0, 36, 65
1, 96651, Note_on_c, 0, 72, 0
1, 96651, Note_on_c, 0, 63, 0
1, 96670, Note_on_c, 0, 48, 60
1, 96743, Control_c, 0, 64, 127
1, 96748, Note_on_c, 0, 64, 65
1, 96748, Note_on_c, 0, 72, 65
1, 96748, Note_on_c, 0, 48, 0
1, 96751, Note_on_c, 0, 36, 0
1, 96751, Note_on_c, 0, 36, 63
1, 96821, Note_on_c, 0, 48, 57
1, 96894, Note_on_c, 0, 48, 0
1, 96894, Note_on_c, 0, 36, 0
1, 96894, Note_on_c, 0, 36, 63
1, 96967, Note_on_c, 0, 48, 57
1, 97040, Note_on_c, 0, 72, 0
1, 97040, Note_on_c, 0, 64, 0
1, 97040, Note_on_c, 0, 70, 61
1, 97043, Note_on_c, 0, 76, 61
1, 97043, Note_on_c, 0, 48, 0
1, 97043, Note_on_c, 0, 36, 0
1, 97046, Control_c, 0, 64, 0
1, 97046, Note_on_c, 0, 36, 54
1, 97094, Note_on_c, 0, 76, 0
1, 97094, Note_on_c, 0, 70, 0
1, 97113, Note_on_c, 0, 48, 50
1, 97186, Note_on_c, 0, 68, 63
1, 97186, Note_on_c, 0, 77, 63
1, 97186, Note_on_c, 0, 48, 0
1, 97189, Note_on_c, 0, 36, 0
1, 97189, Note_on_c, 0, 36, 53
1, 97240, Note_on_c, 0, 77, 0
1, 97240, Note_on_c, 0, 68, 0
1, 97259, Note_on_c, 0, 48, 55
1, 97332, Note_on_c, 0, 76, 65
1, 97332, Note_on_c, 0, 79, 65
1, 97332, Note_on_c, 0, 48, 0
1, 97335, Note_on_c, 0, 36, 0
1, 97335, Note_on_c, 0, 36, 56
1, 97386, Note_on_c, 0, 79, 0
1, 97386, Note_on_c, 0, 76, 0
1, 97404, Note_on_c, 0, 48, 57
1, 97476, Note_on_c, 0, 77, 67
1, 97476, Note_on_c, 0, 80, 67
1, 97476, Note_on_c, 0, 48, 0
1, 97479, Note_on_c, 0, 36, 0
1, 97479, Note_on_c, 0, 36, 58
1, 97530, Note_on_c, 0, 80, 0
1, 97530, Note_on_c, 0, 77, 0
1, 97548, Note_on_c, 0, 48, 60
1, 97620, Note_on_c, 0, 74, 69
1, 97620, Note_on_c, 0, 83, 69
1, 97620, Note_on_c, 0, 48, 0
1, 97623, Note_on_c, 0, 36, 0
1, 97623, Note_on_c, 0, 36, 61
1, 97674, Note_on_c, 0, 83, 0
1, 97674, Note_on_c, 0, 74, 0
1, 97693, Note_on_c, 0, 48, 63
1, 97766, Note_on_c, 0, 72, 61
1, 97766, Note_on_c, 0, 79, 72
1, 97766, Note_on_c, 0, 75, 61
1, 97769, Note_on_c, 0, 84, 72
1, 97769, Note_on_c, 0, 48, 0
1, 97769, Note_on_c, 0, 36, 0
1, 97772, Note_on_c, 0, 36, 65
1, 97801, Control_c, 0, 64, 127
1, 97840, Note_on_c, 0, 48, 60
1, 97914, Note_on_c, 0, 48, 0
1, 97914, Note_on_c, 0, 36, 0
1, 97914, Note_on_c, 0, 36, 63
1, 97988, Note_on_c, 0, 48, 57
1, 98061, Note_on_c, 0, 84, 0
1, 98061, Note_on_c, 0, 72, 0
1, 98061, Note_on_c, 0, 79, 0
1, 98064, Note_on_c, 0, 75, 0
1, 98064, Note_on_c, 0, 67, 63
1, 98064, Note_on_c, 0, 71, 63
1, 98067, Note_on_c, 0, 77, 74
1, 98067, Note_on_c, 0, 79, 74
1, 98067, Note_on_c, 0, 48, 0
1, 98070, Note_on_c, 0, 36, 0
1, 98070, Note_on_c, 0, 38, 65
1, 98070, Control_c, 0, 64, 0
1, 98118, Control_c, 0, 64, 127
1, 98135, Note_on_c, 0, 50, 60
1, 98208, Note_on_c, 0, 50, 0
1, 98208, Note_on_c, 0, 38, 0
1, 98208, Note_on_c, 0, 38, 65
1, 98284, Note_on_c, 0, 50, 61
1, 98360, Note_on_c, 0, 79, 0
1, 98360, Note_on_c, 0, 67, 0
1, 98360, Note_on_c, 0, 71, 0
1, 98363, Note_on_c, 0, 77, 0
1, 98363, Note_on_c, 0, 67, 66
1, 98363, Note_on_c, 0, 72, 66
1, 98366, Note_on_c, 0, 75, 78
1, 98366, Note_on_c, 0, 50, 0
1, 98366, Note_on_c, 0, 38, 0
1, 98369, Note_on_c, 0, 39, 65
1, 98369, Control_c, 0, 64, 0
1, 98399, Control_c, 0, 64, 127
1, 98434, Note_on_c, 0, 51, 65
1, 98508, Note_on_c, 0, 51, 0
1, 98508, Note_on_c, 0, 39, 0
1, 98508, Note_on_c, 0, 39, 65
1, 98582, Note_on_c, 0, 51, 65
1, 98656, Note_on_c, 0, 75, 0
1, 98656, Note_on_c, 0, 72, 0
1, 98656, Note_on_c, 0, 67, 0
1, 98659, Note_on_c, 0, 65, 70
1, 98659, Note_on_c, 0, 68, 70
1, 98659, Note_on_c, 0, 74, 82
1, 98662, Note_on_c, 0, 51, 0
1, 98662, Note_on_c, 0, 39, 0
1, 98662, Note_on_c, 0, 41, 65
1, 98665, Control_c, 0, 64, 0
1, 98704, Control_c, 0, 64, 127
1, 98730, Note_on_c, 0, 53, 63
1, 98804, Note_on_c, 0, 53, 0
1, 98804, Note_on_c, 0, 41, 0
1, 98804, Note_on_c, 0, 41, 65
1, 98879, Note_on_c, 0, 53, 65
1, 98954, Note_on_c, 0, 74, 0
1, 98954, Note_on_c, 0, 68, 0
1, 98954, Note_on_c, 0, 65, 0
1, 98957, Note_on_c, 0, 63, 73
1, 98957, Note_on_c, 0, 67, 85
1, 98957, Note_on_c, 0, 72, 85
1, 98960, Note_on_c, 0, 53, 0
1, 98960, Note_on_c, 0, 41, 0
1, 98960, Note_on_c, 0, 43, 66
1, 98963, Control_c, 0, 64, 0
1, 98999, Control_c, 0, 64, 127
1, 99029, Note_on_c, 0, 55, 66
1, 99105, Note_on_c, 0, 55, 0
1, 99105, Note_on_c, 0, 43, 0
1, 99105, Note_on_c, 0, 43, 67
1, 99180, Note_on_c, 0, 55, 67
1, 99255, Note_on_c, 0, 67, 0
1, 99255, Note_on_c, 0, 66, 85
1, 99255, Note_on_c, 0, 55, 0
1, 99258, Note_on_c, 0, 43, 0
1, 99258, Note_on_c, 0, 44, 68
1, 99258, Control_c, 0, 64, 0
1, 99304, Control_c, 0, 64, 127
1, 99330, Note_on_c, 0, 56, 69
1, 99406, Note_on_c, 0, 56, 0
1, 99406, Note_on_c, 0, 44, 0
1, 99406, Note_on_c, 0, 44, 69
1, 99481, Note_on_c, 0, 56, 70
1, 99556, Note_on_c, 0, 66, 0
1, 99556, Note_on_c, 0, 69, 88
1, 99556, Note_on_c, 0, 56, 0
1, 99559, Note_on_c, 0, 44, 0
1, 99559, Note_on_c, 0, 42, 70
1, 99559, Control_c, 0, 64, 0
1, 99585, Control_c, 0, 64, 127
1, 99631, Note_on_c, 0, 54, 65
1, 99705, Note_on_c, 0, 54, 0
1, 99705, Note_on_c, 0, 42, 0
1, 99705, Note_on_c, 0, 42, 72
1, 99780, Note_on_c, 0, 54, 65
1, 99854, Note_on_c, 0, 54, 0
1, 99854, Note_on_c, 0, 42, 0
1, 99854, Note_on_c, 0, 42, 68
1, 99860, Control_c, 0, 64, 0
1, 99889, Control_c, 0, 64, 127
1, 99929, Note_on_c, 0, 54, 65
1, 100003, Note_on_c, 0, 54, 0
1, 100003, Note_on_c, 0, 42, 0
1, 100003, Note_on_c, 0, 42, 68
1, 100078, Note_on_c, 0, 54, 65
1, 100152, Note_on_c, 0, 69, 0
1, 100152, Note_on_c, 0, 72, 0
1, 100152, Note_on_c, 0, 63, 0
1, 100155, Note_on_c, 0, 62, 65
1, 100155, Note_on_c, 0, 67, 65
1, 100155, Note_on_c, 0, 71, 65
1, 100158, Note_on_c, 0, 54, 0
1, 100158, Note_on_c, 0, 42, 0
1, 100158, Note_on_c, 0, 43, 65
1, 100161, Note_on_c, 0, 55, 65
1, 100161, Control_c, 0, 64, 0
1, 100306, Note_on_c, 0, 71, 0
1, 100306, Note_on_c, 0, 67, 0
1, 100306, Note_on_c, 0, 62, 0
1, 100309, Note_on_c, 0, 55, 0
1, 100309, Note_on_c, 0, 43, 0
1, 100309, Note_on_c, 0, 62, 60
1, 100312, Note_on_c, 0, 59, 60
1, 100312, Control_c, 0, 64, 127
1, 100459, Note_on_c, 0, 67, 91
1, 100459, Note_on_c, 0, 79, 91
1, 100459, Note_on_c, 0, 59, 0
1, 100462, Note_on_c, 0, 62, 0
1, 100462, Note_on_c, 0, 62, 60
1, 100462, Note_on_c, 0, 59, 60
1, 100608, Note_on_c, 0, 59, 0
1, 100608, Note_on_c, 0, 62, 0
1, 100608, Note_on_c, 0, 59, 60
1, 100611, Note_on_c, 0, 62, 60
1, 100757, Note_on_c, 0, 62, 0
1, 100757, Note_on_c, 0, 59, 0
1, 100757, Note_on_c, 0, 55, 60
1, 100762, Control_c, 0, 64, 0
1, 100824, Control_c, 0, 64, 127
1, 100906, Note_on_c, 0, 79, 0
1, 100906, Note_on_c, 0, 67, 0
1, 100906, Note_on_c, 0, 55, 0
1, 100909, Note_on_c, 0, 63, 60
1, 100909, Note_on_c, 0, 60, 60
1, 101055, Note_on_c, 0, 67, 91
1, 101055, Note_on_c, 0, 79, 91
1, 101055, Note_on_c, 0, 60, 0
1, 101058, Note_on_c, 0, 63, 0
1, 101058, Note_on_c, 0, 63, 60
1, 101058, Note_on_c, 0, 60, 60
1, 101204, Note_on_c, 0, 60, 0
1, 101204, Note_on_c, 0, 63, 0
1, 101204, Note_on_c, 0, 63, 60
1, 101207, Note_on_c, 0, 60, 60
1, 101353, Note_on_c, 0, 60, 0
1, 101353, Note_on_c, 0, 63, 0
1, 101353, Note_on_c, 0, 65, 60
1, 101356, Note_on_c, 0, 62, 60
1, 101356, Control_c, 0, 64, 0
1, 101426, Note_on_c, 0, 79, 0
1, 101426, Note_on_c, 0, 67, 0
1, 101426, Note_on_c, 0, 77, 81
1, 101498, Note_on_c, 0, 77, 0
1, 101498, Note_on_c, 0, 74, 80
1, 101498, Note_on_c, 0, 62, 0
1, 101501, Note_on_c, 0, 65, 0
1, 101570, Note_on_c, 0, 74, 0
1, 101570, Note_on_c, 0, 71, 80
1, 101642, Note_on_c, 0, 71, 0
1, 101642, Note_on_c, 0, 67, 79
1, 101715, Note_on_c, 0, 67, 0
1, 101715, Note_on_c, 0, 65, 78
1, 101787, Note_on_c, 0, 65, 0
1, 101787, Note_on_c, 0, 62, 77
1, 101859, Note_on_c, 0, 62, 0
1, 101859, Note_on_c, 0, 59, 76
1, 101931, Note_on_c, 0, 59, 0
1, 101931, Note_on_c, 0, 60, 76
1, 102003, Note_on_c, 0, 60, 0
1, 102003, Note_on_c, 0, 63, 75
1, 102076, Note_on_c, 0, 63, 0
1, 102076, Note_on_c, 0, 60, 76
1, 102149, Note_on_c, 0, 60, 0
1, 102149, Note_on_c, 0, 55, 76
1, 102222, Note_on_c, 0, 55, 0
1, 102222, Note_on_c, 0, 54, 75
1, 102222, Note_on_c, 0, 32, 65
1, 102296, Note_on_c, 0, 54, 0
1, 102296, Note_on_c, 0, 60, 75
1, 102296, Note_on_c, 0, 32, 0
1, 102299, Note_on_c, 0, 44, 65
1, 102370, Note_on_c, 0, 60, 0
1, 102370, Note_on_c, 0, 56, 74
1, 102370, Note_on_c, 0, 44, 0
1, 102373, Note_on_c, 0, 32, 65
1, 102444, Note_on_c, 0, 56, 0
1, 102444, Note_on_c, 0, 54, 76
1, 102444, Note_on_c, 0, 32, 0
1, 102447, Note_on_c, 0, 44, 65
1, 102519, Note_on_c, 0, 54, 0
1, 102519, Note_on_c, 0, 55, 78
1, 102519, Note_on_c, 0, 44, 0
1, 102522, Note_on_c, 0, 31, 60
1, 102522, Note_on_c, 0, 43, 60
1, 102585, Control_c, 0, 64, 127
1, 102672, Note_on_c, 0, 55, 0
1, 102672, Note_on_c, 0, 43, 0
1, 102672, Note_on_c, 0, 31, 0
1, 102675, Note_on_c, 0, 62, 60
1, 102675, Note_on_c, 0, 59, 60
1, 102826, Note_on_c, 0, 67, 91
1, 102826, Note_on_c, 0, 79, 91
1, 102826, Note_on_c, 0, 59, 0
1, 102829, Note_on_c, 0, 62, 0
1, 102829, Note_on_c, 0, 62, 60
1, 102829, Note_on_c, 0, 59, 60
1, 102975, Note_on_c, 0, 59, 0
1, 102975, Note_on_c, 0, 62, 0
1, 102975, Note_on_c, 0, 59, 60
1, 102978, Note_on_c, 0, 62, 60
1, 103124, Note_on_c, 0, 62, 0
1, 103124, Note_on_c, 0, 59, 0
1, 103124, Note_on_c, 0, 55, 60
1, 103128, Control_c, 0, 64, 0
1, 103190, Control_c, 0, 64, 127
1, 103273, Note_on_c, 0, 79, 0
1, 103273, Note_on_c, 0, 67, 0
1, 103273, Note_on_c, 0, 55, 0
1, 103276, Note_on_c, 0, 63, 60
1, 103276, Note_on_c, 0, 60, 60
1, 103422, Note_on_c, 0, 67, 91
1, 103422, Note_on_c, 0, 79, 91
1, 103422, Note_on_c, 0, 60, 0
1, 103425, Note_on_c, 0, 63, 0
1, 103425, Note_on_c, 0, 63, 60
1, 103425, Note_on_c, 0, 60, 60
1, 103571, Note_on_c, 0, 60, 0
1, 103571, Note_on_c, 0, 63, 0
1, 103571, Note_on_c, 0, 63, 60
1, 103574, Note_on_c, 0, 60, 60
1, 103720, Note_on_c, 0, 60, 0
1, 103720, Note_on_c, 0, 63, 0
1, 103720, Note_on_c, 0, 65, 60
1, 103723, Note_on_c, 0, 62, 60
1, 103723, Control_c, 0, 64, 0
1, 103792, Note_on_c, 0, 79, 0
1, 103792, Note_on_c, 0, 67, 0
1, 103792, Note_on_c, 0, 77, 83
1, 103863, Note_on_c, 0, 77, 0
1, 103863, Note_on_c, 0, 74, 82
1, 103863, Note_on_c, 0, 62, 0
1, 103866, Note_on_c, 0, 65, 0
1, 103935, Note_on_c, 0, 74, 0
1, 103935, Note_on_c, 0, 71, 81
1, 104007, Note_on_c, 0, 71, 0
1, 104007, Note_on_c, 0, 67, 80
1, 104079, Note_on_c, 0, 67, 0
1, 104079, Note_on_c, 0, 65, 79
1, 104150, Note_on_c, 0, 65, 0
1, 104150, Note_on_c, 0, 62, 78
1, 104222, Note_on_c, 0, 62, 0
1, 104222, Note_on_c, 0, 59, 77
1, 104294, Note_on_c, 0, 59, 0
1, 104294, Note_on_c, 0, 60, 76
1, 104365, Note_on_c, 0, 60, 0
1, 104365, Note_on_c, 0, 63, 75
1, 104437, Note_on_c, 0, 63, 0
1, 104437, Note_on_c, 0, 60, 75
1, 104510, Note_on_c, 0, 60, 0
1, 104510, Note_on_c, 0, 55, 78
1, 104583, Note_on_c, 0, 55, 0
1, 104583, Note_on_c, 0, 54, 77
1, 104583, Note_on_c, 0, 32, 65
1, 104656, Note_on_c, 0, 54, 0
1, 104656, Note_on_c, 0, 60, 75
1, 104656, Note_on_c, 0, 44, 65
1, 104730, Note_on_c, 0, 60, 0
1, 104730, Note_on_c, 0, 56, 73
1, 104730, Note_on_c, 0, 44, 0
1, 104733, Note_on_c, 0, 32, 0
1, 104733, Note_on_c, 0, 32, 65
1, 104804, Note_on_c, 0, 56, 0
1, 104804, Note_on_c, 0, 54, 70
1, 104804, Note_on_c, 0, 44, 59
1, 104878, Note_on_c, 0, 54, 0
1, 104878, Note_on_c, 0, 55, 78
1, 104878, Note_on_c, 0, 44, 0
1, 104881, Note_on_c, 0, 32, 0
1, 104881, Note_on_c, 0, 31, 60
1, 104953, Note_on_c, 0, 43, 61
1, 105028, Note_on_c, 0, 55, 0
1, 105028, Note_on_c, 0, 66, 78
1, 105028, Note_on_c, 0, 43, 0
1, 105031, Note_on_c, 0, 31, 0
1, 105031, Note_on_c, 0, 31, 61
1, 105083, Note_on_c, 0, 66, 0
1, 105101, Note_on_c, 0, 43, 62
1, 105175, Note_on_c, 0, 67, 80
1, 105175, Note_on_c, 0, 43, 0
1, 105175, Note_on_c, 0, 31, 0
1, 105178, Note_on_c, 0, 31, 63
1, 105229, Note_on_c, 0, 67, 0
1, 105247, Note_on_c, 0, 43, 64
1, 105319, Note_on_c, 0, 66, 82
1, 105319, Note_on_c, 0, 72, 82
1, 105319, Note_on_c, 0, 43, 0
1, 105322, Note_on_c, 0, 31, 0
1, 105322, Note_on_c, 0, 31, 65
1, 105373, Note_on_c, 0, 72, 0
1, 105373, Note_on_c, 0, 66, 0
1, 105391, Note_on_c, 0, 43, 66
1, 105463, Note_on_c, 0, 67, 84
1, 105463, Note_on_c, 0, 71, 84
1, 105463, Note_on_c, 0, 43, 0
1, 105466, Note_on_c, 0, 31, 0
1, 105466, Note_on_c, 0, 31, 67
1, 105517, Note_on_c, 0, 71, 0
1, 105517, Note_on_c, 0, 67, 0
1, 105535, Note_on_c, 0, 43, 68
1, 105607, Note_on_c, 0, 72, 86
1, 105607, Note_on_c, 0, 78, 86
1, 105607, Note_on_c, 0, 43, 0
1, 105610, Note_on_c, 0, 31, 0
1, 105610, Note_on_c, 0, 31, 69
1, 105661, Note_on_c, 0, 78, 0
1, 105661, Note_on_c, 0, 72, 0
1, 105679, Note_on_c, 0, 43, 70
1, 105751, Note_on_c, 0, 71, 88
1, 105751, Note_on_c, 0, 79, 88
1, 105751, Note_on_c, 0, 43, 0
1, 105754, Note_on_c, 0, 31, 0
1, 105754, Note_on_c, 0, 31, 72
1, 105805, Note_on_c, 0, 79, 0
1, 105805, Note_on_c, 0, 71, 0
1, 105823, Note_on_c, 0, 43, 72
1, 105895, Note_on_c, 0, 84, 90
1, 105895, Note_on_c, 0, 78, 90
1, 105895, Note_on_c, 0, 43, 0
1, 105898, Note_on_c, 0, 31, 0
1, 105898, Note_on_c, 0, 31, 73
1, 105949, Note_on_c, 0, 78, 0
1, 105949, Note_on_c, 0, 84, 0
1, 105967, Note_on_c, 0, 43, 74
1, 106039, Note_on_c, 0, 83, 92
1, 106039, Note_on_c, 0, 79, 92
1, 106039, Note_on_c, 0, 43, 0
1, 106042, Note_on_c, 0, 31, 0
1, 106042, Note_on_c, 0, 31, 75
1, 106112, Note_on_c, 0, 79, 0
1, 106112, Note_on_c, 0, 83, 0
1, 106112, Note_on_c, 0, 43, 65
1, 106185, Note_on_c, 0, 43, 0
1, 106185, Note_on_c, 0, 31, 0
1, 106185, Note_on_c, 0, 31, 72
1, 106258, Note_on_c, 0, 43, 65
1, 106331, Note_on_c, 0, 43, 0
1, 106331, Note_on_c, 0, 31, 0
1, 106331, Note_on_c, 0, 31, 72
1, 106405, Note_on_c, 0, 43, 65
1, 106478, Note_on_c, 0, 43, 0
1, 106478, Note_on_c, 0, 31, 0
1, 106478, Note_on_c, 0, 31, 70
1, 106551, Note_on_c, 0, 43, 65
1, 106624, Note_on_c, 0, 58, 92
1, 106624, Note_on_c, 0, 61, 92
1, 106624, Note_on_c, 0, 63, 95
1, 106627, Note_on_c, 0, 43, 0
1, 106627, Note_on_c, 0, 31, 0
1, 106627, Note_on_c, 0, 31, 75
1, 106698, Note_on_c, 0, 43, 65
1, 106772, Note_on_c, 0, 43, 0
1, 106772, Note_on_c, 0, 31, 0
1, 106772, Note_on_c, 0, 31, 72
1, 106845, Note_on_c, 0, 43, 65
1, 106919, Note_on_c, 0, 43, 0
1, 106919, Note_on_c, 0, 31, 0
1, 106919, Note_on_c, 0, 31, 72
1, 106993, Note_on_c, 0, 43, 65
1, 107066, Note_on_c, 0, 43, 0
1, 107066, Note_on_c, 0, 31, 0
1, 107066, Note_on_c, 0, 31, 70
1, 107140, Note_on_c, 0, 43, 65
1, 107214, Note_on_c, 0, 61, 0
1, 107214, Note_on_c, 0, 58, 0
1, 107214, Note_on_c, 0, 60, 78
1, 107217, Note_on_c, 0, 43, 0
1, 107217, Note_on_c, 0, 31, 0
1, 107217, Note_on_c, 0, 32, 60
1, 107291, Note_on_c, 0, 44, 61
1, 107368, Note_on_c, 0, 60, 0
1, 107368, Note_on_c, 0, 63, 0
1, 107368, Note_on_c, 0, 73, 78
1, 107371, Note_on_c, 0, 44, 0
1, 107371, Note_on_c, 0, 32, 0
1, 107371, Note_on_c, 0, 32, 61
1, 107423, Note_on_c, 0, 73, 0
1, 107441, Note_on_c, 0, 44, 62
1, 107514, Note_on_c, 0, 72, 80
1, 107514, Note_on_c, 0, 44, 0
1, 107514, Note_on_c, 0, 32, 0
1, 107517, Note_on_c, 0, 32, 63
1, 107568, Note_on_c, 0, 72, 0
1, 107586, Note_on_c, 0, 44, 64
1, 107658, Note_on_c, 0, 73, 82
1, 107658, Note_on_c, 0, 79, 82
1, 107658, Note_on_c, 0, 44, 0
1, 107661, Note_on_c, 0, 32, 0
1, 107661, Note_on_c, 0, 32, 65
1, 107712, Note_on_c, 0, 79, 0
1, 107712, Note_on_c, 0, 73, 0
1, 107730, Note_on_c, 0, 44, 66
1, 107802, Note_on_c, 0, 72, 84
1, 107802, Note_on_c, 0, 80, 84
1, 107802, Note_on_c, 0, 44, 0
1, 107805, Note_on_c, 0, 32, 0
1, 107805, Note_on_c, 0, 32, 67
1, 107856, Note_on_c, 0, 80, 0
1, 107856, Note_on_c, 0, 72, 0
1, 107874, Note_on_c, 0, 44, 68
1, 107946, Note_on_c, 0, 79, 86
1, 107946, Note_on_c, 0, 85, 86
1, 107946, Note_on_c, 0, 44, 0
1, 107949, Note_on_c, 0, 32, 0
1, 107949, Note_on_c, 0, 32, 69
1, 108000, Note_on_c, 0, 85, 0
1, 108000, Note_on_c, 0, 79, 0
1, 108018, Note_on_c, 0, 44, 70
1, 108090, Note_on_c, 0, 80, 88
1, 108090, Note_on_c, 0, 84, 88
1, 108090, Note_on_c, 0, 44, 0
1, 108093, Note_on_c, 0, 32, 0
1, 108093, Note_on_c, 0, 32, 72
1, 108144, Note_on_c, 0, 84, 0
1, 108144, Note_on_c, 0, 80, 0
1, 108162, Note_on_c, 0, 44, 72
1, 108234, Note_on_c, 0, 85, 90
1, 108234, Note_on_c, 0, 79, 90
1, 108234, Note_on_c, 0, 44, 0
1, 108237, Note_on_c, 0, 32, 0
1, 108237, Note_on_c, 0, 32, 73
1, 108288, Note_on_c, 0, 79, 0
1, 108288, Note_on_c, 0, 85, 0
1, 108306, Note_on_c, 0, 44, 74
1, 108378, Note_on_c, 0, 84, 92
1, 108378, Note_on_c, 0, 80, 92
1, 108378, Note_on_c, 0, 44, 0
1, 108381, Note_on_c, 0, 32, 0
1, 108381, Note_on_c, 0, 32, 75
1, 108451, Note_on_c, 0, 80, 0
1, 108451, Note_on_c, 0, 84, 0
1, 108451, Note_on_c, 0, 44, 65
1, 108524, Note_on_c, 0, 44, 0
1, 108524, Note_on_c, 0, 32, 0
1, 108524, Note_on_c, 0, 32, 72
1, 108598, Note_on_c, 0, 44, 65
1, 108671, Note_on_c, 0, 44, 0
1, 108671, Note_on_c, 0, 32, 0
1, 108671, Note_on_c, 0, 32, 72
1, 108744, Note_on_c, 0, 44, 65
1, 108817, Note_on_c, 0, 44, 0
1, 108817, Note_on_c, 0, 32, 0
1, 108817, Note_on_c, 0, 32, 70
1, 108890, Note_on_c, 0, 44, 65
1, 108963, Note_on_c, 0, 60, 92
1, 108963, Note_on_c, 0, 63, 92
1, 108963, Note_on_c, 0, 66, 95
1, 108966, Note_on_c, 0, 44, 0
1, 108966, Note_on_c, 0, 32, 0
1, 108966, Note_on_c, 0, 33, 75
1, 109037, Note_on_c, 0, 45, 65
1, 109111, Note_on_c, 0, 45, 0
1, 109111, Note_on_c, 0, 33, 0
1, 109111, Note_on_c, 0, 33, 72
1, 109185, Note_on_c, 0, 45, 65
1, 109258, Note_on_c, 0, 45, 0
1, 109258, Note_on_c, 0, 33, 0
1, 109258, Note_on_c, 0, 33, 72
1, 109332, Note_on_c, 0, 45, 65
1, 109406, Note_on_c, 0, 45, 0
1, 109406, Note_on_c, 0, 33, 0
1, 109406, Note_on_c, 0, 33, 70
1, 109480, Note_on_c, 0, 45, 65
1, 109553, Note_on_c, 0, 66, 0
1, 109553, Note_on_c, 0, 63, 0
1, 109553, Note_on_c, 0, 60, 0
1, 109556, Note_on_c, 0, 62, 78
1, 109556, Note_on_c, 0, 65, 78
1, 109556, Note_on_c, 0, 45, 0
1, 109559, Note_on_c, 0, 33, 0
1, 109559, Note_on_c, 0, 34, 60
1, 109630, Note_on_c, 0, 46, 61
1, 109707, Note_on_c, 0, 65, 0
1, 109707, Note_on_c, 0, 62, 0
1, 109707, Note_on_c, 0, 69, 73
1, 109710, Note_on_c, 0, 75, 78
1, 109710, Note_on_c, 0, 46, 0
1, 109710, Note_on_c, 0, 34, 0
1, 109713, Note_on_c, 0, 34, 61
1, 109761, Note_on_c, 0, 75, 0
1, 109761, Note_on_c, 0, 69, 0
1, 109779, Note_on_c, 0, 46, 62
1, 109851, Note_on_c, 0, 70, 76
1, 109851, Note_on_c, 0, 74, 80
1, 109851, Note_on_c, 0, 46, 0
1, 109854, Note_on_c, 0, 34, 0
1, 109854, Note_on_c, 0, 34, 63
1, 109905, Note_on_c, 0, 74, 0
1, 109905, Note_on_c, 0, 70, 0
1, 109923, Note_on_c, 0, 46, 64
1, 109995, Note_on_c, 0, 75, 82
1, 109995, Note_on_c, 0, 81, 82
1, 109995, Note_on_c, 0, 46, 0
1, 109998, Note_on_c, 0, 34, 0
1, 109998, Note_on_c, 0, 34, 65
1, 110048, Note_on_c, 0, 81, 0
1, 110048, Note_on_c, 0, 75, 0
1, 110066, Note_on_c, 0, 46, 66
1, 110138, Note_on_c, 0, 74, 84
1, 110138, Note_on_c, 0, 82, 84
1, 110138, Note_on_c, 0, 46, 0
1, 110141, Note_on_c, 0, 34, 0
1, 110141, Note_on_c, 0, 34, 67
1, 110192, Note_on_c, 0, 82, 0
1, 110192, Note_on_c, 0, 74, 0
1, 110210, Note_on_c, 0, 46, 68
1, 110282, Note_on_c, 0, 81, 86
1, 110282, Note_on_c, 0, 87, 86
1, 110282, Note_on_c, 0, 46, 0
1, 110285, Note_on_c, 0, 34, 0
1, 110285, Note_on_c, 0, 34, 69
1, 110335, Note_on_c, 0, 87, 0
1, 110335, Note_on_c, 0, 81, 0
1, 110353, Note_on_c, 0, 46, 70
1, 110425, Note_on_c, 0, 82, 88
1, 110425, Note_on_c, 0, 86, 88
1, 110425, Note_on_c, 0, 46, 0
1, 110428, Note_on_c, 0, 34, 0
1, 110428, Note_on_c, 0, 34, 72
1, 110479, Note_on_c, 0, 86, 0
1, 110479, Note_on_c, 0, 82, 0
1, 110497, Note_on_c, 0, 46, 72
1, 110569, Note_on_c, 0, 87, 90
1, 110569, Note_on_c, 0, 81, 90
1, 110569, Note_on_c, 0, 46, 0
1, 110572, Note_on_c, 0, 34, 0
1, 110572, Note_on_c, 0, 34, 73
1, 110623, Note_on_c, 0, 81, 0
1, 110623, Note_on_c, 0, 87, 0
1, 110640, Note_on_c, 0, 46, 74
1, 110712, Note_on_c, 0, 86, 92
1, 110712, Note_on_c, 0, 82, 92
1, 110712, Note_on_c, 0, 46, 0
1, 110715, Note_on_c, 0, 34, 0
1, 110715, Note_on_c, 0, 34, 75
1, 110785, Note_on_c, 0, 82, 0
1, 110785, Note_on_c, 0, 86, 0
1, 110785, Note_on_c, 0, 46, 65
1, 110859, Note_on_c, 0, 46, 0
1, 110859, Note_on_c, 0, 34, 0
1, 110859, Note_on_c, 0, 34, 72
1, 110932, Note_on_c, 0, 46, 65
1, 111005, Note_on_c, 0, 75, 92
1, 111005, Note_on_c, 0, 81, 92
1, 111005, Note_on_c, 0, 46, 0
1, 111008, Note_on_c, 0, 34, 0
1, 111008, Note_on_c, 0, 34, 72
1, 111077, Note_on_c, 0, 46, 65
1, 111149, Note_on_c, 0, 46, 0
1, 111149, Note_on_c, 0, 34, 0
1, 111149, Note_on_c, 0, 34, 70
1, 111222, Note_on_c, 0, 46, 65
1, 111294, Note_on_c, 0, 81, 0
1, 111294, Note_on_c, 0, 75, 0
1, 111294, Note_on_c, 0, 74, 92
1, 111297, Note_on_c, 0, 82, 92
1, 111297, Note_on_c, 0, 46, 0
1, 111297, Note_on_c, 0, 34, 0
1, 111300, Note_on_c, 0, 34, 75
1, 111367, Note_on_c, 0, 46, 65
1, 111440, Note_on_c, 0, 82, 0
1, 111440, Note_on_c, 0, 74, 0
1, 111440, Note_on_c, 0, 46, 0
1, 111443, Note_on_c, 0, 34, 0
1, 111443, Note_on_c, 0, 34, 72
1, 111513, Note_on_c, 0, 46, 65
1, 111586, Note_on_c, 0, 69, 92
1, 111586, Note_on_c, 0, 75, 92
1, 111586, Note_on_c, 0, 46, 0
1, 111589, Note_on_c, 0, 34, 0
1, 111589, Note_on_c, 0, 34, 72
1, 111658, Note_on_c, 0, 46, 65
1, 111730, Note_on_c, 0, 46, 0
1, 111730, Note_on_c, 0, 34, 0
1, 111730, Note_on_c, 0, 34, 70
1, 111802, Note_on_c, 0, 46, 65
1, 111874, Note_on_c, 0, 75, 0
1, 111874, Note_on_c, 0, 69, 0
1, 111874, Note_on_c, 0, 70, 92
1, 111877, Note_on_c, 0, 74, 92
1, 111877, Note_on_c, 0, 46, 0
1, 111877, Note_on_c, 0, 34, 0
1, 111880, Note_on_c, 0, 34, 75
1, 111948, Note_on_c, 0, 46, 65
1, 112021, Note_on_c, 0, 74, 0
1, 112021, Note_on_c, 0, 70, 0
1, 112021, Note_on_c, 0, 46, 0
1, 112024, Note_on_c, 0, 34, 0
1, 112024, Note_on_c, 0, 34, 72
1, 112094, Note_on_c, 0, 46, 65
1, 112167, Note_on_c, 0, 63, 92
1, 112167, Note_on_c, 0, 69, 92
1, 112167, Note_on_c, 0, 46, 0
1, 112170, Note_on_c, 0, 34, 0
1, 112170, Note_on_c, 0, 34, 72
1, 112240, Note_on_c, 0, 46, 65
1, 112312, Note_on_c, 0, 46, 0
1, 112312, Note_on_c, 0, 34, 0
1, 112312, Note_on_c, 0, 34, 70
1, 112384, Note_on_c, 0, 46, 65
1, 112457, Note_on_c, 0, 69, 0
1, 112457, Note_on_c, 0, 63, 0
1, 112457, Note_on_c, 0, 62, 92
1, 112460, Note_on_c, 0, 70, 92
1, 112460, Note_on_c, 0, 46, 0
1, 112460, Note_on_c, 0, 34, 0
1, 112463, Note_on_c, 0, 34, 75
1, 112530, Note_on_c, 0, 46, 65
1, 112603, Note_on_c, 0, 70, 0
1, 112603, Note_on_c, 0, 62, 0
1, 112603, Note_on_c, 0, 46, 0
1, 112606, Note_on_c, 0, 34, 0
1, 112606, Note_on_c, 0, 34, 72
1, 112676, Note_on_c, 0, 46, 65
1, 112749, Note_on_c, 0, 57, 92
1, 112749, Note_on_c, 0, 63, 92
1, 112749, Note_on_c, 0, 46, 0
1, 112752, Note_on_c, 0, 34, 0
1, 112752, Note_on_c, 0, 34, 72
1, 112822, Note_on_c, 0, 46, 65
1, 112895, Note_on_c, 0, 46, 0
1, 112895, Note_on_c, 0, 34, 0
1, 112895, Note_on_c, 0, 34, 70
1, 112968, Note_on_c, 0, 46, 65
1, 113040, Note_on_c, 0, 63, 0
1, 113040, Note_on_c, 0, 57, 0
1, 113040, Note_on_c, 0, 58, 92
1, 113043, Note_on_c, 0, 62, 92
1, 113043, Note_on_c, 0, 46, 0
1, 113043, Note_on_c, 0, 34, 0
1, 113046, Note_on_c, 0, 46, 65
1, 113046, Note_on_c, 0, 34, 75
1, 113192, Note_on_c, 0, 62, 0
1, 113192, Note_on_c, 0, 58, 0
1, 113192, Note_on_c, 0, 57, 60
1, 113195, Note_on_c, 0, 34, 0
1, 113195, Note_on_c, 0, 46, 0
1, 113343, Note_on_c, 0, 57, 0
1, 113343, Note_on_c, 0, 58, 69
1, 113494, Note_on_c, 0, 58, 0
1, 113494, Note_on_c, 0, 57, 66
1, 113646, Note_on_c, 0, 57, 0
1, 113646, Note_on_c, 0, 58, 67
1, 113797, Note_on_c, 0, 58, 0
1, 113797, Note_on_c, 0, 57, 59
1, 113948, Note_on_c, 0, 57, 0
1, 113948, Note_on_c, 0, 58, 67
1, 114099, Note_on_c, 0, 58, 0
1, 114099, Note_on_c, 0, 57, 61
1, 114251, Note_on_c, 0, 57, 0
1, 114251, Note_on_c, 0, 58, 54
1, 114404, Note_on_c, 0, 46, 65
1, 114404, Note_on_c, 0, 63, 48
1, 114404, Note_on_c, 0, 66, 48
1, 114479, Note_on_c, 0, 46, 0
1, 114555, Note_on_c, 0, 51, 68
1, 114555, Note_on_c, 0, 66, 0
1, 114555, Note_on_c, 0, 63, 0
1, 114558, Note_on_c, 0, 63, 48
1, 114558, Note_on_c, 0, 66, 48
1, 114628, Note_on_c, 0, 51, 0
1, 114701, Note_on_c, 0, 53, 72
1, 114701, Note_on_c, 0, 66, 0
1, 114701, Note_on_c, 0, 63, 0
1, 114704, Note_on_c, 0, 63, 48
1, 114704, Note_on_c, 0, 66, 48
1, 114774, Note_on_c, 0, 53, 0
1, 114847, Note_on_c, 0, 54, 75
1, 114847, Note_on_c, 0, 66, 0
1, 114847, Note_on_c, 0, 63, 0
1, 114850, Note_on_c, 0, 58, 0
1, 114850, Note_on_c, 0, 58, 54
1, 114924, Note_on_c, 0, 54, 0
1, 115000, Note_on_c, 0, 70, 73
1, 115000, Note_on_c, 0, 63, 48
1, 115000, Note_on_c, 0, 66, 48
1, 115077, Note_on_c, 0, 70, 0
1, 115153, Note_on_c, 0, 75, 75
1, 115153, Note_on_c, 0, 66, 0
1, 115153, Note_on_c, 0, 63, 0
1, 115156, Note_on_c, 0, 63, 48
1, 115156, Note_on_c, 0, 66, 48
1, 115228, Note_on_c, 0, 75, 0
1, 115302, Note_on_c, 0, 77, 77
1, 115302, Note_on_c, 0, 66, 0
1, 115302, Note_on_c, 0, 63, 0
1, 115305, Note_on_c, 0, 63, 48
1, 115305, Note_on_c, 0, 66, 48
1, 115377, Note_on_c, 0, 77, 0
1, 115414, Note_on_c, 0, 70, 76
1, 115452, Note_on_c, 0, 70, 0
1, 115452, Note_on_c, 0, 78, 86
1, 115452, Note_on_c, 0, 66, 0
1, 115455, Note_on_c, 0, 63, 0
1, 115455, Note_on_c, 0, 58, 0
1, 115455, Note_on_c, 0, 58, 54
1, 115603, Note_on_c, 0, 63, 48
1, 115603, Note_on_c, 0, 66, 48
1, 115753, Note_on_c, 0, 66, 0
1, 115753, Note_on_c, 0, 63, 0
1, 115753, Note_on_c, 0, 63, 48
1, 115756, Note_on_c, 0, 66, 48
1, 115903, Note_on_c, 0, 78, 0
1, 115903, Note_on_c, 0, 75, 74
1, 115903, Note_on_c, 0, 66, 0
1, 115906, Note_on_c, 0, 63, 0
1, 115906, Note_on_c, 0, 63, 48
1, 115906, Note_on_c, 0, 66, 48
1, 116017, Note_on_c, 0, 70, 70
1, 116055, Note_on_c, 0, 70, 0
1, 116055, Note_on_c, 0, 75, 0
1, 116055, Note_on_c, 0, 78, 82
1, 116058, Note_on_c, 0, 66, 0
1, 116058, Note_on_c, 0, 63, 0
1, 116058, Note_on_c, 0, 58, 0
1, 116061, Note_on_c, 0, 58, 54
1, 116207, Note_on_c, 0, 63, 48
1, 116207, Note_on_c, 0, 66, 48
1, 116357, Note_on_c, 0, 66, 0
1, 116357, Note_on_c, 0, 63, 0
1, 116357, Note_on_c, 0, 63, 48
1, 116360, Note_on_c, 0, 66, 48
1, 116507, Note_on_c, 0, 78, 0
1, 116507, Note_on_c, 0, 75, 68
1, 116507, Note_on_c, 0, 66, 0
1, 116510, Note_on_c, 0, 63, 0
1, 116510, Note_on_c, 0, 63, 48
1, 116510, Note_on_c, 0, 66, 48
1, 116658, Note_on_c, 0, 75, 0
1, 116658, Note_on_c, 0, 74, 70
1, 116658, Note_on_c, 0, 66, 0
1, 116661, Note_on_c, 0, 63, 0
1, 116661, Note_on_c, 0, 58, 0
1, 116661, Note_on_c, 0, 58, 54
1, 116814, Note_on_c, 0, 74, 0
1, 116814, Note_on_c, 0, 46, 67
1, 116814, Note_on_c, 0, 65, 48
1, 116817, Note_on_c, 0, 68, 48
1, 116889, Note_on_c, 0, 46, 0
1, 116964, Note_on_c, 0, 53, 70
1, 116964, Note_on_c, 0, 68, 0
1, 116964, Note_on_c, 0, 65, 0
1, 116967, Note_on_c, 0, 65, 48
1, 116967, Note_on_c, 0, 68, 48
1, 117037, Note_on_c, 0, 53, 0
1, 117110, Note_on_c, 0, 54, 74
1, 117110, Note_on_c, 0, 68, 0
1, 117110, Note_on_c, 0, 65, 0
1, 117113, Note_on_c, 0, 65, 48
1, 117113, Note_on_c, 0, 68, 48
1, 117183, Note_on_c, 0, 54, 0
1, 117256, Note_on_c, 0, 56, 77
1, 117256, Note_on_c, 0, 68, 0
1, 117256, Note_on_c, 0, 65, 0
1, 117259, Note_on_c, 0, 58, 0
1, 117259, Note_on_c, 0, 58, 54
1, 117333, Note_on_c, 0, 56, 0
1, 117409, Note_on_c, 0, 70, 69
1, 117409, Note_on_c, 0, 65, 48
1, 117409, Note_on_c, 0, 68, 48
1, 117562, Note_on_c, 0, 70, 0
1, 117562, Note_on_c, 0, 80, 73
1, 117562, Note_on_c, 0, 68, 0
1, 117565, Note_on_c, 0, 65, 0
1, 117565, Note_on_c, 0, 65, 48
1, 117565, Note_on_c, 0, 68, 48
1, 117712, Note_on_c, 0, 80, 0
1, 117712, Note_on_c, 0, 78, 76
1, 117712, Note_on_c, 0, 68, 0
1, 117715, Note_on_c, 0, 65, 0
1, 117715, Note_on_c, 0, 65, 48
1, 117715, Note_on_c, 0, 68, 48
1, 117861, Note_on_c, 0, 78, 0
1, 117861, Note_on_c, 0, 78, 70
1, 117861, Note_on_c, 0, 68, 0
1, 117864, Note_on_c, 0, 65, 0
1, 117864, Note_on_c, 0, 58, 0
1, 117864, Note_on_c, 0, 58, 54
1, 117899, Note_on_c, 0, 78, 0
1, 117899, Note_on_c, 0, 80, 70
1, 117937, Note_on_c, 0, 80, 0
1, 117937, Note_on_c, 0, 78, 78
1, 118014, Note_on_c, 0, 78, 0
1, 118014, Note_on_c, 0, 77, 70
1, 118014, Note_on_c, 0, 65, 48
1, 118017, Note_on_c, 0, 68, 48
1, 118166, Note_on_c, 0, 77, 0
1, 118166, Note_on_c, 0, 77, 70
1, 118166, Note_on_c, 0, 68, 0
1, 118169, Note_on_c, 0, 65, 0
1, 118169, Note_on_c, 0, 65, 48
1, 118169, Note_on_c, 0, 68, 48
1, 118204, Note_on_c, 0, 77, 0
1, 118204, Note_on_c, 0, 78, 70
1, 118242, Note_on_c, 0, 78, 0
1, 118242, Note_on_c, 0, 77, 78
1, 118318, Note_on_c, 0, 77, 0
1, 118318, Note_on_c, 0, 75, 70
1, 118318, Note_on_c, 0, 68, 0
1, 118321, Note_on_c, 0, 65, 0
1, 118321, Note_on_c, 0, 65, 48
1, 118321, Note_on_c, 0, 68, 48
1, 118471, Note_on_c, 0, 75, 0
1, 118471, Note_on_c, 0, 75, 70
1, 118471, Note_on_c, 0, 68, 0
1, 118474, Note_on_c, 0, 65, 0
1, 118474, Note_on_c, 0, 58, 0
1, 118474, Note_on_c, 0, 58, 54
1, 118509, Note_on_c, 0, 75, 0
1, 118509, Note_on_c, 0, 77, 70
1, 118547, Note_on_c, 0, 77, 0
1, 118547, Note_on_c, 0, 75, 77
1, 118623, Note_on_c, 0, 75, 0
1, 118623, Note_on_c, 0, 74, 70
1, 118623, Note_on_c, 0, 65, 48
1, 118626, Note_on_c, 0, 68, 48
1, 118775, Note_on_c, 0, 74, 0
1, 118775, Note_on_c, 0, 72, 70
1, 118775, Note_on_c, 0, 68, 0
1, 118778, Note_on_c, 0, 65, 0
1, 118778, Note_on_c, 0, 65, 48
1, 118778, Note_on_c, 0, 68, 48
1, 118851, Note_on_c, 0, 72, 0
1, 118927, Note_on_c, 0, 74, 70
1, 118927, Note_on_c, 0, 68, 0
1, 118927, Note_on_c, 0, 65, 0
1, 118930, Note_on_c, 0, 65, 48
1, 118930, Note_on_c, 0, 68, 48
1, 119004, Note_on_c, 0, 74, 0
1, 119080, Note_on_c, 0, 75, 70
1, 119080, Note_on_c, 0, 68, 0
1, 119080, Note_on_c, 0, 65, 0
1, 119083, Note_on_c, 0, 58, 0
1, 119083, Note_on_c, 0, 58, 54
1, 119236, Note_on_c, 0, 75, 0
1, 119236, Note_on_c, 0, 46, 65
1, 119236, Note_on_c, 0, 63, 48
1, 119239, Note_on_c, 0, 66, 48
1, 119311, Note_on_c, 0, 46, 0
1, 119385, Note_on_c, 0, 51, 68
1, 119385, Note_on_c, 0, 66, 0
1, 119385, Note_on_c, 0, 63, 0
1, 119388, Note_on_c, 0, 63, 48
1, 119388, Note_on_c, 0, 66, 48
1, 119459, Note_on_c, 0, 51, 0
1, 119532, Note_on_c, 0, 53, 72
1, 119532, Note_on_c, 0, 66, 0
1, 119532, Note_on_c, 0, 63, 0
1, 119535, Note_on_c, 0, 63, 48
1, 119535, Note_on_c, 0, 66, 48
1, 119605, Note_on_c, 0, 53, 0
1, 119678, Note_on_c, 0, 54, 75
1, 119678, Note_on_c, 0, 66, 0
1, 119678, Note_on_c, 0, 63, 0
1, 119681, Note_on_c, 0, 58, 0
1, 119681, Note_on_c, 0, 58, 54
1, 119755, Note_on_c, 0, 54, 0
1, 119831, Note_on_c, 0, 70, 73
1, 119831, Note_on_c, 0, 63, 48
1, 119831, Note_on_c, 0, 66, 48
1, 119907, Note_on_c, 0, 70, 0
1, 119984, Note_on_c, 0, 75, 75
1, 119984, Note_on_c, 0, 66, 0
1, 119984, Note_on_c, 0, 63, 0
1, 119987, Note_on_c, 0, 63, 48
1, 119987, Note_on_c, 0, 66, 48
1, 120058, Note_on_c, 0, 75, 0
1, 120133, Note_on_c, 0, 77, 77
1, 120133, Note_on_c, 0, 66, 0
1, 120133, Note_on_c, 0, 63, 0
1, 120136, Note_on_c, 0, 63, 48
1, 120136, Note_on_c, 0, 66, 48
1, 120208, Note_on_c, 0, 77, 0
1, 120245, Note_on_c, 0, 70, 76
1, 120282, Note_on_c, 0, 70, 0
1, 120282, Note_on_c, 0, 78, 86
1, 120282, Note_on_c, 0, 66, 0
1, 120285, Note_on_c, 0, 63, 0
1, 120285, Note_on_c, 0, 58, 0
1, 120285, Note_on_c, 0, 58, 54
1, 120434, Note_on_c, 0, 63, 48
1, 120434, Note_on_c, 0, 66, 48
1, 120584, Note_on_c, 0, 66, 0
1, 120584, Note_on_c, 0, 63, 0
1, 120584, Note_on_c, 0, 63, 48
1, 120587, Note_on_c, 0, 66, 48
1, 120734, Note_on_c, 0, 78, 0
1, 120734, Note_on_c, 0, 75, 74
1, 120734, Note_on_c, 0, 66, 0
1, 120737, Note_on_c, 0, 63, 0
1, 120737, Note_on_c, 0, 63, 48
1, 120737, Note_on_c, 0, 66, 48
1, 120848, Note_on_c, 0, 70, 70
1, 120886, Note_on_c, 0, 70, 0
1, 120886, Note_on_c, 0, 75, 0
1, 120886, Note_on_c, 0, 78, 82
1, 120889, Note_on_c, 0, 66, 0
1, 120889, Note_on_c, 0, 63, 0
1, 120889, Note_on_c, 0, 58, 0
1, 120892, Note_on_c, 0, 58, 54
1, 121038, Note_on_c, 0, 63, 48
1, 121038, Note_on_c, 0, 66, 48
1, 121188, Note_on_c, 0, 66, 0
1, 121188, Note_on_c, 0, 63, 0
1, 121188, Note_on_c, 0, 63, 48
1, 121191, Note_on_c, 0, 66, 48
1, 121338, Note_on_c, 0, 78, 0
1, 121338, Note_on_c, 0, 75, 68
1, 121338, Note_on_c, 0, 66, 0
1, 121341, Note_on_c, 0, 63, 0
1, 121341, Note_on_c, 0, 63, 48
1, 121341, Note_on_c, 0, 66, 48
1, 121489, Note_on_c, 0, 75, 0
1, 121489, Note_on_c, 0, 72, 70
1, 121489, Note_on_c, 0, 66, 0
1, 121492, Note_on_c, 0, 63, 0
1, 121492, Note_on_c, 0, 58, 0
1, 121492, Note_on_c, 0, 56, 54
1, 121645, Note_on_c, 0, 72, 0
1, 121645, Note_on_c, 0, 44, 67
1, 121645, Note_on_c, 0, 63, 48
1, 121648, Note_on_c, 0, 66, 48
1, 121719, Note_on_c, 0, 44, 0
1, 121793, Note_on_c, 0, 51, 70
1, 121793, Note_on_c, 0, 66, 0
1, 121793, Note_on_c, 0, 63, 0
1, 121796, Note_on_c, 0, 63, 48
1, 121796, Note_on_c, 0, 66, 48
1, 121866, Note_on_c, 0, 51, 0
1, 121939, Note_on_c, 0, 53, 74
1, 121939, Note_on_c, 0, 66, 0
1, 121939, Note_on_c, 0, 63, 0
1, 121942, Note_on_c, 0, 63, 48
1, 121942, Note_on_c, 0, 66, 48
1, 122011, Note_on_c, 0, 53, 0
1, 122084, Note_on_c, 0, 54, 77
1, 122084, Note_on_c, 0, 66, 0
1, 122084, Note_on_c, 0, 63, 0
1, 122087, Note_on_c, 0, 56, 0
1, 122087, Note_on_c, 0, 56, 54
1, 122161, Note_on_c, 0, 54, 0
1, 122237, Note_on_c, 0, 68, 69
1, 122237, Note_on_c, 0, 63, 48
1, 122237, Note_on_c, 0, 66, 48
1, 122390, Note_on_c, 0, 68, 0
1, 122390, Note_on_c, 0, 78, 73
1, 122390, Note_on_c, 0, 66, 0
1, 122393, Note_on_c, 0, 63, 0
1, 122393, Note_on_c, 0, 63, 48
1, 122393, Note_on_c, 0, 66, 48
1, 122540, Note_on_c, 0, 78, 0
1, 122540, Note_on_c, 0, 77, 76
1, 122540, Note_on_c, 0, 66, 0
1, 122543, Note_on_c, 0, 63, 0
1, 122543, Note_on_c, 0, 63, 48
1, 122543, Note_on_c, 0, 66, 48
1, 122689, Note_on_c, 0, 77, 0
1, 122689, Note_on_c, 0, 77, 70
1, 122689, Note_on_c, 0, 66, 0
1, 122692, Note_on_c, 0, 63, 0
1, 122692, Note_on_c, 0, 56, 0
1, 122692, Note_on_c, 0, 56, 54
1, 122727, Note_on_c, 0, 77, 0
1, 122727, Note_on_c, 0, 78, 70
1, 122765, Note_on_c, 0, 78, 0
1, 122765, Note_on_c, 0, 77, 78
1, 122842, Note_on_c, 0, 77, 0
1, 122842, Note_on_c, 0, 75, 70
1, 122842, Note_on_c, 0, 63, 48
1, 122845, Note_on_c, 0, 66, 48
1, 122994, Note_on_c, 0, 75, 0
1, 122994, Note_on_c, 0, 75, 70
1, 122994, Note_on_c, 0, 66, 0
1, 122997, Note_on_c, 0, 63, 0
1, 122997, Note_on_c, 0, 63, 48
1, 122997, Note_on_c, 0, 66, 48
1, 123032, Note_on_c, 0, 75, 0
1, 123032, Note_on_c, 0, 77, 70
1, 123070, Note_on_c, 0, 77, 0
1, 123070, Note_on_c, 0, 75, 78
1, 123146, Note_on_c, 0, 75, 0
1, 123146, Note_on_c, 0, 73, 70
1, 123146, Note_on_c, 0, 66, 0
1, 123149, Note_on_c, 0, 63, 0
1, 123149, Note_on_c, 0, 63, 48
1, 123149, Note_on_c, 0, 66, 48
1, 123298, Note_on_c, 0, 73, 0
1, 123298, Note_on_c, 0, 73, 70
1, 123298, Note_on_c, 0, 66, 0
1, 123301, Note_on_c, 0, 63, 0
1, 123301, Note_on_c, 0, 56, 0
1, 123301, Note_on_c, 0, 56, 54
1, 123337, Note_on_c, 0, 73, 0
1, 123337, Note_on_c, 0, 75, 70
1, 123375, Note_on_c, 0, 75, 0
1, 123375, Note_on_c, 0, 73, 77
1, 123451, Note_on_c, 0, 73, 0
1, 123451, Note_on_c, 0, 72, 70
1, 123451, Note_on_c, 0, 63, 48
1, 123454, Note_on_c, 0, 66, 48
1, 123603, Note_on_c, 0, 72, 0
1, 123603, Note_on_c, 0, 70, 70
1, 123603, Note_on_c, 0, 66, 0
1, 123606, Note_on_c, 0, 63, 0
1, 123606, Note_on_c, 0, 63, 48
1, 123606, Note_on_c, 0, 66, 48
1, 123679, Note_on_c, 0, 70, 0
1, 123755, Note_on_c, 0, 72, 70
1, 123755, Note_on_c, 0, 66, 0
1, 123755, Note_on_c, 0, 63, 0
1, 123758, Note_on_c, 0, 63, 48
1, 123758, Note_on_c, 0, 66, 48
1, 123831, Note_on_c, 0, 72, 0
1, 123908, Note_on_c, 0, 73, 70
1, 123908, Note_on_c, 0, 66, 0
1, 123908, Note_on_c, 0, 63, 0
1, 123911, Note_on_c, 0, 56, 0
1, 123911, Note_on_c, 0, 56, 54
1, 124061, Note_on_c, 0, 73, 0
1, 124061, Note_on_c, 0, 44, 65
1, 124061, Note_on_c, 0, 61, 48
1, 124064, Note_on_c, 0, 65, 48
1, 124136, Note_on_c, 0, 44, 0
1, 124211, Note_on_c, 0, 49, 68
1, 124211, Note_on_c, 0, 65, 0
1, 124211, Note_on_c, 0, 61, 0
1, 124214, Note_on_c, 0, 61, 48
1, 124214, Note_on_c, 0, 65, 48
1, 124285, Note_on_c, 0, 49, 0
1, 124359, Note_on_c, 0, 51, 72
1, 124359, Note_on_c, 0, 65, 0
1, 124359, Note_on_c, 0, 61, 0
1, 124362, Note_on_c, 0, 61, 48
1, 124362, Note_on_c, 0, 65, 48
1, 124432, Note_on_c, 0, 51, 0
1, 124506, Note_on_c, 0, 53, 75
1, 124506, Note_on_c, 0, 65, 0
1, 124506, Note_on_c, 0, 61, 0
1, 124509, Note_on_c, 0, 56, 0
1, 124509, Note_on_c, 0, 56, 54
1, 124582, Note_on_c, 0, 53, 0
1, 124659, Note_on_c, 0, 68, 73
1, 124659, Note_on_c, 0, 61, 48
1, 124659, Note_on_c, 0, 65, 48
1, 124735, Note_on_c, 0, 68, 0
1, 124811, Note_on_c, 0, 73, 75
1, 124811, Note_on_c, 0, 65, 0
1, 124811, Note_on_c, 0, 61, 0
1, 124814, Note_on_c, 0, 61, 48
1, 124814, Note_on_c, 0, 65, 48
1, 124886, Note_on_c, 0, 73, 0
1, 124961, Note_on_c, 0, 75, 77
1, 124961, Note_on_c, 0, 65, 0
1, 124961, Note_on_c, 0, 61, 0
1, 124964, Note_on_c, 0, 61, 48
1, 124964, Note_on_c, 0, 65, 48
1, 125035, Note_on_c, 0, 75, 0
1, 125073, Note_on_c, 0, 68, 76
1, 125110, Note_on_c, 0, 68, 0
1, 125110, Note_on_c, 0, 77, 86
1, 125110, Note_on_c, 0, 65, 0
1, 125113, Note_on_c, 0, 61, 0
1, 125113, Note_on_c, 0, 56, 0
1, 125113, Note_on_c, 0, 56, 54
1, 125262, Note_on_c, 0, 61, 48
1, 125262, Note_on_c, 0, 65, 48
1, 125412, Note_on_c, 0, 65, 0
1, 125412, Note_on_c, 0, 61, 0
1, 125412, Note_on_c, 0, 61, 48
1, 125415, Note_on_c, 0, 65, 48
1, 125561, Note_on_c, 0, 77, 0
1, 125561, Note_on_c, 0, 73, 74
1, 125561, Note_on_c, 0, 65, 0
1, 125564, Note_on_c, 0, 61, 0
1, 125564, Note_on_c, 0, 61, 48
1, 125564, Note_on_c, 0, 65, 48
1, 125676, Note_on_c, 0, 68, 70
1, 125714, Note_on_c, 0, 68, 0
1, 125714, Note_on_c, 0, 73, 0
1, 125714, Note_on_c, 0, 77, 82
1, 125717, Note_on_c, 0, 65, 0
1, 125717, Note_on_c, 0, 61, 0
1, 125717, Note_on_c, 0, 56, 0
1, 125720, Note_on_c, 0, 56, 54
1, 125866, Note_on_c, 0, 61, 48
1, 125866, Note_on_c, 0, 65, 48
1, 126016, Note_on_c, 0, 65, 0
1, 126016, Note_on_c, 0, 61, 0
1, 126016, Note_on_c, 0, 61, 48
1, 126019, Note_on_c, 0, 65, 48
1, 126165, Note_on_c, 0, 77, 0
1, 126165, Note_on_c, 0, 73, 68
1, 126165, Note_on_c, 0, 65, 0
1, 126168, Note_on_c, 0, 61, 0
1, 126168, Note_on_c, 0, 61, 48
1, 126168, Note_on_c, 0, 65, 48
1, 126317, Note_on_c, 0, 73, 0
1, 126317, Note_on_c, 0, 72, 70
1, 126317, Note_on_c, 0, 65, 0
1, 126320, Note_on_c, 0, 61, 0
1, 126320, Note_on_c, 0, 56, 0
1, 126320, Note_on_c, 0, 56, 54
1, 126472, Note_on_c, 0, 72, 0
1, 126472, Note_on_c, 0, 44, 67
1, 126472, Note_on_c, 0, 63, 48
1, 126475, Note_on_c, 0, 66, 48
1, 126546, Note_on_c, 0, 44, 0
1, 126620, Note_on_c, 0, 51, 70
1, 126620, Note_on_c, 0, 66, 0
1, 126620, Note_on_c, 0, 63, 0
1, 126623, Note_on_c, 0, 63, 48
1, 126623, Note_on_c, 0, 66, 48
1, 126693, Note_on_c, 0, 51, 0
1, 126766, Note_on_c, 0, 53, 74
1, 126766, Note_on_c, 0, 66, 0
1, 126766, Note_on_c, 0, 63, 0
1, 126769, Note_on_c, 0, 63, 48
1, 126769, Note_on_c, 0, 66, 48
1, 126839, Note_on_c, 0, 53, 0
1, 126912, Note_on_c, 0, 54, 77
1, 126912, Note_on_c, 0, 66, 0
1, 126912, Note_on_c, 0, 63, 0
1, 126915, Note_on_c, 0, 56, 0
1, 126915, Note_on_c, 0, 56, 54
1, 126989, Note_on_c, 0, 54, 0
1, 127065, Note_on_c, 0, 68, 69
1, 127065, Note_on_c, 0, 63, 48
1, 127065, Note_on_c, 0, 66, 48
1, 127218, Note_on_c, 0, 68, 0
1, 127218, Note_on_c, 0, 78, 73
1, 127218, Note_on_c, 0, 66, 0
1, 127221, Note_on_c, 0, 63, 0
1, 127221, Note_on_c, 0, 63, 48
1, 127221, Note_on_c, 0, 66, 48
1, 127368, Note_on_c, 0, 78, 0
1, 127368, Note_on_c, 0, 77, 76
1, 127368, Note_on_c, 0, 66, 0
1, 127371, Note_on_c, 0, 63, 0
1, 127371, Note_on_c, 0, 63, 48
1, 127371, Note_on_c, 0, 66, 48
1, 127517, Note_on_c, 0, 77, 0
1, 127517, Note_on_c, 0, 77, 70
1, 127517, Note_on_c, 0, 66, 0
1, 127520, Note_on_c, 0, 63, 0
1, 127520, Note_on_c, 0, 56, 0
1, 127520, Note_on_c, 0, 56, 54
1, 127555, Note_on_c, 0, 77, 0
1, 127555, Note_on_c, 0, 78, 70
1, 127593, Note_on_c, 0, 78, 0
1, 127593, Note_on_c, 0, 77, 78
1, 127670, Note_on_c, 0, 77, 0
1, 127670, Note_on_c, 0, 75, 70
1, 127670, Note_on_c, 0, 63, 48
1, 127673, Note_on_c, 0, 66, 48
1, 127822, Note_on_c, 0, 75, 0
1, 127822, Note_on_c, 0, 75, 70
1, 127822, Note_on_c, 0, 66, 0
1, 127825, Note_on_c, 0, 63, 0
1, 127825, Note_on_c, 0, 63, 48
1, 127825, Note_on_c, 0, 66, 48
1, 127860, Note_on_c, 0, 75, 0
1, 127860, Note_on_c, 0, 77, 70
1, 127898, Note_on_c, 0, 77, 0
1, 127898, Note_on_c, 0, 75, 78
1, 127974, Note_on_c, 0, 75, 0
1, 127974, Note_on_c, 0, 73, 70
1, 127974, Note_on_c, 0, 66, 0
1, 127977, Note_on_c, 0, 63, 0
1, 127977, Note_on_c, 0, 63, 48
1, 127977, Note_on_c, 0, 66, 48
1, 128126, Note_on_c, 0, 73, 0
1, 128126, Note_on_c, 0, 73, 70
1, 128126, Note_on_c, 0, 66, 0
1, 128129, Note_on_c, 0, 63, 0
1, 128129, Note_on_c, 0, 56, 0
1, 128129, Note_on_c, 0, 56, 54
1, 128165, Note_on_c, 0, 73, 0
1, 128165, Note_on_c, 0, 75, 70
1, 128203, Note_on_c, 0, 75, 0
1, 128203, Note_on_c, 0, 73, 77
1, 128279, Note_on_c, 0, 73, 0
1, 128279, Note_on_c, 0, 72, 70
1, 128279, Note_on_c, 0, 63, 48
1, 128282, Note_on_c, 0, 66, 48
1, 128431, Note_on_c, 0, 72, 0
1, 128431, Note_on_c, 0, 70, 70
1, 128431, Note_on_c, 0, 66, 0
1, 128434, Note_on_c, 0, 63, 0
1, 128434, Note_on_c, 0, 63, 48
1, 128434, Note_on_c, 0, 66, 48
1, 128507, Note_on_c, 0, 70, 0
1, 128583, Note_on_c, 0, 72, 67
1, 128583, Note_on_c, 0, 66, 0
1, 128583, Note_on_c, 0, 63, 0
1, 128586, Note_on_c, 0, 63, 48
1, 128586, Note_on_c, 0, 66, 48
1, 128660, Note_on_c, 0, 72, 0
1, 128736, Note_on_c, 0, 73, 70
1, 128736, Note_on_c, 0, 66, 0
1, 128736, Note_on_c, 0, 63, 0
1, 128739, Note_on_c, 0, 56, 0
1, 128739, Note_on_c, 0, 61, 64
1, 128889, Note_on_c, 0, 73, 0
1, 128889, Note_on_c, 0, 49, 84
1, 128889, Note_on_c, 0, 65, 63
1, 128892, Note_on_c, 0, 68, 63
1, 129039, Note_on_c, 0, 49, 0
1, 129039, Note_on_c, 0, 56, 88
1, 129039, Note_on_c, 0, 68, 0
1, 129042, Note_on_c, 0, 65, 0
1, 129042, Note_on_c, 0, 61, 0
1, 129042, Note_on_c, 0, 59, 70
1, 129187, Note_on_c, 0, 56, 0
1, 129187, Note_on_c, 0, 47, 84
1, 129187, Note_on_c, 0, 65, 63
1, 129190, Note_on_c, 0, 68, 63
1, 129263, Note_on_c, 0, 47, 0
1, 129340, Note_on_c, 0, 46, 88
1, 129340, Note_on_c, 0, 68, 0
1, 129340, Note_on_c, 0, 65, 0
1, 129343, Note_on_c, 0, 59, 0
1, 129343, Note_on_c, 0, 58, 63
1, 129417, Note_on_c, 0, 46, 0
1, 129494, Note_on_c, 0, 70, 69
1, 129494, Note_on_c, 0, 65, 48
1, 129494, Note_on_c, 0, 68, 48
1, 129648, Note_on_c, 0, 70, 0
1, 129648, Note_on_c, 0, 80, 73
1, 129648, Note_on_c, 0, 68, 0
1, 129651, Note_on_c, 0, 65, 0
1, 129651, Note_on_c, 0, 65, 48
1, 129651, Note_on_c, 0, 68, 48
1, 129798, Note_on_c, 0, 80, 0
1, 129798, Note_on_c, 0, 78, 76
1, 129798, Note_on_c, 0, 68, 0
1, 129801, Note_on_c, 0, 65, 0
1, 129801, Note_on_c, 0, 65, 48
1, 129801, Note_on_c, 0, 68, 48
1, 129948, Note_on_c, 0, 78, 0
1, 129948, Note_on_c, 0, 78, 70
1, 129948, Note_on_c, 0, 68, 0
1, 129951, Note_on_c, 0, 65, 0
1, 129951, Note_on_c, 0, 58, 0
1, 129951, Note_on_c, 0, 58, 54
1, 129986, Note_on_c, 0, 78, 0
1, 129986, Note_on_c, 0, 80, 70
1, 130024, Note_on_c, 0, 80, 0
1, 130024, Note_on_c, 0, 78, 78
1, 130100, Note_on_c, 0, 78, 0
1, 130100, Note_on_c, 0, 77, 70
1, 130100, Note_on_c, 0, 65, 48
1, 130103, Note_on_c, 0, 68, 48
1, 130252, Note_on_c, 0, 77, 0
1, 130252, Note_on_c, 0, 77, 70
1, 130252, Note_on_c, 0, 68, 0
1, 130255, Note_on_c, 0, 65, 0
1, 130255, Note_on_c, 0, 65, 48
1, 130255, Note_on_c, 0, 68, 48
1, 130290, Note_on_c, 0, 77, 0
1, 130290, Note_on_c, 0, 78, 70
1, 130328, Note_on_c, 0, 78, 0
1, 130328, Note_on_c, 0, 77, 78
1, 130405, Note_on_c, 0, 77, 0
1, 130405, Note_on_c, 0, 75, 70
1, 130405, Note_on_c, 0, 68, 0
1, 130408, Note_on_c, 0, 65, 0
1, 130408, Note_on_c, 0, 65, 48
1, 130408, Note_on_c, 0, 68, 48
1, 130557, Note_on_c, 0, 75, 0
1, 130557, Note_on_c, 0, 75, 70
1, 130557, Note_on_c, 0, 68, 0
1, 130560, Note_on_c, 0, 65, 0
1, 130560, Note_on_c, 0, 58, 0
1, 130560, Note_on_c, 0, 58, 54
1, 130595, Note_on_c, 0, 75, 0
1, 130595, Note_on_c, 0, 77, 70
1, 130633, Note_on_c, 0, 77, 0
1, 130633, Note_on_c, 0, 75, 77
1, 130709, Note_on_c, 0, 75, 0
1, 130709, Note_on_c, 0, 74, 70
1, 130709, Note_on_c, 0, 65, 48
1, 130712, Note_on_c, 0, 68, 48
1, 130861, Note_on_c, 0, 74, 0
1, 130861, Note_on_c, 0, 72, 70
1, 130861, Note_on_c, 0, 68, 0
1, 130864, Note_on_c, 0, 65, 0
1, 130864, Note_on_c, 0, 65, 48
1, 130864, Note_on_c, 0, 68, 48
1, 130938, Note_on_c, 0, 72, 0
1, 131014, Note_on_c, 0, 74, 67
1, 131014, Note_on_c, 0, 68, 0
1, 131014, Note_on_c, 0, 65, 0
1, 131017, Note_on_c, 0, 65, 48
1, 131017, Note_on_c, 0, 68, 48
1, 131090, Note_on_c, 0, 74, 0
1, 131166, Note_on_c, 0, 75, 70
1, 131166, Note_on_c, 0, 68, 0
1, 131166, Note_on_c, 0, 65, 0
1, 131169, Note_on_c, 0, 58, 0
1, 131169, Note_on_c, 0, 63, 64
1, 131323, Note_on_c, 0, 75, 0
1, 131323, Note_on_c, 0, 51, 84
1, 131323, Note_on_c, 0, 66, 63
1, 131326, Note_on_c, 0, 70, 63
1, 131474, Note_on_c, 0, 51, 0
1, 131474, Note_on_c, 0, 58, 88
1, 131474, Note_on_c, 0, 70, 0
1, 131477, Note_on_c, 0, 66, 0
1, 131477, Note_on_c, 0, 63, 0
1, 131477, Note_on_c, 0, 61, 70
1, 131622, Note_on_c, 0, 58, 0
1, 131622, Note_on_c, 0, 49, 84
1, 131622, Note_on_c, 0, 65, 63
1, 131625, Note_on_c, 0, 70, 63
1, 131699, Note_on_c, 0, 49, 0
1, 131776, Note_on_c, 0, 48, 88
1, 131776, Note_on_c, 0, 70, 0
1, 131776, Note_on_c, 0, 65, 0
1, 131779, Note_on_c, 0, 61, 0
1, 131779, Note_on_c, 0, 60, 63
1, 131853, Note_on_c, 0, 48, 0
1, 131930, Note_on_c, 0, 72, 69
1, 131930, Note_on_c, 0, 67, 48
1, 131930, Note_on_c, 0, 70, 48
1, 132084, Note_on_c, 0, 72, 0
1, 132084, Note_on_c, 0, 82, 73
1, 132084, Note_on_c, 0, 70, 0
1, 132087, Note_on_c, 0, 67, 0
1, 132087, Note_on_c, 0, 67, 48
1, 132087, Note_on_c, 0, 70, 48
1, 132234, Note_on_c, 0, 82, 0
1, 132234, Note_on_c, 0, 80, 76
1, 132234, Note_on_c, 0, 70, 0
1, 132237, Note_on_c, 0, 67, 0
1, 132237, Note_on_c, 0, 67, 48
1, 132237, Note_on_c, 0, 70, 48
1, 132383, Note_on_c, 0, 80, 0
1, 132383, Note_on_c, 0, 80, 70
1, 132383, Note_on_c, 0, 70, 0
1, 132386, Note_on_c, 0, 67, 0
1, 132386, Note_on_c, 0, 60, 0
1, 132386, Note_on_c, 0, 60, 54
1, 132421, Note_on_c, 0, 80, 0
1, 132421, Note_on_c, 0, 82, 70
1, 132459, Note_on_c, 0, 82, 0
1, 132459, Note_on_c, 0, 80, 78
1, 132536, Note_on_c, 0, 80, 0
1, 132536, Note_on_c, 0, 79, 70
1, 132536, Note_on_c, 0, 67, 48
1, 132539, Note_on_c, 0, 70, 48
1, 132688, Note_on_c, 0, 79, 0
1, 132688, Note_on_c, 0, 79, 70
1, 132688, Note_on_c, 0, 70, 0
1, 132691, Note_on_c, 0, 67, 0
1, 132691, Note_on_c, 0, 67, 48
1, 132691, Note_on_c, 0, 70, 48
1, 132726, Note_on_c, 0, 79, 0
1, 132726, Note_on_c, 0, 80, 70
1, 132764, Note_on_c, 0, 80, 0
1, 132764, Note_on_c, 0, 79, 78
1, 132840, Note_on_c, 0, 79, 0
1, 132840, Note_on_c, 0, 77, 70
1, 132840, Note_on_c, 0, 70, 0
1, 132843, Note_on_c, 0, 67, 0
1, 132843, Note_on_c, 0, 67, 48
1, 132843, Note_on_c, 0, 70, 48
1, 132992, Note_on_c, 0, 77, 0
1, 132992, Note_on_c, 0, 77, 70
1, 132992, Note_on_c, 0, 70, 0
1, 132995, Note_on_c, 0, 67, 0
1, 132995, Note_on_c, 0, 60, 0
1, 132995, Note_on_c, 0, 60, 54
1, 133031, Note_on_c, 0, 77, 0
1, 133031, Note_on_c, 0, 79, 70
1, 133069, Note_on_c, 0, 79, 0
1, 133069, Note_on_c, 0, 77, 77
1, 133145, Note_on_c, 0, 77, 0
1, 133145, Note_on_c, 0, 76, 70
1, 133145, Note_on_c, 0, 67, 48
1, 133148, Note_on_c, 0, 70, 48
1, 133297, Note_on_c, 0, 76, 0
1, 133297, Note_on_c, 0, 74, 70
1, 133297, Note_on_c, 0, 70, 0
1, 133300, Note_on_c, 0, 67, 0
1, 133300, Note_on_c, 0, 67, 48
1, 133300, Note_on_c, 0, 70, 48
1, 133449, Note_on_c, 0, 74, 0
1, 133449, Note_on_c, 0, 76, 67
1, 133449, Note_on_c, 0, 70, 0
1, 133452, Note_on_c, 0, 67, 0
1, 133452, Note_on_c, 0, 67, 48
1, 133452, Note_on_c, 0, 70, 48
1, 133602, Note_on_c, 0, 76, 0
1, 133602, Note_on_c, 0, 79, 70
1, 133602, Note_on_c, 0, 70, 0
1, 133605, Note_on_c, 0, 67, 0
1, 133605, Note_on_c, 0, 60, 0
1, 133605, Note_on_c, 0, 65, 54
1, 133640, Note_on_c, 0, 79, 0
1, 133640, Note_on_c, 0, 80, 70
1, 133678, Note_on_c, 0, 80, 0
1, 133678, Note_on_c, 0, 79, 78
1, 133754, Note_on_c, 0, 79, 0
1, 133754, Note_on_c, 0, 77, 70
1, 133754, Note_on_c, 0, 68, 48
1, 133757, Note_on_c, 0, 72, 48
1, 133906, Note_on_c, 0, 77, 0
1, 133906, Note_on_c, 0, 77, 70
1, 133906, Note_on_c, 0, 72, 0
1, 133909, Note_on_c, 0, 68, 0
1, 133909, Note_on_c, 0, 68, 48
1, 133909, Note_on_c, 0, 72, 48
1, 133944, Note_on_c, 0, 77, 0
1, 133944, Note_on_c, 0, 79, 70
1, 133982, Note_on_c, 0, 79, 0
1, 133982, Note_on_c, 0, 77, 78
1, 134059, Note_on_c, 0, 77, 0
1, 134059, Note_on_c, 0, 75, 70
1, 134059, Note_on_c, 0, 72, 0
1, 134062, Note_on_c, 0, 68, 0
1, 134062, Note_on_c, 0, 68, 48
1, 134062, Note_on_c, 0, 72, 48
1, 134211, Note_on_c, 0, 75, 0
1, 134211, Note_on_c, 0, 75, 70
1, 134211, Note_on_c, 0, 72, 0
1, 134214, Note_on_c, 0, 68, 0
1, 134214, Note_on_c, 0, 65, 0
1, 134214, Note_on_c, 0, 58, 54
1, 134249, Note_on_c, 0, 75, 0
1, 134249, Note_on_c, 0, 77, 70
1, 134287, Note_on_c, 0, 77, 0
1, 134287, Note_on_c, 0, 75, 77
1, 134363, Note_on_c, 0, 75, 0
1, 134363, Note_on_c, 0, 74, 70
1, 134363, Note_on_c, 0, 65, 48
1, 134366, Note_on_c, 0, 68, 48
1, 134515, Note_on_c, 0, 74, 0
1, 134515, Note_on_c, 0, 72, 70
1, 134515, Note_on_c, 0, 68, 0
1, 134518, Note_on_c, 0, 65, 0
1, 134518, Note_on_c, 0, 58, 0
1, 134518, Note_on_c, 0, 59, 54
1, 134521, Note_on_c, 0, 65, 48
1, 134521, Note_on_c, 0, 68, 48
1, 134668, Note_on_c, 0, 72, 0
1, 134668, Note_on_c, 0, 74, 67
1, 134668, Note_on_c, 0, 68, 0
1, 134671, Note_on_c, 0, 65, 0
1, 134671, Note_on_c, 0, 65, 48
1, 134671, Note_on_c, 0, 68, 48
1, 134820, Note_on_c, 0, 74, 0
1, 134820, Note_on_c, 0, 77, 70
1, 134820, Note_on_c, 0, 68, 0
1, 134823, Note_on_c, 0, 65, 0
1, 134823, Note_on_c, 0, 59, 0
1, 134823, Note_on_c, 0, 60, 54
1, 134858, Note_on_c, 0, 77, 0
1, 134858, Note_on_c, 0, 79, 70
1, 134896, Note_on_c, 0, 79, 0
1, 134896, Note_on_c, 0, 77, 78
1, 134972, Note_on_c, 0, 77, 0
1, 134972, Note_on_c, 0, 75, 69
1, 134972, Note_on_c, 0, 63, 47
1, 134975, Note_on_c, 0, 67, 47
1, 135125, Note_on_c, 0, 75, 0
1, 135125, Note_on_c, 0, 75, 68
1, 135125, Note_on_c, 0, 67, 0
1, 135128, Note_on_c, 0, 63, 0
1, 135128, Note_on_c, 0, 63, 46
1, 135128, Note_on_c, 0, 67, 46
1, 135163, Note_on_c, 0, 75, 0
1, 135163, Note_on_c, 0, 77, 68
1, 135201, Note_on_c, 0, 77, 0
1, 135201, Note_on_c, 0, 75, 75
1, 135277, Note_on_c, 0, 75, 0
1, 135277, Note_on_c, 0, 74, 67
1, 135277, Note_on_c, 0, 67, 0
1, 135280, Note_on_c, 0, 63, 0
1, 135280, Note_on_c, 0, 63, 46
1, 135280, Note_on_c, 0, 67, 46
1, 135429, Note_on_c, 0, 74, 0
1, 135429, Note_on_c, 0, 74, 66
1, 135429, Note_on_c, 0, 67, 0
1, 135432, Note_on_c, 0, 63, 0
1, 135432, Note_on_c, 0, 60, 0
1, 135432, Note_on_c, 0, 56, 51
1, 135467, Note_on_c, 0, 74, 0
1, 135467, Note_on_c, 0, 75, 65
1, 135505, Note_on_c, 0, 75, 0
1, 135505, Note_on_c, 0, 74, 72
1, 135582, Note_on_c, 0, 74, 0
1, 135582, Note_on_c, 0, 72, 65
1, 135582, Note_on_c, 0, 63, 44
1, 135585, Note_on_c, 0, 65, 44
1, 135734, Note_on_c, 0, 72, 0
1, 135734, Note_on_c, 0, 72, 64
1, 135734, Note_on_c, 0, 65, 0
1, 135737, Note_on_c, 0, 63, 0
1, 135737, Note_on_c, 0, 63, 44
1, 135737, Note_on_c, 0, 65, 44
1, 135772, Note_on_c, 0, 72, 0
1, 135772, Note_on_c, 0, 74, 64
1, 135811, Note_on_c, 0, 74, 0
1, 135811, Note_on_c, 0, 72, 69
1, 135888, Note_on_c, 0, 72, 0
1, 135888, Note_on_c, 0, 71, 63
1, 135888, Note_on_c, 0, 65, 0
1, 135891, Note_on_c, 0, 63, 0
1, 135891, Note_on_c, 0, 63, 43
1, 135891, Note_on_c, 0, 65, 43
1, 136044, Note_on_c, 0, 71, 0
1, 136044, Note_on_c, 0, 72, 62
1, 136044, Note_on_c, 0, 65, 0
1, 136047, Note_on_c, 0, 63, 0
1, 136047, Note_on_c, 0, 56, 0
1, 136047, Note_on_c, 0, 58, 48
1, 136084, Note_on_c, 0, 72, 0
1, 136084, Note_on_c, 0, 74, 62
1, 136124, Note_on_c, 0, 74, 0
1, 136124, Note_on_c, 0, 72, 66
1, 136204, Note_on_c, 0, 72, 0
1, 136204, Note_on_c, 0, 70, 61
1, 136204, Note_on_c, 0, 63, 42
1, 136207, Note_on_c, 0, 67, 42
1, 136363, Note_on_c, 0, 70, 0
1, 136363, Note_on_c, 0, 70, 60
1, 136363, Note_on_c, 0, 67, 0
1, 136366, Note_on_c, 0, 63, 0
1, 136366, Note_on_c, 0, 63, 41
1, 136366, Note_on_c, 0, 67, 41
1, 136423, Note_on_c, 0, 70, 0
1, 136522, Note_on_c, 0, 70, 56
1, 136522, Note_on_c, 0, 67, 0
1, 136522, Note_on_c, 0, 63, 0
1, 136525, Note_on_c, 0, 63, 41
1, 136525, Note_on_c, 0, 67, 41
1, 136582, Note_on_c, 0, 70, 0
1, 136681, Note_on_c, 0, 72, 47
1, 136681, Note_on_c, 0, 67, 0
1, 136681, Note_on_c, 0, 63, 0
1, 136684, Note_on_c, 0, 58, 0
1, 136684, Note_on_c, 0, 58, 37
1, 136723, Note_on_c, 0, 72, 0
1, 136723, Note_on_c, 0, 74, 47
1, 136764, Note_on_c, 0, 74, 0
1, 136764, Note_on_c, 0, 72, 51
1, 136847, Note_on_c, 0, 72, 0
1, 136847, Note_on_c, 0, 70, 47
1, 136847, Note_on_c, 0, 62, 33
1, 136850, Note_on_c, 0, 65, 33
1, 137012, Note_on_c, 0, 70, 0
1, 137012, Note_on_c, 0, 70, 47
1, 137012, Note_on_c, 0, 65, 0
1, 137015, Note_on_c, 0, 62, 0
1, 137015, Note_on_c, 0, 62, 33
1, 137015, Note_on_c, 0, 65, 33
1, 137074, Note_on_c, 0, 70, 0
1, 137177, Note_on_c, 0, 70, 45
1, 137177, Note_on_c, 0, 65, 0
1, 137177, Note_on_c, 0, 62, 0
1, 137180, Note_on_c, 0, 62, 33
1, 137180, Note_on_c, 0, 65, 33
1, 137239, Note_on_c, 0, 70, 0
1, 137342, Note_on_c, 0, 65, 0
1, 137342, Note_on_c, 0, 62, 0
1, 137342, Note_on_c, 0, 58, 0
1, 137345, Note_on_c, 0, 51, 46
1, 137406, Control_c, 0, 64, 127
1, 137425, Note_on_c, 0, 63, 35
1, 137425, Note_on_c, 0, 58, 34
1, 137507, Note_on_c, 0, 63, 0
1, 137507, Note_on_c, 0, 67, 39
1, 137507, Note_on_c, 0, 58, 0
1, 137510, Note_on_c, 0, 55, 36
1, 137586, Note_on_c, 0, 67, 0
1, 137586, Note_on_c, 0, 63, 39
1, 137586, Note_on_c, 0, 55, 0
1, 137589, Note_on_c, 0, 58, 34
1, 137664, Note_on_c, 0, 63, 0
1, 137664, Note_on_c, 0, 75, 55
1, 137664, Note_on_c, 0, 58, 0
1, 137667, Note_on_c, 0, 55, 42
1, 137742, Note_on_c, 0, 63, 38
1, 137742, Note_on_c, 0, 55, 0
1, 137742, Note_on_c, 0, 58, 35
1, 137819, Note_on_c, 0, 63, 0
1, 137819, Note_on_c, 0, 67, 40
1, 137819, Note_on_c, 0, 58, 0
1, 137822, Note_on_c, 0, 55, 38
1, 137897, Note_on_c, 0, 67, 0
1, 137897, Note_on_c, 0, 63, 38
1, 137897, Note_on_c, 0, 55, 0
1, 137900, Note_on_c, 0, 58, 36
1, 137974, Note_on_c, 0, 63, 0
1, 137974, Note_on_c, 0, 67, 41
1, 137974, Note_on_c, 0, 58, 0
1, 137977, Note_on_c, 0, 55, 44
1, 137977, Control_c, 0, 64, 0
1, 138015, Control_c, 0, 64, 127
1, 138051, Note_on_c, 0, 67, 0
1, 138051, Note_on_c, 0, 63, 40
1, 138051, Note_on_c, 0, 55, 0
1, 138054, Note_on_c, 0, 58, 36
1, 138128, Note_on_c, 0, 63, 0
1, 138128, Note_on_c, 0, 67, 42
1, 138128, Note_on_c, 0, 58, 0
1, 138131, Note_on_c, 0, 55, 39
1, 138205, Note_on_c, 0, 67, 0
1, 138205, Note_on_c, 0, 63, 39
1, 138205, Note_on_c, 0, 55, 0
1, 138208, Note_on_c, 0, 58, 36
1, 138282, Note_on_c, 0, 63, 0
1, 138282, Note_on_c, 0, 75, 0
1, 138282, Note_on_c, 0, 75, 60
1, 138285, Note_on_c, 0, 58, 0
1, 138285, Note_on_c, 0, 51, 0
1, 138285, Note_on_c, 0, 51, 46
1, 138359, Note_on_c, 0, 63, 40
1, 138359, Note_on_c, 0, 58, 38
1, 138435, Note_on_c, 0, 63, 0
1, 138435, Note_on_c, 0, 67, 43
1, 138435, Note_on_c, 0, 58, 0
1, 138438, Note_on_c, 0, 55, 42
1, 138512, Note_on_c, 0, 67, 0
1, 138512, Note_on_c, 0, 63, 42
1, 138512, Note_on_c, 0, 55, 0
1, 138515, Note_on_c, 0, 58, 38
1, 138589, Note_on_c, 0, 63, 0
1, 138589, Note_on_c, 0, 75, 0
1, 138589, Note_on_c, 0, 58, 0
1, 138592, Note_on_c, 0, 51, 0
1, 138592, Note_on_c, 0, 49, 55
1, 138592, Control_c, 0, 64, 0
1, 138654, Control_c, 0, 64, 127
1, 138674, Note_on_c, 0, 63, 42
1, 138674, Note_on_c, 0, 58, 40
1, 138757, Note_on_c, 0, 63, 0
1, 138757, Note_on_c, 0, 67, 46
1, 138757, Note_on_c, 0, 58, 0
1, 138760, Note_on_c, 0, 55, 42
1, 138835, Note_on_c, 0, 67, 0
1, 138835, Note_on_c, 0, 63, 45
1, 138835, Note_on_c, 0, 55, 0
1, 138838, Note_on_c, 0, 58, 39
1, 138913, Note_on_c, 0, 63, 0
1, 138913, Note_on_c, 0, 75, 64
1, 138913, Note_on_c, 0, 58, 0
1, 138916, Note_on_c, 0, 55, 48
1, 138991, Note_on_c, 0, 63, 43
1, 138991, Note_on_c, 0, 55, 0
1, 138991, Note_on_c, 0, 58, 40
1, 139069, Note_on_c, 0, 63, 0
1, 139069, Note_on_c, 0, 67, 45
1, 139069, Note_on_c, 0, 58, 0
1, 139072, Note_on_c, 0, 55, 43
1, 139146, Note_on_c, 0, 67, 0
1, 139146, Note_on_c, 0, 63, 42
1, 139146, Note_on_c, 0, 55, 0
1, 139149, Note_on_c, 0, 58, 40
1, 139224, Note_on_c, 0, 63, 0
1, 139224, Note_on_c, 0, 67, 45
1, 139224, Note_on_c, 0, 58, 0
1, 139227, Note_on_c, 0, 55, 48
1, 139227, Control_c, 0, 64, 0
1, 139265, Control_c, 0, 64, 127
1, 139301, Note_on_c, 0, 67, 0
1, 139301, Note_on_c, 0, 63, 43
1, 139301, Note_on_c, 0, 55, 0
1, 139304, Note_on_c, 0, 58, 39
1, 139378, Note_on_c, 0, 63, 0
1, 139378, Note_on_c, 0, 67, 45
1, 139378, Note_on_c, 0, 58, 0
1, 139381, Note_on_c, 0, 55, 42
1, 139455, Note_on_c, 0, 67, 0
1, 139455, Note_on_c, 0, 63, 42
1, 139455, Note_on_c, 0, 55, 0
1, 139458, Note_on_c, 0, 58, 39
1, 139532, Note_on_c, 0, 63, 0
1, 139532, Note_on_c, 0, 75, 0
1, 139532, Note_on_c, 0, 75, 63
1, 139535, Note_on_c, 0, 58, 0
1, 139535, Note_on_c, 0, 49, 0
1, 139535, Note_on_c, 0, 49, 48
1, 139610, Note_on_c, 0, 63, 42
1, 139610, Note_on_c, 0, 58, 40
1, 139687, Note_on_c, 0, 63, 0
1, 139687, Note_on_c, 0, 67, 45
1, 139687, Note_on_c, 0, 58, 0
1, 139690, Note_on_c, 0, 55, 43
1, 139764, Note_on_c, 0, 67, 0
1, 139764, Note_on_c, 0, 63, 43
1, 139764, Note_on_c, 0, 55, 0
1, 139767, Note_on_c, 0, 58, 39
1, 139847, Note_on_c, 0, 63, 0
1, 139847, Note_on_c, 0, 75, 0
1, 139847, Note_on_c, 0, 75, 77
1, 139850, Note_on_c, 0, 58, 0
1, 139850, Note_on_c, 0, 49, 0
1, 139850, Note_on_c, 0, 48, 65
1, 139850, Control_c, 0, 64, 0
1, 139905, Note_on_c, 0, 75, 0
1, 139905, Note_on_c, 0, 48, 0
1, 139924, Note_on_c, 0, 63, 51
1, 139924, Note_on_c, 0, 56, 46
1, 140000, Note_on_c, 0, 63, 0
1, 140000, Note_on_c, 0, 68, 55
1, 140000, Note_on_c, 0, 56, 0
1, 140003, Note_on_c, 0, 51, 49
1, 140076, Note_on_c, 0, 68, 0
1, 140076, Note_on_c, 0, 63, 52
1, 140076, Note_on_c, 0, 51, 0
1, 140079, Note_on_c, 0, 56, 45
1, 140151, Note_on_c, 0, 63, 0
1, 140151, Note_on_c, 0, 76, 78
1, 140151, Note_on_c, 0, 56, 0
1, 140154, Note_on_c, 0, 46, 66
1, 140208, Note_on_c, 0, 76, 0
1, 140208, Note_on_c, 0, 46, 0
1, 140227, Note_on_c, 0, 64, 53
1, 140227, Note_on_c, 0, 55, 46
1, 140302, Note_on_c, 0, 64, 0
1, 140302, Note_on_c, 0, 72, 57
1, 140302, Note_on_c, 0, 55, 0
1, 140305, Note_on_c, 0, 48, 53
1, 140377, Note_on_c, 0, 72, 0
1, 140377, Note_on_c, 0, 64, 53
1, 140377, Note_on_c, 0, 48, 0
1, 140380, Note_on_c, 0, 55, 51
1, 140453, Note_on_c, 0, 64, 0
1, 140453, Note_on_c, 0, 77, 82
1, 140453, Note_on_c, 0, 55, 0
1, 140456, Note_on_c, 0, 44, 68
1, 140508, Note_on_c, 0, 77, 0
1, 140508, Note_on_c, 0, 44, 0
1, 140526, Note_on_c, 0, 65, 55
1, 140526, Note_on_c, 0, 56, 48
1, 140599, Note_on_c, 0, 65, 0
1, 140599, Note_on_c, 0, 72, 60
1, 140599, Note_on_c, 0, 56, 0
1, 140602, Note_on_c, 0, 48, 53
1, 140673, Note_on_c, 0, 72, 0
1, 140673, Note_on_c, 0, 65, 55
1, 140673, Note_on_c, 0, 48, 0
1, 140676, Note_on_c, 0, 56, 48
1, 140746, Note_on_c, 0, 65, 0
1, 140746, Note_on_c, 0, 79, 83
1, 140746, Note_on_c, 0, 56, 0
1, 140749, Note_on_c, 0, 43, 70
1, 140801, Note_on_c, 0, 79, 0
1, 140801, Note_on_c, 0, 43, 0
1, 140820, Note_on_c, 0, 67, 57
1, 140820, Note_on_c, 0, 55, 50
1, 140893, Note_on_c, 0, 67, 0
1, 140893, Note_on_c, 0, 72, 60
1, 140893, Note_on_c, 0, 55, 0
1, 140896, Note_on_c, 0, 48, 53
1, 140966, Note_on_c, 0, 72, 0
1, 140966, Note_on_c, 0, 67, 57
1, 140966, Note_on_c, 0, 48, 0
1, 140969, Note_on_c, 0, 55, 48
1, 141040, Note_on_c, 0, 67, 0
1, 141040, Note_on_c, 0, 80, 85
1, 141040, Note_on_c, 0, 55, 0
1, 141043, Note_on_c, 0, 41, 74
1, 141094, Note_on_c, 0, 80, 0
1, 141094, Note_on_c, 0, 41, 0
1, 141112, Note_on_c, 0, 68, 59
1, 141112, Note_on_c, 0, 53, 52
1, 141184, Note_on_c, 0, 68, 0
1, 141184, Note_on_c, 0, 72, 64
1, 141184, Note_on_c, 0, 53, 0
1, 141187, Note_on_c, 0, 48, 55
1, 141258, Note_on_c, 0, 72, 0
1, 141258, Note_on_c, 0, 68, 59
1, 141258, Note_on_c, 0, 48, 0
1, 141261, Note_on_c, 0, 53, 52
1, 141330, Note_on_c, 0, 68, 0
1, 141330, Note_on_c, 0, 81, 91
1, 141330, Note_on_c, 0, 53, 0
1, 141333, Note_on_c, 0, 39, 77
1, 141384, Note_on_c, 0, 81, 0
1, 141384, Note_on_c, 0, 39, 0
1, 141402, Note_on_c, 0, 69, 60
1, 141402, Note_on_c, 0, 51, 51
1, 141474, Note_on_c, 0, 69, 0
1, 141474, Note_on_c, 0, 72, 65
1, 141474, Note_on_c, 0, 51, 0
1, 141477, Note_on_c, 0, 41, 57
1, 141547, Note_on_c, 0, 72, 0
1, 141547, Note_on_c, 0, 69, 61
1, 141547, Note_on_c, 0, 41, 0
1, 141550, Note_on_c, 0, 51, 51
1, 141619, Note_on_c, 0, 69, 0
1, 141619, Note_on_c, 0, 82, 95
1, 141619, Note_on_c, 0, 51, 0
1, 141622, Note_on_c, 0, 38, 79
1, 141674, Note_on_c, 0, 82, 0
1, 141674, Note_on_c, 0, 38, 0
1, 141692, Note_on_c, 0, 70, 61
1, 141692, Note_on_c, 0, 50, 55
1, 141764, Note_on_c, 0, 70, 0
1, 141764, Note_on_c, 0, 77, 68
1, 141764, Note_on_c, 0, 50, 0
1, 141767, Note_on_c, 0, 41, 59
1, 141836, Note_on_c, 0, 77, 0
1, 141836, Note_on_c, 0, 70, 63
1, 141836, Note_on_c, 0, 41, 0
1, 141839, Note_on_c, 0, 50, 53
1, 141908, Note_on_c, 0, 70, 0
1, 141908, Note_on_c, 0, 84, 96
1, 141908, Note_on_c, 0, 50, 0
1, 141911, Note_on_c, 0, 36, 81
1, 141962, Note_on_c, 0, 84, 0
1, 141962, Note_on_c, 0, 36, 0
1, 141980, Note_on_c, 0, 72, 63
1, 141980, Note_on_c, 0, 48, 55
1, 142052, Note_on_c, 0, 72, 0
1, 142052, Note_on_c, 0, 77, 68
1, 142052, Note_on_c, 0, 48, 0
1, 142055, Note_on_c, 0, 41, 61
1, 142125, Note_on_c, 0, 77, 0
1, 142125, Note_on_c, 0, 72, 64
1, 142125, Note_on_c, 0, 41, 0
1, 142128, Note_on_c, 0, 48, 53
1, 142197, Note_on_c, 0, 72, 0
1, 142197, Note_on_c, 0, 85, 96
1, 142197, Note_on_c, 0, 48, 0
1, 142200, Note_on_c, 0, 34, 81
1, 142250, Note_on_c, 0, 85, 0
1, 142250, Note_on_c, 0, 34, 0
1, 142268, Note_on_c, 0, 73, 65
1, 142268, Note_on_c, 0, 46, 57
1, 142341, Note_on_c, 0, 73, 0
1, 142341, Note_on_c, 0, 77, 74
1, 142341, Note_on_c, 0, 46, 0
1, 142344, Note_on_c, 0, 41, 63
1, 142413, Note_on_c, 0, 77, 0
1, 142413, Note_on_c, 0, 73, 65
1, 142413, Note_on_c, 0, 41, 0
1, 142416, Note_on_c, 0, 46, 58
1, 142485, Note_on_c, 0, 73, 0
1, 142485, Note_on_c, 0, 86, 101
1, 142485, Note_on_c, 0, 46, 0
1, 142488, Note_on_c, 0, 32, 83
1, 142540, Note_on_c, 0, 86, 0
1, 142540, Note_on_c, 0, 32, 0
1, 142558, Note_on_c, 0, 74, 67
1, 142558, Note_on_c, 0, 44, 57
1, 142630, Note_on_c, 0, 74, 0
1, 142630, Note_on_c, 0, 77, 73
1, 142630, Note_on_c, 0, 44, 0
1, 142633, Note_on_c, 0, 41, 63
1, 142702, Note_on_c, 0, 77, 0
1, 142702, Note_on_c, 0, 74, 67
1, 142702, Note_on_c, 0, 41, 0
1, 142705, Note_on_c, 0, 44, 60
1, 142774, Note_on_c, 0, 74, 0
1, 142774, Note_on_c, 0, 87, 100
1, 142774, Note_on_c, 0, 44, 0
1, 142777, Note_on_c, 0, 31, 86
1, 142828, Note_on_c, 0, 87, 0
1, 142828, Note_on_c, 0, 31, 0
1, 142846, Note_on_c, 0, 75, 69
1, 142846, Note_on_c, 0, 43, 60
1, 142918, Note_on_c, 0, 75, 0
1, 142918, Note_on_c, 0, 82, 75
1, 142918, Note_on_c, 0, 43, 0
1, 142921, Note_on_c, 0, 39, 65
1, 142991, Note_on_c, 0, 82, 0
1, 142991, Note_on_c, 0, 75, 69
1, 142991, Note_on_c, 0, 39, 0
1, 142994, Note_on_c, 0, 43, 60
1, 143064, Note_on_c, 0, 75, 0
1, 143064, Note_on_c, 0, 83, 102
1, 143064, Note_on_c, 0, 43, 0
1, 143067, Note_on_c, 0, 31, 87
1, 143121, Note_on_c, 0, 83, 0
1, 143121, Note_on_c, 0, 31, 0
1, 143140, Note_on_c, 0, 71, 72
1, 143140, Note_on_c, 0, 43, 66
1, 143216, Note_on_c, 0, 71, 0
1, 143216, Note_on_c, 0, 75, 78
1, 143216, Note_on_c, 0, 43, 0
1, 143219, Note_on_c, 0, 39, 68
1, 143292, Note_on_c, 0, 75, 0
1, 143292, Note_on_c, 0, 71, 72
1, 143292, Note_on_c, 0, 39, 0
1, 143295, Note_on_c, 0, 43, 65
1, 143368, Note_on_c, 0, 71, 0
1, 143368, Note_on_c, 0, 43, 0
1, 143368, Note_on_c, 0, 32, 82
1, 143371, Note_on_c, 0, 44, 95
1, 143384, Control_c, 0, 64, 127
1, 143443, Note_on_c, 0, 72, 89
1, 143516, Note_on_c, 0, 72, 0
1, 143516, Note_on_c, 0, 75, 95
1, 143516, Note_on_c, 0, 44, 0
1, 143519, Note_on_c, 0, 32, 0
1, 143589, Note_on_c, 0, 75, 0
1, 143589, Note_on_c, 0, 72, 89
1, 143662, Note_on_c, 0, 72, 0
1, 143662, Note_on_c, 0, 84, 99
1, 143717, Note_on_c, 0, 84, 0
1, 143736, Note_on_c, 0, 72, 89
1, 143809, Note_on_c, 0, 72, 0
1, 143809, Note_on_c, 0, 75, 95
1, 143885, Note_on_c, 0, 75, 0
1, 143885, Note_on_c, 0, 72, 87
1, 143962, Note_on_c, 0, 72, 0
1, 143962, Note_on_c, 0, 46, 95
1, 143962, Note_on_c, 0, 34, 82
1, 143968, Control_c, 0, 64, 0
1, 144011, Control_c, 0, 64, 127
1, 144037, Note_on_c, 0, 65, 89
1, 144111, Note_on_c, 0, 65, 0
1, 144111, Note_on_c, 0, 68, 95
1, 144111, Note_on_c, 0, 34, 0
1, 144114, Note_on_c, 0, 46, 0
1, 144184, Note_on_c, 0, 68, 0
1, 144184, Note_on_c, 0, 65, 89
1, 144257, Note_on_c, 0, 65, 0
1, 144257, Note_on_c, 0, 74, 99
1, 144313, Note_on_c, 0, 74, 0
1, 144331, Note_on_c, 0, 65, 89
1, 144404, Note_on_c, 0, 65, 0
1, 144404, Note_on_c, 0, 68, 95
1, 144485, Note_on_c, 0, 68, 0
1, 144485, Note_on_c, 0, 65, 87
1, 144570, Note_on_c, 0, 65, 0
1, 144570, Note_on_c, 0, 51, 55
1, 144576, Control_c, 0, 64, 0
1, 144639, Control_c, 0, 64, 127
1, 144648, Note_on_c, 0, 63, 42
1, 144648, Note_on_c, 0, 58, 40
1, 144727, Note_on_c, 0, 63, 0
1, 144727, Note_on_c, 0, 67, 46
1, 144727, Note_on_c, 0, 58, 0
1, 144730, Note_on_c, 0, 55, 42
1, 144805, Note_on_c, 0, 67, 0
1, 144805, Note_on_c, 0, 63, 45
1, 144805, Note_on_c, 0, 55, 0
1, 144808, Note_on_c, 0, 58, 39
1, 144883, Note_on_c, 0, 63, 0
1, 144883, Note_on_c, 0, 75, 64
1, 144883, Note_on_c, 0, 58, 0
1, 144886, Note_on_c, 0, 55, 48
1, 144961, Note_on_c, 0, 63, 43
1, 144961, Note_on_c, 0, 55, 0
1, 144961, Note_on_c, 0, 58, 40
1, 145039, Note_on_c, 0, 63, 0
1, 145039, Note_on_c, 0, 67, 45
1, 145039, Note_on_c, 0, 58, 0
1, 145042, Note_on_c, 0, 55, 43
1, 145116, Note_on_c, 0, 67, 0
1, 145116, Note_on_c, 0, 63, 42
1, 145116, Note_on_c, 0, 55, 0
1, 145119, Note_on_c, 0, 58, 40
1, 145193, Note_on_c, 0, 63, 0
1, 145193, Note_on_c, 0, 67, 45
1, 145193, Note_on_c, 0, 58, 0
1, 145196, Note_on_c, 0, 55, 48
1, 145196, Control_c, 0, 64, 0
1, 145234, Control_c, 0, 64, 127
1, 145270, Note_on_c, 0, 67, 0
1, 145270, Note_on_c, 0, 63, 43
1, 145270, Note_on_c, 0, 55, 0
1, 145273, Note_on_c, 0, 58, 39
1, 145347, Note_on_c, 0, 63, 0
1, 145347, Note_on_c, 0, 67, 45
1, 145347, Note_on_c, 0, 58, 0
1, 145350, Note_on_c, 0, 55, 42
1, 145424, Note_on_c, 0, 67, 0
1, 145424, Note_on_c, 0, 63, 42
1, 145424, Note_on_c, 0, 55, 0
1, 145427, Note_on_c, 0, 58, 39
1, 145501, Note_on_c, 0, 63, 0
1, 145501, Note_on_c, 0, 75, 0
1, 145501, Note_on_c, 0, 75, 63
1, 145504, Note_on_c, 0, 58, 0
1, 145504, Note_on_c, 0, 51, 0
1, 145504, Note_on_c, 0, 51, 48
1, 145578, Note_on_c, 0, 63, 42
1, 145578, Note_on_c, 0, 58, 40
1, 145655, Note_on_c, 0, 63, 0
1, 145655, Note_on_c, 0, 67, 45
1, 145655, Note_on_c, 0, 58, 0
1, 145658, Note_on_c, 0, 55, 43
1, 145732, Note_on_c, 0, 67, 0
1, 145732, Note_on_c, 0, 63, 43
1, 145732, Note_on_c, 0, 55, 0
1, 145735, Note_on_c, 0, 58, 39
1, 145809, Note_on_c, 0, 63, 0
1, 145809, Note_on_c, 0, 75, 0
1, 145809, Note_on_c, 0, 58, 0
1, 145812, Note_on_c, 0, 51, 0
1, 145812, Note_on_c, 0, 49, 55
1, 145812, Control_c, 0, 64, 0
1, 145873, Control_c, 0, 64, 127
1, 145893, Note_on_c, 0, 63, 42
1, 145893, Note_on_c, 0, 58, 40
1, 145976, Note_on_c, 0, 63, 0
1, 145976, Note_on_c, 0, 67, 46
1, 145976, Note_on_c, 0, 58, 0
1, 145979, Note_on_c, 0, 55, 42
1, 146054, Note_on_c, 0, 67, 0
1, 146054, Note_on_c, 0, 63, 45
1, 146054, Note_on_c, 0, 55, 0
1, 146057, Note_on_c, 0, 58, 39
1, 146132, Note_on_c, 0, 63, 0
1, 146132, Note_on_c, 0, 75, 64
1, 146132, Note_on_c, 0, 58, 0
1, 146135, Note_on_c, 0, 55, 48
1, 146210, Note_on_c, 0, 63, 43
1, 146210, Note_on_c, 0, 55, 0
1, 146210, Note_on_c, 0, 58, 40
1, 146288, Note_on_c, 0, 63, 0
1, 146288, Note_on_c, 0, 67, 45
1, 146288, Note_on_c, 0, 58, 0
1, 146291, Note_on_c, 0, 55, 43
1, 146365, Note_on_c, 0, 67, 0
1, 146365, Note_on_c, 0, 63, 42
1, 146365, Note_on_c, 0, 55, 0
1, 146368, Note_on_c, 0, 58, 40
1, 146443, Note_on_c, 0, 63, 0
1, 146443, Note_on_c, 0, 67, 45
1, 146443, Note_on_c, 0, 58, 0
1, 146446, Note_on_c, 0, 55, 48
1, 146449, Control_c, 0, 64, 0
1, 146484, Control_c, 0, 64, 127
1, 146520, Note_on_c, 0, 67, 0
1, 146520, Note_on_c, 0, 63, 43
1, 146520, Note_on_c, 0, 55, 0
1, 146523, Note_on_c, 0, 58, 39
1, 146597, Note_on_c, 0, 63, 0
1, 146597, Note_on_c, 0, 67, 45
1, 146597, Note_on_c, 0, 58, 0
1, 146600, Note_on_c, 0, 55, 42
1, 146674, Note_on_c, 0, 67, 0
1, 146674, Note_on_c, 0, 63, 42
1, 146674, Note_on_c, 0, 55, 0
1, 146677, Note_on_c, 0, 58, 39
1, 146752, Note_on_c, 0, 63, 0
1, 146752, Note_on_c, 0, 75, 0
1, 146752, Note_on_c, 0, 75, 63
1, 146755, Note_on_c, 0, 58, 0
1, 146755, Note_on_c, 0, 49, 0
1, 146755, Note_on_c, 0, 49, 48
1, 146829, Note_on_c, 0, 63, 42
1, 146829, Note_on_c, 0, 58, 40
1, 146906, Note_on_c, 0, 63, 0
1, 146906, Note_on_c, 0, 67, 45
1, 146906, Note_on_c, 0, 58, 0
1, 146909, Note_on_c, 0, 55, 43
1, 146983, Note_on_c, 0, 67, 0
1, 146983, Note_on_c, 0, 63, 43
1, 146983, Note_on_c, 0, 55, 0
1, 146986, Note_on_c, 0, 58, 39
1, 147067, Note_on_c, 0, 63, 0
1, 147067, Note_on_c, 0, 75, 0
1, 147067, Note_on_c, 0, 75, 77
1, 147070, Note_on_c, 0, 58, 0
1, 147070, Note_on_c, 0, 49, 0
1, 147070, Note_on_c, 0, 48, 65
1, 147070, Control_c, 0, 64, 0
1, 147124, Note_on_c, 0, 75, 0
1, 147124, Note_on_c, 0, 48, 0
1, 147143, Note_on_c, 0, 63, 51
1, 147143, Note_on_c, 0, 56, 46
1, 147219, Note_on_c, 0, 63, 0
1, 147219, Note_on_c, 0, 68, 55
1, 147219, Note_on_c, 0, 56, 0
1, 147222, Note_on_c, 0, 51, 49
1, 147295, Note_on_c, 0, 68, 0
1, 147295, Note_on_c, 0, 63, 52
1, 147295, Note_on_c, 0, 51, 0
1, 147298, Note_on_c, 0, 56, 45
1, 147371, Note_on_c, 0, 63, 0
1, 147371, Note_on_c, 0, 76, 78
1, 147371, Note_on_c, 0, 56, 0
1, 147374, Note_on_c, 0, 46, 66
1, 147427, Note_on_c, 0, 76, 0
1, 147427, Note_on_c, 0, 46, 0
1, 147446, Note_on_c, 0, 64, 53
1, 147446, Note_on_c, 0, 55, 46
1, 147522, Note_on_c, 0, 64, 0
1, 147522, Note_on_c, 0, 72, 57
1, 147522, Note_on_c, 0, 55, 0
1, 147525, Note_on_c, 0, 48, 53
1, 147597, Note_on_c, 0, 72, 0
1, 147597, Note_on_c, 0, 64, 53
1, 147597, Note_on_c, 0, 48, 0
1, 147600, Note_on_c, 0, 55, 51
1, 147672, Note_on_c, 0, 64, 0
1, 147672, Note_on_c, 0, 77, 82
1, 147672, Note_on_c, 0, 55, 0
1, 147675, Note_on_c, 0, 44, 68
1, 147727, Note_on_c, 0, 77, 0
1, 147727, Note_on_c, 0, 44, 0
1, 147745, Note_on_c, 0, 65, 55
1, 147745, Note_on_c, 0, 56, 48
1, 147819, Note_on_c, 0, 65, 0
1, 147819, Note_on_c, 0, 72, 60
1, 147819, Note_on_c, 0, 56, 0
1, 147822, Note_on_c, 0, 48, 53
1, 147892, Note_on_c, 0, 72, 0
1, 147892, Note_on_c, 0, 65, 55
1, 147892, Note_on_c, 0, 48, 0
1, 147895, Note_on_c, 0, 56, 48
1, 147966, Note_on_c, 0, 65, 0
1, 147966, Note_on_c, 0, 79, 83
1, 147966, Note_on_c, 0, 56, 0
1, 147969, Note_on_c, 0, 43, 70
1, 148021, Note_on_c, 0, 79, 0
1, 148021, Note_on_c, 0, 43, 0
1, 148039, Note_on_c, 0, 67, 57
1, 148039, Note_on_c, 0, 55, 50
1, 148112, Note_on_c, 0, 67, 0
1, 148112, Note_on_c, 0, 72, 60
1, 148112, Note_on_c, 0, 55, 0
1, 148115, Note_on_c, 0, 48, 53
1, 148186, Note_on_c, 0, 72, 0
1, 148186, Note_on_c, 0, 67, 57
1, 148186, Note_on_c, 0, 48, 0
1, 148189, Note_on_c, 0, 55, 48
1, 148259, Note_on_c, 0, 67, 0
1, 148259, Note_on_c, 0, 80, 85
1, 148259, Note_on_c, 0, 55, 0
1, 148262, Note_on_c, 0, 41, 74
1, 148314, Note_on_c, 0, 80, 0
1, 148314, Note_on_c, 0, 41, 0
1, 148332, Note_on_c, 0, 68, 59
1, 148332, Note_on_c, 0, 53, 52
1, 148404, Note_on_c, 0, 68, 0
1, 148404, Note_on_c, 0, 72, 64
1, 148404, Note_on_c, 0, 53, 0
1, 148407, Note_on_c, 0, 48, 55
1, 148477, Note_on_c, 0, 72, 0
1, 148477, Note_on_c, 0, 68, 59
1, 148477, Note_on_c, 0, 48, 0
1, 148480, Note_on_c, 0, 53, 52
1, 148549, Note_on_c, 0, 68, 0
1, 148549, Note_on_c, 0, 81, 91
1, 148549, Note_on_c, 0, 53, 0
1, 148552, Note_on_c, 0, 39, 77
1, 148604, Note_on_c, 0, 81, 0
1, 148604, Note_on_c, 0, 39, 0
1, 148622, Note_on_c, 0, 69, 60
1, 148622, Note_on_c, 0, 51, 51
1, 148694, Note_on_c, 0, 69, 0
1, 148694, Note_on_c, 0, 72, 65
1, 148694, Note_on_c, 0, 51, 0
1, 148697, Note_on_c, 0, 41, 57
1, 148767, Note_on_c, 0, 72, 0
1, 148767, Note_on_c, 0, 69, 61
1, 148767, Note_on_c, 0, 41, 0
1, 148770, Note_on_c, 0, 51, 51
1, 148839, Note_on_c, 0, 69, 0
1, 148839, Note_on_c, 0, 82, 95
1, 148839, Note_on_c, 0, 51, 0
1, 148842, Note_on_c, 0, 38, 79
1, 148894, Note_on_c, 0, 82, 0
1, 148894, Note_on_c, 0, 38, 0
1, 148912, Note_on_c, 0, 70, 61
1, 148912, Note_on_c, 0, 50, 55
1, 148984, Note_on_c, 0, 70, 0
1, 148984, Note_on_c, 0, 77, 68
1, 148984, Note_on_c, 0, 50, 0
1, 148987, Note_on_c, 0, 41, 59
1, 149057, Note_on_c, 0, 77, 0
1, 149057, Note_on_c, 0, 70, 63
1, 149057, Note_on_c, 0, 41, 0
1, 149060, Note_on_c, 0, 50, 53
1, 149130, Note_on_c, 0, 70, 0
1, 149130, Note_on_c, 0, 84, 96
1, 149130, Note_on_c, 0, 50, 0
1, 149133, Note_on_c, 0, 36, 81
1, 149184, Note_on_c, 0, 84, 0
1, 149184, Note_on_c, 0, 36, 0
1, 149202, Note_on_c, 0, 72, 63
1, 149202, Note_on_c, 0, 48, 55
1, 149275, Note_on_c, 0, 72, 0
1, 149275, Note_on_c, 0, 77, 68
1, 149275, Note_on_c, 0, 48, 0
1, 149278, Note_on_c, 0, 41, 61
1, 149347, Note_on_c, 0, 77, 0
1, 149347, Note_on_c, 0, 72, 64
1, 149347, Note_on_c, 0, 41, 0
1, 149350, Note_on_c, 0, 48, 53
1, 149419, Note_on_c, 0, 72, 0
1, 149419, Note_on_c, 0, 85, 96
1, 149419, Note_on_c, 0, 48, 0
1, 149422, Note_on_c, 0, 34, 81
1, 149474, Note_on_c, 0, 85, 0
1, 149474, Note_on_c, 0, 34, 0
1, 149492, Note_on_c, 0, 73, 65
1, 149492, Note_on_c, 0, 46, 57
1, 149564, Note_on_c, 0, 73, 0
1, 149564, Note_on_c, 0, 77, 74
1, 149564, Note_on_c, 0, 46, 0
1, 149567, Note_on_c, 0, 41, 63
1, 149636, Note_on_c, 0, 77, 0
1, 149636, Note_on_c, 0, 73, 65
1, 149636, Note_on_c, 0, 41, 0
1, 149639, Note_on_c, 0, 46, 58
1, 149709, Note_on_c, 0, 73, 0
1, 149709, Note_on_c, 0, 86, 101
1, 149709, Note_on_c, 0, 46, 0
1, 149712, Note_on_c, 0, 32, 83
1, 149763, Note_on_c, 0, 86, 0
1, 149763, Note_on_c, 0, 32, 0
1, 149781, Note_on_c, 0, 74, 67
1, 149781, Note_on_c, 0, 44, 57
1, 149853, Note_on_c, 0, 74, 0
1, 149853, Note_on_c, 0, 77, 73
1, 149853, Note_on_c, 0, 44, 0
1, 149856, Note_on_c, 0, 41, 63
1, 149925, Note_on_c, 0, 77, 0
1, 149925, Note_on_c, 0, 74, 67
1, 149925, Note_on_c, 0, 41, 0
1, 149928, Note_on_c, 0, 44, 60
1, 149997, Note_on_c, 0, 74, 0
1, 149997, Note_on_c, 0, 87, 100
1, 149997, Note_on_c, 0, 44, 0
1, 150000, Note_on_c, 0, 31, 86
1, 150051, Note_on_c, 0, 87, 0
1, 150051, Note_on_c, 0, 31, 0
1, 150070, Note_on_c, 0, 75, 69
1, 150070, Note_on_c, 0, 43, 60
1, 150143, Note_on_c, 0, 75, 0
1, 150143, Note_on_c, 0, 82, 75
1, 150143, Note_on_c, 0, 43, 0
1, 150146, Note_on_c, 0, 39, 65
1, 150216, Note_on_c, 0, 82, 0
1, 150216, Note_on_c, 0, 75, 69
1, 150216, Note_on_c, 0, 39, 0
1, 150219, Note_on_c, 0, 43, 60
1, 150289, Note_on_c, 0, 75, 0
1, 150289, Note_on_c, 0, 88, 102
1, 150289, Note_on_c, 0, 43, 0
1, 150292, Note_on_c, 0, 31, 87
1, 150346, Note_on_c, 0, 88, 0
1, 150346, Note_on_c, 0, 31, 0
1, 150365, Note_on_c, 0, 76, 72
1, 150365, Note_on_c, 0, 43, 66
1, 150441, Note_on_c, 0, 76, 0
1, 150441, Note_on_c, 0, 82, 78
1, 150441, Note_on_c, 0, 43, 0
1, 150444, Note_on_c, 0, 31, 68
1, 150517, Note_on_c, 0, 82, 0
1, 150517, Note_on_c, 0, 76, 72
1, 150517, Note_on_c, 0, 31, 0
1, 150520, Note_on_c, 0, 43, 65
1, 150593, Note_on_c, 0, 76, 0
1, 150593, Note_on_c, 0, 43, 0
1, 150593, Note_on_c, 0, 32, 82
1, 150596, Note_on_c, 0, 44, 95
1, 150643, Control_c, 0, 64, 127
1, 150670, Note_on_c, 0, 80, 89
1, 150743, Note_on_c, 0, 80, 0
1, 150743, Note_on_c, 0, 84, 95
1, 150743, Note_on_c, 0, 44, 0
1, 150746, Note_on_c, 0, 32, 0
1, 150816, Note_on_c, 0, 84, 0
1, 150816, Note_on_c, 0, 80, 89
1, 150889, Note_on_c, 0, 80, 0
1, 150889, Note_on_c, 0, 89, 99
1, 150944, Note_on_c, 0, 89, 0
1, 150962, Note_on_c, 0, 80, 89
1, 151036, Note_on_c, 0, 80, 0
1, 151036, Note_on_c, 0, 84, 95
1, 151112, Note_on_c, 0, 84, 0
1, 151112, Note_on_c, 0, 80, 87
1, 151188, Note_on_c, 0, 80, 0
1, 151188, Note_on_c, 0, 46, 95
1, 151188, Note_on_c, 0, 34, 82
1, 151194, Control_c, 0, 64, 0
1, 151237, Control_c, 0, 64, 127
1, 151264, Note_on_c, 0, 77, 89
1, 151337, Note_on_c, 0, 77, 0
1, 151337, Note_on_c, 0, 80, 95
1, 151337, Note_on_c, 0, 34, 0
1, 151340, Note_on_c, 0, 46, 0
1, 151411, Note_on_c, 0, 80, 0
1, 151411, Note_on_c, 0, 77, 89
1, 151484, Note_on_c, 0, 77, 0
1, 151484, Note_on_c, 0, 86, 99
1, 151539, Note_on_c, 0, 86, 0
1, 151557, Note_on_c, 0, 77, 89
1, 151631, Note_on_c, 0, 77, 0
1, 151631, Note_on_c, 0, 80, 95
1, 151707, Note_on_c, 0, 80, 0
1, 151707, Note_on_c, 0, 77, 87
1, 151783, Note_on_c, 0, 77, 0
1, 151783, Note_on_c, 0, 79, 92
1, 151783, Note_on_c, 0, 39, 95
1, 151786, Note_on_c, 0, 51, 95
1, 151786, Control_c, 0, 64, 0
1, 151842, Note_on_c, 0, 79, 0
1, 151940, Note_on_c, 0, 87, 68
1, 151940, Note_on_c, 0, 51, 0
1, 151940, Note_on_c, 0, 39, 0
1, 151943, Note_on_c, 0, 63, 44
1, 151943, Note_on_c, 0, 67, 44
1, 151958, Control_c, 0, 64, 127
1, 152089, Note_on_c, 0, 67, 0
1, 152089, Note_on_c, 0, 63, 0
1, 152089, Note_on_c, 0, 63, 44
1, 152092, Note_on_c, 0, 67, 44
1, 152238, Note_on_c, 0, 87, 0
1, 152238, Note_on_c, 0, 86, 56
1, 152238, Note_on_c, 0, 67, 0
1, 152241, Note_on_c, 0, 63, 0
1, 152241, Note_on_c, 0, 63, 44
1, 152241, Note_on_c, 0, 67, 44
1, 152313, Note_on_c, 0, 86, 0
1, 152313, Note_on_c, 0, 87, 58
1, 152389, Note_on_c, 0, 87, 0
1, 152389, Note_on_c, 0, 89, 59
1, 152389, Note_on_c, 0, 67, 0
1, 152392, Note_on_c, 0, 63, 0
1, 152392, Note_on_c, 0, 60, 44
1, 152392, Control_c, 0, 64, 0
1, 152430, Control_c, 0, 64, 127
1, 152466, Note_on_c, 0, 89, 0
1, 152466, Note_on_c, 0, 87, 59
1, 152542, Note_on_c, 0, 87, 0
1, 152542, Note_on_c, 0, 86, 58
1, 152542, Note_on_c, 0, 63, 44
1, 152545, Note_on_c, 0, 67, 44
1, 152616, Note_on_c, 0, 86, 0
1, 152616, Note_on_c, 0, 84, 57
1, 152691, Note_on_c, 0, 84, 0
1, 152691, Note_on_c, 0, 83, 55
1, 152691, Note_on_c, 0, 67, 0
1, 152694, Note_on_c, 0, 63, 0
1, 152694, Note_on_c, 0, 63, 44
1, 152694, Note_on_c, 0, 67, 44
1, 152765, Note_on_c, 0, 83, 0
1, 152765, Note_on_c, 0, 84, 56
1, 152839, Note_on_c, 0, 84, 0
1, 152839, Note_on_c, 0, 86, 59
1, 152839, Note_on_c, 0, 67, 0
1, 152842, Note_on_c, 0, 63, 0
1, 152842, Note_on_c, 0, 63, 44
1, 152842, Note_on_c, 0, 67, 44
1, 152914, Note_on_c, 0, 86, 0
1, 152914, Note_on_c, 0, 84, 57
1, 152990, Note_on_c, 0, 84, 0
1, 152990, Note_on_c, 0, 82, 59
1, 152990, Note_on_c, 0, 67, 0
1, 152993, Note_on_c, 0, 63, 0
1, 152993, Note_on_c, 0, 60, 0
1, 152993, Note_on_c, 0, 56, 44
1, 152993, Control_c, 0, 64, 0
1, 153030, Control_c, 0, 64, 127
1, 153066, Note_on_c, 0, 82, 0
1, 153066, Note_on_c, 0, 80, 57
1, 153141, Note_on_c, 0, 80, 0
1, 153141, Note_on_c, 0, 79, 56
1, 153141, Note_on_c, 0, 65, 44
1, 153144, Note_on_c, 0, 63, 44
1, 153215, Note_on_c, 0, 79, 0
1, 153215, Note_on_c, 0, 77, 55
1, 153289, Note_on_c, 0, 77, 0
1, 153289, Note_on_c, 0, 76, 55
1, 153289, Note_on_c, 0, 63, 0
1, 153292, Note_on_c, 0, 65, 0
1, 153292, Note_on_c, 0, 63, 44
1, 153292, Note_on_c, 0, 65, 44
1, 153363, Note_on_c, 0, 76, 0
1, 153363, Note_on_c, 0, 77, 55
1, 153437, Note_on_c, 0, 77, 0
1, 153437, Note_on_c, 0, 79, 57
1, 153437, Note_on_c, 0, 65, 0
1, 153440, Note_on_c, 0, 63, 0
1, 153440, Note_on_c, 0, 63, 44
1, 153440, Note_on_c, 0, 65, 44
1, 153512, Note_on_c, 0, 79, 0
1, 153512, Note_on_c, 0, 77, 55
1, 153587, Note_on_c, 0, 77, 0
1, 153587, Note_on_c, 0, 75, 56
1, 153587, Note_on_c, 0, 65, 0
1, 153590, Note_on_c, 0, 63, 0
1, 153590, Note_on_c, 0, 56, 0
1, 153590, Note_on_c, 0, 58, 44
1, 153594, Control_c, 0, 64, 0
1, 153649, Control_c, 0, 64, 127
1, 153663, Note_on_c, 0, 75, 0
1, 153663, Note_on_c, 0, 74, 56
1, 153738, Note_on_c, 0, 74, 0
1, 153738, Note_on_c, 0, 72, 55
1, 153738, Note_on_c, 0, 62, 44
1, 153741, Note_on_c, 0, 65, 44
1, 153813, Note_on_c, 0, 72, 0
1, 153813, Note_on_c, 0, 70, 55
1, 153887, Note_on_c, 0, 70, 0
1, 153887, Note_on_c, 0, 69, 55
1, 153887, Note_on_c, 0, 65, 0
1, 153890, Note_on_c, 0, 62, 0
1, 153890, Note_on_c, 0, 62, 44
1, 153890, Note_on_c, 0, 65, 44
1, 153961, Note_on_c, 0, 69, 0
1, 153961, Note_on_c, 0, 70, 52
1, 154036, Note_on_c, 0, 70, 0
1, 154036, Note_on_c, 0, 72, 56
1, 154036, Note_on_c, 0, 65, 0
1, 154039, Note_on_c, 0, 62, 0
1, 154039, Note_on_c, 0, 62, 44
1, 154039, Note_on_c, 0, 65, 44
1, 154110, Note_on_c, 0, 72, 0
1, 154110, Note_on_c, 0, 68, 52
1, 154184, Note_on_c, 0, 68, 0
1, 154184, Note_on_c, 0, 79, 77
1, 154184, Note_on_c, 0, 65, 0
1, 154187, Note_on_c, 0, 62, 0
1, 154187, Note_on_c, 0, 58, 0
1, 154187, Note_on_c, 0, 51, 69
1, 154190, Control_c, 0, 64, 0
1, 154243, Note_on_c, 0, 79, 0
1, 154342, Note_on_c, 0, 75, 79
1, 154342, Note_on_c, 0, 87, 79
1, 154342, Note_on_c, 0, 55, 54
1, 154345, Note_on_c, 0, 63, 54
1, 154359, Control_c, 0, 64, 127
1, 154490, Note_on_c, 0, 63, 0
1, 154490, Note_on_c, 0, 55, 0
1, 154490, Note_on_c, 0, 55, 54
1, 154493, Note_on_c, 0, 63, 54
1, 154639, Note_on_c, 0, 87, 0
1, 154639, Note_on_c, 0, 75, 0
1, 154639, Note_on_c, 0, 86, 72
1, 154642, Note_on_c, 0, 63, 0
1, 154642, Note_on_c, 0, 55, 0
1, 154642, Note_on_c, 0, 55, 54
1, 154645, Note_on_c, 0, 63, 54
1, 154714, Note_on_c, 0, 86, 0
1, 154714, Note_on_c, 0, 87, 75
1, 154791, Note_on_c, 0, 87, 0
1, 154791, Note_on_c, 0, 89, 77
1, 154791, Note_on_c, 0, 63, 0
1, 154794, Note_on_c, 0, 55, 0
1, 154794, Note_on_c, 0, 51, 0
1, 154794, Note_on_c, 0, 48, 55
1, 154794, Control_c, 0, 64, 0
1, 154831, Control_c, 0, 64, 127
1, 154868, Note_on_c, 0, 89, 0
1, 154868, Note_on_c, 0, 87, 77
1, 154943, Note_on_c, 0, 87, 0
1, 154943, Note_on_c, 0, 86, 76
1, 154943, Note_on_c, 0, 55, 56
1, 154946, Note_on_c, 0, 51, 56
1, 154946, Note_on_c, 0, 60, 56
1, 155017, Note_on_c, 0, 86, 0
1, 155017, Note_on_c, 0, 84, 75
1, 155092, Note_on_c, 0, 84, 0
1, 155092, Note_on_c, 0, 83, 73
1, 155092, Note_on_c, 0, 60, 0
1, 155095, Note_on_c, 0, 51, 0
1, 155095, Note_on_c, 0, 55, 0
1, 155095, Note_on_c, 0, 55, 56
1, 155098, Note_on_c, 0, 51, 56
1, 155098, Note_on_c, 0, 60, 56
1, 155166, Note_on_c, 0, 83, 0
1, 155166, Note_on_c, 0, 84, 75
1, 155241, Note_on_c, 0, 84, 0
1, 155241, Note_on_c, 0, 86, 79
1, 155241, Note_on_c, 0, 60, 0
1, 155244, Note_on_c, 0, 51, 0
1, 155244, Note_on_c, 0, 55, 0
1, 155244, Note_on_c, 0, 55, 57
1, 155247, Note_on_c, 0, 51, 57
1, 155247, Note_on_c, 0, 60, 57
1, 155315, Note_on_c, 0, 86, 0
1, 155315, Note_on_c, 0, 84, 77
1, 155391, Note_on_c, 0, 84, 0
1, 155391, Note_on_c, 0, 82, 80
1, 155391, Note_on_c, 0, 60, 0
1, 155394, Note_on_c, 0, 48, 0
1, 155394, Note_on_c, 0, 55, 0
1, 155394, Note_on_c, 0, 51, 0
1, 155397, Note_on_c, 0, 44, 57
1, 155397, Control_c, 0, 64, 0
1, 155431, Control_c, 0, 64, 127
1, 155467, Note_on_c, 0, 82, 0
1, 155467, Note_on_c, 0, 80, 78
1, 155542, Note_on_c, 0, 80, 0
1, 155542, Note_on_c, 0, 79, 77
1, 155542, Note_on_c, 0, 53, 58
1, 155545, Note_on_c, 0, 56, 58
1, 155545, Note_on_c, 0, 51, 58
1, 155616, Note_on_c, 0, 79, 0
1, 155616, Note_on_c, 0, 77, 76
1, 155690, Note_on_c, 0, 77, 0
1, 155690, Note_on_c, 0, 76, 76
1, 155690, Note_on_c, 0, 51, 0
1, 155693, Note_on_c, 0, 56, 0
1, 155693, Note_on_c, 0, 53, 0
1, 155693, Note_on_c, 0, 53, 58
1, 155696, Note_on_c, 0, 51, 58
1, 155696, Note_on_c, 0, 56, 58
1, 155764, Note_on_c, 0, 76, 0
1, 155764, Note_on_c, 0, 77, 75
1, 155838, Note_on_c, 0, 77, 0
1, 155838, Note_on_c, 0, 79, 79
1, 155838, Note_on_c, 0, 56, 0
1, 155841, Note_on_c, 0, 51, 0
1, 155841, Note_on_c, 0, 53, 0
1, 155841, Note_on_c, 0, 53, 59
1, 155844, Note_on_c, 0, 51, 59
1, 155844, Note_on_c, 0, 56, 59
1, 155913, Note_on_c, 0, 79, 0
1, 155913, Note_on_c, 0, 77, 77
1, 155989, Note_on_c, 0, 77, 0
1, 155989, Note_on_c, 0, 75, 79
1, 155989, Note_on_c, 0, 56, 0
1, 155992, Note_on_c, 0, 44, 0
1, 155992, Note_on_c, 0, 53, 0
1, 155992, Note_on_c, 0, 51, 0
1, 155995, Note_on_c, 0, 46, 59
1, 155995, Control_c, 0, 64, 0
1, 156050, Control_c, 0, 64, 127
1, 156065, Note_on_c, 0, 75, 0
1, 156065, Note_on_c, 0, 74, 79
1, 156139, Note_on_c, 0, 74, 0
1, 156139, Note_on_c, 0, 72, 79
1, 156139, Note_on_c, 0, 53, 60
1, 156142, Note_on_c, 0, 50, 60
1, 156142, Note_on_c, 0, 58, 60
1, 156214, Note_on_c, 0, 72, 0
1, 156214, Note_on_c, 0, 70, 79
1, 156288, Note_on_c, 0, 70, 0
1, 156288, Note_on_c, 0, 69, 78
1, 156288, Note_on_c, 0, 58, 0
1, 156291, Note_on_c, 0, 50, 0
1, 156291, Note_on_c, 0, 53, 0
1, 156291, Note_on_c, 0, 53, 60
1, 156294, Note_on_c, 0, 50, 60
1, 156294, Note_on_c, 0, 58, 60
1, 156363, Note_on_c, 0, 69, 0
1, 156363, Note_on_c, 0, 70, 75
1, 156437, Note_on_c, 0, 70, 0
1, 156437, Note_on_c, 0, 72, 81
1, 156437, Note_on_c, 0, 58, 0
1, 156440, Note_on_c, 0, 50, 0
1, 156440, Note_on_c, 0, 53, 0
1, 156440, Note_on_c, 0, 53, 61
1, 156443, Note_on_c, 0, 50, 61
1, 156443, Note_on_c, 0, 58, 61
1, 156513, Note_on_c, 0, 72, 0
1, 156513, Note_on_c, 0, 70, 75
1, 156592, Note_on_c, 0, 70, 0
1, 156592, Note_on_c, 0, 75, 94
1, 156592, Note_on_c, 0, 58, 0
1, 156595, Note_on_c, 0, 46, 0
1, 156595, Note_on_c, 0, 53, 0
1, 156595, Note_on_c, 0, 50, 0
1, 156598, Note_on_c, 0, 39, 78
1, 156598, Control_c, 0, 64, 0
1, 156675, Note_on_c, 0, 75, 0
1, 156675, Note_on_c, 0, 51, 70
1, 156758, Note_on_c, 0, 63, 93
1, 156758, Note_on_c, 0, 51, 0
1, 156758, Note_on_c, 0, 39, 0
1, 156761, Note_on_c, 0, 39, 78
1, 156832, Note_on_c, 0, 51, 69
1, 156907, Note_on_c, 0, 51, 0
1, 156907, Note_on_c, 0, 39, 0
1, 156907, Note_on_c, 0, 39, 78
1, 156982, Note_on_c, 0, 51, 70
1, 157058, Note_on_c, 0, 63, 0
1, 157058, Note_on_c, 0, 61, 91
1, 157058, Note_on_c, 0, 67, 91
1, 157061, Note_on_c, 0, 51, 0
1, 157061, Note_on_c, 0, 39, 0
1, 157061, Note_on_c, 0, 39, 77
1, 157132, Note_on_c, 0, 67, 0
1, 157132, Note_on_c, 0, 61, 0
1, 157132, Note_on_c, 0, 51, 70
1, 157207, Note_on_c, 0, 60, 92
1, 157207, Note_on_c, 0, 68, 92
1, 157207, Note_on_c, 0, 51, 0
1, 157210, Note_on_c, 0, 39, 0
1, 157210, Note_on_c, 0, 39, 77
1, 157281, Note_on_c, 0, 68, 0
1, 157281, Note_on_c, 0, 60, 0
1, 157281, Note_on_c, 0, 51, 69
1, 157355, Note_on_c, 0, 67, 93
1, 157355, Note_on_c, 0, 70, 93
1, 157355, Note_on_c, 0, 51, 0
1, 157358, Note_on_c, 0, 39, 0
1, 157358, Note_on_c, 0, 39, 77
1, 157430, Note_on_c, 0, 70, 0
1, 157430, Note_on_c, 0, 67, 0
1, 157430, Note_on_c, 0, 51, 70
1, 157504, Note_on_c, 0, 68, 94
1, 157504, Note_on_c, 0, 72, 94
1, 157504, Note_on_c, 0, 51, 0
1, 157507, Note_on_c, 0, 39, 0
1, 157507, Note_on_c, 0, 39, 77
1, 157579, Note_on_c, 0, 72, 0
1, 157579, Note_on_c, 0, 68, 0
1, 157579, Note_on_c, 0, 51, 70
1, 157653, Note_on_c, 0, 68, 96
1, 157653, Note_on_c, 0, 74, 96
1, 157653, Note_on_c, 0, 51, 0
1, 157656, Note_on_c, 0, 39, 0
1, 157656, Note_on_c, 0, 39, 77
1, 157727, Note_on_c, 0, 74, 0
1, 157727, Note_on_c, 0, 68, 0
1, 157727, Note_on_c, 0, 51, 72
1, 157802, Note_on_c, 0, 67, 94
1, 157802, Note_on_c, 0, 75, 94
1, 157802, Note_on_c, 0, 51, 0
1, 157805, Note_on_c, 0, 39, 0
1, 157805, Note_on_c, 0, 39, 78
1, 157880, Note_on_c, 0, 75, 0
1, 157880, Note_on_c, 0, 67, 0
1, 157880, Note_on_c, 0, 51, 70
1, 157958, Note_on_c, 0, 75, 93
1, 157958, Note_on_c, 0, 51, 0
1, 157958, Note_on_c, 0, 39, 0
1, 157961, Note_on_c, 0, 39, 78
1, 158033, Note_on_c, 0, 51, 69
1, 158107, Note_on_c, 0, 51, 0
1, 158107, Note_on_c, 0, 39, 0
1, 158107, Note_on_c, 0, 39, 78
1, 158183, Note_on_c, 0, 51, 70
1, 158258, Note_on_c, 0, 75, 0
1, 158258, Note_on_c, 0, 73, 91
1, 158258, Note_on_c, 0, 79, 91
1, 158261, Note_on_c, 0, 51, 0
1, 158261, Note_on_c, 0, 39, 0
1, 158261, Note_on_c, 0, 39, 77
1, 158333, Note_on_c, 0, 79, 0
1, 158333, Note_on_c, 0, 73, 0
1, 158333, Note_on_c, 0, 51, 70
1, 158407, Note_on_c, 0, 72, 92
1, 158407, Note_on_c, 0, 80, 92
1, 158407, Note_on_c, 0, 51, 0
1, 158410, Note_on_c, 0, 39, 0
1, 158410, Note_on_c, 0, 39, 77
1, 158481, Note_on_c, 0, 80, 0
1, 158481, Note_on_c, 0, 72, 0
1, 158481, Note_on_c, 0, 51, 69
1, 158556, Note_on_c, 0, 79, 93
1, 158556, Note_on_c, 0, 82, 93
1, 158556, Note_on_c, 0, 51, 0
1, 158559, Note_on_c, 0, 39, 0
1, 158559, Note_on_c, 0, 39, 77
1, 158630, Note_on_c, 0, 82, 0
1, 158630, Note_on_c, 0, 79, 0
1, 158630, Note_on_c, 0, 51, 70
1, 158705, Note_on_c, 0, 80, 94
1, 158705, Note_on_c, 0, 84, 94
1, 158705, Note_on_c, 0, 51, 0
1, 158708, Note_on_c, 0, 39, 0
1, 158708, Note_on_c, 0, 39, 77
1, 158779, Note_on_c, 0, 84, 0
1, 158779, Note_on_c, 0, 80, 0
1, 158779, Note_on_c, 0, 51, 70
1, 158853, Note_on_c, 0, 80, 96
1, 158853, Note_on_c, 0, 86, 96
1, 158853, Note_on_c, 0, 51, 0
1, 158856, Note_on_c, 0, 39, 0
1, 158856, Note_on_c, 0, 39, 77
1, 158932, Note_on_c, 0, 86, 0
1, 158932, Note_on_c, 0, 80, 0
1, 158932, Note_on_c, 0, 51, 72
1, 159010, Note_on_c, 0, 87, 105
1, 159010, Note_on_c, 0, 79, 105
1, 159010, Note_on_c, 0, 51, 0
1, 159013, Note_on_c, 0, 39, 0
1, 159013, Note_on_c, 0, 39, 77
1, 159085, Note_on_c, 0, 51, 69
1, 159160, Note_on_c, 0, 51, 0
1, 159160, Note_on_c, 0, 39, 0
1, 159160, Note_on_c, 0, 39, 77
1, 159235, Note_on_c, 0, 51, 70
1, 159310, Note_on_c, 0, 51, 0
1, 159310, Note_on_c, 0, 39, 0
1, 159310, Note_on_c, 0, 39, 77
1, 159385, Note_on_c, 0, 51, 70
1, 159460, Note_on_c, 0, 51, 0
1, 159460, Note_on_c, 0, 39, 0
1, 159460, Note_on_c, 0, 39, 77
1, 159535, Note_on_c, 0, 51, 72
1, 159610, Note_on_c, 0, 79, 0
1, 159610, Note_on_c, 0, 87, 0
1, 159610, Note_on_c, 0, 67, 99
1, 159613, Note_on_c, 0, 75, 99
1, 159613, Note_on_c, 0, 51, 0
1, 159613, Note_on_c, 0, 39, 0
1, 159616, Note_on_c, 0, 38, 77
1, 159684, Note_on_c, 0, 50, 69
1, 159758, Note_on_c, 0, 50, 0
1, 159758, Note_on_c, 0, 38, 0
1, 159758, Note_on_c, 0, 38, 77
1, 159833, Note_on_c, 0, 50, 70
1, 159907, Note_on_c, 0, 50, 0
1, 159907, Note_on_c, 0, 38, 0
1, 159907, Note_on_c, 0, 38, 77
1, 159981, Note_on_c, 0, 50, 70
1, 160056, Note_on_c, 0, 50, 0
1, 160056, Note_on_c, 0, 38, 0
1, 160056, Note_on_c, 0, 38, 77
1, 160136, Note_on_c, 0, 50, 72
1, 160217, Note_on_c, 0, 75, 0
1, 160217, Note_on_c, 0, 67, 0
1, 160217, Note_on_c, 0, 87, 110
1, 160220, Note_on_c, 0, 79, 110
1, 160220, Note_on_c, 0, 50, 0
1, 160220, Note_on_c, 0, 38, 0
1, 160223, Note_on_c, 0, 36, 77
1, 160292, Note_on_c, 0, 48, 69
1, 160367, Note_on_c, 0, 48, 0
1, 160367, Note_on_c, 0, 36, 0
1, 160367, Note_on_c, 0, 36, 77
1, 160442, Note_on_c, 0, 48, 70
1, 160516, Note_on_c, 0, 48, 0
1, 160516, Note_on_c, 0, 36, 0
1, 160516, Note_on_c, 0, 36, 77
1, 160591, Note_on_c, 0, 48, 70
1, 160666, Note_on_c, 0, 48, 0
1, 160666, Note_on_c, 0, 36, 0
1, 160666, Note_on_c, 0, 36, 77
1, 160741, Note_on_c, 0, 48, 72
1, 160816, Note_on_c, 0, 79, 0
1, 160816, Note_on_c, 0, 87, 0
1, 160816, Note_on_c, 0, 67, 103
1, 160819, Note_on_c, 0, 75, 103
1, 160819, Note_on_c, 0, 48, 0
1, 160819, Note_on_c, 0, 36, 0
1, 160822, Note_on_c, 0, 34, 77
1, 160890, Note_on_c, 0, 46, 69
1, 160964, Note_on_c, 0, 46, 0
1, 160964, Note_on_c, 0, 34, 0
1, 160964, Note_on_c, 0, 34, 77
1, 161038, Note_on_c, 0, 46, 70
1, 161112, Note_on_c, 0, 46, 0
1, 161112, Note_on_c, 0, 34, 0
1, 161112, Note_on_c, 0, 34, 77
1, 161187, Note_on_c, 0, 46, 70
1, 161261, Note_on_c, 0, 46, 0
1, 161261, Note_on_c, 0, 34, 0
1, 161261, Note_on_c, 0, 34, 77
1, 161340, Note_on_c, 0, 46, 72
1, 161420, Note_on_c, 0, 75, 0
1, 161420, Note_on_c, 0, 67, 0
1, 161420, Note_on_c, 0, 87, 113
1, 161423, Note_on_c, 0, 84, 113
1, 161423, Note_on_c, 0, 46, 0
1, 161423, Note_on_c, 0, 34, 0
1, 161426, Note_on_c, 0, 32, 77
1, 161495, Note_on_c, 0, 44, 69
1, 161570, Note_on_c, 0, 44, 0
1, 161570, Note_on_c, 0, 32, 0
1, 161570, Note_on_c, 0, 32, 77
1, 161645, Note_on_c, 0, 44, 70
1, 161720, Note_on_c, 0, 44, 0
1, 161720, Note_on_c, 0, 32, 0
1, 161720, Note_on_c, 0, 32, 77
1, 161794, Note_on_c, 0, 44, 70
1, 161869, Note_on_c, 0, 44, 0
1, 161869, Note_on_c, 0, 32, 0
1, 161869, Note_on_c, 0, 32, 77
1, 161944, Note_on_c, 0, 44, 72
1, 162019, Note_on_c, 0, 84, 0
1, 162019, Note_on_c, 0, 87, 0
1, 162019, Note_on_c, 0, 72, 107
1, 162022, Note_on_c, 0, 75, 107
1, 162022, Note_on_c, 0, 44, 0
1, 162022, Note_on_c, 0, 32, 0
1, 162025, Note_on_c, 0, 31, 77
1, 162093, Note_on_c, 0, 43, 69
1, 162167, Note_on_c, 0, 43, 0
1, 162167, Note_on_c, 0, 31, 0
1, 162167, Note_on_c, 0, 31, 77
1, 162242, Note_on_c, 0, 43, 70
1, 162316, Note_on_c, 0, 43, 0
1, 162316, Note_on_c, 0, 31, 0
1, 162316, Note_on_c, 0, 31, 77
1, 162390, Note_on_c, 0, 43, 70
1, 162464, Note_on_c, 0, 43, 0
1, 162464, Note_on_c, 0, 31, 0
1, 162464, Note_on_c, 0, 31, 77
1, 162543, Note_on_c, 0, 43, 72
1, 162622, Note_on_c, 0, 75, 0
1, 162622, Note_on_c, 0, 72, 0
1, 162622, Note_on_c, 0, 84, 104
1, 162625, Note_on_c, 0, 81, 104
1, 162625, Note_on_c, 0, 86, 104
1, 162625, Note_on_c, 0, 43, 0
1, 162628, Note_on_c, 0, 31, 0
1, 162628, Note_on_c, 0, 30, 73
1, 162628, Note_on_c, 0, 42, 85
1, 163344, Note_on_c, 0, 86, 0
1, 163344, Note_on_c, 0, 81, 0
1, 163344, Note_on_c, 0, 84, 0
1, 163347, Note_on_c, 0, 53, 97
1, 163347, Note_on_c, 0, 59, 113
1, 163347, Note_on_c, 0, 62, 113
1, 163350, Note_on_c, 0, 42, 0
1, 163350, Note_on_c, 0, 30, 0
1, 163350, Note_on_c, 0, 31, 82
1, 163353, Note_on_c, 0, 43, 95
1, 164841, Note_on_c, 0, 62, 0
1, 164841, Note_on_c, 0, 59, 0
1, 164841, Note_on_c, 0, 53, 0
1, 164844, Note_on_c, 0, 60, 60
1, 164844, Note_on_c, 0, 43, 0
1, 164844, Note_on_c, 0, 31, 0
1, 164847, Note_on_c, 0, 36, 54
1, 164903, Control_c, 0, 64, 127
1, 164918, Note_on_c, 0, 48, 51
1, 164994, Note_on_c, 0, 48, 0
1, 164994, Note_on_c, 0, 36, 0
1, 164994, Note_on_c, 0, 36, 54
1, 165070, Note_on_c, 0, 48, 51
1, 165145, Note_on_c, 0, 48, 0
1, 165145, Note_on_c, 0, 36, 0
1, 165145, Note_on_c, 0, 36, 54
1, 165219, Note_on_c, 0, 48, 51
1, 165258, Control_c, 0, 64, 0
1, 165293, Note_on_c, 0, 60, 0
1, 165293, Note_on_c, 0, 58, 62
1, 165293, Note_on_c, 0, 64, 62
1, 165296, Note_on_c, 0, 48, 0
1, 165296, Note_on_c, 0, 36, 0
1, 165296, Note_on_c, 0, 36, 55
1, 165348, Note_on_c, 0, 64, 0
1, 165348, Note_on_c, 0, 58, 0
1, 165366, Note_on_c, 0, 48, 51
1, 165439, Note_on_c, 0, 56, 64
1, 165439, Note_on_c, 0, 65, 64
1, 165439, Note_on_c, 0, 48, 0
1, 165442, Note_on_c, 0, 36, 0
1, 165442, Note_on_c, 0, 36, 55
1, 165494, Note_on_c, 0, 65, 0
1, 165494, Note_on_c, 0, 56, 0
1, 165512, Note_on_c, 0, 48, 56
1, 165585, Note_on_c, 0, 64, 66
1, 165585, Note_on_c, 0, 67, 66
1, 165585, Note_on_c, 0, 48, 0
1, 165588, Note_on_c, 0, 36, 0
1, 165588, Note_on_c, 0, 36, 57
1, 165639, Note_on_c, 0, 67, 0
1, 165639, Note_on_c, 0, 64, 0
1, 165657, Note_on_c, 0, 48, 57
1, 165729, Note_on_c, 0, 65, 67
1, 165729, Note_on_c, 0, 68, 67
1, 165729, Note_on_c, 0, 48, 0
1, 165732, Note_on_c, 0, 36, 0
1, 165732, Note_on_c, 0, 36, 59
1, 165783, Note_on_c, 0, 68, 0
1, 165783, Note_on_c, 0, 65, 0
1, 165801, Note_on_c, 0, 48, 60
1, 165873, Note_on_c, 0, 62, 69
1, 165873, Note_on_c, 0, 71, 69
1, 165873, Note_on_c, 0, 48, 0
1, 165876, Note_on_c, 0, 36, 0
1, 165876, Note_on_c, 0, 36, 61
1, 165928, Note_on_c, 0, 71, 0
1, 165928, Note_on_c, 0, 62, 0
1, 165946, Note_on_c, 0, 48, 63
1, 166019, Note_on_c, 0, 63, 72
1, 166019, Note_on_c, 0, 72, 72
1, 166019, Note_on_c, 0, 48, 0
1, 166022, Note_on_c, 0, 36, 0
1, 166022, Note_on_c, 0, 36, 65
1, 166078, Note_on_c, 0, 72, 0
1, 166078, Note_on_c, 0, 63, 0
1, 166097, Note_on_c, 0, 48, 60
1, 166170, Control_c, 0, 64, 127
1, 166175, Note_on_c, 0, 64, 65
1, 166175, Note_on_c, 0, 72, 65
1, 166175, Note_on_c, 0, 48, 0
1, 166178, Note_on_c, 0, 36, 0
1, 166178, Note_on_c, 0, 36, 63
1, 166248, Note_on_c, 0, 48, 57
1, 166321, Note_on_c, 0, 48, 0
1, 166321, Note_on_c, 0, 36, 0
1, 166321, Note_on_c, 0, 36, 63
1, 166393, Note_on_c, 0, 48, 57
1, 166466, Note_on_c, 0, 72, 0
1, 166466, Note_on_c, 0, 64, 0
1, 166466, Note_on_c, 0, 70, 61
1, 166469, Note_on_c, 0, 76, 61
1, 166469, Note_on_c, 0, 48, 0
1, 166469, Note_on_c, 0, 36, 0
1, 166472, Control_c, 0, 64, 0
1, 166472, Note_on_c, 0, 36, 54
1, 166521, Note_on_c, 0, 76, 0
1, 166521, Note_on_c, 0, 70, 0
1, 166539, Note_on_c, 0, 48, 50
1, 166612, Note_on_c, 0, 68, 63
1, 166612, Note_on_c, 0, 77, 63
1, 166612, Note_on_c, 0, 48, 0
1, 166615, Note_on_c, 0, 36, 0
1, 166615, Note_on_c, 0, 36, 53
1, 166667, Note_on_c, 0, 77, 0
1, 166667, Note_on_c, 0, 68, 0
1, 166685, Note_on_c, 0, 48, 55
1, 166758, Note_on_c, 0, 76, 65
1, 166758, Note_on_c, 0, 79, 65
1, 166758, Note_on_c, 0, 48, 0
1, 166761, Note_on_c, 0, 36, 0
1, 166761, Note_on_c, 0, 36, 56
1, 166812, Note_on_c, 0, 79, 0
1, 166812, Note_on_c, 0, 76, 0
1, 166831, Note_on_c, 0, 48, 57
1, 166903, Note_on_c, 0, 77, 67
1, 166903, Note_on_c, 0, 80, 67
1, 166903, Note_on_c, 0, 48, 0
1, 166906, Note_on_c, 0, 36, 0
1, 166906, Note_on_c, 0, 36, 58
1, 166957, Note_on_c, 0, 80, 0
1, 166957, Note_on_c, 0, 77, 0
1, 166975, Note_on_c, 0, 48, 60
1, 167047, Note_on_c, 0, 74, 69
1, 167047, Note_on_c, 0, 83, 69
1, 167047, Note_on_c, 0, 48, 0
1, 167050, Note_on_c, 0, 36, 0
1, 167050, Note_on_c, 0, 36, 61
1, 167101, Note_on_c, 0, 83, 0
1, 167101, Note_on_c, 0, 74, 0
1, 167119, Note_on_c, 0, 48, 63
1, 167192, Note_on_c, 0, 72, 61
1, 167192, Note_on_c, 0, 79, 72
1, 167192, Note_on_c, 0, 75, 61
1, 167195, Note_on_c, 0, 84, 72
1, 167195, Note_on_c, 0, 48, 0
1, 167195, Note_on_c, 0, 36, 0
1, 167198, Note_on_c, 0, 36, 65
1, 167226, Control_c, 0, 64, 127
1, 167266, Note_on_c, 0, 48, 60
1, 167340, Note_on_c, 0, 48, 0
1, 167340, Note_on_c, 0, 36, 0
1, 167340, Note_on_c, 0, 36, 63
1, 167414, Note_on_c, 0, 48, 57
1, 167487, Note_on_c, 0, 84, 0
1, 167487, Note_on_c, 0, 72, 0
1, 167487, Note_on_c, 0, 79, 0
1, 167490, Note_on_c, 0, 75, 0
1, 167490, Note_on_c, 0, 67, 63
1, 167490, Note_on_c, 0, 71, 63
1, 167493, Note_on_c, 0, 77, 74
1, 167493, Note_on_c, 0, 79, 74
1, 167493, Note_on_c, 0, 48, 0
1, 167496, Note_on_c, 0, 36, 0
1, 167496, Note_on_c, 0, 38, 65
1, 167496, Control_c, 0, 64, 0
1, 167543, Control_c, 0, 64, 127
1, 167561, Note_on_c, 0, 50, 60
1, 167634, Note_on_c, 0, 50, 0
1, 167634, Note_on_c, 0, 38, 0
1, 167634, Note_on_c, 0, 38, 65
1, 167710, Note_on_c, 0, 50, 61
1, 167785, Note_on_c, 0, 79, 0
1, 167785, Note_on_c, 0, 67, 0
1, 167785, Note_on_c, 0, 71, 0
1, 167788, Note_on_c, 0, 77, 0
1, 167788, Note_on_c, 0, 67, 66
1, 167788, Note_on_c, 0, 72, 66
1, 167791, Note_on_c, 0, 75, 78
1, 167791, Note_on_c, 0, 50, 0
1, 167791, Note_on_c, 0, 38, 0
1, 167794, Note_on_c, 0, 39, 65
1, 167794, Control_c, 0, 64, 0
1, 167825, Control_c, 0, 64, 127
1, 167859, Note_on_c, 0, 51, 65
1, 167933, Note_on_c, 0, 51, 0
1, 167933, Note_on_c, 0, 39, 0
1, 167933, Note_on_c, 0, 39, 65
1, 168007, Note_on_c, 0, 51, 65
1, 168081, Note_on_c, 0, 75, 0
1, 168081, Note_on_c, 0, 72, 0
1, 168081, Note_on_c, 0, 67, 0
1, 168084, Note_on_c, 0, 65, 70
1, 168084, Note_on_c, 0, 68, 70
1, 168084, Note_on_c, 0, 74, 82
1, 168087, Note_on_c, 0, 51, 0
1, 168087, Note_on_c, 0, 39, 0
1, 168087, Note_on_c, 0, 41, 65
1, 168090, Control_c, 0, 64, 0
1, 168129, Control_c, 0, 64, 127
1, 168155, Note_on_c, 0, 53, 63
1, 168229, Note_on_c, 0, 53, 0
1, 168229, Note_on_c, 0, 41, 0
1, 168229, Note_on_c, 0, 41, 65
1, 168305, Note_on_c, 0, 53, 65
1, 168380, Note_on_c, 0, 74, 0
1, 168380, Note_on_c, 0, 68, 0
1, 168380, Note_on_c, 0, 65, 0
1, 168383, Note_on_c, 0, 63, 73
1, 168383, Note_on_c, 0, 67, 85
1, 168383, Note_on_c, 0, 72, 85
1, 168386, Note_on_c, 0, 53, 0
1, 168386, Note_on_c, 0, 41, 0
1, 168386, Note_on_c, 0, 43, 66
1, 168389, Control_c, 0, 64, 0
1, 168424, Control_c, 0, 64, 127
1, 168455, Note_on_c, 0, 55, 66
1, 168530, Note_on_c, 0, 55, 0
1, 168530, Note_on_c, 0, 43, 0
1, 168530, Note_on_c, 0, 43, 67
1, 168606, Note_on_c, 0, 55, 67
1, 168681, Note_on_c, 0, 67, 0
1, 168681, Note_on_c, 0, 66, 85
1, 168681, Note_on_c, 0, 55, 0
1, 168684, Note_on_c, 0, 43, 0
1, 168684, Note_on_c, 0, 44, 68
1, 168687, Control_c, 0, 64, 0
1, 168734, Control_c, 0, 64, 127
1, 168756, Note_on_c, 0, 56, 69
1, 168831, Note_on_c, 0, 56, 0
1, 168831, Note_on_c, 0, 44, 0
1, 168831, Note_on_c, 0, 44, 69
1, 168907, Note_on_c, 0, 56, 70
1, 168982, Note_on_c, 0, 66, 0
1, 168982, Note_on_c, 0, 69, 88
1, 168982, Note_on_c, 0, 56, 0
1, 168985, Note_on_c, 0, 44, 0
1, 168985, Note_on_c, 0, 42, 70
1, 168985, Control_c, 0, 64, 0
1, 169011, Control_c, 0, 64, 127
1, 169057, Note_on_c, 0, 54, 65
1, 169132, Note_on_c, 0, 54, 0
1, 169132, Note_on_c, 0, 42, 0
1, 169132, Note_on_c, 0, 42, 72
1, 169208, Note_on_c, 0, 54, 65
1, 169283, Note_on_c, 0, 69, 0
1, 169283, Note_on_c, 0, 72, 0
1, 169283, Note_on_c, 0, 63, 0
1, 169286, Note_on_c, 0, 62, 73
1, 169286, Note_on_c, 0, 65, 73
1, 169286, Note_on_c, 0, 71, 85
1, 169289, Note_on_c, 0, 54, 0
1, 169289, Note_on_c, 0, 42, 0
1, 169289, Note_on_c, 0, 43, 68
1, 169292, Control_c, 0, 64, 0
1, 169319, Control_c, 0, 64, 127
1, 169358, Note_on_c, 0, 55, 65
1, 169433, Note_on_c, 0, 55, 0
1, 169433, Note_on_c, 0, 43, 0
1, 169433, Note_on_c, 0, 43, 68
1, 169509, Note_on_c, 0, 55, 65
1, 169584, Note_on_c, 0, 71, 0
1, 169584, Note_on_c, 0, 65, 0
1, 169584, Note_on_c, 0, 62, 0
1, 169587, Note_on_c, 0, 60, 78
1, 169587, Note_on_c, 0, 63, 78
1, 169587, Note_on_c, 0, 72, 90
1, 169590, Note_on_c, 0, 55, 0
1, 169590, Note_on_c, 0, 43, 0
1, 169590, Note_on_c, 0, 36, 58
1, 169593, Control_c, 0, 64, 0
1, 169641, Note_on_c, 0, 72, 0
1, 169641, Note_on_c, 0, 63, 0
1, 169641, Note_on_c, 0, 60, 0
1, 169661, Note_on_c, 0, 48, 55
1, 169737, Note_on_c, 0, 60, 78
1, 169737, Note_on_c, 0, 48, 0
1, 169737, Note_on_c, 0, 36, 0
1, 169740, Control_c, 0, 64, 127
1, 169740, Note_on_c, 0, 36, 54
1, 169812, Note_on_c, 0, 48, 51
1, 169887, Note_on_c, 0, 48, 0
1, 169887, Note_on_c, 0, 36, 0
1, 169887, Note_on_c, 0, 36, 54
1, 169961, Note_on_c, 0, 48, 50
1, 170000, Control_c, 0, 64, 0
1, 170035, Note_on_c, 0, 60, 0
1, 170035, Note_on_c, 0, 58, 62
1, 170035, Note_on_c, 0, 64, 62
1, 170038, Note_on_c, 0, 48, 0
1, 170038, Note_on_c, 0, 36, 0
1, 170038, Note_on_c, 0, 36, 54
1, 170090, Note_on_c, 0, 64, 0
1, 170090, Note_on_c, 0, 58, 0
1, 170109, Note_on_c, 0, 48, 51
1, 170182, Note_on_c, 0, 56, 64
1, 170182, Note_on_c, 0, 65, 64
1, 170182, Note_on_c, 0, 48, 0
1, 170185, Note_on_c, 0, 36, 0
1, 170185, Note_on_c, 0, 36, 54
1, 170236, Note_on_c, 0, 65, 0
1, 170236, Note_on_c, 0, 56, 0
1, 170255, Note_on_c, 0, 48, 56
1, 170328, Note_on_c, 0, 64, 65
1, 170328, Note_on_c, 0, 67, 65
1, 170328, Note_on_c, 0, 48, 0
1, 170331, Note_on_c, 0, 36, 0
1, 170331, Note_on_c, 0, 36, 57
1, 170382, Note_on_c, 0, 67, 0
1, 170382, Note_on_c, 0, 64, 0
1, 170400, Note_on_c, 0, 48, 57
1, 170472, Note_on_c, 0, 65, 67
1, 170472, Note_on_c, 0, 68, 67
1, 170472, Note_on_c, 0, 48, 0
1, 170475, Note_on_c, 0, 36, 0
1, 170475, Note_on_c, 0, 36, 59
1, 170526, Note_on_c, 0, 68, 0
1, 170526, Note_on_c, 0, 65, 0
1, 170544, Note_on_c, 0, 48, 60
1, 170616, Note_on_c, 0, 62, 69
1, 170616, Note_on_c, 0, 71, 69
1, 170616, Note_on_c, 0, 48, 0
1, 170619, Note_on_c, 0, 36, 0
1, 170619, Note_on_c, 0, 36, 61
1, 170670, Note_on_c, 0, 71, 0
1, 170670, Note_on_c, 0, 62, 0
1, 170688, Note_on_c, 0, 48, 63
1, 170760, Note_on_c, 0, 63, 72
1, 170760, Note_on_c, 0, 72, 72
1, 170760, Note_on_c, 0, 48, 0
1, 170763, Note_on_c, 0, 36, 0
1, 170763, Note_on_c, 0, 36, 65
1, 170818, Note_on_c, 0, 72, 0
1, 170818, Note_on_c, 0, 63, 0
1, 170837, Note_on_c, 0, 48, 60
1, 170910, Control_c, 0, 64, 127
1, 170915, Note_on_c, 0, 64, 65
1, 170915, Note_on_c, 0, 72, 65
1, 170915, Note_on_c, 0, 48, 0
1, 170918, Note_on_c, 0, 36, 0
1, 170918, Note_on_c, 0, 36, 63
1, 170988, Note_on_c, 0, 48, 57
1, 171061, Note_on_c, 0, 48, 0
1, 171061, Note_on_c, 0, 36, 0
1, 171061, Note_on_c, 0, 36, 63
1, 171134, Note_on_c, 0, 48, 57
1, 171207, Note_on_c, 0, 72, 0
1, 171207, Note_on_c, 0, 64, 0
1, 171207, Note_on_c, 0, 70, 61
1, 171210, Note_on_c, 0, 76, 61
1, 171210, Note_on_c, 0, 48, 0
1, 171210, Note_on_c, 0, 36, 0
1, 171213, Control_c, 0, 64, 0
1, 171213, Note_on_c, 0, 36, 54
1, 171261, Note_on_c, 0, 76, 0
1, 171261, Note_on_c, 0, 70, 0
1, 171280, Note_on_c, 0, 48, 50
1, 171353, Note_on_c, 0, 68, 63
1, 171353, Note_on_c, 0, 77, 63
1, 171353, Note_on_c, 0, 48, 0
1, 171356, Note_on_c, 0, 36, 0
1, 171356, Note_on_c, 0, 36, 53
1, 171407, Note_on_c, 0, 77, 0
1, 171407, Note_on_c, 0, 68, 0
1, 171425, Note_on_c, 0, 48, 55
1, 171498, Note_on_c, 0, 76, 65
1, 171498, Note_on_c, 0, 79, 65
1, 171498, Note_on_c, 0, 48, 0
1, 171501, Note_on_c, 0, 36, 0
1, 171501, Note_on_c, 0, 36, 56
1, 171552, Note_on_c, 0, 79, 0
1, 171552, Note_on_c, 0, 76, 0
1, 171570, Note_on_c, 0, 48, 57
1, 171642, Note_on_c, 0, 77, 67
1, 171642, Note_on_c, 0, 80, 67
1, 171642, Note_on_c, 0, 48, 0
1, 171645, Note_on_c, 0, 36, 0
1, 171645, Note_on_c, 0, 36, 58
1, 171696, Note_on_c, 0, 80, 0
1, 171696, Note_on_c, 0, 77, 0
1, 171714, Note_on_c, 0, 48, 60
1, 171786, Note_on_c, 0, 74, 69
1, 171786, Note_on_c, 0, 83, 69
1, 171786, Note_on_c, 0, 48, 0
1, 171789, Note_on_c, 0, 36, 0
1, 171789, Note_on_c, 0, 36, 61
1, 171841, Note_on_c, 0, 83, 0
1, 171841, Note_on_c, 0, 74, 0
1, 171860, Note_on_c, 0, 48, 63
1, 171933, Note_on_c, 0, 72, 61
1, 171933, Note_on_c, 0, 79, 72
1, 171933, Note_on_c, 0, 75, 61
1, 171936, Note_on_c, 0, 84, 72
1, 171936, Note_on_c, 0, 48, 0
1, 171936, Note_on_c, 0, 36, 0
1, 171939, Note_on_c, 0, 36, 65
1, 171967, Control_c, 0, 64, 127
1, 172007, Note_on_c, 0, 48, 60
1, 172081, Note_on_c, 0, 48, 0
1, 172081, Note_on_c, 0, 36, 0
1, 172081, Note_on_c, 0, 36, 63
1, 172155, Note_on_c, 0, 48, 57
1, 172228, Note_on_c, 0, 84, 0
1, 172228, Note_on_c, 0, 72, 0
1, 172228, Note_on_c, 0, 79, 0
1, 172231, Note_on_c, 0, 75, 0
1, 172231, Note_on_c, 0, 67, 63
1, 172231, Note_on_c, 0, 71, 63
1, 172234, Note_on_c, 0, 77, 74
1, 172234, Note_on_c, 0, 79, 74
1, 172234, Note_on_c, 0, 48, 0
1, 172237, Note_on_c, 0, 36, 0
1, 172237, Note_on_c, 0, 38, 65
1, 172237, Control_c, 0, 64, 0
1, 172285, Control_c, 0, 64, 127
1, 172302, Note_on_c, 0, 50, 60
1, 172375, Note_on_c, 0, 50, 0
1, 172375, Note_on_c, 0, 38, 0
1, 172375, Note_on_c, 0, 38, 65
1, 172451, Note_on_c, 0, 50, 61
1, 172526, Note_on_c, 0, 79, 0
1, 172526, Note_on_c, 0, 67, 0
1, 172526, Note_on_c, 0, 71, 0
1, 172529, Note_on_c, 0, 77, 0
1, 172529, Note_on_c, 0, 67, 66
1, 172529, Note_on_c, 0, 72, 66
1, 172532, Note_on_c, 0, 75, 78
1, 172532, Note_on_c, 0, 50, 0
1, 172532, Note_on_c, 0, 38, 0
1, 172535, Note_on_c, 0, 39, 65
1, 172535, Control_c, 0, 64, 0
1, 172566, Control_c, 0, 64, 127
1, 172600, Note_on_c, 0, 51, 65
1, 172674, Note_on_c, 0, 51, 0
1, 172674, Note_on_c, 0, 39, 0
1, 172674, Note_on_c, 0, 39, 65
1, 172748, Note_on_c, 0, 51, 65
1, 172822, Note_on_c, 0, 75, 0
1, 172822, Note_on_c, 0, 72, 0
1, 172822, Note_on_c, 0, 67, 0
1, 172825, Note_on_c, 0, 65, 70
1, 172825, Note_on_c, 0, 68, 70
1, 172825, Note_on_c, 0, 74, 82
1, 172828, Note_on_c, 0, 51, 0
1, 172828, Note_on_c, 0, 39, 0
1, 172828, Note_on_c, 0, 41, 65
1, 172831, Control_c, 0, 64, 0
1, 172871, Control_c, 0, 64, 127
1, 172896, Note_on_c, 0, 53, 63
1, 172970, Note_on_c, 0, 53, 0
1, 172970, Note_on_c, 0, 41, 0
1, 172970, Note_on_c, 0, 41, 65
1, 173046, Note_on_c, 0, 53, 65
1, 173121, Note_on_c, 0, 74, 0
1, 173121, Note_on_c, 0, 68, 0
1, 173121, Note_on_c, 0, 65, 0
1, 173124, Note_on_c, 0, 63, 73
1, 173124, Note_on_c, 0, 67, 85
1, 173124, Note_on_c, 0, 72, 85
1, 173127, Note_on_c, 0, 53, 0
1, 173127, Note_on_c, 0, 41, 0
1, 173127, Note_on_c, 0, 43, 66
1, 173130, Control_c, 0, 64, 0
1, 173165, Control_c, 0, 64, 127
1, 173196, Note_on_c, 0, 55, 66
1, 173271, Note_on_c, 0, 55, 0
1, 173271, Note_on_c, 0, 43, 0
1, 173271, Note_on_c, 0, 43, 67
1, 173347, Note_on_c, 0, 55, 67
1, 173422, Note_on_c, 0, 67, 0
1, 173422, Note_on_c, 0, 66, 85
1, 173422, Note_on_c, 0, 55, 0
1, 173425, Note_on_c, 0, 43, 0
1, 173425, Note_on_c, 0, 44, 68
1, 173428, Control_c, 0, 64, 0
1, 173471, Control_c, 0, 64, 127
1, 173497, Note_on_c, 0, 56, 69
1, 173572, Note_on_c, 0, 56, 0
1, 173572, Note_on_c, 0, 44, 0
1, 173572, Note_on_c, 0, 44, 69
1, 173648, Note_on_c, 0, 56, 70
1, 173723, Note_on_c, 0, 66, 0
1, 173723, Note_on_c, 0, 69, 88
1, 173723, Note_on_c, 0, 56, 0
1, 173726, Note_on_c, 0, 44, 0
1, 173726, Note_on_c, 0, 42, 70
1, 173726, Control_c, 0, 64, 0
1, 173752, Control_c, 0, 64, 127
1, 173797, Note_on_c, 0, 54, 65
1, 173872, Note_on_c, 0, 54, 0
1, 173872, Note_on_c, 0, 42, 0
1, 173872, Note_on_c, 0, 42, 72
1, 173946, Note_on_c, 0, 54, 65
1, 174021, Note_on_c, 0, 54, 0
1, 174021, Note_on_c, 0, 42, 0
1, 174021, Note_on_c, 0, 42, 68
1, 174025, Control_c, 0, 64, 0
1, 174056, Control_c, 0, 64, 127
1, 174095, Note_on_c, 0, 54, 65
1, 174170, Note_on_c, 0, 54, 0
1, 174170, Note_on_c, 0, 42, 0
1, 174170, Note_on_c, 0, 42, 68
1, 174244, Note_on_c, 0, 54, 65
1, 174319, Note_on_c, 0, 69, 0
1, 174319, Note_on_c, 0, 72, 0
1, 174319, Note_on_c, 0, 63, 0
1, 174322, Note_on_c, 0, 62, 65
1, 174322, Note_on_c, 0, 67, 65
1, 174322, Note_on_c, 0, 71, 65
1, 174325, Note_on_c, 0, 54, 0
1, 174325, Note_on_c, 0, 42, 0
1, 174325, Note_on_c, 0, 43, 65
1, 174328, Note_on_c, 0, 55, 65
1, 174328, Control_c, 0, 64, 0
1, 174473, Note_on_c, 0, 71, 0
1, 174473, Note_on_c, 0, 67, 0
1, 174473, Note_on_c, 0, 62, 0
1, 174476, Note_on_c, 0, 55, 0
1, 174476, Note_on_c, 0, 43, 0
1, 174476, Note_on_c, 0, 62, 60
1, 174479, Note_on_c, 0, 59, 60
1, 174479, Control_c, 0, 64, 127
1, 174626, Note_on_c, 0, 67, 91
1, 174626, Note_on_c, 0, 79, 91
1, 174626, Note_on_c, 0, 59, 0
1, 174629, Note_on_c, 0, 62, 0
1, 174629, Note_on_c, 0, 62, 60
1, 174629, Note_on_c, 0, 59, 60
1, 174775, Note_on_c, 0, 59, 0
1, 174775, Note_on_c, 0, 62, 0
1, 174775, Note_on_c, 0, 59, 60
1, 174778, Note_on_c, 0, 62, 60
1, 174924, Note_on_c, 0, 62, 0
1, 174924, Note_on_c, 0, 59, 0
1, 174924, Note_on_c, 0, 55, 60
1, 174927, Control_c, 0, 64, 0
1, 174991, Control_c, 0, 64, 127
1, 175073, Note_on_c, 0, 79, 0
1, 175073, Note_on_c, 0, 67, 0
1, 175073, Note_on_c, 0, 55, 0
1, 175076, Note_on_c, 0, 63, 60
1, 175076, Note_on_c, 0, 60, 60
1, 175222, Note_on_c, 0, 67, 91
1, 175222, Note_on_c, 0, 79, 91
1, 175222, Note_on_c, 0, 60, 0
1, 175225, Note_on_c, 0, 63, 0
1, 175225, Note_on_c, 0, 63, 60
1, 175225, Note_on_c, 0, 60, 60
1, 175371, Note_on_c, 0, 60, 0
1, 175371, Note_on_c, 0, 63, 0
1, 175371, Note_on_c, 0, 63, 60
1, 175374, Note_on_c, 0, 60, 60
1, 175520, Note_on_c, 0, 60, 0
1, 175520, Note_on_c, 0, 63, 0
1, 175520, Note_on_c, 0, 65, 60
1, 175523, Note_on_c, 0, 62, 60
1, 175523, Control_c, 0, 64, 0
1, 175592, Note_on_c, 0, 79, 0
1, 175592, Note_on_c, 0, 67, 0
1, 175592, Note_on_c, 0, 77, 81
1, 175665, Note_on_c, 0, 77, 0
1, 175665, Note_on_c, 0, 74, 80
1, 175665, Note_on_c, 0, 62, 0
1, 175668, Note_on_c, 0, 65, 0
1, 175737, Note_on_c, 0, 74, 0
1, 175737, Note_on_c, 0, 71, 80
1, 175809, Note_on_c, 0, 71, 0
1, 175809, Note_on_c, 0, 67, 79
1, 175881, Note_on_c, 0, 67, 0
1, 175881, Note_on_c, 0, 65, 78
1, 175954, Note_on_c, 0, 65, 0
1, 175954, Note_on_c, 0, 62, 77
1, 176026, Note_on_c, 0, 62, 0
1, 176026, Note_on_c, 0, 59, 76
1, 176098, Note_on_c, 0, 59, 0
1, 176098, Note_on_c, 0, 60, 76
1, 176170, Note_on_c, 0, 60, 0
1, 176170, Note_on_c, 0, 63, 75
1, 176243, Note_on_c, 0, 63, 0
1, 176243, Note_on_c, 0, 60, 76
1, 176316, Note_on_c, 0, 60, 0
1, 176316, Note_on_c, 0, 55, 76
1, 176389, Note_on_c, 0, 55, 0
1, 176389, Note_on_c, 0, 54, 75
1, 176389, Note_on_c, 0, 32, 65
1, 176463, Note_on_c, 0, 54, 0
1, 176463, Note_on_c, 0, 60, 75
1, 176463, Note_on_c, 0, 32, 0
1, 176466, Note_on_c, 0, 44, 65
1, 176537, Note_on_c, 0, 60, 0
1, 176537, Note_on_c, 0, 56, 74
1, 176537, Note_on_c, 0, 44, 0
1, 176540, Note_on_c, 0, 32, 65
1, 176611, Note_on_c, 0, 56, 0
1, 176611, Note_on_c, 0, 54, 76
1, 176611, Note_on_c, 0, 32, 0
1, 176614, Note_on_c, 0, 44, 65
1, 176685, Note_on_c, 0, 54, 0
1, 176685, Note_on_c, 0, 55, 78
1, 176685, Note_on_c, 0, 44, 0
1, 176688, Note_on_c, 0, 31, 60
1, 176688, Note_on_c, 0, 43, 60
1, 176751, Control_c, 0, 64, 127
1, 176839, Note_on_c, 0, 55, 0
1, 176839, Note_on_c, 0, 43, 0
1, 176839, Note_on_c, 0, 31, 0
1, 176842, Note_on_c, 0, 62, 60
1, 176842, Note_on_c, 0, 59, 60
1, 176993, Note_on_c, 0, 67, 91
1, 176993, Note_on_c, 0, 79, 91
1, 176993, Note_on_c, 0, 59, 0
1, 176996, Note_on_c, 0, 62, 0
1, 176996, Note_on_c, 0, 62, 60
1, 176996, Note_on_c, 0, 59, 60
1, 177142, Note_on_c, 0, 59, 0
1, 177142, Note_on_c, 0, 62, 0
1, 177142, Note_on_c, 0, 59, 60
1, 177145, Note_on_c, 0, 62, 60
1, 177291, Note_on_c, 0, 62, 0
1, 177291, Note_on_c, 0, 59, 0
1, 177291, Note_on_c, 0, 55, 60
1, 177295, Control_c, 0, 64, 0
1, 177357, Control_c, 0, 64, 127
1, 177440, Note_on_c, 0, 79, 0
1, 177440, Note_on_c, 0, 67, 0
1, 177440, Note_on_c, 0, 55, 0
1, 177443, Note_on_c, 0, 63, 60
1, 177443, Note_on_c, 0, 60, 60
1, 177589, Note_on_c, 0, 67, 91
1, 177589, Note_on_c, 0, 79, 91
1, 177589, Note_on_c, 0, 60, 0
1, 177592, Note_on_c, 0, 63, 0
1, 177592, Note_on_c, 0, 63, 60
1, 177592, Note_on_c, 0, 60, 60
1, 177738, Note_on_c, 0, 60, 0
1, 177738, Note_on_c, 0, 63, 0
1, 177738, Note_on_c, 0, 63, 60
1, 177741, Note_on_c, 0, 60, 60
1, 177887, Note_on_c, 0, 60, 0
1, 177887, Note_on_c, 0, 63, 0
1, 177887, Control_c, 0, 64, 0
1, 177890, Note_on_c, 0, 65, 60
1, 177890, Note_on_c, 0, 62, 60
1, 177958, Note_on_c, 0, 79, 0
1, 177958, Note_on_c, 0, 67, 0
1, 177958, Note_on_c, 0, 77, 83
1, 178030, Note_on_c, 0, 77, 0
1, 178030, Note_on_c, 0, 74, 82
1, 178030, Note_on_c, 0, 62, 0
1, 178033, Note_on_c, 0, 65, 0
1, 178102, Note_on_c, 0, 74, 0
1, 178102, Note_on_c, 0, 71, 81
1, 178174, Note_on_c, 0, 71, 0
1, 178174, Note_on_c, 0, 67, 80
1, 178246, Note_on_c, 0, 67, 0
1, 178246, Note_on_c, 0, 65, 79
1, 178317, Note_on_c, 0, 65, 0
1, 178317, Note_on_c, 0, 62, 78
1, 178389, Note_on_c, 0, 62, 0
1, 178389, Note_on_c, 0, 59, 77
1, 178461, Note_on_c, 0, 59, 0
1, 178461, Note_on_c, 0, 60, 76
1, 178532, Note_on_c, 0, 60, 0
1, 178532, Note_on_c, 0, 63, 75
1, 178604, Note_on_c, 0, 63, 0
1, 178604, Note_on_c, 0, 60, 75
1, 178677, Note_on_c, 0, 60, 0
1, 178677, Note_on_c, 0, 55, 78
1, 178749, Note_on_c, 0, 55, 0
1, 178749, Note_on_c, 0, 54, 77
1, 178749, Note_on_c, 0, 32, 65
1, 178823, Note_on_c, 0, 54, 0
1, 178823, Note_on_c, 0, 60, 75
1, 178823, Note_on_c, 0, 44, 65
1, 178896, Note_on_c, 0, 60, 0
1, 178896, Note_on_c, 0, 56, 73
1, 178896, Note_on_c, 0, 44, 0
1, 178899, Note_on_c, 0, 32, 0
1, 178899, Note_on_c, 0, 32, 65
1, 178971, Note_on_c, 0, 56, 0
1, 178971, Note_on_c, 0, 54, 70
1, 178971, Note_on_c, 0, 44, 59
1, 179045, Note_on_c, 0, 54, 0
1, 179045, Note_on_c, 0, 55, 78
1, 179045, Note_on_c, 0, 44, 0
1, 179048, Note_on_c, 0, 32, 0
1, 179048, Note_on_c, 0, 31, 60
1, 179120, Note_on_c, 0, 43, 61
1, 179195, Note_on_c, 0, 55, 0
1, 179195, Note_on_c, 0, 66, 78
1, 179195, Note_on_c, 0, 43, 0
1, 179198, Note_on_c, 0, 31, 0
1, 179198, Note_on_c, 0, 31, 61
1, 179250, Note_on_c, 0, 66, 0
1, 179268, Note_on_c, 0, 43, 62
1, 179342, Note_on_c, 0, 67, 80
1, 179342, Note_on_c, 0, 43, 0
1, 179342, Note_on_c, 0, 31, 0
1, 179345, Note_on_c, 0, 31, 63
1, 179396, Note_on_c, 0, 67, 0
1, 179414, Note_on_c, 0, 43, 64
1, 179486, Note_on_c, 0, 66, 82
1, 179486, Note_on_c, 0, 72, 82
1, 179486, Note_on_c, 0, 43, 0
1, 179489, Note_on_c, 0, 31, 0
1, 179489, Note_on_c, 0, 31, 65
1, 179540, Note_on_c, 0, 72, 0
1, 179540, Note_on_c, 0, 66, 0
1, 179558, Note_on_c, 0, 43, 66
1, 179630, Note_on_c, 0, 67, 84
1, 179630, Note_on_c, 0, 71, 84
1, 179630, Note_on_c, 0, 43, 0
1, 179633, Note_on_c, 0, 31, 0
1, 179633, Note_on_c, 0, 31, 67
1, 179684, Note_on_c, 0, 71, 0
1, 179684, Note_on_c, 0, 67, 0
1, 179702, Note_on_c, 0, 43, 68
1, 179774, Note_on_c, 0, 72, 86
1, 179774, Note_on_c, 0, 78, 86
1, 179774, Note_on_c, 0, 43, 0
1, 179777, Note_on_c, 0, 31, 0
1, 179777, Note_on_c, 0, 31, 69
1, 179828, Note_on_c, 0, 78, 0
1, 179828, Note_on_c, 0, 72, 0
1, 179846, Note_on_c, 0, 43, 70
1, 179918, Note_on_c, 0, 71, 88
1, 179918, Note_on_c, 0, 79, 88
1, 179918, Note_on_c, 0, 43, 0
1, 179921, Note_on_c, 0, 31, 0
1, 179921, Note_on_c, 0, 31, 72
1, 179972, Note_on_c, 0, 79, 0
1, 179972, Note_on_c, 0, 71, 0
1, 179990, Note_on_c, 0, 43, 72
1, 180062, Note_on_c, 0, 84, 90
1, 180062, Note_on_c, 0, 78, 90
1, 180062, Note_on_c, 0, 43, 0
1, 180065, Note_on_c, 0, 31, 0
1, 180065, Note_on_c, 0, 31, 73
1, 180116, Note_on_c, 0, 78, 0
1, 180116, Note_on_c, 0, 84, 0
1, 180134, Note_on_c, 0, 43, 74
1, 180206, Note_on_c, 0, 83, 92
1, 180206, Note_on_c, 0, 79, 92
1, 180206, Note_on_c, 0, 43, 0
1, 180209, Note_on_c, 0, 31, 0
1, 180209, Note_on_c, 0, 31, 75
1, 180279, Note_on_c, 0, 79, 0
1, 180279, Note_on_c, 0, 83, 0
1, 180279, Note_on_c, 0, 43, 65
1, 180352, Note_on_c, 0, 43, 0
1, 180352, Note_on_c, 0, 31, 0
1, 180352, Note_on_c, 0, 31, 72
1, 180425, Note_on_c, 0, 43, 65
1, 180498, Note_on_c, 0, 43, 0
1, 180498, Note_on_c, 0, 31, 0
1, 180498, Note_on_c, 0, 31, 72
1, 180571, Note_on_c, 0, 43, 65
1, 180645, Note_on_c, 0, 43, 0
1, 180645, Note_on_c, 0, 31, 0
1, 180645, Note_on_c, 0, 31, 70
1, 180718, Note_on_c, 0, 43, 65
1, 180791, Note_on_c, 0, 58, 92
1, 180791, Note_on_c, 0, 61, 92
1, 180791, Note_on_c, 0, 63, 95
1, 180794, Note_on_c, 0, 43, 0
1, 180794, Note_on_c, 0, 31, 0
1, 180794, Note_on_c, 0, 31, 75
1, 180865, Note_on_c, 0, 43, 65
1, 180938, Note_on_c, 0, 43, 0
1, 180938, Note_on_c, 0, 31, 0
1, 180938, Note_on_c, 0, 31, 72
1, 181012, Note_on_c, 0, 43, 65
1, 181086, Note_on_c, 0, 43, 0
1, 181086, Note_on_c, 0, 31, 0
1, 181086, Note_on_c, 0, 31, 72
1, 181160, Note_on_c, 0, 43, 65
1, 181233, Note_on_c, 0, 43, 0
1, 181233, Note_on_c, 0, 31, 0
1, 181233, Note_on_c, 0, 31, 70
1, 181307, Note_on_c, 0, 43, 65
1, 181381, Note_on_c, 0, 61, 0
1, 181381, Note_on_c, 0, 58, 0
1, 181381, Note_on_c, 0, 60, 78
1, 181384, Note_on_c, 0, 43, 0
1, 181384, Note_on_c, 0, 31, 0
1, 181384, Note_on_c, 0, 32, 60
1, 181458, Note_on_c, 0, 44, 61
1, 181534, Note_on_c, 0, 60, 0
1, 181534, Note_on_c, 0, 63, 0
1, 181534, Note_on_c, 0, 73, 78
1, 181537, Note_on_c, 0, 44, 0
1, 181537, Note_on_c, 0, 32, 0
1, 181537, Note_on_c, 0, 32, 61
1, 181589, Note_on_c, 0, 73, 0
1, 181608, Note_on_c, 0, 44, 62
1, 181681, Note_on_c, 0, 72, 80
1, 181681, Note_on_c, 0, 44, 0
1, 181681, Note_on_c, 0, 32, 0
1, 181684, Note_on_c, 0, 32, 63
1, 181735, Note_on_c, 0, 72, 0
1, 181753, Note_on_c, 0, 44, 64
1, 181825, Note_on_c, 0, 73, 82
1, 181825, Note_on_c, 0, 79, 82
1, 181825, Note_on_c, 0, 44, 0
1, 181828, Note_on_c, 0, 32, 0
1, 181828, Note_on_c, 0, 32, 65
1, 181879, Note_on_c, 0, 79, 0
1, 181879, Note_on_c, 0, 73, 0
1, 181897, Note_on_c, 0, 44, 66
1, 181969, Note_on_c, 0, 72, 84
1, 181969, Note_on_c, 0, 80, 84
1, 181969, Note_on_c, 0, 44, 0
1, 181972, Note_on_c, 0, 32, 0
1, 181972, Note_on_c, 0, 32, 67
1, 182023, Note_on_c, 0, 80, 0
1, 182023, Note_on_c, 0, 72, 0
1, 182041, Note_on_c, 0, 44, 68
1, 182113, Note_on_c, 0, 79, 86
1, 182113, Note_on_c, 0, 85, 86
1, 182113, Note_on_c, 0, 44, 0
1, 182116, Note_on_c, 0, 32, 0
1, 182116, Note_on_c, 0, 32, 69
1, 182167, Note_on_c, 0, 85, 0
1, 182167, Note_on_c, 0, 79, 0
1, 182185, Note_on_c, 0, 44, 70
1, 182257, Note_on_c, 0, 80, 88
1, 182257, Note_on_c, 0, 84, 88
1, 182257, Note_on_c, 0, 44, 0
1, 182260, Note_on_c, 0, 32, 0
1, 182260, Note_on_c, 0, 32, 72
1, 182311, Note_on_c, 0, 84, 0
1, 182311, Note_on_c, 0, 80, 0
1, 182329, Note_on_c, 0, 44, 72
1, 182401, Note_on_c, 0, 85, 90
1, 182401, Note_on_c, 0, 79, 90
1, 182401, Note_on_c, 0, 44, 0
1, 182404, Note_on_c, 0, 32, 0
1, 182404, Note_on_c, 0, 32, 73
1, 182455, Note_on_c, 0, 79, 0
1, 182455, Note_on_c, 0, 85, 0
1, 182473, Note_on_c, 0, 44, 74
1, 182545, Note_on_c, 0, 84, 92
1, 182545, Note_on_c, 0, 80, 92
1, 182545, Note_on_c, 0, 44, 0
1, 182548, Note_on_c, 0, 32, 0
1, 182548, Note_on_c, 0, 32, 75
1, 182618, Note_on_c, 0, 80, 0
1, 182618, Note_on_c, 0, 84, 0
1, 182618, Note_on_c, 0, 44, 65
1, 182691, Note_on_c, 0, 44, 0
1, 182691, Note_on_c, 0, 32, 0
1, 182691, Note_on_c, 0, 32, 72
1, 182764, Note_on_c, 0, 44, 65
1, 182838, Note_on_c, 0, 44, 0
1, 182838, Note_on_c, 0, 32, 0
1, 182838, Note_on_c, 0, 32, 72
1, 182911, Note_on_c, 0, 44, 65
1, 182984, Note_on_c, 0, 44, 0
1, 182984, Note_on_c, 0, 32, 0
1, 182984, Note_on_c, 0, 32, 70
1, 183057, Note_on_c, 0, 44, 65
1, 183130, Note_on_c, 0, 60, 92
1, 183130, Note_on_c, 0, 63, 92
1, 183130, Note_on_c, 0, 66, 95
1, 183133, Note_on_c, 0, 44, 0
1, 183133, Note_on_c, 0, 32, 0
1, 183133, Note_on_c, 0, 33, 75
1, 183204, Note_on_c, 0, 45, 65
1, 183278, Note_on_c, 0, 45, 0
1, 183278, Note_on_c, 0, 33, 0
1, 183278, Note_on_c, 0, 33, 72
1, 183351, Note_on_c, 0, 45, 65
1, 183425, Note_on_c, 0, 45, 0
1, 183425, Note_on_c, 0, 33, 0
1, 183425, Note_on_c, 0, 33, 72
1, 183499, Note_on_c, 0, 45, 65
1, 183573, Note_on_c, 0, 45, 0
1, 183573, Note_on_c, 0, 33, 0
1, 183573, Note_on_c, 0, 33, 70
1, 183646, Note_on_c, 0, 45, 65
1, 183720, Note_on_c, 0, 66, 0
1, 183720, Note_on_c, 0, 63, 0
1, 183720, Note_on_c, 0, 60, 0
1, 183723, Note_on_c, 0, 62, 78
1, 183723, Note_on_c, 0, 65, 78
1, 183723, Note_on_c, 0, 45, 0
1, 183726, Note_on_c, 0, 33, 0
1, 183726, Note_on_c, 0, 34, 60
1, 183797, Note_on_c, 0, 46, 61
1, 183874, Note_on_c, 0, 65, 0
1, 183874, Note_on_c, 0, 62, 0
1, 183874, Note_on_c, 0, 69, 73
1, 183877, Note_on_c, 0, 75, 78
1, 183877, Note_on_c, 0, 46, 0
1, 183877, Note_on_c, 0, 34, 0
1, 183880, Note_on_c, 0, 34, 61
1, 183928, Note_on_c, 0, 75, 0
1, 183928, Note_on_c, 0, 69, 0
1, 183946, Note_on_c, 0, 46, 62
1, 184018, Note_on_c, 0, 70, 76
1, 184018, Note_on_c, 0, 74, 80
1, 184018, Note_on_c, 0, 46, 0
1, 184021, Note_on_c, 0, 34, 0
1, 184021, Note_on_c, 0, 34, 63
1, 184072, Note_on_c, 0, 74, 0
1, 184072, Note_on_c, 0, 70, 0
1, 184090, Note_on_c, 0, 46, 64
1, 184161, Note_on_c, 0, 75, 82
1, 184161, Note_on_c, 0, 81, 82
1, 184161, Note_on_c, 0, 46, 0
1, 184164, Note_on_c, 0, 34, 0
1, 184164, Note_on_c, 0, 34, 65
1, 184215, Note_on_c, 0, 81, 0
1, 184215, Note_on_c, 0, 75, 0
1, 184233, Note_on_c, 0, 46, 66
1, 184305, Note_on_c, 0, 74, 84
1, 184305, Note_on_c, 0, 82, 84
1, 184305, Note_on_c, 0, 46, 0
1, 184308, Note_on_c, 0, 34, 0
1, 184308, Note_on_c, 0, 34, 67
1, 184359, Note_on_c, 0, 82, 0
1, 184359, Note_on_c, 0, 74, 0
1, 184377, Note_on_c, 0, 46, 68
1, 184448, Note_on_c, 0, 81, 86
1, 184448, Note_on_c, 0, 87, 86
1, 184448, Note_on_c, 0, 46, 0
1, 184451, Note_on_c, 0, 34, 0
1, 184451, Note_on_c, 0, 34, 69
1, 184502, Note_on_c, 0, 87, 0
1, 184502, Note_on_c, 0, 81, 0
1, 184520, Note_on_c, 0, 46, 70
1, 184592, Note_on_c, 0, 82, 88
1, 184592, Note_on_c, 0, 86, 88
1, 184592, Note_on_c, 0, 46, 0
1, 184595, Note_on_c, 0, 34, 0
1, 184595, Note_on_c, 0, 34, 72
1, 184646, Note_on_c, 0, 86, 0
1, 184646, Note_on_c, 0, 82, 0
1, 184664, Note_on_c, 0, 46, 72
1, 184736, Note_on_c, 0, 87, 90
1, 184736, Note_on_c, 0, 81, 90
1, 184736, Note_on_c, 0, 46, 0
1, 184739, Note_on_c, 0, 34, 0
1, 184739, Note_on_c, 0, 34, 73
1, 184789, Note_on_c, 0, 81, 0
1, 184789, Note_on_c, 0, 87, 0
1, 184807, Note_on_c, 0, 46, 74
1, 184879, Note_on_c, 0, 86, 92
1, 184879, Note_on_c, 0, 82, 92
1, 184879, Note_on_c, 0, 46, 0
1, 184882, Note_on_c, 0, 34, 0
1, 184882, Note_on_c, 0, 34, 75
1, 184952, Note_on_c, 0, 82, 0
1, 184952, Note_on_c, 0, 86, 0
1, 184952, Note_on_c, 0, 46, 65
1, 185025, Note_on_c, 0, 46, 0
1, 185025, Note_on_c, 0, 34, 0
1, 185025, Note_on_c, 0, 34, 72
1, 185099, Note_on_c, 0, 46, 65
1, 185172, Note_on_c, 0, 75, 92
1, 185172, Note_on_c, 0, 81, 92
1, 185172, Note_on_c, 0, 46, 0
1, 185175, Note_on_c, 0, 34, 0
1, 185175, Note_on_c, 0, 34, 72
1, 185244, Note_on_c, 0, 46, 65
1, 185316, Note_on_c, 0, 46, 0
1, 185316, Note_on_c, 0, 34, 0
1, 185316, Note_on_c, 0, 34, 70
1, 185388, Note_on_c, 0, 46, 65
1, 185461, Note_on_c, 0, 81, 0
1, 185461, Note_on_c, 0, 75, 0
1, 185461, Note_on_c, 0, 74, 92
1, 185464, Note_on_c, 0, 82, 92
1, 185464, Note_on_c, 0, 46, 0
1, 185464, Note_on_c, 0, 34, 0
1, 185467, Note_on_c, 0, 34, 75
1, 185534, Note_on_c, 0, 46, 65
1, 185607, Note_on_c, 0, 82, 0
1, 185607, Note_on_c, 0, 74, 0
1, 185607, Note_on_c, 0, 46, 0
1, 185610, Note_on_c, 0, 34, 0
1, 185610, Note_on_c, 0, 34, 72
1, 185680, Note_on_c, 0, 46, 65
1, 185753, Note_on_c, 0, 69, 92
1, 185753, Note_on_c, 0, 75, 92
1, 185753, Note_on_c, 0, 46, 0
1, 185756, Note_on_c, 0, 34, 0
1, 185756, Note_on_c, 0, 34, 72
1, 185825, Note_on_c, 0, 46, 65
1, 185897, Note_on_c, 0, 46, 0
1, 185897, Note_on_c, 0, 34, 0
1, 185897, Note_on_c, 0, 34, 70
1, 185969, Note_on_c, 0, 46, 65
1, 186041, Note_on_c, 0, 75, 0
1, 186041, Note_on_c, 0, 69, 0
1, 186041, Note_on_c, 0, 70, 92
1, 186044, Note_on_c, 0, 74, 92
1, 186044, Note_on_c, 0, 46, 0
1, 186044, Note_on_c, 0, 34, 0
1, 186047, Note_on_c, 0, 34, 75
1, 186114, Note_on_c, 0, 46, 65
1, 186188, Note_on_c, 0, 74, 0
1, 186188, Note_on_c, 0, 70, 0
1, 186188, Note_on_c, 0, 46, 0
1, 186191, Note_on_c, 0, 34, 0
1, 186191, Note_on_c, 0, 34, 72
1, 186261, Note_on_c, 0, 46, 65
1, 186334, Note_on_c, 0, 63, 92
1, 186334, Note_on_c, 0, 69, 92
1, 186334, Note_on_c, 0, 46, 0
1, 186337, Note_on_c, 0, 34, 0
1, 186337, Note_on_c, 0, 34, 72
1, 186406, Note_on_c, 0, 46, 65
1, 186479, Note_on_c, 0, 46, 0
1, 186479, Note_on_c, 0, 34, 0
1, 186479, Note_on_c, 0, 34, 70
1, 186551, Note_on_c, 0, 46, 65
1, 186624, Note_on_c, 0, 69, 0
1, 186624, Note_on_c, 0, 63, 0
1, 186624, Note_on_c, 0, 62, 92
1, 186627, Note_on_c, 0, 70, 92
1, 186627, Note_on_c, 0, 46, 0
1, 186627, Note_on_c, 0, 34, 0
1, 186630, Note_on_c, 0, 34, 75
1, 186697, Note_on_c, 0, 46, 65
1, 186770, Note_on_c, 0, 70, 0
1, 186770, Note_on_c, 0, 62, 0
1, 186770, Note_on_c, 0, 46, 0
1, 186773, Note_on_c, 0, 34, 0
1, 186773, Note_on_c, 0, 34, 72
1, 186843, Note_on_c, 0, 46, 65
1, 186916, Note_on_c, 0, 57, 92
1, 186916, Note_on_c, 0, 63, 92
1, 186916, Note_on_c, 0, 46, 0
1, 186919, Note_on_c, 0, 34, 0
1, 186919, Note_on_c, 0, 34, 72
1, 186988, Note_on_c, 0, 46, 65
1, 187061, Note_on_c, 0, 46, 0
1, 187061, Note_on_c, 0, 34, 0
1, 187061, Note_on_c, 0, 34, 70
1, 187134, Note_on_c, 0, 46, 65
1, 187207, Note_on_c, 0, 63, 0
1, 187207, Note_on_c, 0, 57, 0
1, 187207, Note_on_c, 0, 58, 92
1, 187210, Note_on_c, 0, 62, 92
1, 187210, Note_on_c, 0, 46, 0
1, 187210, Note_on_c, 0, 34, 0
1, 187213, Note_on_c, 0, 46, 65
1, 187213, Note_on_c, 0, 34, 75
1, 187359, Note_on_c, 0, 62, 0
1, 187359, Note_on_c, 0, 58, 0
1, 187359, Note_on_c, 0, 57, 60
1, 187362, Note_on_c, 0, 34, 0
1, 187362, Note_on_c, 0, 46, 0
1, 187510, Note_on_c, 0, 57, 0
1, 187510, Note_on_c, 0, 58, 69
1, 187661, Note_on_c, 0, 58, 0
1, 187661, Note_on_c, 0, 57, 66
1, 187812, Note_on_c, 0, 57, 0
1, 187812, Note_on_c, 0, 58, 67
1, 187964, Note_on_c, 0, 58, 0
1, 187964, Note_on_c, 0, 57, 59
1, 188115, Note_on_c, 0, 57, 0
1, 188115, Note_on_c, 0, 58, 67
1, 188266, Note_on_c, 0, 58, 0
1, 188266, Note_on_c, 0, 57, 61
1, 188417, Note_on_c, 0, 57, 0
1, 188417, Note_on_c, 0, 58, 54
1, 188571, Note_on_c, 0, 46, 65
1, 188571, Note_on_c, 0, 63, 48
1, 188571, Note_on_c, 0, 66, 48
1, 188646, Note_on_c, 0, 46, 0
1, 188722, Note_on_c, 0, 51, 68
1, 188722, Note_on_c, 0, 66, 0
1, 188722, Note_on_c, 0, 63, 0
1, 188725, Note_on_c, 0, 63, 48
1, 188725, Note_on_c, 0, 66, 48
1, 188795, Note_on_c, 0, 51, 0
1, 188868, Note_on_c, 0, 53, 72
1, 188868, Note_on_c, 0, 66, 0
1, 188868, Note_on_c, 0, 63, 0
1, 188871, Note_on_c, 0, 63, 48
1, 188871, Note_on_c, 0, 66, 48
1, 188941, Note_on_c, 0, 53, 0
1, 189014, Note_on_c, 0, 54, 75
1, 189014, Note_on_c, 0, 66, 0
1, 189014, Note_on_c, 0, 63, 0
1, 189017, Note_on_c, 0, 58, 0
1, 189017, Note_on_c, 0, 58, 54
1, 189091, Note_on_c, 0, 54, 0
1, 189167, Note_on_c, 0, 70, 73
1, 189167, Note_on_c, 0, 63, 48
1, 189167, Note_on_c, 0, 66, 48
1, 189243, Note_on_c, 0, 70, 0
1, 189320, Note_on_c, 0, 75, 75
1, 189320, Note_on_c, 0, 66, 0
1, 189320, Note_on_c, 0, 63, 0
1, 189323, Note_on_c, 0, 63, 48
1, 189323, Note_on_c, 0, 66, 48
1, 189395, Note_on_c, 0, 75, 0
1, 189469, Note_on_c, 0, 77, 77
1, 189469, Note_on_c, 0, 66, 0
1, 189469, Note_on_c, 0, 63, 0
1, 189472, Note_on_c, 0, 63, 48
1, 189472, Note_on_c, 0, 66, 48
1, 189544, Note_on_c, 0, 77, 0
1, 189581, Note_on_c, 0, 70, 76
1, 189618, Note_on_c, 0, 70, 0
1, 189618, Note_on_c, 0, 78, 86
1, 189618, Note_on_c, 0, 66, 0
1, 189621, Note_on_c, 0, 63, 0
1, 189621, Note_on_c, 0, 58, 0
1, 189621, Note_on_c, 0, 58, 54
1, 189770, Note_on_c, 0, 63, 48
1, 189770, Note_on_c, 0, 66, 48
1, 189920, Note_on_c, 0, 66, 0
1, 189920, Note_on_c, 0, 63, 0
1, 189920, Note_on_c, 0, 63, 48
1, 189923, Note_on_c, 0, 66, 48
1, 190070, Note_on_c, 0, 78, 0
1, 190070, Note_on_c, 0, 75, 74
1, 190070, Note_on_c, 0, 66, 0
1, 190073, Note_on_c, 0, 63, 0
1, 190073, Note_on_c, 0, 63, 48
1, 190073, Note_on_c, 0, 66, 48
1, 190184, Note_on_c, 0, 70, 70
1, 190222, Note_on_c, 0, 70, 0
1, 190222, Note_on_c, 0, 75, 0
1, 190222, Note_on_c, 0, 78, 82
1, 190225, Note_on_c, 0, 66, 0
1, 190225, Note_on_c, 0, 63, 0
1, 190225, Note_on_c, 0, 58, 0
1, 190228, Note_on_c, 0, 58, 54
1, 190374, Note_on_c, 0, 63, 48
1, 190374, Note_on_c, 0, 66, 48
1, 190524, Note_on_c, 0, 66, 0
1, 190524, Note_on_c, 0, 63, 0
1, 190524, Note_on_c, 0, 63, 48
1, 190527, Note_on_c, 0, 66, 48
1, 190674, Note_on_c, 0, 78, 0
1, 190674, Note_on_c, 0, 75, 68
1, 190674, Note_on_c, 0, 66, 0
1, 190677, Note_on_c, 0, 63, 0
1, 190677, Note_on_c, 0, 63, 48
1, 190677, Note_on_c, 0, 66, 48
1, 190825, Note_on_c, 0, 75, 0
1, 190825, Note_on_c, 0, 74, 70
1, 190825, Note_on_c, 0, 66, 0
1, 190828, Note_on_c, 0, 63, 0
1, 190828, Note_on_c, 0, 58, 0
1, 190828, Note_on_c, 0, 58, 54
1, 190981, Note_on_c, 0, 74, 0
1, 190981, Note_on_c, 0, 46, 67
1, 190981, Note_on_c, 0, 65, 48
1, 190984, Note_on_c, 0, 68, 48
1, 191055, Note_on_c, 0, 46, 0
1, 191130, Note_on_c, 0, 53, 70
1, 191130, Note_on_c, 0, 68, 0
1, 191130, Note_on_c, 0, 65, 0
1, 191133, Note_on_c, 0, 65, 48
1, 191133, Note_on_c, 0, 68, 48
1, 191204, Note_on_c, 0, 53, 0
1, 191277, Note_on_c, 0, 54, 74
1, 191277, Note_on_c, 0, 68, 0
1, 191277, Note_on_c, 0, 65, 0
1, 191280, Note_on_c, 0, 65, 48
1, 191280, Note_on_c, 0, 68, 48
1, 191350, Note_on_c, 0, 54, 0
1, 191423, Note_on_c, 0, 56, 77
1, 191423, Note_on_c, 0, 68, 0
1, 191423, Note_on_c, 0, 65, 0
1, 191426, Note_on_c, 0, 58, 0
1, 191426, Note_on_c, 0, 58, 54
1, 191499, Note_on_c, 0, 56, 0
1, 191576, Note_on_c, 0, 70, 69
1, 191576, Note_on_c, 0, 65, 48
1, 191576, Note_on_c, 0, 68, 48
1, 191729, Note_on_c, 0, 70, 0
1, 191729, Note_on_c, 0, 80, 73
1, 191729, Note_on_c, 0, 68, 0
1, 191732, Note_on_c, 0, 65, 0
1, 191732, Note_on_c, 0, 65, 48
1, 191732, Note_on_c, 0, 68, 48
1, 191878, Note_on_c, 0, 80, 0
1, 191878, Note_on_c, 0, 78, 76
1, 191878, Note_on_c, 0, 68, 0
1, 191881, Note_on_c, 0, 65, 0
1, 191881, Note_on_c, 0, 65, 48
1, 191881, Note_on_c, 0, 68, 48
1, 192028, Note_on_c, 0, 78, 0
1, 192028, Note_on_c, 0, 78, 70
1, 192028, Note_on_c, 0, 68, 0
1, 192031, Note_on_c, 0, 65, 0
1, 192031, Note_on_c, 0, 58, 0
1, 192031, Note_on_c, 0, 58, 54
1, 192066, Note_on_c, 0, 78, 0
1, 192066, Note_on_c, 0, 80, 70
1, 192104, Note_on_c, 0, 80, 0
1, 192104, Note_on_c, 0, 78, 78
1, 192180, Note_on_c, 0, 78, 0
1, 192180, Note_on_c, 0, 77, 70
1, 192180, Note_on_c, 0, 65, 48
1, 192183, Note_on_c, 0, 68, 48
1, 192333, Note_on_c, 0, 77, 0
1, 192333, Note_on_c, 0, 77, 70
1, 192333, Note_on_c, 0, 68, 0
1, 192336, Note_on_c, 0, 65, 0
1, 192336, Note_on_c, 0, 65, 48
1, 192336, Note_on_c, 0, 68, 48
1, 192371, Note_on_c, 0, 77, 0
1, 192371, Note_on_c, 0, 78, 70
1, 192409, Note_on_c, 0, 78, 0
1, 192409, Note_on_c, 0, 77, 78
1, 192485, Note_on_c, 0, 77, 0
1, 192485, Note_on_c, 0, 75, 70
1, 192485, Note_on_c, 0, 68, 0
1, 192488, Note_on_c, 0, 65, 0
1, 192488, Note_on_c, 0, 65, 48
1, 192488, Note_on_c, 0, 68, 48
1, 192637, Note_on_c, 0, 75, 0
1, 192637, Note_on_c, 0, 75, 70
1, 192637, Note_on_c, 0, 68, 0
1, 192640, Note_on_c, 0, 65, 0
1, 192640, Note_on_c, 0, 58, 0
1, 192640, Note_on_c, 0, 58, 54
1, 192675, Note_on_c, 0, 75, 0
1, 192675, Note_on_c, 0, 77, 70
1, 192714, Note_on_c, 0, 77, 0
1, 192714, Note_on_c, 0, 75, 77
1, 192790, Note_on_c, 0, 75, 0
1, 192790, Note_on_c, 0, 74, 70
1, 192790, Note_on_c, 0, 65, 48
1, 192793, Note_on_c, 0, 68, 48
1, 192942, Note_on_c, 0, 74, 0
1, 192942, Note_on_c, 0, 72, 70
1, 192942, Note_on_c, 0, 68, 0
1, 192945, Note_on_c, 0, 65, 0
1, 192945, Note_on_c, 0, 65, 48
1, 192945, Note_on_c, 0, 68, 48
1, 193018, Note_on_c, 0, 72, 0
1, 193094, Note_on_c, 0, 74, 70
1, 193094, Note_on_c, 0, 68, 0
1, 193094, Note_on_c, 0, 65, 0
1, 193097, Note_on_c, 0, 65, 48
1, 193097, Note_on_c, 0, 68, 48
1, 193170, Note_on_c, 0, 74, 0
1, 193247, Note_on_c, 0, 75, 70
1, 193247, Note_on_c, 0, 68, 0
1, 193247, Note_on_c, 0, 65, 0
1, 193250, Note_on_c, 0, 58, 0
1, 193250, Note_on_c, 0, 58, 54
1, 193403, Note_on_c, 0, 75, 0
1, 193403, Note_on_c, 0, 46, 65
1, 193403, Note_on_c, 0, 63, 48
1, 193406, Note_on_c, 0, 66, 48
1, 193477, Note_on_c, 0, 46, 0
1, 193552, Note_on_c, 0, 51, 68
1, 193552, Note_on_c, 0, 66, 0
1, 193552, Note_on_c, 0, 63, 0
1, 193555, Note_on_c, 0, 63, 48
1, 193555, Note_on_c, 0, 66, 48
1, 193626, Note_on_c, 0, 51, 0
1, 193699, Note_on_c, 0, 53, 72
1, 193699, Note_on_c, 0, 66, 0
1, 193699, Note_on_c, 0, 63, 0
1, 193702, Note_on_c, 0, 63, 48
1, 193702, Note_on_c, 0, 66, 48
1, 193772, Note_on_c, 0, 53, 0
1, 193845, Note_on_c, 0, 54, 75
1, 193845, Note_on_c, 0, 66, 0
1, 193845, Note_on_c, 0, 63, 0
1, 193848, Note_on_c, 0, 58, 0
1, 193848, Note_on_c, 0, 58, 54
1, 193921, Note_on_c, 0, 54, 0
1, 193998, Note_on_c, 0, 70, 73
1, 193998, Note_on_c, 0, 63, 48
1, 193998, Note_on_c, 0, 66, 48
1, 194074, Note_on_c, 0, 70, 0
1, 194151, Note_on_c, 0, 75, 75
1, 194151, Note_on_c, 0, 66, 0
1, 194151, Note_on_c, 0, 63, 0
1, 194154, Note_on_c, 0, 63, 48
1, 194154, Note_on_c, 0, 66, 48
1, 194225, Note_on_c, 0, 75, 0
1, 194300, Note_on_c, 0, 77, 77
1, 194300, Note_on_c, 0, 66, 0
1, 194300, Note_on_c, 0, 63, 0
1, 194303, Note_on_c, 0, 63, 48
1, 194303, Note_on_c, 0, 66, 48
1, 194375, Note_on_c, 0, 77, 0
1, 194412, Note_on_c, 0, 70, 76
1, 194449, Note_on_c, 0, 70, 0
1, 194449, Note_on_c, 0, 78, 86
1, 194449, Note_on_c, 0, 66, 0
1, 194452, Note_on_c, 0, 63, 0
1, 194452, Note_on_c, 0, 58, 0
1, 194452, Note_on_c, 0, 58, 54
1, 194601, Note_on_c, 0, 63, 48
1, 194601, Note_on_c, 0, 66, 48
1, 194751, Note_on_c, 0, 66, 0
1, 194751, Note_on_c, 0, 63, 0
1, 194751, Note_on_c, 0, 63, 48
1, 194754, Note_on_c, 0, 66, 48
1, 194900, Note_on_c, 0, 78, 0
1, 194900, Note_on_c, 0, 75, 74
1, 194900, Note_on_c, 0, 66, 0
1, 194903, Note_on_c, 0, 63, 0
1, 194903, Note_on_c, 0, 63, 48
1, 194903, Note_on_c, 0, 66, 48
1, 195015, Note_on_c, 0, 70, 70
1, 195053, Note_on_c, 0, 70, 0
1, 195053, Note_on_c, 0, 75, 0
1, 195053, Note_on_c, 0, 78, 82
1, 195056, Note_on_c, 0, 66, 0
1, 195056, Note_on_c, 0, 63, 0
1, 195056, Note_on_c, 0, 58, 0
1, 195059, Note_on_c, 0, 58, 54
1, 195205, Note_on_c, 0, 63, 48
1, 195205, Note_on_c, 0, 66, 48
1, 195355, Note_on_c, 0, 66, 0
1, 195355, Note_on_c, 0, 63, 0
1, 195355, Note_on_c, 0, 63, 48
1, 195358, Note_on_c, 0, 66, 48
1, 195505, Note_on_c, 0, 78, 0
1, 195505, Note_on_c, 0, 75, 68
1, 195505, Note_on_c, 0, 66, 0
1, 195508, Note_on_c, 0, 63, 0
1, 195508, Note_on_c, 0, 63, 48
1, 195508, Note_on_c, 0, 66, 48
1, 195656, Note_on_c, 0, 75, 0
1, 195656, Note_on_c, 0, 72, 70
1, 195656, Note_on_c, 0, 66, 0
1, 195659, Note_on_c, 0, 63, 0
1, 195659, Note_on_c, 0, 58, 0
1, 195659, Note_on_c, 0, 56, 54
1, 195812, Note_on_c, 0, 72, 0
1, 195812, Note_on_c, 0, 44, 67
1, 195812, Note_on_c, 0, 63, 48
1, 195815, Note_on_c, 0, 66, 48
1, 195886, Note_on_c, 0, 44, 0
1, 195960, Note_on_c, 0, 51, 70
1, 195960, Note_on_c, 0, 66, 0
1, 195960, Note_on_c, 0, 63, 0
1, 195963, Note_on_c, 0, 63, 48
1, 195963, Note_on_c, 0, 66, 48
1, 196033, Note_on_c, 0, 51, 0
1, 196106, Note_on_c, 0, 53, 74
1, 196106, Note_on_c, 0, 66, 0
1, 196106, Note_on_c, 0, 63, 0
1, 196109, Note_on_c, 0, 63, 48
1, 196109, Note_on_c, 0, 66, 48
1, 196178, Note_on_c, 0, 53, 0
1, 196251, Note_on_c, 0, 54, 77
1, 196251, Note_on_c, 0, 66, 0
1, 196251, Note_on_c, 0, 63, 0
1, 196254, Note_on_c, 0, 56, 0
1, 196254, Note_on_c, 0, 56, 54
1, 196327, Note_on_c, 0, 54, 0
1, 196404, Note_on_c, 0, 68, 69
1, 196404, Note_on_c, 0, 63, 48
1, 196404, Note_on_c, 0, 66, 48
1, 196557, Note_on_c, 0, 68, 0
1, 196557, Note_on_c, 0, 78, 73
1, 196557, Note_on_c, 0, 66, 0
1, 196560, Note_on_c, 0, 63, 0
1, 196560, Note_on_c, 0, 63, 48
1, 196560, Note_on_c, 0, 66, 48
1, 196706, Note_on_c, 0, 78, 0
1, 196706, Note_on_c, 0, 77, 76
1, 196706, Note_on_c, 0, 66, 0
1, 196709, Note_on_c, 0, 63, 0
1, 196709, Note_on_c, 0, 63, 48
1, 196709, Note_on_c, 0, 66, 48
1, 196856, Note_on_c, 0, 77, 0
1, 196856, Note_on_c, 0, 77, 70
1, 196856, Note_on_c, 0, 66, 0
1, 196859, Note_on_c, 0, 63, 0
1, 196859, Note_on_c, 0, 56, 0
1, 196859, Note_on_c, 0, 56, 54
1, 196894, Note_on_c, 0, 77, 0
1, 196894, Note_on_c, 0, 78, 70
1, 196932, Note_on_c, 0, 78, 0
1, 196932, Note_on_c, 0, 77, 78
1, 197008, Note_on_c, 0, 77, 0
1, 197008, Note_on_c, 0, 75, 70
1, 197008, Note_on_c, 0, 63, 48
1, 197011, Note_on_c, 0, 66, 48
1, 197161, Note_on_c, 0, 75, 0
1, 197161, Note_on_c, 0, 75, 70
1, 197161, Note_on_c, 0, 66, 0
1, 197164, Note_on_c, 0, 63, 0
1, 197164, Note_on_c, 0, 63, 48
1, 197164, Note_on_c, 0, 66, 48
1, 197199, Note_on_c, 0, 75, 0
1, 197199, Note_on_c, 0, 77, 70
1, 197237, Note_on_c, 0, 77, 0
1, 197237, Note_on_c, 0, 75, 78
1, 197313, Note_on_c, 0, 75, 0
1, 197313, Note_on_c, 0, 73, 70
1, 197313, Note_on_c, 0, 66, 0
1, 197316, Note_on_c, 0, 63, 0
1, 197316, Note_on_c, 0, 63, 48
1, 197316, Note_on_c, 0, 66, 48
1, 197465, Note_on_c, 0, 73, 0
1, 197465, Note_on_c, 0, 73, 70
1, 197465, Note_on_c, 0, 66, 0
1, 197468, Note_on_c, 0, 63, 0
1, 197468, Note_on_c, 0, 56, 0
1, 197468, Note_on_c, 0, 56, 54
1, 197503, Note_on_c, 0, 73, 0
1, 197503, Note_on_c, 0, 75, 70
1, 197541, Note_on_c, 0, 75, 0
1, 197541, Note_on_c, 0, 73, 77
1, 197618, Note_on_c, 0, 73, 0
1, 197618, Note_on_c, 0, 72, 70
1, 197618, Note_on_c, 0, 63, 48
1, 197621, Note_on_c, 0, 66, 48
1, 197770, Note_on_c, 0, 72, 0
1, 197770, Note_on_c, 0, 70, 70
1, 197770, Note_on_c, 0, 66, 0
1, 197773, Note_on_c, 0, 63, 0
1, 197773, Note_on_c, 0, 63, 48
1, 197773, Note_on_c, 0, 66, 48
1, 197846, Note_on_c, 0, 70, 0
1, 197922, Note_on_c, 0, 72, 70
1, 197922, Note_on_c, 0, 66, 0
1, 197922, Note_on_c, 0, 63, 0
1, 197925, Note_on_c, 0, 63, 48
1, 197925, Note_on_c, 0, 66, 48
1, 197998, Note_on_c, 0, 72, 0
1, 198074, Note_on_c, 0, 73, 70
1, 198074, Note_on_c, 0, 66, 0
1, 198074, Note_on_c, 0, 63, 0
1, 198077, Note_on_c, 0, 56, 0
1, 198077, Note_on_c, 0, 56, 54
1, 198228, Note_on_c, 0, 73, 0
1, 198228, Note_on_c, 0, 44, 65
1, 198228, Note_on_c, 0, 61, 48
1, 198231, Note_on_c, 0, 65, 48
1, 198303, Note_on_c, 0, 44, 0
1, 198378, Note_on_c, 0, 49, 68
1, 198378, Note_on_c, 0, 65, 0
1, 198378, Note_on_c, 0, 61, 0
1, 198381, Note_on_c, 0, 61, 48
1, 198381, Note_on_c, 0, 65, 48
1, 198452, Note_on_c, 0, 49, 0
1, 198525, Note_on_c, 0, 51, 72
1, 198525, Note_on_c, 0, 65, 0
1, 198525, Note_on_c, 0, 61, 0
1, 198528, Note_on_c, 0, 61, 48
1, 198528, Note_on_c, 0, 65, 48
1, 198599, Note_on_c, 0, 51, 0
1, 198673, Note_on_c, 0, 53, 75
1, 198673, Note_on_c, 0, 65, 0
1, 198673, Note_on_c, 0, 61, 0
1, 198676, Note_on_c, 0, 56, 0
1, 198676, Note_on_c, 0, 56, 54
1, 198749, Note_on_c, 0, 53, 0
1, 198826, Note_on_c, 0, 68, 73
1, 198826, Note_on_c, 0, 61, 48
1, 198826, Note_on_c, 0, 65, 48
1, 198902, Note_on_c, 0, 68, 0
1, 198978, Note_on_c, 0, 73, 75
1, 198978, Note_on_c, 0, 65, 0
1, 198978, Note_on_c, 0, 61, 0
1, 198981, Note_on_c, 0, 61, 48
1, 198981, Note_on_c, 0, 65, 48
1, 199053, Note_on_c, 0, 73, 0
1, 199128, Note_on_c, 0, 75, 77
1, 199128, Note_on_c, 0, 65, 0
1, 199128, Note_on_c, 0, 61, 0
1, 199131, Note_on_c, 0, 61, 48
1, 199131, Note_on_c, 0, 65, 48
1, 199202, Note_on_c, 0, 75, 0
1, 199240, Note_on_c, 0, 68, 76
1, 199277, Note_on_c, 0, 68, 0
1, 199277, Note_on_c, 0, 77, 86
1, 199277, Note_on_c, 0, 65, 0
1, 199280, Note_on_c, 0, 61, 0
1, 199280, Note_on_c, 0, 56, 0
1, 199280, Note_on_c, 0, 56, 54
1, 199429, Note_on_c, 0, 61, 48
1, 199429, Note_on_c, 0, 65, 48
1, 199578, Note_on_c, 0, 65, 0
1, 199578, Note_on_c, 0, 61, 0
1, 199578, Note_on_c, 0, 61, 48
1, 199581, Note_on_c, 0, 65, 48
1, 199728, Note_on_c, 0, 77, 0
1, 199728, Note_on_c, 0, 73, 74
1, 199728, Note_on_c, 0, 65, 0
1, 199731, Note_on_c, 0, 61, 0
1, 199731, Note_on_c, 0, 61, 48
1, 199731, Note_on_c, 0, 65, 48
1, 199842, Note_on_c, 0, 68, 70
1, 199880, Note_on_c, 0, 68, 0
1, 199880, Note_on_c, 0, 73, 0
1, 199880, Note_on_c, 0, 77, 82
1, 199883, Note_on_c, 0, 65, 0
1, 199883, Note_on_c, 0, 61, 0
1, 199883, Note_on_c, 0, 56, 0
1, 199886, Note_on_c, 0, 56, 54
1, 200033, Note_on_c, 0, 61, 48
1, 200033, Note_on_c, 0, 65, 48
1, 200183, Note_on_c, 0, 65, 0
1, 200183, Note_on_c, 0, 61, 0
1, 200183, Note_on_c, 0, 61, 48
1, 200186, Note_on_c, 0, 65, 48
1, 200332, Note_on_c, 0, 77, 0
1, 200332, Note_on_c, 0, 73, 68
1, 200332, Note_on_c, 0, 65, 0
1, 200335, Note_on_c, 0, 61, 0
1, 200335, Note_on_c, 0, 61, 48
1, 200335, Note_on_c, 0, 65, 48
1, 200484, Note_on_c, 0, 73, 0
1, 200484, Note_on_c, 0, 72, 70
1, 200484, Note_on_c, 0, 65, 0
1, 200487, Note_on_c, 0, 61, 0
1, 200487, Note_on_c, 0, 56, 0
1, 200487, Note_on_c, 0, 56, 54
1, 200638, Note_on_c, 0, 72, 0
1, 200638, Note_on_c, 0, 44, 67
1, 200638, Note_on_c, 0, 63, 48
1, 200641, Note_on_c, 0, 66, 48
1, 200713, Note_on_c, 0, 44, 0
1, 200787, Note_on_c, 0, 51, 70
1, 200787, Note_on_c, 0, 66, 0
1, 200787, Note_on_c, 0, 63, 0
1, 200790, Note_on_c, 0, 63, 48
1, 200790, Note_on_c, 0, 66, 48
1, 200860, Note_on_c, 0, 51, 0
1, 200933, Note_on_c, 0, 53, 74
1, 200933, Note_on_c, 0, 66, 0
1, 200933, Note_on_c, 0, 63, 0
1, 200936, Note_on_c, 0, 63, 48
1, 200936, Note_on_c, 0, 66, 48
1, 201006, Note_on_c, 0, 53, 0
1, 201079, Note_on_c, 0, 54, 77
1, 201079, Note_on_c, 0, 66, 0
1, 201079, Note_on_c, 0, 63, 0
1, 201082, Note_on_c, 0, 56, 0
1, 201082, Note_on_c, 0, 56, 54
1, 201155, Note_on_c, 0, 54, 0
1, 201232, Note_on_c, 0, 68, 69
1, 201232, Note_on_c, 0, 63, 48
1, 201232, Note_on_c, 0, 66, 48
1, 201385, Note_on_c, 0, 68, 0
1, 201385, Note_on_c, 0, 78, 73
1, 201385, Note_on_c, 0, 66, 0
1, 201388, Note_on_c, 0, 63, 0
1, 201388, Note_on_c, 0, 63, 48
1, 201388, Note_on_c, 0, 66, 48
1, 201534, Note_on_c, 0, 78, 0
1, 201534, Note_on_c, 0, 77, 76
1, 201534, Note_on_c, 0, 66, 0
1, 201537, Note_on_c, 0, 63, 0
1, 201537, Note_on_c, 0, 63, 48
1, 201537, Note_on_c, 0, 66, 48
1, 201684, Note_on_c, 0, 77, 0
1, 201684, Note_on_c, 0, 77, 70
1, 201684, Note_on_c, 0, 66, 0
1, 201687, Note_on_c, 0, 63, 0
1, 201687, Note_on_c, 0, 56, 0
1, 201687, Note_on_c, 0, 56, 54
1, 201722, Note_on_c, 0, 77, 0
1, 201722, Note_on_c, 0, 78, 70
1, 201760, Note_on_c, 0, 78, 0
1, 201760, Note_on_c, 0, 77, 78
1, 201836, Note_on_c, 0, 77, 0
1, 201836, Note_on_c, 0, 75, 70
1, 201836, Note_on_c, 0, 63, 48
1, 201839, Note_on_c, 0, 66, 48
1, 201989, Note_on_c, 0, 75, 0
1, 201989, Note_on_c, 0, 75, 70
1, 201989, Note_on_c, 0, 66, 0
1, 201992, Note_on_c, 0, 63, 0
1, 201992, Note_on_c, 0, 63, 48
1, 201992, Note_on_c, 0, 66, 48
1, 202027, Note_on_c, 0, 75, 0
1, 202027, Note_on_c, 0, 77, 70
1, 202065, Note_on_c, 0, 77, 0
1, 202065, Note_on_c, 0, 75, 78
1, 202141, Note_on_c, 0, 75, 0
1, 202141, Note_on_c, 0, 73, 70
1, 202141, Note_on_c, 0, 66, 0
1, 202144, Note_on_c, 0, 63, 0
1, 202144, Note_on_c, 0, 63, 48
1, 202144, Note_on_c, 0, 66, 48
1, 202293, Note_on_c, 0, 73, 0
1, 202293, Note_on_c, 0, 73, 70
1, 202293, Note_on_c, 0, 66, 0
1, 202296, Note_on_c, 0, 63, 0
1, 202296, Note_on_c, 0, 56, 0
1, 202296, Note_on_c, 0, 56, 54
1, 202331, Note_on_c, 0, 73, 0
1, 202331, Note_on_c, 0, 75, 70
1, 202369, Note_on_c, 0, 75, 0
1, 202369, Note_on_c, 0, 73, 77
1, 202446, Note_on_c, 0, 73, 0
1, 202446, Note_on_c, 0, 72, 70
1, 202446, Note_on_c, 0, 63, 48
1, 202449, Note_on_c, 0, 66, 48
1, 202598, Note_on_c, 0, 72, 0
1, 202598, Note_on_c, 0, 70, 70
1, 202598, Note_on_c, 0, 66, 0
1, 202601, Note_on_c, 0, 63, 0
1, 202601, Note_on_c, 0, 63, 48
1, 202601, Note_on_c, 0, 66, 48
1, 202674, Note_on_c, 0, 70, 0
1, 202750, Note_on_c, 0, 72, 67
1, 202750, Note_on_c, 0, 66, 0
1, 202750, Note_on_c, 0, 63, 0
1, 202753, Note_on_c, 0, 63, 48
1, 202753, Note_on_c, 0, 66, 48
1, 202826, Note_on_c, 0, 72, 0
1, 202903, Note_on_c, 0, 73, 70
1, 202903, Note_on_c, 0, 66, 0
1, 202903, Note_on_c, 0, 63, 0
1, 202906, Note_on_c, 0, 56, 0
1, 202906, Note_on_c, 0, 61, 64
1, 203056, Note_on_c, 0, 73, 0
1, 203056, Note_on_c, 0, 49, 84
1, 203056, Note_on_c, 0, 65, 63
1, 203059, Note_on_c, 0, 68, 63
1, 203206, Note_on_c, 0, 49, 0
1, 203206, Note_on_c, 0, 56, 88
1, 203206, Note_on_c, 0, 68, 0
1, 203209, Note_on_c, 0, 65, 0
1, 203209, Note_on_c, 0, 61, 0
1, 203209, Note_on_c, 0, 59, 70
1, 203353, Note_on_c, 0, 56, 0
1, 203353, Note_on_c, 0, 47, 84
1, 203353, Note_on_c, 0, 65, 63
1, 203356, Note_on_c, 0, 68, 63
1, 203430, Note_on_c, 0, 47, 0
1, 203507, Note_on_c, 0, 46, 88
1, 203507, Note_on_c, 0, 68, 0
1, 203507, Note_on_c, 0, 65, 0
1, 203510, Note_on_c, 0, 59, 0
1, 203510, Note_on_c, 0, 58, 63
1, 203584, Note_on_c, 0, 46, 0
1, 203661, Note_on_c, 0, 70, 69
1, 203661, Note_on_c, 0, 65, 48
1, 203661, Note_on_c, 0, 68, 48
1, 203815, Note_on_c, 0, 70, 0
1, 203815, Note_on_c, 0, 80, 73
1, 203815, Note_on_c, 0, 68, 0
1, 203818, Note_on_c, 0, 65, 0
1, 203818, Note_on_c, 0, 65, 48
1, 203818, Note_on_c, 0, 68, 48
1, 203965, Note_on_c, 0, 80, 0
1, 203965, Note_on_c, 0, 78, 76
1, 203965, Note_on_c, 0, 68, 0
1, 203968, Note_on_c, 0, 65, 0
1, 203968, Note_on_c, 0, 65, 48
1, 203968, Note_on_c, 0, 68, 48
1, 204115, Note_on_c, 0, 78, 0
1, 204115, Note_on_c, 0, 78, 70
1, 204115, Note_on_c, 0, 68, 0
1, 204118, Note_on_c, 0, 65, 0
1, 204118, Note_on_c, 0, 58, 0
1, 204118, Note_on_c, 0, 58, 54
1, 204153, Note_on_c, 0, 78, 0
1, 204153, Note_on_c, 0, 80, 70
1, 204191, Note_on_c, 0, 80, 0
1, 204191, Note_on_c, 0, 78, 78
1, 204267, Note_on_c, 0, 78, 0
1, 204267, Note_on_c, 0, 77, 70
1, 204267, Note_on_c, 0, 65, 48
1, 204270, Note_on_c, 0, 68, 48
1, 204419, Note_on_c, 0, 77, 0
1, 204419, Note_on_c, 0, 77, 70
1, 204419, Note_on_c, 0, 68, 0
1, 204422, Note_on_c, 0, 65, 0
1, 204422, Note_on_c, 0, 65, 48
1, 204422, Note_on_c, 0, 68, 48
1, 204457, Note_on_c, 0, 77, 0
1, 204457, Note_on_c, 0, 78, 70
1, 204495, Note_on_c, 0, 78, 0
1, 204495, Note_on_c, 0, 77, 78
1, 204571, Note_on_c, 0, 77, 0
1, 204571, Note_on_c, 0, 75, 70
1, 204571, Note_on_c, 0, 68, 0
1, 204574, Note_on_c, 0, 65, 0
1, 204574, Note_on_c, 0, 65, 48
1, 204574, Note_on_c, 0, 68, 48
1, 204724, Note_on_c, 0, 75, 0
1, 204724, Note_on_c, 0, 75, 70
1, 204724, Note_on_c, 0, 68, 0
1, 204727, Note_on_c, 0, 65, 0
1, 204727, Note_on_c, 0, 58, 0
1, 204727, Note_on_c, 0, 58, 54
1, 204762, Note_on_c, 0, 75, 0
1, 204762, Note_on_c, 0, 77, 70
1, 204800, Note_on_c, 0, 77, 0
1, 204800, Note_on_c, 0, 75, 77
1, 204876, Note_on_c, 0, 75, 0
1, 204876, Note_on_c, 0, 74, 70
1, 204876, Note_on_c, 0, 65, 48
1, 204879, Note_on_c, 0, 68, 48
1, 205028, Note_on_c, 0, 74, 0
1, 205028, Note_on_c, 0, 72, 70
1, 205028, Note_on_c, 0, 68, 0
1, 205031, Note_on_c, 0, 65, 0
1, 205031, Note_on_c, 0, 65, 48
1, 205031, Note_on_c, 0, 68, 48
1, 205104, Note_on_c, 0, 72, 0
1, 205181, Note_on_c, 0, 74, 67
1, 205181, Note_on_c, 0, 68, 0
1, 205181, Note_on_c, 0, 65, 0
1, 205184, Note_on_c, 0, 65, 48
1, 205184, Note_on_c, 0, 68, 48
1, 205257, Note_on_c, 0, 74, 0
1, 205333, Note_on_c, 0, 75, 70
1, 205333, Note_on_c, 0, 68, 0
1, 205333, Note_on_c, 0, 65, 0
1, 205336, Note_on_c, 0, 58, 0
1, 205336, Note_on_c, 0, 63, 64
1, 205490, Note_on_c, 0, 75, 0
1, 205490, Note_on_c, 0, 51, 84
1, 205490, Note_on_c, 0, 66, 63
1, 205493, Note_on_c, 0, 70, 63
1, 205641, Note_on_c, 0, 51, 0
1, 205641, Note_on_c, 0, 58, 88
1, 205641, Note_on_c, 0, 70, 0
1, 205644, Note_on_c, 0, 66, 0
1, 205644, Note_on_c, 0, 63, 0
1, 205644, Note_on_c, 0, 61, 70
1, 205789, Note_on_c, 0, 58, 0
1, 205789, Note_on_c, 0, 49, 84
1, 205789, Note_on_c, 0, 65, 63
1, 205792, Note_on_c, 0, 70, 63
1, 205866, Note_on_c, 0, 49, 0
1, 205943, Note_on_c, 0, 48, 88
1, 205943, Note_on_c, 0, 70, 0
1, 205943, Note_on_c, 0, 65, 0
1, 205946, Note_on_c, 0, 61, 0
1, 205946, Note_on_c, 0, 60, 63
1, 206020, Note_on_c, 0, 48, 0
1, 206097, Note_on_c, 0, 72, 69
1, 206097, Note_on_c, 0, 67, 48
1, 206097, Note_on_c, 0, 70, 48
1, 206251, Note_on_c, 0, 72, 0
1, 206251, Note_on_c, 0, 82, 73
1, 206251, Note_on_c, 0, 70, 0
1, 206254, Note_on_c, 0, 67, 0
1, 206254, Note_on_c, 0, 67, 48
1, 206254, Note_on_c, 0, 70, 48
1, 206400, Note_on_c, 0, 82, 0
1, 206400, Note_on_c, 0, 80, 76
1, 206400, Note_on_c, 0, 70, 0
1, 206403, Note_on_c, 0, 67, 0
1, 206403, Note_on_c, 0, 67, 48
1, 206403, Note_on_c, 0, 70, 48
1, 206550, Note_on_c, 0, 80, 0
1, 206550, Note_on_c, 0, 80, 70
1, 206550, Note_on_c, 0, 70, 0
1, 206553, Note_on_c, 0, 67, 0
1, 206553, Note_on_c, 0, 60, 0
1, 206553, Note_on_c, 0, 60, 54
1, 206588, Note_on_c, 0, 80, 0
1, 206588, Note_on_c, 0, 82, 70
1, 206626, Note_on_c, 0, 82, 0
1, 206626, Note_on_c, 0, 80, 78
1, 206702, Note_on_c, 0, 80, 0
1, 206702, Note_on_c, 0, 79, 70
1, 206702, Note_on_c, 0, 67, 48
1, 206705, Note_on_c, 0, 70, 48
1, 206855, Note_on_c, 0, 79, 0
1, 206855, Note_on_c, 0, 79, 70
1, 206855, Note_on_c, 0, 70, 0
1, 206858, Note_on_c, 0, 67, 0
1, 206858, Note_on_c, 0, 67, 48
1, 206858, Note_on_c, 0, 70, 48
1, 206893, Note_on_c, 0, 79, 0
1, 206893, Note_on_c, 0, 80, 70
1, 206931, Note_on_c, 0, 80, 0
1, 206931, Note_on_c, 0, 79, 78
1, 207007, Note_on_c, 0, 79, 0
1, 207007, Note_on_c, 0, 77, 70
1, 207007, Note_on_c, 0, 70, 0
1, 207010, Note_on_c, 0, 67, 0
1, 207010, Note_on_c, 0, 67, 48
1, 207010, Note_on_c, 0, 70, 48
1, 207159, Note_on_c, 0, 77, 0
1, 207159, Note_on_c, 0, 77, 70
1, 207159, Note_on_c, 0, 70, 0
1, 207162, Note_on_c, 0, 67, 0
1, 207162, Note_on_c, 0, 60, 0
1, 207162, Note_on_c, 0, 60, 54
1, 207197, Note_on_c, 0, 77, 0
1, 207197, Note_on_c, 0, 79, 70
1, 207235, Note_on_c, 0, 79, 0
1, 207235, Note_on_c, 0, 77, 77
1, 207312, Note_on_c, 0, 77, 0
1, 207312, Note_on_c, 0, 76, 70
1, 207312, Note_on_c, 0, 67, 48
1, 207315, Note_on_c, 0, 70, 48
1, 207464, Note_on_c, 0, 76, 0
1, 207464, Note_on_c, 0, 74, 70
1, 207464, Note_on_c, 0, 70, 0
1, 207467, Note_on_c, 0, 67, 0
1, 207467, Note_on_c, 0, 67, 48
1, 207467, Note_on_c, 0, 70, 48
1, 207616, Note_on_c, 0, 74, 0
1, 207616, Note_on_c, 0, 76, 67
1, 207616, Note_on_c, 0, 70, 0
1, 207619, Note_on_c, 0, 67, 0
1, 207619, Note_on_c, 0, 67, 48
1, 207619, Note_on_c, 0, 70, 48
1, 207769, Note_on_c, 0, 76, 0
1, 207769, Note_on_c, 0, 79, 70
1, 207769, Note_on_c, 0, 70, 0
1, 207772, Note_on_c, 0, 67, 0
1, 207772, Note_on_c, 0, 60, 0
1, 207772, Note_on_c, 0, 65, 54
1, 207807, Note_on_c, 0, 79, 0
1, 207807, Note_on_c, 0, 80, 70
1, 207845, Note_on_c, 0, 80, 0
1, 207845, Note_on_c, 0, 79, 78
1, 207921, Note_on_c, 0, 79, 0
1, 207921, Note_on_c, 0, 77, 70
1, 207921, Note_on_c, 0, 68, 48
1, 207924, Note_on_c, 0, 72, 48
1, 208073, Note_on_c, 0, 77, 0
1, 208073, Note_on_c, 0, 77, 70
1, 208073, Note_on_c, 0, 72, 0
1, 208076, Note_on_c, 0, 68, 0
1, 208076, Note_on_c, 0, 68, 48
1, 208076, Note_on_c, 0, 72, 48
1, 208111, Note_on_c, 0, 77, 0
1, 208111, Note_on_c, 0, 79, 70
1, 208149, Note_on_c, 0, 79, 0
1, 208149, Note_on_c, 0, 77, 78
1, 208225, Note_on_c, 0, 77, 0
1, 208225, Note_on_c, 0, 75, 70
1, 208225, Note_on_c, 0, 72, 0
1, 208228, Note_on_c, 0, 68, 0
1, 208228, Note_on_c, 0, 68, 48
1, 208228, Note_on_c, 0, 72, 48
1, 208378, Note_on_c, 0, 75, 0
1, 208378, Note_on_c, 0, 75, 70
1, 208378, Note_on_c, 0, 72, 0
1, 208381, Note_on_c, 0, 68, 0
1, 208381, Note_on_c, 0, 65, 0
1, 208381, Note_on_c, 0, 58, 54
1, 208416, Note_on_c, 0, 75, 0
1, 208416, Note_on_c, 0, 77, 70
1, 208454, Note_on_c, 0, 77, 0
1, 208454, Note_on_c, 0, 75, 77
1, 208530, Note_on_c, 0, 75, 0
1, 208530, Note_on_c, 0, 74, 70
1, 208530, Note_on_c, 0, 65, 48
1, 208533, Note_on_c, 0, 68, 48
1, 208682, Note_on_c, 0, 74, 0
1, 208682, Note_on_c, 0, 72, 70
1, 208682, Note_on_c, 0, 68, 0
1, 208685, Note_on_c, 0, 65, 0
1, 208685, Note_on_c, 0, 58, 0
1, 208685, Note_on_c, 0, 59, 54
1, 208688, Note_on_c, 0, 65, 48
1, 208688, Note_on_c, 0, 68, 48
1, 208835, Note_on_c, 0, 72, 0
1, 208835, Note_on_c, 0, 74, 67
1, 208835, Note_on_c, 0, 68, 0
1, 208838, Note_on_c, 0, 65, 0
1, 208838, Note_on_c, 0, 65, 48
1, 208838, Note_on_c, 0, 68, 48
1, 208987, Note_on_c, 0, 74, 0
1, 208987, Note_on_c, 0, 77, 70
1, 208987, Note_on_c, 0, 68, 0
1, 208990, Note_on_c, 0, 65, 0
1, 208990, Note_on_c, 0, 59, 0
1, 208990, Note_on_c, 0, 60, 54
1, 209025, Note_on_c, 0, 77, 0
1, 209025, Note_on_c, 0, 79, 70
1, 209063, Note_on_c, 0, 79, 0
1, 209063, Note_on_c, 0, 77, 78
1, 209139, Note_on_c, 0, 77, 0
1, 209139, Note_on_c, 0, 75, 69
1, 209139, Note_on_c, 0, 63, 47
1, 209142, Note_on_c, 0, 67, 47
1, 209292, Note_on_c, 0, 75, 0
1, 209292, Note_on_c, 0, 75, 68
1, 209292, Note_on_c, 0, 67, 0
1, 209295, Note_on_c, 0, 63, 0
1, 209295, Note_on_c, 0, 63, 46
1, 209295, Note_on_c, 0, 67, 46
1, 209330, Note_on_c, 0, 75, 0
1, 209330, Note_on_c, 0, 77, 68
1, 209368, Note_on_c, 0, 77, 0
1, 209368, Note_on_c, 0, 75, 75
1, 209444, Note_on_c, 0, 75, 0
1, 209444, Note_on_c, 0, 74, 67
1, 209444, Note_on_c, 0, 67, 0
1, 209447, Note_on_c, 0, 63, 0
1, 209447, Note_on_c, 0, 63, 46
1, 209447, Note_on_c, 0, 67, 46
1, 209596, Note_on_c, 0, 74, 0
1, 209596, Note_on_c, 0, 74, 66
1, 209596, Note_on_c, 0, 67, 0
1, 209599, Note_on_c, 0, 63, 0
1, 209599, Note_on_c, 0, 60, 0
1, 209599, Note_on_c, 0, 56, 51
1, 209634, Note_on_c, 0, 74, 0
1, 209634, Note_on_c, 0, 75, 65
1, 209672, Note_on_c, 0, 75, 0
1, 209672, Note_on_c, 0, 74, 72
1, 209748, Note_on_c, 0, 74, 0
1, 209748, Note_on_c, 0, 72, 65
1, 209748, Note_on_c, 0, 63, 44
1, 209751, Note_on_c, 0, 65, 44
1, 209901, Note_on_c, 0, 72, 0
1, 209901, Note_on_c, 0, 72, 64
1, 209901, Note_on_c, 0, 65, 0
1, 209904, Note_on_c, 0, 63, 0
1, 209904, Note_on_c, 0, 63, 44
1, 209904, Note_on_c, 0, 65, 44
1, 209939, Note_on_c, 0, 72, 0
1, 209939, Note_on_c, 0, 74, 64
1, 209978, Note_on_c, 0, 74, 0
1, 209978, Note_on_c, 0, 72, 69
1, 210055, Note_on_c, 0, 72, 0
1, 210055, Note_on_c, 0, 71, 63
1, 210055, Note_on_c, 0, 65, 0
1, 210058, Note_on_c, 0, 63, 0
1, 210058, Note_on_c, 0, 63, 43
1, 210058, Note_on_c, 0, 65, 43
1, 210211, Note_on_c, 0, 71, 0
1, 210211, Note_on_c, 0, 72, 62
1, 210211, Note_on_c, 0, 65, 0
1, 210214, Note_on_c, 0, 63, 0
1, 210214, Note_on_c, 0, 56, 0
1, 210214, Note_on_c, 0, 58, 48
1, 210251, Note_on_c, 0, 72, 0
1, 210251, Note_on_c, 0, 74, 62
1, 210291, Note_on_c, 0, 74, 0
1, 210291, Note_on_c, 0, 72, 66
1, 210370, Note_on_c, 0, 72, 0
1, 210370, Note_on_c, 0, 70, 61
1, 210370, Note_on_c, 0, 63, 42
1, 210373, Note_on_c, 0, 67, 42
1, 210530, Note_on_c, 0, 70, 0
1, 210530, Note_on_c, 0, 70, 60
1, 210530, Note_on_c, 0, 67, 0
1, 210533, Note_on_c, 0, 63, 0
1, 210533, Note_on_c, 0, 63, 41
1, 210533, Note_on_c, 0, 67, 41
1, 210589, Note_on_c, 0, 70, 0
1, 210689, Note_on_c, 0, 70, 56
1, 210689, Note_on_c, 0, 67, 0
1, 210689, Note_on_c, 0, 63, 0
1, 210692, Note_on_c, 0, 63, 41
1, 210692, Note_on_c, 0, 67, 41
1, 210749, Note_on_c, 0, 70, 0
1, 210848, Note_on_c, 0, 72, 47
1, 210848, Note_on_c, 0, 67, 0
1, 210848, Note_on_c, 0, 63, 0
1, 210851, Note_on_c, 0, 58, 0
1, 210851, Note_on_c, 0, 58, 37
1, 210890, Note_on_c, 0, 72, 0
1, 210890, Note_on_c, 0, 74, 47
1, 210931, Note_on_c, 0, 74, 0
1, 210931, Note_on_c, 0, 72, 51
1, 211014, Note_on_c, 0, 72, 0
1, 211014, Note_on_c, 0, 70, 47
1, 211014, Note_on_c, 0, 62, 33
1, 211017, Note_on_c, 0, 65, 33
1, 211179, Note_on_c, 0, 70, 0
1, 211179, Note_on_c, 0, 70, 47
1, 211179, Note_on_c, 0, 65, 0
1, 211182, Note_on_c, 0, 62, 0
1, 211182, Note_on_c, 0, 62, 33
1, 211182, Note_on_c, 0, 65, 33
1, 211241, Note_on_c, 0, 70, 0
1, 211344, Note_on_c, 0, 70, 45
1, 211344, Note_on_c, 0, 65, 0
1, 211344, Note_on_c, 0, 62, 0
1, 211347, Note_on_c, 0, 62, 33
1, 211347, Note_on_c, 0, 65, 33
1, 211406, Note_on_c, 0, 70, 0
1, 211509, Note_on_c, 0, 65, 0
1, 211509, Note_on_c, 0, 62, 0
1, 211509, Note_on_c, 0, 58, 0
1, 211512, Note_on_c, 0, 51, 46
1, 211572, Control_c, 0, 64, 127
1, 211592, Note_on_c, 0, 63, 35
1, 211592, Note_on_c, 0, 58, 34
1, 211674, Note_on_c, 0, 63, 0
1, 211674, Note_on_c, 0, 67, 39
1, 211674, Note_on_c, 0, 58, 0
1, 211677, Note_on_c, 0, 55, 36
1, 211752, Note_on_c, 0, 67, 0
1, 211752, Note_on_c, 0, 63, 39
1, 211752, Note_on_c, 0, 55, 0
1, 211755, Note_on_c, 0, 58, 34
1, 211831, Note_on_c, 0, 63, 0
1, 211831, Note_on_c, 0, 75, 55
1, 211831, Note_on_c, 0, 58, 0
1, 211834, Note_on_c, 0, 55, 42
1, 211908, Note_on_c, 0, 63, 38
1, 211908, Note_on_c, 0, 55, 0
1, 211908, Note_on_c, 0, 58, 35
1, 211986, Note_on_c, 0, 63, 0
1, 211986, Note_on_c, 0, 67, 40
1, 211986, Note_on_c, 0, 58, 0
1, 211989, Note_on_c, 0, 55, 38
1, 212064, Note_on_c, 0, 67, 0
1, 212064, Note_on_c, 0, 63, 38
1, 212064, Note_on_c, 0, 55, 0
1, 212067, Note_on_c, 0, 58, 36
1, 212141, Note_on_c, 0, 63, 0
1, 212141, Note_on_c, 0, 67, 41
1, 212141, Note_on_c, 0, 58, 0
1, 212144, Note_on_c, 0, 55, 44
1, 212144, Control_c, 0, 64, 0
1, 212182, Control_c, 0, 64, 127
1, 212218, Note_on_c, 0, 67, 0
1, 212218, Note_on_c, 0, 63, 40
1, 212218, Note_on_c, 0, 55, 0
1, 212221, Note_on_c, 0, 58, 36
1, 212295, Note_on_c, 0, 63, 0
1, 212295, Note_on_c, 0, 67, 42
1, 212295, Note_on_c, 0, 58, 0
1, 212298, Note_on_c, 0, 55, 39
1, 212371, Note_on_c, 0, 67, 0
1, 212371, Note_on_c, 0, 63, 39
1, 212371, Note_on_c, 0, 55, 0
1, 212374, Note_on_c, 0, 58, 36
1, 212448, Note_on_c, 0, 63, 0
1, 212448, Note_on_c, 0, 75, 0
1, 212448, Note_on_c, 0, 75, 60
1, 212451, Note_on_c, 0, 58, 0
1, 212451, Note_on_c, 0, 51, 0
1, 212451, Note_on_c, 0, 51, 46
1, 212525, Note_on_c, 0, 63, 40
1, 212525, Note_on_c, 0, 58, 38
1, 212602, Note_on_c, 0, 63, 0
1, 212602, Note_on_c, 0, 67, 43
1, 212602, Note_on_c, 0, 58, 0
1, 212605, Note_on_c, 0, 55, 42
1, 212679, Note_on_c, 0, 67, 0
1, 212679, Note_on_c, 0, 63, 42
1, 212679, Note_on_c, 0, 55, 0
1, 212682, Note_on_c, 0, 58, 38
1, 212756, Note_on_c, 0, 63, 0
1, 212756, Note_on_c, 0, 75, 0
1, 212756, Note_on_c, 0, 58, 0
1, 212759, Note_on_c, 0, 51, 0
1, 212759, Note_on_c, 0, 49, 55
1, 212759, Control_c, 0, 64, 0
1, 212821, Control_c, 0, 64, 127
1, 212841, Note_on_c, 0, 63, 42
1, 212841, Note_on_c, 0, 58, 40
1, 212924, Note_on_c, 0, 63, 0
1, 212924, Note_on_c, 0, 67, 46
1, 212924, Note_on_c, 0, 58, 0
1, 212927, Note_on_c, 0, 55, 42
1, 213002, Note_on_c, 0, 67, 0
1, 213002, Note_on_c, 0, 63, 45
1, 213002, Note_on_c, 0, 55, 0
1, 213005, Note_on_c, 0, 58, 39
1, 213080, Note_on_c, 0, 63, 0
1, 213080, Note_on_c, 0, 75, 64
1, 213080, Note_on_c, 0, 58, 0
1, 213083, Note_on_c, 0, 55, 48
1, 213158, Note_on_c, 0, 63, 43
1, 213158, Note_on_c, 0, 55, 0
1, 213158, Note_on_c, 0, 58, 40
1, 213235, Note_on_c, 0, 63, 0
1, 213235, Note_on_c, 0, 67, 45
1, 213235, Note_on_c, 0, 58, 0
1, 213238, Note_on_c, 0, 55, 43
1, 213313, Note_on_c, 0, 67, 0
1, 213313, Note_on_c, 0, 63, 42
1, 213313, Note_on_c, 0, 55, 0
1, 213316, Note_on_c, 0, 58, 40
1, 213390, Note_on_c, 0, 63, 0
1, 213390, Note_on_c, 0, 67, 45
1, 213390, Note_on_c, 0, 58, 0
1, 213393, Note_on_c, 0, 55, 48
1, 213396, Control_c, 0, 64, 0
1, 213432, Control_c, 0, 64, 127
1, 213468, Note_on_c, 0, 67, 0
1, 213468, Note_on_c, 0, 63, 43
1, 213468, Note_on_c, 0, 55, 0
1, 213471, Note_on_c, 0, 58, 39
1, 213545, Note_on_c, 0, 63, 0
1, 213545, Note_on_c, 0, 67, 45
1, 213545, Note_on_c, 0, 58, 0
1, 213548, Note_on_c, 0, 55, 42
1, 213622, Note_on_c, 0, 67, 0
1, 213622, Note_on_c, 0, 63, 42
1, 213622, Note_on_c, 0, 55, 0
1, 213625, Note_on_c, 0, 58, 39
1, 213699, Note_on_c, 0, 63, 0
1, 213699, Note_on_c, 0, 75, 0
1, 213699, Note_on_c, 0, 75, 63
1, 213702, Note_on_c, 0, 58, 0
1, 213702, Note_on_c, 0, 49, 0
1, 213702, Note_on_c, 0, 49, 48
1, 213776, Note_on_c, 0, 63, 42
1, 213776, Note_on_c, 0, 58, 40
1, 213854, Note_on_c, 0, 63, 0
1, 213854, Note_on_c, 0, 67, 45
1, 213854, Note_on_c, 0, 58, 0
1, 213857, Note_on_c, 0, 55, 43
1, 213931, Note_on_c, 0, 67, 0
1, 213931, Note_on_c, 0, 63, 43
1, 213931, Note_on_c, 0, 55, 0
1, 213934, Note_on_c, 0, 58, 39
1, 214014, Note_on_c, 0, 63, 0
1, 214014, Note_on_c, 0, 75, 0
1, 214014, Note_on_c, 0, 75, 77
1, 214017, Note_on_c, 0, 58, 0
1, 214017, Note_on_c, 0, 49, 0
1, 214017, Note_on_c, 0, 48, 65
1, 214020, Control_c, 0, 64, 0
1, 214071, Note_on_c, 0, 75, 0
1, 214071, Note_on_c, 0, 48, 0
1, 214090, Note_on_c, 0, 63, 51
1, 214090, Note_on_c, 0, 56, 46
1, 214166, Note_on_c, 0, 63, 0
1, 214166, Note_on_c, 0, 68, 55
1, 214166, Note_on_c, 0, 56, 0
1, 214169, Note_on_c, 0, 51, 49
1, 214242, Note_on_c, 0, 68, 0
1, 214242, Note_on_c, 0, 63, 52
1, 214242, Note_on_c, 0, 51, 0
1, 214245, Note_on_c, 0, 56, 45
1, 214318, Note_on_c, 0, 63, 0
1, 214318, Note_on_c, 0, 76, 78
1, 214318, Note_on_c, 0, 56, 0
1, 214321, Note_on_c, 0, 46, 66
1, 214375, Note_on_c, 0, 76, 0
1, 214375, Note_on_c, 0, 46, 0
1, 214394, Note_on_c, 0, 64, 53
1, 214394, Note_on_c, 0, 55, 46
1, 214469, Note_on_c, 0, 64, 0
1, 214469, Note_on_c, 0, 72, 57
1, 214469, Note_on_c, 0, 55, 0
1, 214472, Note_on_c, 0, 48, 53
1, 214544, Note_on_c, 0, 72, 0
1, 214544, Note_on_c, 0, 64, 53
1, 214544, Note_on_c, 0, 48, 0
1, 214547, Note_on_c, 0, 55, 51
1, 214619, Note_on_c, 0, 64, 0
1, 214619, Note_on_c, 0, 77, 82
1, 214619, Note_on_c, 0, 55, 0
1, 214622, Note_on_c, 0, 44, 68
1, 214674, Note_on_c, 0, 77, 0
1, 214674, Note_on_c, 0, 44, 0
1, 214693, Note_on_c, 0, 65, 55
1, 214693, Note_on_c, 0, 56, 48
1, 214766, Note_on_c, 0, 65, 0
1, 214766, Note_on_c, 0, 72, 60
1, 214766, Note_on_c, 0, 56, 0
1, 214769, Note_on_c, 0, 48, 53
1, 214840, Note_on_c, 0, 72, 0
1, 214840, Note_on_c, 0, 65, 55
1, 214840, Note_on_c, 0, 48, 0
1, 214843, Note_on_c, 0, 56, 48
1, 214913, Note_on_c, 0, 65, 0
1, 214913, Note_on_c, 0, 79, 83
1, 214913, Note_on_c, 0, 56, 0
1, 214916, Note_on_c, 0, 43, 70
1, 214968, Note_on_c, 0, 79, 0
1, 214968, Note_on_c, 0, 43, 0
1, 214986, Note_on_c, 0, 67, 57
1, 214986, Note_on_c, 0, 55, 50
1, 215060, Note_on_c, 0, 67, 0
1, 215060, Note_on_c, 0, 72, 60
1, 215060, Note_on_c, 0, 55, 0
1, 215063, Note_on_c, 0, 48, 53
1, 215133, Note_on_c, 0, 72, 0
1, 215133, Note_on_c, 0, 67, 57
1, 215133, Note_on_c, 0, 48, 0
1, 215136, Note_on_c, 0, 55, 48
1, 215207, Note_on_c, 0, 67, 0
1, 215207, Note_on_c, 0, 80, 85
1, 215207, Note_on_c, 0, 55, 0
1, 215210, Note_on_c, 0, 41, 74
1, 215261, Note_on_c, 0, 80, 0
1, 215261, Note_on_c, 0, 41, 0
1, 215279, Note_on_c, 0, 68, 59
1, 215279, Note_on_c, 0, 53, 52
1, 215351, Note_on_c, 0, 68, 0
1, 215351, Note_on_c, 0, 72, 64
1, 215351, Note_on_c, 0, 53, 0
1, 215354, Note_on_c, 0, 48, 55
1, 215424, Note_on_c, 0, 72, 0
1, 215424, Note_on_c, 0, 68, 59
1, 215424, Note_on_c, 0, 48, 0
1, 215427, Note_on_c, 0, 53, 52
1, 215497, Note_on_c, 0, 68, 0
1, 215497, Note_on_c, 0, 81, 91
1, 215497, Note_on_c, 0, 53, 0
1, 215500, Note_on_c, 0, 39, 77
1, 215551, Note_on_c, 0, 81, 0
1, 215551, Note_on_c, 0, 39, 0
1, 215569, Note_on_c, 0, 69, 60
1, 215569, Note_on_c, 0, 51, 51
1, 215641, Note_on_c, 0, 69, 0
1, 215641, Note_on_c, 0, 72, 65
1, 215641, Note_on_c, 0, 51, 0
1, 215644, Note_on_c, 0, 41, 57
1, 215714, Note_on_c, 0, 72, 0
1, 215714, Note_on_c, 0, 69, 61
1, 215714, Note_on_c, 0, 41, 0
1, 215717, Note_on_c, 0, 51, 51
1, 215786, Note_on_c, 0, 69, 0
1, 215786, Note_on_c, 0, 82, 95
1, 215786, Note_on_c, 0, 51, 0
1, 215789, Note_on_c, 0, 38, 79
1, 215841, Note_on_c, 0, 82, 0
1, 215841, Note_on_c, 0, 38, 0
1, 215859, Note_on_c, 0, 70, 61
1, 215859, Note_on_c, 0, 50, 55
1, 215930, Note_on_c, 0, 70, 0
1, 215930, Note_on_c, 0, 77, 68
1, 215930, Note_on_c, 0, 50, 0
1, 215933, Note_on_c, 0, 41, 59
1, 216003, Note_on_c, 0, 77, 0
1, 216003, Note_on_c, 0, 70, 63
1, 216003, Note_on_c, 0, 41, 0
1, 216006, Note_on_c, 0, 50, 53
1, 216075, Note_on_c, 0, 70, 0
1, 216075, Note_on_c, 0, 84, 96
1, 216075, Note_on_c, 0, 50, 0
1, 216078, Note_on_c, 0, 36, 81
1, 216129, Note_on_c, 0, 84, 0
1, 216129, Note_on_c, 0, 36, 0
1, 216147, Note_on_c, 0, 72, 63
1, 216147, Note_on_c, 0, 48, 55
1, 216219, Note_on_c, 0, 72, 0
1, 216219, Note_on_c, 0, 77, 68
1, 216219, Note_on_c, 0, 48, 0
1, 216222, Note_on_c, 0, 41, 61
1, 216291, Note_on_c, 0, 77, 0
1, 216291, Note_on_c, 0, 72, 64
1, 216291, Note_on_c, 0, 41, 0
1, 216294, Note_on_c, 0, 48, 53
1, 216363, Note_on_c, 0, 72, 0
1, 216363, Note_on_c, 0, 85, 96
1, 216363, Note_on_c, 0, 48, 0
1, 216366, Note_on_c, 0, 34, 81
1, 216417, Note_on_c, 0, 85, 0
1, 216417, Note_on_c, 0, 34, 0
1, 216435, Note_on_c, 0, 73, 65
1, 216435, Note_on_c, 0, 46, 57
1, 216508, Note_on_c, 0, 73, 0
1, 216508, Note_on_c, 0, 77, 74
1, 216508, Note_on_c, 0, 46, 0
1, 216511, Note_on_c, 0, 41, 63
1, 216580, Note_on_c, 0, 77, 0
1, 216580, Note_on_c, 0, 73, 65
1, 216580, Note_on_c, 0, 41, 0
1, 216583, Note_on_c, 0, 46, 58
1, 216652, Note_on_c, 0, 73, 0
1, 216652, Note_on_c, 0, 86, 101
1, 216652, Note_on_c, 0, 46, 0
1, 216655, Note_on_c, 0, 32, 83
1, 216707, Note_on_c, 0, 86, 0
1, 216707, Note_on_c, 0, 32, 0
1, 216725, Note_on_c, 0, 74, 67
1, 216725, Note_on_c, 0, 44, 57
1, 216796, Note_on_c, 0, 74, 0
1, 216796, Note_on_c, 0, 77, 73
1, 216796, Note_on_c, 0, 44, 0
1, 216799, Note_on_c, 0, 41, 63
1, 216869, Note_on_c, 0, 77, 0
1, 216869, Note_on_c, 0, 74, 67
1, 216869, Note_on_c, 0, 41, 0
1, 216872, Note_on_c, 0, 44, 60
1, 216941, Note_on_c, 0, 74, 0
1, 216941, Note_on_c, 0, 87, 100
1, 216941, Note_on_c, 0, 44, 0
1, 216944, Note_on_c, 0, 31, 86
1, 216995, Note_on_c, 0, 87, 0
1, 216995, Note_on_c, 0, 31, 0
1, 217013, Note_on_c, 0, 75, 69
1, 217013, Note_on_c, 0, 43, 60
1, 217085, Note_on_c, 0, 75, 0
1, 217085, Note_on_c, 0, 82, 75
1, 217085, Note_on_c, 0, 43, 0
1, 217088, Note_on_c, 0, 39, 65
1, 217158, Note_on_c, 0, 82, 0
1, 217158, Note_on_c, 0, 75, 69
1, 217158, Note_on_c, 0, 39, 0
1, 217161, Note_on_c, 0, 43, 60
1, 217231, Note_on_c, 0, 75, 0
1, 217231, Note_on_c, 0, 83, 102
1, 217231, Note_on_c, 0, 43, 0
1, 217234, Note_on_c, 0, 31, 87
1, 217288, Note_on_c, 0, 83, 0
1, 217288, Note_on_c, 0, 31, 0
1, 217307, Note_on_c, 0, 71, 72
1, 217307, Note_on_c, 0, 43, 66
1, 217383, Note_on_c, 0, 71, 0
1, 217383, Note_on_c, 0, 75, 78
1, 217383, Note_on_c, 0, 43, 0
1, 217386, Note_on_c, 0, 39, 68
1, 217459, Note_on_c, 0, 75, 0
1, 217459, Note_on_c, 0, 71, 72
1, 217459, Note_on_c, 0, 39, 0
1, 217462, Note_on_c, 0, 43, 65
1, 217535, Note_on_c, 0, 71, 0
1, 217535, Note_on_c, 0, 43, 0
1, 217535, Note_on_c, 0, 32, 82
1, 217538, Note_on_c, 0, 44, 95
1, 217551, Control_c, 0, 64, 127
1, 217610, Note_on_c, 0, 72, 89
1, 217683, Note_on_c, 0, 72, 0
1, 217683, Note_on_c, 0, 75, 95
1, 217683, Note_on_c, 0, 44, 0
1, 217686, Note_on_c, 0, 32, 0
1, 217756, Note_on_c, 0, 75, 0
1, 217756, Note_on_c, 0, 72, 89
1, 217829, Note_on_c, 0, 72, 0
1, 217829, Note_on_c, 0, 84, 99
1, 217884, Note_on_c, 0, 84, 0
1, 217902, Note_on_c, 0, 72, 89
1, 217976, Note_on_c, 0, 72, 0
1, 217976, Note_on_c, 0, 75, 95
1, 218052, Note_on_c, 0, 75, 0
1, 218052, Note_on_c, 0, 72, 87
1, 218128, Note_on_c, 0, 72, 0
1, 218128, Note_on_c, 0, 46, 95
1, 218128, Note_on_c, 0, 34, 82
1, 218135, Control_c, 0, 64, 0
1, 218178, Control_c, 0, 64, 127
1, 218204, Note_on_c, 0, 65, 89
1, 218278, Note_on_c, 0, 65, 0
1, 218278, Note_on_c, 0, 68, 95
1, 218278, Note_on_c, 0, 34, 0
1, 218281, Note_on_c, 0, 46, 0
1, 218351, Note_on_c, 0, 68, 0
1, 218351, Note_on_c, 0, 65, 89
1, 218424, Note_on_c, 0, 65, 0
1, 218424, Note_on_c, 0, 74, 99
1, 218479, Note_on_c, 0, 74, 0
1, 218498, Note_on_c, 0, 65, 89
1, 218571, Note_on_c, 0, 65, 0
1, 218571, Note_on_c, 0, 68, 95
1, 218652, Note_on_c, 0, 68, 0
1, 218652, Note_on_c, 0, 65, 87
1, 218736, Note_on_c, 0, 65, 0
1, 218736, Note_on_c, 0, 51, 55
1, 218741, Control_c, 0, 64, 0
1, 218792, Control_c, 0, 64, 127
1, 218815, Note_on_c, 0, 63, 42
1, 218815, Note_on_c, 0, 58, 40
1, 218894, Note_on_c, 0, 63, 0
1, 218894, Note_on_c, 0, 67, 46
1, 218894, Note_on_c, 0, 58, 0
1, 218897, Note_on_c, 0, 55, 42
1, 218972, Note_on_c, 0, 67, 0
1, 218972, Note_on_c, 0, 63, 45
1, 218972, Note_on_c, 0, 55, 0
1, 218975, Note_on_c, 0, 58, 39
1, 219050, Note_on_c, 0, 63, 0
1, 219050, Note_on_c, 0, 75, 64
1, 219050, Note_on_c, 0, 58, 0
1, 219053, Note_on_c, 0, 55, 48
1, 219128, Note_on_c, 0, 63, 43
1, 219128, Note_on_c, 0, 55, 0
1, 219128, Note_on_c, 0, 58, 40
1, 219205, Note_on_c, 0, 63, 0
1, 219205, Note_on_c, 0, 67, 45
1, 219205, Note_on_c, 0, 58, 0
1, 219208, Note_on_c, 0, 55, 43
1, 219283, Note_on_c, 0, 67, 0
1, 219283, Note_on_c, 0, 63, 42
1, 219283, Note_on_c, 0, 55, 0
1, 219286, Note_on_c, 0, 58, 40
1, 219360, Note_on_c, 0, 63, 0
1, 219360, Note_on_c, 0, 67, 45
1, 219360, Note_on_c, 0, 58, 0
1, 219363, Note_on_c, 0, 55, 48
1, 219363, Control_c, 0, 64, 0
1, 219401, Control_c, 0, 64, 127
1, 219437, Note_on_c, 0, 67, 0
1, 219437, Note_on_c, 0, 63, 43
1, 219437, Note_on_c, 0, 55, 0
1, 219440, Note_on_c, 0, 58, 39
1, 219514, Note_on_c, 0, 63, 0
1, 219514, Note_on_c, 0, 67, 45
1, 219514, Note_on_c, 0, 58, 0
1, 219517, Note_on_c, 0, 55, 42
1, 219591, Note_on_c, 0, 67, 0
1, 219591, Note_on_c, 0, 63, 42
1, 219591, Note_on_c, 0, 55, 0
1, 219594, Note_on_c, 0, 58, 39
1, 219668, Note_on_c, 0, 63, 0
1, 219668, Note_on_c, 0, 75, 0
1, 219668, Note_on_c, 0, 75, 63
1, 219671, Note_on_c, 0, 58, 0
1, 219671, Note_on_c, 0, 51, 0
1, 219671, Note_on_c, 0, 51, 48
1, 219745, Note_on_c, 0, 63, 42
1, 219745, Note_on_c, 0, 58, 40
1, 219822, Note_on_c, 0, 63, 0
1, 219822, Note_on_c, 0, 67, 45
1, 219822, Note_on_c, 0, 58, 0
1, 219825, Note_on_c, 0, 55, 43
1, 219899, Note_on_c, 0, 67, 0
1, 219899, Note_on_c, 0, 63, 43
1, 219899, Note_on_c, 0, 55, 0
1, 219902, Note_on_c, 0, 58, 39
1, 219975, Note_on_c, 0, 63, 0
1, 219975, Note_on_c, 0, 75, 0
1, 219975, Note_on_c, 0, 58, 0
1, 219978, Note_on_c, 0, 51, 0
1, 219978, Note_on_c, 0, 49, 55
1, 219981, Control_c, 0, 64, 0
1, 220040, Control_c, 0, 64, 127
1, 220060, Note_on_c, 0, 63, 42
1, 220060, Note_on_c, 0, 58, 40
1, 220143, Note_on_c, 0, 63, 0
1, 220143, Note_on_c, 0, 67, 46
1, 220143, Note_on_c, 0, 58, 0
1, 220146, Note_on_c, 0, 55, 42
1, 220221, Note_on_c, 0, 67, 0
1, 220221, Note_on_c, 0, 63, 45
1, 220221, Note_on_c, 0, 55, 0
1, 220224, Note_on_c, 0, 58, 39
1, 220299, Note_on_c, 0, 63, 0
1, 220299, Note_on_c, 0, 75, 64
1, 220299, Note_on_c, 0, 58, 0
1, 220302, Note_on_c, 0, 55, 48
1, 220377, Note_on_c, 0, 63, 43
1, 220377, Note_on_c, 0, 55, 0
1, 220377, Note_on_c, 0, 58, 40
1, 220455, Note_on_c, 0, 63, 0
1, 220455, Note_on_c, 0, 67, 45
1, 220455, Note_on_c, 0, 58, 0
1, 220458, Note_on_c, 0, 55, 43
1, 220532, Note_on_c, 0, 67, 0
1, 220532, Note_on_c, 0, 63, 42
1, 220532, Note_on_c, 0, 55, 0
1, 220535, Note_on_c, 0, 58, 40
1, 220610, Note_on_c, 0, 63, 0
1, 220610, Note_on_c, 0, 67, 45
1, 220610, Note_on_c, 0, 58, 0
1, 220613, Note_on_c, 0, 55, 48
1, 220613, Control_c, 0, 64, 0
1, 220651, Control_c, 0, 64, 127
1, 220687, Note_on_c, 0, 67, 0
1, 220687, Note_on_c, 0, 63, 43
1, 220687, Note_on_c, 0, 55, 0
1, 220690, Note_on_c, 0, 58, 39
1, 220764, Note_on_c, 0, 63, 0
1, 220764, Note_on_c, 0, 67, 45
1, 220764, Note_on_c, 0, 58, 0
1, 220767, Note_on_c, 0, 55, 42
1, 220841, Note_on_c, 0, 67, 0
1, 220841, Note_on_c, 0, 63, 42
1, 220841, Note_on_c, 0, 55, 0
1, 220844, Note_on_c, 0, 58, 39
1, 220918, Note_on_c, 0, 63, 0
1, 220918, Note_on_c, 0, 75, 0
1, 220918, Note_on_c, 0, 75, 63
1, 220921, Note_on_c, 0, 58, 0
1, 220921, Note_on_c, 0, 49, 0
1, 220921, Note_on_c, 0, 49, 48
1, 220996, Note_on_c, 0, 63, 42
1, 220996, Note_on_c, 0, 58, 40
1, 221073, Note_on_c, 0, 63, 0
1, 221073, Note_on_c, 0, 67, 45
1, 221073, Note_on_c, 0, 58, 0
1, 221076, Note_on_c, 0, 55, 43
1, 221150, Note_on_c, 0, 67, 0
1, 221150, Note_on_c, 0, 63, 43
1, 221150, Note_on_c, 0, 55, 0
1, 221153, Note_on_c, 0, 58, 39
1, 221234, Note_on_c, 0, 63, 0
1, 221234, Note_on_c, 0, 75, 0
1, 221234, Note_on_c, 0, 75, 77
1, 221237, Note_on_c, 0, 58, 0
1, 221237, Note_on_c, 0, 49, 0
1, 221237, Note_on_c, 0, 48, 65
1, 221240, Control_c, 0, 64, 0
1, 221291, Note_on_c, 0, 75, 0
1, 221291, Note_on_c, 0, 48, 0
1, 221310, Note_on_c, 0, 63, 51
1, 221310, Note_on_c, 0, 56, 46
1, 221386, Note_on_c, 0, 63, 0
1, 221386, Note_on_c, 0, 68, 55
1, 221386, Note_on_c, 0, 56, 0
1, 221389, Note_on_c, 0, 51, 49
1, 221462, Note_on_c, 0, 68, 0
1, 221462, Note_on_c, 0, 63, 52
1, 221462, Note_on_c, 0, 51, 0
1, 221465, Note_on_c, 0, 56, 45
1, 221537, Note_on_c, 0, 63, 0
1, 221537, Note_on_c, 0, 76, 78
1, 221537, Note_on_c, 0, 56, 0
1, 221540, Note_on_c, 0, 46, 66
1, 221594, Note_on_c, 0, 76, 0
1, 221594, Note_on_c, 0, 46, 0
1, 221613, Note_on_c, 0, 64, 53
1, 221613, Note_on_c, 0, 55, 46
1, 221688, Note_on_c, 0, 64, 0
1, 221688, Note_on_c, 0, 72, 57
1, 221688, Note_on_c, 0, 55, 0
1, 221691, Note_on_c, 0, 48, 53
1, 221764, Note_on_c, 0, 72, 0
1, 221764, Note_on_c, 0, 64, 53
1, 221764, Note_on_c, 0, 48, 0
1, 221767, Note_on_c, 0, 55, 51
1, 221839, Note_on_c, 0, 64, 0
1, 221839, Note_on_c, 0, 77, 82
1, 221839, Note_on_c, 0, 55, 0
1, 221842, Note_on_c, 0, 44, 68
1, 221894, Note_on_c, 0, 77, 0
1, 221894, Note_on_c, 0, 44, 0
1, 221912, Note_on_c, 0, 65, 55
1, 221912, Note_on_c, 0, 56, 48
1, 221986, Note_on_c, 0, 65, 0
1, 221986, Note_on_c, 0, 72, 60
1, 221986, Note_on_c, 0, 56, 0
1, 221989, Note_on_c, 0, 48, 53
1, 222059, Note_on_c, 0, 72, 0
1, 222059, Note_on_c, 0, 65, 55
1, 222059, Note_on_c, 0, 48, 0
1, 222062, Note_on_c, 0, 56, 48
1, 222132, Note_on_c, 0, 65, 0
1, 222132, Note_on_c, 0, 79, 83
1, 222132, Note_on_c, 0, 56, 0
1, 222135, Note_on_c, 0, 43, 70
1, 222187, Note_on_c, 0, 79, 0
1, 222187, Note_on_c, 0, 43, 0
1, 222206, Note_on_c, 0, 67, 57
1, 222206, Note_on_c, 0, 55, 50
1, 222279, Note_on_c, 0, 67, 0
1, 222279, Note_on_c, 0, 72, 60
1, 222279, Note_on_c, 0, 55, 0
1, 222282, Note_on_c, 0, 48, 53
1, 222353, Note_on_c, 0, 72, 0
1, 222353, Note_on_c, 0, 67, 57
1, 222353, Note_on_c, 0, 48, 0
1, 222356, Note_on_c, 0, 55, 48
1, 222426, Note_on_c, 0, 67, 0
1, 222426, Note_on_c, 0, 80, 85
1, 222426, Note_on_c, 0, 55, 0
1, 222429, Note_on_c, 0, 41, 74
1, 222480, Note_on_c, 0, 80, 0
1, 222480, Note_on_c, 0, 41, 0
1, 222498, Note_on_c, 0, 68, 59
1, 222498, Note_on_c, 0, 53, 52
1, 222571, Note_on_c, 0, 68, 0
1, 222571, Note_on_c, 0, 72, 64
1, 222571, Note_on_c, 0, 53, 0
1, 222574, Note_on_c, 0, 48, 55
1, 222644, Note_on_c, 0, 72, 0
1, 222644, Note_on_c, 0, 68, 59
1, 222644, Note_on_c, 0, 48, 0
1, 222647, Note_on_c, 0, 53, 52
1, 222716, Note_on_c, 0, 68, 0
1, 222716, Note_on_c, 0, 81, 91
1, 222716, Note_on_c, 0, 53, 0
1, 222719, Note_on_c, 0, 39, 77
1, 222770, Note_on_c, 0, 81, 0
1, 222770, Note_on_c, 0, 39, 0
1, 222789, Note_on_c, 0, 69, 60
1, 222789, Note_on_c, 0, 51, 51
1, 222861, Note_on_c, 0, 69, 0
1, 222861, Note_on_c, 0, 72, 65
1, 222861, Note_on_c, 0, 51, 0
1, 222864, Note_on_c, 0, 41, 57
1, 222933, Note_on_c, 0, 72, 0
1, 222933, Note_on_c, 0, 69, 61
1, 222933, Note_on_c, 0, 41, 0
1, 222936, Note_on_c, 0, 51, 51
1, 223006, Note_on_c, 0, 69, 0
1, 223006, Note_on_c, 0, 82, 95
1, 223006, Note_on_c, 0, 51, 0
1, 223009, Note_on_c, 0, 38, 79
1, 223061, Note_on_c, 0, 82, 0
1, 223061, Note_on_c, 0, 38, 0
1, 223079, Note_on_c, 0, 70, 61
1, 223079, Note_on_c, 0, 50, 55
1, 223151, Note_on_c, 0, 70, 0
1, 223151, Note_on_c, 0, 77, 68
1, 223151, Note_on_c, 0, 50, 0
1, 223154, Note_on_c, 0, 41, 59
1, 223224, Note_on_c, 0, 77, 0
1, 223224, Note_on_c, 0, 70, 63
1, 223224, Note_on_c, 0, 41, 0
1, 223227, Note_on_c, 0, 50, 53
1, 223296, Note_on_c, 0, 70, 0
1, 223296, Note_on_c, 0, 84, 96
1, 223296, Note_on_c, 0, 50, 0
1, 223299, Note_on_c, 0, 36, 81
1, 223351, Note_on_c, 0, 84, 0
1, 223351, Note_on_c, 0, 36, 0
1, 223369, Note_on_c, 0, 72, 63
1, 223369, Note_on_c, 0, 48, 55
1, 223441, Note_on_c, 0, 72, 0
1, 223441, Note_on_c, 0, 77, 68
1, 223441, Note_on_c, 0, 48, 0
1, 223444, Note_on_c, 0, 41, 61
1, 223513, Note_on_c, 0, 77, 0
1, 223513, Note_on_c, 0, 72, 64
1, 223513, Note_on_c, 0, 41, 0
1, 223516, Note_on_c, 0, 48, 53
1, 223586, Note_on_c, 0, 72, 0
1, 223586, Note_on_c, 0, 85, 96
1, 223586, Note_on_c, 0, 48, 0
1, 223589, Note_on_c, 0, 34, 81
1, 223641, Note_on_c, 0, 85, 0
1, 223641, Note_on_c, 0, 34, 0
1, 223659, Note_on_c, 0, 73, 65
1, 223659, Note_on_c, 0, 46, 57
1, 223731, Note_on_c, 0, 73, 0
1, 223731, Note_on_c, 0, 77, 74
1, 223731, Note_on_c, 0, 46, 0
1, 223734, Note_on_c, 0, 41, 63
1, 223803, Note_on_c, 0, 77, 0
1, 223803, Note_on_c, 0, 73, 65
1, 223803, Note_on_c, 0, 41, 0
1, 223806, Note_on_c, 0, 46, 58
1, 223876, Note_on_c, 0, 73, 0
1, 223876, Note_on_c, 0, 86, 101
1, 223876, Note_on_c, 0, 46, 0
1, 223879, Note_on_c, 0, 32, 83
1, 223930, Note_on_c, 0, 86, 0
1, 223930, Note_on_c, 0, 32, 0
1, 223948, Note_on_c, 0, 74, 67
1, 223948, Note_on_c, 0, 44, 57
1, 224019, Note_on_c, 0, 74, 0
1, 224019, Note_on_c, 0, 77, 73
1, 224019, Note_on_c, 0, 44, 0
1, 224022, Note_on_c, 0, 41, 63
1, 224092, Note_on_c, 0, 77, 0
1, 224092, Note_on_c, 0, 74, 67
1, 224092, Note_on_c, 0, 41, 0
1, 224095, Note_on_c, 0, 44, 60
1, 224164, Note_on_c, 0, 74, 0
1, 224164, Note_on_c, 0, 87, 100
1, 224164, Note_on_c, 0, 44, 0
1, 224167, Note_on_c, 0, 31, 86
1, 224218, Note_on_c, 0, 87, 0
1, 224218, Note_on_c, 0, 31, 0
1, 224237, Note_on_c, 0, 75, 69
1, 224237, Note_on_c, 0, 43, 60
1, 224310, Note_on_c, 0, 75, 0
1, 224310, Note_on_c, 0, 82, 75
1, 224310, Note_on_c, 0, 43, 0
1, 224313, Note_on_c, 0, 39, 65
1, 224383, Note_on_c, 0, 82, 0
1, 224383, Note_on_c, 0, 75, 69
1, 224383, Note_on_c, 0, 39, 0
1, 224386, Note_on_c, 0, 43, 60
1, 224456, Note_on_c, 0, 75, 0
1, 224456, Note_on_c, 0, 88, 102
1, 224456, Note_on_c, 0, 43, 0
1, 224459, Note_on_c, 0, 31, 87
1, 224513, Note_on_c, 0, 88, 0
1, 224513, Note_on_c, 0, 31, 0
1, 224532, Note_on_c, 0, 76, 72
1, 224532, Note_on_c, 0, 43, 66
1, 224608, Note_on_c, 0, 76, 0
1, 224608, Note_on_c, 0, 82, 78
1, 224608, Note_on_c, 0, 43, 0
1, 224611, Note_on_c, 0, 31, 68
1, 224684, Note_on_c, 0, 82, 0
1, 224684, Note_on_c, 0, 76, 72
1, 224684, Note_on_c, 0, 31, 0
1, 224687, Note_on_c, 0, 43, 65
1, 224760, Note_on_c, 0, 76, 0
1, 224760, Note_on_c, 0, 43, 0
1, 224760, Note_on_c, 0, 32, 82
1, 224763, Note_on_c, 0, 44, 95
1, 224810, Control_c, 0, 64, 127
1, 224837, Note_on_c, 0, 80, 89
1, 224910, Note_on_c, 0, 80, 0
1, 224910, Note_on_c, 0, 84, 95
1, 224910, Note_on_c, 0, 44, 0
1, 224913, Note_on_c, 0, 32, 0
1, 224983, Note_on_c, 0, 84, 0
1, 224983, Note_on_c, 0, 80, 89
1, 225056, Note_on_c, 0, 80, 0
1, 225056, Note_on_c, 0, 89, 99
1, 225111, Note_on_c, 0, 89, 0
1, 225129, Note_on_c, 0, 80, 89
1, 225202, Note_on_c, 0, 80, 0
1, 225202, Note_on_c, 0, 84, 95
1, 225279, Note_on_c, 0, 84, 0
1, 225279, Note_on_c, 0, 80, 87
1, 225355, Note_on_c, 0, 80, 0
1, 225355, Note_on_c, 0, 46, 95
1, 225355, Note_on_c, 0, 34, 82
1, 225362, Control_c, 0, 64, 0
1, 225404, Control_c, 0, 64, 127
1, 225431, Note_on_c, 0, 77, 89
1, 225504, Note_on_c, 0, 77, 0
1, 225504, Note_on_c, 0, 80, 95
1, 225504, Note_on_c, 0, 34, 0
1, 225507, Note_on_c, 0, 46, 0
1, 225577, Note_on_c, 0, 80, 0
1, 225577, Note_on_c, 0, 77, 89
1, 225651, Note_on_c, 0, 77, 0
1, 225651, Note_on_c, 0, 86, 99
1, 225706, Note_on_c, 0, 86, 0
1, 225724, Note_on_c, 0, 77, 89
1, 225798, Note_on_c, 0, 77, 0
1, 225798, Note_on_c, 0, 80, 95
1, 225874, Note_on_c, 0, 80, 0
1, 225874, Note_on_c, 0, 77, 87
1, 225950, Note_on_c, 0, 77, 0
1, 225950, Note_on_c, 0, 79, 92
1, 225950, Note_on_c, 0, 39, 95
1, 225953, Note_on_c, 0, 51, 95
1, 225953, Control_c, 0, 64, 0
1, 226009, Note_on_c, 0, 79, 0
1, 226107, Note_on_c, 0, 87, 68
1, 226107, Note_on_c, 0, 51, 0
1, 226107, Note_on_c, 0, 39, 0
1, 226110, Note_on_c, 0, 63, 44
1, 226110, Note_on_c, 0, 67, 44
1, 226124, Control_c, 0, 64, 127
1, 226256, Note_on_c, 0, 67, 0
1, 226256, Note_on_c, 0, 63, 0
1, 226256, Note_on_c, 0, 63, 44
1, 226259, Note_on_c, 0, 67, 44
1, 226405, Note_on_c, 0, 87, 0
1, 226405, Note_on_c, 0, 86, 56
1, 226405, Note_on_c, 0, 67, 0
1, 226408, Note_on_c, 0, 63, 0
1, 226408, Note_on_c, 0, 63, 44
1, 226408, Note_on_c, 0, 67, 44
1, 226480, Note_on_c, 0, 86, 0
1, 226480, Note_on_c, 0, 87, 58
1, 226556, Note_on_c, 0, 87, 0
1, 226556, Note_on_c, 0, 89, 59
1, 226556, Note_on_c, 0, 67, 0
1, 226559, Note_on_c, 0, 63, 0
1, 226559, Note_on_c, 0, 60, 44
1, 226559, Control_c, 0, 64, 0
1, 226597, Control_c, 0, 64, 127
1, 226633, Note_on_c, 0, 89, 0
1, 226633, Note_on_c, 0, 87, 59
1, 226709, Note_on_c, 0, 87, 0
1, 226709, Note_on_c, 0, 86, 58
1, 226709, Note_on_c, 0, 63, 44
1, 226712, Note_on_c, 0, 67, 44
1, 226783, Note_on_c, 0, 86, 0
1, 226783, Note_on_c, 0, 84, 57
1, 226857, Note_on_c, 0, 84, 0
1, 226857, Note_on_c, 0, 83, 55
1, 226857, Note_on_c, 0, 67, 0
1, 226860, Note_on_c, 0, 63, 0
1, 226860, Note_on_c, 0, 63, 44
1, 226860, Note_on_c, 0, 67, 44
1, 226932, Note_on_c, 0, 83, 0
1, 226932, Note_on_c, 0, 84, 56
1, 227006, Note_on_c, 0, 84, 0
1, 227006, Note_on_c, 0, 86, 59
1, 227006, Note_on_c, 0, 67, 0
1, 227009, Note_on_c, 0, 63, 0
1, 227009, Note_on_c, 0, 63, 44
1, 227009, Note_on_c, 0, 67, 44
1, 227081, Note_on_c, 0, 86, 0
1, 227081, Note_on_c, 0, 84, 57
1, 227157, Note_on_c, 0, 84, 0
1, 227157, Note_on_c, 0, 82, 59
1, 227157, Note_on_c, 0, 67, 0
1, 227160, Note_on_c, 0, 63, 0
1, 227160, Note_on_c, 0, 60, 0
1, 227160, Note_on_c, 0, 56, 44
1, 227160, Control_c, 0, 64, 0
1, 227197, Control_c, 0, 64, 127
1, 227233, Note_on_c, 0, 82, 0
1, 227233, Note_on_c, 0, 80, 57
1, 227307, Note_on_c, 0, 80, 0
1, 227307, Note_on_c, 0, 79, 56
1, 227307, Note_on_c, 0, 65, 44
1, 227310, Note_on_c, 0, 63, 44
1, 227382, Note_on_c, 0, 79, 0
1, 227382, Note_on_c, 0, 77, 55
1, 227456, Note_on_c, 0, 77, 0
1, 227456, Note_on_c, 0, 76, 55
1, 227456, Note_on_c, 0, 63, 0
1, 227459, Note_on_c, 0, 65, 0
1, 227459, Note_on_c, 0, 63, 44
1, 227459, Note_on_c, 0, 65, 44
1, 227530, Note_on_c, 0, 76, 0
1, 227530, Note_on_c, 0, 77, 55
1, 227604, Note_on_c, 0, 77, 0
1, 227604, Note_on_c, 0, 79, 57
1, 227604, Note_on_c, 0, 65, 0
1, 227607, Note_on_c, 0, 63, 0
1, 227607, Note_on_c, 0, 63, 44
1, 227607, Note_on_c, 0, 65, 44
1, 227679, Note_on_c, 0, 79, 0
1, 227679, Note_on_c, 0, 77, 55
1, 227754, Note_on_c, 0, 77, 0
1, 227754, Note_on_c, 0, 75, 56
1, 227754, Note_on_c, 0, 65, 0
1, 227757, Note_on_c, 0, 63, 0
1, 227757, Note_on_c, 0, 56, 0
1, 227757, Note_on_c, 0, 58, 44
1, 227757, Control_c, 0, 64, 0
1, 227816, Control_c, 0, 64, 127
1, 227830, Note_on_c, 0, 75, 0
1, 227830, Note_on_c, 0, 74, 56
1, 227905, Note_on_c, 0, 74, 0
1, 227905, Note_on_c, 0, 72, 55
1, 227905, Note_on_c, 0, 62, 44
1, 227908, Note_on_c, 0, 65, 44
1, 227979, Note_on_c, 0, 72, 0
1, 227979, Note_on_c, 0, 70, 55
1, 228054, Note_on_c, 0, 70, 0
1, 228054, Note_on_c, 0, 69, 55
1, 228054, Note_on_c, 0, 65, 0
1, 228057, Note_on_c, 0, 62, 0
1, 228057, Note_on_c, 0, 62, 44
1, 228057, Note_on_c, 0, 65, 44
1, 228128, Note_on_c, 0, 69, 0
1, 228128, Note_on_c, 0, 70, 52
1, 228203, Note_on_c, 0, 70, 0
1, 228203, Note_on_c, 0, 72, 56
1, 228203, Note_on_c, 0, 65, 0
1, 228206, Note_on_c, 0, 62, 0
1, 228206, Note_on_c, 0, 62, 44
1, 228206, Note_on_c, 0, 65, 44
1, 228277, Note_on_c, 0, 72, 0
1, 228277, Note_on_c, 0, 68, 52
1, 228351, Note_on_c, 0, 68, 0
1, 228351, Note_on_c, 0, 79, 77
1, 228351, Note_on_c, 0, 65, 0
1, 228354, Note_on_c, 0, 62, 0
1, 228354, Note_on_c, 0, 58, 0
1, 228354, Note_on_c, 0, 51, 69
1, 228354, Control_c, 0, 64, 0
1, 228410, Note_on_c, 0, 79, 0
1, 228508, Note_on_c, 0, 75, 79
1, 228508, Note_on_c, 0, 87, 79
1, 228508, Note_on_c, 0, 55, 54
1, 228511, Note_on_c, 0, 63, 54
1, 228526, Control_c, 0, 64, 127
1, 228657, Note_on_c, 0, 63, 0
1, 228657, Note_on_c, 0, 55, 0
1, 228657, Note_on_c, 0, 55, 54
1, 228660, Note_on_c, 0, 63, 54
1, 228806, Note_on_c, 0, 87, 0
1, 228806, Note_on_c, 0, 75, 0
1, 228806, Note_on_c, 0, 86, 72
1, 228809, Note_on_c, 0, 63, 0
1, 228809, Note_on_c, 0, 55, 0
1, 228809, Note_on_c, 0, 55, 54
1, 228812, Note_on_c, 0, 63, 54
1, 228881, Note_on_c, 0, 86, 0
1, 228881, Note_on_c, 0, 87, 75
1, 228958, Note_on_c, 0, 87, 0
1, 228958, Note_on_c, 0, 89, 77
1, 228958, Note_on_c, 0, 63, 0
1, 228961, Note_on_c, 0, 55, 0
1, 228961, Note_on_c, 0, 51, 0
1, 228961, Note_on_c, 0, 48, 55
1, 228964, Control_c, 0, 64, 0
1, 228998, Control_c, 0, 64, 127
1, 229034, Note_on_c, 0, 89, 0
1, 229034, Note_on_c, 0, 87, 77
1, 229110, Note_on_c, 0, 87, 0
1, 229110, Note_on_c, 0, 86, 76
1, 229110, Note_on_c, 0, 55, 56
1, 229113, Note_on_c, 0, 51, 56
1, 229113, Note_on_c, 0, 60, 56
1, 229184, Note_on_c, 0, 86, 0
1, 229184, Note_on_c, 0, 84, 75
1, 229259, Note_on_c, 0, 84, 0
1, 229259, Note_on_c, 0, 83, 73
1, 229259, Note_on_c, 0, 60, 0
1, 229262, Note_on_c, 0, 51, 0
1, 229262, Note_on_c, 0, 55, 0
1, 229262, Note_on_c, 0, 55, 56
1, 229265, Note_on_c, 0, 51, 56
1, 229265, Note_on_c, 0, 60, 56
1, 229333, Note_on_c, 0, 83, 0
1, 229333, Note_on_c, 0, 84, 75
1, 229407, Note_on_c, 0, 84, 0
1, 229407, Note_on_c, 0, 86, 79
1, 229407, Note_on_c, 0, 60, 0
1, 229410, Note_on_c, 0, 51, 0
1, 229410, Note_on_c, 0, 55, 0
1, 229410, Note_on_c, 0, 55, 57
1, 229413, Note_on_c, 0, 51, 57
1, 229413, Note_on_c, 0, 60, 57
1, 229482, Note_on_c, 0, 86, 0
1, 229482, Note_on_c, 0, 84, 77
1, 229558, Note_on_c, 0, 84, 0
1, 229558, Note_on_c, 0, 82, 80
1, 229558, Note_on_c, 0, 60, 0
1, 229561, Note_on_c, 0, 48, 0
1, 229561, Note_on_c, 0, 55, 0
1, 229561, Note_on_c, 0, 51, 0
1, 229564, Note_on_c, 0, 44, 57
1, 229564, Control_c, 0, 64, 0
1, 229598, Control_c, 0, 64, 127
1, 229634, Note_on_c, 0, 82, 0
1, 229634, Note_on_c, 0, 80, 78
1, 229709, Note_on_c, 0, 80, 0
1, 229709, Note_on_c, 0, 79, 77
1, 229709, Note_on_c, 0, 53, 58
1, 229712, Note_on_c, 0, 56, 58
1, 229712, Note_on_c, 0, 51, 58
1, 229783, Note_on_c, 0, 79, 0
1, 229783, Note_on_c, 0, 77, 76
1, 229857, Note_on_c, 0, 77, 0
1, 229857, Note_on_c, 0, 76, 76
1, 229857, Note_on_c, 0, 51, 0
1, 229860, Note_on_c, 0, 56, 0
1, 229860, Note_on_c, 0, 53, 0
1, 229860, Note_on_c, 0, 53, 58
1, 229863, Note_on_c, 0, 51, 58
1, 229863, Note_on_c, 0, 56, 58
1, 229931, Note_on_c, 0, 76, 0
1, 229931, Note_on_c, 0, 77, 75
1, 230005, Note_on_c, 0, 77, 0
1, 230005, Note_on_c, 0, 79, 79
1, 230005, Note_on_c, 0, 56, 0
1, 230008, Note_on_c, 0, 51, 0
1, 230008, Note_on_c, 0, 53, 0
1, 230008, Note_on_c, 0, 53, 59
1, 230011, Note_on_c, 0, 51, 59
1, 230011, Note_on_c, 0, 56, 59
1, 230080, Note_on_c, 0, 79, 0
1, 230080, Note_on_c, 0, 77, 77
1, 230155, Note_on_c, 0, 77, 0
1, 230155, Note_on_c, 0, 75, 79
1, 230155, Note_on_c, 0, 56, 0
1, 230158, Note_on_c, 0, 44, 0
1, 230158, Note_on_c, 0, 53, 0
1, 230158, Note_on_c, 0, 51, 0
1, 230161, Note_on_c, 0, 46, 59
1, 230161, Control_c, 0, 64, 0
1, 230217, Control_c, 0, 64, 127
1, 230231, Note_on_c, 0, 75, 0
1, 230231, Note_on_c, 0, 74, 79
1, 230306, Note_on_c, 0, 74, 0
1, 230306, Note_on_c, 0, 72, 79
1, 230306, Note_on_c, 0, 53, 60
1, 230309, Note_on_c, 0, 50, 60
1, 230309, Note_on_c, 0, 58, 60
1, 230381, Note_on_c, 0, 72, 0
1, 230381, Note_on_c, 0, 70, 79
1, 230455, Note_on_c, 0, 70, 0
1, 230455, Note_on_c, 0, 69, 78
1, 230455, Note_on_c, 0, 58, 0
1, 230458, Note_on_c, 0, 50, 0
1, 230458, Note_on_c, 0, 53, 0
1, 230458, Note_on_c, 0, 53, 60
1, 230461, Note_on_c, 0, 50, 60
1, 230461, Note_on_c, 0, 58, 60
1, 230529, Note_on_c, 0, 69, 0
1, 230529, Note_on_c, 0, 70, 75
1, 230604, Note_on_c, 0, 70, 0
1, 230604, Note_on_c, 0, 72, 81
1, 230604, Note_on_c, 0, 58, 0
1, 230607, Note_on_c, 0, 50, 0
1, 230607, Note_on_c, 0, 53, 0
1, 230607, Note_on_c, 0, 53, 61
1, 230610, Note_on_c, 0, 50, 61
1, 230610, Note_on_c, 0, 58, 61
1, 230679, Note_on_c, 0, 72, 0
1, 230679, Note_on_c, 0, 70, 75
1, 230759, Note_on_c, 0, 70, 0
1, 230759, Note_on_c, 0, 75, 94
1, 230759, Note_on_c, 0, 58, 0
1, 230762, Note_on_c, 0, 46, 0
1, 230762, Note_on_c, 0, 53, 0
1, 230762, Note_on_c, 0, 50, 0
1, 230765, Note_on_c, 0, 39, 78
1, 230765, Control_c, 0, 64, 0
1, 230842, Note_on_c, 0, 75, 0
1, 230842, Note_on_c, 0, 51, 70
1, 230925, Note_on_c, 0, 63, 93
1, 230925, Note_on_c, 0, 51, 0
1, 230925, Note_on_c, 0, 39, 0
1, 230928, Note_on_c, 0, 39, 78
1, 230999, Note_on_c, 0, 51, 69
1, 231073, Note_on_c, 0, 51, 0
1, 231073, Note_on_c, 0, 39, 0
1, 231073, Note_on_c, 0, 39, 78
1, 231149, Note_on_c, 0, 51, 70
1, 231225, Note_on_c, 0, 63, 0
1, 231225, Note_on_c, 0, 61, 91
1, 231225, Note_on_c, 0, 67, 91
1, 231228, Note_on_c, 0, 51, 0
1, 231228, Note_on_c, 0, 39, 0
1, 231228, Note_on_c, 0, 39, 77
1, 231299, Note_on_c, 0, 67, 0
1, 231299, Note_on_c, 0, 61, 0
1, 231299, Note_on_c, 0, 51, 70
1, 231374, Note_on_c, 0, 60, 92
1, 231374, Note_on_c, 0, 68, 92
1, 231374, Note_on_c, 0, 51, 0
1, 231377, Note_on_c, 0, 39, 0
1, 231377, Note_on_c, 0, 39, 77
1, 231448, Note_on_c, 0, 68, 0
1, 231448, Note_on_c, 0, 60, 0
1, 231448, Note_on_c, 0, 51, 69
1, 231522, Note_on_c, 0, 67, 93
1, 231522, Note_on_c, 0, 70, 93
1, 231522, Note_on_c, 0, 51, 0
1, 231525, Note_on_c, 0, 39, 0
1, 231525, Note_on_c, 0, 39, 77
1, 231597, Note_on_c, 0, 70, 0
1, 231597, Note_on_c, 0, 67, 0
1, 231597, Note_on_c, 0, 51, 70
1, 231671, Note_on_c, 0, 68, 94
1, 231671, Note_on_c, 0, 72, 94
1, 231671, Note_on_c, 0, 51, 0
1, 231674, Note_on_c, 0, 39, 0
1, 231674, Note_on_c, 0, 39, 77
1, 231745, Note_on_c, 0, 72, 0
1, 231745, Note_on_c, 0, 68, 0
1, 231745, Note_on_c, 0, 51, 70
1, 231820, Note_on_c, 0, 68, 96
1, 231820, Note_on_c, 0, 74, 96
1, 231820, Note_on_c, 0, 51, 0
1, 231823, Note_on_c, 0, 39, 0
1, 231823, Note_on_c, 0, 39, 77
1, 231894, Note_on_c, 0, 74, 0
1, 231894, Note_on_c, 0, 68, 0
1, 231894, Note_on_c, 0, 51, 72
1, 231969, Note_on_c, 0, 67, 94
1, 231969, Note_on_c, 0, 75, 94
1, 231969, Note_on_c, 0, 51, 0
1, 231972, Note_on_c, 0, 39, 0
1, 231972, Note_on_c, 0, 39, 78
1, 232047, Note_on_c, 0, 75, 0
1, 232047, Note_on_c, 0, 67, 0
1, 232047, Note_on_c, 0, 51, 70
1, 232125, Note_on_c, 0, 75, 93
1, 232125, Note_on_c, 0, 51, 0
1, 232125, Note_on_c, 0, 39, 0
1, 232128, Note_on_c, 0, 39, 78
1, 232200, Note_on_c, 0, 51, 69
1, 232274, Note_on_c, 0, 51, 0
1, 232274, Note_on_c, 0, 39, 0
1, 232274, Note_on_c, 0, 39, 78
1, 232350, Note_on_c, 0, 51, 70
1, 232425, Note_on_c, 0, 75, 0
1, 232425, Note_on_c, 0, 73, 91
1, 232425, Note_on_c, 0, 79, 91
1, 232428, Note_on_c, 0, 51, 0
1, 232428, Note_on_c, 0, 39, 0
1, 232428, Note_on_c, 0, 39, 77
1, 232500, Note_on_c, 0, 79, 0
1, 232500, Note_on_c, 0, 73, 0
1, 232500, Note_on_c, 0, 51, 70
1, 232574, Note_on_c, 0, 72, 92
1, 232574, Note_on_c, 0, 80, 92
1, 232574, Note_on_c, 0, 51, 0
1, 232577, Note_on_c, 0, 39, 0
1, 232577, Note_on_c, 0, 39, 77
1, 232648, Note_on_c, 0, 80, 0
1, 232648, Note_on_c, 0, 72, 0
1, 232648, Note_on_c, 0, 51, 69
1, 232723, Note_on_c, 0, 79, 93
1, 232723, Note_on_c, 0, 82, 93
1, 232723, Note_on_c, 0, 51, 0
1, 232726, Note_on_c, 0, 39, 0
1, 232726, Note_on_c, 0, 39, 77
1, 232797, Note_on_c, 0, 82, 0
1, 232797, Note_on_c, 0, 79, 0
1, 232797, Note_on_c, 0, 51, 70
1, 232871, Note_on_c, 0, 80, 94
1, 232871, Note_on_c, 0, 84, 94
1, 232871, Note_on_c, 0, 51, 0
1, 232874, Note_on_c, 0, 39, 0
1, 232874, Note_on_c, 0, 39, 77
1, 232946, Note_on_c, 0, 84, 0
1, 232946, Note_on_c, 0, 80, 0
1, 232946, Note_on_c, 0, 51, 70
1, 233020, Note_on_c, 0, 80, 96
1, 233020, Note_on_c, 0, 86, 96
1, 233020, Note_on_c, 0, 51, 0
1, 233023, Note_on_c, 0, 39, 0
1, 233023, Note_on_c, 0, 39, 77
1, 233099, Note_on_c, 0, 86, 0
1, 233099, Note_on_c, 0, 80, 0
1, 233099, Note_on_c, 0, 51, 72
1, 233177, Note_on_c, 0, 87, 105
1, 233177, Note_on_c, 0, 79, 105
1, 233177, Note_on_c, 0, 51, 0
1, 233180, Note_on_c, 0, 39, 0
1, 233180, Note_on_c, 0, 39, 77
1, 233252, Note_on_c, 0, 51, 69
1, 233327, Note_on_c, 0, 51, 0
1, 233327, Note_on_c, 0, 39, 0
1, 233327, Note_on_c, 0, 39, 77
1, 233402, Note_on_c, 0, 51, 70
1, 233477, Note_on_c, 0, 51, 0
1, 233477, Note_on_c, 0, 39, 0
1, 233477, Note_on_c, 0, 39, 77
1, 233552, Note_on_c, 0, 51, 70
1, 233627, Note_on_c, 0, 51, 0
1, 233627, Note_on_c, 0, 39, 0
1, 233627, Note_on_c, 0, 39, 77
1, 233701, Note_on_c, 0, 51, 72
1, 233776, Note_on_c, 0, 79, 0
1, 233776, Note_on_c, 0, 87, 0
1, 233776, Note_on_c, 0, 67, 99
1, 233779, Note_on_c, 0, 75, 99
1, 233779, Note_on_c, 0, 51, 0
1, 233779, Note_on_c, 0, 39, 0
1, 233782, Note_on_c, 0, 38, 77
1, 233851, Note_on_c, 0, 50, 69
1, 233925, Note_on_c, 0, 50, 0
1, 233925, Note_on_c, 0, 38, 0
1, 233925, Note_on_c, 0, 38, 77
1, 234000, Note_on_c, 0, 50, 70
1, 234074, Note_on_c, 0, 50, 0
1, 234074, Note_on_c, 0, 38, 0
1, 234074, Note_on_c, 0, 38, 77
1, 234148, Note_on_c, 0, 50, 70
1, 234223, Note_on_c, 0, 50, 0
1, 234223, Note_on_c, 0, 38, 0
1, 234223, Note_on_c, 0, 38, 77
1, 234303, Note_on_c, 0, 50, 72
1, 234384, Note_on_c, 0, 75, 0
1, 234384, Note_on_c, 0, 67, 0
1, 234384, Note_on_c, 0, 87, 110
1, 234387, Note_on_c, 0, 79, 110
1, 234387, Note_on_c, 0, 50, 0
1, 234387, Note_on_c, 0, 38, 0
1, 234390, Note_on_c, 0, 36, 77
1, 234459, Note_on_c, 0, 48, 69
1, 234533, Note_on_c, 0, 48, 0
1, 234533, Note_on_c, 0, 36, 0
1, 234533, Note_on_c, 0, 36, 77
1, 234608, Note_on_c, 0, 48, 70
1, 234683, Note_on_c, 0, 48, 0
1, 234683, Note_on_c, 0, 36, 0
1, 234683, Note_on_c, 0, 36, 77
1, 234758, Note_on_c, 0, 48, 70
1, 234833, Note_on_c, 0, 48, 0
1, 234833, Note_on_c, 0, 36, 0
1, 234833, Note_on_c, 0, 36, 77
1, 234908, Note_on_c, 0, 48, 72
1, 234983, Note_on_c, 0, 79, 0
1, 234983, Note_on_c, 0, 87, 0
1, 234983, Note_on_c, 0, 67, 103
1, 234986, Note_on_c, 0, 75, 103
1, 234986, Note_on_c, 0, 48, 0
1, 234986, Note_on_c, 0, 36, 0
1, 234989, Note_on_c, 0, 34, 77
1, 235057, Note_on_c, 0, 46, 69
1, 235131, Note_on_c, 0, 46, 0
1, 235131, Note_on_c, 0, 34, 0
1, 235131, Note_on_c, 0, 34, 77
1, 235205, Note_on_c, 0, 46, 70
1, 235279, Note_on_c, 0, 46, 0
1, 235279, Note_on_c, 0, 34, 0
1, 235279, Note_on_c, 0, 34, 77
1, 235353, Note_on_c, 0, 46, 70
1, 235428, Note_on_c, 0, 46, 0
1, 235428, Note_on_c, 0, 34, 0
1, 235428, Note_on_c, 0, 34, 77
1, 235507, Note_on_c, 0, 46, 72
1, 235587, Note_on_c, 0, 75, 0
1, 235587, Note_on_c, 0, 67, 0
1, 235587, Note_on_c, 0, 87, 113
1, 235590, Note_on_c, 0, 84, 113
1, 235590, Note_on_c, 0, 46, 0
1, 235590, Note_on_c, 0, 34, 0
1, 235593, Note_on_c, 0, 32, 77
1, 235662, Note_on_c, 0, 44, 69
1, 235737, Note_on_c, 0, 44, 0
1, 235737, Note_on_c, 0, 32, 0
1, 235737, Note_on_c, 0, 32, 77
1, 235812, Note_on_c, 0, 44, 70
1, 235886, Note_on_c, 0, 44, 0
1, 235886, Note_on_c, 0, 32, 0
1, 235886, Note_on_c, 0, 32, 77
1, 235961, Note_on_c, 0, 44, 70
1, 236036, Note_on_c, 0, 44, 0
1, 236036, Note_on_c, 0, 32, 0
1, 236036, Note_on_c, 0, 32, 77
1, 236111, Note_on_c, 0, 44, 72
1, 236186, Note_on_c, 0, 84, 0
1, 236186, Note_on_c, 0, 87, 0
1, 236186, Note_on_c, 0, 72, 107
1, 236189, Note_on_c, 0, 75, 107
1, 236189, Note_on_c, 0, 44, 0
1, 236189, Note_on_c, 0, 32, 0
1, 236192, Note_on_c, 0, 31, 77
1, 236260, Note_on_c, 0, 43, 69
1, 236334, Note_on_c, 0, 43, 0
1, 236334, Note_on_c, 0, 31, 0
1, 236334, Note_on_c, 0, 31, 77
1, 236408, Note_on_c, 0, 43, 70
1, 236482, Note_on_c, 0, 43, 0
1, 236482, Note_on_c, 0, 31, 0
1, 236482, Note_on_c, 0, 31, 77
1, 236557, Note_on_c, 0, 43, 70
1, 236631, Note_on_c, 0, 43, 0
1, 236631, Note_on_c, 0, 31, 0
1, 236631, Note_on_c, 0, 31, 77
1, 236710, Note_on_c, 0, 43, 72
1, 236789, Note_on_c, 0, 75, 0
1, 236789, Note_on_c, 0, 72, 0
1, 236789, Note_on_c, 0, 84, 104
1, 236792, Note_on_c, 0, 81, 104
1, 236792, Note_on_c, 0, 86, 104
1, 236792, Note_on_c, 0, 43, 0
1, 236795, Note_on_c, 0, 31, 0
1, 236795, Note_on_c, 0, 30, 73
1, 236795, Note_on_c, 0, 42, 85
1, 237511, Note_on_c, 0, 86, 0
1, 237511, Note_on_c, 0, 81, 0
1, 237511, Note_on_c, 0, 84, 0
1, 237514, Note_on_c, 0, 57, 97
1, 237514, Note_on_c, 0, 60, 113
1, 237514, Note_on_c, 0, 62, 113
1, 237517, Note_on_c, 0, 42, 0
1, 237517, Note_on_c, 0, 30, 0
1, 237517, Note_on_c, 0, 42, 82
1, 237520, Note_on_c, 0, 54, 95
1, 239008, Note_on_c, 0, 62, 0
1, 239008, Note_on_c, 0, 60, 0
1, 239008, Note_on_c, 0, 57, 0
1, 239011, Note_on_c, 0, 55, 78
1, 239011, Note_on_c, 0, 58, 78
1, 239011, Note_on_c, 0, 62, 78
1, 239014, Note_on_c, 0, 67, 90
1, 239014, Control_c, 0, 91, 127
1, 239014, Note_on_c, 0, 54, 0
1, 239017, Note_on_c, 0, 42, 0
1, 239017, Note_on_c, 0, 31, 69
1, 239017, Note_on_c, 0, 34, 69
1, 239020, Note_on_c, 0, 38, 69
1, 239020, Note_on_c, 0, 43, 80
1, 239020, Control_c, 0, 64, 0
1, 242097, Note_on_c, 0, 67, 0
1, 242097, Note_on_c, 0, 55, 0
1, 242097, Note_on_c, 0, 58, 0
1, 242100, Note_on_c, 0, 62, 0
1, 242100, Note_on_c, 0, 62, 54
1, 242100, Note_on_c, 0, 67, 61
1, 242103, Note_on_c, 0, 43, 0
1, 242103, Note_on_c, 0, 31, 0
1, 242103, Note_on_c, 0, 34, 0
1, 242106, Note_on_c, 0, 38, 0
1, 242106, Note_on_c, 0, 58, 49
1, 242378, Note_on_c, 0, 67, 0
1, 242378, Note_on_c, 0, 62, 0
1, 242378, Note_on_c, 0, 62, 56
1, 242381, Note_on_c, 0, 66, 56
1, 242381, Note_on_c, 0, 69, 65
1, 242381, Note_on_c, 0, 58, 0
1, 242384, Note_on_c, 0, 57, 55
1, 243220, Note_on_c, 0, 69, 0
1, 243220, Note_on_c, 0, 66, 0
1, 243220, Note_on_c, 0, 62, 0
1, 243223, Note_on_c, 0, 62, 52
1, 243223, Note_on_c, 0, 67, 60
1, 243223, Note_on_c, 0, 70, 60
1, 243226, Note_on_c, 0, 57, 0
1, 243226, Note_on_c, 0, 55, 49
1, 243551, Note_on_c, 0, 70, 0
1, 243551, Note_on_c, 0, 67, 0
1, 243551, Note_on_c, 0, 62, 0
1, 243554, Note_on_c, 0, 64, 56
1, 243554, Note_on_c, 0, 67, 65
1, 243554, Note_on_c, 0, 70, 65
1, 243557, Note_on_c, 0, 55, 0
1, 243557, Note_on_c, 0, 61, 52
1, 246012, Note_on_c, 0, 70, 0
1, 246012, Note_on_c, 0, 67, 0
1, 246012, Note_on_c, 0, 64, 0
1, 246015, Note_on_c, 0, 66, 41
1, 246015, Note_on_c, 0, 69, 49
1, 246015, Note_on_c, 0, 61, 0
1, 246018, Note_on_c, 0, 62, 37
1, 247136, Note_on_c, 0, 69, 0
1, 247136, Note_on_c, 0, 66, 0
1, 247136, Note_on_c, 0, 62, 0
1, 247978, Note_on_c, 0, 51, 83
1, 248259, Note_on_c, 0, 66, 84
1, 248259, Note_on_c, 0, 69, 84
1, 248259, Note_on_c, 0, 72, 95
1, 248262, Control_c, 0, 91, 127
1, 248262, Note_on_c, 0, 51, 0
1, 248262, Note_on_c, 0, 63, 86
1, 251348, Note_on_c, 0, 72, 0
1, 251348, Note_on_c, 0, 69, 0
1, 251348, Note_on_c, 0, 66, 0
1, 251351, Note_on_c, 0, 69, 54
1, 251351, Note_on_c, 0, 66, 54
1, 251351, Note_on_c, 0, 72, 62
1, 251354, Note_on_c, 0, 63, 0
1, 251354, Note_on_c, 0, 63, 49
1, 251628, Note_on_c, 0, 72, 0
1, 251628, Note_on_c, 0, 66, 0
1, 251628, Note_on_c, 0, 69, 0
1, 251631, Note_on_c, 0, 66, 56
1, 251631, Note_on_c, 0, 69, 56
1, 251631, Note_on_c, 0, 74, 65
1, 251634, Note_on_c, 0, 63, 0
1, 251634, Note_on_c, 0, 62, 55
1, 252471, Note_on_c, 0, 74, 0
1, 252471, Note_on_c, 0, 69, 0
1, 252471, Note_on_c, 0, 66, 0
1, 252474, Note_on_c, 0, 69, 61
1, 252474, Note_on_c, 0, 75, 61
1, 252474, Note_on_c, 0, 66, 53
1, 252477, Note_on_c, 0, 62, 0
1, 252477, Note_on_c, 0, 60, 49
1, 252796, Note_on_c, 0, 66, 0
1, 252796, Note_on_c, 0, 75, 0
1, 252796, Note_on_c, 0, 69, 0
1, 252799, Note_on_c, 0, 75, 65
1, 252799, Note_on_c, 0, 66, 56
1, 252799, Note_on_c, 0, 69, 65
1, 252802, Note_on_c, 0, 60, 0
1, 252802, Note_on_c, 0, 58, 48
1, 255258, Note_on_c, 0, 69, 0
1, 255258, Note_on_c, 0, 66, 0
1, 255258, Note_on_c, 0, 75, 0
1, 255261, Note_on_c, 0, 67, 42
1, 255261, Note_on_c, 0, 74, 49
1, 255261, Note_on_c, 0, 70, 42
1, 256381, Note_on_c, 0, 70, 0
1, 256381, Note_on_c, 0, 74, 0
1, 256381, Note_on_c, 0, 67, 0
1, 256384, Note_on_c, 0, 58, 0
1, 257224, Note_on_c, 0, 51, 79
1, 257505, Note_on_c, 0, 66, 81
1, 257505, Note_on_c, 0, 69, 81
1, 257505, Note_on_c, 0, 72, 91
1, 257508, Control_c, 0, 91, 127
1, 257508, Note_on_c, 0, 51, 0
1, 257508, Note_on_c, 0, 63, 83
1, 260593, Note_on_c, 0, 72, 0
1, 260593, Note_on_c, 0, 69, 0
1, 260593, Note_on_c, 0, 66, 0
1, 260596, Note_on_c, 0, 69, 56
1, 260596, Note_on_c, 0, 66, 56
1, 260596, Note_on_c, 0, 72, 65
1, 260599, Note_on_c, 0, 63, 0
1, 260599, Note_on_c, 0, 63, 52
1, 260874, Note_on_c, 0, 72, 0
1, 260874, Note_on_c, 0, 66, 0
1, 260874, Note_on_c, 0, 69, 0
1, 260877, Note_on_c, 0, 66, 61
1, 260877, Note_on_c, 0, 69, 61
1, 260877, Note_on_c, 0, 74, 70
1, 260880, Note_on_c, 0, 63, 0
1, 260880, Note_on_c, 0, 62, 59
1, 261738, Note_on_c, 0, 74, 0
1, 261738, Note_on_c, 0, 69, 0
1, 261738, Note_on_c, 0, 66, 0
1, 261741, Note_on_c, 0, 69, 74
1, 261741, Note_on_c, 0, 75, 74
1, 261741, Note_on_c, 0, 66, 64
1, 261744, Note_on_c, 0, 62, 0
1, 261744, Note_on_c, 0, 60, 59
1, 262050, Note_on_c, 0, 66, 0
1, 262050, Note_on_c, 0, 75, 0
1, 262050, Note_on_c, 0, 69, 0
1, 262053, Note_on_c, 0, 75, 69
1, 262053, Note_on_c, 0, 66, 60
1, 262053, Note_on_c, 0, 69, 60
1, 262056, Note_on_c, 0, 60, 0
1, 262056, Note_on_c, 0, 60, 60
1, 263248, Note_on_c, 0, 60, 0
1, 263248, Note_on_c, 0, 59, 53
1, 263333, Control_c, 0, 64, 127
1, 264446, Note_on_c, 0, 69, 0
1, 264446, Note_on_c, 0, 66, 0
1, 264446, Note_on_c, 0, 75, 0
1, 264449, Note_on_c, 0, 64, 54
1, 264449, Note_on_c, 0, 67, 54
1, 264449, Note_on_c, 0, 76, 62
1, 265644, Note_on_c, 0, 59, 0
1, 265644, Note_on_c, 0, 59, 43
1, 265652, Control_c, 0, 64, 0
1, 265844, Control_c, 0, 64, 127
1, 266843, Note_on_c, 0, 76, 0
1, 266843, Note_on_c, 0, 67, 0
1, 266843, Note_on_c, 0, 64, 0
1, 266846, Note_on_c, 0, 62, 49
1, 266846, Note_on_c, 0, 66, 49
1, 266846, Note_on_c, 0, 69, 57
1, 268041, Note_on_c, 0, 59, 0
1, 268041, Note_on_c, 0, 47, 41
1, 268061, Control_c, 0, 64, 0
1, 268782, Control_c, 0, 64, 127
1, 269239, Note_on_c, 0, 69, 0
1, 269239, Note_on_c, 0, 66, 0
1, 269239, Note_on_c, 0, 62, 0
1, 269242, Note_on_c, 0, 59, 45
1, 269242, Note_on_c, 0, 64, 45
1, 269242, Note_on_c, 0, 67, 53
1, 270437, Note_on_c, 0, 47, 0
1, 270437, Note_on_c, 0, 47, 38
1, 270462, Control_c, 0, 64, 0
1, 270894, Control_c, 0, 64, 127
1, 271641, Note_on_c, 0, 67, 0
1, 271641, Note_on_c, 0, 64, 0
1, 271641, Note_on_c, 0, 59, 0
1, 271644, Note_on_c, 0, 57, 43
1, 271644, Note_on_c, 0, 60, 43
1, 271644, Note_on_c, 0, 62, 49
1, 271647, Note_on_c, 0, 66, 49
1, 272931, Note_on_c, 0, 47, 0
1, 272931, Note_on_c, 0, 35, 35
1, 272936, Control_c, 0, 64, 0
1, 273374, Control_c, 0, 64, 127
1, 274286, Note_on_c, 0, 66, 0
1, 274286, Note_on_c, 0, 57, 0
1, 274286, Note_on_c, 0, 60, 0
1, 274289, Note_on_c, 0, 62, 0
1, 274289, Note_on_c, 0, 54, 38
1, 274289, Note_on_c, 0, 57, 38
1, 274292, Note_on_c, 0, 62, 44
1, 275690, Note_on_c, 0, 35, 0
1, 275690, Note_on_c, 0, 35, 32
1, 276545, Control_c, 0, 64, 0
1, 278257, Note_on_c, 0, 62, 0
1, 278257, Note_on_c, 0, 57, 0
1, 278257, Note_on_c, 0, 54, 0
1, 278260, Note_on_c, 0, 64, 72
1, 278260, Note_on_c, 0, 35, 0
1, 278260, Note_on_c, 0, 40, 65
1, 278315, Note_on_c, 0, 64, 0
1, 278334, Note_on_c, 0, 52, 60
1, 278412, Note_on_c, 0, 69, 65
1, 278412, Note_on_c, 0, 52, 0
1, 278412, Note_on_c, 0, 40, 0
1, 278415, Note_on_c, 0, 40, 63
1, 278467, Note_on_c, 0, 69, 0
1, 278485, Note_on_c, 0, 52, 57
1, 278558, Note_on_c, 0, 67, 68
1, 278558, Note_on_c, 0, 52, 0
1, 278558, Note_on_c, 0, 40, 0
1, 278561, Note_on_c, 0, 40, 63
1, 278613, Note_on_c, 0, 67, 0
1, 278631, Note_on_c, 0, 52, 57
1, 278704, Note_on_c, 0, 69, 57
1, 278704, Note_on_c, 0, 75, 66
1, 278704, Note_on_c, 0, 52, 0
1, 278707, Note_on_c, 0, 40, 0
1, 278707, Note_on_c, 0, 40, 62
1, 278759, Note_on_c, 0, 75, 0
1, 278759, Note_on_c, 0, 69, 0
1, 278777, Note_on_c, 0, 52, 58
1, 278850, Note_on_c, 0, 67, 61
1, 278850, Note_on_c, 0, 76, 72
1, 278850, Note_on_c, 0, 52, 0
1, 278853, Note_on_c, 0, 40, 0
1, 278853, Note_on_c, 0, 40, 60
1, 278905, Note_on_c, 0, 76, 0
1, 278905, Note_on_c, 0, 67, 0
1, 278923, Note_on_c, 0, 52, 63
1, 278996, Note_on_c, 0, 75, 66
1, 278996, Note_on_c, 0, 81, 77
1, 278996, Note_on_c, 0, 52, 0
1, 278999, Note_on_c, 0, 40, 0
1, 278999, Note_on_c, 0, 40, 64
1, 279050, Note_on_c, 0, 81, 0
1, 279050, Note_on_c, 0, 75, 0
1, 279068, Note_on_c, 0, 52, 64
1, 279140, Note_on_c, 0, 76, 70
1, 279140, Note_on_c, 0, 79, 82
1, 279140, Note_on_c, 0, 52, 0
1, 279143, Note_on_c, 0, 40, 0
1, 279143, Note_on_c, 0, 40, 66
1, 279194, Note_on_c, 0, 79, 0
1, 279194, Note_on_c, 0, 76, 0
1, 279212, Note_on_c, 0, 52, 68
1, 279285, Note_on_c, 0, 81, 73
1, 279285, Note_on_c, 0, 87, 84
1, 279285, Note_on_c, 0, 52, 0
1, 279288, Note_on_c, 0, 40, 0
1, 279288, Note_on_c, 0, 40, 73
1, 279339, Note_on_c, 0, 87, 0
1, 279339, Note_on_c, 0, 81, 0
1, 279357, Note_on_c, 0, 52, 67
1, 279429, Note_on_c, 0, 79, 79
1, 279429, Note_on_c, 0, 88, 91
1, 279429, Note_on_c, 0, 52, 0
1, 279432, Note_on_c, 0, 40, 0
1, 279432, Note_on_c, 0, 52, 74
1, 279432, Note_on_c, 0, 40, 63
1, 279578, Note_on_c, 0, 88, 0
1, 279578, Note_on_c, 0, 79, 0
1, 279578, Note_on_c, 0, 40, 0
1, 279581, Note_on_c, 0, 52, 0
1, 279581, Note_on_c, 0, 55, 56
1, 279581, Note_on_c, 0, 59, 65
1, 279726, Note_on_c, 0, 64, 79
1, 279726, Note_on_c, 0, 76, 91
1, 279726, Note_on_c, 0, 59, 0
1, 279729, Note_on_c, 0, 55, 0
1, 279729, Note_on_c, 0, 55, 56
1, 279729, Note_on_c, 0, 59, 65
1, 279875, Note_on_c, 0, 76, 0
1, 279875, Note_on_c, 0, 64, 0
1, 279875, Note_on_c, 0, 59, 0
1, 279878, Note_on_c, 0, 55, 0
1, 279878, Note_on_c, 0, 55, 56
1, 279878, Note_on_c, 0, 59, 65
1, 280023, Note_on_c, 0, 59, 0
1, 280023, Note_on_c, 0, 55, 0
1, 280023, Note_on_c, 0, 52, 74
1, 280172, Note_on_c, 0, 64, 62
1, 280172, Note_on_c, 0, 76, 73
1, 280172, Note_on_c, 0, 52, 0
1, 280175, Note_on_c, 0, 55, 56
1, 280175, Note_on_c, 0, 59, 65
1, 280227, Note_on_c, 0, 76, 0
1, 280227, Note_on_c, 0, 64, 0
1, 280320, Note_on_c, 0, 66, 66
1, 280320, Note_on_c, 0, 78, 78
1, 280320, Note_on_c, 0, 59, 0
1, 280323, Note_on_c, 0, 55, 0
1, 280323, Note_on_c, 0, 55, 56
1, 280323, Note_on_c, 0, 59, 65
1, 280375, Note_on_c, 0, 78, 0
1, 280375, Note_on_c, 0, 66, 0
1, 280466, Note_on_c, 0, 67, 62
1, 280466, Note_on_c, 0, 79, 73
1, 280466, Note_on_c, 0, 59, 0
1, 280469, Note_on_c, 0, 55, 0
1, 280469, Note_on_c, 0, 55, 53
1, 280469, Note_on_c, 0, 59, 61
1, 280524, Note_on_c, 0, 79, 0
1, 280524, Note_on_c, 0, 67, 0
1, 280621, Note_on_c, 0, 67, 66
1, 280621, Note_on_c, 0, 79, 77
1, 280621, Note_on_c, 0, 59, 0
1, 280624, Note_on_c, 0, 55, 0
1, 280624, Note_on_c, 0, 52, 65
1, 280770, Note_on_c, 0, 52, 0
1, 280770, Note_on_c, 0, 57, 50
1, 280770, Note_on_c, 0, 60, 58
1, 280919, Note_on_c, 0, 79, 0
1, 280919, Note_on_c, 0, 67, 0
1, 280919, Note_on_c, 0, 66, 62
1, 280922, Note_on_c, 0, 78, 73
1, 280922, Note_on_c, 0, 60, 0
1, 280922, Note_on_c, 0, 57, 0
1, 280925, Note_on_c, 0, 57, 50
1, 280925, Note_on_c, 0, 60, 58
1, 281068, Note_on_c, 0, 78, 0
1, 281068, Note_on_c, 0, 66, 0
1, 281068, Note_on_c, 0, 60, 0
1, 281071, Note_on_c, 0, 57, 0
1, 281071, Note_on_c, 0, 57, 50
1, 281071, Note_on_c, 0, 60, 58
1, 281218, Note_on_c, 0, 60, 0
1, 281218, Note_on_c, 0, 57, 0
1, 281218, Note_on_c, 0, 51, 74
1, 281365, Note_on_c, 0, 66, 62
1, 281365, Note_on_c, 0, 78, 73
1, 281365, Note_on_c, 0, 51, 0
1, 281368, Note_on_c, 0, 57, 56
1, 281368, Note_on_c, 0, 60, 65
1, 281421, Note_on_c, 0, 78, 0
1, 281421, Note_on_c, 0, 66, 0
1, 281513, Note_on_c, 0, 67, 66
1, 281513, Note_on_c, 0, 79, 78
1, 281513, Note_on_c, 0, 60, 0
1, 281516, Note_on_c, 0, 57, 0
1, 281516, Note_on_c, 0, 57, 56
1, 281516, Note_on_c, 0, 60, 65
1, 281568, Note_on_c, 0, 79, 0
1, 281568, Note_on_c, 0, 67, 0
1, 281659, Note_on_c, 0, 69, 62
1, 281659, Note_on_c, 0, 81, 73
1, 281659, Note_on_c, 0, 60, 0
1, 281662, Note_on_c, 0, 57, 0
1, 281662, Note_on_c, 0, 57, 53
1, 281662, Note_on_c, 0, 60, 61
1, 281717, Note_on_c, 0, 81, 0
1, 281717, Note_on_c, 0, 69, 0
1, 281813, Note_on_c, 0, 69, 62
1, 281813, Note_on_c, 0, 81, 73
1, 281813, Note_on_c, 0, 60, 0
1, 281816, Note_on_c, 0, 57, 0
1, 281816, Note_on_c, 0, 38, 65
1, 281872, Note_on_c, 0, 81, 0
1, 281872, Note_on_c, 0, 69, 0
1, 281891, Note_on_c, 0, 50, 60
1, 281969, Note_on_c, 0, 67, 65
1, 281969, Note_on_c, 0, 50, 0
1, 281969, Note_on_c, 0, 38, 0
1, 281972, Note_on_c, 0, 38, 63
1, 282023, Note_on_c, 0, 67, 0
1, 282042, Note_on_c, 0, 50, 57
1, 282115, Note_on_c, 0, 66, 68
1, 282115, Note_on_c, 0, 50, 0
1, 282115, Note_on_c, 0, 38, 0
1, 282118, Note_on_c, 0, 38, 63
1, 282169, Note_on_c, 0, 66, 0
1, 282188, Note_on_c, 0, 50, 57
1, 282261, Note_on_c, 0, 67, 57
1, 282261, Note_on_c, 0, 73, 66
1, 282261, Note_on_c, 0, 50, 0
1, 282264, Note_on_c, 0, 38, 0
1, 282264, Note_on_c, 0, 38, 62
1, 282315, Note_on_c, 0, 73, 0
1, 282315, Note_on_c, 0, 67, 0
1, 282333, Note_on_c, 0, 50, 58
1, 282406, Note_on_c, 0, 66, 61
1, 282406, Note_on_c, 0, 74, 72
1, 282406, Note_on_c, 0, 50, 0
1, 282409, Note_on_c, 0, 38, 0
1, 282409, Note_on_c, 0, 38, 60
1, 282461, Note_on_c, 0, 74, 0
1, 282461, Note_on_c, 0, 66, 0
1, 282479, Note_on_c, 0, 50, 63
1, 282552, Note_on_c, 0, 73, 66
1, 282552, Note_on_c, 0, 79, 77
1, 282552, Note_on_c, 0, 50, 0
1, 282555, Note_on_c, 0, 38, 0
1, 282555, Note_on_c, 0, 38, 64
1, 282607, Note_on_c, 0, 79, 0
1, 282607, Note_on_c, 0, 73, 0
1, 282625, Note_on_c, 0, 50, 64
1, 282697, Note_on_c, 0, 74, 70
1, 282697, Note_on_c, 0, 78, 82
1, 282697, Note_on_c, 0, 50, 0
1, 282700, Note_on_c, 0, 38, 0
1, 282700, Note_on_c, 0, 38, 66
1, 282751, Note_on_c, 0, 78, 0
1, 282751, Note_on_c, 0, 74, 0
1, 282769, Note_on_c, 0, 50, 68
1, 282841, Note_on_c, 0, 79, 73
1, 282841, Note_on_c, 0, 85, 84
1, 282841, Note_on_c, 0, 50, 0
1, 282844, Note_on_c, 0, 38, 0
1, 282844, Note_on_c, 0, 38, 73
1, 282895, Note_on_c, 0, 85, 0
1, 282895, Note_on_c, 0, 79, 0
1, 282914, Note_on_c, 0, 50, 67
1, 282986, Note_on_c, 0, 78, 79
1, 282986, Note_on_c, 0, 86, 91
1, 282986, Note_on_c, 0, 50, 0
1, 282989, Note_on_c, 0, 38, 0
1, 282989, Note_on_c, 0, 50, 74
1, 282989, Note_on_c, 0, 38, 63
1, 283134, Note_on_c, 0, 86, 0
1, 283134, Note_on_c, 0, 78, 0
1, 283134, Note_on_c, 0, 38, 0
1, 283137, Note_on_c, 0, 50, 0
1, 283137, Note_on_c, 0, 57, 56
1, 283137, Note_on_c, 0, 60, 65
1, 283283, Note_on_c, 0, 66, 79
1, 283283, Note_on_c, 0, 78, 91
1, 283283, Note_on_c, 0, 60, 0
1, 283286, Note_on_c, 0, 57, 0
1, 283286, Note_on_c, 0, 57, 56
1, 283286, Note_on_c, 0, 60, 65
1, 283431, Note_on_c, 0, 78, 0
1, 283431, Note_on_c, 0, 66, 0
1, 283431, Note_on_c, 0, 60, 0
1, 283434, Note_on_c, 0, 57, 0
1, 283434, Note_on_c, 0, 57, 56
1, 283434, Note_on_c, 0, 60, 65
1, 283580, Note_on_c, 0, 60, 0
1, 283580, Note_on_c, 0, 57, 0
1, 283580, Note_on_c, 0, 50, 74
1, 283728, Note_on_c, 0, 66, 62
1, 283728, Note_on_c, 0, 78, 73
1, 283728, Note_on_c, 0, 50, 0
1, 283731, Note_on_c, 0, 57, 56
1, 283731, Note_on_c, 0, 60, 65
1, 283784, Note_on_c, 0, 78, 0
1, 283784, Note_on_c, 0, 66, 0
1, 283877, Note_on_c, 0, 67, 66
1, 283877, Note_on_c, 0, 79, 78
1, 283877, Note_on_c, 0, 60, 0
1, 283880, Note_on_c, 0, 57, 0
1, 283880, Note_on_c, 0, 57, 56
1, 283880, Note_on_c, 0, 60, 65
1, 283932, Note_on_c, 0, 79, 0
1, 283932, Note_on_c, 0, 67, 0
1, 284023, Note_on_c, 0, 69, 62
1, 284023, Note_on_c, 0, 81, 73
1, 284023, Note_on_c, 0, 60, 0
1, 284026, Note_on_c, 0, 57, 0
1, 284026, Note_on_c, 0, 57, 53
1, 284026, Note_on_c, 0, 60, 61
1, 284081, Note_on_c, 0, 81, 0
1, 284081, Note_on_c, 0, 69, 0
1, 284177, Note_on_c, 0, 69, 66
1, 284177, Note_on_c, 0, 81, 77
1, 284177, Note_on_c, 0, 60, 0
1, 284180, Note_on_c, 0, 57, 0
1, 284180, Note_on_c, 0, 50, 65
1, 284326, Note_on_c, 0, 50, 0
1, 284326, Note_on_c, 0, 55, 50
1, 284326, Note_on_c, 0, 58, 58
1, 284476, Note_on_c, 0, 81, 0
1, 284476, Note_on_c, 0, 69, 0
1, 284476, Note_on_c, 0, 67, 62
1, 284479, Note_on_c, 0, 79, 73
1, 284479, Note_on_c, 0, 58, 0
1, 284479, Note_on_c, 0, 55, 0
1, 284482, Note_on_c, 0, 55, 50
1, 284482, Note_on_c, 0, 58, 58
1, 284625, Note_on_c, 0, 79, 0
1, 284625, Note_on_c, 0, 67, 0
1, 284625, Note_on_c, 0, 58, 0
1, 284628, Note_on_c, 0, 55, 0
1, 284628, Note_on_c, 0, 55, 50
1, 284628, Note_on_c, 0, 58, 58
1, 284774, Note_on_c, 0, 58, 0
1, 284774, Note_on_c, 0, 55, 0
1, 284774, Note_on_c, 0, 49, 74
1, 284922, Note_on_c, 0, 67, 62
1, 284922, Note_on_c, 0, 79, 73
1, 284922, Note_on_c, 0, 49, 0
1, 284925, Note_on_c, 0, 55, 56
1, 284925, Note_on_c, 0, 58, 65
1, 284977, Note_on_c, 0, 79, 0
1, 284977, Note_on_c, 0, 67, 0
1, 285070, Note_on_c, 0, 69, 66
1, 285070, Note_on_c, 0, 81, 78
1, 285070, Note_on_c, 0, 58, 0
1, 285073, Note_on_c, 0, 55, 0
1, 285073, Note_on_c, 0, 55, 56
1, 285073, Note_on_c, 0, 58, 65
1, 285125, Note_on_c, 0, 81, 0
1, 285125, Note_on_c, 0, 69, 0
1, 285216, Note_on_c, 0, 70, 62
1, 285216, Note_on_c, 0, 82, 73
1, 285216, Note_on_c, 0, 58, 0
1, 285219, Note_on_c, 0, 55, 0
1, 285219, Note_on_c, 0, 55, 53
1, 285219, Note_on_c, 0, 58, 61
1, 285274, Note_on_c, 0, 82, 0
1, 285274, Note_on_c, 0, 70, 0
1, 285370, Note_on_c, 0, 70, 68
1, 285370, Note_on_c, 0, 58, 0
1, 285370, Note_on_c, 0, 55, 0
1, 285373, Note_on_c, 0, 36, 63
1, 285373, Note_on_c, 0, 48, 63
1, 285445, Note_on_c, 0, 82, 62
1, 285520, Note_on_c, 0, 82, 0
1, 285520, Note_on_c, 0, 70, 0
1, 285520, Note_on_c, 0, 70, 68
1, 285523, Note_on_c, 0, 48, 0
1, 285523, Note_on_c, 0, 36, 0
1, 285523, Note_on_c, 0, 49, 65
1, 285592, Note_on_c, 0, 82, 63
1, 285665, Note_on_c, 0, 82, 0
1, 285665, Note_on_c, 0, 70, 0
1, 285665, Note_on_c, 0, 70, 68
1, 285668, Note_on_c, 0, 49, 0
1, 285668, Note_on_c, 0, 48, 61
1, 285740, Note_on_c, 0, 82, 62
1, 285815, Note_on_c, 0, 82, 0
1, 285815, Note_on_c, 0, 70, 0
1, 285815, Note_on_c, 0, 70, 68
1, 285818, Note_on_c, 0, 48, 0
1, 285818, Note_on_c, 0, 53, 65
1, 285887, Note_on_c, 0, 82, 62
1, 285960, Note_on_c, 0, 82, 0
1, 285960, Note_on_c, 0, 70, 0
1, 285960, Note_on_c, 0, 70, 68
1, 285963, Note_on_c, 0, 53, 0
1, 285963, Note_on_c, 0, 52, 62
1, 286034, Note_on_c, 0, 82, 62
1, 286109, Note_on_c, 0, 82, 0
1, 286109, Note_on_c, 0, 70, 0
1, 286109, Note_on_c, 0, 70, 68
1, 286112, Note_on_c, 0, 52, 0
1, 286112, Note_on_c, 0, 61, 65
1, 286182, Note_on_c, 0, 82, 63
1, 286254, Note_on_c, 0, 82, 0
1, 286254, Note_on_c, 0, 70, 0
1, 286254, Note_on_c, 0, 70, 68
1, 286257, Note_on_c, 0, 61, 0
1, 286257, Note_on_c, 0, 60, 61
1, 286329, Note_on_c, 0, 82, 62
1, 286404, Note_on_c, 0, 82, 0
1, 286404, Note_on_c, 0, 70, 0
1, 286404, Note_on_c, 0, 70, 68
1, 286407, Note_on_c, 0, 60, 0
1, 286407, Note_on_c, 0, 65, 65
1, 286476, Note_on_c, 0, 82, 62
1, 286548, Note_on_c, 0, 82, 0
1, 286548, Note_on_c, 0, 70, 0
1, 286548, Note_on_c, 0, 70, 68
1, 286551, Note_on_c, 0, 65, 0
1, 286551, Note_on_c, 0, 64, 61
1, 286624, Note_on_c, 0, 82, 62
1, 286699, Note_on_c, 0, 82, 0
1, 286699, Note_on_c, 0, 70, 0
1, 286699, Note_on_c, 0, 70, 68
1, 286702, Note_on_c, 0, 64, 0
1, 286702, Note_on_c, 0, 66, 65
1, 286772, Note_on_c, 0, 82, 63
1, 286846, Note_on_c, 0, 82, 0
1, 286846, Note_on_c, 0, 70, 0
1, 286846, Note_on_c, 0, 70, 68
1, 286849, Note_on_c, 0, 66, 0
1, 286849, Note_on_c, 0, 67, 67
1, 286919, Note_on_c, 0, 82, 62
1, 286992, Note_on_c, 0, 82, 0
1, 286992, Note_on_c, 0, 70, 0
1, 286992, Note_on_c, 0, 70, 68
1, 286995, Note_on_c, 0, 67, 0
1, 287065, Note_on_c, 0, 82, 62
1, 287138, Note_on_c, 0, 82, 0
1, 287138, Note_on_c, 0, 70, 0
1, 287138, Note_on_c, 0, 70, 68
1, 287211, Note_on_c, 0, 82, 62
1, 287283, Note_on_c, 0, 82, 0
1, 287283, Note_on_c, 0, 70, 0
1, 287283, Note_on_c, 0, 70, 68
1, 287356, Note_on_c, 0, 82, 63
1, 287428, Note_on_c, 0, 82, 0
1, 287428, Note_on_c, 0, 70, 0
1, 287428, Note_on_c, 0, 70, 68
1, 287501, Note_on_c, 0, 82, 62
1, 287573, Note_on_c, 0, 82, 0
1, 287573, Note_on_c, 0, 70, 0
1, 287573, Note_on_c, 0, 70, 68
1, 287645, Note_on_c, 0, 82, 62
1, 287718, Note_on_c, 0, 82, 0
1, 287718, Note_on_c, 0, 70, 0
1, 287718, Note_on_c, 0, 69, 68
1, 287793, Note_on_c, 0, 81, 62
1, 287868, Note_on_c, 0, 81, 0
1, 287868, Note_on_c, 0, 69, 0
1, 287868, Note_on_c, 0, 69, 68
1, 287871, Note_on_c, 0, 42, 65
1, 287940, Note_on_c, 0, 81, 63
1, 288013, Note_on_c, 0, 81, 0
1, 288013, Note_on_c, 0, 69, 0
1, 288013, Note_on_c, 0, 69, 68
1, 288016, Note_on_c, 0, 42, 0
1, 288016, Note_on_c, 0, 41, 61
1, 288088, Note_on_c, 0, 81, 62
1, 288163, Note_on_c, 0, 81, 0
1, 288163, Note_on_c, 0, 69, 0
1, 288163, Note_on_c, 0, 69, 68
1, 288166, Note_on_c, 0, 41, 0
1, 288166, Note_on_c, 0, 49, 65
1, 288235, Note_on_c, 0, 81, 62
1, 288307, Note_on_c, 0, 81, 0
1, 288307, Note_on_c, 0, 69, 0
1, 288307, Note_on_c, 0, 69, 68
1, 288310, Note_on_c, 0, 49, 0
1, 288310, Note_on_c, 0, 48, 62
1, 288382, Note_on_c, 0, 81, 62
1, 288457, Note_on_c, 0, 81, 0
1, 288457, Note_on_c, 0, 69, 0
1, 288457, Note_on_c, 0, 69, 68
1, 288460, Note_on_c, 0, 48, 0
1, 288460, Note_on_c, 0, 54, 65
1, 288530, Note_on_c, 0, 81, 63
1, 288602, Note_on_c, 0, 81, 0
1, 288602, Note_on_c, 0, 69, 0
1, 288602, Note_on_c, 0, 69, 68
1, 288605, Note_on_c, 0, 54, 0
1, 288605, Note_on_c, 0, 53, 61
1, 288677, Note_on_c, 0, 81, 62
1, 288752, Note_on_c, 0, 81, 0
1, 288752, Note_on_c, 0, 69, 0
1, 288752, Note_on_c, 0, 69, 68
1, 288755, Note_on_c, 0, 53, 0
1, 288755, Note_on_c, 0, 61, 65
1, 288824, Note_on_c, 0, 81, 62
1, 288896, Note_on_c, 0, 81, 0
1, 288896, Note_on_c, 0, 69, 0
1, 288896, Note_on_c, 0, 69, 68
1, 288899, Note_on_c, 0, 61, 0
1, 288899, Note_on_c, 0, 60, 61
1, 288972, Note_on_c, 0, 81, 62
1, 289047, Note_on_c, 0, 81, 0
1, 289047, Note_on_c, 0, 69, 0
1, 289047, Note_on_c, 0, 69, 68
1, 289050, Note_on_c, 0, 60, 0
1, 289050, Note_on_c, 0, 64, 65
1, 289120, Note_on_c, 0, 81, 63
1, 289193, Note_on_c, 0, 81, 0
1, 289193, Note_on_c, 0, 69, 0
1, 289193, Note_on_c, 0, 69, 68
1, 289196, Note_on_c, 0, 64, 0
1, 289196, Note_on_c, 0, 65, 67
1, 289267, Note_on_c, 0, 81, 62
1, 289340, Note_on_c, 0, 81, 0
1, 289340, Note_on_c, 0, 69, 0
1, 289340, Note_on_c, 0, 69, 68
1, 289343, Note_on_c, 0, 65, 0
1, 289413, Note_on_c, 0, 81, 62
1, 289486, Note_on_c, 0, 81, 0
1, 289486, Note_on_c, 0, 69, 0
1, 289486, Note_on_c, 0, 69, 68
1, 289559, Note_on_c, 0, 81, 62
1, 289631, Note_on_c, 0, 81, 0
1, 289631, Note_on_c, 0, 69, 0
1, 289631, Note_on_c, 0, 69, 68
1, 289703, Note_on_c, 0, 81, 63
1, 289776, Note_on_c, 0, 81, 0
1, 289776, Note_on_c, 0, 69, 0
1, 289776, Note_on_c, 0, 69, 68
1, 289848, Note_on_c, 0, 81, 62
1, 289921, Note_on_c, 0, 81, 0
1, 289921, Note_on_c, 0, 69, 0
1, 289921, Note_on_c, 0, 69, 68
1, 289993, Note_on_c, 0, 81, 62
1, 290066, Note_on_c, 0, 81, 0
1, 290066, Note_on_c, 0, 69, 0
1, 290066, Note_on_c, 0, 68, 68
1, 290141, Note_on_c, 0, 80, 62
1, 290216, Note_on_c, 0, 80, 0
1, 290216, Note_on_c, 0, 68, 0
1, 290216, Note_on_c, 0, 68, 68
1, 290219, Note_on_c, 0, 48, 65
1, 290288, Note_on_c, 0, 80, 63
1, 290360, Note_on_c, 0, 80, 0
1, 290360, Note_on_c, 0, 68, 0
1, 290360, Note_on_c, 0, 68, 68
1, 290363, Note_on_c, 0, 48, 0
1, 290363, Note_on_c, 0, 47, 61
1, 290436, Note_on_c, 0, 80, 62
1, 290511, Note_on_c, 0, 80, 0
1, 290511, Note_on_c, 0, 68, 0
1, 290511, Note_on_c, 0, 68, 68
1, 290514, Note_on_c, 0, 47, 0
1, 290514, Note_on_c, 0, 50, 65
1, 290583, Note_on_c, 0, 80, 62
1, 290655, Note_on_c, 0, 80, 0
1, 290655, Note_on_c, 0, 68, 0
1, 290655, Note_on_c, 0, 68, 68
1, 290658, Note_on_c, 0, 50, 0
1, 290658, Note_on_c, 0, 53, 62
1, 290730, Note_on_c, 0, 80, 62
1, 290805, Note_on_c, 0, 80, 0
1, 290805, Note_on_c, 0, 68, 0
1, 290805, Note_on_c, 0, 68, 68
1, 290808, Note_on_c, 0, 53, 0
1, 290808, Note_on_c, 0, 60, 65
1, 290877, Note_on_c, 0, 80, 63
1, 290950, Note_on_c, 0, 80, 0
1, 290950, Note_on_c, 0, 68, 0
1, 290950, Note_on_c, 0, 68, 68
1, 290953, Note_on_c, 0, 60, 0
1, 290953, Note_on_c, 0, 59, 61
1, 291025, Note_on_c, 0, 80, 62
1, 291100, Note_on_c, 0, 80, 0
1, 291100, Note_on_c, 0, 68, 0
1, 291100, Note_on_c, 0, 68, 68
1, 291103, Note_on_c, 0, 59, 0
1, 291103, Note_on_c, 0, 62, 65
1, 291172, Note_on_c, 0, 80, 62
1, 291244, Note_on_c, 0, 80, 0
1, 291244, Note_on_c, 0, 68, 0
1, 291244, Note_on_c, 0, 68, 68
1, 291247, Note_on_c, 0, 62, 0
1, 291247, Note_on_c, 0, 65, 64
1, 291317, Note_on_c, 0, 80, 62
1, 291317, Note_on_c, 0, 65, 0
1, 291390, Note_on_c, 0, 80, 0
1, 291390, Note_on_c, 0, 68, 0
1, 291390, Note_on_c, 0, 68, 68
1, 291464, Note_on_c, 0, 80, 63
1, 291537, Note_on_c, 0, 80, 0
1, 291537, Note_on_c, 0, 68, 0
1, 291537, Note_on_c, 0, 68, 68
1, 291540, Note_on_c, 0, 62, 64
1, 291610, Note_on_c, 0, 80, 62
1, 291610, Note_on_c, 0, 62, 0
1, 291683, Note_on_c, 0, 80, 0
1, 291683, Note_on_c, 0, 68, 0
1, 291683, Note_on_c, 0, 68, 68
1, 291756, Note_on_c, 0, 80, 62
1, 291829, Note_on_c, 0, 80, 0
1, 291829, Note_on_c, 0, 68, 0
1, 291829, Note_on_c, 0, 68, 68
1, 291832, Note_on_c, 0, 59, 63
1, 291901, Note_on_c, 0, 80, 64
1, 291901, Note_on_c, 0, 59, 0
1, 291974, Note_on_c, 0, 80, 0
1, 291974, Note_on_c, 0, 68, 0
1, 291974, Note_on_c, 0, 67, 68
1, 292046, Note_on_c, 0, 79, 64
1, 292119, Note_on_c, 0, 79, 0
1, 292119, Note_on_c, 0, 67, 0
1, 292119, Note_on_c, 0, 67, 68
1, 292122, Note_on_c, 0, 55, 62
1, 292191, Note_on_c, 0, 79, 64
1, 292191, Note_on_c, 0, 55, 0
1, 292263, Note_on_c, 0, 79, 0
1, 292263, Note_on_c, 0, 67, 0
1, 292263, Note_on_c, 0, 65, 68
1, 292336, Note_on_c, 0, 77, 64
1, 292411, Note_on_c, 0, 77, 0
1, 292411, Note_on_c, 0, 65, 0
1, 292411, Note_on_c, 0, 65, 66
1, 292414, Note_on_c, 0, 49, 53
1, 292414, Note_on_c, 0, 61, 61
1, 292483, Note_on_c, 0, 77, 66
1, 292556, Note_on_c, 0, 77, 0
1, 292556, Note_on_c, 0, 65, 0
1, 292556, Note_on_c, 0, 64, 66
1, 292559, Note_on_c, 0, 61, 0
1, 292559, Note_on_c, 0, 49, 0
1, 292628, Note_on_c, 0, 76, 66
1, 292701, Note_on_c, 0, 76, 0
1, 292701, Note_on_c, 0, 64, 0
1, 292701, Note_on_c, 0, 64, 65
1, 292704, Note_on_c, 0, 46, 52
1, 292704, Note_on_c, 0, 58, 60
1, 292773, Note_on_c, 0, 76, 65
1, 292846, Note_on_c, 0, 76, 0
1, 292846, Note_on_c, 0, 64, 0
1, 292846, Note_on_c, 0, 61, 65
1, 292849, Note_on_c, 0, 58, 0
1, 292849, Note_on_c, 0, 46, 0
1, 292918, Note_on_c, 0, 73, 65
1, 292993, Note_on_c, 0, 73, 0
1, 292993, Note_on_c, 0, 61, 0
1, 292993, Note_on_c, 0, 61, 64
1, 292996, Note_on_c, 0, 43, 51
1, 292996, Note_on_c, 0, 55, 59
1, 293066, Note_on_c, 0, 73, 61
1, 293139, Note_on_c, 0, 73, 0
1, 293139, Note_on_c, 0, 61, 0
1, 293139, Note_on_c, 0, 60, 64
1, 293142, Note_on_c, 0, 55, 0
1, 293142, Note_on_c, 0, 43, 0
1, 293212, Note_on_c, 0, 72, 61
1, 293284, Note_on_c, 0, 72, 0
1, 293284, Note_on_c, 0, 60, 0
1, 293284, Note_on_c, 0, 60, 63
1, 293287, Note_on_c, 0, 40, 50
1, 293287, Note_on_c, 0, 52, 58
1, 293357, Note_on_c, 0, 72, 60
1, 293430, Note_on_c, 0, 72, 0
1, 293430, Note_on_c, 0, 60, 0
1, 293430, Note_on_c, 0, 58, 63
1, 293433, Note_on_c, 0, 52, 0
1, 293433, Note_on_c, 0, 40, 0
1, 293502, Note_on_c, 0, 70, 59
1, 293578, Note_on_c, 0, 70, 0
1, 293578, Note_on_c, 0, 58, 0
1, 293578, Note_on_c, 0, 58, 63
1, 293581, Note_on_c, 0, 41, 50
1, 293581, Note_on_c, 0, 53, 58
1, 293650, Note_on_c, 0, 70, 61
1, 293723, Note_on_c, 0, 70, 0
1, 293723, Note_on_c, 0, 58, 0
1, 293723, Note_on_c, 0, 56, 63
1, 293726, Note_on_c, 0, 53, 0
1, 293726, Note_on_c, 0, 41, 0
1, 293795, Note_on_c, 0, 68, 60
1, 293868, Note_on_c, 0, 68, 0
1, 293868, Note_on_c, 0, 56, 0
1, 293868, Note_on_c, 0, 56, 63
1, 293940, Note_on_c, 0, 68, 60
1, 294012, Note_on_c, 0, 68, 0
1, 294012, Note_on_c, 0, 56, 0
1, 294012, Note_on_c, 0, 55, 63
1, 294085, Note_on_c, 0, 67, 59
1, 294160, Note_on_c, 0, 67, 0
1, 294160, Note_on_c, 0, 55, 0
1, 294160, Note_on_c, 0, 55, 63
1, 294163, Note_on_c, 0, 29, 50
1, 294163, Note_on_c, 0, 41, 58
1, 294233, Note_on_c, 0, 67, 63
1, 294305, Note_on_c, 0, 67, 0
1, 294305, Note_on_c, 0, 55, 0
1, 294305, Note_on_c, 0, 53, 63
1, 294308, Note_on_c, 0, 41, 0
1, 294308, Note_on_c, 0, 29, 0
1, 294378, Note_on_c, 0, 65, 58
1, 294451, Note_on_c, 0, 65, 0
1, 294451, Note_on_c, 0, 53, 0
1, 294451, Note_on_c, 0, 53, 63
1, 294524, Note_on_c, 0, 65, 59
1, 294596, Note_on_c, 0, 65, 0
1, 294596, Note_on_c, 0, 53, 0
1, 294596, Note_on_c, 0, 51, 63
1, 294669, Note_on_c, 0, 63, 59
1, 294745, Note_on_c, 0, 63, 0
1, 294745, Note_on_c, 0, 51, 0
1, 294745, Note_on_c, 0, 51, 63
1, 294748, Note_on_c, 0, 30, 50
1, 294748, Note_on_c, 0, 42, 58
1, 294817, Note_on_c, 0, 63, 59
1, 294890, Note_on_c, 0, 63, 0
1, 294890, Note_on_c, 0, 51, 0
1, 294890, Note_on_c, 0, 50, 63
1, 294893, Note_on_c, 0, 42, 0
1, 294893, Note_on_c, 0, 30, 0
1, 294963, Note_on_c, 0, 62, 59
1, 295035, Note_on_c, 0, 62, 0
1, 295035, Note_on_c, 0, 50, 0
1, 295035, Note_on_c, 0, 50, 63
1, 295108, Note_on_c, 0, 62, 59
1, 295181, Note_on_c, 0, 62, 0
1, 295181, Note_on_c, 0, 50, 0
1, 295181, Note_on_c, 0, 51, 63
1, 295254, Note_on_c, 0, 63, 58
1, 295329, Note_on_c, 0, 63, 0
1, 295329, Note_on_c, 0, 51, 0
1, 295329, Note_on_c, 0, 51, 63
1, 295332, Note_on_c, 0, 30, 50
1, 295332, Note_on_c, 0, 42, 58
1, 295402, Note_on_c, 0, 63, 59
1, 295475, Note_on_c, 0, 63, 0
1, 295475, Note_on_c, 0, 51, 0
1, 295475, Note_on_c, 0, 50, 63
1, 295478, Note_on_c, 0, 42, 0
1, 295478, Note_on_c, 0, 30, 0
1, 295547, Note_on_c, 0, 62, 59
1, 295620, Note_on_c, 0, 62, 0
1, 295620, Note_on_c, 0, 50, 0
1, 295620, Note_on_c, 0, 50, 63
1, 295693, Note_on_c, 0, 62, 59
1, 295765, Note_on_c, 0, 62, 0
1, 295765, Note_on_c, 0, 50, 0
1, 295765, Note_on_c, 0, 48, 63
1, 295838, Note_on_c, 0, 60, 59
1, 295911, Note_on_c, 0, 60, 0
1, 295911, Note_on_c, 0, 48, 0
1, 295911, Note_on_c, 0, 47, 63
1, 295914, Note_on_c, 0, 59, 63
1, 295914, Note_on_c, 0, 31, 43
1, 295985, Note_on_c, 0, 31, 0
1, 295985, Note_on_c, 0, 43, 43
1, 296059, Note_on_c, 0, 59, 0
1, 296059, Note_on_c, 0, 47, 0
1, 296059, Note_on_c, 0, 43, 0
1, 296062, Note_on_c, 0, 31, 44
1, 296132, Note_on_c, 0, 31, 0
1, 296132, Note_on_c, 0, 43, 44
1, 296206, Note_on_c, 0, 49, 50
1, 296206, Note_on_c, 0, 43, 0
1, 296206, Note_on_c, 0, 31, 44
1, 296279, Note_on_c, 0, 49, 0
1, 296279, Note_on_c, 0, 56, 44
1, 296279, Note_on_c, 0, 31, 0
1, 296282, Note_on_c, 0, 43, 44
1, 296352, Note_on_c, 0, 56, 0
1, 296352, Note_on_c, 0, 52, 44
1, 296352, Note_on_c, 0, 43, 0
1, 296355, Note_on_c, 0, 31, 44
1, 296425, Note_on_c, 0, 52, 0
1, 296425, Note_on_c, 0, 49, 44
1, 296425, Note_on_c, 0, 31, 0
1, 296428, Note_on_c, 0, 43, 44
1, 296498, Note_on_c, 0, 49, 0
1, 296498, Note_on_c, 0, 50, 51
1, 296498, Note_on_c, 0, 43, 0
1, 296501, Note_on_c, 0, 31, 44
1, 296571, Note_on_c, 0, 50, 0
1, 296571, Note_on_c, 0, 56, 44
1, 296571, Note_on_c, 0, 31, 0
1, 296574, Note_on_c, 0, 43, 44
1, 296644, Note_on_c, 0, 56, 0
1, 296644, Note_on_c, 0, 53, 44
1, 296644, Note_on_c, 0, 43, 0
1, 296647, Note_on_c, 0, 31, 44
1, 296717, Note_on_c, 0, 53, 0
1, 296717, Note_on_c, 0, 50, 44
1, 296717, Note_on_c, 0, 31, 0
1, 296720, Note_on_c, 0, 43, 44
1, 296790, Note_on_c, 0, 50, 0
1, 296790, Note_on_c, 0, 48, 51
1, 296790, Note_on_c, 0, 43, 0
1, 296793, Note_on_c, 0, 31, 44
1, 296863, Note_on_c, 0, 48, 0
1, 296863, Note_on_c, 0, 56, 44
1, 296863, Note_on_c, 0, 31, 0
1, 296866, Note_on_c, 0, 43, 44
1, 296936, Note_on_c, 0, 56, 0
1, 296936, Note_on_c, 0, 51, 44
1, 296936, Note_on_c, 0, 43, 0
1, 296939, Note_on_c, 0, 31, 44
1, 297009, Note_on_c, 0, 51, 0
1, 297009, Note_on_c, 0, 48, 44
1, 297009, Note_on_c, 0, 31, 0
1, 297012, Note_on_c, 0, 43, 44
1, 297082, Note_on_c, 0, 48, 0
1, 297082, Note_on_c, 0, 47, 50
1, 297082, Note_on_c, 0, 43, 0
1, 297085, Note_on_c, 0, 31, 43
1, 297154, Note_on_c, 0, 47, 0
1, 297154, Note_on_c, 0, 55, 44
1, 297154, Note_on_c, 0, 31, 0
1, 297157, Note_on_c, 0, 43, 43
1, 297227, Note_on_c, 0, 55, 0
1, 297227, Note_on_c, 0, 50, 44
1, 297227, Note_on_c, 0, 43, 0
1, 297230, Note_on_c, 0, 31, 43
1, 297300, Note_on_c, 0, 50, 0
1, 297300, Note_on_c, 0, 47, 44
1, 297300, Note_on_c, 0, 31, 0
1, 297303, Note_on_c, 0, 43, 43
1, 297377, Note_on_c, 0, 47, 0
1, 297377, Note_on_c, 0, 49, 50
1, 297377, Note_on_c, 0, 43, 0
1, 297380, Note_on_c, 0, 31, 43
1, 297450, Note_on_c, 0, 49, 0
1, 297450, Note_on_c, 0, 56, 44
1, 297450, Note_on_c, 0, 31, 0
1, 297453, Note_on_c, 0, 43, 43
1, 297523, Note_on_c, 0, 56, 0
1, 297523, Note_on_c, 0, 52, 44
1, 297523, Note_on_c, 0, 43, 0
1, 297526, Note_on_c, 0, 31, 43
1, 297596, Note_on_c, 0, 52, 0
1, 297596, Note_on_c, 0, 49, 44
1, 297596, Note_on_c, 0, 31, 0
1, 297599, Note_on_c, 0, 43, 43
1, 297668, Note_on_c, 0, 49, 0
1, 297668, Note_on_c, 0, 50, 50
1, 297668, Note_on_c, 0, 43, 0
1, 297671, Note_on_c, 0, 31, 43
1, 297741, Note_on_c, 0, 50, 0
1, 297741, Note_on_c, 0, 56, 44
1, 297741, Note_on_c, 0, 31, 0
1, 297744, Note_on_c, 0, 43, 43
1, 297814, Note_on_c, 0, 56, 0
1, 297814, Note_on_c, 0, 53, 44
1, 297814, Note_on_c, 0, 43, 0
1, 297817, Note_on_c, 0, 31, 43
1, 297887, Note_on_c, 0, 53, 0
1, 297887, Note_on_c, 0, 50, 44
1, 297887, Note_on_c, 0, 31, 0
1, 297890, Note_on_c, 0, 43, 43
1, 297960, Note_on_c, 0, 50, 0
1, 297960, Note_on_c, 0, 48, 49
1, 297960, Note_on_c, 0, 43, 0
1, 297963, Note_on_c, 0, 31, 43
1, 298033, Note_on_c, 0, 48, 0
1, 298033, Note_on_c, 0, 56, 44
1, 298033, Note_on_c, 0, 31, 0
1, 298036, Note_on_c, 0, 43, 43
1, 298106, Note_on_c, 0, 56, 0
1, 298106, Note_on_c, 0, 51, 44
1, 298106, Note_on_c, 0, 43, 0
1, 298109, Note_on_c, 0, 31, 43
1, 298180, Note_on_c, 0, 51, 0
1, 298180, Note_on_c, 0, 48, 44
1, 298180, Note_on_c, 0, 31, 0
1, 298183, Note_on_c, 0, 43, 43
1, 298255, Note_on_c, 0, 48, 0
1, 298255, Note_on_c, 0, 47, 44
1, 298255, Note_on_c, 0, 50, 44
1, 298258, Note_on_c, 0, 55, 44
1, 298258, Note_on_c, 0, 43, 0
1, 298258, Note_on_c, 0, 31, 65
1, 298330, Note_on_c, 0, 43, 60
1, 298404, Note_on_c, 0, 55, 0
1, 298404, Note_on_c, 0, 50, 0
1, 298404, Note_on_c, 0, 47, 0
1, 298407, Note_on_c, 0, 64, 65
1, 298407, Note_on_c, 0, 43, 0
1, 298407, Note_on_c, 0, 31, 0
1, 298410, Note_on_c, 0, 31, 63
1, 298458, Note_on_c, 0, 64, 0
1, 298477, Note_on_c, 0, 43, 57
1, 298550, Note_on_c, 0, 65, 68
1, 298550, Note_on_c, 0, 43, 0
1, 298550, Note_on_c, 0, 31, 0
1, 298553, Note_on_c, 0, 31, 63
1, 298604, Note_on_c, 0, 65, 0
1, 298623, Note_on_c, 0, 43, 57
1, 298696, Note_on_c, 0, 64, 57
1, 298696, Note_on_c, 0, 73, 66
1, 298696, Note_on_c, 0, 43, 0
1, 298699, Note_on_c, 0, 31, 0
1, 298699, Note_on_c, 0, 31, 62
1, 298750, Note_on_c, 0, 73, 0
1, 298750, Note_on_c, 0, 64, 0
1, 298769, Note_on_c, 0, 43, 58
1, 298841, Note_on_c, 0, 65, 61
1, 298841, Note_on_c, 0, 74, 72
1, 298841, Note_on_c, 0, 43, 0
1, 298844, Note_on_c, 0, 31, 0
1, 298844, Note_on_c, 0, 31, 60
1, 298896, Note_on_c, 0, 74, 0
1, 298896, Note_on_c, 0, 65, 0
1, 298914, Note_on_c, 0, 43, 63
1, 298987, Note_on_c, 0, 73, 66
1, 298987, Note_on_c, 0, 76, 77
1, 298987, Note_on_c, 0, 43, 0
1, 298990, Note_on_c, 0, 31, 0
1, 298990, Note_on_c, 0, 31, 64
1, 299042, Note_on_c, 0, 76, 0
1, 299042, Note_on_c, 0, 73, 0
1, 299060, Note_on_c, 0, 43, 64
1, 299132, Note_on_c, 0, 74, 70
1, 299132, Note_on_c, 0, 77, 82
1, 299132, Note_on_c, 0, 43, 0
1, 299135, Note_on_c, 0, 31, 0
1, 299135, Note_on_c, 0, 31, 66
1, 299186, Note_on_c, 0, 77, 0
1, 299186, Note_on_c, 0, 74, 0
1, 299204, Note_on_c, 0, 43, 68
1, 299276, Note_on_c, 0, 76, 73
1, 299276, Note_on_c, 0, 85, 84
1, 299276, Note_on_c, 0, 43, 0
1, 299279, Note_on_c, 0, 31, 0
1, 299279, Note_on_c, 0, 31, 73
1, 299331, Note_on_c, 0, 85, 0
1, 299331, Note_on_c, 0, 76, 0
1, 299349, Note_on_c, 0, 43, 67
1, 299421, Note_on_c, 0, 77, 73
1, 299421, Note_on_c, 0, 86, 84
1, 299421, Note_on_c, 0, 43, 0
1, 299424, Note_on_c, 0, 31, 0
1, 299424, Note_on_c, 0, 31, 80
1, 299476, Note_on_c, 0, 86, 0
1, 299476, Note_on_c, 0, 77, 0
1, 299567, Note_on_c, 0, 85, 88
1, 299567, Note_on_c, 0, 88, 88
1, 299567, Note_on_c, 0, 43, 73
1, 299623, Note_on_c, 0, 88, 0
1, 299623, Note_on_c, 0, 85, 0
1, 299717, Note_on_c, 0, 86, 93
1, 299717, Note_on_c, 0, 89, 93
1, 299717, Note_on_c, 0, 31, 0
1, 299720, Note_on_c, 0, 35, 78
1, 299864, Note_on_c, 0, 43, 0
1, 299864, Note_on_c, 0, 43, 73
1, 300010, Note_on_c, 0, 35, 0
1, 300010, Note_on_c, 0, 36, 78
1, 300156, Note_on_c, 0, 43, 0
1, 300156, Note_on_c, 0, 43, 73
1, 300303, Note_on_c, 0, 89, 0
1, 300303, Note_on_c, 0, 86, 0
1, 300303, Note_on_c, 0, 84, 68
1, 300306, Note_on_c, 0, 89, 68
1, 300306, Note_on_c, 0, 36, 0
1, 300306, Note_on_c, 0, 30, 75
1, 300340, Note_on_c, 0, 89, 0
1, 300340, Note_on_c, 0, 87, 64
1, 300377, Note_on_c, 0, 87, 0
1, 300377, Note_on_c, 0, 89, 64
1, 300415, Note_on_c, 0, 89, 0
1, 300415, Note_on_c, 0, 87, 64
1, 300452, Note_on_c, 0, 87, 0
1, 300452, Note_on_c, 0, 89, 69
1, 300452, Note_on_c, 0, 43, 0
1, 300455, Note_on_c, 0, 43, 73
1, 300489, Note_on_c, 0, 89, 0
1, 300489, Note_on_c, 0, 87, 64
1, 300527, Note_on_c, 0, 87, 0
1, 300527, Note_on_c, 0, 86, 64
1, 300564, Note_on_c, 0, 86, 0
1, 300564, Note_on_c, 0, 87, 64
1, 300601, Note_on_c, 0, 87, 0
1, 300601, Note_on_c, 0, 84, 0
1, 300601, Note_on_c, 0, 83, 69
1, 300604, Note_on_c, 0, 86, 69
1, 300604, Note_on_c, 0, 43, 0
1, 300604, Note_on_c, 0, 30, 0
1, 300607, Note_on_c, 0, 31, 43
1, 300675, Note_on_c, 0, 31, 0
1, 300675, Note_on_c, 0, 43, 43
1, 300749, Note_on_c, 0, 86, 0
1, 300749, Note_on_c, 0, 83, 0
1, 300749, Note_on_c, 0, 43, 0
1, 300752, Note_on_c, 0, 31, 44
1, 300823, Note_on_c, 0, 31, 0
1, 300823, Note_on_c, 0, 43, 44
1, 300897, Note_on_c, 0, 49, 50
1, 300897, Note_on_c, 0, 43, 0
1, 300897, Note_on_c, 0, 31, 44
1, 300970, Note_on_c, 0, 49, 0
1, 300970, Note_on_c, 0, 56, 44
1, 300970, Note_on_c, 0, 31, 0
1, 300973, Note_on_c, 0, 43, 44
1, 301043, Note_on_c, 0, 56, 0
1, 301043, Note_on_c, 0, 52, 44
1, 301043, Note_on_c, 0, 43, 0
1, 301046, Note_on_c, 0, 31, 44
1, 301116, Note_on_c, 0, 52, 0
1, 301116, Note_on_c, 0, 49, 44
1, 301116, Note_on_c, 0, 31, 0
1, 301119, Note_on_c, 0, 43, 44
1, 301189, Note_on_c, 0, 49, 0
1, 301189, Note_on_c, 0, 50, 51
1, 301189, Note_on_c, 0, 43, 0
1, 301192, Note_on_c, 0, 31, 44
1, 301262, Note_on_c, 0, 50, 0
1, 301262, Note_on_c, 0, 56, 44
1, 301262, Note_on_c, 0, 31, 0
1, 301265, Note_on_c, 0, 43, 44
1, 301334, Note_on_c, 0, 56, 0
1, 301334, Note_on_c, 0, 53, 44
1, 301334, Note_on_c, 0, 43, 0
1, 301337, Note_on_c, 0, 31, 44
1, 301407, Note_on_c, 0, 53, 0
1, 301407, Note_on_c, 0, 50, 44
1, 301407, Note_on_c, 0, 31, 0
1, 301410, Note_on_c, 0, 43, 44
1, 301480, Note_on_c, 0, 50, 0
1, 301480, Note_on_c, 0, 48, 51
1, 301480, Note_on_c, 0, 43, 0
1, 301483, Note_on_c, 0, 31, 44
1, 301553, Note_on_c, 0, 48, 0
1, 301553, Note_on_c, 0, 56, 44
1, 301553, Note_on_c, 0, 31, 0
1, 301556, Note_on_c, 0, 43, 44
1, 301626, Note_on_c, 0, 56, 0
1, 301626, Note_on_c, 0, 51, 44
1, 301626, Note_on_c, 0, 43, 0
1, 301629, Note_on_c, 0, 31, 44
1, 301699, Note_on_c, 0, 51, 0
1, 301699, Note_on_c, 0, 48, 44
1, 301699, Note_on_c, 0, 31, 0
1, 301702, Note_on_c, 0, 43, 44
1, 301772, Note_on_c, 0, 48, 0
1, 301772, Note_on_c, 0, 47, 50
1, 301772, Note_on_c, 0, 43, 0
1, 301775, Note_on_c, 0, 31, 43
1, 301845, Note_on_c, 0, 47, 0
1, 301845, Note_on_c, 0, 55, 44
1, 301845, Note_on_c, 0, 31, 0
1, 301848, Note_on_c, 0, 43, 43
1, 301918, Note_on_c, 0, 55, 0
1, 301918, Note_on_c, 0, 50, 44
1, 301918, Note_on_c, 0, 43, 0
1, 301921, Note_on_c, 0, 31, 43
1, 301991, Note_on_c, 0, 50, 0
1, 301991, Note_on_c, 0, 47, 44
1, 301991, Note_on_c, 0, 31, 0
1, 301994, Note_on_c, 0, 43, 43
1, 302067, Note_on_c, 0, 47, 0
1, 302067, Note_on_c, 0, 49, 50
1, 302067, Note_on_c, 0, 43, 0
1, 302070, Note_on_c, 0, 31, 43
1, 302140, Note_on_c, 0, 49, 0
1, 302140, Note_on_c, 0, 56, 44
1, 302140, Note_on_c, 0, 31, 0
1, 302143, Note_on_c, 0, 43, 43
1, 302213, Note_on_c, 0, 56, 0
1, 302213, Note_on_c, 0, 52, 44
1, 302213, Note_on_c, 0, 43, 0
1, 302216, Note_on_c, 0, 31, 43
1, 302286, Note_on_c, 0, 52, 0
1, 302286, Note_on_c, 0, 49, 44
1, 302286, Note_on_c, 0, 31, 0
1, 302289, Note_on_c, 0, 43, 43
1, 302359, Note_on_c, 0, 49, 0
1, 302359, Note_on_c, 0, 50, 50
1, 302359, Note_on_c, 0, 43, 0
1, 302362, Note_on_c, 0, 31, 43
1, 302432, Note_on_c, 0, 50, 0
1, 302432, Note_on_c, 0, 56, 44
1, 302432, Note_on_c, 0, 31, 0
1, 302435, Note_on_c, 0, 43, 43
1, 302505, Note_on_c, 0, 56, 0
1, 302505, Note_on_c, 0, 53, 44
1, 302505, Note_on_c, 0, 43, 0
1, 302508, Note_on_c, 0, 31, 43
1, 302578, Note_on_c, 0, 53, 0
1, 302578, Note_on_c, 0, 50, 44
1, 302578, Note_on_c, 0, 31, 0
1, 302581, Note_on_c, 0, 43, 43
1, 302651, Note_on_c, 0, 50, 0
1, 302651, Note_on_c, 0, 48, 49
1, 302651, Note_on_c, 0, 43, 0
1, 302654, Note_on_c, 0, 31, 43
1, 302724, Note_on_c, 0, 48, 0
1, 302724, Note_on_c, 0, 56, 44
1, 302724, Note_on_c, 0, 31, 0
1, 302727, Note_on_c, 0, 43, 43
1, 302797, Note_on_c, 0, 56, 0
1, 302797, Note_on_c, 0, 51, 44
1, 302797, Note_on_c, 0, 43, 0
1, 302800, Note_on_c, 0, 31, 43
1, 302870, Note_on_c, 0, 51, 0
1, 302870, Note_on_c, 0, 48, 44
1, 302870, Note_on_c, 0, 31, 0
1, 302873, Note_on_c, 0, 43, 43
1, 302946, Note_on_c, 0, 48, 0
1, 302946, Note_on_c, 0, 47, 44
1, 302946, Note_on_c, 0, 50, 44
1, 302949, Note_on_c, 0, 55, 44
1, 302949, Note_on_c, 0, 43, 0
1, 302949, Note_on_c, 0, 31, 65
1, 303020, Note_on_c, 0, 43, 60
1, 303094, Note_on_c, 0, 55, 0
1, 303094, Note_on_c, 0, 50, 0
1, 303094, Note_on_c, 0, 47, 0
1, 303097, Note_on_c, 0, 64, 65
1, 303097, Note_on_c, 0, 43, 0
1, 303097, Note_on_c, 0, 31, 0
1, 303100, Note_on_c, 0, 31, 63
1, 303149, Note_on_c, 0, 64, 0
1, 303167, Note_on_c, 0, 43, 57
1, 303240, Note_on_c, 0, 65, 68
1, 303240, Note_on_c, 0, 43, 0
1, 303240, Note_on_c, 0, 31, 0
1, 303243, Note_on_c, 0, 31, 63
1, 303295, Note_on_c, 0, 65, 0
1, 303313, Note_on_c, 0, 43, 57
1, 303386, Note_on_c, 0, 64, 57
1, 303386, Note_on_c, 0, 73, 66
1, 303386, Note_on_c, 0, 43, 0
1, 303389, Note_on_c, 0, 31, 0
1, 303389, Note_on_c, 0, 31, 62
1, 303441, Note_on_c, 0, 73, 0
1, 303441, Note_on_c, 0, 64, 0
1, 303459, Note_on_c, 0, 43, 58
1, 303532, Note_on_c, 0, 65, 61
1, 303532, Note_on_c, 0, 74, 72
1, 303532, Note_on_c, 0, 43, 0
1, 303535, Note_on_c, 0, 31, 0
1, 303535, Note_on_c, 0, 31, 60
1, 303587, Note_on_c, 0, 74, 0
1, 303587, Note_on_c, 0, 65, 0
1, 303605, Note_on_c, 0, 43, 63
1, 303678, Note_on_c, 0, 73, 66
1, 303678, Note_on_c, 0, 76, 77
1, 303678, Note_on_c, 0, 43, 0
1, 303681, Note_on_c, 0, 31, 0
1, 303681, Note_on_c, 0, 31, 64
1, 303732, Note_on_c, 0, 76, 0
1, 303732, Note_on_c, 0, 73, 0
1, 303750, Note_on_c, 0, 43, 64
1, 303822, Note_on_c, 0, 74, 70
1, 303822, Note_on_c, 0, 77, 82
1, 303822, Note_on_c, 0, 43, 0
1, 303825, Note_on_c, 0, 31, 0
1, 303825, Note_on_c, 0, 31, 66
1, 303877, Note_on_c, 0, 77, 0
1, 303877, Note_on_c, 0, 74, 0
1, 303895, Note_on_c, 0, 43, 68
1, 303967, Note_on_c, 0, 76, 73
1, 303967, Note_on_c, 0, 85, 84
1, 303967, Note_on_c, 0, 43, 0
1, 303970, Note_on_c, 0, 31, 0
1, 303970, Note_on_c, 0, 31, 73
1, 304021, Note_on_c, 0, 85, 0
1, 304021, Note_on_c, 0, 76, 0
1, 304039, Note_on_c, 0, 43, 67
1, 304111, Note_on_c, 0, 77, 73
1, 304111, Note_on_c, 0, 86, 84
1, 304111, Note_on_c, 0, 43, 0
1, 304114, Note_on_c, 0, 31, 0
1, 304114, Note_on_c, 0, 31, 80
1, 304166, Note_on_c, 0, 86, 0
1, 304166, Note_on_c, 0, 77, 0
1, 304258, Note_on_c, 0, 85, 88
1, 304258, Note_on_c, 0, 88, 88
1, 304258, Note_on_c, 0, 43, 73
1, 304314, Note_on_c, 0, 88, 0
1, 304314, Note_on_c, 0, 85, 0
1, 304408, Note_on_c, 0, 86, 93
1, 304408, Note_on_c, 0, 89, 93
1, 304408, Note_on_c, 0, 31, 0
1, 304411, Note_on_c, 0, 35, 78
1, 304554, Note_on_c, 0, 43, 0
1, 304554, Note_on_c, 0, 43, 73
1, 304701, Note_on_c, 0, 35, 0
1, 304701, Note_on_c, 0, 36, 78
1, 304847, Note_on_c, 0, 43, 0
1, 304847, Note_on_c, 0, 43, 73
1, 304993, Note_on_c, 0, 89, 0
1, 304993, Note_on_c, 0, 86, 0
1, 304993, Note_on_c, 0, 84, 68
1, 304996, Note_on_c, 0, 89, 68
1, 304996, Note_on_c, 0, 36, 0
1, 304996, Note_on_c, 0, 30, 75
1, 305031, Note_on_c, 0, 89, 0
1, 305031, Note_on_c, 0, 87, 64
1, 305068, Note_on_c, 0, 87, 0
1, 305068, Note_on_c, 0, 89, 64
1, 305105, Note_on_c, 0, 89, 0
1, 305105, Note_on_c, 0, 87, 64
1, 305143, Note_on_c, 0, 87, 0
1, 305143, Note_on_c, 0, 89, 69
1, 305143, Note_on_c, 0, 43, 0
1, 305146, Note_on_c, 0, 43, 73
1, 305180, Note_on_c, 0, 89, 0
1, 305180, Note_on_c, 0, 87, 64
1, 305217, Note_on_c, 0, 87, 0
1, 305217, Note_on_c, 0, 86, 64
1, 305255, Note_on_c, 0, 86, 0
1, 305255, Note_on_c, 0, 87, 64
1, 305292, Note_on_c, 0, 87, 0
1, 305292, Note_on_c, 0, 84, 0
1, 305292, Note_on_c, 0, 83, 73
1, 305295, Note_on_c, 0, 86, 84
1, 305295, Note_on_c, 0, 43, 0
1, 305295, Note_on_c, 0, 30, 0
1, 305298, Note_on_c, 0, 31, 80
1, 305347, Note_on_c, 0, 86, 0
1, 305347, Note_on_c, 0, 83, 0
1, 305438, Note_on_c, 0, 85, 88
1, 305438, Note_on_c, 0, 88, 88
1, 305438, Note_on_c, 0, 43, 73
1, 305495, Note_on_c, 0, 88, 0
1, 305495, Note_on_c, 0, 85, 0
1, 305588, Note_on_c, 0, 86, 93
1, 305588, Note_on_c, 0, 89, 93
1, 305588, Note_on_c, 0, 31, 0
1, 305591, Note_on_c, 0, 35, 78
1, 305735, Note_on_c, 0, 43, 0
1, 305735, Note_on_c, 0, 43, 73
1, 305881, Note_on_c, 0, 35, 0
1, 305881, Note_on_c, 0, 36, 78
1, 306028, Note_on_c, 0, 43, 0
1, 306028, Note_on_c, 0, 43, 73
1, 306174, Note_on_c, 0, 89, 0
1, 306174, Note_on_c, 0, 86, 0
1, 306174, Note_on_c, 0, 84, 68
1, 306177, Note_on_c, 0, 89, 68
1, 306177, Note_on_c, 0, 36, 0
1, 306177, Note_on_c, 0, 30, 75
1, 306211, Note_on_c, 0, 89, 0
1, 306211, Note_on_c, 0, 87, 64
1, 306249, Note_on_c, 0, 87, 0
1, 306249, Note_on_c, 0, 89, 64
1, 306286, Note_on_c, 0, 89, 0
1, 306286, Note_on_c, 0, 87, 64
1, 306323, Note_on_c, 0, 87, 0
1, 306323, Note_on_c, 0, 89, 69
1, 306323, Note_on_c, 0, 43, 0
1, 306326, Note_on_c, 0, 43, 73
1, 306360, Note_on_c, 0, 89, 0
1, 306360, Note_on_c, 0, 87, 64
1, 306398, Note_on_c, 0, 87, 0
1, 306398, Note_on_c, 0, 86, 64
1, 306435, Note_on_c, 0, 86, 0
1, 306435, Note_on_c, 0, 87, 64
1, 306472, Note_on_c, 0, 87, 0
1, 306472, Note_on_c, 0, 84, 0
1, 306472, Note_on_c, 0, 83, 73
1, 306475, Note_on_c, 0, 86, 84
1, 306475, Note_on_c, 0, 43, 0
1, 306475, Note_on_c, 0, 30, 0
1, 306478, Note_on_c, 0, 31, 80
1, 306527, Note_on_c, 0, 86, 0
1, 306527, Note_on_c, 0, 83, 0
1, 306619, Note_on_c, 0, 85, 88
1, 306619, Note_on_c, 0, 88, 88
1, 306619, Note_on_c, 0, 43, 73
1, 306675, Note_on_c, 0, 88, 0
1, 306675, Note_on_c, 0, 85, 0
1, 306769, Note_on_c, 0, 86, 93
1, 306769, Note_on_c, 0, 89, 93
1, 306769, Note_on_c, 0, 31, 0
1, 306772, Note_on_c, 0, 35, 78
1, 306915, Note_on_c, 0, 43, 0
1, 306915, Note_on_c, 0, 43, 73
1, 307062, Note_on_c, 0, 35, 0
1, 307062, Note_on_c, 0, 36, 78
1, 307208, Note_on_c, 0, 43, 0
1, 307208, Note_on_c, 0, 43, 73
1, 307354, Note_on_c, 0, 89, 0
1, 307354, Note_on_c, 0, 86, 0
1, 307354, Note_on_c, 0, 84, 68
1, 307357, Note_on_c, 0, 89, 68
1, 307357, Note_on_c, 0, 36, 0
1, 307357, Note_on_c, 0, 30, 75
1, 307392, Note_on_c, 0, 89, 0
1, 307392, Note_on_c, 0, 87, 64
1, 307429, Note_on_c, 0, 87, 0
1, 307429, Note_on_c, 0, 89, 64
1, 307466, Note_on_c, 0, 89, 0
1, 307466, Note_on_c, 0, 87, 64
1, 307504, Note_on_c, 0, 87, 0
1, 307504, Note_on_c, 0, 89, 69
1, 307504, Note_on_c, 0, 43, 0
1, 307507, Note_on_c, 0, 43, 73
1, 307541, Note_on_c, 0, 89, 0
1, 307541, Note_on_c, 0, 87, 64
1, 307578, Note_on_c, 0, 87, 0
1, 307578, Note_on_c, 0, 86, 64
1, 307616, Note_on_c, 0, 86, 0
1, 307616, Note_on_c, 0, 87, 64
1, 307653, Note_on_c, 0, 87, 0
1, 307653, Note_on_c, 0, 84, 0
1, 307653, Note_on_c, 0, 83, 68
1, 307656, Note_on_c, 0, 86, 68
1, 307656, Note_on_c, 0, 43, 0
1, 307656, Note_on_c, 0, 30, 0
1, 307726, Note_on_c, 0, 86, 0
1, 307726, Note_on_c, 0, 83, 0
1, 307726, Note_on_c, 0, 89, 63
1, 307799, Note_on_c, 0, 89, 0
1, 307799, Note_on_c, 0, 86, 64
1, 307872, Note_on_c, 0, 86, 0
1, 307872, Note_on_c, 0, 84, 64
1, 307946, Note_on_c, 0, 84, 0
1, 307946, Note_on_c, 0, 83, 68
1, 308019, Note_on_c, 0, 83, 0
1, 308019, Note_on_c, 0, 89, 63
1, 308092, Note_on_c, 0, 89, 0
1, 308092, Note_on_c, 0, 86, 63
1, 308165, Note_on_c, 0, 86, 0
1, 308165, Note_on_c, 0, 84, 63
1, 308238, Note_on_c, 0, 84, 0
1, 308238, Note_on_c, 0, 83, 68
1, 308311, Note_on_c, 0, 83, 0
1, 308311, Note_on_c, 0, 89, 65
1, 308385, Note_on_c, 0, 89, 0
1, 308385, Note_on_c, 0, 86, 65
1, 308458, Note_on_c, 0, 86, 0
1, 308458, Note_on_c, 0, 84, 65
1, 308531, Note_on_c, 0, 84, 0
1, 308531, Note_on_c, 0, 83, 68
1, 308604, Note_on_c, 0, 83, 0
1, 308604, Note_on_c, 0, 86, 65
1, 308677, Note_on_c, 0, 86, 0
1, 308677, Note_on_c, 0, 83, 65
1, 308751, Note_on_c, 0, 83, 0
1, 308751, Note_on_c, 0, 79, 65
1, 308824, Note_on_c, 0, 79, 0
1, 308824, Note_on_c, 0, 80, 68
1, 308897, Note_on_c, 0, 80, 0
1, 308897, Note_on_c, 0, 82, 65
1, 308970, Note_on_c, 0, 82, 0
1, 308970, Note_on_c, 0, 80, 65
1, 309043, Note_on_c, 0, 80, 0
1, 309043, Note_on_c, 0, 79, 65
1, 309116, Note_on_c, 0, 79, 0
1, 309116, Note_on_c, 0, 77, 68
1, 309190, Note_on_c, 0, 77, 0
1, 309190, Note_on_c, 0, 80, 65
1, 309263, Note_on_c, 0, 80, 0
1, 309263, Note_on_c, 0, 77, 65
1, 309336, Note_on_c, 0, 77, 0
1, 309336, Note_on_c, 0, 75, 65
1, 309409, Note_on_c, 0, 75, 0
1, 309409, Note_on_c, 0, 74, 68
1, 309482, Note_on_c, 0, 74, 0
1, 309482, Note_on_c, 0, 77, 64
1, 309555, Note_on_c, 0, 77, 0
1, 309555, Note_on_c, 0, 74, 64
1, 309629, Note_on_c, 0, 74, 0
1, 309629, Note_on_c, 0, 72, 64
1, 309702, Note_on_c, 0, 72, 0
1, 309702, Note_on_c, 0, 71, 68
1, 309775, Note_on_c, 0, 71, 0
1, 309775, Note_on_c, 0, 74, 64
1, 309848, Note_on_c, 0, 74, 0
1, 309848, Note_on_c, 0, 71, 64
1, 309921, Note_on_c, 0, 71, 0
1, 309921, Note_on_c, 0, 67, 64
1, 309994, Note_on_c, 0, 67, 0
1, 309994, Note_on_c, 0, 68, 68
1, 310068, Note_on_c, 0, 68, 0
1, 310068, Note_on_c, 0, 70, 65
1, 310141, Note_on_c, 0, 70, 0
1, 310141, Note_on_c, 0, 68, 65
1, 310214, Note_on_c, 0, 68, 0
1, 310214, Note_on_c, 0, 67, 65
1, 310287, Note_on_c, 0, 67, 0
1, 310287, Note_on_c, 0, 65, 68
1, 310360, Note_on_c, 0, 65, 0
1, 310360, Note_on_c, 0, 68, 68
1, 310433, Note_on_c, 0, 68, 0
1, 310433, Note_on_c, 0, 65, 65
1, 310507, Note_on_c, 0, 65, 0
1, 310507, Note_on_c, 0, 63, 65
1, 310580, Note_on_c, 0, 63, 0
1, 310580, Note_on_c, 0, 62, 68
1, 310653, Note_on_c, 0, 62, 0
1, 310653, Note_on_c, 0, 65, 65
1, 310726, Note_on_c, 0, 65, 0
1, 310726, Note_on_c, 0, 62, 65
1, 310799, Note_on_c, 0, 62, 0
1, 310799, Note_on_c, 0, 60, 65
1, 310873, Note_on_c, 0, 60, 0
1, 310873, Note_on_c, 0, 59, 68
1, 310946, Note_on_c, 0, 59, 0
1, 310946, Note_on_c, 0, 62, 65
1, 311019, Note_on_c, 0, 62, 0
1, 311019, Note_on_c, 0, 59, 65
1, 311092, Note_on_c, 0, 59, 0
1, 311092, Note_on_c, 0, 55, 65
1, 311165, Note_on_c, 0, 55, 0
1, 311165, Note_on_c, 0, 56, 68
1, 311238, Note_on_c, 0, 56, 0
1, 311238, Note_on_c, 0, 58, 64
1, 311312, Note_on_c, 0, 58, 0
1, 311312, Note_on_c, 0, 56, 64
1, 311385, Note_on_c, 0, 56, 0
1, 311385, Note_on_c, 0, 55, 64
1, 311458, Note_on_c, 0, 55, 0
1, 311458, Note_on_c, 0, 53, 68
1, 311531, Note_on_c, 0, 53, 0
1, 311531, Note_on_c, 0, 51, 63
1, 311604, Note_on_c, 0, 51, 0
1, 311604, Note_on_c, 0, 50, 63
1, 311677, Note_on_c, 0, 50, 0
1, 311677, Note_on_c, 0, 48, 63
1, 311751, Note_on_c, 0, 48, 0
1, 311751, Note_on_c, 0, 47, 68
1, 311824, Note_on_c, 0, 47, 0
1, 311824, Note_on_c, 0, 48, 65
1, 311897, Note_on_c, 0, 48, 0
1, 311897, Note_on_c, 0, 47, 65
1, 311970, Note_on_c, 0, 47, 0
1, 311970, Note_on_c, 0, 44, 66
1, 312043, Note_on_c, 0, 44, 0
1, 312043, Note_on_c, 0, 43, 68
1, 312116, Note_on_c, 0, 43, 0
1, 312116, Note_on_c, 0, 41, 65
1, 312190, Note_on_c, 0, 41, 0
1, 312190, Note_on_c, 0, 39, 65
1, 312263, Note_on_c, 0, 39, 0
1, 312263, Note_on_c, 0, 38, 65
1, 312336, Note_on_c, 0, 38, 0
1, 312336, Note_on_c, 0, 60, 60
1, 312336, Note_on_c, 0, 36, 54
1, 312398, Control_c, 0, 64, 127
1, 312413, Note_on_c, 0, 48, 51
1, 312489, Note_on_c, 0, 48, 0
1, 312489, Note_on_c, 0, 36, 0
1, 312489, Note_on_c, 0, 36, 54
1, 312564, Note_on_c, 0, 48, 51
1, 312639, Note_on_c, 0, 48, 0
1, 312639, Note_on_c, 0, 36, 0
1, 312639, Note_on_c, 0, 36, 54
1, 312713, Note_on_c, 0, 48, 51
1, 312752, Control_c, 0, 64, 0
1, 312787, Note_on_c, 0, 60, 0
1, 312787, Note_on_c, 0, 58, 62
1, 312787, Note_on_c, 0, 64, 62
1, 312790, Note_on_c, 0, 48, 0
1, 312790, Note_on_c, 0, 36, 0
1, 312790, Note_on_c, 0, 36, 55
1, 312842, Note_on_c, 0, 64, 0
1, 312842, Note_on_c, 0, 58, 0
1, 312861, Note_on_c, 0, 48, 51
1, 312934, Note_on_c, 0, 56, 64
1, 312934, Note_on_c, 0, 65, 64
1, 312934, Note_on_c, 0, 48, 0
1, 312937, Note_on_c, 0, 36, 0
1, 312937, Note_on_c, 0, 36, 55
1, 312988, Note_on_c, 0, 65, 0
1, 312988, Note_on_c, 0, 56, 0
1, 313007, Note_on_c, 0, 48, 56
1, 313080, Note_on_c, 0, 64, 66
1, 313080, Note_on_c, 0, 67, 66
1, 313080, Note_on_c, 0, 48, 0
1, 313083, Note_on_c, 0, 36, 0
1, 313083, Note_on_c, 0, 36, 57
1, 313134, Note_on_c, 0, 67, 0
1, 313134, Note_on_c, 0, 64, 0
1, 313152, Note_on_c, 0, 48, 57
1, 313224, Note_on_c, 0, 65, 67
1, 313224, Note_on_c, 0, 68, 67
1, 313224, Note_on_c, 0, 48, 0
1, 313227, Note_on_c, 0, 36, 0
1, 313227, Note_on_c, 0, 36, 59
1, 313278, Note_on_c, 0, 68, 0
1, 313278, Note_on_c, 0, 65, 0
1, 313296, Note_on_c, 0, 48, 60
1, 313368, Note_on_c, 0, 62, 69
1, 313368, Note_on_c, 0, 71, 69
1, 313368, Note_on_c, 0, 48, 0
1, 313371, Note_on_c, 0, 36, 0
1, 313371, Note_on_c, 0, 36, 61
1, 313422, Note_on_c, 0, 71, 0
1, 313422, Note_on_c, 0, 62, 0
1, 313441, Note_on_c, 0, 48, 63
1, 313514, Note_on_c, 0, 63, 72
1, 313514, Note_on_c, 0, 72, 72
1, 313514, Note_on_c, 0, 48, 0
1, 313517, Note_on_c, 0, 36, 0
1, 313517, Note_on_c, 0, 36, 65
1, 313572, Note_on_c, 0, 72, 0
1, 313572, Note_on_c, 0, 63, 0
1, 313591, Note_on_c, 0, 48, 60
1, 313665, Control_c, 0, 64, 127
1, 313669, Note_on_c, 0, 64, 65
1, 313669, Note_on_c, 0, 72, 65
1, 313669, Note_on_c, 0, 48, 0
1, 313672, Note_on_c, 0, 36, 0
1, 313672, Note_on_c, 0, 36, 63
1, 313742, Note_on_c, 0, 48, 57
1, 313815, Note_on_c, 0, 48, 0
1, 313815, Note_on_c, 0, 36, 0
1, 313815, Note_on_c, 0, 36, 63
1, 313888, Note_on_c, 0, 48, 57
1, 313961, Note_on_c, 0, 72, 0
1, 313961, Note_on_c, 0, 64, 0
1, 313961, Note_on_c, 0, 70, 61
1, 313964, Note_on_c, 0, 76, 61
1, 313964, Note_on_c, 0, 48, 0
1, 313964, Note_on_c, 0, 36, 0
1, 313967, Control_c, 0, 64, 0
1, 313967, Note_on_c, 0, 36, 54
1, 314016, Note_on_c, 0, 76, 0
1, 314016, Note_on_c, 0, 70, 0
1, 314034, Note_on_c, 0, 48, 50
1, 314107, Note_on_c, 0, 68, 63
1, 314107, Note_on_c, 0, 77, 63
1, 314107, Note_on_c, 0, 48, 0
1, 314110, Note_on_c, 0, 36, 0
1, 314110, Note_on_c, 0, 36, 53
1, 314162, Note_on_c, 0, 77, 0
1, 314162, Note_on_c, 0, 68, 0
1, 314180, Note_on_c, 0, 48, 55
1, 314253, Note_on_c, 0, 76, 65
1, 314253, Note_on_c, 0, 79, 65
1, 314253, Note_on_c, 0, 48, 0
1, 314256, Note_on_c, 0, 36, 0
1, 314256, Note_on_c, 0, 36, 56
1, 314307, Note_on_c, 0, 79, 0
1, 314307, Note_on_c, 0, 76, 0
1, 314325, Note_on_c, 0, 48, 57
1, 314397, Note_on_c, 0, 77, 67
1, 314397, Note_on_c, 0, 80, 67
1, 314397, Note_on_c, 0, 48, 0
1, 314400, Note_on_c, 0, 36, 0
1, 314400, Note_on_c, 0, 36, 58
1, 314451, Note_on_c, 0, 80, 0
1, 314451, Note_on_c, 0, 77, 0
1, 314469, Note_on_c, 0, 48, 60
1, 314542, Note_on_c, 0, 74, 69
1, 314542, Note_on_c, 0, 83, 69
1, 314542, Note_on_c, 0, 48, 0
1, 314545, Note_on_c, 0, 36, 0
1, 314545, Note_on_c, 0, 36, 61
1, 314596, Note_on_c, 0, 83, 0
1, 314596, Note_on_c, 0, 74, 0
1, 314614, Note_on_c, 0, 48, 63
1, 314686, Note_on_c, 0, 72, 61
1, 314686, Note_on_c, 0, 79, 72
1, 314686, Note_on_c, 0, 75, 61
1, 314689, Note_on_c, 0, 84, 72
1, 314689, Note_on_c, 0, 48, 0
1, 314689, Note_on_c, 0, 36, 0
1, 314692, Note_on_c, 0, 36, 65
1, 314721, Control_c, 0, 64, 127
1, 314760, Note_on_c, 0, 48, 60
1, 314835, Note_on_c, 0, 48, 0
1, 314835, Note_on_c, 0, 36, 0
1, 314835, Note_on_c, 0, 36, 63
1, 314908, Note_on_c, 0, 48, 57
1, 314982, Note_on_c, 0, 84, 0
1, 314982, Note_on_c, 0, 72, 0
1, 314982, Note_on_c, 0, 79, 0
1, 314985, Note_on_c, 0, 75, 0
1, 314985, Note_on_c, 0, 67, 63
1, 314985, Note_on_c, 0, 71, 63
1, 314988, Note_on_c, 0, 77, 74
1, 314988, Note_on_c, 0, 79, 74
1, 314988, Note_on_c, 0, 48, 0
1, 314991, Note_on_c, 0, 36, 0
1, 314991, Note_on_c, 0, 38, 65
1, 314991, Control_c, 0, 64, 0
1, 315038, Control_c, 0, 64, 127
1, 315055, Note_on_c, 0, 50, 60
1, 315129, Note_on_c, 0, 50, 0
1, 315129, Note_on_c, 0, 38, 0
1, 315129, Note_on_c, 0, 38, 65
1, 315204, Note_on_c, 0, 50, 61
1, 315280, Note_on_c, 0, 79, 0
1, 315280, Note_on_c, 0, 67, 0
1, 315280, Note_on_c, 0, 71, 0
1, 315283, Note_on_c, 0, 77, 0
1, 315283, Note_on_c, 0, 67, 66
1, 315283, Note_on_c, 0, 72, 66
1, 315286, Note_on_c, 0, 75, 78
1, 315286, Note_on_c, 0, 50, 0
1, 315286, Note_on_c, 0, 38, 0
1, 315289, Note_on_c, 0, 39, 65
1, 315289, Control_c, 0, 64, 0
1, 315319, Control_c, 0, 64, 127
1, 315354, Note_on_c, 0, 51, 65
1, 315428, Note_on_c, 0, 51, 0
1, 315428, Note_on_c, 0, 39, 0
1, 315428, Note_on_c, 0, 39, 65
1, 315502, Note_on_c, 0, 51, 65
1, 315576, Note_on_c, 0, 75, 0
1, 315576, Note_on_c, 0, 72, 0
1, 315576, Note_on_c, 0, 67, 0
1, 315579, Note_on_c, 0, 65, 70
1, 315579, Note_on_c, 0, 68, 70
1, 315579, Note_on_c, 0, 74, 82
1, 315582, Note_on_c, 0, 51, 0
1, 315582, Note_on_c, 0, 39, 0
1, 315582, Note_on_c, 0, 41, 65
1, 315582, Control_c, 0, 64, 0
1, 315624, Control_c, 0, 64, 127
1, 315650, Note_on_c, 0, 53, 63
1, 315724, Note_on_c, 0, 53, 0
1, 315724, Note_on_c, 0, 41, 0
1, 315724, Note_on_c, 0, 41, 65
1, 315799, Note_on_c, 0, 53, 65
1, 315874, Note_on_c, 0, 74, 0
1, 315874, Note_on_c, 0, 68, 0
1, 315874, Note_on_c, 0, 65, 0
1, 315877, Note_on_c, 0, 63, 73
1, 315877, Note_on_c, 0, 67, 85
1, 315877, Note_on_c, 0, 72, 85
1, 315880, Note_on_c, 0, 53, 0
1, 315880, Note_on_c, 0, 41, 0
1, 315880, Note_on_c, 0, 43, 66
1, 315880, Control_c, 0, 64, 0
1, 315919, Control_c, 0, 64, 127
1, 315950, Note_on_c, 0, 55, 66
1, 316025, Note_on_c, 0, 55, 0
1, 316025, Note_on_c, 0, 43, 0
1, 316025, Note_on_c, 0, 43, 67
1, 316100, Note_on_c, 0, 55, 67
1, 316175, Note_on_c, 0, 67, 0
1, 316175, Note_on_c, 0, 66, 85
1, 316175, Note_on_c, 0, 55, 0
1, 316178, Note_on_c, 0, 43, 0
1, 316178, Note_on_c, 0, 44, 68
1, 316178, Control_c, 0, 64, 0
1, 316220, Control_c, 0, 64, 127
1, 316251, Note_on_c, 0, 56, 69
1, 316326, Note_on_c, 0, 56, 0
1, 316326, Note_on_c, 0, 44, 0
1, 316326, Note_on_c, 0, 44, 69
1, 316401, Note_on_c, 0, 56, 70
1, 316476, Note_on_c, 0, 66, 0
1, 316476, Note_on_c, 0, 69, 88
1, 316476, Note_on_c, 0, 56, 0
1, 316479, Note_on_c, 0, 44, 0
1, 316479, Note_on_c, 0, 42, 70
1, 316479, Control_c, 0, 64, 0
1, 316505, Control_c, 0, 64, 127
1, 316552, Note_on_c, 0, 54, 65
1, 316627, Note_on_c, 0, 54, 0
1, 316627, Note_on_c, 0, 42, 0
1, 316627, Note_on_c, 0, 42, 72
1, 316702, Note_on_c, 0, 54, 65
1, 316777, Note_on_c, 0, 69, 0
1, 316777, Note_on_c, 0, 72, 0
1, 316777, Note_on_c, 0, 63, 0
1, 316780, Note_on_c, 0, 62, 73
1, 316780, Note_on_c, 0, 65, 73
1, 316780, Note_on_c, 0, 71, 85
1, 316783, Note_on_c, 0, 54, 0
1, 316783, Note_on_c, 0, 42, 0
1, 316783, Note_on_c, 0, 43, 68
1, 316783, Control_c, 0, 64, 0
1, 316813, Control_c, 0, 64, 127
1, 316853, Note_on_c, 0, 55, 65
1, 316928, Note_on_c, 0, 55, 0
1, 316928, Note_on_c, 0, 43, 0
1, 316928, Note_on_c, 0, 43, 68
1, 317003, Note_on_c, 0, 55, 65
1, 317078, Note_on_c, 0, 71, 0
1, 317078, Note_on_c, 0, 65, 0
1, 317078, Note_on_c, 0, 62, 0
1, 317081, Note_on_c, 0, 60, 78
1, 317081, Note_on_c, 0, 63, 78
1, 317081, Note_on_c, 0, 72, 90
1, 317084, Note_on_c, 0, 55, 0
1, 317084, Note_on_c, 0, 43, 0
1, 317084, Note_on_c, 0, 36, 58
1, 317087, Control_c, 0, 64, 0
1, 317136, Note_on_c, 0, 72, 0
1, 317136, Note_on_c, 0, 63, 0
1, 317136, Note_on_c, 0, 60, 0
1, 317155, Note_on_c, 0, 48, 55
1, 317231, Note_on_c, 0, 60, 78
1, 317231, Note_on_c, 0, 48, 0
1, 317231, Note_on_c, 0, 36, 0
1, 317234, Note_on_c, 0, 36, 54
1, 317234, Control_c, 0, 64, 127
1, 317307, Note_on_c, 0, 48, 51
1, 317382, Note_on_c, 0, 48, 0
1, 317382, Note_on_c, 0, 36, 0
1, 317382, Note_on_c, 0, 36, 54
1, 317456, Note_on_c, 0, 48, 50
1, 317495, Control_c, 0, 64, 0
1, 317530, Note_on_c, 0, 60, 0
1, 317530, Note_on_c, 0, 58, 62
1, 317530, Note_on_c, 0, 64, 62
1, 317533, Note_on_c, 0, 48, 0
1, 317533, Note_on_c, 0, 36, 0
1, 317533, Note_on_c, 0, 36, 54
1, 317585, Note_on_c, 0, 64, 0
1, 317585, Note_on_c, 0, 58, 0
1, 317603, Note_on_c, 0, 48, 51
1, 317676, Note_on_c, 0, 56, 64
1, 317676, Note_on_c, 0, 65, 64
1, 317676, Note_on_c, 0, 48, 0
1, 317679, Note_on_c, 0, 36, 0
1, 317679, Note_on_c, 0, 36, 54
1, 317731, Note_on_c, 0, 65, 0
1, 317731, Note_on_c, 0, 56, 0
1, 317749, Note_on_c, 0, 48, 56
1, 317822, Note_on_c, 0, 64, 65
1, 317822, Note_on_c, 0, 67, 65
1, 317822, Note_on_c, 0, 48, 0
1, 317825, Note_on_c, 0, 36, 0
1, 317825, Note_on_c, 0, 36, 57
1, 317876, Note_on_c, 0, 67, 0
1, 317876, Note_on_c, 0, 64, 0
1, 317894, Note_on_c, 0, 48, 57
1, 317966, Note_on_c, 0, 65, 67
1, 317966, Note_on_c, 0, 68, 67
1, 317966, Note_on_c, 0, 48, 0
1, 317969, Note_on_c, 0, 36, 0
1, 317969, Note_on_c, 0, 36, 59
1, 318020, Note_on_c, 0, 68, 0
1, 318020, Note_on_c, 0, 65, 0
1, 318038, Note_on_c, 0, 48, 60
1, 318110, Note_on_c, 0, 62, 69
1, 318110, Note_on_c, 0, 71, 69
1, 318110, Note_on_c, 0, 48, 0
1, 318113, Note_on_c, 0, 36, 0
1, 318113, Note_on_c, 0, 36, 61
1, 318164, Note_on_c, 0, 71, 0
1, 318164, Note_on_c, 0, 62, 0
1, 318182, Note_on_c, 0, 48, 63
1, 318254, Note_on_c, 0, 63, 72
1, 318254, Note_on_c, 0, 72, 72
1, 318254, Note_on_c, 0, 48, 0
1, 318257, Note_on_c, 0, 36, 0
1, 318257, Note_on_c, 0, 36, 65
1, 318312, Note_on_c, 0, 72, 0
1, 318312, Note_on_c, 0, 63, 0
1, 318332, Note_on_c, 0, 48, 60
1, 318405, Control_c, 0, 64, 127
1, 318409, Note_on_c, 0, 64, 65
1, 318409, Note_on_c, 0, 72, 65
1, 318409, Note_on_c, 0, 48, 0
1, 318412, Note_on_c, 0, 36, 0
1, 318412, Note_on_c, 0, 36, 63
1, 318482, Note_on_c, 0, 48, 57
1, 318555, Note_on_c, 0, 48, 0
1, 318555, Note_on_c, 0, 36, 0
1, 318555, Note_on_c, 0, 36, 63
1, 318628, Note_on_c, 0, 48, 57
1, 318701, Note_on_c, 0, 72, 0
1, 318701, Note_on_c, 0, 64, 0
1, 318701, Note_on_c, 0, 70, 61
1, 318704, Note_on_c, 0, 76, 61
1, 318704, Note_on_c, 0, 48, 0
1, 318704, Note_on_c, 0, 36, 0
1, 318707, Control_c, 0, 64, 0
1, 318707, Note_on_c, 0, 36, 54
1, 318756, Note_on_c, 0, 76, 0
1, 318756, Note_on_c, 0, 70, 0
1, 318774, Note_on_c, 0, 48, 50
1, 318847, Note_on_c, 0, 68, 63
1, 318847, Note_on_c, 0, 77, 63
1, 318847, Note_on_c, 0, 48, 0
1, 318850, Note_on_c, 0, 36, 0
1, 318850, Note_on_c, 0, 36, 53
1, 318902, Note_on_c, 0, 77, 0
1, 318902, Note_on_c, 0, 68, 0
1, 318920, Note_on_c, 0, 48, 55
1, 318993, Note_on_c, 0, 76, 65
1, 318993, Note_on_c, 0, 79, 65
1, 318993, Note_on_c, 0, 48, 0
1, 318996, Note_on_c, 0, 36, 0
1, 318996, Note_on_c, 0, 36, 56
1, 319047, Note_on_c, 0, 79, 0
1, 319047, Note_on_c, 0, 76, 0
1, 319065, Note_on_c, 0, 48, 57
1, 319137, Note_on_c, 0, 77, 67
1, 319137, Note_on_c, 0, 80, 67
1, 319137, Note_on_c, 0, 48, 0
1, 319140, Note_on_c, 0, 36, 0
1, 319140, Note_on_c, 0, 36, 58
1, 319191, Note_on_c, 0, 80, 0
1, 319191, Note_on_c, 0, 77, 0
1, 319209, Note_on_c, 0, 48, 60
1, 319281, Note_on_c, 0, 74, 69
1, 319281, Note_on_c, 0, 83, 69
1, 319281, Note_on_c, 0, 48, 0
1, 319284, Note_on_c, 0, 36, 0
1, 319284, Note_on_c, 0, 36, 61
1, 319336, Note_on_c, 0, 83, 0
1, 319336, Note_on_c, 0, 74, 0
1, 319354, Note_on_c, 0, 48, 63
1, 319427, Note_on_c, 0, 72, 61
1, 319427, Note_on_c, 0, 79, 72
1, 319427, Note_on_c, 0, 75, 61
1, 319430, Note_on_c, 0, 84, 72
1, 319430, Note_on_c, 0, 48, 0
1, 319430, Note_on_c, 0, 36, 0
1, 319433, Note_on_c, 0, 36, 65
1, 319462, Control_c, 0, 64, 127
1, 319502, Note_on_c, 0, 48, 60
1, 319576, Note_on_c, 0, 48, 0
1, 319576, Note_on_c, 0, 36, 0
1, 319576, Note_on_c, 0, 36, 63
1, 319649, Note_on_c, 0, 48, 57
1, 319723, Note_on_c, 0, 84, 0
1, 319723, Note_on_c, 0, 72, 0
1, 319723, Note_on_c, 0, 79, 0
1, 319726, Note_on_c, 0, 75, 0
1, 319726, Note_on_c, 0, 68, 63
1, 319726, Note_on_c, 0, 75, 74
1, 319729, Note_on_c, 0, 80, 74
1, 319729, Note_on_c, 0, 48, 0
1, 319729, Note_on_c, 0, 36, 0
1, 319732, Note_on_c, 0, 36, 65
1, 319732, Control_c, 0, 64, 0
1, 319779, Control_c, 0, 64, 127
1, 319796, Note_on_c, 0, 48, 60
1, 319870, Note_on_c, 0, 48, 0
1, 319870, Note_on_c, 0, 36, 0
1, 319870, Note_on_c, 0, 36, 65
1, 319945, Note_on_c, 0, 48, 61
1, 320021, Note_on_c, 0, 80, 0
1, 320021, Note_on_c, 0, 75, 0
1, 320021, Note_on_c, 0, 68, 0
1, 320024, Note_on_c, 0, 68, 66
1, 320024, Note_on_c, 0, 73, 66
1, 320024, Note_on_c, 0, 77, 78
1, 320027, Note_on_c, 0, 48, 0
1, 320027, Note_on_c, 0, 36, 0
1, 320027, Note_on_c, 0, 37, 65
1, 320030, Control_c, 0, 64, 0
1, 320060, Control_c, 0, 64, 127
1, 320095, Note_on_c, 0, 49, 65
1, 320169, Note_on_c, 0, 49, 0
1, 320169, Note_on_c, 0, 37, 0
1, 320169, Note_on_c, 0, 37, 65
1, 320243, Note_on_c, 0, 49, 65
1, 320317, Note_on_c, 0, 77, 0
1, 320317, Note_on_c, 0, 73, 0
1, 320317, Note_on_c, 0, 68, 0
1, 320320, Note_on_c, 0, 66, 70
1, 320320, Note_on_c, 0, 72, 70
1, 320320, Note_on_c, 0, 75, 82
1, 320323, Note_on_c, 0, 49, 0
1, 320323, Note_on_c, 0, 37, 0
1, 320323, Note_on_c, 0, 39, 65
1, 320326, Control_c, 0, 64, 0
1, 320365, Control_c, 0, 64, 127
1, 320391, Note_on_c, 0, 51, 63
1, 320465, Note_on_c, 0, 51, 0
1, 320465, Note_on_c, 0, 39, 0
1, 320465, Note_on_c, 0, 39, 65
1, 320540, Note_on_c, 0, 51, 65
1, 320615, Note_on_c, 0, 75, 0
1, 320615, Note_on_c, 0, 72, 0
1, 320615, Note_on_c, 0, 66, 0
1, 320618, Note_on_c, 0, 65, 73
1, 320618, Note_on_c, 0, 68, 85
1, 320618, Note_on_c, 0, 73, 85
1, 320621, Note_on_c, 0, 51, 0
1, 320621, Note_on_c, 0, 39, 0
1, 320621, Note_on_c, 0, 41, 66
1, 320624, Control_c, 0, 64, 0
1, 320660, Control_c, 0, 64, 127
1, 320691, Note_on_c, 0, 53, 66
1, 320766, Note_on_c, 0, 53, 0
1, 320766, Note_on_c, 0, 41, 0
1, 320766, Note_on_c, 0, 41, 67
1, 320841, Note_on_c, 0, 53, 67
1, 320916, Note_on_c, 0, 73, 0
1, 320916, Note_on_c, 0, 68, 0
1, 320916, Note_on_c, 0, 65, 0
1, 320919, Note_on_c, 0, 70, 85
1, 320919, Note_on_c, 0, 66, 85
1, 320919, Note_on_c, 0, 61, 85
1, 320922, Note_on_c, 0, 53, 0
1, 320922, Note_on_c, 0, 41, 0
1, 320922, Note_on_c, 0, 42, 68
1, 320922, Control_c, 0, 64, 0
1, 320960, Control_c, 0, 64, 127
1, 320992, Note_on_c, 0, 54, 69
1, 321067, Note_on_c, 0, 54, 0
1, 321067, Note_on_c, 0, 42, 0
1, 321067, Note_on_c, 0, 42, 69
1, 321142, Note_on_c, 0, 54, 70
1, 321217, Note_on_c, 0, 61, 0
1, 321217, Note_on_c, 0, 66, 0
1, 321217, Note_on_c, 0, 70, 0
1, 321220, Note_on_c, 0, 61, 85
1, 321220, Note_on_c, 0, 65, 85
1, 321220, Note_on_c, 0, 68, 88
1, 321223, Note_on_c, 0, 54, 0
1, 321223, Note_on_c, 0, 42, 0
1, 321223, Note_on_c, 0, 44, 70
1, 321226, Control_c, 0, 64, 0
1, 321246, Control_c, 0, 64, 127
1, 321292, Note_on_c, 0, 56, 65
1, 321366, Note_on_c, 0, 56, 0
1, 321366, Note_on_c, 0, 44, 0
1, 321366, Note_on_c, 0, 44, 72
1, 321441, Note_on_c, 0, 56, 65
1, 321515, Note_on_c, 0, 65, 0
1, 321515, Note_on_c, 0, 61, 0
1, 321515, Note_on_c, 0, 60, 85
1, 321518, Note_on_c, 0, 63, 85
1, 321518, Note_on_c, 0, 56, 0
1, 321518, Note_on_c, 0, 44, 0
1, 321521, Note_on_c, 0, 44, 68
1, 321521, Control_c, 0, 64, 0
1, 321551, Control_c, 0, 64, 127
1, 321590, Note_on_c, 0, 56, 65
1, 321664, Note_on_c, 0, 56, 0
1, 321664, Note_on_c, 0, 44, 0
1, 321664, Note_on_c, 0, 44, 68
1, 321741, Note_on_c, 0, 56, 65
1, 321817, Note_on_c, 0, 63, 0
1, 321817, Note_on_c, 0, 60, 0
1, 321817, Note_on_c, 0, 68, 0
1, 321820, Note_on_c, 0, 62, 61
1, 321820, Note_on_c, 0, 65, 61
1, 321820, Note_on_c, 0, 70, 72
1, 321823, Note_on_c, 0, 56, 0
1, 321823, Note_on_c, 0, 44, 0
1, 321823, Note_on_c, 0, 44, 62
1, 321823, Control_c, 0, 64, 0
1, 321853, Control_c, 0, 64, 127
1, 321894, Note_on_c, 0, 56, 55
1, 321970, Note_on_c, 0, 56, 0
1, 321970, Note_on_c, 0, 44, 0
1, 321970, Note_on_c, 0, 44, 63
1, 322044, Note_on_c, 0, 56, 57
1, 322117, Note_on_c, 0, 70, 0
1, 322117, Note_on_c, 0, 65, 0
1, 322117, Note_on_c, 0, 62, 0
1, 322120, Note_on_c, 0, 70, 63
1, 322120, Note_on_c, 0, 77, 74
1, 322120, Note_on_c, 0, 82, 74
1, 322123, Note_on_c, 0, 56, 0
1, 322123, Note_on_c, 0, 44, 0
1, 322123, Note_on_c, 0, 38, 65
1, 322126, Control_c, 0, 64, 0
1, 322173, Control_c, 0, 64, 127
1, 322190, Note_on_c, 0, 50, 60
1, 322264, Note_on_c, 0, 50, 0
1, 322264, Note_on_c, 0, 38, 0
1, 322264, Note_on_c, 0, 38, 65
1, 322340, Note_on_c, 0, 50, 61
1, 322415, Note_on_c, 0, 82, 0
1, 322415, Note_on_c, 0, 77, 0
1, 322415, Note_on_c, 0, 70, 0
1, 322418, Note_on_c, 0, 70, 66
1, 322418, Note_on_c, 0, 75, 66
1, 322418, Note_on_c, 0, 78, 78
1, 322421, Note_on_c, 0, 50, 0
1, 322421, Note_on_c, 0, 38, 0
1, 322421, Note_on_c, 0, 39, 65
1, 322424, Control_c, 0, 64, 0
1, 322455, Control_c, 0, 64, 127
1, 322489, Note_on_c, 0, 51, 65
1, 322563, Note_on_c, 0, 51, 0
1, 322563, Note_on_c, 0, 39, 0
1, 322563, Note_on_c, 0, 39, 65
1, 322637, Note_on_c, 0, 51, 65
1, 322711, Note_on_c, 0, 78, 0
1, 322711, Note_on_c, 0, 75, 0
1, 322711, Note_on_c, 0, 70, 0
1, 322714, Note_on_c, 0, 68, 70
1, 322714, Note_on_c, 0, 74, 70
1, 322714, Note_on_c, 0, 77, 82
1, 322717, Note_on_c, 0, 51, 0
1, 322717, Note_on_c, 0, 39, 0
1, 322717, Note_on_c, 0, 41, 65
1, 322720, Control_c, 0, 64, 0
1, 322759, Control_c, 0, 64, 127
1, 322785, Note_on_c, 0, 53, 63
1, 322859, Note_on_c, 0, 53, 0
1, 322859, Note_on_c, 0, 41, 0
1, 322859, Note_on_c, 0, 41, 65
1, 322934, Note_on_c, 0, 53, 65
1, 323010, Note_on_c, 0, 77, 0
1, 323010, Note_on_c, 0, 74, 0
1, 323010, Note_on_c, 0, 68, 0
1, 323013, Note_on_c, 0, 66, 73
1, 323013, Note_on_c, 0, 70, 85
1, 323013, Note_on_c, 0, 75, 85
1, 323016, Note_on_c, 0, 53, 0
1, 323016, Note_on_c, 0, 41, 0
1, 323016, Note_on_c, 0, 42, 66
1, 323019, Control_c, 0, 64, 0
1, 323054, Control_c, 0, 64, 127
1, 323085, Note_on_c, 0, 54, 66
1, 323160, Note_on_c, 0, 54, 0
1, 323160, Note_on_c, 0, 42, 0
1, 323160, Note_on_c, 0, 42, 67
1, 323235, Note_on_c, 0, 54, 67
1, 323311, Note_on_c, 0, 75, 0
1, 323311, Note_on_c, 0, 70, 0
1, 323311, Note_on_c, 0, 66, 0
1, 323314, Note_on_c, 0, 63, 85
1, 323314, Note_on_c, 0, 71, 85
1, 323314, Note_on_c, 0, 68, 85
1, 323317, Note_on_c, 0, 54, 0
1, 323317, Note_on_c, 0, 42, 0
1, 323317, Note_on_c, 0, 44, 68
1, 323320, Control_c, 0, 64, 0
1, 323357, Control_c, 0, 64, 127
1, 323386, Note_on_c, 0, 56, 69
1, 323461, Note_on_c, 0, 56, 0
1, 323461, Note_on_c, 0, 44, 0
1, 323461, Note_on_c, 0, 44, 69
1, 323536, Note_on_c, 0, 56, 70
1, 323612, Note_on_c, 0, 68, 0
1, 323612, Note_on_c, 0, 71, 0
1, 323612, Note_on_c, 0, 63, 0
1, 323615, Note_on_c, 0, 63, 85
1, 323615, Note_on_c, 0, 66, 85
1, 323615, Note_on_c, 0, 70, 88
1, 323618, Note_on_c, 0, 56, 0
1, 323618, Note_on_c, 0, 44, 0
1, 323618, Note_on_c, 0, 46, 70
1, 323621, Control_c, 0, 64, 0
1, 323640, Control_c, 0, 64, 127
1, 323686, Note_on_c, 0, 58, 65
1, 323761, Note_on_c, 0, 58, 0
1, 323761, Note_on_c, 0, 46, 0
1, 323761, Note_on_c, 0, 46, 72
1, 323835, Note_on_c, 0, 58, 65
1, 323910, Note_on_c, 0, 66, 0
1, 323910, Note_on_c, 0, 63, 0
1, 323910, Note_on_c, 0, 62, 85
1, 323913, Note_on_c, 0, 65, 85
1, 323913, Note_on_c, 0, 58, 0
1, 323913, Note_on_c, 0, 46, 0
1, 323916, Note_on_c, 0, 46, 68
1, 323916, Control_c, 0, 64, 0
1, 323945, Control_c, 0, 64, 127
1, 323984, Note_on_c, 0, 58, 65
1, 324059, Note_on_c, 0, 58, 0
1, 324059, Note_on_c, 0, 46, 0
1, 324059, Note_on_c, 0, 46, 68
1, 324135, Note_on_c, 0, 58, 65
1, 324210, Note_on_c, 0, 65, 0
1, 324210, Note_on_c, 0, 62, 0
1, 324210, Note_on_c, 0, 70, 0
1, 324213, Note_on_c, 0, 64, 61
1, 324213, Note_on_c, 0, 67, 61
1, 324213, Note_on_c, 0, 72, 72
1, 324216, Note_on_c, 0, 58, 0
1, 324216, Note_on_c, 0, 46, 0
1, 324216, Note_on_c, 0, 46, 63
1, 324219, Control_c, 0, 64, 0
1, 324246, Control_c, 0, 64, 127
1, 324286, Note_on_c, 0, 58, 56
1, 324362, Note_on_c, 0, 58, 0
1, 324362, Note_on_c, 0, 46, 0
1, 324362, Note_on_c, 0, 46, 60
1, 324436, Note_on_c, 0, 58, 57
1, 324509, Note_on_c, 0, 72, 0
1, 324509, Note_on_c, 0, 67, 0
1, 324509, Note_on_c, 0, 64, 0
1, 324512, Note_on_c, 0, 72, 63
1, 324512, Note_on_c, 0, 79, 74
1, 324512, Note_on_c, 0, 84, 74
1, 324515, Note_on_c, 0, 58, 0
1, 324515, Note_on_c, 0, 46, 0
1, 324515, Note_on_c, 0, 40, 65
1, 324518, Control_c, 0, 64, 0
1, 324537, Control_c, 0, 64, 127
1, 324583, Note_on_c, 0, 52, 60
1, 324656, Note_on_c, 0, 52, 0
1, 324656, Note_on_c, 0, 40, 0
1, 324656, Note_on_c, 0, 40, 65
1, 324732, Note_on_c, 0, 52, 61
1, 324807, Note_on_c, 0, 84, 0
1, 324807, Note_on_c, 0, 79, 0
1, 324807, Note_on_c, 0, 72, 0
1, 324810, Note_on_c, 0, 72, 66
1, 324810, Note_on_c, 0, 77, 66
1, 324810, Note_on_c, 0, 80, 78
1, 324813, Note_on_c, 0, 52, 0
1, 324813, Note_on_c, 0, 40, 0
1, 324813, Note_on_c, 0, 41, 65
1, 324816, Control_c, 0, 64, 0
1, 324847, Control_c, 0, 64, 127
1, 324881, Note_on_c, 0, 53, 65
1, 324955, Note_on_c, 0, 53, 0
1, 324955, Note_on_c, 0, 41, 0
1, 324955, Note_on_c, 0, 41, 65
1, 325029, Note_on_c, 0, 53, 65
1, 325103, Note_on_c, 0, 80, 0
1, 325103, Note_on_c, 0, 77, 0
1, 325103, Note_on_c, 0, 72, 0
1, 325106, Note_on_c, 0, 70, 70
1, 325106, Note_on_c, 0, 76, 70
1, 325106, Note_on_c, 0, 79, 82
1, 325109, Note_on_c, 0, 53, 0
1, 325109, Note_on_c, 0, 41, 0
1, 325109, Note_on_c, 0, 43, 65
1, 325112, Control_c, 0, 64, 0
1, 325151, Control_c, 0, 64, 127
1, 325177, Note_on_c, 0, 55, 63
1, 325251, Note_on_c, 0, 55, 0
1, 325251, Note_on_c, 0, 43, 0
1, 325251, Note_on_c, 0, 43, 65
1, 325327, Note_on_c, 0, 55, 65
1, 325402, Note_on_c, 0, 79, 0
1, 325402, Note_on_c, 0, 76, 0
1, 325402, Note_on_c, 0, 70, 0
1, 325405, Note_on_c, 0, 68, 73
1, 325405, Note_on_c, 0, 72, 85
1, 325405, Note_on_c, 0, 77, 85
1, 325408, Note_on_c, 0, 55, 0
1, 325408, Note_on_c, 0, 43, 0
1, 325408, Note_on_c, 0, 44, 66
1, 325411, Control_c, 0, 64, 0
1, 325446, Control_c, 0, 64, 127
1, 325477, Note_on_c, 0, 56, 66
1, 325552, Note_on_c, 0, 56, 0
1, 325552, Note_on_c, 0, 44, 0
1, 325552, Note_on_c, 0, 44, 67
1, 325628, Note_on_c, 0, 56, 67
1, 325703, Note_on_c, 0, 77, 0
1, 325703, Note_on_c, 0, 72, 0
1, 325703, Note_on_c, 0, 68, 0
1, 325706, Note_on_c, 0, 73, 85
1, 325706, Note_on_c, 0, 65, 85
1, 325706, Note_on_c, 0, 56, 0
1, 325709, Note_on_c, 0, 44, 0
1, 325709, Note_on_c, 0, 46, 68
1, 325709, Control_c, 0, 64, 0
1, 325756, Control_c, 0, 64, 127
1, 325778, Note_on_c, 0, 58, 69
1, 325853, Note_on_c, 0, 58, 0
1, 325853, Note_on_c, 0, 46, 0
1, 325853, Note_on_c, 0, 46, 69
1, 325929, Note_on_c, 0, 58, 70
1, 326004, Note_on_c, 0, 65, 0
1, 326004, Note_on_c, 0, 73, 0
1, 326004, Note_on_c, 0, 65, 85
1, 326007, Note_on_c, 0, 72, 88
1, 326007, Note_on_c, 0, 58, 0
1, 326007, Note_on_c, 0, 46, 0
1, 326010, Note_on_c, 0, 48, 70
1, 326010, Control_c, 0, 64, 0
1, 326032, Control_c, 0, 64, 127
1, 326078, Note_on_c, 0, 60, 65
1, 326153, Note_on_c, 0, 60, 0
1, 326153, Note_on_c, 0, 48, 0
1, 326153, Note_on_c, 0, 48, 72
1, 326227, Note_on_c, 0, 60, 65
1, 326302, Note_on_c, 0, 72, 0
1, 326302, Note_on_c, 0, 65, 0
1, 326302, Note_on_c, 0, 65, 85
1, 326305, Note_on_c, 0, 71, 85
1, 326305, Note_on_c, 0, 60, 0
1, 326305, Note_on_c, 0, 48, 0
1, 326308, Note_on_c, 0, 49, 68
1, 326308, Control_c, 0, 64, 0
1, 326337, Control_c, 0, 64, 127
1, 326376, Note_on_c, 0, 61, 65
1, 326451, Note_on_c, 0, 61, 0
1, 326451, Note_on_c, 0, 49, 0
1, 326451, Note_on_c, 0, 49, 68
1, 326525, Note_on_c, 0, 61, 65
1, 326600, Note_on_c, 0, 71, 0
1, 326600, Note_on_c, 0, 65, 0
1, 326600, Note_on_c, 0, 64, 76
1, 326603, Note_on_c, 0, 72, 84
1, 326603, Note_on_c, 0, 61, 0
1, 326603, Note_on_c, 0, 49, 0
1, 326606, Control_c, 0, 64, 0
1, 326606, Note_on_c, 0, 48, 68
1, 326606, Note_on_c, 0, 60, 68
1, 326749, Note_on_c, 0, 72, 0
1, 326749, Note_on_c, 0, 64, 0
1, 326749, Note_on_c, 0, 59, 60
1, 326752, Note_on_c, 0, 60, 0
1, 326752, Note_on_c, 0, 48, 0
1, 326901, Note_on_c, 0, 59, 0
1, 326901, Note_on_c, 0, 60, 69
1, 327053, Note_on_c, 0, 60, 0
1, 327053, Note_on_c, 0, 59, 66
1, 327206, Note_on_c, 0, 59, 0
1, 327206, Note_on_c, 0, 60, 67
1, 327358, Note_on_c, 0, 60, 0
1, 327358, Note_on_c, 0, 59, 59
1, 327510, Note_on_c, 0, 59, 0
1, 327510, Note_on_c, 0, 60, 67
1, 327663, Note_on_c, 0, 60, 0
1, 327663, Note_on_c, 0, 59, 61
1, 327815, Note_on_c, 0, 59, 0
1, 327815, Note_on_c, 0, 60, 54
1, 327968, Note_on_c, 0, 48, 65
1, 327968, Note_on_c, 0, 65, 48
1, 327968, Note_on_c, 0, 68, 48
1, 328044, Note_on_c, 0, 48, 0
1, 328119, Note_on_c, 0, 53, 68
1, 328119, Note_on_c, 0, 68, 0
1, 328119, Note_on_c, 0, 65, 0
1, 328122, Note_on_c, 0, 65, 48
1, 328122, Note_on_c, 0, 68, 48
1, 328192, Note_on_c, 0, 53, 0
1, 328265, Note_on_c, 0, 55, 72
1, 328265, Note_on_c, 0, 68, 0
1, 328265, Note_on_c, 0, 65, 0
1, 328268, Note_on_c, 0, 65, 48
1, 328268, Note_on_c, 0, 68, 48
1, 328338, Note_on_c, 0, 55, 0
1, 328412, Note_on_c, 0, 56, 75
1, 328412, Note_on_c, 0, 68, 0
1, 328412, Note_on_c, 0, 65, 0
1, 328415, Note_on_c, 0, 60, 0
1, 328415, Note_on_c, 0, 60, 54
1, 328488, Note_on_c, 0, 56, 0
1, 328564, Note_on_c, 0, 72, 73
1, 328564, Note_on_c, 0, 65, 48
1, 328564, Note_on_c, 0, 68, 48
1, 328641, Note_on_c, 0, 72, 0
1, 328717, Note_on_c, 0, 77, 75
1, 328717, Note_on_c, 0, 68, 0
1, 328717, Note_on_c, 0, 65, 0
1, 328720, Note_on_c, 0, 65, 48
1, 328720, Note_on_c, 0, 68, 48
1, 328792, Note_on_c, 0, 77, 0
1, 328867, Note_on_c, 0, 79, 77
1, 328867, Note_on_c, 0, 68, 0
1, 328867, Note_on_c, 0, 65, 0
1, 328870, Note_on_c, 0, 65, 48
1, 328870, Note_on_c, 0, 68, 48
1, 328941, Note_on_c, 0, 79, 0
1, 328978, Note_on_c, 0, 72, 76
1, 329016, Note_on_c, 0, 72, 0
1, 329016, Note_on_c, 0, 80, 86
1, 329016, Note_on_c, 0, 68, 0
1, 329019, Note_on_c, 0, 65, 0
1, 329019, Note_on_c, 0, 60, 0
1, 329019, Note_on_c, 0, 60, 54
1, 329168, Note_on_c, 0, 65, 48
1, 329168, Note_on_c, 0, 68, 48
1, 329317, Note_on_c, 0, 68, 0
1, 329317, Note_on_c, 0, 65, 0
1, 329317, Note_on_c, 0, 65, 48
1, 329320, Note_on_c, 0, 68, 48
1, 329467, Note_on_c, 0, 80, 0
1, 329467, Note_on_c, 0, 77, 74
1, 329467, Note_on_c, 0, 68, 0
1, 329470, Note_on_c, 0, 65, 0
1, 329470, Note_on_c, 0, 65, 48
1, 329470, Note_on_c, 0, 68, 48
1, 329581, Note_on_c, 0, 72, 70
1, 329619, Note_on_c, 0, 72, 0
1, 329619, Note_on_c, 0, 77, 0
1, 329619, Note_on_c, 0, 80, 82
1, 329622, Note_on_c, 0, 68, 0
1, 329622, Note_on_c, 0, 65, 0
1, 329622, Note_on_c, 0, 60, 0
1, 329625, Note_on_c, 0, 60, 54
1, 329772, Note_on_c, 0, 65, 48
1, 329772, Note_on_c, 0, 68, 48
1, 329921, Note_on_c, 0, 68, 0
1, 329921, Note_on_c, 0, 65, 0
1, 329921, Note_on_c, 0, 65, 48
1, 329924, Note_on_c, 0, 68, 48
1, 330071, Note_on_c, 0, 80, 0
1, 330071, Note_on_c, 0, 77, 68
1, 330071, Note_on_c, 0, 68, 0
1, 330074, Note_on_c, 0, 65, 0
1, 330074, Note_on_c, 0, 65, 48
1, 330074, Note_on_c, 0, 68, 48
1, 330223, Note_on_c, 0, 77, 0
1, 330223, Note_on_c, 0, 76, 70
1, 330223, Note_on_c, 0, 68, 0
1, 330226, Note_on_c, 0, 65, 0
1, 330226, Note_on_c, 0, 60, 0
1, 330226, Note_on_c, 0, 60, 54
1, 330378, Note_on_c, 0, 76, 0
1, 330378, Note_on_c, 0, 48, 67
1, 330378, Note_on_c, 0, 67, 48
1, 330381, Note_on_c, 0, 70, 48
1, 330453, Note_on_c, 0, 48, 0
1, 330528, Note_on_c, 0, 55, 70
1, 330528, Note_on_c, 0, 70, 0
1, 330528, Note_on_c, 0, 67, 0
1, 330531, Note_on_c, 0, 67, 48
1, 330531, Note_on_c, 0, 70, 48
1, 330601, Note_on_c, 0, 55, 0
1, 330674, Note_on_c, 0, 56, 74
1, 330674, Note_on_c, 0, 70, 0
1, 330674, Note_on_c, 0, 67, 0
1, 330677, Note_on_c, 0, 67, 48
1, 330677, Note_on_c, 0, 70, 48
1, 330747, Note_on_c, 0, 56, 0
1, 330820, Note_on_c, 0, 58, 77
1, 330820, Note_on_c, 0, 70, 0
1, 330820, Note_on_c, 0, 67, 0
1, 330823, Note_on_c, 0, 60, 0
1, 330823, Note_on_c, 0, 60, 54
1, 330897, Note_on_c, 0, 58, 0
1, 330973, Note_on_c, 0, 72, 69
1, 330973, Note_on_c, 0, 67, 48
1, 330973, Note_on_c, 0, 70, 48
1, 331126, Note_on_c, 0, 72, 0
1, 331126, Note_on_c, 0, 82, 73
1, 331126, Note_on_c, 0, 70, 0
1, 331129, Note_on_c, 0, 67, 0
1, 331129, Note_on_c, 0, 67, 48
1, 331129, Note_on_c, 0, 70, 48
1, 331276, Note_on_c, 0, 82, 0
1, 331276, Note_on_c, 0, 80, 76
1, 331276, Note_on_c, 0, 70, 0
1, 331279, Note_on_c, 0, 67, 0
1, 331279, Note_on_c, 0, 67, 48
1, 331279, Note_on_c, 0, 70, 48
1, 331426, Note_on_c, 0, 80, 0
1, 331426, Note_on_c, 0, 80, 70
1, 331426, Note_on_c, 0, 70, 0
1, 331429, Note_on_c, 0, 67, 0
1, 331429, Note_on_c, 0, 60, 0
1, 331429, Note_on_c, 0, 60, 54
1, 331464, Note_on_c, 0, 80, 0
1, 331464, Note_on_c, 0, 82, 70
1, 331502, Note_on_c, 0, 82, 0
1, 331502, Note_on_c, 0, 80, 78
1, 331578, Note_on_c, 0, 80, 0
1, 331578, Note_on_c, 0, 79, 70
1, 331578, Note_on_c, 0, 67, 48
1, 331581, Note_on_c, 0, 70, 48
1, 331730, Note_on_c, 0, 79, 0
1, 331730, Note_on_c, 0, 79, 70
1, 331730, Note_on_c, 0, 70, 0
1, 331733, Note_on_c, 0, 67, 0
1, 331733, Note_on_c, 0, 67, 48
1, 331733, Note_on_c, 0, 70, 48
1, 331768, Note_on_c, 0, 79, 0
1, 331768, Note_on_c, 0, 80, 70
1, 331806, Note_on_c, 0, 80, 0
1, 331806, Note_on_c, 0, 79, 78
1, 331882, Note_on_c, 0, 79, 0
1, 331882, Note_on_c, 0, 77, 70
1, 331882, Note_on_c, 0, 70, 0
1, 331885, Note_on_c, 0, 67, 0
1, 331885, Note_on_c, 0, 67, 48
1, 331885, Note_on_c, 0, 70, 48
1, 332035, Note_on_c, 0, 77, 0
1, 332035, Note_on_c, 0, 77, 70
1, 332035, Note_on_c, 0, 70, 0
1, 332038, Note_on_c, 0, 67, 0
1, 332038, Note_on_c, 0, 60, 0
1, 332038, Note_on_c, 0, 60, 54
1, 332073, Note_on_c, 0, 77, 0
1, 332073, Note_on_c, 0, 79, 70
1, 332111, Note_on_c, 0, 79, 0
1, 332111, Note_on_c, 0, 77, 77
1, 332187, Note_on_c, 0, 77, 0
1, 332187, Note_on_c, 0, 76, 70
1, 332187, Note_on_c, 0, 67, 48
1, 332190, Note_on_c, 0, 70, 48
1, 332339, Note_on_c, 0, 76, 0
1, 332339, Note_on_c, 0, 74, 70
1, 332339, Note_on_c, 0, 70, 0
1, 332342, Note_on_c, 0, 67, 0
1, 332342, Note_on_c, 0, 67, 48
1, 332342, Note_on_c, 0, 70, 48
1, 332416, Note_on_c, 0, 74, 0
1, 332492, Note_on_c, 0, 76, 70
1, 332492, Note_on_c, 0, 70, 0
1, 332492, Note_on_c, 0, 67, 0
1, 332495, Note_on_c, 0, 67, 48
1, 332495, Note_on_c, 0, 70, 48
1, 332568, Note_on_c, 0, 76, 0
1, 332644, Note_on_c, 0, 77, 70
1, 332644, Note_on_c, 0, 70, 0
1, 332644, Note_on_c, 0, 67, 0
1, 332647, Note_on_c, 0, 60, 0
1, 332647, Note_on_c, 0, 60, 54
1, 332800, Note_on_c, 0, 77, 0
1, 332800, Note_on_c, 0, 48, 65
1, 332800, Note_on_c, 0, 65, 48
1, 332803, Note_on_c, 0, 68, 48
1, 332875, Note_on_c, 0, 48, 0
1, 332950, Note_on_c, 0, 53, 68
1, 332950, Note_on_c, 0, 68, 0
1, 332950, Note_on_c, 0, 65, 0
1, 332953, Note_on_c, 0, 65, 48
1, 332953, Note_on_c, 0, 68, 48
1, 333023, Note_on_c, 0, 53, 0
1, 333096, Note_on_c, 0, 55, 72
1, 333096, Note_on_c, 0, 68, 0
1, 333096, Note_on_c, 0, 65, 0
1, 333099, Note_on_c, 0, 65, 48
1, 333099, Note_on_c, 0, 68, 48
1, 333169, Note_on_c, 0, 55, 0
1, 333242, Note_on_c, 0, 56, 75
1, 333242, Note_on_c, 0, 68, 0
1, 333242, Note_on_c, 0, 65, 0
1, 333245, Note_on_c, 0, 60, 0
1, 333245, Note_on_c, 0, 60, 54
1, 333319, Note_on_c, 0, 56, 0
1, 333395, Note_on_c, 0, 72, 73
1, 333395, Note_on_c, 0, 65, 48
1, 333395, Note_on_c, 0, 68, 48
1, 333472, Note_on_c, 0, 72, 0
1, 333548, Note_on_c, 0, 77, 75
1, 333548, Note_on_c, 0, 68, 0
1, 333548, Note_on_c, 0, 65, 0
1, 333551, Note_on_c, 0, 65, 48
1, 333551, Note_on_c, 0, 68, 48
1, 333623, Note_on_c, 0, 77, 0
1, 333697, Note_on_c, 0, 80, 77
1, 333697, Note_on_c, 0, 68, 0
1, 333697, Note_on_c, 0, 65, 0
1, 333700, Note_on_c, 0, 65, 48
1, 333700, Note_on_c, 0, 68, 48
1, 333772, Note_on_c, 0, 80, 0
1, 333809, Note_on_c, 0, 72, 76
1, 333847, Note_on_c, 0, 72, 0
1, 333847, Note_on_c, 0, 84, 86
1, 333847, Note_on_c, 0, 68, 0
1, 333850, Note_on_c, 0, 65, 0
1, 333850, Note_on_c, 0, 60, 0
1, 333850, Note_on_c, 0, 56, 54
1, 333998, Note_on_c, 0, 60, 48
1, 333998, Note_on_c, 0, 65, 48
1, 334148, Note_on_c, 0, 65, 0
1, 334148, Note_on_c, 0, 60, 0
1, 334148, Note_on_c, 0, 60, 48
1, 334151, Note_on_c, 0, 65, 48
1, 334298, Note_on_c, 0, 84, 0
1, 334298, Note_on_c, 0, 77, 74
1, 334298, Note_on_c, 0, 65, 0
1, 334301, Note_on_c, 0, 60, 0
1, 334301, Note_on_c, 0, 60, 48
1, 334301, Note_on_c, 0, 65, 48
1, 334412, Note_on_c, 0, 77, 70
1, 334450, Note_on_c, 0, 77, 0
1, 334450, Note_on_c, 0, 77, 0
1, 334450, Note_on_c, 0, 89, 82
1, 334453, Note_on_c, 0, 65, 0
1, 334453, Note_on_c, 0, 60, 0
1, 334453, Note_on_c, 0, 56, 0
1, 334456, Note_on_c, 0, 56, 54
1, 334602, Note_on_c, 0, 60, 48
1, 334602, Note_on_c, 0, 65, 48
1, 334752, Note_on_c, 0, 65, 0
1, 334752, Note_on_c, 0, 60, 0
1, 334752, Note_on_c, 0, 60, 48
1, 334755, Note_on_c, 0, 65, 48
1, 334902, Note_on_c, 0, 89, 0
1, 334902, Note_on_c, 0, 84, 68
1, 334902, Note_on_c, 0, 65, 0
1, 334905, Note_on_c, 0, 60, 0
1, 334905, Note_on_c, 0, 60, 48
1, 334905, Note_on_c, 0, 65, 48
1, 335053, Note_on_c, 0, 84, 0
1, 335053, Note_on_c, 0, 83, 70
1, 335053, Note_on_c, 0, 65, 0
1, 335056, Note_on_c, 0, 60, 0
1, 335056, Note_on_c, 0, 56, 0
1, 335056, Note_on_c, 0, 55, 54
1, 335209, Note_on_c, 0, 83, 0
1, 335209, Note_on_c, 0, 43, 67
1, 335209, Note_on_c, 0, 62, 48
1, 335212, Note_on_c, 0, 65, 48
1, 335283, Note_on_c, 0, 43, 0
1, 335358, Note_on_c, 0, 50, 70
1, 335358, Note_on_c, 0, 65, 0
1, 335358, Note_on_c, 0, 62, 0
1, 335361, Note_on_c, 0, 62, 48
1, 335361, Note_on_c, 0, 65, 48
1, 335430, Note_on_c, 0, 50, 0
1, 335503, Note_on_c, 0, 51, 74
1, 335503, Note_on_c, 0, 65, 0
1, 335503, Note_on_c, 0, 62, 0
1, 335506, Note_on_c, 0, 62, 48
1, 335506, Note_on_c, 0, 65, 48
1, 335576, Note_on_c, 0, 51, 0
1, 335648, Note_on_c, 0, 53, 77
1, 335648, Note_on_c, 0, 65, 0
1, 335648, Note_on_c, 0, 62, 0
1, 335651, Note_on_c, 0, 55, 0
1, 335651, Note_on_c, 0, 55, 54
1, 335725, Note_on_c, 0, 53, 0
1, 335801, Note_on_c, 0, 67, 69
1, 335801, Note_on_c, 0, 62, 48
1, 335801, Note_on_c, 0, 65, 48
1, 335954, Note_on_c, 0, 67, 0
1, 335954, Note_on_c, 0, 77, 73
1, 335954, Note_on_c, 0, 65, 0
1, 335957, Note_on_c, 0, 62, 0
1, 335957, Note_on_c, 0, 62, 48
1, 335957, Note_on_c, 0, 65, 48
1, 336104, Note_on_c, 0, 77, 0
1, 336104, Note_on_c, 0, 75, 76
1, 336104, Note_on_c, 0, 65, 0
1, 336107, Note_on_c, 0, 62, 0
1, 336107, Note_on_c, 0, 62, 48
1, 336107, Note_on_c, 0, 65, 48
1, 336253, Note_on_c, 0, 75, 0
1, 336253, Note_on_c, 0, 75, 70
1, 336253, Note_on_c, 0, 65, 0
1, 336256, Note_on_c, 0, 62, 0
1, 336256, Note_on_c, 0, 55, 0
1, 336256, Note_on_c, 0, 55, 54
1, 336292, Note_on_c, 0, 75, 0
1, 336292, Note_on_c, 0, 77, 70
1, 336330, Note_on_c, 0, 77, 0
1, 336330, Note_on_c, 0, 75, 78
1, 336406, Note_on_c, 0, 75, 0
1, 336406, Note_on_c, 0, 74, 70
1, 336406, Note_on_c, 0, 62, 48
1, 336409, Note_on_c, 0, 65, 48
1, 336558, Note_on_c, 0, 74, 0
1, 336558, Note_on_c, 0, 74, 70
1, 336558, Note_on_c, 0, 65, 0
1, 336561, Note_on_c, 0, 62, 0
1, 336561, Note_on_c, 0, 62, 48
1, 336561, Note_on_c, 0, 65, 48
1, 336596, Note_on_c, 0, 74, 0
1, 336596, Note_on_c, 0, 75, 70
1, 336634, Note_on_c, 0, 75, 0
1, 336634, Note_on_c, 0, 74, 78
1, 336710, Note_on_c, 0, 74, 0
1, 336710, Note_on_c, 0, 72, 70
1, 336710, Note_on_c, 0, 65, 0
1, 336713, Note_on_c, 0, 62, 0
1, 336713, Note_on_c, 0, 62, 48
1, 336713, Note_on_c, 0, 65, 48
1, 336863, Note_on_c, 0, 72, 0
1, 336863, Note_on_c, 0, 72, 70
1, 336863, Note_on_c, 0, 65, 0
1, 336866, Note_on_c, 0, 62, 0
1, 336866, Note_on_c, 0, 55, 0
1, 336866, Note_on_c, 0, 55, 54
1, 336901, Note_on_c, 0, 72, 0
1, 336901, Note_on_c, 0, 74, 70
1, 336939, Note_on_c, 0, 74, 0
1, 336939, Note_on_c, 0, 72, 77
1, 337015, Note_on_c, 0, 72, 0
1, 337015, Note_on_c, 0, 71, 70
1, 337015, Note_on_c, 0, 62, 48
1, 337018, Note_on_c, 0, 65, 48
1, 337167, Note_on_c, 0, 71, 0
1, 337167, Note_on_c, 0, 69, 70
1, 337167, Note_on_c, 0, 65, 0
1, 337170, Note_on_c, 0, 62, 0
1, 337170, Note_on_c, 0, 62, 48
1, 337170, Note_on_c, 0, 65, 48
1, 337243, Note_on_c, 0, 69, 0
1, 337320, Note_on_c, 0, 71, 70
1, 337320, Note_on_c, 0, 65, 0
1, 337320, Note_on_c, 0, 62, 0
1, 337323, Note_on_c, 0, 62, 48
1, 337323, Note_on_c, 0, 65, 48
1, 337396, Note_on_c, 0, 71, 0
1, 337472, Note_on_c, 0, 72, 70
1, 337472, Note_on_c, 0, 65, 0
1, 337472, Note_on_c, 0, 62, 0
1, 337475, Note_on_c, 0, 55, 0
1, 337475, Note_on_c, 0, 55, 54
1, 337625, Note_on_c, 0, 72, 0
1, 337625, Note_on_c, 0, 43, 65
1, 337625, Note_on_c, 0, 60, 48
1, 337628, Note_on_c, 0, 63, 48
1, 337700, Note_on_c, 0, 43, 0
1, 337775, Note_on_c, 0, 48, 68
1, 337775, Note_on_c, 0, 63, 0
1, 337775, Note_on_c, 0, 60, 0
1, 337778, Note_on_c, 0, 60, 48
1, 337778, Note_on_c, 0, 63, 48
1, 337849, Note_on_c, 0, 48, 0
1, 337923, Note_on_c, 0, 50, 72
1, 337923, Note_on_c, 0, 63, 0
1, 337923, Note_on_c, 0, 60, 0
1, 337926, Note_on_c, 0, 60, 48
1, 337926, Note_on_c, 0, 63, 48
1, 337996, Note_on_c, 0, 50, 0
1, 338070, Note_on_c, 0, 51, 75
1, 338070, Note_on_c, 0, 63, 0
1, 338070, Note_on_c, 0, 60, 0
1, 338073, Note_on_c, 0, 55, 0
1, 338073, Note_on_c, 0, 55, 54
1, 338146, Note_on_c, 0, 51, 0
1, 338223, Note_on_c, 0, 79, 73
1, 338223, Note_on_c, 0, 60, 48
1, 338223, Note_on_c, 0, 63, 48
1, 338299, Note_on_c, 0, 79, 0
1, 338376, Note_on_c, 0, 84, 75
1, 338376, Note_on_c, 0, 63, 0
1, 338376, Note_on_c, 0, 60, 0
1, 338379, Note_on_c, 0, 60, 48
1, 338379, Note_on_c, 0, 63, 48
1, 338450, Note_on_c, 0, 84, 0
1, 338525, Note_on_c, 0, 86, 77
1, 338525, Note_on_c, 0, 63, 0
1, 338525, Note_on_c, 0, 60, 0
1, 338528, Note_on_c, 0, 60, 48
1, 338528, Note_on_c, 0, 63, 48
1, 338600, Note_on_c, 0, 86, 0
1, 338637, Note_on_c, 0, 79, 76
1, 338674, Note_on_c, 0, 79, 0
1, 338674, Note_on_c, 0, 87, 86
1, 338674, Note_on_c, 0, 63, 0
1, 338677, Note_on_c, 0, 60, 0
1, 338677, Note_on_c, 0, 55, 0
1, 338677, Note_on_c, 0, 55, 54
1, 338826, Note_on_c, 0, 60, 48
1, 338826, Note_on_c, 0, 63, 48
1, 338976, Note_on_c, 0, 63, 0
1, 338976, Note_on_c, 0, 60, 0
1, 338976, Note_on_c, 0, 60, 48
1, 338979, Note_on_c, 0, 63, 48
1, 339126, Note_on_c, 0, 87, 0
1, 339126, Note_on_c, 0, 84, 74
1, 339126, Note_on_c, 0, 63, 0
1, 339129, Note_on_c, 0, 60, 0
1, 339129, Note_on_c, 0, 60, 48
1, 339129, Note_on_c, 0, 63, 48
1, 339240, Note_on_c, 0, 79, 70
1, 339278, Note_on_c, 0, 79, 0
1, 339278, Note_on_c, 0, 84, 0
1, 339278, Note_on_c, 0, 87, 82
1, 339281, Note_on_c, 0, 63, 0
1, 339281, Note_on_c, 0, 60, 0
1, 339281, Note_on_c, 0, 55, 0
1, 339284, Note_on_c, 0, 55, 54
1, 339430, Note_on_c, 0, 60, 48
1, 339430, Note_on_c, 0, 63, 48
1, 339580, Note_on_c, 0, 63, 0
1, 339580, Note_on_c, 0, 60, 0
1, 339580, Note_on_c, 0, 60, 48
1, 339583, Note_on_c, 0, 63, 48
1, 339730, Note_on_c, 0, 87, 0
1, 339730, Note_on_c, 0, 84, 68
1, 339730, Note_on_c, 0, 63, 0
1, 339733, Note_on_c, 0, 60, 0
1, 339733, Note_on_c, 0, 60, 48
1, 339733, Note_on_c, 0, 63, 48
1, 339881, Note_on_c, 0, 84, 0
1, 339881, Note_on_c, 0, 83, 70
1, 339881, Note_on_c, 0, 63, 0
1, 339884, Note_on_c, 0, 60, 0
1, 339884, Note_on_c, 0, 55, 0
1, 339884, Note_on_c, 0, 55, 54
1, 340036, Note_on_c, 0, 83, 0
1, 340036, Note_on_c, 0, 43, 67
1, 340036, Note_on_c, 0, 62, 48
1, 340039, Note_on_c, 0, 65, 48
1, 340110, Note_on_c, 0, 43, 0
1, 340184, Note_on_c, 0, 50, 70
1, 340184, Note_on_c, 0, 65, 0
1, 340184, Note_on_c, 0, 62, 0
1, 340187, Note_on_c, 0, 62, 48
1, 340187, Note_on_c, 0, 65, 48
1, 340257, Note_on_c, 0, 50, 0
1, 340330, Note_on_c, 0, 51, 74
1, 340330, Note_on_c, 0, 65, 0
1, 340330, Note_on_c, 0, 62, 0
1, 340333, Note_on_c, 0, 62, 48
1, 340333, Note_on_c, 0, 65, 48
1, 340402, Note_on_c, 0, 51, 0
1, 340475, Note_on_c, 0, 53, 77
1, 340475, Note_on_c, 0, 65, 0
1, 340475, Note_on_c, 0, 62, 0
1, 340478, Note_on_c, 0, 55, 0
1, 340478, Note_on_c, 0, 55, 54
1, 340551, Note_on_c, 0, 53, 0
1, 340628, Note_on_c, 0, 79, 69
1, 340628, Note_on_c, 0, 62, 48
1, 340628, Note_on_c, 0, 65, 48
1, 340781, Note_on_c, 0, 79, 0
1, 340781, Note_on_c, 0, 89, 73
1, 340781, Note_on_c, 0, 65, 0
1, 340784, Note_on_c, 0, 62, 0
1, 340784, Note_on_c, 0, 62, 48
1, 340784, Note_on_c, 0, 65, 48
1, 340930, Note_on_c, 0, 89, 0
1, 340930, Note_on_c, 0, 87, 76
1, 340930, Note_on_c, 0, 65, 0
1, 340933, Note_on_c, 0, 62, 0
1, 340933, Note_on_c, 0, 62, 48
1, 340933, Note_on_c, 0, 65, 48
1, 341080, Note_on_c, 0, 87, 0
1, 341080, Note_on_c, 0, 87, 70
1, 341080, Note_on_c, 0, 65, 0
1, 341083, Note_on_c, 0, 62, 0
1, 341083, Note_on_c, 0, 55, 0
1, 341083, Note_on_c, 0, 55, 54
1, 341118, Note_on_c, 0, 87, 0
1, 341118, Note_on_c, 0, 89, 70
1, 341156, Note_on_c, 0, 89, 0
1, 341156, Note_on_c, 0, 87, 78
1, 341232, Note_on_c, 0, 87, 0
1, 341232, Note_on_c, 0, 86, 70
1, 341232, Note_on_c, 0, 62, 48
1, 341235, Note_on_c, 0, 65, 48
1, 341385, Note_on_c, 0, 86, 0
1, 341385, Note_on_c, 0, 86, 70
1, 341385, Note_on_c, 0, 65, 0
1, 341388, Note_on_c, 0, 62, 0
1, 341388, Note_on_c, 0, 62, 48
1, 341388, Note_on_c, 0, 65, 48
1, 341423, Note_on_c, 0, 86, 0
1, 341423, Note_on_c, 0, 87, 70
1, 341461, Note_on_c, 0, 87, 0
1, 341461, Note_on_c, 0, 86, 78
1, 341537, Note_on_c, 0, 86, 0
1, 341537, Note_on_c, 0, 84, 70
1, 341537, Note_on_c, 0, 65, 0
1, 341540, Note_on_c, 0, 62, 0
1, 341540, Note_on_c, 0, 62, 48
1, 341540, Note_on_c, 0, 65, 48
1, 341689, Note_on_c, 0, 84, 0
1, 341689, Note_on_c, 0, 84, 70
1, 341689, Note_on_c, 0, 65, 0
1, 341692, Note_on_c, 0, 62, 0
1, 341692, Note_on_c, 0, 55, 0
1, 341692, Note_on_c, 0, 55, 54
1, 341727, Note_on_c, 0, 84, 0
1, 341727, Note_on_c, 0, 86, 70
1, 341765, Note_on_c, 0, 86, 0
1, 341765, Note_on_c, 0, 84, 77
1, 341842, Note_on_c, 0, 84, 0
1, 341842, Note_on_c, 0, 83, 70
1, 341842, Note_on_c, 0, 62, 48
1, 341845, Note_on_c, 0, 65, 48
1, 341994, Note_on_c, 0, 83, 0
1, 341994, Note_on_c, 0, 81, 70
1, 341994, Note_on_c, 0, 65, 0
1, 341997, Note_on_c, 0, 62, 0
1, 341997, Note_on_c, 0, 62, 48
1, 341997, Note_on_c, 0, 65, 48
1, 342070, Note_on_c, 0, 81, 0
1, 342146, Note_on_c, 0, 83, 70
1, 342146, Note_on_c, 0, 65, 0
1, 342146, Note_on_c, 0, 62, 0
1, 342149, Note_on_c, 0, 62, 48
1, 342149, Note_on_c, 0, 65, 48
1, 342222, Note_on_c, 0, 83, 0
1, 342301, Note_on_c, 0, 86, 70
1, 342301, Note_on_c, 0, 65, 0
1, 342301, Note_on_c, 0, 62, 0
1, 342304, Note_on_c, 0, 55, 0
1, 342304, Note_on_c, 0, 60, 54
1, 342339, Note_on_c, 0, 86, 0
1, 342339, Note_on_c, 0, 87, 70
1, 342378, Note_on_c, 0, 87, 0
1, 342378, Note_on_c, 0, 86, 78
1, 342454, Note_on_c, 0, 86, 0
1, 342454, Note_on_c, 0, 84, 69
1, 342454, Note_on_c, 0, 63, 47
1, 342457, Note_on_c, 0, 67, 47
1, 342606, Note_on_c, 0, 84, 0
1, 342606, Note_on_c, 0, 84, 68
1, 342606, Note_on_c, 0, 67, 0
1, 342609, Note_on_c, 0, 63, 0
1, 342609, Note_on_c, 0, 63, 47
1, 342609, Note_on_c, 0, 67, 47
1, 342644, Note_on_c, 0, 84, 0
1, 342644, Note_on_c, 0, 86, 68
1, 342682, Note_on_c, 0, 86, 0
1, 342682, Note_on_c, 0, 84, 76
1, 342758, Note_on_c, 0, 84, 0
1, 342758, Note_on_c, 0, 82, 68
1, 342758, Note_on_c, 0, 67, 0
1, 342761, Note_on_c, 0, 63, 0
1, 342761, Note_on_c, 0, 63, 46
1, 342761, Note_on_c, 0, 67, 46
1, 342911, Note_on_c, 0, 82, 0
1, 342911, Note_on_c, 0, 82, 67
1, 342911, Note_on_c, 0, 67, 0
1, 342914, Note_on_c, 0, 63, 0
1, 342914, Note_on_c, 0, 60, 0
1, 342914, Note_on_c, 0, 53, 52
1, 342949, Note_on_c, 0, 82, 0
1, 342949, Note_on_c, 0, 84, 67
1, 342987, Note_on_c, 0, 84, 0
1, 342987, Note_on_c, 0, 82, 74
1, 343063, Note_on_c, 0, 82, 0
1, 343063, Note_on_c, 0, 81, 67
1, 343063, Note_on_c, 0, 63, 46
1, 343066, Note_on_c, 0, 65, 46
1, 343215, Note_on_c, 0, 81, 0
1, 343215, Note_on_c, 0, 79, 66
1, 343215, Note_on_c, 0, 65, 0
1, 343218, Note_on_c, 0, 63, 0
1, 343218, Note_on_c, 0, 63, 45
1, 343218, Note_on_c, 0, 65, 45
1, 343291, Note_on_c, 0, 79, 0
1, 343368, Note_on_c, 0, 81, 65
1, 343368, Note_on_c, 0, 65, 0
1, 343368, Note_on_c, 0, 63, 0
1, 343371, Note_on_c, 0, 63, 45
1, 343371, Note_on_c, 0, 65, 45
1, 343444, Note_on_c, 0, 81, 0
1, 343523, Note_on_c, 0, 84, 65
1, 343523, Note_on_c, 0, 65, 0
1, 343523, Note_on_c, 0, 63, 0
1, 343526, Note_on_c, 0, 53, 0
1, 343526, Note_on_c, 0, 58, 50
1, 343561, Note_on_c, 0, 84, 0
1, 343561, Note_on_c, 0, 85, 65
1, 343599, Note_on_c, 0, 85, 0
1, 343599, Note_on_c, 0, 84, 72
1, 343675, Note_on_c, 0, 84, 0
1, 343675, Note_on_c, 0, 82, 64
1, 343675, Note_on_c, 0, 61, 44
1, 343678, Note_on_c, 0, 65, 44
1, 343827, Note_on_c, 0, 82, 0
1, 343827, Note_on_c, 0, 82, 64
1, 343827, Note_on_c, 0, 65, 0
1, 343830, Note_on_c, 0, 61, 0
1, 343830, Note_on_c, 0, 61, 44
1, 343830, Note_on_c, 0, 65, 44
1, 343865, Note_on_c, 0, 82, 0
1, 343865, Note_on_c, 0, 84, 64
1, 343903, Note_on_c, 0, 84, 0
1, 343903, Note_on_c, 0, 82, 70
1, 343980, Note_on_c, 0, 82, 0
1, 343980, Note_on_c, 0, 80, 63
1, 343980, Note_on_c, 0, 65, 0
1, 343983, Note_on_c, 0, 61, 0
1, 343983, Note_on_c, 0, 61, 43
1, 343983, Note_on_c, 0, 65, 43
1, 344132, Note_on_c, 0, 80, 0
1, 344132, Note_on_c, 0, 80, 62
1, 344132, Note_on_c, 0, 65, 0
1, 344135, Note_on_c, 0, 61, 0
1, 344135, Note_on_c, 0, 58, 0
1, 344135, Note_on_c, 0, 51, 48
1, 344170, Note_on_c, 0, 80, 0
1, 344170, Note_on_c, 0, 82, 62
1, 344208, Note_on_c, 0, 82, 0
1, 344208, Note_on_c, 0, 80, 67
1, 344284, Note_on_c, 0, 80, 0
1, 344284, Note_on_c, 0, 79, 62
1, 344284, Note_on_c, 0, 61, 43
1, 344287, Note_on_c, 0, 63, 43
1, 344437, Note_on_c, 0, 79, 0
1, 344437, Note_on_c, 0, 77, 61
1, 344437, Note_on_c, 0, 63, 0
1, 344440, Note_on_c, 0, 61, 0
1, 344440, Note_on_c, 0, 61, 42
1, 344440, Note_on_c, 0, 63, 42
1, 344513, Note_on_c, 0, 77, 0
1, 344589, Note_on_c, 0, 79, 61
1, 344589, Note_on_c, 0, 63, 0
1, 344589, Note_on_c, 0, 61, 0
1, 344592, Note_on_c, 0, 61, 42
1, 344592, Note_on_c, 0, 63, 42
1, 344665, Note_on_c, 0, 79, 0
1, 344744, Note_on_c, 0, 82, 60
1, 344744, Note_on_c, 0, 63, 0
1, 344744, Note_on_c, 0, 61, 0
1, 344747, Note_on_c, 0, 51, 0
1, 344747, Note_on_c, 0, 56, 46
1, 344783, Note_on_c, 0, 82, 0
1, 344783, Note_on_c, 0, 84, 60
1, 344822, Note_on_c, 0, 84, 0
1, 344822, Note_on_c, 0, 82, 65
1, 344900, Note_on_c, 0, 82, 0
1, 344900, Note_on_c, 0, 80, 59
1, 344900, Note_on_c, 0, 60, 41
1, 344903, Note_on_c, 0, 63, 41
1, 345055, Note_on_c, 0, 80, 0
1, 345055, Note_on_c, 0, 80, 59
1, 345055, Note_on_c, 0, 63, 0
1, 345058, Note_on_c, 0, 60, 0
1, 345058, Note_on_c, 0, 60, 41
1, 345058, Note_on_c, 0, 63, 41
1, 345094, Note_on_c, 0, 80, 0
1, 345094, Note_on_c, 0, 82, 58
1, 345133, Note_on_c, 0, 82, 0
1, 345133, Note_on_c, 0, 80, 64
1, 345211, Note_on_c, 0, 80, 0
1, 345211, Note_on_c, 0, 79, 58
1, 345211, Note_on_c, 0, 63, 0
1, 345214, Note_on_c, 0, 60, 0
1, 345214, Note_on_c, 0, 60, 40
1, 345214, Note_on_c, 0, 63, 40
1, 345370, Note_on_c, 0, 79, 0
1, 345370, Note_on_c, 0, 79, 58
1, 345370, Note_on_c, 0, 63, 0
1, 345373, Note_on_c, 0, 60, 0
1, 345373, Note_on_c, 0, 56, 0
1, 345373, Note_on_c, 0, 56, 45
1, 345408, Note_on_c, 0, 79, 0
1, 345408, Note_on_c, 0, 80, 57
1, 345447, Note_on_c, 0, 80, 0
1, 345447, Note_on_c, 0, 79, 62
1, 345525, Note_on_c, 0, 79, 0
1, 345525, Note_on_c, 0, 78, 57
1, 345525, Note_on_c, 0, 60, 40
1, 345528, Note_on_c, 0, 63, 40
1, 345680, Note_on_c, 0, 78, 0
1, 345680, Note_on_c, 0, 78, 56
1, 345680, Note_on_c, 0, 63, 0
1, 345683, Note_on_c, 0, 60, 0
1, 345683, Note_on_c, 0, 60, 39
1, 345683, Note_on_c, 0, 63, 39
1, 345758, Note_on_c, 0, 78, 0
1, 345836, Note_on_c, 0, 78, 56
1, 345836, Note_on_c, 0, 63, 0
1, 345836, Note_on_c, 0, 60, 0
1, 345839, Note_on_c, 0, 60, 39
1, 345839, Note_on_c, 0, 63, 39
1, 345914, Note_on_c, 0, 78, 0
1, 345994, Note_on_c, 0, 80, 52
1, 345994, Note_on_c, 0, 63, 0
1, 345994, Note_on_c, 0, 60, 0
1, 345997, Note_on_c, 0, 56, 0
1, 345997, Note_on_c, 0, 55, 40
1, 346034, Note_on_c, 0, 80, 0
1, 346034, Note_on_c, 0, 82, 52
1, 346075, Note_on_c, 0, 82, 0
1, 346075, Note_on_c, 0, 80, 56
1, 346156, Note_on_c, 0, 80, 0
1, 346156, Note_on_c, 0, 79, 52
1, 346156, Note_on_c, 0, 60, 36
1, 346159, Note_on_c, 0, 63, 36
1, 346318, Note_on_c, 0, 79, 0
1, 346318, Note_on_c, 0, 79, 52
1, 346318, Note_on_c, 0, 63, 0
1, 346321, Note_on_c, 0, 60, 0
1, 346321, Note_on_c, 0, 60, 36
1, 346321, Note_on_c, 0, 63, 36
1, 346399, Note_on_c, 0, 79, 0
1, 346481, Note_on_c, 0, 79, 52
1, 346481, Note_on_c, 0, 63, 0
1, 346481, Note_on_c, 0, 60, 0
1, 346484, Note_on_c, 0, 60, 36
1, 346484, Note_on_c, 0, 63, 36
1, 346562, Note_on_c, 0, 79, 0
1, 346647, Note_on_c, 0, 80, 52
1, 346647, Note_on_c, 0, 63, 0
1, 346647, Note_on_c, 0, 60, 0
1, 346650, Note_on_c, 0, 55, 0
1, 346650, Note_on_c, 0, 55, 40
1, 346689, Note_on_c, 0, 80, 0
1, 346689, Note_on_c, 0, 82, 52
1, 346730, Note_on_c, 0, 82, 0
1, 346730, Note_on_c, 0, 80, 56
1, 346813, Note_on_c, 0, 80, 0
1, 346813, Note_on_c, 0, 79, 52
1, 346813, Note_on_c, 0, 59, 36
1, 346816, Note_on_c, 0, 62, 36
1, 346980, Note_on_c, 0, 79, 0
1, 346980, Note_on_c, 0, 79, 52
1, 346980, Note_on_c, 0, 62, 0
1, 346983, Note_on_c, 0, 59, 0
1, 346983, Note_on_c, 0, 59, 36
1, 346983, Note_on_c, 0, 62, 36
1, 347063, Note_on_c, 0, 79, 0
1, 347146, Note_on_c, 0, 79, 52
1, 347146, Note_on_c, 0, 62, 0
1, 347146, Note_on_c, 0, 59, 0
1, 347149, Note_on_c, 0, 59, 36
1, 347149, Note_on_c, 0, 62, 36
1, 347229, Note_on_c, 0, 79, 0
1, 347313, Note_on_c, 0, 62, 0
1, 347313, Note_on_c, 0, 59, 0
1, 347313, Note_on_c, 0, 55, 0
1, 347316, Note_on_c, 0, 48, 46
1, 347399, Control_c, 0, 64, 127
1, 347425, Note_on_c, 0, 60, 35
1, 347425, Note_on_c, 0, 55, 34
1, 347537, Note_on_c, 0, 60, 0
1, 347537, Note_on_c, 0, 63, 39
1, 347537, Note_on_c, 0, 55, 0
1, 347540, Note_on_c, 0, 51, 36
1, 347616, Note_on_c, 0, 63, 0
1, 347616, Note_on_c, 0, 60, 39
1, 347616, Note_on_c, 0, 51, 0
1, 347619, Note_on_c, 0, 55, 34
1, 347694, Note_on_c, 0, 60, 0
1, 347694, Note_on_c, 0, 72, 55
1, 347694, Note_on_c, 0, 55, 0
1, 347697, Note_on_c, 0, 51, 42
1, 347771, Note_on_c, 0, 60, 38
1, 347771, Note_on_c, 0, 51, 0
1, 347771, Note_on_c, 0, 55, 35
1, 347849, Note_on_c, 0, 60, 0
1, 347849, Note_on_c, 0, 63, 40
1, 347849, Note_on_c, 0, 55, 0
1, 347852, Note_on_c, 0, 51, 38
1, 347927, Note_on_c, 0, 63, 0
1, 347927, Note_on_c, 0, 60, 38
1, 347927, Note_on_c, 0, 51, 0
1, 347930, Note_on_c, 0, 55, 36
1, 348004, Note_on_c, 0, 60, 0
1, 348004, Note_on_c, 0, 63, 41
1, 348004, Note_on_c, 0, 55, 0
1, 348007, Note_on_c, 0, 51, 44
1, 348010, Control_c, 0, 64, 0
1, 348045, Control_c, 0, 64, 127
1, 348081, Note_on_c, 0, 63, 0
1, 348081, Note_on_c, 0, 60, 40
1, 348081, Note_on_c, 0, 51, 0
1, 348084, Note_on_c, 0, 55, 36
1, 348158, Note_on_c, 0, 60, 0
1, 348158, Note_on_c, 0, 63, 42
1, 348158, Note_on_c, 0, 55, 0
1, 348161, Note_on_c, 0, 51, 39
1, 348235, Note_on_c, 0, 63, 0
1, 348235, Note_on_c, 0, 60, 39
1, 348235, Note_on_c, 0, 51, 0
1, 348238, Note_on_c, 0, 55, 36
1, 348311, Note_on_c, 0, 60, 0
1, 348311, Note_on_c, 0, 72, 0
1, 348311, Note_on_c, 0, 72, 60
1, 348314, Note_on_c, 0, 55, 0
1, 348314, Note_on_c, 0, 48, 0
1, 348314, Note_on_c, 0, 48, 46
1, 348388, Note_on_c, 0, 60, 40
1, 348388, Note_on_c, 0, 55, 38
1, 348465, Note_on_c, 0, 60, 0
1, 348465, Note_on_c, 0, 63, 43
1, 348465, Note_on_c, 0, 55, 0
1, 348468, Note_on_c, 0, 51, 42
1, 348542, Note_on_c, 0, 63, 0
1, 348542, Note_on_c, 0, 60, 42
1, 348542, Note_on_c, 0, 51, 0
1, 348545, Note_on_c, 0, 55, 38
1, 348619, Note_on_c, 0, 60, 0
1, 348619, Note_on_c, 0, 72, 0
1, 348619, Note_on_c, 0, 55, 0
1, 348622, Note_on_c, 0, 48, 0
1, 348622, Note_on_c, 0, 46, 55
1, 348622, Control_c, 0, 64, 0
1, 348684, Control_c, 0, 64, 127
1, 348704, Note_on_c, 0, 61, 42
1, 348704, Note_on_c, 0, 55, 40
1, 348787, Note_on_c, 0, 61, 0
1, 348787, Note_on_c, 0, 64, 46
1, 348787, Note_on_c, 0, 55, 0
1, 348790, Note_on_c, 0, 52, 42
1, 348865, Note_on_c, 0, 64, 0
1, 348865, Note_on_c, 0, 61, 45
1, 348865, Note_on_c, 0, 52, 0
1, 348868, Note_on_c, 0, 55, 39
1, 348943, Note_on_c, 0, 61, 0
1, 348943, Note_on_c, 0, 73, 64
1, 348943, Note_on_c, 0, 55, 0
1, 348946, Note_on_c, 0, 52, 48
1, 349021, Note_on_c, 0, 61, 43
1, 349021, Note_on_c, 0, 52, 0
1, 349021, Note_on_c, 0, 55, 40
1, 349098, Note_on_c, 0, 61, 0
1, 349098, Note_on_c, 0, 64, 45
1, 349098, Note_on_c, 0, 55, 0
1, 349101, Note_on_c, 0, 52, 43
1, 349176, Note_on_c, 0, 64, 0
1, 349176, Note_on_c, 0, 61, 42
1, 349176, Note_on_c, 0, 52, 0
1, 349179, Note_on_c, 0, 55, 40
1, 349253, Note_on_c, 0, 61, 0
1, 349253, Note_on_c, 0, 64, 45
1, 349253, Note_on_c, 0, 55, 0
1, 349256, Note_on_c, 0, 52, 48
1, 349259, Control_c, 0, 64, 0
1, 349295, Control_c, 0, 64, 127
1, 349331, Note_on_c, 0, 64, 0
1, 349331, Note_on_c, 0, 61, 43
1, 349331, Note_on_c, 0, 52, 0
1, 349334, Note_on_c, 0, 55, 39
1, 349408, Note_on_c, 0, 61, 0
1, 349408, Note_on_c, 0, 64, 45
1, 349408, Note_on_c, 0, 55, 0
1, 349411, Note_on_c, 0, 52, 42
1, 349485, Note_on_c, 0, 64, 0
1, 349485, Note_on_c, 0, 61, 42
1, 349485, Note_on_c, 0, 52, 0
1, 349488, Note_on_c, 0, 55, 39
1, 349562, Note_on_c, 0, 61, 0
1, 349562, Note_on_c, 0, 73, 0
1, 349562, Note_on_c, 0, 73, 63
1, 349565, Note_on_c, 0, 55, 0
1, 349565, Note_on_c, 0, 46, 0
1, 349565, Note_on_c, 0, 46, 48
1, 349639, Note_on_c, 0, 61, 42
1, 349639, Note_on_c, 0, 55, 40
1, 349717, Note_on_c, 0, 61, 0
1, 349717, Note_on_c, 0, 64, 45
1, 349717, Note_on_c, 0, 55, 0
1, 349720, Note_on_c, 0, 52, 43
1, 349794, Note_on_c, 0, 64, 0
1, 349794, Note_on_c, 0, 61, 43
1, 349794, Note_on_c, 0, 52, 0
1, 349797, Note_on_c, 0, 55, 39
1, 349877, Note_on_c, 0, 61, 0
1, 349877, Note_on_c, 0, 73, 0
1, 349877, Note_on_c, 0, 72, 77
1, 349880, Note_on_c, 0, 55, 0
1, 349880, Note_on_c, 0, 46, 0
1, 349880, Note_on_c, 0, 44, 65
1, 349883, Control_c, 0, 64, 0
1, 349934, Note_on_c, 0, 72, 0
1, 349934, Note_on_c, 0, 44, 0
1, 349953, Note_on_c, 0, 60, 51
1, 349953, Note_on_c, 0, 56, 46
1, 350029, Note_on_c, 0, 60, 0
1, 350029, Note_on_c, 0, 65, 55
1, 350029, Note_on_c, 0, 56, 0
1, 350032, Note_on_c, 0, 48, 49
1, 350105, Note_on_c, 0, 65, 0
1, 350105, Note_on_c, 0, 60, 52
1, 350105, Note_on_c, 0, 48, 0
1, 350108, Note_on_c, 0, 56, 45
1, 350181, Note_on_c, 0, 60, 0
1, 350181, Note_on_c, 0, 76, 78
1, 350181, Note_on_c, 0, 56, 0
1, 350184, Note_on_c, 0, 46, 66
1, 350238, Note_on_c, 0, 76, 0
1, 350238, Note_on_c, 0, 46, 0
1, 350257, Note_on_c, 0, 64, 53
1, 350257, Note_on_c, 0, 58, 46
1, 350332, Note_on_c, 0, 64, 0
1, 350332, Note_on_c, 0, 72, 57
1, 350332, Note_on_c, 0, 58, 0
1, 350335, Note_on_c, 0, 48, 53
1, 350407, Note_on_c, 0, 72, 0
1, 350407, Note_on_c, 0, 64, 53
1, 350407, Note_on_c, 0, 48, 0
1, 350410, Note_on_c, 0, 58, 51
1, 350482, Note_on_c, 0, 64, 0
1, 350482, Note_on_c, 0, 77, 82
1, 350482, Note_on_c, 0, 58, 0
1, 350485, Note_on_c, 0, 44, 68
1, 350538, Note_on_c, 0, 77, 0
1, 350538, Note_on_c, 0, 44, 0
1, 350556, Note_on_c, 0, 65, 55
1, 350556, Note_on_c, 0, 56, 48
1, 350629, Note_on_c, 0, 65, 0
1, 350629, Note_on_c, 0, 72, 60
1, 350629, Note_on_c, 0, 56, 0
1, 350632, Note_on_c, 0, 48, 53
1, 350703, Note_on_c, 0, 72, 0
1, 350703, Note_on_c, 0, 65, 55
1, 350703, Note_on_c, 0, 48, 0
1, 350706, Note_on_c, 0, 56, 48
1, 350776, Note_on_c, 0, 65, 0
1, 350776, Note_on_c, 0, 79, 83
1, 350776, Note_on_c, 0, 56, 0
1, 350779, Note_on_c, 0, 43, 70
1, 350831, Note_on_c, 0, 79, 0
1, 350831, Note_on_c, 0, 43, 0
1, 350850, Note_on_c, 0, 67, 57
1, 350850, Note_on_c, 0, 55, 50
1, 350923, Note_on_c, 0, 67, 0
1, 350923, Note_on_c, 0, 72, 60
1, 350923, Note_on_c, 0, 55, 0
1, 350926, Note_on_c, 0, 48, 53
1, 350996, Note_on_c, 0, 72, 0
1, 350996, Note_on_c, 0, 67, 57
1, 350996, Note_on_c, 0, 48, 0
1, 350999, Note_on_c, 0, 55, 48
1, 351070, Note_on_c, 0, 67, 0
1, 351070, Note_on_c, 0, 80, 85
1, 351070, Note_on_c, 0, 55, 0
1, 351073, Note_on_c, 0, 41, 74
1, 351124, Note_on_c, 0, 80, 0
1, 351124, Note_on_c, 0, 41, 0
1, 351142, Note_on_c, 0, 68, 59
1, 351142, Note_on_c, 0, 53, 52
1, 351214, Note_on_c, 0, 68, 0
1, 351214, Note_on_c, 0, 72, 64
1, 351214, Note_on_c, 0, 53, 0
1, 351217, Note_on_c, 0, 48, 55
1, 351287, Note_on_c, 0, 72, 0
1, 351287, Note_on_c, 0, 68, 59
1, 351287, Note_on_c, 0, 48, 0
1, 351290, Note_on_c, 0, 53, 52
1, 351360, Note_on_c, 0, 68, 0
1, 351360, Note_on_c, 0, 81, 91
1, 351360, Note_on_c, 0, 53, 0
1, 351363, Note_on_c, 0, 39, 77
1, 351414, Note_on_c, 0, 81, 0
1, 351414, Note_on_c, 0, 39, 0
1, 351432, Note_on_c, 0, 69, 60
1, 351432, Note_on_c, 0, 51, 51
1, 351504, Note_on_c, 0, 69, 0
1, 351504, Note_on_c, 0, 72, 65
1, 351504, Note_on_c, 0, 51, 0
1, 351507, Note_on_c, 0, 48, 57
1, 351577, Note_on_c, 0, 72, 0
1, 351577, Note_on_c, 0, 69, 61
1, 351577, Note_on_c, 0, 48, 0
1, 351580, Note_on_c, 0, 51, 51
1, 351649, Note_on_c, 0, 69, 0
1, 351649, Note_on_c, 0, 83, 95
1, 351649, Note_on_c, 0, 51, 0
1, 351652, Note_on_c, 0, 38, 79
1, 351704, Note_on_c, 0, 83, 0
1, 351704, Note_on_c, 0, 38, 0
1, 351722, Note_on_c, 0, 71, 61
1, 351722, Note_on_c, 0, 50, 55
1, 351793, Note_on_c, 0, 71, 0
1, 351793, Note_on_c, 0, 77, 68
1, 351793, Note_on_c, 0, 50, 0
1, 351796, Note_on_c, 0, 43, 59
1, 351866, Note_on_c, 0, 77, 0
1, 351866, Note_on_c, 0, 71, 63
1, 351866, Note_on_c, 0, 43, 0
1, 351869, Note_on_c, 0, 50, 53
1, 351938, Note_on_c, 0, 71, 0
1, 351938, Note_on_c, 0, 84, 96
1, 351938, Note_on_c, 0, 50, 0
1, 351941, Note_on_c, 0, 36, 81
1, 351992, Note_on_c, 0, 84, 0
1, 351992, Note_on_c, 0, 36, 0
1, 352010, Note_on_c, 0, 72, 63
1, 352010, Note_on_c, 0, 48, 55
1, 352082, Note_on_c, 0, 72, 0
1, 352082, Note_on_c, 0, 77, 68
1, 352082, Note_on_c, 0, 48, 0
1, 352085, Note_on_c, 0, 43, 61
1, 352154, Note_on_c, 0, 77, 0
1, 352154, Note_on_c, 0, 72, 64
1, 352154, Note_on_c, 0, 43, 0
1, 352157, Note_on_c, 0, 48, 53
1, 352226, Note_on_c, 0, 72, 0
1, 352226, Note_on_c, 0, 86, 96
1, 352226, Note_on_c, 0, 48, 0
1, 352229, Note_on_c, 0, 35, 81
1, 352280, Note_on_c, 0, 86, 0
1, 352280, Note_on_c, 0, 35, 0
1, 352298, Note_on_c, 0, 74, 65
1, 352298, Note_on_c, 0, 47, 57
1, 352371, Note_on_c, 0, 74, 0
1, 352371, Note_on_c, 0, 77, 74
1, 352371, Note_on_c, 0, 47, 0
1, 352374, Note_on_c, 0, 43, 63
1, 352443, Note_on_c, 0, 77, 0
1, 352443, Note_on_c, 0, 74, 65
1, 352443, Note_on_c, 0, 43, 0
1, 352446, Note_on_c, 0, 47, 58
1, 352515, Note_on_c, 0, 74, 0
1, 352515, Note_on_c, 0, 88, 101
1, 352515, Note_on_c, 0, 47, 0
1, 352518, Note_on_c, 0, 34, 83
1, 352570, Note_on_c, 0, 88, 0
1, 352570, Note_on_c, 0, 34, 0
1, 352588, Note_on_c, 0, 76, 67
1, 352588, Note_on_c, 0, 46, 57
1, 352659, Note_on_c, 0, 76, 0
1, 352659, Note_on_c, 0, 79, 73
1, 352659, Note_on_c, 0, 46, 0
1, 352662, Note_on_c, 0, 36, 63
1, 352732, Note_on_c, 0, 79, 0
1, 352732, Note_on_c, 0, 76, 67
1, 352732, Note_on_c, 0, 36, 0
1, 352735, Note_on_c, 0, 46, 60
1, 352804, Note_on_c, 0, 76, 0
1, 352804, Note_on_c, 0, 89, 100
1, 352804, Note_on_c, 0, 46, 0
1, 352807, Note_on_c, 0, 32, 86
1, 352858, Note_on_c, 0, 89, 0
1, 352858, Note_on_c, 0, 32, 0
1, 352876, Note_on_c, 0, 77, 69
1, 352876, Note_on_c, 0, 44, 60
1, 352948, Note_on_c, 0, 77, 0
1, 352948, Note_on_c, 0, 80, 75
1, 352948, Note_on_c, 0, 44, 0
1, 352951, Note_on_c, 0, 36, 65
1, 353021, Note_on_c, 0, 80, 0
1, 353021, Note_on_c, 0, 77, 69
1, 353021, Note_on_c, 0, 36, 0
1, 353024, Note_on_c, 0, 44, 60
1, 353094, Note_on_c, 0, 77, 0
1, 353094, Note_on_c, 0, 86, 102
1, 353094, Note_on_c, 0, 44, 0
1, 353097, Note_on_c, 0, 29, 87
1, 353151, Note_on_c, 0, 86, 0
1, 353151, Note_on_c, 0, 29, 0
1, 353170, Note_on_c, 0, 77, 72
1, 353170, Note_on_c, 0, 41, 66
1, 353246, Note_on_c, 0, 77, 0
1, 353246, Note_on_c, 0, 80, 78
1, 353246, Note_on_c, 0, 41, 0
1, 353249, Note_on_c, 0, 36, 68
1, 353322, Note_on_c, 0, 80, 0
1, 353322, Note_on_c, 0, 77, 72
1, 353322, Note_on_c, 0, 36, 0
1, 353325, Note_on_c, 0, 41, 65
1, 353398, Note_on_c, 0, 77, 0
1, 353398, Note_on_c, 0, 41, 0
1, 353398, Note_on_c, 0, 31, 82
1, 353401, Note_on_c, 0, 43, 95
1, 353442, Control_c, 0, 64, 127
1, 353473, Note_on_c, 0, 75, 89
1, 353546, Note_on_c, 0, 75, 0
1, 353546, Note_on_c, 0, 79, 95
1, 353546, Note_on_c, 0, 43, 0
1, 353549, Note_on_c, 0, 31, 0
1, 353619, Note_on_c, 0, 79, 0
1, 353619, Note_on_c, 0, 75, 89
1, 353692, Note_on_c, 0, 75, 0
1, 353692, Note_on_c, 0, 84, 99
1, 353747, Note_on_c, 0, 84, 0
1, 353766, Note_on_c, 0, 75, 89
1, 353839, Note_on_c, 0, 75, 0
1, 353839, Note_on_c, 0, 79, 95
1, 353915, Note_on_c, 0, 79, 0
1, 353915, Note_on_c, 0, 75, 87
1, 353991, Note_on_c, 0, 75, 0
1, 353991, Note_on_c, 0, 55, 95
1, 353991, Note_on_c, 0, 43, 82
1, 353997, Control_c, 0, 64, 0
1, 354041, Control_c, 0, 64, 127
1, 354067, Note_on_c, 0, 74, 89
1, 354141, Note_on_c, 0, 74, 0
1, 354141, Note_on_c, 0, 77, 95
1, 354141, Note_on_c, 0, 43, 0
1, 354144, Note_on_c, 0, 55, 0
1, 354214, Note_on_c, 0, 77, 0
1, 354214, Note_on_c, 0, 74, 89
1, 354287, Note_on_c, 0, 74, 0
1, 354287, Note_on_c, 0, 83, 99
1, 354342, Note_on_c, 0, 83, 0
1, 354361, Note_on_c, 0, 74, 89
1, 354434, Note_on_c, 0, 74, 0
1, 354434, Note_on_c, 0, 77, 95
1, 354515, Note_on_c, 0, 77, 0
1, 354515, Note_on_c, 0, 74, 87
1, 354599, Note_on_c, 0, 74, 0
1, 354599, Note_on_c, 0, 48, 55
1, 354605, Control_c, 0, 64, 0
1, 354655, Control_c, 0, 64, 127
1, 354678, Note_on_c, 0, 60, 42
1, 354678, Note_on_c, 0, 55, 40
1, 354757, Note_on_c, 0, 60, 0
1, 354757, Note_on_c, 0, 63, 46
1, 354757, Note_on_c, 0, 55, 0
1, 354760, Note_on_c, 0, 51, 42
1, 354835, Note_on_c, 0, 63, 0
1, 354835, Note_on_c, 0, 60, 45
1, 354835, Note_on_c, 0, 51, 0
1, 354838, Note_on_c, 0, 55, 39
1, 354913, Note_on_c, 0, 60, 0
1, 354913, Note_on_c, 0, 72, 64
1, 354913, Note_on_c, 0, 55, 0
1, 354916, Note_on_c, 0, 51, 48
1, 354991, Note_on_c, 0, 60, 43
1, 354991, Note_on_c, 0, 51, 0
1, 354991, Note_on_c, 0, 55, 40
1, 355068, Note_on_c, 0, 60, 0
1, 355068, Note_on_c, 0, 63, 45
1, 355068, Note_on_c, 0, 55, 0
1, 355071, Note_on_c, 0, 51, 43
1, 355146, Note_on_c, 0, 63, 0
1, 355146, Note_on_c, 0, 60, 42
1, 355146, Note_on_c, 0, 51, 0
1, 355149, Note_on_c, 0, 55, 40
1, 355223, Note_on_c, 0, 60, 0
1, 355223, Note_on_c, 0, 63, 45
1, 355223, Note_on_c, 0, 55, 0
1, 355226, Note_on_c, 0, 51, 48
1, 355229, Control_c, 0, 64, 0
1, 355264, Control_c, 0, 64, 127
1, 355300, Note_on_c, 0, 63, 0
1, 355300, Note_on_c, 0, 60, 43
1, 355300, Note_on_c, 0, 51, 0
1, 355303, Note_on_c, 0, 55, 39
1, 355377, Note_on_c, 0, 60, 0
1, 355377, Note_on_c, 0, 63, 45
1, 355377, Note_on_c, 0, 55, 0
1, 355380, Note_on_c, 0, 51, 42
1, 355454, Note_on_c, 0, 63, 0
1, 355454, Note_on_c, 0, 60, 42
1, 355454, Note_on_c, 0, 51, 0
1, 355457, Note_on_c, 0, 55, 39
1, 355531, Note_on_c, 0, 60, 0
1, 355531, Note_on_c, 0, 72, 0
1, 355531, Note_on_c, 0, 72, 63
1, 355534, Note_on_c, 0, 55, 0
1, 355534, Note_on_c, 0, 48, 0
1, 355534, Note_on_c, 0, 48, 48
1, 355608, Note_on_c, 0, 60, 42
1, 355608, Note_on_c, 0, 55, 40
1, 355685, Note_on_c, 0, 60, 0
1, 355685, Note_on_c, 0, 63, 45
1, 355685, Note_on_c, 0, 55, 0
1, 355688, Note_on_c, 0, 51, 43
1, 355762, Note_on_c, 0, 63, 0
1, 355762, Note_on_c, 0, 60, 43
1, 355762, Note_on_c, 0, 51, 0
1, 355765, Note_on_c, 0, 55, 39
1, 355838, Note_on_c, 0, 60, 0
1, 355838, Note_on_c, 0, 72, 0
1, 355838, Note_on_c, 0, 55, 0
1, 355841, Note_on_c, 0, 48, 0
1, 355841, Note_on_c, 0, 46, 55
1, 355841, Control_c, 0, 64, 0
1, 355903, Control_c, 0, 64, 127
1, 355923, Note_on_c, 0, 61, 42
1, 355923, Note_on_c, 0, 55, 40
1, 356006, Note_on_c, 0, 61, 0
1, 356006, Note_on_c, 0, 64, 46
1, 356006, Note_on_c, 0, 55, 0
1, 356009, Note_on_c, 0, 52, 42
1, 356084, Note_on_c, 0, 64, 0
1, 356084, Note_on_c, 0, 61, 45
1, 356084, Note_on_c, 0, 52, 0
1, 356087, Note_on_c, 0, 55, 39
1, 356162, Note_on_c, 0, 61, 0
1, 356162, Note_on_c, 0, 73, 64
1, 356162, Note_on_c, 0, 55, 0
1, 356165, Note_on_c, 0, 52, 48
1, 356240, Note_on_c, 0, 61, 43
1, 356240, Note_on_c, 0, 52, 0
1, 356240, Note_on_c, 0, 55, 40
1, 356318, Note_on_c, 0, 61, 0
1, 356318, Note_on_c, 0, 64, 45
1, 356318, Note_on_c, 0, 55, 0
1, 356321, Note_on_c, 0, 52, 43
1, 356395, Note_on_c, 0, 64, 0
1, 356395, Note_on_c, 0, 61, 42
1, 356395, Note_on_c, 0, 52, 0
1, 356398, Note_on_c, 0, 55, 40
1, 356473, Note_on_c, 0, 61, 0
1, 356473, Note_on_c, 0, 64, 45
1, 356473, Note_on_c, 0, 55, 0
1, 356476, Note_on_c, 0, 52, 48
1, 356479, Control_c, 0, 64, 0
1, 356514, Control_c, 0, 64, 127
1, 356550, Note_on_c, 0, 64, 0
1, 356550, Note_on_c, 0, 61, 43
1, 356550, Note_on_c, 0, 52, 0
1, 356553, Note_on_c, 0, 55, 39
1, 356627, Note_on_c, 0, 61, 0
1, 356627, Note_on_c, 0, 64, 45
1, 356627, Note_on_c, 0, 55, 0
1, 356630, Note_on_c, 0, 52, 42
1, 356704, Note_on_c, 0, 64, 0
1, 356704, Note_on_c, 0, 61, 42
1, 356704, Note_on_c, 0, 52, 0
1, 356707, Note_on_c, 0, 55, 39
1, 356781, Note_on_c, 0, 61, 0
1, 356781, Note_on_c, 0, 73, 0
1, 356781, Note_on_c, 0, 73, 63
1, 356784, Note_on_c, 0, 55, 0
1, 356784, Note_on_c, 0, 46, 0
1, 356784, Note_on_c, 0, 46, 48
1, 356859, Note_on_c, 0, 61, 42
1, 356859, Note_on_c, 0, 55, 40
1, 356936, Note_on_c, 0, 61, 0
1, 356936, Note_on_c, 0, 64, 45
1, 356936, Note_on_c, 0, 55, 0
1, 356939, Note_on_c, 0, 52, 43
1, 357013, Note_on_c, 0, 64, 0
1, 357013, Note_on_c, 0, 61, 43
1, 357013, Note_on_c, 0, 52, 0
1, 357016, Note_on_c, 0, 55, 39
1, 357097, Note_on_c, 0, 61, 0
1, 357097, Note_on_c, 0, 73, 0
1, 357097, Note_on_c, 0, 72, 77
1, 357100, Note_on_c, 0, 55, 0
1, 357100, Note_on_c, 0, 46, 0
1, 357100, Note_on_c, 0, 44, 65
1, 357100, Control_c, 0, 64, 0
1, 357154, Note_on_c, 0, 72, 0
1, 357154, Note_on_c, 0, 44, 0
1, 357173, Note_on_c, 0, 60, 51
1, 357173, Note_on_c, 0, 56, 46
1, 357249, Note_on_c, 0, 60, 0
1, 357249, Note_on_c, 0, 65, 55
1, 357249, Note_on_c, 0, 56, 0
1, 357252, Note_on_c, 0, 48, 49
1, 357325, Note_on_c, 0, 65, 0
1, 357325, Note_on_c, 0, 60, 52
1, 357325, Note_on_c, 0, 48, 0
1, 357328, Note_on_c, 0, 56, 45
1, 357400, Note_on_c, 0, 60, 0
1, 357400, Note_on_c, 0, 76, 78
1, 357400, Note_on_c, 0, 56, 0
1, 357403, Note_on_c, 0, 46, 66
1, 357457, Note_on_c, 0, 76, 0
1, 357457, Note_on_c, 0, 46, 0
1, 357476, Note_on_c, 0, 64, 53
1, 357476, Note_on_c, 0, 58, 46
1, 357551, Note_on_c, 0, 64, 0
1, 357551, Note_on_c, 0, 72, 57
1, 357551, Note_on_c, 0, 58, 0
1, 357554, Note_on_c, 0, 48, 53
1, 357627, Note_on_c, 0, 72, 0
1, 357627, Note_on_c, 0, 64, 53
1, 357627, Note_on_c, 0, 48, 0
1, 357630, Note_on_c, 0, 58, 51
1, 357702, Note_on_c, 0, 64, 0
1, 357702, Note_on_c, 0, 77, 82
1, 357702, Note_on_c, 0, 58, 0
1, 357705, Note_on_c, 0, 44, 68
1, 357757, Note_on_c, 0, 77, 0
1, 357757, Note_on_c, 0, 44, 0
1, 357775, Note_on_c, 0, 65, 55
1, 357775, Note_on_c, 0, 56, 48
1, 357849, Note_on_c, 0, 65, 0
1, 357849, Note_on_c, 0, 72, 60
1, 357849, Note_on_c, 0, 56, 0
1, 357852, Note_on_c, 0, 48, 53
1, 357922, Note_on_c, 0, 72, 0
1, 357922, Note_on_c, 0, 65, 55
1, 357922, Note_on_c, 0, 48, 0
1, 357925, Note_on_c, 0, 56, 48
1, 357995, Note_on_c, 0, 65, 0
1, 357995, Note_on_c, 0, 79, 83
1, 357995, Note_on_c, 0, 56, 0
1, 357998, Note_on_c, 0, 43, 70
1, 358050, Note_on_c, 0, 79, 0
1, 358050, Note_on_c, 0, 43, 0
1, 358069, Note_on_c, 0, 67, 57
1, 358069, Note_on_c, 0, 55, 50
1, 358142, Note_on_c, 0, 67, 0
1, 358142, Note_on_c, 0, 72, 60
1, 358142, Note_on_c, 0, 55, 0
1, 358145, Note_on_c, 0, 48, 53
1, 358216, Note_on_c, 0, 72, 0
1, 358216, Note_on_c, 0, 67, 57
1, 358216, Note_on_c, 0, 48, 0
1, 358219, Note_on_c, 0, 55, 48
1, 358289, Note_on_c, 0, 67, 0
1, 358289, Note_on_c, 0, 80, 85
1, 358289, Note_on_c, 0, 55, 0
1, 358292, Note_on_c, 0, 41, 74
1, 358343, Note_on_c, 0, 80, 0
1, 358343, Note_on_c, 0, 41, 0
1, 358361, Note_on_c, 0, 68, 59
1, 358361, Note_on_c, 0, 53, 52
1, 358434, Note_on_c, 0, 68, 0
1, 358434, Note_on_c, 0, 72, 64
1, 358434, Note_on_c, 0, 53, 0
1, 358437, Note_on_c, 0, 48, 55
1, 358507, Note_on_c, 0, 72, 0
1, 358507, Note_on_c, 0, 68, 59
1, 358507, Note_on_c, 0, 48, 0
1, 358510, Note_on_c, 0, 53, 52
1, 358579, Note_on_c, 0, 68, 0
1, 358579, Note_on_c, 0, 81, 91
1, 358579, Note_on_c, 0, 53, 0
1, 358582, Note_on_c, 0, 39, 77
1, 358633, Note_on_c, 0, 81, 0
1, 358633, Note_on_c, 0, 39, 0
1, 358652, Note_on_c, 0, 69, 60
1, 358652, Note_on_c, 0, 51, 51
1, 358724, Note_on_c, 0, 69, 0
1, 358724, Note_on_c, 0, 72, 65
1, 358724, Note_on_c, 0, 51, 0
1, 358727, Note_on_c, 0, 48, 57
1, 358796, Note_on_c, 0, 72, 0
1, 358796, Note_on_c, 0, 69, 61
1, 358796, Note_on_c, 0, 48, 0
1, 358799, Note_on_c, 0, 51, 51
1, 358869, Note_on_c, 0, 69, 0
1, 358869, Note_on_c, 0, 83, 95
1, 358869, Note_on_c, 0, 51, 0
1, 358872, Note_on_c, 0, 38, 79
1, 358924, Note_on_c, 0, 83, 0
1, 358924, Note_on_c, 0, 38, 0
1, 358942, Note_on_c, 0, 71, 61
1, 358942, Note_on_c, 0, 50, 55
1, 359014, Note_on_c, 0, 71, 0
1, 359014, Note_on_c, 0, 77, 68
1, 359014, Note_on_c, 0, 50, 0
1, 359017, Note_on_c, 0, 43, 59
1, 359087, Note_on_c, 0, 77, 0
1, 359087, Note_on_c, 0, 71, 63
1, 359087, Note_on_c, 0, 43, 0
1, 359090, Note_on_c, 0, 50, 53
1, 359159, Note_on_c, 0, 71, 0
1, 359159, Note_on_c, 0, 84, 96
1, 359159, Note_on_c, 0, 50, 0
1, 359162, Note_on_c, 0, 36, 81
1, 359214, Note_on_c, 0, 84, 0
1, 359214, Note_on_c, 0, 36, 0
1, 359232, Note_on_c, 0, 72, 63
1, 359232, Note_on_c, 0, 48, 55
1, 359304, Note_on_c, 0, 72, 0
1, 359304, Note_on_c, 0, 77, 68
1, 359304, Note_on_c, 0, 48, 0
1, 359307, Note_on_c, 0, 43, 61
1, 359376, Note_on_c, 0, 77, 0
1, 359376, Note_on_c, 0, 72, 64
1, 359376, Note_on_c, 0, 43, 0
1, 359379, Note_on_c, 0, 48, 53
1, 359449, Note_on_c, 0, 72, 0
1, 359449, Note_on_c, 0, 86, 96
1, 359449, Note_on_c, 0, 48, 0
1, 359452, Note_on_c, 0, 35, 81
1, 359504, Note_on_c, 0, 86, 0
1, 359504, Note_on_c, 0, 35, 0
1, 359522, Note_on_c, 0, 74, 65
1, 359522, Note_on_c, 0, 47, 57
1, 359594, Note_on_c, 0, 74, 0
1, 359594, Note_on_c, 0, 77, 74
1, 359594, Note_on_c, 0, 47, 0
1, 359597, Note_on_c, 0, 43, 63
1, 359666, Note_on_c, 0, 77, 0
1, 359666, Note_on_c, 0, 74, 65
1, 359666, Note_on_c, 0, 43, 0
1, 359669, Note_on_c, 0, 47, 58
1, 359739, Note_on_c, 0, 74, 0
1, 359739, Note_on_c, 0, 88, 101
1, 359739, Note_on_c, 0, 47, 0
1, 359742, Note_on_c, 0, 34, 83
1, 359793, Note_on_c, 0, 88, 0
1, 359793, Note_on_c, 0, 34, 0
1, 359811, Note_on_c, 0, 76, 67
1, 359811, Note_on_c, 0, 46, 57
1, 359882, Note_on_c, 0, 76, 0
1, 359882, Note_on_c, 0, 79, 73
1, 359882, Note_on_c, 0, 46, 0
1, 359885, Note_on_c, 0, 36, 63
1, 359955, Note_on_c, 0, 79, 0
1, 359955, Note_on_c, 0, 76, 67
1, 359955, Note_on_c, 0, 36, 0
1, 359958, Note_on_c, 0, 46, 60
1, 360027, Note_on_c, 0, 76, 0
1, 360027, Note_on_c, 0, 89, 100
1, 360027, Note_on_c, 0, 46, 0
1, 360030, Note_on_c, 0, 32, 86
1, 360081, Note_on_c, 0, 89, 0
1, 360081, Note_on_c, 0, 32, 0
1, 360100, Note_on_c, 0, 77, 69
1, 360100, Note_on_c, 0, 44, 60
1, 360173, Note_on_c, 0, 77, 0
1, 360173, Note_on_c, 0, 80, 75
1, 360173, Note_on_c, 0, 44, 0
1, 360176, Note_on_c, 0, 36, 65
1, 360246, Note_on_c, 0, 80, 0
1, 360246, Note_on_c, 0, 77, 69
1, 360246, Note_on_c, 0, 36, 0
1, 360249, Note_on_c, 0, 44, 60
1, 360319, Note_on_c, 0, 77, 0
1, 360319, Note_on_c, 0, 86, 102
1, 360319, Note_on_c, 0, 44, 0
1, 360322, Note_on_c, 0, 29, 87
1, 360376, Note_on_c, 0, 86, 0
1, 360376, Note_on_c, 0, 29, 0
1, 360395, Note_on_c, 0, 77, 72
1, 360395, Note_on_c, 0, 41, 66
1, 360471, Note_on_c, 0, 77, 0
1, 360471, Note_on_c, 0, 80, 78
1, 360471, Note_on_c, 0, 41, 0
1, 360474, Note_on_c, 0, 36, 68
1, 360547, Note_on_c, 0, 80, 0
1, 360547, Note_on_c, 0, 77, 72
1, 360547, Note_on_c, 0, 36, 0
1, 360550, Note_on_c, 0, 41, 65
1, 360623, Note_on_c, 0, 77, 0
1, 360623, Note_on_c, 0, 41, 0
1, 360623, Note_on_c, 0, 31, 82
1, 360626, Note_on_c, 0, 43, 95
1, 360673, Control_c, 0, 64, 127
1, 360700, Note_on_c, 0, 75, 89
1, 360773, Note_on_c, 0, 75, 0
1, 360773, Note_on_c, 0, 79, 95
1, 360773, Note_on_c, 0, 43, 0
1, 360776, Note_on_c, 0, 31, 0
1, 360846, Note_on_c, 0, 79, 0
1, 360846, Note_on_c, 0, 75, 89
1, 360919, Note_on_c, 0, 75, 0
1, 360919, Note_on_c, 0, 84, 99
1, 360974, Note_on_c, 0, 84, 0
1, 360992, Note_on_c, 0, 75, 89
1, 361065, Note_on_c, 0, 75, 0
1, 361065, Note_on_c, 0, 79, 95
1, 361142, Note_on_c, 0, 79, 0
1, 361142, Note_on_c, 0, 75, 87
1, 361218, Note_on_c, 0, 75, 0
1, 361218, Note_on_c, 0, 55, 95
1, 361218, Note_on_c, 0, 43, 82
1, 361224, Control_c, 0, 64, 0
1, 361267, Control_c, 0, 64, 127
1, 361294, Note_on_c, 0, 74, 89
1, 361367, Note_on_c, 0, 74, 0
1, 361367, Note_on_c, 0, 77, 95
1, 361367, Note_on_c, 0, 43, 0
1, 361370, Note_on_c, 0, 55, 0
1, 361441, Note_on_c, 0, 77, 0
1, 361441, Note_on_c, 0, 74, 89
1, 361514, Note_on_c, 0, 74, 0
1, 361514, Note_on_c, 0, 83, 99
1, 361569, Note_on_c, 0, 83, 0
1, 361587, Note_on_c, 0, 74, 89
1, 361661, Note_on_c, 0, 74, 0
1, 361661, Note_on_c, 0, 77, 95
1, 361737, Note_on_c, 0, 77, 0
1, 361737, Note_on_c, 0, 74, 87
1, 361813, Note_on_c, 0, 74, 0
1, 361813, Note_on_c, 0, 72, 92
1, 361813, Control_c, 0, 64, 0
1, 361816, Note_on_c, 0, 48, 95
1, 361872, Note_on_c, 0, 72, 0
1, 361970, Note_on_c, 0, 84, 68
1, 361970, Note_on_c, 0, 48, 0
1, 361970, Note_on_c, 0, 60, 44
1, 361973, Note_on_c, 0, 63, 44
1, 361987, Control_c, 0, 64, 127
1, 362119, Note_on_c, 0, 63, 0
1, 362119, Note_on_c, 0, 60, 0
1, 362119, Note_on_c, 0, 60, 44
1, 362122, Note_on_c, 0, 63, 44
1, 362268, Note_on_c, 0, 84, 0
1, 362268, Note_on_c, 0, 83, 56
1, 362268, Note_on_c, 0, 63, 0
1, 362271, Note_on_c, 0, 60, 0
1, 362271, Note_on_c, 0, 60, 44
1, 362271, Note_on_c, 0, 63, 44
1, 362343, Note_on_c, 0, 83, 0
1, 362343, Note_on_c, 0, 84, 58
1, 362419, Note_on_c, 0, 84, 0
1, 362419, Note_on_c, 0, 86, 59
1, 362419, Note_on_c, 0, 63, 0
1, 362422, Note_on_c, 0, 60, 0
1, 362422, Note_on_c, 0, 56, 44
1, 362425, Control_c, 0, 64, 0
1, 362460, Control_c, 0, 64, 127
1, 362496, Note_on_c, 0, 86, 0
1, 362496, Note_on_c, 0, 84, 59
1, 362572, Note_on_c, 0, 84, 0
1, 362572, Note_on_c, 0, 82, 58
1, 362572, Note_on_c, 0, 60, 44
1, 362575, Note_on_c, 0, 63, 44
1, 362646, Note_on_c, 0, 82, 0
1, 362646, Note_on_c, 0, 80, 57
1, 362720, Note_on_c, 0, 80, 0
1, 362720, Note_on_c, 0, 79, 55
1, 362720, Note_on_c, 0, 63, 0
1, 362723, Note_on_c, 0, 60, 0
1, 362723, Note_on_c, 0, 60, 44
1, 362723, Note_on_c, 0, 63, 44
1, 362795, Note_on_c, 0, 79, 0
1, 362795, Note_on_c, 0, 80, 56
1, 362869, Note_on_c, 0, 80, 0
1, 362869, Note_on_c, 0, 82, 59
1, 362869, Note_on_c, 0, 63, 0
1, 362872, Note_on_c, 0, 60, 0
1, 362872, Note_on_c, 0, 60, 44
1, 362872, Note_on_c, 0, 63, 44
1, 362944, Note_on_c, 0, 82, 0
1, 362944, Note_on_c, 0, 80, 57
1, 363020, Note_on_c, 0, 80, 0
1, 363020, Note_on_c, 0, 79, 59
1, 363020, Note_on_c, 0, 63, 0
1, 363023, Note_on_c, 0, 60, 0
1, 363023, Note_on_c, 0, 56, 0
1, 363023, Note_on_c, 0, 53, 44
1, 363023, Control_c, 0, 64, 0
1, 363060, Control_c, 0, 64, 127
1, 363096, Note_on_c, 0, 79, 0
1, 363096, Note_on_c, 0, 77, 57
1, 363170, Note_on_c, 0, 77, 0
1, 363170, Note_on_c, 0, 75, 56
1, 363170, Note_on_c, 0, 62, 44
1, 363173, Note_on_c, 0, 60, 44
1, 363245, Note_on_c, 0, 75, 0
1, 363245, Note_on_c, 0, 74, 55
1, 363319, Note_on_c, 0, 74, 0
1, 363319, Note_on_c, 0, 73, 55
1, 363319, Note_on_c, 0, 60, 0
1, 363322, Note_on_c, 0, 62, 0
1, 363322, Note_on_c, 0, 60, 44
1, 363322, Note_on_c, 0, 62, 44
1, 363393, Note_on_c, 0, 73, 0
1, 363393, Note_on_c, 0, 74, 55
1, 363467, Note_on_c, 0, 74, 0
1, 363467, Note_on_c, 0, 75, 57
1, 363467, Note_on_c, 0, 62, 0
1, 363470, Note_on_c, 0, 60, 0
1, 363470, Note_on_c, 0, 60, 44
1, 363470, Note_on_c, 0, 62, 44
1, 363542, Note_on_c, 0, 75, 0
1, 363542, Note_on_c, 0, 74, 55
1, 363617, Note_on_c, 0, 74, 0
1, 363617, Note_on_c, 0, 72, 56
1, 363617, Note_on_c, 0, 62, 0
1, 363620, Note_on_c, 0, 60, 0
1, 363620, Note_on_c, 0, 53, 0
1, 363620, Note_on_c, 0, 55, 44
1, 363624, Control_c, 0, 64, 0
1, 363679, Control_c, 0, 64, 127
1, 363693, Note_on_c, 0, 72, 0
1, 363693, Note_on_c, 0, 71, 56
1, 363768, Note_on_c, 0, 71, 0
1, 363768, Note_on_c, 0, 68, 55
1, 363768, Note_on_c, 0, 59, 44
1, 363771, Note_on_c, 0, 62, 44
1, 363842, Note_on_c, 0, 68, 0
1, 363842, Note_on_c, 0, 67, 55
1, 363917, Note_on_c, 0, 67, 0
1, 363917, Note_on_c, 0, 66, 55
1, 363917, Note_on_c, 0, 62, 0
1, 363920, Note_on_c, 0, 59, 0
1, 363920, Note_on_c, 0, 59, 44
1, 363920, Note_on_c, 0, 62, 44
1, 363991, Note_on_c, 0, 66, 0
1, 363991, Note_on_c, 0, 67, 52
1, 364066, Note_on_c, 0, 67, 0
1, 364066, Note_on_c, 0, 68, 56
1, 364066, Note_on_c, 0, 62, 0
1, 364069, Note_on_c, 0, 59, 0
1, 364069, Note_on_c, 0, 59, 44
1, 364069, Note_on_c, 0, 62, 44
1, 364140, Note_on_c, 0, 68, 0
1, 364140, Note_on_c, 0, 65, 52
1, 364214, Note_on_c, 0, 65, 0
1, 364214, Note_on_c, 0, 63, 77
1, 364214, Note_on_c, 0, 62, 0
1, 364217, Note_on_c, 0, 59, 0
1, 364217, Note_on_c, 0, 55, 0
1, 364217, Note_on_c, 0, 48, 69
1, 364217, Control_c, 0, 64, 0
1, 364273, Note_on_c, 0, 63, 0
1, 364371, Note_on_c, 0, 72, 79
1, 364371, Note_on_c, 0, 84, 79
1, 364371, Note_on_c, 0, 51, 54
1, 364374, Note_on_c, 0, 60, 54
1, 364389, Control_c, 0, 64, 127
1, 364520, Note_on_c, 0, 60, 0
1, 364520, Note_on_c, 0, 51, 0
1, 364520, Note_on_c, 0, 51, 54
1, 364523, Note_on_c, 0, 60, 54
1, 364669, Note_on_c, 0, 84, 0
1, 364669, Note_on_c, 0, 72, 0
1, 364669, Note_on_c, 0, 83, 72
1, 364672, Note_on_c, 0, 60, 0
1, 364672, Note_on_c, 0, 51, 0
1, 364672, Note_on_c, 0, 51, 54
1, 364675, Note_on_c, 0, 60, 54
1, 364744, Note_on_c, 0, 83, 0
1, 364744, Note_on_c, 0, 84, 75
1, 364821, Note_on_c, 0, 84, 0
1, 364821, Note_on_c, 0, 86, 77
1, 364821, Note_on_c, 0, 60, 0
1, 364824, Note_on_c, 0, 51, 0
1, 364824, Note_on_c, 0, 48, 0
1, 364824, Note_on_c, 0, 44, 55
1, 364827, Control_c, 0, 64, 0
1, 364861, Control_c, 0, 64, 127
1, 364897, Note_on_c, 0, 86, 0
1, 364897, Note_on_c, 0, 84, 77
1, 364973, Note_on_c, 0, 84, 0
1, 364973, Note_on_c, 0, 82, 76
1, 364973, Note_on_c, 0, 51, 56
1, 364976, Note_on_c, 0, 48, 56
1, 364976, Note_on_c, 0, 56, 56
1, 365047, Note_on_c, 0, 82, 0
1, 365047, Note_on_c, 0, 80, 75
1, 365122, Note_on_c, 0, 80, 0
1, 365122, Note_on_c, 0, 79, 73
1, 365122, Note_on_c, 0, 56, 0
1, 365125, Note_on_c, 0, 48, 0
1, 365125, Note_on_c, 0, 51, 0
1, 365125, Note_on_c, 0, 51, 56
1, 365128, Note_on_c, 0, 48, 56
1, 365128, Note_on_c, 0, 56, 56
1, 365196, Note_on_c, 0, 79, 0
1, 365196, Note_on_c, 0, 80, 75
1, 365270, Note_on_c, 0, 80, 0
1, 365270, Note_on_c, 0, 82, 79
1, 365270, Note_on_c, 0, 56, 0
1, 365273, Note_on_c, 0, 48, 0
1, 365273, Note_on_c, 0, 51, 0
1, 365273, Note_on_c, 0, 51, 57
1, 365276, Note_on_c, 0, 48, 57
1, 365276, Note_on_c, 0, 56, 57
1, 365345, Note_on_c, 0, 82, 0
1, 365345, Note_on_c, 0, 80, 77
1, 365421, Note_on_c, 0, 80, 0
1, 365421, Note_on_c, 0, 79, 80
1, 365421, Note_on_c, 0, 56, 0
1, 365424, Note_on_c, 0, 44, 0
1, 365424, Note_on_c, 0, 51, 0
1, 365424, Note_on_c, 0, 48, 0
1, 365427, Note_on_c, 0, 41, 57
1, 365427, Control_c, 0, 64, 0
1, 365461, Control_c, 0, 64, 127
1, 365497, Note_on_c, 0, 79, 0
1, 365497, Note_on_c, 0, 77, 78
1, 365572, Note_on_c, 0, 77, 0
1, 365572, Note_on_c, 0, 75, 77
1, 365572, Note_on_c, 0, 50, 58
1, 365575, Note_on_c, 0, 53, 58
1, 365575, Note_on_c, 0, 48, 58
1, 365646, Note_on_c, 0, 75, 0
1, 365646, Note_on_c, 0, 74, 76
1, 365720, Note_on_c, 0, 74, 0
1, 365720, Note_on_c, 0, 73, 76
1, 365720, Note_on_c, 0, 48, 0
1, 365723, Note_on_c, 0, 53, 0
1, 365723, Note_on_c, 0, 50, 0
1, 365723, Note_on_c, 0, 50, 58
1, 365726, Note_on_c, 0, 48, 58
1, 365726, Note_on_c, 0, 53, 58
1, 365794, Note_on_c, 0, 73, 0
1, 365794, Note_on_c, 0, 74, 75
1, 365868, Note_on_c, 0, 74, 0
1, 365868, Note_on_c, 0, 75, 79
1, 365868, Note_on_c, 0, 53, 0
1, 365871, Note_on_c, 0, 48, 0
1, 365871, Note_on_c, 0, 50, 0
1, 365871, Note_on_c, 0, 50, 59
1, 365874, Note_on_c, 0, 48, 59
1, 365874, Note_on_c, 0, 53, 59
1, 365943, Note_on_c, 0, 75, 0
1, 365943, Note_on_c, 0, 74, 77
1, 366019, Note_on_c, 0, 74, 0
1, 366019, Note_on_c, 0, 72, 79
1, 366019, Note_on_c, 0, 53, 0
1, 366022, Note_on_c, 0, 41, 0
1, 366022, Note_on_c, 0, 50, 0
1, 366022, Note_on_c, 0, 48, 0
1, 366025, Note_on_c, 0, 43, 59
1, 366025, Control_c, 0, 64, 0
1, 366080, Control_c, 0, 64, 127
1, 366094, Note_on_c, 0, 72, 0
1, 366094, Note_on_c, 0, 71, 79
1, 366169, Note_on_c, 0, 71, 0
1, 366169, Note_on_c, 0, 68, 79
1, 366169, Note_on_c, 0, 50, 60
1, 366172, Note_on_c, 0, 47, 60
1, 366172, Note_on_c, 0, 55, 60
1, 366244, Note_on_c, 0, 68, 0
1, 366244, Note_on_c, 0, 67, 79
1, 366318, Note_on_c, 0, 67, 0
1, 366318, Note_on_c, 0, 66, 78
1, 366318, Note_on_c, 0, 55, 0
1, 366321, Note_on_c, 0, 47, 0
1, 366321, Note_on_c, 0, 50, 0
1, 366321, Note_on_c, 0, 50, 60
1, 366324, Note_on_c, 0, 47, 60
1, 366324, Note_on_c, 0, 55, 60
1, 366392, Note_on_c, 0, 66, 0
1, 366392, Note_on_c, 0, 67, 75
1, 366467, Note_on_c, 0, 67, 0
1, 366467, Note_on_c, 0, 68, 81
1, 366467, Note_on_c, 0, 55, 0
1, 366470, Note_on_c, 0, 47, 0
1, 366470, Note_on_c, 0, 50, 0
1, 366470, Note_on_c, 0, 50, 61
1, 366473, Note_on_c, 0, 47, 61
1, 366473, Note_on_c, 0, 55, 61
1, 366542, Note_on_c, 0, 68, 0
1, 366542, Note_on_c, 0, 67, 75
1, 366622, Note_on_c, 0, 67, 0
1, 366622, Note_on_c, 0, 72, 94
1, 366622, Note_on_c, 0, 55, 0
1, 366625, Note_on_c, 0, 43, 0
1, 366625, Note_on_c, 0, 50, 0
1, 366625, Note_on_c, 0, 47, 0
1, 366628, Note_on_c, 0, 36, 78
1, 366628, Control_c, 0, 64, 0
1, 366705, Note_on_c, 0, 72, 0
1, 366705, Note_on_c, 0, 48, 70
1, 366788, Note_on_c, 0, 60, 93
1, 366788, Note_on_c, 0, 48, 0
1, 366788, Note_on_c, 0, 36, 0
1, 366791, Note_on_c, 0, 36, 78
1, 366862, Note_on_c, 0, 48, 69
1, 366937, Note_on_c, 0, 48, 0
1, 366937, Note_on_c, 0, 36, 0
1, 366937, Note_on_c, 0, 36, 78
1, 367012, Note_on_c, 0, 48, 70
1, 367088, Note_on_c, 0, 60, 0
1, 367088, Note_on_c, 0, 58, 91
1, 367088, Note_on_c, 0, 64, 91
1, 367091, Note_on_c, 0, 48, 0
1, 367091, Note_on_c, 0, 36, 0
1, 367091, Note_on_c, 0, 36, 77
1, 367162, Note_on_c, 0, 64, 0
1, 367162, Note_on_c, 0, 58, 0
1, 367162, Note_on_c, 0, 48, 70
1, 367237, Note_on_c, 0, 56, 92
1, 367237, Note_on_c, 0, 65, 92
1, 367237, Note_on_c, 0, 48, 0
1, 367240, Note_on_c, 0, 36, 0
1, 367240, Note_on_c, 0, 36, 77
1, 367311, Note_on_c, 0, 65, 0
1, 367311, Note_on_c, 0, 56, 0
1, 367311, Note_on_c, 0, 48, 69
1, 367385, Note_on_c, 0, 64, 93
1, 367385, Note_on_c, 0, 67, 93
1, 367385, Note_on_c, 0, 48, 0
1, 367388, Note_on_c, 0, 36, 0
1, 367388, Note_on_c, 0, 36, 77
1, 367460, Note_on_c, 0, 67, 0
1, 367460, Note_on_c, 0, 64, 0
1, 367460, Note_on_c, 0, 48, 70
1, 367534, Note_on_c, 0, 65, 94
1, 367534, Note_on_c, 0, 68, 94
1, 367534, Note_on_c, 0, 48, 0
1, 367537, Note_on_c, 0, 36, 0
1, 367537, Note_on_c, 0, 36, 77
1, 367608, Note_on_c, 0, 68, 0
1, 367608, Note_on_c, 0, 65, 0
1, 367608, Note_on_c, 0, 48, 70
1, 367683, Note_on_c, 0, 62, 96
1, 367683, Note_on_c, 0, 71, 96
1, 367683, Note_on_c, 0, 48, 0
1, 367686, Note_on_c, 0, 36, 0
1, 367686, Note_on_c, 0, 36, 77
1, 367757, Note_on_c, 0, 71, 0
1, 367757, Note_on_c, 0, 62, 0
1, 367757, Note_on_c, 0, 48, 72
1, 367832, Note_on_c, 0, 63, 94
1, 367832, Note_on_c, 0, 72, 94
1, 367832, Note_on_c, 0, 48, 0
1, 367835, Note_on_c, 0, 36, 0
1, 367835, Note_on_c, 0, 36, 78
1, 367910, Note_on_c, 0, 72, 0
1, 367910, Note_on_c, 0, 63, 0
1, 367910, Note_on_c, 0, 48, 70
1, 367988, Note_on_c, 0, 64, 94
1, 367988, Note_on_c, 0, 72, 93
1, 367988, Note_on_c, 0, 48, 0
1, 367991, Note_on_c, 0, 36, 0
1, 367991, Note_on_c, 0, 36, 78
1, 368063, Note_on_c, 0, 48, 69
1, 368137, Note_on_c, 0, 48, 0
1, 368137, Note_on_c, 0, 36, 0
1, 368137, Note_on_c, 0, 36, 78
1, 368213, Note_on_c, 0, 48, 70
1, 368288, Note_on_c, 0, 72, 0
1, 368288, Note_on_c, 0, 64, 0
1, 368288, Note_on_c, 0, 70, 91
1, 368291, Note_on_c, 0, 76, 91
1, 368291, Note_on_c, 0, 48, 0
1, 368291, Note_on_c, 0, 36, 0
1, 368294, Note_on_c, 0, 36, 77
1, 368363, Note_on_c, 0, 76, 0
1, 368363, Note_on_c, 0, 70, 0
1, 368363, Note_on_c, 0, 48, 70
1, 368437, Note_on_c, 0, 68, 92
1, 368437, Note_on_c, 0, 77, 92
1, 368437, Note_on_c, 0, 48, 0
1, 368440, Note_on_c, 0, 36, 0
1, 368440, Note_on_c, 0, 36, 77
1, 368511, Note_on_c, 0, 77, 0
1, 368511, Note_on_c, 0, 68, 0
1, 368511, Note_on_c, 0, 48, 69
1, 368586, Note_on_c, 0, 76, 93
1, 368586, Note_on_c, 0, 79, 93
1, 368586, Note_on_c, 0, 48, 0
1, 368589, Note_on_c, 0, 36, 0
1, 368589, Note_on_c, 0, 36, 77
1, 368660, Note_on_c, 0, 79, 0
1, 368660, Note_on_c, 0, 76, 0
1, 368660, Note_on_c, 0, 48, 70
1, 368735, Note_on_c, 0, 77, 94
1, 368735, Note_on_c, 0, 80, 94
1, 368735, Note_on_c, 0, 48, 0
1, 368738, Note_on_c, 0, 36, 0
1, 368738, Note_on_c, 0, 36, 77
1, 368809, Note_on_c, 0, 80, 0
1, 368809, Note_on_c, 0, 77, 0
1, 368809, Note_on_c, 0, 48, 70
1, 368883, Note_on_c, 0, 74, 96
1, 368883, Note_on_c, 0, 83, 96
1, 368883, Note_on_c, 0, 48, 0
1, 368886, Note_on_c, 0, 36, 0
1, 368886, Note_on_c, 0, 36, 77
1, 368962, Note_on_c, 0, 83, 0
1, 368962, Note_on_c, 0, 74, 0
1, 368962, Note_on_c, 0, 48, 72
1, 369040, Note_on_c, 0, 72, 105
1, 369040, Note_on_c, 0, 84, 105
1, 369040, Note_on_c, 0, 75, 105
1, 369043, Note_on_c, 0, 48, 0
1, 369043, Note_on_c, 0, 36, 0
1, 369043, Note_on_c, 0, 36, 77
1, 369115, Note_on_c, 0, 48, 69
1, 369190, Note_on_c, 0, 48, 0
1, 369190, Note_on_c, 0, 36, 0
1, 369190, Note_on_c, 0, 36, 77
1, 369265, Note_on_c, 0, 48, 70
1, 369340, Note_on_c, 0, 48, 0
1, 369340, Note_on_c, 0, 36, 0
1, 369340, Note_on_c, 0, 36, 77
1, 369415, Note_on_c, 0, 48, 70
1, 369490, Note_on_c, 0, 48, 0
1, 369490, Note_on_c, 0, 36, 0
1, 369490, Note_on_c, 0, 36, 77
1, 369565, Note_on_c, 0, 48, 72
1, 369639, Note_on_c, 0, 75, 0
1, 369639, Note_on_c, 0, 84, 0
1, 369639, Note_on_c, 0, 72, 0
1, 369642, Note_on_c, 0, 60, 99
1, 369642, Note_on_c, 0, 63, 99
1, 369642, Note_on_c, 0, 72, 99
1, 369645, Note_on_c, 0, 48, 0
1, 369645, Note_on_c, 0, 36, 0
1, 369645, Note_on_c, 0, 34, 77
1, 369714, Note_on_c, 0, 46, 69
1, 369788, Note_on_c, 0, 46, 0
1, 369788, Note_on_c, 0, 34, 0
1, 369788, Note_on_c, 0, 34, 77
1, 369863, Note_on_c, 0, 46, 70
1, 369937, Note_on_c, 0, 46, 0
1, 369937, Note_on_c, 0, 34, 0
1, 369937, Note_on_c, 0, 34, 77
1, 370011, Note_on_c, 0, 46, 70
1, 370086, Note_on_c, 0, 46, 0
1, 370086, Note_on_c, 0, 34, 0
1, 370086, Note_on_c, 0, 34, 77
1, 370166, Note_on_c, 0, 46, 72
1, 370247, Note_on_c, 0, 72, 0
1, 370247, Note_on_c, 0, 63, 0
1, 370247, Note_on_c, 0, 60, 0
1, 370250, Note_on_c, 0, 72, 110
1, 370250, Note_on_c, 0, 84, 110
1, 370250, Note_on_c, 0, 75, 110
1, 370253, Note_on_c, 0, 46, 0
1, 370253, Note_on_c, 0, 34, 0
1, 370253, Note_on_c, 0, 32, 77
1, 370322, Note_on_c, 0, 44, 69
1, 370396, Note_on_c, 0, 44, 0
1, 370396, Note_on_c, 0, 32, 0
1, 370396, Note_on_c, 0, 32, 77
1, 370471, Note_on_c, 0, 44, 70
1, 370546, Note_on_c, 0, 44, 0
1, 370546, Note_on_c, 0, 32, 0
1, 370546, Note_on_c, 0, 32, 77
1, 370621, Note_on_c, 0, 44, 70
1, 370696, Note_on_c, 0, 44, 0
1, 370696, Note_on_c, 0, 32, 0
1, 370696, Note_on_c, 0, 32, 77
1, 370771, Note_on_c, 0, 44, 72
1, 370846, Note_on_c, 0, 75, 0
1, 370846, Note_on_c, 0, 84, 0
1, 370846, Note_on_c, 0, 72, 0
1, 370849, Note_on_c, 0, 60, 103
1, 370849, Note_on_c, 0, 63, 103
1, 370849, Note_on_c, 0, 72, 103
1, 370852, Note_on_c, 0, 44, 0
1, 370852, Note_on_c, 0, 32, 0
1, 370852, Note_on_c, 0, 31, 77
1, 370923, Note_on_c, 0, 43, 69
1, 371000, Note_on_c, 0, 43, 0
1, 371000, Note_on_c, 0, 31, 0
1, 371000, Note_on_c, 0, 31, 77
1, 371077, Note_on_c, 0, 43, 70
1, 371154, Note_on_c, 0, 43, 0
1, 371154, Note_on_c, 0, 31, 0
1, 371154, Note_on_c, 0, 31, 77
1, 371230, Note_on_c, 0, 43, 70
1, 371307, Note_on_c, 0, 43, 0
1, 371307, Note_on_c, 0, 31, 0
1, 371307, Note_on_c, 0, 31, 77
1, 371393, Note_on_c, 0, 43, 72
1, 371479, Note_on_c, 0, 72, 0
1, 371479, Note_on_c, 0, 63, 0
1, 371479, Note_on_c, 0, 60, 0
1, 371482, Note_on_c, 0, 81, 113
1, 371482, Note_on_c, 0, 84, 113
1, 371482, Note_on_c, 0, 75, 113
1, 371485, Note_on_c, 0, 87, 113
1, 371485, Note_on_c, 0, 43, 0
1, 371485, Note_on_c, 0, 31, 0
1, 371488, Note_on_c, 0, 30, 79
1, 371488, Note_on_c, 0, 42, 92
1, 372201, Note_on_c, 0, 87, 0
1, 372201, Note_on_c, 0, 81, 0
1, 372201, Note_on_c, 0, 84, 0
1, 372204, Note_on_c, 0, 75, 0
1, 372204, Note_on_c, 0, 60, 113
1, 372204, Note_on_c, 0, 54, 97
1, 372207, Note_on_c, 0, 57, 113
1, 372207, Note_on_c, 0, 63, 113
1, 372207, Note_on_c, 0, 42, 0
1, 372210, Note_on_c, 0, 30, 0
1, 372210, Note_on_c, 0, 45, 95
1, 372210, Note_on_c, 0, 48, 95
1, 372213, Note_on_c, 0, 42, 82
1, 372213, Note_on_c, 0, 51, 95
1, 373697, Note_on_c, 0, 63, 0
1, 373697, Note_on_c, 0, 60, 0
1, 373697, Note_on_c, 0, 54, 0
1, 373700, Note_on_c, 0, 57, 0
1, 373700, Control_c, 0, 91, 127
1, 373700, Note_on_c, 0, 51, 0
1, 373703, Note_on_c, 0, 45, 0
1, 373703, Note_on_c, 0, 48, 0
1, 373703, Note_on_c, 0, 42, 0
1, 376786, Note_on_c, 0, 66, 54
1, 376786, Note_on_c, 0, 69, 54
1, 376786, Note_on_c, 0, 72, 61
1, 376789, Note_on_c, 0, 63, 49
1, 377067, Note_on_c, 0, 72, 0
1, 377067, Note_on_c, 0, 69, 0
1, 377067, Note_on_c, 0, 66, 0
1, 377070, Note_on_c, 0, 66, 56
1, 377070, Note_on_c, 0, 69, 56
1, 377070, Note_on_c, 0, 74, 65
1, 377073, Note_on_c, 0, 63, 0
1, 377073, Note_on_c, 0, 62, 55
1, 377909, Note_on_c, 0, 74, 0
1, 377909, Note_on_c, 0, 69, 0
1, 377909, Note_on_c, 0, 66, 0
1, 377912, Note_on_c, 0, 66, 52
1, 377912, Note_on_c, 0, 69, 60
1, 377912, Note_on_c, 0, 75, 60
1, 377915, Note_on_c, 0, 62, 0
1, 377915, Note_on_c, 0, 60, 49
1, 378240, Note_on_c, 0, 75, 0
1, 378240, Note_on_c, 0, 69, 0
1, 378240, Note_on_c, 0, 66, 0
1, 378243, Note_on_c, 0, 66, 56
1, 378243, Note_on_c, 0, 69, 65
1, 378243, Note_on_c, 0, 75, 65
1, 378246, Note_on_c, 0, 60, 0
1, 378246, Note_on_c, 0, 60, 52
1, 380702, Note_on_c, 0, 75, 0
1, 380702, Note_on_c, 0, 69, 0
1, 380702, Note_on_c, 0, 66, 0
1, 380705, Note_on_c, 0, 67, 41
1, 380705, Note_on_c, 0, 71, 41
1, 380705, Note_on_c, 0, 74, 49
1, 380708, Note_on_c, 0, 60, 0
1, 380708, Note_on_c, 0, 59, 37
1, 381825, Note_on_c, 0, 74, 0
1, 381825, Note_on_c, 0, 71, 0
1, 381825, Note_on_c, 0, 67, 0
1, 381828, Note_on_c, 0, 59, 0
1, 382948, Control_c, 0, 91, 127
1, 386037, Note_on_c, 0, 74, 54
1, 386037, Note_on_c, 0, 71, 54
1, 386037, Note_on_c, 0, 77, 62
1, 386040, Note_on_c, 0, 68, 49
1, 386318, Note_on_c, 0, 77, 0
1, 386318, Note_on_c, 0, 71, 0
1, 386318, Note_on_c, 0, 74, 0
1, 386321, Note_on_c, 0, 71, 56
1, 386321, Note_on_c, 0, 74, 56
1, 386321, Note_on_c, 0, 79, 65
1, 386324, Note_on_c, 0, 68, 0
1, 386324, Note_on_c, 0, 67, 55
1, 387160, Note_on_c, 0, 79, 0
1, 387160, Note_on_c, 0, 74, 0
1, 387160, Note_on_c, 0, 71, 0
1, 387163, Note_on_c, 0, 74, 61
1, 387163, Note_on_c, 0, 80, 61
1, 387163, Note_on_c, 0, 71, 53
1, 387166, Note_on_c, 0, 67, 0
1, 387166, Note_on_c, 0, 65, 49
1, 387485, Note_on_c, 0, 71, 0
1, 387485, Note_on_c, 0, 80, 0
1, 387485, Note_on_c, 0, 74, 0
1, 387488, Note_on_c, 0, 80, 65
1, 387488, Note_on_c, 0, 71, 56
1, 387488, Note_on_c, 0, 74, 65
1, 387491, Note_on_c, 0, 65, 0
1, 387491, Note_on_c, 0, 65, 48
1, 389947, Note_on_c, 0, 74, 0
1, 389947, Note_on_c, 0, 71, 0
1, 389947, Note_on_c, 0, 80, 0
1, 389950, Note_on_c, 0, 72, 42
1, 389950, Note_on_c, 0, 79, 49
1, 389950, Note_on_c, 0, 75, 42
1, 389953, Note_on_c, 0, 65, 0
1, 389953, Note_on_c, 0, 63, 37
1, 391070, Note_on_c, 0, 75, 0
1, 391070, Note_on_c, 0, 79, 0
1, 391070, Note_on_c, 0, 72, 0
1, 391073, Note_on_c, 0, 63, 0
1, 392194, Control_c, 0, 91, 127
1, 395282, Note_on_c, 0, 70, 65
1, 395282, Note_on_c, 0, 79, 65
1, 395282, Note_on_c, 0, 76, 65
1, 395285, Note_on_c, 0, 82, 77
1, 395285, Note_on_c, 0, 61, 52
1, 395285, Note_on_c, 0, 64, 52
1, 395288, Note_on_c, 0, 67, 60
1, 395563, Note_on_c, 0, 82, 0
1, 395563, Note_on_c, 0, 70, 0
1, 395563, Note_on_c, 0, 79, 0
1, 395566, Note_on_c, 0, 76, 0
1, 395566, Note_on_c, 0, 72, 72
1, 395566, Note_on_c, 0, 76, 72
1, 395569, Note_on_c, 0, 79, 72
1, 395569, Note_on_c, 0, 84, 83
1, 395569, Note_on_c, 0, 67, 0
1, 395572, Note_on_c, 0, 64, 0
1, 395572, Note_on_c, 0, 61, 0
1, 395572, Note_on_c, 0, 60, 59
1, 395575, Note_on_c, 0, 64, 59
1, 395575, Note_on_c, 0, 67, 68
1, 396427, Note_on_c, 0, 84, 0
1, 396427, Note_on_c, 0, 72, 0
1, 396427, Note_on_c, 0, 76, 0
1, 396430, Note_on_c, 0, 79, 0
1, 396430, Note_on_c, 0, 73, 75
1, 396430, Note_on_c, 0, 79, 86
1, 396433, Note_on_c, 0, 85, 86
1, 396433, Note_on_c, 0, 76, 75
1, 396433, Note_on_c, 0, 67, 0
1, 396436, Note_on_c, 0, 64, 0
1, 396436, Note_on_c, 0, 60, 0
1, 396436, Note_on_c, 0, 58, 59
1, 396439, Note_on_c, 0, 64, 59
1, 396439, Note_on_c, 0, 67, 68
1, 396796, Note_on_c, 0, 76, 0
1, 396796, Note_on_c, 0, 73, 0
1, 396796, Note_on_c, 0, 79, 0
1, 396799, Note_on_c, 0, 85, 0
1, 396799, Note_on_c, 0, 73, 83
1, 396799, Note_on_c, 0, 85, 95
1, 396802, Note_on_c, 0, 76, 83
1, 396802, Note_on_c, 0, 79, 83
1, 396802, Note_on_c, 0, 67, 0
1, 396805, Note_on_c, 0, 64, 0
1, 396805, Note_on_c, 0, 58, 0
1, 396805, Note_on_c, 0, 56, 70
1, 396808, Note_on_c, 0, 58, 70
1, 396808, Note_on_c, 0, 64, 70
1, 396808, Note_on_c, 0, 67, 83
1, 397225, Control_c, 0, 64, 127
1, 399192, Note_on_c, 0, 79, 0
1, 399192, Note_on_c, 0, 73, 0
1, 399192, Note_on_c, 0, 85, 0
1, 399195, Note_on_c, 0, 76, 0
1, 399195, Note_on_c, 0, 72, 62
1, 399195, Note_on_c, 0, 84, 73
1, 399198, Note_on_c, 0, 67, 0
1, 399198, Note_on_c, 0, 64, 0
1, 399198, Note_on_c, 0, 58, 0
1, 399201, Note_on_c, 0, 60, 56
1, 399201, Note_on_c, 0, 65, 56
1, 399201, Note_on_c, 0, 68, 65
1, 399217, Control_c, 0, 64, 0
1, 399329, Control_c, 0, 64, 127
1, 400390, Note_on_c, 0, 84, 0
1, 400390, Note_on_c, 0, 72, 0
1, 400390, Note_on_c, 0, 70, 70
1, 400393, Note_on_c, 0, 82, 70
1, 400393, Note_on_c, 0, 68, 0
1, 400393, Note_on_c, 0, 65, 0
1, 400396, Note_on_c, 0, 60, 0
1, 400396, Note_on_c, 0, 55, 54
1, 400396, Note_on_c, 0, 60, 54
1, 400399, Note_on_c, 0, 64, 62
1, 400415, Control_c, 0, 64, 0
1, 400495, Control_c, 0, 64, 127
1, 401588, Note_on_c, 0, 82, 0
1, 401588, Note_on_c, 0, 70, 0
1, 401588, Note_on_c, 0, 68, 51
1, 401591, Note_on_c, 0, 80, 59
1, 401591, Note_on_c, 0, 64, 0
1, 401591, Note_on_c, 0, 56, 0
1, 401594, Note_on_c, 0, 55, 0
1, 401594, Note_on_c, 0, 60, 0
1, 401594, Note_on_c, 0, 53, 45
1, 401597, Note_on_c, 0, 60, 45
1, 401597, Note_on_c, 0, 65, 52
1, 401600, Control_c, 0, 64, 0
1, 402102, Control_c, 0, 64, 127
1, 402786, Note_on_c, 0, 80, 0
1, 402786, Note_on_c, 0, 68, 0
1, 402786, Note_on_c, 0, 67, 50
1, 402789, Note_on_c, 0, 79, 58
1, 402789, Note_on_c, 0, 65, 0
1, 402789, Note_on_c, 0, 60, 0
1, 402792, Note_on_c, 0, 53, 0
1, 402792, Note_on_c, 0, 51, 44
1, 402792, Note_on_c, 0, 55, 44
1, 402795, Note_on_c, 0, 60, 50
1, 402795, Control_c, 0, 64, 0
1, 403128, Control_c, 0, 64, 127
1, 403984, Note_on_c, 0, 79, 0
1, 403984, Note_on_c, 0, 67, 0
1, 403984, Note_on_c, 0, 65, 49
1, 403987, Note_on_c, 0, 77, 56
1, 403987, Note_on_c, 0, 60, 0
1, 403987, Note_on_c, 0, 55, 0
1, 403990, Note_on_c, 0, 51, 0
1, 403990, Note_on_c, 0, 50, 42
1, 403990, Note_on_c, 0, 55, 42
1, 403993, Note_on_c, 0, 59, 48
1, 404006, Control_c, 0, 64, 0
1, 404383, Control_c, 0, 64, 127
1, 405182, Note_on_c, 0, 77, 0
1, 405182, Note_on_c, 0, 65, 0
1, 405182, Note_on_c, 0, 63, 47
1, 405185, Note_on_c, 0, 75, 54
1, 405185, Note_on_c, 0, 59, 0
1, 405185, Note_on_c, 0, 55, 0
1, 405188, Note_on_c, 0, 50, 0
1, 405188, Note_on_c, 0, 48, 40
1, 405188, Note_on_c, 0, 55, 40
1, 405191, Note_on_c, 0, 60, 46
1, 405195, Control_c, 0, 64, 0
1, 405524, Control_c, 0, 64, 127
1, 406386, Note_on_c, 0, 75, 0
1, 406386, Note_on_c, 0, 63, 0
1, 406386, Note_on_c, 0, 60, 0
1, 406389, Note_on_c, 0, 55, 0
1, 406389, Note_on_c, 0, 48, 0
1, 406389, Note_on_c, 0, 53, 44
1, 406399, Control_c, 0, 64, 0
1, 406994, Control_c, 0, 64, 127
1, 407676, Note_on_c, 0, 65, 42
1, 407676, Note_on_c, 0, 68, 42
1, 407676, Note_on_c, 0, 74, 48
1, 407679, Note_on_c, 0, 53, 0
1, 409031, Note_on_c, 0, 74, 0
1, 409031, Note_on_c, 0, 68, 0
1, 409031, Note_on_c, 0, 65, 0
1, 409034, Note_on_c, 0, 31, 40
1, 409034, Note_on_c, 0, 43, 46
1, 409060, Control_c, 0, 64, 0
1, 409832, Control_c, 0, 64, 127
1, 410435, Note_on_c, 0, 43, 0
1, 410435, Note_on_c, 0, 31, 0
1, 410435, Note_on_c, 0, 50, 39
1, 410438, Note_on_c, 0, 53, 39
1, 410438, Note_on_c, 0, 59, 45
1, 413002, Note_on_c, 0, 60, 60
1, 413002, Note_on_c, 0, 59, 0
1, 413002, Note_on_c, 0, 53, 0
1, 413005, Note_on_c, 0, 50, 0
1, 413005, Control_c, 0, 64, 0
1, 413005, Note_on_c, 0, 36, 54
1, 413064, Control_c, 0, 64, 127
1, 413079, Note_on_c, 0, 48, 51
1, 413155, Note_on_c, 0, 48, 0
1, 413155, Note_on_c, 0, 36, 0
1, 413155, Note_on_c, 0, 36, 54
1, 413230, Note_on_c, 0, 48, 51
1, 413305, Note_on_c, 0, 48, 0
1, 413305, Note_on_c, 0, 36, 0
1, 413305, Note_on_c, 0, 36, 54
1, 413380, Note_on_c, 0, 48, 51
1, 413418, Control_c, 0, 64, 0
1, 413453, Note_on_c, 0, 60, 0
1, 413453, Note_on_c, 0, 58, 62
1, 413453, Note_on_c, 0, 64, 62
1, 413456, Note_on_c, 0, 48, 0
1, 413456, Note_on_c, 0, 36, 0
1, 413456, Note_on_c, 0, 36, 55
1, 413509, Note_on_c, 0, 64, 0
1, 413509, Note_on_c, 0, 58, 0
1, 413527, Note_on_c, 0, 48, 51
1, 413600, Note_on_c, 0, 56, 64
1, 413600, Note_on_c, 0, 65, 64
1, 413600, Note_on_c, 0, 48, 0
1, 413603, Note_on_c, 0, 36, 0
1, 413603, Note_on_c, 0, 36, 55
1, 413655, Note_on_c, 0, 65, 0
1, 413655, Note_on_c, 0, 56, 0
1, 413673, Note_on_c, 0, 48, 56
1, 413746, Note_on_c, 0, 64, 66
1, 413746, Note_on_c, 0, 67, 66
1, 413746, Note_on_c, 0, 48, 0
1, 413749, Note_on_c, 0, 36, 0
1, 413749, Note_on_c, 0, 36, 57
1, 413800, Note_on_c, 0, 67, 0
1, 413800, Note_on_c, 0, 64, 0
1, 413818, Note_on_c, 0, 48, 57
1, 413890, Note_on_c, 0, 65, 67
1, 413890, Note_on_c, 0, 68, 67
1, 413890, Note_on_c, 0, 48, 0
1, 413893, Note_on_c, 0, 36, 0
1, 413893, Note_on_c, 0, 36, 59
1, 413944, Note_on_c, 0, 68, 0
1, 413944, Note_on_c, 0, 65, 0
1, 413962, Note_on_c, 0, 48, 60
1, 414034, Note_on_c, 0, 62, 69
1, 414034, Note_on_c, 0, 71, 69
1, 414034, Note_on_c, 0, 48, 0
1, 414037, Note_on_c, 0, 36, 0
1, 414037, Note_on_c, 0, 36, 61
1, 414089, Note_on_c, 0, 71, 0
1, 414089, Note_on_c, 0, 62, 0
1, 414107, Note_on_c, 0, 48, 63
1, 414180, Note_on_c, 0, 63, 72
1, 414180, Note_on_c, 0, 72, 72
1, 414180, Note_on_c, 0, 48, 0
1, 414183, Note_on_c, 0, 36, 0
1, 414183, Note_on_c, 0, 36, 65
1, 414238, Note_on_c, 0, 72, 0
1, 414238, Note_on_c, 0, 63, 0
1, 414258, Note_on_c, 0, 48, 60
1, 414331, Control_c, 0, 64, 127
1, 414335, Note_on_c, 0, 64, 65
1, 414335, Note_on_c, 0, 72, 65
1, 414335, Note_on_c, 0, 48, 0
1, 414338, Note_on_c, 0, 36, 0
1, 414338, Note_on_c, 0, 36, 63
1, 414408, Note_on_c, 0, 48, 57
1, 414481, Note_on_c, 0, 48, 0
1, 414481, Note_on_c, 0, 36, 0
1, 414481, Note_on_c, 0, 36, 63
1, 414554, Note_on_c, 0, 48, 57
1, 414627, Note_on_c, 0, 72, 0
1, 414627, Note_on_c, 0, 64, 0
1, 414627, Note_on_c, 0, 70, 61
1, 414630, Note_on_c, 0, 76, 61
1, 414630, Note_on_c, 0, 48, 0
1, 414630, Note_on_c, 0, 36, 0
1, 414633, Control_c, 0, 64, 0
1, 414633, Note_on_c, 0, 36, 54
1, 414682, Note_on_c, 0, 76, 0
1, 414682, Note_on_c, 0, 70, 0
1, 414700, Note_on_c, 0, 48, 50
1, 414773, Note_on_c, 0, 68, 60
1, 414773, Note_on_c, 0, 77, 60
1, 414773, Note_on_c, 0, 48, 0
1, 414776, Note_on_c, 0, 36, 0
1, 414776, Note_on_c, 0, 36, 50
1, 414828, Note_on_c, 0, 77, 0
1, 414828, Note_on_c, 0, 68, 0
1, 414846, Note_on_c, 0, 48, 53
1, 414919, Note_on_c, 0, 76, 63
1, 414919, Note_on_c, 0, 79, 63
1, 414919, Note_on_c, 0, 48, 0
1, 414922, Note_on_c, 0, 36, 0
1, 414922, Note_on_c, 0, 36, 54
1, 414973, Note_on_c, 0, 79, 0
1, 414973, Note_on_c, 0, 76, 0
1, 414991, Note_on_c, 0, 48, 56
1, 415063, Note_on_c, 0, 77, 67
1, 415063, Note_on_c, 0, 80, 67
1, 415063, Note_on_c, 0, 48, 0
1, 415066, Note_on_c, 0, 36, 0
1, 415066, Note_on_c, 0, 36, 58
1, 415118, Note_on_c, 0, 80, 0
1, 415118, Note_on_c, 0, 77, 0
1, 415136, Note_on_c, 0, 48, 60
1, 415208, Note_on_c, 0, 74, 70
1, 415208, Note_on_c, 0, 83, 70
1, 415208, Note_on_c, 0, 48, 0
1, 415211, Note_on_c, 0, 36, 0
1, 415211, Note_on_c, 0, 36, 62
1, 415262, Note_on_c, 0, 83, 0
1, 415262, Note_on_c, 0, 74, 0
1, 415280, Note_on_c, 0, 48, 64
1, 415352, Note_on_c, 0, 75, 68
1, 415352, Note_on_c, 0, 84, 81
1, 415352, Note_on_c, 0, 48, 0
1, 415355, Note_on_c, 0, 36, 0
1, 415355, Note_on_c, 0, 36, 74
1, 415387, Control_c, 0, 64, 127
1, 415427, Note_on_c, 0, 48, 67
1, 415501, Note_on_c, 0, 48, 0
1, 415501, Note_on_c, 0, 36, 0
1, 415501, Note_on_c, 0, 36, 73
1, 415574, Note_on_c, 0, 48, 66
1, 415648, Note_on_c, 0, 84, 0
1, 415648, Note_on_c, 0, 75, 0
1, 415648, Note_on_c, 0, 72, 75
1, 415651, Note_on_c, 0, 75, 86
1, 415651, Note_on_c, 0, 84, 86
1, 415651, Note_on_c, 0, 48, 0
1, 415654, Note_on_c, 0, 36, 0
1, 415654, Note_on_c, 0, 34, 77
1, 415654, Control_c, 0, 64, 0
1, 415704, Control_c, 0, 64, 127
1, 415721, Note_on_c, 0, 46, 72
1, 415795, Note_on_c, 0, 46, 0
1, 415795, Note_on_c, 0, 34, 0
1, 415795, Note_on_c, 0, 34, 79
1, 415870, Note_on_c, 0, 46, 75
1, 415946, Note_on_c, 0, 84, 0
1, 415946, Note_on_c, 0, 75, 0
1, 415946, Note_on_c, 0, 72, 0
1, 415949, Note_on_c, 0, 72, 83
1, 415949, Note_on_c, 0, 75, 83
1, 415949, Note_on_c, 0, 84, 97
1, 415952, Note_on_c, 0, 46, 0
1, 415952, Note_on_c, 0, 34, 0
1, 415952, Note_on_c, 0, 32, 81
1, 415955, Control_c, 0, 64, 0
1, 415986, Control_c, 0, 64, 127
1, 416020, Note_on_c, 0, 44, 83
1, 416094, Note_on_c, 0, 44, 0
1, 416094, Note_on_c, 0, 32, 0
1, 416094, Note_on_c, 0, 32, 84
1, 416168, Note_on_c, 0, 44, 85
1, 416242, Note_on_c, 0, 84, 0
1, 416242, Note_on_c, 0, 75, 0
1, 416242, Note_on_c, 0, 72, 0
1, 416245, Note_on_c, 0, 72, 92
1, 416245, Note_on_c, 0, 75, 92
1, 416245, Note_on_c, 0, 84, 108
1, 416248, Note_on_c, 0, 44, 0
1, 416248, Note_on_c, 0, 32, 0
1, 416248, Note_on_c, 0, 31, 86
1, 416251, Control_c, 0, 64, 0
1, 416290, Control_c, 0, 64, 127
1, 416316, Note_on_c, 0, 43, 84
1, 416390, Note_on_c, 0, 43, 0
1, 416390, Note_on_c, 0, 31, 0
1, 416390, Note_on_c, 0, 31, 87
1, 416465, Note_on_c, 0, 43, 89
1, 416540, Note_on_c, 0, 84, 0
1, 416540, Note_on_c, 0, 75, 0
1, 416540, Note_on_c, 0, 72, 0
1, 416543, Note_on_c, 0, 75, 110
1, 416543, Note_on_c, 0, 81, 110
1, 416543, Note_on_c, 0, 84, 110
1, 416546, Note_on_c, 0, 87, 115
1, 416546, Note_on_c, 0, 43, 0
1, 416546, Note_on_c, 0, 31, 0
1, 416549, Note_on_c, 0, 30, 104
1, 416549, Note_on_c, 0, 42, 104
1, 416549, Control_c, 0, 64, 0
1, 416694, Note_on_c, 0, 87, 0
1, 416694, Note_on_c, 0, 75, 0
1, 416694, Note_on_c, 0, 81, 0
1, 416697, Note_on_c, 0, 84, 0
1, 416697, Note_on_c, 0, 42, 0
1, 416697, Note_on_c, 0, 30, 0
1, 417154, Note_on_c, 0, 66, 90
1, 417154, Note_on_c, 0, 69, 90
1, 417154, Note_on_c, 0, 72, 105
1, 417157, Note_on_c, 0, 75, 105
1, 417157, Note_on_c, 0, 57, 90
1, 417157, Note_on_c, 0, 63, 104
1, 417160, Note_on_c, 0, 60, 104
1, 417160, Note_on_c, 0, 54, 90
1, 417168, Control_c, 0, 64, 127
1, 417305, Note_on_c, 0, 75, 0
1, 417305, Note_on_c, 0, 66, 0
1, 417305, Note_on_c, 0, 69, 0
1, 417308, Note_on_c, 0, 72, 0
1, 417308, Note_on_c, 0, 54, 0
1, 417308, Note_on_c, 0, 57, 0
1, 417311, Note_on_c, 0, 63, 0
1, 417311, Note_on_c, 0, 60, 0
1, 417311, Control_c, 0, 64, 0
1, 417759, Note_on_c, 0, 75, 105
1, 417759, Note_on_c, 0, 67, 90
1, 417759, Note_on_c, 0, 72, 90
1, 417762, Note_on_c, 0, 79, 105
1, 417762, Note_on_c, 0, 60, 104
1, 417762, Note_on_c, 0, 55, 90
1, 417765, Note_on_c, 0, 63, 104
1, 417811, Control_c, 0, 64, 127
1, 417915, Note_on_c, 0, 79, 0
1, 417915, Note_on_c, 0, 75, 0
1, 417915, Note_on_c, 0, 67, 0
1, 417918, Note_on_c, 0, 72, 0
1, 417918, Note_on_c, 0, 63, 0
1, 417918, Note_on_c, 0, 55, 0
1, 417921, Note_on_c, 0, 60, 0
1, 417942, Control_c, 0, 64, 0
1, 418385, Note_on_c, 0, 50, 97
1, 418385, Note_on_c, 0, 55, 115
1, 418385, Note_on_c, 0, 59, 115
1, 418388, Note_on_c, 0, 53, 97
1, 418388, Note_on_c, 0, 43, 100
1, 418388, Note_on_c, 0, 38, 85
1, 418391, Note_on_c, 0, 31, 85
1, 418391, Note_on_c, 0, 35, 85
1, 418420, Control_c, 0, 64, 127
1, 418551, Note_on_c, 0, 53, 0
1, 418551, Note_on_c, 0, 50, 0
1, 418551, Note_on_c, 0, 55, 0
1, 418554, Note_on_c, 0, 59, 0
1, 418554, Note_on_c, 0, 35, 0
1, 418554, Note_on_c, 0, 43, 0
1, 418557, Note_on_c, 0, 38, 0
1, 418557, Note_on_c, 0, 31, 0
1, 418574, Control_c, 0, 64, 0
1, 419051, Note_on_c, 0, 55, 115
1, 419051, Note_on_c, 0, 60, 115
1, 419051, Note_on_c, 0, 51, 97
1, 419054, Note_on_c, 0, 48, 100
1, 419054, Note_on_c, 0, 36, 85
1, 419054, Note_on_c, 0, 39, 85
1, 419057, Note_on_c, 0, 43, 85
1, 419125, Control_c, 0, 64, 127
1, 419217, Note_on_c, 0, 51, 0
1, 419217, Note_on_c, 0, 60, 0
1, 419217, Note_on_c, 0, 55, 0
1, 419220, Note_on_c, 0, 43, 0
1, 419220, Note_on_c, 0, 48, 0
1, 419220, Note_on_c, 0, 36, 0
1, 419223, Note_on_c, 0, 39, 0
1, 419356, Control_c, 0, 64, 0
1, 420854, End_track
0, 0, End_of_file
