0, 0, Header, 0, 1, 480
1, 0, Start_track
1, 0, Title_t, "Sonata in A FlatEdisher Savitski"
1, 0, Text_t, "Beethoven Sonata in A Flat Major, Opus 26 performed on the Yamaha Disklavier by Edisher Savitski--06/08/02\015"
1, 0, SMPTE_offset, 96, 0, 0, 0, 0
1, 0, Time_signature, 4, 2, 24, 8
1, 0, Tempo, 512820
1, 0, System_exclusive, 5, 126, 127, 9, 1, 247
1, 1, System_exclusive, 8, 67, 16, 76, 0, 0, 126, 0, 247
1, 2, System_exclusive, 6, 67, 113, 126, 10, 0, 247
1, 5, Control_c, 0, 0, 0
1, 6, Control_c, 0, 32, 0
1, 7, Program_c, 0, 0
1, 8, Control_c, 0, 7, 100
1, 338, Control_c, 0, 64, 9
1, 413, Control_c, 0, 64, 15
1, 469, Control_c, 0, 64, 19
1, 3049, Control_c, 0, 64, 23
1, 3704, Control_c, 0, 64, 19
1, 3741, Control_c, 0, 64, 15
1, 3778, Control_c, 0, 64, 10
1, 4490, Control_c, 0, 64, 14
1, 4601, Control_c, 0, 64, 19
1, 4732, Control_c, 0, 64, 23
1, 4787, Control_c, 0, 64, 29
1, 4825, Control_c, 0, 64, 35
1, 4862, Control_c, 0, 64, 40
1, 4863, Control_c, 0, 67, 8
1, 4882, Control_c, 0, 64, 43
1, 4900, Control_c, 0, 64, 45
1, 4919, Control_c, 0, 64, 48
1, 4921, Control_c, 0, 67, 12
1, 4938, Control_c, 0, 64, 51
1, 4956, Control_c, 0, 67, 16
1, 4976, Control_c, 0, 64, 54
1, 4993, Control_c, 0, 67, 24
1, 5013, Control_c, 0, 64, 56
1, 5015, Control_c, 0, 67, 30
1, 5032, Control_c, 0, 67, 36
1, 5049, Control_c, 0, 64, 59
1, 5051, Control_c, 0, 67, 41
1, 5069, Control_c, 0, 64, 60
1, 5070, Control_c, 0, 67, 45
1, 5088, Control_c, 0, 64, 62
1, 5106, Control_c, 0, 64, 63
1, 5107, Control_c, 0, 67, 52
1, 5125, Control_c, 0, 64, 65
1, 5145, Control_c, 0, 64, 66
1, 5146, Control_c, 0, 67, 60
1, 5162, Control_c, 0, 64, 67
1, 5181, Control_c, 0, 64, 68
1, 5182, Control_c, 0, 67, 67
1, 5219, Control_c, 0, 64, 70
1, 5220, Control_c, 0, 67, 75
1, 5238, Control_c, 0, 64, 72
1, 5239, Control_c, 0, 67, 79
1, 5275, Control_c, 0, 64, 75
1, 5276, Control_c, 0, 67, 86
1, 5313, Control_c, 0, 64, 78
1, 5314, Control_c, 0, 67, 93
1, 5330, Control_c, 0, 64, 80
1, 5349, Control_c, 0, 64, 82
1, 5351, Control_c, 0, 67, 98
1, 5369, Control_c, 0, 64, 85
1, 5406, Control_c, 0, 64, 92
1, 5407, Control_c, 0, 67, 102
1, 5424, Control_c, 0, 64, 96
1, 5462, Control_c, 0, 64, 103
1, 5499, Control_c, 0, 64, 111
1, 5536, Control_c, 0, 64, 119
1, 5574, Control_c, 0, 64, 125
1, 5780, Control_c, 0, 67, 98
1, 5835, Control_c, 0, 67, 93
1, 5854, Control_c, 0, 67, 89
1, 5872, Control_c, 0, 67, 84
1, 5891, Control_c, 0, 67, 79
1, 5910, Control_c, 0, 67, 74
1, 5928, Control_c, 0, 67, 69
1, 5966, Control_c, 0, 67, 62
1, 5987, Note_on_c, 0, 51, 34
1, 5987, Note_on_c, 0, 63, 40
1, 6004, Control_c, 0, 67, 57
1, 6209, Control_c, 0, 67, 62
1, 6231, Note_off_c, 0, 51, 36
1, 6243, Note_off_c, 0, 63, 36
1, 6246, Control_c, 0, 67, 68
1, 6264, Control_c, 0, 67, 73
1, 6285, Control_c, 0, 67, 78
1, 6303, Control_c, 0, 67, 83
1, 6321, Control_c, 0, 67, 87
1, 6341, Control_c, 0, 67, 91
1, 6358, Control_c, 0, 67, 95
1, 6395, Control_c, 0, 67, 101
1, 6677, Control_c, 0, 64, 119
1, 6695, Control_c, 0, 64, 114
1, 6715, Control_c, 0, 64, 108
1, 6732, Control_c, 0, 64, 102
1, 6736, Note_on_c, 0, 63, 47
1, 6752, Control_c, 0, 64, 96
1, 6761, Note_on_c, 0, 51, 39
1, 6769, Control_c, 0, 64, 91
1, 6785, Note_on_c, 0, 60, 35
1, 6786, Note_on_c, 0, 44, 36
1, 6807, Control_c, 0, 64, 86
1, 6827, Control_c, 0, 64, 83
1, 6845, Control_c, 0, 64, 79
1, 6863, Control_c, 0, 64, 74
1, 6883, Control_c, 0, 64, 71
1, 6901, Control_c, 0, 64, 67
1, 6920, Control_c, 0, 64, 63
1, 6938, Control_c, 0, 64, 56
1, 6957, Control_c, 0, 64, 49
1, 6976, Control_c, 0, 64, 39
1, 6995, Control_c, 0, 64, 29
1, 7087, Control_c, 0, 64, 37
1, 7107, Control_c, 0, 64, 43
1, 7126, Control_c, 0, 64, 51
1, 7144, Control_c, 0, 64, 57
1, 7163, Control_c, 0, 64, 61
1, 7182, Control_c, 0, 64, 64
1, 7200, Control_c, 0, 64, 66
1, 7201, Control_c, 0, 67, 96
1, 7218, Control_c, 0, 64, 67
1, 7239, Control_c, 0, 67, 88
1, 7257, Control_c, 0, 64, 70
1, 7257, Control_c, 0, 67, 82
1, 7275, Control_c, 0, 67, 78
1, 7295, Control_c, 0, 64, 72
1, 7331, Control_c, 0, 64, 74
1, 7333, Control_c, 0, 67, 74
1, 7369, Control_c, 0, 64, 77
1, 7374, Note_off_c, 0, 60, 39
1, 7387, Control_c, 0, 64, 79
1, 7406, Control_c, 0, 64, 81
1, 7424, Control_c, 0, 64, 83
1, 7444, Control_c, 0, 64, 85
1, 7463, Control_c, 0, 64, 87
1, 7466, Note_on_c, 0, 56, 26
1, 7473, Note_on_c, 0, 68, 25
1, 7499, Control_c, 0, 64, 92
1, 7537, Control_c, 0, 64, 98
1, 7574, Control_c, 0, 64, 105
1, 7575, Control_c, 0, 67, 69
1, 7580, Note_off_c, 0, 63, 33
1, 7594, Control_c, 0, 64, 109
1, 7611, Control_c, 0, 64, 113
1, 7612, Control_c, 0, 67, 61
1, 7630, Control_c, 0, 64, 118
1, 7631, Control_c, 0, 67, 55
1, 7649, Control_c, 0, 64, 123
1, 7650, Control_c, 0, 67, 49
1, 7668, Control_c, 0, 64, 127
1, 7670, Control_c, 0, 67, 44
1, 7680, Control_c, 0, 67, 38
1, 7693, Note_off_c, 0, 56, 40
1, 7698, Control_c, 0, 67, 33
1, 7708, Note_off_c, 0, 68, 42
1, 7717, Control_c, 0, 67, 28
1, 7736, Control_c, 0, 67, 23
1, 7755, Control_c, 0, 67, 18
1, 7774, Control_c, 0, 67, 13
1, 7811, Control_c, 0, 67, 9
1, 8038, Note_on_c, 0, 68, 49
1, 8078, Note_on_c, 0, 56, 38
1, 8246, Note_off_c, 0, 44, 39
1, 8254, Note_off_c, 0, 68, 38
1, 8355, Note_off_c, 0, 51, 38
1, 8395, Note_off_c, 0, 56, 28
1, 8409, Control_c, 0, 67, 13
1, 8448, Control_c, 0, 67, 19
1, 8466, Control_c, 0, 67, 25
1, 8484, Control_c, 0, 67, 32
1, 8503, Control_c, 0, 67, 39
1, 8523, Control_c, 0, 67, 44
1, 8540, Control_c, 0, 67, 49
1, 8560, Control_c, 0, 67, 53
1, 8597, Control_c, 0, 67, 59
1, 8635, Control_c, 0, 67, 64
1, 8679, Note_on_c, 0, 68, 47
1, 8686, Note_on_c, 0, 51, 39
1, 8691, Note_on_c, 0, 63, 40
1, 8705, Note_on_c, 0, 61, 41
1, 8710, Note_on_c, 0, 46, 38
1, 8715, Note_on_c, 0, 56, 31
1, 8728, Control_c, 0, 64, 121
1, 8746, Control_c, 0, 64, 114
1, 8748, Control_c, 0, 67, 68
1, 8764, Control_c, 0, 64, 105
1, 8784, Control_c, 0, 64, 94
1, 8802, Control_c, 0, 64, 82
1, 8821, Control_c, 0, 64, 70
1, 8825, Control_c, 0, 67, 72
1, 8840, Control_c, 0, 64, 60
1, 8859, Control_c, 0, 64, 55
1, 8877, Control_c, 0, 64, 51
1, 8879, Control_c, 0, 67, 77
1, 8895, Control_c, 0, 64, 48
1, 8952, Control_c, 0, 64, 50
1, 8970, Control_c, 0, 64, 53
1, 8988, Control_c, 0, 64, 57
1, 8993, Note_on_c, 0, 67, 53
1, 9008, Control_c, 0, 64, 62
1, 9027, Control_c, 0, 64, 67
1, 9029, Note_on_c, 0, 55, 40
1, 9041, Note_off_c, 0, 56, 40
1, 9045, Control_c, 0, 64, 72
1, 9065, Control_c, 0, 64, 76
1, 9082, Control_c, 0, 64, 80
1, 9102, Control_c, 0, 64, 84
1, 9105, Control_c, 0, 67, 73
1, 9123, Control_c, 0, 64, 89
1, 9124, Control_c, 0, 67, 68
1, 9125, Note_off_c, 0, 68, 58
1, 9130, Note_off_c, 0, 67, 52
1, 9137, Note_off_c, 0, 55, 56
1, 9141, Control_c, 0, 64, 93
1, 9142, Control_c, 0, 67, 61
1, 9159, Control_c, 0, 67, 53
1, 9176, Control_c, 0, 64, 99
1, 9177, Control_c, 0, 67, 46
1, 9196, Control_c, 0, 67, 40
1, 9214, Control_c, 0, 67, 36
1, 9251, Control_c, 0, 67, 32
1, 9285, Note_on_c, 0, 67, 59
1, 9288, Control_c, 0, 64, 91
1, 9308, Control_c, 0, 64, 84
1, 9316, Note_on_c, 0, 55, 38
1, 9327, Control_c, 0, 64, 73
1, 9344, Control_c, 0, 64, 62
1, 9363, Control_c, 0, 64, 52
1, 9383, Control_c, 0, 64, 36
1, 9402, Control_c, 0, 64, 0
1, 9458, Control_c, 0, 64, 17
1, 9475, Control_c, 0, 64, 30
1, 9494, Control_c, 0, 64, 43
1, 9513, Control_c, 0, 64, 54
1, 9533, Control_c, 0, 64, 64
1, 9550, Control_c, 0, 64, 71
1, 9568, Control_c, 0, 64, 74
1, 9577, Note_off_c, 0, 67, 37
1, 9588, Control_c, 0, 64, 77
1, 9625, Control_c, 0, 64, 81
1, 9644, Control_c, 0, 64, 84
1, 9662, Control_c, 0, 64, 87
1, 9663, Note_off_c, 0, 51, 23
1, 9715, Note_off_c, 0, 55, 34
1, 9777, Note_on_c, 0, 65, 45
1, 9790, Note_on_c, 0, 53, 33
1, 9869, Control_c, 0, 64, 85
1, 9870, Poly_aftertouch_c, 0, 63, 22
1, 9882, Note_off_c, 0, 63, 39
1, 9882, Poly_aftertouch_c, 0, 63, 0
1, 9886, Control_c, 0, 64, 83
1, 9905, Control_c, 0, 64, 79
1, 9907, Control_c, 0, 67, 36
1, 9923, Note_on_c, 0, 67, 46
1, 9923, Control_c, 0, 64, 74
1, 9943, Note_on_c, 0, 55, 34
1, 9943, Control_c, 0, 64, 68
1, 9962, Control_c, 0, 64, 63
1, 9980, Control_c, 0, 64, 58
1, 9992, Note_off_c, 0, 65, 56
1, 9998, Note_off_c, 0, 53, 34
1, 9999, Control_c, 0, 64, 50
1, 10017, Control_c, 0, 64, 38
1, 10036, Control_c, 0, 64, 22
1, 10055, Control_c, 0, 64, 11
1, 10092, Control_c, 0, 64, 16
1, 10111, Control_c, 0, 64, 24
1, 10130, Control_c, 0, 64, 33
1, 10131, Control_c, 0, 67, 31
1, 10148, Control_c, 0, 64, 45
1, 10150, Control_c, 0, 67, 27
1, 10167, Control_c, 0, 64, 56
1, 10168, Control_c, 0, 67, 21
1, 10188, Control_c, 0, 64, 64
1, 10189, Control_c, 0, 67, 15
1, 10205, Control_c, 0, 64, 70
1, 10206, Control_c, 0, 67, 10
1, 10223, Control_c, 0, 64, 73
1, 10244, Control_c, 0, 64, 77
1, 10256, Note_off_c, 0, 55, 54
1, 10259, Note_off_c, 0, 67, 47
1, 10259, Control_c, 0, 64, 81
1, 10279, Control_c, 0, 64, 84
1, 10298, Control_c, 0, 64, 88
1, 10336, Control_c, 0, 64, 95
1, 10373, Control_c, 0, 64, 99
1, 10427, Note_on_c, 0, 51, 45
1, 10433, Note_on_c, 0, 63, 54
1, 10576, Note_off_c, 0, 46, 37
1, 10579, Note_on_c, 0, 68, 62
1, 10579, Control_c, 0, 64, 93
1, 10596, Note_on_c, 0, 56, 46
1, 10598, Control_c, 0, 64, 89
1, 10616, Control_c, 0, 64, 83
1, 10635, Control_c, 0, 64, 76
1, 10654, Control_c, 0, 64, 70
1, 10656, Note_off_c, 0, 63, 57
1, 10656, Poly_aftertouch_c, 0, 63, 0
1, 10672, Control_c, 0, 64, 64
1, 10683, Note_off_c, 0, 51, 30
1, 10690, Control_c, 0, 64, 58
1, 10711, Control_c, 0, 64, 50
1, 10729, Control_c, 0, 64, 36
1, 10747, Control_c, 0, 64, 10
1, 10765, Control_c, 0, 64, 0
1, 10816, Note_off_c, 0, 61, 36
1, 10859, Control_c, 0, 64, 12
1, 10879, Control_c, 0, 64, 22
1, 10896, Control_c, 0, 64, 33
1, 10916, Control_c, 0, 64, 43
1, 10934, Control_c, 0, 64, 50
1, 10952, Control_c, 0, 64, 55
1, 10971, Control_c, 0, 64, 59
1, 10990, Control_c, 0, 64, 63
1, 11009, Control_c, 0, 64, 66
1, 11027, Control_c, 0, 64, 68
1, 11045, Control_c, 0, 64, 70
1, 11084, Control_c, 0, 64, 73
1, 11140, Control_c, 0, 64, 75
1, 11178, Control_c, 0, 64, 78
1, 11242, Note_on_c, 0, 63, 46
1, 11250, Control_c, 0, 64, 80
1, 11274, Note_on_c, 0, 48, 36
1, 11290, Control_c, 0, 64, 83
1, 11308, Control_c, 0, 64, 85
1, 11327, Control_c, 0, 64, 87
1, 11364, Control_c, 0, 64, 93
1, 11382, Control_c, 0, 64, 97
1, 11402, Control_c, 0, 67, 0
1, 11420, Control_c, 0, 64, 104
1, 11447, Note_off_c, 0, 56, 30
1, 11457, Control_c, 0, 64, 110
1, 11494, Control_c, 0, 64, 117
1, 11514, Control_c, 0, 64, 122
1, 11532, Control_c, 0, 64, 126
1, 11586, Note_off_c, 0, 63, 50
1, 11586, Poly_aftertouch_c, 0, 63, 0
1, 11875, Note_on_c, 0, 70, 66
1, 11875, Poly_aftertouch_c, 0, 48, 20
1, 11896, Note_off_c, 0, 48, 22
1, 11896, Poly_aftertouch_c, 0, 48, 0
1, 11916, Note_on_c, 0, 58, 48
1, 11924, Note_on_c, 0, 63, 40
1, 11924, Note_on_c, 0, 51, 43
1, 11931, Note_on_c, 0, 43, 39
1, 11945, Control_c, 0, 64, 113
1, 11962, Control_c, 0, 64, 99
1, 11981, Control_c, 0, 64, 80
1, 12001, Control_c, 0, 64, 63
1, 12019, Control_c, 0, 64, 52
1, 12037, Control_c, 0, 64, 45
1, 12056, Control_c, 0, 64, 42
1, 12059, Note_off_c, 0, 68, 55
1, 12093, Control_c, 0, 64, 49
1, 12112, Control_c, 0, 64, 57
1, 12130, Control_c, 0, 64, 67
1, 12137, Note_off_c, 0, 58, 58
1, 12150, Control_c, 0, 64, 75
1, 12156, Note_off_c, 0, 51, 60
1, 12168, Control_c, 0, 64, 81
1, 12187, Control_c, 0, 64, 88
1, 12195, Note_off_c, 0, 70, 62
1, 12206, Control_c, 0, 64, 97
1, 12224, Control_c, 0, 64, 108
1, 12243, Control_c, 0, 64, 119
1, 12261, Control_c, 0, 64, 127
1, 12274, Note_off_c, 0, 43, 59
1, 12439, Note_off_c, 0, 63, 31
1, 12439, Poly_aftertouch_c, 0, 63, 0
1, 12572, Note_on_c, 0, 73, 64
1, 12578, Control_c, 0, 64, 121
1, 12592, Note_on_c, 0, 51, 46
1, 12597, Note_on_c, 0, 68, 56
1, 12597, Control_c, 0, 64, 109
1, 12603, Note_on_c, 0, 44, 45
1, 12604, Note_on_c, 0, 63, 49
1, 12617, Note_on_c, 0, 60, 42
1, 12617, Control_c, 0, 64, 92
1, 12636, Control_c, 0, 64, 76
1, 12654, Control_c, 0, 64, 60
1, 12673, Control_c, 0, 64, 51
1, 12692, Control_c, 0, 64, 42
1, 12710, Control_c, 0, 64, 38
1, 12750, Control_c, 0, 64, 45
1, 12766, Control_c, 0, 64, 55
1, 12768, Control_c, 0, 67, 8
1, 12784, Control_c, 0, 64, 66
1, 12801, Note_off_c, 0, 68, 60
1, 12804, Control_c, 0, 64, 74
1, 12823, Control_c, 0, 64, 78
1, 12824, Control_c, 0, 67, 13
1, 12825, Note_off_c, 0, 73, 60
1, 12841, Control_c, 0, 64, 83
1, 12852, Note_off_c, 0, 60, 48
1, 12859, Control_c, 0, 64, 89
1, 12862, Control_c, 0, 67, 18
1, 12879, Control_c, 0, 64, 96
1, 12880, Control_c, 0, 67, 22
1, 12890, Note_off_c, 0, 63, 50
1, 12890, Poly_aftertouch_c, 0, 63, 0
1, 12897, Control_c, 0, 64, 103
1, 12898, Control_c, 0, 67, 26
1, 12907, Poly_aftertouch_c, 0, 51, 24
1, 12915, Control_c, 0, 64, 108
1, 12917, Control_c, 0, 67, 31
1, 12935, Control_c, 0, 64, 112
1, 12937, Control_c, 0, 67, 35
1, 12955, Control_c, 0, 67, 40
1, 12972, Control_c, 0, 64, 118
1, 12974, Control_c, 0, 67, 44
1, 12985, Note_off_c, 0, 51, 24
1, 12985, Poly_aftertouch_c, 0, 51, 0
1, 12990, Control_c, 0, 67, 48
1, 13011, Control_c, 0, 67, 52
1, 13029, Control_c, 0, 64, 123
1, 13030, Control_c, 0, 67, 56
1, 13046, Control_c, 0, 67, 60
1, 13066, Control_c, 0, 67, 64
1, 13103, Control_c, 0, 67, 71
1, 13122, Control_c, 0, 67, 75
1, 13140, Control_c, 0, 67, 79
1, 13160, Control_c, 0, 67, 83
1, 13168, Poly_aftertouch_c, 0, 44, 24
1, 13176, Note_on_c, 0, 72, 54
1, 13216, Control_c, 0, 67, 87
1, 13230, Note_off_c, 0, 44, 22
1, 13230, Poly_aftertouch_c, 0, 44, 0
1, 13258, Note_off_c, 0, 72, 51
1, 13273, Control_c, 0, 67, 91
1, 13346, Control_c, 0, 64, 118
1, 13367, Note_on_c, 0, 70, 55
1, 13382, Control_c, 0, 64, 113
1, 13387, Note_on_c, 0, 63, 47
1, 13392, Note_on_c, 0, 51, 39
1, 13394, Note_on_c, 0, 67, 40
1, 13401, Control_c, 0, 64, 108
1, 13421, Control_c, 0, 64, 100
1, 13428, Note_on_c, 0, 58, 41
1, 13429, Note_on_c, 0, 39, 35
1, 13439, Control_c, 0, 64, 89
1, 13458, Control_c, 0, 64, 77
1, 13478, Control_c, 0, 64, 65
1, 13497, Control_c, 0, 64, 54
1, 13515, Control_c, 0, 64, 43
1, 13533, Control_c, 0, 64, 26
1, 13552, Control_c, 0, 64, 8
1, 13589, Control_c, 0, 64, 17
1, 13608, Control_c, 0, 64, 30
1, 13628, Control_c, 0, 64, 43
1, 13629, Control_c, 0, 67, 86
1, 13640, Note_off_c, 0, 58, 55
1, 13644, Control_c, 0, 64, 55
1, 13645, Control_c, 0, 67, 81
1, 13664, Control_c, 0, 64, 65
1, 13665, Control_c, 0, 67, 73
1, 13683, Control_c, 0, 64, 73
1, 13685, Control_c, 0, 67, 62
1, 13692, Note_off_c, 0, 63, 50
1, 13692, Poly_aftertouch_c, 0, 63, 0
1, 13701, Control_c, 0, 64, 79
1, 13701, Control_c, 0, 67, 51
1, 13709, Note_off_c, 0, 67, 33
1, 13716, Note_off_c, 0, 39, 39
1, 13719, Control_c, 0, 64, 86
1, 13722, Control_c, 0, 67, 42
1, 13738, Control_c, 0, 64, 93
1, 13739, Control_c, 0, 67, 35
1, 13760, Control_c, 0, 64, 100
1, 13760, Control_c, 0, 67, 31
1, 13771, Note_off_c, 0, 51, 31
1, 13771, Poly_aftertouch_c, 0, 51, 0
1, 13775, Control_c, 0, 64, 106
1, 13795, Control_c, 0, 64, 112
1, 13798, Control_c, 0, 67, 26
1, 13813, Control_c, 0, 64, 117
1, 13850, Control_c, 0, 64, 122
1, 13865, Note_off_c, 0, 70, 31
1, 14038, Control_c, 0, 67, 30
1, 14132, Control_c, 0, 64, 118
1, 14180, Note_on_c, 0, 72, 46
1, 14187, Control_c, 0, 64, 113
1, 14224, Control_c, 0, 64, 108
1, 14226, Note_on_c, 0, 70, 48
1, 14243, Control_c, 0, 64, 104
1, 14243, Control_c, 0, 67, 34
1, 14261, Control_c, 0, 64, 99
1, 14281, Control_c, 0, 64, 93
1, 14299, Control_c, 0, 64, 87
1, 14318, Control_c, 0, 64, 81
1, 14337, Control_c, 0, 64, 76
1, 14355, Note_off_c, 0, 72, 38
1, 14356, Control_c, 0, 64, 72
1, 14357, Control_c, 0, 67, 38
1, 14374, Control_c, 0, 64, 69
1, 14393, Control_c, 0, 64, 65
1, 14412, Control_c, 0, 64, 60
1, 14428, Note_on_c, 0, 69, 60
1, 14430, Control_c, 0, 64, 56
1, 14449, Control_c, 0, 64, 51
1, 14468, Control_c, 0, 64, 44
1, 14487, Control_c, 0, 64, 38
1, 14491, Note_off_c, 0, 70, 51
1, 14561, Control_c, 0, 64, 43
1, 14579, Control_c, 0, 64, 48
1, 14584, Note_on_c, 0, 70, 64
1, 14599, Control_c, 0, 64, 54
1, 14604, Note_off_c, 0, 69, 52
1, 14617, Control_c, 0, 64, 60
1, 14637, Control_c, 0, 64, 65
1, 14656, Control_c, 0, 64, 69
1, 14674, Control_c, 0, 64, 71
1, 14675, Control_c, 0, 67, 34
1, 14711, Control_c, 0, 64, 74
1, 14729, Control_c, 0, 67, 30
1, 14742, Note_on_c, 0, 72, 67
1, 14768, Control_c, 0, 64, 76
1, 14769, Control_c, 0, 67, 26
1, 14785, Control_c, 0, 67, 22
1, 14796, Note_off_c, 0, 70, 57
1, 14803, Control_c, 0, 67, 17
1, 14824, Control_c, 0, 64, 78
1, 14842, Control_c, 0, 67, 13
1, 14916, Control_c, 0, 64, 76
1, 14920, Note_on_c, 0, 73, 62
1, 14954, Control_c, 0, 64, 73
1, 14974, Control_c, 0, 64, 71
1, 14984, Note_on_c, 0, 53, 40
1, 14989, Note_on_c, 0, 68, 46
1, 14993, Control_c, 0, 64, 67
1, 15010, Control_c, 0, 64, 62
1, 15029, Control_c, 0, 64, 57
1, 15032, Note_off_c, 0, 72, 58
1, 15048, Control_c, 0, 64, 50
1, 15066, Control_c, 0, 64, 38
1, 15086, Control_c, 0, 64, 13
1, 15104, Control_c, 0, 64, 0
1, 15253, Control_c, 0, 64, 13
1, 15273, Control_c, 0, 64, 33
1, 15291, Control_c, 0, 64, 48
1, 15309, Control_c, 0, 64, 58
1, 15328, Control_c, 0, 64, 66
1, 15348, Control_c, 0, 64, 71
1, 15366, Control_c, 0, 64, 76
1, 15384, Control_c, 0, 64, 79
1, 15402, Control_c, 0, 64, 83
1, 15420, Note_off_c, 0, 53, 45
1, 15420, Control_c, 0, 64, 87
1, 15459, Control_c, 0, 64, 92
1, 15460, Control_c, 0, 67, 17
1, 15534, Control_c, 0, 67, 22
1, 15572, Control_c, 0, 67, 27
1, 15588, Note_on_c, 0, 65, 39
1, 15610, Control_c, 0, 67, 34
1, 15647, Control_c, 0, 67, 40
1, 15664, Control_c, 0, 64, 88
1, 15684, Control_c, 0, 64, 85
1, 15685, Control_c, 0, 67, 45
1, 15702, Control_c, 0, 64, 80
1, 15723, Control_c, 0, 64, 74
1, 15726, Control_c, 0, 67, 50
1, 15739, Control_c, 0, 64, 68
1, 15758, Control_c, 0, 64, 63
1, 15759, Control_c, 0, 67, 55
1, 15777, Control_c, 0, 64, 60
1, 15796, Control_c, 0, 64, 57
1, 15797, Control_c, 0, 67, 59
1, 15814, Control_c, 0, 64, 54
1, 15834, Control_c, 0, 67, 64
1, 15871, Control_c, 0, 64, 59
1, 15872, Control_c, 0, 67, 71
1, 15890, Control_c, 0, 64, 64
1, 15908, Control_c, 0, 64, 69
1, 15909, Control_c, 0, 67, 79
1, 15928, Control_c, 0, 64, 73
1, 15929, Control_c, 0, 67, 84
1, 15945, Control_c, 0, 64, 76
1, 15946, Control_c, 0, 67, 88
1, 15964, Control_c, 0, 64, 79
1, 15983, Control_c, 0, 64, 83
1, 15983, Control_c, 0, 67, 94
1, 16002, Control_c, 0, 64, 85
1, 16020, Control_c, 0, 64, 87
1, 16023, Note_off_c, 0, 68, 37
1, 16057, Control_c, 0, 67, 98
1, 16243, Note_on_c, 0, 72, 53
1, 16262, Control_c, 0, 64, 83
1, 16270, Note_on_c, 0, 63, 40
1, 16278, Control_c, 0, 64, 81
1, 16284, Note_on_c, 0, 68, 38
1, 16302, Control_c, 0, 64, 76
1, 16319, Control_c, 0, 64, 68
1, 16337, Control_c, 0, 64, 60
1, 16357, Control_c, 0, 64, 54
1, 16375, Control_c, 0, 64, 49
1, 16393, Control_c, 0, 64, 43
1, 16412, Control_c, 0, 64, 38
1, 16431, Control_c, 0, 64, 34
1, 16468, Control_c, 0, 67, 93
1, 16473, Note_off_c, 0, 65, 40
1, 16506, Control_c, 0, 64, 43
1, 16507, Control_c, 0, 67, 88
1, 16524, Control_c, 0, 64, 51
1, 16526, Control_c, 0, 67, 81
1, 16543, Control_c, 0, 64, 60
1, 16543, Control_c, 0, 67, 71
1, 16562, Control_c, 0, 64, 67
1, 16563, Control_c, 0, 67, 60
1, 16582, Control_c, 0, 64, 72
1, 16583, Control_c, 0, 67, 50
1, 16599, Control_c, 0, 64, 75
1, 16601, Control_c, 0, 67, 42
1, 16618, Control_c, 0, 64, 79
1, 16619, Control_c, 0, 67, 35
1, 16637, Control_c, 0, 64, 83
1, 16638, Control_c, 0, 67, 29
1, 16656, Control_c, 0, 64, 89
1, 16659, Control_c, 0, 67, 24
1, 16675, Control_c, 0, 64, 95
1, 16677, Control_c, 0, 67, 20
1, 16693, Control_c, 0, 64, 100
1, 16694, Control_c, 0, 67, 16
1, 16730, Control_c, 0, 64, 106
1, 16731, Control_c, 0, 67, 11
1, 16743, Note_off_c, 0, 68, 38
1, 16754, Poly_aftertouch_c, 0, 73, 24
1, 16921, Note_on_c, 0, 77, 64
1, 16936, Control_c, 0, 64, 101
1, 16945, Note_off_c, 0, 73, 20
1, 16945, Poly_aftertouch_c, 0, 73, 0
1, 16953, Note_on_c, 0, 68, 51
1, 16966, Note_on_c, 0, 70, 42
1, 16972, Control_c, 0, 64, 92
1, 16978, Note_on_c, 0, 62, 39
1, 16992, Control_c, 0, 64, 84
1, 17011, Control_c, 0, 64, 76
1, 17029, Control_c, 0, 64, 68
1, 17040, Note_off_c, 0, 63, 35
1, 17040, Poly_aftertouch_c, 0, 63, 0
1, 17048, Control_c, 0, 64, 60
1, 17067, Control_c, 0, 64, 53
1, 17086, Control_c, 0, 64, 45
1, 17105, Control_c, 0, 64, 34
1, 17113, Note_off_c, 0, 72, 35
1, 17123, Control_c, 0, 64, 24
1, 17179, Control_c, 0, 64, 34
1, 17198, Control_c, 0, 64, 43
1, 17217, Control_c, 0, 64, 53
1, 17235, Control_c, 0, 64, 63
1, 17255, Control_c, 0, 64, 71
1, 17272, Control_c, 0, 64, 77
1, 17280, Note_off_c, 0, 70, 30
1, 17286, Control_c, 0, 64, 83
1, 17306, Control_c, 0, 64, 90
1, 17309, Control_c, 0, 67, 0
1, 17324, Control_c, 0, 64, 98
1, 17342, Control_c, 0, 64, 105
1, 17357, Note_off_c, 0, 68, 39
1, 17360, Control_c, 0, 64, 112
1, 17380, Control_c, 0, 64, 117
1, 17399, Control_c, 0, 64, 122
1, 17417, Control_c, 0, 64, 126
1, 17567, Control_c, 0, 64, 121
1, 17576, Note_on_c, 0, 70, 62
1, 17586, Control_c, 0, 64, 111
1, 17604, Control_c, 0, 64, 97
1, 17609, Note_on_c, 0, 67, 42
1, 17612, Note_on_c, 0, 61, 37
1, 17622, Control_c, 0, 64, 80
1, 17642, Control_c, 0, 64, 64
1, 17660, Control_c, 0, 64, 52
1, 17679, Control_c, 0, 64, 43
1, 17699, Control_c, 0, 64, 35
1, 17706, Note_off_c, 0, 62, 30
1, 17756, Control_c, 0, 64, 41
1, 17757, Note_off_c, 0, 77, 34
1, 17773, Control_c, 0, 64, 49
1, 17791, Control_c, 0, 64, 58
1, 17810, Control_c, 0, 64, 66
1, 17828, Control_c, 0, 64, 71
1, 17848, Control_c, 0, 64, 75
1, 17865, Control_c, 0, 64, 79
1, 17885, Control_c, 0, 64, 85
1, 17904, Control_c, 0, 64, 93
1, 17922, Control_c, 0, 64, 101
1, 17941, Control_c, 0, 64, 108
1, 17960, Control_c, 0, 64, 112
1, 17978, Control_c, 0, 64, 116
1, 18072, Control_c, 0, 67, 8
1, 18128, Control_c, 0, 67, 12
1, 18165, Control_c, 0, 67, 17
1, 18202, Control_c, 0, 67, 23
1, 18221, Control_c, 0, 64, 111
1, 18240, Control_c, 0, 67, 29
1, 18259, Control_c, 0, 64, 103
1, 18266, Note_on_c, 0, 75, 54
1, 18278, Control_c, 0, 64, 94
1, 18279, Control_c, 0, 67, 34
1, 18294, Note_on_c, 0, 68, 40
1, 18295, Control_c, 0, 64, 84
1, 18313, Note_on_c, 0, 60, 27
1, 18314, Control_c, 0, 64, 75
1, 18317, Control_c, 0, 67, 40
1, 18333, Control_c, 0, 64, 66
1, 18342, Note_off_c, 0, 67, 34
1, 18344, Note_off_c, 0, 61, 35
1, 18352, Control_c, 0, 64, 57
1, 18354, Control_c, 0, 67, 45
1, 18362, Note_off_c, 0, 70, 44
1, 18370, Control_c, 0, 64, 49
1, 18390, Control_c, 0, 64, 40
1, 18391, Control_c, 0, 67, 52
1, 18408, Control_c, 0, 64, 36
1, 18410, Control_c, 0, 67, 56
1, 18428, Control_c, 0, 67, 61
1, 18446, Control_c, 0, 64, 41
1, 18464, Control_c, 0, 64, 48
1, 18466, Control_c, 0, 67, 68
1, 18484, Control_c, 0, 64, 56
1, 18485, Control_c, 0, 67, 72
1, 18502, Control_c, 0, 64, 65
1, 18503, Control_c, 0, 67, 77
1, 18521, Control_c, 0, 64, 71
1, 18523, Control_c, 0, 67, 81
1, 18540, Control_c, 0, 64, 74
1, 18541, Control_c, 0, 67, 86
1, 18558, Control_c, 0, 64, 77
1, 18559, Control_c, 0, 67, 91
1, 18577, Control_c, 0, 64, 80
1, 18579, Control_c, 0, 67, 95
1, 18596, Control_c, 0, 64, 85
1, 18599, Control_c, 0, 67, 100
1, 18613, Control_c, 0, 64, 90
1, 18615, Control_c, 0, 67, 105
1, 18633, Control_c, 0, 64, 95
1, 18634, Control_c, 0, 67, 109
1, 18652, Control_c, 0, 64, 100
1, 18654, Control_c, 0, 67, 113
1, 18660, Note_off_c, 0, 68, 38
1, 18689, Control_c, 0, 64, 106
1, 18690, Control_c, 0, 67, 120
1, 18710, Note_off_c, 0, 75, 27
1, 18726, Control_c, 0, 64, 110
1, 18746, Control_c, 0, 67, 124
1, 18933, Poly_aftertouch_c, 0, 60, 24
1, 19037, Note_on_c, 0, 68, 39
1, 19041, Note_on_c, 0, 65, 41
1, 19065, Control_c, 0, 64, 105
1, 19073, Note_on_c, 0, 53, 37
1, 19100, Control_c, 0, 64, 101
1, 19119, Control_c, 0, 64, 97
1, 19137, Control_c, 0, 64, 90
1, 19156, Control_c, 0, 64, 83
1, 19175, Control_c, 0, 64, 73
1, 19191, Note_off_c, 0, 60, 19
1, 19191, Poly_aftertouch_c, 0, 60, 0
1, 19195, Control_c, 0, 64, 66
1, 19212, Control_c, 0, 64, 60
1, 19231, Control_c, 0, 64, 56
1, 19250, Control_c, 0, 64, 53
1, 19269, Control_c, 0, 64, 51
1, 19325, Control_c, 0, 64, 56
1, 19343, Control_c, 0, 64, 61
1, 19362, Control_c, 0, 64, 67
1, 19363, Control_c, 0, 67, 120
1, 19381, Control_c, 0, 64, 72
1, 19383, Control_c, 0, 67, 115
1, 19399, Control_c, 0, 64, 76
1, 19400, Control_c, 0, 67, 108
1, 19418, Control_c, 0, 64, 81
1, 19420, Control_c, 0, 67, 98
1, 19437, Control_c, 0, 64, 87
1, 19439, Control_c, 0, 67, 85
1, 19456, Control_c, 0, 64, 94
1, 19457, Control_c, 0, 67, 72
1, 19473, Control_c, 0, 64, 101
1, 19474, Control_c, 0, 67, 60
1, 19493, Control_c, 0, 64, 108
1, 19494, Control_c, 0, 67, 50
1, 19512, Control_c, 0, 64, 114
1, 19514, Control_c, 0, 67, 42
1, 19531, Control_c, 0, 67, 36
1, 19549, Control_c, 0, 64, 120
1, 19551, Control_c, 0, 67, 31
1, 19679, Note_on_c, 0, 73, 54
1, 19704, Note_on_c, 0, 70, 56
1, 19719, Note_on_c, 0, 64, 52
1, 19726, Note_on_c, 0, 55, 44
1, 19735, Control_c, 0, 64, 114
1, 19755, Control_c, 0, 64, 109
1, 19773, Control_c, 0, 64, 101
1, 19792, Control_c, 0, 64, 89
1, 19810, Control_c, 0, 64, 77
1, 19829, Control_c, 0, 64, 64
1, 19837, Note_off_c, 0, 65, 38
1, 19849, Control_c, 0, 64, 56
1, 19853, Poly_aftertouch_c, 0, 68, 24
1, 19867, Control_c, 0, 64, 49
1, 19878, Note_off_c, 0, 68, 40
1, 19878, Poly_aftertouch_c, 0, 68, 0
1, 19884, Control_c, 0, 64, 41
1, 19904, Control_c, 0, 64, 36
1, 19925, Note_off_c, 0, 53, 33
1, 19943, Control_c, 0, 64, 41
1, 19944, Control_c, 0, 67, 27
1, 19960, Control_c, 0, 64, 49
1, 19979, Control_c, 0, 64, 60
1, 19980, Control_c, 0, 67, 19
1, 19998, Control_c, 0, 64, 69
1, 19999, Control_c, 0, 67, 12
1, 20015, Note_off_c, 0, 73, 59
1, 20015, Poly_aftertouch_c, 0, 73, 0
1, 20015, Control_c, 0, 64, 75
1, 20035, Control_c, 0, 64, 80
1, 20054, Control_c, 0, 64, 88
1, 20073, Control_c, 0, 64, 97
1, 20073, Control_c, 0, 67, 0
1, 20092, Control_c, 0, 64, 107
1, 20110, Control_c, 0, 64, 115
1, 20129, Control_c, 0, 64, 121
1, 20148, Control_c, 0, 64, 127
1, 20217, Note_off_c, 0, 55, 49
1, 20240, Note_off_c, 0, 70, 37
1, 20350, Note_on_c, 0, 72, 60
1, 20358, Note_on_c, 0, 68, 55
1, 20366, Note_on_c, 0, 56, 49
1, 20373, Note_on_c, 0, 63, 48
1, 20409, Control_c, 0, 64, 114
1, 20428, Control_c, 0, 64, 98
1, 20446, Control_c, 0, 64, 78
1, 20462, Note_off_c, 0, 64, 39
1, 20463, Poly_aftertouch_c, 0, 64, 0
1, 20465, Control_c, 0, 64, 61
1, 20484, Control_c, 0, 64, 51
1, 20503, Control_c, 0, 64, 45
1, 20504, Control_c, 0, 67, 8
1, 20521, Control_c, 0, 64, 43
1, 20559, Control_c, 0, 64, 50
1, 20577, Control_c, 0, 64, 58
1, 20580, Control_c, 0, 67, 13
1, 20596, Control_c, 0, 64, 69
1, 20610, Note_off_c, 0, 63, 57
1, 20610, Poly_aftertouch_c, 0, 63, 0
1, 20614, Control_c, 0, 64, 77
1, 20615, Control_c, 0, 67, 20
1, 20633, Control_c, 0, 64, 82
1, 20635, Control_c, 0, 67, 27
1, 20652, Control_c, 0, 64, 87
1, 20655, Control_c, 0, 67, 36
1, 20662, Note_off_c, 0, 68, 54
1, 20662, Poly_aftertouch_c, 0, 68, 0
1, 20671, Control_c, 0, 64, 94
1, 20672, Control_c, 0, 67, 45
1, 20690, Control_c, 0, 64, 102
1, 20691, Control_c, 0, 67, 51
1, 20709, Control_c, 0, 64, 108
1, 20710, Control_c, 0, 67, 57
1, 20727, Control_c, 0, 64, 113
1, 20728, Control_c, 0, 67, 62
1, 20747, Control_c, 0, 64, 117
1, 20748, Control_c, 0, 67, 68
1, 20765, Control_c, 0, 64, 121
1, 20766, Control_c, 0, 67, 74
1, 20783, Control_c, 0, 67, 81
1, 20802, Control_c, 0, 64, 126
1, 20803, Control_c, 0, 67, 88
1, 20808, Note_off_c, 0, 72, 24
1, 20819, Control_c, 0, 67, 95
1, 20839, Control_c, 0, 67, 101
1, 20877, Control_c, 0, 67, 107
1, 20914, Control_c, 0, 67, 114
1, 20952, Control_c, 0, 67, 120
1, 20989, Control_c, 0, 67, 125
1, 21026, Control_c, 0, 64, 122
1, 21064, Control_c, 0, 64, 117
1, 21095, Note_on_c, 0, 66, 44
1, 21096, Note_on_c, 0, 69, 45
1, 21097, Note_on_c, 0, 63, 38
1, 21100, Control_c, 0, 64, 110
1, 21120, Control_c, 0, 64, 104
1, 21131, Note_on_c, 0, 51, 36
1, 21136, Control_c, 0, 64, 97
1, 21156, Control_c, 0, 64, 89
1, 21176, Control_c, 0, 64, 82
1, 21194, Control_c, 0, 64, 75
1, 21214, Control_c, 0, 64, 68
1, 21231, Control_c, 0, 64, 60
1, 21251, Control_c, 0, 64, 52
1, 21269, Control_c, 0, 64, 42
1, 21287, Control_c, 0, 64, 30
1, 21302, Note_off_c, 0, 56, 34
1, 21307, Control_c, 0, 64, 18
1, 21325, Control_c, 0, 64, 11
1, 21381, Control_c, 0, 64, 22
1, 21400, Control_c, 0, 64, 31
1, 21418, Control_c, 0, 64, 40
1, 21437, Control_c, 0, 64, 51
1, 21455, Control_c, 0, 64, 60
1, 21476, Control_c, 0, 64, 67
1, 21493, Control_c, 0, 64, 71
1, 21512, Control_c, 0, 64, 74
1, 21531, Control_c, 0, 64, 78
1, 21550, Control_c, 0, 64, 82
1, 21568, Control_c, 0, 64, 88
1, 21587, Control_c, 0, 64, 93
1, 21606, Control_c, 0, 64, 97
1, 21661, Note_off_c, 0, 69, 28
1, 21801, Note_on_c, 0, 70, 40
1, 21834, Note_on_c, 0, 67, 32
1, 21850, Control_c, 0, 64, 90
1, 21868, Control_c, 0, 64, 86
1, 21886, Control_c, 0, 64, 80
1, 21906, Control_c, 0, 64, 73
1, 21924, Control_c, 0, 64, 67
1, 21928, Note_off_c, 0, 66, 45
1, 21942, Control_c, 0, 64, 61
1, 21961, Control_c, 0, 64, 53
1, 21979, Control_c, 0, 64, 40
1, 21999, Control_c, 0, 64, 19
1, 22017, Control_c, 0, 64, 0
1, 22091, Control_c, 0, 64, 19
1, 22110, Control_c, 0, 64, 35
1, 22129, Control_c, 0, 64, 51
1, 22149, Control_c, 0, 64, 65
1, 22167, Control_c, 0, 64, 74
1, 22186, Control_c, 0, 64, 80
1, 22204, Control_c, 0, 64, 84
1, 22213, Note_off_c, 0, 63, 37
1, 22213, Poly_aftertouch_c, 0, 63, 0
1, 22223, Control_c, 0, 64, 89
1, 22242, Control_c, 0, 64, 93
1, 22254, Note_off_c, 0, 67, 39
1, 22269, Note_off_c, 0, 70, 36
1, 22278, Control_c, 0, 64, 99
1, 22289, Note_off_c, 0, 51, 50
1, 22289, Poly_aftertouch_c, 0, 51, 0
1, 22578, Control_c, 0, 64, 95
1, 22597, Control_c, 0, 64, 89
1, 22608, Note_on_c, 0, 63, 48
1, 22616, Control_c, 0, 64, 80
1, 22633, Control_c, 0, 64, 69
1, 22640, Note_on_c, 0, 51, 35
1, 22653, Control_c, 0, 64, 61
1, 22672, Control_c, 0, 64, 58
1, 22709, Control_c, 0, 64, 60
1, 22728, Control_c, 0, 64, 64
1, 22746, Control_c, 0, 64, 69
1, 22757, Note_off_c, 0, 63, 54
1, 22757, Poly_aftertouch_c, 0, 63, 0
1, 22763, Control_c, 0, 64, 74
1, 22783, Control_c, 0, 64, 79
1, 22803, Control_c, 0, 64, 85
1, 22821, Control_c, 0, 64, 90
1, 22839, Control_c, 0, 64, 95
1, 22840, Note_off_c, 0, 51, 36
1, 22840, Poly_aftertouch_c, 0, 51, 0
1, 22859, Control_c, 0, 64, 99
1, 22877, Control_c, 0, 64, 104
1, 22896, Control_c, 0, 64, 108
1, 22934, Control_c, 0, 64, 113
1, 23008, Control_c, 0, 64, 117
1, 23223, Note_on_c, 0, 63, 48
1, 23224, Note_on_c, 0, 51, 38
1, 23315, Note_off_c, 0, 63, 51
1, 23315, Poly_aftertouch_c, 0, 63, 0
1, 23332, Note_off_c, 0, 51, 44
1, 23332, Poly_aftertouch_c, 0, 51, 0
1, 23459, Note_on_c, 0, 63, 50
1, 23471, Note_on_c, 0, 51, 28
1, 23474, Control_c, 0, 64, 112
1, 23497, Note_on_c, 0, 44, 39
1, 23499, Note_on_c, 0, 60, 36
1, 23513, Control_c, 0, 64, 107
1, 23531, Control_c, 0, 64, 102
1, 23550, Control_c, 0, 64, 95
1, 23569, Control_c, 0, 64, 85
1, 23587, Control_c, 0, 64, 73
1, 23607, Control_c, 0, 64, 63
1, 23625, Control_c, 0, 64, 56
1, 23644, Control_c, 0, 64, 52
1, 23700, Control_c, 0, 64, 56
1, 23718, Control_c, 0, 64, 62
1, 23737, Control_c, 0, 64, 68
1, 23757, Control_c, 0, 64, 72
1, 23774, Control_c, 0, 64, 75
1, 23793, Control_c, 0, 64, 78
1, 23813, Control_c, 0, 64, 80
1, 23831, Control_c, 0, 64, 83
1, 23849, Control_c, 0, 64, 85
1, 23868, Control_c, 0, 64, 87
1, 23905, Control_c, 0, 64, 92
1, 23923, Note_on_c, 0, 68, 42
1, 23942, Note_on_c, 0, 56, 33
1, 23942, Control_c, 0, 64, 98
1, 23964, Note_off_c, 0, 60, 35
1, 23964, Poly_aftertouch_c, 0, 60, 0
1, 23980, Control_c, 0, 64, 105
1, 24018, Control_c, 0, 64, 112
1, 24055, Control_c, 0, 64, 116
1, 24093, Control_c, 0, 64, 121
1, 24130, Note_off_c, 0, 68, 47
1, 24130, Poly_aftertouch_c, 0, 68, 0
1, 24148, Control_c, 0, 64, 125
1, 24160, Note_off_c, 0, 56, 33
1, 24296, Note_on_c, 0, 68, 54
1, 24312, Note_on_c, 0, 56, 46
1, 24435, Poly_aftertouch_c, 0, 63, 24
1, 24487, Note_off_c, 0, 56, 37
1, 24490, Note_off_c, 0, 68, 36
1, 24490, Poly_aftertouch_c, 0, 68, 0
1, 24493, Note_off_c, 0, 63, 36
1, 24493, Poly_aftertouch_c, 0, 63, 0
1, 24632, Note_on_c, 0, 68, 57
1, 24644, Note_on_c, 0, 56, 49
1, 24768, Note_off_c, 0, 68, 46
1, 24768, Poly_aftertouch_c, 0, 68, 0
1, 24804, Note_off_c, 0, 56, 37
1, 24859, Control_c, 0, 67, 119
1, 24878, Control_c, 0, 67, 115
1, 24897, Control_c, 0, 67, 111
1, 24914, Control_c, 0, 67, 105
1, 24934, Control_c, 0, 67, 99
1, 24943, Note_on_c, 0, 68, 59
1, 24951, Control_c, 0, 67, 93
1, 24963, Note_on_c, 0, 56, 47
1, 24970, Control_c, 0, 67, 86
1, 24990, Control_c, 0, 67, 80
1, 25009, Control_c, 0, 67, 73
1, 25028, Control_c, 0, 67, 67
1, 25046, Control_c, 0, 67, 62
1, 25064, Control_c, 0, 67, 58
1, 25102, Control_c, 0, 67, 51
1, 25121, Control_c, 0, 67, 47
1, 25124, Note_off_c, 0, 56, 37
1, 25131, Note_off_c, 0, 68, 38
1, 25131, Poly_aftertouch_c, 0, 68, 0
1, 25140, Control_c, 0, 67, 42
1, 25158, Control_c, 0, 67, 37
1, 25177, Control_c, 0, 67, 32
1, 25195, Control_c, 0, 67, 28
1, 25215, Control_c, 0, 67, 24
1, 25253, Control_c, 0, 67, 18
1, 25271, Note_on_c, 0, 68, 65
1, 25278, Note_on_c, 0, 56, 49
1, 25290, Control_c, 0, 67, 12
1, 25328, Poly_aftertouch_c, 0, 44, 20
1, 25333, Note_off_c, 0, 44, 22
1, 25333, Poly_aftertouch_c, 0, 44, 0
1, 25364, Control_c, 0, 67, 8
1, 25388, Poly_aftertouch_c, 0, 51, 24
1, 25427, Note_off_c, 0, 56, 48
1, 25442, Note_off_c, 0, 51, 37
1, 25442, Poly_aftertouch_c, 0, 51, 0
1, 25486, Note_off_c, 0, 68, 36
1, 25486, Poly_aftertouch_c, 0, 68, 0
1, 25616, Note_on_c, 0, 68, 59
1, 25638, Note_on_c, 0, 56, 41
1, 25646, Control_c, 0, 64, 119
1, 25650, Note_on_c, 0, 51, 30
1, 25662, Note_on_c, 0, 46, 43
1, 25665, Note_on_c, 0, 61, 42
1, 25665, Note_on_c, 0, 63, 43
1, 25665, Control_c, 0, 64, 112
1, 25683, Control_c, 0, 64, 101
1, 25701, Control_c, 0, 64, 88
1, 25720, Control_c, 0, 64, 75
1, 25738, Control_c, 0, 64, 63
1, 25758, Control_c, 0, 64, 55
1, 25775, Control_c, 0, 64, 46
1, 25794, Control_c, 0, 64, 37
1, 25812, Control_c, 0, 64, 33
1, 25869, Control_c, 0, 64, 41
1, 25887, Control_c, 0, 64, 46
1, 25907, Control_c, 0, 64, 51
1, 25924, Control_c, 0, 64, 56
1, 25942, Control_c, 0, 64, 61
1, 25944, Note_on_c, 0, 55, 44
1, 25952, Note_on_c, 0, 67, 56
1, 25963, Control_c, 0, 64, 65
1, 25981, Control_c, 0, 64, 69
1, 25999, Control_c, 0, 64, 72
1, 26008, Note_off_c, 0, 56, 31
1, 26019, Control_c, 0, 64, 76
1, 26037, Control_c, 0, 64, 81
1, 26056, Control_c, 0, 64, 87
1, 26074, Control_c, 0, 64, 94
1, 26086, Note_off_c, 0, 68, 53
1, 26086, Poly_aftertouch_c, 0, 68, 0
1, 26092, Control_c, 0, 64, 101
1, 26100, Note_off_c, 0, 55, 38
1, 26113, Control_c, 0, 64, 106
1, 26137, Note_off_c, 0, 67, 35
1, 26150, Control_c, 0, 64, 111
1, 26244, Control_c, 0, 64, 106
1, 26261, Control_c, 0, 64, 100
1, 26272, Note_on_c, 0, 67, 64
1, 26280, Control_c, 0, 64, 90
1, 26283, Note_on_c, 0, 55, 40
1, 26299, Control_c, 0, 64, 77
1, 26318, Control_c, 0, 64, 63
1, 26336, Control_c, 0, 64, 51
1, 26354, Control_c, 0, 64, 38
1, 26375, Control_c, 0, 64, 24
1, 26392, Control_c, 0, 64, 20
1, 26430, Control_c, 0, 64, 31
1, 26449, Control_c, 0, 64, 42
1, 26467, Control_c, 0, 64, 53
1, 26487, Control_c, 0, 64, 63
1, 26505, Control_c, 0, 64, 69
1, 26523, Control_c, 0, 64, 73
1, 26542, Control_c, 0, 64, 77
1, 26550, Note_off_c, 0, 67, 38
1, 26562, Control_c, 0, 64, 82
1, 26563, Control_c, 0, 67, 0
1, 26580, Control_c, 0, 64, 87
1, 26598, Control_c, 0, 64, 92
1, 26616, Control_c, 0, 64, 97
1, 26636, Note_off_c, 0, 51, 27
1, 26636, Poly_aftertouch_c, 0, 51, 0
1, 26654, Control_c, 0, 64, 103
1, 26692, Control_c, 0, 64, 107
1, 26723, Note_off_c, 0, 55, 32
1, 26751, Note_on_c, 0, 65, 46
1, 26770, Note_on_c, 0, 53, 34
1, 26859, Control_c, 0, 64, 100
1, 26879, Control_c, 0, 64, 94
1, 26897, Control_c, 0, 64, 83
1, 26911, Note_on_c, 0, 67, 48
1, 26912, Note_on_c, 0, 55, 35
1, 26916, Control_c, 0, 64, 71
1, 26935, Control_c, 0, 64, 59
1, 26954, Control_c, 0, 64, 49
1, 26972, Control_c, 0, 64, 36
1, 26982, Note_off_c, 0, 53, 40
1, 26991, Control_c, 0, 64, 21
1, 27009, Control_c, 0, 64, 11
1, 27015, Note_off_c, 0, 65, 47
1, 27028, Note_off_c, 0, 63, 41
1, 27028, Poly_aftertouch_c, 0, 63, 0
1, 27065, Control_c, 0, 64, 21
1, 27084, Control_c, 0, 64, 29
1, 27103, Control_c, 0, 64, 36
1, 27122, Control_c, 0, 64, 44
1, 27141, Control_c, 0, 64, 53
1, 27159, Control_c, 0, 64, 62
1, 27178, Control_c, 0, 64, 69
1, 27196, Control_c, 0, 64, 74
1, 27215, Note_off_c, 0, 55, 57
1, 27215, Control_c, 0, 64, 78
1, 27227, Note_off_c, 0, 67, 54
1, 27233, Control_c, 0, 64, 84
1, 27253, Control_c, 0, 64, 91
1, 27271, Control_c, 0, 64, 99
1, 27290, Control_c, 0, 64, 105
1, 27309, Control_c, 0, 64, 109
1, 27345, Control_c, 0, 64, 115
1, 27394, Note_on_c, 0, 63, 65
1, 27406, Note_on_c, 0, 51, 48
1, 27517, Note_off_c, 0, 46, 37
1, 27552, Note_on_c, 0, 68, 64
1, 27571, Control_c, 0, 64, 111
1, 27578, Note_on_c, 0, 56, 48
1, 27589, Control_c, 0, 64, 107
1, 27607, Control_c, 0, 64, 101
1, 27626, Control_c, 0, 64, 91
1, 27635, Note_off_c, 0, 63, 56
1, 27635, Poly_aftertouch_c, 0, 63, 0
1, 27637, Note_off_c, 0, 51, 33
1, 27637, Poly_aftertouch_c, 0, 51, 0
1, 27644, Control_c, 0, 64, 80
1, 27664, Control_c, 0, 64, 68
1, 27683, Control_c, 0, 64, 55
1, 27701, Control_c, 0, 64, 37
1, 27721, Control_c, 0, 64, 0
1, 27738, Note_off_c, 0, 61, 47
1, 27907, Control_c, 0, 64, 17
1, 27926, Control_c, 0, 64, 26
1, 27944, Control_c, 0, 64, 33
1, 27963, Control_c, 0, 64, 37
1, 28000, Control_c, 0, 64, 42
1, 28019, Control_c, 0, 64, 44
1, 28038, Control_c, 0, 64, 47
1, 28056, Control_c, 0, 64, 53
1, 28075, Control_c, 0, 64, 58
1, 28094, Control_c, 0, 64, 62
1, 28113, Control_c, 0, 64, 65
1, 28131, Control_c, 0, 64, 67
1, 28167, Note_on_c, 0, 63, 30
1, 28167, Control_c, 0, 64, 69
1, 28182, Note_on_c, 0, 48, 33
1, 28185, Control_c, 0, 64, 71
1, 28206, Control_c, 0, 64, 73
1, 28224, Control_c, 0, 64, 76
1, 28244, Control_c, 0, 64, 78
1, 28263, Control_c, 0, 64, 82
1, 28281, Control_c, 0, 64, 87
1, 28300, Control_c, 0, 64, 93
1, 28319, Control_c, 0, 64, 100
1, 28337, Control_c, 0, 64, 106
1, 28356, Control_c, 0, 64, 110
1, 28362, Note_off_c, 0, 56, 51
1, 28374, Control_c, 0, 64, 115
1, 28394, Control_c, 0, 64, 121
1, 28411, Control_c, 0, 64, 127
1, 28556, Note_off_c, 0, 63, 42
1, 28556, Poly_aftertouch_c, 0, 63, 0
1, 28790, Note_on_c, 0, 70, 65
1, 28830, Note_on_c, 0, 58, 48
1, 28839, Note_on_c, 0, 63, 40
1, 28843, Note_on_c, 0, 43, 38
1, 28850, Note_on_c, 0, 51, 45
1, 28861, Control_c, 0, 64, 115
1, 28879, Control_c, 0, 64, 102
1, 28897, Control_c, 0, 64, 86
1, 28917, Control_c, 0, 64, 70
1, 28935, Control_c, 0, 64, 57
1, 28941, Note_off_c, 0, 68, 61
1, 28941, Poly_aftertouch_c, 0, 68, 0
1, 28954, Note_off_c, 0, 48, 41
1, 28954, Poly_aftertouch_c, 0, 48, 0
1, 28954, Control_c, 0, 64, 49
1, 28973, Control_c, 0, 64, 44
1, 29010, Control_c, 0, 64, 47
1, 29028, Control_c, 0, 64, 51
1, 29048, Control_c, 0, 64, 59
1, 29067, Control_c, 0, 64, 67
1, 29081, Note_off_c, 0, 58, 58
1, 29084, Control_c, 0, 64, 73
1, 29091, Note_off_c, 0, 51, 60
1, 29091, Poly_aftertouch_c, 0, 51, 0
1, 29105, Control_c, 0, 64, 78
1, 29122, Control_c, 0, 64, 84
1, 29141, Control_c, 0, 64, 92
1, 29150, Note_off_c, 0, 70, 61
1, 29160, Control_c, 0, 64, 102
1, 29178, Control_c, 0, 64, 115
1, 29197, Control_c, 0, 64, 127
1, 29224, Note_off_c, 0, 43, 58
1, 29392, Note_off_c, 0, 63, 32
1, 29392, Poly_aftertouch_c, 0, 63, 0
1, 29501, Note_on_c, 0, 73, 68
1, 29528, Note_on_c, 0, 68, 59
1, 29536, Note_on_c, 0, 63, 54
1, 29542, Note_on_c, 0, 51, 44
1, 29550, Note_on_c, 0, 60, 47
1, 29550, Control_c, 0, 64, 117
1, 29556, Note_on_c, 0, 44, 44
1, 29571, Control_c, 0, 64, 98
1, 29591, Control_c, 0, 64, 77
1, 29609, Control_c, 0, 64, 58
1, 29628, Control_c, 0, 64, 46
1, 29646, Control_c, 0, 64, 37
1, 29683, Control_c, 0, 64, 40
1, 29701, Control_c, 0, 64, 47
1, 29721, Control_c, 0, 64, 58
1, 29739, Control_c, 0, 64, 69
1, 29758, Control_c, 0, 64, 77
1, 29769, Note_off_c, 0, 60, 53
1, 29769, Poly_aftertouch_c, 0, 60, 0
1, 29774, Note_off_c, 0, 68, 58
1, 29774, Poly_aftertouch_c, 0, 68, 0
1, 29777, Control_c, 0, 64, 85
1, 29783, Note_off_c, 0, 73, 62
1, 29783, Poly_aftertouch_c, 0, 73, 0
1, 29796, Control_c, 0, 64, 96
1, 29814, Control_c, 0, 64, 109
1, 29826, Note_off_c, 0, 51, 36
1, 29826, Poly_aftertouch_c, 0, 51, 0
1, 29832, Control_c, 0, 64, 121
1, 29851, Control_c, 0, 64, 127
1, 29875, Note_off_c, 0, 63, 35
1, 29875, Poly_aftertouch_c, 0, 63, 0
1, 30026, Note_on_c, 0, 72, 61
1, 30129, Note_off_c, 0, 72, 54
1, 30216, Note_on_c, 0, 70, 65
1, 30238, Note_on_c, 0, 67, 46
1, 30242, Note_on_c, 0, 63, 49
1, 30254, Note_on_c, 0, 39, 46
1, 30260, Note_on_c, 0, 51, 40
1, 30261, Note_on_c, 0, 58, 50
1, 30264, Control_c, 0, 64, 105
1, 30282, Control_c, 0, 64, 81
1, 30301, Control_c, 0, 64, 58
1, 30319, Control_c, 0, 64, 41
1, 30322, Note_off_c, 0, 44, 37
1, 30322, Poly_aftertouch_c, 0, 44, 0
1, 30339, Control_c, 0, 64, 21
1, 30357, Control_c, 0, 64, 11
1, 30375, Control_c, 0, 64, 15
1, 30394, Control_c, 0, 64, 28
1, 30413, Control_c, 0, 64, 41
1, 30428, Note_off_c, 0, 58, 59
1, 30429, Control_c, 0, 64, 54
1, 30450, Control_c, 0, 64, 66
1, 30453, Note_off_c, 0, 67, 38
1, 30467, Note_off_c, 0, 39, 54
1, 30468, Control_c, 0, 64, 74
1, 30487, Note_off_c, 0, 63, 58
1, 30487, Poly_aftertouch_c, 0, 63, 0
1, 30487, Control_c, 0, 64, 80
1, 30507, Control_c, 0, 64, 88
1, 30525, Control_c, 0, 64, 97
1, 30535, Note_off_c, 0, 51, 36
1, 30535, Poly_aftertouch_c, 0, 51, 0
1, 30542, Control_c, 0, 64, 106
1, 30562, Control_c, 0, 64, 115
1, 30582, Control_c, 0, 64, 124
1, 30619, Note_off_c, 0, 70, 33
1, 30898, Control_c, 0, 67, 8
1, 30934, Note_on_c, 0, 72, 60
1, 30987, Note_on_c, 0, 70, 66
1, 30992, Control_c, 0, 67, 13
1, 31030, Control_c, 0, 64, 115
1, 31032, Control_c, 0, 67, 19
1, 31048, Control_c, 0, 64, 107
1, 31050, Control_c, 0, 67, 23
1, 31069, Control_c, 0, 64, 96
1, 31070, Control_c, 0, 67, 29
1, 31086, Control_c, 0, 64, 84
1, 31088, Control_c, 0, 67, 36
1, 31096, Note_off_c, 0, 72, 52
1, 31105, Control_c, 0, 64, 72
1, 31108, Control_c, 0, 67, 41
1, 31123, Control_c, 0, 64, 61
1, 31143, Control_c, 0, 64, 48
1, 31144, Control_c, 0, 67, 48
1, 31161, Control_c, 0, 64, 23
1, 31179, Control_c, 0, 64, 0
1, 31180, Control_c, 0, 67, 55
1, 31198, Control_c, 0, 67, 59
1, 31205, Note_on_c, 0, 69, 69
1, 31218, Control_c, 0, 67, 64
1, 31235, Control_c, 0, 67, 68
1, 31254, Control_c, 0, 64, 13
1, 31265, Note_off_c, 0, 70, 53
1, 31271, Control_c, 0, 64, 18
1, 31273, Control_c, 0, 67, 76
1, 31291, Control_c, 0, 64, 23
1, 31292, Control_c, 0, 67, 80
1, 31310, Control_c, 0, 64, 30
1, 31312, Control_c, 0, 67, 85
1, 31329, Control_c, 0, 64, 37
1, 31331, Control_c, 0, 67, 90
1, 31349, Control_c, 0, 64, 42
1, 31349, Control_c, 0, 67, 96
1, 31365, Note_on_c, 0, 70, 67
1, 31365, Control_c, 0, 64, 46
1, 31366, Control_c, 0, 67, 101
1, 31385, Control_c, 0, 64, 51
1, 31386, Control_c, 0, 67, 106
1, 31395, Note_off_c, 0, 69, 55
1, 31402, Control_c, 0, 64, 58
1, 31404, Control_c, 0, 67, 110
1, 31422, Control_c, 0, 64, 63
1, 31423, Control_c, 0, 67, 114
1, 31459, Control_c, 0, 67, 120
1, 31516, Control_c, 0, 67, 125
1, 31536, Note_on_c, 0, 72, 70
1, 31578, Note_off_c, 0, 70, 58
1, 31591, Control_c, 0, 64, 62
1, 31647, Control_c, 0, 64, 61
1, 31721, Control_c, 0, 64, 60
1, 31729, Note_on_c, 0, 73, 74
1, 31761, Note_on_c, 0, 53, 41
1, 31768, Note_on_c, 0, 68, 41
1, 31776, Control_c, 0, 64, 57
1, 31815, Control_c, 0, 64, 54
1, 31833, Control_c, 0, 64, 51
1, 31835, Note_off_c, 0, 72, 57
1, 31854, Control_c, 0, 64, 46
1, 31871, Control_c, 0, 64, 39
1, 31890, Control_c, 0, 64, 32
1, 31909, Control_c, 0, 64, 18
1, 31927, Control_c, 0, 64, 0
1, 32077, Control_c, 0, 64, 19
1, 32095, Control_c, 0, 64, 28
1, 32114, Control_c, 0, 64, 37
1, 32133, Control_c, 0, 64, 46
1, 32152, Control_c, 0, 64, 56
1, 32170, Control_c, 0, 64, 65
1, 32189, Control_c, 0, 64, 73
1, 32208, Control_c, 0, 64, 79
1, 32227, Control_c, 0, 64, 86
1, 32244, Control_c, 0, 64, 92
1, 32264, Control_c, 0, 64, 97
1, 32265, Control_c, 0, 67, 121
1, 32283, Control_c, 0, 67, 117
1, 32302, Control_c, 0, 64, 104
1, 32303, Control_c, 0, 67, 112
1, 32320, Control_c, 0, 64, 109
1, 32321, Control_c, 0, 67, 108
1, 32339, Control_c, 0, 64, 115
1, 32357, Control_c, 0, 64, 119
1, 32358, Control_c, 0, 67, 102
1, 32395, Control_c, 0, 67, 93
1, 32414, Control_c, 0, 67, 86
1, 32431, Control_c, 0, 64, 123
1, 32431, Control_c, 0, 67, 79
1, 32441, Note_on_c, 0, 65, 41
1, 32449, Control_c, 0, 67, 75
1, 32488, Control_c, 0, 67, 70
1, 32509, Poly_aftertouch_c, 0, 53, 22
1, 32525, Control_c, 0, 64, 115
1, 32545, Control_c, 0, 64, 109
1, 32546, Control_c, 0, 67, 65
1, 32547, Note_off_c, 0, 53, 21
1, 32547, Poly_aftertouch_c, 0, 53, 0
1, 32563, Control_c, 0, 64, 100
1, 32581, Control_c, 0, 64, 87
1, 32581, Control_c, 0, 67, 60
1, 32601, Control_c, 0, 64, 79
1, 32620, Control_c, 0, 67, 54
1, 32637, Control_c, 0, 64, 81
1, 32638, Control_c, 0, 67, 50
1, 32657, Control_c, 0, 64, 85
1, 32659, Control_c, 0, 67, 44
1, 32676, Control_c, 0, 64, 92
1, 32678, Control_c, 0, 67, 37
1, 32695, Control_c, 0, 64, 101
1, 32695, Control_c, 0, 67, 31
1, 32714, Control_c, 0, 64, 111
1, 32715, Control_c, 0, 67, 25
1, 32731, Control_c, 0, 64, 119
1, 32733, Control_c, 0, 67, 20
1, 32751, Control_c, 0, 64, 124
1, 32753, Control_c, 0, 67, 15
1, 32768, Control_c, 0, 67, 11
1, 32771, Note_off_c, 0, 68, 41
1, 32771, Poly_aftertouch_c, 0, 68, 0
1, 32899, Control_c, 0, 64, 119
1, 32917, Control_c, 0, 64, 113
1, 32937, Control_c, 0, 64, 107
1, 32938, Control_c, 0, 67, 15
1, 32956, Control_c, 0, 64, 99
1, 32976, Control_c, 0, 64, 92
1, 32977, Control_c, 0, 67, 20
1, 32993, Control_c, 0, 64, 87
1, 33012, Control_c, 0, 64, 84
1, 33012, Control_c, 0, 67, 26
1, 33049, Control_c, 0, 64, 81
1, 33068, Control_c, 0, 67, 30
1, 33075, Note_on_c, 0, 72, 58
1, 33087, Control_c, 0, 64, 79
1, 33104, Note_on_c, 0, 63, 42
1, 33104, Control_c, 0, 67, 34
1, 33119, Note_on_c, 0, 68, 38
1, 33122, Control_c, 0, 64, 77
1, 33142, Control_c, 0, 64, 75
1, 33162, Control_c, 0, 64, 72
1, 33179, Control_c, 0, 64, 69
1, 33180, Control_c, 0, 67, 38
1, 33199, Control_c, 0, 64, 67
1, 33217, Control_c, 0, 64, 64
1, 33236, Control_c, 0, 64, 61
1, 33238, Control_c, 0, 67, 43
1, 33255, Control_c, 0, 64, 59
1, 33275, Control_c, 0, 64, 55
1, 33293, Control_c, 0, 64, 50
1, 33310, Control_c, 0, 64, 43
1, 33329, Control_c, 0, 64, 33
1, 33330, Control_c, 0, 67, 48
1, 33349, Control_c, 0, 64, 17
1, 33355, Note_off_c, 0, 65, 47
1, 33367, Control_c, 0, 67, 52
1, 33385, Control_c, 0, 64, 0
1, 33441, Control_c, 0, 64, 17
1, 33460, Control_c, 0, 64, 28
1, 33480, Control_c, 0, 64, 42
1, 33498, Control_c, 0, 64, 56
1, 33502, Poly_aftertouch_c, 0, 73, 24
1, 33516, Control_c, 0, 64, 68
1, 33535, Control_c, 0, 64, 74
1, 33554, Control_c, 0, 64, 78
1, 33572, Control_c, 0, 64, 84
1, 33593, Control_c, 0, 64, 91
1, 33602, Note_off_c, 0, 68, 37
1, 33602, Poly_aftertouch_c, 0, 68, 0
1, 33610, Control_c, 0, 64, 98
1, 33629, Control_c, 0, 64, 102
1, 33760, Control_c, 0, 64, 96
1, 33777, Note_on_c, 0, 77, 60
1, 33777, Control_c, 0, 64, 92
1, 33797, Control_c, 0, 64, 87
1, 33810, Note_on_c, 0, 62, 38
1, 33811, Note_on_c, 0, 68, 43
1, 33816, Control_c, 0, 64, 81
1, 33821, Note_on_c, 0, 70, 34
1, 33835, Poly_aftertouch_c, 0, 73, 22
1, 33835, Control_c, 0, 64, 74
1, 33853, Control_c, 0, 64, 67
1, 33872, Control_c, 0, 64, 62
1, 33873, Note_off_c, 0, 73, 19
1, 33873, Poly_aftertouch_c, 0, 73, 0
1, 33890, Control_c, 0, 64, 56
1, 33909, Control_c, 0, 64, 50
1, 33915, Note_off_c, 0, 72, 51
1, 33919, Note_off_c, 0, 63, 37
1, 33919, Poly_aftertouch_c, 0, 63, 0
1, 33928, Control_c, 0, 64, 39
1, 33946, Control_c, 0, 64, 21
1, 33966, Control_c, 0, 64, 0
1, 34040, Control_c, 0, 64, 16
1, 34055, Note_off_c, 0, 70, 39
1, 34058, Control_c, 0, 64, 24
1, 34078, Control_c, 0, 64, 35
1, 34096, Control_c, 0, 64, 50
1, 34115, Control_c, 0, 64, 63
1, 34133, Control_c, 0, 64, 72
1, 34153, Control_c, 0, 64, 78
1, 34172, Control_c, 0, 64, 84
1, 34189, Control_c, 0, 64, 93
1, 34205, Note_off_c, 0, 68, 51
1, 34205, Poly_aftertouch_c, 0, 68, 0
1, 34207, Control_c, 0, 64, 103
1, 34227, Control_c, 0, 64, 110
1, 34246, Control_c, 0, 64, 115
1, 34284, Control_c, 0, 64, 119
1, 34285, Control_c, 0, 67, 57
1, 34377, Control_c, 0, 67, 62
1, 34422, Note_on_c, 0, 70, 51
1, 34434, Control_c, 0, 64, 115
1, 34435, Control_c, 0, 67, 67
1, 34446, Note_on_c, 0, 67, 39
1, 34450, Control_c, 0, 64, 110
1, 34467, Note_on_c, 0, 61, 36
1, 34468, Control_c, 0, 64, 103
1, 34469, Control_c, 0, 67, 71
1, 34489, Control_c, 0, 64, 93
1, 34508, Control_c, 0, 64, 83
1, 34526, Control_c, 0, 64, 72
1, 34530, Control_c, 0, 67, 77
1, 34545, Control_c, 0, 64, 62
1, 34566, Control_c, 0, 64, 52
1, 34567, Control_c, 0, 67, 84
1, 34582, Control_c, 0, 64, 42
1, 34601, Control_c, 0, 64, 25
1, 34602, Control_c, 0, 67, 91
1, 34608, Note_off_c, 0, 77, 40
1, 34619, Control_c, 0, 64, 0
1, 34620, Control_c, 0, 67, 96
1, 34639, Control_c, 0, 67, 101
1, 34640, Note_off_c, 0, 62, 42
1, 34657, Control_c, 0, 67, 106
1, 34676, Control_c, 0, 67, 111
1, 34695, Control_c, 0, 64, 17
1, 34696, Control_c, 0, 67, 116
1, 34713, Control_c, 0, 64, 26
1, 34715, Control_c, 0, 67, 121
1, 34732, Control_c, 0, 64, 34
1, 34734, Control_c, 0, 67, 125
1, 34751, Control_c, 0, 64, 44
1, 34770, Control_c, 0, 64, 54
1, 34788, Control_c, 0, 64, 64
1, 34807, Control_c, 0, 64, 72
1, 34827, Control_c, 0, 64, 77
1, 34845, Control_c, 0, 64, 80
1, 34862, Control_c, 0, 64, 83
1, 34884, Control_c, 0, 64, 87
1, 34919, Control_c, 0, 64, 92
1, 35133, Poly_aftertouch_c, 0, 70, 20
1, 35140, Note_on_c, 0, 75, 36
1, 35162, Control_c, 0, 64, 88
1, 35181, Control_c, 0, 64, 86
1, 35184, Note_on_c, 0, 68, 30
1, 35190, Note_on_c, 0, 60, 26
1, 35198, Control_c, 0, 64, 83
1, 35218, Control_c, 0, 64, 79
1, 35236, Control_c, 0, 64, 75
1, 35237, Note_off_c, 0, 70, 19
1, 35237, Poly_aftertouch_c, 0, 70, 0
1, 35255, Control_c, 0, 64, 70
1, 35274, Control_c, 0, 64, 65
1, 35292, Control_c, 0, 64, 60
1, 35303, Note_off_c, 0, 61, 41
1, 35311, Control_c, 0, 64, 52
1, 35330, Control_c, 0, 64, 42
1, 35349, Control_c, 0, 64, 19
1, 35368, Control_c, 0, 64, 0
1, 35480, Control_c, 0, 64, 25
1, 35498, Control_c, 0, 64, 40
1, 35517, Control_c, 0, 64, 53
1, 35532, Poly_aftertouch_c, 0, 67, 24
1, 35534, Control_c, 0, 64, 64
1, 35554, Control_c, 0, 64, 70
1, 35574, Control_c, 0, 64, 74
1, 35591, Control_c, 0, 64, 76
1, 35607, Note_off_c, 0, 67, 33
1, 35607, Poly_aftertouch_c, 0, 67, 0
1, 35610, Control_c, 0, 64, 79
1, 35629, Control_c, 0, 64, 82
1, 35642, Note_off_c, 0, 68, 43
1, 35642, Poly_aftertouch_c, 0, 68, 0
1, 35649, Control_c, 0, 64, 85
1, 35685, Control_c, 0, 64, 91
1, 35722, Control_c, 0, 64, 95
1, 35802, Note_off_c, 0, 75, 35
1, 35918, Note_on_c, 0, 70, 33
1, 35948, Control_c, 0, 64, 91
1, 35958, Poly_aftertouch_c, 0, 60, 24
1, 35967, Note_on_c, 0, 68, 37
1, 35982, Note_off_c, 0, 60, 38
1, 35982, Poly_aftertouch_c, 0, 60, 0
1, 36003, Control_c, 0, 64, 87
1, 36041, Control_c, 0, 64, 85
1, 36059, Control_c, 0, 64, 83
1, 36061, Note_off_c, 0, 70, 38
1, 36061, Poly_aftertouch_c, 0, 70, 0
1, 36078, Control_c, 0, 64, 81
1, 36097, Control_c, 0, 64, 79
1, 36116, Control_c, 0, 64, 77
1, 36117, Note_off_c, 0, 68, 46
1, 36117, Poly_aftertouch_c, 0, 68, 0
1, 36131, Note_on_c, 0, 67, 39
1, 36133, Control_c, 0, 64, 74
1, 36153, Control_c, 0, 64, 72
1, 36171, Control_c, 0, 64, 70
1, 36208, Control_c, 0, 64, 68
1, 36228, Control_c, 0, 64, 67
1, 36247, Control_c, 0, 64, 66
1, 36261, Note_off_c, 0, 67, 59
1, 36261, Poly_aftertouch_c, 0, 67, 0
1, 36280, Note_on_c, 0, 68, 51
1, 36283, Control_c, 0, 64, 64
1, 36303, Control_c, 0, 64, 63
1, 36340, Control_c, 0, 64, 62
1, 36359, Control_c, 0, 64, 61
1, 36415, Control_c, 0, 64, 60
1, 36431, Note_on_c, 0, 70, 54
1, 36444, Note_off_c, 0, 68, 50
1, 36444, Poly_aftertouch_c, 0, 68, 0
1, 36490, Control_c, 0, 64, 57
1, 36527, Control_c, 0, 64, 55
1, 36546, Control_c, 0, 64, 53
1, 36565, Control_c, 0, 64, 51
1, 36583, Control_c, 0, 64, 48
1, 36603, Control_c, 0, 64, 43
1, 36620, Note_on_c, 0, 72, 43
1, 36622, Control_c, 0, 64, 38
1, 36629, Note_on_c, 0, 68, 39
1, 36632, Note_off_c, 0, 70, 48
1, 36632, Poly_aftertouch_c, 0, 70, 0
1, 36634, Note_on_c, 0, 63, 41
1, 36636, Note_on_c, 0, 51, 32
1, 36640, Control_c, 0, 64, 30
1, 36658, Control_c, 0, 64, 19
1, 36678, Control_c, 0, 64, 0
1, 36826, Control_c, 0, 64, 14
1, 36845, Control_c, 0, 64, 25
1, 36863, Control_c, 0, 64, 35
1, 36882, Control_c, 0, 64, 46
1, 36892, Note_off_c, 0, 68, 52
1, 36892, Poly_aftertouch_c, 0, 68, 0
1, 36900, Control_c, 0, 64, 57
1, 36920, Control_c, 0, 64, 67
1, 36937, Control_c, 0, 64, 73
1, 36957, Control_c, 0, 64, 78
1, 36972, Note_off_c, 0, 63, 45
1, 36972, Poly_aftertouch_c, 0, 63, 0
1, 36975, Control_c, 0, 64, 81
1, 36996, Control_c, 0, 64, 85
1, 37013, Control_c, 0, 64, 89
1, 37032, Control_c, 0, 64, 93
1, 37068, Control_c, 0, 64, 99
1, 37091, Note_off_c, 0, 72, 32
1, 37218, Control_c, 0, 64, 94
1, 37256, Control_c, 0, 64, 89
1, 37275, Control_c, 0, 64, 84
1, 37276, Note_on_c, 0, 70, 38
1, 37283, Note_on_c, 0, 67, 31
1, 37294, Control_c, 0, 64, 77
1, 37303, Note_on_c, 0, 61, 28
1, 37312, Control_c, 0, 64, 69
1, 37320, Note_on_c, 0, 39, 23
1, 37331, Control_c, 0, 64, 64
1, 37349, Control_c, 0, 64, 58
1, 37369, Control_c, 0, 64, 50
1, 37387, Control_c, 0, 64, 37
1, 37406, Control_c, 0, 64, 19
1, 37423, Note_off_c, 0, 51, 34
1, 37423, Poly_aftertouch_c, 0, 51, 0
1, 37423, Control_c, 0, 64, 0
1, 37499, Control_c, 0, 64, 13
1, 37519, Control_c, 0, 64, 23
1, 37536, Control_c, 0, 64, 33
1, 37556, Control_c, 0, 64, 45
1, 37568, Note_off_c, 0, 61, 52
1, 37573, Note_off_c, 0, 67, 42
1, 37573, Poly_aftertouch_c, 0, 67, 0
1, 37573, Control_c, 0, 64, 56
1, 37593, Control_c, 0, 64, 65
1, 37611, Control_c, 0, 64, 70
1, 37631, Control_c, 0, 64, 74
1, 37649, Control_c, 0, 64, 76
1, 37667, Control_c, 0, 64, 79
1, 37686, Control_c, 0, 64, 81
1, 37706, Control_c, 0, 64, 84
1, 37724, Control_c, 0, 64, 87
1, 37780, Control_c, 0, 64, 91
1, 37784, Note_off_c, 0, 70, 41
1, 37784, Poly_aftertouch_c, 0, 70, 0
1, 37911, Control_c, 0, 64, 87
1, 37930, Control_c, 0, 64, 85
1, 37945, Note_off_c, 0, 39, 26
1, 37948, Control_c, 0, 64, 83
1, 37966, Control_c, 0, 64, 79
1, 37973, Note_on_c, 0, 68, 32
1, 37980, Note_on_c, 0, 60, 30
1, 37985, Note_on_c, 0, 44, 31
1, 37986, Control_c, 0, 64, 76
1, 38004, Control_c, 0, 64, 72
1, 38022, Control_c, 0, 64, 68
1, 38042, Control_c, 0, 64, 65
1, 38060, Control_c, 0, 64, 62
1, 38078, Control_c, 0, 64, 59
1, 38098, Control_c, 0, 64, 56
1, 38116, Control_c, 0, 64, 51
1, 38135, Control_c, 0, 64, 44
1, 38153, Control_c, 0, 64, 35
1, 38173, Control_c, 0, 64, 23
1, 38192, Control_c, 0, 64, 11
1, 38194, Note_off_c, 0, 44, 34
1, 38194, Poly_aftertouch_c, 0, 44, 0
1, 38209, Control_c, 0, 64, 0
1, 38691, Note_on_c, 0, 32, 30
1, 38720, Note_off_c, 0, 60, 39
1, 38720, Poly_aftertouch_c, 0, 60, 0
1, 38808, Control_c, 0, 64, 13
1, 38814, Note_off_c, 0, 68, 48
1, 38814, Poly_aftertouch_c, 0, 68, 0
1, 38823, Note_off_c, 0, 32, 46
1, 38826, Control_c, 0, 64, 28
1, 38846, Control_c, 0, 64, 43
1, 38864, Control_c, 0, 64, 53
1, 38883, Control_c, 0, 64, 61
1, 38902, Control_c, 0, 64, 67
1, 38921, Control_c, 0, 64, 70
1, 38939, Control_c, 0, 64, 72
1, 38976, Control_c, 0, 64, 75
1, 39350, Control_c, 0, 64, 73
1, 39407, Control_c, 0, 64, 71
1, 39463, Control_c, 0, 64, 68
1, 39499, Control_c, 0, 64, 66
1, 39519, Control_c, 0, 64, 65
1, 39534, Note_on_c, 0, 65, 55
1, 39538, Control_c, 0, 64, 63
1, 39557, Control_c, 0, 64, 61
1, 39575, Control_c, 0, 64, 60
1, 39613, Control_c, 0, 64, 57
1, 39630, Control_c, 0, 64, 53
1, 39650, Control_c, 0, 64, 50
1, 39669, Control_c, 0, 64, 45
1, 39687, Control_c, 0, 64, 38
1, 39706, Control_c, 0, 64, 27
1, 39724, Control_c, 0, 64, 9
1, 39744, Control_c, 0, 64, 0
1, 39949, Control_c, 0, 64, 15
1, 39967, Control_c, 0, 64, 21
1, 39985, Control_c, 0, 64, 27
1, 40005, Control_c, 0, 64, 32
1, 40023, Control_c, 0, 64, 37
1, 40042, Control_c, 0, 64, 42
1, 40061, Control_c, 0, 64, 45
1, 40080, Control_c, 0, 64, 48
1, 40098, Control_c, 0, 64, 50
1, 40136, Control_c, 0, 64, 52
1, 40192, Control_c, 0, 64, 54
1, 40210, Control_c, 0, 64, 56
1, 40229, Control_c, 0, 64, 58
1, 40243, Note_on_c, 0, 72, 56
1, 40248, Control_c, 0, 64, 60
1, 40267, Control_c, 0, 64, 62
1, 40280, Note_on_c, 0, 69, 43
1, 40285, Control_c, 0, 64, 63
1, 40324, Control_c, 0, 64, 64
1, 40342, Control_c, 0, 64, 65
1, 40360, Control_c, 0, 64, 67
1, 40398, Control_c, 0, 64, 69
1, 40417, Control_c, 0, 64, 71
1, 40434, Control_c, 0, 64, 73
1, 40454, Control_c, 0, 64, 75
1, 40472, Control_c, 0, 64, 77
1, 40473, Control_c, 0, 67, 118
1, 40492, Control_c, 0, 67, 108
1, 40510, Control_c, 0, 64, 81
1, 40511, Control_c, 0, 67, 95
1, 40530, Control_c, 0, 64, 84
1, 40533, Control_c, 0, 67, 82
1, 40547, Control_c, 0, 64, 88
1, 40548, Control_c, 0, 67, 71
1, 40566, Control_c, 0, 64, 92
1, 40567, Control_c, 0, 67, 59
1, 40585, Control_c, 0, 64, 97
1, 40586, Control_c, 0, 67, 48
1, 40603, Control_c, 0, 64, 102
1, 40604, Control_c, 0, 67, 36
1, 40622, Control_c, 0, 67, 25
1, 40641, Control_c, 0, 64, 108
1, 40643, Control_c, 0, 67, 15
1, 40679, Control_c, 0, 64, 112
1, 40734, Control_c, 0, 64, 117
1, 40735, Control_c, 0, 67, 0
1, 40860, Note_on_c, 0, 70, 61
1, 40906, Note_on_c, 0, 67, 44
1, 40996, Control_c, 0, 64, 111
1, 41034, Control_c, 0, 64, 104
1, 41052, Control_c, 0, 64, 100
1, 41071, Control_c, 0, 64, 96
1, 41101, Note_off_c, 0, 72, 54
1, 41111, Note_off_c, 0, 69, 51
1, 41221, Control_c, 0, 64, 102
1, 41258, Control_c, 0, 64, 107
1, 41514, Note_on_c, 0, 72, 63
1, 41535, Note_on_c, 0, 63, 54
1, 41537, Control_c, 0, 64, 100
1, 41543, Note_off_c, 0, 67, 47
1, 41543, Note_on_c, 0, 69, 49
1, 41543, Poly_aftertouch_c, 0, 67, 0
1, 41558, Control_c, 0, 64, 96
1, 41575, Control_c, 0, 64, 88
1, 41595, Control_c, 0, 64, 79
1, 41614, Control_c, 0, 64, 69
1, 41631, Control_c, 0, 64, 59
1, 41651, Control_c, 0, 64, 49
1, 41670, Control_c, 0, 64, 31
1, 41676, Note_off_c, 0, 65, 37
1, 41688, Control_c, 0, 64, 0
1, 41733, Note_off_c, 0, 70, 38
1, 41733, Poly_aftertouch_c, 0, 70, 0
1, 41744, Control_c, 0, 64, 12
1, 41763, Control_c, 0, 64, 26
1, 41781, Control_c, 0, 64, 39
1, 41800, Control_c, 0, 64, 51
1, 41819, Control_c, 0, 64, 62
1, 41837, Control_c, 0, 64, 70
1, 41856, Control_c, 0, 64, 76
1, 41875, Control_c, 0, 64, 80
1, 41894, Control_c, 0, 64, 86
1, 41912, Control_c, 0, 64, 92
1, 41931, Control_c, 0, 64, 100
1, 41950, Control_c, 0, 64, 107
1, 41954, Note_off_c, 0, 63, 37
1, 41954, Poly_aftertouch_c, 0, 63, 0
1, 41968, Control_c, 0, 64, 112
1, 41986, Control_c, 0, 64, 116
1, 42025, Control_c, 0, 64, 121
1, 42183, Note_on_c, 0, 73, 67
1, 42191, Control_c, 0, 64, 117
1, 42209, Note_on_c, 0, 70, 50
1, 42223, Note_on_c, 0, 63, 42
1, 42230, Control_c, 0, 64, 110
1, 42249, Control_c, 0, 64, 104
1, 42267, Control_c, 0, 64, 95
1, 42278, Note_off_c, 0, 72, 50
1, 42286, Control_c, 0, 64, 83
1, 42306, Control_c, 0, 64, 71
1, 42323, Control_c, 0, 64, 61
1, 42342, Control_c, 0, 64, 55
1, 42361, Control_c, 0, 64, 48
1, 42379, Control_c, 0, 64, 37
1, 42398, Control_c, 0, 64, 23
1, 42417, Control_c, 0, 64, 13
1, 42493, Control_c, 0, 64, 17
1, 42510, Control_c, 0, 64, 22
1, 42529, Control_c, 0, 64, 29
1, 42537, Note_on_c, 0, 61, 55
1, 42548, Control_c, 0, 64, 37
1, 42567, Control_c, 0, 64, 49
1, 42585, Control_c, 0, 64, 60
1, 42604, Control_c, 0, 64, 69
1, 42622, Control_c, 0, 64, 75
1, 42635, Note_off_c, 0, 63, 49
1, 42635, Poly_aftertouch_c, 0, 63, 0
1, 42640, Control_c, 0, 64, 80
1, 42660, Control_c, 0, 64, 84
1, 42680, Control_c, 0, 64, 90
1, 42681, Control_c, 0, 67, 8
1, 42687, Note_off_c, 0, 73, 49
1, 42687, Poly_aftertouch_c, 0, 73, 0
1, 42698, Control_c, 0, 64, 95
1, 42735, Control_c, 0, 64, 100
1, 42736, Control_c, 0, 67, 12
1, 42791, Control_c, 0, 67, 18
1, 42829, Control_c, 0, 67, 24
1, 42866, Control_c, 0, 67, 30
1, 42874, Note_on_c, 0, 77, 61
1, 42884, Note_on_c, 0, 73, 45
1, 42884, Control_c, 0, 64, 95
1, 42885, Control_c, 0, 67, 34
1, 42898, Note_on_c, 0, 60, 45
1, 42903, Control_c, 0, 67, 38
1, 42922, Control_c, 0, 64, 90
1, 42923, Control_c, 0, 67, 42
1, 42940, Control_c, 0, 64, 85
1, 42941, Control_c, 0, 67, 46
1, 42959, Control_c, 0, 64, 80
1, 42960, Control_c, 0, 67, 51
1, 42966, Note_off_c, 0, 61, 54
1, 42976, Note_off_c, 0, 69, 33
1, 42977, Control_c, 0, 64, 74
1, 42980, Control_c, 0, 67, 55
1, 42996, Control_c, 0, 64, 69
1, 43005, Note_off_c, 0, 70, 60
1, 43005, Poly_aftertouch_c, 0, 70, 0
1, 43016, Control_c, 0, 64, 66
1, 43017, Control_c, 0, 67, 61
1, 43034, Control_c, 0, 64, 64
1, 43053, Control_c, 0, 64, 61
1, 43072, Control_c, 0, 64, 59
1, 43073, Control_c, 0, 67, 66
1, 43090, Control_c, 0, 64, 56
1, 43110, Control_c, 0, 64, 53
1, 43111, Control_c, 0, 67, 72
1, 43127, Control_c, 0, 64, 50
1, 43146, Control_c, 0, 64, 47
1, 43149, Control_c, 0, 67, 78
1, 43165, Control_c, 0, 64, 44
1, 43183, Control_c, 0, 64, 40
1, 43184, Control_c, 0, 67, 82
1, 43202, Control_c, 0, 64, 36
1, 43213, Note_on_c, 0, 58, 41
1, 43221, Control_c, 0, 64, 32
1, 43239, Control_c, 0, 67, 86
1, 43258, Control_c, 0, 64, 26
1, 43265, Note_off_c, 0, 60, 47
1, 43265, Poly_aftertouch_c, 0, 60, 0
1, 43278, Control_c, 0, 64, 22
1, 43296, Control_c, 0, 64, 17
1, 43298, Control_c, 0, 67, 92
1, 43315, Control_c, 0, 64, 9
1, 43333, Control_c, 0, 64, 0
1, 43334, Control_c, 0, 67, 96
1, 43370, Control_c, 0, 67, 102
1, 43389, Control_c, 0, 67, 106
1, 43427, Control_c, 0, 67, 112
1, 43464, Control_c, 0, 67, 118
1, 43502, Control_c, 0, 67, 123
1, 43558, Control_c, 0, 67, 127
1, 43662, Note_on_c, 0, 63, 42
1, 43756, Note_off_c, 0, 58, 35
1, 43795, Note_off_c, 0, 77, 48
1, 43826, Note_off_c, 0, 73, 59
1, 43826, Poly_aftertouch_c, 0, 73, 0
1, 43857, Control_c, 0, 64, 18
1, 43876, Control_c, 0, 64, 29
1, 43894, Control_c, 0, 64, 39
1, 43912, Control_c, 0, 64, 46
1, 43931, Control_c, 0, 64, 53
1, 43950, Control_c, 0, 64, 59
1, 43969, Control_c, 0, 64, 63
1, 43987, Control_c, 0, 64, 65
1, 44044, Control_c, 0, 64, 66
1, 44269, Control_c, 0, 64, 65
1, 44324, Control_c, 0, 64, 64
1, 44343, Control_c, 0, 64, 63
1, 44376, Note_on_c, 0, 70, 42
1, 44380, Control_c, 0, 64, 61
1, 44400, Control_c, 0, 64, 60
1, 44416, Note_on_c, 0, 67, 28
1, 44437, Control_c, 0, 64, 56
1, 44455, Control_c, 0, 64, 52
1, 44473, Control_c, 0, 64, 44
1, 44493, Control_c, 0, 64, 35
1, 44511, Control_c, 0, 64, 26
1, 44530, Control_c, 0, 64, 10
1, 44548, Control_c, 0, 64, 0
1, 44643, Control_c, 0, 64, 11
1, 44644, Control_c, 0, 67, 121
1, 44660, Control_c, 0, 64, 25
1, 44661, Control_c, 0, 67, 117
1, 44680, Control_c, 0, 64, 37
1, 44681, Control_c, 0, 67, 112
1, 44698, Control_c, 0, 64, 48
1, 44699, Control_c, 0, 67, 106
1, 44717, Control_c, 0, 64, 57
1, 44718, Control_c, 0, 67, 98
1, 44736, Control_c, 0, 64, 64
1, 44737, Control_c, 0, 67, 90
1, 44754, Control_c, 0, 64, 68
1, 44756, Control_c, 0, 67, 79
1, 44774, Control_c, 0, 67, 67
1, 44792, Control_c, 0, 64, 71
1, 44793, Control_c, 0, 67, 56
1, 44811, Control_c, 0, 64, 73
1, 44813, Control_c, 0, 67, 45
1, 44830, Control_c, 0, 67, 35
1, 44848, Control_c, 0, 64, 76
1, 44849, Control_c, 0, 67, 24
1, 44867, Control_c, 0, 67, 14
1, 45006, Note_on_c, 0, 68, 47
1, 45014, Control_c, 0, 64, 74
1, 45035, Control_c, 0, 64, 71
1, 45041, Note_on_c, 0, 65, 33
1, 45054, Control_c, 0, 64, 68
1, 45072, Control_c, 0, 64, 63
1, 45091, Control_c, 0, 64, 59
1, 45110, Control_c, 0, 64, 55
1, 45128, Control_c, 0, 64, 49
1, 45147, Control_c, 0, 64, 43
1, 45165, Control_c, 0, 64, 38
1, 45180, Note_off_c, 0, 70, 43
1, 45180, Poly_aftertouch_c, 0, 70, 0
1, 45185, Poly_aftertouch_c, 0, 67, 24
1, 45202, Control_c, 0, 64, 41
1, 45222, Control_c, 0, 64, 47
1, 45224, Note_off_c, 0, 67, 42
1, 45224, Poly_aftertouch_c, 0, 67, 0
1, 45241, Control_c, 0, 64, 55
1, 45260, Control_c, 0, 64, 64
1, 45261, Control_c, 0, 67, 0
1, 45278, Control_c, 0, 64, 71
1, 45296, Control_c, 0, 64, 75
1, 45316, Control_c, 0, 64, 78
1, 45333, Control_c, 0, 64, 83
1, 45352, Control_c, 0, 64, 88
1, 45372, Control_c, 0, 64, 95
1, 45389, Control_c, 0, 64, 100
1, 45409, Control_c, 0, 64, 104
1, 45447, Control_c, 0, 64, 110
1, 45638, Note_on_c, 0, 70, 54
1, 45653, Control_c, 0, 64, 106
1, 45662, Note_on_c, 0, 67, 46
1, 45668, Note_on_c, 0, 61, 44
1, 45670, Control_c, 0, 64, 100
1, 45689, Control_c, 0, 64, 89
1, 45708, Control_c, 0, 64, 76
1, 45726, Control_c, 0, 64, 64
1, 45729, Note_off_c, 0, 63, 51
1, 45729, Note_off_c, 0, 65, 42
1, 45729, Poly_aftertouch_c, 0, 63, 0
1, 45744, Control_c, 0, 64, 56
1, 45764, Control_c, 0, 64, 50
1, 45783, Control_c, 0, 64, 46
1, 45839, Control_c, 0, 64, 51
1, 45857, Control_c, 0, 64, 55
1, 45876, Control_c, 0, 64, 60
1, 45894, Control_c, 0, 64, 66
1, 45914, Control_c, 0, 64, 69
1, 45931, Control_c, 0, 64, 73
1, 45950, Note_off_c, 0, 68, 33
1, 45950, Poly_aftertouch_c, 0, 68, 0
1, 45952, Control_c, 0, 64, 78
1, 45970, Control_c, 0, 64, 83
1, 45989, Control_c, 0, 64, 90
1, 46006, Note_off_c, 0, 61, 54
1, 46007, Control_c, 0, 64, 99
1, 46026, Control_c, 0, 64, 110
1, 46044, Control_c, 0, 64, 119
1, 46063, Control_c, 0, 64, 127
1, 46162, Note_off_c, 0, 70, 48
1, 46162, Poly_aftertouch_c, 0, 70, 0
1, 46311, Note_on_c, 0, 72, 58
1, 46324, Note_on_c, 0, 68, 50
1, 46357, Note_on_c, 0, 61, 39
1, 46382, Control_c, 0, 64, 120
1, 46399, Control_c, 0, 64, 107
1, 46418, Control_c, 0, 64, 91
1, 46438, Control_c, 0, 64, 77
1, 46456, Control_c, 0, 64, 65
1, 46475, Control_c, 0, 64, 58
1, 46493, Control_c, 0, 64, 54
1, 46568, Control_c, 0, 64, 59
1, 46587, Control_c, 0, 64, 63
1, 46605, Control_c, 0, 64, 68
1, 46624, Control_c, 0, 64, 73
1, 46626, Note_off_c, 0, 67, 46
1, 46626, Poly_aftertouch_c, 0, 67, 0
1, 46643, Control_c, 0, 64, 77
1, 46647, Note_on_c, 0, 60, 57
1, 46662, Control_c, 0, 64, 82
1, 46680, Control_c, 0, 64, 88
1, 46699, Control_c, 0, 64, 96
1, 46718, Control_c, 0, 64, 106
1, 46730, Note_off_c, 0, 61, 38
1, 46735, Control_c, 0, 64, 116
1, 46751, Note_off_c, 0, 72, 52
1, 46754, Control_c, 0, 64, 123
1, 46773, Control_c, 0, 64, 127
1, 46934, Note_on_c, 0, 75, 66
1, 46948, Note_on_c, 0, 72, 50
1, 46961, Control_c, 0, 64, 123
1, 46973, Note_on_c, 0, 58, 51
1, 46980, Control_c, 0, 64, 115
1, 46998, Control_c, 0, 64, 104
1, 47017, Control_c, 0, 64, 90
1, 47035, Control_c, 0, 64, 76
1, 47044, Note_off_c, 0, 68, 51
1, 47044, Poly_aftertouch_c, 0, 68, 0
1, 47054, Control_c, 0, 64, 61
1, 47067, Note_off_c, 0, 60, 53
1, 47067, Poly_aftertouch_c, 0, 60, 0
1, 47072, Control_c, 0, 64, 48
1, 47092, Control_c, 0, 64, 21
1, 47110, Control_c, 0, 64, 0
1, 47260, Note_on_c, 0, 56, 60
1, 47278, Note_off_c, 0, 75, 38
1, 47278, Control_c, 0, 64, 15
1, 47292, Note_off_c, 0, 58, 58
1, 47295, Control_c, 0, 64, 36
1, 47316, Control_c, 0, 64, 51
1, 47335, Control_c, 0, 64, 63
1, 47353, Control_c, 0, 64, 74
1, 47358, Note_off_c, 0, 72, 53
1, 47372, Control_c, 0, 64, 82
1, 47391, Control_c, 0, 64, 91
1, 47409, Control_c, 0, 64, 101
1, 47428, Control_c, 0, 64, 110
1, 47446, Control_c, 0, 64, 117
1, 47466, Control_c, 0, 64, 123
1, 47479, Note_off_c, 0, 56, 50
1, 47485, Control_c, 0, 64, 127
1, 47620, Note_on_c, 0, 75, 76
1, 47671, Note_on_c, 0, 63, 53
1, 47708, Control_c, 0, 64, 122
1, 47728, Control_c, 0, 64, 118
1, 47746, Control_c, 0, 64, 113
1, 47764, Control_c, 0, 64, 107
1, 47784, Control_c, 0, 64, 99
1, 47802, Control_c, 0, 64, 91
1, 47821, Control_c, 0, 64, 83
1, 47839, Control_c, 0, 64, 76
1, 47859, Control_c, 0, 64, 70
1, 47877, Control_c, 0, 64, 64
1, 47895, Control_c, 0, 64, 59
1, 47915, Control_c, 0, 64, 52
1, 47933, Control_c, 0, 64, 41
1, 47935, Control_c, 0, 67, 8
1, 47952, Control_c, 0, 64, 19
1, 47970, Control_c, 0, 64, 0
1, 48213, Control_c, 0, 64, 11
1, 48231, Control_c, 0, 64, 18
1, 48251, Control_c, 0, 64, 25
1, 48269, Control_c, 0, 64, 32
1, 48288, Control_c, 0, 64, 38
1, 48305, Note_on_c, 0, 60, 46
1, 48306, Control_c, 0, 64, 44
1, 48325, Control_c, 0, 64, 50
1, 48330, Note_on_c, 0, 56, 39
1, 48344, Control_c, 0, 64, 56
1, 48363, Control_c, 0, 64, 63
1, 48381, Control_c, 0, 64, 67
1, 48401, Control_c, 0, 64, 70
1, 48419, Control_c, 0, 64, 72
1, 48438, Control_c, 0, 64, 74
1, 48457, Control_c, 0, 64, 77
1, 48476, Control_c, 0, 64, 81
1, 48494, Control_c, 0, 64, 87
1, 48512, Control_c, 0, 64, 94
1, 48532, Control_c, 0, 64, 103
1, 48550, Control_c, 0, 64, 112
1, 48568, Control_c, 0, 64, 122
1, 48588, Control_c, 0, 64, 127
1, 48590, Poly_aftertouch_c, 0, 72, 127
1, 48628, Note_off_c, 0, 63, 54
1, 48628, Poly_aftertouch_c, 0, 63, 0
1, 48641, Note_off_c, 0, 75, 35
1, 48689, Poly_aftertouch_c, 0, 72, 0
1, 48923, Note_on_c, 0, 74, 61
1, 48962, Note_on_c, 0, 62, 45
1, 48977, Note_on_c, 0, 59, 37
1, 48980, Control_c, 0, 64, 118
1, 49000, Control_c, 0, 64, 105
1, 49018, Control_c, 0, 64, 90
1, 49027, Poly_aftertouch_c, 0, 70, 0
1, 49037, Control_c, 0, 64, 75
1, 49056, Control_c, 0, 64, 64
1, 49074, Control_c, 0, 64, 58
1, 49075, Note_off_c, 0, 60, 38
1, 49075, Poly_aftertouch_c, 0, 60, 0
1, 49092, Control_c, 0, 64, 56
1, 49148, Control_c, 0, 64, 59
1, 49168, Control_c, 0, 64, 62
1, 49186, Control_c, 0, 64, 67
1, 49205, Control_c, 0, 64, 72
1, 49223, Control_c, 0, 64, 76
1, 49241, Control_c, 0, 64, 82
1, 49261, Control_c, 0, 64, 90
1, 49278, Note_off_c, 0, 62, 33
1, 49278, Control_c, 0, 64, 101
1, 49298, Control_c, 0, 64, 113
1, 49317, Control_c, 0, 64, 127
1, 49375, Note_off_c, 0, 74, 60
1, 49581, Note_on_c, 0, 76, 72
1, 49587, Note_off_c, 0, 56, 27
1, 49615, Note_on_c, 0, 64, 58
1, 49619, Note_on_c, 0, 61, 50
1, 49626, Note_on_c, 0, 55, 44
1, 49633, Control_c, 0, 64, 116
1, 49640, Note_on_c, 0, 58, 44
1, 49653, Control_c, 0, 64, 101
1, 49673, Control_c, 0, 64, 85
1, 49690, Control_c, 0, 64, 70
1, 49709, Control_c, 0, 64, 59
1, 49728, Control_c, 0, 64, 51
1, 49747, Control_c, 0, 64, 44
1, 49765, Control_c, 0, 64, 36
1, 49778, Note_off_c, 0, 59, 36
1, 49784, Control_c, 0, 64, 32
1, 49785, Control_c, 0, 67, 0
1, 49840, Control_c, 0, 64, 39
1, 49859, Control_c, 0, 64, 47
1, 49877, Control_c, 0, 64, 57
1, 49897, Control_c, 0, 64, 68
1, 49914, Control_c, 0, 64, 76
1, 49934, Control_c, 0, 64, 83
1, 49952, Control_c, 0, 64, 92
1, 49971, Control_c, 0, 64, 103
1, 49990, Control_c, 0, 64, 113
1, 50009, Control_c, 0, 64, 120
1, 50027, Control_c, 0, 64, 126
1, 50098, Note_off_c, 0, 64, 34
1, 50124, Note_off_c, 0, 55, 38
1, 50196, Note_off_c, 0, 61, 33
1, 50231, Note_on_c, 0, 77, 78
1, 50248, Note_on_c, 0, 65, 56
1, 50260, Note_on_c, 0, 60, 57
1, 50270, Note_on_c, 0, 56, 50
1, 50308, Control_c, 0, 64, 119
1, 50326, Control_c, 0, 64, 107
1, 50330, Poly_aftertouch_c, 0, 58, 24
1, 50340, Poly_aftertouch_c, 0, 61, 0
1, 50342, Note_off_c, 0, 76, 58
1, 50345, Control_c, 0, 64, 91
1, 50364, Control_c, 0, 64, 74
1, 50372, Note_off_c, 0, 58, 42
1, 50372, Poly_aftertouch_c, 0, 58, 0
1, 50383, Control_c, 0, 64, 59
1, 50401, Control_c, 0, 64, 49
1, 50420, Control_c, 0, 64, 37
1, 50438, Control_c, 0, 64, 30
1, 50476, Control_c, 0, 64, 36
1, 50494, Control_c, 0, 64, 44
1, 50514, Control_c, 0, 64, 56
1, 50532, Control_c, 0, 64, 67
1, 50552, Control_c, 0, 64, 75
1, 50569, Control_c, 0, 64, 80
1, 50589, Control_c, 0, 64, 88
1, 50607, Control_c, 0, 64, 100
1, 50625, Control_c, 0, 64, 113
1, 50644, Control_c, 0, 64, 125
1, 50696, Note_off_c, 0, 60, 36
1, 50696, Poly_aftertouch_c, 0, 60, 0
1, 50742, Note_off_c, 0, 65, 35
1, 50873, Note_on_c, 0, 79, 77
1, 50889, Note_on_c, 0, 67, 63
1, 50903, Note_on_c, 0, 60, 53
1, 50923, Note_on_c, 0, 52, 47
1, 50962, Control_c, 0, 64, 109
1, 50971, Note_off_c, 0, 77, 56
1, 50979, Poly_aftertouch_c, 0, 56, 24
1, 50980, Control_c, 0, 64, 91
1, 51000, Control_c, 0, 64, 74
1, 51019, Note_off_c, 0, 56, 43
1, 51019, Poly_aftertouch_c, 0, 56, 0
1, 51020, Poly_aftertouch_c, 0, 56, 0
1, 51020, Control_c, 0, 64, 59
1, 51036, Control_c, 0, 64, 46
1, 51055, Control_c, 0, 64, 27
1, 51093, Control_c, 0, 64, 0
1, 51111, Control_c, 0, 64, 16
1, 51130, Control_c, 0, 64, 29
1, 51151, Control_c, 0, 64, 43
1, 51167, Control_c, 0, 64, 57
1, 51186, Control_c, 0, 64, 69
1, 51205, Control_c, 0, 64, 76
1, 51225, Control_c, 0, 64, 84
1, 51242, Control_c, 0, 64, 95
1, 51247, Note_off_c, 0, 67, 48
1, 51247, Poly_aftertouch_c, 0, 67, 0
1, 51261, Note_off_c, 0, 52, 52
1, 51261, Control_c, 0, 64, 108
1, 51281, Control_c, 0, 64, 121
1, 51298, Control_c, 0, 64, 127
1, 51344, Note_off_c, 0, 60, 27
1, 51344, Poly_aftertouch_c, 0, 60, 0
1, 51431, Note_off_c, 0, 79, 60
1, 51561, Note_on_c, 0, 80, 71
1, 51593, Note_on_c, 0, 68, 51
1, 51594, Note_on_c, 0, 60, 39
1, 51596, Control_c, 0, 67, 8
1, 51606, Note_on_c, 0, 53, 40
1, 51635, Control_c, 0, 64, 119
1, 51654, Control_c, 0, 64, 102
1, 51673, Control_c, 0, 64, 83
1, 51692, Control_c, 0, 64, 66
1, 51693, Control_c, 0, 67, 13
1, 51709, Control_c, 0, 64, 54
1, 51729, Control_c, 0, 64, 44
1, 51748, Control_c, 0, 64, 39
1, 51749, Control_c, 0, 67, 19
1, 51785, Control_c, 0, 64, 47
1, 51786, Control_c, 0, 67, 23
1, 51804, Control_c, 0, 64, 57
1, 51823, Control_c, 0, 64, 69
1, 51840, Control_c, 0, 64, 77
1, 51840, Control_c, 0, 67, 27
1, 51856, Control_c, 0, 64, 83
1, 51876, Control_c, 0, 64, 89
1, 51895, Control_c, 0, 64, 96
1, 51895, Control_c, 0, 67, 31
1, 51912, Control_c, 0, 64, 103
1, 51933, Control_c, 0, 64, 108
1, 51950, Control_c, 0, 64, 112
1, 51958, Note_off_c, 0, 53, 31
1, 51958, Poly_aftertouch_c, 0, 53, 0
1, 51963, Note_on_c, 0, 56, 44
1, 51969, Control_c, 0, 64, 116
1, 51989, Control_c, 0, 64, 120
1, 52006, Control_c, 0, 64, 124
1, 52027, Note_off_c, 0, 60, 29
1, 52027, Poly_aftertouch_c, 0, 60, 0
1, 52099, Control_c, 0, 67, 36
1, 52105, Note_off_c, 0, 56, 52
1, 52124, Note_on_c, 0, 77, 67
1, 52172, Note_off_c, 0, 68, 48
1, 52172, Poly_aftertouch_c, 0, 68, 0
1, 52216, Note_off_c, 0, 80, 39
1, 52343, Note_on_c, 0, 75, 73
1, 52362, Control_c, 0, 67, 32
1, 52372, Note_on_c, 0, 67, 50
1, 52393, Note_on_c, 0, 46, 46
1, 52394, Note_on_c, 0, 58, 43
1, 52437, Control_c, 0, 64, 117
1, 52439, Control_c, 0, 67, 27
1, 52454, Control_c, 0, 64, 106
1, 52474, Control_c, 0, 64, 91
1, 52493, Control_c, 0, 64, 75
1, 52495, Control_c, 0, 67, 22
1, 52504, Note_off_c, 0, 77, 38
1, 52510, Control_c, 0, 64, 58
1, 52530, Control_c, 0, 64, 40
1, 52532, Control_c, 0, 67, 14
1, 52549, Control_c, 0, 64, 0
1, 52550, Control_c, 0, 67, 10
1, 52643, Control_c, 0, 64, 8
1, 52660, Control_c, 0, 64, 28
1, 52680, Control_c, 0, 64, 45
1, 52681, Control_c, 0, 67, 0
1, 52698, Control_c, 0, 64, 59
1, 52717, Control_c, 0, 64, 69
1, 52735, Control_c, 0, 64, 75
1, 52754, Control_c, 0, 64, 79
1, 52773, Control_c, 0, 64, 83
1, 52791, Control_c, 0, 64, 89
1, 52810, Control_c, 0, 64, 97
1, 52829, Control_c, 0, 64, 106
1, 52847, Control_c, 0, 64, 114
1, 52867, Control_c, 0, 64, 121
1, 52885, Control_c, 0, 64, 127
1, 52956, Note_off_c, 0, 67, 36
1, 52956, Poly_aftertouch_c, 0, 67, 0
1, 52991, Note_on_c, 0, 70, 44
1, 53083, Note_off_c, 0, 75, 46
1, 53130, Note_off_c, 0, 70, 60
1, 53149, Note_off_c, 0, 58, 33
1, 53149, Poly_aftertouch_c, 0, 58, 0
1, 53216, Note_off_c, 0, 46, 34
1, 53466, Control_c, 0, 67, 8
1, 53520, Control_c, 0, 67, 12
1, 53576, Control_c, 0, 67, 17
1, 53614, Control_c, 0, 67, 22
1, 53628, Note_on_c, 0, 74, 58
1, 53650, Note_on_c, 0, 65, 43
1, 53651, Note_on_c, 0, 59, 38
1, 53651, Control_c, 0, 67, 28
1, 53661, Note_on_c, 0, 47, 36
1, 53671, Control_c, 0, 64, 114
1, 53689, Control_c, 0, 64, 99
1, 53690, Control_c, 0, 67, 35
1, 53708, Control_c, 0, 64, 80
1, 53726, Control_c, 0, 64, 65
1, 53728, Control_c, 0, 67, 39
1, 53745, Control_c, 0, 64, 58
1, 53756, Note_off_c, 0, 74, 60
1, 53773, Note_on_c, 0, 75, 63
1, 53783, Control_c, 0, 64, 60
1, 53784, Control_c, 0, 67, 44
1, 53801, Control_c, 0, 64, 64
1, 53820, Control_c, 0, 64, 69
1, 53821, Control_c, 0, 67, 48
1, 53840, Control_c, 0, 64, 75
1, 53857, Control_c, 0, 64, 80
1, 53858, Note_off_c, 0, 75, 62
1, 53858, Control_c, 0, 67, 52
1, 53871, Note_on_c, 0, 74, 65
1, 53875, Control_c, 0, 64, 84
1, 53895, Control_c, 0, 64, 88
1, 53932, Control_c, 0, 64, 95
1, 53933, Control_c, 0, 67, 56
1, 53948, Note_on_c, 0, 75, 71
1, 53950, Note_off_c, 0, 74, 61
1, 53970, Control_c, 0, 64, 102
1, 53988, Control_c, 0, 64, 107
1, 54007, Control_c, 0, 64, 111
1, 54026, Control_c, 0, 64, 115
1, 54035, Note_on_c, 0, 74, 67
1, 54044, Control_c, 0, 64, 119
1, 54071, Note_off_c, 0, 47, 32
1, 54082, Control_c, 0, 64, 124
1, 54093, Note_off_c, 0, 65, 41
1, 54096, Note_off_c, 0, 59, 35
1, 54101, Note_off_c, 0, 75, 52
1, 54117, Note_off_c, 0, 74, 63
1, 54123, Note_on_c, 0, 72, 65
1, 54190, Note_on_c, 0, 74, 54
1, 54232, Control_c, 0, 67, 51
1, 54240, Note_on_c, 0, 73, 33
1, 54242, Note_off_c, 0, 72, 58
1, 54269, Control_c, 0, 67, 46
1, 54286, Note_off_c, 0, 73, 32
1, 54286, Poly_aftertouch_c, 0, 73, 0
1, 54306, Control_c, 0, 67, 40
1, 54307, Note_on_c, 0, 75, 73
1, 54326, Control_c, 0, 67, 35
1, 54329, Note_off_c, 0, 74, 54
1, 54332, Note_on_c, 0, 67, 57
1, 54344, Control_c, 0, 64, 120
1, 54359, Note_on_c, 0, 63, 60
1, 54364, Note_on_c, 0, 60, 52
1, 54364, Control_c, 0, 64, 108
1, 54365, Control_c, 0, 67, 29
1, 54375, Note_on_c, 0, 48, 46
1, 54382, Control_c, 0, 64, 90
1, 54399, Control_c, 0, 64, 71
1, 54402, Control_c, 0, 67, 23
1, 54418, Control_c, 0, 64, 57
1, 54419, Control_c, 0, 67, 19
1, 54438, Control_c, 0, 64, 50
1, 54439, Control_c, 0, 67, 15
1, 54456, Control_c, 0, 64, 45
1, 54457, Control_c, 0, 67, 11
1, 54494, Control_c, 0, 64, 48
1, 54513, Control_c, 0, 64, 53
1, 54530, Control_c, 0, 64, 61
1, 54549, Control_c, 0, 64, 68
1, 54550, Control_c, 0, 67, 0
1, 54568, Control_c, 0, 64, 73
1, 54586, Note_off_c, 0, 60, 39
1, 54586, Poly_aftertouch_c, 0, 60, 0
1, 54586, Control_c, 0, 64, 78
1, 54605, Control_c, 0, 64, 83
1, 54626, Control_c, 0, 64, 90
1, 54643, Control_c, 0, 64, 99
1, 54661, Control_c, 0, 64, 109
1, 54680, Control_c, 0, 64, 119
1, 54694, Note_off_c, 0, 48, 35
1, 54694, Poly_aftertouch_c, 0, 48, 0
1, 54698, Control_c, 0, 64, 127
1, 54834, Note_off_c, 0, 67, 60
1, 54834, Poly_aftertouch_c, 0, 67, 0
1, 54974, Note_on_c, 0, 72, 67
1, 54994, Note_on_c, 0, 56, 59
1, 55010, Note_on_c, 0, 44, 50
1, 55036, Control_c, 0, 64, 113
1, 55054, Control_c, 0, 64, 94
1, 55073, Control_c, 0, 64, 77
1, 55091, Control_c, 0, 64, 65
1, 55111, Control_c, 0, 64, 62
1, 55128, Control_c, 0, 64, 63
1, 55141, Note_off_c, 0, 63, 54
1, 55141, Poly_aftertouch_c, 0, 63, 0
1, 55148, Control_c, 0, 64, 66
1, 55156, Note_off_c, 0, 75, 58
1, 55167, Control_c, 0, 64, 71
1, 55185, Control_c, 0, 64, 79
1, 55204, Control_c, 0, 64, 88
1, 55222, Control_c, 0, 64, 101
1, 55242, Control_c, 0, 64, 114
1, 55259, Control_c, 0, 64, 126
1, 55263, Note_off_c, 0, 56, 39
1, 55302, Note_off_c, 0, 72, 58
1, 55391, Note_off_c, 0, 44, 23
1, 55391, Poly_aftertouch_c, 0, 44, 0
1, 55681, Note_on_c, 0, 79, 70
1, 55689, Control_c, 0, 67, 8
1, 55725, Note_on_c, 0, 72, 50
1, 55734, Note_on_c, 0, 65, 53
1, 55735, Note_on_c, 0, 57, 50
1, 55746, Control_c, 0, 64, 120
1, 55749, Note_on_c, 0, 45, 40
1, 55764, Control_c, 0, 64, 110
1, 55784, Control_c, 0, 64, 97
1, 55785, Control_c, 0, 67, 12
1, 55803, Control_c, 0, 64, 80
1, 55821, Control_c, 0, 64, 65
1, 55840, Control_c, 0, 64, 53
1, 55842, Control_c, 0, 67, 17
1, 55859, Control_c, 0, 64, 41
1, 55877, Control_c, 0, 64, 25
1, 55878, Control_c, 0, 67, 24
1, 55896, Control_c, 0, 64, 16
1, 55897, Control_c, 0, 67, 28
1, 55915, Control_c, 0, 67, 34
1, 55933, Control_c, 0, 64, 28
1, 55934, Control_c, 0, 67, 39
1, 55952, Control_c, 0, 64, 38
1, 55954, Control_c, 0, 67, 45
1, 55971, Control_c, 0, 64, 50
1, 55972, Control_c, 0, 67, 50
1, 55990, Control_c, 0, 64, 60
1, 55990, Control_c, 0, 67, 57
1, 56008, Control_c, 0, 64, 67
1, 56010, Control_c, 0, 67, 63
1, 56027, Control_c, 0, 64, 72
1, 56028, Control_c, 0, 67, 69
1, 56037, Note_off_c, 0, 72, 57
1, 56046, Control_c, 0, 64, 77
1, 56047, Control_c, 0, 67, 74
1, 56065, Control_c, 0, 64, 82
1, 56066, Control_c, 0, 67, 78
1, 56083, Control_c, 0, 64, 87
1, 56085, Control_c, 0, 67, 83
1, 56094, Note_off_c, 0, 45, 56
1, 56100, Control_c, 0, 64, 93
1, 56102, Control_c, 0, 67, 88
1, 56122, Control_c, 0, 64, 100
1, 56124, Note_off_c, 0, 65, 34
1, 56124, Control_c, 0, 67, 93
1, 56138, Control_c, 0, 64, 105
1, 56139, Control_c, 0, 67, 98
1, 56157, Control_c, 0, 64, 109
1, 56177, Control_c, 0, 67, 102
1, 56194, Control_c, 0, 64, 115
1, 56232, Control_c, 0, 64, 119
1, 56234, Control_c, 0, 67, 106
1, 56238, Note_off_c, 0, 57, 33
1, 56307, Control_c, 0, 67, 111
1, 56338, Note_on_c, 0, 77, 58
1, 56382, Control_c, 0, 67, 115
1, 56494, Control_c, 0, 64, 115
1, 56511, Poly_aftertouch_c, 0, 79, 20
1, 56516, Note_on_c, 0, 75, 62
1, 56527, Note_on_c, 0, 67, 46
1, 56531, Control_c, 0, 64, 110
1, 56546, Note_on_c, 0, 46, 44
1, 56549, Control_c, 0, 64, 106
1, 56553, Note_on_c, 0, 58, 39
1, 56570, Control_c, 0, 64, 101
1, 56588, Control_c, 0, 64, 93
1, 56606, Control_c, 0, 64, 83
1, 56625, Control_c, 0, 64, 73
1, 56643, Control_c, 0, 64, 65
1, 56649, Note_off_c, 0, 79, 19
1, 56649, Poly_aftertouch_c, 0, 79, 0
1, 56662, Control_c, 0, 64, 58
1, 56676, Note_off_c, 0, 77, 56
1, 56680, Control_c, 0, 64, 49
1, 56699, Control_c, 0, 64, 33
1, 56719, Control_c, 0, 64, 0
1, 56774, Control_c, 0, 67, 111
1, 56830, Control_c, 0, 64, 15
1, 56832, Control_c, 0, 67, 107
1, 56850, Control_c, 0, 64, 27
1, 56851, Control_c, 0, 67, 103
1, 56868, Control_c, 0, 64, 39
1, 56869, Control_c, 0, 67, 96
1, 56886, Control_c, 0, 64, 51
1, 56886, Control_c, 0, 67, 87
1, 56906, Control_c, 0, 64, 61
1, 56907, Control_c, 0, 67, 77
1, 56925, Control_c, 0, 64, 68
1, 56926, Control_c, 0, 67, 67
1, 56942, Control_c, 0, 64, 72
1, 56943, Control_c, 0, 67, 57
1, 56962, Control_c, 0, 64, 74
1, 56964, Control_c, 0, 67, 48
1, 56980, Control_c, 0, 64, 77
1, 56981, Control_c, 0, 67, 39
1, 56999, Control_c, 0, 64, 82
1, 57000, Control_c, 0, 67, 31
1, 57017, Control_c, 0, 64, 89
1, 57019, Control_c, 0, 67, 25
1, 57036, Control_c, 0, 64, 97
1, 57037, Control_c, 0, 67, 18
1, 57055, Control_c, 0, 64, 106
1, 57055, Control_c, 0, 67, 11
1, 57073, Control_c, 0, 64, 112
1, 57092, Control_c, 0, 64, 117
1, 57105, Note_off_c, 0, 58, 33
1, 57105, Poly_aftertouch_c, 0, 58, 0
1, 57112, Control_c, 0, 64, 122
1, 57130, Control_c, 0, 64, 127
1, 57207, Note_on_c, 0, 70, 46
1, 57289, Note_off_c, 0, 75, 60
1, 57314, Note_off_c, 0, 46, 35
1, 57416, Note_off_c, 0, 67, 55
1, 57416, Poly_aftertouch_c, 0, 67, 0
1, 57439, Note_off_c, 0, 70, 32
1, 57615, Control_c, 0, 67, 15
1, 57653, Control_c, 0, 67, 22
1, 57672, Control_c, 0, 67, 26
1, 57691, Control_c, 0, 67, 31
1, 57710, Control_c, 0, 67, 36
1, 57748, Control_c, 0, 67, 42
1, 57784, Control_c, 0, 67, 48
1, 57821, Control_c, 0, 67, 55
1, 57831, Note_on_c, 0, 74, 54
1, 57845, Note_on_c, 0, 65, 48
1, 57862, Control_c, 0, 64, 115
1, 57862, Control_c, 0, 67, 60
1, 57876, Note_on_c, 0, 68, 33
1, 57876, Control_c, 0, 64, 102
1, 57883, Note_on_c, 0, 34, 43
1, 57889, Note_on_c, 0, 46, 32
1, 57895, Control_c, 0, 64, 86
1, 57896, Control_c, 0, 67, 66
1, 57916, Control_c, 0, 64, 71
1, 57934, Control_c, 0, 64, 63
1, 57935, Control_c, 0, 67, 70
1, 57949, Note_off_c, 0, 68, 45
1, 57949, Poly_aftertouch_c, 0, 68, 0
1, 57971, Control_c, 0, 64, 64
1, 57973, Control_c, 0, 67, 76
1, 57990, Control_c, 0, 64, 66
1, 57999, Note_off_c, 0, 74, 62
1, 58008, Note_on_c, 0, 75, 64
1, 58008, Control_c, 0, 64, 70
1, 58008, Control_c, 0, 67, 80
1, 58027, Control_c, 0, 64, 74
1, 58046, Control_c, 0, 64, 79
1, 58065, Control_c, 0, 64, 83
1, 58083, Control_c, 0, 64, 88
1, 58102, Control_c, 0, 64, 92
1, 58110, Note_off_c, 0, 75, 63
1, 58139, Note_on_c, 0, 74, 49
1, 58139, Control_c, 0, 64, 97
1, 58158, Note_off_c, 0, 34, 37
1, 58177, Control_c, 0, 64, 101
1, 58185, Note_off_c, 0, 74, 48
1, 58194, Note_on_c, 0, 75, 63
1, 58213, Control_c, 0, 64, 108
1, 58233, Control_c, 0, 64, 113
1, 58240, Note_off_c, 0, 46, 33
1, 58252, Control_c, 0, 64, 118
1, 58253, Control_c, 0, 67, 76
1, 58270, Control_c, 0, 64, 123
1, 58274, Note_on_c, 0, 74, 68
1, 58289, Control_c, 0, 64, 127
1, 58291, Control_c, 0, 67, 65
1, 58308, Control_c, 0, 67, 56
1, 58326, Control_c, 0, 67, 47
1, 58334, Note_off_c, 0, 75, 54
1, 58337, Note_off_c, 0, 65, 37
1, 58344, Control_c, 0, 67, 40
1, 58347, Note_off_c, 0, 74, 62
1, 58359, Note_on_c, 0, 72, 66
1, 58363, Control_c, 0, 67, 35
1, 58401, Control_c, 0, 67, 30
1, 58447, Note_on_c, 0, 74, 65
1, 58481, Note_on_c, 0, 73, 46
1, 58501, Note_off_c, 0, 72, 57
1, 58529, Note_off_c, 0, 73, 33
1, 58529, Poly_aftertouch_c, 0, 73, 0
1, 58559, Note_on_c, 0, 75, 64
1, 58585, Note_on_c, 0, 67, 56
1, 58603, Note_off_c, 0, 74, 59
1, 58607, Note_on_c, 0, 63, 56
1, 58607, Control_c, 0, 64, 122
1, 58609, Note_on_c, 0, 39, 45
1, 58610, Note_on_c, 0, 51, 41
1, 58625, Control_c, 0, 64, 110
1, 58638, Poly_aftertouch_c, 0, 68, 0
1, 58643, Control_c, 0, 64, 92
1, 58664, Control_c, 0, 64, 75
1, 58681, Control_c, 0, 64, 62
1, 58683, Control_c, 0, 67, 26
1, 58700, Control_c, 0, 64, 55
1, 58719, Control_c, 0, 64, 51
1, 58775, Control_c, 0, 64, 53
1, 58776, Control_c, 0, 67, 19
1, 58794, Control_c, 0, 64, 59
1, 58796, Control_c, 0, 67, 14
1, 58813, Control_c, 0, 64, 66
1, 58814, Control_c, 0, 67, 10
1, 58831, Control_c, 0, 64, 71
1, 58849, Control_c, 0, 64, 74
1, 58869, Control_c, 0, 64, 78
1, 58886, Control_c, 0, 64, 83
1, 58906, Control_c, 0, 64, 88
1, 58908, Control_c, 0, 67, 0
1, 58925, Control_c, 0, 64, 95
1, 58944, Control_c, 0, 64, 102
1, 58948, Note_off_c, 0, 67, 52
1, 58948, Poly_aftertouch_c, 0, 67, 0
1, 58962, Control_c, 0, 64, 110
1, 58981, Control_c, 0, 64, 118
1, 58999, Control_c, 0, 64, 125
1, 59070, Note_off_c, 0, 75, 35
1, 59078, Note_off_c, 0, 51, 29
1, 59078, Poly_aftertouch_c, 0, 51, 0
1, 59136, Note_off_c, 0, 39, 29
1, 59139, Note_off_c, 0, 63, 38
1, 59139, Poly_aftertouch_c, 0, 63, 0
1, 59332, Note_on_c, 0, 75, 64
1, 59349, Note_on_c, 0, 62, 53
1, 59356, Note_on_c, 0, 68, 53
1, 59363, Note_on_c, 0, 51, 48
1, 59365, Note_on_c, 0, 41, 50
1, 59393, Control_c, 0, 64, 116
1, 59411, Control_c, 0, 64, 102
1, 59428, Control_c, 0, 64, 85
1, 59448, Control_c, 0, 64, 69
1, 59467, Control_c, 0, 64, 58
1, 59485, Control_c, 0, 64, 52
1, 59504, Control_c, 0, 67, 8
1, 59542, Control_c, 0, 64, 54
1, 59560, Control_c, 0, 64, 60
1, 59561, Control_c, 0, 67, 13
1, 59580, Control_c, 0, 64, 67
1, 59598, Control_c, 0, 64, 73
1, 59599, Control_c, 0, 67, 19
1, 59617, Control_c, 0, 64, 78
1, 59617, Control_c, 0, 67, 23
1, 59635, Control_c, 0, 64, 83
1, 59636, Control_c, 0, 67, 28
1, 59655, Control_c, 0, 64, 88
1, 59658, Control_c, 0, 67, 33
1, 59672, Control_c, 0, 64, 93
1, 59674, Control_c, 0, 67, 38
1, 59691, Note_off_c, 0, 62, 38
1, 59691, Control_c, 0, 64, 99
1, 59692, Control_c, 0, 67, 43
1, 59710, Control_c, 0, 64, 105
1, 59711, Control_c, 0, 67, 48
1, 59729, Control_c, 0, 64, 112
1, 59730, Control_c, 0, 67, 52
1, 59737, Note_off_c, 0, 51, 30
1, 59737, Poly_aftertouch_c, 0, 51, 0
1, 59748, Control_c, 0, 64, 117
1, 59749, Control_c, 0, 67, 57
1, 59766, Control_c, 0, 64, 122
1, 59767, Control_c, 0, 67, 62
1, 59785, Control_c, 0, 67, 67
1, 59804, Control_c, 0, 64, 127
1, 59805, Control_c, 0, 67, 72
1, 59818, Note_off_c, 0, 75, 32
1, 59821, Control_c, 0, 67, 76
1, 59831, Note_off_c, 0, 41, 30
1, 59840, Control_c, 0, 67, 80
1, 59860, Control_c, 0, 67, 84
1, 59896, Control_c, 0, 67, 91
1, 59934, Control_c, 0, 67, 96
1, 59947, Note_off_c, 0, 68, 21
1, 60093, Note_on_c, 0, 75, 52
1, 60102, Control_c, 0, 64, 120
1, 60115, Note_on_c, 0, 61, 39
1, 60121, Control_c, 0, 64, 114
1, 60123, Note_on_c, 0, 51, 37
1, 60126, Note_on_c, 0, 70, 44
1, 60135, Note_on_c, 0, 43, 39
1, 60138, Control_c, 0, 64, 104
1, 60159, Control_c, 0, 64, 92
1, 60177, Control_c, 0, 64, 78
1, 60196, Control_c, 0, 64, 64
1, 60215, Control_c, 0, 64, 52
1, 60233, Control_c, 0, 64, 37
1, 60253, Control_c, 0, 64, 20
1, 60254, Control_c, 0, 67, 92
1, 60271, Control_c, 0, 64, 13
1, 60289, Control_c, 0, 64, 18
1, 60308, Control_c, 0, 64, 28
1, 60309, Control_c, 0, 67, 85
1, 60327, Control_c, 0, 64, 40
1, 60327, Control_c, 0, 67, 79
1, 60347, Control_c, 0, 64, 52
1, 60348, Control_c, 0, 67, 70
1, 60364, Control_c, 0, 64, 62
1, 60365, Control_c, 0, 67, 60
1, 60383, Control_c, 0, 64, 69
1, 60384, Control_c, 0, 67, 49
1, 60392, Note_off_c, 0, 75, 46
1, 60401, Control_c, 0, 64, 75
1, 60403, Control_c, 0, 67, 41
1, 60410, Note_off_c, 0, 70, 37
1, 60418, Note_off_c, 0, 43, 45
1, 60421, Control_c, 0, 64, 79
1, 60421, Control_c, 0, 67, 36
1, 60439, Control_c, 0, 64, 85
1, 60458, Control_c, 0, 64, 92
1, 60459, Control_c, 0, 67, 31
1, 60477, Control_c, 0, 64, 98
1, 60496, Control_c, 0, 64, 104
1, 60514, Control_c, 0, 64, 108
1, 60553, Control_c, 0, 64, 115
1, 60589, Control_c, 0, 64, 120
1, 60610, Note_off_c, 0, 51, 23
1, 60610, Poly_aftertouch_c, 0, 51, 0
1, 60626, Control_c, 0, 67, 35
1, 60664, Control_c, 0, 67, 40
1, 60682, Control_c, 0, 67, 45
1, 60701, Control_c, 0, 67, 50
1, 60719, Control_c, 0, 67, 56
1, 60739, Control_c, 0, 67, 61
1, 60757, Control_c, 0, 67, 66
1, 60775, Control_c, 0, 67, 70
1, 60795, Control_c, 0, 67, 74
1, 60799, Note_off_c, 0, 61, 25
1, 60832, Control_c, 0, 67, 80
1, 60871, Control_c, 0, 67, 88
1, 60906, Control_c, 0, 67, 93
1, 61000, Control_c, 0, 67, 97
1, 61074, Control_c, 0, 64, 115
1, 61095, Note_on_c, 0, 63, 37
1, 61104, Note_on_c, 0, 51, 36
1, 61110, Control_c, 0, 64, 110
1, 61113, Note_on_c, 0, 60, 27
1, 61127, Note_on_c, 0, 44, 32
1, 61128, Control_c, 0, 64, 106
1, 61150, Control_c, 0, 64, 98
1, 61168, Control_c, 0, 64, 89
1, 61187, Control_c, 0, 64, 79
1, 61207, Control_c, 0, 64, 70
1, 61225, Control_c, 0, 64, 60
1, 61243, Control_c, 0, 64, 50
1, 61262, Control_c, 0, 64, 34
1, 61281, Control_c, 0, 64, 11
1, 61337, Control_c, 0, 64, 25
1, 61338, Control_c, 0, 67, 93
1, 61355, Control_c, 0, 64, 37
1, 61374, Control_c, 0, 64, 50
1, 61393, Control_c, 0, 64, 61
1, 61394, Control_c, 0, 67, 87
1, 61412, Control_c, 0, 64, 69
1, 61413, Control_c, 0, 67, 82
1, 61430, Control_c, 0, 64, 74
1, 61431, Control_c, 0, 67, 76
1, 61449, Control_c, 0, 64, 77
1, 61450, Control_c, 0, 67, 71
1, 61469, Control_c, 0, 64, 81
1, 61470, Control_c, 0, 67, 67
1, 61487, Control_c, 0, 64, 86
1, 61489, Control_c, 0, 67, 62
1, 61505, Control_c, 0, 64, 91
1, 61506, Control_c, 0, 67, 58
1, 61524, Control_c, 0, 64, 98
1, 61524, Control_c, 0, 67, 54
1, 61543, Control_c, 0, 64, 104
1, 61562, Control_c, 0, 64, 108
1, 61563, Control_c, 0, 67, 48
1, 61580, Control_c, 0, 64, 112
1, 61592, Note_off_c, 0, 60, 39
1, 61592, Poly_aftertouch_c, 0, 60, 0
1, 61597, Control_c, 0, 64, 116
1, 61617, Note_on_c, 0, 68, 37
1, 61617, Control_c, 0, 64, 120
1, 61618, Control_c, 0, 67, 42
1, 61636, Note_on_c, 0, 56, 32
1, 61636, Control_c, 0, 64, 124
1, 61655, Control_c, 0, 67, 38
1, 61710, Control_c, 0, 67, 34
1, 61728, Note_off_c, 0, 63, 36
1, 61728, Poly_aftertouch_c, 0, 63, 0
1, 61786, Control_c, 0, 67, 30
1, 61795, Note_off_c, 0, 68, 37
1, 61801, Note_off_c, 0, 56, 36
1, 61860, Control_c, 0, 67, 25
1, 61954, Control_c, 0, 67, 21
1, 61987, Note_on_c, 0, 68, 52
1, 61988, Note_on_c, 0, 56, 38
1, 62047, Control_c, 0, 67, 17
1, 62122, Note_off_c, 0, 68, 38
1, 62135, Note_off_c, 0, 56, 45
1, 62142, Control_c, 0, 67, 13
1, 62272, Control_c, 0, 67, 9
1, 62319, Note_on_c, 0, 68, 56
1, 62324, Note_on_c, 0, 56, 45
1, 62414, Note_off_c, 0, 68, 50
1, 62449, Note_off_c, 0, 56, 46
1, 62551, Control_c, 0, 67, 0
1, 62616, Note_on_c, 0, 68, 57
1, 62636, Note_on_c, 0, 56, 46
1, 62730, Note_off_c, 0, 68, 52
1, 62752, Note_off_c, 0, 56, 47
1, 62944, Note_on_c, 0, 56, 48
1, 62948, Note_on_c, 0, 68, 62
1, 63026, Note_off_c, 0, 44, 39
1, 63026, Poly_aftertouch_c, 0, 44, 0
1, 63099, Note_off_c, 0, 51, 40
1, 63099, Poly_aftertouch_c, 0, 51, 0
1, 63129, Note_off_c, 0, 68, 38
1, 63139, Note_off_c, 0, 56, 35
1, 63284, Note_on_c, 0, 68, 55
1, 63306, Note_on_c, 0, 56, 40
1, 63315, Note_on_c, 0, 61, 48
1, 63317, Note_on_c, 0, 63, 45
1, 63319, Note_on_c, 0, 46, 43
1, 63329, Note_on_c, 0, 51, 36
1, 63356, Control_c, 0, 64, 117
1, 63375, Control_c, 0, 64, 104
1, 63393, Control_c, 0, 64, 89
1, 63412, Control_c, 0, 64, 74
1, 63431, Control_c, 0, 64, 61
1, 63449, Control_c, 0, 64, 52
1, 63468, Control_c, 0, 64, 41
1, 63487, Control_c, 0, 64, 30
1, 63506, Control_c, 0, 64, 25
1, 63562, Control_c, 0, 64, 32
1, 63580, Control_c, 0, 64, 38
1, 63599, Control_c, 0, 64, 45
1, 63617, Control_c, 0, 64, 55
1, 63624, Note_on_c, 0, 67, 55
1, 63626, Note_on_c, 0, 55, 49
1, 63638, Control_c, 0, 64, 64
1, 63655, Control_c, 0, 64, 72
1, 63674, Control_c, 0, 64, 78
1, 63687, Note_off_c, 0, 56, 34
1, 63692, Control_c, 0, 64, 85
1, 63712, Control_c, 0, 64, 95
1, 63729, Control_c, 0, 64, 107
1, 63748, Note_off_c, 0, 55, 47
1, 63749, Control_c, 0, 64, 116
1, 63754, Note_off_c, 0, 68, 50
1, 63768, Control_c, 0, 64, 122
1, 63787, Control_c, 0, 64, 127
1, 63790, Note_off_c, 0, 67, 38
1, 63790, Poly_aftertouch_c, 0, 67, 0
1, 63931, Note_on_c, 0, 67, 58
1, 63935, Control_c, 0, 64, 122
1, 63954, Note_on_c, 0, 55, 41
1, 63954, Control_c, 0, 64, 114
1, 63973, Control_c, 0, 64, 103
1, 63992, Control_c, 0, 64, 87
1, 64010, Control_c, 0, 64, 70
1, 64030, Control_c, 0, 64, 59
1, 64048, Control_c, 0, 64, 52
1, 64066, Control_c, 0, 64, 47
1, 64122, Control_c, 0, 64, 52
1, 64142, Control_c, 0, 64, 60
1, 64151, Note_off_c, 0, 67, 47
1, 64151, Poly_aftertouch_c, 0, 67, 0
1, 64159, Control_c, 0, 64, 69
1, 64179, Control_c, 0, 64, 75
1, 64197, Control_c, 0, 64, 79
1, 64216, Control_c, 0, 64, 84
1, 64235, Control_c, 0, 64, 91
1, 64253, Control_c, 0, 64, 100
1, 64273, Control_c, 0, 64, 110
1, 64291, Control_c, 0, 64, 117
1, 64310, Control_c, 0, 64, 122
1, 64329, Control_c, 0, 64, 126
1, 64361, Note_off_c, 0, 55, 20
1, 64435, Note_on_c, 0, 65, 39
1, 64447, Note_on_c, 0, 53, 40
1, 64552, Control_c, 0, 64, 122
1, 64572, Control_c, 0, 64, 115
1, 64588, Note_on_c, 0, 67, 49
1, 64590, Control_c, 0, 64, 105
1, 64591, Note_off_c, 0, 51, 26
1, 64591, Poly_aftertouch_c, 0, 51, 0
1, 64608, Control_c, 0, 64, 89
1, 64627, Note_on_c, 0, 55, 28
1, 64627, Control_c, 0, 64, 74
1, 64646, Note_off_c, 0, 53, 49
1, 64646, Poly_aftertouch_c, 0, 53, 0
1, 64646, Control_c, 0, 64, 61
1, 64664, Control_c, 0, 64, 53
1, 64684, Control_c, 0, 64, 46
1, 64702, Control_c, 0, 64, 42
1, 64706, Note_off_c, 0, 65, 41
1, 64709, Note_off_c, 0, 63, 47
1, 64709, Poly_aftertouch_c, 0, 63, 0
1, 64740, Control_c, 0, 64, 45
1, 64758, Control_c, 0, 64, 51
1, 64778, Control_c, 0, 64, 57
1, 64795, Control_c, 0, 64, 64
1, 64815, Control_c, 0, 64, 69
1, 64833, Control_c, 0, 64, 73
1, 64853, Control_c, 0, 64, 78
1, 64870, Control_c, 0, 64, 83
1, 64890, Control_c, 0, 64, 90
1, 64908, Control_c, 0, 64, 98
1, 64926, Control_c, 0, 64, 107
1, 64946, Control_c, 0, 64, 115
1, 64964, Control_c, 0, 64, 121
1, 64977, Note_off_c, 0, 55, 42
1, 64984, Control_c, 0, 64, 127
1, 65037, Note_off_c, 0, 67, 34
1, 65037, Poly_aftertouch_c, 0, 67, 0
1, 65079, Note_on_c, 0, 63, 64
1, 65101, Note_on_c, 0, 51, 47
1, 65235, Note_off_c, 0, 46, 51
1, 65243, Note_on_c, 0, 56, 54
1, 65243, Note_on_c, 0, 68, 67
1, 65245, Control_c, 0, 64, 122
1, 65263, Control_c, 0, 64, 113
1, 65282, Control_c, 0, 64, 102
1, 65301, Control_c, 0, 64, 90
1, 65312, Note_off_c, 0, 63, 57
1, 65312, Poly_aftertouch_c, 0, 63, 0
1, 65319, Control_c, 0, 64, 78
1, 65338, Control_c, 0, 64, 68
1, 65343, Note_off_c, 0, 51, 35
1, 65343, Poly_aftertouch_c, 0, 51, 0
1, 65357, Control_c, 0, 64, 60
1, 65375, Control_c, 0, 64, 50
1, 65394, Control_c, 0, 64, 31
1, 65413, Control_c, 0, 64, 0
1, 65479, Note_off_c, 0, 61, 36
1, 65562, Control_c, 0, 64, 11
1, 65581, Control_c, 0, 64, 29
1, 65599, Control_c, 0, 64, 38
1, 65618, Control_c, 0, 64, 43
1, 65637, Control_c, 0, 64, 48
1, 65656, Control_c, 0, 64, 54
1, 65674, Control_c, 0, 64, 63
1, 65693, Control_c, 0, 64, 69
1, 65712, Control_c, 0, 64, 72
1, 65750, Control_c, 0, 64, 75
1, 65768, Control_c, 0, 64, 78
1, 65787, Control_c, 0, 64, 81
1, 65805, Control_c, 0, 64, 85
1, 65824, Control_c, 0, 64, 89
1, 65843, Control_c, 0, 64, 94
1, 65862, Control_c, 0, 64, 100
1, 65879, Control_c, 0, 64, 105
1, 65886, Note_on_c, 0, 63, 53
1, 65899, Control_c, 0, 64, 110
1, 65906, Note_on_c, 0, 48, 48
1, 65918, Control_c, 0, 64, 114
1, 65936, Control_c, 0, 64, 119
1, 65955, Control_c, 0, 64, 123
1, 65974, Control_c, 0, 64, 127
1, 66048, Note_off_c, 0, 56, 51
1, 66247, Note_off_c, 0, 63, 52
1, 66247, Poly_aftertouch_c, 0, 63, 0
1, 66531, Note_on_c, 0, 70, 70
1, 66571, Note_on_c, 0, 63, 47
1, 66573, Note_on_c, 0, 51, 54
1, 66574, Note_on_c, 0, 58, 57
1, 66583, Note_on_c, 0, 43, 48
1, 66666, Control_c, 0, 64, 111
1, 66680, Note_off_c, 0, 48, 39
1, 66680, Poly_aftertouch_c, 0, 48, 0
1, 66683, Control_c, 0, 64, 87
1, 66694, Note_off_c, 0, 68, 55
1, 66702, Control_c, 0, 64, 63
1, 66722, Control_c, 0, 64, 45
1, 66740, Control_c, 0, 64, 30
1, 66797, Control_c, 0, 64, 45
1, 66800, Note_off_c, 0, 51, 61
1, 66800, Poly_aftertouch_c, 0, 51, 0
1, 66812, Note_off_c, 0, 58, 59
1, 66812, Poly_aftertouch_c, 0, 58, 0
1, 66814, Control_c, 0, 64, 59
1, 66833, Control_c, 0, 64, 71
1, 66853, Control_c, 0, 64, 81
1, 66872, Control_c, 0, 64, 92
1, 66890, Control_c, 0, 64, 107
1, 66892, Note_off_c, 0, 70, 54
1, 66909, Control_c, 0, 64, 122
1, 66927, Control_c, 0, 64, 127
1, 67024, Note_off_c, 0, 43, 34
1, 67125, Note_off_c, 0, 63, 32
1, 67125, Poly_aftertouch_c, 0, 63, 0
1, 67233, Note_on_c, 0, 73, 74
1, 67250, Note_on_c, 0, 68, 60
1, 67267, Note_on_c, 0, 51, 52
1, 67268, Note_on_c, 0, 60, 47
1, 67269, Note_on_c, 0, 63, 57
1, 67284, Note_on_c, 0, 44, 47
1, 67321, Control_c, 0, 64, 120
1, 67339, Control_c, 0, 64, 101
1, 67358, Control_c, 0, 64, 77
1, 67377, Control_c, 0, 64, 53
1, 67381, Poly_aftertouch_c, 0, 62, 0
1, 67397, Control_c, 0, 64, 29
1, 67413, Control_c, 0, 64, 0
1, 67470, Control_c, 0, 64, 16
1, 67478, Note_off_c, 0, 60, 54
1, 67478, Poly_aftertouch_c, 0, 60, 0
1, 67488, Control_c, 0, 64, 33
1, 67507, Control_c, 0, 64, 50
1, 67513, Note_off_c, 0, 73, 61
1, 67513, Note_off_c, 0, 68, 62
1, 67513, Poly_aftertouch_c, 0, 73, 0
1, 67526, Control_c, 0, 64, 64
1, 67544, Note_off_c, 0, 51, 46
1, 67544, Poly_aftertouch_c, 0, 51, 0
1, 67544, Control_c, 0, 64, 75
1, 67563, Control_c, 0, 64, 84
1, 67582, Control_c, 0, 64, 96
1, 67602, Control_c, 0, 64, 112
1, 67619, Control_c, 0, 64, 127
1, 67623, Note_off_c, 0, 63, 46
1, 67623, Poly_aftertouch_c, 0, 63, 0
1, 67802, Note_on_c, 0, 72, 64
1, 67912, Note_off_c, 0, 72, 54
1, 67963, Note_on_c, 0, 70, 64
1, 67977, Note_on_c, 0, 67, 46
1, 67982, Note_on_c, 0, 63, 48
1, 67998, Note_on_c, 0, 39, 41
1, 68006, Note_on_c, 0, 58, 47
1, 68006, Note_on_c, 0, 51, 38
1, 68011, Control_c, 0, 64, 103
1, 68031, Control_c, 0, 64, 75
1, 68042, Note_off_c, 0, 44, 49
1, 68042, Poly_aftertouch_c, 0, 44, 0
1, 68050, Control_c, 0, 64, 47
1, 68068, Control_c, 0, 64, 0
1, 68161, Control_c, 0, 64, 28
1, 68180, Control_c, 0, 64, 46
1, 68200, Note_off_c, 0, 58, 58
1, 68200, Poly_aftertouch_c, 0, 58, 0
1, 68200, Control_c, 0, 64, 62
1, 68217, Control_c, 0, 64, 74
1, 68232, Note_off_c, 0, 67, 34
1, 68232, Poly_aftertouch_c, 0, 67, 0
1, 68236, Control_c, 0, 64, 83
1, 68244, Note_off_c, 0, 63, 55
1, 68244, Poly_aftertouch_c, 0, 63, 0
1, 68255, Control_c, 0, 64, 94
1, 68274, Control_c, 0, 64, 109
1, 68282, Note_off_c, 0, 39, 39
1, 68292, Control_c, 0, 64, 127
1, 68325, Note_off_c, 0, 51, 33
1, 68325, Poly_aftertouch_c, 0, 51, 0
1, 68336, Note_off_c, 0, 70, 59
1, 68710, Note_on_c, 0, 72, 58
1, 68742, Control_c, 0, 64, 122
1, 68752, Note_on_c, 0, 70, 60
1, 68760, Control_c, 0, 64, 115
1, 68778, Control_c, 0, 64, 106
1, 68798, Control_c, 0, 64, 95
1, 68816, Control_c, 0, 64, 82
1, 68835, Control_c, 0, 64, 67
1, 68848, Note_off_c, 0, 72, 49
1, 68852, Control_c, 0, 64, 54
1, 68872, Control_c, 0, 64, 38
1, 68891, Control_c, 0, 64, 0
1, 68930, Note_on_c, 0, 69, 47
1, 68957, Note_off_c, 0, 70, 57
1, 68984, Control_c, 0, 64, 11
1, 69003, Control_c, 0, 64, 24
1, 69022, Control_c, 0, 64, 36
1, 69040, Control_c, 0, 64, 47
1, 69059, Control_c, 0, 64, 56
1, 69079, Control_c, 0, 64, 65
1, 69089, Note_on_c, 0, 70, 74
1, 69095, Note_off_c, 0, 69, 56
1, 69095, Control_c, 0, 64, 70
1, 69115, Control_c, 0, 64, 73
1, 69135, Control_c, 0, 64, 75
1, 69152, Control_c, 0, 64, 78
1, 69172, Control_c, 0, 64, 80
1, 69190, Control_c, 0, 64, 84
1, 69209, Control_c, 0, 64, 88
1, 69226, Control_c, 0, 64, 92
1, 69230, Note_on_c, 0, 72, 73
1, 69278, Note_off_c, 0, 70, 58
1, 69436, Note_on_c, 0, 73, 65
1, 69451, Control_c, 0, 64, 86
1, 69470, Note_on_c, 0, 41, 46
1, 69471, Control_c, 0, 64, 81
1, 69489, Control_c, 0, 64, 74
1, 69491, Note_on_c, 0, 61, 53
1, 69508, Control_c, 0, 64, 67
1, 69526, Control_c, 0, 64, 59
1, 69543, Note_off_c, 0, 72, 63
1, 69544, Control_c, 0, 64, 45
1, 69563, Control_c, 0, 64, 11
1, 69583, Control_c, 0, 64, 0
1, 69658, Control_c, 0, 67, 8
1, 69732, Control_c, 0, 64, 13
1, 69752, Control_c, 0, 64, 37
1, 69769, Control_c, 0, 64, 56
1, 69771, Control_c, 0, 67, 12
1, 69788, Control_c, 0, 64, 70
1, 69800, Note_off_c, 0, 41, 57
1, 69806, Control_c, 0, 64, 80
1, 69807, Control_c, 0, 67, 16
1, 69825, Control_c, 0, 64, 88
1, 69844, Control_c, 0, 64, 97
1, 69845, Control_c, 0, 67, 22
1, 69864, Control_c, 0, 64, 107
1, 69882, Control_c, 0, 64, 116
1, 69883, Control_c, 0, 67, 28
1, 69900, Control_c, 0, 64, 123
1, 69901, Control_c, 0, 67, 33
1, 69920, Control_c, 0, 64, 127
1, 69921, Control_c, 0, 67, 37
1, 69938, Control_c, 0, 67, 41
1, 69957, Control_c, 0, 67, 46
1, 69994, Control_c, 0, 67, 53
1, 70030, Control_c, 0, 67, 59
1, 70069, Control_c, 0, 67, 65
1, 70126, Control_c, 0, 67, 70
1, 70159, Note_on_c, 0, 53, 30
1, 70161, Note_on_c, 0, 56, 40
1, 70180, Control_c, 0, 64, 123
1, 70181, Control_c, 0, 67, 75
1, 70200, Control_c, 0, 64, 114
1, 70219, Control_c, 0, 64, 99
1, 70237, Control_c, 0, 64, 80
1, 70256, Control_c, 0, 64, 63
1, 70276, Control_c, 0, 64, 56
1, 70311, Control_c, 0, 64, 60
1, 70332, Control_c, 0, 64, 66
1, 70350, Control_c, 0, 64, 73
1, 70368, Control_c, 0, 64, 80
1, 70389, Control_c, 0, 64, 89
1, 70391, Control_c, 0, 67, 69
1, 70405, Control_c, 0, 64, 99
1, 70425, Control_c, 0, 64, 111
1, 70425, Control_c, 0, 67, 61
1, 70443, Control_c, 0, 64, 122
1, 70444, Control_c, 0, 67, 52
1, 70462, Control_c, 0, 64, 127
1, 70463, Control_c, 0, 67, 42
1, 70476, Note_off_c, 0, 56, 36
1, 70480, Control_c, 0, 67, 33
1, 70498, Control_c, 0, 67, 27
1, 70512, Note_off_c, 0, 61, 40
1, 70517, Control_c, 0, 67, 21
1, 70536, Control_c, 0, 67, 17
1, 70556, Control_c, 0, 67, 13
1, 70760, Note_off_c, 0, 73, 25
1, 70760, Poly_aftertouch_c, 0, 73, 0
1, 70760, Control_c, 0, 67, 17
1, 70834, Note_on_c, 0, 72, 52
1, 70835, Control_c, 0, 67, 23
1, 70848, Note_on_c, 0, 51, 36
1, 70870, Note_on_c, 0, 56, 40
1, 70872, Control_c, 0, 67, 28
1, 70878, Note_on_c, 0, 60, 33
1, 70892, Control_c, 0, 64, 119
1, 70910, Control_c, 0, 64, 103
1, 70911, Control_c, 0, 67, 33
1, 70929, Control_c, 0, 64, 85
1, 70949, Control_c, 0, 64, 69
1, 70951, Control_c, 0, 67, 40
1, 70967, Control_c, 0, 64, 58
1, 70985, Control_c, 0, 64, 54
1, 70986, Control_c, 0, 67, 44
1, 70989, Note_off_c, 0, 53, 54
1, 70989, Poly_aftertouch_c, 0, 53, 0
1, 71023, Control_c, 0, 67, 48
1, 71060, Control_c, 0, 64, 57
1, 71062, Control_c, 0, 67, 52
1, 71079, Control_c, 0, 64, 60
1, 71097, Control_c, 0, 64, 65
1, 71112, Note_off_c, 0, 60, 40
1, 71112, Poly_aftertouch_c, 0, 60, 0
1, 71114, Control_c, 0, 64, 70
1, 71134, Control_c, 0, 64, 77
1, 71154, Control_c, 0, 64, 84
1, 71172, Control_c, 0, 64, 93
1, 71173, Control_c, 0, 67, 47
1, 71190, Control_c, 0, 64, 106
1, 71191, Control_c, 0, 67, 43
1, 71210, Control_c, 0, 64, 120
1, 71211, Control_c, 0, 67, 36
1, 71229, Control_c, 0, 64, 127
1, 71230, Control_c, 0, 67, 29
1, 71246, Control_c, 0, 67, 22
1, 71265, Control_c, 0, 67, 18
1, 71285, Control_c, 0, 67, 13
1, 71329, Note_off_c, 0, 56, 34
1, 71415, Control_c, 0, 67, 8
1, 71531, Note_on_c, 0, 77, 62
1, 71546, Control_c, 0, 64, 123
1, 71551, Note_on_c, 0, 50, 42
1, 71553, Note_on_c, 0, 56, 38
1, 71561, Note_on_c, 0, 65, 50
1, 71565, Control_c, 0, 64, 109
1, 71583, Control_c, 0, 64, 91
1, 71602, Control_c, 0, 64, 75
1, 71621, Control_c, 0, 64, 64
1, 71623, Note_off_c, 0, 72, 57
1, 71639, Control_c, 0, 64, 59
1, 71646, Note_off_c, 0, 51, 41
1, 71646, Poly_aftertouch_c, 0, 51, 0
1, 71697, Control_c, 0, 64, 62
1, 71714, Control_c, 0, 64, 66
1, 71733, Control_c, 0, 64, 71
1, 71752, Control_c, 0, 64, 77
1, 71770, Control_c, 0, 64, 85
1, 71773, Note_off_c, 0, 56, 56
1, 71778, Note_off_c, 0, 77, 52
1, 71789, Control_c, 0, 64, 94
1, 71808, Control_c, 0, 64, 107
1, 71811, Note_off_c, 0, 65, 61
1, 71827, Control_c, 0, 64, 121
1, 71844, Control_c, 0, 64, 127
1, 71920, Control_c, 0, 67, 12
1, 72024, Note_off_c, 0, 50, 35
1, 72030, Control_c, 0, 67, 16
1, 72069, Control_c, 0, 67, 20
1, 72107, Control_c, 0, 67, 24
1, 72163, Control_c, 0, 67, 30
1, 72198, Note_on_c, 0, 70, 61
1, 72200, Control_c, 0, 67, 34
1, 72238, Control_c, 0, 67, 39
1, 72246, Note_on_c, 0, 55, 34
1, 72249, Note_on_c, 0, 58, 47
1, 72274, Control_c, 0, 64, 119
1, 72275, Control_c, 0, 67, 44
1, 72278, Note_on_c, 0, 49, 35
1, 72294, Control_c, 0, 64, 104
1, 72314, Control_c, 0, 64, 85
1, 72315, Control_c, 0, 67, 48
1, 72331, Control_c, 0, 64, 66
1, 72350, Control_c, 0, 64, 52
1, 72351, Control_c, 0, 67, 53
1, 72370, Control_c, 0, 64, 39
1, 72387, Control_c, 0, 64, 28
1, 72389, Control_c, 0, 67, 58
1, 72425, Control_c, 0, 67, 65
1, 72443, Control_c, 0, 64, 37
1, 72463, Control_c, 0, 64, 47
1, 72465, Control_c, 0, 67, 73
1, 72474, Note_off_c, 0, 58, 54
1, 72474, Poly_aftertouch_c, 0, 58, 0
1, 72480, Control_c, 0, 64, 60
1, 72500, Control_c, 0, 64, 70
1, 72502, Control_c, 0, 67, 80
1, 72517, Control_c, 0, 64, 77
1, 72518, Control_c, 0, 67, 84
1, 72537, Control_c, 0, 64, 83
1, 72538, Control_c, 0, 67, 88
1, 72556, Control_c, 0, 64, 90
1, 72575, Control_c, 0, 64, 99
1, 72575, Control_c, 0, 67, 92
1, 72592, Control_c, 0, 64, 108
1, 72613, Control_c, 0, 64, 117
1, 72630, Control_c, 0, 64, 124
1, 72631, Note_off_c, 0, 49, 40
1, 72672, Note_off_c, 0, 55, 33
1, 72799, Control_c, 0, 67, 97
1, 72854, Control_c, 0, 67, 102
1, 72892, Control_c, 0, 67, 107
1, 72928, Control_c, 0, 67, 112
1, 72930, Note_on_c, 0, 75, 55
1, 72965, Note_on_c, 0, 63, 41
1, 72965, Control_c, 0, 67, 118
1, 72978, Note_on_c, 0, 56, 33
1, 72984, Control_c, 0, 67, 124
1, 72993, Note_on_c, 0, 48, 28
1, 73004, Control_c, 0, 64, 120
1, 73023, Control_c, 0, 64, 109
1, 73042, Control_c, 0, 64, 96
1, 73060, Control_c, 0, 64, 80
1, 73079, Note_off_c, 0, 70, 38
1, 73079, Control_c, 0, 64, 66
1, 73098, Control_c, 0, 64, 52
1, 73116, Control_c, 0, 64, 35
1, 73135, Control_c, 0, 64, 0
1, 73210, Control_c, 0, 64, 15
1, 73229, Control_c, 0, 64, 30
1, 73247, Control_c, 0, 64, 45
1, 73266, Control_c, 0, 64, 58
1, 73284, Control_c, 0, 64, 69
1, 73304, Control_c, 0, 64, 77
1, 73322, Control_c, 0, 64, 84
1, 73341, Control_c, 0, 64, 91
1, 73361, Control_c, 0, 64, 100
1, 73373, Note_off_c, 0, 63, 38
1, 73373, Poly_aftertouch_c, 0, 63, 0
1, 73378, Control_c, 0, 64, 107
1, 73397, Control_c, 0, 64, 113
1, 73435, Control_c, 0, 64, 119
1, 73464, Note_off_c, 0, 56, 35
1, 73471, Control_c, 0, 64, 124
1, 73503, Note_off_c, 0, 75, 30
1, 73757, Note_on_c, 0, 70, 42
1, 73781, Note_off_c, 0, 48, 36
1, 73781, Poly_aftertouch_c, 0, 48, 0
1, 73802, Note_on_c, 0, 68, 40
1, 73806, Control_c, 0, 64, 119
1, 73846, Control_c, 0, 64, 115
1, 73884, Control_c, 0, 64, 107
1, 73891, Note_off_c, 0, 70, 44
1, 73902, Control_c, 0, 64, 100
1, 73920, Control_c, 0, 64, 93
1, 73939, Control_c, 0, 64, 87
1, 73958, Control_c, 0, 64, 83
1, 73977, Control_c, 0, 64, 80
1, 73995, Control_c, 0, 64, 78
1, 74000, Note_on_c, 0, 67, 50
1, 74014, Control_c, 0, 64, 76
1, 74017, Note_off_c, 0, 68, 39
1, 74052, Control_c, 0, 64, 74
1, 74107, Control_c, 0, 64, 71
1, 74118, Note_off_c, 0, 67, 59
1, 74118, Poly_aftertouch_c, 0, 67, 0
1, 74144, Control_c, 0, 64, 69
1, 74151, Note_on_c, 0, 68, 55
1, 74182, Control_c, 0, 64, 67
1, 74219, Control_c, 0, 64, 66
1, 74289, Note_off_c, 0, 68, 57
1, 74294, Note_on_c, 0, 70, 55
1, 74294, Control_c, 0, 64, 64
1, 74314, Control_c, 0, 64, 63
1, 74352, Control_c, 0, 64, 62
1, 74369, Control_c, 0, 64, 61
1, 74388, Control_c, 0, 64, 60
1, 74407, Control_c, 0, 64, 58
1, 74426, Control_c, 0, 64, 56
1, 74444, Control_c, 0, 64, 52
1, 74459, Note_on_c, 0, 72, 49
1, 74462, Control_c, 0, 64, 46
1, 74476, Note_on_c, 0, 51, 36
1, 74481, Control_c, 0, 64, 37
1, 74486, Note_on_c, 0, 68, 33
1, 74493, Note_on_c, 0, 63, 39
1, 74498, Control_c, 0, 64, 24
1, 74520, Control_c, 0, 64, 9
1, 74534, Note_off_c, 0, 70, 37
1, 74537, Control_c, 0, 64, 0
1, 74631, Control_c, 0, 64, 13
1, 74650, Control_c, 0, 64, 23
1, 74668, Control_c, 0, 64, 32
1, 74687, Control_c, 0, 64, 43
1, 74707, Control_c, 0, 64, 52
1, 74725, Control_c, 0, 64, 61
1, 74742, Control_c, 0, 64, 68
1, 74762, Control_c, 0, 64, 73
1, 74781, Control_c, 0, 64, 77
1, 74786, Note_off_c, 0, 68, 46
1, 74799, Control_c, 0, 64, 82
1, 74818, Control_c, 0, 64, 87
1, 74828, Note_off_c, 0, 63, 44
1, 74828, Poly_aftertouch_c, 0, 63, 0
1, 74836, Control_c, 0, 64, 93
1, 74856, Control_c, 0, 64, 99
1, 74873, Control_c, 0, 64, 104
1, 74910, Note_off_c, 0, 72, 29
1, 74911, Control_c, 0, 64, 108
1, 75098, Control_c, 0, 64, 103
1, 75125, Note_on_c, 0, 70, 42
1, 75135, Control_c, 0, 64, 97
1, 75154, Control_c, 0, 64, 92
1, 75155, Note_on_c, 0, 61, 29
1, 75158, Note_on_c, 0, 67, 36
1, 75167, Note_on_c, 0, 39, 31
1, 75172, Control_c, 0, 64, 85
1, 75193, Control_c, 0, 64, 78
1, 75210, Control_c, 0, 64, 70
1, 75230, Control_c, 0, 64, 64
1, 75249, Control_c, 0, 64, 57
1, 75267, Control_c, 0, 64, 50
1, 75286, Control_c, 0, 64, 39
1, 75291, Note_off_c, 0, 51, 39
1, 75291, Poly_aftertouch_c, 0, 51, 0
1, 75304, Control_c, 0, 64, 31
1, 75360, Control_c, 0, 64, 37
1, 75379, Control_c, 0, 64, 44
1, 75398, Control_c, 0, 64, 52
1, 75416, Control_c, 0, 64, 60
1, 75431, Note_off_c, 0, 61, 54
1, 75436, Control_c, 0, 64, 66
1, 75452, Note_off_c, 0, 67, 36
1, 75452, Poly_aftertouch_c, 0, 67, 0
1, 75454, Control_c, 0, 64, 71
1, 75472, Control_c, 0, 64, 74
1, 75492, Control_c, 0, 64, 76
1, 75510, Control_c, 0, 64, 78
1, 75529, Control_c, 0, 64, 80
1, 75547, Control_c, 0, 64, 82
1, 75568, Control_c, 0, 64, 84
1, 75585, Control_c, 0, 64, 86
1, 75626, Note_off_c, 0, 70, 34
1, 75753, Control_c, 0, 64, 84
1, 75791, Control_c, 0, 64, 82
1, 75828, Control_c, 0, 64, 78
1, 75832, Note_on_c, 0, 68, 34
1, 75846, Control_c, 0, 64, 75
1, 75848, Note_off_c, 0, 39, 32
1, 75855, Note_on_c, 0, 60, 26
1, 75857, Note_on_c, 0, 44, 21
1, 75865, Control_c, 0, 64, 72
1, 75883, Control_c, 0, 64, 69
1, 75903, Control_c, 0, 64, 67
1, 75921, Control_c, 0, 64, 64
1, 75940, Control_c, 0, 64, 60
1, 75958, Control_c, 0, 64, 56
1, 75978, Control_c, 0, 64, 51
1, 75996, Control_c, 0, 64, 43
1, 76015, Control_c, 0, 64, 30
1, 76034, Control_c, 0, 64, 11
1, 76052, Control_c, 0, 64, 0
1, 76115, Note_off_c, 0, 44, 45
1, 76115, Poly_aftertouch_c, 0, 44, 0
1, 76164, Control_c, 0, 64, 12
1, 76184, Control_c, 0, 64, 23
1, 76202, Control_c, 0, 64, 31
1, 76220, Control_c, 0, 64, 35
1, 76445, Control_c, 0, 64, 31
1, 76538, Control_c, 0, 64, 26
1, 76590, Note_on_c, 0, 32, 20
1, 76593, Control_c, 0, 64, 22
1, 76607, Note_off_c, 0, 60, 37
1, 76607, Poly_aftertouch_c, 0, 60, 0
1, 76669, Control_c, 0, 64, 29
1, 76689, Control_c, 0, 64, 34
1, 76698, Note_off_c, 0, 68, 56
1, 76706, Control_c, 0, 64, 43
1, 76726, Control_c, 0, 64, 54
1, 76744, Control_c, 0, 64, 66
1, 76763, Control_c, 0, 64, 73
1, 76782, Control_c, 0, 64, 77
1, 76800, Control_c, 0, 64, 81
1, 76815, Note_off_c, 0, 32, 43
1, 76820, Control_c, 0, 64, 85
1, 76838, Control_c, 0, 64, 90
1, 76856, Control_c, 0, 64, 96
1, 76875, Control_c, 0, 64, 101
1, 76913, Control_c, 0, 64, 106
1, 77064, Control_c, 0, 64, 102
1, 77099, Control_c, 0, 64, 97
1, 77137, Control_c, 0, 64, 89
1, 77155, Control_c, 0, 64, 85
1, 77174, Control_c, 0, 64, 81
1, 77193, Control_c, 0, 64, 79
1, 77249, Control_c, 0, 64, 76
1, 77268, Control_c, 0, 64, 74
1, 77305, Control_c, 0, 64, 72
1, 77342, Control_c, 0, 64, 70
1, 77379, Control_c, 0, 64, 67
1, 77399, Control_c, 0, 64, 66
1, 77416, Control_c, 0, 64, 65
1, 77436, Control_c, 0, 64, 64
1, 77454, Control_c, 0, 64, 63
1, 77474, Control_c, 0, 64, 60
1, 77511, Control_c, 0, 64, 57
1, 77529, Control_c, 0, 64, 55
1, 77548, Control_c, 0, 64, 52
1, 77567, Control_c, 0, 64, 48
1, 77586, Control_c, 0, 64, 43
1, 77605, Control_c, 0, 64, 37
1, 77624, Control_c, 0, 64, 29
1, 77642, Control_c, 0, 64, 20
1, 77660, Control_c, 0, 64, 11
1, 77667, Note_on_c, 0, 51, 48
1, 77679, Control_c, 0, 64, 0
1, 78416, Note_on_c, 0, 44, 30
1, 78424, Note_on_c, 0, 39, 34
1, 78441, Note_on_c, 0, 32, 35
1, 78572, Note_on_c, 0, 48, 45
1, 78596, Note_off_c, 0, 51, 36
1, 78596, Poly_aftertouch_c, 0, 51, 0
1, 78724, Note_on_c, 0, 51, 60
1, 78832, Note_off_c, 0, 48, 32
1, 78832, Poly_aftertouch_c, 0, 48, 0
1, 78868, Note_on_c, 0, 56, 60
1, 78875, Control_c, 0, 67, 116
1, 78894, Control_c, 0, 67, 106
1, 78912, Control_c, 0, 67, 95
1, 78932, Control_c, 0, 67, 91
1, 78981, Note_off_c, 0, 51, 54
1, 78981, Poly_aftertouch_c, 0, 51, 0
1, 79034, Note_on_c, 0, 60, 60
1, 79063, Control_c, 0, 67, 85
1, 79100, Control_c, 0, 67, 77
1, 79118, Control_c, 0, 67, 71
1, 79138, Control_c, 0, 67, 66
1, 79156, Control_c, 0, 67, 62
1, 79213, Control_c, 0, 67, 57
1, 79220, Note_off_c, 0, 56, 33
1, 79324, Control_c, 0, 67, 61
1, 79361, Control_c, 0, 67, 66
1, 79380, Control_c, 0, 67, 73
1, 79401, Control_c, 0, 67, 81
1, 79418, Control_c, 0, 67, 88
1, 79436, Control_c, 0, 67, 93
1, 79455, Control_c, 0, 67, 98
1, 79492, Control_c, 0, 67, 102
1, 79567, Control_c, 0, 67, 106
1, 79697, Note_on_c, 0, 56, 45
1, 79866, Control_c, 0, 64, 14
1, 79867, Control_c, 0, 67, 99
1, 79886, Control_c, 0, 64, 31
1, 79887, Control_c, 0, 67, 93
1, 79904, Control_c, 0, 64, 44
1, 79906, Control_c, 0, 67, 85
1, 79923, Control_c, 0, 64, 55
1, 79925, Control_c, 0, 67, 78
1, 79941, Control_c, 0, 64, 65
1, 79943, Control_c, 0, 67, 72
1, 79960, Control_c, 0, 64, 71
1, 79979, Control_c, 0, 64, 76
1, 79998, Control_c, 0, 64, 81
1, 80002, Note_off_c, 0, 60, 32
1, 80002, Poly_aftertouch_c, 0, 60, 0
1, 80006, Note_off_c, 0, 44, 40
1, 80006, Poly_aftertouch_c, 0, 44, 0
1, 80017, Control_c, 0, 64, 86
1, 80035, Control_c, 0, 64, 91
1, 80052, Note_off_c, 0, 39, 39
1, 80073, Control_c, 0, 64, 96
1, 80074, Control_c, 0, 67, 77
1, 80111, Control_c, 0, 67, 86
1, 80128, Control_c, 0, 67, 94
1, 80148, Control_c, 0, 67, 102
1, 80165, Control_c, 0, 67, 109
1, 80185, Control_c, 0, 67, 115
1, 80204, Control_c, 0, 64, 92
1, 80205, Control_c, 0, 67, 120
1, 80222, Control_c, 0, 67, 124
1, 80241, Control_c, 0, 64, 88
1, 80251, Note_off_c, 0, 56, 38
1, 80313, Note_on_c, 0, 39, 38
1, 80318, Note_on_c, 0, 46, 42
1, 80340, Note_on_c, 0, 55, 42
1, 80342, Note_on_c, 0, 34, 44
1, 80383, Note_off_c, 0, 55, 59
1, 80408, Note_off_c, 0, 32, 56
1, 80503, Note_on_c, 0, 61, 58
1, 80577, Control_c, 0, 64, 84
1, 80595, Control_c, 0, 64, 81
1, 80615, Control_c, 0, 64, 78
1, 80634, Control_c, 0, 64, 74
1, 80652, Control_c, 0, 64, 70
1, 80667, Note_on_c, 0, 63, 53
1, 80671, Control_c, 0, 64, 67
1, 80690, Control_c, 0, 64, 64
1, 80708, Control_c, 0, 64, 62
1, 80727, Control_c, 0, 64, 60
1, 80746, Control_c, 0, 64, 58
1, 80765, Control_c, 0, 64, 55
1, 80783, Control_c, 0, 64, 52
1, 80794, Note_on_c, 0, 67, 57
1, 80801, Control_c, 0, 64, 48
1, 80821, Control_c, 0, 64, 44
1, 80838, Note_off_c, 0, 61, 51
1, 80839, Control_c, 0, 64, 40
1, 80858, Control_c, 0, 64, 35
1, 80876, Control_c, 0, 64, 29
1, 80877, Control_c, 0, 67, 120
1, 80895, Control_c, 0, 64, 24
1, 80913, Control_c, 0, 67, 115
1, 80932, Control_c, 0, 64, 18
1, 80933, Note_off_c, 0, 63, 35
1, 80933, Poly_aftertouch_c, 0, 63, 0
1, 80952, Control_c, 0, 67, 110
1, 80987, Note_on_c, 0, 73, 69
1, 80988, Control_c, 0, 67, 106
1, 81027, Control_c, 0, 64, 13
1, 81028, Control_c, 0, 67, 100
1, 81064, Control_c, 0, 67, 93
1, 81102, Control_c, 0, 67, 86
1, 81119, Control_c, 0, 67, 82
1, 81139, Control_c, 0, 67, 77
1, 81157, Control_c, 0, 67, 72
1, 81176, Control_c, 0, 64, 20
1, 81177, Control_c, 0, 67, 67
1, 81195, Control_c, 0, 64, 26
1, 81197, Control_c, 0, 67, 63
1, 81213, Control_c, 0, 64, 34
1, 81214, Note_off_c, 0, 67, 36
1, 81214, Poly_aftertouch_c, 0, 67, 0
1, 81214, Control_c, 0, 67, 58
1, 81233, Control_c, 0, 64, 44
1, 81234, Control_c, 0, 67, 53
1, 81250, Control_c, 0, 64, 54
1, 81252, Control_c, 0, 67, 49
1, 81270, Control_c, 0, 64, 62
1, 81271, Control_c, 0, 67, 44
1, 81288, Control_c, 0, 64, 67
1, 81290, Control_c, 0, 67, 40
1, 81307, Control_c, 0, 64, 70
1, 81324, Control_c, 0, 67, 34
1, 81344, Control_c, 0, 67, 30
1, 81363, Control_c, 0, 67, 25
1, 81381, Control_c, 0, 67, 20
1, 81400, Control_c, 0, 67, 14
1, 81419, Control_c, 0, 67, 9
1, 81512, Control_c, 0, 64, 67
1, 81530, Control_c, 0, 64, 65
1, 81550, Control_c, 0, 64, 63
1, 81569, Control_c, 0, 64, 60
1, 81586, Control_c, 0, 64, 58
1, 81606, Control_c, 0, 64, 55
1, 81624, Note_on_c, 0, 67, 46
1, 81625, Control_c, 0, 64, 52
1, 81699, Control_c, 0, 67, 0
1, 81718, Control_c, 0, 64, 57
1, 81735, Note_off_c, 0, 73, 62
1, 81735, Poly_aftertouch_c, 0, 73, 0
1, 81736, Control_c, 0, 64, 63
1, 81756, Control_c, 0, 64, 69
1, 81774, Control_c, 0, 64, 74
1, 81793, Control_c, 0, 64, 79
1, 81812, Control_c, 0, 64, 84
1, 81830, Control_c, 0, 64, 92
1, 81840, Note_off_c, 0, 34, 60
1, 81847, Control_c, 0, 64, 104
1, 81867, Control_c, 0, 64, 116
1, 81887, Control_c, 0, 64, 127
1, 81904, Note_off_c, 0, 46, 60
1, 81917, Note_off_c, 0, 39, 34
1, 81979, Control_c, 0, 67, 8
1, 81991, Note_off_c, 0, 67, 49
1, 81991, Poly_aftertouch_c, 0, 67, 0
1, 82017, Control_c, 0, 67, 12
1, 82055, Control_c, 0, 67, 17
1, 82074, Control_c, 0, 67, 22
1, 82092, Control_c, 0, 67, 27
1, 82110, Control_c, 0, 67, 34
1, 82129, Control_c, 0, 67, 41
1, 82148, Control_c, 0, 67, 46
1, 82167, Control_c, 0, 67, 51
1, 82185, Control_c, 0, 67, 55
1, 82204, Control_c, 0, 67, 60
1, 82223, Control_c, 0, 67, 66
1, 82241, Control_c, 0, 67, 72
1, 82261, Note_on_c, 0, 68, 58
1, 82261, Control_c, 0, 67, 78
1, 82271, Note_on_c, 0, 48, 39
1, 82277, Note_on_c, 0, 36, 42
1, 82278, Note_on_c, 0, 39, 40
1, 82278, Control_c, 0, 67, 84
1, 82298, Control_c, 0, 67, 89
1, 82300, Note_off_c, 0, 68, 66
1, 82335, Control_c, 0, 67, 96
1, 82435, Note_on_c, 0, 51, 63
1, 82466, Control_c, 0, 64, 122
1, 82467, Control_c, 0, 67, 92
1, 82505, Control_c, 0, 64, 117
1, 82505, Control_c, 0, 67, 86
1, 82522, Control_c, 0, 67, 78
1, 82540, Control_c, 0, 64, 110
1, 82542, Control_c, 0, 67, 67
1, 82560, Control_c, 0, 64, 106
1, 82561, Control_c, 0, 67, 55
1, 82577, Note_on_c, 0, 56, 66
1, 82578, Control_c, 0, 64, 101
1, 82579, Control_c, 0, 67, 44
1, 82598, Control_c, 0, 64, 97
1, 82599, Control_c, 0, 67, 33
1, 82612, Note_off_c, 0, 51, 56
1, 82612, Poly_aftertouch_c, 0, 51, 0
1, 82614, Control_c, 0, 67, 25
1, 82634, Control_c, 0, 64, 90
1, 82636, Control_c, 0, 67, 18
1, 82653, Control_c, 0, 64, 87
1, 82654, Control_c, 0, 67, 13
1, 82672, Control_c, 0, 64, 83
1, 82674, Control_c, 0, 67, 9
1, 82690, Control_c, 0, 64, 79
1, 82709, Control_c, 0, 64, 76
1, 82721, Note_on_c, 0, 60, 63
1, 82726, Control_c, 0, 64, 71
1, 82746, Control_c, 0, 64, 64
1, 82765, Control_c, 0, 64, 56
1, 82783, Control_c, 0, 64, 45
1, 82802, Control_c, 0, 64, 25
1, 82821, Note_off_c, 0, 56, 47
1, 82821, Control_c, 0, 64, 0
1, 82877, Control_c, 0, 67, 0
1, 82881, Note_on_c, 0, 63, 61
1, 82915, Note_on_c, 0, 51, 33
1, 82953, Control_c, 0, 64, 22
1, 82968, Note_off_c, 0, 36, 39
1, 82970, Control_c, 0, 64, 35
1, 82982, Note_off_c, 0, 51, 48
1, 82982, Poly_aftertouch_c, 0, 51, 0
1, 82988, Control_c, 0, 64, 47
1, 83008, Control_c, 0, 64, 57
1, 83018, Note_off_c, 0, 39, 57
1, 83027, Control_c, 0, 64, 68
1, 83046, Control_c, 0, 64, 76
1, 83063, Control_c, 0, 64, 83
1, 83064, Note_off_c, 0, 60, 37
1, 83064, Poly_aftertouch_c, 0, 60, 0
1, 83083, Control_c, 0, 64, 92
1, 83092, Note_off_c, 0, 48, 39
1, 83092, Poly_aftertouch_c, 0, 48, 0
1, 83101, Control_c, 0, 64, 101
1, 83120, Control_c, 0, 64, 110
1, 83139, Control_c, 0, 64, 119
1, 83157, Control_c, 0, 64, 127
1, 83363, Note_off_c, 0, 63, 30
1, 83363, Poly_aftertouch_c, 0, 63, 0
1, 83502, Note_on_c, 0, 63, 72
1, 83526, Note_on_c, 0, 51, 55
1, 83527, Note_on_c, 0, 43, 50
1, 83531, Note_on_c, 0, 58, 58
1, 83532, Control_c, 0, 64, 122
1, 83550, Control_c, 0, 64, 108
1, 83570, Control_c, 0, 64, 90
1, 83588, Control_c, 0, 64, 72
1, 83606, Control_c, 0, 64, 59
1, 83626, Control_c, 0, 64, 53
1, 83662, Control_c, 0, 64, 55
1, 83681, Control_c, 0, 64, 60
1, 83700, Control_c, 0, 64, 66
1, 83719, Control_c, 0, 64, 73
1, 83736, Control_c, 0, 64, 80
1, 83756, Control_c, 0, 64, 87
1, 83775, Control_c, 0, 64, 93
1, 83779, Note_off_c, 0, 63, 38
1, 83779, Poly_aftertouch_c, 0, 63, 0
1, 83794, Control_c, 0, 64, 101
1, 83805, Note_off_c, 0, 58, 52
1, 83805, Poly_aftertouch_c, 0, 58, 0
1, 83812, Control_c, 0, 64, 109
1, 83831, Control_c, 0, 64, 117
1, 83849, Control_c, 0, 64, 123
1, 83853, Note_off_c, 0, 43, 32
1, 83868, Control_c, 0, 64, 127
1, 83877, Note_off_c, 0, 51, 29
1, 83877, Poly_aftertouch_c, 0, 51, 0
1, 84162, Note_on_c, 0, 63, 63
1, 84170, Note_on_c, 0, 61, 59
1, 84187, Note_on_c, 0, 51, 49
1, 84195, Note_on_c, 0, 56, 57
1, 84203, Note_on_c, 0, 44, 42
1, 84203, Control_c, 0, 64, 121
1, 84223, Control_c, 0, 64, 114
1, 84244, Control_c, 0, 64, 100
1, 84260, Control_c, 0, 64, 82
1, 84280, Control_c, 0, 64, 66
1, 84299, Control_c, 0, 64, 54
1, 84317, Control_c, 0, 64, 39
1, 84335, Control_c, 0, 64, 10
1, 84354, Control_c, 0, 64, 0
1, 84355, Control_c, 0, 67, 8
1, 84392, Control_c, 0, 64, 10
1, 84410, Control_c, 0, 64, 26
1, 84429, Control_c, 0, 64, 39
1, 84430, Control_c, 0, 67, 12
1, 84448, Control_c, 0, 64, 51
1, 84466, Control_c, 0, 64, 61
1, 84485, Control_c, 0, 64, 70
1, 84487, Control_c, 0, 67, 18
1, 84496, Note_on_c, 0, 60, 45
1, 84505, Control_c, 0, 64, 77
1, 84523, Control_c, 0, 64, 83
1, 84524, Control_c, 0, 67, 26
1, 84536, Note_off_c, 0, 63, 56
1, 84536, Poly_aftertouch_c, 0, 63, 0
1, 84540, Control_c, 0, 64, 88
1, 84542, Control_c, 0, 67, 30
1, 84561, Control_c, 0, 64, 94
1, 84562, Control_c, 0, 67, 35
1, 84568, Note_off_c, 0, 51, 34
1, 84568, Poly_aftertouch_c, 0, 51, 0
1, 84579, Control_c, 0, 64, 99
1, 84580, Control_c, 0, 67, 40
1, 84582, Note_off_c, 0, 56, 61
1, 84597, Control_c, 0, 67, 45
1, 84615, Control_c, 0, 67, 50
1, 84635, Control_c, 0, 67, 55
1, 84653, Control_c, 0, 67, 60
1, 84672, Control_c, 0, 67, 64
1, 84692, Note_off_c, 0, 61, 30
1, 84710, Control_c, 0, 67, 70
1, 84747, Control_c, 0, 67, 74
1, 84803, Control_c, 0, 64, 93
1, 84805, Note_off_c, 0, 60, 28
1, 84805, Poly_aftertouch_c, 0, 60, 0
1, 84810, Note_on_c, 0, 63, 50
1, 84824, Control_c, 0, 64, 88
1, 84825, Control_c, 0, 67, 78
1, 84842, Control_c, 0, 64, 80
1, 84845, Note_on_c, 0, 58, 36
1, 84845, Note_on_c, 0, 39, 40
1, 84850, Note_on_c, 0, 51, 33
1, 84853, Note_on_c, 0, 55, 35
1, 84860, Control_c, 0, 64, 71
1, 84877, Control_c, 0, 64, 62
1, 84897, Control_c, 0, 64, 51
1, 84915, Control_c, 0, 64, 31
1, 84920, Note_off_c, 0, 44, 57
1, 84920, Poly_aftertouch_c, 0, 44, 0
1, 84933, Control_c, 0, 64, 0
1, 84990, Control_c, 0, 67, 73
1, 85027, Control_c, 0, 67, 65
1, 85047, Control_c, 0, 64, 19
1, 85048, Control_c, 0, 67, 57
1, 85066, Control_c, 0, 64, 36
1, 85067, Control_c, 0, 67, 48
1, 85083, Control_c, 0, 64, 51
1, 85083, Control_c, 0, 67, 39
1, 85103, Control_c, 0, 64, 66
1, 85105, Control_c, 0, 67, 30
1, 85123, Control_c, 0, 64, 79
1, 85123, Control_c, 0, 67, 22
1, 85138, Note_off_c, 0, 39, 54
1, 85139, Control_c, 0, 64, 91
1, 85141, Control_c, 0, 67, 15
1, 85159, Control_c, 0, 64, 102
1, 85160, Control_c, 0, 67, 8
1, 85177, Control_c, 0, 64, 112
1, 85196, Control_c, 0, 64, 119
1, 85214, Control_c, 0, 64, 124
1, 85234, Control_c, 0, 67, 0
1, 85244, Note_off_c, 0, 51, 47
1, 85244, Poly_aftertouch_c, 0, 51, 0
1, 85267, Note_off_c, 0, 55, 36
1, 85299, Note_off_c, 0, 58, 41
1, 85299, Poly_aftertouch_c, 0, 58, 0
1, 85323, Note_off_c, 0, 63, 36
1, 85323, Poly_aftertouch_c, 0, 63, 0
1, 85458, Control_c, 0, 64, 120
1, 85469, Note_on_c, 0, 60, 51
1, 85496, Control_c, 0, 64, 112
1, 85514, Control_c, 0, 64, 106
1, 85531, Note_on_c, 0, 58, 46
1, 85532, Control_c, 0, 64, 98
1, 85551, Control_c, 0, 64, 87
1, 85570, Control_c, 0, 64, 73
1, 85589, Control_c, 0, 64, 58
1, 85600, Note_off_c, 0, 60, 54
1, 85600, Poly_aftertouch_c, 0, 60, 0
1, 85606, Control_c, 0, 64, 38
1, 85625, Control_c, 0, 64, 0
1, 85709, Note_on_c, 0, 57, 61
1, 85732, Note_off_c, 0, 58, 56
1, 85732, Poly_aftertouch_c, 0, 58, 0
1, 85737, Control_c, 0, 64, 9
1, 85756, Control_c, 0, 64, 25
1, 85776, Control_c, 0, 64, 38
1, 85794, Control_c, 0, 64, 48
1, 85813, Control_c, 0, 64, 58
1, 85831, Control_c, 0, 64, 67
1, 85850, Control_c, 0, 64, 72
1, 85858, Note_on_c, 0, 58, 63
1, 85870, Control_c, 0, 64, 74
1, 85887, Control_c, 0, 64, 76
1, 85907, Control_c, 0, 64, 79
1, 85916, Note_off_c, 0, 57, 56
1, 85924, Control_c, 0, 64, 83
1, 85944, Control_c, 0, 64, 89
1, 85963, Control_c, 0, 64, 96
1, 85980, Control_c, 0, 64, 102
1, 85982, Note_on_c, 0, 60, 67
1, 86000, Control_c, 0, 64, 106
1, 86015, Note_off_c, 0, 58, 59
1, 86015, Poly_aftertouch_c, 0, 58, 0
1, 86018, Control_c, 0, 64, 110
1, 86056, Control_c, 0, 64, 115
1, 86083, Note_off_c, 0, 60, 60
1, 86083, Poly_aftertouch_c, 0, 60, 0
1, 86117, Note_on_c, 0, 61, 68
1, 86176, Note_off_c, 0, 61, 62
1, 86184, Note_on_c, 0, 41, 46
1, 86205, Control_c, 0, 64, 110
1, 86224, Control_c, 0, 64, 102
1, 86243, Control_c, 0, 64, 84
1, 86261, Control_c, 0, 64, 61
1, 86264, Note_on_c, 0, 61, 56
1, 86281, Control_c, 0, 64, 34
1, 86298, Control_c, 0, 64, 0
1, 86374, Control_c, 0, 64, 23
1, 86392, Control_c, 0, 64, 41
1, 86411, Control_c, 0, 64, 54
1, 86422, Note_on_c, 0, 65, 66
1, 86430, Control_c, 0, 64, 65
1, 86448, Control_c, 0, 64, 72
1, 86462, Note_off_c, 0, 41, 60
1, 86467, Control_c, 0, 64, 76
1, 86487, Control_c, 0, 64, 81
1, 86504, Control_c, 0, 64, 88
1, 86524, Control_c, 0, 64, 97
1, 86542, Control_c, 0, 64, 108
1, 86550, Note_on_c, 0, 68, 73
1, 86560, Control_c, 0, 64, 116
1, 86580, Control_c, 0, 64, 122
1, 86598, Control_c, 0, 64, 126
1, 86638, Note_off_c, 0, 61, 35
1, 86717, Note_on_c, 0, 73, 73
1, 86766, Control_c, 0, 64, 121
1, 86772, Note_off_c, 0, 65, 32
1, 86783, Note_on_c, 0, 56, 43
1, 86784, Control_c, 0, 64, 115
1, 86789, Note_on_c, 0, 53, 39
1, 86805, Control_c, 0, 64, 107
1, 86822, Control_c, 0, 64, 92
1, 86843, Control_c, 0, 64, 73
1, 86860, Control_c, 0, 64, 54
1, 86878, Control_c, 0, 64, 31
1, 86897, Control_c, 0, 64, 0
1, 86973, Note_off_c, 0, 68, 39
1, 86992, Control_c, 0, 64, 20
1, 87010, Control_c, 0, 64, 35
1, 87029, Control_c, 0, 64, 48
1, 87048, Control_c, 0, 64, 61
1, 87066, Control_c, 0, 64, 73
1, 87084, Control_c, 0, 64, 84
1, 87103, Note_off_c, 0, 56, 37
1, 87103, Control_c, 0, 64, 95
1, 87121, Control_c, 0, 64, 106
1, 87141, Control_c, 0, 64, 115
1, 87158, Control_c, 0, 64, 124
1, 87344, Note_on_c, 0, 72, 55
1, 87371, Note_on_c, 0, 56, 45
1, 87380, Note_on_c, 0, 51, 41
1, 87384, Control_c, 0, 64, 115
1, 87404, Control_c, 0, 64, 104
1, 87421, Control_c, 0, 64, 89
1, 87440, Control_c, 0, 64, 73
1, 87458, Control_c, 0, 64, 59
1, 87466, Note_off_c, 0, 53, 42
1, 87466, Poly_aftertouch_c, 0, 53, 0
1, 87478, Control_c, 0, 64, 43
1, 87494, Note_off_c, 0, 73, 39
1, 87494, Poly_aftertouch_c, 0, 73, 0
1, 87494, Control_c, 0, 64, 9
1, 87514, Control_c, 0, 64, 0
1, 87608, Control_c, 0, 64, 19
1, 87627, Control_c, 0, 64, 31
1, 87645, Control_c, 0, 64, 44
1, 87665, Control_c, 0, 64, 58
1, 87683, Control_c, 0, 64, 72
1, 87702, Control_c, 0, 64, 85
1, 87717, Note_off_c, 0, 72, 49
1, 87719, Control_c, 0, 64, 99
1, 87735, Note_off_c, 0, 56, 38
1, 87737, Control_c, 0, 64, 111
1, 87757, Control_c, 0, 64, 120
1, 87776, Control_c, 0, 64, 125
1, 87777, Control_c, 0, 67, 12
1, 87795, Control_c, 0, 67, 16
1, 87814, Control_c, 0, 67, 23
1, 87832, Control_c, 0, 67, 31
1, 87850, Control_c, 0, 67, 39
1, 87870, Control_c, 0, 67, 47
1, 87887, Control_c, 0, 67, 54
1, 87907, Control_c, 0, 67, 60
1, 87926, Control_c, 0, 67, 64
1, 87942, Note_on_c, 0, 56, 35
1, 87963, Control_c, 0, 67, 69
1, 87974, Note_on_c, 0, 50, 37
1, 88000, Control_c, 0, 67, 75
1, 88019, Control_c, 0, 64, 120
1, 88039, Control_c, 0, 64, 113
1, 88040, Control_c, 0, 67, 81
1, 88057, Control_c, 0, 64, 103
1, 88076, Control_c, 0, 64, 90
1, 88077, Control_c, 0, 67, 87
1, 88097, Control_c, 0, 64, 75
1, 88107, Note_on_c, 0, 65, 48
1, 88110, Note_off_c, 0, 51, 32
1, 88110, Poly_aftertouch_c, 0, 51, 0
1, 88116, Control_c, 0, 64, 60
1, 88132, Control_c, 0, 64, 50
1, 88134, Control_c, 0, 67, 91
1, 88150, Control_c, 0, 64, 42
1, 88206, Control_c, 0, 64, 49
1, 88224, Control_c, 0, 64, 57
1, 88237, Note_off_c, 0, 56, 54
1, 88243, Control_c, 0, 64, 68
1, 88254, Note_on_c, 0, 68, 60
1, 88261, Control_c, 0, 64, 77
1, 88263, Control_c, 0, 67, 86
1, 88281, Control_c, 0, 64, 83
1, 88301, Control_c, 0, 64, 91
1, 88304, Control_c, 0, 67, 81
1, 88319, Control_c, 0, 64, 99
1, 88321, Control_c, 0, 67, 75
1, 88338, Control_c, 0, 64, 108
1, 88339, Control_c, 0, 67, 68
1, 88355, Control_c, 0, 64, 115
1, 88356, Control_c, 0, 67, 59
1, 88375, Control_c, 0, 64, 119
1, 88377, Control_c, 0, 67, 52
1, 88393, Note_on_c, 0, 70, 63
1, 88394, Control_c, 0, 67, 45
1, 88412, Control_c, 0, 67, 38
1, 88430, Control_c, 0, 67, 32
1, 88434, Note_off_c, 0, 65, 30
1, 88450, Control_c, 0, 67, 28
1, 88457, Note_off_c, 0, 50, 35
1, 88576, Note_on_c, 0, 77, 63
1, 88580, Control_c, 0, 64, 114
1, 88597, Note_on_c, 0, 55, 28
1, 88599, Control_c, 0, 64, 110
1, 88607, Note_on_c, 0, 49, 32
1, 88618, Control_c, 0, 64, 104
1, 88636, Control_c, 0, 64, 94
1, 88651, Note_off_c, 0, 68, 36
1, 88656, Control_c, 0, 64, 81
1, 88674, Control_c, 0, 64, 68
1, 88692, Control_c, 0, 64, 56
1, 88709, Note_off_c, 0, 70, 55
1, 88712, Control_c, 0, 64, 46
1, 88730, Control_c, 0, 64, 33
1, 88748, Control_c, 0, 64, 18
1, 88767, Control_c, 0, 64, 11
1, 88805, Control_c, 0, 64, 16
1, 88823, Control_c, 0, 64, 26
1, 88842, Control_c, 0, 64, 37
1, 88860, Control_c, 0, 64, 52
1, 88880, Control_c, 0, 64, 67
1, 88897, Control_c, 0, 64, 79
1, 88917, Control_c, 0, 64, 90
1, 88937, Control_c, 0, 64, 102
1, 88954, Control_c, 0, 64, 112
1, 88955, Note_off_c, 0, 49, 41
1, 88973, Control_c, 0, 64, 120
1, 88983, Note_off_c, 0, 55, 41
1, 88990, Control_c, 0, 64, 124
1, 88991, Control_c, 0, 67, 32
1, 89047, Control_c, 0, 67, 36
1, 89197, Control_c, 0, 64, 119
1, 89216, Note_on_c, 0, 75, 48
1, 89216, Control_c, 0, 64, 110
1, 89231, Note_on_c, 0, 56, 40
1, 89234, Control_c, 0, 64, 95
1, 89245, Note_on_c, 0, 48, 32
1, 89251, Control_c, 0, 64, 77
1, 89272, Control_c, 0, 64, 62
1, 89291, Control_c, 0, 64, 51
1, 89302, Note_off_c, 0, 77, 50
1, 89308, Control_c, 0, 64, 43
1, 89327, Control_c, 0, 64, 41
1, 89347, Control_c, 0, 64, 44
1, 89365, Control_c, 0, 64, 52
1, 89367, Control_c, 0, 67, 32
1, 89384, Control_c, 0, 64, 64
1, 89403, Control_c, 0, 64, 74
1, 89405, Control_c, 0, 67, 28
1, 89423, Control_c, 0, 64, 83
1, 89423, Control_c, 0, 67, 24
1, 89430, Note_off_c, 0, 56, 60
1, 89441, Control_c, 0, 64, 95
1, 89443, Note_off_c, 0, 75, 62
1, 89443, Control_c, 0, 67, 17
1, 89460, Control_c, 0, 64, 111
1, 89461, Control_c, 0, 67, 10
1, 89478, Control_c, 0, 64, 125
1, 89486, Note_off_c, 0, 48, 56
1, 89486, Poly_aftertouch_c, 0, 48, 0
1, 89841, Note_on_c, 0, 41, 50
1, 89908, Control_c, 0, 64, 121
1, 89926, Control_c, 0, 64, 114
1, 89946, Control_c, 0, 64, 105
1, 89964, Control_c, 0, 64, 93
1, 89982, Control_c, 0, 64, 82
1, 90001, Control_c, 0, 64, 72
1, 90008, Note_on_c, 0, 49, 58
1, 90020, Control_c, 0, 64, 64
1, 90038, Control_c, 0, 64, 60
1, 90095, Control_c, 0, 64, 62
1, 90113, Control_c, 0, 64, 66
1, 90132, Control_c, 0, 64, 70
1, 90150, Control_c, 0, 64, 75
1, 90152, Note_on_c, 0, 53, 61
1, 90170, Control_c, 0, 64, 80
1, 90188, Control_c, 0, 64, 86
1, 90192, Control_c, 0, 67, 0
1, 90208, Control_c, 0, 64, 92
1, 90225, Control_c, 0, 64, 97
1, 90226, Note_off_c, 0, 49, 52
1, 90244, Control_c, 0, 64, 102
1, 90263, Control_c, 0, 64, 107
1, 90282, Control_c, 0, 64, 111
1, 90290, Note_on_c, 0, 56, 65
1, 90319, Control_c, 0, 64, 115
1, 90432, Control_c, 0, 64, 111
1, 90436, Note_on_c, 0, 61, 72
1, 90458, Note_on_c, 0, 52, 61
1, 90458, Note_on_c, 0, 58, 62
1, 90465, Note_on_c, 0, 43, 56
1, 90468, Control_c, 0, 64, 105
1, 90488, Control_c, 0, 64, 98
1, 90507, Control_c, 0, 64, 89
1, 90525, Control_c, 0, 64, 78
1, 90533, Note_off_c, 0, 53, 21
1, 90533, Poly_aftertouch_c, 0, 53, 0
1, 90544, Control_c, 0, 64, 67
1, 90563, Control_c, 0, 64, 56
1, 90569, Note_off_c, 0, 56, 50
1, 90581, Control_c, 0, 64, 42
1, 90600, Control_c, 0, 64, 0
1, 90634, Note_off_c, 0, 41, 36
1, 90711, Control_c, 0, 64, 13
1, 90730, Control_c, 0, 64, 27
1, 90749, Control_c, 0, 64, 42
1, 90768, Control_c, 0, 64, 55
1, 90786, Control_c, 0, 64, 68
1, 90805, Control_c, 0, 64, 77
1, 90824, Control_c, 0, 64, 84
1, 90842, Control_c, 0, 64, 93
1, 90861, Control_c, 0, 64, 103
1, 90874, Note_off_c, 0, 61, 34
1, 90878, Control_c, 0, 64, 112
1, 90900, Control_c, 0, 64, 120
1, 90917, Control_c, 0, 64, 127
1, 91073, Note_on_c, 0, 60, 69
1, 91080, Note_on_c, 0, 56, 65
1, 91101, Note_on_c, 0, 51, 57
1, 91110, Note_on_c, 0, 44, 60
1, 91123, Control_c, 0, 64, 111
1, 91127, Note_off_c, 0, 58, 50
1, 91127, Poly_aftertouch_c, 0, 58, 0
1, 91142, Control_c, 0, 64, 93
1, 91158, Note_off_c, 0, 43, 53
1, 91160, Control_c, 0, 64, 73
1, 91179, Control_c, 0, 64, 53
1, 91198, Control_c, 0, 64, 27
1, 91216, Control_c, 0, 64, 0
1, 91249, Note_off_c, 0, 52, 32
1, 91292, Control_c, 0, 64, 25
1, 91310, Control_c, 0, 64, 42
1, 91312, Note_off_c, 0, 51, 55
1, 91312, Poly_aftertouch_c, 0, 51, 0
1, 91328, Control_c, 0, 64, 56
1, 91348, Control_c, 0, 64, 68
1, 91366, Control_c, 0, 64, 75
1, 91385, Control_c, 0, 64, 81
1, 91392, Note_off_c, 0, 60, 49
1, 91392, Poly_aftertouch_c, 0, 60, 0
1, 91404, Control_c, 0, 64, 86
1, 91406, Control_c, 0, 67, 9
1, 91422, Control_c, 0, 64, 92
1, 91441, Control_c, 0, 64, 97
1, 91459, Control_c, 0, 64, 101
1, 91460, Control_c, 0, 67, 15
1, 91465, Note_off_c, 0, 56, 56
1, 91478, Control_c, 0, 67, 20
1, 91498, Control_c, 0, 67, 27
1, 91515, Control_c, 0, 67, 35
1, 91534, Control_c, 0, 67, 43
1, 91554, Control_c, 0, 67, 50
1, 91572, Control_c, 0, 67, 57
1, 91591, Control_c, 0, 67, 63
1, 91609, Control_c, 0, 67, 69
1, 91629, Control_c, 0, 67, 75
1, 91646, Control_c, 0, 67, 80
1, 91666, Control_c, 0, 67, 86
1, 91684, Control_c, 0, 67, 91
1, 91703, Control_c, 0, 64, 97
1, 91722, Control_c, 0, 67, 98
1, 91726, Poly_aftertouch_c, 0, 41, 127
1, 91760, Control_c, 0, 64, 92
1, 91761, Control_c, 0, 67, 102
1, 91778, Note_on_c, 0, 57, 61
1, 91795, Note_on_c, 0, 54, 49
1, 91795, Control_c, 0, 64, 85
1, 91815, Control_c, 0, 64, 82
1, 91817, Note_on_c, 0, 51, 43
1, 91827, Note_on_c, 0, 39, 36
1, 91834, Control_c, 0, 64, 78
1, 91853, Control_c, 0, 64, 75
1, 91855, Control_c, 0, 67, 107
1, 91871, Control_c, 0, 64, 71
1, 91891, Control_c, 0, 64, 68
1, 91909, Control_c, 0, 64, 66
1, 91927, Control_c, 0, 64, 64
1, 91948, Control_c, 0, 64, 60
1, 91965, Control_c, 0, 64, 57
1, 91984, Control_c, 0, 64, 53
1, 91986, Control_c, 0, 67, 111
1, 91993, Note_off_c, 0, 44, 54
1, 91993, Poly_aftertouch_c, 0, 44, 0
1, 92002, Control_c, 0, 64, 49
1, 92021, Control_c, 0, 64, 44
1, 92039, Control_c, 0, 64, 39
1, 92041, Control_c, 0, 67, 117
1, 92058, Control_c, 0, 64, 31
1, 92077, Control_c, 0, 64, 21
1, 92078, Control_c, 0, 67, 121
1, 92095, Control_c, 0, 64, 11
1, 92132, Control_c, 0, 64, 0
1, 92133, Control_c, 0, 67, 125
1, 92285, Poly_aftertouch_c, 0, 41, 0
1, 92504, Note_on_c, 0, 58, 36
1, 92555, Note_on_c, 0, 55, 31
1, 92604, Note_off_c, 0, 54, 49
1, 92629, Note_off_c, 0, 57, 37
1, 92825, Control_c, 0, 64, 25
1, 92844, Control_c, 0, 64, 43
1, 92863, Control_c, 0, 64, 55
1, 92868, Note_off_c, 0, 55, 49
1, 92881, Control_c, 0, 64, 65
1, 92900, Control_c, 0, 64, 72
1, 92918, Control_c, 0, 64, 77
1, 92937, Control_c, 0, 64, 82
1, 92954, Note_off_c, 0, 58, 54
1, 92954, Poly_aftertouch_c, 0, 58, 0
1, 92954, Control_c, 0, 64, 86
1, 92956, Note_off_c, 0, 51, 52
1, 92956, Poly_aftertouch_c, 0, 51, 0
1, 92992, Control_c, 0, 64, 92
1, 93248, Note_off_c, 0, 39, 42
1, 93273, Control_c, 0, 64, 87
1, 93291, Control_c, 0, 64, 85
1, 93296, Note_on_c, 0, 51, 51
1, 93311, Control_c, 0, 64, 83
1, 93329, Control_c, 0, 64, 80
1, 93349, Control_c, 0, 64, 76
1, 93367, Control_c, 0, 64, 71
1, 93386, Control_c, 0, 64, 69
1, 93404, Control_c, 0, 64, 67
1, 93423, Control_c, 0, 64, 65
1, 93442, Control_c, 0, 64, 62
1, 93460, Control_c, 0, 64, 60
1, 93479, Control_c, 0, 64, 57
1, 93498, Control_c, 0, 64, 55
1, 93517, Control_c, 0, 64, 52
1, 93535, Control_c, 0, 64, 50
1, 93554, Control_c, 0, 64, 47
1, 93611, Control_c, 0, 64, 45
1, 93853, Control_c, 0, 67, 121
1, 93950, Note_on_c, 0, 44, 45
1, 93958, Note_on_c, 0, 39, 39
1, 93977, Note_on_c, 0, 32, 42
1, 94059, Control_c, 0, 67, 116
1, 94095, Control_c, 0, 67, 111
1, 94100, Note_on_c, 0, 48, 46
1, 94129, Note_off_c, 0, 51, 35
1, 94129, Poly_aftertouch_c, 0, 51, 0
1, 94132, Control_c, 0, 67, 103
1, 94151, Control_c, 0, 67, 98
1, 94171, Control_c, 0, 67, 91
1, 94190, Control_c, 0, 67, 83
1, 94209, Control_c, 0, 67, 75
1, 94227, Control_c, 0, 67, 68
1, 94245, Control_c, 0, 67, 62
1, 94249, Note_on_c, 0, 51, 64
1, 94264, Control_c, 0, 67, 55
1, 94283, Control_c, 0, 67, 50
1, 94302, Control_c, 0, 67, 45
1, 94321, Control_c, 0, 67, 40
1, 94338, Control_c, 0, 67, 35
1, 94358, Control_c, 0, 67, 30
1, 94377, Control_c, 0, 67, 25
1, 94384, Note_on_c, 0, 56, 62
1, 94396, Control_c, 0, 67, 21
1, 94406, Note_off_c, 0, 48, 31
1, 94406, Poly_aftertouch_c, 0, 48, 0
1, 94433, Control_c, 0, 67, 16
1, 94452, Control_c, 0, 64, 43
1, 94562, Note_on_c, 0, 60, 64
1, 94639, Note_off_c, 0, 51, 39
1, 94639, Poly_aftertouch_c, 0, 51, 0
1, 94747, Note_off_c, 0, 56, 33
1, 94844, Control_c, 0, 67, 20
1, 95050, Control_c, 0, 67, 25
1, 95209, Note_on_c, 0, 56, 47
1, 95387, Control_c, 0, 64, 45
1, 95405, Control_c, 0, 64, 49
1, 95420, Note_off_c, 0, 60, 52
1, 95420, Poly_aftertouch_c, 0, 60, 0
1, 95423, Control_c, 0, 64, 53
1, 95424, Control_c, 0, 67, 29
1, 95443, Control_c, 0, 64, 60
1, 95462, Control_c, 0, 64, 65
1, 95463, Control_c, 0, 67, 36
1, 95481, Control_c, 0, 64, 70
1, 95482, Control_c, 0, 67, 42
1, 95498, Control_c, 0, 64, 74
1, 95499, Control_c, 0, 67, 49
1, 95517, Control_c, 0, 64, 78
1, 95518, Control_c, 0, 67, 56
1, 95537, Control_c, 0, 64, 81
1, 95538, Control_c, 0, 67, 64
1, 95555, Control_c, 0, 64, 84
1, 95557, Control_c, 0, 67, 72
1, 95574, Control_c, 0, 64, 88
1, 95575, Control_c, 0, 67, 78
1, 95584, Note_off_c, 0, 39, 35
1, 95593, Control_c, 0, 67, 84
1, 95596, Note_off_c, 0, 44, 33
1, 95596, Poly_aftertouch_c, 0, 44, 0
1, 95610, Control_c, 0, 67, 90
1, 95631, Control_c, 0, 64, 92
1, 95632, Control_c, 0, 67, 96
1, 95648, Control_c, 0, 67, 103
1, 95667, Control_c, 0, 67, 110
1, 95686, Control_c, 0, 67, 115
1, 95704, Control_c, 0, 67, 119
1, 95724, Control_c, 0, 64, 87
1, 95741, Control_c, 0, 67, 125
1, 95761, Control_c, 0, 64, 84
1, 95823, Note_off_c, 0, 56, 38
1, 95830, Note_on_c, 0, 55, 51
1, 95839, Note_on_c, 0, 46, 40
1, 95853, Control_c, 0, 64, 87
1, 95856, Note_on_c, 0, 39, 36
1, 95864, Note_on_c, 0, 34, 41
1, 95881, Note_off_c, 0, 55, 64
1, 95926, Note_off_c, 0, 32, 54
1, 96016, Note_on_c, 0, 61, 61
1, 96042, Control_c, 0, 64, 85
1, 96078, Control_c, 0, 64, 83
1, 96096, Control_c, 0, 64, 80
1, 96116, Control_c, 0, 64, 78
1, 96134, Control_c, 0, 64, 74
1, 96152, Control_c, 0, 64, 72
1, 96168, Note_on_c, 0, 63, 56
1, 96170, Control_c, 0, 64, 69
1, 96190, Control_c, 0, 64, 67
1, 96209, Control_c, 0, 64, 66
1, 96227, Control_c, 0, 64, 64
1, 96248, Control_c, 0, 64, 62
1, 96266, Control_c, 0, 64, 60
1, 96283, Control_c, 0, 64, 57
1, 96285, Note_off_c, 0, 61, 55
1, 96298, Note_on_c, 0, 67, 52
1, 96303, Control_c, 0, 64, 54
1, 96321, Control_c, 0, 64, 51
1, 96340, Control_c, 0, 64, 46
1, 96359, Control_c, 0, 64, 41
1, 96377, Control_c, 0, 64, 32
1, 96385, Note_off_c, 0, 63, 38
1, 96385, Poly_aftertouch_c, 0, 63, 0
1, 96394, Control_c, 0, 64, 20
1, 96414, Control_c, 0, 64, 9
1, 96433, Control_c, 0, 64, 0
1, 96464, Note_on_c, 0, 73, 64
1, 96620, Control_c, 0, 67, 121
1, 96640, Control_c, 0, 64, 13
1, 96641, Control_c, 0, 67, 117
1, 96653, Note_off_c, 0, 67, 49
1, 96653, Poly_aftertouch_c, 0, 67, 0
1, 96657, Control_c, 0, 64, 18
1, 96658, Control_c, 0, 67, 113
1, 96677, Control_c, 0, 67, 108
1, 96696, Control_c, 0, 64, 26
1, 96697, Control_c, 0, 67, 103
1, 96714, Control_c, 0, 64, 32
1, 96715, Control_c, 0, 67, 97
1, 96733, Control_c, 0, 64, 39
1, 96735, Control_c, 0, 67, 90
1, 96752, Control_c, 0, 64, 43
1, 96753, Control_c, 0, 67, 81
1, 96770, Control_c, 0, 64, 46
1, 96772, Control_c, 0, 67, 72
1, 96789, Control_c, 0, 64, 49
1, 96790, Control_c, 0, 67, 64
1, 96808, Control_c, 0, 64, 52
1, 96809, Control_c, 0, 67, 57
1, 96829, Control_c, 0, 64, 57
1, 96830, Control_c, 0, 67, 50
1, 96845, Control_c, 0, 64, 62
1, 96846, Control_c, 0, 67, 42
1, 96864, Control_c, 0, 64, 64
1, 96865, Control_c, 0, 67, 33
1, 96883, Control_c, 0, 64, 65
1, 96885, Control_c, 0, 67, 22
1, 96901, Control_c, 0, 67, 11
1, 96921, Control_c, 0, 64, 67
1, 96957, Control_c, 0, 64, 70
1, 96975, Control_c, 0, 67, 0
1, 97051, Control_c, 0, 64, 73
1, 97077, Note_on_c, 0, 67, 50
1, 97088, Control_c, 0, 64, 76
1, 97125, Control_c, 0, 64, 80
1, 97144, Control_c, 0, 64, 84
1, 97162, Control_c, 0, 64, 91
1, 97182, Control_c, 0, 64, 99
1, 97200, Control_c, 0, 64, 109
1, 97204, Note_off_c, 0, 73, 62
1, 97204, Poly_aftertouch_c, 0, 73, 0
1, 97219, Control_c, 0, 64, 118
1, 97238, Control_c, 0, 64, 127
1, 97307, Note_off_c, 0, 39, 55
1, 97316, Note_off_c, 0, 34, 37
1, 97331, Note_off_c, 0, 46, 61
1, 97417, Note_off_c, 0, 67, 57
1, 97417, Poly_aftertouch_c, 0, 67, 0
1, 97703, Note_on_c, 0, 68, 63
1, 97731, Note_on_c, 0, 48, 38
1, 97731, Note_on_c, 0, 36, 48
1, 97732, Note_on_c, 0, 39, 40
1, 97745, Note_off_c, 0, 68, 65
1, 97885, Note_on_c, 0, 51, 65
1, 97929, Control_c, 0, 64, 121
1, 97949, Control_c, 0, 64, 116
1, 97966, Control_c, 0, 64, 111
1, 97986, Control_c, 0, 64, 103
1, 98004, Control_c, 0, 64, 96
1, 98023, Note_on_c, 0, 56, 67
1, 98024, Control_c, 0, 64, 90
1, 98042, Control_c, 0, 64, 83
1, 98060, Control_c, 0, 64, 74
1, 98066, Note_off_c, 0, 51, 57
1, 98066, Poly_aftertouch_c, 0, 51, 0
1, 98079, Control_c, 0, 64, 60
1, 98097, Control_c, 0, 64, 42
1, 98116, Control_c, 0, 64, 0
1, 98161, Note_on_c, 0, 60, 69
1, 98210, Control_c, 0, 64, 20
1, 98228, Control_c, 0, 64, 37
1, 98247, Control_c, 0, 64, 48
1, 98266, Control_c, 0, 64, 55
1, 98285, Control_c, 0, 64, 62
1, 98288, Note_off_c, 0, 36, 57
1, 98303, Control_c, 0, 64, 69
1, 98314, Note_on_c, 0, 63, 68
1, 98322, Control_c, 0, 64, 75
1, 98334, Note_on_c, 0, 51, 59
1, 98341, Control_c, 0, 64, 81
1, 98349, Note_off_c, 0, 39, 59
1, 98359, Control_c, 0, 64, 89
1, 98378, Control_c, 0, 64, 97
1, 98397, Control_c, 0, 64, 107
1, 98416, Note_off_c, 0, 48, 44
1, 98416, Poly_aftertouch_c, 0, 48, 0
1, 98416, Control_c, 0, 64, 117
1, 98434, Control_c, 0, 64, 126
1, 98460, Note_off_c, 0, 56, 26
1, 98514, Note_off_c, 0, 51, 44
1, 98514, Poly_aftertouch_c, 0, 51, 0
1, 98579, Note_off_c, 0, 63, 51
1, 98579, Poly_aftertouch_c, 0, 63, 0
1, 98677, Note_off_c, 0, 60, 36
1, 98677, Poly_aftertouch_c, 0, 60, 0
1, 98708, Note_on_c, 0, 63, 79
1, 98725, Note_on_c, 0, 51, 58
1, 98802, Note_off_c, 0, 63, 56
1, 98802, Poly_aftertouch_c, 0, 63, 0
1, 98835, Note_off_c, 0, 51, 50
1, 98835, Poly_aftertouch_c, 0, 51, 0
1, 99018, Note_on_c, 0, 63, 82
1, 99029, Note_on_c, 0, 51, 62
1, 99032, Control_c, 0, 64, 120
1, 99041, Note_on_c, 0, 43, 59
1, 99043, Note_on_c, 0, 58, 69
1, 99051, Control_c, 0, 64, 108
1, 99070, Control_c, 0, 64, 91
1, 99090, Control_c, 0, 64, 71
1, 99107, Control_c, 0, 64, 54
1, 99126, Control_c, 0, 64, 39
1, 99145, Control_c, 0, 64, 24
1, 99163, Control_c, 0, 64, 17
1, 99201, Control_c, 0, 64, 29
1, 99208, Note_off_c, 0, 51, 51
1, 99208, Poly_aftertouch_c, 0, 51, 0
1, 99220, Control_c, 0, 64, 42
1, 99232, Note_off_c, 0, 63, 58
1, 99232, Poly_aftertouch_c, 0, 63, 0
1, 99237, Control_c, 0, 64, 57
1, 99257, Control_c, 0, 64, 69
1, 99275, Control_c, 0, 64, 75
1, 99295, Control_c, 0, 64, 78
1, 99313, Control_c, 0, 64, 83
1, 99332, Control_c, 0, 64, 90
1, 99350, Control_c, 0, 64, 99
1, 99353, Note_on_c, 0, 63, 76
1, 99364, Note_on_c, 0, 51, 57
1, 99368, Control_c, 0, 64, 106
1, 99407, Control_c, 0, 64, 111
1, 99425, Note_off_c, 0, 58, 50
1, 99425, Note_off_c, 0, 63, 59
1, 99425, Poly_aftertouch_c, 0, 58, 0
1, 99425, Poly_aftertouch_c, 0, 63, 0
1, 99452, Note_off_c, 0, 51, 48
1, 99452, Poly_aftertouch_c, 0, 51, 0
1, 99538, Control_c, 0, 64, 115
1, 99579, Note_off_c, 0, 43, 36
1, 99659, Note_on_c, 0, 63, 69
1, 99666, Note_on_c, 0, 61, 66
1, 99666, Control_c, 0, 64, 111
1, 99670, Note_on_c, 0, 51, 59
1, 99678, Note_on_c, 0, 56, 62
1, 99690, Note_on_c, 0, 44, 51
1, 99705, Control_c, 0, 64, 102
1, 99724, Control_c, 0, 64, 95
1, 99743, Control_c, 0, 64, 83
1, 99762, Control_c, 0, 64, 68
1, 99780, Control_c, 0, 64, 51
1, 99799, Control_c, 0, 64, 29
1, 99818, Control_c, 0, 64, 0
1, 99911, Control_c, 0, 64, 8
1, 99930, Control_c, 0, 64, 26
1, 99949, Control_c, 0, 64, 39
1, 99968, Control_c, 0, 64, 50
1, 99978, Note_on_c, 0, 60, 54
1, 99985, Control_c, 0, 64, 60
1, 100005, Control_c, 0, 64, 69
1, 100024, Control_c, 0, 64, 76
1, 100028, Note_off_c, 0, 63, 60
1, 100028, Poly_aftertouch_c, 0, 63, 0
1, 100042, Control_c, 0, 64, 83
1, 100045, Note_off_c, 0, 56, 63
1, 100061, Control_c, 0, 64, 87
1, 100062, Note_off_c, 0, 51, 56
1, 100062, Poly_aftertouch_c, 0, 51, 0
1, 100146, Note_off_c, 0, 61, 25
1, 100285, Control_c, 0, 64, 85
1, 100304, Control_c, 0, 64, 83
1, 100311, Note_off_c, 0, 60, 26
1, 100311, Note_on_c, 0, 63, 59
1, 100311, Poly_aftertouch_c, 0, 60, 0
1, 100323, Control_c, 0, 64, 80
1, 100334, Note_on_c, 0, 58, 42
1, 100342, Control_c, 0, 64, 76
1, 100343, Note_on_c, 0, 55, 43
1, 100355, Note_on_c, 0, 51, 38
1, 100360, Control_c, 0, 64, 69
1, 100363, Note_on_c, 0, 39, 38
1, 100379, Control_c, 0, 64, 61
1, 100397, Control_c, 0, 64, 52
1, 100417, Control_c, 0, 64, 34
1, 100428, Note_off_c, 0, 44, 47
1, 100428, Poly_aftertouch_c, 0, 44, 0
1, 100435, Control_c, 0, 64, 0
1, 100584, Control_c, 0, 64, 22
1, 100603, Control_c, 0, 64, 40
1, 100622, Control_c, 0, 64, 53
1, 100640, Control_c, 0, 64, 64
1, 100659, Control_c, 0, 64, 73
1, 100678, Control_c, 0, 64, 81
1, 100697, Control_c, 0, 64, 89
1, 100715, Control_c, 0, 64, 97
1, 100734, Control_c, 0, 64, 104
1, 100743, Note_off_c, 0, 55, 35
1, 100754, Control_c, 0, 64, 109
1, 100765, Note_off_c, 0, 63, 56
1, 100765, Poly_aftertouch_c, 0, 63, 0
1, 100789, Control_c, 0, 64, 115
1, 100791, Note_off_c, 0, 58, 60
1, 100791, Poly_aftertouch_c, 0, 58, 0
1, 100823, Poly_aftertouch_c, 0, 61, 127
1, 100836, Note_off_c, 0, 39, 40
1, 100860, Poly_aftertouch_c, 0, 61, 0
1, 100914, Note_off_c, 0, 51, 35
1, 100914, Poly_aftertouch_c, 0, 51, 0
1, 100996, Control_c, 0, 64, 110
1, 101032, Control_c, 0, 64, 105
1, 101033, Note_on_c, 0, 60, 56
1, 101070, Control_c, 0, 64, 97
1, 101082, Note_on_c, 0, 58, 55
1, 101090, Control_c, 0, 64, 91
1, 101108, Control_c, 0, 64, 83
1, 101126, Control_c, 0, 64, 73
1, 101145, Control_c, 0, 64, 61
1, 101163, Note_off_c, 0, 60, 56
1, 101163, Poly_aftertouch_c, 0, 60, 0
1, 101163, Control_c, 0, 64, 49
1, 101182, Control_c, 0, 64, 30
1, 101202, Control_c, 0, 64, 0
1, 101269, Note_on_c, 0, 57, 63
1, 101285, Note_off_c, 0, 58, 54
1, 101285, Poly_aftertouch_c, 0, 58, 0
1, 101313, Control_c, 0, 64, 22
1, 101332, Control_c, 0, 64, 41
1, 101351, Control_c, 0, 64, 55
1, 101370, Control_c, 0, 64, 66
1, 101388, Control_c, 0, 64, 71
1, 101407, Control_c, 0, 64, 74
1, 101415, Note_on_c, 0, 58, 72
1, 101426, Control_c, 0, 64, 76
1, 101472, Note_off_c, 0, 57, 51
1, 101482, Control_c, 0, 64, 78
1, 101542, Note_on_c, 0, 60, 65
1, 101576, Control_c, 0, 64, 74
1, 101583, Note_off_c, 0, 58, 57
1, 101583, Poly_aftertouch_c, 0, 58, 0
1, 101594, Control_c, 0, 64, 69
1, 101613, Control_c, 0, 64, 59
1, 101632, Control_c, 0, 64, 46
1, 101650, Control_c, 0, 64, 25
1, 101668, Control_c, 0, 64, 0
1, 101673, Note_off_c, 0, 60, 63
1, 101673, Poly_aftertouch_c, 0, 60, 0
1, 101682, Note_on_c, 0, 41, 54
1, 101695, Note_on_c, 0, 61, 63
1, 101707, Control_c, 0, 64, 18
1, 101725, Control_c, 0, 64, 34
1, 101744, Control_c, 0, 64, 50
1, 101762, Control_c, 0, 64, 63
1, 101773, Note_off_c, 0, 61, 65
1, 101781, Control_c, 0, 64, 71
1, 101800, Control_c, 0, 64, 74
1, 101838, Control_c, 0, 64, 77
1, 101846, Note_on_c, 0, 61, 54
1, 101875, Control_c, 0, 64, 81
1, 101889, Note_off_c, 0, 41, 59
1, 101893, Control_c, 0, 64, 83
1, 101913, Control_c, 0, 64, 86
1, 101949, Control_c, 0, 64, 92
1, 101987, Control_c, 0, 64, 98
1, 102001, Note_on_c, 0, 65, 71
1, 102024, Control_c, 0, 64, 102
1, 102081, Control_c, 0, 64, 107
1, 102131, Note_on_c, 0, 68, 71
1, 102207, Note_off_c, 0, 61, 44
1, 102287, Control_c, 0, 64, 101
1, 102300, Note_on_c, 0, 73, 72
1, 102306, Control_c, 0, 64, 96
1, 102323, Note_on_c, 0, 53, 46
1, 102324, Control_c, 0, 64, 87
1, 102329, Note_on_c, 0, 56, 47
1, 102337, Note_off_c, 0, 65, 29
1, 102341, Control_c, 0, 64, 74
1, 102361, Control_c, 0, 64, 61
1, 102380, Control_c, 0, 64, 47
1, 102398, Control_c, 0, 64, 12
1, 102416, Control_c, 0, 64, 0
1, 102522, Note_off_c, 0, 68, 55
1, 102586, Control_c, 0, 64, 29
1, 102603, Control_c, 0, 64, 47
1, 102622, Control_c, 0, 64, 62
1, 102641, Control_c, 0, 64, 73
1, 102649, Note_off_c, 0, 56, 48
1, 102659, Control_c, 0, 64, 80
1, 102679, Control_c, 0, 64, 86
1, 102697, Control_c, 0, 64, 93
1, 102717, Control_c, 0, 64, 101
1, 102734, Control_c, 0, 64, 107
1, 102754, Control_c, 0, 64, 113
1, 102791, Control_c, 0, 64, 119
1, 102941, Note_on_c, 0, 72, 56
1, 102941, Control_c, 0, 64, 115
1, 102959, Control_c, 0, 64, 111
1, 102967, Note_on_c, 0, 51, 38
1, 102973, Note_on_c, 0, 56, 43
1, 102978, Control_c, 0, 64, 104
1, 102996, Control_c, 0, 64, 93
1, 103015, Control_c, 0, 64, 79
1, 103035, Control_c, 0, 64, 63
1, 103053, Control_c, 0, 64, 46
1, 103069, Note_off_c, 0, 53, 43
1, 103069, Poly_aftertouch_c, 0, 53, 0
1, 103071, Control_c, 0, 64, 17
1, 103090, Control_c, 0, 64, 0
1, 103118, Note_off_c, 0, 73, 34
1, 103118, Poly_aftertouch_c, 0, 73, 0
1, 103201, Control_c, 0, 64, 26
1, 103221, Control_c, 0, 64, 44
1, 103240, Control_c, 0, 64, 61
1, 103255, Note_off_c, 0, 72, 59
1, 103259, Control_c, 0, 64, 75
1, 103277, Control_c, 0, 64, 86
1, 103296, Control_c, 0, 64, 96
1, 103315, Control_c, 0, 64, 104
1, 103325, Note_off_c, 0, 56, 37
1, 103332, Control_c, 0, 64, 109
1, 103390, Control_c, 0, 64, 113
1, 103427, Control_c, 0, 67, 8
1, 103501, Control_c, 0, 67, 12
1, 103538, Control_c, 0, 67, 17
1, 103576, Control_c, 0, 67, 23
1, 103604, Note_on_c, 0, 50, 38
1, 103604, Note_on_c, 0, 56, 42
1, 103651, Control_c, 0, 64, 107
1, 103670, Control_c, 0, 64, 103
1, 103688, Control_c, 0, 64, 94
1, 103707, Control_c, 0, 64, 82
1, 103726, Control_c, 0, 64, 66
1, 103734, Note_on_c, 0, 77, 56
1, 103735, Note_off_c, 0, 51, 30
1, 103735, Poly_aftertouch_c, 0, 51, 0
1, 103746, Control_c, 0, 64, 53
1, 103763, Control_c, 0, 64, 42
1, 103783, Control_c, 0, 64, 36
1, 103820, Control_c, 0, 64, 43
1, 103821, Control_c, 0, 67, 18
1, 103838, Control_c, 0, 64, 53
1, 103839, Control_c, 0, 67, 13
1, 103857, Control_c, 0, 64, 65
1, 103872, Note_off_c, 0, 56, 59
1, 103875, Control_c, 0, 64, 74
1, 103895, Control_c, 0, 64, 80
1, 103899, Note_on_c, 0, 80, 59
1, 103913, Control_c, 0, 64, 85
1, 103932, Control_c, 0, 64, 93
1, 103933, Control_c, 0, 67, 0
1, 103950, Control_c, 0, 64, 102
1, 103969, Control_c, 0, 64, 112
1, 103990, Control_c, 0, 64, 120
1, 104006, Control_c, 0, 64, 125
1, 104041, Note_on_c, 0, 82, 72
1, 104077, Note_off_c, 0, 77, 35
1, 104162, Note_off_c, 0, 50, 31
1, 104217, Note_on_c, 0, 89, 66
1, 104230, Note_on_c, 0, 55, 40
1, 104241, Note_on_c, 0, 49, 37
1, 104248, Control_c, 0, 64, 119
1, 104268, Control_c, 0, 64, 114
1, 104287, Control_c, 0, 64, 105
1, 104303, Note_off_c, 0, 80, 38
1, 104305, Control_c, 0, 64, 89
1, 104325, Control_c, 0, 64, 73
1, 104344, Control_c, 0, 64, 60
1, 104346, Note_off_c, 0, 82, 63
1, 104362, Control_c, 0, 64, 51
1, 104381, Control_c, 0, 64, 46
1, 104383, Control_c, 0, 67, 8
1, 104399, Control_c, 0, 64, 44
1, 104417, Control_c, 0, 64, 46
1, 104437, Control_c, 0, 64, 51
1, 104438, Control_c, 0, 67, 13
1, 104456, Control_c, 0, 64, 60
1, 104474, Control_c, 0, 64, 70
1, 104475, Control_c, 0, 67, 18
1, 104492, Control_c, 0, 64, 78
1, 104511, Control_c, 0, 64, 84
1, 104515, Control_c, 0, 67, 26
1, 104530, Control_c, 0, 64, 91
1, 104530, Control_c, 0, 67, 31
1, 104550, Control_c, 0, 64, 100
1, 104551, Control_c, 0, 67, 37
1, 104568, Control_c, 0, 64, 109
1, 104569, Control_c, 0, 67, 43
1, 104586, Control_c, 0, 64, 117
1, 104588, Control_c, 0, 67, 49
1, 104606, Control_c, 0, 64, 121
1, 104607, Control_c, 0, 67, 55
1, 104622, Control_c, 0, 67, 61
1, 104639, Note_off_c, 0, 55, 37
1, 104642, Control_c, 0, 64, 125
1, 104644, Note_off_c, 0, 49, 35
1, 104644, Control_c, 0, 67, 67
1, 104661, Control_c, 0, 67, 72
1, 104679, Control_c, 0, 67, 77
1, 104698, Control_c, 0, 67, 82
1, 104717, Control_c, 0, 67, 86
1, 104736, Control_c, 0, 67, 90
1, 104754, Control_c, 0, 67, 95
1, 104792, Control_c, 0, 67, 102
1, 104829, Control_c, 0, 67, 107
1, 104866, Control_c, 0, 67, 111
1, 104872, Note_on_c, 0, 87, 53
1, 104884, Control_c, 0, 64, 120
1, 104897, Note_on_c, 0, 56, 39
1, 104902, Control_c, 0, 67, 115
1, 104922, Control_c, 0, 64, 115
1, 104931, Note_on_c, 0, 48, 32
1, 104940, Control_c, 0, 64, 111
1, 104960, Control_c, 0, 64, 103
1, 104979, Control_c, 0, 64, 93
1, 104980, Control_c, 0, 67, 119
1, 104998, Control_c, 0, 64, 80
1, 105005, Note_off_c, 0, 89, 47
1, 105017, Control_c, 0, 64, 66
1, 105035, Control_c, 0, 64, 51
1, 105036, Control_c, 0, 67, 123
1, 105053, Control_c, 0, 64, 25
1, 105073, Control_c, 0, 64, 0
1, 105090, Control_c, 0, 67, 127
1, 105147, Control_c, 0, 64, 12
1, 105165, Control_c, 0, 64, 28
1, 105185, Control_c, 0, 64, 44
1, 105203, Control_c, 0, 64, 58
1, 105222, Control_c, 0, 64, 71
1, 105240, Control_c, 0, 64, 81
1, 105250, Note_off_c, 0, 87, 62
1, 105259, Control_c, 0, 64, 91
1, 105277, Control_c, 0, 64, 101
1, 105291, Note_off_c, 0, 56, 59
1, 105295, Control_c, 0, 64, 110
1, 105315, Control_c, 0, 64, 117
1, 105334, Control_c, 0, 64, 122
1, 105391, Control_c, 0, 64, 126
1, 105597, Control_c, 0, 64, 122
1, 105652, Control_c, 0, 64, 117
1, 105689, Control_c, 0, 64, 112
1, 105710, Note_on_c, 0, 51, 32
1, 105727, Control_c, 0, 64, 106
1, 105764, Control_c, 0, 64, 98
1, 105783, Control_c, 0, 64, 93
1, 105802, Control_c, 0, 64, 88
1, 105820, Control_c, 0, 64, 83
1, 105832, Note_off_c, 0, 48, 42
1, 105832, Poly_aftertouch_c, 0, 48, 0
1, 105839, Control_c, 0, 64, 79
1, 105858, Control_c, 0, 64, 75
1, 105875, Control_c, 0, 64, 71
1, 105877, Note_on_c, 0, 60, 40
1, 105895, Control_c, 0, 64, 67
1, 105914, Control_c, 0, 64, 64
1, 105933, Control_c, 0, 64, 62
1, 105951, Control_c, 0, 64, 60
1, 105990, Control_c, 0, 64, 56
1, 106026, Note_on_c, 0, 63, 41
1, 106026, Control_c, 0, 64, 53
1, 106044, Control_c, 0, 64, 51
1, 106064, Control_c, 0, 64, 48
1, 106081, Control_c, 0, 64, 44
1, 106100, Control_c, 0, 64, 41
1, 106139, Control_c, 0, 64, 35
1, 106174, Note_on_c, 0, 68, 42
1, 106175, Control_c, 0, 64, 31
1, 106231, Control_c, 0, 64, 27
1, 106313, Note_off_c, 0, 60, 30
1, 106313, Poly_aftertouch_c, 0, 60, 0
1, 106358, Note_on_c, 0, 72, 55
1, 106400, Control_c, 0, 64, 35
1, 106418, Control_c, 0, 64, 40
1, 106437, Control_c, 0, 64, 46
1, 106444, Note_off_c, 0, 63, 46
1, 106444, Poly_aftertouch_c, 0, 63, 0
1, 106456, Control_c, 0, 64, 54
1, 106475, Control_c, 0, 64, 61
1, 106492, Control_c, 0, 64, 67
1, 106512, Control_c, 0, 64, 72
1, 106530, Control_c, 0, 64, 76
1, 106549, Control_c, 0, 64, 79
1, 106567, Control_c, 0, 64, 83
1, 106587, Control_c, 0, 64, 88
1, 106606, Control_c, 0, 64, 92
1, 106613, Note_off_c, 0, 68, 36
1, 106624, Control_c, 0, 64, 97
1, 106643, Control_c, 0, 64, 101
1, 106662, Control_c, 0, 64, 105
1, 106700, Control_c, 0, 64, 111
1, 106960, Control_c, 0, 64, 105
1, 106999, Control_c, 0, 64, 97
1, 107002, Note_on_c, 0, 67, 33
1, 107017, Control_c, 0, 64, 90
1, 107021, Note_on_c, 0, 61, 31
1, 107029, Note_on_c, 0, 39, 37
1, 107036, Control_c, 0, 64, 83
1, 107054, Control_c, 0, 64, 75
1, 107073, Control_c, 0, 64, 69
1, 107091, Control_c, 0, 64, 65
1, 107110, Control_c, 0, 64, 61
1, 107165, Control_c, 0, 64, 63
1, 107186, Control_c, 0, 64, 66
1, 107196, Note_off_c, 0, 51, 40
1, 107196, Poly_aftertouch_c, 0, 51, 0
1, 107203, Control_c, 0, 64, 70
1, 107222, Control_c, 0, 64, 73
1, 107241, Control_c, 0, 64, 77
1, 107259, Control_c, 0, 64, 80
1, 107279, Control_c, 0, 64, 85
1, 107297, Control_c, 0, 64, 89
1, 107323, Note_on_c, 0, 70, 40
1, 107338, Note_off_c, 0, 67, 41
1, 107338, Poly_aftertouch_c, 0, 67, 0
1, 107353, Control_c, 0, 64, 93
1, 107366, Note_off_c, 0, 61, 43
1, 107418, Note_off_c, 0, 72, 29
1, 107559, Control_c, 0, 64, 88
1, 107596, Control_c, 0, 64, 83
1, 107616, Control_c, 0, 64, 79
1, 107626, Note_off_c, 0, 39, 35
1, 107632, Note_on_c, 0, 68, 41
1, 107634, Control_c, 0, 64, 75
1, 107652, Control_c, 0, 64, 72
1, 107665, Note_off_c, 0, 70, 32
1, 107665, Note_on_c, 0, 44, 31
1, 107669, Note_on_c, 0, 60, 34
1, 107671, Control_c, 0, 64, 69
1, 107690, Control_c, 0, 64, 66
1, 107709, Control_c, 0, 64, 63
1, 107727, Control_c, 0, 64, 59
1, 107746, Control_c, 0, 64, 54
1, 107765, Control_c, 0, 64, 44
1, 107783, Control_c, 0, 64, 29
1, 107801, Control_c, 0, 64, 0
1, 107829, Note_off_c, 0, 44, 54
1, 107829, Poly_aftertouch_c, 0, 44, 0
1, 108337, Note_on_c, 0, 32, 28
1, 108390, Note_off_c, 0, 60, 36
1, 108390, Poly_aftertouch_c, 0, 60, 0
1, 108420, Control_c, 0, 64, 11
1, 108437, Control_c, 0, 64, 30
1, 108457, Control_c, 0, 64, 45
1, 108475, Control_c, 0, 64, 57
1, 108490, Note_off_c, 0, 32, 57
1, 108494, Control_c, 0, 64, 65
1, 108512, Control_c, 0, 64, 70
1, 108513, Note_off_c, 0, 68, 60
1, 108531, Control_c, 0, 64, 74
1, 108551, Control_c, 0, 64, 78
1, 108568, Control_c, 0, 64, 83
1, 108588, Control_c, 0, 64, 87
1, 108626, Control_c, 0, 64, 94
1, 108663, Control_c, 0, 64, 101
1, 108700, Control_c, 0, 64, 105
1, 108887, Control_c, 0, 64, 100
1, 108924, Control_c, 0, 64, 96
1, 108962, Control_c, 0, 64, 90
1, 108979, Control_c, 0, 64, 87
1, 108999, Control_c, 0, 64, 84
1, 109018, Control_c, 0, 64, 81
1, 109055, Control_c, 0, 64, 78
1, 109073, Control_c, 0, 67, 121
1, 109093, Control_c, 0, 67, 113
1, 109110, Control_c, 0, 64, 75
1, 109111, Control_c, 0, 67, 102
1, 109130, Control_c, 0, 67, 92
1, 109145, Note_on_c, 0, 65, 63
1, 109148, Control_c, 0, 64, 73
1, 109149, Control_c, 0, 67, 87
1, 109186, Control_c, 0, 64, 71
1, 109187, Control_c, 0, 67, 77
1, 109205, Control_c, 0, 64, 69
1, 109206, Control_c, 0, 67, 66
1, 109225, Control_c, 0, 64, 67
1, 109226, Control_c, 0, 67, 51
1, 109241, Control_c, 0, 64, 66
1, 109243, Control_c, 0, 67, 35
1, 109261, Control_c, 0, 64, 64
1, 109262, Control_c, 0, 67, 22
1, 109280, Control_c, 0, 64, 61
1, 109281, Control_c, 0, 67, 14
1, 109298, Control_c, 0, 64, 59
1, 109299, Control_c, 0, 67, 9
1, 109317, Control_c, 0, 64, 56
1, 109335, Control_c, 0, 64, 51
1, 109354, Control_c, 0, 64, 44
1, 109374, Control_c, 0, 64, 34
1, 109391, Control_c, 0, 64, 20
1, 109447, Control_c, 0, 64, 9
1, 109466, Control_c, 0, 64, 16
1, 109485, Control_c, 0, 64, 24
1, 109503, Control_c, 0, 64, 31
1, 109522, Control_c, 0, 64, 39
1, 109541, Control_c, 0, 64, 49
1, 109560, Control_c, 0, 64, 56
1, 109578, Control_c, 0, 64, 63
1, 109597, Control_c, 0, 64, 66
1, 109616, Control_c, 0, 64, 69
1, 109635, Control_c, 0, 64, 71
1, 109653, Control_c, 0, 64, 73
1, 109671, Control_c, 0, 64, 76
1, 109691, Control_c, 0, 64, 79
1, 109709, Control_c, 0, 64, 81
1, 109728, Control_c, 0, 64, 83
1, 109749, Control_c, 0, 64, 85
1, 109784, Control_c, 0, 64, 92
1, 109822, Control_c, 0, 64, 97
1, 109841, Poly_aftertouch_c, 0, 65, 24
1, 109927, Note_on_c, 0, 72, 47
1, 109943, Note_on_c, 0, 69, 35
1, 109950, Note_off_c, 0, 65, 19
1, 109950, Poly_aftertouch_c, 0, 65, 0
1, 110088, Note_on_c, 0, 53, 48
1, 110234, Note_on_c, 0, 57, 59
1, 110248, Note_off_c, 0, 53, 51
1, 110248, Poly_aftertouch_c, 0, 53, 0
1, 110356, Note_off_c, 0, 57, 61
1, 110363, Control_c, 0, 64, 92
1, 110365, Note_on_c, 0, 60, 66
1, 110476, Control_c, 0, 64, 88
1, 110506, Note_off_c, 0, 60, 61
1, 110506, Poly_aftertouch_c, 0, 60, 0
1, 110513, Control_c, 0, 64, 85
1, 110528, Note_on_c, 0, 70, 60
1, 110531, Note_on_c, 0, 65, 68
1, 110545, Note_on_c, 0, 67, 48
1, 110550, Control_c, 0, 64, 82
1, 110570, Control_c, 0, 64, 79
1, 110588, Control_c, 0, 64, 77
1, 110606, Control_c, 0, 64, 75
1, 110626, Control_c, 0, 64, 72
1, 110644, Control_c, 0, 64, 68
1, 110651, Note_off_c, 0, 69, 39
1, 110662, Control_c, 0, 64, 65
1, 110683, Control_c, 0, 64, 61
1, 110686, Note_off_c, 0, 72, 46
1, 110700, Control_c, 0, 64, 56
1, 110719, Control_c, 0, 64, 47
1, 110738, Control_c, 0, 64, 25
1, 110756, Control_c, 0, 64, 0
1, 110812, Control_c, 0, 67, 0
1, 110888, Control_c, 0, 64, 22
1, 110906, Control_c, 0, 64, 39
1, 110924, Control_c, 0, 64, 52
1, 110943, Control_c, 0, 64, 61
1, 110962, Control_c, 0, 64, 68
1, 110981, Control_c, 0, 64, 70
1, 111018, Control_c, 0, 64, 73
1, 111055, Control_c, 0, 64, 75
1, 111135, Note_off_c, 0, 67, 55
1, 111135, Poly_aftertouch_c, 0, 67, 0
1, 111151, Note_on_c, 0, 72, 59
1, 111177, Note_on_c, 0, 69, 50
1, 111187, Control_c, 0, 64, 72
1, 111205, Control_c, 0, 64, 68
1, 111224, Control_c, 0, 64, 63
1, 111243, Control_c, 0, 64, 55
1, 111261, Control_c, 0, 64, 42
1, 111281, Control_c, 0, 64, 14
1, 111293, Note_off_c, 0, 70, 52
1, 111299, Control_c, 0, 64, 0
1, 111430, Control_c, 0, 64, 22
1, 111445, Note_on_c, 0, 63, 56
1, 111449, Control_c, 0, 64, 41
1, 111466, Control_c, 0, 64, 55
1, 111485, Control_c, 0, 64, 67
1, 111505, Control_c, 0, 64, 75
1, 111522, Control_c, 0, 64, 82
1, 111542, Control_c, 0, 64, 91
1, 111544, Note_off_c, 0, 65, 38
1, 111544, Poly_aftertouch_c, 0, 65, 0
1, 111557, Note_off_c, 0, 63, 53
1, 111557, Poly_aftertouch_c, 0, 63, 0
1, 111559, Control_c, 0, 64, 102
1, 111579, Control_c, 0, 64, 113
1, 111598, Control_c, 0, 64, 123
1, 111616, Control_c, 0, 64, 127
1, 111756, Note_on_c, 0, 73, 55
1, 111783, Note_on_c, 0, 63, 47
1, 111784, Note_on_c, 0, 70, 42
1, 111785, Control_c, 0, 64, 118
1, 111803, Control_c, 0, 64, 110
1, 111816, Note_off_c, 0, 72, 32
1, 111822, Control_c, 0, 64, 102
1, 111841, Control_c, 0, 64, 94
1, 111860, Control_c, 0, 64, 88
1, 111878, Control_c, 0, 64, 85
1, 111879, Control_c, 0, 67, 8
1, 111916, Control_c, 0, 64, 83
1, 111936, Note_off_c, 0, 63, 54
1, 111936, Poly_aftertouch_c, 0, 63, 0
1, 111942, Note_on_c, 0, 61, 62
1, 111953, Control_c, 0, 67, 12
1, 111972, Control_c, 0, 64, 80
1, 112005, Note_off_c, 0, 69, 34
1, 112008, Control_c, 0, 64, 78
1, 112028, Control_c, 0, 67, 16
1, 112034, Note_off_c, 0, 61, 59
1, 112048, Control_c, 0, 64, 75
1, 112065, Control_c, 0, 64, 73
1, 112066, Control_c, 0, 67, 24
1, 112083, Note_on_c, 0, 60, 52
1, 112083, Control_c, 0, 67, 28
1, 112102, Control_c, 0, 67, 33
1, 112121, Control_c, 0, 67, 39
1, 112141, Control_c, 0, 64, 71
1, 112141, Control_c, 0, 67, 45
1, 112159, Control_c, 0, 67, 51
1, 112178, Control_c, 0, 67, 55
1, 112187, Note_off_c, 0, 73, 56
1, 112187, Poly_aftertouch_c, 0, 73, 0
1, 112195, Control_c, 0, 67, 60
1, 112215, Control_c, 0, 67, 65
1, 112228, Note_on_c, 0, 58, 59
1, 112231, Note_off_c, 0, 60, 56
1, 112231, Poly_aftertouch_c, 0, 60, 0
1, 112235, Control_c, 0, 67, 71
1, 112253, Control_c, 0, 64, 69
1, 112255, Control_c, 0, 67, 76
1, 112270, Control_c, 0, 67, 81
1, 112290, Control_c, 0, 67, 86
1, 112308, Control_c, 0, 64, 68
1, 112310, Control_c, 0, 67, 90
1, 112327, Control_c, 0, 64, 67
1, 112328, Control_c, 0, 67, 94
1, 112347, Control_c, 0, 64, 66
1, 112364, Note_off_c, 0, 58, 51
1, 112364, Poly_aftertouch_c, 0, 58, 0
1, 112364, Control_c, 0, 64, 65
1, 112365, Control_c, 0, 67, 100
1, 112373, Note_on_c, 0, 77, 54
1, 112377, Note_on_c, 0, 57, 45
1, 112378, Note_on_c, 0, 73, 43
1, 112382, Control_c, 0, 64, 64
1, 112384, Control_c, 0, 67, 104
1, 112402, Control_c, 0, 67, 108
1, 112420, Control_c, 0, 64, 63
1, 112440, Control_c, 0, 64, 62
1, 112442, Control_c, 0, 67, 115
1, 112477, Control_c, 0, 64, 61
1, 112478, Control_c, 0, 67, 119
1, 112488, Note_off_c, 0, 57, 60
1, 112506, Note_on_c, 0, 58, 58
1, 112533, Control_c, 0, 67, 124
1, 112614, Note_off_c, 0, 58, 61
1, 112614, Poly_aftertouch_c, 0, 58, 0
1, 112661, Note_on_c, 0, 61, 54
1, 112747, Note_off_c, 0, 61, 58
1, 112776, Control_c, 0, 64, 57
1, 112789, Note_on_c, 0, 58, 56
1, 112813, Control_c, 0, 64, 53
1, 112833, Control_c, 0, 64, 49
1, 112851, Control_c, 0, 64, 42
1, 112869, Control_c, 0, 64, 35
1, 112878, Note_off_c, 0, 70, 38
1, 112888, Control_c, 0, 64, 28
1, 112952, Note_off_c, 0, 77, 51
1, 112963, Control_c, 0, 64, 38
1, 112973, Note_off_c, 0, 58, 56
1, 112973, Poly_aftertouch_c, 0, 58, 0
1, 112975, Note_on_c, 0, 46, 47
1, 112982, Control_c, 0, 64, 49
1, 112999, Control_c, 0, 64, 61
1, 113020, Control_c, 0, 64, 71
1, 113038, Control_c, 0, 64, 77
1, 113056, Note_off_c, 0, 73, 60
1, 113056, Poly_aftertouch_c, 0, 73, 0
1, 113056, Control_c, 0, 64, 83
1, 113075, Control_c, 0, 64, 89
1, 113093, Control_c, 0, 64, 97
1, 113113, Control_c, 0, 64, 105
1, 113130, Control_c, 0, 64, 111
1, 113168, Control_c, 0, 64, 117
1, 113175, Note_off_c, 0, 46, 48
1, 113244, Control_c, 0, 64, 121
1, 113350, Note_on_c, 0, 73, 47
1, 113363, Note_on_c, 0, 70, 49
1, 113394, Control_c, 0, 64, 116
1, 113448, Note_off_c, 0, 73, 61
1, 113448, Poly_aftertouch_c, 0, 73, 0
1, 113467, Control_c, 0, 64, 111
1, 113505, Control_c, 0, 64, 107
1, 113507, Note_off_c, 0, 70, 55
1, 113529, Note_on_c, 0, 72, 46
1, 113540, Note_on_c, 0, 68, 39
1, 113541, Control_c, 0, 64, 101
1, 113581, Control_c, 0, 64, 95
1, 113636, Control_c, 0, 64, 89
1, 113655, Control_c, 0, 64, 87
1, 113673, Control_c, 0, 64, 84
1, 113682, Note_off_c, 0, 68, 31
1, 113686, Note_on_c, 0, 70, 51
1, 113692, Control_c, 0, 64, 81
1, 113709, Note_on_c, 0, 63, 41
1, 113709, Control_c, 0, 64, 78
1, 113729, Control_c, 0, 64, 74
1, 113731, Note_on_c, 0, 67, 33
1, 113748, Control_c, 0, 64, 70
1, 113762, Note_off_c, 0, 72, 38
1, 113766, Control_c, 0, 64, 66
1, 113786, Control_c, 0, 64, 62
1, 113792, Note_off_c, 0, 63, 55
1, 113792, Poly_aftertouch_c, 0, 63, 0
1, 113804, Control_c, 0, 64, 59
1, 113822, Control_c, 0, 64, 56
1, 113842, Control_c, 0, 64, 53
1, 113852, Note_on_c, 0, 51, 52
1, 113861, Control_c, 0, 64, 50
1, 113879, Control_c, 0, 64, 44
1, 113898, Control_c, 0, 64, 38
1, 113916, Control_c, 0, 64, 32
1, 113936, Control_c, 0, 64, 27
1, 113973, Control_c, 0, 64, 22
1, 113975, Note_off_c, 0, 51, 57
1, 113975, Poly_aftertouch_c, 0, 51, 0
1, 113995, Note_on_c, 0, 55, 46
1, 113996, Note_off_c, 0, 67, 36
1, 113996, Poly_aftertouch_c, 0, 67, 0
1, 114110, Note_off_c, 0, 55, 56
1, 114144, Note_on_c, 0, 58, 45
1, 114292, Note_on_c, 0, 68, 37
1, 114311, Note_on_c, 0, 63, 45
1, 114325, Note_on_c, 0, 65, 38
1, 114332, Note_off_c, 0, 58, 34
1, 114332, Poly_aftertouch_c, 0, 58, 0
1, 114444, Note_off_c, 0, 70, 50
1, 114552, Control_c, 0, 64, 30
1, 114571, Control_c, 0, 64, 37
1, 114590, Control_c, 0, 64, 45
1, 114608, Control_c, 0, 64, 56
1, 114628, Control_c, 0, 64, 65
1, 114645, Control_c, 0, 64, 71
1, 114665, Control_c, 0, 64, 74
1, 114683, Control_c, 0, 64, 78
1, 114702, Control_c, 0, 64, 81
1, 114721, Control_c, 0, 64, 86
1, 114739, Control_c, 0, 64, 92
1, 114758, Control_c, 0, 64, 97
1, 114761, Note_off_c, 0, 65, 42
1, 114761, Poly_aftertouch_c, 0, 65, 0
1, 114776, Control_c, 0, 64, 102
1, 114920, Note_on_c, 0, 70, 50
1, 114948, Note_on_c, 0, 67, 32
1, 114964, Control_c, 0, 64, 93
1, 114982, Control_c, 0, 64, 86
1, 115002, Control_c, 0, 64, 76
1, 115020, Control_c, 0, 64, 66
1, 115038, Control_c, 0, 64, 60
1, 115058, Control_c, 0, 64, 53
1, 115061, Note_off_c, 0, 68, 54
1, 115076, Control_c, 0, 64, 46
1, 115094, Control_c, 0, 64, 42
1, 115133, Control_c, 0, 64, 45
1, 115150, Control_c, 0, 64, 50
1, 115169, Control_c, 0, 64, 56
1, 115188, Control_c, 0, 64, 63
1, 115207, Control_c, 0, 64, 68
1, 115225, Control_c, 0, 64, 71
1, 115244, Control_c, 0, 64, 74
1, 115249, Note_on_c, 0, 61, 41
1, 115263, Control_c, 0, 64, 78
1, 115281, Control_c, 0, 64, 83
1, 115300, Control_c, 0, 64, 88
1, 115314, Note_off_c, 0, 61, 56
1, 115316, Note_off_c, 0, 63, 37
1, 115316, Poly_aftertouch_c, 0, 63, 0
1, 115317, Control_c, 0, 64, 95
1, 115337, Control_c, 0, 64, 102
1, 115356, Control_c, 0, 64, 108
1, 115374, Control_c, 0, 64, 113
1, 115394, Control_c, 0, 64, 117
1, 115431, Control_c, 0, 64, 121
1, 115544, Control_c, 0, 64, 116
1, 115562, Control_c, 0, 64, 111
1, 115573, Note_on_c, 0, 72, 49
1, 115581, Control_c, 0, 64, 103
1, 115582, Note_on_c, 0, 68, 36
1, 115597, Note_on_c, 0, 61, 36
1, 115597, Control_c, 0, 64, 90
1, 115618, Control_c, 0, 64, 76
1, 115637, Control_c, 0, 64, 65
1, 115655, Control_c, 0, 64, 57
1, 115656, Note_off_c, 0, 70, 52
1, 115673, Note_off_c, 0, 61, 56
1, 115675, Control_c, 0, 64, 51
1, 115693, Control_c, 0, 64, 49
1, 115730, Control_c, 0, 64, 51
1, 115732, Note_on_c, 0, 60, 46
1, 115748, Control_c, 0, 64, 56
1, 115767, Control_c, 0, 64, 62
1, 115787, Control_c, 0, 64, 68
1, 115805, Control_c, 0, 64, 73
1, 115824, Control_c, 0, 64, 76
1, 115841, Note_off_c, 0, 67, 36
1, 115841, Poly_aftertouch_c, 0, 67, 0
1, 115842, Note_off_c, 0, 72, 48
1, 115843, Control_c, 0, 64, 79
1, 115861, Control_c, 0, 64, 82
1, 115864, Note_off_c, 0, 60, 54
1, 115864, Poly_aftertouch_c, 0, 60, 0
1, 115871, Note_on_c, 0, 58, 49
1, 115880, Control_c, 0, 64, 85
1, 115917, Control_c, 0, 64, 92
1, 115954, Control_c, 0, 64, 99
1, 115985, Note_off_c, 0, 58, 55
1, 115985, Poly_aftertouch_c, 0, 58, 0
1, 116023, Note_on_c, 0, 56, 52
1, 116142, Control_c, 0, 64, 92
1, 116159, Note_off_c, 0, 56, 49
1, 116160, Control_c, 0, 64, 88
1, 116167, Note_on_c, 0, 55, 53
1, 116172, Note_on_c, 0, 75, 54
1, 116179, Control_c, 0, 64, 82
1, 116198, Control_c, 0, 64, 75
1, 116207, Note_on_c, 0, 72, 44
1, 116216, Control_c, 0, 64, 68
1, 116235, Control_c, 0, 64, 63
1, 116254, Control_c, 0, 64, 58
1, 116273, Control_c, 0, 64, 51
1, 116292, Control_c, 0, 64, 40
1, 116295, Note_off_c, 0, 68, 44
1, 116306, Note_off_c, 0, 55, 55
1, 116310, Control_c, 0, 64, 24
1, 116320, Note_on_c, 0, 56, 49
1, 116328, Control_c, 0, 64, 0
1, 116401, Note_off_c, 0, 56, 56
1, 116403, Control_c, 0, 64, 8
1, 116422, Control_c, 0, 64, 26
1, 116441, Control_c, 0, 64, 43
1, 116460, Control_c, 0, 64, 57
1, 116461, Control_c, 0, 67, 114
1, 116474, Note_on_c, 0, 60, 41
1, 116479, Control_c, 0, 64, 69
1, 116480, Control_c, 0, 67, 105
1, 116497, Control_c, 0, 64, 75
1, 116499, Control_c, 0, 67, 93
1, 116515, Control_c, 0, 64, 78
1, 116516, Control_c, 0, 67, 80
1, 116534, Control_c, 0, 64, 80
1, 116535, Control_c, 0, 67, 67
1, 116553, Control_c, 0, 67, 56
1, 116571, Control_c, 0, 64, 83
1, 116571, Control_c, 0, 67, 46
1, 116591, Control_c, 0, 67, 40
1, 116594, Note_off_c, 0, 60, 59
1, 116594, Poly_aftertouch_c, 0, 60, 0
1, 116602, Note_on_c, 0, 56, 38
1, 116610, Control_c, 0, 67, 36
1, 116628, Control_c, 0, 64, 80
1, 116646, Control_c, 0, 64, 76
1, 116654, Note_off_c, 0, 56, 64
1, 116665, Control_c, 0, 64, 67
1, 116684, Control_c, 0, 64, 57
1, 116702, Control_c, 0, 64, 51
1, 116741, Control_c, 0, 64, 54
1, 116758, Control_c, 0, 64, 59
1, 116777, Control_c, 0, 64, 66
1, 116779, Control_c, 0, 67, 32
1, 116781, Note_on_c, 0, 44, 44
1, 116796, Control_c, 0, 64, 73
1, 116801, Note_off_c, 0, 75, 58
1, 116815, Control_c, 0, 64, 78
1, 116833, Control_c, 0, 64, 84
1, 116852, Control_c, 0, 64, 91
1, 116853, Control_c, 0, 67, 26
1, 116858, Note_off_c, 0, 72, 61
1, 116871, Control_c, 0, 64, 99
1, 116873, Note_off_c, 0, 44, 58
1, 116873, Poly_aftertouch_c, 0, 44, 0
1, 116889, Control_c, 0, 64, 106
1, 116891, Control_c, 0, 67, 19
1, 116908, Control_c, 0, 64, 112
1, 116909, Control_c, 0, 67, 15
1, 116928, Control_c, 0, 64, 116
1, 116929, Control_c, 0, 67, 11
1, 117111, Note_on_c, 0, 75, 60
1, 117151, Control_c, 0, 64, 112
1, 117163, Note_on_c, 0, 63, 43
1, 117188, Control_c, 0, 64, 104
1, 117208, Control_c, 0, 64, 98
1, 117226, Control_c, 0, 64, 90
1, 117245, Control_c, 0, 64, 80
1, 117264, Control_c, 0, 64, 72
1, 117265, Control_c, 0, 67, 15
1, 117282, Control_c, 0, 64, 67
1, 117301, Control_c, 0, 67, 20
1, 117339, Control_c, 0, 67, 29
1, 117357, Control_c, 0, 64, 71
1, 117357, Control_c, 0, 67, 35
1, 117376, Control_c, 0, 64, 74
1, 117378, Control_c, 0, 67, 41
1, 117395, Control_c, 0, 64, 78
1, 117396, Control_c, 0, 67, 46
1, 117414, Control_c, 0, 64, 83
1, 117415, Control_c, 0, 67, 50
1, 117431, Control_c, 0, 64, 88
1, 117432, Note_off_c, 0, 63, 38
1, 117432, Poly_aftertouch_c, 0, 63, 0
1, 117450, Control_c, 0, 67, 56
1, 117469, Control_c, 0, 64, 93
1, 117506, Control_c, 0, 64, 98
1, 117507, Control_c, 0, 67, 61
1, 117517, Note_on_c, 0, 60, 45
1, 117538, Note_on_c, 0, 56, 37
1, 117544, Control_c, 0, 64, 104
1, 117569, Note_off_c, 0, 75, 34
1, 117581, Control_c, 0, 64, 110
1, 117619, Control_c, 0, 64, 115
1, 117637, Control_c, 0, 64, 119
1, 117674, Control_c, 0, 64, 126
1, 117678, Note_on_c, 0, 63, 46
1, 117693, Control_c, 0, 67, 55
1, 117711, Control_c, 0, 67, 51
1, 117732, Control_c, 0, 67, 44
1, 117749, Control_c, 0, 67, 37
1, 117768, Control_c, 0, 67, 30
1, 117787, Control_c, 0, 67, 24
1, 117806, Control_c, 0, 67, 19
1, 117821, Note_on_c, 0, 75, 65
1, 117825, Control_c, 0, 67, 15
1, 117843, Control_c, 0, 67, 9
1, 117847, Note_off_c, 0, 60, 36
1, 117847, Poly_aftertouch_c, 0, 60, 0
1, 117876, Note_off_c, 0, 63, 37
1, 117876, Poly_aftertouch_c, 0, 63, 0
1, 117906, Note_off_c, 0, 56, 35
1, 117964, Note_on_c, 0, 63, 45
1, 118030, Control_c, 0, 67, 0
1, 118103, Note_on_c, 0, 59, 57
1, 118131, Note_off_c, 0, 63, 56
1, 118131, Poly_aftertouch_c, 0, 63, 0
1, 118132, Note_on_c, 0, 56, 38
1, 118143, Control_c, 0, 64, 121
1, 118154, Note_off_c, 0, 75, 36
1, 118161, Control_c, 0, 64, 107
1, 118180, Control_c, 0, 64, 90
1, 118199, Control_c, 0, 64, 74
1, 118217, Control_c, 0, 64, 65
1, 118236, Control_c, 0, 64, 62
1, 118249, Note_on_c, 0, 62, 49
1, 118273, Control_c, 0, 64, 64
1, 118293, Control_c, 0, 64, 67
1, 118310, Control_c, 0, 64, 70
1, 118330, Control_c, 0, 64, 74
1, 118348, Control_c, 0, 64, 80
1, 118367, Control_c, 0, 64, 86
1, 118374, Note_off_c, 0, 62, 46
1, 118384, Note_on_c, 0, 74, 62
1, 118386, Control_c, 0, 64, 92
1, 118404, Control_c, 0, 64, 100
1, 118417, Note_off_c, 0, 59, 53
1, 118422, Control_c, 0, 64, 108
1, 118441, Control_c, 0, 64, 118
1, 118460, Control_c, 0, 64, 127
1, 118488, Note_off_c, 0, 56, 35
1, 118534, Note_on_c, 0, 62, 58
1, 118641, Note_off_c, 0, 62, 45
1, 118654, Note_off_c, 0, 74, 39
1, 118673, Note_on_c, 0, 61, 63
1, 118685, Note_on_c, 0, 55, 47
1, 118690, Note_on_c, 0, 58, 50
1, 118722, Control_c, 0, 64, 114
1, 118741, Control_c, 0, 64, 98
1, 118760, Control_c, 0, 64, 82
1, 118778, Control_c, 0, 64, 70
1, 118797, Control_c, 0, 64, 64
1, 118815, Control_c, 0, 64, 63
1, 118823, Note_on_c, 0, 64, 62
1, 118853, Control_c, 0, 64, 64
1, 118871, Control_c, 0, 64, 67
1, 118892, Control_c, 0, 64, 70
1, 118908, Control_c, 0, 64, 75
1, 118928, Control_c, 0, 64, 81
1, 118945, Note_off_c, 0, 64, 56
1, 118946, Control_c, 0, 64, 89
1, 118954, Note_on_c, 0, 76, 64
1, 118965, Control_c, 0, 64, 97
1, 118985, Control_c, 0, 64, 106
1, 119002, Control_c, 0, 64, 115
1, 119004, Note_off_c, 0, 61, 29
1, 119021, Control_c, 0, 64, 124
1, 119058, Note_off_c, 0, 55, 31
1, 119080, Note_on_c, 0, 64, 60
1, 119154, Note_off_c, 0, 58, 37
1, 119154, Poly_aftertouch_c, 0, 58, 0
1, 119211, Note_off_c, 0, 64, 49
1, 119218, Note_on_c, 0, 60, 69
1, 119224, Note_off_c, 0, 76, 38
1, 119230, Note_on_c, 0, 56, 63
1, 119245, Control_c, 0, 64, 111
1, 119264, Control_c, 0, 64, 91
1, 119283, Control_c, 0, 64, 73
1, 119301, Control_c, 0, 64, 60
1, 119320, Control_c, 0, 64, 55
1, 119339, Control_c, 0, 64, 53
1, 119376, Control_c, 0, 64, 58
1, 119377, Note_on_c, 0, 65, 69
1, 119395, Control_c, 0, 64, 65
1, 119414, Control_c, 0, 64, 72
1, 119433, Control_c, 0, 64, 78
1, 119451, Control_c, 0, 64, 84
1, 119469, Control_c, 0, 64, 90
1, 119489, Control_c, 0, 64, 97
1, 119504, Note_off_c, 0, 65, 54
1, 119504, Poly_aftertouch_c, 0, 65, 0
1, 119507, Control_c, 0, 64, 106
1, 119513, Note_off_c, 0, 60, 31
1, 119513, Poly_aftertouch_c, 0, 60, 0
1, 119521, Note_on_c, 0, 77, 71
1, 119525, Control_c, 0, 64, 115
1, 119544, Control_c, 0, 64, 124
1, 119652, Note_on_c, 0, 65, 71
1, 119674, Note_off_c, 0, 56, 31
1, 119729, Note_off_c, 0, 77, 57
1, 119758, Note_off_c, 0, 65, 54
1, 119758, Poly_aftertouch_c, 0, 65, 0
1, 119783, Note_on_c, 0, 60, 72
1, 119795, Note_on_c, 0, 52, 62
1, 119843, Control_c, 0, 64, 111
1, 119864, Control_c, 0, 64, 93
1, 119881, Control_c, 0, 64, 74
1, 119900, Control_c, 0, 64, 59
1, 119919, Control_c, 0, 64, 47
1, 119936, Note_on_c, 0, 67, 71
1, 119936, Control_c, 0, 64, 36
1, 119957, Control_c, 0, 64, 30
1, 119993, Control_c, 0, 64, 40
1, 120014, Control_c, 0, 64, 51
1, 120031, Control_c, 0, 64, 64
1, 120050, Control_c, 0, 64, 74
1, 120063, Note_on_c, 0, 79, 75
1, 120067, Control_c, 0, 64, 83
1, 120086, Note_off_c, 0, 67, 60
1, 120086, Poly_aftertouch_c, 0, 67, 0
1, 120086, Control_c, 0, 64, 92
1, 120094, Note_off_c, 0, 60, 35
1, 120094, Poly_aftertouch_c, 0, 60, 0
1, 120106, Control_c, 0, 64, 106
1, 120110, Note_off_c, 0, 52, 52
1, 120124, Control_c, 0, 64, 123
1, 120143, Control_c, 0, 64, 127
1, 120214, Note_on_c, 0, 67, 77
1, 120249, Note_off_c, 0, 79, 56
1, 120249, Poly_aftertouch_c, 0, 79, 0
1, 120275, Note_off_c, 0, 67, 58
1, 120275, Poly_aftertouch_c, 0, 67, 0
1, 120331, Control_c, 0, 64, 121
1, 120347, Note_on_c, 0, 60, 70
1, 120347, Control_c, 0, 64, 99
1, 120355, Note_on_c, 0, 53, 60
1, 120368, Control_c, 0, 64, 74
1, 120385, Control_c, 0, 64, 54
1, 120405, Control_c, 0, 64, 34
1, 120424, Control_c, 0, 64, 8
1, 120460, Control_c, 0, 64, 22
1, 120481, Control_c, 0, 64, 41
1, 120498, Control_c, 0, 64, 60
1, 120504, Note_on_c, 0, 68, 78
1, 120505, Note_off_c, 0, 60, 59
1, 120505, Poly_aftertouch_c, 0, 60, 0
1, 120517, Control_c, 0, 64, 78
1, 120536, Control_c, 0, 64, 93
1, 120555, Control_c, 0, 64, 110
1, 120574, Control_c, 0, 64, 123
1, 120592, Control_c, 0, 64, 127
1, 120608, Note_off_c, 0, 53, 45
1, 120608, Poly_aftertouch_c, 0, 53, 0
1, 120666, Note_on_c, 0, 80, 78
1, 120688, Note_off_c, 0, 68, 60
1, 120823, Note_off_c, 0, 80, 54
1, 120826, Note_on_c, 0, 68, 71
1, 120910, Control_c, 0, 67, 8
1, 120929, Note_off_c, 0, 68, 61
1, 121044, Note_on_c, 0, 75, 77
1, 121074, Note_on_c, 0, 67, 57
1, 121074, Note_on_c, 0, 70, 61
1, 121078, Control_c, 0, 67, 13
1, 121133, Control_c, 0, 64, 116
1, 121153, Control_c, 0, 64, 103
1, 121155, Control_c, 0, 67, 19
1, 121171, Control_c, 0, 64, 91
1, 121190, Control_c, 0, 64, 81
1, 121192, Control_c, 0, 67, 26
1, 121204, Note_on_c, 0, 34, 55
1, 121210, Control_c, 0, 64, 73
1, 121212, Control_c, 0, 67, 30
1, 121228, Control_c, 0, 64, 67
1, 121229, Control_c, 0, 67, 34
1, 121247, Control_c, 0, 64, 61
1, 121247, Control_c, 0, 67, 39
1, 121262, Note_off_c, 0, 34, 60
1, 121266, Control_c, 0, 64, 56
1, 121267, Control_c, 0, 67, 43
1, 121285, Control_c, 0, 64, 50
1, 121286, Control_c, 0, 67, 48
1, 121303, Control_c, 0, 64, 41
1, 121304, Control_c, 0, 67, 54
1, 121321, Control_c, 0, 64, 30
1, 121321, Control_c, 0, 67, 59
1, 121340, Control_c, 0, 64, 17
1, 121341, Control_c, 0, 67, 63
1, 121347, Note_on_c, 0, 39, 63
1, 121359, Control_c, 0, 64, 0
1, 121378, Control_c, 0, 67, 67
1, 121390, Note_off_c, 0, 39, 59
1, 121481, Note_on_c, 0, 43, 55
1, 121521, Note_off_c, 0, 43, 65
1, 121626, Note_on_c, 0, 46, 61
1, 121676, Control_c, 0, 67, 63
1, 121696, Note_off_c, 0, 46, 55
1, 121774, Note_on_c, 0, 51, 64
1, 121807, Control_c, 0, 67, 58
1, 121820, Note_off_c, 0, 51, 59
1, 121820, Poly_aftertouch_c, 0, 51, 0
1, 121844, Control_c, 0, 67, 51
1, 121863, Control_c, 0, 67, 45
1, 121882, Control_c, 0, 64, 19
1, 121883, Control_c, 0, 67, 38
1, 121901, Control_c, 0, 64, 32
1, 121902, Control_c, 0, 67, 33
1, 121906, Note_on_c, 0, 55, 62
1, 121920, Control_c, 0, 64, 47
1, 121921, Control_c, 0, 67, 28
1, 121938, Control_c, 0, 64, 60
1, 121939, Control_c, 0, 67, 23
1, 121957, Control_c, 0, 64, 69
1, 121959, Note_off_c, 0, 55, 60
1, 121959, Control_c, 0, 67, 18
1, 121975, Control_c, 0, 64, 75
1, 121976, Control_c, 0, 67, 11
1, 121994, Control_c, 0, 64, 80
1, 122013, Control_c, 0, 64, 85
1, 122022, Note_off_c, 0, 75, 63
1, 122031, Control_c, 0, 64, 90
1, 122042, Note_off_c, 0, 67, 37
1, 122042, Poly_aftertouch_c, 0, 67, 0
1, 122047, Note_on_c, 0, 57, 67
1, 122048, Note_off_c, 0, 70, 53
1, 122051, Control_c, 0, 64, 94
1, 122092, Note_off_c, 0, 57, 58
1, 122181, Control_c, 0, 64, 86
1, 122185, Note_on_c, 0, 74, 75
1, 122199, Control_c, 0, 64, 78
1, 122204, Note_on_c, 0, 65, 56
1, 122205, Note_on_c, 0, 68, 63
1, 122210, Note_on_c, 0, 59, 65
1, 122217, Control_c, 0, 64, 69
1, 122237, Control_c, 0, 64, 60
1, 122256, Control_c, 0, 64, 50
1, 122274, Control_c, 0, 64, 37
1, 122295, Control_c, 0, 64, 22
1, 122312, Control_c, 0, 64, 9
1, 122368, Control_c, 0, 64, 17
1, 122388, Control_c, 0, 64, 26
1, 122406, Control_c, 0, 64, 36
1, 122424, Control_c, 0, 64, 48
1, 122426, Control_c, 0, 67, 16
1, 122444, Control_c, 0, 64, 60
1, 122461, Control_c, 0, 64, 70
1, 122462, Control_c, 0, 67, 23
1, 122480, Control_c, 0, 64, 77
1, 122481, Control_c, 0, 67, 29
1, 122500, Control_c, 0, 64, 83
1, 122501, Control_c, 0, 67, 36
1, 122518, Control_c, 0, 64, 91
1, 122520, Control_c, 0, 67, 42
1, 122522, Note_off_c, 0, 59, 53
1, 122536, Control_c, 0, 64, 100
1, 122538, Control_c, 0, 67, 47
1, 122556, Control_c, 0, 64, 109
1, 122556, Control_c, 0, 67, 51
1, 122575, Control_c, 0, 64, 115
1, 122576, Control_c, 0, 67, 55
1, 122589, Note_off_c, 0, 74, 59
1, 122593, Control_c, 0, 64, 120
1, 122593, Control_c, 0, 67, 60
1, 122608, Note_off_c, 0, 68, 33
1, 122611, Control_c, 0, 67, 66
1, 122630, Control_c, 0, 64, 127
1, 122631, Control_c, 0, 67, 72
1, 122634, Note_off_c, 0, 65, 38
1, 122634, Poly_aftertouch_c, 0, 65, 0
1, 122667, Control_c, 0, 67, 78
1, 122705, Control_c, 0, 67, 83
1, 122742, Control_c, 0, 67, 87
1, 122855, Control_c, 0, 64, 120
1, 122872, Control_c, 0, 64, 114
1, 122891, Control_c, 0, 64, 107
1, 122895, Note_on_c, 0, 75, 57
1, 122911, Control_c, 0, 64, 97
1, 122916, Note_on_c, 0, 67, 45
1, 122923, Note_on_c, 0, 63, 39
1, 122929, Control_c, 0, 64, 89
1, 122947, Control_c, 0, 64, 81
1, 122967, Control_c, 0, 64, 75
1, 122986, Control_c, 0, 64, 69
1, 123003, Control_c, 0, 64, 64
1, 123024, Control_c, 0, 64, 60
1, 123041, Note_on_c, 0, 36, 59
1, 123043, Control_c, 0, 64, 55
1, 123060, Control_c, 0, 64, 51
1, 123080, Control_c, 0, 64, 45
1, 123097, Control_c, 0, 64, 38
1, 123105, Note_off_c, 0, 36, 55
1, 123116, Control_c, 0, 64, 29
1, 123135, Control_c, 0, 64, 18
1, 123153, Control_c, 0, 64, 10
1, 123176, Note_on_c, 0, 39, 59
1, 123228, Control_c, 0, 64, 0
1, 123236, Note_off_c, 0, 39, 57
1, 123319, Note_on_c, 0, 43, 58
1, 123362, Note_off_c, 0, 43, 65
1, 123461, Note_on_c, 0, 48, 57
1, 123525, Note_off_c, 0, 48, 62
1, 123525, Poly_aftertouch_c, 0, 48, 0
1, 123602, Control_c, 0, 64, 14
1, 123603, Note_on_c, 0, 51, 53
1, 123620, Control_c, 0, 64, 25
1, 123640, Control_c, 0, 64, 36
1, 123659, Control_c, 0, 64, 46
1, 123669, Note_off_c, 0, 51, 59
1, 123669, Poly_aftertouch_c, 0, 51, 0
1, 123675, Control_c, 0, 64, 55
1, 123684, Note_off_c, 0, 63, 59
1, 123684, Poly_aftertouch_c, 0, 63, 0
1, 123696, Control_c, 0, 64, 64
1, 123697, Control_c, 0, 67, 83
1, 123710, Note_off_c, 0, 67, 42
1, 123710, Poly_aftertouch_c, 0, 67, 0
1, 123715, Control_c, 0, 64, 69
1, 123733, Control_c, 0, 64, 71
1, 123734, Control_c, 0, 67, 74
1, 123751, Control_c, 0, 64, 73
1, 123752, Control_c, 0, 67, 68
1, 123755, Note_on_c, 0, 55, 43
1, 123762, Note_on_c, 0, 56, 7
1, 123770, Control_c, 0, 67, 61
1, 123787, Note_off_c, 0, 75, 54
1, 123789, Control_c, 0, 64, 76
1, 123790, Control_c, 0, 67, 54
1, 123791, Note_off_c, 0, 55, 53
1, 123792, Note_off_c, 0, 56, 44
1, 123808, Control_c, 0, 67, 48
1, 123828, Control_c, 0, 67, 43
1, 123864, Control_c, 0, 67, 36
1, 123884, Note_on_c, 0, 60, 52
1, 123902, Control_c, 0, 67, 32
1, 123942, Note_off_c, 0, 60, 58
1, 123942, Poly_aftertouch_c, 0, 60, 0
1, 123957, Control_c, 0, 64, 73
1, 123996, Control_c, 0, 64, 70
1, 124013, Control_c, 0, 64, 68
1, 124033, Control_c, 0, 64, 65
1, 124044, Note_on_c, 0, 77, 58
1, 124051, Control_c, 0, 64, 61
1, 124069, Control_c, 0, 64, 57
1, 124071, Note_on_c, 0, 65, 41
1, 124074, Note_on_c, 0, 72, 40
1, 124086, Note_on_c, 0, 57, 39
1, 124087, Control_c, 0, 64, 52
1, 124108, Control_c, 0, 64, 45
1, 124127, Control_c, 0, 64, 35
1, 124144, Control_c, 0, 64, 26
1, 124219, Control_c, 0, 64, 34
1, 124238, Control_c, 0, 64, 39
1, 124257, Control_c, 0, 64, 45
1, 124275, Control_c, 0, 64, 52
1, 124294, Control_c, 0, 64, 57
1, 124314, Control_c, 0, 64, 63
1, 124332, Control_c, 0, 64, 68
1, 124351, Control_c, 0, 64, 71
1, 124353, Control_c, 0, 67, 26
1, 124369, Control_c, 0, 64, 74
1, 124378, Note_off_c, 0, 57, 47
1, 124387, Control_c, 0, 64, 78
1, 124388, Control_c, 0, 67, 19
1, 124406, Control_c, 0, 64, 84
1, 124408, Control_c, 0, 67, 15
1, 124426, Control_c, 0, 64, 91
1, 124428, Control_c, 0, 67, 10
1, 124443, Control_c, 0, 64, 101
1, 124446, Note_off_c, 0, 65, 37
1, 124446, Poly_aftertouch_c, 0, 65, 0
1, 124463, Control_c, 0, 64, 110
1, 124480, Control_c, 0, 64, 117
1, 124500, Control_c, 0, 64, 122
1, 124538, Control_c, 0, 64, 127
1, 124539, Control_c, 0, 67, 0
1, 124547, Note_off_c, 0, 72, 37
1, 124668, Control_c, 0, 64, 123
1, 124679, Note_on_c, 0, 75, 66
1, 124705, Control_c, 0, 64, 116
1, 124706, Note_on_c, 0, 67, 47
1, 124709, Note_on_c, 0, 70, 49
1, 124725, Control_c, 0, 64, 112
1, 124743, Control_c, 0, 64, 105
1, 124761, Control_c, 0, 64, 97
1, 124770, Note_off_c, 0, 77, 37
1, 124780, Control_c, 0, 64, 89
1, 124799, Control_c, 0, 64, 83
1, 124804, Note_on_c, 0, 34, 55
1, 124818, Control_c, 0, 64, 78
1, 124836, Control_c, 0, 64, 73
1, 124855, Control_c, 0, 64, 68
1, 124874, Control_c, 0, 64, 61
1, 124882, Note_off_c, 0, 34, 56
1, 124892, Control_c, 0, 64, 56
1, 124911, Control_c, 0, 64, 50
1, 124930, Control_c, 0, 64, 41
1, 124948, Control_c, 0, 64, 25
1, 124955, Note_on_c, 0, 39, 66
1, 124966, Control_c, 0, 64, 0
1, 125010, Note_off_c, 0, 39, 59
1, 125094, Note_on_c, 0, 43, 61
1, 125133, Note_off_c, 0, 43, 66
1, 125240, Note_on_c, 0, 46, 64
1, 125328, Note_off_c, 0, 46, 58
1, 125360, Control_c, 0, 64, 20
1, 125379, Note_on_c, 0, 51, 70
1, 125379, Control_c, 0, 64, 34
1, 125397, Control_c, 0, 64, 45
1, 125416, Control_c, 0, 64, 55
1, 125425, Note_off_c, 0, 51, 58
1, 125425, Poly_aftertouch_c, 0, 51, 0
1, 125433, Control_c, 0, 64, 64
1, 125453, Control_c, 0, 64, 71
1, 125473, Control_c, 0, 64, 76
1, 125491, Control_c, 0, 64, 80
1, 125504, Note_off_c, 0, 75, 60
1, 125510, Control_c, 0, 64, 85
1, 125518, Note_on_c, 0, 55, 65
1, 125529, Control_c, 0, 64, 94
1, 125547, Control_c, 0, 64, 108
1, 125565, Control_c, 0, 64, 122
1, 125584, Control_c, 0, 64, 127
1, 125587, Note_off_c, 0, 55, 60
1, 125593, Note_off_c, 0, 67, 42
1, 125593, Poly_aftertouch_c, 0, 67, 0
1, 125639, Note_off_c, 0, 70, 36
1, 125645, Note_on_c, 0, 57, 73
1, 125702, Note_off_c, 0, 57, 52
1, 125771, Control_c, 0, 64, 120
1, 125790, Control_c, 0, 64, 104
1, 125796, Note_on_c, 0, 74, 75
1, 125803, Note_on_c, 0, 65, 63
1, 125809, Control_c, 0, 64, 83
1, 125825, Note_on_c, 0, 58, 54
1, 125827, Control_c, 0, 64, 62
1, 125838, Note_on_c, 0, 68, 43
1, 125846, Control_c, 0, 64, 43
1, 125865, Control_c, 0, 64, 19
1, 125877, Note_off_c, 0, 68, 55
1, 125884, Control_c, 0, 64, 11
1, 125902, Control_c, 0, 64, 16
1, 125922, Control_c, 0, 64, 27
1, 125931, Note_off_c, 0, 74, 61
1, 125940, Control_c, 0, 64, 40
1, 125946, Note_on_c, 0, 75, 65
1, 125958, Control_c, 0, 64, 53
1, 125976, Control_c, 0, 64, 63
1, 125996, Control_c, 0, 64, 69
1, 126034, Control_c, 0, 64, 71
1, 126041, Note_off_c, 0, 58, 58
1, 126041, Poly_aftertouch_c, 0, 58, 0
1, 126045, Note_on_c, 0, 74, 71
1, 126060, Note_off_c, 0, 75, 58
1, 126090, Note_on_c, 0, 46, 52
1, 126090, Control_c, 0, 64, 74
1, 126107, Control_c, 0, 64, 77
1, 126119, Note_on_c, 0, 75, 69
1, 126124, Note_off_c, 0, 74, 62
1, 126126, Control_c, 0, 64, 79
1, 126146, Control_c, 0, 64, 81
1, 126163, Control_c, 0, 64, 83
1, 126184, Control_c, 0, 64, 85
1, 126200, Control_c, 0, 64, 88
1, 126204, Note_on_c, 0, 74, 70
1, 126220, Control_c, 0, 64, 92
1, 126229, Note_off_c, 0, 65, 61
1, 126229, Poly_aftertouch_c, 0, 65, 0
1, 126238, Control_c, 0, 64, 98
1, 126258, Control_c, 0, 64, 104
1, 126262, Note_off_c, 0, 75, 62
1, 126278, Control_c, 0, 64, 110
1, 126284, Note_on_c, 0, 72, 69
1, 126294, Control_c, 0, 64, 115
1, 126314, Control_c, 0, 64, 119
1, 126332, Control_c, 0, 64, 124
1, 126371, Note_off_c, 0, 72, 60
1, 126465, Note_off_c, 0, 74, 61
1, 126474, Note_on_c, 0, 75, 68
1, 126505, Note_on_c, 0, 67, 52
1, 126552, Note_on_c, 0, 63, 50
1, 126556, Note_off_c, 0, 46, 55
1, 126561, Note_on_c, 0, 51, 52
1, 126576, Control_c, 0, 64, 114
1, 126594, Control_c, 0, 64, 97
1, 126614, Control_c, 0, 64, 78
1, 126631, Control_c, 0, 64, 63
1, 126650, Control_c, 0, 64, 56
1, 126668, Note_off_c, 0, 63, 59
1, 126668, Poly_aftertouch_c, 0, 63, 0
1, 126688, Control_c, 0, 64, 60
1, 126705, Control_c, 0, 64, 66
1, 126725, Control_c, 0, 64, 75
1, 126740, Note_on_c, 0, 63, 54
1, 126743, Control_c, 0, 64, 85
1, 126761, Control_c, 0, 64, 94
1, 126781, Control_c, 0, 64, 101
1, 126800, Control_c, 0, 64, 105
1, 126819, Control_c, 0, 64, 109
1, 126827, Note_off_c, 0, 67, 35
1, 126827, Poly_aftertouch_c, 0, 67, 0
1, 126836, Control_c, 0, 64, 115
1, 126849, Note_off_c, 0, 75, 45
1, 126856, Control_c, 0, 64, 121
1, 126893, Control_c, 0, 64, 125
1, 126913, Note_on_c, 0, 67, 65
1, 126922, Note_on_c, 0, 39, 54
1, 127061, Note_on_c, 0, 75, 74
1, 127109, Note_off_c, 0, 67, 54
1, 127109, Poly_aftertouch_c, 0, 67, 0
1, 127166, Note_off_c, 0, 63, 34
1, 127166, Poly_aftertouch_c, 0, 63, 0
1, 127200, Note_on_c, 0, 41, 72
1, 127243, Note_off_c, 0, 75, 40
1, 127245, Note_off_c, 0, 39, 54
1, 127287, Control_c, 0, 64, 121
1, 127303, Control_c, 0, 64, 105
1, 127323, Control_c, 0, 64, 84
1, 127336, Note_on_c, 0, 62, 69
1, 127343, Control_c, 0, 64, 64
1, 127360, Control_c, 0, 64, 48
1, 127379, Control_c, 0, 64, 30
1, 127398, Control_c, 0, 64, 11
1, 127434, Control_c, 0, 64, 24
1, 127454, Control_c, 0, 64, 40
1, 127461, Note_off_c, 0, 51, 37
1, 127461, Poly_aftertouch_c, 0, 51, 0
1, 127473, Control_c, 0, 64, 58
1, 127492, Control_c, 0, 64, 73
1, 127493, Note_on_c, 0, 68, 71
1, 127499, Note_on_c, 0, 39, 59
1, 127509, Control_c, 0, 64, 84
1, 127529, Control_c, 0, 64, 97
1, 127548, Control_c, 0, 64, 114
1, 127556, Note_off_c, 0, 62, 51
1, 127566, Control_c, 0, 64, 127
1, 127624, Note_on_c, 0, 75, 76
1, 127692, Note_off_c, 0, 41, 32
1, 127760, Note_on_c, 0, 43, 69
1, 127789, Note_off_c, 0, 39, 52
1, 127797, Note_off_c, 0, 75, 39
1, 127807, Note_on_c, 0, 42, 19
1, 127808, Note_off_c, 0, 42, 127
1, 127847, Control_c, 0, 64, 115
1, 127867, Control_c, 0, 64, 91
1, 127884, Control_c, 0, 64, 67
1, 127903, Control_c, 0, 64, 48
1, 127911, Note_on_c, 0, 61, 70
1, 127923, Control_c, 0, 64, 29
1, 127940, Control_c, 0, 64, 9
1, 127958, Control_c, 0, 64, 0
1, 127977, Control_c, 0, 64, 9
1, 127997, Control_c, 0, 64, 22
1, 128015, Control_c, 0, 64, 36
1, 128034, Control_c, 0, 64, 51
1, 128052, Control_c, 0, 64, 66
1, 128071, Control_c, 0, 64, 76
1, 128079, Note_off_c, 0, 61, 62
1, 128079, Note_on_c, 0, 70, 66
1, 128091, Control_c, 0, 64, 84
1, 128105, Note_on_c, 0, 39, 60
1, 128109, Control_c, 0, 64, 95
1, 128128, Control_c, 0, 64, 108
1, 128146, Control_c, 0, 64, 121
1, 128165, Control_c, 0, 64, 127
1, 128168, Note_off_c, 0, 43, 34
1, 128173, Note_off_c, 0, 39, 56
1, 128256, Note_off_c, 0, 68, 40
1, 128263, Note_on_c, 0, 75, 73
1, 128285, Note_off_c, 0, 70, 58
1, 128294, Note_off_c, 0, 75, 68
1, 128606, Note_on_c, 0, 60, 51
1, 128613, Control_c, 0, 64, 116
1, 128616, Note_on_c, 0, 44, 51
1, 128618, Note_on_c, 0, 32, 54
1, 128623, Note_on_c, 0, 39, 52
1, 128632, Control_c, 0, 64, 104
1, 128651, Control_c, 0, 64, 91
1, 128669, Control_c, 0, 64, 78
1, 128688, Control_c, 0, 64, 67
1, 128707, Control_c, 0, 64, 58
1, 128725, Control_c, 0, 64, 50
1, 128745, Control_c, 0, 64, 37
1, 128763, Control_c, 0, 64, 11
1, 128769, Note_on_c, 0, 48, 57
1, 128782, Control_c, 0, 64, 0
1, 128884, Note_off_c, 0, 60, 28
1, 128884, Poly_aftertouch_c, 0, 60, 0
1, 128911, Note_on_c, 0, 51, 60
1, 129006, Control_c, 0, 67, 9
1, 129054, Note_on_c, 0, 56, 61
1, 129058, Poly_aftertouch_c, 0, 50, 127
1, 129072, Note_off_c, 0, 48, 44
1, 129072, Poly_aftertouch_c, 0, 48, 0
1, 129117, Poly_aftertouch_c, 0, 50, 0
1, 129231, Control_c, 0, 67, 13
1, 129238, Note_off_c, 0, 51, 54
1, 129238, Note_on_c, 0, 60, 62
1, 129238, Poly_aftertouch_c, 0, 51, 0
1, 129399, Control_c, 0, 67, 17
1, 129408, Note_off_c, 0, 56, 37
1, 129437, Control_c, 0, 67, 21
1, 129473, Control_c, 0, 67, 27
1, 129511, Control_c, 0, 67, 34
1, 129548, Control_c, 0, 67, 41
1, 129585, Control_c, 0, 67, 47
1, 129623, Control_c, 0, 67, 52
1, 129679, Control_c, 0, 67, 56
1, 129828, Control_c, 0, 67, 52
1, 129834, Note_on_c, 0, 56, 49
1, 129865, Control_c, 0, 67, 44
1, 129885, Control_c, 0, 67, 35
1, 129904, Control_c, 0, 67, 24
1, 129922, Control_c, 0, 67, 13
1, 129960, Control_c, 0, 64, 21
1, 129979, Control_c, 0, 64, 37
1, 129997, Control_c, 0, 64, 52
1, 130015, Control_c, 0, 64, 64
1, 130035, Control_c, 0, 64, 71
1, 130052, Control_c, 0, 64, 75
1, 130072, Control_c, 0, 64, 77
1, 130110, Control_c, 0, 64, 80
1, 130111, Control_c, 0, 67, 9
1, 130134, Note_off_c, 0, 60, 40
1, 130134, Poly_aftertouch_c, 0, 60, 0
1, 130147, Control_c, 0, 67, 15
1, 130150, Note_off_c, 0, 39, 38
1, 130166, Control_c, 0, 67, 22
1, 130177, Note_off_c, 0, 44, 37
1, 130177, Poly_aftertouch_c, 0, 44, 0
1, 130184, Control_c, 0, 67, 32
1, 130203, Control_c, 0, 67, 42
1, 130221, Control_c, 0, 67, 50
1, 130241, Control_c, 0, 67, 57
1, 130259, Control_c, 0, 67, 65
1, 130277, Control_c, 0, 64, 78
1, 130279, Control_c, 0, 67, 75
1, 130297, Control_c, 0, 64, 76
1, 130299, Control_c, 0, 67, 86
1, 130315, Control_c, 0, 64, 73
1, 130316, Control_c, 0, 67, 95
1, 130334, Control_c, 0, 64, 70
1, 130335, Control_c, 0, 67, 100
1, 130352, Control_c, 0, 67, 105
1, 130371, Control_c, 0, 67, 110
1, 130389, Control_c, 0, 67, 115
1, 130427, Note_off_c, 0, 56, 51
1, 130429, Control_c, 0, 67, 119
1, 130449, Note_on_c, 0, 46, 40
1, 130452, Note_on_c, 0, 39, 39
1, 130455, Note_on_c, 0, 34, 46
1, 130458, Note_on_c, 0, 55, 42
1, 130483, Control_c, 0, 64, 72
1, 130494, Note_off_c, 0, 55, 53
1, 130525, Note_off_c, 0, 32, 57
1, 130600, Note_on_c, 0, 61, 58
1, 130616, Control_c, 0, 64, 70
1, 130633, Control_c, 0, 67, 115
1, 130689, Control_c, 0, 64, 67
1, 130690, Control_c, 0, 67, 110
1, 130708, Control_c, 0, 64, 66
1, 130728, Control_c, 0, 64, 64
1, 130729, Control_c, 0, 67, 102
1, 130744, Control_c, 0, 64, 62
1, 130745, Control_c, 0, 67, 97
1, 130748, Note_on_c, 0, 63, 57
1, 130764, Control_c, 0, 64, 60
1, 130765, Control_c, 0, 67, 92
1, 130783, Control_c, 0, 67, 87
1, 130802, Control_c, 0, 64, 58
1, 130803, Control_c, 0, 67, 82
1, 130820, Control_c, 0, 67, 78
1, 130838, Control_c, 0, 64, 54
1, 130857, Control_c, 0, 64, 52
1, 130858, Control_c, 0, 67, 72
1, 130888, Note_on_c, 0, 67, 57
1, 130894, Control_c, 0, 64, 48
1, 130898, Note_off_c, 0, 61, 52
1, 130914, Control_c, 0, 64, 44
1, 130915, Control_c, 0, 67, 68
1, 130932, Control_c, 0, 64, 41
1, 130970, Control_c, 0, 64, 36
1, 131025, Note_off_c, 0, 63, 37
1, 131025, Poly_aftertouch_c, 0, 63, 0
1, 131042, Note_on_c, 0, 73, 64
1, 131175, Control_c, 0, 64, 42
1, 131194, Control_c, 0, 64, 47
1, 131196, Control_c, 0, 67, 64
1, 131212, Control_c, 0, 64, 55
1, 131222, Note_off_c, 0, 67, 53
1, 131222, Poly_aftertouch_c, 0, 67, 0
1, 131231, Control_c, 0, 64, 61
1, 131231, Control_c, 0, 67, 59
1, 131250, Control_c, 0, 64, 66
1, 131269, Control_c, 0, 64, 70
1, 131270, Control_c, 0, 67, 53
1, 131287, Control_c, 0, 64, 73
1, 131308, Control_c, 0, 64, 75
1, 131310, Control_c, 0, 67, 48
1, 131344, Control_c, 0, 64, 77
1, 131346, Control_c, 0, 67, 44
1, 131381, Control_c, 0, 67, 40
1, 131456, Control_c, 0, 64, 75
1, 131493, Control_c, 0, 64, 72
1, 131512, Control_c, 0, 64, 70
1, 131549, Control_c, 0, 64, 68
1, 131568, Control_c, 0, 64, 67
1, 131587, Control_c, 0, 64, 65
1, 131605, Control_c, 0, 64, 64
1, 131640, Note_on_c, 0, 67, 46
1, 131642, Control_c, 0, 64, 63
1, 131643, Control_c, 0, 67, 44
1, 131718, Control_c, 0, 64, 64
1, 131736, Control_c, 0, 64, 66
1, 131754, Control_c, 0, 64, 68
1, 131759, Note_off_c, 0, 73, 64
1, 131759, Poly_aftertouch_c, 0, 73, 0
1, 131774, Control_c, 0, 64, 71
1, 131792, Control_c, 0, 64, 76
1, 131811, Control_c, 0, 64, 82
1, 131830, Control_c, 0, 64, 89
1, 131849, Control_c, 0, 64, 100
1, 131865, Note_off_c, 0, 34, 53
1, 131866, Control_c, 0, 64, 115
1, 131867, Control_c, 0, 67, 38
1, 131886, Control_c, 0, 64, 127
1, 131887, Control_c, 0, 67, 33
1, 131904, Control_c, 0, 67, 27
1, 131905, Note_off_c, 0, 39, 54
1, 131923, Control_c, 0, 67, 22
1, 131935, Note_off_c, 0, 46, 57
1, 131989, Note_off_c, 0, 67, 59
1, 131989, Poly_aftertouch_c, 0, 67, 0
1, 132072, Control_c, 0, 67, 29
1, 132090, Control_c, 0, 67, 34
1, 132110, Control_c, 0, 67, 40
1, 132129, Control_c, 0, 67, 45
1, 132147, Control_c, 0, 67, 50
1, 132166, Control_c, 0, 67, 56
1, 132185, Control_c, 0, 67, 61
1, 132203, Control_c, 0, 64, 123
1, 132204, Control_c, 0, 67, 66
1, 132241, Control_c, 0, 67, 71
1, 132253, Note_on_c, 0, 68, 59
1, 132260, Note_on_c, 0, 36, 43
1, 132260, Control_c, 0, 64, 118
1, 132262, Note_on_c, 0, 39, 38
1, 132271, Note_on_c, 0, 48, 38
1, 132291, Note_off_c, 0, 68, 66
1, 132316, Control_c, 0, 64, 113
1, 132353, Control_c, 0, 64, 107
1, 132414, Note_on_c, 0, 51, 68
1, 132428, Control_c, 0, 64, 102
1, 132429, Control_c, 0, 67, 67
1, 132465, Control_c, 0, 67, 61
1, 132484, Control_c, 0, 67, 56
1, 132503, Control_c, 0, 67, 52
1, 132523, Control_c, 0, 64, 98
1, 132523, Control_c, 0, 67, 48
1, 132539, Control_c, 0, 67, 43
1, 132553, Note_on_c, 0, 56, 67
1, 132558, Control_c, 0, 67, 38
1, 132573, Note_off_c, 0, 51, 51
1, 132573, Poly_aftertouch_c, 0, 51, 0
1, 132576, Control_c, 0, 64, 93
1, 132577, Control_c, 0, 67, 33
1, 132596, Control_c, 0, 67, 28
1, 132633, Control_c, 0, 64, 87
1, 132635, Control_c, 0, 67, 21
1, 132652, Control_c, 0, 64, 82
1, 132654, Control_c, 0, 67, 17
1, 132671, Control_c, 0, 64, 75
1, 132673, Control_c, 0, 67, 13
1, 132688, Control_c, 0, 64, 66
1, 132692, Note_on_c, 0, 60, 63
1, 132708, Control_c, 0, 64, 54
1, 132728, Control_c, 0, 64, 34
1, 132746, Control_c, 0, 64, 0
1, 132764, Control_c, 0, 67, 0
1, 132832, Note_on_c, 0, 63, 68
1, 132871, Note_on_c, 0, 51, 47
1, 132876, Control_c, 0, 64, 30
1, 132881, Note_off_c, 0, 56, 29
1, 132896, Control_c, 0, 64, 44
1, 132905, Note_off_c, 0, 36, 58
1, 132913, Control_c, 0, 64, 55
1, 132933, Control_c, 0, 64, 65
1, 132951, Control_c, 0, 64, 74
1, 132964, Note_off_c, 0, 39, 57
1, 132969, Control_c, 0, 64, 82
1, 132990, Control_c, 0, 64, 90
1, 133007, Control_c, 0, 64, 98
1, 133027, Control_c, 0, 64, 107
1, 133033, Note_off_c, 0, 48, 39
1, 133033, Poly_aftertouch_c, 0, 48, 0
1, 133044, Control_c, 0, 64, 115
1, 133064, Control_c, 0, 64, 123
1, 133081, Control_c, 0, 64, 127
1, 133089, Note_off_c, 0, 51, 36
1, 133089, Poly_aftertouch_c, 0, 51, 0
1, 133100, Note_off_c, 0, 63, 38
1, 133100, Poly_aftertouch_c, 0, 63, 0
1, 133217, Note_on_c, 0, 63, 78
1, 133230, Note_on_c, 0, 51, 63
1, 133286, Note_off_c, 0, 60, 40
1, 133286, Poly_aftertouch_c, 0, 60, 0
1, 133306, Note_off_c, 0, 63, 55
1, 133306, Poly_aftertouch_c, 0, 63, 0
1, 133335, Note_off_c, 0, 51, 56
1, 133335, Poly_aftertouch_c, 0, 51, 0
1, 133523, Note_on_c, 0, 63, 83
1, 133530, Note_on_c, 0, 51, 67
1, 133540, Note_on_c, 0, 43, 64
1, 133544, Note_on_c, 0, 58, 69
1, 133568, Control_c, 0, 64, 112
1, 133587, Control_c, 0, 64, 87
1, 133606, Control_c, 0, 64, 62
1, 133625, Control_c, 0, 64, 44
1, 133643, Control_c, 0, 64, 26
1, 133664, Control_c, 0, 64, 18
1, 133680, Control_c, 0, 64, 23
1, 133699, Control_c, 0, 64, 34
1, 133709, Note_off_c, 0, 63, 57
1, 133709, Poly_aftertouch_c, 0, 63, 0
1, 133717, Control_c, 0, 64, 48
1, 133737, Control_c, 0, 64, 63
1, 133756, Note_off_c, 0, 51, 37
1, 133756, Poly_aftertouch_c, 0, 51, 0
1, 133756, Control_c, 0, 64, 74
1, 133774, Control_c, 0, 64, 82
1, 133793, Control_c, 0, 64, 88
1, 133810, Control_c, 0, 64, 96
1, 133816, Note_on_c, 0, 51, 41
1, 133830, Control_c, 0, 64, 104
1, 133838, Note_on_c, 0, 63, 68
1, 133850, Control_c, 0, 64, 113
1, 133869, Control_c, 0, 64, 122
1, 133886, Control_c, 0, 64, 127
1, 133903, Note_off_c, 0, 63, 57
1, 133903, Poly_aftertouch_c, 0, 63, 0
1, 133919, Note_off_c, 0, 58, 60
1, 133919, Poly_aftertouch_c, 0, 58, 0
1, 133927, Note_off_c, 0, 51, 51
1, 133927, Poly_aftertouch_c, 0, 51, 0
1, 133994, Note_off_c, 0, 43, 60
1, 134132, Note_on_c, 0, 63, 78
1, 134139, Note_on_c, 0, 61, 72
1, 134151, Note_on_c, 0, 56, 70
1, 134153, Note_on_c, 0, 51, 63
1, 134165, Control_c, 0, 64, 119
1, 134166, Note_on_c, 0, 44, 57
1, 134186, Control_c, 0, 64, 96
1, 134205, Control_c, 0, 64, 71
1, 134222, Control_c, 0, 64, 48
1, 134242, Control_c, 0, 64, 17
1, 134260, Control_c, 0, 64, 0
1, 134336, Control_c, 0, 64, 25
1, 134353, Control_c, 0, 64, 43
1, 134373, Control_c, 0, 64, 58
1, 134391, Control_c, 0, 64, 70
1, 134410, Control_c, 0, 64, 79
1, 134430, Control_c, 0, 64, 89
1, 134447, Control_c, 0, 64, 102
1, 134451, Note_on_c, 0, 60, 59
1, 134457, Note_off_c, 0, 51, 48
1, 134457, Poly_aftertouch_c, 0, 51, 0
1, 134466, Control_c, 0, 64, 117
1, 134475, Note_off_c, 0, 63, 52
1, 134475, Poly_aftertouch_c, 0, 63, 0
1, 134484, Control_c, 0, 64, 127
1, 134499, Note_off_c, 0, 56, 60
1, 134598, Note_off_c, 0, 61, 24
1, 134747, Control_c, 0, 64, 122
1, 134766, Control_c, 0, 64, 114
1, 134782, Note_on_c, 0, 63, 58
1, 134783, Control_c, 0, 64, 102
1, 134790, Note_on_c, 0, 58, 50
1, 134794, Note_on_c, 0, 55, 47
1, 134802, Control_c, 0, 64, 86
1, 134805, Note_on_c, 0, 51, 40
1, 134809, Note_on_c, 0, 39, 42
1, 134815, Note_off_c, 0, 60, 36
1, 134815, Poly_aftertouch_c, 0, 60, 0
1, 134820, Control_c, 0, 64, 69
1, 134842, Control_c, 0, 64, 52
1, 134859, Control_c, 0, 64, 24
1, 134868, Note_off_c, 0, 44, 60
1, 134868, Poly_aftertouch_c, 0, 44, 0
1, 134877, Control_c, 0, 64, 0
1, 135008, Control_c, 0, 64, 31
1, 135026, Control_c, 0, 64, 48
1, 135040, Note_off_c, 0, 55, 56
1, 135045, Control_c, 0, 64, 61
1, 135065, Control_c, 0, 64, 72
1, 135083, Control_c, 0, 64, 80
1, 135102, Note_off_c, 0, 39, 59
1, 135102, Control_c, 0, 64, 87
1, 135121, Control_c, 0, 64, 95
1, 135126, Note_off_c, 0, 58, 60
1, 135126, Poly_aftertouch_c, 0, 58, 0
1, 135139, Control_c, 0, 64, 102
1, 135142, Note_off_c, 0, 63, 38
1, 135142, Poly_aftertouch_c, 0, 63, 0
1, 135150, Note_off_c, 0, 51, 52
1, 135150, Poly_aftertouch_c, 0, 51, 0
1, 135158, Control_c, 0, 64, 110
1, 135176, Control_c, 0, 64, 117
1, 135195, Control_c, 0, 64, 123
1, 135215, Control_c, 0, 64, 127
1, 135504, Note_on_c, 0, 60, 58
1, 135532, Control_c, 0, 64, 120
1, 135542, Note_on_c, 0, 58, 60
1, 135550, Control_c, 0, 64, 112
1, 135569, Control_c, 0, 64, 102
1, 135588, Control_c, 0, 64, 91
1, 135606, Control_c, 0, 64, 81
1, 135626, Control_c, 0, 64, 72
1, 135644, Control_c, 0, 64, 64
1, 135652, Note_off_c, 0, 60, 54
1, 135652, Poly_aftertouch_c, 0, 60, 0
1, 135662, Control_c, 0, 64, 57
1, 135682, Control_c, 0, 64, 49
1, 135699, Control_c, 0, 64, 35
1, 135717, Note_on_c, 0, 57, 67
1, 135718, Control_c, 0, 64, 8
1, 135738, Control_c, 0, 64, 0
1, 135745, Note_off_c, 0, 58, 60
1, 135745, Poly_aftertouch_c, 0, 58, 0
1, 135846, Note_on_c, 0, 58, 69
1, 135933, Note_off_c, 0, 57, 57
1, 135981, Note_on_c, 0, 60, 61
1, 136040, Note_off_c, 0, 58, 56
1, 136040, Poly_aftertouch_c, 0, 58, 0
1, 136102, Note_off_c, 0, 60, 61
1, 136102, Poly_aftertouch_c, 0, 60, 0
1, 136116, Note_on_c, 0, 61, 66
1, 136136, Note_on_c, 0, 41, 51
1, 136149, Control_c, 0, 64, 13
1, 136167, Control_c, 0, 64, 29
1, 136187, Control_c, 0, 64, 41
1, 136194, Note_off_c, 0, 61, 62
1, 136205, Control_c, 0, 64, 50
1, 136224, Control_c, 0, 64, 56
1, 136242, Control_c, 0, 64, 64
1, 136260, Control_c, 0, 64, 70
1, 136264, Note_on_c, 0, 61, 58
1, 136280, Control_c, 0, 64, 77
1, 136298, Control_c, 0, 64, 83
1, 136316, Note_off_c, 0, 41, 60
1, 136316, Control_c, 0, 64, 89
1, 136336, Control_c, 0, 64, 96
1, 136355, Control_c, 0, 64, 102
1, 136373, Control_c, 0, 64, 107
1, 136410, Control_c, 0, 64, 112
1, 136413, Note_on_c, 0, 65, 74
1, 136542, Note_on_c, 0, 68, 73
1, 136569, Note_off_c, 0, 61, 29
1, 136691, Control_c, 0, 64, 105
1, 136701, Note_on_c, 0, 73, 75
1, 136703, Poly_aftertouch_c, 0, 66, 20
1, 136709, Control_c, 0, 64, 97
1, 136721, Note_on_c, 0, 56, 57
1, 136724, Poly_aftertouch_c, 0, 66, 0
1, 136728, Control_c, 0, 64, 85
1, 136732, Note_on_c, 0, 53, 40
1, 136748, Control_c, 0, 64, 70
1, 136757, Note_off_c, 0, 65, 35
1, 136757, Poly_aftertouch_c, 0, 65, 0
1, 136765, Control_c, 0, 64, 54
1, 136784, Control_c, 0, 64, 32
1, 136803, Control_c, 0, 64, 0
1, 136927, Note_off_c, 0, 68, 42
1, 136934, Control_c, 0, 64, 8
1, 136953, Control_c, 0, 64, 30
1, 136970, Control_c, 0, 64, 47
1, 136990, Control_c, 0, 64, 63
1, 137009, Control_c, 0, 64, 76
1, 137028, Control_c, 0, 64, 88
1, 137046, Control_c, 0, 64, 101
1, 137066, Control_c, 0, 64, 115
1, 137085, Control_c, 0, 64, 126
1, 137129, Note_off_c, 0, 56, 40
1, 137346, Control_c, 0, 64, 120
1, 137352, Note_on_c, 0, 72, 58
1, 137364, Control_c, 0, 64, 110
1, 137367, Note_on_c, 0, 56, 48
1, 137381, Note_on_c, 0, 51, 41
1, 137383, Control_c, 0, 64, 95
1, 137402, Control_c, 0, 64, 77
1, 137420, Control_c, 0, 64, 60
1, 137439, Control_c, 0, 64, 42
1, 137458, Control_c, 0, 64, 0
1, 137500, Note_off_c, 0, 53, 55
1, 137500, Poly_aftertouch_c, 0, 53, 0
1, 137571, Control_c, 0, 64, 31
1, 137588, Control_c, 0, 64, 50
1, 137607, Control_c, 0, 64, 67
1, 137619, Note_off_c, 0, 73, 22
1, 137619, Poly_aftertouch_c, 0, 73, 0
1, 137624, Control_c, 0, 64, 81
1, 137644, Control_c, 0, 64, 96
1, 137649, Note_off_c, 0, 72, 58
1, 137664, Control_c, 0, 64, 114
1, 137682, Control_c, 0, 64, 127
1, 137758, Note_off_c, 0, 56, 38
1, 137794, Control_c, 0, 67, 8
1, 137850, Control_c, 0, 67, 13
1, 137888, Control_c, 0, 67, 18
1, 137925, Control_c, 0, 67, 25
1, 137963, Control_c, 0, 67, 32
1, 137977, Note_on_c, 0, 50, 42
1, 137978, Note_on_c, 0, 56, 42
1, 138000, Control_c, 0, 67, 37
1, 138018, Control_c, 0, 64, 122
1, 138038, Control_c, 0, 64, 112
1, 138056, Control_c, 0, 64, 99
1, 138075, Control_c, 0, 64, 83
1, 138094, Control_c, 0, 64, 68
1, 138111, Control_c, 0, 64, 56
1, 138131, Control_c, 0, 64, 48
1, 138137, Note_on_c, 0, 77, 53
1, 138144, Note_off_c, 0, 51, 35
1, 138144, Poly_aftertouch_c, 0, 51, 0
1, 138150, Control_c, 0, 64, 44
1, 138188, Control_c, 0, 64, 51
1, 138205, Control_c, 0, 64, 60
1, 138207, Control_c, 0, 67, 32
1, 138210, Note_off_c, 0, 56, 60
1, 138225, Control_c, 0, 64, 71
1, 138243, Control_c, 0, 64, 80
1, 138245, Control_c, 0, 67, 23
1, 138261, Control_c, 0, 64, 88
1, 138264, Control_c, 0, 67, 18
1, 138281, Control_c, 0, 64, 99
1, 138283, Control_c, 0, 67, 12
1, 138285, Note_on_c, 0, 80, 63
1, 138299, Control_c, 0, 64, 113
1, 138318, Control_c, 0, 64, 127
1, 138404, Note_off_c, 0, 50, 53
1, 138427, Note_on_c, 0, 82, 71
1, 138461, Note_off_c, 0, 77, 31
1, 138597, Note_on_c, 0, 89, 71
1, 138598, Control_c, 0, 67, 8
1, 138612, Note_on_c, 0, 58, 40
1, 138616, Control_c, 0, 64, 118
1, 138625, Note_on_c, 0, 55, 36
1, 138632, Note_on_c, 0, 49, 39
1, 138634, Control_c, 0, 64, 105
1, 138655, Control_c, 0, 64, 88
1, 138672, Note_off_c, 0, 80, 49
1, 138672, Control_c, 0, 64, 72
1, 138693, Control_c, 0, 64, 60
1, 138710, Control_c, 0, 64, 53
1, 138711, Control_c, 0, 67, 12
1, 138729, Control_c, 0, 64, 51
1, 138748, Control_c, 0, 67, 18
1, 138759, Note_off_c, 0, 82, 60
1, 138766, Control_c, 0, 64, 57
1, 138767, Control_c, 0, 67, 22
1, 138785, Control_c, 0, 64, 65
1, 138786, Control_c, 0, 67, 26
1, 138804, Control_c, 0, 64, 73
1, 138806, Control_c, 0, 67, 30
1, 138823, Control_c, 0, 64, 80
1, 138824, Control_c, 0, 67, 35
1, 138842, Control_c, 0, 64, 89
1, 138843, Control_c, 0, 67, 40
1, 138852, Note_off_c, 0, 58, 62
1, 138852, Poly_aftertouch_c, 0, 58, 0
1, 138859, Control_c, 0, 64, 101
1, 138860, Control_c, 0, 67, 45
1, 138879, Control_c, 0, 64, 113
1, 138891, Note_off_c, 0, 55, 36
1, 138897, Control_c, 0, 64, 124
1, 138898, Control_c, 0, 67, 51
1, 138934, Control_c, 0, 67, 57
1, 138953, Control_c, 0, 67, 61
1, 138972, Control_c, 0, 67, 66
1, 138990, Control_c, 0, 67, 72
1, 139010, Control_c, 0, 67, 77
1, 139012, Note_off_c, 0, 49, 33
1, 139046, Control_c, 0, 67, 81
1, 139084, Control_c, 0, 67, 87
1, 139121, Control_c, 0, 67, 91
1, 139178, Control_c, 0, 67, 97
1, 139234, Control_c, 0, 67, 102
1, 139266, Note_on_c, 0, 87, 54
1, 139287, Note_on_c, 0, 56, 33
1, 139291, Control_c, 0, 64, 120
1, 139293, Note_on_c, 0, 60, 33
1, 139293, Control_c, 0, 67, 106
1, 139309, Control_c, 0, 64, 111
1, 139310, Note_on_c, 0, 48, 27
1, 139327, Control_c, 0, 64, 97
1, 139346, Control_c, 0, 64, 79
1, 139356, Note_off_c, 0, 89, 40
1, 139365, Control_c, 0, 64, 61
1, 139383, Control_c, 0, 64, 46
1, 139384, Control_c, 0, 67, 110
1, 139402, Control_c, 0, 64, 25
1, 139422, Control_c, 0, 64, 0
1, 139458, Control_c, 0, 64, 12
1, 139459, Control_c, 0, 67, 115
1, 139478, Control_c, 0, 64, 27
1, 139496, Control_c, 0, 64, 39
1, 139498, Control_c, 0, 67, 121
1, 139515, Control_c, 0, 64, 49
1, 139533, Control_c, 0, 64, 56
1, 139534, Control_c, 0, 67, 126
1, 139551, Control_c, 0, 64, 63
1, 139571, Control_c, 0, 64, 69
1, 139575, Note_off_c, 0, 87, 58
1, 139589, Control_c, 0, 64, 74
1, 139607, Control_c, 0, 64, 80
1, 139627, Note_off_c, 0, 56, 54
1, 139628, Control_c, 0, 64, 89
1, 139646, Control_c, 0, 64, 99
1, 139664, Control_c, 0, 64, 111
1, 139683, Control_c, 0, 64, 121
1, 139698, Note_off_c, 0, 60, 37
1, 139698, Poly_aftertouch_c, 0, 60, 0
1, 139701, Control_c, 0, 64, 127
1, 139905, Note_off_c, 0, 48, 31
1, 139905, Poly_aftertouch_c, 0, 48, 0
1, 140094, Control_c, 0, 64, 122
1, 140121, Note_on_c, 0, 51, 44
1, 140131, Control_c, 0, 64, 117
1, 140169, Control_c, 0, 64, 109
1, 140188, Control_c, 0, 64, 103
1, 140206, Control_c, 0, 64, 97
1, 140226, Control_c, 0, 64, 92
1, 140244, Control_c, 0, 64, 86
1, 140262, Control_c, 0, 64, 80
1, 140280, Control_c, 0, 64, 75
1, 140283, Note_on_c, 0, 60, 38
1, 140300, Control_c, 0, 64, 71
1, 140319, Control_c, 0, 64, 68
1, 140339, Control_c, 0, 64, 63
1, 140356, Control_c, 0, 64, 60
1, 140374, Control_c, 0, 64, 55
1, 140393, Control_c, 0, 64, 50
1, 140411, Control_c, 0, 64, 42
1, 140430, Control_c, 0, 64, 31
1, 140435, Note_on_c, 0, 63, 46
1, 140450, Control_c, 0, 64, 8
1, 140467, Control_c, 0, 64, 0
1, 140590, Note_on_c, 0, 68, 41
1, 140758, Note_on_c, 0, 72, 59
1, 140805, Control_c, 0, 64, 18
1, 140823, Control_c, 0, 64, 31
1, 140843, Control_c, 0, 64, 42
1, 140853, Note_off_c, 0, 63, 58
1, 140853, Poly_aftertouch_c, 0, 63, 0
1, 140860, Control_c, 0, 64, 51
1, 140879, Control_c, 0, 64, 59
1, 140899, Control_c, 0, 64, 66
1, 140904, Poly_aftertouch_c, 0, 60, 24
1, 140917, Control_c, 0, 64, 70
1, 140924, Note_off_c, 0, 60, 51
1, 140924, Poly_aftertouch_c, 0, 60, 0
1, 140925, Poly_aftertouch_c, 0, 60, 0
1, 140936, Control_c, 0, 64, 74
1, 140954, Control_c, 0, 64, 77
1, 140973, Control_c, 0, 64, 82
1, 140992, Control_c, 0, 64, 87
1, 141010, Control_c, 0, 64, 93
1, 141029, Control_c, 0, 64, 98
1, 141048, Control_c, 0, 64, 103
1, 141049, Note_off_c, 0, 68, 37
1, 141066, Control_c, 0, 64, 107
1, 141085, Control_c, 0, 64, 111
1, 141123, Control_c, 0, 64, 116
1, 141291, Control_c, 0, 64, 111
1, 141328, Control_c, 0, 64, 107
1, 141365, Control_c, 0, 64, 100
1, 141385, Control_c, 0, 64, 94
1, 141403, Note_on_c, 0, 67, 28
1, 141403, Control_c, 0, 64, 88
1, 141412, Note_on_c, 0, 61, 30
1, 141421, Control_c, 0, 64, 82
1, 141437, Note_on_c, 0, 39, 32
1, 141440, Control_c, 0, 64, 76
1, 141459, Control_c, 0, 64, 69
1, 141477, Control_c, 0, 64, 62
1, 141498, Control_c, 0, 64, 53
1, 141516, Control_c, 0, 64, 42
1, 141533, Control_c, 0, 64, 31
1, 141558, Note_off_c, 0, 51, 34
1, 141558, Poly_aftertouch_c, 0, 51, 0
1, 141591, Control_c, 0, 64, 38
1, 141608, Control_c, 0, 64, 44
1, 141628, Control_c, 0, 64, 52
1, 141646, Control_c, 0, 64, 60
1, 141665, Control_c, 0, 64, 67
1, 141683, Control_c, 0, 64, 71
1, 141703, Control_c, 0, 64, 73
1, 141730, Note_on_c, 0, 70, 42
1, 141737, Control_c, 0, 64, 76
1, 141761, Note_off_c, 0, 67, 39
1, 141761, Poly_aftertouch_c, 0, 67, 0
1, 141765, Note_off_c, 0, 61, 43
1, 141777, Control_c, 0, 64, 78
1, 141796, Note_off_c, 0, 72, 31
1, 141833, Control_c, 0, 64, 80
1, 141964, Control_c, 0, 64, 78
1, 141985, Note_off_c, 0, 70, 33
1, 142020, Control_c, 0, 64, 75
1, 142058, Control_c, 0, 64, 72
1, 142059, Note_off_c, 0, 39, 33
1, 142060, Note_on_c, 0, 68, 37
1, 142075, Control_c, 0, 64, 70
1, 142089, Note_on_c, 0, 44, 25
1, 142093, Control_c, 0, 64, 68
1, 142103, Note_on_c, 0, 60, 27
1, 142112, Control_c, 0, 64, 65
1, 142132, Control_c, 0, 64, 60
1, 142151, Control_c, 0, 64, 56
1, 142169, Control_c, 0, 64, 52
1, 142189, Control_c, 0, 64, 46
1, 142206, Control_c, 0, 64, 38
1, 142226, Control_c, 0, 64, 25
1, 142244, Control_c, 0, 64, 10
1, 142301, Control_c, 0, 64, 25
1, 142319, Control_c, 0, 64, 35
1, 142339, Control_c, 0, 64, 47
1, 142340, Note_off_c, 0, 44, 41
1, 142340, Poly_aftertouch_c, 0, 44, 0
1, 142356, Control_c, 0, 64, 56
1, 142376, Control_c, 0, 64, 61
1, 142395, Control_c, 0, 64, 64
1, 142600, Control_c, 0, 64, 62
1, 142637, Control_c, 0, 64, 61
1, 142656, Control_c, 0, 64, 60
1, 142713, Control_c, 0, 64, 58
1, 142730, Control_c, 0, 64, 56
1, 142749, Control_c, 0, 64, 53
1, 142768, Control_c, 0, 64, 49
1, 142786, Control_c, 0, 64, 44
1, 142789, Note_on_c, 0, 32, 30
1, 142805, Control_c, 0, 64, 37
1, 142825, Control_c, 0, 64, 29
1, 142843, Control_c, 0, 64, 21
1, 142872, Note_off_c, 0, 60, 38
1, 142899, Control_c, 0, 64, 31
1, 142919, Control_c, 0, 64, 41
1, 142926, Note_off_c, 0, 68, 53
1, 142937, Control_c, 0, 64, 52
1, 142955, Control_c, 0, 64, 61
1, 142974, Control_c, 0, 64, 69
1, 142977, Note_off_c, 0, 32, 45
1, 142992, Control_c, 0, 64, 73
1, 143011, Control_c, 0, 64, 77
1, 143029, Control_c, 0, 64, 81
1, 143049, Control_c, 0, 64, 85
1, 143068, Control_c, 0, 64, 88
1, 143104, Control_c, 0, 64, 95
1, 143125, Control_c, 0, 64, 99
1, 143161, Control_c, 0, 64, 104
1, 143348, Control_c, 0, 64, 100
1, 143404, Control_c, 0, 64, 95
1, 143478, Control_c, 0, 64, 91
1, 143534, Control_c, 0, 64, 88
1, 143629, Control_c, 0, 64, 86
1, 143703, Control_c, 0, 64, 84
1, 143758, Control_c, 0, 64, 82
1, 143815, Control_c, 0, 64, 79
1, 143849, Note_on_c, 0, 39, 26
1, 143852, Control_c, 0, 64, 76
1, 143856, Note_on_c, 0, 51, 21
1, 143871, Control_c, 0, 64, 72
1, 143890, Control_c, 0, 64, 68
1, 143909, Control_c, 0, 64, 64
1, 143927, Control_c, 0, 64, 61
1, 143947, Control_c, 0, 64, 60
1, 143984, Control_c, 0, 64, 61
1, 144002, Control_c, 0, 64, 64
1, 144021, Control_c, 0, 64, 67
1, 144039, Control_c, 0, 64, 71
1, 144059, Control_c, 0, 64, 74
1, 144075, Note_on_c, 0, 63, 28
1, 144075, Control_c, 0, 64, 77
1, 144093, Note_off_c, 0, 39, 39
1, 144093, Note_off_c, 0, 51, 40
1, 144093, Note_on_c, 0, 60, 26
1, 144093, Poly_aftertouch_c, 0, 51, 0
1, 144094, Control_c, 0, 64, 80
1, 144114, Control_c, 0, 64, 83
1, 144134, Control_c, 0, 64, 86
1, 144171, Control_c, 0, 64, 91
1, 144199, Note_off_c, 0, 60, 39
1, 144224, Note_off_c, 0, 63, 36
1, 144224, Poly_aftertouch_c, 0, 63, 0
1, 144246, Control_c, 0, 64, 95
1, 144268, Note_on_c, 0, 51, 31
1, 144276, Note_on_c, 0, 39, 33
1, 144321, Control_c, 0, 64, 100
1, 144368, Note_off_c, 0, 39, 48
1, 144407, Note_off_c, 0, 51, 38
1, 144407, Poly_aftertouch_c, 0, 51, 0
1, 144417, Note_on_c, 0, 63, 29
1, 144430, Note_on_c, 0, 60, 23
1, 144502, Note_off_c, 0, 60, 44
1, 144532, Note_off_c, 0, 63, 38
1, 144532, Poly_aftertouch_c, 0, 63, 0
1, 144572, Note_on_c, 0, 39, 41
1, 144588, Note_on_c, 0, 51, 39
1, 144651, Note_off_c, 0, 39, 56
1, 144667, Note_off_c, 0, 51, 52
1, 144667, Poly_aftertouch_c, 0, 51, 0
1, 144730, Note_on_c, 0, 63, 29
1, 144739, Note_on_c, 0, 60, 32
1, 144801, Note_off_c, 0, 60, 44
1, 144808, Note_off_c, 0, 63, 51
1, 144808, Poly_aftertouch_c, 0, 63, 0
1, 144843, Control_c, 0, 64, 96
1, 144881, Control_c, 0, 64, 91
1, 144899, Control_c, 0, 64, 86
1, 144911, Note_on_c, 0, 56, 38
1, 144911, Note_on_c, 0, 44, 36
1, 144918, Control_c, 0, 64, 79
1, 144937, Control_c, 0, 64, 72
1, 144955, Control_c, 0, 64, 68
1, 144974, Control_c, 0, 64, 67
1, 145012, Control_c, 0, 64, 69
1, 145019, Note_off_c, 0, 56, 47
1, 145030, Control_c, 0, 64, 72
1, 145044, Note_on_c, 0, 60, 36
1, 145045, Note_off_c, 0, 44, 54
1, 145045, Poly_aftertouch_c, 0, 44, 0
1, 145049, Control_c, 0, 64, 75
1, 145054, Note_on_c, 0, 63, 25
1, 145068, Control_c, 0, 64, 78
1, 145087, Control_c, 0, 64, 81
1, 145127, Note_off_c, 0, 60, 52
1, 145139, Note_off_c, 0, 63, 51
1, 145139, Poly_aftertouch_c, 0, 63, 0
1, 145208, Note_on_c, 0, 56, 36
1, 145230, Note_on_c, 0, 44, 33
1, 145295, Note_off_c, 0, 44, 55
1, 145295, Poly_aftertouch_c, 0, 44, 0
1, 145302, Note_off_c, 0, 56, 52
1, 145346, Note_on_c, 0, 63, 29
1, 145349, Note_on_c, 0, 60, 24
1, 145405, Control_c, 0, 64, 84
1, 145423, Note_off_c, 0, 60, 45
1, 145428, Note_off_c, 0, 63, 49
1, 145428, Poly_aftertouch_c, 0, 63, 0
1, 145460, Control_c, 0, 64, 86
1, 145484, Note_on_c, 0, 56, 35
1, 145488, Note_on_c, 0, 44, 27
1, 145572, Control_c, 0, 64, 88
1, 145595, Note_off_c, 0, 56, 47
1, 145613, Note_off_c, 0, 44, 40
1, 145613, Poly_aftertouch_c, 0, 44, 0
1, 145616, Note_on_c, 0, 60, 29
1, 145616, Note_on_c, 0, 63, 35
1, 145666, Control_c, 0, 64, 92
1, 145701, Note_off_c, 0, 63, 50
1, 145701, Poly_aftertouch_c, 0, 63, 0
1, 145705, Note_off_c, 0, 60, 42
1, 145760, Note_on_c, 0, 56, 32
1, 145786, Note_on_c, 0, 44, 40
1, 145858, Note_off_c, 0, 44, 51
1, 145858, Poly_aftertouch_c, 0, 44, 0
1, 145888, Note_off_c, 0, 56, 51
1, 145895, Note_on_c, 0, 60, 26
1, 145904, Note_on_c, 0, 63, 30
1, 145973, Note_off_c, 0, 63, 53
1, 145973, Poly_aftertouch_c, 0, 63, 0
1, 145979, Note_off_c, 0, 60, 42
1, 146044, Note_on_c, 0, 44, 38
1, 146046, Note_on_c, 0, 56, 36
1, 146128, Note_off_c, 0, 44, 50
1, 146128, Poly_aftertouch_c, 0, 44, 0
1, 146137, Note_off_c, 0, 56, 53
1, 146177, Note_on_c, 0, 60, 36
1, 146184, Note_on_c, 0, 63, 40
1, 146225, Note_off_c, 0, 60, 65
1, 146233, Note_off_c, 0, 63, 64
1, 146233, Poly_aftertouch_c, 0, 63, 0
1, 146312, Note_on_c, 0, 56, 48
1, 146314, Note_on_c, 0, 44, 47
1, 146376, Note_off_c, 0, 56, 51
1, 146464, Note_on_c, 0, 63, 41
1, 146470, Control_c, 0, 64, 88
1, 146474, Note_on_c, 0, 58, 36
1, 146477, Note_off_c, 0, 44, 31
1, 146477, Poly_aftertouch_c, 0, 44, 0
1, 146479, Note_on_c, 0, 61, 39
1, 146509, Control_c, 0, 64, 86
1, 146545, Control_c, 0, 64, 83
1, 146548, Note_off_c, 0, 61, 53
1, 146554, Note_off_c, 0, 63, 53
1, 146554, Poly_aftertouch_c, 0, 63, 0
1, 146556, Note_off_c, 0, 58, 52
1, 146556, Poly_aftertouch_c, 0, 58, 0
1, 146564, Control_c, 0, 64, 80
1, 146582, Control_c, 0, 64, 76
1, 146602, Control_c, 0, 64, 73
1, 146615, Note_on_c, 0, 55, 35
1, 146621, Control_c, 0, 64, 68
1, 146628, Note_on_c, 0, 43, 38
1, 146638, Control_c, 0, 64, 63
1, 146657, Control_c, 0, 64, 58
1, 146713, Control_c, 0, 64, 60
1, 146729, Note_off_c, 0, 43, 50
1, 146731, Note_off_c, 0, 55, 48
1, 146732, Control_c, 0, 64, 65
1, 146747, Note_on_c, 0, 58, 32
1, 146748, Note_on_c, 0, 63, 37
1, 146750, Control_c, 0, 64, 70
1, 146753, Note_on_c, 0, 61, 32
1, 146769, Control_c, 0, 64, 76
1, 146789, Control_c, 0, 64, 80
1, 146824, Note_off_c, 0, 61, 53
1, 146836, Note_off_c, 0, 63, 54
1, 146836, Poly_aftertouch_c, 0, 63, 0
1, 146840, Note_off_c, 0, 58, 50
1, 146840, Poly_aftertouch_c, 0, 58, 0
1, 146877, Note_on_c, 0, 55, 41
1, 146887, Note_on_c, 0, 43, 34
1, 146964, Note_off_c, 0, 55, 49
1, 146964, Note_off_c, 0, 43, 56
1, 147017, Note_on_c, 0, 61, 33
1, 147019, Note_on_c, 0, 63, 37
1, 147021, Note_on_c, 0, 58, 38
1, 147088, Note_off_c, 0, 61, 54
1, 147088, Note_off_c, 0, 63, 56
1, 147088, Poly_aftertouch_c, 0, 63, 0
1, 147090, Note_off_c, 0, 58, 48
1, 147090, Poly_aftertouch_c, 0, 58, 0
1, 147124, Control_c, 0, 64, 76
1, 147144, Control_c, 0, 64, 69
1, 147160, Note_on_c, 0, 41, 51
1, 147161, Control_c, 0, 64, 62
1, 147182, Control_c, 0, 64, 60
1, 147195, Note_on_c, 0, 53, 28
1, 147219, Control_c, 0, 64, 62
1, 147231, Note_off_c, 0, 41, 51
1, 147237, Control_c, 0, 64, 65
1, 147254, Note_off_c, 0, 53, 59
1, 147254, Poly_aftertouch_c, 0, 53, 0
1, 147255, Control_c, 0, 64, 69
1, 147275, Control_c, 0, 64, 74
1, 147282, Note_on_c, 0, 61, 30
1, 147283, Note_on_c, 0, 63, 36
1, 147293, Control_c, 0, 64, 78
1, 147295, Note_on_c, 0, 58, 26
1, 147313, Control_c, 0, 64, 81
1, 147356, Note_off_c, 0, 61, 54
1, 147361, Note_off_c, 0, 58, 47
1, 147361, Note_off_c, 0, 63, 55
1, 147361, Poly_aftertouch_c, 0, 58, 0
1, 147361, Poly_aftertouch_c, 0, 63, 0
1, 147435, Note_on_c, 0, 55, 40
1, 147450, Note_on_c, 0, 43, 40
1, 147481, Note_off_c, 0, 55, 59
1, 147496, Note_off_c, 0, 43, 62
1, 147546, Note_on_c, 0, 61, 42
1, 147549, Note_on_c, 0, 63, 43
1, 147553, Control_c, 0, 64, 84
1, 147571, Note_on_c, 0, 58, 31
1, 147572, Control_c, 0, 64, 87
1, 147611, Control_c, 0, 64, 91
1, 147625, Note_off_c, 0, 61, 53
1, 147627, Note_off_c, 0, 63, 51
1, 147627, Poly_aftertouch_c, 0, 63, 0
1, 147630, Note_off_c, 0, 58, 49
1, 147630, Poly_aftertouch_c, 0, 58, 0
1, 147686, Control_c, 0, 64, 95
1, 147708, Note_on_c, 0, 39, 48
1, 147712, Note_on_c, 0, 51, 45
1, 147722, Control_c, 0, 64, 100
1, 147760, Control_c, 0, 64, 107
1, 147767, Note_off_c, 0, 39, 54
1, 147778, Note_off_c, 0, 51, 53
1, 147778, Poly_aftertouch_c, 0, 51, 0
1, 147797, Control_c, 0, 64, 111
1, 147822, Note_on_c, 0, 63, 48
1, 147831, Note_on_c, 0, 61, 41
1, 147839, Note_on_c, 0, 58, 23
1, 147878, Note_off_c, 0, 61, 59
1, 147896, Note_off_c, 0, 58, 42
1, 147896, Poly_aftertouch_c, 0, 58, 0
1, 147901, Note_off_c, 0, 63, 59
1, 147901, Poly_aftertouch_c, 0, 63, 0
1, 147910, Control_c, 0, 64, 104
1, 147929, Control_c, 0, 64, 92
1, 147948, Control_c, 0, 64, 77
1, 147966, Control_c, 0, 64, 65
1, 147968, Note_on_c, 0, 39, 48
1, 147984, Note_on_c, 0, 51, 43
1, 147984, Control_c, 0, 64, 62
1, 148003, Control_c, 0, 64, 63
1, 148022, Control_c, 0, 64, 66
1, 148038, Note_off_c, 0, 39, 59
1, 148041, Control_c, 0, 64, 70
1, 148059, Control_c, 0, 64, 77
1, 148069, Note_off_c, 0, 51, 59
1, 148069, Poly_aftertouch_c, 0, 51, 0
1, 148077, Control_c, 0, 64, 84
1, 148097, Note_on_c, 0, 60, 38
1, 148097, Note_on_c, 0, 63, 37
1, 148097, Control_c, 0, 64, 91
1, 148115, Control_c, 0, 64, 97
1, 148159, Note_off_c, 0, 63, 58
1, 148159, Poly_aftertouch_c, 0, 63, 0
1, 148166, Note_off_c, 0, 60, 57
1, 148210, Control_c, 0, 64, 101
1, 148236, Note_on_c, 0, 56, 58
1, 148257, Note_on_c, 0, 44, 44
1, 148287, Note_off_c, 0, 56, 59
1, 148315, Note_off_c, 0, 44, 59
1, 148315, Poly_aftertouch_c, 0, 44, 0
1, 148321, Control_c, 0, 64, 106
1, 148359, Control_c, 0, 64, 110
1, 148375, Note_on_c, 0, 60, 39
1, 148375, Note_on_c, 0, 63, 47
1, 148396, Control_c, 0, 64, 114
1, 148436, Note_off_c, 0, 60, 57
1, 148441, Note_off_c, 0, 63, 53
1, 148441, Poly_aftertouch_c, 0, 63, 0
1, 148488, Note_on_c, 0, 39, 50
1, 148489, Control_c, 0, 64, 109
1, 148509, Control_c, 0, 64, 97
1, 148525, Control_c, 0, 64, 78
1, 148527, Note_on_c, 0, 51, 38
1, 148546, Control_c, 0, 64, 65
1, 148554, Note_off_c, 0, 39, 57
1, 148565, Control_c, 0, 64, 63
1, 148582, Control_c, 0, 64, 65
1, 148594, Note_off_c, 0, 51, 61
1, 148594, Poly_aftertouch_c, 0, 51, 0
1, 148602, Control_c, 0, 64, 69
1, 148621, Control_c, 0, 64, 76
1, 148631, Note_on_c, 0, 68, 43
1, 148634, Note_on_c, 0, 63, 35
1, 148637, Note_on_c, 0, 60, 33
1, 148640, Control_c, 0, 64, 86
1, 148658, Control_c, 0, 64, 97
1, 148676, Control_c, 0, 64, 107
1, 148696, Control_c, 0, 64, 114
1, 148704, Note_off_c, 0, 68, 56
1, 148712, Note_off_c, 0, 60, 53
1, 148713, Control_c, 0, 64, 118
1, 148716, Note_off_c, 0, 63, 52
1, 148716, Poly_aftertouch_c, 0, 63, 0
1, 148753, Note_on_c, 0, 56, 57
1, 148771, Control_c, 0, 64, 122
1, 148783, Note_on_c, 0, 44, 42
1, 148800, Note_off_c, 0, 56, 61
1, 148836, Note_off_c, 0, 44, 57
1, 148836, Poly_aftertouch_c, 0, 44, 0
1, 148845, Control_c, 0, 64, 126
1, 148883, Note_on_c, 0, 68, 51
1, 148891, Note_on_c, 0, 60, 48
1, 148913, Note_on_c, 0, 63, 38
1, 148945, Note_off_c, 0, 60, 64
1, 148973, Note_off_c, 0, 63, 56
1, 148973, Poly_aftertouch_c, 0, 63, 0
1, 148994, Control_c, 0, 64, 119
1, 149015, Control_c, 0, 64, 102
1, 149021, Note_on_c, 0, 39, 53
1, 149032, Control_c, 0, 64, 80
1, 149037, Note_on_c, 0, 51, 43
1, 149043, Note_off_c, 0, 68, 35
1, 149050, Control_c, 0, 64, 62
1, 149069, Control_c, 0, 64, 58
1, 149085, Note_off_c, 0, 39, 60
1, 149107, Control_c, 0, 64, 64
1, 149124, Note_off_c, 0, 51, 59
1, 149124, Poly_aftertouch_c, 0, 51, 0
1, 149124, Control_c, 0, 64, 71
1, 149143, Control_c, 0, 64, 81
1, 149151, Note_on_c, 0, 67, 53
1, 149156, Note_on_c, 0, 63, 41
1, 149162, Control_c, 0, 64, 92
1, 149182, Note_on_c, 0, 61, 38
1, 149182, Control_c, 0, 64, 106
1, 149200, Control_c, 0, 64, 118
1, 149220, Control_c, 0, 64, 125
1, 149229, Note_off_c, 0, 61, 51
1, 149232, Note_off_c, 0, 63, 47
1, 149232, Poly_aftertouch_c, 0, 63, 0
1, 149252, Note_off_c, 0, 67, 50
1, 149252, Poly_aftertouch_c, 0, 67, 0
1, 149306, Note_on_c, 0, 58, 42
1, 149316, Note_on_c, 0, 46, 30
1, 149344, Note_off_c, 0, 58, 54
1, 149344, Poly_aftertouch_c, 0, 58, 0
1, 149365, Note_off_c, 0, 46, 54
1, 149405, Note_on_c, 0, 67, 60
1, 149406, Note_on_c, 0, 63, 50
1, 149414, Note_on_c, 0, 61, 43
1, 149464, Note_off_c, 0, 61, 52
1, 149477, Note_off_c, 0, 63, 54
1, 149477, Poly_aftertouch_c, 0, 63, 0
1, 149517, Note_off_c, 0, 67, 49
1, 149517, Poly_aftertouch_c, 0, 67, 0
1, 149555, Control_c, 0, 64, 109
1, 149568, Note_on_c, 0, 39, 54
1, 149569, Note_on_c, 0, 51, 56
1, 149574, Control_c, 0, 64, 89
1, 149593, Control_c, 0, 64, 76
1, 149609, Note_off_c, 0, 39, 60
1, 149616, Note_off_c, 0, 51, 63
1, 149616, Poly_aftertouch_c, 0, 51, 0
1, 149630, Control_c, 0, 64, 81
1, 149650, Control_c, 0, 64, 90
1, 149667, Control_c, 0, 64, 103
1, 149686, Control_c, 0, 64, 122
1, 149704, Control_c, 0, 64, 127
1, 149711, Note_on_c, 0, 68, 47
1, 149725, Note_on_c, 0, 63, 41
1, 149762, Note_off_c, 0, 68, 60
1, 149775, Note_off_c, 0, 63, 52
1, 149775, Poly_aftertouch_c, 0, 63, 0
1, 149846, Note_on_c, 0, 48, 46
1, 149849, Note_on_c, 0, 60, 35
1, 149867, Note_on_c, 0, 59, 40
1, 149884, Note_off_c, 0, 48, 59
1, 149884, Poly_aftertouch_c, 0, 48, 0
1, 149892, Note_off_c, 0, 60, 50
1, 149902, Note_off_c, 0, 59, 47
1, 149957, Note_on_c, 0, 68, 50
1, 149963, Note_on_c, 0, 63, 34
1, 150022, Note_off_c, 0, 63, 54
1, 150022, Poly_aftertouch_c, 0, 63, 0
1, 150056, Note_off_c, 0, 68, 52
1, 150079, Control_c, 0, 64, 111
1, 150096, Control_c, 0, 64, 88
1, 150100, Note_on_c, 0, 39, 53
1, 150103, Note_on_c, 0, 51, 45
1, 150117, Control_c, 0, 64, 70
1, 150135, Control_c, 0, 64, 67
1, 150143, Note_off_c, 0, 39, 60
1, 150153, Control_c, 0, 64, 70
1, 150166, Note_off_c, 0, 51, 40
1, 150166, Poly_aftertouch_c, 0, 51, 0
1, 150172, Control_c, 0, 64, 74
1, 150191, Control_c, 0, 64, 80
1, 150210, Control_c, 0, 64, 90
1, 150223, Note_on_c, 0, 63, 47
1, 150227, Note_on_c, 0, 67, 46
1, 150229, Control_c, 0, 64, 103
1, 150248, Control_c, 0, 64, 115
1, 150265, Control_c, 0, 64, 122
1, 150292, Note_off_c, 0, 63, 53
1, 150292, Poly_aftertouch_c, 0, 63, 0
1, 150304, Control_c, 0, 64, 126
1, 150305, Note_off_c, 0, 67, 39
1, 150305, Poly_aftertouch_c, 0, 67, 0
1, 150374, Note_on_c, 0, 58, 59
1, 150443, Note_off_c, 0, 58, 46
1, 150443, Poly_aftertouch_c, 0, 58, 0
1, 150488, Note_on_c, 0, 67, 41
1, 150527, Note_off_c, 0, 67, 56
1, 150527, Poly_aftertouch_c, 0, 67, 0
1, 150586, Note_on_c, 0, 60, 51
1, 150662, Note_on_c, 0, 58, 62
1, 150677, Control_c, 0, 64, 122
1, 150697, Control_c, 0, 64, 116
1, 150715, Control_c, 0, 64, 108
1, 150731, Note_off_c, 0, 60, 49
1, 150733, Control_c, 0, 64, 98
1, 150752, Control_c, 0, 64, 88
1, 150771, Control_c, 0, 64, 78
1, 150790, Control_c, 0, 64, 69
1, 150806, Note_on_c, 0, 57, 53
1, 150809, Note_on_c, 0, 68, 53
1, 150809, Control_c, 0, 64, 62
1, 150812, Note_off_c, 0, 58, 57
1, 150812, Note_on_c, 0, 66, 47
1, 150812, Poly_aftertouch_c, 0, 58, 0
1, 150826, Note_on_c, 0, 63, 36
1, 150826, Control_c, 0, 64, 57
1, 150883, Control_c, 0, 64, 59
1, 150890, Note_off_c, 0, 63, 53
1, 150890, Poly_aftertouch_c, 0, 63, 0
1, 150902, Control_c, 0, 64, 64
1, 150903, Note_off_c, 0, 68, 58
1, 150907, Note_off_c, 0, 66, 56
1, 150915, Note_off_c, 0, 57, 62
1, 150920, Control_c, 0, 64, 71
1, 150922, Note_on_c, 0, 58, 64
1, 150938, Control_c, 0, 64, 77
1, 150958, Control_c, 0, 64, 83
1, 150976, Control_c, 0, 64, 90
1, 150995, Control_c, 0, 64, 96
1, 151014, Control_c, 0, 64, 102
1, 151032, Control_c, 0, 64, 108
1, 151051, Note_off_c, 0, 58, 60
1, 151051, Poly_aftertouch_c, 0, 58, 0
1, 151052, Control_c, 0, 64, 114
1, 151066, Note_on_c, 0, 66, 55
1, 151068, Note_on_c, 0, 60, 55
1, 151070, Control_c, 0, 67, 117
1, 151073, Note_on_c, 0, 68, 55
1, 151089, Control_c, 0, 64, 118
1, 151090, Control_c, 0, 67, 112
1, 151108, Control_c, 0, 67, 106
1, 151112, Note_off_c, 0, 66, 63
1, 151126, Control_c, 0, 67, 101
1, 151150, Note_off_c, 0, 68, 60
1, 151159, Poly_aftertouch_c, 0, 63, 0
1, 151163, Control_c, 0, 67, 95
1, 151177, Note_off_c, 0, 60, 59
1, 151181, Control_c, 0, 64, 112
1, 151200, Note_on_c, 0, 49, 53
1, 151200, Control_c, 0, 64, 107
1, 151221, Control_c, 0, 64, 96
1, 151238, Control_c, 0, 64, 82
1, 151257, Control_c, 0, 64, 68
1, 151275, Control_c, 0, 64, 58
1, 151295, Control_c, 0, 64, 53
1, 151313, Control_c, 0, 67, 89
1, 151331, Note_on_c, 0, 68, 48
1, 151350, Control_c, 0, 64, 57
1, 151351, Control_c, 0, 67, 83
1, 151354, Note_on_c, 0, 65, 45
1, 151371, Control_c, 0, 64, 63
1, 151372, Control_c, 0, 67, 79
1, 151388, Control_c, 0, 64, 71
1, 151390, Control_c, 0, 67, 73
1, 151407, Control_c, 0, 64, 78
1, 151408, Control_c, 0, 67, 67
1, 151409, Note_off_c, 0, 68, 54
1, 151414, Note_off_c, 0, 65, 59
1, 151414, Poly_aftertouch_c, 0, 65, 0
1, 151428, Control_c, 0, 64, 84
1, 151431, Control_c, 0, 67, 60
1, 151445, Control_c, 0, 64, 91
1, 151446, Control_c, 0, 67, 54
1, 151463, Control_c, 0, 64, 96
1, 151463, Control_c, 0, 67, 48
1, 151467, Note_on_c, 0, 61, 41
1, 151482, Control_c, 0, 64, 102
1, 151484, Control_c, 0, 67, 41
1, 151500, Control_c, 0, 64, 109
1, 151502, Control_c, 0, 67, 36
1, 151519, Control_c, 0, 64, 116
1, 151538, Control_c, 0, 64, 123
1, 151539, Control_c, 0, 67, 32
1, 151556, Control_c, 0, 64, 127
1, 151565, Note_off_c, 0, 49, 48
1, 151597, Note_on_c, 0, 68, 51
1, 151616, Note_on_c, 0, 65, 33
1, 151630, Control_c, 0, 67, 36
1, 151635, Note_off_c, 0, 61, 33
1, 151655, Note_off_c, 0, 68, 57
1, 151666, Note_off_c, 0, 65, 45
1, 151666, Poly_aftertouch_c, 0, 65, 0
1, 151687, Control_c, 0, 67, 42
1, 151707, Control_c, 0, 67, 46
1, 151713, Note_on_c, 0, 53, 39
1, 151724, Control_c, 0, 67, 50
1, 151743, Control_c, 0, 67, 54
1, 151761, Control_c, 0, 67, 59
1, 151781, Control_c, 0, 64, 119
1, 151782, Control_c, 0, 67, 64
1, 151800, Control_c, 0, 64, 109
1, 151800, Control_c, 0, 67, 69
1, 151817, Control_c, 0, 64, 95
1, 151819, Control_c, 0, 67, 73
1, 151837, Control_c, 0, 64, 79
1, 151840, Control_c, 0, 67, 77
1, 151856, Control_c, 0, 64, 65
1, 151875, Control_c, 0, 64, 56
1, 151877, Control_c, 0, 67, 83
1, 151890, Note_on_c, 0, 68, 44
1, 151890, Note_on_c, 0, 80, 53
1, 151894, Control_c, 0, 64, 53
1, 151911, Control_c, 0, 67, 88
1, 151931, Control_c, 0, 64, 56
1, 151948, Control_c, 0, 64, 61
1, 151954, Note_off_c, 0, 80, 53
1, 151962, Note_off_c, 0, 68, 57
1, 151968, Control_c, 0, 64, 69
1, 151986, Control_c, 0, 64, 75
1, 151994, Note_on_c, 0, 61, 40
1, 152003, Control_c, 0, 64, 80
1, 152024, Control_c, 0, 64, 86
1, 152043, Control_c, 0, 64, 92
1, 152062, Control_c, 0, 64, 97
1, 152080, Control_c, 0, 64, 103
1, 152098, Control_c, 0, 64, 110
1, 152100, Control_c, 0, 67, 83
1, 152119, Poly_aftertouch_c, 0, 53, 24
1, 152119, Control_c, 0, 64, 118
1, 152136, Note_on_c, 0, 80, 59
1, 152137, Control_c, 0, 64, 124
1, 152138, Control_c, 0, 67, 75
1, 152151, Note_off_c, 0, 61, 37
1, 152151, Note_on_c, 0, 68, 49
1, 152152, Control_c, 0, 67, 69
1, 152174, Control_c, 0, 67, 63
1, 152192, Control_c, 0, 67, 58
1, 152210, Note_off_c, 0, 68, 59
1, 152222, Note_off_c, 0, 80, 58
1, 152227, Control_c, 0, 67, 53
1, 152235, Note_off_c, 0, 53, 27
1, 152235, Poly_aftertouch_c, 0, 53, 0
1, 152269, Note_on_c, 0, 51, 46
1, 152285, Control_c, 0, 64, 118
1, 152304, Control_c, 0, 64, 101
1, 152323, Control_c, 0, 64, 80
1, 152342, Control_c, 0, 64, 61
1, 152361, Control_c, 0, 64, 50
1, 152379, Control_c, 0, 64, 46
1, 152380, Control_c, 0, 67, 48
1, 152397, Note_on_c, 0, 80, 60
1, 152416, Control_c, 0, 64, 52
1, 152418, Control_c, 0, 67, 43
1, 152422, Note_on_c, 0, 68, 45
1, 152436, Control_c, 0, 64, 61
1, 152454, Control_c, 0, 64, 70
1, 152455, Control_c, 0, 67, 39
1, 152469, Note_off_c, 0, 68, 57
1, 152472, Control_c, 0, 64, 78
1, 152479, Note_off_c, 0, 80, 55
1, 152492, Control_c, 0, 64, 84
1, 152495, Control_c, 0, 67, 34
1, 152512, Control_c, 0, 64, 90
1, 152516, Note_on_c, 0, 60, 51
1, 152529, Control_c, 0, 64, 97
1, 152530, Control_c, 0, 67, 27
1, 152547, Control_c, 0, 64, 103
1, 152567, Control_c, 0, 64, 109
1, 152569, Control_c, 0, 67, 19
1, 152584, Note_off_c, 0, 60, 49
1, 152585, Control_c, 0, 64, 113
1, 152586, Control_c, 0, 67, 14
1, 152604, Control_c, 0, 67, 10
1, 152621, Control_c, 0, 64, 118
1, 152634, Note_off_c, 0, 51, 21
1, 152634, Poly_aftertouch_c, 0, 51, 0
1, 152659, Note_on_c, 0, 80, 62
1, 152672, Note_on_c, 0, 68, 48
1, 152697, Control_c, 0, 64, 113
1, 152716, Control_c, 0, 64, 101
1, 152728, Note_off_c, 0, 68, 61
1, 152735, Control_c, 0, 64, 82
1, 152738, Note_off_c, 0, 80, 57
1, 152752, Control_c, 0, 64, 67
1, 152771, Control_c, 0, 64, 64
1, 152792, Control_c, 0, 64, 66
1, 152809, Control_c, 0, 64, 70
1, 152817, Note_on_c, 0, 50, 27
1, 152825, Control_c, 0, 64, 76
1, 152847, Control_c, 0, 64, 83
1, 152865, Control_c, 0, 64, 93
1, 152874, Note_off_c, 0, 50, 62
1, 152883, Control_c, 0, 64, 102
1, 152901, Note_on_c, 0, 51, 7
1, 152903, Note_off_c, 0, 51, 34
1, 152903, Poly_aftertouch_c, 0, 51, 0
1, 152903, Control_c, 0, 64, 109
1, 152911, Note_on_c, 0, 80, 57
1, 152922, Control_c, 0, 64, 114
1, 152947, Note_on_c, 0, 68, 33
1, 152959, Control_c, 0, 64, 119
1, 152991, Note_off_c, 0, 80, 56
1, 152996, Control_c, 0, 64, 123
1, 152997, Note_off_c, 0, 68, 53
1, 153052, Control_c, 0, 64, 127
1, 153059, Note_on_c, 0, 65, 55
1, 153105, Note_off_c, 0, 65, 64
1, 153105, Poly_aftertouch_c, 0, 65, 0
1, 153106, Control_c, 0, 67, 0
1, 153195, Note_on_c, 0, 80, 61
1, 153211, Note_on_c, 0, 68, 53
1, 153274, Note_off_c, 0, 80, 41
1, 153290, Note_off_c, 0, 68, 50
1, 153332, Control_c, 0, 64, 116
1, 153335, Note_on_c, 0, 49, 53
1, 153351, Control_c, 0, 64, 97
1, 153371, Control_c, 0, 64, 76
1, 153389, Control_c, 0, 64, 60
1, 153407, Control_c, 0, 64, 52
1, 153444, Control_c, 0, 64, 55
1, 153461, Note_on_c, 0, 79, 60
1, 153462, Control_c, 0, 64, 62
1, 153481, Control_c, 0, 64, 71
1, 153485, Note_off_c, 0, 49, 54
1, 153487, Note_on_c, 0, 67, 44
1, 153501, Control_c, 0, 64, 80
1, 153520, Control_c, 0, 64, 91
1, 153539, Control_c, 0, 64, 104
1, 153545, Note_off_c, 0, 67, 59
1, 153545, Poly_aftertouch_c, 0, 67, 0
1, 153551, Note_off_c, 0, 79, 56
1, 153551, Poly_aftertouch_c, 0, 79, 0
1, 153556, Control_c, 0, 64, 120
1, 153575, Control_c, 0, 64, 127
1, 153602, Note_on_c, 0, 58, 50
1, 153657, Note_off_c, 0, 58, 59
1, 153657, Poly_aftertouch_c, 0, 58, 0
1, 153720, Note_on_c, 0, 79, 57
1, 153745, Control_c, 0, 67, 8
1, 153759, Note_on_c, 0, 67, 30
1, 153760, Control_c, 0, 67, 12
1, 153781, Control_c, 0, 67, 16
1, 153789, Note_off_c, 0, 79, 52
1, 153789, Poly_aftertouch_c, 0, 79, 0
1, 153800, Control_c, 0, 64, 120
1, 153801, Control_c, 0, 67, 21
1, 153804, Note_off_c, 0, 67, 52
1, 153804, Poly_aftertouch_c, 0, 67, 0
1, 153818, Control_c, 0, 64, 97
1, 153819, Control_c, 0, 67, 27
1, 153838, Control_c, 0, 64, 72
1, 153841, Control_c, 0, 67, 33
1, 153845, Note_on_c, 0, 48, 47
1, 153857, Control_c, 0, 64, 54
1, 153859, Control_c, 0, 67, 38
1, 153876, Control_c, 0, 64, 48
1, 153877, Control_c, 0, 67, 43
1, 153893, Control_c, 0, 67, 48
1, 153913, Control_c, 0, 64, 55
1, 153914, Control_c, 0, 67, 52
1, 153933, Control_c, 0, 64, 65
1, 153934, Control_c, 0, 67, 56
1, 153949, Control_c, 0, 64, 75
1, 153965, Note_off_c, 0, 48, 63
1, 153965, Poly_aftertouch_c, 0, 48, 0
1, 153968, Control_c, 0, 64, 84
1, 153971, Control_c, 0, 67, 62
1, 153987, Control_c, 0, 64, 92
1, 153989, Note_on_c, 0, 80, 57
1, 153996, Note_on_c, 0, 68, 54
1, 154007, Control_c, 0, 64, 101
1, 154024, Control_c, 0, 64, 107
1, 154035, Note_off_c, 0, 80, 60
1, 154050, Note_off_c, 0, 68, 59
1, 154061, Control_c, 0, 64, 111
1, 154099, Control_c, 0, 67, 68
1, 154118, Control_c, 0, 64, 116
1, 154120, Control_c, 0, 67, 72
1, 154137, Note_on_c, 0, 63, 45
1, 154137, Control_c, 0, 67, 76
1, 154155, Control_c, 0, 64, 121
1, 154156, Control_c, 0, 67, 80
1, 154174, Control_c, 0, 67, 84
1, 154176, Note_off_c, 0, 63, 55
1, 154193, Control_c, 0, 64, 125
1, 154194, Control_c, 0, 67, 88
1, 154211, Control_c, 0, 67, 93
1, 154230, Control_c, 0, 67, 98
1, 154249, Control_c, 0, 67, 103
1, 154259, Note_on_c, 0, 80, 61
1, 154267, Control_c, 0, 67, 107
1, 154276, Note_on_c, 0, 68, 32
1, 154296, Note_off_c, 0, 80, 66
1, 154303, Control_c, 0, 67, 112
1, 154320, Note_off_c, 0, 68, 54
1, 154343, Control_c, 0, 67, 116
1, 154361, Control_c, 0, 64, 117
1, 154381, Control_c, 0, 64, 105
1, 154382, Control_c, 0, 67, 121
1, 154389, Note_on_c, 0, 41, 56
1, 154398, Control_c, 0, 64, 86
1, 154417, Control_c, 0, 64, 68
1, 154436, Control_c, 0, 64, 56
1, 154454, Control_c, 0, 64, 52
1, 154454, Control_c, 0, 67, 126
1, 154511, Control_c, 0, 64, 60
1, 154529, Control_c, 0, 64, 69
1, 154541, Note_on_c, 0, 85, 67
1, 154548, Control_c, 0, 64, 78
1, 154560, Note_off_c, 0, 41, 59
1, 154564, Note_on_c, 0, 73, 50
1, 154566, Control_c, 0, 64, 88
1, 154586, Note_off_c, 0, 85, 56
1, 154586, Control_c, 0, 64, 99
1, 154604, Control_c, 0, 64, 110
1, 154619, Note_off_c, 0, 73, 60
1, 154619, Poly_aftertouch_c, 0, 73, 0
1, 154622, Control_c, 0, 64, 120
1, 154642, Control_c, 0, 64, 126
1, 154679, Control_c, 0, 67, 122
1, 154681, Note_on_c, 0, 56, 51
1, 154717, Control_c, 0, 67, 115
1, 154735, Control_c, 0, 67, 110
1, 154754, Control_c, 0, 67, 105
1, 154756, Note_off_c, 0, 56, 51
1, 154772, Control_c, 0, 67, 100
1, 154791, Control_c, 0, 67, 96
1, 154819, Note_on_c, 0, 77, 69
1, 154850, Note_on_c, 0, 65, 54
1, 154885, Control_c, 0, 64, 122
1, 154903, Control_c, 0, 64, 98
1, 154904, Control_c, 0, 67, 89
1, 154923, Control_c, 0, 64, 72
1, 154925, Control_c, 0, 67, 83
1, 154928, Note_off_c, 0, 77, 57
1, 154941, Control_c, 0, 64, 55
1, 154942, Control_c, 0, 67, 74
1, 154944, Note_on_c, 0, 43, 55
1, 154950, Note_off_c, 0, 65, 60
1, 154950, Poly_aftertouch_c, 0, 65, 0
1, 154959, Control_c, 0, 67, 65
1, 154978, Control_c, 0, 64, 57
1, 154980, Control_c, 0, 67, 57
1, 154997, Control_c, 0, 64, 64
1, 154999, Control_c, 0, 67, 50
1, 155016, Control_c, 0, 64, 73
1, 155017, Control_c, 0, 67, 44
1, 155035, Control_c, 0, 64, 84
1, 155037, Control_c, 0, 67, 40
1, 155052, Control_c, 0, 64, 99
1, 155053, Note_off_c, 0, 43, 64
1, 155053, Control_c, 0, 67, 35
1, 155073, Control_c, 0, 64, 119
1, 155075, Control_c, 0, 67, 30
1, 155083, Note_on_c, 0, 76, 68
1, 155091, Control_c, 0, 64, 127
1, 155093, Control_c, 0, 67, 26
1, 155106, Note_on_c, 0, 64, 54
1, 155157, Note_off_c, 0, 64, 60
1, 155221, Control_c, 0, 67, 31
1, 155232, Note_on_c, 0, 61, 58
1, 155240, Control_c, 0, 64, 123
1, 155242, Control_c, 0, 67, 35
1, 155259, Control_c, 0, 64, 104
1, 155260, Control_c, 0, 67, 40
1, 155278, Control_c, 0, 64, 84
1, 155279, Control_c, 0, 67, 45
1, 155280, Note_off_c, 0, 61, 62
1, 155295, Control_c, 0, 64, 70
1, 155297, Control_c, 0, 67, 49
1, 155315, Control_c, 0, 64, 66
1, 155317, Control_c, 0, 67, 53
1, 155330, Note_on_c, 0, 75, 68
1, 155332, Control_c, 0, 64, 68
1, 155334, Control_c, 0, 67, 57
1, 155352, Control_c, 0, 64, 72
1, 155354, Note_off_c, 0, 76, 63
1, 155361, Note_on_c, 0, 63, 53
1, 155371, Control_c, 0, 64, 77
1, 155372, Control_c, 0, 67, 63
1, 155389, Control_c, 0, 64, 86
1, 155408, Control_c, 0, 64, 97
1, 155410, Control_c, 0, 67, 68
1, 155427, Control_c, 0, 64, 108
1, 155430, Note_off_c, 0, 63, 55
1, 155439, Note_off_c, 0, 75, 61
1, 155446, Control_c, 0, 64, 115
1, 155447, Control_c, 0, 67, 74
1, 155459, Note_on_c, 0, 44, 60
1, 155483, Control_c, 0, 67, 81
1, 155520, Control_c, 0, 64, 101
1, 155521, Control_c, 0, 67, 86
1, 155539, Control_c, 0, 64, 82
1, 155558, Note_off_c, 0, 44, 62
1, 155558, Poly_aftertouch_c, 0, 44, 0
1, 155558, Control_c, 0, 64, 66
1, 155577, Control_c, 0, 64, 61
1, 155577, Control_c, 0, 67, 91
1, 155596, Control_c, 0, 64, 62
1, 155597, Note_on_c, 0, 75, 69
1, 155614, Control_c, 0, 64, 66
1, 155617, Note_on_c, 0, 63, 49
1, 155632, Control_c, 0, 64, 72
1, 155651, Control_c, 0, 64, 81
1, 155671, Control_c, 0, 64, 92
1, 155676, Note_off_c, 0, 75, 61
1, 155678, Note_off_c, 0, 63, 58
1, 155689, Control_c, 0, 64, 104
1, 155707, Control_c, 0, 64, 115
1, 155725, Control_c, 0, 64, 121
1, 155729, Note_on_c, 0, 60, 51
1, 155745, Control_c, 0, 67, 97
1, 155764, Control_c, 0, 67, 101
1, 155773, Note_off_c, 0, 60, 64
1, 155782, Control_c, 0, 64, 125
1, 155801, Control_c, 0, 67, 107
1, 155837, Control_c, 0, 67, 112
1, 155866, Note_on_c, 0, 75, 60
1, 155875, Control_c, 0, 67, 119
1, 155880, Note_on_c, 0, 63, 52
1, 155910, Note_off_c, 0, 75, 59
1, 155913, Control_c, 0, 67, 123
1, 155932, Control_c, 0, 64, 120
1, 155937, Note_off_c, 0, 63, 56
1, 155950, Control_c, 0, 64, 110
1, 155969, Control_c, 0, 64, 93
1, 155983, Note_on_c, 0, 39, 54
1, 155988, Control_c, 0, 64, 73
1, 155990, Control_c, 0, 67, 127
1, 156008, Control_c, 0, 64, 61
1, 156044, Control_c, 0, 64, 62
1, 156062, Control_c, 0, 64, 66
1, 156067, Note_off_c, 0, 39, 59
1, 156082, Control_c, 0, 64, 73
1, 156099, Control_c, 0, 64, 82
1, 156119, Note_on_c, 0, 75, 48
1, 156119, Control_c, 0, 64, 93
1, 156127, Note_on_c, 0, 66, 48
1, 156137, Control_c, 0, 64, 105
1, 156154, Note_on_c, 0, 63, 26
1, 156155, Control_c, 0, 64, 116
1, 156174, Control_c, 0, 64, 123
1, 156186, Note_off_c, 0, 75, 48
1, 156194, Note_off_c, 0, 66, 50
1, 156208, Note_off_c, 0, 63, 52
1, 156265, Note_on_c, 0, 57, 44
1, 156312, Note_off_c, 0, 57, 63
1, 156391, Note_on_c, 0, 66, 44
1, 156400, Note_on_c, 0, 75, 42
1, 156452, Note_off_c, 0, 66, 53
1, 156455, Note_off_c, 0, 75, 46
1, 156474, Control_c, 0, 64, 115
1, 156489, Poly_aftertouch_c, 0, 63, 127
1, 156492, Control_c, 0, 64, 101
1, 156511, Control_c, 0, 64, 83
1, 156523, Note_on_c, 0, 39, 46
1, 156523, Poly_aftertouch_c, 0, 63, 0
1, 156530, Control_c, 0, 64, 68
1, 156549, Control_c, 0, 64, 62
1, 156587, Control_c, 0, 64, 65
1, 156605, Control_c, 0, 64, 70
1, 156624, Control_c, 0, 64, 77
1, 156626, Note_off_c, 0, 39, 60
1, 156642, Control_c, 0, 64, 84
1, 156659, Control_c, 0, 64, 90
1, 156669, Note_on_c, 0, 63, 36
1, 156675, Note_on_c, 0, 75, 39
1, 156678, Control_c, 0, 64, 95
1, 156680, Note_on_c, 0, 67, 42
1, 156717, Control_c, 0, 64, 99
1, 156747, Note_off_c, 0, 63, 53
1, 156747, Note_off_c, 0, 75, 42
1, 156790, Note_off_c, 0, 67, 49
1, 156790, Poly_aftertouch_c, 0, 67, 0
1, 156792, Control_c, 0, 64, 104
1, 156818, Note_on_c, 0, 58, 44
1, 156829, Control_c, 0, 67, 123
1, 156848, Control_c, 0, 64, 108
1, 156868, Note_off_c, 0, 58, 64
1, 156868, Poly_aftertouch_c, 0, 58, 0
1, 156904, Control_c, 0, 64, 114
1, 156905, Control_c, 0, 67, 119
1, 156941, Control_c, 0, 64, 119
1, 156942, Control_c, 0, 67, 114
1, 156972, Note_on_c, 0, 67, 32
1, 156977, Note_on_c, 0, 75, 23
1, 156978, Control_c, 0, 64, 124
1, 156979, Control_c, 0, 67, 108
1, 156988, Note_on_c, 0, 63, 22
1, 156998, Control_c, 0, 67, 104
1, 157017, Control_c, 0, 67, 99
1, 157032, Note_off_c, 0, 75, 52
1, 157034, Control_c, 0, 67, 95
1, 157050, Note_off_c, 0, 63, 52
1, 157053, Control_c, 0, 67, 91
1, 157072, Control_c, 0, 67, 86
1, 157092, Control_c, 0, 67, 82
1, 157107, Note_on_c, 0, 51, 54
1, 157109, Control_c, 0, 64, 117
1, 157110, Control_c, 0, 67, 78
1, 157117, Note_off_c, 0, 67, 28
1, 157117, Poly_aftertouch_c, 0, 67, 0
1, 157127, Control_c, 0, 67, 74
1, 157129, Note_on_c, 0, 39, 45
1, 157147, Control_c, 0, 67, 69
1, 157167, Control_c, 0, 67, 63
1, 157184, Control_c, 0, 67, 58
1, 157202, Note_off_c, 0, 39, 50
1, 157204, Control_c, 0, 67, 53
1, 157219, Note_off_c, 0, 51, 52
1, 157219, Poly_aftertouch_c, 0, 51, 0
1, 157221, Control_c, 0, 64, 122
1, 157223, Control_c, 0, 67, 47
1, 157234, Note_on_c, 0, 75, 38
1, 157236, Note_on_c, 0, 63, 39
1, 157240, Control_c, 0, 67, 41
1, 157261, Control_c, 0, 64, 126
1, 157263, Control_c, 0, 67, 36
1, 157278, Control_c, 0, 67, 30
1, 157297, Control_c, 0, 67, 25
1, 157314, Control_c, 0, 67, 20
1, 157315, Note_off_c, 0, 75, 45
1, 157322, Note_off_c, 0, 63, 55
1, 157334, Control_c, 0, 67, 14
1, 157376, Note_on_c, 0, 51, 64
1, 157392, Note_on_c, 0, 39, 50
1, 157408, Control_c, 0, 67, 0
1, 157452, Note_off_c, 0, 51, 54
1, 157452, Poly_aftertouch_c, 0, 51, 0
1, 157454, Note_off_c, 0, 39, 55
1, 157502, Note_on_c, 0, 63, 48
1, 157503, Note_on_c, 0, 75, 45
1, 157554, Note_off_c, 0, 75, 58
1, 157572, Note_off_c, 0, 63, 54
1, 157616, Control_c, 0, 64, 112
1, 157617, Control_c, 0, 67, 8
1, 157634, Control_c, 0, 64, 93
1, 157651, Control_c, 0, 64, 80
1, 157658, Note_on_c, 0, 51, 52
1, 157658, Note_on_c, 0, 39, 52
1, 157671, Control_c, 0, 64, 77
1, 157708, Control_c, 0, 64, 82
1, 157710, Control_c, 0, 67, 13
1, 157722, Note_off_c, 0, 39, 60
1, 157725, Control_c, 0, 64, 88
1, 157745, Control_c, 0, 64, 99
1, 157747, Control_c, 0, 67, 21
1, 157754, Note_on_c, 0, 75, 43
1, 157764, Note_off_c, 0, 51, 60
1, 157764, Poly_aftertouch_c, 0, 51, 0
1, 157764, Control_c, 0, 64, 114
1, 157765, Control_c, 0, 67, 26
1, 157772, Note_on_c, 0, 63, 36
1, 157782, Control_c, 0, 64, 127
1, 157782, Control_c, 0, 67, 30
1, 157818, Note_off_c, 0, 75, 46
1, 157820, Control_c, 0, 67, 37
1, 157832, Note_on_c, 0, 72, 10
1, 157834, Note_off_c, 0, 63, 47
1, 157858, Control_c, 0, 67, 45
1, 157877, Control_c, 0, 67, 50
1, 157896, Control_c, 0, 64, 120
1, 157898, Control_c, 0, 67, 54
1, 157912, Note_off_c, 0, 72, 45
1, 157913, Control_c, 0, 64, 105
1, 157914, Control_c, 0, 67, 58
1, 157930, Note_on_c, 0, 56, 58
1, 157931, Control_c, 0, 64, 87
1, 157938, Note_on_c, 0, 44, 51
1, 157952, Control_c, 0, 64, 71
1, 157955, Control_c, 0, 67, 63
1, 157971, Control_c, 0, 64, 65
1, 158007, Control_c, 0, 64, 66
1, 158026, Control_c, 0, 64, 70
1, 158044, Control_c, 0, 64, 75
1, 158055, Note_on_c, 0, 72, 43
1, 158060, Note_on_c, 0, 75, 36
1, 158063, Control_c, 0, 64, 83
1, 158069, Note_on_c, 0, 63, 40
1, 158076, Note_off_c, 0, 56, 59
1, 158078, Note_off_c, 0, 44, 56
1, 158078, Poly_aftertouch_c, 0, 44, 0
1, 158082, Control_c, 0, 64, 93
1, 158103, Control_c, 0, 64, 103
1, 158118, Note_off_c, 0, 75, 45
1, 158119, Control_c, 0, 64, 109
1, 158130, Note_off_c, 0, 63, 55
1, 158149, Note_off_c, 0, 72, 54
1, 158203, Note_on_c, 0, 56, 58
1, 158223, Note_on_c, 0, 44, 44
1, 158269, Control_c, 0, 64, 113
1, 158280, Note_off_c, 0, 44, 52
1, 158280, Poly_aftertouch_c, 0, 44, 0
1, 158309, Note_off_c, 0, 56, 51
1, 158330, Note_on_c, 0, 63, 40
1, 158339, Note_on_c, 0, 72, 42
1, 158354, Note_on_c, 0, 75, 13
1, 158390, Note_off_c, 0, 63, 50
1, 158425, Note_off_c, 0, 75, 40
1, 158452, Note_off_c, 0, 72, 37
1, 158473, Note_on_c, 0, 56, 58
1, 158509, Note_on_c, 0, 44, 41
1, 158549, Control_c, 0, 67, 59
1, 158564, Note_off_c, 0, 44, 50
1, 158564, Poly_aftertouch_c, 0, 44, 0
1, 158569, Note_on_c, 0, 75, 42
1, 158586, Note_off_c, 0, 56, 56
1, 158588, Note_on_c, 0, 63, 42
1, 158603, Note_on_c, 0, 72, 46
1, 158625, Control_c, 0, 67, 54
1, 158642, Note_off_c, 0, 75, 45
1, 158650, Note_off_c, 0, 63, 57
1, 158661, Control_c, 0, 64, 117
1, 158662, Control_c, 0, 67, 47
1, 158663, Note_off_c, 0, 72, 46
1, 158699, Control_c, 0, 67, 41
1, 158731, Note_on_c, 0, 56, 68
1, 158735, Control_c, 0, 67, 37
1, 158759, Note_on_c, 0, 44, 50
1, 158774, Control_c, 0, 67, 33
1, 158792, Control_c, 0, 64, 121
1, 158812, Control_c, 0, 67, 29
1, 158816, Note_off_c, 0, 44, 56
1, 158816, Poly_aftertouch_c, 0, 44, 0
1, 158833, Note_off_c, 0, 56, 53
1, 158847, Control_c, 0, 67, 24
1, 158855, Note_on_c, 0, 63, 47
1, 158859, Note_on_c, 0, 72, 41
1, 158865, Note_on_c, 0, 75, 37
1, 158886, Control_c, 0, 67, 20
1, 158917, Note_off_c, 0, 75, 48
1, 158930, Note_off_c, 0, 63, 51
1, 158942, Control_c, 0, 67, 14
1, 158948, Note_off_c, 0, 72, 53
1, 158998, Control_c, 0, 67, 9
1, 159010, Note_on_c, 0, 56, 64
1, 159027, Note_on_c, 0, 44, 59
1, 159079, Note_off_c, 0, 44, 60
1, 159079, Poly_aftertouch_c, 0, 44, 0
1, 159092, Control_c, 0, 64, 125
1, 159098, Note_off_c, 0, 56, 60
1, 159145, Note_on_c, 0, 72, 37
1, 159148, Note_on_c, 0, 63, 49
1, 159176, Note_on_c, 0, 75, 16
1, 159192, Note_off_c, 0, 72, 48
1, 159194, Note_off_c, 0, 63, 60
1, 159242, Note_off_c, 0, 75, 39
1, 159258, Control_c, 0, 64, 121
1, 159261, Note_on_c, 0, 56, 58
1, 159278, Control_c, 0, 64, 116
1, 159298, Control_c, 0, 64, 106
1, 159311, Note_on_c, 0, 46, 57
1, 159317, Control_c, 0, 64, 89
1, 159335, Control_c, 0, 64, 71
1, 159354, Control_c, 0, 64, 56
1, 159372, Control_c, 0, 64, 43
1, 159390, Control_c, 0, 64, 30
1, 159425, Note_on_c, 0, 75, 27
1, 159430, Note_on_c, 0, 63, 32
1, 159431, Note_on_c, 0, 73, 47
1, 159447, Control_c, 0, 64, 40
1, 159465, Control_c, 0, 64, 52
1, 159484, Control_c, 0, 64, 66
1, 159485, Note_off_c, 0, 56, 62
1, 159492, Note_off_c, 0, 73, 58
1, 159492, Poly_aftertouch_c, 0, 73, 0
1, 159494, Note_off_c, 0, 75, 46
1, 159496, Note_off_c, 0, 63, 48
1, 159498, Note_off_c, 0, 46, 51
1, 159505, Control_c, 0, 64, 75
1, 159522, Control_c, 0, 64, 80
1, 159540, Control_c, 0, 64, 83
1, 159560, Control_c, 0, 64, 85
1, 159568, Note_on_c, 0, 55, 57
1, 159579, Control_c, 0, 64, 87
1, 159620, Poly_aftertouch_c, 0, 46, 127
1, 159624, Note_on_c, 0, 46, 12
1, 159671, Control_c, 0, 64, 92
1, 159684, Note_off_c, 0, 46, 50
1, 159684, Poly_aftertouch_c, 0, 46, 0
1, 159685, Note_off_c, 0, 55, 52
1, 159697, Note_on_c, 0, 75, 42
1, 159697, Note_on_c, 0, 63, 43
1, 159698, Note_on_c, 0, 73, 43
1, 159709, Control_c, 0, 64, 97
1, 159710, Control_c, 0, 67, 0
1, 159746, Control_c, 0, 64, 101
1, 159758, Note_off_c, 0, 75, 48
1, 159762, Note_off_c, 0, 63, 55
1, 159763, Note_off_c, 0, 73, 57
1, 159763, Poly_aftertouch_c, 0, 73, 0
1, 159784, Control_c, 0, 64, 96
1, 159802, Control_c, 0, 64, 83
1, 159820, Control_c, 0, 64, 67
1, 159824, Note_on_c, 0, 55, 59
1, 159840, Control_c, 0, 64, 61
1, 159845, Note_on_c, 0, 46, 52
1, 159859, Control_c, 0, 64, 62
1, 159876, Control_c, 0, 64, 65
1, 159896, Control_c, 0, 64, 69
1, 159915, Control_c, 0, 64, 77
1, 159933, Control_c, 0, 64, 86
1, 159952, Control_c, 0, 64, 95
1, 159953, Note_off_c, 0, 46, 50
1, 159953, Poly_aftertouch_c, 0, 46, 0
1, 159971, Control_c, 0, 64, 103
1, 159980, Note_on_c, 0, 63, 50
1, 159980, Note_on_c, 0, 73, 48
1, 159983, Note_off_c, 0, 55, 53
1, 159990, Note_on_c, 0, 75, 40
1, 159990, Control_c, 0, 64, 108
1, 160035, Note_off_c, 0, 75, 50
1, 160041, Note_off_c, 0, 63, 57
1, 160046, Note_off_c, 0, 73, 57
1, 160046, Poly_aftertouch_c, 0, 73, 0
1, 160088, Note_on_c, 0, 53, 62
1, 160107, Note_on_c, 0, 46, 60
1, 160210, Note_off_c, 0, 46, 50
1, 160210, Poly_aftertouch_c, 0, 46, 0
1, 160213, Control_c, 0, 64, 112
1, 160225, Note_off_c, 0, 53, 56
1, 160225, Poly_aftertouch_c, 0, 53, 0
1, 160239, Note_on_c, 0, 73, 48
1, 160248, Note_on_c, 0, 63, 51
1, 160257, Note_on_c, 0, 75, 42
1, 160289, Control_c, 0, 64, 116
1, 160299, Note_off_c, 0, 63, 60
1, 160300, Note_off_c, 0, 75, 50
1, 160307, Note_off_c, 0, 73, 58
1, 160307, Poly_aftertouch_c, 0, 73, 0
1, 160357, Note_on_c, 0, 55, 60
1, 160377, Note_on_c, 0, 46, 49
1, 160382, Control_c, 0, 64, 109
1, 160429, Note_off_c, 0, 46, 57
1, 160429, Poly_aftertouch_c, 0, 46, 0
1, 160435, Note_off_c, 0, 55, 57
1, 160483, Note_on_c, 0, 73, 56
1, 160494, Control_c, 0, 64, 113
1, 160507, Note_on_c, 0, 75, 44
1, 160517, Note_on_c, 0, 63, 43
1, 160545, Note_off_c, 0, 75, 51
1, 160582, Note_off_c, 0, 63, 45
1, 160589, Control_c, 0, 64, 105
1, 160602, Note_off_c, 0, 73, 44
1, 160602, Poly_aftertouch_c, 0, 73, 0
1, 160605, Control_c, 0, 64, 90
1, 160615, Note_on_c, 0, 46, 59
1, 160619, Note_on_c, 0, 51, 60
1, 160624, Control_c, 0, 64, 73
1, 160644, Control_c, 0, 64, 60
1, 160662, Control_c, 0, 64, 57
1, 160681, Control_c, 0, 64, 59
1, 160699, Control_c, 0, 64, 64
1, 160718, Control_c, 0, 64, 73
1, 160726, Note_on_c, 0, 63, 53
1, 160737, Note_on_c, 0, 67, 50
1, 160737, Control_c, 0, 64, 83
1, 160740, Note_off_c, 0, 46, 59
1, 160740, Poly_aftertouch_c, 0, 46, 0
1, 160756, Control_c, 0, 64, 96
1, 160765, Note_off_c, 0, 51, 53
1, 160765, Poly_aftertouch_c, 0, 51, 0
1, 160775, Control_c, 0, 64, 111
1, 160794, Control_c, 0, 64, 123
1, 160808, Note_off_c, 0, 63, 54
1, 160809, Note_off_c, 0, 67, 58
1, 160809, Poly_aftertouch_c, 0, 67, 0
1, 160810, Control_c, 0, 64, 127
1, 160867, Note_on_c, 0, 51, 49
1, 160885, Note_on_c, 0, 48, 55
1, 160886, Control_c, 0, 64, 114
1, 160906, Control_c, 0, 64, 96
1, 160924, Control_c, 0, 64, 76
1, 160944, Control_c, 0, 64, 61
1, 160961, Control_c, 0, 64, 56
1, 161008, Note_on_c, 0, 68, 53
1, 161010, Note_on_c, 0, 63, 42
1, 161016, Control_c, 0, 64, 61
1, 161036, Control_c, 0, 64, 68
1, 161055, Control_c, 0, 64, 76
1, 161057, Note_off_c, 0, 48, 53
1, 161057, Poly_aftertouch_c, 0, 48, 0
1, 161073, Note_off_c, 0, 51, 52
1, 161073, Poly_aftertouch_c, 0, 51, 0
1, 161073, Control_c, 0, 64, 83
1, 161092, Control_c, 0, 64, 89
1, 161105, Note_off_c, 0, 63, 48
1, 161112, Note_off_c, 0, 68, 56
1, 161112, Control_c, 0, 64, 94
1, 161146, Note_on_c, 0, 56, 66
1, 161146, Control_c, 0, 64, 100
1, 161186, Control_c, 0, 64, 104
1, 161224, Control_c, 0, 64, 111
1, 161239, Poly_aftertouch_c, 0, 48, 127
1, 161249, Note_off_c, 0, 56, 54
1, 161262, Control_c, 0, 64, 116
1, 161270, Poly_aftertouch_c, 0, 48, 0
1, 161278, Note_on_c, 0, 72, 51
1, 161281, Note_on_c, 0, 75, 49
1, 161288, Note_on_c, 0, 63, 45
1, 161330, Note_off_c, 0, 75, 51
1, 161350, Note_off_c, 0, 63, 57
1, 161367, Note_off_c, 0, 72, 49
1, 161389, Note_on_c, 0, 51, 65
1, 161397, Note_on_c, 0, 48, 54
1, 161411, Control_c, 0, 64, 120
1, 161437, Note_off_c, 0, 48, 60
1, 161485, Control_c, 0, 64, 124
1, 161523, Note_off_c, 0, 51, 54
1, 161523, Poly_aftertouch_c, 0, 51, 0
1, 161532, Note_on_c, 0, 68, 63
1, 161547, Note_on_c, 0, 63, 47
1, 161609, Note_off_c, 0, 63, 55
1, 161630, Note_off_c, 0, 68, 56
1, 161648, Note_on_c, 0, 56, 65
1, 161731, Note_off_c, 0, 56, 59
1, 161803, Note_on_c, 0, 72, 48
1, 161815, Note_on_c, 0, 63, 38
1, 161841, Note_on_c, 0, 75, 24
1, 161865, Note_off_c, 0, 72, 57
1, 161872, Note_off_c, 0, 63, 48
1, 161894, Note_off_c, 0, 75, 51
1, 161916, Control_c, 0, 64, 101
1, 161928, Note_on_c, 0, 43, 68
1, 161929, Note_on_c, 0, 51, 64
1, 161935, Control_c, 0, 64, 76
1, 161952, Control_c, 0, 64, 56
1, 161971, Control_c, 0, 64, 47
1, 161989, Control_c, 0, 64, 45
1, 162008, Control_c, 0, 64, 49
1, 162016, Note_off_c, 0, 43, 64
1, 162027, Control_c, 0, 64, 57
1, 162046, Control_c, 0, 64, 68
1, 162054, Note_on_c, 0, 70, 64
1, 162065, Control_c, 0, 64, 78
1, 162071, Note_on_c, 0, 63, 42
1, 162083, Control_c, 0, 64, 86
1, 162102, Control_c, 0, 64, 95
1, 162121, Control_c, 0, 64, 105
1, 162129, Note_off_c, 0, 63, 57
1, 162140, Control_c, 0, 64, 114
1, 162148, Note_off_c, 0, 70, 56
1, 162159, Control_c, 0, 64, 120
1, 162160, Note_off_c, 0, 51, 48
1, 162160, Poly_aftertouch_c, 0, 51, 0
1, 162177, Control_c, 0, 64, 124
1, 162183, Note_on_c, 0, 58, 76
1, 162256, Note_off_c, 0, 58, 61
1, 162256, Poly_aftertouch_c, 0, 58, 0
1, 162329, Note_on_c, 0, 73, 60
1, 162333, Note_on_c, 0, 75, 60
1, 162359, Note_on_c, 0, 63, 41
1, 162374, Note_off_c, 0, 75, 62
1, 162376, Note_off_c, 0, 73, 61
1, 162376, Poly_aftertouch_c, 0, 73, 0
1, 162408, Note_off_c, 0, 63, 53
1, 162439, Control_c, 0, 64, 108
1, 162450, Note_on_c, 0, 44, 68
1, 162453, Note_on_c, 0, 51, 66
1, 162459, Control_c, 0, 64, 80
1, 162476, Control_c, 0, 64, 58
1, 162496, Control_c, 0, 64, 48
1, 162513, Control_c, 0, 64, 46
1, 162532, Control_c, 0, 64, 51
1, 162535, Note_off_c, 0, 44, 60
1, 162535, Poly_aftertouch_c, 0, 44, 0
1, 162552, Control_c, 0, 64, 63
1, 162567, Note_off_c, 0, 51, 61
1, 162567, Poly_aftertouch_c, 0, 51, 0
1, 162568, Control_c, 0, 64, 76
1, 162570, Note_on_c, 0, 72, 58
1, 162571, Note_on_c, 0, 63, 54
1, 162575, Note_on_c, 0, 75, 49
1, 162581, Note_on_c, 0, 68, 57
1, 162587, Control_c, 0, 64, 88
1, 162608, Control_c, 0, 64, 102
1, 162624, Note_off_c, 0, 75, 50
1, 162625, Control_c, 0, 64, 117
1, 162637, Note_off_c, 0, 68, 55
1, 162644, Control_c, 0, 64, 127
1, 162645, Note_off_c, 0, 63, 51
1, 162671, Note_off_c, 0, 72, 55
1, 162706, Note_on_c, 0, 60, 74
1, 162758, Note_off_c, 0, 60, 56
1, 162845, Note_on_c, 0, 72, 57
1, 162853, Note_on_c, 0, 68, 53
1, 162862, Note_on_c, 0, 63, 47
1, 162862, Note_on_c, 0, 75, 47
1, 162900, Note_off_c, 0, 75, 50
1, 162907, Note_off_c, 0, 68, 60
1, 162915, Note_off_c, 0, 63, 58
1, 162944, Note_off_c, 0, 72, 59
1, 162944, Control_c, 0, 64, 110
1, 162958, Note_on_c, 0, 39, 74
1, 162959, Note_on_c, 0, 51, 73
1, 162961, Control_c, 0, 64, 86
1, 162981, Control_c, 0, 64, 70
1, 163012, Note_off_c, 0, 39, 64
1, 163018, Control_c, 0, 64, 72
1, 163037, Control_c, 0, 64, 79
1, 163051, Note_off_c, 0, 51, 57
1, 163051, Poly_aftertouch_c, 0, 51, 0
1, 163055, Control_c, 0, 64, 89
1, 163075, Control_c, 0, 64, 105
1, 163093, Control_c, 0, 64, 123
1, 163099, Note_on_c, 0, 67, 56
1, 163100, Note_on_c, 0, 70, 61
1, 163101, Note_on_c, 0, 75, 56
1, 163111, Note_on_c, 0, 63, 50
1, 163111, Control_c, 0, 64, 127
1, 163149, Note_off_c, 0, 75, 52
1, 163162, Note_off_c, 0, 63, 57
1, 163190, Note_off_c, 0, 67, 54
1, 163190, Poly_aftertouch_c, 0, 67, 0
1, 163195, Note_off_c, 0, 70, 55
1, 163218, Note_on_c, 0, 58, 80
1, 163290, Note_off_c, 0, 58, 62
1, 163290, Poly_aftertouch_c, 0, 58, 0
1, 163335, Note_on_c, 0, 70, 59
1, 163347, Note_on_c, 0, 67, 40
1, 163378, Note_off_c, 0, 70, 67
1, 163387, Note_off_c, 0, 67, 53
1, 163387, Poly_aftertouch_c, 0, 67, 0
1, 163393, Poly_aftertouch_c, 0, 63, 0
1, 163436, Note_on_c, 0, 60, 68
1, 163506, Control_c, 0, 64, 123
1, 163507, Control_c, 0, 67, 8
1, 163523, Control_c, 0, 64, 109
1, 163526, Note_on_c, 0, 58, 70
1, 163542, Control_c, 0, 64, 92
1, 163561, Control_c, 0, 64, 75
1, 163579, Control_c, 0, 64, 60
1, 163598, Control_c, 0, 64, 44
1, 163615, Note_on_c, 0, 75, 62
1, 163617, Control_c, 0, 64, 0
1, 163619, Control_c, 0, 67, 12
1, 163621, Note_off_c, 0, 60, 45
1, 163627, Note_on_c, 0, 68, 57
1, 163634, Note_on_c, 0, 66, 56
1, 163645, Note_on_c, 0, 57, 67
1, 163659, Note_on_c, 0, 63, 43
1, 163703, Note_off_c, 0, 58, 60
1, 163703, Poly_aftertouch_c, 0, 58, 0
1, 163716, Note_off_c, 0, 75, 56
1, 163724, Note_off_c, 0, 63, 54
1, 163729, Control_c, 0, 64, 18
1, 163731, Note_off_c, 0, 66, 59
1, 163744, Note_off_c, 0, 68, 60
1, 163748, Control_c, 0, 64, 32
1, 163748, Control_c, 0, 67, 16
1, 163766, Control_c, 0, 64, 45
1, 163781, Note_on_c, 0, 58, 67
1, 163784, Control_c, 0, 64, 58
1, 163790, Note_off_c, 0, 57, 63
1, 163804, Control_c, 0, 64, 69
1, 163822, Control_c, 0, 64, 77
1, 163841, Control_c, 0, 64, 83
1, 163861, Control_c, 0, 64, 89
1, 163879, Control_c, 0, 64, 97
1, 163894, Note_on_c, 0, 68, 63
1, 163895, Note_on_c, 0, 75, 56
1, 163897, Control_c, 0, 64, 103
1, 163903, Note_on_c, 0, 66, 54
1, 163907, Note_off_c, 0, 58, 64
1, 163907, Poly_aftertouch_c, 0, 58, 0
1, 163911, Note_on_c, 0, 60, 64
1, 163914, Note_on_c, 0, 63, 41
1, 163916, Control_c, 0, 64, 108
1, 163916, Control_c, 0, 67, 21
1, 163953, Note_off_c, 0, 66, 62
1, 163953, Control_c, 0, 67, 26
1, 163956, Note_off_c, 0, 63, 52
1, 163972, Note_off_c, 0, 68, 62
1, 163991, Control_c, 0, 67, 33
1, 164005, Note_off_c, 0, 75, 52
1, 164028, Control_c, 0, 67, 40
1, 164047, Note_on_c, 0, 49, 62
1, 164047, Control_c, 0, 64, 102
1, 164052, Note_off_c, 0, 60, 57
1, 164067, Control_c, 0, 64, 93
1, 164068, Control_c, 0, 67, 47
1, 164084, Control_c, 0, 64, 82
1, 164085, Control_c, 0, 67, 51
1, 164103, Control_c, 0, 64, 72
1, 164106, Control_c, 0, 67, 55
1, 164122, Control_c, 0, 64, 63
1, 164123, Control_c, 0, 67, 60
1, 164142, Control_c, 0, 64, 55
1, 164143, Control_c, 0, 67, 65
1, 164158, Control_c, 0, 64, 44
1, 164159, Control_c, 0, 67, 70
1, 164171, Note_on_c, 0, 77, 67
1, 164177, Control_c, 0, 64, 32
1, 164178, Control_c, 0, 67, 74
1, 164196, Control_c, 0, 64, 28
1, 164206, Note_on_c, 0, 68, 42
1, 164212, Note_on_c, 0, 65, 39
1, 164216, Control_c, 0, 67, 81
1, 164234, Control_c, 0, 64, 35
1, 164252, Control_c, 0, 64, 43
1, 164253, Control_c, 0, 67, 88
1, 164259, Note_off_c, 0, 65, 50
1, 164259, Poly_aftertouch_c, 0, 65, 0
1, 164261, Note_off_c, 0, 77, 56
1, 164270, Control_c, 0, 64, 55
1, 164271, Note_off_c, 0, 68, 59
1, 164289, Control_c, 0, 64, 67
1, 164295, Note_on_c, 0, 61, 59
1, 164308, Control_c, 0, 64, 76
1, 164327, Control_c, 0, 64, 83
1, 164348, Control_c, 0, 64, 91
1, 164364, Control_c, 0, 64, 102
1, 164371, Note_off_c, 0, 49, 55
1, 164383, Control_c, 0, 64, 114
1, 164394, Note_off_c, 0, 61, 57
1, 164402, Control_c, 0, 64, 124
1, 164403, Control_c, 0, 67, 84
1, 164432, Note_on_c, 0, 77, 67
1, 164440, Control_c, 0, 67, 75
1, 164458, Control_c, 0, 67, 69
1, 164460, Note_on_c, 0, 65, 34
1, 164477, Control_c, 0, 67, 63
1, 164485, Note_off_c, 0, 77, 53
1, 164494, Control_c, 0, 67, 58
1, 164509, Note_off_c, 0, 65, 45
1, 164509, Poly_aftertouch_c, 0, 65, 0
1, 164516, Control_c, 0, 67, 52
1, 164533, Control_c, 0, 67, 48
1, 164560, Note_on_c, 0, 53, 55
1, 164570, Control_c, 0, 67, 43
1, 164626, Control_c, 0, 64, 106
1, 164646, Control_c, 0, 64, 83
1, 164663, Control_c, 0, 64, 62
1, 164682, Control_c, 0, 64, 45
1, 164701, Control_c, 0, 64, 30
1, 164705, Note_on_c, 0, 80, 60
1, 164732, Note_on_c, 0, 68, 40
1, 164757, Control_c, 0, 64, 45
1, 164757, Control_c, 0, 67, 39
1, 164776, Control_c, 0, 64, 60
1, 164777, Control_c, 0, 67, 35
1, 164778, Note_off_c, 0, 80, 58
1, 164778, Note_off_c, 0, 68, 56
1, 164796, Control_c, 0, 64, 75
1, 164798, Control_c, 0, 67, 28
1, 164813, Control_c, 0, 64, 87
1, 164816, Control_c, 0, 67, 21
1, 164821, Note_on_c, 0, 61, 49
1, 164832, Control_c, 0, 64, 100
1, 164834, Control_c, 0, 67, 14
1, 164851, Control_c, 0, 64, 113
1, 164852, Control_c, 0, 67, 8
1, 164869, Control_c, 0, 64, 124
1, 164951, Poly_aftertouch_c, 0, 53, 20
1, 164954, Note_off_c, 0, 53, 36
1, 164954, Poly_aftertouch_c, 0, 53, 0
1, 164958, Note_on_c, 0, 80, 64
1, 164975, Note_on_c, 0, 68, 45
1, 164997, Note_off_c, 0, 61, 36
1, 165029, Note_off_c, 0, 68, 60
1, 165037, Note_off_c, 0, 80, 59
1, 165075, Control_c, 0, 67, 12
1, 165094, Control_c, 0, 64, 113
1, 165100, Note_on_c, 0, 51, 49
1, 165112, Control_c, 0, 64, 88
1, 165113, Control_c, 0, 67, 17
1, 165132, Control_c, 0, 64, 64
1, 165134, Control_c, 0, 67, 21
1, 165151, Control_c, 0, 64, 44
1, 165152, Control_c, 0, 67, 25
1, 165168, Control_c, 0, 64, 21
1, 165169, Control_c, 0, 67, 31
1, 165189, Control_c, 0, 64, 9
1, 165190, Control_c, 0, 67, 37
1, 165207, Control_c, 0, 64, 17
1, 165208, Control_c, 0, 67, 42
1, 165217, Note_on_c, 0, 80, 60
1, 165225, Control_c, 0, 64, 31
1, 165226, Control_c, 0, 67, 46
1, 165237, Note_on_c, 0, 68, 45
1, 165241, Control_c, 0, 64, 48
1, 165262, Control_c, 0, 64, 66
1, 165264, Control_c, 0, 67, 52
1, 165281, Control_c, 0, 64, 80
1, 165289, Note_off_c, 0, 68, 60
1, 165292, Note_off_c, 0, 80, 55
1, 165299, Control_c, 0, 64, 92
1, 165301, Control_c, 0, 67, 56
1, 165318, Control_c, 0, 64, 103
1, 165338, Control_c, 0, 64, 113
1, 165341, Control_c, 0, 67, 60
1, 165347, Note_on_c, 0, 60, 53
1, 165356, Control_c, 0, 64, 121
1, 165374, Control_c, 0, 64, 126
1, 165375, Control_c, 0, 67, 64
1, 165410, Note_off_c, 0, 51, 26
1, 165410, Poly_aftertouch_c, 0, 51, 0
1, 165421, Note_off_c, 0, 60, 52
1, 165430, Control_c, 0, 67, 69
1, 165467, Control_c, 0, 67, 73
1, 165472, Note_on_c, 0, 80, 59
1, 165489, Note_on_c, 0, 68, 47
1, 165504, Control_c, 0, 67, 78
1, 165533, Note_off_c, 0, 80, 48
1, 165542, Control_c, 0, 64, 118
1, 165544, Control_c, 0, 67, 85
1, 165547, Note_off_c, 0, 68, 60
1, 165561, Control_c, 0, 64, 103
1, 165580, Control_c, 0, 64, 81
1, 165581, Control_c, 0, 67, 92
1, 165598, Control_c, 0, 64, 59
1, 165602, Note_on_c, 0, 50, 48
1, 165602, Control_c, 0, 67, 96
1, 165618, Control_c, 0, 64, 45
1, 165619, Control_c, 0, 67, 101
1, 165637, Control_c, 0, 64, 40
1, 165639, Control_c, 0, 67, 107
1, 165674, Control_c, 0, 64, 47
1, 165676, Control_c, 0, 67, 114
1, 165693, Control_c, 0, 64, 56
1, 165693, Control_c, 0, 67, 118
1, 165708, Note_off_c, 0, 50, 61
1, 165710, Control_c, 0, 64, 66
1, 165729, Control_c, 0, 64, 73
1, 165730, Control_c, 0, 67, 124
1, 165741, Note_on_c, 0, 80, 53
1, 165748, Control_c, 0, 64, 78
1, 165755, Note_on_c, 0, 68, 42
1, 165767, Control_c, 0, 64, 83
1, 165782, Note_off_c, 0, 80, 51
1, 165785, Control_c, 0, 64, 88
1, 165802, Note_off_c, 0, 68, 53
1, 165803, Control_c, 0, 64, 95
1, 165823, Control_c, 0, 64, 103
1, 165842, Control_c, 0, 64, 111
1, 165860, Control_c, 0, 64, 117
1, 165879, Control_c, 0, 64, 122
1, 165885, Note_on_c, 0, 65, 51
1, 165916, Control_c, 0, 64, 127
1, 165919, Note_off_c, 0, 65, 60
1, 165919, Poly_aftertouch_c, 0, 65, 0
1, 166000, Note_on_c, 0, 80, 53
1, 166022, Note_on_c, 0, 68, 39
1, 166101, Note_off_c, 0, 68, 59
1, 166117, Note_off_c, 0, 80, 47
1, 166137, Note_on_c, 0, 49, 51
1, 166141, Control_c, 0, 64, 116
1, 166161, Control_c, 0, 64, 98
1, 166179, Control_c, 0, 64, 79
1, 166197, Control_c, 0, 64, 64
1, 166216, Control_c, 0, 64, 56
1, 166234, Control_c, 0, 64, 52
1, 166271, Control_c, 0, 64, 55
1, 166278, Note_on_c, 0, 79, 55
1, 166291, Control_c, 0, 64, 61
1, 166297, Note_off_c, 0, 49, 49
1, 166302, Note_on_c, 0, 67, 41
1, 166309, Control_c, 0, 64, 70
1, 166327, Control_c, 0, 64, 78
1, 166347, Control_c, 0, 64, 86
1, 166354, Note_off_c, 0, 67, 54
1, 166354, Poly_aftertouch_c, 0, 67, 0
1, 166366, Control_c, 0, 64, 94
1, 166368, Note_off_c, 0, 79, 51
1, 166368, Poly_aftertouch_c, 0, 79, 0
1, 166384, Control_c, 0, 64, 104
1, 166402, Note_on_c, 0, 58, 47
1, 166402, Control_c, 0, 64, 115
1, 166422, Control_c, 0, 64, 124
1, 166458, Note_off_c, 0, 58, 60
1, 166458, Poly_aftertouch_c, 0, 58, 0
1, 166557, Note_on_c, 0, 79, 52
1, 166598, Note_off_c, 0, 79, 63
1, 166598, Note_on_c, 0, 67, 27
1, 166598, Poly_aftertouch_c, 0, 79, 0
1, 166645, Note_off_c, 0, 67, 47
1, 166645, Poly_aftertouch_c, 0, 67, 0
1, 166659, Note_on_c, 0, 48, 46
1, 166664, Control_c, 0, 64, 114
1, 166683, Control_c, 0, 64, 91
1, 166703, Control_c, 0, 64, 69
1, 166721, Control_c, 0, 64, 56
1, 166739, Control_c, 0, 64, 53
1, 166776, Control_c, 0, 64, 58
1, 166796, Control_c, 0, 64, 65
1, 166815, Control_c, 0, 64, 73
1, 166825, Note_on_c, 0, 68, 42
1, 166825, Note_on_c, 0, 80, 44
1, 166834, Control_c, 0, 64, 80
1, 166852, Control_c, 0, 64, 88
1, 166870, Control_c, 0, 64, 97
1, 166876, Note_off_c, 0, 80, 46
1, 166889, Control_c, 0, 64, 106
1, 166890, Note_off_c, 0, 68, 56
1, 166907, Control_c, 0, 64, 115
1, 166925, Control_c, 0, 64, 123
1, 166929, Note_on_c, 0, 63, 50
1, 166945, Control_c, 0, 64, 127
1, 166980, Note_off_c, 0, 63, 61
1, 167032, Note_off_c, 0, 48, 19
1, 167093, Note_on_c, 0, 68, 48
1, 167130, Note_off_c, 0, 68, 63
1, 167188, Note_on_c, 0, 51, 43
1, 167244, Control_c, 0, 64, 121
1, 167262, Control_c, 0, 64, 101
1, 167282, Control_c, 0, 64, 78
1, 167300, Control_c, 0, 64, 56
1, 167319, Control_c, 0, 64, 39
1, 167338, Control_c, 0, 64, 23
1, 167346, Note_on_c, 0, 75, 42
1, 167347, Note_on_c, 0, 72, 47
1, 167364, Note_on_c, 0, 63, 34
1, 167375, Control_c, 0, 64, 31
1, 167394, Control_c, 0, 64, 42
1, 167402, Note_off_c, 0, 75, 46
1, 167412, Control_c, 0, 64, 55
1, 167419, Note_off_c, 0, 51, 54
1, 167419, Poly_aftertouch_c, 0, 51, 0
1, 167432, Control_c, 0, 64, 68
1, 167439, Note_off_c, 0, 63, 46
1, 167450, Control_c, 0, 64, 78
1, 167455, Note_off_c, 0, 72, 56
1, 167468, Control_c, 0, 64, 85
1, 167478, Note_on_c, 0, 56, 36
1, 167485, Control_c, 0, 64, 92
1, 167506, Control_c, 0, 64, 101
1, 167525, Control_c, 0, 64, 109
1, 167543, Control_c, 0, 64, 116
1, 167557, Note_off_c, 0, 56, 57
1, 167561, Control_c, 0, 64, 121
1, 167609, Note_on_c, 0, 63, 37
1, 167626, Note_on_c, 0, 72, 43
1, 167629, Note_on_c, 0, 75, 37
1, 167655, Control_c, 0, 64, 108
1, 167674, Control_c, 0, 64, 92
1, 167687, Note_off_c, 0, 75, 46
1, 167691, Note_off_c, 0, 63, 53
1, 167692, Control_c, 0, 64, 78
1, 167699, Note_off_c, 0, 72, 46
1, 167711, Control_c, 0, 64, 75
1, 167730, Control_c, 0, 64, 77
1, 167735, Note_on_c, 0, 39, 50
1, 167749, Control_c, 0, 64, 80
1, 167769, Control_c, 0, 64, 85
1, 167787, Control_c, 0, 64, 94
1, 167805, Control_c, 0, 64, 105
1, 167811, Note_off_c, 0, 39, 59
1, 167824, Control_c, 0, 64, 113
1, 167843, Control_c, 0, 64, 118
1, 167864, Note_on_c, 0, 63, 43
1, 167877, Note_on_c, 0, 75, 29
1, 167880, Note_on_c, 0, 68, 44
1, 167887, Note_on_c, 0, 72, 31
1, 167942, Note_off_c, 0, 68, 58
1, 167944, Note_off_c, 0, 63, 53
1, 167950, Note_off_c, 0, 75, 43
1, 167967, Note_off_c, 0, 72, 39
1, 168014, Note_on_c, 0, 60, 44
1, 168050, Note_off_c, 0, 60, 58
1, 168144, Note_on_c, 0, 72, 45
1, 168167, Note_on_c, 0, 63, 38
1, 168181, Note_off_c, 0, 72, 59
1, 168217, Note_off_c, 0, 63, 50
1, 168253, Control_c, 0, 64, 114
1, 168272, Control_c, 0, 64, 102
1, 168275, Note_on_c, 0, 39, 54
1, 168292, Control_c, 0, 64, 83
1, 168310, Control_c, 0, 64, 65
1, 168328, Control_c, 0, 64, 56
1, 168379, Note_off_c, 0, 39, 60
1, 168385, Control_c, 0, 64, 60
1, 168386, Note_on_c, 0, 63, 32
1, 168404, Note_on_c, 0, 67, 40
1, 168404, Control_c, 0, 64, 66
1, 168408, Note_on_c, 0, 61, 34
1, 168422, Control_c, 0, 64, 74
1, 168441, Control_c, 0, 64, 83
1, 168459, Control_c, 0, 64, 91
1, 168473, Note_off_c, 0, 61, 54
1, 168478, Control_c, 0, 64, 99
1, 168487, Note_off_c, 0, 63, 53
1, 168497, Control_c, 0, 64, 104
1, 168501, Note_off_c, 0, 67, 53
1, 168501, Poly_aftertouch_c, 0, 67, 0
1, 168534, Control_c, 0, 64, 108
1, 168550, Note_on_c, 0, 58, 46
1, 168590, Control_c, 0, 64, 104
1, 168609, Control_c, 0, 64, 98
1, 168615, Note_off_c, 0, 58, 58
1, 168615, Poly_aftertouch_c, 0, 58, 0
1, 168629, Control_c, 0, 64, 92
1, 168668, Note_on_c, 0, 63, 35
1, 168674, Note_on_c, 0, 67, 39
1, 168681, Note_on_c, 0, 61, 26
1, 168722, Control_c, 0, 64, 97
1, 168736, Note_off_c, 0, 63, 55
1, 168746, Note_off_c, 0, 61, 47
1, 168754, Note_off_c, 0, 67, 52
1, 168754, Poly_aftertouch_c, 0, 67, 0
1, 168814, Control_c, 0, 64, 89
1, 168821, Note_on_c, 0, 44, 41
1, 168834, Control_c, 0, 64, 76
1, 168853, Control_c, 0, 64, 65
1, 168872, Control_c, 0, 64, 60
1, 168890, Control_c, 0, 64, 58
1, 168945, Control_c, 0, 64, 60
1, 168955, Note_on_c, 0, 63, 30
1, 168956, Note_on_c, 0, 68, 35
1, 168960, Note_on_c, 0, 60, 35
1, 168960, Control_c, 0, 64, 65
1, 168979, Control_c, 0, 64, 72
1, 168998, Control_c, 0, 64, 78
1, 169016, Control_c, 0, 64, 83
1, 169033, Note_off_c, 0, 63, 52
1, 169034, Control_c, 0, 64, 87
1, 169035, Note_off_c, 0, 60, 54
1, 169044, Note_off_c, 0, 68, 44
1, 169060, Note_off_c, 0, 44, 37
1, 169060, Poly_aftertouch_c, 0, 44, 0
1, 169073, Control_c, 0, 64, 93
1, 169110, Note_on_c, 0, 56, 40
1, 169110, Control_c, 0, 64, 97
1, 169147, Control_c, 0, 64, 101
1, 169158, Note_off_c, 0, 56, 64
1, 169255, Note_on_c, 0, 68, 37
1, 169258, Note_on_c, 0, 63, 32
1, 169285, Note_on_c, 0, 60, 32
1, 169429, Control_c, 0, 64, 96
1, 169437, Note_off_c, 0, 60, 36
1, 169465, Control_c, 0, 64, 86
1, 169485, Control_c, 0, 64, 75
1, 169502, Control_c, 0, 64, 65
1, 169503, Note_off_c, 0, 63, 42
1, 169509, Note_on_c, 0, 32, 21
1, 169514, Note_off_c, 0, 68, 32
1, 169521, Control_c, 0, 64, 58
1, 169540, Control_c, 0, 64, 52
1, 169559, Control_c, 0, 64, 46
1, 169579, Control_c, 0, 64, 43
1, 169614, Control_c, 0, 64, 50
1, 169635, Control_c, 0, 64, 58
1, 169653, Control_c, 0, 64, 67
1, 169671, Control_c, 0, 64, 73
1, 169690, Control_c, 0, 64, 78
1, 169708, Control_c, 0, 64, 84
1, 169727, Control_c, 0, 64, 92
1, 169729, Control_c, 0, 67, 117
1, 169737, Note_off_c, 0, 32, 47
1, 169746, Control_c, 0, 64, 101
1, 169747, Control_c, 0, 67, 108
1, 169765, Control_c, 0, 64, 111
1, 169766, Control_c, 0, 67, 97
1, 169784, Control_c, 0, 64, 119
1, 169784, Control_c, 0, 67, 86
1, 169802, Control_c, 0, 64, 124
1, 169803, Control_c, 0, 67, 76
1, 169821, Control_c, 0, 67, 66
1, 169839, Control_c, 0, 67, 54
1, 169858, Control_c, 0, 67, 41
1, 169876, Control_c, 0, 67, 27
1, 169895, Control_c, 0, 67, 16
1, 169914, Control_c, 0, 67, 9
1, 170138, Control_c, 0, 64, 120
1, 170176, Control_c, 0, 64, 116
1, 170212, Control_c, 0, 64, 110
1, 170232, Control_c, 0, 64, 104
1, 170250, Control_c, 0, 64, 97
1, 170261, Note_on_c, 0, 45, 40
1, 170267, Control_c, 0, 64, 89
1, 170288, Control_c, 0, 64, 79
1, 170306, Control_c, 0, 64, 69
1, 170326, Control_c, 0, 64, 59
1, 170343, Control_c, 0, 64, 50
1, 170363, Control_c, 0, 64, 43
1, 170382, Control_c, 0, 64, 41
1, 170400, Control_c, 0, 64, 43
1, 170419, Control_c, 0, 64, 48
1, 170438, Control_c, 0, 64, 54
1, 170457, Control_c, 0, 64, 62
1, 170475, Control_c, 0, 64, 67
1, 170494, Control_c, 0, 64, 70
1, 170505, Note_on_c, 0, 77, 62
1, 170512, Control_c, 0, 64, 72
1, 170530, Control_c, 0, 64, 75
1, 170549, Control_c, 0, 64, 79
1, 170558, Note_on_c, 0, 65, 37
1, 170569, Control_c, 0, 64, 84
1, 170587, Control_c, 0, 64, 90
1, 170596, Note_off_c, 0, 45, 35
1, 170604, Control_c, 0, 64, 97
1, 170621, Note_off_c, 0, 65, 44
1, 170621, Poly_aftertouch_c, 0, 65, 0
1, 170624, Control_c, 0, 64, 106
1, 170643, Control_c, 0, 64, 114
1, 170659, Note_off_c, 0, 77, 55
1, 170662, Control_c, 0, 64, 121
1, 170680, Control_c, 0, 64, 127
1, 170680, Control_c, 0, 67, 0
1, 170726, Note_on_c, 0, 60, 38
1, 170778, Note_off_c, 0, 60, 48
1, 170850, Note_on_c, 0, 77, 71
1, 170907, Note_on_c, 0, 65, 29
1, 170957, Note_off_c, 0, 65, 52
1, 170957, Poly_aftertouch_c, 0, 65, 0
1, 170978, Note_off_c, 0, 77, 50
1, 170998, Note_on_c, 0, 45, 53
1, 170998, Control_c, 0, 64, 118
1, 171016, Control_c, 0, 64, 100
1, 171036, Control_c, 0, 64, 85
1, 171054, Control_c, 0, 64, 81
1, 171073, Control_c, 0, 64, 83
1, 171078, Note_off_c, 0, 45, 55
1, 171092, Control_c, 0, 64, 87
1, 171111, Control_c, 0, 64, 93
1, 171128, Note_on_c, 0, 77, 73
1, 171130, Control_c, 0, 64, 102
1, 171148, Control_c, 0, 64, 112
1, 171167, Control_c, 0, 64, 120
1, 171185, Control_c, 0, 64, 124
1, 171189, Poly_aftertouch_c, 0, 65, 0
1, 171199, Note_off_c, 0, 77, 59
1, 171285, Note_on_c, 0, 60, 54
1, 171335, Note_off_c, 0, 60, 65
1, 171423, Note_on_c, 0, 89, 73
1, 171452, Note_on_c, 0, 77, 53
1, 171570, Note_off_c, 0, 89, 55
1, 171578, Control_c, 0, 64, 115
1, 171580, Note_on_c, 0, 43, 55
1, 171594, Note_off_c, 0, 77, 50
1, 171598, Control_c, 0, 64, 95
1, 171617, Control_c, 0, 64, 75
1, 171635, Control_c, 0, 64, 61
1, 171653, Control_c, 0, 64, 57
1, 171690, Control_c, 0, 64, 60
1, 171699, Note_on_c, 0, 88, 72
1, 171710, Control_c, 0, 64, 65
1, 171729, Control_c, 0, 64, 73
1, 171746, Control_c, 0, 64, 82
1, 171757, Note_on_c, 0, 76, 42
1, 171765, Control_c, 0, 64, 93
1, 171780, Note_off_c, 0, 43, 53
1, 171784, Control_c, 0, 64, 105
1, 171803, Control_c, 0, 64, 116
1, 171812, Note_off_c, 0, 76, 50
1, 171821, Control_c, 0, 64, 127
1, 171833, Note_off_c, 0, 88, 61
1, 171835, Note_on_c, 0, 58, 65
1, 171903, Note_off_c, 0, 58, 57
1, 171903, Poly_aftertouch_c, 0, 58, 0
1, 171965, Note_on_c, 0, 88, 80
1, 172011, Note_on_c, 0, 76, 26
1, 172068, Note_off_c, 0, 76, 43
1, 172091, Note_on_c, 0, 45, 65
1, 172102, Control_c, 0, 64, 122
1, 172121, Control_c, 0, 64, 100
1, 172139, Control_c, 0, 64, 76
1, 172157, Control_c, 0, 64, 58
1, 172177, Control_c, 0, 64, 51
1, 172205, Note_off_c, 0, 45, 59
1, 172214, Control_c, 0, 64, 55
1, 172217, Note_on_c, 0, 87, 78
1, 172234, Control_c, 0, 64, 64
1, 172251, Control_c, 0, 64, 75
1, 172270, Control_c, 0, 64, 87
1, 172280, Note_off_c, 0, 88, 57
1, 172287, Control_c, 0, 64, 101
1, 172307, Control_c, 0, 64, 119
1, 172326, Control_c, 0, 64, 127
1, 172342, Poly_aftertouch_c, 0, 76, 0
1, 172344, Note_off_c, 0, 87, 60
1, 172359, Note_on_c, 0, 60, 63
1, 172432, Note_off_c, 0, 60, 61
1, 172481, Note_on_c, 0, 87, 78
1, 172512, Note_on_c, 0, 75, 65
1, 172588, Note_off_c, 0, 87, 61
1, 172608, Note_on_c, 0, 46, 61
1, 172610, Note_off_c, 0, 75, 60
1, 172625, Control_c, 0, 64, 120
1, 172644, Control_c, 0, 64, 96
1, 172664, Control_c, 0, 64, 73
1, 172666, Control_c, 0, 67, 9
1, 172681, Control_c, 0, 64, 57
1, 172700, Control_c, 0, 64, 50
1, 172738, Control_c, 0, 64, 53
1, 172748, Note_on_c, 0, 85, 67
1, 172756, Control_c, 0, 64, 63
1, 172760, Note_off_c, 0, 46, 61
1, 172760, Poly_aftertouch_c, 0, 46, 0
1, 172768, Note_on_c, 0, 73, 57
1, 172774, Control_c, 0, 64, 76
1, 172794, Control_c, 0, 64, 89
1, 172812, Control_c, 0, 64, 107
1, 172830, Control_c, 0, 64, 127
1, 172842, Note_off_c, 0, 73, 49
1, 172842, Poly_aftertouch_c, 0, 73, 0
1, 172849, Note_off_c, 0, 85, 59
1, 172870, Note_on_c, 0, 61, 55
1, 172886, Control_c, 0, 67, 13
1, 172925, Control_c, 0, 67, 19
1, 172962, Control_c, 0, 67, 25
1, 172980, Control_c, 0, 64, 107
1, 172992, Note_off_c, 0, 61, 50
1, 172999, Control_c, 0, 64, 95
1, 173013, Note_on_c, 0, 85, 65
1, 173032, Note_on_c, 0, 73, 57
1, 173056, Control_c, 0, 64, 104
1, 173074, Control_c, 0, 64, 115
1, 173090, Note_off_c, 0, 85, 61
1, 173091, Control_c, 0, 64, 127
1, 173102, Note_off_c, 0, 73, 56
1, 173102, Poly_aftertouch_c, 0, 73, 0
1, 173112, Control_c, 0, 67, 29
1, 173130, Note_on_c, 0, 49, 56
1, 173149, Control_c, 0, 64, 113
1, 173167, Control_c, 0, 64, 92
1, 173187, Control_c, 0, 64, 72
1, 173205, Control_c, 0, 64, 64
1, 173223, Control_c, 0, 64, 66
1, 173242, Control_c, 0, 64, 73
1, 173260, Note_off_c, 0, 49, 58
1, 173260, Control_c, 0, 64, 85
1, 173262, Note_on_c, 0, 82, 58
1, 173280, Control_c, 0, 64, 102
1, 173285, Note_on_c, 0, 70, 51
1, 173298, Control_c, 0, 64, 125
1, 173336, Control_c, 0, 67, 24
1, 173343, Note_off_c, 0, 70, 56
1, 173366, Note_off_c, 0, 82, 52
1, 173372, Control_c, 0, 67, 14
1, 173406, Note_on_c, 0, 65, 45
1, 173444, Note_off_c, 0, 65, 61
1, 173446, Control_c, 0, 67, 0
1, 173534, Note_on_c, 0, 82, 69
1, 173564, Note_on_c, 0, 70, 56
1, 173596, Note_off_c, 0, 82, 61
1, 173604, Note_off_c, 0, 70, 61
1, 173745, Note_on_c, 0, 46, 72
1, 173758, Note_on_c, 0, 34, 69
1, 173822, Control_c, 0, 64, 110
1, 173840, Control_c, 0, 64, 99
1, 173913, Note_on_c, 0, 77, 68
1, 173915, Control_c, 0, 64, 104
1, 173935, Control_c, 0, 64, 113
1, 173939, Note_on_c, 0, 73, 60
1, 173944, Note_on_c, 0, 65, 58
1, 173954, Control_c, 0, 64, 126
1, 173961, Note_off_c, 0, 46, 58
1, 173961, Poly_aftertouch_c, 0, 46, 0
1, 174055, Note_off_c, 0, 77, 58
1, 174074, Note_off_c, 0, 65, 61
1, 174077, Note_on_c, 0, 44, 74
1, 174083, Note_off_c, 0, 73, 58
1, 174083, Poly_aftertouch_c, 0, 73, 0
1, 174084, Note_on_c, 0, 32, 74
1, 174104, Note_off_c, 0, 34, 60
1, 174104, Control_c, 0, 67, 8
1, 174158, Control_c, 0, 67, 15
1, 174176, Control_c, 0, 67, 19
1, 174196, Control_c, 0, 67, 26
1, 174200, Note_on_c, 0, 76, 71
1, 174214, Control_c, 0, 67, 35
1, 174216, Note_off_c, 0, 44, 59
1, 174216, Poly_aftertouch_c, 0, 44, 0
1, 174221, Note_on_c, 0, 73, 61
1, 174224, Note_on_c, 0, 64, 57
1, 174232, Control_c, 0, 67, 44
1, 174253, Control_c, 0, 64, 121
1, 174254, Control_c, 0, 67, 51
1, 174271, Control_c, 0, 64, 103
1, 174272, Note_off_c, 0, 64, 62
1, 174272, Control_c, 0, 67, 57
1, 174289, Control_c, 0, 64, 80
1, 174290, Control_c, 0, 67, 66
1, 174308, Control_c, 0, 64, 58
1, 174311, Control_c, 0, 67, 77
1, 174319, Note_off_c, 0, 73, 57
1, 174319, Poly_aftertouch_c, 0, 73, 0
1, 174326, Control_c, 0, 64, 32
1, 174327, Control_c, 0, 67, 88
1, 174348, Control_c, 0, 64, 0
1, 174348, Control_c, 0, 67, 98
1, 174362, Note_off_c, 0, 32, 52
1, 174362, Control_c, 0, 67, 107
1, 174373, Note_on_c, 0, 43, 55
1, 174376, Note_on_c, 0, 31, 62
1, 174381, Control_c, 0, 67, 115
1, 174402, Control_c, 0, 67, 123
1, 174421, Control_c, 0, 67, 127
1, 174456, Note_off_c, 0, 31, 63
1, 174477, Control_c, 0, 64, 20
1, 174495, Control_c, 0, 64, 35
1, 174504, Note_off_c, 0, 43, 63
1, 174513, Control_c, 0, 64, 50
1, 174518, Note_off_c, 0, 76, 62
1, 174527, Note_on_c, 0, 75, 58
1, 174532, Control_c, 0, 64, 65
1, 174535, Note_on_c, 0, 73, 52
1, 174552, Control_c, 0, 64, 77
1, 174569, Control_c, 0, 64, 86
1, 174581, Note_on_c, 0, 63, 9
1, 174586, Control_c, 0, 64, 94
1, 174608, Control_c, 0, 64, 102
1, 174623, Note_off_c, 0, 73, 62
1, 174623, Poly_aftertouch_c, 0, 73, 0
1, 174626, Control_c, 0, 64, 108
1, 174638, Note_off_c, 0, 75, 60
1, 174664, Note_off_c, 0, 63, 51
1, 174665, Poly_aftertouch_c, 0, 63, 0
1, 174665, Control_c, 0, 64, 112
1, 174723, Note_on_c, 0, 58, 55
1, 174777, Control_c, 0, 64, 108
1, 174779, Note_off_c, 0, 58, 57
1, 174779, Poly_aftertouch_c, 0, 58, 0
1, 174845, Note_on_c, 0, 87, 58
1, 174853, Note_on_c, 0, 75, 49
1, 174941, Note_off_c, 0, 87, 36
1, 174962, Control_c, 0, 64, 102
1, 174981, Note_on_c, 0, 41, 57
1, 174981, Control_c, 0, 64, 93
1, 174985, Note_off_c, 0, 75, 45
1, 175000, Control_c, 0, 64, 80
1, 175020, Control_c, 0, 64, 65
1, 175038, Control_c, 0, 64, 54
1, 175056, Control_c, 0, 64, 44
1, 175075, Control_c, 0, 64, 29
1, 175111, Control_c, 0, 64, 0
1, 175124, Note_on_c, 0, 86, 63
1, 175131, Control_c, 0, 64, 17
1, 175150, Note_on_c, 0, 74, 47
1, 175150, Control_c, 0, 64, 30
1, 175169, Control_c, 0, 64, 46
1, 175187, Control_c, 0, 64, 61
1, 175205, Note_off_c, 0, 74, 58
1, 175205, Control_c, 0, 64, 73
1, 175215, Note_off_c, 0, 86, 58
1, 175223, Note_off_c, 0, 41, 35
1, 175225, Control_c, 0, 64, 80
1, 175242, Control_c, 0, 64, 87
1, 175246, Note_on_c, 0, 56, 49
1, 175262, Control_c, 0, 64, 96
1, 175281, Control_c, 0, 64, 107
1, 175298, Control_c, 0, 64, 118
1, 175318, Control_c, 0, 64, 127
1, 175357, Note_off_c, 0, 56, 51
1, 175399, Note_on_c, 0, 86, 60
1, 175413, Note_on_c, 0, 74, 48
1, 175448, Note_off_c, 0, 74, 57
1, 175477, Note_off_c, 0, 86, 60
1, 175516, Note_on_c, 0, 43, 48
1, 175524, Control_c, 0, 64, 119
1, 175544, Control_c, 0, 64, 104
1, 175561, Control_c, 0, 64, 85
1, 175580, Control_c, 0, 64, 69
1, 175598, Control_c, 0, 64, 58
1, 175618, Control_c, 0, 64, 52
1, 175635, Control_c, 0, 64, 49
1, 175648, Note_on_c, 0, 85, 53
1, 175659, Note_on_c, 0, 73, 50
1, 175673, Control_c, 0, 64, 53
1, 175693, Control_c, 0, 64, 59
1, 175696, Note_off_c, 0, 43, 38
1, 175710, Control_c, 0, 64, 69
1, 175716, Note_off_c, 0, 73, 58
1, 175716, Poly_aftertouch_c, 0, 73, 0
1, 175730, Control_c, 0, 64, 77
1, 175733, Note_off_c, 0, 85, 48
1, 175749, Control_c, 0, 64, 84
1, 175766, Control_c, 0, 64, 92
1, 175780, Note_on_c, 0, 58, 46
1, 175784, Control_c, 0, 64, 100
1, 175804, Control_c, 0, 64, 109
1, 175823, Control_c, 0, 64, 119
1, 175840, Control_c, 0, 64, 127
1, 175851, Note_off_c, 0, 58, 58
1, 175851, Poly_aftertouch_c, 0, 58, 0
1, 175919, Note_on_c, 0, 85, 53
1, 175936, Note_on_c, 0, 73, 50
1, 175978, Note_off_c, 0, 85, 57
1, 175993, Note_off_c, 0, 73, 58
1, 175993, Poly_aftertouch_c, 0, 73, 0
1, 176047, Control_c, 0, 64, 109
1, 176049, Note_on_c, 0, 44, 51
1, 176065, Control_c, 0, 64, 88
1, 176085, Control_c, 0, 64, 69
1, 176103, Control_c, 0, 64, 58
1, 176160, Control_c, 0, 64, 64
1, 176170, Note_on_c, 0, 84, 50
1, 176176, Note_off_c, 0, 44, 61
1, 176176, Poly_aftertouch_c, 0, 44, 0
1, 176179, Control_c, 0, 64, 71
1, 176197, Control_c, 0, 64, 79
1, 176205, Note_on_c, 0, 72, 32
1, 176216, Control_c, 0, 64, 88
1, 176234, Control_c, 0, 64, 98
1, 176247, Note_off_c, 0, 84, 45
1, 176251, Control_c, 0, 64, 108
1, 176255, Note_off_c, 0, 72, 48
1, 176272, Control_c, 0, 64, 116
1, 176291, Control_c, 0, 64, 122
1, 176327, Control_c, 0, 64, 127
1, 176335, Note_on_c, 0, 60, 44
1, 176384, Note_off_c, 0, 60, 52
1, 176436, Note_on_c, 0, 84, 51
1, 176448, Note_on_c, 0, 72, 44
1, 176475, Note_off_c, 0, 84, 63
1, 176497, Note_off_c, 0, 72, 61
1, 176592, Note_on_c, 0, 48, 43
1, 176608, Control_c, 0, 64, 116
1, 176627, Control_c, 0, 64, 100
1, 176645, Control_c, 0, 64, 80
1, 176665, Control_c, 0, 64, 62
1, 176682, Control_c, 0, 64, 54
1, 176702, Control_c, 0, 64, 52
1, 176731, Note_on_c, 0, 80, 51
1, 176738, Control_c, 0, 64, 57
1, 176748, Note_on_c, 0, 68, 35
1, 176757, Control_c, 0, 64, 63
1, 176775, Control_c, 0, 64, 71
1, 176793, Note_off_c, 0, 80, 54
1, 176795, Control_c, 0, 64, 78
1, 176814, Control_c, 0, 64, 85
1, 176822, Note_off_c, 0, 68, 48
1, 176832, Control_c, 0, 64, 93
1, 176851, Control_c, 0, 64, 102
1, 176867, Note_on_c, 0, 63, 42
1, 176867, Control_c, 0, 64, 111
1, 176888, Control_c, 0, 64, 121
1, 176907, Control_c, 0, 64, 127
1, 176918, Note_off_c, 0, 63, 51
1, 176925, Control_c, 0, 67, 120
1, 176944, Control_c, 0, 67, 114
1, 176964, Control_c, 0, 67, 108
1, 176981, Control_c, 0, 67, 100
1, 176990, Note_off_c, 0, 48, 40
1, 177001, Control_c, 0, 67, 93
1, 177018, Control_c, 0, 67, 88
1, 177021, Note_on_c, 0, 80, 47
1, 177031, Note_on_c, 0, 68, 39
1, 177036, Control_c, 0, 67, 83
1, 177056, Control_c, 0, 67, 79
1, 177067, Note_off_c, 0, 80, 50
1, 177089, Note_off_c, 0, 68, 54
1, 177093, Control_c, 0, 67, 74
1, 177132, Note_on_c, 0, 48, 50
1, 177151, Control_c, 0, 64, 110
1, 177169, Control_c, 0, 64, 94
1, 177187, Control_c, 0, 64, 82
1, 177207, Control_c, 0, 64, 75
1, 177208, Control_c, 0, 67, 67
1, 177244, Control_c, 0, 64, 77
1, 177245, Control_c, 0, 67, 61
1, 177263, Control_c, 0, 64, 79
1, 177282, Control_c, 0, 64, 84
1, 177285, Control_c, 0, 67, 54
1, 177298, Note_on_c, 0, 68, 39
1, 177299, Note_on_c, 0, 80, 48
1, 177301, Control_c, 0, 64, 92
1, 177302, Note_off_c, 0, 48, 54
1, 177318, Control_c, 0, 64, 102
1, 177319, Control_c, 0, 67, 48
1, 177337, Control_c, 0, 64, 110
1, 177356, Control_c, 0, 64, 116
1, 177357, Note_off_c, 0, 80, 56
1, 177357, Control_c, 0, 67, 43
1, 177375, Note_off_c, 0, 68, 54
1, 177375, Control_c, 0, 64, 121
1, 177393, Control_c, 0, 67, 39
1, 177410, Note_on_c, 0, 51, 53
1, 177412, Control_c, 0, 64, 127
1, 177431, Control_c, 0, 67, 35
1, 177487, Control_c, 0, 67, 29
1, 177525, Control_c, 0, 67, 23
1, 177552, Note_on_c, 0, 68, 45
1, 177555, Note_on_c, 0, 80, 48
1, 177561, Control_c, 0, 67, 14
1, 177567, Note_off_c, 0, 51, 48
1, 177567, Poly_aftertouch_c, 0, 51, 0
1, 177580, Control_c, 0, 67, 9
1, 177611, Note_off_c, 0, 80, 50
1, 177632, Note_off_c, 0, 68, 49
1, 177668, Note_on_c, 0, 48, 59
1, 177767, Control_c, 0, 67, 0
1, 177827, Note_on_c, 0, 68, 43
1, 177832, Note_on_c, 0, 80, 48
1, 177893, Note_off_c, 0, 80, 49
1, 177908, Note_off_c, 0, 68, 56
1, 177942, Note_on_c, 0, 51, 55
1, 177967, Note_off_c, 0, 48, 36
1, 178080, Note_on_c, 0, 80, 46
1, 178092, Note_on_c, 0, 68, 46
1, 178157, Note_off_c, 0, 80, 51
1, 178165, Note_off_c, 0, 51, 34
1, 178165, Poly_aftertouch_c, 0, 51, 0
1, 178180, Note_off_c, 0, 68, 50
1, 178210, Note_on_c, 0, 47, 60
1, 178254, Control_c, 0, 64, 116
1, 178271, Control_c, 0, 64, 96
1, 178291, Control_c, 0, 64, 77
1, 178310, Control_c, 0, 64, 68
1, 178328, Control_c, 0, 64, 66
1, 178347, Control_c, 0, 64, 68
1, 178353, Note_on_c, 0, 80, 48
1, 178355, Note_on_c, 0, 68, 49
1, 178366, Control_c, 0, 64, 71
1, 178384, Control_c, 0, 64, 75
1, 178403, Control_c, 0, 64, 81
1, 178418, Note_off_c, 0, 47, 53
1, 178421, Control_c, 0, 64, 89
1, 178423, Note_off_c, 0, 80, 52
1, 178439, Note_off_c, 0, 68, 54
1, 178441, Control_c, 0, 64, 99
1, 178459, Control_c, 0, 64, 106
1, 178478, Control_c, 0, 64, 112
1, 178487, Note_on_c, 0, 50, 58
1, 178496, Control_c, 0, 64, 118
1, 178516, Control_c, 0, 64, 123
1, 178533, Control_c, 0, 64, 127
1, 178581, Note_off_c, 0, 50, 51
1, 178620, Note_on_c, 0, 80, 56
1, 178636, Note_on_c, 0, 68, 51
1, 178721, Note_off_c, 0, 80, 53
1, 178735, Note_off_c, 0, 68, 52
1, 178752, Note_on_c, 0, 46, 68
1, 178757, Control_c, 0, 64, 120
1, 178778, Control_c, 0, 64, 99
1, 178795, Control_c, 0, 64, 81
1, 178816, Control_c, 0, 64, 69
1, 178833, Control_c, 0, 64, 65
1, 178870, Control_c, 0, 64, 68
1, 178889, Control_c, 0, 64, 73
1, 178891, Note_on_c, 0, 79, 63
1, 178907, Control_c, 0, 64, 80
1, 178912, Note_on_c, 0, 67, 48
1, 178927, Control_c, 0, 64, 90
1, 178945, Control_c, 0, 64, 103
1, 178964, Control_c, 0, 64, 118
1, 178971, Note_off_c, 0, 67, 53
1, 178971, Poly_aftertouch_c, 0, 67, 0
1, 178983, Control_c, 0, 64, 127
1, 178985, Note_off_c, 0, 79, 55
1, 178985, Poly_aftertouch_c, 0, 79, 0
1, 178993, Note_off_c, 0, 46, 37
1, 178993, Poly_aftertouch_c, 0, 46, 0
1, 179022, Note_on_c, 0, 52, 66
1, 179122, Note_off_c, 0, 52, 59
1, 179154, Note_on_c, 0, 79, 67
1, 179177, Note_on_c, 0, 67, 42
1, 179224, Note_off_c, 0, 67, 49
1, 179224, Poly_aftertouch_c, 0, 67, 0
1, 179242, Note_off_c, 0, 79, 60
1, 179242, Poly_aftertouch_c, 0, 79, 0
1, 179283, Note_on_c, 0, 44, 77
1, 179301, Control_c, 0, 64, 121
1, 179320, Control_c, 0, 64, 93
1, 179338, Control_c, 0, 64, 68
1, 179357, Control_c, 0, 64, 55
1, 179375, Control_c, 0, 64, 52
1, 179412, Control_c, 0, 64, 61
1, 179417, Note_on_c, 0, 84, 70
1, 179429, Control_c, 0, 64, 75
1, 179433, Note_on_c, 0, 72, 55
1, 179451, Control_c, 0, 64, 89
1, 179469, Control_c, 0, 64, 107
1, 179470, Note_off_c, 0, 44, 49
1, 179470, Poly_aftertouch_c, 0, 44, 0
1, 179487, Control_c, 0, 64, 127
1, 179505, Note_off_c, 0, 72, 54
1, 179530, Note_off_c, 0, 84, 63
1, 179560, Note_on_c, 0, 53, 72
1, 179663, Note_off_c, 0, 53, 52
1, 179663, Poly_aftertouch_c, 0, 53, 0
1, 179689, Note_on_c, 0, 84, 58
1, 179722, Note_on_c, 0, 72, 64
1, 179725, Note_off_c, 0, 84, 65
1, 179790, Note_off_c, 0, 72, 62
1, 179827, Note_on_c, 0, 43, 78
1, 179900, Control_c, 0, 64, 99
1, 179918, Control_c, 0, 64, 67
1, 179936, Control_c, 0, 64, 37
1, 179954, Control_c, 0, 64, 0
1, 179964, Note_on_c, 0, 76, 72
1, 179976, Note_on_c, 0, 72, 68
1, 179978, Note_on_c, 0, 70, 70
1, 180011, Control_c, 0, 64, 23
1, 180026, Note_off_c, 0, 70, 57
1, 180030, Control_c, 0, 64, 51
1, 180049, Control_c, 0, 64, 74
1, 180066, Control_c, 0, 64, 92
1, 180075, Note_off_c, 0, 72, 53
1, 180086, Control_c, 0, 64, 111
1, 180094, Note_off_c, 0, 76, 50
1, 180103, Control_c, 0, 64, 127
1, 180108, Note_on_c, 0, 55, 75
1, 180181, Note_off_c, 0, 43, 28
1, 180216, Note_off_c, 0, 55, 59
1, 180242, Note_on_c, 0, 76, 70
1, 180247, Note_on_c, 0, 72, 63
1, 180258, Note_on_c, 0, 70, 68
1, 180366, Control_c, 0, 64, 95
1, 180368, Note_off_c, 0, 70, 40
1, 180386, Control_c, 0, 64, 63
1, 180388, Note_off_c, 0, 72, 38
1, 180389, Note_on_c, 0, 41, 77
1, 180405, Control_c, 0, 64, 35
1, 180422, Control_c, 0, 64, 17
1, 180441, Control_c, 0, 64, 26
1, 180460, Control_c, 0, 64, 44
1, 180470, Note_off_c, 0, 76, 38
1, 180477, Control_c, 0, 64, 66
1, 180497, Control_c, 0, 64, 84
1, 180517, Control_c, 0, 64, 102
1, 180519, Note_off_c, 0, 41, 63
1, 180534, Control_c, 0, 64, 122
1, 180545, Note_on_c, 0, 77, 72
1, 180553, Control_c, 0, 64, 127
1, 180558, Note_on_c, 0, 72, 60
1, 180562, Note_on_c, 0, 68, 63
1, 180651, Note_off_c, 0, 77, 51
1, 180660, Note_off_c, 0, 68, 40
1, 180662, Note_off_c, 0, 72, 45
1, 180737, Note_on_c, 0, 56, 72
1, 180796, Note_on_c, 0, 54, 16
1, 180900, Note_on_c, 0, 77, 67
1, 180922, Note_on_c, 0, 53, 74
1, 180927, Note_off_c, 0, 56, 58
1, 180938, Note_on_c, 0, 68, 52
1, 180941, Note_on_c, 0, 72, 52
1, 180992, Note_off_c, 0, 54, 40
1, 180993, Poly_aftertouch_c, 0, 54, 0
1, 181031, Note_off_c, 0, 77, 56
1, 181038, Note_off_c, 0, 68, 55
1, 181076, Control_c, 0, 64, 121
1, 181096, Control_c, 0, 64, 107
1, 181113, Note_on_c, 0, 46, 68
1, 181113, Control_c, 0, 64, 89
1, 181134, Control_c, 0, 64, 73
1, 181152, Control_c, 0, 64, 58
1, 181165, Note_off_c, 0, 53, 56
1, 181165, Poly_aftertouch_c, 0, 53, 0
1, 181169, Control_c, 0, 64, 41
1, 181190, Control_c, 0, 64, 0
1, 181296, Note_on_c, 0, 79, 58
1, 181315, Note_on_c, 0, 67, 49
1, 181320, Control_c, 0, 64, 20
1, 181338, Control_c, 0, 64, 36
1, 181357, Control_c, 0, 64, 48
1, 181376, Control_c, 0, 64, 58
1, 181395, Control_c, 0, 64, 66
1, 181413, Control_c, 0, 64, 71
1, 181420, Note_off_c, 0, 79, 52
1, 181420, Poly_aftertouch_c, 0, 79, 0
1, 181432, Control_c, 0, 64, 73
1, 181442, Note_off_c, 0, 67, 49
1, 181442, Poly_aftertouch_c, 0, 67, 0
1, 181450, Control_c, 0, 64, 76
1, 181457, Note_on_c, 0, 51, 54
1, 181470, Control_c, 0, 64, 78
1, 181473, Note_off_c, 0, 72, 52
1, 181488, Control_c, 0, 64, 82
1, 181507, Control_c, 0, 64, 87
1, 181526, Control_c, 0, 64, 94
1, 181544, Control_c, 0, 64, 102
1, 181563, Control_c, 0, 64, 110
1, 181565, Note_off_c, 0, 46, 32
1, 181565, Poly_aftertouch_c, 0, 46, 0
1, 181567, Note_off_c, 0, 51, 54
1, 181567, Poly_aftertouch_c, 0, 51, 0
1, 181582, Control_c, 0, 64, 116
1, 181585, Note_on_c, 0, 79, 73
1, 181601, Control_c, 0, 64, 122
1, 181602, Note_on_c, 0, 67, 61
1, 181619, Control_c, 0, 64, 126
1, 181637, Note_on_c, 0, 72, 23
1, 181697, Note_off_c, 0, 79, 59
1, 181697, Poly_aftertouch_c, 0, 79, 0
1, 181704, Note_off_c, 0, 72, 44
1, 181708, Note_off_c, 0, 67, 53
1, 181708, Poly_aftertouch_c, 0, 67, 0
1, 181721, Note_on_c, 0, 46, 70
1, 181852, Note_on_c, 0, 79, 74
1, 181861, Note_off_c, 0, 46, 54
1, 181861, Poly_aftertouch_c, 0, 46, 0
1, 181866, Note_on_c, 0, 67, 61
1, 181956, Note_off_c, 0, 79, 59
1, 181956, Poly_aftertouch_c, 0, 79, 0
1, 181959, Note_off_c, 0, 67, 56
1, 181959, Poly_aftertouch_c, 0, 67, 0
1, 181966, Note_on_c, 0, 51, 75
1, 182055, Note_off_c, 0, 51, 56
1, 182055, Poly_aftertouch_c, 0, 51, 0
1, 182101, Note_on_c, 0, 79, 74
1, 182118, Note_on_c, 0, 67, 61
1, 182185, Note_off_c, 0, 67, 60
1, 182185, Poly_aftertouch_c, 0, 67, 0
1, 182193, Note_off_c, 0, 79, 59
1, 182193, Poly_aftertouch_c, 0, 79, 0
1, 182244, Note_on_c, 0, 47, 82
1, 182292, Control_c, 0, 64, 118
1, 182311, Control_c, 0, 64, 99
1, 182330, Control_c, 0, 64, 78
1, 182348, Control_c, 0, 64, 57
1, 182368, Control_c, 0, 64, 34
1, 182386, Note_on_c, 0, 77, 56
1, 182386, Control_c, 0, 64, 0
1, 182387, Note_on_c, 0, 80, 70
1, 182411, Note_on_c, 0, 68, 63
1, 182478, Note_off_c, 0, 80, 61
1, 182479, Note_off_c, 0, 68, 57
1, 182513, Note_on_c, 0, 50, 57
1, 182514, Control_c, 0, 64, 21
1, 182525, Note_off_c, 0, 77, 54
1, 182534, Control_c, 0, 64, 40
1, 182554, Control_c, 0, 64, 57
1, 182574, Control_c, 0, 64, 72
1, 182592, Control_c, 0, 64, 82
1, 182593, Control_c, 0, 67, 9
1, 182611, Control_c, 0, 64, 92
1, 182630, Control_c, 0, 64, 103
1, 182631, Control_c, 0, 67, 13
1, 182640, Note_off_c, 0, 50, 57
1, 182646, Control_c, 0, 64, 113
1, 182649, Note_on_c, 0, 77, 57
1, 182659, Note_on_c, 0, 80, 55
1, 182665, Control_c, 0, 64, 117
1, 182667, Control_c, 0, 67, 19
1, 182668, Note_on_c, 0, 68, 53
1, 182674, Note_off_c, 0, 47, 43
1, 182685, Control_c, 0, 67, 25
1, 182703, Control_c, 0, 67, 32
1, 182723, Control_c, 0, 67, 39
1, 182741, Control_c, 0, 67, 46
1, 182760, Control_c, 0, 67, 51
1, 182771, Note_off_c, 0, 80, 40
1, 182774, Note_off_c, 0, 68, 52
1, 182778, Control_c, 0, 67, 56
1, 182797, Note_on_c, 0, 48, 60
1, 182797, Control_c, 0, 64, 110
1, 182798, Control_c, 0, 67, 60
1, 182805, Note_off_c, 0, 77, 38
1, 182819, Control_c, 0, 64, 100
1, 182820, Control_c, 0, 67, 64
1, 182834, Control_c, 0, 64, 83
1, 182854, Control_c, 0, 64, 62
1, 182857, Control_c, 0, 67, 72
1, 182872, Control_c, 0, 64, 39
1, 182890, Control_c, 0, 64, 0
1, 182892, Control_c, 0, 67, 78
1, 182929, Note_on_c, 0, 75, 49
1, 182932, Note_on_c, 0, 79, 52
1, 182948, Note_on_c, 0, 67, 46
1, 182965, Control_c, 0, 64, 27
1, 182984, Control_c, 0, 64, 49
1, 183004, Control_c, 0, 64, 67
1, 183021, Control_c, 0, 64, 79
1, 183041, Control_c, 0, 64, 87
1, 183042, Note_off_c, 0, 67, 47
1, 183042, Poly_aftertouch_c, 0, 67, 0
1, 183054, Note_off_c, 0, 75, 58
1, 183058, Control_c, 0, 64, 94
1, 183059, Control_c, 0, 67, 73
1, 183061, Note_off_c, 0, 79, 38
1, 183061, Poly_aftertouch_c, 0, 79, 0
1, 183068, Note_on_c, 0, 51, 55
1, 183076, Control_c, 0, 64, 101
1, 183097, Control_c, 0, 64, 107
1, 183098, Control_c, 0, 67, 68
1, 183116, Control_c, 0, 64, 111
1, 183118, Control_c, 0, 67, 61
1, 183120, Note_off_c, 0, 48, 51
1, 183135, Control_c, 0, 64, 115
1, 183136, Control_c, 0, 67, 51
1, 183152, Control_c, 0, 64, 120
1, 183153, Control_c, 0, 67, 40
1, 183171, Control_c, 0, 64, 124
1, 183172, Control_c, 0, 67, 30
1, 183190, Control_c, 0, 67, 22
1, 183199, Note_on_c, 0, 79, 65
1, 183209, Control_c, 0, 67, 14
1, 183211, Note_on_c, 0, 75, 64
1, 183219, Note_on_c, 0, 67, 47
1, 183278, Note_off_c, 0, 51, 29
1, 183278, Poly_aftertouch_c, 0, 51, 0
1, 183279, Note_off_c, 0, 67, 48
1, 183279, Poly_aftertouch_c, 0, 67, 0
1, 183295, Note_off_c, 0, 79, 55
1, 183295, Poly_aftertouch_c, 0, 79, 0
1, 183306, Note_off_c, 0, 75, 57
1, 183330, Note_on_c, 0, 48, 60
1, 183415, Control_c, 0, 67, 0
1, 183420, Note_off_c, 0, 48, 60
1, 183463, Note_on_c, 0, 79, 71
1, 183468, Note_on_c, 0, 75, 64
1, 183479, Note_on_c, 0, 67, 60
1, 183547, Note_off_c, 0, 67, 53
1, 183547, Poly_aftertouch_c, 0, 67, 0
1, 183554, Note_off_c, 0, 79, 56
1, 183554, Note_off_c, 0, 75, 59
1, 183554, Poly_aftertouch_c, 0, 79, 0
1, 183595, Note_on_c, 0, 51, 73
1, 183679, Note_off_c, 0, 51, 55
1, 183679, Poly_aftertouch_c, 0, 51, 0
1, 183728, Note_on_c, 0, 75, 68
1, 183737, Note_on_c, 0, 79, 67
1, 183770, Note_on_c, 0, 67, 12
1, 183805, Note_off_c, 0, 75, 62
1, 183805, Note_off_c, 0, 79, 58
1, 183805, Poly_aftertouch_c, 0, 79, 0
1, 183852, Note_off_c, 0, 67, 49
1, 183852, Poly_aftertouch_c, 0, 67, 0
1, 183861, Note_on_c, 0, 45, 79
1, 183862, Control_c, 0, 64, 117
1, 183882, Control_c, 0, 64, 94
1, 183900, Control_c, 0, 64, 73
1, 183919, Control_c, 0, 64, 63
1, 183956, Control_c, 0, 64, 67
1, 183975, Control_c, 0, 64, 72
1, 183994, Control_c, 0, 64, 80
1, 183997, Note_off_c, 0, 45, 60
1, 184005, Note_on_c, 0, 84, 74
1, 184014, Control_c, 0, 64, 91
1, 184022, Note_on_c, 0, 72, 57
1, 184028, Note_on_c, 0, 75, 64
1, 184031, Control_c, 0, 64, 104
1, 184049, Control_c, 0, 64, 117
1, 184069, Control_c, 0, 64, 126
1, 184117, Note_off_c, 0, 84, 60
1, 184119, Note_off_c, 0, 72, 55
1, 184133, Note_off_c, 0, 75, 58
1, 184164, Note_on_c, 0, 55, 77
1, 184298, Note_on_c, 0, 84, 60
1, 184313, Note_on_c, 0, 72, 52
1, 184314, Note_on_c, 0, 75, 47
1, 184332, Note_on_c, 0, 53, 75
1, 184381, Note_off_c, 0, 55, 57
1, 184381, Note_off_c, 0, 84, 63
1, 184398, Note_off_c, 0, 72, 62
1, 184445, Note_off_c, 0, 75, 52
1, 184525, Note_on_c, 0, 46, 68
1, 184536, Control_c, 0, 64, 119
1, 184555, Control_c, 0, 64, 108
1, 184573, Control_c, 0, 64, 92
1, 184576, Note_off_c, 0, 53, 55
1, 184576, Poly_aftertouch_c, 0, 53, 0
1, 184592, Control_c, 0, 64, 74
1, 184611, Control_c, 0, 64, 57
1, 184629, Control_c, 0, 64, 37
1, 184649, Control_c, 0, 64, 0
1, 184664, Note_on_c, 0, 82, 66
1, 184688, Note_on_c, 0, 75, 58
1, 184692, Note_on_c, 0, 70, 54
1, 184711, Note_on_c, 0, 79, 41
1, 184723, Control_c, 0, 64, 23
1, 184742, Control_c, 0, 64, 42
1, 184760, Control_c, 0, 64, 57
1, 184779, Control_c, 0, 64, 68
1, 184787, Note_off_c, 0, 70, 52
1, 184798, Control_c, 0, 64, 73
1, 184806, Note_off_c, 0, 82, 51
1, 184810, Note_off_c, 0, 75, 55
1, 184816, Control_c, 0, 64, 76
1, 184834, Control_c, 0, 64, 79
1, 184837, Note_on_c, 0, 51, 69
1, 184849, Note_off_c, 0, 79, 40
1, 184849, Poly_aftertouch_c, 0, 79, 0
1, 184853, Control_c, 0, 64, 83
1, 184872, Control_c, 0, 64, 86
1, 184885, Note_off_c, 0, 46, 32
1, 184885, Poly_aftertouch_c, 0, 46, 0
1, 184890, Control_c, 0, 64, 91
1, 184910, Control_c, 0, 64, 98
1, 184929, Control_c, 0, 64, 104
1, 184948, Control_c, 0, 64, 109
1, 184960, Note_on_c, 0, 75, 73
1, 184963, Note_off_c, 0, 51, 52
1, 184963, Note_on_c, 0, 79, 71
1, 184963, Poly_aftertouch_c, 0, 51, 0
1, 184966, Control_c, 0, 64, 114
1, 184975, Note_on_c, 0, 70, 61
1, 185003, Control_c, 0, 64, 121
1, 185030, Note_off_c, 0, 75, 62
1, 185032, Note_off_c, 0, 70, 55
1, 185037, Note_off_c, 0, 79, 61
1, 185037, Poly_aftertouch_c, 0, 79, 0
1, 185060, Control_c, 0, 64, 125
1, 185076, Poly_aftertouch_c, 0, 82, 0
1, 185114, Note_on_c, 0, 46, 71
1, 185199, Note_on_c, 0, 75, 66
1, 185211, Note_on_c, 0, 70, 62
1, 185213, Note_on_c, 0, 67, 67
1, 185234, Note_off_c, 0, 46, 55
1, 185234, Poly_aftertouch_c, 0, 46, 0
1, 185302, Note_off_c, 0, 67, 54
1, 185302, Poly_aftertouch_c, 0, 67, 0
1, 185312, Note_off_c, 0, 70, 57
1, 185314, Note_off_c, 0, 75, 57
1, 185371, Note_on_c, 0, 51, 68
1, 185443, Note_off_c, 0, 51, 61
1, 185443, Poly_aftertouch_c, 0, 51, 0
1, 185477, Note_on_c, 0, 75, 70
1, 185488, Note_on_c, 0, 67, 63
1, 185498, Note_on_c, 0, 70, 58
1, 185546, Control_c, 0, 64, 117
1, 185554, Note_off_c, 0, 67, 59
1, 185554, Poly_aftertouch_c, 0, 67, 0
1, 185565, Control_c, 0, 64, 97
1, 185584, Control_c, 0, 64, 77
1, 185602, Control_c, 0, 64, 66
1, 185616, Note_on_c, 0, 34, 84
1, 185624, Note_off_c, 0, 70, 50
1, 185639, Control_c, 0, 64, 70
1, 185653, Note_off_c, 0, 75, 54
1, 185657, Control_c, 0, 64, 75
1, 185676, Control_c, 0, 64, 83
1, 185697, Control_c, 0, 64, 93
1, 185714, Control_c, 0, 64, 104
1, 185717, Note_off_c, 0, 34, 60
1, 185732, Control_c, 0, 64, 113
1, 185751, Control_c, 0, 64, 120
1, 185752, Note_on_c, 0, 77, 73
1, 185772, Note_on_c, 0, 68, 62
1, 185778, Note_on_c, 0, 70, 64
1, 185789, Control_c, 0, 64, 125
1, 185826, Note_off_c, 0, 68, 57
1, 185843, Note_off_c, 0, 70, 57
1, 185853, Note_off_c, 0, 77, 55
1, 185872, Note_on_c, 0, 50, 70
1, 185944, Note_off_c, 0, 50, 60
1, 186004, Note_on_c, 0, 77, 71
1, 186028, Note_on_c, 0, 68, 58
1, 186030, Note_on_c, 0, 70, 59
1, 186107, Note_off_c, 0, 70, 51
1, 186135, Note_off_c, 0, 68, 37
1, 186173, Note_on_c, 0, 39, 80
1, 186180, Control_c, 0, 64, 115
1, 186201, Control_c, 0, 64, 92
1, 186219, Control_c, 0, 64, 69
1, 186238, Control_c, 0, 64, 51
1, 186258, Control_c, 0, 64, 35
1, 186275, Control_c, 0, 64, 25
1, 186312, Control_c, 0, 64, 37
1, 186326, Note_on_c, 0, 75, 74
1, 186331, Control_c, 0, 64, 51
1, 186350, Control_c, 0, 64, 67
1, 186352, Note_on_c, 0, 70, 62
1, 186357, Note_on_c, 0, 67, 52
1, 186368, Control_c, 0, 64, 80
1, 186374, Note_off_c, 0, 77, 54
1, 186388, Control_c, 0, 64, 91
1, 186406, Control_c, 0, 64, 103
1, 186425, Control_c, 0, 64, 115
1, 186437, Note_off_c, 0, 39, 59
1, 186443, Control_c, 0, 64, 124
1, 186455, Note_on_c, 0, 51, 74
1, 186458, Note_off_c, 0, 67, 38
1, 186458, Poly_aftertouch_c, 0, 67, 0
1, 186466, Note_off_c, 0, 70, 49
1, 186493, Note_off_c, 0, 75, 54
1, 186599, Note_off_c, 0, 51, 50
1, 186599, Poly_aftertouch_c, 0, 51, 0
1, 186603, Note_on_c, 0, 75, 82
1, 186618, Note_on_c, 0, 67, 63
1, 186620, Note_on_c, 0, 70, 65
1, 186669, Note_off_c, 0, 67, 60
1, 186669, Poly_aftertouch_c, 0, 67, 0
1, 186685, Note_off_c, 0, 70, 51
1, 186710, Note_off_c, 0, 75, 63
1, 186743, Note_on_c, 0, 41, 78
1, 186854, Control_c, 0, 64, 102
1, 186873, Control_c, 0, 64, 78
1, 186878, Note_on_c, 0, 74, 75
1, 186893, Control_c, 0, 64, 57
1, 186911, Note_on_c, 0, 68, 59
1, 186911, Control_c, 0, 64, 44
1, 186916, Note_on_c, 0, 63, 61
1, 186929, Control_c, 0, 64, 33
1, 186986, Control_c, 0, 64, 43
1, 187004, Control_c, 0, 64, 54
1, 187023, Control_c, 0, 64, 66
1, 187036, Note_off_c, 0, 68, 54
1, 187040, Note_on_c, 0, 51, 62
1, 187042, Control_c, 0, 64, 77
1, 187045, Note_off_c, 0, 63, 47
1, 187060, Control_c, 0, 64, 86
1, 187076, Note_off_c, 0, 74, 54
1, 187078, Control_c, 0, 64, 97
1, 187098, Control_c, 0, 64, 111
1, 187116, Control_c, 0, 64, 123
1, 187135, Control_c, 0, 64, 127
1, 187158, Note_on_c, 0, 74, 60
1, 187168, Note_off_c, 0, 51, 47
1, 187168, Poly_aftertouch_c, 0, 51, 0
1, 187176, Note_off_c, 0, 41, 50
1, 187189, Note_on_c, 0, 68, 63
1, 187194, Note_on_c, 0, 63, 60
1, 187331, Note_on_c, 0, 43, 72
1, 187339, Note_off_c, 0, 74, 55
1, 187361, Note_off_c, 0, 63, 35
1, 187378, Note_off_c, 0, 68, 53
1, 187378, Control_c, 0, 64, 118
1, 187396, Control_c, 0, 64, 96
1, 187416, Control_c, 0, 64, 71
1, 187435, Control_c, 0, 64, 51
1, 187453, Control_c, 0, 64, 35
1, 187472, Control_c, 0, 64, 26
1, 187495, Note_on_c, 0, 73, 65
1, 187511, Control_c, 0, 64, 38
1, 187512, Note_on_c, 0, 63, 48
1, 187512, Note_on_c, 0, 70, 57
1, 187527, Control_c, 0, 64, 53
1, 187547, Control_c, 0, 64, 68
1, 187565, Control_c, 0, 64, 79
1, 187584, Control_c, 0, 64, 89
1, 187587, Note_off_c, 0, 63, 51
1, 187603, Control_c, 0, 64, 99
1, 187614, Note_off_c, 0, 73, 55
1, 187614, Poly_aftertouch_c, 0, 73, 0
1, 187621, Control_c, 0, 64, 108
1, 187641, Control_c, 0, 64, 115
1, 187658, Control_c, 0, 64, 119
1, 187661, Note_on_c, 0, 51, 62
1, 187666, Note_off_c, 0, 70, 35
1, 187696, Control_c, 0, 64, 125
1, 187726, Note_off_c, 0, 43, 47
1, 187754, Note_off_c, 0, 51, 56
1, 187754, Poly_aftertouch_c, 0, 51, 0
1, 187873, Note_on_c, 0, 73, 64
1, 187878, Note_on_c, 0, 70, 50
1, 187894, Note_on_c, 0, 63, 53
1, 187993, Note_off_c, 0, 73, 60
1, 187993, Poly_aftertouch_c, 0, 73, 0
1, 188090, Note_on_c, 0, 51, 73
1, 188113, Note_on_c, 0, 44, 62
1, 188164, Control_c, 0, 64, 114
1, 188183, Control_c, 0, 64, 94
1, 188198, Note_off_c, 0, 63, 31
1, 188201, Control_c, 0, 64, 72
1, 188220, Control_c, 0, 64, 50
1, 188240, Control_c, 0, 64, 22
1, 188257, Control_c, 0, 64, 0
1, 188313, Control_c, 0, 64, 14
1, 188332, Control_c, 0, 64, 30
1, 188350, Control_c, 0, 64, 45
1, 188366, Note_on_c, 0, 72, 47
1, 188369, Control_c, 0, 64, 59
1, 188387, Control_c, 0, 64, 69
1, 188396, Note_on_c, 0, 68, 30
1, 188401, Note_off_c, 0, 44, 55
1, 188401, Poly_aftertouch_c, 0, 44, 0
1, 188405, Control_c, 0, 64, 75
1, 188425, Control_c, 0, 64, 78
1, 188440, Poly_aftertouch_c, 0, 63, 127
1, 188442, Control_c, 0, 64, 81
1, 188463, Control_c, 0, 64, 83
1, 188501, Control_c, 0, 64, 85
1, 188502, Control_c, 0, 67, 9
1, 188514, Note_on_c, 0, 56, 62
1, 188529, Note_off_c, 0, 70, 49
1, 188534, Note_off_c, 0, 72, 50
1, 188543, Poly_aftertouch_c, 0, 63, 0
1, 188547, Note_on_c, 0, 44, 58
1, 188576, Control_c, 0, 67, 14
1, 188582, Note_off_c, 0, 68, 36
1, 188613, Control_c, 0, 64, 87
1, 188631, Control_c, 0, 67, 19
1, 188668, Control_c, 0, 67, 23
1, 188699, Note_on_c, 0, 63, 40
1, 188705, Note_on_c, 0, 75, 41
1, 188707, Note_off_c, 0, 44, 56
1, 188707, Poly_aftertouch_c, 0, 44, 0
1, 188711, Note_on_c, 0, 72, 40
1, 188717, Note_off_c, 0, 56, 57
1, 188722, Note_on_c, 0, 68, 45
1, 188724, Control_c, 0, 67, 28
1, 188752, Note_off_c, 0, 75, 50
1, 188762, Control_c, 0, 67, 32
1, 188764, Note_off_c, 0, 63, 55
1, 188783, Note_off_c, 0, 72, 54
1, 188783, Note_off_c, 0, 68, 59
1, 188799, Control_c, 0, 67, 38
1, 188837, Control_c, 0, 67, 44
1, 188849, Note_on_c, 0, 56, 63
1, 188865, Note_on_c, 0, 44, 56
1, 188874, Control_c, 0, 67, 49
1, 188930, Control_c, 0, 67, 53
1, 188975, Note_on_c, 0, 72, 39
1, 188982, Note_on_c, 0, 68, 41
1, 188982, Note_on_c, 0, 75, 41
1, 188983, Note_on_c, 0, 63, 43
1, 188991, Note_off_c, 0, 56, 57
1, 188993, Note_off_c, 0, 44, 54
1, 188993, Poly_aftertouch_c, 0, 44, 0
1, 189032, Note_off_c, 0, 75, 49
1, 189052, Note_off_c, 0, 63, 57
1, 189077, Note_off_c, 0, 68, 54
1, 189083, Note_off_c, 0, 72, 54
1, 189122, Note_on_c, 0, 56, 73
1, 189140, Note_on_c, 0, 44, 60
1, 189192, Control_c, 0, 67, 49
1, 189255, Note_on_c, 0, 68, 47
1, 189258, Note_on_c, 0, 63, 44
1, 189263, Note_off_c, 0, 44, 55
1, 189263, Poly_aftertouch_c, 0, 44, 0
1, 189265, Note_on_c, 0, 72, 44
1, 189266, Control_c, 0, 67, 45
1, 189269, Note_on_c, 0, 75, 37
1, 189276, Note_off_c, 0, 56, 55
1, 189304, Control_c, 0, 67, 37
1, 189310, Note_off_c, 0, 75, 54
1, 189321, Note_off_c, 0, 63, 58
1, 189322, Control_c, 0, 67, 32
1, 189336, Note_off_c, 0, 72, 55
1, 189336, Note_off_c, 0, 68, 55
1, 189340, Control_c, 0, 67, 28
1, 189379, Control_c, 0, 67, 22
1, 189390, Note_on_c, 0, 56, 73
1, 189398, Control_c, 0, 67, 17
1, 189408, Note_on_c, 0, 44, 63
1, 189417, Control_c, 0, 67, 13
1, 189435, Control_c, 0, 67, 8
1, 189509, Note_on_c, 0, 75, 45
1, 189509, Control_c, 0, 67, 0
1, 189513, Note_off_c, 0, 44, 53
1, 189513, Poly_aftertouch_c, 0, 44, 0
1, 189514, Note_on_c, 0, 68, 49
1, 189515, Note_off_c, 0, 56, 54
1, 189515, Note_on_c, 0, 63, 48
1, 189522, Note_on_c, 0, 72, 43
1, 189561, Note_off_c, 0, 75, 60
1, 189577, Note_off_c, 0, 68, 56
1, 189577, Note_off_c, 0, 63, 59
1, 189588, Note_off_c, 0, 72, 58
1, 189622, Control_c, 0, 64, 91
1, 189650, Note_on_c, 0, 56, 73
1, 189668, Note_on_c, 0, 44, 59
1, 189697, Control_c, 0, 64, 97
1, 189723, Note_off_c, 0, 56, 55
1, 189732, Note_off_c, 0, 44, 54
1, 189732, Poly_aftertouch_c, 0, 44, 0
1, 189733, Control_c, 0, 64, 105
1, 189753, Control_c, 0, 64, 112
1, 189771, Control_c, 0, 64, 118
1, 189777, Note_on_c, 0, 68, 49
1, 189777, Note_on_c, 0, 75, 50
1, 189778, Note_on_c, 0, 63, 53
1, 189779, Note_on_c, 0, 72, 45
1, 189792, Control_c, 0, 64, 122
1, 189822, Note_off_c, 0, 75, 52
1, 189836, Note_off_c, 0, 63, 61
1, 189840, Note_off_c, 0, 72, 61
1, 189840, Note_off_c, 0, 68, 59
1, 189883, Control_c, 0, 64, 114
1, 189903, Control_c, 0, 64, 96
1, 189920, Note_on_c, 0, 56, 64
1, 189920, Control_c, 0, 64, 74
1, 189939, Note_on_c, 0, 44, 55
1, 189940, Control_c, 0, 64, 58
1, 189958, Control_c, 0, 64, 53
1, 189959, Poly_aftertouch_c, 0, 51, 24
1, 189996, Control_c, 0, 64, 56
1, 190015, Control_c, 0, 64, 62
1, 190033, Control_c, 0, 64, 71
1, 190053, Control_c, 0, 64, 79
1, 190070, Note_on_c, 0, 63, 44
1, 190070, Note_on_c, 0, 75, 48
1, 190071, Control_c, 0, 64, 88
1, 190075, Note_on_c, 0, 73, 45
1, 190080, Note_off_c, 0, 56, 63
1, 190080, Note_on_c, 0, 70, 44
1, 190080, Control_c, 0, 64, 98
1, 190091, Control_c, 0, 64, 106
1, 190111, Control_c, 0, 64, 112
1, 190115, Note_off_c, 0, 75, 57
1, 190126, Note_off_c, 0, 70, 60
1, 190127, Note_off_c, 0, 44, 56
1, 190127, Poly_aftertouch_c, 0, 44, 0
1, 190128, Note_off_c, 0, 73, 55
1, 190128, Note_off_c, 0, 63, 55
1, 190128, Poly_aftertouch_c, 0, 73, 0
1, 190166, Control_c, 0, 64, 104
1, 190184, Control_c, 0, 64, 88
1, 190203, Poly_aftertouch_c, 0, 51, 32
1, 190203, Control_c, 0, 64, 69
1, 190205, Note_on_c, 0, 55, 57
1, 190218, Note_on_c, 0, 43, 47
1, 190222, Control_c, 0, 64, 57
1, 190260, Control_c, 0, 64, 60
1, 190275, Note_off_c, 0, 51, 35
1, 190275, Poly_aftertouch_c, 0, 51, 0
1, 190276, Poly_aftertouch_c, 0, 51, 0
1, 190277, Control_c, 0, 64, 66
1, 190297, Control_c, 0, 64, 75
1, 190316, Control_c, 0, 64, 85
1, 190319, Control_c, 0, 67, 8
1, 190327, Note_on_c, 0, 73, 42
1, 190335, Control_c, 0, 64, 96
1, 190339, Note_on_c, 0, 70, 45
1, 190340, Note_on_c, 0, 63, 37
1, 190340, Note_on_c, 0, 75, 41
1, 190345, Note_off_c, 0, 55, 56
1, 190354, Control_c, 0, 64, 105
1, 190384, Note_off_c, 0, 43, 39
1, 190391, Note_off_c, 0, 75, 48
1, 190399, Note_off_c, 0, 70, 57
1, 190404, Note_off_c, 0, 63, 46
1, 190409, Control_c, 0, 64, 95
1, 190412, Note_off_c, 0, 73, 52
1, 190412, Poly_aftertouch_c, 0, 73, 0
1, 190429, Control_c, 0, 64, 78
1, 190447, Note_on_c, 0, 55, 52
1, 190447, Control_c, 0, 64, 64
1, 190452, Note_on_c, 0, 43, 39
1, 190466, Control_c, 0, 64, 63
1, 190484, Control_c, 0, 64, 68
1, 190504, Control_c, 0, 64, 75
1, 190521, Control_c, 0, 64, 87
1, 190540, Control_c, 0, 64, 102
1, 190558, Note_off_c, 0, 55, 54
1, 190558, Control_c, 0, 64, 120
1, 190559, Control_c, 0, 67, 0
1, 190577, Control_c, 0, 64, 127
1, 190578, Note_off_c, 0, 43, 55
1, 190581, Note_on_c, 0, 73, 52
1, 190597, Note_on_c, 0, 70, 54
1, 190607, Note_on_c, 0, 75, 46
1, 190613, Note_on_c, 0, 63, 38
1, 190647, Note_off_c, 0, 75, 54
1, 190669, Note_off_c, 0, 63, 53
1, 190670, Note_off_c, 0, 70, 48
1, 190670, Control_c, 0, 64, 121
1, 190684, Note_off_c, 0, 73, 54
1, 190684, Poly_aftertouch_c, 0, 73, 0
1, 190688, Control_c, 0, 64, 98
1, 190708, Note_on_c, 0, 53, 60
1, 190708, Note_on_c, 0, 41, 65
1, 190708, Control_c, 0, 64, 76
1, 190727, Control_c, 0, 64, 65
1, 190747, Control_c, 0, 64, 66
1, 190764, Control_c, 0, 64, 70
1, 190783, Control_c, 0, 64, 78
1, 190798, Note_off_c, 0, 41, 58
1, 190800, Control_c, 0, 64, 90
1, 190821, Control_c, 0, 64, 105
1, 190828, Note_off_c, 0, 53, 57
1, 190828, Poly_aftertouch_c, 0, 53, 0
1, 190837, Note_on_c, 0, 70, 58
1, 190838, Note_on_c, 0, 63, 53
1, 190840, Note_on_c, 0, 75, 53
1, 190840, Control_c, 0, 64, 119
1, 190843, Note_on_c, 0, 73, 59
1, 190857, Control_c, 0, 64, 127
1, 190890, Note_off_c, 0, 75, 61
1, 190902, Note_off_c, 0, 63, 54
1, 190915, Control_c, 0, 64, 116
1, 190918, Note_off_c, 0, 70, 58
1, 190921, Note_off_c, 0, 73, 48
1, 190921, Poly_aftertouch_c, 0, 73, 0
1, 190932, Control_c, 0, 64, 95
1, 190951, Control_c, 0, 64, 75
1, 190969, Note_on_c, 0, 55, 66
1, 190970, Control_c, 0, 64, 64
1, 190974, Note_on_c, 0, 43, 66
1, 190989, Control_c, 0, 64, 65
1, 191008, Control_c, 0, 64, 71
1, 191026, Control_c, 0, 64, 80
1, 191036, Note_off_c, 0, 43, 61
1, 191039, Note_off_c, 0, 55, 63
1, 191044, Control_c, 0, 64, 93
1, 191064, Control_c, 0, 64, 109
1, 191080, Control_c, 0, 64, 126
1, 191085, Note_on_c, 0, 73, 57
1, 191094, Note_on_c, 0, 70, 56
1, 191099, Note_on_c, 0, 63, 54
1, 191101, Note_on_c, 0, 75, 56
1, 191129, Poly_aftertouch_c, 0, 44, 0
1, 191148, Note_off_c, 0, 75, 59
1, 191162, Note_off_c, 0, 63, 55
1, 191172, Note_off_c, 0, 70, 56
1, 191190, Note_off_c, 0, 73, 55
1, 191190, Poly_aftertouch_c, 0, 73, 0
1, 191194, Control_c, 0, 64, 118
1, 191209, Note_on_c, 0, 51, 70
1, 191210, Note_on_c, 0, 39, 72
1, 191211, Control_c, 0, 64, 96
1, 191232, Control_c, 0, 64, 81
1, 191269, Control_c, 0, 64, 89
1, 191288, Control_c, 0, 64, 103
1, 191304, Note_off_c, 0, 51, 56
1, 191305, Control_c, 0, 64, 123
1, 191325, Control_c, 0, 64, 127
1, 191328, Note_off_c, 0, 39, 46
1, 191337, Note_on_c, 0, 70, 63
1, 191348, Note_on_c, 0, 73, 57
1, 191354, Note_on_c, 0, 63, 52
1, 191398, Note_off_c, 0, 73, 62
1, 191398, Poly_aftertouch_c, 0, 73, 0
1, 191399, Note_off_c, 0, 70, 59
1, 191415, Note_off_c, 0, 63, 57
1, 191417, Control_c, 0, 64, 96
1, 191433, Poly_aftertouch_c, 0, 75, 127
1, 191437, Control_c, 0, 64, 67
1, 191451, Poly_aftertouch_c, 0, 75, 0
1, 191456, Control_c, 0, 64, 51
1, 191466, Note_on_c, 0, 39, 64
1, 191469, Note_on_c, 0, 51, 66
1, 191494, Control_c, 0, 64, 59
1, 191512, Control_c, 0, 64, 77
1, 191515, Note_off_c, 0, 39, 63
1, 191531, Control_c, 0, 64, 100
1, 191550, Control_c, 0, 64, 127
1, 191562, Note_off_c, 0, 51, 59
1, 191596, Note_on_c, 0, 75, 31
1, 191598, Note_on_c, 0, 68, 56
1, 191598, Note_on_c, 0, 72, 52
1, 191603, Note_on_c, 0, 63, 47
1, 191640, Note_off_c, 0, 75, 48
1, 191643, Control_c, 0, 67, 8
1, 191648, Note_off_c, 0, 63, 56
1, 191653, Note_off_c, 0, 68, 58
1, 191681, Note_off_c, 0, 72, 49
1, 191719, Note_on_c, 0, 56, 72
1, 191719, Control_c, 0, 67, 0
1, 191729, Note_on_c, 0, 44, 62
1, 191775, Control_c, 0, 64, 107
1, 191789, Note_off_c, 0, 56, 62
1, 191793, Control_c, 0, 64, 89
1, 191811, Control_c, 0, 64, 78
1, 191825, Note_off_c, 0, 44, 60
1, 191830, Control_c, 0, 64, 76
1, 191845, Note_on_c, 0, 63, 38
1, 191846, Note_on_c, 0, 68, 44
1, 191848, Control_c, 0, 64, 78
1, 191857, Note_on_c, 0, 72, 46
1, 191868, Control_c, 0, 64, 86
1, 191887, Control_c, 0, 64, 103
1, 191905, Control_c, 0, 64, 127
1, 191925, Poly_aftertouch_c, 0, 75, 127
1, 191927, Note_off_c, 0, 63, 49
1, 191930, Note_off_c, 0, 68, 55
1, 191943, Note_off_c, 0, 72, 53
1, 191946, Poly_aftertouch_c, 0, 75, 0
1, 191968, Note_on_c, 0, 39, 64
1, 191978, Note_on_c, 0, 51, 59
1, 191998, Control_c, 0, 64, 100
1, 192017, Control_c, 0, 64, 74
1, 192032, Note_off_c, 0, 39, 58
1, 192036, Control_c, 0, 64, 61
1, 192055, Control_c, 0, 64, 64
1, 192071, Note_off_c, 0, 51, 60
1, 192071, Control_c, 0, 64, 73
1, 192092, Control_c, 0, 64, 91
1, 192107, Note_on_c, 0, 68, 48
1, 192111, Note_on_c, 0, 63, 45
1, 192111, Control_c, 0, 64, 125
1, 192113, Note_on_c, 0, 72, 52
1, 192120, Note_on_c, 0, 75, 23
1, 192185, Note_off_c, 0, 75, 47
1, 192212, Note_off_c, 0, 63, 48
1, 192217, Note_on_c, 0, 56, 80
1, 192219, Note_off_c, 0, 72, 59
1, 192221, Note_off_c, 0, 68, 53
1, 192227, Note_on_c, 0, 44, 69
1, 192305, Note_off_c, 0, 56, 62
1, 192334, Note_off_c, 0, 44, 60
1, 192374, Note_on_c, 0, 63, 56
1, 192374, Note_on_c, 0, 72, 62
1, 192378, Note_on_c, 0, 68, 57
1, 192388, Note_on_c, 0, 75, 36
1, 192427, Note_off_c, 0, 68, 58
1, 192427, Control_c, 0, 64, 96
1, 192433, Note_off_c, 0, 75, 51
1, 192441, Note_off_c, 0, 63, 52
1, 192442, Note_off_c, 0, 72, 59
1, 192446, Control_c, 0, 64, 64
1, 192466, Control_c, 0, 64, 36
1, 192481, Note_on_c, 0, 39, 67
1, 192484, Control_c, 0, 64, 16
1, 192491, Note_on_c, 0, 51, 59
1, 192504, Control_c, 0, 64, 26
1, 192522, Control_c, 0, 64, 43
1, 192541, Control_c, 0, 64, 61
1, 192559, Control_c, 0, 64, 77
1, 192566, Note_off_c, 0, 39, 57
1, 192578, Control_c, 0, 64, 92
1, 192596, Control_c, 0, 64, 112
1, 192598, Note_off_c, 0, 51, 60
1, 192598, Note_on_c, 0, 67, 54
1, 192612, Note_on_c, 0, 63, 56
1, 192616, Control_c, 0, 64, 127
1, 192619, Note_on_c, 0, 73, 53
1, 192627, Note_on_c, 0, 75, 28
1, 192677, Note_off_c, 0, 73, 55
1, 192677, Poly_aftertouch_c, 0, 73, 0
1, 192685, Note_off_c, 0, 75, 47
1, 192698, Note_off_c, 0, 63, 56
1, 192708, Note_off_c, 0, 67, 54
1, 192708, Poly_aftertouch_c, 0, 67, 0
1, 192729, Note_on_c, 0, 58, 81
1, 192751, Note_on_c, 0, 46, 66
1, 192803, Note_off_c, 0, 58, 62
1, 192803, Poly_aftertouch_c, 0, 58, 0
1, 192841, Note_off_c, 0, 46, 62
1, 192841, Poly_aftertouch_c, 0, 46, 0
1, 192859, Note_on_c, 0, 67, 60
1, 192859, Note_on_c, 0, 75, 51
1, 192864, Note_on_c, 0, 63, 56
1, 192920, Note_off_c, 0, 63, 57
1, 192921, Note_off_c, 0, 75, 53
1, 192937, Note_off_c, 0, 67, 60
1, 192937, Poly_aftertouch_c, 0, 67, 0
1, 192952, Control_c, 0, 64, 95
1, 192971, Control_c, 0, 64, 67
1, 192984, Note_on_c, 0, 39, 68
1, 192987, Note_on_c, 0, 51, 68
1, 192990, Control_c, 0, 64, 48
1, 193008, Control_c, 0, 64, 33
1, 193027, Control_c, 0, 64, 28
1, 193038, Note_off_c, 0, 39, 63
1, 193047, Control_c, 0, 64, 36
1, 193064, Control_c, 0, 64, 52
1, 193066, Note_off_c, 0, 51, 60
1, 193083, Control_c, 0, 64, 71
1, 193102, Control_c, 0, 64, 89
1, 193120, Note_on_c, 0, 68, 61
1, 193121, Control_c, 0, 64, 113
1, 193133, Note_on_c, 0, 63, 48
1, 193137, Control_c, 0, 64, 127
1, 193179, Note_off_c, 0, 63, 51
1, 193201, Note_off_c, 0, 68, 59
1, 193206, Poly_aftertouch_c, 0, 75, 127
1, 193237, Poly_aftertouch_c, 0, 75, 0
1, 193256, Note_on_c, 0, 60, 61
1, 193257, Note_on_c, 0, 48, 69
1, 193270, Note_on_c, 0, 59, 61
1, 193305, Note_off_c, 0, 59, 61
1, 193312, Note_off_c, 0, 60, 62
1, 193327, Note_off_c, 0, 48, 59
1, 193375, Note_on_c, 0, 75, 51
1, 193388, Note_on_c, 0, 68, 57
1, 193410, Note_on_c, 0, 63, 47
1, 193467, Note_off_c, 0, 63, 57
1, 193488, Note_off_c, 0, 75, 40
1, 193490, Note_off_c, 0, 68, 56
1, 193493, Control_c, 0, 64, 121
1, 193504, Note_on_c, 0, 51, 69
1, 193507, Note_on_c, 0, 39, 69
1, 193513, Control_c, 0, 64, 92
1, 193532, Control_c, 0, 64, 65
1, 193550, Control_c, 0, 64, 52
1, 193562, Note_off_c, 0, 39, 63
1, 193589, Control_c, 0, 64, 62
1, 193600, Note_off_c, 0, 51, 60
1, 193606, Control_c, 0, 64, 75
1, 193625, Control_c, 0, 64, 90
1, 193636, Note_on_c, 0, 75, 51
1, 193644, Control_c, 0, 64, 111
1, 193655, Note_on_c, 0, 70, 55
1, 193659, Note_on_c, 0, 67, 52
1, 193663, Control_c, 0, 64, 127
1, 193666, Note_on_c, 0, 63, 44
1, 193691, Note_off_c, 0, 75, 45
1, 193713, Note_off_c, 0, 63, 50
1, 193724, Note_off_c, 0, 70, 49
1, 193747, Note_off_c, 0, 67, 50
1, 193747, Poly_aftertouch_c, 0, 67, 0
1, 193766, Note_on_c, 0, 58, 73
1, 193795, Note_on_c, 0, 46, 44
1, 193834, Note_off_c, 0, 46, 54
1, 193834, Poly_aftertouch_c, 0, 46, 0
1, 193861, Note_off_c, 0, 58, 50
1, 193861, Poly_aftertouch_c, 0, 58, 0
1, 193898, Note_on_c, 0, 67, 52
1, 193903, Note_on_c, 0, 70, 46
1, 193937, Note_off_c, 0, 67, 54
1, 193937, Poly_aftertouch_c, 0, 67, 0
1, 193947, Note_off_c, 0, 70, 60
1, 193985, Poly_aftertouch_c, 0, 75, 0
1, 193991, Note_on_c, 0, 60, 62
1, 193996, Poly_aftertouch_c, 0, 63, 127
1, 194010, Poly_aftertouch_c, 0, 63, 0
1, 194068, Note_on_c, 0, 58, 61
1, 194112, Control_c, 0, 64, 121
1, 194113, Control_c, 0, 67, 9
1, 194131, Control_c, 0, 64, 110
1, 194148, Control_c, 0, 64, 97
1, 194149, Control_c, 0, 67, 13
1, 194167, Control_c, 0, 64, 85
1, 194186, Control_c, 0, 64, 74
1, 194192, Note_off_c, 0, 60, 55
1, 194201, Note_on_c, 0, 57, 62
1, 194206, Control_c, 0, 64, 63
1, 194206, Control_c, 0, 67, 18
1, 194218, Note_on_c, 0, 75, 58
1, 194219, Note_on_c, 0, 68, 53
1, 194223, Control_c, 0, 64, 53
1, 194225, Control_c, 0, 67, 24
1, 194226, Note_on_c, 0, 66, 55
1, 194242, Control_c, 0, 64, 41
1, 194243, Control_c, 0, 67, 32
1, 194250, Note_on_c, 0, 63, 41
1, 194253, Note_off_c, 0, 58, 60
1, 194253, Poly_aftertouch_c, 0, 58, 0
1, 194261, Control_c, 0, 64, 28
1, 194262, Control_c, 0, 67, 42
1, 194281, Control_c, 0, 64, 21
1, 194282, Control_c, 0, 67, 50
1, 194298, Control_c, 0, 67, 56
1, 194317, Control_c, 0, 67, 61
1, 194322, Note_off_c, 0, 75, 53
1, 194323, Note_off_c, 0, 63, 51
1, 194326, Note_off_c, 0, 66, 54
1, 194330, Note_on_c, 0, 58, 62
1, 194337, Control_c, 0, 64, 28
1, 194338, Control_c, 0, 67, 66
1, 194340, Note_off_c, 0, 68, 58
1, 194354, Control_c, 0, 64, 34
1, 194355, Control_c, 0, 67, 71
1, 194370, Note_off_c, 0, 57, 63
1, 194372, Control_c, 0, 64, 43
1, 194373, Control_c, 0, 67, 77
1, 194393, Control_c, 0, 64, 56
1, 194394, Control_c, 0, 67, 83
1, 194411, Control_c, 0, 64, 69
1, 194411, Control_c, 0, 67, 90
1, 194429, Control_c, 0, 64, 79
1, 194430, Control_c, 0, 67, 96
1, 194449, Control_c, 0, 64, 88
1, 194451, Control_c, 0, 67, 101
1, 194467, Control_c, 0, 64, 97
1, 194468, Control_c, 0, 67, 106
1, 194469, Note_on_c, 0, 60, 59
1, 194470, Note_on_c, 0, 75, 62
1, 194484, Note_on_c, 0, 66, 57
1, 194484, Control_c, 0, 64, 106
1, 194487, Note_off_c, 0, 58, 62
1, 194487, Note_on_c, 0, 68, 62
1, 194487, Poly_aftertouch_c, 0, 58, 0
1, 194491, Note_on_c, 0, 63, 32
1, 194504, Control_c, 0, 64, 111
1, 194505, Control_c, 0, 67, 111
1, 194539, Note_off_c, 0, 63, 48
1, 194549, Note_off_c, 0, 66, 55
1, 194554, Note_off_c, 0, 68, 54
1, 194560, Note_off_c, 0, 75, 57
1, 194578, Control_c, 0, 67, 115
1, 194598, Control_c, 0, 64, 107
1, 194616, Control_c, 0, 64, 102
1, 194622, Note_on_c, 0, 49, 62
1, 194626, Note_off_c, 0, 60, 51
1, 194633, Control_c, 0, 64, 95
1, 194654, Control_c, 0, 64, 85
1, 194673, Control_c, 0, 64, 74
1, 194690, Control_c, 0, 64, 65
1, 194710, Control_c, 0, 64, 58
1, 194729, Control_c, 0, 64, 53
1, 194747, Control_c, 0, 64, 48
1, 194759, Note_on_c, 0, 77, 61
1, 194766, Control_c, 0, 64, 45
1, 194788, Note_on_c, 0, 68, 48
1, 194792, Note_on_c, 0, 65, 46
1, 194803, Control_c, 0, 64, 50
1, 194822, Control_c, 0, 64, 57
1, 194840, Control_c, 0, 64, 67
1, 194842, Control_c, 0, 67, 111
1, 194860, Control_c, 0, 64, 75
1, 194864, Note_off_c, 0, 68, 56
1, 194868, Note_off_c, 0, 77, 57
1, 194874, Note_off_c, 0, 65, 52
1, 194878, Control_c, 0, 64, 82
1, 194879, Control_c, 0, 67, 106
1, 194897, Note_on_c, 0, 61, 53
1, 194897, Control_c, 0, 64, 92
1, 194899, Control_c, 0, 67, 100
1, 194916, Control_c, 0, 64, 105
1, 194917, Control_c, 0, 67, 90
1, 194936, Control_c, 0, 64, 120
1, 194937, Control_c, 0, 67, 77
1, 194938, Note_off_c, 0, 49, 54
1, 194952, Control_c, 0, 64, 127
1, 194953, Control_c, 0, 67, 63
1, 194972, Control_c, 0, 67, 52
1, 194981, Note_off_c, 0, 61, 52
1, 194990, Control_c, 0, 67, 45
1, 195029, Note_on_c, 0, 77, 57
1, 195041, Note_on_c, 0, 65, 45
1, 195042, Note_on_c, 0, 68, 35
1, 195072, Note_off_c, 0, 77, 49
1, 195081, Note_off_c, 0, 65, 54
1, 195084, Note_off_c, 0, 68, 54
1, 195139, Control_c, 0, 67, 51
1, 195162, Note_on_c, 0, 53, 48
1, 195178, Control_c, 0, 67, 61
1, 195196, Control_c, 0, 67, 69
1, 195215, Control_c, 0, 64, 119
1, 195215, Control_c, 0, 67, 78
1, 195233, Control_c, 0, 64, 104
1, 195234, Control_c, 0, 67, 87
1, 195253, Control_c, 0, 64, 86
1, 195255, Control_c, 0, 67, 94
1, 195271, Control_c, 0, 64, 69
1, 195289, Control_c, 0, 64, 57
1, 195289, Control_c, 0, 67, 98
1, 195292, Note_on_c, 0, 80, 61
1, 195310, Control_c, 0, 64, 48
1, 195318, Note_on_c, 0, 68, 44
1, 195327, Control_c, 0, 64, 41
1, 195327, Control_c, 0, 67, 102
1, 195364, Control_c, 0, 64, 44
1, 195365, Note_off_c, 0, 80, 58
1, 195374, Note_off_c, 0, 68, 59
1, 195384, Control_c, 0, 64, 51
1, 195385, Control_c, 0, 67, 106
1, 195402, Control_c, 0, 64, 62
1, 195416, Note_on_c, 0, 61, 42
1, 195419, Control_c, 0, 64, 73
1, 195439, Control_c, 0, 64, 81
1, 195458, Control_c, 0, 64, 89
1, 195460, Control_c, 0, 67, 111
1, 195477, Control_c, 0, 64, 95
1, 195495, Control_c, 0, 64, 102
1, 195514, Control_c, 0, 64, 107
1, 195515, Control_c, 0, 67, 115
1, 195533, Control_c, 0, 64, 111
1, 195551, Poly_aftertouch_c, 0, 53, 24
1, 195552, Note_on_c, 0, 80, 58
1, 195553, Note_off_c, 0, 61, 37
1, 195560, Note_on_c, 0, 68, 48
1, 195567, Control_c, 0, 64, 115
1, 195587, Note_off_c, 0, 53, 34
1, 195587, Poly_aftertouch_c, 0, 53, 0
1, 195588, Control_c, 0, 67, 119
1, 195605, Note_off_c, 0, 80, 53
1, 195614, Note_off_c, 0, 68, 53
1, 195625, Control_c, 0, 67, 123
1, 195663, Control_c, 0, 67, 127
1, 195667, Note_on_c, 0, 51, 47
1, 195683, Control_c, 0, 64, 106
1, 195700, Control_c, 0, 64, 95
1, 195721, Control_c, 0, 64, 78
1, 195739, Control_c, 0, 64, 61
1, 195757, Control_c, 0, 64, 49
1, 195775, Control_c, 0, 64, 39
1, 195807, Note_on_c, 0, 80, 54
1, 195812, Control_c, 0, 64, 41
1, 195824, Note_on_c, 0, 68, 39
1, 195830, Control_c, 0, 64, 50
1, 195850, Control_c, 0, 64, 63
1, 195861, Note_off_c, 0, 80, 57
1, 195868, Control_c, 0, 64, 76
1, 195877, Note_off_c, 0, 68, 50
1, 195888, Control_c, 0, 64, 85
1, 195903, Note_off_c, 0, 51, 35
1, 195906, Control_c, 0, 64, 94
1, 195924, Note_on_c, 0, 60, 52
1, 195924, Control_c, 0, 64, 102
1, 195944, Control_c, 0, 64, 108
1, 196007, Note_off_c, 0, 60, 52
1, 196062, Note_on_c, 0, 80, 52
1, 196064, Note_on_c, 0, 68, 48
1, 196114, Note_off_c, 0, 80, 47
1, 196122, Note_off_c, 0, 68, 50
1, 196151, Control_c, 0, 64, 100
1, 196168, Control_c, 0, 64, 85
1, 196188, Note_on_c, 0, 50, 45
1, 196188, Control_c, 0, 64, 65
1, 196205, Control_c, 0, 64, 51
1, 196225, Control_c, 0, 64, 47
1, 196243, Control_c, 0, 64, 49
1, 196262, Control_c, 0, 64, 54
1, 196281, Control_c, 0, 64, 63
1, 196288, Note_off_c, 0, 50, 61
1, 196298, Control_c, 0, 64, 73
1, 196318, Control_c, 0, 64, 80
1, 196325, Note_on_c, 0, 80, 54
1, 196328, Note_on_c, 0, 68, 47
1, 196337, Control_c, 0, 64, 88
1, 196356, Control_c, 0, 64, 95
1, 196370, Note_off_c, 0, 80, 55
1, 196373, Control_c, 0, 64, 102
1, 196382, Note_off_c, 0, 68, 50
1, 196392, Control_c, 0, 64, 107
1, 196429, Control_c, 0, 64, 113
1, 196457, Note_on_c, 0, 65, 56
1, 196467, Control_c, 0, 64, 117
1, 196507, Note_off_c, 0, 65, 62
1, 196523, Control_c, 0, 64, 121
1, 196560, Note_on_c, 0, 80, 57
1, 196579, Note_on_c, 0, 68, 48
1, 196664, Note_off_c, 0, 68, 51
1, 196693, Control_c, 0, 64, 117
1, 196708, Note_on_c, 0, 49, 53
1, 196708, Control_c, 0, 64, 110
1, 196721, Note_off_c, 0, 80, 31
1, 196728, Control_c, 0, 64, 97
1, 196748, Control_c, 0, 64, 78
1, 196766, Control_c, 0, 64, 63
1, 196787, Control_c, 0, 64, 54
1, 196804, Control_c, 0, 64, 49
1, 196837, Note_on_c, 0, 79, 54
1, 196857, Note_off_c, 0, 49, 50
1, 196861, Control_c, 0, 64, 56
1, 196866, Note_on_c, 0, 67, 41
1, 196880, Control_c, 0, 64, 67
1, 196897, Control_c, 0, 64, 76
1, 196916, Note_off_c, 0, 67, 57
1, 196916, Poly_aftertouch_c, 0, 67, 0
1, 196916, Control_c, 0, 64, 84
1, 196921, Note_off_c, 0, 79, 53
1, 196921, Poly_aftertouch_c, 0, 79, 0
1, 196936, Control_c, 0, 64, 92
1, 196954, Control_c, 0, 64, 101
1, 196970, Note_on_c, 0, 58, 57
1, 196970, Control_c, 0, 64, 108
1, 196990, Control_c, 0, 64, 114
1, 197010, Control_c, 0, 64, 119
1, 197021, Note_off_c, 0, 58, 60
1, 197021, Poly_aftertouch_c, 0, 58, 0
1, 197047, Control_c, 0, 64, 124
1, 197100, Note_on_c, 0, 79, 52
1, 197127, Note_on_c, 0, 67, 42
1, 197150, Note_off_c, 0, 79, 62
1, 197150, Poly_aftertouch_c, 0, 79, 0
1, 197162, Note_off_c, 0, 67, 58
1, 197162, Poly_aftertouch_c, 0, 67, 0
1, 197216, Control_c, 0, 64, 117
1, 197233, Control_c, 0, 64, 105
1, 197234, Note_on_c, 0, 48, 48
1, 197252, Control_c, 0, 64, 85
1, 197272, Control_c, 0, 64, 64
1, 197292, Control_c, 0, 64, 52
1, 197308, Control_c, 0, 64, 46
1, 197346, Control_c, 0, 64, 49
1, 197357, Note_on_c, 0, 80, 57
1, 197364, Control_c, 0, 64, 56
1, 197372, Note_on_c, 0, 68, 48
1, 197384, Control_c, 0, 64, 67
1, 197402, Control_c, 0, 64, 76
1, 197418, Note_off_c, 0, 80, 49
1, 197420, Control_c, 0, 64, 83
1, 197426, Note_off_c, 0, 68, 61
1, 197442, Control_c, 0, 64, 88
1, 197458, Control_c, 0, 64, 94
1, 197477, Control_c, 0, 64, 99
1, 197496, Note_on_c, 0, 63, 57
1, 197496, Control_c, 0, 64, 104
1, 197514, Control_c, 0, 64, 109
1, 197535, Control_c, 0, 64, 114
1, 197543, Note_off_c, 0, 63, 60
1, 197552, Control_c, 0, 64, 119
1, 197570, Control_c, 0, 64, 123
1, 197589, Control_c, 0, 64, 127
1, 197596, Note_off_c, 0, 48, 20
1, 197636, Note_on_c, 0, 80, 25
1, 197652, Note_on_c, 0, 68, 53
1, 197685, Note_off_c, 0, 80, 42
1, 197691, Note_off_c, 0, 68, 66
1, 197755, Note_on_c, 0, 51, 49
1, 197796, Control_c, 0, 64, 120
1, 197814, Control_c, 0, 64, 107
1, 197832, Control_c, 0, 64, 88
1, 197852, Control_c, 0, 64, 67
1, 197870, Control_c, 0, 64, 52
1, 197888, Control_c, 0, 64, 41
1, 197900, Note_on_c, 0, 72, 44
1, 197906, Note_on_c, 0, 75, 47
1, 197906, Control_c, 0, 64, 34
1, 197912, Note_on_c, 0, 63, 43
1, 197944, Control_c, 0, 64, 38
1, 197964, Control_c, 0, 64, 46
1, 197974, Note_off_c, 0, 75, 46
1, 197980, Control_c, 0, 64, 56
1, 197984, Note_off_c, 0, 51, 53
1, 197991, Note_off_c, 0, 63, 55
1, 197998, Control_c, 0, 64, 68
1, 198020, Control_c, 0, 64, 75
1, 198033, Note_off_c, 0, 72, 43
1, 198038, Control_c, 0, 64, 79
1, 198051, Note_on_c, 0, 56, 35
1, 198054, Control_c, 0, 64, 83
1, 198076, Control_c, 0, 64, 88
1, 198096, Control_c, 0, 64, 94
1, 198112, Control_c, 0, 64, 101
1, 198115, Note_off_c, 0, 56, 60
1, 198131, Control_c, 0, 64, 106
1, 198168, Note_on_c, 0, 72, 53
1, 198169, Control_c, 0, 64, 110
1, 198176, Note_on_c, 0, 63, 44
1, 198183, Note_on_c, 0, 75, 30
1, 198225, Control_c, 0, 64, 97
1, 198236, Note_off_c, 0, 75, 48
1, 198240, Note_off_c, 0, 63, 55
1, 198243, Control_c, 0, 64, 78
1, 198262, Control_c, 0, 64, 63
1, 198268, Note_off_c, 0, 72, 55
1, 198281, Control_c, 0, 64, 61
1, 198286, Note_on_c, 0, 39, 53
1, 198300, Control_c, 0, 64, 63
1, 198318, Control_c, 0, 64, 67
1, 198337, Control_c, 0, 64, 73
1, 198349, Note_off_c, 0, 39, 58
1, 198355, Control_c, 0, 64, 81
1, 198375, Control_c, 0, 64, 90
1, 198392, Control_c, 0, 64, 99
1, 198412, Control_c, 0, 64, 107
1, 198428, Note_on_c, 0, 63, 43
1, 198431, Control_c, 0, 64, 113
1, 198434, Note_on_c, 0, 68, 44
1, 198443, Note_on_c, 0, 72, 35
1, 198448, Note_on_c, 0, 75, 9
1, 198492, Note_off_c, 0, 63, 49
1, 198492, Note_off_c, 0, 68, 57
1, 198504, Note_off_c, 0, 72, 45
1, 198532, Note_off_c, 0, 75, 50
1, 198556, Note_on_c, 0, 60, 47
1, 198561, Control_c, 0, 64, 117
1, 198596, Note_off_c, 0, 60, 60
1, 198686, Note_on_c, 0, 72, 47
1, 198706, Note_on_c, 0, 63, 40
1, 198739, Note_off_c, 0, 72, 61
1, 198740, Poly_aftertouch_c, 0, 75, 0
1, 198755, Note_off_c, 0, 63, 50
1, 198787, Poly_aftertouch_c, 0, 68, 0
1, 198824, Control_c, 0, 64, 107
1, 198828, Note_on_c, 0, 39, 51
1, 198843, Control_c, 0, 64, 94
1, 198860, Control_c, 0, 64, 77
1, 198880, Control_c, 0, 64, 63
1, 198899, Control_c, 0, 64, 57
1, 198926, Note_off_c, 0, 39, 60
1, 198954, Control_c, 0, 64, 63
1, 198963, Note_on_c, 0, 63, 39
1, 198966, Note_on_c, 0, 67, 38
1, 198972, Control_c, 0, 64, 71
1, 198977, Note_on_c, 0, 61, 32
1, 198991, Control_c, 0, 64, 79
1, 199010, Control_c, 0, 64, 87
1, 199030, Control_c, 0, 64, 95
1, 199041, Note_off_c, 0, 63, 55
1, 199047, Note_off_c, 0, 61, 45
1, 199048, Control_c, 0, 64, 101
1, 199066, Control_c, 0, 64, 105
1, 199094, Note_off_c, 0, 67, 38
1, 199094, Poly_aftertouch_c, 0, 67, 0
1, 199103, Control_c, 0, 64, 110
1, 199122, Note_on_c, 0, 58, 45
1, 199175, Note_off_c, 0, 58, 50
1, 199175, Poly_aftertouch_c, 0, 58, 0
1, 199241, Note_on_c, 0, 63, 44
1, 199268, Note_on_c, 0, 67, 32
1, 199283, Note_on_c, 0, 61, 32
1, 199340, Note_off_c, 0, 61, 48
1, 199371, Note_off_c, 0, 63, 55
1, 199409, Note_off_c, 0, 67, 41
1, 199409, Poly_aftertouch_c, 0, 67, 0
1, 199425, Note_on_c, 0, 44, 43
1, 199459, Control_c, 0, 64, 103
1, 199477, Control_c, 0, 64, 96
1, 199497, Control_c, 0, 64, 83
1, 199515, Control_c, 0, 64, 68
1, 199534, Control_c, 0, 64, 56
1, 199553, Control_c, 0, 64, 47
1, 199571, Control_c, 0, 64, 42
1, 199576, Note_on_c, 0, 63, 29
1, 199596, Note_on_c, 0, 68, 30
1, 199607, Control_c, 0, 64, 46
1, 199609, Note_on_c, 0, 60, 24
1, 199628, Control_c, 0, 64, 53
1, 199646, Control_c, 0, 64, 63
1, 199665, Control_c, 0, 64, 72
1, 199682, Note_off_c, 0, 63, 49
1, 199683, Control_c, 0, 64, 76
1, 199689, Note_off_c, 0, 60, 45
1, 199690, Note_off_c, 0, 68, 48
1, 199703, Control_c, 0, 64, 78
1, 199711, Note_off_c, 0, 44, 37
1, 199721, Control_c, 0, 64, 80
1, 199757, Control_c, 0, 64, 84
1, 199766, Note_on_c, 0, 56, 35
1, 199777, Control_c, 0, 64, 87
1, 199842, Note_off_c, 0, 56, 56
1, 199955, Note_on_c, 0, 63, 23
1, 199965, Note_on_c, 0, 68, 26
1, 199966, Note_on_c, 0, 60, 22
1, 200199, Note_off_c, 0, 60, 35
1, 200261, Note_on_c, 0, 32, 32
1, 200261, Control_c, 0, 64, 85
1, 200301, Control_c, 0, 64, 81
1, 200319, Control_c, 0, 64, 76
1, 200338, Control_c, 0, 64, 70
1, 200357, Control_c, 0, 64, 63
1, 200359, Note_off_c, 0, 68, 42
1, 200375, Control_c, 0, 64, 58
1, 200388, Note_off_c, 0, 63, 43
1, 200394, Control_c, 0, 64, 53
1, 200413, Control_c, 0, 64, 49
1, 200450, Control_c, 0, 64, 52
1, 200468, Control_c, 0, 64, 58
1, 200489, Control_c, 0, 64, 66
1, 200506, Control_c, 0, 64, 73
1, 200524, Control_c, 0, 64, 78
1, 200543, Control_c, 0, 64, 82
1, 200563, Control_c, 0, 64, 84
1, 200581, Control_c, 0, 64, 87
1, 200613, Note_off_c, 0, 32, 30
1, 200617, Control_c, 0, 64, 92
1, 201030, Control_c, 0, 64, 88
1, 201124, Control_c, 0, 64, 85
1, 201161, Control_c, 0, 64, 82
1, 201179, Control_c, 0, 64, 80
1, 201255, Control_c, 0, 64, 77
1, 201347, Control_c, 0, 64, 75
1, 201478, Control_c, 0, 64, 73
1, 201592, Control_c, 0, 64, 71
1, 201648, Control_c, 0, 64, 69
1, 201684, Control_c, 0, 64, 68
1, 201722, Control_c, 0, 64, 67
1, 201740, Control_c, 0, 64, 66
1, 201778, Control_c, 0, 64, 65
1, 201797, Control_c, 0, 64, 64
1, 201814, Control_c, 0, 64, 63
1, 201853, Control_c, 0, 64, 62
1, 201871, Control_c, 0, 64, 61
1, 201928, Control_c, 0, 64, 58
1, 201965, Control_c, 0, 64, 56
1, 202002, Control_c, 0, 64, 54
1, 202039, Control_c, 0, 64, 51
1, 202470, Control_c, 0, 64, 53
1, 202600, Control_c, 0, 64, 55
1, 202675, Control_c, 0, 64, 58
1, 202713, Control_c, 0, 64, 60
1, 202731, Control_c, 0, 64, 61
1, 202751, Control_c, 0, 64, 62
1, 202768, Control_c, 0, 64, 63
1, 202788, Control_c, 0, 64, 64
1, 202806, Control_c, 0, 64, 65
1, 202824, Control_c, 0, 64, 67
1, 202843, Control_c, 0, 64, 68
1, 202881, Control_c, 0, 64, 70
1, 202883, Note_on_c, 0, 51, 29
1, 202919, Control_c, 0, 64, 72
1, 202955, Control_c, 0, 64, 76
1, 202974, Control_c, 0, 64, 79
1, 202994, Control_c, 0, 64, 82
1, 203011, Control_c, 0, 64, 85
1, 203031, Control_c, 0, 64, 89
1, 203049, Control_c, 0, 64, 94
1, 203068, Control_c, 0, 64, 101
1, 203086, Control_c, 0, 64, 109
1, 203105, Control_c, 0, 64, 116
1, 203125, Control_c, 0, 64, 123
1, 203142, Control_c, 0, 64, 127
1, 203232, Note_off_c, 0, 51, 30
1, 203493, Note_on_c, 0, 51, 34
1, 204009, Note_on_c, 0, 44, 26
1, 204015, Note_on_c, 0, 47, 27
1, 204464, Poly_aftertouch_c, 0, 47, 22
1, 204491, Note_off_c, 0, 47, 22
1, 204491, Poly_aftertouch_c, 0, 47, 0
1, 204498, Note_on_c, 0, 56, 42
1, 204549, Note_off_c, 0, 44, 26
1, 204839, Poly_aftertouch_c, 0, 51, 22
1, 204886, Note_off_c, 0, 51, 21
1, 204886, Poly_aftertouch_c, 0, 51, 0
1, 204941, Note_on_c, 0, 47, 25
1, 204947, Note_on_c, 0, 44, 21
1, 204970, Note_off_c, 0, 56, 32
1, 205327, Poly_aftertouch_c, 0, 47, 20
1, 205344, Note_off_c, 0, 47, 24
1, 205344, Poly_aftertouch_c, 0, 47, 0
1, 205352, Note_on_c, 0, 56, 39
1, 205409, Note_off_c, 0, 44, 30
1, 205748, Note_on_c, 0, 44, 31
1, 205749, Note_on_c, 0, 47, 24
1, 205844, Note_off_c, 0, 56, 29
1, 205986, Note_off_c, 0, 47, 32
1, 205986, Poly_aftertouch_c, 0, 47, 0
1, 206002, Note_off_c, 0, 44, 35
1, 206157, Note_on_c, 0, 56, 43
1, 206433, Control_c, 0, 64, 122
1, 206491, Control_c, 0, 64, 116
1, 206526, Control_c, 0, 64, 110
1, 206546, Control_c, 0, 64, 106
1, 206560, Note_on_c, 0, 49, 39
1, 206561, Note_on_c, 0, 46, 45
1, 206565, Control_c, 0, 64, 102
1, 206584, Control_c, 0, 64, 97
1, 206602, Control_c, 0, 64, 91
1, 206621, Control_c, 0, 64, 84
1, 206641, Control_c, 0, 64, 77
1, 206658, Control_c, 0, 64, 70
1, 206676, Control_c, 0, 64, 67
1, 206696, Control_c, 0, 64, 66
1, 206713, Control_c, 0, 64, 67
1, 206733, Control_c, 0, 64, 69
1, 206752, Control_c, 0, 64, 72
1, 206770, Control_c, 0, 64, 77
1, 206789, Control_c, 0, 64, 81
1, 206808, Note_off_c, 0, 46, 29
1, 206808, Poly_aftertouch_c, 0, 46, 0
1, 206808, Control_c, 0, 64, 85
1, 206845, Control_c, 0, 64, 92
1, 206863, Note_off_c, 0, 49, 30
1, 206882, Control_c, 0, 64, 96
1, 206970, Note_on_c, 0, 55, 43
1, 207062, Note_off_c, 0, 56, 54
1, 207294, Control_c, 0, 64, 87
1, 207312, Control_c, 0, 64, 79
1, 207332, Control_c, 0, 64, 73
1, 207342, Note_on_c, 0, 49, 39
1, 207344, Note_on_c, 0, 46, 36
1, 207406, Control_c, 0, 64, 77
1, 207425, Control_c, 0, 64, 83
1, 207443, Control_c, 0, 64, 89
1, 207461, Control_c, 0, 64, 96
1, 207480, Control_c, 0, 64, 101
1, 207518, Control_c, 0, 64, 107
1, 207556, Control_c, 0, 64, 112
1, 207583, Note_off_c, 0, 55, 34
1, 207611, Control_c, 0, 64, 117
1, 207724, Control_c, 0, 64, 121
1, 207742, Note_on_c, 0, 55, 52
1, 207755, Note_off_c, 0, 46, 22
1, 207755, Poly_aftertouch_c, 0, 46, 0
1, 207778, Note_off_c, 0, 49, 22
1, 207779, Control_c, 0, 64, 125
1, 208120, Note_on_c, 0, 49, 49
1, 208139, Note_on_c, 0, 46, 46
1, 208248, Note_off_c, 0, 55, 33
1, 208262, Note_off_c, 0, 46, 46
1, 208262, Poly_aftertouch_c, 0, 46, 0
1, 208390, Note_off_c, 0, 49, 25
1, 208519, Note_on_c, 0, 55, 55
1, 208898, Note_on_c, 0, 51, 59
1, 208902, Control_c, 0, 64, 115
1, 208916, Note_on_c, 0, 47, 51
1, 208919, Control_c, 0, 64, 104
1, 208939, Control_c, 0, 64, 92
1, 208958, Control_c, 0, 64, 78
1, 208977, Control_c, 0, 64, 68
1, 208996, Control_c, 0, 64, 63
1, 209052, Control_c, 0, 64, 66
1, 209070, Control_c, 0, 64, 71
1, 209089, Control_c, 0, 64, 77
1, 209108, Control_c, 0, 64, 84
1, 209126, Control_c, 0, 64, 92
1, 209145, Control_c, 0, 64, 99
1, 209164, Control_c, 0, 64, 104
1, 209183, Control_c, 0, 64, 109
1, 209220, Control_c, 0, 64, 115
1, 209245, Note_off_c, 0, 51, 25
1, 209245, Poly_aftertouch_c, 0, 51, 0
1, 209275, Control_c, 0, 64, 120
1, 209317, Note_on_c, 0, 56, 59
1, 209317, Poly_aftertouch_c, 0, 47, 24
1, 209371, Note_off_c, 0, 47, 21
1, 209371, Poly_aftertouch_c, 0, 47, 0
1, 209387, Control_c, 0, 64, 124
1, 209465, Note_off_c, 0, 55, 45
1, 209612, Control_c, 0, 64, 119
1, 209650, Control_c, 0, 64, 110
1, 209665, Note_on_c, 0, 51, 58
1, 209667, Control_c, 0, 64, 99
1, 209687, Control_c, 0, 64, 86
1, 209688, Note_on_c, 0, 47, 49
1, 209707, Control_c, 0, 64, 75
1, 209724, Control_c, 0, 64, 71
1, 209762, Control_c, 0, 64, 73
1, 209781, Control_c, 0, 64, 76
1, 209799, Control_c, 0, 64, 82
1, 209818, Control_c, 0, 64, 89
1, 209837, Control_c, 0, 64, 98
1, 209855, Control_c, 0, 64, 105
1, 209874, Control_c, 0, 64, 110
1, 209912, Control_c, 0, 64, 115
1, 209927, Note_off_c, 0, 56, 34
1, 209968, Control_c, 0, 64, 121
1, 210043, Control_c, 0, 64, 125
1, 210054, Note_on_c, 0, 56, 67
1, 210066, Poly_aftertouch_c, 0, 47, 24
1, 210104, Poly_aftertouch_c, 0, 51, 24
1, 210142, Note_off_c, 0, 47, 28
1, 210142, Poly_aftertouch_c, 0, 47, 0
1, 210161, Note_off_c, 0, 51, 29
1, 210161, Poly_aftertouch_c, 0, 51, 0
1, 210409, Note_on_c, 0, 51, 60
1, 210423, Note_on_c, 0, 47, 51
1, 210547, Control_c, 0, 67, 123
1, 210585, Control_c, 0, 67, 116
1, 210591, Note_off_c, 0, 56, 30
1, 210622, Control_c, 0, 67, 110
1, 210660, Control_c, 0, 67, 104
1, 210674, Note_off_c, 0, 47, 36
1, 210674, Poly_aftertouch_c, 0, 47, 0
1, 210676, Control_c, 0, 67, 100
1, 210696, Control_c, 0, 67, 93
1, 210716, Control_c, 0, 67, 87
1, 210729, Note_off_c, 0, 51, 33
1, 210729, Poly_aftertouch_c, 0, 51, 0
1, 210733, Control_c, 0, 67, 81
1, 210753, Control_c, 0, 67, 75
1, 210771, Control_c, 0, 67, 70
1, 210791, Control_c, 0, 67, 65
1, 210794, Note_on_c, 0, 56, 65
1, 210809, Control_c, 0, 67, 60
1, 210828, Control_c, 0, 67, 55
1, 210846, Control_c, 0, 67, 50
1, 210883, Control_c, 0, 67, 45
1, 211169, Note_on_c, 0, 52, 61
1, 211185, Control_c, 0, 64, 112
1, 211188, Note_on_c, 0, 49, 54
1, 211201, Control_c, 0, 64, 97
1, 211221, Control_c, 0, 64, 78
1, 211223, Control_c, 0, 67, 49
1, 211239, Control_c, 0, 64, 60
1, 211258, Control_c, 0, 64, 51
1, 211314, Control_c, 0, 64, 56
1, 211333, Control_c, 0, 64, 65
1, 211351, Control_c, 0, 64, 73
1, 211371, Control_c, 0, 64, 80
1, 211389, Control_c, 0, 64, 87
1, 211407, Control_c, 0, 64, 93
1, 211426, Control_c, 0, 64, 98
1, 211445, Control_c, 0, 64, 102
1, 211457, Note_off_c, 0, 52, 30
1, 211464, Control_c, 0, 64, 106
1, 211500, Control_c, 0, 64, 112
1, 211527, Poly_aftertouch_c, 0, 49, 24
1, 211589, Note_on_c, 0, 57, 66
1, 211636, Note_off_c, 0, 49, 19
1, 211636, Poly_aftertouch_c, 0, 49, 0
1, 211744, Note_off_c, 0, 56, 55
1, 211913, Control_c, 0, 64, 104
1, 211914, Control_c, 0, 67, 53
1, 211931, Control_c, 0, 64, 94
1, 211936, Note_on_c, 0, 52, 60
1, 211950, Control_c, 0, 64, 81
1, 211961, Note_on_c, 0, 49, 50
1, 211969, Control_c, 0, 64, 70
1, 211987, Control_c, 0, 64, 66
1, 212024, Control_c, 0, 64, 68
1, 212043, Control_c, 0, 64, 72
1, 212062, Control_c, 0, 64, 79
1, 212081, Control_c, 0, 64, 88
1, 212099, Control_c, 0, 64, 97
1, 212119, Control_c, 0, 64, 105
1, 212137, Control_c, 0, 64, 111
1, 212154, Control_c, 0, 64, 116
1, 212174, Control_c, 0, 64, 120
1, 212208, Note_off_c, 0, 57, 51
1, 212211, Control_c, 0, 64, 126
1, 212289, Note_off_c, 0, 52, 23
1, 212331, Poly_aftertouch_c, 0, 49, 22
1, 212345, Note_on_c, 0, 57, 71
1, 212362, Note_off_c, 0, 49, 19
1, 212362, Poly_aftertouch_c, 0, 49, 0
1, 212436, Control_c, 0, 67, 49
1, 212679, Control_c, 0, 67, 45
1, 212696, Note_on_c, 0, 52, 60
1, 212713, Note_on_c, 0, 49, 57
1, 212715, Control_c, 0, 67, 41
1, 212754, Control_c, 0, 67, 35
1, 212791, Control_c, 0, 67, 28
1, 212811, Control_c, 0, 67, 24
1, 212824, Note_off_c, 0, 49, 53
1, 212824, Poly_aftertouch_c, 0, 49, 0
1, 212827, Control_c, 0, 67, 19
1, 212846, Control_c, 0, 67, 14
1, 212866, Control_c, 0, 67, 9
1, 212908, Note_off_c, 0, 57, 50
1, 213015, Control_c, 0, 67, 0
1, 213044, Note_off_c, 0, 52, 31
1, 213089, Note_on_c, 0, 57, 73
1, 213463, Note_on_c, 0, 54, 69
1, 213472, Note_on_c, 0, 51, 64
1, 213501, Control_c, 0, 64, 112
1, 213520, Control_c, 0, 64, 89
1, 213539, Control_c, 0, 64, 70
1, 213557, Control_c, 0, 64, 61
1, 213595, Control_c, 0, 64, 62
1, 213614, Control_c, 0, 64, 66
1, 213632, Control_c, 0, 64, 72
1, 213650, Control_c, 0, 64, 80
1, 213670, Control_c, 0, 64, 89
1, 213688, Control_c, 0, 64, 100
1, 213707, Control_c, 0, 64, 110
1, 213727, Control_c, 0, 64, 117
1, 213745, Control_c, 0, 64, 122
1, 213763, Control_c, 0, 64, 126
1, 213783, Note_off_c, 0, 51, 29
1, 213783, Poly_aftertouch_c, 0, 51, 0
1, 213832, Note_off_c, 0, 54, 26
1, 213856, Note_on_c, 0, 60, 73
1, 214053, Note_off_c, 0, 57, 30
1, 214212, Note_on_c, 0, 57, 64
1, 214212, Control_c, 0, 64, 119
1, 214230, Control_c, 0, 64, 104
1, 214247, Note_on_c, 0, 54, 47
1, 214249, Note_on_c, 0, 51, 45
1, 214249, Control_c, 0, 64, 87
1, 214269, Control_c, 0, 64, 75
1, 214287, Control_c, 0, 64, 71
1, 214324, Control_c, 0, 64, 76
1, 214343, Control_c, 0, 64, 81
1, 214364, Control_c, 0, 64, 90
1, 214380, Control_c, 0, 64, 103
1, 214399, Control_c, 0, 64, 116
1, 214410, Note_off_c, 0, 60, 55
1, 214418, Control_c, 0, 64, 125
1, 214581, Note_on_c, 0, 60, 72
1, 214641, Note_off_c, 0, 51, 23
1, 214641, Poly_aftertouch_c, 0, 51, 0
1, 214689, Note_off_c, 0, 54, 34
1, 214729, Poly_aftertouch_c, 0, 57, 24
1, 214762, Note_off_c, 0, 57, 27
1, 214762, Poly_aftertouch_c, 0, 57, 0
1, 214960, Note_on_c, 0, 57, 67
1, 214981, Note_on_c, 0, 54, 58
1, 214985, Note_on_c, 0, 51, 58
1, 215063, Note_off_c, 0, 60, 58
1, 215180, Note_off_c, 0, 51, 50
1, 215180, Poly_aftertouch_c, 0, 51, 0
1, 215214, Note_off_c, 0, 54, 43
1, 215334, Note_on_c, 0, 60, 80
1, 215354, Note_off_c, 0, 57, 29
1, 215354, Poly_aftertouch_c, 0, 57, 0
1, 215701, Note_on_c, 0, 56, 72
1, 215709, Note_on_c, 0, 52, 66
1, 215746, Control_c, 0, 64, 110
1, 215764, Control_c, 0, 64, 89
1, 215783, Control_c, 0, 64, 68
1, 215801, Control_c, 0, 64, 49
1, 215822, Control_c, 0, 64, 26
1, 215839, Control_c, 0, 64, 11
1, 215877, Control_c, 0, 64, 27
1, 215895, Control_c, 0, 64, 42
1, 215913, Control_c, 0, 64, 57
1, 215932, Control_c, 0, 64, 71
1, 215951, Control_c, 0, 64, 79
1, 215969, Control_c, 0, 64, 85
1, 215988, Control_c, 0, 64, 90
1, 216007, Control_c, 0, 64, 94
1, 216044, Control_c, 0, 64, 99
1, 216081, Note_on_c, 0, 61, 77
1, 216081, Control_c, 0, 64, 103
1, 216119, Control_c, 0, 64, 108
1, 216138, Control_c, 0, 64, 112
1, 216157, Control_c, 0, 64, 117
1, 216175, Control_c, 0, 64, 121
1, 216176, Note_off_c, 0, 52, 23
1, 216194, Control_c, 0, 64, 125
1, 216269, Note_off_c, 0, 56, 25
1, 216269, Note_off_c, 0, 60, 53
1, 216450, Note_on_c, 0, 56, 69
1, 216457, Control_c, 0, 64, 107
1, 216467, Note_on_c, 0, 52, 61
1, 216476, Control_c, 0, 64, 84
1, 216495, Control_c, 0, 64, 66
1, 216512, Control_c, 0, 64, 58
1, 216551, Control_c, 0, 64, 60
1, 216568, Control_c, 0, 64, 66
1, 216586, Control_c, 0, 64, 74
1, 216605, Control_c, 0, 64, 83
1, 216625, Control_c, 0, 64, 92
1, 216643, Control_c, 0, 64, 102
1, 216661, Control_c, 0, 64, 111
1, 216681, Control_c, 0, 64, 119
1, 216695, Note_off_c, 0, 61, 52
1, 216698, Control_c, 0, 64, 124
1, 216809, Note_on_c, 0, 61, 86
1, 216890, Note_off_c, 0, 52, 31
1, 216914, Note_off_c, 0, 56, 27
1, 217179, Note_on_c, 0, 56, 78
1, 217189, Note_on_c, 0, 52, 70
1, 217277, Note_off_c, 0, 52, 53
1, 217322, Note_off_c, 0, 56, 51
1, 217392, Note_off_c, 0, 61, 37
1, 217579, Note_on_c, 0, 61, 87
1, 218019, Note_on_c, 0, 59, 78
1, 218031, Note_on_c, 0, 53, 65
1, 218119, Control_c, 0, 64, 105
1, 218139, Control_c, 0, 64, 80
1, 218157, Control_c, 0, 64, 55
1, 218177, Control_c, 0, 64, 11
1, 218194, Control_c, 0, 64, 0
1, 218288, Control_c, 0, 64, 21
1, 218307, Control_c, 0, 64, 39
1, 218326, Control_c, 0, 64, 53
1, 218344, Control_c, 0, 64, 66
1, 218364, Control_c, 0, 64, 75
1, 218382, Control_c, 0, 64, 82
1, 218401, Control_c, 0, 64, 89
1, 218419, Control_c, 0, 64, 97
1, 218438, Control_c, 0, 64, 105
1, 218456, Control_c, 0, 64, 112
1, 218475, Control_c, 0, 64, 118
1, 218494, Control_c, 0, 64, 123
1, 218509, Note_on_c, 0, 62, 81
1, 218513, Control_c, 0, 64, 127
1, 218593, Note_off_c, 0, 53, 47
1, 218593, Poly_aftertouch_c, 0, 53, 0
1, 218633, Note_off_c, 0, 61, 56
1, 218881, Note_on_c, 0, 58, 80
1, 218901, Note_on_c, 0, 53, 63
1, 218904, Control_c, 0, 64, 107
1, 218924, Control_c, 0, 64, 83
1, 218943, Control_c, 0, 64, 65
1, 218953, Note_off_c, 0, 62, 54
1, 218960, Control_c, 0, 64, 60
1, 218998, Control_c, 0, 64, 65
1, 219013, Note_off_c, 0, 59, 50
1, 219017, Control_c, 0, 64, 73
1, 219037, Control_c, 0, 64, 83
1, 219055, Control_c, 0, 64, 97
1, 219074, Control_c, 0, 64, 111
1, 219092, Control_c, 0, 64, 125
1, 219241, Note_on_c, 0, 62, 84
1, 219373, Note_off_c, 0, 53, 29
1, 219373, Poly_aftertouch_c, 0, 53, 0
1, 219597, Control_c, 0, 64, 105
1, 219616, Control_c, 0, 64, 80
1, 219637, Control_c, 0, 64, 59
1, 219651, Note_on_c, 0, 56, 69
1, 219655, Control_c, 0, 64, 49
1, 219668, Note_on_c, 0, 53, 53
1, 219671, Control_c, 0, 64, 46
1, 219710, Control_c, 0, 64, 54
1, 219728, Control_c, 0, 64, 65
1, 219746, Control_c, 0, 64, 76
1, 219761, Note_off_c, 0, 58, 42
1, 219761, Poly_aftertouch_c, 0, 58, 0
1, 219765, Control_c, 0, 64, 86
1, 219785, Control_c, 0, 64, 97
1, 219803, Control_c, 0, 64, 105
1, 219821, Control_c, 0, 64, 111
1, 219859, Control_c, 0, 64, 116
1, 219900, Note_off_c, 0, 62, 51
1, 219915, Note_off_c, 0, 53, 48
1, 219915, Poly_aftertouch_c, 0, 53, 0
1, 219915, Control_c, 0, 64, 121
1, 220073, Note_on_c, 0, 62, 70
1, 220234, Note_off_c, 0, 56, 29
1, 220344, Control_c, 0, 67, 8
1, 220364, Control_c, 0, 64, 117
1, 220401, Control_c, 0, 67, 12
1, 220439, Control_c, 0, 67, 17
1, 220457, Control_c, 0, 64, 113
1, 220476, Control_c, 0, 67, 24
1, 220514, Control_c, 0, 67, 30
1, 220551, Control_c, 0, 64, 108
1, 220552, Control_c, 0, 67, 37
1, 220589, Control_c, 0, 67, 44
1, 220604, Note_on_c, 0, 56, 53
1, 220607, Control_c, 0, 64, 103
1, 220608, Control_c, 0, 67, 48
1, 220639, Note_on_c, 0, 51, 43
1, 220644, Control_c, 0, 64, 97
1, 220645, Control_c, 0, 67, 54
1, 220663, Control_c, 0, 64, 93
1, 220681, Control_c, 0, 64, 89
1, 220683, Control_c, 0, 67, 60
1, 220701, Control_c, 0, 64, 84
1, 220719, Control_c, 0, 64, 79
1, 220721, Control_c, 0, 67, 66
1, 220737, Control_c, 0, 64, 75
1, 220757, Control_c, 0, 64, 71
1, 220758, Control_c, 0, 67, 71
1, 220776, Control_c, 0, 64, 67
1, 220794, Control_c, 0, 64, 62
1, 220815, Control_c, 0, 64, 57
1, 220816, Control_c, 0, 67, 75
1, 220831, Control_c, 0, 64, 53
1, 220850, Control_c, 0, 64, 47
1, 220868, Control_c, 0, 64, 41
1, 220869, Control_c, 0, 67, 79
1, 220887, Control_c, 0, 64, 34
1, 220906, Control_c, 0, 64, 28
1, 220925, Control_c, 0, 67, 84
1, 220962, Control_c, 0, 67, 88
1, 221000, Control_c, 0, 67, 93
1, 221037, Control_c, 0, 67, 98
1, 221075, Control_c, 0, 67, 105
1, 221111, Control_c, 0, 67, 111
1, 221131, Control_c, 0, 67, 115
1, 221168, Control_c, 0, 67, 123
1, 221186, Control_c, 0, 67, 127
1, 221802, Note_on_c, 0, 63, 41
1, 221837, Note_on_c, 0, 55, 30
1, 221878, Control_c, 0, 64, 24
1, 221965, Note_off_c, 0, 56, 42
1, 221971, Control_c, 0, 64, 19
1, 221973, Note_off_c, 0, 62, 44
1, 222009, Control_c, 0, 64, 11
1, 222047, Control_c, 0, 64, 0
1, 222214, Control_c, 0, 64, 18
1, 222235, Control_c, 0, 64, 32
1, 222252, Control_c, 0, 64, 45
1, 222272, Control_c, 0, 64, 57
1, 222289, Control_c, 0, 64, 68
1, 222309, Control_c, 0, 64, 74
1, 222328, Control_c, 0, 64, 79
1, 222345, Control_c, 0, 64, 84
1, 222365, Control_c, 0, 64, 91
1, 222383, Control_c, 0, 64, 97
1, 222402, Control_c, 0, 64, 104
1, 222420, Control_c, 0, 64, 109
1, 222433, Note_off_c, 0, 55, 29
1, 222440, Control_c, 0, 64, 114
1, 222458, Control_c, 0, 64, 119
1, 222477, Control_c, 0, 64, 123
1, 222496, Control_c, 0, 64, 127
1, 222536, Note_off_c, 0, 63, 31
1, 222620, Note_off_c, 0, 51, 31
1, 222620, Poly_aftertouch_c, 0, 51, 0
1, 223387, Note_on_c, 0, 63, 39
1, 223450, Note_on_c, 0, 51, 33
1, 223634, Note_off_c, 0, 63, 38
1, 223672, Note_off_c, 0, 51, 32
1, 223672, Poly_aftertouch_c, 0, 51, 0
1, 223876, Note_on_c, 0, 63, 40
1, 223897, Note_on_c, 0, 51, 26
1, 223954, Control_c, 0, 64, 123
1, 224011, Control_c, 0, 64, 117
1, 224048, Control_c, 0, 64, 112
1, 224085, Control_c, 0, 64, 108
1, 224144, Note_off_c, 0, 51, 39
1, 224144, Poly_aftertouch_c, 0, 51, 0
1, 224159, Control_c, 0, 64, 104
1, 224235, Control_c, 0, 64, 99
1, 224273, Control_c, 0, 64, 94
1, 224310, Control_c, 0, 64, 83
1, 224326, Note_on_c, 0, 32, 51
1, 224327, Control_c, 0, 64, 70
1, 224347, Control_c, 0, 64, 58
1, 224364, Control_c, 0, 64, 54
1, 224384, Control_c, 0, 64, 56
1, 224402, Control_c, 0, 64, 61
1, 224422, Control_c, 0, 64, 67
1, 224437, Note_off_c, 0, 32, 57
1, 224439, Control_c, 0, 64, 73
1, 224459, Control_c, 0, 64, 77
1, 224478, Control_c, 0, 64, 79
1, 224664, Control_c, 0, 64, 77
1, 224721, Control_c, 0, 64, 75
1, 224795, Control_c, 0, 64, 73
1, 224821, Note_on_c, 0, 68, 35
1, 224832, Control_c, 0, 64, 71
1, 224840, Note_on_c, 0, 56, 34
1, 224890, Control_c, 0, 64, 69
1, 224926, Control_c, 0, 64, 68
1, 224945, Control_c, 0, 64, 67
1, 224963, Control_c, 0, 64, 66
1, 224971, Note_off_c, 0, 63, 52
1, 225002, Control_c, 0, 64, 64
1, 225038, Control_c, 0, 64, 63
1, 225076, Control_c, 0, 64, 62
1, 225095, Control_c, 0, 64, 60
1, 225132, Control_c, 0, 64, 58
1, 225169, Control_c, 0, 64, 52
1, 225188, Control_c, 0, 64, 50
1, 225220, Note_on_c, 0, 44, 29
1, 225223, Note_on_c, 0, 47, 30
1, 225244, Control_c, 0, 64, 54
1, 225263, Control_c, 0, 64, 59
1, 225282, Control_c, 0, 64, 64
1, 225300, Control_c, 0, 64, 68
1, 225319, Control_c, 0, 64, 72
1, 225338, Control_c, 0, 64, 75
1, 225356, Control_c, 0, 64, 79
1, 225375, Control_c, 0, 64, 83
1, 225395, Control_c, 0, 64, 88
1, 225397, Note_off_c, 0, 56, 34
1, 225412, Control_c, 0, 64, 92
1, 225422, Note_off_c, 0, 68, 34
1, 225449, Control_c, 0, 64, 99
1, 225488, Control_c, 0, 64, 105
1, 225524, Control_c, 0, 64, 109
1, 225602, Note_on_c, 0, 68, 46
1, 225629, Note_on_c, 0, 56, 33
1, 225630, Note_off_c, 0, 44, 28
1, 225640, Note_off_c, 0, 47, 29
1, 225640, Poly_aftertouch_c, 0, 47, 0
1, 225694, Control_c, 0, 64, 113
1, 225749, Control_c, 0, 64, 117
1, 225786, Control_c, 0, 64, 123
1, 225824, Control_c, 0, 64, 127
1, 225917, Control_c, 0, 67, 122
1, 225972, Control_c, 0, 67, 113
1, 225979, Note_on_c, 0, 44, 35
1, 225986, Note_on_c, 0, 47, 34
1, 225991, Control_c, 0, 67, 106
1, 226011, Control_c, 0, 67, 99
1, 226030, Control_c, 0, 67, 92
1, 226048, Control_c, 0, 67, 84
1, 226054, Note_off_c, 0, 56, 30
1, 226057, Note_off_c, 0, 68, 32
1, 226067, Control_c, 0, 67, 75
1, 226085, Control_c, 0, 67, 65
1, 226104, Control_c, 0, 67, 55
1, 226122, Control_c, 0, 67, 45
1, 226142, Control_c, 0, 67, 37
1, 226161, Control_c, 0, 67, 28
1, 226165, Note_off_c, 0, 44, 35
1, 226178, Control_c, 0, 67, 20
1, 226198, Control_c, 0, 67, 13
1, 226281, Note_off_c, 0, 47, 27
1, 226281, Poly_aftertouch_c, 0, 47, 0
1, 226329, Control_c, 0, 67, 0
1, 226351, Note_on_c, 0, 68, 50
1, 226375, Note_on_c, 0, 56, 43
1, 226683, Control_c, 0, 67, 8
1, 226721, Control_c, 0, 64, 115
1, 226722, Control_c, 0, 67, 13
1, 226726, Note_on_c, 0, 34, 60
1, 226739, Control_c, 0, 64, 99
1, 226759, Control_c, 0, 64, 78
1, 226762, Control_c, 0, 67, 19
1, 226777, Control_c, 0, 64, 60
1, 226777, Control_c, 0, 67, 25
1, 226798, Control_c, 0, 64, 57
1, 226799, Control_c, 0, 67, 31
1, 226815, Control_c, 0, 64, 60
1, 226817, Control_c, 0, 67, 36
1, 226834, Control_c, 0, 64, 66
1, 226835, Control_c, 0, 67, 41
1, 226852, Control_c, 0, 64, 72
1, 226853, Control_c, 0, 67, 45
1, 226871, Control_c, 0, 64, 79
1, 226873, Control_c, 0, 67, 49
1, 226880, Note_off_c, 0, 34, 55
1, 226890, Control_c, 0, 64, 86
1, 226908, Control_c, 0, 64, 92
1, 226909, Control_c, 0, 67, 56
1, 226918, Note_off_c, 0, 56, 37
1, 227002, Control_c, 0, 67, 60
1, 227114, Control_c, 0, 67, 65
1, 227133, Control_c, 0, 64, 88
1, 227145, Note_on_c, 0, 67, 43
1, 227152, Control_c, 0, 64, 85
1, 227157, Note_on_c, 0, 55, 38
1, 227171, Control_c, 0, 64, 82
1, 227188, Control_c, 0, 64, 79
1, 227207, Control_c, 0, 64, 77
1, 227226, Control_c, 0, 64, 74
1, 227245, Control_c, 0, 64, 72
1, 227263, Control_c, 0, 64, 68
1, 227282, Control_c, 0, 64, 64
1, 227283, Control_c, 0, 67, 69
1, 227301, Control_c, 0, 64, 60
1, 227319, Control_c, 0, 64, 55
1, 227339, Control_c, 0, 64, 48
1, 227357, Control_c, 0, 64, 39
1, 227376, Control_c, 0, 64, 32
1, 227413, Control_c, 0, 64, 37
1, 227432, Control_c, 0, 64, 42
1, 227450, Control_c, 0, 64, 50
1, 227469, Control_c, 0, 64, 58
1, 227488, Control_c, 0, 64, 66
1, 227491, Note_on_c, 0, 49, 42
1, 227508, Control_c, 0, 64, 71
1, 227515, Note_off_c, 0, 68, 41
1, 227521, Note_on_c, 0, 46, 38
1, 227527, Control_c, 0, 64, 76
1, 227544, Control_c, 0, 64, 80
1, 227563, Control_c, 0, 64, 84
1, 227582, Control_c, 0, 64, 89
1, 227600, Control_c, 0, 64, 94
1, 227610, Note_off_c, 0, 67, 35
1, 227610, Note_off_c, 0, 55, 34
1, 227610, Poly_aftertouch_c, 0, 67, 0
1, 227617, Control_c, 0, 64, 101
1, 227638, Control_c, 0, 64, 109
1, 227656, Control_c, 0, 64, 116
1, 227674, Control_c, 0, 64, 121
1, 227694, Control_c, 0, 64, 125
1, 227712, Control_c, 0, 67, 64
1, 227804, Note_off_c, 0, 46, 34
1, 227804, Poly_aftertouch_c, 0, 46, 0
1, 227805, Control_c, 0, 67, 59
1, 227825, Control_c, 0, 67, 55
1, 227838, Note_off_c, 0, 49, 27
1, 227838, Poly_aftertouch_c, 0, 49, 0
1, 227843, Control_c, 0, 67, 50
1, 227862, Note_on_c, 0, 67, 57
1, 227862, Control_c, 0, 67, 44
1, 227880, Control_c, 0, 67, 39
1, 227894, Note_on_c, 0, 55, 44
1, 227899, Control_c, 0, 67, 35
1, 227917, Control_c, 0, 67, 30
1, 227937, Control_c, 0, 67, 26
1, 227956, Control_c, 0, 67, 21
1, 227974, Control_c, 0, 67, 14
1, 228030, Control_c, 0, 67, 0
1, 228227, Note_on_c, 0, 49, 50
1, 228239, Note_on_c, 0, 46, 46
1, 228346, Note_off_c, 0, 49, 53
1, 228346, Poly_aftertouch_c, 0, 49, 0
1, 228356, Note_off_c, 0, 67, 34
1, 228356, Poly_aftertouch_c, 0, 67, 0
1, 228368, Note_off_c, 0, 55, 25
1, 228394, Note_off_c, 0, 46, 50
1, 228394, Poly_aftertouch_c, 0, 46, 0
1, 228607, Note_on_c, 0, 67, 65
1, 228627, Note_on_c, 0, 55, 49
1, 228965, Control_c, 0, 64, 107
1, 228977, Note_on_c, 0, 35, 73
1, 228984, Control_c, 0, 64, 84
1, 229002, Control_c, 0, 64, 65
1, 229022, Control_c, 0, 64, 58
1, 229058, Control_c, 0, 64, 62
1, 229077, Control_c, 0, 64, 67
1, 229078, Note_off_c, 0, 55, 59
1, 229097, Control_c, 0, 64, 73
1, 229115, Control_c, 0, 64, 80
1, 229135, Control_c, 0, 64, 88
1, 229152, Control_c, 0, 64, 95
1, 229171, Control_c, 0, 64, 100
1, 229185, Note_off_c, 0, 35, 54
1, 229190, Control_c, 0, 64, 104
1, 229394, Note_on_c, 0, 68, 60
1, 229413, Control_c, 0, 64, 100
1, 229422, Note_on_c, 0, 56, 49
1, 229452, Control_c, 0, 64, 96
1, 229488, Control_c, 0, 64, 89
1, 229509, Control_c, 0, 64, 85
1, 229526, Control_c, 0, 64, 80
1, 229545, Control_c, 0, 64, 75
1, 229563, Control_c, 0, 64, 70
1, 229583, Control_c, 0, 64, 64
1, 229598, Note_off_c, 0, 67, 61
1, 229598, Poly_aftertouch_c, 0, 67, 0
1, 229600, Control_c, 0, 64, 55
1, 229601, Control_c, 0, 67, 8
1, 229619, Control_c, 0, 64, 38
1, 229638, Control_c, 0, 64, 0
1, 229732, Control_c, 0, 64, 10
1, 229750, Control_c, 0, 64, 23
1, 229757, Note_on_c, 0, 51, 46
1, 229770, Control_c, 0, 64, 35
1, 229785, Note_on_c, 0, 47, 37
1, 229787, Control_c, 0, 64, 45
1, 229806, Control_c, 0, 64, 54
1, 229825, Control_c, 0, 64, 62
1, 229844, Control_c, 0, 64, 70
1, 229863, Control_c, 0, 64, 75
1, 229882, Control_c, 0, 64, 79
1, 229900, Control_c, 0, 64, 85
1, 229919, Control_c, 0, 64, 93
1, 229938, Control_c, 0, 64, 103
1, 229956, Control_c, 0, 64, 112
1, 229976, Control_c, 0, 64, 119
1, 229994, Control_c, 0, 64, 125
1, 230000, Note_off_c, 0, 56, 35
1, 230003, Note_off_c, 0, 68, 46
1, 230031, Control_c, 0, 67, 0
1, 230119, Note_on_c, 0, 68, 66
1, 230140, Note_on_c, 0, 56, 56
1, 230193, Note_off_c, 0, 47, 38
1, 230193, Poly_aftertouch_c, 0, 47, 0
1, 230221, Note_off_c, 0, 51, 34
1, 230221, Poly_aftertouch_c, 0, 51, 0
1, 230473, Note_on_c, 0, 51, 62
1, 230482, Note_on_c, 0, 47, 54
1, 230589, Note_off_c, 0, 51, 58
1, 230589, Poly_aftertouch_c, 0, 51, 0
1, 230674, Note_off_c, 0, 47, 38
1, 230674, Poly_aftertouch_c, 0, 47, 0
1, 230719, Note_off_c, 0, 68, 35
1, 230755, Note_off_c, 0, 56, 40
1, 230772, Poly_aftertouch_c, 0, 63, 127
1, 230858, Note_on_c, 0, 68, 74
1, 230872, Note_on_c, 0, 56, 67
1, 231208, Control_c, 0, 64, 109
1, 231210, Note_on_c, 0, 37, 77
1, 231228, Control_c, 0, 64, 82
1, 231246, Control_c, 0, 64, 58
1, 231265, Control_c, 0, 64, 44
1, 231270, Note_off_c, 0, 56, 45
1, 231284, Control_c, 0, 64, 42
1, 231302, Control_c, 0, 64, 47
1, 231322, Control_c, 0, 64, 58
1, 231340, Control_c, 0, 64, 72
1, 231359, Control_c, 0, 64, 85
1, 231378, Control_c, 0, 64, 98
1, 231387, Note_off_c, 0, 37, 56
1, 231394, Control_c, 0, 64, 109
1, 231414, Control_c, 0, 64, 113
1, 231618, Note_on_c, 0, 69, 71
1, 231619, Control_c, 0, 64, 109
1, 231649, Note_on_c, 0, 57, 53
1, 231676, Control_c, 0, 64, 104
1, 231733, Control_c, 0, 64, 98
1, 231747, Note_off_c, 0, 68, 56
1, 231788, Control_c, 0, 64, 93
1, 231803, Poly_aftertouch_c, 0, 63, 0
1, 231845, Control_c, 0, 64, 88
1, 231863, Control_c, 0, 64, 85
1, 231882, Control_c, 0, 64, 81
1, 231900, Control_c, 0, 64, 75
1, 231920, Control_c, 0, 64, 67
1, 231939, Control_c, 0, 64, 56
1, 231956, Control_c, 0, 64, 39
1, 231975, Note_on_c, 0, 52, 61
1, 231976, Control_c, 0, 64, 8
1, 231993, Note_on_c, 0, 49, 55
1, 231994, Control_c, 0, 64, 0
1, 232032, Control_c, 0, 64, 18
1, 232050, Control_c, 0, 64, 37
1, 232071, Control_c, 0, 64, 56
1, 232087, Control_c, 0, 64, 71
1, 232107, Control_c, 0, 64, 82
1, 232126, Control_c, 0, 64, 93
1, 232144, Control_c, 0, 64, 107
1, 232163, Control_c, 0, 64, 123
1, 232170, Note_off_c, 0, 57, 26
1, 232170, Poly_aftertouch_c, 0, 57, 0
1, 232181, Control_c, 0, 64, 127
1, 232208, Note_off_c, 0, 69, 51
1, 232360, Note_on_c, 0, 69, 77
1, 232393, Note_on_c, 0, 57, 62
1, 232428, Note_off_c, 0, 49, 29
1, 232428, Poly_aftertouch_c, 0, 49, 0
1, 232448, Note_off_c, 0, 52, 33
1, 232709, Note_on_c, 0, 52, 73
1, 232720, Note_on_c, 0, 49, 70
1, 232877, Note_off_c, 0, 49, 48
1, 232877, Poly_aftertouch_c, 0, 49, 0
1, 232889, Note_off_c, 0, 52, 55
1, 232930, Note_off_c, 0, 69, 37
1, 232952, Note_off_c, 0, 57, 20
1, 232952, Poly_aftertouch_c, 0, 57, 0
1, 233078, Note_on_c, 0, 69, 83
1, 233105, Note_on_c, 0, 57, 73
1, 233369, Note_off_c, 0, 57, 47
1, 233369, Poly_aftertouch_c, 0, 57, 0
1, 233459, Note_on_c, 0, 39, 88
1, 233508, Control_c, 0, 64, 101
1, 233528, Control_c, 0, 64, 70
1, 233547, Control_c, 0, 64, 48
1, 233565, Control_c, 0, 64, 44
1, 233583, Control_c, 0, 64, 53
1, 233603, Control_c, 0, 64, 69
1, 233621, Control_c, 0, 64, 89
1, 233628, Note_off_c, 0, 39, 59
1, 233640, Control_c, 0, 64, 121
1, 233659, Control_c, 0, 64, 127
1, 233870, Note_on_c, 0, 72, 82
1, 233899, Note_on_c, 0, 60, 65
1, 233997, Note_off_c, 0, 69, 54
1, 234107, Control_c, 0, 64, 122
1, 234126, Control_c, 0, 64, 116
1, 234145, Control_c, 0, 64, 110
1, 234163, Control_c, 0, 64, 104
1, 234182, Control_c, 0, 64, 98
1, 234201, Control_c, 0, 64, 88
1, 234209, Note_on_c, 0, 57, 71
1, 234220, Note_on_c, 0, 54, 65
1, 234220, Control_c, 0, 64, 72
1, 234222, Note_on_c, 0, 51, 64
1, 234238, Control_c, 0, 64, 53
1, 234256, Control_c, 0, 64, 23
1, 234276, Control_c, 0, 64, 0
1, 234331, Control_c, 0, 64, 27
1, 234350, Control_c, 0, 64, 51
1, 234369, Control_c, 0, 64, 71
1, 234388, Control_c, 0, 64, 85
1, 234406, Control_c, 0, 64, 97
1, 234426, Control_c, 0, 64, 111
1, 234443, Control_c, 0, 64, 126
1, 234473, Note_off_c, 0, 60, 52
1, 234474, Note_off_c, 0, 72, 50
1, 234579, Note_on_c, 0, 72, 85
1, 234598, Note_on_c, 0, 60, 80
1, 234625, Note_off_c, 0, 57, 38
1, 234625, Poly_aftertouch_c, 0, 57, 0
1, 234646, Note_off_c, 0, 51, 33
1, 234646, Poly_aftertouch_c, 0, 51, 0
1, 234653, Note_off_c, 0, 54, 37
1, 234929, Note_on_c, 0, 57, 87
1, 234938, Note_on_c, 0, 54, 76
1, 234949, Note_on_c, 0, 51, 72
1, 235044, Note_off_c, 0, 57, 61
1, 235044, Poly_aftertouch_c, 0, 57, 0
1, 235093, Note_off_c, 0, 54, 59
1, 235116, Note_off_c, 0, 72, 47
1, 235117, Note_off_c, 0, 51, 59
1, 235117, Poly_aftertouch_c, 0, 51, 0
1, 235170, Note_off_c, 0, 60, 31
1, 235286, Note_on_c, 0, 72, 91
1, 235302, Note_on_c, 0, 60, 85
1, 235667, Note_on_c, 0, 40, 96
1, 235714, Control_c, 0, 64, 110
1, 235734, Control_c, 0, 64, 69
1, 235753, Control_c, 0, 64, 0
1, 235776, Note_off_c, 0, 60, 62
1, 235809, Control_c, 0, 64, 44
1, 235828, Control_c, 0, 64, 78
1, 235846, Control_c, 0, 64, 109
1, 235852, Note_off_c, 0, 40, 57
1, 235865, Control_c, 0, 64, 127
1, 236085, Note_on_c, 0, 73, 92
1, 236096, Note_on_c, 0, 61, 88
1, 236124, Note_off_c, 0, 72, 63
1, 236439, Note_on_c, 0, 56, 89
1, 236446, Note_on_c, 0, 52, 82
1, 236462, Control_c, 0, 64, 98
1, 236482, Control_c, 0, 64, 73
1, 236501, Control_c, 0, 64, 58
1, 236538, Control_c, 0, 64, 61
1, 236557, Control_c, 0, 64, 71
1, 236576, Control_c, 0, 64, 86
1, 236593, Control_c, 0, 64, 109
1, 236607, Note_off_c, 0, 73, 49
1, 236607, Poly_aftertouch_c, 0, 73, 0
1, 236611, Control_c, 0, 64, 127
1, 236645, Note_off_c, 0, 61, 31
1, 236714, Note_on_c, 0, 70, 27
1, 236782, Note_off_c, 0, 56, 41
1, 236798, Note_off_c, 0, 52, 33
1, 236821, Note_on_c, 0, 73, 93
1, 236824, Note_off_c, 0, 70, 51
1, 236829, Note_on_c, 0, 61, 90
1, 237258, Note_on_c, 0, 59, 89
1, 237261, Note_on_c, 0, 56, 84
1, 237274, Note_on_c, 0, 53, 79
1, 237363, Control_c, 0, 64, 116
1, 237380, Control_c, 0, 64, 83
1, 237399, Control_c, 0, 64, 55
1, 237418, Control_c, 0, 64, 29
1, 237436, Control_c, 0, 64, 14
1, 237453, Control_c, 0, 64, 26
1, 237473, Control_c, 0, 64, 42
1, 237482, Note_off_c, 0, 61, 50
1, 237490, Control_c, 0, 64, 57
1, 237511, Control_c, 0, 64, 70
1, 237528, Control_c, 0, 64, 79
1, 237548, Control_c, 0, 64, 88
1, 237567, Control_c, 0, 64, 95
1, 237585, Control_c, 0, 64, 102
1, 237604, Control_c, 0, 64, 109
1, 237622, Control_c, 0, 64, 116
1, 237642, Control_c, 0, 64, 122
1, 237659, Control_c, 0, 64, 127
1, 237732, Note_on_c, 0, 74, 92
1, 237742, Note_on_c, 0, 62, 87
1, 237783, Poly_aftertouch_c, 0, 68, 0
1, 237833, Note_off_c, 0, 73, 41
1, 237833, Poly_aftertouch_c, 0, 73, 0
1, 237924, Note_off_c, 0, 59, 49
1, 237951, Note_off_c, 0, 56, 47
1, 238110, Control_c, 0, 64, 111
1, 238114, Note_on_c, 0, 59, 92
1, 238119, Note_on_c, 0, 51, 83
1, 238122, Note_on_c, 0, 56, 80
1, 238128, Control_c, 0, 64, 76
1, 238146, Control_c, 0, 64, 36
1, 238165, Control_c, 0, 64, 0
1, 238172, Note_off_c, 0, 53, 58
1, 238172, Poly_aftertouch_c, 0, 53, 0
1, 238221, Control_c, 0, 64, 11
1, 238240, Control_c, 0, 64, 45
1, 238243, Note_off_c, 0, 59, 55
1, 238249, Note_off_c, 0, 62, 60
1, 238257, Control_c, 0, 64, 68
1, 238277, Control_c, 0, 64, 85
1, 238296, Control_c, 0, 64, 99
1, 238301, Note_off_c, 0, 56, 56
1, 238315, Control_c, 0, 64, 113
1, 238333, Control_c, 0, 64, 121
1, 238372, Control_c, 0, 64, 127
1, 238395, Note_off_c, 0, 51, 56
1, 238395, Poly_aftertouch_c, 0, 51, 0
1, 238493, Note_on_c, 0, 75, 95
1, 238501, Note_on_c, 0, 63, 91
1, 238521, Note_off_c, 0, 74, 65
1, 238875, Control_c, 0, 64, 103
1, 238877, Note_on_c, 0, 51, 94
1, 238879, Note_on_c, 0, 44, 85
1, 238884, Note_on_c, 0, 47, 85
1, 238892, Note_on_c, 0, 39, 78
1, 238893, Control_c, 0, 64, 74
1, 238913, Control_c, 0, 64, 52
1, 238931, Control_c, 0, 64, 41
1, 238950, Control_c, 0, 64, 43
1, 238969, Control_c, 0, 64, 58
1, 238970, Note_off_c, 0, 75, 54
1, 238988, Control_c, 0, 64, 83
1, 239009, Control_c, 0, 64, 115
1, 239025, Control_c, 0, 64, 127
1, 239026, Control_c, 0, 67, 9
1, 239055, Note_off_c, 0, 51, 56
1, 239055, Poly_aftertouch_c, 0, 51, 0
1, 239066, Note_off_c, 0, 47, 59
1, 239066, Poly_aftertouch_c, 0, 47, 0
1, 239081, Control_c, 0, 67, 13
1, 239091, Note_off_c, 0, 63, 37
1, 239094, Note_off_c, 0, 39, 57
1, 239119, Control_c, 0, 67, 17
1, 239136, Control_c, 0, 64, 123
1, 239136, Control_c, 0, 67, 21
1, 239156, Control_c, 0, 64, 111
1, 239157, Control_c, 0, 67, 25
1, 239171, Note_off_c, 0, 44, 55
1, 239173, Control_c, 0, 64, 97
1, 239193, Control_c, 0, 64, 83
1, 239194, Control_c, 0, 67, 29
1, 239212, Control_c, 0, 64, 69
1, 239231, Control_c, 0, 64, 56
1, 239249, Control_c, 0, 64, 44
1, 239269, Control_c, 0, 64, 21
1, 239286, Control_c, 0, 64, 0
1, 239287, Note_on_c, 0, 75, 84
1, 239305, Note_on_c, 0, 63, 76
1, 239677, Note_on_c, 0, 51, 78
1, 239679, Control_c, 0, 64, 30
1, 239684, Note_on_c, 0, 46, 72
1, 239692, Note_on_c, 0, 43, 65
1, 239694, Note_on_c, 0, 39, 69
1, 239697, Control_c, 0, 64, 53
1, 239716, Control_c, 0, 64, 73
1, 239735, Control_c, 0, 64, 88
1, 239749, Note_off_c, 0, 63, 52
1, 239753, Control_c, 0, 64, 104
1, 239754, Control_c, 0, 67, 34
1, 239773, Control_c, 0, 64, 118
1, 239774, Control_c, 0, 67, 40
1, 239783, Note_off_c, 0, 39, 59
1, 239787, Note_off_c, 0, 75, 55
1, 239792, Control_c, 0, 64, 125
1, 239793, Control_c, 0, 67, 45
1, 239813, Note_off_c, 0, 51, 45
1, 239813, Poly_aftertouch_c, 0, 51, 0
1, 239829, Control_c, 0, 67, 52
1, 239848, Control_c, 0, 67, 57
1, 239855, Note_off_c, 0, 46, 56
1, 239855, Poly_aftertouch_c, 0, 46, 0
1, 239861, Note_off_c, 0, 43, 39
1, 239865, Control_c, 0, 67, 61
1, 239886, Control_c, 0, 67, 66
1, 239903, Control_c, 0, 64, 121
1, 239922, Control_c, 0, 67, 72
1, 239940, Control_c, 0, 64, 114
1, 239960, Control_c, 0, 64, 109
1, 239978, Control_c, 0, 64, 102
1, 239998, Control_c, 0, 64, 93
1, 240015, Control_c, 0, 64, 84
1, 240035, Control_c, 0, 64, 76
1, 240053, Control_c, 0, 64, 69
1, 240071, Control_c, 0, 64, 64
1, 240091, Control_c, 0, 64, 60
1, 240110, Control_c, 0, 64, 55
1, 240112, Note_on_c, 0, 75, 66
1, 240129, Control_c, 0, 64, 50
1, 240149, Control_c, 0, 64, 42
1, 240150, Control_c, 0, 67, 76
1, 240151, Note_on_c, 0, 63, 47
1, 240166, Control_c, 0, 64, 30
1, 240184, Control_c, 0, 64, 13
1, 240203, Control_c, 0, 64, 0
1, 240466, Control_c, 0, 67, 70
1, 240483, Control_c, 0, 67, 65
1, 240502, Control_c, 0, 67, 59
1, 240522, Control_c, 0, 67, 52
1, 240538, Control_c, 0, 67, 44
1, 240546, Note_on_c, 0, 68, 50
1, 240559, Control_c, 0, 64, 10
1, 240560, Control_c, 0, 67, 36
1, 240571, Note_on_c, 0, 56, 38
1, 240575, Note_on_c, 0, 44, 36
1, 240577, Control_c, 0, 67, 30
1, 240597, Control_c, 0, 64, 17
1, 240598, Control_c, 0, 67, 25
1, 240614, Control_c, 0, 67, 21
1, 240633, Control_c, 0, 64, 23
1, 240660, Note_off_c, 0, 63, 50
1, 240671, Control_c, 0, 64, 27
1, 240692, Note_off_c, 0, 56, 53
1, 240702, Note_off_c, 0, 75, 53
1, 240764, Control_c, 0, 67, 25
1, 240819, Control_c, 0, 67, 32
1, 240835, Note_off_c, 0, 44, 52
1, 240838, Control_c, 0, 67, 36
1, 240857, Control_c, 0, 64, 23
1, 240859, Control_c, 0, 67, 40
1, 240894, Control_c, 0, 67, 44
1, 240932, Control_c, 0, 64, 19
1, 240951, Control_c, 0, 67, 50
1, 241007, Control_c, 0, 67, 54
1, 241026, Control_c, 0, 64, 14
1, 241063, Control_c, 0, 67, 58
1, 241120, Control_c, 0, 67, 65
1, 241157, Control_c, 0, 67, 71
1, 241196, Control_c, 0, 64, 10
1, 241197, Control_c, 0, 67, 75
1, 241230, Control_c, 0, 67, 80
1, 241269, Control_c, 0, 67, 86
1, 241306, Control_c, 0, 67, 91
1, 241343, Control_c, 0, 67, 96
1, 241381, Control_c, 0, 67, 102
1, 241400, Control_c, 0, 67, 106
1, 241417, Control_c, 0, 67, 110
1, 241421, Note_on_c, 0, 32, 27
1, 241457, Control_c, 0, 67, 116
1, 241493, Control_c, 0, 67, 122
1, 241512, Control_c, 0, 64, 23
1, 241531, Control_c, 0, 64, 36
1, 241532, Control_c, 0, 67, 127
1, 241541, Note_off_c, 0, 68, 55
1, 241548, Control_c, 0, 64, 53
1, 241568, Control_c, 0, 64, 66
1, 241587, Control_c, 0, 64, 74
1, 241606, Control_c, 0, 64, 78
1, 241622, Note_off_c, 0, 32, 48
1, 241623, Control_c, 0, 64, 82
1, 241643, Control_c, 0, 64, 85
1, 241661, Control_c, 0, 64, 87
1, 241848, Control_c, 0, 64, 84
1, 241886, Control_c, 0, 64, 81
1, 241905, Control_c, 0, 64, 78
1, 241923, Control_c, 0, 64, 74
1, 241942, Control_c, 0, 64, 71
1, 241960, Control_c, 0, 64, 69
1, 241979, Control_c, 0, 64, 68
1, 242000, Control_c, 0, 64, 67
1, 242054, Control_c, 0, 64, 66
1, 242090, Control_c, 0, 64, 65
1, 242185, Control_c, 0, 64, 64
1, 242223, Control_c, 0, 64, 63
1, 242260, Control_c, 0, 64, 62
1, 242409, Control_c, 0, 64, 61
1, 242654, Note_on_c, 0, 69, 63
1, 242727, Control_c, 0, 64, 60
1, 242951, Control_c, 0, 64, 61
1, 242988, Control_c, 0, 67, 119
1, 243008, Control_c, 0, 64, 62
1, 243010, Control_c, 0, 67, 112
1, 243026, Control_c, 0, 64, 63
1, 243027, Control_c, 0, 67, 105
1, 243047, Control_c, 0, 67, 100
1, 243064, Control_c, 0, 64, 64
1, 243065, Control_c, 0, 67, 94
1, 243082, Control_c, 0, 67, 89
1, 243102, Control_c, 0, 67, 83
1, 243120, Control_c, 0, 67, 77
1, 243138, Control_c, 0, 67, 71
1, 243157, Control_c, 0, 67, 66
1, 243214, Control_c, 0, 67, 62
1, 243560, Note_on_c, 0, 78, 66
1, 243576, Note_on_c, 0, 75, 54
1, 243643, Control_c, 0, 64, 65
1, 243699, Control_c, 0, 64, 66
1, 243718, Control_c, 0, 64, 67
1, 243737, Control_c, 0, 64, 69
1, 243758, Control_c, 0, 64, 72
1, 243759, Control_c, 0, 67, 67
1, 243774, Control_c, 0, 64, 75
1, 243793, Control_c, 0, 64, 78
1, 243794, Control_c, 0, 67, 74
1, 243812, Control_c, 0, 64, 81
1, 243813, Control_c, 0, 67, 78
1, 243830, Control_c, 0, 64, 84
1, 243850, Control_c, 0, 64, 86
1, 243851, Control_c, 0, 67, 85
1, 243867, Control_c, 0, 67, 90
1, 243887, Control_c, 0, 64, 91
1, 243904, Control_c, 0, 67, 97
1, 243924, Control_c, 0, 64, 97
1, 243926, Control_c, 0, 67, 101
1, 243943, Control_c, 0, 67, 106
1, 243961, Control_c, 0, 64, 101
1, 243962, Control_c, 0, 67, 110
1, 243980, Control_c, 0, 67, 114
1, 243998, Control_c, 0, 64, 107
1, 244018, Control_c, 0, 67, 121
1, 244055, Control_c, 0, 67, 127
1, 244521, Control_c, 0, 64, 102
1, 244537, Note_on_c, 0, 68, 30
1, 244558, Note_on_c, 0, 60, 32
1, 244577, Control_c, 0, 64, 98
1, 244599, Poly_aftertouch_c, 0, 69, 24
1, 244615, Control_c, 0, 64, 92
1, 244634, Control_c, 0, 64, 88
1, 244639, Note_off_c, 0, 69, 40
1, 244639, Poly_aftertouch_c, 0, 69, 0
1, 244652, Control_c, 0, 64, 83
1, 244672, Control_c, 0, 64, 78
1, 244691, Control_c, 0, 64, 73
1, 244708, Control_c, 0, 64, 70
1, 244802, Control_c, 0, 64, 72
1, 244822, Control_c, 0, 64, 74
1, 244839, Control_c, 0, 64, 77
1, 244859, Control_c, 0, 64, 80
1, 244877, Control_c, 0, 64, 85
1, 244896, Control_c, 0, 64, 90
1, 244934, Control_c, 0, 64, 97
1, 244972, Control_c, 0, 64, 101
1, 245083, Control_c, 0, 64, 96
1, 245159, Control_c, 0, 64, 91
1, 245250, Control_c, 0, 64, 87
1, 245270, Control_c, 0, 64, 85
1, 245289, Control_c, 0, 64, 83
1, 245307, Control_c, 0, 64, 81
1, 245326, Control_c, 0, 64, 79
1, 245364, Control_c, 0, 64, 76
1, 245373, Note_on_c, 0, 72, 38
1, 245389, Note_on_c, 0, 56, 30
1, 245401, Control_c, 0, 64, 74
1, 245420, Control_c, 0, 64, 72
1, 245457, Control_c, 0, 64, 70
1, 245495, Control_c, 0, 64, 65
1, 245497, Note_off_c, 0, 60, 41
1, 245513, Control_c, 0, 64, 62
1, 245532, Control_c, 0, 64, 59
1, 245550, Control_c, 0, 64, 56
1, 245570, Control_c, 0, 64, 53
1, 245587, Control_c, 0, 64, 48
1, 245607, Control_c, 0, 64, 46
1, 245644, Control_c, 0, 64, 48
1, 245662, Control_c, 0, 64, 51
1, 245682, Control_c, 0, 64, 56
1, 245700, Control_c, 0, 64, 61
1, 245719, Control_c, 0, 64, 66
1, 245737, Control_c, 0, 64, 70
1, 245756, Control_c, 0, 64, 74
1, 245775, Control_c, 0, 64, 77
1, 245793, Control_c, 0, 64, 80
1, 245813, Control_c, 0, 64, 82
1, 245831, Control_c, 0, 64, 85
1, 245849, Control_c, 0, 64, 88
1, 245887, Control_c, 0, 64, 94
1, 246169, Control_c, 0, 64, 89
1, 246185, Control_c, 0, 64, 87
1, 246205, Control_c, 0, 64, 84
1, 246224, Control_c, 0, 64, 80
1, 246227, Note_on_c, 0, 73, 39
1, 246242, Control_c, 0, 64, 76
1, 246252, Note_on_c, 0, 61, 28
1, 246258, Control_c, 0, 64, 72
1, 246280, Control_c, 0, 64, 69
1, 246299, Control_c, 0, 64, 66
1, 246318, Control_c, 0, 64, 63
1, 246336, Control_c, 0, 64, 59
1, 246355, Control_c, 0, 64, 55
1, 246374, Control_c, 0, 64, 51
1, 246386, Note_off_c, 0, 75, 38
1, 246390, Note_off_c, 0, 56, 36
1, 246391, Control_c, 0, 64, 49
1, 246454, Note_off_c, 0, 72, 32
1, 246467, Control_c, 0, 64, 52
1, 246486, Control_c, 0, 64, 55
1, 246504, Control_c, 0, 64, 60
1, 246524, Control_c, 0, 64, 66
1, 246537, Poly_aftertouch_c, 0, 78, 24
1, 246541, Control_c, 0, 64, 70
1, 246560, Control_c, 0, 64, 74
1, 246579, Control_c, 0, 64, 77
1, 246597, Control_c, 0, 64, 80
1, 246600, Note_off_c, 0, 78, 34
1, 246600, Poly_aftertouch_c, 0, 78, 0
1, 246617, Control_c, 0, 64, 84
1, 246635, Control_c, 0, 64, 88
1, 246654, Control_c, 0, 64, 92
1, 246692, Control_c, 0, 64, 98
1, 246729, Control_c, 0, 64, 102
1, 247046, Control_c, 0, 64, 97
1, 247103, Control_c, 0, 64, 92
1, 247138, Control_c, 0, 64, 86
1, 247144, Note_on_c, 0, 76, 40
1, 247147, Note_on_c, 0, 49, 32
1, 247159, Control_c, 0, 64, 83
1, 247177, Control_c, 0, 64, 80
1, 247196, Control_c, 0, 64, 76
1, 247215, Control_c, 0, 64, 72
1, 247233, Control_c, 0, 64, 69
1, 247252, Control_c, 0, 64, 65
1, 247270, Control_c, 0, 64, 61
1, 247290, Control_c, 0, 64, 56
1, 247308, Control_c, 0, 64, 50
1, 247324, Note_off_c, 0, 61, 41
1, 247325, Control_c, 0, 64, 43
1, 247345, Control_c, 0, 64, 35
1, 247420, Control_c, 0, 64, 43
1, 247440, Control_c, 0, 64, 51
1, 247457, Control_c, 0, 64, 62
1, 247477, Control_c, 0, 64, 71
1, 247495, Control_c, 0, 64, 77
1, 247515, Control_c, 0, 64, 81
1, 247532, Control_c, 0, 64, 86
1, 247545, Note_off_c, 0, 73, 30
1, 247545, Poly_aftertouch_c, 0, 73, 0
1, 247551, Control_c, 0, 64, 92
1, 247552, Control_c, 0, 67, 119
1, 247571, Control_c, 0, 64, 99
1, 247573, Control_c, 0, 67, 111
1, 247585, Note_off_c, 0, 68, 40
1, 247588, Control_c, 0, 64, 104
1, 247588, Control_c, 0, 67, 100
1, 247607, Control_c, 0, 64, 108
1, 247608, Control_c, 0, 67, 89
1, 247626, Control_c, 0, 67, 79
1, 247629, Note_off_c, 0, 49, 30
1, 247629, Poly_aftertouch_c, 0, 49, 0
1, 247647, Control_c, 0, 64, 114
1, 247648, Control_c, 0, 67, 73
1, 247655, Note_off_c, 0, 76, 38
1, 247662, Control_c, 0, 67, 68
1, 247701, Control_c, 0, 67, 60
1, 247720, Control_c, 0, 67, 56
1, 247757, Control_c, 0, 67, 50
1, 248037, Control_c, 0, 64, 110
1, 248113, Control_c, 0, 64, 106
1, 248169, Control_c, 0, 64, 101
1, 248170, Control_c, 0, 67, 54
1, 248224, Control_c, 0, 64, 97
1, 248280, Control_c, 0, 64, 92
1, 248305, Note_on_c, 0, 64, 63
1, 248319, Control_c, 0, 64, 88
1, 248336, Control_c, 0, 64, 84
1, 248355, Control_c, 0, 64, 81
1, 248374, Control_c, 0, 64, 78
1, 248393, Control_c, 0, 64, 75
1, 248413, Control_c, 0, 64, 73
1, 248430, Control_c, 0, 64, 70
1, 248467, Control_c, 0, 64, 68
1, 248487, Control_c, 0, 64, 66
1, 248505, Control_c, 0, 64, 65
1, 248542, Control_c, 0, 64, 64
1, 248562, Control_c, 0, 64, 63
1, 248599, Control_c, 0, 64, 61
1, 248636, Control_c, 0, 64, 60
1, 248691, Control_c, 0, 67, 59
1, 248748, Control_c, 0, 67, 63
1, 248786, Control_c, 0, 67, 67
1, 248823, Control_c, 0, 67, 71
1, 248861, Control_c, 0, 67, 75
1, 248897, Control_c, 0, 64, 58
1, 248917, Control_c, 0, 67, 80
1, 249237, Note_on_c, 0, 73, 62
1, 249263, Note_on_c, 0, 70, 55
1, 249421, Control_c, 0, 67, 86
1, 249459, Control_c, 0, 67, 93
1, 249496, Control_c, 0, 64, 60
1, 249497, Control_c, 0, 67, 100
1, 249515, Control_c, 0, 64, 62
1, 249534, Control_c, 0, 64, 64
1, 249535, Control_c, 0, 67, 105
1, 249552, Control_c, 0, 64, 66
1, 249570, Control_c, 0, 64, 68
1, 249571, Control_c, 0, 67, 109
1, 249590, Control_c, 0, 64, 71
1, 249609, Control_c, 0, 64, 74
1, 249610, Control_c, 0, 67, 114
1, 249626, Control_c, 0, 64, 77
1, 249646, Control_c, 0, 64, 80
1, 249647, Control_c, 0, 67, 119
1, 249665, Control_c, 0, 64, 83
1, 249682, Control_c, 0, 64, 86
1, 249702, Control_c, 0, 67, 124
1, 249720, Control_c, 0, 64, 92
1, 249757, Control_c, 0, 64, 97
1, 249813, Control_c, 0, 64, 101
1, 250038, Control_c, 0, 64, 97
1, 250094, Control_c, 0, 64, 92
1, 250111, Note_on_c, 0, 63, 40
1, 250130, Note_on_c, 0, 55, 25
1, 250130, Control_c, 0, 64, 85
1, 250151, Control_c, 0, 64, 81
1, 250170, Control_c, 0, 64, 77
1, 250188, Control_c, 0, 64, 73
1, 250206, Control_c, 0, 64, 70
1, 250225, Control_c, 0, 64, 66
1, 250244, Control_c, 0, 64, 60
1, 250253, Note_off_c, 0, 64, 57
1, 250264, Control_c, 0, 64, 56
1, 250281, Control_c, 0, 64, 51
1, 250299, Control_c, 0, 64, 47
1, 250431, Control_c, 0, 64, 50
1, 250450, Control_c, 0, 64, 53
1, 250468, Control_c, 0, 64, 58
1, 250487, Control_c, 0, 64, 64
1, 250505, Control_c, 0, 64, 69
1, 250525, Control_c, 0, 64, 73
1, 250543, Control_c, 0, 64, 76
1, 250562, Control_c, 0, 64, 80
1, 250581, Control_c, 0, 64, 83
1, 250600, Control_c, 0, 64, 86
1, 250636, Control_c, 0, 64, 93
1, 250674, Control_c, 0, 64, 98
1, 250880, Control_c, 0, 64, 93
1, 250917, Control_c, 0, 64, 89
1, 250930, Note_on_c, 0, 67, 41
1, 250936, Control_c, 0, 64, 87
1, 250953, Note_on_c, 0, 51, 30
1, 250953, Control_c, 0, 64, 84
1, 250973, Control_c, 0, 64, 80
1, 250992, Control_c, 0, 64, 77
1, 251011, Control_c, 0, 64, 73
1, 251029, Control_c, 0, 64, 68
1, 251049, Control_c, 0, 64, 64
1, 251067, Control_c, 0, 64, 60
1, 251086, Control_c, 0, 64, 56
1, 251104, Control_c, 0, 64, 52
1, 251122, Control_c, 0, 64, 46
1, 251142, Control_c, 0, 64, 38
1, 251159, Control_c, 0, 64, 30
1, 251184, Note_off_c, 0, 55, 33
1, 251273, Control_c, 0, 64, 39
1, 251290, Control_c, 0, 64, 46
1, 251310, Control_c, 0, 64, 56
1, 251328, Control_c, 0, 64, 65
1, 251347, Control_c, 0, 64, 71
1, 251366, Control_c, 0, 64, 75
1, 251384, Control_c, 0, 64, 78
1, 251404, Control_c, 0, 64, 82
1, 251421, Control_c, 0, 64, 86
1, 251440, Control_c, 0, 64, 90
1, 251459, Control_c, 0, 64, 95
1, 251478, Control_c, 0, 64, 100
1, 251496, Control_c, 0, 64, 105
1, 251534, Control_c, 0, 64, 111
1, 251621, Note_off_c, 0, 67, 30
1, 251621, Poly_aftertouch_c, 0, 67, 0
1, 251740, Control_c, 0, 64, 106
1, 251769, Note_on_c, 0, 68, 42
1, 251776, Control_c, 0, 64, 101
1, 251796, Control_c, 0, 64, 96
1, 251814, Note_on_c, 0, 56, 27
1, 251814, Control_c, 0, 64, 90
1, 251834, Control_c, 0, 64, 83
1, 251852, Control_c, 0, 64, 77
1, 251871, Control_c, 0, 64, 71
1, 251889, Control_c, 0, 64, 66
1, 251908, Control_c, 0, 64, 61
1, 251926, Control_c, 0, 64, 55
1, 251930, Note_off_c, 0, 70, 53
1, 251946, Control_c, 0, 64, 47
1, 251957, Note_off_c, 0, 51, 46
1, 251957, Poly_aftertouch_c, 0, 51, 0
1, 251962, Control_c, 0, 64, 37
1, 251983, Control_c, 0, 64, 27
1, 252077, Control_c, 0, 64, 33
1, 252094, Control_c, 0, 64, 41
1, 252113, Control_c, 0, 64, 51
1, 252132, Control_c, 0, 64, 61
1, 252151, Control_c, 0, 64, 69
1, 252169, Control_c, 0, 64, 74
1, 252188, Control_c, 0, 64, 78
1, 252207, Control_c, 0, 64, 82
1, 252225, Control_c, 0, 64, 86
1, 252245, Control_c, 0, 64, 92
1, 252264, Control_c, 0, 64, 97
1, 252282, Control_c, 0, 64, 102
1, 252302, Control_c, 0, 64, 107
1, 252338, Control_c, 0, 64, 111
1, 252450, Note_off_c, 0, 73, 28
1, 252450, Poly_aftertouch_c, 0, 73, 0
1, 252599, Control_c, 0, 64, 107
1, 252656, Control_c, 0, 64, 101
1, 252693, Control_c, 0, 64, 93
1, 252721, Note_on_c, 0, 44, 30
1, 252727, Note_on_c, 0, 71, 31
1, 252730, Control_c, 0, 64, 87
1, 252749, Control_c, 0, 64, 84
1, 252768, Control_c, 0, 64, 81
1, 252787, Control_c, 0, 64, 77
1, 252805, Control_c, 0, 64, 73
1, 252811, Poly_aftertouch_c, 0, 56, 24
1, 252824, Control_c, 0, 64, 70
1, 252842, Control_c, 0, 64, 67
1, 252862, Control_c, 0, 64, 61
1, 252882, Control_c, 0, 64, 53
1, 252899, Control_c, 0, 64, 42
1, 252917, Control_c, 0, 64, 23
1, 252933, Note_off_c, 0, 56, 27
1, 252933, Poly_aftertouch_c, 0, 56, 0
1, 252955, Control_c, 0, 64, 0
1, 252992, Control_c, 0, 64, 19
1, 253011, Control_c, 0, 64, 30
1, 253029, Control_c, 0, 64, 42
1, 253048, Control_c, 0, 64, 54
1, 253067, Control_c, 0, 64, 66
1, 253086, Control_c, 0, 64, 73
1, 253105, Control_c, 0, 64, 77
1, 253123, Control_c, 0, 64, 80
1, 253142, Control_c, 0, 64, 84
1, 253161, Control_c, 0, 64, 90
1, 253169, Note_off_c, 0, 63, 37
1, 253179, Control_c, 0, 64, 97
1, 253199, Control_c, 0, 64, 103
1, 253217, Control_c, 0, 64, 109
1, 253226, Note_off_c, 0, 71, 36
1, 253236, Control_c, 0, 64, 114
1, 253274, Control_c, 0, 64, 121
1, 253275, Control_c, 0, 67, 118
1, 253311, Control_c, 0, 64, 125
1, 253312, Control_c, 0, 67, 109
1, 253322, Note_off_c, 0, 44, 23
1, 253328, Control_c, 0, 67, 104
1, 253348, Control_c, 0, 67, 99
1, 253367, Control_c, 0, 67, 93
1, 253385, Control_c, 0, 67, 86
1, 253403, Control_c, 0, 67, 79
1, 253423, Control_c, 0, 67, 73
1, 253430, Note_off_c, 0, 68, 19
1, 253460, Control_c, 0, 67, 68
1, 253628, Control_c, 0, 64, 121
1, 253703, Control_c, 0, 64, 116
1, 253759, Control_c, 0, 64, 112
1, 253796, Control_c, 0, 64, 108
1, 253833, Control_c, 0, 64, 103
1, 253872, Control_c, 0, 64, 94
1, 253890, Control_c, 0, 64, 87
1, 253899, Note_on_c, 0, 71, 41
1, 253908, Control_c, 0, 64, 77
1, 253928, Control_c, 0, 64, 69
1, 253946, Note_on_c, 0, 59, 27
1, 253947, Control_c, 0, 64, 64
1, 253965, Control_c, 0, 64, 62
1, 254003, Control_c, 0, 64, 63
1, 254022, Control_c, 0, 64, 66
1, 254039, Control_c, 0, 64, 70
1, 254060, Control_c, 0, 64, 75
1, 254077, Control_c, 0, 64, 81
1, 254097, Control_c, 0, 64, 87
1, 254114, Control_c, 0, 64, 92
1, 254133, Control_c, 0, 64, 96
1, 254136, Control_c, 0, 67, 63
1, 254140, Note_off_c, 0, 71, 46
1, 254145, Note_off_c, 0, 59, 38
1, 254170, Control_c, 0, 64, 102
1, 254172, Control_c, 0, 67, 59
1, 254209, Control_c, 0, 67, 55
1, 254246, Control_c, 0, 67, 49
1, 254284, Control_c, 0, 67, 44
1, 254286, Note_on_c, 0, 71, 60
1, 254303, Note_on_c, 0, 59, 45
1, 254320, Control_c, 0, 67, 39
1, 254359, Control_c, 0, 67, 34
1, 254394, Control_c, 0, 67, 27
1, 254433, Control_c, 0, 67, 22
1, 254581, Control_c, 0, 64, 96
1, 254601, Control_c, 0, 64, 89
1, 254621, Control_c, 0, 64, 78
1, 254623, Control_c, 0, 67, 26
1, 254638, Control_c, 0, 64, 69
1, 254651, Note_off_c, 0, 59, 54
1, 254657, Control_c, 0, 64, 62
1, 254661, Note_on_c, 0, 38, 45
1, 254677, Control_c, 0, 64, 60
1, 254678, Control_c, 0, 67, 32
1, 254694, Control_c, 0, 67, 37
1, 254713, Control_c, 0, 64, 64
1, 254714, Control_c, 0, 67, 42
1, 254732, Control_c, 0, 64, 68
1, 254733, Control_c, 0, 67, 48
1, 254750, Control_c, 0, 64, 74
1, 254752, Control_c, 0, 67, 54
1, 254769, Control_c, 0, 64, 80
1, 254769, Control_c, 0, 67, 60
1, 254788, Control_c, 0, 64, 85
1, 254790, Control_c, 0, 67, 67
1, 254803, Note_off_c, 0, 38, 56
1, 254806, Control_c, 0, 64, 88
1, 254807, Control_c, 0, 67, 73
1, 254827, Control_c, 0, 67, 79
1, 254863, Control_c, 0, 67, 84
1, 254900, Note_off_c, 0, 71, 38
1, 254918, Control_c, 0, 67, 88
1, 254956, Control_c, 0, 67, 93
1, 255012, Control_c, 0, 67, 98
1, 255030, Control_c, 0, 64, 86
1, 255067, Control_c, 0, 67, 105
1, 255087, Control_c, 0, 64, 83
1, 255096, Note_on_c, 0, 70, 39
1, 255106, Control_c, 0, 67, 111
1, 255123, Control_c, 0, 64, 81
1, 255130, Note_on_c, 0, 58, 32
1, 255143, Control_c, 0, 64, 79
1, 255146, Control_c, 0, 67, 115
1, 255162, Control_c, 0, 64, 77
1, 255179, Control_c, 0, 64, 73
1, 255200, Control_c, 0, 64, 70
1, 255201, Control_c, 0, 67, 119
1, 255218, Control_c, 0, 64, 66
1, 255236, Control_c, 0, 64, 61
1, 255255, Control_c, 0, 64, 55
1, 255273, Control_c, 0, 64, 44
1, 255293, Control_c, 0, 64, 23
1, 255311, Control_c, 0, 64, 0
1, 255368, Control_c, 0, 64, 17
1, 255385, Control_c, 0, 64, 27
1, 255405, Control_c, 0, 64, 37
1, 255423, Control_c, 0, 64, 47
1, 255439, Note_on_c, 0, 53, 31
1, 255440, Note_on_c, 0, 50, 33
1, 255441, Control_c, 0, 64, 57
1, 255460, Control_c, 0, 64, 67
1, 255480, Control_c, 0, 64, 73
1, 255481, Note_off_c, 0, 58, 39
1, 255481, Poly_aftertouch_c, 0, 58, 0
1, 255483, Control_c, 0, 67, 115
1, 255498, Control_c, 0, 64, 77
1, 255508, Note_off_c, 0, 70, 36
1, 255516, Control_c, 0, 64, 81
1, 255535, Control_c, 0, 64, 86
1, 255538, Control_c, 0, 67, 109
1, 255554, Control_c, 0, 64, 92
1, 255555, Control_c, 0, 67, 104
1, 255573, Control_c, 0, 64, 99
1, 255574, Control_c, 0, 67, 96
1, 255592, Control_c, 0, 64, 106
1, 255593, Control_c, 0, 67, 88
1, 255606, Note_off_c, 0, 50, 49
1, 255609, Control_c, 0, 64, 112
1, 255611, Control_c, 0, 67, 79
1, 255629, Control_c, 0, 64, 117
1, 255630, Control_c, 0, 67, 70
1, 255647, Control_c, 0, 64, 121
1, 255648, Control_c, 0, 67, 62
1, 255664, Note_off_c, 0, 53, 41
1, 255664, Poly_aftertouch_c, 0, 53, 0
1, 255666, Control_c, 0, 64, 125
1, 255667, Control_c, 0, 67, 55
1, 255686, Control_c, 0, 67, 51
1, 255723, Control_c, 0, 67, 47
1, 255793, Note_on_c, 0, 58, 48
1, 255793, Note_on_c, 0, 70, 41
1, 255848, Note_off_c, 0, 58, 62
1, 255848, Poly_aftertouch_c, 0, 58, 0
1, 255887, Note_off_c, 0, 70, 65
1, 256096, Control_c, 0, 64, 116
1, 256115, Control_c, 0, 64, 105
1, 256133, Control_c, 0, 64, 92
1, 256150, Note_on_c, 0, 80, 56
1, 256151, Control_c, 0, 64, 81
1, 256155, Note_on_c, 0, 58, 40
1, 256171, Control_c, 0, 64, 75
1, 256175, Note_on_c, 0, 50, 40
1, 256188, Note_on_c, 0, 68, 37
1, 256209, Control_c, 0, 64, 78
1, 256227, Control_c, 0, 64, 82
1, 256229, Control_c, 0, 67, 41
1, 256247, Control_c, 0, 64, 88
1, 256249, Control_c, 0, 67, 36
1, 256253, Note_off_c, 0, 68, 53
1, 256265, Control_c, 0, 64, 95
1, 256266, Control_c, 0, 67, 32
1, 256269, Note_off_c, 0, 80, 61
1, 256284, Control_c, 0, 64, 99
1, 256286, Control_c, 0, 67, 27
1, 256302, Control_c, 0, 67, 22
1, 256307, Note_off_c, 0, 58, 49
1, 256307, Poly_aftertouch_c, 0, 58, 0
1, 256320, Control_c, 0, 67, 14
1, 256341, Note_off_c, 0, 50, 37
1, 256535, Note_on_c, 0, 80, 65
1, 256545, Control_c, 0, 64, 94
1, 256579, Note_on_c, 0, 68, 48
1, 256583, Control_c, 0, 64, 88
1, 256602, Control_c, 0, 64, 83
1, 256620, Control_c, 0, 64, 79
1, 256639, Control_c, 0, 64, 75
1, 256659, Control_c, 0, 64, 71
1, 256660, Control_c, 0, 67, 8
1, 256676, Control_c, 0, 64, 67
1, 256694, Control_c, 0, 64, 64
1, 256714, Control_c, 0, 64, 60
1, 256715, Control_c, 0, 67, 12
1, 256732, Control_c, 0, 64, 55
1, 256751, Control_c, 0, 64, 49
1, 256770, Control_c, 0, 64, 39
1, 256789, Control_c, 0, 64, 22
1, 256790, Control_c, 0, 67, 17
1, 256807, Control_c, 0, 64, 0
1, 256900, Note_on_c, 0, 39, 55
1, 256901, Control_c, 0, 64, 15
1, 256919, Control_c, 0, 64, 36
1, 256939, Control_c, 0, 64, 53
1, 256940, Control_c, 0, 67, 12
1, 256957, Control_c, 0, 64, 67
1, 256977, Control_c, 0, 64, 75
1, 256994, Control_c, 0, 64, 80
1, 256995, Control_c, 0, 67, 0
1, 257002, Note_off_c, 0, 68, 49
1, 257012, Note_off_c, 0, 39, 60
1, 257012, Control_c, 0, 64, 84
1, 257033, Control_c, 0, 64, 87
1, 257143, Control_c, 0, 64, 84
1, 257182, Control_c, 0, 64, 82
1, 257219, Control_c, 0, 64, 80
1, 257256, Control_c, 0, 64, 77
1, 257258, Control_c, 0, 67, 8
1, 257270, Note_on_c, 0, 78, 46
1, 257297, Note_on_c, 0, 66, 37
1, 257313, Control_c, 0, 64, 75
1, 257330, Control_c, 0, 67, 12
1, 257349, Control_c, 0, 64, 73
1, 257387, Control_c, 0, 67, 16
1, 257405, Control_c, 0, 64, 71
1, 257423, Control_c, 0, 64, 69
1, 257443, Control_c, 0, 64, 67
1, 257444, Control_c, 0, 67, 20
1, 257450, Note_off_c, 0, 80, 53
1, 257461, Control_c, 0, 64, 63
1, 257480, Control_c, 0, 64, 60
1, 257499, Control_c, 0, 64, 56
1, 257573, Control_c, 0, 64, 58
1, 257592, Control_c, 0, 64, 60
1, 257611, Control_c, 0, 64, 63
1, 257621, Note_on_c, 0, 58, 38
1, 257629, Control_c, 0, 64, 65
1, 257633, Note_on_c, 0, 51, 36
1, 257636, Note_off_c, 0, 78, 48
1, 257636, Poly_aftertouch_c, 0, 78, 0
1, 257648, Control_c, 0, 64, 68
1, 257649, Control_c, 0, 67, 16
1, 257656, Note_off_c, 0, 66, 36
1, 257666, Control_c, 0, 64, 71
1, 257686, Control_c, 0, 64, 74
1, 257704, Control_c, 0, 64, 76
1, 257724, Control_c, 0, 64, 79
1, 257724, Control_c, 0, 67, 0
1, 257742, Control_c, 0, 64, 82
1, 257761, Control_c, 0, 64, 85
1, 257797, Control_c, 0, 64, 92
1, 257811, Note_off_c, 0, 58, 47
1, 257811, Poly_aftertouch_c, 0, 58, 0
1, 257816, Control_c, 0, 64, 97
1, 257836, Control_c, 0, 64, 102
1, 257855, Control_c, 0, 64, 108
1, 257867, Note_off_c, 0, 51, 49
1, 257867, Poly_aftertouch_c, 0, 51, 0
1, 257871, Control_c, 0, 64, 112
1, 257891, Control_c, 0, 64, 116
1, 257911, Control_c, 0, 64, 120
1, 257928, Control_c, 0, 64, 124
1, 257955, Note_on_c, 0, 78, 58
1, 257979, Note_on_c, 0, 66, 50
1, 258105, Note_off_c, 0, 66, 52
1, 258114, Note_off_c, 0, 78, 59
1, 258114, Poly_aftertouch_c, 0, 78, 0
1, 258228, Control_c, 0, 64, 106
1, 258247, Control_c, 0, 64, 87
1, 258267, Control_c, 0, 64, 74
1, 258283, Control_c, 0, 64, 68
1, 258302, Note_on_c, 0, 56, 49
1, 258303, Note_on_c, 0, 77, 57
1, 258311, Note_on_c, 0, 44, 36
1, 258322, Control_c, 0, 64, 70
1, 258339, Control_c, 0, 64, 74
1, 258341, Note_on_c, 0, 65, 39
1, 258358, Control_c, 0, 64, 80
1, 258378, Control_c, 0, 64, 90
1, 258397, Control_c, 0, 64, 103
1, 258415, Control_c, 0, 64, 116
1, 258424, Note_off_c, 0, 56, 58
1, 258424, Poly_aftertouch_c, 0, 56, 0
1, 258432, Control_c, 0, 64, 126
1, 258452, Note_off_c, 0, 77, 54
1, 258463, Note_off_c, 0, 65, 51
1, 258522, Note_off_c, 0, 44, 31
1, 258668, Note_on_c, 0, 77, 74
1, 258683, Note_on_c, 0, 65, 53
1, 258755, Note_off_c, 0, 65, 57
1, 258995, Control_c, 0, 64, 115
1, 259000, Note_on_c, 0, 34, 59
1, 259013, Control_c, 0, 64, 92
1, 259032, Control_c, 0, 64, 68
1, 259051, Control_c, 0, 64, 47
1, 259069, Control_c, 0, 64, 18
1, 259087, Control_c, 0, 64, 0
1, 259107, Control_c, 0, 64, 14
1, 259126, Control_c, 0, 64, 34
1, 259144, Control_c, 0, 64, 54
1, 259163, Control_c, 0, 64, 70
1, 259182, Control_c, 0, 64, 78
1, 259201, Control_c, 0, 64, 85
1, 259215, Note_off_c, 0, 34, 53
1, 259218, Control_c, 0, 64, 90
1, 259238, Control_c, 0, 64, 95
1, 259275, Control_c, 0, 64, 101
1, 259376, Note_on_c, 0, 75, 54
1, 259424, Control_c, 0, 64, 95
1, 259443, Note_on_c, 0, 63, 44
1, 259443, Control_c, 0, 64, 89
1, 259463, Control_c, 0, 64, 79
1, 259476, Note_off_c, 0, 77, 40
1, 259479, Control_c, 0, 64, 67
1, 259500, Control_c, 0, 64, 55
1, 259518, Control_c, 0, 64, 41
1, 259537, Control_c, 0, 64, 28
1, 259575, Control_c, 0, 64, 36
1, 259593, Control_c, 0, 64, 50
1, 259611, Control_c, 0, 64, 65
1, 259630, Control_c, 0, 64, 74
1, 259649, Control_c, 0, 64, 78
1, 259669, Control_c, 0, 64, 81
1, 259686, Control_c, 0, 64, 85
1, 259705, Control_c, 0, 64, 90
1, 259720, Note_on_c, 0, 54, 45
1, 259722, Note_on_c, 0, 46, 43
1, 259724, Control_c, 0, 64, 96
1, 259742, Control_c, 0, 64, 101
1, 259761, Control_c, 0, 64, 106
1, 259781, Control_c, 0, 64, 111
1, 259787, Note_off_c, 0, 75, 58
1, 259800, Control_c, 0, 64, 116
1, 259808, Note_off_c, 0, 63, 36
1, 259814, Note_off_c, 0, 54, 60
1, 259836, Control_c, 0, 64, 122
1, 259869, Note_off_c, 0, 46, 51
1, 259869, Poly_aftertouch_c, 0, 46, 0
1, 259892, Control_c, 0, 64, 127
1, 260046, Note_on_c, 0, 75, 72
1, 260065, Note_on_c, 0, 63, 60
1, 260193, Note_off_c, 0, 75, 56
1, 260211, Note_off_c, 0, 63, 59
1, 260341, Control_c, 0, 64, 111
1, 260359, Control_c, 0, 64, 92
1, 260378, Control_c, 0, 64, 76
1, 260392, Note_on_c, 0, 74, 67
1, 260397, Control_c, 0, 64, 68
1, 260418, Note_on_c, 0, 62, 46
1, 260424, Note_on_c, 0, 34, 45
1, 260425, Note_on_c, 0, 46, 39
1, 260433, Control_c, 0, 64, 70
1, 260453, Control_c, 0, 64, 75
1, 260471, Control_c, 0, 64, 83
1, 260483, Note_off_c, 0, 62, 56
1, 260489, Control_c, 0, 64, 94
1, 260495, Note_off_c, 0, 74, 61
1, 260509, Control_c, 0, 64, 107
1, 260530, Control_c, 0, 64, 118
1, 260546, Control_c, 0, 64, 125
1, 260674, Note_off_c, 0, 46, 37
1, 260674, Poly_aftertouch_c, 0, 46, 0
1, 260748, Note_on_c, 0, 74, 84
1, 260780, Note_on_c, 0, 62, 63
1, 260804, Note_off_c, 0, 34, 31
1, 260865, Control_c, 0, 64, 121
1, 260902, Control_c, 0, 64, 116
1, 260940, Control_c, 0, 64, 111
1, 260957, Control_c, 0, 64, 107
1, 260977, Control_c, 0, 64, 102
1, 260997, Control_c, 0, 64, 97
1, 260998, Control_c, 0, 67, 9
1, 261014, Control_c, 0, 64, 92
1, 261033, Control_c, 0, 64, 87
1, 261051, Control_c, 0, 64, 81
1, 261052, Control_c, 0, 67, 13
1, 261071, Control_c, 0, 64, 74
1, 261089, Control_c, 0, 64, 65
1, 261091, Control_c, 0, 67, 19
1, 261106, Control_c, 0, 64, 57
1, 261108, Note_on_c, 0, 47, 50
1, 261108, Control_c, 0, 67, 23
1, 261126, Control_c, 0, 64, 45
1, 261127, Control_c, 0, 67, 28
1, 261130, Note_on_c, 0, 35, 52
1, 261146, Control_c, 0, 64, 24
1, 261146, Control_c, 0, 67, 35
1, 261163, Control_c, 0, 64, 0
1, 261164, Control_c, 0, 67, 42
1, 261182, Control_c, 0, 67, 50
1, 261201, Control_c, 0, 67, 59
1, 261220, Control_c, 0, 64, 13
1, 261221, Control_c, 0, 67, 67
1, 261239, Control_c, 0, 64, 31
1, 261240, Control_c, 0, 67, 76
1, 261256, Note_off_c, 0, 62, 61
1, 261256, Control_c, 0, 64, 48
1, 261257, Control_c, 0, 67, 86
1, 261276, Control_c, 0, 64, 63
1, 261277, Control_c, 0, 67, 94
1, 261295, Control_c, 0, 64, 74
1, 261297, Control_c, 0, 67, 101
1, 261307, Note_off_c, 0, 35, 59
1, 261313, Control_c, 0, 64, 83
1, 261332, Control_c, 0, 64, 91
1, 261351, Control_c, 0, 64, 99
1, 261370, Control_c, 0, 64, 104
1, 261390, Note_off_c, 0, 47, 59
1, 261390, Poly_aftertouch_c, 0, 47, 0
1, 261409, Control_c, 0, 64, 109
1, 261409, Control_c, 0, 67, 95
1, 261425, Control_c, 0, 67, 89
1, 261444, Control_c, 0, 67, 80
1, 261463, Control_c, 0, 67, 68
1, 261482, Control_c, 0, 67, 57
1, 261501, Control_c, 0, 67, 47
1, 261511, Note_on_c, 0, 75, 57
1, 261519, Control_c, 0, 67, 38
1, 261538, Control_c, 0, 67, 31
1, 261555, Note_on_c, 0, 63, 47
1, 261555, Control_c, 0, 67, 25
1, 261575, Control_c, 0, 67, 19
1, 261594, Control_c, 0, 64, 105
1, 261596, Control_c, 0, 67, 14
1, 261614, Control_c, 0, 64, 98
1, 261615, Control_c, 0, 67, 10
1, 261631, Control_c, 0, 64, 84
1, 261650, Control_c, 0, 64, 69
1, 261668, Control_c, 0, 64, 56
1, 261671, Note_off_c, 0, 74, 49
1, 261687, Control_c, 0, 64, 45
1, 261706, Control_c, 0, 64, 31
1, 261725, Control_c, 0, 64, 23
1, 261761, Control_c, 0, 64, 33
1, 261781, Control_c, 0, 64, 43
1, 261782, Control_c, 0, 67, 0
1, 261799, Control_c, 0, 64, 56
1, 261817, Note_on_c, 0, 54, 40
1, 261818, Control_c, 0, 64, 67
1, 261831, Note_on_c, 0, 47, 41
1, 261837, Control_c, 0, 64, 74
1, 261855, Control_c, 0, 64, 79
1, 261876, Control_c, 0, 64, 85
1, 261893, Control_c, 0, 64, 93
1, 261900, Note_off_c, 0, 63, 35
1, 261909, Note_off_c, 0, 75, 56
1, 261910, Control_c, 0, 64, 104
1, 261930, Control_c, 0, 64, 114
1, 261950, Control_c, 0, 64, 124
1, 261951, Note_off_c, 0, 54, 59
1, 261965, Note_off_c, 0, 47, 59
1, 261965, Poly_aftertouch_c, 0, 47, 0
1, 262149, Note_on_c, 0, 75, 79
1, 262165, Note_on_c, 0, 63, 58
1, 262254, Note_off_c, 0, 63, 60
1, 262435, Control_c, 0, 64, 109
1, 262453, Control_c, 0, 64, 83
1, 262462, Note_on_c, 0, 77, 73
1, 262471, Control_c, 0, 64, 59
1, 262477, Note_on_c, 0, 45, 61
1, 262482, Note_on_c, 0, 33, 60
1, 262490, Note_on_c, 0, 65, 61
1, 262491, Control_c, 0, 64, 42
1, 262510, Control_c, 0, 64, 30
1, 262533, Note_off_c, 0, 75, 49
1, 262548, Control_c, 0, 64, 42
1, 262566, Control_c, 0, 64, 55
1, 262575, Note_off_c, 0, 65, 62
1, 262584, Control_c, 0, 64, 71
1, 262588, Note_off_c, 0, 77, 61
1, 262604, Control_c, 0, 64, 85
1, 262623, Control_c, 0, 64, 100
1, 262640, Control_c, 0, 64, 115
1, 262660, Control_c, 0, 64, 122
1, 262690, Note_off_c, 0, 45, 53
1, 262698, Note_off_c, 0, 33, 54
1, 262715, Control_c, 0, 64, 126
1, 262830, Note_on_c, 0, 77, 82
1, 262858, Note_on_c, 0, 65, 68
1, 263090, Control_c, 0, 64, 116
1, 263108, Control_c, 0, 64, 99
1, 263127, Control_c, 0, 64, 74
1, 263145, Control_c, 0, 64, 50
1, 263164, Control_c, 0, 64, 0
1, 263175, Note_on_c, 0, 46, 62
1, 263190, Note_on_c, 0, 34, 55
1, 263208, Note_off_c, 0, 65, 52
1, 263277, Control_c, 0, 64, 30
1, 263295, Control_c, 0, 64, 44
1, 263314, Control_c, 0, 64, 56
1, 263334, Control_c, 0, 64, 65
1, 263335, Note_off_c, 0, 34, 58
1, 263351, Control_c, 0, 64, 72
1, 263370, Control_c, 0, 64, 75
1, 263407, Control_c, 0, 64, 77
1, 263433, Note_off_c, 0, 46, 60
1, 263433, Poly_aftertouch_c, 0, 46, 0
1, 263463, Control_c, 0, 64, 80
1, 263501, Control_c, 0, 64, 84
1, 263519, Control_c, 0, 64, 86
1, 263557, Control_c, 0, 64, 92
1, 263575, Control_c, 0, 64, 96
1, 263580, Note_on_c, 0, 75, 61
1, 263595, Control_c, 0, 64, 102
1, 263612, Control_c, 0, 64, 108
1, 263620, Note_on_c, 0, 63, 54
1, 263629, Control_c, 0, 64, 114
1, 263651, Control_c, 0, 64, 119
1, 263669, Control_c, 0, 64, 124
1, 263769, Note_off_c, 0, 77, 50
1, 263839, Note_on_c, 0, 73, 9
1, 263875, Note_on_c, 0, 54, 65
1, 263880, Note_on_c, 0, 46, 62
1, 263969, Note_off_c, 0, 54, 58
1, 263970, Note_off_c, 0, 75, 38
1, 263998, Note_off_c, 0, 63, 29
1, 263999, Note_off_c, 0, 73, 31
1, 263999, Poly_aftertouch_c, 0, 73, 0
1, 264010, Note_off_c, 0, 46, 55
1, 264010, Poly_aftertouch_c, 0, 46, 0
1, 264216, Note_on_c, 0, 75, 80
1, 264226, Note_on_c, 0, 63, 76
1, 264372, Note_off_c, 0, 75, 59
1, 264380, Note_off_c, 0, 63, 61
1, 264493, Control_c, 0, 64, 102
1, 264510, Control_c, 0, 64, 78
1, 264529, Control_c, 0, 64, 61
1, 264536, Note_on_c, 0, 74, 70
1, 264541, Note_on_c, 0, 46, 73
1, 264545, Note_on_c, 0, 34, 69
1, 264549, Control_c, 0, 64, 56
1, 264558, Note_on_c, 0, 62, 58
1, 264585, Control_c, 0, 64, 61
1, 264604, Control_c, 0, 64, 68
1, 264621, Note_off_c, 0, 46, 62
1, 264621, Poly_aftertouch_c, 0, 46, 0
1, 264622, Control_c, 0, 64, 76
1, 264623, Note_off_c, 0, 34, 61
1, 264642, Control_c, 0, 64, 85
1, 264660, Control_c, 0, 64, 95
1, 264661, Note_off_c, 0, 62, 54
1, 264671, Note_off_c, 0, 74, 58
1, 264678, Control_c, 0, 64, 105
1, 264698, Control_c, 0, 64, 113
1, 264716, Control_c, 0, 64, 118
1, 264772, Control_c, 0, 64, 123
1, 264847, Control_c, 0, 64, 127
1, 264916, Note_on_c, 0, 74, 80
1, 264942, Note_on_c, 0, 62, 63
1, 265183, Control_c, 0, 64, 121
1, 265222, Control_c, 0, 64, 116
1, 265258, Control_c, 0, 64, 109
1, 265276, Note_on_c, 0, 51, 78
1, 265276, Control_c, 0, 64, 102
1, 265295, Note_on_c, 0, 39, 66
1, 265296, Control_c, 0, 64, 92
1, 265314, Control_c, 0, 64, 82
1, 265333, Control_c, 0, 64, 73
1, 265352, Control_c, 0, 64, 64
1, 265372, Control_c, 0, 64, 53
1, 265389, Control_c, 0, 64, 32
1, 265408, Control_c, 0, 64, 0
1, 265464, Control_c, 0, 67, 8
1, 265471, Note_off_c, 0, 62, 58
1, 265520, Control_c, 0, 67, 14
1, 265540, Control_c, 0, 64, 20
1, 265559, Control_c, 0, 64, 36
1, 265560, Control_c, 0, 67, 21
1, 265577, Control_c, 0, 64, 48
1, 265577, Control_c, 0, 67, 26
1, 265595, Control_c, 0, 64, 58
1, 265596, Control_c, 0, 67, 34
1, 265613, Control_c, 0, 64, 66
1, 265615, Control_c, 0, 67, 40
1, 265632, Control_c, 0, 64, 70
1, 265651, Control_c, 0, 64, 72
1, 265653, Control_c, 0, 67, 46
1, 265669, Control_c, 0, 64, 74
1, 265689, Control_c, 0, 64, 77
1, 265690, Control_c, 0, 67, 52
1, 265708, Control_c, 0, 64, 80
1, 265726, Control_c, 0, 64, 83
1, 265727, Control_c, 0, 67, 57
1, 265746, Control_c, 0, 64, 88
1, 265764, Control_c, 0, 64, 94
1, 265765, Control_c, 0, 67, 63
1, 265766, Note_on_c, 0, 75, 69
1, 265782, Control_c, 0, 64, 101
1, 265787, Note_off_c, 0, 74, 50
1, 265789, Note_on_c, 0, 63, 55
1, 265801, Control_c, 0, 64, 107
1, 265802, Control_c, 0, 67, 71
1, 265819, Control_c, 0, 64, 112
1, 265839, Control_c, 0, 64, 117
1, 265840, Control_c, 0, 67, 76
1, 265844, Note_off_c, 0, 51, 46
1, 265844, Poly_aftertouch_c, 0, 51, 0
1, 265857, Control_c, 0, 64, 121
1, 265865, Note_off_c, 0, 75, 58
1, 265896, Control_c, 0, 64, 127
1, 265903, Note_off_c, 0, 63, 60
1, 266138, Control_c, 0, 64, 123
1, 266148, Note_on_c, 0, 49, 63
1, 266175, Control_c, 0, 64, 117
1, 266177, Note_on_c, 0, 37, 53
1, 266194, Control_c, 0, 64, 110
1, 266212, Control_c, 0, 64, 99
1, 266231, Control_c, 0, 64, 83
1, 266250, Control_c, 0, 64, 69
1, 266268, Control_c, 0, 64, 59
1, 266286, Control_c, 0, 64, 53
1, 266306, Control_c, 0, 64, 50
1, 266307, Control_c, 0, 67, 71
1, 266343, Control_c, 0, 67, 67
1, 266357, Note_off_c, 0, 39, 50
1, 266362, Control_c, 0, 64, 55
1, 266381, Control_c, 0, 64, 59
1, 266382, Control_c, 0, 67, 60
1, 266399, Control_c, 0, 64, 65
1, 266401, Control_c, 0, 67, 56
1, 266419, Control_c, 0, 64, 69
1, 266421, Control_c, 0, 67, 51
1, 266438, Control_c, 0, 64, 72
1, 266439, Control_c, 0, 67, 45
1, 266455, Control_c, 0, 64, 76
1, 266456, Control_c, 0, 67, 40
1, 266474, Control_c, 0, 64, 80
1, 266476, Control_c, 0, 67, 35
1, 266484, Note_on_c, 0, 63, 55
1, 266493, Control_c, 0, 64, 84
1, 266510, Control_c, 0, 64, 90
1, 266511, Note_on_c, 0, 51, 45
1, 266511, Control_c, 0, 67, 28
1, 266529, Control_c, 0, 64, 96
1, 266549, Control_c, 0, 64, 102
1, 266550, Control_c, 0, 67, 22
1, 266568, Control_c, 0, 64, 110
1, 266586, Control_c, 0, 64, 116
1, 266588, Note_off_c, 0, 49, 56
1, 266588, Poly_aftertouch_c, 0, 49, 0
1, 266605, Control_c, 0, 64, 120
1, 266630, Note_off_c, 0, 63, 53
1, 266643, Note_off_c, 0, 51, 49
1, 266643, Poly_aftertouch_c, 0, 51, 0
1, 266754, Control_c, 0, 67, 27
1, 266810, Control_c, 0, 67, 31
1, 266848, Control_c, 0, 64, 113
1, 266849, Control_c, 0, 67, 37
1, 266866, Control_c, 0, 64, 108
1, 266876, Note_on_c, 0, 63, 49
1, 266882, Note_on_c, 0, 51, 37
1, 266885, Control_c, 0, 64, 97
1, 266886, Control_c, 0, 67, 43
1, 266893, Note_on_c, 0, 46, 40
1, 266905, Control_c, 0, 64, 83
1, 266913, Note_on_c, 0, 34, 42
1, 266921, Control_c, 0, 64, 68
1, 266942, Control_c, 0, 64, 55
1, 266943, Control_c, 0, 67, 47
1, 266960, Control_c, 0, 64, 40
1, 266981, Control_c, 0, 64, 26
1, 267035, Control_c, 0, 64, 36
1, 267037, Note_off_c, 0, 37, 61
1, 267055, Control_c, 0, 64, 47
1, 267072, Control_c, 0, 64, 58
1, 267092, Control_c, 0, 64, 68
1, 267095, Note_off_c, 0, 63, 54
1, 267110, Control_c, 0, 64, 73
1, 267115, Note_off_c, 0, 51, 39
1, 267115, Poly_aftertouch_c, 0, 51, 0
1, 267129, Control_c, 0, 64, 75
1, 267166, Control_c, 0, 64, 78
1, 267202, Control_c, 0, 64, 81
1, 267241, Control_c, 0, 64, 84
1, 267277, Control_c, 0, 64, 86
1, 267315, Note_on_c, 0, 63, 32
1, 267316, Note_off_c, 0, 46, 38
1, 267316, Poly_aftertouch_c, 0, 46, 0
1, 267348, Note_on_c, 0, 51, 26
1, 267350, Control_c, 0, 67, 42
1, 267391, Control_c, 0, 67, 38
1, 267427, Control_c, 0, 67, 33
1, 267484, Control_c, 0, 67, 28
1, 267532, Note_off_c, 0, 51, 42
1, 267532, Poly_aftertouch_c, 0, 51, 0
1, 267727, Control_c, 0, 67, 32
1, 267783, Control_c, 0, 64, 83
1, 267794, Note_on_c, 0, 32, 58
1, 267821, Control_c, 0, 64, 77
1, 267824, Control_c, 0, 67, 38
1, 267839, Control_c, 0, 64, 68
1, 267858, Control_c, 0, 64, 57
1, 267859, Control_c, 0, 67, 44
1, 267860, Note_off_c, 0, 34, 57
1, 267876, Control_c, 0, 64, 44
1, 267895, Control_c, 0, 64, 31
1, 267897, Control_c, 0, 67, 50
1, 267913, Control_c, 0, 67, 54
1, 267932, Control_c, 0, 67, 59
1, 267952, Control_c, 0, 64, 38
1, 267953, Control_c, 0, 67, 64
1, 267971, Control_c, 0, 64, 48
1, 267972, Control_c, 0, 67, 69
1, 267989, Control_c, 0, 64, 60
1, 267990, Control_c, 0, 67, 75
1, 268007, Control_c, 0, 64, 70
1, 268008, Control_c, 0, 67, 82
1, 268018, Note_off_c, 0, 32, 56
1, 268025, Control_c, 0, 64, 75
1, 268025, Control_c, 0, 67, 91
1, 268045, Control_c, 0, 64, 78
1, 268047, Control_c, 0, 67, 104
1, 268064, Control_c, 0, 64, 80
1, 268064, Control_c, 0, 67, 115
1, 268082, Control_c, 0, 67, 123
1, 268095, Poly_aftertouch_c, 0, 33, 0
1, 268101, Control_c, 0, 67, 127
1, 268288, Control_c, 0, 64, 78
1, 268345, Control_c, 0, 64, 76
1, 268361, Note_on_c, 0, 68, 41
1, 268395, Note_on_c, 0, 56, 35
1, 268398, Control_c, 0, 64, 74
1, 268457, Control_c, 0, 64, 71
1, 268484, Note_off_c, 0, 63, 52
1, 268550, Control_c, 0, 64, 69
1, 268644, Control_c, 0, 64, 68
1, 268679, Control_c, 0, 64, 66
1, 268699, Control_c, 0, 64, 64
1, 268718, Control_c, 0, 64, 61
1, 268736, Control_c, 0, 64, 59
1, 268756, Control_c, 0, 64, 57
1, 268758, Note_on_c, 0, 47, 35
1, 268782, Note_on_c, 0, 44, 35
1, 268811, Control_c, 0, 64, 60
1, 268830, Control_c, 0, 64, 63
1, 268849, Control_c, 0, 64, 67
1, 268868, Control_c, 0, 64, 70
1, 268885, Control_c, 0, 64, 74
1, 268905, Control_c, 0, 64, 78
1, 268906, Control_c, 0, 67, 121
1, 268924, Control_c, 0, 64, 83
1, 268925, Control_c, 0, 67, 117
1, 268940, Note_off_c, 0, 56, 34
1, 268940, Poly_aftertouch_c, 0, 56, 0
1, 268941, Control_c, 0, 64, 87
1, 268944, Note_off_c, 0, 68, 38
1, 268944, Control_c, 0, 67, 112
1, 268960, Control_c, 0, 67, 106
1, 268981, Control_c, 0, 64, 94
1, 268982, Control_c, 0, 67, 101
1, 268999, Control_c, 0, 67, 95
1, 269017, Control_c, 0, 64, 102
1, 269018, Control_c, 0, 67, 88
1, 269037, Control_c, 0, 67, 79
1, 269054, Control_c, 0, 64, 108
1, 269057, Control_c, 0, 67, 71
1, 269073, Control_c, 0, 67, 65
1, 269091, Control_c, 0, 64, 112
1, 269092, Control_c, 0, 67, 59
1, 269098, Note_on_c, 0, 68, 48
1, 269111, Control_c, 0, 67, 55
1, 269127, Note_on_c, 0, 56, 41
1, 269130, Control_c, 0, 67, 51
1, 269167, Control_c, 0, 64, 116
1, 269168, Control_c, 0, 67, 44
1, 269197, Note_off_c, 0, 44, 27
1, 269204, Control_c, 0, 67, 37
1, 269234, Note_off_c, 0, 47, 30
1, 269234, Poly_aftertouch_c, 0, 47, 0
1, 269242, Control_c, 0, 64, 120
1, 269243, Control_c, 0, 67, 31
1, 269297, Control_c, 0, 64, 124
1, 269317, Control_c, 0, 67, 27
1, 269391, Control_c, 0, 67, 22
1, 269457, Note_on_c, 0, 47, 46
1, 269480, Note_on_c, 0, 44, 44
1, 269483, Control_c, 0, 67, 18
1, 269562, Note_off_c, 0, 68, 34
1, 269574, Note_off_c, 0, 44, 47
1, 269593, Note_off_c, 0, 56, 29
1, 269593, Poly_aftertouch_c, 0, 56, 0
1, 269598, Control_c, 0, 67, 14
1, 269709, Control_c, 0, 67, 10
1, 269767, Note_off_c, 0, 47, 26
1, 269767, Poly_aftertouch_c, 0, 47, 0
1, 269847, Note_on_c, 0, 68, 58
1, 269867, Note_on_c, 0, 56, 49
1, 270176, Control_c, 0, 64, 120
1, 270196, Control_c, 0, 64, 110
1, 270214, Control_c, 0, 64, 95
1, 270230, Note_on_c, 0, 34, 70
1, 270232, Control_c, 0, 64, 79
1, 270252, Control_c, 0, 64, 65
1, 270270, Control_c, 0, 64, 58
1, 270307, Control_c, 0, 64, 60
1, 270326, Control_c, 0, 64, 66
1, 270345, Control_c, 0, 64, 75
1, 270363, Control_c, 0, 64, 84
1, 270378, Note_off_c, 0, 34, 58
1, 270380, Control_c, 0, 64, 93
1, 270401, Control_c, 0, 64, 101
1, 270419, Control_c, 0, 64, 105
1, 270453, Note_off_c, 0, 56, 38
1, 270453, Poly_aftertouch_c, 0, 56, 0
1, 270588, Control_c, 0, 64, 101
1, 270654, Note_on_c, 0, 67, 53
1, 270662, Control_c, 0, 67, 14
1, 270681, Control_c, 0, 64, 97
1, 270695, Note_on_c, 0, 55, 37
1, 270719, Control_c, 0, 64, 93
1, 270755, Control_c, 0, 64, 85
1, 270774, Control_c, 0, 64, 80
1, 270794, Control_c, 0, 64, 76
1, 270812, Control_c, 0, 64, 73
1, 270818, Poly_aftertouch_c, 0, 57, 0
1, 270830, Control_c, 0, 64, 70
1, 270844, Note_off_c, 0, 68, 36
1, 270848, Control_c, 0, 64, 68
1, 270869, Control_c, 0, 64, 64
1, 270886, Control_c, 0, 64, 60
1, 270926, Control_c, 0, 64, 58
1, 270943, Control_c, 0, 64, 60
1, 270961, Control_c, 0, 64, 62
1, 270981, Control_c, 0, 64, 65
1, 270999, Control_c, 0, 64, 69
1, 271015, Note_on_c, 0, 49, 46
1, 271018, Control_c, 0, 64, 73
1, 271030, Note_on_c, 0, 46, 43
1, 271035, Control_c, 0, 64, 76
1, 271055, Control_c, 0, 64, 80
1, 271076, Control_c, 0, 64, 83
1, 271092, Control_c, 0, 64, 87
1, 271111, Control_c, 0, 64, 91
1, 271135, Note_off_c, 0, 67, 35
1, 271135, Poly_aftertouch_c, 0, 67, 0
1, 271144, Note_off_c, 0, 55, 32
1, 271148, Control_c, 0, 64, 98
1, 271186, Control_c, 0, 64, 104
1, 271223, Control_c, 0, 64, 110
1, 271261, Control_c, 0, 64, 116
1, 271297, Control_c, 0, 64, 122
1, 271336, Control_c, 0, 64, 127
1, 271337, Control_c, 0, 67, 10
1, 271349, Note_on_c, 0, 67, 57
1, 271367, Note_on_c, 0, 55, 45
1, 271400, Note_off_c, 0, 46, 27
1, 271400, Poly_aftertouch_c, 0, 46, 0
1, 271425, Note_off_c, 0, 49, 22
1, 271425, Poly_aftertouch_c, 0, 49, 0
1, 271712, Note_on_c, 0, 49, 55
1, 271726, Note_on_c, 0, 46, 51
1, 271781, Note_off_c, 0, 55, 26
1, 271808, Note_off_c, 0, 67, 32
1, 271808, Poly_aftertouch_c, 0, 67, 0
1, 271833, Note_off_c, 0, 49, 49
1, 271833, Poly_aftertouch_c, 0, 49, 0
1, 271904, Note_off_c, 0, 46, 51
1, 271904, Poly_aftertouch_c, 0, 46, 0
1, 272064, Note_on_c, 0, 67, 66
1, 272091, Note_on_c, 0, 55, 56
1, 272364, Control_c, 0, 64, 115
1, 272383, Control_c, 0, 64, 97
1, 272402, Control_c, 0, 64, 78
1, 272420, Control_c, 0, 64, 64
1, 272429, Note_on_c, 0, 35, 79
1, 272439, Control_c, 0, 64, 58
1, 272495, Control_c, 0, 64, 62
1, 272496, Control_c, 0, 67, 0
1, 272505, Note_off_c, 0, 55, 49
1, 272513, Control_c, 0, 64, 69
1, 272532, Control_c, 0, 64, 78
1, 272552, Control_c, 0, 64, 88
1, 272570, Control_c, 0, 64, 97
1, 272588, Control_c, 0, 64, 106
1, 272606, Note_off_c, 0, 35, 55
1, 272607, Control_c, 0, 64, 113
1, 272626, Control_c, 0, 64, 119
1, 272813, Control_c, 0, 64, 114
1, 272835, Note_on_c, 0, 68, 68
1, 272866, Note_on_c, 0, 56, 54
1, 272867, Control_c, 0, 64, 109
1, 272906, Control_c, 0, 64, 104
1, 272943, Control_c, 0, 64, 99
1, 272981, Control_c, 0, 64, 94
1, 273018, Control_c, 0, 64, 90
1, 273039, Note_off_c, 0, 67, 57
1, 273039, Poly_aftertouch_c, 0, 67, 0
1, 273055, Control_c, 0, 64, 86
1, 273075, Control_c, 0, 64, 83
1, 273093, Control_c, 0, 64, 79
1, 273112, Control_c, 0, 64, 75
1, 273131, Control_c, 0, 64, 70
1, 273149, Control_c, 0, 64, 66
1, 273168, Control_c, 0, 64, 61
1, 273179, Note_on_c, 0, 51, 57
1, 273187, Control_c, 0, 64, 58
1, 273196, Note_on_c, 0, 47, 53
1, 273261, Control_c, 0, 64, 63
1, 273281, Control_c, 0, 64, 69
1, 273299, Control_c, 0, 64, 77
1, 273317, Control_c, 0, 64, 85
1, 273338, Control_c, 0, 64, 97
1, 273355, Control_c, 0, 64, 110
1, 273374, Control_c, 0, 64, 124
1, 273394, Note_off_c, 0, 56, 51
1, 273394, Poly_aftertouch_c, 0, 56, 0
1, 273414, Note_off_c, 0, 68, 59
1, 273525, Note_on_c, 0, 68, 78
1, 273545, Note_on_c, 0, 56, 59
1, 273589, Poly_aftertouch_c, 0, 63, 127
1, 273616, Note_off_c, 0, 51, 37
1, 273616, Poly_aftertouch_c, 0, 51, 0
1, 273638, Note_off_c, 0, 47, 29
1, 273638, Poly_aftertouch_c, 0, 47, 0
1, 273870, Note_on_c, 0, 51, 65
1, 273882, Note_on_c, 0, 47, 60
1, 273985, Note_off_c, 0, 51, 57
1, 273985, Poly_aftertouch_c, 0, 51, 0
1, 274027, Note_off_c, 0, 47, 46
1, 274027, Poly_aftertouch_c, 0, 47, 0
1, 274118, Note_off_c, 0, 68, 53
1, 274131, Note_off_c, 0, 56, 32
1, 274131, Poly_aftertouch_c, 0, 56, 0
1, 274255, Note_on_c, 0, 68, 76
1, 274265, Note_on_c, 0, 56, 62
1, 274570, Control_c, 0, 64, 111
1, 274589, Control_c, 0, 64, 83
1, 274601, Note_on_c, 0, 37, 81
1, 274608, Control_c, 0, 64, 60
1, 274626, Control_c, 0, 64, 48
1, 274645, Control_c, 0, 64, 44
1, 274665, Control_c, 0, 64, 49
1, 274669, Note_off_c, 0, 56, 36
1, 274669, Poly_aftertouch_c, 0, 56, 0
1, 274682, Control_c, 0, 64, 60
1, 274702, Control_c, 0, 64, 75
1, 274719, Control_c, 0, 64, 90
1, 274733, Note_off_c, 0, 37, 58
1, 274738, Control_c, 0, 64, 109
1, 274757, Control_c, 0, 64, 124
1, 274952, Poly_aftertouch_c, 0, 66, 127
1, 274993, Note_on_c, 0, 69, 80
1, 275023, Note_on_c, 0, 57, 63
1, 275107, Poly_aftertouch_c, 0, 66, 0
1, 275111, Note_off_c, 0, 68, 38
1, 275172, Poly_aftertouch_c, 0, 63, 0
1, 275261, Control_c, 0, 64, 119
1, 275281, Control_c, 0, 64, 114
1, 275301, Control_c, 0, 64, 103
1, 275318, Control_c, 0, 64, 84
1, 275335, Note_on_c, 0, 52, 70
1, 275338, Control_c, 0, 64, 64
1, 275352, Note_on_c, 0, 49, 62
1, 275355, Control_c, 0, 64, 49
1, 275375, Control_c, 0, 64, 37
1, 275393, Control_c, 0, 64, 33
1, 275430, Control_c, 0, 64, 44
1, 275449, Control_c, 0, 64, 56
1, 275468, Control_c, 0, 64, 69
1, 275487, Control_c, 0, 64, 79
1, 275507, Control_c, 0, 64, 88
1, 275524, Control_c, 0, 64, 99
1, 275542, Control_c, 0, 64, 110
1, 275562, Control_c, 0, 64, 119
1, 275580, Control_c, 0, 64, 126
1, 275595, Note_off_c, 0, 69, 50
1, 275595, Poly_aftertouch_c, 0, 69, 0
1, 275606, Note_off_c, 0, 57, 26
1, 275698, Note_on_c, 0, 69, 81
1, 275728, Note_on_c, 0, 57, 67
1, 275790, Note_off_c, 0, 52, 31
1, 275818, Note_off_c, 0, 49, 26
1, 275818, Poly_aftertouch_c, 0, 49, 0
1, 276045, Note_on_c, 0, 52, 78
1, 276064, Note_on_c, 0, 49, 70
1, 276209, Note_off_c, 0, 49, 59
1, 276209, Poly_aftertouch_c, 0, 49, 0
1, 276267, Note_off_c, 0, 52, 50
1, 276280, Note_off_c, 0, 57, 22
1, 276281, Note_off_c, 0, 69, 44
1, 276281, Poly_aftertouch_c, 0, 69, 0
1, 276408, Note_on_c, 0, 69, 88
1, 276427, Note_on_c, 0, 57, 78
1, 276739, Note_off_c, 0, 57, 33
1, 276756, Control_c, 0, 64, 103
1, 276777, Note_on_c, 0, 39, 93
1, 276778, Control_c, 0, 64, 69
1, 276797, Control_c, 0, 64, 29
1, 276804, Poly_aftertouch_c, 0, 68, 127
1, 276814, Control_c, 0, 64, 0
1, 276870, Control_c, 0, 64, 36
1, 276889, Control_c, 0, 64, 64
1, 276907, Note_off_c, 0, 39, 60
1, 276907, Control_c, 0, 64, 88
1, 276927, Control_c, 0, 64, 113
1, 276945, Control_c, 0, 64, 127
1, 277140, Note_on_c, 0, 72, 90
1, 277165, Note_on_c, 0, 60, 72
1, 277188, Poly_aftertouch_c, 0, 68, 0
1, 277208, Note_off_c, 0, 69, 53
1, 277208, Poly_aftertouch_c, 0, 69, 0
1, 277487, Control_c, 0, 64, 113
1, 277499, Note_on_c, 0, 57, 87
1, 277508, Control_c, 0, 64, 83
1, 277512, Note_on_c, 0, 51, 72
1, 277513, Note_on_c, 0, 54, 72
1, 277526, Control_c, 0, 64, 53
1, 277544, Control_c, 0, 64, 17
1, 277562, Control_c, 0, 64, 0
1, 277599, Control_c, 0, 64, 32
1, 277619, Control_c, 0, 64, 56
1, 277638, Control_c, 0, 64, 77
1, 277657, Control_c, 0, 64, 95
1, 277674, Control_c, 0, 64, 115
1, 277693, Control_c, 0, 64, 127
1, 277741, Note_off_c, 0, 72, 57
1, 277745, Note_off_c, 0, 60, 34
1, 277797, Note_on_c, 0, 68, 21
1, 277828, Note_off_c, 0, 57, 53
1, 277840, Note_on_c, 0, 72, 93
1, 277857, Note_on_c, 0, 60, 84
1, 277896, Note_off_c, 0, 68, 46
1, 277900, Note_off_c, 0, 51, 34
1, 277900, Poly_aftertouch_c, 0, 51, 0
1, 277925, Note_off_c, 0, 54, 35
1, 278170, Note_on_c, 0, 57, 89
1, 278178, Note_on_c, 0, 54, 77
1, 278182, Note_on_c, 0, 51, 79
1, 278279, Note_off_c, 0, 57, 64
1, 278335, Note_off_c, 0, 54, 60
1, 278368, Note_off_c, 0, 51, 60
1, 278368, Poly_aftertouch_c, 0, 51, 0
1, 278411, Note_off_c, 0, 72, 53
1, 278420, Note_off_c, 0, 60, 35
1, 278494, Note_on_c, 0, 68, 18
1, 278518, Note_on_c, 0, 72, 99
1, 278523, Note_on_c, 0, 60, 95
1, 278560, Note_off_c, 0, 68, 54
1, 278885, Note_on_c, 0, 40, 101
1, 278889, Control_c, 0, 64, 103
1, 278909, Control_c, 0, 64, 47
1, 278927, Control_c, 0, 64, 0
1, 278940, Note_off_c, 0, 60, 56
1, 278966, Control_c, 0, 64, 32
1, 278983, Control_c, 0, 64, 81
1, 278991, Note_off_c, 0, 40, 61
1, 279002, Control_c, 0, 64, 127
1, 279236, Note_on_c, 0, 73, 98
1, 279237, Note_on_c, 0, 61, 97
1, 279262, Note_off_c, 0, 72, 62
1, 279553, Note_on_c, 0, 52, 89
1, 279554, Note_on_c, 0, 56, 98
1, 279596, Note_off_c, 0, 73, 47
1, 279596, Poly_aftertouch_c, 0, 73, 0
1, 279659, Note_off_c, 0, 56, 62
1, 279659, Poly_aftertouch_c, 0, 56, 0
1, 279669, Note_off_c, 0, 52, 60
1, 279683, Note_off_c, 0, 61, 26
1, 279771, Poly_aftertouch_c, 0, 68, 127
1, 279933, Note_on_c, 0, 73, 98
1, 279936, Note_on_c, 0, 61, 101
1, 280000, Note_on_c, 0, 71, 8
1, 280022, Poly_aftertouch_c, 0, 68, 0
1, 280090, Note_off_c, 0, 71, 44
1, 280215, Note_off_c, 0, 61, 54
1, 280349, Note_on_c, 0, 59, 98
1, 280356, Poly_aftertouch_c, 0, 68, 127
1, 280362, Note_on_c, 0, 56, 95
1, 280364, Note_on_c, 0, 53, 84
1, 280425, Poly_aftertouch_c, 0, 52, 0
1, 280462, Control_c, 0, 64, 104
1, 280479, Control_c, 0, 64, 70
1, 280497, Control_c, 0, 64, 55
1, 280536, Control_c, 0, 64, 68
1, 280554, Control_c, 0, 64, 87
1, 280572, Control_c, 0, 64, 115
1, 280592, Control_c, 0, 64, 127
1, 280769, Note_off_c, 0, 73, 53
1, 280769, Poly_aftertouch_c, 0, 73, 0
1, 280810, Note_on_c, 0, 74, 100
1, 280813, Note_on_c, 0, 62, 98
1, 280823, Note_on_c, 0, 71, 40
1, 280828, Note_on_c, 0, 73, 65
1, 280842, Note_on_c, 0, 72, 33
1, 280884, Poly_aftertouch_c, 0, 68, 0
1, 280886, Note_off_c, 0, 72, 46
1, 280904, Note_off_c, 0, 71, 44
1, 280958, Note_off_c, 0, 73, 58
1, 280958, Poly_aftertouch_c, 0, 73, 0
1, 281023, Note_off_c, 0, 56, 54
1, 281023, Poly_aftertouch_c, 0, 56, 0
1, 281024, Note_off_c, 0, 59, 49
1, 281149, Note_off_c, 0, 53, 56
1, 281149, Poly_aftertouch_c, 0, 53, 0
1, 281181, Note_on_c, 0, 59, 99
1, 281186, Note_on_c, 0, 51, 91
1, 281187, Note_on_c, 0, 56, 94
1, 281209, Control_c, 0, 64, 99
1, 281226, Control_c, 0, 64, 64
1, 281247, Control_c, 0, 64, 29
1, 281265, Control_c, 0, 64, 0
1, 281302, Control_c, 0, 64, 20
1, 281321, Control_c, 0, 64, 39
1, 281324, Note_off_c, 0, 59, 60
1, 281340, Control_c, 0, 64, 56
1, 281358, Control_c, 0, 64, 71
1, 281373, Note_off_c, 0, 62, 58
1, 281377, Control_c, 0, 64, 80
1, 281383, Note_off_c, 0, 56, 60
1, 281383, Poly_aftertouch_c, 0, 56, 0
1, 281397, Control_c, 0, 64, 86
1, 281414, Control_c, 0, 64, 90
1, 281425, Note_off_c, 0, 51, 54
1, 281425, Poly_aftertouch_c, 0, 51, 0
1, 281432, Control_c, 0, 64, 94
1, 281452, Control_c, 0, 64, 101
1, 281470, Control_c, 0, 64, 108
1, 281490, Control_c, 0, 64, 115
1, 281507, Control_c, 0, 64, 119
1, 281527, Control_c, 0, 64, 124
1, 281606, Note_on_c, 0, 75, 97
1, 281609, Note_on_c, 0, 63, 97
1, 281640, Note_off_c, 0, 74, 59
1, 281946, Note_on_c, 0, 51, 99
1, 281952, Note_on_c, 0, 47, 91
1, 281953, Note_on_c, 0, 44, 90
1, 281956, Note_on_c, 0, 39, 88
1, 281975, Control_c, 0, 64, 101
1, 281993, Control_c, 0, 64, 71
1, 282013, Control_c, 0, 64, 48
1, 282031, Control_c, 0, 64, 31
1, 282049, Control_c, 0, 64, 21
1, 282052, Note_off_c, 0, 39, 60
1, 282088, Control_c, 0, 64, 17
1, 282095, Note_off_c, 0, 51, 52
1, 282095, Poly_aftertouch_c, 0, 51, 0
1, 282106, Control_c, 0, 64, 13
1, 282109, Note_off_c, 0, 75, 36
1, 282125, Control_c, 0, 64, 0
1, 282150, Note_off_c, 0, 47, 57
1, 282150, Poly_aftertouch_c, 0, 47, 0
1, 282161, Note_off_c, 0, 63, 51
1, 282208, Note_off_c, 0, 44, 53
1, 282365, Note_on_c, 0, 75, 93
1, 282374, Note_on_c, 0, 63, 87
1, 282507, Poly_aftertouch_c, 0, 73, 0
1, 282630, Control_c, 0, 64, 21
1, 282648, Control_c, 0, 64, 37
1, 282666, Control_c, 0, 64, 56
1, 282686, Control_c, 0, 64, 77
1, 282704, Control_c, 0, 64, 101
1, 282705, Note_on_c, 0, 51, 91
1, 282711, Note_on_c, 0, 46, 83
1, 282717, Note_on_c, 0, 43, 80
1, 282717, Note_on_c, 0, 39, 82
1, 282721, Control_c, 0, 64, 127
1, 282837, Note_off_c, 0, 51, 60
1, 282837, Poly_aftertouch_c, 0, 51, 0
1, 282842, Note_off_c, 0, 63, 53
1, 282854, Note_off_c, 0, 75, 58
1, 282856, Note_off_c, 0, 39, 60
1, 282880, Poly_aftertouch_c, 0, 73, 0
1, 282883, Note_off_c, 0, 46, 59
1, 282883, Poly_aftertouch_c, 0, 46, 0
1, 282891, Note_off_c, 0, 43, 61
1, 282910, Control_c, 0, 67, 9
1, 282966, Control_c, 0, 64, 107
1, 282985, Control_c, 0, 64, 89
1, 282986, Control_c, 0, 67, 13
1, 283003, Control_c, 0, 64, 74
1, 283022, Control_c, 0, 64, 64
1, 283042, Control_c, 0, 64, 58
1, 283059, Control_c, 0, 64, 51
1, 283078, Control_c, 0, 64, 40
1, 283097, Control_c, 0, 64, 21
1, 283115, Control_c, 0, 64, 0
1, 283143, Note_on_c, 0, 75, 80
1, 283168, Note_on_c, 0, 63, 69
1, 283172, Control_c, 0, 67, 17
1, 283340, Control_c, 0, 67, 24
1, 283361, Control_c, 0, 67, 30
1, 283377, Control_c, 0, 67, 35
1, 283396, Control_c, 0, 67, 40
1, 283415, Control_c, 0, 67, 44
1, 283434, Control_c, 0, 64, 14
1, 283452, Control_c, 0, 64, 23
1, 283453, Control_c, 0, 67, 50
1, 283471, Control_c, 0, 64, 29
1, 283508, Control_c, 0, 64, 35
1, 283527, Control_c, 0, 64, 41
1, 283546, Control_c, 0, 64, 46
1, 283563, Control_c, 0, 64, 50
1, 283566, Note_on_c, 0, 68, 67
1, 283582, Note_on_c, 0, 56, 57
1, 283582, Control_c, 0, 67, 44
1, 283588, Note_on_c, 0, 44, 55
1, 283591, Note_off_c, 0, 63, 53
1, 283601, Control_c, 0, 64, 54
1, 283603, Control_c, 0, 67, 38
1, 283621, Control_c, 0, 64, 57
1, 283622, Control_c, 0, 67, 28
1, 283640, Control_c, 0, 64, 63
1, 283641, Control_c, 0, 67, 16
1, 283657, Control_c, 0, 64, 66
1, 283695, Note_off_c, 0, 56, 61
1, 283695, Poly_aftertouch_c, 0, 56, 0
1, 283695, Control_c, 0, 67, 0
1, 283726, Note_off_c, 0, 75, 55
1, 283752, Control_c, 0, 64, 65
1, 283770, Control_c, 0, 64, 63
1, 283789, Control_c, 0, 64, 60
1, 283808, Control_c, 0, 64, 56
1, 283827, Control_c, 0, 64, 51
1, 283828, Note_off_c, 0, 44, 59
1, 283844, Control_c, 0, 64, 43
1, 283863, Control_c, 0, 64, 36
1, 283883, Control_c, 0, 64, 26
1, 283885, Control_c, 0, 67, 9
1, 283901, Control_c, 0, 64, 12
1, 283919, Control_c, 0, 64, 0
1, 283938, Control_c, 0, 67, 13
1, 284069, Control_c, 0, 67, 17
1, 284125, Control_c, 0, 67, 21
1, 284163, Control_c, 0, 67, 26
1, 284219, Control_c, 0, 67, 31
1, 284256, Control_c, 0, 67, 37
1, 284294, Control_c, 0, 67, 41
1, 284349, Control_c, 0, 67, 45
1, 284386, Control_c, 0, 67, 49
1, 284433, Note_on_c, 0, 32, 41
1, 284480, Control_c, 0, 64, 11
1, 284500, Control_c, 0, 64, 29
1, 284501, Control_c, 0, 67, 44
1, 284517, Control_c, 0, 64, 45
1, 284518, Control_c, 0, 67, 38
1, 284529, Note_off_c, 0, 68, 55
1, 284536, Control_c, 0, 64, 59
1, 284536, Control_c, 0, 67, 28
1, 284556, Control_c, 0, 64, 68
1, 284557, Control_c, 0, 67, 18
1, 284575, Control_c, 0, 64, 75
1, 284576, Control_c, 0, 67, 8
1, 284592, Control_c, 0, 64, 80
1, 284612, Control_c, 0, 64, 84
1, 284627, Note_off_c, 0, 32, 49
1, 284629, Control_c, 0, 64, 88
1, 284798, Control_c, 0, 64, 86
1, 284818, Control_c, 0, 67, 12
1, 284837, Control_c, 0, 64, 82
1, 284855, Control_c, 0, 64, 79
1, 284873, Control_c, 0, 64, 76
1, 284892, Control_c, 0, 64, 73
1, 284912, Control_c, 0, 64, 70
1, 284929, Control_c, 0, 64, 68
1, 284930, Control_c, 0, 67, 16
1, 284948, Control_c, 0, 64, 66
1, 284986, Control_c, 0, 64, 65
1, 284988, Control_c, 0, 67, 20
1, 285023, Control_c, 0, 64, 63
1, 285042, Control_c, 0, 64, 62
1, 285079, Control_c, 0, 64, 61
1, 285117, Control_c, 0, 64, 60
1, 285173, Control_c, 0, 64, 58
1, 285864, Control_c, 0, 64, 56
1, 285877, Note_on_c, 0, 63, 42
1, 285957, Control_c, 0, 67, 24
1, 285995, Control_c, 0, 67, 31
1, 286033, Control_c, 0, 67, 38
1, 286053, Control_c, 0, 67, 43
1, 286069, Control_c, 0, 67, 47
1, 286109, Control_c, 0, 67, 54
1, 286126, Control_c, 0, 64, 54
1, 286144, Control_c, 0, 67, 60
1, 286183, Control_c, 0, 67, 67
1, 286219, Control_c, 0, 67, 74
1, 286257, Control_c, 0, 67, 81
1, 286275, Control_c, 0, 67, 86
1, 286294, Control_c, 0, 67, 90
1, 286313, Control_c, 0, 67, 95
1, 286331, Control_c, 0, 67, 100
1, 286351, Control_c, 0, 67, 105
1, 286389, Control_c, 0, 67, 112
1, 286425, Control_c, 0, 67, 117
1, 286514, Note_on_c, 0, 48, 36
1, 286518, Control_c, 0, 64, 52
1, 286537, Note_on_c, 0, 44, 27
1, 286537, Control_c, 0, 67, 121
1, 286575, Control_c, 0, 64, 49
1, 286611, Note_off_c, 0, 44, 55
1, 286611, Control_c, 0, 64, 46
1, 286616, Note_off_c, 0, 48, 60
1, 286706, Control_c, 0, 64, 44
1, 286949, Control_c, 0, 67, 117
1, 287043, Control_c, 0, 64, 47
1, 287079, Control_c, 0, 64, 49
1, 287143, Note_on_c, 0, 68, 41
1, 287178, Note_off_c, 0, 63, 44
1, 287248, Note_off_c, 0, 68, 55
1, 287719, Note_on_c, 0, 80, 57
1, 287751, Note_on_c, 0, 60, 36
1, 287756, Note_on_c, 0, 56, 25
1, 287834, Note_off_c, 0, 56, 53
1, 287834, Poly_aftertouch_c, 0, 56, 0
1, 287838, Note_off_c, 0, 60, 55
1, 287883, Control_c, 0, 64, 47
1, 288108, Control_c, 0, 64, 45
1, 288314, Note_on_c, 0, 61, 33
1, 288315, Note_on_c, 0, 58, 29
1, 288422, Note_off_c, 0, 58, 56
1, 288422, Poly_aftertouch_c, 0, 58, 0
1, 288431, Note_off_c, 0, 61, 54
1, 288901, Note_on_c, 0, 79, 35
1, 288962, Note_off_c, 0, 80, 52
1, 289033, Note_off_c, 0, 79, 39
1, 289033, Poly_aftertouch_c, 0, 79, 0
1, 289445, Note_on_c, 0, 67, 51
1, 289454, Control_c, 0, 64, 43
1, 289466, Note_on_c, 0, 49, 36
1, 289477, Note_on_c, 0, 46, 36
1, 289566, Control_c, 0, 64, 41
1, 289574, Note_off_c, 0, 46, 53
1, 289574, Poly_aftertouch_c, 0, 46, 0
1, 289592, Note_off_c, 0, 49, 50
1, 289592, Poly_aftertouch_c, 0, 49, 0
1, 289622, Control_c, 0, 64, 37
1, 290001, Note_on_c, 0, 51, 27
1, 290034, Note_on_c, 0, 48, 29
1, 290150, Note_off_c, 0, 48, 58
1, 290188, Note_off_c, 0, 51, 39
1, 290188, Poly_aftertouch_c, 0, 51, 0
1, 290572, Note_on_c, 0, 68, 30
1, 290597, Note_off_c, 0, 67, 42
1, 290597, Poly_aftertouch_c, 0, 67, 0
1, 290701, Note_off_c, 0, 68, 57
1, 290763, Control_c, 0, 67, 112
1, 290782, Control_c, 0, 67, 108
1, 290802, Control_c, 0, 67, 104
1, 290820, Control_c, 0, 67, 99
1, 290857, Control_c, 0, 67, 92
1, 290894, Control_c, 0, 67, 87
1, 290931, Control_c, 0, 67, 82
1, 291112, Note_on_c, 0, 84, 67
1, 291139, Note_on_c, 0, 63, 38
1, 291149, Note_on_c, 0, 60, 40
1, 291158, Note_on_c, 0, 80, 43
1, 291256, Note_off_c, 0, 60, 52
1, 291291, Note_off_c, 0, 63, 50
1, 291305, Control_c, 0, 67, 78
1, 291380, Control_c, 0, 67, 73
1, 291437, Control_c, 0, 67, 69
1, 291493, Control_c, 0, 67, 64
1, 291662, Control_c, 0, 67, 60
1, 291668, Note_on_c, 0, 62, 34
1, 291669, Note_on_c, 0, 65, 36
1, 291700, Control_c, 0, 67, 55
1, 291736, Control_c, 0, 67, 47
1, 291773, Control_c, 0, 64, 33
1, 291774, Control_c, 0, 67, 42
1, 291781, Note_off_c, 0, 62, 52
1, 291807, Note_off_c, 0, 65, 45
1, 291941, Control_c, 0, 64, 29
1, 291961, Control_c, 0, 67, 46
1, 291978, Control_c, 0, 64, 25
1, 292016, Control_c, 0, 64, 19
1, 292019, Control_c, 0, 67, 53
1, 292034, Control_c, 0, 67, 58
1, 292054, Control_c, 0, 67, 64
1, 292073, Control_c, 0, 64, 15
1, 292074, Control_c, 0, 67, 70
1, 292091, Control_c, 0, 67, 75
1, 292109, Control_c, 0, 67, 80
1, 292128, Control_c, 0, 67, 85
1, 292147, Control_c, 0, 67, 90
1, 292166, Control_c, 0, 64, 26
1, 292166, Control_c, 0, 67, 94
1, 292184, Control_c, 0, 64, 37
1, 292185, Control_c, 0, 67, 98
1, 292192, Note_on_c, 0, 82, 48
1, 292202, Control_c, 0, 64, 50
1, 292210, Note_on_c, 0, 67, 36
1, 292222, Control_c, 0, 64, 61
1, 292223, Control_c, 0, 67, 104
1, 292225, Note_on_c, 0, 63, 29
1, 292227, Note_on_c, 0, 79, 34
1, 292240, Control_c, 0, 64, 69
1, 292251, Note_off_c, 0, 84, 57
1, 292260, Control_c, 0, 64, 74
1, 292262, Control_c, 0, 67, 108
1, 292271, Note_off_c, 0, 80, 33
1, 292277, Control_c, 0, 64, 81
1, 292298, Control_c, 0, 64, 88
1, 292314, Control_c, 0, 64, 96
1, 292320, Note_off_c, 0, 79, 58
1, 292320, Poly_aftertouch_c, 0, 79, 0
1, 292325, Note_off_c, 0, 82, 62
1, 292330, Note_off_c, 0, 63, 60
1, 292332, Control_c, 0, 64, 101
1, 292393, Note_off_c, 0, 67, 36
1, 292393, Poly_aftertouch_c, 0, 67, 0
1, 292633, Control_c, 0, 64, 96
1, 292671, Control_c, 0, 64, 91
1, 292689, Control_c, 0, 64, 88
1, 292707, Control_c, 0, 64, 85
1, 292726, Control_c, 0, 64, 81
1, 292729, Note_on_c, 0, 73, 67
1, 292746, Control_c, 0, 64, 77
1, 292764, Control_c, 0, 64, 73
1, 292773, Note_on_c, 0, 65, 45
1, 292779, Note_on_c, 0, 53, 38
1, 292780, Note_on_c, 0, 56, 36
1, 292782, Control_c, 0, 64, 70
1, 292802, Control_c, 0, 64, 67
1, 292820, Control_c, 0, 64, 63
1, 292839, Control_c, 0, 64, 59
1, 292859, Control_c, 0, 64, 53
1, 292860, Control_c, 0, 67, 104
1, 292876, Control_c, 0, 64, 46
1, 292888, Note_off_c, 0, 53, 54
1, 292888, Poly_aftertouch_c, 0, 53, 0
1, 292894, Control_c, 0, 64, 40
1, 292914, Control_c, 0, 67, 98
1, 292932, Control_c, 0, 64, 42
1, 292952, Control_c, 0, 64, 49
1, 292954, Control_c, 0, 67, 91
1, 292970, Control_c, 0, 64, 58
1, 292971, Control_c, 0, 67, 87
1, 292988, Control_c, 0, 64, 68
1, 293006, Control_c, 0, 64, 74
1, 293022, Note_off_c, 0, 56, 24
1, 293022, Poly_aftertouch_c, 0, 56, 0
1, 293026, Control_c, 0, 64, 76
1, 293138, Control_c, 0, 64, 73
1, 293157, Control_c, 0, 64, 71
1, 293158, Control_c, 0, 67, 93
1, 293175, Control_c, 0, 64, 69
1, 293194, Control_c, 0, 64, 67
1, 293195, Control_c, 0, 67, 100
1, 293213, Control_c, 0, 64, 64
1, 293214, Control_c, 0, 67, 105
1, 293233, Control_c, 0, 64, 60
1, 293250, Control_c, 0, 64, 56
1, 293251, Control_c, 0, 67, 111
1, 293269, Control_c, 0, 64, 51
1, 293286, Control_c, 0, 64, 43
1, 293289, Note_on_c, 0, 64, 49
1, 293289, Control_c, 0, 67, 117
1, 293297, Note_on_c, 0, 58, 34
1, 293304, Control_c, 0, 64, 30
1, 293325, Control_c, 0, 64, 10
1, 293326, Control_c, 0, 67, 122
1, 293329, Note_on_c, 0, 55, 32
1, 293343, Control_c, 0, 64, 0
1, 293363, Control_c, 0, 67, 127
1, 293374, Note_off_c, 0, 65, 61
1, 293419, Control_c, 0, 64, 20
1, 293438, Control_c, 0, 64, 36
1, 293455, Control_c, 0, 64, 53
1, 293458, Note_off_c, 0, 58, 50
1, 293458, Poly_aftertouch_c, 0, 58, 0
1, 293475, Control_c, 0, 64, 69
1, 293493, Control_c, 0, 64, 77
1, 293494, Note_off_c, 0, 55, 37
1, 293512, Control_c, 0, 64, 83
1, 293531, Control_c, 0, 64, 89
1, 293549, Control_c, 0, 64, 95
1, 293569, Control_c, 0, 64, 99
1, 293612, Note_off_c, 0, 73, 32
1, 293756, Control_c, 0, 64, 93
1, 293774, Control_c, 0, 64, 87
1, 293789, Note_on_c, 0, 72, 43
1, 293791, Control_c, 0, 64, 77
1, 293806, Note_off_c, 0, 64, 37
1, 293806, Note_on_c, 0, 63, 38
1, 293809, Control_c, 0, 64, 65
1, 293828, Note_on_c, 0, 60, 26
1, 293830, Note_on_c, 0, 56, 36
1, 293830, Control_c, 0, 64, 51
1, 293849, Control_c, 0, 64, 29
1, 293867, Control_c, 0, 64, 0
1, 293886, Control_c, 0, 64, 8
1, 293906, Control_c, 0, 64, 27
1, 293914, Note_off_c, 0, 63, 62
1, 293923, Control_c, 0, 64, 44
1, 293925, Control_c, 0, 67, 123
1, 293936, Note_off_c, 0, 56, 62
1, 293936, Poly_aftertouch_c, 0, 56, 0
1, 293941, Control_c, 0, 64, 62
1, 293943, Control_c, 0, 67, 117
1, 293963, Control_c, 0, 64, 77
1, 293965, Control_c, 0, 67, 108
1, 293966, Note_off_c, 0, 72, 63
1, 293980, Control_c, 0, 64, 87
1, 293981, Control_c, 0, 67, 98
1, 293992, Note_off_c, 0, 60, 59
1, 293997, Control_c, 0, 64, 97
1, 293998, Control_c, 0, 67, 88
1, 294017, Control_c, 0, 64, 104
1, 294018, Control_c, 0, 67, 76
1, 294036, Control_c, 0, 64, 110
1, 294037, Control_c, 0, 67, 65
1, 294053, Control_c, 0, 67, 57
1, 294073, Control_c, 0, 64, 116
1, 294074, Control_c, 0, 67, 53
1, 294128, Control_c, 0, 67, 49
1, 294167, Control_c, 0, 67, 45
1, 294298, Control_c, 0, 64, 110
1, 294324, Note_on_c, 0, 89, 69
1, 294334, Control_c, 0, 64, 100
1, 294353, Control_c, 0, 64, 91
1, 294354, Note_on_c, 0, 68, 46
1, 294356, Note_on_c, 0, 62, 47
1, 294372, Control_c, 0, 64, 81
1, 294377, Note_on_c, 0, 77, 62
1, 294391, Control_c, 0, 64, 70
1, 294393, Control_c, 0, 67, 40
1, 294409, Control_c, 0, 64, 60
1, 294421, Note_off_c, 0, 62, 58
1, 294429, Control_c, 0, 64, 53
1, 294430, Control_c, 0, 67, 34
1, 294448, Control_c, 0, 64, 47
1, 294448, Control_c, 0, 67, 30
1, 294463, Note_off_c, 0, 68, 43
1, 294465, Control_c, 0, 67, 24
1, 294484, Control_c, 0, 67, 16
1, 294504, Control_c, 0, 64, 53
1, 294521, Control_c, 0, 64, 62
1, 294541, Control_c, 0, 64, 72
1, 294542, Control_c, 0, 67, 0
1, 294559, Control_c, 0, 64, 80
1, 294578, Control_c, 0, 64, 87
1, 294595, Control_c, 0, 64, 94
1, 294615, Control_c, 0, 64, 99
1, 294652, Control_c, 0, 64, 104
1, 294726, Control_c, 0, 64, 97
1, 294746, Control_c, 0, 64, 91
1, 294764, Control_c, 0, 64, 83
1, 294784, Control_c, 0, 64, 72
1, 294802, Control_c, 0, 64, 61
1, 294820, Control_c, 0, 64, 53
1, 294840, Control_c, 0, 64, 49
1, 294855, Note_on_c, 0, 70, 52
1, 294860, Note_on_c, 0, 67, 46
1, 294880, Note_on_c, 0, 61, 42
1, 294896, Control_c, 0, 64, 53
1, 294914, Control_c, 0, 64, 60
1, 294933, Control_c, 0, 64, 70
1, 294951, Control_c, 0, 64, 81
1, 294971, Control_c, 0, 64, 93
1, 294975, Note_off_c, 0, 77, 58
1, 294980, Note_off_c, 0, 70, 62
1, 294989, Control_c, 0, 64, 107
1, 295003, Note_off_c, 0, 61, 56
1, 295007, Control_c, 0, 64, 121
1, 295017, Note_off_c, 0, 67, 38
1, 295017, Poly_aftertouch_c, 0, 67, 0
1, 295026, Control_c, 0, 64, 127
1, 295288, Control_c, 0, 64, 114
1, 295307, Control_c, 0, 64, 98
1, 295309, Control_c, 0, 67, 8
1, 295325, Control_c, 0, 64, 79
1, 295344, Control_c, 0, 64, 65
1, 295346, Control_c, 0, 67, 12
1, 295363, Control_c, 0, 64, 61
1, 295383, Control_c, 0, 64, 63
1, 295389, Note_on_c, 0, 87, 60
1, 295400, Control_c, 0, 64, 67
1, 295401, Control_c, 0, 67, 18
1, 295410, Note_on_c, 0, 68, 44
1, 295420, Note_on_c, 0, 60, 40
1, 295420, Control_c, 0, 64, 71
1, 295423, Note_on_c, 0, 75, 49
1, 295428, Note_off_c, 0, 89, 56
1, 295429, Note_on_c, 0, 72, 41
1, 295438, Control_c, 0, 64, 78
1, 295438, Control_c, 0, 67, 27
1, 295457, Control_c, 0, 64, 88
1, 295459, Control_c, 0, 67, 33
1, 295478, Control_c, 0, 64, 99
1, 295479, Control_c, 0, 67, 40
1, 295481, Note_off_c, 0, 72, 51
1, 295493, Note_off_c, 0, 87, 63
1, 295494, Control_c, 0, 64, 111
1, 295495, Control_c, 0, 67, 47
1, 295507, Note_off_c, 0, 68, 63
1, 295512, Control_c, 0, 64, 122
1, 295513, Control_c, 0, 67, 55
1, 295526, Note_off_c, 0, 75, 63
1, 295530, Control_c, 0, 64, 127
1, 295531, Control_c, 0, 67, 63
1, 295547, Note_off_c, 0, 60, 63
1, 295548, Control_c, 0, 67, 71
1, 295569, Control_c, 0, 67, 79
1, 295588, Control_c, 0, 67, 87
1, 295606, Control_c, 0, 67, 96
1, 295624, Control_c, 0, 67, 103
1, 295644, Control_c, 0, 67, 107
1, 295924, Control_c, 0, 64, 119
1, 295943, Control_c, 0, 64, 109
1, 295944, Control_c, 0, 67, 103
1, 295961, Control_c, 0, 64, 97
1, 295969, Note_on_c, 0, 62, 51
1, 295980, Control_c, 0, 64, 85
1, 295996, Note_on_c, 0, 41, 51
1, 295998, Note_on_c, 0, 59, 34
1, 295998, Control_c, 0, 64, 75
1, 296000, Control_c, 0, 67, 96
1, 296003, Note_on_c, 0, 56, 26
1, 296017, Control_c, 0, 64, 70
1, 296019, Control_c, 0, 67, 90
1, 296036, Control_c, 0, 67, 84
1, 296056, Control_c, 0, 67, 78
1, 296073, Control_c, 0, 67, 73
1, 296111, Control_c, 0, 67, 66
1, 296130, Control_c, 0, 64, 73
1, 296131, Control_c, 0, 67, 62
1, 296148, Control_c, 0, 64, 76
1, 296149, Control_c, 0, 67, 57
1, 296167, Control_c, 0, 64, 78
1, 296169, Control_c, 0, 67, 51
1, 296186, Control_c, 0, 64, 81
1, 296188, Control_c, 0, 67, 45
1, 296205, Control_c, 0, 64, 84
1, 296207, Control_c, 0, 67, 38
1, 296224, Control_c, 0, 64, 89
1, 296225, Control_c, 0, 67, 32
1, 296243, Control_c, 0, 64, 94
1, 296244, Control_c, 0, 67, 26
1, 296261, Control_c, 0, 64, 98
1, 296261, Control_c, 0, 67, 20
1, 296267, Note_off_c, 0, 56, 57
1, 296267, Poly_aftertouch_c, 0, 56, 0
1, 296278, Control_c, 0, 67, 13
1, 296298, Control_c, 0, 64, 104
1, 296388, Note_off_c, 0, 59, 50
1, 296429, Control_c, 0, 64, 99
1, 296462, Note_on_c, 0, 61, 63
1, 296465, Control_c, 0, 64, 90
1, 296471, Note_on_c, 0, 58, 62
1, 296483, Note_on_c, 0, 52, 52
1, 296483, Control_c, 0, 64, 83
1, 296499, Note_on_c, 0, 43, 57
1, 296502, Control_c, 0, 64, 75
1, 296523, Control_c, 0, 64, 68
1, 296540, Control_c, 0, 64, 61
1, 296560, Control_c, 0, 64, 58
1, 296598, Control_c, 0, 67, 0
1, 296601, Note_off_c, 0, 62, 56
1, 296615, Control_c, 0, 64, 60
1, 296635, Control_c, 0, 64, 65
1, 296653, Control_c, 0, 64, 70
1, 296672, Control_c, 0, 64, 76
1, 296690, Control_c, 0, 64, 83
1, 296695, Note_off_c, 0, 52, 61
1, 296709, Control_c, 0, 64, 90
1, 296728, Control_c, 0, 64, 97
1, 296746, Control_c, 0, 64, 104
1, 296765, Control_c, 0, 64, 110
1, 296779, Note_off_c, 0, 58, 62
1, 296779, Poly_aftertouch_c, 0, 58, 0
1, 296785, Control_c, 0, 64, 115
1, 296803, Control_c, 0, 64, 119
1, 296834, Note_off_c, 0, 41, 25
1, 296952, Control_c, 0, 64, 111
1, 296973, Control_c, 0, 64, 101
1, 296985, Note_on_c, 0, 60, 68
1, 296992, Control_c, 0, 64, 85
1, 297005, Note_on_c, 0, 51, 64
1, 297007, Note_on_c, 0, 56, 63
1, 297007, Note_on_c, 0, 44, 67
1, 297010, Control_c, 0, 64, 69
1, 297027, Control_c, 0, 64, 57
1, 297038, Note_off_c, 0, 61, 63
1, 297044, Control_c, 0, 64, 50
1, 297059, Note_off_c, 0, 43, 58
1, 297065, Control_c, 0, 64, 45
1, 297102, Control_c, 0, 64, 47
1, 297120, Control_c, 0, 64, 53
1, 297139, Control_c, 0, 64, 63
1, 297157, Control_c, 0, 64, 72
1, 297177, Control_c, 0, 64, 78
1, 297185, Note_off_c, 0, 51, 59
1, 297185, Poly_aftertouch_c, 0, 51, 0
1, 297195, Control_c, 0, 64, 82
1, 297214, Control_c, 0, 64, 85
1, 297219, Note_off_c, 0, 60, 57
1, 297251, Note_off_c, 0, 56, 62
1, 297251, Poly_aftertouch_c, 0, 56, 0
1, 297251, Control_c, 0, 64, 92
1, 297476, Control_c, 0, 64, 88
1, 297494, Control_c, 0, 67, 8
1, 297514, Control_c, 0, 64, 84
1, 297533, Note_on_c, 0, 59, 67
1, 297533, Control_c, 0, 64, 81
1, 297550, Control_c, 0, 64, 78
1, 297558, Note_on_c, 0, 56, 53
1, 297562, Note_on_c, 0, 53, 54
1, 297570, Control_c, 0, 64, 74
1, 297571, Control_c, 0, 67, 12
1, 297575, Note_on_c, 0, 38, 49
1, 297588, Control_c, 0, 64, 72
1, 297607, Control_c, 0, 64, 70
1, 297626, Control_c, 0, 67, 18
1, 297644, Control_c, 0, 64, 65
1, 297664, Control_c, 0, 64, 62
1, 297665, Control_c, 0, 67, 24
1, 297682, Control_c, 0, 64, 58
1, 297684, Control_c, 0, 67, 29
1, 297700, Control_c, 0, 64, 52
1, 297701, Control_c, 0, 67, 35
1, 297719, Control_c, 0, 64, 44
1, 297720, Control_c, 0, 67, 42
1, 297730, Note_off_c, 0, 44, 33
1, 297738, Control_c, 0, 64, 30
1, 297738, Control_c, 0, 67, 48
1, 297758, Control_c, 0, 67, 53
1, 297775, Control_c, 0, 64, 0
1, 297776, Control_c, 0, 67, 59
1, 297794, Control_c, 0, 67, 65
1, 297811, Control_c, 0, 67, 72
1, 297831, Control_c, 0, 67, 76
1, 297869, Control_c, 0, 67, 82
1, 297886, Control_c, 0, 67, 86
1, 297906, Control_c, 0, 67, 91
1, 297924, Control_c, 0, 67, 96
1, 297943, Control_c, 0, 67, 103
1, 297961, Control_c, 0, 67, 110
1, 297981, Control_c, 0, 67, 116
1, 298000, Control_c, 0, 67, 122
1, 298018, Control_c, 0, 67, 127
1, 298095, Note_on_c, 0, 39, 37
1, 298168, Note_off_c, 0, 38, 52
1, 298677, Note_on_c, 0, 58, 41
1, 298709, Note_on_c, 0, 51, 32
1, 298711, Note_on_c, 0, 55, 31
1, 298732, Poly_aftertouch_c, 0, 59, 24
1, 298744, Note_off_c, 0, 56, 54
1, 298744, Poly_aftertouch_c, 0, 56, 0
1, 298764, Note_off_c, 0, 59, 34
1, 298764, Poly_aftertouch_c, 0, 59, 0
1, 298765, Poly_aftertouch_c, 0, 59, 0
1, 298782, Poly_aftertouch_c, 0, 53, 24
1, 298813, Note_off_c, 0, 53, 44
1, 298813, Poly_aftertouch_c, 0, 53, 0
1, 298954, Control_c, 0, 64, 29
1, 298971, Control_c, 0, 64, 45
1, 298991, Control_c, 0, 64, 57
1, 299010, Control_c, 0, 64, 65
1, 299028, Control_c, 0, 64, 68
1, 299057, Note_off_c, 0, 51, 47
1, 299057, Poly_aftertouch_c, 0, 51, 0
1, 299066, Control_c, 0, 64, 71
1, 299083, Note_off_c, 0, 55, 45
1, 299104, Note_off_c, 0, 58, 48
1, 299104, Poly_aftertouch_c, 0, 58, 0
1, 299122, Control_c, 0, 64, 73
1, 299169, Note_off_c, 0, 39, 36
1, 299323, Note_on_c, 0, 63, 41
1, 299325, Control_c, 0, 64, 71
1, 299363, Control_c, 0, 64, 69
1, 299365, Note_on_c, 0, 51, 30
1, 299420, Control_c, 0, 64, 67
1, 299439, Control_c, 0, 64, 66
1, 299458, Control_c, 0, 64, 64
1, 299476, Control_c, 0, 64, 62
1, 299496, Control_c, 0, 64, 60
1, 299533, Control_c, 0, 64, 57
1, 299570, Control_c, 0, 64, 53
1, 299588, Control_c, 0, 64, 51
1, 299608, Control_c, 0, 64, 48
1, 299625, Control_c, 0, 64, 44
1, 299645, Control_c, 0, 64, 41
1, 299664, Control_c, 0, 64, 36
1, 299683, Control_c, 0, 64, 27
1, 299701, Control_c, 0, 64, 8
1, 299720, Control_c, 0, 64, 0
1, 299813, Control_c, 0, 64, 9
1, 299817, Note_off_c, 0, 51, 50
1, 299817, Poly_aftertouch_c, 0, 51, 0
1, 299832, Control_c, 0, 64, 29
1, 299850, Control_c, 0, 64, 44
1, 299870, Control_c, 0, 64, 56
1, 299878, Note_on_c, 0, 44, 50
1, 299881, Note_on_c, 0, 32, 53
1, 299889, Control_c, 0, 64, 65
1, 299890, Control_c, 0, 67, 119
1, 299907, Control_c, 0, 64, 68
1, 299908, Control_c, 0, 67, 100
1, 299926, Control_c, 0, 67, 80
1, 299945, Control_c, 0, 64, 70
1, 299946, Control_c, 0, 67, 67
1, 299956, Note_off_c, 0, 44, 57
1, 299963, Control_c, 0, 67, 62
1, 299973, Note_off_c, 0, 32, 55
1, 300001, Control_c, 0, 67, 57
1, 300093, Control_c, 0, 64, 68
1, 300112, Control_c, 0, 64, 67
1, 300131, Control_c, 0, 64, 66
1, 300151, Control_c, 0, 64, 65
1, 300168, Control_c, 0, 64, 63
1, 300186, Control_c, 0, 64, 62
1, 300206, Control_c, 0, 64, 60
1, 300207, Control_c, 0, 67, 62
1, 300225, Control_c, 0, 64, 57
1, 300243, Control_c, 0, 64, 54
1, 300262, Control_c, 0, 64, 51
1, 300264, Control_c, 0, 67, 67
1, 300281, Control_c, 0, 64, 46
1, 300300, Control_c, 0, 64, 41
1, 300302, Control_c, 0, 67, 72
1, 300318, Control_c, 0, 64, 31
1, 300338, Control_c, 0, 64, 10
1, 300356, Control_c, 0, 64, 0
1, 300357, Control_c, 0, 67, 77
1, 300393, Control_c, 0, 67, 82
1, 300432, Note_on_c, 0, 68, 42
1, 300449, Control_c, 0, 64, 19
1, 300450, Control_c, 0, 67, 87
1, 300460, Note_on_c, 0, 56, 42
1, 300465, Control_c, 0, 64, 40
1, 300471, Note_off_c, 0, 63, 61
1, 300487, Control_c, 0, 64, 57
1, 300502, Note_off_c, 0, 56, 63
1, 300502, Poly_aftertouch_c, 0, 56, 0
1, 300503, Control_c, 0, 64, 70
1, 300523, Control_c, 0, 64, 76
1, 300543, Control_c, 0, 64, 80
1, 300557, Note_off_c, 0, 68, 62
1, 300561, Control_c, 0, 64, 85
1, 300579, Control_c, 0, 64, 90
1, 300599, Control_c, 0, 64, 95
1, 300600, Control_c, 0, 67, 82
1, 300636, Control_c, 0, 67, 78
1, 300674, Control_c, 0, 67, 74
1, 300711, Control_c, 0, 67, 68
1, 300748, Control_c, 0, 67, 64
1, 300860, Control_c, 0, 64, 90
1, 300898, Control_c, 0, 64, 85
1, 300916, Control_c, 0, 64, 79
1, 300936, Control_c, 0, 64, 72
1, 300941, Note_on_c, 0, 80, 67
1, 300956, Note_on_c, 0, 56, 49
1, 300956, Control_c, 0, 64, 66
1, 300959, Note_on_c, 0, 60, 47
1, 300968, Note_on_c, 0, 68, 44
1, 300970, Control_c, 0, 64, 61
1, 300992, Control_c, 0, 64, 50
1, 301000, Note_off_c, 0, 60, 65
1, 301004, Note_off_c, 0, 56, 63
1, 301004, Poly_aftertouch_c, 0, 56, 0
1, 301010, Control_c, 0, 64, 28
1, 301029, Control_c, 0, 64, 0
1, 301193, Note_on_c, 0, 60, 52
1, 301201, Note_on_c, 0, 56, 53
1, 301240, Note_off_c, 0, 60, 62
1, 301252, Note_off_c, 0, 56, 61
1, 301252, Poly_aftertouch_c, 0, 56, 0
1, 301467, Note_on_c, 0, 61, 54
1, 301490, Note_on_c, 0, 58, 48
1, 301515, Control_c, 0, 64, 15
1, 301533, Control_c, 0, 64, 30
1, 301534, Control_c, 0, 67, 59
1, 301553, Control_c, 0, 64, 41
1, 301554, Control_c, 0, 67, 53
1, 301560, Note_off_c, 0, 61, 63
1, 301562, Note_off_c, 0, 58, 57
1, 301562, Poly_aftertouch_c, 0, 58, 0
1, 301571, Control_c, 0, 64, 46
1, 301572, Control_c, 0, 67, 46
1, 301590, Control_c, 0, 64, 48
1, 301591, Control_c, 0, 67, 38
1, 301608, Control_c, 0, 67, 32
1, 301645, Control_c, 0, 64, 46
1, 301646, Control_c, 0, 67, 28
1, 301656, Note_off_c, 0, 68, 49
1, 301664, Control_c, 0, 64, 44
1, 301683, Control_c, 0, 64, 41
1, 301702, Control_c, 0, 64, 37
1, 301722, Control_c, 0, 64, 31
1, 301739, Control_c, 0, 64, 26
1, 301758, Control_c, 0, 64, 19
1, 301776, Control_c, 0, 64, 9
1, 301795, Control_c, 0, 64, 0
1, 301814, Control_c, 0, 67, 32
1, 301889, Control_c, 0, 67, 38
1, 301963, Control_c, 0, 67, 42
1, 302001, Control_c, 0, 67, 47
1, 302007, Note_on_c, 0, 79, 47
1, 302036, Note_on_c, 0, 67, 43
1, 302037, Control_c, 0, 67, 53
1, 302057, Control_c, 0, 64, 18
1, 302076, Control_c, 0, 64, 37
1, 302081, Note_off_c, 0, 80, 57
1, 302094, Control_c, 0, 64, 55
1, 302096, Control_c, 0, 67, 57
1, 302113, Control_c, 0, 64, 70
1, 302122, Note_off_c, 0, 79, 61
1, 302122, Poly_aftertouch_c, 0, 79, 0
1, 302132, Control_c, 0, 64, 81
1, 302133, Control_c, 0, 67, 63
1, 302150, Control_c, 0, 64, 89
1, 302157, Note_off_c, 0, 67, 62
1, 302157, Poly_aftertouch_c, 0, 67, 0
1, 302170, Control_c, 0, 64, 96
1, 302170, Control_c, 0, 67, 68
1, 302206, Control_c, 0, 64, 100
1, 302244, Control_c, 0, 67, 73
1, 302337, Control_c, 0, 64, 96
1, 302393, Control_c, 0, 64, 90
1, 302431, Control_c, 0, 64, 85
1, 302450, Control_c, 0, 64, 81
1, 302469, Control_c, 0, 64, 75
1, 302487, Control_c, 0, 64, 69
1, 302506, Control_c, 0, 64, 65
1, 302524, Control_c, 0, 64, 60
1, 302542, Note_on_c, 0, 67, 63
1, 302543, Control_c, 0, 64, 51
1, 302556, Note_on_c, 0, 49, 41
1, 302562, Note_on_c, 0, 46, 43
1, 302562, Control_c, 0, 64, 39
1, 302573, Note_on_c, 0, 55, 45
1, 302579, Control_c, 0, 64, 11
1, 302600, Control_c, 0, 64, 0
1, 302608, Note_off_c, 0, 49, 58
1, 302608, Poly_aftertouch_c, 0, 49, 0
1, 302619, Note_off_c, 0, 46, 61
1, 302619, Poly_aftertouch_c, 0, 46, 0
1, 302788, Note_on_c, 0, 49, 46
1, 302798, Note_on_c, 0, 46, 35
1, 302850, Note_off_c, 0, 46, 60
1, 302850, Poly_aftertouch_c, 0, 46, 0
1, 302858, Note_off_c, 0, 49, 57
1, 302858, Poly_aftertouch_c, 0, 49, 0
1, 302899, Control_c, 0, 67, 69
1, 302992, Control_c, 0, 67, 65
1, 303030, Control_c, 0, 67, 61
1, 303047, Control_c, 0, 67, 55
1, 303062, Note_on_c, 0, 48, 41
1, 303065, Note_on_c, 0, 51, 42
1, 303066, Control_c, 0, 67, 47
1, 303085, Control_c, 0, 67, 34
1, 303105, Control_c, 0, 67, 18
1, 303122, Control_c, 0, 64, 19
1, 303124, Control_c, 0, 67, 0
1, 303143, Control_c, 0, 64, 36
1, 303151, Note_off_c, 0, 55, 57
1, 303159, Control_c, 0, 64, 43
1, 303173, Note_off_c, 0, 51, 57
1, 303173, Poly_aftertouch_c, 0, 51, 0
1, 303178, Control_c, 0, 64, 47
1, 303193, Note_off_c, 0, 48, 60
1, 303292, Control_c, 0, 64, 44
1, 303329, Control_c, 0, 64, 41
1, 303331, Control_c, 0, 67, 9
1, 303367, Control_c, 0, 64, 36
1, 303384, Control_c, 0, 64, 31
1, 303385, Control_c, 0, 67, 14
1, 303403, Control_c, 0, 64, 26
1, 303422, Control_c, 0, 67, 18
1, 303441, Control_c, 0, 64, 19
1, 303460, Control_c, 0, 64, 12
1, 303461, Control_c, 0, 67, 22
1, 303496, Control_c, 0, 64, 0
1, 303497, Control_c, 0, 67, 26
1, 303534, Control_c, 0, 67, 31
1, 303566, Note_on_c, 0, 68, 48
1, 303605, Note_on_c, 0, 56, 42
1, 303625, Note_off_c, 0, 67, 58
1, 303625, Poly_aftertouch_c, 0, 67, 0
1, 303628, Control_c, 0, 67, 35
1, 303682, Note_off_c, 0, 56, 59
1, 303682, Poly_aftertouch_c, 0, 56, 0
1, 303683, Control_c, 0, 64, 17
1, 303703, Control_c, 0, 64, 41
1, 303720, Control_c, 0, 64, 58
1, 303740, Control_c, 0, 64, 72
1, 303759, Control_c, 0, 64, 79
1, 303763, Note_off_c, 0, 68, 63
1, 303779, Control_c, 0, 64, 86
1, 303796, Control_c, 0, 64, 91
1, 303814, Control_c, 0, 64, 96
1, 304040, Control_c, 0, 64, 89
1, 304057, Control_c, 0, 64, 84
1, 304077, Control_c, 0, 64, 78
1, 304096, Control_c, 0, 64, 73
1, 304104, Note_on_c, 0, 84, 75
1, 304115, Control_c, 0, 64, 68
1, 304117, Note_on_c, 0, 63, 55
1, 304129, Note_on_c, 0, 60, 49
1, 304132, Note_on_c, 0, 80, 61
1, 304133, Control_c, 0, 64, 61
1, 304151, Control_c, 0, 64, 53
1, 304152, Control_c, 0, 67, 30
1, 304169, Note_off_c, 0, 63, 60
1, 304171, Control_c, 0, 64, 42
1, 304171, Control_c, 0, 67, 26
1, 304179, Note_off_c, 0, 60, 60
1, 304188, Control_c, 0, 64, 23
1, 304190, Control_c, 0, 67, 21
1, 304208, Control_c, 0, 64, 0
1, 304210, Control_c, 0, 67, 15
1, 304226, Control_c, 0, 67, 10
1, 304356, Control_c, 0, 67, 0
1, 304364, Note_on_c, 0, 63, 57
1, 304364, Note_on_c, 0, 60, 55
1, 304417, Note_off_c, 0, 63, 59
1, 304423, Note_off_c, 0, 60, 57
1, 304604, Note_on_c, 0, 62, 56
1, 304605, Note_on_c, 0, 65, 56
1, 304650, Note_off_c, 0, 62, 61
1, 304653, Note_off_c, 0, 65, 61
1, 304832, Note_on_c, 0, 65, 45
1, 304834, Note_on_c, 0, 62, 46
1, 304877, Note_off_c, 0, 65, 57
1, 304879, Note_off_c, 0, 62, 63
1, 305012, Control_c, 0, 67, 9
1, 305051, Control_c, 0, 67, 15
1, 305067, Control_c, 0, 67, 20
1, 305085, Control_c, 0, 67, 29
1, 305090, Note_on_c, 0, 82, 46
1, 305098, Note_off_c, 0, 80, 52
1, 305104, Control_c, 0, 67, 39
1, 305119, Note_on_c, 0, 79, 41
1, 305122, Control_c, 0, 67, 48
1, 305140, Control_c, 0, 64, 28
1, 305143, Note_on_c, 0, 63, 36
1, 305143, Control_c, 0, 67, 56
1, 305148, Note_on_c, 0, 67, 32
1, 305161, Control_c, 0, 64, 51
1, 305162, Control_c, 0, 67, 65
1, 305165, Note_off_c, 0, 84, 63
1, 305181, Control_c, 0, 64, 69
1, 305183, Control_c, 0, 67, 73
1, 305198, Control_c, 0, 64, 80
1, 305199, Note_off_c, 0, 63, 63
1, 305200, Control_c, 0, 67, 81
1, 305218, Control_c, 0, 64, 88
1, 305221, Note_off_c, 0, 79, 62
1, 305221, Poly_aftertouch_c, 0, 79, 0
1, 305221, Control_c, 0, 67, 86
1, 305226, Note_off_c, 0, 67, 58
1, 305226, Poly_aftertouch_c, 0, 67, 0
1, 305229, Note_off_c, 0, 82, 63
1, 305236, Control_c, 0, 64, 97
1, 305237, Control_c, 0, 67, 90
1, 305254, Control_c, 0, 64, 104
1, 305273, Control_c, 0, 64, 109
1, 305275, Control_c, 0, 67, 96
1, 305534, Control_c, 0, 64, 104
1, 305572, Control_c, 0, 64, 99
1, 305592, Control_c, 0, 64, 95
1, 305609, Control_c, 0, 64, 90
1, 305610, Note_on_c, 0, 73, 72
1, 305628, Control_c, 0, 64, 85
1, 305636, Note_on_c, 0, 56, 50
1, 305645, Note_on_c, 0, 53, 43
1, 305647, Control_c, 0, 64, 79
1, 305653, Note_on_c, 0, 65, 53
1, 305665, Control_c, 0, 64, 74
1, 305685, Control_c, 0, 64, 69
1, 305700, Note_off_c, 0, 53, 57
1, 305700, Poly_aftertouch_c, 0, 53, 0
1, 305701, Note_off_c, 0, 56, 57
1, 305701, Poly_aftertouch_c, 0, 56, 0
1, 305703, Control_c, 0, 64, 64
1, 305705, Control_c, 0, 67, 90
1, 305722, Control_c, 0, 64, 58
1, 305722, Control_c, 0, 67, 86
1, 305741, Control_c, 0, 64, 51
1, 305742, Control_c, 0, 67, 80
1, 305760, Control_c, 0, 64, 41
1, 305762, Control_c, 0, 67, 72
1, 305778, Control_c, 0, 64, 21
1, 305779, Control_c, 0, 67, 63
1, 305797, Control_c, 0, 64, 0
1, 305798, Control_c, 0, 67, 54
1, 305815, Control_c, 0, 67, 47
1, 305834, Control_c, 0, 67, 40
1, 305854, Control_c, 0, 67, 33
1, 305870, Note_on_c, 0, 56, 54
1, 305871, Control_c, 0, 67, 23
1, 305880, Note_on_c, 0, 53, 48
1, 305889, Control_c, 0, 67, 12
1, 305927, Control_c, 0, 67, 0
1, 305931, Note_off_c, 0, 56, 59
1, 305931, Poly_aftertouch_c, 0, 56, 0
1, 305935, Note_off_c, 0, 53, 57
1, 305935, Poly_aftertouch_c, 0, 53, 0
1, 306110, Note_on_c, 0, 64, 58
1, 306115, Note_on_c, 0, 58, 55
1, 306120, Note_on_c, 0, 55, 46
1, 306170, Note_off_c, 0, 55, 59
1, 306176, Note_off_c, 0, 58, 59
1, 306176, Poly_aftertouch_c, 0, 58, 0
1, 306256, Note_off_c, 0, 65, 55
1, 306344, Note_on_c, 0, 58, 51
1, 306351, Note_on_c, 0, 55, 45
1, 306401, Note_off_c, 0, 55, 63
1, 306411, Note_off_c, 0, 58, 58
1, 306411, Poly_aftertouch_c, 0, 58, 0
1, 306412, Control_c, 0, 64, 19
1, 306432, Control_c, 0, 64, 31
1, 306437, Note_off_c, 0, 73, 53
1, 306451, Control_c, 0, 64, 35
1, 306526, Control_c, 0, 64, 30
1, 306544, Control_c, 0, 64, 23
1, 306564, Control_c, 0, 64, 10
1, 306582, Control_c, 0, 64, 0
1, 306615, Note_on_c, 0, 72, 55
1, 306630, Note_on_c, 0, 63, 53
1, 306646, Note_on_c, 0, 56, 40
1, 306651, Note_on_c, 0, 60, 36
1, 306655, Note_off_c, 0, 64, 42
1, 306740, Note_off_c, 0, 63, 63
1, 306748, Note_off_c, 0, 56, 63
1, 306748, Poly_aftertouch_c, 0, 56, 0
1, 306749, Control_c, 0, 64, 10
1, 306769, Control_c, 0, 64, 38
1, 306788, Note_off_c, 0, 60, 63
1, 306788, Control_c, 0, 64, 58
1, 306807, Control_c, 0, 64, 70
1, 306814, Note_off_c, 0, 72, 64
1, 306825, Control_c, 0, 64, 77
1, 306844, Control_c, 0, 64, 82
1, 306864, Control_c, 0, 64, 86
1, 306881, Control_c, 0, 64, 90
1, 306919, Control_c, 0, 64, 94
1, 307105, Control_c, 0, 64, 90
1, 307124, Control_c, 0, 64, 88
1, 307142, Note_on_c, 0, 89, 83
1, 307142, Control_c, 0, 64, 84
1, 307161, Control_c, 0, 64, 78
1, 307178, Note_on_c, 0, 62, 48
1, 307178, Note_on_c, 0, 68, 51
1, 307180, Control_c, 0, 64, 70
1, 307185, Note_on_c, 0, 77, 59
1, 307199, Control_c, 0, 64, 61
1, 307219, Control_c, 0, 64, 50
1, 307227, Note_off_c, 0, 62, 61
1, 307229, Note_off_c, 0, 68, 62
1, 307235, Control_c, 0, 64, 29
1, 307255, Control_c, 0, 64, 0
1, 307386, Note_on_c, 0, 62, 62
1, 307403, Note_on_c, 0, 68, 49
1, 307437, Note_off_c, 0, 62, 59
1, 307458, Note_off_c, 0, 68, 59
1, 307639, Note_on_c, 0, 67, 61
1, 307644, Note_on_c, 0, 61, 60
1, 307654, Note_on_c, 0, 70, 59
1, 307688, Note_off_c, 0, 61, 62
1, 307700, Note_off_c, 0, 70, 60
1, 307724, Note_off_c, 0, 67, 58
1, 307724, Poly_aftertouch_c, 0, 67, 0
1, 307854, Note_off_c, 0, 77, 56
1, 307872, Note_on_c, 0, 61, 55
1, 307875, Note_on_c, 0, 70, 53
1, 307876, Note_on_c, 0, 67, 55
1, 307911, Note_off_c, 0, 70, 67
1, 307916, Note_off_c, 0, 61, 63
1, 307920, Note_off_c, 0, 67, 64
1, 307920, Poly_aftertouch_c, 0, 67, 0
1, 308149, Note_on_c, 0, 87, 54
1, 308164, Note_on_c, 0, 72, 44
1, 308169, Note_on_c, 0, 75, 45
1, 308178, Note_on_c, 0, 60, 32
1, 308178, Note_on_c, 0, 68, 43
1, 308191, Control_c, 0, 64, 17
1, 308192, Control_c, 0, 67, 8
1, 308209, Control_c, 0, 64, 40
1, 308210, Control_c, 0, 67, 12
1, 308217, Note_off_c, 0, 89, 57
1, 308227, Control_c, 0, 64, 56
1, 308228, Control_c, 0, 67, 16
1, 308247, Control_c, 0, 64, 66
1, 308249, Control_c, 0, 67, 22
1, 308261, Note_off_c, 0, 72, 61
1, 308264, Control_c, 0, 64, 72
1, 308265, Control_c, 0, 67, 30
1, 308282, Note_off_c, 0, 87, 63
1, 308283, Note_off_c, 0, 68, 63
1, 308283, Control_c, 0, 64, 78
1, 308284, Control_c, 0, 67, 40
1, 308302, Control_c, 0, 64, 85
1, 308303, Note_off_c, 0, 75, 64
1, 308305, Control_c, 0, 67, 48
1, 308321, Control_c, 0, 64, 93
1, 308322, Control_c, 0, 67, 54
1, 308328, Note_off_c, 0, 60, 62
1, 308340, Control_c, 0, 64, 101
1, 308360, Control_c, 0, 64, 105
1, 308361, Control_c, 0, 67, 60
1, 308377, Control_c, 0, 67, 64
1, 308396, Control_c, 0, 64, 109
1, 308414, Control_c, 0, 67, 69
1, 308451, Control_c, 0, 64, 113
1, 308563, Control_c, 0, 67, 65
1, 308639, Control_c, 0, 67, 61
1, 308694, Control_c, 0, 67, 57
1, 308711, Note_on_c, 0, 68, 74
1, 308714, Control_c, 0, 64, 109
1, 308732, Note_on_c, 0, 53, 57
1, 308736, Note_on_c, 0, 62, 52
1, 308742, Note_on_c, 0, 59, 56
1, 308751, Control_c, 0, 64, 102
1, 308769, Control_c, 0, 64, 96
1, 308789, Control_c, 0, 64, 88
1, 308807, Control_c, 0, 64, 80
1, 308815, Note_off_c, 0, 53, 54
1, 308815, Poly_aftertouch_c, 0, 53, 0
1, 308825, Control_c, 0, 64, 71
1, 308845, Control_c, 0, 64, 63
1, 308863, Control_c, 0, 64, 55
1, 308882, Control_c, 0, 64, 44
1, 308900, Control_c, 0, 64, 14
1, 308920, Control_c, 0, 64, 0
1, 308956, Control_c, 0, 67, 61
1, 308969, Note_on_c, 0, 53, 55
1, 308994, Control_c, 0, 67, 66
1, 309023, Note_off_c, 0, 53, 62
1, 309023, Poly_aftertouch_c, 0, 53, 0
1, 309031, Control_c, 0, 67, 71
1, 309069, Control_c, 0, 67, 79
1, 309087, Control_c, 0, 67, 85
1, 309106, Control_c, 0, 67, 93
1, 309125, Control_c, 0, 67, 102
1, 309144, Control_c, 0, 67, 111
1, 309162, Control_c, 0, 67, 118
1, 309180, Control_c, 0, 67, 124
1, 309244, Note_on_c, 0, 51, 41
1, 309387, Control_c, 0, 64, 24
1, 309406, Control_c, 0, 64, 42
1, 309424, Control_c, 0, 64, 56
1, 309442, Control_c, 0, 64, 67
1, 309462, Control_c, 0, 64, 75
1, 309480, Control_c, 0, 64, 81
1, 309482, Note_off_c, 0, 59, 46
1, 309499, Control_c, 0, 64, 86
1, 309508, Note_off_c, 0, 51, 36
1, 309508, Poly_aftertouch_c, 0, 51, 0
1, 309518, Control_c, 0, 64, 88
1, 309524, Note_off_c, 0, 62, 58
1, 309612, Control_c, 0, 64, 85
1, 309649, Control_c, 0, 64, 81
1, 309687, Control_c, 0, 64, 78
1, 309704, Control_c, 0, 64, 75
1, 309724, Control_c, 0, 64, 71
1, 309742, Control_c, 0, 64, 67
1, 309760, Control_c, 0, 64, 64
1, 309779, Control_c, 0, 64, 62
1, 309788, Note_on_c, 0, 63, 35
1, 309798, Control_c, 0, 64, 60
1, 309817, Control_c, 0, 64, 56
1, 309827, Note_on_c, 0, 60, 28
1, 309836, Control_c, 0, 64, 49
1, 309854, Control_c, 0, 64, 37
1, 309873, Control_c, 0, 64, 27
1, 309909, Control_c, 0, 64, 32
1, 309929, Control_c, 0, 64, 39
1, 309949, Control_c, 0, 64, 50
1, 309965, Note_off_c, 0, 60, 59
1, 309966, Control_c, 0, 64, 61
1, 309985, Control_c, 0, 64, 68
1, 310002, Note_off_c, 0, 63, 62
1, 310004, Control_c, 0, 64, 70
1, 310040, Control_c, 0, 64, 72
1, 310111, Note_off_c, 0, 68, 48
1, 310210, Control_c, 0, 64, 70
1, 310265, Control_c, 0, 64, 68
1, 310285, Control_c, 0, 64, 67
1, 310302, Control_c, 0, 64, 65
1, 310322, Control_c, 0, 64, 63
1, 310341, Control_c, 0, 64, 60
1, 310344, Note_on_c, 0, 58, 32
1, 310351, Note_on_c, 0, 61, 32
1, 310352, Note_on_c, 0, 67, 35
1, 310356, Note_on_c, 0, 39, 38
1, 310360, Control_c, 0, 64, 57
1, 310377, Control_c, 0, 64, 52
1, 310396, Control_c, 0, 64, 45
1, 310416, Control_c, 0, 64, 35
1, 310432, Note_off_c, 0, 39, 56
1, 310433, Control_c, 0, 64, 17
1, 310453, Control_c, 0, 64, 0
1, 310598, Note_on_c, 0, 39, 41
1, 310601, Control_c, 0, 64, 10
1, 310621, Control_c, 0, 64, 30
1, 310626, Note_off_c, 0, 61, 45
1, 310639, Control_c, 0, 64, 45
1, 310658, Control_c, 0, 64, 56
1, 310669, Note_off_c, 0, 58, 53
1, 310669, Poly_aftertouch_c, 0, 58, 0
1, 310676, Note_off_c, 0, 39, 58
1, 310676, Control_c, 0, 64, 64
1, 310696, Control_c, 0, 64, 66
1, 310714, Control_c, 0, 64, 68
1, 310770, Note_off_c, 0, 67, 37
1, 310770, Poly_aftertouch_c, 0, 67, 0
1, 310780, Poly_aftertouch_c, 0, 66, 0
1, 310808, Control_c, 0, 64, 66
1, 310844, Control_c, 0, 64, 64
1, 310864, Control_c, 0, 64, 63
1, 310884, Control_c, 0, 64, 60
1, 310901, Note_on_c, 0, 44, 30
1, 310901, Control_c, 0, 64, 58
1, 310907, Note_on_c, 0, 68, 29
1, 310915, Note_on_c, 0, 56, 21
1, 310916, Note_on_c, 0, 60, 27
1, 310919, Control_c, 0, 64, 54
1, 310938, Control_c, 0, 64, 47
1, 310958, Control_c, 0, 64, 37
1, 310975, Control_c, 0, 64, 22
1, 310995, Control_c, 0, 64, 0
1, 311057, Note_off_c, 0, 44, 51
1, 311434, Note_on_c, 0, 32, 34
1, 311482, Control_c, 0, 64, 15
1, 311500, Control_c, 0, 64, 33
1, 311516, Note_off_c, 0, 68, 57
1, 311518, Note_off_c, 0, 56, 50
1, 311518, Poly_aftertouch_c, 0, 56, 0
1, 311518, Control_c, 0, 64, 47
1, 311519, Control_c, 0, 67, 120
1, 311528, Note_off_c, 0, 32, 59
1, 311537, Control_c, 0, 64, 57
1, 311538, Control_c, 0, 67, 113
1, 311552, Note_off_c, 0, 60, 58
1, 311556, Control_c, 0, 64, 64
1, 311558, Control_c, 0, 67, 103
1, 311574, Control_c, 0, 64, 67
1, 311575, Control_c, 0, 67, 91
1, 311593, Control_c, 0, 64, 69
1, 311594, Control_c, 0, 67, 76
1, 311613, Control_c, 0, 64, 71
1, 311615, Control_c, 0, 67, 62
1, 311631, Control_c, 0, 67, 48
1, 311649, Control_c, 0, 67, 36
1, 311668, Control_c, 0, 67, 26
1, 311687, Control_c, 0, 67, 17
1, 311705, Control_c, 0, 67, 9
1, 311798, Control_c, 0, 64, 68
1, 311818, Control_c, 0, 64, 67
1, 311837, Control_c, 0, 64, 66
1, 311855, Control_c, 0, 64, 64
1, 311874, Control_c, 0, 64, 62
1, 311892, Control_c, 0, 64, 60
1, 311911, Control_c, 0, 64, 58
1, 311929, Control_c, 0, 64, 55
1, 311949, Control_c, 0, 64, 51
1, 311966, Control_c, 0, 64, 44
1, 311973, Note_on_c, 0, 66, 58
1, 311986, Control_c, 0, 64, 34
1, 311994, Note_on_c, 0, 54, 45
1, 311998, Note_on_c, 0, 46, 39
1, 312005, Control_c, 0, 64, 14
1, 312013, Note_on_c, 0, 49, 35
1, 312024, Control_c, 0, 64, 0
1, 312073, Note_off_c, 0, 49, 54
1, 312073, Poly_aftertouch_c, 0, 49, 0
1, 312094, Note_off_c, 0, 46, 54
1, 312094, Poly_aftertouch_c, 0, 46, 0
1, 312137, Control_c, 0, 67, 0
1, 312154, Control_c, 0, 64, 13
1, 312173, Control_c, 0, 64, 25
1, 312191, Control_c, 0, 64, 36
1, 312211, Control_c, 0, 64, 48
1, 312229, Control_c, 0, 64, 58
1, 312247, Control_c, 0, 64, 67
1, 312266, Control_c, 0, 64, 71
1, 312304, Control_c, 0, 64, 73
1, 312397, Control_c, 0, 64, 71
1, 312435, Control_c, 0, 64, 68
1, 312452, Control_c, 0, 64, 63
1, 312472, Control_c, 0, 64, 57
1, 312482, Note_on_c, 0, 48, 41
1, 312483, Note_on_c, 0, 45, 42
1, 312491, Control_c, 0, 64, 48
1, 312510, Control_c, 0, 64, 33
1, 312519, Note_off_c, 0, 54, 34
1, 312527, Control_c, 0, 64, 0
1, 312640, Note_off_c, 0, 48, 47
1, 312658, Note_off_c, 0, 45, 48
1, 312971, Note_on_c, 0, 65, 40
1, 313007, Note_on_c, 0, 53, 44
1, 313074, Note_off_c, 0, 66, 33
1, 313080, Note_off_c, 0, 53, 60
1, 313080, Poly_aftertouch_c, 0, 53, 0
1, 313108, Control_c, 0, 64, 18
1, 313126, Control_c, 0, 64, 41
1, 313145, Control_c, 0, 64, 59
1, 313156, Note_off_c, 0, 65, 63
1, 313165, Control_c, 0, 64, 70
1, 313183, Control_c, 0, 64, 76
1, 313201, Control_c, 0, 64, 78
1, 313351, Control_c, 0, 64, 76
1, 313388, Control_c, 0, 64, 74
1, 313426, Control_c, 0, 64, 72
1, 313463, Control_c, 0, 64, 69
1, 313500, Control_c, 0, 64, 67
1, 313519, Control_c, 0, 64, 66
1, 313522, Note_on_c, 0, 87, 67
1, 313538, Control_c, 0, 64, 63
1, 313553, Note_on_c, 0, 75, 55
1, 313557, Control_c, 0, 64, 61
1, 313573, Note_on_c, 0, 55, 39
1, 313574, Control_c, 0, 64, 60
1, 313586, Note_on_c, 0, 65, 15
1, 313593, Control_c, 0, 64, 58
1, 313631, Control_c, 0, 64, 54
1, 313644, Note_off_c, 0, 55, 53
1, 313651, Control_c, 0, 64, 52
1, 313672, Note_off_c, 0, 65, 43
1, 313672, Poly_aftertouch_c, 0, 64, 0
1, 313687, Control_c, 0, 64, 50
1, 313893, Control_c, 0, 64, 48
1, 313987, Control_c, 0, 67, 8
1, 314005, Control_c, 0, 64, 46
1, 314042, Control_c, 0, 67, 12
1, 314079, Note_on_c, 0, 58, 40
1, 314080, Note_on_c, 0, 65, 39
1, 314080, Control_c, 0, 67, 18
1, 314098, Control_c, 0, 67, 22
1, 314118, Control_c, 0, 64, 48
1, 314119, Control_c, 0, 67, 26
1, 314136, Control_c, 0, 64, 52
1, 314138, Control_c, 0, 67, 31
1, 314142, Note_off_c, 0, 75, 46
1, 314156, Control_c, 0, 64, 61
1, 314157, Control_c, 0, 67, 36
1, 314174, Control_c, 0, 64, 70
1, 314175, Control_c, 0, 67, 41
1, 314192, Control_c, 0, 64, 75
1, 314193, Control_c, 0, 67, 46
1, 314204, Note_off_c, 0, 65, 53
1, 314210, Control_c, 0, 64, 77
1, 314229, Control_c, 0, 67, 52
1, 314231, Note_off_c, 0, 58, 52
1, 314231, Poly_aftertouch_c, 0, 58, 0
1, 314286, Control_c, 0, 67, 56
1, 314360, Control_c, 0, 64, 75
1, 314361, Control_c, 0, 67, 61
1, 314397, Control_c, 0, 64, 73
1, 314398, Control_c, 0, 67, 66
1, 314438, Control_c, 0, 64, 70
1, 314439, Control_c, 0, 67, 71
1, 314454, Control_c, 0, 64, 68
1, 314473, Control_c, 0, 64, 65
1, 314474, Control_c, 0, 67, 77
1, 314491, Control_c, 0, 64, 61
1, 314510, Control_c, 0, 64, 56
1, 314512, Control_c, 0, 67, 83
1, 314529, Control_c, 0, 64, 51
1, 314547, Control_c, 0, 64, 47
1, 314547, Control_c, 0, 67, 89
1, 314585, Control_c, 0, 67, 93
1, 314594, Note_on_c, 0, 85, 56
1, 314604, Control_c, 0, 64, 52
1, 314608, Note_on_c, 0, 73, 44
1, 314623, Control_c, 0, 64, 60
1, 314642, Control_c, 0, 64, 68
1, 314649, Note_off_c, 0, 87, 60
1, 314660, Control_c, 0, 64, 73
1, 314679, Control_c, 0, 64, 77
1, 314697, Control_c, 0, 64, 81
1, 314702, Note_off_c, 0, 85, 62
1, 314716, Control_c, 0, 64, 87
1, 314718, Note_off_c, 0, 73, 63
1, 314735, Control_c, 0, 64, 95
1, 314753, Control_c, 0, 64, 104
1, 314771, Control_c, 0, 64, 110
1, 314884, Control_c, 0, 67, 89
1, 314922, Control_c, 0, 64, 105
1, 314959, Control_c, 0, 64, 97
1, 314977, Control_c, 0, 64, 92
1, 314996, Control_c, 0, 64, 86
1, 315015, Control_c, 0, 64, 81
1, 315016, Control_c, 0, 67, 85
1, 315034, Control_c, 0, 64, 77
1, 315053, Control_c, 0, 64, 73
1, 315054, Control_c, 0, 67, 81
1, 315070, Control_c, 0, 64, 70
1, 315090, Control_c, 0, 64, 67
1, 315091, Control_c, 0, 67, 75
1, 315110, Control_c, 0, 64, 63
1, 315123, Note_on_c, 0, 64, 70
1, 315129, Control_c, 0, 64, 60
1, 315129, Control_c, 0, 67, 69
1, 315144, Control_c, 0, 64, 54
1, 315146, Control_c, 0, 67, 65
1, 315151, Note_on_c, 0, 44, 42
1, 315153, Note_on_c, 0, 47, 37
1, 315165, Control_c, 0, 64, 47
1, 315167, Control_c, 0, 67, 59
1, 315180, Note_on_c, 0, 52, 48
1, 315184, Control_c, 0, 64, 37
1, 315185, Control_c, 0, 67, 52
1, 315201, Control_c, 0, 64, 22
1, 315202, Control_c, 0, 67, 44
1, 315220, Control_c, 0, 64, 0
1, 315220, Control_c, 0, 67, 35
1, 315224, Note_on_c, 0, 62, 10
1, 315225, Note_off_c, 0, 62, 127
1, 315239, Control_c, 0, 67, 27
1, 315259, Control_c, 0, 67, 18
1, 315276, Control_c, 0, 67, 8
1, 315284, Note_off_c, 0, 44, 55
1, 315290, Note_off_c, 0, 47, 50
1, 315290, Poly_aftertouch_c, 0, 47, 0
1, 315333, Control_c, 0, 67, 0
1, 315613, Control_c, 0, 67, 9
1, 315648, Note_on_c, 0, 46, 42
1, 315654, Note_on_c, 0, 43, 44
1, 315669, Control_c, 0, 67, 14
1, 315704, Note_off_c, 0, 52, 55
1, 315706, Control_c, 0, 67, 19
1, 315726, Control_c, 0, 64, 17
1, 315727, Control_c, 0, 67, 23
1, 315745, Control_c, 0, 64, 37
1, 315762, Note_off_c, 0, 43, 51
1, 315762, Control_c, 0, 64, 52
1, 315764, Control_c, 0, 67, 28
1, 315782, Control_c, 0, 64, 62
1, 315800, Control_c, 0, 64, 68
1, 315809, Note_off_c, 0, 46, 53
1, 315809, Poly_aftertouch_c, 0, 46, 0
1, 315818, Control_c, 0, 67, 33
1, 315932, Control_c, 0, 64, 66
1, 315950, Control_c, 0, 64, 65
1, 315951, Control_c, 0, 67, 39
1, 315969, Control_c, 0, 64, 64
1, 315987, Control_c, 0, 64, 63
1, 315988, Control_c, 0, 67, 43
1, 316005, Control_c, 0, 64, 62
1, 316025, Control_c, 0, 64, 61
1, 316026, Control_c, 0, 67, 48
1, 316043, Control_c, 0, 64, 60
1, 316043, Control_c, 0, 67, 52
1, 316063, Control_c, 0, 67, 57
1, 316081, Control_c, 0, 64, 58
1, 316083, Control_c, 0, 67, 61
1, 316099, Control_c, 0, 64, 55
1, 316119, Control_c, 0, 64, 52
1, 316120, Control_c, 0, 67, 65
1, 316137, Control_c, 0, 64, 47
1, 316155, Control_c, 0, 64, 41
1, 316157, Control_c, 0, 67, 70
1, 316168, Note_on_c, 0, 63, 47
1, 316172, Control_c, 0, 64, 29
1, 316194, Control_c, 0, 64, 0
1, 316195, Control_c, 0, 67, 78
1, 316209, Note_on_c, 0, 51, 31
1, 316210, Note_off_c, 0, 64, 36
1, 316212, Control_c, 0, 67, 82
1, 316249, Control_c, 0, 67, 88
1, 316275, Note_off_c, 0, 51, 58
1, 316275, Poly_aftertouch_c, 0, 51, 0
1, 316324, Control_c, 0, 64, 21
1, 316342, Control_c, 0, 64, 42
1, 316361, Control_c, 0, 64, 58
1, 316380, Note_off_c, 0, 63, 63
1, 316380, Control_c, 0, 64, 67
1, 316398, Control_c, 0, 64, 69
1, 316586, Control_c, 0, 64, 68
1, 316605, Control_c, 0, 64, 67
1, 316622, Control_c, 0, 64, 66
1, 316642, Control_c, 0, 64, 65
1, 316660, Control_c, 0, 64, 63
1, 316679, Control_c, 0, 64, 60
1, 316684, Note_on_c, 0, 85, 65
1, 316698, Control_c, 0, 64, 57
1, 316702, Note_on_c, 0, 63, 38
1, 316716, Note_on_c, 0, 55, 44
1, 316717, Control_c, 0, 64, 52
1, 316735, Control_c, 0, 64, 46
1, 316736, Note_on_c, 0, 73, 48
1, 316753, Control_c, 0, 64, 38
1, 316773, Control_c, 0, 64, 25
1, 316810, Control_c, 0, 64, 0
1, 316812, Note_off_c, 0, 55, 56
1, 316822, Note_off_c, 0, 63, 57
1, 316827, Control_c, 0, 67, 84
1, 316847, Control_c, 0, 67, 79
1, 316866, Control_c, 0, 64, 12
1, 316867, Control_c, 0, 67, 70
1, 316886, Control_c, 0, 64, 18
1, 316887, Control_c, 0, 67, 61
1, 316904, Control_c, 0, 67, 50
1, 316923, Control_c, 0, 64, 25
1, 316924, Control_c, 0, 67, 41
1, 316941, Control_c, 0, 67, 32
1, 316960, Control_c, 0, 67, 26
1, 316978, Control_c, 0, 67, 21
1, 317015, Control_c, 0, 67, 17
1, 317053, Control_c, 0, 64, 21
1, 317073, Control_c, 0, 64, 16
1, 317090, Control_c, 0, 64, 9
1, 317109, Control_c, 0, 64, 0
1, 317207, Note_on_c, 0, 63, 40
1, 317213, Note_on_c, 0, 56, 40
1, 317240, Control_c, 0, 64, 28
1, 317261, Control_c, 0, 64, 43
1, 317262, Note_off_c, 0, 73, 38
1, 317278, Control_c, 0, 64, 55
1, 317278, Control_c, 0, 67, 12
1, 317296, Control_c, 0, 64, 64
1, 317315, Control_c, 0, 64, 69
1, 317326, Note_off_c, 0, 56, 53
1, 317326, Poly_aftertouch_c, 0, 56, 0
1, 317333, Control_c, 0, 64, 72
1, 317334, Control_c, 0, 67, 0
1, 317344, Note_off_c, 0, 63, 50
1, 317558, Control_c, 0, 64, 69
1, 317561, Control_c, 0, 67, 8
1, 317596, Control_c, 0, 64, 66
1, 317614, Control_c, 0, 64, 62
1, 317633, Control_c, 0, 64, 58
1, 317651, Control_c, 0, 64, 56
1, 317652, Control_c, 0, 67, 12
1, 317689, Control_c, 0, 64, 58
1, 317708, Control_c, 0, 64, 61
1, 317726, Control_c, 0, 64, 65
1, 317739, Note_on_c, 0, 84, 53
1, 317745, Control_c, 0, 64, 69
1, 317764, Control_c, 0, 64, 73
1, 317766, Note_on_c, 0, 72, 41
1, 317783, Control_c, 0, 64, 78
1, 317796, Note_off_c, 0, 85, 59
1, 317800, Control_c, 0, 64, 84
1, 317819, Control_c, 0, 64, 92
1, 317835, Note_off_c, 0, 84, 63
1, 317838, Control_c, 0, 64, 103
1, 317857, Control_c, 0, 64, 114
1, 317870, Note_off_c, 0, 72, 62
1, 317875, Control_c, 0, 64, 124
1, 318260, Note_on_c, 0, 60, 73
1, 318267, Control_c, 0, 64, 112
1, 318287, Control_c, 0, 64, 98
1, 318292, Note_on_c, 0, 53, 61
1, 318293, Note_on_c, 0, 44, 54
1, 318305, Note_on_c, 0, 48, 57
1, 318305, Control_c, 0, 64, 83
1, 318325, Control_c, 0, 64, 68
1, 318344, Control_c, 0, 64, 55
1, 318362, Control_c, 0, 64, 42
1, 318381, Control_c, 0, 64, 28
1, 318399, Control_c, 0, 64, 19
1, 318400, Control_c, 0, 67, 0
1, 318404, Note_off_c, 0, 44, 52
1, 318437, Control_c, 0, 64, 31
1, 318455, Control_c, 0, 64, 41
1, 318475, Control_c, 0, 64, 53
1, 318492, Control_c, 0, 64, 63
1, 318511, Note_off_c, 0, 53, 50
1, 318511, Poly_aftertouch_c, 0, 53, 0
1, 318511, Control_c, 0, 64, 69
1, 318530, Control_c, 0, 64, 73
1, 318549, Control_c, 0, 64, 75
1, 318550, Note_off_c, 0, 48, 41
1, 318717, Control_c, 0, 64, 72
1, 318736, Control_c, 0, 64, 69
1, 318755, Control_c, 0, 64, 65
1, 318773, Control_c, 0, 64, 57
1, 318792, Control_c, 0, 64, 46
1, 318806, Note_on_c, 0, 53, 44
1, 318811, Control_c, 0, 64, 23
1, 318822, Note_on_c, 0, 50, 39
1, 318829, Control_c, 0, 64, 0
1, 318833, Note_on_c, 0, 43, 36
1, 318923, Control_c, 0, 64, 17
1, 318942, Control_c, 0, 64, 36
1, 318961, Control_c, 0, 64, 53
1, 318979, Control_c, 0, 64, 69
1, 318998, Control_c, 0, 64, 80
1, 319017, Control_c, 0, 64, 89
1, 319035, Control_c, 0, 64, 100
1, 319053, Control_c, 0, 64, 110
1, 319073, Control_c, 0, 64, 118
1, 319091, Control_c, 0, 64, 124
1, 319099, Note_off_c, 0, 43, 31
1, 319296, Control_c, 0, 64, 116
1, 319305, Note_off_c, 0, 53, 25
1, 319305, Poly_aftertouch_c, 0, 53, 0
1, 319313, Control_c, 0, 64, 103
1, 319316, Note_off_c, 0, 50, 34
1, 319323, Note_on_c, 0, 59, 58
1, 319334, Control_c, 0, 64, 82
1, 319353, Control_c, 0, 64, 59
1, 319356, Note_on_c, 0, 31, 41
1, 319372, Control_c, 0, 64, 33
1, 319384, Note_off_c, 0, 60, 55
1, 319389, Control_c, 0, 64, 0
1, 319447, Control_c, 0, 64, 16
1, 319466, Control_c, 0, 64, 36
1, 319473, Note_off_c, 0, 59, 62
1, 319479, Note_off_c, 0, 31, 58
1, 319484, Control_c, 0, 64, 53
1, 319502, Control_c, 0, 64, 67
1, 319523, Control_c, 0, 64, 77
1, 319540, Control_c, 0, 64, 84
1, 319559, Control_c, 0, 64, 93
1, 319576, Control_c, 0, 64, 102
1, 319596, Control_c, 0, 64, 110
1, 319615, Control_c, 0, 64, 119
1, 319633, Control_c, 0, 64, 127
1, 319819, Note_on_c, 0, 70, 82
1, 319842, Note_on_c, 0, 61, 65
1, 319843, Note_on_c, 0, 67, 64
1, 319851, Note_on_c, 0, 64, 61
1, 319866, Note_on_c, 0, 48, 59
1, 319876, Control_c, 0, 64, 115
1, 319896, Control_c, 0, 64, 94
1, 319913, Control_c, 0, 64, 71
1, 319933, Control_c, 0, 64, 47
1, 319952, Control_c, 0, 64, 0
1, 320024, Note_off_c, 0, 48, 57
1, 320175, Control_c, 0, 64, 18
1, 320325, Control_c, 0, 64, 28
1, 320345, Control_c, 0, 64, 40
1, 320355, Note_on_c, 0, 53, 48
1, 320364, Control_c, 0, 64, 52
1, 320381, Control_c, 0, 64, 64
1, 320400, Control_c, 0, 64, 72
1, 320420, Control_c, 0, 64, 80
1, 320437, Control_c, 0, 64, 89
1, 320456, Control_c, 0, 64, 100
1, 320466, Note_off_c, 0, 64, 50
1, 320474, Control_c, 0, 64, 111
1, 320495, Control_c, 0, 64, 122
1, 320512, Control_c, 0, 64, 127
1, 320528, Note_off_c, 0, 61, 57
1, 320584, Note_off_c, 0, 53, 30
1, 320584, Poly_aftertouch_c, 0, 53, 0
1, 320656, Note_off_c, 0, 67, 34
1, 320656, Poly_aftertouch_c, 0, 67, 0
1, 320723, Note_off_c, 0, 70, 29
1, 320811, Control_c, 0, 64, 110
1, 320831, Control_c, 0, 64, 87
1, 320835, Note_on_c, 0, 69, 57
1, 320850, Control_c, 0, 64, 62
1, 320867, Control_c, 0, 64, 33
1, 320871, Note_on_c, 0, 41, 47
1, 320872, Note_on_c, 0, 60, 49
1, 320875, Note_on_c, 0, 65, 43
1, 320886, Control_c, 0, 64, 0
1, 320943, Note_off_c, 0, 60, 58
1, 320961, Control_c, 0, 64, 22
1, 320976, Note_off_c, 0, 65, 60
1, 320978, Control_c, 0, 64, 45
1, 320994, Note_off_c, 0, 41, 60
1, 320998, Control_c, 0, 64, 62
1, 321015, Note_off_c, 0, 69, 62
1, 321015, Poly_aftertouch_c, 0, 69, 0
1, 321016, Control_c, 0, 64, 73
1, 321036, Control_c, 0, 64, 79
1, 321054, Control_c, 0, 64, 86
1, 321073, Control_c, 0, 64, 96
1, 321094, Control_c, 0, 64, 107
1, 321110, Control_c, 0, 64, 116
1, 321130, Control_c, 0, 64, 124
1, 321347, Note_on_c, 0, 77, 87
1, 321371, Note_on_c, 0, 65, 75
1, 321377, Note_on_c, 0, 72, 64
1, 321387, Note_on_c, 0, 57, 60
1, 321408, Note_on_c, 0, 73, 43
1, 321408, Control_c, 0, 64, 102
1, 321429, Control_c, 0, 64, 80
1, 321446, Control_c, 0, 64, 58
1, 321456, Note_off_c, 0, 73, 32
1, 321465, Control_c, 0, 64, 37
1, 321485, Control_c, 0, 64, 0
1, 321541, Control_c, 0, 64, 27
1, 321555, Note_off_c, 0, 57, 60
1, 321558, Control_c, 0, 64, 47
1, 321577, Control_c, 0, 64, 67
1, 321597, Control_c, 0, 64, 81
1, 321618, Control_c, 0, 64, 92
1, 321635, Control_c, 0, 64, 102
1, 321652, Control_c, 0, 64, 110
1, 321663, Note_off_c, 0, 65, 44
1, 321690, Control_c, 0, 64, 114
1, 321783, Control_c, 0, 64, 108
1, 321802, Control_c, 0, 64, 104
1, 321822, Control_c, 0, 64, 97
1, 321840, Control_c, 0, 64, 89
1, 321859, Control_c, 0, 64, 78
1, 321873, Note_on_c, 0, 70, 57
1, 321878, Control_c, 0, 64, 66
1, 321889, Note_on_c, 0, 67, 50
1, 321896, Note_on_c, 0, 58, 48
1, 321897, Control_c, 0, 64, 50
1, 321914, Control_c, 0, 64, 21
1, 321932, Control_c, 0, 64, 0
1, 321936, Poly_aftertouch_c, 0, 73, 0
1, 321994, Note_off_c, 0, 72, 59
1, 322008, Control_c, 0, 64, 17
1, 322027, Control_c, 0, 64, 42
1, 322045, Control_c, 0, 64, 59
1, 322064, Control_c, 0, 64, 71
1, 322083, Control_c, 0, 64, 75
1, 322119, Note_off_c, 0, 58, 59
1, 322119, Poly_aftertouch_c, 0, 58, 0
1, 322177, Control_c, 0, 64, 72
1, 322194, Control_c, 0, 64, 69
1, 322214, Control_c, 0, 64, 67
1, 322232, Control_c, 0, 64, 66
1, 322269, Control_c, 0, 64, 67
1, 322289, Control_c, 0, 64, 70
1, 322307, Control_c, 0, 64, 73
1, 322326, Control_c, 0, 64, 77
1, 322345, Control_c, 0, 64, 81
1, 322364, Control_c, 0, 64, 86
1, 322373, Note_on_c, 0, 75, 64
1, 322382, Control_c, 0, 64, 92
1, 322401, Control_c, 0, 64, 100
1, 322403, Note_off_c, 0, 67, 50
1, 322403, Note_off_c, 0, 77, 58
1, 322403, Poly_aftertouch_c, 0, 67, 0
1, 322420, Note_on_c, 0, 46, 52
1, 322420, Control_c, 0, 64, 108
1, 322431, Note_off_c, 0, 70, 64
1, 322438, Control_c, 0, 64, 115
1, 322449, Note_off_c, 0, 75, 63
1, 322456, Control_c, 0, 64, 121
1, 322475, Control_c, 0, 64, 126
1, 322484, Note_off_c, 0, 46, 55
1, 322484, Poly_aftertouch_c, 0, 46, 0
1, 322916, Note_on_c, 0, 62, 80
1, 322930, Note_on_c, 0, 56, 67
1, 322944, Note_on_c, 0, 53, 64
1, 322949, Note_on_c, 0, 47, 61
1, 322962, Control_c, 0, 64, 115
1, 322981, Control_c, 0, 64, 97
1, 322999, Control_c, 0, 64, 78
1, 323017, Control_c, 0, 64, 62
1, 323037, Control_c, 0, 64, 48
1, 323056, Control_c, 0, 64, 24
1, 323073, Control_c, 0, 64, 0
1, 323086, Note_off_c, 0, 47, 48
1, 323086, Poly_aftertouch_c, 0, 47, 0
1, 323429, Control_c, 0, 64, 16
1, 323448, Control_c, 0, 64, 28
1, 323453, Note_on_c, 0, 48, 51
1, 323466, Control_c, 0, 64, 41
1, 323485, Control_c, 0, 64, 54
1, 323504, Control_c, 0, 64, 67
1, 323523, Control_c, 0, 64, 75
1, 323542, Control_c, 0, 64, 81
1, 323560, Control_c, 0, 64, 89
1, 323580, Control_c, 0, 64, 97
1, 323597, Control_c, 0, 64, 105
1, 323617, Control_c, 0, 64, 113
1, 323635, Control_c, 0, 64, 121
1, 323639, Note_off_c, 0, 62, 59
1, 323654, Control_c, 0, 64, 127
1, 323669, Note_off_c, 0, 53, 58
1, 323669, Poly_aftertouch_c, 0, 53, 0
1, 323716, Note_off_c, 0, 56, 62
1, 323716, Poly_aftertouch_c, 0, 56, 0
1, 323727, Note_off_c, 0, 48, 31
1, 323744, Poly_aftertouch_c, 0, 58, 127
1, 323880, Poly_aftertouch_c, 0, 58, 0
1, 323950, Note_on_c, 0, 63, 58
1, 323953, Control_c, 0, 64, 110
1, 323970, Note_on_c, 0, 55, 54
1, 323971, Control_c, 0, 64, 86
1, 323979, Note_on_c, 0, 51, 52
1, 323987, Note_on_c, 0, 35, 47
1, 323990, Control_c, 0, 64, 61
1, 324008, Control_c, 0, 64, 38
1, 324028, Control_c, 0, 64, 0
1, 324056, Note_off_c, 0, 51, 57
1, 324056, Poly_aftertouch_c, 0, 51, 0
1, 324063, Note_off_c, 0, 55, 61
1, 324064, Control_c, 0, 64, 14
1, 324083, Control_c, 0, 64, 32
1, 324092, Note_off_c, 0, 35, 60
1, 324103, Control_c, 0, 64, 50
1, 324122, Control_c, 0, 64, 66
1, 324140, Control_c, 0, 64, 76
1, 324154, Note_off_c, 0, 63, 62
1, 324158, Control_c, 0, 64, 81
1, 324177, Control_c, 0, 64, 87
1, 324195, Control_c, 0, 64, 94
1, 324214, Control_c, 0, 64, 102
1, 324233, Control_c, 0, 64, 112
1, 324252, Control_c, 0, 64, 122
1, 324270, Control_c, 0, 64, 127
1, 324452, Note_on_c, 0, 77, 90
1, 324468, Note_on_c, 0, 65, 80
1, 324471, Note_on_c, 0, 72, 76
1, 324476, Control_c, 0, 64, 109
1, 324485, Note_on_c, 0, 57, 74
1, 324495, Control_c, 0, 64, 82
1, 324514, Control_c, 0, 64, 51
1, 324532, Control_c, 0, 64, 0
1, 324626, Control_c, 0, 64, 33
1, 324635, Note_off_c, 0, 57, 55
1, 324646, Control_c, 0, 64, 51
1, 324663, Control_c, 0, 64, 66
1, 324682, Control_c, 0, 64, 77
1, 324702, Control_c, 0, 64, 88
1, 324720, Control_c, 0, 64, 101
1, 324737, Control_c, 0, 64, 113
1, 324757, Control_c, 0, 64, 123
1, 324772, Note_off_c, 0, 65, 49
1, 324775, Control_c, 0, 64, 127
1, 324961, Control_c, 0, 64, 116
1, 324964, Note_on_c, 0, 70, 74
1, 324969, Note_on_c, 0, 58, 71
1, 324979, Note_on_c, 0, 67, 67
1, 324980, Control_c, 0, 64, 89
1, 325000, Control_c, 0, 64, 62
1, 325019, Control_c, 0, 64, 41
1, 325024, Note_on_c, 0, 59, 32
1, 325025, Note_off_c, 0, 59, 127
1, 325037, Control_c, 0, 64, 0
1, 325068, Poly_aftertouch_c, 0, 59, 0
1, 325112, Control_c, 0, 64, 17
1, 325119, Note_off_c, 0, 72, 51
1, 325131, Control_c, 0, 64, 41
1, 325150, Control_c, 0, 64, 56
1, 325168, Control_c, 0, 64, 61
1, 325206, Control_c, 0, 64, 62
1, 325209, Note_off_c, 0, 58, 60
1, 325224, Control_c, 0, 64, 65
1, 325243, Control_c, 0, 64, 69
1, 325262, Control_c, 0, 64, 73
1, 325280, Control_c, 0, 64, 77
1, 325299, Control_c, 0, 64, 82
1, 325319, Control_c, 0, 64, 88
1, 325336, Control_c, 0, 64, 97
1, 325354, Control_c, 0, 64, 110
1, 325374, Control_c, 0, 64, 123
1, 325393, Control_c, 0, 64, 127
1, 325479, Note_on_c, 0, 75, 75
1, 325480, Note_on_c, 0, 46, 65
1, 325511, Note_off_c, 0, 67, 60
1, 325511, Poly_aftertouch_c, 0, 67, 0
1, 325513, Note_off_c, 0, 77, 60
1, 325534, Note_off_c, 0, 70, 63
1, 325544, Note_off_c, 0, 46, 56
1, 325544, Poly_aftertouch_c, 0, 46, 0
1, 325557, Note_off_c, 0, 75, 62
1, 325973, Control_c, 0, 64, 102
1, 325991, Control_c, 0, 64, 71
1, 326001, Note_on_c, 0, 62, 86
1, 326009, Control_c, 0, 64, 43
1, 326021, Note_on_c, 0, 56, 70
1, 326021, Note_on_c, 0, 53, 72
1, 326025, Note_on_c, 0, 34, 85
1, 326028, Control_c, 0, 64, 0
1, 326066, Control_c, 0, 64, 13
1, 326069, Note_off_c, 0, 34, 65
1, 326084, Control_c, 0, 64, 33
1, 326105, Control_c, 0, 64, 52
1, 326122, Control_c, 0, 64, 68
1, 326140, Control_c, 0, 64, 80
1, 326160, Control_c, 0, 64, 90
1, 326178, Control_c, 0, 64, 103
1, 326196, Control_c, 0, 64, 116
1, 326204, Note_off_c, 0, 62, 61
1, 326215, Control_c, 0, 64, 126
1, 326253, Note_off_c, 0, 53, 58
1, 326253, Poly_aftertouch_c, 0, 53, 0
1, 326269, Note_off_c, 0, 56, 61
1, 326269, Poly_aftertouch_c, 0, 56, 0
1, 326458, Control_c, 0, 67, 12
1, 326478, Control_c, 0, 67, 16
1, 326514, Control_c, 0, 67, 25
1, 326535, Control_c, 0, 64, 116
1, 326535, Control_c, 0, 67, 35
1, 326541, Note_on_c, 0, 63, 78
1, 326551, Note_on_c, 0, 55, 65
1, 326553, Note_on_c, 0, 51, 72
1, 326553, Control_c, 0, 64, 88
1, 326554, Control_c, 0, 67, 46
1, 326559, Note_on_c, 0, 39, 85
1, 326570, Control_c, 0, 64, 61
1, 326574, Control_c, 0, 67, 53
1, 326589, Control_c, 0, 64, 40
1, 326609, Control_c, 0, 64, 18
1, 326625, Note_off_c, 0, 39, 57
1, 326645, Control_c, 0, 64, 32
1, 326664, Control_c, 0, 64, 48
1, 326682, Control_c, 0, 64, 64
1, 326701, Control_c, 0, 64, 74
1, 326720, Control_c, 0, 64, 78
1, 326808, Note_off_c, 0, 55, 48
1, 326824, Note_off_c, 0, 51, 53
1, 326824, Poly_aftertouch_c, 0, 51, 0
1, 326858, Note_on_c, 0, 49, 74
1, 326923, Note_off_c, 0, 63, 56
1, 326943, Note_off_c, 0, 49, 58
1, 326943, Poly_aftertouch_c, 0, 49, 0
1, 326945, Control_c, 0, 64, 75
1, 326980, Note_on_c, 0, 48, 69
1, 326982, Control_c, 0, 64, 72
1, 327000, Control_c, 0, 64, 70
1, 327019, Control_c, 0, 67, 57
1, 327038, Control_c, 0, 64, 67
1, 327057, Control_c, 0, 64, 65
1, 327058, Control_c, 0, 67, 62
1, 327077, Control_c, 0, 64, 62
1, 327078, Control_c, 0, 67, 66
1, 327094, Control_c, 0, 64, 59
1, 327096, Control_c, 0, 67, 70
1, 327106, Note_off_c, 0, 48, 60
1, 327107, Note_on_c, 0, 46, 64
1, 327114, Control_c, 0, 64, 54
1, 327115, Control_c, 0, 67, 76
1, 327122, Note_on_c, 0, 63, 56
1, 327133, Control_c, 0, 64, 49
1, 327134, Control_c, 0, 67, 82
1, 327136, Note_on_c, 0, 53, 47
1, 327137, Note_on_c, 0, 56, 51
1, 327150, Control_c, 0, 64, 43
1, 327151, Control_c, 0, 67, 89
1, 327169, Control_c, 0, 64, 33
1, 327170, Control_c, 0, 67, 97
1, 327187, Note_off_c, 0, 46, 54
1, 327187, Poly_aftertouch_c, 0, 46, 0
1, 327187, Control_c, 0, 64, 21
1, 327188, Control_c, 0, 67, 104
1, 327208, Control_c, 0, 64, 10
1, 327208, Control_c, 0, 67, 110
1, 327225, Control_c, 0, 67, 117
1, 327229, Note_on_c, 0, 44, 65
1, 327244, Control_c, 0, 64, 0
1, 327245, Control_c, 0, 67, 123
1, 327252, Note_off_c, 0, 56, 54
1, 327252, Poly_aftertouch_c, 0, 56, 0
1, 327263, Control_c, 0, 67, 127
1, 327300, Note_off_c, 0, 44, 57
1, 327334, Note_off_c, 0, 53, 34
1, 327334, Poly_aftertouch_c, 0, 53, 0
1, 327351, Note_on_c, 0, 43, 59
1, 327446, Note_off_c, 0, 43, 60
1, 327470, Note_on_c, 0, 41, 55
1, 327473, Note_off_c, 0, 63, 62
1, 327544, Note_off_c, 0, 41, 53
1, 327603, Note_on_c, 0, 39, 50
1, 327635, Note_on_c, 0, 63, 49
1, 327653, Note_on_c, 0, 55, 32
1, 327659, Note_on_c, 0, 58, 32
1, 327676, Note_off_c, 0, 39, 56
1, 327716, Note_on_c, 0, 37, 57
1, 327770, Note_off_c, 0, 37, 64
1, 327797, Note_off_c, 0, 55, 51
1, 327847, Note_on_c, 0, 36, 50
1, 327870, Note_off_c, 0, 58, 45
1, 327933, Note_off_c, 0, 36, 52
1, 327959, Note_on_c, 0, 34, 51
1, 328104, Note_off_c, 0, 34, 57
1, 328153, Note_on_c, 0, 60, 41
1, 328158, Note_on_c, 0, 32, 45
1, 328169, Note_on_c, 0, 56, 34
1, 328272, Control_c, 0, 64, 19
1, 328291, Control_c, 0, 64, 42
1, 328309, Control_c, 0, 64, 60
1, 328328, Control_c, 0, 64, 70
1, 328335, Note_off_c, 0, 32, 53
1, 328348, Control_c, 0, 64, 74
1, 328365, Control_c, 0, 64, 78
1, 328385, Control_c, 0, 64, 81
1, 328399, Note_off_c, 0, 56, 51
1, 328399, Poly_aftertouch_c, 0, 56, 0
1, 328404, Control_c, 0, 64, 83
1, 328405, Control_c, 0, 67, 115
1, 328422, Control_c, 0, 64, 85
1, 328424, Control_c, 0, 67, 103
1, 328440, Control_c, 0, 64, 88
1, 328441, Control_c, 0, 67, 95
1, 328461, Control_c, 0, 67, 90
1, 328478, Control_c, 0, 64, 94
1, 328480, Control_c, 0, 67, 86
1, 328496, Control_c, 0, 67, 81
1, 328516, Control_c, 0, 64, 99
1, 328517, Control_c, 0, 67, 77
1, 328534, Control_c, 0, 67, 72
1, 328571, Note_off_c, 0, 60, 32
1, 328571, Control_c, 0, 67, 68
1, 328676, Note_on_c, 0, 68, 47
1, 328723, Note_off_c, 0, 63, 24
1, 328767, Note_off_c, 0, 68, 61
1, 328814, Control_c, 0, 67, 72
1, 328963, Control_c, 0, 67, 77
1, 329001, Control_c, 0, 67, 81
1, 329038, Control_c, 0, 67, 85
1, 329058, Control_c, 0, 64, 94
1, 329095, Control_c, 0, 67, 90
1, 329113, Control_c, 0, 64, 88
1, 329133, Control_c, 0, 64, 85
1, 329151, Control_c, 0, 64, 82
1, 329170, Control_c, 0, 64, 77
1, 329186, Control_c, 0, 64, 73
1, 329188, Note_on_c, 0, 80, 66
1, 329205, Control_c, 0, 64, 69
1, 329207, Control_c, 0, 67, 94
1, 329210, Note_on_c, 0, 56, 45
1, 329212, Note_on_c, 0, 60, 43
1, 329224, Note_on_c, 0, 68, 41
1, 329224, Control_c, 0, 64, 65
1, 329244, Control_c, 0, 64, 60
1, 329262, Note_off_c, 0, 56, 60
1, 329262, Poly_aftertouch_c, 0, 56, 0
1, 329263, Control_c, 0, 64, 52
1, 329269, Note_off_c, 0, 60, 58
1, 329283, Control_c, 0, 64, 37
1, 329300, Control_c, 0, 64, 9
1, 329318, Control_c, 0, 64, 0
1, 329412, Control_c, 0, 67, 98
1, 329447, Note_on_c, 0, 60, 54
1, 329456, Note_on_c, 0, 56, 49
1, 329496, Note_off_c, 0, 60, 62
1, 329513, Note_off_c, 0, 56, 57
1, 329513, Poly_aftertouch_c, 0, 56, 0
1, 329723, Note_on_c, 0, 61, 43
1, 329729, Control_c, 0, 67, 93
1, 329736, Note_on_c, 0, 58, 46
1, 329768, Control_c, 0, 64, 13
1, 329769, Control_c, 0, 67, 87
1, 329787, Control_c, 0, 64, 36
1, 329788, Control_c, 0, 67, 81
1, 329805, Control_c, 0, 64, 49
1, 329807, Control_c, 0, 67, 73
1, 329826, Control_c, 0, 64, 57
1, 329826, Control_c, 0, 67, 65
1, 329843, Control_c, 0, 64, 63
1, 329844, Control_c, 0, 67, 57
1, 329848, Note_off_c, 0, 58, 50
1, 329852, Note_off_c, 0, 61, 59
1, 329862, Control_c, 0, 64, 65
1, 329863, Control_c, 0, 67, 50
1, 329879, Note_off_c, 0, 68, 38
1, 329879, Control_c, 0, 67, 45
1, 329917, Control_c, 0, 67, 41
1, 329992, Control_c, 0, 64, 64
1, 329994, Control_c, 0, 67, 45
1, 330011, Control_c, 0, 64, 63
1, 330030, Control_c, 0, 64, 62
1, 330048, Control_c, 0, 64, 61
1, 330049, Control_c, 0, 67, 51
1, 330067, Control_c, 0, 64, 60
1, 330069, Control_c, 0, 67, 55
1, 330087, Control_c, 0, 67, 61
1, 330105, Control_c, 0, 64, 57
1, 330106, Control_c, 0, 67, 66
1, 330124, Control_c, 0, 64, 55
1, 330126, Control_c, 0, 67, 71
1, 330142, Control_c, 0, 64, 52
1, 330161, Control_c, 0, 64, 49
1, 330162, Control_c, 0, 67, 76
1, 330178, Control_c, 0, 64, 45
1, 330198, Control_c, 0, 64, 38
1, 330217, Control_c, 0, 64, 25
1, 330218, Control_c, 0, 67, 82
1, 330236, Control_c, 0, 64, 0
1, 330259, Note_on_c, 0, 79, 44
1, 330271, Control_c, 0, 67, 87
1, 330274, Note_on_c, 0, 67, 34
1, 330309, Control_c, 0, 64, 13
1, 330323, Note_off_c, 0, 80, 59
1, 330327, Control_c, 0, 64, 29
1, 330348, Control_c, 0, 64, 45
1, 330366, Control_c, 0, 64, 60
1, 330379, Note_off_c, 0, 79, 61
1, 330379, Poly_aftertouch_c, 0, 79, 0
1, 330384, Control_c, 0, 64, 70
1, 330403, Control_c, 0, 64, 76
1, 330423, Control_c, 0, 64, 81
1, 330427, Note_off_c, 0, 67, 60
1, 330427, Poly_aftertouch_c, 0, 67, 0
1, 330441, Control_c, 0, 64, 84
1, 330459, Control_c, 0, 64, 87
1, 330646, Control_c, 0, 67, 83
1, 330703, Control_c, 0, 64, 84
1, 330740, Control_c, 0, 64, 80
1, 330760, Control_c, 0, 64, 76
1, 330772, Note_on_c, 0, 67, 62
1, 330777, Note_on_c, 0, 49, 51
1, 330779, Control_c, 0, 64, 71
1, 330783, Note_on_c, 0, 46, 50
1, 330796, Control_c, 0, 64, 67
1, 330797, Note_on_c, 0, 55, 46
1, 330797, Control_c, 0, 67, 79
1, 330816, Control_c, 0, 64, 62
1, 330834, Control_c, 0, 64, 57
1, 330835, Note_off_c, 0, 49, 56
1, 330835, Poly_aftertouch_c, 0, 49, 0
1, 330835, Control_c, 0, 67, 74
1, 330844, Note_off_c, 0, 46, 56
1, 330844, Poly_aftertouch_c, 0, 46, 0
1, 330851, Control_c, 0, 64, 50
1, 330871, Control_c, 0, 64, 39
1, 330872, Control_c, 0, 67, 68
1, 330890, Control_c, 0, 64, 22
1, 330909, Control_c, 0, 64, 0
1, 330910, Control_c, 0, 67, 62
1, 330946, Control_c, 0, 67, 57
1, 330983, Control_c, 0, 67, 51
1, 331014, Note_on_c, 0, 49, 53
1, 331020, Control_c, 0, 67, 43
1, 331032, Note_on_c, 0, 46, 44
1, 331039, Control_c, 0, 67, 37
1, 331058, Control_c, 0, 67, 30
1, 331077, Control_c, 0, 67, 19
1, 331080, Note_off_c, 0, 46, 61
1, 331080, Poly_aftertouch_c, 0, 46, 0
1, 331089, Note_off_c, 0, 49, 56
1, 331089, Poly_aftertouch_c, 0, 49, 0
1, 331115, Control_c, 0, 67, 0
1, 331289, Note_on_c, 0, 48, 41
1, 331290, Note_on_c, 0, 51, 39
1, 331298, Note_off_c, 0, 55, 54
1, 331394, Control_c, 0, 64, 30
1, 331409, Note_off_c, 0, 51, 56
1, 331409, Poly_aftertouch_c, 0, 51, 0
1, 331412, Control_c, 0, 64, 50
1, 331422, Note_off_c, 0, 48, 54
1, 331431, Control_c, 0, 64, 63
1, 331432, Control_c, 0, 67, 10
1, 331450, Control_c, 0, 64, 68
1, 331470, Control_c, 0, 67, 16
1, 331488, Control_c, 0, 67, 22
1, 331507, Control_c, 0, 67, 30
1, 331527, Control_c, 0, 64, 66
1, 331528, Control_c, 0, 67, 40
1, 331544, Control_c, 0, 64, 65
1, 331545, Control_c, 0, 67, 46
1, 331564, Control_c, 0, 64, 64
1, 331566, Control_c, 0, 67, 50
1, 331583, Control_c, 0, 64, 63
1, 331600, Control_c, 0, 64, 61
1, 331601, Control_c, 0, 67, 57
1, 331620, Control_c, 0, 64, 60
1, 331622, Control_c, 0, 67, 61
1, 331656, Control_c, 0, 64, 56
1, 331657, Control_c, 0, 67, 67
1, 331675, Control_c, 0, 64, 54
1, 331694, Control_c, 0, 64, 50
1, 331695, Control_c, 0, 67, 73
1, 331713, Control_c, 0, 64, 43
1, 331732, Control_c, 0, 64, 33
1, 331733, Control_c, 0, 67, 80
1, 331750, Control_c, 0, 64, 19
1, 331768, Control_c, 0, 64, 0
1, 331810, Note_on_c, 0, 68, 45
1, 331825, Control_c, 0, 64, 13
1, 331831, Note_off_c, 0, 67, 59
1, 331831, Poly_aftertouch_c, 0, 67, 0
1, 331844, Control_c, 0, 64, 27
1, 331862, Control_c, 0, 64, 40
1, 331881, Control_c, 0, 64, 53
1, 331900, Control_c, 0, 64, 66
1, 331906, Poly_aftertouch_c, 0, 56, 0
1, 331918, Control_c, 0, 64, 75
1, 331937, Control_c, 0, 64, 83
1, 331959, Control_c, 0, 64, 91
1, 331970, Note_off_c, 0, 68, 63
1, 331974, Control_c, 0, 64, 99
1, 331993, Control_c, 0, 64, 107
1, 332012, Control_c, 0, 64, 115
1, 332031, Control_c, 0, 64, 122
1, 332049, Control_c, 0, 64, 127
1, 332068, Control_c, 0, 67, 76
1, 332107, Control_c, 0, 67, 69
1, 332123, Control_c, 0, 67, 64
1, 332143, Control_c, 0, 67, 59
1, 332161, Control_c, 0, 67, 54
1, 332180, Control_c, 0, 67, 50
1, 332199, Control_c, 0, 67, 46
1, 332236, Control_c, 0, 67, 41
1, 332274, Control_c, 0, 64, 121
1, 332293, Control_c, 0, 64, 117
1, 332295, Control_c, 0, 67, 37
1, 332312, Control_c, 0, 64, 112
1, 332326, Note_on_c, 0, 84, 75
1, 332328, Control_c, 0, 64, 104
1, 332350, Control_c, 0, 64, 93
1, 332353, Note_on_c, 0, 63, 51
1, 332357, Note_on_c, 0, 60, 46
1, 332369, Note_on_c, 0, 80, 58
1, 332369, Control_c, 0, 64, 82
1, 332369, Control_c, 0, 67, 32
1, 332385, Control_c, 0, 64, 70
1, 332405, Note_off_c, 0, 63, 61
1, 332405, Control_c, 0, 64, 60
1, 332406, Control_c, 0, 67, 27
1, 332413, Note_off_c, 0, 60, 57
1, 332424, Control_c, 0, 64, 51
1, 332442, Control_c, 0, 64, 40
1, 332444, Control_c, 0, 67, 21
1, 332460, Control_c, 0, 64, 25
1, 332462, Control_c, 0, 67, 15
1, 332480, Control_c, 0, 64, 0
1, 332481, Control_c, 0, 67, 8
1, 332554, Control_c, 0, 67, 0
1, 332596, Note_on_c, 0, 63, 56
1, 332600, Note_on_c, 0, 60, 50
1, 332649, Note_off_c, 0, 63, 61
1, 332649, Note_off_c, 0, 60, 62
1, 332826, Note_on_c, 0, 65, 63
1, 332834, Note_on_c, 0, 62, 58
1, 332878, Note_off_c, 0, 62, 62
1, 332879, Note_off_c, 0, 65, 60
1, 333055, Note_on_c, 0, 65, 57
1, 333060, Note_on_c, 0, 62, 54
1, 333107, Note_off_c, 0, 65, 60
1, 333107, Note_off_c, 0, 62, 61
1, 333264, Control_c, 0, 67, 8
1, 333284, Control_c, 0, 67, 13
1, 333303, Control_c, 0, 67, 19
1, 333320, Note_on_c, 0, 82, 53
1, 333323, Control_c, 0, 64, 23
1, 333324, Control_c, 0, 67, 28
1, 333336, Note_on_c, 0, 79, 41
1, 333338, Note_on_c, 0, 67, 40
1, 333342, Note_on_c, 0, 63, 42
1, 333342, Control_c, 0, 64, 45
1, 333343, Control_c, 0, 67, 40
1, 333358, Control_c, 0, 64, 62
1, 333359, Control_c, 0, 67, 51
1, 333377, Control_c, 0, 64, 74
1, 333378, Control_c, 0, 67, 62
1, 333380, Note_off_c, 0, 84, 63
1, 333396, Control_c, 0, 64, 85
1, 333398, Control_c, 0, 67, 75
1, 333405, Note_off_c, 0, 63, 61
1, 333414, Control_c, 0, 64, 100
1, 333415, Control_c, 0, 67, 87
1, 333427, Note_off_c, 0, 79, 62
1, 333427, Poly_aftertouch_c, 0, 79, 0
1, 333433, Control_c, 0, 64, 117
1, 333434, Control_c, 0, 67, 96
1, 333440, Note_off_c, 0, 82, 64
1, 333442, Note_off_c, 0, 80, 29
1, 333451, Note_off_c, 0, 67, 49
1, 333451, Poly_aftertouch_c, 0, 67, 0
1, 333451, Control_c, 0, 64, 127
1, 333452, Control_c, 0, 67, 104
1, 333470, Control_c, 0, 67, 109
1, 333508, Control_c, 0, 67, 113
1, 333807, Control_c, 0, 64, 121
1, 333818, Note_on_c, 0, 73, 82
1, 333826, Control_c, 0, 64, 114
1, 333827, Control_c, 0, 67, 109
1, 333844, Control_c, 0, 64, 104
1, 333849, Note_on_c, 0, 53, 51
1, 333859, Note_on_c, 0, 56, 44
1, 333863, Control_c, 0, 64, 92
1, 333881, Control_c, 0, 64, 78
1, 333885, Control_c, 0, 67, 103
1, 333895, Note_on_c, 0, 65, 28
1, 333897, Control_c, 0, 64, 65
1, 333900, Control_c, 0, 67, 99
1, 333903, Note_off_c, 0, 56, 59
1, 333910, Note_off_c, 0, 53, 56
1, 333910, Poly_aftertouch_c, 0, 53, 0
1, 333917, Control_c, 0, 64, 54
1, 333919, Control_c, 0, 67, 93
1, 333938, Control_c, 0, 64, 43
1, 333939, Control_c, 0, 67, 88
1, 333957, Control_c, 0, 64, 33
1, 333958, Control_c, 0, 67, 82
1, 333975, Control_c, 0, 64, 29
1, 333977, Control_c, 0, 67, 77
1, 333994, Control_c, 0, 67, 72
1, 334002, Poly_aftertouch_c, 0, 64, 0
1, 334012, Control_c, 0, 67, 66
1, 334031, Control_c, 0, 67, 59
1, 334050, Control_c, 0, 67, 51
1, 334054, Note_on_c, 0, 56, 52
1, 334068, Control_c, 0, 67, 42
1, 334072, Note_on_c, 0, 53, 44
1, 334088, Control_c, 0, 67, 32
1, 334105, Note_off_c, 0, 53, 50
1, 334105, Poly_aftertouch_c, 0, 53, 0
1, 334105, Control_c, 0, 64, 36
1, 334105, Control_c, 0, 67, 21
1, 334125, Control_c, 0, 64, 42
1, 334126, Control_c, 0, 67, 9
1, 334142, Note_off_c, 0, 56, 52
1, 334142, Control_c, 0, 64, 49
1, 334162, Control_c, 0, 64, 56
1, 334181, Control_c, 0, 64, 60
1, 334237, Control_c, 0, 64, 56
1, 334256, Control_c, 0, 64, 53
1, 334274, Control_c, 0, 64, 46
1, 334294, Control_c, 0, 64, 33
1, 334295, Control_c, 0, 67, 14
1, 334297, Note_on_c, 0, 64, 57
1, 334311, Note_on_c, 0, 58, 46
1, 334312, Control_c, 0, 64, 0
1, 334314, Note_on_c, 0, 55, 49
1, 334331, Control_c, 0, 67, 21
1, 334349, Control_c, 0, 67, 27
1, 334368, Control_c, 0, 67, 34
1, 334374, Note_off_c, 0, 58, 58
1, 334386, Control_c, 0, 67, 41
1, 334405, Control_c, 0, 67, 46
1, 334406, Note_off_c, 0, 65, 58
1, 334423, Control_c, 0, 67, 51
1, 334443, Control_c, 0, 67, 56
1, 334462, Control_c, 0, 67, 61
1, 334480, Control_c, 0, 67, 65
1, 334518, Note_on_c, 0, 58, 51
1, 334518, Control_c, 0, 67, 70
1, 334535, Control_c, 0, 64, 25
1, 334548, Note_off_c, 0, 55, 64
1, 334548, Note_on_c, 0, 55, 29
1, 334553, Control_c, 0, 64, 47
1, 334573, Control_c, 0, 64, 64
1, 334593, Control_c, 0, 64, 74
1, 334595, Note_off_c, 0, 58, 61
1, 334608, Note_off_c, 0, 55, 60
1, 334610, Control_c, 0, 64, 80
1, 334629, Control_c, 0, 64, 85
1, 334639, Note_off_c, 0, 73, 53
1, 334648, Control_c, 0, 64, 88
1, 334741, Control_c, 0, 64, 85
1, 334761, Control_c, 0, 64, 79
1, 334779, Control_c, 0, 64, 69
1, 334797, Control_c, 0, 64, 55
1, 334800, Note_on_c, 0, 72, 56
1, 334815, Control_c, 0, 64, 33
1, 334820, Note_on_c, 0, 63, 48
1, 334836, Control_c, 0, 64, 0
1, 334849, Note_on_c, 0, 56, 49
1, 334856, Note_on_c, 0, 60, 40
1, 334866, Note_off_c, 0, 64, 38
1, 334872, Control_c, 0, 67, 65
1, 334910, Control_c, 0, 64, 32
1, 334912, Control_c, 0, 67, 59
1, 334916, Note_off_c, 0, 56, 59
1, 334916, Note_off_c, 0, 63, 63
1, 334929, Control_c, 0, 64, 53
1, 334930, Control_c, 0, 67, 52
1, 334948, Control_c, 0, 64, 69
1, 334949, Control_c, 0, 67, 42
1, 334966, Control_c, 0, 64, 79
1, 334968, Note_off_c, 0, 60, 63
1, 334968, Control_c, 0, 67, 31
1, 334984, Note_off_c, 0, 72, 63
1, 334984, Control_c, 0, 64, 87
1, 334987, Control_c, 0, 67, 21
1, 335003, Control_c, 0, 64, 95
1, 335004, Control_c, 0, 67, 11
1, 335023, Control_c, 0, 64, 104
1, 335041, Control_c, 0, 64, 111
1, 335060, Control_c, 0, 64, 115
1, 335061, Control_c, 0, 67, 0
1, 335097, Control_c, 0, 64, 120
1, 335304, Control_c, 0, 64, 114
1, 335321, Control_c, 0, 64, 109
1, 335340, Control_c, 0, 64, 102
1, 335344, Note_on_c, 0, 89, 84
1, 335359, Control_c, 0, 64, 90
1, 335378, Note_on_c, 0, 68, 57
1, 335378, Control_c, 0, 64, 74
1, 335382, Note_on_c, 0, 77, 72
1, 335396, Control_c, 0, 64, 55
1, 335398, Note_on_c, 0, 62, 46
1, 335415, Control_c, 0, 64, 28
1, 335433, Control_c, 0, 64, 0
1, 335453, Note_off_c, 0, 62, 57
1, 335466, Note_off_c, 0, 68, 60
1, 335603, Control_c, 0, 64, 11
1, 335609, Note_on_c, 0, 62, 54
1, 335615, Note_on_c, 0, 68, 62
1, 335623, Control_c, 0, 64, 39
1, 335639, Control_c, 0, 64, 61
1, 335648, Note_off_c, 0, 62, 64
1, 335656, Control_c, 0, 64, 77
1, 335675, Note_off_c, 0, 68, 50
1, 335676, Control_c, 0, 64, 88
1, 335695, Control_c, 0, 64, 97
1, 335714, Control_c, 0, 64, 101
1, 335790, Control_c, 0, 64, 95
1, 335808, Control_c, 0, 64, 85
1, 335827, Control_c, 0, 64, 69
1, 335845, Control_c, 0, 64, 48
1, 335857, Note_on_c, 0, 67, 60
1, 335858, Note_on_c, 0, 70, 66
1, 335863, Control_c, 0, 64, 0
1, 335866, Note_on_c, 0, 61, 56
1, 335920, Note_off_c, 0, 61, 58
1, 335942, Note_off_c, 0, 70, 53
1, 335951, Note_off_c, 0, 67, 58
1, 335951, Poly_aftertouch_c, 0, 67, 0
1, 336070, Control_c, 0, 64, 23
1, 336087, Control_c, 0, 64, 50
1, 336107, Control_c, 0, 64, 69
1, 336115, Note_on_c, 0, 70, 57
1, 336118, Note_on_c, 0, 67, 48
1, 336125, Control_c, 0, 64, 81
1, 336141, Note_off_c, 0, 77, 57
1, 336144, Control_c, 0, 64, 89
1, 336146, Control_c, 0, 67, 8
1, 336151, Note_on_c, 0, 61, 37
1, 336159, Note_off_c, 0, 70, 68
1, 336163, Control_c, 0, 64, 97
1, 336173, Note_off_c, 0, 67, 59
1, 336173, Poly_aftertouch_c, 0, 67, 0
1, 336180, Control_c, 0, 64, 102
1, 336192, Note_off_c, 0, 61, 50
1, 336200, Control_c, 0, 67, 12
1, 336276, Control_c, 0, 67, 17
1, 336313, Control_c, 0, 64, 97
1, 336315, Control_c, 0, 67, 22
1, 336331, Control_c, 0, 64, 90
1, 336350, Control_c, 0, 64, 80
1, 336351, Control_c, 0, 67, 30
1, 336369, Control_c, 0, 64, 69
1, 336372, Control_c, 0, 67, 34
1, 336388, Control_c, 0, 64, 60
1, 336389, Control_c, 0, 67, 39
1, 336406, Control_c, 0, 64, 48
1, 336407, Control_c, 0, 67, 44
1, 336424, Control_c, 0, 64, 21
1, 336425, Control_c, 0, 67, 48
1, 336426, Note_on_c, 0, 87, 59
1, 336438, Note_on_c, 0, 75, 47
1, 336442, Control_c, 0, 64, 0
1, 336443, Control_c, 0, 67, 53
1, 336462, Control_c, 0, 67, 58
1, 336465, Note_on_c, 0, 72, 40
1, 336470, Note_on_c, 0, 68, 41
1, 336480, Note_on_c, 0, 60, 24
1, 336481, Control_c, 0, 67, 64
1, 336499, Control_c, 0, 67, 71
1, 336517, Control_c, 0, 67, 80
1, 336537, Control_c, 0, 64, 11
1, 336538, Control_c, 0, 67, 89
1, 336550, Note_off_c, 0, 89, 53
1, 336555, Control_c, 0, 64, 40
1, 336555, Control_c, 0, 67, 96
1, 336574, Control_c, 0, 64, 60
1, 336575, Control_c, 0, 67, 100
1, 336593, Control_c, 0, 64, 74
1, 336594, Note_off_c, 0, 72, 59
1, 336594, Control_c, 0, 67, 105
1, 336612, Control_c, 0, 64, 83
1, 336613, Control_c, 0, 67, 110
1, 336630, Note_off_c, 0, 68, 62
1, 336630, Control_c, 0, 64, 90
1, 336633, Note_off_c, 0, 87, 63
1, 336633, Control_c, 0, 67, 115
1, 336649, Control_c, 0, 64, 97
1, 336652, Control_c, 0, 67, 119
1, 336669, Control_c, 0, 64, 104
1, 336686, Control_c, 0, 64, 108
1, 336687, Control_c, 0, 67, 125
1, 336692, Note_off_c, 0, 75, 61
1, 336696, Note_off_c, 0, 60, 56
1, 336724, Control_c, 0, 64, 113
1, 336779, Control_c, 0, 64, 117
1, 337099, Control_c, 0, 64, 112
1, 337153, Control_c, 0, 64, 107
1, 337160, Note_on_c, 0, 68, 65
1, 337191, Control_c, 0, 64, 99
1, 337196, Note_on_c, 0, 53, 42
1, 337198, Note_on_c, 0, 62, 51
1, 337208, Note_on_c, 0, 59, 50
1, 337209, Control_c, 0, 64, 94
1, 337229, Control_c, 0, 64, 89
1, 337247, Control_c, 0, 64, 83
1, 337267, Control_c, 0, 64, 77
1, 337283, Note_off_c, 0, 53, 54
1, 337283, Poly_aftertouch_c, 0, 53, 0
1, 337284, Control_c, 0, 64, 71
1, 337303, Control_c, 0, 64, 66
1, 337322, Control_c, 0, 64, 61
1, 337341, Control_c, 0, 64, 57
1, 337360, Control_c, 0, 64, 52
1, 337378, Control_c, 0, 64, 45
1, 337397, Control_c, 0, 64, 34
1, 337417, Control_c, 0, 64, 15
1, 337434, Control_c, 0, 64, 0
1, 337451, Note_on_c, 0, 53, 46
1, 337570, Note_off_c, 0, 53, 43
1, 337570, Poly_aftertouch_c, 0, 53, 0
1, 337753, Note_on_c, 0, 51, 40
1, 337958, Control_c, 0, 64, 27
1, 337976, Control_c, 0, 64, 44
1, 337994, Note_off_c, 0, 59, 35
1, 337996, Control_c, 0, 64, 56
1, 338008, Note_off_c, 0, 62, 38
1, 338013, Control_c, 0, 64, 64
1, 338032, Control_c, 0, 64, 68
1, 338070, Control_c, 0, 64, 70
1, 338238, Control_c, 0, 64, 67
1, 338257, Control_c, 0, 64, 66
1, 338277, Control_c, 0, 64, 64
1, 338294, Control_c, 0, 64, 62
1, 338313, Control_c, 0, 64, 58
1, 338331, Control_c, 0, 64, 51
1, 338342, Note_on_c, 0, 63, 29
1, 338349, Control_c, 0, 64, 41
1, 338363, Note_on_c, 0, 60, 30
1, 338367, Control_c, 0, 64, 30
1, 338388, Control_c, 0, 64, 25
1, 338426, Control_c, 0, 64, 35
1, 338444, Control_c, 0, 64, 45
1, 338463, Control_c, 0, 64, 59
1, 338483, Control_c, 0, 64, 70
1, 338500, Control_c, 0, 64, 77
1, 338518, Control_c, 0, 64, 84
1, 338525, Note_off_c, 0, 51, 58
1, 338525, Poly_aftertouch_c, 0, 51, 0
1, 338537, Control_c, 0, 64, 92
1, 338557, Control_c, 0, 64, 100
1, 338569, Note_off_c, 0, 60, 56
1, 338572, Control_c, 0, 64, 107
1, 338594, Control_c, 0, 64, 113
1, 338604, Note_off_c, 0, 63, 39
1, 338611, Control_c, 0, 64, 118
1, 338630, Control_c, 0, 64, 123
1, 338650, Control_c, 0, 64, 127
1, 338695, Note_off_c, 0, 68, 49
1, 338930, Control_c, 0, 64, 121
1, 338949, Control_c, 0, 64, 116
1, 338967, Control_c, 0, 64, 109
1, 338985, Control_c, 0, 64, 100
1, 338988, Note_on_c, 0, 58, 36
1, 338990, Note_on_c, 0, 67, 35
1, 338996, Note_on_c, 0, 61, 35
1, 338997, Note_on_c, 0, 39, 41
1, 339005, Control_c, 0, 64, 90
1, 339024, Control_c, 0, 64, 77
1, 339042, Control_c, 0, 64, 63
1, 339061, Control_c, 0, 64, 51
1, 339076, Note_off_c, 0, 39, 53
1, 339079, Control_c, 0, 64, 36
1, 339099, Control_c, 0, 64, 22
1, 339137, Control_c, 0, 64, 27
1, 339155, Control_c, 0, 64, 36
1, 339173, Control_c, 0, 64, 48
1, 339192, Control_c, 0, 64, 61
1, 339211, Control_c, 0, 64, 71
1, 339230, Control_c, 0, 64, 77
1, 339248, Control_c, 0, 64, 81
1, 339267, Control_c, 0, 64, 86
1, 339268, Note_off_c, 0, 61, 40
1, 339275, Note_on_c, 0, 39, 37
1, 339284, Control_c, 0, 64, 90
1, 339299, Note_off_c, 0, 58, 49
1, 339303, Control_c, 0, 64, 95
1, 339342, Control_c, 0, 64, 100
1, 339362, Note_off_c, 0, 67, 35
1, 339362, Poly_aftertouch_c, 0, 67, 0
1, 339365, Note_off_c, 0, 39, 53
1, 339549, Control_c, 0, 64, 95
1, 339584, Control_c, 0, 64, 89
1, 339591, Note_on_c, 0, 68, 37
1, 339604, Control_c, 0, 64, 84
1, 339610, Note_on_c, 0, 60, 36
1, 339612, Note_on_c, 0, 56, 30
1, 339623, Control_c, 0, 64, 77
1, 339634, Note_on_c, 0, 44, 28
1, 339640, Control_c, 0, 64, 70
1, 339659, Control_c, 0, 64, 62
1, 339678, Control_c, 0, 64, 53
1, 339697, Control_c, 0, 64, 40
1, 339715, Control_c, 0, 64, 18
1, 339734, Control_c, 0, 64, 0
1, 339771, Control_c, 0, 64, 8
1, 339790, Control_c, 0, 64, 23
1, 339809, Control_c, 0, 64, 34
1, 339825, Note_off_c, 0, 44, 35
1, 339828, Control_c, 0, 64, 45
1, 339846, Control_c, 0, 64, 53
1, 339865, Control_c, 0, 64, 60
1, 339883, Control_c, 0, 64, 66
1, 339903, Control_c, 0, 64, 68
1, 340108, Control_c, 0, 64, 67
1, 340164, Control_c, 0, 64, 66
1, 340201, Control_c, 0, 64, 64
1, 340221, Control_c, 0, 64, 63
1, 340258, Control_c, 0, 64, 62
1, 340296, Control_c, 0, 64, 60
1, 340332, Control_c, 0, 64, 58
1, 340351, Control_c, 0, 64, 56
1, 340370, Control_c, 0, 64, 52
1, 340377, Note_on_c, 0, 32, 27
1, 340388, Control_c, 0, 64, 46
1, 340408, Control_c, 0, 64, 36
1, 340426, Control_c, 0, 64, 20
1, 340436, Note_off_c, 0, 56, 36
1, 340444, Control_c, 0, 64, 0
1, 340501, Control_c, 0, 64, 19
1, 340520, Control_c, 0, 64, 32
1, 340538, Control_c, 0, 64, 45
1, 340558, Control_c, 0, 64, 58
1, 340566, Note_off_c, 0, 60, 37
1, 340575, Control_c, 0, 64, 68
1, 340594, Control_c, 0, 64, 72
1, 340613, Control_c, 0, 64, 75
1, 340632, Control_c, 0, 64, 78
1, 340649, Control_c, 0, 64, 80
1, 340657, Note_off_c, 0, 68, 42
1, 340687, Control_c, 0, 64, 83
1, 340693, Note_off_c, 0, 32, 35
1, 340744, Control_c, 0, 64, 85
1, 340931, Control_c, 0, 64, 83
1, 341137, Control_c, 0, 64, 81
1, 341211, Control_c, 0, 64, 79
1, 341268, Control_c, 0, 64, 77
1, 341398, Note_on_c, 0, 60, 12
1, 341660, Control_c, 0, 64, 79
1, 341753, Control_c, 0, 64, 81
1, 341829, Note_on_c, 0, 65, 26
1, 341843, Poly_aftertouch_c, 0, 60, 24
1, 341866, Control_c, 0, 64, 83
1, 341921, Control_c, 0, 64, 85
1, 341969, Note_off_c, 0, 60, 26
1, 341969, Poly_aftertouch_c, 0, 60, 0
1, 341977, Control_c, 0, 64, 88
1, 342081, Note_on_c, 0, 63, 33
1, 342320, Note_off_c, 0, 65, 34
1, 342328, Note_on_c, 0, 44, 25
1, 342330, Note_on_c, 0, 60, 28
1, 342427, Note_off_c, 0, 63, 41
1, 342563, Note_on_c, 0, 51, 32
1, 342569, Poly_aftertouch_c, 0, 60, 24
1, 342586, Note_on_c, 0, 65, 30
1, 342594, Note_off_c, 0, 60, 36
1, 342594, Poly_aftertouch_c, 0, 60, 0
1, 342613, Control_c, 0, 64, 92
1, 342670, Control_c, 0, 64, 97
1, 342726, Control_c, 0, 64, 102
1, 342773, Note_off_c, 0, 44, 38
1, 342780, Note_on_c, 0, 63, 39
1, 342785, Note_on_c, 0, 56, 30
1, 342820, Control_c, 0, 64, 106
1, 342824, Note_off_c, 0, 65, 40
1, 342896, Note_off_c, 0, 51, 26
1, 342896, Poly_aftertouch_c, 0, 51, 0
1, 342972, Note_on_c, 0, 60, 36
1, 342991, Note_on_c, 0, 44, 31
1, 342998, Note_off_c, 0, 56, 21
1, 343103, Note_off_c, 0, 63, 27
1, 343155, Note_on_c, 0, 70, 49
1, 343171, Note_on_c, 0, 51, 35
1, 343194, Note_off_c, 0, 60, 43
1, 343194, Poly_aftertouch_c, 0, 60, 0
1, 343289, Note_off_c, 0, 44, 29
1, 343332, Note_on_c, 0, 56, 30
1, 343355, Note_on_c, 0, 68, 38
1, 343395, Note_off_c, 0, 51, 23
1, 343395, Poly_aftertouch_c, 0, 51, 0
1, 343403, Note_off_c, 0, 70, 33
1, 343500, Note_on_c, 0, 60, 38
1, 343522, Note_off_c, 0, 68, 34
1, 343533, Note_on_c, 0, 44, 29
1, 343546, Note_off_c, 0, 56, 28
1, 343675, Note_off_c, 0, 60, 52
1, 343675, Poly_aftertouch_c, 0, 60, 0
1, 343696, Note_on_c, 0, 70, 46
1, 343716, Note_on_c, 0, 51, 34
1, 343764, Note_off_c, 0, 44, 40
1, 343867, Note_on_c, 0, 68, 45
1, 343883, Note_on_c, 0, 56, 38
1, 343928, Note_off_c, 0, 70, 30
1, 343960, Control_c, 0, 64, 102
1, 344012, Note_off_c, 0, 51, 25
1, 344012, Poly_aftertouch_c, 0, 51, 0
1, 344015, Control_c, 0, 64, 97
1, 344044, Note_on_c, 0, 61, 50
1, 344052, Note_on_c, 0, 46, 43
1, 344052, Control_c, 0, 64, 91
1, 344072, Control_c, 0, 64, 86
1, 344091, Control_c, 0, 64, 81
1, 344103, Note_off_c, 0, 68, 34
1, 344109, Control_c, 0, 64, 74
1, 344110, Note_off_c, 0, 56, 34
1, 344129, Control_c, 0, 64, 69
1, 344146, Control_c, 0, 64, 63
1, 344165, Control_c, 0, 64, 58
1, 344184, Control_c, 0, 64, 53
1, 344203, Control_c, 0, 64, 48
1, 344209, Note_on_c, 0, 68, 37
1, 344222, Control_c, 0, 64, 44
1, 344234, Note_on_c, 0, 51, 32
1, 344259, Control_c, 0, 64, 46
1, 344278, Control_c, 0, 64, 50
1, 344296, Control_c, 0, 64, 55
1, 344316, Control_c, 0, 64, 62
1, 344334, Control_c, 0, 64, 68
1, 344353, Control_c, 0, 64, 71
1, 344355, Note_off_c, 0, 61, 36
1, 344372, Control_c, 0, 64, 74
1, 344384, Note_off_c, 0, 46, 54
1, 344384, Poly_aftertouch_c, 0, 46, 0
1, 344385, Note_on_c, 0, 58, 43
1, 344388, Control_c, 0, 64, 76
1, 344411, Note_on_c, 0, 67, 38
1, 344428, Control_c, 0, 64, 79
1, 344466, Control_c, 0, 64, 82
1, 344487, Note_off_c, 0, 51, 35
1, 344487, Poly_aftertouch_c, 0, 51, 0
1, 344503, Control_c, 0, 64, 85
1, 344521, Control_c, 0, 64, 87
1, 344566, Note_on_c, 0, 61, 47
1, 344576, Control_c, 0, 64, 93
1, 344578, Note_on_c, 0, 46, 38
1, 344593, Note_off_c, 0, 67, 34
1, 344593, Poly_aftertouch_c, 0, 67, 0
1, 344595, Note_off_c, 0, 68, 36
1, 344606, Note_off_c, 0, 58, 33
1, 344613, Control_c, 0, 64, 97
1, 344652, Control_c, 0, 64, 102
1, 344689, Control_c, 0, 64, 107
1, 344727, Control_c, 0, 67, 120
1, 344751, Note_on_c, 0, 67, 48
1, 344758, Note_on_c, 0, 51, 47
1, 344763, Control_c, 0, 67, 113
1, 344772, Note_off_c, 0, 61, 50
1, 344802, Control_c, 0, 64, 111
1, 344803, Control_c, 0, 67, 107
1, 344838, Control_c, 0, 67, 100
1, 344858, Control_c, 0, 67, 95
1, 344861, Note_off_c, 0, 46, 32
1, 344861, Poly_aftertouch_c, 0, 46, 0
1, 344876, Control_c, 0, 64, 116
1, 344878, Control_c, 0, 67, 89
1, 344895, Control_c, 0, 67, 84
1, 344911, Note_on_c, 0, 58, 38
1, 344913, Control_c, 0, 67, 80
1, 344928, Note_on_c, 0, 65, 46
1, 344932, Control_c, 0, 67, 75
1, 344950, Control_c, 0, 67, 70
1, 344970, Control_c, 0, 67, 65
1, 344990, Control_c, 0, 67, 61
1, 345001, Note_off_c, 0, 67, 34
1, 345001, Poly_aftertouch_c, 0, 67, 0
1, 345026, Control_c, 0, 67, 56
1, 345036, Note_off_c, 0, 51, 24
1, 345036, Poly_aftertouch_c, 0, 51, 0
1, 345090, Note_on_c, 0, 61, 46
1, 345101, Control_c, 0, 67, 52
1, 345109, Note_on_c, 0, 46, 40
1, 345138, Note_off_c, 0, 58, 29
1, 345154, Note_off_c, 0, 65, 41
1, 345194, Control_c, 0, 67, 47
1, 345245, Note_off_c, 0, 61, 55
1, 345250, Control_c, 0, 67, 43
1, 345267, Note_on_c, 0, 51, 48
1, 345269, Note_on_c, 0, 67, 46
1, 345302, Note_off_c, 0, 46, 35
1, 345302, Poly_aftertouch_c, 0, 46, 0
1, 345308, Control_c, 0, 64, 120
1, 345325, Control_c, 0, 67, 39
1, 345362, Control_c, 0, 64, 125
1, 345418, Control_c, 0, 67, 35
1, 345433, Note_on_c, 0, 58, 41
1, 345434, Note_on_c, 0, 63, 52
1, 345438, Note_off_c, 0, 67, 34
1, 345438, Poly_aftertouch_c, 0, 67, 0
1, 345492, Note_off_c, 0, 51, 27
1, 345492, Poly_aftertouch_c, 0, 51, 0
1, 345498, Note_off_c, 0, 63, 53
1, 345568, Control_c, 0, 64, 120
1, 345588, Control_c, 0, 64, 115
1, 345606, Control_c, 0, 64, 110
1, 345621, Note_on_c, 0, 48, 45
1, 345623, Note_on_c, 0, 63, 48
1, 345623, Control_c, 0, 64, 100
1, 345632, Note_off_c, 0, 58, 32
1, 345643, Control_c, 0, 64, 86
1, 345663, Control_c, 0, 64, 70
1, 345680, Control_c, 0, 64, 60
1, 345699, Control_c, 0, 64, 56
1, 345737, Control_c, 0, 64, 58
1, 345755, Control_c, 0, 64, 62
1, 345774, Control_c, 0, 64, 68
1, 345785, Note_on_c, 0, 70, 51
1, 345792, Control_c, 0, 64, 74
1, 345794, Note_on_c, 0, 51, 42
1, 345811, Control_c, 0, 64, 80
1, 345830, Control_c, 0, 64, 85
1, 345848, Control_c, 0, 64, 90
1, 345849, Note_off_c, 0, 63, 37
1, 345868, Control_c, 0, 64, 94
1, 345905, Control_c, 0, 64, 102
1, 345906, Control_c, 0, 67, 31
1, 345923, Control_c, 0, 64, 106
1, 345939, Note_off_c, 0, 48, 34
1, 345942, Control_c, 0, 64, 111
1, 345945, Note_on_c, 0, 68, 53
1, 345960, Control_c, 0, 64, 115
1, 345968, Note_on_c, 0, 60, 45
1, 345998, Control_c, 0, 64, 121
1, 346012, Note_off_c, 0, 70, 34
1, 346017, Control_c, 0, 67, 26
1, 346072, Note_off_c, 0, 60, 41
1, 346072, Poly_aftertouch_c, 0, 60, 0
1, 346073, Control_c, 0, 64, 125
1, 346074, Control_c, 0, 67, 20
1, 346080, Note_off_c, 0, 51, 29
1, 346080, Poly_aftertouch_c, 0, 51, 0
1, 346103, Note_on_c, 0, 63, 53
1, 346109, Control_c, 0, 67, 16
1, 346124, Note_on_c, 0, 48, 47
1, 346134, Note_off_c, 0, 68, 38
1, 346166, Control_c, 0, 67, 11
1, 346219, Note_off_c, 0, 48, 58
1, 346250, Note_on_c, 0, 51, 47
1, 346280, Note_on_c, 0, 70, 58
1, 346325, Note_off_c, 0, 63, 38
1, 346343, Note_off_c, 0, 51, 53
1, 346343, Poly_aftertouch_c, 0, 51, 0
1, 346431, Note_on_c, 0, 60, 35
1, 346455, Note_on_c, 0, 68, 55
1, 346463, Note_off_c, 0, 70, 39
1, 346478, Note_off_c, 0, 60, 46
1, 346478, Poly_aftertouch_c, 0, 60, 0
1, 346598, Note_off_c, 0, 68, 58
1, 346615, Control_c, 0, 64, 118
1, 346617, Note_on_c, 0, 43, 52
1, 346620, Note_on_c, 0, 63, 58
1, 346634, Control_c, 0, 64, 110
1, 346652, Control_c, 0, 64, 99
1, 346672, Control_c, 0, 64, 87
1, 346689, Control_c, 0, 64, 75
1, 346709, Control_c, 0, 64, 65
1, 346728, Control_c, 0, 64, 61
1, 346766, Control_c, 0, 64, 62
1, 346782, Control_c, 0, 64, 65
1, 346784, Note_on_c, 0, 72, 61
1, 346790, Note_on_c, 0, 51, 48
1, 346802, Control_c, 0, 64, 69
1, 346821, Control_c, 0, 64, 73
1, 346834, Note_off_c, 0, 43, 57
1, 346838, Control_c, 0, 64, 78
1, 346857, Note_off_c, 0, 63, 49
1, 346858, Control_c, 0, 64, 83
1, 346877, Control_c, 0, 64, 88
1, 346895, Control_c, 0, 64, 94
1, 346915, Control_c, 0, 64, 99
1, 346933, Control_c, 0, 64, 103
1, 346947, Note_on_c, 0, 70, 65
1, 346954, Note_on_c, 0, 55, 47
1, 346957, Note_off_c, 0, 51, 53
1, 346957, Poly_aftertouch_c, 0, 51, 0
1, 346970, Note_off_c, 0, 72, 55
1, 346970, Control_c, 0, 64, 108
1, 347053, Note_off_c, 0, 55, 58
1, 347100, Control_c, 0, 64, 102
1, 347108, Note_on_c, 0, 44, 57
1, 347119, Control_c, 0, 64, 96
1, 347121, Note_off_c, 0, 70, 48
1, 347121, Note_on_c, 0, 63, 54
1, 347139, Control_c, 0, 64, 87
1, 347157, Control_c, 0, 64, 75
1, 347176, Control_c, 0, 64, 67
1, 347195, Control_c, 0, 64, 63
1, 347214, Control_c, 0, 64, 62
1, 347250, Control_c, 0, 64, 65
1, 347265, Note_on_c, 0, 51, 48
1, 347270, Control_c, 0, 64, 68
1, 347282, Note_on_c, 0, 73, 64
1, 347289, Control_c, 0, 64, 73
1, 347306, Control_c, 0, 64, 78
1, 347310, Note_on_c, 0, 70, 48
1, 347326, Control_c, 0, 64, 84
1, 347345, Control_c, 0, 64, 91
1, 347363, Note_off_c, 0, 44, 57
1, 347363, Control_c, 0, 64, 98
1, 347366, Note_off_c, 0, 63, 52
1, 347381, Control_c, 0, 64, 105
1, 347396, Note_off_c, 0, 51, 57
1, 347396, Poly_aftertouch_c, 0, 51, 0
1, 347399, Control_c, 0, 64, 111
1, 347420, Note_on_c, 0, 56, 44
1, 347420, Control_c, 0, 64, 117
1, 347437, Control_c, 0, 64, 122
1, 347467, Note_off_c, 0, 56, 62
1, 347479, Note_on_c, 0, 72, 52
1, 347494, Control_c, 0, 64, 126
1, 347496, Control_c, 0, 67, 16
1, 347516, Note_off_c, 0, 73, 41
1, 347516, Note_on_c, 0, 68, 41
1, 347529, Note_off_c, 0, 70, 40
1, 347533, Control_c, 0, 67, 22
1, 347550, Control_c, 0, 67, 28
1, 347569, Control_c, 0, 67, 33
1, 347587, Control_c, 0, 64, 121
1, 347590, Control_c, 0, 67, 38
1, 347606, Control_c, 0, 64, 117
1, 347608, Control_c, 0, 67, 43
1, 347623, Note_on_c, 0, 39, 56
1, 347625, Control_c, 0, 64, 110
1, 347625, Control_c, 0, 67, 48
1, 347646, Control_c, 0, 64, 97
1, 347647, Control_c, 0, 67, 52
1, 347654, Note_off_c, 0, 72, 34
1, 347657, Note_on_c, 0, 63, 59
1, 347665, Control_c, 0, 64, 82
1, 347666, Control_c, 0, 67, 57
1, 347676, Note_off_c, 0, 68, 57
1, 347682, Control_c, 0, 64, 68
1, 347683, Control_c, 0, 67, 61
1, 347700, Control_c, 0, 64, 62
1, 347701, Control_c, 0, 67, 65
1, 347718, Control_c, 0, 67, 70
1, 347737, Control_c, 0, 64, 65
1, 347739, Control_c, 0, 67, 75
1, 347756, Control_c, 0, 64, 69
1, 347757, Control_c, 0, 67, 79
1, 347774, Control_c, 0, 64, 74
1, 347776, Control_c, 0, 67, 83
1, 347791, Note_off_c, 0, 39, 56
1, 347794, Control_c, 0, 64, 81
1, 347795, Control_c, 0, 67, 87
1, 347812, Note_off_c, 0, 63, 59
1, 347812, Control_c, 0, 64, 88
1, 347822, Note_on_c, 0, 72, 50
1, 347830, Control_c, 0, 64, 96
1, 347831, Note_on_c, 0, 51, 48
1, 347831, Note_on_c, 0, 68, 57
1, 347831, Control_c, 0, 67, 93
1, 347849, Control_c, 0, 64, 101
1, 347869, Control_c, 0, 67, 98
1, 347887, Control_c, 0, 64, 106
1, 347903, Note_off_c, 0, 51, 52
1, 347903, Poly_aftertouch_c, 0, 51, 0
1, 347924, Control_c, 0, 67, 103
1, 348000, Note_on_c, 0, 70, 56
1, 348005, Note_off_c, 0, 68, 53
1, 348023, Note_on_c, 0, 51, 47
1, 348036, Note_off_c, 0, 70, 67
1, 348074, Control_c, 0, 67, 108
1, 348101, Note_off_c, 0, 72, 34
1, 348101, Poly_aftertouch_c, 0, 67, 0
1, 348101, Poly_aftertouch_c, 0, 72, 0
1, 348131, Control_c, 0, 64, 102
1, 348178, Note_on_c, 0, 72, 47
1, 348186, Control_c, 0, 64, 97
1, 348205, Control_c, 0, 64, 92
1, 348223, Control_c, 0, 64, 87
1, 348237, Note_on_c, 0, 42, 52
1, 348240, Control_c, 0, 64, 80
1, 348242, Control_c, 0, 67, 112
1, 348247, Note_on_c, 0, 70, 49
1, 348252, Note_off_c, 0, 51, 41
1, 348252, Poly_aftertouch_c, 0, 51, 0
1, 348259, Control_c, 0, 64, 74
1, 348281, Control_c, 0, 64, 69
1, 348298, Control_c, 0, 64, 63
1, 348312, Note_off_c, 0, 72, 55
1, 348315, Control_c, 0, 64, 59
1, 348337, Control_c, 0, 64, 56
1, 348393, Control_c, 0, 64, 60
1, 348410, Control_c, 0, 64, 63
1, 348424, Note_on_c, 0, 51, 44
1, 348428, Control_c, 0, 64, 67
1, 348436, Note_on_c, 0, 69, 53
1, 348440, Note_off_c, 0, 70, 58
1, 348446, Control_c, 0, 64, 72
1, 348467, Control_c, 0, 64, 77
1, 348485, Control_c, 0, 64, 82
1, 348506, Control_c, 0, 64, 88
1, 348523, Control_c, 0, 64, 95
1, 348541, Control_c, 0, 64, 101
1, 348557, Note_off_c, 0, 69, 60
1, 348557, Poly_aftertouch_c, 0, 69, 0
1, 348560, Control_c, 0, 64, 107
1, 348561, Control_c, 0, 67, 108
1, 348564, Note_off_c, 0, 51, 56
1, 348564, Poly_aftertouch_c, 0, 51, 0
1, 348579, Control_c, 0, 64, 113
1, 348588, Note_on_c, 0, 70, 59
1, 348597, Control_c, 0, 64, 117
1, 348603, Note_on_c, 0, 54, 36
1, 348635, Control_c, 0, 64, 122
1, 348653, Control_c, 0, 67, 104
1, 348654, Note_off_c, 0, 42, 29
1, 348728, Note_on_c, 0, 72, 52
1, 348740, Note_off_c, 0, 54, 46
1, 348777, Note_off_c, 0, 70, 36
1, 348804, Control_c, 0, 64, 118
1, 348840, Control_c, 0, 64, 112
1, 348850, Note_on_c, 0, 41, 43
1, 348860, Control_c, 0, 64, 106
1, 348878, Control_c, 0, 64, 97
1, 348893, Note_on_c, 0, 68, 53
1, 348897, Control_c, 0, 64, 85
1, 348914, Control_c, 0, 64, 73
1, 348934, Control_c, 0, 64, 62
1, 348953, Control_c, 0, 64, 55
1, 348971, Control_c, 0, 64, 52
1, 349010, Control_c, 0, 64, 57
1, 349028, Control_c, 0, 64, 64
1, 349039, Note_off_c, 0, 41, 59
1, 349045, Control_c, 0, 64, 72
1, 349065, Control_c, 0, 64, 77
1, 349071, Note_off_c, 0, 72, 31
1, 349081, Note_on_c, 0, 75, 54
1, 349081, Control_c, 0, 64, 82
1, 349103, Control_c, 0, 64, 87
1, 349109, Note_on_c, 0, 53, 37
1, 349120, Control_c, 0, 64, 92
1, 349140, Control_c, 0, 64, 97
1, 349158, Control_c, 0, 64, 101
1, 349174, Note_off_c, 0, 68, 48
1, 349195, Control_c, 0, 64, 106
1, 349233, Control_c, 0, 67, 99
1, 349235, Note_off_c, 0, 53, 57
1, 349235, Poly_aftertouch_c, 0, 53, 0
1, 349261, Note_on_c, 0, 56, 49
1, 349262, Note_on_c, 0, 73, 55
1, 349270, Control_c, 0, 67, 94
1, 349309, Control_c, 0, 67, 87
1, 349326, Control_c, 0, 67, 82
1, 349346, Control_c, 0, 67, 77
1, 349352, Note_off_c, 0, 75, 37
1, 349364, Control_c, 0, 67, 72
1, 349400, Note_off_c, 0, 56, 50
1, 349402, Control_c, 0, 67, 66
1, 349414, Note_on_c, 0, 68, 58
1, 349422, Note_on_c, 0, 53, 45
1, 349438, Control_c, 0, 67, 61
1, 349442, Note_off_c, 0, 73, 52
1, 349475, Control_c, 0, 64, 110
1, 349495, Control_c, 0, 67, 56
1, 349587, Note_on_c, 0, 56, 59
1, 349587, Control_c, 0, 67, 51
1, 349590, Note_on_c, 0, 75, 66
1, 349644, Control_c, 0, 67, 47
1, 349685, Note_off_c, 0, 68, 38
1, 349716, Note_off_c, 0, 53, 33
1, 349716, Poly_aftertouch_c, 0, 53, 0
1, 349717, Control_c, 0, 67, 43
1, 349730, Note_off_c, 0, 56, 55
1, 349747, Note_on_c, 0, 61, 54
1, 349748, Note_on_c, 0, 73, 66
1, 349794, Control_c, 0, 67, 38
1, 349869, Control_c, 0, 67, 34
1, 349920, Note_on_c, 0, 51, 54
1, 349920, Note_on_c, 0, 68, 60
1, 349921, Note_off_c, 0, 75, 27
1, 349925, Note_off_c, 0, 73, 58
1, 349944, Control_c, 0, 64, 106
1, 349981, Control_c, 0, 64, 100
1, 349999, Control_c, 0, 64, 93
1, 350019, Control_c, 0, 64, 82
1, 350023, Note_off_c, 0, 61, 26
1, 350038, Control_c, 0, 64, 70
1, 350055, Control_c, 0, 64, 63
1, 350073, Control_c, 0, 64, 60
1, 350076, Note_on_c, 0, 73, 66
1, 350096, Note_on_c, 0, 56, 56
1, 350111, Control_c, 0, 67, 30
1, 350132, Control_c, 0, 64, 63
1, 350149, Control_c, 0, 64, 67
1, 350150, Control_c, 0, 67, 25
1, 350163, Note_off_c, 0, 68, 54
1, 350168, Control_c, 0, 64, 71
1, 350187, Control_c, 0, 64, 76
1, 350189, Control_c, 0, 67, 18
1, 350205, Control_c, 0, 64, 80
1, 350206, Control_c, 0, 67, 13
1, 350224, Control_c, 0, 64, 84
1, 350243, Control_c, 0, 64, 87
1, 350257, Note_on_c, 0, 72, 55
1, 350271, Note_on_c, 0, 60, 45
1, 350322, Note_off_c, 0, 51, 36
1, 350322, Poly_aftertouch_c, 0, 51, 0
1, 350338, Control_c, 0, 67, 17
1, 350345, Note_off_c, 0, 60, 54
1, 350345, Poly_aftertouch_c, 0, 60, 0
1, 350374, Control_c, 0, 67, 21
1, 350392, Control_c, 0, 64, 85
1, 350406, Note_off_c, 0, 73, 56
1, 350408, Note_on_c, 0, 68, 60
1, 350410, Control_c, 0, 64, 83
1, 350412, Control_c, 0, 67, 28
1, 350416, Note_on_c, 0, 50, 50
1, 350423, Note_off_c, 0, 72, 58
1, 350429, Control_c, 0, 64, 79
1, 350431, Control_c, 0, 67, 32
1, 350448, Control_c, 0, 64, 74
1, 350450, Control_c, 0, 67, 37
1, 350467, Control_c, 0, 64, 68
1, 350469, Control_c, 0, 67, 42
1, 350486, Control_c, 0, 64, 63
1, 350487, Control_c, 0, 67, 47
1, 350490, Note_off_c, 0, 56, 56
1, 350505, Control_c, 0, 64, 58
1, 350506, Control_c, 0, 67, 51
1, 350524, Control_c, 0, 64, 52
1, 350543, Control_c, 0, 64, 44
1, 350544, Control_c, 0, 67, 57
1, 350561, Control_c, 0, 64, 36
1, 350580, Control_c, 0, 67, 62
1, 350603, Note_on_c, 0, 79, 54
1, 350617, Control_c, 0, 64, 42
1, 350619, Control_c, 0, 67, 67
1, 350624, Note_on_c, 0, 53, 39
1, 350636, Control_c, 0, 64, 50
1, 350652, Note_on_c, 0, 78, 12
1, 350652, Control_c, 0, 64, 59
1, 350653, Control_c, 0, 67, 73
1, 350673, Control_c, 0, 64, 68
1, 350682, Note_off_c, 0, 68, 38
1, 350690, Control_c, 0, 64, 73
1, 350692, Control_c, 0, 67, 77
1, 350711, Control_c, 0, 64, 77
1, 350716, Note_off_c, 0, 50, 57
1, 350728, Control_c, 0, 64, 79
1, 350742, Note_on_c, 0, 58, 45
1, 350747, Control_c, 0, 64, 81
1, 350749, Control_c, 0, 67, 81
1, 350761, Note_on_c, 0, 77, 60
1, 350762, Note_off_c, 0, 78, 23
1, 350762, Poly_aftertouch_c, 0, 78, 0
1, 350763, Note_off_c, 0, 79, 51
1, 350763, Poly_aftertouch_c, 0, 79, 0
1, 350767, Control_c, 0, 64, 84
1, 350784, Control_c, 0, 64, 86
1, 350804, Control_c, 0, 64, 88
1, 350841, Control_c, 0, 67, 85
1, 350875, Note_off_c, 0, 58, 36
1, 350915, Note_on_c, 0, 67, 48
1, 350915, Control_c, 0, 67, 90
1, 350920, Note_off_c, 0, 77, 35
1, 350920, Note_off_c, 0, 53, 35
1, 350920, Poly_aftertouch_c, 0, 53, 0
1, 350932, Note_on_c, 0, 49, 47
1, 350953, Control_c, 0, 64, 84
1, 350974, Control_c, 0, 64, 79
1, 350976, Control_c, 0, 67, 95
1, 350990, Control_c, 0, 64, 72
1, 351010, Control_c, 0, 64, 65
1, 351011, Control_c, 0, 67, 101
1, 351030, Control_c, 0, 64, 60
1, 351047, Control_c, 0, 64, 56
1, 351047, Control_c, 0, 67, 107
1, 351066, Control_c, 0, 64, 52
1, 351069, Note_off_c, 0, 67, 52
1, 351084, Note_on_c, 0, 72, 52
1, 351084, Control_c, 0, 64, 48
1, 351103, Control_c, 0, 67, 111
1, 351111, Note_on_c, 0, 51, 38
1, 351140, Control_c, 0, 64, 52
1, 351159, Control_c, 0, 64, 57
1, 351179, Control_c, 0, 64, 64
1, 351179, Control_c, 0, 67, 116
1, 351196, Control_c, 0, 64, 70
1, 351214, Control_c, 0, 64, 75
1, 351219, Note_off_c, 0, 49, 34
1, 351219, Poly_aftertouch_c, 0, 49, 0
1, 351235, Control_c, 0, 64, 79
1, 351244, Note_on_c, 0, 58, 38
1, 351251, Control_c, 0, 64, 84
1, 351254, Control_c, 0, 67, 120
1, 351266, Note_on_c, 0, 70, 48
1, 351270, Control_c, 0, 64, 89
1, 351290, Control_c, 0, 64, 93
1, 351309, Control_c, 0, 64, 97
1, 351310, Control_c, 0, 67, 125
1, 351335, Note_off_c, 0, 72, 43
1, 351345, Control_c, 0, 64, 101
1, 351349, Note_off_c, 0, 58, 47
1, 351427, Note_on_c, 0, 68, 51
1, 351441, Note_off_c, 0, 51, 40
1, 351441, Poly_aftertouch_c, 0, 51, 0
1, 351442, Note_on_c, 0, 48, 46
1, 351458, Control_c, 0, 64, 93
1, 351462, Note_off_c, 0, 70, 50
1, 351476, Control_c, 0, 64, 86
1, 351496, Control_c, 0, 64, 75
1, 351514, Control_c, 0, 64, 67
1, 351533, Control_c, 0, 64, 66
1, 351551, Control_c, 0, 64, 67
1, 351570, Control_c, 0, 64, 69
1, 351588, Control_c, 0, 64, 72
1, 351594, Note_off_c, 0, 48, 61
1, 351594, Note_on_c, 0, 51, 43
1, 351607, Control_c, 0, 64, 77
1, 351608, Note_on_c, 0, 77, 46
1, 351615, Note_off_c, 0, 68, 50
1, 351626, Control_c, 0, 64, 82
1, 351646, Control_c, 0, 64, 87
1, 351665, Control_c, 0, 64, 92
1, 351682, Control_c, 0, 64, 96
1, 351702, Control_c, 0, 64, 101
1, 351705, Note_off_c, 0, 51, 58
1, 351705, Poly_aftertouch_c, 0, 51, 0
1, 351720, Control_c, 0, 64, 105
1, 351738, Control_c, 0, 64, 110
1, 351757, Control_c, 0, 64, 115
1, 351769, Note_on_c, 0, 56, 48
1, 351775, Note_on_c, 0, 75, 54
1, 351776, Control_c, 0, 64, 120
1, 351778, Note_off_c, 0, 77, 47
1, 351815, Control_c, 0, 64, 125
1, 351820, Note_off_c, 0, 56, 62
1, 351913, Note_off_c, 0, 75, 55
1, 351943, Note_on_c, 0, 41, 57
1, 351943, Control_c, 0, 64, 119
1, 351949, Note_on_c, 0, 68, 49
1, 351964, Control_c, 0, 64, 111
1, 351982, Control_c, 0, 64, 99
1, 351999, Control_c, 0, 64, 84
1, 352020, Control_c, 0, 64, 71
1, 352038, Control_c, 0, 64, 66
1, 352072, Note_off_c, 0, 41, 60
1, 352074, Control_c, 0, 64, 69
1, 352094, Control_c, 0, 64, 72
1, 352097, Note_on_c, 0, 75, 53
1, 352111, Note_on_c, 0, 53, 55
1, 352113, Control_c, 0, 64, 77
1, 352131, Control_c, 0, 64, 84
1, 352150, Control_c, 0, 64, 92
1, 352169, Control_c, 0, 64, 101
1, 352171, Control_c, 0, 67, 120
1, 352178, Note_off_c, 0, 68, 60
1, 352188, Control_c, 0, 64, 108
1, 352188, Control_c, 0, 67, 115
1, 352206, Control_c, 0, 64, 115
1, 352207, Control_c, 0, 67, 109
1, 352225, Control_c, 0, 64, 122
1, 352227, Control_c, 0, 67, 101
1, 352244, Control_c, 0, 64, 127
1, 352245, Control_c, 0, 67, 93
1, 352255, Note_on_c, 0, 56, 60
1, 352261, Note_off_c, 0, 53, 55
1, 352261, Poly_aftertouch_c, 0, 53, 0
1, 352262, Control_c, 0, 67, 86
1, 352271, Note_on_c, 0, 74, 64
1, 352280, Control_c, 0, 67, 81
1, 352284, Note_off_c, 0, 56, 64
1, 352300, Control_c, 0, 67, 77
1, 352305, Note_off_c, 0, 75, 38
1, 352356, Control_c, 0, 67, 72
1, 352368, Note_off_c, 0, 74, 60
1, 352431, Control_c, 0, 64, 115
1, 352437, Note_on_c, 0, 64, 64
1, 352446, Note_on_c, 0, 43, 62
1, 352450, Control_c, 0, 64, 97
1, 352467, Control_c, 0, 64, 80
1, 352487, Control_c, 0, 64, 67
1, 352507, Control_c, 0, 64, 62
1, 352542, Control_c, 0, 64, 65
1, 352563, Control_c, 0, 64, 69
1, 352569, Note_off_c, 0, 43, 62
1, 352581, Control_c, 0, 64, 74
1, 352598, Note_on_c, 0, 75, 66
1, 352598, Control_c, 0, 64, 81
1, 352616, Note_off_c, 0, 64, 61
1, 352616, Note_on_c, 0, 55, 55
1, 352616, Note_on_c, 0, 72, 53
1, 352616, Control_c, 0, 64, 88
1, 352636, Control_c, 0, 64, 97
1, 352638, Control_c, 0, 67, 68
1, 352656, Control_c, 0, 64, 104
1, 352673, Control_c, 0, 64, 112
1, 352674, Control_c, 0, 67, 62
1, 352692, Control_c, 0, 64, 120
1, 352711, Control_c, 0, 64, 127
1, 352712, Control_c, 0, 67, 55
1, 352749, Control_c, 0, 67, 49
1, 352753, Note_off_c, 0, 55, 54
1, 352753, Note_on_c, 0, 58, 63
1, 352773, Note_on_c, 0, 73, 56
1, 352778, Note_on_c, 0, 70, 57
1, 352783, Note_off_c, 0, 75, 61
1, 352785, Control_c, 0, 67, 45
1, 352788, Note_off_c, 0, 58, 65
1, 352835, Note_off_c, 0, 73, 51
1, 352839, Note_off_c, 0, 72, 31
1, 352841, Control_c, 0, 67, 41
1, 352896, Note_off_c, 0, 70, 62
1, 352930, Note_on_c, 0, 63, 68
1, 352930, Note_on_c, 0, 44, 70
1, 352934, Control_c, 0, 64, 116
1, 352953, Control_c, 0, 64, 97
1, 352973, Control_c, 0, 64, 80
1, 352991, Control_c, 0, 64, 70
1, 353038, Note_off_c, 0, 44, 61
1, 353048, Control_c, 0, 64, 74
1, 353066, Control_c, 0, 64, 81
1, 353085, Control_c, 0, 64, 90
1, 353086, Note_on_c, 0, 56, 55
1, 353095, Note_on_c, 0, 73, 61
1, 353102, Control_c, 0, 64, 101
1, 353108, Note_on_c, 0, 70, 58
1, 353123, Control_c, 0, 64, 110
1, 353127, Note_off_c, 0, 63, 55
1, 353134, Note_off_c, 0, 56, 65
1, 353141, Control_c, 0, 64, 117
1, 353160, Control_c, 0, 64, 122
1, 353179, Control_c, 0, 64, 126
1, 353248, Note_on_c, 0, 60, 59
1, 353250, Note_off_c, 0, 73, 62
1, 353256, Note_on_c, 0, 72, 60
1, 353269, Note_on_c, 0, 68, 63
1, 353275, Note_off_c, 0, 60, 62
1, 353275, Poly_aftertouch_c, 0, 60, 0
1, 353339, Note_off_c, 0, 70, 31
1, 353385, Control_c, 0, 64, 121
1, 353402, Control_c, 0, 64, 108
1, 353421, Control_c, 0, 64, 91
1, 353431, Note_on_c, 0, 69, 65
1, 353438, Control_c, 0, 64, 73
1, 353450, Note_on_c, 0, 66, 58
1, 353457, Control_c, 0, 64, 60
1, 353459, Note_on_c, 0, 39, 61
1, 353461, Note_off_c, 0, 72, 59
1, 353473, Poly_aftertouch_c, 0, 70, 0
1, 353476, Control_c, 0, 64, 51
1, 353496, Control_c, 0, 64, 38
1, 353516, Control_c, 0, 64, 28
1, 353545, Note_off_c, 0, 39, 48
1, 353551, Control_c, 0, 64, 34
1, 353571, Control_c, 0, 64, 44
1, 353572, Control_c, 0, 67, 33
1, 353591, Control_c, 0, 64, 58
1, 353592, Control_c, 0, 67, 27
1, 353594, Poly_aftertouch_c, 0, 68, 20
1, 353597, Note_off_c, 0, 68, 19
1, 353597, Poly_aftertouch_c, 0, 68, 0
1, 353609, Control_c, 0, 64, 70
1, 353610, Control_c, 0, 67, 18
1, 353614, Note_on_c, 0, 51, 61
1, 353626, Control_c, 0, 64, 79
1, 353647, Control_c, 0, 64, 86
1, 353650, Control_c, 0, 67, 0
1, 353662, Note_off_c, 0, 51, 59
1, 353662, Poly_aftertouch_c, 0, 51, 0
1, 353664, Control_c, 0, 64, 94
1, 353682, Note_off_c, 0, 69, 53
1, 353682, Poly_aftertouch_c, 0, 69, 0
1, 353682, Control_c, 0, 64, 101
1, 353702, Control_c, 0, 64, 106
1, 353770, Note_on_c, 0, 51, 64
1, 353811, Note_off_c, 0, 51, 62
1, 353811, Poly_aftertouch_c, 0, 51, 0
1, 353932, Note_on_c, 0, 70, 59
1, 353944, Control_c, 0, 64, 100
1, 353948, Note_on_c, 0, 51, 52
1, 353961, Note_on_c, 0, 67, 51
1, 353963, Control_c, 0, 64, 93
1, 353965, Control_c, 0, 67, 9
1, 353982, Control_c, 0, 64, 83
1, 354002, Control_c, 0, 64, 72
1, 354020, Control_c, 0, 64, 61
1, 354039, Control_c, 0, 64, 51
1, 354040, Control_c, 0, 67, 13
1, 354059, Control_c, 0, 64, 39
1, 354075, Control_c, 0, 64, 26
1, 354082, Note_off_c, 0, 66, 33
1, 354084, Note_off_c, 0, 51, 54
1, 354084, Poly_aftertouch_c, 0, 51, 0
1, 354095, Control_c, 0, 64, 21
1, 354096, Control_c, 0, 67, 19
1, 354112, Note_on_c, 0, 53, 51
1, 354133, Control_c, 0, 64, 33
1, 354133, Control_c, 0, 67, 26
1, 354151, Control_c, 0, 64, 47
1, 354152, Control_c, 0, 67, 30
1, 354159, Note_off_c, 0, 67, 55
1, 354170, Control_c, 0, 64, 61
1, 354171, Control_c, 0, 67, 34
1, 354189, Control_c, 0, 64, 73
1, 354190, Control_c, 0, 67, 38
1, 354208, Control_c, 0, 64, 80
1, 354209, Control_c, 0, 67, 42
1, 354225, Control_c, 0, 64, 88
1, 354227, Control_c, 0, 67, 48
1, 354244, Control_c, 0, 64, 97
1, 354246, Control_c, 0, 67, 54
1, 354264, Control_c, 0, 64, 104
1, 354265, Control_c, 0, 67, 59
1, 354268, Note_off_c, 0, 70, 61
1, 354271, Note_off_c, 0, 53, 60
1, 354271, Poly_aftertouch_c, 0, 53, 0
1, 354273, Note_on_c, 0, 51, 52
1, 354282, Control_c, 0, 64, 108
1, 354283, Control_c, 0, 67, 63
1, 354301, Control_c, 0, 67, 67
1, 354319, Control_c, 0, 67, 71
1, 354338, Control_c, 0, 67, 76
1, 354356, Control_c, 0, 67, 81
1, 354375, Control_c, 0, 67, 87
1, 354389, Note_off_c, 0, 51, 54
1, 354389, Poly_aftertouch_c, 0, 51, 0
1, 354412, Control_c, 0, 67, 93
1, 354450, Control_c, 0, 67, 98
1, 354469, Control_c, 0, 64, 103
1, 354471, Note_on_c, 0, 63, 57
1, 354474, Note_on_c, 0, 49, 48
1, 354487, Control_c, 0, 67, 105
1, 354506, Control_c, 0, 64, 96
1, 354508, Control_c, 0, 67, 109
1, 354524, Control_c, 0, 64, 89
1, 354543, Control_c, 0, 64, 81
1, 354544, Control_c, 0, 67, 115
1, 354562, Control_c, 0, 64, 73
1, 354581, Control_c, 0, 64, 69
1, 354583, Control_c, 0, 67, 120
1, 354613, Note_off_c, 0, 63, 54
1, 354619, Note_on_c, 0, 75, 53
1, 354649, Note_on_c, 0, 48, 42
1, 354654, Control_c, 0, 64, 71
1, 354660, Note_off_c, 0, 49, 48
1, 354660, Poly_aftertouch_c, 0, 49, 0
1, 354693, Control_c, 0, 64, 74
1, 354713, Control_c, 0, 64, 77
1, 354731, Control_c, 0, 64, 81
1, 354732, Control_c, 0, 67, 116
1, 354742, Note_off_c, 0, 75, 53
1, 354749, Control_c, 0, 64, 86
1, 354768, Note_on_c, 0, 63, 54
1, 354768, Control_c, 0, 64, 91
1, 354768, Control_c, 0, 67, 109
1, 354787, Control_c, 0, 67, 103
1, 354805, Control_c, 0, 64, 97
1, 354806, Note_on_c, 0, 46, 45
1, 354806, Control_c, 0, 67, 95
1, 354807, Note_off_c, 0, 48, 58
1, 354823, Control_c, 0, 67, 85
1, 354843, Control_c, 0, 67, 76
1, 354861, Control_c, 0, 64, 102
1, 354862, Control_c, 0, 67, 69
1, 354879, Control_c, 0, 67, 65
1, 354902, Note_on_c, 0, 75, 56
1, 354905, Note_off_c, 0, 63, 50
1, 354992, Control_c, 0, 64, 96
1, 355011, Control_c, 0, 64, 91
1, 355030, Control_c, 0, 64, 82
1, 355035, Note_off_c, 0, 46, 48
1, 355035, Poly_aftertouch_c, 0, 46, 0
1, 355039, Note_off_c, 0, 75, 46
1, 355043, Note_on_c, 0, 44, 47
1, 355049, Control_c, 0, 64, 70
1, 355063, Note_on_c, 0, 63, 53
1, 355066, Control_c, 0, 64, 61
1, 355085, Control_c, 0, 64, 53
1, 355104, Control_c, 0, 64, 45
1, 355123, Control_c, 0, 64, 40
1, 355142, Control_c, 0, 67, 69
1, 355160, Control_c, 0, 64, 44
1, 355179, Control_c, 0, 64, 50
1, 355198, Control_c, 0, 64, 56
1, 355204, Note_on_c, 0, 75, 51
1, 355205, Note_on_c, 0, 51, 43
1, 355216, Control_c, 0, 64, 63
1, 355218, Note_off_c, 0, 63, 59
1, 355235, Control_c, 0, 64, 67
1, 355255, Control_c, 0, 64, 70
1, 355273, Control_c, 0, 64, 72
1, 355291, Control_c, 0, 64, 74
1, 355310, Control_c, 0, 64, 76
1, 355329, Note_off_c, 0, 51, 51
1, 355329, Poly_aftertouch_c, 0, 51, 0
1, 355347, Control_c, 0, 64, 78
1, 355360, Note_off_c, 0, 75, 53
1, 355363, Note_on_c, 0, 56, 35
1, 355391, Note_on_c, 0, 77, 36
1, 355404, Control_c, 0, 64, 81
1, 355443, Note_off_c, 0, 56, 53
1, 355459, Control_c, 0, 64, 83
1, 355494, Note_on_c, 0, 51, 48
1, 355502, Note_off_c, 0, 77, 33
1, 355502, Note_on_c, 0, 75, 54
1, 355568, Note_off_c, 0, 51, 51
1, 355568, Poly_aftertouch_c, 0, 51, 0
1, 355620, Note_on_c, 0, 68, 60
1, 355624, Note_off_c, 0, 75, 50
1, 355640, Note_on_c, 0, 48, 39
1, 355643, Note_off_c, 0, 44, 36
1, 355665, Control_c, 0, 64, 85
1, 355703, Control_c, 0, 64, 87
1, 355757, Control_c, 0, 64, 91
1, 355763, Note_on_c, 0, 75, 63
1, 355767, Note_on_c, 0, 51, 45
1, 355777, Control_c, 0, 67, 65
1, 355780, Note_off_c, 0, 68, 53
1, 355780, Poly_aftertouch_c, 0, 68, 0
1, 355796, Control_c, 0, 64, 95
1, 355829, Note_off_c, 0, 51, 53
1, 355829, Poly_aftertouch_c, 0, 51, 0
1, 355832, Control_c, 0, 64, 100
1, 355835, Note_off_c, 0, 48, 31
1, 355852, Control_c, 0, 67, 60
1, 355874, Note_on_c, 0, 56, 39
1, 355883, Note_off_c, 0, 75, 54
1, 355889, Control_c, 0, 64, 105
1, 355890, Control_c, 0, 67, 56
1, 355898, Note_on_c, 0, 77, 48
1, 355947, Control_c, 0, 67, 51
1, 355964, Control_c, 0, 64, 109
1, 355980, Note_off_c, 0, 56, 45
1, 355993, Note_on_c, 0, 51, 40
1, 356032, Note_on_c, 0, 75, 56
1, 356058, Control_c, 0, 64, 113
1, 356072, Note_off_c, 0, 77, 31
1, 356072, Note_off_c, 0, 51, 45
1, 356072, Poly_aftertouch_c, 0, 51, 0
1, 356125, Note_off_c, 0, 75, 40
1, 356131, Note_on_c, 0, 68, 63
1, 356147, Note_on_c, 0, 48, 44
1, 356170, Control_c, 0, 64, 117
1, 356209, Control_c, 0, 67, 47
1, 356256, Note_on_c, 0, 75, 63
1, 356279, Note_on_c, 0, 51, 47
1, 356300, Control_c, 0, 64, 121
1, 356308, Note_off_c, 0, 48, 32
1, 356320, Control_c, 0, 67, 41
1, 356327, Note_off_c, 0, 68, 36
1, 356327, Poly_aftertouch_c, 0, 68, 0
1, 356370, Note_off_c, 0, 51, 50
1, 356370, Poly_aftertouch_c, 0, 51, 0
1, 356372, Note_off_c, 0, 75, 56
1, 356374, Control_c, 0, 67, 36
1, 356380, Note_on_c, 0, 77, 49
1, 356410, Note_on_c, 0, 56, 36
1, 356431, Control_c, 0, 67, 31
1, 356486, Note_off_c, 0, 77, 53
1, 356498, Note_off_c, 0, 56, 48
1, 356522, Note_on_c, 0, 75, 47
1, 356535, Note_on_c, 0, 51, 46
1, 356600, Control_c, 0, 67, 35
1, 356604, Note_off_c, 0, 51, 48
1, 356604, Poly_aftertouch_c, 0, 51, 0
1, 356619, Control_c, 0, 64, 116
1, 356638, Control_c, 0, 64, 108
1, 356644, Note_off_c, 0, 75, 37
1, 356650, Note_on_c, 0, 68, 57
1, 356657, Control_c, 0, 64, 92
1, 356675, Control_c, 0, 64, 74
1, 356677, Control_c, 0, 67, 40
1, 356693, Note_on_c, 0, 46, 37
1, 356693, Control_c, 0, 64, 61
1, 356713, Control_c, 0, 64, 55
1, 356714, Control_c, 0, 67, 45
1, 356750, Control_c, 0, 67, 50
1, 356766, Poly_aftertouch_c, 0, 77, 127
1, 356766, Control_c, 0, 64, 61
1, 356784, Note_on_c, 0, 75, 56
1, 356787, Control_c, 0, 64, 67
1, 356788, Control_c, 0, 67, 56
1, 356793, Poly_aftertouch_c, 0, 77, 0
1, 356806, Note_on_c, 0, 51, 46
1, 356806, Control_c, 0, 64, 73
1, 356825, Control_c, 0, 64, 77
1, 356843, Control_c, 0, 64, 80
1, 356844, Control_c, 0, 67, 60
1, 356846, Note_off_c, 0, 68, 60
1, 356846, Poly_aftertouch_c, 0, 68, 0
1, 356862, Control_c, 0, 64, 83
1, 356881, Control_c, 0, 64, 85
1, 356890, Note_off_c, 0, 51, 51
1, 356890, Poly_aftertouch_c, 0, 51, 0
1, 356897, Control_c, 0, 64, 87
1, 356926, Note_on_c, 0, 67, 61
1, 356928, Note_on_c, 0, 55, 41
1, 356942, Note_off_c, 0, 75, 48
1, 356956, Control_c, 0, 64, 91
1, 356996, Note_off_c, 0, 55, 56
1, 357005, Poly_aftertouch_c, 0, 46, 24
1, 357010, Control_c, 0, 64, 96
1, 357045, Note_off_c, 0, 67, 54
1, 357050, Note_on_c, 0, 75, 58
1, 357057, Note_on_c, 0, 51, 49
1, 357068, Control_c, 0, 64, 101
1, 357105, Note_off_c, 0, 46, 19
1, 357105, Poly_aftertouch_c, 0, 46, 0
1, 357124, Control_c, 0, 64, 107
1, 357154, Note_off_c, 0, 51, 39
1, 357154, Poly_aftertouch_c, 0, 51, 0
1, 357177, Note_on_c, 0, 67, 68
1, 357179, Control_c, 0, 64, 111
1, 357190, Note_off_c, 0, 75, 48
1, 357190, Note_on_c, 0, 49, 51
1, 357255, Control_c, 0, 64, 115
1, 357284, Note_off_c, 0, 67, 56
1, 357301, Note_off_c, 0, 49, 51
1, 357301, Poly_aftertouch_c, 0, 49, 0
1, 357310, Note_on_c, 0, 75, 60
1, 357328, Note_on_c, 0, 51, 47
1, 357391, Note_off_c, 0, 51, 54
1, 357391, Poly_aftertouch_c, 0, 51, 0
1, 357404, Control_c, 0, 64, 119
1, 357420, Note_on_c, 0, 65, 71
1, 357434, Note_on_c, 0, 58, 48
1, 357436, Note_off_c, 0, 75, 59
1, 357513, Note_off_c, 0, 58, 52
1, 357531, Note_off_c, 0, 65, 49
1, 357554, Control_c, 0, 67, 56
1, 357556, Note_on_c, 0, 51, 45
1, 357574, Note_on_c, 0, 75, 54
1, 357629, Control_c, 0, 67, 50
1, 357649, Note_off_c, 0, 51, 46
1, 357649, Poly_aftertouch_c, 0, 51, 0
1, 357666, Control_c, 0, 67, 43
1, 357672, Note_on_c, 0, 67, 65
1, 357691, Note_off_c, 0, 75, 59
1, 357696, Note_on_c, 0, 49, 49
1, 357702, Control_c, 0, 67, 37
1, 357722, Control_c, 0, 64, 123
1, 357738, Note_off_c, 0, 67, 60
1, 357760, Control_c, 0, 67, 33
1, 357777, Control_c, 0, 64, 127
1, 357798, Note_off_c, 0, 49, 44
1, 357798, Poly_aftertouch_c, 0, 49, 0
1, 357813, Note_on_c, 0, 75, 52
1, 357823, Note_on_c, 0, 51, 49
1, 357880, Note_off_c, 0, 51, 56
1, 357880, Poly_aftertouch_c, 0, 51, 0
1, 357930, Note_on_c, 0, 58, 46
1, 357931, Note_on_c, 0, 63, 70
1, 357937, Note_off_c, 0, 75, 40
1, 357994, Note_off_c, 0, 58, 53
1, 358017, Note_off_c, 0, 63, 57
1, 358048, Note_on_c, 0, 51, 50
1, 358065, Note_on_c, 0, 75, 63
1, 358114, Control_c, 0, 67, 37
1, 358152, Control_c, 0, 64, 121
1, 358167, Note_off_c, 0, 51, 47
1, 358167, Poly_aftertouch_c, 0, 51, 0
1, 358170, Control_c, 0, 64, 110
1, 358189, Control_c, 0, 64, 93
1, 358190, Control_c, 0, 67, 41
1, 358205, Note_on_c, 0, 68, 64
1, 358208, Control_c, 0, 64, 74
1, 358217, Note_off_c, 0, 75, 57
1, 358223, Note_on_c, 0, 48, 42
1, 358226, Control_c, 0, 64, 59
1, 358227, Control_c, 0, 67, 46
1, 358245, Control_c, 0, 64, 51
1, 358284, Control_c, 0, 67, 50
1, 358301, Control_c, 0, 64, 56
1, 358318, Control_c, 0, 64, 63
1, 358323, Note_on_c, 0, 75, 58
1, 358334, Note_on_c, 0, 51, 54
1, 358337, Control_c, 0, 64, 70
1, 358358, Control_c, 0, 64, 76
1, 358376, Control_c, 0, 64, 81
1, 358377, Note_off_c, 0, 48, 35
1, 358396, Control_c, 0, 64, 86
1, 358413, Note_off_c, 0, 51, 52
1, 358413, Poly_aftertouch_c, 0, 51, 0
1, 358413, Control_c, 0, 64, 91
1, 358442, Note_off_c, 0, 68, 35
1, 358442, Poly_aftertouch_c, 0, 68, 0
1, 358449, Control_c, 0, 64, 99
1, 358454, Note_off_c, 0, 75, 60
1, 358456, Note_on_c, 0, 56, 41
1, 358457, Note_on_c, 0, 77, 60
1, 358470, Control_c, 0, 64, 103
1, 358489, Control_c, 0, 64, 108
1, 358507, Control_c, 0, 64, 113
1, 358531, Note_off_c, 0, 56, 51
1, 358545, Control_c, 0, 64, 119
1, 358558, Note_on_c, 0, 51, 60
1, 358581, Note_on_c, 0, 75, 70
1, 358581, Control_c, 0, 64, 123
1, 358615, Note_off_c, 0, 77, 38
1, 358638, Note_off_c, 0, 51, 48
1, 358638, Poly_aftertouch_c, 0, 51, 0
1, 358638, Control_c, 0, 64, 127
1, 358656, Control_c, 0, 67, 46
1, 358677, Note_on_c, 0, 48, 60
1, 358683, Note_on_c, 0, 68, 78
1, 358704, Note_off_c, 0, 75, 58
1, 358761, Note_off_c, 0, 48, 59
1, 358769, Control_c, 0, 67, 40
1, 358797, Note_on_c, 0, 51, 53
1, 358805, Control_c, 0, 67, 35
1, 358825, Note_on_c, 0, 75, 69
1, 358844, Control_c, 0, 67, 31
1, 358855, Note_off_c, 0, 51, 55
1, 358855, Poly_aftertouch_c, 0, 51, 0
1, 358899, Note_on_c, 0, 56, 43
1, 358899, Control_c, 0, 67, 27
1, 358912, Note_off_c, 0, 68, 37
1, 358912, Poly_aftertouch_c, 0, 68, 0
1, 358913, Note_off_c, 0, 75, 61
1, 358939, Note_off_c, 0, 56, 64
1, 358941, Note_on_c, 0, 77, 62
1, 359003, Note_on_c, 0, 51, 52
1, 359056, Note_on_c, 0, 75, 66
1, 359097, Note_off_c, 0, 77, 43
1, 359124, Control_c, 0, 64, 107
1, 359143, Control_c, 0, 64, 86
1, 359153, Note_off_c, 0, 51, 55
1, 359153, Poly_aftertouch_c, 0, 51, 0
1, 359156, Note_on_c, 0, 43, 64
1, 359160, Control_c, 0, 64, 68
1, 359166, Note_on_c, 0, 70, 74
1, 359181, Control_c, 0, 64, 60
1, 359188, Note_off_c, 0, 75, 60
1, 359219, Control_c, 0, 64, 63
1, 359237, Control_c, 0, 64, 67
1, 359237, Control_c, 0, 67, 23
1, 359254, Control_c, 0, 64, 73
1, 359274, Control_c, 0, 64, 80
1, 359275, Control_c, 0, 67, 19
1, 359293, Control_c, 0, 64, 88
1, 359306, Note_on_c, 0, 51, 61
1, 359307, Note_off_c, 0, 43, 57
1, 359311, Control_c, 0, 64, 97
1, 359313, Control_c, 0, 67, 14
1, 359315, Note_on_c, 0, 75, 69
1, 359330, Control_c, 0, 64, 106
1, 359349, Control_c, 0, 64, 115
1, 359368, Control_c, 0, 64, 123
1, 359386, Control_c, 0, 64, 127
1, 359400, Note_off_c, 0, 51, 52
1, 359400, Poly_aftertouch_c, 0, 51, 0
1, 359404, Note_on_c, 0, 55, 55
1, 359411, Note_off_c, 0, 75, 61
1, 359428, Note_on_c, 0, 77, 65
1, 359462, Control_c, 0, 67, 0
1, 359508, Note_off_c, 0, 55, 58
1, 359544, Note_on_c, 0, 51, 51
1, 359549, Note_off_c, 0, 70, 45
1, 359559, Note_on_c, 0, 75, 65
1, 359612, Control_c, 0, 64, 123
1, 359629, Control_c, 0, 64, 107
1, 359644, Note_off_c, 0, 51, 55
1, 359644, Poly_aftertouch_c, 0, 51, 0
1, 359647, Note_on_c, 0, 44, 62
1, 359648, Control_c, 0, 64, 88
1, 359665, Note_on_c, 0, 72, 68
1, 359669, Control_c, 0, 64, 72
1, 359674, Note_on_c, 0, 68, 63
1, 359677, Note_off_c, 0, 77, 32
1, 359680, Note_off_c, 0, 75, 58
1, 359687, Control_c, 0, 64, 64
1, 359705, Control_c, 0, 64, 63
1, 359722, Control_c, 0, 64, 64
1, 359742, Control_c, 0, 64, 67
1, 359760, Control_c, 0, 64, 70
1, 359779, Control_c, 0, 64, 75
1, 359794, Note_on_c, 0, 51, 50
1, 359796, Control_c, 0, 64, 81
1, 359808, Note_on_c, 0, 75, 72
1, 359809, Note_off_c, 0, 44, 55
1, 359815, Control_c, 0, 64, 88
1, 359835, Control_c, 0, 64, 97
1, 359851, Note_off_c, 0, 72, 56
1, 359853, Control_c, 0, 64, 106
1, 359863, Note_off_c, 0, 51, 57
1, 359863, Poly_aftertouch_c, 0, 51, 0
1, 359871, Control_c, 0, 64, 114
1, 359888, Note_on_c, 0, 56, 54
1, 359890, Note_off_c, 0, 75, 61
1, 359890, Control_c, 0, 64, 123
1, 359910, Control_c, 0, 64, 127
1, 359923, Note_on_c, 0, 77, 62
1, 359977, Note_off_c, 0, 56, 55
1, 359995, Note_off_c, 0, 68, 39
1, 359995, Poly_aftertouch_c, 0, 68, 0
1, 360016, Note_on_c, 0, 51, 51
1, 360033, Note_on_c, 0, 75, 71
1, 360059, Note_off_c, 0, 51, 55
1, 360059, Poly_aftertouch_c, 0, 51, 0
1, 360077, Note_off_c, 0, 77, 54
1, 360149, Note_on_c, 0, 39, 72
1, 360153, Control_c, 0, 64, 107
1, 360169, Note_on_c, 0, 70, 68
1, 360172, Note_on_c, 0, 67, 58
1, 360173, Control_c, 0, 64, 88
1, 360175, Note_off_c, 0, 75, 63
1, 360190, Control_c, 0, 64, 76
1, 360209, Control_c, 0, 64, 74
1, 360227, Control_c, 0, 64, 76
1, 360242, Note_off_c, 0, 39, 61
1, 360245, Control_c, 0, 64, 79
1, 360265, Control_c, 0, 64, 83
1, 360284, Control_c, 0, 64, 91
1, 360291, Note_on_c, 0, 51, 64
1, 360303, Note_on_c, 0, 75, 72
1, 360303, Control_c, 0, 64, 102
1, 360321, Control_c, 0, 64, 112
1, 360341, Control_c, 0, 64, 120
1, 360357, Note_off_c, 0, 70, 60
1, 360359, Control_c, 0, 64, 126
1, 360378, Note_off_c, 0, 75, 61
1, 360401, Note_off_c, 0, 51, 52
1, 360401, Note_on_c, 0, 77, 69
1, 360401, Poly_aftertouch_c, 0, 51, 0
1, 360432, Note_on_c, 0, 55, 46
1, 360434, Note_off_c, 0, 67, 30
1, 360493, Note_off_c, 0, 55, 58
1, 360531, Note_on_c, 0, 75, 63
1, 360551, Note_on_c, 0, 51, 53
1, 360583, Control_c, 0, 64, 115
1, 360603, Control_c, 0, 64, 97
1, 360620, Control_c, 0, 64, 78
1, 360623, Note_on_c, 0, 72, 62
1, 360639, Control_c, 0, 64, 61
1, 360649, Note_off_c, 0, 51, 50
1, 360649, Poly_aftertouch_c, 0, 51, 0
1, 360652, Note_on_c, 0, 42, 63
1, 360656, Control_c, 0, 64, 47
1, 360677, Control_c, 0, 64, 30
1, 360690, Note_on_c, 0, 70, 69
1, 360696, Control_c, 0, 64, 17
1, 360732, Control_c, 0, 64, 25
1, 360751, Control_c, 0, 64, 34
1, 360758, Note_off_c, 0, 72, 57
1, 360770, Control_c, 0, 64, 46
1, 360788, Control_c, 0, 64, 58
1, 360807, Control_c, 0, 64, 68
1, 360810, Note_on_c, 0, 51, 60
1, 360812, Note_off_c, 0, 70, 63
1, 360812, Note_on_c, 0, 69, 66
1, 360826, Control_c, 0, 64, 75
1, 360845, Control_c, 0, 64, 80
1, 360863, Control_c, 0, 64, 86
1, 360884, Control_c, 0, 64, 94
1, 360893, Note_off_c, 0, 51, 60
1, 360893, Poly_aftertouch_c, 0, 51, 0
1, 360901, Note_off_c, 0, 77, 50
1, 360901, Control_c, 0, 64, 103
1, 360919, Control_c, 0, 64, 114
1, 360921, Note_on_c, 0, 54, 53
1, 360938, Control_c, 0, 64, 124
1, 360945, Note_on_c, 0, 70, 62
1, 360960, Note_off_c, 0, 75, 44
1, 360964, Note_off_c, 0, 69, 52
1, 360964, Poly_aftertouch_c, 0, 69, 0
1, 360966, Note_off_c, 0, 42, 28
1, 361036, Note_on_c, 0, 51, 48
1, 361061, Note_off_c, 0, 70, 65
1, 361061, Note_on_c, 0, 72, 64
1, 361075, Note_off_c, 0, 51, 55
1, 361075, Poly_aftertouch_c, 0, 51, 0
1, 361093, Note_off_c, 0, 54, 35
1, 361106, Note_off_c, 0, 72, 62
1, 361119, Note_on_c, 0, 73, 7
1, 361201, Note_off_c, 0, 73, 27
1, 361219, Control_c, 0, 64, 115
1, 361234, Note_on_c, 0, 73, 58
1, 361236, Control_c, 0, 64, 91
1, 361242, Note_on_c, 0, 41, 64
1, 361256, Control_c, 0, 64, 66
1, 361274, Control_c, 0, 64, 48
1, 361293, Control_c, 0, 64, 34
1, 361331, Control_c, 0, 64, 40
1, 361349, Control_c, 0, 64, 53
1, 361359, Note_off_c, 0, 41, 62
1, 361368, Control_c, 0, 64, 68
1, 361388, Control_c, 0, 64, 80
1, 361397, Note_on_c, 0, 80, 66
1, 361405, Control_c, 0, 64, 92
1, 361412, Note_on_c, 0, 53, 58
1, 361424, Control_c, 0, 64, 106
1, 361443, Control_c, 0, 64, 119
1, 361462, Control_c, 0, 64, 126
1, 361481, Note_off_c, 0, 53, 56
1, 361481, Poly_aftertouch_c, 0, 53, 0
1, 361521, Note_off_c, 0, 73, 38
1, 361542, Note_on_c, 0, 56, 60
1, 361548, Note_on_c, 0, 82, 71
1, 361566, Note_off_c, 0, 80, 56
1, 361617, Note_off_c, 0, 56, 60
1, 361676, Note_on_c, 0, 80, 73
1, 361680, Note_on_c, 0, 61, 54
1, 361699, Note_off_c, 0, 82, 54
1, 361768, Note_on_c, 0, 53, 61
1, 361782, Note_off_c, 0, 61, 46
1, 361785, Note_on_c, 0, 73, 80
1, 361794, Note_off_c, 0, 80, 56
1, 361906, Note_on_c, 0, 56, 57
1, 361913, Note_on_c, 0, 80, 75
1, 361987, Note_off_c, 0, 56, 58
1, 362002, Note_on_c, 0, 61, 48
1, 362008, Note_off_c, 0, 80, 61
1, 362027, Note_on_c, 0, 82, 67
1, 362108, Note_off_c, 0, 53, 19
1, 362108, Poly_aftertouch_c, 0, 53, 0
1, 362128, Note_off_c, 0, 61, 50
1, 362133, Note_on_c, 0, 56, 57
1, 362148, Note_on_c, 0, 80, 69
1, 362184, Note_off_c, 0, 82, 55
1, 362186, Note_off_c, 0, 73, 56
1, 362247, Control_c, 0, 67, 8
1, 362262, Note_off_c, 0, 56, 50
1, 362262, Note_on_c, 0, 51, 62
1, 362265, Control_c, 0, 64, 122
1, 362268, Note_on_c, 0, 72, 80
1, 362284, Control_c, 0, 64, 106
1, 362288, Note_off_c, 0, 80, 61
1, 362304, Control_c, 0, 64, 87
1, 362323, Control_c, 0, 64, 72
1, 362340, Control_c, 0, 64, 65
1, 362379, Control_c, 0, 64, 67
1, 362396, Note_on_c, 0, 80, 67
1, 362396, Control_c, 0, 64, 70
1, 362414, Control_c, 0, 64, 75
1, 362415, Control_c, 0, 67, 12
1, 362417, Note_on_c, 0, 56, 56
1, 362434, Control_c, 0, 64, 82
1, 362454, Control_c, 0, 64, 91
1, 362470, Note_off_c, 0, 56, 59
1, 362470, Control_c, 0, 64, 101
1, 362484, Note_off_c, 0, 80, 59
1, 362490, Control_c, 0, 64, 111
1, 362491, Control_c, 0, 67, 17
1, 362509, Note_on_c, 0, 82, 71
1, 362509, Control_c, 0, 64, 119
1, 362524, Note_on_c, 0, 60, 49
1, 362528, Control_c, 0, 64, 126
1, 362528, Control_c, 0, 67, 22
1, 362564, Control_c, 0, 67, 27
1, 362574, Note_off_c, 0, 51, 22
1, 362574, Poly_aftertouch_c, 0, 51, 0
1, 362576, Note_off_c, 0, 60, 53
1, 362576, Poly_aftertouch_c, 0, 60, 0
1, 362602, Control_c, 0, 67, 33
1, 362618, Note_on_c, 0, 56, 57
1, 362640, Control_c, 0, 67, 38
1, 362645, Note_on_c, 0, 80, 65
1, 362676, Control_c, 0, 67, 42
1, 362685, Note_off_c, 0, 82, 51
1, 362705, Note_off_c, 0, 72, 35
1, 362714, Control_c, 0, 67, 46
1, 362738, Note_off_c, 0, 56, 52
1, 362747, Note_on_c, 0, 50, 60
1, 362750, Note_on_c, 0, 77, 75
1, 362751, Control_c, 0, 64, 119
1, 362753, Control_c, 0, 67, 51
1, 362771, Control_c, 0, 64, 103
1, 362772, Note_off_c, 0, 80, 60
1, 362790, Control_c, 0, 64, 86
1, 362791, Control_c, 0, 67, 59
1, 362808, Control_c, 0, 64, 71
1, 362827, Control_c, 0, 64, 63
1, 362828, Control_c, 0, 67, 64
1, 362845, Control_c, 0, 64, 61
1, 362863, Note_off_c, 0, 50, 61
1, 362864, Control_c, 0, 67, 69
1, 362878, Note_on_c, 0, 80, 72
1, 362879, Note_on_c, 0, 53, 52
1, 362882, Control_c, 0, 64, 64
1, 362904, Control_c, 0, 64, 68
1, 362905, Control_c, 0, 67, 76
1, 362920, Control_c, 0, 64, 73
1, 362939, Control_c, 0, 64, 80
1, 362940, Control_c, 0, 67, 82
1, 362958, Note_off_c, 0, 80, 62
1, 362958, Control_c, 0, 64, 87
1, 362973, Note_off_c, 0, 53, 57
1, 362973, Poly_aftertouch_c, 0, 53, 0
1, 362975, Control_c, 0, 64, 95
1, 362977, Control_c, 0, 67, 87
1, 362987, Note_on_c, 0, 82, 70
1, 362995, Control_c, 0, 64, 103
1, 362996, Note_on_c, 0, 58, 56
1, 363013, Control_c, 0, 64, 111
1, 363015, Control_c, 0, 67, 91
1, 363033, Control_c, 0, 64, 119
1, 363051, Control_c, 0, 64, 126
1, 363056, Note_off_c, 0, 77, 49
1, 363069, Control_c, 0, 67, 96
1, 363082, Note_off_c, 0, 58, 53
1, 363098, Note_on_c, 0, 80, 69
1, 363124, Note_on_c, 0, 53, 43
1, 363127, Control_c, 0, 67, 102
1, 363133, Note_off_c, 0, 82, 48
1, 363163, Control_c, 0, 67, 107
1, 363201, Control_c, 0, 67, 112
1, 363229, Note_on_c, 0, 70, 70
1, 363230, Note_off_c, 0, 53, 51
1, 363230, Poly_aftertouch_c, 0, 53, 0
1, 363237, Note_on_c, 0, 49, 58
1, 363239, Control_c, 0, 64, 119
1, 363240, Control_c, 0, 67, 116
1, 363257, Control_c, 0, 64, 108
1, 363265, Note_off_c, 0, 80, 50
1, 363275, Control_c, 0, 64, 93
1, 363276, Control_c, 0, 67, 120
1, 363296, Control_c, 0, 64, 79
1, 363313, Control_c, 0, 64, 68
1, 363314, Control_c, 0, 67, 125
1, 363332, Control_c, 0, 64, 60
1, 363347, Note_on_c, 0, 79, 63
1, 363351, Control_c, 0, 64, 56
1, 363359, Note_on_c, 0, 51, 52
1, 363406, Control_c, 0, 64, 58
1, 363425, Control_c, 0, 64, 63
1, 363428, Note_off_c, 0, 49, 36
1, 363428, Poly_aftertouch_c, 0, 49, 0
1, 363444, Control_c, 0, 64, 71
1, 363452, Note_off_c, 0, 51, 55
1, 363452, Poly_aftertouch_c, 0, 51, 0
1, 363463, Control_c, 0, 64, 78
1, 363471, Note_on_c, 0, 58, 47
1, 363479, Note_on_c, 0, 80, 65
1, 363481, Control_c, 0, 64, 85
1, 363494, Note_off_c, 0, 79, 54
1, 363494, Poly_aftertouch_c, 0, 79, 0
1, 363499, Note_off_c, 0, 70, 36
1, 363499, Control_c, 0, 64, 94
1, 363519, Control_c, 0, 64, 106
1, 363537, Control_c, 0, 64, 118
1, 363556, Control_c, 0, 64, 127
1, 363562, Note_off_c, 0, 58, 45
1, 363601, Note_on_c, 0, 51, 40
1, 363610, Note_off_c, 0, 80, 64
1, 363630, Note_on_c, 0, 79, 59
1, 363715, Note_off_c, 0, 51, 60
1, 363715, Poly_aftertouch_c, 0, 51, 0
1, 363724, Control_c, 0, 64, 110
1, 363742, Note_on_c, 0, 48, 45
1, 363742, Control_c, 0, 64, 91
1, 363746, Note_on_c, 0, 75, 68
1, 363752, Poly_aftertouch_c, 0, 78, 0
1, 363762, Control_c, 0, 64, 73
1, 363781, Control_c, 0, 64, 62
1, 363790, Note_off_c, 0, 79, 51
1, 363790, Poly_aftertouch_c, 0, 79, 0
1, 363799, Control_c, 0, 64, 56
1, 363818, Control_c, 0, 64, 54
1, 363834, Note_off_c, 0, 48, 55
1, 363855, Control_c, 0, 64, 56
1, 363858, Note_on_c, 0, 80, 62
1, 363870, Note_on_c, 0, 51, 45
1, 363873, Control_c, 0, 64, 60
1, 363893, Control_c, 0, 64, 66
1, 363895, Note_off_c, 0, 75, 57
1, 363911, Control_c, 0, 64, 72
1, 363931, Control_c, 0, 64, 77
1, 363948, Control_c, 0, 64, 81
1, 363965, Note_off_c, 0, 51, 47
1, 363965, Poly_aftertouch_c, 0, 51, 0
1, 363966, Control_c, 0, 64, 87
1, 363985, Control_c, 0, 64, 95
1, 364002, Note_off_c, 0, 80, 60
1, 364005, Note_on_c, 0, 56, 45
1, 364005, Control_c, 0, 64, 104
1, 364014, Note_on_c, 0, 82, 55
1, 364023, Control_c, 0, 64, 115
1, 364042, Control_c, 0, 64, 126
1, 364089, Note_off_c, 0, 56, 49
1, 364130, Note_off_c, 0, 82, 62
1, 364145, Note_on_c, 0, 51, 47
1, 364145, Note_on_c, 0, 80, 64
1, 364179, Note_off_c, 0, 51, 60
1, 364179, Poly_aftertouch_c, 0, 51, 0
1, 364181, Note_off_c, 0, 80, 62
1, 364304, Control_c, 0, 64, 115
1, 364322, Control_c, 0, 64, 97
1, 364323, Note_on_c, 0, 68, 53
1, 364328, Note_on_c, 0, 39, 54
1, 364343, Control_c, 0, 64, 79
1, 364360, Control_c, 0, 64, 68
1, 364379, Control_c, 0, 64, 63
1, 364416, Control_c, 0, 64, 65
1, 364435, Control_c, 0, 64, 68
1, 364454, Control_c, 0, 64, 72
1, 364457, Note_off_c, 0, 39, 61
1, 364472, Control_c, 0, 64, 77
1, 364474, Note_on_c, 0, 75, 52
1, 364488, Note_on_c, 0, 48, 53
1, 364490, Control_c, 0, 64, 83
1, 364510, Control_c, 0, 64, 90
1, 364529, Control_c, 0, 64, 97
1, 364546, Control_c, 0, 64, 101
1, 364575, Note_off_c, 0, 68, 38
1, 364575, Poly_aftertouch_c, 0, 68, 0
1, 364581, Note_off_c, 0, 75, 60
1, 364583, Control_c, 0, 64, 107
1, 364602, Note_on_c, 0, 51, 64
1, 364603, Note_on_c, 0, 77, 61
1, 364604, Note_off_c, 0, 48, 54
1, 364621, Control_c, 0, 64, 115
1, 364641, Control_c, 0, 64, 119
1, 364662, Note_off_c, 0, 51, 54
1, 364662, Poly_aftertouch_c, 0, 51, 0
1, 364678, Control_c, 0, 64, 123
1, 364709, Note_off_c, 0, 77, 58
1, 364730, Note_on_c, 0, 56, 16
1, 364732, Note_on_c, 0, 75, 61
1, 364791, Control_c, 0, 64, 118
1, 364798, Note_off_c, 0, 56, 38
1, 364809, Control_c, 0, 64, 111
1, 364828, Control_c, 0, 64, 100
1, 364832, Note_off_c, 0, 75, 54
1, 364845, Note_on_c, 0, 72, 56
1, 364847, Note_on_c, 0, 39, 66
1, 364847, Control_c, 0, 64, 86
1, 364854, Note_on_c, 0, 68, 53
1, 364866, Control_c, 0, 64, 71
1, 364883, Control_c, 0, 64, 61
1, 364902, Control_c, 0, 64, 58
1, 364929, Note_off_c, 0, 39, 61
1, 364958, Control_c, 0, 64, 60
1, 364972, Note_on_c, 0, 75, 65
1, 364973, Note_on_c, 0, 48, 57
1, 364976, Control_c, 0, 64, 64
1, 364989, Note_off_c, 0, 72, 52
1, 364996, Control_c, 0, 64, 69
1, 365014, Control_c, 0, 64, 73
1, 365034, Control_c, 0, 64, 78
1, 365042, Note_off_c, 0, 68, 46
1, 365042, Poly_aftertouch_c, 0, 68, 0
1, 365051, Control_c, 0, 64, 81
1, 365066, Note_off_c, 0, 75, 59
1, 365070, Control_c, 0, 64, 85
1, 365081, Note_on_c, 0, 51, 54
1, 365101, Note_on_c, 0, 77, 53
1, 365106, Control_c, 0, 64, 92
1, 365134, Note_off_c, 0, 51, 57
1, 365134, Poly_aftertouch_c, 0, 51, 0
1, 365146, Control_c, 0, 64, 96
1, 365165, Note_on_c, 0, 56, 46
1, 365198, Note_off_c, 0, 56, 56
1, 365213, Note_on_c, 0, 75, 64
1, 365222, Note_off_c, 0, 77, 50
1, 365279, Note_off_c, 0, 48, 44
1, 365280, Poly_aftertouch_c, 0, 48, 0
1, 365319, Note_on_c, 0, 39, 60
1, 365325, Note_off_c, 0, 75, 56
1, 365331, Note_on_c, 0, 70, 56
1, 365343, Note_on_c, 0, 67, 49
1, 365351, Control_c, 0, 64, 87
1, 365370, Control_c, 0, 64, 75
1, 365387, Note_off_c, 0, 39, 61
1, 365387, Control_c, 0, 64, 64
1, 365407, Control_c, 0, 64, 59
1, 365426, Control_c, 0, 64, 56
1, 365439, Note_on_c, 0, 49, 51
1, 365472, Note_on_c, 0, 75, 59
1, 365490, Note_off_c, 0, 67, 48
1, 365495, Note_off_c, 0, 70, 45
1, 365520, Control_c, 0, 64, 59
1, 365539, Control_c, 0, 64, 60
1, 365555, Note_off_c, 0, 49, 53
1, 365555, Note_on_c, 0, 51, 52
1, 365555, Poly_aftertouch_c, 0, 49, 0
1, 365555, Control_c, 0, 64, 62
1, 365575, Control_c, 0, 64, 63
1, 365584, Note_off_c, 0, 75, 60
1, 365592, Control_c, 0, 64, 64
1, 365596, Note_on_c, 0, 77, 56
1, 365623, Note_off_c, 0, 51, 58
1, 365623, Poly_aftertouch_c, 0, 51, 0
1, 365631, Control_c, 0, 64, 65
1, 365670, Control_c, 0, 64, 66
1, 365672, Control_c, 0, 67, 119
1, 365687, Control_c, 0, 67, 114
1, 365698, Note_on_c, 0, 55, 32
1, 365705, Control_c, 0, 67, 109
1, 365722, Note_off_c, 0, 77, 58
1, 365724, Control_c, 0, 67, 102
1, 365743, Note_off_c, 0, 55, 53
1, 365746, Control_c, 0, 67, 96
1, 365748, Note_on_c, 0, 75, 51
1, 365761, Control_c, 0, 67, 90
1, 365781, Control_c, 0, 67, 85
1, 365800, Control_c, 0, 67, 80
1, 365833, Note_on_c, 0, 68, 51
1, 365848, Note_on_c, 0, 44, 39
1, 365893, Control_c, 0, 64, 65
1, 365912, Control_c, 0, 64, 64
1, 365928, Note_off_c, 0, 75, 36
1, 365931, Control_c, 0, 64, 63
1, 365950, Control_c, 0, 64, 62
1, 365957, Note_off_c, 0, 44, 55
1, 365968, Control_c, 0, 64, 61
1, 365979, Note_on_c, 0, 48, 40
1, 365985, Control_c, 0, 67, 84
1, 366006, Control_c, 0, 64, 57
1, 366023, Control_c, 0, 67, 91
1, 366043, Control_c, 0, 64, 55
1, 366044, Control_c, 0, 67, 95
1, 366081, Control_c, 0, 67, 101
1, 366099, Control_c, 0, 64, 53
1, 366100, Note_off_c, 0, 48, 52
1, 366100, Control_c, 0, 67, 105
1, 366112, Note_on_c, 0, 51, 39
1, 366136, Control_c, 0, 67, 111
1, 366170, Note_off_c, 0, 51, 56
1, 366170, Poly_aftertouch_c, 0, 51, 0
1, 366173, Control_c, 0, 67, 116
1, 366230, Control_c, 0, 64, 50
1, 366232, Control_c, 0, 67, 122
1, 366245, Note_on_c, 0, 56, 30
1, 366246, Control_c, 0, 64, 48
1, 366267, Control_c, 0, 64, 44
1, 366286, Control_c, 0, 64, 39
1, 366286, Control_c, 0, 67, 126
1, 366305, Control_c, 0, 64, 31
1, 366323, Control_c, 0, 64, 21
1, 366342, Control_c, 0, 64, 0
1, 366421, Note_off_c, 0, 56, 37
1, 366422, Note_on_c, 0, 44, 29
1, 366452, Note_off_c, 0, 68, 54
1, 366452, Poly_aftertouch_c, 0, 68, 0
1, 366454, Control_c, 0, 64, 12
1, 366473, Control_c, 0, 64, 27
1, 366492, Control_c, 0, 64, 41
1, 366492, Control_c, 0, 67, 122
1, 366511, Control_c, 0, 64, 54
1, 366513, Control_c, 0, 67, 118
1, 366529, Control_c, 0, 64, 67
1, 366530, Control_c, 0, 67, 113
1, 366548, Control_c, 0, 64, 75
1, 366549, Control_c, 0, 67, 106
1, 366567, Control_c, 0, 64, 82
1, 366568, Control_c, 0, 67, 98
1, 366585, Control_c, 0, 64, 89
1, 366588, Control_c, 0, 67, 89
1, 366604, Control_c, 0, 64, 97
1, 366606, Control_c, 0, 67, 79
1, 366623, Control_c, 0, 64, 107
1, 366623, Control_c, 0, 67, 69
1, 366642, Control_c, 0, 64, 115
1, 366642, Control_c, 0, 67, 58
1, 366660, Control_c, 0, 64, 121
1, 366661, Control_c, 0, 67, 46
1, 366679, Control_c, 0, 67, 33
1, 366681, Note_off_c, 0, 44, 40
1, 366697, Control_c, 0, 64, 126
1, 366698, Control_c, 0, 67, 20
1, 366771, Control_c, 0, 67, 0
1, 366977, Control_c, 0, 64, 121
1, 366997, Control_c, 0, 64, 116
1, 367015, Control_c, 0, 64, 107
1, 367033, Control_c, 0, 64, 92
1, 367053, Control_c, 0, 64, 76
1, 367071, Control_c, 0, 64, 62
1, 367077, Note_on_c, 0, 76, 63
1, 367090, Control_c, 0, 64, 51
1, 367108, Control_c, 0, 64, 38
1, 367128, Control_c, 0, 64, 23
1, 367146, Control_c, 0, 64, 16
1, 367185, Control_c, 0, 64, 29
1, 367202, Control_c, 0, 64, 42
1, 367221, Control_c, 0, 64, 56
1, 367239, Control_c, 0, 64, 68
1, 367259, Control_c, 0, 64, 77
1, 367268, Note_on_c, 0, 77, 78
1, 367277, Control_c, 0, 64, 84
1, 367296, Control_c, 0, 64, 93
1, 367314, Control_c, 0, 64, 104
1, 367321, Note_off_c, 0, 76, 63
1, 367333, Control_c, 0, 64, 113
1, 367342, Note_off_c, 0, 77, 61
1, 367351, Control_c, 0, 64, 121
1, 367369, Control_c, 0, 64, 127
1, 367426, Note_on_c, 0, 76, 81
1, 367518, Note_off_c, 0, 76, 58
1, 367567, Note_on_c, 0, 77, 80
1, 367629, Note_off_c, 0, 77, 58
1, 367730, Note_on_c, 0, 77, 66
1, 367755, Note_on_c, 0, 57, 49
1, 367761, Note_on_c, 0, 79, 45
1, 367762, Control_c, 0, 64, 114
1, 367781, Control_c, 0, 64, 91
1, 367796, Note_off_c, 0, 79, 56
1, 367796, Poly_aftertouch_c, 0, 79, 0
1, 367800, Control_c, 0, 64, 68
1, 367819, Control_c, 0, 64, 52
1, 367837, Control_c, 0, 64, 40
1, 367875, Control_c, 0, 64, 43
1, 367894, Control_c, 0, 64, 51
1, 367912, Control_c, 0, 64, 60
1, 367931, Control_c, 0, 64, 67
1, 367936, Note_on_c, 0, 65, 44
1, 367950, Control_c, 0, 64, 70
1, 367969, Control_c, 0, 64, 72
1, 368006, Control_c, 0, 64, 76
1, 368026, Control_c, 0, 64, 78
1, 368080, Control_c, 0, 64, 80
1, 368081, Note_off_c, 0, 65, 50
1, 368107, Note_on_c, 0, 89, 81
1, 368115, Note_off_c, 0, 57, 27
1, 368139, Note_on_c, 0, 60, 36
1, 368140, Control_c, 0, 64, 82
1, 368175, Control_c, 0, 64, 84
1, 368193, Control_c, 0, 64, 88
1, 368212, Control_c, 0, 64, 92
1, 368230, Control_c, 0, 64, 99
1, 368249, Control_c, 0, 64, 107
1, 368253, Note_off_c, 0, 60, 49
1, 368253, Poly_aftertouch_c, 0, 60, 0
1, 368267, Control_c, 0, 64, 114
1, 368276, Note_on_c, 0, 65, 47
1, 368287, Control_c, 0, 64, 120
1, 368305, Control_c, 0, 64, 124
1, 368368, Note_off_c, 0, 77, 35
1, 368401, Note_on_c, 0, 55, 46
1, 368414, Note_off_c, 0, 65, 43
1, 368437, Control_c, 0, 64, 115
1, 368454, Control_c, 0, 64, 106
1, 368474, Control_c, 0, 64, 89
1, 368493, Control_c, 0, 64, 70
1, 368509, Note_on_c, 0, 65, 39
1, 368509, Control_c, 0, 64, 54
1, 368531, Control_c, 0, 64, 41
1, 368548, Control_c, 0, 64, 30
1, 368605, Control_c, 0, 64, 37
1, 368623, Control_c, 0, 64, 45
1, 368630, Note_off_c, 0, 65, 45
1, 368635, Note_on_c, 0, 88, 78
1, 368641, Control_c, 0, 64, 55
1, 368651, Note_on_c, 0, 58, 50
1, 368660, Control_c, 0, 64, 66
1, 368680, Control_c, 0, 64, 75
1, 368698, Control_c, 0, 64, 82
1, 368703, Note_off_c, 0, 55, 55
1, 368717, Control_c, 0, 64, 91
1, 368735, Control_c, 0, 64, 102
1, 368754, Control_c, 0, 64, 115
1, 368755, Note_off_c, 0, 58, 51
1, 368768, Note_on_c, 0, 65, 48
1, 368773, Control_c, 0, 64, 124
1, 368839, Note_off_c, 0, 65, 54
1, 368886, Note_on_c, 0, 57, 55
1, 368922, Control_c, 0, 64, 110
1, 368941, Control_c, 0, 64, 89
1, 368960, Control_c, 0, 64, 68
1, 368978, Control_c, 0, 64, 50
1, 368998, Note_on_c, 0, 65, 51
1, 368998, Control_c, 0, 64, 23
1, 368999, Control_c, 0, 67, 8
1, 369015, Control_c, 0, 64, 0
1, 369109, Control_c, 0, 67, 12
1, 369117, Note_off_c, 0, 65, 51
1, 369124, Note_on_c, 0, 87, 74
1, 369127, Note_on_c, 0, 60, 49
1, 369127, Control_c, 0, 64, 29
1, 369147, Control_c, 0, 64, 50
1, 369165, Control_c, 0, 64, 67
1, 369180, Poly_aftertouch_c, 0, 57, 22
1, 369183, Control_c, 0, 64, 80
1, 369197, Note_off_c, 0, 57, 38
1, 369197, Poly_aftertouch_c, 0, 57, 0
1, 369202, Control_c, 0, 64, 91
1, 369209, Note_off_c, 0, 60, 62
1, 369209, Poly_aftertouch_c, 0, 60, 0
1, 369222, Control_c, 0, 64, 102
1, 369240, Control_c, 0, 64, 110
1, 369259, Control_c, 0, 64, 114
1, 369271, Note_off_c, 0, 89, 38
1, 369277, Note_on_c, 0, 65, 45
1, 369293, Note_off_c, 0, 88, 39
1, 369314, Control_c, 0, 64, 107
1, 369335, Control_c, 0, 64, 90
1, 369336, Control_c, 0, 67, 16
1, 369352, Note_off_c, 0, 65, 50
1, 369352, Control_c, 0, 64, 69
1, 369371, Control_c, 0, 64, 52
1, 369372, Control_c, 0, 67, 23
1, 369382, Note_on_c, 0, 58, 48
1, 369389, Control_c, 0, 64, 35
1, 369390, Control_c, 0, 67, 28
1, 369408, Control_c, 0, 64, 9
1, 369410, Control_c, 0, 67, 34
1, 369428, Control_c, 0, 67, 40
1, 369446, Control_c, 0, 64, 21
1, 369446, Control_c, 0, 67, 47
1, 369464, Control_c, 0, 64, 37
1, 369465, Control_c, 0, 67, 53
1, 369484, Control_c, 0, 64, 55
1, 369485, Control_c, 0, 67, 59
1, 369499, Note_on_c, 0, 85, 63
1, 369502, Control_c, 0, 64, 70
1, 369503, Control_c, 0, 67, 64
1, 369507, Note_off_c, 0, 58, 50
1, 369513, Note_on_c, 0, 65, 42
1, 369521, Control_c, 0, 64, 80
1, 369521, Control_c, 0, 67, 69
1, 369540, Control_c, 0, 64, 87
1, 369543, Control_c, 0, 67, 75
1, 369544, Note_off_c, 0, 87, 61
1, 369559, Control_c, 0, 64, 93
1, 369561, Control_c, 0, 67, 80
1, 369569, Note_off_c, 0, 65, 58
1, 369577, Control_c, 0, 64, 97
1, 369578, Control_c, 0, 67, 85
1, 369588, Note_off_c, 0, 85, 61
1, 369595, Control_c, 0, 64, 101
1, 369596, Control_c, 0, 67, 91
1, 369615, Control_c, 0, 67, 97
1, 369625, Note_on_c, 0, 84, 67
1, 369628, Note_on_c, 0, 61, 33
1, 369634, Control_c, 0, 64, 108
1, 369635, Control_c, 0, 67, 102
1, 369651, Control_c, 0, 64, 113
1, 369671, Control_c, 0, 67, 108
1, 369675, Note_off_c, 0, 61, 49
1, 369689, Control_c, 0, 64, 120
1, 369718, Note_on_c, 0, 65, 24
1, 369725, Control_c, 0, 67, 112
1, 369728, Note_on_c, 0, 82, 72
1, 369733, Note_off_c, 0, 84, 56
1, 369770, Note_off_c, 0, 65, 43
1, 369839, Control_c, 0, 67, 116
1, 369852, Note_on_c, 0, 81, 69
1, 369853, Note_off_c, 0, 82, 64
1, 369857, Control_c, 0, 64, 109
1, 369860, Note_on_c, 0, 46, 60
1, 369876, Control_c, 0, 64, 99
1, 369894, Control_c, 0, 64, 87
1, 369914, Control_c, 0, 64, 78
1, 369920, Note_off_c, 0, 81, 64
1, 369932, Control_c, 0, 64, 72
1, 369970, Note_on_c, 0, 82, 67
1, 370024, Note_off_c, 0, 46, 57
1, 370024, Poly_aftertouch_c, 0, 46, 0
1, 370044, Control_c, 0, 67, 122
1, 370084, Control_c, 0, 67, 127
1, 370092, Note_on_c, 0, 78, 64
1, 370094, Note_off_c, 0, 82, 62
1, 370188, Note_off_c, 0, 78, 63
1, 370197, Note_on_c, 0, 77, 66
1, 370213, Control_c, 0, 64, 70
1, 370301, Note_off_c, 0, 77, 59
1, 370301, Note_on_c, 0, 75, 66
1, 370325, Control_c, 0, 64, 68
1, 370343, Control_c, 0, 64, 67
1, 370363, Control_c, 0, 64, 66
1, 370400, Control_c, 0, 64, 64
1, 370418, Control_c, 0, 64, 62
1, 370419, Note_off_c, 0, 75, 59
1, 370425, Note_on_c, 0, 73, 60
1, 370437, Control_c, 0, 64, 61
1, 370455, Control_c, 0, 64, 60
1, 370474, Control_c, 0, 64, 58
1, 370484, Note_off_c, 0, 73, 53
1, 370492, Control_c, 0, 64, 56
1, 370512, Control_c, 0, 64, 52
1, 370530, Control_c, 0, 64, 48
1, 370541, Note_on_c, 0, 72, 51
1, 370549, Control_c, 0, 64, 42
1, 370568, Control_c, 0, 64, 33
1, 370586, Control_c, 0, 64, 23
1, 370601, Note_off_c, 0, 72, 52
1, 370603, Control_c, 0, 64, 13
1, 370643, Control_c, 0, 64, 0
1, 370660, Note_on_c, 0, 70, 36
1, 370734, Control_c, 0, 64, 17
1, 370739, Note_on_c, 0, 55, 36
1, 370755, Control_c, 0, 64, 28
1, 370767, Note_off_c, 0, 70, 44
1, 370773, Note_on_c, 0, 75, 49
1, 370773, Control_c, 0, 64, 41
1, 370792, Control_c, 0, 64, 52
1, 370810, Control_c, 0, 64, 60
1, 370821, Note_off_c, 0, 75, 65
1, 370828, Control_c, 0, 64, 66
1, 370848, Control_c, 0, 64, 67
1, 370877, Note_off_c, 0, 55, 50
1, 370899, Note_on_c, 0, 63, 32
1, 370904, Control_c, 0, 64, 66
1, 370942, Control_c, 0, 64, 65
1, 370969, Note_off_c, 0, 63, 57
1, 370978, Control_c, 0, 64, 63
1, 371013, Note_on_c, 0, 87, 62
1, 371016, Control_c, 0, 64, 62
1, 371030, Note_on_c, 0, 58, 32
1, 371054, Control_c, 0, 64, 60
1, 371098, Note_off_c, 0, 58, 56
1, 371135, Note_on_c, 0, 63, 40
1, 371216, Note_off_c, 0, 63, 53
1, 371221, Control_c, 0, 64, 58
1, 371266, Note_on_c, 0, 53, 36
1, 371392, Note_on_c, 0, 63, 31
1, 371447, Control_c, 0, 64, 60
1, 371457, Note_off_c, 0, 53, 32
1, 371457, Poly_aftertouch_c, 0, 53, 0
1, 371464, Control_c, 0, 64, 62
1, 371470, Note_off_c, 0, 63, 52
1, 371484, Control_c, 0, 64, 64
1, 371496, Note_on_c, 0, 86, 57
1, 371503, Control_c, 0, 64, 68
1, 371512, Note_on_c, 0, 56, 40
1, 371520, Control_c, 0, 64, 72
1, 371540, Control_c, 0, 64, 76
1, 371560, Control_c, 0, 64, 80
1, 371577, Control_c, 0, 64, 83
1, 371596, Control_c, 0, 64, 85
1, 371600, Note_off_c, 0, 56, 55
1, 371603, Note_off_c, 0, 87, 37
1, 371616, Control_c, 0, 64, 87
1, 371629, Note_on_c, 0, 63, 43
1, 371699, Note_off_c, 0, 63, 52
1, 371727, Control_c, 0, 64, 83
1, 371745, Control_c, 0, 64, 80
1, 371764, Note_on_c, 0, 55, 36
1, 371764, Control_c, 0, 64, 74
1, 371784, Control_c, 0, 64, 67
1, 371801, Control_c, 0, 64, 60
1, 371822, Control_c, 0, 64, 53
1, 371839, Control_c, 0, 64, 48
1, 371853, Note_on_c, 0, 63, 48
1, 371857, Control_c, 0, 64, 45
1, 371886, Note_off_c, 0, 55, 39
1, 371894, Control_c, 0, 64, 49
1, 371914, Control_c, 0, 64, 55
1, 371933, Control_c, 0, 64, 65
1, 371939, Note_off_c, 0, 63, 45
1, 371952, Control_c, 0, 64, 73
1, 371971, Control_c, 0, 64, 79
1, 371978, Note_on_c, 0, 85, 56
1, 371988, Note_on_c, 0, 58, 38
1, 371988, Control_c, 0, 64, 83
1, 372008, Control_c, 0, 64, 87
1, 372051, Note_off_c, 0, 86, 54
1, 372057, Note_off_c, 0, 58, 55
1, 372083, Control_c, 0, 64, 85
1, 372101, Control_c, 0, 64, 75
1, 372110, Note_on_c, 0, 63, 46
1, 372120, Control_c, 0, 64, 62
1, 372138, Control_c, 0, 64, 52
1, 372157, Control_c, 0, 64, 43
1, 372169, Note_off_c, 0, 63, 57
1, 372176, Control_c, 0, 64, 33
1, 372195, Control_c, 0, 64, 29
1, 372226, Note_on_c, 0, 56, 45
1, 372231, Control_c, 0, 64, 39
1, 372251, Control_c, 0, 64, 48
1, 372269, Control_c, 0, 64, 57
1, 372288, Control_c, 0, 64, 62
1, 372302, Note_off_c, 0, 85, 59
1, 372306, Note_off_c, 0, 56, 53
1, 372306, Control_c, 0, 64, 64
1, 372324, Control_c, 0, 64, 65
1, 372328, Note_on_c, 0, 63, 40
1, 372342, Control_c, 0, 64, 66
1, 372345, Note_on_c, 0, 84, 46
1, 372363, Control_c, 0, 64, 68
1, 372382, Control_c, 0, 64, 70
1, 372391, Note_off_c, 0, 63, 59
1, 372400, Control_c, 0, 64, 73
1, 372419, Control_c, 0, 64, 76
1, 372427, Note_off_c, 0, 84, 37
1, 372438, Note_on_c, 0, 60, 41
1, 372438, Control_c, 0, 64, 79
1, 372457, Control_c, 0, 64, 84
1, 372459, Note_on_c, 0, 82, 58
1, 372473, Note_off_c, 0, 60, 58
1, 372473, Poly_aftertouch_c, 0, 60, 0
1, 372473, Control_c, 0, 64, 90
1, 372494, Control_c, 0, 64, 98
1, 372512, Control_c, 0, 64, 106
1, 372532, Control_c, 0, 64, 111
1, 372554, Note_on_c, 0, 63, 9
1, 372584, Note_on_c, 0, 80, 56
1, 372605, Control_c, 0, 64, 106
1, 372625, Control_c, 0, 64, 94
1, 372636, Note_off_c, 0, 63, 48
1, 372642, Control_c, 0, 64, 80
1, 372663, Control_c, 0, 64, 71
1, 372665, Note_off_c, 0, 82, 38
1, 372675, Note_on_c, 0, 44, 61
1, 372678, Note_off_c, 0, 80, 61
1, 372685, Note_on_c, 0, 79, 54
1, 372718, Control_c, 0, 64, 73
1, 372737, Control_c, 0, 64, 75
1, 372749, Note_off_c, 0, 44, 46
1, 372754, Control_c, 0, 64, 77
1, 372774, Control_c, 0, 64, 81
1, 372787, Note_off_c, 0, 79, 60
1, 372787, Poly_aftertouch_c, 0, 79, 0
1, 372792, Control_c, 0, 64, 84
1, 372809, Note_on_c, 0, 80, 63
1, 372810, Control_c, 0, 64, 88
1, 372861, Note_off_c, 0, 80, 55
1, 372912, Note_on_c, 0, 74, 60
1, 372986, Note_off_c, 0, 74, 52
1, 373016, Note_on_c, 0, 75, 62
1, 373104, Note_off_c, 0, 75, 60
1, 373141, Note_on_c, 0, 71, 63
1, 373147, Control_c, 0, 64, 84
1, 373166, Control_c, 0, 64, 81
1, 373186, Control_c, 0, 64, 78
1, 373223, Control_c, 0, 64, 75
1, 373228, Note_off_c, 0, 71, 56
1, 373242, Control_c, 0, 64, 73
1, 373252, Note_on_c, 0, 72, 59
1, 373367, Note_on_c, 0, 73, 54
1, 373407, Note_off_c, 0, 72, 38
1, 373447, Control_c, 0, 64, 75
1, 373487, Note_on_c, 0, 74, 55
1, 373615, Control_c, 0, 64, 73
1, 373653, Control_c, 0, 64, 69
1, 373656, Note_on_c, 0, 75, 67
1, 373667, Note_off_c, 0, 73, 37
1, 373671, Control_c, 0, 64, 63
1, 373690, Control_c, 0, 64, 56
1, 373699, Note_on_c, 0, 48, 39
1, 373709, Control_c, 0, 64, 49
1, 373718, Note_off_c, 0, 74, 54
1, 373727, Control_c, 0, 64, 42
1, 373821, Control_c, 0, 64, 47
1, 373832, Note_on_c, 0, 63, 46
1, 373839, Control_c, 0, 64, 53
1, 373859, Control_c, 0, 64, 61
1, 373877, Control_c, 0, 64, 69
1, 373896, Control_c, 0, 64, 74
1, 373910, Note_off_c, 0, 63, 52
1, 373913, Control_c, 0, 64, 78
1, 373933, Control_c, 0, 64, 83
1, 373950, Note_on_c, 0, 68, 50
1, 373952, Control_c, 0, 64, 90
1, 373971, Control_c, 0, 64, 99
1, 373973, Control_c, 0, 67, 118
1, 373980, Note_on_c, 0, 60, 42
1, 373990, Control_c, 0, 64, 109
1, 373992, Control_c, 0, 67, 110
1, 374009, Control_c, 0, 64, 118
1, 374010, Control_c, 0, 67, 101
1, 374024, Note_off_c, 0, 68, 57
1, 374024, Poly_aftertouch_c, 0, 68, 0
1, 374027, Control_c, 0, 64, 125
1, 374028, Control_c, 0, 67, 94
1, 374045, Control_c, 0, 67, 88
1, 374052, Note_off_c, 0, 48, 35
1, 374055, Note_on_c, 0, 63, 65
1, 374064, Control_c, 0, 67, 81
1, 374082, Control_c, 0, 67, 74
1, 374102, Control_c, 0, 67, 68
1, 374120, Control_c, 0, 67, 63
1, 374122, Note_off_c, 0, 60, 46
1, 374122, Poly_aftertouch_c, 0, 60, 0
1, 374159, Control_c, 0, 67, 57
1, 374172, Note_on_c, 0, 74, 74
1, 374179, Control_c, 0, 64, 116
1, 374186, Note_off_c, 0, 63, 38
1, 374195, Control_c, 0, 64, 103
1, 374196, Control_c, 0, 67, 52
1, 374202, Note_on_c, 0, 47, 54
1, 374214, Control_c, 0, 64, 88
1, 374233, Control_c, 0, 64, 76
1, 374236, Control_c, 0, 67, 45
1, 374252, Control_c, 0, 64, 70
1, 374253, Control_c, 0, 67, 39
1, 374267, Note_off_c, 0, 75, 54
1, 374270, Control_c, 0, 67, 32
1, 374289, Control_c, 0, 64, 73
1, 374291, Control_c, 0, 67, 24
1, 374306, Control_c, 0, 64, 76
1, 374309, Note_on_c, 0, 65, 58
1, 374309, Control_c, 0, 67, 14
1, 374326, Control_c, 0, 64, 79
1, 374345, Control_c, 0, 64, 83
1, 374345, Control_c, 0, 67, 0
1, 374364, Control_c, 0, 64, 89
1, 374382, Control_c, 0, 64, 97
1, 374402, Control_c, 0, 64, 107
1, 374414, Note_off_c, 0, 65, 58
1, 374422, Note_on_c, 0, 68, 59
1, 374422, Control_c, 0, 64, 116
1, 374436, Note_on_c, 0, 59, 46
1, 374438, Control_c, 0, 64, 124
1, 374446, Note_off_c, 0, 47, 32
1, 374446, Poly_aftertouch_c, 0, 47, 0
1, 374486, Note_off_c, 0, 59, 62
1, 374520, Note_off_c, 0, 68, 59
1, 374520, Poly_aftertouch_c, 0, 68, 0
1, 374535, Note_on_c, 0, 65, 67
1, 374546, Note_off_c, 0, 74, 34
1, 374621, Note_off_c, 0, 65, 57
1, 374638, Note_on_c, 0, 76, 81
1, 374662, Note_on_c, 0, 46, 59
1, 374662, Control_c, 0, 64, 102
1, 374682, Control_c, 0, 64, 82
1, 374700, Control_c, 0, 64, 67
1, 374720, Control_c, 0, 64, 62
1, 374756, Control_c, 0, 64, 63
1, 374759, Note_on_c, 0, 67, 67
1, 374775, Control_c, 0, 64, 66
1, 374793, Control_c, 0, 64, 70
1, 374812, Control_c, 0, 64, 75
1, 374830, Control_c, 0, 64, 81
1, 374850, Control_c, 0, 64, 88
1, 374868, Control_c, 0, 64, 96
1, 374872, Note_off_c, 0, 67, 61
1, 374872, Note_on_c, 0, 73, 66
1, 374886, Control_c, 0, 64, 106
1, 374889, Note_on_c, 0, 58, 45
1, 374906, Control_c, 0, 64, 118
1, 374924, Control_c, 0, 64, 127
1, 374945, Note_off_c, 0, 58, 58
1, 374959, Note_off_c, 0, 73, 62
1, 374974, Note_off_c, 0, 46, 39
1, 374974, Poly_aftertouch_c, 0, 46, 0
1, 375007, Note_on_c, 0, 67, 52
1, 375039, Note_off_c, 0, 67, 56
1, 375085, Note_off_c, 0, 76, 56
1, 375116, Note_on_c, 0, 77, 80
1, 375137, Note_on_c, 0, 44, 62
1, 375149, Control_c, 0, 64, 104
1, 375167, Control_c, 0, 64, 79
1, 375186, Control_c, 0, 64, 56
1, 375205, Control_c, 0, 64, 39
1, 375223, Control_c, 0, 64, 27
1, 375251, Note_on_c, 0, 68, 71
1, 375261, Control_c, 0, 64, 37
1, 375281, Control_c, 0, 64, 51
1, 375299, Control_c, 0, 64, 67
1, 375317, Control_c, 0, 64, 79
1, 375338, Control_c, 0, 64, 91
1, 375340, Note_off_c, 0, 68, 63
1, 375340, Poly_aftertouch_c, 0, 68, 0
1, 375353, Note_on_c, 0, 56, 54
1, 375354, Control_c, 0, 64, 104
1, 375360, Note_on_c, 0, 72, 59
1, 375373, Control_c, 0, 64, 117
1, 375375, Note_off_c, 0, 44, 30
1, 375392, Control_c, 0, 64, 125
1, 375419, Note_off_c, 0, 72, 55
1, 375447, Note_off_c, 0, 56, 49
1, 375482, Note_on_c, 0, 68, 70
1, 375547, Note_off_c, 0, 68, 50
1, 375547, Poly_aftertouch_c, 0, 68, 0
1, 375599, Control_c, 0, 64, 113
1, 375606, Note_on_c, 0, 79, 74
1, 375612, Note_on_c, 0, 43, 48
1, 375617, Control_c, 0, 64, 92
1, 375634, Control_c, 0, 64, 70
1, 375654, Control_c, 0, 64, 47
1, 375671, Note_off_c, 0, 77, 58
1, 375671, Control_c, 0, 64, 0
1, 375742, Note_on_c, 0, 70, 61
1, 375766, Control_c, 0, 64, 20
1, 375784, Control_c, 0, 64, 42
1, 375804, Control_c, 0, 64, 56
1, 375822, Control_c, 0, 64, 69
1, 375841, Control_c, 0, 64, 80
1, 375852, Note_on_c, 0, 55, 40
1, 375860, Control_c, 0, 64, 92
1, 375864, Note_on_c, 0, 76, 43
1, 375870, Note_off_c, 0, 70, 60
1, 375879, Control_c, 0, 64, 107
1, 375898, Control_c, 0, 64, 119
1, 375910, Note_off_c, 0, 43, 30
1, 375911, Note_off_c, 0, 76, 54
1, 375914, Control_c, 0, 64, 125
1, 376013, Note_on_c, 0, 70, 49
1, 376031, Note_off_c, 0, 55, 32
1, 376105, Note_off_c, 0, 70, 55
1, 376122, Control_c, 0, 64, 112
1, 376128, Note_on_c, 0, 80, 57
1, 376139, Control_c, 0, 64, 93
1, 376147, Note_on_c, 0, 41, 40
1, 376159, Control_c, 0, 64, 70
1, 376171, Note_off_c, 0, 79, 60
1, 376171, Poly_aftertouch_c, 0, 79, 0
1, 376176, Control_c, 0, 64, 50
1, 376197, Control_c, 0, 64, 30
1, 376215, Control_c, 0, 64, 10
1, 376233, Control_c, 0, 64, 14
1, 376252, Control_c, 0, 64, 29
1, 376260, Note_on_c, 0, 72, 40
1, 376271, Control_c, 0, 64, 43
1, 376290, Control_c, 0, 64, 57
1, 376308, Control_c, 0, 64, 68
1, 376327, Control_c, 0, 64, 74
1, 376346, Control_c, 0, 64, 78
1, 376364, Control_c, 0, 64, 81
1, 376380, Note_off_c, 0, 80, 58
1, 376383, Control_c, 0, 64, 88
1, 376384, Note_off_c, 0, 41, 44
1, 376389, Note_on_c, 0, 77, 52
1, 376403, Control_c, 0, 64, 98
1, 376412, Note_off_c, 0, 72, 30
1, 376416, Note_on_c, 0, 53, 37
1, 376419, Control_c, 0, 64, 112
1, 376439, Control_c, 0, 64, 125
1, 376457, Note_off_c, 0, 53, 50
1, 376457, Poly_aftertouch_c, 0, 53, 0
1, 376475, Note_off_c, 0, 77, 57
1, 376545, Note_on_c, 0, 72, 41
1, 376584, Note_off_c, 0, 72, 52
1, 376740, Note_on_c, 0, 75, 67
1, 376751, Note_on_c, 0, 46, 43
1, 376781, Note_on_c, 0, 67, 46
1, 376794, Control_c, 0, 64, 111
1, 376813, Control_c, 0, 64, 96
1, 376832, Control_c, 0, 64, 81
1, 376850, Control_c, 0, 64, 68
1, 376870, Control_c, 0, 64, 59
1, 376888, Control_c, 0, 64, 53
1, 376906, Control_c, 0, 64, 50
1, 376915, Note_on_c, 0, 66, 51
1, 376926, Control_c, 0, 67, 8
1, 376945, Note_off_c, 0, 67, 38
1, 376962, Control_c, 0, 64, 54
1, 376981, Control_c, 0, 64, 58
1, 376982, Control_c, 0, 67, 13
1, 377000, Control_c, 0, 64, 63
1, 377019, Control_c, 0, 64, 69
1, 377020, Control_c, 0, 67, 20
1, 377025, Note_on_c, 0, 58, 32
1, 377038, Control_c, 0, 64, 74
1, 377040, Note_off_c, 0, 66, 61
1, 377040, Control_c, 0, 67, 25
1, 377054, Control_c, 0, 64, 78
1, 377056, Control_c, 0, 67, 31
1, 377058, Note_on_c, 0, 67, 48
1, 377075, Control_c, 0, 64, 82
1, 377076, Control_c, 0, 67, 38
1, 377094, Control_c, 0, 64, 85
1, 377096, Control_c, 0, 67, 45
1, 377109, Note_off_c, 0, 46, 38
1, 377109, Poly_aftertouch_c, 0, 46, 0
1, 377111, Control_c, 0, 64, 87
1, 377112, Control_c, 0, 67, 51
1, 377130, Control_c, 0, 67, 56
1, 377135, Note_off_c, 0, 67, 57
1, 377150, Control_c, 0, 67, 60
1, 377175, Note_on_c, 0, 66, 51
1, 377186, Control_c, 0, 67, 67
1, 377224, Control_c, 0, 67, 73
1, 377226, Note_off_c, 0, 66, 63
1, 377259, Note_off_c, 0, 58, 42
1, 377263, Note_on_c, 0, 46, 51
1, 377279, Note_on_c, 0, 67, 61
1, 377280, Control_c, 0, 67, 78
1, 377300, Control_c, 0, 64, 93
1, 377337, Control_c, 0, 64, 99
1, 377355, Control_c, 0, 64, 103
1, 377374, Control_c, 0, 64, 108
1, 377376, Note_off_c, 0, 67, 47
1, 377385, Note_on_c, 0, 70, 61
1, 377393, Control_c, 0, 64, 114
1, 377411, Control_c, 0, 64, 120
1, 377431, Control_c, 0, 64, 125
1, 377456, Note_off_c, 0, 75, 38
1, 377474, Note_off_c, 0, 46, 51
1, 377474, Poly_aftertouch_c, 0, 46, 0
1, 377484, Note_on_c, 0, 68, 62
1, 377498, Note_on_c, 0, 58, 47
1, 377524, Note_off_c, 0, 70, 53
1, 377580, Note_off_c, 0, 58, 50
1, 377598, Control_c, 0, 67, 73
1, 377612, Note_on_c, 0, 67, 62
1, 377658, Note_off_c, 0, 68, 47
1, 377658, Poly_aftertouch_c, 0, 68, 0
1, 377740, Note_on_c, 0, 74, 80
1, 377751, Note_off_c, 0, 67, 59
1, 377767, Control_c, 0, 64, 116
1, 377781, Note_on_c, 0, 65, 60
1, 377785, Control_c, 0, 64, 100
1, 377788, Note_on_c, 0, 47, 47
1, 377804, Control_c, 0, 64, 84
1, 377823, Control_c, 0, 64, 70
1, 377841, Control_c, 0, 64, 63
1, 377860, Control_c, 0, 64, 60
1, 377866, Note_off_c, 0, 65, 53
1, 377876, Note_on_c, 0, 68, 63
1, 377879, Control_c, 0, 64, 62
1, 377898, Control_c, 0, 64, 65
1, 377916, Control_c, 0, 64, 69
1, 377917, Control_c, 0, 67, 78
1, 377924, Note_off_c, 0, 74, 60
1, 377935, Control_c, 0, 64, 76
1, 377954, Control_c, 0, 64, 83
1, 377955, Control_c, 0, 67, 86
1, 377972, Control_c, 0, 64, 92
1, 377991, Control_c, 0, 64, 100
1, 377993, Control_c, 0, 67, 92
1, 378011, Note_on_c, 0, 67, 59
1, 378011, Control_c, 0, 64, 108
1, 378011, Control_c, 0, 67, 96
1, 378017, Note_on_c, 0, 59, 37
1, 378029, Control_c, 0, 64, 116
1, 378031, Control_c, 0, 67, 101
1, 378047, Control_c, 0, 64, 124
1, 378048, Control_c, 0, 67, 105
1, 378060, Note_off_c, 0, 47, 29
1, 378060, Poly_aftertouch_c, 0, 47, 0
1, 378065, Control_c, 0, 67, 109
1, 378084, Control_c, 0, 67, 114
1, 378104, Control_c, 0, 67, 118
1, 378119, Note_off_c, 0, 68, 35
1, 378119, Poly_aftertouch_c, 0, 68, 0
1, 378120, Control_c, 0, 67, 122
1, 378125, Note_off_c, 0, 67, 56
1, 378137, Note_on_c, 0, 65, 49
1, 378159, Control_c, 0, 67, 127
1, 378173, Note_off_c, 0, 65, 56
1, 378233, Note_off_c, 0, 59, 32
1, 378324, Note_on_c, 0, 75, 65
1, 378327, Control_c, 0, 64, 115
1, 378346, Control_c, 0, 64, 97
1, 378366, Control_c, 0, 64, 78
1, 378371, Note_on_c, 0, 48, 34
1, 378382, Note_on_c, 0, 63, 17
1, 378383, Control_c, 0, 64, 64
1, 378403, Control_c, 0, 64, 58
1, 378448, Note_off_c, 0, 63, 26
1, 378458, Control_c, 0, 64, 60
1, 378476, Note_on_c, 0, 65, 52
1, 378476, Control_c, 0, 64, 63
1, 378496, Control_c, 0, 64, 68
1, 378514, Control_c, 0, 64, 72
1, 378533, Control_c, 0, 64, 76
1, 378552, Control_c, 0, 64, 80
1, 378572, Control_c, 0, 64, 83
1, 378590, Control_c, 0, 64, 86
1, 378594, Note_off_c, 0, 65, 54
1, 378606, Control_c, 0, 64, 88
1, 378611, Note_on_c, 0, 67, 47
1, 378645, Control_c, 0, 64, 92
1, 378660, Note_off_c, 0, 48, 56
1, 378675, Note_off_c, 0, 75, 39
1, 378681, Poly_aftertouch_c, 0, 60, 0
1, 378706, Note_on_c, 0, 68, 59
1, 378714, Note_off_c, 0, 67, 60
1, 378718, Control_c, 0, 64, 96
1, 378777, Control_c, 0, 64, 101
1, 378793, Note_off_c, 0, 68, 62
1, 378793, Poly_aftertouch_c, 0, 68, 0
1, 378808, Note_on_c, 0, 44, 57
1, 378814, Control_c, 0, 64, 107
1, 378815, Control_c, 0, 67, 122
1, 378829, Note_on_c, 0, 70, 61
1, 378832, Control_c, 0, 67, 117
1, 378850, Control_c, 0, 64, 115
1, 378851, Control_c, 0, 67, 113
1, 378864, Note_off_c, 0, 70, 68
1, 378869, Control_c, 0, 67, 109
1, 378889, Control_c, 0, 64, 121
1, 378891, Control_c, 0, 67, 104
1, 378907, Control_c, 0, 67, 98
1, 378920, Note_off_c, 0, 44, 55
1, 378926, Control_c, 0, 67, 90
1, 378938, Note_on_c, 0, 71, 63
1, 378945, Control_c, 0, 64, 126
1, 378946, Control_c, 0, 67, 81
1, 378964, Control_c, 0, 67, 70
1, 378981, Control_c, 0, 67, 58
1, 379001, Control_c, 0, 67, 46
1, 379017, Note_on_c, 0, 56, 58
1, 379020, Control_c, 0, 67, 35
1, 379038, Control_c, 0, 67, 26
1, 379040, Note_off_c, 0, 71, 55
1, 379045, Note_on_c, 0, 72, 69
1, 379056, Control_c, 0, 67, 17
1, 379076, Control_c, 0, 67, 8
1, 379099, Note_off_c, 0, 56, 54
1, 379129, Note_off_c, 0, 72, 59
1, 379177, Note_on_c, 0, 71, 67
1, 379270, Note_on_c, 0, 77, 81
1, 379292, Note_on_c, 0, 45, 54
1, 379299, Control_c, 0, 64, 114
1, 379300, Note_on_c, 0, 72, 64
1, 379319, Control_c, 0, 64, 99
1, 379321, Note_off_c, 0, 71, 58
1, 379338, Control_c, 0, 64, 82
1, 379356, Control_c, 0, 64, 67
1, 379358, Control_c, 0, 67, 12
1, 379375, Control_c, 0, 64, 57
1, 379394, Control_c, 0, 64, 51
1, 379395, Control_c, 0, 67, 18
1, 379404, Note_off_c, 0, 72, 60
1, 379411, Control_c, 0, 67, 22
1, 379418, Note_on_c, 0, 71, 66
1, 379432, Control_c, 0, 67, 27
1, 379449, Control_c, 0, 64, 54
1, 379452, Control_c, 0, 67, 33
1, 379469, Control_c, 0, 64, 60
1, 379470, Control_c, 0, 67, 41
1, 379487, Control_c, 0, 64, 68
1, 379488, Control_c, 0, 67, 51
1, 379506, Control_c, 0, 64, 74
1, 379507, Control_c, 0, 67, 57
1, 379519, Note_on_c, 0, 57, 43
1, 379524, Control_c, 0, 64, 81
1, 379526, Note_off_c, 0, 71, 51
1, 379542, Control_c, 0, 64, 88
1, 379545, Control_c, 0, 67, 62
1, 379546, Note_on_c, 0, 74, 64
1, 379548, Note_off_c, 0, 77, 57
1, 379563, Control_c, 0, 64, 97
1, 379581, Control_c, 0, 64, 105
1, 379581, Control_c, 0, 67, 67
1, 379599, Control_c, 0, 64, 113
1, 379601, Note_off_c, 0, 57, 52
1, 379601, Poly_aftertouch_c, 0, 57, 0
1, 379617, Note_off_c, 0, 45, 53
1, 379617, Control_c, 0, 64, 119
1, 379619, Control_c, 0, 67, 72
1, 379637, Control_c, 0, 64, 123
1, 379652, Note_off_c, 0, 74, 58
1, 379654, Control_c, 0, 67, 76
1, 379672, Note_on_c, 0, 72, 56
1, 379697, Note_off_c, 0, 72, 60
1, 379749, Control_c, 0, 67, 80
1, 379767, Control_c, 0, 64, 119
1, 379786, Control_c, 0, 64, 112
1, 379800, Note_on_c, 0, 75, 72
1, 379805, Control_c, 0, 64, 102
1, 379814, Note_on_c, 0, 46, 46
1, 379815, Note_on_c, 0, 67, 57
1, 379824, Control_c, 0, 64, 87
1, 379842, Control_c, 0, 64, 70
1, 379861, Control_c, 0, 64, 56
1, 379879, Control_c, 0, 64, 44
1, 379899, Control_c, 0, 64, 36
1, 379900, Control_c, 0, 67, 76
1, 379936, Control_c, 0, 64, 40
1, 379937, Control_c, 0, 67, 72
1, 379938, Note_on_c, 0, 66, 60
1, 379943, Note_off_c, 0, 67, 52
1, 379955, Control_c, 0, 64, 46
1, 379957, Control_c, 0, 67, 67
1, 379974, Control_c, 0, 64, 52
1, 379976, Control_c, 0, 67, 61
1, 379992, Control_c, 0, 64, 59
1, 379993, Control_c, 0, 67, 54
1, 380010, Control_c, 0, 64, 64
1, 380011, Control_c, 0, 67, 46
1, 380029, Control_c, 0, 64, 68
1, 380031, Control_c, 0, 67, 37
1, 380039, Note_off_c, 0, 66, 63
1, 380048, Control_c, 0, 64, 71
1, 380049, Control_c, 0, 67, 26
1, 380050, Note_on_c, 0, 58, 49
1, 380051, Note_on_c, 0, 67, 58
1, 380066, Control_c, 0, 64, 74
1, 380067, Control_c, 0, 67, 13
1, 380085, Control_c, 0, 64, 78
1, 380087, Control_c, 0, 67, 0
1, 380105, Control_c, 0, 64, 81
1, 380123, Control_c, 0, 64, 85
1, 380127, Note_off_c, 0, 46, 36
1, 380127, Poly_aftertouch_c, 0, 46, 0
1, 380140, Control_c, 0, 64, 89
1, 380145, Note_off_c, 0, 67, 58
1, 380148, Note_on_c, 0, 66, 69
1, 380159, Note_off_c, 0, 58, 51
1, 380159, Control_c, 0, 64, 96
1, 380178, Control_c, 0, 64, 104
1, 380197, Control_c, 0, 64, 112
1, 380215, Control_c, 0, 64, 119
1, 380235, Control_c, 0, 64, 125
1, 380242, Note_off_c, 0, 66, 61
1, 380252, Note_on_c, 0, 46, 57
1, 380275, Note_on_c, 0, 67, 72
1, 380380, Note_off_c, 0, 67, 50
1, 380380, Note_on_c, 0, 70, 70
1, 380435, Note_off_c, 0, 75, 55
1, 380435, Note_on_c, 0, 58, 61
1, 380471, Note_off_c, 0, 58, 65
1, 380502, Note_on_c, 0, 68, 64
1, 380553, Note_off_c, 0, 46, 51
1, 380553, Poly_aftertouch_c, 0, 46, 0
1, 380569, Note_off_c, 0, 70, 50
1, 380654, Note_on_c, 0, 67, 51
1, 380704, Control_c, 0, 64, 109
1, 380706, Note_on_c, 0, 74, 79
1, 380716, Note_on_c, 0, 34, 71
1, 380722, Control_c, 0, 64, 85
1, 380725, Note_off_c, 0, 68, 57
1, 380725, Poly_aftertouch_c, 0, 68, 0
1, 380739, Control_c, 0, 64, 68
1, 380749, Note_off_c, 0, 67, 61
1, 380759, Control_c, 0, 64, 62
1, 380777, Control_c, 0, 64, 63
1, 380795, Control_c, 0, 64, 68
1, 380814, Control_c, 0, 64, 76
1, 380833, Control_c, 0, 64, 85
1, 380840, Note_on_c, 0, 68, 71
1, 380852, Control_c, 0, 64, 95
1, 380870, Control_c, 0, 64, 104
1, 380889, Control_c, 0, 64, 111
1, 380891, Note_off_c, 0, 34, 59
1, 380907, Control_c, 0, 64, 115
1, 380927, Control_c, 0, 64, 119
1, 380930, Note_on_c, 0, 46, 55
1, 380944, Control_c, 0, 64, 124
1, 380946, Note_on_c, 0, 67, 67
1, 380969, Note_off_c, 0, 74, 60
1, 380981, Note_off_c, 0, 46, 58
1, 380981, Poly_aftertouch_c, 0, 46, 0
1, 381044, Note_off_c, 0, 68, 53
1, 381044, Poly_aftertouch_c, 0, 68, 0
1, 381060, Note_off_c, 0, 67, 56
1, 381087, Note_on_c, 0, 65, 60
1, 381128, Note_off_c, 0, 65, 64
1, 381225, Note_on_c, 0, 75, 78
1, 381240, Note_on_c, 0, 39, 59
1, 381263, Control_c, 0, 64, 112
1, 381282, Control_c, 0, 64, 89
1, 381301, Control_c, 0, 64, 67
1, 381319, Control_c, 0, 64, 54
1, 381339, Control_c, 0, 64, 47
1, 381371, Note_on_c, 0, 63, 60
1, 381377, Control_c, 0, 64, 53
1, 381395, Control_c, 0, 64, 63
1, 381412, Control_c, 0, 64, 72
1, 381432, Control_c, 0, 64, 81
1, 381450, Control_c, 0, 64, 92
1, 381452, Note_off_c, 0, 39, 60
1, 381455, Note_on_c, 0, 51, 53
1, 381468, Control_c, 0, 64, 105
1, 381479, Note_off_c, 0, 63, 60
1, 381482, Note_on_c, 0, 67, 64
1, 381486, Control_c, 0, 64, 120
1, 381507, Control_c, 0, 64, 127
1, 381539, Note_off_c, 0, 75, 62
1, 381608, Note_off_c, 0, 51, 36
1, 381608, Poly_aftertouch_c, 0, 51, 0
1, 381614, Note_on_c, 0, 63, 71
1, 381726, Note_on_c, 0, 74, 80
1, 381748, Control_c, 0, 64, 123
1, 381752, Note_on_c, 0, 41, 55
1, 381759, Note_off_c, 0, 63, 54
1, 381767, Control_c, 0, 64, 107
1, 381787, Control_c, 0, 64, 86
1, 381805, Control_c, 0, 64, 64
1, 381806, Note_off_c, 0, 67, 41
1, 381824, Control_c, 0, 64, 40
1, 381843, Control_c, 0, 64, 0
1, 381876, Note_on_c, 0, 63, 67
1, 381918, Control_c, 0, 64, 22
1, 381937, Control_c, 0, 64, 44
1, 381956, Control_c, 0, 64, 59
1, 381974, Control_c, 0, 64, 70
1, 381987, Note_off_c, 0, 63, 60
1, 381992, Control_c, 0, 64, 76
1, 382004, Note_on_c, 0, 53, 44
1, 382011, Note_on_c, 0, 68, 60
1, 382011, Control_c, 0, 64, 82
1, 382031, Control_c, 0, 64, 89
1, 382049, Control_c, 0, 64, 98
1, 382067, Control_c, 0, 64, 107
1, 382075, Note_off_c, 0, 41, 33
1, 382086, Control_c, 0, 64, 115
1, 382105, Control_c, 0, 64, 122
1, 382123, Note_on_c, 0, 63, 65
1, 382124, Note_off_c, 0, 68, 58
1, 382124, Poly_aftertouch_c, 0, 68, 0
1, 382142, Control_c, 0, 64, 126
1, 382221, Note_off_c, 0, 53, 30
1, 382221, Poly_aftertouch_c, 0, 53, 0
1, 382254, Note_on_c, 0, 73, 68
1, 382256, Control_c, 0, 64, 121
1, 382262, Note_off_c, 0, 63, 51
1, 382272, Control_c, 0, 64, 116
1, 382287, Note_on_c, 0, 43, 52
1, 382292, Control_c, 0, 64, 110
1, 382311, Control_c, 0, 64, 96
1, 382329, Control_c, 0, 64, 77
1, 382349, Control_c, 0, 64, 57
1, 382366, Control_c, 0, 64, 40
1, 382385, Control_c, 0, 64, 13
1, 382397, Note_on_c, 0, 63, 59
1, 382404, Control_c, 0, 64, 0
1, 382442, Control_c, 0, 64, 19
1, 382460, Control_c, 0, 64, 30
1, 382474, Note_off_c, 0, 74, 32
1, 382477, Control_c, 0, 64, 39
1, 382499, Control_c, 0, 64, 49
1, 382516, Control_c, 0, 64, 57
1, 382535, Control_c, 0, 64, 65
1, 382551, Note_on_c, 0, 55, 40
1, 382553, Control_c, 0, 64, 70
1, 382557, Note_on_c, 0, 70, 49
1, 382565, Note_off_c, 0, 63, 53
1, 382572, Control_c, 0, 64, 74
1, 382590, Note_off_c, 0, 43, 59
1, 382592, Control_c, 0, 64, 77
1, 382609, Control_c, 0, 64, 80
1, 382628, Control_c, 0, 64, 85
1, 382647, Control_c, 0, 64, 92
1, 382666, Control_c, 0, 64, 101
1, 382684, Control_c, 0, 64, 111
1, 382703, Control_c, 0, 64, 118
1, 382711, Note_off_c, 0, 55, 47
1, 382713, Note_off_c, 0, 73, 50
1, 382722, Note_on_c, 0, 63, 48
1, 382722, Control_c, 0, 64, 124
1, 382773, Note_off_c, 0, 63, 48
1, 382946, Control_c, 0, 64, 119
1, 382956, Note_on_c, 0, 72, 50
1, 382965, Control_c, 0, 64, 109
1, 382983, Control_c, 0, 64, 93
1, 382998, Note_on_c, 0, 63, 42
1, 383001, Control_c, 0, 64, 76
1, 383021, Control_c, 0, 64, 63
1, 383039, Control_c, 0, 64, 56
1, 383060, Control_c, 0, 64, 52
1, 383096, Control_c, 0, 64, 58
1, 383114, Control_c, 0, 64, 66
1, 383134, Control_c, 0, 64, 74
1, 383151, Control_c, 0, 64, 82
1, 383171, Control_c, 0, 64, 91
1, 383190, Control_c, 0, 64, 100
1, 383194, Note_off_c, 0, 63, 57
1, 383208, Control_c, 0, 64, 109
1, 383226, Control_c, 0, 64, 117
1, 383229, Note_on_c, 0, 51, 45
1, 383238, Note_on_c, 0, 75, 53
1, 383245, Control_c, 0, 64, 122
1, 383267, Note_off_c, 0, 72, 55
1, 383273, Poly_aftertouch_c, 0, 70, 24
1, 383282, Control_c, 0, 64, 126
1, 383297, Note_off_c, 0, 70, 42
1, 383297, Poly_aftertouch_c, 0, 70, 0
1, 383395, Control_c, 0, 67, 8
1, 383431, Control_c, 0, 67, 12
1, 383433, Note_on_c, 0, 77, 43
1, 383443, Note_off_c, 0, 51, 30
1, 383443, Poly_aftertouch_c, 0, 51, 0
1, 383444, Note_off_c, 0, 75, 30
1, 383446, Note_on_c, 0, 56, 40
1, 383446, Note_on_c, 0, 68, 48
1, 383470, Control_c, 0, 67, 19
1, 383487, Control_c, 0, 67, 25
1, 383507, Control_c, 0, 67, 31
1, 383526, Control_c, 0, 67, 37
1, 383545, Control_c, 0, 67, 44
1, 383563, Control_c, 0, 67, 49
1, 383572, Note_off_c, 0, 77, 51
1, 383576, Note_off_c, 0, 56, 48
1, 383583, Control_c, 0, 67, 53
1, 383601, Note_on_c, 0, 51, 49
1, 383611, Note_on_c, 0, 75, 50
1, 383618, Control_c, 0, 67, 60
1, 383644, Note_off_c, 0, 68, 36
1, 383644, Poly_aftertouch_c, 0, 68, 0
1, 383657, Control_c, 0, 67, 67
1, 383676, Control_c, 0, 67, 71
1, 383686, Note_off_c, 0, 51, 41
1, 383686, Poly_aftertouch_c, 0, 51, 0
1, 383689, Note_off_c, 0, 75, 50
1, 383692, Control_c, 0, 67, 76
1, 383731, Control_c, 0, 67, 83
1, 383741, Note_on_c, 0, 77, 50
1, 383750, Control_c, 0, 67, 88
1, 383751, Note_on_c, 0, 48, 47
1, 383758, Note_on_c, 0, 68, 56
1, 383768, Control_c, 0, 67, 93
1, 383788, Control_c, 0, 67, 99
1, 383806, Control_c, 0, 67, 104
1, 383825, Control_c, 0, 67, 109
1, 383843, Control_c, 0, 67, 113
1, 383863, Control_c, 0, 67, 117
1, 383878, Note_on_c, 0, 75, 49
1, 383890, Note_off_c, 0, 77, 36
1, 383903, Note_on_c, 0, 51, 39
1, 383913, Note_off_c, 0, 68, 36
1, 383913, Poly_aftertouch_c, 0, 68, 0
1, 383953, Note_off_c, 0, 51, 53
1, 383953, Poly_aftertouch_c, 0, 51, 0
1, 383954, Control_c, 0, 67, 121
1, 384013, Note_on_c, 0, 56, 38
1, 384018, Note_on_c, 0, 68, 51
1, 384022, Note_on_c, 0, 77, 43
1, 384029, Note_off_c, 0, 75, 36
1, 384051, Note_off_c, 0, 48, 19
1, 384092, Note_on_c, 0, 51, 51
1, 384100, Note_off_c, 0, 56, 49
1, 384132, Note_off_c, 0, 77, 50
1, 384154, Note_off_c, 0, 68, 48
1, 384154, Poly_aftertouch_c, 0, 68, 0
1, 384165, Note_on_c, 0, 75, 55
1, 384172, Note_off_c, 0, 51, 43
1, 384172, Poly_aftertouch_c, 0, 51, 0
1, 384245, Note_off_c, 0, 75, 50
1, 384260, Note_on_c, 0, 48, 47
1, 384285, Note_on_c, 0, 68, 59
1, 384296, Note_on_c, 0, 77, 43
1, 384393, Note_off_c, 0, 48, 57
1, 384397, Note_off_c, 0, 77, 48
1, 384402, Note_on_c, 0, 75, 59
1, 384425, Note_off_c, 0, 68, 46
1, 384425, Note_on_c, 0, 51, 42
1, 384425, Poly_aftertouch_c, 0, 68, 0
1, 384496, Note_off_c, 0, 51, 51
1, 384496, Poly_aftertouch_c, 0, 51, 0
1, 384510, Note_off_c, 0, 75, 51
1, 384534, Note_on_c, 0, 77, 53
1, 384547, Note_on_c, 0, 68, 62
1, 384560, Note_on_c, 0, 56, 42
1, 384592, Control_c, 0, 67, 116
1, 384628, Control_c, 0, 67, 111
1, 384640, Note_off_c, 0, 56, 49
1, 384655, Note_off_c, 0, 77, 50
1, 384662, Note_on_c, 0, 75, 58
1, 384665, Note_off_c, 0, 68, 52
1, 384665, Poly_aftertouch_c, 0, 68, 0
1, 384666, Control_c, 0, 67, 106
1, 384678, Note_on_c, 0, 51, 44
1, 384782, Note_off_c, 0, 51, 42
1, 384782, Poly_aftertouch_c, 0, 51, 0
1, 384787, Note_off_c, 0, 75, 45
1, 384797, Control_c, 0, 64, 118
1, 384809, Note_on_c, 0, 68, 61
1, 384817, Note_on_c, 0, 77, 48
1, 384817, Control_c, 0, 64, 99
1, 384832, Note_on_c, 0, 46, 47
1, 384835, Control_c, 0, 64, 78
1, 384854, Control_c, 0, 64, 62
1, 384872, Control_c, 0, 64, 55
1, 384909, Control_c, 0, 64, 58
1, 384929, Control_c, 0, 64, 63
1, 384930, Note_off_c, 0, 77, 29
1, 384944, Note_on_c, 0, 75, 60
1, 384948, Control_c, 0, 64, 70
1, 384963, Note_on_c, 0, 51, 46
1, 384966, Control_c, 0, 64, 76
1, 384984, Control_c, 0, 64, 81
1, 385000, Note_off_c, 0, 68, 60
1, 385000, Poly_aftertouch_c, 0, 68, 0
1, 385002, Control_c, 0, 64, 84
1, 385022, Control_c, 0, 64, 86
1, 385023, Note_off_c, 0, 51, 55
1, 385023, Poly_aftertouch_c, 0, 51, 0
1, 385047, Note_off_c, 0, 75, 56
1, 385058, Control_c, 0, 64, 88
1, 385065, Note_on_c, 0, 67, 60
1, 385070, Note_on_c, 0, 55, 44
1, 385092, Note_on_c, 0, 77, 35
1, 385114, Control_c, 0, 64, 93
1, 385132, Note_off_c, 0, 55, 60
1, 385152, Control_c, 0, 64, 98
1, 385175, Note_on_c, 0, 51, 48
1, 385183, Poly_aftertouch_c, 0, 46, 22
1, 385189, Control_c, 0, 64, 102
1, 385197, Note_off_c, 0, 46, 19
1, 385197, Poly_aftertouch_c, 0, 46, 0
1, 385198, Note_off_c, 0, 67, 51
1, 385202, Note_on_c, 0, 75, 58
1, 385226, Note_off_c, 0, 77, 34
1, 385246, Control_c, 0, 64, 107
1, 385282, Note_off_c, 0, 75, 45
1, 385303, Note_on_c, 0, 67, 65
1, 385310, Note_off_c, 0, 51, 47
1, 385310, Poly_aftertouch_c, 0, 51, 0
1, 385322, Note_on_c, 0, 77, 49
1, 385322, Control_c, 0, 64, 111
1, 385326, Note_on_c, 0, 49, 55
1, 385340, Control_c, 0, 67, 102
1, 385377, Control_c, 0, 64, 115
1, 385432, Control_c, 0, 67, 98
1, 385435, Note_on_c, 0, 75, 65
1, 385445, Note_off_c, 0, 67, 53
1, 385461, Note_off_c, 0, 49, 46
1, 385461, Poly_aftertouch_c, 0, 49, 0
1, 385465, Note_off_c, 0, 77, 34
1, 385470, Control_c, 0, 64, 119
1, 385476, Note_on_c, 0, 51, 50
1, 385535, Note_off_c, 0, 51, 56
1, 385535, Poly_aftertouch_c, 0, 51, 0
1, 385561, Note_on_c, 0, 65, 72
1, 385569, Note_on_c, 0, 58, 55
1, 385673, Note_off_c, 0, 58, 48
1, 385680, Note_off_c, 0, 65, 52
1, 385689, Note_on_c, 0, 51, 50
1, 385696, Note_off_c, 0, 75, 64
1, 385696, Note_on_c, 0, 75, 35
1, 385800, Note_on_c, 0, 67, 74
1, 385814, Note_off_c, 0, 51, 47
1, 385814, Poly_aftertouch_c, 0, 51, 0
1, 385826, Note_on_c, 0, 49, 54
1, 385830, Note_off_c, 0, 75, 59
1, 385832, Note_on_c, 0, 77, 62
1, 385897, Note_off_c, 0, 67, 62
1, 385946, Note_off_c, 0, 77, 53
1, 385968, Note_on_c, 0, 75, 61
1, 385975, Note_on_c, 0, 51, 47
1, 385987, Note_off_c, 0, 49, 34
1, 385987, Poly_aftertouch_c, 0, 49, 0
1, 386013, Control_c, 0, 64, 124
1, 386027, Note_off_c, 0, 51, 54
1, 386027, Poly_aftertouch_c, 0, 51, 0
1, 386059, Note_on_c, 0, 63, 78
1, 386069, Note_on_c, 0, 58, 50
1, 386085, Note_off_c, 0, 75, 54
1, 386125, Control_c, 0, 67, 93
1, 386138, Note_off_c, 0, 58, 50
1, 386143, Control_c, 0, 67, 87
1, 386162, Control_c, 0, 67, 81
1, 386163, Note_off_c, 0, 63, 56
1, 386180, Control_c, 0, 67, 75
1, 386182, Note_on_c, 0, 51, 52
1, 386200, Control_c, 0, 67, 69
1, 386210, Note_on_c, 0, 75, 62
1, 386219, Control_c, 0, 67, 64
1, 386312, Control_c, 0, 64, 117
1, 386330, Control_c, 0, 64, 108
1, 386333, Note_on_c, 0, 68, 73
1, 386342, Note_off_c, 0, 75, 57
1, 386346, Note_on_c, 0, 48, 50
1, 386349, Control_c, 0, 64, 93
1, 386353, Note_off_c, 0, 51, 34
1, 386353, Poly_aftertouch_c, 0, 51, 0
1, 386369, Control_c, 0, 64, 74
1, 386379, Note_on_c, 0, 77, 46
1, 386386, Control_c, 0, 64, 58
1, 386405, Control_c, 0, 64, 50
1, 386424, Control_c, 0, 64, 48
1, 386442, Control_c, 0, 64, 51
1, 386461, Control_c, 0, 64, 56
1, 386478, Note_on_c, 0, 75, 70
1, 386479, Note_off_c, 0, 77, 54
1, 386479, Control_c, 0, 64, 64
1, 386485, Note_off_c, 0, 48, 57
1, 386488, Note_on_c, 0, 51, 56
1, 386499, Control_c, 0, 64, 72
1, 386518, Control_c, 0, 64, 78
1, 386536, Control_c, 0, 64, 83
1, 386555, Control_c, 0, 64, 87
1, 386557, Note_off_c, 0, 51, 57
1, 386557, Poly_aftertouch_c, 0, 51, 0
1, 386592, Control_c, 0, 64, 92
1, 386593, Note_off_c, 0, 75, 62
1, 386605, Note_off_c, 0, 68, 37
1, 386605, Note_on_c, 0, 56, 46
1, 386605, Poly_aftertouch_c, 0, 68, 0
1, 386613, Note_on_c, 0, 77, 65
1, 386630, Control_c, 0, 64, 97
1, 386666, Note_off_c, 0, 56, 56
1, 386669, Control_c, 0, 64, 101
1, 386697, Note_on_c, 0, 51, 61
1, 386704, Control_c, 0, 64, 105
1, 386720, Note_on_c, 0, 75, 76
1, 386727, Note_off_c, 0, 77, 51
1, 386762, Control_c, 0, 64, 110
1, 386762, Control_c, 0, 67, 60
1, 386779, Note_off_c, 0, 51, 44
1, 386779, Poly_aftertouch_c, 0, 51, 0
1, 386798, Control_c, 0, 64, 114
1, 386799, Control_c, 0, 67, 55
1, 386816, Control_c, 0, 67, 50
1, 386820, Note_off_c, 0, 75, 62
1, 386824, Note_on_c, 0, 48, 55
1, 386828, Note_on_c, 0, 68, 80
1, 386831, Note_on_c, 0, 77, 69
1, 386835, Control_c, 0, 64, 119
1, 386835, Control_c, 0, 67, 42
1, 386854, Control_c, 0, 67, 34
1, 386873, Control_c, 0, 64, 123
1, 386874, Control_c, 0, 67, 26
1, 386892, Control_c, 0, 67, 18
1, 386909, Control_c, 0, 64, 127
1, 386912, Control_c, 0, 67, 9
1, 386913, Note_off_c, 0, 48, 59
1, 386938, Note_on_c, 0, 51, 62
1, 386957, Note_on_c, 0, 75, 72
1, 386978, Note_off_c, 0, 77, 38
1, 387023, Control_c, 0, 67, 0
1, 387030, Note_off_c, 0, 51, 54
1, 387030, Poly_aftertouch_c, 0, 51, 0
1, 387047, Note_off_c, 0, 75, 62
1, 387069, Note_on_c, 0, 56, 49
1, 387089, Note_on_c, 0, 77, 53
1, 387119, Note_off_c, 0, 56, 62
1, 387126, Note_off_c, 0, 68, 27
1, 387126, Poly_aftertouch_c, 0, 68, 0
1, 387179, Note_on_c, 0, 51, 62
1, 387190, Note_on_c, 0, 75, 68
1, 387203, Note_off_c, 0, 77, 51
1, 387303, Note_on_c, 0, 70, 77
1, 387303, Control_c, 0, 64, 112
1, 387307, Note_off_c, 0, 75, 63
1, 387316, Note_off_c, 0, 51, 53
1, 387316, Note_on_c, 0, 77, 67
1, 387316, Poly_aftertouch_c, 0, 51, 0
1, 387318, Note_on_c, 0, 43, 68
1, 387320, Control_c, 0, 64, 88
1, 387341, Control_c, 0, 64, 67
1, 387360, Control_c, 0, 64, 54
1, 387378, Control_c, 0, 64, 49
1, 387415, Control_c, 0, 64, 54
1, 387433, Control_c, 0, 64, 60
1, 387438, Note_on_c, 0, 75, 73
1, 387447, Note_off_c, 0, 43, 59
1, 387453, Note_on_c, 0, 51, 59
1, 387453, Control_c, 0, 64, 69
1, 387455, Note_off_c, 0, 77, 49
1, 387472, Control_c, 0, 64, 76
1, 387490, Control_c, 0, 64, 83
1, 387509, Control_c, 0, 64, 90
1, 387527, Control_c, 0, 64, 99
1, 387528, Note_off_c, 0, 75, 61
1, 387534, Note_off_c, 0, 51, 53
1, 387534, Poly_aftertouch_c, 0, 51, 0
1, 387546, Control_c, 0, 64, 108
1, 387558, Note_on_c, 0, 55, 52
1, 387560, Note_on_c, 0, 77, 60
1, 387566, Control_c, 0, 64, 118
1, 387583, Control_c, 0, 64, 126
1, 387643, Note_off_c, 0, 55, 58
1, 387665, Note_off_c, 0, 70, 48
1, 387665, Poly_aftertouch_c, 0, 70, 0
1, 387670, Note_on_c, 0, 75, 70
1, 387677, Note_on_c, 0, 51, 53
1, 387699, Note_off_c, 0, 77, 50
1, 387763, Note_off_c, 0, 51, 45
1, 387763, Poly_aftertouch_c, 0, 51, 0
1, 387770, Control_c, 0, 64, 114
1, 387789, Control_c, 0, 64, 97
1, 387792, Note_on_c, 0, 44, 66
1, 387795, Note_on_c, 0, 72, 73
1, 387806, Note_on_c, 0, 68, 71
1, 387808, Control_c, 0, 64, 78
1, 387809, Note_off_c, 0, 75, 55
1, 387827, Control_c, 0, 64, 62
1, 387844, Control_c, 0, 64, 53
1, 387863, Control_c, 0, 64, 50
1, 387882, Control_c, 0, 67, 8
1, 387901, Control_c, 0, 64, 53
1, 387919, Control_c, 0, 64, 59
1, 387930, Note_on_c, 0, 51, 56
1, 387936, Note_on_c, 0, 75, 74
1, 387938, Control_c, 0, 64, 67
1, 387957, Control_c, 0, 64, 74
1, 387967, Note_off_c, 0, 44, 55
1, 387975, Control_c, 0, 64, 80
1, 387997, Control_c, 0, 64, 86
1, 388002, Note_off_c, 0, 72, 55
1, 388013, Control_c, 0, 64, 94
1, 388014, Control_c, 0, 67, 12
1, 388018, Note_off_c, 0, 75, 60
1, 388023, Note_off_c, 0, 51, 55
1, 388023, Poly_aftertouch_c, 0, 51, 0
1, 388031, Control_c, 0, 64, 103
1, 388038, Note_on_c, 0, 56, 56
1, 388048, Note_on_c, 0, 77, 64
1, 388049, Control_c, 0, 64, 115
1, 388069, Control_c, 0, 64, 127
1, 388112, Note_off_c, 0, 56, 53
1, 388168, Note_on_c, 0, 75, 69
1, 388190, Note_off_c, 0, 68, 38
1, 388190, Poly_aftertouch_c, 0, 68, 0
1, 388198, Control_c, 0, 67, 16
1, 388207, Note_on_c, 0, 51, 7
1, 388209, Note_off_c, 0, 77, 57
1, 388257, Control_c, 0, 64, 121
1, 388275, Control_c, 0, 64, 100
1, 388284, Note_off_c, 0, 51, 33
1, 388284, Poly_aftertouch_c, 0, 51, 0
1, 388289, Note_on_c, 0, 39, 65
1, 388292, Control_c, 0, 64, 77
1, 388304, Note_on_c, 0, 70, 70
1, 388306, Note_on_c, 0, 67, 60
1, 388312, Control_c, 0, 64, 60
1, 388314, Note_off_c, 0, 75, 62
1, 388331, Control_c, 0, 64, 55
1, 388369, Control_c, 0, 64, 59
1, 388370, Note_off_c, 0, 39, 61
1, 388388, Control_c, 0, 64, 66
1, 388406, Control_c, 0, 64, 74
1, 388407, Control_c, 0, 67, 12
1, 388414, Note_on_c, 0, 51, 62
1, 388425, Control_c, 0, 64, 81
1, 388444, Control_c, 0, 64, 89
1, 388447, Note_on_c, 0, 75, 74
1, 388462, Control_c, 0, 64, 97
1, 388481, Control_c, 0, 64, 105
1, 388482, Control_c, 0, 67, 0
1, 388500, Control_c, 0, 64, 114
1, 388508, Note_off_c, 0, 70, 63
1, 388508, Poly_aftertouch_c, 0, 70, 0
1, 388517, Control_c, 0, 64, 123
1, 388525, Note_off_c, 0, 51, 56
1, 388525, Poly_aftertouch_c, 0, 51, 0
1, 388530, Note_off_c, 0, 75, 61
1, 388537, Note_on_c, 0, 55, 52
1, 388537, Control_c, 0, 64, 127
1, 388552, Note_on_c, 0, 77, 74
1, 388642, Note_off_c, 0, 55, 50
1, 388643, Note_off_c, 0, 67, 43
1, 388667, Note_on_c, 0, 51, 61
1, 388671, Note_on_c, 0, 75, 67
1, 388775, Note_on_c, 0, 72, 69
1, 388799, Control_c, 0, 64, 118
1, 388810, Note_on_c, 0, 42, 70
1, 388818, Control_c, 0, 64, 99
1, 388829, Note_on_c, 0, 70, 70
1, 388832, Note_off_c, 0, 51, 49
1, 388832, Poly_aftertouch_c, 0, 51, 0
1, 388837, Control_c, 0, 64, 78
1, 388855, Control_c, 0, 64, 59
1, 388874, Control_c, 0, 64, 34
1, 388892, Control_c, 0, 64, 0
1, 388931, Note_off_c, 0, 72, 55
1, 388974, Note_on_c, 0, 69, 65
1, 388985, Control_c, 0, 64, 13
1, 388988, Note_on_c, 0, 51, 66
1, 389002, Note_off_c, 0, 70, 57
1, 389002, Poly_aftertouch_c, 0, 70, 0
1, 389004, Control_c, 0, 64, 35
1, 389023, Control_c, 0, 64, 50
1, 389042, Control_c, 0, 64, 63
1, 389060, Control_c, 0, 64, 74
1, 389079, Control_c, 0, 64, 84
1, 389095, Note_off_c, 0, 77, 55
1, 389099, Note_off_c, 0, 51, 59
1, 389099, Poly_aftertouch_c, 0, 51, 0
1, 389099, Control_c, 0, 64, 99
1, 389116, Control_c, 0, 64, 116
1, 389120, Note_on_c, 0, 54, 56
1, 389128, Note_on_c, 0, 70, 71
1, 389135, Control_c, 0, 64, 127
1, 389148, Note_off_c, 0, 69, 53
1, 389148, Poly_aftertouch_c, 0, 69, 0
1, 389155, Note_off_c, 0, 75, 44
1, 389212, Note_off_c, 0, 42, 31
1, 389237, Note_on_c, 0, 51, 55
1, 389248, Note_off_c, 0, 70, 57
1, 389248, Poly_aftertouch_c, 0, 70, 0
1, 389254, Note_on_c, 0, 72, 66
1, 389275, Note_off_c, 0, 54, 50
1, 389281, Note_off_c, 0, 51, 58
1, 389281, Poly_aftertouch_c, 0, 51, 0
1, 389286, Note_off_c, 0, 72, 61
1, 389339, Poly_aftertouch_c, 0, 73, 0
1, 389378, Poly_aftertouch_c, 0, 73, 0
1, 389470, Note_on_c, 0, 73, 64
1, 389471, Control_c, 0, 64, 110
1, 389473, Note_on_c, 0, 41, 61
1, 389491, Control_c, 0, 64, 83
1, 389509, Control_c, 0, 64, 56
1, 389528, Control_c, 0, 64, 34
1, 389547, Control_c, 0, 64, 0
1, 389584, Control_c, 0, 64, 9
1, 389602, Control_c, 0, 64, 30
1, 389622, Control_c, 0, 64, 49
1, 389623, Note_off_c, 0, 41, 60
1, 389640, Control_c, 0, 64, 65
1, 389658, Control_c, 0, 64, 77
1, 389666, Note_on_c, 0, 80, 69
1, 389677, Control_c, 0, 64, 87
1, 389685, Note_on_c, 0, 53, 53
1, 389696, Control_c, 0, 64, 99
1, 389715, Control_c, 0, 64, 113
1, 389734, Control_c, 0, 64, 127
1, 389743, Note_off_c, 0, 53, 58
1, 389743, Poly_aftertouch_c, 0, 53, 0
1, 389749, Note_off_c, 0, 73, 53
1, 389815, Note_on_c, 0, 56, 61
1, 389818, Note_on_c, 0, 82, 76
1, 389833, Note_off_c, 0, 80, 58
1, 389896, Note_off_c, 0, 56, 60
1, 389954, Note_on_c, 0, 80, 79
1, 389957, Note_off_c, 0, 82, 59
1, 389960, Note_on_c, 0, 61, 57
1, 390029, Note_off_c, 0, 61, 52
1, 390068, Note_on_c, 0, 53, 61
1, 390078, Note_on_c, 0, 73, 74
1, 390082, Note_off_c, 0, 80, 60
1, 390091, Note_on_c, 0, 80, 13
1, 390092, Note_off_c, 0, 80, 127
1, 390101, Note_on_c, 0, 82, 53
1, 390106, Control_c, 0, 64, 121
1, 390126, Control_c, 0, 64, 103
1, 390145, Control_c, 0, 64, 87
1, 390164, Control_c, 0, 64, 77
1, 390183, Control_c, 0, 64, 75
1, 390193, Note_off_c, 0, 82, 45
1, 390204, Note_on_c, 0, 56, 56
1, 390215, Note_on_c, 0, 80, 69
1, 390217, Control_c, 0, 64, 81
1, 390218, Note_off_c, 0, 53, 46
1, 390218, Poly_aftertouch_c, 0, 53, 0
1, 390239, Control_c, 0, 64, 88
1, 390257, Control_c, 0, 64, 99
1, 390269, Note_off_c, 0, 56, 55
1, 390274, Control_c, 0, 64, 112
1, 390280, Note_off_c, 0, 80, 51
1, 390294, Control_c, 0, 64, 124
1, 390304, Note_on_c, 0, 61, 54
1, 390331, Note_on_c, 0, 82, 64
1, 390405, Note_off_c, 0, 61, 48
1, 390418, Note_on_c, 0, 56, 58
1, 390438, Note_on_c, 0, 80, 64
1, 390441, Note_off_c, 0, 82, 58
1, 390468, Note_off_c, 0, 73, 48
1, 390500, Note_off_c, 0, 56, 50
1, 390537, Note_off_c, 0, 80, 59
1, 390550, Note_on_c, 0, 51, 59
1, 390554, Control_c, 0, 64, 105
1, 390560, Note_on_c, 0, 82, 76
1, 390565, Note_on_c, 0, 72, 71
1, 390573, Control_c, 0, 64, 83
1, 390594, Control_c, 0, 64, 64
1, 390614, Control_c, 0, 64, 53
1, 390631, Control_c, 0, 64, 46
1, 390651, Note_off_c, 0, 82, 60
1, 390668, Control_c, 0, 64, 52
1, 390682, Note_on_c, 0, 80, 66
1, 390686, Note_on_c, 0, 56, 51
1, 390686, Control_c, 0, 64, 63
1, 390706, Control_c, 0, 64, 75
1, 390709, Note_off_c, 0, 51, 49
1, 390709, Poly_aftertouch_c, 0, 51, 0
1, 390725, Control_c, 0, 64, 87
1, 390743, Control_c, 0, 64, 101
1, 390759, Note_off_c, 0, 56, 58
1, 390760, Note_off_c, 0, 80, 62
1, 390762, Control_c, 0, 64, 116
1, 390781, Control_c, 0, 64, 127
1, 390795, Note_on_c, 0, 82, 66
1, 390811, Note_on_c, 0, 60, 41
1, 390866, Note_off_c, 0, 60, 44
1, 390912, Note_on_c, 0, 80, 65
1, 390913, Note_on_c, 0, 56, 56
1, 390918, Note_off_c, 0, 82, 57
1, 390983, Note_off_c, 0, 72, 52
1, 391006, Control_c, 0, 64, 115
1, 391019, Note_off_c, 0, 56, 54
1, 391023, Control_c, 0, 64, 93
1, 391042, Control_c, 0, 64, 74
1, 391045, Control_c, 0, 67, 10
1, 391047, Note_on_c, 0, 50, 55
1, 391047, Note_on_c, 0, 77, 74
1, 391062, Control_c, 0, 64, 62
1, 391064, Note_off_c, 0, 80, 60
1, 391079, Control_c, 0, 64, 60
1, 391081, Control_c, 0, 67, 19
1, 391099, Control_c, 0, 64, 62
1, 391100, Control_c, 0, 67, 29
1, 391116, Control_c, 0, 64, 67
1, 391117, Control_c, 0, 67, 40
1, 391128, Note_on_c, 0, 82, 11
1, 391135, Control_c, 0, 64, 75
1, 391135, Control_c, 0, 67, 49
1, 391155, Control_c, 0, 64, 84
1, 391158, Control_c, 0, 67, 56
1, 391161, Note_off_c, 0, 50, 59
1, 391171, Note_on_c, 0, 53, 51
1, 391174, Control_c, 0, 64, 95
1, 391175, Control_c, 0, 67, 65
1, 391180, Note_on_c, 0, 80, 72
1, 391193, Control_c, 0, 64, 105
1, 391194, Control_c, 0, 67, 76
1, 391200, Note_off_c, 0, 82, 47
1, 391211, Control_c, 0, 64, 113
1, 391212, Control_c, 0, 67, 87
1, 391230, Control_c, 0, 64, 120
1, 391230, Control_c, 0, 67, 95
1, 391250, Control_c, 0, 64, 127
1, 391251, Control_c, 0, 67, 101
1, 391254, Note_off_c, 0, 80, 62
1, 391264, Note_off_c, 0, 53, 58
1, 391264, Poly_aftertouch_c, 0, 53, 0
1, 391266, Control_c, 0, 67, 106
1, 391285, Control_c, 0, 67, 113
1, 391296, Note_on_c, 0, 58, 53
1, 391303, Note_on_c, 0, 82, 64
1, 391304, Control_c, 0, 67, 120
1, 391323, Control_c, 0, 67, 124
1, 391375, Note_off_c, 0, 58, 48
1, 391397, Note_on_c, 0, 80, 65
1, 391406, Note_off_c, 0, 82, 58
1, 391406, Note_off_c, 0, 77, 49
1, 391421, Note_on_c, 0, 53, 47
1, 391427, Note_off_c, 0, 80, 69
1, 391537, Note_off_c, 0, 53, 36
1, 391537, Poly_aftertouch_c, 0, 53, 0
1, 391544, Note_on_c, 0, 70, 68
1, 391545, Note_on_c, 0, 80, 65
1, 391546, Control_c, 0, 64, 119
1, 391551, Note_on_c, 0, 49, 55
1, 391566, Control_c, 0, 64, 101
1, 391584, Control_c, 0, 64, 83
1, 391603, Control_c, 0, 64, 69
1, 391622, Control_c, 0, 64, 62
1, 391641, Control_c, 0, 64, 60
1, 391677, Note_on_c, 0, 79, 64
1, 391677, Control_c, 0, 64, 64
1, 391691, Note_off_c, 0, 80, 59
1, 391696, Control_c, 0, 64, 68
1, 391704, Note_on_c, 0, 51, 37
1, 391716, Control_c, 0, 64, 74
1, 391734, Control_c, 0, 64, 81
1, 391750, Note_off_c, 0, 51, 58
1, 391750, Poly_aftertouch_c, 0, 51, 0
1, 391753, Control_c, 0, 64, 89
1, 391767, Note_on_c, 0, 58, 51
1, 391772, Control_c, 0, 64, 99
1, 391791, Control_c, 0, 64, 111
1, 391809, Control_c, 0, 64, 123
1, 391819, Note_on_c, 0, 80, 77
1, 391825, Note_off_c, 0, 79, 51
1, 391825, Poly_aftertouch_c, 0, 79, 0
1, 391828, Control_c, 0, 64, 127
1, 391834, Note_off_c, 0, 49, 31
1, 391834, Poly_aftertouch_c, 0, 49, 0
1, 391857, Note_off_c, 0, 58, 44
1, 391883, Note_on_c, 0, 51, 44
1, 391893, Note_off_c, 0, 70, 50
1, 391893, Poly_aftertouch_c, 0, 70, 0
1, 391941, Note_off_c, 0, 80, 61
1, 391978, Note_on_c, 0, 79, 45
1, 392052, Control_c, 0, 64, 122
1, 392066, Note_off_c, 0, 51, 58
1, 392066, Poly_aftertouch_c, 0, 51, 0
1, 392070, Control_c, 0, 64, 106
1, 392076, Poly_aftertouch_c, 0, 78, 0
1, 392081, Note_on_c, 0, 82, 69
1, 392083, Note_on_c, 0, 48, 51
1, 392083, Note_on_c, 0, 75, 57
1, 392088, Control_c, 0, 64, 88
1, 392110, Control_c, 0, 64, 73
1, 392123, Note_off_c, 0, 79, 41
1, 392123, Poly_aftertouch_c, 0, 79, 0
1, 392128, Control_c, 0, 64, 64
1, 392145, Control_c, 0, 64, 62
1, 392183, Control_c, 0, 64, 64
1, 392194, Note_off_c, 0, 48, 62
1, 392201, Control_c, 0, 64, 67
1, 392214, Note_off_c, 0, 82, 57
1, 392217, Note_on_c, 0, 80, 58
1, 392220, Control_c, 0, 64, 72
1, 392223, Note_on_c, 0, 51, 54
1, 392239, Control_c, 0, 64, 78
1, 392258, Control_c, 0, 64, 84
1, 392259, Note_off_c, 0, 75, 55
1, 392276, Control_c, 0, 64, 92
1, 392295, Control_c, 0, 64, 101
1, 392313, Note_off_c, 0, 80, 57
1, 392313, Control_c, 0, 64, 110
1, 392319, Note_off_c, 0, 51, 47
1, 392319, Poly_aftertouch_c, 0, 51, 0
1, 392333, Control_c, 0, 64, 120
1, 392351, Note_on_c, 0, 56, 42
1, 392351, Control_c, 0, 64, 127
1, 392360, Note_on_c, 0, 82, 53
1, 392439, Note_off_c, 0, 56, 41
1, 392448, Note_off_c, 0, 82, 53
1, 392477, Note_on_c, 0, 80, 57
1, 392505, Note_on_c, 0, 51, 46
1, 392518, Note_off_c, 0, 80, 62
1, 392537, Note_off_c, 0, 51, 59
1, 392537, Poly_aftertouch_c, 0, 51, 0
1, 392690, Note_on_c, 0, 39, 57
1, 392690, Note_on_c, 0, 77, 56
1, 392707, Control_c, 0, 64, 115
1, 392711, Note_on_c, 0, 68, 50
1, 392726, Control_c, 0, 64, 96
1, 392744, Control_c, 0, 64, 79
1, 392762, Control_c, 0, 64, 70
1, 392818, Control_c, 0, 64, 72
1, 392838, Control_c, 0, 64, 76
1, 392856, Control_c, 0, 64, 82
1, 392858, Note_off_c, 0, 39, 60
1, 392874, Control_c, 0, 64, 89
1, 392878, Note_on_c, 0, 48, 52
1, 392883, Note_off_c, 0, 77, 58
1, 392894, Control_c, 0, 64, 98
1, 392903, Note_on_c, 0, 75, 55
1, 392913, Control_c, 0, 64, 105
1, 392930, Note_off_c, 0, 68, 53
1, 392930, Poly_aftertouch_c, 0, 68, 0
1, 392931, Control_c, 0, 64, 110
1, 392968, Control_c, 0, 64, 116
1, 392987, Control_c, 0, 64, 120
1, 393004, Note_off_c, 0, 75, 56
1, 393005, Control_c, 0, 64, 124
1, 393008, Note_on_c, 0, 51, 62
1, 393027, Note_on_c, 0, 77, 61
1, 393047, Note_off_c, 0, 48, 35
1, 393077, Note_off_c, 0, 51, 56
1, 393077, Poly_aftertouch_c, 0, 51, 0
1, 393121, Note_on_c, 0, 56, 46
1, 393141, Note_off_c, 0, 77, 56
1, 393143, Note_on_c, 0, 75, 71
1, 393151, Note_on_c, 0, 48, 19
1, 393155, Note_off_c, 0, 56, 54
1, 393227, Note_off_c, 0, 48, 44
1, 393262, Note_off_c, 0, 75, 60
1, 393267, Control_c, 0, 64, 116
1, 393275, Note_on_c, 0, 39, 60
1, 393278, Note_on_c, 0, 72, 51
1, 393280, Note_on_c, 0, 68, 49
1, 393285, Control_c, 0, 64, 102
1, 393286, Note_on_c, 0, 77, 57
1, 393305, Control_c, 0, 64, 87
1, 393325, Control_c, 0, 64, 74
1, 393343, Control_c, 0, 64, 68
1, 393358, Note_off_c, 0, 39, 60
1, 393359, Control_c, 0, 64, 67
1, 393379, Control_c, 0, 64, 69
1, 393399, Control_c, 0, 64, 71
1, 393402, Note_off_c, 0, 77, 57
1, 393406, Note_on_c, 0, 75, 71
1, 393414, Note_on_c, 0, 48, 46
1, 393417, Control_c, 0, 64, 76
1, 393433, Note_off_c, 0, 72, 53
1, 393434, Control_c, 0, 64, 83
1, 393455, Control_c, 0, 64, 92
1, 393474, Control_c, 0, 64, 101
1, 393491, Control_c, 0, 64, 109
1, 393501, Note_off_c, 0, 68, 37
1, 393501, Poly_aftertouch_c, 0, 68, 0
1, 393511, Control_c, 0, 64, 115
1, 393515, Note_off_c, 0, 75, 58
1, 393524, Note_on_c, 0, 51, 54
1, 393529, Control_c, 0, 64, 119
1, 393541, Note_on_c, 0, 77, 64
1, 393566, Control_c, 0, 64, 126
1, 393574, Note_off_c, 0, 51, 60
1, 393574, Poly_aftertouch_c, 0, 51, 0
1, 393650, Note_off_c, 0, 77, 54
1, 393659, Note_on_c, 0, 75, 70
1, 393716, Control_c, 0, 64, 120
1, 393727, Note_off_c, 0, 48, 50
1, 393728, Poly_aftertouch_c, 0, 48, 0
1, 393735, Control_c, 0, 64, 113
1, 393753, Control_c, 0, 64, 102
1, 393762, Note_off_c, 0, 75, 59
1, 393773, Control_c, 0, 64, 87
1, 393776, Note_on_c, 0, 39, 59
1, 393792, Control_c, 0, 64, 72
1, 393804, Note_on_c, 0, 77, 51
1, 393808, Note_on_c, 0, 70, 48
1, 393811, Note_on_c, 0, 67, 47
1, 393811, Control_c, 0, 64, 63
1, 393828, Control_c, 0, 64, 59
1, 393879, Note_off_c, 0, 39, 61
1, 393885, Control_c, 0, 64, 62
1, 393902, Control_c, 0, 64, 67
1, 393919, Note_on_c, 0, 49, 52
1, 393923, Control_c, 0, 64, 73
1, 393930, Note_off_c, 0, 77, 56
1, 393939, Note_on_c, 0, 75, 51
1, 393942, Control_c, 0, 64, 78
1, 393955, Note_off_c, 0, 70, 32
1, 393955, Poly_aftertouch_c, 0, 70, 0
1, 393958, Control_c, 0, 64, 84
1, 393978, Control_c, 0, 64, 90
1, 393997, Control_c, 0, 64, 96
1, 394016, Control_c, 0, 64, 101
1, 394024, Note_off_c, 0, 67, 35
1, 394034, Control_c, 0, 64, 105
1, 394040, Note_off_c, 0, 75, 50
1, 394044, Note_off_c, 0, 49, 50
1, 394044, Poly_aftertouch_c, 0, 49, 0
1, 394046, Note_on_c, 0, 51, 52
1, 394053, Control_c, 0, 64, 110
1, 394072, Control_c, 0, 64, 115
1, 394086, Note_on_c, 0, 77, 52
1, 394089, Control_c, 0, 64, 119
1, 394128, Control_c, 0, 64, 126
1, 394137, Note_off_c, 0, 51, 57
1, 394137, Poly_aftertouch_c, 0, 51, 0
1, 394167, Note_on_c, 0, 55, 50
1, 394212, Note_on_c, 0, 75, 54
1, 394222, Note_off_c, 0, 55, 60
1, 394246, Note_off_c, 0, 77, 51
1, 394445, Control_c, 0, 64, 120
1, 394461, Note_on_c, 0, 68, 49
1, 394463, Control_c, 0, 64, 109
1, 394475, Note_on_c, 0, 51, 38
1, 394482, Control_c, 0, 64, 92
1, 394484, Note_on_c, 0, 56, 40
1, 394500, Note_on_c, 0, 44, 41
1, 394500, Control_c, 0, 64, 74
1, 394502, Note_on_c, 0, 48, 33
1, 394504, Note_off_c, 0, 75, 46
1, 394520, Control_c, 0, 64, 59
1, 394540, Control_c, 0, 64, 47
1, 394557, Control_c, 0, 64, 36
1, 394596, Control_c, 0, 64, 41
1, 394614, Control_c, 0, 64, 51
1, 394633, Control_c, 0, 64, 66
1, 394634, Control_c, 0, 67, 118
1, 394651, Control_c, 0, 64, 79
1, 394652, Control_c, 0, 67, 110
1, 394670, Control_c, 0, 64, 91
1, 394673, Control_c, 0, 67, 101
1, 394685, Note_off_c, 0, 44, 52
1, 394689, Control_c, 0, 64, 105
1, 394689, Control_c, 0, 67, 91
1, 394693, Note_off_c, 0, 68, 58
1, 394693, Poly_aftertouch_c, 0, 68, 0
1, 394704, Note_off_c, 0, 51, 47
1, 394704, Poly_aftertouch_c, 0, 51, 0
1, 394707, Control_c, 0, 64, 117
1, 394708, Control_c, 0, 67, 81
1, 394727, Control_c, 0, 64, 126
1, 394728, Control_c, 0, 67, 73
1, 394734, Note_off_c, 0, 56, 38
1, 394746, Control_c, 0, 67, 66
1, 394763, Control_c, 0, 67, 59
1, 394781, Note_off_c, 0, 48, 29
1, 394781, Control_c, 0, 67, 54
1, 394819, Control_c, 0, 67, 48
1, 394876, Control_c, 0, 67, 44
1, 394950, Note_on_c, 0, 63, 52
1, 395092, Note_off_c, 0, 63, 54
1, 395305, Control_c, 0, 64, 122
1, 395325, Control_c, 0, 64, 113
1, 395338, Note_on_c, 0, 63, 52
1, 395342, Control_c, 0, 64, 97
1, 395362, Control_c, 0, 64, 80
1, 395381, Control_c, 0, 64, 68
1, 395399, Control_c, 0, 64, 63
1, 395418, Control_c, 0, 64, 62
1, 395436, Control_c, 0, 64, 64
1, 395455, Control_c, 0, 64, 68
1, 395475, Control_c, 0, 64, 75
1, 395476, Control_c, 0, 67, 38
1, 395493, Control_c, 0, 64, 83
1, 395494, Control_c, 0, 67, 33
1, 395511, Control_c, 0, 64, 93
1, 395515, Control_c, 0, 67, 29
1, 395524, Note_off_c, 0, 63, 54
1, 395529, Control_c, 0, 64, 104
1, 395530, Control_c, 0, 67, 24
1, 395549, Control_c, 0, 64, 113
1, 395551, Control_c, 0, 67, 17
1, 395568, Control_c, 0, 64, 121
1, 395570, Control_c, 0, 67, 8
1, 395586, Control_c, 0, 64, 127
1, 395660, Control_c, 0, 67, 0
1, 395665, Note_on_c, 0, 63, 64
1, 395757, Note_off_c, 0, 63, 53
1, 395936, Note_on_c, 0, 63, 65
1, 396060, Note_off_c, 0, 63, 58
1, 396265, Note_on_c, 0, 63, 68
1, 396524, Note_off_c, 0, 63, 34
1, 396689, Note_on_c, 0, 72, 76
1, 396745, Control_c, 0, 64, 120
1, 396757, Note_on_c, 0, 63, 34
1, 396761, Note_on_c, 0, 60, 43
1, 396763, Control_c, 0, 64, 109
1, 396783, Control_c, 0, 64, 100
1, 396876, Control_c, 0, 64, 108
1, 396883, Note_off_c, 0, 60, 51
1, 396895, Control_c, 0, 64, 114
1, 396914, Control_c, 0, 64, 122
1, 396923, Note_off_c, 0, 63, 36
1, 396932, Control_c, 0, 64, 127
1, 397134, Note_on_c, 0, 63, 28
1, 397175, Note_on_c, 0, 60, 24
1, 397219, Note_off_c, 0, 63, 45
1, 397219, Note_off_c, 0, 60, 46
1, 397443, Note_on_c, 0, 39, 42
1, 397450, Note_on_c, 0, 63, 35
1, 397460, Note_on_c, 0, 51, 29
1, 397490, Note_on_c, 0, 60, 21
1, 397532, Control_c, 0, 67, 9
1, 397567, Note_off_c, 0, 60, 46
1, 397580, Note_off_c, 0, 63, 50
1, 397597, Note_off_c, 0, 39, 53
1, 397625, Control_c, 0, 67, 13
1, 397658, Note_off_c, 0, 51, 39
1, 397658, Poly_aftertouch_c, 0, 51, 0
1, 397660, Control_c, 0, 67, 17
1, 397700, Control_c, 0, 67, 24
1, 397717, Control_c, 0, 67, 28
1, 397736, Control_c, 0, 67, 33
1, 397752, Note_on_c, 0, 63, 54
1, 397755, Control_c, 0, 67, 39
1, 397774, Control_c, 0, 67, 44
1, 397784, Note_on_c, 0, 60, 38
1, 397792, Control_c, 0, 67, 48
1, 397829, Control_c, 0, 67, 55
1, 397842, Note_off_c, 0, 60, 51
1, 397863, Note_off_c, 0, 63, 58
1, 397866, Control_c, 0, 67, 59
1, 398036, Control_c, 0, 64, 121
1, 398037, Note_on_c, 0, 70, 69
1, 398054, Control_c, 0, 64, 107
1, 398073, Note_on_c, 0, 56, 40
1, 398073, Control_c, 0, 64, 91
1, 398077, Note_on_c, 0, 44, 44
1, 398095, Control_c, 0, 64, 78
1, 398111, Control_c, 0, 64, 71
1, 398114, Note_on_c, 0, 60, 27
1, 398148, Control_c, 0, 64, 73
1, 398158, Note_off_c, 0, 72, 52
1, 398166, Control_c, 0, 64, 77
1, 398185, Control_c, 0, 64, 83
1, 398197, Note_off_c, 0, 60, 43
1, 398203, Control_c, 0, 64, 92
1, 398205, Control_c, 0, 67, 54
1, 398217, Poly_aftertouch_c, 0, 63, 0
1, 398223, Control_c, 0, 64, 102
1, 398224, Control_c, 0, 67, 49
1, 398242, Control_c, 0, 64, 110
1, 398243, Control_c, 0, 67, 42
1, 398260, Control_c, 0, 64, 114
1, 398261, Control_c, 0, 67, 35
1, 398270, Note_off_c, 0, 44, 35
1, 398280, Control_c, 0, 67, 29
1, 398287, Note_off_c, 0, 56, 34
1, 398298, Control_c, 0, 64, 120
1, 398299, Control_c, 0, 67, 24
1, 398315, Note_on_c, 0, 68, 71
1, 398316, Control_c, 0, 67, 19
1, 398335, Control_c, 0, 64, 125
1, 398336, Control_c, 0, 67, 15
1, 398350, Note_on_c, 0, 60, 44
1, 398350, Note_on_c, 0, 63, 52
1, 398360, Note_off_c, 0, 70, 60
1, 398360, Poly_aftertouch_c, 0, 70, 0
1, 398373, Control_c, 0, 67, 8
1, 398384, Note_off_c, 0, 60, 53
1, 398414, Note_off_c, 0, 63, 52
1, 398452, Note_off_c, 0, 68, 60
1, 398452, Poly_aftertouch_c, 0, 68, 0
1, 398607, Note_on_c, 0, 68, 68
1, 398615, Control_c, 0, 64, 116
1, 398633, Control_c, 0, 64, 102
1, 398641, Note_on_c, 0, 63, 51
1, 398647, Note_on_c, 0, 61, 42
1, 398652, Control_c, 0, 64, 86
1, 398671, Control_c, 0, 64, 70
1, 398673, Control_c, 0, 67, 12
1, 398690, Control_c, 0, 64, 58
1, 398709, Control_c, 0, 64, 48
1, 398727, Control_c, 0, 64, 38
1, 398734, Note_off_c, 0, 63, 41
1, 398750, Note_off_c, 0, 61, 40
1, 398784, Control_c, 0, 64, 43
1, 398785, Control_c, 0, 67, 18
1, 398802, Control_c, 0, 64, 52
1, 398821, Control_c, 0, 64, 62
1, 398822, Control_c, 0, 67, 26
1, 398840, Control_c, 0, 64, 70
1, 398841, Control_c, 0, 67, 30
1, 398858, Control_c, 0, 64, 76
1, 398860, Control_c, 0, 67, 35
1, 398877, Control_c, 0, 64, 81
1, 398878, Control_c, 0, 67, 40
1, 398890, Note_on_c, 0, 61, 49
1, 398893, Note_on_c, 0, 63, 55
1, 398895, Control_c, 0, 64, 87
1, 398898, Control_c, 0, 67, 46
1, 398915, Control_c, 0, 64, 94
1, 398916, Control_c, 0, 67, 50
1, 398932, Control_c, 0, 64, 102
1, 398952, Control_c, 0, 64, 110
1, 398954, Control_c, 0, 67, 57
1, 398962, Note_off_c, 0, 61, 55
1, 398971, Control_c, 0, 64, 115
1, 398974, Note_off_c, 0, 63, 47
1, 398990, Control_c, 0, 67, 63
1, 399027, Control_c, 0, 67, 67
1, 399083, Control_c, 0, 67, 72
1, 399102, Control_c, 0, 64, 110
1, 399120, Control_c, 0, 64, 102
1, 399140, Control_c, 0, 64, 88
1, 399147, Note_on_c, 0, 67, 61
1, 399157, Control_c, 0, 64, 73
1, 399159, Control_c, 0, 67, 76
1, 399178, Control_c, 0, 64, 59
1, 399185, Note_on_c, 0, 61, 38
1, 399186, Note_on_c, 0, 39, 41
1, 399194, Note_on_c, 0, 51, 26
1, 399194, Control_c, 0, 64, 46
1, 399213, Control_c, 0, 64, 26
1, 399247, Note_off_c, 0, 61, 45
1, 399251, Poly_aftertouch_c, 0, 63, 0
1, 399270, Control_c, 0, 64, 14
1, 399282, Note_off_c, 0, 68, 37
1, 399282, Poly_aftertouch_c, 0, 68, 0
1, 399287, Control_c, 0, 64, 26
1, 399307, Control_c, 0, 64, 38
1, 399325, Control_c, 0, 64, 51
1, 399344, Control_c, 0, 64, 64
1, 399346, Control_c, 0, 67, 71
1, 399364, Control_c, 0, 64, 73
1, 399377, Note_off_c, 0, 39, 57
1, 399381, Control_c, 0, 64, 80
1, 399383, Control_c, 0, 67, 63
1, 399401, Control_c, 0, 64, 87
1, 399404, Control_c, 0, 67, 54
1, 399419, Control_c, 0, 64, 95
1, 399422, Control_c, 0, 67, 45
1, 399440, Control_c, 0, 64, 104
1, 399441, Control_c, 0, 67, 36
1, 399447, Note_on_c, 0, 63, 50
1, 399455, Control_c, 0, 64, 112
1, 399456, Note_off_c, 0, 51, 39
1, 399456, Poly_aftertouch_c, 0, 51, 0
1, 399456, Control_c, 0, 67, 30
1, 399472, Note_on_c, 0, 61, 32
1, 399474, Control_c, 0, 64, 119
1, 399475, Control_c, 0, 67, 25
1, 399494, Control_c, 0, 64, 125
1, 399524, Note_off_c, 0, 61, 50
1, 399557, Note_off_c, 0, 67, 44
1, 399569, Note_off_c, 0, 63, 51
1, 399680, Control_c, 0, 64, 114
1, 399699, Control_c, 0, 64, 98
1, 399702, Note_on_c, 0, 67, 67
1, 399718, Control_c, 0, 64, 81
1, 399724, Note_on_c, 0, 46, 48
1, 399735, Note_on_c, 0, 58, 37
1, 399736, Control_c, 0, 64, 67
1, 399746, Note_on_c, 0, 63, 35
1, 399750, Note_on_c, 0, 61, 35
1, 399755, Control_c, 0, 64, 60
1, 399789, Note_off_c, 0, 63, 50
1, 399792, Note_off_c, 0, 61, 53
1, 399793, Control_c, 0, 64, 61
1, 399812, Control_c, 0, 64, 66
1, 399830, Control_c, 0, 64, 72
1, 399835, Note_off_c, 0, 58, 46
1, 399850, Control_c, 0, 64, 79
1, 399851, Control_c, 0, 67, 20
1, 399858, Note_off_c, 0, 46, 55
1, 399858, Poly_aftertouch_c, 0, 46, 0
1, 399866, Control_c, 0, 64, 87
1, 399868, Control_c, 0, 67, 15
1, 399889, Control_c, 0, 64, 94
1, 399890, Control_c, 0, 67, 10
1, 399906, Control_c, 0, 64, 99
1, 399942, Control_c, 0, 64, 104
1, 399970, Note_on_c, 0, 63, 48
1, 399978, Control_c, 0, 64, 108
1, 400018, Control_c, 0, 64, 113
1, 400039, Note_off_c, 0, 63, 55
1, 400055, Poly_aftertouch_c, 0, 61, 127
1, 400089, Poly_aftertouch_c, 0, 61, 0
1, 400113, Note_on_c, 0, 68, 67
1, 400205, Note_off_c, 0, 67, 35
1, 400205, Control_c, 0, 64, 107
1, 400242, Control_c, 0, 64, 98
1, 400243, Control_c, 0, 67, 14
1, 400261, Control_c, 0, 64, 89
1, 400262, Note_on_c, 0, 70, 73
1, 400280, Control_c, 0, 64, 77
1, 400298, Control_c, 0, 64, 66
1, 400304, Note_on_c, 0, 61, 42
1, 400317, Note_off_c, 0, 68, 60
1, 400317, Poly_aftertouch_c, 0, 68, 0
1, 400317, Control_c, 0, 64, 56
1, 400318, Control_c, 0, 67, 19
1, 400335, Control_c, 0, 64, 45
1, 400355, Control_c, 0, 64, 35
1, 400356, Control_c, 0, 67, 24
1, 400371, Note_off_c, 0, 61, 46
1, 400372, Control_c, 0, 64, 30
1, 400391, Control_c, 0, 67, 32
1, 400405, Poly_aftertouch_c, 0, 63, 0
1, 400412, Control_c, 0, 64, 36
1, 400413, Control_c, 0, 67, 36
1, 400429, Control_c, 0, 64, 44
1, 400430, Control_c, 0, 67, 41
1, 400450, Control_c, 0, 64, 55
1, 400450, Control_c, 0, 67, 47
1, 400467, Control_c, 0, 64, 65
1, 400469, Control_c, 0, 67, 53
1, 400485, Control_c, 0, 64, 73
1, 400486, Control_c, 0, 67, 58
1, 400504, Control_c, 0, 64, 78
1, 400505, Control_c, 0, 67, 63
1, 400524, Control_c, 0, 64, 84
1, 400525, Control_c, 0, 67, 68
1, 400540, Control_c, 0, 64, 90
1, 400541, Control_c, 0, 67, 73
1, 400548, Note_on_c, 0, 63, 48
1, 400556, Note_on_c, 0, 61, 31
1, 400559, Control_c, 0, 64, 97
1, 400560, Control_c, 0, 67, 78
1, 400579, Control_c, 0, 64, 106
1, 400579, Control_c, 0, 67, 83
1, 400598, Control_c, 0, 64, 113
1, 400598, Control_c, 0, 67, 87
1, 400616, Control_c, 0, 64, 119
1, 400617, Note_off_c, 0, 70, 61
1, 400617, Poly_aftertouch_c, 0, 70, 0
1, 400622, Note_off_c, 0, 63, 54
1, 400626, Note_off_c, 0, 61, 45
1, 400635, Control_c, 0, 64, 123
1, 400636, Control_c, 0, 67, 92
1, 400785, Control_c, 0, 64, 114
1, 400802, Note_on_c, 0, 70, 59
1, 400802, Control_c, 0, 64, 102
1, 400803, Control_c, 0, 67, 96
1, 400821, Control_c, 0, 64, 86
1, 400824, Note_on_c, 0, 39, 43
1, 400832, Note_on_c, 0, 51, 30
1, 400837, Note_on_c, 0, 63, 36
1, 400837, Note_on_c, 0, 61, 44
1, 400840, Control_c, 0, 64, 70
1, 400859, Control_c, 0, 64, 60
1, 400878, Control_c, 0, 67, 101
1, 400907, Note_off_c, 0, 63, 55
1, 400912, Note_off_c, 0, 61, 56
1, 400915, Control_c, 0, 64, 63
1, 400934, Control_c, 0, 64, 69
1, 400947, Note_off_c, 0, 39, 58
1, 400952, Control_c, 0, 64, 76
1, 400971, Note_off_c, 0, 51, 53
1, 400971, Poly_aftertouch_c, 0, 51, 0
1, 400972, Control_c, 0, 64, 82
1, 400991, Control_c, 0, 64, 88
1, 401009, Control_c, 0, 64, 92
1, 401047, Control_c, 0, 64, 98
1, 401084, Control_c, 0, 64, 104
1, 401103, Control_c, 0, 64, 109
1, 401108, Note_on_c, 0, 61, 43
1, 401109, Note_on_c, 0, 63, 48
1, 401121, Control_c, 0, 64, 116
1, 401139, Control_c, 0, 64, 124
1, 401159, Note_off_c, 0, 70, 51
1, 401159, Poly_aftertouch_c, 0, 70, 0
1, 401166, Note_off_c, 0, 63, 57
1, 401169, Note_off_c, 0, 61, 47
1, 401345, Control_c, 0, 64, 115
1, 401359, Note_on_c, 0, 70, 52
1, 401363, Control_c, 0, 64, 98
1, 401373, Note_on_c, 0, 43, 41
1, 401382, Note_on_c, 0, 55, 34
1, 401382, Control_c, 0, 64, 80
1, 401393, Note_on_c, 0, 61, 44
1, 401400, Control_c, 0, 64, 65
1, 401407, Note_on_c, 0, 63, 39
1, 401421, Control_c, 0, 64, 59
1, 401439, Control_c, 0, 67, 97
1, 401458, Control_c, 0, 64, 61
1, 401463, Note_off_c, 0, 63, 55
1, 401476, Control_c, 0, 64, 65
1, 401478, Control_c, 0, 67, 90
1, 401486, Note_off_c, 0, 61, 53
1, 401486, Note_off_c, 0, 43, 57
1, 401495, Control_c, 0, 64, 71
1, 401496, Control_c, 0, 67, 80
1, 401503, Note_off_c, 0, 55, 58
1, 401514, Control_c, 0, 64, 77
1, 401515, Control_c, 0, 67, 66
1, 401533, Control_c, 0, 64, 83
1, 401534, Control_c, 0, 67, 53
1, 401551, Control_c, 0, 64, 88
1, 401553, Control_c, 0, 67, 43
1, 401571, Control_c, 0, 67, 37
1, 401589, Control_c, 0, 64, 93
1, 401608, Control_c, 0, 67, 33
1, 401650, Note_on_c, 0, 61, 50
1, 401699, Control_c, 0, 67, 37
1, 401708, Note_on_c, 0, 63, 33
1, 401757, Control_c, 0, 67, 43
1, 401766, Note_off_c, 0, 63, 47
1, 401768, Note_off_c, 0, 70, 35
1, 401768, Poly_aftertouch_c, 0, 70, 0
1, 401769, Poly_aftertouch_c, 0, 70, 0
1, 401795, Control_c, 0, 67, 51
1, 401801, Note_off_c, 0, 61, 33
1, 401805, Note_on_c, 0, 72, 49
1, 401813, Control_c, 0, 67, 56
1, 401831, Control_c, 0, 67, 61
1, 401851, Control_c, 0, 67, 66
1, 401870, Control_c, 0, 67, 71
1, 401887, Control_c, 0, 67, 76
1, 401907, Control_c, 0, 67, 80
1, 401944, Control_c, 0, 64, 86
1, 401945, Control_c, 0, 67, 86
1, 401962, Control_c, 0, 64, 79
1, 401973, Note_on_c, 0, 68, 49
1, 401980, Control_c, 0, 64, 69
1, 401981, Control_c, 0, 67, 90
1, 402002, Control_c, 0, 64, 57
1, 402005, Note_on_c, 0, 60, 34
1, 402012, Note_off_c, 0, 72, 37
1, 402012, Note_on_c, 0, 63, 26
1, 402017, Control_c, 0, 64, 43
1, 402038, Control_c, 0, 64, 25
1, 402040, Control_c, 0, 67, 95
1, 402056, Control_c, 0, 64, 16
1, 402093, Control_c, 0, 64, 26
1, 402100, Note_off_c, 0, 60, 46
1, 402100, Note_off_c, 0, 63, 41
1, 402112, Control_c, 0, 64, 36
1, 402130, Control_c, 0, 64, 48
1, 402149, Control_c, 0, 64, 59
1, 402167, Control_c, 0, 64, 67
1, 402187, Control_c, 0, 64, 72
1, 402205, Control_c, 0, 64, 75
1, 402224, Control_c, 0, 64, 77
1, 402261, Note_on_c, 0, 63, 44
1, 402261, Control_c, 0, 64, 80
1, 402281, Control_c, 0, 64, 82
1, 402288, Note_on_c, 0, 60, 32
1, 402300, Control_c, 0, 64, 84
1, 402317, Control_c, 0, 64, 88
1, 402342, Note_off_c, 0, 63, 51
1, 402342, Note_off_c, 0, 60, 52
1, 402354, Control_c, 0, 64, 94
1, 402468, Control_c, 0, 67, 101
1, 402485, Control_c, 0, 64, 88
1, 402505, Control_c, 0, 64, 76
1, 402508, Control_c, 0, 67, 105
1, 402522, Control_c, 0, 64, 62
1, 402528, Note_on_c, 0, 60, 34
1, 402536, Note_on_c, 0, 63, 38
1, 402541, Control_c, 0, 64, 54
1, 402543, Control_c, 0, 67, 111
1, 402550, Note_on_c, 0, 39, 32
1, 402555, Note_on_c, 0, 51, 26
1, 402559, Control_c, 0, 64, 51
1, 402579, Control_c, 0, 67, 117
1, 402598, Control_c, 0, 64, 55
1, 402617, Control_c, 0, 64, 61
1, 402618, Control_c, 0, 67, 124
1, 402621, Note_off_c, 0, 63, 51
1, 402624, Note_off_c, 0, 60, 52
1, 402635, Control_c, 0, 64, 69
1, 402654, Control_c, 0, 64, 75
1, 402673, Control_c, 0, 64, 79
1, 402688, Note_off_c, 0, 39, 55
1, 402689, Control_c, 0, 64, 83
1, 402711, Control_c, 0, 64, 87
1, 402748, Control_c, 0, 64, 92
1, 402754, Note_off_c, 0, 51, 43
1, 402754, Poly_aftertouch_c, 0, 51, 0
1, 402785, Control_c, 0, 64, 97
1, 402817, Note_on_c, 0, 63, 38
1, 402820, Note_on_c, 0, 60, 33
1, 402822, Control_c, 0, 64, 103
1, 402860, Control_c, 0, 64, 110
1, 402897, Control_c, 0, 64, 115
1, 402901, Note_off_c, 0, 63, 48
1, 402901, Note_off_c, 0, 60, 44
1, 403084, Control_c, 0, 64, 107
1, 403103, Control_c, 0, 64, 97
1, 403119, Note_on_c, 0, 63, 32
1, 403120, Note_on_c, 0, 56, 31
1, 403122, Note_on_c, 0, 60, 33
1, 403122, Control_c, 0, 64, 85
1, 403124, Note_on_c, 0, 44, 38
1, 403140, Control_c, 0, 64, 72
1, 403159, Control_c, 0, 64, 63
1, 403177, Control_c, 0, 64, 61
1, 403196, Control_c, 0, 64, 63
1, 403215, Control_c, 0, 64, 66
1, 403218, Note_off_c, 0, 63, 49
1, 403229, Note_off_c, 0, 60, 48
1, 403233, Control_c, 0, 64, 72
1, 403254, Control_c, 0, 64, 79
1, 403272, Control_c, 0, 64, 88
1, 403289, Control_c, 0, 64, 98
1, 403309, Control_c, 0, 64, 107
1, 403327, Control_c, 0, 64, 113
1, 403329, Control_c, 0, 67, 120
1, 403339, Note_off_c, 0, 56, 42
1, 403346, Control_c, 0, 64, 117
1, 403347, Control_c, 0, 67, 113
1, 403356, Note_off_c, 0, 44, 35
1, 403364, Control_c, 0, 67, 107
1, 403384, Control_c, 0, 64, 121
1, 403385, Control_c, 0, 67, 101
1, 403421, Control_c, 0, 67, 96
1, 403439, Control_c, 0, 64, 126
1, 403460, Note_on_c, 0, 60, 37
1, 403484, Note_on_c, 0, 63, 23
1, 403552, Control_c, 0, 67, 92
1, 403596, Note_off_c, 0, 63, 37
1, 403608, Control_c, 0, 67, 87
1, 403628, Poly_aftertouch_c, 0, 68, 24
1, 403646, Note_off_c, 0, 60, 30
1, 403667, Note_off_c, 0, 68, 41
1, 403667, Poly_aftertouch_c, 0, 68, 0
1, 403856, Note_on_c, 0, 72, 51
1, 403870, Control_c, 0, 64, 119
1, 403888, Control_c, 0, 64, 110
1, 403900, Note_on_c, 0, 60, 34
1, 403906, Control_c, 0, 64, 103
1, 403912, Note_on_c, 0, 63, 32
1, 404000, Control_c, 0, 64, 109
1, 404037, Control_c, 0, 64, 115
1, 404041, Note_off_c, 0, 72, 50
1, 404091, Note_off_c, 0, 60, 29
1, 404143, Note_off_c, 0, 63, 27
1, 404303, Note_on_c, 0, 71, 57
1, 404327, Note_on_c, 0, 63, 42
1, 404345, Note_on_c, 0, 60, 36
1, 404374, Control_c, 0, 67, 91
1, 404407, Note_off_c, 0, 71, 53
1, 404431, Note_off_c, 0, 60, 36
1, 404455, Note_off_c, 0, 63, 46
1, 404581, Control_c, 0, 67, 96
1, 404636, Control_c, 0, 64, 108
1, 404638, Control_c, 0, 67, 100
1, 404649, Note_on_c, 0, 73, 56
1, 404655, Control_c, 0, 64, 100
1, 404674, Control_c, 0, 64, 87
1, 404693, Control_c, 0, 64, 73
1, 404695, Control_c, 0, 67, 105
1, 404710, Note_on_c, 0, 39, 32
1, 404711, Control_c, 0, 64, 67
1, 404720, Note_on_c, 0, 51, 23
1, 404725, Note_on_c, 0, 63, 6
1, 404745, Poly_aftertouch_c, 0, 60, 127
1, 404767, Control_c, 0, 64, 72
1, 404778, Poly_aftertouch_c, 0, 60, 0
1, 404784, Control_c, 0, 64, 77
1, 404805, Control_c, 0, 64, 84
1, 404814, Note_off_c, 0, 73, 56
1, 404823, Note_off_c, 0, 63, 45
1, 404824, Control_c, 0, 64, 91
1, 404835, Note_off_c, 0, 39, 51
1, 404840, Control_c, 0, 64, 97
1, 404898, Control_c, 0, 64, 101
1, 404917, Note_off_c, 0, 51, 41
1, 404917, Poly_aftertouch_c, 0, 51, 0
1, 404947, Note_on_c, 0, 72, 54
1, 404954, Control_c, 0, 64, 106
1, 404984, Note_on_c, 0, 60, 28
1, 404991, Control_c, 0, 64, 113
1, 404997, Note_on_c, 0, 63, 29
1, 405010, Control_c, 0, 64, 117
1, 405041, Note_off_c, 0, 60, 46
1, 405046, Control_c, 0, 64, 122
1, 405047, Note_off_c, 0, 72, 55
1, 405053, Note_off_c, 0, 63, 49
1, 405142, Control_c, 0, 67, 110
1, 405160, Control_c, 0, 64, 112
1, 405179, Control_c, 0, 64, 100
1, 405197, Control_c, 0, 64, 86
1, 405213, Note_on_c, 0, 70, 53
1, 405216, Control_c, 0, 64, 74
1, 405234, Note_on_c, 0, 60, 33
1, 405235, Note_on_c, 0, 56, 36
1, 405235, Control_c, 0, 64, 70
1, 405244, Note_on_c, 0, 44, 37
1, 405272, Control_c, 0, 64, 74
1, 405291, Control_c, 0, 64, 78
1, 405298, Poly_aftertouch_c, 0, 63, 127
1, 405309, Control_c, 0, 64, 85
1, 405327, Control_c, 0, 64, 95
1, 405344, Note_off_c, 0, 44, 52
1, 405346, Control_c, 0, 64, 105
1, 405355, Note_off_c, 0, 60, 44
1, 405356, Poly_aftertouch_c, 0, 63, 0
1, 405365, Control_c, 0, 64, 110
1, 405365, Control_c, 0, 67, 106
1, 405368, Note_off_c, 0, 56, 50
1, 405373, Note_off_c, 0, 70, 56
1, 405404, Control_c, 0, 64, 114
1, 405405, Control_c, 0, 67, 101
1, 405422, Control_c, 0, 67, 97
1, 405440, Control_c, 0, 67, 91
1, 405459, Control_c, 0, 67, 84
1, 405478, Control_c, 0, 64, 118
1, 405478, Control_c, 0, 67, 76
1, 405483, Note_on_c, 0, 68, 57
1, 405495, Control_c, 0, 67, 70
1, 405499, Note_on_c, 0, 60, 50
1, 405510, Note_on_c, 0, 63, 34
1, 405514, Control_c, 0, 64, 124
1, 405516, Control_c, 0, 67, 65
1, 405547, Note_off_c, 0, 60, 62
1, 405554, Control_c, 0, 67, 60
1, 405570, Note_off_c, 0, 63, 46
1, 405580, Note_off_c, 0, 68, 57
1, 405580, Poly_aftertouch_c, 0, 68, 0
1, 405664, Control_c, 0, 67, 65
1, 405702, Control_c, 0, 64, 120
1, 405703, Control_c, 0, 67, 70
1, 405721, Control_c, 0, 64, 116
1, 405722, Control_c, 0, 67, 75
1, 405741, Control_c, 0, 64, 108
1, 405742, Control_c, 0, 67, 81
1, 405754, Note_on_c, 0, 68, 52
1, 405758, Control_c, 0, 64, 95
1, 405760, Control_c, 0, 67, 86
1, 405777, Control_c, 0, 64, 80
1, 405778, Control_c, 0, 67, 92
1, 405796, Control_c, 0, 64, 65
1, 405799, Control_c, 0, 67, 98
1, 405804, Note_on_c, 0, 61, 38
1, 405805, Note_on_c, 0, 63, 37
1, 405814, Control_c, 0, 64, 55
1, 405815, Control_c, 0, 67, 105
1, 405833, Control_c, 0, 64, 45
1, 405834, Control_c, 0, 67, 110
1, 405852, Control_c, 0, 64, 37
1, 405853, Control_c, 0, 67, 114
1, 405889, Control_c, 0, 64, 40
1, 405896, Note_off_c, 0, 61, 53
1, 405908, Control_c, 0, 64, 46
1, 405913, Note_off_c, 0, 63, 56
1, 405926, Control_c, 0, 64, 55
1, 405946, Control_c, 0, 64, 65
1, 405964, Control_c, 0, 64, 70
1, 405965, Control_c, 0, 67, 118
1, 405982, Control_c, 0, 64, 74
1, 406001, Control_c, 0, 64, 78
1, 406020, Control_c, 0, 64, 82
1, 406039, Control_c, 0, 64, 87
1, 406051, Note_on_c, 0, 67, 50
1, 406058, Control_c, 0, 64, 92
1, 406067, Note_on_c, 0, 61, 46
1, 406075, Note_on_c, 0, 63, 48
1, 406077, Control_c, 0, 64, 98
1, 406095, Control_c, 0, 64, 105
1, 406113, Control_c, 0, 64, 111
1, 406124, Note_off_c, 0, 68, 25
1, 406124, Poly_aftertouch_c, 0, 68, 0
1, 406131, Control_c, 0, 64, 115
1, 406144, Note_off_c, 0, 63, 50
1, 406147, Note_off_c, 0, 61, 50
1, 406170, Note_off_c, 0, 67, 52
1, 406244, Control_c, 0, 64, 108
1, 406263, Control_c, 0, 64, 96
1, 406283, Control_c, 0, 64, 81
1, 406301, Control_c, 0, 64, 68
1, 406320, Control_c, 0, 64, 61
1, 406325, Note_on_c, 0, 67, 55
1, 406332, Note_on_c, 0, 51, 32
1, 406339, Control_c, 0, 64, 59
1, 406342, Note_on_c, 0, 39, 36
1, 406351, Note_on_c, 0, 61, 40
1, 406358, Control_c, 0, 64, 60
1, 406364, Note_on_c, 0, 63, 31
1, 406375, Control_c, 0, 64, 64
1, 406394, Control_c, 0, 64, 71
1, 406409, Note_off_c, 0, 61, 46
1, 406412, Control_c, 0, 64, 79
1, 406413, Control_c, 0, 67, 114
1, 406420, Note_off_c, 0, 63, 48
1, 406420, Note_off_c, 0, 67, 62
1, 406432, Control_c, 0, 64, 88
1, 406450, Control_c, 0, 64, 98
1, 406451, Control_c, 0, 67, 110
1, 406461, Note_off_c, 0, 39, 53
1, 406469, Control_c, 0, 64, 105
1, 406488, Control_c, 0, 64, 111
1, 406489, Control_c, 0, 67, 101
1, 406506, Control_c, 0, 64, 116
1, 406506, Control_c, 0, 67, 94
1, 406526, Control_c, 0, 67, 87
1, 406535, Note_off_c, 0, 51, 44
1, 406535, Poly_aftertouch_c, 0, 51, 0
1, 406542, Control_c, 0, 64, 123
1, 406543, Control_c, 0, 67, 80
1, 406562, Control_c, 0, 67, 76
1, 406581, Control_c, 0, 64, 127
1, 406592, Note_on_c, 0, 66, 63
1, 406600, Control_c, 0, 67, 70
1, 406623, Note_on_c, 0, 61, 41
1, 406629, Note_on_c, 0, 63, 33
1, 406683, Note_off_c, 0, 61, 44
1, 406719, Note_off_c, 0, 63, 42
1, 406726, Note_off_c, 0, 66, 55
1, 406805, Control_c, 0, 64, 116
1, 406824, Control_c, 0, 64, 101
1, 406843, Control_c, 0, 64, 82
1, 406862, Control_c, 0, 64, 66
1, 406866, Note_on_c, 0, 67, 54
1, 406881, Control_c, 0, 64, 56
1, 406883, Note_on_c, 0, 63, 40
1, 406886, Note_on_c, 0, 46, 37
1, 406889, Note_on_c, 0, 58, 35
1, 406891, Note_on_c, 0, 61, 36
1, 406899, Control_c, 0, 64, 53
1, 406936, Control_c, 0, 64, 58
1, 406956, Control_c, 0, 64, 66
1, 406962, Note_off_c, 0, 63, 48
1, 406970, Note_off_c, 0, 61, 43
1, 406973, Control_c, 0, 64, 76
1, 406992, Control_c, 0, 64, 86
1, 407007, Note_off_c, 0, 67, 53
1, 407011, Control_c, 0, 64, 97
1, 407018, Note_off_c, 0, 46, 53
1, 407018, Poly_aftertouch_c, 0, 46, 0
1, 407030, Control_c, 0, 64, 110
1, 407032, Control_c, 0, 67, 64
1, 407048, Control_c, 0, 64, 120
1, 407049, Control_c, 0, 67, 58
1, 407070, Control_c, 0, 64, 125
1, 407071, Control_c, 0, 67, 51
1, 407073, Note_off_c, 0, 58, 35
1, 407085, Control_c, 0, 67, 44
1, 407105, Control_c, 0, 67, 37
1, 407122, Control_c, 0, 67, 30
1, 407139, Note_on_c, 0, 68, 57
1, 407141, Control_c, 0, 67, 26
1, 407142, Note_on_c, 0, 61, 49
1, 407152, Note_on_c, 0, 63, 47
1, 407212, Note_off_c, 0, 61, 52
1, 407218, Note_off_c, 0, 63, 53
1, 407219, Note_off_c, 0, 68, 61
1, 407219, Poly_aftertouch_c, 0, 68, 0
1, 407329, Control_c, 0, 67, 32
1, 407347, Control_c, 0, 67, 36
1, 407367, Control_c, 0, 64, 113
1, 407368, Control_c, 0, 67, 42
1, 407385, Control_c, 0, 64, 98
1, 407386, Control_c, 0, 67, 48
1, 407403, Control_c, 0, 64, 80
1, 407404, Control_c, 0, 67, 55
1, 407409, Note_on_c, 0, 70, 56
1, 407422, Control_c, 0, 64, 64
1, 407424, Control_c, 0, 67, 61
1, 407436, Note_on_c, 0, 61, 35
1, 407439, Control_c, 0, 64, 55
1, 407440, Control_c, 0, 67, 67
1, 407451, Note_on_c, 0, 63, 40
1, 407457, Control_c, 0, 64, 51
1, 407458, Control_c, 0, 67, 73
1, 407478, Control_c, 0, 67, 79
1, 407498, Control_c, 0, 64, 56
1, 407499, Control_c, 0, 67, 83
1, 407515, Note_off_c, 0, 70, 56
1, 407515, Control_c, 0, 64, 62
1, 407515, Control_c, 0, 67, 87
1, 407518, Note_off_c, 0, 61, 50
1, 407534, Control_c, 0, 64, 70
1, 407535, Control_c, 0, 67, 91
1, 407552, Note_off_c, 0, 63, 50
1, 407552, Control_c, 0, 64, 75
1, 407554, Control_c, 0, 67, 95
1, 407572, Control_c, 0, 64, 79
1, 407591, Control_c, 0, 64, 83
1, 407592, Control_c, 0, 67, 101
1, 407609, Control_c, 0, 64, 85
1, 407628, Control_c, 0, 64, 87
1, 407630, Control_c, 0, 67, 105
1, 407665, Control_c, 0, 64, 92
1, 407685, Note_on_c, 0, 69, 53
1, 407687, Control_c, 0, 64, 96
1, 407695, Note_on_c, 0, 61, 35
1, 407701, Control_c, 0, 64, 101
1, 407709, Note_on_c, 0, 63, 38
1, 407721, Control_c, 0, 64, 107
1, 407741, Control_c, 0, 64, 112
1, 407760, Control_c, 0, 64, 116
1, 407761, Control_c, 0, 67, 109
1, 407779, Note_off_c, 0, 63, 49
1, 407782, Note_off_c, 0, 61, 41
1, 407797, Note_off_c, 0, 69, 49
1, 407797, Poly_aftertouch_c, 0, 69, 0
1, 407909, Control_c, 0, 64, 108
1, 407910, Control_c, 0, 67, 113
1, 407926, Control_c, 0, 64, 96
1, 407936, Note_on_c, 0, 39, 40
1, 407945, Control_c, 0, 64, 81
1, 407955, Note_on_c, 0, 70, 52
1, 407959, Note_on_c, 0, 51, 21
1, 407964, Control_c, 0, 64, 68
1, 407975, Note_on_c, 0, 61, 28
1, 407978, Note_on_c, 0, 63, 31
1, 407981, Control_c, 0, 64, 65
1, 408001, Control_c, 0, 64, 66
1, 408022, Control_c, 0, 64, 69
1, 408023, Control_c, 0, 67, 117
1, 408039, Control_c, 0, 64, 74
1, 408058, Control_c, 0, 64, 81
1, 408061, Note_off_c, 0, 70, 57
1, 408076, Note_off_c, 0, 39, 58
1, 408076, Control_c, 0, 64, 90
1, 408079, Note_off_c, 0, 61, 41
1, 408096, Control_c, 0, 64, 97
1, 408108, Note_off_c, 0, 51, 53
1, 408108, Poly_aftertouch_c, 0, 51, 0
1, 408109, Note_off_c, 0, 63, 39
1, 408114, Control_c, 0, 64, 102
1, 408188, Control_c, 0, 64, 107
1, 408223, Note_on_c, 0, 69, 45
1, 408225, Control_c, 0, 64, 111
1, 408232, Note_on_c, 0, 61, 38
1, 408242, Note_on_c, 0, 63, 32
1, 408265, Control_c, 0, 64, 117
1, 408290, Note_off_c, 0, 61, 46
1, 408307, Note_off_c, 0, 63, 45
1, 408316, Note_off_c, 0, 69, 48
1, 408316, Poly_aftertouch_c, 0, 69, 0
1, 408318, Control_c, 0, 64, 121
1, 408432, Control_c, 0, 64, 115
1, 408451, Control_c, 0, 64, 109
1, 408468, Control_c, 0, 64, 98
1, 408488, Control_c, 0, 64, 83
1, 408501, Note_on_c, 0, 70, 46
1, 408507, Note_on_c, 0, 43, 34
1, 408507, Control_c, 0, 64, 69
1, 408522, Note_on_c, 0, 63, 31
1, 408525, Control_c, 0, 64, 63
1, 408528, Note_on_c, 0, 55, 22
1, 408541, Note_on_c, 0, 61, 30
1, 408562, Control_c, 0, 64, 66
1, 408582, Control_c, 0, 64, 69
1, 408583, Note_off_c, 0, 70, 64
1, 408600, Control_c, 0, 64, 76
1, 408602, Control_c, 0, 67, 112
1, 408619, Control_c, 0, 64, 84
1, 408620, Note_off_c, 0, 61, 39
1, 408640, Control_c, 0, 64, 92
1, 408641, Control_c, 0, 67, 105
1, 408656, Control_c, 0, 64, 100
1, 408657, Control_c, 0, 67, 99
1, 408663, Note_off_c, 0, 63, 38
1, 408675, Control_c, 0, 64, 104
1, 408676, Control_c, 0, 67, 91
1, 408694, Control_c, 0, 67, 82
1, 408697, Note_off_c, 0, 43, 37
1, 408713, Control_c, 0, 67, 74
1, 408720, Note_off_c, 0, 55, 39
1, 408731, Control_c, 0, 64, 109
1, 408732, Control_c, 0, 67, 68
1, 408749, Control_c, 0, 67, 64
1, 408785, Note_on_c, 0, 72, 47
1, 408787, Control_c, 0, 64, 113
1, 408788, Control_c, 0, 67, 57
1, 408804, Note_on_c, 0, 63, 35
1, 408820, Note_on_c, 0, 61, 30
1, 408824, Control_c, 0, 64, 117
1, 408824, Control_c, 0, 67, 52
1, 408862, Control_c, 0, 64, 122
1, 408888, Note_off_c, 0, 63, 49
1, 408890, Note_off_c, 0, 61, 43
1, 408910, Note_off_c, 0, 72, 38
1, 409068, Control_c, 0, 64, 116
1, 409086, Control_c, 0, 64, 110
1, 409095, Note_on_c, 0, 68, 49
1, 409103, Control_c, 0, 64, 102
1, 409104, Control_c, 0, 67, 56
1, 409122, Note_on_c, 0, 63, 30
1, 409122, Control_c, 0, 64, 92
1, 409126, Note_on_c, 0, 60, 35
1, 409143, Control_c, 0, 64, 80
1, 409144, Control_c, 0, 67, 64
1, 409162, Control_c, 0, 64, 69
1, 409165, Control_c, 0, 67, 70
1, 409180, Control_c, 0, 64, 59
1, 409181, Control_c, 0, 67, 76
1, 409199, Control_c, 0, 64, 51
1, 409201, Control_c, 0, 67, 82
1, 409203, Note_off_c, 0, 63, 54
1, 409217, Control_c, 0, 64, 44
1, 409219, Control_c, 0, 67, 87
1, 409222, Note_off_c, 0, 60, 50
1, 409236, Control_c, 0, 64, 39
1, 409237, Control_c, 0, 67, 92
1, 409255, Control_c, 0, 67, 96
1, 409273, Control_c, 0, 64, 42
1, 409275, Control_c, 0, 67, 100
1, 409292, Control_c, 0, 64, 46
1, 409293, Control_c, 0, 67, 104
1, 409311, Control_c, 0, 64, 53
1, 409329, Control_c, 0, 64, 61
1, 409331, Control_c, 0, 67, 109
1, 409348, Control_c, 0, 64, 68
1, 409368, Control_c, 0, 64, 71
1, 409386, Control_c, 0, 64, 74
1, 409387, Control_c, 0, 67, 113
1, 409390, Note_on_c, 0, 63, 32
1, 409403, Note_on_c, 0, 60, 32
1, 409404, Control_c, 0, 64, 76
1, 409423, Control_c, 0, 64, 78
1, 409443, Control_c, 0, 64, 81
1, 409460, Control_c, 0, 64, 83
1, 409474, Note_off_c, 0, 60, 51
1, 409475, Note_off_c, 0, 63, 52
1, 409478, Control_c, 0, 64, 85
1, 409517, Control_c, 0, 64, 87
1, 409662, Note_on_c, 0, 63, 36
1, 409665, Note_on_c, 0, 51, 51
1, 409666, Control_c, 0, 64, 84
1, 409685, Control_c, 0, 64, 78
1, 409703, Control_c, 0, 64, 70
1, 409722, Control_c, 0, 64, 64
1, 409723, Note_off_c, 0, 63, 54
1, 409741, Control_c, 0, 64, 60
1, 409753, Poly_aftertouch_c, 0, 60, 0
1, 409797, Control_c, 0, 64, 64
1, 409816, Control_c, 0, 64, 68
1, 409836, Control_c, 0, 64, 74
1, 409838, Control_c, 0, 67, 108
1, 409853, Control_c, 0, 64, 80
1, 409872, Control_c, 0, 64, 87
1, 409875, Control_c, 0, 67, 100
1, 409891, Control_c, 0, 64, 93
1, 409893, Control_c, 0, 67, 90
1, 409909, Control_c, 0, 64, 100
1, 409910, Control_c, 0, 67, 78
1, 409927, Control_c, 0, 64, 106
1, 409928, Control_c, 0, 67, 66
1, 409931, Note_on_c, 0, 63, 37
1, 409945, Control_c, 0, 64, 113
1, 409947, Note_on_c, 0, 60, 22
1, 409947, Control_c, 0, 67, 58
1, 409965, Control_c, 0, 64, 119
1, 409966, Control_c, 0, 67, 52
1, 410002, Control_c, 0, 64, 123
1, 410003, Control_c, 0, 67, 48
1, 410031, Note_off_c, 0, 60, 40
1, 410039, Note_off_c, 0, 63, 43
1, 410044, Note_off_c, 0, 68, 42
1, 410044, Poly_aftertouch_c, 0, 68, 0
1, 410115, Control_c, 0, 67, 53
1, 410133, Control_c, 0, 64, 116
1, 410152, Control_c, 0, 64, 111
1, 410172, Control_c, 0, 64, 102
1, 410174, Control_c, 0, 67, 57
1, 410190, Control_c, 0, 64, 89
1, 410208, Control_c, 0, 64, 75
1, 410212, Note_on_c, 0, 56, 42
1, 410212, Control_c, 0, 67, 63
1, 410221, Note_on_c, 0, 63, 24
1, 410227, Control_c, 0, 64, 64
1, 410236, Note_off_c, 0, 51, 48
1, 410236, Poly_aftertouch_c, 0, 51, 0
1, 410246, Control_c, 0, 64, 57
1, 410247, Control_c, 0, 67, 70
1, 410264, Control_c, 0, 67, 75
1, 410283, Control_c, 0, 67, 80
1, 410302, Control_c, 0, 64, 65
1, 410304, Control_c, 0, 67, 84
1, 410322, Control_c, 0, 64, 74
1, 410323, Note_off_c, 0, 63, 47
1, 410323, Control_c, 0, 67, 88
1, 410335, Poly_aftertouch_c, 0, 60, 0
1, 410338, Control_c, 0, 64, 83
1, 410358, Control_c, 0, 64, 94
1, 410360, Control_c, 0, 67, 94
1, 410377, Control_c, 0, 64, 105
1, 410396, Control_c, 0, 64, 114
1, 410414, Control_c, 0, 64, 120
1, 410419, Note_off_c, 0, 56, 53
1, 410511, Note_on_c, 0, 69, 61
1, 410540, Note_on_c, 0, 60, 38
1, 410543, Note_on_c, 0, 63, 38
1, 410543, Control_c, 0, 64, 124
1, 410590, Note_off_c, 0, 60, 49
1, 410652, Note_off_c, 0, 63, 35
1, 410675, Control_c, 0, 67, 90
1, 410683, Note_off_c, 0, 69, 57
1, 410683, Poly_aftertouch_c, 0, 69, 0
1, 410750, Control_c, 0, 67, 85
1, 410891, Note_on_c, 0, 70, 66
1, 410900, Control_c, 0, 64, 117
1, 410919, Control_c, 0, 64, 111
1, 410930, Note_on_c, 0, 61, 46
1, 410937, Note_on_c, 0, 63, 42
1, 410937, Control_c, 0, 64, 100
1, 410958, Control_c, 0, 64, 85
1, 410975, Control_c, 0, 64, 69
1, 410994, Control_c, 0, 64, 56
1, 411013, Control_c, 0, 64, 44
1, 411031, Control_c, 0, 64, 36
1, 411057, Note_off_c, 0, 63, 44
1, 411066, Note_off_c, 0, 61, 46
1, 411067, Control_c, 0, 67, 89
1, 411086, Control_c, 0, 64, 45
1, 411106, Control_c, 0, 64, 54
1, 411124, Control_c, 0, 64, 65
1, 411143, Control_c, 0, 64, 72
1, 411144, Control_c, 0, 67, 93
1, 411162, Control_c, 0, 64, 76
1, 411182, Control_c, 0, 64, 79
1, 411183, Control_c, 0, 67, 98
1, 411219, Control_c, 0, 64, 82
1, 411220, Control_c, 0, 67, 104
1, 411250, Note_on_c, 0, 63, 37
1, 411254, Control_c, 0, 64, 85
1, 411259, Note_on_c, 0, 61, 33
1, 411293, Control_c, 0, 64, 88
1, 411294, Control_c, 0, 67, 109
1, 411365, Note_off_c, 0, 63, 55
1, 411367, Note_off_c, 0, 61, 49
1, 411367, Control_c, 0, 67, 113
1, 411518, Control_c, 0, 64, 86
1, 411535, Control_c, 0, 64, 81
1, 411540, Note_on_c, 0, 63, 43
1, 411553, Note_on_c, 0, 61, 30
1, 411553, Control_c, 0, 64, 72
1, 411556, Note_on_c, 0, 39, 36
1, 411574, Control_c, 0, 64, 62
1, 411592, Control_c, 0, 64, 55
1, 411610, Control_c, 0, 64, 46
1, 411629, Control_c, 0, 64, 37
1, 411636, Note_off_c, 0, 63, 48
1, 411642, Note_off_c, 0, 61, 42
1, 411649, Control_c, 0, 64, 33
1, 411686, Control_c, 0, 64, 40
1, 411704, Control_c, 0, 64, 48
1, 411724, Control_c, 0, 64, 60
1, 411742, Control_c, 0, 64, 71
1, 411742, Control_c, 0, 67, 107
1, 411760, Control_c, 0, 64, 79
1, 411763, Control_c, 0, 67, 103
1, 411779, Control_c, 0, 64, 85
1, 411782, Control_c, 0, 67, 97
1, 411799, Control_c, 0, 64, 91
1, 411800, Control_c, 0, 67, 89
1, 411818, Control_c, 0, 64, 96
1, 411819, Control_c, 0, 67, 80
1, 411826, Note_on_c, 0, 63, 38
1, 411833, Note_on_c, 0, 61, 29
1, 411833, Control_c, 0, 64, 101
1, 411834, Control_c, 0, 67, 72
1, 411854, Control_c, 0, 67, 67
1, 411874, Control_c, 0, 64, 105
1, 411900, Note_off_c, 0, 63, 51
1, 411904, Note_off_c, 0, 61, 44
1, 411983, Note_off_c, 0, 70, 35
1, 411985, Control_c, 0, 67, 71
1, 412022, Control_c, 0, 64, 99
1, 412023, Control_c, 0, 67, 75
1, 412041, Control_c, 0, 64, 93
1, 412043, Control_c, 0, 67, 79
1, 412060, Control_c, 0, 64, 85
1, 412061, Control_c, 0, 67, 83
1, 412078, Control_c, 0, 64, 75
1, 412080, Control_c, 0, 67, 89
1, 412096, Note_on_c, 0, 43, 33
1, 412096, Control_c, 0, 64, 66
1, 412096, Control_c, 0, 67, 94
1, 412102, Note_on_c, 0, 63, 35
1, 412114, Control_c, 0, 64, 59
1, 412115, Control_c, 0, 67, 99
1, 412125, Note_on_c, 0, 61, 16
1, 412133, Control_c, 0, 64, 56
1, 412134, Control_c, 0, 67, 103
1, 412172, Control_c, 0, 64, 60
1, 412173, Control_c, 0, 67, 108
1, 412188, Note_off_c, 0, 63, 50
1, 412190, Control_c, 0, 64, 65
1, 412203, Note_off_c, 0, 39, 41
1, 412204, Note_off_c, 0, 61, 46
1, 412209, Control_c, 0, 64, 72
1, 412229, Control_c, 0, 64, 77
1, 412230, Control_c, 0, 67, 113
1, 412246, Control_c, 0, 64, 82
1, 412266, Control_c, 0, 64, 86
1, 412284, Control_c, 0, 67, 117
1, 412302, Control_c, 0, 64, 91
1, 412359, Note_off_c, 0, 43, 38
1, 412359, Control_c, 0, 64, 95
1, 412383, Note_on_c, 0, 72, 48
1, 412397, Control_c, 0, 64, 100
1, 412398, Control_c, 0, 67, 121
1, 412415, Note_on_c, 0, 61, 29
1, 412420, Note_on_c, 0, 63, 33
1, 412473, Note_off_c, 0, 72, 59
1, 412483, Note_off_c, 0, 63, 46
1, 412511, Note_off_c, 0, 61, 38
1, 412638, Control_c, 0, 67, 125
1, 412677, Control_c, 0, 64, 93
1, 412694, Control_c, 0, 64, 88
1, 412703, Note_on_c, 0, 68, 41
1, 412713, Control_c, 0, 64, 82
1, 412716, Note_on_c, 0, 60, 34
1, 412732, Control_c, 0, 64, 73
1, 412733, Note_on_c, 0, 63, 24
1, 412751, Control_c, 0, 64, 63
1, 412770, Control_c, 0, 64, 55
1, 412788, Control_c, 0, 64, 47
1, 412808, Control_c, 0, 64, 43
1, 412810, Note_off_c, 0, 63, 53
1, 412816, Note_off_c, 0, 60, 55
1, 412845, Control_c, 0, 64, 47
1, 412864, Control_c, 0, 64, 52
1, 412883, Control_c, 0, 64, 59
1, 412901, Control_c, 0, 64, 66
1, 412919, Control_c, 0, 64, 71
1, 412939, Control_c, 0, 64, 74
1, 412957, Control_c, 0, 64, 77
1, 412976, Control_c, 0, 64, 79
1, 412995, Note_on_c, 0, 63, 30
1, 412995, Control_c, 0, 64, 81
1, 413000, Note_on_c, 0, 60, 30
1, 413013, Control_c, 0, 64, 83
1, 413032, Control_c, 0, 64, 85
1, 413051, Control_c, 0, 64, 87
1, 413070, Note_off_c, 0, 60, 44
1, 413072, Note_off_c, 0, 63, 44
1, 413237, Control_c, 0, 64, 85
1, 413257, Control_c, 0, 64, 83
1, 413260, Note_on_c, 0, 51, 39
1, 413261, Note_on_c, 0, 63, 34
1, 413267, Note_on_c, 0, 60, 19
1, 413275, Control_c, 0, 64, 80
1, 413293, Control_c, 0, 64, 75
1, 413313, Control_c, 0, 64, 69
1, 413331, Control_c, 0, 64, 64
1, 413336, Note_off_c, 0, 63, 52
1, 413336, Note_off_c, 0, 60, 45
1, 413350, Control_c, 0, 64, 59
1, 413367, Control_c, 0, 64, 53
1, 413379, Note_off_c, 0, 68, 35
1, 413379, Poly_aftertouch_c, 0, 68, 0
1, 413386, Control_c, 0, 64, 50
1, 413443, Control_c, 0, 64, 56
1, 413462, Control_c, 0, 64, 65
1, 413480, Control_c, 0, 64, 72
1, 413499, Control_c, 0, 64, 78
1, 413517, Control_c, 0, 64, 83
1, 413536, Control_c, 0, 64, 87
1, 413549, Note_on_c, 0, 63, 31
1, 413555, Control_c, 0, 64, 91
1, 413561, Note_on_c, 0, 60, 28
1, 413574, Control_c, 0, 64, 95
1, 413611, Control_c, 0, 64, 101
1, 413635, Note_off_c, 0, 60, 43
1, 413666, Note_off_c, 0, 63, 38
1, 413806, Note_on_c, 0, 56, 41
1, 413818, Control_c, 0, 64, 105
1, 413837, Note_on_c, 0, 63, 34
1, 413873, Control_c, 0, 64, 110
1, 413912, Control_c, 0, 64, 116
1, 413915, Note_off_c, 0, 63, 44
1, 413921, Poly_aftertouch_c, 0, 60, 127
1, 413948, Control_c, 0, 64, 123
1, 413950, Note_off_c, 0, 51, 33
1, 413950, Poly_aftertouch_c, 0, 60, 0
1, 413950, Poly_aftertouch_c, 0, 51, 0
1, 413985, Control_c, 0, 64, 127
1, 413989, Note_off_c, 0, 56, 51
1, 414126, Note_on_c, 0, 69, 55
1, 414167, Note_on_c, 0, 60, 25
1, 414186, Note_on_c, 0, 63, 27
1, 414225, Note_off_c, 0, 60, 47
1, 414261, Note_off_c, 0, 63, 45
1, 414279, Note_off_c, 0, 69, 49
1, 414279, Poly_aftertouch_c, 0, 69, 0
1, 414504, Note_on_c, 0, 70, 50
1, 414507, Control_c, 0, 64, 120
1, 414528, Control_c, 0, 64, 113
1, 414545, Note_on_c, 0, 61, 37
1, 414547, Control_c, 0, 64, 101
1, 414552, Note_on_c, 0, 63, 29
1, 414565, Control_c, 0, 64, 88
1, 414584, Control_c, 0, 64, 73
1, 414603, Control_c, 0, 64, 63
1, 414621, Control_c, 0, 64, 57
1, 414639, Note_off_c, 0, 63, 42
1, 414652, Note_off_c, 0, 61, 47
1, 414677, Control_c, 0, 64, 62
1, 414696, Control_c, 0, 64, 68
1, 414714, Control_c, 0, 64, 75
1, 414733, Control_c, 0, 64, 80
1, 414753, Control_c, 0, 64, 86
1, 414770, Control_c, 0, 64, 91
1, 414789, Control_c, 0, 64, 95
1, 414827, Control_c, 0, 64, 102
1, 414848, Note_on_c, 0, 63, 29
1, 414852, Note_on_c, 0, 61, 36
1, 414865, Control_c, 0, 64, 109
1, 414902, Control_c, 0, 64, 115
1, 414971, Note_off_c, 0, 63, 40
1, 414981, Note_off_c, 0, 61, 38
1, 415089, Control_c, 0, 64, 111
1, 415126, Control_c, 0, 64, 102
1, 415144, Control_c, 0, 64, 91
1, 415147, Note_on_c, 0, 63, 35
1, 415148, Note_on_c, 0, 39, 37
1, 415151, Note_on_c, 0, 61, 21
1, 415164, Control_c, 0, 64, 77
1, 415182, Control_c, 0, 64, 66
1, 415201, Control_c, 0, 64, 60
1, 415234, Note_off_c, 0, 63, 51
1, 415257, Control_c, 0, 64, 63
1, 415265, Note_off_c, 0, 61, 40
1, 415275, Control_c, 0, 64, 68
1, 415286, Note_off_c, 0, 70, 37
1, 415295, Control_c, 0, 64, 73
1, 415313, Control_c, 0, 64, 79
1, 415332, Control_c, 0, 64, 85
1, 415351, Control_c, 0, 64, 91
1, 415369, Control_c, 0, 64, 95
1, 415406, Control_c, 0, 64, 99
1, 415443, Control_c, 0, 64, 103
1, 415461, Note_on_c, 0, 61, 25
1, 415466, Note_on_c, 0, 63, 32
1, 415588, Note_off_c, 0, 63, 39
1, 415611, Note_off_c, 0, 61, 35
1, 415705, Control_c, 0, 64, 98
1, 415743, Control_c, 0, 64, 90
1, 415762, Control_c, 0, 64, 87
1, 415793, Note_on_c, 0, 43, 39
1, 415799, Note_on_c, 0, 63, 31
1, 415826, Note_on_c, 0, 61, 6
1, 415834, Control_c, 0, 64, 92
1, 415874, Control_c, 0, 64, 99
1, 415894, Control_c, 0, 64, 103
1, 415895, Control_c, 0, 67, 120
1, 415911, Control_c, 0, 64, 107
1, 415925, Note_off_c, 0, 39, 37
1, 415928, Control_c, 0, 67, 111
1, 415950, Control_c, 0, 64, 113
1, 415951, Control_c, 0, 67, 106
1, 415959, Note_off_c, 0, 63, 35
1, 415967, Control_c, 0, 67, 101
1, 415986, Control_c, 0, 64, 120
1, 415987, Control_c, 0, 67, 96
1, 416002, Note_off_c, 0, 61, 30
1, 416023, Note_off_c, 0, 43, 31
1, 416023, Control_c, 0, 64, 125
1, 416024, Control_c, 0, 67, 91
1, 416100, Control_c, 0, 67, 86
1, 416212, Note_on_c, 0, 72, 42
1, 416212, Control_c, 0, 67, 82
1, 416267, Note_on_c, 0, 61, 26
1, 416295, Note_on_c, 0, 63, 21
1, 416323, Control_c, 0, 67, 77
1, 416378, Control_c, 0, 67, 72
1, 416391, Note_off_c, 0, 63, 38
1, 416417, Control_c, 0, 67, 68
1, 416463, Note_off_c, 0, 61, 37
1, 416469, Note_off_c, 0, 72, 41
1, 416547, Control_c, 0, 67, 64
1, 416757, Note_on_c, 0, 68, 52
1, 416771, Control_c, 0, 64, 120
1, 416788, Note_on_c, 0, 63, 41
1, 416789, Control_c, 0, 64, 112
1, 416802, Note_on_c, 0, 60, 35
1, 416807, Control_c, 0, 64, 100
1, 416828, Control_c, 0, 64, 88
1, 416847, Control_c, 0, 64, 76
1, 416865, Control_c, 0, 64, 67
1, 416883, Control_c, 0, 64, 62
1, 416903, Control_c, 0, 64, 61
1, 416921, Control_c, 0, 64, 62
1, 416940, Control_c, 0, 64, 66
1, 416959, Control_c, 0, 64, 70
1, 416977, Control_c, 0, 64, 77
1, 416997, Control_c, 0, 64, 83
1, 417014, Control_c, 0, 64, 89
1, 417020, Note_off_c, 0, 60, 34
1, 417022, Note_off_c, 0, 63, 37
1, 417033, Control_c, 0, 64, 97
1, 417052, Control_c, 0, 64, 102
1, 417070, Control_c, 0, 64, 107
1, 417071, Control_c, 0, 67, 58
1, 417089, Control_c, 0, 64, 111
1, 417108, Control_c, 0, 64, 115
1, 417126, Control_c, 0, 67, 53
1, 417146, Control_c, 0, 64, 122
1, 417183, Control_c, 0, 67, 49
1, 417202, Control_c, 0, 64, 127
1, 417239, Control_c, 0, 67, 45
1, 417295, Control_c, 0, 67, 41
1, 417370, Control_c, 0, 67, 36
1, 417398, Note_on_c, 0, 63, 35
1, 417408, Note_on_c, 0, 60, 30
1, 417444, Control_c, 0, 67, 32
1, 417575, Control_c, 0, 67, 28
1, 417597, Note_off_c, 0, 63, 33
1, 417608, Note_off_c, 0, 60, 38
1, 417818, Control_c, 0, 67, 24
1, 417840, Note_on_c, 0, 44, 47
1, 417841, Note_on_c, 0, 63, 23
1, 417893, Poly_aftertouch_c, 0, 60, 127
1, 417976, Poly_aftertouch_c, 0, 60, 0
1, 417987, Control_c, 0, 67, 19
1, 417991, Note_off_c, 0, 63, 35
1, 418043, Control_c, 0, 67, 14
1, 418080, Control_c, 0, 67, 10
1, 418328, Note_on_c, 0, 63, 38
1, 418339, Note_on_c, 0, 60, 34
1, 418500, Note_off_c, 0, 60, 36
1, 418516, Note_off_c, 0, 63, 33
1, 418692, Note_on_c, 0, 39, 55
1, 418701, Note_on_c, 0, 63, 44
1, 418723, Note_on_c, 0, 60, 31
1, 418879, Note_off_c, 0, 60, 31
1, 418903, Note_off_c, 0, 63, 33
1, 419082, Note_on_c, 0, 63, 45
1, 419095, Note_on_c, 0, 60, 33
1, 419191, Note_off_c, 0, 60, 42
1, 419223, Note_off_c, 0, 63, 37
1, 419408, Note_on_c, 0, 63, 42
1, 419415, Note_on_c, 0, 36, 48
1, 419426, Note_on_c, 0, 60, 21
1, 419591, Note_off_c, 0, 60, 31
1, 419607, Note_off_c, 0, 63, 33
1, 419685, Note_off_c, 0, 68, 34
1, 419685, Poly_aftertouch_c, 0, 68, 0
1, 419771, Note_on_c, 0, 63, 44
1, 419779, Note_on_c, 0, 60, 33
1, 419780, Note_off_c, 0, 44, 29
1, 419786, Poly_aftertouch_c, 0, 39, 22
1, 419816, Note_off_c, 0, 39, 26
1, 419816, Poly_aftertouch_c, 0, 39, 0
1, 419873, Note_off_c, 0, 60, 37
1, 419883, Note_off_c, 0, 63, 46
1, 420127, Note_on_c, 0, 68, 54
1, 420150, Note_on_c, 0, 63, 45
1, 420151, Note_on_c, 0, 44, 45
1, 420152, Note_on_c, 0, 60, 40
1, 420155, Note_on_c, 0, 39, 41
1, 420351, Note_off_c, 0, 36, 37
1, 420378, Note_off_c, 0, 63, 33
1, 420389, Note_off_c, 0, 60, 35
1, 420584, Note_on_c, 0, 63, 42
1, 420590, Note_on_c, 0, 60, 30
1, 420711, Note_off_c, 0, 44, 32
1, 420738, Note_off_c, 0, 60, 33
1, 420763, Note_off_c, 0, 68, 32
1, 420763, Poly_aftertouch_c, 0, 68, 0
1, 420777, Note_off_c, 0, 63, 32
1, 421012, Note_on_c, 0, 68, 50
1, 421021, Note_on_c, 0, 44, 39
1, 421030, Note_on_c, 0, 63, 40
1, 421034, Note_on_c, 0, 60, 36
1, 421041, Note_on_c, 0, 36, 41
1, 421091, Control_c, 0, 64, 120
1, 421110, Control_c, 0, 64, 107
1, 421129, Control_c, 0, 64, 92
1, 421146, Control_c, 0, 64, 81
1, 421166, Control_c, 0, 64, 74
1, 421221, Control_c, 0, 64, 80
1, 421241, Control_c, 0, 64, 87
1, 421259, Control_c, 0, 64, 97
1, 421260, Note_off_c, 0, 60, 38
1, 421269, Note_off_c, 0, 39, 29
1, 421269, Poly_aftertouch_c, 0, 39, 0
1, 421277, Note_off_c, 0, 63, 28
1, 421278, Control_c, 0, 64, 110
1, 421296, Control_c, 0, 64, 120
1, 421315, Control_c, 0, 64, 127
1, 421617, Note_on_c, 0, 63, 36
1, 421639, Note_on_c, 0, 60, 33
1, 421789, Note_off_c, 0, 44, 25
1, 421852, Note_off_c, 0, 60, 30
1, 421887, Note_off_c, 0, 63, 36
1, 421982, Note_off_c, 0, 68, 37
1, 421982, Poly_aftertouch_c, 0, 68, 0
1, 422570, Note_on_c, 0, 68, 47
1, 422583, Note_on_c, 0, 63, 38
1, 422596, Note_on_c, 0, 60, 34
1, 422602, Note_on_c, 0, 44, 28
1, 422611, Note_on_c, 0, 32, 32
1, 422736, Control_c, 0, 64, 120
1, 422755, Control_c, 0, 64, 115
1, 422773, Control_c, 0, 64, 110
1, 422790, Note_off_c, 0, 36, 34
1, 422792, Control_c, 0, 64, 104
1, 422811, Control_c, 0, 64, 99
1, 422831, Control_c, 0, 64, 94
1, 422868, Control_c, 0, 64, 88
1, 422886, Control_c, 0, 64, 86
1, 422904, Control_c, 0, 64, 84
1, 422923, Control_c, 0, 64, 82
1, 422960, Control_c, 0, 64, 79
1, 422998, Control_c, 0, 64, 77
1, 423035, Control_c, 0, 64, 75
1, 423073, Control_c, 0, 64, 73
1, 423166, Control_c, 0, 64, 71
1, 423223, Control_c, 0, 64, 69
1, 423241, Control_c, 0, 67, 14
1, 423259, Control_c, 0, 64, 67
1, 423297, Control_c, 0, 64, 66
1, 423335, Control_c, 0, 64, 65
1, 423372, Control_c, 0, 64, 64
1, 423390, Control_c, 0, 64, 63
1, 423410, Control_c, 0, 64, 62
1, 423447, Control_c, 0, 64, 60
1, 423503, Control_c, 0, 64, 58
1, 423559, Control_c, 0, 64, 56
1, 423616, Control_c, 0, 64, 54
1, 423708, Control_c, 0, 64, 52
1, 423952, Control_c, 0, 64, 50
1, 424046, Control_c, 0, 64, 48
1, 424120, Control_c, 0, 64, 46
1, 424923, Control_c, 0, 64, 44
1, 425914, Control_c, 0, 64, 42
1, 426120, Control_c, 0, 64, 40
1, 426195, Control_c, 0, 64, 36
1, 426233, Control_c, 0, 64, 29
1, 426251, Control_c, 0, 64, 24
1, 426271, Control_c, 0, 64, 20
1, 426308, Control_c, 0, 64, 15
1, 426344, Control_c, 0, 64, 10
1, 426382, Control_c, 0, 64, 0
1, 426475, Control_c, 0, 67, 18
1, 426701, Control_c, 0, 67, 22
1, 427681, Poly_aftertouch_c, 0, 44, 24
1, 427713, Poly_aftertouch_c, 0, 32, 24
1, 427859, Poly_aftertouch_c, 0, 60, 24
1, 427894, Note_off_c, 0, 32, 19
1, 427894, Poly_aftertouch_c, 0, 32, 0
1, 427936, Poly_aftertouch_c, 0, 44, 22
1, 428029, Note_off_c, 0, 60, 19
1, 428029, Poly_aftertouch_c, 0, 60, 0
1, 428041, Note_off_c, 0, 44, 19
1, 428041, Poly_aftertouch_c, 0, 44, 0
1, 428047, Poly_aftertouch_c, 0, 63, 24
1, 428101, Note_off_c, 0, 63, 37
1, 428101, Poly_aftertouch_c, 0, 63, 0
1, 428141, Note_off_c, 0, 68, 39
1, 428141, Poly_aftertouch_c, 0, 68, 0
1, 429337, Control_c, 0, 67, 26
1, 430188, Note_on_c, 0, 68, 51
1, 430256, Note_on_c, 0, 70, 54
1, 430266, Note_off_c, 0, 68, 62
1, 430266, Poly_aftertouch_c, 0, 68, 0
1, 430287, Note_off_c, 0, 70, 63
1, 430341, Note_on_c, 0, 72, 71
1, 430346, Control_c, 0, 67, 32
1, 430352, Note_on_c, 0, 68, 63
1, 430368, Note_on_c, 0, 65, 62
1, 430384, Control_c, 0, 67, 39
1, 430421, Control_c, 0, 67, 45
1, 430756, Note_on_c, 0, 74, 64
1, 430868, Note_off_c, 0, 68, 57
1, 430868, Poly_aftertouch_c, 0, 68, 0
1, 430869, Control_c, 0, 67, 51
1, 430907, Control_c, 0, 67, 55
1, 430945, Control_c, 0, 67, 61
1, 430963, Control_c, 0, 67, 66
1, 430974, Note_on_c, 0, 75, 67
1, 430982, Control_c, 0, 67, 70
1, 431000, Note_on_c, 0, 67, 49
1, 431006, Note_on_c, 0, 63, 51
1, 431038, Control_c, 0, 67, 74
1, 431047, Note_off_c, 0, 72, 57
1, 431049, Note_off_c, 0, 74, 56
1, 431053, Note_off_c, 0, 65, 60
1, 431065, Note_off_c, 0, 63, 61
1, 431065, Poly_aftertouch_c, 0, 63, 0
1, 431233, Note_off_c, 0, 67, 55
1, 431377, Note_on_c, 0, 70, 62
1, 431381, Note_on_c, 0, 55, 56
1, 431411, Note_off_c, 0, 70, 68
1, 431421, Note_off_c, 0, 55, 64
1, 431571, Note_off_c, 0, 75, 61
1, 431577, Note_on_c, 0, 72, 66
1, 431582, Note_on_c, 0, 56, 54
1, 431660, Note_off_c, 0, 56, 54
1, 431770, Note_on_c, 0, 77, 62
1, 431779, Note_on_c, 0, 53, 52
1, 431783, Note_on_c, 0, 68, 58
1, 431794, Note_off_c, 0, 72, 58
1, 431804, Note_off_c, 0, 77, 67
1, 431811, Note_off_c, 0, 68, 62
1, 431811, Poly_aftertouch_c, 0, 68, 0
1, 431815, Note_off_c, 0, 53, 56
1, 431815, Poly_aftertouch_c, 0, 53, 0
1, 431956, Note_on_c, 0, 74, 64
1, 431957, Note_on_c, 0, 68, 51
1, 431966, Note_on_c, 0, 58, 55
1, 432003, Note_off_c, 0, 58, 64
1, 432006, Note_off_c, 0, 74, 61
1, 432008, Note_off_c, 0, 68, 58
1, 432008, Poly_aftertouch_c, 0, 68, 0
1, 432047, Control_c, 0, 67, 70
1, 432104, Control_c, 0, 67, 66
1, 432142, Control_c, 0, 67, 62
1, 432167, Note_on_c, 0, 75, 56
1, 432177, Control_c, 0, 67, 55
1, 432178, Note_on_c, 0, 51, 47
1, 432188, Note_on_c, 0, 67, 39
1, 432196, Control_c, 0, 67, 47
1, 432216, Control_c, 0, 67, 36
1, 432234, Control_c, 0, 67, 25
1, 432253, Control_c, 0, 67, 14
1, 432264, Note_off_c, 0, 67, 61
1, 432268, Note_off_c, 0, 51, 61
1, 432268, Poly_aftertouch_c, 0, 51, 0
1, 432278, Note_off_c, 0, 75, 66
1, 432309, Control_c, 0, 67, 0
1, 432590, Note_on_c, 0, 73, 55
1, 432650, Note_on_c, 0, 75, 62
1, 432652, Note_off_c, 0, 73, 57
1, 432734, Note_off_c, 0, 75, 46
1, 432746, Note_on_c, 0, 77, 66
1, 432756, Note_on_c, 0, 73, 63
1, 432775, Control_c, 0, 67, 8
1, 432778, Note_on_c, 0, 70, 47
1, 432796, Control_c, 0, 67, 12
1, 432816, Control_c, 0, 67, 16
1, 432833, Control_c, 0, 67, 23
1, 432852, Control_c, 0, 67, 33
1, 432870, Control_c, 0, 67, 44
1, 432890, Control_c, 0, 67, 55
1, 432907, Control_c, 0, 67, 65
1, 432928, Control_c, 0, 67, 75
1, 432946, Control_c, 0, 67, 85
1, 432964, Control_c, 0, 67, 89
1, 433002, Control_c, 0, 67, 96
1, 433039, Control_c, 0, 67, 103
1, 433057, Control_c, 0, 67, 107
1, 433077, Control_c, 0, 67, 112
1, 433095, Control_c, 0, 67, 117
1, 433113, Control_c, 0, 67, 121
1, 433133, Control_c, 0, 67, 125
1, 433155, Note_on_c, 0, 79, 47
1, 433226, Note_off_c, 0, 73, 38
1, 433255, Note_off_c, 0, 77, 38
1, 433343, Poly_aftertouch_c, 0, 78, 0
1, 433357, Note_on_c, 0, 80, 56
1, 433370, Note_on_c, 0, 72, 46
1, 433378, Note_on_c, 0, 68, 36
1, 433408, Poly_aftertouch_c, 0, 79, 24
1, 433410, Note_off_c, 0, 70, 36
1, 433446, Note_off_c, 0, 79, 42
1, 433446, Poly_aftertouch_c, 0, 79, 0
1, 433465, Note_off_c, 0, 68, 64
1, 433465, Poly_aftertouch_c, 0, 68, 0
1, 433753, Note_on_c, 0, 75, 62
1, 433763, Note_on_c, 0, 60, 55
1, 433783, Note_off_c, 0, 72, 33
1, 433797, Note_off_c, 0, 60, 63
1, 433797, Note_off_c, 0, 75, 60
1, 433797, Poly_aftertouch_c, 0, 60, 0
1, 433899, Control_c, 0, 67, 116
1, 433918, Control_c, 0, 67, 110
1, 433936, Control_c, 0, 67, 105
1, 433942, Note_off_c, 0, 80, 60
1, 433956, Control_c, 0, 67, 99
1, 433957, Note_on_c, 0, 77, 62
1, 433969, Note_on_c, 0, 61, 60
1, 433974, Control_c, 0, 67, 94
1, 433992, Control_c, 0, 67, 89
1, 434011, Control_c, 0, 67, 83
1, 434016, Note_off_c, 0, 61, 59
1, 434031, Control_c, 0, 67, 78
1, 434049, Control_c, 0, 67, 72
1, 434067, Control_c, 0, 67, 67
1, 434086, Control_c, 0, 67, 61
1, 434106, Control_c, 0, 67, 55
1, 434124, Control_c, 0, 67, 49
1, 434143, Control_c, 0, 67, 44
1, 434145, Note_on_c, 0, 82, 69
1, 434148, Note_on_c, 0, 58, 60
1, 434161, Control_c, 0, 67, 39
1, 434165, Note_on_c, 0, 73, 53
1, 434175, Note_off_c, 0, 77, 48
1, 434178, Control_c, 0, 67, 34
1, 434193, Note_off_c, 0, 73, 60
1, 434195, Note_off_c, 0, 58, 62
1, 434198, Note_off_c, 0, 82, 53
1, 434198, Control_c, 0, 67, 27
1, 434217, Control_c, 0, 67, 19
1, 434236, Control_c, 0, 67, 8
1, 434309, Control_c, 0, 67, 0
1, 434322, Note_on_c, 0, 73, 55
1, 434330, Note_on_c, 0, 63, 54
1, 434331, Note_on_c, 0, 79, 64
1, 434371, Note_off_c, 0, 63, 63
1, 434371, Poly_aftertouch_c, 0, 63, 0
1, 434382, Note_off_c, 0, 73, 53
1, 434389, Note_off_c, 0, 79, 58
1, 434389, Poly_aftertouch_c, 0, 79, 0
1, 434522, Note_on_c, 0, 80, 60
1, 434547, Note_on_c, 0, 72, 59
1, 434551, Note_on_c, 0, 56, 49
1, 434572, Control_c, 0, 64, 24
1, 434591, Control_c, 0, 64, 33
1, 434602, Note_off_c, 0, 56, 66
1, 434610, Control_c, 0, 64, 38
1, 434617, Note_off_c, 0, 80, 65
1, 434619, Note_off_c, 0, 72, 62
1, 434628, Control_c, 0, 64, 42
1, 434647, Control_c, 0, 64, 45
1, 434722, Control_c, 0, 64, 36
1, 434740, Control_c, 0, 64, 18
1, 434760, Control_c, 0, 64, 0
1, 434921, Note_on_c, 0, 68, 72
1, 434986, Note_on_c, 0, 70, 71
1, 434992, Note_off_c, 0, 68, 64
1, 434992, Poly_aftertouch_c, 0, 68, 0
1, 435068, Note_on_c, 0, 72, 84
1, 435076, Note_on_c, 0, 68, 82
1, 435084, Note_on_c, 0, 65, 72
1, 435089, Note_off_c, 0, 70, 65
1, 435090, Poly_aftertouch_c, 0, 70, 0
1, 435127, Note_off_c, 0, 72, 63
1, 435280, Note_on_c, 0, 73, 73
1, 435310, Note_off_c, 0, 73, 66
1, 435412, Note_off_c, 0, 68, 51
1, 435412, Poly_aftertouch_c, 0, 68, 0
1, 435449, Note_on_c, 0, 74, 87
1, 435582, Note_off_c, 0, 65, 56
1, 435640, Note_on_c, 0, 75, 88
1, 435648, Note_on_c, 0, 67, 77
1, 435656, Note_on_c, 0, 63, 67
1, 435678, Note_off_c, 0, 74, 63
1, 435680, Note_off_c, 0, 67, 69
1, 435692, Note_off_c, 0, 63, 66
1, 435692, Poly_aftertouch_c, 0, 63, 0
1, 435844, Note_on_c, 0, 65, 57
1, 435845, Note_on_c, 0, 68, 63
1, 435872, Note_off_c, 0, 65, 60
1, 435873, Note_off_c, 0, 68, 60
1, 435873, Poly_aftertouch_c, 0, 68, 0
1, 436033, Note_on_c, 0, 67, 62
1, 436034, Note_on_c, 0, 70, 62
1, 436070, Note_off_c, 0, 67, 64
1, 436079, Note_off_c, 0, 70, 58
1, 436207, Note_on_c, 0, 56, 65
1, 436214, Note_on_c, 0, 72, 65
1, 436246, Note_off_c, 0, 56, 64
1, 436254, Note_off_c, 0, 72, 60
1, 436254, Note_off_c, 0, 75, 61
1, 436397, Note_on_c, 0, 77, 73
1, 436415, Note_on_c, 0, 68, 68
1, 436430, Note_on_c, 0, 53, 28
1, 436431, Note_off_c, 0, 53, 127
1, 436431, Poly_aftertouch_c, 0, 53, 0
1, 436454, Note_off_c, 0, 68, 62
1, 436454, Poly_aftertouch_c, 0, 68, 0
1, 436461, Note_off_c, 0, 77, 54
1, 436578, Note_on_c, 0, 74, 77
1, 436585, Note_on_c, 0, 58, 58
1, 436588, Note_on_c, 0, 68, 62
1, 436620, Note_off_c, 0, 58, 63
1, 436646, Note_off_c, 0, 68, 52
1, 436646, Poly_aftertouch_c, 0, 68, 0
1, 436647, Note_off_c, 0, 74, 60
1, 436765, Note_on_c, 0, 75, 73
1, 436785, Note_on_c, 0, 51, 58
1, 436789, Note_on_c, 0, 67, 54
1, 436797, Control_c, 0, 64, 30
1, 436798, Control_c, 0, 67, 11
1, 436817, Control_c, 0, 64, 37
1, 436818, Control_c, 0, 67, 18
1, 436821, Note_off_c, 0, 67, 59
1, 436823, Note_off_c, 0, 51, 63
1, 436823, Poly_aftertouch_c, 0, 51, 0
1, 436829, Note_off_c, 0, 75, 65
1, 436836, Control_c, 0, 64, 43
1, 436837, Control_c, 0, 67, 27
1, 436853, Control_c, 0, 64, 50
1, 436855, Control_c, 0, 67, 39
1, 436872, Control_c, 0, 64, 56
1, 436873, Control_c, 0, 67, 51
1, 436893, Control_c, 0, 64, 58
1, 436894, Control_c, 0, 67, 60
1, 436911, Control_c, 0, 67, 67
1, 436928, Control_c, 0, 67, 75
1, 436947, Control_c, 0, 67, 83
1, 436966, Control_c, 0, 67, 88
1, 436985, Control_c, 0, 64, 56
1, 437003, Control_c, 0, 64, 54
1, 437022, Control_c, 0, 64, 51
1, 437040, Control_c, 0, 64, 45
1, 437059, Control_c, 0, 64, 37
1, 437077, Control_c, 0, 64, 29
1, 437097, Control_c, 0, 64, 21
1, 437115, Control_c, 0, 64, 11
1, 437133, Control_c, 0, 64, 0
1, 437156, Note_on_c, 0, 73, 77
1, 437171, Control_c, 0, 67, 81
1, 437190, Control_c, 0, 67, 75
1, 437209, Control_c, 0, 67, 67
1, 437221, Note_on_c, 0, 75, 79
1, 437228, Control_c, 0, 67, 58
1, 437233, Note_off_c, 0, 73, 63
1, 437247, Control_c, 0, 67, 48
1, 437264, Control_c, 0, 67, 39
1, 437284, Control_c, 0, 67, 32
1, 437302, Control_c, 0, 67, 27
1, 437306, Note_on_c, 0, 77, 84
1, 437307, Note_on_c, 0, 70, 83
1, 437314, Note_on_c, 0, 73, 82
1, 437321, Control_c, 0, 67, 21
1, 437324, Note_off_c, 0, 75, 65
1, 437339, Control_c, 0, 67, 14
1, 437365, Note_off_c, 0, 77, 60
1, 437512, Note_on_c, 0, 78, 79
1, 437585, Note_off_c, 0, 78, 63
1, 437629, Note_off_c, 0, 73, 47
1, 437658, Control_c, 0, 67, 8
1, 437698, Note_on_c, 0, 79, 86
1, 437813, Note_off_c, 0, 70, 55
1, 437888, Note_on_c, 0, 80, 86
1, 437889, Note_on_c, 0, 68, 73
1, 437891, Note_on_c, 0, 72, 76
1, 437919, Control_c, 0, 67, 13
1, 437922, Note_off_c, 0, 79, 62
1, 437922, Poly_aftertouch_c, 0, 79, 0
1, 437924, Note_off_c, 0, 72, 65
1, 437929, Note_off_c, 0, 68, 60
1, 437929, Poly_aftertouch_c, 0, 68, 0
1, 437957, Control_c, 0, 67, 23
1, 437975, Control_c, 0, 67, 33
1, 437995, Control_c, 0, 67, 45
1, 438012, Control_c, 0, 67, 54
1, 438032, Control_c, 0, 67, 63
1, 438051, Control_c, 0, 67, 75
1, 438063, Note_on_c, 0, 70, 64
1, 438067, Control_c, 0, 67, 89
1, 438085, Note_on_c, 0, 73, 65
1, 438086, Control_c, 0, 67, 102
1, 438104, Note_off_c, 0, 70, 64
1, 438105, Control_c, 0, 67, 113
1, 438114, Note_off_c, 0, 73, 56
1, 438125, Control_c, 0, 67, 123
1, 438143, Control_c, 0, 67, 127
1, 438257, Note_on_c, 0, 75, 66
1, 438270, Note_on_c, 0, 72, 57
1, 438309, Note_off_c, 0, 72, 66
1, 438330, Note_off_c, 0, 75, 54
1, 438448, Note_on_c, 0, 77, 64
1, 438448, Note_on_c, 0, 61, 59
1, 438491, Note_off_c, 0, 80, 62
1, 438492, Note_off_c, 0, 61, 64
1, 438493, Note_off_c, 0, 77, 55
1, 438637, Note_on_c, 0, 58, 52
1, 438637, Note_on_c, 0, 82, 64
1, 438649, Note_on_c, 0, 73, 64
1, 438674, Note_off_c, 0, 58, 60
1, 438685, Note_off_c, 0, 82, 56
1, 438689, Note_off_c, 0, 73, 62
1, 438818, Note_on_c, 0, 79, 54
1, 438820, Note_on_c, 0, 73, 59
1, 438821, Note_on_c, 0, 63, 54
1, 438855, Note_off_c, 0, 79, 53
1, 438855, Poly_aftertouch_c, 0, 79, 0
1, 438863, Note_off_c, 0, 63, 64
1, 438863, Poly_aftertouch_c, 0, 63, 0
1, 438868, Note_off_c, 0, 73, 58
1, 438891, Control_c, 0, 67, 121
1, 438911, Control_c, 0, 67, 109
1, 438929, Control_c, 0, 67, 93
1, 438947, Control_c, 0, 67, 73
1, 438966, Control_c, 0, 67, 51
1, 438985, Control_c, 0, 64, 31
1, 438986, Control_c, 0, 67, 30
1, 439004, Control_c, 0, 64, 55
1, 439005, Control_c, 0, 67, 16
1, 439022, Control_c, 0, 64, 72
1, 439027, Note_on_c, 0, 80, 60
1, 439030, Note_on_c, 0, 56, 52
1, 439041, Control_c, 0, 64, 81
1, 439052, Note_on_c, 0, 72, 44
1, 439060, Control_c, 0, 64, 90
1, 439063, Note_off_c, 0, 80, 67
1, 439072, Note_off_c, 0, 56, 64
1, 439078, Control_c, 0, 64, 99
1, 439079, Control_c, 0, 67, 20
1, 439096, Note_off_c, 0, 72, 62
1, 439098, Control_c, 0, 64, 107
1, 439099, Control_c, 0, 67, 31
1, 439117, Control_c, 0, 64, 111
1, 439118, Control_c, 0, 67, 51
1, 439135, Control_c, 0, 67, 68
1, 439153, Control_c, 0, 67, 81
1, 439173, Control_c, 0, 67, 96
1, 439191, Control_c, 0, 67, 116
1, 439209, Control_c, 0, 64, 106
1, 439210, Control_c, 0, 67, 127
1, 439228, Control_c, 0, 64, 99
1, 439247, Control_c, 0, 64, 88
1, 439266, Control_c, 0, 64, 73
1, 439284, Control_c, 0, 64, 57
1, 439303, Control_c, 0, 64, 39
1, 439321, Control_c, 0, 64, 0
1, 439421, Note_on_c, 0, 56, 36
1, 439438, Note_on_c, 0, 60, 56
1, 439458, Note_off_c, 0, 56, 55
1, 439480, Note_off_c, 0, 60, 66
1, 439480, Poly_aftertouch_c, 0, 60, 0
1, 439488, Note_on_c, 0, 61, 35
1, 439522, Note_on_c, 0, 58, 11
1, 439528, Note_off_c, 0, 61, 62
1, 439574, Note_off_c, 0, 58, 38
1, 439599, Note_on_c, 0, 63, 64
1, 439600, Note_on_c, 0, 32, 58
1, 439603, Note_on_c, 0, 60, 63
1, 439641, Control_c, 0, 67, 122
1, 439643, Note_off_c, 0, 32, 62
1, 439643, Poly_aftertouch_c, 0, 32, 0
1, 439658, Control_c, 0, 67, 118
1, 439677, Control_c, 0, 67, 112
1, 439695, Control_c, 0, 67, 105
1, 439714, Control_c, 0, 67, 98
1, 439733, Control_c, 0, 67, 92
1, 439751, Control_c, 0, 67, 87
1, 439771, Control_c, 0, 67, 83
1, 439789, Control_c, 0, 67, 78
1, 439800, Note_on_c, 0, 44, 61
1, 439807, Control_c, 0, 67, 73
1, 439827, Control_c, 0, 67, 66
1, 439835, Note_off_c, 0, 44, 64
1, 439835, Poly_aftertouch_c, 0, 44, 0
1, 439845, Control_c, 0, 67, 57
1, 439865, Control_c, 0, 67, 49
1, 439882, Control_c, 0, 67, 42
1, 439901, Control_c, 0, 67, 37
1, 439920, Control_c, 0, 67, 31
1, 439939, Control_c, 0, 67, 25
1, 439956, Control_c, 0, 67, 20
1, 439976, Control_c, 0, 67, 16
1, 439994, Control_c, 0, 67, 12
1, 440000, Note_on_c, 0, 61, 60
1, 440010, Note_on_c, 0, 65, 58
1, 440021, Note_off_c, 0, 63, 60
1, 440021, Poly_aftertouch_c, 0, 63, 0
1, 440070, Control_c, 0, 67, 0
1, 440126, Note_off_c, 0, 60, 53
1, 440126, Poly_aftertouch_c, 0, 60, 0
1, 440197, Note_on_c, 0, 32, 69
1, 440200, Note_on_c, 0, 63, 62
1, 440215, Note_on_c, 0, 66, 65
1, 440227, Note_off_c, 0, 32, 64
1, 440227, Poly_aftertouch_c, 0, 32, 0
1, 440231, Note_off_c, 0, 65, 60
1, 440236, Control_c, 0, 64, 28
1, 440244, Note_off_c, 0, 61, 25
1, 440257, Control_c, 0, 64, 42
1, 440275, Control_c, 0, 64, 52
1, 440294, Control_c, 0, 64, 57
1, 440338, Note_off_c, 0, 63, 62
1, 440338, Poly_aftertouch_c, 0, 63, 0
1, 440349, Control_c, 0, 64, 45
1, 440357, Note_off_c, 0, 66, 64
1, 440368, Control_c, 0, 64, 0
1, 440393, Note_on_c, 0, 44, 74
1, 440422, Note_off_c, 0, 44, 65
1, 440422, Poly_aftertouch_c, 0, 44, 0
1, 440582, Note_on_c, 0, 66, 98
1, 440583, Note_on_c, 0, 63, 92
1, 440630, Control_c, 0, 64, 63
1, 440650, Control_c, 0, 64, 82
1, 440668, Control_c, 0, 64, 93
1, 440687, Control_c, 0, 64, 109
1, 440706, Control_c, 0, 64, 125
1, 440709, Note_off_c, 0, 66, 62
1, 440718, Note_off_c, 0, 63, 61
1, 440718, Poly_aftertouch_c, 0, 63, 0
1, 440761, Control_c, 0, 64, 96
1, 440769, Note_on_c, 0, 32, 85
1, 440772, Note_on_c, 0, 66, 74
1, 440776, Note_on_c, 0, 72, 87
1, 440781, Control_c, 0, 64, 50
1, 440792, Note_off_c, 0, 66, 77
1, 440799, Control_c, 0, 64, 0
1, 440800, Control_c, 0, 67, 15
1, 440801, Note_off_c, 0, 32, 64
1, 440801, Poly_aftertouch_c, 0, 32, 0
1, 440807, Note_on_c, 0, 64, 13
1, 440808, Note_off_c, 0, 64, 127
1, 440828, Note_off_c, 0, 72, 59
1, 440855, Control_c, 0, 67, 11
1, 440968, Note_on_c, 0, 72, 81
1, 440972, Note_on_c, 0, 75, 79
1, 440977, Note_on_c, 0, 44, 58
1, 440997, Note_off_c, 0, 72, 68
1, 441000, Note_off_c, 0, 75, 72
1, 441017, Note_off_c, 0, 44, 63
1, 441017, Poly_aftertouch_c, 0, 44, 0
1, 441145, Note_on_c, 0, 75, 103
1, 441149, Note_on_c, 0, 78, 96
1, 441157, Note_on_c, 0, 32, 83
1, 441238, Note_off_c, 0, 32, 60
1, 441238, Poly_aftertouch_c, 0, 32, 0
1, 441322, Control_c, 0, 67, 0
1, 441329, Note_on_c, 0, 33, 89
1, 441358, Note_on_c, 0, 35, 50
1, 441405, Note_off_c, 0, 35, 36
1, 441411, Note_off_c, 0, 78, 58
1, 441434, Control_c, 0, 64, 73
1, 441455, Control_c, 0, 64, 83
1, 441472, Control_c, 0, 64, 79
1, 441487, Note_off_c, 0, 33, 60
1, 441490, Control_c, 0, 64, 62
1, 441509, Control_c, 0, 64, 0
1, 441514, Note_off_c, 0, 75, 59
1, 441521, Note_on_c, 0, 34, 81
1, 441527, Note_on_c, 0, 74, 72
1, 441548, Control_c, 0, 67, 9
1, 441553, Note_on_c, 0, 77, 38
1, 441561, Note_off_c, 0, 74, 67
1, 441566, Control_c, 0, 67, 15
1, 441568, Note_off_c, 0, 34, 63
1, 441585, Control_c, 0, 67, 23
1, 441593, Note_off_c, 0, 77, 36
1, 441603, Control_c, 0, 67, 38
1, 441621, Control_c, 0, 67, 58
1, 441640, Control_c, 0, 67, 78
1, 441659, Control_c, 0, 67, 95
1, 441677, Control_c, 0, 67, 110
1, 441697, Control_c, 0, 67, 122
1, 441715, Control_c, 0, 67, 126
1, 441727, Note_on_c, 0, 62, 74
1, 441745, Note_on_c, 0, 58, 51
1, 441779, Note_off_c, 0, 58, 61
1, 441799, Note_off_c, 0, 62, 60
1, 441806, Note_on_c, 0, 63, 78
1, 441835, Note_off_c, 0, 63, 71
1, 441835, Poly_aftertouch_c, 0, 63, 0
1, 441884, Control_c, 0, 67, 120
1, 441902, Control_c, 0, 67, 115
1, 441915, Note_on_c, 0, 34, 64
1, 441916, Note_on_c, 0, 62, 72
1, 441922, Note_on_c, 0, 65, 70
1, 441922, Control_c, 0, 67, 110
1, 441939, Control_c, 0, 67, 103
1, 441957, Note_off_c, 0, 34, 62
1, 441958, Control_c, 0, 67, 94
1, 441978, Control_c, 0, 67, 84
1, 441995, Control_c, 0, 67, 72
1, 442015, Control_c, 0, 67, 61
1, 442032, Control_c, 0, 67, 53
1, 442052, Control_c, 0, 67, 46
1, 442071, Control_c, 0, 67, 41
1, 442089, Control_c, 0, 67, 36
1, 442108, Note_on_c, 0, 46, 62
1, 442108, Control_c, 0, 67, 30
1, 442126, Control_c, 0, 67, 25
1, 442144, Note_off_c, 0, 46, 64
1, 442144, Poly_aftertouch_c, 0, 46, 0
1, 442145, Control_c, 0, 67, 21
1, 442164, Control_c, 0, 67, 17
1, 442183, Control_c, 0, 67, 11
1, 442319, Note_on_c, 0, 67, 63
1, 442329, Note_on_c, 0, 64, 54
1, 442358, Note_off_c, 0, 65, 61
1, 442384, Note_off_c, 0, 62, 53
1, 442426, Control_c, 0, 67, 0
1, 442457, Note_off_c, 0, 64, 51
1, 442504, Note_on_c, 0, 34, 66
1, 442511, Note_on_c, 0, 68, 70
1, 442513, Note_on_c, 0, 65, 63
1, 442540, Note_off_c, 0, 34, 64
1, 442557, Control_c, 0, 64, 45
1, 442575, Control_c, 0, 64, 58
1, 442593, Control_c, 0, 64, 66
1, 442613, Control_c, 0, 64, 69
1, 442615, Note_off_c, 0, 67, 52
1, 442634, Note_off_c, 0, 65, 64
1, 442650, Note_off_c, 0, 68, 65
1, 442650, Poly_aftertouch_c, 0, 68, 0
1, 442688, Control_c, 0, 64, 61
1, 442701, Note_on_c, 0, 46, 87
1, 442705, Control_c, 0, 64, 31
1, 442724, Control_c, 0, 64, 0
1, 442736, Note_off_c, 0, 46, 63
1, 442736, Poly_aftertouch_c, 0, 46, 0
1, 442904, Note_on_c, 0, 65, 98
1, 442908, Note_on_c, 0, 68, 99
1, 442949, Control_c, 0, 64, 64
1, 442969, Control_c, 0, 64, 96
1, 442987, Control_c, 0, 64, 117
1, 443005, Control_c, 0, 64, 127
1, 443015, Note_off_c, 0, 68, 62
1, 443015, Poly_aftertouch_c, 0, 68, 0
1, 443061, Control_c, 0, 64, 104
1, 443078, Note_on_c, 0, 34, 89
1, 443079, Control_c, 0, 64, 64
1, 443089, Note_on_c, 0, 74, 81
1, 443090, Note_on_c, 0, 68, 67
1, 443092, Note_off_c, 0, 65, 59
1, 443098, Control_c, 0, 64, 0
1, 443111, Note_on_c, 0, 72, 61
1, 443117, Note_off_c, 0, 68, 73
1, 443117, Poly_aftertouch_c, 0, 68, 0
1, 443121, Note_off_c, 0, 74, 62
1, 443124, Note_off_c, 0, 34, 60
1, 443140, Note_off_c, 0, 72, 40
1, 443264, Note_on_c, 0, 46, 80
1, 443275, Note_on_c, 0, 77, 95
1, 443277, Note_on_c, 0, 74, 82
1, 443305, Note_off_c, 0, 74, 67
1, 443321, Note_off_c, 0, 77, 62
1, 443322, Note_off_c, 0, 46, 58
1, 443322, Poly_aftertouch_c, 0, 46, 0
1, 443326, Note_on_c, 0, 34, 22
1, 443385, Note_off_c, 0, 34, 38
1, 443456, Note_on_c, 0, 80, 101
1, 443462, Note_on_c, 0, 34, 90
1, 443464, Note_on_c, 0, 77, 97
1, 443541, Note_off_c, 0, 34, 61
1, 443636, Note_on_c, 0, 35, 91
1, 443664, Note_off_c, 0, 80, 62
1, 443698, Control_c, 0, 64, 58
1, 443698, Control_c, 0, 67, 8
1, 443715, Control_c, 0, 64, 92
1, 443735, Control_c, 0, 64, 110
1, 443736, Control_c, 0, 67, 13
1, 443754, Control_c, 0, 67, 19
1, 443763, Poly_aftertouch_c, 0, 36, 0
1, 443770, Note_off_c, 0, 35, 59
1, 443770, Control_c, 0, 64, 95
1, 443771, Control_c, 0, 67, 29
1, 443791, Control_c, 0, 64, 60
1, 443793, Control_c, 0, 67, 42
1, 443802, Note_off_c, 0, 77, 55
1, 443807, Control_c, 0, 64, 0
1, 443808, Control_c, 0, 67, 54
1, 443816, Note_on_c, 0, 79, 74
1, 443825, Note_on_c, 0, 36, 75
1, 443826, Control_c, 0, 67, 64
1, 443827, Note_on_c, 0, 76, 68
1, 443845, Note_off_c, 0, 79, 71
1, 443845, Poly_aftertouch_c, 0, 79, 0
1, 443846, Control_c, 0, 67, 75
1, 443852, Note_off_c, 0, 76, 68
1, 443865, Control_c, 0, 67, 94
1, 443874, Note_off_c, 0, 36, 63
1, 443882, Control_c, 0, 67, 117
1, 443903, Control_c, 0, 67, 127
1, 444029, Note_on_c, 0, 64, 66
1, 444037, Note_on_c, 0, 60, 49
1, 444067, Note_off_c, 0, 60, 59
1, 444067, Poly_aftertouch_c, 0, 60, 0
1, 444093, Note_off_c, 0, 64, 55
1, 444117, Note_on_c, 0, 65, 65
1, 444151, Note_off_c, 0, 65, 63
1, 444192, Note_on_c, 0, 36, 62
1, 444200, Note_on_c, 0, 67, 69
1, 444210, Note_on_c, 0, 64, 59
1, 444248, Note_off_c, 0, 36, 60
1, 444396, Note_on_c, 0, 48, 58
1, 444428, Note_off_c, 0, 48, 62
1, 444600, Note_on_c, 0, 68, 55
1, 444601, Note_on_c, 0, 65, 51
1, 444619, Note_off_c, 0, 67, 61
1, 444647, Note_off_c, 0, 64, 51
1, 444689, Note_off_c, 0, 65, 57
1, 444781, Control_c, 0, 67, 116
1, 444784, Note_on_c, 0, 36, 63
1, 444790, Note_on_c, 0, 70, 62
1, 444799, Note_on_c, 0, 67, 58
1, 444800, Control_c, 0, 64, 8
1, 444802, Control_c, 0, 67, 105
1, 444820, Control_c, 0, 64, 33
1, 444821, Control_c, 0, 67, 91
1, 444826, Note_off_c, 0, 68, 51
1, 444826, Poly_aftertouch_c, 0, 68, 0
1, 444835, Note_off_c, 0, 36, 63
1, 444838, Control_c, 0, 64, 47
1, 444839, Control_c, 0, 67, 76
1, 444856, Control_c, 0, 64, 58
1, 444857, Control_c, 0, 67, 61
1, 444875, Control_c, 0, 64, 65
1, 444877, Control_c, 0, 67, 46
1, 444894, Control_c, 0, 64, 68
1, 444896, Control_c, 0, 67, 32
1, 444912, Control_c, 0, 67, 17
1, 444917, Note_off_c, 0, 70, 61
1, 444931, Control_c, 0, 64, 70
1, 444941, Note_off_c, 0, 67, 62
1, 444948, Control_c, 0, 67, 0
1, 444986, Note_on_c, 0, 48, 65
1, 445007, Control_c, 0, 64, 67
1, 445026, Control_c, 0, 64, 60
1, 445029, Note_off_c, 0, 48, 64
1, 445043, Control_c, 0, 64, 45
1, 445062, Control_c, 0, 64, 9
1, 445080, Control_c, 0, 64, 0
1, 445170, Note_on_c, 0, 64, 74
1, 445179, Note_on_c, 0, 60, 51
1, 445208, Note_off_c, 0, 60, 57
1, 445208, Poly_aftertouch_c, 0, 60, 0
1, 445213, Note_off_c, 0, 64, 55
1, 445258, Note_on_c, 0, 65, 75
1, 445292, Note_off_c, 0, 65, 60
1, 445311, Poly_aftertouch_c, 0, 64, 127
1, 445330, Note_on_c, 0, 67, 97
1, 445332, Note_on_c, 0, 64, 70
1, 445342, Note_on_c, 0, 36, 84
1, 445342, Control_c, 0, 64, 54
1, 445362, Control_c, 0, 64, 94
1, 445369, Note_off_c, 0, 64, 69
1, 445369, Poly_aftertouch_c, 0, 64, 0
1, 445376, Note_off_c, 0, 67, 64
1, 445380, Control_c, 0, 64, 123
1, 445396, Note_off_c, 0, 36, 58
1, 445397, Control_c, 0, 64, 127
1, 445438, Control_c, 0, 64, 114
1, 445454, Control_c, 0, 64, 80
1, 445474, Control_c, 0, 64, 43
1, 445492, Control_c, 0, 64, 0
1, 445521, Note_on_c, 0, 60, 77
1, 445526, Note_on_c, 0, 64, 78
1, 445537, Note_on_c, 0, 48, 63
1, 445572, Note_off_c, 0, 64, 65
1, 445572, Poly_aftertouch_c, 0, 64, 0
1, 445578, Note_off_c, 0, 60, 60
1, 445578, Poly_aftertouch_c, 0, 60, 0
1, 445583, Note_off_c, 0, 48, 64
1, 445614, Note_on_c, 0, 65, 83
1, 445650, Note_off_c, 0, 65, 63
1, 445706, Note_on_c, 0, 67, 81
1, 445708, Note_on_c, 0, 64, 80
1, 445738, Note_off_c, 0, 64, 69
1, 445738, Poly_aftertouch_c, 0, 64, 0
1, 445748, Note_off_c, 0, 67, 65
1, 445791, Note_on_c, 0, 68, 91
1, 445827, Note_on_c, 0, 67, 22
1, 445828, Poly_aftertouch_c, 0, 65, 0
1, 445877, Note_on_c, 0, 70, 95
1, 445889, Note_on_c, 0, 36, 88
1, 445902, Note_off_c, 0, 68, 65
1, 445902, Poly_aftertouch_c, 0, 68, 0
1, 445921, Note_off_c, 0, 67, 66
1, 445921, Control_c, 0, 64, 20
1, 445934, Note_off_c, 0, 70, 66
1, 445941, Control_c, 0, 64, 83
1, 445959, Note_off_c, 0, 36, 62
1, 445959, Control_c, 0, 64, 115
1, 445979, Control_c, 0, 64, 127
1, 446053, Control_c, 0, 64, 111
1, 446066, Note_on_c, 0, 48, 69
1, 446068, Note_on_c, 0, 64, 80
1, 446070, Control_c, 0, 64, 85
1, 446079, Note_on_c, 0, 67, 75
1, 446091, Control_c, 0, 64, 61
1, 446108, Note_off_c, 0, 48, 67
1, 446109, Control_c, 0, 64, 46
1, 446124, Note_off_c, 0, 64, 60
1, 446124, Poly_aftertouch_c, 0, 64, 0
1, 446127, Control_c, 0, 64, 36
1, 446128, Control_c, 0, 67, 8
1, 446150, Note_off_c, 0, 67, 61
1, 446171, Note_on_c, 0, 68, 65
1, 446184, Control_c, 0, 64, 45
1, 446198, Note_off_c, 0, 68, 66
1, 446198, Poly_aftertouch_c, 0, 68, 0
1, 446202, Control_c, 0, 64, 53
1, 446222, Note_on_c, 0, 69, 33
1, 446222, Poly_aftertouch_c, 0, 69, 0
1, 446222, Control_c, 0, 64, 59
1, 446223, Note_off_c, 0, 69, 127
1, 446240, Control_c, 0, 64, 62
1, 446244, Note_on_c, 0, 67, 74
1, 446264, Note_on_c, 0, 70, 74
1, 446297, Note_on_c, 0, 68, 35
1, 446333, Control_c, 0, 64, 63
1, 446338, Note_off_c, 0, 67, 40
1, 446344, Note_on_c, 0, 72, 76
1, 446375, Note_off_c, 0, 72, 65
1, 446376, Note_off_c, 0, 68, 53
1, 446376, Poly_aftertouch_c, 0, 68, 0
1, 446379, Note_off_c, 0, 70, 64
1, 446389, Control_c, 0, 64, 64
1, 446419, Note_on_c, 0, 70, 84
1, 446427, Control_c, 0, 64, 63
1, 446433, Note_on_c, 0, 73, 90
1, 446443, Note_on_c, 0, 71, 61
1, 446443, Note_on_c, 0, 72, 58
1, 446446, Control_c, 0, 64, 51
1, 446448, Note_on_c, 0, 48, 81
1, 446464, Control_c, 0, 64, 0
1, 446467, Note_off_c, 0, 71, 63
1, 446468, Note_off_c, 0, 72, 65
1, 446477, Note_off_c, 0, 70, 66
1, 446481, Control_c, 0, 67, 14
1, 446494, Note_off_c, 0, 73, 63
1, 446503, Control_c, 0, 67, 22
1, 446511, Note_off_c, 0, 48, 63
1, 446519, Control_c, 0, 67, 35
1, 446539, Control_c, 0, 67, 50
1, 446558, Control_c, 0, 67, 64
1, 446577, Control_c, 0, 67, 71
1, 446596, Control_c, 0, 67, 75
1, 446614, Control_c, 0, 67, 79
1, 446633, Control_c, 0, 67, 84
1, 446650, Note_on_c, 0, 60, 66
1, 446652, Control_c, 0, 67, 90
1, 446669, Control_c, 0, 67, 96
1, 446686, Note_off_c, 0, 60, 68
1, 446686, Poly_aftertouch_c, 0, 60, 0
1, 446821, Note_on_c, 0, 70, 77
1, 446829, Note_on_c, 0, 67, 70
1, 446862, Note_off_c, 0, 67, 67
1, 446871, Note_off_c, 0, 70, 60
1, 447024, Note_on_c, 0, 67, 66
1, 447029, Note_on_c, 0, 48, 56
1, 447030, Note_on_c, 0, 64, 65
1, 447076, Note_off_c, 0, 67, 62
1, 447077, Note_off_c, 0, 48, 61
1, 447079, Note_off_c, 0, 64, 59
1, 447079, Poly_aftertouch_c, 0, 64, 0
1, 447223, Note_on_c, 0, 60, 54
1, 447253, Note_off_c, 0, 60, 61
1, 447253, Poly_aftertouch_c, 0, 60, 0
1, 447411, Note_on_c, 0, 70, 62
1, 447413, Note_on_c, 0, 67, 59
1, 447453, Note_off_c, 0, 67, 64
1, 447455, Note_off_c, 0, 70, 63
1, 447604, Note_on_c, 0, 70, 51
1, 447605, Note_on_c, 0, 48, 48
1, 447611, Note_on_c, 0, 73, 61
1, 447649, Note_off_c, 0, 70, 61
1, 447659, Note_off_c, 0, 48, 56
1, 447664, Note_off_c, 0, 73, 58
1, 447687, Poly_aftertouch_c, 0, 67, 0
1, 447820, Note_on_c, 0, 60, 33
1, 447862, Note_off_c, 0, 60, 48
1, 447862, Poly_aftertouch_c, 0, 60, 0
1, 447986, Note_on_c, 0, 67, 49
1, 447987, Note_on_c, 0, 70, 47
1, 448027, Note_off_c, 0, 70, 59
1, 448031, Note_off_c, 0, 67, 59
1, 448161, Note_on_c, 0, 67, 50
1, 448185, Note_on_c, 0, 48, 39
1, 448188, Note_on_c, 0, 64, 46
1, 448228, Note_off_c, 0, 67, 52
1, 448232, Note_off_c, 0, 48, 51
1, 448251, Note_off_c, 0, 64, 52
1, 448251, Poly_aftertouch_c, 0, 64, 0
1, 448372, Note_on_c, 0, 60, 45
1, 448408, Note_off_c, 0, 60, 59
1, 448408, Poly_aftertouch_c, 0, 60, 0
1, 448483, Control_c, 0, 67, 101
1, 448522, Control_c, 0, 67, 109
1, 448539, Control_c, 0, 67, 115
1, 448550, Note_on_c, 0, 70, 50
1, 448554, Note_on_c, 0, 67, 48
1, 448558, Control_c, 0, 67, 122
1, 448577, Control_c, 0, 67, 127
1, 448593, Note_off_c, 0, 70, 61
1, 448595, Note_off_c, 0, 67, 58
1, 448729, Note_on_c, 0, 52, 48
1, 448730, Note_on_c, 0, 70, 41
1, 448742, Note_on_c, 0, 73, 54
1, 448750, Note_on_c, 0, 67, 23
1, 448904, Note_off_c, 0, 67, 27
1, 448919, Note_off_c, 0, 52, 53
1, 448923, Note_on_c, 0, 64, 51
1, 448953, Note_off_c, 0, 73, 59
1, 448962, Note_off_c, 0, 70, 44
1, 449108, Note_on_c, 0, 72, 52
1, 449132, Note_on_c, 0, 67, 48
1, 449138, Note_on_c, 0, 70, 24
1, 449192, Note_off_c, 0, 70, 51
1, 449207, Note_off_c, 0, 67, 50
1, 449221, Note_off_c, 0, 72, 45
1, 449297, Note_off_c, 0, 64, 54
1, 449297, Poly_aftertouch_c, 0, 64, 0
1, 449307, Note_on_c, 0, 52, 48
1, 449313, Note_on_c, 0, 70, 54
1, 449314, Note_on_c, 0, 73, 54
1, 449341, Note_on_c, 0, 67, 18
1, 449477, Note_on_c, 0, 64, 49
1, 449515, Note_off_c, 0, 52, 35
1, 449554, Note_off_c, 0, 67, 42
1, 449559, Note_off_c, 0, 70, 45
1, 449571, Note_off_c, 0, 73, 55
1, 449690, Note_on_c, 0, 72, 48
1, 449693, Note_on_c, 0, 67, 49
1, 449728, Note_on_c, 0, 70, 30
1, 449773, Note_off_c, 0, 70, 50
1, 449787, Note_off_c, 0, 67, 56
1, 449800, Note_off_c, 0, 72, 53
1, 449875, Note_off_c, 0, 64, 34
1, 449875, Poly_aftertouch_c, 0, 64, 0
1, 449884, Note_on_c, 0, 73, 58
1, 449885, Note_on_c, 0, 52, 47
1, 449886, Note_on_c, 0, 70, 57
1, 449912, Note_on_c, 0, 67, 38
1, 450035, Note_off_c, 0, 52, 29
1, 450060, Note_on_c, 0, 64, 44
1, 450143, Note_off_c, 0, 70, 52
1, 450148, Note_off_c, 0, 73, 55
1, 450153, Note_off_c, 0, 67, 36
1, 450185, Control_c, 0, 64, 15
1, 450204, Control_c, 0, 64, 21
1, 450222, Control_c, 0, 64, 26
1, 450241, Control_c, 0, 64, 31
1, 450261, Control_c, 0, 64, 35
1, 450267, Note_on_c, 0, 67, 58
1, 450270, Note_on_c, 0, 72, 44
1, 450279, Control_c, 0, 64, 39
1, 450297, Control_c, 0, 64, 43
1, 450316, Control_c, 0, 64, 50
1, 450335, Control_c, 0, 64, 56
1, 450353, Control_c, 0, 64, 59
1, 450355, Control_c, 0, 67, 120
1, 450363, Note_off_c, 0, 67, 55
1, 450373, Control_c, 0, 64, 60
1, 450374, Control_c, 0, 67, 113
1, 450382, Note_off_c, 0, 72, 45
1, 450390, Control_c, 0, 67, 105
1, 450410, Control_c, 0, 67, 97
1, 450416, Note_off_c, 0, 64, 36
1, 450416, Poly_aftertouch_c, 0, 64, 0
1, 450428, Control_c, 0, 67, 89
1, 450449, Note_on_c, 0, 52, 42
1, 450449, Control_c, 0, 64, 56
1, 450449, Control_c, 0, 67, 79
1, 450468, Control_c, 0, 64, 51
1, 450469, Control_c, 0, 67, 70
1, 450476, Note_on_c, 0, 67, 48
1, 450476, Note_on_c, 0, 73, 50
1, 450485, Control_c, 0, 64, 44
1, 450486, Control_c, 0, 67, 64
1, 450502, Control_c, 0, 64, 41
1, 450507, Note_on_c, 0, 70, 25
1, 450559, Control_c, 0, 64, 45
1, 450561, Control_c, 0, 67, 68
1, 450578, Control_c, 0, 64, 50
1, 450597, Control_c, 0, 64, 57
1, 450598, Control_c, 0, 67, 77
1, 450601, Note_off_c, 0, 70, 37
1, 450616, Control_c, 0, 64, 64
1, 450616, Control_c, 0, 67, 84
1, 450635, Control_c, 0, 64, 68
1, 450636, Control_c, 0, 67, 88
1, 450639, Note_off_c, 0, 52, 36
1, 450645, Note_off_c, 0, 67, 41
1, 450653, Control_c, 0, 64, 70
1, 450660, Note_on_c, 0, 64, 40
1, 450690, Control_c, 0, 64, 73
1, 450691, Control_c, 0, 67, 93
1, 450710, Control_c, 0, 64, 75
1, 450728, Control_c, 0, 64, 77
1, 450765, Control_c, 0, 64, 80
1, 450784, Control_c, 0, 64, 82
1, 450798, Note_off_c, 0, 73, 30
1, 450802, Control_c, 0, 64, 84
1, 450804, Note_off_c, 0, 64, 37
1, 450804, Poly_aftertouch_c, 0, 64, 0
1, 450821, Control_c, 0, 64, 86
1, 450835, Note_on_c, 0, 72, 57
1, 450849, Note_on_c, 0, 67, 41
1, 450858, Control_c, 0, 64, 91
1, 450896, Control_c, 0, 67, 97
1, 450909, Note_off_c, 0, 72, 62
1, 450912, Note_off_c, 0, 67, 46
1, 450932, Poly_aftertouch_c, 0, 73, 0
1, 450935, Control_c, 0, 67, 105
1, 450952, Control_c, 0, 67, 110
1, 450971, Control_c, 0, 64, 86
1, 450972, Control_c, 0, 67, 114
1, 450991, Control_c, 0, 64, 75
1, 450994, Control_c, 0, 67, 120
1, 451008, Control_c, 0, 64, 60
1, 451010, Control_c, 0, 67, 127
1, 451022, Note_on_c, 0, 64, 55
1, 451026, Control_c, 0, 64, 42
1, 451033, Note_on_c, 0, 55, 45
1, 451039, Note_on_c, 0, 73, 56
1, 451044, Control_c, 0, 64, 22
1, 451052, Note_on_c, 0, 70, 47
1, 451083, Control_c, 0, 64, 30
1, 451102, Control_c, 0, 64, 40
1, 451121, Control_c, 0, 64, 53
1, 451139, Control_c, 0, 64, 65
1, 451157, Control_c, 0, 64, 72
1, 451176, Control_c, 0, 64, 75
1, 451186, Note_off_c, 0, 73, 56
1, 451189, Note_off_c, 0, 64, 53
1, 451189, Poly_aftertouch_c, 0, 64, 0
1, 451194, Note_off_c, 0, 70, 56
1, 451226, Note_on_c, 0, 67, 42
1, 451271, Control_c, 0, 64, 70
1, 451285, Note_off_c, 0, 55, 53
1, 451288, Control_c, 0, 64, 64
1, 451306, Control_c, 0, 64, 56
1, 451326, Control_c, 0, 64, 52
1, 451345, Control_c, 0, 64, 50
1, 451357, Note_off_c, 0, 67, 33
1, 451362, Control_c, 0, 64, 46
1, 451382, Control_c, 0, 64, 42
1, 451390, Note_on_c, 0, 72, 47
1, 451398, Note_on_c, 0, 64, 45
1, 451399, Control_c, 0, 64, 37
1, 451419, Control_c, 0, 64, 33
1, 451435, Note_on_c, 0, 70, 6
1, 451457, Control_c, 0, 64, 26
1, 451482, Note_off_c, 0, 72, 57
1, 451486, Note_off_c, 0, 64, 50
1, 451486, Poly_aftertouch_c, 0, 64, 0
1, 451513, Note_off_c, 0, 70, 37
1, 451531, Control_c, 0, 64, 30
1, 451551, Control_c, 0, 64, 36
1, 451569, Control_c, 0, 64, 44
1, 451588, Note_on_c, 0, 55, 40
1, 451588, Control_c, 0, 64, 53
1, 451590, Note_on_c, 0, 64, 29
1, 451590, Note_on_c, 0, 73, 40
1, 451606, Note_on_c, 0, 70, 35
1, 451606, Control_c, 0, 64, 60
1, 451626, Control_c, 0, 64, 65
1, 451644, Control_c, 0, 64, 69
1, 451662, Control_c, 0, 64, 71
1, 451681, Control_c, 0, 64, 73
1, 451772, Note_off_c, 0, 73, 42
1, 451785, Note_on_c, 0, 67, 31
1, 451786, Note_off_c, 0, 64, 42
1, 451786, Poly_aftertouch_c, 0, 64, 0
1, 451804, Note_off_c, 0, 70, 45
1, 451831, Control_c, 0, 64, 70
1, 451849, Control_c, 0, 64, 66
1, 451853, Note_off_c, 0, 55, 51
1, 451868, Control_c, 0, 64, 60
1, 451883, Note_off_c, 0, 67, 43
1, 451886, Control_c, 0, 64, 56
1, 451905, Control_c, 0, 64, 50
1, 451924, Control_c, 0, 64, 41
1, 451944, Control_c, 0, 64, 25
1, 451955, Note_on_c, 0, 72, 49
1, 451961, Control_c, 0, 64, 0
1, 451966, Note_on_c, 0, 64, 33
1, 451991, Note_on_c, 0, 70, 13
1, 452054, Note_off_c, 0, 72, 54
1, 452061, Note_off_c, 0, 64, 41
1, 452061, Poly_aftertouch_c, 0, 64, 0
1, 452064, Note_off_c, 0, 70, 50
1, 452110, Control_c, 0, 64, 15
1, 452130, Control_c, 0, 64, 24
1, 452145, Note_on_c, 0, 64, 33
1, 452147, Control_c, 0, 64, 32
1, 452159, Note_on_c, 0, 55, 34
1, 452166, Note_on_c, 0, 73, 37
1, 452166, Control_c, 0, 64, 43
1, 452185, Control_c, 0, 64, 51
1, 452191, Note_on_c, 0, 70, 40
1, 452206, Control_c, 0, 64, 60
1, 452224, Control_c, 0, 64, 66
1, 452241, Control_c, 0, 64, 69
1, 452280, Control_c, 0, 64, 72
1, 452345, Note_off_c, 0, 73, 44
1, 452349, Note_on_c, 0, 67, 36
1, 452363, Note_off_c, 0, 64, 45
1, 452363, Poly_aftertouch_c, 0, 64, 0
1, 452378, Note_off_c, 0, 70, 34
1, 452411, Control_c, 0, 64, 70
1, 452429, Control_c, 0, 64, 67
1, 452438, Note_off_c, 0, 55, 36
1, 452439, Note_off_c, 0, 67, 50
1, 452447, Control_c, 0, 64, 61
1, 452466, Control_c, 0, 64, 54
1, 452486, Control_c, 0, 64, 43
1, 452503, Control_c, 0, 64, 27
1, 452522, Control_c, 0, 64, 0
1, 452533, Note_on_c, 0, 72, 51
1, 452539, Note_on_c, 0, 64, 35
1, 452563, Note_on_c, 0, 70, 27
1, 452614, Note_off_c, 0, 70, 50
1, 452622, Note_off_c, 0, 64, 49
1, 452622, Poly_aftertouch_c, 0, 64, 0
1, 452641, Note_off_c, 0, 72, 53
1, 452691, Control_c, 0, 64, 16
1, 452709, Control_c, 0, 64, 25
1, 452720, Note_on_c, 0, 55, 39
1, 452727, Control_c, 0, 64, 35
1, 452734, Note_on_c, 0, 64, 34
1, 452736, Note_on_c, 0, 73, 43
1, 452746, Control_c, 0, 64, 45
1, 452750, Note_on_c, 0, 70, 36
1, 452766, Control_c, 0, 64, 53
1, 452784, Control_c, 0, 64, 60
1, 452803, Control_c, 0, 64, 63
1, 452823, Control_c, 0, 64, 64
1, 452878, Control_c, 0, 64, 63
1, 452897, Control_c, 0, 64, 62
1, 452912, Note_off_c, 0, 73, 44
1, 452923, Note_off_c, 0, 70, 34
1, 452927, Note_on_c, 0, 67, 40
1, 452933, Control_c, 0, 67, 118
1, 452935, Note_off_c, 0, 64, 38
1, 452935, Poly_aftertouch_c, 0, 64, 0
1, 452953, Control_c, 0, 64, 61
1, 452954, Control_c, 0, 67, 111
1, 452971, Control_c, 0, 67, 105
1, 452989, Control_c, 0, 67, 97
1, 453009, Control_c, 0, 67, 89
1, 453027, Control_c, 0, 67, 81
1, 453035, Note_off_c, 0, 55, 36
1, 453038, Note_off_c, 0, 67, 42
1, 453045, Control_c, 0, 64, 60
1, 453046, Control_c, 0, 67, 73
1, 453065, Control_c, 0, 67, 65
1, 453083, Control_c, 0, 67, 58
1, 453087, Note_on_c, 0, 72, 53
1, 453095, Note_on_c, 0, 64, 39
1, 453102, Control_c, 0, 67, 53
1, 453120, Control_c, 0, 67, 47
1, 453123, Note_on_c, 0, 70, 23
1, 453140, Control_c, 0, 67, 41
1, 453148, Note_off_c, 0, 64, 48
1, 453148, Poly_aftertouch_c, 0, 64, 0
1, 453159, Control_c, 0, 67, 34
1, 453166, Note_off_c, 0, 72, 58
1, 453176, Control_c, 0, 67, 28
1, 453177, Note_off_c, 0, 70, 45
1, 453196, Control_c, 0, 67, 22
1, 453215, Control_c, 0, 67, 16
1, 453234, Control_c, 0, 67, 10
1, 453251, Control_c, 0, 64, 58
1, 453282, Note_on_c, 0, 73, 58
1, 453283, Note_on_c, 0, 64, 51
1, 453290, Control_c, 0, 64, 54
1, 453292, Note_on_c, 0, 70, 56
1, 453308, Control_c, 0, 64, 50
1, 453326, Control_c, 0, 64, 45
1, 453327, Control_c, 0, 67, 16
1, 453346, Control_c, 0, 64, 35
1, 453347, Control_c, 0, 67, 21
1, 453365, Control_c, 0, 64, 10
1, 453366, Control_c, 0, 67, 30
1, 453383, Control_c, 0, 64, 0
1, 453384, Control_c, 0, 67, 45
1, 453401, Control_c, 0, 67, 60
1, 453421, Control_c, 0, 67, 69
1, 453438, Control_c, 0, 67, 78
1, 453452, Note_off_c, 0, 70, 35
1, 453456, Control_c, 0, 67, 90
1, 453464, Note_on_c, 0, 55, 43
1, 453476, Control_c, 0, 67, 102
1, 453478, Note_off_c, 0, 64, 33
1, 453478, Poly_aftertouch_c, 0, 64, 0
1, 453493, Note_off_c, 0, 73, 36
1, 453494, Control_c, 0, 67, 115
1, 453514, Control_c, 0, 67, 125
1, 453543, Note_off_c, 0, 55, 45
1, 453679, Note_on_c, 0, 67, 28
1, 453737, Note_off_c, 0, 67, 49
1, 453853, Note_on_c, 0, 72, 43
1, 453863, Note_on_c, 0, 70, 41
1, 453867, Note_on_c, 0, 64, 36
1, 454032, Note_on_c, 0, 55, 34
1, 454061, Note_off_c, 0, 70, 36
1, 454066, Note_off_c, 0, 72, 48
1, 454077, Note_off_c, 0, 64, 36
1, 454077, Poly_aftertouch_c, 0, 64, 0
1, 454217, Note_on_c, 0, 67, 34
1, 454243, Note_off_c, 0, 55, 21
1, 454284, Note_off_c, 0, 67, 44
1, 454406, Note_on_c, 0, 72, 38
1, 454416, Note_on_c, 0, 70, 35
1, 454423, Note_on_c, 0, 64, 32
1, 454587, Note_on_c, 0, 55, 30
1, 454598, Control_c, 0, 67, 119
1, 454610, Note_off_c, 0, 64, 37
1, 454610, Poly_aftertouch_c, 0, 64, 0
1, 454615, Note_off_c, 0, 70, 46
1, 454616, Note_off_c, 0, 72, 45
1, 454616, Control_c, 0, 67, 113
1, 454637, Control_c, 0, 67, 105
1, 454654, Control_c, 0, 67, 93
1, 454673, Control_c, 0, 67, 80
1, 454691, Control_c, 0, 67, 67
1, 454711, Control_c, 0, 67, 52
1, 454729, Control_c, 0, 67, 36
1, 454744, Note_off_c, 0, 55, 33
1, 454749, Control_c, 0, 67, 19
1, 454774, Note_on_c, 0, 67, 44
1, 454785, Control_c, 0, 67, 0
1, 454827, Note_off_c, 0, 67, 58
1, 454981, Note_on_c, 0, 72, 44
1, 454993, Note_on_c, 0, 70, 48
1, 454994, Note_on_c, 0, 64, 31
1, 455010, Control_c, 0, 64, 10
1, 455028, Control_c, 0, 64, 22
1, 455039, Note_off_c, 0, 64, 44
1, 455039, Poly_aftertouch_c, 0, 64, 0
1, 455046, Note_off_c, 0, 72, 61
1, 455046, Note_off_c, 0, 70, 62
1, 455047, Control_c, 0, 64, 28
1, 455084, Control_c, 0, 64, 33
1, 455121, Control_c, 0, 64, 41
1, 455140, Control_c, 0, 64, 44
1, 455159, Control_c, 0, 64, 48
1, 455165, Note_on_c, 0, 55, 58
1, 455179, Control_c, 0, 64, 50
1, 455212, Note_off_c, 0, 55, 61
1, 455235, Control_c, 0, 67, 9
1, 455271, Control_c, 0, 67, 15
1, 455292, Control_c, 0, 67, 19
1, 455309, Control_c, 0, 67, 25
1, 455328, Control_c, 0, 67, 34
1, 455345, Control_c, 0, 67, 42
1, 455349, Note_on_c, 0, 56, 53
1, 455365, Control_c, 0, 67, 49
1, 455384, Control_c, 0, 64, 46
1, 455385, Control_c, 0, 67, 54
1, 455402, Control_c, 0, 64, 43
1, 455403, Control_c, 0, 67, 60
1, 455421, Control_c, 0, 64, 39
1, 455423, Control_c, 0, 67, 68
1, 455424, Note_off_c, 0, 56, 53
1, 455431, Note_on_c, 0, 58, 67
1, 455440, Control_c, 0, 64, 33
1, 455441, Control_c, 0, 67, 77
1, 455458, Control_c, 0, 64, 27
1, 455458, Control_c, 0, 67, 84
1, 455478, Control_c, 0, 64, 19
1, 455479, Control_c, 0, 67, 91
1, 455494, Note_on_c, 0, 80, 62
1, 455495, Control_c, 0, 67, 97
1, 455515, Control_c, 0, 64, 0
1, 455515, Control_c, 0, 67, 102
1, 455522, Note_off_c, 0, 58, 63
1, 455527, Note_on_c, 0, 60, 66
1, 455530, Note_on_c, 0, 53, 59
1, 455533, Control_c, 0, 67, 106
1, 455570, Control_c, 0, 67, 111
1, 455580, Note_off_c, 0, 80, 64
1, 455588, Note_on_c, 0, 79, 69
1, 455681, Note_on_c, 0, 80, 68
1, 455691, Note_off_c, 0, 79, 59
1, 455691, Poly_aftertouch_c, 0, 79, 0
1, 455738, Control_c, 0, 64, 18
1, 455755, Note_on_c, 0, 84, 72
1, 455757, Control_c, 0, 64, 30
1, 455758, Control_c, 0, 67, 107
1, 455765, Note_off_c, 0, 80, 61
1, 455770, Note_off_c, 0, 53, 47
1, 455770, Poly_aftertouch_c, 0, 53, 0
1, 455776, Control_c, 0, 64, 39
1, 455795, Control_c, 0, 64, 45
1, 455796, Control_c, 0, 67, 99
1, 455813, Control_c, 0, 64, 47
1, 455813, Control_c, 0, 67, 91
1, 455830, Note_off_c, 0, 60, 57
1, 455830, Poly_aftertouch_c, 0, 60, 0
1, 455832, Control_c, 0, 67, 82
1, 455841, Note_on_c, 0, 82, 74
1, 455845, Note_on_c, 0, 62, 69
1, 455851, Control_c, 0, 67, 74
1, 455871, Control_c, 0, 67, 65
1, 455880, Note_off_c, 0, 62, 67
1, 455887, Control_c, 0, 67, 57
1, 455889, Note_off_c, 0, 84, 60
1, 455907, Control_c, 0, 67, 51
1, 455926, Control_c, 0, 67, 47
1, 455928, Note_on_c, 0, 80, 68
1, 455970, Note_off_c, 0, 82, 64
1, 455982, Control_c, 0, 64, 43
1, 456000, Control_c, 0, 64, 40
1, 456013, Note_on_c, 0, 79, 73
1, 456019, Control_c, 0, 64, 36
1, 456024, Note_on_c, 0, 63, 70
1, 456026, Note_off_c, 0, 80, 57
1, 456029, Note_on_c, 0, 51, 64
1, 456037, Control_c, 0, 64, 31
1, 456075, Control_c, 0, 64, 27
1, 456083, Note_off_c, 0, 79, 62
1, 456083, Poly_aftertouch_c, 0, 79, 0
1, 456099, Note_off_c, 0, 63, 61
1, 456099, Poly_aftertouch_c, 0, 63, 0
1, 456101, Note_off_c, 0, 51, 59
1, 456101, Note_on_c, 0, 77, 71
1, 456101, Poly_aftertouch_c, 0, 51, 0
1, 456131, Control_c, 0, 64, 23
1, 456182, Note_on_c, 0, 75, 77
1, 456188, Note_off_c, 0, 77, 60
1, 456225, Control_c, 0, 64, 19
1, 456278, Note_off_c, 0, 75, 63
1, 456278, Note_on_c, 0, 74, 70
1, 456334, Note_off_c, 0, 74, 62
1, 456351, Note_on_c, 0, 64, 82
1, 456354, Note_on_c, 0, 72, 69
1, 456357, Note_on_c, 0, 52, 78
1, 456430, Note_off_c, 0, 72, 53
1, 456445, Note_on_c, 0, 70, 79
1, 456506, Control_c, 0, 64, 23
1, 456537, Note_on_c, 0, 68, 74
1, 456539, Note_off_c, 0, 52, 61
1, 456550, Note_off_c, 0, 70, 65
1, 456571, Note_off_c, 0, 64, 61
1, 456571, Poly_aftertouch_c, 0, 64, 0
1, 456601, Note_off_c, 0, 68, 64
1, 456601, Poly_aftertouch_c, 0, 68, 0
1, 456613, Note_on_c, 0, 67, 74
1, 456701, Note_off_c, 0, 67, 58
1, 456702, Note_on_c, 0, 68, 65
1, 456705, Note_on_c, 0, 65, 77
1, 456713, Note_on_c, 0, 53, 73
1, 456744, Note_off_c, 0, 65, 64
1, 456746, Note_off_c, 0, 53, 67
1, 456746, Poly_aftertouch_c, 0, 53, 0
1, 456747, Control_c, 0, 67, 43
1, 456786, Note_on_c, 0, 72, 70
1, 456786, Control_c, 0, 67, 38
1, 456789, Note_off_c, 0, 68, 59
1, 456789, Poly_aftertouch_c, 0, 68, 0
1, 456823, Control_c, 0, 67, 30
1, 456842, Control_c, 0, 67, 25
1, 456861, Control_c, 0, 67, 17
1, 456867, Note_on_c, 0, 50, 81
1, 456870, Note_on_c, 0, 62, 78
1, 456890, Note_on_c, 0, 70, 70
1, 456899, Control_c, 0, 67, 0
1, 456902, Note_off_c, 0, 50, 66
1, 456909, Note_off_c, 0, 62, 65
1, 456914, Note_off_c, 0, 72, 59
1, 456977, Note_on_c, 0, 68, 78
1, 457005, Note_off_c, 0, 70, 61
1, 457028, Control_c, 0, 64, 29
1, 457056, Note_on_c, 0, 51, 83
1, 457059, Note_off_c, 0, 68, 62
1, 457059, Poly_aftertouch_c, 0, 68, 0
1, 457062, Note_on_c, 0, 63, 66
1, 457068, Control_c, 0, 64, 37
1, 457073, Note_on_c, 0, 67, 70
1, 457085, Control_c, 0, 64, 42
1, 457090, Note_off_c, 0, 51, 64
1, 457090, Poly_aftertouch_c, 0, 51, 0
1, 457093, Note_off_c, 0, 63, 66
1, 457093, Poly_aftertouch_c, 0, 63, 0
1, 457104, Control_c, 0, 64, 46
1, 457143, Note_off_c, 0, 67, 62
1, 457153, Note_on_c, 0, 63, 79
1, 457196, Note_off_c, 0, 63, 65
1, 457196, Poly_aftertouch_c, 0, 63, 0
1, 457234, Note_on_c, 0, 67, 78
1, 457290, Control_c, 0, 64, 44
1, 457300, Note_off_c, 0, 67, 56
1, 457326, Note_on_c, 0, 68, 76
1, 457390, Note_off_c, 0, 68, 59
1, 457390, Poly_aftertouch_c, 0, 68, 0
1, 457400, Note_on_c, 0, 49, 69
1, 457413, Note_on_c, 0, 70, 80
1, 457441, Control_c, 0, 64, 42
1, 457464, Note_off_c, 0, 49, 46
1, 457464, Poly_aftertouch_c, 0, 49, 0
1, 457472, Note_off_c, 0, 70, 65
1, 457481, Note_on_c, 0, 51, 72
1, 457499, Note_on_c, 0, 72, 73
1, 457534, Control_c, 0, 64, 40
1, 457552, Note_on_c, 0, 46, 80
1, 457554, Note_on_c, 0, 53, 80
1, 457562, Note_off_c, 0, 51, 62
1, 457562, Poly_aftertouch_c, 0, 51, 0
1, 457567, Note_off_c, 0, 72, 50
1, 457579, Note_on_c, 0, 73, 80
1, 457644, Note_off_c, 0, 73, 63
1, 457665, Note_on_c, 0, 72, 73
1, 457665, Control_c, 0, 64, 36
1, 457743, Note_off_c, 0, 72, 60
1, 457745, Note_on_c, 0, 73, 77
1, 457831, Note_on_c, 0, 77, 73
1, 457854, Note_off_c, 0, 73, 59
1, 457871, Note_off_c, 0, 53, 49
1, 457871, Poly_aftertouch_c, 0, 53, 0
1, 457912, Note_on_c, 0, 55, 69
1, 457921, Note_on_c, 0, 75, 76
1, 457947, Note_off_c, 0, 55, 67
1, 457952, Note_off_c, 0, 46, 58
1, 457952, Poly_aftertouch_c, 0, 46, 0
1, 457955, Note_off_c, 0, 77, 59
1, 458004, Note_on_c, 0, 73, 72
1, 458057, Note_off_c, 0, 75, 64
1, 458067, Note_off_c, 0, 73, 59
1, 458079, Note_on_c, 0, 72, 71
1, 458110, Note_on_c, 0, 56, 72
1, 458115, Note_on_c, 0, 44, 66
1, 458167, Note_on_c, 0, 70, 79
1, 458170, Note_off_c, 0, 72, 47
1, 458184, Note_off_c, 0, 56, 63
1, 458192, Note_off_c, 0, 44, 62
1, 458192, Poly_aftertouch_c, 0, 44, 0
1, 458266, Note_on_c, 0, 68, 71
1, 458309, Note_off_c, 0, 70, 64
1, 458352, Note_on_c, 0, 67, 77
1, 458393, Note_off_c, 0, 68, 62
1, 458393, Poly_aftertouch_c, 0, 68, 0
1, 458418, Note_off_c, 0, 67, 61
1, 458428, Note_on_c, 0, 65, 77
1, 458438, Note_on_c, 0, 57, 84
1, 458439, Note_on_c, 0, 45, 82
1, 458519, Note_on_c, 0, 63, 79
1, 458522, Note_off_c, 0, 65, 58
1, 458526, Control_c, 0, 64, 41
1, 458545, Control_c, 0, 64, 46
1, 458562, Control_c, 0, 64, 52
1, 458581, Control_c, 0, 64, 57
1, 458600, Control_c, 0, 64, 61
1, 458610, Note_on_c, 0, 61, 78
1, 458618, Control_c, 0, 64, 63
1, 458623, Note_off_c, 0, 63, 62
1, 458623, Poly_aftertouch_c, 0, 63, 0
1, 458628, Note_off_c, 0, 45, 58
1, 458637, Control_c, 0, 64, 65
1, 458645, Note_off_c, 0, 57, 59
1, 458645, Poly_aftertouch_c, 0, 57, 0
1, 458682, Note_off_c, 0, 61, 63
1, 458686, Note_on_c, 0, 60, 80
1, 458731, Control_c, 0, 64, 64
1, 458751, Control_c, 0, 64, 63
1, 458768, Control_c, 0, 64, 62
1, 458771, Note_on_c, 0, 61, 70
1, 458777, Note_off_c, 0, 60, 58
1, 458777, Poly_aftertouch_c, 0, 60, 0
1, 458797, Note_on_c, 0, 58, 77
1, 458799, Note_on_c, 0, 46, 72
1, 458806, Control_c, 0, 64, 60
1, 458832, Note_off_c, 0, 58, 67
1, 458843, Control_c, 0, 64, 58
1, 458859, Note_on_c, 0, 65, 79
1, 458862, Note_off_c, 0, 46, 60
1, 458862, Poly_aftertouch_c, 0, 46, 0
1, 458868, Note_off_c, 0, 61, 61
1, 458879, Control_c, 0, 64, 56
1, 458917, Control_c, 0, 64, 52
1, 458955, Control_c, 0, 64, 50
1, 458965, Note_on_c, 0, 63, 78
1, 458974, Note_on_c, 0, 43, 77
1, 458996, Note_off_c, 0, 65, 60
1, 459011, Control_c, 0, 64, 48
1, 459018, Note_off_c, 0, 43, 65
1, 459040, Note_on_c, 0, 61, 78
1, 459068, Control_c, 0, 64, 46
1, 459084, Note_off_c, 0, 63, 62
1, 459084, Poly_aftertouch_c, 0, 63, 0
1, 459127, Note_off_c, 0, 61, 61
1, 459131, Note_on_c, 0, 44, 74
1, 459134, Note_on_c, 0, 60, 80
1, 459184, Note_off_c, 0, 44, 57
1, 459184, Poly_aftertouch_c, 0, 44, 0
1, 459192, Note_off_c, 0, 60, 66
1, 459192, Poly_aftertouch_c, 0, 60, 0
1, 459220, Note_on_c, 0, 48, 71
1, 459235, Control_c, 0, 64, 44
1, 459291, Control_c, 0, 64, 41
1, 459316, Note_on_c, 0, 49, 70
1, 459332, Note_off_c, 0, 48, 63
1, 459404, Note_on_c, 0, 51, 74
1, 459411, Note_off_c, 0, 49, 61
1, 459411, Poly_aftertouch_c, 0, 49, 0
1, 459422, Control_c, 0, 64, 37
1, 459478, Note_off_c, 0, 51, 61
1, 459478, Poly_aftertouch_c, 0, 51, 0
1, 459491, Note_on_c, 0, 68, 70
1, 459499, Note_on_c, 0, 53, 71
1, 459548, Note_off_c, 0, 53, 58
1, 459548, Poly_aftertouch_c, 0, 53, 0
1, 459556, Note_on_c, 0, 70, 80
1, 459569, Note_on_c, 0, 55, 74
1, 459601, Note_off_c, 0, 68, 49
1, 459601, Poly_aftertouch_c, 0, 68, 0
1, 459644, Note_on_c, 0, 72, 84
1, 459648, Note_off_c, 0, 55, 56
1, 459648, Note_on_c, 0, 60, 72
1, 459660, Note_on_c, 0, 54, 64
1, 459668, Note_off_c, 0, 70, 65
1, 459734, Note_on_c, 0, 53, 71
1, 459745, Note_off_c, 0, 54, 62
1, 459762, Note_off_c, 0, 60, 55
1, 459762, Poly_aftertouch_c, 0, 60, 0
1, 459778, Control_c, 0, 64, 40
1, 459796, Control_c, 0, 64, 42
1, 459834, Note_on_c, 0, 54, 70
1, 459861, Note_off_c, 0, 53, 59
1, 459861, Poly_aftertouch_c, 0, 53, 0
1, 459870, Note_off_c, 0, 72, 59
1, 459870, Control_c, 0, 64, 44
1, 459890, Control_c, 0, 64, 47
1, 459908, Control_c, 0, 64, 51
1, 459928, Control_c, 0, 64, 54
1, 459936, Note_on_c, 0, 52, 51
1, 459947, Control_c, 0, 64, 57
1, 459963, Note_on_c, 0, 53, 43
1, 459963, Control_c, 0, 64, 60
1, 459969, Note_off_c, 0, 54, 33
1, 459983, Control_c, 0, 64, 64
1, 459995, Note_on_c, 0, 56, 71
1, 460002, Control_c, 0, 64, 67
1, 460003, Note_off_c, 0, 53, 35
1, 460003, Poly_aftertouch_c, 0, 53, 0
1, 460005, Note_on_c, 0, 74, 89
1, 460016, Note_on_c, 0, 62, 72
1, 460020, Control_c, 0, 64, 69
1, 460028, Note_off_c, 0, 52, 41
1, 460040, Control_c, 0, 64, 71
1, 460053, Note_off_c, 0, 56, 61
1, 460077, Control_c, 0, 64, 74
1, 460082, Note_off_c, 0, 62, 62
1, 460096, Note_on_c, 0, 54, 59
1, 460114, Control_c, 0, 64, 77
1, 460125, Note_off_c, 0, 54, 57
1, 460131, Note_on_c, 0, 53, 71
1, 460151, Control_c, 0, 64, 79
1, 460191, Note_on_c, 0, 75, 88
1, 460195, Note_off_c, 0, 74, 60
1, 460206, Note_on_c, 0, 63, 78
1, 460221, Note_off_c, 0, 53, 60
1, 460221, Poly_aftertouch_c, 0, 53, 0
1, 460234, Note_on_c, 0, 52, 61
1, 460238, Note_off_c, 0, 63, 70
1, 460238, Poly_aftertouch_c, 0, 63, 0
1, 460242, Note_off_c, 0, 75, 66
1, 460264, Control_c, 0, 64, 77
1, 460283, Control_c, 0, 64, 75
1, 460301, Note_off_c, 0, 52, 56
1, 460301, Control_c, 0, 64, 72
1, 460305, Note_on_c, 0, 49, 70
1, 460319, Control_c, 0, 64, 68
1, 460339, Control_c, 0, 64, 65
1, 460355, Note_off_c, 0, 49, 57
1, 460355, Poly_aftertouch_c, 0, 49, 0
1, 460356, Control_c, 0, 64, 61
1, 460376, Control_c, 0, 64, 59
1, 460395, Control_c, 0, 64, 57
1, 460401, Note_on_c, 0, 48, 74
1, 460432, Control_c, 0, 64, 54
1, 460473, Note_off_c, 0, 48, 60
1, 460501, Note_on_c, 0, 45, 48
1, 460503, Note_on_c, 0, 47, 49
1, 460527, Control_c, 0, 64, 58
1, 460542, Note_on_c, 0, 44, 74
1, 460543, Control_c, 0, 64, 62
1, 460546, Note_on_c, 0, 76, 88
1, 460550, Note_off_c, 0, 45, 60
1, 460553, Note_off_c, 0, 47, 61
1, 460553, Poly_aftertouch_c, 0, 47, 0
1, 460556, Note_on_c, 0, 64, 85
1, 460562, Control_c, 0, 64, 66
1, 460581, Control_c, 0, 64, 70
1, 460602, Control_c, 0, 64, 74
1, 460619, Control_c, 0, 64, 79
1, 460638, Control_c, 0, 64, 83
1, 460657, Control_c, 0, 64, 88
1, 460660, Note_off_c, 0, 64, 53
1, 460660, Poly_aftertouch_c, 0, 64, 0
1, 460667, Note_off_c, 0, 44, 62
1, 460667, Poly_aftertouch_c, 0, 44, 0
1, 460675, Note_on_c, 0, 41, 58
1, 460677, Control_c, 0, 64, 94
1, 460680, Note_on_c, 0, 43, 46
1, 460694, Control_c, 0, 64, 101
1, 460712, Control_c, 0, 64, 108
1, 460721, Note_off_c, 0, 41, 64
1, 460721, Note_on_c, 0, 41, 41
1, 460726, Note_off_c, 0, 43, 44
1, 460731, Control_c, 0, 64, 114
1, 460750, Control_c, 0, 64, 120
1, 460768, Control_c, 0, 64, 125
1, 460808, Note_off_c, 0, 76, 61
1, 460858, Note_off_c, 0, 41, 59
1, 460858, Note_on_c, 0, 39, 73
1, 460905, Note_on_c, 0, 77, 93
1, 460908, Note_on_c, 0, 65, 85
1, 460950, Note_off_c, 0, 65, 61
1, 460953, Note_off_c, 0, 77, 63
1, 460992, Note_off_c, 0, 39, 59
1, 460992, Poly_aftertouch_c, 0, 39, 0
1, 461068, Control_c, 0, 64, 119
1, 461080, Note_on_c, 0, 74, 93
1, 461086, Note_on_c, 0, 62, 78
1, 461094, Note_on_c, 0, 39, 58
1, 461113, Note_off_c, 0, 62, 70
1, 461126, Note_off_c, 0, 74, 63
1, 461133, Note_off_c, 0, 39, 60
1, 461133, Poly_aftertouch_c, 0, 39, 0
1, 461218, Control_c, 0, 64, 114
1, 461240, Note_on_c, 0, 43, 73
1, 461248, Note_on_c, 0, 75, 89
1, 461251, Note_on_c, 0, 63, 82
1, 461254, Control_c, 0, 64, 106
1, 461273, Control_c, 0, 64, 99
1, 461292, Control_c, 0, 64, 91
1, 461310, Control_c, 0, 64, 83
1, 461311, Note_off_c, 0, 43, 62
1, 461311, Note_on_c, 0, 39, 72
1, 461329, Control_c, 0, 64, 74
1, 461349, Control_c, 0, 64, 64
1, 461351, Note_off_c, 0, 63, 58
1, 461351, Poly_aftertouch_c, 0, 63, 0
1, 461363, Note_off_c, 0, 75, 63
1, 461367, Control_c, 0, 64, 55
1, 461385, Control_c, 0, 64, 44
1, 461404, Control_c, 0, 64, 27
1, 461424, Control_c, 0, 64, 0
1, 461434, Note_off_c, 0, 39, 60
1, 461434, Poly_aftertouch_c, 0, 39, 0
1, 461438, Note_on_c, 0, 43, 69
1, 461546, Note_on_c, 0, 42, 47
1, 461603, Note_off_c, 0, 42, 32
1, 461612, Note_on_c, 0, 73, 80
1, 461647, Note_off_c, 0, 43, 39
1, 461648, Poly_aftertouch_c, 0, 43, 0
1, 461667, Control_c, 0, 64, 12
1, 461685, Control_c, 0, 64, 21
1, 461699, Note_on_c, 0, 44, 16
1, 461699, Poly_aftertouch_c, 0, 44, 0
1, 461700, Note_off_c, 0, 44, 127
1, 461702, Note_on_c, 0, 48, 69
1, 461702, Control_c, 0, 64, 30
1, 461704, Note_on_c, 0, 75, 85
1, 461722, Control_c, 0, 64, 37
1, 461731, Note_on_c, 0, 47, 39
1, 461741, Control_c, 0, 64, 41
1, 461760, Control_c, 0, 64, 43
1, 461763, Note_off_c, 0, 73, 59
1, 461787, Note_off_c, 0, 47, 30
1, 461787, Poly_aftertouch_c, 0, 47, 0
1, 461795, Note_on_c, 0, 77, 92
1, 461798, Control_c, 0, 64, 46
1, 461801, Note_on_c, 0, 65, 80
1, 461810, Note_on_c, 0, 49, 82
1, 461819, Note_off_c, 0, 75, 65
1, 461842, Note_off_c, 0, 48, 54
1, 461856, Note_on_c, 0, 67, 30
1, 461857, Note_off_c, 0, 67, 127
1, 461917, Note_off_c, 0, 65, 52
1, 461947, Control_c, 0, 64, 48
1, 461984, Control_c, 0, 64, 51
1, 462018, Note_off_c, 0, 49, 58
1, 462018, Poly_aftertouch_c, 0, 49, 0
1, 462022, Control_c, 0, 64, 53
1, 462064, Note_on_c, 0, 46, 64
1, 462078, Control_c, 0, 64, 55
1, 462104, Note_off_c, 0, 77, 34
1, 462118, Note_on_c, 0, 79, 89
1, 462131, Note_on_c, 0, 67, 72
1, 462133, Control_c, 0, 64, 59
1, 462139, Note_on_c, 0, 51, 73
1, 462153, Control_c, 0, 64, 61
1, 462161, Note_off_c, 0, 46, 59
1, 462161, Poly_aftertouch_c, 0, 46, 0
1, 462163, Note_off_c, 0, 67, 68
1, 462171, Control_c, 0, 64, 63
1, 462188, Note_off_c, 0, 51, 58
1, 462188, Poly_aftertouch_c, 0, 51, 0
1, 462190, Control_c, 0, 64, 64
1, 462237, Note_on_c, 0, 49, 75
1, 462278, Note_off_c, 0, 49, 62
1, 462278, Poly_aftertouch_c, 0, 49, 0
1, 462283, Control_c, 0, 64, 63
1, 462300, Note_on_c, 0, 48, 57
1, 462300, Note_on_c, 0, 80, 90
1, 462301, Control_c, 0, 64, 61
1, 462302, Note_off_c, 0, 79, 61
1, 462302, Poly_aftertouch_c, 0, 79, 0
1, 462308, Note_on_c, 0, 68, 82
1, 462321, Control_c, 0, 64, 57
1, 462340, Control_c, 0, 64, 49
1, 462341, Note_off_c, 0, 68, 70
1, 462341, Poly_aftertouch_c, 0, 68, 0
1, 462350, Note_off_c, 0, 80, 66
1, 462357, Control_c, 0, 64, 36
1, 462377, Control_c, 0, 64, 24
1, 462388, Note_off_c, 0, 48, 58
1, 462392, Note_on_c, 0, 46, 77
1, 462414, Control_c, 0, 64, 0
1, 462485, Note_on_c, 0, 44, 63
1, 462492, Note_off_c, 0, 46, 61
1, 462492, Poly_aftertouch_c, 0, 46, 0
1, 462543, Note_on_c, 0, 43, 75
1, 462580, Note_off_c, 0, 44, 56
1, 462580, Poly_aftertouch_c, 0, 44, 0
1, 462589, Note_off_c, 0, 43, 65
1, 462630, Note_on_c, 0, 41, 58
1, 462631, Poly_aftertouch_c, 0, 45, 0
1, 462648, Note_on_c, 0, 81, 95
1, 462653, Note_on_c, 0, 69, 89
1, 462676, Control_c, 0, 64, 21
1, 462694, Control_c, 0, 64, 41
1, 462713, Control_c, 0, 64, 54
1, 462730, Note_on_c, 0, 39, 74
1, 462732, Control_c, 0, 64, 63
1, 462740, Note_off_c, 0, 41, 60
1, 462751, Control_c, 0, 64, 66
1, 462792, Note_off_c, 0, 69, 57
1, 462792, Poly_aftertouch_c, 0, 69, 0
1, 462818, Note_on_c, 0, 37, 76
1, 462823, Note_off_c, 0, 39, 59
1, 462823, Poly_aftertouch_c, 0, 39, 0
1, 462862, Control_c, 0, 64, 67
1, 462906, Note_off_c, 0, 37, 60
1, 462916, Note_on_c, 0, 36, 72
1, 462957, Control_c, 0, 64, 66
1, 462974, Control_c, 0, 64, 61
1, 462994, Control_c, 0, 64, 52
1, 463011, Note_on_c, 0, 37, 76
1, 463011, Note_on_c, 0, 82, 86
1, 463012, Control_c, 0, 64, 38
1, 463014, Note_on_c, 0, 70, 82
1, 463024, Note_off_c, 0, 36, 61
1, 463030, Note_off_c, 0, 81, 36
1, 463031, Control_c, 0, 64, 14
1, 463051, Control_c, 0, 64, 0
1, 463053, Note_off_c, 0, 70, 63
1, 463060, Note_off_c, 0, 82, 62
1, 463065, Note_off_c, 0, 37, 60
1, 463071, Note_on_c, 0, 41, 71
1, 463169, Note_on_c, 0, 39, 80
1, 463176, Note_off_c, 0, 41, 60
1, 463219, Note_on_c, 0, 79, 89
1, 463225, Note_on_c, 0, 67, 78
1, 463253, Note_off_c, 0, 67, 70
1, 463256, Note_off_c, 0, 79, 64
1, 463256, Poly_aftertouch_c, 0, 79, 0
1, 463281, Note_off_c, 0, 39, 60
1, 463281, Note_on_c, 0, 37, 75
1, 463281, Poly_aftertouch_c, 0, 39, 0
1, 463376, Note_on_c, 0, 36, 79
1, 463405, Control_c, 0, 64, 11
1, 463406, Note_on_c, 0, 68, 86
1, 463406, Control_c, 0, 67, 9
1, 463412, Note_on_c, 0, 78, 78
1, 463424, Control_c, 0, 64, 66
1, 463428, Note_on_c, 0, 79, 67
1, 463433, Note_off_c, 0, 78, 66
1, 463436, Note_off_c, 0, 68, 69
1, 463436, Poly_aftertouch_c, 0, 68, 0
1, 463444, Control_c, 0, 64, 86
1, 463445, Control_c, 0, 67, 0
1, 463449, Note_off_c, 0, 79, 66
1, 463449, Poly_aftertouch_c, 0, 79, 0
1, 463456, Note_on_c, 0, 80, 8
1, 463461, Control_c, 0, 64, 100
1, 463465, Note_off_c, 0, 36, 62
1, 463470, Note_on_c, 0, 39, 78
1, 463480, Control_c, 0, 64, 107
1, 463495, Note_on_c, 0, 44, 65
1, 463497, Control_c, 0, 64, 99
1, 463501, Note_off_c, 0, 37, 27
1, 463519, Control_c, 0, 64, 74
1, 463528, Note_off_c, 0, 39, 56
1, 463528, Poly_aftertouch_c, 0, 39, 0
1, 463530, Note_off_c, 0, 80, 28
1, 463538, Control_c, 0, 64, 18
1, 463555, Control_c, 0, 64, 0
1, 463585, Note_off_c, 0, 44, 58
1, 463585, Poly_aftertouch_c, 0, 44, 0
1, 463603, Note_on_c, 0, 43, 72
1, 463704, Note_off_c, 0, 43, 64
1, 463726, Note_on_c, 0, 41, 80
1, 463758, Note_on_c, 0, 84, 102
1, 463762, Note_on_c, 0, 81, 92
1, 463764, Note_on_c, 0, 72, 95
1, 463798, Control_c, 0, 64, 68
1, 463798, Control_c, 0, 67, 30
1, 463808, Note_on_c, 0, 39, 75
1, 463813, Note_off_c, 0, 41, 63
1, 463816, Control_c, 0, 64, 102
1, 463819, Control_c, 0, 67, 46
1, 463836, Control_c, 0, 64, 127
1, 463837, Control_c, 0, 67, 35
1, 463853, Control_c, 0, 67, 20
1, 463887, Note_on_c, 0, 37, 83
1, 463891, Control_c, 0, 67, 0
1, 463896, Note_off_c, 0, 39, 57
1, 463896, Poly_aftertouch_c, 0, 39, 0
1, 463903, Note_off_c, 0, 72, 59
1, 463910, Note_off_c, 0, 84, 62
1, 463936, Note_off_c, 0, 81, 62
1, 463981, Note_off_c, 0, 37, 61
1, 463984, Note_on_c, 0, 34, 86
1, 463985, Control_c, 0, 64, 122
1, 464004, Control_c, 0, 64, 102
1, 464023, Control_c, 0, 64, 74
1, 464041, Control_c, 0, 64, 45
1, 464059, Control_c, 0, 64, 0
1, 464076, Note_on_c, 0, 37, 84
1, 464086, Note_off_c, 0, 34, 63
1, 464114, Note_on_c, 0, 82, 90
1, 464115, Note_on_c, 0, 73, 92
1, 464118, Note_on_c, 0, 85, 88
1, 464150, Note_off_c, 0, 73, 65
1, 464158, Note_off_c, 0, 85, 60
1, 464166, Note_off_c, 0, 82, 63
1, 464170, Note_on_c, 0, 34, 81
1, 464178, Note_off_c, 0, 37, 63
1, 464250, Note_on_c, 0, 39, 81
1, 464281, Note_off_c, 0, 34, 62
1, 464306, Note_on_c, 0, 82, 89
1, 464312, Note_on_c, 0, 70, 82
1, 464315, Note_on_c, 0, 79, 74
1, 464331, Note_off_c, 0, 70, 72
1, 464331, Note_on_c, 0, 85, 58
1, 464345, Note_on_c, 0, 37, 79
1, 464347, Note_off_c, 0, 79, 68
1, 464347, Poly_aftertouch_c, 0, 79, 0
1, 464359, Note_off_c, 0, 85, 61
1, 464367, Note_off_c, 0, 39, 59
1, 464367, Poly_aftertouch_c, 0, 39, 0
1, 464372, Note_off_c, 0, 82, 65
1, 464443, Note_on_c, 0, 36, 83
1, 464472, Control_c, 0, 64, 42
1, 464487, Note_on_c, 0, 80, 97
1, 464490, Note_on_c, 0, 84, 97
1, 464492, Note_off_c, 0, 37, 61
1, 464492, Control_c, 0, 64, 82
1, 464493, Note_on_c, 0, 72, 92
1, 464509, Control_c, 0, 64, 85
1, 464518, Note_off_c, 0, 72, 68
1, 464525, Control_c, 0, 64, 71
1, 464532, Note_on_c, 0, 39, 84
1, 464535, Note_off_c, 0, 80, 65
1, 464538, Note_off_c, 0, 84, 63
1, 464544, Control_c, 0, 64, 34
1, 464553, Note_off_c, 0, 36, 61
1, 464565, Control_c, 0, 64, 0
1, 464612, Note_off_c, 0, 39, 62
1, 464612, Poly_aftertouch_c, 0, 39, 0
1, 464619, Note_on_c, 0, 44, 70
1, 464688, Note_on_c, 0, 43, 82
1, 464693, Note_off_c, 0, 44, 59
1, 464693, Poly_aftertouch_c, 0, 44, 0
1, 464789, Note_off_c, 0, 43, 61
1, 464812, Note_on_c, 0, 41, 86
1, 464834, Note_on_c, 0, 81, 100
1, 464836, Note_on_c, 0, 72, 97
1, 464839, Note_on_c, 0, 69, 97
1, 464883, Control_c, 0, 64, 27
1, 464884, Control_c, 0, 67, 22
1, 464902, Control_c, 0, 64, 81
1, 464903, Control_c, 0, 67, 14
1, 464908, Note_off_c, 0, 41, 63
1, 464909, Note_on_c, 0, 39, 72
1, 464920, Control_c, 0, 64, 99
1, 464938, Control_c, 0, 64, 113
1, 464940, Control_c, 0, 67, 0
1, 464973, Note_on_c, 0, 37, 81
1, 464974, Note_off_c, 0, 69, 54
1, 464974, Poly_aftertouch_c, 0, 69, 0
1, 464978, Note_off_c, 0, 39, 56
1, 464978, Poly_aftertouch_c, 0, 39, 0
1, 464992, Note_off_c, 0, 81, 61
1, 464999, Note_off_c, 0, 72, 63
1, 465032, Control_c, 0, 64, 103
1, 465051, Control_c, 0, 64, 86
1, 465062, Note_off_c, 0, 37, 61
1, 465067, Note_on_c, 0, 34, 81
1, 465070, Control_c, 0, 64, 59
1, 465089, Control_c, 0, 64, 0
1, 465157, Note_on_c, 0, 37, 81
1, 465159, Note_off_c, 0, 34, 61
1, 465202, Note_on_c, 0, 82, 91
1, 465204, Note_on_c, 0, 73, 91
1, 465206, Note_on_c, 0, 70, 88
1, 465234, Note_off_c, 0, 70, 68
1, 465248, Note_off_c, 0, 73, 62
1, 465249, Note_on_c, 0, 34, 80
1, 465251, Note_off_c, 0, 82, 67
1, 465252, Note_off_c, 0, 37, 61
1, 465348, Note_on_c, 0, 39, 82
1, 465360, Note_off_c, 0, 34, 62
1, 465400, Note_on_c, 0, 79, 94
1, 465402, Note_on_c, 0, 70, 88
1, 465412, Note_on_c, 0, 67, 75
1, 465430, Note_off_c, 0, 70, 71
1, 465444, Note_off_c, 0, 67, 68
1, 465457, Note_off_c, 0, 79, 62
1, 465457, Poly_aftertouch_c, 0, 79, 0
1, 465526, Note_off_c, 0, 39, 58
1, 465526, Poly_aftertouch_c, 0, 39, 0
1, 465563, Note_on_c, 0, 32, 85
1, 465584, Note_on_c, 0, 72, 96
1, 465585, Note_on_c, 0, 68, 96
1, 465586, Note_on_c, 0, 80, 96
1, 465613, Control_c, 0, 64, 55
1, 465614, Control_c, 0, 67, 10
1, 465621, Note_off_c, 0, 68, 63
1, 465621, Poly_aftertouch_c, 0, 68, 0
1, 465623, Note_off_c, 0, 72, 67
1, 465629, Control_c, 0, 64, 99
1, 465631, Control_c, 0, 67, 56
1, 465635, Note_off_c, 0, 80, 67
1, 465644, Note_on_c, 0, 36, 80
1, 465647, Control_c, 0, 64, 87
1, 465648, Control_c, 0, 67, 62
1, 465668, Control_c, 0, 64, 61
1, 465670, Control_c, 0, 67, 40
1, 465678, Poly_aftertouch_c, 0, 75, 0
1, 465686, Control_c, 0, 64, 0
1, 465687, Control_c, 0, 67, 11
1, 465705, Control_c, 0, 67, 0
1, 465719, Note_off_c, 0, 32, 58
1, 465719, Poly_aftertouch_c, 0, 32, 0
1, 465747, Note_on_c, 0, 39, 81
1, 465757, Note_off_c, 0, 36, 61
1, 465828, Note_on_c, 0, 37, 80
1, 465839, Note_off_c, 0, 39, 60
1, 465839, Poly_aftertouch_c, 0, 39, 0
1, 465923, Note_on_c, 0, 36, 83
1, 465970, Note_on_c, 0, 82, 91
1, 465979, Note_on_c, 0, 70, 85
1, 465980, Note_on_c, 0, 79, 80
1, 466002, Note_off_c, 0, 70, 74
1, 466012, Note_off_c, 0, 79, 61
1, 466012, Poly_aftertouch_c, 0, 79, 0
1, 466013, Note_off_c, 0, 37, 52
1, 466015, Note_on_c, 0, 34, 80
1, 466058, Note_off_c, 0, 82, 63
1, 466074, Note_off_c, 0, 36, 60
1, 466141, Note_on_c, 0, 32, 88
1, 466160, Note_on_c, 0, 84, 103
1, 466162, Note_on_c, 0, 72, 99
1, 466162, Note_on_c, 0, 80, 101
1, 466178, Note_off_c, 0, 34, 61
1, 466191, Control_c, 0, 64, 48
1, 466195, Note_off_c, 0, 72, 66
1, 466206, Note_off_c, 0, 80, 68
1, 466206, Note_off_c, 0, 84, 68
1, 466210, Control_c, 0, 64, 112
1, 466213, Control_c, 0, 67, 35
1, 466228, Control_c, 0, 64, 127
1, 466229, Note_on_c, 0, 36, 74
1, 466229, Control_c, 0, 67, 44
1, 466235, Note_on_c, 0, 35, 73
1, 466250, Control_c, 0, 64, 112
1, 466251, Control_c, 0, 67, 18
1, 466266, Control_c, 0, 64, 70
1, 466268, Control_c, 0, 67, 0
1, 466285, Control_c, 0, 64, 0
1, 466288, Poly_aftertouch_c, 0, 82, 0
1, 466293, Note_off_c, 0, 32, 58
1, 466293, Poly_aftertouch_c, 0, 32, 0
1, 466334, Note_on_c, 0, 39, 80
1, 466335, Note_off_c, 0, 35, 55
1, 466340, Note_off_c, 0, 36, 62
1, 466427, Note_on_c, 0, 37, 77
1, 466437, Note_off_c, 0, 39, 61
1, 466437, Poly_aftertouch_c, 0, 39, 0
1, 466519, Note_on_c, 0, 36, 77
1, 466537, Note_on_c, 0, 79, 95
1, 466541, Note_on_c, 0, 70, 95
1, 466543, Note_on_c, 0, 67, 89
1, 466571, Note_off_c, 0, 67, 71
1, 466580, Poly_aftertouch_c, 0, 35, 0
1, 466591, Note_off_c, 0, 79, 63
1, 466591, Poly_aftertouch_c, 0, 79, 0
1, 466606, Note_off_c, 0, 70, 63
1, 466612, Note_on_c, 0, 34, 78
1, 466613, Note_off_c, 0, 37, 48
1, 466660, Note_off_c, 0, 36, 61
1, 466725, Note_on_c, 0, 32, 88
1, 466731, Note_on_c, 0, 72, 94
1, 466732, Note_on_c, 0, 68, 100
1, 466733, Note_on_c, 0, 80, 98
1, 466765, Note_off_c, 0, 34, 62
1, 466771, Control_c, 0, 64, 62
1, 466773, Control_c, 0, 67, 28
1, 466778, Note_off_c, 0, 68, 67
1, 466778, Note_off_c, 0, 72, 67
1, 466778, Poly_aftertouch_c, 0, 68, 0
1, 466783, Note_off_c, 0, 80, 64
1, 466791, Note_on_c, 0, 36, 82
1, 466791, Control_c, 0, 64, 127
1, 466792, Control_c, 0, 67, 56
1, 466808, Control_c, 0, 67, 47
1, 466828, Control_c, 0, 64, 114
1, 466829, Control_c, 0, 67, 21
1, 466846, Control_c, 0, 64, 71
1, 466848, Control_c, 0, 67, 0
1, 466860, Poly_aftertouch_c, 0, 75, 0
1, 466864, Control_c, 0, 64, 0
1, 466865, Note_off_c, 0, 32, 59
1, 466865, Poly_aftertouch_c, 0, 32, 0
1, 466908, Note_on_c, 0, 39, 77
1, 466919, Note_off_c, 0, 36, 63
1, 466997, Note_on_c, 0, 37, 77
1, 467006, Note_off_c, 0, 39, 61
1, 467006, Poly_aftertouch_c, 0, 39, 0
1, 467107, Note_on_c, 0, 36, 84
1, 467118, Note_on_c, 0, 67, 92
1, 467120, Note_on_c, 0, 55, 93
1, 467121, Note_on_c, 0, 58, 92
1, 467150, Note_off_c, 0, 55, 67
1, 467162, Note_off_c, 0, 67, 60
1, 467172, Note_off_c, 0, 58, 60
1, 467187, Note_off_c, 0, 37, 53
1, 467202, Note_on_c, 0, 34, 77
1, 467238, Note_off_c, 0, 36, 59
1, 467304, Note_off_c, 0, 34, 62
1, 467341, Note_on_c, 0, 68, 92
1, 467341, Note_on_c, 0, 60, 87
1, 467346, Note_on_c, 0, 56, 93
1, 467349, Control_c, 0, 64, 60
1, 467350, Control_c, 0, 67, 8
1, 467353, Note_on_c, 0, 32, 99
1, 467369, Control_c, 0, 64, 127
1, 467371, Control_c, 0, 67, 22
1, 467388, Control_c, 0, 67, 28
1, 467402, Note_off_c, 0, 32, 63
1, 467402, Poly_aftertouch_c, 0, 32, 0
1, 467406, Control_c, 0, 67, 42
1, 467426, Control_c, 0, 67, 67
1, 467439, Note_off_c, 0, 68, 64
1, 467439, Poly_aftertouch_c, 0, 68, 0
1, 467443, Control_c, 0, 67, 93
1, 467453, Note_off_c, 0, 60, 62
1, 467453, Poly_aftertouch_c, 0, 60, 0
1, 467462, Control_c, 0, 67, 114
1, 467482, Control_c, 0, 64, 82
1, 467483, Control_c, 0, 67, 124
1, 467488, Note_off_c, 0, 56, 59
1, 467496, Poly_aftertouch_c, 0, 31, 0
1, 467499, Control_c, 0, 64, 0
1, 467829, Note_on_c, 0, 60, 61
1, 467874, Note_off_c, 0, 60, 61
1, 467874, Poly_aftertouch_c, 0, 60, 0
1, 467889, Poly_aftertouch_c, 0, 56, 0
1, 467897, Note_on_c, 0, 58, 35
1, 467912, Note_on_c, 0, 61, 51
1, 467937, Note_off_c, 0, 58, 49
1, 467946, Note_off_c, 0, 61, 57
1, 468006, Note_on_c, 0, 32, 68
1, 468007, Note_on_c, 0, 63, 64
1, 468011, Note_on_c, 0, 60, 60
1, 468039, Note_off_c, 0, 32, 63
1, 468039, Poly_aftertouch_c, 0, 32, 0
1, 468201, Note_on_c, 0, 44, 62
1, 468238, Note_off_c, 0, 44, 63
1, 468238, Poly_aftertouch_c, 0, 44, 0
1, 468413, Note_on_c, 0, 61, 52
1, 468417, Note_on_c, 0, 65, 56
1, 468419, Note_off_c, 0, 63, 60
1, 468419, Poly_aftertouch_c, 0, 63, 0
1, 468489, Note_off_c, 0, 60, 57
1, 468489, Poly_aftertouch_c, 0, 60, 0
1, 468530, Note_off_c, 0, 61, 50
1, 468547, Control_c, 0, 67, 115
1, 468567, Control_c, 0, 67, 105
1, 468584, Control_c, 0, 67, 90
1, 468603, Control_c, 0, 67, 70
1, 468609, Note_off_c, 0, 65, 59
1, 468610, Note_on_c, 0, 32, 64
1, 468614, Note_on_c, 0, 66, 57
1, 468616, Note_on_c, 0, 63, 58
1, 468621, Control_c, 0, 67, 48
1, 468641, Control_c, 0, 67, 24
1, 468654, Note_off_c, 0, 32, 60
1, 468654, Poly_aftertouch_c, 0, 32, 0
1, 468658, Control_c, 0, 67, 0
1, 468678, Control_c, 0, 64, 19
1, 468697, Control_c, 0, 64, 25
1, 468718, Note_off_c, 0, 63, 63
1, 468718, Poly_aftertouch_c, 0, 63, 0
1, 468731, Note_off_c, 0, 66, 64
1, 468736, Control_c, 0, 64, 30
1, 468772, Control_c, 0, 64, 0
1, 468805, Note_on_c, 0, 44, 79
1, 468837, Note_off_c, 0, 44, 66
1, 468837, Poly_aftertouch_c, 0, 44, 0
1, 468994, Note_on_c, 0, 66, 101
1, 468995, Note_on_c, 0, 63, 97
1, 469014, Control_c, 0, 64, 13
1, 469033, Control_c, 0, 64, 72
1, 469052, Control_c, 0, 64, 101
1, 469071, Control_c, 0, 64, 127
1, 469086, Note_off_c, 0, 66, 63
1, 469102, Note_off_c, 0, 63, 59
1, 469102, Poly_aftertouch_c, 0, 63, 0
1, 469181, Note_on_c, 0, 72, 95
1, 469186, Note_on_c, 0, 66, 83
1, 469187, Note_on_c, 0, 32, 86
1, 469202, Control_c, 0, 64, 87
1, 469212, Note_off_c, 0, 66, 73
1, 469223, Note_off_c, 0, 32, 66
1, 469223, Poly_aftertouch_c, 0, 32, 0
1, 469234, Note_off_c, 0, 72, 63
1, 469238, Control_c, 0, 64, 0
1, 469374, Note_on_c, 0, 72, 91
1, 469375, Note_on_c, 0, 75, 95
1, 469382, Note_on_c, 0, 44, 73
1, 469406, Note_off_c, 0, 72, 64
1, 469424, Note_off_c, 0, 44, 65
1, 469424, Poly_aftertouch_c, 0, 44, 0
1, 469426, Note_off_c, 0, 75, 63
1, 469566, Note_on_c, 0, 78, 96
1, 469566, Note_on_c, 0, 75, 100
1, 469571, Note_on_c, 0, 32, 79
1, 469629, Note_off_c, 0, 32, 57
1, 469629, Poly_aftertouch_c, 0, 32, 0
1, 469747, Note_on_c, 0, 33, 81
1, 469762, Note_on_c, 0, 35, 70
1, 469800, Control_c, 0, 64, 20
1, 469801, Control_c, 0, 67, 11
1, 469802, Note_off_c, 0, 78, 60
1, 469805, Note_off_c, 0, 35, 48
1, 469820, Control_c, 0, 64, 0
1, 469822, Control_c, 0, 67, 18
1, 469837, Control_c, 0, 67, 26
1, 469855, Control_c, 0, 67, 35
1, 469875, Control_c, 0, 67, 46
1, 469889, Note_off_c, 0, 33, 59
1, 469892, Control_c, 0, 67, 57
1, 469913, Control_c, 0, 67, 69
1, 469927, Note_on_c, 0, 77, 77
1, 469930, Control_c, 0, 67, 82
1, 469936, Note_off_c, 0, 75, 31
1, 469942, Note_on_c, 0, 74, 67
1, 469944, Note_on_c, 0, 34, 77
1, 469949, Control_c, 0, 67, 98
1, 469954, Note_off_c, 0, 77, 69
1, 469967, Note_off_c, 0, 74, 66
1, 469967, Control_c, 0, 67, 118
1, 469987, Control_c, 0, 67, 127
1, 470005, Note_off_c, 0, 34, 59
1, 470151, Note_on_c, 0, 62, 67
1, 470158, Note_on_c, 0, 58, 52
1, 470198, Note_off_c, 0, 58, 63
1, 470218, Note_on_c, 0, 63, 72
1, 470220, Note_off_c, 0, 62, 60
1, 470249, Note_off_c, 0, 63, 70
1, 470249, Poly_aftertouch_c, 0, 63, 0
1, 470312, Note_on_c, 0, 34, 69
1, 470326, Note_on_c, 0, 65, 66
1, 470331, Note_on_c, 0, 62, 57
1, 470361, Note_off_c, 0, 34, 63
1, 470380, Control_c, 0, 67, 120
1, 470399, Control_c, 0, 67, 116
1, 470435, Control_c, 0, 67, 110
1, 470474, Control_c, 0, 67, 105
1, 470508, Note_on_c, 0, 46, 69
1, 470510, Control_c, 0, 67, 100
1, 470547, Note_off_c, 0, 46, 63
1, 470547, Poly_aftertouch_c, 0, 46, 0
1, 470549, Control_c, 0, 67, 94
1, 470604, Control_c, 0, 67, 89
1, 470641, Control_c, 0, 67, 83
1, 470661, Control_c, 0, 67, 78
1, 470679, Control_c, 0, 67, 74
1, 470697, Control_c, 0, 67, 70
1, 470714, Note_on_c, 0, 64, 56
1, 470714, Note_on_c, 0, 67, 63
1, 470716, Control_c, 0, 67, 64
1, 470735, Control_c, 0, 67, 57
1, 470754, Note_off_c, 0, 65, 60
1, 470755, Control_c, 0, 67, 48
1, 470768, Note_off_c, 0, 62, 54
1, 470771, Control_c, 0, 67, 38
1, 470791, Control_c, 0, 67, 27
1, 470811, Control_c, 0, 67, 15
1, 470850, Note_off_c, 0, 64, 52
1, 470850, Poly_aftertouch_c, 0, 64, 0
1, 470884, Control_c, 0, 67, 0
1, 470906, Note_on_c, 0, 68, 71
1, 470912, Note_on_c, 0, 65, 64
1, 470913, Note_on_c, 0, 34, 59
1, 470941, Control_c, 0, 64, 24
1, 470953, Note_off_c, 0, 34, 62
1, 470959, Control_c, 0, 64, 40
1, 470978, Control_c, 0, 64, 52
1, 470984, Note_off_c, 0, 67, 57
1, 470996, Control_c, 0, 64, 60
1, 471003, Note_off_c, 0, 65, 63
1, 471016, Control_c, 0, 64, 65
1, 471024, Note_off_c, 0, 68, 63
1, 471024, Poly_aftertouch_c, 0, 68, 0
1, 471033, Control_c, 0, 64, 68
1, 471072, Control_c, 0, 64, 70
1, 471091, Control_c, 0, 64, 68
1, 471096, Note_on_c, 0, 46, 85
1, 471109, Control_c, 0, 64, 58
1, 471128, Control_c, 0, 64, 32
1, 471132, Note_off_c, 0, 46, 67
1, 471132, Poly_aftertouch_c, 0, 46, 0
1, 471146, Control_c, 0, 64, 0
1, 471281, Note_on_c, 0, 65, 93
1, 471283, Note_on_c, 0, 68, 95
1, 471296, Control_c, 0, 64, 53
1, 471316, Control_c, 0, 64, 85
1, 471333, Control_c, 0, 64, 108
1, 471353, Control_c, 0, 64, 127
1, 471380, Note_off_c, 0, 68, 62
1, 471380, Poly_aftertouch_c, 0, 68, 0
1, 471463, Note_on_c, 0, 74, 91
1, 471463, Control_c, 0, 64, 90
1, 471465, Note_on_c, 0, 68, 74
1, 471466, Note_off_c, 0, 65, 57
1, 471467, Note_on_c, 0, 34, 89
1, 471483, Control_c, 0, 64, 52
1, 471493, Note_off_c, 0, 68, 72
1, 471493, Poly_aftertouch_c, 0, 68, 0
1, 471501, Control_c, 0, 64, 0
1, 471505, Note_off_c, 0, 34, 66
1, 471506, Note_off_c, 0, 74, 60
1, 471652, Note_on_c, 0, 74, 86
1, 471653, Note_on_c, 0, 77, 94
1, 471667, Note_on_c, 0, 46, 79
1, 471696, Note_off_c, 0, 74, 63
1, 471705, Note_off_c, 0, 77, 61
1, 471720, Note_off_c, 0, 46, 58
1, 471720, Poly_aftertouch_c, 0, 46, 0
1, 471727, Note_on_c, 0, 34, 32
1, 471728, Note_off_c, 0, 34, 127
1, 471790, Poly_aftertouch_c, 0, 34, 0
1, 471837, Note_on_c, 0, 80, 99
1, 471842, Note_on_c, 0, 77, 97
1, 471851, Note_on_c, 0, 34, 92
1, 471925, Note_off_c, 0, 34, 63
1, 472025, Control_c, 0, 67, 9
1, 472027, Note_on_c, 0, 35, 94
1, 472058, Note_off_c, 0, 80, 62
1, 472064, Control_c, 0, 67, 13
1, 472100, Control_c, 0, 67, 18
1, 472118, Control_c, 0, 67, 23
1, 472137, Control_c, 0, 67, 30
1, 472156, Control_c, 0, 67, 39
1, 472167, Note_off_c, 0, 35, 59
1, 472173, Control_c, 0, 67, 49
1, 472193, Control_c, 0, 67, 59
1, 472213, Control_c, 0, 67, 70
1, 472214, Note_off_c, 0, 77, 45
1, 472219, Note_on_c, 0, 79, 74
1, 472223, Note_on_c, 0, 36, 83
1, 472226, Note_on_c, 0, 76, 72
1, 472232, Control_c, 0, 67, 85
1, 472246, Note_off_c, 0, 79, 69
1, 472246, Poly_aftertouch_c, 0, 79, 0
1, 472248, Control_c, 0, 67, 103
1, 472251, Note_off_c, 0, 76, 72
1, 472267, Control_c, 0, 67, 121
1, 472287, Control_c, 0, 67, 127
1, 472333, Note_off_c, 0, 36, 60
1, 472435, Note_on_c, 0, 64, 61
1, 472471, Note_on_c, 0, 60, 6
1, 472474, Note_off_c, 0, 64, 62
1, 472474, Poly_aftertouch_c, 0, 64, 0
1, 472517, Note_on_c, 0, 65, 57
1, 472531, Note_off_c, 0, 60, 29
1, 472531, Poly_aftertouch_c, 0, 60, 0
1, 472547, Note_off_c, 0, 65, 62
1, 472595, Note_on_c, 0, 64, 68
1, 472596, Note_on_c, 0, 67, 63
1, 472600, Note_on_c, 0, 36, 60
1, 472658, Note_off_c, 0, 36, 60
1, 472779, Note_on_c, 0, 48, 57
1, 472820, Note_off_c, 0, 48, 65
1, 472986, Note_on_c, 0, 65, 47
1, 472998, Note_on_c, 0, 68, 54
1, 473011, Note_off_c, 0, 67, 60
1, 473041, Note_off_c, 0, 64, 53
1, 473041, Poly_aftertouch_c, 0, 64, 0
1, 473116, Note_off_c, 0, 65, 58
1, 473193, Note_on_c, 0, 70, 61
1, 473197, Note_on_c, 0, 36, 51
1, 473204, Control_c, 0, 67, 119
1, 473211, Note_on_c, 0, 67, 52
1, 473222, Control_c, 0, 67, 112
1, 473241, Control_c, 0, 67, 103
1, 473249, Note_off_c, 0, 36, 60
1, 473260, Control_c, 0, 64, 22
1, 473261, Control_c, 0, 67, 91
1, 473278, Control_c, 0, 64, 39
1, 473279, Control_c, 0, 67, 75
1, 473297, Control_c, 0, 64, 51
1, 473300, Control_c, 0, 67, 55
1, 473314, Note_off_c, 0, 70, 59
1, 473314, Control_c, 0, 64, 59
1, 473316, Control_c, 0, 67, 37
1, 473336, Control_c, 0, 64, 64
1, 473337, Note_off_c, 0, 67, 62
1, 473337, Control_c, 0, 67, 21
1, 473349, Note_off_c, 0, 68, 25
1, 473349, Poly_aftertouch_c, 0, 68, 0
1, 473353, Control_c, 0, 64, 66
1, 473372, Control_c, 0, 64, 67
1, 473373, Control_c, 0, 67, 0
1, 473381, Note_on_c, 0, 48, 74
1, 473420, Note_off_c, 0, 48, 64
1, 473485, Control_c, 0, 64, 66
1, 473502, Control_c, 0, 64, 61
1, 473521, Control_c, 0, 64, 53
1, 473539, Control_c, 0, 64, 41
1, 473559, Control_c, 0, 64, 12
1, 473563, Note_on_c, 0, 64, 81
1, 473577, Control_c, 0, 64, 0
1, 473584, Note_on_c, 0, 60, 52
1, 473615, Note_off_c, 0, 60, 59
1, 473615, Poly_aftertouch_c, 0, 60, 0
1, 473618, Note_off_c, 0, 64, 61
1, 473618, Poly_aftertouch_c, 0, 64, 0
1, 473658, Note_on_c, 0, 64, 57
1, 473661, Note_on_c, 0, 65, 83
1, 473684, Note_off_c, 0, 64, 65
1, 473684, Poly_aftertouch_c, 0, 64, 0
1, 473708, Control_c, 0, 64, 16
1, 473726, Control_c, 0, 64, 56
1, 473739, Note_on_c, 0, 67, 96
1, 473743, Note_on_c, 0, 64, 97
1, 473745, Control_c, 0, 64, 77
1, 473754, Note_on_c, 0, 36, 88
1, 473764, Control_c, 0, 64, 92
1, 473773, Note_off_c, 0, 64, 69
1, 473773, Poly_aftertouch_c, 0, 64, 0
1, 473783, Control_c, 0, 64, 105
1, 473789, Note_off_c, 0, 67, 65
1, 473807, Note_off_c, 0, 36, 60
1, 473820, Control_c, 0, 64, 95
1, 473836, Note_off_c, 0, 65, 23
1, 473839, Control_c, 0, 64, 71
1, 473857, Control_c, 0, 64, 40
1, 473876, Control_c, 0, 64, 0
1, 473936, Note_on_c, 0, 60, 78
1, 473940, Note_on_c, 0, 64, 80
1, 473958, Note_on_c, 0, 48, 71
1, 473985, Note_off_c, 0, 64, 64
1, 473985, Poly_aftertouch_c, 0, 64, 0
1, 473987, Note_off_c, 0, 60, 63
1, 473987, Poly_aftertouch_c, 0, 60, 0
1, 474007, Control_c, 0, 64, 29
1, 474009, Note_off_c, 0, 48, 60
1, 474025, Control_c, 0, 64, 42
1, 474029, Note_on_c, 0, 65, 80
1, 474045, Control_c, 0, 64, 48
1, 474062, Note_off_c, 0, 65, 66
1, 474063, Control_c, 0, 64, 51
1, 474102, Control_c, 0, 64, 55
1, 474119, Note_on_c, 0, 67, 77
1, 474123, Note_on_c, 0, 64, 78
1, 474138, Control_c, 0, 64, 58
1, 474144, Note_on_c, 0, 65, 54
1, 474154, Note_off_c, 0, 64, 68
1, 474154, Poly_aftertouch_c, 0, 64, 0
1, 474170, Note_off_c, 0, 65, 63
1, 474170, Note_off_c, 0, 67, 63
1, 474175, Control_c, 0, 64, 60
1, 474210, Note_on_c, 0, 68, 93
1, 474237, Note_on_c, 0, 67, 31
1, 474285, Note_on_c, 0, 70, 95
1, 474294, Note_on_c, 0, 36, 91
1, 474312, Note_off_c, 0, 68, 66
1, 474312, Poly_aftertouch_c, 0, 68, 0
1, 474324, Control_c, 0, 64, 56
1, 474330, Note_off_c, 0, 67, 64
1, 474339, Note_off_c, 0, 70, 65
1, 474343, Control_c, 0, 64, 46
1, 474363, Control_c, 0, 64, 27
1, 474364, Note_off_c, 0, 36, 61
1, 474382, Control_c, 0, 64, 0
1, 474485, Note_on_c, 0, 64, 77
1, 474491, Note_on_c, 0, 67, 78
1, 474495, Note_on_c, 0, 48, 68
1, 474529, Note_off_c, 0, 64, 65
1, 474529, Poly_aftertouch_c, 0, 64, 0
1, 474533, Note_off_c, 0, 48, 64
1, 474543, Note_off_c, 0, 67, 61
1, 474569, Note_on_c, 0, 68, 67
1, 474597, Note_off_c, 0, 68, 66
1, 474597, Poly_aftertouch_c, 0, 68, 0
1, 474600, Note_on_c, 0, 69, 60
1, 474623, Note_off_c, 0, 69, 60
1, 474623, Poly_aftertouch_c, 0, 69, 0
1, 474623, Control_c, 0, 64, 14
1, 474641, Note_on_c, 0, 67, 75
1, 474643, Control_c, 0, 64, 25
1, 474662, Control_c, 0, 64, 34
1, 474667, Note_on_c, 0, 70, 80
1, 474681, Control_c, 0, 64, 41
1, 474699, Control_c, 0, 64, 46
1, 474718, Control_c, 0, 64, 51
1, 474732, Note_on_c, 0, 68, 15
1, 474733, Note_off_c, 0, 67, 50
1, 474734, Control_c, 0, 64, 53
1, 474741, Note_on_c, 0, 72, 77
1, 474774, Control_c, 0, 64, 50
1, 474779, Note_off_c, 0, 68, 47
1, 474779, Poly_aftertouch_c, 0, 68, 0
1, 474781, Note_off_c, 0, 70, 64
1, 474792, Control_c, 0, 64, 37
1, 474811, Control_c, 0, 64, 0
1, 474827, Note_on_c, 0, 70, 70
1, 474829, Note_on_c, 0, 73, 91
1, 474848, Note_on_c, 0, 48, 83
1, 474850, Control_c, 0, 67, 11
1, 474851, Note_on_c, 0, 68, 50
1, 474861, Note_off_c, 0, 72, 63
1, 474866, Control_c, 0, 67, 18
1, 474867, Note_off_c, 0, 70, 68
1, 474883, Note_off_c, 0, 68, 59
1, 474883, Poly_aftertouch_c, 0, 68, 0
1, 474886, Control_c, 0, 67, 30
1, 474889, Note_off_c, 0, 73, 62
1, 474905, Control_c, 0, 67, 44
1, 474913, Note_off_c, 0, 48, 62
1, 474923, Control_c, 0, 67, 55
1, 474941, Control_c, 0, 67, 62
1, 474962, Control_c, 0, 67, 67
1, 474998, Control_c, 0, 67, 72
1, 475054, Note_on_c, 0, 60, 65
1, 475055, Control_c, 0, 67, 79
1, 475073, Control_c, 0, 67, 84
1, 475090, Note_off_c, 0, 60, 67
1, 475090, Poly_aftertouch_c, 0, 60, 0
1, 475091, Control_c, 0, 67, 90
1, 475107, Poly_aftertouch_c, 0, 66, 0
1, 475109, Control_c, 0, 67, 94
1, 475129, Control_c, 0, 67, 98
1, 475167, Control_c, 0, 67, 105
1, 475204, Control_c, 0, 67, 109
1, 475233, Note_on_c, 0, 70, 71
1, 475237, Note_on_c, 0, 67, 65
1, 475240, Control_c, 0, 67, 114
1, 475274, Note_off_c, 0, 67, 66
1, 475280, Control_c, 0, 67, 118
1, 475283, Note_off_c, 0, 70, 59
1, 475335, Control_c, 0, 67, 123
1, 475391, Control_c, 0, 67, 127
1, 475442, Note_on_c, 0, 64, 54
1, 475443, Note_on_c, 0, 67, 46
1, 475444, Note_on_c, 0, 48, 48
1, 475483, Note_off_c, 0, 67, 55
1, 475485, Note_off_c, 0, 48, 58
1, 475492, Note_off_c, 0, 64, 57
1, 475492, Poly_aftertouch_c, 0, 64, 0
1, 475633, Note_on_c, 0, 60, 46
1, 475669, Note_off_c, 0, 60, 56
1, 475669, Poly_aftertouch_c, 0, 60, 0
1, 475816, Note_on_c, 0, 70, 50
1, 475825, Note_on_c, 0, 67, 42
1, 475853, Note_off_c, 0, 70, 60
1, 475861, Note_off_c, 0, 67, 54
1, 475991, Note_on_c, 0, 70, 45
1, 476010, Note_on_c, 0, 48, 44
1, 476019, Note_on_c, 0, 73, 46
1, 476020, Note_on_c, 0, 67, 18
1, 476055, Note_off_c, 0, 70, 57
1, 476057, Note_off_c, 0, 48, 53
1, 476071, Note_off_c, 0, 73, 55
1, 476083, Note_off_c, 0, 67, 41
1, 476210, Note_on_c, 0, 60, 38
1, 476253, Note_off_c, 0, 60, 51
1, 476253, Poly_aftertouch_c, 0, 60, 0
1, 476382, Note_on_c, 0, 70, 55
1, 476383, Note_on_c, 0, 67, 52
1, 476430, Note_off_c, 0, 70, 63
1, 476430, Note_off_c, 0, 67, 62
1, 476569, Note_on_c, 0, 67, 50
1, 476576, Note_on_c, 0, 48, 39
1, 476587, Note_on_c, 0, 64, 46
1, 476623, Note_off_c, 0, 48, 52
1, 476628, Note_off_c, 0, 67, 56
1, 476676, Note_off_c, 0, 64, 42
1, 476676, Poly_aftertouch_c, 0, 64, 0
1, 476718, Control_c, 0, 67, 120
1, 476737, Control_c, 0, 67, 113
1, 476755, Control_c, 0, 67, 102
1, 476769, Note_on_c, 0, 60, 49
1, 476773, Control_c, 0, 67, 89
1, 476794, Control_c, 0, 67, 75
1, 476811, Control_c, 0, 67, 61
1, 476818, Note_off_c, 0, 60, 60
1, 476818, Poly_aftertouch_c, 0, 60, 0
1, 476831, Control_c, 0, 67, 48
1, 476849, Control_c, 0, 67, 36
1, 476868, Control_c, 0, 67, 25
1, 476887, Control_c, 0, 64, 13
1, 476888, Control_c, 0, 67, 18
1, 476905, Control_c, 0, 64, 25
1, 476907, Control_c, 0, 67, 12
1, 476924, Control_c, 0, 64, 33
1, 476942, Control_c, 0, 64, 40
1, 476953, Note_on_c, 0, 67, 60
1, 476953, Note_on_c, 0, 70, 62
1, 476961, Control_c, 0, 64, 44
1, 476980, Control_c, 0, 64, 47
1, 477000, Control_c, 0, 64, 49
1, 477003, Note_off_c, 0, 70, 60
1, 477005, Note_off_c, 0, 67, 63
1, 477037, Control_c, 0, 64, 51
1, 477074, Control_c, 0, 64, 49
1, 477092, Control_c, 0, 64, 43
1, 477112, Control_c, 0, 64, 29
1, 477130, Control_c, 0, 64, 0
1, 477138, Note_on_c, 0, 52, 53
1, 477138, Note_on_c, 0, 73, 68
1, 477139, Note_on_c, 0, 70, 62
1, 477155, Note_on_c, 0, 67, 56
1, 477299, Control_c, 0, 64, 21
1, 477317, Control_c, 0, 64, 34
1, 477335, Note_on_c, 0, 64, 66
1, 477335, Control_c, 0, 64, 43
1, 477353, Control_c, 0, 64, 51
1, 477373, Control_c, 0, 64, 58
1, 477389, Note_off_c, 0, 73, 55
1, 477390, Control_c, 0, 64, 63
1, 477410, Control_c, 0, 64, 64
1, 477424, Note_off_c, 0, 67, 54
1, 477424, Note_off_c, 0, 70, 56
1, 477449, Control_c, 0, 64, 65
1, 477456, Note_off_c, 0, 52, 37
1, 477504, Control_c, 0, 64, 66
1, 477526, Note_on_c, 0, 72, 70
1, 477544, Note_on_c, 0, 67, 56
1, 477598, Note_off_c, 0, 67, 56
1, 477627, Note_off_c, 0, 72, 59
1, 477672, Control_c, 0, 64, 64
1, 477673, Control_c, 0, 67, 18
1, 477691, Control_c, 0, 64, 62
1, 477692, Control_c, 0, 67, 22
1, 477709, Control_c, 0, 64, 58
1, 477710, Control_c, 0, 67, 28
1, 477717, Note_off_c, 0, 64, 25
1, 477717, Poly_aftertouch_c, 0, 64, 0
1, 477722, Note_on_c, 0, 73, 67
1, 477723, Note_on_c, 0, 52, 60
1, 477727, Control_c, 0, 64, 50
1, 477728, Control_c, 0, 67, 35
1, 477743, Note_on_c, 0, 70, 51
1, 477746, Control_c, 0, 64, 35
1, 477746, Control_c, 0, 67, 42
1, 477763, Note_on_c, 0, 67, 29
1, 477764, Control_c, 0, 64, 0
1, 477765, Control_c, 0, 67, 50
1, 477785, Control_c, 0, 67, 58
1, 477804, Control_c, 0, 67, 66
1, 477822, Control_c, 0, 67, 73
1, 477840, Control_c, 0, 67, 78
1, 477877, Control_c, 0, 67, 83
1, 477915, Note_off_c, 0, 67, 38
1, 477916, Control_c, 0, 64, 19
1, 477917, Control_c, 0, 67, 90
1, 477923, Note_on_c, 0, 64, 51
1, 477935, Control_c, 0, 64, 33
1, 477951, Note_off_c, 0, 52, 47
1, 477951, Control_c, 0, 64, 44
1, 477952, Control_c, 0, 67, 96
1, 477963, Note_off_c, 0, 73, 54
1, 477970, Control_c, 0, 64, 51
1, 477991, Control_c, 0, 64, 57
1, 477994, Control_c, 0, 67, 101
1, 477998, Note_off_c, 0, 70, 38
1, 478009, Control_c, 0, 64, 60
1, 478027, Control_c, 0, 64, 62
1, 478046, Control_c, 0, 67, 105
1, 478101, Control_c, 0, 64, 63
1, 478101, Control_c, 0, 67, 110
1, 478106, Note_on_c, 0, 72, 48
1, 478111, Note_on_c, 0, 67, 52
1, 478140, Control_c, 0, 67, 114
1, 478161, Note_off_c, 0, 67, 61
1, 478196, Control_c, 0, 67, 119
1, 478199, Note_off_c, 0, 72, 42
1, 478241, Note_off_c, 0, 64, 36
1, 478241, Poly_aftertouch_c, 0, 64, 0
1, 478251, Control_c, 0, 64, 61
1, 478271, Control_c, 0, 64, 57
1, 478287, Note_on_c, 0, 52, 43
1, 478288, Control_c, 0, 64, 51
1, 478304, Note_on_c, 0, 67, 47
1, 478307, Control_c, 0, 64, 34
1, 478310, Note_on_c, 0, 73, 51
1, 478313, Note_on_c, 0, 70, 45
1, 478328, Control_c, 0, 64, 0
1, 478457, Control_c, 0, 64, 18
1, 478476, Control_c, 0, 64, 34
1, 478495, Control_c, 0, 64, 44
1, 478505, Note_off_c, 0, 73, 52
1, 478506, Note_on_c, 0, 64, 41
1, 478513, Control_c, 0, 64, 52
1, 478516, Note_off_c, 0, 70, 51
1, 478531, Note_off_c, 0, 67, 37
1, 478532, Control_c, 0, 64, 58
1, 478539, Note_off_c, 0, 52, 36
1, 478551, Control_c, 0, 64, 61
1, 478569, Control_c, 0, 64, 63
1, 478590, Control_c, 0, 64, 64
1, 478626, Control_c, 0, 64, 65
1, 478672, Note_on_c, 0, 67, 53
1, 478684, Note_on_c, 0, 72, 46
1, 478757, Note_off_c, 0, 67, 60
1, 478775, Control_c, 0, 64, 61
1, 478783, Note_off_c, 0, 64, 27
1, 478783, Poly_aftertouch_c, 0, 64, 0
1, 478794, Control_c, 0, 64, 52
1, 478805, Note_off_c, 0, 72, 39
1, 478813, Control_c, 0, 64, 33
1, 478831, Control_c, 0, 64, 0
1, 478852, Note_on_c, 0, 52, 39
1, 478878, Note_on_c, 0, 73, 50
1, 478893, Note_on_c, 0, 70, 45
1, 478898, Note_on_c, 0, 67, 40
1, 478905, Control_c, 0, 67, 113
1, 478926, Control_c, 0, 64, 19
1, 478927, Control_c, 0, 67, 109
1, 478944, Control_c, 0, 64, 35
1, 478945, Control_c, 0, 67, 102
1, 478962, Control_c, 0, 64, 48
1, 478963, Control_c, 0, 67, 94
1, 478971, Note_off_c, 0, 52, 51
1, 478981, Control_c, 0, 64, 58
1, 478981, Control_c, 0, 67, 84
1, 479000, Control_c, 0, 64, 65
1, 479001, Control_c, 0, 67, 73
1, 479018, Control_c, 0, 64, 68
1, 479019, Control_c, 0, 67, 62
1, 479037, Control_c, 0, 67, 52
1, 479051, Note_off_c, 0, 70, 37
1, 479055, Control_c, 0, 67, 44
1, 479060, Note_on_c, 0, 64, 42
1, 479061, Note_off_c, 0, 73, 50
1, 479074, Control_c, 0, 64, 71
1, 479076, Control_c, 0, 67, 37
1, 479077, Note_off_c, 0, 67, 35
1, 479093, Control_c, 0, 67, 31
1, 479112, Control_c, 0, 64, 73
1, 479113, Control_c, 0, 67, 27
1, 479150, Control_c, 0, 64, 76
1, 479150, Control_c, 0, 67, 23
1, 479170, Note_off_c, 0, 64, 41
1, 479170, Poly_aftertouch_c, 0, 64, 0
1, 479205, Control_c, 0, 64, 78
1, 479243, Note_on_c, 0, 67, 39
1, 479244, Note_on_c, 0, 72, 47
1, 479281, Note_off_c, 0, 72, 54
1, 479298, Control_c, 0, 67, 27
1, 479299, Note_off_c, 0, 67, 47
1, 479354, Control_c, 0, 64, 74
1, 479357, Control_c, 0, 67, 32
1, 479373, Control_c, 0, 64, 69
1, 479374, Control_c, 0, 67, 36
1, 479393, Control_c, 0, 64, 61
1, 479394, Control_c, 0, 67, 42
1, 479411, Control_c, 0, 64, 52
1, 479413, Note_on_c, 0, 64, 55
1, 479413, Control_c, 0, 67, 47
1, 479428, Control_c, 0, 64, 39
1, 479430, Control_c, 0, 67, 53
1, 479436, Note_on_c, 0, 73, 32
1, 479441, Note_on_c, 0, 55, 13
1, 479447, Control_c, 0, 64, 20
1, 479449, Control_c, 0, 67, 60
1, 479467, Control_c, 0, 67, 67
1, 479486, Control_c, 0, 67, 75
1, 479505, Control_c, 0, 64, 13
1, 479506, Control_c, 0, 67, 83
1, 479523, Control_c, 0, 64, 24
1, 479524, Control_c, 0, 67, 90
1, 479543, Control_c, 0, 64, 34
1, 479544, Control_c, 0, 67, 98
1, 479547, Poly_aftertouch_c, 0, 70, 127
1, 479561, Control_c, 0, 64, 46
1, 479562, Control_c, 0, 67, 107
1, 479580, Control_c, 0, 64, 56
1, 479582, Control_c, 0, 67, 114
1, 479590, Note_off_c, 0, 73, 42
1, 479590, Poly_aftertouch_c, 0, 70, 0
1, 479599, Control_c, 0, 64, 64
1, 479601, Control_c, 0, 67, 118
1, 479616, Control_c, 0, 64, 68
1, 479618, Note_on_c, 0, 67, 43
1, 479635, Control_c, 0, 67, 122
1, 479642, Note_off_c, 0, 64, 39
1, 479642, Poly_aftertouch_c, 0, 64, 0
1, 479655, Control_c, 0, 64, 71
1, 479673, Control_c, 0, 64, 73
1, 479693, Poly_aftertouch_c, 0, 55, 24
1, 479710, Control_c, 0, 64, 77
1, 479740, Note_off_c, 0, 55, 36
1, 479740, Poly_aftertouch_c, 0, 55, 0
1, 479747, Control_c, 0, 64, 80
1, 479765, Control_c, 0, 64, 83
1, 479786, Note_on_c, 0, 64, 59
1, 479786, Control_c, 0, 64, 85
1, 479789, Note_on_c, 0, 72, 49
1, 479823, Control_c, 0, 64, 92
1, 479836, Note_on_c, 0, 70, 29
1, 479860, Control_c, 0, 64, 96
1, 479861, Note_off_c, 0, 72, 56
1, 479867, Note_off_c, 0, 64, 55
1, 479867, Poly_aftertouch_c, 0, 64, 0
1, 479872, Note_off_c, 0, 67, 34
1, 479882, Note_off_c, 0, 70, 44
1, 479953, Control_c, 0, 64, 88
1, 479973, Control_c, 0, 64, 73
1, 479984, Note_on_c, 0, 55, 53
1, 479984, Note_on_c, 0, 64, 59
1, 479992, Note_on_c, 0, 73, 51
1, 479992, Control_c, 0, 64, 57
1, 480008, Note_on_c, 0, 70, 46
1, 480011, Control_c, 0, 64, 46
1, 480028, Control_c, 0, 64, 39
1, 480046, Control_c, 0, 67, 116
1, 480066, Control_c, 0, 64, 43
1, 480085, Control_c, 0, 64, 50
1, 480086, Control_c, 0, 67, 108
1, 480103, Control_c, 0, 64, 59
1, 480104, Control_c, 0, 67, 102
1, 480122, Control_c, 0, 64, 67
1, 480124, Control_c, 0, 67, 94
1, 480140, Control_c, 0, 64, 71
1, 480140, Control_c, 0, 67, 87
1, 480159, Control_c, 0, 64, 74
1, 480160, Control_c, 0, 67, 80
1, 480178, Control_c, 0, 67, 72
1, 480192, Note_on_c, 0, 67, 49
1, 480197, Control_c, 0, 64, 77
1, 480199, Control_c, 0, 67, 66
1, 480202, Note_off_c, 0, 73, 37
1, 480208, Note_off_c, 0, 64, 35
1, 480208, Poly_aftertouch_c, 0, 64, 0
1, 480213, Control_c, 0, 67, 60
1, 480229, Note_off_c, 0, 70, 31
1, 480232, Control_c, 0, 64, 80
1, 480233, Control_c, 0, 67, 56
1, 480272, Control_c, 0, 64, 84
1, 480275, Control_c, 0, 67, 50
1, 480308, Control_c, 0, 64, 87
1, 480336, Note_off_c, 0, 55, 38
1, 480336, Poly_aftertouch_c, 0, 55, 0
1, 480362, Note_on_c, 0, 64, 59
1, 480368, Note_on_c, 0, 72, 56
1, 480381, Note_on_c, 0, 70, 47
1, 480402, Control_c, 0, 67, 54
1, 480432, Note_off_c, 0, 67, 32
1, 480435, Note_off_c, 0, 70, 59
1, 480446, Note_off_c, 0, 72, 59
1, 480450, Note_off_c, 0, 64, 52
1, 480450, Poly_aftertouch_c, 0, 64, 0
1, 480456, Control_c, 0, 67, 60
1, 480478, Control_c, 0, 67, 64
1, 480496, Control_c, 0, 67, 68
1, 480514, Control_c, 0, 67, 72
1, 480535, Control_c, 0, 64, 82
1, 480537, Control_c, 0, 67, 78
1, 480552, Control_c, 0, 64, 75
1, 480554, Control_c, 0, 67, 84
1, 480565, Note_on_c, 0, 64, 52
1, 480570, Control_c, 0, 64, 64
1, 480571, Control_c, 0, 67, 91
1, 480582, Note_on_c, 0, 55, 38
1, 480586, Note_on_c, 0, 73, 45
1, 480590, Control_c, 0, 64, 53
1, 480591, Note_on_c, 0, 70, 39
1, 480591, Control_c, 0, 67, 99
1, 480607, Control_c, 0, 64, 38
1, 480609, Control_c, 0, 67, 105
1, 480627, Control_c, 0, 64, 20
1, 480628, Control_c, 0, 67, 111
1, 480645, Control_c, 0, 64, 16
1, 480663, Control_c, 0, 67, 116
1, 480683, Control_c, 0, 64, 26
1, 480701, Control_c, 0, 64, 34
1, 480720, Control_c, 0, 64, 44
1, 480739, Control_c, 0, 64, 54
1, 480758, Control_c, 0, 64, 61
1, 480764, Note_off_c, 0, 73, 37
1, 480776, Control_c, 0, 64, 66
1, 480781, Note_on_c, 0, 67, 35
1, 480795, Control_c, 0, 64, 68
1, 480803, Note_off_c, 0, 64, 36
1, 480803, Poly_aftertouch_c, 0, 64, 0
1, 480812, Note_off_c, 0, 70, 40
1, 480832, Control_c, 0, 64, 70
1, 480841, Note_off_c, 0, 55, 49
1, 480841, Poly_aftertouch_c, 0, 55, 0
1, 480870, Control_c, 0, 64, 73
1, 480907, Control_c, 0, 64, 76
1, 480943, Control_c, 0, 64, 78
1, 480949, Note_on_c, 0, 64, 41
1, 480957, Note_on_c, 0, 72, 35
1, 480991, Note_on_c, 0, 70, 20
1, 481013, Note_off_c, 0, 67, 22
1, 481029, Note_off_c, 0, 64, 51
1, 481029, Poly_aftertouch_c, 0, 64, 0
1, 481052, Note_off_c, 0, 70, 42
1, 481061, Note_off_c, 0, 72, 38
1, 481094, Control_c, 0, 64, 76
1, 481112, Control_c, 0, 64, 72
1, 481132, Control_c, 0, 64, 64
1, 481142, Note_on_c, 0, 55, 34
1, 481150, Control_c, 0, 64, 54
1, 481168, Note_on_c, 0, 64, 28
1, 481168, Control_c, 0, 64, 44
1, 481171, Note_on_c, 0, 73, 40
1, 481188, Control_c, 0, 64, 36
1, 481212, Note_on_c, 0, 70, 14
1, 481243, Control_c, 0, 64, 42
1, 481262, Control_c, 0, 64, 49
1, 481281, Control_c, 0, 64, 57
1, 481284, Control_c, 0, 67, 111
1, 481295, Note_off_c, 0, 70, 46
1, 481300, Control_c, 0, 64, 65
1, 481301, Control_c, 0, 67, 107
1, 481319, Control_c, 0, 64, 69
1, 481320, Control_c, 0, 67, 100
1, 481337, Control_c, 0, 64, 71
1, 481338, Control_c, 0, 67, 92
1, 481346, Note_off_c, 0, 73, 42
1, 481354, Note_on_c, 0, 67, 32
1, 481356, Control_c, 0, 67, 84
1, 481362, Note_off_c, 0, 64, 40
1, 481362, Poly_aftertouch_c, 0, 64, 0
1, 481374, Control_c, 0, 64, 73
1, 481376, Control_c, 0, 67, 76
1, 481392, Control_c, 0, 67, 70
1, 481412, Control_c, 0, 64, 75
1, 481413, Control_c, 0, 67, 64
1, 481449, Control_c, 0, 67, 58
1, 481468, Control_c, 0, 64, 77
1, 481490, Note_off_c, 0, 55, 34
1, 481490, Poly_aftertouch_c, 0, 55, 0
1, 481524, Note_on_c, 0, 64, 39
1, 481525, Note_on_c, 0, 72, 44
1, 481580, Control_c, 0, 67, 63
1, 481617, Note_off_c, 0, 64, 41
1, 481617, Poly_aftertouch_c, 0, 64, 0
1, 481632, Note_off_c, 0, 72, 54
1, 481632, Poly_aftertouch_c, 0, 70, 0
1, 481633, Note_off_c, 0, 67, 36
1, 481636, Control_c, 0, 67, 69
1, 481674, Control_c, 0, 67, 74
1, 481693, Control_c, 0, 64, 75
1, 481711, Control_c, 0, 67, 81
1, 481730, Control_c, 0, 64, 72
1, 481731, Control_c, 0, 67, 85
1, 481738, Note_on_c, 0, 64, 37
1, 481738, Note_on_c, 0, 73, 45
1, 481748, Control_c, 0, 64, 69
1, 481749, Control_c, 0, 67, 89
1, 481757, Note_on_c, 0, 70, 40
1, 481767, Control_c, 0, 64, 65
1, 481768, Control_c, 0, 67, 94
1, 481786, Control_c, 0, 64, 61
1, 481787, Control_c, 0, 67, 99
1, 481805, Control_c, 0, 64, 56
1, 481807, Control_c, 0, 67, 103
1, 481823, Control_c, 0, 64, 51
1, 481844, Control_c, 0, 64, 47
1, 481846, Control_c, 0, 67, 109
1, 481847, Note_off_c, 0, 70, 48
1, 481861, Control_c, 0, 64, 42
1, 481879, Control_c, 0, 64, 36
1, 481880, Control_c, 0, 67, 113
1, 481898, Control_c, 0, 64, 31
1, 481915, Control_c, 0, 64, 26
1, 481918, Note_off_c, 0, 64, 34
1, 481918, Poly_aftertouch_c, 0, 64, 0
1, 481923, Note_on_c, 0, 55, 31
1, 481931, Note_off_c, 0, 73, 36
1, 481934, Control_c, 0, 67, 117
1, 482047, Control_c, 0, 64, 22
1, 482112, Note_off_c, 0, 55, 23
1, 482112, Poly_aftertouch_c, 0, 55, 0
1, 482115, Note_on_c, 0, 67, 27
1, 482189, Note_off_c, 0, 67, 42
1, 482298, Note_on_c, 0, 72, 38
1, 482311, Note_on_c, 0, 70, 37
1, 482314, Note_on_c, 0, 64, 29
1, 482459, Note_off_c, 0, 70, 37
1, 482480, Note_off_c, 0, 64, 35
1, 482480, Poly_aftertouch_c, 0, 64, 0
1, 482499, Note_off_c, 0, 72, 35
1, 482500, Note_on_c, 0, 55, 28
1, 482665, Control_c, 0, 64, 27
1, 482683, Control_c, 0, 67, 112
1, 482701, Note_on_c, 0, 67, 30
1, 482702, Control_c, 0, 64, 33
1, 482720, Control_c, 0, 67, 105
1, 482734, Note_off_c, 0, 55, 19
1, 482734, Poly_aftertouch_c, 0, 55, 0
1, 482740, Control_c, 0, 64, 41
1, 482740, Control_c, 0, 67, 99
1, 482759, Control_c, 0, 64, 46
1, 482760, Control_c, 0, 67, 92
1, 482777, Control_c, 0, 64, 51
1, 482778, Control_c, 0, 67, 83
1, 482783, Note_off_c, 0, 67, 40
1, 482795, Control_c, 0, 64, 54
1, 482796, Control_c, 0, 67, 74
1, 482814, Control_c, 0, 64, 57
1, 482815, Control_c, 0, 67, 65
1, 482833, Control_c, 0, 64, 59
1, 482834, Control_c, 0, 67, 57
1, 482852, Control_c, 0, 64, 60
1, 482853, Control_c, 0, 67, 50
1, 482871, Control_c, 0, 64, 61
1, 482872, Control_c, 0, 67, 44
1, 482880, Note_on_c, 0, 72, 44
1, 482890, Control_c, 0, 67, 39
1, 482897, Note_on_c, 0, 64, 34
1, 482901, Note_on_c, 0, 70, 37
1, 482908, Control_c, 0, 67, 34
1, 482945, Control_c, 0, 67, 28
1, 482965, Control_c, 0, 64, 60
1, 482982, Control_c, 0, 64, 58
1, 483001, Control_c, 0, 64, 56
1, 483019, Note_off_c, 0, 64, 38
1, 483019, Poly_aftertouch_c, 0, 64, 0
1, 483019, Control_c, 0, 64, 52
1, 483039, Control_c, 0, 64, 43
1, 483047, Note_on_c, 0, 55, 42
1, 483050, Note_off_c, 0, 70, 37
1, 483057, Control_c, 0, 64, 30
1, 483062, Note_off_c, 0, 72, 37
1, 483076, Control_c, 0, 64, 19
1, 483132, Control_c, 0, 64, 25
1, 483133, Control_c, 0, 67, 22
1, 483151, Control_c, 0, 64, 31
1, 483152, Control_c, 0, 67, 18
1, 483171, Control_c, 0, 64, 39
1, 483172, Control_c, 0, 67, 13
1, 483188, Control_c, 0, 64, 47
1, 483206, Control_c, 0, 64, 54
1, 483225, Control_c, 0, 64, 58
1, 483226, Control_c, 0, 67, 0
1, 483243, Control_c, 0, 64, 60
1, 483249, Note_on_c, 0, 67, 53
1, 483282, Control_c, 0, 64, 61
1, 483297, Note_off_c, 0, 55, 28
1, 483297, Poly_aftertouch_c, 0, 55, 0
1, 483322, Note_off_c, 0, 67, 56
1, 483376, Control_c, 0, 64, 62
1, 483412, Control_c, 0, 64, 64
1, 483431, Control_c, 0, 64, 65
1, 483435, Note_on_c, 0, 72, 59
1, 483440, Note_on_c, 0, 64, 59
1, 483449, Control_c, 0, 64, 66
1, 483453, Note_on_c, 0, 70, 57
1, 483468, Control_c, 0, 64, 68
1, 483482, Note_off_c, 0, 64, 62
1, 483482, Poly_aftertouch_c, 0, 64, 0
1, 483506, Control_c, 0, 64, 71
1, 483519, Note_off_c, 0, 72, 61
1, 483533, Note_off_c, 0, 70, 62
1, 483543, Control_c, 0, 64, 73
1, 483599, Control_c, 0, 64, 75
1, 483618, Note_on_c, 0, 55, 75
1, 483702, Note_off_c, 0, 55, 56
1, 483702, Poly_aftertouch_c, 0, 55, 0
1, 483768, Control_c, 0, 67, 8
1, 483792, Note_on_c, 0, 56, 75
1, 483804, Control_c, 0, 67, 15
1, 483824, Control_c, 0, 64, 73
1, 483826, Control_c, 0, 67, 21
1, 483843, Control_c, 0, 67, 28
1, 483862, Control_c, 0, 64, 70
1, 483864, Control_c, 0, 67, 35
1, 483879, Control_c, 0, 64, 67
1, 483880, Control_c, 0, 67, 40
1, 483885, Note_on_c, 0, 58, 76
1, 483890, Note_off_c, 0, 56, 61
1, 483898, Control_c, 0, 64, 63
1, 483899, Control_c, 0, 67, 46
1, 483917, Control_c, 0, 64, 58
1, 483918, Control_c, 0, 67, 54
1, 483935, Control_c, 0, 64, 52
1, 483937, Control_c, 0, 67, 61
1, 483955, Control_c, 0, 64, 43
1, 483956, Control_c, 0, 67, 67
1, 483977, Control_c, 0, 64, 30
1, 483978, Note_on_c, 0, 60, 73
1, 483978, Control_c, 0, 67, 71
1, 483979, Note_on_c, 0, 80, 69
1, 483984, Note_off_c, 0, 58, 64
1, 483984, Note_on_c, 0, 53, 66
1, 483997, Control_c, 0, 64, 0
1, 483998, Control_c, 0, 67, 75
1, 484010, Control_c, 0, 67, 80
1, 484029, Control_c, 0, 67, 85
1, 484049, Control_c, 0, 67, 90
1, 484059, Note_off_c, 0, 80, 63
1, 484072, Note_on_c, 0, 79, 71
1, 484086, Control_c, 0, 67, 96
1, 484169, Note_on_c, 0, 80, 75
1, 484178, Note_off_c, 0, 79, 61
1, 484178, Poly_aftertouch_c, 0, 79, 0
1, 484197, Control_c, 0, 64, 13
1, 484216, Control_c, 0, 64, 29
1, 484236, Control_c, 0, 64, 40
1, 484237, Control_c, 0, 67, 91
1, 484239, Note_on_c, 0, 84, 76
1, 484254, Control_c, 0, 64, 48
1, 484267, Note_off_c, 0, 80, 61
1, 484268, Note_off_c, 0, 53, 44
1, 484268, Poly_aftertouch_c, 0, 53, 0
1, 484271, Control_c, 0, 64, 52
1, 484271, Control_c, 0, 67, 84
1, 484292, Control_c, 0, 64, 55
1, 484293, Control_c, 0, 67, 77
1, 484311, Control_c, 0, 64, 58
1, 484312, Control_c, 0, 67, 68
1, 484320, Note_off_c, 0, 60, 48
1, 484320, Poly_aftertouch_c, 0, 60, 0
1, 484324, Note_on_c, 0, 62, 75
1, 484326, Note_on_c, 0, 82, 79
1, 484330, Control_c, 0, 64, 60
1, 484331, Control_c, 0, 67, 60
1, 484348, Control_c, 0, 64, 61
1, 484349, Control_c, 0, 67, 51
1, 484367, Control_c, 0, 64, 63
1, 484368, Control_c, 0, 67, 44
1, 484371, Note_off_c, 0, 62, 60
1, 484385, Control_c, 0, 64, 64
1, 484386, Control_c, 0, 67, 37
1, 484392, Note_off_c, 0, 84, 55
1, 484403, Control_c, 0, 67, 33
1, 484416, Note_on_c, 0, 80, 74
1, 484442, Control_c, 0, 64, 62
1, 484459, Control_c, 0, 64, 57
1, 484474, Note_off_c, 0, 82, 64
1, 484479, Control_c, 0, 64, 49
1, 484491, Note_on_c, 0, 63, 74
1, 484498, Note_on_c, 0, 51, 71
1, 484498, Control_c, 0, 64, 34
1, 484502, Note_on_c, 0, 79, 81
1, 484517, Control_c, 0, 64, 11
1, 484534, Note_off_c, 0, 80, 61
1, 484534, Control_c, 0, 64, 0
1, 484581, Note_off_c, 0, 63, 61
1, 484581, Poly_aftertouch_c, 0, 63, 0
1, 484584, Note_off_c, 0, 51, 61
1, 484584, Poly_aftertouch_c, 0, 51, 0
1, 484587, Note_off_c, 0, 79, 61
1, 484587, Poly_aftertouch_c, 0, 79, 0
1, 484590, Note_on_c, 0, 77, 77
1, 484672, Note_on_c, 0, 75, 82
1, 484687, Note_off_c, 0, 77, 59
1, 484759, Note_on_c, 0, 74, 80
1, 484777, Note_off_c, 0, 75, 62
1, 484824, Note_on_c, 0, 64, 82
1, 484832, Note_off_c, 0, 74, 63
1, 484832, Note_on_c, 0, 52, 76
1, 484844, Note_on_c, 0, 72, 74
1, 484909, Control_c, 0, 64, 17
1, 484927, Control_c, 0, 64, 26
1, 484935, Note_on_c, 0, 70, 83
1, 484941, Note_off_c, 0, 72, 56
1, 484946, Control_c, 0, 64, 35
1, 484965, Control_c, 0, 64, 43
1, 484967, Control_c, 0, 67, 29
1, 484983, Control_c, 0, 64, 50
1, 484994, Note_off_c, 0, 52, 61
1, 485001, Control_c, 0, 64, 53
1, 485020, Control_c, 0, 67, 25
1, 485025, Note_off_c, 0, 64, 63
1, 485025, Poly_aftertouch_c, 0, 64, 0
1, 485030, Note_on_c, 0, 68, 74
1, 485044, Note_off_c, 0, 70, 59
1, 485098, Note_on_c, 0, 67, 75
1, 485099, Note_off_c, 0, 68, 64
1, 485099, Poly_aftertouch_c, 0, 68, 0
1, 485114, Control_c, 0, 64, 51
1, 485133, Control_c, 0, 67, 21
1, 485151, Control_c, 0, 64, 48
1, 485169, Note_on_c, 0, 65, 80
1, 485169, Note_on_c, 0, 53, 77
1, 485169, Control_c, 0, 64, 45
1, 485181, Note_on_c, 0, 68, 67
1, 485188, Control_c, 0, 64, 41
1, 485189, Control_c, 0, 67, 16
1, 485198, Note_off_c, 0, 67, 59
1, 485206, Control_c, 0, 64, 35
1, 485209, Note_off_c, 0, 65, 62
1, 485217, Note_off_c, 0, 53, 62
1, 485217, Poly_aftertouch_c, 0, 53, 0
1, 485226, Control_c, 0, 64, 28
1, 485245, Control_c, 0, 64, 21
1, 485263, Control_c, 0, 64, 12
1, 485272, Note_on_c, 0, 72, 76
1, 485282, Control_c, 0, 64, 0
1, 485284, Control_c, 0, 67, 0
1, 485287, Note_off_c, 0, 68, 61
1, 485287, Poly_aftertouch_c, 0, 68, 0
1, 485340, Note_on_c, 0, 50, 80
1, 485346, Note_on_c, 0, 62, 73
1, 485366, Note_on_c, 0, 70, 77
1, 485375, Note_off_c, 0, 50, 68
1, 485378, Note_off_c, 0, 62, 69
1, 485388, Note_off_c, 0, 72, 60
1, 485446, Note_on_c, 0, 68, 81
1, 485469, Note_off_c, 0, 70, 61
1, 485525, Note_on_c, 0, 51, 86
1, 485528, Note_off_c, 0, 68, 61
1, 485528, Poly_aftertouch_c, 0, 68, 0
1, 485531, Note_on_c, 0, 63, 65
1, 485544, Control_c, 0, 64, 27
1, 485546, Note_on_c, 0, 67, 74
1, 485563, Note_off_c, 0, 51, 62
1, 485563, Poly_aftertouch_c, 0, 51, 0
1, 485563, Control_c, 0, 64, 39
1, 485568, Note_off_c, 0, 63, 66
1, 485568, Poly_aftertouch_c, 0, 63, 0
1, 485582, Control_c, 0, 64, 45
1, 485600, Control_c, 0, 67, 8
1, 485620, Note_off_c, 0, 67, 62
1, 485627, Note_on_c, 0, 63, 82
1, 485657, Control_c, 0, 64, 42
1, 485679, Note_off_c, 0, 63, 60
1, 485679, Poly_aftertouch_c, 0, 63, 0
1, 485694, Control_c, 0, 64, 40
1, 485714, Note_on_c, 0, 67, 80
1, 485775, Note_off_c, 0, 67, 59
1, 485795, Note_on_c, 0, 68, 80
1, 485806, Control_c, 0, 64, 36
1, 485862, Control_c, 0, 64, 32
1, 485864, Note_off_c, 0, 68, 62
1, 485864, Note_on_c, 0, 49, 80
1, 485864, Poly_aftertouch_c, 0, 68, 0
1, 485886, Note_on_c, 0, 70, 82
1, 485946, Note_off_c, 0, 70, 67
1, 485948, Note_off_c, 0, 49, 58
1, 485948, Poly_aftertouch_c, 0, 49, 0
1, 485955, Control_c, 0, 64, 27
1, 485957, Note_on_c, 0, 51, 83
1, 485966, Note_on_c, 0, 72, 73
1, 485974, Control_c, 0, 67, 0
1, 485994, Control_c, 0, 64, 23
1, 486030, Control_c, 0, 64, 17
1, 486036, Note_on_c, 0, 46, 72
1, 486038, Note_on_c, 0, 53, 80
1, 486045, Note_off_c, 0, 51, 63
1, 486045, Poly_aftertouch_c, 0, 51, 0
1, 486049, Control_c, 0, 64, 13
1, 486053, Note_on_c, 0, 73, 82
1, 486066, Note_off_c, 0, 72, 60
1, 486067, Control_c, 0, 64, 8
1, 486105, Control_c, 0, 64, 0
1, 486120, Note_off_c, 0, 73, 64
1, 486139, Note_on_c, 0, 72, 70
1, 486219, Note_on_c, 0, 73, 82
1, 486231, Note_off_c, 0, 72, 61
1, 486310, Note_on_c, 0, 77, 80
1, 486345, Note_off_c, 0, 73, 58
1, 486377, Note_on_c, 0, 55, 72
1, 486400, Note_off_c, 0, 53, 51
1, 486400, Poly_aftertouch_c, 0, 53, 0
1, 486401, Note_on_c, 0, 75, 80
1, 486420, Note_off_c, 0, 55, 66
1, 486420, Poly_aftertouch_c, 0, 55, 0
1, 486423, Control_c, 0, 64, 8
1, 486431, Note_off_c, 0, 46, 33
1, 486431, Poly_aftertouch_c, 0, 46, 0
1, 486438, Note_off_c, 0, 77, 60
1, 486485, Note_on_c, 0, 73, 85
1, 486517, Control_c, 0, 67, 8
1, 486543, Note_off_c, 0, 75, 64
1, 486551, Note_on_c, 0, 56, 86
1, 486556, Note_on_c, 0, 44, 78
1, 486559, Note_off_c, 0, 73, 63
1, 486568, Note_on_c, 0, 72, 78
1, 486621, Note_off_c, 0, 56, 64
1, 486631, Note_off_c, 0, 44, 62
1, 486631, Poly_aftertouch_c, 0, 44, 0
1, 486652, Note_on_c, 0, 70, 82
1, 486672, Note_off_c, 0, 72, 59
1, 486734, Note_on_c, 0, 68, 82
1, 486785, Note_off_c, 0, 70, 65
1, 486828, Note_on_c, 0, 67, 81
1, 486868, Note_off_c, 0, 68, 63
1, 486868, Poly_aftertouch_c, 0, 68, 0
1, 486872, Control_c, 0, 64, 0
1, 486903, Note_on_c, 0, 57, 91
1, 486905, Note_on_c, 0, 45, 88
1, 486907, Note_off_c, 0, 67, 61
1, 486907, Note_on_c, 0, 65, 80
1, 486995, Note_on_c, 0, 63, 84
1, 487012, Note_off_c, 0, 65, 61
1, 487022, Control_c, 0, 64, 18
1, 487040, Control_c, 0, 64, 32
1, 487058, Control_c, 0, 64, 42
1, 487074, Note_off_c, 0, 45, 60
1, 487077, Control_c, 0, 64, 48
1, 487084, Note_off_c, 0, 57, 61
1, 487084, Poly_aftertouch_c, 0, 57, 0
1, 487085, Note_on_c, 0, 61, 78
1, 487096, Control_c, 0, 64, 51
1, 487105, Note_off_c, 0, 63, 54
1, 487105, Poly_aftertouch_c, 0, 63, 0
1, 487155, Note_off_c, 0, 61, 65
1, 487162, Note_on_c, 0, 60, 80
1, 487226, Control_c, 0, 64, 48
1, 487246, Note_on_c, 0, 58, 75
1, 487246, Note_on_c, 0, 61, 80
1, 487249, Note_on_c, 0, 46, 72
1, 487265, Note_off_c, 0, 60, 55
1, 487265, Poly_aftertouch_c, 0, 60, 0
1, 487265, Control_c, 0, 64, 46
1, 487279, Note_off_c, 0, 58, 67
1, 487302, Control_c, 0, 64, 43
1, 487304, Note_off_c, 0, 46, 57
1, 487304, Poly_aftertouch_c, 0, 46, 0
1, 487329, Note_on_c, 0, 65, 80
1, 487338, Control_c, 0, 64, 36
1, 487354, Note_off_c, 0, 61, 61
1, 487377, Control_c, 0, 64, 30
1, 487378, Control_c, 0, 67, 0
1, 487419, Note_on_c, 0, 63, 80
1, 487453, Note_off_c, 0, 65, 60
1, 487456, Note_on_c, 0, 41, 66
1, 487456, Note_on_c, 0, 43, 63
1, 487491, Note_on_c, 0, 61, 81
1, 487496, Note_off_c, 0, 43, 64
1, 487498, Note_off_c, 0, 41, 64
1, 487528, Note_off_c, 0, 63, 60
1, 487528, Poly_aftertouch_c, 0, 63, 0
1, 487578, Note_on_c, 0, 60, 84
1, 487584, Note_on_c, 0, 44, 76
1, 487594, Note_off_c, 0, 61, 64
1, 487634, Note_off_c, 0, 44, 61
1, 487634, Note_off_c, 0, 60, 66
1, 487634, Poly_aftertouch_c, 0, 44, 0
1, 487634, Poly_aftertouch_c, 0, 60, 0
1, 487681, Note_on_c, 0, 48, 68
1, 487764, Note_on_c, 0, 49, 70
1, 487777, Note_off_c, 0, 48, 65
1, 487854, Note_on_c, 0, 51, 74
1, 487861, Note_off_c, 0, 49, 60
1, 487861, Poly_aftertouch_c, 0, 49, 0
1, 487922, Note_off_c, 0, 51, 60
1, 487922, Poly_aftertouch_c, 0, 51, 0
1, 487939, Note_on_c, 0, 53, 74
1, 487951, Note_on_c, 0, 68, 78
1, 487985, Note_off_c, 0, 53, 60
1, 487985, Poly_aftertouch_c, 0, 53, 0
1, 488011, Note_on_c, 0, 55, 72
1, 488019, Note_on_c, 0, 70, 84
1, 488069, Note_off_c, 0, 68, 57
1, 488069, Poly_aftertouch_c, 0, 68, 0
1, 488098, Note_off_c, 0, 55, 51
1, 488098, Poly_aftertouch_c, 0, 55, 0
1, 488102, Note_on_c, 0, 56, 75
1, 488113, Note_on_c, 0, 72, 87
1, 488119, Note_on_c, 0, 60, 63
1, 488127, Note_on_c, 0, 59, 66
1, 488146, Note_off_c, 0, 70, 66
1, 488158, Note_off_c, 0, 56, 59
1, 488161, Note_off_c, 0, 59, 64
1, 488178, Note_on_c, 0, 55, 71
1, 488222, Note_off_c, 0, 60, 59
1, 488222, Poly_aftertouch_c, 0, 60, 0
1, 488261, Note_on_c, 0, 56, 87
1, 488279, Note_off_c, 0, 55, 62
1, 488279, Poly_aftertouch_c, 0, 55, 0
1, 488344, Note_off_c, 0, 56, 64
1, 488350, Note_on_c, 0, 53, 72
1, 488409, Note_on_c, 0, 58, 73
1, 488419, Note_off_c, 0, 53, 63
1, 488419, Poly_aftertouch_c, 0, 53, 0
1, 488452, Note_off_c, 0, 72, 58
1, 488457, Note_on_c, 0, 74, 90
1, 488481, Note_on_c, 0, 62, 61
1, 488501, Note_on_c, 0, 56, 84
1, 488511, Note_off_c, 0, 62, 63
1, 488522, Note_off_c, 0, 58, 60
1, 488562, Note_off_c, 0, 56, 64
1, 488595, Note_on_c, 0, 55, 73
1, 488615, Note_off_c, 0, 74, 62
1, 488618, Note_on_c, 0, 75, 88
1, 488629, Note_on_c, 0, 63, 79
1, 488661, Note_off_c, 0, 63, 69
1, 488661, Poly_aftertouch_c, 0, 63, 0
1, 488672, Note_off_c, 0, 75, 67
1, 488678, Note_on_c, 0, 53, 77
1, 488689, Note_off_c, 0, 55, 62
1, 488689, Poly_aftertouch_c, 0, 55, 0
1, 488758, Note_on_c, 0, 51, 78
1, 488771, Note_off_c, 0, 53, 61
1, 488771, Poly_aftertouch_c, 0, 53, 0
1, 488797, Control_c, 0, 64, 25
1, 488854, Control_c, 0, 64, 20
1, 488857, Note_on_c, 0, 50, 73
1, 488889, Note_off_c, 0, 51, 58
1, 488889, Poly_aftertouch_c, 0, 51, 0
1, 488897, Note_off_c, 0, 50, 65
1, 488909, Control_c, 0, 64, 16
1, 488941, Note_on_c, 0, 48, 69
1, 488950, Note_on_c, 0, 76, 98
1, 488955, Note_on_c, 0, 64, 89
1, 489022, Control_c, 0, 64, 22
1, 489036, Note_off_c, 0, 48, 52
1, 489038, Control_c, 0, 64, 26
1, 489047, Note_on_c, 0, 46, 76
1, 489124, Note_on_c, 0, 44, 80
1, 489132, Note_off_c, 0, 46, 62
1, 489132, Poly_aftertouch_c, 0, 46, 0
1, 489153, Note_off_c, 0, 64, 47
1, 489153, Poly_aftertouch_c, 0, 64, 0
1, 489214, Note_on_c, 0, 43, 76
1, 489224, Note_off_c, 0, 44, 63
1, 489224, Poly_aftertouch_c, 0, 44, 0
1, 489267, Note_off_c, 0, 76, 58
1, 489303, Note_on_c, 0, 44, 76
1, 489321, Note_on_c, 0, 77, 90
1, 489325, Note_off_c, 0, 43, 61
1, 489326, Note_on_c, 0, 65, 79
1, 489354, Note_off_c, 0, 77, 65
1, 489363, Note_off_c, 0, 65, 63
1, 489377, Control_c, 0, 64, 22
1, 489394, Note_on_c, 0, 48, 70
1, 489395, Note_off_c, 0, 44, 62
1, 489395, Poly_aftertouch_c, 0, 44, 0
1, 489433, Control_c, 0, 64, 16
1, 489490, Note_on_c, 0, 46, 74
1, 489494, Note_on_c, 0, 74, 93
1, 489499, Note_off_c, 0, 48, 64
1, 489508, Note_on_c, 0, 62, 75
1, 489508, Control_c, 0, 64, 12
1, 489538, Note_off_c, 0, 62, 70
1, 489543, Note_off_c, 0, 74, 61
1, 489588, Note_on_c, 0, 44, 79
1, 489596, Note_off_c, 0, 46, 60
1, 489596, Poly_aftertouch_c, 0, 46, 0
1, 489656, Note_off_c, 0, 44, 61
1, 489656, Poly_aftertouch_c, 0, 44, 0
1, 489683, Note_on_c, 0, 75, 94
1, 489684, Note_on_c, 0, 63, 87
1, 489686, Note_on_c, 0, 43, 78
1, 489761, Note_off_c, 0, 43, 62
1, 489774, Note_on_c, 0, 39, 79
1, 489817, Note_off_c, 0, 63, 62
1, 489817, Poly_aftertouch_c, 0, 63, 0
1, 489831, Note_off_c, 0, 75, 64
1, 489853, Note_off_c, 0, 39, 60
1, 489853, Poly_aftertouch_c, 0, 39, 0
1, 489860, Note_on_c, 0, 43, 76
1, 489954, Note_on_c, 0, 44, 80
1, 489959, Note_off_c, 0, 43, 62
1, 490035, Note_off_c, 0, 44, 62
1, 490035, Poly_aftertouch_c, 0, 44, 0
1, 490046, Note_on_c, 0, 46, 83
1, 490048, Note_on_c, 0, 73, 80
1, 490113, Note_off_c, 0, 46, 62
1, 490113, Poly_aftertouch_c, 0, 46, 0
1, 490123, Note_on_c, 0, 75, 83
1, 490128, Note_on_c, 0, 48, 75
1, 490179, Note_off_c, 0, 73, 61
1, 490207, Note_on_c, 0, 77, 94
1, 490208, Note_on_c, 0, 65, 83
1, 490236, Note_off_c, 0, 75, 65
1, 490236, Note_on_c, 0, 49, 49
1, 490236, Poly_aftertouch_c, 0, 49, 0
1, 490237, Note_off_c, 0, 49, 127
1, 490246, Note_off_c, 0, 48, 61
1, 490260, Note_on_c, 0, 50, 49
1, 490281, Note_on_c, 0, 48, 67
1, 490288, Poly_aftertouch_c, 0, 49, 0
1, 490296, Note_off_c, 0, 50, 50
1, 490368, Note_off_c, 0, 65, 47
1, 490375, Note_off_c, 0, 48, 64
1, 490387, Control_c, 0, 64, 16
1, 490389, Note_on_c, 0, 49, 84
1, 490457, Note_off_c, 0, 49, 60
1, 490471, Note_on_c, 0, 46, 77
1, 490555, Note_on_c, 0, 79, 89
1, 490555, Control_c, 0, 64, 21
1, 490558, Note_on_c, 0, 51, 68
1, 490568, Note_on_c, 0, 67, 70
1, 490569, Note_off_c, 0, 46, 62
1, 490569, Poly_aftertouch_c, 0, 46, 0
1, 490572, Note_off_c, 0, 77, 60
1, 490612, Control_c, 0, 64, 26
1, 490621, Note_off_c, 0, 67, 62
1, 490637, Note_off_c, 0, 51, 47
1, 490637, Poly_aftertouch_c, 0, 51, 0
1, 490648, Note_on_c, 0, 49, 80
1, 490649, Control_c, 0, 64, 30
1, 490686, Control_c, 0, 64, 34
1, 490716, Note_off_c, 0, 49, 61
1, 490731, Note_on_c, 0, 80, 87
1, 490733, Note_on_c, 0, 48, 74
1, 490742, Note_on_c, 0, 68, 74
1, 490758, Note_off_c, 0, 79, 62
1, 490758, Poly_aftertouch_c, 0, 79, 0
1, 490786, Note_off_c, 0, 68, 64
1, 490786, Poly_aftertouch_c, 0, 68, 0
1, 490798, Control_c, 0, 64, 28
1, 490801, Note_off_c, 0, 80, 66
1, 490811, Note_on_c, 0, 46, 79
1, 490817, Control_c, 0, 64, 20
1, 490823, Note_off_c, 0, 48, 60
1, 490835, Control_c, 0, 64, 0
1, 490886, Note_on_c, 0, 44, 82
1, 490909, Note_off_c, 0, 46, 60
1, 490909, Poly_aftertouch_c, 0, 46, 0
1, 490980, Note_on_c, 0, 43, 81
1, 491022, Note_off_c, 0, 44, 63
1, 491022, Poly_aftertouch_c, 0, 44, 0
1, 491043, Note_off_c, 0, 43, 64
1, 491069, Note_on_c, 0, 81, 98
1, 491072, Note_on_c, 0, 41, 83
1, 491074, Note_on_c, 0, 69, 95
1, 491116, Control_c, 0, 64, 37
1, 491135, Control_c, 0, 64, 72
1, 491156, Control_c, 0, 64, 90
1, 491172, Control_c, 0, 64, 99
1, 491181, Note_off_c, 0, 41, 62
1, 491181, Note_on_c, 0, 39, 71
1, 491209, Control_c, 0, 64, 85
1, 491225, Note_off_c, 0, 69, 57
1, 491225, Poly_aftertouch_c, 0, 69, 0
1, 491228, Control_c, 0, 64, 70
1, 491247, Note_on_c, 0, 37, 80
1, 491247, Control_c, 0, 64, 53
1, 491262, Note_off_c, 0, 39, 61
1, 491262, Poly_aftertouch_c, 0, 39, 0
1, 491266, Control_c, 0, 64, 31
1, 491285, Control_c, 0, 64, 0
1, 491346, Note_on_c, 0, 36, 70
1, 491429, Note_off_c, 0, 81, 55
1, 491429, Note_on_c, 0, 82, 80
1, 491439, Note_on_c, 0, 70, 76
1, 491461, Note_off_c, 0, 36, 61
1, 491466, Note_off_c, 0, 82, 64
1, 491468, Note_off_c, 0, 70, 71
1, 491510, Note_off_c, 0, 37, 62
1, 491513, Note_on_c, 0, 41, 72
1, 491605, Note_on_c, 0, 39, 80
1, 491619, Note_on_c, 0, 79, 91
1, 491620, Note_off_c, 0, 41, 62
1, 491631, Note_on_c, 0, 67, 74
1, 491658, Note_off_c, 0, 67, 70
1, 491667, Note_off_c, 0, 79, 64
1, 491667, Poly_aftertouch_c, 0, 79, 0
1, 491707, Note_on_c, 0, 37, 76
1, 491717, Note_off_c, 0, 39, 54
1, 491717, Poly_aftertouch_c, 0, 39, 0
1, 491789, Note_on_c, 0, 80, 95
1, 491791, Note_on_c, 0, 36, 80
1, 491796, Note_on_c, 0, 68, 88
1, 491808, Control_c, 0, 64, 49
1, 491827, Control_c, 0, 64, 89
1, 491831, Note_off_c, 0, 68, 68
1, 491831, Poly_aftertouch_c, 0, 68, 0
1, 491843, Note_off_c, 0, 80, 65
1, 491845, Control_c, 0, 64, 106
1, 491864, Control_c, 0, 64, 114
1, 491878, Note_on_c, 0, 39, 88
1, 491882, Control_c, 0, 64, 105
1, 491888, Note_off_c, 0, 36, 62
1, 491902, Control_c, 0, 64, 77
1, 491920, Control_c, 0, 64, 34
1, 491924, Note_off_c, 0, 37, 27
1, 491939, Control_c, 0, 64, 0
1, 491955, Note_off_c, 0, 39, 62
1, 491955, Poly_aftertouch_c, 0, 39, 0
1, 491960, Note_on_c, 0, 44, 64
1, 492018, Note_off_c, 0, 44, 63
1, 492018, Poly_aftertouch_c, 0, 44, 0
1, 492036, Note_on_c, 0, 43, 82
1, 492125, Note_off_c, 0, 43, 62
1, 492151, Note_on_c, 0, 41, 82
1, 492154, Note_on_c, 0, 84, 104
1, 492157, Note_on_c, 0, 81, 95
1, 492161, Note_on_c, 0, 72, 90
1, 492171, Note_on_c, 0, 74, 83
1, 492200, Control_c, 0, 64, 49
1, 492220, Control_c, 0, 64, 108
1, 492239, Control_c, 0, 64, 127
1, 492248, Note_off_c, 0, 41, 61
1, 492254, Note_on_c, 0, 39, 69
1, 492303, Note_on_c, 0, 37, 83
1, 492305, Note_off_c, 0, 39, 61
1, 492305, Poly_aftertouch_c, 0, 39, 0
1, 492313, Note_off_c, 0, 74, 44
1, 492318, Note_off_c, 0, 84, 60
1, 492320, Note_off_c, 0, 72, 58
1, 492344, Note_off_c, 0, 81, 65
1, 492389, Control_c, 0, 64, 117
1, 492403, Note_off_c, 0, 37, 60
1, 492406, Control_c, 0, 64, 83
1, 492413, Note_on_c, 0, 34, 82
1, 492425, Control_c, 0, 64, 49
1, 492444, Control_c, 0, 64, 0
1, 492504, Note_on_c, 0, 37, 85
1, 492508, Note_on_c, 0, 73, 91
1, 492509, Note_off_c, 0, 34, 61
1, 492512, Note_on_c, 0, 82, 88
1, 492515, Note_on_c, 0, 85, 85
1, 492546, Note_off_c, 0, 85, 62
1, 492550, Note_off_c, 0, 82, 61
1, 492561, Note_off_c, 0, 73, 60
1, 492609, Note_on_c, 0, 34, 81
1, 492611, Note_off_c, 0, 37, 62
1, 492682, Note_on_c, 0, 39, 84
1, 492691, Note_on_c, 0, 82, 88
1, 492693, Note_on_c, 0, 79, 81
1, 492697, Note_on_c, 0, 70, 86
1, 492710, Note_off_c, 0, 34, 62
1, 492730, Note_off_c, 0, 70, 65
1, 492736, Note_off_c, 0, 79, 62
1, 492736, Poly_aftertouch_c, 0, 79, 0
1, 492753, Note_off_c, 0, 82, 66
1, 492790, Note_on_c, 0, 37, 80
1, 492792, Note_off_c, 0, 39, 61
1, 492792, Poly_aftertouch_c, 0, 39, 0
1, 492871, Note_on_c, 0, 36, 85
1, 492876, Note_on_c, 0, 80, 98
1, 492880, Note_on_c, 0, 84, 98
1, 492881, Note_on_c, 0, 72, 98
1, 492893, Control_c, 0, 64, 67
1, 492909, Note_off_c, 0, 72, 69
1, 492910, Control_c, 0, 64, 127
1, 492914, Note_off_c, 0, 37, 61
1, 492925, Note_off_c, 0, 84, 63
1, 492925, Note_off_c, 0, 80, 67
1, 492968, Control_c, 0, 64, 107
1, 492974, Note_on_c, 0, 39, 85
1, 492987, Control_c, 0, 64, 55
1, 492999, Note_off_c, 0, 36, 61
1, 493004, Control_c, 0, 64, 0
1, 493040, Note_on_c, 0, 44, 65
1, 493044, Note_off_c, 0, 39, 60
1, 493044, Poly_aftertouch_c, 0, 39, 0
1, 493091, Note_off_c, 0, 44, 65
1, 493091, Poly_aftertouch_c, 0, 44, 0
1, 493121, Note_on_c, 0, 43, 78
1, 493215, Note_off_c, 0, 43, 63
1, 493240, Note_on_c, 0, 41, 88
1, 493249, Note_on_c, 0, 81, 101
1, 493251, Note_on_c, 0, 72, 101
1, 493254, Note_on_c, 0, 69, 98
1, 493286, Control_c, 0, 64, 71
1, 493305, Control_c, 0, 64, 127
1, 493336, Note_on_c, 0, 39, 78
1, 493338, Note_off_c, 0, 41, 63
1, 493396, Note_off_c, 0, 69, 54
1, 493396, Poly_aftertouch_c, 0, 69, 0
1, 493404, Note_on_c, 0, 37, 86
1, 493410, Note_off_c, 0, 39, 59
1, 493410, Poly_aftertouch_c, 0, 39, 0
1, 493424, Note_off_c, 0, 81, 62
1, 493426, Note_off_c, 0, 72, 62
1, 493489, Note_off_c, 0, 37, 59
1, 493508, Note_on_c, 0, 34, 82
1, 493509, Control_c, 0, 64, 86
1, 493528, Control_c, 0, 64, 21
1, 493547, Control_c, 0, 64, 0
1, 493603, Note_on_c, 0, 37, 88
1, 493607, Note_off_c, 0, 34, 61
1, 493614, Note_on_c, 0, 82, 97
1, 493616, Note_on_c, 0, 73, 93
1, 493618, Note_on_c, 0, 70, 92
1, 493649, Note_off_c, 0, 70, 70
1, 493662, Note_off_c, 0, 82, 67
1, 493662, Note_off_c, 0, 73, 63
1, 493702, Note_off_c, 0, 37, 60
1, 493704, Note_on_c, 0, 78, 20
1, 493705, Note_off_c, 0, 78, 127
1, 493715, Note_on_c, 0, 34, 83
1, 493792, Note_off_c, 0, 34, 64
1, 493793, Note_on_c, 0, 39, 87
1, 493798, Note_on_c, 0, 79, 91
1, 493804, Note_on_c, 0, 70, 81
1, 493809, Note_on_c, 0, 67, 74
1, 493834, Note_off_c, 0, 70, 68
1, 493840, Note_off_c, 0, 67, 71
1, 493858, Note_off_c, 0, 79, 60
1, 493858, Poly_aftertouch_c, 0, 79, 0
1, 493892, Note_off_c, 0, 39, 64
1, 493892, Note_on_c, 0, 39, 57
1, 493955, Note_off_c, 0, 39, 61
1, 493955, Poly_aftertouch_c, 0, 39, 0
1, 493976, Note_on_c, 0, 68, 100
1, 493978, Note_on_c, 0, 32, 97
1, 493979, Note_on_c, 0, 80, 101
1, 493979, Note_on_c, 0, 72, 98
1, 493995, Control_c, 0, 64, 52
1, 494010, Note_off_c, 0, 68, 67
1, 494010, Poly_aftertouch_c, 0, 68, 0
1, 494014, Note_on_c, 0, 75, 49
1, 494014, Control_c, 0, 64, 127
1, 494016, Note_off_c, 0, 72, 69
1, 494034, Note_off_c, 0, 80, 66
1, 494045, Note_off_c, 0, 32, 60
1, 494045, Poly_aftertouch_c, 0, 32, 0
1, 494049, Note_off_c, 0, 75, 40
1, 494051, Control_c, 0, 64, 116
1, 494066, Note_on_c, 0, 37, 87
1, 494071, Control_c, 0, 64, 78
1, 494089, Control_c, 0, 64, 0
1, 494183, Note_off_c, 0, 37, 59
1, 494200, Note_on_c, 0, 39, 80
1, 494240, Note_on_c, 0, 78, 10
1, 494277, Note_on_c, 0, 37, 79
1, 494280, Note_off_c, 0, 39, 59
1, 494280, Poly_aftertouch_c, 0, 39, 0
1, 494328, Note_on_c, 0, 82, 89
1, 494335, Note_on_c, 0, 70, 90
1, 494337, Note_on_c, 0, 79, 84
1, 494350, Note_off_c, 0, 78, 39
1, 494351, Poly_aftertouch_c, 0, 78, 0
1, 494362, Note_on_c, 0, 36, 85
1, 494382, Note_off_c, 0, 79, 62
1, 494382, Poly_aftertouch_c, 0, 79, 0
1, 494384, Note_off_c, 0, 37, 60
1, 494397, Note_off_c, 0, 70, 64
1, 494416, Note_off_c, 0, 82, 63
1, 494485, Note_on_c, 0, 34, 74
1, 494527, Note_off_c, 0, 36, 61
1, 494539, Note_on_c, 0, 80, 102
1, 494542, Note_on_c, 0, 72, 99
1, 494542, Note_on_c, 0, 84, 102
1, 494557, Note_on_c, 0, 32, 88
1, 494565, Note_off_c, 0, 72, 65
1, 494574, Note_off_c, 0, 84, 65
1, 494575, Control_c, 0, 64, 88
1, 494579, Note_off_c, 0, 80, 69
1, 494595, Control_c, 0, 64, 127
1, 494598, Note_on_c, 0, 82, 38
1, 494599, Note_off_c, 0, 82, 127
1, 494601, Note_off_c, 0, 34, 61
1, 494601, Note_on_c, 0, 83, 22
1, 494602, Note_off_c, 0, 83, 127
1, 494612, Control_c, 0, 64, 107
1, 494631, Note_on_c, 0, 36, 79
1, 494631, Control_c, 0, 64, 60
1, 494651, Control_c, 0, 64, 0
1, 494660, Poly_aftertouch_c, 0, 83, 0
1, 494697, Note_off_c, 0, 32, 60
1, 494697, Poly_aftertouch_c, 0, 32, 0
1, 494743, Note_on_c, 0, 39, 80
1, 494762, Note_off_c, 0, 36, 61
1, 494843, Note_on_c, 0, 37, 77
1, 494844, Note_off_c, 0, 39, 59
1, 494844, Poly_aftertouch_c, 0, 39, 0
1, 494904, Note_on_c, 0, 67, 97
1, 494904, Note_on_c, 0, 70, 96
1, 494904, Note_on_c, 0, 79, 97
1, 494927, Note_on_c, 0, 36, 88
1, 494950, Note_off_c, 0, 67, 63
1, 494959, Note_on_c, 0, 77, 28
1, 494960, Note_off_c, 0, 77, 127
1, 494969, Note_off_c, 0, 79, 62
1, 494969, Poly_aftertouch_c, 0, 79, 0
1, 494989, Note_off_c, 0, 70, 65
1, 494994, Poly_aftertouch_c, 0, 75, 0
1, 495009, Poly_aftertouch_c, 0, 77, 0
1, 495042, Note_on_c, 0, 34, 66
1, 495054, Note_off_c, 0, 37, 53
1, 495056, Note_off_c, 0, 36, 62
1, 495099, Note_on_c, 0, 68, 99
1, 495100, Note_on_c, 0, 80, 96
1, 495103, Note_on_c, 0, 72, 92
1, 495113, Note_on_c, 0, 32, 91
1, 495124, Note_on_c, 0, 75, 66
1, 495135, Control_c, 0, 64, 18
1, 495137, Note_on_c, 0, 81, 53
1, 495138, Note_off_c, 0, 81, 127
1, 495141, Note_off_c, 0, 68, 69
1, 495141, Poly_aftertouch_c, 0, 68, 0
1, 495144, Note_off_c, 0, 72, 63
1, 495146, Note_off_c, 0, 34, 61
1, 495147, Note_off_c, 0, 80, 65
1, 495150, Note_off_c, 0, 75, 64
1, 495153, Control_c, 0, 64, 127
1, 495181, Poly_aftertouch_c, 0, 77, 0
1, 495197, Note_on_c, 0, 36, 83
1, 495211, Control_c, 0, 64, 86
1, 495231, Control_c, 0, 64, 0
1, 495247, Note_off_c, 0, 32, 62
1, 495247, Poly_aftertouch_c, 0, 32, 0
1, 495300, Note_on_c, 0, 39, 80
1, 495305, Note_off_c, 0, 36, 62
1, 495375, Note_off_c, 0, 39, 60
1, 495375, Poly_aftertouch_c, 0, 39, 0
1, 495413, Note_on_c, 0, 37, 72
1, 495465, Note_on_c, 0, 55, 98
1, 495466, Note_on_c, 0, 67, 98
1, 495467, Note_on_c, 0, 58, 98
1, 495487, Note_on_c, 0, 36, 82
1, 495507, Note_off_c, 0, 55, 67
1, 495507, Poly_aftertouch_c, 0, 55, 0
1, 495516, Note_off_c, 0, 67, 63
1, 495525, Note_off_c, 0, 58, 63
1, 495583, Note_off_c, 0, 37, 56
1, 495590, Note_on_c, 0, 34, 77
1, 495629, Note_off_c, 0, 36, 61
1, 495682, Note_off_c, 0, 34, 61
1, 495733, Note_on_c, 0, 68, 96
1, 495733, Note_on_c, 0, 60, 93
1, 495735, Note_on_c, 0, 56, 96
1, 495740, Note_on_c, 0, 32, 99
1, 495752, Control_c, 0, 67, 9
1, 495773, Control_c, 0, 64, 111
1, 495791, Control_c, 0, 64, 127
1, 495811, Note_off_c, 0, 56, 63
1, 495828, Control_c, 0, 67, 13
1, 495834, Note_off_c, 0, 68, 66
1, 495834, Poly_aftertouch_c, 0, 68, 0
1, 495846, Control_c, 0, 67, 18
1, 495852, Note_off_c, 0, 60, 62
1, 495852, Poly_aftertouch_c, 0, 60, 0
1, 495857, Note_off_c, 0, 32, 61
1, 495857, Poly_aftertouch_c, 0, 32, 0
1, 495865, Control_c, 0, 67, 29
1, 495884, Control_c, 0, 67, 47
1, 495903, Control_c, 0, 67, 64
1, 495922, Control_c, 0, 67, 79
1, 495939, Control_c, 0, 67, 93
1, 495959, Control_c, 0, 67, 104
1, 495979, Control_c, 0, 64, 113
1, 495980, Control_c, 0, 67, 110
1, 495998, Control_c, 0, 64, 74
1, 495999, Control_c, 0, 67, 115
1, 496015, Control_c, 0, 64, 22
1, 496016, Control_c, 0, 67, 120
1, 496034, Control_c, 0, 64, 0
1, 496036, Control_c, 0, 67, 125
1, 496479, Note_on_c, 0, 56, 38
1, 496735, Note_on_c, 0, 65, 47
1, 496737, Note_on_c, 0, 37, 36
1, 496738, Note_on_c, 0, 49, 37
1, 496788, Note_on_c, 0, 53, 11
1, 496801, Control_c, 0, 64, 10
1, 496818, Control_c, 0, 64, 25
1, 496838, Control_c, 0, 64, 33
1, 496856, Control_c, 0, 64, 41
1, 496875, Control_c, 0, 64, 48
1, 496878, Note_off_c, 0, 56, 60
1, 496894, Control_c, 0, 64, 56
1, 496913, Control_c, 0, 64, 62
1, 496933, Control_c, 0, 64, 66
1, 496949, Control_c, 0, 64, 69
1, 496969, Control_c, 0, 64, 72
1, 496985, Note_off_c, 0, 53, 57
1, 496985, Poly_aftertouch_c, 0, 53, 0
1, 496987, Control_c, 0, 64, 75
1, 496988, Control_c, 0, 67, 119
1, 496990, Note_off_c, 0, 49, 45
1, 497006, Control_c, 0, 64, 78
1, 497007, Control_c, 0, 67, 115
1, 497025, Control_c, 0, 64, 81
1, 497026, Control_c, 0, 67, 111
1, 497044, Control_c, 0, 64, 84
1, 497046, Control_c, 0, 67, 106
1, 497063, Control_c, 0, 64, 88
1, 497064, Control_c, 0, 67, 101
1, 497081, Control_c, 0, 67, 96
1, 497099, Control_c, 0, 64, 92
1, 497101, Control_c, 0, 67, 91
1, 497105, Note_on_c, 0, 44, 51
1, 497107, Note_on_c, 0, 56, 47
1, 497118, Control_c, 0, 67, 87
1, 497122, Note_off_c, 0, 65, 38
1, 497138, Control_c, 0, 67, 83
1, 497146, Poly_aftertouch_c, 0, 62, 127
1, 497154, Control_c, 0, 67, 78
1, 497169, Note_off_c, 0, 37, 59
1, 497175, Control_c, 0, 67, 71
1, 497193, Control_c, 0, 67, 64
1, 497212, Control_c, 0, 67, 57
1, 497232, Control_c, 0, 67, 50
1, 497249, Control_c, 0, 67, 44
1, 497269, Control_c, 0, 64, 88
1, 497270, Control_c, 0, 67, 38
1, 497289, Control_c, 0, 64, 84
1, 497290, Control_c, 0, 67, 31
1, 497299, Note_on_c, 0, 63, 72
1, 497306, Control_c, 0, 64, 80
1, 497307, Control_c, 0, 67, 22
1, 497322, Note_on_c, 0, 48, 48
1, 497325, Control_c, 0, 64, 72
1, 497327, Control_c, 0, 67, 11
1, 497332, Note_on_c, 0, 51, 53
1, 497336, Note_on_c, 0, 36, 51
1, 497343, Control_c, 0, 64, 60
1, 497361, Control_c, 0, 64, 48
1, 497362, Control_c, 0, 67, 0
1, 497380, Control_c, 0, 64, 35
1, 497390, Note_off_c, 0, 56, 63
1, 497398, Control_c, 0, 64, 29
1, 497401, Note_off_c, 0, 44, 53
1, 497401, Poly_aftertouch_c, 0, 44, 0
1, 497407, Poly_aftertouch_c, 0, 62, 0
1, 497436, Control_c, 0, 64, 39
1, 497456, Control_c, 0, 64, 50
1, 497474, Control_c, 0, 64, 62
1, 497492, Control_c, 0, 64, 72
1, 497511, Control_c, 0, 64, 78
1, 497530, Control_c, 0, 64, 85
1, 497548, Control_c, 0, 64, 92
1, 497551, Note_off_c, 0, 48, 45
1, 497567, Control_c, 0, 64, 99
1, 497586, Control_c, 0, 64, 107
1, 497591, Note_off_c, 0, 36, 37
1, 497605, Control_c, 0, 64, 115
1, 497623, Control_c, 0, 64, 124
1, 497633, Note_off_c, 0, 51, 59
1, 497633, Poly_aftertouch_c, 0, 51, 0
1, 497669, Note_on_c, 0, 56, 62
1, 497677, Note_on_c, 0, 44, 55
1, 497705, Note_off_c, 0, 63, 59
1, 497705, Poly_aftertouch_c, 0, 63, 0
1, 497847, Control_c, 0, 64, 112
1, 497852, Note_on_c, 0, 66, 70
1, 497867, Control_c, 0, 64, 95
1, 497880, Note_on_c, 0, 51, 59
1, 497885, Control_c, 0, 64, 76
1, 497890, Note_on_c, 0, 60, 51
1, 497903, Control_c, 0, 64, 58
1, 497908, Note_on_c, 0, 54, 41
1, 497909, Note_on_c, 0, 39, 46
1, 497913, Note_on_c, 0, 61, 18
1, 497924, Control_c, 0, 64, 38
1, 497929, Note_off_c, 0, 44, 39
1, 497929, Poly_aftertouch_c, 0, 44, 0
1, 497942, Control_c, 0, 64, 0
1, 497958, Note_off_c, 0, 56, 59
1, 498006, Poly_aftertouch_c, 0, 41, 0
1, 498034, Control_c, 0, 64, 19
1, 498054, Control_c, 0, 64, 35
1, 498073, Control_c, 0, 64, 47
1, 498091, Control_c, 0, 64, 58
1, 498109, Control_c, 0, 64, 68
1, 498128, Control_c, 0, 64, 77
1, 498138, Note_off_c, 0, 51, 37
1, 498138, Poly_aftertouch_c, 0, 51, 0
1, 498146, Control_c, 0, 64, 85
1, 498154, Poly_aftertouch_c, 0, 61, 24
1, 498165, Control_c, 0, 64, 93
1, 498183, Control_c, 0, 64, 100
1, 498196, Note_off_c, 0, 61, 33
1, 498196, Poly_aftertouch_c, 0, 61, 0
1, 498202, Control_c, 0, 64, 105
1, 498219, Note_off_c, 0, 66, 31
1, 498220, Control_c, 0, 64, 109
1, 498227, Note_on_c, 0, 56, 44
1, 498238, Note_off_c, 0, 54, 33
1, 498258, Control_c, 0, 64, 114
1, 498266, Note_on_c, 0, 44, 39
1, 498352, Control_c, 0, 64, 109
1, 498371, Control_c, 0, 64, 104
1, 498389, Control_c, 0, 64, 96
1, 498409, Control_c, 0, 64, 85
1, 498417, Note_on_c, 0, 65, 59
1, 498427, Control_c, 0, 64, 71
1, 498446, Control_c, 0, 64, 52
1, 498453, Note_on_c, 0, 37, 51
1, 498455, Note_on_c, 0, 49, 37
1, 498460, Note_off_c, 0, 39, 34
1, 498460, Poly_aftertouch_c, 0, 39, 0
1, 498464, Note_on_c, 0, 53, 41
1, 498464, Control_c, 0, 64, 19
1, 498470, Note_off_c, 0, 44, 35
1, 498470, Poly_aftertouch_c, 0, 44, 0
1, 498483, Control_c, 0, 64, 0
1, 498484, Note_off_c, 0, 60, 55
1, 498484, Poly_aftertouch_c, 0, 60, 0
1, 498528, Note_off_c, 0, 56, 58
1, 498557, Control_c, 0, 64, 17
1, 498577, Control_c, 0, 64, 36
1, 498595, Control_c, 0, 64, 50
1, 498615, Control_c, 0, 64, 63
1, 498632, Control_c, 0, 64, 75
1, 498633, Note_off_c, 0, 53, 52
1, 498633, Poly_aftertouch_c, 0, 53, 0
1, 498652, Control_c, 0, 64, 85
1, 498671, Control_c, 0, 64, 99
1, 498689, Control_c, 0, 64, 114
1, 498707, Control_c, 0, 64, 127
1, 498760, Note_off_c, 0, 49, 29
1, 498762, Note_on_c, 0, 44, 61
1, 498768, Note_off_c, 0, 37, 51
1, 498774, Note_off_c, 0, 65, 60
1, 498791, Note_on_c, 0, 61, 59
1, 498798, Note_off_c, 0, 44, 63
1, 498798, Poly_aftertouch_c, 0, 44, 0
1, 498825, Note_off_c, 0, 61, 65
1, 498825, Poly_aftertouch_c, 0, 61, 0
1, 498979, Note_on_c, 0, 68, 80
1, 498987, Control_c, 0, 64, 117
1, 499007, Control_c, 0, 64, 89
1, 499016, Note_on_c, 0, 53, 56
1, 499018, Note_on_c, 0, 56, 63
1, 499025, Control_c, 0, 64, 59
1, 499043, Control_c, 0, 64, 20
1, 499046, Note_on_c, 0, 41, 47
1, 499063, Control_c, 0, 64, 0
1, 499119, Control_c, 0, 64, 21
1, 499137, Control_c, 0, 64, 49
1, 499157, Control_c, 0, 64, 71
1, 499161, Note_off_c, 0, 41, 53
1, 499175, Control_c, 0, 64, 89
1, 499193, Control_c, 0, 64, 109
1, 499199, Note_off_c, 0, 53, 56
1, 499199, Poly_aftertouch_c, 0, 53, 0
1, 499214, Control_c, 0, 64, 127
1, 499215, Note_off_c, 0, 56, 60
1, 499337, Note_on_c, 0, 49, 54
1, 499340, Note_off_c, 0, 68, 60
1, 499340, Poly_aftertouch_c, 0, 68, 0
1, 499344, Note_on_c, 0, 61, 62
1, 499531, Control_c, 0, 64, 121
1, 499549, Control_c, 0, 64, 95
1, 499551, Note_on_c, 0, 70, 66
1, 499564, Note_off_c, 0, 49, 40
1, 499567, Control_c, 0, 64, 65
1, 499580, Note_on_c, 0, 54, 37
1, 499581, Note_on_c, 0, 42, 45
1, 499587, Control_c, 0, 64, 23
1, 499605, Control_c, 0, 64, 0
1, 499622, Note_on_c, 0, 58, 38
1, 499661, Note_off_c, 0, 61, 59
1, 499661, Poly_aftertouch_c, 0, 61, 0
1, 499698, Control_c, 0, 64, 37
1, 499706, Note_off_c, 0, 54, 53
1, 499717, Control_c, 0, 64, 55
1, 499736, Control_c, 0, 64, 68
1, 499738, Note_off_c, 0, 42, 48
1, 499756, Control_c, 0, 64, 75
1, 499773, Control_c, 0, 64, 81
1, 499775, Note_off_c, 0, 58, 59
1, 499788, Note_off_c, 0, 70, 60
1, 499791, Control_c, 0, 64, 89
1, 499812, Control_c, 0, 64, 99
1, 499830, Control_c, 0, 64, 108
1, 499847, Control_c, 0, 64, 113
1, 499917, Note_on_c, 0, 63, 57
1, 499921, Control_c, 0, 64, 99
1, 499938, Note_on_c, 0, 53, 16
1, 499939, Note_on_c, 0, 58, 48
1, 499939, Note_on_c, 0, 61, 47
1, 499940, Control_c, 0, 64, 79
1, 499962, Control_c, 0, 64, 62
1, 499979, Control_c, 0, 64, 44
1, 499986, Note_off_c, 0, 53, 31
1, 499986, Poly_aftertouch_c, 0, 53, 0
1, 499998, Control_c, 0, 64, 0
1, 500001, Poly_aftertouch_c, 0, 41, 127
1, 500011, Note_off_c, 0, 61, 54
1, 500011, Poly_aftertouch_c, 0, 61, 0
1, 500013, Note_off_c, 0, 58, 54
1, 500020, Note_off_c, 0, 63, 57
1, 500020, Poly_aftertouch_c, 0, 63, 0
1, 500035, Control_c, 0, 67, 13
1, 500054, Control_c, 0, 67, 25
1, 500073, Control_c, 0, 67, 45
1, 500092, Control_c, 0, 67, 69
1, 500109, Control_c, 0, 67, 91
1, 500128, Control_c, 0, 64, 14
1, 500129, Control_c, 0, 67, 110
1, 500137, Note_on_c, 0, 42, 44
1, 500147, Control_c, 0, 64, 32
1, 500148, Control_c, 0, 67, 119
1, 500151, Note_on_c, 0, 54, 35
1, 500158, Note_on_c, 0, 63, 48
1, 500158, Note_on_c, 0, 61, 47
1, 500158, Poly_aftertouch_c, 0, 41, 0
1, 500165, Control_c, 0, 64, 47
1, 500169, Note_on_c, 0, 58, 42
1, 500186, Control_c, 0, 64, 60
1, 500187, Control_c, 0, 67, 127
1, 500203, Control_c, 0, 64, 70
1, 500223, Control_c, 0, 64, 79
1, 500240, Control_c, 0, 64, 87
1, 500248, Note_off_c, 0, 58, 52
1, 500259, Control_c, 0, 64, 95
1, 500278, Note_off_c, 0, 61, 58
1, 500278, Note_off_c, 0, 63, 57
1, 500278, Poly_aftertouch_c, 0, 61, 0
1, 500278, Poly_aftertouch_c, 0, 63, 0
1, 500278, Control_c, 0, 64, 102
1, 500288, Note_off_c, 0, 42, 61
1, 500330, Note_off_c, 0, 54, 50
1, 500410, Control_c, 0, 64, 96
1, 500428, Control_c, 0, 64, 91
1, 500447, Control_c, 0, 64, 84
1, 500465, Control_c, 0, 64, 76
1, 500484, Control_c, 0, 64, 66
1, 500502, Control_c, 0, 64, 55
1, 500517, Note_on_c, 0, 43, 47
1, 500520, Note_on_c, 0, 61, 47
1, 500521, Control_c, 0, 64, 41
1, 500525, Note_on_c, 0, 58, 40
1, 500528, Note_on_c, 0, 55, 39
1, 500528, Note_on_c, 0, 63, 46
1, 500540, Control_c, 0, 64, 10
1, 500558, Control_c, 0, 64, 0
1, 500564, Note_off_c, 0, 55, 53
1, 500564, Poly_aftertouch_c, 0, 55, 0
1, 500579, Note_off_c, 0, 63, 61
1, 500579, Note_off_c, 0, 58, 51
1, 500579, Poly_aftertouch_c, 0, 63, 0
1, 500583, Note_off_c, 0, 43, 57
1, 500610, Note_off_c, 0, 61, 47
1, 500610, Poly_aftertouch_c, 0, 61, 0
1, 500737, Note_on_c, 0, 63, 38
1, 500747, Note_on_c, 0, 56, 37
1, 500766, Note_on_c, 0, 60, 41
1, 500769, Note_on_c, 0, 44, 42
1, 500782, Control_c, 0, 64, 24
1, 500803, Control_c, 0, 64, 41
1, 500820, Control_c, 0, 64, 55
1, 500839, Control_c, 0, 64, 66
1, 500858, Control_c, 0, 64, 72
1, 500869, Note_off_c, 0, 60, 61
1, 500869, Poly_aftertouch_c, 0, 60, 0
1, 500876, Control_c, 0, 64, 77
1, 500887, Note_off_c, 0, 56, 57
1, 500891, Note_off_c, 0, 63, 60
1, 500891, Poly_aftertouch_c, 0, 63, 0
1, 500896, Control_c, 0, 64, 81
1, 500914, Control_c, 0, 64, 85
1, 500927, Note_off_c, 0, 44, 58
1, 500927, Poly_aftertouch_c, 0, 44, 0
1, 500931, Control_c, 0, 64, 88
1, 501026, Control_c, 0, 64, 85
1, 501045, Control_c, 0, 64, 83
1, 501063, Control_c, 0, 64, 81
1, 501083, Control_c, 0, 64, 78
1, 501102, Control_c, 0, 64, 73
1, 501118, Note_on_c, 0, 56, 33
1, 501118, Control_c, 0, 64, 68
1, 501139, Control_c, 0, 64, 62
1, 501157, Control_c, 0, 64, 56
1, 501176, Control_c, 0, 64, 48
1, 501194, Control_c, 0, 64, 34
1, 501232, Control_c, 0, 64, 0
1, 501250, Control_c, 0, 67, 123
1, 501289, Control_c, 0, 67, 118
1, 501326, Control_c, 0, 67, 111
1, 501336, Note_on_c, 0, 65, 55
1, 501352, Note_on_c, 0, 49, 37
1, 501356, Note_on_c, 0, 37, 40
1, 501363, Control_c, 0, 67, 104
1, 501381, Control_c, 0, 64, 17
1, 501383, Control_c, 0, 67, 100
1, 501401, Control_c, 0, 64, 27
1, 501402, Control_c, 0, 67, 94
1, 501412, Note_on_c, 0, 53, 27
1, 501420, Control_c, 0, 64, 36
1, 501421, Control_c, 0, 67, 87
1, 501438, Control_c, 0, 64, 45
1, 501438, Control_c, 0, 67, 81
1, 501456, Control_c, 0, 64, 55
1, 501456, Control_c, 0, 67, 76
1, 501468, Note_off_c, 0, 56, 60
1, 501475, Control_c, 0, 64, 64
1, 501477, Control_c, 0, 67, 71
1, 501495, Control_c, 0, 64, 71
1, 501496, Control_c, 0, 67, 63
1, 501512, Control_c, 0, 64, 76
1, 501513, Control_c, 0, 67, 54
1, 501531, Control_c, 0, 64, 81
1, 501534, Control_c, 0, 67, 45
1, 501550, Control_c, 0, 64, 88
1, 501553, Control_c, 0, 67, 37
1, 501570, Control_c, 0, 64, 96
1, 501570, Control_c, 0, 67, 29
1, 501587, Control_c, 0, 64, 105
1, 501588, Control_c, 0, 67, 21
1, 501606, Control_c, 0, 64, 113
1, 501607, Control_c, 0, 67, 12
1, 501610, Note_off_c, 0, 53, 55
1, 501610, Poly_aftertouch_c, 0, 53, 0
1, 501626, Control_c, 0, 64, 119
1, 501629, Note_off_c, 0, 49, 40
1, 501643, Control_c, 0, 64, 125
1, 501646, Note_off_c, 0, 65, 47
1, 501695, Note_on_c, 0, 62, 18
1, 501701, Note_on_c, 0, 56, 31
1, 501712, Note_on_c, 0, 44, 48
1, 501721, Note_off_c, 0, 37, 56
1, 501887, Note_on_c, 0, 63, 65
1, 501887, Control_c, 0, 64, 113
1, 501905, Control_c, 0, 64, 98
1, 501924, Control_c, 0, 64, 79
1, 501941, Note_on_c, 0, 48, 50
1, 501943, Control_c, 0, 64, 62
1, 501950, Note_on_c, 0, 36, 50
1, 501962, Note_on_c, 0, 51, 53
1, 501962, Control_c, 0, 64, 51
1, 501980, Control_c, 0, 64, 42
1, 501980, Control_c, 0, 67, 0
1, 501986, Poly_aftertouch_c, 0, 39, 0
1, 502014, Note_off_c, 0, 44, 53
1, 502014, Poly_aftertouch_c, 0, 44, 0
1, 502017, Note_off_c, 0, 56, 49
1, 502017, Control_c, 0, 64, 40
1, 502036, Control_c, 0, 64, 45
1, 502054, Control_c, 0, 64, 52
1, 502073, Control_c, 0, 64, 63
1, 502092, Control_c, 0, 64, 72
1, 502111, Control_c, 0, 64, 79
1, 502129, Control_c, 0, 64, 87
1, 502136, Note_off_c, 0, 51, 58
1, 502136, Poly_aftertouch_c, 0, 51, 0
1, 502149, Control_c, 0, 64, 97
1, 502167, Control_c, 0, 64, 111
1, 502183, Note_off_c, 0, 48, 55
1, 502185, Control_c, 0, 64, 126
1, 502203, Note_off_c, 0, 36, 38
1, 502246, Note_on_c, 0, 56, 60
1, 502256, Note_on_c, 0, 44, 51
1, 502260, Note_off_c, 0, 63, 59
1, 502260, Poly_aftertouch_c, 0, 63, 0
1, 502289, Note_off_c, 0, 62, 21
1, 502448, Note_on_c, 0, 66, 74
1, 502464, Note_on_c, 0, 60, 61
1, 502475, Note_on_c, 0, 51, 66
1, 502484, Control_c, 0, 64, 114
1, 502493, Note_on_c, 0, 54, 55
1, 502500, Note_on_c, 0, 39, 55
1, 502502, Control_c, 0, 64, 93
1, 502509, Note_off_c, 0, 56, 58
1, 502522, Control_c, 0, 64, 70
1, 502528, Note_off_c, 0, 44, 54
1, 502528, Poly_aftertouch_c, 0, 44, 0
1, 502541, Control_c, 0, 64, 48
1, 502559, Control_c, 0, 64, 10
1, 502579, Control_c, 0, 64, 0
1, 502634, Control_c, 0, 64, 10
1, 502653, Control_c, 0, 64, 32
1, 502671, Control_c, 0, 64, 50
1, 502686, Poly_aftertouch_c, 0, 41, 0
1, 502690, Control_c, 0, 64, 66
1, 502710, Control_c, 0, 64, 78
1, 502717, Note_off_c, 0, 51, 53
1, 502717, Poly_aftertouch_c, 0, 51, 0
1, 502729, Control_c, 0, 64, 89
1, 502737, Note_off_c, 0, 54, 58
1, 502746, Control_c, 0, 64, 103
1, 502765, Control_c, 0, 64, 120
1, 502767, Note_off_c, 0, 66, 58
1, 502784, Control_c, 0, 64, 127
1, 502799, Note_on_c, 0, 56, 54
1, 502825, Note_on_c, 0, 44, 58
1, 502859, Poly_aftertouch_c, 0, 41, 0
1, 502940, Note_off_c, 0, 39, 54
1, 503000, Note_on_c, 0, 65, 81
1, 503027, Control_c, 0, 64, 119
1, 503045, Control_c, 0, 64, 95
1, 503047, Note_on_c, 0, 37, 63
1, 503047, Note_on_c, 0, 49, 52
1, 503064, Control_c, 0, 64, 69
1, 503071, Note_on_c, 0, 53, 36
1, 503072, Note_off_c, 0, 44, 49
1, 503072, Poly_aftertouch_c, 0, 44, 0
1, 503083, Control_c, 0, 64, 43
1, 503101, Control_c, 0, 64, 0
1, 503106, Note_off_c, 0, 60, 60
1, 503106, Poly_aftertouch_c, 0, 60, 0
1, 503154, Note_off_c, 0, 56, 39
1, 503158, Control_c, 0, 64, 13
1, 503178, Control_c, 0, 64, 36
1, 503195, Control_c, 0, 64, 54
1, 503214, Control_c, 0, 64, 68
1, 503235, Control_c, 0, 64, 78
1, 503240, Note_off_c, 0, 53, 51
1, 503240, Poly_aftertouch_c, 0, 53, 0
1, 503252, Control_c, 0, 64, 86
1, 503269, Control_c, 0, 64, 95
1, 503290, Control_c, 0, 64, 106
1, 503308, Control_c, 0, 64, 117
1, 503325, Control_c, 0, 64, 127
1, 503365, Note_on_c, 0, 44, 67
1, 503370, Note_off_c, 0, 37, 57
1, 503383, Note_off_c, 0, 65, 60
1, 503383, Note_on_c, 0, 61, 68
1, 503404, Note_off_c, 0, 44, 62
1, 503404, Poly_aftertouch_c, 0, 44, 0
1, 503421, Note_off_c, 0, 49, 23
1, 503437, Note_off_c, 0, 61, 53
1, 503437, Poly_aftertouch_c, 0, 61, 0
1, 503470, Poly_aftertouch_c, 0, 63, 0
1, 503571, Note_on_c, 0, 68, 82
1, 503588, Control_c, 0, 64, 116
1, 503608, Note_on_c, 0, 56, 66
1, 503608, Control_c, 0, 64, 92
1, 503619, Note_on_c, 0, 41, 62
1, 503622, Note_on_c, 0, 53, 44
1, 503626, Control_c, 0, 64, 69
1, 503645, Control_c, 0, 64, 49
1, 503662, Control_c, 0, 64, 25
1, 503682, Control_c, 0, 64, 0
1, 503720, Control_c, 0, 64, 25
1, 503737, Control_c, 0, 64, 40
1, 503752, Poly_aftertouch_c, 0, 52, 0
1, 503755, Control_c, 0, 64, 55
1, 503776, Control_c, 0, 64, 69
1, 503779, Note_off_c, 0, 41, 55
1, 503793, Control_c, 0, 64, 80
1, 503810, Note_off_c, 0, 53, 56
1, 503810, Poly_aftertouch_c, 0, 53, 0
1, 503811, Control_c, 0, 64, 92
1, 503832, Note_off_c, 0, 56, 58
1, 503832, Control_c, 0, 64, 106
1, 503850, Control_c, 0, 64, 122
1, 503868, Control_c, 0, 64, 127
1, 503887, Control_c, 0, 67, 9
1, 503923, Note_on_c, 0, 49, 62
1, 503925, Note_on_c, 0, 61, 68
1, 503925, Control_c, 0, 67, 14
1, 503961, Control_c, 0, 67, 21
1, 503968, Note_off_c, 0, 68, 61
1, 503968, Poly_aftertouch_c, 0, 68, 0
1, 503981, Control_c, 0, 67, 27
1, 503999, Control_c, 0, 67, 33
1, 504018, Control_c, 0, 67, 40
1, 504037, Control_c, 0, 67, 46
1, 504056, Control_c, 0, 67, 52
1, 504074, Control_c, 0, 64, 106
1, 504075, Control_c, 0, 67, 58
1, 504094, Control_c, 0, 64, 83
1, 504096, Control_c, 0, 67, 65
1, 504104, Note_off_c, 0, 49, 55
1, 504111, Control_c, 0, 64, 59
1, 504114, Control_c, 0, 67, 71
1, 504131, Control_c, 0, 64, 34
1, 504132, Control_c, 0, 67, 78
1, 504143, Note_on_c, 0, 70, 66
1, 504150, Control_c, 0, 64, 0
1, 504150, Control_c, 0, 67, 84
1, 504161, Note_on_c, 0, 42, 55
1, 504168, Control_c, 0, 67, 91
1, 504172, Note_on_c, 0, 54, 49
1, 504173, Poly_aftertouch_c, 0, 67, 127
1, 504184, Note_on_c, 0, 58, 50
1, 504187, Control_c, 0, 67, 98
1, 504204, Control_c, 0, 67, 106
1, 504224, Control_c, 0, 64, 20
1, 504227, Control_c, 0, 67, 111
1, 504242, Control_c, 0, 64, 45
1, 504261, Control_c, 0, 64, 66
1, 504262, Control_c, 0, 67, 120
1, 504264, Note_off_c, 0, 61, 57
1, 504264, Poly_aftertouch_c, 0, 61, 0
1, 504273, Note_off_c, 0, 54, 59
1, 504280, Control_c, 0, 64, 82
1, 504281, Control_c, 0, 67, 124
1, 504299, Control_c, 0, 64, 97
1, 504312, Poly_aftertouch_c, 0, 67, 0
1, 504313, Note_off_c, 0, 42, 56
1, 504314, Note_off_c, 0, 58, 59
1, 504316, Control_c, 0, 64, 111
1, 504324, Note_off_c, 0, 70, 63
1, 504335, Control_c, 0, 64, 122
1, 504355, Control_c, 0, 64, 127
1, 504449, Control_c, 0, 64, 121
1, 504466, Control_c, 0, 64, 115
1, 504474, Note_on_c, 0, 41, 56
1, 504485, Control_c, 0, 64, 106
1, 504488, Note_on_c, 0, 53, 36
1, 504491, Note_on_c, 0, 63, 55
1, 504503, Note_on_c, 0, 58, 44
1, 504505, Note_on_c, 0, 61, 49
1, 504505, Control_c, 0, 64, 91
1, 504521, Note_off_c, 0, 53, 46
1, 504521, Poly_aftertouch_c, 0, 53, 0
1, 504522, Control_c, 0, 64, 75
1, 504541, Control_c, 0, 64, 63
1, 504560, Note_off_c, 0, 58, 59
1, 504561, Note_off_c, 0, 61, 57
1, 504561, Poly_aftertouch_c, 0, 61, 0
1, 504562, Control_c, 0, 64, 56
1, 504569, Note_off_c, 0, 63, 56
1, 504579, Control_c, 0, 64, 51
1, 504598, Control_c, 0, 64, 44
1, 504615, Control_c, 0, 64, 35
1, 504635, Control_c, 0, 64, 15
1, 504655, Control_c, 0, 64, 0
1, 504675, Note_off_c, 0, 41, 42
1, 504693, Note_on_c, 0, 42, 41
1, 504699, Note_on_c, 0, 54, 36
1, 504705, Note_on_c, 0, 61, 49
1, 504717, Note_on_c, 0, 63, 56
1, 504725, Note_on_c, 0, 58, 38
1, 504765, Control_c, 0, 64, 29
1, 504786, Control_c, 0, 64, 51
1, 504802, Control_c, 0, 64, 68
1, 504822, Control_c, 0, 64, 79
1, 504826, Note_off_c, 0, 58, 60
1, 504834, Note_off_c, 0, 63, 61
1, 504836, Note_off_c, 0, 61, 63
1, 504836, Poly_aftertouch_c, 0, 61, 0
1, 504840, Control_c, 0, 64, 86
1, 504846, Note_off_c, 0, 42, 60
1, 504859, Note_off_c, 0, 54, 56
1, 504934, Control_c, 0, 64, 82
1, 504953, Control_c, 0, 64, 77
1, 504971, Control_c, 0, 64, 69
1, 504991, Control_c, 0, 64, 60
1, 505008, Control_c, 0, 64, 52
1, 505027, Control_c, 0, 64, 41
1, 505048, Control_c, 0, 64, 13
1, 505064, Control_c, 0, 64, 0
1, 505066, Note_on_c, 0, 43, 48
1, 505074, Note_on_c, 0, 55, 36
1, 505089, Note_on_c, 0, 61, 42
1, 505094, Note_on_c, 0, 58, 36
1, 505110, Note_off_c, 0, 55, 54
1, 505110, Poly_aftertouch_c, 0, 55, 0
1, 505124, Note_on_c, 0, 63, 18
1, 505152, Note_off_c, 0, 58, 52
1, 505192, Note_off_c, 0, 63, 41
1, 505194, Note_off_c, 0, 43, 56
1, 505206, Note_off_c, 0, 61, 50
1, 505206, Poly_aftertouch_c, 0, 61, 0
1, 505329, Note_on_c, 0, 63, 44
1, 505345, Note_on_c, 0, 44, 37
1, 505354, Note_on_c, 0, 56, 23
1, 505359, Note_on_c, 0, 60, 36
1, 505402, Control_c, 0, 64, 12
1, 505420, Control_c, 0, 64, 32
1, 505439, Control_c, 0, 64, 48
1, 505458, Control_c, 0, 64, 61
1, 505476, Control_c, 0, 64, 70
1, 505488, Note_off_c, 0, 63, 60
1, 505494, Control_c, 0, 64, 76
1, 505514, Control_c, 0, 64, 79
1, 505532, Control_c, 0, 64, 83
1, 505551, Control_c, 0, 64, 87
1, 505556, Note_off_c, 0, 56, 47
1, 505570, Control_c, 0, 67, 117
1, 505590, Control_c, 0, 64, 91
1, 505591, Control_c, 0, 67, 110
1, 505593, Note_off_c, 0, 44, 36
1, 505593, Poly_aftertouch_c, 0, 44, 0
1, 505608, Control_c, 0, 67, 103
1, 505626, Control_c, 0, 67, 98
1, 505682, Control_c, 0, 67, 93
1, 505720, Control_c, 0, 67, 89
1, 505782, Note_on_c, 0, 68, 42
1, 505786, Note_off_c, 0, 60, 31
1, 505786, Poly_aftertouch_c, 0, 60, 0
1, 505869, Control_c, 0, 64, 88
1, 505963, Control_c, 0, 64, 86
1, 506001, Control_c, 0, 64, 83
1, 506038, Control_c, 0, 64, 81
1, 506051, Note_on_c, 0, 72, 57
1, 506097, Note_on_c, 0, 44, 29
1, 506101, Note_on_c, 0, 56, 27
1, 506111, Note_on_c, 0, 60, 25
1, 506146, Note_off_c, 0, 68, 55
1, 506146, Poly_aftertouch_c, 0, 68, 0
1, 506149, Control_c, 0, 64, 83
1, 506168, Control_c, 0, 64, 86
1, 506187, Control_c, 0, 67, 85
1, 506206, Control_c, 0, 64, 93
1, 506206, Control_c, 0, 67, 79
1, 506225, Control_c, 0, 64, 97
1, 506226, Control_c, 0, 67, 72
1, 506244, Control_c, 0, 64, 103
1, 506245, Control_c, 0, 67, 64
1, 506262, Control_c, 0, 64, 110
1, 506264, Control_c, 0, 67, 56
1, 506281, Control_c, 0, 64, 116
1, 506282, Control_c, 0, 67, 49
1, 506288, Note_off_c, 0, 60, 39
1, 506288, Poly_aftertouch_c, 0, 60, 0
1, 506301, Control_c, 0, 64, 122
1, 506302, Control_c, 0, 67, 41
1, 506319, Control_c, 0, 64, 126
1, 506320, Control_c, 0, 67, 34
1, 506337, Control_c, 0, 67, 27
1, 506350, Note_off_c, 0, 44, 37
1, 506350, Poly_aftertouch_c, 0, 44, 0
1, 506354, Control_c, 0, 67, 19
1, 506374, Control_c, 0, 67, 12
1, 506377, Note_off_c, 0, 56, 36
1, 506393, Note_off_c, 0, 72, 58
1, 506420, Note_on_c, 0, 68, 53
1, 506426, Note_on_c, 0, 51, 47
1, 506580, Control_c, 0, 64, 107
1, 506599, Control_c, 0, 64, 83
1, 506618, Control_c, 0, 64, 63
1, 506620, Control_c, 0, 67, 19
1, 506635, Note_on_c, 0, 73, 66
1, 506636, Control_c, 0, 64, 47
1, 506637, Control_c, 0, 67, 25
1, 506655, Control_c, 0, 64, 12
1, 506656, Control_c, 0, 67, 31
1, 506660, Note_on_c, 0, 46, 43
1, 506667, Note_on_c, 0, 58, 35
1, 506668, Note_on_c, 0, 61, 54
1, 506673, Control_c, 0, 64, 0
1, 506674, Control_c, 0, 67, 39
1, 506692, Control_c, 0, 67, 48
1, 506701, Note_off_c, 0, 68, 58
1, 506701, Poly_aftertouch_c, 0, 68, 0
1, 506707, Poly_aftertouch_c, 0, 51, 20
1, 506710, Note_off_c, 0, 51, 26
1, 506710, Poly_aftertouch_c, 0, 51, 0
1, 506711, Poly_aftertouch_c, 0, 51, 0
1, 506711, Control_c, 0, 67, 57
1, 506729, Control_c, 0, 67, 63
1, 506748, Control_c, 0, 67, 68
1, 506766, Control_c, 0, 67, 72
1, 506786, Control_c, 0, 67, 77
1, 506804, Control_c, 0, 67, 83
1, 506822, Control_c, 0, 67, 89
1, 506841, Control_c, 0, 64, 16
1, 506861, Control_c, 0, 64, 28
1, 506862, Control_c, 0, 67, 95
1, 506879, Control_c, 0, 64, 37
1, 506897, Control_c, 0, 64, 46
1, 506899, Control_c, 0, 67, 101
1, 506916, Control_c, 0, 64, 55
1, 506936, Control_c, 0, 64, 62
1, 506937, Control_c, 0, 67, 106
1, 506953, Control_c, 0, 64, 67
1, 506963, Note_off_c, 0, 46, 55
1, 506963, Poly_aftertouch_c, 0, 46, 0
1, 506972, Control_c, 0, 64, 69
1, 506987, Note_off_c, 0, 73, 59
1, 506995, Note_on_c, 0, 51, 40
1, 506995, Note_on_c, 0, 67, 52
1, 507010, Control_c, 0, 64, 72
1, 507015, Note_off_c, 0, 58, 56
1, 507021, Note_off_c, 0, 61, 60
1, 507021, Poly_aftertouch_c, 0, 61, 0
1, 507027, Control_c, 0, 64, 74
1, 507066, Control_c, 0, 64, 76
1, 507112, Note_off_c, 0, 67, 54
1, 507122, Poly_aftertouch_c, 0, 68, 0
1, 507159, Control_c, 0, 64, 74
1, 507179, Control_c, 0, 64, 72
1, 507191, Note_on_c, 0, 75, 62
1, 507196, Control_c, 0, 64, 69
1, 507208, Note_on_c, 0, 66, 44
1, 507213, Control_c, 0, 64, 65
1, 507231, Note_on_c, 0, 63, 47
1, 507233, Control_c, 0, 64, 60
1, 507251, Note_on_c, 0, 48, 35
1, 507252, Control_c, 0, 64, 52
1, 507256, Note_on_c, 0, 60, 43
1, 507272, Control_c, 0, 64, 37
1, 507289, Control_c, 0, 64, 0
1, 507383, Control_c, 0, 67, 102
1, 507390, Note_off_c, 0, 51, 37
1, 507421, Control_c, 0, 64, 23
1, 507440, Control_c, 0, 64, 40
1, 507458, Control_c, 0, 64, 54
1, 507479, Control_c, 0, 64, 66
1, 507491, Note_off_c, 0, 75, 54
1, 507495, Control_c, 0, 64, 73
1, 507507, Note_off_c, 0, 63, 57
1, 507512, Control_c, 0, 64, 80
1, 507528, Note_off_c, 0, 48, 54
1, 507532, Control_c, 0, 64, 87
1, 507535, Control_c, 0, 67, 98
1, 507553, Control_c, 0, 64, 95
1, 507554, Note_off_c, 0, 60, 61
1, 507554, Poly_aftertouch_c, 0, 60, 0
1, 507558, Note_on_c, 0, 68, 60
1, 507572, Note_on_c, 0, 56, 45
1, 507572, Control_c, 0, 64, 101
1, 507573, Control_c, 0, 67, 94
1, 507590, Note_off_c, 0, 66, 63
1, 507590, Control_c, 0, 64, 106
1, 507595, Note_off_c, 0, 68, 66
1, 507608, Control_c, 0, 67, 87
1, 507626, Control_c, 0, 67, 83
1, 507645, Control_c, 0, 67, 79
1, 507664, Control_c, 0, 67, 74
1, 507683, Control_c, 0, 67, 70
1, 507701, Control_c, 0, 67, 65
1, 507721, Control_c, 0, 64, 100
1, 507722, Control_c, 0, 67, 59
1, 507739, Control_c, 0, 64, 92
1, 507739, Control_c, 0, 67, 53
1, 507743, Note_on_c, 0, 77, 72
1, 507757, Control_c, 0, 64, 78
1, 507760, Control_c, 0, 67, 47
1, 507763, Note_off_c, 0, 56, 46
1, 507778, Note_on_c, 0, 61, 48
1, 507778, Control_c, 0, 64, 61
1, 507778, Control_c, 0, 67, 40
1, 507781, Note_on_c, 0, 65, 57
1, 507796, Control_c, 0, 64, 44
1, 507797, Control_c, 0, 67, 32
1, 507804, Note_on_c, 0, 49, 44
1, 507815, Control_c, 0, 64, 10
1, 507815, Control_c, 0, 67, 21
1, 507832, Control_c, 0, 64, 0
1, 507852, Control_c, 0, 67, 0
1, 508000, Control_c, 0, 64, 11
1, 508020, Control_c, 0, 64, 30
1, 508038, Control_c, 0, 64, 43
1, 508056, Control_c, 0, 64, 50
1, 508076, Control_c, 0, 64, 56
1, 508093, Control_c, 0, 64, 61
1, 508112, Control_c, 0, 64, 68
1, 508116, Note_on_c, 0, 68, 62
1, 508122, Note_on_c, 0, 56, 48
1, 508132, Control_c, 0, 64, 73
1, 508145, Note_off_c, 0, 61, 39
1, 508145, Poly_aftertouch_c, 0, 61, 0
1, 508151, Control_c, 0, 64, 76
1, 508174, Note_off_c, 0, 65, 57
1, 508181, Note_off_c, 0, 49, 39
1, 508188, Control_c, 0, 64, 79
1, 508208, Note_off_c, 0, 77, 54
1, 508225, Control_c, 0, 64, 82
1, 508282, Control_c, 0, 64, 80
1, 508299, Control_c, 0, 64, 74
1, 508320, Control_c, 0, 64, 60
1, 508322, Note_on_c, 0, 77, 83
1, 508328, Note_on_c, 0, 61, 54
1, 508337, Control_c, 0, 64, 40
1, 508349, Note_on_c, 0, 65, 51
1, 508353, Note_on_c, 0, 49, 50
1, 508355, Control_c, 0, 64, 0
1, 508368, Note_off_c, 0, 56, 51
1, 508449, Note_off_c, 0, 68, 60
1, 508469, Control_c, 0, 64, 30
1, 508487, Control_c, 0, 64, 51
1, 508506, Control_c, 0, 64, 66
1, 508524, Control_c, 0, 64, 76
1, 508544, Control_c, 0, 64, 85
1, 508563, Control_c, 0, 64, 97
1, 508572, Note_off_c, 0, 49, 55
1, 508579, Control_c, 0, 64, 109
1, 508587, Note_off_c, 0, 65, 58
1, 508589, Note_off_c, 0, 61, 53
1, 508589, Poly_aftertouch_c, 0, 61, 0
1, 508599, Control_c, 0, 64, 121
1, 508619, Control_c, 0, 64, 127
1, 508705, Note_off_c, 0, 77, 61
1, 508706, Note_on_c, 0, 73, 80
1, 508718, Note_on_c, 0, 56, 63
1, 508827, Note_off_c, 0, 56, 40
1, 508861, Control_c, 0, 64, 116
1, 508881, Control_c, 0, 64, 94
1, 508891, Note_on_c, 0, 78, 83
1, 508899, Control_c, 0, 64, 69
1, 508916, Note_on_c, 0, 63, 54
1, 508918, Control_c, 0, 64, 44
1, 508923, Note_on_c, 0, 66, 65
1, 508924, Note_on_c, 0, 51, 54
1, 508935, Control_c, 0, 64, 0
1, 508941, Note_off_c, 0, 73, 60
1, 509048, Control_c, 0, 64, 31
1, 509067, Control_c, 0, 64, 51
1, 509086, Control_c, 0, 64, 67
1, 509103, Control_c, 0, 64, 78
1, 509124, Control_c, 0, 64, 88
1, 509136, Note_off_c, 0, 63, 57
1, 509143, Control_c, 0, 64, 101
1, 509153, Note_off_c, 0, 51, 60
1, 509159, Control_c, 0, 64, 114
1, 509178, Control_c, 0, 64, 127
1, 509222, Note_off_c, 0, 78, 58
1, 509247, Note_on_c, 0, 72, 77
1, 509254, Note_on_c, 0, 56, 57
1, 509276, Note_off_c, 0, 66, 60
1, 509289, Note_on_c, 0, 73, 34
1, 509311, Note_off_c, 0, 72, 64
1, 509332, Note_off_c, 0, 73, 55
1, 509423, Note_on_c, 0, 80, 84
1, 509440, Control_c, 0, 64, 105
1, 509446, Note_on_c, 0, 65, 66
1, 509446, Note_on_c, 0, 71, 72
1, 509451, Note_on_c, 0, 68, 71
1, 509454, Note_on_c, 0, 53, 59
1, 509459, Control_c, 0, 64, 76
1, 509478, Control_c, 0, 64, 46
1, 509494, Note_off_c, 0, 56, 30
1, 509496, Control_c, 0, 64, 0
1, 509609, Control_c, 0, 64, 8
1, 509627, Control_c, 0, 64, 37
1, 509632, Note_off_c, 0, 53, 57
1, 509632, Poly_aftertouch_c, 0, 53, 0
1, 509646, Control_c, 0, 64, 56
1, 509663, Note_off_c, 0, 65, 56
1, 509665, Control_c, 0, 64, 70
1, 509684, Control_c, 0, 64, 80
1, 509689, Note_off_c, 0, 68, 54
1, 509702, Control_c, 0, 64, 90
1, 509720, Control_c, 0, 64, 101
1, 509740, Control_c, 0, 64, 112
1, 509760, Control_c, 0, 64, 123
1, 509776, Control_c, 0, 64, 127
1, 509777, Note_on_c, 0, 73, 73
1, 509794, Note_on_c, 0, 61, 52
1, 509795, Note_off_c, 0, 71, 60
1, 509797, Note_off_c, 0, 80, 61
1, 509847, Note_off_c, 0, 73, 59
1, 509965, Note_on_c, 0, 82, 88
1, 509982, Control_c, 0, 64, 121
1, 509991, Note_on_c, 0, 70, 73
1, 510000, Control_c, 0, 64, 99
1, 510003, Note_on_c, 0, 66, 62
1, 510010, Note_off_c, 0, 61, 51
1, 510010, Poly_aftertouch_c, 0, 61, 0
1, 510019, Control_c, 0, 64, 71
1, 510021, Note_on_c, 0, 54, 49
1, 510038, Control_c, 0, 64, 46
1, 510058, Control_c, 0, 64, 0
1, 510152, Control_c, 0, 64, 12
1, 510170, Control_c, 0, 64, 35
1, 510189, Control_c, 0, 64, 52
1, 510207, Control_c, 0, 64, 68
1, 510226, Control_c, 0, 64, 82
1, 510244, Control_c, 0, 64, 98
1, 510263, Control_c, 0, 64, 120
1, 510281, Control_c, 0, 64, 127
1, 510297, Note_off_c, 0, 66, 34
1, 510321, Note_on_c, 0, 61, 56
1, 510322, Note_off_c, 0, 54, 57
1, 510322, Note_on_c, 0, 73, 72
1, 510345, Note_off_c, 0, 70, 59
1, 510360, Note_off_c, 0, 82, 62
1, 510381, Note_off_c, 0, 73, 51
1, 510512, Note_on_c, 0, 82, 85
1, 510534, Note_off_c, 0, 61, 52
1, 510534, Poly_aftertouch_c, 0, 61, 0
1, 510544, Control_c, 0, 64, 112
1, 510550, Note_on_c, 0, 66, 57
1, 510553, Note_on_c, 0, 70, 58
1, 510563, Control_c, 0, 64, 88
1, 510574, Note_on_c, 0, 54, 40
1, 510580, Control_c, 0, 64, 63
1, 510600, Control_c, 0, 64, 40
1, 510618, Control_c, 0, 64, 0
1, 510694, Control_c, 0, 64, 26
1, 510711, Control_c, 0, 64, 42
1, 510731, Control_c, 0, 64, 58
1, 510749, Control_c, 0, 64, 71
1, 510754, Note_off_c, 0, 66, 53
1, 510768, Control_c, 0, 64, 80
1, 510787, Control_c, 0, 64, 89
1, 510805, Control_c, 0, 64, 101
1, 510810, Note_off_c, 0, 70, 56
1, 510825, Control_c, 0, 64, 114
1, 510843, Control_c, 0, 64, 124
1, 510883, Note_on_c, 0, 61, 53
1, 510886, Note_on_c, 0, 73, 65
1, 510903, Note_off_c, 0, 82, 46
1, 510942, Note_off_c, 0, 54, 38
1, 511068, Control_c, 0, 64, 119
1, 511080, Note_on_c, 0, 83, 81
1, 511086, Control_c, 0, 64, 104
1, 511104, Control_c, 0, 64, 84
1, 511110, Note_on_c, 0, 65, 54
1, 511115, Note_off_c, 0, 61, 53
1, 511115, Poly_aftertouch_c, 0, 61, 0
1, 511123, Control_c, 0, 64, 64
1, 511126, Note_on_c, 0, 71, 41
1, 511126, Control_c, 0, 67, 9
1, 511134, Note_on_c, 0, 53, 37
1, 511142, Control_c, 0, 64, 43
1, 511147, Note_off_c, 0, 73, 56
1, 511161, Control_c, 0, 64, 0
1, 511179, Control_c, 0, 67, 14
1, 511216, Control_c, 0, 67, 21
1, 511236, Control_c, 0, 67, 26
1, 511254, Control_c, 0, 67, 32
1, 511266, Poly_aftertouch_c, 0, 72, 0
1, 511273, Control_c, 0, 64, 27
1, 511274, Control_c, 0, 67, 36
1, 511292, Control_c, 0, 64, 46
1, 511311, Control_c, 0, 64, 64
1, 511311, Control_c, 0, 67, 44
1, 511328, Control_c, 0, 64, 78
1, 511329, Control_c, 0, 67, 48
1, 511349, Control_c, 0, 64, 89
1, 511352, Control_c, 0, 67, 52
1, 511367, Control_c, 0, 64, 102
1, 511369, Control_c, 0, 67, 56
1, 511386, Control_c, 0, 64, 114
1, 511403, Control_c, 0, 64, 124
1, 511404, Control_c, 0, 67, 60
1, 511406, Note_off_c, 0, 83, 54
1, 511431, Note_off_c, 0, 65, 29
1, 511443, Note_on_c, 0, 73, 60
1, 511471, Note_on_c, 0, 61, 45
1, 511474, Note_off_c, 0, 53, 49
1, 511474, Poly_aftertouch_c, 0, 53, 0
1, 511484, Note_off_c, 0, 71, 35
1, 511488, Poly_aftertouch_c, 0, 76, 127
1, 511496, Control_c, 0, 67, 64
1, 511512, Poly_aftertouch_c, 0, 76, 0
1, 511534, Control_c, 0, 67, 69
1, 511590, Control_c, 0, 67, 73
1, 511610, Control_c, 0, 64, 110
1, 511628, Control_c, 0, 64, 88
1, 511630, Control_c, 0, 67, 78
1, 511632, Note_on_c, 0, 81, 71
1, 511645, Note_off_c, 0, 61, 50
1, 511645, Poly_aftertouch_c, 0, 61, 0
1, 511647, Control_c, 0, 64, 67
1, 511658, Note_on_c, 0, 53, 42
1, 511662, Note_off_c, 0, 73, 56
1, 511665, Control_c, 0, 64, 50
1, 511669, Note_on_c, 0, 65, 45
1, 511682, Note_on_c, 0, 69, 42
1, 511683, Control_c, 0, 64, 32
1, 511703, Control_c, 0, 64, 17
1, 511742, Control_c, 0, 64, 26
1, 511743, Control_c, 0, 67, 83
1, 511760, Control_c, 0, 64, 37
1, 511778, Control_c, 0, 64, 50
1, 511797, Control_c, 0, 64, 63
1, 511815, Control_c, 0, 64, 74
1, 511821, Note_off_c, 0, 53, 38
1, 511821, Poly_aftertouch_c, 0, 53, 0
1, 511835, Control_c, 0, 64, 80
1, 511852, Control_c, 0, 64, 86
1, 511871, Control_c, 0, 64, 93
1, 511890, Control_c, 0, 64, 102
1, 511906, Note_off_c, 0, 65, 48
1, 511909, Control_c, 0, 64, 111
1, 511914, Note_off_c, 0, 69, 54
1, 511914, Poly_aftertouch_c, 0, 69, 0
1, 511927, Control_c, 0, 64, 119
1, 511929, Control_c, 0, 67, 78
1, 511939, Note_off_c, 0, 81, 44
1, 511945, Control_c, 0, 64, 125
1, 511948, Poly_aftertouch_c, 0, 76, 127
1, 511965, Control_c, 0, 67, 70
1, 511983, Control_c, 0, 67, 63
1, 511998, Note_on_c, 0, 61, 45
1, 512002, Note_on_c, 0, 73, 37
1, 512002, Control_c, 0, 67, 54
1, 512021, Control_c, 0, 67, 47
1, 512040, Control_c, 0, 67, 41
1, 512050, Poly_aftertouch_c, 0, 78, 127
1, 512056, Control_c, 0, 67, 37
1, 512089, Poly_aftertouch_c, 0, 78, 0
1, 512152, Control_c, 0, 64, 120
1, 512171, Control_c, 0, 64, 105
1, 512186, Note_on_c, 0, 82, 59
1, 512188, Control_c, 0, 64, 87
1, 512196, Note_off_c, 0, 61, 35
1, 512196, Note_on_c, 0, 54, 42
1, 512196, Poly_aftertouch_c, 0, 61, 0
1, 512201, Note_on_c, 0, 66, 39
1, 512206, Control_c, 0, 64, 70
1, 512226, Control_c, 0, 64, 57
1, 512232, Note_on_c, 0, 70, 32
1, 512245, Control_c, 0, 64, 48
1, 512264, Control_c, 0, 64, 40
1, 512296, Note_off_c, 0, 73, 46
1, 512320, Control_c, 0, 64, 46
1, 512326, Poly_aftertouch_c, 0, 78, 127
1, 512339, Control_c, 0, 64, 54
1, 512358, Control_c, 0, 64, 64
1, 512366, Poly_aftertouch_c, 0, 76, 0
1, 512376, Control_c, 0, 64, 71
1, 512395, Control_c, 0, 64, 76
1, 512413, Control_c, 0, 64, 81
1, 512433, Control_c, 0, 64, 87
1, 512436, Control_c, 0, 67, 27
1, 512451, Control_c, 0, 64, 94
1, 512452, Control_c, 0, 67, 17
1, 512470, Control_c, 0, 64, 104
1, 512488, Control_c, 0, 64, 112
1, 512508, Control_c, 0, 64, 119
1, 512519, Note_off_c, 0, 54, 30
1, 512522, Note_off_c, 0, 66, 35
1, 512524, Control_c, 0, 64, 123
1, 512557, Note_on_c, 0, 61, 52
1, 512564, Control_c, 0, 64, 127
1, 512566, Note_on_c, 0, 73, 63
1, 512596, Note_off_c, 0, 70, 44
1, 512713, Control_c, 0, 67, 8
1, 512732, Control_c, 0, 64, 122
1, 512749, Control_c, 0, 64, 116
1, 512751, Note_on_c, 0, 70, 63
1, 512751, Note_on_c, 0, 76, 79
1, 512769, Control_c, 0, 64, 106
1, 512770, Control_c, 0, 67, 12
1, 512774, Note_on_c, 0, 55, 48
1, 512777, Note_on_c, 0, 64, 55
1, 512788, Control_c, 0, 64, 89
1, 512805, Note_off_c, 0, 61, 38
1, 512805, Poly_aftertouch_c, 0, 61, 0
1, 512807, Control_c, 0, 64, 72
1, 512809, Note_off_c, 0, 73, 57
1, 512809, Control_c, 0, 67, 17
1, 512825, Control_c, 0, 64, 56
1, 512828, Note_off_c, 0, 82, 58
1, 512844, Control_c, 0, 64, 41
1, 512845, Control_c, 0, 67, 25
1, 512863, Control_c, 0, 64, 18
1, 512864, Control_c, 0, 67, 31
1, 512881, Control_c, 0, 64, 0
1, 512882, Control_c, 0, 67, 38
1, 512899, Poly_aftertouch_c, 0, 78, 0
1, 512899, Control_c, 0, 67, 44
1, 512918, Control_c, 0, 67, 50
1, 512938, Control_c, 0, 64, 20
1, 512939, Control_c, 0, 67, 55
1, 512956, Control_c, 0, 64, 35
1, 512956, Control_c, 0, 67, 59
1, 512975, Control_c, 0, 64, 49
1, 512976, Control_c, 0, 67, 63
1, 512995, Control_c, 0, 64, 62
1, 512996, Control_c, 0, 67, 68
1, 513012, Control_c, 0, 64, 72
1, 513013, Control_c, 0, 67, 72
1, 513031, Control_c, 0, 64, 76
1, 513050, Control_c, 0, 64, 78
1, 513051, Control_c, 0, 67, 78
1, 513087, Control_c, 0, 64, 81
1, 513088, Control_c, 0, 67, 83
1, 513124, Control_c, 0, 67, 87
1, 513139, Note_off_c, 0, 64, 42
1, 513139, Note_off_c, 0, 70, 59
1, 513139, Poly_aftertouch_c, 0, 64, 0
1, 513148, Note_on_c, 0, 61, 42
1, 513158, Note_on_c, 0, 73, 41
1, 513163, Control_c, 0, 67, 95
1, 513180, Control_c, 0, 67, 102
1, 513199, Control_c, 0, 64, 79
1, 513200, Control_c, 0, 67, 109
1, 513208, Note_off_c, 0, 76, 47
1, 513218, Control_c, 0, 67, 115
1, 513238, Control_c, 0, 64, 75
1, 513238, Control_c, 0, 67, 121
1, 513246, Note_off_c, 0, 55, 37
1, 513246, Poly_aftertouch_c, 0, 55, 0
1, 513255, Control_c, 0, 64, 73
1, 513256, Control_c, 0, 67, 127
1, 513274, Control_c, 0, 64, 70
1, 513292, Control_c, 0, 64, 67
1, 513312, Control_c, 0, 64, 63
1, 513329, Control_c, 0, 64, 58
1, 513345, Note_on_c, 0, 77, 53
1, 513347, Control_c, 0, 64, 51
1, 513367, Control_c, 0, 64, 40
1, 513380, Note_on_c, 0, 56, 36
1, 513383, Note_on_c, 0, 68, 35
1, 513385, Control_c, 0, 64, 18
1, 513400, Note_on_c, 0, 65, 34
1, 513403, Control_c, 0, 64, 0
1, 513419, Note_off_c, 0, 73, 60
1, 513446, Note_off_c, 0, 61, 35
1, 513446, Poly_aftertouch_c, 0, 61, 0
1, 513460, Control_c, 0, 64, 13
1, 513479, Control_c, 0, 64, 27
1, 513499, Control_c, 0, 64, 40
1, 513517, Control_c, 0, 64, 51
1, 513535, Control_c, 0, 64, 61
1, 513554, Control_c, 0, 64, 69
1, 513573, Control_c, 0, 64, 73
1, 513592, Control_c, 0, 64, 75
1, 513610, Control_c, 0, 64, 77
1, 513629, Control_c, 0, 64, 79
1, 513634, Note_off_c, 0, 65, 39
1, 513647, Control_c, 0, 64, 81
1, 513666, Control_c, 0, 64, 83
1, 513679, Note_off_c, 0, 77, 47
1, 513707, Note_on_c, 0, 73, 44
1, 513714, Note_on_c, 0, 61, 37
1, 513736, Note_off_c, 0, 68, 57
1, 513736, Note_off_c, 0, 56, 53
1, 513757, Note_off_c, 0, 61, 51
1, 513757, Poly_aftertouch_c, 0, 61, 0
1, 513835, Control_c, 0, 64, 81
1, 513854, Control_c, 0, 64, 78
1, 513872, Control_c, 0, 64, 72
1, 513891, Control_c, 0, 64, 62
1, 513908, Note_on_c, 0, 72, 48
1, 513908, Control_c, 0, 64, 52
1, 513911, Note_on_c, 0, 44, 45
1, 513918, Note_on_c, 0, 66, 47
1, 513927, Control_c, 0, 64, 41
1, 513947, Control_c, 0, 64, 14
1, 513965, Control_c, 0, 64, 0
1, 513974, Note_off_c, 0, 66, 59
1, 513989, Note_off_c, 0, 73, 46
1, 514089, Note_on_c, 0, 78, 55
1, 514126, Note_off_c, 0, 78, 61
1, 514140, Note_off_c, 0, 72, 22
1, 514250, Note_on_c, 0, 56, 30
1, 514269, Note_on_c, 0, 75, 58
1, 514283, Note_on_c, 0, 72, 49
1, 514289, Note_on_c, 0, 66, 47
1, 514308, Note_off_c, 0, 56, 63
1, 514313, Note_off_c, 0, 72, 60
1, 514316, Note_off_c, 0, 75, 60
1, 514323, Note_off_c, 0, 66, 59
1, 514431, Note_off_c, 0, 44, 57
1, 514431, Poly_aftertouch_c, 0, 44, 0
1, 514473, Note_on_c, 0, 73, 51
1, 514485, Note_on_c, 0, 49, 38
1, 514521, Note_on_c, 0, 65, 18
1, 514564, Control_c, 0, 67, 123
1, 514583, Control_c, 0, 64, 25
1, 514584, Control_c, 0, 67, 115
1, 514601, Control_c, 0, 64, 43
1, 514602, Control_c, 0, 67, 102
1, 514620, Control_c, 0, 64, 57
1, 514621, Note_off_c, 0, 73, 62
1, 514621, Control_c, 0, 67, 83
1, 514639, Control_c, 0, 64, 67
1, 514640, Note_off_c, 0, 65, 48
1, 514640, Control_c, 0, 67, 62
1, 514657, Note_off_c, 0, 49, 53
1, 514658, Control_c, 0, 64, 71
1, 514659, Control_c, 0, 67, 44
1, 514675, Control_c, 0, 67, 32
1, 514695, Control_c, 0, 67, 24
1, 514713, Control_c, 0, 67, 17
1, 514733, Control_c, 0, 64, 68
1, 514751, Control_c, 0, 64, 67
1, 514769, Control_c, 0, 64, 65
1, 514789, Control_c, 0, 64, 64
1, 514790, Control_c, 0, 67, 23
1, 514807, Control_c, 0, 64, 62
1, 514808, Control_c, 0, 67, 27
1, 514826, Control_c, 0, 64, 60
1, 514827, Control_c, 0, 67, 31
1, 514839, Note_on_c, 0, 68, 39
1, 514844, Control_c, 0, 64, 58
1, 514864, Control_c, 0, 64, 55
1, 514864, Control_c, 0, 67, 37
1, 514881, Control_c, 0, 64, 51
1, 514901, Control_c, 0, 64, 46
1, 514903, Control_c, 0, 67, 42
1, 514921, Control_c, 0, 64, 41
1, 515033, Control_c, 0, 64, 45
1, 515047, Note_on_c, 0, 72, 50
1, 515050, Control_c, 0, 64, 48
1, 515068, Control_c, 0, 64, 51
1, 515074, Note_on_c, 0, 44, 37
1, 515079, Note_on_c, 0, 56, 33
1, 515086, Control_c, 0, 64, 56
1, 515101, Note_on_c, 0, 60, 30
1, 515105, Control_c, 0, 64, 60
1, 515106, Control_c, 0, 67, 38
1, 515126, Control_c, 0, 64, 66
1, 515143, Control_c, 0, 64, 70
1, 515144, Control_c, 0, 67, 33
1, 515162, Control_c, 0, 64, 75
1, 515165, Control_c, 0, 67, 29
1, 515176, Note_off_c, 0, 68, 53
1, 515180, Control_c, 0, 64, 78
1, 515183, Control_c, 0, 67, 25
1, 515201, Control_c, 0, 64, 83
1, 515218, Control_c, 0, 64, 88
1, 515220, Control_c, 0, 67, 16
1, 515237, Control_c, 0, 64, 96
1, 515255, Control_c, 0, 64, 106
1, 515274, Control_c, 0, 64, 115
1, 515293, Control_c, 0, 64, 123
1, 515312, Control_c, 0, 64, 127
1, 515357, Note_off_c, 0, 60, 40
1, 515357, Poly_aftertouch_c, 0, 60, 0
1, 515382, Note_on_c, 0, 68, 51
1, 515407, Note_on_c, 0, 51, 48
1, 515414, Note_off_c, 0, 72, 53
1, 515426, Note_off_c, 0, 44, 35
1, 515426, Poly_aftertouch_c, 0, 44, 0
1, 515436, Note_off_c, 0, 56, 40
1, 515442, Control_c, 0, 67, 0
1, 515603, Note_on_c, 0, 73, 73
1, 515613, Note_on_c, 0, 58, 48
1, 515630, Control_c, 0, 64, 120
1, 515647, Control_c, 0, 64, 101
1, 515653, Note_on_c, 0, 61, 50
1, 515666, Note_on_c, 0, 46, 41
1, 515667, Control_c, 0, 64, 76
1, 515685, Control_c, 0, 64, 50
1, 515697, Note_off_c, 0, 68, 54
1, 515703, Control_c, 0, 64, 0
1, 515705, Note_off_c, 0, 51, 59
1, 515799, Control_c, 0, 64, 20
1, 515816, Control_c, 0, 64, 41
1, 515835, Control_c, 0, 64, 56
1, 515854, Control_c, 0, 64, 69
1, 515873, Control_c, 0, 64, 77
1, 515892, Control_c, 0, 64, 86
1, 515910, Control_c, 0, 64, 98
1, 515922, Note_off_c, 0, 46, 61
1, 515922, Poly_aftertouch_c, 0, 46, 0
1, 515929, Control_c, 0, 64, 111
1, 515947, Control_c, 0, 64, 125
1, 515956, Note_off_c, 0, 58, 56
1, 515961, Note_on_c, 0, 51, 56
1, 515962, Note_on_c, 0, 67, 63
1, 515982, Note_off_c, 0, 61, 62
1, 515982, Poly_aftertouch_c, 0, 61, 0
1, 515983, Note_off_c, 0, 73, 62
1, 515990, Note_on_c, 0, 68, 35
1, 516016, Note_off_c, 0, 67, 61
1, 516036, Note_off_c, 0, 68, 54
1, 516138, Note_on_c, 0, 75, 76
1, 516151, Note_on_c, 0, 66, 64
1, 516171, Note_on_c, 0, 48, 54
1, 516173, Control_c, 0, 64, 119
1, 516175, Note_on_c, 0, 60, 61
1, 516175, Note_on_c, 0, 63, 69
1, 516191, Control_c, 0, 64, 100
1, 516210, Control_c, 0, 64, 79
1, 516227, Control_c, 0, 64, 61
1, 516247, Control_c, 0, 64, 51
1, 516265, Control_c, 0, 64, 44
1, 516271, Note_off_c, 0, 51, 50
1, 516302, Control_c, 0, 64, 52
1, 516322, Control_c, 0, 64, 62
1, 516340, Control_c, 0, 64, 73
1, 516359, Control_c, 0, 64, 84
1, 516370, Note_off_c, 0, 63, 57
1, 516378, Control_c, 0, 64, 97
1, 516396, Control_c, 0, 64, 112
1, 516415, Control_c, 0, 64, 124
1, 516416, Note_off_c, 0, 48, 38
1, 516428, Note_off_c, 0, 60, 42
1, 516428, Poly_aftertouch_c, 0, 60, 0
1, 516488, Note_off_c, 0, 75, 37
1, 516502, Note_on_c, 0, 68, 64
1, 516524, Note_on_c, 0, 56, 66
1, 516530, Note_off_c, 0, 66, 63
1, 516545, Note_off_c, 0, 68, 60
1, 516699, Note_on_c, 0, 77, 80
1, 516722, Note_on_c, 0, 61, 70
1, 516736, Note_on_c, 0, 49, 62
1, 516737, Note_on_c, 0, 65, 60
1, 516741, Note_off_c, 0, 56, 54
1, 516750, Control_c, 0, 64, 119
1, 516754, Note_on_c, 0, 76, 27
1, 516771, Control_c, 0, 64, 96
1, 516789, Control_c, 0, 64, 72
1, 516807, Note_off_c, 0, 76, 32
1, 516807, Control_c, 0, 64, 53
1, 516825, Control_c, 0, 64, 36
1, 516845, Control_c, 0, 64, 18
1, 516883, Control_c, 0, 64, 22
1, 516901, Control_c, 0, 64, 32
1, 516920, Control_c, 0, 64, 43
1, 516938, Control_c, 0, 64, 56
1, 516958, Control_c, 0, 64, 68
1, 516970, Note_off_c, 0, 61, 53
1, 516970, Poly_aftertouch_c, 0, 61, 0
1, 516977, Control_c, 0, 64, 78
1, 516995, Control_c, 0, 64, 88
1, 517014, Control_c, 0, 64, 101
1, 517023, Note_off_c, 0, 49, 50
1, 517031, Control_c, 0, 64, 118
1, 517051, Control_c, 0, 64, 127
1, 517067, Note_on_c, 0, 68, 73
1, 517071, Note_on_c, 0, 56, 62
1, 517097, Note_off_c, 0, 65, 38
1, 517106, Note_off_c, 0, 77, 59
1, 517137, Note_off_c, 0, 68, 64
1, 517173, Note_off_c, 0, 56, 55
1, 517238, Control_c, 0, 64, 110
1, 517254, Note_on_c, 0, 77, 86
1, 517255, Control_c, 0, 64, 82
1, 517276, Control_c, 0, 64, 56
1, 517282, Note_on_c, 0, 65, 68
1, 517284, Note_on_c, 0, 61, 68
1, 517293, Control_c, 0, 64, 22
1, 517296, Note_on_c, 0, 49, 61
1, 517312, Control_c, 0, 64, 0
1, 517406, Control_c, 0, 64, 35
1, 517425, Control_c, 0, 64, 57
1, 517443, Control_c, 0, 64, 72
1, 517463, Control_c, 0, 64, 82
1, 517481, Note_off_c, 0, 61, 56
1, 517481, Poly_aftertouch_c, 0, 61, 0
1, 517481, Control_c, 0, 64, 93
1, 517482, Note_off_c, 0, 65, 48
1, 517486, Note_off_c, 0, 49, 53
1, 517500, Control_c, 0, 64, 108
1, 517518, Control_c, 0, 64, 127
1, 517592, Note_off_c, 0, 77, 58
1, 517621, Note_on_c, 0, 56, 66
1, 517626, Note_on_c, 0, 73, 70
1, 517670, Note_off_c, 0, 56, 55
1, 517815, Note_on_c, 0, 78, 87
1, 517836, Control_c, 0, 64, 102
1, 517838, Note_on_c, 0, 66, 73
1, 517844, Note_on_c, 0, 63, 73
1, 517847, Note_on_c, 0, 51, 66
1, 517855, Control_c, 0, 64, 73
1, 517859, Note_off_c, 0, 73, 57
1, 517874, Control_c, 0, 64, 47
1, 517893, Control_c, 0, 64, 0
1, 517966, Control_c, 0, 64, 37
1, 517986, Control_c, 0, 64, 61
1, 518004, Control_c, 0, 64, 79
1, 518023, Control_c, 0, 64, 94
1, 518042, Control_c, 0, 64, 113
1, 518057, Poly_aftertouch_c, 0, 75, 0
1, 518060, Control_c, 0, 64, 127
1, 518068, Note_off_c, 0, 51, 58
1, 518077, Note_off_c, 0, 63, 53
1, 518162, Note_on_c, 0, 72, 73
1, 518166, Note_on_c, 0, 56, 66
1, 518179, Note_off_c, 0, 78, 34
1, 518181, Note_off_c, 0, 66, 59
1, 518187, Note_on_c, 0, 73, 48
1, 518224, Note_off_c, 0, 73, 58
1, 518226, Note_off_c, 0, 72, 63
1, 518360, Control_c, 0, 64, 115
1, 518369, Note_on_c, 0, 80, 85
1, 518379, Control_c, 0, 64, 88
1, 518386, Note_on_c, 0, 71, 70
1, 518396, Note_on_c, 0, 65, 59
1, 518399, Note_on_c, 0, 68, 67
1, 518399, Control_c, 0, 64, 61
1, 518404, Note_on_c, 0, 53, 53
1, 518416, Control_c, 0, 64, 36
1, 518433, Control_c, 0, 64, 0
1, 518478, Note_off_c, 0, 56, 38
1, 518547, Control_c, 0, 64, 29
1, 518565, Control_c, 0, 64, 49
1, 518584, Control_c, 0, 64, 66
1, 518591, Note_off_c, 0, 68, 50
1, 518602, Control_c, 0, 64, 79
1, 518617, Note_off_c, 0, 53, 57
1, 518617, Poly_aftertouch_c, 0, 53, 0
1, 518623, Control_c, 0, 64, 94
1, 518640, Control_c, 0, 64, 115
1, 518658, Control_c, 0, 64, 127
1, 518696, Note_off_c, 0, 65, 36
1, 518736, Note_on_c, 0, 73, 60
1, 518746, Note_off_c, 0, 71, 57
1, 518751, Note_on_c, 0, 61, 47
1, 518752, Note_off_c, 0, 80, 50
1, 518799, Note_off_c, 0, 73, 61
1, 518808, Control_c, 0, 67, 11
1, 518828, Control_c, 0, 67, 16
1, 518845, Control_c, 0, 67, 23
1, 518864, Control_c, 0, 67, 32
1, 518883, Control_c, 0, 67, 41
1, 518902, Control_c, 0, 67, 49
1, 518920, Control_c, 0, 67, 57
1, 518940, Control_c, 0, 67, 64
1, 518957, Control_c, 0, 67, 71
1, 518960, Note_on_c, 0, 82, 79
1, 518976, Control_c, 0, 64, 123
1, 518977, Control_c, 0, 67, 78
1, 518992, Note_off_c, 0, 61, 33
1, 518992, Poly_aftertouch_c, 0, 61, 0
1, 518996, Note_on_c, 0, 66, 50
1, 518996, Control_c, 0, 64, 114
1, 518996, Control_c, 0, 67, 84
1, 518997, Note_on_c, 0, 70, 60
1, 519010, Note_on_c, 0, 54, 47
1, 519014, Control_c, 0, 64, 101
1, 519016, Control_c, 0, 67, 91
1, 519035, Control_c, 0, 64, 87
1, 519036, Control_c, 0, 67, 98
1, 519051, Control_c, 0, 64, 72
1, 519053, Control_c, 0, 67, 105
1, 519070, Control_c, 0, 64, 57
1, 519071, Control_c, 0, 67, 111
1, 519090, Control_c, 0, 64, 42
1, 519091, Control_c, 0, 67, 116
1, 519107, Control_c, 0, 64, 21
1, 519108, Control_c, 0, 67, 121
1, 519126, Control_c, 0, 64, 10
1, 519127, Control_c, 0, 67, 125
1, 519145, Control_c, 0, 64, 16
1, 519164, Control_c, 0, 64, 30
1, 519183, Control_c, 0, 64, 45
1, 519201, Control_c, 0, 64, 58
1, 519220, Control_c, 0, 64, 69
1, 519240, Control_c, 0, 64, 75
1, 519257, Control_c, 0, 64, 78
1, 519277, Control_c, 0, 64, 80
1, 519295, Control_c, 0, 64, 83
1, 519314, Control_c, 0, 64, 86
1, 519351, Control_c, 0, 64, 92
1, 519399, Note_on_c, 0, 61, 39
1, 519403, Note_on_c, 0, 73, 46
1, 519405, Note_off_c, 0, 66, 29
1, 519448, Note_off_c, 0, 82, 36
1, 519453, Note_off_c, 0, 54, 35
1, 519461, Note_off_c, 0, 70, 27
1, 519670, Control_c, 0, 64, 87
1, 519678, Note_on_c, 0, 82, 61
1, 519688, Control_c, 0, 64, 83
1, 519696, Note_off_c, 0, 61, 48
1, 519696, Poly_aftertouch_c, 0, 61, 0
1, 519705, Note_on_c, 0, 66, 34
1, 519706, Control_c, 0, 64, 78
1, 519720, Note_on_c, 0, 54, 32
1, 519725, Control_c, 0, 64, 72
1, 519730, Note_on_c, 0, 70, 38
1, 519743, Control_c, 0, 64, 67
1, 519763, Control_c, 0, 64, 64
1, 519780, Control_c, 0, 64, 63
1, 519788, Note_off_c, 0, 73, 42
1, 519819, Control_c, 0, 64, 66
1, 519837, Control_c, 0, 64, 69
1, 519855, Control_c, 0, 64, 73
1, 519874, Control_c, 0, 64, 78
1, 519894, Control_c, 0, 64, 84
1, 519911, Control_c, 0, 64, 89
1, 519919, Note_off_c, 0, 66, 37
1, 519930, Control_c, 0, 64, 94
1, 519968, Note_off_c, 0, 70, 42
1, 519969, Control_c, 0, 64, 100
1, 520024, Control_c, 0, 64, 104
1, 520093, Note_on_c, 0, 61, 38
1, 520093, Note_on_c, 0, 73, 41
1, 520095, Note_off_c, 0, 82, 32
1, 520130, Note_off_c, 0, 54, 40
1, 520231, Control_c, 0, 64, 100
1, 520287, Control_c, 0, 64, 96
1, 520294, Note_on_c, 0, 83, 60
1, 520322, Note_on_c, 0, 65, 33
1, 520323, Control_c, 0, 64, 87
1, 520324, Note_on_c, 0, 53, 36
1, 520334, Note_on_c, 0, 71, 35
1, 520342, Control_c, 0, 64, 78
1, 520360, Control_c, 0, 64, 69
1, 520379, Control_c, 0, 64, 61
1, 520393, Note_off_c, 0, 73, 51
1, 520396, Control_c, 0, 64, 54
1, 520400, Note_off_c, 0, 61, 33
1, 520400, Poly_aftertouch_c, 0, 61, 0
1, 520417, Control_c, 0, 64, 47
1, 520436, Control_c, 0, 64, 41
1, 520492, Control_c, 0, 64, 45
1, 520510, Control_c, 0, 64, 52
1, 520529, Control_c, 0, 64, 60
1, 520547, Control_c, 0, 64, 68
1, 520566, Control_c, 0, 64, 73
1, 520584, Control_c, 0, 64, 77
1, 520603, Control_c, 0, 64, 80
1, 520623, Control_c, 0, 64, 84
1, 520640, Control_c, 0, 64, 88
1, 520644, Note_on_c, 0, 61, 30
1, 520653, Note_off_c, 0, 83, 53
1, 520657, Control_c, 0, 64, 92
1, 520668, Note_off_c, 0, 65, 39
1, 520685, Note_on_c, 0, 73, 42
1, 520697, Note_off_c, 0, 71, 40
1, 520697, Control_c, 0, 64, 97
1, 520745, Note_off_c, 0, 53, 32
1, 520745, Poly_aftertouch_c, 0, 53, 0
1, 520828, Control_c, 0, 64, 91
1, 520847, Control_c, 0, 64, 86
1, 520852, Note_on_c, 0, 81, 54
1, 520866, Control_c, 0, 64, 78
1, 520883, Control_c, 0, 64, 71
1, 520898, Note_on_c, 0, 65, 27
1, 520899, Note_on_c, 0, 53, 39
1, 520905, Control_c, 0, 64, 66
1, 520912, Note_off_c, 0, 73, 54
1, 520917, Note_off_c, 0, 61, 40
1, 520917, Poly_aftertouch_c, 0, 61, 0
1, 520923, Control_c, 0, 64, 62
1, 520924, Note_on_c, 0, 69, 36
1, 520940, Control_c, 0, 64, 60
1, 520978, Control_c, 0, 64, 62
1, 520996, Control_c, 0, 64, 64
1, 521015, Control_c, 0, 64, 67
1, 521033, Control_c, 0, 64, 70
1, 521052, Control_c, 0, 64, 73
1, 521070, Control_c, 0, 64, 77
1, 521090, Control_c, 0, 64, 80
1, 521091, Note_off_c, 0, 53, 52
1, 521091, Poly_aftertouch_c, 0, 53, 0
1, 521109, Control_c, 0, 64, 84
1, 521127, Control_c, 0, 64, 88
1, 521139, Note_off_c, 0, 69, 54
1, 521139, Poly_aftertouch_c, 0, 69, 0
1, 521146, Control_c, 0, 64, 92
1, 521183, Control_c, 0, 64, 99
1, 521197, Note_off_c, 0, 81, 36
1, 521221, Control_c, 0, 64, 105
1, 521229, Note_on_c, 0, 61, 40
1, 521231, Note_off_c, 0, 65, 41
1, 521231, Note_on_c, 0, 73, 41
1, 521240, Control_c, 0, 67, 120
1, 521241, Poly_aftertouch_c, 0, 76, 127
1, 521254, Note_on_c, 0, 78, 17
1, 521256, Control_c, 0, 67, 116
1, 521277, Control_c, 0, 67, 111
1, 521295, Control_c, 0, 67, 106
1, 521314, Control_c, 0, 67, 101
1, 521324, Note_off_c, 0, 78, 45
1, 521331, Control_c, 0, 67, 97
1, 521352, Control_c, 0, 67, 91
1, 521370, Control_c, 0, 64, 100
1, 521371, Control_c, 0, 67, 84
1, 521388, Control_c, 0, 64, 92
1, 521389, Control_c, 0, 67, 77
1, 521407, Control_c, 0, 64, 83
1, 521408, Control_c, 0, 67, 71
1, 521425, Control_c, 0, 64, 73
1, 521427, Control_c, 0, 67, 66
1, 521430, Note_on_c, 0, 82, 71
1, 521446, Control_c, 0, 64, 66
1, 521446, Control_c, 0, 67, 60
1, 521459, Note_on_c, 0, 54, 44
1, 521460, Note_on_c, 0, 66, 47
1, 521464, Control_c, 0, 64, 63
1, 521465, Control_c, 0, 67, 54
1, 521475, Note_on_c, 0, 70, 48
1, 521482, Control_c, 0, 64, 61
1, 521484, Control_c, 0, 67, 46
1, 521486, Note_off_c, 0, 61, 38
1, 521486, Poly_aftertouch_c, 0, 61, 0
1, 521501, Control_c, 0, 67, 38
1, 521519, Control_c, 0, 64, 63
1, 521520, Control_c, 0, 67, 30
1, 521538, Control_c, 0, 64, 65
1, 521540, Control_c, 0, 67, 20
1, 521557, Control_c, 0, 64, 69
1, 521558, Control_c, 0, 67, 10
1, 521562, Note_off_c, 0, 73, 48
1, 521577, Control_c, 0, 64, 73
1, 521582, Poly_aftertouch_c, 0, 76, 0
1, 521594, Control_c, 0, 64, 78
1, 521595, Control_c, 0, 67, 0
1, 521613, Control_c, 0, 64, 82
1, 521632, Control_c, 0, 64, 87
1, 521652, Control_c, 0, 64, 93
1, 521660, Note_off_c, 0, 66, 38
1, 521667, Control_c, 0, 64, 98
1, 521689, Control_c, 0, 64, 104
1, 521707, Control_c, 0, 64, 110
1, 521724, Control_c, 0, 64, 116
1, 521744, Control_c, 0, 64, 120
1, 521771, Note_on_c, 0, 61, 56
1, 521788, Note_on_c, 0, 73, 68
1, 521792, Note_off_c, 0, 54, 30
1, 521831, Note_off_c, 0, 70, 52
1, 521931, Control_c, 0, 64, 113
1, 521932, Control_c, 0, 67, 9
1, 521950, Control_c, 0, 64, 108
1, 521969, Control_c, 0, 64, 99
1, 521970, Control_c, 0, 67, 13
1, 521987, Control_c, 0, 64, 89
1, 522004, Control_c, 0, 64, 78
1, 522007, Control_c, 0, 67, 20
1, 522008, Note_on_c, 0, 76, 74
1, 522015, Note_on_c, 0, 70, 52
1, 522023, Control_c, 0, 64, 70
1, 522024, Control_c, 0, 67, 26
1, 522028, Note_on_c, 0, 64, 46
1, 522030, Note_on_c, 0, 55, 41
1, 522043, Note_off_c, 0, 82, 62
1, 522044, Control_c, 0, 64, 63
1, 522045, Control_c, 0, 67, 34
1, 522053, Note_off_c, 0, 61, 51
1, 522053, Poly_aftertouch_c, 0, 61, 0
1, 522061, Control_c, 0, 64, 56
1, 522062, Control_c, 0, 67, 43
1, 522073, Note_off_c, 0, 73, 56
1, 522078, Control_c, 0, 64, 46
1, 522080, Control_c, 0, 67, 52
1, 522099, Control_c, 0, 64, 30
1, 522101, Control_c, 0, 67, 60
1, 522119, Control_c, 0, 64, 15
1, 522119, Control_c, 0, 67, 67
1, 522137, Control_c, 0, 67, 74
1, 522155, Control_c, 0, 64, 21
1, 522156, Control_c, 0, 67, 82
1, 522175, Control_c, 0, 64, 28
1, 522176, Control_c, 0, 67, 89
1, 522193, Control_c, 0, 64, 36
1, 522194, Control_c, 0, 67, 97
1, 522212, Control_c, 0, 64, 46
1, 522214, Control_c, 0, 67, 106
1, 522230, Control_c, 0, 64, 56
1, 522231, Control_c, 0, 67, 113
1, 522250, Control_c, 0, 64, 66
1, 522251, Control_c, 0, 67, 120
1, 522268, Control_c, 0, 64, 72
1, 522269, Control_c, 0, 67, 126
1, 522383, Note_off_c, 0, 70, 54
1, 522396, Note_on_c, 0, 73, 45
1, 522412, Note_on_c, 0, 61, 31
1, 522423, Note_off_c, 0, 64, 42
1, 522423, Poly_aftertouch_c, 0, 64, 0
1, 522474, Control_c, 0, 64, 70
1, 522528, Note_off_c, 0, 76, 37
1, 522548, Control_c, 0, 64, 67
1, 522567, Control_c, 0, 64, 66
1, 522587, Control_c, 0, 64, 65
1, 522604, Control_c, 0, 64, 64
1, 522622, Control_c, 0, 64, 62
1, 522642, Control_c, 0, 64, 60
1, 522644, Note_on_c, 0, 77, 44
1, 522660, Control_c, 0, 64, 56
1, 522669, Note_on_c, 0, 68, 43
1, 522676, Control_c, 0, 64, 50
1, 522693, Note_on_c, 0, 56, 25
1, 522696, Control_c, 0, 64, 41
1, 522717, Control_c, 0, 64, 26
1, 522735, Control_c, 0, 64, 0
1, 522740, Note_off_c, 0, 55, 37
1, 522740, Poly_aftertouch_c, 0, 55, 0
1, 522745, Poly_aftertouch_c, 0, 65, 127
1, 522769, Note_off_c, 0, 73, 57
1, 522777, Note_off_c, 0, 61, 33
1, 522777, Poly_aftertouch_c, 0, 61, 0
1, 522829, Control_c, 0, 64, 8
1, 522848, Control_c, 0, 64, 21
1, 522865, Control_c, 0, 64, 30
1, 522885, Control_c, 0, 64, 38
1, 522903, Control_c, 0, 64, 47
1, 522923, Control_c, 0, 64, 54
1, 522940, Control_c, 0, 64, 62
1, 522959, Control_c, 0, 64, 68
1, 522978, Control_c, 0, 64, 71
1, 522996, Control_c, 0, 64, 73
1, 523001, Poly_aftertouch_c, 0, 65, 24
1, 523016, Control_c, 0, 64, 75
1, 523051, Poly_aftertouch_c, 0, 65, 0
1, 523052, Control_c, 0, 64, 78
1, 523082, Note_on_c, 0, 61, 32
1, 523087, Note_off_c, 0, 77, 51
1, 523089, Control_c, 0, 64, 81
1, 523097, Note_on_c, 0, 73, 36
1, 523132, Note_off_c, 0, 61, 62
1, 523132, Poly_aftertouch_c, 0, 61, 0
1, 523133, Note_off_c, 0, 68, 58
1, 523161, Note_off_c, 0, 56, 59
1, 523277, Control_c, 0, 64, 78
1, 523296, Control_c, 0, 64, 75
1, 523315, Control_c, 0, 64, 69
1, 523332, Control_c, 0, 64, 62
1, 523333, Note_on_c, 0, 72, 42
1, 523336, Note_on_c, 0, 44, 46
1, 523342, Note_on_c, 0, 66, 44
1, 523352, Control_c, 0, 64, 55
1, 523371, Control_c, 0, 64, 43
1, 523390, Control_c, 0, 64, 19
1, 523405, Note_off_c, 0, 66, 55
1, 523406, Control_c, 0, 64, 0
1, 523420, Note_off_c, 0, 73, 44
1, 523450, Note_off_c, 0, 72, 36
1, 523528, Note_on_c, 0, 78, 54
1, 523565, Poly_aftertouch_c, 0, 72, 0
1, 523568, Note_off_c, 0, 78, 63
1, 523702, Note_on_c, 0, 75, 60
1, 523714, Note_on_c, 0, 56, 38
1, 523718, Note_on_c, 0, 72, 50
1, 523751, Note_off_c, 0, 56, 52
1, 523752, Note_off_c, 0, 72, 60
1, 523757, Note_off_c, 0, 75, 54
1, 523786, Poly_aftertouch_c, 0, 66, 127
1, 523821, Poly_aftertouch_c, 0, 66, 0
1, 523883, Note_off_c, 0, 44, 52
1, 523883, Poly_aftertouch_c, 0, 44, 0
1, 523937, Note_on_c, 0, 49, 43
1, 523938, Note_on_c, 0, 73, 42
1, 523976, Note_on_c, 0, 65, 45
1, 524007, Control_c, 0, 64, 12
1, 524025, Control_c, 0, 64, 34
1, 524026, Control_c, 0, 67, 108
1, 524044, Control_c, 0, 64, 50
1, 524045, Control_c, 0, 67, 88
1, 524064, Control_c, 0, 64, 61
1, 524064, Control_c, 0, 67, 67
1, 524073, Note_off_c, 0, 49, 60
1, 524080, Control_c, 0, 64, 68
1, 524081, Control_c, 0, 67, 47
1, 524100, Control_c, 0, 64, 71
1, 524101, Control_c, 0, 67, 33
1, 524118, Note_off_c, 0, 65, 62
1, 524118, Control_c, 0, 67, 23
1, 524138, Control_c, 0, 64, 73
1, 524139, Control_c, 0, 67, 15
1, 524146, Note_off_c, 0, 73, 63
1, 524156, Control_c, 0, 67, 10
1, 524268, Control_c, 0, 64, 70
1, 524287, Control_c, 0, 64, 68
1, 524306, Control_c, 0, 64, 65
1, 524316, Note_on_c, 0, 49, 55
1, 524325, Control_c, 0, 64, 60
1, 524343, Control_c, 0, 64, 53
1, 524362, Control_c, 0, 64, 42
1, 524366, Note_off_c, 0, 49, 55
1, 524380, Control_c, 0, 64, 17
1, 524400, Control_c, 0, 64, 0
1, 524407, Note_on_c, 0, 51, 63
1, 524436, Control_c, 0, 67, 0
1, 524468, Note_off_c, 0, 51, 52
1, 524517, Note_on_c, 0, 53, 60
1, 524518, Note_on_c, 0, 46, 55
1, 524754, Control_c, 0, 67, 8
1, 524758, Note_on_c, 0, 73, 77
1, 524790, Note_on_c, 0, 61, 56
1, 524790, Control_c, 0, 67, 17
1, 524810, Control_c, 0, 67, 32
1, 524829, Control_c, 0, 67, 55
1, 524850, Control_c, 0, 67, 72
1, 524868, Control_c, 0, 64, 23
1, 524868, Control_c, 0, 67, 84
1, 524885, Control_c, 0, 64, 34
1, 524887, Control_c, 0, 67, 95
1, 524904, Control_c, 0, 64, 45
1, 524906, Note_off_c, 0, 53, 53
1, 524906, Poly_aftertouch_c, 0, 53, 0
1, 524906, Control_c, 0, 67, 108
1, 524924, Control_c, 0, 64, 60
1, 524925, Control_c, 0, 67, 117
1, 524943, Control_c, 0, 64, 71
1, 524960, Control_c, 0, 64, 75
1, 524960, Control_c, 0, 67, 124
1, 524985, Note_on_c, 0, 55, 57
1, 524998, Control_c, 0, 64, 78
1, 525016, Control_c, 0, 64, 82
1, 525025, Note_off_c, 0, 46, 37
1, 525025, Poly_aftertouch_c, 0, 46, 0
1, 525035, Control_c, 0, 64, 86
1, 525044, Note_off_c, 0, 55, 62
1, 525044, Poly_aftertouch_c, 0, 55, 0
1, 525166, Control_c, 0, 64, 84
1, 525204, Control_c, 0, 64, 81
1, 525222, Control_c, 0, 64, 78
1, 525240, Control_c, 0, 64, 74
1, 525260, Control_c, 0, 64, 70
1, 525272, Note_off_c, 0, 61, 35
1, 525272, Poly_aftertouch_c, 0, 61, 0
1, 525275, Note_on_c, 0, 56, 43
1, 525277, Control_c, 0, 64, 66
1, 525280, Note_on_c, 0, 44, 47
1, 525297, Control_c, 0, 64, 61
1, 525315, Control_c, 0, 64, 54
1, 525335, Control_c, 0, 64, 43
1, 525352, Control_c, 0, 64, 22
1, 525373, Control_c, 0, 64, 0
1, 525564, Note_off_c, 0, 44, 56
1, 525564, Poly_aftertouch_c, 0, 44, 0
1, 525569, Note_on_c, 0, 72, 40
1, 525577, Control_c, 0, 64, 10
1, 525598, Control_c, 0, 64, 27
1, 525606, Note_on_c, 0, 60, 26
1, 525614, Control_c, 0, 64, 40
1, 525633, Control_c, 0, 64, 51
1, 525644, Note_off_c, 0, 73, 54
1, 525652, Control_c, 0, 64, 63
1, 525671, Control_c, 0, 64, 72
1, 525674, Note_off_c, 0, 56, 62
1, 525689, Control_c, 0, 64, 75
1, 525696, Note_off_c, 0, 60, 62
1, 525696, Poly_aftertouch_c, 0, 60, 0
1, 525760, Note_off_c, 0, 72, 62
1, 525835, Note_on_c, 0, 56, 52
1, 525839, Control_c, 0, 64, 72
1, 525859, Control_c, 0, 64, 69
1, 525876, Control_c, 0, 64, 64
1, 525895, Control_c, 0, 64, 59
1, 525914, Control_c, 0, 64, 52
1, 525930, Note_off_c, 0, 56, 60
1, 525932, Control_c, 0, 64, 44
1, 525940, Note_on_c, 0, 58, 62
1, 525951, Control_c, 0, 64, 32
1, 525969, Control_c, 0, 64, 11
1, 525988, Control_c, 0, 64, 0
1, 526059, Note_off_c, 0, 58, 49
1, 526110, Note_on_c, 0, 53, 40
1, 526111, Note_on_c, 0, 60, 43
1, 526389, Note_on_c, 0, 80, 56
1, 526442, Note_on_c, 0, 68, 37
1, 526531, Control_c, 0, 64, 23
1, 526550, Control_c, 0, 64, 39
1, 526568, Control_c, 0, 64, 51
1, 526587, Control_c, 0, 64, 62
1, 526606, Control_c, 0, 64, 70
1, 526624, Control_c, 0, 64, 75
1, 526643, Control_c, 0, 64, 79
1, 526661, Control_c, 0, 64, 81
1, 526664, Note_off_c, 0, 60, 36
1, 526664, Poly_aftertouch_c, 0, 60, 0
1, 526677, Note_off_c, 0, 53, 55
1, 526677, Poly_aftertouch_c, 0, 53, 0
1, 526680, Control_c, 0, 64, 84
1, 526689, Note_on_c, 0, 62, 41
1, 526699, Control_c, 0, 64, 87
1, 526737, Control_c, 0, 64, 94
1, 526755, Control_c, 0, 64, 98
1, 526771, Note_off_c, 0, 62, 61
1, 526793, Control_c, 0, 64, 103
1, 526945, Note_off_c, 0, 68, 44
1, 526998, Control_c, 0, 64, 99
1, 527035, Control_c, 0, 64, 93
1, 527054, Control_c, 0, 64, 89
1, 527073, Control_c, 0, 64, 85
1, 527077, Note_on_c, 0, 51, 26
1, 527090, Note_on_c, 0, 63, 36
1, 527090, Control_c, 0, 64, 79
1, 527110, Control_c, 0, 64, 74
1, 527131, Control_c, 0, 64, 71
1, 527148, Control_c, 0, 64, 69
1, 527166, Control_c, 0, 64, 66
1, 527186, Control_c, 0, 64, 64
1, 527204, Control_c, 0, 64, 62
1, 527223, Control_c, 0, 64, 60
1, 527260, Control_c, 0, 64, 57
1, 527297, Control_c, 0, 64, 55
1, 527335, Control_c, 0, 64, 52
1, 527372, Control_c, 0, 64, 49
1, 527391, Control_c, 0, 64, 47
1, 527410, Control_c, 0, 64, 44
1, 527428, Control_c, 0, 64, 41
1, 527466, Control_c, 0, 64, 34
1, 527504, Control_c, 0, 64, 30
1, 527593, Note_on_c, 0, 79, 40
1, 527598, Control_c, 0, 64, 24
1, 527604, Note_on_c, 0, 67, 30
1, 527653, Control_c, 0, 64, 19
1, 527722, Note_off_c, 0, 80, 57
1, 527727, Control_c, 0, 64, 13
1, 527802, Control_c, 0, 64, 0
1, 528670, Note_off_c, 0, 67, 56
1, 528671, Note_off_c, 0, 79, 61
1, 528671, Poly_aftertouch_c, 0, 79, 0
1, 528676, Note_off_c, 0, 63, 57
1, 528683, Note_off_c, 0, 51, 57
1, 529093, Note_on_c, 0, 68, 67
1, 529167, Note_on_c, 0, 70, 68
1, 529169, Note_off_c, 0, 68, 63
1, 529210, Note_off_c, 0, 70, 58
1, 529259, Note_on_c, 0, 72, 84
1, 529282, Note_on_c, 0, 68, 71
1, 529288, Note_on_c, 0, 65, 62
1, 529685, Note_on_c, 0, 74, 66
1, 529747, Control_c, 0, 67, 114
1, 529765, Control_c, 0, 67, 107
1, 529767, Note_off_c, 0, 68, 57
1, 529783, Control_c, 0, 67, 100
1, 529803, Control_c, 0, 67, 90
1, 529821, Control_c, 0, 67, 80
1, 529841, Control_c, 0, 67, 69
1, 529858, Control_c, 0, 67, 61
1, 529878, Control_c, 0, 67, 57
1, 529894, Note_on_c, 0, 75, 72
1, 529914, Control_c, 0, 67, 49
1, 529920, Note_on_c, 0, 63, 57
1, 529922, Note_on_c, 0, 67, 55
1, 529933, Control_c, 0, 67, 44
1, 529953, Control_c, 0, 67, 40
1, 529976, Note_off_c, 0, 65, 43
1, 529998, Note_off_c, 0, 74, 59
1, 530010, Note_off_c, 0, 63, 62
1, 530011, Note_off_c, 0, 72, 35
1, 530058, Note_off_c, 0, 67, 60
1, 530270, Note_on_c, 0, 70, 59
1, 530271, Control_c, 0, 67, 44
1, 530281, Note_on_c, 0, 55, 50
1, 530309, Note_off_c, 0, 70, 64
1, 530311, Note_off_c, 0, 55, 58
1, 530311, Poly_aftertouch_c, 0, 55, 0
1, 530364, Control_c, 0, 67, 49
1, 530401, Control_c, 0, 67, 54
1, 530439, Control_c, 0, 67, 59
1, 530471, Note_on_c, 0, 72, 61
1, 530477, Note_on_c, 0, 56, 56
1, 530482, Note_off_c, 0, 75, 64
1, 530495, Control_c, 0, 67, 63
1, 530532, Control_c, 0, 67, 68
1, 530553, Note_off_c, 0, 56, 56
1, 530590, Control_c, 0, 67, 73
1, 530645, Control_c, 0, 67, 77
1, 530661, Note_on_c, 0, 77, 56
1, 530666, Note_on_c, 0, 53, 51
1, 530670, Note_on_c, 0, 68, 60
1, 530692, Note_off_c, 0, 77, 58
1, 530694, Note_off_c, 0, 72, 51
1, 530699, Note_off_c, 0, 68, 63
1, 530708, Note_off_c, 0, 53, 48
1, 530708, Poly_aftertouch_c, 0, 53, 0
1, 530835, Note_on_c, 0, 74, 65
1, 530839, Note_on_c, 0, 68, 51
1, 530843, Note_on_c, 0, 58, 50
1, 530878, Note_off_c, 0, 58, 59
1, 530888, Control_c, 0, 67, 73
1, 530894, Note_off_c, 0, 74, 58
1, 530895, Note_off_c, 0, 68, 60
1, 530924, Control_c, 0, 67, 64
1, 530943, Control_c, 0, 67, 57
1, 530963, Control_c, 0, 67, 50
1, 530981, Control_c, 0, 67, 44
1, 530999, Control_c, 0, 67, 38
1, 531019, Control_c, 0, 67, 32
1, 531034, Note_on_c, 0, 75, 61
1, 531038, Control_c, 0, 67, 28
1, 531054, Note_on_c, 0, 51, 45
1, 531056, Note_on_c, 0, 67, 55
1, 531075, Control_c, 0, 64, 16
1, 531093, Control_c, 0, 64, 36
1, 531112, Control_c, 0, 64, 45
1, 531113, Control_c, 0, 67, 33
1, 531132, Control_c, 0, 64, 49
1, 531134, Note_off_c, 0, 67, 62
1, 531138, Note_off_c, 0, 51, 62
1, 531144, Note_off_c, 0, 75, 65
1, 531151, Control_c, 0, 67, 41
1, 531168, Control_c, 0, 67, 49
1, 531187, Control_c, 0, 67, 56
1, 531205, Control_c, 0, 64, 47
1, 531208, Control_c, 0, 67, 65
1, 531225, Control_c, 0, 64, 42
1, 531228, Control_c, 0, 67, 72
1, 531243, Control_c, 0, 64, 32
1, 531262, Control_c, 0, 64, 19
1, 531263, Control_c, 0, 67, 77
1, 531281, Control_c, 0, 64, 0
1, 531282, Control_c, 0, 67, 81
1, 531298, Control_c, 0, 67, 86
1, 531318, Control_c, 0, 67, 90
1, 531336, Control_c, 0, 67, 96
1, 531355, Control_c, 0, 67, 102
1, 531374, Control_c, 0, 67, 108
1, 531391, Control_c, 0, 67, 114
1, 531411, Control_c, 0, 67, 119
1, 531428, Control_c, 0, 67, 124
1, 531432, Note_on_c, 0, 73, 51
1, 531489, Note_off_c, 0, 73, 51
1, 531501, Note_on_c, 0, 75, 60
1, 531583, Note_off_c, 0, 75, 57
1, 531598, Note_on_c, 0, 77, 61
1, 531610, Note_on_c, 0, 73, 56
1, 531627, Note_on_c, 0, 70, 42
1, 531991, Note_on_c, 0, 79, 45
1, 532054, Note_off_c, 0, 73, 58
1, 532195, Note_on_c, 0, 72, 43
1, 532195, Note_on_c, 0, 80, 54
1, 532196, Note_on_c, 0, 68, 35
1, 532238, Note_off_c, 0, 77, 19
1, 532266, Note_off_c, 0, 70, 38
1, 532294, Note_off_c, 0, 68, 63
1, 532294, Poly_aftertouch_c, 0, 79, 24
1, 532328, Note_off_c, 0, 79, 41
1, 532328, Poly_aftertouch_c, 0, 79, 0
1, 532399, Note_off_c, 0, 72, 36
1, 532540, Note_on_c, 0, 75, 62
1, 532545, Note_on_c, 0, 60, 69
1, 532589, Note_off_c, 0, 60, 58
1, 532589, Poly_aftertouch_c, 0, 60, 0
1, 532613, Note_off_c, 0, 75, 53
1, 532735, Note_off_c, 0, 80, 60
1, 532735, Note_on_c, 0, 61, 67
1, 532739, Note_on_c, 0, 77, 66
1, 532845, Note_off_c, 0, 61, 48
1, 532845, Poly_aftertouch_c, 0, 61, 0
1, 532912, Note_on_c, 0, 58, 60
1, 532923, Note_on_c, 0, 82, 66
1, 532934, Note_on_c, 0, 73, 59
1, 532950, Note_off_c, 0, 77, 59
1, 532954, Note_off_c, 0, 82, 67
1, 532960, Note_off_c, 0, 58, 63
1, 532961, Note_off_c, 0, 73, 61
1, 533108, Note_on_c, 0, 73, 47
1, 533112, Note_on_c, 0, 79, 62
1, 533114, Note_on_c, 0, 63, 58
1, 533154, Note_off_c, 0, 63, 63
1, 533161, Note_off_c, 0, 73, 62
1, 533169, Note_off_c, 0, 79, 57
1, 533169, Poly_aftertouch_c, 0, 79, 0
1, 533206, Control_c, 0, 67, 120
1, 533245, Control_c, 0, 67, 115
1, 533281, Control_c, 0, 67, 109
1, 533300, Control_c, 0, 67, 104
1, 533319, Control_c, 0, 67, 98
1, 533320, Note_on_c, 0, 80, 58
1, 533336, Control_c, 0, 67, 91
1, 533339, Note_on_c, 0, 56, 43
1, 533345, Note_on_c, 0, 72, 48
1, 533356, Control_c, 0, 67, 85
1, 533375, Control_c, 0, 64, 11
1, 533376, Control_c, 0, 67, 78
1, 533394, Control_c, 0, 64, 28
1, 533395, Control_c, 0, 67, 70
1, 533409, Note_off_c, 0, 56, 62
1, 533410, Control_c, 0, 64, 37
1, 533412, Control_c, 0, 67, 59
1, 533413, Note_off_c, 0, 80, 64
1, 533426, Note_off_c, 0, 72, 62
1, 533430, Control_c, 0, 64, 42
1, 533431, Control_c, 0, 67, 46
1, 533450, Control_c, 0, 64, 45
1, 533451, Control_c, 0, 67, 33
1, 533468, Control_c, 0, 64, 47
1, 533468, Control_c, 0, 67, 18
1, 533505, Control_c, 0, 67, 0
1, 533543, Control_c, 0, 64, 45
1, 533562, Control_c, 0, 64, 41
1, 533580, Control_c, 0, 64, 36
1, 533599, Control_c, 0, 64, 30
1, 533617, Control_c, 0, 64, 23
1, 533636, Control_c, 0, 64, 16
1, 533673, Control_c, 0, 64, 0
1, 533687, Note_on_c, 0, 68, 76
1, 533765, Note_on_c, 0, 70, 80
1, 533778, Note_off_c, 0, 68, 60
1, 533841, Note_on_c, 0, 68, 78
1, 533846, Note_on_c, 0, 72, 83
1, 533859, Note_on_c, 0, 65, 72
1, 533863, Note_off_c, 0, 70, 65
1, 533887, Note_off_c, 0, 72, 64
1, 534039, Note_on_c, 0, 73, 80
1, 534083, Note_off_c, 0, 73, 57
1, 534174, Note_off_c, 0, 68, 58
1, 534216, Note_on_c, 0, 74, 92
1, 534406, Note_on_c, 0, 75, 90
1, 534414, Note_on_c, 0, 67, 80
1, 534420, Note_on_c, 0, 63, 68
1, 534435, Note_off_c, 0, 74, 64
1, 534440, Note_off_c, 0, 65, 57
1, 534444, Note_off_c, 0, 67, 66
1, 534452, Note_off_c, 0, 63, 65
1, 534515, Control_c, 0, 67, 8
1, 534593, Note_on_c, 0, 65, 67
1, 534599, Note_on_c, 0, 68, 71
1, 534628, Note_off_c, 0, 65, 68
1, 534633, Note_off_c, 0, 68, 65
1, 534776, Note_on_c, 0, 70, 67
1, 534781, Note_on_c, 0, 67, 59
1, 534821, Note_off_c, 0, 67, 62
1, 534821, Note_on_c, 0, 65, 35
1, 534833, Note_off_c, 0, 70, 55
1, 534866, Note_off_c, 0, 65, 45
1, 534958, Note_on_c, 0, 56, 69
1, 534964, Note_on_c, 0, 72, 65
1, 534994, Note_off_c, 0, 56, 65
1, 535028, Note_off_c, 0, 75, 59
1, 535030, Note_off_c, 0, 72, 44
1, 535141, Note_on_c, 0, 53, 72
1, 535143, Note_on_c, 0, 77, 71
1, 535163, Note_on_c, 0, 68, 65
1, 535183, Note_off_c, 0, 53, 63
1, 535183, Poly_aftertouch_c, 0, 53, 0
1, 535206, Note_off_c, 0, 68, 59
1, 535206, Note_off_c, 0, 77, 50
1, 535326, Note_on_c, 0, 58, 70
1, 535327, Note_on_c, 0, 74, 72
1, 535332, Note_on_c, 0, 68, 66
1, 535362, Note_off_c, 0, 58, 64
1, 535391, Note_off_c, 0, 74, 62
1, 535405, Note_off_c, 0, 68, 46
1, 535511, Note_on_c, 0, 75, 67
1, 535526, Note_on_c, 0, 67, 67
1, 535527, Note_on_c, 0, 51, 69
1, 535544, Control_c, 0, 64, 28
1, 535561, Control_c, 0, 64, 50
1, 535567, Note_off_c, 0, 51, 64
1, 535581, Control_c, 0, 64, 65
1, 535582, Note_off_c, 0, 67, 60
1, 535600, Control_c, 0, 64, 71
1, 535623, Note_off_c, 0, 75, 64
1, 535712, Control_c, 0, 64, 66
1, 535713, Control_c, 0, 67, 13
1, 535731, Control_c, 0, 64, 60
1, 535732, Control_c, 0, 67, 17
1, 535749, Control_c, 0, 64, 54
1, 535751, Control_c, 0, 67, 25
1, 535768, Control_c, 0, 64, 45
1, 535770, Control_c, 0, 67, 35
1, 535787, Control_c, 0, 64, 31
1, 535788, Control_c, 0, 67, 45
1, 535806, Control_c, 0, 64, 0
1, 535808, Control_c, 0, 67, 52
1, 535823, Control_c, 0, 67, 58
1, 535843, Control_c, 0, 67, 64
1, 535861, Control_c, 0, 67, 71
1, 535881, Control_c, 0, 67, 77
1, 535898, Control_c, 0, 67, 82
1, 535900, Note_on_c, 0, 73, 63
1, 535917, Control_c, 0, 67, 88
1, 535938, Control_c, 0, 67, 93
1, 535962, Note_off_c, 0, 73, 60
1, 535969, Note_on_c, 0, 75, 70
1, 535973, Control_c, 0, 67, 98
1, 536029, Control_c, 0, 67, 103
1, 536060, Note_on_c, 0, 77, 64
1, 536074, Note_off_c, 0, 75, 60
1, 536078, Note_on_c, 0, 70, 59
1, 536079, Note_on_c, 0, 73, 72
1, 536104, Note_off_c, 0, 77, 59
1, 536112, Note_on_c, 0, 76, 23
1, 536113, Note_off_c, 0, 76, 127
1, 536272, Note_on_c, 0, 78, 68
1, 536312, Note_off_c, 0, 78, 58
1, 536364, Note_off_c, 0, 73, 50
1, 536454, Note_on_c, 0, 79, 61
1, 536638, Note_on_c, 0, 68, 57
1, 536643, Note_on_c, 0, 72, 58
1, 536645, Note_on_c, 0, 80, 68
1, 536649, Note_off_c, 0, 70, 34
1, 536666, Note_off_c, 0, 79, 59
1, 536666, Poly_aftertouch_c, 0, 79, 0
1, 536674, Note_off_c, 0, 72, 62
1, 536676, Note_off_c, 0, 68, 66
1, 536818, Note_on_c, 0, 70, 60
1, 536832, Note_on_c, 0, 73, 62
1, 536863, Note_off_c, 0, 70, 64
1, 536864, Note_off_c, 0, 73, 60
1, 537006, Note_on_c, 0, 72, 65
1, 537012, Note_on_c, 0, 75, 64
1, 537039, Note_off_c, 0, 72, 67
1, 537055, Note_off_c, 0, 75, 60
1, 537189, Note_on_c, 0, 77, 67
1, 537202, Note_on_c, 0, 61, 56
1, 537243, Note_off_c, 0, 61, 64
1, 537243, Poly_aftertouch_c, 0, 61, 0
1, 537248, Note_off_c, 0, 80, 60
1, 537261, Note_off_c, 0, 77, 55
1, 537378, Note_on_c, 0, 58, 56
1, 537391, Note_on_c, 0, 82, 63
1, 537410, Note_on_c, 0, 73, 52
1, 537417, Note_off_c, 0, 58, 63
1, 537440, Note_off_c, 0, 82, 58
1, 537445, Note_off_c, 0, 73, 54
1, 537562, Note_on_c, 0, 73, 58
1, 537579, Note_on_c, 0, 79, 61
1, 537584, Note_on_c, 0, 63, 49
1, 537600, Control_c, 0, 67, 98
1, 537619, Control_c, 0, 67, 93
1, 537624, Note_off_c, 0, 79, 59
1, 537624, Note_off_c, 0, 63, 63
1, 537624, Poly_aftertouch_c, 0, 79, 0
1, 537627, Note_off_c, 0, 73, 53
1, 537637, Control_c, 0, 67, 87
1, 537657, Control_c, 0, 67, 78
1, 537675, Control_c, 0, 67, 69
1, 537693, Control_c, 0, 67, 60
1, 537712, Control_c, 0, 67, 54
1, 537732, Control_c, 0, 67, 49
1, 537768, Control_c, 0, 67, 45
1, 537798, Note_on_c, 0, 80, 59
1, 537801, Note_on_c, 0, 56, 45
1, 537805, Control_c, 0, 64, 29
1, 537817, Note_on_c, 0, 72, 49
1, 537824, Control_c, 0, 64, 47
1, 537843, Control_c, 0, 64, 62
1, 537852, Note_off_c, 0, 80, 61
1, 537862, Control_c, 0, 64, 71
1, 537863, Control_c, 0, 67, 51
1, 537875, Note_off_c, 0, 56, 58
1, 537880, Note_off_c, 0, 72, 62
1, 537881, Control_c, 0, 64, 76
1, 537899, Control_c, 0, 64, 80
1, 537901, Control_c, 0, 67, 57
1, 537919, Control_c, 0, 64, 85
1, 537922, Control_c, 0, 67, 63
1, 537937, Control_c, 0, 67, 68
1, 537956, Control_c, 0, 64, 89
1, 537958, Control_c, 0, 67, 74
1, 537974, Control_c, 0, 67, 79
1, 537993, Control_c, 0, 67, 83
1, 538012, Control_c, 0, 64, 86
1, 538013, Control_c, 0, 67, 87
1, 538031, Control_c, 0, 64, 82
1, 538049, Control_c, 0, 64, 76
1, 538051, Control_c, 0, 67, 92
1, 538068, Control_c, 0, 64, 69
1, 538087, Control_c, 0, 64, 62
1, 538105, Control_c, 0, 64, 56
1, 538123, Control_c, 0, 64, 49
1, 538143, Control_c, 0, 64, 38
1, 538162, Control_c, 0, 64, 22
1, 538179, Control_c, 0, 64, 0
1, 538236, Note_on_c, 0, 60, 62
1, 538258, Note_on_c, 0, 56, 21
1, 538292, Note_off_c, 0, 60, 58
1, 538292, Note_off_c, 0, 56, 46
1, 538292, Poly_aftertouch_c, 0, 60, 0
1, 538313, Note_on_c, 0, 61, 51
1, 538329, Control_c, 0, 67, 88
1, 538352, Note_off_c, 0, 61, 64
1, 538352, Poly_aftertouch_c, 0, 61, 0
1, 538386, Control_c, 0, 67, 81
1, 538395, Poly_aftertouch_c, 0, 58, 0
1, 538400, Note_on_c, 0, 32, 71
1, 538405, Control_c, 0, 67, 77
1, 538414, Note_on_c, 0, 63, 63
1, 538424, Control_c, 0, 67, 73
1, 538428, Note_on_c, 0, 60, 56
1, 538439, Note_off_c, 0, 32, 60
1, 538439, Poly_aftertouch_c, 0, 32, 0
1, 538440, Control_c, 0, 67, 69
1, 538460, Control_c, 0, 67, 65
1, 538479, Control_c, 0, 67, 60
1, 538518, Control_c, 0, 67, 53
1, 538553, Control_c, 0, 67, 49
1, 538605, Note_on_c, 0, 44, 67
1, 538637, Note_off_c, 0, 44, 66
1, 538637, Poly_aftertouch_c, 0, 44, 0
1, 538645, Control_c, 0, 67, 45
1, 538816, Note_on_c, 0, 65, 63
1, 538823, Note_on_c, 0, 61, 56
1, 538824, Note_off_c, 0, 63, 61
1, 538872, Control_c, 0, 67, 41
1, 538903, Note_off_c, 0, 60, 57
1, 538903, Poly_aftertouch_c, 0, 60, 0
1, 538908, Control_c, 0, 67, 32
1, 538927, Control_c, 0, 67, 24
1, 538947, Control_c, 0, 67, 14
1, 538989, Note_off_c, 0, 65, 58
1, 539000, Note_on_c, 0, 66, 65
1, 539002, Note_on_c, 0, 63, 64
1, 539002, Control_c, 0, 67, 0
1, 539011, Note_off_c, 0, 61, 30
1, 539011, Note_on_c, 0, 32, 55
1, 539011, Poly_aftertouch_c, 0, 61, 0
1, 539040, Control_c, 0, 64, 12
1, 539047, Note_off_c, 0, 32, 56
1, 539047, Poly_aftertouch_c, 0, 32, 0
1, 539059, Control_c, 0, 64, 31
1, 539077, Control_c, 0, 64, 43
1, 539097, Control_c, 0, 64, 52
1, 539114, Control_c, 0, 64, 58
1, 539134, Control_c, 0, 64, 62
1, 539142, Note_off_c, 0, 63, 62
1, 539151, Note_off_c, 0, 66, 61
1, 539171, Control_c, 0, 64, 61
1, 539189, Control_c, 0, 64, 56
1, 539193, Note_on_c, 0, 44, 76
1, 539208, Control_c, 0, 64, 48
1, 539224, Note_off_c, 0, 44, 65
1, 539224, Poly_aftertouch_c, 0, 44, 0
1, 539226, Control_c, 0, 64, 27
1, 539245, Control_c, 0, 64, 0
1, 539385, Note_on_c, 0, 66, 97
1, 539388, Note_on_c, 0, 63, 90
1, 539414, Control_c, 0, 64, 8
1, 539433, Control_c, 0, 64, 53
1, 539451, Control_c, 0, 64, 70
1, 539470, Control_c, 0, 64, 80
1, 539479, Note_off_c, 0, 66, 61
1, 539489, Control_c, 0, 64, 86
1, 539530, Note_off_c, 0, 63, 60
1, 539545, Control_c, 0, 64, 84
1, 539564, Control_c, 0, 64, 69
1, 539567, Note_on_c, 0, 32, 86
1, 539575, Note_on_c, 0, 66, 81
1, 539577, Note_on_c, 0, 72, 91
1, 539582, Control_c, 0, 64, 47
1, 539597, Note_off_c, 0, 66, 77
1, 539600, Control_c, 0, 64, 0
1, 539605, Note_off_c, 0, 32, 64
1, 539605, Poly_aftertouch_c, 0, 32, 0
1, 539631, Note_off_c, 0, 72, 64
1, 539749, Note_on_c, 0, 44, 82
1, 539760, Note_on_c, 0, 75, 90
1, 539760, Note_on_c, 0, 72, 87
1, 539785, Note_off_c, 0, 72, 69
1, 539790, Note_off_c, 0, 44, 64
1, 539790, Poly_aftertouch_c, 0, 44, 0
1, 539801, Note_off_c, 0, 75, 62
1, 539893, Poly_aftertouch_c, 0, 32, 0
1, 539947, Note_on_c, 0, 78, 96
1, 539950, Note_on_c, 0, 75, 96
1, 539996, Poly_aftertouch_c, 0, 32, 127
1, 540025, Poly_aftertouch_c, 0, 32, 0
1, 540131, Note_on_c, 0, 33, 89
1, 540179, Note_on_c, 0, 35, 29
1, 540179, Control_c, 0, 64, 60
1, 540181, Note_off_c, 0, 78, 61
1, 540200, Control_c, 0, 64, 69
1, 540218, Control_c, 0, 64, 62
1, 540238, Control_c, 0, 64, 50
1, 540240, Note_off_c, 0, 35, 31
1, 540255, Control_c, 0, 64, 0
1, 540270, Note_off_c, 0, 33, 61
1, 540292, Control_c, 0, 67, 8
1, 540313, Note_off_c, 0, 75, 62
1, 540316, Note_on_c, 0, 74, 74
1, 540318, Note_on_c, 0, 77, 63
1, 540323, Note_on_c, 0, 34, 80
1, 540330, Control_c, 0, 67, 13
1, 540341, Note_off_c, 0, 77, 62
1, 540345, Note_off_c, 0, 74, 70
1, 540348, Control_c, 0, 67, 18
1, 540358, Note_off_c, 0, 34, 63
1, 540368, Control_c, 0, 67, 26
1, 540386, Control_c, 0, 67, 37
1, 540405, Control_c, 0, 67, 47
1, 540424, Control_c, 0, 67, 56
1, 540443, Control_c, 0, 67, 64
1, 540460, Control_c, 0, 67, 72
1, 540480, Control_c, 0, 67, 81
1, 540498, Control_c, 0, 67, 87
1, 540517, Control_c, 0, 67, 91
1, 540532, Note_on_c, 0, 62, 70
1, 540539, Note_on_c, 0, 61, 36
1, 540540, Note_on_c, 0, 58, 46
1, 540574, Note_off_c, 0, 58, 57
1, 540587, Note_off_c, 0, 61, 51
1, 540587, Poly_aftertouch_c, 0, 61, 0
1, 540592, Note_off_c, 0, 62, 56
1, 540595, Note_on_c, 0, 63, 79
1, 540625, Note_off_c, 0, 63, 71
1, 540648, Control_c, 0, 67, 87
1, 540671, Note_on_c, 0, 64, 15
1, 540671, Poly_aftertouch_c, 0, 64, 0
1, 540672, Note_off_c, 0, 64, 127
1, 540676, Note_on_c, 0, 34, 69
1, 540686, Control_c, 0, 67, 79
1, 540704, Control_c, 0, 67, 71
1, 540712, Note_on_c, 0, 62, 61
1, 540714, Note_on_c, 0, 65, 62
1, 540722, Control_c, 0, 67, 61
1, 540729, Note_off_c, 0, 34, 62
1, 540741, Control_c, 0, 67, 52
1, 540761, Control_c, 0, 67, 45
1, 540779, Control_c, 0, 67, 39
1, 540798, Control_c, 0, 67, 32
1, 540816, Control_c, 0, 67, 26
1, 540835, Control_c, 0, 67, 19
1, 540853, Control_c, 0, 67, 13
1, 540894, Note_on_c, 0, 46, 66
1, 540927, Note_off_c, 0, 46, 65
1, 540927, Poly_aftertouch_c, 0, 46, 0
1, 541095, Note_on_c, 0, 64, 62
1, 541103, Note_on_c, 0, 67, 63
1, 541153, Note_off_c, 0, 65, 61
1, 541171, Note_off_c, 0, 62, 59
1, 541171, Control_c, 0, 67, 0
1, 541265, Note_off_c, 0, 64, 56
1, 541265, Poly_aftertouch_c, 0, 64, 0
1, 541292, Note_on_c, 0, 34, 62
1, 541300, Note_on_c, 0, 68, 70
1, 541301, Note_on_c, 0, 65, 69
1, 541340, Control_c, 0, 64, 30
1, 541344, Note_off_c, 0, 34, 62
1, 541358, Control_c, 0, 64, 41
1, 541378, Control_c, 0, 64, 44
1, 541387, Note_off_c, 0, 67, 54
1, 541395, Control_c, 0, 64, 42
1, 541406, Note_off_c, 0, 65, 63
1, 541413, Control_c, 0, 64, 33
1, 541420, Note_off_c, 0, 68, 64
1, 541452, Control_c, 0, 64, 0
1, 541488, Note_on_c, 0, 46, 75
1, 541520, Note_off_c, 0, 46, 65
1, 541520, Poly_aftertouch_c, 0, 46, 0
1, 541674, Note_on_c, 0, 65, 92
1, 541677, Note_on_c, 0, 68, 93
1, 541733, Control_c, 0, 64, 63
1, 541751, Control_c, 0, 64, 80
1, 541758, Note_off_c, 0, 68, 61
1, 541770, Control_c, 0, 64, 84
1, 541807, Control_c, 0, 64, 81
1, 541826, Control_c, 0, 64, 71
1, 541846, Control_c, 0, 64, 48
1, 541858, Note_on_c, 0, 68, 82
1, 541861, Note_on_c, 0, 74, 91
1, 541861, Note_on_c, 0, 34, 93
1, 541864, Control_c, 0, 64, 0
1, 541874, Note_off_c, 0, 65, 59
1, 541878, Note_off_c, 0, 68, 75
1, 541906, Note_off_c, 0, 74, 63
1, 541909, Note_off_c, 0, 34, 60
1, 542047, Note_on_c, 0, 46, 81
1, 542050, Note_on_c, 0, 77, 88
1, 542052, Note_on_c, 0, 74, 79
1, 542079, Note_off_c, 0, 74, 70
1, 542082, Note_off_c, 0, 77, 63
1, 542088, Note_off_c, 0, 46, 64
1, 542088, Poly_aftertouch_c, 0, 46, 0
1, 542234, Note_on_c, 0, 80, 97
1, 542236, Note_on_c, 0, 77, 98
1, 542239, Note_on_c, 0, 34, 90
1, 542331, Note_off_c, 0, 34, 57
1, 542416, Note_on_c, 0, 35, 95
1, 542435, Note_off_c, 0, 80, 62
1, 542480, Control_c, 0, 64, 60
1, 542500, Control_c, 0, 64, 83
1, 542518, Control_c, 0, 64, 85
1, 542536, Control_c, 0, 64, 77
1, 542556, Note_off_c, 0, 35, 58
1, 542556, Control_c, 0, 64, 59
1, 542574, Control_c, 0, 64, 0
1, 542584, Note_off_c, 0, 77, 44
1, 542591, Control_c, 0, 67, 8
1, 542599, Note_on_c, 0, 79, 74
1, 542600, Note_on_c, 0, 36, 82
1, 542605, Note_on_c, 0, 76, 70
1, 542626, Note_off_c, 0, 79, 70
1, 542626, Poly_aftertouch_c, 0, 79, 0
1, 542628, Control_c, 0, 67, 16
1, 542634, Note_off_c, 0, 76, 70
1, 542648, Control_c, 0, 67, 23
1, 542654, Note_off_c, 0, 36, 59
1, 542667, Control_c, 0, 67, 32
1, 542686, Control_c, 0, 67, 43
1, 542705, Control_c, 0, 67, 51
1, 542724, Control_c, 0, 67, 58
1, 542742, Control_c, 0, 67, 62
1, 542780, Control_c, 0, 67, 67
1, 542813, Note_on_c, 0, 64, 55
1, 542824, Note_on_c, 0, 60, 42
1, 542857, Note_off_c, 0, 64, 60
1, 542857, Poly_aftertouch_c, 0, 64, 0
1, 542858, Note_off_c, 0, 60, 51
1, 542858, Poly_aftertouch_c, 0, 60, 0
1, 542885, Note_on_c, 0, 65, 71
1, 542915, Note_off_c, 0, 65, 69
1, 542971, Note_on_c, 0, 64, 60
1, 542974, Note_on_c, 0, 67, 68
1, 542983, Note_on_c, 0, 36, 53
1, 543061, Control_c, 0, 67, 63
1, 543066, Note_off_c, 0, 36, 53
1, 543098, Control_c, 0, 67, 58
1, 543135, Control_c, 0, 67, 51
1, 543172, Control_c, 0, 67, 43
1, 543180, Note_on_c, 0, 48, 53
1, 543192, Control_c, 0, 67, 38
1, 543209, Control_c, 0, 67, 33
1, 543224, Note_off_c, 0, 48, 64
1, 543228, Control_c, 0, 67, 29
1, 543247, Control_c, 0, 67, 25
1, 543284, Control_c, 0, 67, 19
1, 543322, Control_c, 0, 67, 15
1, 543359, Control_c, 0, 67, 11
1, 543378, Note_on_c, 0, 68, 58
1, 543383, Note_on_c, 0, 65, 52
1, 543421, Note_off_c, 0, 67, 58
1, 543453, Note_off_c, 0, 64, 56
1, 543453, Poly_aftertouch_c, 0, 64, 0
1, 543523, Note_off_c, 0, 65, 57
1, 543565, Note_on_c, 0, 70, 66
1, 543574, Note_on_c, 0, 36, 54
1, 543583, Control_c, 0, 67, 0
1, 543586, Note_on_c, 0, 67, 60
1, 543602, Control_c, 0, 64, 23
1, 543621, Control_c, 0, 64, 45
1, 543637, Note_off_c, 0, 36, 54
1, 543638, Control_c, 0, 64, 60
1, 543658, Control_c, 0, 64, 68
1, 543677, Control_c, 0, 64, 72
1, 543696, Note_off_c, 0, 70, 59
1, 543715, Note_off_c, 0, 67, 61
1, 543723, Note_off_c, 0, 68, 60
1, 543765, Note_on_c, 0, 48, 80
1, 543790, Control_c, 0, 64, 63
1, 543808, Control_c, 0, 64, 48
1, 543814, Note_off_c, 0, 48, 62
1, 543826, Control_c, 0, 64, 0
1, 543949, Note_on_c, 0, 64, 80
1, 543965, Note_on_c, 0, 60, 62
1, 544001, Note_off_c, 0, 64, 60
1, 544001, Poly_aftertouch_c, 0, 64, 0
1, 544003, Note_off_c, 0, 60, 65
1, 544003, Poly_aftertouch_c, 0, 60, 0
1, 544039, Note_on_c, 0, 64, 50
1, 544044, Note_on_c, 0, 65, 79
1, 544054, Note_on_c, 0, 62, 56
1, 544070, Note_off_c, 0, 64, 60
1, 544070, Poly_aftertouch_c, 0, 64, 0
1, 544085, Note_off_c, 0, 62, 60
1, 544085, Note_off_c, 0, 65, 58
1, 544117, Note_on_c, 0, 67, 99
1, 544122, Note_on_c, 0, 64, 97
1, 544124, Note_on_c, 0, 36, 88
1, 544144, Control_c, 0, 64, 13
1, 544159, Note_off_c, 0, 64, 66
1, 544159, Poly_aftertouch_c, 0, 64, 0
1, 544163, Control_c, 0, 64, 77
1, 544169, Note_off_c, 0, 67, 64
1, 544182, Control_c, 0, 64, 97
1, 544188, Note_off_c, 0, 36, 62
1, 544201, Control_c, 0, 64, 108
1, 544238, Control_c, 0, 64, 102
1, 544258, Control_c, 0, 64, 85
1, 544276, Control_c, 0, 64, 60
1, 544294, Control_c, 0, 64, 22
1, 544313, Control_c, 0, 64, 0
1, 544315, Note_on_c, 0, 60, 77
1, 544320, Note_on_c, 0, 64, 78
1, 544331, Note_on_c, 0, 48, 63
1, 544364, Note_off_c, 0, 64, 65
1, 544364, Poly_aftertouch_c, 0, 64, 0
1, 544372, Note_off_c, 0, 60, 60
1, 544372, Poly_aftertouch_c, 0, 60, 0
1, 544381, Note_off_c, 0, 48, 58
1, 544408, Note_on_c, 0, 65, 83
1, 544439, Note_off_c, 0, 65, 67
1, 544440, Note_on_c, 0, 62, 38
1, 544441, Note_off_c, 0, 62, 127
1, 544485, Poly_aftertouch_c, 0, 62, 0
1, 544500, Note_on_c, 0, 64, 73
1, 544510, Note_on_c, 0, 67, 55
1, 544524, Note_on_c, 0, 65, 55
1, 544540, Note_off_c, 0, 64, 64
1, 544540, Poly_aftertouch_c, 0, 64, 0
1, 544554, Note_off_c, 0, 65, 60
1, 544555, Note_off_c, 0, 67, 63
1, 544598, Note_on_c, 0, 68, 87
1, 544602, Note_on_c, 0, 67, 61
1, 544640, Note_off_c, 0, 67, 65
1, 544671, Note_on_c, 0, 70, 98
1, 544674, Note_on_c, 0, 67, 90
1, 544688, Note_on_c, 0, 36, 90
1, 544695, Note_on_c, 0, 65, 61
1, 544696, Note_off_c, 0, 65, 127
1, 544699, Note_off_c, 0, 68, 65
1, 544714, Note_off_c, 0, 67, 67
1, 544725, Control_c, 0, 64, 52
1, 544726, Poly_aftertouch_c, 0, 65, 0
1, 544731, Note_off_c, 0, 70, 68
1, 544743, Control_c, 0, 64, 96
1, 544760, Note_off_c, 0, 36, 62
1, 544761, Control_c, 0, 64, 125
1, 544873, Note_on_c, 0, 67, 83
1, 544874, Control_c, 0, 64, 112
1, 544875, Note_on_c, 0, 64, 77
1, 544886, Note_on_c, 0, 48, 49
1, 544892, Control_c, 0, 64, 89
1, 544911, Control_c, 0, 64, 68
1, 544912, Note_off_c, 0, 64, 66
1, 544912, Poly_aftertouch_c, 0, 64, 0
1, 544923, Note_off_c, 0, 48, 51
1, 544928, Control_c, 0, 64, 55
1, 544932, Note_off_c, 0, 67, 64
1, 544949, Control_c, 0, 64, 49
1, 544967, Control_c, 0, 64, 45
1, 544988, Note_on_c, 0, 68, 33
1, 544988, Note_on_c, 0, 69, 65
1, 545003, Control_c, 0, 64, 43
1, 545020, Note_off_c, 0, 69, 62
1, 545020, Poly_aftertouch_c, 0, 69, 0
1, 545035, Note_off_c, 0, 68, 55
1, 545041, Note_on_c, 0, 67, 49
1, 545065, Note_on_c, 0, 70, 67
1, 545080, Control_c, 0, 64, 40
1, 545117, Control_c, 0, 64, 35
1, 545119, Note_off_c, 0, 67, 61
1, 545136, Control_c, 0, 64, 16
1, 545143, Note_on_c, 0, 72, 61
1, 545143, Poly_aftertouch_c, 0, 65, 0
1, 545154, Control_c, 0, 64, 0
1, 545160, Note_on_c, 0, 71, 54
1, 545169, Note_off_c, 0, 72, 63
1, 545189, Note_off_c, 0, 71, 57
1, 545189, Note_off_c, 0, 70, 64
1, 545212, Note_on_c, 0, 70, 79
1, 545230, Note_on_c, 0, 73, 88
1, 545236, Note_on_c, 0, 48, 86
1, 545243, Note_on_c, 0, 72, 68
1, 545247, Note_on_c, 0, 68, 57
1, 545267, Note_off_c, 0, 72, 66
1, 545275, Note_off_c, 0, 70, 68
1, 545279, Note_off_c, 0, 68, 61
1, 545280, Note_off_c, 0, 73, 56
1, 545306, Note_off_c, 0, 48, 60
1, 545323, Control_c, 0, 67, 8
1, 545417, Control_c, 0, 67, 13
1, 545438, Note_on_c, 0, 60, 70
1, 545472, Note_off_c, 0, 60, 66
1, 545472, Poly_aftertouch_c, 0, 60, 0
1, 545491, Control_c, 0, 67, 17
1, 545529, Control_c, 0, 67, 21
1, 545565, Control_c, 0, 67, 25
1, 545616, Note_on_c, 0, 70, 71
1, 545621, Note_on_c, 0, 67, 66
1, 545621, Control_c, 0, 67, 31
1, 545641, Control_c, 0, 67, 36
1, 545654, Note_off_c, 0, 67, 67
1, 545656, Note_off_c, 0, 70, 65
1, 545657, Control_c, 0, 67, 40
1, 545714, Control_c, 0, 67, 44
1, 545812, Note_on_c, 0, 67, 64
1, 545827, Note_on_c, 0, 48, 52
1, 545828, Note_on_c, 0, 64, 56
1, 545860, Note_off_c, 0, 67, 63
1, 545870, Note_off_c, 0, 48, 60
1, 545873, Note_off_c, 0, 64, 62
1, 545873, Poly_aftertouch_c, 0, 64, 0
1, 545978, Control_c, 0, 67, 48
1, 546015, Control_c, 0, 67, 53
1, 546016, Note_on_c, 0, 60, 50
1, 546050, Note_off_c, 0, 60, 57
1, 546050, Poly_aftertouch_c, 0, 60, 0
1, 546052, Control_c, 0, 67, 59
1, 546107, Control_c, 0, 67, 65
1, 546145, Control_c, 0, 67, 69
1, 546186, Note_on_c, 0, 70, 60
1, 546192, Note_on_c, 0, 67, 57
1, 546225, Note_off_c, 0, 70, 67
1, 546229, Note_off_c, 0, 67, 63
1, 546382, Note_on_c, 0, 48, 47
1, 546391, Note_on_c, 0, 70, 41
1, 546392, Note_on_c, 0, 73, 57
1, 546429, Note_off_c, 0, 48, 58
1, 546434, Note_off_c, 0, 70, 55
1, 546453, Note_off_c, 0, 73, 58
1, 546587, Note_on_c, 0, 60, 42
1, 546625, Note_off_c, 0, 60, 52
1, 546625, Poly_aftertouch_c, 0, 60, 0
1, 546752, Note_on_c, 0, 70, 57
1, 546760, Note_on_c, 0, 67, 50
1, 546797, Note_off_c, 0, 70, 60
1, 546806, Note_off_c, 0, 67, 62
1, 546929, Note_on_c, 0, 67, 55
1, 546937, Note_on_c, 0, 48, 47
1, 546957, Note_on_c, 0, 64, 41
1, 546981, Note_off_c, 0, 48, 59
1, 546983, Note_off_c, 0, 67, 56
1, 547040, Note_off_c, 0, 64, 38
1, 547040, Poly_aftertouch_c, 0, 64, 0
1, 547041, Control_c, 0, 67, 63
1, 547061, Control_c, 0, 67, 58
1, 547081, Control_c, 0, 67, 50
1, 547098, Control_c, 0, 67, 40
1, 547118, Control_c, 0, 67, 29
1, 547129, Note_on_c, 0, 60, 58
1, 547137, Control_c, 0, 67, 19
1, 547155, Control_c, 0, 67, 8
1, 547173, Note_off_c, 0, 60, 63
1, 547173, Poly_aftertouch_c, 0, 60, 0
1, 547212, Control_c, 0, 67, 0
1, 547312, Note_on_c, 0, 67, 71
1, 547316, Note_on_c, 0, 70, 65
1, 547356, Note_off_c, 0, 70, 62
1, 547360, Note_off_c, 0, 67, 62
1, 547360, Control_c, 0, 64, 8
1, 547379, Control_c, 0, 64, 28
1, 547398, Control_c, 0, 64, 39
1, 547417, Control_c, 0, 64, 44
1, 547454, Control_c, 0, 64, 42
1, 547473, Control_c, 0, 64, 38
1, 547491, Note_on_c, 0, 52, 68
1, 547491, Control_c, 0, 64, 34
1, 547494, Note_on_c, 0, 73, 64
1, 547501, Note_on_c, 0, 70, 54
1, 547509, Control_c, 0, 67, 9
1, 547515, Note_on_c, 0, 67, 37
1, 547548, Control_c, 0, 67, 15
1, 547585, Control_c, 0, 67, 21
1, 547623, Control_c, 0, 67, 27
1, 547641, Control_c, 0, 67, 31
1, 547649, Note_off_c, 0, 52, 53
1, 547660, Control_c, 0, 67, 36
1, 547679, Control_c, 0, 67, 40
1, 547694, Note_on_c, 0, 64, 65
1, 547697, Control_c, 0, 67, 44
1, 547731, Note_off_c, 0, 73, 55
1, 547744, Note_off_c, 0, 67, 41
1, 547745, Poly_aftertouch_c, 0, 67, 0
1, 547747, Note_off_c, 0, 70, 42
1, 547753, Control_c, 0, 64, 29
1, 547790, Control_c, 0, 64, 25
1, 547828, Control_c, 0, 64, 19
1, 547847, Control_c, 0, 64, 14
1, 547848, Control_c, 0, 67, 49
1, 547867, Control_c, 0, 64, 9
1, 547884, Note_on_c, 0, 67, 61
1, 547884, Control_c, 0, 64, 0
1, 547890, Note_on_c, 0, 72, 61
1, 547912, Note_on_c, 0, 70, 39
1, 547919, Control_c, 0, 67, 53
1, 547954, Note_off_c, 0, 70, 53
1, 547965, Note_on_c, 0, 73, 20
1, 547966, Note_off_c, 0, 73, 127
1, 547973, Note_off_c, 0, 72, 61
1, 547976, Control_c, 0, 67, 58
1, 547991, Note_off_c, 0, 67, 45
1, 548034, Control_c, 0, 67, 64
1, 548071, Control_c, 0, 67, 69
1, 548078, Note_on_c, 0, 73, 66
1, 548079, Note_on_c, 0, 52, 57
1, 548079, Note_on_c, 0, 70, 56
1, 548085, Note_off_c, 0, 64, 37
1, 548085, Poly_aftertouch_c, 0, 64, 0
1, 548090, Control_c, 0, 67, 73
1, 548108, Control_c, 0, 67, 77
1, 548110, Note_on_c, 0, 67, 36
1, 548146, Control_c, 0, 67, 84
1, 548165, Control_c, 0, 67, 89
1, 548183, Control_c, 0, 67, 94
1, 548202, Control_c, 0, 67, 99
1, 548212, Note_off_c, 0, 52, 31
1, 548239, Control_c, 0, 67, 106
1, 548255, Note_on_c, 0, 64, 56
1, 548276, Control_c, 0, 67, 113
1, 548305, Note_off_c, 0, 73, 55
1, 548320, Note_off_c, 0, 70, 51
1, 548324, Note_off_c, 0, 67, 42
1, 548351, Control_c, 0, 67, 117
1, 548445, Control_c, 0, 67, 121
1, 548451, Note_on_c, 0, 72, 53
1, 548452, Note_on_c, 0, 67, 50
1, 548519, Note_off_c, 0, 67, 52
1, 548520, Control_c, 0, 67, 125
1, 548544, Poly_aftertouch_c, 0, 70, 0
1, 548551, Note_off_c, 0, 72, 43
1, 548637, Note_on_c, 0, 73, 56
1, 548645, Note_on_c, 0, 52, 44
1, 548656, Note_off_c, 0, 64, 33
1, 548656, Poly_aftertouch_c, 0, 64, 0
1, 548666, Note_on_c, 0, 67, 44
1, 548667, Note_on_c, 0, 70, 44
1, 548725, Note_off_c, 0, 52, 46
1, 548827, Note_on_c, 0, 64, 40
1, 548869, Note_off_c, 0, 73, 51
1, 548891, Note_off_c, 0, 67, 38
1, 548920, Note_off_c, 0, 70, 37
1, 549014, Note_on_c, 0, 67, 56
1, 549026, Note_on_c, 0, 72, 41
1, 549086, Note_off_c, 0, 67, 52
1, 549093, Note_off_c, 0, 72, 42
1, 549108, Poly_aftertouch_c, 0, 70, 0
1, 549196, Note_off_c, 0, 64, 39
1, 549196, Note_on_c, 0, 52, 39
1, 549196, Poly_aftertouch_c, 0, 64, 0
1, 549224, Note_on_c, 0, 73, 50
1, 549235, Note_on_c, 0, 67, 39
1, 549248, Note_on_c, 0, 70, 38
1, 549343, Control_c, 0, 64, 13
1, 549362, Note_off_c, 0, 52, 37
1, 549362, Control_c, 0, 64, 24
1, 549380, Control_c, 0, 64, 34
1, 549397, Control_c, 0, 64, 45
1, 549401, Note_on_c, 0, 64, 32
1, 549415, Note_off_c, 0, 67, 44
1, 549418, Control_c, 0, 64, 54
1, 549437, Control_c, 0, 64, 61
1, 549454, Control_c, 0, 64, 65
1, 549458, Note_off_c, 0, 70, 40
1, 549474, Control_c, 0, 64, 66
1, 549479, Note_off_c, 0, 73, 37
1, 549512, Control_c, 0, 64, 68
1, 549549, Control_c, 0, 64, 70
1, 549573, Note_on_c, 0, 67, 55
1, 549582, Note_on_c, 0, 72, 52
1, 549623, Note_off_c, 0, 64, 44
1, 549623, Poly_aftertouch_c, 0, 64, 0
1, 549629, Note_off_c, 0, 72, 54
1, 549645, Note_off_c, 0, 67, 60
1, 549679, Control_c, 0, 64, 68
1, 549698, Control_c, 0, 64, 66
1, 549716, Control_c, 0, 64, 62
1, 549735, Control_c, 0, 64, 58
1, 549755, Control_c, 0, 64, 54
1, 549763, Note_on_c, 0, 55, 40
1, 549763, Note_on_c, 0, 64, 56
1, 549769, Note_on_c, 0, 73, 53
1, 549774, Control_c, 0, 64, 50
1, 549790, Control_c, 0, 64, 46
1, 549797, Note_on_c, 0, 70, 46
1, 549810, Control_c, 0, 64, 42
1, 549828, Control_c, 0, 64, 40
1, 549867, Control_c, 0, 64, 42
1, 549885, Control_c, 0, 64, 46
1, 549905, Control_c, 0, 64, 51
1, 549923, Control_c, 0, 64, 56
1, 549940, Control_c, 0, 64, 61
1, 549952, Note_off_c, 0, 64, 54
1, 549952, Poly_aftertouch_c, 0, 64, 0
1, 549958, Control_c, 0, 64, 63
1, 549968, Note_on_c, 0, 67, 45
1, 549969, Note_off_c, 0, 70, 54
1, 549971, Note_off_c, 0, 73, 52
1, 549977, Control_c, 0, 64, 65
1, 550053, Note_off_c, 0, 55, 56
1, 550053, Poly_aftertouch_c, 0, 55, 0
1, 550071, Control_c, 0, 64, 63
1, 550091, Control_c, 0, 64, 60
1, 550093, Note_off_c, 0, 67, 35
1, 550110, Control_c, 0, 64, 55
1, 550128, Control_c, 0, 64, 49
1, 550141, Note_on_c, 0, 72, 53
1, 550146, Control_c, 0, 64, 45
1, 550150, Note_on_c, 0, 64, 42
1, 550162, Note_on_c, 0, 70, 37
1, 550164, Control_c, 0, 64, 42
1, 550203, Control_c, 0, 64, 40
1, 550224, Note_off_c, 0, 70, 48
1, 550234, Note_off_c, 0, 64, 55
1, 550234, Poly_aftertouch_c, 0, 64, 0
1, 550241, Note_off_c, 0, 72, 55
1, 550259, Control_c, 0, 64, 35
1, 550332, Note_on_c, 0, 64, 46
1, 550333, Control_c, 0, 64, 40
1, 550337, Note_on_c, 0, 55, 41
1, 550341, Note_on_c, 0, 73, 42
1, 550352, Control_c, 0, 64, 45
1, 550358, Note_on_c, 0, 70, 47
1, 550371, Control_c, 0, 64, 54
1, 550390, Control_c, 0, 64, 63
1, 550410, Control_c, 0, 64, 69
1, 550427, Control_c, 0, 64, 72
1, 550465, Control_c, 0, 64, 74
1, 550531, Note_off_c, 0, 64, 49
1, 550531, Poly_aftertouch_c, 0, 64, 0
1, 550535, Note_off_c, 0, 70, 33
1, 550538, Note_off_c, 0, 73, 43
1, 550539, Control_c, 0, 64, 70
1, 550540, Note_on_c, 0, 67, 33
1, 550558, Control_c, 0, 64, 67
1, 550577, Control_c, 0, 64, 62
1, 550588, Note_off_c, 0, 55, 52
1, 550588, Poly_aftertouch_c, 0, 55, 0
1, 550594, Control_c, 0, 64, 56
1, 550614, Control_c, 0, 64, 49
1, 550633, Control_c, 0, 64, 40
1, 550644, Note_off_c, 0, 67, 50
1, 550651, Control_c, 0, 64, 25
1, 550671, Control_c, 0, 64, 0
1, 550703, Note_on_c, 0, 72, 47
1, 550713, Note_on_c, 0, 64, 39
1, 550755, Note_on_c, 0, 70, 7
1, 550788, Note_off_c, 0, 64, 51
1, 550788, Poly_aftertouch_c, 0, 64, 0
1, 550801, Note_off_c, 0, 72, 55
1, 550821, Control_c, 0, 64, 11
1, 550837, Note_off_c, 0, 70, 37
1, 550838, Control_c, 0, 64, 17
1, 550857, Control_c, 0, 64, 21
1, 550876, Control_c, 0, 64, 27
1, 550895, Control_c, 0, 64, 34
1, 550898, Note_on_c, 0, 55, 41
1, 550901, Note_on_c, 0, 64, 34
1, 550909, Note_on_c, 0, 73, 41
1, 550913, Control_c, 0, 64, 43
1, 550930, Note_on_c, 0, 70, 30
1, 550930, Control_c, 0, 64, 52
1, 550951, Control_c, 0, 64, 60
1, 550970, Control_c, 0, 64, 64
1, 550989, Control_c, 0, 64, 66
1, 551083, Control_c, 0, 64, 65
1, 551096, Note_off_c, 0, 73, 38
1, 551099, Note_on_c, 0, 67, 33
1, 551101, Control_c, 0, 64, 63
1, 551106, Note_off_c, 0, 64, 40
1, 551106, Poly_aftertouch_c, 0, 64, 0
1, 551115, Note_off_c, 0, 70, 36
1, 551118, Control_c, 0, 64, 60
1, 551137, Control_c, 0, 64, 55
1, 551157, Control_c, 0, 64, 48
1, 551166, Note_off_c, 0, 55, 45
1, 551166, Poly_aftertouch_c, 0, 55, 0
1, 551175, Control_c, 0, 64, 41
1, 551194, Control_c, 0, 64, 30
1, 551202, Note_off_c, 0, 67, 49
1, 551212, Control_c, 0, 64, 11
1, 551231, Control_c, 0, 64, 0
1, 551277, Note_on_c, 0, 72, 41
1, 551287, Note_on_c, 0, 64, 25
1, 551295, Note_on_c, 0, 70, 26
1, 551306, Control_c, 0, 64, 16
1, 551325, Control_c, 0, 64, 25
1, 551344, Control_c, 0, 64, 33
1, 551355, Note_off_c, 0, 70, 48
1, 551361, Control_c, 0, 64, 39
1, 551373, Note_off_c, 0, 72, 48
1, 551375, Note_off_c, 0, 64, 43
1, 551375, Poly_aftertouch_c, 0, 64, 0
1, 551384, Control_c, 0, 64, 42
1, 551419, Control_c, 0, 64, 38
1, 551437, Control_c, 0, 64, 33
1, 551447, Note_on_c, 0, 55, 38
1, 551456, Control_c, 0, 64, 26
1, 551466, Note_on_c, 0, 73, 46
1, 551468, Note_on_c, 0, 64, 37
1, 551474, Control_c, 0, 64, 20
1, 551493, Note_on_c, 0, 70, 35
1, 551530, Control_c, 0, 64, 25
1, 551549, Control_c, 0, 64, 31
1, 551568, Control_c, 0, 64, 38
1, 551587, Control_c, 0, 64, 45
1, 551605, Control_c, 0, 64, 50
1, 551607, Control_c, 0, 67, 120
1, 551625, Control_c, 0, 67, 113
1, 551643, Control_c, 0, 67, 105
1, 551646, Note_off_c, 0, 73, 38
1, 551647, Note_on_c, 0, 67, 40
1, 551648, Note_off_c, 0, 64, 34
1, 551648, Poly_aftertouch_c, 0, 64, 0
1, 551655, Note_off_c, 0, 70, 35
1, 551662, Control_c, 0, 67, 97
1, 551680, Control_c, 0, 67, 89
1, 551700, Control_c, 0, 67, 82
1, 551719, Control_c, 0, 64, 45
1, 551720, Control_c, 0, 67, 74
1, 551727, Note_off_c, 0, 55, 35
1, 551727, Poly_aftertouch_c, 0, 55, 0
1, 551728, Note_off_c, 0, 67, 50
1, 551736, Control_c, 0, 64, 43
1, 551738, Control_c, 0, 67, 68
1, 551755, Control_c, 0, 64, 41
1, 551757, Control_c, 0, 67, 64
1, 551793, Control_c, 0, 67, 59
1, 551811, Control_c, 0, 64, 36
1, 551822, Note_on_c, 0, 72, 45
1, 551831, Note_on_c, 0, 64, 31
1, 551844, Note_on_c, 0, 70, 28
1, 551898, Note_off_c, 0, 64, 45
1, 551898, Poly_aftertouch_c, 0, 64, 0
1, 551900, Note_off_c, 0, 70, 50
1, 551907, Note_off_c, 0, 72, 47
1, 552010, Note_on_c, 0, 64, 38
1, 552016, Control_c, 0, 64, 31
1, 552025, Note_on_c, 0, 73, 33
1, 552035, Control_c, 0, 67, 63
1, 552038, Note_on_c, 0, 70, 29
1, 552092, Control_c, 0, 64, 25
1, 552113, Note_off_c, 0, 70, 42
1, 552137, Note_off_c, 0, 73, 33
1, 552147, Control_c, 0, 64, 21
1, 552149, Note_off_c, 0, 64, 34
1, 552149, Poly_aftertouch_c, 0, 64, 0
1, 552166, Control_c, 0, 67, 67
1, 552175, Note_on_c, 0, 55, 43
1, 552203, Control_c, 0, 64, 17
1, 552260, Control_c, 0, 64, 11
1, 552295, Note_off_c, 0, 55, 37
1, 552295, Poly_aftertouch_c, 0, 55, 0
1, 552297, Control_c, 0, 67, 71
1, 552375, Note_on_c, 0, 67, 44
1, 552443, Note_off_c, 0, 67, 52
1, 552557, Note_on_c, 0, 72, 35
1, 552575, Note_on_c, 0, 64, 24
1, 552582, Note_on_c, 0, 70, 32
1, 552729, Note_on_c, 0, 55, 41
1, 552761, Note_off_c, 0, 64, 39
1, 552761, Poly_aftertouch_c, 0, 64, 0
1, 552770, Note_off_c, 0, 70, 32
1, 552793, Note_off_c, 0, 72, 40
1, 552811, Note_off_c, 0, 55, 44
1, 552811, Poly_aftertouch_c, 0, 55, 0
1, 552935, Note_on_c, 0, 67, 28
1, 553014, Note_off_c, 0, 67, 42
1, 553113, Note_on_c, 0, 72, 37
1, 553119, Control_c, 0, 67, 66
1, 553130, Note_on_c, 0, 70, 30
1, 553132, Note_on_c, 0, 64, 25
1, 553251, Control_c, 0, 67, 62
1, 553281, Note_on_c, 0, 55, 43
1, 553312, Note_off_c, 0, 64, 40
1, 553312, Poly_aftertouch_c, 0, 64, 0
1, 553333, Note_off_c, 0, 70, 43
1, 553349, Note_off_c, 0, 72, 39
1, 553358, Note_off_c, 0, 55, 53
1, 553358, Poly_aftertouch_c, 0, 55, 0
1, 553438, Control_c, 0, 67, 57
1, 553475, Control_c, 0, 67, 52
1, 553487, Note_on_c, 0, 67, 46
1, 553512, Control_c, 0, 67, 44
1, 553532, Control_c, 0, 67, 37
1, 553549, Control_c, 0, 67, 29
1, 553560, Note_off_c, 0, 67, 52
1, 553568, Control_c, 0, 67, 20
1, 553607, Control_c, 0, 64, 18
1, 553608, Control_c, 0, 67, 0
1, 553625, Control_c, 0, 64, 24
1, 553643, Control_c, 0, 64, 31
1, 553657, Note_on_c, 0, 72, 55
1, 553663, Control_c, 0, 64, 40
1, 553665, Note_on_c, 0, 64, 54
1, 553678, Note_on_c, 0, 70, 51
1, 553680, Control_c, 0, 64, 50
1, 553700, Control_c, 0, 64, 59
1, 553706, Note_off_c, 0, 64, 54
1, 553706, Poly_aftertouch_c, 0, 64, 0
1, 553718, Control_c, 0, 64, 65
1, 553737, Control_c, 0, 64, 68
1, 553760, Note_off_c, 0, 72, 62
1, 553767, Note_off_c, 0, 70, 62
1, 553812, Control_c, 0, 64, 70
1, 553847, Note_on_c, 0, 55, 82
1, 553894, Note_off_c, 0, 55, 60
1, 553894, Poly_aftertouch_c, 0, 55, 0
1, 554041, Note_on_c, 0, 56, 80
1, 554055, Control_c, 0, 64, 68
1, 554073, Control_c, 0, 64, 66
1, 554092, Control_c, 0, 64, 65
1, 554112, Control_c, 0, 64, 62
1, 554126, Note_on_c, 0, 58, 83
1, 554130, Control_c, 0, 64, 59
1, 554141, Note_off_c, 0, 56, 61
1, 554148, Control_c, 0, 64, 54
1, 554167, Control_c, 0, 64, 47
1, 554185, Control_c, 0, 64, 38
1, 554205, Control_c, 0, 64, 20
1, 554211, Note_on_c, 0, 60, 83
1, 554219, Note_on_c, 0, 80, 80
1, 554221, Note_on_c, 0, 53, 64
1, 554223, Control_c, 0, 64, 0
1, 554228, Note_off_c, 0, 58, 64
1, 554236, Note_on_c, 0, 52, 53
1, 554269, Note_off_c, 0, 52, 35
1, 554297, Note_on_c, 0, 79, 80
1, 554305, Note_off_c, 0, 80, 65
1, 554392, Note_on_c, 0, 80, 80
1, 554426, Note_off_c, 0, 79, 61
1, 554426, Poly_aftertouch_c, 0, 79, 0
1, 554481, Note_on_c, 0, 84, 79
1, 554492, Note_on_c, 0, 85, 55
1, 554493, Note_off_c, 0, 80, 63
1, 554527, Note_off_c, 0, 85, 38
1, 554548, Note_off_c, 0, 53, 59
1, 554548, Poly_aftertouch_c, 0, 53, 0
1, 554563, Note_on_c, 0, 82, 85
1, 554572, Note_on_c, 0, 62, 77
1, 554590, Note_off_c, 0, 60, 54
1, 554590, Poly_aftertouch_c, 0, 60, 0
1, 554607, Note_off_c, 0, 62, 67
1, 554636, Note_off_c, 0, 84, 59
1, 554649, Note_on_c, 0, 80, 82
1, 554706, Note_off_c, 0, 82, 64
1, 554739, Note_on_c, 0, 79, 85
1, 554740, Note_on_c, 0, 63, 83
1, 554741, Note_on_c, 0, 51, 78
1, 554779, Note_off_c, 0, 80, 64
1, 554821, Note_on_c, 0, 77, 80
1, 554827, Note_off_c, 0, 79, 61
1, 554827, Poly_aftertouch_c, 0, 79, 0
1, 554850, Note_off_c, 0, 63, 61
1, 554852, Note_off_c, 0, 51, 61
1, 554903, Note_on_c, 0, 75, 88
1, 554927, Note_off_c, 0, 77, 63
1, 554995, Note_on_c, 0, 74, 87
1, 555024, Note_off_c, 0, 75, 62
1, 555069, Note_on_c, 0, 64, 88
1, 555070, Note_on_c, 0, 52, 85
1, 555083, Note_on_c, 0, 72, 84
1, 555086, Note_off_c, 0, 74, 62
1, 555167, Note_on_c, 0, 70, 88
1, 555183, Note_off_c, 0, 72, 61
1, 555253, Note_on_c, 0, 68, 83
1, 555285, Note_off_c, 0, 52, 59
1, 555286, Note_off_c, 0, 70, 59
1, 555313, Note_off_c, 0, 64, 62
1, 555313, Poly_aftertouch_c, 0, 64, 0
1, 555337, Note_off_c, 0, 68, 66
1, 555344, Note_on_c, 0, 67, 84
1, 555432, Note_on_c, 0, 65, 80
1, 555434, Note_on_c, 0, 68, 82
1, 555441, Note_on_c, 0, 53, 63
1, 555443, Note_off_c, 0, 67, 59
1, 555461, Note_on_c, 0, 52, 53
1, 555476, Note_off_c, 0, 65, 62
1, 555485, Note_off_c, 0, 53, 63
1, 555485, Poly_aftertouch_c, 0, 53, 0
1, 555487, Note_on_c, 0, 64, 26
1, 555488, Note_off_c, 0, 64, 127
1, 555488, Poly_aftertouch_c, 0, 64, 0
1, 555496, Note_off_c, 0, 52, 56
1, 555508, Note_on_c, 0, 72, 83
1, 555526, Note_off_c, 0, 68, 62
1, 555607, Note_on_c, 0, 70, 82
1, 555612, Note_on_c, 0, 50, 82
1, 555613, Note_on_c, 0, 62, 80
1, 555640, Note_off_c, 0, 72, 60
1, 555645, Note_off_c, 0, 50, 67
1, 555650, Note_off_c, 0, 62, 65
1, 555692, Note_on_c, 0, 68, 85
1, 555730, Note_off_c, 0, 70, 65
1, 555780, Note_off_c, 0, 68, 62
1, 555786, Note_on_c, 0, 67, 78
1, 555787, Note_on_c, 0, 51, 90
1, 555789, Note_on_c, 0, 63, 78
1, 555814, Control_c, 0, 64, 18
1, 555821, Note_off_c, 0, 63, 70
1, 555825, Note_off_c, 0, 51, 60
1, 555832, Control_c, 0, 64, 28
1, 555850, Control_c, 0, 64, 35
1, 555864, Note_off_c, 0, 67, 59
1, 555874, Note_on_c, 0, 63, 81
1, 555940, Note_off_c, 0, 63, 62
1, 555959, Note_on_c, 0, 67, 85
1, 556031, Note_off_c, 0, 67, 58
1, 556046, Note_on_c, 0, 68, 82
1, 556121, Note_off_c, 0, 68, 61
1, 556123, Note_on_c, 0, 49, 77
1, 556140, Note_on_c, 0, 70, 84
1, 556187, Control_c, 0, 64, 31
1, 556197, Note_off_c, 0, 70, 66
1, 556210, Note_on_c, 0, 51, 83
1, 556213, Note_off_c, 0, 49, 40
1, 556227, Note_on_c, 0, 72, 80
1, 556289, Note_on_c, 0, 46, 81
1, 556298, Note_on_c, 0, 53, 86
1, 556298, Control_c, 0, 64, 27
1, 556300, Note_on_c, 0, 73, 85
1, 556303, Note_off_c, 0, 51, 61
1, 556309, Note_off_c, 0, 72, 59
1, 556373, Note_off_c, 0, 73, 64
1, 556397, Note_on_c, 0, 72, 80
1, 556473, Note_on_c, 0, 73, 87
1, 556486, Note_off_c, 0, 72, 58
1, 556565, Note_on_c, 0, 77, 84
1, 556603, Note_off_c, 0, 73, 60
1, 556658, Note_on_c, 0, 75, 83
1, 556661, Note_on_c, 0, 55, 77
1, 556690, Note_off_c, 0, 53, 31
1, 556690, Poly_aftertouch_c, 0, 53, 0
1, 556700, Note_off_c, 0, 77, 60
1, 556703, Note_off_c, 0, 55, 66
1, 556703, Poly_aftertouch_c, 0, 55, 0
1, 556722, Note_off_c, 0, 46, 62
1, 556722, Poly_aftertouch_c, 0, 46, 0
1, 556742, Note_on_c, 0, 73, 86
1, 556800, Note_off_c, 0, 75, 64
1, 556815, Note_off_c, 0, 73, 64
1, 556827, Note_on_c, 0, 72, 80
1, 556833, Note_on_c, 0, 56, 87
1, 556847, Note_on_c, 0, 44, 73
1, 556890, Note_on_c, 0, 46, 36
1, 556913, Note_on_c, 0, 70, 85
1, 556935, Note_off_c, 0, 56, 63
1, 556936, Note_off_c, 0, 72, 62
1, 556941, Note_off_c, 0, 46, 32
1, 556941, Poly_aftertouch_c, 0, 46, 0
1, 556944, Note_off_c, 0, 44, 63
1, 556944, Poly_aftertouch_c, 0, 44, 0
1, 557004, Note_on_c, 0, 68, 81
1, 557050, Note_off_c, 0, 70, 65
1, 557093, Note_on_c, 0, 67, 84
1, 557135, Note_off_c, 0, 68, 64
1, 557159, Control_c, 0, 64, 21
1, 557175, Note_off_c, 0, 67, 61
1, 557176, Note_on_c, 0, 57, 90
1, 557177, Note_on_c, 0, 65, 80
1, 557177, Control_c, 0, 64, 13
1, 557178, Note_on_c, 0, 45, 88
1, 557196, Control_c, 0, 64, 0
1, 557271, Note_on_c, 0, 63, 84
1, 557287, Note_off_c, 0, 65, 61
1, 557308, Control_c, 0, 64, 8
1, 557326, Control_c, 0, 64, 25
1, 557346, Control_c, 0, 64, 37
1, 557365, Note_on_c, 0, 61, 82
1, 557365, Control_c, 0, 64, 45
1, 557374, Note_off_c, 0, 63, 64
1, 557382, Control_c, 0, 64, 49
1, 557386, Note_off_c, 0, 45, 59
1, 557395, Note_off_c, 0, 57, 60
1, 557395, Poly_aftertouch_c, 0, 57, 0
1, 557420, Control_c, 0, 64, 51
1, 557445, Note_off_c, 0, 61, 65
1, 557445, Poly_aftertouch_c, 0, 61, 0
1, 557446, Note_on_c, 0, 60, 81
1, 557534, Note_on_c, 0, 61, 82
1, 557542, Note_off_c, 0, 60, 61
1, 557542, Poly_aftertouch_c, 0, 60, 0
1, 557547, Note_on_c, 0, 46, 82
1, 557548, Note_on_c, 0, 58, 83
1, 557588, Note_off_c, 0, 58, 67
1, 557609, Control_c, 0, 64, 49
1, 557616, Note_off_c, 0, 46, 62
1, 557616, Poly_aftertouch_c, 0, 46, 0
1, 557629, Note_on_c, 0, 65, 83
1, 557645, Control_c, 0, 64, 45
1, 557654, Note_off_c, 0, 61, 63
1, 557654, Poly_aftertouch_c, 0, 61, 0
1, 557683, Control_c, 0, 64, 43
1, 557722, Note_on_c, 0, 63, 83
1, 557726, Note_on_c, 0, 43, 82
1, 557757, Control_c, 0, 64, 41
1, 557760, Note_off_c, 0, 65, 62
1, 557774, Note_off_c, 0, 43, 60
1, 557808, Note_on_c, 0, 61, 87
1, 557848, Note_off_c, 0, 63, 62
1, 557884, Note_on_c, 0, 44, 80
1, 557893, Note_on_c, 0, 60, 85
1, 557910, Note_off_c, 0, 61, 62
1, 557910, Poly_aftertouch_c, 0, 61, 0
1, 557950, Note_off_c, 0, 44, 61
1, 557950, Poly_aftertouch_c, 0, 44, 0
1, 557962, Note_off_c, 0, 60, 65
1, 557962, Poly_aftertouch_c, 0, 60, 0
1, 557980, Note_on_c, 0, 48, 78
1, 558073, Note_on_c, 0, 49, 75
1, 558097, Note_off_c, 0, 48, 63
1, 558159, Note_on_c, 0, 51, 81
1, 558171, Note_off_c, 0, 49, 60
1, 558242, Note_off_c, 0, 51, 60
1, 558253, Note_on_c, 0, 68, 80
1, 558261, Note_on_c, 0, 53, 77
1, 558317, Note_off_c, 0, 53, 58
1, 558317, Poly_aftertouch_c, 0, 53, 0
1, 558328, Note_on_c, 0, 55, 70
1, 558330, Note_on_c, 0, 70, 84
1, 558381, Note_off_c, 0, 68, 58
1, 558417, Note_on_c, 0, 72, 92
1, 558418, Note_off_c, 0, 55, 50
1, 558418, Note_on_c, 0, 60, 86
1, 558418, Poly_aftertouch_c, 0, 55, 0
1, 558421, Note_on_c, 0, 56, 81
1, 558451, Note_off_c, 0, 70, 67
1, 558519, Note_on_c, 0, 55, 75
1, 558520, Note_off_c, 0, 56, 58
1, 558538, Note_off_c, 0, 60, 56
1, 558538, Poly_aftertouch_c, 0, 60, 0
1, 558605, Note_on_c, 0, 56, 80
1, 558621, Note_off_c, 0, 55, 63
1, 558621, Poly_aftertouch_c, 0, 55, 0
1, 558688, Note_on_c, 0, 53, 77
1, 558690, Note_off_c, 0, 56, 63
1, 558757, Note_on_c, 0, 58, 73
1, 558765, Note_off_c, 0, 53, 63
1, 558765, Poly_aftertouch_c, 0, 53, 0
1, 558783, Note_on_c, 0, 74, 88
1, 558796, Note_off_c, 0, 72, 61
1, 558799, Note_on_c, 0, 62, 64
1, 558838, Note_off_c, 0, 62, 61
1, 558854, Note_on_c, 0, 56, 82
1, 558880, Note_off_c, 0, 58, 48
1, 558916, Note_off_c, 0, 56, 64
1, 558945, Note_on_c, 0, 55, 77
1, 558965, Note_on_c, 0, 75, 88
1, 558973, Control_c, 0, 64, 37
1, 558979, Note_on_c, 0, 63, 78
1, 558981, Note_off_c, 0, 74, 61
1, 559010, Control_c, 0, 64, 33
1, 559017, Note_off_c, 0, 63, 65
1, 559023, Note_off_c, 0, 75, 66
1, 559029, Control_c, 0, 64, 28
1, 559040, Note_on_c, 0, 53, 80
1, 559047, Note_off_c, 0, 55, 59
1, 559047, Poly_aftertouch_c, 0, 55, 0
1, 559067, Control_c, 0, 64, 21
1, 559104, Control_c, 0, 64, 14
1, 559121, Control_c, 0, 64, 8
1, 559132, Note_on_c, 0, 51, 74
1, 559139, Control_c, 0, 64, 0
1, 559148, Note_off_c, 0, 53, 58
1, 559148, Poly_aftertouch_c, 0, 53, 0
1, 559225, Note_on_c, 0, 50, 76
1, 559266, Note_off_c, 0, 51, 58
1, 559286, Note_off_c, 0, 50, 59
1, 559303, Note_on_c, 0, 76, 98
1, 559307, Note_on_c, 0, 64, 91
1, 559318, Note_on_c, 0, 48, 80
1, 559384, Control_c, 0, 64, 11
1, 559402, Control_c, 0, 64, 17
1, 559420, Note_on_c, 0, 46, 79
1, 559437, Note_off_c, 0, 48, 55
1, 559439, Control_c, 0, 64, 21
1, 559504, Note_on_c, 0, 44, 80
1, 559515, Control_c, 0, 64, 25
1, 559519, Note_off_c, 0, 46, 61
1, 559519, Note_off_c, 0, 64, 53
1, 559519, Poly_aftertouch_c, 0, 46, 0
1, 559519, Poly_aftertouch_c, 0, 64, 0
1, 559598, Note_on_c, 0, 43, 76
1, 559605, Note_off_c, 0, 44, 62
1, 559605, Poly_aftertouch_c, 0, 44, 0
1, 559647, Note_off_c, 0, 76, 59
1, 559664, Control_c, 0, 64, 20
1, 559674, Note_on_c, 0, 77, 86
1, 559682, Note_on_c, 0, 65, 77
1, 559683, Control_c, 0, 64, 16
1, 559696, Note_on_c, 0, 44, 77
1, 559709, Note_off_c, 0, 43, 63
1, 559713, Note_off_c, 0, 77, 62
1, 559717, Note_off_c, 0, 65, 68
1, 559722, Control_c, 0, 64, 0
1, 559756, Note_on_c, 0, 48, 62
1, 559764, Note_off_c, 0, 44, 62
1, 559764, Poly_aftertouch_c, 0, 44, 0
1, 559848, Note_on_c, 0, 46, 80
1, 559855, Note_on_c, 0, 74, 91
1, 559864, Note_off_c, 0, 48, 62
1, 559867, Note_on_c, 0, 62, 73
1, 559894, Note_off_c, 0, 74, 63
1, 559900, Note_off_c, 0, 62, 69
1, 559957, Note_on_c, 0, 44, 82
1, 559979, Note_off_c, 0, 46, 59
1, 559979, Poly_aftertouch_c, 0, 46, 0
1, 560027, Note_off_c, 0, 44, 63
1, 560027, Poly_aftertouch_c, 0, 44, 0
1, 560038, Note_on_c, 0, 75, 92
1, 560039, Note_on_c, 0, 63, 84
1, 560056, Note_on_c, 0, 43, 81
1, 560076, Control_c, 0, 64, 16
1, 560133, Note_off_c, 0, 43, 63
1, 560141, Note_on_c, 0, 39, 81
1, 560148, Note_off_c, 0, 63, 61
1, 560167, Note_off_c, 0, 75, 63
1, 560188, Control_c, 0, 64, 0
1, 560219, Note_off_c, 0, 39, 61
1, 560232, Note_on_c, 0, 43, 74
1, 560322, Note_on_c, 0, 44, 80
1, 560325, Note_off_c, 0, 43, 63
1, 560389, Note_on_c, 0, 73, 86
1, 560411, Note_off_c, 0, 44, 61
1, 560411, Poly_aftertouch_c, 0, 44, 0
1, 560414, Note_on_c, 0, 46, 83
1, 560474, Note_on_c, 0, 75, 87
1, 560483, Note_off_c, 0, 46, 61
1, 560483, Poly_aftertouch_c, 0, 46, 0
1, 560503, Note_on_c, 0, 48, 75
1, 560532, Note_off_c, 0, 73, 61
1, 560557, Note_on_c, 0, 77, 99
1, 560562, Note_on_c, 0, 65, 89
1, 560587, Note_on_c, 0, 49, 80
1, 560594, Note_off_c, 0, 75, 65
1, 560615, Note_off_c, 0, 48, 60
1, 560653, Note_on_c, 0, 48, 69
1, 560655, Note_off_c, 0, 49, 61
1, 560747, Note_off_c, 0, 65, 53
1, 560769, Note_on_c, 0, 49, 83
1, 560775, Note_off_c, 0, 48, 64
1, 560833, Note_off_c, 0, 49, 62
1, 560843, Note_on_c, 0, 46, 79
1, 560920, Note_on_c, 0, 79, 87
1, 560928, Note_on_c, 0, 51, 74
1, 560934, Note_off_c, 0, 77, 57
1, 560936, Note_on_c, 0, 67, 70
1, 560940, Note_off_c, 0, 46, 61
1, 560940, Poly_aftertouch_c, 0, 46, 0
1, 560983, Note_off_c, 0, 67, 63
1, 561011, Control_c, 0, 64, 25
1, 561024, Note_on_c, 0, 49, 80
1, 561028, Note_off_c, 0, 51, 54
1, 561028, Control_c, 0, 64, 42
1, 561048, Control_c, 0, 64, 53
1, 561066, Control_c, 0, 64, 60
1, 561086, Control_c, 0, 64, 61
1, 561092, Note_off_c, 0, 49, 60
1, 561097, Note_on_c, 0, 80, 88
1, 561105, Control_c, 0, 64, 60
1, 561109, Note_on_c, 0, 68, 82
1, 561114, Note_off_c, 0, 79, 61
1, 561114, Note_on_c, 0, 48, 78
1, 561114, Poly_aftertouch_c, 0, 79, 0
1, 561124, Control_c, 0, 64, 55
1, 561141, Control_c, 0, 64, 41
1, 561160, Control_c, 0, 64, 0
1, 561167, Note_off_c, 0, 80, 65
1, 561168, Note_off_c, 0, 68, 62
1, 561195, Note_on_c, 0, 46, 82
1, 561207, Note_off_c, 0, 48, 62
1, 561271, Note_on_c, 0, 44, 84
1, 561293, Note_off_c, 0, 46, 62
1, 561293, Poly_aftertouch_c, 0, 46, 0
1, 561362, Note_on_c, 0, 43, 81
1, 561404, Note_off_c, 0, 44, 62
1, 561404, Poly_aftertouch_c, 0, 44, 0
1, 561422, Note_off_c, 0, 43, 64
1, 561448, Note_on_c, 0, 41, 75
1, 561463, Note_on_c, 0, 81, 104
1, 561463, Note_on_c, 0, 69, 100
1, 561496, Control_c, 0, 64, 25
1, 561516, Control_c, 0, 64, 89
1, 561534, Control_c, 0, 64, 107
1, 561572, Control_c, 0, 64, 93
1, 561577, Note_off_c, 0, 41, 54
1, 561593, Note_on_c, 0, 38, 58
1, 561593, Control_c, 0, 64, 77
1, 561604, Note_on_c, 0, 39, 38
1, 561610, Control_c, 0, 64, 62
1, 561628, Control_c, 0, 64, 51
1, 561641, Note_off_c, 0, 38, 64
1, 561642, Note_on_c, 0, 37, 79
1, 561647, Note_off_c, 0, 39, 56
1, 561647, Control_c, 0, 64, 39
1, 561665, Control_c, 0, 64, 31
1, 561692, Note_off_c, 0, 69, 52
1, 561692, Poly_aftertouch_c, 0, 69, 0
1, 561722, Control_c, 0, 64, 0
1, 561741, Note_on_c, 0, 36, 77
1, 561756, Note_off_c, 0, 37, 61
1, 561838, Note_off_c, 0, 81, 48
1, 561841, Note_on_c, 0, 82, 85
1, 561848, Note_on_c, 0, 70, 82
1, 561851, Note_on_c, 0, 37, 79
1, 561870, Note_off_c, 0, 36, 62
1, 561879, Note_off_c, 0, 82, 65
1, 561884, Note_on_c, 0, 41, 71
1, 561886, Note_off_c, 0, 70, 66
1, 561901, Note_off_c, 0, 37, 60
1, 561991, Note_on_c, 0, 39, 83
1, 562016, Note_off_c, 0, 41, 59
1, 562028, Note_on_c, 0, 79, 92
1, 562033, Note_on_c, 0, 67, 78
1, 562063, Note_off_c, 0, 67, 70
1, 562073, Note_off_c, 0, 79, 63
1, 562073, Poly_aftertouch_c, 0, 79, 0
1, 562098, Note_on_c, 0, 37, 79
1, 562111, Note_off_c, 0, 39, 59
1, 562176, Note_on_c, 0, 36, 79
1, 562207, Note_on_c, 0, 80, 98
1, 562207, Control_c, 0, 64, 75
1, 562211, Note_on_c, 0, 68, 93
1, 562226, Control_c, 0, 64, 92
1, 562248, Note_off_c, 0, 68, 64
1, 562257, Note_off_c, 0, 80, 66
1, 562261, Note_on_c, 0, 39, 85
1, 562263, Control_c, 0, 64, 76
1, 562267, Note_off_c, 0, 36, 63
1, 562279, Note_off_c, 0, 37, 62
1, 562281, Control_c, 0, 64, 47
1, 562301, Control_c, 0, 64, 0
1, 562329, Note_on_c, 0, 44, 50
1, 562334, Note_off_c, 0, 39, 62
1, 562401, Note_on_c, 0, 43, 81
1, 562436, Note_off_c, 0, 44, 41
1, 562436, Poly_aftertouch_c, 0, 44, 0
1, 562487, Note_off_c, 0, 43, 60
1, 562527, Note_on_c, 0, 41, 85
1, 562555, Note_on_c, 0, 84, 105
1, 562557, Note_on_c, 0, 72, 99
1, 562558, Note_on_c, 0, 81, 95
1, 562601, Control_c, 0, 64, 56
1, 562618, Control_c, 0, 64, 93
1, 562628, Note_off_c, 0, 41, 63
1, 562630, Note_on_c, 0, 39, 75
1, 562637, Control_c, 0, 64, 111
1, 562656, Control_c, 0, 64, 123
1, 562687, Note_on_c, 0, 37, 85
1, 562693, Note_off_c, 0, 39, 59
1, 562718, Note_off_c, 0, 72, 54
1, 562720, Note_off_c, 0, 84, 59
1, 562729, Control_c, 0, 64, 115
1, 562749, Control_c, 0, 64, 107
1, 562762, Note_off_c, 0, 81, 62
1, 562768, Control_c, 0, 64, 93
1, 562778, Note_off_c, 0, 37, 60
1, 562786, Control_c, 0, 64, 78
1, 562792, Note_on_c, 0, 34, 86
1, 562806, Control_c, 0, 64, 63
1, 562824, Control_c, 0, 64, 45
1, 562843, Control_c, 0, 64, 0
1, 562887, Note_on_c, 0, 37, 86
1, 562894, Note_off_c, 0, 34, 64
1, 562915, Note_on_c, 0, 82, 91
1, 562928, Note_on_c, 0, 73, 75
1, 562928, Note_on_c, 0, 85, 83
1, 562946, Note_off_c, 0, 73, 69
1, 562954, Note_off_c, 0, 85, 72
1, 562954, Note_on_c, 0, 72, 46
1, 562968, Note_off_c, 0, 82, 64
1, 562986, Note_on_c, 0, 34, 80
1, 562990, Note_off_c, 0, 72, 38
1, 562991, Note_off_c, 0, 37, 62
1, 563032, Poly_aftertouch_c, 0, 71, 0
1, 563064, Note_on_c, 0, 39, 84
1, 563090, Note_off_c, 0, 34, 62
1, 563095, Note_on_c, 0, 82, 90
1, 563095, Note_on_c, 0, 70, 90
1, 563097, Note_on_c, 0, 79, 85
1, 563146, Note_off_c, 0, 70, 62
1, 563147, Note_off_c, 0, 79, 59
1, 563147, Poly_aftertouch_c, 0, 79, 0
1, 563160, Note_off_c, 0, 82, 65
1, 563169, Note_on_c, 0, 37, 80
1, 563175, Note_off_c, 0, 39, 61
1, 563256, Note_on_c, 0, 36, 84
1, 563279, Note_on_c, 0, 80, 101
1, 563281, Note_on_c, 0, 84, 101
1, 563282, Note_on_c, 0, 72, 99
1, 563292, Control_c, 0, 64, 50
1, 563300, Note_off_c, 0, 37, 63
1, 563311, Control_c, 0, 64, 98
1, 563322, Note_off_c, 0, 72, 65
1, 563327, Note_off_c, 0, 84, 66
1, 563329, Control_c, 0, 64, 120
1, 563346, Note_off_c, 0, 80, 66
1, 563348, Note_on_c, 0, 39, 90
1, 563350, Control_c, 0, 64, 115
1, 563358, Note_off_c, 0, 36, 63
1, 563368, Control_c, 0, 64, 77
1, 563385, Control_c, 0, 64, 0
1, 563418, Note_off_c, 0, 39, 63
1, 563436, Note_on_c, 0, 44, 79
1, 563498, Note_off_c, 0, 44, 60
1, 563498, Poly_aftertouch_c, 0, 44, 0
1, 563523, Note_on_c, 0, 43, 78
1, 563615, Note_off_c, 0, 43, 64
1, 563646, Note_on_c, 0, 41, 84
1, 563666, Note_on_c, 0, 81, 98
1, 563671, Note_on_c, 0, 72, 99
1, 563675, Note_on_c, 0, 69, 97
1, 563703, Control_c, 0, 64, 58
1, 563722, Control_c, 0, 64, 82
1, 563741, Note_off_c, 0, 41, 61
1, 563741, Control_c, 0, 64, 93
1, 563742, Note_on_c, 0, 39, 76
1, 563758, Control_c, 0, 64, 104
1, 563779, Control_c, 0, 64, 115
1, 563796, Control_c, 0, 64, 123
1, 563815, Control_c, 0, 64, 127
1, 563817, Note_on_c, 0, 37, 81
1, 563822, Note_off_c, 0, 39, 46
1, 563825, Note_off_c, 0, 69, 56
1, 563825, Poly_aftertouch_c, 0, 69, 0
1, 563846, Note_off_c, 0, 81, 63
1, 563855, Note_off_c, 0, 72, 63
1, 563906, Note_off_c, 0, 37, 60
1, 563906, Poly_aftertouch_c, 0, 75, 0
1, 563927, Note_on_c, 0, 34, 80
1, 563947, Control_c, 0, 64, 106
1, 563966, Control_c, 0, 64, 76
1, 563983, Control_c, 0, 64, 46
1, 564002, Control_c, 0, 64, 0
1, 564016, Note_off_c, 0, 34, 60
1, 564021, Note_on_c, 0, 37, 79
1, 564040, Note_on_c, 0, 73, 85
1, 564045, Note_on_c, 0, 82, 81
1, 564049, Note_on_c, 0, 70, 75
1, 564073, Note_off_c, 0, 70, 73
1, 564078, Note_off_c, 0, 82, 64
1, 564095, Note_off_c, 0, 73, 63
1, 564117, Note_off_c, 0, 37, 60
1, 564134, Note_on_c, 0, 34, 77
1, 564216, Note_on_c, 0, 39, 80
1, 564224, Note_off_c, 0, 34, 62
1, 564227, Note_on_c, 0, 79, 86
1, 564233, Note_on_c, 0, 67, 78
1, 564237, Note_on_c, 0, 70, 71
1, 564265, Note_off_c, 0, 67, 67
1, 564276, Note_off_c, 0, 70, 64
1, 564291, Note_off_c, 0, 79, 62
1, 564291, Poly_aftertouch_c, 0, 79, 0
1, 564388, Note_off_c, 0, 39, 60
1, 564409, Note_on_c, 0, 32, 88
1, 564417, Note_on_c, 0, 72, 89
1, 564417, Note_on_c, 0, 68, 90
1, 564421, Note_on_c, 0, 80, 88
1, 564433, Control_c, 0, 64, 39
1, 564435, Control_c, 0, 67, 10
1, 564451, Control_c, 0, 64, 90
1, 564454, Control_c, 0, 67, 19
1, 564456, Note_off_c, 0, 68, 65
1, 564466, Note_off_c, 0, 72, 65
1, 564469, Control_c, 0, 64, 111
1, 564470, Note_off_c, 0, 80, 65
1, 564470, Control_c, 0, 67, 10
1, 564488, Control_c, 0, 67, 0
1, 564496, Note_on_c, 0, 36, 80
1, 564507, Control_c, 0, 64, 80
1, 564527, Control_c, 0, 64, 16
1, 564545, Control_c, 0, 64, 0
1, 564550, Note_off_c, 0, 32, 46
1, 564591, Note_on_c, 0, 39, 81
1, 564600, Note_off_c, 0, 36, 62
1, 564680, Note_on_c, 0, 37, 82
1, 564690, Note_off_c, 0, 39, 60
1, 564770, Note_on_c, 0, 36, 80
1, 564803, Note_on_c, 0, 82, 90
1, 564806, Note_on_c, 0, 79, 83
1, 564811, Note_on_c, 0, 70, 82
1, 564849, Note_off_c, 0, 70, 66
1, 564858, Note_off_c, 0, 79, 61
1, 564858, Poly_aftertouch_c, 0, 79, 0
1, 564861, Note_on_c, 0, 34, 80
1, 564889, Note_off_c, 0, 82, 64
1, 564897, Note_off_c, 0, 37, 57
1, 564912, Note_off_c, 0, 36, 61
1, 564973, Note_on_c, 0, 32, 89
1, 564999, Note_on_c, 0, 84, 105
1, 564999, Note_on_c, 0, 80, 104
1, 565000, Note_on_c, 0, 72, 101
1, 565018, Note_off_c, 0, 34, 63
1, 565030, Note_off_c, 0, 72, 67
1, 565031, Control_c, 0, 64, 74
1, 565032, Control_c, 0, 67, 21
1, 565039, Note_off_c, 0, 84, 68
1, 565040, Note_on_c, 0, 36, 84
1, 565042, Note_off_c, 0, 80, 70
1, 565047, Note_on_c, 0, 74, 39
1, 565048, Note_off_c, 0, 74, 127
1, 565050, Control_c, 0, 64, 127
1, 565052, Control_c, 0, 67, 40
1, 565068, Control_c, 0, 67, 36
1, 565086, Control_c, 0, 67, 22
1, 565105, Control_c, 0, 67, 0
1, 565114, Note_off_c, 0, 32, 55
1, 565124, Control_c, 0, 64, 86
1, 565143, Control_c, 0, 64, 19
1, 565153, Note_on_c, 0, 39, 85
1, 565161, Control_c, 0, 64, 0
1, 565175, Note_off_c, 0, 36, 63
1, 565250, Note_on_c, 0, 37, 80
1, 565266, Note_off_c, 0, 39, 55
1, 565365, Note_on_c, 0, 79, 99
1, 565366, Note_on_c, 0, 67, 99
1, 565368, Note_on_c, 0, 70, 96
1, 565371, Note_on_c, 0, 36, 80
1, 565396, Note_on_c, 0, 77, 56
1, 565397, Note_off_c, 0, 77, 127
1, 565405, Note_off_c, 0, 67, 67
1, 565423, Note_off_c, 0, 79, 64
1, 565423, Poly_aftertouch_c, 0, 79, 0
1, 565431, Note_off_c, 0, 70, 62
1, 565441, Note_off_c, 0, 37, 60
1, 565444, Note_on_c, 0, 34, 80
1, 565473, Poly_aftertouch_c, 0, 75, 0
1, 565488, Note_off_c, 0, 36, 62
1, 565532, Note_off_c, 0, 34, 62
1, 565561, Note_on_c, 0, 32, 93
1, 565564, Note_on_c, 0, 68, 103
1, 565567, Note_on_c, 0, 80, 99
1, 565567, Note_on_c, 0, 72, 98
1, 565588, Note_on_c, 0, 78, 70
1, 565591, Control_c, 0, 64, 48
1, 565596, Note_on_c, 0, 73, 51
1, 565597, Note_off_c, 0, 73, 127
1, 565598, Note_off_c, 0, 68, 72
1, 565600, Note_off_c, 0, 72, 67
1, 565609, Note_off_c, 0, 78, 69
1, 565609, Poly_aftertouch_c, 0, 75, 0
1, 565610, Control_c, 0, 64, 127
1, 565613, Note_off_c, 0, 80, 63
1, 565613, Control_c, 0, 67, 60
1, 565629, Control_c, 0, 67, 127
1, 565642, Note_on_c, 0, 36, 71
1, 565648, Control_c, 0, 67, 105
1, 565668, Control_c, 0, 67, 54
1, 565674, Poly_aftertouch_c, 0, 34, 0
1, 565686, Control_c, 0, 67, 0
1, 565704, Control_c, 0, 64, 75
1, 565710, Note_off_c, 0, 32, 57
1, 565722, Control_c, 0, 64, 0
1, 565735, Poly_aftertouch_c, 0, 37, 0
1, 565753, Note_on_c, 0, 39, 78
1, 565770, Note_off_c, 0, 36, 63
1, 565848, Note_on_c, 0, 37, 79
1, 565854, Note_off_c, 0, 39, 55
1, 565944, Note_on_c, 0, 36, 88
1, 565948, Note_on_c, 0, 55, 100
1, 565949, Note_on_c, 0, 67, 97
1, 565949, Note_on_c, 0, 58, 98
1, 565987, Note_off_c, 0, 55, 65
1, 565987, Poly_aftertouch_c, 0, 55, 0
1, 566005, Note_on_c, 0, 66, 25
1, 566006, Note_off_c, 0, 66, 127
1, 566007, Note_off_c, 0, 67, 62
1, 566019, Note_off_c, 0, 58, 57
1, 566039, Note_on_c, 0, 34, 80
1, 566043, Note_off_c, 0, 37, 55
1, 566086, Note_off_c, 0, 36, 61
1, 566172, Note_off_c, 0, 34, 63
1, 566231, Note_on_c, 0, 68, 95
1, 566232, Note_on_c, 0, 56, 94
1, 566238, Note_on_c, 0, 60, 90
1, 566238, Note_on_c, 0, 32, 95
1, 566265, Control_c, 0, 64, 11
1, 566284, Control_c, 0, 64, 117
1, 566301, Control_c, 0, 64, 127
1, 566321, Control_c, 0, 67, 18
1, 566340, Poly_aftertouch_c, 0, 63, 0
1, 566340, Control_c, 0, 67, 39
1, 566342, Note_off_c, 0, 68, 67
1, 566371, Note_off_c, 0, 56, 63
1, 566386, Note_off_c, 0, 60, 64
1, 566386, Poly_aftertouch_c, 0, 60, 0
1, 566429, Note_off_c, 0, 32, 60
1, 566657, Control_c, 0, 64, 119
1, 566677, Control_c, 0, 64, 105
1, 566695, Control_c, 0, 64, 92
1, 566714, Control_c, 0, 64, 80
1, 566732, Control_c, 0, 64, 71
1, 566734, Control_c, 0, 67, 34
1, 566751, Control_c, 0, 64, 65
1, 566769, Control_c, 0, 64, 62
1, 566788, Control_c, 0, 64, 58
1, 566808, Control_c, 0, 64, 55
1, 566826, Control_c, 0, 64, 51
1, 566844, Control_c, 0, 64, 45
1, 566865, Control_c, 0, 64, 39
1, 566866, Control_c, 0, 67, 29
1, 566882, Control_c, 0, 64, 29
1, 566919, Control_c, 0, 64, 0
1, 567255, Control_c, 0, 67, 25
1, 567312, Control_c, 0, 67, 21
1, 567405, Control_c, 0, 67, 17
1, 571687, Control_c, 0, 67, 10
1, 572379, Control_c, 0, 67, 0
1, 574137, Control_c, 0, 64, 8
1, 574230, Control_c, 0, 64, 12
1, 574399, Control_c, 0, 64, 16
1, 575223, Control_c, 0, 64, 20
1, 576157, Control_c, 0, 64, 25
1, 576381, Control_c, 0, 67, 8
1, 576418, Control_c, 0, 64, 29
1, 576474, Control_c, 0, 64, 33
1, 576549, Control_c, 0, 64, 38
1, 576587, Control_c, 0, 64, 40
1, 576588, Control_c, 0, 67, 12
1, 576624, Control_c, 0, 64, 42
1, 576680, Control_c, 0, 64, 45
1, 576680, Control_c, 0, 67, 17
1, 576717, Control_c, 0, 64, 48
1, 576735, Control_c, 0, 67, 22
1, 576755, Control_c, 0, 64, 51
1, 576773, Control_c, 0, 67, 28
1, 576792, Control_c, 0, 64, 54
1, 576810, Control_c, 0, 67, 34
1, 576830, Control_c, 0, 64, 56
1, 576848, Control_c, 0, 67, 40
1, 576867, Control_c, 0, 64, 59
1, 576886, Control_c, 0, 64, 60
1, 576887, Control_c, 0, 67, 47
1, 576923, Control_c, 0, 64, 61
1, 576924, Control_c, 0, 67, 53
1, 576942, Control_c, 0, 64, 62
1, 576961, Control_c, 0, 64, 64
1, 576963, Control_c, 0, 67, 60
1, 576979, Control_c, 0, 64, 65
1, 576997, Control_c, 0, 64, 66
1, 576998, Control_c, 0, 67, 67
1, 577016, Control_c, 0, 67, 72
1, 577036, Control_c, 0, 64, 68
1, 577037, Control_c, 0, 67, 76
1, 577053, Control_c, 0, 67, 81
1, 577073, Control_c, 0, 64, 70
1, 577074, Control_c, 0, 67, 85
1, 577092, Control_c, 0, 67, 89
1, 577109, Control_c, 0, 64, 72
1, 577109, Control_c, 0, 67, 94
1, 577129, Control_c, 0, 67, 98
1, 577167, Control_c, 0, 64, 75
1, 577168, Control_c, 0, 67, 104
1, 577185, Control_c, 0, 64, 77
1, 577203, Control_c, 0, 64, 79
1, 577223, Control_c, 0, 64, 82
1, 577224, Control_c, 0, 67, 109
1, 577241, Control_c, 0, 64, 85
1, 577259, Control_c, 0, 64, 88
1, 577278, Control_c, 0, 67, 114
1, 577297, Control_c, 0, 64, 94
1, 577334, Control_c, 0, 64, 99
1, 577372, Control_c, 0, 64, 104
1, 577410, Control_c, 0, 64, 108
1, 577411, Control_c, 0, 67, 119
1, 577465, Control_c, 0, 64, 113
1, 577485, Control_c, 0, 67, 123
1, 577521, Control_c, 0, 64, 118
1, 577596, Control_c, 0, 67, 127
1, 577652, Control_c, 0, 64, 122
1, 577747, Control_c, 0, 64, 126
1, 578587, Control_c, 0, 67, 122
1, 578755, Control_c, 0, 67, 127
1, 579406, Note_on_c, 0, 51, 35
1, 579413, Note_on_c, 0, 63, 31
1, 579627, Note_off_c, 0, 51, 37
1, 579636, Note_off_c, 0, 63, 37
1, 580267, Note_on_c, 0, 63, 40
1, 580293, Note_on_c, 0, 51, 35
1, 580360, Note_off_c, 0, 63, 45
1, 580379, Note_off_c, 0, 51, 48
1, 580573, Note_on_c, 0, 51, 31
1, 580578, Note_on_c, 0, 56, 39
1, 580583, Note_on_c, 0, 63, 33
1, 580590, Note_on_c, 0, 59, 32
1, 580624, Note_on_c, 0, 44, 23
1, 580624, Note_on_c, 0, 32, 32
1, 580624, Control_c, 0, 64, 118
1, 580644, Control_c, 0, 64, 111
1, 580663, Control_c, 0, 64, 104
1, 580681, Control_c, 0, 64, 98
1, 580699, Control_c, 0, 64, 94
1, 580736, Control_c, 0, 64, 87
1, 580756, Control_c, 0, 64, 83
1, 580774, Control_c, 0, 64, 80
1, 580794, Control_c, 0, 64, 77
1, 580812, Control_c, 0, 64, 74
1, 580831, Control_c, 0, 64, 72
1, 580851, Control_c, 0, 64, 70
1, 580980, Control_c, 0, 64, 72
1, 581019, Control_c, 0, 64, 76
1, 581037, Control_c, 0, 64, 78
1, 581055, Control_c, 0, 64, 81
1, 581074, Control_c, 0, 64, 85
1, 581112, Control_c, 0, 64, 92
1, 581130, Control_c, 0, 64, 96
1, 581167, Control_c, 0, 64, 103
1, 581187, Control_c, 0, 64, 107
1, 581204, Control_c, 0, 64, 112
1, 581224, Control_c, 0, 64, 116
1, 581242, Control_c, 0, 64, 121
1, 581261, Control_c, 0, 64, 126
1, 581269, Poly_aftertouch_c, 0, 59, 24
1, 581383, Note_off_c, 0, 59, 29
1, 581383, Poly_aftertouch_c, 0, 59, 0
1, 581413, Note_off_c, 0, 51, 27
1, 581413, Note_off_c, 0, 56, 29
1, 581451, Note_off_c, 0, 63, 36
1, 581752, Note_on_c, 0, 63, 36
1, 581757, Note_on_c, 0, 51, 34
1, 581760, Note_on_c, 0, 59, 34
1, 581767, Note_on_c, 0, 56, 36
1, 581994, Note_off_c, 0, 51, 29
1, 581998, Note_off_c, 0, 59, 28
1, 581998, Poly_aftertouch_c, 0, 59, 0
1, 582006, Note_off_c, 0, 56, 29
1, 582044, Note_off_c, 0, 63, 31
1, 582439, Note_off_c, 0, 32, 30
1, 582565, Note_on_c, 0, 63, 37
1, 582588, Note_on_c, 0, 56, 38
1, 582591, Note_on_c, 0, 59, 31
1, 582599, Note_on_c, 0, 51, 26
1, 582678, Note_off_c, 0, 51, 44
1, 582682, Note_off_c, 0, 56, 53
1, 582718, Note_off_c, 0, 63, 37
1, 582723, Note_off_c, 0, 59, 26
1, 582723, Poly_aftertouch_c, 0, 59, 0
1, 582813, Control_c, 0, 64, 121
1, 582830, Control_c, 0, 64, 117
1, 582839, Note_on_c, 0, 63, 39
1, 582843, Note_on_c, 0, 51, 40
1, 582850, Control_c, 0, 64, 111
1, 582858, Note_on_c, 0, 59, 30
1, 582858, Note_on_c, 0, 56, 42
1, 582867, Note_on_c, 0, 32, 40
1, 582868, Control_c, 0, 64, 106
1, 582887, Control_c, 0, 64, 100
1, 582907, Control_c, 0, 64, 93
1, 582925, Control_c, 0, 64, 84
1, 582945, Control_c, 0, 64, 76
1, 582963, Control_c, 0, 64, 69
1, 582981, Control_c, 0, 64, 65
1, 583037, Control_c, 0, 64, 67
1, 583056, Control_c, 0, 64, 70
1, 583075, Control_c, 0, 64, 74
1, 583093, Control_c, 0, 64, 78
1, 583099, Poly_aftertouch_c, 0, 59, 24
1, 583113, Control_c, 0, 64, 82
1, 583131, Control_c, 0, 64, 87
1, 583150, Control_c, 0, 64, 91
1, 583175, Poly_aftertouch_c, 0, 51, 20
1, 583178, Note_off_c, 0, 51, 29
1, 583178, Poly_aftertouch_c, 0, 51, 0
1, 583187, Control_c, 0, 64, 97
1, 583220, Note_off_c, 0, 63, 25
1, 583243, Control_c, 0, 64, 102
1, 583249, Note_off_c, 0, 56, 27
1, 583267, Note_off_c, 0, 59, 20
1, 583267, Poly_aftertouch_c, 0, 59, 0
1, 583336, Control_c, 0, 64, 106
1, 583662, Note_on_c, 0, 59, 37
1, 583665, Note_on_c, 0, 56, 40
1, 583673, Note_on_c, 0, 51, 36
1, 583678, Note_on_c, 0, 63, 34
1, 583775, Note_off_c, 0, 56, 54
1, 583790, Note_off_c, 0, 59, 40
1, 583790, Poly_aftertouch_c, 0, 59, 0
1, 583879, Control_c, 0, 64, 101
1, 583915, Control_c, 0, 64, 97
1, 583923, Note_on_c, 0, 58, 47
1, 583928, Note_off_c, 0, 63, 64
1, 583928, Note_on_c, 0, 63, 28
1, 583940, Note_on_c, 0, 55, 41
1, 583954, Control_c, 0, 64, 88
1, 583973, Control_c, 0, 64, 80
1, 583991, Control_c, 0, 64, 74
1, 584010, Control_c, 0, 64, 69
1, 584027, Control_c, 0, 64, 66
1, 584047, Control_c, 0, 64, 62
1, 584065, Control_c, 0, 64, 58
1, 584085, Control_c, 0, 64, 56
1, 584141, Control_c, 0, 64, 60
1, 584159, Control_c, 0, 64, 64
1, 584178, Control_c, 0, 64, 69
1, 584197, Control_c, 0, 64, 74
1, 584215, Control_c, 0, 64, 78
1, 584234, Control_c, 0, 64, 83
1, 584252, Control_c, 0, 64, 87
1, 584272, Control_c, 0, 64, 92
1, 584291, Control_c, 0, 64, 96
1, 584304, Note_off_c, 0, 58, 32
1, 584328, Control_c, 0, 64, 102
1, 584339, Poly_aftertouch_c, 0, 51, 24
1, 584360, Note_off_c, 0, 32, 31
1, 584364, Control_c, 0, 64, 107
1, 584393, Note_off_c, 0, 55, 39
1, 584393, Poly_aftertouch_c, 0, 55, 0
1, 584439, Control_c, 0, 64, 111
1, 584470, Note_off_c, 0, 63, 30
1, 584489, Note_off_c, 0, 51, 23
1, 584489, Poly_aftertouch_c, 0, 51, 0
1, 584490, Poly_aftertouch_c, 0, 51, 0
1, 584625, Note_off_c, 0, 44, 30
1, 584625, Poly_aftertouch_c, 0, 44, 0
1, 584739, Note_on_c, 0, 63, 48
1, 584754, Note_on_c, 0, 56, 44
1, 584764, Note_on_c, 0, 51, 38
1, 584766, Note_on_c, 0, 59, 36
1, 584817, Note_off_c, 0, 56, 61
1, 584840, Note_off_c, 0, 51, 39
1, 584870, Control_c, 0, 64, 107
1, 584878, Note_off_c, 0, 63, 38
1, 584886, Note_off_c, 0, 59, 28
1, 584886, Poly_aftertouch_c, 0, 59, 0
1, 584963, Control_c, 0, 64, 102
1, 585001, Control_c, 0, 64, 96
1, 585014, Note_on_c, 0, 61, 42
1, 585020, Note_on_c, 0, 63, 47
1, 585020, Control_c, 0, 64, 92
1, 585032, Note_on_c, 0, 51, 37
1, 585038, Note_on_c, 0, 58, 41
1, 585038, Control_c, 0, 64, 87
1, 585039, Note_on_c, 0, 39, 40
1, 585057, Control_c, 0, 64, 82
1, 585076, Control_c, 0, 64, 77
1, 585094, Control_c, 0, 64, 72
1, 585113, Control_c, 0, 64, 67
1, 585131, Control_c, 0, 64, 60
1, 585151, Control_c, 0, 64, 53
1, 585170, Control_c, 0, 64, 44
1, 585188, Control_c, 0, 64, 30
1, 585206, Control_c, 0, 64, 14
1, 585225, Control_c, 0, 64, 10
1, 585262, Control_c, 0, 64, 19
1, 585281, Control_c, 0, 64, 29
1, 585300, Control_c, 0, 64, 40
1, 585318, Control_c, 0, 64, 50
1, 585337, Control_c, 0, 64, 60
1, 585356, Control_c, 0, 64, 67
1, 585374, Control_c, 0, 64, 71
1, 585393, Control_c, 0, 64, 73
1, 585431, Control_c, 0, 64, 76
1, 585442, Note_off_c, 0, 39, 35
1, 585449, Control_c, 0, 64, 78
1, 585487, Control_c, 0, 64, 82
1, 585505, Control_c, 0, 64, 84
1, 585524, Control_c, 0, 64, 87
1, 585562, Control_c, 0, 64, 92
1, 585600, Control_c, 0, 64, 97
1, 585806, Note_on_c, 0, 39, 42
1, 585905, Note_off_c, 0, 39, 47
1, 586030, Control_c, 0, 64, 93
1, 586067, Note_on_c, 0, 43, 47
1, 586104, Control_c, 0, 64, 89
1, 586122, Control_c, 0, 64, 86
1, 586143, Control_c, 0, 64, 81
1, 586160, Control_c, 0, 64, 76
1, 586179, Control_c, 0, 64, 70
1, 586197, Control_c, 0, 64, 66
1, 586216, Control_c, 0, 64, 61
1, 586235, Control_c, 0, 64, 56
1, 586253, Control_c, 0, 64, 50
1, 586272, Control_c, 0, 64, 45
1, 586291, Control_c, 0, 64, 43
1, 586347, Control_c, 0, 64, 48
1, 586366, Control_c, 0, 64, 54
1, 586384, Control_c, 0, 64, 61
1, 586403, Control_c, 0, 64, 67
1, 586421, Control_c, 0, 64, 70
1, 586440, Control_c, 0, 64, 72
1, 586459, Control_c, 0, 64, 75
1, 586478, Control_c, 0, 64, 77
1, 586496, Control_c, 0, 64, 80
1, 586516, Control_c, 0, 64, 82
1, 586534, Control_c, 0, 64, 84
1, 586552, Control_c, 0, 64, 86
1, 586590, Control_c, 0, 64, 92
1, 586614, Note_off_c, 0, 51, 36
1, 586628, Control_c, 0, 64, 96
1, 586700, Poly_aftertouch_c, 0, 43, 24
1, 586836, Note_on_c, 0, 46, 47
1, 586879, Note_off_c, 0, 43, 19
1, 586879, Poly_aftertouch_c, 0, 43, 0
1, 587113, Control_c, 0, 64, 92
1, 587116, Note_on_c, 0, 51, 47
1, 587151, Control_c, 0, 64, 87
1, 587152, Note_off_c, 0, 46, 24
1, 587152, Poly_aftertouch_c, 0, 46, 0
1, 587169, Control_c, 0, 64, 83
1, 587188, Control_c, 0, 64, 77
1, 587207, Control_c, 0, 64, 72
1, 587225, Control_c, 0, 64, 68
1, 587245, Control_c, 0, 64, 64
1, 587262, Control_c, 0, 64, 59
1, 587282, Control_c, 0, 64, 54
1, 587300, Control_c, 0, 64, 47
1, 587320, Control_c, 0, 64, 39
1, 587337, Control_c, 0, 64, 30
1, 587357, Control_c, 0, 64, 24
1, 587431, Control_c, 0, 64, 30
1, 587449, Control_c, 0, 64, 35
1, 587469, Control_c, 0, 64, 42
1, 587487, Control_c, 0, 64, 49
1, 587507, Control_c, 0, 64, 55
1, 587524, Control_c, 0, 64, 59
1, 587544, Control_c, 0, 64, 62
1, 587562, Control_c, 0, 64, 64
1, 587581, Control_c, 0, 64, 66
1, 587599, Control_c, 0, 64, 67
1, 587637, Control_c, 0, 64, 71
1, 587655, Control_c, 0, 64, 73
1, 587674, Control_c, 0, 64, 75
1, 587693, Control_c, 0, 64, 78
1, 587712, Control_c, 0, 64, 81
1, 587730, Control_c, 0, 64, 85
1, 587750, Control_c, 0, 64, 89
1, 587768, Control_c, 0, 64, 95
1, 587787, Control_c, 0, 64, 100
1, 587803, Note_off_c, 0, 61, 35
1, 587803, Poly_aftertouch_c, 0, 61, 0
1, 587804, Control_c, 0, 64, 105
1, 587843, Control_c, 0, 64, 111
1, 587900, Control_c, 0, 64, 116
1, 587902, Note_off_c, 0, 58, 27
1, 587939, Note_off_c, 0, 63, 26
1, 587970, Note_off_c, 0, 51, 24
1, 588198, Control_c, 0, 64, 112
1, 588214, Note_on_c, 0, 63, 59
1, 588236, Control_c, 0, 64, 107
1, 588243, Note_on_c, 0, 58, 47
1, 588249, Note_on_c, 0, 55, 45
1, 588254, Control_c, 0, 64, 102
1, 588258, Note_on_c, 0, 51, 46
1, 588272, Control_c, 0, 64, 93
1, 588280, Note_on_c, 0, 49, 38
1, 588291, Control_c, 0, 64, 83
1, 588311, Control_c, 0, 64, 72
1, 588329, Control_c, 0, 64, 65
1, 588347, Control_c, 0, 64, 63
1, 588385, Control_c, 0, 64, 64
1, 588404, Control_c, 0, 64, 67
1, 588422, Control_c, 0, 64, 71
1, 588442, Control_c, 0, 64, 75
1, 588459, Control_c, 0, 64, 79
1, 588479, Control_c, 0, 64, 84
1, 588498, Control_c, 0, 64, 89
1, 588516, Control_c, 0, 64, 93
1, 588517, Control_c, 0, 67, 120
1, 588535, Control_c, 0, 64, 97
1, 588554, Control_c, 0, 67, 115
1, 588572, Control_c, 0, 64, 104
1, 588590, Control_c, 0, 64, 109
1, 588609, Control_c, 0, 64, 113
1, 588610, Control_c, 0, 67, 110
1, 588628, Control_c, 0, 64, 117
1, 588666, Control_c, 0, 64, 122
1, 588684, Control_c, 0, 67, 106
1, 588703, Control_c, 0, 64, 126
1, 588724, Poly_aftertouch_c, 0, 49, 24
1, 588724, Poly_aftertouch_c, 0, 51, 24
1, 588724, Poly_aftertouch_c, 0, 58, 24
1, 588776, Note_off_c, 0, 55, 28
1, 588776, Poly_aftertouch_c, 0, 55, 0
1, 588779, Note_off_c, 0, 49, 19
1, 588779, Poly_aftertouch_c, 0, 49, 0
1, 588787, Note_off_c, 0, 51, 19
1, 588787, Poly_aftertouch_c, 0, 51, 0
1, 588792, Note_off_c, 0, 58, 21
1, 588792, Poly_aftertouch_c, 0, 58, 0
1, 588800, Note_off_c, 0, 63, 36
1, 588815, Control_c, 0, 67, 110
1, 588852, Control_c, 0, 67, 114
1, 588889, Control_c, 0, 67, 120
1, 588927, Control_c, 0, 67, 124
1, 589053, Note_on_c, 0, 63, 52
1, 589054, Note_on_c, 0, 55, 47
1, 589060, Note_on_c, 0, 58, 48
1, 589065, Note_on_c, 0, 49, 47
1, 589068, Note_on_c, 0, 51, 43
1, 589132, Note_off_c, 0, 58, 52
1, 589132, Poly_aftertouch_c, 0, 58, 0
1, 589184, Note_off_c, 0, 51, 42
1, 589184, Poly_aftertouch_c, 0, 51, 0
1, 589186, Note_off_c, 0, 49, 50
1, 589186, Note_off_c, 0, 55, 48
1, 589186, Poly_aftertouch_c, 0, 49, 0
1, 589186, Poly_aftertouch_c, 0, 55, 0
1, 589215, Note_off_c, 0, 63, 37
1, 589301, Control_c, 0, 64, 122
1, 589335, Note_on_c, 0, 63, 56
1, 589356, Control_c, 0, 64, 117
1, 589359, Note_on_c, 0, 56, 55
1, 589372, Note_on_c, 0, 59, 36
1, 589372, Note_on_c, 0, 51, 43
1, 589379, Note_on_c, 0, 47, 48
1, 589396, Control_c, 0, 64, 110
1, 589404, Note_on_c, 0, 60, 26
1, 589414, Control_c, 0, 64, 105
1, 589432, Control_c, 0, 64, 100
1, 589452, Control_c, 0, 64, 94
1, 589463, Note_off_c, 0, 60, 38
1, 589463, Poly_aftertouch_c, 0, 60, 0
1, 589468, Control_c, 0, 64, 89
1, 589488, Control_c, 0, 64, 83
1, 589507, Control_c, 0, 64, 78
1, 589526, Control_c, 0, 64, 73
1, 589543, Control_c, 0, 64, 67
1, 589563, Control_c, 0, 64, 62
1, 589581, Control_c, 0, 64, 58
1, 589600, Control_c, 0, 64, 53
1, 589619, Control_c, 0, 64, 45
1, 589638, Control_c, 0, 64, 35
1, 589657, Control_c, 0, 64, 20
1, 589675, Control_c, 0, 64, 0
1, 589881, Control_c, 0, 64, 10
1, 589900, Control_c, 0, 64, 21
1, 589919, Control_c, 0, 64, 30
1, 589937, Control_c, 0, 64, 40
1, 589955, Control_c, 0, 64, 48
1, 589975, Control_c, 0, 64, 56
1, 589994, Control_c, 0, 64, 65
1, 590011, Control_c, 0, 64, 71
1, 590031, Control_c, 0, 64, 75
1, 590049, Control_c, 0, 64, 78
1, 590068, Control_c, 0, 64, 83
1, 590086, Control_c, 0, 64, 89
1, 590104, Note_off_c, 0, 59, 45
1, 590104, Poly_aftertouch_c, 0, 59, 0
1, 590105, Control_c, 0, 64, 95
1, 590126, Control_c, 0, 64, 101
1, 590142, Control_c, 0, 64, 107
1, 590162, Control_c, 0, 64, 112
1, 590171, Note_off_c, 0, 51, 27
1, 590171, Poly_aftertouch_c, 0, 51, 0
1, 590180, Note_off_c, 0, 56, 33
1, 590180, Control_c, 0, 64, 116
1, 590199, Control_c, 0, 64, 121
1, 590201, Note_off_c, 0, 63, 28
1, 590205, Note_off_c, 0, 47, 31
1, 590205, Poly_aftertouch_c, 0, 47, 0
1, 590236, Control_c, 0, 64, 126
1, 590440, Control_c, 0, 64, 121
1, 590445, Note_on_c, 0, 63, 52
1, 590452, Note_on_c, 0, 56, 44
1, 590452, Note_on_c, 0, 59, 50
1, 590464, Note_on_c, 0, 51, 43
1, 590478, Control_c, 0, 64, 112
1, 590487, Note_on_c, 0, 44, 39
1, 590498, Control_c, 0, 64, 102
1, 590516, Control_c, 0, 64, 86
1, 590536, Control_c, 0, 64, 69
1, 590554, Control_c, 0, 64, 56
1, 590573, Control_c, 0, 64, 48
1, 590592, Control_c, 0, 64, 44
1, 590628, Control_c, 0, 64, 47
1, 590648, Control_c, 0, 64, 53
1, 590666, Control_c, 0, 64, 61
1, 590685, Control_c, 0, 64, 68
1, 590704, Control_c, 0, 64, 73
1, 590722, Control_c, 0, 64, 76
1, 590741, Control_c, 0, 64, 78
1, 590747, Note_off_c, 0, 51, 32
1, 590747, Poly_aftertouch_c, 0, 51, 0
1, 590759, Control_c, 0, 64, 81
1, 590762, Note_off_c, 0, 56, 34
1, 590777, Note_off_c, 0, 59, 33
1, 590777, Poly_aftertouch_c, 0, 59, 0
1, 590778, Control_c, 0, 64, 84
1, 590780, Note_off_c, 0, 63, 32
1, 590799, Control_c, 0, 64, 87
1, 590817, Note_off_c, 0, 44, 26
1, 590817, Poly_aftertouch_c, 0, 44, 0
1, 590835, Control_c, 0, 64, 94
1, 590854, Control_c, 0, 64, 99
1, 590872, Control_c, 0, 64, 104
1, 590891, Control_c, 0, 64, 109
1, 590928, Control_c, 0, 64, 114
1, 591236, Note_on_c, 0, 63, 44
1, 591245, Note_on_c, 0, 56, 43
1, 591246, Note_on_c, 0, 59, 45
1, 591247, Note_on_c, 0, 51, 38
1, 591258, Note_on_c, 0, 44, 39
1, 591363, Note_off_c, 0, 56, 45
1, 591366, Note_off_c, 0, 59, 49
1, 591366, Poly_aftertouch_c, 0, 59, 0
1, 591383, Note_off_c, 0, 44, 50
1, 591383, Poly_aftertouch_c, 0, 44, 0
1, 591398, Note_off_c, 0, 51, 37
1, 591398, Poly_aftertouch_c, 0, 51, 0
1, 591403, Note_off_c, 0, 63, 33
1, 591507, Note_on_c, 0, 63, 42
1, 591527, Control_c, 0, 64, 109
1, 591538, Note_on_c, 0, 58, 46
1, 591551, Note_on_c, 0, 61, 43
1, 591557, Note_on_c, 0, 43, 38
1, 591561, Note_on_c, 0, 51, 43
1, 591564, Control_c, 0, 64, 101
1, 591582, Control_c, 0, 64, 94
1, 591602, Control_c, 0, 64, 87
1, 591620, Control_c, 0, 64, 79
1, 591638, Control_c, 0, 64, 71
1, 591659, Control_c, 0, 64, 64
1, 591676, Control_c, 0, 64, 58
1, 591694, Control_c, 0, 64, 52
1, 591714, Control_c, 0, 64, 43
1, 591732, Control_c, 0, 64, 32
1, 591751, Control_c, 0, 64, 20
1, 591769, Control_c, 0, 64, 11
1, 591901, Control_c, 0, 64, 18
1, 591919, Control_c, 0, 64, 24
1, 591938, Control_c, 0, 64, 31
1, 591956, Control_c, 0, 64, 38
1, 591975, Control_c, 0, 64, 46
1, 591994, Control_c, 0, 64, 54
1, 592013, Control_c, 0, 64, 60
1, 592031, Control_c, 0, 64, 64
1, 592050, Control_c, 0, 64, 66
1, 592068, Control_c, 0, 64, 68
1, 592105, Control_c, 0, 64, 71
1, 592125, Control_c, 0, 64, 73
1, 592144, Control_c, 0, 64, 76
1, 592162, Control_c, 0, 64, 79
1, 592181, Control_c, 0, 64, 84
1, 592189, Note_off_c, 0, 61, 36
1, 592189, Poly_aftertouch_c, 0, 61, 0
1, 592199, Control_c, 0, 64, 89
1, 592213, Note_off_c, 0, 63, 34
1, 592218, Control_c, 0, 64, 97
1, 592227, Note_off_c, 0, 43, 35
1, 592227, Poly_aftertouch_c, 0, 43, 0
1, 592237, Control_c, 0, 64, 104
1, 592255, Control_c, 0, 64, 111
1, 592275, Control_c, 0, 64, 116
1, 592293, Control_c, 0, 64, 120
1, 592330, Control_c, 0, 64, 126
1, 592342, Note_off_c, 0, 58, 30
1, 592342, Poly_aftertouch_c, 0, 58, 0
1, 592378, Note_off_c, 0, 51, 22
1, 592378, Poly_aftertouch_c, 0, 51, 0
1, 592608, Note_on_c, 0, 63, 42
1, 592610, Control_c, 0, 64, 122
1, 592624, Note_on_c, 0, 51, 31
1, 592629, Note_on_c, 0, 59, 36
1, 592629, Control_c, 0, 64, 117
1, 592634, Note_on_c, 0, 44, 39
1, 592642, Note_on_c, 0, 56, 35
1, 592647, Control_c, 0, 64, 108
1, 592668, Control_c, 0, 64, 93
1, 592685, Control_c, 0, 64, 76
1, 592704, Control_c, 0, 64, 62
1, 592723, Control_c, 0, 64, 53
1, 592742, Control_c, 0, 64, 46
1, 592760, Control_c, 0, 64, 44
1, 592798, Control_c, 0, 64, 50
1, 592817, Control_c, 0, 64, 56
1, 592835, Control_c, 0, 64, 65
1, 592854, Control_c, 0, 64, 71
1, 592872, Control_c, 0, 64, 75
1, 592874, Poly_aftertouch_c, 0, 59, 24
1, 592892, Control_c, 0, 64, 79
1, 592908, Note_off_c, 0, 56, 36
1, 592908, Control_c, 0, 64, 83
1, 592911, Note_off_c, 0, 44, 28
1, 592911, Note_off_c, 0, 59, 32
1, 592911, Poly_aftertouch_c, 0, 44, 0
1, 592911, Poly_aftertouch_c, 0, 59, 0
1, 592918, Note_off_c, 0, 51, 31
1, 592918, Poly_aftertouch_c, 0, 51, 0
1, 592929, Control_c, 0, 64, 87
1, 592944, Note_off_c, 0, 63, 32
1, 592947, Control_c, 0, 64, 91
1, 592985, Control_c, 0, 64, 98
1, 593004, Control_c, 0, 64, 102
1, 593041, Control_c, 0, 64, 108
1, 593097, Control_c, 0, 64, 113
1, 593433, Note_on_c, 0, 63, 37
1, 593434, Note_on_c, 0, 51, 32
1, 593444, Note_on_c, 0, 59, 38
1, 593447, Note_on_c, 0, 56, 30
1, 593455, Note_on_c, 0, 44, 30
1, 593518, Note_off_c, 0, 51, 49
1, 593518, Poly_aftertouch_c, 0, 51, 0
1, 593548, Note_off_c, 0, 63, 40
1, 593550, Note_off_c, 0, 59, 30
1, 593550, Poly_aftertouch_c, 0, 59, 0
1, 593577, Note_off_c, 0, 56, 37
1, 593677, Control_c, 0, 64, 108
1, 593713, Control_c, 0, 64, 100
1, 593715, Note_on_c, 0, 63, 45
1, 593726, Note_on_c, 0, 51, 37
1, 593732, Note_on_c, 0, 55, 41
1, 593732, Control_c, 0, 64, 93
1, 593738, Note_on_c, 0, 58, 42
1, 593738, Poly_aftertouch_c, 0, 44, 20
1, 593751, Control_c, 0, 64, 85
1, 593756, Note_on_c, 0, 39, 38
1, 593770, Control_c, 0, 64, 76
1, 593774, Note_off_c, 0, 44, 19
1, 593774, Poly_aftertouch_c, 0, 44, 0
1, 593789, Control_c, 0, 64, 68
1, 593808, Control_c, 0, 64, 60
1, 593826, Control_c, 0, 64, 55
1, 593844, Control_c, 0, 64, 49
1, 593864, Control_c, 0, 64, 44
1, 593884, Control_c, 0, 64, 39
1, 593985, Note_off_c, 0, 58, 34
1, 593985, Poly_aftertouch_c, 0, 58, 0
1, 593991, Note_off_c, 0, 51, 36
1, 593991, Poly_aftertouch_c, 0, 51, 0
1, 593996, Note_off_c, 0, 55, 34
1, 593996, Poly_aftertouch_c, 0, 55, 0
1, 594014, Note_off_c, 0, 63, 34
1, 594022, Note_off_c, 0, 39, 40
1, 594332, Control_c, 0, 64, 42
1, 594350, Control_c, 0, 64, 44
1, 594369, Control_c, 0, 64, 47
1, 594387, Control_c, 0, 64, 51
1, 594407, Control_c, 0, 64, 55
1, 594426, Control_c, 0, 64, 59
1, 594442, Control_c, 0, 64, 62
1, 594462, Control_c, 0, 64, 65
1, 594481, Control_c, 0, 64, 67
1, 594517, Control_c, 0, 64, 69
1, 594574, Control_c, 0, 64, 71
1, 594761, Control_c, 0, 64, 69
1, 594781, Note_on_c, 0, 63, 37
1, 594791, Note_on_c, 0, 58, 32
1, 594799, Note_on_c, 0, 55, 30
1, 594805, Note_on_c, 0, 51, 30
1, 594814, Note_on_c, 0, 39, 35
1, 594816, Control_c, 0, 64, 68
1, 594837, Control_c, 0, 64, 67
1, 594874, Control_c, 0, 64, 66
1, 594892, Control_c, 0, 64, 65
1, 594930, Control_c, 0, 64, 63
1, 594949, Control_c, 0, 64, 62
1, 594967, Control_c, 0, 64, 60
1, 595023, Control_c, 0, 64, 57
1, 595060, Control_c, 0, 64, 54
1, 595075, Note_off_c, 0, 58, 38
1, 595075, Poly_aftertouch_c, 0, 58, 0
1, 595078, Note_off_c, 0, 55, 38
1, 595078, Poly_aftertouch_c, 0, 55, 0
1, 595088, Note_off_c, 0, 51, 37
1, 595088, Poly_aftertouch_c, 0, 51, 0
1, 595092, Note_off_c, 0, 39, 37
1, 595093, Note_off_c, 0, 63, 35
1, 595098, Control_c, 0, 64, 52
1, 595155, Control_c, 0, 64, 49
1, 595190, Control_c, 0, 64, 47
1, 595858, Note_on_c, 0, 63, 29
1, 595880, Note_on_c, 0, 58, 30
1, 595880, Note_on_c, 0, 55, 23
1, 595885, Note_on_c, 0, 51, 25
1, 595903, Note_on_c, 0, 39, 26
1, 596317, Note_off_c, 0, 39, 36
1, 596325, Note_off_c, 0, 51, 31
1, 596325, Poly_aftertouch_c, 0, 51, 0
1, 596339, Note_off_c, 0, 63, 38
1, 596341, Note_off_c, 0, 55, 37
1, 596341, Poly_aftertouch_c, 0, 55, 0
1, 596343, Note_off_c, 0, 58, 34
1, 596343, Poly_aftertouch_c, 0, 58, 0
1, 596668, Control_c, 0, 64, 49
1, 596724, Control_c, 0, 64, 51
1, 596762, Control_c, 0, 64, 55
1, 596780, Control_c, 0, 64, 58
1, 596799, Control_c, 0, 64, 60
1, 596818, Control_c, 0, 64, 62
1, 596837, Control_c, 0, 64, 63
1, 596855, Control_c, 0, 64, 64
1, 596893, Control_c, 0, 64, 66
1, 596912, Control_c, 0, 64, 67
1, 596913, Control_c, 0, 67, 120
1, 596949, Control_c, 0, 67, 115
1, 596968, Control_c, 0, 64, 69
1, 596985, Control_c, 0, 67, 111
1, 597023, Control_c, 0, 67, 106
1, 597043, Control_c, 0, 64, 71
1, 597044, Control_c, 0, 67, 101
1, 597055, Note_on_c, 0, 63, 57
1, 597059, Control_c, 0, 67, 97
1, 597080, Control_c, 0, 64, 73
1, 597081, Control_c, 0, 67, 92
1, 597083, Note_on_c, 0, 51, 46
1, 597098, Control_c, 0, 67, 87
1, 597119, Control_c, 0, 64, 77
1, 597120, Control_c, 0, 67, 82
1, 597136, Control_c, 0, 64, 80
1, 597136, Control_c, 0, 67, 76
1, 597155, Control_c, 0, 64, 83
1, 597156, Control_c, 0, 67, 69
1, 597174, Control_c, 0, 64, 86
1, 597176, Control_c, 0, 67, 61
1, 597192, Control_c, 0, 64, 90
1, 597193, Control_c, 0, 67, 54
1, 597211, Control_c, 0, 64, 95
1, 597212, Control_c, 0, 67, 49
1, 597229, Control_c, 0, 64, 100
1, 597231, Control_c, 0, 67, 44
1, 597248, Control_c, 0, 64, 106
1, 597249, Control_c, 0, 67, 40
1, 597268, Control_c, 0, 64, 112
1, 597269, Control_c, 0, 67, 35
1, 597285, Control_c, 0, 64, 116
1, 597305, Control_c, 0, 64, 120
1, 597306, Control_c, 0, 67, 31
1, 597341, Control_c, 0, 64, 126
1, 597406, Note_off_c, 0, 63, 26
1, 597498, Note_off_c, 0, 51, 31
1, 597498, Poly_aftertouch_c, 0, 51, 0
1, 597548, Control_c, 0, 67, 27
1, 598010, Note_on_c, 0, 63, 64
1, 598030, Note_on_c, 0, 51, 47
1, 598053, Control_c, 0, 67, 31
1, 598177, Note_off_c, 0, 51, 47
1, 598177, Poly_aftertouch_c, 0, 51, 0
1, 598214, Note_off_c, 0, 63, 38
1, 598284, Note_on_c, 0, 63, 59
1, 598310, Note_on_c, 0, 59, 56
1, 598313, Note_on_c, 0, 56, 54
1, 598317, Note_on_c, 0, 51, 53
1, 598338, Note_on_c, 0, 44, 44
1, 598348, Note_on_c, 0, 32, 48
1, 598351, Control_c, 0, 64, 120
1, 598389, Control_c, 0, 64, 112
1, 598407, Control_c, 0, 64, 108
1, 598426, Control_c, 0, 64, 102
1, 598446, Control_c, 0, 64, 95
1, 598463, Control_c, 0, 64, 88
1, 598482, Control_c, 0, 64, 81
1, 598502, Control_c, 0, 64, 74
1, 598520, Control_c, 0, 64, 70
1, 598539, Control_c, 0, 64, 65
1, 598557, Control_c, 0, 64, 61
1, 598577, Control_c, 0, 64, 58
1, 598594, Control_c, 0, 64, 55
1, 598688, Control_c, 0, 64, 57
1, 598706, Control_c, 0, 64, 60
1, 598726, Control_c, 0, 64, 62
1, 598743, Control_c, 0, 64, 64
1, 598763, Control_c, 0, 64, 66
1, 598782, Control_c, 0, 64, 67
1, 598818, Control_c, 0, 64, 69
1, 598856, Control_c, 0, 64, 71
1, 598893, Control_c, 0, 64, 74
1, 598931, Control_c, 0, 64, 77
1, 598950, Control_c, 0, 64, 79
1, 598968, Control_c, 0, 64, 82
1, 598989, Control_c, 0, 64, 85
1, 599025, Control_c, 0, 64, 91
1, 599062, Control_c, 0, 64, 97
1, 599100, Control_c, 0, 64, 103
1, 599119, Poly_aftertouch_c, 0, 59, 24
1, 599137, Control_c, 0, 64, 110
1, 599158, Note_off_c, 0, 59, 35
1, 599158, Poly_aftertouch_c, 0, 59, 0
1, 599175, Control_c, 0, 64, 115
1, 599185, Note_off_c, 0, 51, 33
1, 599185, Poly_aftertouch_c, 0, 51, 0
1, 599192, Control_c, 0, 67, 35
1, 599206, Note_off_c, 0, 63, 30
1, 599206, Note_off_c, 0, 56, 33
1, 599267, Control_c, 0, 64, 119
1, 599379, Note_on_c, 0, 63, 51
1, 599384, Note_on_c, 0, 56, 51
1, 599388, Note_on_c, 0, 59, 57
1, 599398, Note_on_c, 0, 51, 49
1, 599473, Control_c, 0, 64, 124
1, 599719, Poly_aftertouch_c, 0, 51, 20
1, 599733, Note_off_c, 0, 51, 26
1, 599733, Poly_aftertouch_c, 0, 51, 0
1, 599750, Note_off_c, 0, 63, 34
1, 599758, Poly_aftertouch_c, 0, 59, 22
1, 599782, Note_off_c, 0, 56, 29
1, 599795, Note_off_c, 0, 59, 20
1, 599795, Poly_aftertouch_c, 0, 59, 0
1, 600199, Note_on_c, 0, 63, 58
1, 600204, Note_on_c, 0, 51, 57
1, 600212, Note_on_c, 0, 59, 54
1, 600214, Note_on_c, 0, 56, 52
1, 600238, Note_off_c, 0, 32, 27
1, 600324, Note_off_c, 0, 51, 47
1, 600324, Poly_aftertouch_c, 0, 51, 0
1, 600340, Note_off_c, 0, 59, 47
1, 600340, Note_off_c, 0, 56, 54
1, 600340, Poly_aftertouch_c, 0, 59, 0
1, 600345, Note_off_c, 0, 63, 38
1, 600463, Note_on_c, 0, 63, 62
1, 600466, Note_on_c, 0, 32, 64
1, 600468, Note_on_c, 0, 51, 61
1, 600472, Note_on_c, 0, 59, 54
1, 600477, Note_on_c, 0, 56, 59
1, 600482, Control_c, 0, 64, 118
1, 600502, Control_c, 0, 64, 107
1, 600503, Control_c, 0, 67, 39
1, 600520, Control_c, 0, 64, 90
1, 600539, Control_c, 0, 64, 74
1, 600557, Control_c, 0, 64, 63
1, 600578, Control_c, 0, 64, 60
1, 600614, Control_c, 0, 64, 63
1, 600633, Control_c, 0, 64, 66
1, 600651, Control_c, 0, 64, 70
1, 600670, Control_c, 0, 64, 75
1, 600688, Control_c, 0, 64, 79
1, 600708, Control_c, 0, 64, 83
1, 600709, Control_c, 0, 67, 35
1, 600726, Control_c, 0, 64, 87
1, 600744, Control_c, 0, 64, 92
1, 600746, Control_c, 0, 67, 31
1, 600764, Control_c, 0, 64, 96
1, 600765, Control_c, 0, 67, 27
1, 600782, Control_c, 0, 64, 101
1, 600784, Control_c, 0, 67, 22
1, 600801, Control_c, 0, 64, 105
1, 600802, Control_c, 0, 67, 17
1, 600820, Control_c, 0, 64, 110
1, 600821, Control_c, 0, 67, 11
1, 600838, Control_c, 0, 64, 114
1, 600857, Control_c, 0, 64, 119
1, 600875, Control_c, 0, 64, 124
1, 600922, Note_off_c, 0, 63, 31
1, 600940, Poly_aftertouch_c, 0, 59, 24
1, 600949, Control_c, 0, 67, 0
1, 600961, Note_off_c, 0, 51, 21
1, 600961, Poly_aftertouch_c, 0, 51, 0
1, 601001, Note_off_c, 0, 56, 27
1, 601004, Note_off_c, 0, 59, 19
1, 601004, Poly_aftertouch_c, 0, 59, 0
1, 601080, Poly_aftertouch_c, 0, 34, 127
1, 601236, Note_on_c, 0, 59, 50
1, 601237, Note_on_c, 0, 63, 63
1, 601241, Note_on_c, 0, 56, 59
1, 601243, Note_on_c, 0, 51, 61
1, 601358, Note_off_c, 0, 56, 60
1, 601373, Note_off_c, 0, 63, 48
1, 601374, Note_off_c, 0, 59, 54
1, 601374, Poly_aftertouch_c, 0, 59, 0
1, 601407, Note_off_c, 0, 51, 38
1, 601407, Poly_aftertouch_c, 0, 51, 0
1, 601503, Note_on_c, 0, 58, 62
1, 601513, Note_on_c, 0, 54, 62
1, 601518, Note_on_c, 0, 63, 58
1, 601522, Note_on_c, 0, 51, 53
1, 601529, Control_c, 0, 64, 109
1, 601548, Control_c, 0, 64, 92
1, 601568, Control_c, 0, 64, 74
1, 601586, Control_c, 0, 64, 56
1, 601605, Control_c, 0, 64, 36
1, 601623, Control_c, 0, 64, 0
1, 601698, Control_c, 0, 64, 18
1, 601718, Control_c, 0, 64, 35
1, 601736, Control_c, 0, 64, 49
1, 601755, Control_c, 0, 64, 61
1, 601773, Control_c, 0, 64, 71
1, 601792, Control_c, 0, 64, 77
1, 601811, Control_c, 0, 64, 82
1, 601829, Control_c, 0, 64, 87
1, 601847, Control_c, 0, 64, 94
1, 601867, Control_c, 0, 64, 100
1, 601882, Note_off_c, 0, 58, 60
1, 601882, Poly_aftertouch_c, 0, 58, 0
1, 601885, Control_c, 0, 64, 105
1, 601891, Note_off_c, 0, 54, 55
1, 601904, Control_c, 0, 64, 110
1, 601923, Control_c, 0, 64, 114
1, 601942, Control_c, 0, 64, 118
1, 601955, Poly_aftertouch_c, 0, 34, 0
1, 601959, Control_c, 0, 64, 122
1, 601984, Note_off_c, 0, 32, 47
1, 601997, Control_c, 0, 64, 127
1, 602010, Poly_aftertouch_c, 0, 63, 24
1, 602053, Note_off_c, 0, 63, 19
1, 602053, Poly_aftertouch_c, 0, 63, 0
1, 602071, Note_off_c, 0, 51, 35
1, 602071, Poly_aftertouch_c, 0, 51, 0
1, 602237, Note_on_c, 0, 56, 69
1, 602243, Note_on_c, 0, 53, 57
1, 602243, Note_on_c, 0, 51, 56
1, 602293, Note_on_c, 0, 63, 10
1, 602305, Note_off_c, 0, 44, 33
1, 602305, Poly_aftertouch_c, 0, 44, 0
1, 602341, Note_off_c, 0, 53, 56
1, 602341, Poly_aftertouch_c, 0, 53, 0
1, 602380, Note_off_c, 0, 63, 49
1, 602380, Poly_aftertouch_c, 0, 63, 0
1, 602392, Note_off_c, 0, 51, 52
1, 602392, Poly_aftertouch_c, 0, 51, 0
1, 602420, Note_off_c, 0, 56, 54
1, 602513, Note_on_c, 0, 58, 65
1, 602520, Note_on_c, 0, 63, 61
1, 602520, Control_c, 0, 64, 122
1, 602533, Note_on_c, 0, 54, 62
1, 602536, Note_on_c, 0, 39, 61
1, 602539, Control_c, 0, 64, 111
1, 602543, Note_on_c, 0, 51, 60
1, 602558, Control_c, 0, 64, 93
1, 602577, Control_c, 0, 64, 73
1, 602596, Control_c, 0, 64, 55
1, 602614, Control_c, 0, 64, 31
1, 602633, Control_c, 0, 64, 0
1, 602727, Control_c, 0, 64, 23
1, 602745, Control_c, 0, 64, 40
1, 602764, Control_c, 0, 64, 52
1, 602782, Control_c, 0, 64, 62
1, 602802, Control_c, 0, 64, 69
1, 602820, Control_c, 0, 64, 73
1, 602858, Control_c, 0, 64, 75
1, 602915, Control_c, 0, 64, 77
1, 602970, Control_c, 0, 64, 79
1, 603021, Note_off_c, 0, 39, 25
1, 603044, Control_c, 0, 64, 81
1, 603045, Control_c, 0, 67, 8
1, 603282, Note_on_c, 0, 39, 65
1, 603521, Note_off_c, 0, 39, 59
1, 603531, Note_on_c, 0, 42, 67
1, 603550, Control_c, 0, 64, 78
1, 603570, Control_c, 0, 64, 73
1, 603587, Control_c, 0, 64, 66
1, 603605, Control_c, 0, 64, 56
1, 603625, Control_c, 0, 64, 39
1, 603642, Control_c, 0, 64, 0
1, 603793, Control_c, 0, 64, 8
1, 603811, Control_c, 0, 64, 25
1, 603830, Control_c, 0, 64, 36
1, 603848, Control_c, 0, 64, 46
1, 603868, Control_c, 0, 64, 54
1, 603886, Control_c, 0, 64, 62
1, 603905, Control_c, 0, 64, 68
1, 603923, Control_c, 0, 64, 70
1, 603961, Control_c, 0, 64, 72
1, 603980, Control_c, 0, 64, 74
1, 603984, Note_off_c, 0, 51, 30
1, 603984, Poly_aftertouch_c, 0, 51, 0
1, 603998, Control_c, 0, 64, 77
1, 604017, Control_c, 0, 64, 79
1, 604035, Control_c, 0, 64, 82
1, 604054, Control_c, 0, 64, 85
1, 604073, Control_c, 0, 64, 89
1, 604092, Control_c, 0, 64, 94
1, 604110, Control_c, 0, 64, 99
1, 604129, Control_c, 0, 64, 103
1, 604166, Control_c, 0, 64, 108
1, 604319, Note_on_c, 0, 46, 63
1, 604362, Note_off_c, 0, 42, 57
1, 604466, Control_c, 0, 64, 103
1, 604521, Control_c, 0, 64, 97
1, 604541, Control_c, 0, 64, 92
1, 604543, Control_c, 0, 67, 12
1, 604560, Control_c, 0, 64, 86
1, 604578, Control_c, 0, 64, 78
1, 604590, Note_on_c, 0, 51, 55
1, 604596, Control_c, 0, 64, 70
1, 604612, Note_off_c, 0, 46, 53
1, 604612, Poly_aftertouch_c, 0, 46, 0
1, 604614, Control_c, 0, 64, 63
1, 604615, Control_c, 0, 67, 17
1, 604634, Control_c, 0, 64, 56
1, 604653, Control_c, 0, 64, 44
1, 604655, Control_c, 0, 67, 22
1, 604672, Control_c, 0, 64, 24
1, 604690, Control_c, 0, 64, 0
1, 604691, Control_c, 0, 67, 29
1, 604729, Control_c, 0, 67, 36
1, 604765, Control_c, 0, 67, 42
1, 604802, Control_c, 0, 67, 49
1, 604839, Control_c, 0, 67, 55
1, 604877, Control_c, 0, 64, 22
1, 604878, Control_c, 0, 67, 60
1, 604896, Control_c, 0, 64, 34
1, 604914, Control_c, 0, 64, 44
1, 604915, Control_c, 0, 67, 64
1, 604933, Control_c, 0, 64, 51
1, 604953, Control_c, 0, 64, 57
1, 604954, Control_c, 0, 67, 69
1, 604970, Control_c, 0, 64, 62
1, 604985, Note_off_c, 0, 58, 37
1, 604985, Poly_aftertouch_c, 0, 58, 0
1, 604988, Control_c, 0, 64, 66
1, 604989, Control_c, 0, 67, 76
1, 605008, Control_c, 0, 64, 69
1, 605027, Control_c, 0, 67, 83
1, 605046, Control_c, 0, 64, 72
1, 605064, Control_c, 0, 64, 74
1, 605066, Control_c, 0, 67, 90
1, 605083, Control_c, 0, 64, 76
1, 605084, Control_c, 0, 67, 94
1, 605102, Control_c, 0, 64, 79
1, 605120, Control_c, 0, 64, 83
1, 605121, Control_c, 0, 67, 100
1, 605139, Control_c, 0, 64, 86
1, 605158, Control_c, 0, 64, 90
1, 605176, Control_c, 0, 64, 95
1, 605178, Control_c, 0, 67, 105
1, 605195, Control_c, 0, 64, 99
1, 605213, Control_c, 0, 64, 103
1, 605233, Control_c, 0, 67, 110
1, 605250, Control_c, 0, 64, 109
1, 605283, Note_off_c, 0, 54, 22
1, 605307, Control_c, 0, 67, 114
1, 605321, Note_off_c, 0, 63, 31
1, 605321, Poly_aftertouch_c, 0, 63, 0
1, 605344, Control_c, 0, 64, 113
1, 605681, Control_c, 0, 64, 108
1, 605707, Note_on_c, 0, 63, 42
1, 605717, Control_c, 0, 64, 101
1, 605726, Note_on_c, 0, 54, 34
1, 605730, Note_on_c, 0, 59, 39
1, 605736, Control_c, 0, 64, 93
1, 605751, Note_on_c, 0, 47, 36
1, 605754, Control_c, 0, 64, 81
1, 605775, Control_c, 0, 64, 68
1, 605793, Control_c, 0, 64, 56
1, 605812, Control_c, 0, 64, 43
1, 605832, Control_c, 0, 64, 27
1, 605833, Note_off_c, 0, 51, 38
1, 605833, Poly_aftertouch_c, 0, 51, 0
1, 605849, Control_c, 0, 64, 14
1, 605887, Control_c, 0, 64, 18
1, 605905, Control_c, 0, 64, 27
1, 605924, Control_c, 0, 64, 36
1, 605942, Control_c, 0, 64, 47
1, 605962, Control_c, 0, 64, 56
1, 605980, Control_c, 0, 64, 65
1, 605999, Control_c, 0, 64, 71
1, 606019, Control_c, 0, 64, 73
1, 606036, Control_c, 0, 64, 75
1, 606055, Control_c, 0, 64, 78
1, 606062, Poly_aftertouch_c, 0, 59, 24
1, 606074, Control_c, 0, 64, 80
1, 606093, Control_c, 0, 64, 83
1, 606108, Note_off_c, 0, 54, 34
1, 606111, Control_c, 0, 64, 85
1, 606129, Control_c, 0, 64, 88
1, 606133, Note_off_c, 0, 59, 32
1, 606133, Poly_aftertouch_c, 0, 59, 0
1, 606145, Note_off_c, 0, 47, 37
1, 606145, Poly_aftertouch_c, 0, 47, 0
1, 606165, Note_off_c, 0, 63, 30
1, 606165, Poly_aftertouch_c, 0, 63, 0
1, 606166, Control_c, 0, 64, 93
1, 606204, Control_c, 0, 64, 99
1, 606242, Control_c, 0, 64, 103
1, 606527, Note_on_c, 0, 63, 45
1, 606537, Note_on_c, 0, 59, 33
1, 606541, Note_on_c, 0, 54, 38
1, 606542, Note_on_c, 0, 47, 36
1, 606653, Note_off_c, 0, 63, 49
1, 606653, Poly_aftertouch_c, 0, 63, 0
1, 606655, Note_off_c, 0, 54, 47
1, 606682, Note_off_c, 0, 59, 35
1, 606682, Poly_aftertouch_c, 0, 59, 0
1, 606789, Poly_aftertouch_c, 0, 47, 24
1, 606816, Note_on_c, 0, 44, 49
1, 606822, Note_on_c, 0, 63, 49
1, 606822, Control_c, 0, 64, 98
1, 606836, Note_on_c, 0, 59, 45
1, 606839, Note_on_c, 0, 56, 40
1, 606856, Note_off_c, 0, 47, 19
1, 606856, Poly_aftertouch_c, 0, 47, 0
1, 606858, Control_c, 0, 64, 90
1, 606878, Control_c, 0, 64, 82
1, 606897, Control_c, 0, 64, 73
1, 606915, Control_c, 0, 64, 65
1, 606933, Control_c, 0, 64, 58
1, 606954, Control_c, 0, 64, 49
1, 606971, Control_c, 0, 64, 36
1, 606989, Control_c, 0, 64, 20
1, 607027, Control_c, 0, 64, 0
1, 607084, Control_c, 0, 64, 13
1, 607102, Control_c, 0, 64, 22
1, 607120, Control_c, 0, 64, 31
1, 607139, Control_c, 0, 64, 40
1, 607158, Control_c, 0, 64, 50
1, 607177, Control_c, 0, 64, 57
1, 607195, Control_c, 0, 64, 63
1, 607214, Control_c, 0, 64, 68
1, 607233, Control_c, 0, 64, 70
1, 607270, Control_c, 0, 64, 73
1, 607308, Control_c, 0, 64, 76
1, 607313, Note_off_c, 0, 56, 32
1, 607320, Note_off_c, 0, 59, 43
1, 607320, Poly_aftertouch_c, 0, 59, 0
1, 607325, Control_c, 0, 64, 78
1, 607345, Control_c, 0, 64, 81
1, 607364, Control_c, 0, 64, 83
1, 607367, Note_off_c, 0, 63, 35
1, 607367, Poly_aftertouch_c, 0, 63, 0
1, 607383, Control_c, 0, 64, 87
1, 607420, Control_c, 0, 64, 94
1, 607440, Control_c, 0, 64, 98
1, 607457, Control_c, 0, 64, 102
1, 607496, Control_c, 0, 64, 107
1, 607900, Poly_aftertouch_c, 0, 44, 24
1, 607906, Control_c, 0, 64, 102
1, 607908, Note_on_c, 0, 61, 41
1, 607925, Control_c, 0, 64, 97
1, 607935, Note_on_c, 0, 59, 32
1, 607944, Control_c, 0, 64, 90
1, 607960, Note_on_c, 0, 56, 30
1, 607961, Note_on_c, 0, 40, 35
1, 607963, Control_c, 0, 64, 79
1, 607983, Control_c, 0, 64, 67
1, 607986, Note_off_c, 0, 44, 31
1, 607986, Poly_aftertouch_c, 0, 44, 0
1, 607999, Control_c, 0, 64, 53
1, 608018, Control_c, 0, 64, 37
1, 608039, Control_c, 0, 64, 11
1, 608056, Control_c, 0, 64, 0
1, 608093, Control_c, 0, 64, 9
1, 608112, Control_c, 0, 64, 24
1, 608130, Control_c, 0, 64, 37
1, 608149, Control_c, 0, 64, 49
1, 608168, Control_c, 0, 64, 60
1, 608178, Poly_aftertouch_c, 0, 59, 24
1, 608186, Control_c, 0, 64, 69
1, 608205, Control_c, 0, 64, 73
1, 608224, Control_c, 0, 64, 76
1, 608243, Control_c, 0, 64, 78
1, 608261, Control_c, 0, 64, 81
1, 608270, Note_off_c, 0, 56, 35
1, 608270, Poly_aftertouch_c, 0, 40, 24
1, 608280, Control_c, 0, 64, 84
1, 608282, Note_off_c, 0, 59, 29
1, 608282, Poly_aftertouch_c, 0, 59, 0
1, 608297, Note_off_c, 0, 61, 31
1, 608297, Poly_aftertouch_c, 0, 61, 0
1, 608299, Control_c, 0, 64, 88
1, 608318, Control_c, 0, 64, 92
1, 608320, Control_c, 0, 67, 110
1, 608328, Note_off_c, 0, 40, 24
1, 608328, Poly_aftertouch_c, 0, 40, 0
1, 608334, Control_c, 0, 64, 97
1, 608356, Control_c, 0, 64, 101
1, 608358, Control_c, 0, 67, 105
1, 608374, Control_c, 0, 64, 105
1, 608393, Control_c, 0, 64, 109
1, 608394, Control_c, 0, 67, 101
1, 608449, Control_c, 0, 64, 113
1, 608706, Note_on_c, 0, 61, 41
1, 608715, Note_on_c, 0, 40, 37
1, 608715, Note_on_c, 0, 56, 39
1, 608732, Note_on_c, 0, 59, 35
1, 608783, Note_off_c, 0, 59, 44
1, 608783, Poly_aftertouch_c, 0, 59, 0
1, 608785, Note_off_c, 0, 56, 56
1, 608798, Note_off_c, 0, 61, 51
1, 608798, Poly_aftertouch_c, 0, 61, 0
1, 608935, Control_c, 0, 64, 109
1, 608964, Poly_aftertouch_c, 0, 40, 20
1, 608981, Note_on_c, 0, 61, 46
1, 608989, Note_on_c, 0, 59, 39
1, 608990, Control_c, 0, 64, 104
1, 608994, Note_off_c, 0, 40, 19
1, 608994, Poly_aftertouch_c, 0, 40, 0
1, 609001, Note_on_c, 0, 42, 44
1, 609004, Note_on_c, 0, 54, 44
1, 609029, Control_c, 0, 64, 95
1, 609047, Control_c, 0, 64, 87
1, 609066, Control_c, 0, 64, 78
1, 609084, Control_c, 0, 64, 69
1, 609103, Control_c, 0, 64, 60
1, 609121, Control_c, 0, 64, 51
1, 609140, Control_c, 0, 64, 39
1, 609159, Control_c, 0, 64, 27
1, 609233, Control_c, 0, 64, 37
1, 609240, Note_off_c, 0, 59, 37
1, 609240, Poly_aftertouch_c, 0, 59, 0
1, 609253, Control_c, 0, 64, 46
1, 609270, Control_c, 0, 64, 54
1, 609290, Control_c, 0, 64, 62
1, 609291, Control_c, 0, 67, 97
1, 609309, Control_c, 0, 64, 68
1, 609329, Control_c, 0, 64, 72
1, 609329, Control_c, 0, 67, 93
1, 609346, Control_c, 0, 64, 75
1, 609348, Control_c, 0, 67, 87
1, 609365, Control_c, 0, 64, 77
1, 609366, Control_c, 0, 67, 80
1, 609384, Control_c, 0, 64, 79
1, 609384, Control_c, 0, 67, 72
1, 609402, Control_c, 0, 64, 81
1, 609404, Control_c, 0, 67, 65
1, 609421, Note_off_c, 0, 61, 54
1, 609421, Poly_aftertouch_c, 0, 61, 0
1, 609421, Control_c, 0, 64, 85
1, 609423, Control_c, 0, 67, 60
1, 609440, Control_c, 0, 67, 56
1, 609459, Control_c, 0, 64, 93
1, 609477, Control_c, 0, 64, 98
1, 609478, Control_c, 0, 67, 50
1, 609496, Control_c, 0, 64, 103
1, 609514, Control_c, 0, 64, 107
1, 609551, Control_c, 0, 64, 113
1, 609596, Note_off_c, 0, 54, 56
1, 609626, Control_c, 0, 64, 117
1, 609738, Control_c, 0, 67, 56
1, 609758, Control_c, 0, 67, 61
1, 609761, Poly_aftertouch_c, 0, 42, 24
1, 609776, Control_c, 0, 67, 66
1, 609795, Control_c, 0, 67, 71
1, 609813, Control_c, 0, 67, 77
1, 609833, Control_c, 0, 67, 81
1, 609834, Note_off_c, 0, 42, 32
1, 609834, Poly_aftertouch_c, 0, 42, 0
1, 609850, Control_c, 0, 67, 86
1, 609870, Control_c, 0, 67, 90
1, 609907, Control_c, 0, 67, 96
1, 610019, Control_c, 0, 64, 113
1, 610055, Control_c, 0, 64, 107
1, 610063, Note_on_c, 0, 61, 36
1, 610075, Note_on_c, 0, 58, 34
1, 610075, Control_c, 0, 64, 99
1, 610080, Note_on_c, 0, 54, 29
1, 610080, Note_on_c, 0, 52, 30
1, 610089, Note_on_c, 0, 42, 36
1, 610092, Control_c, 0, 64, 88
1, 610098, Note_on_c, 0, 30, 40
1, 610112, Control_c, 0, 64, 76
1, 610132, Control_c, 0, 64, 67
1, 610151, Control_c, 0, 64, 60
1, 610168, Control_c, 0, 64, 58
1, 610224, Control_c, 0, 64, 61
1, 610244, Control_c, 0, 64, 66
1, 610263, Control_c, 0, 64, 72
1, 610265, Control_c, 0, 67, 90
1, 610280, Control_c, 0, 64, 77
1, 610300, Control_c, 0, 64, 82
1, 610301, Control_c, 0, 67, 82
1, 610318, Control_c, 0, 64, 87
1, 610322, Control_c, 0, 67, 75
1, 610337, Control_c, 0, 64, 92
1, 610339, Control_c, 0, 67, 70
1, 610345, Note_off_c, 0, 54, 34
1, 610353, Note_off_c, 0, 30, 36
1, 610355, Control_c, 0, 64, 97
1, 610357, Control_c, 0, 67, 64
1, 610375, Control_c, 0, 64, 102
1, 610376, Control_c, 0, 67, 60
1, 610394, Control_c, 0, 64, 106
1, 610399, Note_off_c, 0, 42, 30
1, 610399, Poly_aftertouch_c, 0, 42, 0
1, 610411, Control_c, 0, 64, 111
1, 610413, Note_off_c, 0, 61, 34
1, 610413, Poly_aftertouch_c, 0, 61, 0
1, 610414, Control_c, 0, 67, 55
1, 610430, Control_c, 0, 64, 115
1, 610447, Note_off_c, 0, 52, 30
1, 610449, Note_off_c, 0, 58, 30
1, 610449, Poly_aftertouch_c, 0, 58, 0
1, 610468, Control_c, 0, 64, 121
1, 610561, Control_c, 0, 67, 59
1, 610636, Control_c, 0, 67, 64
1, 610674, Control_c, 0, 67, 70
1, 610711, Control_c, 0, 67, 74
1, 610747, Control_c, 0, 67, 79
1, 610785, Control_c, 0, 67, 84
1, 610822, Control_c, 0, 67, 90
1, 610842, Control_c, 0, 67, 94
1, 610860, Control_c, 0, 67, 98
1, 610879, Control_c, 0, 67, 103
1, 610889, Note_on_c, 0, 61, 32
1, 610892, Note_on_c, 0, 30, 42
1, 610898, Control_c, 0, 67, 107
1, 610901, Note_on_c, 0, 58, 41
1, 610915, Note_on_c, 0, 54, 31
1, 610918, Note_on_c, 0, 52, 36
1, 610918, Control_c, 0, 67, 111
1, 610926, Note_on_c, 0, 42, 27
1, 610942, Note_off_c, 0, 30, 54
1, 610954, Control_c, 0, 67, 116
1, 610972, Note_off_c, 0, 42, 54
1, 610972, Poly_aftertouch_c, 0, 42, 0
1, 610975, Note_off_c, 0, 54, 52
1, 610999, Note_off_c, 0, 61, 39
1, 610999, Poly_aftertouch_c, 0, 61, 0
1, 611005, Note_off_c, 0, 58, 58
1, 611005, Poly_aftertouch_c, 0, 58, 0
1, 611160, Control_c, 0, 64, 116
1, 611173, Note_off_c, 0, 52, 32
1, 611197, Control_c, 0, 64, 112
1, 611210, Note_on_c, 0, 59, 45
1, 611227, Note_on_c, 0, 54, 41
1, 611230, Note_on_c, 0, 51, 42
1, 611234, Control_c, 0, 64, 103
1, 611241, Note_on_c, 0, 47, 36
1, 611254, Control_c, 0, 64, 96
1, 611264, Note_on_c, 0, 35, 33
1, 611273, Control_c, 0, 64, 88
1, 611290, Control_c, 0, 64, 80
1, 611310, Control_c, 0, 64, 73
1, 611328, Control_c, 0, 64, 67
1, 611347, Control_c, 0, 64, 62
1, 611365, Control_c, 0, 64, 58
1, 611384, Control_c, 0, 64, 55
1, 611403, Control_c, 0, 64, 52
1, 611404, Control_c, 0, 67, 112
1, 611421, Control_c, 0, 67, 107
1, 611439, Control_c, 0, 67, 99
1, 611459, Control_c, 0, 67, 89
1, 611479, Control_c, 0, 67, 78
1, 611496, Control_c, 0, 67, 68
1, 611504, Note_off_c, 0, 59, 45
1, 611504, Poly_aftertouch_c, 0, 59, 0
1, 611515, Control_c, 0, 67, 61
1, 611536, Control_c, 0, 64, 54
1, 611537, Note_off_c, 0, 51, 37
1, 611537, Poly_aftertouch_c, 0, 51, 0
1, 611537, Control_c, 0, 67, 57
1, 611545, Note_off_c, 0, 54, 35
1, 611548, Note_off_c, 0, 47, 37
1, 611548, Poly_aftertouch_c, 0, 47, 0
1, 611574, Note_off_c, 0, 35, 37
1, 611683, Control_c, 0, 67, 62
1, 611721, Control_c, 0, 67, 68
1, 611739, Control_c, 0, 67, 72
1, 611758, Control_c, 0, 67, 78
1, 611776, Control_c, 0, 64, 52
1, 611779, Control_c, 0, 67, 84
1, 611796, Control_c, 0, 67, 89
1, 611815, Control_c, 0, 67, 94
1, 611832, Control_c, 0, 67, 99
1, 611852, Control_c, 0, 67, 103
1, 611889, Control_c, 0, 67, 109
1, 611946, Control_c, 0, 64, 55
1, 611947, Control_c, 0, 67, 113
1, 611983, Control_c, 0, 64, 59
1, 612001, Control_c, 0, 64, 62
1, 612020, Control_c, 0, 64, 66
1, 612038, Control_c, 0, 64, 69
1, 612057, Control_c, 0, 64, 71
1, 612078, Control_c, 0, 64, 73
1, 612283, Control_c, 0, 64, 70
1, 612303, Note_on_c, 0, 59, 36
1, 612310, Note_on_c, 0, 51, 32
1, 612316, Note_on_c, 0, 54, 28
1, 612320, Control_c, 0, 64, 66
1, 612327, Note_on_c, 0, 47, 17
1, 612327, Note_on_c, 0, 35, 24
1, 612338, Control_c, 0, 64, 63
1, 612356, Control_c, 0, 64, 60
1, 612375, Control_c, 0, 64, 56
1, 612394, Control_c, 0, 64, 54
1, 612396, Control_c, 0, 67, 109
1, 612413, Control_c, 0, 64, 52
1, 612449, Control_c, 0, 67, 105
1, 612469, Control_c, 0, 67, 101
1, 612488, Control_c, 0, 64, 54
1, 612488, Control_c, 0, 67, 94
1, 612507, Control_c, 0, 64, 58
1, 612508, Control_c, 0, 67, 85
1, 612525, Control_c, 0, 64, 64
1, 612526, Control_c, 0, 67, 77
1, 612544, Control_c, 0, 64, 69
1, 612545, Control_c, 0, 67, 70
1, 612561, Control_c, 0, 64, 72
1, 612562, Control_c, 0, 67, 65
1, 612596, Note_off_c, 0, 54, 33
1, 612599, Control_c, 0, 64, 76
1, 612599, Control_c, 0, 67, 60
1, 612607, Note_off_c, 0, 51, 34
1, 612607, Poly_aftertouch_c, 0, 51, 0
1, 612610, Note_off_c, 0, 59, 33
1, 612610, Poly_aftertouch_c, 0, 59, 0
1, 612621, Note_off_c, 0, 35, 34
1, 612624, Note_off_c, 0, 47, 33
1, 612624, Poly_aftertouch_c, 0, 47, 0
1, 612787, Control_c, 0, 64, 73
1, 612824, Control_c, 0, 64, 70
1, 612842, Control_c, 0, 64, 68
1, 612862, Control_c, 0, 64, 65
1, 612880, Control_c, 0, 64, 63
1, 612898, Control_c, 0, 64, 61
1, 612918, Control_c, 0, 64, 58
1, 612936, Control_c, 0, 64, 56
1, 612955, Control_c, 0, 64, 54
1, 612973, Control_c, 0, 64, 52
1, 612975, Control_c, 0, 67, 65
1, 613011, Control_c, 0, 64, 49
1, 613029, Control_c, 0, 67, 70
1, 613048, Control_c, 0, 64, 46
1, 613067, Control_c, 0, 67, 74
1, 613086, Control_c, 0, 64, 44
1, 613142, Control_c, 0, 67, 78
1, 613420, Note_on_c, 0, 59, 29
1, 613424, Control_c, 0, 64, 42
1, 613430, Note_on_c, 0, 51, 30
1, 613446, Note_on_c, 0, 54, 25
1, 613447, Note_on_c, 0, 47, 18
1, 613455, Note_on_c, 0, 35, 18
1, 613590, Control_c, 0, 67, 74
1, 613609, Control_c, 0, 64, 45
1, 613629, Control_c, 0, 64, 48
1, 613646, Control_c, 0, 64, 53
1, 613648, Control_c, 0, 67, 67
1, 613666, Control_c, 0, 64, 60
1, 613667, Control_c, 0, 67, 62
1, 613684, Control_c, 0, 64, 67
1, 613685, Control_c, 0, 67, 57
1, 613702, Control_c, 0, 64, 71
1, 613704, Control_c, 0, 67, 52
1, 613721, Control_c, 0, 64, 74
1, 613723, Control_c, 0, 67, 46
1, 613741, Control_c, 0, 64, 77
1, 613742, Control_c, 0, 67, 40
1, 613756, Note_off_c, 0, 51, 36
1, 613756, Poly_aftertouch_c, 0, 51, 0
1, 613759, Control_c, 0, 64, 79
1, 613760, Control_c, 0, 67, 32
1, 613777, Control_c, 0, 64, 81
1, 613778, Control_c, 0, 67, 23
1, 613797, Control_c, 0, 64, 84
1, 613800, Control_c, 0, 67, 12
1, 613808, Note_off_c, 0, 59, 34
1, 613808, Poly_aftertouch_c, 0, 59, 0
1, 613815, Control_c, 0, 64, 86
1, 613874, Note_off_c, 0, 54, 37
1, 613909, Note_off_c, 0, 35, 26
1, 613910, Note_off_c, 0, 47, 24
1, 613910, Poly_aftertouch_c, 0, 47, 0
1, 613985, Control_c, 0, 67, 0
1, 614114, Control_c, 0, 64, 84
1, 614170, Control_c, 0, 64, 81
1, 614207, Control_c, 0, 64, 78
1, 614244, Control_c, 0, 64, 76
1, 614302, Control_c, 0, 64, 73
1, 614338, Control_c, 0, 64, 71
1, 614395, Control_c, 0, 64, 69
1, 614432, Control_c, 0, 64, 68
1, 614450, Control_c, 0, 64, 67
1, 614488, Control_c, 0, 64, 65
1, 614506, Control_c, 0, 64, 63
1, 614525, Control_c, 0, 64, 61
1, 614563, Control_c, 0, 64, 57
1, 614581, Control_c, 0, 64, 55
1, 614600, Control_c, 0, 64, 53
1, 614619, Control_c, 0, 64, 49
1, 614638, Control_c, 0, 64, 42
1, 614655, Control_c, 0, 64, 31
1, 614675, Control_c, 0, 64, 19
1, 614693, Control_c, 0, 64, 0
1, 614695, Note_on_c, 0, 66, 67
1, 614725, Note_on_c, 0, 54, 48
1, 614788, Control_c, 0, 64, 17
1, 614806, Control_c, 0, 64, 28
1, 614825, Control_c, 0, 64, 40
1, 614843, Control_c, 0, 64, 50
1, 614861, Control_c, 0, 64, 59
1, 614881, Control_c, 0, 64, 66
1, 614899, Control_c, 0, 64, 71
1, 614918, Control_c, 0, 64, 74
1, 614936, Control_c, 0, 64, 76
1, 614956, Control_c, 0, 64, 79
1, 614974, Control_c, 0, 64, 82
1, 614993, Control_c, 0, 64, 86
1, 615012, Control_c, 0, 64, 92
1, 615030, Control_c, 0, 64, 99
1, 615049, Control_c, 0, 64, 107
1, 615067, Control_c, 0, 64, 115
1, 615087, Control_c, 0, 64, 122
1, 615105, Control_c, 0, 64, 127
1, 615196, Note_off_c, 0, 54, 26
1, 615332, Note_off_c, 0, 66, 36
1, 615629, Note_on_c, 0, 66, 72
1, 615658, Note_on_c, 0, 54, 58
1, 615795, Note_off_c, 0, 54, 55
1, 615799, Note_off_c, 0, 66, 58
1, 615912, Note_on_c, 0, 66, 78
1, 615913, Note_on_c, 0, 62, 65
1, 615929, Note_on_c, 0, 54, 64
1, 615938, Note_on_c, 0, 59, 60
1, 615939, Note_on_c, 0, 47, 57
1, 615952, Note_on_c, 0, 35, 52
1, 616058, Control_c, 0, 64, 117
1, 616077, Control_c, 0, 64, 104
1, 616096, Control_c, 0, 64, 92
1, 616115, Control_c, 0, 64, 81
1, 616133, Control_c, 0, 64, 72
1, 616152, Control_c, 0, 64, 67
1, 616171, Control_c, 0, 64, 64
1, 616247, Control_c, 0, 64, 67
1, 616264, Control_c, 0, 64, 69
1, 616283, Control_c, 0, 64, 72
1, 616304, Control_c, 0, 64, 76
1, 616320, Control_c, 0, 64, 80
1, 616340, Control_c, 0, 64, 84
1, 616359, Control_c, 0, 64, 89
1, 616377, Control_c, 0, 64, 95
1, 616395, Control_c, 0, 64, 101
1, 616414, Control_c, 0, 64, 106
1, 616433, Control_c, 0, 64, 111
1, 616451, Control_c, 0, 64, 116
1, 616469, Control_c, 0, 64, 121
1, 616489, Control_c, 0, 64, 127
1, 616793, Note_off_c, 0, 54, 29
1, 616840, Note_off_c, 0, 62, 36
1, 616840, Poly_aftertouch_c, 0, 59, 20
1, 616851, Note_off_c, 0, 59, 30
1, 616851, Poly_aftertouch_c, 0, 59, 0
1, 616866, Note_off_c, 0, 66, 32
1, 617028, Note_on_c, 0, 66, 60
1, 617039, Note_on_c, 0, 62, 60
1, 617048, Note_on_c, 0, 59, 49
1, 617049, Note_on_c, 0, 54, 57
1, 617359, Note_off_c, 0, 54, 27
1, 617400, Note_off_c, 0, 62, 35
1, 617404, Poly_aftertouch_c, 0, 59, 24
1, 617437, Note_off_c, 0, 66, 32
1, 617452, Note_off_c, 0, 59, 27
1, 617452, Poly_aftertouch_c, 0, 59, 0
1, 617701, Poly_aftertouch_c, 0, 40, 0
1, 617753, Poly_aftertouch_c, 0, 38, 0
1, 617845, Note_off_c, 0, 35, 30
1, 617846, Note_on_c, 0, 66, 64
1, 617855, Note_on_c, 0, 62, 61
1, 617862, Note_on_c, 0, 54, 57
1, 617865, Note_on_c, 0, 59, 56
1, 617980, Note_off_c, 0, 54, 48
1, 617988, Note_off_c, 0, 66, 54
1, 618002, Note_off_c, 0, 59, 52
1, 618002, Poly_aftertouch_c, 0, 59, 0
1, 618006, Note_off_c, 0, 62, 59
1, 618108, Note_on_c, 0, 66, 73
1, 618115, Note_on_c, 0, 62, 65
1, 618119, Note_on_c, 0, 54, 66
1, 618119, Note_on_c, 0, 59, 60
1, 618131, Note_on_c, 0, 35, 63
1, 618191, Control_c, 0, 64, 111
1, 618208, Control_c, 0, 64, 93
1, 618228, Control_c, 0, 64, 80
1, 618247, Control_c, 0, 64, 74
1, 618304, Control_c, 0, 64, 79
1, 618321, Control_c, 0, 64, 85
1, 618340, Control_c, 0, 64, 95
1, 618358, Control_c, 0, 64, 107
1, 618378, Control_c, 0, 64, 118
1, 618396, Control_c, 0, 64, 126
1, 618540, Note_off_c, 0, 54, 27
1, 618656, Note_off_c, 0, 62, 32
1, 618660, Poly_aftertouch_c, 0, 59, 24
1, 618676, Note_off_c, 0, 66, 32
1, 618697, Note_off_c, 0, 59, 27
1, 618697, Poly_aftertouch_c, 0, 59, 0
1, 618885, Note_on_c, 0, 66, 70
1, 618886, Note_on_c, 0, 62, 69
1, 618888, Note_on_c, 0, 59, 61
1, 618896, Note_on_c, 0, 54, 63
1, 619029, Note_off_c, 0, 54, 52
1, 619037, Note_off_c, 0, 59, 60
1, 619037, Poly_aftertouch_c, 0, 59, 0
1, 619047, Note_off_c, 0, 66, 56
1, 619052, Note_off_c, 0, 62, 60
1, 619139, Note_on_c, 0, 61, 72
1, 619144, Note_on_c, 0, 58, 71
1, 619148, Note_on_c, 0, 66, 70
1, 619169, Note_on_c, 0, 54, 60
1, 619200, Control_c, 0, 64, 119
1, 619218, Control_c, 0, 64, 95
1, 619239, Control_c, 0, 64, 75
1, 619257, Control_c, 0, 64, 63
1, 619274, Control_c, 0, 64, 59
1, 619312, Control_c, 0, 64, 62
1, 619332, Control_c, 0, 64, 68
1, 619349, Control_c, 0, 64, 76
1, 619369, Control_c, 0, 64, 86
1, 619387, Control_c, 0, 64, 97
1, 619406, Control_c, 0, 64, 111
1, 619424, Control_c, 0, 64, 124
1, 619546, Note_off_c, 0, 47, 39
1, 619546, Poly_aftertouch_c, 0, 47, 0
1, 619602, Note_off_c, 0, 61, 53
1, 619602, Poly_aftertouch_c, 0, 61, 0
1, 619662, Note_off_c, 0, 35, 40
1, 619745, Note_off_c, 0, 66, 28
1, 619766, Note_off_c, 0, 54, 33
1, 619925, Note_on_c, 0, 62, 70
1, 619929, Note_on_c, 0, 54, 68
1, 619932, Note_on_c, 0, 66, 61
1, 619933, Note_on_c, 0, 59, 69
1, 620008, Poly_aftertouch_c, 0, 58, 24
1, 620062, Note_off_c, 0, 59, 60
1, 620062, Poly_aftertouch_c, 0, 59, 0
1, 620063, Note_off_c, 0, 66, 47
1, 620072, Note_off_c, 0, 58, 35
1, 620072, Note_off_c, 0, 54, 51
1, 620072, Poly_aftertouch_c, 0, 58, 0
1, 620073, Poly_aftertouch_c, 0, 58, 0
1, 620184, Note_on_c, 0, 64, 77
1, 620190, Note_on_c, 0, 66, 81
1, 620195, Note_on_c, 0, 61, 78
1, 620199, Note_on_c, 0, 54, 77
1, 620203, Note_on_c, 0, 42, 72
1, 620209, Note_on_c, 0, 30, 71
1, 620222, Note_off_c, 0, 62, 53
1, 620247, Control_c, 0, 64, 112
1, 620266, Control_c, 0, 64, 87
1, 620284, Control_c, 0, 64, 65
1, 620303, Control_c, 0, 64, 47
1, 620322, Control_c, 0, 64, 23
1, 620341, Control_c, 0, 64, 0
1, 620378, Control_c, 0, 64, 9
1, 620398, Control_c, 0, 64, 26
1, 620415, Control_c, 0, 64, 42
1, 620434, Control_c, 0, 64, 57
1, 620454, Control_c, 0, 64, 69
1, 620472, Control_c, 0, 64, 77
1, 620490, Control_c, 0, 64, 81
1, 620511, Control_c, 0, 64, 84
1, 620524, Note_off_c, 0, 42, 36
1, 620524, Poly_aftertouch_c, 0, 42, 0
1, 620527, Control_c, 0, 64, 87
1, 620566, Note_off_c, 0, 30, 37
1, 620640, Control_c, 0, 64, 91
1, 620751, Control_c, 0, 64, 95
1, 620808, Control_c, 0, 64, 102
1, 620845, Control_c, 0, 64, 109
1, 620864, Control_c, 0, 64, 113
1, 620883, Control_c, 0, 64, 118
1, 620901, Control_c, 0, 64, 123
1, 620921, Note_on_c, 0, 42, 77
1, 620921, Control_c, 0, 64, 127
1, 620926, Note_on_c, 0, 30, 68
1, 620966, Note_off_c, 0, 30, 63
1, 620999, Note_off_c, 0, 42, 60
1, 620999, Poly_aftertouch_c, 0, 42, 0
1, 621177, Note_on_c, 0, 46, 81
1, 621182, Note_on_c, 0, 34, 74
1, 621202, Control_c, 0, 64, 119
1, 621219, Control_c, 0, 64, 100
1, 621239, Control_c, 0, 64, 77
1, 621257, Control_c, 0, 64, 57
1, 621276, Control_c, 0, 64, 42
1, 621293, Control_c, 0, 64, 25
1, 621313, Control_c, 0, 64, 21
1, 621351, Control_c, 0, 64, 34
1, 621369, Control_c, 0, 64, 47
1, 621388, Control_c, 0, 64, 61
1, 621408, Control_c, 0, 64, 73
1, 621425, Control_c, 0, 64, 80
1, 621442, Note_off_c, 0, 34, 59
1, 621444, Control_c, 0, 64, 86
1, 621463, Control_c, 0, 64, 91
1, 621482, Control_c, 0, 64, 97
1, 621500, Control_c, 0, 64, 102
1, 621519, Control_c, 0, 64, 107
1, 621537, Control_c, 0, 64, 111
1, 621552, Note_off_c, 0, 46, 49
1, 621552, Poly_aftertouch_c, 0, 46, 0
1, 621556, Control_c, 0, 64, 115
1, 621594, Control_c, 0, 64, 121
1, 621649, Control_c, 0, 64, 126
1, 621742, Note_off_c, 0, 54, 45
1, 621919, Note_on_c, 0, 49, 80
1, 621923, Note_on_c, 0, 37, 72
1, 621967, Note_off_c, 0, 37, 65
1, 622000, Note_off_c, 0, 49, 59
1, 622000, Poly_aftertouch_c, 0, 49, 0
1, 622177, Note_on_c, 0, 54, 82
1, 622181, Note_on_c, 0, 42, 77
1, 622228, Control_c, 0, 64, 120
1, 622248, Control_c, 0, 64, 105
1, 622266, Control_c, 0, 64, 86
1, 622286, Control_c, 0, 64, 68
1, 622304, Control_c, 0, 64, 52
1, 622322, Control_c, 0, 64, 31
1, 622341, Control_c, 0, 64, 0
1, 622472, Control_c, 0, 64, 16
1, 622492, Control_c, 0, 64, 26
1, 622509, Control_c, 0, 64, 36
1, 622529, Control_c, 0, 64, 45
1, 622547, Control_c, 0, 64, 52
1, 622565, Control_c, 0, 64, 60
1, 622584, Control_c, 0, 64, 66
1, 622603, Control_c, 0, 64, 69
1, 622622, Control_c, 0, 64, 71
1, 622659, Control_c, 0, 64, 73
1, 622679, Control_c, 0, 64, 76
1, 622696, Control_c, 0, 64, 78
1, 622715, Control_c, 0, 64, 82
1, 622734, Control_c, 0, 64, 86
1, 622753, Control_c, 0, 64, 91
1, 622771, Control_c, 0, 64, 98
1, 622790, Control_c, 0, 64, 107
1, 622809, Control_c, 0, 64, 115
1, 622828, Control_c, 0, 64, 122
1, 622846, Control_c, 0, 64, 127
1, 622862, Note_off_c, 0, 54, 33
1, 622945, Note_off_c, 0, 64, 35
1, 622945, Poly_aftertouch_c, 0, 64, 0
1, 622995, Note_off_c, 0, 61, 38
1, 622995, Poly_aftertouch_c, 0, 61, 0
1, 623090, Note_off_c, 0, 66, 54
1, 623134, Poly_aftertouch_c, 0, 44, 127
1, 623247, Note_on_c, 0, 66, 70
1, 623255, Note_on_c, 0, 61, 66
1, 623267, Note_on_c, 0, 58, 65
1, 623267, Note_on_c, 0, 54, 57
1, 623271, Note_on_c, 0, 52, 63
1, 623286, Note_on_c, 0, 40, 57
1, 623313, Control_c, 0, 64, 114
1, 623333, Control_c, 0, 64, 93
1, 623351, Control_c, 0, 64, 71
1, 623369, Note_off_c, 0, 42, 24
1, 623369, Poly_aftertouch_c, 0, 42, 0
1, 623369, Control_c, 0, 64, 56
1, 623380, Poly_aftertouch_c, 0, 44, 0
1, 623388, Control_c, 0, 64, 45
1, 623407, Control_c, 0, 64, 37
1, 623463, Control_c, 0, 64, 44
1, 623482, Control_c, 0, 64, 53
1, 623502, Control_c, 0, 64, 64
1, 623519, Control_c, 0, 64, 72
1, 623538, Control_c, 0, 64, 77
1, 623557, Control_c, 0, 64, 82
1, 623575, Control_c, 0, 64, 86
1, 623595, Control_c, 0, 64, 92
1, 623613, Control_c, 0, 64, 100
1, 623631, Control_c, 0, 64, 109
1, 623650, Control_c, 0, 64, 119
1, 623669, Control_c, 0, 64, 127
1, 623749, Note_off_c, 0, 54, 27
1, 623792, Note_off_c, 0, 61, 37
1, 623792, Poly_aftertouch_c, 0, 61, 0
1, 623800, Note_off_c, 0, 66, 34
1, 623808, Note_off_c, 0, 40, 33
1, 623820, Note_off_c, 0, 52, 32
1, 623824, Note_off_c, 0, 58, 35
1, 624039, Note_on_c, 0, 66, 73
1, 624047, Note_on_c, 0, 58, 70
1, 624049, Note_on_c, 0, 54, 65
1, 624050, Note_on_c, 0, 52, 68
1, 624053, Note_on_c, 0, 61, 65
1, 624056, Note_on_c, 0, 40, 66
1, 624137, Note_off_c, 0, 40, 52
1, 624148, Note_off_c, 0, 52, 56
1, 624185, Note_off_c, 0, 54, 51
1, 624186, Note_off_c, 0, 66, 52
1, 624219, Note_off_c, 0, 61, 56
1, 624219, Poly_aftertouch_c, 0, 61, 0
1, 624232, Note_off_c, 0, 58, 52
1, 624305, Note_on_c, 0, 66, 81
1, 624311, Note_on_c, 0, 59, 65
1, 624312, Note_on_c, 0, 54, 77
1, 624313, Note_on_c, 0, 62, 75
1, 624320, Note_on_c, 0, 50, 70
1, 624324, Note_on_c, 0, 38, 71
1, 624398, Control_c, 0, 64, 110
1, 624417, Control_c, 0, 64, 89
1, 624436, Control_c, 0, 64, 69
1, 624454, Control_c, 0, 64, 51
1, 624472, Control_c, 0, 64, 13
1, 624492, Control_c, 0, 64, 0
1, 624641, Control_c, 0, 64, 11
1, 624659, Control_c, 0, 64, 31
1, 624679, Control_c, 0, 64, 44
1, 624697, Control_c, 0, 64, 55
1, 624716, Control_c, 0, 64, 64
1, 624735, Control_c, 0, 64, 71
1, 624753, Control_c, 0, 64, 76
1, 624773, Control_c, 0, 64, 80
1, 624790, Control_c, 0, 64, 87
1, 624809, Control_c, 0, 64, 98
1, 624829, Control_c, 0, 64, 111
1, 624846, Control_c, 0, 64, 126
1, 624942, Note_off_c, 0, 50, 32
1, 624956, Note_off_c, 0, 38, 57
1, 625139, Note_off_c, 0, 66, 37
1, 625141, Note_off_c, 0, 54, 33
1, 625167, Note_off_c, 0, 62, 32
1, 625173, Note_off_c, 0, 59, 36
1, 625173, Poly_aftertouch_c, 0, 59, 0
1, 625342, Note_on_c, 0, 62, 73
1, 625345, Note_on_c, 0, 59, 73
1, 625345, Note_on_c, 0, 66, 81
1, 625348, Note_on_c, 0, 54, 79
1, 625363, Note_on_c, 0, 47, 73
1, 625371, Note_on_c, 0, 35, 73
1, 625371, Control_c, 0, 64, 100
1, 625389, Control_c, 0, 64, 76
1, 625407, Control_c, 0, 64, 62
1, 625427, Control_c, 0, 64, 59
1, 625445, Control_c, 0, 64, 60
1, 625464, Control_c, 0, 64, 65
1, 625483, Control_c, 0, 64, 72
1, 625502, Control_c, 0, 64, 80
1, 625520, Control_c, 0, 64, 90
1, 625538, Control_c, 0, 64, 99
1, 625558, Control_c, 0, 64, 107
1, 625576, Control_c, 0, 64, 113
1, 625594, Control_c, 0, 64, 119
1, 625614, Control_c, 0, 64, 125
1, 625784, Note_off_c, 0, 54, 28
1, 625819, Note_off_c, 0, 66, 32
1, 625885, Note_off_c, 0, 59, 34
1, 625885, Poly_aftertouch_c, 0, 59, 0
1, 625889, Note_off_c, 0, 62, 30
1, 625908, Note_off_c, 0, 35, 32
1, 625931, Note_off_c, 0, 47, 28
1, 625931, Poly_aftertouch_c, 0, 47, 0
1, 626165, Note_on_c, 0, 66, 81
1, 626169, Note_on_c, 0, 62, 75
1, 626173, Note_on_c, 0, 59, 70
1, 626173, Note_on_c, 0, 54, 79
1, 626181, Note_on_c, 0, 47, 75
1, 626189, Note_on_c, 0, 35, 73
1, 626275, Note_off_c, 0, 59, 59
1, 626275, Poly_aftertouch_c, 0, 59, 0
1, 626291, Note_off_c, 0, 47, 58
1, 626291, Poly_aftertouch_c, 0, 47, 0
1, 626345, Note_off_c, 0, 66, 60
1, 626348, Note_off_c, 0, 54, 58
1, 626363, Note_off_c, 0, 35, 57
1, 626437, Note_on_c, 0, 64, 78
1, 626443, Note_on_c, 0, 66, 81
1, 626443, Note_on_c, 0, 54, 84
1, 626446, Note_on_c, 0, 61, 75
1, 626452, Note_on_c, 0, 46, 86
1, 626459, Note_on_c, 0, 34, 80
1, 626465, Note_off_c, 0, 62, 60
1, 626511, Control_c, 0, 64, 121
1, 626529, Control_c, 0, 64, 106
1, 626548, Control_c, 0, 64, 88
1, 626568, Control_c, 0, 64, 69
1, 626586, Control_c, 0, 64, 55
1, 626604, Control_c, 0, 64, 38
1, 626641, Control_c, 0, 64, 0
1, 626849, Control_c, 0, 64, 21
1, 626866, Control_c, 0, 64, 31
1, 626885, Control_c, 0, 64, 39
1, 626904, Control_c, 0, 64, 46
1, 626923, Control_c, 0, 64, 52
1, 626941, Control_c, 0, 64, 59
1, 626960, Control_c, 0, 64, 64
1, 626978, Control_c, 0, 64, 68
1, 626997, Note_off_c, 0, 64, 56
1, 626997, Poly_aftertouch_c, 0, 64, 0
1, 627015, Control_c, 0, 64, 71
1, 627035, Control_c, 0, 64, 73
1, 627053, Control_c, 0, 64, 75
1, 627071, Control_c, 0, 64, 77
1, 627090, Control_c, 0, 64, 79
1, 627109, Control_c, 0, 64, 81
1, 627128, Control_c, 0, 64, 83
1, 627146, Control_c, 0, 64, 86
1, 627156, Note_off_c, 0, 61, 59
1, 627156, Poly_aftertouch_c, 0, 61, 0
1, 627164, Control_c, 0, 64, 90
1, 627184, Control_c, 0, 64, 95
1, 627202, Control_c, 0, 64, 101
1, 627222, Control_c, 0, 64, 107
1, 627240, Control_c, 0, 64, 111
1, 627259, Control_c, 0, 64, 116
1, 627277, Control_c, 0, 64, 120
1, 627310, Note_off_c, 0, 46, 59
1, 627310, Poly_aftertouch_c, 0, 46, 0
1, 627314, Note_off_c, 0, 54, 42
1, 627314, Control_c, 0, 64, 126
1, 627361, Note_off_c, 0, 66, 38
1, 627508, Note_on_c, 0, 66, 79
1, 627512, Note_on_c, 0, 62, 73
1, 627515, Note_on_c, 0, 54, 77
1, 627521, Control_c, 0, 64, 116
1, 627523, Note_on_c, 0, 59, 72
1, 627525, Note_on_c, 0, 47, 79
1, 627536, Note_on_c, 0, 35, 73
1, 627538, Control_c, 0, 64, 104
1, 627547, Note_off_c, 0, 34, 31
1, 627558, Control_c, 0, 64, 85
1, 627577, Control_c, 0, 64, 65
1, 627596, Control_c, 0, 64, 46
1, 627614, Control_c, 0, 64, 21
1, 627632, Control_c, 0, 64, 0
1, 627689, Control_c, 0, 64, 16
1, 627707, Control_c, 0, 64, 33
1, 627727, Control_c, 0, 64, 50
1, 627744, Control_c, 0, 64, 64
1, 627764, Control_c, 0, 64, 74
1, 627782, Control_c, 0, 64, 81
1, 627801, Control_c, 0, 64, 87
1, 627814, Note_off_c, 0, 47, 36
1, 627814, Poly_aftertouch_c, 0, 47, 0
1, 627818, Control_c, 0, 64, 95
1, 627839, Control_c, 0, 64, 104
1, 627858, Control_c, 0, 64, 112
1, 627876, Control_c, 0, 64, 118
1, 627894, Control_c, 0, 64, 123
1, 627908, Note_off_c, 0, 35, 28
1, 627909, Note_off_c, 0, 54, 32
1, 627913, Control_c, 0, 64, 127
1, 627940, Note_off_c, 0, 66, 33
1, 627961, Note_off_c, 0, 62, 35
1, 627976, Note_off_c, 0, 59, 35
1, 627976, Poly_aftertouch_c, 0, 59, 0
1, 628283, Note_on_c, 0, 62, 75
1, 628290, Note_on_c, 0, 47, 71
1, 628291, Note_on_c, 0, 66, 77
1, 628294, Note_on_c, 0, 59, 69
1, 628297, Note_on_c, 0, 54, 76
1, 628297, Note_on_c, 0, 35, 70
1, 628337, Note_off_c, 0, 47, 57
1, 628337, Poly_aftertouch_c, 0, 47, 0
1, 628351, Note_off_c, 0, 35, 56
1, 628408, Note_off_c, 0, 59, 60
1, 628408, Poly_aftertouch_c, 0, 59, 0
1, 628428, Note_off_c, 0, 66, 60
1, 628451, Note_off_c, 0, 54, 54
1, 628494, Note_off_c, 0, 62, 57
1, 628531, Control_c, 0, 64, 120
1, 628548, Control_c, 0, 64, 102
1, 628550, Note_on_c, 0, 66, 80
1, 628561, Note_on_c, 0, 61, 73
1, 628561, Note_on_c, 0, 54, 77
1, 628561, Note_on_c, 0, 58, 76
1, 628568, Control_c, 0, 64, 79
1, 628569, Note_on_c, 0, 42, 80
1, 628575, Note_on_c, 0, 30, 77
1, 628587, Control_c, 0, 64, 56
1, 628605, Control_c, 0, 64, 26
1, 628624, Control_c, 0, 64, 0
1, 628699, Control_c, 0, 64, 26
1, 628717, Control_c, 0, 64, 46
1, 628736, Control_c, 0, 64, 62
1, 628754, Control_c, 0, 64, 72
1, 628774, Control_c, 0, 64, 77
1, 628817, Note_off_c, 0, 66, 58
1, 628819, Note_off_c, 0, 54, 51
1, 628839, Note_off_c, 0, 42, 55
1, 628839, Poly_aftertouch_c, 0, 42, 0
1, 628855, Note_off_c, 0, 30, 50
1, 628867, Control_c, 0, 64, 74
1, 628879, Note_off_c, 0, 61, 56
1, 628879, Poly_aftertouch_c, 0, 61, 0
1, 628884, Note_off_c, 0, 58, 57
1, 628904, Control_c, 0, 64, 70
1, 628924, Control_c, 0, 64, 68
1, 628941, Control_c, 0, 64, 65
1, 628961, Control_c, 0, 64, 62
1, 628979, Control_c, 0, 64, 59
1, 628999, Control_c, 0, 64, 56
1, 629016, Control_c, 0, 64, 53
1, 629035, Control_c, 0, 64, 51
1, 629054, Control_c, 0, 64, 48
1, 629073, Control_c, 0, 64, 44
1, 629091, Control_c, 0, 64, 41
1, 629110, Control_c, 0, 64, 37
1, 629129, Control_c, 0, 64, 32
1, 629166, Control_c, 0, 64, 26
1, 629336, Control_c, 0, 67, 8
1, 629584, Note_on_c, 0, 61, 58
1, 629584, Note_on_c, 0, 58, 60
1, 629585, Note_on_c, 0, 54, 61
1, 629585, Note_on_c, 0, 66, 66
1, 629585, Note_on_c, 0, 42, 61
1, 629608, Note_on_c, 0, 30, 54
1, 629764, Control_c, 0, 67, 12
1, 629865, Note_off_c, 0, 54, 54
1, 629882, Note_off_c, 0, 66, 50
1, 629886, Note_off_c, 0, 42, 53
1, 629886, Poly_aftertouch_c, 0, 42, 0
1, 629893, Note_off_c, 0, 61, 57
1, 629893, Poly_aftertouch_c, 0, 61, 0
1, 629895, Note_off_c, 0, 58, 57
1, 629902, Note_off_c, 0, 30, 53
1, 630288, Control_c, 0, 67, 17
1, 630326, Control_c, 0, 67, 23
1, 630363, Control_c, 0, 67, 29
1, 630401, Control_c, 0, 67, 35
1, 630457, Control_c, 0, 67, 39
1, 630663, Control_c, 0, 67, 34
1, 630686, Note_on_c, 0, 66, 55
1, 630696, Note_on_c, 0, 42, 39
1, 630697, Note_on_c, 0, 54, 45
1, 630698, Note_on_c, 0, 58, 46
1, 630702, Note_on_c, 0, 61, 46
1, 630702, Note_on_c, 0, 30, 46
1, 630739, Control_c, 0, 64, 30
1, 630740, Control_c, 0, 67, 29
1, 630774, Control_c, 0, 64, 35
1, 630775, Control_c, 0, 67, 22
1, 630793, Control_c, 0, 64, 39
1, 630813, Control_c, 0, 64, 46
1, 630813, Control_c, 0, 67, 15
1, 630830, Control_c, 0, 64, 54
1, 630849, Control_c, 0, 64, 61
1, 630850, Control_c, 0, 67, 8
1, 630868, Control_c, 0, 64, 67
1, 630886, Control_c, 0, 64, 69
1, 631013, Note_off_c, 0, 54, 42
1, 631018, Note_off_c, 0, 66, 38
1, 631026, Note_off_c, 0, 42, 41
1, 631026, Poly_aftertouch_c, 0, 42, 0
1, 631027, Note_off_c, 0, 58, 50
1, 631027, Note_off_c, 0, 61, 50
1, 631027, Poly_aftertouch_c, 0, 61, 0
1, 631058, Note_off_c, 0, 30, 36
1, 631129, Control_c, 0, 64, 68
1, 631168, Control_c, 0, 64, 66
1, 631186, Control_c, 0, 64, 65
1, 631204, Control_c, 0, 64, 64
1, 631223, Control_c, 0, 64, 63
1, 631241, Control_c, 0, 64, 62
1, 631279, Control_c, 0, 64, 61
1, 631335, Control_c, 0, 64, 58
1, 631392, Control_c, 0, 64, 56
1, 631504, Control_c, 0, 64, 54
1, 631746, Control_c, 0, 64, 56
1, 631783, Control_c, 0, 64, 60
1, 631803, Control_c, 0, 64, 61
1, 631821, Control_c, 0, 64, 62
1, 631840, Control_c, 0, 64, 64
1, 631858, Control_c, 0, 64, 65
1, 631878, Control_c, 0, 64, 66
1, 631895, Control_c, 0, 64, 68
1, 631903, Note_on_c, 0, 66, 50
1, 631932, Control_c, 0, 64, 71
1, 631936, Note_on_c, 0, 54, 30
1, 631953, Control_c, 0, 64, 73
1, 631970, Control_c, 0, 64, 76
1, 631990, Control_c, 0, 64, 80
1, 632008, Control_c, 0, 64, 84
1, 632027, Control_c, 0, 64, 89
1, 632045, Control_c, 0, 64, 97
1, 632065, Control_c, 0, 64, 107
1, 632084, Control_c, 0, 64, 116
1, 632102, Control_c, 0, 64, 123
1, 632120, Control_c, 0, 64, 127
1, 632170, Note_off_c, 0, 66, 36
1, 632177, Note_off_c, 0, 54, 37
1, 632551, Control_c, 0, 67, 12
1, 632606, Control_c, 0, 67, 17
1, 632644, Control_c, 0, 67, 22
1, 632682, Control_c, 0, 67, 30
1, 632700, Control_c, 0, 67, 34
1, 632719, Control_c, 0, 67, 39
1, 632737, Control_c, 0, 67, 43
1, 632756, Control_c, 0, 67, 48
1, 632775, Control_c, 0, 67, 52
1, 632786, Note_on_c, 0, 66, 55
1, 632812, Control_c, 0, 67, 59
1, 632815, Note_on_c, 0, 54, 38
1, 632850, Control_c, 0, 67, 65
1, 632887, Control_c, 0, 67, 69
1, 632891, Note_off_c, 0, 54, 51
1, 632893, Note_off_c, 0, 66, 56
1, 633043, Note_on_c, 0, 66, 59
1, 633051, Note_on_c, 0, 62, 50
1, 633052, Note_on_c, 0, 54, 47
1, 633068, Note_on_c, 0, 59, 46
1, 633068, Note_on_c, 0, 47, 47
1, 633082, Note_on_c, 0, 35, 44
1, 633131, Control_c, 0, 64, 121
1, 633149, Control_c, 0, 64, 110
1, 633168, Control_c, 0, 64, 97
1, 633186, Control_c, 0, 64, 83
1, 633206, Control_c, 0, 64, 71
1, 633224, Control_c, 0, 64, 62
1, 633242, Control_c, 0, 64, 56
1, 633260, Control_c, 0, 64, 51
1, 633316, Control_c, 0, 64, 53
1, 633336, Control_c, 0, 64, 56
1, 633354, Control_c, 0, 64, 62
1, 633373, Control_c, 0, 64, 67
1, 633392, Control_c, 0, 64, 69
1, 633410, Control_c, 0, 64, 71
1, 633448, Control_c, 0, 64, 74
1, 633467, Control_c, 0, 64, 77
1, 633485, Control_c, 0, 64, 79
1, 633504, Control_c, 0, 64, 81
1, 633522, Control_c, 0, 64, 84
1, 633542, Control_c, 0, 64, 88
1, 633561, Control_c, 0, 64, 92
1, 633597, Control_c, 0, 64, 100
1, 633617, Control_c, 0, 64, 105
1, 633635, Control_c, 0, 64, 110
1, 633653, Control_c, 0, 64, 115
1, 633673, Control_c, 0, 64, 120
1, 633674, Control_c, 0, 67, 65
1, 633710, Control_c, 0, 64, 126
1, 633728, Control_c, 0, 67, 60
1, 633766, Control_c, 0, 67, 53
1, 633784, Poly_aftertouch_c, 0, 59, 24
1, 633803, Control_c, 0, 67, 49
1, 633830, Note_off_c, 0, 66, 33
1, 633850, Note_off_c, 0, 62, 33
1, 633855, Note_off_c, 0, 54, 31
1, 633868, Note_off_c, 0, 59, 30
1, 633868, Poly_aftertouch_c, 0, 59, 0
1, 633878, Control_c, 0, 67, 45
1, 633935, Control_c, 0, 67, 39
1, 633972, Control_c, 0, 67, 33
1, 634009, Control_c, 0, 67, 27
1, 634046, Control_c, 0, 67, 21
1, 634086, Control_c, 0, 67, 14
1, 634096, Note_on_c, 0, 66, 58
1, 634112, Note_on_c, 0, 62, 49
1, 634115, Note_on_c, 0, 54, 50
1, 634119, Note_on_c, 0, 59, 46
1, 634214, Control_c, 0, 67, 0
1, 634293, Note_off_c, 0, 66, 37
1, 634308, Note_off_c, 0, 54, 32
1, 634342, Note_off_c, 0, 62, 34
1, 634367, Poly_aftertouch_c, 0, 59, 20
1, 634387, Note_off_c, 0, 59, 31
1, 634387, Poly_aftertouch_c, 0, 59, 0
1, 634794, Control_c, 0, 67, 8
1, 634871, Note_on_c, 0, 66, 61
1, 634872, Note_on_c, 0, 62, 63
1, 634875, Note_off_c, 0, 35, 33
1, 634884, Note_on_c, 0, 59, 60
1, 634887, Note_on_c, 0, 54, 51
1, 634972, Note_off_c, 0, 54, 44
1, 634990, Note_off_c, 0, 66, 52
1, 634999, Control_c, 0, 67, 0
1, 635007, Note_off_c, 0, 62, 59
1, 635011, Note_off_c, 0, 59, 46
1, 635011, Poly_aftertouch_c, 0, 59, 0
1, 635128, Note_on_c, 0, 66, 67
1, 635132, Note_on_c, 0, 62, 72
1, 635135, Note_on_c, 0, 59, 58
1, 635137, Note_on_c, 0, 54, 59
1, 635149, Note_on_c, 0, 35, 61
1, 635187, Control_c, 0, 64, 105
1, 635205, Control_c, 0, 64, 80
1, 635225, Control_c, 0, 64, 64
1, 635244, Control_c, 0, 64, 59
1, 635280, Control_c, 0, 64, 63
1, 635299, Control_c, 0, 64, 68
1, 635318, Control_c, 0, 64, 76
1, 635337, Control_c, 0, 64, 84
1, 635356, Control_c, 0, 64, 95
1, 635374, Control_c, 0, 64, 106
1, 635392, Control_c, 0, 64, 116
1, 635412, Control_c, 0, 64, 124
1, 635458, Note_off_c, 0, 54, 28
1, 635607, Note_off_c, 0, 66, 34
1, 635626, Note_off_c, 0, 62, 26
1, 635640, Note_off_c, 0, 59, 25
1, 635640, Poly_aftertouch_c, 0, 59, 0
1, 635941, Note_on_c, 0, 62, 70
1, 635959, Note_on_c, 0, 66, 64
1, 635966, Note_on_c, 0, 54, 62
1, 635969, Note_on_c, 0, 59, 60
1, 636011, Note_off_c, 0, 66, 52
1, 636042, Note_off_c, 0, 54, 58
1, 636064, Note_off_c, 0, 59, 51
1, 636064, Poly_aftertouch_c, 0, 59, 0
1, 636085, Note_off_c, 0, 62, 59
1, 636193, Note_on_c, 0, 64, 80
1, 636199, Note_on_c, 0, 61, 64
1, 636217, Note_on_c, 0, 59, 65
1, 636219, Note_on_c, 0, 52, 64
1, 636254, Control_c, 0, 64, 104
1, 636271, Control_c, 0, 64, 85
1, 636291, Control_c, 0, 64, 69
1, 636309, Control_c, 0, 64, 61
1, 636328, Control_c, 0, 64, 59
1, 636346, Control_c, 0, 64, 60
1, 636365, Control_c, 0, 64, 62
1, 636384, Control_c, 0, 64, 67
1, 636402, Control_c, 0, 64, 74
1, 636422, Control_c, 0, 64, 82
1, 636440, Control_c, 0, 64, 92
1, 636459, Control_c, 0, 64, 104
1, 636477, Control_c, 0, 64, 116
1, 636496, Control_c, 0, 64, 127
1, 636498, Note_off_c, 0, 52, 35
1, 636531, Note_off_c, 0, 64, 38
1, 636531, Poly_aftertouch_c, 0, 64, 0
1, 636553, Poly_aftertouch_c, 0, 59, 24
1, 636597, Note_off_c, 0, 59, 41
1, 636597, Poly_aftertouch_c, 0, 59, 0
1, 636620, Note_off_c, 0, 35, 33
1, 636646, Note_off_c, 0, 61, 54
1, 636646, Poly_aftertouch_c, 0, 61, 0
1, 636722, Note_off_c, 0, 47, 38
1, 636722, Poly_aftertouch_c, 0, 47, 0
1, 636986, Note_on_c, 0, 66, 79
1, 636995, Note_on_c, 0, 54, 65
1, 636998, Note_on_c, 0, 62, 52
1, 636999, Note_on_c, 0, 59, 67
1, 637036, Note_off_c, 0, 62, 54
1, 637080, Note_off_c, 0, 54, 61
1, 637124, Note_off_c, 0, 66, 62
1, 637163, Note_off_c, 0, 59, 42
1, 637163, Poly_aftertouch_c, 0, 59, 0
1, 637250, Note_on_c, 0, 67, 84
1, 637260, Note_on_c, 0, 59, 48
1, 637264, Note_on_c, 0, 64, 72
1, 637266, Note_on_c, 0, 55, 72
1, 637277, Note_on_c, 0, 40, 68
1, 637319, Control_c, 0, 64, 117
1, 637338, Control_c, 0, 64, 96
1, 637356, Control_c, 0, 64, 74
1, 637375, Control_c, 0, 64, 53
1, 637393, Control_c, 0, 64, 13
1, 637412, Control_c, 0, 64, 0
1, 637506, Control_c, 0, 64, 28
1, 637525, Control_c, 0, 64, 45
1, 637543, Control_c, 0, 64, 60
1, 637561, Control_c, 0, 64, 71
1, 637581, Control_c, 0, 64, 78
1, 637599, Control_c, 0, 64, 85
1, 637617, Control_c, 0, 64, 92
1, 637637, Control_c, 0, 64, 100
1, 637655, Control_c, 0, 64, 107
1, 637674, Control_c, 0, 64, 113
1, 637692, Control_c, 0, 64, 117
1, 637730, Control_c, 0, 64, 123
1, 637750, Note_off_c, 0, 40, 26
1, 637767, Control_c, 0, 64, 127
1, 638008, Note_on_c, 0, 40, 79
1, 638119, Note_off_c, 0, 40, 55
1, 638257, Note_on_c, 0, 43, 84
1, 638272, Control_c, 0, 64, 121
1, 638291, Control_c, 0, 64, 109
1, 638309, Control_c, 0, 64, 90
1, 638330, Control_c, 0, 64, 69
1, 638346, Control_c, 0, 64, 48
1, 638384, Control_c, 0, 64, 0
1, 638460, Control_c, 0, 64, 20
1, 638478, Control_c, 0, 64, 35
1, 638496, Control_c, 0, 64, 46
1, 638516, Control_c, 0, 64, 56
1, 638534, Control_c, 0, 64, 67
1, 638553, Control_c, 0, 64, 74
1, 638571, Control_c, 0, 64, 79
1, 638591, Control_c, 0, 64, 83
1, 638609, Control_c, 0, 64, 87
1, 638627, Control_c, 0, 64, 92
1, 638646, Control_c, 0, 64, 98
1, 638665, Control_c, 0, 64, 104
1, 638684, Control_c, 0, 64, 110
1, 638703, Control_c, 0, 64, 114
1, 638740, Control_c, 0, 64, 120
1, 638777, Control_c, 0, 64, 126
1, 638815, Note_off_c, 0, 43, 23
1, 638815, Poly_aftertouch_c, 0, 43, 0
1, 639017, Note_on_c, 0, 47, 79
1, 639129, Poly_aftertouch_c, 0, 44, 127
1, 639147, Poly_aftertouch_c, 0, 44, 0
1, 639257, Note_on_c, 0, 52, 85
1, 639319, Control_c, 0, 64, 104
1, 639340, Control_c, 0, 64, 79
1, 639356, Control_c, 0, 64, 54
1, 639369, Note_off_c, 0, 47, 33
1, 639369, Poly_aftertouch_c, 0, 47, 0
1, 639375, Control_c, 0, 64, 18
1, 639394, Control_c, 0, 64, 0
1, 639506, Control_c, 0, 64, 21
1, 639525, Control_c, 0, 64, 38
1, 639544, Control_c, 0, 64, 52
1, 639563, Control_c, 0, 64, 64
1, 639581, Control_c, 0, 64, 72
1, 639599, Control_c, 0, 64, 76
1, 639618, Control_c, 0, 64, 78
1, 639657, Control_c, 0, 64, 81
1, 639674, Control_c, 0, 64, 83
1, 639693, Control_c, 0, 64, 88
1, 639712, Control_c, 0, 64, 96
1, 639731, Control_c, 0, 64, 106
1, 639749, Control_c, 0, 64, 117
1, 639768, Control_c, 0, 64, 127
1, 640018, Note_off_c, 0, 55, 32
1, 640018, Poly_aftertouch_c, 0, 55, 0
1, 640039, Note_off_c, 0, 67, 31
1, 640054, Note_off_c, 0, 59, 40
1, 640054, Poly_aftertouch_c, 0, 59, 0
1, 640058, Note_off_c, 0, 64, 31
1, 640058, Poly_aftertouch_c, 0, 64, 0
1, 640078, Note_off_c, 0, 52, 22
1, 640294, Note_on_c, 0, 67, 85
1, 640302, Note_on_c, 0, 55, 80
1, 640305, Note_on_c, 0, 64, 77
1, 640309, Note_on_c, 0, 59, 69
1, 640314, Note_on_c, 0, 52, 82
1, 640321, Note_on_c, 0, 43, 75
1, 640349, Control_c, 0, 64, 100
1, 640366, Control_c, 0, 64, 70
1, 640385, Control_c, 0, 64, 46
1, 640405, Control_c, 0, 64, 13
1, 640422, Control_c, 0, 64, 0
1, 640460, Control_c, 0, 64, 22
1, 640479, Control_c, 0, 64, 42
1, 640497, Control_c, 0, 64, 60
1, 640517, Control_c, 0, 64, 73
1, 640535, Control_c, 0, 64, 83
1, 640554, Control_c, 0, 64, 97
1, 640572, Control_c, 0, 64, 120
1, 640591, Control_c, 0, 64, 127
1, 640706, Note_off_c, 0, 55, 35
1, 640706, Poly_aftertouch_c, 0, 55, 0
1, 640758, Note_off_c, 0, 59, 42
1, 640758, Poly_aftertouch_c, 0, 59, 0
1, 640799, Note_off_c, 0, 52, 26
1, 640803, Note_off_c, 0, 67, 34
1, 640835, Note_off_c, 0, 64, 33
1, 640835, Poly_aftertouch_c, 0, 64, 0
1, 640865, Note_off_c, 0, 43, 25
1, 640865, Poly_aftertouch_c, 0, 43, 0
1, 641100, Note_on_c, 0, 67, 85
1, 641100, Note_on_c, 0, 52, 80
1, 641109, Note_on_c, 0, 43, 73
1, 641113, Note_on_c, 0, 64, 73
1, 641115, Note_on_c, 0, 55, 79
1, 641124, Note_on_c, 0, 59, 72
1, 641139, Note_on_c, 0, 65, 51
1, 641140, Note_off_c, 0, 65, 127
1, 641148, Note_off_c, 0, 43, 64
1, 641148, Poly_aftertouch_c, 0, 43, 0
1, 641153, Note_on_c, 0, 58, 19
1, 641182, Note_off_c, 0, 52, 56
1, 641191, Note_off_c, 0, 67, 60
1, 641237, Note_off_c, 0, 55, 58
1, 641237, Poly_aftertouch_c, 0, 55, 0
1, 641265, Note_off_c, 0, 58, 22
1, 641312, Note_off_c, 0, 59, 41
1, 641312, Poly_aftertouch_c, 0, 59, 0
1, 641345, Note_on_c, 0, 66, 91
1, 641355, Note_on_c, 0, 57, 81
1, 641363, Note_on_c, 0, 54, 87
1, 641367, Note_on_c, 0, 50, 74
1, 641369, Note_on_c, 0, 62, 70
1, 641376, Note_on_c, 0, 45, 74
1, 641409, Note_off_c, 0, 64, 60
1, 641409, Poly_aftertouch_c, 0, 64, 0
1, 641414, Control_c, 0, 64, 95
1, 641432, Control_c, 0, 64, 67
1, 641452, Poly_aftertouch_c, 0, 59, 0
1, 641452, Control_c, 0, 64, 36
1, 641470, Control_c, 0, 64, 0
1, 641676, Control_c, 0, 64, 23
1, 641694, Control_c, 0, 64, 42
1, 641713, Control_c, 0, 64, 55
1, 641731, Control_c, 0, 64, 65
1, 641751, Control_c, 0, 64, 71
1, 641770, Control_c, 0, 64, 75
1, 641787, Control_c, 0, 64, 80
1, 641807, Control_c, 0, 64, 85
1, 641825, Control_c, 0, 64, 92
1, 641843, Control_c, 0, 64, 99
1, 641862, Control_c, 0, 64, 107
1, 641881, Control_c, 0, 64, 113
1, 641899, Control_c, 0, 64, 119
1, 641918, Control_c, 0, 64, 124
1, 642183, Note_off_c, 0, 66, 32
1, 642204, Note_off_c, 0, 62, 28
1, 642208, Note_off_c, 0, 54, 48
1, 642236, Note_off_c, 0, 45, 34
1, 642237, Note_off_c, 0, 57, 49
1, 642237, Poly_aftertouch_c, 0, 57, 0
1, 642243, Note_off_c, 0, 50, 49
1, 642386, Control_c, 0, 64, 107
1, 642396, Note_on_c, 0, 66, 89
1, 642405, Control_c, 0, 64, 81
1, 642410, Note_on_c, 0, 57, 88
1, 642415, Note_on_c, 0, 62, 75
1, 642416, Note_on_c, 0, 54, 82
1, 642421, Note_on_c, 0, 50, 72
1, 642424, Control_c, 0, 64, 54
1, 642429, Note_on_c, 0, 45, 70
1, 642441, Control_c, 0, 64, 0
1, 642535, Control_c, 0, 64, 16
1, 642555, Control_c, 0, 64, 40
1, 642572, Control_c, 0, 64, 56
1, 642592, Control_c, 0, 64, 70
1, 642610, Control_c, 0, 64, 78
1, 642629, Control_c, 0, 64, 83
1, 642647, Control_c, 0, 64, 90
1, 642666, Control_c, 0, 64, 99
1, 642685, Control_c, 0, 64, 110
1, 642704, Control_c, 0, 64, 122
1, 642722, Control_c, 0, 64, 127
1, 642736, Note_off_c, 0, 57, 34
1, 642736, Poly_aftertouch_c, 0, 57, 0
1, 642793, Note_off_c, 0, 54, 35
1, 642801, Note_off_c, 0, 66, 36
1, 642843, Note_off_c, 0, 45, 33
1, 642900, Note_off_c, 0, 50, 37
1, 642901, Note_off_c, 0, 62, 43
1, 643176, Note_on_c, 0, 66, 90
1, 643183, Note_on_c, 0, 62, 78
1, 643188, Note_on_c, 0, 57, 83
1, 643191, Note_on_c, 0, 54, 79
1, 643193, Note_on_c, 0, 50, 76
1, 643211, Note_on_c, 0, 45, 65
1, 643280, Note_off_c, 0, 54, 56
1, 643298, Note_off_c, 0, 45, 51
1, 643308, Note_off_c, 0, 66, 61
1, 643310, Note_off_c, 0, 57, 51
1, 643310, Poly_aftertouch_c, 0, 57, 0
1, 643346, Note_off_c, 0, 50, 50
1, 643376, Note_off_c, 0, 62, 57
1, 643429, Note_on_c, 0, 61, 93
1, 643433, Note_on_c, 0, 64, 90
1, 643434, Note_on_c, 0, 57, 91
1, 643435, Note_on_c, 0, 52, 86
1, 643441, Note_on_c, 0, 49, 83
1, 643444, Note_on_c, 0, 45, 79
1, 643500, Poly_aftertouch_c, 0, 63, 0
1, 643508, Control_c, 0, 64, 110
1, 643526, Control_c, 0, 64, 86
1, 643546, Control_c, 0, 64, 62
1, 643564, Control_c, 0, 64, 36
1, 643582, Control_c, 0, 64, 0
1, 643790, Control_c, 0, 64, 28
1, 643807, Control_c, 0, 64, 43
1, 643826, Control_c, 0, 64, 54
1, 643845, Control_c, 0, 64, 64
1, 643863, Control_c, 0, 64, 71
1, 643881, Control_c, 0, 64, 76
1, 643901, Control_c, 0, 64, 80
1, 643918, Control_c, 0, 64, 85
1, 643938, Control_c, 0, 64, 91
1, 643957, Control_c, 0, 64, 100
1, 643975, Control_c, 0, 64, 110
1, 643995, Control_c, 0, 64, 122
1, 644012, Control_c, 0, 64, 127
1, 644061, Note_off_c, 0, 64, 55
1, 644061, Poly_aftertouch_c, 0, 64, 0
1, 644312, Poly_aftertouch_c, 0, 57, 24
1, 644338, Note_off_c, 0, 45, 36
1, 644379, Note_off_c, 0, 49, 46
1, 644379, Note_off_c, 0, 52, 37
1, 644379, Poly_aftertouch_c, 0, 49, 0
1, 644408, Note_off_c, 0, 57, 28
1, 644408, Poly_aftertouch_c, 0, 57, 0
1, 644436, Note_off_c, 0, 61, 57
1, 644436, Poly_aftertouch_c, 0, 61, 0
1, 644518, Note_on_c, 0, 69, 90
1, 644535, Note_on_c, 0, 64, 77
1, 644536, Note_on_c, 0, 57, 85
1, 644537, Note_on_c, 0, 61, 78
1, 644540, Note_on_c, 0, 52, 73
1, 644549, Note_on_c, 0, 49, 68
1, 644557, Note_on_c, 0, 45, 61
1, 644592, Control_c, 0, 64, 106
1, 644611, Control_c, 0, 64, 82
1, 644631, Control_c, 0, 64, 57
1, 644649, Control_c, 0, 64, 27
1, 644666, Control_c, 0, 64, 0
1, 644760, Control_c, 0, 64, 33
1, 644780, Control_c, 0, 64, 51
1, 644797, Control_c, 0, 64, 66
1, 644817, Control_c, 0, 64, 76
1, 644836, Control_c, 0, 64, 83
1, 644854, Control_c, 0, 64, 92
1, 644856, Control_c, 0, 67, 8
1, 644874, Control_c, 0, 64, 103
1, 644891, Control_c, 0, 64, 115
1, 644910, Control_c, 0, 64, 126
1, 644935, Note_off_c, 0, 45, 37
1, 644944, Note_off_c, 0, 52, 30
1, 644977, Note_off_c, 0, 49, 30
1, 644977, Poly_aftertouch_c, 0, 49, 0
1, 645042, Note_off_c, 0, 69, 39
1, 645042, Poly_aftertouch_c, 0, 69, 0
1, 645090, Note_off_c, 0, 57, 28
1, 645090, Poly_aftertouch_c, 0, 57, 0
1, 645153, Note_off_c, 0, 64, 35
1, 645153, Poly_aftertouch_c, 0, 64, 0
1, 645184, Note_off_c, 0, 61, 33
1, 645184, Poly_aftertouch_c, 0, 61, 0
1, 645338, Note_on_c, 0, 69, 73
1, 645340, Control_c, 0, 67, 12
1, 645346, Note_on_c, 0, 49, 54
1, 645347, Note_on_c, 0, 61, 58
1, 645355, Note_on_c, 0, 57, 61
1, 645357, Note_on_c, 0, 64, 55
1, 645375, Note_on_c, 0, 45, 25
1, 645383, Note_off_c, 0, 49, 60
1, 645383, Poly_aftertouch_c, 0, 49, 0
1, 645396, Control_c, 0, 67, 16
1, 645426, Note_off_c, 0, 45, 40
1, 645442, Note_off_c, 0, 61, 34
1, 645442, Poly_aftertouch_c, 0, 61, 0
1, 645451, Control_c, 0, 67, 21
1, 645541, Note_off_c, 0, 57, 33
1, 645541, Poly_aftertouch_c, 0, 57, 0
1, 645599, Note_on_c, 0, 62, 70
1, 645601, Control_c, 0, 64, 121
1, 645602, Control_c, 0, 67, 25
1, 645621, Control_c, 0, 64, 108
1, 645638, Note_on_c, 0, 50, 40
1, 645638, Control_c, 0, 64, 92
1, 645643, Note_on_c, 0, 38, 46
1, 645658, Control_c, 0, 64, 76
1, 645677, Control_c, 0, 64, 60
1, 645696, Control_c, 0, 64, 45
1, 645696, Control_c, 0, 67, 30
1, 645714, Control_c, 0, 64, 19
1, 645723, Note_off_c, 0, 64, 36
1, 645723, Poly_aftertouch_c, 0, 64, 0
1, 645731, Control_c, 0, 64, 0
1, 645733, Control_c, 0, 67, 34
1, 645746, Note_off_c, 0, 69, 56
1, 645746, Poly_aftertouch_c, 0, 69, 0
1, 645772, Control_c, 0, 67, 41
1, 645808, Control_c, 0, 67, 48
1, 645846, Control_c, 0, 67, 54
1, 645901, Control_c, 0, 67, 59
1, 645938, Control_c, 0, 67, 64
1, 645976, Control_c, 0, 67, 68
1, 646013, Note_off_c, 0, 62, 53
1, 646047, Note_off_c, 0, 38, 37
1, 646051, Control_c, 0, 67, 72
1, 646067, Note_off_c, 0, 50, 34
1, 646107, Control_c, 0, 67, 76
1, 646181, Control_c, 0, 67, 80
1, 646238, Control_c, 0, 67, 84
1, 646331, Control_c, 0, 67, 88
1, 646388, Control_c, 0, 67, 92
1, 646443, Control_c, 0, 67, 96
1, 646675, Note_on_c, 0, 62, 46
1, 646696, Note_on_c, 0, 50, 24
1, 646696, Note_on_c, 0, 38, 34
1, 646986, Control_c, 0, 64, 8
1, 647026, Note_off_c, 0, 62, 51
1, 647077, Note_off_c, 0, 50, 36
1, 647078, Note_off_c, 0, 38, 35
1, 647173, Control_c, 0, 67, 101
1, 647210, Control_c, 0, 67, 109
1, 647248, Control_c, 0, 67, 113
1, 647304, Control_c, 0, 67, 118
1, 647359, Control_c, 0, 67, 122
1, 647435, Control_c, 0, 67, 126
1, 647791, Note_on_c, 0, 62, 33
1, 647822, Note_on_c, 0, 38, 18
1, 647824, Note_on_c, 0, 50, 13
1, 647939, Control_c, 0, 64, 17
1, 647958, Control_c, 0, 64, 24
1, 647977, Control_c, 0, 64, 33
1, 647996, Control_c, 0, 64, 43
1, 648013, Control_c, 0, 64, 52
1, 648033, Control_c, 0, 64, 58
1, 648051, Control_c, 0, 64, 63
1, 648071, Control_c, 0, 64, 66
1, 648088, Control_c, 0, 64, 69
1, 648126, Control_c, 0, 64, 72
1, 648163, Control_c, 0, 64, 75
1, 648183, Control_c, 0, 64, 77
1, 648201, Control_c, 0, 64, 79
1, 648203, Note_off_c, 0, 50, 40
1, 648213, Note_off_c, 0, 38, 41
1, 648216, Note_off_c, 0, 62, 48
1, 648218, Control_c, 0, 64, 82
1, 648239, Control_c, 0, 64, 85
1, 648258, Control_c, 0, 64, 87
1, 648425, Control_c, 0, 64, 84
1, 648444, Control_c, 0, 64, 81
1, 648463, Control_c, 0, 64, 78
1, 648481, Control_c, 0, 64, 74
1, 648500, Control_c, 0, 64, 71
1, 648519, Control_c, 0, 64, 69
1, 648538, Control_c, 0, 64, 67
1, 648556, Control_c, 0, 64, 66
1, 648575, Control_c, 0, 64, 65
1, 648612, Control_c, 0, 64, 63
1, 648631, Control_c, 0, 64, 62
1, 648668, Control_c, 0, 64, 61
1, 648761, Control_c, 0, 64, 62
1, 648781, Control_c, 0, 64, 64
1, 648799, Control_c, 0, 64, 65
1, 648818, Control_c, 0, 64, 67
1, 648856, Control_c, 0, 64, 70
1, 648874, Control_c, 0, 64, 73
1, 648911, Control_c, 0, 64, 76
1, 648949, Control_c, 0, 64, 79
1, 648968, Control_c, 0, 64, 81
1, 648986, Control_c, 0, 64, 83
1, 649006, Control_c, 0, 64, 85
1, 649043, Control_c, 0, 64, 87
1, 649380, Control_c, 0, 64, 91
1, 649407, Note_on_c, 0, 71, 30
1, 649429, Note_on_c, 0, 56, 29
1, 649431, Note_on_c, 0, 65, 27
1, 649439, Note_on_c, 0, 50, 29
1, 649454, Control_c, 0, 64, 96
1, 649491, Control_c, 0, 64, 100
1, 649528, Control_c, 0, 64, 106
1, 649548, Control_c, 0, 64, 110
1, 649566, Control_c, 0, 64, 114
1, 649603, Control_c, 0, 64, 121
1, 649640, Control_c, 0, 64, 126
1, 649792, Note_off_c, 0, 65, 35
1, 649803, Note_off_c, 0, 56, 26
1, 649827, Note_off_c, 0, 50, 23
1, 649847, Note_off_c, 0, 71, 31
1, 650270, Note_on_c, 0, 71, 46
1, 650309, Note_on_c, 0, 65, 36
1, 650314, Note_on_c, 0, 50, 33
1, 650326, Note_on_c, 0, 56, 27
1, 650415, Note_off_c, 0, 50, 49
1, 650416, Note_off_c, 0, 56, 45
1, 650416, Note_off_c, 0, 71, 52
1, 650433, Note_off_c, 0, 65, 40
1, 650567, Note_on_c, 0, 71, 63
1, 650595, Note_on_c, 0, 65, 45
1, 650602, Note_on_c, 0, 56, 36
1, 650608, Note_on_c, 0, 50, 34
1, 650877, Control_c, 0, 64, 122
1, 650912, Control_c, 0, 64, 115
1, 650950, Control_c, 0, 64, 111
1, 651061, Note_off_c, 0, 50, 32
1, 651174, Control_c, 0, 64, 115
1, 651212, Control_c, 0, 64, 120
1, 651249, Control_c, 0, 64, 126
1, 651648, Note_on_c, 0, 50, 33
1, 651964, Note_off_c, 0, 50, 33
1, 652175, Note_off_c, 0, 71, 32
1, 652189, Note_off_c, 0, 65, 34
1, 652590, Poly_aftertouch_c, 0, 56, 24
1, 652722, Note_on_c, 0, 70, 53
1, 652748, Note_on_c, 0, 58, 34
1, 652755, Note_on_c, 0, 65, 39
1, 652756, Note_on_c, 0, 50, 36
1, 652782, Control_c, 0, 64, 121
1, 652801, Control_c, 0, 64, 116
1, 652819, Control_c, 0, 64, 109
1, 652839, Control_c, 0, 64, 102
1, 652852, Poly_aftertouch_c, 0, 56, 22
1, 652856, Control_c, 0, 64, 95
1, 652876, Control_c, 0, 64, 86
1, 652895, Control_c, 0, 64, 78
1, 652909, Note_off_c, 0, 56, 19
1, 652909, Poly_aftertouch_c, 0, 56, 0
1, 652912, Control_c, 0, 64, 72
1, 652932, Control_c, 0, 64, 68
1, 652951, Control_c, 0, 64, 67
1, 653025, Control_c, 0, 64, 69
1, 653044, Control_c, 0, 64, 71
1, 653062, Control_c, 0, 64, 73
1, 653082, Control_c, 0, 64, 75
1, 653100, Control_c, 0, 64, 78
1, 653118, Control_c, 0, 64, 80
1, 653138, Control_c, 0, 64, 83
1, 653156, Control_c, 0, 64, 87
1, 653175, Control_c, 0, 64, 92
1, 653181, Note_off_c, 0, 50, 31
1, 653193, Control_c, 0, 64, 97
1, 653212, Control_c, 0, 64, 103
1, 653232, Control_c, 0, 64, 109
1, 653249, Control_c, 0, 64, 115
1, 653268, Control_c, 0, 64, 121
1, 653287, Control_c, 0, 64, 126
1, 653541, Note_off_c, 0, 65, 35
1, 653773, Control_c, 0, 64, 121
1, 653792, Control_c, 0, 64, 116
1, 653796, Note_on_c, 0, 68, 51
1, 653811, Control_c, 0, 64, 111
1, 653829, Control_c, 0, 64, 106
1, 653831, Note_on_c, 0, 59, 32
1, 653846, Note_on_c, 0, 65, 37
1, 653848, Control_c, 0, 64, 100
1, 653855, Note_on_c, 0, 50, 29
1, 653855, Poly_aftertouch_c, 0, 58, 24
1, 653866, Control_c, 0, 64, 94
1, 653886, Control_c, 0, 64, 88
1, 653904, Control_c, 0, 64, 80
1, 653922, Note_off_c, 0, 58, 35
1, 653922, Poly_aftertouch_c, 0, 58, 0
1, 653922, Control_c, 0, 64, 73
1, 653941, Control_c, 0, 64, 67
1, 653960, Control_c, 0, 64, 62
1, 653979, Control_c, 0, 64, 59
1, 654000, Note_off_c, 0, 70, 36
1, 654073, Control_c, 0, 64, 60
1, 654091, Control_c, 0, 64, 63
1, 654111, Control_c, 0, 64, 66
1, 654129, Control_c, 0, 64, 69
1, 654148, Control_c, 0, 64, 72
1, 654166, Control_c, 0, 64, 74
1, 654184, Control_c, 0, 64, 77
1, 654203, Control_c, 0, 64, 81
1, 654222, Control_c, 0, 64, 85
1, 654235, Note_off_c, 0, 65, 55
1, 654242, Control_c, 0, 64, 90
1, 654259, Control_c, 0, 64, 96
1, 654278, Control_c, 0, 64, 102
1, 654286, Note_off_c, 0, 50, 37
1, 654298, Control_c, 0, 64, 108
1, 654316, Control_c, 0, 64, 115
1, 654336, Control_c, 0, 64, 121
1, 654353, Control_c, 0, 64, 127
1, 654580, Note_off_c, 0, 68, 41
1, 654709, Note_off_c, 0, 59, 21
1, 654876, Control_c, 0, 64, 123
1, 654887, Note_on_c, 0, 67, 41
1, 654895, Control_c, 0, 64, 119
1, 654901, Note_on_c, 0, 63, 42
1, 654913, Control_c, 0, 64, 114
1, 654919, Note_on_c, 0, 51, 32
1, 654930, Note_on_c, 0, 58, 34
1, 654930, Control_c, 0, 64, 107
1, 654951, Control_c, 0, 64, 101
1, 654970, Control_c, 0, 64, 94
1, 654990, Control_c, 0, 64, 85
1, 655007, Control_c, 0, 64, 75
1, 655025, Control_c, 0, 64, 64
1, 655045, Control_c, 0, 64, 54
1, 655062, Control_c, 0, 64, 44
1, 655082, Control_c, 0, 64, 32
1, 655100, Control_c, 0, 64, 22
1, 655157, Control_c, 0, 64, 28
1, 655175, Control_c, 0, 64, 35
1, 655194, Control_c, 0, 64, 44
1, 655212, Control_c, 0, 64, 55
1, 655232, Control_c, 0, 64, 65
1, 655250, Control_c, 0, 64, 73
1, 655252, Note_off_c, 0, 58, 34
1, 655252, Poly_aftertouch_c, 0, 58, 0
1, 655269, Control_c, 0, 64, 79
1, 655288, Control_c, 0, 64, 84
1, 655307, Control_c, 0, 64, 89
1, 655325, Control_c, 0, 64, 96
1, 655344, Control_c, 0, 64, 102
1, 655345, Note_off_c, 0, 67, 39
1, 655357, Note_off_c, 0, 51, 30
1, 655357, Poly_aftertouch_c, 0, 51, 0
1, 655361, Control_c, 0, 64, 108
1, 655382, Control_c, 0, 64, 112
1, 655410, Note_off_c, 0, 63, 38
1, 655417, Control_c, 0, 64, 117
1, 655625, Control_c, 0, 64, 113
1, 655718, Control_c, 0, 64, 108
1, 655792, Control_c, 0, 64, 104
1, 655830, Control_c, 0, 64, 99
1, 655849, Control_c, 0, 64, 93
1, 655867, Control_c, 0, 64, 83
1, 655886, Control_c, 0, 64, 73
1, 655905, Control_c, 0, 64, 65
1, 655907, Note_on_c, 0, 71, 81
1, 655924, Control_c, 0, 64, 63
1, 655935, Note_on_c, 0, 65, 57
1, 655936, Note_on_c, 0, 50, 47
1, 655940, Note_on_c, 0, 56, 49
1, 655961, Control_c, 0, 64, 66
1, 655980, Control_c, 0, 64, 71
1, 655981, Control_c, 0, 67, 120
1, 655998, Control_c, 0, 64, 77
1, 655999, Control_c, 0, 67, 114
1, 656017, Control_c, 0, 64, 85
1, 656020, Control_c, 0, 67, 107
1, 656036, Control_c, 0, 64, 93
1, 656038, Control_c, 0, 67, 99
1, 656055, Control_c, 0, 64, 102
1, 656056, Control_c, 0, 67, 92
1, 656073, Control_c, 0, 64, 107
1, 656074, Control_c, 0, 67, 85
1, 656078, Note_off_c, 0, 50, 52
1, 656081, Note_off_c, 0, 65, 30
1, 656091, Control_c, 0, 67, 81
1, 656095, Note_off_c, 0, 71, 53
1, 656111, Control_c, 0, 64, 113
1, 656124, Note_off_c, 0, 56, 37
1, 656124, Poly_aftertouch_c, 0, 56, 0
1, 656129, Control_c, 0, 67, 75
1, 656207, Note_on_c, 0, 71, 81
1, 656232, Note_on_c, 0, 65, 63
1, 656252, Note_on_c, 0, 50, 50
1, 656252, Note_on_c, 0, 56, 57
1, 656279, Control_c, 0, 64, 109
1, 656316, Control_c, 0, 64, 102
1, 656335, Control_c, 0, 64, 96
1, 656354, Control_c, 0, 64, 90
1, 656372, Control_c, 0, 64, 81
1, 656393, Control_c, 0, 64, 74
1, 656409, Control_c, 0, 64, 69
1, 656411, Control_c, 0, 67, 79
1, 656428, Control_c, 0, 64, 65
1, 656448, Control_c, 0, 64, 62
1, 656466, Control_c, 0, 64, 60
1, 656467, Control_c, 0, 67, 84
1, 656484, Control_c, 0, 64, 58
1, 656503, Control_c, 0, 67, 90
1, 656522, Control_c, 0, 67, 95
1, 656540, Control_c, 0, 67, 99
1, 656559, Control_c, 0, 67, 103
1, 656578, Control_c, 0, 64, 60
1, 656597, Control_c, 0, 64, 61
1, 656598, Control_c, 0, 67, 108
1, 656615, Control_c, 0, 64, 63
1, 656634, Control_c, 0, 64, 66
1, 656653, Control_c, 0, 64, 68
1, 656654, Control_c, 0, 67, 113
1, 656690, Control_c, 0, 64, 71
1, 656691, Control_c, 0, 67, 117
1, 656709, Control_c, 0, 64, 73
1, 656746, Control_c, 0, 64, 77
1, 656747, Control_c, 0, 67, 121
1, 656765, Control_c, 0, 64, 79
1, 656783, Control_c, 0, 64, 82
1, 656802, Control_c, 0, 64, 86
1, 656805, Control_c, 0, 67, 125
1, 656822, Control_c, 0, 64, 91
1, 656840, Control_c, 0, 64, 97
1, 656859, Control_c, 0, 64, 101
1, 656877, Control_c, 0, 64, 106
1, 656914, Control_c, 0, 64, 113
1, 656951, Control_c, 0, 64, 119
1, 657084, Note_off_c, 0, 50, 36
1, 657213, Control_c, 0, 64, 114
1, 657253, Note_on_c, 0, 50, 53
1, 657270, Control_c, 0, 64, 107
1, 657288, Control_c, 0, 64, 102
1, 657308, Control_c, 0, 64, 93
1, 657327, Control_c, 0, 64, 83
1, 657344, Control_c, 0, 64, 74
1, 657363, Control_c, 0, 64, 69
1, 657419, Control_c, 0, 64, 72
1, 657437, Control_c, 0, 64, 75
1, 657457, Control_c, 0, 64, 78
1, 657475, Control_c, 0, 64, 83
1, 657494, Control_c, 0, 64, 88
1, 657513, Control_c, 0, 64, 92
1, 657549, Control_c, 0, 64, 98
1, 657587, Control_c, 0, 64, 105
1, 657624, Control_c, 0, 64, 112
1, 657662, Control_c, 0, 64, 118
1, 657700, Control_c, 0, 64, 123
1, 657730, Note_off_c, 0, 50, 22
1, 657738, Control_c, 0, 64, 127
1, 658095, Note_off_c, 0, 65, 26
1, 658317, Control_c, 0, 64, 123
1, 658353, Note_on_c, 0, 70, 59
1, 658374, Control_c, 0, 64, 117
1, 658386, Note_on_c, 0, 58, 38
1, 658392, Control_c, 0, 64, 113
1, 658396, Note_on_c, 0, 65, 44
1, 658396, Note_on_c, 0, 50, 41
1, 658411, Control_c, 0, 64, 107
1, 658429, Control_c, 0, 64, 100
1, 658447, Control_c, 0, 64, 92
1, 658467, Control_c, 0, 64, 83
1, 658486, Control_c, 0, 64, 73
1, 658495, Note_off_c, 0, 56, 38
1, 658495, Poly_aftertouch_c, 0, 56, 0
1, 658503, Control_c, 0, 64, 65
1, 658523, Control_c, 0, 64, 60
1, 658541, Control_c, 0, 64, 55
1, 658560, Control_c, 0, 64, 51
1, 658633, Note_off_c, 0, 71, 30
1, 658635, Control_c, 0, 64, 55
1, 658653, Control_c, 0, 64, 59
1, 658672, Control_c, 0, 64, 63
1, 658690, Control_c, 0, 64, 67
1, 658710, Control_c, 0, 64, 69
1, 658728, Control_c, 0, 64, 72
1, 658747, Control_c, 0, 64, 75
1, 658765, Control_c, 0, 64, 79
1, 658785, Control_c, 0, 64, 84
1, 658805, Control_c, 0, 64, 89
1, 658810, Note_off_c, 0, 50, 29
1, 658821, Control_c, 0, 64, 95
1, 658841, Control_c, 0, 64, 102
1, 658843, Control_c, 0, 67, 121
1, 658860, Control_c, 0, 64, 109
1, 658861, Control_c, 0, 67, 117
1, 658879, Control_c, 0, 64, 116
1, 658879, Control_c, 0, 67, 113
1, 658897, Control_c, 0, 64, 121
1, 658899, Control_c, 0, 67, 109
1, 658916, Control_c, 0, 67, 105
1, 658934, Control_c, 0, 64, 127
1, 658936, Control_c, 0, 67, 100
1, 658952, Control_c, 0, 67, 94
1, 658971, Control_c, 0, 67, 88
1, 658990, Control_c, 0, 67, 83
1, 659009, Control_c, 0, 67, 78
1, 659027, Control_c, 0, 67, 74
1, 659040, Note_off_c, 0, 65, 31
1, 659046, Control_c, 0, 67, 70
1, 659083, Control_c, 0, 67, 63
1, 659121, Control_c, 0, 67, 58
1, 659157, Control_c, 0, 67, 52
1, 659178, Control_c, 0, 67, 47
1, 659191, Note_on_c, 0, 68, 64
1, 659197, Control_c, 0, 67, 42
1, 659200, Note_on_c, 0, 65, 55
1, 659210, Note_on_c, 0, 59, 52
1, 659215, Control_c, 0, 67, 36
1, 659221, Note_on_c, 0, 50, 40
1, 659233, Control_c, 0, 67, 28
1, 659251, Control_c, 0, 67, 19
1, 659268, Note_off_c, 0, 50, 52
1, 659269, Control_c, 0, 67, 10
1, 659305, Note_off_c, 0, 58, 37
1, 659305, Poly_aftertouch_c, 0, 58, 0
1, 659310, Note_off_c, 0, 65, 47
1, 659364, Control_c, 0, 67, 0
1, 659428, Note_off_c, 0, 70, 34
1, 659505, Poly_aftertouch_c, 0, 59, 20
1, 659511, Note_on_c, 0, 67, 82
1, 659519, Note_on_c, 0, 63, 82
1, 659522, Note_on_c, 0, 58, 82
1, 659530, Note_on_c, 0, 51, 77
1, 659532, Control_c, 0, 64, 123
1, 659550, Note_off_c, 0, 59, 32
1, 659550, Poly_aftertouch_c, 0, 59, 0
1, 659552, Control_c, 0, 64, 106
1, 659570, Control_c, 0, 64, 83
1, 659588, Control_c, 0, 64, 59
1, 659608, Control_c, 0, 64, 31
1, 659625, Control_c, 0, 64, 0
1, 659634, Note_off_c, 0, 68, 39
1, 659719, Control_c, 0, 64, 19
1, 659739, Control_c, 0, 64, 41
1, 659757, Control_c, 0, 64, 56
1, 659775, Control_c, 0, 64, 70
1, 659796, Control_c, 0, 64, 78
1, 659813, Control_c, 0, 64, 86
1, 659832, Control_c, 0, 64, 94
1, 659850, Control_c, 0, 64, 104
1, 659868, Control_c, 0, 64, 115
1, 659880, Note_off_c, 0, 67, 50
1, 659882, Note_off_c, 0, 63, 35
1, 659887, Control_c, 0, 64, 124
1, 659909, Note_off_c, 0, 58, 41
1, 659909, Poly_aftertouch_c, 0, 58, 0
1, 660002, Note_off_c, 0, 51, 30
1, 660002, Poly_aftertouch_c, 0, 51, 0
1, 660379, Note_on_c, 0, 71, 97
1, 660386, Note_on_c, 0, 65, 88
1, 660386, Note_on_c, 0, 56, 82
1, 660399, Note_on_c, 0, 50, 72
1, 660494, Note_off_c, 0, 65, 42
1, 660502, Note_off_c, 0, 50, 58
1, 660502, Note_off_c, 0, 56, 55
1, 660502, Poly_aftertouch_c, 0, 56, 0
1, 660527, Note_off_c, 0, 71, 52
1, 660637, Note_on_c, 0, 71, 101
1, 660641, Note_on_c, 0, 56, 85
1, 660643, Note_on_c, 0, 65, 88
1, 660649, Note_on_c, 0, 50, 80
1, 660655, Control_c, 0, 64, 116
1, 660673, Control_c, 0, 64, 87
1, 660692, Control_c, 0, 64, 56
1, 660709, Control_c, 0, 64, 0
1, 660823, Control_c, 0, 64, 26
1, 660840, Control_c, 0, 64, 45
1, 660860, Control_c, 0, 64, 60
1, 660878, Control_c, 0, 64, 71
1, 660897, Control_c, 0, 64, 77
1, 660915, Control_c, 0, 64, 81
1, 660935, Control_c, 0, 64, 86
1, 660954, Control_c, 0, 64, 91
1, 660970, Note_off_c, 0, 50, 37
1, 660971, Control_c, 0, 64, 97
1, 660991, Control_c, 0, 64, 104
1, 661009, Control_c, 0, 64, 110
1, 661029, Control_c, 0, 64, 116
1, 661046, Control_c, 0, 64, 120
1, 661066, Control_c, 0, 64, 124
1, 661073, Note_off_c, 0, 65, 35
1, 661087, Note_off_c, 0, 56, 27
1, 661087, Poly_aftertouch_c, 0, 56, 0
1, 661102, Note_off_c, 0, 71, 36
1, 661433, Note_on_c, 0, 71, 97
1, 661438, Note_on_c, 0, 65, 91
1, 661444, Note_on_c, 0, 56, 83
1, 661452, Note_on_c, 0, 50, 78
1, 661534, Note_off_c, 0, 50, 57
1, 661547, Note_off_c, 0, 65, 52
1, 661547, Note_off_c, 0, 56, 56
1, 661547, Poly_aftertouch_c, 0, 56, 0
1, 661562, Note_off_c, 0, 71, 57
1, 661684, Note_on_c, 0, 71, 103
1, 661687, Note_on_c, 0, 56, 92
1, 661689, Note_on_c, 0, 65, 96
1, 661695, Note_on_c, 0, 50, 84
1, 661739, Control_c, 0, 64, 98
1, 661758, Control_c, 0, 64, 70
1, 661776, Control_c, 0, 64, 43
1, 661794, Control_c, 0, 64, 0
1, 661888, Control_c, 0, 64, 30
1, 661907, Control_c, 0, 64, 49
1, 661925, Control_c, 0, 64, 63
1, 661945, Control_c, 0, 64, 73
1, 661964, Control_c, 0, 64, 79
1, 661981, Control_c, 0, 64, 83
1, 662001, Control_c, 0, 64, 88
1, 662019, Control_c, 0, 64, 93
1, 662038, Control_c, 0, 64, 100
1, 662056, Control_c, 0, 64, 107
1, 662075, Control_c, 0, 64, 113
1, 662094, Control_c, 0, 64, 118
1, 662108, Note_off_c, 0, 56, 33
1, 662108, Poly_aftertouch_c, 0, 56, 0
1, 662111, Control_c, 0, 64, 123
1, 662132, Control_c, 0, 64, 127
1, 662166, Note_off_c, 0, 65, 34
1, 662202, Note_off_c, 0, 71, 44
1, 662260, Poly_aftertouch_c, 0, 50, 20
1, 662269, Note_off_c, 0, 50, 38
1, 662269, Poly_aftertouch_c, 0, 50, 0
1, 662483, Note_on_c, 0, 71, 99
1, 662487, Note_on_c, 0, 56, 83
1, 662491, Note_on_c, 0, 65, 90
1, 662502, Note_on_c, 0, 50, 71
1, 662561, Note_off_c, 0, 50, 55
1, 662561, Poly_aftertouch_c, 0, 50, 0
1, 662623, Note_off_c, 0, 65, 55
1, 662637, Note_off_c, 0, 56, 35
1, 662637, Poly_aftertouch_c, 0, 56, 0
1, 662654, Note_off_c, 0, 71, 56
1, 662740, Note_on_c, 0, 70, 99
1, 662744, Note_on_c, 0, 65, 98
1, 662746, Note_on_c, 0, 58, 96
1, 662754, Note_on_c, 0, 50, 85
1, 662768, Control_c, 0, 64, 119
1, 662785, Control_c, 0, 64, 88
1, 662805, Control_c, 0, 64, 54
1, 662823, Control_c, 0, 64, 0
1, 662954, Control_c, 0, 64, 44
1, 662973, Control_c, 0, 64, 62
1, 662991, Control_c, 0, 64, 74
1, 663010, Control_c, 0, 64, 81
1, 663030, Control_c, 0, 64, 85
1, 663067, Control_c, 0, 64, 92
1, 663105, Control_c, 0, 64, 99
1, 663122, Control_c, 0, 64, 103
1, 663142, Control_c, 0, 64, 108
1, 663144, Note_off_c, 0, 58, 52
1, 663144, Poly_aftertouch_c, 0, 58, 0
1, 663160, Control_c, 0, 64, 112
1, 663178, Control_c, 0, 64, 116
1, 663235, Control_c, 0, 64, 121
1, 663291, Control_c, 0, 64, 127
1, 663321, Note_off_c, 0, 50, 27
1, 663321, Poly_aftertouch_c, 0, 50, 0
1, 663327, Note_off_c, 0, 65, 49
1, 663486, Note_off_c, 0, 70, 56
1, 663530, Note_on_c, 0, 68, 93
1, 663532, Note_on_c, 0, 59, 85
1, 663534, Note_on_c, 0, 65, 87
1, 663543, Note_on_c, 0, 70, 62
1, 663574, Note_off_c, 0, 70, 69
1, 663583, Note_on_c, 0, 50, 44
1, 663595, Note_off_c, 0, 65, 64
1, 663619, Note_off_c, 0, 50, 55
1, 663619, Poly_aftertouch_c, 0, 50, 0
1, 663620, Note_off_c, 0, 59, 59
1, 663620, Poly_aftertouch_c, 0, 59, 0
1, 663757, Note_off_c, 0, 68, 55
1, 663757, Control_c, 0, 64, 117
1, 663777, Control_c, 0, 64, 92
1, 663796, Control_c, 0, 64, 57
1, 663814, Control_c, 0, 64, 0
1, 663824, Note_on_c, 0, 67, 95
1, 663829, Note_on_c, 0, 63, 93
1, 663830, Note_on_c, 0, 58, 98
1, 663833, Note_on_c, 0, 51, 97
1, 663889, Control_c, 0, 67, 16
1, 663907, Control_c, 0, 67, 11
1, 663945, Control_c, 0, 67, 0
1, 663983, Control_c, 0, 64, 51
1, 664000, Control_c, 0, 64, 88
1, 664004, Note_off_c, 0, 63, 59
1, 664017, Note_off_c, 0, 58, 63
1, 664017, Poly_aftertouch_c, 0, 58, 0
1, 664020, Control_c, 0, 64, 123
1, 664022, Note_off_c, 0, 67, 62
1, 664040, Control_c, 0, 64, 127
1, 664105, Note_off_c, 0, 51, 45
1, 664105, Poly_aftertouch_c, 0, 51, 0
1, 664393, Control_c, 0, 64, 118
1, 664413, Control_c, 0, 64, 108
1, 664431, Control_c, 0, 64, 98
1, 664451, Control_c, 0, 64, 87
1, 664468, Control_c, 0, 64, 76
1, 664487, Control_c, 0, 64, 70
1, 664506, Control_c, 0, 64, 67
1, 664525, Control_c, 0, 64, 65
1, 664544, Control_c, 0, 64, 63
1, 664562, Control_c, 0, 64, 61
1, 664581, Control_c, 0, 64, 59
1, 664599, Control_c, 0, 64, 56
1, 664637, Control_c, 0, 64, 54
1, 664955, Control_c, 0, 64, 56
1, 664992, Control_c, 0, 64, 58
1, 665030, Control_c, 0, 64, 60
1, 665041, Note_on_c, 0, 64, 95
1, 665051, Note_on_c, 0, 52, 88
1, 665142, Control_c, 0, 64, 57
1, 665172, Poly_aftertouch_c, 0, 63, 0
1, 665176, Poly_aftertouch_c, 0, 44, 127
1, 665197, Control_c, 0, 64, 55
1, 665272, Control_c, 0, 64, 53
1, 665337, Poly_aftertouch_c, 0, 44, 0
1, 666040, Control_c, 0, 64, 51
1, 666095, Control_c, 0, 64, 48
1, 666114, Control_c, 0, 64, 46
1, 666133, Control_c, 0, 64, 43
1, 666151, Control_c, 0, 64, 39
1, 666170, Control_c, 0, 67, 8
1, 666207, Control_c, 0, 64, 35
1, 666208, Control_c, 0, 67, 12
1, 666264, Control_c, 0, 67, 18
1, 666301, Control_c, 0, 67, 24
1, 666338, Control_c, 0, 67, 30
1, 666395, Control_c, 0, 67, 34
1, 666488, Control_c, 0, 67, 39
1, 666507, Control_c, 0, 64, 39
1, 666543, Control_c, 0, 67, 43
1, 666601, Control_c, 0, 64, 41
1, 666618, Control_c, 0, 67, 48
1, 666694, Control_c, 0, 67, 53
1, 666750, Control_c, 0, 64, 43
1, 666751, Control_c, 0, 67, 59
1, 666788, Control_c, 0, 67, 63
1, 666824, Control_c, 0, 67, 67
1, 666862, Control_c, 0, 67, 71
1, 666900, Control_c, 0, 67, 76
1, 666938, Control_c, 0, 64, 45
1, 666938, Control_c, 0, 67, 82
1, 666974, Control_c, 0, 67, 89
1, 667011, Control_c, 0, 67, 96
1, 667030, Control_c, 0, 67, 100
1, 667049, Control_c, 0, 67, 104
1, 667068, Control_c, 0, 67, 108
1, 667086, Control_c, 0, 64, 47
1, 667105, Control_c, 0, 67, 113
1, 667180, Control_c, 0, 67, 117
1, 667198, Control_c, 0, 64, 49
1, 667254, Control_c, 0, 64, 51
1, 667274, Control_c, 0, 67, 121
1, 667337, Note_on_c, 0, 63, 43
1, 667347, Note_on_c, 0, 51, 42
1, 667488, Note_off_c, 0, 52, 54
1, 667497, Control_c, 0, 64, 53
1, 667513, Note_off_c, 0, 64, 56
1, 667513, Poly_aftertouch_c, 0, 64, 0
1, 667516, Control_c, 0, 64, 58
1, 667517, Control_c, 0, 67, 116
1, 667535, Control_c, 0, 64, 65
1, 667555, Control_c, 0, 64, 71
1, 667573, Control_c, 0, 64, 76
1, 667574, Control_c, 0, 67, 109
1, 667591, Control_c, 0, 64, 80
1, 667592, Control_c, 0, 67, 103
1, 667610, Control_c, 0, 64, 83
1, 667610, Control_c, 0, 67, 94
1, 667624, Note_on_c, 0, 61, 61
1, 667628, Control_c, 0, 67, 84
1, 667643, Note_on_c, 0, 49, 55
1, 667648, Control_c, 0, 67, 73
1, 667666, Control_c, 0, 67, 63
1, 667685, Control_c, 0, 67, 54
1, 667704, Control_c, 0, 67, 45
1, 667708, Note_off_c, 0, 51, 57
1, 667708, Poly_aftertouch_c, 0, 51, 0
1, 667723, Control_c, 0, 67, 37
1, 667741, Control_c, 0, 67, 28
1, 667760, Control_c, 0, 67, 20
1, 667778, Control_c, 0, 67, 11
1, 667798, Control_c, 0, 64, 85
1, 667834, Control_c, 0, 64, 89
1, 667853, Control_c, 0, 64, 94
1, 667856, Note_off_c, 0, 49, 59
1, 667856, Poly_aftertouch_c, 0, 49, 0
1, 667873, Control_c, 0, 64, 101
1, 667884, Note_on_c, 0, 59, 70
1, 667888, Note_on_c, 0, 47, 61
1, 667891, Control_c, 0, 64, 111
1, 667892, Note_off_c, 0, 63, 59
1, 667892, Control_c, 0, 67, 0
1, 667909, Control_c, 0, 64, 122
1, 667928, Control_c, 0, 64, 127
1, 667964, Note_off_c, 0, 61, 61
1, 667964, Poly_aftertouch_c, 0, 61, 0
1, 668077, Note_off_c, 0, 47, 47
1, 668077, Poly_aftertouch_c, 0, 47, 0
1, 668142, Note_on_c, 0, 46, 73
1, 668146, Note_on_c, 0, 58, 80
1, 668244, Note_off_c, 0, 46, 59
1, 668244, Poly_aftertouch_c, 0, 46, 0
1, 668256, Note_off_c, 0, 59, 57
1, 668256, Poly_aftertouch_c, 0, 59, 0
1, 668493, Note_on_c, 0, 56, 78
1, 668512, Note_on_c, 0, 44, 74
1, 668517, Note_on_c, 0, 32, 76
1, 668563, Control_c, 0, 67, 9
1, 668602, Control_c, 0, 64, 116
1, 668603, Control_c, 0, 67, 14
1, 668616, Note_off_c, 0, 58, 38
1, 668616, Poly_aftertouch_c, 0, 58, 0
1, 668619, Control_c, 0, 64, 101
1, 668639, Control_c, 0, 64, 86
1, 668640, Control_c, 0, 67, 21
1, 668658, Control_c, 0, 64, 72
1, 668661, Control_c, 0, 67, 25
1, 668677, Control_c, 0, 64, 62
1, 668678, Control_c, 0, 67, 31
1, 668697, Control_c, 0, 64, 55
1, 668698, Control_c, 0, 67, 37
1, 668713, Control_c, 0, 64, 47
1, 668714, Control_c, 0, 67, 43
1, 668733, Control_c, 0, 64, 38
1, 668734, Control_c, 0, 67, 50
1, 668751, Control_c, 0, 64, 28
1, 668752, Control_c, 0, 67, 55
1, 668769, Control_c, 0, 64, 19
1, 668770, Control_c, 0, 67, 60
1, 668788, Control_c, 0, 67, 65
1, 668807, Control_c, 0, 67, 69
1, 668825, Control_c, 0, 67, 73
1, 668844, Control_c, 0, 67, 78
1, 668863, Control_c, 0, 67, 83
1, 668882, Control_c, 0, 67, 89
1, 668901, Control_c, 0, 67, 94
1, 668919, Control_c, 0, 67, 100
1, 668938, Control_c, 0, 67, 105
1, 668956, Control_c, 0, 64, 25
1, 668975, Control_c, 0, 67, 109
1, 668994, Control_c, 0, 64, 31
1, 669012, Control_c, 0, 67, 114
1, 669031, Control_c, 0, 64, 35
1, 669050, Control_c, 0, 67, 118
1, 669069, Control_c, 0, 64, 43
1, 669087, Control_c, 0, 64, 49
1, 669105, Control_c, 0, 64, 53
1, 669106, Control_c, 0, 67, 123
1, 669125, Control_c, 0, 64, 56
1, 669143, Control_c, 0, 64, 59
1, 669145, Control_c, 0, 67, 127
1, 669162, Control_c, 0, 64, 60
1, 669181, Control_c, 0, 64, 63
1, 669199, Control_c, 0, 64, 64
1, 669219, Control_c, 0, 64, 65
1, 669330, Control_c, 0, 64, 66
1, 669368, Control_c, 0, 64, 67
1, 669405, Control_c, 0, 64, 69
1, 669444, Control_c, 0, 64, 73
1, 669461, Control_c, 0, 64, 75
1, 669479, Control_c, 0, 64, 78
1, 669498, Control_c, 0, 64, 81
1, 669517, Control_c, 0, 64, 85
1, 669537, Control_c, 0, 64, 90
1, 669555, Control_c, 0, 64, 96
1, 669574, Control_c, 0, 64, 102
1, 669592, Control_c, 0, 64, 109
1, 669610, Control_c, 0, 64, 115
1, 669629, Control_c, 0, 64, 119
1, 669638, Note_off_c, 0, 56, 35
1, 669638, Poly_aftertouch_c, 0, 56, 0
1, 669667, Control_c, 0, 64, 125
1, 669817, Note_on_c, 0, 51, 40
1, 669819, Note_on_c, 0, 56, 41
1, 669821, Note_on_c, 0, 63, 37
1, 669828, Note_on_c, 0, 59, 37
1, 670029, Note_off_c, 0, 51, 31
1, 670029, Poly_aftertouch_c, 0, 51, 0
1, 670036, Note_off_c, 0, 56, 30
1, 670036, Poly_aftertouch_c, 0, 56, 0
1, 670050, Note_off_c, 0, 59, 31
1, 670050, Poly_aftertouch_c, 0, 59, 0
1, 670066, Note_off_c, 0, 63, 27
1, 670537, Note_off_c, 0, 32, 30
1, 670620, Note_on_c, 0, 63, 42
1, 670631, Note_on_c, 0, 51, 43
1, 670637, Note_on_c, 0, 59, 40
1, 670642, Note_on_c, 0, 56, 45
1, 670738, Note_off_c, 0, 56, 50
1, 670738, Poly_aftertouch_c, 0, 56, 0
1, 670741, Note_off_c, 0, 51, 49
1, 670741, Poly_aftertouch_c, 0, 51, 0
1, 670775, Note_off_c, 0, 59, 37
1, 670775, Note_off_c, 0, 63, 38
1, 670775, Poly_aftertouch_c, 0, 59, 0
1, 670911, Note_on_c, 0, 63, 48
1, 670912, Note_on_c, 0, 56, 42
1, 670917, Note_on_c, 0, 51, 41
1, 670925, Note_on_c, 0, 59, 50
1, 670925, Note_on_c, 0, 32, 46
1, 670939, Control_c, 0, 64, 118
1, 670957, Control_c, 0, 64, 103
1, 670976, Control_c, 0, 64, 86
1, 670994, Control_c, 0, 64, 69
1, 671013, Control_c, 0, 64, 56
1, 671033, Control_c, 0, 64, 49
1, 671090, Control_c, 0, 64, 55
1, 671106, Control_c, 0, 64, 62
1, 671125, Control_c, 0, 64, 69
1, 671144, Control_c, 0, 64, 73
1, 671163, Control_c, 0, 64, 77
1, 671181, Control_c, 0, 64, 80
1, 671185, Poly_aftertouch_c, 0, 59, 24
1, 671200, Control_c, 0, 64, 83
1, 671220, Control_c, 0, 64, 88
1, 671237, Control_c, 0, 64, 93
1, 671256, Control_c, 0, 64, 99
1, 671275, Control_c, 0, 64, 105
1, 671294, Control_c, 0, 64, 110
1, 671296, Poly_aftertouch_c, 0, 51, 20
1, 671327, Note_off_c, 0, 63, 28
1, 671329, Note_off_c, 0, 51, 20
1, 671329, Poly_aftertouch_c, 0, 51, 0
1, 671331, Control_c, 0, 64, 114
1, 671379, Note_off_c, 0, 59, 19
1, 671379, Poly_aftertouch_c, 0, 59, 0
1, 671384, Note_off_c, 0, 56, 21
1, 671384, Poly_aftertouch_c, 0, 56, 0
1, 671684, Note_on_c, 0, 59, 40
1, 671684, Note_on_c, 0, 56, 42
1, 671687, Note_on_c, 0, 63, 39
1, 671693, Note_on_c, 0, 51, 40
1, 671805, Note_off_c, 0, 59, 38
1, 671805, Poly_aftertouch_c, 0, 59, 0
1, 671833, Note_off_c, 0, 56, 40
1, 671833, Note_off_c, 0, 63, 37
1, 671833, Poly_aftertouch_c, 0, 56, 0
1, 671878, Note_off_c, 0, 51, 34
1, 671878, Poly_aftertouch_c, 0, 51, 0
1, 671949, Control_c, 0, 64, 110
1, 671973, Note_on_c, 0, 51, 26
1, 671973, Note_on_c, 0, 58, 48
1, 671980, Note_on_c, 0, 63, 46
1, 671984, Control_c, 0, 64, 99
1, 671996, Note_on_c, 0, 55, 46
1, 672003, Control_c, 0, 64, 88
1, 672024, Control_c, 0, 64, 73
1, 672042, Control_c, 0, 64, 59
1, 672060, Control_c, 0, 64, 47
1, 672079, Control_c, 0, 64, 29
1, 672099, Control_c, 0, 64, 16
1, 672135, Control_c, 0, 64, 26
1, 672153, Control_c, 0, 64, 38
1, 672173, Control_c, 0, 64, 52
1, 672190, Control_c, 0, 64, 65
1, 672210, Control_c, 0, 64, 75
1, 672228, Control_c, 0, 64, 81
1, 672247, Control_c, 0, 64, 88
1, 672266, Control_c, 0, 64, 94
1, 672284, Control_c, 0, 64, 99
1, 672322, Control_c, 0, 64, 105
1, 672324, Note_off_c, 0, 58, 30
1, 672324, Poly_aftertouch_c, 0, 58, 0
1, 672360, Control_c, 0, 64, 111
1, 672397, Control_c, 0, 64, 116
1, 672406, Note_off_c, 0, 55, 36
1, 672406, Poly_aftertouch_c, 0, 55, 0
1, 672447, Note_off_c, 0, 63, 23
1, 672472, Control_c, 0, 64, 120
1, 672497, Note_off_c, 0, 32, 47
1, 672506, Note_off_c, 0, 51, 29
1, 672506, Poly_aftertouch_c, 0, 51, 0
1, 672770, Note_on_c, 0, 63, 45
1, 672789, Note_on_c, 0, 56, 46
1, 672791, Note_on_c, 0, 51, 46
1, 672798, Note_on_c, 0, 59, 46
1, 672843, Note_off_c, 0, 56, 62
1, 672843, Poly_aftertouch_c, 0, 56, 0
1, 672853, Poly_aftertouch_c, 0, 44, 20
1, 672855, Note_off_c, 0, 44, 37
1, 672855, Poly_aftertouch_c, 0, 44, 0
1, 672895, Note_off_c, 0, 63, 50
1, 672915, Note_off_c, 0, 59, 52
1, 672915, Poly_aftertouch_c, 0, 59, 0
1, 672917, Note_off_c, 0, 51, 50
1, 672917, Poly_aftertouch_c, 0, 51, 0
1, 672996, Control_c, 0, 64, 115
1, 673051, Control_c, 0, 64, 108
1, 673067, Note_on_c, 0, 61, 51
1, 673070, Control_c, 0, 64, 103
1, 673074, Note_on_c, 0, 63, 39
1, 673079, Note_on_c, 0, 51, 49
1, 673083, Note_on_c, 0, 39, 51
1, 673086, Note_on_c, 0, 58, 48
1, 673088, Control_c, 0, 64, 98
1, 673108, Control_c, 0, 64, 91
1, 673126, Control_c, 0, 64, 83
1, 673146, Control_c, 0, 64, 75
1, 673164, Control_c, 0, 64, 69
1, 673182, Control_c, 0, 64, 64
1, 673200, Control_c, 0, 64, 60
1, 673219, Control_c, 0, 64, 56
1, 673238, Control_c, 0, 64, 53
1, 673257, Control_c, 0, 64, 49
1, 673275, Control_c, 0, 64, 45
1, 673295, Control_c, 0, 64, 42
1, 673350, Control_c, 0, 64, 45
1, 673369, Control_c, 0, 64, 49
1, 673388, Control_c, 0, 64, 53
1, 673406, Control_c, 0, 64, 58
1, 673425, Control_c, 0, 64, 63
1, 673446, Control_c, 0, 64, 64
1, 673500, Control_c, 0, 64, 63
1, 673519, Control_c, 0, 64, 62
1, 673533, Note_off_c, 0, 39, 57
1, 673537, Control_c, 0, 64, 61
1, 673706, Control_c, 0, 64, 59
1, 673761, Control_c, 0, 64, 57
1, 673798, Control_c, 0, 64, 54
1, 673837, Note_on_c, 0, 39, 49
1, 673837, Control_c, 0, 64, 51
1, 673874, Control_c, 0, 64, 49
1, 673911, Control_c, 0, 64, 46
1, 673963, Note_off_c, 0, 39, 54
1, 674004, Control_c, 0, 64, 44
1, 674106, Note_on_c, 0, 43, 57
1, 674118, Control_c, 0, 64, 42
1, 674472, Note_off_c, 0, 43, 52
1, 674472, Poly_aftertouch_c, 0, 43, 0
1, 674472, Control_c, 0, 64, 45
1, 674828, Note_off_c, 0, 51, 28
1, 674828, Poly_aftertouch_c, 0, 51, 0
1, 674842, Note_on_c, 0, 46, 52
1, 674979, Note_off_c, 0, 46, 59
1, 674979, Poly_aftertouch_c, 0, 46, 0
1, 675130, Note_on_c, 0, 51, 53
1, 675239, Control_c, 0, 64, 43
1, 675370, Control_c, 0, 64, 46
1, 675389, Control_c, 0, 64, 49
1, 675407, Control_c, 0, 64, 52
1, 675426, Control_c, 0, 64, 57
1, 675445, Control_c, 0, 64, 60
1, 675463, Control_c, 0, 64, 63
1, 675482, Control_c, 0, 64, 64
1, 675501, Control_c, 0, 64, 65
1, 675520, Control_c, 0, 64, 66
1, 675537, Control_c, 0, 64, 67
1, 675575, Control_c, 0, 64, 70
1, 675613, Control_c, 0, 64, 73
1, 675650, Control_c, 0, 64, 76
1, 675670, Control_c, 0, 64, 78
1, 675687, Control_c, 0, 64, 80
1, 675707, Control_c, 0, 64, 83
1, 675725, Control_c, 0, 64, 87
1, 675744, Control_c, 0, 64, 92
1, 675762, Control_c, 0, 64, 97
1, 675763, Control_c, 0, 67, 121
1, 675781, Control_c, 0, 64, 104
1, 675782, Control_c, 0, 67, 117
1, 675796, Note_off_c, 0, 58, 54
1, 675796, Poly_aftertouch_c, 0, 58, 0
1, 675800, Control_c, 0, 64, 111
1, 675801, Control_c, 0, 67, 112
1, 675820, Control_c, 0, 64, 118
1, 675821, Control_c, 0, 67, 107
1, 675838, Control_c, 0, 64, 124
1, 675840, Control_c, 0, 67, 103
1, 675875, Control_c, 0, 67, 98
1, 676032, Note_off_c, 0, 61, 42
1, 676032, Poly_aftertouch_c, 0, 61, 0
1, 676082, Note_off_c, 0, 51, 21
1, 676082, Poly_aftertouch_c, 0, 51, 0
1, 676108, Note_off_c, 0, 63, 41
1, 676208, Note_on_c, 0, 63, 52
1, 676223, Note_on_c, 0, 51, 38
1, 676232, Note_on_c, 0, 55, 42
1, 676233, Note_on_c, 0, 58, 49
1, 676250, Note_on_c, 0, 49, 57
1, 676267, Control_c, 0, 64, 116
1, 676268, Control_c, 0, 67, 102
1, 676285, Control_c, 0, 64, 107
1, 676305, Control_c, 0, 64, 95
1, 676323, Control_c, 0, 64, 84
1, 676342, Control_c, 0, 64, 74
1, 676361, Control_c, 0, 64, 68
1, 676380, Control_c, 0, 64, 65
1, 676417, Control_c, 0, 64, 66
1, 676436, Control_c, 0, 64, 68
1, 676454, Control_c, 0, 64, 71
1, 676473, Control_c, 0, 64, 75
1, 676492, Control_c, 0, 64, 78
1, 676511, Control_c, 0, 64, 83
1, 676529, Control_c, 0, 64, 87
1, 676549, Control_c, 0, 64, 92
1, 676566, Control_c, 0, 64, 96
1, 676586, Control_c, 0, 64, 100
1, 676587, Control_c, 0, 67, 98
1, 676605, Control_c, 0, 64, 104
1, 676622, Control_c, 0, 64, 109
1, 676641, Control_c, 0, 64, 113
1, 676660, Control_c, 0, 64, 118
1, 676678, Control_c, 0, 64, 122
1, 676697, Control_c, 0, 64, 126
1, 676753, Control_c, 0, 67, 93
1, 676775, Note_off_c, 0, 58, 25
1, 676775, Poly_aftertouch_c, 0, 58, 0
1, 676833, Note_off_c, 0, 63, 36
1, 676848, Poly_aftertouch_c, 0, 49, 22
1, 676853, Note_off_c, 0, 55, 29
1, 676853, Poly_aftertouch_c, 0, 55, 0
1, 676857, Note_off_c, 0, 51, 29
1, 676857, Poly_aftertouch_c, 0, 51, 0
1, 676867, Note_off_c, 0, 49, 23
1, 676867, Poly_aftertouch_c, 0, 49, 0
1, 677007, Note_on_c, 0, 63, 54
1, 677015, Note_on_c, 0, 55, 53
1, 677020, Note_on_c, 0, 51, 50
1, 677026, Note_on_c, 0, 49, 60
1, 677029, Note_on_c, 0, 58, 55
1, 677085, Note_off_c, 0, 58, 57
1, 677085, Poly_aftertouch_c, 0, 58, 0
1, 677117, Note_off_c, 0, 55, 59
1, 677117, Poly_aftertouch_c, 0, 55, 0
1, 677229, Note_off_c, 0, 63, 48
1, 677254, Note_off_c, 0, 51, 33
1, 677254, Poly_aftertouch_c, 0, 51, 0
1, 677351, Note_on_c, 0, 63, 52
1, 677365, Note_on_c, 0, 51, 49
1, 677367, Note_on_c, 0, 56, 49
1, 677368, Note_on_c, 0, 59, 53
1, 677368, Control_c, 0, 64, 116
1, 677373, Note_on_c, 0, 47, 56
1, 677390, Control_c, 0, 64, 104
1, 677409, Control_c, 0, 64, 90
1, 677413, Poly_aftertouch_c, 0, 49, 20
1, 677422, Note_off_c, 0, 49, 34
1, 677422, Poly_aftertouch_c, 0, 49, 0
1, 677427, Control_c, 0, 64, 76
1, 677446, Control_c, 0, 64, 64
1, 677464, Control_c, 0, 64, 57
1, 677483, Control_c, 0, 64, 51
1, 677501, Control_c, 0, 64, 49
1, 677539, Control_c, 0, 64, 52
1, 677558, Control_c, 0, 64, 58
1, 677576, Control_c, 0, 64, 65
1, 677595, Control_c, 0, 64, 70
1, 677610, Note_off_c, 0, 47, 59
1, 677610, Poly_aftertouch_c, 0, 47, 0
1, 677611, Note_on_c, 0, 49, 55
1, 677614, Control_c, 0, 64, 73
1, 677650, Control_c, 0, 64, 77
1, 677688, Control_c, 0, 64, 79
1, 677689, Control_c, 0, 67, 97
1, 677722, Note_off_c, 0, 49, 56
1, 677722, Poly_aftertouch_c, 0, 49, 0
1, 677745, Control_c, 0, 64, 81
1, 677751, Note_on_c, 0, 47, 55
1, 677801, Control_c, 0, 64, 84
1, 677837, Control_c, 0, 64, 86
1, 677862, Note_off_c, 0, 47, 61
1, 677862, Poly_aftertouch_c, 0, 47, 0
1, 677877, Note_on_c, 0, 49, 65
1, 677931, Control_c, 0, 64, 91
1, 677972, Note_off_c, 0, 49, 58
1, 677972, Poly_aftertouch_c, 0, 49, 0
1, 677996, Note_on_c, 0, 47, 61
1, 678005, Control_c, 0, 64, 95
1, 678081, Control_c, 0, 64, 99
1, 678090, Note_off_c, 0, 47, 60
1, 678090, Poly_aftertouch_c, 0, 47, 0
1, 678109, Note_on_c, 0, 49, 65
1, 678174, Control_c, 0, 64, 104
1, 678194, Note_off_c, 0, 49, 58
1, 678194, Poly_aftertouch_c, 0, 49, 0
1, 678206, Note_on_c, 0, 47, 61
1, 678249, Control_c, 0, 64, 108
1, 678273, Poly_aftertouch_c, 0, 59, 24
1, 678294, Note_off_c, 0, 47, 60
1, 678294, Poly_aftertouch_c, 0, 47, 0
1, 678309, Note_on_c, 0, 49, 67
1, 678321, Note_off_c, 0, 51, 26
1, 678321, Poly_aftertouch_c, 0, 51, 0
1, 678346, Note_off_c, 0, 59, 30
1, 678346, Poly_aftertouch_c, 0, 59, 0
1, 678351, Note_off_c, 0, 63, 32
1, 678361, Control_c, 0, 64, 112
1, 678383, Note_off_c, 0, 49, 60
1, 678383, Poly_aftertouch_c, 0, 49, 0
1, 678389, Note_off_c, 0, 56, 32
1, 678389, Poly_aftertouch_c, 0, 56, 0
1, 678394, Note_on_c, 0, 47, 57
1, 678492, Note_off_c, 0, 47, 60
1, 678492, Poly_aftertouch_c, 0, 47, 0
1, 678500, Note_on_c, 0, 49, 64
1, 678510, Note_on_c, 0, 51, 53
1, 678512, Note_on_c, 0, 63, 48
1, 678520, Note_on_c, 0, 56, 56
1, 678520, Note_on_c, 0, 59, 57
1, 678583, Note_off_c, 0, 49, 59
1, 678583, Poly_aftertouch_c, 0, 49, 0
1, 678600, Note_on_c, 0, 47, 53
1, 678712, Note_off_c, 0, 47, 58
1, 678712, Poly_aftertouch_c, 0, 47, 0
1, 678719, Note_on_c, 0, 49, 68
1, 678754, Control_c, 0, 64, 116
1, 678807, Note_off_c, 0, 49, 59
1, 678807, Poly_aftertouch_c, 0, 49, 0
1, 678865, Note_on_c, 0, 47, 60
1, 678989, Note_on_c, 0, 46, 68
1, 679016, Control_c, 0, 64, 111
1, 679056, Note_off_c, 0, 47, 50
1, 679056, Poly_aftertouch_c, 0, 47, 0
1, 679066, Note_off_c, 0, 63, 38
1, 679072, Control_c, 0, 64, 107
1, 679086, Note_off_c, 0, 59, 29
1, 679086, Poly_aftertouch_c, 0, 59, 0
1, 679089, Note_off_c, 0, 56, 36
1, 679089, Poly_aftertouch_c, 0, 56, 0
1, 679091, Note_off_c, 0, 51, 30
1, 679091, Poly_aftertouch_c, 0, 51, 0
1, 679128, Control_c, 0, 64, 101
1, 679165, Control_c, 0, 64, 94
1, 679184, Control_c, 0, 67, 103
1, 679204, Control_c, 0, 64, 88
1, 679220, Control_c, 0, 64, 86
1, 679222, Control_c, 0, 67, 108
1, 679223, Note_on_c, 0, 44, 70
1, 679224, Note_on_c, 0, 63, 50
1, 679234, Note_on_c, 0, 51, 52
1, 679235, Note_on_c, 0, 56, 57
1, 679237, Note_on_c, 0, 59, 60
1, 679238, Control_c, 0, 64, 84
1, 679260, Control_c, 0, 64, 82
1, 679261, Control_c, 0, 67, 112
1, 679297, Control_c, 0, 67, 116
1, 679319, Note_off_c, 0, 56, 57
1, 679319, Poly_aftertouch_c, 0, 56, 0
1, 679334, Control_c, 0, 64, 80
1, 679353, Control_c, 0, 67, 120
1, 679357, Note_off_c, 0, 63, 52
1, 679389, Control_c, 0, 64, 78
1, 679403, Note_off_c, 0, 51, 36
1, 679403, Poly_aftertouch_c, 0, 51, 0
1, 679419, Note_off_c, 0, 46, 32
1, 679419, Poly_aftertouch_c, 0, 46, 0
1, 679426, Control_c, 0, 64, 76
1, 679446, Control_c, 0, 67, 124
1, 679465, Control_c, 0, 64, 73
1, 679484, Control_c, 0, 64, 71
1, 679500, Note_on_c, 0, 61, 58
1, 679500, Note_on_c, 0, 43, 66
1, 679502, Note_on_c, 0, 63, 55
1, 679502, Note_on_c, 0, 51, 48
1, 679503, Control_c, 0, 64, 69
1, 679509, Note_off_c, 0, 59, 36
1, 679509, Poly_aftertouch_c, 0, 59, 0
1, 679521, Note_on_c, 0, 58, 57
1, 679521, Control_c, 0, 64, 67
1, 679540, Control_c, 0, 64, 64
1, 679559, Control_c, 0, 64, 61
1, 679577, Control_c, 0, 64, 58
1, 679588, Note_off_c, 0, 44, 51
1, 679588, Poly_aftertouch_c, 0, 44, 0
1, 679596, Control_c, 0, 64, 54
1, 679615, Control_c, 0, 64, 49
1, 679633, Control_c, 0, 64, 42
1, 679652, Control_c, 0, 64, 31
1, 679670, Control_c, 0, 64, 15
1, 679690, Control_c, 0, 64, 0
1, 679839, Control_c, 0, 64, 12
1, 679858, Control_c, 0, 64, 18
1, 679877, Control_c, 0, 64, 22
1, 679895, Control_c, 0, 64, 27
1, 679915, Control_c, 0, 64, 34
1, 679932, Control_c, 0, 64, 42
1, 679952, Control_c, 0, 64, 48
1, 679969, Control_c, 0, 64, 53
1, 679988, Control_c, 0, 64, 58
1, 679999, Note_off_c, 0, 61, 36
1, 679999, Poly_aftertouch_c, 0, 61, 0
1, 680007, Control_c, 0, 64, 62
1, 680026, Control_c, 0, 64, 65
1, 680043, Control_c, 0, 64, 68
1, 680063, Control_c, 0, 64, 70
1, 680082, Control_c, 0, 64, 72
1, 680115, Note_off_c, 0, 63, 35
1, 680118, Control_c, 0, 64, 76
1, 680138, Control_c, 0, 64, 78
1, 680157, Control_c, 0, 64, 80
1, 680165, Note_off_c, 0, 58, 55
1, 680165, Poly_aftertouch_c, 0, 58, 0
1, 680177, Control_c, 0, 64, 82
1, 680194, Control_c, 0, 64, 84
1, 680212, Control_c, 0, 64, 87
1, 680249, Control_c, 0, 64, 92
1, 680289, Control_c, 0, 64, 97
1, 680294, Note_off_c, 0, 51, 29
1, 680294, Poly_aftertouch_c, 0, 51, 0
1, 680564, Note_off_c, 0, 43, 23
1, 680564, Poly_aftertouch_c, 0, 43, 0
1, 680568, Control_c, 0, 64, 91
1, 680580, Note_on_c, 0, 63, 51
1, 680587, Note_on_c, 0, 56, 46
1, 680587, Control_c, 0, 64, 88
1, 680593, Note_on_c, 0, 51, 44
1, 680596, Note_on_c, 0, 59, 41
1, 680604, Control_c, 0, 64, 83
1, 680622, Note_on_c, 0, 44, 46
1, 680623, Control_c, 0, 64, 76
1, 680643, Control_c, 0, 64, 69
1, 680661, Control_c, 0, 64, 61
1, 680681, Control_c, 0, 64, 55
1, 680700, Control_c, 0, 64, 45
1, 680717, Control_c, 0, 64, 33
1, 680736, Control_c, 0, 64, 19
1, 680755, Control_c, 0, 64, 14
1, 680792, Control_c, 0, 64, 20
1, 680811, Control_c, 0, 64, 29
1, 680830, Control_c, 0, 64, 38
1, 680848, Control_c, 0, 64, 47
1, 680867, Control_c, 0, 64, 56
1, 680886, Control_c, 0, 64, 64
1, 680905, Control_c, 0, 64, 69
1, 680923, Control_c, 0, 64, 72
1, 680942, Poly_aftertouch_c, 0, 59, 24
1, 680961, Control_c, 0, 64, 75
1, 680995, Note_off_c, 0, 51, 31
1, 680995, Poly_aftertouch_c, 0, 51, 0
1, 680998, Control_c, 0, 64, 77
1, 681004, Note_off_c, 0, 59, 35
1, 681004, Note_off_c, 0, 63, 35
1, 681004, Poly_aftertouch_c, 0, 59, 0
1, 681035, Control_c, 0, 64, 81
1, 681040, Note_off_c, 0, 56, 30
1, 681040, Poly_aftertouch_c, 0, 56, 0
1, 681054, Control_c, 0, 64, 83
1, 681082, Note_off_c, 0, 44, 28
1, 681082, Poly_aftertouch_c, 0, 44, 0
1, 681091, Control_c, 0, 64, 85
1, 681129, Control_c, 0, 64, 87
1, 681407, Note_on_c, 0, 63, 44
1, 681413, Note_on_c, 0, 44, 43
1, 681420, Note_on_c, 0, 51, 41
1, 681421, Note_on_c, 0, 56, 38
1, 681440, Note_on_c, 0, 59, 27
1, 681490, Note_off_c, 0, 56, 59
1, 681490, Poly_aftertouch_c, 0, 56, 0
1, 681498, Note_off_c, 0, 59, 44
1, 681498, Poly_aftertouch_c, 0, 59, 0
1, 681513, Note_off_c, 0, 44, 43
1, 681513, Poly_aftertouch_c, 0, 44, 0
1, 681526, Note_off_c, 0, 51, 43
1, 681526, Poly_aftertouch_c, 0, 51, 0
1, 681536, Note_off_c, 0, 63, 51
1, 681652, Control_c, 0, 64, 84
1, 681686, Note_on_c, 0, 51, 38
1, 681688, Control_c, 0, 64, 81
1, 681694, Note_on_c, 0, 63, 50
1, 681697, Note_on_c, 0, 58, 48
1, 681708, Control_c, 0, 64, 78
1, 681710, Note_on_c, 0, 55, 43
1, 681727, Note_on_c, 0, 39, 39
1, 681727, Control_c, 0, 64, 74
1, 681746, Control_c, 0, 64, 71
1, 681765, Control_c, 0, 64, 67
1, 681783, Control_c, 0, 64, 63
1, 681802, Control_c, 0, 64, 59
1, 681820, Control_c, 0, 64, 55
1, 681840, Control_c, 0, 64, 50
1, 681858, Control_c, 0, 64, 44
1, 681877, Control_c, 0, 64, 36
1, 681895, Control_c, 0, 64, 26
1, 681915, Control_c, 0, 64, 19
1, 682037, Note_off_c, 0, 58, 32
1, 682037, Poly_aftertouch_c, 0, 58, 0
1, 682044, Note_off_c, 0, 51, 30
1, 682044, Poly_aftertouch_c, 0, 51, 0
1, 682057, Note_off_c, 0, 63, 30
1, 682060, Note_off_c, 0, 39, 34
1, 682094, Note_off_c, 0, 55, 33
1, 682094, Poly_aftertouch_c, 0, 55, 0
1, 682419, Control_c, 0, 64, 24
1, 682475, Control_c, 0, 64, 29
1, 682513, Control_c, 0, 64, 37
1, 682531, Control_c, 0, 64, 43
1, 682549, Control_c, 0, 64, 48
1, 682569, Control_c, 0, 64, 52
1, 682587, Control_c, 0, 64, 55
1, 682606, Control_c, 0, 64, 57
1, 682626, Control_c, 0, 64, 60
1, 682661, Control_c, 0, 64, 61
1, 682755, Control_c, 0, 64, 60
1, 682794, Control_c, 0, 64, 57
1, 682816, Note_on_c, 0, 63, 44
1, 682830, Control_c, 0, 64, 55
1, 682835, Note_on_c, 0, 55, 35
1, 682836, Note_on_c, 0, 58, 37
1, 682838, Note_on_c, 0, 51, 32
1, 682844, Note_on_c, 0, 39, 40
1, 682850, Control_c, 0, 64, 53
1, 682867, Control_c, 0, 64, 50
1, 682886, Control_c, 0, 64, 46
1, 682906, Control_c, 0, 64, 43
1, 682942, Control_c, 0, 64, 37
1, 682980, Control_c, 0, 64, 33
1, 683036, Control_c, 0, 64, 28
1, 683073, Control_c, 0, 64, 23
1, 683130, Control_c, 0, 64, 19
1, 683136, Note_off_c, 0, 51, 36
1, 683136, Poly_aftertouch_c, 0, 51, 0
1, 683137, Note_off_c, 0, 63, 34
1, 683155, Note_off_c, 0, 58, 34
1, 683155, Poly_aftertouch_c, 0, 58, 0
1, 683184, Note_off_c, 0, 39, 32
1, 683212, Note_off_c, 0, 55, 33
1, 683212, Poly_aftertouch_c, 0, 55, 0
1, 683243, Control_c, 0, 64, 15
1, 683953, Note_on_c, 0, 63, 30
1, 683960, Note_on_c, 0, 51, 26
1, 683975, Note_on_c, 0, 55, 16
1, 683975, Note_on_c, 0, 58, 27
1, 683982, Note_on_c, 0, 39, 31
1, 684214, Control_c, 0, 64, 21
1, 684232, Control_c, 0, 64, 28
1, 684252, Control_c, 0, 64, 37
1, 684270, Control_c, 0, 64, 46
1, 684289, Control_c, 0, 64, 55
1, 684309, Control_c, 0, 64, 61
1, 684327, Control_c, 0, 64, 65
1, 684345, Control_c, 0, 64, 67
1, 684361, Note_off_c, 0, 63, 40
1, 684391, Note_off_c, 0, 51, 37
1, 684391, Poly_aftertouch_c, 0, 51, 0
1, 684422, Note_off_c, 0, 39, 35
1, 684439, Control_c, 0, 64, 66
1, 684450, Note_off_c, 0, 58, 36
1, 684450, Poly_aftertouch_c, 0, 58, 0
1, 684473, Note_off_c, 0, 55, 37
1, 684473, Poly_aftertouch_c, 0, 55, 0
1, 684475, Control_c, 0, 64, 64
1, 684495, Control_c, 0, 64, 63
1, 684513, Control_c, 0, 64, 62
1, 684532, Control_c, 0, 64, 60
1, 684550, Control_c, 0, 64, 58
1, 684569, Control_c, 0, 64, 56
1, 684607, Control_c, 0, 64, 53
1, 684625, Control_c, 0, 64, 51
1, 684644, Control_c, 0, 64, 49
1, 684663, Control_c, 0, 64, 47
1, 684681, Control_c, 0, 64, 44
1, 684700, Control_c, 0, 64, 42
1, 684737, Control_c, 0, 64, 36
1, 685000, Control_c, 0, 64, 40
1, 685019, Control_c, 0, 64, 43
1, 685056, Control_c, 0, 64, 47
1, 685075, Control_c, 0, 64, 51
1, 685093, Control_c, 0, 64, 54
1, 685112, Control_c, 0, 64, 57
1, 685131, Control_c, 0, 64, 60
1, 685148, Control_c, 0, 64, 62
1, 685168, Control_c, 0, 64, 64
1, 685187, Control_c, 0, 64, 65
1, 685190, Note_on_c, 0, 63, 38
1, 685204, Control_c, 0, 64, 67
1, 685205, Control_c, 0, 67, 120
1, 685221, Note_on_c, 0, 51, 25
1, 685243, Control_c, 0, 64, 70
1, 685262, Control_c, 0, 64, 72
1, 685263, Control_c, 0, 67, 115
1, 685299, Control_c, 0, 64, 75
1, 685300, Control_c, 0, 67, 111
1, 685318, Control_c, 0, 64, 78
1, 685336, Control_c, 0, 64, 80
1, 685336, Control_c, 0, 67, 107
1, 685354, Control_c, 0, 64, 83
1, 685374, Control_c, 0, 64, 86
1, 685393, Control_c, 0, 64, 90
1, 685393, Control_c, 0, 67, 101
1, 685410, Control_c, 0, 64, 95
1, 685431, Control_c, 0, 64, 100
1, 685433, Control_c, 0, 67, 97
1, 685448, Control_c, 0, 64, 105
1, 685468, Control_c, 0, 64, 110
1, 685484, Note_off_c, 0, 51, 34
1, 685484, Poly_aftertouch_c, 0, 51, 0
1, 685497, Note_off_c, 0, 63, 38
1, 685505, Control_c, 0, 64, 114
1, 686028, Control_c, 0, 67, 93
1, 686066, Control_c, 0, 67, 88
1, 686102, Control_c, 0, 67, 81
1, 686140, Control_c, 0, 67, 75
1, 686158, Control_c, 0, 67, 69
1, 686177, Control_c, 0, 67, 63
1, 686197, Control_c, 0, 67, 56
1, 686207, Note_on_c, 0, 63, 43
1, 686214, Control_c, 0, 67, 50
1, 686233, Control_c, 0, 67, 46
1, 686250, Note_on_c, 0, 51, 32
1, 686324, Note_off_c, 0, 51, 42
1, 686324, Poly_aftertouch_c, 0, 51, 0
1, 686346, Note_off_c, 0, 63, 50
1, 686458, Control_c, 0, 64, 110
1, 686480, Note_on_c, 0, 63, 43
1, 686486, Note_on_c, 0, 60, 49
1, 686494, Control_c, 0, 64, 101
1, 686499, Note_on_c, 0, 51, 39
1, 686512, Note_on_c, 0, 32, 37
1, 686513, Note_on_c, 0, 56, 33
1, 686513, Note_on_c, 0, 44, 33
1, 686513, Control_c, 0, 64, 95
1, 686533, Control_c, 0, 64, 88
1, 686551, Control_c, 0, 64, 81
1, 686570, Control_c, 0, 64, 74
1, 686590, Control_c, 0, 64, 69
1, 686608, Control_c, 0, 64, 65
1, 686626, Control_c, 0, 64, 61
1, 686647, Control_c, 0, 64, 60
1, 686683, Control_c, 0, 64, 61
1, 686684, Control_c, 0, 67, 42
1, 686702, Control_c, 0, 64, 63
1, 686719, Control_c, 0, 64, 65
1, 686739, Control_c, 0, 64, 68
1, 686740, Control_c, 0, 67, 36
1, 686757, Control_c, 0, 64, 71
1, 686775, Control_c, 0, 64, 73
1, 686776, Control_c, 0, 67, 30
1, 686795, Control_c, 0, 64, 76
1, 686813, Control_c, 0, 64, 79
1, 686813, Control_c, 0, 67, 24
1, 686832, Control_c, 0, 64, 82
1, 686833, Control_c, 0, 67, 20
1, 686851, Control_c, 0, 64, 86
1, 686853, Control_c, 0, 67, 15
1, 686870, Control_c, 0, 67, 10
1, 686887, Control_c, 0, 64, 93
1, 686926, Control_c, 0, 64, 100
1, 686964, Control_c, 0, 64, 108
1, 686981, Control_c, 0, 64, 114
1, 687000, Control_c, 0, 64, 120
1, 687019, Control_c, 0, 64, 126
1, 687037, Control_c, 0, 67, 0
1, 687231, Note_off_c, 0, 51, 33
1, 687231, Poly_aftertouch_c, 0, 51, 0
1, 687265, Note_off_c, 0, 63, 33
1, 687281, Note_off_c, 0, 60, 35
1, 687281, Poly_aftertouch_c, 0, 60, 0
1, 687317, Note_off_c, 0, 56, 33
1, 687317, Poly_aftertouch_c, 0, 56, 0
1, 687346, Poly_aftertouch_c, 0, 34, 127
1, 687528, Note_on_c, 0, 63, 48
1, 687543, Note_on_c, 0, 56, 43
1, 687546, Note_on_c, 0, 60, 48
1, 687554, Note_on_c, 0, 51, 45
1, 687776, Note_off_c, 0, 51, 27
1, 687776, Poly_aftertouch_c, 0, 51, 0
1, 687856, Note_off_c, 0, 63, 33
1, 687902, Note_off_c, 0, 56, 31
1, 687902, Poly_aftertouch_c, 0, 56, 0
1, 687903, Note_off_c, 0, 60, 28
1, 687903, Poly_aftertouch_c, 0, 60, 0
1, 688313, Note_on_c, 0, 63, 45
1, 688322, Note_on_c, 0, 60, 49
1, 688327, Note_on_c, 0, 51, 47
1, 688331, Note_on_c, 0, 56, 49
1, 688396, Note_off_c, 0, 32, 33
1, 688407, Poly_aftertouch_c, 0, 34, 0
1, 688433, Note_off_c, 0, 51, 51
1, 688433, Poly_aftertouch_c, 0, 51, 0
1, 688451, Note_off_c, 0, 56, 55
1, 688451, Poly_aftertouch_c, 0, 56, 0
1, 688453, Note_off_c, 0, 60, 58
1, 688453, Poly_aftertouch_c, 0, 60, 0
1, 688465, Note_off_c, 0, 63, 35
1, 688583, Note_on_c, 0, 63, 56
1, 688583, Note_on_c, 0, 32, 64
1, 688592, Note_on_c, 0, 60, 53
1, 688594, Note_on_c, 0, 51, 51
1, 688597, Note_on_c, 0, 56, 54
1, 688627, Control_c, 0, 64, 121
1, 688645, Control_c, 0, 64, 103
1, 688666, Control_c, 0, 64, 83
1, 688684, Control_c, 0, 64, 66
1, 688701, Control_c, 0, 64, 57
1, 688758, Control_c, 0, 64, 59
1, 688776, Control_c, 0, 64, 63
1, 688795, Control_c, 0, 64, 69
1, 688814, Control_c, 0, 64, 75
1, 688833, Control_c, 0, 64, 79
1, 688851, Control_c, 0, 64, 83
1, 688871, Control_c, 0, 64, 86
1, 688908, Control_c, 0, 64, 92
1, 688946, Control_c, 0, 64, 100
1, 688963, Control_c, 0, 64, 105
1, 688981, Control_c, 0, 64, 111
1, 689001, Control_c, 0, 64, 117
1, 689019, Control_c, 0, 64, 124
1, 689055, Poly_aftertouch_c, 0, 51, 24
1, 689097, Note_off_c, 0, 51, 24
1, 689097, Poly_aftertouch_c, 0, 51, 0
1, 689188, Note_off_c, 0, 56, 29
1, 689188, Poly_aftertouch_c, 0, 56, 0
1, 689206, Note_off_c, 0, 63, 38
1, 689225, Note_off_c, 0, 60, 36
1, 689225, Poly_aftertouch_c, 0, 60, 0
1, 689354, Note_on_c, 0, 63, 59
1, 689371, Note_on_c, 0, 60, 60
1, 689378, Note_on_c, 0, 51, 61
1, 689387, Note_on_c, 0, 56, 51
1, 689439, Note_off_c, 0, 63, 60
1, 689504, Note_off_c, 0, 51, 56
1, 689504, Poly_aftertouch_c, 0, 51, 0
1, 689522, Note_off_c, 0, 56, 51
1, 689522, Poly_aftertouch_c, 0, 56, 0
1, 689547, Note_off_c, 0, 60, 51
1, 689547, Poly_aftertouch_c, 0, 60, 0
1, 689625, Note_on_c, 0, 61, 73
1, 689636, Note_on_c, 0, 56, 58
1, 689639, Note_on_c, 0, 58, 61
1, 689647, Note_on_c, 0, 49, 62
1, 689675, Control_c, 0, 64, 114
1, 689694, Control_c, 0, 64, 95
1, 689711, Control_c, 0, 64, 72
1, 689730, Control_c, 0, 64, 53
1, 689749, Control_c, 0, 64, 35
1, 689768, Control_c, 0, 64, 19
1, 689805, Control_c, 0, 64, 26
1, 689824, Control_c, 0, 64, 39
1, 689842, Control_c, 0, 64, 54
1, 689860, Control_c, 0, 64, 67
1, 689880, Control_c, 0, 64, 77
1, 689898, Control_c, 0, 64, 83
1, 689917, Control_c, 0, 64, 90
1, 689936, Control_c, 0, 64, 99
1, 689955, Control_c, 0, 64, 107
1, 689973, Control_c, 0, 64, 115
1, 689983, Note_off_c, 0, 49, 37
1, 689983, Poly_aftertouch_c, 0, 49, 0
1, 689991, Control_c, 0, 64, 121
1, 690011, Control_c, 0, 64, 126
1, 690087, Note_off_c, 0, 61, 55
1, 690087, Poly_aftertouch_c, 0, 61, 0
1, 690119, Note_off_c, 0, 32, 35
1, 690130, Note_off_c, 0, 56, 27
1, 690130, Poly_aftertouch_c, 0, 56, 0
1, 690202, Note_off_c, 0, 58, 31
1, 690202, Poly_aftertouch_c, 0, 58, 0
1, 690408, Note_on_c, 0, 63, 73
1, 690419, Note_on_c, 0, 56, 71
1, 690425, Note_on_c, 0, 60, 64
1, 690427, Note_on_c, 0, 51, 64
1, 690497, Note_off_c, 0, 60, 60
1, 690497, Poly_aftertouch_c, 0, 60, 0
1, 690499, Poly_aftertouch_c, 0, 44, 24
1, 690503, Note_off_c, 0, 51, 54
1, 690503, Poly_aftertouch_c, 0, 51, 0
1, 690542, Note_off_c, 0, 44, 33
1, 690542, Poly_aftertouch_c, 0, 44, 0
1, 690555, Note_off_c, 0, 63, 53
1, 690564, Note_off_c, 0, 56, 52
1, 690564, Poly_aftertouch_c, 0, 56, 0
1, 690679, Note_on_c, 0, 64, 78
1, 690690, Note_on_c, 0, 61, 67
1, 690692, Note_on_c, 0, 37, 72
1, 690698, Note_on_c, 0, 52, 64
1, 690699, Note_on_c, 0, 56, 68
1, 690740, Control_c, 0, 64, 112
1, 690759, Control_c, 0, 64, 90
1, 690778, Control_c, 0, 64, 68
1, 690796, Control_c, 0, 64, 46
1, 690815, Control_c, 0, 64, 0
1, 690945, Control_c, 0, 64, 11
1, 690965, Control_c, 0, 64, 25
1, 690984, Control_c, 0, 64, 34
1, 691002, Control_c, 0, 64, 42
1, 691020, Control_c, 0, 64, 51
1, 691040, Control_c, 0, 64, 61
1, 691057, Control_c, 0, 64, 70
1, 691077, Control_c, 0, 64, 76
1, 691095, Control_c, 0, 64, 81
1, 691114, Control_c, 0, 64, 86
1, 691133, Control_c, 0, 64, 91
1, 691151, Control_c, 0, 64, 96
1, 691171, Control_c, 0, 64, 101
1, 691188, Control_c, 0, 64, 106
1, 691196, Note_off_c, 0, 37, 34
1, 691207, Control_c, 0, 64, 111
1, 691245, Control_c, 0, 64, 117
1, 691301, Control_c, 0, 64, 122
1, 691431, Note_on_c, 0, 37, 75
1, 691596, Note_off_c, 0, 37, 48
1, 691685, Note_on_c, 0, 40, 80
1, 691731, Control_c, 0, 64, 113
1, 691750, Control_c, 0, 64, 105
1, 691769, Control_c, 0, 64, 89
1, 691786, Control_c, 0, 64, 71
1, 691807, Control_c, 0, 64, 52
1, 691825, Control_c, 0, 64, 19
1, 691843, Control_c, 0, 64, 0
1, 691955, Control_c, 0, 64, 27
1, 691974, Control_c, 0, 64, 42
1, 691993, Control_c, 0, 64, 53
1, 692011, Control_c, 0, 64, 65
1, 692031, Control_c, 0, 64, 73
1, 692049, Control_c, 0, 64, 78
1, 692060, Note_off_c, 0, 40, 46
1, 692066, Control_c, 0, 64, 81
1, 692086, Control_c, 0, 64, 85
1, 692105, Control_c, 0, 64, 89
1, 692123, Control_c, 0, 64, 93
1, 692142, Control_c, 0, 64, 99
1, 692160, Control_c, 0, 64, 107
1, 692180, Control_c, 0, 64, 115
1, 692198, Control_c, 0, 64, 122
1, 692217, Control_c, 0, 64, 127
1, 692452, Note_on_c, 0, 44, 81
1, 692625, Note_off_c, 0, 44, 54
1, 692625, Poly_aftertouch_c, 0, 44, 0
1, 692704, Control_c, 0, 64, 121
1, 692708, Note_on_c, 0, 49, 88
1, 692722, Control_c, 0, 64, 98
1, 692740, Control_c, 0, 64, 70
1, 692760, Control_c, 0, 64, 39
1, 692778, Control_c, 0, 64, 0
1, 692927, Control_c, 0, 64, 11
1, 692947, Control_c, 0, 64, 37
1, 692965, Control_c, 0, 64, 54
1, 692983, Control_c, 0, 64, 67
1, 693002, Control_c, 0, 64, 76
1, 693021, Control_c, 0, 64, 82
1, 693040, Control_c, 0, 64, 87
1, 693058, Control_c, 0, 64, 93
1, 693076, Control_c, 0, 64, 99
1, 693096, Control_c, 0, 64, 106
1, 693115, Control_c, 0, 64, 114
1, 693133, Control_c, 0, 64, 123
1, 693152, Control_c, 0, 64, 127
1, 693236, Note_off_c, 0, 49, 44
1, 693236, Poly_aftertouch_c, 0, 49, 0
1, 693378, Note_off_c, 0, 52, 36
1, 693451, Note_off_c, 0, 64, 32
1, 693451, Poly_aftertouch_c, 0, 64, 0
1, 693555, Note_off_c, 0, 56, 30
1, 693555, Poly_aftertouch_c, 0, 56, 0
1, 693556, Note_off_c, 0, 61, 29
1, 693556, Poly_aftertouch_c, 0, 61, 0
1, 693739, Note_on_c, 0, 64, 89
1, 693748, Note_on_c, 0, 61, 88
1, 693748, Note_on_c, 0, 52, 84
1, 693754, Note_on_c, 0, 56, 80
1, 693770, Control_c, 0, 64, 118
1, 693788, Control_c, 0, 64, 88
1, 693806, Control_c, 0, 64, 52
1, 693824, Control_c, 0, 64, 0
1, 693937, Control_c, 0, 64, 31
1, 693955, Control_c, 0, 64, 45
1, 693975, Control_c, 0, 64, 57
1, 693992, Note_off_c, 0, 52, 52
1, 693994, Control_c, 0, 64, 69
1, 694012, Control_c, 0, 64, 79
1, 694031, Control_c, 0, 64, 92
1, 694050, Control_c, 0, 64, 109
1, 694069, Control_c, 0, 64, 127
1, 694096, Note_off_c, 0, 56, 55
1, 694096, Poly_aftertouch_c, 0, 56, 0
1, 694134, Note_off_c, 0, 64, 52
1, 694134, Poly_aftertouch_c, 0, 64, 0
1, 694280, Note_off_c, 0, 61, 60
1, 694280, Poly_aftertouch_c, 0, 61, 0
1, 694833, Note_on_c, 0, 73, 96
1, 694836, Note_on_c, 0, 64, 87
1, 694837, Note_on_c, 0, 69, 83
1, 694838, Note_on_c, 0, 61, 94
1, 694875, Note_on_c, 0, 68, 37
1, 694876, Note_off_c, 0, 68, 127
1, 694910, Control_c, 0, 64, 118
1, 694926, Poly_aftertouch_c, 0, 68, 0
1, 694928, Control_c, 0, 64, 85
1, 694947, Control_c, 0, 64, 43
1, 694967, Control_c, 0, 64, 0
1, 695208, Control_c, 0, 64, 22
1, 695228, Control_c, 0, 64, 32
1, 695246, Control_c, 0, 64, 36
1, 695283, Control_c, 0, 64, 42
1, 695303, Control_c, 0, 64, 47
1, 695321, Control_c, 0, 64, 54
1, 695340, Control_c, 0, 64, 60
1, 695358, Control_c, 0, 64, 64
1, 695377, Control_c, 0, 64, 66
1, 695397, Control_c, 0, 64, 67
1, 695433, Control_c, 0, 64, 71
1, 695452, Control_c, 0, 64, 73
1, 695471, Control_c, 0, 64, 76
1, 695489, Control_c, 0, 64, 78
1, 695508, Control_c, 0, 64, 81
1, 695527, Control_c, 0, 64, 85
1, 695545, Control_c, 0, 64, 92
1, 695554, Note_on_c, 0, 45, 88
1, 695557, Note_on_c, 0, 33, 88
1, 695562, Control_c, 0, 64, 101
1, 695583, Control_c, 0, 64, 112
1, 695603, Control_c, 0, 64, 123
1, 695608, Note_off_c, 0, 33, 60
1, 695614, Note_off_c, 0, 45, 62
1, 695622, Control_c, 0, 64, 127
1, 695814, Note_on_c, 0, 49, 96
1, 695816, Note_on_c, 0, 37, 97
1, 695826, Control_c, 0, 64, 103
1, 695845, Control_c, 0, 64, 69
1, 695864, Control_c, 0, 64, 15
1, 695881, Control_c, 0, 64, 0
1, 695977, Control_c, 0, 64, 39
1, 695994, Control_c, 0, 64, 60
1, 696013, Control_c, 0, 64, 74
1, 696017, Note_off_c, 0, 37, 54
1, 696031, Control_c, 0, 64, 79
1, 696050, Control_c, 0, 64, 82
1, 696051, Note_off_c, 0, 49, 48
1, 696051, Poly_aftertouch_c, 0, 49, 0
1, 696070, Control_c, 0, 64, 84
1, 696087, Control_c, 0, 64, 87
1, 696125, Control_c, 0, 64, 93
1, 696162, Control_c, 0, 64, 97
1, 696406, Control_c, 0, 64, 93
1, 696585, Note_on_c, 0, 52, 91
1, 696591, Note_on_c, 0, 40, 88
1, 696633, Note_off_c, 0, 40, 65
1, 696652, Note_off_c, 0, 52, 62
1, 696817, Control_c, 0, 64, 88
1, 696834, Note_on_c, 0, 57, 98
1, 696834, Control_c, 0, 64, 70
1, 696841, Note_on_c, 0, 45, 91
1, 696854, Control_c, 0, 64, 42
1, 696873, Control_c, 0, 64, 0
1, 697134, Control_c, 0, 64, 21
1, 697149, Note_on_c, 0, 51, 37
1, 697153, Control_c, 0, 64, 41
1, 697172, Control_c, 0, 64, 58
1, 697181, Note_off_c, 0, 45, 59
1, 697191, Control_c, 0, 64, 73
1, 697210, Control_c, 0, 64, 84
1, 697221, Note_off_c, 0, 51, 54
1, 697221, Poly_aftertouch_c, 0, 51, 0
1, 697226, Control_c, 0, 64, 95
1, 697246, Control_c, 0, 64, 104
1, 697256, Note_off_c, 0, 57, 59
1, 697256, Poly_aftertouch_c, 0, 57, 0
1, 697265, Control_c, 0, 64, 111
1, 697285, Control_c, 0, 64, 115
1, 697639, Control_c, 0, 64, 107
1, 697658, Control_c, 0, 64, 85
1, 697678, Control_c, 0, 64, 57
1, 697695, Control_c, 0, 64, 39
1, 697715, Control_c, 0, 64, 30
1, 697722, Poly_aftertouch_c, 0, 69, 24
1, 697752, Control_c, 0, 64, 37
1, 697771, Control_c, 0, 64, 46
1, 697780, Note_off_c, 0, 61, 54
1, 697780, Poly_aftertouch_c, 0, 61, 0
1, 697788, Control_c, 0, 64, 54
1, 697793, Note_off_c, 0, 73, 55
1, 697808, Control_c, 0, 64, 58
1, 697827, Note_off_c, 0, 64, 60
1, 697827, Poly_aftertouch_c, 0, 64, 0
1, 697828, Note_off_c, 0, 69, 29
1, 697828, Poly_aftertouch_c, 0, 69, 0
1, 697844, Control_c, 0, 64, 51
1, 697865, Control_c, 0, 64, 33
1, 697883, Control_c, 0, 64, 0
1, 697896, Note_on_c, 0, 73, 102
1, 697899, Note_on_c, 0, 61, 105
1, 697900, Note_on_c, 0, 64, 88
1, 697904, Note_on_c, 0, 69, 89
1, 697958, Note_on_c, 0, 68, 8
1, 697959, Note_off_c, 0, 68, 127
1, 698070, Control_c, 0, 64, 50
1, 698089, Control_c, 0, 64, 72
1, 698107, Control_c, 0, 64, 91
1, 698126, Control_c, 0, 64, 117
1, 698144, Note_off_c, 0, 61, 48
1, 698144, Poly_aftertouch_c, 0, 61, 0
1, 698144, Control_c, 0, 64, 127
1, 698181, Note_off_c, 0, 73, 50
1, 698243, Note_off_c, 0, 64, 56
1, 698243, Poly_aftertouch_c, 0, 64, 0
1, 698388, Note_off_c, 0, 69, 38
1, 698388, Poly_aftertouch_c, 0, 69, 0
1, 699045, Note_on_c, 0, 82, 100
1, 699050, Note_on_c, 0, 73, 92
1, 699052, Note_on_c, 0, 70, 93
1, 699055, Note_on_c, 0, 75, 90
1, 699154, Control_c, 0, 64, 109
1, 699173, Control_c, 0, 64, 67
1, 699190, Control_c, 0, 64, 0
1, 699266, Control_c, 0, 64, 10
1, 699286, Control_c, 0, 64, 41
1, 699303, Control_c, 0, 64, 56
1, 699323, Control_c, 0, 64, 63
1, 699341, Control_c, 0, 64, 64
1, 699398, Control_c, 0, 64, 65
1, 699435, Control_c, 0, 64, 66
1, 699453, Control_c, 0, 64, 67
1, 699472, Control_c, 0, 64, 69
1, 699491, Control_c, 0, 64, 71
1, 699510, Control_c, 0, 64, 73
1, 699529, Control_c, 0, 64, 75
1, 699547, Control_c, 0, 64, 78
1, 699566, Control_c, 0, 64, 80
1, 699584, Control_c, 0, 64, 84
1, 699602, Control_c, 0, 64, 90
1, 699622, Control_c, 0, 64, 97
1, 699640, Control_c, 0, 64, 107
1, 699659, Control_c, 0, 64, 118
1, 699677, Control_c, 0, 64, 127
1, 699815, Note_on_c, 0, 55, 91
1, 699816, Note_on_c, 0, 43, 92
1, 699866, Note_off_c, 0, 43, 65
1, 699866, Poly_aftertouch_c, 0, 43, 0
1, 699886, Note_off_c, 0, 55, 57
1, 699886, Poly_aftertouch_c, 0, 55, 0
1, 700038, Note_on_c, 0, 58, 98
1, 700041, Note_on_c, 0, 46, 98
1, 700051, Control_c, 0, 64, 108
1, 700071, Control_c, 0, 64, 72
1, 700089, Control_c, 0, 64, 24
1, 700108, Control_c, 0, 64, 0
1, 700220, Control_c, 0, 64, 25
1, 700239, Control_c, 0, 64, 41
1, 700257, Control_c, 0, 64, 56
1, 700275, Control_c, 0, 64, 68
1, 700295, Control_c, 0, 64, 76
1, 700313, Control_c, 0, 64, 83
1, 700327, Note_off_c, 0, 46, 54
1, 700327, Poly_aftertouch_c, 0, 46, 0
1, 700331, Control_c, 0, 64, 91
1, 700351, Control_c, 0, 64, 101
1, 700371, Control_c, 0, 64, 112
1, 700378, Poly_aftertouch_c, 0, 49, 0
1, 700387, Control_c, 0, 64, 122
1, 700398, Note_off_c, 0, 58, 53
1, 700398, Poly_aftertouch_c, 0, 58, 0
1, 700407, Control_c, 0, 64, 127
1, 700796, Note_on_c, 0, 51, 95
1, 700796, Note_on_c, 0, 63, 98
1, 700851, Note_off_c, 0, 51, 60
1, 700851, Poly_aftertouch_c, 0, 51, 0
1, 700852, Note_off_c, 0, 63, 62
1, 701041, Note_on_c, 0, 67, 102
1, 701044, Note_on_c, 0, 55, 97
1, 701061, Control_c, 0, 64, 98
1, 701081, Control_c, 0, 64, 58
1, 701099, Control_c, 0, 64, 0
1, 701267, Control_c, 0, 64, 18
1, 701286, Control_c, 0, 64, 47
1, 701304, Control_c, 0, 64, 64
1, 701323, Control_c, 0, 64, 78
1, 701341, Control_c, 0, 64, 89
1, 701359, Note_off_c, 0, 67, 57
1, 701361, Control_c, 0, 64, 101
1, 701380, Control_c, 0, 64, 113
1, 701397, Control_c, 0, 64, 121
1, 701417, Control_c, 0, 64, 127
1, 701498, Note_off_c, 0, 55, 53
1, 701498, Poly_aftertouch_c, 0, 55, 0
1, 701725, Note_off_c, 0, 70, 39
1, 701755, Note_off_c, 0, 82, 30
1, 701780, Note_off_c, 0, 73, 51
1, 701789, Note_off_c, 0, 75, 37
1, 702072, Note_on_c, 0, 82, 102
1, 702074, Note_on_c, 0, 70, 101
1, 702075, Note_on_c, 0, 73, 96
1, 702076, Note_on_c, 0, 75, 96
1, 702081, Note_on_c, 0, 55, 97
1, 702086, Note_on_c, 0, 43, 95
1, 702091, Control_c, 0, 64, 110
1, 702108, Control_c, 0, 64, 68
1, 702126, Control_c, 0, 64, 0
1, 702333, Control_c, 0, 64, 26
1, 702352, Control_c, 0, 64, 44
1, 702370, Control_c, 0, 64, 58
1, 702389, Control_c, 0, 64, 70
1, 702407, Control_c, 0, 64, 81
1, 702427, Control_c, 0, 64, 94
1, 702445, Control_c, 0, 64, 112
1, 702463, Control_c, 0, 64, 127
1, 702547, Note_off_c, 0, 43, 59
1, 702547, Poly_aftertouch_c, 0, 43, 0
1, 702622, Note_off_c, 0, 73, 32
1, 702651, Note_off_c, 0, 70, 50
1, 702702, Note_off_c, 0, 55, 59
1, 702702, Poly_aftertouch_c, 0, 55, 0
1, 702738, Note_off_c, 0, 82, 31
1, 703056, Note_off_c, 0, 75, 20
1, 703194, Note_on_c, 0, 83, 101
1, 703196, Note_on_c, 0, 75, 100
1, 703198, Note_on_c, 0, 71, 95
1, 703203, Note_on_c, 0, 56, 99
1, 703208, Note_on_c, 0, 44, 93
1, 703226, Note_on_c, 0, 78, 61
1, 703251, Note_off_c, 0, 78, 59
1, 703263, Note_on_c, 0, 80, 29
1, 703306, Control_c, 0, 64, 105
1, 703307, Note_off_c, 0, 80, 44
1, 703324, Control_c, 0, 64, 72
1, 703342, Control_c, 0, 64, 37
1, 703360, Control_c, 0, 64, 0
1, 703370, Poly_aftertouch_c, 0, 46, 0
1, 704292, Note_off_c, 0, 83, 62
1, 704307, Note_off_c, 0, 71, 63
1, 704312, Note_off_c, 0, 75, 65
1, 704314, Note_off_c, 0, 56, 67
1, 704314, Poly_aftertouch_c, 0, 56, 0
1, 704321, Note_off_c, 0, 44, 63
1, 704321, Poly_aftertouch_c, 0, 44, 0
1, 705311, Note_on_c, 0, 82, 96
1, 705316, Note_on_c, 0, 70, 96
1, 705317, Note_on_c, 0, 73, 93
1, 705320, Note_on_c, 0, 76, 84
1, 705324, Note_on_c, 0, 37, 93
1, 705325, Note_on_c, 0, 49, 96
1, 705343, Control_c, 0, 64, 35
1, 705362, Control_c, 0, 64, 55
1, 705380, Control_c, 0, 64, 74
1, 705383, Note_on_c, 0, 36, 34
1, 705384, Note_off_c, 0, 36, 127
1, 705400, Control_c, 0, 64, 90
1, 705415, Note_off_c, 0, 70, 60
1, 705417, Control_c, 0, 64, 106
1, 705437, Control_c, 0, 64, 120
1, 705446, Poly_aftertouch_c, 0, 36, 0
1, 705447, Note_off_c, 0, 82, 60
1, 705454, Control_c, 0, 64, 127
1, 705461, Note_off_c, 0, 73, 59
1, 705465, Poly_aftertouch_c, 0, 78, 0
1, 705480, Note_off_c, 0, 76, 60
1, 705604, Note_off_c, 0, 37, 55
1, 705669, Note_off_c, 0, 49, 42
1, 705698, Control_c, 0, 64, 122
1, 705718, Control_c, 0, 64, 113
1, 705737, Control_c, 0, 64, 103
1, 705754, Control_c, 0, 64, 93
1, 705773, Control_c, 0, 64, 85
1, 705792, Control_c, 0, 64, 77
1, 705811, Control_c, 0, 64, 71
1, 705829, Control_c, 0, 64, 65
1, 705849, Control_c, 0, 64, 60
1, 705867, Control_c, 0, 64, 54
1, 705885, Control_c, 0, 64, 45
1, 705904, Control_c, 0, 64, 33
1, 705923, Control_c, 0, 64, 15
1, 705942, Control_c, 0, 64, 0
1, 706241, Control_c, 0, 64, 16
1, 706259, Control_c, 0, 64, 21
1, 706279, Control_c, 0, 64, 26
1, 706297, Control_c, 0, 64, 30
1, 706315, Control_c, 0, 64, 36
1, 706335, Control_c, 0, 64, 42
1, 706343, Note_on_c, 0, 79, 94
1, 706346, Note_on_c, 0, 73, 84
1, 706347, Note_on_c, 0, 67, 89
1, 706348, Note_on_c, 0, 70, 85
1, 706354, Control_c, 0, 64, 50
1, 706360, Note_on_c, 0, 51, 94
1, 706364, Note_on_c, 0, 39, 89
1, 706372, Control_c, 0, 64, 59
1, 706390, Control_c, 0, 64, 68
1, 706409, Control_c, 0, 64, 74
1, 706427, Control_c, 0, 64, 82
1, 706447, Control_c, 0, 64, 93
1, 706466, Control_c, 0, 64, 108
1, 706477, Note_off_c, 0, 51, 57
1, 706477, Poly_aftertouch_c, 0, 51, 0
1, 706484, Control_c, 0, 64, 126
1, 706495, Note_off_c, 0, 39, 57
1, 706602, Note_off_c, 0, 79, 60
1, 706602, Poly_aftertouch_c, 0, 79, 0
1, 706617, Note_off_c, 0, 67, 51
1, 706721, Note_off_c, 0, 70, 47
1, 706839, Control_c, 0, 64, 113
1, 706858, Control_c, 0, 64, 97
1, 706877, Control_c, 0, 64, 83
1, 706895, Control_c, 0, 64, 72
1, 706913, Control_c, 0, 64, 65
1, 706916, Note_off_c, 0, 73, 35
1, 706933, Control_c, 0, 64, 59
1, 706952, Control_c, 0, 64, 52
1, 706970, Control_c, 0, 64, 42
1, 706989, Control_c, 0, 64, 26
1, 707007, Control_c, 0, 64, 0
1, 707477, Note_on_c, 0, 80, 96
1, 707481, Note_on_c, 0, 71, 86
1, 707482, Note_on_c, 0, 68, 90
1, 707493, Note_on_c, 0, 44, 95
1, 707494, Note_on_c, 0, 32, 92
1, 707532, Control_c, 0, 64, 31
1, 707550, Control_c, 0, 64, 58
1, 707568, Control_c, 0, 64, 75
1, 707588, Control_c, 0, 64, 89
1, 707606, Control_c, 0, 64, 102
1, 707625, Control_c, 0, 64, 112
1, 707633, Note_off_c, 0, 80, 65
1, 707637, Note_off_c, 0, 68, 60
1, 707642, Control_c, 0, 64, 122
1, 707662, Control_c, 0, 64, 127
1, 707665, Note_off_c, 0, 71, 60
1, 707848, Note_off_c, 0, 44, 52
1, 707848, Poly_aftertouch_c, 0, 44, 0
1, 707861, Note_off_c, 0, 32, 49
1, 707979, Control_c, 0, 64, 116
1, 707999, Control_c, 0, 64, 107
1, 708017, Control_c, 0, 64, 98
1, 708036, Control_c, 0, 64, 90
1, 708054, Control_c, 0, 64, 83
1, 708076, Control_c, 0, 64, 77
1, 708092, Control_c, 0, 64, 70
1, 708110, Control_c, 0, 64, 64
1, 708130, Control_c, 0, 64, 57
1, 708148, Control_c, 0, 64, 51
1, 708166, Control_c, 0, 64, 44
1, 708185, Control_c, 0, 64, 37
1, 708204, Control_c, 0, 64, 28
1, 708223, Control_c, 0, 64, 19
1, 708241, Control_c, 0, 64, 9
1, 708260, Control_c, 0, 64, 0
1, 708578, Note_on_c, 0, 56, 86
1, 708579, Note_on_c, 0, 47, 84
1, 708580, Note_on_c, 0, 51, 82
1, 708590, Note_on_c, 0, 44, 87
1, 708597, Note_on_c, 0, 32, 84
1, 708634, Control_c, 0, 64, 16
1, 708652, Control_c, 0, 64, 32
1, 708672, Control_c, 0, 64, 50
1, 708690, Control_c, 0, 64, 65
1, 708709, Control_c, 0, 64, 74
1, 708727, Control_c, 0, 64, 81
1, 708747, Control_c, 0, 64, 87
1, 708766, Control_c, 0, 64, 93
1, 708783, Control_c, 0, 64, 97
1, 708821, Control_c, 0, 64, 101
1, 708897, Control_c, 0, 67, 8
1, 708914, Note_off_c, 0, 44, 48
1, 708914, Poly_aftertouch_c, 0, 44, 0
1, 708939, Note_off_c, 0, 56, 61
1, 708939, Poly_aftertouch_c, 0, 56, 0
1, 708942, Note_off_c, 0, 47, 54
1, 708942, Poly_aftertouch_c, 0, 47, 0
1, 708945, Note_off_c, 0, 51, 50
1, 708945, Poly_aftertouch_c, 0, 51, 0
1, 709003, Note_off_c, 0, 32, 24
1, 709007, Control_c, 0, 64, 97
1, 709045, Control_c, 0, 64, 92
1, 709064, Control_c, 0, 64, 88
1, 709084, Control_c, 0, 64, 81
1, 709102, Control_c, 0, 64, 72
1, 709119, Control_c, 0, 64, 63
1, 709139, Control_c, 0, 64, 53
1, 709157, Control_c, 0, 64, 39
1, 709176, Control_c, 0, 64, 16
1, 709195, Control_c, 0, 64, 0
1, 709681, Control_c, 0, 67, 12
1, 709740, Note_on_c, 0, 44, 89
1, 709747, Note_on_c, 0, 32, 79
1, 709775, Control_c, 0, 67, 17
1, 709814, Control_c, 0, 64, 32
1, 709815, Control_c, 0, 67, 22
1, 709831, Control_c, 0, 64, 54
1, 709850, Control_c, 0, 64, 70
1, 709869, Control_c, 0, 64, 79
1, 709888, Control_c, 0, 64, 88
1, 709906, Control_c, 0, 64, 98
1, 709924, Control_c, 0, 64, 106
1, 709942, Control_c, 0, 64, 111
1, 709962, Control_c, 0, 64, 115
1, 709999, Control_c, 0, 64, 121
1, 710000, Control_c, 0, 67, 17
1, 710018, Control_c, 0, 64, 125
1, 710019, Control_c, 0, 67, 13
1, 710047, Note_off_c, 0, 32, 52
1, 710140, Note_off_c, 0, 44, 37
1, 710140, Poly_aftertouch_c, 0, 44, 0
1, 710299, Control_c, 0, 67, 8
1, 710356, Control_c, 0, 64, 121
1, 710357, Control_c, 0, 67, 12
1, 710373, Control_c, 0, 64, 111
1, 710392, Control_c, 0, 64, 94
1, 710393, Control_c, 0, 67, 17
1, 710411, Control_c, 0, 64, 75
1, 710413, Control_c, 0, 67, 21
1, 710429, Control_c, 0, 64, 56
1, 710430, Control_c, 0, 67, 26
1, 710448, Control_c, 0, 64, 33
1, 710448, Control_c, 0, 67, 31
1, 710467, Control_c, 0, 64, 0
1, 710468, Control_c, 0, 67, 35
1, 710505, Control_c, 0, 67, 42
1, 710541, Control_c, 0, 67, 46
1, 710636, Control_c, 0, 67, 51
1, 710691, Control_c, 0, 67, 55
1, 710784, Control_c, 0, 67, 59
1, 710823, Control_c, 0, 67, 64
1, 710841, Control_c, 0, 67, 71
1, 710859, Control_c, 0, 67, 83
1, 710877, Control_c, 0, 67, 99
1, 710897, Control_c, 0, 67, 118
1, 710915, Control_c, 0, 67, 127
1, 710934, Control_c, 0, 64, 13
1, 710952, Control_c, 0, 64, 18
1, 711084, Control_c, 0, 64, 22
1, 711195, Control_c, 0, 64, 26
1, 711233, Control_c, 0, 64, 32
1, 711309, Control_c, 0, 64, 36
1, 711365, Control_c, 0, 64, 40
1, 711420, Control_c, 0, 64, 42
1, 711457, Control_c, 0, 64, 45
1, 711495, Control_c, 0, 64, 48
1, 711514, Control_c, 0, 64, 50
1, 711532, Control_c, 0, 64, 53
1, 711553, Control_c, 0, 64, 56
1, 711570, Control_c, 0, 64, 58
1, 711589, Control_c, 0, 64, 60
1, 711607, Control_c, 0, 64, 61
1, 711625, Control_c, 0, 64, 62
1, 711645, Control_c, 0, 64, 64
1, 711662, Control_c, 0, 64, 65
1, 711720, Control_c, 0, 64, 66
1, 711757, Control_c, 0, 64, 67
1, 711813, Control_c, 0, 64, 68
1, 711887, Control_c, 0, 64, 70
1, 711981, Control_c, 0, 64, 72
1, 712056, Control_c, 0, 64, 74
1, 712094, Control_c, 0, 64, 76
1, 712130, Control_c, 0, 64, 78
1, 712168, Control_c, 0, 64, 81
1, 712187, Control_c, 0, 64, 83
1, 712205, Control_c, 0, 64, 85
1, 712220, Note_on_c, 0, 60, 17
1, 712223, Control_c, 0, 64, 88
1, 712227, Note_on_c, 0, 32, 10
1, 712262, Control_c, 0, 64, 96
1, 712280, Control_c, 0, 64, 101
1, 712300, Control_c, 0, 64, 107
1, 712318, Control_c, 0, 64, 112
1, 712336, Control_c, 0, 64, 116
1, 712348, Note_on_c, 0, 44, 37
1, 712353, Control_c, 0, 64, 121
1, 712372, Control_c, 0, 64, 125
1, 712376, Note_on_c, 0, 51, 25
1, 712381, Note_off_c, 0, 60, 26
1, 712381, Poly_aftertouch_c, 0, 60, 0
1, 712389, Note_off_c, 0, 32, 34
1, 712488, Note_off_c, 0, 44, 37
1, 712488, Poly_aftertouch_c, 0, 44, 0
1, 712496, Note_off_c, 0, 51, 32
1, 712496, Poly_aftertouch_c, 0, 51, 0
1, 712520, Note_on_c, 0, 32, 33
1, 712525, Note_on_c, 0, 60, 38
1, 712575, Note_off_c, 0, 60, 49
1, 712575, Poly_aftertouch_c, 0, 60, 0
1, 712600, Note_off_c, 0, 32, 49
1, 712636, Note_on_c, 0, 44, 23
1, 712650, Note_on_c, 0, 51, 29
1, 712713, Note_off_c, 0, 51, 45
1, 712713, Poly_aftertouch_c, 0, 51, 0
1, 712719, Note_off_c, 0, 44, 47
1, 712719, Poly_aftertouch_c, 0, 44, 0
1, 712758, Note_on_c, 0, 60, 38
1, 712759, Note_on_c, 0, 32, 46
1, 712817, Note_off_c, 0, 60, 46
1, 712817, Poly_aftertouch_c, 0, 60, 0
1, 712822, Note_off_c, 0, 32, 54
1, 712868, Note_on_c, 0, 44, 35
1, 712868, Note_on_c, 0, 51, 48
1, 712941, Note_off_c, 0, 51, 48
1, 712941, Poly_aftertouch_c, 0, 51, 0
1, 712957, Note_off_c, 0, 44, 48
1, 712957, Poly_aftertouch_c, 0, 44, 0
1, 712984, Note_on_c, 0, 60, 48
1, 712992, Note_on_c, 0, 32, 50
1, 713061, Note_off_c, 0, 60, 50
1, 713061, Poly_aftertouch_c, 0, 60, 0
1, 713065, Note_off_c, 0, 32, 53
1, 713089, Note_on_c, 0, 51, 54
1, 713096, Note_on_c, 0, 44, 39
1, 713193, Note_off_c, 0, 51, 54
1, 713193, Poly_aftertouch_c, 0, 51, 0
1, 713195, Note_off_c, 0, 44, 50
1, 713195, Poly_aftertouch_c, 0, 44, 0
1, 713209, Note_on_c, 0, 32, 65
1, 713212, Note_on_c, 0, 60, 64
1, 713271, Control_c, 0, 67, 122
1, 713290, Control_c, 0, 67, 116
1, 713303, Note_off_c, 0, 32, 54
1, 713307, Control_c, 0, 67, 112
1, 713308, Note_off_c, 0, 60, 57
1, 713308, Poly_aftertouch_c, 0, 60, 0
1, 713320, Note_on_c, 0, 51, 66
1, 713321, Note_on_c, 0, 44, 54
1, 713327, Control_c, 0, 67, 107
1, 713346, Control_c, 0, 67, 102
1, 713365, Control_c, 0, 67, 96
1, 713384, Control_c, 0, 67, 88
1, 713402, Control_c, 0, 67, 79
1, 713418, Note_off_c, 0, 51, 56
1, 713418, Poly_aftertouch_c, 0, 51, 0
1, 713420, Control_c, 0, 67, 70
1, 713435, Note_on_c, 0, 60, 73
1, 713439, Control_c, 0, 67, 61
1, 713446, Note_off_c, 0, 44, 57
1, 713446, Note_on_c, 0, 32, 65
1, 713446, Poly_aftertouch_c, 0, 44, 0
1, 713459, Control_c, 0, 67, 53
1, 713477, Control_c, 0, 67, 45
1, 713495, Control_c, 0, 67, 36
1, 713515, Control_c, 0, 67, 26
1, 713533, Control_c, 0, 67, 15
1, 713534, Note_off_c, 0, 32, 54
1, 713542, Note_off_c, 0, 60, 58
1, 713542, Note_on_c, 0, 51, 74
1, 713542, Poly_aftertouch_c, 0, 60, 0
1, 713544, Note_on_c, 0, 44, 63
1, 713608, Control_c, 0, 67, 0
1, 713648, Note_on_c, 0, 60, 81
1, 713649, Note_off_c, 0, 51, 58
1, 713649, Poly_aftertouch_c, 0, 51, 0
1, 713654, Note_on_c, 0, 32, 74
1, 713661, Note_off_c, 0, 44, 59
1, 713661, Poly_aftertouch_c, 0, 44, 0
1, 713757, Note_on_c, 0, 51, 79
1, 713759, Note_on_c, 0, 44, 70
1, 713768, Note_off_c, 0, 60, 59
1, 713768, Poly_aftertouch_c, 0, 60, 0
1, 713769, Note_off_c, 0, 32, 54
1, 713872, Note_on_c, 0, 60, 87
1, 713874, Note_on_c, 0, 32, 77
1, 713879, Note_off_c, 0, 51, 61
1, 713879, Poly_aftertouch_c, 0, 51, 0
1, 713881, Note_off_c, 0, 44, 61
1, 713881, Poly_aftertouch_c, 0, 44, 0
1, 713972, Note_on_c, 0, 51, 79
1, 714001, Note_off_c, 0, 60, 63
1, 714001, Note_on_c, 0, 44, 76
1, 714001, Poly_aftertouch_c, 0, 60, 0
1, 714019, Note_off_c, 0, 32, 56
1, 714112, Control_c, 0, 64, 99
1, 714132, Control_c, 0, 64, 64
1, 714136, Note_off_c, 0, 44, 63
1, 714136, Poly_aftertouch_c, 0, 44, 0
1, 714145, Note_on_c, 0, 56, 87
1, 714150, Control_c, 0, 64, 22
1, 714152, Note_on_c, 0, 48, 83
1, 714152, Note_on_c, 0, 32, 93
1, 714169, Control_c, 0, 64, 0
1, 714185, Note_off_c, 0, 51, 57
1, 714185, Poly_aftertouch_c, 0, 51, 0
1, 714206, Control_c, 0, 64, 10
1, 714223, Note_off_c, 0, 48, 63
1, 714224, Control_c, 0, 64, 37
1, 714245, Control_c, 0, 64, 59
1, 714262, Note_off_c, 0, 32, 61
1, 714263, Control_c, 0, 64, 78
1, 714271, Note_off_c, 0, 56, 60
1, 714271, Poly_aftertouch_c, 0, 56, 0
1, 714281, Control_c, 0, 64, 94
1, 714300, Control_c, 0, 64, 113
1, 714319, Control_c, 0, 64, 127
1, 714470, Control_c, 0, 64, 121
1, 714486, Control_c, 0, 64, 110
1, 714505, Control_c, 0, 64, 97
1, 714525, Control_c, 0, 64, 82
1, 714543, Control_c, 0, 64, 69
1, 714561, Control_c, 0, 64, 58
1, 714580, Control_c, 0, 64, 49
1, 714599, Control_c, 0, 64, 34
1, 714636, Control_c, 0, 64, 0
1, 715005, Note_on_c, 0, 72, 86
1, 715012, Note_on_c, 0, 68, 77
1, 715013, Note_on_c, 0, 60, 80
1, 715017, Note_on_c, 0, 56, 73
1, 715118, Note_off_c, 0, 60, 58
1, 715118, Poly_aftertouch_c, 0, 60, 0
1, 715119, Note_off_c, 0, 68, 42
1, 715140, Note_off_c, 0, 56, 57
1, 715140, Poly_aftertouch_c, 0, 56, 0
1, 715148, Note_off_c, 0, 72, 51
1, 715253, Note_on_c, 0, 75, 89
1, 715255, Note_on_c, 0, 72, 93
1, 715259, Note_on_c, 0, 63, 90
1, 715277, Note_on_c, 0, 60, 69
1, 715283, Note_on_c, 0, 59, 74
1, 715361, Note_off_c, 0, 59, 38
1, 715361, Poly_aftertouch_c, 0, 59, 0
1, 715364, Control_c, 0, 64, 19
1, 715384, Control_c, 0, 64, 34
1, 715404, Control_c, 0, 64, 46
1, 715421, Control_c, 0, 64, 55
1, 715441, Control_c, 0, 64, 62
1, 715459, Control_c, 0, 64, 66
1, 715478, Control_c, 0, 64, 69
1, 715496, Control_c, 0, 64, 72
1, 715515, Control_c, 0, 64, 74
1, 715519, Note_off_c, 0, 63, 58
1, 715569, Note_off_c, 0, 72, 55
1, 715578, Note_off_c, 0, 75, 59
1, 715609, Control_c, 0, 64, 72
1, 715679, Note_off_c, 0, 60, 62
1, 715679, Poly_aftertouch_c, 0, 60, 0
1, 715740, Control_c, 0, 64, 74
1, 715815, Control_c, 0, 64, 72
1, 715833, Control_c, 0, 64, 68
1, 715836, Control_c, 0, 67, 9
1, 715851, Control_c, 0, 64, 60
1, 715871, Control_c, 0, 64, 51
1, 715873, Control_c, 0, 67, 13
1, 715889, Control_c, 0, 64, 35
1, 715909, Control_c, 0, 64, 0
1, 715910, Control_c, 0, 67, 19
1, 715926, Control_c, 0, 67, 23
1, 715945, Control_c, 0, 67, 28
1, 715963, Control_c, 0, 67, 33
1, 715982, Control_c, 0, 67, 39
1, 716001, Control_c, 0, 67, 45
1, 716020, Control_c, 0, 67, 53
1, 716038, Control_c, 0, 67, 60
1, 716058, Control_c, 0, 67, 65
1, 716076, Control_c, 0, 67, 69
1, 716094, Control_c, 0, 67, 73
1, 716113, Control_c, 0, 67, 77
1, 716132, Control_c, 0, 67, 82
1, 716151, Control_c, 0, 67, 86
1, 716169, Control_c, 0, 64, 8
1, 716171, Control_c, 0, 67, 90
1, 716189, Control_c, 0, 64, 16
1, 716207, Control_c, 0, 64, 22
1, 716208, Control_c, 0, 67, 97
1, 716225, Control_c, 0, 64, 30
1, 716245, Control_c, 0, 64, 38
1, 716246, Control_c, 0, 67, 103
1, 716263, Control_c, 0, 64, 45
1, 716282, Control_c, 0, 64, 51
1, 716283, Control_c, 0, 67, 107
1, 716301, Control_c, 0, 64, 55
1, 716319, Control_c, 0, 64, 60
1, 716339, Control_c, 0, 64, 65
1, 716356, Control_c, 0, 64, 68
1, 716374, Note_on_c, 0, 32, 36
1, 716374, Control_c, 0, 64, 72
1, 716395, Control_c, 0, 64, 75
1, 716412, Control_c, 0, 64, 77
1, 716431, Control_c, 0, 64, 80
1, 716450, Control_c, 0, 64, 84
1, 716462, Poly_aftertouch_c, 0, 60, 127
1, 716467, Control_c, 0, 64, 88
1, 716488, Control_c, 0, 64, 95
1, 716493, Note_on_c, 0, 51, 41
1, 716506, Control_c, 0, 64, 102
1, 716515, Note_on_c, 0, 44, 36
1, 716515, Poly_aftertouch_c, 0, 60, 0
1, 716525, Control_c, 0, 64, 109
1, 716527, Note_off_c, 0, 32, 37
1, 716544, Control_c, 0, 64, 115
1, 716561, Control_c, 0, 64, 121
1, 716581, Control_c, 0, 64, 127
1, 716609, Note_off_c, 0, 44, 48
1, 716609, Poly_aftertouch_c, 0, 44, 0
1, 716631, Note_off_c, 0, 51, 49
1, 716631, Poly_aftertouch_c, 0, 51, 0
1, 716635, Note_on_c, 0, 32, 45
1, 716636, Control_c, 0, 67, 103
1, 716647, Note_on_c, 0, 60, 46
1, 716675, Control_c, 0, 67, 98
1, 716693, Control_c, 0, 67, 94
1, 716712, Control_c, 0, 67, 88
1, 716721, Note_off_c, 0, 60, 54
1, 716731, Control_c, 0, 67, 81
1, 716742, Note_on_c, 0, 51, 45
1, 716750, Control_c, 0, 67, 74
1, 716751, Note_off_c, 0, 32, 51
1, 716767, Control_c, 0, 67, 67
1, 716776, Note_on_c, 0, 44, 45
1, 716787, Control_c, 0, 67, 59
1, 716805, Control_c, 0, 67, 52
1, 716824, Control_c, 0, 67, 44
1, 716842, Note_off_c, 0, 51, 53
1, 716842, Note_off_c, 0, 44, 53
1, 716842, Poly_aftertouch_c, 0, 44, 0
1, 716842, Poly_aftertouch_c, 0, 51, 0
1, 716842, Control_c, 0, 67, 37
1, 716860, Note_on_c, 0, 60, 61
1, 716862, Control_c, 0, 67, 29
1, 716870, Note_on_c, 0, 32, 49
1, 716880, Control_c, 0, 67, 21
1, 716898, Control_c, 0, 67, 12
1, 716951, Note_off_c, 0, 60, 57
1, 716951, Note_on_c, 0, 51, 57
1, 716970, Note_off_c, 0, 32, 54
1, 716976, Note_on_c, 0, 44, 59
1, 717067, Note_off_c, 0, 51, 56
1, 717067, Poly_aftertouch_c, 0, 51, 0
1, 717073, Note_on_c, 0, 60, 67
1, 717079, Note_off_c, 0, 44, 58
1, 717079, Poly_aftertouch_c, 0, 44, 0
1, 717089, Note_on_c, 0, 32, 63
1, 717123, Control_c, 0, 67, 0
1, 717171, Note_on_c, 0, 51, 70
1, 717183, Note_off_c, 0, 60, 59
1, 717190, Note_off_c, 0, 32, 57
1, 717197, Note_on_c, 0, 44, 68
1, 717287, Note_on_c, 0, 60, 78
1, 717289, Note_off_c, 0, 51, 59
1, 717289, Poly_aftertouch_c, 0, 51, 0
1, 717296, Note_off_c, 0, 44, 60
1, 717296, Poly_aftertouch_c, 0, 44, 0
1, 717299, Note_on_c, 0, 32, 72
1, 717396, Note_on_c, 0, 51, 78
1, 717408, Note_on_c, 0, 44, 72
1, 717412, Note_off_c, 0, 32, 59
1, 717413, Note_off_c, 0, 60, 60
1, 717496, Note_off_c, 0, 44, 60
1, 717496, Poly_aftertouch_c, 0, 44, 0
1, 717497, Note_on_c, 0, 60, 80
1, 717507, Note_on_c, 0, 32, 77
1, 717515, Note_off_c, 0, 51, 60
1, 717515, Poly_aftertouch_c, 0, 51, 0
1, 717607, Note_on_c, 0, 51, 81
1, 717608, Note_on_c, 0, 44, 79
1, 717616, Note_off_c, 0, 32, 61
1, 717623, Note_off_c, 0, 60, 59
1, 717701, Note_off_c, 0, 44, 62
1, 717701, Poly_aftertouch_c, 0, 44, 0
1, 717712, Note_on_c, 0, 32, 84
1, 717715, Note_on_c, 0, 60, 89
1, 717722, Poly_aftertouch_c, 0, 54, 0
1, 717723, Note_off_c, 0, 51, 60
1, 717723, Poly_aftertouch_c, 0, 51, 0
1, 717813, Note_on_c, 0, 44, 83
1, 717816, Note_on_c, 0, 51, 89
1, 717831, Note_off_c, 0, 32, 62
1, 717832, Note_off_c, 0, 60, 62
1, 717914, Note_off_c, 0, 44, 62
1, 717914, Poly_aftertouch_c, 0, 44, 0
1, 717926, Note_on_c, 0, 60, 92
1, 717930, Note_on_c, 0, 32, 89
1, 717932, Note_off_c, 0, 51, 58
1, 717932, Poly_aftertouch_c, 0, 51, 0
1, 718012, Note_on_c, 0, 51, 76
1, 718033, Note_on_c, 0, 44, 85
1, 718044, Note_off_c, 0, 60, 64
1, 718056, Note_off_c, 0, 32, 60
1, 718073, Poly_aftertouch_c, 0, 38, 0
1, 718164, Note_off_c, 0, 51, 55
1, 718164, Poly_aftertouch_c, 0, 51, 0
1, 718170, Note_off_c, 0, 44, 59
1, 718170, Poly_aftertouch_c, 0, 44, 0
1, 718170, Control_c, 0, 64, 117
1, 718182, Note_on_c, 0, 56, 92
1, 718183, Note_on_c, 0, 48, 92
1, 718186, Note_on_c, 0, 32, 101
1, 718188, Control_c, 0, 64, 74
1, 718208, Control_c, 0, 64, 16
1, 718227, Control_c, 0, 64, 0
1, 718245, Note_off_c, 0, 48, 65
1, 718263, Control_c, 0, 64, 21
1, 718283, Control_c, 0, 64, 57
1, 718285, Note_off_c, 0, 32, 60
1, 718288, Poly_aftertouch_c, 0, 51, 0
1, 718300, Note_off_c, 0, 56, 66
1, 718300, Poly_aftertouch_c, 0, 56, 0
1, 718301, Control_c, 0, 64, 86
1, 718320, Control_c, 0, 64, 119
1, 718338, Control_c, 0, 64, 127
1, 718713, Control_c, 0, 64, 93
1, 718731, Control_c, 0, 64, 56
1, 718750, Control_c, 0, 64, 0
1, 719005, Note_on_c, 0, 84, 92
1, 719009, Note_on_c, 0, 80, 83
1, 719010, Note_on_c, 0, 72, 85
1, 719014, Note_on_c, 0, 68, 78
1, 719068, Note_off_c, 0, 80, 56
1, 719085, Note_off_c, 0, 72, 56
1, 719096, Note_off_c, 0, 68, 59
1, 719107, Note_off_c, 0, 84, 56
1, 719246, Note_on_c, 0, 87, 98
1, 719249, Note_on_c, 0, 84, 96
1, 719256, Note_on_c, 0, 75, 96
1, 719260, Note_on_c, 0, 72, 88
1, 719311, Control_c, 0, 64, 13
1, 719330, Control_c, 0, 64, 36
1, 719348, Control_c, 0, 64, 54
1, 719369, Control_c, 0, 64, 69
1, 719385, Control_c, 0, 64, 81
1, 719405, Control_c, 0, 64, 94
1, 719419, Note_off_c, 0, 75, 64
1, 719423, Control_c, 0, 64, 113
1, 719442, Control_c, 0, 64, 127
1, 719453, Note_off_c, 0, 84, 60
1, 719463, Note_off_c, 0, 72, 55
1, 719471, Note_off_c, 0, 87, 62
1, 719703, Control_c, 0, 64, 118
1, 719722, Control_c, 0, 64, 87
1, 719741, Control_c, 0, 64, 55
1, 719759, Control_c, 0, 64, 0
1, 720209, Control_c, 0, 64, 17
1, 720227, Control_c, 0, 64, 35
1, 720246, Control_c, 0, 64, 51
1, 720252, Note_on_c, 0, 58, 105
1, 720257, Note_on_c, 0, 46, 92
1, 720265, Control_c, 0, 64, 67
1, 720283, Control_c, 0, 64, 79
1, 720303, Control_c, 0, 64, 93
1, 720311, Note_off_c, 0, 58, 65
1, 720311, Poly_aftertouch_c, 0, 58, 0
1, 720320, Control_c, 0, 64, 113
1, 720334, Note_off_c, 0, 46, 59
1, 720338, Control_c, 0, 64, 127
1, 721037, Note_on_c, 0, 79, 91
1, 721041, Note_on_c, 0, 67, 82
1, 721044, Note_on_c, 0, 75, 80
1, 721050, Note_on_c, 0, 63, 76
1, 721069, Control_c, 0, 64, 121
1, 721087, Control_c, 0, 64, 108
1, 721106, Control_c, 0, 64, 95
1, 721113, Note_off_c, 0, 75, 54
1, 721122, Note_off_c, 0, 63, 58
1, 721124, Control_c, 0, 64, 83
1, 721130, Note_off_c, 0, 67, 62
1, 721143, Control_c, 0, 64, 73
1, 721163, Control_c, 0, 64, 65
1, 721170, Note_off_c, 0, 79, 56
1, 721170, Poly_aftertouch_c, 0, 79, 0
1, 721182, Control_c, 0, 64, 56
1, 721199, Control_c, 0, 64, 41
1, 721218, Control_c, 0, 64, 0
1, 721266, Note_on_c, 0, 82, 101
1, 721272, Note_on_c, 0, 70, 96
1, 721554, Control_c, 0, 64, 21
1, 721574, Control_c, 0, 64, 40
1, 721592, Control_c, 0, 64, 54
1, 721611, Control_c, 0, 64, 65
1, 721629, Control_c, 0, 64, 71
1, 721649, Control_c, 0, 64, 75
1, 721667, Control_c, 0, 64, 79
1, 721675, Note_off_c, 0, 70, 64
1, 721684, Note_off_c, 0, 82, 61
1, 721686, Control_c, 0, 64, 84
1, 721704, Control_c, 0, 64, 90
1, 721723, Control_c, 0, 64, 97
1, 721741, Control_c, 0, 64, 102
1, 721762, Control_c, 0, 64, 106
1, 721779, Control_c, 0, 64, 110
1, 721855, Control_c, 0, 64, 104
1, 721872, Control_c, 0, 64, 88
1, 721892, Control_c, 0, 64, 64
1, 721910, Control_c, 0, 64, 34
1, 721928, Control_c, 0, 64, 0
1, 722247, Control_c, 0, 64, 31
1, 722259, Note_on_c, 0, 58, 104
1, 722264, Control_c, 0, 64, 50
1, 722265, Note_on_c, 0, 46, 93
1, 722284, Control_c, 0, 64, 67
1, 722303, Control_c, 0, 64, 81
1, 722318, Note_off_c, 0, 58, 62
1, 722318, Poly_aftertouch_c, 0, 58, 0
1, 722321, Control_c, 0, 64, 95
1, 722341, Control_c, 0, 64, 115
1, 722359, Control_c, 0, 64, 127
1, 722367, Note_off_c, 0, 46, 62
1, 723051, Control_c, 0, 64, 122
1, 723066, Note_on_c, 0, 77, 96
1, 723067, Note_on_c, 0, 65, 80
1, 723069, Note_on_c, 0, 74, 83
1, 723069, Control_c, 0, 64, 104
1, 723078, Note_on_c, 0, 62, 67
1, 723088, Control_c, 0, 64, 84
1, 723108, Control_c, 0, 64, 68
1, 723126, Control_c, 0, 64, 58
1, 723143, Control_c, 0, 64, 53
1, 723150, Note_off_c, 0, 62, 60
1, 723163, Control_c, 0, 64, 49
1, 723178, Note_off_c, 0, 65, 63
1, 723181, Control_c, 0, 64, 44
1, 723201, Control_c, 0, 64, 41
1, 723219, Control_c, 0, 64, 35
1, 723230, Note_off_c, 0, 74, 52
1, 723237, Control_c, 0, 64, 23
1, 723252, Note_off_c, 0, 77, 61
1, 723256, Control_c, 0, 64, 0
1, 723295, Note_on_c, 0, 82, 98
1, 723301, Note_on_c, 0, 70, 95
1, 723499, Control_c, 0, 64, 30
1, 723518, Control_c, 0, 64, 50
1, 723537, Control_c, 0, 64, 67
1, 723555, Control_c, 0, 64, 78
1, 723575, Control_c, 0, 64, 90
1, 723584, Note_off_c, 0, 70, 63
1, 723593, Control_c, 0, 64, 103
1, 723610, Control_c, 0, 64, 116
1, 723625, Note_off_c, 0, 82, 63
1, 723629, Control_c, 0, 64, 125
1, 723836, Control_c, 0, 64, 117
1, 723856, Control_c, 0, 64, 109
1, 723874, Control_c, 0, 64, 97
1, 723892, Control_c, 0, 64, 83
1, 723913, Control_c, 0, 64, 68
1, 723930, Control_c, 0, 64, 51
1, 723948, Control_c, 0, 64, 21
1, 723966, Control_c, 0, 64, 0
1, 724032, Note_on_c, 0, 58, 89
1, 724033, Note_on_c, 0, 46, 86
1, 724033, Note_on_c, 0, 70, 87
1, 724040, Control_c, 0, 64, 19
1, 724060, Control_c, 0, 64, 43
1, 724068, Note_off_c, 0, 46, 65
1, 724079, Control_c, 0, 64, 62
1, 724089, Note_off_c, 0, 58, 58
1, 724089, Poly_aftertouch_c, 0, 58, 0
1, 724096, Control_c, 0, 64, 76
1, 724117, Control_c, 0, 64, 84
1, 724136, Control_c, 0, 64, 90
1, 724191, Control_c, 0, 64, 81
1, 724206, Note_off_c, 0, 70, 61
1, 724209, Control_c, 0, 64, 65
1, 724229, Control_c, 0, 64, 43
1, 724247, Control_c, 0, 64, 0
1, 724273, Note_on_c, 0, 75, 105
1, 724276, Note_on_c, 0, 63, 99
1, 724279, Note_on_c, 0, 51, 96
1, 724322, Control_c, 0, 64, 32
1, 724337, Note_off_c, 0, 75, 67
1, 724342, Control_c, 0, 64, 54
1, 724360, Control_c, 0, 64, 70
1, 724378, Control_c, 0, 64, 81
1, 724398, Control_c, 0, 64, 90
1, 724417, Control_c, 0, 64, 99
1, 724425, Note_off_c, 0, 63, 58
1, 724434, Control_c, 0, 64, 106
1, 724435, Note_off_c, 0, 51, 58
1, 724454, Control_c, 0, 64, 110
1, 724491, Control_c, 0, 64, 115
1, 724642, Control_c, 0, 64, 111
1, 724678, Control_c, 0, 64, 102
1, 724696, Control_c, 0, 64, 92
1, 724715, Control_c, 0, 64, 80
1, 724734, Control_c, 0, 64, 69
1, 724752, Control_c, 0, 64, 61
1, 724770, Control_c, 0, 64, 56
1, 724790, Control_c, 0, 64, 50
1, 724808, Control_c, 0, 64, 43
1, 724827, Control_c, 0, 64, 35
1, 724845, Control_c, 0, 64, 22
1, 724883, Control_c, 0, 64, 0
1, 724990, Note_on_c, 0, 58, 94
1, 725126, Note_off_c, 0, 58, 57
1, 725126, Poly_aftertouch_c, 0, 58, 0
1, 725248, Note_on_c, 0, 51, 98
1, 725248, Note_on_c, 0, 46, 88
1, 725248, Note_on_c, 0, 63, 97
1, 725249, Note_on_c, 0, 43, 85
1, 725251, Note_on_c, 0, 39, 88
1, 725277, Control_c, 0, 64, 31
1, 725294, Control_c, 0, 64, 56
1, 725314, Control_c, 0, 64, 75
1, 725317, Note_off_c, 0, 63, 62
1, 725333, Control_c, 0, 64, 91
1, 725351, Control_c, 0, 64, 110
1, 725368, Control_c, 0, 64, 126
1, 725383, Note_off_c, 0, 51, 60
1, 725399, Note_off_c, 0, 43, 62
1, 725399, Poly_aftertouch_c, 0, 43, 0
1, 725410, Note_off_c, 0, 46, 60
1, 725443, Note_off_c, 0, 39, 59
1, 725669, Control_c, 0, 64, 117
1, 725687, Control_c, 0, 64, 107
1, 725707, Control_c, 0, 64, 93
1, 725724, Control_c, 0, 64, 79
1, 725743, Control_c, 0, 64, 67
1, 725762, Control_c, 0, 64, 56
1, 725780, Control_c, 0, 64, 46
1, 725800, Control_c, 0, 64, 31
1, 725818, Control_c, 0, 64, 0
1, 726009, Note_on_c, 0, 46, 94
1, 726160, Note_off_c, 0, 46, 54
1, 726272, Note_on_c, 0, 51, 92
1, 726273, Note_on_c, 0, 43, 91
1, 726281, Note_on_c, 0, 39, 92
1, 726360, Control_c, 0, 64, 8
1, 726379, Control_c, 0, 64, 32
1, 726398, Control_c, 0, 64, 49
1, 726417, Control_c, 0, 64, 62
1, 726435, Control_c, 0, 64, 72
1, 726451, Note_off_c, 0, 39, 59
1, 726453, Control_c, 0, 64, 79
1, 726456, Note_off_c, 0, 51, 55
1, 726473, Control_c, 0, 64, 87
1, 726492, Control_c, 0, 64, 96
1, 726497, Note_off_c, 0, 43, 57
1, 726497, Poly_aftertouch_c, 0, 43, 0
1, 726509, Control_c, 0, 64, 105
1, 726529, Control_c, 0, 64, 112
1, 726548, Control_c, 0, 64, 119
1, 726566, Control_c, 0, 64, 123
1, 726605, Control_c, 0, 64, 127
1, 726754, Control_c, 0, 64, 118
1, 726771, Control_c, 0, 64, 96
1, 726791, Control_c, 0, 64, 66
1, 726794, Control_c, 0, 67, 8
1, 726810, Control_c, 0, 64, 27
1, 726811, Control_c, 0, 67, 12
1, 726828, Control_c, 0, 64, 0
1, 726846, Control_c, 0, 67, 20
1, 726866, Control_c, 0, 67, 27
1, 726884, Control_c, 0, 67, 35
1, 726901, Control_c, 0, 67, 44
1, 726922, Control_c, 0, 67, 51
1, 726939, Control_c, 0, 67, 55
1, 726976, Control_c, 0, 67, 61
1, 727146, Control_c, 0, 67, 65
1, 727183, Control_c, 0, 67, 72
1, 727201, Control_c, 0, 67, 82
1, 727221, Control_c, 0, 67, 96
1, 727238, Control_c, 0, 67, 113
1, 727258, Control_c, 0, 67, 127
1, 727332, Control_c, 0, 64, 13
1, 727353, Control_c, 0, 64, 25
1, 727369, Control_c, 0, 64, 33
1, 727388, Control_c, 0, 64, 41
1, 727408, Control_c, 0, 64, 47
1, 727426, Control_c, 0, 64, 53
1, 727445, Control_c, 0, 64, 59
1, 727463, Control_c, 0, 64, 63
1, 727483, Control_c, 0, 64, 66
1, 727501, Control_c, 0, 64, 68
1, 727538, Control_c, 0, 64, 70
1, 727575, Control_c, 0, 64, 72
1, 727632, Control_c, 0, 64, 74
1, 727706, Control_c, 0, 64, 76
1, 727780, Control_c, 0, 64, 78
1, 728062, Control_c, 0, 64, 76
1, 728474, Control_c, 0, 64, 78
1, 728548, Control_c, 0, 64, 80
1, 728585, Control_c, 0, 64, 83
1, 728604, Note_on_c, 0, 60, 25
1, 728611, Note_on_c, 0, 32, 17
1, 728623, Control_c, 0, 64, 86
1, 728661, Control_c, 0, 64, 91
1, 728699, Control_c, 0, 64, 96
1, 728709, Note_off_c, 0, 60, 35
1, 728734, Control_c, 0, 64, 100
1, 728743, Note_on_c, 0, 44, 27
1, 728751, Note_off_c, 0, 32, 33
1, 728758, Note_on_c, 0, 51, 21
1, 728773, Control_c, 0, 64, 104
1, 728825, Note_off_c, 0, 51, 43
1, 728835, Note_on_c, 0, 60, 26
1, 728843, Note_off_c, 0, 44, 37
1, 728843, Poly_aftertouch_c, 0, 44, 0
1, 728846, Control_c, 0, 64, 109
1, 728857, Note_on_c, 0, 32, 25
1, 728915, Note_off_c, 0, 60, 51
1, 728940, Control_c, 0, 64, 113
1, 728946, Note_on_c, 0, 51, 34
1, 728965, Note_off_c, 0, 32, 46
1, 728971, Note_on_c, 0, 44, 32
1, 729011, Note_off_c, 0, 51, 50
1, 729042, Note_on_c, 0, 60, 39
1, 729053, Note_off_c, 0, 44, 47
1, 729053, Poly_aftertouch_c, 0, 44, 0
1, 729067, Note_on_c, 0, 32, 31
1, 729121, Note_off_c, 0, 60, 54
1, 729127, Control_c, 0, 64, 117
1, 729152, Note_on_c, 0, 51, 45
1, 729153, Note_off_c, 0, 32, 53
1, 729164, Note_on_c, 0, 44, 33
1, 729207, Note_off_c, 0, 51, 54
1, 729223, Control_c, 0, 64, 121
1, 729242, Note_on_c, 0, 60, 44
1, 729250, Note_off_c, 0, 44, 50
1, 729250, Poly_aftertouch_c, 0, 44, 0
1, 729275, Note_on_c, 0, 32, 53
1, 729326, Note_off_c, 0, 60, 57
1, 729333, Control_c, 0, 64, 125
1, 729345, Note_on_c, 0, 51, 55
1, 729369, Note_off_c, 0, 32, 58
1, 729380, Note_on_c, 0, 44, 46
1, 729432, Note_off_c, 0, 51, 49
1, 729469, Note_on_c, 0, 60, 59
1, 729475, Note_off_c, 0, 44, 50
1, 729475, Poly_aftertouch_c, 0, 44, 0
1, 729479, Note_on_c, 0, 32, 60
1, 729547, Note_off_c, 0, 60, 55
1, 729557, Control_c, 0, 67, 123
1, 729564, Note_off_c, 0, 32, 59
1, 729568, Note_on_c, 0, 51, 65
1, 729573, Note_on_c, 0, 44, 54
1, 729576, Control_c, 0, 67, 119
1, 729614, Control_c, 0, 67, 111
1, 729632, Control_c, 0, 67, 106
1, 729651, Control_c, 0, 67, 101
1, 729661, Note_off_c, 0, 51, 60
1, 729666, Note_off_c, 0, 44, 60
1, 729666, Poly_aftertouch_c, 0, 44, 0
1, 729670, Control_c, 0, 67, 94
1, 729671, Note_on_c, 0, 32, 76
1, 729674, Note_on_c, 0, 60, 75
1, 729688, Control_c, 0, 67, 86
1, 729707, Control_c, 0, 67, 78
1, 729726, Control_c, 0, 67, 69
1, 729744, Control_c, 0, 67, 59
1, 729764, Note_on_c, 0, 44, 70
1, 729764, Control_c, 0, 67, 48
1, 729770, Note_off_c, 0, 60, 62
1, 729771, Note_off_c, 0, 32, 59
1, 729774, Note_on_c, 0, 51, 76
1, 729782, Control_c, 0, 67, 36
1, 729801, Control_c, 0, 67, 26
1, 729819, Control_c, 0, 67, 15
1, 729862, Note_off_c, 0, 51, 58
1, 729864, Note_on_c, 0, 60, 80
1, 729866, Note_off_c, 0, 44, 58
1, 729866, Poly_aftertouch_c, 0, 44, 0
1, 729868, Note_on_c, 0, 32, 82
1, 729895, Control_c, 0, 67, 0
1, 729960, Note_on_c, 0, 44, 78
1, 729970, Note_on_c, 0, 51, 83
1, 729972, Note_off_c, 0, 32, 60
1, 729979, Note_off_c, 0, 60, 62
1, 730061, Note_off_c, 0, 44, 62
1, 730061, Poly_aftertouch_c, 0, 44, 0
1, 730067, Note_on_c, 0, 32, 88
1, 730072, Note_on_c, 0, 60, 87
1, 730079, Note_off_c, 0, 51, 61
1, 730166, Note_on_c, 0, 51, 79
1, 730171, Note_on_c, 0, 44, 83
1, 730192, Note_off_c, 0, 32, 60
1, 730196, Note_off_c, 0, 60, 63
1, 730287, Control_c, 0, 64, 111
1, 730306, Control_c, 0, 64, 73
1, 730317, Note_on_c, 0, 56, 86
1, 730318, Note_off_c, 0, 44, 61
1, 730318, Poly_aftertouch_c, 0, 44, 0
1, 730319, Note_on_c, 0, 32, 98
1, 730323, Control_c, 0, 64, 43
1, 730324, Note_on_c, 0, 48, 85
1, 730343, Control_c, 0, 64, 31
1, 730357, Note_off_c, 0, 51, 59
1, 730377, Note_on_c, 0, 31, 37
1, 730380, Control_c, 0, 64, 42
1, 730395, Note_off_c, 0, 48, 64
1, 730398, Control_c, 0, 64, 55
1, 730417, Control_c, 0, 64, 72
1, 730432, Note_off_c, 0, 31, 32
1, 730436, Control_c, 0, 64, 89
1, 730450, Note_off_c, 0, 32, 59
1, 730451, Note_off_c, 0, 56, 63
1, 730451, Poly_aftertouch_c, 0, 56, 0
1, 730456, Control_c, 0, 64, 111
1, 730474, Control_c, 0, 64, 127
1, 730587, Control_c, 0, 64, 123
1, 730604, Control_c, 0, 64, 119
1, 730624, Control_c, 0, 64, 112
1, 730643, Control_c, 0, 64, 104
1, 730660, Control_c, 0, 64, 94
1, 730680, Control_c, 0, 64, 81
1, 730698, Control_c, 0, 64, 67
1, 730718, Control_c, 0, 64, 54
1, 730736, Control_c, 0, 64, 37
1, 730737, Control_c, 0, 67, 8
1, 730755, Control_c, 0, 64, 0
1, 731200, Note_on_c, 0, 72, 88
1, 731201, Note_on_c, 0, 60, 78
1, 731205, Note_on_c, 0, 56, 73
1, 731211, Note_on_c, 0, 68, 76
1, 731242, Control_c, 0, 67, 0
1, 731279, Note_off_c, 0, 68, 50
1, 731286, Note_off_c, 0, 60, 58
1, 731318, Note_off_c, 0, 56, 57
1, 731318, Poly_aftertouch_c, 0, 56, 0
1, 731345, Note_off_c, 0, 72, 51
1, 731446, Note_on_c, 0, 75, 88
1, 731446, Note_on_c, 0, 63, 87
1, 731449, Note_on_c, 0, 72, 89
1, 731457, Note_on_c, 0, 60, 78
1, 731540, Control_c, 0, 64, 18
1, 731558, Control_c, 0, 64, 40
1, 731578, Control_c, 0, 64, 54
1, 731596, Control_c, 0, 64, 67
1, 731614, Control_c, 0, 64, 76
1, 731633, Control_c, 0, 64, 83
1, 731652, Control_c, 0, 64, 89
1, 731670, Control_c, 0, 64, 94
1, 731708, Control_c, 0, 64, 100
1, 731711, Note_off_c, 0, 63, 61
1, 731750, Note_off_c, 0, 75, 62
1, 731752, Note_off_c, 0, 72, 60
1, 731760, Note_off_c, 0, 60, 55
1, 731951, Control_c, 0, 64, 94
1, 731970, Control_c, 0, 64, 85
1, 731972, Control_c, 0, 67, 9
1, 731989, Control_c, 0, 64, 72
1, 732007, Control_c, 0, 64, 57
1, 732008, Control_c, 0, 67, 13
1, 732025, Control_c, 0, 64, 39
1, 732045, Control_c, 0, 64, 0
1, 732046, Control_c, 0, 67, 22
1, 732063, Control_c, 0, 67, 31
1, 732081, Control_c, 0, 67, 44
1, 732100, Control_c, 0, 67, 57
1, 732119, Control_c, 0, 67, 69
1, 732138, Control_c, 0, 67, 78
1, 732156, Control_c, 0, 67, 85
1, 732176, Control_c, 0, 67, 92
1, 732195, Control_c, 0, 67, 100
1, 732212, Control_c, 0, 67, 105
1, 732232, Control_c, 0, 64, 11
1, 732234, Control_c, 0, 67, 109
1, 732250, Control_c, 0, 64, 20
1, 732269, Control_c, 0, 64, 28
1, 732287, Control_c, 0, 64, 35
1, 732307, Control_c, 0, 64, 41
1, 732325, Control_c, 0, 64, 47
1, 732344, Control_c, 0, 64, 53
1, 732362, Control_c, 0, 64, 60
1, 732381, Control_c, 0, 64, 67
1, 732400, Control_c, 0, 64, 70
1, 732418, Control_c, 0, 64, 72
1, 732438, Control_c, 0, 64, 74
1, 732446, Note_on_c, 0, 60, 40
1, 732458, Control_c, 0, 64, 77
1, 732472, Note_on_c, 0, 32, 41
1, 732476, Control_c, 0, 64, 79
1, 732493, Control_c, 0, 64, 82
1, 732513, Control_c, 0, 64, 86
1, 732549, Control_c, 0, 64, 94
1, 732551, Note_off_c, 0, 60, 50
1, 732557, Note_off_c, 0, 32, 51
1, 732568, Control_c, 0, 64, 98
1, 732577, Note_on_c, 0, 51, 38
1, 732586, Note_on_c, 0, 44, 34
1, 732587, Control_c, 0, 64, 102
1, 732605, Control_c, 0, 64, 106
1, 732642, Control_c, 0, 64, 110
1, 732653, Note_off_c, 0, 51, 48
1, 732658, Note_off_c, 0, 44, 49
1, 732658, Poly_aftertouch_c, 0, 44, 0
1, 732690, Note_on_c, 0, 32, 35
1, 732696, Note_on_c, 0, 60, 33
1, 732701, Control_c, 0, 64, 115
1, 732746, Note_off_c, 0, 60, 48
1, 732755, Control_c, 0, 64, 120
1, 732756, Note_off_c, 0, 32, 53
1, 732762, Note_on_c, 0, 51, 46
1, 732792, Control_c, 0, 64, 124
1, 732795, Note_on_c, 0, 44, 42
1, 732829, Control_c, 0, 67, 105
1, 732833, Note_off_c, 0, 51, 51
1, 732853, Note_off_c, 0, 44, 55
1, 732853, Poly_aftertouch_c, 0, 44, 0
1, 732867, Control_c, 0, 67, 100
1, 732892, Note_on_c, 0, 60, 49
1, 732898, Note_on_c, 0, 32, 53
1, 732904, Control_c, 0, 67, 93
1, 732923, Control_c, 0, 67, 88
1, 732941, Control_c, 0, 67, 82
1, 732946, Note_off_c, 0, 60, 58
1, 732960, Note_off_c, 0, 32, 56
1, 732960, Control_c, 0, 67, 78
1, 732962, Note_on_c, 0, 51, 53
1, 732980, Control_c, 0, 67, 74
1, 732991, Note_on_c, 0, 44, 48
1, 732997, Control_c, 0, 67, 70
1, 733016, Control_c, 0, 67, 66
1, 733026, Note_off_c, 0, 51, 55
1, 733037, Control_c, 0, 67, 61
1, 733050, Note_off_c, 0, 44, 56
1, 733050, Poly_aftertouch_c, 0, 44, 0
1, 733056, Control_c, 0, 67, 56
1, 733073, Control_c, 0, 67, 50
1, 733083, Note_on_c, 0, 60, 55
1, 733090, Control_c, 0, 67, 43
1, 733092, Note_on_c, 0, 32, 62
1, 733110, Control_c, 0, 67, 37
1, 733130, Control_c, 0, 67, 30
1, 733147, Control_c, 0, 67, 24
1, 733155, Note_off_c, 0, 60, 53
1, 733165, Control_c, 0, 67, 15
1, 733169, Note_off_c, 0, 32, 55
1, 733169, Note_on_c, 0, 51, 65
1, 733175, Note_on_c, 0, 44, 60
1, 733260, Control_c, 0, 67, 0
1, 733263, Note_off_c, 0, 51, 57
1, 733269, Note_off_c, 0, 44, 57
1, 733269, Poly_aftertouch_c, 0, 44, 0
1, 733290, Note_on_c, 0, 60, 70
1, 733290, Note_on_c, 0, 32, 71
1, 733367, Note_off_c, 0, 60, 61
1, 733381, Note_on_c, 0, 51, 69
1, 733389, Note_off_c, 0, 32, 57
1, 733389, Note_on_c, 0, 44, 70
1, 733472, Note_off_c, 0, 51, 59
1, 733472, Note_off_c, 0, 44, 59
1, 733472, Poly_aftertouch_c, 0, 44, 0
1, 733475, Note_on_c, 0, 60, 77
1, 733477, Note_on_c, 0, 32, 73
1, 733575, Note_on_c, 0, 51, 79
1, 733578, Poly_aftertouch_c, 0, 37, 127
1, 733587, Note_on_c, 0, 44, 79
1, 733588, Note_off_c, 0, 60, 61
1, 733597, Note_off_c, 0, 32, 60
1, 733619, Poly_aftertouch_c, 0, 37, 0
1, 733681, Note_on_c, 0, 60, 88
1, 733684, Note_off_c, 0, 44, 59
1, 733684, Poly_aftertouch_c, 0, 44, 0
1, 733685, Note_on_c, 0, 32, 85
1, 733689, Note_off_c, 0, 51, 61
1, 733783, Note_on_c, 0, 51, 86
1, 733791, Note_on_c, 0, 44, 85
1, 733795, Note_off_c, 0, 60, 63
1, 733803, Note_off_c, 0, 32, 59
1, 733813, Poly_aftertouch_c, 0, 37, 0
1, 733884, Note_off_c, 0, 44, 60
1, 733884, Poly_aftertouch_c, 0, 44, 0
1, 733891, Note_on_c, 0, 60, 93
1, 733892, Note_off_c, 0, 51, 60
1, 733893, Note_on_c, 0, 32, 89
1, 733976, Note_on_c, 0, 51, 84
1, 733995, Note_on_c, 0, 44, 86
1, 734001, Note_off_c, 0, 60, 66
1, 734014, Note_off_c, 0, 32, 59
1, 734122, Control_c, 0, 64, 87
1, 734127, Note_off_c, 0, 44, 63
1, 734127, Poly_aftertouch_c, 0, 44, 0
1, 734132, Note_on_c, 0, 56, 90
1, 734137, Note_on_c, 0, 32, 101
1, 734137, Control_c, 0, 64, 53
1, 734139, Note_on_c, 0, 48, 91
1, 734156, Control_c, 0, 64, 0
1, 734175, Note_off_c, 0, 51, 59
1, 734195, Control_c, 0, 64, 16
1, 734203, Note_off_c, 0, 48, 64
1, 734214, Control_c, 0, 64, 42
1, 734230, Note_off_c, 0, 32, 61
1, 734231, Control_c, 0, 64, 67
1, 734249, Note_off_c, 0, 56, 63
1, 734249, Poly_aftertouch_c, 0, 56, 0
1, 734251, Control_c, 0, 64, 92
1, 734270, Control_c, 0, 64, 124
1, 734493, Control_c, 0, 64, 108
1, 734513, Control_c, 0, 64, 85
1, 734533, Control_c, 0, 64, 62
1, 734550, Control_c, 0, 64, 38
1, 734569, Control_c, 0, 64, 0
1, 734953, Note_on_c, 0, 84, 96
1, 734960, Note_on_c, 0, 80, 88
1, 734962, Note_on_c, 0, 72, 86
1, 734968, Note_on_c, 0, 68, 80
1, 735073, Note_off_c, 0, 80, 50
1, 735077, Note_off_c, 0, 72, 46
1, 735083, Note_off_c, 0, 68, 56
1, 735131, Note_off_c, 0, 84, 59
1, 735197, Note_on_c, 0, 84, 93
1, 735197, Note_on_c, 0, 87, 96
1, 735204, Note_on_c, 0, 75, 98
1, 735213, Note_on_c, 0, 72, 89
1, 735280, Control_c, 0, 64, 29
1, 735297, Control_c, 0, 64, 55
1, 735317, Control_c, 0, 64, 76
1, 735335, Control_c, 0, 64, 93
1, 735344, Note_off_c, 0, 75, 64
1, 735354, Control_c, 0, 64, 114
1, 735372, Control_c, 0, 64, 127
1, 735400, Note_off_c, 0, 84, 58
1, 735404, Note_off_c, 0, 72, 52
1, 735432, Note_off_c, 0, 87, 62
1, 735654, Control_c, 0, 64, 121
1, 735672, Control_c, 0, 64, 109
1, 735691, Control_c, 0, 64, 94
1, 735709, Control_c, 0, 64, 78
1, 735728, Control_c, 0, 64, 63
1, 735747, Control_c, 0, 64, 52
1, 735765, Control_c, 0, 64, 40
1, 735784, Control_c, 0, 64, 18
1, 735803, Control_c, 0, 64, 0
1, 736207, Note_on_c, 0, 58, 103
1, 736214, Control_c, 0, 64, 33
1, 736220, Note_on_c, 0, 46, 98
1, 736233, Control_c, 0, 64, 55
1, 736251, Control_c, 0, 64, 74
1, 736271, Control_c, 0, 64, 91
1, 736285, Note_off_c, 0, 58, 64
1, 736285, Poly_aftertouch_c, 0, 58, 0
1, 736289, Control_c, 0, 64, 113
1, 736307, Control_c, 0, 64, 127
1, 736313, Note_off_c, 0, 46, 59
1, 736996, Note_on_c, 0, 79, 97
1, 737002, Note_on_c, 0, 67, 87
1, 737006, Note_on_c, 0, 75, 87
1, 737010, Note_on_c, 0, 63, 79
1, 737036, Control_c, 0, 64, 120
1, 737056, Control_c, 0, 64, 114
1, 737075, Control_c, 0, 64, 109
1, 737131, Control_c, 0, 64, 104
1, 737144, Note_off_c, 0, 63, 58
1, 737145, Note_off_c, 0, 75, 58
1, 737168, Control_c, 0, 64, 94
1, 737169, Note_off_c, 0, 67, 60
1, 737187, Control_c, 0, 64, 81
1, 737190, Note_off_c, 0, 79, 60
1, 737190, Poly_aftertouch_c, 0, 79, 0
1, 737205, Control_c, 0, 64, 63
1, 737225, Control_c, 0, 64, 40
1, 737226, Note_on_c, 0, 82, 99
1, 737233, Note_on_c, 0, 70, 93
1, 737242, Control_c, 0, 64, 0
1, 737542, Control_c, 0, 64, 16
1, 737561, Control_c, 0, 64, 27
1, 737579, Control_c, 0, 64, 35
1, 737597, Control_c, 0, 64, 42
1, 737617, Control_c, 0, 64, 51
1, 737635, Control_c, 0, 64, 60
1, 737654, Control_c, 0, 64, 67
1, 737672, Control_c, 0, 64, 72
1, 737692, Control_c, 0, 64, 79
1, 737710, Control_c, 0, 64, 91
1, 737729, Control_c, 0, 64, 107
1, 737748, Control_c, 0, 64, 123
1, 737750, Note_off_c, 0, 70, 65
1, 737766, Control_c, 0, 64, 127
1, 737769, Note_off_c, 0, 82, 61
1, 738046, Control_c, 0, 64, 122
1, 738065, Control_c, 0, 64, 104
1, 738084, Control_c, 0, 64, 79
1, 738104, Control_c, 0, 64, 52
1, 738121, Control_c, 0, 64, 0
1, 738190, Note_on_c, 0, 58, 105
1, 738200, Note_on_c, 0, 46, 96
1, 738234, Control_c, 0, 64, 37
1, 738253, Control_c, 0, 64, 59
1, 738271, Control_c, 0, 64, 74
1, 738281, Note_off_c, 0, 58, 60
1, 738281, Poly_aftertouch_c, 0, 58, 0
1, 738290, Control_c, 0, 64, 84
1, 738298, Note_off_c, 0, 46, 60
1, 738308, Control_c, 0, 64, 96
1, 738327, Control_c, 0, 64, 110
1, 738345, Control_c, 0, 64, 124
1, 738870, Control_c, 0, 64, 119
1, 738889, Control_c, 0, 64, 113
1, 738908, Control_c, 0, 64, 105
1, 738925, Control_c, 0, 64, 94
1, 738946, Control_c, 0, 64, 78
1, 738963, Control_c, 0, 64, 57
1, 738966, Note_on_c, 0, 65, 80
1, 738970, Note_on_c, 0, 77, 99
1, 738974, Note_on_c, 0, 74, 88
1, 738982, Note_on_c, 0, 62, 56
1, 738982, Control_c, 0, 64, 17
1, 738999, Control_c, 0, 64, 0
1, 739002, Note_on_c, 0, 61, 55
1, 739034, Note_off_c, 0, 61, 53
1, 739034, Poly_aftertouch_c, 0, 61, 0
1, 739054, Note_off_c, 0, 62, 61
1, 739071, Note_off_c, 0, 65, 63
1, 739113, Note_off_c, 0, 74, 50
1, 739153, Note_off_c, 0, 77, 62
1, 739194, Note_on_c, 0, 82, 98
1, 739202, Note_on_c, 0, 70, 98
1, 739331, Poly_aftertouch_c, 0, 71, 0
1, 739356, Control_c, 0, 64, 9
1, 739375, Control_c, 0, 64, 31
1, 739392, Control_c, 0, 64, 45
1, 739412, Control_c, 0, 64, 60
1, 739430, Control_c, 0, 64, 73
1, 739449, Control_c, 0, 64, 83
1, 739467, Control_c, 0, 64, 93
1, 739487, Control_c, 0, 64, 103
1, 739494, Note_off_c, 0, 70, 62
1, 739506, Control_c, 0, 64, 112
1, 739507, Note_off_c, 0, 82, 62
1, 739523, Control_c, 0, 64, 119
1, 739543, Control_c, 0, 64, 123
1, 739767, Control_c, 0, 64, 118
1, 739823, Control_c, 0, 64, 111
1, 739843, Control_c, 0, 64, 105
1, 739859, Control_c, 0, 64, 93
1, 739879, Control_c, 0, 64, 78
1, 739898, Control_c, 0, 64, 65
1, 739917, Control_c, 0, 64, 61
1, 739935, Control_c, 0, 64, 65
1, 739939, Note_on_c, 0, 70, 89
1, 739939, Note_on_c, 0, 58, 85
1, 739941, Note_on_c, 0, 46, 80
1, 739954, Control_c, 0, 64, 73
1, 739974, Control_c, 0, 64, 84
1, 739981, Note_off_c, 0, 46, 63
1, 739991, Control_c, 0, 64, 102
1, 740010, Control_c, 0, 64, 127
1, 740013, Note_off_c, 0, 58, 60
1, 740013, Poly_aftertouch_c, 0, 58, 0
1, 740118, Note_off_c, 0, 70, 62
1, 740122, Control_c, 0, 64, 117
1, 740141, Control_c, 0, 64, 88
1, 740160, Control_c, 0, 64, 55
1, 740164, Note_on_c, 0, 75, 99
1, 740170, Note_on_c, 0, 63, 97
1, 740174, Note_on_c, 0, 51, 94
1, 740178, Control_c, 0, 64, 0
1, 740290, Control_c, 0, 64, 37
1, 740298, Note_off_c, 0, 75, 57
1, 740310, Control_c, 0, 64, 56
1, 740327, Control_c, 0, 64, 67
1, 740347, Control_c, 0, 64, 73
1, 740365, Control_c, 0, 64, 77
1, 740369, Note_off_c, 0, 63, 56
1, 740384, Control_c, 0, 64, 82
1, 740403, Control_c, 0, 64, 87
1, 740421, Control_c, 0, 64, 91
1, 740446, Note_off_c, 0, 51, 50
1, 740459, Control_c, 0, 64, 95
1, 740590, Control_c, 0, 64, 89
1, 740608, Control_c, 0, 64, 85
1, 740627, Control_c, 0, 64, 80
1, 740647, Control_c, 0, 64, 72
1, 740664, Control_c, 0, 64, 65
1, 740684, Control_c, 0, 64, 60
1, 740702, Control_c, 0, 64, 56
1, 740720, Control_c, 0, 64, 50
1, 740740, Control_c, 0, 64, 43
1, 740758, Control_c, 0, 64, 33
1, 740777, Control_c, 0, 64, 22
1, 740795, Control_c, 0, 64, 13
1, 740833, Control_c, 0, 64, 8
1, 740869, Control_c, 0, 64, 0
1, 740908, Note_on_c, 0, 58, 88
1, 740952, Note_on_c, 0, 61, 26
1, 741005, Note_off_c, 0, 61, 41
1, 741005, Poly_aftertouch_c, 0, 61, 0
1, 741121, Note_on_c, 0, 51, 90
1, 741125, Note_on_c, 0, 63, 85
1, 741127, Note_on_c, 0, 46, 81
1, 741128, Note_on_c, 0, 39, 83
1, 741130, Note_on_c, 0, 43, 80
1, 741147, Note_off_c, 0, 58, 64
1, 741147, Poly_aftertouch_c, 0, 58, 0
1, 741189, Control_c, 0, 64, 22
1, 741206, Control_c, 0, 64, 43
1, 741225, Control_c, 0, 64, 61
1, 741246, Control_c, 0, 64, 75
1, 741263, Control_c, 0, 64, 86
1, 741282, Control_c, 0, 64, 97
1, 741300, Control_c, 0, 64, 107
1, 741319, Control_c, 0, 64, 112
1, 741335, Note_off_c, 0, 63, 59
1, 741365, Note_off_c, 0, 51, 58
1, 741408, Note_off_c, 0, 43, 62
1, 741408, Poly_aftertouch_c, 0, 43, 0
1, 741411, Note_off_c, 0, 46, 58
1, 741450, Control_c, 0, 64, 107
1, 741455, Note_off_c, 0, 39, 54
1, 741468, Control_c, 0, 64, 102
1, 741469, Control_c, 0, 67, 8
1, 741487, Control_c, 0, 64, 96
1, 741507, Control_c, 0, 64, 89
1, 741525, Control_c, 0, 64, 83
1, 741543, Control_c, 0, 64, 77
1, 741564, Control_c, 0, 64, 73
1, 741581, Control_c, 0, 64, 70
1, 741599, Control_c, 0, 64, 68
1, 741618, Control_c, 0, 64, 64
1, 741637, Control_c, 0, 64, 61
1, 741656, Control_c, 0, 64, 58
1, 741674, Control_c, 0, 64, 54
1, 741693, Control_c, 0, 64, 51
1, 741712, Control_c, 0, 64, 46
1, 741730, Control_c, 0, 64, 42
1, 741749, Control_c, 0, 64, 37
1, 741768, Control_c, 0, 64, 32
1, 741804, Control_c, 0, 64, 27
1, 741825, Control_c, 0, 64, 22
1, 741862, Control_c, 0, 64, 16
1, 741879, Control_c, 0, 64, 12
1, 741900, Note_on_c, 0, 46, 82
1, 741936, Control_c, 0, 64, 0
1, 742094, Note_off_c, 0, 46, 52
1, 742134, Note_on_c, 0, 51, 82
1, 742138, Note_on_c, 0, 43, 78
1, 742144, Note_on_c, 0, 39, 77
1, 742160, Control_c, 0, 67, 12
1, 742216, Control_c, 0, 67, 16
1, 742254, Control_c, 0, 67, 20
1, 742291, Control_c, 0, 67, 25
1, 742347, Control_c, 0, 67, 30
1, 742385, Control_c, 0, 64, 11
1, 742422, Control_c, 0, 67, 34
1, 742440, Control_c, 0, 64, 16
1, 742497, Control_c, 0, 64, 21
1, 742535, Control_c, 0, 67, 38
1, 742641, Note_off_c, 0, 39, 58
1, 742647, Note_off_c, 0, 51, 57
1, 742649, Note_off_c, 0, 43, 53
1, 742649, Poly_aftertouch_c, 0, 43, 0
1, 742665, Control_c, 0, 67, 43
1, 742722, Control_c, 0, 64, 16
1, 742723, Control_c, 0, 67, 49
1, 742759, Control_c, 0, 64, 11
1, 742760, Control_c, 0, 67, 53
1, 742797, Control_c, 0, 67, 58
1, 742834, Control_c, 0, 67, 64
1, 742872, Control_c, 0, 67, 69
1, 742927, Control_c, 0, 67, 73
1, 743003, Control_c, 0, 67, 77
1, 743114, Control_c, 0, 67, 82
1, 743152, Control_c, 0, 64, 19
1, 743154, Control_c, 0, 67, 90
1, 743170, Control_c, 0, 64, 24
1, 743171, Control_c, 0, 67, 97
1, 743189, Control_c, 0, 64, 30
1, 743190, Control_c, 0, 67, 109
1, 743208, Control_c, 0, 64, 39
1, 743209, Control_c, 0, 67, 123
1, 743227, Control_c, 0, 64, 47
1, 743228, Control_c, 0, 67, 127
1, 743245, Control_c, 0, 64, 55
1, 743264, Control_c, 0, 64, 62
1, 743281, Control_c, 0, 64, 65
1, 743301, Control_c, 0, 64, 67
1, 743339, Control_c, 0, 64, 70
1, 743356, Control_c, 0, 64, 72
1, 743376, Control_c, 0, 64, 74
1, 743395, Control_c, 0, 64, 77
1, 743413, Control_c, 0, 64, 80
1, 743431, Control_c, 0, 64, 83
1, 743452, Control_c, 0, 64, 86
1, 743488, Control_c, 0, 64, 92
1, 743526, Control_c, 0, 64, 100
1, 743544, Control_c, 0, 64, 105
1, 743563, Control_c, 0, 64, 110
1, 743601, Control_c, 0, 64, 117
1, 743637, Control_c, 0, 64, 123
1, 743675, Control_c, 0, 64, 127
1, 744126, Note_on_c, 0, 39, 35
1, 744138, Note_on_c, 0, 61, 32
1, 744252, Note_off_c, 0, 39, 45
1, 744266, Note_on_c, 0, 51, 34
1, 744272, Note_on_c, 0, 58, 29
1, 744276, Note_off_c, 0, 61, 38
1, 744276, Poly_aftertouch_c, 0, 61, 0
1, 744361, Note_off_c, 0, 51, 45
1, 744370, Note_off_c, 0, 58, 41
1, 744370, Poly_aftertouch_c, 0, 58, 0
1, 744399, Note_on_c, 0, 61, 36
1, 744399, Note_on_c, 0, 39, 41
1, 744464, Note_off_c, 0, 39, 55
1, 744468, Note_off_c, 0, 61, 48
1, 744468, Poly_aftertouch_c, 0, 61, 0
1, 744510, Note_on_c, 0, 58, 38
1, 744531, Note_on_c, 0, 51, 27
1, 744568, Note_off_c, 0, 58, 47
1, 744568, Poly_aftertouch_c, 0, 58, 0
1, 744587, Note_off_c, 0, 51, 47
1, 744609, Note_on_c, 0, 61, 55
1, 744610, Note_on_c, 0, 39, 53
1, 744680, Note_off_c, 0, 39, 54
1, 744686, Note_off_c, 0, 61, 55
1, 744686, Poly_aftertouch_c, 0, 61, 0
1, 744708, Note_on_c, 0, 58, 54
1, 744725, Note_on_c, 0, 51, 51
1, 744792, Note_off_c, 0, 51, 51
1, 744801, Note_off_c, 0, 58, 51
1, 744801, Poly_aftertouch_c, 0, 58, 0
1, 744808, Note_on_c, 0, 39, 64
1, 744821, Note_on_c, 0, 61, 63
1, 744912, Note_off_c, 0, 39, 58
1, 744915, Note_off_c, 0, 61, 57
1, 744915, Poly_aftertouch_c, 0, 61, 0
1, 744924, Note_on_c, 0, 51, 62
1, 744930, Note_on_c, 0, 58, 65
1, 745020, Note_off_c, 0, 51, 56
1, 745021, Note_on_c, 0, 39, 72
1, 745023, Note_off_c, 0, 58, 61
1, 745023, Poly_aftertouch_c, 0, 58, 0
1, 745036, Note_on_c, 0, 61, 73
1, 745058, Control_c, 0, 67, 119
1, 745078, Control_c, 0, 67, 114
1, 745095, Control_c, 0, 67, 107
1, 745112, Control_c, 0, 67, 99
1, 745117, Note_on_c, 0, 51, 69
1, 745120, Note_off_c, 0, 39, 58
1, 745128, Note_off_c, 0, 61, 58
1, 745128, Note_on_c, 0, 58, 75
1, 745128, Poly_aftertouch_c, 0, 61, 0
1, 745131, Control_c, 0, 67, 89
1, 745153, Control_c, 0, 67, 76
1, 745170, Control_c, 0, 67, 62
1, 745190, Control_c, 0, 67, 46
1, 745209, Control_c, 0, 67, 29
1, 745226, Note_off_c, 0, 51, 55
1, 745226, Note_on_c, 0, 39, 80
1, 745226, Control_c, 0, 67, 13
1, 745229, Note_on_c, 0, 61, 80
1, 745236, Note_off_c, 0, 58, 59
1, 745236, Poly_aftertouch_c, 0, 58, 0
1, 745283, Control_c, 0, 67, 0
1, 745324, Note_on_c, 0, 51, 73
1, 745332, Note_on_c, 0, 58, 80
1, 745334, Note_off_c, 0, 39, 59
1, 745340, Note_off_c, 0, 61, 61
1, 745340, Poly_aftertouch_c, 0, 61, 0
1, 745417, Note_off_c, 0, 51, 55
1, 745428, Note_on_c, 0, 39, 81
1, 745438, Note_on_c, 0, 61, 84
1, 745452, Note_off_c, 0, 58, 61
1, 745452, Poly_aftertouch_c, 0, 58, 0
1, 745526, Note_on_c, 0, 51, 82
1, 745534, Note_off_c, 0, 39, 59
1, 745540, Note_on_c, 0, 58, 83
1, 745551, Note_off_c, 0, 61, 62
1, 745551, Poly_aftertouch_c, 0, 61, 0
1, 745621, Note_off_c, 0, 51, 58
1, 745638, Note_on_c, 0, 39, 88
1, 745651, Note_on_c, 0, 61, 90
1, 745669, Note_off_c, 0, 58, 63
1, 745669, Poly_aftertouch_c, 0, 58, 0
1, 745745, Note_on_c, 0, 51, 83
1, 745768, Note_on_c, 0, 58, 86
1, 745773, Note_off_c, 0, 39, 54
1, 745811, Note_off_c, 0, 61, 60
1, 745811, Poly_aftertouch_c, 0, 61, 0
1, 745826, Note_off_c, 0, 58, 62
1, 745826, Poly_aftertouch_c, 0, 58, 0
1, 745881, Control_c, 0, 64, 104
1, 745882, Note_off_c, 0, 51, 58
1, 745892, Note_on_c, 0, 58, 89
1, 745896, Note_on_c, 0, 55, 84
1, 745900, Control_c, 0, 64, 72
1, 745901, Note_on_c, 0, 39, 97
1, 745919, Control_c, 0, 64, 45
1, 745937, Control_c, 0, 64, 10
1, 745957, Control_c, 0, 64, 0
1, 745974, Control_c, 0, 64, 17
1, 745994, Control_c, 0, 64, 37
1, 745999, Note_off_c, 0, 55, 60
1, 745999, Poly_aftertouch_c, 0, 55, 0
1, 746013, Control_c, 0, 64, 59
1, 746031, Control_c, 0, 64, 80
1, 746048, Note_off_c, 0, 58, 61
1, 746048, Poly_aftertouch_c, 0, 58, 0
1, 746049, Control_c, 0, 64, 101
1, 746055, Note_off_c, 0, 39, 56
1, 746068, Control_c, 0, 64, 125
1, 746237, Control_c, 0, 64, 116
1, 746238, Control_c, 0, 67, 8
1, 746255, Control_c, 0, 64, 103
1, 746274, Control_c, 0, 64, 88
1, 746293, Control_c, 0, 64, 74
1, 746294, Control_c, 0, 67, 12
1, 746311, Control_c, 0, 64, 63
1, 746332, Control_c, 0, 64, 53
1, 746334, Control_c, 0, 67, 17
1, 746350, Control_c, 0, 64, 42
1, 746367, Control_c, 0, 64, 27
1, 746368, Control_c, 0, 67, 22
1, 746386, Control_c, 0, 64, 0
1, 746709, Note_on_c, 0, 55, 75
1, 746710, Note_on_c, 0, 70, 90
1, 746718, Note_on_c, 0, 67, 78
1, 746724, Note_on_c, 0, 58, 69
1, 746803, Note_off_c, 0, 55, 56
1, 746803, Poly_aftertouch_c, 0, 55, 0
1, 746823, Note_off_c, 0, 58, 58
1, 746823, Poly_aftertouch_c, 0, 58, 0
1, 746871, Note_off_c, 0, 67, 51
1, 746878, Note_off_c, 0, 70, 61
1, 746954, Note_on_c, 0, 73, 86
1, 746958, Note_on_c, 0, 61, 73
1, 746965, Note_on_c, 0, 70, 74
1, 746967, Note_on_c, 0, 58, 69
1, 747388, Note_off_c, 0, 73, 60
1, 747396, Note_off_c, 0, 70, 60
1, 747398, Note_off_c, 0, 61, 60
1, 747398, Poly_aftertouch_c, 0, 61, 0
1, 747427, Note_off_c, 0, 58, 64
1, 747427, Poly_aftertouch_c, 0, 58, 0
1, 747564, Control_c, 0, 67, 26
1, 747583, Control_c, 0, 67, 30
1, 747601, Control_c, 0, 67, 35
1, 747621, Control_c, 0, 67, 40
1, 747639, Control_c, 0, 67, 46
1, 747657, Control_c, 0, 67, 52
1, 747676, Control_c, 0, 67, 57
1, 747696, Control_c, 0, 67, 62
1, 747714, Control_c, 0, 64, 8
1, 747715, Control_c, 0, 67, 67
1, 747732, Control_c, 0, 67, 72
1, 747753, Control_c, 0, 64, 13
1, 747755, Control_c, 0, 67, 76
1, 747770, Control_c, 0, 64, 17
1, 747788, Control_c, 0, 64, 21
1, 747808, Control_c, 0, 64, 27
1, 747809, Control_c, 0, 67, 81
1, 747826, Control_c, 0, 64, 32
1, 747844, Control_c, 0, 67, 85
1, 747863, Control_c, 0, 64, 37
1, 747882, Control_c, 0, 64, 40
1, 747902, Control_c, 0, 64, 44
1, 747903, Control_c, 0, 67, 90
1, 747919, Control_c, 0, 64, 48
1, 747939, Control_c, 0, 64, 51
1, 747957, Control_c, 0, 64, 55
1, 747976, Control_c, 0, 64, 58
1, 747994, Control_c, 0, 64, 60
1, 748002, Note_on_c, 0, 39, 38
1, 748010, Note_on_c, 0, 61, 34
1, 748013, Control_c, 0, 64, 63
1, 748032, Control_c, 0, 64, 65
1, 748050, Control_c, 0, 64, 67
1, 748069, Control_c, 0, 64, 70
1, 748087, Control_c, 0, 64, 73
1, 748094, Note_off_c, 0, 61, 54
1, 748094, Poly_aftertouch_c, 0, 61, 0
1, 748107, Control_c, 0, 64, 77
1, 748118, Note_on_c, 0, 58, 39
1, 748123, Control_c, 0, 64, 80
1, 748136, Note_off_c, 0, 39, 53
1, 748143, Control_c, 0, 64, 85
1, 748151, Note_on_c, 0, 51, 30
1, 748164, Control_c, 0, 64, 91
1, 748181, Control_c, 0, 64, 97
1, 748200, Control_c, 0, 64, 105
1, 748221, Control_c, 0, 64, 113
1, 748223, Note_off_c, 0, 58, 54
1, 748223, Poly_aftertouch_c, 0, 58, 0
1, 748238, Control_c, 0, 64, 119
1, 748250, Note_off_c, 0, 51, 45
1, 748250, Note_on_c, 0, 61, 59
1, 748256, Control_c, 0, 64, 125
1, 748258, Note_on_c, 0, 39, 48
1, 748275, Control_c, 0, 67, 85
1, 748293, Control_c, 0, 67, 80
1, 748312, Control_c, 0, 67, 72
1, 748330, Control_c, 0, 67, 64
1, 748338, Note_off_c, 0, 61, 56
1, 748338, Poly_aftertouch_c, 0, 61, 0
1, 748347, Note_on_c, 0, 58, 60
1, 748348, Control_c, 0, 67, 56
1, 748351, Note_off_c, 0, 39, 53
1, 748369, Control_c, 0, 67, 50
1, 748373, Note_on_c, 0, 51, 49
1, 748387, Control_c, 0, 67, 44
1, 748405, Control_c, 0, 67, 38
1, 748424, Control_c, 0, 67, 33
1, 748443, Control_c, 0, 67, 28
1, 748457, Note_off_c, 0, 58, 56
1, 748457, Poly_aftertouch_c, 0, 58, 0
1, 748460, Control_c, 0, 67, 23
1, 748467, Note_on_c, 0, 61, 70
1, 748472, Note_off_c, 0, 51, 57
1, 748476, Note_on_c, 0, 39, 68
1, 748479, Control_c, 0, 67, 19
1, 748500, Control_c, 0, 67, 14
1, 748517, Control_c, 0, 67, 10
1, 748572, Note_on_c, 0, 58, 76
1, 748577, Note_off_c, 0, 39, 57
1, 748584, Note_off_c, 0, 61, 59
1, 748584, Note_on_c, 0, 51, 65
1, 748584, Poly_aftertouch_c, 0, 61, 0
1, 748687, Note_on_c, 0, 61, 80
1, 748689, Note_off_c, 0, 51, 58
1, 748696, Note_on_c, 0, 39, 76
1, 748697, Note_off_c, 0, 58, 58
1, 748697, Poly_aftertouch_c, 0, 58, 0
1, 748780, Note_on_c, 0, 58, 77
1, 748792, Note_on_c, 0, 51, 68
1, 748794, Note_off_c, 0, 39, 59
1, 748796, Note_off_c, 0, 61, 61
1, 748796, Poly_aftertouch_c, 0, 61, 0
1, 748884, Note_on_c, 0, 61, 81
1, 748896, Note_on_c, 0, 39, 82
1, 748903, Note_off_c, 0, 51, 60
1, 748903, Poly_aftertouch_c, 0, 48, 0
1, 748907, Note_off_c, 0, 58, 61
1, 748907, Poly_aftertouch_c, 0, 58, 0
1, 748930, Control_c, 0, 67, 0
1, 748983, Note_on_c, 0, 58, 80
1, 749000, Note_on_c, 0, 51, 76
1, 749005, Note_off_c, 0, 39, 57
1, 749006, Note_off_c, 0, 61, 64
1, 749006, Poly_aftertouch_c, 0, 61, 0
1, 749088, Note_on_c, 0, 61, 81
1, 749097, Note_off_c, 0, 51, 56
1, 749101, Note_on_c, 0, 39, 85
1, 749104, Note_off_c, 0, 58, 61
1, 749104, Poly_aftertouch_c, 0, 58, 0
1, 749191, Note_on_c, 0, 58, 85
1, 749204, Note_on_c, 0, 51, 81
1, 749205, Note_off_c, 0, 61, 63
1, 749205, Poly_aftertouch_c, 0, 61, 0
1, 749214, Note_off_c, 0, 39, 61
1, 749298, Note_off_c, 0, 51, 61
1, 749304, Note_on_c, 0, 61, 93
1, 749311, Note_on_c, 0, 39, 89
1, 749321, Note_off_c, 0, 58, 63
1, 749321, Poly_aftertouch_c, 0, 58, 0
1, 749409, Poly_aftertouch_c, 0, 43, 127
1, 749411, Note_on_c, 0, 58, 90
1, 749414, Note_on_c, 0, 51, 83
1, 749420, Note_off_c, 0, 61, 66
1, 749420, Poly_aftertouch_c, 0, 61, 0
1, 749427, Note_off_c, 0, 39, 60
1, 749448, Poly_aftertouch_c, 0, 43, 0
1, 749504, Note_off_c, 0, 51, 61
1, 749515, Note_on_c, 0, 61, 91
1, 749520, Note_on_c, 0, 39, 93
1, 749534, Note_off_c, 0, 58, 62
1, 749534, Poly_aftertouch_c, 0, 58, 0
1, 749618, Note_on_c, 0, 58, 81
1, 749622, Note_on_c, 0, 51, 85
1, 749643, Note_off_c, 0, 39, 58
1, 749659, Note_off_c, 0, 61, 59
1, 749659, Poly_aftertouch_c, 0, 61, 0
1, 749680, Note_off_c, 0, 58, 62
1, 749680, Poly_aftertouch_c, 0, 58, 0
1, 749696, Control_c, 0, 64, 120
1, 749715, Control_c, 0, 64, 82
1, 749732, Note_off_c, 0, 51, 56
1, 749734, Control_c, 0, 64, 45
1, 749745, Note_on_c, 0, 58, 89
1, 749750, Note_on_c, 0, 55, 82
1, 749752, Control_c, 0, 64, 0
1, 749756, Note_on_c, 0, 39, 105
1, 749830, Note_off_c, 0, 55, 61
1, 749830, Poly_aftertouch_c, 0, 55, 0
1, 749847, Control_c, 0, 64, 30
1, 749863, Control_c, 0, 64, 59
1, 749866, Note_off_c, 0, 58, 64
1, 749866, Poly_aftertouch_c, 0, 58, 0
1, 749883, Control_c, 0, 64, 82
1, 749891, Note_off_c, 0, 39, 59
1, 749903, Control_c, 0, 64, 101
1, 749920, Control_c, 0, 64, 122
1, 749938, Control_c, 0, 64, 127
1, 750126, Control_c, 0, 64, 121
1, 750144, Control_c, 0, 64, 109
1, 750163, Control_c, 0, 64, 93
1, 750182, Control_c, 0, 64, 79
1, 750201, Control_c, 0, 64, 66
1, 750219, Control_c, 0, 64, 56
1, 750238, Control_c, 0, 64, 44
1, 750257, Control_c, 0, 64, 23
1, 750276, Control_c, 0, 64, 0
1, 750515, Note_on_c, 0, 82, 101
1, 750517, Note_on_c, 0, 67, 82
1, 750521, Note_on_c, 0, 79, 87
1, 750523, Note_on_c, 0, 70, 80
1, 750537, Control_c, 0, 64, 28
1, 750556, Control_c, 0, 64, 45
1, 750575, Control_c, 0, 64, 60
1, 750582, Note_off_c, 0, 67, 64
1, 750594, Control_c, 0, 64, 71
1, 750611, Control_c, 0, 64, 77
1, 750622, Note_off_c, 0, 70, 61
1, 750649, Control_c, 0, 64, 79
1, 750666, Poly_aftertouch_c, 0, 83, 0
1, 750684, Note_off_c, 0, 82, 64
1, 750685, Control_c, 0, 64, 73
1, 750706, Control_c, 0, 64, 60
1, 750713, Note_off_c, 0, 79, 60
1, 750713, Poly_aftertouch_c, 0, 79, 0
1, 750724, Control_c, 0, 64, 33
1, 750742, Control_c, 0, 64, 0
1, 750743, Note_on_c, 0, 82, 96
1, 750744, Note_on_c, 0, 85, 102
1, 750747, Note_on_c, 0, 73, 98
1, 750750, Note_on_c, 0, 70, 96
1, 750855, Control_c, 0, 64, 28
1, 750874, Control_c, 0, 64, 58
1, 750892, Control_c, 0, 64, 80
1, 750901, Note_off_c, 0, 73, 62
1, 750912, Control_c, 0, 64, 97
1, 750930, Control_c, 0, 64, 115
1, 750948, Control_c, 0, 64, 127
1, 750953, Note_off_c, 0, 70, 64
1, 750957, Note_off_c, 0, 82, 62
1, 750979, Note_off_c, 0, 85, 62
1, 751154, Control_c, 0, 64, 116
1, 751173, Control_c, 0, 64, 102
1, 751192, Control_c, 0, 64, 88
1, 751210, Control_c, 0, 64, 74
1, 751228, Control_c, 0, 64, 63
1, 751248, Control_c, 0, 64, 52
1, 751267, Control_c, 0, 64, 31
1, 751284, Control_c, 0, 64, 0
1, 751723, Note_on_c, 0, 68, 102
1, 751727, Note_on_c, 0, 56, 98
1, 751731, Note_on_c, 0, 44, 97
1, 751734, Control_c, 0, 64, 23
1, 751752, Control_c, 0, 64, 51
1, 751771, Control_c, 0, 64, 74
1, 751777, Note_off_c, 0, 68, 67
1, 751791, Control_c, 0, 64, 93
1, 751801, Note_off_c, 0, 44, 62
1, 751801, Poly_aftertouch_c, 0, 44, 0
1, 751809, Control_c, 0, 64, 115
1, 751828, Control_c, 0, 64, 127
1, 751854, Note_off_c, 0, 56, 62
1, 751854, Poly_aftertouch_c, 0, 56, 0
1, 752468, Note_on_c, 0, 84, 93
1, 752472, Note_on_c, 0, 80, 83
1, 752473, Note_on_c, 0, 72, 83
1, 752479, Note_on_c, 0, 68, 76
1, 752481, Note_on_c, 0, 83, 83
1, 752503, Note_off_c, 0, 83, 60
1, 752536, Note_off_c, 0, 80, 60
1, 752538, Note_off_c, 0, 68, 57
1, 752565, Note_off_c, 0, 72, 56
1, 752620, Note_off_c, 0, 84, 57
1, 752683, Note_on_c, 0, 87, 104
1, 752691, Note_on_c, 0, 75, 102
1, 752706, Control_c, 0, 64, 91
1, 752725, Control_c, 0, 64, 43
1, 752744, Control_c, 0, 64, 0
1, 752967, Control_c, 0, 64, 24
1, 752988, Control_c, 0, 64, 40
1, 753005, Control_c, 0, 64, 56
1, 753023, Note_off_c, 0, 75, 65
1, 753023, Control_c, 0, 64, 68
1, 753043, Control_c, 0, 64, 74
1, 753059, Note_off_c, 0, 87, 62
1, 753061, Control_c, 0, 64, 78
1, 753080, Control_c, 0, 64, 83
1, 753102, Control_c, 0, 64, 87
1, 753118, Control_c, 0, 64, 92
1, 753192, Control_c, 0, 64, 88
1, 753212, Control_c, 0, 64, 79
1, 753230, Control_c, 0, 64, 66
1, 753249, Control_c, 0, 64, 50
1, 753268, Control_c, 0, 64, 17
1, 753285, Control_c, 0, 64, 0
1, 753565, Control_c, 0, 64, 21
1, 753586, Control_c, 0, 64, 38
1, 753604, Control_c, 0, 64, 53
1, 753609, Note_on_c, 0, 63, 102
1, 753619, Note_on_c, 0, 51, 94
1, 753622, Control_c, 0, 64, 68
1, 753623, Note_on_c, 0, 39, 90
1, 753640, Control_c, 0, 64, 80
1, 753656, Note_off_c, 0, 63, 67
1, 753660, Control_c, 0, 64, 93
1, 753667, Note_off_c, 0, 39, 61
1, 753679, Control_c, 0, 64, 108
1, 753696, Control_c, 0, 64, 125
1, 753739, Note_off_c, 0, 51, 57
1, 754361, Note_on_c, 0, 70, 80
1, 754364, Note_on_c, 0, 67, 75
1, 754367, Note_on_c, 0, 82, 97
1, 754372, Note_on_c, 0, 79, 87
1, 754410, Note_off_c, 0, 67, 60
1, 754444, Note_off_c, 0, 70, 62
1, 754482, Note_off_c, 0, 79, 53
1, 754482, Poly_aftertouch_c, 0, 79, 0
1, 754526, Note_off_c, 0, 82, 63
1, 754576, Control_c, 0, 64, 109
1, 754582, Note_on_c, 0, 87, 102
1, 754593, Note_on_c, 0, 75, 97
1, 754595, Control_c, 0, 64, 72
1, 754614, Control_c, 0, 64, 18
1, 754631, Control_c, 0, 64, 0
1, 754726, Control_c, 0, 64, 36
1, 754744, Control_c, 0, 64, 57
1, 754764, Control_c, 0, 64, 72
1, 754781, Control_c, 0, 64, 81
1, 754799, Note_off_c, 0, 75, 63
1, 754801, Control_c, 0, 64, 89
1, 754811, Note_off_c, 0, 87, 64
1, 754818, Control_c, 0, 64, 97
1, 754838, Control_c, 0, 64, 104
1, 754856, Control_c, 0, 64, 108
1, 755063, Control_c, 0, 64, 104
1, 755099, Control_c, 0, 64, 100
1, 755118, Control_c, 0, 64, 96
1, 755137, Control_c, 0, 64, 90
1, 755156, Control_c, 0, 64, 83
1, 755174, Control_c, 0, 64, 75
1, 755193, Control_c, 0, 64, 65
1, 755212, Control_c, 0, 64, 54
1, 755230, Control_c, 0, 64, 34
1, 755249, Control_c, 0, 64, 0
1, 755270, Note_on_c, 0, 51, 81
1, 755271, Note_on_c, 0, 75, 95
1, 755271, Note_on_c, 0, 63, 87
1, 755308, Note_off_c, 0, 51, 63
1, 755326, Note_off_c, 0, 63, 62
1, 755452, Note_off_c, 0, 75, 61
1, 755510, Note_on_c, 0, 80, 102
1, 755516, Note_on_c, 0, 68, 101
1, 755521, Note_on_c, 0, 56, 96
1, 755549, Control_c, 0, 64, 28
1, 755567, Control_c, 0, 64, 53
1, 755576, Note_off_c, 0, 80, 67
1, 755585, Control_c, 0, 64, 72
1, 755605, Control_c, 0, 64, 84
1, 755624, Control_c, 0, 64, 92
1, 755641, Control_c, 0, 64, 97
1, 755666, Note_off_c, 0, 68, 63
1, 755678, Note_off_c, 0, 56, 61
1, 755678, Poly_aftertouch_c, 0, 56, 0
1, 755735, Control_c, 0, 64, 102
1, 755791, Control_c, 0, 64, 106
1, 755943, Control_c, 0, 64, 102
1, 755996, Control_c, 0, 64, 97
1, 756034, Control_c, 0, 64, 92
1, 756053, Control_c, 0, 64, 88
1, 756071, Control_c, 0, 64, 83
1, 756091, Control_c, 0, 64, 76
1, 756109, Control_c, 0, 64, 71
1, 756128, Control_c, 0, 64, 67
1, 756147, Control_c, 0, 64, 61
1, 756166, Control_c, 0, 64, 51
1, 756184, Control_c, 0, 64, 28
1, 756202, Control_c, 0, 64, 0
1, 756216, Note_on_c, 0, 63, 97
1, 756264, Note_on_c, 0, 66, 35
1, 756312, Note_off_c, 0, 66, 32
1, 756380, Note_off_c, 0, 63, 55
1, 756444, Note_on_c, 0, 56, 98
1, 756449, Note_on_c, 0, 51, 87
1, 756453, Note_on_c, 0, 44, 88
1, 756455, Note_on_c, 0, 68, 96
1, 756455, Note_on_c, 0, 48, 82
1, 756484, Control_c, 0, 64, 32
1, 756502, Control_c, 0, 64, 57
1, 756521, Control_c, 0, 64, 75
1, 756532, Note_off_c, 0, 68, 64
1, 756538, Control_c, 0, 64, 90
1, 756559, Control_c, 0, 64, 107
1, 756574, Note_off_c, 0, 56, 63
1, 756574, Poly_aftertouch_c, 0, 56, 0
1, 756576, Control_c, 0, 64, 122
1, 756587, Note_off_c, 0, 48, 62
1, 756594, Control_c, 0, 64, 127
1, 756599, Note_off_c, 0, 51, 56
1, 756621, Note_off_c, 0, 44, 59
1, 756621, Poly_aftertouch_c, 0, 44, 0
1, 756732, Poly_aftertouch_c, 0, 47, 0
1, 756782, Control_c, 0, 64, 112
1, 756801, Control_c, 0, 64, 94
1, 756820, Control_c, 0, 64, 75
1, 756839, Control_c, 0, 64, 56
1, 756857, Control_c, 0, 64, 34
1, 756875, Control_c, 0, 64, 0
1, 757204, Note_on_c, 0, 51, 92
1, 757308, Poly_aftertouch_c, 0, 60, 0
1, 757370, Note_off_c, 0, 51, 51
1, 757443, Note_on_c, 0, 44, 97
1, 757449, Note_on_c, 0, 56, 94
1, 757453, Note_on_c, 0, 32, 88
1, 757454, Note_on_c, 0, 39, 88
1, 757456, Note_on_c, 0, 36, 83
1, 757474, Control_c, 0, 67, 10
1, 757493, Control_c, 0, 64, 26
1, 757512, Control_c, 0, 64, 57
1, 757513, Control_c, 0, 67, 16
1, 757530, Control_c, 0, 64, 76
1, 757549, Control_c, 0, 64, 92
1, 757553, Control_c, 0, 67, 22
1, 757569, Control_c, 0, 64, 110
1, 757587, Control_c, 0, 64, 125
1, 757588, Control_c, 0, 67, 27
1, 757643, Control_c, 0, 67, 31
1, 757646, Note_off_c, 0, 56, 57
1, 757646, Poly_aftertouch_c, 0, 56, 0
1, 757657, Note_off_c, 0, 44, 60
1, 757657, Poly_aftertouch_c, 0, 44, 0
1, 757658, Note_off_c, 0, 39, 57
1, 757661, Note_off_c, 0, 36, 58
1, 757788, Note_off_c, 0, 32, 30
1, 757811, Control_c, 0, 67, 36
1, 757848, Control_c, 0, 67, 41
1, 757886, Control_c, 0, 67, 46
1, 757904, Control_c, 0, 67, 51
1, 757923, Control_c, 0, 67, 55
1, 757942, Control_c, 0, 67, 62
1, 757961, Control_c, 0, 67, 75
1, 757980, Control_c, 0, 64, 110
1, 757980, Control_c, 0, 67, 92
1, 758000, Control_c, 0, 64, 77
1, 758002, Control_c, 0, 67, 112
1, 758017, Control_c, 0, 64, 46
1, 758019, Control_c, 0, 67, 126
1, 758036, Control_c, 0, 64, 0
1, 758540, Control_c, 0, 64, 17
1, 758559, Control_c, 0, 64, 26
1, 758577, Control_c, 0, 64, 34
1, 758596, Control_c, 0, 64, 41
1, 758614, Control_c, 0, 64, 48
1, 758634, Control_c, 0, 64, 55
1, 758652, Control_c, 0, 64, 61
1, 758671, Control_c, 0, 64, 66
1, 758689, Control_c, 0, 64, 69
1, 758709, Control_c, 0, 64, 72
1, 758727, Control_c, 0, 64, 74
1, 758746, Control_c, 0, 64, 76
1, 758765, Control_c, 0, 64, 78
1, 758821, Control_c, 0, 64, 80
1, 759045, Control_c, 0, 64, 78
1, 759103, Control_c, 0, 64, 76
1, 759325, Control_c, 0, 64, 78
1, 759438, Control_c, 0, 64, 80
1, 759531, Control_c, 0, 64, 82
1, 759569, Control_c, 0, 64, 85
1, 759602, Note_on_c, 0, 61, 26
1, 759603, Control_c, 0, 64, 88
1, 759618, Note_on_c, 0, 39, 20
1, 759644, Control_c, 0, 64, 93
1, 759680, Control_c, 0, 64, 99
1, 759718, Control_c, 0, 64, 106
1, 759755, Control_c, 0, 64, 112
1, 759764, Note_on_c, 0, 58, 28
1, 759776, Note_off_c, 0, 39, 32
1, 759789, Note_off_c, 0, 61, 33
1, 759789, Note_on_c, 0, 51, 15
1, 759789, Poly_aftertouch_c, 0, 61, 0
1, 759811, Control_c, 0, 64, 116
1, 759845, Note_off_c, 0, 58, 42
1, 759845, Poly_aftertouch_c, 0, 58, 0
1, 759879, Note_on_c, 0, 39, 37
1, 759885, Note_off_c, 0, 51, 38
1, 759887, Note_on_c, 0, 61, 30
1, 759924, Control_c, 0, 64, 120
1, 759963, Note_off_c, 0, 61, 42
1, 759963, Poly_aftertouch_c, 0, 61, 0
1, 759965, Note_off_c, 0, 39, 50
1, 760007, Note_on_c, 0, 58, 33
1, 760045, Poly_aftertouch_c, 0, 51, 127
1, 760059, Note_off_c, 0, 58, 49
1, 760059, Poly_aftertouch_c, 0, 58, 0
1, 760092, Note_on_c, 0, 39, 46
1, 760104, Poly_aftertouch_c, 0, 51, 0
1, 760115, Note_on_c, 0, 61, 37
1, 760161, Note_off_c, 0, 61, 52
1, 760161, Poly_aftertouch_c, 0, 61, 0
1, 760163, Note_off_c, 0, 39, 53
1, 760188, Note_on_c, 0, 58, 49
1, 760209, Note_on_c, 0, 51, 29
1, 760245, Note_off_c, 0, 58, 56
1, 760245, Poly_aftertouch_c, 0, 58, 0
1, 760294, Note_on_c, 0, 61, 48
1, 760298, Note_off_c, 0, 51, 41
1, 760307, Note_on_c, 0, 39, 56
1, 760356, Note_off_c, 0, 61, 57
1, 760356, Poly_aftertouch_c, 0, 61, 0
1, 760367, Note_off_c, 0, 39, 54
1, 760389, Note_on_c, 0, 58, 53
1, 760409, Note_on_c, 0, 51, 46
1, 760456, Note_off_c, 0, 58, 55
1, 760456, Poly_aftertouch_c, 0, 58, 0
1, 760488, Note_on_c, 0, 61, 62
1, 760498, Note_off_c, 0, 51, 54
1, 760503, Note_on_c, 0, 39, 65
1, 760576, Note_off_c, 0, 39, 55
1, 760585, Note_off_c, 0, 61, 58
1, 760585, Poly_aftertouch_c, 0, 61, 0
1, 760588, Note_on_c, 0, 58, 69
1, 760603, Note_on_c, 0, 51, 60
1, 760617, Control_c, 0, 64, 124
1, 760698, Note_off_c, 0, 58, 57
1, 760698, Poly_aftertouch_c, 0, 58, 0
1, 760705, Note_off_c, 0, 51, 52
1, 760705, Note_on_c, 0, 61, 73
1, 760706, Note_on_c, 0, 39, 77
1, 760785, Control_c, 0, 67, 122
1, 760797, Note_on_c, 0, 51, 68
1, 760803, Control_c, 0, 67, 117
1, 760806, Note_on_c, 0, 58, 80
1, 760807, Note_off_c, 0, 39, 58
1, 760815, Note_off_c, 0, 61, 59
1, 760815, Poly_aftertouch_c, 0, 61, 0
1, 760822, Control_c, 0, 67, 111
1, 760840, Control_c, 0, 67, 106
1, 760858, Control_c, 0, 67, 100
1, 760877, Control_c, 0, 67, 95
1, 760895, Control_c, 0, 67, 89
1, 760904, Note_on_c, 0, 39, 82
1, 760909, Note_on_c, 0, 61, 85
1, 760915, Control_c, 0, 67, 82
1, 760924, Note_off_c, 0, 51, 61
1, 760927, Note_off_c, 0, 58, 61
1, 760927, Poly_aftertouch_c, 0, 58, 0
1, 760933, Control_c, 0, 67, 74
1, 760952, Control_c, 0, 67, 66
1, 760970, Control_c, 0, 67, 56
1, 760990, Control_c, 0, 67, 46
1, 761009, Control_c, 0, 67, 33
1, 761011, Note_on_c, 0, 58, 82
1, 761012, Note_on_c, 0, 51, 79
1, 761027, Control_c, 0, 67, 19
1, 761031, Note_off_c, 0, 61, 63
1, 761031, Poly_aftertouch_c, 0, 61, 0
1, 761035, Note_off_c, 0, 39, 59
1, 761103, Control_c, 0, 67, 0
1, 761117, Note_on_c, 0, 39, 83
1, 761122, Note_on_c, 0, 61, 88
1, 761137, Note_off_c, 0, 51, 61
1, 761147, Note_off_c, 0, 58, 62
1, 761147, Poly_aftertouch_c, 0, 58, 0
1, 761231, Note_on_c, 0, 51, 80
1, 761240, Note_on_c, 0, 58, 80
1, 761247, Note_off_c, 0, 39, 55
1, 761291, Note_off_c, 0, 61, 61
1, 761291, Poly_aftertouch_c, 0, 61, 0
1, 761304, Note_off_c, 0, 58, 61
1, 761304, Poly_aftertouch_c, 0, 58, 0
1, 761378, Note_on_c, 0, 39, 95
1, 761379, Note_on_c, 0, 58, 91
1, 761386, Note_on_c, 0, 55, 83
1, 761389, Note_off_c, 0, 51, 58
1, 761401, Control_c, 0, 64, 115
1, 761419, Control_c, 0, 64, 84
1, 761438, Control_c, 0, 64, 58
1, 761457, Control_c, 0, 64, 44
1, 761475, Control_c, 0, 64, 40
1, 761482, Note_off_c, 0, 55, 60
1, 761482, Poly_aftertouch_c, 0, 55, 0
1, 761495, Control_c, 0, 64, 42
1, 761514, Control_c, 0, 64, 50
1, 761532, Note_off_c, 0, 39, 55
1, 761533, Note_off_c, 0, 58, 58
1, 761533, Poly_aftertouch_c, 0, 58, 0
1, 761533, Control_c, 0, 64, 62
1, 761550, Control_c, 0, 64, 73
1, 761551, Control_c, 0, 67, 8
1, 761570, Control_c, 0, 64, 80
1, 761588, Control_c, 0, 64, 82
1, 761607, Control_c, 0, 67, 12
1, 761663, Control_c, 0, 64, 79
1, 761700, Control_c, 0, 64, 76
1, 761720, Control_c, 0, 64, 74
1, 761738, Control_c, 0, 67, 16
1, 761756, Control_c, 0, 64, 71
1, 761775, Control_c, 0, 64, 69
1, 761794, Control_c, 0, 64, 67
1, 761812, Control_c, 0, 64, 64
1, 761831, Control_c, 0, 64, 62
1, 761849, Control_c, 0, 64, 60
1, 761869, Control_c, 0, 64, 56
1, 761870, Control_c, 0, 67, 21
1, 761886, Control_c, 0, 64, 51
1, 761906, Control_c, 0, 64, 44
1, 761926, Control_c, 0, 64, 36
1, 761943, Control_c, 0, 64, 25
1, 761962, Control_c, 0, 64, 12
1, 761980, Control_c, 0, 64, 0
1, 762184, Note_on_c, 0, 70, 88
1, 762191, Note_on_c, 0, 55, 66
1, 762192, Note_on_c, 0, 67, 79
1, 762199, Note_on_c, 0, 58, 66
1, 762311, Note_off_c, 0, 55, 37
1, 762311, Poly_aftertouch_c, 0, 55, 0
1, 762324, Note_off_c, 0, 58, 55
1, 762324, Poly_aftertouch_c, 0, 58, 0
1, 762377, Note_off_c, 0, 67, 49
1, 762382, Note_off_c, 0, 70, 61
1, 762453, Note_on_c, 0, 73, 84
1, 762463, Note_on_c, 0, 61, 74
1, 762463, Note_on_c, 0, 70, 71
1, 762477, Note_on_c, 0, 58, 59
1, 762504, Control_c, 0, 67, 25
1, 762908, Note_off_c, 0, 73, 59
1, 762919, Note_off_c, 0, 70, 63
1, 762923, Note_off_c, 0, 61, 60
1, 762923, Poly_aftertouch_c, 0, 61, 0
1, 762934, Control_c, 0, 67, 30
1, 762946, Note_off_c, 0, 58, 63
1, 762946, Poly_aftertouch_c, 0, 58, 0
1, 762952, Control_c, 0, 67, 34
1, 762971, Control_c, 0, 67, 38
1, 762990, Control_c, 0, 67, 43
1, 763010, Control_c, 0, 67, 47
1, 763028, Control_c, 0, 67, 51
1, 763047, Control_c, 0, 67, 56
1, 763065, Control_c, 0, 67, 62
1, 763085, Control_c, 0, 67, 68
1, 763102, Control_c, 0, 67, 72
1, 763121, Control_c, 0, 67, 76
1, 763142, Control_c, 0, 67, 81
1, 763158, Control_c, 0, 67, 85
1, 763177, Control_c, 0, 67, 89
1, 763215, Control_c, 0, 67, 95
1, 763270, Control_c, 0, 67, 100
1, 763310, Control_c, 0, 64, 13
1, 763327, Control_c, 0, 64, 21
1, 763345, Control_c, 0, 64, 29
1, 763364, Control_c, 0, 64, 36
1, 763382, Control_c, 0, 64, 43
1, 763402, Control_c, 0, 64, 49
1, 763420, Control_c, 0, 64, 54
1, 763439, Control_c, 0, 64, 58
1, 763458, Control_c, 0, 64, 60
1, 763469, Note_on_c, 0, 61, 33
1, 763474, Note_on_c, 0, 39, 39
1, 763477, Control_c, 0, 64, 62
1, 763494, Control_c, 0, 64, 64
1, 763514, Control_c, 0, 64, 66
1, 763532, Control_c, 0, 64, 68
1, 763569, Control_c, 0, 64, 72
1, 763582, Note_on_c, 0, 58, 23
1, 763587, Note_off_c, 0, 61, 38
1, 763587, Poly_aftertouch_c, 0, 61, 0
1, 763595, Note_on_c, 0, 51, 28
1, 763608, Control_c, 0, 64, 76
1, 763626, Control_c, 0, 64, 79
1, 763645, Control_c, 0, 64, 82
1, 763664, Control_c, 0, 64, 85
1, 763682, Control_c, 0, 64, 90
1, 763683, Note_off_c, 0, 58, 41
1, 763683, Poly_aftertouch_c, 0, 58, 0
1, 763700, Control_c, 0, 64, 96
1, 763706, Note_on_c, 0, 61, 41
1, 763720, Control_c, 0, 64, 102
1, 763721, Control_c, 0, 67, 95
1, 763728, Note_off_c, 0, 39, 64
1, 763728, Note_on_c, 0, 39, 24
1, 763739, Control_c, 0, 64, 108
1, 763757, Control_c, 0, 64, 113
1, 763764, Note_off_c, 0, 61, 57
1, 763764, Poly_aftertouch_c, 0, 61, 0
1, 763777, Control_c, 0, 64, 118
1, 763778, Control_c, 0, 67, 89
1, 763786, Note_off_c, 0, 39, 53
1, 763793, Control_c, 0, 64, 122
1, 763797, Note_on_c, 0, 58, 42
1, 763813, Control_c, 0, 64, 127
1, 763815, Control_c, 0, 67, 81
1, 763832, Control_c, 0, 67, 76
1, 763836, Note_off_c, 0, 51, 64
1, 763836, Note_on_c, 0, 51, 24
1, 763850, Control_c, 0, 67, 70
1, 763866, Note_off_c, 0, 58, 53
1, 763866, Poly_aftertouch_c, 0, 58, 0
1, 763868, Control_c, 0, 67, 65
1, 763888, Control_c, 0, 67, 60
1, 763902, Note_off_c, 0, 51, 52
1, 763906, Control_c, 0, 67, 53
1, 763910, Note_on_c, 0, 61, 49
1, 763919, Note_on_c, 0, 39, 59
1, 763925, Control_c, 0, 67, 46
1, 763944, Control_c, 0, 67, 38
1, 763961, Control_c, 0, 67, 29
1, 763975, Note_off_c, 0, 61, 58
1, 763975, Poly_aftertouch_c, 0, 61, 0
1, 763982, Control_c, 0, 67, 20
1, 763986, Note_on_c, 0, 58, 56
1, 763991, Note_off_c, 0, 39, 56
1, 764000, Control_c, 0, 67, 11
1, 764006, Note_on_c, 0, 51, 55
1, 764078, Note_off_c, 0, 58, 52
1, 764078, Poly_aftertouch_c, 0, 58, 0
1, 764099, Note_off_c, 0, 51, 57
1, 764104, Note_on_c, 0, 61, 63
1, 764115, Note_on_c, 0, 39, 75
1, 764131, Control_c, 0, 67, 0
1, 764185, Note_off_c, 0, 61, 59
1, 764185, Poly_aftertouch_c, 0, 61, 0
1, 764191, Note_on_c, 0, 58, 55
1, 764218, Note_off_c, 0, 39, 59
1, 764228, Note_on_c, 0, 51, 68
1, 764277, Note_off_c, 0, 58, 56
1, 764277, Poly_aftertouch_c, 0, 58, 0
1, 764298, Note_on_c, 0, 61, 67
1, 764312, Note_off_c, 0, 51, 55
1, 764318, Note_on_c, 0, 39, 77
1, 764376, Note_off_c, 0, 61, 61
1, 764376, Poly_aftertouch_c, 0, 61, 0
1, 764385, Note_on_c, 0, 58, 67
1, 764416, Note_off_c, 0, 39, 60
1, 764430, Note_on_c, 0, 51, 76
1, 764488, Note_off_c, 0, 58, 60
1, 764488, Poly_aftertouch_c, 0, 58, 0
1, 764498, Note_on_c, 0, 61, 74
1, 764515, Note_off_c, 0, 51, 50
1, 764522, Note_on_c, 0, 39, 83
1, 764595, Note_on_c, 0, 58, 78
1, 764601, Note_off_c, 0, 61, 62
1, 764601, Poly_aftertouch_c, 0, 61, 0
1, 764619, Note_off_c, 0, 39, 59
1, 764624, Note_on_c, 0, 51, 82
1, 764711, Note_on_c, 0, 61, 82
1, 764714, Note_off_c, 0, 51, 57
1, 764722, Note_on_c, 0, 39, 88
1, 764724, Note_off_c, 0, 58, 61
1, 764724, Poly_aftertouch_c, 0, 58, 0
1, 764819, Note_on_c, 0, 58, 84
1, 764824, Note_off_c, 0, 39, 60
1, 764824, Note_on_c, 0, 51, 85
1, 764830, Note_off_c, 0, 61, 61
1, 764830, Poly_aftertouch_c, 0, 61, 0
1, 764914, Note_off_c, 0, 51, 60
1, 764933, Note_on_c, 0, 39, 90
1, 764939, Note_on_c, 0, 61, 90
1, 764972, Note_off_c, 0, 58, 62
1, 764972, Poly_aftertouch_c, 0, 58, 0
1, 765027, Note_on_c, 0, 51, 89
1, 765035, Note_off_c, 0, 39, 56
1, 765073, Note_on_c, 0, 58, 78
1, 765112, Note_off_c, 0, 61, 58
1, 765112, Poly_aftertouch_c, 0, 61, 0
1, 765123, Note_off_c, 0, 58, 59
1, 765123, Poly_aftertouch_c, 0, 58, 0
1, 765198, Note_off_c, 0, 51, 62
1, 765199, Note_on_c, 0, 39, 97
1, 765203, Note_on_c, 0, 58, 92
1, 765212, Note_on_c, 0, 55, 82
1, 765214, Control_c, 0, 64, 120
1, 765234, Control_c, 0, 64, 83
1, 765253, Control_c, 0, 64, 47
1, 765271, Control_c, 0, 64, 0
1, 765313, Note_off_c, 0, 55, 62
1, 765313, Poly_aftertouch_c, 0, 55, 0
1, 765328, Control_c, 0, 64, 30
1, 765346, Control_c, 0, 64, 58
1, 765355, Note_off_c, 0, 39, 61
1, 765356, Note_off_c, 0, 58, 60
1, 765356, Poly_aftertouch_c, 0, 58, 0
1, 765365, Control_c, 0, 64, 79
1, 765384, Control_c, 0, 64, 94
1, 765402, Control_c, 0, 64, 106
1, 765422, Control_c, 0, 64, 111
1, 765440, Control_c, 0, 64, 116
1, 765458, Control_c, 0, 64, 120
1, 765478, Control_c, 0, 64, 125
1, 765627, Control_c, 0, 64, 111
1, 765645, Control_c, 0, 64, 95
1, 765665, Control_c, 0, 64, 77
1, 765683, Control_c, 0, 64, 60
1, 765702, Control_c, 0, 64, 46
1, 765720, Control_c, 0, 64, 29
1, 765758, Control_c, 0, 64, 0
1, 765969, Note_on_c, 0, 82, 101
1, 765976, Note_on_c, 0, 79, 90
1, 765982, Note_on_c, 0, 67, 83
1, 765987, Note_on_c, 0, 70, 82
1, 766049, Note_off_c, 0, 67, 61
1, 766082, Note_off_c, 0, 70, 63
1, 766154, Note_off_c, 0, 82, 64
1, 766170, Note_off_c, 0, 79, 54
1, 766170, Poly_aftertouch_c, 0, 79, 0
1, 766225, Note_on_c, 0, 85, 99
1, 766226, Note_on_c, 0, 82, 97
1, 766230, Note_on_c, 0, 73, 101
1, 766234, Note_on_c, 0, 70, 92
1, 766282, Control_c, 0, 64, 27
1, 766300, Control_c, 0, 64, 51
1, 766318, Control_c, 0, 64, 69
1, 766337, Control_c, 0, 64, 82
1, 766356, Control_c, 0, 64, 94
1, 766375, Control_c, 0, 64, 109
1, 766393, Control_c, 0, 64, 125
1, 766402, Note_off_c, 0, 73, 63
1, 766429, Note_off_c, 0, 70, 62
1, 766441, Note_off_c, 0, 82, 63
1, 766449, Note_off_c, 0, 85, 61
1, 766674, Control_c, 0, 64, 118
1, 766692, Control_c, 0, 64, 103
1, 766711, Control_c, 0, 64, 84
1, 766729, Control_c, 0, 64, 66
1, 766748, Control_c, 0, 64, 50
1, 766768, Control_c, 0, 64, 17
1, 766785, Control_c, 0, 64, 0
1, 767290, Control_c, 0, 64, 28
1, 767294, Note_on_c, 0, 68, 103
1, 767300, Note_on_c, 0, 56, 97
1, 767302, Note_on_c, 0, 44, 97
1, 767309, Control_c, 0, 64, 49
1, 767327, Control_c, 0, 64, 66
1, 767347, Control_c, 0, 64, 79
1, 767366, Control_c, 0, 64, 91
1, 767375, Note_off_c, 0, 44, 64
1, 767375, Poly_aftertouch_c, 0, 44, 0
1, 767378, Note_off_c, 0, 68, 62
1, 767384, Control_c, 0, 64, 106
1, 767394, Note_off_c, 0, 56, 50
1, 767394, Poly_aftertouch_c, 0, 56, 0
1, 767403, Control_c, 0, 64, 120
1, 767422, Control_c, 0, 64, 127
1, 767429, Poly_aftertouch_c, 0, 54, 0
1, 768055, Note_on_c, 0, 84, 98
1, 768056, Note_on_c, 0, 80, 90
1, 768056, Note_on_c, 0, 72, 87
1, 768058, Note_on_c, 0, 68, 81
1, 768110, Note_on_c, 0, 85, 10
1, 768111, Note_off_c, 0, 85, 127
1, 768152, Note_off_c, 0, 68, 61
1, 768168, Note_off_c, 0, 72, 53
1, 768171, Note_off_c, 0, 80, 54
1, 768220, Note_off_c, 0, 84, 60
1, 768276, Note_on_c, 0, 87, 103
1, 768282, Control_c, 0, 64, 95
1, 768283, Note_on_c, 0, 75, 102
1, 768301, Control_c, 0, 64, 53
1, 768320, Control_c, 0, 64, 0
1, 768469, Control_c, 0, 64, 11
1, 768487, Control_c, 0, 64, 34
1, 768507, Control_c, 0, 64, 51
1, 768524, Control_c, 0, 64, 66
1, 768544, Control_c, 0, 64, 77
1, 768562, Control_c, 0, 64, 87
1, 768581, Control_c, 0, 64, 100
1, 768598, Note_off_c, 0, 75, 62
1, 768599, Control_c, 0, 64, 115
1, 768618, Control_c, 0, 64, 127
1, 768637, Note_off_c, 0, 87, 56
1, 769030, Control_c, 0, 64, 115
1, 769049, Control_c, 0, 64, 102
1, 769067, Control_c, 0, 64, 87
1, 769086, Control_c, 0, 64, 73
1, 769105, Control_c, 0, 64, 60
1, 769124, Control_c, 0, 64, 48
1, 769141, Control_c, 0, 64, 19
1, 769161, Control_c, 0, 64, 0
1, 769268, Note_on_c, 0, 63, 102
1, 769279, Note_on_c, 0, 51, 92
1, 769283, Note_on_c, 0, 39, 95
1, 769291, Control_c, 0, 64, 18
1, 769311, Control_c, 0, 64, 46
1, 769329, Control_c, 0, 64, 69
1, 769335, Note_off_c, 0, 63, 62
1, 769347, Note_off_c, 0, 39, 61
1, 769347, Control_c, 0, 64, 87
1, 769367, Control_c, 0, 64, 102
1, 769385, Control_c, 0, 64, 117
1, 769404, Control_c, 0, 64, 127
1, 769409, Note_off_c, 0, 51, 59
1, 769928, Control_c, 0, 64, 121
1, 769946, Control_c, 0, 64, 115
1, 769965, Control_c, 0, 64, 106
1, 769983, Control_c, 0, 64, 95
1, 770002, Control_c, 0, 64, 78
1, 770020, Control_c, 0, 64, 55
1, 770032, Note_on_c, 0, 82, 102
1, 770036, Note_on_c, 0, 79, 92
1, 770038, Note_on_c, 0, 70, 88
1, 770039, Control_c, 0, 64, 0
1, 770045, Note_on_c, 0, 67, 82
1, 770119, Note_off_c, 0, 67, 59
1, 770219, Note_off_c, 0, 79, 58
1, 770219, Poly_aftertouch_c, 0, 79, 0
1, 770227, Note_off_c, 0, 70, 63
1, 770249, Note_off_c, 0, 82, 64
1, 770284, Note_on_c, 0, 87, 102
1, 770292, Note_on_c, 0, 75, 97
1, 770470, Control_c, 0, 64, 29
1, 770488, Control_c, 0, 64, 50
1, 770506, Control_c, 0, 64, 69
1, 770526, Control_c, 0, 64, 83
1, 770544, Control_c, 0, 64, 97
1, 770552, Note_off_c, 0, 75, 63
1, 770564, Control_c, 0, 64, 111
1, 770574, Note_off_c, 0, 87, 62
1, 770581, Control_c, 0, 64, 121
1, 770749, Control_c, 0, 64, 116
1, 770769, Control_c, 0, 64, 112
1, 770789, Control_c, 0, 64, 101
1, 770806, Control_c, 0, 64, 81
1, 770825, Control_c, 0, 64, 55
1, 770844, Control_c, 0, 64, 0
1, 770980, Note_on_c, 0, 51, 93
1, 770980, Note_on_c, 0, 63, 96
1, 770981, Note_on_c, 0, 75, 94
1, 771011, Control_c, 0, 64, 31
1, 771031, Control_c, 0, 64, 59
1, 771049, Control_c, 0, 64, 79
1, 771053, Note_off_c, 0, 51, 59
1, 771069, Control_c, 0, 64, 96
1, 771087, Control_c, 0, 64, 113
1, 771093, Note_off_c, 0, 63, 59
1, 771102, Poly_aftertouch_c, 0, 82, 0
1, 771105, Control_c, 0, 64, 121
1, 771142, Note_off_c, 0, 75, 59
1, 771142, Control_c, 0, 64, 112
1, 771161, Control_c, 0, 64, 91
1, 771181, Control_c, 0, 64, 60
1, 771200, Control_c, 0, 64, 0
1, 771240, Note_on_c, 0, 80, 103
1, 771242, Note_on_c, 0, 68, 100
1, 771245, Note_on_c, 0, 56, 96
1, 771312, Control_c, 0, 64, 37
1, 771330, Control_c, 0, 64, 63
1, 771349, Control_c, 0, 64, 87
1, 771368, Control_c, 0, 64, 110
1, 771384, Note_off_c, 0, 80, 63
1, 771385, Control_c, 0, 64, 127
1, 771420, Note_off_c, 0, 68, 62
1, 771470, Note_off_c, 0, 56, 55
1, 771470, Poly_aftertouch_c, 0, 56, 0
1, 771592, Control_c, 0, 64, 118
1, 771610, Control_c, 0, 64, 88
1, 771628, Control_c, 0, 64, 52
1, 771648, Control_c, 0, 64, 0
1, 771947, Control_c, 0, 67, 8
1, 771965, Control_c, 0, 67, 12
1, 771976, Note_on_c, 0, 63, 91
1, 771982, Control_c, 0, 67, 17
1, 772004, Control_c, 0, 67, 28
1, 772021, Control_c, 0, 67, 47
1, 772040, Control_c, 0, 67, 72
1, 772061, Control_c, 0, 67, 94
1, 772078, Control_c, 0, 67, 105
1, 772141, Note_off_c, 0, 63, 57
1, 772152, Control_c, 0, 67, 101
1, 772172, Control_c, 0, 67, 95
1, 772190, Control_c, 0, 67, 80
1, 772209, Control_c, 0, 67, 58
1, 772224, Note_on_c, 0, 56, 101
1, 772226, Note_on_c, 0, 68, 93
1, 772228, Note_on_c, 0, 51, 91
1, 772228, Note_on_c, 0, 44, 89
1, 772228, Control_c, 0, 64, 37
1, 772229, Control_c, 0, 67, 37
1, 772236, Note_on_c, 0, 48, 82
1, 772250, Control_c, 0, 64, 62
1, 772251, Control_c, 0, 67, 16
1, 772265, Control_c, 0, 64, 88
1, 772266, Note_on_c, 0, 49, 43
1, 772267, Note_off_c, 0, 49, 127
1, 772267, Control_c, 0, 67, 0
1, 772283, Control_c, 0, 64, 127
1, 772313, Note_off_c, 0, 68, 67
1, 772319, Poly_aftertouch_c, 0, 49, 0
1, 772354, Note_off_c, 0, 56, 65
1, 772354, Poly_aftertouch_c, 0, 56, 0
1, 772375, Poly_aftertouch_c, 0, 57, 0
1, 772381, Note_off_c, 0, 48, 61
1, 772383, Note_off_c, 0, 51, 62
1, 772397, Note_off_c, 0, 44, 62
1, 772397, Poly_aftertouch_c, 0, 44, 0
1, 772639, Control_c, 0, 64, 117
1, 772657, Control_c, 0, 64, 79
1, 772676, Control_c, 0, 64, 33
1, 772695, Control_c, 0, 64, 0
1, 773017, Note_on_c, 0, 51, 92
1, 773136, Poly_aftertouch_c, 0, 60, 0
1, 773246, Note_off_c, 0, 51, 53
1, 773296, Note_on_c, 0, 56, 87
1, 773299, Note_on_c, 0, 44, 92
1, 773306, Note_on_c, 0, 32, 86
1, 773311, Note_on_c, 0, 39, 87
1, 773311, Note_on_c, 0, 36, 83
1, 773350, Control_c, 0, 64, 25
1, 773368, Control_c, 0, 64, 54
1, 773386, Control_c, 0, 64, 73
1, 773406, Control_c, 0, 64, 86
1, 773424, Control_c, 0, 64, 103
1, 773442, Control_c, 0, 64, 127
1, 773484, Note_off_c, 0, 44, 63
1, 773484, Poly_aftertouch_c, 0, 44, 0
1, 773491, Note_off_c, 0, 56, 62
1, 773491, Poly_aftertouch_c, 0, 56, 0
1, 773504, Note_off_c, 0, 39, 60
1, 773504, Note_off_c, 0, 36, 59
1, 773620, Note_off_c, 0, 32, 29
1, 773686, Control_c, 0, 67, 9
1, 773704, Control_c, 0, 67, 13
1, 773723, Control_c, 0, 67, 18
1, 773742, Control_c, 0, 67, 24
1, 773760, Control_c, 0, 67, 29
1, 773798, Control_c, 0, 67, 35
1, 773817, Control_c, 0, 67, 39
1, 773835, Control_c, 0, 67, 44
1, 773854, Control_c, 0, 64, 115
1, 773873, Control_c, 0, 64, 97
1, 773875, Control_c, 0, 67, 51
1, 773892, Control_c, 0, 64, 78
1, 773910, Control_c, 0, 64, 60
1, 773911, Control_c, 0, 67, 59
1, 773930, Control_c, 0, 64, 43
1, 773932, Control_c, 0, 67, 65
1, 773948, Control_c, 0, 64, 16
1, 773950, Control_c, 0, 67, 72
1, 773966, Control_c, 0, 64, 0
1, 773967, Control_c, 0, 67, 80
1, 773985, Control_c, 0, 67, 88
1, 774004, Control_c, 0, 67, 97
1, 774023, Control_c, 0, 67, 105
1, 774040, Control_c, 0, 67, 112
1, 774061, Control_c, 0, 67, 118
1, 774078, Control_c, 0, 67, 124
1, 774788, Control_c, 0, 64, 11
1, 774826, Control_c, 0, 64, 16
1, 774863, Control_c, 0, 64, 21
1, 774883, Control_c, 0, 64, 26
1, 774901, Control_c, 0, 64, 31
1, 774919, Control_c, 0, 64, 37
1, 774938, Control_c, 0, 64, 43
1, 774957, Control_c, 0, 64, 49
1, 774967, Note_on_c, 0, 63, 42
1, 774974, Control_c, 0, 64, 57
1, 774991, Note_on_c, 0, 51, 34
1, 774992, Control_c, 0, 64, 64
1, 775013, Control_c, 0, 64, 68
1, 775033, Control_c, 0, 64, 71
1, 775050, Control_c, 0, 64, 74
1, 775070, Control_c, 0, 64, 77
1, 775088, Control_c, 0, 64, 81
1, 775107, Control_c, 0, 64, 84
1, 775126, Control_c, 0, 64, 88
1, 775144, Control_c, 0, 64, 92
1, 775164, Control_c, 0, 64, 97
1, 775181, Control_c, 0, 64, 101
1, 775211, Note_off_c, 0, 63, 27
1, 775220, Control_c, 0, 64, 107
1, 775240, Note_off_c, 0, 51, 22
1, 775312, Control_c, 0, 64, 111
1, 775932, Note_on_c, 0, 63, 32
1, 775951, Note_on_c, 0, 51, 36
1, 776038, Note_off_c, 0, 51, 47
1, 776057, Note_off_c, 0, 63, 39
1, 776078, Poly_aftertouch_c, 0, 56, 0
1, 776116, Control_c, 0, 64, 107
1, 776173, Control_c, 0, 64, 102
1, 776209, Control_c, 0, 64, 97
1, 776213, Note_on_c, 0, 63, 44
1, 776219, Note_on_c, 0, 51, 38
1, 776228, Note_on_c, 0, 56, 42
1, 776233, Note_on_c, 0, 59, 38
1, 776240, Note_on_c, 0, 44, 32
1, 776242, Note_on_c, 0, 32, 40
1, 776247, Control_c, 0, 64, 92
1, 776285, Control_c, 0, 64, 85
1, 776304, Control_c, 0, 64, 80
1, 776323, Control_c, 0, 64, 76
1, 776341, Control_c, 0, 64, 72
1, 776360, Control_c, 0, 64, 69
1, 776378, Control_c, 0, 64, 66
1, 776397, Control_c, 0, 64, 62
1, 776416, Control_c, 0, 64, 59
1, 776436, Control_c, 0, 64, 56
1, 776453, Control_c, 0, 64, 54
1, 776472, Control_c, 0, 64, 52
1, 776565, Control_c, 0, 64, 55
1, 776602, Control_c, 0, 64, 58
1, 776622, Control_c, 0, 64, 60
1, 776640, Control_c, 0, 64, 63
1, 776659, Control_c, 0, 64, 66
1, 776677, Control_c, 0, 64, 67
1, 776715, Control_c, 0, 64, 71
1, 776752, Control_c, 0, 64, 74
1, 776789, Control_c, 0, 64, 77
1, 776827, Control_c, 0, 64, 80
1, 776864, Control_c, 0, 64, 83
1, 776902, Control_c, 0, 64, 86
1, 776977, Control_c, 0, 64, 90
1, 777039, Note_off_c, 0, 51, 29
1, 777039, Poly_aftertouch_c, 0, 59, 20
1, 777051, Note_off_c, 0, 59, 30
1, 777051, Poly_aftertouch_c, 0, 59, 0
1, 777114, Note_off_c, 0, 63, 37
1, 777116, Note_off_c, 0, 56, 23
1, 777183, Control_c, 0, 64, 94
1, 777338, Note_on_c, 0, 63, 41
1, 777355, Note_on_c, 0, 59, 40
1, 777358, Note_on_c, 0, 51, 38
1, 777358, Note_on_c, 0, 56, 35
1, 777500, Control_c, 0, 64, 98
1, 777514, Note_off_c, 0, 51, 32
1, 777547, Note_off_c, 0, 59, 31
1, 777547, Poly_aftertouch_c, 0, 59, 0
1, 777587, Note_off_c, 0, 56, 27
1, 777589, Note_off_c, 0, 63, 27
1, 778006, Note_off_c, 0, 32, 22
1, 778164, Note_on_c, 0, 63, 42
1, 778177, Note_on_c, 0, 59, 36
1, 778177, Note_on_c, 0, 51, 36
1, 778179, Note_on_c, 0, 56, 40
1, 778247, Note_off_c, 0, 56, 51
1, 778249, Note_off_c, 0, 51, 45
1, 778251, Note_off_c, 0, 63, 49
1, 778273, Note_off_c, 0, 59, 35
1, 778273, Poly_aftertouch_c, 0, 59, 0
1, 778361, Control_c, 0, 64, 94
1, 778416, Control_c, 0, 64, 89
1, 778432, Note_on_c, 0, 59, 46
1, 778434, Control_c, 0, 64, 85
1, 778437, Note_on_c, 0, 63, 37
1, 778437, Note_on_c, 0, 56, 40
1, 778451, Note_on_c, 0, 51, 31
1, 778457, Control_c, 0, 64, 79
1, 778463, Note_on_c, 0, 32, 41
1, 778473, Control_c, 0, 64, 73
1, 778492, Control_c, 0, 64, 66
1, 778510, Control_c, 0, 64, 61
1, 778530, Control_c, 0, 64, 56
1, 778547, Control_c, 0, 64, 49
1, 778565, Control_c, 0, 64, 42
1, 778585, Control_c, 0, 64, 40
1, 778603, Control_c, 0, 64, 42
1, 778622, Control_c, 0, 64, 45
1, 778641, Control_c, 0, 64, 49
1, 778660, Control_c, 0, 64, 54
1, 778678, Control_c, 0, 64, 59
1, 778696, Control_c, 0, 64, 64
1, 778716, Control_c, 0, 64, 68
1, 778733, Control_c, 0, 64, 72
1, 778753, Control_c, 0, 64, 75
1, 778771, Control_c, 0, 64, 78
1, 778791, Control_c, 0, 64, 80
1, 778809, Control_c, 0, 64, 82
1, 778811, Poly_aftertouch_c, 0, 59, 24
1, 778828, Control_c, 0, 64, 86
1, 778865, Control_c, 0, 64, 93
1, 778891, Note_off_c, 0, 63, 35
1, 778893, Note_off_c, 0, 59, 31
1, 778893, Poly_aftertouch_c, 0, 59, 0
1, 778901, Control_c, 0, 64, 98
1, 778930, Note_off_c, 0, 56, 28
1, 778938, Note_off_c, 0, 51, 29
1, 779229, Note_on_c, 0, 63, 43
1, 779232, Note_on_c, 0, 51, 43
1, 779235, Note_on_c, 0, 56, 40
1, 779256, Note_on_c, 0, 59, 35
1, 779319, Note_off_c, 0, 59, 41
1, 779319, Poly_aftertouch_c, 0, 59, 0
1, 779346, Note_off_c, 0, 56, 56
1, 779390, Note_off_c, 0, 51, 37
1, 779391, Note_off_c, 0, 63, 38
1, 779445, Control_c, 0, 64, 93
1, 779472, Note_on_c, 0, 63, 32
1, 779489, Note_on_c, 0, 51, 24
1, 779495, Note_on_c, 0, 58, 44
1, 779500, Control_c, 0, 64, 89
1, 779508, Note_on_c, 0, 55, 44
1, 779520, Control_c, 0, 64, 84
1, 779538, Control_c, 0, 64, 78
1, 779556, Control_c, 0, 64, 69
1, 779577, Control_c, 0, 64, 60
1, 779594, Control_c, 0, 64, 49
1, 779613, Control_c, 0, 64, 32
1, 779632, Control_c, 0, 64, 11
1, 779669, Control_c, 0, 64, 18
1, 779688, Control_c, 0, 64, 31
1, 779706, Control_c, 0, 64, 44
1, 779726, Control_c, 0, 64, 56
1, 779744, Control_c, 0, 64, 66
1, 779763, Control_c, 0, 64, 72
1, 779776, Note_off_c, 0, 58, 52
1, 779776, Poly_aftertouch_c, 0, 58, 0
1, 779781, Control_c, 0, 64, 76
1, 779800, Control_c, 0, 64, 79
1, 779819, Control_c, 0, 64, 81
1, 779874, Control_c, 0, 64, 83
1, 779881, Note_off_c, 0, 55, 53
1, 779881, Poly_aftertouch_c, 0, 55, 0
1, 779883, Note_off_c, 0, 32, 53
1, 779912, Control_c, 0, 64, 87
1, 779975, Note_off_c, 0, 63, 44
1, 779976, Note_off_c, 0, 51, 33
1, 779987, Control_c, 0, 64, 91
1, 780133, Note_off_c, 0, 44, 29
1, 780133, Poly_aftertouch_c, 0, 44, 0
1, 780278, Note_on_c, 0, 63, 41
1, 780286, Note_on_c, 0, 56, 42
1, 780291, Note_on_c, 0, 51, 43
1, 780297, Note_on_c, 0, 59, 36
1, 780353, Note_off_c, 0, 56, 62
1, 780392, Note_off_c, 0, 51, 52
1, 780397, Note_off_c, 0, 59, 55
1, 780397, Poly_aftertouch_c, 0, 59, 0
1, 780398, Note_off_c, 0, 63, 48
1, 780529, Control_c, 0, 64, 88
1, 780560, Note_on_c, 0, 63, 48
1, 780566, Note_on_c, 0, 51, 40
1, 780566, Control_c, 0, 64, 85
1, 780567, Note_on_c, 0, 39, 48
1, 780568, Note_on_c, 0, 61, 45
1, 780576, Note_on_c, 0, 58, 44
1, 780586, Control_c, 0, 64, 82
1, 780605, Control_c, 0, 64, 76
1, 780622, Control_c, 0, 64, 68
1, 780642, Control_c, 0, 64, 60
1, 780660, Control_c, 0, 64, 51
1, 780679, Control_c, 0, 64, 36
1, 780698, Control_c, 0, 64, 0
1, 780847, Control_c, 0, 64, 25
1, 780866, Control_c, 0, 64, 38
1, 780884, Control_c, 0, 64, 48
1, 780903, Control_c, 0, 64, 57
1, 780922, Control_c, 0, 64, 65
1, 780941, Control_c, 0, 64, 70
1, 780959, Control_c, 0, 64, 72
1, 780997, Control_c, 0, 64, 75
1, 780999, Note_off_c, 0, 39, 37
1, 781034, Control_c, 0, 64, 77
1, 781072, Control_c, 0, 64, 80
1, 781109, Control_c, 0, 64, 83
1, 781165, Control_c, 0, 64, 85
1, 781305, Note_on_c, 0, 39, 43
1, 781471, Note_off_c, 0, 39, 53
1, 781573, Note_on_c, 0, 43, 52
1, 781595, Control_c, 0, 64, 82
1, 781614, Control_c, 0, 64, 80
1, 781633, Control_c, 0, 64, 78
1, 781651, Control_c, 0, 64, 72
1, 781671, Control_c, 0, 64, 65
1, 781688, Control_c, 0, 64, 58
1, 781708, Control_c, 0, 64, 51
1, 781726, Control_c, 0, 64, 40
1, 781745, Control_c, 0, 64, 23
1, 781801, Control_c, 0, 64, 12
1, 781820, Control_c, 0, 64, 22
1, 781838, Control_c, 0, 64, 32
1, 781858, Control_c, 0, 64, 43
1, 781876, Control_c, 0, 64, 54
1, 781894, Control_c, 0, 64, 63
1, 781913, Control_c, 0, 64, 69
1, 781932, Control_c, 0, 64, 72
1, 781988, Control_c, 0, 64, 74
1, 782025, Control_c, 0, 64, 76
1, 782032, Note_off_c, 0, 51, 37
1, 782064, Control_c, 0, 64, 78
1, 782120, Control_c, 0, 64, 80
1, 782344, Note_on_c, 0, 46, 46
1, 782413, Note_off_c, 0, 43, 36
1, 782608, Note_on_c, 0, 51, 47
1, 782624, Control_c, 0, 64, 78
1, 782659, Note_off_c, 0, 46, 26
1, 782659, Control_c, 0, 64, 73
1, 782680, Control_c, 0, 64, 70
1, 782699, Control_c, 0, 64, 66
1, 782717, Control_c, 0, 64, 63
1, 782737, Control_c, 0, 64, 58
1, 782755, Control_c, 0, 64, 51
1, 782773, Control_c, 0, 64, 41
1, 782792, Control_c, 0, 64, 24
1, 782811, Control_c, 0, 64, 0
1, 782924, Control_c, 0, 64, 9
1, 782941, Control_c, 0, 64, 19
1, 782960, Control_c, 0, 64, 29
1, 782979, Control_c, 0, 64, 39
1, 782998, Control_c, 0, 64, 48
1, 783017, Control_c, 0, 64, 55
1, 783035, Control_c, 0, 64, 60
1, 783054, Control_c, 0, 64, 64
1, 783072, Control_c, 0, 64, 67
1, 783109, Control_c, 0, 64, 69
1, 783148, Control_c, 0, 64, 72
1, 783185, Control_c, 0, 64, 75
1, 783223, Control_c, 0, 64, 77
1, 783265, Note_off_c, 0, 58, 30
1, 783265, Poly_aftertouch_c, 0, 58, 0
1, 783278, Control_c, 0, 64, 79
1, 783285, Note_off_c, 0, 61, 35
1, 783285, Poly_aftertouch_c, 0, 61, 0
1, 783335, Control_c, 0, 64, 82
1, 783428, Note_off_c, 0, 51, 28
1, 783428, Control_c, 0, 64, 84
1, 783449, Note_off_c, 0, 63, 23
1, 783691, Control_c, 0, 64, 82
1, 783704, Note_on_c, 0, 63, 47
1, 783723, Note_on_c, 0, 51, 43
1, 783727, Note_on_c, 0, 55, 43
1, 783727, Control_c, 0, 64, 79
1, 783735, Note_on_c, 0, 58, 41
1, 783746, Control_c, 0, 64, 76
1, 783749, Note_on_c, 0, 49, 38
1, 783764, Control_c, 0, 64, 69
1, 783783, Control_c, 0, 64, 63
1, 783801, Control_c, 0, 64, 59
1, 783821, Control_c, 0, 64, 57
1, 783858, Control_c, 0, 64, 59
1, 783876, Control_c, 0, 64, 62
1, 783896, Control_c, 0, 64, 65
1, 783913, Control_c, 0, 64, 69
1, 783933, Control_c, 0, 64, 73
1, 783951, Control_c, 0, 64, 76
1, 783970, Control_c, 0, 64, 78
1, 783988, Control_c, 0, 64, 81
1, 784007, Control_c, 0, 64, 83
1, 784027, Control_c, 0, 64, 86
1, 784044, Control_c, 0, 64, 88
1, 784083, Control_c, 0, 64, 92
1, 784119, Control_c, 0, 64, 96
1, 784157, Control_c, 0, 64, 101
1, 784175, Note_off_c, 0, 49, 25
1, 784194, Control_c, 0, 64, 105
1, 784201, Note_off_c, 0, 51, 22
1, 784232, Control_c, 0, 64, 109
1, 784242, Note_off_c, 0, 55, 26
1, 784242, Poly_aftertouch_c, 0, 55, 0
1, 784245, Note_off_c, 0, 58, 26
1, 784245, Poly_aftertouch_c, 0, 58, 0
1, 784273, Note_off_c, 0, 63, 26
1, 784524, Note_on_c, 0, 63, 54
1, 784527, Note_on_c, 0, 51, 46
1, 784536, Note_on_c, 0, 49, 47
1, 784537, Note_on_c, 0, 55, 45
1, 784538, Note_on_c, 0, 58, 47
1, 784613, Note_off_c, 0, 58, 58
1, 784613, Poly_aftertouch_c, 0, 58, 0
1, 784651, Note_off_c, 0, 55, 51
1, 784651, Poly_aftertouch_c, 0, 55, 0
1, 784664, Note_off_c, 0, 51, 35
1, 784672, Note_off_c, 0, 63, 48
1, 784700, Note_off_c, 0, 49, 36
1, 784700, Control_c, 0, 64, 105
1, 784755, Control_c, 0, 64, 100
1, 784792, Note_on_c, 0, 63, 54
1, 784792, Control_c, 0, 64, 92
1, 784812, Control_c, 0, 64, 88
1, 784814, Note_on_c, 0, 56, 52
1, 784817, Note_on_c, 0, 59, 50
1, 784824, Note_on_c, 0, 51, 48
1, 784830, Control_c, 0, 64, 82
1, 784837, Note_on_c, 0, 47, 38
1, 784848, Control_c, 0, 64, 77
1, 784867, Control_c, 0, 64, 73
1, 784887, Control_c, 0, 64, 69
1, 784905, Control_c, 0, 64, 66
1, 784923, Control_c, 0, 64, 62
1, 784942, Control_c, 0, 64, 59
1, 784961, Control_c, 0, 64, 55
1, 784979, Control_c, 0, 64, 48
1, 784998, Control_c, 0, 64, 36
1, 785017, Control_c, 0, 64, 16
1, 785036, Control_c, 0, 64, 0
1, 785279, Control_c, 0, 64, 13
1, 785298, Control_c, 0, 64, 24
1, 785315, Control_c, 0, 64, 33
1, 785335, Control_c, 0, 64, 42
1, 785353, Control_c, 0, 64, 49
1, 785373, Control_c, 0, 64, 56
1, 785391, Control_c, 0, 64, 62
1, 785410, Control_c, 0, 64, 67
1, 785429, Control_c, 0, 64, 70
1, 785446, Control_c, 0, 64, 72
1, 785466, Control_c, 0, 64, 74
1, 785484, Control_c, 0, 64, 77
1, 785504, Control_c, 0, 64, 79
1, 785521, Control_c, 0, 64, 82
1, 785541, Control_c, 0, 64, 85
1, 785560, Control_c, 0, 64, 89
1, 785576, Note_off_c, 0, 59, 31
1, 785576, Poly_aftertouch_c, 0, 59, 0
1, 785591, Note_off_c, 0, 63, 31
1, 785596, Control_c, 0, 64, 96
1, 785653, Control_c, 0, 64, 100
1, 785669, Note_off_c, 0, 56, 29
1, 785679, Poly_aftertouch_c, 0, 47, 24
1, 785687, Note_off_c, 0, 51, 23
1, 785859, Control_c, 0, 64, 95
1, 785877, Note_on_c, 0, 56, 45
1, 785878, Note_on_c, 0, 63, 52
1, 785885, Note_on_c, 0, 51, 39
1, 785896, Control_c, 0, 64, 90
1, 785901, Note_on_c, 0, 59, 44
1, 785915, Note_on_c, 0, 44, 44
1, 785915, Control_c, 0, 64, 85
1, 785931, Poly_aftertouch_c, 0, 47, 22
1, 785932, Control_c, 0, 64, 78
1, 785952, Control_c, 0, 64, 70
1, 785959, Note_off_c, 0, 47, 19
1, 785959, Poly_aftertouch_c, 0, 47, 0
1, 785971, Control_c, 0, 64, 63
1, 785989, Control_c, 0, 64, 57
1, 786008, Control_c, 0, 64, 50
1, 786027, Control_c, 0, 64, 41
1, 786045, Control_c, 0, 64, 32
1, 786063, Control_c, 0, 64, 28
1, 786120, Control_c, 0, 64, 34
1, 786138, Control_c, 0, 64, 40
1, 786158, Control_c, 0, 64, 48
1, 786176, Control_c, 0, 64, 56
1, 786195, Control_c, 0, 64, 63
1, 786213, Control_c, 0, 64, 67
1, 786233, Control_c, 0, 64, 70
1, 786250, Poly_aftertouch_c, 0, 59, 24
1, 786250, Control_c, 0, 64, 72
1, 786288, Control_c, 0, 64, 76
1, 786308, Control_c, 0, 64, 78
1, 786337, Note_off_c, 0, 59, 30
1, 786337, Poly_aftertouch_c, 0, 59, 0
1, 786342, Note_off_c, 0, 63, 32
1, 786345, Control_c, 0, 64, 82
1, 786364, Note_off_c, 0, 56, 30
1, 786364, Control_c, 0, 64, 84
1, 786382, Control_c, 0, 64, 87
1, 786385, Note_off_c, 0, 51, 27
1, 786394, Note_off_c, 0, 44, 38
1, 786394, Poly_aftertouch_c, 0, 44, 0
1, 786420, Control_c, 0, 64, 92
1, 786476, Control_c, 0, 64, 97
1, 786699, Note_on_c, 0, 63, 50
1, 786703, Note_on_c, 0, 56, 45
1, 786707, Note_on_c, 0, 44, 44
1, 786710, Note_on_c, 0, 51, 41
1, 786722, Note_on_c, 0, 59, 44
1, 786794, Note_off_c, 0, 51, 50
1, 786836, Note_off_c, 0, 63, 38
1, 786845, Note_off_c, 0, 56, 40
1, 786850, Note_off_c, 0, 59, 28
1, 786850, Poly_aftertouch_c, 0, 59, 0
1, 786944, Control_c, 0, 64, 93
1, 786949, Note_off_c, 0, 44, 26
1, 786949, Poly_aftertouch_c, 0, 44, 0
1, 786973, Note_on_c, 0, 63, 48
1, 786981, Control_c, 0, 64, 88
1, 786986, Note_on_c, 0, 61, 45
1, 786987, Note_on_c, 0, 51, 38
1, 786991, Note_on_c, 0, 43, 44
1, 786999, Control_c, 0, 64, 83
1, 787005, Note_on_c, 0, 58, 46
1, 787018, Control_c, 0, 64, 77
1, 787037, Control_c, 0, 64, 70
1, 787055, Control_c, 0, 64, 65
1, 787074, Control_c, 0, 64, 61
1, 787092, Control_c, 0, 64, 56
1, 787113, Control_c, 0, 64, 50
1, 787129, Control_c, 0, 64, 39
1, 787148, Control_c, 0, 64, 23
1, 787167, Control_c, 0, 64, 0
1, 787280, Control_c, 0, 64, 10
1, 787298, Control_c, 0, 64, 20
1, 787317, Control_c, 0, 64, 28
1, 787335, Control_c, 0, 64, 36
1, 787354, Control_c, 0, 64, 44
1, 787373, Control_c, 0, 64, 51
1, 787391, Control_c, 0, 64, 57
1, 787411, Control_c, 0, 64, 62
1, 787429, Control_c, 0, 64, 66
1, 787448, Control_c, 0, 64, 68
1, 787466, Control_c, 0, 64, 70
1, 787504, Control_c, 0, 64, 73
1, 787522, Control_c, 0, 64, 76
1, 787541, Control_c, 0, 64, 78
1, 787560, Note_off_c, 0, 61, 33
1, 787560, Poly_aftertouch_c, 0, 61, 0
1, 787560, Control_c, 0, 64, 81
1, 787579, Control_c, 0, 64, 84
1, 787597, Control_c, 0, 64, 87
1, 787635, Control_c, 0, 64, 94
1, 787640, Note_off_c, 0, 63, 33
1, 787653, Control_c, 0, 64, 98
1, 787690, Control_c, 0, 64, 105
1, 787698, Note_off_c, 0, 43, 28
1, 787727, Control_c, 0, 64, 109
1, 787744, Note_off_c, 0, 51, 25
1, 787861, Note_off_c, 0, 58, 31
1, 787861, Poly_aftertouch_c, 0, 58, 0
1, 788027, Control_c, 0, 64, 105
1, 788061, Note_on_c, 0, 63, 42
1, 788064, Control_c, 0, 64, 101
1, 788084, Control_c, 0, 64, 96
1, 788089, Note_on_c, 0, 56, 37
1, 788090, Note_on_c, 0, 59, 33
1, 788091, Note_on_c, 0, 51, 29
1, 788092, Note_on_c, 0, 44, 33
1, 788104, Control_c, 0, 64, 89
1, 788121, Control_c, 0, 64, 80
1, 788140, Control_c, 0, 64, 71
1, 788159, Control_c, 0, 64, 63
1, 788177, Control_c, 0, 64, 53
1, 788196, Control_c, 0, 64, 39
1, 788214, Control_c, 0, 64, 22
1, 788234, Control_c, 0, 64, 14
1, 788271, Control_c, 0, 64, 24
1, 788289, Control_c, 0, 64, 33
1, 788308, Control_c, 0, 64, 43
1, 788327, Control_c, 0, 64, 54
1, 788345, Control_c, 0, 64, 64
1, 788364, Control_c, 0, 64, 71
1, 788379, Poly_aftertouch_c, 0, 59, 24
1, 788381, Control_c, 0, 64, 75
1, 788401, Control_c, 0, 64, 77
1, 788421, Control_c, 0, 64, 79
1, 788438, Control_c, 0, 64, 81
1, 788458, Control_c, 0, 64, 83
1, 788476, Control_c, 0, 64, 86
1, 788492, Note_off_c, 0, 59, 28
1, 788492, Poly_aftertouch_c, 0, 59, 0
1, 788503, Note_off_c, 0, 56, 34
1, 788514, Control_c, 0, 64, 93
1, 788540, Note_off_c, 0, 63, 34
1, 788551, Control_c, 0, 64, 99
1, 788570, Note_off_c, 0, 44, 31
1, 788570, Poly_aftertouch_c, 0, 44, 0
1, 788576, Note_off_c, 0, 51, 24
1, 788589, Control_c, 0, 64, 104
1, 788895, Note_on_c, 0, 63, 41
1, 788903, Note_on_c, 0, 59, 42
1, 788907, Note_on_c, 0, 56, 33
1, 788928, Note_on_c, 0, 44, 32
1, 788932, Note_on_c, 0, 51, 17
1, 789003, Note_off_c, 0, 56, 43
1, 789011, Note_off_c, 0, 63, 38
1, 789013, Note_off_c, 0, 51, 41
1, 789038, Note_off_c, 0, 59, 26
1, 789038, Poly_aftertouch_c, 0, 59, 0
1, 789131, Control_c, 0, 64, 99
1, 789168, Control_c, 0, 64, 93
1, 789186, Control_c, 0, 64, 88
1, 789187, Note_on_c, 0, 63, 43
1, 789202, Note_on_c, 0, 58, 40
1, 789203, Note_on_c, 0, 55, 35
1, 789204, Control_c, 0, 64, 81
1, 789205, Note_on_c, 0, 51, 32
1, 789205, Note_on_c, 0, 39, 40
1, 789224, Control_c, 0, 64, 74
1, 789232, Poly_aftertouch_c, 0, 44, 22
1, 789243, Control_c, 0, 64, 66
1, 789257, Note_off_c, 0, 44, 31
1, 789257, Poly_aftertouch_c, 0, 44, 0
1, 789262, Control_c, 0, 64, 60
1, 789280, Control_c, 0, 64, 52
1, 789298, Control_c, 0, 64, 40
1, 789318, Control_c, 0, 64, 25
1, 789336, Control_c, 0, 64, 11
1, 789393, Control_c, 0, 64, 19
1, 789411, Control_c, 0, 64, 27
1, 789430, Control_c, 0, 64, 33
1, 789448, Control_c, 0, 64, 40
1, 789468, Control_c, 0, 64, 47
1, 789485, Control_c, 0, 64, 53
1, 789505, Control_c, 0, 64, 58
1, 789524, Control_c, 0, 64, 63
1, 789541, Note_off_c, 0, 63, 33
1, 789541, Control_c, 0, 64, 65
1, 789560, Note_off_c, 0, 51, 29
1, 789562, Note_off_c, 0, 55, 32
1, 789562, Poly_aftertouch_c, 0, 55, 0
1, 789565, Note_off_c, 0, 58, 31
1, 789565, Poly_aftertouch_c, 0, 58, 0
1, 789599, Control_c, 0, 64, 64
1, 789614, Note_off_c, 0, 39, 35
1, 789636, Control_c, 0, 64, 63
1, 789654, Control_c, 0, 64, 62
1, 789673, Control_c, 0, 64, 61
1, 789711, Control_c, 0, 64, 60
1, 789748, Control_c, 0, 64, 58
1, 789787, Control_c, 0, 64, 56
1, 789804, Control_c, 0, 64, 54
1, 789841, Control_c, 0, 64, 51
1, 789878, Control_c, 0, 64, 49
1, 790245, Note_on_c, 0, 63, 38
1, 790256, Note_on_c, 0, 58, 38
1, 790261, Note_on_c, 0, 55, 33
1, 790275, Note_on_c, 0, 51, 29
1, 790286, Note_on_c, 0, 39, 35
1, 790580, Note_off_c, 0, 58, 39
1, 790580, Poly_aftertouch_c, 0, 58, 0
1, 790585, Note_off_c, 0, 63, 33
1, 790588, Note_off_c, 0, 51, 35
1, 790593, Note_off_c, 0, 55, 33
1, 790593, Poly_aftertouch_c, 0, 55, 0
1, 790605, Note_off_c, 0, 39, 35
1, 791311, Note_on_c, 0, 63, 28
1, 791327, Note_on_c, 0, 58, 32
1, 791333, Note_on_c, 0, 55, 28
1, 791350, Note_on_c, 0, 39, 23
1, 791352, Note_on_c, 0, 51, 20
1, 791599, Control_c, 0, 64, 52
1, 791618, Control_c, 0, 64, 56
1, 791636, Control_c, 0, 64, 60
1, 791655, Control_c, 0, 64, 65
1, 791673, Control_c, 0, 64, 69
1, 791692, Control_c, 0, 64, 71
1, 791710, Control_c, 0, 64, 73
1, 791737, Note_off_c, 0, 63, 42
1, 791742, Note_off_c, 0, 51, 33
1, 791748, Note_off_c, 0, 39, 34
1, 791769, Note_off_c, 0, 55, 39
1, 791769, Poly_aftertouch_c, 0, 55, 0
1, 791814, Note_off_c, 0, 58, 38
1, 791814, Poly_aftertouch_c, 0, 58, 0
1, 791991, Control_c, 0, 64, 71
1, 792049, Control_c, 0, 64, 69
1, 792085, Control_c, 0, 64, 67
1, 792103, Control_c, 0, 64, 66
1, 792122, Control_c, 0, 64, 65
1, 792141, Control_c, 0, 64, 64
1, 792178, Control_c, 0, 64, 63
1, 792197, Control_c, 0, 64, 62
1, 792234, Control_c, 0, 64, 61
1, 792291, Control_c, 0, 64, 60
1, 792347, Control_c, 0, 64, 58
1, 792485, Note_on_c, 0, 63, 53
1, 792501, Note_on_c, 0, 51, 40
1, 792515, Control_c, 0, 64, 60
1, 792535, Control_c, 0, 64, 62
1, 792536, Control_c, 0, 67, 119
1, 792553, Control_c, 0, 64, 64
1, 792554, Control_c, 0, 67, 115
1, 792570, Control_c, 0, 64, 67
1, 792591, Control_c, 0, 64, 70
1, 792593, Control_c, 0, 67, 109
1, 792609, Control_c, 0, 64, 73
1, 792627, Control_c, 0, 64, 75
1, 792629, Control_c, 0, 67, 102
1, 792646, Control_c, 0, 64, 78
1, 792647, Control_c, 0, 67, 98
1, 792665, Control_c, 0, 64, 81
1, 792666, Control_c, 0, 67, 93
1, 792685, Control_c, 0, 64, 85
1, 792686, Control_c, 0, 67, 89
1, 792701, Control_c, 0, 64, 89
1, 792721, Control_c, 0, 64, 93
1, 792722, Control_c, 0, 67, 82
1, 792739, Control_c, 0, 64, 97
1, 792758, Control_c, 0, 64, 101
1, 792760, Control_c, 0, 67, 78
1, 792777, Control_c, 0, 64, 106
1, 792788, Note_off_c, 0, 63, 25
1, 792815, Control_c, 0, 64, 112
1, 792816, Control_c, 0, 67, 72
1, 792852, Control_c, 0, 64, 116
1, 792853, Control_c, 0, 67, 68
1, 792890, Control_c, 0, 67, 64
1, 792914, Note_off_c, 0, 51, 24
1, 792945, Control_c, 0, 67, 60
1, 792964, Control_c, 0, 64, 120
1, 793367, Note_on_c, 0, 63, 59
1, 793386, Note_on_c, 0, 51, 48
1, 793553, Note_off_c, 0, 63, 37
1, 793557, Note_off_c, 0, 51, 35
1, 793636, Control_c, 0, 64, 116
1, 793675, Note_on_c, 0, 63, 62
1, 793684, Note_on_c, 0, 59, 56
1, 793686, Note_on_c, 0, 51, 47
1, 793692, Note_on_c, 0, 56, 52
1, 793708, Note_on_c, 0, 44, 51
1, 793711, Control_c, 0, 64, 111
1, 793730, Note_on_c, 0, 32, 41
1, 793749, Control_c, 0, 64, 107
1, 793768, Control_c, 0, 64, 103
1, 793787, Control_c, 0, 64, 97
1, 793805, Control_c, 0, 64, 92
1, 793825, Control_c, 0, 64, 86
1, 793842, Control_c, 0, 64, 79
1, 793861, Control_c, 0, 64, 74
1, 793880, Control_c, 0, 64, 69
1, 793899, Control_c, 0, 64, 65
1, 793917, Control_c, 0, 64, 62
1, 793936, Control_c, 0, 64, 61
1, 794012, Control_c, 0, 64, 62
1, 794030, Control_c, 0, 64, 64
1, 794049, Control_c, 0, 64, 66
1, 794067, Control_c, 0, 64, 67
1, 794104, Control_c, 0, 64, 70
1, 794142, Control_c, 0, 64, 73
1, 794179, Control_c, 0, 64, 75
1, 794217, Control_c, 0, 64, 78
1, 794218, Control_c, 0, 67, 64
1, 794254, Control_c, 0, 64, 82
1, 794274, Control_c, 0, 64, 84
1, 794292, Control_c, 0, 64, 87
1, 794329, Control_c, 0, 64, 92
1, 794367, Control_c, 0, 64, 97
1, 794404, Control_c, 0, 64, 102
1, 794440, Control_c, 0, 64, 107
1, 794478, Control_c, 0, 64, 112
1, 794494, Poly_aftertouch_c, 0, 59, 24
1, 794535, Control_c, 0, 64, 117
1, 794543, Note_off_c, 0, 59, 32
1, 794543, Poly_aftertouch_c, 0, 59, 0
1, 794557, Note_off_c, 0, 63, 31
1, 794557, Note_off_c, 0, 56, 29
1, 794574, Note_off_c, 0, 51, 28
1, 794614, Poly_aftertouch_c, 0, 34, 127
1, 794761, Note_on_c, 0, 63, 53
1, 794762, Note_on_c, 0, 59, 46
1, 794775, Note_on_c, 0, 51, 48
1, 794779, Note_on_c, 0, 56, 51
1, 794834, Control_c, 0, 67, 60
1, 794871, Control_c, 0, 64, 121
1, 794908, Control_c, 0, 64, 125
1, 794966, Control_c, 0, 67, 54
1, 795002, Note_off_c, 0, 51, 22
1, 795030, Note_off_c, 0, 63, 27
1, 795038, Control_c, 0, 67, 50
1, 795114, Poly_aftertouch_c, 0, 59, 20
1, 795129, Note_off_c, 0, 59, 22
1, 795129, Poly_aftertouch_c, 0, 59, 0
1, 795131, Control_c, 0, 67, 45
1, 795136, Note_off_c, 0, 56, 31
1, 795207, Control_c, 0, 67, 41
1, 795301, Control_c, 0, 67, 37
1, 795450, Control_c, 0, 67, 33
1, 795529, Note_on_c, 0, 63, 59
1, 795557, Note_on_c, 0, 59, 50
1, 795559, Note_on_c, 0, 56, 56
1, 795565, Note_on_c, 0, 51, 49
1, 795633, Note_off_c, 0, 32, 36
1, 795648, Poly_aftertouch_c, 0, 34, 0
1, 795664, Note_off_c, 0, 63, 54
1, 795672, Note_off_c, 0, 51, 51
1, 795687, Note_off_c, 0, 56, 56
1, 795690, Note_off_c, 0, 59, 50
1, 795690, Poly_aftertouch_c, 0, 59, 0
1, 795807, Note_on_c, 0, 59, 42
1, 795807, Note_on_c, 0, 63, 68
1, 795817, Note_on_c, 0, 32, 65
1, 795823, Note_on_c, 0, 56, 64
1, 795823, Note_on_c, 0, 51, 61
1, 795862, Control_c, 0, 64, 114
1, 795881, Control_c, 0, 64, 98
1, 795900, Control_c, 0, 64, 81
1, 795918, Control_c, 0, 64, 66
1, 795938, Control_c, 0, 64, 56
1, 795956, Control_c, 0, 64, 51
1, 796012, Control_c, 0, 64, 56
1, 796031, Control_c, 0, 64, 62
1, 796049, Control_c, 0, 64, 69
1, 796068, Control_c, 0, 64, 73
1, 796086, Control_c, 0, 64, 77
1, 796106, Control_c, 0, 64, 80
1, 796123, Control_c, 0, 64, 84
1, 796142, Control_c, 0, 64, 87
1, 796180, Control_c, 0, 64, 94
1, 796218, Control_c, 0, 64, 102
1, 796236, Control_c, 0, 64, 106
1, 796273, Control_c, 0, 64, 113
1, 796312, Control_c, 0, 64, 118
1, 796321, Note_off_c, 0, 63, 23
1, 796336, Note_off_c, 0, 51, 24
1, 796336, Note_off_c, 0, 59, 24
1, 796336, Poly_aftertouch_c, 0, 59, 0
1, 796342, Note_off_c, 0, 56, 27
1, 796367, Control_c, 0, 64, 122
1, 796553, Note_on_c, 0, 59, 55
1, 796553, Note_on_c, 0, 63, 64
1, 796565, Note_on_c, 0, 56, 59
1, 796569, Note_on_c, 0, 51, 58
1, 796710, Note_off_c, 0, 56, 60
1, 796712, Note_off_c, 0, 59, 54
1, 796712, Poly_aftertouch_c, 0, 59, 0
1, 796725, Note_off_c, 0, 51, 38
1, 796739, Note_off_c, 0, 63, 38
1, 796832, Note_on_c, 0, 63, 60
1, 796834, Control_c, 0, 64, 117
1, 796836, Note_on_c, 0, 58, 64
1, 796837, Note_on_c, 0, 54, 65
1, 796849, Note_on_c, 0, 51, 54
1, 796872, Control_c, 0, 64, 109
1, 796891, Control_c, 0, 64, 100
1, 796909, Control_c, 0, 64, 90
1, 796929, Control_c, 0, 64, 77
1, 796946, Control_c, 0, 64, 67
1, 796965, Control_c, 0, 64, 60
1, 796984, Control_c, 0, 64, 56
1, 797041, Control_c, 0, 64, 60
1, 797058, Control_c, 0, 64, 64
1, 797077, Control_c, 0, 64, 69
1, 797096, Control_c, 0, 64, 74
1, 797115, Control_c, 0, 64, 78
1, 797133, Control_c, 0, 64, 82
1, 797152, Control_c, 0, 64, 86
1, 797171, Control_c, 0, 64, 90
1, 797190, Control_c, 0, 64, 94
1, 797227, Control_c, 0, 64, 101
1, 797248, Control_c, 0, 64, 106
1, 797264, Control_c, 0, 64, 110
1, 797268, Note_off_c, 0, 58, 45
1, 797268, Poly_aftertouch_c, 0, 58, 0
1, 797283, Control_c, 0, 64, 114
1, 797292, Poly_aftertouch_c, 0, 34, 0
1, 797295, Note_off_c, 0, 32, 50
1, 797321, Control_c, 0, 64, 121
1, 797358, Control_c, 0, 64, 125
1, 797422, Note_off_c, 0, 54, 37
1, 797501, Note_off_c, 0, 63, 41
1, 797505, Note_off_c, 0, 51, 37
1, 797610, Note_on_c, 0, 56, 63
1, 797614, Note_on_c, 0, 53, 56
1, 797630, Note_off_c, 0, 44, 29
1, 797630, Poly_aftertouch_c, 0, 44, 0
1, 797633, Note_on_c, 0, 51, 52
1, 797712, Poly_aftertouch_c, 0, 63, 127
1, 797726, Note_off_c, 0, 53, 57
1, 797726, Poly_aftertouch_c, 0, 53, 0
1, 797750, Poly_aftertouch_c, 0, 63, 0
1, 797780, Note_off_c, 0, 51, 48
1, 797848, Note_off_c, 0, 56, 46
1, 797864, Control_c, 0, 64, 121
1, 797880, Control_c, 0, 67, 37
1, 797883, Note_on_c, 0, 63, 53
1, 797883, Note_on_c, 0, 54, 58
1, 797884, Note_on_c, 0, 58, 58
1, 797895, Note_on_c, 0, 39, 54
1, 797900, Control_c, 0, 64, 113
1, 797906, Note_on_c, 0, 51, 28
1, 797920, Control_c, 0, 64, 106
1, 797937, Control_c, 0, 64, 97
1, 797956, Control_c, 0, 64, 87
1, 797957, Control_c, 0, 67, 42
1, 797976, Control_c, 0, 64, 76
1, 797979, Control_c, 0, 67, 46
1, 797994, Control_c, 0, 64, 67
1, 797994, Control_c, 0, 67, 50
1, 798013, Control_c, 0, 64, 58
1, 798032, Control_c, 0, 64, 48
1, 798033, Control_c, 0, 67, 57
1, 798050, Control_c, 0, 64, 31
1, 798068, Control_c, 0, 64, 0
1, 798069, Control_c, 0, 67, 64
1, 798106, Control_c, 0, 67, 71
1, 798143, Control_c, 0, 67, 77
1, 798181, Control_c, 0, 64, 18
1, 798182, Control_c, 0, 67, 83
1, 798199, Control_c, 0, 64, 28
1, 798218, Control_c, 0, 64, 40
1, 798219, Control_c, 0, 67, 89
1, 798237, Control_c, 0, 64, 50
1, 798256, Control_c, 0, 64, 58
1, 798275, Control_c, 0, 64, 65
1, 798276, Control_c, 0, 67, 94
1, 798292, Control_c, 0, 64, 69
1, 798312, Control_c, 0, 64, 72
1, 798313, Control_c, 0, 67, 100
1, 798331, Control_c, 0, 67, 104
1, 798349, Control_c, 0, 64, 75
1, 798350, Control_c, 0, 67, 108
1, 798368, Control_c, 0, 64, 77
1, 798387, Control_c, 0, 64, 80
1, 798389, Control_c, 0, 67, 113
1, 798405, Control_c, 0, 64, 83
1, 798424, Control_c, 0, 64, 86
1, 798442, Control_c, 0, 64, 90
1, 798462, Control_c, 0, 64, 94
1, 798462, Control_c, 0, 67, 117
1, 798471, Note_off_c, 0, 39, 38
1, 798481, Control_c, 0, 64, 98
1, 798498, Control_c, 0, 64, 102
1, 798535, Control_c, 0, 64, 106
1, 798634, Note_on_c, 0, 39, 64
1, 798685, Control_c, 0, 67, 113
1, 798742, Control_c, 0, 67, 109
1, 798780, Control_c, 0, 67, 102
1, 798799, Control_c, 0, 64, 102
1, 798817, Control_c, 0, 67, 98
1, 798856, Control_c, 0, 67, 94
1, 798861, Note_off_c, 0, 39, 58
1, 798878, Note_on_c, 0, 42, 60
1, 798891, Control_c, 0, 64, 97
1, 798893, Control_c, 0, 67, 87
1, 798909, Control_c, 0, 67, 81
1, 798929, Control_c, 0, 64, 89
1, 798930, Control_c, 0, 67, 76
1, 798947, Control_c, 0, 64, 83
1, 798966, Control_c, 0, 64, 77
1, 798968, Control_c, 0, 67, 70
1, 798985, Control_c, 0, 64, 69
1, 799003, Control_c, 0, 64, 62
1, 799005, Control_c, 0, 67, 65
1, 799022, Control_c, 0, 64, 54
1, 799041, Control_c, 0, 64, 44
1, 799042, Control_c, 0, 67, 59
1, 799060, Control_c, 0, 64, 31
1, 799078, Control_c, 0, 64, 12
1, 799079, Control_c, 0, 67, 53
1, 799097, Control_c, 0, 64, 0
1, 799115, Control_c, 0, 67, 49
1, 799172, Control_c, 0, 64, 12
1, 799173, Control_c, 0, 67, 45
1, 799190, Control_c, 0, 64, 24
1, 799209, Control_c, 0, 64, 35
1, 799228, Control_c, 0, 64, 47
1, 799229, Control_c, 0, 67, 41
1, 799246, Control_c, 0, 64, 56
1, 799267, Control_c, 0, 64, 64
1, 799283, Control_c, 0, 64, 69
1, 799284, Control_c, 0, 67, 36
1, 799302, Control_c, 0, 64, 72
1, 799340, Control_c, 0, 64, 75
1, 799341, Control_c, 0, 67, 31
1, 799377, Control_c, 0, 64, 77
1, 799396, Control_c, 0, 67, 25
1, 799414, Control_c, 0, 64, 80
1, 799434, Control_c, 0, 64, 82
1, 799435, Control_c, 0, 67, 20
1, 799471, Control_c, 0, 64, 85
1, 799474, Control_c, 0, 67, 13
1, 799509, Control_c, 0, 64, 88
1, 799572, Note_off_c, 0, 51, 34
1, 799647, Note_on_c, 0, 46, 52
1, 799687, Note_off_c, 0, 42, 57
1, 799687, Poly_aftertouch_c, 0, 42, 0
1, 799732, Control_c, 0, 67, 18
1, 799789, Control_c, 0, 67, 22
1, 799865, Control_c, 0, 64, 86
1, 799866, Control_c, 0, 67, 27
1, 799900, Control_c, 0, 64, 84
1, 799912, Note_on_c, 0, 51, 52
1, 799920, Control_c, 0, 67, 31
1, 799933, Note_off_c, 0, 46, 52
1, 799937, Control_c, 0, 64, 79
1, 799958, Control_c, 0, 64, 74
1, 799976, Control_c, 0, 64, 68
1, 799995, Control_c, 0, 64, 63
1, 799996, Control_c, 0, 67, 36
1, 800013, Control_c, 0, 64, 59
1, 800032, Control_c, 0, 64, 53
1, 800050, Control_c, 0, 64, 43
1, 800070, Control_c, 0, 64, 20
1, 800088, Control_c, 0, 64, 0
1, 800089, Control_c, 0, 67, 41
1, 800144, Control_c, 0, 67, 47
1, 800200, Control_c, 0, 67, 52
1, 800237, Control_c, 0, 67, 56
1, 800256, Control_c, 0, 64, 18
1, 800275, Control_c, 0, 64, 31
1, 800276, Control_c, 0, 67, 62
1, 800294, Control_c, 0, 64, 42
1, 800312, Control_c, 0, 64, 51
1, 800313, Control_c, 0, 67, 67
1, 800332, Control_c, 0, 64, 58
1, 800350, Control_c, 0, 64, 65
1, 800368, Control_c, 0, 64, 69
1, 800369, Control_c, 0, 67, 71
1, 800376, Note_off_c, 0, 58, 54
1, 800376, Poly_aftertouch_c, 0, 58, 0
1, 800387, Control_c, 0, 64, 72
1, 800425, Control_c, 0, 64, 76
1, 800427, Control_c, 0, 67, 75
1, 800443, Control_c, 0, 64, 78
1, 800462, Control_c, 0, 64, 80
1, 800464, Control_c, 0, 67, 80
1, 800481, Control_c, 0, 64, 83
1, 800500, Control_c, 0, 64, 86
1, 800502, Control_c, 0, 67, 85
1, 800538, Control_c, 0, 64, 93
1, 800539, Control_c, 0, 67, 89
1, 800563, Note_off_c, 0, 54, 33
1, 800568, Note_off_c, 0, 63, 36
1, 800573, Control_c, 0, 64, 100
1, 800594, Control_c, 0, 67, 94
1, 800612, Control_c, 0, 64, 105
1, 800649, Control_c, 0, 64, 109
1, 800652, Control_c, 0, 67, 98
1, 801041, Control_c, 0, 64, 104
1, 801069, Note_on_c, 0, 63, 40
1, 801077, Control_c, 0, 64, 96
1, 801082, Poly_aftertouch_c, 0, 51, 24
1, 801092, Note_on_c, 0, 59, 36
1, 801093, Note_on_c, 0, 54, 32
1, 801095, Control_c, 0, 64, 88
1, 801109, Note_on_c, 0, 47, 29
1, 801114, Control_c, 0, 64, 78
1, 801135, Control_c, 0, 64, 66
1, 801153, Control_c, 0, 64, 56
1, 801165, Note_off_c, 0, 51, 34
1, 801165, Poly_aftertouch_c, 0, 51, 0
1, 801172, Control_c, 0, 64, 43
1, 801191, Control_c, 0, 64, 25
1, 801228, Control_c, 0, 64, 0
1, 801267, Control_c, 0, 64, 16
1, 801285, Control_c, 0, 64, 26
1, 801303, Control_c, 0, 64, 36
1, 801322, Control_c, 0, 64, 47
1, 801341, Control_c, 0, 64, 56
1, 801359, Control_c, 0, 64, 66
1, 801378, Control_c, 0, 64, 72
1, 801396, Control_c, 0, 64, 76
1, 801406, Poly_aftertouch_c, 0, 59, 24
1, 801415, Control_c, 0, 64, 78
1, 801433, Control_c, 0, 64, 81
1, 801453, Control_c, 0, 64, 83
1, 801472, Control_c, 0, 64, 87
1, 801475, Note_off_c, 0, 59, 33
1, 801475, Poly_aftertouch_c, 0, 59, 0
1, 801506, Note_off_c, 0, 54, 32
1, 801507, Control_c, 0, 64, 93
1, 801516, Note_off_c, 0, 63, 37
1, 801547, Control_c, 0, 64, 101
1, 801564, Control_c, 0, 64, 105
1, 801566, Note_off_c, 0, 47, 36
1, 801566, Poly_aftertouch_c, 0, 47, 0
1, 801602, Control_c, 0, 64, 111
1, 801640, Control_c, 0, 64, 115
1, 801878, Note_on_c, 0, 63, 42
1, 801892, Note_on_c, 0, 47, 40
1, 801901, Note_on_c, 0, 54, 36
1, 801901, Note_on_c, 0, 59, 40
1, 802030, Note_off_c, 0, 59, 27
1, 802030, Poly_aftertouch_c, 0, 59, 0
1, 802034, Note_off_c, 0, 63, 34
1, 802038, Note_off_c, 0, 54, 38
1, 802138, Note_off_c, 0, 47, 25
1, 802138, Poly_aftertouch_c, 0, 47, 0
1, 802163, Control_c, 0, 64, 110
1, 802165, Note_on_c, 0, 59, 36
1, 802168, Note_on_c, 0, 63, 42
1, 802173, Note_on_c, 0, 44, 43
1, 802187, Note_on_c, 0, 56, 44
1, 802201, Control_c, 0, 64, 101
1, 802220, Control_c, 0, 64, 94
1, 802238, Control_c, 0, 64, 86
1, 802258, Control_c, 0, 64, 77
1, 802276, Control_c, 0, 64, 69
1, 802294, Control_c, 0, 64, 62
1, 802313, Control_c, 0, 64, 56
1, 802331, Control_c, 0, 64, 48
1, 802350, Control_c, 0, 64, 37
1, 802369, Control_c, 0, 64, 27
1, 802387, Control_c, 0, 64, 21
1, 802443, Control_c, 0, 64, 25
1, 802463, Control_c, 0, 64, 30
1, 802481, Control_c, 0, 64, 36
1, 802499, Control_c, 0, 64, 44
1, 802520, Control_c, 0, 64, 53
1, 802537, Control_c, 0, 64, 60
1, 802556, Control_c, 0, 64, 66
1, 802574, Control_c, 0, 64, 70
1, 802594, Control_c, 0, 64, 72
1, 802630, Control_c, 0, 64, 74
1, 802649, Control_c, 0, 64, 76
1, 802669, Control_c, 0, 64, 78
1, 802687, Control_c, 0, 64, 81
1, 802694, Poly_aftertouch_c, 0, 59, 24
1, 802706, Control_c, 0, 64, 84
1, 802725, Control_c, 0, 64, 88
1, 802743, Control_c, 0, 64, 92
1, 802751, Note_off_c, 0, 56, 27
1, 802755, Note_off_c, 0, 59, 35
1, 802755, Poly_aftertouch_c, 0, 59, 0
1, 802761, Control_c, 0, 64, 97
1, 802780, Control_c, 0, 64, 103
1, 802799, Control_c, 0, 64, 107
1, 802818, Control_c, 0, 64, 111
1, 802843, Note_off_c, 0, 63, 33
1, 802855, Control_c, 0, 64, 116
1, 803212, Control_c, 0, 64, 110
1, 803215, Note_on_c, 0, 61, 44
1, 803227, Note_on_c, 0, 56, 38
1, 803228, Control_c, 0, 64, 105
1, 803231, Note_on_c, 0, 59, 37
1, 803246, Note_on_c, 0, 40, 37
1, 803246, Control_c, 0, 64, 95
1, 803267, Control_c, 0, 64, 84
1, 803285, Control_c, 0, 64, 71
1, 803291, Note_off_c, 0, 44, 29
1, 803291, Poly_aftertouch_c, 0, 44, 0
1, 803304, Control_c, 0, 64, 61
1, 803323, Control_c, 0, 64, 55
1, 803341, Control_c, 0, 64, 50
1, 803397, Control_c, 0, 64, 53
1, 803417, Control_c, 0, 64, 58
1, 803418, Control_c, 0, 67, 93
1, 803435, Control_c, 0, 64, 65
1, 803453, Control_c, 0, 64, 72
1, 803455, Control_c, 0, 67, 86
1, 803474, Control_c, 0, 64, 76
1, 803475, Control_c, 0, 67, 79
1, 803483, Poly_aftertouch_c, 0, 59, 24
1, 803491, Control_c, 0, 64, 80
1, 803492, Control_c, 0, 67, 73
1, 803510, Control_c, 0, 64, 84
1, 803513, Control_c, 0, 67, 67
1, 803528, Control_c, 0, 64, 89
1, 803548, Control_c, 0, 64, 93
1, 803549, Control_c, 0, 67, 61
1, 803555, Poly_aftertouch_c, 0, 40, 24
1, 803566, Control_c, 0, 64, 98
1, 803584, Note_off_c, 0, 59, 29
1, 803584, Poly_aftertouch_c, 0, 59, 0
1, 803584, Control_c, 0, 64, 102
1, 803603, Control_c, 0, 64, 107
1, 803622, Control_c, 0, 64, 111
1, 803626, Note_off_c, 0, 61, 36
1, 803626, Poly_aftertouch_c, 0, 61, 0
1, 803640, Control_c, 0, 64, 115
1, 803678, Control_c, 0, 64, 119
1, 803685, Note_off_c, 0, 56, 23
1, 803687, Note_off_c, 0, 40, 22
1, 803687, Poly_aftertouch_c, 0, 40, 0
1, 803715, Control_c, 0, 67, 65
1, 803790, Control_c, 0, 67, 70
1, 803847, Control_c, 0, 67, 74
1, 804013, Note_on_c, 0, 61, 46
1, 804016, Note_on_c, 0, 56, 41
1, 804039, Note_on_c, 0, 40, 37
1, 804043, Note_on_c, 0, 59, 40
1, 804104, Note_off_c, 0, 56, 54
1, 804118, Note_off_c, 0, 59, 36
1, 804118, Poly_aftertouch_c, 0, 59, 0
1, 804127, Note_off_c, 0, 61, 49
1, 804127, Poly_aftertouch_c, 0, 61, 0
1, 804283, Poly_aftertouch_c, 0, 40, 24
1, 804294, Control_c, 0, 64, 113
1, 804299, Note_on_c, 0, 54, 45
1, 804300, Note_on_c, 0, 61, 46
1, 804310, Note_on_c, 0, 42, 42
1, 804317, Note_on_c, 0, 59, 41
1, 804332, Control_c, 0, 64, 106
1, 804342, Note_off_c, 0, 40, 34
1, 804342, Poly_aftertouch_c, 0, 40, 0
1, 804350, Control_c, 0, 64, 98
1, 804370, Control_c, 0, 64, 88
1, 804389, Control_c, 0, 64, 77
1, 804407, Control_c, 0, 64, 68
1, 804426, Control_c, 0, 64, 60
1, 804444, Control_c, 0, 64, 53
1, 804463, Control_c, 0, 64, 43
1, 804482, Control_c, 0, 64, 33
1, 804501, Control_c, 0, 64, 27
1, 804502, Control_c, 0, 67, 78
1, 804557, Control_c, 0, 64, 34
1, 804565, Poly_aftertouch_c, 0, 59, 22
1, 804574, Control_c, 0, 64, 41
1, 804586, Note_off_c, 0, 59, 36
1, 804586, Poly_aftertouch_c, 0, 59, 0
1, 804592, Control_c, 0, 64, 50
1, 804613, Control_c, 0, 64, 59
1, 804632, Control_c, 0, 64, 65
1, 804651, Control_c, 0, 64, 69
1, 804669, Control_c, 0, 64, 72
1, 804707, Control_c, 0, 64, 75
1, 804725, Control_c, 0, 64, 77
1, 804744, Control_c, 0, 64, 80
1, 804764, Control_c, 0, 64, 84
1, 804766, Control_c, 0, 67, 73
1, 804780, Control_c, 0, 64, 89
1, 804783, Note_off_c, 0, 61, 50
1, 804783, Poly_aftertouch_c, 0, 61, 0
1, 804800, Control_c, 0, 64, 95
1, 804818, Control_c, 0, 64, 102
1, 804819, Control_c, 0, 67, 67
1, 804838, Control_c, 0, 64, 109
1, 804857, Control_c, 0, 64, 115
1, 804858, Control_c, 0, 67, 60
1, 804874, Control_c, 0, 64, 120
1, 804894, Control_c, 0, 67, 56
1, 804912, Control_c, 0, 64, 126
1, 804931, Note_off_c, 0, 54, 53
1, 805099, Control_c, 0, 67, 60
1, 805156, Control_c, 0, 67, 64
1, 805191, Control_c, 0, 67, 70
1, 805230, Control_c, 0, 67, 75
1, 805234, Note_off_c, 0, 42, 31
1, 805234, Poly_aftertouch_c, 0, 42, 0
1, 805287, Control_c, 0, 67, 79
1, 805361, Control_c, 0, 64, 120
1, 805380, Note_on_c, 0, 42, 25
1, 805380, Control_c, 0, 64, 113
1, 805386, Note_on_c, 0, 61, 32
1, 805397, Control_c, 0, 64, 102
1, 805403, Note_on_c, 0, 58, 35
1, 805406, Note_on_c, 0, 54, 29
1, 805417, Note_on_c, 0, 30, 37
1, 805417, Control_c, 0, 64, 89
1, 805420, Note_on_c, 0, 52, 30
1, 805436, Control_c, 0, 64, 76
1, 805454, Control_c, 0, 64, 65
1, 805474, Control_c, 0, 64, 60
1, 805492, Control_c, 0, 64, 58
1, 805529, Control_c, 0, 64, 60
1, 805548, Control_c, 0, 64, 64
1, 805567, Control_c, 0, 64, 70
1, 805585, Control_c, 0, 64, 76
1, 805604, Control_c, 0, 64, 82
1, 805623, Control_c, 0, 64, 88
1, 805625, Control_c, 0, 67, 75
1, 805641, Control_c, 0, 64, 94
1, 805660, Control_c, 0, 64, 100
1, 805678, Control_c, 0, 64, 105
1, 805698, Control_c, 0, 64, 110
1, 805699, Control_c, 0, 67, 68
1, 805708, Note_off_c, 0, 54, 21
1, 805715, Control_c, 0, 64, 115
1, 805731, Note_off_c, 0, 61, 37
1, 805731, Poly_aftertouch_c, 0, 61, 0
1, 805734, Control_c, 0, 64, 119
1, 805735, Control_c, 0, 67, 61
1, 805741, Note_off_c, 0, 42, 25
1, 805741, Poly_aftertouch_c, 0, 42, 0
1, 805744, Note_off_c, 0, 52, 31
1, 805770, Note_off_c, 0, 30, 29
1, 805772, Control_c, 0, 64, 125
1, 805785, Note_off_c, 0, 58, 30
1, 805785, Poly_aftertouch_c, 0, 58, 0
1, 805884, Control_c, 0, 67, 65
1, 805921, Control_c, 0, 67, 69
1, 805959, Control_c, 0, 67, 76
1, 805978, Control_c, 0, 67, 80
1, 806015, Control_c, 0, 67, 86
1, 806053, Control_c, 0, 67, 93
1, 806090, Control_c, 0, 67, 99
1, 806146, Control_c, 0, 67, 104
1, 806164, Note_on_c, 0, 30, 44
1, 806196, Note_on_c, 0, 58, 40
1, 806201, Control_c, 0, 67, 108
1, 806206, Note_on_c, 0, 61, 11
1, 806224, Note_on_c, 0, 52, 36
1, 806225, Note_off_c, 0, 30, 58
1, 806226, Note_on_c, 0, 42, 11
1, 806249, Note_off_c, 0, 58, 58
1, 806249, Poly_aftertouch_c, 0, 58, 0
1, 806278, Note_off_c, 0, 61, 51
1, 806278, Poly_aftertouch_c, 0, 61, 0
1, 806297, Note_off_c, 0, 42, 35
1, 806297, Poly_aftertouch_c, 0, 42, 0
1, 806310, Poly_aftertouch_c, 0, 54, 0
1, 806390, Control_c, 0, 64, 121
1, 806445, Control_c, 0, 64, 116
1, 806455, Note_off_c, 0, 52, 29
1, 806463, Control_c, 0, 64, 111
1, 806477, Note_on_c, 0, 54, 35
1, 806483, Note_on_c, 0, 59, 50
1, 806483, Control_c, 0, 64, 104
1, 806488, Note_on_c, 0, 51, 41
1, 806500, Control_c, 0, 64, 97
1, 806504, Note_on_c, 0, 47, 23
1, 806520, Control_c, 0, 64, 88
1, 806527, Note_on_c, 0, 35, 29
1, 806539, Control_c, 0, 64, 78
1, 806558, Control_c, 0, 64, 70
1, 806576, Control_c, 0, 64, 64
1, 806595, Control_c, 0, 64, 60
1, 806613, Control_c, 0, 64, 56
1, 806633, Control_c, 0, 64, 52
1, 806651, Control_c, 0, 64, 49
1, 806670, Control_c, 0, 64, 47
1, 806726, Control_c, 0, 67, 102
1, 806745, Control_c, 0, 64, 49
1, 806747, Control_c, 0, 67, 98
1, 806749, Note_off_c, 0, 59, 50
1, 806749, Poly_aftertouch_c, 0, 59, 0
1, 806763, Control_c, 0, 67, 91
1, 806784, Control_c, 0, 67, 83
1, 806788, Note_off_c, 0, 51, 48
1, 806788, Poly_aftertouch_c, 0, 51, 0
1, 806800, Control_c, 0, 64, 51
1, 806801, Control_c, 0, 67, 75
1, 806815, Note_off_c, 0, 54, 36
1, 806819, Control_c, 0, 67, 67
1, 806820, Note_off_c, 0, 47, 34
1, 806820, Poly_aftertouch_c, 0, 47, 0
1, 806838, Control_c, 0, 67, 60
1, 806857, Control_c, 0, 67, 55
1, 806860, Note_off_c, 0, 35, 37
1, 806895, Control_c, 0, 67, 51
1, 806930, Control_c, 0, 64, 49
1, 806969, Control_c, 0, 64, 46
1, 806988, Control_c, 0, 64, 44
1, 806988, Control_c, 0, 67, 56
1, 807005, Control_c, 0, 64, 42
1, 807025, Control_c, 0, 67, 60
1, 807045, Control_c, 0, 64, 36
1, 807046, Control_c, 0, 67, 65
1, 807063, Control_c, 0, 67, 72
1, 807081, Control_c, 0, 67, 78
1, 807100, Control_c, 0, 67, 84
1, 807119, Control_c, 0, 67, 89
1, 807156, Control_c, 0, 67, 95
1, 807194, Control_c, 0, 67, 100
1, 807250, Control_c, 0, 67, 105
1, 807547, Note_on_c, 0, 59, 33
1, 807564, Note_on_c, 0, 54, 23
1, 807565, Note_on_c, 0, 35, 29
1, 807573, Note_on_c, 0, 47, 23
1, 807574, Note_on_c, 0, 51, 26
1, 807735, Control_c, 0, 64, 40
1, 807792, Control_c, 0, 67, 101
1, 807829, Control_c, 0, 67, 95
1, 807848, Control_c, 0, 67, 91
1, 807859, Note_off_c, 0, 59, 37
1, 807859, Poly_aftertouch_c, 0, 59, 0
1, 807866, Control_c, 0, 67, 86
1, 807877, Note_off_c, 0, 47, 26
1, 807877, Poly_aftertouch_c, 0, 47, 0
1, 807881, Note_off_c, 0, 54, 40
1, 807884, Control_c, 0, 67, 81
1, 807889, Note_off_c, 0, 51, 41
1, 807889, Poly_aftertouch_c, 0, 51, 0
1, 807903, Note_off_c, 0, 35, 37
1, 807903, Control_c, 0, 67, 76
1, 807941, Control_c, 0, 67, 72
1, 808090, Control_c, 0, 67, 77
1, 808146, Control_c, 0, 67, 84
1, 808166, Control_c, 0, 67, 89
1, 808184, Control_c, 0, 67, 94
1, 808203, Control_c, 0, 67, 99
1, 808223, Control_c, 0, 67, 103
1, 808615, Control_c, 0, 64, 36
1, 808625, Note_on_c, 0, 59, 30
1, 808641, Note_on_c, 0, 54, 21
1, 808644, Note_on_c, 0, 51, 24
1, 808651, Note_on_c, 0, 47, 18
1, 808653, Note_on_c, 0, 35, 21
1, 808764, Control_c, 0, 67, 99
1, 808802, Control_c, 0, 67, 94
1, 808820, Control_c, 0, 67, 90
1, 808839, Control_c, 0, 64, 41
1, 808840, Control_c, 0, 67, 85
1, 808860, Control_c, 0, 64, 44
1, 808861, Control_c, 0, 67, 79
1, 808876, Control_c, 0, 64, 50
1, 808877, Control_c, 0, 67, 72
1, 808895, Control_c, 0, 64, 58
1, 808896, Control_c, 0, 67, 66
1, 808913, Control_c, 0, 64, 64
1, 808913, Control_c, 0, 67, 61
1, 808933, Control_c, 0, 64, 69
1, 808934, Control_c, 0, 67, 56
1, 808951, Control_c, 0, 64, 72
1, 808953, Control_c, 0, 67, 52
1, 808970, Control_c, 0, 64, 74
1, 808972, Note_off_c, 0, 51, 38
1, 808972, Poly_aftertouch_c, 0, 51, 0
1, 808972, Control_c, 0, 67, 48
1, 808989, Control_c, 0, 64, 77
1, 808990, Control_c, 0, 67, 43
1, 808995, Note_off_c, 0, 59, 33
1, 808995, Poly_aftertouch_c, 0, 59, 0
1, 809026, Control_c, 0, 64, 80
1, 809027, Control_c, 0, 67, 37
1, 809056, Note_off_c, 0, 35, 31
1, 809100, Note_off_c, 0, 47, 25
1, 809100, Poly_aftertouch_c, 0, 47, 0
1, 809107, Note_off_c, 0, 54, 35
1, 809213, Control_c, 0, 64, 78
1, 809251, Control_c, 0, 64, 76
1, 809269, Control_c, 0, 64, 74
1, 809306, Control_c, 0, 64, 70
1, 809326, Control_c, 0, 64, 68
1, 809343, Control_c, 0, 64, 67
1, 809362, Control_c, 0, 64, 65
1, 809381, Control_c, 0, 64, 64
1, 809400, Control_c, 0, 64, 63
1, 809418, Control_c, 0, 64, 61
1, 809437, Control_c, 0, 64, 60
1, 809493, Control_c, 0, 64, 58
1, 809793, Control_c, 0, 64, 60
1, 809811, Control_c, 0, 64, 61
1, 809830, Control_c, 0, 64, 62
1, 809848, Control_c, 0, 64, 63
1, 809867, Control_c, 0, 64, 64
1, 809905, Control_c, 0, 64, 65
1, 809923, Control_c, 0, 64, 66
1, 809960, Control_c, 0, 64, 67
1, 810036, Control_c, 0, 64, 69
1, 810041, Note_on_c, 0, 66, 55
1, 810069, Note_on_c, 0, 54, 37
1, 810072, Control_c, 0, 64, 72
1, 810110, Control_c, 0, 64, 75
1, 810129, Control_c, 0, 64, 77
1, 810168, Control_c, 0, 64, 81
1, 810185, Control_c, 0, 64, 84
1, 810204, Control_c, 0, 64, 88
1, 810241, Control_c, 0, 64, 95
1, 810260, Control_c, 0, 64, 100
1, 810279, Control_c, 0, 64, 106
1, 810297, Control_c, 0, 64, 112
1, 810316, Control_c, 0, 64, 117
1, 810334, Control_c, 0, 64, 122
1, 810353, Control_c, 0, 64, 126
1, 810384, Note_off_c, 0, 66, 36
1, 810445, Note_off_c, 0, 54, 25
1, 810923, Note_on_c, 0, 66, 73
1, 810949, Note_on_c, 0, 54, 55
1, 811077, Note_off_c, 0, 66, 52
1, 811128, Note_off_c, 0, 54, 36
1, 811201, Note_on_c, 0, 66, 78
1, 811207, Note_on_c, 0, 62, 63
1, 811209, Note_on_c, 0, 54, 58
1, 811217, Note_on_c, 0, 59, 60
1, 811242, Note_on_c, 0, 47, 51
1, 811249, Note_on_c, 0, 35, 51
1, 811251, Control_c, 0, 64, 120
1, 811270, Control_c, 0, 64, 114
1, 811289, Control_c, 0, 64, 107
1, 811307, Control_c, 0, 64, 99
1, 811325, Control_c, 0, 64, 91
1, 811346, Control_c, 0, 64, 83
1, 811363, Control_c, 0, 64, 75
1, 811381, Control_c, 0, 64, 69
1, 811402, Control_c, 0, 64, 64
1, 811419, Control_c, 0, 64, 62
1, 811493, Control_c, 0, 64, 63
1, 811513, Control_c, 0, 64, 65
1, 811531, Control_c, 0, 64, 67
1, 811551, Control_c, 0, 64, 69
1, 811568, Control_c, 0, 64, 71
1, 811606, Control_c, 0, 64, 74
1, 811643, Control_c, 0, 64, 78
1, 811680, Control_c, 0, 64, 82
1, 811719, Control_c, 0, 64, 86
1, 811755, Control_c, 0, 64, 91
1, 811774, Control_c, 0, 67, 32
1, 811793, Control_c, 0, 64, 98
1, 811812, Control_c, 0, 67, 27
1, 811830, Control_c, 0, 64, 104
1, 811849, Control_c, 0, 67, 22
1, 811868, Control_c, 0, 64, 111
1, 811869, Control_c, 0, 67, 18
1, 811887, Control_c, 0, 64, 115
1, 811888, Control_c, 0, 67, 13
1, 811905, Control_c, 0, 64, 120
1, 811906, Control_c, 0, 67, 8
1, 811924, Control_c, 0, 64, 126
1, 812018, Control_c, 0, 67, 0
1, 812117, Note_off_c, 0, 66, 28
1, 812143, Note_off_c, 0, 62, 34
1, 812157, Poly_aftertouch_c, 0, 59, 24
1, 812186, Note_off_c, 0, 59, 35
1, 812186, Poly_aftertouch_c, 0, 59, 0
1, 812200, Note_off_c, 0, 54, 34
1, 812308, Note_on_c, 0, 66, 59
1, 812321, Note_on_c, 0, 62, 55
1, 812328, Note_on_c, 0, 59, 49
1, 812336, Note_on_c, 0, 54, 49
1, 812458, Note_off_c, 0, 54, 33
1, 812511, Note_off_c, 0, 66, 37
1, 812629, Note_off_c, 0, 62, 32
1, 812642, Poly_aftertouch_c, 0, 59, 22
1, 812668, Note_off_c, 0, 59, 31
1, 812668, Poly_aftertouch_c, 0, 59, 0
1, 812806, Poly_aftertouch_c, 0, 38, 0
1, 813072, Note_on_c, 0, 66, 67
1, 813083, Note_on_c, 0, 62, 57
1, 813085, Note_on_c, 0, 59, 57
1, 813091, Note_on_c, 0, 54, 59
1, 813124, Note_off_c, 0, 35, 34
1, 813192, Note_off_c, 0, 54, 53
1, 813208, Note_off_c, 0, 66, 55
1, 813228, Note_off_c, 0, 62, 58
1, 813233, Note_off_c, 0, 59, 54
1, 813233, Poly_aftertouch_c, 0, 59, 0
1, 813318, Note_on_c, 0, 59, 46
1, 813325, Note_on_c, 0, 66, 76
1, 813335, Note_on_c, 0, 62, 60
1, 813335, Note_on_c, 0, 54, 68
1, 813336, Note_on_c, 0, 35, 74
1, 813382, Control_c, 0, 64, 114
1, 813401, Control_c, 0, 64, 92
1, 813420, Control_c, 0, 64, 72
1, 813438, Control_c, 0, 64, 61
1, 813458, Control_c, 0, 64, 58
1, 813495, Control_c, 0, 64, 62
1, 813513, Control_c, 0, 64, 67
1, 813533, Control_c, 0, 64, 73
1, 813551, Control_c, 0, 64, 79
1, 813570, Control_c, 0, 64, 85
1, 813587, Control_c, 0, 64, 92
1, 813590, Note_off_c, 0, 54, 29
1, 813607, Control_c, 0, 64, 97
1, 813625, Control_c, 0, 64, 102
1, 813644, Control_c, 0, 64, 106
1, 813662, Control_c, 0, 64, 111
1, 813682, Control_c, 0, 64, 116
1, 813701, Control_c, 0, 64, 122
1, 813719, Control_c, 0, 64, 127
1, 813722, Note_off_c, 0, 66, 28
1, 813809, Note_off_c, 0, 62, 24
1, 813825, Note_off_c, 0, 59, 22
1, 813825, Poly_aftertouch_c, 0, 59, 0
1, 814089, Note_on_c, 0, 59, 66
1, 814091, Note_on_c, 0, 66, 72
1, 814093, Note_on_c, 0, 62, 68
1, 814097, Note_on_c, 0, 54, 68
1, 814219, Note_off_c, 0, 59, 57
1, 814219, Poly_aftertouch_c, 0, 59, 0
1, 814226, Note_off_c, 0, 54, 51
1, 814238, Note_off_c, 0, 66, 53
1, 814250, Note_off_c, 0, 62, 59
1, 814337, Note_on_c, 0, 61, 74
1, 814337, Note_on_c, 0, 58, 76
1, 814349, Note_on_c, 0, 66, 68
1, 814352, Note_on_c, 0, 54, 66
1, 814392, Control_c, 0, 64, 107
1, 814411, Control_c, 0, 64, 83
1, 814430, Control_c, 0, 64, 62
1, 814448, Control_c, 0, 64, 51
1, 814467, Control_c, 0, 64, 44
1, 814505, Control_c, 0, 64, 50
1, 814522, Control_c, 0, 64, 58
1, 814542, Control_c, 0, 64, 69
1, 814560, Control_c, 0, 64, 77
1, 814579, Control_c, 0, 64, 86
1, 814598, Control_c, 0, 64, 94
1, 814616, Control_c, 0, 64, 103
1, 814637, Control_c, 0, 64, 113
1, 814653, Control_c, 0, 64, 123
1, 814672, Control_c, 0, 64, 127
1, 814767, Note_off_c, 0, 61, 53
1, 814767, Poly_aftertouch_c, 0, 61, 0
1, 814806, Note_off_c, 0, 47, 36
1, 814806, Poly_aftertouch_c, 0, 47, 0
1, 814840, Poly_aftertouch_c, 0, 54, 24
1, 814852, Poly_aftertouch_c, 0, 66, 24
1, 814897, Note_off_c, 0, 66, 40
1, 814897, Poly_aftertouch_c, 0, 66, 0
1, 814930, Note_off_c, 0, 54, 28
1, 814930, Poly_aftertouch_c, 0, 54, 0
1, 814991, Note_off_c, 0, 35, 31
1, 815119, Note_on_c, 0, 59, 72
1, 815119, Note_on_c, 0, 62, 73
1, 815124, Note_on_c, 0, 54, 72
1, 815132, Note_on_c, 0, 66, 62
1, 815195, Poly_aftertouch_c, 0, 58, 22
1, 815228, Note_off_c, 0, 58, 19
1, 815228, Poly_aftertouch_c, 0, 58, 0
1, 815237, Note_off_c, 0, 59, 60
1, 815237, Poly_aftertouch_c, 0, 59, 0
1, 815242, Note_off_c, 0, 66, 46
1, 815242, Poly_aftertouch_c, 0, 66, 0
1, 815261, Note_off_c, 0, 54, 54
1, 815261, Poly_aftertouch_c, 0, 54, 0
1, 815368, Note_on_c, 0, 66, 78
1, 815371, Note_on_c, 0, 64, 73
1, 815372, Note_on_c, 0, 54, 72
1, 815380, Note_on_c, 0, 42, 73
1, 815384, Note_on_c, 0, 30, 74
1, 815385, Note_on_c, 0, 61, 69
1, 815414, Note_off_c, 0, 62, 57
1, 815421, Control_c, 0, 64, 118
1, 815440, Control_c, 0, 64, 90
1, 815457, Control_c, 0, 64, 62
1, 815477, Control_c, 0, 64, 31
1, 815495, Control_c, 0, 64, 0
1, 815588, Control_c, 0, 64, 11
1, 815607, Control_c, 0, 64, 33
1, 815626, Control_c, 0, 64, 48
1, 815645, Control_c, 0, 64, 60
1, 815663, Control_c, 0, 64, 69
1, 815682, Control_c, 0, 64, 74
1, 815701, Control_c, 0, 64, 77
1, 815719, Note_off_c, 0, 42, 38
1, 815719, Poly_aftertouch_c, 0, 42, 0
1, 815719, Control_c, 0, 64, 79
1, 815739, Control_c, 0, 64, 81
1, 815769, Note_off_c, 0, 30, 38
1, 815776, Control_c, 0, 64, 84
1, 815814, Control_c, 0, 64, 86
1, 816144, Note_on_c, 0, 30, 69
1, 816144, Note_on_c, 0, 42, 73
1, 816169, Control_c, 0, 64, 90
1, 816187, Note_off_c, 0, 30, 65
1, 816229, Note_off_c, 0, 42, 61
1, 816229, Poly_aftertouch_c, 0, 42, 0
1, 816336, Control_c, 0, 64, 87
1, 816355, Control_c, 0, 64, 82
1, 816374, Note_on_c, 0, 46, 83
1, 816375, Control_c, 0, 64, 72
1, 816380, Note_on_c, 0, 34, 76
1, 816393, Control_c, 0, 64, 60
1, 816411, Control_c, 0, 64, 45
1, 816430, Control_c, 0, 64, 0
1, 816579, Control_c, 0, 64, 23
1, 816598, Control_c, 0, 64, 34
1, 816617, Control_c, 0, 64, 44
1, 816636, Control_c, 0, 64, 54
1, 816655, Control_c, 0, 64, 65
1, 816672, Control_c, 0, 64, 74
1, 816692, Control_c, 0, 64, 80
1, 816711, Control_c, 0, 64, 84
1, 816729, Note_off_c, 0, 34, 32
1, 816729, Control_c, 0, 64, 88
1, 816768, Control_c, 0, 64, 95
1, 816804, Control_c, 0, 64, 101
1, 816882, Note_off_c, 0, 46, 47
1, 817104, Note_off_c, 0, 54, 32
1, 817104, Poly_aftertouch_c, 0, 54, 0
1, 817151, Note_on_c, 0, 49, 80
1, 817153, Note_on_c, 0, 37, 74
1, 817197, Note_off_c, 0, 37, 65
1, 817224, Note_off_c, 0, 49, 59
1, 817391, Note_on_c, 0, 54, 84
1, 817405, Note_on_c, 0, 42, 67
1, 817421, Control_c, 0, 64, 94
1, 817440, Control_c, 0, 64, 88
1, 817459, Control_c, 0, 64, 76
1, 817477, Control_c, 0, 64, 62
1, 817495, Control_c, 0, 64, 47
1, 817515, Control_c, 0, 64, 16
1, 817533, Control_c, 0, 64, 0
1, 817702, Control_c, 0, 64, 16
1, 817720, Control_c, 0, 64, 30
1, 817739, Control_c, 0, 64, 43
1, 817757, Control_c, 0, 64, 52
1, 817777, Control_c, 0, 64, 60
1, 817795, Control_c, 0, 64, 66
1, 817813, Control_c, 0, 64, 68
1, 817870, Control_c, 0, 64, 72
1, 817890, Control_c, 0, 64, 75
1, 817907, Control_c, 0, 64, 80
1, 817927, Control_c, 0, 64, 85
1, 817943, Control_c, 0, 64, 92
1, 817955, Note_on_c, 0, 46, 19
1, 817961, Control_c, 0, 64, 101
1, 817982, Control_c, 0, 64, 113
1, 818002, Control_c, 0, 64, 127
1, 818016, Poly_aftertouch_c, 0, 44, 127
1, 818102, Note_off_c, 0, 54, 45
1, 818102, Poly_aftertouch_c, 0, 54, 0
1, 818147, Note_off_c, 0, 64, 40
1, 818147, Poly_aftertouch_c, 0, 64, 0
1, 818206, Note_off_c, 0, 61, 59
1, 818206, Poly_aftertouch_c, 0, 61, 0
1, 818354, Note_off_c, 0, 66, 35
1, 818354, Poly_aftertouch_c, 0, 66, 0
1, 818433, Note_on_c, 0, 66, 56
1, 818456, Note_on_c, 0, 58, 62
1, 818461, Note_on_c, 0, 61, 59
1, 818465, Note_on_c, 0, 54, 54
1, 818466, Note_on_c, 0, 52, 68
1, 818470, Note_on_c, 0, 40, 62
1, 818486, Control_c, 0, 64, 121
1, 818506, Control_c, 0, 64, 102
1, 818524, Control_c, 0, 64, 79
1, 818525, Poly_aftertouch_c, 0, 44, 0
1, 818538, Note_off_c, 0, 42, 29
1, 818538, Poly_aftertouch_c, 0, 42, 0
1, 818543, Control_c, 0, 64, 57
1, 818553, Poly_aftertouch_c, 0, 46, 20
1, 818560, Control_c, 0, 64, 37
1, 818562, Note_off_c, 0, 46, 39
1, 818562, Poly_aftertouch_c, 0, 46, 0
1, 818580, Control_c, 0, 64, 0
1, 818637, Control_c, 0, 64, 17
1, 818655, Control_c, 0, 64, 31
1, 818674, Control_c, 0, 64, 46
1, 818692, Control_c, 0, 64, 59
1, 818712, Control_c, 0, 64, 69
1, 818730, Control_c, 0, 64, 74
1, 818749, Control_c, 0, 64, 78
1, 818767, Control_c, 0, 64, 82
1, 818787, Control_c, 0, 64, 88
1, 818806, Control_c, 0, 64, 97
1, 818807, Note_off_c, 0, 54, 35
1, 818807, Poly_aftertouch_c, 0, 54, 0
1, 818823, Control_c, 0, 64, 107
1, 818842, Control_c, 0, 64, 117
1, 818862, Control_c, 0, 64, 127
1, 818892, Note_off_c, 0, 66, 30
1, 818892, Poly_aftertouch_c, 0, 66, 0
1, 818900, Note_off_c, 0, 58, 29
1, 818900, Poly_aftertouch_c, 0, 58, 0
1, 818905, Note_off_c, 0, 52, 37
1, 818937, Note_off_c, 0, 61, 32
1, 818937, Poly_aftertouch_c, 0, 61, 0
1, 818967, Note_off_c, 0, 40, 32
1, 818967, Poly_aftertouch_c, 0, 40, 0
1, 819224, Note_on_c, 0, 66, 76
1, 819224, Note_on_c, 0, 61, 73
1, 819226, Note_on_c, 0, 52, 73
1, 819230, Note_on_c, 0, 58, 70
1, 819230, Note_on_c, 0, 54, 73
1, 819234, Note_on_c, 0, 40, 68
1, 819326, Note_off_c, 0, 40, 53
1, 819326, Poly_aftertouch_c, 0, 40, 0
1, 819341, Note_off_c, 0, 52, 56
1, 819346, Note_off_c, 0, 66, 55
1, 819346, Poly_aftertouch_c, 0, 66, 0
1, 819379, Note_off_c, 0, 54, 54
1, 819379, Poly_aftertouch_c, 0, 54, 0
1, 819415, Note_off_c, 0, 58, 39
1, 819415, Poly_aftertouch_c, 0, 58, 0
1, 819454, Note_off_c, 0, 61, 40
1, 819454, Poly_aftertouch_c, 0, 61, 0
1, 819469, Note_on_c, 0, 62, 78
1, 819479, Note_on_c, 0, 59, 72
1, 819480, Note_on_c, 0, 66, 78
1, 819483, Note_on_c, 0, 50, 80
1, 819484, Note_on_c, 0, 54, 75
1, 819492, Note_on_c, 0, 38, 77
1, 819516, Control_c, 0, 64, 119
1, 819536, Control_c, 0, 64, 98
1, 819549, Poly_aftertouch_c, 0, 61, 0
1, 819554, Control_c, 0, 64, 74
1, 819571, Control_c, 0, 64, 53
1, 819590, Control_c, 0, 64, 20
1, 819609, Control_c, 0, 64, 0
1, 819871, Control_c, 0, 64, 8
1, 819889, Control_c, 0, 64, 27
1, 819908, Control_c, 0, 64, 40
1, 819927, Control_c, 0, 64, 49
1, 819946, Control_c, 0, 64, 58
1, 819965, Control_c, 0, 64, 66
1, 819983, Control_c, 0, 64, 70
1, 820002, Control_c, 0, 64, 73
1, 820020, Note_off_c, 0, 62, 53
1, 820020, Control_c, 0, 64, 75
1, 820039, Control_c, 0, 64, 77
1, 820057, Control_c, 0, 64, 80
1, 820077, Control_c, 0, 64, 84
1, 820095, Control_c, 0, 64, 89
1, 820114, Control_c, 0, 64, 96
1, 820133, Control_c, 0, 64, 103
1, 820151, Control_c, 0, 64, 111
1, 820171, Control_c, 0, 64, 118
1, 820177, Note_off_c, 0, 50, 32
1, 820177, Poly_aftertouch_c, 0, 50, 0
1, 820188, Control_c, 0, 64, 124
1, 820286, Note_off_c, 0, 38, 36
1, 820310, Note_off_c, 0, 54, 32
1, 820310, Poly_aftertouch_c, 0, 54, 0
1, 820353, Note_off_c, 0, 59, 50
1, 820353, Poly_aftertouch_c, 0, 59, 0
1, 820382, Note_off_c, 0, 66, 38
1, 820382, Poly_aftertouch_c, 0, 66, 0
1, 820503, Note_on_c, 0, 66, 79
1, 820520, Note_on_c, 0, 62, 69
1, 820522, Note_on_c, 0, 54, 72
1, 820523, Note_on_c, 0, 59, 68
1, 820545, Note_on_c, 0, 47, 65
1, 820545, Note_on_c, 0, 35, 69
1, 820545, Control_c, 0, 64, 113
1, 820562, Control_c, 0, 64, 92
1, 820583, Control_c, 0, 64, 69
1, 820600, Control_c, 0, 64, 49
1, 820619, Control_c, 0, 64, 21
1, 820638, Control_c, 0, 64, 0
1, 820693, Control_c, 0, 64, 15
1, 820712, Control_c, 0, 64, 32
1, 820730, Control_c, 0, 64, 48
1, 820750, Control_c, 0, 64, 62
1, 820768, Control_c, 0, 64, 72
1, 820787, Control_c, 0, 64, 77
1, 820806, Control_c, 0, 64, 81
1, 820824, Control_c, 0, 64, 83
1, 820843, Control_c, 0, 64, 87
1, 820877, Note_off_c, 0, 54, 35
1, 820877, Poly_aftertouch_c, 0, 54, 0
1, 820880, Control_c, 0, 64, 94
1, 820899, Control_c, 0, 64, 98
1, 820905, Note_off_c, 0, 47, 29
1, 820905, Poly_aftertouch_c, 0, 47, 0
1, 820906, Note_off_c, 0, 59, 43
1, 820906, Poly_aftertouch_c, 0, 59, 0
1, 820927, Note_off_c, 0, 62, 40
1, 820928, Note_off_c, 0, 35, 32
1, 820936, Control_c, 0, 64, 104
1, 820982, Note_off_c, 0, 66, 30
1, 820982, Poly_aftertouch_c, 0, 66, 0
1, 821030, Control_c, 0, 64, 108
1, 821252, Note_on_c, 0, 66, 83
1, 821263, Note_on_c, 0, 54, 77
1, 821269, Note_on_c, 0, 47, 75
1, 821270, Note_on_c, 0, 59, 75
1, 821270, Note_on_c, 0, 35, 76
1, 821272, Note_on_c, 0, 62, 71
1, 821335, Note_off_c, 0, 35, 57
1, 821358, Note_off_c, 0, 47, 54
1, 821358, Poly_aftertouch_c, 0, 47, 0
1, 821387, Note_off_c, 0, 54, 53
1, 821387, Poly_aftertouch_c, 0, 54, 0
1, 821395, Note_off_c, 0, 66, 56
1, 821395, Poly_aftertouch_c, 0, 66, 0
1, 821407, Note_off_c, 0, 59, 59
1, 821407, Poly_aftertouch_c, 0, 59, 0
1, 821447, Note_off_c, 0, 62, 56
1, 821497, Control_c, 0, 64, 104
1, 821506, Note_on_c, 0, 64, 78
1, 821507, Note_on_c, 0, 54, 87
1, 821510, Note_on_c, 0, 61, 77
1, 821510, Note_on_c, 0, 66, 81
1, 821515, Note_on_c, 0, 46, 80
1, 821516, Control_c, 0, 64, 98
1, 821521, Note_on_c, 0, 34, 78
1, 821537, Control_c, 0, 64, 87
1, 821554, Control_c, 0, 64, 72
1, 821572, Control_c, 0, 64, 55
1, 821591, Control_c, 0, 64, 33
1, 821609, Control_c, 0, 64, 0
1, 821852, Control_c, 0, 64, 21
1, 821872, Control_c, 0, 64, 33
1, 821890, Control_c, 0, 64, 43
1, 821909, Control_c, 0, 64, 51
1, 821927, Control_c, 0, 64, 60
1, 821948, Control_c, 0, 64, 67
1, 821965, Control_c, 0, 64, 72
1, 821984, Control_c, 0, 64, 74
1, 822002, Control_c, 0, 64, 77
1, 822021, Control_c, 0, 64, 79
1, 822039, Control_c, 0, 64, 83
1, 822061, Control_c, 0, 64, 88
1, 822078, Control_c, 0, 64, 94
1, 822096, Control_c, 0, 64, 102
1, 822114, Control_c, 0, 64, 110
1, 822133, Control_c, 0, 64, 117
1, 822152, Control_c, 0, 64, 123
1, 822170, Control_c, 0, 64, 127
1, 822181, Note_off_c, 0, 61, 30
1, 822199, Note_off_c, 0, 34, 34
1, 822260, Note_off_c, 0, 46, 52
1, 822260, Poly_aftertouch_c, 0, 46, 0
1, 822350, Note_off_c, 0, 54, 38
1, 822350, Poly_aftertouch_c, 0, 54, 0
1, 822355, Note_off_c, 0, 64, 56
1, 822355, Poly_aftertouch_c, 0, 64, 0
1, 822429, Note_off_c, 0, 66, 40
1, 822429, Poly_aftertouch_c, 0, 66, 0
1, 822535, Note_on_c, 0, 66, 87
1, 822539, Note_on_c, 0, 54, 82
1, 822543, Note_on_c, 0, 59, 80
1, 822545, Note_on_c, 0, 62, 77
1, 822552, Note_on_c, 0, 47, 82
1, 822556, Note_on_c, 0, 35, 81
1, 822563, Control_c, 0, 64, 123
1, 822582, Control_c, 0, 64, 100
1, 822600, Control_c, 0, 64, 74
1, 822620, Control_c, 0, 64, 50
1, 822639, Control_c, 0, 64, 16
1, 822656, Control_c, 0, 64, 0
1, 822731, Control_c, 0, 64, 25
1, 822752, Control_c, 0, 64, 43
1, 822769, Control_c, 0, 64, 58
1, 822787, Control_c, 0, 64, 70
1, 822808, Control_c, 0, 64, 77
1, 822825, Control_c, 0, 64, 83
1, 822844, Control_c, 0, 64, 88
1, 822848, Note_off_c, 0, 62, 56
1, 822863, Control_c, 0, 64, 92
1, 822881, Control_c, 0, 64, 97
1, 822901, Control_c, 0, 64, 101
1, 822938, Control_c, 0, 64, 107
1, 822970, Note_off_c, 0, 47, 22
1, 822970, Poly_aftertouch_c, 0, 47, 0
1, 822974, Control_c, 0, 64, 111
1, 822997, Note_off_c, 0, 35, 23
1, 823013, Note_off_c, 0, 54, 30
1, 823013, Poly_aftertouch_c, 0, 54, 0
1, 823013, Control_c, 0, 64, 116
1, 823026, Note_off_c, 0, 66, 36
1, 823026, Poly_aftertouch_c, 0, 66, 0
1, 823047, Poly_aftertouch_c, 0, 59, 24
1, 823107, Note_off_c, 0, 59, 26
1, 823107, Poly_aftertouch_c, 0, 59, 0
1, 823124, Control_c, 0, 64, 120
1, 823316, Note_on_c, 0, 54, 84
1, 823318, Note_on_c, 0, 62, 75
1, 823318, Note_on_c, 0, 47, 83
1, 823322, Note_on_c, 0, 66, 79
1, 823323, Note_on_c, 0, 59, 73
1, 823327, Note_on_c, 0, 35, 79
1, 823365, Note_off_c, 0, 35, 62
1, 823377, Note_off_c, 0, 47, 63
1, 823377, Poly_aftertouch_c, 0, 47, 0
1, 823422, Note_off_c, 0, 59, 58
1, 823422, Poly_aftertouch_c, 0, 59, 0
1, 823448, Note_off_c, 0, 54, 53
1, 823448, Poly_aftertouch_c, 0, 54, 0
1, 823451, Note_off_c, 0, 66, 50
1, 823451, Poly_aftertouch_c, 0, 66, 0
1, 823461, Note_off_c, 0, 62, 60
1, 823554, Control_c, 0, 64, 113
1, 823572, Control_c, 0, 64, 102
1, 823574, Note_on_c, 0, 66, 91
1, 823577, Note_on_c, 0, 54, 91
1, 823582, Note_on_c, 0, 61, 81
1, 823584, Note_on_c, 0, 58, 84
1, 823584, Note_on_c, 0, 42, 86
1, 823589, Note_on_c, 0, 30, 88
1, 823590, Control_c, 0, 64, 83
1, 823610, Control_c, 0, 64, 62
1, 823629, Control_c, 0, 64, 44
1, 823647, Control_c, 0, 64, 19
1, 823666, Control_c, 0, 64, 0
1, 823704, Control_c, 0, 64, 17
1, 823722, Control_c, 0, 64, 33
1, 823741, Control_c, 0, 64, 50
1, 823760, Control_c, 0, 64, 65
1, 823779, Control_c, 0, 64, 76
1, 823798, Control_c, 0, 64, 82
1, 823816, Note_off_c, 0, 54, 55
1, 823816, Poly_aftertouch_c, 0, 54, 0
1, 823816, Control_c, 0, 64, 84
1, 823818, Note_off_c, 0, 42, 59
1, 823818, Poly_aftertouch_c, 0, 42, 0
1, 823822, Note_off_c, 0, 30, 59
1, 823825, Note_off_c, 0, 58, 60
1, 823825, Poly_aftertouch_c, 0, 58, 0
1, 823830, Note_off_c, 0, 66, 53
1, 823830, Poly_aftertouch_c, 0, 66, 0
1, 823837, Note_off_c, 0, 61, 58
1, 823910, Control_c, 0, 64, 82
1, 823947, Control_c, 0, 64, 80
1, 823984, Control_c, 0, 64, 75
1, 824003, Control_c, 0, 64, 68
1, 824022, Control_c, 0, 64, 60
1, 824042, Control_c, 0, 64, 54
1, 824060, Control_c, 0, 64, 48
1, 824078, Control_c, 0, 64, 37
1, 824097, Control_c, 0, 64, 20
1, 824115, Control_c, 0, 64, 0
1, 824628, Note_on_c, 0, 66, 79
1, 824637, Note_on_c, 0, 58, 75
1, 824638, Note_on_c, 0, 54, 75
1, 824640, Note_on_c, 0, 61, 70
1, 824642, Note_on_c, 0, 42, 80
1, 824649, Note_on_c, 0, 30, 76
1, 824948, Note_off_c, 0, 66, 60
1, 824948, Poly_aftertouch_c, 0, 66, 0
1, 824949, Note_off_c, 0, 42, 59
1, 824949, Note_off_c, 0, 30, 59
1, 824949, Poly_aftertouch_c, 0, 42, 0
1, 824950, Note_off_c, 0, 54, 53
1, 824950, Note_off_c, 0, 58, 59
1, 824950, Poly_aftertouch_c, 0, 54, 0
1, 824950, Poly_aftertouch_c, 0, 58, 0
1, 824964, Note_off_c, 0, 61, 59
1, 825716, Note_on_c, 0, 66, 66
1, 825720, Note_on_c, 0, 58, 59
1, 825721, Note_on_c, 0, 54, 58
1, 825723, Note_on_c, 0, 61, 58
1, 825724, Note_on_c, 0, 42, 59
1, 825735, Note_on_c, 0, 30, 53
1, 826078, Control_c, 0, 67, 8
1, 826109, Note_off_c, 0, 66, 50
1, 826109, Poly_aftertouch_c, 0, 66, 0
1, 826118, Note_off_c, 0, 30, 56
1, 826119, Note_off_c, 0, 61, 54
1, 826120, Note_off_c, 0, 42, 55
1, 826120, Poly_aftertouch_c, 0, 42, 0
1, 826123, Note_off_c, 0, 58, 54
1, 826123, Poly_aftertouch_c, 0, 58, 0
1, 826133, Note_off_c, 0, 54, 39
1, 826133, Poly_aftertouch_c, 0, 54, 0
1, 826152, Control_c, 0, 67, 12
1, 826898, Note_on_c, 0, 66, 55
1, 826900, Control_c, 0, 67, 8
1, 826920, Control_c, 0, 64, 21
1, 826933, Note_on_c, 0, 54, 41
1, 826938, Control_c, 0, 64, 34
1, 826958, Control_c, 0, 64, 45
1, 826977, Control_c, 0, 64, 55
1, 826995, Control_c, 0, 64, 63
1, 827013, Control_c, 0, 64, 69
1, 827032, Control_c, 0, 64, 73
1, 827051, Control_c, 0, 64, 77
1, 827069, Control_c, 0, 64, 80
1, 827071, Control_c, 0, 67, 0
1, 827089, Control_c, 0, 64, 84
1, 827107, Control_c, 0, 64, 89
1, 827126, Control_c, 0, 64, 95
1, 827144, Control_c, 0, 64, 102
1, 827163, Control_c, 0, 64, 109
1, 827183, Control_c, 0, 64, 115
1, 827194, Note_off_c, 0, 54, 31
1, 827194, Poly_aftertouch_c, 0, 54, 0
1, 827201, Control_c, 0, 64, 120
1, 827237, Note_off_c, 0, 66, 30
1, 827237, Poly_aftertouch_c, 0, 66, 0
1, 827237, Control_c, 0, 64, 126
1, 827736, Note_on_c, 0, 66, 69
1, 827767, Note_on_c, 0, 54, 46
1, 827874, Note_off_c, 0, 66, 53
1, 827874, Poly_aftertouch_c, 0, 66, 0
1, 827881, Note_off_c, 0, 54, 48
1, 827881, Poly_aftertouch_c, 0, 54, 0
1, 827992, Note_on_c, 0, 66, 71
1, 827995, Note_on_c, 0, 62, 63
1, 828005, Note_on_c, 0, 54, 57
1, 828008, Note_on_c, 0, 59, 56
1, 828017, Note_on_c, 0, 47, 62
1, 828027, Note_on_c, 0, 35, 58
1, 828098, Control_c, 0, 64, 116
1, 828117, Control_c, 0, 64, 105
1, 828136, Control_c, 0, 64, 91
1, 828155, Control_c, 0, 64, 76
1, 828173, Control_c, 0, 64, 62
1, 828192, Control_c, 0, 64, 50
1, 828210, Control_c, 0, 64, 34
1, 828229, Control_c, 0, 64, 19
1, 828247, Control_c, 0, 64, 14
1, 828285, Control_c, 0, 64, 22
1, 828304, Control_c, 0, 64, 30
1, 828322, Control_c, 0, 64, 38
1, 828342, Control_c, 0, 64, 49
1, 828359, Control_c, 0, 64, 58
1, 828379, Control_c, 0, 64, 66
1, 828397, Control_c, 0, 64, 71
1, 828416, Control_c, 0, 64, 75
1, 828434, Control_c, 0, 64, 78
1, 828454, Control_c, 0, 64, 80
1, 828472, Control_c, 0, 64, 84
1, 828490, Control_c, 0, 64, 88
1, 828510, Control_c, 0, 64, 95
1, 828528, Control_c, 0, 64, 103
1, 828546, Control_c, 0, 64, 112
1, 828566, Control_c, 0, 64, 121
1, 828584, Control_c, 0, 64, 127
1, 828872, Note_off_c, 0, 59, 34
1, 828872, Poly_aftertouch_c, 0, 59, 0
1, 828898, Note_off_c, 0, 62, 31
1, 828915, Note_off_c, 0, 66, 30
1, 828915, Note_off_c, 0, 54, 29
1, 828915, Poly_aftertouch_c, 0, 54, 0
1, 828915, Poly_aftertouch_c, 0, 66, 0
1, 829044, Note_on_c, 0, 66, 69
1, 829056, Note_on_c, 0, 54, 58
1, 829058, Note_on_c, 0, 62, 57
1, 829066, Note_on_c, 0, 59, 50
1, 829253, Note_off_c, 0, 66, 39
1, 829253, Poly_aftertouch_c, 0, 66, 0
1, 829267, Note_off_c, 0, 54, 33
1, 829267, Poly_aftertouch_c, 0, 54, 0
1, 829365, Note_off_c, 0, 59, 40
1, 829365, Poly_aftertouch_c, 0, 59, 0
1, 829402, Note_off_c, 0, 62, 36
1, 829795, Note_on_c, 0, 66, 76
1, 829800, Note_on_c, 0, 62, 66
1, 829804, Note_on_c, 0, 59, 70
1, 829805, Note_on_c, 0, 54, 74
1, 829906, Note_off_c, 0, 35, 36
1, 829934, Note_off_c, 0, 66, 56
1, 829934, Poly_aftertouch_c, 0, 66, 0
1, 829949, Note_off_c, 0, 54, 55
1, 829949, Poly_aftertouch_c, 0, 54, 0
1, 829952, Note_off_c, 0, 62, 59
1, 829957, Note_off_c, 0, 59, 57
1, 829957, Poly_aftertouch_c, 0, 59, 0
1, 830037, Note_on_c, 0, 66, 84
1, 830041, Note_on_c, 0, 35, 90
1, 830046, Note_on_c, 0, 54, 70
1, 830047, Note_on_c, 0, 59, 61
1, 830049, Note_on_c, 0, 62, 68
1, 830136, Control_c, 0, 64, 109
1, 830155, Control_c, 0, 64, 82
1, 830173, Control_c, 0, 64, 60
1, 830192, Control_c, 0, 64, 44
1, 830211, Control_c, 0, 64, 30
1, 830248, Control_c, 0, 64, 40
1, 830267, Control_c, 0, 64, 52
1, 830286, Control_c, 0, 64, 66
1, 830304, Control_c, 0, 64, 78
1, 830323, Control_c, 0, 64, 88
1, 830342, Control_c, 0, 64, 100
1, 830360, Control_c, 0, 64, 112
1, 830379, Control_c, 0, 64, 123
1, 830397, Control_c, 0, 64, 127
1, 830451, Note_off_c, 0, 54, 26
1, 830451, Poly_aftertouch_c, 0, 54, 0
1, 830454, Note_off_c, 0, 66, 30
1, 830454, Poly_aftertouch_c, 0, 66, 0
1, 830521, Note_off_c, 0, 59, 30
1, 830521, Poly_aftertouch_c, 0, 59, 0
1, 830577, Note_off_c, 0, 62, 25
1, 830808, Note_on_c, 0, 62, 77
1, 830816, Note_on_c, 0, 66, 74
1, 830817, Note_on_c, 0, 59, 71
1, 830818, Note_on_c, 0, 54, 79
1, 830916, Note_off_c, 0, 66, 62
1, 830916, Poly_aftertouch_c, 0, 66, 0
1, 830922, Note_off_c, 0, 54, 60
1, 830922, Poly_aftertouch_c, 0, 54, 0
1, 830940, Note_off_c, 0, 59, 52
1, 830940, Poly_aftertouch_c, 0, 59, 0
1, 830980, Note_off_c, 0, 62, 58
1, 831056, Note_on_c, 0, 64, 88
1, 831062, Note_on_c, 0, 52, 84
1, 831065, Note_on_c, 0, 61, 75
1, 831075, Note_on_c, 0, 59, 78
1, 831108, Control_c, 0, 64, 95
1, 831127, Control_c, 0, 64, 67
1, 831135, Poly_aftertouch_c, 0, 58, 0
1, 831147, Control_c, 0, 64, 43
1, 831164, Control_c, 0, 64, 8
1, 831182, Control_c, 0, 64, 0
1, 831220, Control_c, 0, 64, 26
1, 831239, Control_c, 0, 64, 43
1, 831257, Control_c, 0, 64, 61
1, 831277, Control_c, 0, 64, 75
1, 831296, Control_c, 0, 64, 86
1, 831299, Note_off_c, 0, 64, 53
1, 831299, Poly_aftertouch_c, 0, 64, 0
1, 831313, Control_c, 0, 64, 96
1, 831333, Control_c, 0, 64, 106
1, 831345, Note_off_c, 0, 52, 38
1, 831353, Control_c, 0, 64, 115
1, 831370, Control_c, 0, 64, 124
1, 831385, Note_off_c, 0, 35, 55
1, 831516, Note_off_c, 0, 59, 29
1, 831516, Poly_aftertouch_c, 0, 59, 0
1, 831560, Note_off_c, 0, 47, 37
1, 831560, Poly_aftertouch_c, 0, 47, 0
1, 831570, Note_off_c, 0, 61, 56
1, 831830, Note_on_c, 0, 54, 86
1, 831832, Note_on_c, 0, 66, 87
1, 831836, Note_on_c, 0, 59, 78
1, 831842, Note_on_c, 0, 62, 69
1, 831908, Note_off_c, 0, 62, 59
1, 831935, Note_off_c, 0, 54, 59
1, 831935, Poly_aftertouch_c, 0, 54, 0
1, 831983, Note_off_c, 0, 66, 58
1, 831983, Poly_aftertouch_c, 0, 66, 0
1, 832018, Note_off_c, 0, 59, 48
1, 832018, Poly_aftertouch_c, 0, 59, 0
1, 832086, Note_on_c, 0, 67, 90
1, 832089, Note_on_c, 0, 59, 62
1, 832093, Note_on_c, 0, 64, 83
1, 832096, Note_on_c, 0, 55, 84
1, 832099, Note_on_c, 0, 40, 87
1, 832157, Control_c, 0, 64, 96
1, 832174, Control_c, 0, 64, 65
1, 832193, Control_c, 0, 64, 25
1, 832211, Control_c, 0, 64, 0
1, 832323, Control_c, 0, 64, 17
1, 832343, Control_c, 0, 64, 39
1, 832362, Control_c, 0, 64, 53
1, 832380, Control_c, 0, 64, 66
1, 832398, Control_c, 0, 64, 73
1, 832419, Control_c, 0, 64, 79
1, 832437, Control_c, 0, 64, 84
1, 832454, Control_c, 0, 64, 90
1, 832456, Note_off_c, 0, 40, 33
1, 832456, Poly_aftertouch_c, 0, 40, 0
1, 832473, Control_c, 0, 64, 97
1, 832493, Control_c, 0, 64, 104
1, 832510, Control_c, 0, 64, 111
1, 832530, Control_c, 0, 64, 117
1, 832548, Control_c, 0, 64, 121
1, 832624, Control_c, 0, 64, 125
1, 832840, Note_on_c, 0, 40, 86
1, 833026, Note_off_c, 0, 40, 56
1, 833026, Poly_aftertouch_c, 0, 40, 0
1, 833063, Note_on_c, 0, 43, 89
1, 833071, Control_c, 0, 64, 120
1, 833090, Control_c, 0, 64, 112
1, 833109, Control_c, 0, 64, 95
1, 833128, Control_c, 0, 64, 72
1, 833146, Control_c, 0, 64, 47
1, 833166, Control_c, 0, 64, 0
1, 833216, Poly_aftertouch_c, 0, 44, 0
1, 833297, Control_c, 0, 64, 10
1, 833314, Control_c, 0, 64, 28
1, 833334, Control_c, 0, 64, 39
1, 833352, Control_c, 0, 64, 49
1, 833372, Control_c, 0, 64, 57
1, 833390, Control_c, 0, 64, 64
1, 833408, Control_c, 0, 64, 69
1, 833427, Control_c, 0, 64, 72
1, 833464, Control_c, 0, 64, 75
1, 833482, Control_c, 0, 64, 77
1, 833503, Control_c, 0, 64, 79
1, 833520, Control_c, 0, 64, 81
1, 833539, Control_c, 0, 64, 85
1, 833558, Control_c, 0, 64, 89
1, 833577, Control_c, 0, 64, 95
1, 833595, Control_c, 0, 64, 102
1, 833614, Control_c, 0, 64, 108
1, 833633, Control_c, 0, 64, 113
1, 833670, Control_c, 0, 64, 117
1, 833797, Note_off_c, 0, 43, 22
1, 833805, Note_on_c, 0, 47, 86
1, 833913, Control_c, 0, 64, 121
1, 834049, Note_on_c, 0, 52, 92
1, 834100, Control_c, 0, 64, 115
1, 834104, Note_off_c, 0, 47, 56
1, 834104, Poly_aftertouch_c, 0, 47, 0
1, 834119, Control_c, 0, 64, 99
1, 834137, Control_c, 0, 64, 75
1, 834157, Control_c, 0, 64, 52
1, 834175, Control_c, 0, 64, 19
1, 834193, Control_c, 0, 64, 0
1, 834362, Control_c, 0, 64, 12
1, 834382, Control_c, 0, 64, 27
1, 834399, Control_c, 0, 64, 38
1, 834418, Control_c, 0, 64, 47
1, 834439, Control_c, 0, 64, 54
1, 834455, Control_c, 0, 64, 59
1, 834473, Control_c, 0, 64, 63
1, 834493, Control_c, 0, 64, 65
1, 834512, Control_c, 0, 64, 67
1, 834530, Control_c, 0, 64, 69
1, 834549, Control_c, 0, 64, 72
1, 834568, Control_c, 0, 64, 77
1, 834587, Control_c, 0, 64, 83
1, 834606, Control_c, 0, 64, 93
1, 834624, Control_c, 0, 64, 112
1, 834643, Control_c, 0, 64, 127
1, 834778, Poly_aftertouch_c, 0, 59, 24
1, 834837, Note_off_c, 0, 55, 28
1, 834837, Poly_aftertouch_c, 0, 55, 0
1, 834850, Note_off_c, 0, 67, 32
1, 834887, Note_off_c, 0, 64, 26
1, 834887, Poly_aftertouch_c, 0, 64, 0
1, 834892, Note_off_c, 0, 59, 23
1, 834892, Poly_aftertouch_c, 0, 59, 0
1, 834918, Note_off_c, 0, 52, 26
1, 835130, Note_on_c, 0, 67, 84
1, 835144, Note_on_c, 0, 55, 75
1, 835146, Note_on_c, 0, 64, 68
1, 835147, Note_on_c, 0, 52, 76
1, 835149, Note_on_c, 0, 59, 63
1, 835149, Note_on_c, 0, 43, 72
1, 835168, Control_c, 0, 64, 105
1, 835185, Control_c, 0, 64, 75
1, 835203, Control_c, 0, 64, 48
1, 835222, Control_c, 0, 64, 13
1, 835241, Control_c, 0, 64, 0
1, 835278, Control_c, 0, 64, 23
1, 835296, Control_c, 0, 64, 42
1, 835316, Control_c, 0, 64, 60
1, 835333, Control_c, 0, 64, 74
1, 835353, Control_c, 0, 64, 83
1, 835363, Note_off_c, 0, 55, 50
1, 835363, Poly_aftertouch_c, 0, 55, 0
1, 835371, Control_c, 0, 64, 92
1, 835390, Control_c, 0, 64, 103
1, 835409, Control_c, 0, 64, 115
1, 835429, Control_c, 0, 64, 127
1, 835508, Note_off_c, 0, 59, 52
1, 835508, Poly_aftertouch_c, 0, 59, 0
1, 835518, Note_off_c, 0, 67, 37
1, 835535, Note_off_c, 0, 52, 32
1, 835539, Note_off_c, 0, 43, 36
1, 835619, Note_off_c, 0, 64, 32
1, 835619, Poly_aftertouch_c, 0, 64, 0
1, 835903, Note_on_c, 0, 64, 73
1, 835903, Note_on_c, 0, 67, 80
1, 835916, Note_on_c, 0, 55, 80
1, 835917, Note_on_c, 0, 52, 75
1, 835917, Note_on_c, 0, 43, 76
1, 835922, Note_on_c, 0, 59, 68
1, 835955, Note_off_c, 0, 43, 66
1, 835966, Note_off_c, 0, 67, 60
1, 835968, Note_off_c, 0, 52, 59
1, 836015, Note_off_c, 0, 55, 56
1, 836015, Poly_aftertouch_c, 0, 55, 0
1, 836046, Note_off_c, 0, 59, 52
1, 836046, Poly_aftertouch_c, 0, 59, 0
1, 836151, Note_on_c, 0, 66, 94
1, 836163, Note_on_c, 0, 57, 81
1, 836165, Note_on_c, 0, 50, 79
1, 836166, Note_on_c, 0, 62, 77
1, 836167, Note_on_c, 0, 54, 91
1, 836175, Note_on_c, 0, 45, 82
1, 836210, Note_off_c, 0, 64, 61
1, 836210, Poly_aftertouch_c, 0, 64, 0
1, 836232, Control_c, 0, 64, 113
1, 836252, Control_c, 0, 64, 86
1, 836269, Control_c, 0, 64, 61
1, 836288, Control_c, 0, 64, 38
1, 836307, Control_c, 0, 64, 0
1, 836475, Control_c, 0, 64, 19
1, 836493, Control_c, 0, 64, 30
1, 836512, Control_c, 0, 64, 36
1, 836531, Control_c, 0, 64, 42
1, 836549, Control_c, 0, 64, 49
1, 836568, Control_c, 0, 64, 56
1, 836587, Control_c, 0, 64, 63
1, 836605, Control_c, 0, 64, 68
1, 836625, Control_c, 0, 64, 71
1, 836643, Control_c, 0, 64, 74
1, 836662, Control_c, 0, 64, 79
1, 836682, Control_c, 0, 64, 84
1, 836699, Control_c, 0, 64, 92
1, 836718, Control_c, 0, 64, 102
1, 836737, Control_c, 0, 64, 111
1, 836755, Control_c, 0, 64, 121
1, 836775, Control_c, 0, 64, 127
1, 836834, Poly_aftertouch_c, 0, 45, 24
1, 836949, Note_off_c, 0, 45, 26
1, 836949, Poly_aftertouch_c, 0, 45, 0
1, 836958, Poly_aftertouch_c, 0, 57, 22
1, 836975, Poly_aftertouch_c, 0, 66, 22
1, 836989, Note_off_c, 0, 57, 19
1, 836989, Poly_aftertouch_c, 0, 57, 0
1, 837008, Note_off_c, 0, 54, 28
1, 837008, Poly_aftertouch_c, 0, 54, 0
1, 837009, Note_off_c, 0, 66, 27
1, 837009, Poly_aftertouch_c, 0, 66, 0
1, 837033, Note_off_c, 0, 50, 29
1, 837033, Poly_aftertouch_c, 0, 50, 0
1, 837083, Note_off_c, 0, 62, 34
1, 837176, Note_on_c, 0, 66, 84
1, 837196, Note_on_c, 0, 57, 77
1, 837198, Note_on_c, 0, 54, 82
1, 837200, Note_on_c, 0, 62, 71
1, 837205, Control_c, 0, 64, 114
1, 837206, Note_on_c, 0, 45, 73
1, 837211, Note_on_c, 0, 50, 69
1, 837223, Control_c, 0, 64, 89
1, 837242, Control_c, 0, 64, 68
1, 837260, Control_c, 0, 64, 61
1, 837279, Control_c, 0, 64, 63
1, 837297, Control_c, 0, 64, 67
1, 837317, Control_c, 0, 64, 73
1, 837336, Control_c, 0, 64, 85
1, 837341, Note_off_c, 0, 57, 51
1, 837341, Poly_aftertouch_c, 0, 57, 0
1, 837354, Control_c, 0, 64, 105
1, 837373, Control_c, 0, 64, 127
1, 837431, Note_off_c, 0, 54, 36
1, 837431, Poly_aftertouch_c, 0, 54, 0
1, 837434, Note_off_c, 0, 66, 35
1, 837434, Poly_aftertouch_c, 0, 66, 0
1, 837458, Note_off_c, 0, 45, 27
1, 837458, Poly_aftertouch_c, 0, 45, 0
1, 837593, Note_off_c, 0, 50, 35
1, 837593, Poly_aftertouch_c, 0, 50, 0
1, 837640, Note_off_c, 0, 62, 33
1, 837984, Note_on_c, 0, 66, 91
1, 837993, Note_on_c, 0, 50, 78
1, 837994, Note_on_c, 0, 62, 84
1, 837995, Note_on_c, 0, 54, 77
1, 837996, Note_on_c, 0, 57, 85
1, 838048, Note_on_c, 0, 45, 45
1, 838055, Note_on_c, 0, 46, 37
1, 838070, Poly_aftertouch_c, 0, 44, 127
1, 838079, Note_off_c, 0, 54, 60
1, 838079, Poly_aftertouch_c, 0, 54, 0
1, 838091, Poly_aftertouch_c, 0, 44, 0
1, 838095, Note_off_c, 0, 45, 49
1, 838095, Poly_aftertouch_c, 0, 45, 0
1, 838111, Note_off_c, 0, 66, 59
1, 838111, Note_off_c, 0, 46, 53
1, 838111, Poly_aftertouch_c, 0, 46, 0
1, 838111, Poly_aftertouch_c, 0, 66, 0
1, 838128, Note_off_c, 0, 57, 51
1, 838128, Poly_aftertouch_c, 0, 57, 0
1, 838147, Note_off_c, 0, 50, 54
1, 838147, Poly_aftertouch_c, 0, 50, 0
1, 838181, Note_off_c, 0, 62, 59
1, 838224, Note_on_c, 0, 64, 92
1, 838227, Note_on_c, 0, 61, 94
1, 838228, Note_on_c, 0, 57, 89
1, 838230, Note_on_c, 0, 52, 89
1, 838232, Note_on_c, 0, 45, 82
1, 838236, Note_on_c, 0, 49, 86
1, 838254, Control_c, 0, 64, 120
1, 838270, Control_c, 0, 64, 83
1, 838288, Control_c, 0, 64, 44
1, 838308, Control_c, 0, 64, 0
1, 838532, Control_c, 0, 64, 11
1, 838552, Control_c, 0, 64, 33
1, 838569, Control_c, 0, 64, 50
1, 838587, Control_c, 0, 64, 62
1, 838607, Control_c, 0, 64, 69
1, 838624, Control_c, 0, 64, 72
1, 838644, Control_c, 0, 64, 75
1, 838663, Control_c, 0, 64, 79
1, 838682, Control_c, 0, 64, 84
1, 838700, Control_c, 0, 64, 90
1, 838718, Control_c, 0, 64, 99
1, 838738, Control_c, 0, 64, 109
1, 838755, Control_c, 0, 64, 117
1, 838775, Control_c, 0, 64, 123
1, 838794, Control_c, 0, 64, 127
1, 838974, Note_off_c, 0, 64, 53
1, 838974, Poly_aftertouch_c, 0, 64, 0
1, 839128, Poly_aftertouch_c, 0, 57, 24
1, 839162, Poly_aftertouch_c, 0, 45, 24
1, 839182, Note_off_c, 0, 49, 42
1, 839198, Note_off_c, 0, 52, 49
1, 839198, Note_off_c, 0, 57, 34
1, 839198, Poly_aftertouch_c, 0, 57, 0
1, 839222, Note_off_c, 0, 61, 58
1, 839238, Note_off_c, 0, 45, 31
1, 839238, Poly_aftertouch_c, 0, 45, 0
1, 839297, Control_c, 0, 64, 121
1, 839300, Note_on_c, 0, 69, 91
1, 839308, Note_on_c, 0, 57, 95
1, 839310, Note_on_c, 0, 64, 85
1, 839311, Note_on_c, 0, 52, 95
1, 839315, Note_on_c, 0, 61, 88
1, 839317, Note_on_c, 0, 45, 86
1, 839317, Control_c, 0, 64, 94
1, 839323, Note_on_c, 0, 49, 86
1, 839339, Control_c, 0, 64, 65
1, 839354, Control_c, 0, 64, 31
1, 839374, Control_c, 0, 64, 0
1, 839467, Control_c, 0, 64, 13
1, 839485, Control_c, 0, 64, 33
1, 839504, Control_c, 0, 64, 47
1, 839523, Control_c, 0, 64, 58
1, 839542, Control_c, 0, 64, 66
1, 839560, Control_c, 0, 64, 71
1, 839579, Control_c, 0, 64, 75
1, 839598, Control_c, 0, 64, 80
1, 839616, Control_c, 0, 64, 87
1, 839635, Control_c, 0, 64, 98
1, 839654, Control_c, 0, 64, 114
1, 839672, Control_c, 0, 64, 127
1, 839716, Poly_aftertouch_c, 0, 50, 0
1, 839723, Poly_aftertouch_c, 0, 66, 127
1, 839801, Poly_aftertouch_c, 0, 51, 0
1, 839919, Poly_aftertouch_c, 0, 49, 24
1, 839953, Note_off_c, 0, 45, 32
1, 839953, Poly_aftertouch_c, 0, 45, 0
1, 839979, Note_off_c, 0, 69, 48
1, 839979, Poly_aftertouch_c, 0, 69, 0
1, 839981, Note_off_c, 0, 52, 40
1, 839985, Note_off_c, 0, 49, 32
1, 839985, Poly_aftertouch_c, 0, 49, 0
1, 839993, Note_off_c, 0, 57, 37
1, 839993, Poly_aftertouch_c, 0, 57, 0
1, 839998, Poly_aftertouch_c, 0, 66, 0
1, 840029, Note_off_c, 0, 61, 49
1, 840173, Note_on_c, 0, 69, 79
1, 840186, Note_on_c, 0, 61, 69
1, 840188, Note_on_c, 0, 52, 62
1, 840192, Note_on_c, 0, 57, 70
1, 840195, Note_on_c, 0, 45, 60
1, 840198, Note_on_c, 0, 49, 53
1, 840223, Note_off_c, 0, 61, 57
1, 840230, Note_off_c, 0, 45, 62
1, 840230, Poly_aftertouch_c, 0, 45, 0
1, 840231, Note_off_c, 0, 52, 60
1, 840233, Control_c, 0, 67, 8
1, 840237, Note_off_c, 0, 49, 61
1, 840237, Poly_aftertouch_c, 0, 49, 0
1, 840346, Control_c, 0, 67, 12
1, 840362, Note_off_c, 0, 57, 46
1, 840362, Poly_aftertouch_c, 0, 57, 0
1, 840439, Control_c, 0, 64, 111
1, 840447, Note_on_c, 0, 62, 65
1, 840460, Control_c, 0, 64, 89
1, 840461, Control_c, 0, 67, 17
1, 840475, Note_on_c, 0, 50, 49
1, 840479, Control_c, 0, 64, 68
1, 840484, Note_on_c, 0, 38, 47
1, 840496, Control_c, 0, 64, 48
1, 840497, Control_c, 0, 67, 24
1, 840514, Control_c, 0, 64, 0
1, 840516, Control_c, 0, 67, 28
1, 840524, Note_off_c, 0, 64, 56
1, 840524, Poly_aftertouch_c, 0, 64, 0
1, 840533, Control_c, 0, 67, 33
1, 840546, Note_off_c, 0, 69, 54
1, 840546, Poly_aftertouch_c, 0, 69, 0
1, 840550, Control_c, 0, 67, 38
1, 840570, Control_c, 0, 67, 43
1, 840588, Control_c, 0, 67, 48
1, 840608, Control_c, 0, 67, 52
1, 840645, Control_c, 0, 67, 58
1, 840683, Control_c, 0, 67, 66
1, 840700, Control_c, 0, 67, 70
1, 840720, Control_c, 0, 67, 75
1, 840738, Control_c, 0, 67, 79
1, 840775, Control_c, 0, 67, 86
1, 840813, Control_c, 0, 67, 93
1, 840832, Control_c, 0, 64, 25
1, 840850, Control_c, 0, 64, 33
1, 840906, Control_c, 0, 67, 97
1, 840929, Note_off_c, 0, 62, 55
1, 840937, Note_off_c, 0, 50, 33
1, 840939, Note_off_c, 0, 38, 35
1, 840999, Control_c, 0, 64, 28
1, 841019, Control_c, 0, 67, 102
1, 841056, Control_c, 0, 67, 107
1, 841074, Control_c, 0, 64, 23
1, 841094, Control_c, 0, 67, 112
1, 841131, Control_c, 0, 67, 118
1, 841168, Control_c, 0, 67, 124
1, 841491, Note_on_c, 0, 62, 46
1, 841518, Note_on_c, 0, 50, 29
1, 841525, Note_on_c, 0, 38, 34
1, 841905, Note_off_c, 0, 62, 56
1, 841944, Note_off_c, 0, 38, 34
1, 841951, Note_off_c, 0, 50, 37
1, 842626, Note_on_c, 0, 62, 31
1, 842649, Note_on_c, 0, 50, 20
1, 842654, Note_on_c, 0, 38, 23
1, 842908, Control_c, 0, 64, 30
1, 842944, Control_c, 0, 64, 39
1, 842965, Control_c, 0, 64, 44
1, 842981, Control_c, 0, 64, 48
1, 843001, Control_c, 0, 64, 51
1, 843019, Control_c, 0, 64, 55
1, 843039, Control_c, 0, 64, 60
1, 843056, Control_c, 0, 64, 63
1, 843075, Control_c, 0, 64, 65
1, 843179, Poly_aftertouch_c, 0, 50, 24
1, 843186, Control_c, 0, 64, 63
1, 843191, Note_off_c, 0, 38, 34
1, 843202, Note_off_c, 0, 62, 39
1, 843225, Note_off_c, 0, 50, 19
1, 843225, Poly_aftertouch_c, 0, 50, 0
1, 843225, Control_c, 0, 64, 62
1, 843244, Control_c, 0, 64, 61
1, 843318, Control_c, 0, 64, 59
1, 843394, Control_c, 0, 64, 57
1, 843561, Control_c, 0, 64, 59
1, 843581, Control_c, 0, 64, 60
1, 843618, Control_c, 0, 64, 61
1, 843655, Control_c, 0, 64, 62
1, 843673, Control_c, 0, 64, 63
1, 843693, Control_c, 0, 64, 64
1, 843711, Control_c, 0, 64, 65
1, 843730, Control_c, 0, 64, 67
1, 843749, Control_c, 0, 64, 68
1, 843805, Control_c, 0, 64, 70
1, 843879, Control_c, 0, 64, 72
1, 843973, Control_c, 0, 64, 74
1, 844085, Control_c, 0, 64, 76
1, 844235, Control_c, 0, 64, 78
1, 844240, Note_on_c, 0, 71, 45
1, 844266, Note_on_c, 0, 56, 26
1, 844269, Note_on_c, 0, 65, 35
1, 844291, Control_c, 0, 64, 81
1, 844299, Note_on_c, 0, 50, 19
1, 844328, Control_c, 0, 64, 85
1, 844347, Control_c, 0, 64, 87
1, 844385, Control_c, 0, 64, 93
1, 844422, Control_c, 0, 64, 100
1, 844440, Control_c, 0, 64, 105
1, 844459, Control_c, 0, 64, 109
1, 844497, Control_c, 0, 64, 115
1, 844535, Control_c, 0, 64, 119
1, 844608, Control_c, 0, 64, 123
1, 844684, Control_c, 0, 64, 127
1, 844727, Note_off_c, 0, 50, 23
1, 844727, Poly_aftertouch_c, 0, 50, 0
1, 844734, Poly_aftertouch_c, 0, 56, 22
1, 844762, Note_off_c, 0, 56, 26
1, 844762, Poly_aftertouch_c, 0, 56, 0
1, 844772, Note_off_c, 0, 65, 29
1, 844786, Note_off_c, 0, 71, 19
1, 845085, Note_on_c, 0, 71, 53
1, 845098, Note_on_c, 0, 50, 38
1, 845106, Note_on_c, 0, 56, 36
1, 845133, Note_on_c, 0, 65, 34
1, 845216, Note_off_c, 0, 56, 44
1, 845216, Poly_aftertouch_c, 0, 56, 0
1, 845217, Note_off_c, 0, 65, 39
1, 845228, Note_off_c, 0, 50, 51
1, 845228, Poly_aftertouch_c, 0, 50, 0
1, 845247, Note_off_c, 0, 71, 46
1, 845363, Note_on_c, 0, 71, 61
1, 845395, Note_on_c, 0, 65, 38
1, 845409, Note_on_c, 0, 56, 33
1, 845415, Note_on_c, 0, 50, 40
1, 845895, Note_off_c, 0, 50, 30
1, 845895, Poly_aftertouch_c, 0, 50, 0
1, 846440, Note_on_c, 0, 50, 30
1, 846703, Control_c, 0, 67, 119
1, 846722, Control_c, 0, 67, 115
1, 846740, Control_c, 0, 67, 111
1, 846759, Control_c, 0, 67, 106
1, 846777, Control_c, 0, 67, 100
1, 846797, Control_c, 0, 67, 92
1, 846814, Control_c, 0, 67, 82
1, 846833, Control_c, 0, 67, 75
1, 846852, Control_c, 0, 67, 70
1, 846875, Note_off_c, 0, 50, 26
1, 846875, Poly_aftertouch_c, 0, 50, 0
1, 846891, Control_c, 0, 67, 63
1, 846923, Note_off_c, 0, 65, 39
1, 847077, Control_c, 0, 67, 69
1, 847096, Control_c, 0, 67, 74
1, 847114, Control_c, 0, 67, 80
1, 847151, Control_c, 0, 67, 86
1, 847189, Control_c, 0, 67, 90
1, 847226, Control_c, 0, 67, 95
1, 847264, Control_c, 0, 67, 99
1, 847339, Control_c, 0, 67, 103
1, 847413, Control_c, 0, 67, 107
1, 847487, Control_c, 0, 64, 122
1, 847501, Note_on_c, 0, 70, 59
1, 847506, Control_c, 0, 64, 118
1, 847526, Control_c, 0, 64, 113
1, 847542, Note_on_c, 0, 65, 40
1, 847542, Control_c, 0, 64, 108
1, 847554, Note_on_c, 0, 50, 33
1, 847561, Note_on_c, 0, 58, 28
1, 847561, Control_c, 0, 64, 103
1, 847582, Control_c, 0, 64, 99
1, 847601, Control_c, 0, 64, 94
1, 847603, Poly_aftertouch_c, 0, 56, 24
1, 847618, Control_c, 0, 64, 89
1, 847638, Control_c, 0, 64, 85
1, 847656, Control_c, 0, 64, 80
1, 847676, Control_c, 0, 64, 75
1, 847691, Note_off_c, 0, 56, 29
1, 847691, Poly_aftertouch_c, 0, 56, 0
1, 847693, Control_c, 0, 64, 69
1, 847712, Control_c, 0, 64, 65
1, 847732, Control_c, 0, 64, 63
1, 847734, Control_c, 0, 67, 111
1, 847751, Control_c, 0, 64, 62
1, 847844, Control_c, 0, 64, 64
1, 847862, Control_c, 0, 64, 66
1, 847881, Control_c, 0, 64, 69
1, 847895, Note_off_c, 0, 71, 28
1, 847899, Control_c, 0, 64, 72
1, 847919, Control_c, 0, 64, 75
1, 847937, Control_c, 0, 64, 79
1, 847956, Control_c, 0, 64, 83
1, 847974, Control_c, 0, 64, 88
1, 847993, Control_c, 0, 64, 93
1, 848011, Note_off_c, 0, 50, 25
1, 848011, Poly_aftertouch_c, 0, 50, 0
1, 848012, Control_c, 0, 64, 98
1, 848030, Control_c, 0, 64, 102
1, 848049, Control_c, 0, 64, 106
1, 848068, Control_c, 0, 64, 110
1, 848070, Control_c, 0, 67, 115
1, 848086, Control_c, 0, 64, 115
1, 848124, Control_c, 0, 64, 121
1, 848241, Note_off_c, 0, 65, 34
1, 848348, Control_c, 0, 67, 119
1, 848405, Control_c, 0, 64, 117
1, 848479, Control_c, 0, 64, 112
1, 848481, Poly_aftertouch_c, 0, 58, 22
1, 848516, Control_c, 0, 64, 108
1, 848534, Note_on_c, 0, 68, 56
1, 848539, Note_off_c, 0, 58, 24
1, 848539, Poly_aftertouch_c, 0, 58, 0
1, 848554, Control_c, 0, 64, 101
1, 848573, Control_c, 0, 64, 97
1, 848591, Note_on_c, 0, 50, 27
1, 848593, Control_c, 0, 64, 92
1, 848597, Note_on_c, 0, 59, 31
1, 848605, Note_on_c, 0, 65, 24
1, 848610, Control_c, 0, 64, 87
1, 848628, Control_c, 0, 64, 82
1, 848648, Control_c, 0, 64, 76
1, 848667, Control_c, 0, 64, 70
1, 848685, Control_c, 0, 64, 65
1, 848704, Control_c, 0, 64, 60
1, 848722, Control_c, 0, 64, 56
1, 848742, Control_c, 0, 64, 52
1, 848771, Note_off_c, 0, 70, 38
1, 848817, Control_c, 0, 64, 54
1, 848834, Control_c, 0, 64, 57
1, 848855, Control_c, 0, 64, 60
1, 848872, Control_c, 0, 64, 65
1, 848890, Control_c, 0, 64, 68
1, 848929, Control_c, 0, 64, 72
1, 848947, Control_c, 0, 64, 74
1, 848965, Control_c, 0, 64, 76
1, 848984, Control_c, 0, 64, 78
1, 849003, Control_c, 0, 64, 81
1, 849022, Control_c, 0, 64, 84
1, 849040, Control_c, 0, 64, 88
1, 849059, Control_c, 0, 64, 93
1, 849072, Note_off_c, 0, 65, 42
1, 849076, Control_c, 0, 64, 97
1, 849096, Control_c, 0, 64, 101
1, 849110, Note_off_c, 0, 50, 31
1, 849110, Poly_aftertouch_c, 0, 50, 0
1, 849115, Control_c, 0, 64, 106
1, 849134, Control_c, 0, 64, 111
1, 849152, Control_c, 0, 64, 116
1, 849172, Control_c, 0, 64, 120
1, 849209, Control_c, 0, 64, 124
1, 849376, Note_off_c, 0, 68, 38
1, 849455, Poly_aftertouch_c, 0, 59, 24
1, 849563, Control_c, 0, 64, 120
1, 849638, Control_c, 0, 64, 114
1, 849662, Note_on_c, 0, 67, 42
1, 849675, Control_c, 0, 64, 109
1, 849686, Note_on_c, 0, 58, 30
1, 849690, Note_on_c, 0, 63, 37
1, 849693, Control_c, 0, 64, 105
1, 849705, Note_on_c, 0, 51, 29
1, 849712, Control_c, 0, 64, 100
1, 849732, Control_c, 0, 64, 95
1, 849752, Control_c, 0, 64, 90
1, 849769, Control_c, 0, 64, 83
1, 849789, Control_c, 0, 64, 78
1, 849797, Poly_aftertouch_c, 0, 59, 22
1, 849807, Control_c, 0, 64, 73
1, 849825, Note_off_c, 0, 59, 19
1, 849825, Poly_aftertouch_c, 0, 59, 0
1, 849826, Control_c, 0, 64, 69
1, 849843, Control_c, 0, 64, 63
1, 849864, Control_c, 0, 64, 58
1, 849882, Control_c, 0, 64, 53
1, 849900, Control_c, 0, 64, 48
1, 849919, Control_c, 0, 64, 44
1, 849975, Control_c, 0, 64, 48
1, 849993, Control_c, 0, 64, 52
1, 850013, Control_c, 0, 64, 58
1, 850031, Control_c, 0, 64, 64
1, 850050, Control_c, 0, 64, 68
1, 850069, Control_c, 0, 64, 70
1, 850088, Control_c, 0, 64, 72
1, 850089, Control_c, 0, 67, 112
1, 850106, Control_c, 0, 67, 108
1, 850124, Control_c, 0, 64, 76
1, 850125, Control_c, 0, 67, 103
1, 850143, Control_c, 0, 64, 79
1, 850144, Control_c, 0, 67, 96
1, 850149, Note_off_c, 0, 63, 50
1, 850161, Note_off_c, 0, 58, 41
1, 850161, Poly_aftertouch_c, 0, 58, 0
1, 850162, Control_c, 0, 64, 82
1, 850163, Control_c, 0, 67, 87
1, 850181, Control_c, 0, 64, 85
1, 850184, Control_c, 0, 67, 77
1, 850200, Control_c, 0, 64, 88
1, 850201, Control_c, 0, 67, 69
1, 850218, Control_c, 0, 67, 61
1, 850222, Note_off_c, 0, 51, 39
1, 850237, Control_c, 0, 64, 93
1, 850238, Control_c, 0, 67, 54
1, 850248, Note_off_c, 0, 67, 29
1, 850255, Control_c, 0, 67, 47
1, 850275, Control_c, 0, 64, 97
1, 850276, Control_c, 0, 67, 39
1, 850293, Control_c, 0, 67, 29
1, 850311, Control_c, 0, 67, 20
1, 850332, Control_c, 0, 67, 10
1, 850461, Control_c, 0, 67, 0
1, 850606, Note_on_c, 0, 71, 80
1, 850610, Control_c, 0, 64, 91
1, 850630, Control_c, 0, 64, 85
1, 850631, Note_on_c, 0, 65, 62
1, 850640, Note_on_c, 0, 50, 46
1, 850644, Note_on_c, 0, 56, 46
1, 850648, Control_c, 0, 64, 78
1, 850667, Control_c, 0, 64, 75
1, 850704, Control_c, 0, 64, 77
1, 850723, Control_c, 0, 64, 79
1, 850743, Control_c, 0, 64, 83
1, 850760, Control_c, 0, 64, 88
1, 850777, Note_off_c, 0, 50, 55
1, 850777, Poly_aftertouch_c, 0, 50, 0
1, 850779, Control_c, 0, 64, 93
1, 850790, Note_off_c, 0, 56, 53
1, 850790, Poly_aftertouch_c, 0, 56, 0
1, 850796, Control_c, 0, 64, 97
1, 850824, Note_off_c, 0, 71, 52
1, 850827, Note_off_c, 0, 65, 38
1, 850835, Control_c, 0, 64, 102
1, 850938, Note_on_c, 0, 71, 74
1, 850962, Note_on_c, 0, 65, 62
1, 850976, Note_on_c, 0, 56, 43
1, 850982, Note_on_c, 0, 50, 40
1, 850985, Control_c, 0, 64, 98
1, 851023, Control_c, 0, 64, 94
1, 851040, Control_c, 0, 64, 90
1, 851060, Control_c, 0, 64, 85
1, 851079, Control_c, 0, 64, 80
1, 851098, Control_c, 0, 64, 75
1, 851099, Control_c, 0, 67, 8
1, 851115, Control_c, 0, 64, 71
1, 851135, Control_c, 0, 64, 69
1, 851153, Control_c, 0, 64, 67
1, 851172, Control_c, 0, 64, 66
1, 851173, Control_c, 0, 67, 12
1, 851210, Control_c, 0, 64, 65
1, 851248, Control_c, 0, 67, 16
1, 851303, Control_c, 0, 64, 66
1, 851303, Control_c, 0, 67, 20
1, 851322, Control_c, 0, 64, 67
1, 851360, Control_c, 0, 64, 71
1, 851361, Control_c, 0, 67, 26
1, 851377, Control_c, 0, 64, 75
1, 851396, Control_c, 0, 64, 78
1, 851397, Control_c, 0, 67, 32
1, 851415, Control_c, 0, 64, 82
1, 851434, Control_c, 0, 64, 86
1, 851435, Control_c, 0, 67, 36
1, 851452, Control_c, 0, 64, 91
1, 851471, Control_c, 0, 64, 95
1, 851490, Control_c, 0, 67, 41
1, 851510, Control_c, 0, 64, 101
1, 851527, Control_c, 0, 67, 45
1, 851545, Control_c, 0, 64, 106
1, 851565, Control_c, 0, 67, 50
1, 851582, Control_c, 0, 64, 111
1, 851602, Control_c, 0, 67, 56
1, 851640, Control_c, 0, 64, 116
1, 851641, Control_c, 0, 67, 63
1, 851678, Control_c, 0, 67, 69
1, 851714, Control_c, 0, 67, 74
1, 851752, Control_c, 0, 67, 79
1, 851770, Note_off_c, 0, 50, 34
1, 851770, Poly_aftertouch_c, 0, 50, 0
1, 851789, Control_c, 0, 67, 84
1, 851827, Control_c, 0, 67, 89
1, 851864, Control_c, 0, 67, 94
1, 851902, Control_c, 0, 67, 99
1, 851939, Control_c, 0, 67, 105
1, 851976, Control_c, 0, 67, 113
1, 851994, Control_c, 0, 67, 117
1, 852016, Note_on_c, 0, 50, 47
1, 852032, Control_c, 0, 67, 123
1, 852069, Control_c, 0, 67, 127
1, 852125, Control_c, 0, 64, 120
1, 852144, Control_c, 0, 64, 124
1, 852238, Control_c, 0, 67, 123
1, 852294, Control_c, 0, 67, 118
1, 852331, Control_c, 0, 67, 114
1, 852368, Control_c, 0, 67, 107
1, 852386, Control_c, 0, 67, 103
1, 852406, Control_c, 0, 67, 99
1, 852424, Control_c, 0, 67, 94
1, 852444, Control_c, 0, 67, 89
1, 852461, Control_c, 0, 67, 84
1, 852481, Control_c, 0, 67, 80
1, 852518, Control_c, 0, 67, 73
1, 852536, Control_c, 0, 67, 69
1, 852574, Control_c, 0, 67, 62
1, 852611, Control_c, 0, 67, 56
1, 852649, Control_c, 0, 67, 50
1, 852654, Note_off_c, 0, 50, 28
1, 852654, Poly_aftertouch_c, 0, 50, 0
1, 852664, Note_off_c, 0, 65, 33
1, 852686, Control_c, 0, 67, 44
1, 852723, Control_c, 0, 67, 38
1, 852761, Control_c, 0, 67, 33
1, 853094, Note_on_c, 0, 70, 62
1, 853121, Note_on_c, 0, 58, 45
1, 853126, Note_on_c, 0, 50, 43
1, 853133, Note_on_c, 0, 65, 47
1, 853173, Control_c, 0, 64, 111
1, 853191, Control_c, 0, 64, 97
1, 853210, Control_c, 0, 64, 84
1, 853230, Control_c, 0, 64, 75
1, 853235, Note_off_c, 0, 56, 36
1, 853235, Poly_aftertouch_c, 0, 56, 0
1, 853247, Control_c, 0, 64, 70
1, 853322, Control_c, 0, 64, 73
1, 853342, Control_c, 0, 64, 76
1, 853344, Control_c, 0, 67, 28
1, 853360, Control_c, 0, 64, 80
1, 853379, Control_c, 0, 64, 86
1, 853380, Control_c, 0, 67, 21
1, 853396, Control_c, 0, 64, 93
1, 853397, Control_c, 0, 67, 17
1, 853416, Control_c, 0, 64, 101
1, 853417, Control_c, 0, 67, 12
1, 853435, Control_c, 0, 64, 108
1, 853454, Control_c, 0, 64, 114
1, 853471, Control_c, 0, 64, 120
1, 853490, Control_c, 0, 64, 127
1, 853547, Control_c, 0, 67, 0
1, 853567, Note_off_c, 0, 71, 53
1, 853653, Note_off_c, 0, 58, 34
1, 853653, Poly_aftertouch_c, 0, 58, 0
1, 853708, Poly_aftertouch_c, 0, 50, 24
1, 853812, Note_off_c, 0, 65, 40
1, 853814, Note_off_c, 0, 50, 28
1, 853814, Poly_aftertouch_c, 0, 50, 0
1, 853941, Note_on_c, 0, 59, 58
1, 853944, Note_on_c, 0, 50, 50
1, 853946, Note_on_c, 0, 68, 70
1, 853952, Note_on_c, 0, 65, 59
1, 854008, Note_off_c, 0, 50, 57
1, 854008, Poly_aftertouch_c, 0, 50, 0
1, 854057, Note_off_c, 0, 65, 50
1, 854203, Note_off_c, 0, 59, 32
1, 854203, Poly_aftertouch_c, 0, 59, 0
1, 854244, Note_off_c, 0, 70, 30
1, 854253, Note_on_c, 0, 67, 88
1, 854256, Control_c, 0, 64, 121
1, 854258, Note_on_c, 0, 58, 90
1, 854259, Note_on_c, 0, 51, 88
1, 854260, Note_on_c, 0, 63, 88
1, 854276, Control_c, 0, 64, 95
1, 854295, Control_c, 0, 64, 67
1, 854313, Control_c, 0, 64, 36
1, 854331, Control_c, 0, 64, 0
1, 854398, Note_off_c, 0, 68, 41
1, 854406, Control_c, 0, 64, 10
1, 854426, Control_c, 0, 64, 41
1, 854444, Control_c, 0, 64, 61
1, 854462, Control_c, 0, 64, 75
1, 854481, Control_c, 0, 64, 85
1, 854500, Control_c, 0, 64, 97
1, 854518, Control_c, 0, 64, 112
1, 854537, Control_c, 0, 64, 127
1, 854545, Note_off_c, 0, 58, 49
1, 854545, Poly_aftertouch_c, 0, 58, 0
1, 854604, Note_off_c, 0, 67, 51
1, 854606, Note_off_c, 0, 63, 38
1, 854629, Note_off_c, 0, 51, 33
1, 855135, Note_on_c, 0, 71, 101
1, 855140, Note_on_c, 0, 65, 96
1, 855147, Note_on_c, 0, 56, 82
1, 855149, Note_on_c, 0, 50, 81
1, 855257, Note_off_c, 0, 50, 57
1, 855257, Poly_aftertouch_c, 0, 50, 0
1, 855281, Note_off_c, 0, 65, 57
1, 855282, Note_off_c, 0, 56, 56
1, 855282, Poly_aftertouch_c, 0, 56, 0
1, 855289, Note_off_c, 0, 71, 54
1, 855391, Note_on_c, 0, 71, 102
1, 855393, Note_on_c, 0, 65, 97
1, 855397, Note_on_c, 0, 56, 95
1, 855400, Note_on_c, 0, 50, 85
1, 855435, Control_c, 0, 64, 101
1, 855454, Control_c, 0, 64, 69
1, 855472, Control_c, 0, 64, 37
1, 855491, Control_c, 0, 64, 0
1, 855603, Control_c, 0, 64, 29
1, 855622, Control_c, 0, 64, 43
1, 855640, Control_c, 0, 64, 54
1, 855660, Control_c, 0, 64, 63
1, 855678, Control_c, 0, 64, 70
1, 855697, Control_c, 0, 64, 75
1, 855716, Control_c, 0, 64, 79
1, 855734, Control_c, 0, 64, 83
1, 855753, Control_c, 0, 64, 87
1, 855772, Control_c, 0, 64, 92
1, 855791, Control_c, 0, 64, 98
1, 855808, Control_c, 0, 64, 105
1, 855829, Control_c, 0, 64, 114
1, 855846, Control_c, 0, 64, 121
1, 855865, Control_c, 0, 64, 127
1, 855869, Poly_aftertouch_c, 0, 50, 20
1, 855881, Note_off_c, 0, 50, 24
1, 855881, Poly_aftertouch_c, 0, 50, 0
1, 855886, Poly_aftertouch_c, 0, 56, 22
1, 855928, Note_off_c, 0, 65, 29
1, 855939, Note_off_c, 0, 56, 24
1, 855939, Poly_aftertouch_c, 0, 56, 0
1, 855949, Note_off_c, 0, 71, 44
1, 856150, Note_on_c, 0, 71, 98
1, 856151, Note_on_c, 0, 65, 93
1, 856161, Note_on_c, 0, 56, 85
1, 856171, Note_on_c, 0, 50, 76
1, 856245, Note_off_c, 0, 50, 57
1, 856245, Poly_aftertouch_c, 0, 50, 0
1, 856270, Note_off_c, 0, 56, 58
1, 856270, Poly_aftertouch_c, 0, 56, 0
1, 856276, Note_off_c, 0, 65, 57
1, 856281, Note_off_c, 0, 71, 52
1, 856391, Note_on_c, 0, 71, 105
1, 856393, Note_on_c, 0, 65, 101
1, 856393, Note_on_c, 0, 56, 96
1, 856397, Note_on_c, 0, 50, 88
1, 856444, Control_c, 0, 64, 109
1, 856464, Control_c, 0, 64, 82
1, 856482, Control_c, 0, 64, 58
1, 856501, Control_c, 0, 64, 44
1, 856520, Control_c, 0, 64, 38
1, 856538, Control_c, 0, 64, 40
1, 856558, Control_c, 0, 64, 48
1, 856575, Control_c, 0, 64, 61
1, 856595, Control_c, 0, 64, 73
1, 856614, Control_c, 0, 64, 82
1, 856631, Control_c, 0, 64, 91
1, 856651, Control_c, 0, 64, 99
1, 856657, Note_off_c, 0, 50, 19
1, 856657, Poly_aftertouch_c, 0, 50, 0
1, 856670, Control_c, 0, 64, 107
1, 856687, Control_c, 0, 64, 113
1, 856707, Control_c, 0, 64, 118
1, 856725, Control_c, 0, 64, 122
1, 856744, Control_c, 0, 64, 126
1, 856812, Note_off_c, 0, 65, 34
1, 856841, Note_off_c, 0, 71, 39
1, 856864, Poly_aftertouch_c, 0, 56, 20
1, 856904, Note_off_c, 0, 56, 26
1, 856904, Poly_aftertouch_c, 0, 56, 0
1, 857155, Note_on_c, 0, 71, 101
1, 857158, Note_on_c, 0, 65, 96
1, 857164, Note_on_c, 0, 56, 90
1, 857181, Note_on_c, 0, 50, 74
1, 857201, Note_on_c, 0, 67, 42
1, 857202, Note_off_c, 0, 67, 127
1, 857251, Note_off_c, 0, 50, 57
1, 857251, Poly_aftertouch_c, 0, 50, 0
1, 857339, Note_off_c, 0, 65, 50
1, 857355, Note_off_c, 0, 56, 29
1, 857355, Poly_aftertouch_c, 0, 56, 0
1, 857359, Note_off_c, 0, 71, 53
1, 857425, Note_on_c, 0, 70, 98
1, 857431, Note_on_c, 0, 65, 93
1, 857431, Note_on_c, 0, 58, 101
1, 857436, Note_on_c, 0, 50, 90
1, 857491, Control_c, 0, 64, 104
1, 857511, Control_c, 0, 64, 73
1, 857529, Control_c, 0, 64, 39
1, 857548, Control_c, 0, 64, 0
1, 857641, Control_c, 0, 64, 11
1, 857661, Control_c, 0, 64, 39
1, 857679, Control_c, 0, 64, 55
1, 857697, Control_c, 0, 64, 68
1, 857716, Control_c, 0, 64, 75
1, 857736, Control_c, 0, 64, 80
1, 857753, Control_c, 0, 64, 85
1, 857773, Control_c, 0, 64, 90
1, 857791, Control_c, 0, 64, 97
1, 857809, Control_c, 0, 64, 105
1, 857828, Control_c, 0, 64, 114
1, 857847, Control_c, 0, 64, 122
1, 857865, Control_c, 0, 64, 127
1, 857866, Poly_aftertouch_c, 0, 54, 127
1, 857964, Note_off_c, 0, 58, 43
1, 857964, Poly_aftertouch_c, 0, 58, 0
1, 857972, Poly_aftertouch_c, 0, 54, 0
1, 858070, Note_off_c, 0, 50, 20
1, 858070, Poly_aftertouch_c, 0, 50, 0
1, 858091, Note_off_c, 0, 65, 52
1, 858240, Note_on_c, 0, 59, 91
1, 858243, Note_on_c, 0, 68, 97
1, 858244, Note_on_c, 0, 50, 78
1, 858246, Note_on_c, 0, 65, 91
1, 858277, Note_off_c, 0, 70, 66
1, 858288, Note_off_c, 0, 50, 61
1, 858288, Poly_aftertouch_c, 0, 50, 0
1, 858299, Note_off_c, 0, 65, 64
1, 858331, Note_off_c, 0, 59, 54
1, 858331, Poly_aftertouch_c, 0, 59, 0
1, 858475, Note_off_c, 0, 68, 58
1, 858501, Control_c, 0, 64, 107
1, 858520, Control_c, 0, 64, 68
1, 858538, Control_c, 0, 64, 0
1, 858543, Note_on_c, 0, 67, 95
1, 858545, Note_on_c, 0, 58, 96
1, 858547, Note_on_c, 0, 63, 93
1, 858547, Note_on_c, 0, 51, 91
1, 858762, Control_c, 0, 64, 22
1, 858782, Control_c, 0, 64, 44
1, 858800, Control_c, 0, 64, 55
1, 858820, Control_c, 0, 64, 64
1, 858821, Note_off_c, 0, 63, 57
1, 858823, Note_off_c, 0, 58, 59
1, 858823, Poly_aftertouch_c, 0, 58, 0
1, 858838, Control_c, 0, 64, 73
1, 858848, Note_off_c, 0, 67, 62
1, 858856, Control_c, 0, 64, 82
1, 858876, Control_c, 0, 64, 92
1, 858894, Control_c, 0, 64, 100
1, 858905, Note_off_c, 0, 51, 57
1, 858910, Control_c, 0, 64, 106
1, 858932, Control_c, 0, 64, 111
1, 858969, Control_c, 0, 64, 116
1, 859082, Control_c, 0, 64, 112
1, 859137, Control_c, 0, 64, 107
1, 859174, Control_c, 0, 64, 101
1, 859194, Control_c, 0, 64, 96
1, 859212, Control_c, 0, 64, 92
1, 859230, Control_c, 0, 64, 88
1, 859249, Control_c, 0, 64, 83
1, 859269, Control_c, 0, 64, 78
1, 859305, Control_c, 0, 64, 76
1, 859362, Control_c, 0, 64, 73
1, 859381, Control_c, 0, 64, 71
1, 859419, Control_c, 0, 64, 68
1, 859436, Control_c, 0, 64, 66
1, 859456, Control_c, 0, 64, 64
1, 859474, Control_c, 0, 64, 63
1, 859493, Control_c, 0, 64, 61
1, 859512, Control_c, 0, 64, 60
1, 859530, Control_c, 0, 64, 58
1, 859549, Control_c, 0, 64, 56
1, 859586, Control_c, 0, 64, 53
1, 859605, Control_c, 0, 64, 50
1, 859625, Control_c, 0, 64, 47
1, 859642, Control_c, 0, 64, 42
1, 859680, Control_c, 0, 64, 37
1, 859844, Note_on_c, 0, 64, 96
1, 859855, Note_on_c, 0, 52, 89
1, 859892, Note_on_c, 0, 63, 44
1, 859932, Note_off_c, 0, 63, 55
1, 859979, Poly_aftertouch_c, 0, 44, 0
1, 860241, Control_c, 0, 64, 33
1, 860745, Control_c, 0, 67, 8
1, 860839, Control_c, 0, 67, 12
1, 860952, Control_c, 0, 64, 37
1, 861063, Control_c, 0, 64, 40
1, 861119, Control_c, 0, 64, 42
1, 861213, Control_c, 0, 64, 44
1, 861455, Control_c, 0, 64, 46
1, 861549, Control_c, 0, 64, 48
1, 861606, Control_c, 0, 64, 50
1, 861774, Control_c, 0, 64, 52
1, 861812, Control_c, 0, 67, 16
1, 861830, Control_c, 0, 64, 54
1, 861848, Control_c, 0, 67, 22
1, 861887, Control_c, 0, 67, 30
1, 861923, Control_c, 0, 64, 56
1, 861924, Control_c, 0, 67, 37
1, 861960, Control_c, 0, 67, 42
1, 861998, Control_c, 0, 67, 47
1, 862050, Note_on_c, 0, 63, 60
1, 862069, Note_on_c, 0, 51, 58
1, 862093, Control_c, 0, 64, 58
1, 862110, Control_c, 0, 64, 60
1, 862147, Control_c, 0, 64, 62
1, 862167, Control_c, 0, 64, 64
1, 862168, Control_c, 0, 67, 43
1, 862184, Control_c, 0, 64, 65
1, 862204, Control_c, 0, 64, 67
1, 862222, Control_c, 0, 64, 68
1, 862222, Control_c, 0, 67, 35
1, 862243, Poly_aftertouch_c, 0, 44, 0
1, 862243, Control_c, 0, 67, 29
1, 862254, Note_off_c, 0, 52, 55
1, 862260, Control_c, 0, 67, 23
1, 862278, Control_c, 0, 67, 17
1, 862297, Control_c, 0, 67, 11
1, 862354, Note_off_c, 0, 64, 54
1, 862354, Poly_aftertouch_c, 0, 64, 0
1, 862373, Control_c, 0, 64, 70
1, 862390, Note_on_c, 0, 61, 72
1, 862410, Control_c, 0, 64, 73
1, 862418, Note_on_c, 0, 49, 63
1, 862447, Control_c, 0, 64, 76
1, 862466, Control_c, 0, 67, 0
1, 862484, Control_c, 0, 64, 79
1, 862490, Note_off_c, 0, 51, 59
1, 862503, Control_c, 0, 64, 81
1, 862540, Control_c, 0, 64, 83
1, 862615, Control_c, 0, 64, 85
1, 862642, Note_off_c, 0, 49, 59
1, 862642, Poly_aftertouch_c, 0, 49, 0
1, 862652, Control_c, 0, 64, 88
1, 862659, Note_on_c, 0, 59, 78
1, 862667, Note_on_c, 0, 47, 70
1, 862689, Note_off_c, 0, 63, 60
1, 862689, Control_c, 0, 64, 92
1, 862727, Control_c, 0, 64, 99
1, 862733, Note_off_c, 0, 61, 64
1, 862745, Control_c, 0, 64, 105
1, 862765, Control_c, 0, 64, 111
1, 862784, Control_c, 0, 64, 118
1, 862802, Control_c, 0, 64, 124
1, 862863, Note_off_c, 0, 47, 36
1, 862863, Poly_aftertouch_c, 0, 47, 0
1, 862938, Note_on_c, 0, 46, 77
1, 862939, Note_on_c, 0, 58, 80
1, 863010, Note_off_c, 0, 59, 54
1, 863010, Poly_aftertouch_c, 0, 59, 0
1, 863017, Note_off_c, 0, 46, 60
1, 863017, Poly_aftertouch_c, 0, 46, 0
1, 863316, Note_on_c, 0, 56, 81
1, 863321, Note_on_c, 0, 44, 79
1, 863328, Note_on_c, 0, 32, 77
1, 863362, Control_c, 0, 67, 8
1, 863400, Control_c, 0, 64, 113
1, 863419, Control_c, 0, 64, 98
1, 863419, Control_c, 0, 67, 12
1, 863437, Control_c, 0, 64, 85
1, 863457, Control_c, 0, 64, 73
1, 863458, Control_c, 0, 67, 18
1, 863468, Note_off_c, 0, 58, 47
1, 863468, Poly_aftertouch_c, 0, 58, 0
1, 863474, Control_c, 0, 64, 64
1, 863475, Control_c, 0, 67, 23
1, 863495, Control_c, 0, 64, 58
1, 863496, Control_c, 0, 67, 28
1, 863514, Control_c, 0, 64, 52
1, 863515, Control_c, 0, 67, 33
1, 863531, Control_c, 0, 64, 46
1, 863532, Control_c, 0, 67, 38
1, 863552, Control_c, 0, 64, 37
1, 863553, Control_c, 0, 67, 44
1, 863570, Control_c, 0, 64, 27
1, 863571, Control_c, 0, 67, 49
1, 863588, Control_c, 0, 64, 14
1, 863589, Control_c, 0, 67, 55
1, 863606, Control_c, 0, 67, 60
1, 863625, Control_c, 0, 64, 0
1, 863626, Control_c, 0, 67, 65
1, 863662, Control_c, 0, 67, 72
1, 863680, Control_c, 0, 67, 76
1, 863700, Control_c, 0, 67, 81
1, 863718, Control_c, 0, 67, 85
1, 863737, Control_c, 0, 67, 90
1, 863755, Control_c, 0, 67, 96
1, 863775, Control_c, 0, 67, 102
1, 863793, Control_c, 0, 67, 107
1, 863812, Control_c, 0, 67, 113
1, 863830, Control_c, 0, 67, 119
1, 863849, Control_c, 0, 67, 124
1, 863961, Control_c, 0, 64, 8
1, 863982, Control_c, 0, 64, 12
1, 863998, Control_c, 0, 64, 17
1, 864017, Control_c, 0, 64, 23
1, 864037, Control_c, 0, 64, 30
1, 864055, Control_c, 0, 64, 39
1, 864074, Control_c, 0, 64, 50
1, 864092, Control_c, 0, 64, 60
1, 864112, Control_c, 0, 64, 69
1, 864130, Control_c, 0, 64, 76
1, 864149, Control_c, 0, 64, 82
1, 864167, Control_c, 0, 64, 87
1, 864186, Control_c, 0, 64, 93
1, 864203, Control_c, 0, 64, 100
1, 864223, Control_c, 0, 64, 105
1, 864261, Control_c, 0, 64, 110
1, 864275, Note_off_c, 0, 56, 28
1, 864275, Poly_aftertouch_c, 0, 56, 0
1, 864484, Control_c, 0, 64, 105
1, 864506, Note_on_c, 0, 63, 48
1, 864511, Note_on_c, 0, 56, 39
1, 864523, Control_c, 0, 64, 100
1, 864526, Note_on_c, 0, 59, 44
1, 864532, Note_on_c, 0, 51, 43
1, 864559, Control_c, 0, 64, 90
1, 864579, Control_c, 0, 64, 83
1, 864598, Control_c, 0, 64, 74
1, 864615, Control_c, 0, 64, 65
1, 864635, Control_c, 0, 64, 57
1, 864654, Control_c, 0, 64, 50
1, 864672, Control_c, 0, 64, 45
1, 864710, Control_c, 0, 64, 48
1, 864728, Control_c, 0, 64, 52
1, 864747, Control_c, 0, 64, 56
1, 864765, Control_c, 0, 64, 62
1, 864785, Control_c, 0, 64, 66
1, 864788, Poly_aftertouch_c, 0, 59, 24
1, 864802, Control_c, 0, 64, 69
1, 864822, Control_c, 0, 64, 71
1, 864840, Control_c, 0, 64, 74
1, 864855, Note_off_c, 0, 59, 33
1, 864855, Poly_aftertouch_c, 0, 59, 0
1, 864858, Control_c, 0, 64, 76
1, 864860, Note_off_c, 0, 51, 33
1, 864864, Note_off_c, 0, 63, 32
1, 864876, Note_off_c, 0, 56, 33
1, 864876, Poly_aftertouch_c, 0, 56, 0
1, 864896, Control_c, 0, 64, 78
1, 865270, Control_c, 0, 64, 80
1, 865307, Note_on_c, 0, 63, 42
1, 865313, Note_on_c, 0, 51, 34
1, 865315, Note_on_c, 0, 56, 42
1, 865319, Note_on_c, 0, 59, 38
1, 865326, Control_c, 0, 64, 83
1, 865347, Control_c, 0, 64, 86
1, 865364, Control_c, 0, 64, 88
1, 865393, Note_off_c, 0, 32, 51
1, 865422, Note_off_c, 0, 56, 51
1, 865422, Poly_aftertouch_c, 0, 56, 0
1, 865438, Note_off_c, 0, 51, 39
1, 865455, Note_off_c, 0, 59, 38
1, 865455, Poly_aftertouch_c, 0, 59, 0
1, 865461, Note_off_c, 0, 63, 37
1, 865591, Note_on_c, 0, 56, 46
1, 865591, Note_on_c, 0, 51, 48
1, 865592, Note_on_c, 0, 59, 51
1, 865594, Note_on_c, 0, 63, 52
1, 865609, Control_c, 0, 64, 86
1, 865613, Note_on_c, 0, 32, 46
1, 865625, Control_c, 0, 64, 82
1, 865645, Control_c, 0, 64, 74
1, 865664, Control_c, 0, 64, 66
1, 865682, Control_c, 0, 64, 62
1, 865721, Control_c, 0, 64, 63
1, 865738, Control_c, 0, 64, 66
1, 865756, Control_c, 0, 64, 71
1, 865776, Control_c, 0, 64, 77
1, 865794, Control_c, 0, 64, 81
1, 865813, Control_c, 0, 64, 86
1, 865831, Control_c, 0, 64, 90
1, 865869, Control_c, 0, 64, 96
1, 865906, Control_c, 0, 64, 100
1, 865913, Note_off_c, 0, 51, 29
1, 865932, Note_off_c, 0, 56, 30
1, 865932, Poly_aftertouch_c, 0, 56, 0
1, 865950, Note_off_c, 0, 63, 27
1, 865962, Note_off_c, 0, 59, 27
1, 865962, Poly_aftertouch_c, 0, 59, 0
1, 866018, Control_c, 0, 64, 104
1, 866362, Note_on_c, 0, 56, 51
1, 866367, Note_on_c, 0, 59, 43
1, 866371, Note_on_c, 0, 51, 46
1, 866374, Note_on_c, 0, 63, 42
1, 866461, Note_off_c, 0, 59, 58
1, 866461, Poly_aftertouch_c, 0, 59, 0
1, 866493, Note_off_c, 0, 63, 46
1, 866504, Control_c, 0, 64, 100
1, 866511, Note_off_c, 0, 56, 54
1, 866511, Poly_aftertouch_c, 0, 56, 0
1, 866547, Note_off_c, 0, 51, 29
1, 866598, Control_c, 0, 64, 96
1, 866635, Control_c, 0, 64, 92
1, 866645, Note_on_c, 0, 58, 53
1, 866653, Note_on_c, 0, 63, 48
1, 866653, Note_on_c, 0, 55, 52
1, 866670, Poly_aftertouch_c, 0, 51, 127
1, 866672, Control_c, 0, 64, 86
1, 866674, Note_on_c, 0, 51, 15
1, 866691, Control_c, 0, 64, 81
1, 866711, Control_c, 0, 64, 74
1, 866729, Control_c, 0, 64, 67
1, 866748, Control_c, 0, 64, 57
1, 866766, Control_c, 0, 64, 43
1, 866785, Control_c, 0, 64, 20
1, 866822, Control_c, 0, 64, 9
1, 866841, Control_c, 0, 64, 21
1, 866861, Control_c, 0, 64, 32
1, 866879, Control_c, 0, 64, 46
1, 866897, Control_c, 0, 64, 59
1, 866915, Control_c, 0, 64, 69
1, 866935, Control_c, 0, 64, 75
1, 866952, Control_c, 0, 64, 80
1, 866972, Control_c, 0, 64, 84
1, 866991, Control_c, 0, 64, 88
1, 867009, Control_c, 0, 64, 92
1, 867045, Note_off_c, 0, 58, 37
1, 867045, Poly_aftertouch_c, 0, 58, 0
1, 867047, Control_c, 0, 64, 99
1, 867084, Control_c, 0, 64, 105
1, 867090, Note_off_c, 0, 55, 51
1, 867090, Poly_aftertouch_c, 0, 55, 0
1, 867113, Note_off_c, 0, 32, 50
1, 867198, Poly_aftertouch_c, 0, 51, 24
1, 867201, Note_off_c, 0, 63, 28
1, 867231, Note_off_c, 0, 51, 19
1, 867231, Poly_aftertouch_c, 0, 51, 0
1, 867446, Note_on_c, 0, 56, 54
1, 867450, Note_on_c, 0, 59, 52
1, 867454, Note_on_c, 0, 63, 45
1, 867454, Note_on_c, 0, 51, 45
1, 867499, Poly_aftertouch_c, 0, 44, 20
1, 867506, Note_off_c, 0, 44, 19
1, 867506, Poly_aftertouch_c, 0, 44, 0
1, 867520, Note_off_c, 0, 56, 58
1, 867520, Poly_aftertouch_c, 0, 56, 0
1, 867532, Control_c, 0, 64, 101
1, 867536, Note_off_c, 0, 63, 47
1, 867575, Note_off_c, 0, 51, 47
1, 867575, Poly_aftertouch_c, 0, 51, 0
1, 867607, Note_off_c, 0, 59, 51
1, 867607, Poly_aftertouch_c, 0, 59, 0
1, 867663, Control_c, 0, 64, 96
1, 867701, Control_c, 0, 64, 92
1, 867720, Control_c, 0, 64, 88
1, 867729, Note_on_c, 0, 61, 49
1, 867739, Control_c, 0, 64, 83
1, 867745, Note_on_c, 0, 58, 48
1, 867746, Note_on_c, 0, 39, 50
1, 867748, Note_on_c, 0, 51, 47
1, 867757, Note_on_c, 0, 63, 41
1, 867757, Control_c, 0, 64, 77
1, 867776, Control_c, 0, 64, 72
1, 867795, Control_c, 0, 64, 67
1, 867814, Control_c, 0, 64, 59
1, 867832, Control_c, 0, 64, 47
1, 867851, Control_c, 0, 64, 18
1, 867870, Control_c, 0, 64, 0
1, 867981, Control_c, 0, 64, 16
1, 868000, Control_c, 0, 64, 31
1, 868020, Control_c, 0, 64, 42
1, 868037, Control_c, 0, 64, 50
1, 868056, Control_c, 0, 64, 56
1, 868077, Control_c, 0, 64, 63
1, 868093, Control_c, 0, 64, 68
1, 868113, Control_c, 0, 64, 70
1, 868131, Control_c, 0, 64, 72
1, 868164, Note_off_c, 0, 39, 50
1, 868188, Control_c, 0, 64, 74
1, 868374, Control_c, 0, 64, 72
1, 868412, Control_c, 0, 64, 70
1, 868467, Control_c, 0, 64, 67
1, 868487, Control_c, 0, 64, 64
1, 868495, Note_on_c, 0, 39, 53
1, 868505, Control_c, 0, 64, 58
1, 868524, Control_c, 0, 64, 52
1, 868543, Control_c, 0, 64, 49
1, 868580, Control_c, 0, 64, 52
1, 868599, Control_c, 0, 64, 56
1, 868618, Control_c, 0, 64, 61
1, 868635, Control_c, 0, 64, 65
1, 868655, Control_c, 0, 64, 66
1, 868665, Note_off_c, 0, 39, 48
1, 868749, Control_c, 0, 64, 65
1, 868766, Control_c, 0, 64, 64
1, 868767, Note_on_c, 0, 43, 60
1, 868785, Control_c, 0, 64, 62
1, 868805, Control_c, 0, 64, 60
1, 868824, Control_c, 0, 64, 56
1, 868841, Control_c, 0, 64, 50
1, 868860, Control_c, 0, 64, 42
1, 868879, Control_c, 0, 64, 32
1, 868897, Control_c, 0, 64, 19
1, 868954, Control_c, 0, 64, 11
1, 868972, Control_c, 0, 64, 22
1, 868991, Control_c, 0, 64, 31
1, 869010, Control_c, 0, 64, 42
1, 869029, Control_c, 0, 64, 51
1, 869047, Control_c, 0, 64, 59
1, 869066, Control_c, 0, 64, 66
1, 869085, Control_c, 0, 64, 69
1, 869122, Control_c, 0, 64, 71
1, 869210, Note_off_c, 0, 43, 40
1, 869365, Control_c, 0, 64, 69
1, 869411, Note_off_c, 0, 51, 32
1, 869411, Poly_aftertouch_c, 0, 51, 0
1, 869420, Control_c, 0, 64, 68
1, 869556, Note_on_c, 0, 46, 57
1, 869720, Control_c, 0, 64, 67
1, 869746, Note_off_c, 0, 46, 37
1, 869746, Poly_aftertouch_c, 0, 46, 0
1, 869777, Control_c, 0, 64, 66
1, 869815, Control_c, 0, 64, 65
1, 869828, Note_on_c, 0, 51, 60
1, 869832, Control_c, 0, 64, 64
1, 869852, Control_c, 0, 64, 62
1, 869871, Control_c, 0, 64, 58
1, 869889, Control_c, 0, 64, 52
1, 869907, Control_c, 0, 64, 45
1, 869926, Control_c, 0, 64, 33
1, 869945, Control_c, 0, 64, 12
1, 869965, Control_c, 0, 64, 0
1, 870057, Control_c, 0, 64, 17
1, 870076, Control_c, 0, 64, 26
1, 870094, Control_c, 0, 64, 34
1, 870113, Control_c, 0, 64, 42
1, 870131, Control_c, 0, 64, 49
1, 870151, Control_c, 0, 64, 53
1, 870169, Control_c, 0, 64, 58
1, 870188, Control_c, 0, 64, 63
1, 870206, Control_c, 0, 64, 66
1, 870226, Control_c, 0, 64, 68
1, 870263, Control_c, 0, 64, 71
1, 870264, Control_c, 0, 67, 119
1, 870283, Control_c, 0, 67, 114
1, 870301, Control_c, 0, 64, 74
1, 870301, Control_c, 0, 67, 109
1, 870319, Control_c, 0, 64, 76
1, 870321, Control_c, 0, 67, 103
1, 870339, Control_c, 0, 64, 78
1, 870340, Control_c, 0, 67, 98
1, 870357, Control_c, 0, 64, 80
1, 870358, Control_c, 0, 67, 93
1, 870375, Control_c, 0, 64, 82
1, 870377, Control_c, 0, 67, 89
1, 870394, Control_c, 0, 64, 85
1, 870397, Control_c, 0, 67, 85
1, 870412, Control_c, 0, 64, 88
1, 870432, Control_c, 0, 67, 79
1, 870449, Control_c, 0, 64, 94
1, 870468, Control_c, 0, 67, 74
1, 870487, Control_c, 0, 64, 102
1, 870506, Control_c, 0, 64, 107
1, 870514, Note_off_c, 0, 58, 52
1, 870514, Poly_aftertouch_c, 0, 58, 0
1, 870525, Control_c, 0, 64, 111
1, 870544, Control_c, 0, 67, 70
1, 870562, Control_c, 0, 64, 117
1, 870599, Control_c, 0, 64, 123
1, 870638, Control_c, 0, 64, 127
1, 870760, Note_off_c, 0, 51, 34
1, 870760, Poly_aftertouch_c, 0, 51, 0
1, 870799, Note_off_c, 0, 61, 32
1, 870843, Note_off_c, 0, 63, 37
1, 870909, Note_on_c, 0, 63, 53
1, 870922, Note_on_c, 0, 51, 48
1, 870928, Note_on_c, 0, 58, 56
1, 870930, Note_on_c, 0, 55, 52
1, 870931, Note_on_c, 0, 49, 64
1, 870933, Control_c, 0, 64, 121
1, 870954, Control_c, 0, 64, 116
1, 870974, Control_c, 0, 64, 107
1, 870991, Control_c, 0, 64, 95
1, 871010, Control_c, 0, 64, 83
1, 871030, Control_c, 0, 64, 73
1, 871047, Control_c, 0, 64, 67
1, 871067, Control_c, 0, 64, 63
1, 871068, Control_c, 0, 67, 66
1, 871105, Control_c, 0, 64, 65
1, 871123, Control_c, 0, 64, 67
1, 871123, Control_c, 0, 67, 62
1, 871141, Control_c, 0, 64, 70
1, 871161, Control_c, 0, 64, 73
1, 871179, Control_c, 0, 64, 77
1, 871179, Control_c, 0, 67, 57
1, 871198, Control_c, 0, 64, 81
1, 871217, Control_c, 0, 64, 86
1, 871219, Control_c, 0, 67, 51
1, 871236, Control_c, 0, 64, 90
1, 871253, Control_c, 0, 64, 94
1, 871255, Control_c, 0, 67, 44
1, 871273, Control_c, 0, 64, 98
1, 871292, Control_c, 0, 67, 37
1, 871311, Control_c, 0, 64, 105
1, 871328, Control_c, 0, 67, 31
1, 871349, Control_c, 0, 64, 112
1, 871366, Control_c, 0, 64, 116
1, 871384, Control_c, 0, 64, 120
1, 871386, Control_c, 0, 67, 27
1, 871422, Control_c, 0, 64, 126
1, 871452, Poly_aftertouch_c, 0, 49, 22
1, 871500, Note_off_c, 0, 49, 23
1, 871500, Poly_aftertouch_c, 0, 49, 0
1, 871530, Note_off_c, 0, 51, 21
1, 871530, Poly_aftertouch_c, 0, 51, 0
1, 871534, Note_off_c, 0, 63, 35
1, 871547, Note_off_c, 0, 58, 25
1, 871547, Poly_aftertouch_c, 0, 58, 0
1, 871559, Note_off_c, 0, 55, 34
1, 871559, Poly_aftertouch_c, 0, 55, 0
1, 871705, Note_on_c, 0, 63, 54
1, 871708, Note_on_c, 0, 58, 56
1, 871708, Note_on_c, 0, 55, 53
1, 871717, Note_on_c, 0, 51, 49
1, 871719, Note_on_c, 0, 49, 58
1, 871802, Note_off_c, 0, 58, 55
1, 871802, Poly_aftertouch_c, 0, 58, 0
1, 871814, Note_off_c, 0, 55, 58
1, 871814, Poly_aftertouch_c, 0, 55, 0
1, 871896, Note_off_c, 0, 63, 54
1, 871904, Note_off_c, 0, 51, 48
1, 871904, Poly_aftertouch_c, 0, 51, 0
1, 872014, Note_on_c, 0, 51, 42
1, 872018, Note_on_c, 0, 63, 49
1, 872020, Control_c, 0, 64, 121
1, 872023, Note_on_c, 0, 56, 49
1, 872024, Note_on_c, 0, 47, 57
1, 872028, Note_on_c, 0, 59, 49
1, 872032, Note_off_c, 0, 49, 46
1, 872032, Poly_aftertouch_c, 0, 49, 0
1, 872039, Control_c, 0, 64, 116
1, 872057, Control_c, 0, 64, 108
1, 872076, Control_c, 0, 64, 96
1, 872096, Control_c, 0, 64, 80
1, 872114, Control_c, 0, 64, 65
1, 872132, Control_c, 0, 64, 54
1, 872151, Control_c, 0, 64, 44
1, 872170, Control_c, 0, 64, 39
1, 872208, Control_c, 0, 64, 43
1, 872225, Note_on_c, 0, 49, 57
1, 872225, Control_c, 0, 64, 50
1, 872232, Note_off_c, 0, 47, 54
1, 872232, Poly_aftertouch_c, 0, 47, 0
1, 872245, Control_c, 0, 64, 57
1, 872264, Control_c, 0, 64, 64
1, 872282, Control_c, 0, 64, 68
1, 872301, Control_c, 0, 64, 70
1, 872327, Note_off_c, 0, 49, 58
1, 872327, Poly_aftertouch_c, 0, 49, 0
1, 872339, Control_c, 0, 64, 73
1, 872349, Note_on_c, 0, 47, 49
1, 872376, Control_c, 0, 64, 76
1, 872395, Control_c, 0, 64, 78
1, 872413, Control_c, 0, 64, 80
1, 872431, Control_c, 0, 64, 82
1, 872451, Control_c, 0, 64, 84
1, 872458, Note_off_c, 0, 47, 61
1, 872458, Poly_aftertouch_c, 0, 47, 0
1, 872469, Control_c, 0, 64, 87
1, 872477, Note_on_c, 0, 49, 60
1, 872526, Control_c, 0, 64, 92
1, 872540, Note_off_c, 0, 49, 59
1, 872540, Poly_aftertouch_c, 0, 49, 0
1, 872566, Note_on_c, 0, 47, 49
1, 872601, Control_c, 0, 64, 97
1, 872656, Control_c, 0, 64, 101
1, 872665, Note_off_c, 0, 47, 59
1, 872665, Poly_aftertouch_c, 0, 47, 0
1, 872683, Note_on_c, 0, 49, 60
1, 872712, Control_c, 0, 64, 106
1, 872740, Note_off_c, 0, 49, 56
1, 872740, Poly_aftertouch_c, 0, 49, 0
1, 872749, Control_c, 0, 64, 110
1, 872757, Note_on_c, 0, 47, 41
1, 872787, Control_c, 0, 64, 116
1, 872824, Control_c, 0, 64, 122
1, 872854, Note_off_c, 0, 47, 60
1, 872854, Poly_aftertouch_c, 0, 47, 0
1, 872860, Control_c, 0, 64, 126
1, 872869, Note_on_c, 0, 49, 63
1, 872889, Note_off_c, 0, 51, 33
1, 872889, Poly_aftertouch_c, 0, 51, 0
1, 872910, Note_off_c, 0, 63, 35
1, 872919, Note_off_c, 0, 59, 29
1, 872919, Poly_aftertouch_c, 0, 59, 0
1, 872924, Note_off_c, 0, 56, 36
1, 872924, Poly_aftertouch_c, 0, 56, 0
1, 872929, Note_off_c, 0, 49, 53
1, 872929, Poly_aftertouch_c, 0, 49, 0
1, 872946, Note_on_c, 0, 47, 39
1, 873029, Note_on_c, 0, 51, 56
1, 873035, Note_on_c, 0, 63, 59
1, 873047, Note_on_c, 0, 56, 52
1, 873050, Note_off_c, 0, 47, 56
1, 873050, Poly_aftertouch_c, 0, 47, 0
1, 873052, Note_on_c, 0, 59, 52
1, 873066, Note_on_c, 0, 49, 61
1, 873117, Note_off_c, 0, 49, 59
1, 873117, Poly_aftertouch_c, 0, 49, 0
1, 873142, Note_on_c, 0, 47, 37
1, 873238, Note_off_c, 0, 47, 58
1, 873238, Poly_aftertouch_c, 0, 47, 0
1, 873258, Note_on_c, 0, 49, 57
1, 873315, Note_off_c, 0, 49, 53
1, 873315, Poly_aftertouch_c, 0, 49, 0
1, 873371, Note_on_c, 0, 47, 51
1, 873386, Control_c, 0, 64, 122
1, 873423, Control_c, 0, 64, 118
1, 873460, Control_c, 0, 64, 110
1, 873478, Control_c, 0, 64, 106
1, 873518, Control_c, 0, 64, 99
1, 873520, Note_on_c, 0, 46, 70
1, 873554, Control_c, 0, 64, 94
1, 873610, Control_c, 0, 67, 31
1, 873616, Note_off_c, 0, 47, 39
1, 873616, Poly_aftertouch_c, 0, 47, 0
1, 873623, Note_off_c, 0, 51, 34
1, 873623, Poly_aftertouch_c, 0, 51, 0
1, 873640, Note_off_c, 0, 63, 32
1, 873644, Note_off_c, 0, 59, 34
1, 873644, Poly_aftertouch_c, 0, 59, 0
1, 873655, Note_off_c, 0, 56, 39
1, 873655, Poly_aftertouch_c, 0, 56, 0
1, 873666, Control_c, 0, 67, 36
1, 873705, Control_c, 0, 64, 90
1, 873707, Control_c, 0, 67, 42
1, 873722, Control_c, 0, 64, 88
1, 873741, Control_c, 0, 64, 85
1, 873743, Control_c, 0, 67, 47
1, 873760, Control_c, 0, 64, 81
1, 873778, Control_c, 0, 64, 78
1, 873780, Control_c, 0, 67, 53
1, 873785, Note_on_c, 0, 63, 54
1, 873791, Note_on_c, 0, 51, 51
1, 873794, Note_on_c, 0, 59, 63
1, 873796, Note_on_c, 0, 56, 60
1, 873797, Control_c, 0, 64, 76
1, 873798, Note_on_c, 0, 44, 67
1, 873816, Control_c, 0, 64, 74
1, 873817, Control_c, 0, 67, 60
1, 873836, Control_c, 0, 64, 72
1, 873853, Control_c, 0, 64, 70
1, 873854, Control_c, 0, 67, 66
1, 873891, Control_c, 0, 67, 72
1, 873909, Note_off_c, 0, 56, 57
1, 873909, Poly_aftertouch_c, 0, 56, 0
1, 873923, Note_off_c, 0, 46, 55
1, 873923, Poly_aftertouch_c, 0, 46, 0
1, 873926, Control_c, 0, 67, 78
1, 873965, Control_c, 0, 67, 84
1, 873972, Note_off_c, 0, 63, 41
1, 873985, Note_off_c, 0, 51, 48
1, 873985, Poly_aftertouch_c, 0, 51, 0
1, 874002, Control_c, 0, 64, 67
1, 874003, Control_c, 0, 67, 91
1, 874021, Control_c, 0, 64, 65
1, 874040, Control_c, 0, 64, 62
1, 874042, Control_c, 0, 67, 98
1, 874059, Control_c, 0, 64, 58
1, 874076, Control_c, 0, 64, 52
1, 874077, Control_c, 0, 67, 103
1, 874080, Note_on_c, 0, 63, 59
1, 874080, Note_on_c, 0, 61, 63
1, 874081, Note_on_c, 0, 51, 50
1, 874092, Note_on_c, 0, 43, 65
1, 874095, Note_on_c, 0, 58, 57
1, 874095, Control_c, 0, 64, 42
1, 874116, Control_c, 0, 64, 23
1, 874118, Control_c, 0, 67, 108
1, 874121, Note_off_c, 0, 59, 61
1, 874121, Poly_aftertouch_c, 0, 59, 0
1, 874133, Control_c, 0, 64, 0
1, 874168, Note_off_c, 0, 44, 53
1, 874168, Poly_aftertouch_c, 0, 44, 0
1, 874171, Control_c, 0, 67, 112
1, 874246, Control_c, 0, 67, 116
1, 874320, Control_c, 0, 67, 120
1, 874377, Control_c, 0, 67, 125
1, 874583, Control_c, 0, 64, 20
1, 874601, Control_c, 0, 64, 33
1, 874620, Control_c, 0, 64, 43
1, 874630, Note_off_c, 0, 61, 37
1, 874637, Control_c, 0, 64, 50
1, 874657, Control_c, 0, 64, 56
1, 874675, Control_c, 0, 64, 63
1, 874694, Control_c, 0, 64, 69
1, 874714, Control_c, 0, 64, 73
1, 874732, Control_c, 0, 64, 75
1, 874751, Control_c, 0, 64, 77
1, 874771, Note_off_c, 0, 58, 54
1, 874771, Poly_aftertouch_c, 0, 58, 0
1, 874787, Control_c, 0, 64, 81
1, 874807, Control_c, 0, 64, 83
1, 874825, Control_c, 0, 64, 86
1, 874844, Control_c, 0, 64, 88
1, 874899, Control_c, 0, 64, 92
1, 874917, Note_off_c, 0, 63, 19
1, 874919, Note_off_c, 0, 51, 28
1, 874919, Poly_aftertouch_c, 0, 51, 0
1, 875107, Control_c, 0, 64, 88
1, 875124, Control_c, 0, 64, 85
1, 875142, Control_c, 0, 64, 79
1, 875147, Note_on_c, 0, 63, 43
1, 875151, Note_on_c, 0, 56, 43
1, 875152, Note_on_c, 0, 51, 40
1, 875159, Note_on_c, 0, 59, 40
1, 875161, Control_c, 0, 64, 72
1, 875172, Note_on_c, 0, 44, 43
1, 875180, Control_c, 0, 64, 63
1, 875193, Note_off_c, 0, 43, 31
1, 875199, Control_c, 0, 64, 56
1, 875218, Control_c, 0, 64, 43
1, 875256, Control_c, 0, 64, 0
1, 875368, Control_c, 0, 64, 9
1, 875386, Control_c, 0, 64, 27
1, 875405, Control_c, 0, 64, 40
1, 875423, Control_c, 0, 64, 51
1, 875442, Control_c, 0, 64, 61
1, 875461, Control_c, 0, 64, 69
1, 875479, Control_c, 0, 64, 74
1, 875481, Control_c, 0, 67, 119
1, 875499, Control_c, 0, 64, 76
1, 875501, Control_c, 0, 67, 113
1, 875518, Control_c, 0, 67, 107
1, 875537, Control_c, 0, 64, 79
1, 875538, Control_c, 0, 67, 100
1, 875555, Control_c, 0, 64, 81
1, 875556, Control_c, 0, 67, 95
1, 875574, Control_c, 0, 64, 84
1, 875575, Poly_aftertouch_c, 0, 59, 24
1, 875576, Control_c, 0, 67, 91
1, 875592, Control_c, 0, 64, 86
1, 875610, Control_c, 0, 67, 86
1, 875629, Control_c, 0, 64, 91
1, 875632, Note_off_c, 0, 51, 29
1, 875632, Poly_aftertouch_c, 0, 51, 0
1, 875655, Note_off_c, 0, 63, 32
1, 875666, Note_off_c, 0, 59, 29
1, 875666, Poly_aftertouch_c, 0, 59, 0
1, 875666, Control_c, 0, 64, 97
1, 875681, Note_off_c, 0, 56, 30
1, 875681, Poly_aftertouch_c, 0, 56, 0
1, 875702, Note_off_c, 0, 44, 34
1, 875702, Poly_aftertouch_c, 0, 44, 0
1, 875704, Control_c, 0, 64, 101
1, 875835, Control_c, 0, 67, 90
1, 875890, Control_c, 0, 67, 96
1, 875938, Note_on_c, 0, 56, 41
1, 875938, Note_on_c, 0, 63, 42
1, 875942, Note_on_c, 0, 59, 36
1, 875943, Note_on_c, 0, 51, 45
1, 875947, Control_c, 0, 67, 101
1, 875953, Note_on_c, 0, 44, 39
1, 875985, Control_c, 0, 67, 107
1, 876022, Control_c, 0, 67, 111
1, 876067, Note_off_c, 0, 56, 53
1, 876067, Poly_aftertouch_c, 0, 56, 0
1, 876085, Note_off_c, 0, 59, 37
1, 876085, Poly_aftertouch_c, 0, 59, 0
1, 876111, Note_off_c, 0, 63, 34
1, 876115, Control_c, 0, 64, 97
1, 876133, Note_off_c, 0, 44, 28
1, 876133, Poly_aftertouch_c, 0, 44, 0
1, 876190, Control_c, 0, 64, 92
1, 876209, Control_c, 0, 64, 88
1, 876225, Note_off_c, 0, 51, 64
1, 876225, Note_on_c, 0, 58, 52
1, 876225, Note_on_c, 0, 51, 24
1, 876227, Control_c, 0, 64, 82
1, 876229, Note_on_c, 0, 55, 52
1, 876232, Note_on_c, 0, 63, 41
1, 876246, Control_c, 0, 64, 73
1, 876253, Note_on_c, 0, 39, 41
1, 876266, Control_c, 0, 64, 65
1, 876283, Control_c, 0, 64, 56
1, 876303, Control_c, 0, 64, 37
1, 876321, Control_c, 0, 64, 0
1, 876358, Control_c, 0, 67, 106
1, 876376, Control_c, 0, 67, 102
1, 876396, Control_c, 0, 67, 96
1, 876414, Control_c, 0, 67, 88
1, 876433, Control_c, 0, 64, 28
1, 876435, Control_c, 0, 67, 81
1, 876452, Control_c, 0, 64, 42
1, 876454, Control_c, 0, 67, 77
1, 876472, Control_c, 0, 64, 53
1, 876489, Control_c, 0, 64, 62
1, 876508, Control_c, 0, 64, 69
1, 876528, Control_c, 0, 64, 71
1, 876532, Note_off_c, 0, 63, 40
1, 876544, Note_off_c, 0, 51, 38
1, 876544, Poly_aftertouch_c, 0, 51, 0
1, 876564, Control_c, 0, 67, 81
1, 876567, Note_off_c, 0, 55, 46
1, 876567, Poly_aftertouch_c, 0, 55, 0
1, 876570, Note_off_c, 0, 58, 38
1, 876570, Poly_aftertouch_c, 0, 58, 0
1, 876590, Note_off_c, 0, 39, 50
1, 876620, Control_c, 0, 64, 69
1, 876658, Control_c, 0, 64, 66
1, 876677, Control_c, 0, 64, 65
1, 876695, Control_c, 0, 64, 63
1, 876713, Control_c, 0, 64, 60
1, 876733, Control_c, 0, 64, 57
1, 876751, Control_c, 0, 64, 53
1, 876770, Control_c, 0, 64, 50
1, 876788, Control_c, 0, 64, 45
1, 876808, Control_c, 0, 64, 42
1, 876825, Control_c, 0, 64, 37
1, 876845, Control_c, 0, 64, 33
1, 876883, Control_c, 0, 64, 28
1, 876920, Control_c, 0, 64, 23
1, 876921, Control_c, 0, 67, 87
1, 877276, Note_on_c, 0, 63, 44
1, 877292, Note_on_c, 0, 58, 38
1, 877292, Note_on_c, 0, 55, 35
1, 877299, Note_on_c, 0, 51, 32
1, 877309, Note_on_c, 0, 39, 33
1, 877424, Control_c, 0, 64, 28
1, 877462, Control_c, 0, 64, 32
1, 877499, Control_c, 0, 64, 36
1, 877566, Note_off_c, 0, 63, 36
1, 877585, Note_off_c, 0, 51, 39
1, 877585, Poly_aftertouch_c, 0, 51, 0
1, 877642, Note_off_c, 0, 39, 41
1, 877653, Note_off_c, 0, 55, 44
1, 877653, Poly_aftertouch_c, 0, 55, 0
1, 877658, Note_off_c, 0, 58, 36
1, 877658, Poly_aftertouch_c, 0, 58, 0
1, 877687, Control_c, 0, 67, 91
1, 877742, Control_c, 0, 67, 95
1, 877761, Control_c, 0, 64, 32
1, 877819, Control_c, 0, 67, 99
1, 877873, Control_c, 0, 67, 103
1, 877929, Control_c, 0, 67, 107
1, 878004, Control_c, 0, 67, 112
1, 878060, Control_c, 0, 67, 116
1, 878134, Control_c, 0, 67, 121
1, 878266, Control_c, 0, 67, 125
1, 878341, Control_c, 0, 64, 28
1, 878384, Note_on_c, 0, 63, 34
1, 878389, Note_on_c, 0, 55, 21
1, 878389, Note_on_c, 0, 51, 27
1, 878392, Note_on_c, 0, 58, 28
1, 878397, Note_on_c, 0, 39, 34
1, 878565, Control_c, 0, 64, 36
1, 878584, Control_c, 0, 64, 44
1, 878603, Control_c, 0, 64, 54
1, 878621, Control_c, 0, 64, 62
1, 878639, Control_c, 0, 64, 67
1, 878658, Control_c, 0, 64, 71
1, 878678, Control_c, 0, 64, 74
1, 878696, Control_c, 0, 64, 77
1, 878739, Note_off_c, 0, 63, 37
1, 878740, Note_off_c, 0, 51, 36
1, 878740, Poly_aftertouch_c, 0, 51, 0
1, 878810, Note_off_c, 0, 39, 34
1, 878828, Note_off_c, 0, 58, 39
1, 878828, Poly_aftertouch_c, 0, 58, 0
1, 878842, Note_off_c, 0, 55, 41
1, 878842, Poly_aftertouch_c, 0, 55, 0
1, 878864, Control_c, 0, 64, 74
1, 878901, Control_c, 0, 64, 71
1, 878920, Control_c, 0, 64, 69
1, 878939, Control_c, 0, 64, 67
1, 878957, Control_c, 0, 64, 65
1, 878976, Control_c, 0, 64, 63
1, 878994, Control_c, 0, 64, 61
1, 879014, Control_c, 0, 64, 59
1, 879032, Control_c, 0, 64, 56
1, 879051, Control_c, 0, 64, 54
1, 879070, Control_c, 0, 64, 52
1, 879089, Control_c, 0, 64, 50
1, 879107, Control_c, 0, 64, 47
1, 879125, Control_c, 0, 64, 44
1, 879145, Control_c, 0, 64, 41
1, 879163, Control_c, 0, 64, 37
1, 879182, Control_c, 0, 64, 33
1, 879200, Control_c, 0, 64, 29
1, 879482, Control_c, 0, 64, 35
1, 879519, Control_c, 0, 64, 43
1, 879537, Control_c, 0, 64, 49
1, 879556, Control_c, 0, 64, 55
1, 879575, Control_c, 0, 64, 61
1, 879591, Control_c, 0, 64, 66
1, 879597, Note_on_c, 0, 63, 39
1, 879613, Control_c, 0, 64, 70
1, 879625, Note_on_c, 0, 51, 33
1, 879632, Control_c, 0, 64, 73
1, 879649, Control_c, 0, 64, 77
1, 879649, Control_c, 0, 67, 114
1, 879669, Control_c, 0, 64, 80
1, 879671, Control_c, 0, 67, 102
1, 879688, Control_c, 0, 64, 83
1, 879689, Control_c, 0, 67, 89
1, 879705, Control_c, 0, 64, 88
1, 879708, Control_c, 0, 67, 79
1, 879724, Control_c, 0, 64, 93
1, 879727, Control_c, 0, 67, 73
1, 879743, Control_c, 0, 64, 98
1, 879745, Control_c, 0, 67, 69
1, 879763, Control_c, 0, 64, 104
1, 879764, Control_c, 0, 67, 65
1, 879780, Control_c, 0, 64, 110
1, 879781, Control_c, 0, 67, 59
1, 879799, Control_c, 0, 64, 114
1, 879800, Control_c, 0, 67, 53
1, 879819, Control_c, 0, 67, 46
1, 879837, Control_c, 0, 64, 120
1, 879837, Control_c, 0, 67, 41
1, 879844, Note_off_c, 0, 51, 31
1, 879844, Poly_aftertouch_c, 0, 51, 0
1, 879855, Control_c, 0, 67, 36
1, 879875, Control_c, 0, 67, 31
1, 879880, Note_off_c, 0, 63, 29
1, 879893, Control_c, 0, 64, 124
1, 879894, Control_c, 0, 67, 25
1, 879911, Control_c, 0, 67, 17
1, 879930, Control_c, 0, 67, 11
1, 880211, Control_c, 0, 67, 15
1, 880341, Control_c, 0, 67, 20
1, 880397, Control_c, 0, 67, 24
1, 880436, Control_c, 0, 67, 28
1, 880472, Control_c, 0, 67, 33
1, 880529, Control_c, 0, 67, 38
1, 880585, Control_c, 0, 67, 42
1, 880602, Note_on_c, 0, 63, 43
1, 880623, Control_c, 0, 67, 47
1, 880627, Note_on_c, 0, 51, 39
1, 880658, Control_c, 0, 64, 120
1, 880678, Control_c, 0, 67, 52
1, 880715, Control_c, 0, 67, 57
1, 880725, Note_off_c, 0, 51, 44
1, 880725, Poly_aftertouch_c, 0, 51, 0
1, 880765, Note_off_c, 0, 63, 36
1, 880771, Control_c, 0, 67, 62
1, 880828, Control_c, 0, 64, 116
1, 880884, Control_c, 0, 64, 110
1, 880902, Note_on_c, 0, 63, 44
1, 880904, Note_on_c, 0, 51, 34
1, 880904, Note_on_c, 0, 60, 48
1, 880920, Control_c, 0, 64, 104
1, 880922, Note_on_c, 0, 56, 36
1, 880922, Control_c, 0, 67, 66
1, 880929, Note_on_c, 0, 44, 34
1, 880938, Note_on_c, 0, 32, 35
1, 880958, Control_c, 0, 64, 97
1, 880995, Control_c, 0, 64, 90
1, 881014, Control_c, 0, 64, 86
1, 881033, Control_c, 0, 64, 81
1, 881051, Control_c, 0, 64, 76
1, 881071, Control_c, 0, 64, 73
1, 881089, Control_c, 0, 64, 71
1, 881109, Control_c, 0, 64, 68
1, 881126, Control_c, 0, 64, 66
1, 881146, Control_c, 0, 64, 63
1, 881164, Control_c, 0, 64, 60
1, 881183, Control_c, 0, 64, 58
1, 881184, Control_c, 0, 67, 70
1, 881220, Control_c, 0, 64, 56
1, 881294, Control_c, 0, 64, 59
1, 881314, Control_c, 0, 64, 61
1, 881331, Control_c, 0, 64, 63
1, 881351, Control_c, 0, 64, 66
1, 881370, Control_c, 0, 64, 68
1, 881388, Control_c, 0, 64, 70
1, 881407, Control_c, 0, 64, 73
1, 881427, Control_c, 0, 64, 75
1, 881445, Control_c, 0, 64, 77
1, 881463, Control_c, 0, 64, 79
1, 881482, Control_c, 0, 64, 82
1, 881502, Control_c, 0, 64, 85
1, 881519, Control_c, 0, 64, 88
1, 881557, Control_c, 0, 64, 94
1, 881613, Control_c, 0, 64, 99
1, 881651, Control_c, 0, 64, 103
1, 881688, Control_c, 0, 64, 107
1, 881743, Control_c, 0, 64, 111
1, 881757, Note_off_c, 0, 51, 28
1, 881757, Poly_aftertouch_c, 0, 51, 0
1, 881758, Note_off_c, 0, 63, 38
1, 881791, Note_off_c, 0, 60, 31
1, 881815, Note_off_c, 0, 56, 29
1, 881815, Poly_aftertouch_c, 0, 56, 0
1, 881874, Control_c, 0, 64, 115
1, 882004, Control_c, 0, 64, 120
1, 882008, Note_on_c, 0, 60, 45
1, 882012, Note_on_c, 0, 56, 44
1, 882020, Note_on_c, 0, 63, 44
1, 882036, Note_on_c, 0, 51, 37
1, 882041, Control_c, 0, 64, 125
1, 882179, Note_off_c, 0, 51, 31
1, 882179, Poly_aftertouch_c, 0, 51, 0
1, 882296, Note_off_c, 0, 63, 34
1, 882311, Note_off_c, 0, 56, 24
1, 882311, Poly_aftertouch_c, 0, 56, 0
1, 882334, Note_off_c, 0, 60, 36
1, 882585, Control_c, 0, 67, 66
1, 882678, Control_c, 0, 67, 61
1, 882716, Control_c, 0, 67, 56
1, 882771, Control_c, 0, 67, 51
1, 882824, Note_on_c, 0, 63, 48
1, 882828, Poly_aftertouch_c, 0, 34, 0
1, 882830, Note_on_c, 0, 60, 50
1, 882837, Note_on_c, 0, 51, 48
1, 882848, Note_on_c, 0, 56, 48
1, 882865, Control_c, 0, 67, 47
1, 882920, Note_off_c, 0, 32, 33
1, 882933, Note_off_c, 0, 51, 47
1, 882933, Note_off_c, 0, 56, 42
1, 882933, Poly_aftertouch_c, 0, 51, 0
1, 882933, Poly_aftertouch_c, 0, 56, 0
1, 882940, Control_c, 0, 67, 43
1, 882946, Note_off_c, 0, 60, 58
1, 882951, Note_off_c, 0, 63, 51
1, 883083, Note_on_c, 0, 32, 64
1, 883107, Note_on_c, 0, 56, 49
1, 883107, Note_on_c, 0, 60, 50
1, 883110, Note_on_c, 0, 51, 39
1, 883115, Note_on_c, 0, 63, 25
1, 883183, Control_c, 0, 67, 39
1, 883258, Control_c, 0, 67, 35
1, 883328, Note_off_c, 0, 51, 21
1, 883328, Poly_aftertouch_c, 0, 51, 0
1, 883364, Poly_aftertouch_c, 0, 63, 24
1, 883426, Note_off_c, 0, 63, 22
1, 883426, Poly_aftertouch_c, 0, 63, 0
1, 883438, Poly_aftertouch_c, 0, 56, 24
1, 883535, Note_off_c, 0, 56, 30
1, 883535, Poly_aftertouch_c, 0, 56, 0
1, 883576, Note_off_c, 0, 60, 30
1, 883596, Control_c, 0, 67, 31
1, 883708, Control_c, 0, 67, 27
1, 883762, Control_c, 0, 67, 22
1, 883800, Control_c, 0, 67, 18
1, 883876, Note_on_c, 0, 60, 60
1, 883884, Note_on_c, 0, 63, 38
1, 883888, Note_on_c, 0, 51, 54
1, 883893, Control_c, 0, 67, 14
1, 883904, Note_on_c, 0, 56, 49
1, 883937, Note_off_c, 0, 63, 50
1, 883937, Poly_aftertouch_c, 0, 63, 0
1, 883981, Note_off_c, 0, 51, 56
1, 883981, Poly_aftertouch_c, 0, 51, 0
1, 884006, Note_off_c, 0, 56, 42
1, 884006, Poly_aftertouch_c, 0, 56, 0
1, 884034, Note_off_c, 0, 60, 53
1, 884062, Control_c, 0, 67, 10
1, 884139, Note_on_c, 0, 61, 64
1, 884152, Note_on_c, 0, 58, 59
1, 884163, Note_on_c, 0, 56, 61
1, 884175, Note_on_c, 0, 49, 55
1, 884194, Control_c, 0, 64, 118
1, 884195, Control_c, 0, 67, 0
1, 884212, Control_c, 0, 64, 107
1, 884230, Control_c, 0, 64, 93
1, 884250, Control_c, 0, 64, 80
1, 884268, Control_c, 0, 64, 70
1, 884286, Control_c, 0, 64, 68
1, 884325, Control_c, 0, 64, 71
1, 884342, Control_c, 0, 64, 74
1, 884361, Control_c, 0, 64, 78
1, 884382, Control_c, 0, 64, 85
1, 884399, Control_c, 0, 64, 93
1, 884418, Control_c, 0, 64, 100
1, 884436, Control_c, 0, 64, 106
1, 884456, Control_c, 0, 64, 111
1, 884463, Note_off_c, 0, 49, 34
1, 884463, Poly_aftertouch_c, 0, 49, 0
1, 884473, Control_c, 0, 64, 115
1, 884492, Control_c, 0, 64, 119
1, 884509, Note_off_c, 0, 61, 37
1, 884511, Control_c, 0, 64, 123
1, 884530, Control_c, 0, 64, 127
1, 884576, Note_off_c, 0, 56, 30
1, 884576, Poly_aftertouch_c, 0, 56, 0
1, 884603, Note_off_c, 0, 32, 35
1, 884630, Note_off_c, 0, 58, 27
1, 884630, Poly_aftertouch_c, 0, 58, 0
1, 884851, Note_off_c, 0, 44, 37
1, 884851, Poly_aftertouch_c, 0, 44, 0
1, 884915, Note_on_c, 0, 63, 69
1, 884921, Note_on_c, 0, 60, 60
1, 884931, Note_on_c, 0, 56, 59
1, 884952, Note_on_c, 0, 51, 47
1, 884986, Note_off_c, 0, 51, 57
1, 884986, Poly_aftertouch_c, 0, 51, 0
1, 885013, Note_off_c, 0, 60, 60
1, 885065, Note_off_c, 0, 63, 60
1, 885065, Poly_aftertouch_c, 0, 63, 0
1, 885146, Note_off_c, 0, 56, 37
1, 885146, Poly_aftertouch_c, 0, 56, 0
1, 885196, Note_on_c, 0, 64, 77
1, 885203, Note_on_c, 0, 56, 42
1, 885203, Control_c, 0, 64, 121
1, 885214, Note_on_c, 0, 61, 68
1, 885219, Note_on_c, 0, 37, 67
1, 885219, Note_on_c, 0, 52, 61
1, 885221, Control_c, 0, 64, 114
1, 885240, Control_c, 0, 64, 107
1, 885259, Control_c, 0, 64, 100
1, 885278, Control_c, 0, 64, 92
1, 885295, Control_c, 0, 64, 83
1, 885315, Control_c, 0, 64, 73
1, 885334, Control_c, 0, 64, 63
1, 885352, Control_c, 0, 64, 56
1, 885371, Control_c, 0, 64, 47
1, 885390, Control_c, 0, 64, 37
1, 885409, Control_c, 0, 64, 32
1, 885446, Control_c, 0, 64, 38
1, 885466, Control_c, 0, 64, 44
1, 885483, Control_c, 0, 64, 53
1, 885501, Control_c, 0, 64, 61
1, 885521, Control_c, 0, 64, 68
1, 885541, Control_c, 0, 64, 72
1, 885558, Control_c, 0, 64, 75
1, 885576, Control_c, 0, 64, 78
1, 885581, Note_off_c, 0, 37, 33
1, 885614, Control_c, 0, 64, 81
1, 885632, Control_c, 0, 64, 83
1, 885670, Control_c, 0, 64, 87
1, 885707, Control_c, 0, 64, 93
1, 885746, Control_c, 0, 64, 97
1, 885954, Note_on_c, 0, 37, 77
1, 886007, Control_c, 0, 64, 93
1, 886119, Control_c, 0, 64, 89
1, 886127, Note_off_c, 0, 37, 52
1, 886195, Control_c, 0, 64, 86
1, 886213, Control_c, 0, 64, 84
1, 886228, Note_on_c, 0, 40, 79
1, 886231, Control_c, 0, 64, 82
1, 886250, Control_c, 0, 64, 80
1, 886268, Control_c, 0, 64, 77
1, 886287, Control_c, 0, 64, 70
1, 886306, Control_c, 0, 64, 62
1, 886325, Control_c, 0, 64, 53
1, 886344, Control_c, 0, 64, 43
1, 886361, Control_c, 0, 64, 32
1, 886381, Control_c, 0, 64, 26
1, 886437, Control_c, 0, 64, 36
1, 886456, Control_c, 0, 64, 42
1, 886475, Control_c, 0, 64, 50
1, 886493, Control_c, 0, 64, 57
1, 886511, Control_c, 0, 64, 63
1, 886531, Control_c, 0, 64, 68
1, 886549, Control_c, 0, 64, 71
1, 886568, Control_c, 0, 64, 73
1, 886595, Note_off_c, 0, 40, 46
1, 886595, Poly_aftertouch_c, 0, 40, 0
1, 886606, Control_c, 0, 64, 76
1, 886643, Control_c, 0, 64, 78
1, 886681, Control_c, 0, 64, 81
1, 886718, Control_c, 0, 64, 84
1, 886755, Control_c, 0, 64, 86
1, 886960, Note_on_c, 0, 44, 78
1, 887088, Note_off_c, 0, 44, 59
1, 887088, Poly_aftertouch_c, 0, 44, 0
1, 887240, Control_c, 0, 64, 84
1, 887243, Note_on_c, 0, 49, 90
1, 887260, Control_c, 0, 64, 78
1, 887279, Control_c, 0, 64, 66
1, 887296, Control_c, 0, 64, 51
1, 887316, Control_c, 0, 64, 23
1, 887334, Control_c, 0, 64, 0
1, 887428, Control_c, 0, 64, 26
1, 887446, Control_c, 0, 64, 42
1, 887466, Control_c, 0, 64, 55
1, 887482, Poly_aftertouch_c, 0, 58, 127
1, 887483, Control_c, 0, 64, 68
1, 887503, Control_c, 0, 64, 76
1, 887521, Control_c, 0, 64, 82
1, 887542, Control_c, 0, 64, 87
1, 887559, Control_c, 0, 64, 91
1, 887568, Note_off_c, 0, 49, 51
1, 887568, Poly_aftertouch_c, 0, 49, 0
1, 887577, Control_c, 0, 64, 95
1, 887596, Control_c, 0, 64, 100
1, 887615, Control_c, 0, 64, 104
1, 887633, Control_c, 0, 64, 109
1, 887652, Control_c, 0, 64, 113
1, 887690, Control_c, 0, 64, 119
1, 887727, Control_c, 0, 64, 124
1, 888016, Poly_aftertouch_c, 0, 58, 0
1, 888038, Note_off_c, 0, 64, 34
1, 888038, Poly_aftertouch_c, 0, 64, 0
1, 888039, Note_off_c, 0, 52, 34
1, 888130, Note_off_c, 0, 61, 36
1, 888155, Note_off_c, 0, 56, 35
1, 888155, Poly_aftertouch_c, 0, 56, 0
1, 888288, Control_c, 0, 64, 114
1, 888308, Control_c, 0, 64, 90
1, 888316, Note_on_c, 0, 64, 87
1, 888320, Note_on_c, 0, 61, 86
1, 888322, Note_on_c, 0, 52, 87
1, 888326, Note_on_c, 0, 56, 78
1, 888328, Control_c, 0, 64, 59
1, 888344, Control_c, 0, 64, 0
1, 888494, Control_c, 0, 64, 21
1, 888513, Control_c, 0, 64, 38
1, 888531, Control_c, 0, 64, 52
1, 888550, Control_c, 0, 64, 65
1, 888569, Control_c, 0, 64, 74
1, 888587, Control_c, 0, 64, 82
1, 888606, Control_c, 0, 64, 92
1, 888611, Note_off_c, 0, 52, 52
1, 888625, Control_c, 0, 64, 106
1, 888642, Control_c, 0, 64, 119
1, 888662, Control_c, 0, 64, 127
1, 888739, Note_off_c, 0, 56, 55
1, 888739, Poly_aftertouch_c, 0, 56, 0
1, 888801, Note_off_c, 0, 64, 52
1, 888801, Poly_aftertouch_c, 0, 64, 0
1, 888886, Note_off_c, 0, 61, 58
1, 889396, Note_on_c, 0, 73, 91
1, 889400, Note_on_c, 0, 61, 89
1, 889401, Note_on_c, 0, 64, 81
1, 889402, Note_on_c, 0, 69, 80
1, 889439, Note_on_c, 0, 68, 37
1, 889485, Control_c, 0, 64, 92
1, 889498, Note_off_c, 0, 68, 31
1, 889505, Control_c, 0, 64, 60
1, 889521, Control_c, 0, 64, 15
1, 889540, Control_c, 0, 64, 0
1, 889672, Control_c, 0, 64, 12
1, 889690, Control_c, 0, 64, 20
1, 889709, Control_c, 0, 64, 26
1, 889727, Control_c, 0, 64, 32
1, 889747, Control_c, 0, 64, 38
1, 889765, Control_c, 0, 64, 43
1, 889784, Control_c, 0, 64, 48
1, 889802, Control_c, 0, 64, 54
1, 889821, Control_c, 0, 64, 60
1, 889841, Control_c, 0, 64, 66
1, 889858, Control_c, 0, 64, 69
1, 889878, Control_c, 0, 64, 72
1, 889914, Control_c, 0, 64, 74
1, 889952, Control_c, 0, 64, 78
1, 889971, Control_c, 0, 64, 81
1, 889990, Control_c, 0, 64, 84
1, 890008, Control_c, 0, 64, 88
1, 890028, Control_c, 0, 64, 92
1, 890045, Control_c, 0, 64, 97
1, 890064, Control_c, 0, 64, 103
1, 890084, Control_c, 0, 64, 110
1, 890102, Control_c, 0, 64, 116
1, 890120, Note_on_c, 0, 45, 84
1, 890120, Note_on_c, 0, 33, 85
1, 890120, Control_c, 0, 64, 122
1, 890139, Control_c, 0, 64, 127
1, 890178, Note_off_c, 0, 33, 60
1, 890183, Note_off_c, 0, 45, 60
1, 890183, Poly_aftertouch_c, 0, 45, 0
1, 890364, Control_c, 0, 64, 119
1, 890367, Note_on_c, 0, 49, 95
1, 890368, Note_on_c, 0, 37, 91
1, 890382, Control_c, 0, 64, 92
1, 890401, Control_c, 0, 64, 63
1, 890419, Control_c, 0, 64, 33
1, 890439, Control_c, 0, 64, 0
1, 890495, Control_c, 0, 64, 18
1, 890512, Note_off_c, 0, 37, 59
1, 890512, Control_c, 0, 64, 43
1, 890531, Control_c, 0, 64, 63
1, 890552, Control_c, 0, 64, 78
1, 890563, Note_off_c, 0, 49, 53
1, 890563, Poly_aftertouch_c, 0, 49, 0
1, 890568, Control_c, 0, 64, 89
1, 890588, Control_c, 0, 64, 98
1, 890606, Control_c, 0, 64, 107
1, 890625, Control_c, 0, 64, 112
1, 890663, Control_c, 0, 64, 116
1, 891122, Note_on_c, 0, 52, 88
1, 891123, Note_on_c, 0, 40, 87
1, 891178, Note_off_c, 0, 40, 61
1, 891178, Poly_aftertouch_c, 0, 40, 0
1, 891201, Note_off_c, 0, 52, 61
1, 891318, Control_c, 0, 64, 109
1, 891335, Control_c, 0, 64, 99
1, 891354, Control_c, 0, 64, 76
1, 891373, Note_on_c, 0, 57, 98
1, 891373, Control_c, 0, 64, 45
1, 891376, Note_on_c, 0, 45, 93
1, 891392, Control_c, 0, 64, 0
1, 891493, Poly_aftertouch_c, 0, 46, 0
1, 891505, Control_c, 0, 64, 32
1, 891523, Control_c, 0, 64, 63
1, 891542, Control_c, 0, 64, 85
1, 891561, Control_c, 0, 64, 109
1, 891579, Control_c, 0, 64, 127
1, 891604, Note_off_c, 0, 45, 60
1, 891604, Poly_aftertouch_c, 0, 45, 0
1, 891674, Note_off_c, 0, 57, 59
1, 891674, Poly_aftertouch_c, 0, 57, 0
1, 891741, Poly_aftertouch_c, 0, 51, 0
1, 891991, Control_c, 0, 64, 121
1, 892009, Control_c, 0, 64, 115
1, 892027, Control_c, 0, 64, 104
1, 892047, Control_c, 0, 64, 89
1, 892065, Control_c, 0, 64, 66
1, 892084, Control_c, 0, 64, 28
1, 892102, Control_c, 0, 64, 0
1, 892342, Note_off_c, 0, 61, 56
1, 892358, Note_off_c, 0, 69, 51
1, 892358, Note_off_c, 0, 73, 55
1, 892358, Poly_aftertouch_c, 0, 69, 0
1, 892364, Note_off_c, 0, 64, 55
1, 892364, Poly_aftertouch_c, 0, 64, 0
1, 892457, Note_on_c, 0, 73, 97
1, 892457, Note_on_c, 0, 61, 97
1, 892465, Note_on_c, 0, 69, 85
1, 892467, Note_on_c, 0, 64, 87
1, 892475, Control_c, 0, 64, 44
1, 892495, Control_c, 0, 64, 74
1, 892515, Control_c, 0, 64, 113
1, 892532, Control_c, 0, 64, 127
1, 892610, Note_off_c, 0, 61, 59
1, 892615, Note_off_c, 0, 73, 61
1, 892646, Note_off_c, 0, 64, 56
1, 892646, Poly_aftertouch_c, 0, 64, 0
1, 892770, Note_off_c, 0, 69, 52
1, 892770, Poly_aftertouch_c, 0, 69, 0
1, 893577, Note_on_c, 0, 82, 101
1, 893581, Note_on_c, 0, 73, 95
1, 893582, Note_on_c, 0, 70, 96
1, 893585, Note_on_c, 0, 75, 92
1, 893673, Control_c, 0, 64, 85
1, 893691, Control_c, 0, 64, 46
1, 893711, Control_c, 0, 64, 0
1, 893824, Control_c, 0, 64, 18
1, 893842, Control_c, 0, 64, 24
1, 893860, Control_c, 0, 64, 28
1, 893897, Control_c, 0, 64, 38
1, 893917, Control_c, 0, 64, 43
1, 893935, Control_c, 0, 64, 46
1, 893953, Control_c, 0, 64, 50
1, 893972, Control_c, 0, 64, 53
1, 893991, Control_c, 0, 64, 56
1, 894009, Control_c, 0, 64, 59
1, 894028, Control_c, 0, 64, 60
1, 894048, Control_c, 0, 64, 62
1, 894066, Control_c, 0, 64, 64
1, 894085, Control_c, 0, 64, 66
1, 894103, Control_c, 0, 64, 68
1, 894140, Control_c, 0, 64, 71
1, 894158, Control_c, 0, 64, 73
1, 894178, Control_c, 0, 64, 76
1, 894196, Control_c, 0, 64, 79
1, 894215, Control_c, 0, 64, 82
1, 894234, Control_c, 0, 64, 85
1, 894254, Control_c, 0, 64, 90
1, 894272, Control_c, 0, 64, 95
1, 894290, Control_c, 0, 64, 102
1, 894309, Control_c, 0, 64, 109
1, 894328, Control_c, 0, 64, 115
1, 894345, Note_on_c, 0, 55, 94
1, 894347, Control_c, 0, 64, 121
1, 894350, Note_on_c, 0, 43, 94
1, 894366, Control_c, 0, 64, 125
1, 894396, Note_off_c, 0, 43, 64
1, 894412, Note_off_c, 0, 55, 57
1, 894412, Poly_aftertouch_c, 0, 55, 0
1, 894571, Control_c, 0, 64, 109
1, 894572, Note_on_c, 0, 58, 102
1, 894574, Note_on_c, 0, 46, 100
1, 894590, Control_c, 0, 64, 77
1, 894609, Control_c, 0, 64, 39
1, 894627, Control_c, 0, 64, 0
1, 894722, Control_c, 0, 64, 25
1, 894739, Control_c, 0, 64, 53
1, 894757, Control_c, 0, 64, 71
1, 894776, Control_c, 0, 64, 83
1, 894795, Control_c, 0, 64, 93
1, 894814, Control_c, 0, 64, 102
1, 894819, Note_off_c, 0, 46, 50
1, 894832, Control_c, 0, 64, 111
1, 894851, Control_c, 0, 64, 120
1, 894870, Control_c, 0, 64, 127
1, 894911, Note_off_c, 0, 58, 51
1, 895307, Note_on_c, 0, 51, 97
1, 895309, Note_on_c, 0, 63, 99
1, 895355, Note_off_c, 0, 51, 64
1, 895360, Note_off_c, 0, 63, 63
1, 895360, Poly_aftertouch_c, 0, 63, 0
1, 895545, Note_on_c, 0, 67, 102
1, 895549, Note_on_c, 0, 55, 97
1, 895574, Note_on_c, 0, 56, 66
1, 895579, Control_c, 0, 64, 106
1, 895599, Control_c, 0, 64, 70
1, 895602, Note_off_c, 0, 56, 63
1, 895602, Poly_aftertouch_c, 0, 56, 0
1, 895618, Control_c, 0, 64, 20
1, 895636, Control_c, 0, 64, 0
1, 895786, Control_c, 0, 64, 19
1, 895805, Control_c, 0, 64, 36
1, 895823, Control_c, 0, 64, 51
1, 895842, Control_c, 0, 64, 65
1, 895861, Control_c, 0, 64, 74
1, 895880, Control_c, 0, 64, 79
1, 895894, Note_off_c, 0, 67, 56
1, 895897, Control_c, 0, 64, 85
1, 895917, Control_c, 0, 64, 91
1, 895936, Control_c, 0, 64, 97
1, 895954, Control_c, 0, 64, 104
1, 895973, Control_c, 0, 64, 110
1, 895991, Control_c, 0, 64, 115
1, 896012, Control_c, 0, 64, 120
1, 896028, Control_c, 0, 64, 124
1, 896057, Note_off_c, 0, 55, 58
1, 896057, Poly_aftertouch_c, 0, 55, 0
1, 896317, Note_off_c, 0, 70, 36
1, 896338, Note_off_c, 0, 73, 46
1, 896348, Note_off_c, 0, 75, 35
1, 896431, Poly_aftertouch_c, 0, 82, 24
1, 896452, Note_off_c, 0, 82, 27
1, 896452, Poly_aftertouch_c, 0, 82, 0
1, 896565, Note_on_c, 0, 82, 95
1, 896574, Note_on_c, 0, 70, 97
1, 896575, Note_on_c, 0, 73, 93
1, 896577, Note_on_c, 0, 75, 89
1, 896581, Note_on_c, 0, 55, 98
1, 896583, Note_on_c, 0, 43, 96
1, 896628, Control_c, 0, 64, 102
1, 896646, Control_c, 0, 64, 68
1, 896665, Control_c, 0, 64, 23
1, 896685, Control_c, 0, 64, 0
1, 896796, Control_c, 0, 64, 11
1, 896815, Control_c, 0, 64, 33
1, 896833, Control_c, 0, 64, 42
1, 896852, Control_c, 0, 64, 51
1, 896870, Control_c, 0, 64, 59
1, 896890, Control_c, 0, 64, 67
1, 896907, Control_c, 0, 64, 73
1, 896927, Control_c, 0, 64, 78
1, 896946, Control_c, 0, 64, 85
1, 896963, Control_c, 0, 64, 97
1, 896983, Control_c, 0, 64, 115
1, 897001, Control_c, 0, 64, 127
1, 897137, Note_off_c, 0, 70, 55
1, 897193, Note_off_c, 0, 43, 60
1, 897235, Note_off_c, 0, 82, 39
1, 897235, Poly_aftertouch_c, 0, 82, 0
1, 897302, Note_off_c, 0, 55, 52
1, 897302, Poly_aftertouch_c, 0, 55, 0
1, 897379, Note_off_c, 0, 73, 56
1, 897614, Note_off_c, 0, 75, 61
1, 897658, Note_on_c, 0, 75, 87
1, 897660, Note_on_c, 0, 83, 98
1, 897668, Note_on_c, 0, 71, 95
1, 897673, Note_on_c, 0, 56, 102
1, 897674, Note_on_c, 0, 44, 97
1, 897786, Control_c, 0, 64, 92
1, 897806, Control_c, 0, 64, 58
1, 897824, Control_c, 0, 64, 0
1, 898724, Note_off_c, 0, 83, 63
1, 898730, Note_off_c, 0, 56, 68
1, 898730, Poly_aftertouch_c, 0, 56, 0
1, 898733, Note_off_c, 0, 71, 64
1, 898741, Note_off_c, 0, 44, 62
1, 898741, Poly_aftertouch_c, 0, 44, 0
1, 898765, Note_off_c, 0, 75, 64
1, 899800, Note_on_c, 0, 82, 98
1, 899804, Control_c, 0, 64, 17
1, 899805, Note_on_c, 0, 70, 96
1, 899807, Note_on_c, 0, 73, 93
1, 899807, Note_on_c, 0, 76, 84
1, 899813, Note_on_c, 0, 49, 101
1, 899816, Note_on_c, 0, 37, 99
1, 899823, Control_c, 0, 64, 44
1, 899844, Control_c, 0, 64, 61
1, 899862, Control_c, 0, 64, 73
1, 899881, Control_c, 0, 64, 84
1, 899899, Control_c, 0, 64, 99
1, 899918, Control_c, 0, 64, 123
1, 899936, Control_c, 0, 64, 127
1, 899947, Note_off_c, 0, 70, 64
1, 899965, Note_off_c, 0, 82, 63
1, 899965, Poly_aftertouch_c, 0, 82, 0
1, 899981, Note_off_c, 0, 73, 60
1, 899988, Poly_aftertouch_c, 0, 78, 0
1, 900012, Note_off_c, 0, 76, 60
1, 900196, Note_off_c, 0, 37, 48
1, 900250, Note_off_c, 0, 49, 46
1, 900250, Poly_aftertouch_c, 0, 49, 0
1, 900292, Control_c, 0, 64, 110
1, 900312, Control_c, 0, 64, 90
1, 900330, Control_c, 0, 64, 73
1, 900348, Control_c, 0, 64, 61
1, 900368, Control_c, 0, 64, 52
1, 900385, Control_c, 0, 64, 38
1, 900405, Control_c, 0, 64, 0
1, 900871, Note_on_c, 0, 79, 97
1, 900872, Note_on_c, 0, 67, 97
1, 900873, Note_on_c, 0, 73, 93
1, 900874, Note_on_c, 0, 70, 93
1, 900880, Note_on_c, 0, 51, 104
1, 900884, Note_on_c, 0, 39, 98
1, 900901, Note_on_c, 0, 77, 56
1, 900933, Note_off_c, 0, 77, 44
1, 900941, Note_on_c, 0, 42, 26
1, 900964, Control_c, 0, 64, 8
1, 900984, Control_c, 0, 64, 26
1, 901003, Control_c, 0, 64, 44
1, 901021, Control_c, 0, 64, 63
1, 901041, Control_c, 0, 64, 80
1, 901043, Note_off_c, 0, 51, 60
1, 901059, Control_c, 0, 64, 99
1, 901071, Note_off_c, 0, 39, 57
1, 901076, Control_c, 0, 64, 126
1, 901087, Note_off_c, 0, 79, 61
1, 901087, Poly_aftertouch_c, 0, 79, 0
1, 901095, Note_off_c, 0, 42, 39
1, 901095, Poly_aftertouch_c, 0, 42, 0
1, 901134, Note_off_c, 0, 67, 51
1, 901248, Note_off_c, 0, 70, 59
1, 901270, Poly_aftertouch_c, 0, 75, 0
1, 901435, Note_off_c, 0, 73, 36
1, 901489, Control_c, 0, 64, 119
1, 901507, Control_c, 0, 64, 91
1, 901527, Control_c, 0, 64, 64
1, 901545, Control_c, 0, 64, 40
1, 901563, Control_c, 0, 64, 0
1, 902143, Note_on_c, 0, 80, 97
1, 902150, Note_on_c, 0, 71, 89
1, 902150, Note_on_c, 0, 68, 95
1, 902153, Note_on_c, 0, 44, 97
1, 902161, Note_on_c, 0, 32, 97
1, 902443, Control_c, 0, 67, 8
1, 902499, Control_c, 0, 67, 13
1, 902535, Control_c, 0, 64, 8
1, 902536, Control_c, 0, 67, 17
1, 902556, Control_c, 0, 64, 16
1, 902574, Control_c, 0, 67, 25
1, 902593, Control_c, 0, 64, 23
1, 902594, Control_c, 0, 67, 31
1, 902611, Control_c, 0, 64, 27
1, 902613, Control_c, 0, 67, 37
1, 902630, Control_c, 0, 64, 31
1, 902631, Control_c, 0, 67, 44
1, 902648, Control_c, 0, 67, 49
1, 902667, Control_c, 0, 64, 36
1, 902669, Control_c, 0, 67, 54
1, 902686, Control_c, 0, 67, 59
1, 902705, Control_c, 0, 67, 63
1, 902724, Control_c, 0, 67, 67
1, 902741, Control_c, 0, 64, 41
1, 902742, Control_c, 0, 67, 71
1, 902761, Control_c, 0, 64, 43
1, 902762, Control_c, 0, 67, 75
1, 902799, Control_c, 0, 64, 45
1, 902799, Control_c, 0, 67, 82
1, 902835, Control_c, 0, 67, 87
1, 902872, Control_c, 0, 64, 49
1, 902873, Control_c, 0, 67, 93
1, 902892, Control_c, 0, 64, 51
1, 902894, Control_c, 0, 67, 97
1, 902930, Control_c, 0, 64, 54
1, 902931, Control_c, 0, 67, 105
1, 902947, Control_c, 0, 64, 58
1, 902948, Control_c, 0, 67, 109
1, 902966, Control_c, 0, 64, 62
1, 902986, Control_c, 0, 64, 65
1, 902987, Control_c, 0, 67, 116
1, 903003, Control_c, 0, 64, 68
1, 903023, Control_c, 0, 67, 120
1, 903041, Control_c, 0, 64, 71
1, 903080, Control_c, 0, 64, 74
1, 903081, Control_c, 0, 67, 125
1, 903116, Control_c, 0, 64, 77
1, 903153, Control_c, 0, 64, 79
1, 903192, Control_c, 0, 64, 81
1, 903237, Note_off_c, 0, 44, 34
1, 903237, Poly_aftertouch_c, 0, 44, 0
1, 903266, Control_c, 0, 64, 83
1, 903396, Control_c, 0, 64, 79
1, 903403, Note_on_c, 0, 44, 65
1, 903414, Control_c, 0, 64, 71
1, 903434, Control_c, 0, 64, 60
1, 903454, Control_c, 0, 64, 52
1, 903455, Note_off_c, 0, 68, 35
1, 903462, Note_off_c, 0, 71, 40
1, 903471, Control_c, 0, 64, 47
1, 903490, Control_c, 0, 64, 45
1, 903500, Note_off_c, 0, 80, 33
1, 903546, Control_c, 0, 64, 50
1, 903565, Control_c, 0, 64, 52
1, 903621, Control_c, 0, 64, 55
1, 903639, Control_c, 0, 64, 58
1, 903658, Control_c, 0, 64, 62
1, 903676, Control_c, 0, 64, 66
1, 903695, Control_c, 0, 64, 71
1, 903714, Control_c, 0, 64, 75
1, 903733, Control_c, 0, 64, 79
1, 903752, Control_c, 0, 64, 83
1, 903790, Control_c, 0, 64, 86
1, 903828, Control_c, 0, 64, 88
1, 903972, Note_off_c, 0, 44, 23
1, 903972, Poly_aftertouch_c, 0, 44, 0
1, 904217, Control_c, 0, 64, 86
1, 904224, Note_on_c, 0, 44, 47
1, 904257, Control_c, 0, 64, 83
1, 904276, Control_c, 0, 64, 81
1, 904293, Control_c, 0, 64, 79
1, 904331, Control_c, 0, 64, 77
1, 904342, Note_off_c, 0, 44, 48
1, 904342, Poly_aftertouch_c, 0, 44, 0
1, 904368, Control_c, 0, 64, 75
1, 904425, Control_c, 0, 64, 73
1, 904443, Control_c, 0, 64, 70
1, 904463, Control_c, 0, 64, 68
1, 904481, Control_c, 0, 64, 63
1, 904500, Control_c, 0, 64, 54
1, 904517, Note_on_c, 0, 44, 45
1, 904517, Control_c, 0, 64, 36
1, 904529, Poly_aftertouch_c, 0, 34, 0
1, 904538, Control_c, 0, 64, 0
1, 904594, Control_c, 0, 64, 19
1, 904612, Control_c, 0, 64, 29
1, 904629, Control_c, 0, 64, 38
1, 904649, Control_c, 0, 64, 47
1, 904668, Control_c, 0, 64, 56
1, 904686, Control_c, 0, 64, 65
1, 904705, Control_c, 0, 64, 72
1, 904715, Note_off_c, 0, 32, 53
1, 904723, Control_c, 0, 64, 76
1, 904743, Control_c, 0, 64, 78
1, 904780, Control_c, 0, 64, 81
1, 904817, Control_c, 0, 64, 84
1, 904855, Control_c, 0, 64, 86
1, 904891, Control_c, 0, 64, 88
1, 904986, Control_c, 0, 64, 92
1, 905077, Note_off_c, 0, 44, 36
1, 905077, Poly_aftertouch_c, 0, 44, 0
1, 905696, Control_c, 0, 64, 88
1, 905790, Control_c, 0, 64, 86
1, 905865, Control_c, 0, 64, 84
1, 905880, Note_on_c, 0, 69, 49
1, 905902, Control_c, 0, 64, 82
1, 905916, Note_on_c, 0, 48, 28
1, 905925, Note_on_c, 0, 44, 36
1, 905926, Note_on_c, 0, 66, 30
1, 905939, Control_c, 0, 64, 78
1, 905976, Control_c, 0, 64, 74
1, 905996, Control_c, 0, 64, 72
1, 906014, Control_c, 0, 64, 69
1, 906032, Control_c, 0, 64, 65
1, 906053, Control_c, 0, 64, 60
1, 906070, Control_c, 0, 64, 55
1, 906089, Control_c, 0, 64, 52
1, 906126, Control_c, 0, 64, 54
1, 906145, Control_c, 0, 64, 57
1, 906164, Control_c, 0, 64, 60
1, 906182, Control_c, 0, 64, 65
1, 906201, Control_c, 0, 64, 68
1, 906238, Control_c, 0, 64, 71
1, 906276, Control_c, 0, 64, 75
1, 906294, Control_c, 0, 64, 78
1, 906313, Control_c, 0, 64, 82
1, 906332, Control_c, 0, 64, 85
1, 906351, Control_c, 0, 64, 88
1, 906382, Note_off_c, 0, 66, 40
1, 906387, Control_c, 0, 64, 93
1, 906391, Note_off_c, 0, 48, 39
1, 906471, Note_off_c, 0, 69, 34
1, 906471, Poly_aftertouch_c, 0, 69, 0
1, 906516, Note_off_c, 0, 44, 33
1, 906516, Poly_aftertouch_c, 0, 44, 0
1, 906707, Note_on_c, 0, 68, 44
1, 906715, Note_on_c, 0, 44, 37
1, 906730, Note_on_c, 0, 64, 38
1, 906739, Note_on_c, 0, 49, 36
1, 906825, Note_off_c, 0, 49, 46
1, 906825, Poly_aftertouch_c, 0, 49, 0
1, 906867, Note_off_c, 0, 44, 37
1, 906867, Poly_aftertouch_c, 0, 44, 0
1, 906879, Note_off_c, 0, 68, 43
1, 906898, Note_off_c, 0, 64, 36
1, 906898, Poly_aftertouch_c, 0, 64, 0
1, 906967, Control_c, 0, 64, 87
1, 906985, Control_c, 0, 64, 85
1, 906991, Note_on_c, 0, 66, 54
1, 907000, Note_on_c, 0, 63, 43
1, 907003, Control_c, 0, 64, 81
1, 907025, Control_c, 0, 64, 77
1, 907032, Note_on_c, 0, 44, 42
1, 907033, Note_on_c, 0, 51, 27
1, 907042, Control_c, 0, 64, 73
1, 907061, Control_c, 0, 64, 67
1, 907080, Control_c, 0, 64, 62
1, 907099, Control_c, 0, 64, 57
1, 907117, Control_c, 0, 64, 51
1, 907136, Control_c, 0, 64, 41
1, 907156, Control_c, 0, 64, 32
1, 907230, Control_c, 0, 64, 36
1, 907247, Control_c, 0, 64, 40
1, 907267, Control_c, 0, 64, 47
1, 907285, Control_c, 0, 64, 56
1, 907304, Control_c, 0, 64, 63
1, 907323, Control_c, 0, 64, 67
1, 907342, Control_c, 0, 64, 70
1, 907361, Control_c, 0, 64, 73
1, 907380, Control_c, 0, 64, 76
1, 907398, Control_c, 0, 64, 79
1, 907417, Control_c, 0, 64, 82
1, 907435, Control_c, 0, 64, 84
1, 907454, Control_c, 0, 64, 86
1, 907456, Control_c, 0, 67, 120
1, 907472, Control_c, 0, 64, 88
1, 907492, Control_c, 0, 67, 115
1, 907509, Control_c, 0, 64, 94
1, 907529, Control_c, 0, 67, 108
1, 907547, Control_c, 0, 64, 99
1, 907566, Control_c, 0, 67, 102
1, 907585, Control_c, 0, 64, 103
1, 907622, Control_c, 0, 67, 98
1, 907694, Note_off_c, 0, 44, 33
1, 907694, Poly_aftertouch_c, 0, 44, 0
1, 908015, Control_c, 0, 67, 102
1, 908022, Note_on_c, 0, 44, 40
1, 908039, Note_off_c, 0, 63, 36
1, 908039, Poly_aftertouch_c, 0, 63, 0
1, 908146, Control_c, 0, 67, 106
1, 908184, Control_c, 0, 64, 107
1, 908202, Control_c, 0, 67, 110
1, 908257, Control_c, 0, 67, 114
1, 908258, Poly_aftertouch_c, 0, 66, 24
1, 908295, Control_c, 0, 67, 119
1, 908308, Note_off_c, 0, 66, 38
1, 908308, Poly_aftertouch_c, 0, 66, 0
1, 908332, Control_c, 0, 67, 127
1, 908342, Note_off_c, 0, 44, 27
1, 908342, Poly_aftertouch_c, 0, 44, 0
1, 908442, Note_off_c, 0, 51, 29
1, 908781, Note_on_c, 0, 64, 51
1, 908786, Note_on_c, 0, 52, 38
1, 908789, Note_on_c, 0, 44, 42
1, 908809, Note_on_c, 0, 61, 46
1, 908850, Note_off_c, 0, 52, 58
1, 908896, Note_off_c, 0, 44, 46
1, 908896, Poly_aftertouch_c, 0, 44, 0
1, 908910, Note_off_c, 0, 61, 48
1, 909000, Note_off_c, 0, 64, 36
1, 909000, Poly_aftertouch_c, 0, 64, 0
1, 909025, Control_c, 0, 64, 102
1, 909070, Note_on_c, 0, 63, 58
1, 909077, Note_on_c, 0, 61, 49
1, 909080, Control_c, 0, 64, 97
1, 909099, Control_c, 0, 64, 93
1, 909107, Note_on_c, 0, 54, 40
1, 909112, Note_on_c, 0, 44, 31
1, 909117, Control_c, 0, 64, 88
1, 909137, Control_c, 0, 64, 82
1, 909155, Control_c, 0, 64, 75
1, 909174, Control_c, 0, 64, 69
1, 909193, Control_c, 0, 64, 61
1, 909211, Control_c, 0, 64, 53
1, 909231, Control_c, 0, 64, 44
1, 909248, Control_c, 0, 64, 41
1, 909306, Control_c, 0, 64, 46
1, 909323, Control_c, 0, 64, 51
1, 909343, Control_c, 0, 64, 59
1, 909361, Control_c, 0, 64, 66
1, 909380, Control_c, 0, 64, 71
1, 909398, Control_c, 0, 64, 75
1, 909417, Control_c, 0, 64, 78
1, 909436, Control_c, 0, 64, 81
1, 909437, Control_c, 0, 67, 120
1, 909454, Control_c, 0, 64, 85
1, 909457, Control_c, 0, 67, 115
1, 909473, Control_c, 0, 64, 89
1, 909474, Control_c, 0, 67, 110
1, 909494, Control_c, 0, 64, 93
1, 909495, Control_c, 0, 67, 106
1, 909511, Control_c, 0, 64, 97
1, 909530, Control_c, 0, 64, 102
1, 909531, Control_c, 0, 67, 99
1, 909549, Control_c, 0, 64, 107
1, 909555, Note_off_c, 0, 44, 28
1, 909555, Poly_aftertouch_c, 0, 44, 0
1, 909567, Control_c, 0, 64, 113
1, 909568, Control_c, 0, 67, 95
1, 909604, Control_c, 0, 64, 118
1, 909647, Note_off_c, 0, 54, 37
1, 909775, Note_off_c, 0, 61, 39
1, 909779, Note_off_c, 0, 63, 32
1, 909779, Poly_aftertouch_c, 0, 63, 0
1, 909867, Control_c, 0, 67, 100
1, 909923, Control_c, 0, 67, 105
1, 909978, Control_c, 0, 67, 109
1, 910053, Control_c, 0, 64, 113
1, 910090, Control_c, 0, 64, 108
1, 910111, Note_on_c, 0, 63, 43
1, 910117, Note_on_c, 0, 61, 43
1, 910127, Control_c, 0, 64, 101
1, 910127, Control_c, 0, 67, 113
1, 910132, Note_on_c, 0, 55, 34
1, 910140, Note_on_c, 0, 44, 34
1, 910145, Control_c, 0, 64, 96
1, 910167, Control_c, 0, 64, 91
1, 910184, Control_c, 0, 64, 84
1, 910203, Control_c, 0, 64, 77
1, 910222, Control_c, 0, 64, 70
1, 910223, Control_c, 0, 67, 117
1, 910240, Control_c, 0, 64, 65
1, 910258, Control_c, 0, 64, 59
1, 910277, Control_c, 0, 64, 54
1, 910296, Control_c, 0, 64, 47
1, 910316, Control_c, 0, 64, 39
1, 910316, Control_c, 0, 67, 121
1, 910333, Control_c, 0, 64, 32
1, 910389, Control_c, 0, 67, 125
1, 910408, Control_c, 0, 64, 39
1, 910429, Control_c, 0, 64, 43
1, 910446, Control_c, 0, 64, 49
1, 910465, Control_c, 0, 64, 56
1, 910483, Control_c, 0, 64, 63
1, 910501, Control_c, 0, 64, 67
1, 910521, Control_c, 0, 64, 69
1, 910538, Control_c, 0, 64, 71
1, 910558, Control_c, 0, 64, 74
1, 910576, Control_c, 0, 64, 77
1, 910595, Control_c, 0, 64, 81
1, 910614, Control_c, 0, 64, 85
1, 910652, Control_c, 0, 64, 92
1, 910656, Note_off_c, 0, 55, 38
1, 910656, Poly_aftertouch_c, 0, 55, 0
1, 910660, Note_off_c, 0, 61, 37
1, 910670, Control_c, 0, 64, 97
1, 910689, Control_c, 0, 64, 102
1, 910708, Control_c, 0, 64, 108
1, 910711, Note_off_c, 0, 63, 33
1, 910711, Poly_aftertouch_c, 0, 63, 0
1, 910726, Control_c, 0, 64, 113
1, 910763, Control_c, 0, 64, 118
1, 910843, Poly_aftertouch_c, 0, 44, 20
1, 910844, Note_off_c, 0, 44, 19
1, 910844, Poly_aftertouch_c, 0, 44, 0
1, 911138, Control_c, 0, 64, 114
1, 911193, Control_c, 0, 64, 109
1, 911231, Control_c, 0, 64, 103
1, 911254, Note_on_c, 0, 63, 42
1, 911267, Control_c, 0, 64, 97
1, 911281, Note_on_c, 0, 60, 32
1, 911287, Control_c, 0, 64, 93
1, 911293, Note_on_c, 0, 44, 35
1, 911300, Note_on_c, 0, 56, 26
1, 911305, Control_c, 0, 64, 89
1, 911325, Control_c, 0, 64, 83
1, 911343, Control_c, 0, 64, 77
1, 911363, Control_c, 0, 64, 71
1, 911381, Control_c, 0, 64, 66
1, 911398, Control_c, 0, 64, 60
1, 911418, Control_c, 0, 64, 54
1, 911436, Control_c, 0, 64, 43
1, 911456, Control_c, 0, 64, 27
1, 911473, Control_c, 0, 64, 9
1, 911530, Control_c, 0, 64, 16
1, 911548, Control_c, 0, 64, 23
1, 911568, Control_c, 0, 64, 29
1, 911586, Control_c, 0, 64, 36
1, 911604, Control_c, 0, 64, 44
1, 911623, Control_c, 0, 64, 53
1, 911642, Control_c, 0, 64, 61
1, 911661, Control_c, 0, 64, 68
1, 911679, Control_c, 0, 64, 73
1, 911680, Control_c, 0, 67, 119
1, 911699, Control_c, 0, 64, 76
1, 911700, Control_c, 0, 67, 115
1, 911718, Control_c, 0, 64, 78
1, 911720, Control_c, 0, 67, 110
1, 911735, Control_c, 0, 64, 80
1, 911736, Control_c, 0, 67, 106
1, 911756, Control_c, 0, 64, 82
1, 911757, Control_c, 0, 67, 101
1, 911774, Control_c, 0, 64, 85
1, 911777, Control_c, 0, 67, 96
1, 911793, Control_c, 0, 64, 88
1, 911793, Control_c, 0, 67, 92
1, 911830, Control_c, 0, 64, 93
1, 911834, Note_off_c, 0, 44, 37
1, 911834, Poly_aftertouch_c, 0, 44, 0
1, 911867, Control_c, 0, 64, 98
1, 911979, Control_c, 0, 67, 96
1, 912016, Control_c, 0, 67, 101
1, 912055, Control_c, 0, 67, 108
1, 912092, Control_c, 0, 67, 114
1, 912129, Control_c, 0, 67, 118
1, 912203, Control_c, 0, 67, 122
1, 912277, Control_c, 0, 64, 93
1, 912304, Note_on_c, 0, 44, 32
1, 912316, Control_c, 0, 64, 83
1, 912334, Control_c, 0, 64, 72
1, 912353, Control_c, 0, 64, 61
1, 912370, Note_off_c, 0, 60, 24
1, 912370, Control_c, 0, 64, 55
1, 912391, Control_c, 0, 64, 51
1, 912393, Control_c, 0, 67, 126
1, 912446, Control_c, 0, 64, 56
1, 912466, Control_c, 0, 64, 60
1, 912483, Control_c, 0, 64, 67
1, 912503, Control_c, 0, 64, 71
1, 912522, Control_c, 0, 64, 74
1, 912539, Poly_aftertouch_c, 0, 63, 24
1, 912540, Control_c, 0, 64, 77
1, 912559, Control_c, 0, 64, 80
1, 912565, Note_off_c, 0, 44, 38
1, 912565, Poly_aftertouch_c, 0, 44, 0
1, 912577, Control_c, 0, 64, 83
1, 912583, Note_off_c, 0, 63, 40
1, 912583, Poly_aftertouch_c, 0, 63, 0
1, 912596, Control_c, 0, 64, 87
1, 912633, Control_c, 0, 64, 93
1, 912689, Control_c, 0, 64, 97
1, 912698, Poly_aftertouch_c, 0, 56, 22
1, 913083, Note_on_c, 0, 44, 30
1, 913093, Poly_aftertouch_c, 0, 56, 24
1, 913161, Note_off_c, 0, 44, 42
1, 913161, Poly_aftertouch_c, 0, 44, 0
1, 913353, Poly_aftertouch_c, 0, 56, 22
1, 913378, Note_on_c, 0, 44, 33
1, 913380, Control_c, 0, 64, 92
1, 913402, Control_c, 0, 64, 88
1, 913418, Control_c, 0, 64, 78
1, 913438, Control_c, 0, 64, 68
1, 913456, Control_c, 0, 64, 61
1, 913475, Control_c, 0, 64, 60
1, 913514, Control_c, 0, 64, 63
1, 913531, Control_c, 0, 64, 67
1, 913549, Control_c, 0, 64, 72
1, 913560, Note_off_c, 0, 56, 19
1, 913560, Poly_aftertouch_c, 0, 56, 0
1, 913568, Control_c, 0, 64, 77
1, 913587, Control_c, 0, 64, 83
1, 913607, Control_c, 0, 64, 89
1, 913624, Control_c, 0, 64, 96
1, 913643, Control_c, 0, 64, 101
1, 913663, Control_c, 0, 64, 106
1, 913680, Control_c, 0, 64, 112
1, 913698, Control_c, 0, 64, 118
1, 913718, Control_c, 0, 64, 124
1, 913822, Note_off_c, 0, 44, 29
1, 913822, Poly_aftertouch_c, 0, 44, 0
1, 914424, Note_on_c, 0, 72, 49
1, 914460, Note_on_c, 0, 63, 43
1, 914462, Note_on_c, 0, 66, 41
1, 914492, Note_on_c, 0, 44, 24
1, 914496, Note_on_c, 0, 57, 32
1, 914704, Note_off_c, 0, 66, 44
1, 914704, Poly_aftertouch_c, 0, 66, 0
1, 914861, Note_off_c, 0, 72, 60
1, 914903, Note_off_c, 0, 57, 33
1, 914903, Poly_aftertouch_c, 0, 57, 0
1, 914914, Note_off_c, 0, 63, 36
1, 914914, Poly_aftertouch_c, 0, 63, 0
1, 915238, Note_on_c, 0, 73, 50
1, 915245, Note_on_c, 0, 64, 40
1, 915258, Note_on_c, 0, 68, 30
1, 915275, Note_on_c, 0, 56, 33
1, 915318, Note_off_c, 0, 64, 58
1, 915318, Poly_aftertouch_c, 0, 64, 0
1, 915352, Note_off_c, 0, 56, 55
1, 915352, Poly_aftertouch_c, 0, 56, 0
1, 915405, Note_off_c, 0, 68, 32
1, 915405, Note_off_c, 0, 44, 41
1, 915405, Poly_aftertouch_c, 0, 44, 0
1, 915548, Note_on_c, 0, 75, 59
1, 915586, Note_on_c, 0, 66, 40
1, 915586, Note_on_c, 0, 44, 35
1, 915590, Note_on_c, 0, 69, 35
1, 915603, Note_on_c, 0, 54, 38
1, 915606, Control_c, 0, 64, 116
1, 915625, Control_c, 0, 64, 108
1, 915643, Control_c, 0, 64, 99
1, 915653, Note_off_c, 0, 73, 41
1, 915663, Control_c, 0, 64, 90
1, 915681, Control_c, 0, 64, 81
1, 915700, Control_c, 0, 64, 72
1, 915719, Control_c, 0, 64, 64
1, 915738, Control_c, 0, 64, 55
1, 915757, Control_c, 0, 64, 43
1, 915774, Control_c, 0, 64, 27
1, 915795, Control_c, 0, 64, 18
1, 915831, Control_c, 0, 64, 24
1, 915849, Control_c, 0, 64, 31
1, 915868, Control_c, 0, 64, 40
1, 915887, Control_c, 0, 64, 49
1, 915905, Control_c, 0, 64, 57
1, 915924, Control_c, 0, 64, 65
1, 915943, Control_c, 0, 64, 72
1, 915961, Control_c, 0, 64, 77
1, 915980, Control_c, 0, 64, 80
1, 916000, Control_c, 0, 64, 84
1, 916018, Control_c, 0, 64, 88
1, 916036, Control_c, 0, 64, 92
1, 916055, Control_c, 0, 64, 97
1, 916074, Control_c, 0, 64, 103
1, 916093, Control_c, 0, 64, 108
1, 916111, Control_c, 0, 64, 113
1, 916149, Control_c, 0, 64, 119
1, 916186, Control_c, 0, 64, 123
1, 916242, Note_off_c, 0, 44, 32
1, 916242, Poly_aftertouch_c, 0, 44, 0
1, 916242, Control_c, 0, 64, 127
1, 916562, Note_off_c, 0, 69, 39
1, 916562, Poly_aftertouch_c, 0, 69, 0
1, 916565, Note_on_c, 0, 44, 33
1, 916670, Note_off_c, 0, 75, 56
1, 916691, Note_off_c, 0, 66, 37
1, 916691, Poly_aftertouch_c, 0, 66, 0
1, 916814, Note_off_c, 0, 54, 37
1, 917121, Note_off_c, 0, 44, 23
1, 917121, Poly_aftertouch_c, 0, 44, 0
1, 917325, Note_on_c, 0, 76, 45
1, 917348, Note_on_c, 0, 68, 37
1, 917354, Note_on_c, 0, 73, 34
1, 917371, Note_on_c, 0, 52, 20
1, 917371, Note_on_c, 0, 44, 23
1, 917398, Note_off_c, 0, 73, 52
1, 917461, Note_off_c, 0, 44, 48
1, 917461, Poly_aftertouch_c, 0, 44, 0
1, 917476, Note_off_c, 0, 76, 60
1, 917539, Note_off_c, 0, 68, 36
1, 917556, Note_off_c, 0, 52, 28
1, 917638, Note_on_c, 0, 78, 59
1, 917660, Note_on_c, 0, 69, 44
1, 917661, Note_on_c, 0, 72, 42
1, 917663, Note_on_c, 0, 51, 40
1, 917681, Note_on_c, 0, 44, 31
1, 917702, Control_c, 0, 64, 120
1, 917719, Control_c, 0, 64, 113
1, 917737, Control_c, 0, 64, 104
1, 917758, Control_c, 0, 64, 95
1, 917775, Control_c, 0, 64, 86
1, 917794, Control_c, 0, 64, 78
1, 917813, Control_c, 0, 64, 69
1, 917831, Control_c, 0, 64, 61
1, 917850, Control_c, 0, 64, 54
1, 917868, Control_c, 0, 64, 46
1, 917888, Control_c, 0, 64, 40
1, 917943, Control_c, 0, 64, 45
1, 917963, Control_c, 0, 64, 51
1, 917980, Control_c, 0, 64, 60
1, 918000, Control_c, 0, 64, 68
1, 918018, Control_c, 0, 64, 73
1, 918038, Control_c, 0, 64, 76
1, 918055, Control_c, 0, 64, 79
1, 918075, Control_c, 0, 64, 82
1, 918094, Control_c, 0, 64, 85
1, 918111, Control_c, 0, 64, 89
1, 918132, Control_c, 0, 64, 95
1, 918149, Control_c, 0, 64, 100
1, 918169, Control_c, 0, 64, 107
1, 918177, Note_off_c, 0, 72, 47
1, 918186, Control_c, 0, 64, 113
1, 918202, Note_off_c, 0, 69, 36
1, 918202, Poly_aftertouch_c, 0, 69, 0
1, 918204, Control_c, 0, 64, 119
1, 918223, Control_c, 0, 64, 123
1, 918261, Control_c, 0, 64, 127
1, 918384, Note_off_c, 0, 44, 31
1, 918384, Poly_aftertouch_c, 0, 44, 0
1, 918430, Note_off_c, 0, 78, 37
1, 918694, Note_on_c, 0, 79, 49
1, 918709, Note_on_c, 0, 76, 46
1, 918723, Note_on_c, 0, 49, 34
1, 918725, Note_on_c, 0, 70, 45
1, 918733, Note_on_c, 0, 44, 32
1, 918747, Control_c, 0, 64, 121
1, 918767, Control_c, 0, 64, 113
1, 918784, Control_c, 0, 64, 103
1, 918797, Poly_aftertouch_c, 0, 51, 24
1, 918803, Control_c, 0, 64, 91
1, 918824, Control_c, 0, 64, 77
1, 918841, Control_c, 0, 64, 66
1, 918844, Note_off_c, 0, 51, 38
1, 918844, Poly_aftertouch_c, 0, 51, 0
1, 918860, Control_c, 0, 64, 56
1, 918879, Control_c, 0, 64, 47
1, 918897, Control_c, 0, 64, 36
1, 918916, Control_c, 0, 64, 30
1, 918990, Control_c, 0, 64, 37
1, 919009, Control_c, 0, 64, 42
1, 919028, Control_c, 0, 64, 48
1, 919047, Control_c, 0, 64, 54
1, 919065, Control_c, 0, 64, 61
1, 919084, Control_c, 0, 64, 67
1, 919103, Control_c, 0, 64, 71
1, 919121, Control_c, 0, 64, 74
1, 919140, Control_c, 0, 64, 76
1, 919159, Control_c, 0, 64, 79
1, 919178, Control_c, 0, 64, 82
1, 919188, Note_off_c, 0, 76, 50
1, 919195, Control_c, 0, 64, 87
1, 919211, Note_off_c, 0, 70, 60
1, 919214, Control_c, 0, 64, 92
1, 919233, Control_c, 0, 64, 98
1, 919252, Control_c, 0, 64, 105
1, 919270, Control_c, 0, 64, 112
1, 919281, Note_off_c, 0, 49, 38
1, 919281, Poly_aftertouch_c, 0, 49, 0
1, 919289, Control_c, 0, 64, 118
1, 919310, Control_c, 0, 64, 122
1, 919346, Control_c, 0, 64, 127
1, 919373, Note_off_c, 0, 79, 37
1, 919373, Poly_aftertouch_c, 0, 79, 0
1, 919389, Note_off_c, 0, 44, 29
1, 919389, Poly_aftertouch_c, 0, 44, 0
1, 919773, Note_on_c, 0, 80, 41
1, 919787, Note_on_c, 0, 75, 39
1, 919806, Note_on_c, 0, 72, 38
1, 919817, Note_on_c, 0, 48, 24
1, 919820, Note_on_c, 0, 51, 29
1, 919840, Note_on_c, 0, 44, 27
1, 919851, Control_c, 0, 64, 120
1, 919869, Control_c, 0, 64, 115
1, 919889, Control_c, 0, 64, 106
1, 919907, Control_c, 0, 64, 96
1, 919925, Control_c, 0, 64, 85
1, 919946, Control_c, 0, 64, 74
1, 919963, Control_c, 0, 64, 65
1, 919982, Control_c, 0, 64, 57
1, 920001, Control_c, 0, 64, 50
1, 920019, Control_c, 0, 64, 42
1, 920039, Control_c, 0, 64, 37
1, 920076, Control_c, 0, 64, 40
1, 920094, Control_c, 0, 64, 44
1, 920114, Control_c, 0, 64, 50
1, 920131, Control_c, 0, 64, 58
1, 920151, Control_c, 0, 64, 65
1, 920169, Control_c, 0, 64, 70
1, 920207, Control_c, 0, 64, 72
1, 920225, Control_c, 0, 67, 122
1, 920244, Control_c, 0, 67, 117
1, 920262, Control_c, 0, 64, 75
1, 920264, Control_c, 0, 67, 112
1, 920281, Control_c, 0, 64, 77
1, 920282, Control_c, 0, 67, 107
1, 920300, Control_c, 0, 64, 79
1, 920301, Control_c, 0, 67, 102
1, 920319, Control_c, 0, 64, 83
1, 920320, Control_c, 0, 67, 98
1, 920338, Control_c, 0, 64, 88
1, 920341, Control_c, 0, 67, 94
1, 920356, Control_c, 0, 64, 93
1, 920357, Control_c, 0, 67, 89
1, 920375, Control_c, 0, 64, 99
1, 920376, Control_c, 0, 67, 85
1, 920393, Control_c, 0, 64, 105
1, 920395, Control_c, 0, 67, 80
1, 920412, Control_c, 0, 64, 111
1, 920424, Note_off_c, 0, 44, 33
1, 920424, Poly_aftertouch_c, 0, 44, 0
1, 920432, Control_c, 0, 64, 115
1, 920433, Control_c, 0, 67, 74
1, 920469, Control_c, 0, 64, 122
1, 920470, Control_c, 0, 67, 68
1, 920506, Control_c, 0, 64, 127
1, 920507, Control_c, 0, 67, 62
1, 920542, Control_c, 0, 67, 55
1, 920580, Control_c, 0, 67, 50
1, 920618, Control_c, 0, 67, 43
1, 920635, Control_c, 0, 67, 39
1, 920675, Control_c, 0, 67, 32
1, 920711, Control_c, 0, 67, 28
1, 920847, Note_on_c, 0, 44, 36
1, 920849, Note_off_c, 0, 72, 30
1, 920897, Control_c, 0, 67, 24
1, 920950, Poly_aftertouch_c, 0, 48, 24
1, 920952, Control_c, 0, 67, 20
1, 920991, Control_c, 0, 67, 15
1, 921024, Note_off_c, 0, 48, 33
1, 921024, Poly_aftertouch_c, 0, 48, 0
1, 921030, Control_c, 0, 67, 11
1, 921096, Note_off_c, 0, 75, 26
1, 921206, Note_off_c, 0, 44, 29
1, 921206, Poly_aftertouch_c, 0, 44, 0
1, 921431, Poly_aftertouch_c, 0, 51, 24
1, 921607, Poly_aftertouch_c, 0, 80, 24
1, 921657, Note_off_c, 0, 80, 38
1, 921657, Poly_aftertouch_c, 0, 80, 0
1, 921688, Note_on_c, 0, 44, 49
1, 921806, Poly_aftertouch_c, 0, 51, 22
1, 921840, Note_off_c, 0, 51, 19
1, 921840, Poly_aftertouch_c, 0, 51, 0
1, 921881, Note_off_c, 0, 44, 36
1, 921881, Poly_aftertouch_c, 0, 44, 0
1, 922164, Note_on_c, 0, 81, 72
1, 922212, Note_on_c, 0, 69, 47
1, 922225, Note_on_c, 0, 52, 34
1, 922234, Note_on_c, 0, 49, 29
1, 922256, Note_on_c, 0, 44, 37
1, 922301, Control_c, 0, 64, 122
1, 922320, Control_c, 0, 64, 115
1, 922338, Control_c, 0, 64, 108
1, 922356, Control_c, 0, 64, 101
1, 922375, Control_c, 0, 64, 95
1, 922395, Control_c, 0, 64, 90
1, 922412, Control_c, 0, 64, 84
1, 922432, Control_c, 0, 64, 80
1, 922450, Control_c, 0, 64, 76
1, 922469, Control_c, 0, 64, 72
1, 922487, Control_c, 0, 64, 70
1, 922506, Control_c, 0, 64, 68
1, 922524, Control_c, 0, 64, 67
1, 922600, Control_c, 0, 64, 68
1, 922637, Control_c, 0, 64, 70
1, 922638, Control_c, 0, 67, 15
1, 922655, Control_c, 0, 64, 72
1, 922674, Control_c, 0, 64, 76
1, 922694, Control_c, 0, 64, 80
1, 922695, Control_c, 0, 67, 22
1, 922712, Control_c, 0, 64, 86
1, 922731, Control_c, 0, 64, 92
1, 922732, Control_c, 0, 67, 30
1, 922750, Control_c, 0, 64, 97
1, 922750, Control_c, 0, 67, 34
1, 922767, Control_c, 0, 64, 102
1, 922787, Control_c, 0, 64, 107
1, 922805, Control_c, 0, 67, 39
1, 922824, Control_c, 0, 64, 113
1, 922842, Control_c, 0, 67, 43
1, 922862, Control_c, 0, 64, 120
1, 922880, Control_c, 0, 64, 124
1, 922881, Control_c, 0, 67, 47
1, 922918, Control_c, 0, 67, 52
1, 922954, Control_c, 0, 67, 58
1, 922973, Control_c, 0, 67, 62
1, 923011, Control_c, 0, 67, 68
1, 923043, Note_off_c, 0, 44, 33
1, 923043, Poly_aftertouch_c, 0, 44, 0
1, 923047, Control_c, 0, 67, 74
1, 923085, Control_c, 0, 67, 81
1, 923105, Control_c, 0, 67, 85
1, 923123, Control_c, 0, 67, 89
1, 923142, Control_c, 0, 67, 93
1, 923160, Control_c, 0, 67, 97
1, 923180, Control_c, 0, 67, 102
1, 923198, Control_c, 0, 67, 108
1, 923216, Control_c, 0, 67, 114
1, 923237, Control_c, 0, 67, 120
1, 923254, Control_c, 0, 67, 125
1, 923319, Note_on_c, 0, 44, 35
1, 923455, Note_off_c, 0, 81, 41
1, 923594, Note_off_c, 0, 44, 33
1, 923594, Poly_aftertouch_c, 0, 44, 0
1, 923601, Note_off_c, 0, 69, 30
1, 923601, Poly_aftertouch_c, 0, 69, 0
1, 924095, Note_on_c, 0, 44, 37
1, 924095, Note_on_c, 0, 79, 40
1, 924119, Note_on_c, 0, 67, 26
1, 924175, Note_off_c, 0, 67, 52
1, 924226, Note_off_c, 0, 44, 47
1, 924226, Poly_aftertouch_c, 0, 44, 0
1, 924283, Note_off_c, 0, 49, 36
1, 924283, Poly_aftertouch_c, 0, 49, 0
1, 924442, Note_on_c, 0, 80, 53
1, 924475, Note_on_c, 0, 68, 37
1, 924477, Note_on_c, 0, 51, 42
1, 924499, Note_on_c, 0, 48, 19
1, 924507, Note_on_c, 0, 44, 38
1, 924525, Control_c, 0, 64, 116
1, 924544, Control_c, 0, 64, 109
1, 924556, Note_off_c, 0, 79, 42
1, 924556, Poly_aftertouch_c, 0, 79, 0
1, 924562, Control_c, 0, 64, 100
1, 924582, Control_c, 0, 64, 89
1, 924600, Control_c, 0, 64, 77
1, 924619, Control_c, 0, 64, 63
1, 924638, Control_c, 0, 64, 53
1, 924657, Control_c, 0, 64, 43
1, 924675, Control_c, 0, 64, 38
1, 924698, Note_off_c, 0, 52, 44
1, 924712, Control_c, 0, 64, 44
1, 924732, Control_c, 0, 64, 53
1, 924751, Control_c, 0, 64, 65
1, 924768, Control_c, 0, 64, 75
1, 924772, Note_off_c, 0, 51, 53
1, 924772, Poly_aftertouch_c, 0, 51, 0
1, 924787, Poly_aftertouch_c, 0, 48, 20
1, 924787, Control_c, 0, 64, 83
1, 924792, Note_off_c, 0, 48, 42
1, 924792, Poly_aftertouch_c, 0, 48, 0
1, 924806, Control_c, 0, 64, 91
1, 924824, Control_c, 0, 64, 100
1, 924843, Control_c, 0, 64, 109
1, 924862, Control_c, 0, 64, 117
1, 924881, Control_c, 0, 64, 122
1, 924899, Control_c, 0, 64, 126
1, 925204, Note_off_c, 0, 80, 56
1, 925204, Poly_aftertouch_c, 0, 80, 0
1, 925272, Note_off_c, 0, 68, 36
1, 925471, Note_on_c, 0, 32, 35
1, 925818, Note_off_c, 0, 32, 28
1, 926270, Note_on_c, 0, 32, 31
1, 926339, Note_off_c, 0, 32, 48
1, 926631, Note_on_c, 0, 69, 55
1, 926657, Control_c, 0, 64, 122
1, 926658, Note_on_c, 0, 64, 48
1, 926660, Note_on_c, 0, 61, 42
1, 926688, Note_on_c, 0, 32, 33
1, 926693, Control_c, 0, 64, 117
1, 926712, Control_c, 0, 64, 113
1, 926732, Control_c, 0, 64, 107
1, 926751, Control_c, 0, 64, 101
1, 926769, Control_c, 0, 64, 94
1, 926788, Control_c, 0, 64, 87
1, 926806, Control_c, 0, 64, 79
1, 926826, Control_c, 0, 64, 71
1, 926844, Control_c, 0, 64, 66
1, 926863, Control_c, 0, 64, 63
1, 926882, Control_c, 0, 64, 62
1, 926920, Control_c, 0, 64, 63
1, 926937, Control_c, 0, 64, 65
1, 926957, Control_c, 0, 64, 68
1, 926974, Control_c, 0, 64, 70
1, 926994, Control_c, 0, 64, 73
1, 927012, Control_c, 0, 64, 77
1, 927032, Control_c, 0, 64, 80
1, 927049, Control_c, 0, 64, 84
1, 927052, Control_c, 0, 67, 115
1, 927068, Control_c, 0, 64, 90
1, 927070, Control_c, 0, 67, 108
1, 927087, Control_c, 0, 64, 96
1, 927089, Control_c, 0, 67, 101
1, 927106, Control_c, 0, 64, 102
1, 927107, Control_c, 0, 67, 93
1, 927124, Control_c, 0, 64, 107
1, 927125, Control_c, 0, 67, 86
1, 927143, Control_c, 0, 64, 111
1, 927145, Control_c, 0, 67, 80
1, 927163, Control_c, 0, 67, 74
1, 927181, Control_c, 0, 64, 119
1, 927182, Control_c, 0, 67, 68
1, 927200, Control_c, 0, 64, 124
1, 927202, Control_c, 0, 67, 62
1, 927217, Control_c, 0, 67, 57
1, 927237, Control_c, 0, 67, 51
1, 927249, Note_off_c, 0, 32, 25
1, 927254, Control_c, 0, 67, 45
1, 927275, Control_c, 0, 67, 35
1, 927293, Control_c, 0, 67, 23
1, 927311, Control_c, 0, 67, 8
1, 927331, Control_c, 0, 67, 0
1, 927666, Control_c, 0, 67, 8
1, 927682, Note_on_c, 0, 32, 28
1, 927705, Control_c, 0, 67, 16
1, 927722, Control_c, 0, 67, 21
1, 927742, Control_c, 0, 67, 30
1, 927760, Control_c, 0, 67, 40
1, 927779, Control_c, 0, 67, 51
1, 927797, Control_c, 0, 67, 62
1, 927818, Control_c, 0, 67, 75
1, 927836, Control_c, 0, 67, 89
1, 927853, Control_c, 0, 67, 103
1, 927873, Control_c, 0, 67, 117
1, 927891, Control_c, 0, 67, 126
1, 927954, Note_off_c, 0, 61, 58
1, 928003, Note_off_c, 0, 64, 32
1, 928003, Poly_aftertouch_c, 0, 64, 0
1, 928055, Note_off_c, 0, 32, 30
1, 928072, Note_off_c, 0, 69, 31
1, 928072, Poly_aftertouch_c, 0, 69, 0
1, 928454, Note_on_c, 0, 67, 36
1, 928465, Note_on_c, 0, 32, 33
1, 928531, Note_off_c, 0, 67, 56
1, 928566, Note_off_c, 0, 32, 45
1, 928606, Note_off_c, 0, 44, 40
1, 928606, Poly_aftertouch_c, 0, 44, 0
1, 928808, Note_on_c, 0, 68, 43
1, 928813, Note_on_c, 0, 44, 26
1, 928831, Note_on_c, 0, 63, 32
1, 928843, Control_c, 0, 64, 118
1, 928846, Note_on_c, 0, 60, 32
1, 928848, Note_on_c, 0, 32, 29
1, 928862, Control_c, 0, 64, 110
1, 928882, Control_c, 0, 64, 101
1, 928900, Control_c, 0, 64, 93
1, 928919, Control_c, 0, 64, 85
1, 928938, Control_c, 0, 64, 78
1, 928957, Control_c, 0, 64, 70
1, 928976, Control_c, 0, 64, 62
1, 928994, Control_c, 0, 64, 54
1, 929013, Control_c, 0, 64, 44
1, 929031, Control_c, 0, 64, 33
1, 929051, Control_c, 0, 64, 25
1, 929124, Control_c, 0, 64, 29
1, 929144, Control_c, 0, 64, 35
1, 929164, Control_c, 0, 64, 42
1, 929164, Control_c, 0, 67, 121
1, 929182, Control_c, 0, 64, 50
1, 929200, Control_c, 0, 64, 56
1, 929201, Control_c, 0, 67, 116
1, 929219, Control_c, 0, 64, 61
1, 929221, Control_c, 0, 67, 112
1, 929238, Control_c, 0, 64, 64
1, 929239, Control_c, 0, 67, 107
1, 929256, Control_c, 0, 64, 66
1, 929257, Control_c, 0, 67, 102
1, 929275, Control_c, 0, 64, 68
1, 929278, Control_c, 0, 67, 97
1, 929293, Control_c, 0, 64, 70
1, 929313, Control_c, 0, 64, 73
1, 929314, Control_c, 0, 67, 90
1, 929330, Control_c, 0, 64, 75
1, 929350, Control_c, 0, 64, 78
1, 929370, Control_c, 0, 64, 81
1, 929387, Control_c, 0, 64, 84
1, 929406, Control_c, 0, 64, 88
1, 929444, Control_c, 0, 64, 94
1, 929468, Note_off_c, 0, 32, 30
1, 929499, Control_c, 0, 64, 98
1, 929500, Control_c, 0, 67, 94
1, 929536, Control_c, 0, 67, 99
1, 929556, Control_c, 0, 67, 103
1, 929574, Control_c, 0, 67, 107
1, 929611, Control_c, 0, 67, 114
1, 929649, Control_c, 0, 67, 118
1, 929705, Control_c, 0, 67, 122
1, 929780, Control_c, 0, 64, 103
1, 929797, Note_on_c, 0, 32, 35
1, 929836, Control_c, 0, 64, 107
1, 929900, Note_off_c, 0, 32, 39
1, 929909, Control_c, 0, 64, 111
1, 929968, Control_c, 0, 67, 117
1, 930002, Note_off_c, 0, 68, 37
1, 930024, Control_c, 0, 64, 116
1, 930026, Control_c, 0, 67, 113
1, 930037, Note_off_c, 0, 63, 28
1, 930037, Poly_aftertouch_c, 0, 63, 0
1, 930061, Control_c, 0, 67, 106
1, 930098, Control_c, 0, 67, 100
1, 930144, Poly_aftertouch_c, 0, 60, 24
1, 930201, Note_off_c, 0, 60, 21
1, 930201, Poly_aftertouch_c, 0, 60, 0
1, 930359, Control_c, 0, 67, 104
1, 930415, Control_c, 0, 67, 109
1, 930454, Control_c, 0, 67, 113
1, 930489, Control_c, 0, 67, 118
1, 930546, Control_c, 0, 67, 123
1, 930602, Control_c, 0, 67, 127
1, 930630, Note_on_c, 0, 32, 28
1, 930705, Note_off_c, 0, 32, 41
1, 930752, Control_c, 0, 64, 112
1, 930958, Control_c, 0, 64, 108
1, 930976, Note_on_c, 0, 63, 39
1, 930995, Control_c, 0, 64, 104
1, 931011, Note_on_c, 0, 60, 30
1, 931013, Control_c, 0, 64, 99
1, 931033, Control_c, 0, 64, 92
1, 931047, Note_on_c, 0, 32, 24
1, 931050, Control_c, 0, 64, 83
1, 931069, Control_c, 0, 64, 73
1, 931089, Control_c, 0, 64, 67
1, 931107, Control_c, 0, 64, 63
1, 931126, Control_c, 0, 64, 62
1, 931164, Control_c, 0, 64, 64
1, 931182, Control_c, 0, 64, 66
1, 931201, Control_c, 0, 64, 69
1, 931220, Control_c, 0, 64, 73
1, 931238, Control_c, 0, 64, 77
1, 931258, Control_c, 0, 64, 81
1, 931275, Control_c, 0, 64, 85
1, 931294, Control_c, 0, 64, 90
1, 931313, Control_c, 0, 64, 94
1, 931332, Control_c, 0, 64, 99
1, 931351, Control_c, 0, 67, 123
1, 931362, Poly_aftertouch_c, 0, 32, 24
1, 931368, Control_c, 0, 64, 105
1, 931406, Control_c, 0, 64, 110
1, 931444, Control_c, 0, 64, 116
1, 931481, Control_c, 0, 64, 120
1, 931537, Control_c, 0, 64, 125
1, 931568, Poly_aftertouch_c, 0, 63, 24
1, 931591, Note_off_c, 0, 32, 23
1, 931591, Poly_aftertouch_c, 0, 32, 0
1, 931599, Note_off_c, 0, 63, 33
1, 931599, Poly_aftertouch_c, 0, 63, 0
1, 931661, Poly_aftertouch_c, 0, 60, 22
1, 931687, Note_off_c, 0, 60, 27
1, 931687, Poly_aftertouch_c, 0, 60, 0
1, 932222, Note_on_c, 0, 63, 33
1, 932227, Note_on_c, 0, 32, 27
1, 932236, Note_on_c, 0, 60, 30
1, 932435, Control_c, 0, 67, 119
1, 932473, Control_c, 0, 67, 113
1, 932511, Control_c, 0, 67, 105
1, 932524, Poly_aftertouch_c, 0, 32, 24
1, 932528, Control_c, 0, 67, 100
1, 932547, Control_c, 0, 67, 95
1, 932567, Control_c, 0, 67, 89
1, 932584, Control_c, 0, 67, 84
1, 932599, Note_off_c, 0, 32, 23
1, 932599, Poly_aftertouch_c, 0, 32, 0
1, 932602, Control_c, 0, 67, 80
1, 932618, Poly_aftertouch_c, 0, 63, 20
1, 932634, Note_off_c, 0, 60, 22
1, 932634, Poly_aftertouch_c, 0, 60, 0
1, 932636, Note_off_c, 0, 63, 29
1, 932636, Poly_aftertouch_c, 0, 63, 0
1, 932640, Control_c, 0, 67, 76
1, 932809, Control_c, 0, 67, 80
1, 932902, Control_c, 0, 67, 84
1, 932941, Control_c, 0, 67, 88
1, 932977, Control_c, 0, 67, 93
1, 933014, Control_c, 0, 67, 97
1, 933052, Control_c, 0, 67, 102
1, 933127, Control_c, 0, 67, 106
1, 933238, Control_c, 0, 67, 110
1, 933351, Control_c, 0, 67, 114
1, 933444, Control_c, 0, 67, 118
1, 933466, Note_on_c, 0, 32, 23
1, 933538, Control_c, 0, 67, 122
1, 933613, Control_c, 0, 67, 126
1, 933673, Note_off_c, 0, 32, 30
1, 933673, Poly_aftertouch_c, 0, 32, 0
1, 933704, Note_off_c, 0, 44, 31
1, 933704, Poly_aftertouch_c, 0, 44, 0
1, 934437, Note_on_c, 0, 63, 36
1, 934456, Note_on_c, 0, 56, 33
1, 934464, Note_on_c, 0, 60, 32
1, 934502, Note_on_c, 0, 32, 22
1, 934504, Note_on_c, 0, 44, 18
1, 934548, Control_c, 0, 64, 120
1, 934566, Control_c, 0, 64, 116
1, 934586, Control_c, 0, 64, 110
1, 934604, Control_c, 0, 64, 105
1, 934623, Control_c, 0, 64, 99
1, 934642, Control_c, 0, 64, 94
1, 934660, Control_c, 0, 64, 90
1, 934679, Control_c, 0, 64, 85
1, 934697, Control_c, 0, 64, 81
1, 934716, Control_c, 0, 64, 77
1, 934735, Control_c, 0, 64, 74
1, 934753, Control_c, 0, 64, 71
1, 934790, Control_c, 0, 64, 69
1, 934810, Control_c, 0, 64, 67
1, 934828, Control_c, 0, 64, 66
1, 934847, Control_c, 0, 64, 64
1, 934866, Control_c, 0, 64, 63
1, 934885, Control_c, 0, 64, 62
1, 934904, Control_c, 0, 64, 60
1, 934941, Control_c, 0, 64, 58
1, 934977, Control_c, 0, 64, 55
1, 934997, Control_c, 0, 64, 53
1, 935034, Control_c, 0, 64, 50
1, 935052, Control_c, 0, 64, 48
1, 935071, Control_c, 0, 64, 45
1, 935091, Control_c, 0, 64, 43
1, 935128, Control_c, 0, 64, 40
1, 935277, Control_c, 0, 64, 36
1, 937726, Control_c, 0, 64, 40
1, 938997, Control_c, 0, 64, 36
1, 939222, Control_c, 0, 64, 32
1, 939371, Control_c, 0, 64, 26
1, 939391, Control_c, 0, 64, 21
1, 939409, Control_c, 0, 64, 14
1, 939428, Control_c, 0, 64, 0
1, 940485, Poly_aftertouch_c, 0, 32, 24
1, 940620, Poly_aftertouch_c, 0, 56, 24
1, 940704, Poly_aftertouch_c, 0, 63, 24
1, 940862, Poly_aftertouch_c, 0, 60, 22
1, 940877, Poly_aftertouch_c, 0, 56, 20
1, 940883, Poly_aftertouch_c, 0, 44, 24
1, 940887, Note_off_c, 0, 56, 19
1, 940887, Poly_aftertouch_c, 0, 56, 0
1, 940908, Note_off_c, 0, 60, 20
1, 940908, Poly_aftertouch_c, 0, 60, 0
1, 940914, Note_off_c, 0, 63, 19
1, 940914, Poly_aftertouch_c, 0, 63, 0
1, 940953, Poly_aftertouch_c, 0, 32, 22
1, 940987, Note_off_c, 0, 32, 19
1, 940987, Poly_aftertouch_c, 0, 32, 0
1, 940999, Note_off_c, 0, 44, 27
1, 940999, Poly_aftertouch_c, 0, 44, 0
1, 943168, Control_c, 0, 64, 19
1, 943186, Control_c, 0, 64, 30
1, 943206, Control_c, 0, 64, 36
1, 943223, Control_c, 0, 64, 40
1, 943243, Control_c, 0, 64, 45
1, 943261, Control_c, 0, 64, 51
1, 943281, Control_c, 0, 64, 56
1, 943298, Control_c, 0, 64, 61
1, 943317, Control_c, 0, 64, 64
1, 943337, Control_c, 0, 64, 66
1, 943354, Control_c, 0, 64, 67
1, 943394, Control_c, 0, 64, 69
1, 943430, Control_c, 0, 64, 72
1, 943468, Control_c, 0, 64, 75
1, 943486, Control_c, 0, 64, 77
1, 943523, Control_c, 0, 64, 80
1, 943560, Control_c, 0, 64, 83
1, 943579, Control_c, 0, 64, 87
1, 943598, Control_c, 0, 64, 91
1, 943616, Control_c, 0, 64, 96
1, 943635, Control_c, 0, 64, 101
1, 943653, Control_c, 0, 64, 106
1, 943673, Control_c, 0, 64, 110
1, 943691, Control_c, 0, 64, 114
1, 943728, Control_c, 0, 64, 121
1, 943765, Control_c, 0, 64, 127
1, 944201, Note_on_c, 0, 75, 40
1, 944367, Note_off_c, 0, 75, 52
1, 944422, Note_on_c, 0, 72, 36
1, 944533, Note_off_c, 0, 72, 54
1, 944542, Note_on_c, 0, 77, 51
1, 944601, Note_off_c, 0, 77, 55
1, 944681, Note_on_c, 0, 69, 48
1, 944773, Note_off_c, 0, 69, 38
1, 944773, Poly_aftertouch_c, 0, 69, 0
1, 944788, Note_on_c, 0, 73, 56
1, 944859, Note_off_c, 0, 73, 57
1, 944894, Note_on_c, 0, 70, 55
1, 944961, Note_off_c, 0, 70, 47
1, 944978, Note_on_c, 0, 75, 51
1, 945077, Note_on_c, 0, 67, 49
1, 945080, Note_off_c, 0, 75, 64
1, 945157, Note_off_c, 0, 67, 41
1, 945163, Note_on_c, 0, 72, 49
1, 945168, Control_c, 0, 64, 121
1, 945206, Control_c, 0, 64, 114
1, 945211, Note_off_c, 0, 72, 51
1, 945225, Control_c, 0, 64, 109
1, 945244, Control_c, 0, 64, 105
1, 945248, Note_on_c, 0, 68, 58
1, 945280, Control_c, 0, 64, 98
1, 945318, Control_c, 0, 64, 91
1, 945329, Note_off_c, 0, 68, 59
1, 945337, Control_c, 0, 64, 88
1, 945339, Note_on_c, 0, 73, 65
1, 945356, Control_c, 0, 64, 85
1, 945373, Control_c, 0, 64, 83
1, 945412, Control_c, 0, 64, 81
1, 945423, Note_on_c, 0, 65, 54
1, 945441, Note_off_c, 0, 73, 46
1, 945486, Control_c, 0, 64, 78
1, 945489, Note_off_c, 0, 65, 50
1, 945489, Note_on_c, 0, 70, 64
1, 945523, Control_c, 0, 64, 75
1, 945542, Control_c, 0, 64, 73
1, 945561, Control_c, 0, 64, 70
1, 945565, Note_off_c, 0, 70, 56
1, 945579, Control_c, 0, 64, 68
1, 945589, Note_on_c, 0, 67, 66
1, 945597, Control_c, 0, 64, 66
1, 945618, Control_c, 0, 64, 64
1, 945636, Control_c, 0, 64, 62
1, 945655, Control_c, 0, 64, 60
1, 945662, Note_off_c, 0, 67, 58
1, 945673, Control_c, 0, 64, 58
1, 945677, Note_on_c, 0, 72, 57
1, 945710, Control_c, 0, 64, 54
1, 945725, Note_off_c, 0, 72, 59
1, 945729, Control_c, 0, 64, 52
1, 945742, Note_on_c, 0, 64, 65
1, 945767, Control_c, 0, 64, 48
1, 945804, Control_c, 0, 64, 46
1, 945825, Note_on_c, 0, 68, 59
1, 945849, Note_off_c, 0, 64, 55
1, 945849, Poly_aftertouch_c, 0, 64, 0
1, 945899, Note_off_c, 0, 68, 60
1, 945914, Note_on_c, 0, 65, 64
1, 945936, Control_c, 0, 64, 44
1, 945979, Note_off_c, 0, 65, 58
1, 946008, Note_on_c, 0, 70, 53
1, 946065, Note_on_c, 0, 62, 47
1, 946087, Note_off_c, 0, 70, 63
1, 946103, Control_c, 0, 64, 42
1, 946121, Note_off_c, 0, 62, 43
1, 946121, Control_c, 0, 64, 40
1, 946161, Note_on_c, 0, 67, 55
1, 946177, Control_c, 0, 64, 34
1, 946181, Note_on_c, 0, 51, 53
1, 946216, Control_c, 0, 64, 27
1, 946220, Note_off_c, 0, 67, 61
1, 946252, Control_c, 0, 64, 22
1, 946254, Note_on_c, 0, 63, 56
1, 946320, Note_off_c, 0, 63, 59
1, 946320, Poly_aftertouch_c, 0, 63, 0
1, 946358, Note_on_c, 0, 62, 51
1, 946419, Note_off_c, 0, 62, 59
1, 946436, Note_on_c, 0, 63, 54
1, 946525, Note_off_c, 0, 63, 60
1, 946525, Poly_aftertouch_c, 0, 63, 0
1, 946529, Note_on_c, 0, 67, 55
1, 946550, Note_on_c, 0, 61, 50
1, 946656, Note_off_c, 0, 67, 61
1, 946659, Note_on_c, 0, 63, 43
1, 946704, Note_off_c, 0, 63, 54
1, 946704, Poly_aftertouch_c, 0, 63, 0
1, 946712, Note_off_c, 0, 61, 60
1, 946716, Note_on_c, 0, 60, 48
1, 946718, Note_on_c, 0, 68, 51
1, 946812, Note_on_c, 0, 63, 54
1, 946879, Note_off_c, 0, 63, 56
1, 946879, Poly_aftertouch_c, 0, 63, 0
1, 946891, Note_on_c, 0, 58, 58
1, 946902, Note_on_c, 0, 70, 58
1, 946904, Note_off_c, 0, 60, 57
1, 946904, Poly_aftertouch_c, 0, 60, 0
1, 946951, Note_off_c, 0, 68, 59
1, 946959, Note_off_c, 0, 70, 60
1, 946986, Note_on_c, 0, 63, 55
1, 947065, Note_on_c, 0, 56, 62
1, 947071, Note_off_c, 0, 58, 58
1, 947074, Note_off_c, 0, 63, 51
1, 947074, Poly_aftertouch_c, 0, 63, 0
1, 947084, Note_on_c, 0, 72, 62
1, 947161, Note_off_c, 0, 72, 60
1, 947172, Note_on_c, 0, 63, 41
1, 947232, Note_off_c, 0, 56, 59
1, 947232, Poly_aftertouch_c, 0, 56, 0
1, 947242, Note_on_c, 0, 55, 57
1, 947243, Note_off_c, 0, 63, 60
1, 947243, Poly_aftertouch_c, 0, 63, 0
1, 947251, Note_on_c, 0, 73, 68
1, 947338, Note_off_c, 0, 73, 59
1, 947353, Note_on_c, 0, 63, 63
1, 947415, Note_off_c, 0, 63, 57
1, 947415, Poly_aftertouch_c, 0, 63, 0
1, 947425, Note_on_c, 0, 74, 75
1, 947442, Note_on_c, 0, 53, 63
1, 947451, Note_off_c, 0, 51, 61
1, 947451, Poly_aftertouch_c, 0, 51, 0
1, 947460, Note_off_c, 0, 55, 58
1, 947460, Poly_aftertouch_c, 0, 55, 0
1, 947500, Note_off_c, 0, 74, 63
1, 947523, Note_on_c, 0, 63, 57
1, 947569, Note_off_c, 0, 63, 65
1, 947569, Poly_aftertouch_c, 0, 63, 0
1, 947599, Note_on_c, 0, 75, 79
1, 947613, Note_on_c, 0, 51, 66
1, 947618, Note_off_c, 0, 53, 60
1, 947618, Poly_aftertouch_c, 0, 53, 0
1, 947637, Control_c, 0, 67, 120
1, 947655, Control_c, 0, 64, 26
1, 947657, Control_c, 0, 67, 115
1, 947666, Note_on_c, 0, 63, 58
1, 947667, Note_off_c, 0, 75, 65
1, 947672, Control_c, 0, 67, 111
1, 947693, Control_c, 0, 67, 105
1, 947711, Control_c, 0, 67, 99
1, 947729, Note_off_c, 0, 63, 57
1, 947729, Poly_aftertouch_c, 0, 63, 0
1, 947731, Control_c, 0, 67, 91
1, 947749, Control_c, 0, 67, 84
1, 947767, Control_c, 0, 67, 79
1, 947772, Note_on_c, 0, 75, 78
1, 947777, Note_on_c, 0, 67, 67
1, 947786, Control_c, 0, 67, 73
1, 947787, Note_on_c, 0, 49, 69
1, 947794, Note_off_c, 0, 51, 32
1, 947794, Poly_aftertouch_c, 0, 51, 0
1, 947805, Control_c, 0, 67, 65
1, 947824, Control_c, 0, 67, 54
1, 947838, Note_off_c, 0, 67, 61
1, 947841, Control_c, 0, 67, 43
1, 947844, Note_off_c, 0, 49, 54
1, 947844, Note_off_c, 0, 75, 63
1, 947844, Poly_aftertouch_c, 0, 49, 0
1, 947859, Note_on_c, 0, 63, 66
1, 947859, Control_c, 0, 67, 31
1, 947879, Control_c, 0, 67, 19
1, 947932, Note_off_c, 0, 63, 58
1, 947932, Poly_aftertouch_c, 0, 63, 0
1, 947945, Note_on_c, 0, 48, 67
1, 947954, Control_c, 0, 67, 0
1, 947959, Note_on_c, 0, 68, 70
1, 947959, Note_on_c, 0, 75, 79
1, 947982, Note_off_c, 0, 48, 66
1, 947982, Poly_aftertouch_c, 0, 48, 0
1, 948036, Note_off_c, 0, 68, 60
1, 948046, Note_off_c, 0, 75, 62
1, 948051, Note_on_c, 0, 63, 67
1, 948104, Control_c, 0, 64, 21
1, 948125, Note_off_c, 0, 63, 57
1, 948125, Poly_aftertouch_c, 0, 63, 0
1, 948125, Control_c, 0, 64, 17
1, 948129, Note_on_c, 0, 44, 65
1, 948142, Note_on_c, 0, 75, 60
1, 948143, Control_c, 0, 64, 11
1, 948144, Note_on_c, 0, 72, 65
1, 948151, Note_on_c, 0, 68, 54
1, 948159, Control_c, 0, 64, 0
1, 948162, Note_off_c, 0, 44, 64
1, 948162, Poly_aftertouch_c, 0, 44, 0
1, 948190, Note_off_c, 0, 68, 66
1, 948217, Note_off_c, 0, 75, 63
1, 948217, Note_on_c, 0, 63, 63
1, 948225, Note_off_c, 0, 72, 62
1, 948235, Control_c, 0, 67, 8
1, 948272, Control_c, 0, 67, 14
1, 948309, Note_off_c, 0, 63, 57
1, 948309, Poly_aftertouch_c, 0, 63, 0
1, 948310, Control_c, 0, 67, 23
1, 948320, Note_on_c, 0, 75, 69
1, 948323, Note_on_c, 0, 51, 59
1, 948323, Note_on_c, 0, 70, 64
1, 948327, Note_on_c, 0, 67, 60
1, 948329, Control_c, 0, 67, 31
1, 948347, Control_c, 0, 67, 40
1, 948366, Note_off_c, 0, 51, 61
1, 948366, Poly_aftertouch_c, 0, 51, 0
1, 948368, Poly_aftertouch_c, 0, 68, 0
1, 948368, Control_c, 0, 67, 50
1, 948385, Control_c, 0, 67, 61
1, 948389, Note_off_c, 0, 75, 64
1, 948404, Control_c, 0, 67, 72
1, 948410, Note_off_c, 0, 70, 62
1, 948411, Note_on_c, 0, 63, 69
1, 948422, Control_c, 0, 67, 84
1, 948441, Control_c, 0, 67, 95
1, 948459, Control_c, 0, 64, 21
1, 948461, Control_c, 0, 67, 106
1, 948474, Note_off_c, 0, 63, 59
1, 948474, Poly_aftertouch_c, 0, 63, 0
1, 948477, Control_c, 0, 64, 39
1, 948478, Control_c, 0, 67, 117
1, 948494, Note_on_c, 0, 39, 56
1, 948496, Control_c, 0, 64, 54
1, 948497, Control_c, 0, 67, 127
1, 948499, Note_on_c, 0, 70, 51
1, 948502, Note_on_c, 0, 75, 65
1, 948516, Control_c, 0, 64, 67
1, 948534, Control_c, 0, 64, 74
1, 948536, Note_off_c, 0, 67, 28
1, 948538, Note_off_c, 0, 39, 61
1, 948552, Control_c, 0, 64, 77
1, 948566, Note_off_c, 0, 70, 58
1, 948590, Control_c, 0, 64, 79
1, 948602, Note_on_c, 0, 63, 65
1, 948644, Note_off_c, 0, 63, 62
1, 948644, Poly_aftertouch_c, 0, 63, 0
1, 948654, Note_off_c, 0, 75, 60
1, 948759, Control_c, 0, 64, 76
1, 948777, Control_c, 0, 64, 74
1, 948790, Note_on_c, 0, 63, 58
1, 948796, Control_c, 0, 64, 72
1, 948815, Control_c, 0, 64, 70
1, 948834, Control_c, 0, 64, 68
1, 948839, Note_on_c, 0, 72, 48
1, 948852, Control_c, 0, 64, 66
1, 948871, Control_c, 0, 64, 64
1, 948889, Control_c, 0, 64, 62
1, 948890, Note_off_c, 0, 72, 52
1, 948901, Note_on_c, 0, 75, 66
1, 948909, Control_c, 0, 64, 60
1, 948918, Note_off_c, 0, 63, 56
1, 948918, Poly_aftertouch_c, 0, 63, 0
1, 948945, Control_c, 0, 64, 58
1, 948951, Note_off_c, 0, 75, 56
1, 948963, Note_on_c, 0, 65, 54
1, 948983, Control_c, 0, 64, 56
1, 948993, Note_on_c, 0, 69, 64
1, 949014, Note_off_c, 0, 65, 62
1, 949019, Control_c, 0, 64, 54
1, 949038, Note_on_c, 0, 57, 62
1, 949058, Control_c, 0, 64, 51
1, 949073, Note_off_c, 0, 69, 41
1, 949073, Poly_aftertouch_c, 0, 69, 0
1, 949076, Note_on_c, 0, 77, 63
1, 949112, Note_off_c, 0, 57, 54
1, 949112, Poly_aftertouch_c, 0, 57, 0
1, 949134, Note_on_c, 0, 61, 64
1, 949145, Note_off_c, 0, 77, 58
1, 949161, Note_on_c, 0, 70, 71
1, 949177, Note_off_c, 0, 61, 65
1, 949189, Control_c, 0, 64, 49
1, 949211, Note_on_c, 0, 58, 55
1, 949250, Note_on_c, 0, 73, 60
1, 949256, Note_off_c, 0, 58, 64
1, 949276, Note_on_c, 0, 63, 69
1, 949289, Note_off_c, 0, 73, 68
1, 949295, Note_off_c, 0, 70, 57
1, 949326, Note_on_c, 0, 67, 65
1, 949340, Note_off_c, 0, 63, 55
1, 949340, Poly_aftertouch_c, 0, 63, 0
1, 949378, Note_on_c, 0, 55, 54
1, 949404, Note_on_c, 0, 75, 73
1, 949413, Control_c, 0, 64, 47
1, 949431, Note_off_c, 0, 67, 55
1, 949434, Note_off_c, 0, 55, 63
1, 949434, Poly_aftertouch_c, 0, 55, 0
1, 949450, Control_c, 0, 64, 45
1, 949456, Note_on_c, 0, 60, 60
1, 949488, Note_on_c, 0, 68, 56
1, 949518, Note_off_c, 0, 60, 57
1, 949518, Poly_aftertouch_c, 0, 60, 0
1, 949549, Note_on_c, 0, 56, 62
1, 949566, Note_off_c, 0, 75, 58
1, 949566, Note_on_c, 0, 72, 61
1, 949580, Note_off_c, 0, 68, 58
1, 949614, Note_off_c, 0, 56, 56
1, 949614, Poly_aftertouch_c, 0, 56, 0
1, 949616, Poly_aftertouch_c, 0, 73, 0
1, 949621, Note_on_c, 0, 61, 66
1, 949627, Note_off_c, 0, 72, 57
1, 949642, Poly_aftertouch_c, 0, 73, 0
1, 949643, Note_on_c, 0, 65, 70
1, 949694, Note_off_c, 0, 61, 60
1, 949718, Note_on_c, 0, 53, 59
1, 949738, Note_off_c, 0, 65, 44
1, 949769, Control_c, 0, 64, 43
1, 949775, Poly_aftertouch_c, 0, 73, 127
1, 949802, Note_off_c, 0, 53, 60
1, 949802, Poly_aftertouch_c, 0, 53, 0
1, 949808, Note_on_c, 0, 58, 68
1, 949829, Note_on_c, 0, 67, 72
1, 949843, Control_c, 0, 64, 38
1, 949848, Poly_aftertouch_c, 0, 73, 0
1, 949899, Note_on_c, 0, 55, 55
1, 949900, Note_on_c, 0, 70, 77
1, 949900, Control_c, 0, 64, 33
1, 949904, Note_off_c, 0, 58, 58
1, 949914, Note_off_c, 0, 67, 61
1, 949937, Control_c, 0, 67, 123
1, 949942, Note_off_c, 0, 55, 63
1, 949942, Poly_aftertouch_c, 0, 55, 0
1, 949965, Note_off_c, 0, 70, 65
1, 949971, Note_on_c, 0, 60, 64
1, 949973, Control_c, 0, 67, 118
1, 949982, Note_on_c, 0, 64, 73
1, 950011, Control_c, 0, 67, 111
1, 950031, Control_c, 0, 67, 107
1, 950046, Note_on_c, 0, 52, 64
1, 950048, Control_c, 0, 67, 102
1, 950055, Note_off_c, 0, 60, 58
1, 950055, Poly_aftertouch_c, 0, 60, 0
1, 950067, Control_c, 0, 67, 96
1, 950073, Note_on_c, 0, 72, 71
1, 950084, Note_off_c, 0, 64, 53
1, 950084, Poly_aftertouch_c, 0, 64, 0
1, 950085, Control_c, 0, 67, 90
1, 950105, Control_c, 0, 67, 84
1, 950116, Note_off_c, 0, 52, 60
1, 950124, Control_c, 0, 67, 78
1, 950136, Note_on_c, 0, 56, 76
1, 950141, Control_c, 0, 67, 74
1, 950149, Note_off_c, 0, 72, 61
1, 950155, Note_on_c, 0, 65, 68
1, 950180, Control_c, 0, 67, 68
1, 950202, Note_off_c, 0, 56, 63
1, 950202, Poly_aftertouch_c, 0, 56, 0
1, 950217, Control_c, 0, 67, 62
1, 950228, Note_on_c, 0, 53, 41
1, 950233, Note_on_c, 0, 68, 70
1, 950240, Note_off_c, 0, 65, 63
1, 950256, Control_c, 0, 67, 55
1, 950280, Note_off_c, 0, 53, 52
1, 950280, Poly_aftertouch_c, 0, 53, 0
1, 950283, Note_off_c, 0, 68, 63
1, 950290, Control_c, 0, 67, 48
1, 950293, Note_on_c, 0, 62, 70
1, 950296, Note_on_c, 0, 58, 66
1, 950311, Control_c, 0, 67, 44
1, 950330, Control_c, 0, 67, 38
1, 950343, Note_off_c, 0, 58, 59
1, 950346, Control_c, 0, 64, 29
1, 950348, Control_c, 0, 67, 32
1, 950367, Control_c, 0, 64, 25
1, 950368, Control_c, 0, 67, 24
1, 950383, Note_on_c, 0, 50, 60
1, 950384, Control_c, 0, 64, 11
1, 950385, Control_c, 0, 67, 12
1, 950392, Note_on_c, 0, 70, 71
1, 950404, Control_c, 0, 64, 0
1, 950420, Note_off_c, 0, 62, 56
1, 950421, Control_c, 0, 67, 0
1, 950438, Note_off_c, 0, 50, 62
1, 950438, Poly_aftertouch_c, 0, 50, 0
1, 950481, Note_on_c, 0, 63, 63
1, 950485, Note_on_c, 0, 55, 65
1, 950544, Note_off_c, 0, 55, 58
1, 950544, Poly_aftertouch_c, 0, 55, 0
1, 950552, Control_c, 0, 67, 10
1, 950571, Note_on_c, 0, 51, 72
1, 950571, Control_c, 0, 64, 17
1, 950572, Control_c, 0, 67, 15
1, 950574, Note_off_c, 0, 63, 62
1, 950574, Poly_aftertouch_c, 0, 63, 0
1, 950591, Control_c, 0, 64, 35
1, 950592, Control_c, 0, 67, 23
1, 950598, Note_off_c, 0, 70, 63
1, 950609, Control_c, 0, 64, 50
1, 950611, Control_c, 0, 67, 33
1, 950628, Control_c, 0, 64, 60
1, 950629, Control_c, 0, 67, 44
1, 950646, Note_off_c, 0, 51, 58
1, 950646, Poly_aftertouch_c, 0, 51, 0
1, 950646, Control_c, 0, 64, 67
1, 950647, Control_c, 0, 67, 52
1, 950666, Control_c, 0, 67, 60
1, 950675, Note_on_c, 0, 50, 56
1, 950683, Control_c, 0, 67, 68
1, 950703, Control_c, 0, 64, 62
1, 950705, Control_c, 0, 67, 76
1, 950723, Control_c, 0, 64, 56
1, 950724, Control_c, 0, 67, 84
1, 950740, Control_c, 0, 64, 47
1, 950742, Control_c, 0, 67, 93
1, 950743, Note_off_c, 0, 50, 57
1, 950743, Poly_aftertouch_c, 0, 50, 0
1, 950759, Control_c, 0, 64, 34
1, 950760, Control_c, 0, 67, 102
1, 950766, Note_on_c, 0, 51, 63
1, 950778, Control_c, 0, 64, 8
1, 950779, Control_c, 0, 67, 109
1, 950797, Control_c, 0, 64, 0
1, 950798, Control_c, 0, 67, 115
1, 950808, Note_off_c, 0, 51, 62
1, 950808, Poly_aftertouch_c, 0, 51, 0
1, 950853, Control_c, 0, 64, 23
1, 950854, Control_c, 0, 67, 119
1, 950859, Note_on_c, 0, 55, 65
1, 950870, Note_on_c, 0, 85, 77
1, 950872, Control_c, 0, 64, 42
1, 950884, Note_on_c, 0, 73, 60
1, 950890, Control_c, 0, 64, 59
1, 950909, Control_c, 0, 64, 71
1, 950927, Control_c, 0, 64, 76
1, 950937, Note_off_c, 0, 55, 55
1, 950937, Poly_aftertouch_c, 0, 55, 0
1, 950955, Note_off_c, 0, 85, 64
1, 950960, Note_on_c, 0, 51, 48
1, 950966, Control_c, 0, 64, 67
1, 950980, Note_off_c, 0, 73, 63
1, 950984, Control_c, 0, 64, 57
1, 951003, Control_c, 0, 64, 50
1, 951019, Note_off_c, 0, 51, 61
1, 951019, Poly_aftertouch_c, 0, 51, 0
1, 951019, Control_c, 0, 64, 48
1, 951030, Note_on_c, 0, 56, 60
1, 951038, Control_c, 0, 64, 50
1, 951058, Control_c, 0, 64, 55
1, 951061, Note_on_c, 0, 84, 73
1, 951074, Note_on_c, 0, 72, 62
1, 951077, Control_c, 0, 64, 59
1, 951078, Control_c, 0, 67, 115
1, 951096, Control_c, 0, 64, 54
1, 951114, Control_c, 0, 64, 43
1, 951117, Note_off_c, 0, 72, 61
1, 951128, Note_off_c, 0, 56, 61
1, 951128, Poly_aftertouch_c, 0, 56, 0
1, 951133, Note_on_c, 0, 51, 66
1, 951133, Control_c, 0, 64, 25
1, 951170, Control_c, 0, 64, 9
1, 951172, Control_c, 0, 67, 108
1, 951191, Control_c, 0, 64, 25
1, 951192, Control_c, 0, 67, 102
1, 951193, Note_off_c, 0, 84, 54
1, 951208, Control_c, 0, 64, 41
1, 951209, Control_c, 0, 67, 95
1, 951227, Note_on_c, 0, 82, 76
1, 951227, Control_c, 0, 64, 57
1, 951228, Control_c, 0, 67, 86
1, 951235, Note_off_c, 0, 51, 59
1, 951235, Poly_aftertouch_c, 0, 51, 0
1, 951237, Note_on_c, 0, 58, 67
1, 951240, Note_on_c, 0, 70, 73
1, 951246, Control_c, 0, 64, 72
1, 951248, Control_c, 0, 67, 78
1, 951265, Control_c, 0, 64, 77
1, 951266, Control_c, 0, 67, 71
1, 951283, Control_c, 0, 64, 74
1, 951284, Control_c, 0, 67, 66
1, 951295, Note_off_c, 0, 82, 61
1, 951295, Poly_aftertouch_c, 0, 82, 0
1, 951300, Control_c, 0, 64, 69
1, 951301, Control_c, 0, 67, 61
1, 951304, Note_off_c, 0, 70, 60
1, 951321, Control_c, 0, 64, 66
1, 951323, Control_c, 0, 67, 56
1, 951340, Control_c, 0, 67, 52
1, 951346, Note_off_c, 0, 58, 62
1, 951352, Note_on_c, 0, 51, 65
1, 951358, Control_c, 0, 64, 69
1, 951359, Control_c, 0, 67, 47
1, 951378, Control_c, 0, 64, 71
1, 951395, Control_c, 0, 64, 75
1, 951397, Control_c, 0, 67, 41
1, 951407, Note_off_c, 0, 51, 57
1, 951407, Poly_aftertouch_c, 0, 51, 0
1, 951409, Note_on_c, 0, 60, 63
1, 951413, Control_c, 0, 64, 78
1, 951417, Note_on_c, 0, 80, 77
1, 951422, Note_on_c, 0, 68, 74
1, 951433, Control_c, 0, 64, 80
1, 951434, Control_c, 0, 67, 37
1, 951451, Control_c, 0, 67, 32
1, 951458, Note_off_c, 0, 60, 60
1, 951458, Poly_aftertouch_c, 0, 60, 0
1, 951470, Control_c, 0, 67, 27
1, 951482, Note_off_c, 0, 80, 58
1, 951482, Poly_aftertouch_c, 0, 80, 0
1, 951488, Control_c, 0, 67, 21
1, 951490, Note_off_c, 0, 68, 61
1, 951507, Control_c, 0, 67, 14
1, 951515, Poly_aftertouch_c, 0, 70, 0
1, 951519, Note_on_c, 0, 51, 65
1, 951527, Control_c, 0, 67, 8
1, 951594, Note_off_c, 0, 51, 54
1, 951594, Poly_aftertouch_c, 0, 51, 0
1, 951599, Note_on_c, 0, 61, 70
1, 951600, Note_on_c, 0, 79, 82
1, 951600, Note_on_c, 0, 67, 78
1, 951602, Control_c, 0, 64, 78
1, 951603, Control_c, 0, 67, 0
1, 951660, Note_off_c, 0, 67, 60
1, 951662, Note_off_c, 0, 79, 60
1, 951662, Poly_aftertouch_c, 0, 79, 0
1, 951688, Note_off_c, 0, 61, 58
1, 951695, Note_on_c, 0, 51, 71
1, 951773, Note_off_c, 0, 51, 58
1, 951773, Poly_aftertouch_c, 0, 51, 0
1, 951778, Note_on_c, 0, 77, 83
1, 951780, Note_on_c, 0, 62, 70
1, 951787, Note_on_c, 0, 65, 75
1, 951788, Control_c, 0, 64, 76
1, 951825, Control_c, 0, 64, 73
1, 951833, Note_off_c, 0, 65, 60
1, 951841, Note_off_c, 0, 77, 61
1, 951843, Note_off_c, 0, 62, 61
1, 951862, Control_c, 0, 64, 70
1, 951869, Note_on_c, 0, 51, 72
1, 951881, Control_c, 0, 64, 68
1, 951900, Control_c, 0, 64, 65
1, 951918, Control_c, 0, 64, 61
1, 951939, Control_c, 0, 64, 58
1, 951955, Control_c, 0, 64, 53
1, 951964, Note_on_c, 0, 75, 80
1, 951970, Note_off_c, 0, 51, 60
1, 951970, Poly_aftertouch_c, 0, 51, 0
1, 951973, Note_on_c, 0, 63, 74
1, 951975, Control_c, 0, 64, 45
1, 951990, Note_off_c, 0, 75, 69
1, 951992, Control_c, 0, 64, 32
1, 952013, Control_c, 0, 64, 11
1, 952031, Control_c, 0, 64, 0
1, 952047, Note_off_c, 0, 63, 60
1, 952047, Poly_aftertouch_c, 0, 63, 0
1, 952068, Control_c, 0, 67, 8
1, 952087, Note_on_c, 0, 51, 72
1, 952144, Note_on_c, 0, 75, 83
1, 952146, Note_on_c, 0, 72, 81
1, 952154, Note_on_c, 0, 68, 73
1, 952165, Note_off_c, 0, 51, 58
1, 952165, Poly_aftertouch_c, 0, 51, 0
1, 952169, Note_on_c, 0, 63, 70
1, 952173, Note_off_c, 0, 72, 71
1, 952187, Note_off_c, 0, 68, 72
1, 952197, Note_off_c, 0, 75, 61
1, 952228, Note_off_c, 0, 63, 54
1, 952228, Poly_aftertouch_c, 0, 63, 0
1, 952276, Note_on_c, 0, 51, 74
1, 952321, Note_on_c, 0, 70, 81
1, 952325, Note_on_c, 0, 73, 77
1, 952330, Note_on_c, 0, 75, 73
1, 952349, Control_c, 0, 67, 0
1, 952359, Note_off_c, 0, 51, 59
1, 952359, Poly_aftertouch_c, 0, 51, 0
1, 952360, Note_off_c, 0, 75, 70
1, 952360, Note_off_c, 0, 70, 64
1, 952365, Note_on_c, 0, 63, 66
1, 952369, Note_off_c, 0, 73, 64
1, 952409, Note_off_c, 0, 63, 64
1, 952409, Poly_aftertouch_c, 0, 63, 0
1, 952457, Note_on_c, 0, 51, 63
1, 952505, Note_off_c, 0, 51, 59
1, 952505, Poly_aftertouch_c, 0, 51, 0
1, 952513, Note_on_c, 0, 75, 71
1, 952517, Note_on_c, 0, 67, 71
1, 952529, Note_on_c, 0, 63, 71
1, 952545, Note_off_c, 0, 75, 68
1, 952548, Note_on_c, 0, 70, 26
1, 952550, Note_off_c, 0, 67, 69
1, 952565, Note_off_c, 0, 63, 65
1, 952565, Poly_aftertouch_c, 0, 63, 0
1, 952598, Note_off_c, 0, 70, 42
1, 952612, Note_on_c, 0, 51, 57
1, 952628, Control_c, 0, 67, 8
1, 952642, Note_off_c, 0, 51, 58
1, 952642, Poly_aftertouch_c, 0, 51, 0
1, 952666, Control_c, 0, 67, 13
1, 952688, Note_on_c, 0, 75, 74
1, 952693, Note_on_c, 0, 56, 72
1, 952701, Note_on_c, 0, 72, 69
1, 952703, Control_c, 0, 67, 21
1, 952714, Note_on_c, 0, 68, 67
1, 952722, Control_c, 0, 67, 29
1, 952733, Note_off_c, 0, 56, 65
1, 952733, Poly_aftertouch_c, 0, 56, 0
1, 952740, Control_c, 0, 67, 40
1, 952759, Control_c, 0, 67, 51
1, 952779, Control_c, 0, 64, 19
1, 952781, Control_c, 0, 67, 61
1, 952797, Control_c, 0, 64, 42
1, 952799, Control_c, 0, 67, 71
1, 952816, Control_c, 0, 64, 59
1, 952817, Control_c, 0, 67, 79
1, 952835, Control_c, 0, 64, 72
1, 952836, Control_c, 0, 67, 87
1, 952844, Note_off_c, 0, 72, 61
1, 952852, Control_c, 0, 64, 79
1, 952853, Control_c, 0, 67, 96
1, 952865, Note_off_c, 0, 75, 63
1, 952866, Note_on_c, 0, 44, 66
1, 952871, Control_c, 0, 64, 83
1, 952872, Control_c, 0, 67, 107
1, 952874, Note_off_c, 0, 68, 60
1, 952892, Control_c, 0, 64, 88
1, 952894, Control_c, 0, 67, 122
1, 952905, Note_off_c, 0, 44, 65
1, 952905, Poly_aftertouch_c, 0, 44, 0
1, 952909, Control_c, 0, 67, 127
1, 952929, Control_c, 0, 64, 92
1, 953041, Control_c, 0, 64, 85
1, 953059, Control_c, 0, 64, 80
1, 953078, Control_c, 0, 64, 74
1, 953083, Note_on_c, 0, 60, 61
1, 953091, Note_on_c, 0, 58, 46
1, 953096, Control_c, 0, 64, 68
1, 953115, Control_c, 0, 64, 62
1, 953123, Note_off_c, 0, 60, 59
1, 953123, Poly_aftertouch_c, 0, 60, 0
1, 953135, Control_c, 0, 64, 58
1, 953153, Control_c, 0, 64, 52
1, 953164, Note_on_c, 0, 72, 60
1, 953171, Control_c, 0, 64, 43
1, 953190, Control_c, 0, 64, 31
1, 953209, Control_c, 0, 64, 16
1, 953227, Control_c, 0, 64, 0
1, 953232, Note_off_c, 0, 72, 53
1, 953235, Note_off_c, 0, 58, 62
1, 953261, Note_on_c, 0, 64, 63
1, 953279, Note_on_c, 0, 55, 49
1, 953299, Note_off_c, 0, 64, 66
1, 953299, Poly_aftertouch_c, 0, 64, 0
1, 953347, Note_on_c, 0, 72, 64
1, 953425, Note_off_c, 0, 72, 61
1, 953440, Note_on_c, 0, 67, 64
1, 953445, Note_on_c, 0, 52, 51
1, 953446, Note_off_c, 0, 55, 55
1, 953446, Poly_aftertouch_c, 0, 55, 0
1, 953480, Note_off_c, 0, 67, 63
1, 953507, Note_on_c, 0, 72, 55
1, 953600, Note_off_c, 0, 72, 61
1, 953603, Note_on_c, 0, 71, 70
1, 953614, Note_on_c, 0, 48, 68
1, 953664, Note_off_c, 0, 52, 57
1, 953671, Note_off_c, 0, 71, 53
1, 953688, Note_on_c, 0, 72, 63
1, 953787, Note_off_c, 0, 72, 61
1, 953787, Note_on_c, 0, 50, 69
1, 953790, Note_on_c, 0, 70, 66
1, 953816, Note_off_c, 0, 48, 57
1, 953816, Poly_aftertouch_c, 0, 48, 0
1, 953882, Note_on_c, 0, 72, 60
1, 953886, Note_off_c, 0, 70, 63
1, 953944, Note_off_c, 0, 72, 59
1, 953965, Note_on_c, 0, 67, 63
1, 953987, Note_on_c, 0, 52, 64
1, 953988, Note_off_c, 0, 50, 61
1, 953988, Poly_aftertouch_c, 0, 50, 0
1, 954037, Note_off_c, 0, 67, 54
1, 954045, Note_on_c, 0, 72, 59
1, 954113, Note_off_c, 0, 52, 62
1, 954120, Note_off_c, 0, 72, 59
1, 954139, Note_on_c, 0, 68, 65
1, 954152, Note_on_c, 0, 53, 53
1, 954216, Note_on_c, 0, 72, 66
1, 954225, Note_off_c, 0, 68, 59
1, 954271, Note_off_c, 0, 72, 58
1, 954293, Control_c, 0, 64, 28
1, 954312, Control_c, 0, 64, 45
1, 954320, Note_on_c, 0, 65, 68
1, 954323, Note_off_c, 0, 53, 57
1, 954323, Poly_aftertouch_c, 0, 53, 0
1, 954333, Note_on_c, 0, 56, 50
1, 954333, Control_c, 0, 64, 59
1, 954351, Control_c, 0, 64, 69
1, 954367, Control_c, 0, 64, 71
1, 954377, Note_off_c, 0, 65, 60
1, 954380, Note_on_c, 0, 72, 54
1, 954408, Note_off_c, 0, 72, 60
1, 954425, Control_c, 0, 64, 69
1, 954442, Control_c, 0, 64, 66
1, 954462, Control_c, 0, 64, 63
1, 954473, Note_off_c, 0, 56, 57
1, 954473, Poly_aftertouch_c, 0, 56, 0
1, 954479, Control_c, 0, 64, 59
1, 954487, Note_on_c, 0, 46, 64
1, 954498, Note_on_c, 0, 80, 72
1, 954498, Control_c, 0, 64, 55
1, 954517, Control_c, 0, 64, 49
1, 954537, Control_c, 0, 64, 43
1, 954552, Note_off_c, 0, 46, 57
1, 954555, Control_c, 0, 64, 35
1, 954573, Control_c, 0, 64, 26
1, 954592, Control_c, 0, 64, 13
1, 954610, Note_on_c, 0, 58, 50
1, 954612, Control_c, 0, 64, 0
1, 954645, Note_off_c, 0, 58, 56
1, 954670, Note_on_c, 0, 50, 63
1, 954681, Note_on_c, 0, 77, 68
1, 954742, Note_off_c, 0, 50, 57
1, 954742, Poly_aftertouch_c, 0, 50, 0
1, 954749, Note_on_c, 0, 58, 56
1, 954757, Note_off_c, 0, 80, 61
1, 954757, Poly_aftertouch_c, 0, 80, 0
1, 954802, Note_off_c, 0, 58, 60
1, 954822, Note_off_c, 0, 77, 61
1, 954854, Note_on_c, 0, 53, 57
1, 954856, Note_on_c, 0, 74, 67
1, 954893, Note_off_c, 0, 53, 60
1, 954893, Poly_aftertouch_c, 0, 53, 0
1, 954926, Note_on_c, 0, 58, 59
1, 954967, Note_off_c, 0, 58, 60
1, 955021, Note_on_c, 0, 70, 79
1, 955029, Note_on_c, 0, 57, 59
1, 955055, Note_off_c, 0, 74, 53
1, 955096, Note_off_c, 0, 57, 60
1, 955096, Poly_aftertouch_c, 0, 57, 0
1, 955140, Note_on_c, 0, 58, 59
1, 955192, Note_off_c, 0, 58, 60
1, 955215, Note_off_c, 0, 70, 62
1, 955215, Note_on_c, 0, 72, 71
1, 955217, Note_on_c, 0, 56, 64
1, 955267, Note_off_c, 0, 56, 62
1, 955267, Poly_aftertouch_c, 0, 56, 0
1, 955314, Note_on_c, 0, 58, 65
1, 955358, Note_off_c, 0, 58, 63
1, 955399, Note_on_c, 0, 74, 73
1, 955403, Note_on_c, 0, 53, 56
1, 955445, Note_off_c, 0, 53, 57
1, 955445, Poly_aftertouch_c, 0, 53, 0
1, 955448, Note_off_c, 0, 72, 59
1, 955473, Note_on_c, 0, 58, 62
1, 955542, Note_off_c, 0, 58, 57
1, 955575, Note_on_c, 0, 55, 54
1, 955581, Note_on_c, 0, 75, 64
1, 955616, Note_off_c, 0, 55, 59
1, 955616, Poly_aftertouch_c, 0, 55, 0
1, 955629, Note_off_c, 0, 74, 60
1, 955666, Note_on_c, 0, 58, 60
1, 955696, Control_c, 0, 64, 14
1, 955711, Note_off_c, 0, 58, 63
1, 955713, Control_c, 0, 64, 35
1, 955731, Note_off_c, 0, 75, 62
1, 955733, Control_c, 0, 64, 50
1, 955742, Note_on_c, 0, 51, 63
1, 955746, Note_on_c, 0, 79, 70
1, 955752, Control_c, 0, 64, 61
1, 955771, Control_c, 0, 64, 68
1, 955778, Note_off_c, 0, 79, 66
1, 955778, Poly_aftertouch_c, 0, 79, 0
1, 955787, Note_off_c, 0, 51, 60
1, 955787, Poly_aftertouch_c, 0, 51, 0
1, 955840, Note_on_c, 0, 58, 59
1, 955883, Control_c, 0, 64, 67
1, 955902, Control_c, 0, 64, 66
1, 955920, Control_c, 0, 64, 65
1, 955939, Note_off_c, 0, 58, 57
1, 955939, Note_on_c, 0, 63, 65
1, 955939, Control_c, 0, 64, 63
1, 955958, Control_c, 0, 64, 61
1, 955964, Note_on_c, 0, 61, 58
1, 955976, Control_c, 0, 64, 58
1, 955994, Control_c, 0, 64, 55
1, 956008, Note_on_c, 0, 75, 68
1, 956013, Control_c, 0, 64, 50
1, 956030, Note_off_c, 0, 63, 58
1, 956030, Poly_aftertouch_c, 0, 63, 0
1, 956032, Control_c, 0, 64, 46
1, 956050, Control_c, 0, 64, 42
1, 956065, Note_off_c, 0, 61, 63
1, 956088, Control_c, 0, 64, 37
1, 956094, Note_off_c, 0, 75, 64
1, 956108, Note_on_c, 0, 67, 62
1, 956116, Note_on_c, 0, 58, 61
1, 956125, Control_c, 0, 64, 32
1, 956155, Note_off_c, 0, 67, 57
1, 956194, Note_on_c, 0, 75, 74
1, 956252, Note_off_c, 0, 58, 61
1, 956277, Note_off_c, 0, 75, 61
1, 956293, Note_on_c, 0, 54, 34
1, 956301, Note_on_c, 0, 70, 74
1, 956306, Note_on_c, 0, 55, 64
1, 956349, Note_off_c, 0, 70, 58
1, 956374, Note_on_c, 0, 75, 69
1, 956469, Note_off_c, 0, 75, 64
1, 956473, Note_on_c, 0, 51, 72
1, 956475, Note_on_c, 0, 74, 66
1, 956476, Note_off_c, 0, 54, 22
1, 956488, Note_off_c, 0, 55, 59
1, 956488, Poly_aftertouch_c, 0, 55, 0
1, 956501, Note_on_c, 0, 73, 46
1, 956538, Note_off_c, 0, 73, 55
1, 956553, Note_on_c, 0, 75, 76
1, 956554, Note_off_c, 0, 74, 61
1, 956649, Control_c, 0, 67, 123
1, 956652, Note_on_c, 0, 53, 73
1, 956660, Note_on_c, 0, 73, 64
1, 956661, Note_off_c, 0, 51, 61
1, 956661, Poly_aftertouch_c, 0, 51, 0
1, 956669, Note_off_c, 0, 75, 60
1, 956688, Control_c, 0, 67, 118
1, 956724, Control_c, 0, 67, 111
1, 956742, Control_c, 0, 67, 107
1, 956751, Note_on_c, 0, 75, 58
1, 956758, Note_off_c, 0, 73, 58
1, 956760, Control_c, 0, 67, 103
1, 956780, Control_c, 0, 67, 98
1, 956799, Control_c, 0, 67, 94
1, 956817, Control_c, 0, 67, 88
1, 956822, Note_off_c, 0, 53, 61
1, 956822, Poly_aftertouch_c, 0, 53, 0
1, 956824, Note_off_c, 0, 75, 64
1, 956827, Note_on_c, 0, 70, 74
1, 956837, Note_on_c, 0, 55, 68
1, 956837, Control_c, 0, 67, 82
1, 956854, Control_c, 0, 67, 77
1, 956893, Control_c, 0, 67, 71
1, 956926, Note_on_c, 0, 75, 73
1, 956927, Note_off_c, 0, 70, 61
1, 956928, Control_c, 0, 67, 66
1, 956964, Note_off_c, 0, 55, 60
1, 956964, Poly_aftertouch_c, 0, 55, 0
1, 956967, Control_c, 0, 67, 61
1, 956985, Control_c, 0, 64, 36
1, 957004, Control_c, 0, 67, 56
1, 957013, Note_on_c, 0, 56, 68
1, 957018, Note_off_c, 0, 75, 64
1, 957025, Note_on_c, 0, 72, 70
1, 957060, Control_c, 0, 67, 51
1, 957099, Note_on_c, 0, 75, 74
1, 957102, Note_off_c, 0, 72, 62
1, 957135, Control_c, 0, 67, 47
1, 957145, Note_off_c, 0, 56, 58
1, 957145, Poly_aftertouch_c, 0, 56, 0
1, 957172, Note_off_c, 0, 75, 64
1, 957175, Note_on_c, 0, 44, 78
1, 957185, Note_on_c, 0, 72, 70
1, 957191, Note_on_c, 0, 63, 72
1, 957227, Note_off_c, 0, 63, 68
1, 957227, Poly_aftertouch_c, 0, 63, 0
1, 957243, Note_off_c, 0, 44, 53
1, 957243, Poly_aftertouch_c, 0, 44, 0
1, 957276, Note_on_c, 0, 75, 81
1, 957278, Note_off_c, 0, 72, 61
1, 957355, Note_on_c, 0, 46, 73
1, 957367, Note_off_c, 0, 75, 59
1, 957368, Note_on_c, 0, 73, 78
1, 957371, Note_on_c, 0, 67, 72
1, 957403, Note_off_c, 0, 46, 59
1, 957420, Note_off_c, 0, 67, 62
1, 957462, Note_on_c, 0, 75, 71
1, 957491, Control_c, 0, 67, 40
1, 957510, Control_c, 0, 67, 35
1, 957528, Control_c, 0, 67, 29
1, 957541, Note_off_c, 0, 75, 64
1, 957546, Control_c, 0, 67, 22
1, 957548, Note_on_c, 0, 72, 73
1, 957548, Note_on_c, 0, 48, 78
1, 957549, Note_on_c, 0, 68, 73
1, 957567, Control_c, 0, 67, 11
1, 957592, Note_off_c, 0, 48, 63
1, 957592, Poly_aftertouch_c, 0, 48, 0
1, 957602, Note_off_c, 0, 68, 61
1, 957623, Control_c, 0, 67, 0
1, 957633, Note_on_c, 0, 75, 85
1, 957636, Note_off_c, 0, 73, 34
1, 957637, Poly_aftertouch_c, 0, 73, 0
1, 957643, Note_off_c, 0, 72, 61
1, 957723, Note_on_c, 0, 49, 80
1, 957730, Note_on_c, 0, 72, 72
1, 957737, Note_on_c, 0, 65, 70
1, 957741, Note_off_c, 0, 75, 65
1, 957760, Note_off_c, 0, 49, 65
1, 957760, Poly_aftertouch_c, 0, 49, 0
1, 957777, Note_off_c, 0, 65, 61
1, 957807, Note_on_c, 0, 75, 74
1, 957821, Note_off_c, 0, 72, 62
1, 957895, Note_on_c, 0, 46, 77
1, 957924, Note_on_c, 0, 65, 66
1, 957929, Note_on_c, 0, 70, 71
1, 957936, Note_off_c, 0, 46, 64
1, 957950, Note_off_c, 0, 75, 66
1, 957959, Note_on_c, 0, 73, 11
1, 957991, Note_off_c, 0, 65, 46
1, 957996, Note_off_c, 0, 70, 64
1, 958096, Note_on_c, 0, 51, 68
1, 958126, Control_c, 0, 64, 40
1, 958142, Note_off_c, 0, 51, 60
1, 958142, Poly_aftertouch_c, 0, 51, 0
1, 958152, Note_on_c, 0, 67, 55
1, 958155, Note_on_c, 0, 66, 18
1, 958159, Note_off_c, 0, 73, 60
1, 958161, Note_on_c, 0, 63, 45
1, 958164, Control_c, 0, 64, 42
1, 958199, Note_off_c, 0, 63, 55
1, 958199, Poly_aftertouch_c, 0, 63, 0
1, 958201, Control_c, 0, 64, 46
1, 958208, Note_off_c, 0, 67, 57
1, 958213, Note_on_c, 0, 72, 78
1, 958214, Note_off_c, 0, 66, 52
1, 958214, Poly_aftertouch_c, 0, 66, 0
1, 958220, Control_c, 0, 64, 48
1, 958269, Note_on_c, 0, 39, 70
1, 958274, Control_c, 0, 64, 45
1, 958294, Control_c, 0, 64, 41
1, 958297, Note_on_c, 0, 67, 70
1, 958303, Note_off_c, 0, 72, 61
1, 958309, Note_off_c, 0, 39, 60
1, 958314, Note_on_c, 0, 61, 60
1, 958314, Control_c, 0, 64, 32
1, 958329, Note_on_c, 0, 66, 46
1, 958331, Control_c, 0, 64, 0
1, 958345, Note_off_c, 0, 61, 57
1, 958368, Note_off_c, 0, 66, 40
1, 958368, Poly_aftertouch_c, 0, 66, 0
1, 958375, Note_on_c, 0, 70, 80
1, 958378, Note_off_c, 0, 67, 63
1, 958453, Note_on_c, 0, 44, 67
1, 958489, Note_on_c, 0, 68, 70
1, 958494, Note_off_c, 0, 44, 65
1, 958494, Poly_aftertouch_c, 0, 44, 0
1, 958495, Note_off_c, 0, 70, 60
1, 958499, Control_c, 0, 67, 10
1, 958505, Note_on_c, 0, 60, 51
1, 958519, Control_c, 0, 67, 17
1, 958537, Control_c, 0, 67, 28
1, 958556, Control_c, 0, 67, 43
1, 958567, Note_off_c, 0, 60, 62
1, 958567, Poly_aftertouch_c, 0, 60, 0
1, 958574, Control_c, 0, 67, 54
1, 958594, Control_c, 0, 67, 63
1, 958612, Control_c, 0, 64, 34
1, 958613, Control_c, 0, 67, 70
1, 958634, Control_c, 0, 64, 53
1, 958635, Control_c, 0, 67, 79
1, 958651, Note_off_c, 0, 68, 64
1, 958651, Control_c, 0, 64, 68
1, 958652, Control_c, 0, 67, 91
1, 958669, Control_c, 0, 64, 76
1, 958670, Control_c, 0, 67, 105
1, 958687, Control_c, 0, 64, 83
1, 958688, Control_c, 0, 67, 118
1, 958695, Note_on_c, 0, 32, 47
1, 958707, Control_c, 0, 64, 93
1, 958709, Control_c, 0, 67, 127
1, 958725, Control_c, 0, 64, 104
1, 958740, Note_off_c, 0, 32, 34
1, 958740, Poly_aftertouch_c, 0, 32, 0
1, 958744, Control_c, 0, 64, 112
1, 958838, Control_c, 0, 64, 103
1, 958856, Control_c, 0, 64, 90
1, 958874, Control_c, 0, 64, 70
1, 958895, Control_c, 0, 64, 49
1, 958912, Control_c, 0, 64, 14
1, 958925, Note_on_c, 0, 82, 65
1, 958930, Control_c, 0, 64, 0
1, 958947, Note_on_c, 0, 48, 42
1, 958960, Note_on_c, 0, 70, 47
1, 958988, Control_c, 0, 64, 27
1, 959005, Control_c, 0, 64, 48
1, 959024, Control_c, 0, 64, 64
1, 959031, Note_off_c, 0, 82, 62
1, 959031, Poly_aftertouch_c, 0, 82, 0
1, 959033, Note_off_c, 0, 70, 57
1, 959036, Note_off_c, 0, 48, 59
1, 959036, Poly_aftertouch_c, 0, 48, 0
1, 959043, Control_c, 0, 64, 71
1, 959070, Note_on_c, 0, 60, 50
1, 959124, Note_off_c, 0, 60, 60
1, 959124, Poly_aftertouch_c, 0, 60, 0
1, 959153, Control_c, 0, 64, 73
1, 959155, Note_on_c, 0, 79, 75
1, 959173, Note_on_c, 0, 67, 66
1, 959177, Note_on_c, 0, 52, 61
1, 959210, Control_c, 0, 64, 75
1, 959218, Note_off_c, 0, 79, 61
1, 959218, Note_off_c, 0, 67, 62
1, 959218, Poly_aftertouch_c, 0, 79, 0
1, 959234, Note_off_c, 0, 52, 56
1, 959247, Control_c, 0, 67, 122
1, 959252, Note_on_c, 0, 60, 59
1, 959267, Control_c, 0, 67, 116
1, 959286, Control_c, 0, 67, 108
1, 959304, Control_c, 0, 67, 98
1, 959324, Control_c, 0, 67, 88
1, 959325, Note_off_c, 0, 60, 54
1, 959325, Poly_aftertouch_c, 0, 60, 0
1, 959341, Note_on_c, 0, 76, 80
1, 959341, Control_c, 0, 67, 78
1, 959360, Control_c, 0, 67, 68
1, 959366, Note_on_c, 0, 55, 59
1, 959366, Note_on_c, 0, 64, 64
1, 959380, Control_c, 0, 67, 57
1, 959398, Control_c, 0, 67, 47
1, 959409, Note_off_c, 0, 55, 62
1, 959409, Poly_aftertouch_c, 0, 55, 0
1, 959415, Control_c, 0, 67, 37
1, 959431, Note_on_c, 0, 60, 55
1, 959434, Control_c, 0, 64, 77
1, 959435, Control_c, 0, 67, 25
1, 959454, Control_c, 0, 67, 12
1, 959485, Note_off_c, 0, 60, 58
1, 959485, Poly_aftertouch_c, 0, 60, 0
1, 959491, Control_c, 0, 67, 0
1, 959528, Control_c, 0, 64, 75
1, 959530, Note_on_c, 0, 59, 67
1, 959542, Note_on_c, 0, 72, 80
1, 959546, Control_c, 0, 64, 73
1, 959581, Note_off_c, 0, 76, 63
1, 959583, Control_c, 0, 64, 71
1, 959589, Note_off_c, 0, 59, 60
1, 959589, Poly_aftertouch_c, 0, 59, 0
1, 959623, Note_off_c, 0, 64, 57
1, 959623, Poly_aftertouch_c, 0, 64, 0
1, 959632, Note_on_c, 0, 60, 59
1, 959637, Poly_aftertouch_c, 0, 75, 0
1, 959640, Control_c, 0, 64, 73
1, 959660, Control_c, 0, 64, 70
1, 959681, Control_c, 0, 64, 59
1, 959682, Note_off_c, 0, 60, 62
1, 959682, Poly_aftertouch_c, 0, 60, 0
1, 959697, Control_c, 0, 64, 42
1, 959713, Note_on_c, 0, 58, 67
1, 959716, Note_on_c, 0, 74, 83
1, 959716, Control_c, 0, 64, 18
1, 959735, Note_on_c, 0, 62, 74
1, 959753, Control_c, 0, 64, 25
1, 959760, Note_off_c, 0, 58, 63
1, 959772, Control_c, 0, 64, 39
1, 959790, Control_c, 0, 64, 56
1, 959794, Note_on_c, 0, 60, 63
1, 959808, Control_c, 0, 64, 72
1, 959813, Note_off_c, 0, 62, 56
1, 959818, Poly_aftertouch_c, 0, 64, 0
1, 959826, Control_c, 0, 64, 83
1, 959847, Control_c, 0, 64, 92
1, 959863, Note_off_c, 0, 60, 61
1, 959863, Poly_aftertouch_c, 0, 60, 0
1, 959866, Control_c, 0, 64, 100
1, 959884, Control_c, 0, 64, 106
1, 959896, Note_on_c, 0, 55, 66
1, 959902, Control_c, 0, 64, 111
1, 959908, Note_on_c, 0, 76, 86
1, 959921, Control_c, 0, 64, 115
1, 959936, Note_off_c, 0, 72, 57
1, 959939, Note_off_c, 0, 55, 60
1, 959939, Poly_aftertouch_c, 0, 55, 0
1, 959939, Control_c, 0, 64, 121
1, 959944, Note_off_c, 0, 74, 60
1, 959958, Control_c, 0, 64, 125
1, 959969, Poly_aftertouch_c, 0, 64, 127
1, 959980, Note_on_c, 0, 60, 60
1, 959980, Poly_aftertouch_c, 0, 64, 0
1, 959995, Note_off_c, 0, 76, 64
1, 960021, Note_off_c, 0, 60, 60
1, 960021, Poly_aftertouch_c, 0, 60, 0
1, 960068, Note_on_c, 0, 56, 67
1, 960101, Note_on_c, 0, 77, 89
1, 960104, Note_on_c, 0, 65, 79
1, 960107, Note_off_c, 0, 56, 65
1, 960107, Poly_aftertouch_c, 0, 56, 0
1, 960109, Control_c, 0, 64, 104
1, 960130, Control_c, 0, 64, 78
1, 960141, Note_on_c, 0, 60, 67
1, 960148, Control_c, 0, 64, 52
1, 960164, Control_c, 0, 64, 0
1, 960170, Note_off_c, 0, 65, 60
1, 960187, Note_off_c, 0, 60, 58
1, 960187, Poly_aftertouch_c, 0, 60, 0
1, 960221, Control_c, 0, 67, 9
1, 960236, Note_on_c, 0, 53, 68
1, 960259, Control_c, 0, 64, 14
1, 960260, Note_off_c, 0, 77, 57
1, 960260, Control_c, 0, 67, 13
1, 960276, Control_c, 0, 64, 42
1, 960283, Note_on_c, 0, 80, 77
1, 960295, Control_c, 0, 64, 61
1, 960296, Note_off_c, 0, 53, 56
1, 960296, Poly_aftertouch_c, 0, 53, 0
1, 960305, Note_on_c, 0, 68, 52
1, 960314, Control_c, 0, 64, 74
1, 960320, Note_on_c, 0, 60, 67
1, 960328, Note_off_c, 0, 80, 61
1, 960328, Poly_aftertouch_c, 0, 80, 0
1, 960331, Control_c, 0, 64, 80
1, 960336, Note_off_c, 0, 68, 60
1, 960352, Control_c, 0, 64, 82
1, 960353, Control_c, 0, 67, 21
1, 960354, Note_off_c, 0, 60, 67
1, 960354, Poly_aftertouch_c, 0, 60, 0
1, 960370, Control_c, 0, 67, 26
1, 960389, Control_c, 0, 67, 32
1, 960407, Control_c, 0, 67, 37
1, 960426, Control_c, 0, 67, 42
1, 960445, Control_c, 0, 64, 79
1, 960446, Control_c, 0, 67, 46
1, 960464, Control_c, 0, 64, 77
1, 960465, Control_c, 0, 67, 51
1, 960468, Note_on_c, 0, 68, 57
1, 960480, Note_on_c, 0, 70, 68
1, 960482, Control_c, 0, 64, 74
1, 960501, Control_c, 0, 64, 71
1, 960503, Control_c, 0, 67, 58
1, 960520, Control_c, 0, 64, 67
1, 960520, Control_c, 0, 67, 62
1, 960539, Control_c, 0, 64, 62
1, 960557, Control_c, 0, 64, 58
1, 960559, Control_c, 0, 67, 68
1, 960566, Note_on_c, 0, 82, 71
1, 960567, Note_off_c, 0, 70, 49
1, 960576, Control_c, 0, 64, 54
1, 960595, Control_c, 0, 64, 49
1, 960596, Control_c, 0, 67, 74
1, 960612, Control_c, 0, 64, 42
1, 960621, Note_off_c, 0, 68, 63
1, 960632, Control_c, 0, 64, 34
1, 960634, Control_c, 0, 67, 81
1, 960643, Note_off_c, 0, 82, 62
1, 960643, Poly_aftertouch_c, 0, 82, 0
1, 960650, Control_c, 0, 64, 26
1, 960658, Note_on_c, 0, 65, 64
1, 960659, Note_on_c, 0, 74, 73
1, 960670, Control_c, 0, 64, 19
1, 960671, Control_c, 0, 67, 86
1, 960707, Control_c, 0, 64, 13
1, 960708, Control_c, 0, 67, 91
1, 960718, Note_off_c, 0, 74, 59
1, 960744, Control_c, 0, 67, 96
1, 960754, Note_on_c, 0, 82, 74
1, 960781, Control_c, 0, 64, 9
1, 960801, Control_c, 0, 67, 101
1, 960821, Note_off_c, 0, 65, 59
1, 960839, Note_off_c, 0, 82, 63
1, 960839, Poly_aftertouch_c, 0, 82, 0
1, 960847, Note_on_c, 0, 62, 63
1, 960852, Note_on_c, 0, 77, 69
1, 960894, Note_off_c, 0, 77, 59
1, 960926, Note_on_c, 0, 82, 67
1, 961009, Note_on_c, 0, 58, 78
1, 961024, Note_off_c, 0, 62, 60
1, 961031, Note_off_c, 0, 82, 63
1, 961031, Note_on_c, 0, 81, 69
1, 961031, Poly_aftertouch_c, 0, 82, 0
1, 961051, Note_on_c, 0, 80, 57
1, 961083, Note_off_c, 0, 80, 50
1, 961083, Poly_aftertouch_c, 0, 80, 0
1, 961106, Note_off_c, 0, 81, 59
1, 961106, Note_on_c, 0, 82, 76
1, 961193, Note_on_c, 0, 60, 77
1, 961210, Note_off_c, 0, 58, 61
1, 961211, Note_on_c, 0, 80, 79
1, 961226, Note_off_c, 0, 82, 63
1, 961226, Poly_aftertouch_c, 0, 82, 0
1, 961280, Note_on_c, 0, 82, 69
1, 961305, Note_off_c, 0, 80, 62
1, 961305, Poly_aftertouch_c, 0, 80, 0
1, 961324, Control_c, 0, 67, 97
1, 961342, Control_c, 0, 64, 0
1, 961357, Note_off_c, 0, 60, 58
1, 961357, Poly_aftertouch_c, 0, 60, 0
1, 961360, Control_c, 0, 67, 92
1, 961369, Note_on_c, 0, 62, 82
1, 961378, Note_on_c, 0, 77, 78
1, 961379, Control_c, 0, 67, 84
1, 961384, Note_off_c, 0, 82, 65
1, 961384, Poly_aftertouch_c, 0, 82, 0
1, 961399, Control_c, 0, 67, 69
1, 961417, Control_c, 0, 67, 52
1, 961436, Control_c, 0, 67, 33
1, 961451, Note_on_c, 0, 82, 74
1, 961455, Control_c, 0, 64, 13
1, 961456, Control_c, 0, 67, 15
1, 961474, Control_c, 0, 64, 36
1, 961475, Control_c, 0, 67, 0
1, 961478, Note_off_c, 0, 62, 57
1, 961485, Note_off_c, 0, 77, 60
1, 961491, Control_c, 0, 64, 53
1, 961511, Control_c, 0, 64, 66
1, 961530, Control_c, 0, 64, 71
1, 961548, Control_c, 0, 64, 73
1, 961550, Note_on_c, 0, 63, 80
1, 961558, Note_on_c, 0, 79, 78
1, 961565, Control_c, 0, 64, 77
1, 961567, Note_off_c, 0, 82, 65
1, 961567, Poly_aftertouch_c, 0, 82, 0
1, 961586, Control_c, 0, 64, 84
1, 961604, Control_c, 0, 64, 97
1, 961618, Note_off_c, 0, 63, 63
1, 961618, Poly_aftertouch_c, 0, 63, 0
1, 961622, Control_c, 0, 64, 118
1, 961641, Control_c, 0, 64, 127
1, 961642, Note_on_c, 0, 82, 79
1, 961672, Note_off_c, 0, 79, 61
1, 961672, Poly_aftertouch_c, 0, 79, 0
1, 961723, Note_on_c, 0, 67, 72
1, 961737, Note_on_c, 0, 75, 78
1, 961738, Note_off_c, 0, 82, 63
1, 961738, Poly_aftertouch_c, 0, 82, 0
1, 961753, Note_off_c, 0, 67, 69
1, 961801, Note_on_c, 0, 82, 70
1, 961839, Note_off_c, 0, 75, 59
1, 961859, Note_off_c, 0, 82, 64
1, 961859, Poly_aftertouch_c, 0, 82, 0
1, 961903, Control_c, 0, 64, 123
1, 961922, Control_c, 0, 64, 84
1, 961938, Poly_aftertouch_c, 0, 83, 0
1, 961941, Control_c, 0, 64, 48
1, 961943, Note_on_c, 0, 85, 80
1, 961953, Note_on_c, 0, 39, 69
1, 961960, Note_on_c, 0, 73, 71
1, 961960, Control_c, 0, 64, 0
1, 962035, Control_c, 0, 64, 42
1, 962051, Note_off_c, 0, 39, 58
1, 962051, Note_on_c, 0, 51, 65
1, 962053, Control_c, 0, 64, 69
1, 962058, Note_off_c, 0, 85, 63
1, 962064, Note_off_c, 0, 73, 63
1, 962073, Control_c, 0, 64, 90
1, 962089, Control_c, 0, 64, 112
1, 962109, Control_c, 0, 64, 127
1, 962131, Note_off_c, 0, 51, 57
1, 962131, Poly_aftertouch_c, 0, 51, 0
1, 962161, Note_on_c, 0, 82, 88
1, 962166, Note_on_c, 0, 43, 66
1, 962167, Note_on_c, 0, 70, 84
1, 962199, Note_on_c, 0, 44, 34
1, 962226, Note_off_c, 0, 82, 66
1, 962226, Poly_aftertouch_c, 0, 82, 0
1, 962234, Note_off_c, 0, 43, 62
1, 962242, Note_off_c, 0, 70, 59
1, 962251, Note_on_c, 0, 51, 68
1, 962253, Note_off_c, 0, 44, 32
1, 962253, Poly_aftertouch_c, 0, 44, 0
1, 962286, Poly_aftertouch_c, 0, 42, 0
1, 962290, Note_off_c, 0, 51, 62
1, 962290, Poly_aftertouch_c, 0, 51, 0
1, 962337, Note_on_c, 0, 46, 77
1, 962341, Note_on_c, 0, 79, 88
1, 962351, Note_on_c, 0, 67, 85
1, 962406, Note_off_c, 0, 79, 63
1, 962406, Poly_aftertouch_c, 0, 79, 0
1, 962411, Note_off_c, 0, 46, 60
1, 962414, Note_on_c, 0, 51, 70
1, 962420, Note_off_c, 0, 67, 62
1, 962483, Control_c, 0, 64, 105
1, 962502, Control_c, 0, 64, 81
1, 962519, Note_on_c, 0, 50, 78
1, 962520, Control_c, 0, 64, 71
1, 962525, Note_on_c, 0, 75, 87
1, 962528, Note_on_c, 0, 63, 89
1, 962541, Control_c, 0, 64, 74
1, 962545, Note_off_c, 0, 51, 35
1, 962545, Poly_aftertouch_c, 0, 51, 0
1, 962557, Control_c, 0, 64, 79
1, 962577, Control_c, 0, 64, 89
1, 962595, Note_off_c, 0, 63, 66
1, 962595, Poly_aftertouch_c, 0, 63, 0
1, 962595, Control_c, 0, 64, 105
1, 962602, Note_off_c, 0, 50, 62
1, 962602, Poly_aftertouch_c, 0, 50, 0
1, 962614, Control_c, 0, 64, 125
1, 962621, Note_on_c, 0, 51, 69
1, 962658, Note_off_c, 0, 75, 58
1, 962708, Note_on_c, 0, 77, 95
1, 962709, Note_on_c, 0, 65, 91
1, 962711, Note_off_c, 0, 51, 54
1, 962711, Poly_aftertouch_c, 0, 51, 0
1, 962719, Note_on_c, 0, 49, 81
1, 962775, Note_off_c, 0, 65, 63
1, 962789, Note_off_c, 0, 77, 60
1, 962792, Note_off_c, 0, 49, 59
1, 962792, Poly_aftertouch_c, 0, 49, 0
1, 962801, Note_on_c, 0, 51, 77
1, 962838, Control_c, 0, 64, 99
1, 962857, Control_c, 0, 64, 66
1, 962876, Control_c, 0, 64, 19
1, 962881, Note_off_c, 0, 51, 58
1, 962881, Poly_aftertouch_c, 0, 51, 0
1, 962892, Note_on_c, 0, 79, 93
1, 962894, Note_on_c, 0, 67, 85
1, 962894, Control_c, 0, 64, 0
1, 962906, Note_on_c, 0, 46, 81
1, 962948, Note_off_c, 0, 67, 64
1, 962960, Note_off_c, 0, 79, 62
1, 962960, Poly_aftertouch_c, 0, 79, 0
1, 962981, Note_on_c, 0, 51, 70
1, 962988, Note_off_c, 0, 46, 61
1, 963007, Control_c, 0, 64, 44
1, 963025, Control_c, 0, 64, 70
1, 963046, Control_c, 0, 64, 86
1, 963063, Control_c, 0, 64, 101
1, 963074, Note_on_c, 0, 80, 95
1, 963076, Note_on_c, 0, 48, 81
1, 963078, Note_on_c, 0, 68, 86
1, 963082, Note_off_c, 0, 51, 61
1, 963082, Poly_aftertouch_c, 0, 51, 0
1, 963082, Control_c, 0, 64, 115
1, 963100, Control_c, 0, 64, 122
1, 963107, Note_off_c, 0, 68, 70
1, 963119, Control_c, 0, 64, 127
1, 963126, Note_off_c, 0, 80, 65
1, 963126, Poly_aftertouch_c, 0, 80, 0
1, 963156, Note_off_c, 0, 48, 63
1, 963156, Poly_aftertouch_c, 0, 48, 0
1, 963177, Note_on_c, 0, 51, 77
1, 963251, Control_c, 0, 64, 123
1, 963272, Note_off_c, 0, 51, 60
1, 963272, Poly_aftertouch_c, 0, 51, 0
1, 963303, Note_on_c, 0, 75, 98
1, 963303, Note_on_c, 0, 84, 91
1, 963304, Note_on_c, 0, 44, 87
1, 963304, Control_c, 0, 64, 119
1, 963308, Note_on_c, 0, 80, 90
1, 963355, Note_on_c, 0, 85, 33
1, 963356, Note_off_c, 0, 85, 127
1, 963373, Poly_aftertouch_c, 0, 83, 0
1, 963385, Note_off_c, 0, 75, 58
1, 963410, Note_off_c, 0, 80, 63
1, 963410, Poly_aftertouch_c, 0, 80, 0
1, 963417, Note_on_c, 0, 87, 94
1, 963422, Note_off_c, 0, 84, 64
1, 963427, Note_off_c, 0, 44, 55
1, 963427, Poly_aftertouch_c, 0, 44, 0
1, 963441, Note_on_c, 0, 56, 71
1, 963480, Note_off_c, 0, 56, 62
1, 963480, Poly_aftertouch_c, 0, 56, 0
1, 963533, Note_on_c, 0, 85, 90
1, 963536, Note_on_c, 0, 82, 92
1, 963542, Note_on_c, 0, 43, 81
1, 963542, Note_on_c, 0, 75, 82
1, 963545, Note_off_c, 0, 87, 64
1, 963581, Note_on_c, 0, 44, 45
1, 963591, Note_off_c, 0, 75, 62
1, 963606, Note_off_c, 0, 44, 62
1, 963606, Poly_aftertouch_c, 0, 44, 0
1, 963607, Note_off_c, 0, 82, 63
1, 963607, Poly_aftertouch_c, 0, 82, 0
1, 963618, Note_off_c, 0, 43, 65
1, 963620, Note_on_c, 0, 87, 84
1, 963631, Note_off_c, 0, 85, 64
1, 963650, Note_on_c, 0, 55, 75
1, 963716, Note_off_c, 0, 55, 58
1, 963716, Poly_aftertouch_c, 0, 55, 0
1, 963717, Note_on_c, 0, 80, 88
1, 963717, Note_on_c, 0, 84, 82
1, 963725, Note_off_c, 0, 87, 65
1, 963727, Note_on_c, 0, 44, 68
1, 963730, Note_on_c, 0, 75, 73
1, 963761, Note_off_c, 0, 75, 66
1, 963780, Note_on_c, 0, 46, 29
1, 963800, Note_off_c, 0, 80, 62
1, 963800, Poly_aftertouch_c, 0, 80, 0
1, 963801, Note_on_c, 0, 87, 89
1, 963808, Note_off_c, 0, 44, 63
1, 963808, Poly_aftertouch_c, 0, 44, 0
1, 963823, Note_off_c, 0, 84, 63
1, 963832, Note_off_c, 0, 46, 43
1, 963832, Note_on_c, 0, 56, 73
1, 963864, Note_off_c, 0, 56, 64
1, 963864, Poly_aftertouch_c, 0, 56, 0
1, 963892, Note_on_c, 0, 84, 80
1, 963898, Note_on_c, 0, 75, 79
1, 963902, Note_on_c, 0, 55, 20
1, 963909, Note_on_c, 0, 80, 73
1, 963910, Note_off_c, 0, 87, 65
1, 963916, Note_on_c, 0, 41, 83
1, 963941, Note_off_c, 0, 80, 59
1, 963941, Poly_aftertouch_c, 0, 80, 0
1, 963952, Note_off_c, 0, 55, 41
1, 963952, Poly_aftertouch_c, 0, 55, 0
1, 963962, Note_off_c, 0, 75, 63
1, 963973, Note_off_c, 0, 41, 65
1, 963991, Note_on_c, 0, 87, 87
1, 964019, Note_on_c, 0, 53, 51
1, 964020, Note_off_c, 0, 84, 61
1, 964025, Note_on_c, 0, 52, 57
1, 964053, Note_off_c, 0, 53, 53
1, 964053, Poly_aftertouch_c, 0, 53, 0
1, 964053, Control_c, 0, 64, 124
1, 964058, Note_off_c, 0, 52, 56
1, 964065, Note_off_c, 0, 87, 65
1, 964080, Note_on_c, 0, 82, 90
1, 964087, Note_on_c, 0, 37, 82
1, 964128, Control_c, 0, 64, 116
1, 964131, Note_off_c, 0, 37, 59
1, 964148, Control_c, 0, 64, 102
1, 964166, Note_on_c, 0, 49, 78
1, 964166, Control_c, 0, 64, 82
1, 964175, Note_off_c, 0, 82, 61
1, 964175, Poly_aftertouch_c, 0, 82, 0
1, 964176, Note_on_c, 0, 85, 92
1, 964184, Control_c, 0, 64, 58
1, 964191, Poly_aftertouch_c, 0, 73, 0
1, 964204, Control_c, 0, 64, 21
1, 964217, Note_off_c, 0, 49, 58
1, 964217, Poly_aftertouch_c, 0, 49, 0
1, 964221, Control_c, 0, 64, 0
1, 964244, Note_on_c, 0, 39, 88
1, 964266, Note_on_c, 0, 80, 84
1, 964280, Note_off_c, 0, 85, 64
1, 964283, Note_on_c, 0, 72, 60
1, 964292, Note_on_c, 0, 38, 44
1, 964320, Note_off_c, 0, 72, 67
1, 964322, Note_off_c, 0, 39, 63
1, 964344, Note_off_c, 0, 38, 32
1, 964345, Note_on_c, 0, 51, 80
1, 964368, Note_on_c, 0, 84, 77
1, 964381, Note_on_c, 0, 83, 75
1, 964383, Note_off_c, 0, 80, 63
1, 964383, Poly_aftertouch_c, 0, 80, 0
1, 964391, Note_off_c, 0, 51, 63
1, 964391, Poly_aftertouch_c, 0, 51, 0
1, 964415, Note_on_c, 0, 39, 81
1, 964422, Note_on_c, 0, 82, 28
1, 964444, Note_off_c, 0, 83, 54
1, 964446, Note_off_c, 0, 84, 61
1, 964455, Note_on_c, 0, 79, 81
1, 964471, Note_off_c, 0, 82, 53
1, 964471, Poly_aftertouch_c, 0, 82, 0
1, 964489, Note_off_c, 0, 39, 60
1, 964494, Note_on_c, 0, 51, 81
1, 964527, Note_off_c, 0, 51, 66
1, 964527, Poly_aftertouch_c, 0, 51, 0
1, 964554, Note_on_c, 0, 82, 79
1, 964574, Note_off_c, 0, 79, 57
1, 964574, Poly_aftertouch_c, 0, 79, 0
1, 964621, Note_on_c, 0, 32, 93
1, 964633, Note_on_c, 0, 80, 87
1, 964634, Note_on_c, 0, 68, 87
1, 964652, Control_c, 0, 67, 16
1, 964659, Note_on_c, 0, 81, 69
1, 964667, Note_on_c, 0, 70, 52
1, 964668, Note_off_c, 0, 70, 127
1, 964670, Note_off_c, 0, 82, 64
1, 964670, Poly_aftertouch_c, 0, 82, 0
1, 964672, Control_c, 0, 67, 25
1, 964679, Note_off_c, 0, 81, 66
1, 964690, Control_c, 0, 64, 59
1, 964691, Note_off_c, 0, 68, 61
1, 964691, Control_c, 0, 67, 32
1, 964703, Note_off_c, 0, 80, 64
1, 964703, Poly_aftertouch_c, 0, 80, 0
1, 964707, Control_c, 0, 64, 93
1, 964710, Control_c, 0, 67, 43
1, 964728, Control_c, 0, 64, 105
1, 964729, Control_c, 0, 67, 56
1, 964734, Note_off_c, 0, 32, 50
1, 964734, Poly_aftertouch_c, 0, 32, 0
1, 964746, Control_c, 0, 64, 109
1, 964747, Control_c, 0, 67, 67
1, 964764, Control_c, 0, 67, 73
1, 964801, Control_c, 0, 64, 103
1, 964815, Note_on_c, 0, 44, 87
1, 964820, Control_c, 0, 64, 85
1, 964822, Control_c, 0, 67, 80
1, 964839, Control_c, 0, 64, 50
1, 964842, Control_c, 0, 67, 89
1, 964848, Note_off_c, 0, 44, 70
1, 964848, Poly_aftertouch_c, 0, 44, 0
1, 964858, Control_c, 0, 64, 0
1, 964859, Control_c, 0, 67, 107
1, 964878, Control_c, 0, 67, 127
1, 965034, Note_on_c, 0, 60, 73
1, 965103, Note_off_c, 0, 60, 63
1, 965103, Poly_aftertouch_c, 0, 60, 0
1, 965148, Note_on_c, 0, 56, 59
1, 965204, Note_off_c, 0, 56, 57
1, 965204, Poly_aftertouch_c, 0, 56, 0
1, 965214, Note_on_c, 0, 61, 61
1, 965259, Note_off_c, 0, 61, 64
1, 965311, Note_on_c, 0, 53, 58
1, 965366, Note_off_c, 0, 53, 59
1, 965366, Poly_aftertouch_c, 0, 53, 0
1, 965397, Note_on_c, 0, 58, 66
1, 965456, Note_off_c, 0, 58, 55
1, 965508, Note_on_c, 0, 55, 44
1, 965541, Note_off_c, 0, 55, 52
1, 965541, Poly_aftertouch_c, 0, 55, 0
1, 965570, Note_on_c, 0, 60, 64
1, 965657, Note_off_c, 0, 60, 47
1, 965657, Poly_aftertouch_c, 0, 60, 0
1, 965665, Note_on_c, 0, 52, 59
1, 965724, Note_off_c, 0, 52, 59
1, 965770, Note_on_c, 0, 56, 62
1, 965809, Note_off_c, 0, 56, 65
1, 965809, Poly_aftertouch_c, 0, 56, 0
1, 965833, Note_on_c, 0, 53, 56
1, 965906, Control_c, 0, 67, 119
1, 965914, Note_off_c, 0, 53, 60
1, 965914, Poly_aftertouch_c, 0, 53, 0
1, 965922, Control_c, 0, 67, 111
1, 965932, Note_on_c, 0, 58, 71
1, 965942, Control_c, 0, 67, 100
1, 965961, Control_c, 0, 67, 86
1, 965980, Control_c, 0, 67, 68
1, 965994, Note_off_c, 0, 58, 59
1, 965997, Control_c, 0, 67, 49
1, 966017, Control_c, 0, 67, 30
1, 966036, Control_c, 0, 67, 8
1, 966046, Note_on_c, 0, 50, 47
1, 966053, Control_c, 0, 67, 0
1, 966083, Note_off_c, 0, 50, 53
1, 966083, Poly_aftertouch_c, 0, 50, 0
1, 966111, Note_on_c, 0, 55, 81
1, 966121, Note_on_c, 0, 51, 72
1, 966153, Note_off_c, 0, 55, 66
1, 966153, Poly_aftertouch_c, 0, 55, 0
1, 966164, Note_off_c, 0, 51, 64
1, 966164, Poly_aftertouch_c, 0, 51, 0
1, 966306, Note_on_c, 0, 79, 90
1, 966316, Note_on_c, 0, 70, 73
1, 966326, Note_on_c, 0, 75, 58
1, 966328, Note_on_c, 0, 67, 63
1, 966333, Control_c, 0, 64, 18
1, 966338, Note_off_c, 0, 70, 71
1, 966354, Note_off_c, 0, 67, 63
1, 966354, Note_off_c, 0, 75, 62
1, 966354, Control_c, 0, 64, 53
1, 966370, Note_off_c, 0, 79, 64
1, 966370, Poly_aftertouch_c, 0, 79, 0
1, 966373, Control_c, 0, 64, 72
1, 966374, Control_c, 0, 67, 10
1, 966391, Control_c, 0, 64, 79
1, 966409, Control_c, 0, 67, 16
1, 966448, Control_c, 0, 64, 74
1, 966448, Control_c, 0, 67, 22
1, 966466, Control_c, 0, 64, 68
1, 966484, Control_c, 0, 64, 58
1, 966486, Control_c, 0, 67, 29
1, 966499, Note_on_c, 0, 63, 69
1, 966503, Control_c, 0, 64, 47
1, 966508, Note_on_c, 0, 79, 83
1, 966522, Control_c, 0, 64, 26
1, 966523, Control_c, 0, 67, 33
1, 966541, Control_c, 0, 64, 0
1, 966542, Control_c, 0, 67, 40
1, 966559, Control_c, 0, 67, 49
1, 966578, Control_c, 0, 67, 57
1, 966579, Note_off_c, 0, 63, 62
1, 966579, Poly_aftertouch_c, 0, 63, 0
1, 966587, Note_on_c, 0, 67, 77
1, 966596, Control_c, 0, 67, 61
1, 966597, Note_off_c, 0, 79, 61
1, 966597, Poly_aftertouch_c, 0, 79, 0
1, 966599, Note_on_c, 0, 75, 84
1, 966634, Control_c, 0, 67, 67
1, 966650, Note_off_c, 0, 67, 62
1, 966682, Note_on_c, 0, 80, 83
1, 966686, Note_on_c, 0, 60, 66
1, 966700, Note_off_c, 0, 75, 63
1, 966709, Control_c, 0, 67, 74
1, 966747, Control_c, 0, 67, 81
1, 966765, Note_on_c, 0, 68, 72
1, 966773, Note_off_c, 0, 60, 63
1, 966773, Poly_aftertouch_c, 0, 60, 0
1, 966776, Note_on_c, 0, 72, 72
1, 966782, Note_off_c, 0, 80, 67
1, 966782, Poly_aftertouch_c, 0, 80, 0
1, 966801, Control_c, 0, 67, 87
1, 966831, Note_off_c, 0, 68, 61
1, 966840, Control_c, 0, 67, 94
1, 966859, Note_on_c, 0, 77, 80
1, 966863, Note_on_c, 0, 62, 59
1, 966877, Control_c, 0, 67, 101
1, 966902, Note_off_c, 0, 72, 60
1, 966911, Note_off_c, 0, 62, 61
1, 966944, Note_off_c, 0, 77, 59
1, 966954, Note_on_c, 0, 65, 60
1, 966954, Note_on_c, 0, 74, 79
1, 966997, Note_off_c, 0, 65, 62
1, 967019, Note_off_c, 0, 74, 63
1, 967037, Note_on_c, 0, 79, 80
1, 967056, Note_on_c, 0, 59, 65
1, 967105, Note_off_c, 0, 59, 61
1, 967105, Poly_aftertouch_c, 0, 59, 0
1, 967129, Note_on_c, 0, 71, 70
1, 967137, Note_off_c, 0, 79, 62
1, 967137, Poly_aftertouch_c, 0, 79, 0
1, 967142, Note_on_c, 0, 67, 60
1, 967181, Note_off_c, 0, 67, 66
1, 967216, Note_on_c, 0, 75, 74
1, 967218, Note_on_c, 0, 60, 59
1, 967239, Note_off_c, 0, 71, 58
1, 967269, Note_off_c, 0, 60, 61
1, 967269, Poly_aftertouch_c, 0, 60, 0
1, 967289, Note_off_c, 0, 75, 63
1, 967305, Note_on_c, 0, 63, 61
1, 967307, Control_c, 0, 67, 96
1, 967312, Note_on_c, 0, 72, 67
1, 967344, Control_c, 0, 67, 85
1, 967353, Note_off_c, 0, 63, 63
1, 967353, Poly_aftertouch_c, 0, 63, 0
1, 967361, Note_off_c, 0, 72, 61
1, 967363, Control_c, 0, 67, 75
1, 967378, Note_on_c, 0, 77, 72
1, 967383, Control_c, 0, 67, 65
1, 967393, Note_on_c, 0, 57, 56
1, 967400, Control_c, 0, 67, 55
1, 967419, Control_c, 0, 67, 47
1, 967432, Note_off_c, 0, 57, 63
1, 967432, Poly_aftertouch_c, 0, 57, 0
1, 967438, Control_c, 0, 67, 39
1, 967457, Control_c, 0, 67, 29
1, 967469, Note_on_c, 0, 65, 54
1, 967472, Note_on_c, 0, 69, 65
1, 967475, Control_c, 0, 67, 19
1, 967501, Note_off_c, 0, 77, 57
1, 967513, Control_c, 0, 67, 0
1, 967533, Note_off_c, 0, 65, 58
1, 967535, Note_on_c, 0, 58, 73
1, 967542, Note_on_c, 0, 74, 71
1, 967553, Note_off_c, 0, 69, 60
1, 967553, Poly_aftertouch_c, 0, 69, 0
1, 967564, Note_off_c, 0, 58, 67
1, 967573, Note_off_c, 0, 74, 70
1, 967769, Note_on_c, 0, 82, 93
1, 967770, Note_on_c, 0, 70, 90
1, 967772, Note_on_c, 0, 74, 86
1, 967775, Note_on_c, 0, 58, 99
1, 967775, Note_on_c, 0, 77, 80
1, 967775, Control_c, 0, 67, 46
1, 967779, Note_on_c, 0, 46, 93
1, 967798, Control_c, 0, 64, 82
1, 967800, Control_c, 0, 67, 97
1, 967807, Note_off_c, 0, 46, 74
1, 967808, Note_off_c, 0, 74, 65
1, 967808, Note_off_c, 0, 70, 66
1, 967811, Control_c, 0, 64, 123
1, 967813, Control_c, 0, 67, 127
1, 967817, Note_off_c, 0, 77, 60
1, 967822, Note_off_c, 0, 58, 67
1, 967828, Note_off_c, 0, 82, 66
1, 967828, Poly_aftertouch_c, 0, 82, 0
1, 967830, Control_c, 0, 64, 127
1, 967838, Note_on_c, 0, 78, 11
1, 967839, Note_off_c, 0, 78, 127
1, 967925, Control_c, 0, 64, 111
1, 967943, Control_c, 0, 64, 83
1, 967963, Control_c, 0, 64, 54
1, 967980, Control_c, 0, 64, 0
1, 968153, Note_on_c, 0, 56, 45
1, 968206, Note_off_c, 0, 56, 63
1, 968206, Poly_aftertouch_c, 0, 56, 0
1, 968257, Note_on_c, 0, 58, 51
1, 968292, Note_off_c, 0, 58, 62
1, 968336, Note_on_c, 0, 53, 50
1, 968352, Note_on_c, 0, 70, 45
1, 968355, Note_on_c, 0, 82, 47
1, 968380, Note_off_c, 0, 53, 63
1, 968380, Poly_aftertouch_c, 0, 53, 0
1, 968389, Note_off_c, 0, 82, 38
1, 968389, Poly_aftertouch_c, 0, 82, 0
1, 968391, Note_off_c, 0, 70, 39
1, 968418, Note_on_c, 0, 62, 49
1, 968474, Note_off_c, 0, 62, 58
1, 968515, Note_on_c, 0, 56, 55
1, 968563, Note_off_c, 0, 56, 63
1, 968563, Poly_aftertouch_c, 0, 56, 0
1, 968609, Note_on_c, 0, 58, 58
1, 968655, Note_off_c, 0, 58, 64
1, 968718, Note_on_c, 0, 86, 73
1, 968720, Note_on_c, 0, 53, 48
1, 968731, Note_on_c, 0, 74, 44
1, 968740, Note_off_c, 0, 86, 73
1, 968758, Note_off_c, 0, 53, 62
1, 968758, Poly_aftertouch_c, 0, 53, 0
1, 968769, Note_off_c, 0, 74, 36
1, 968812, Note_on_c, 0, 62, 42
1, 968853, Note_off_c, 0, 62, 54
1, 968902, Note_on_c, 0, 56, 50
1, 968949, Note_off_c, 0, 56, 63
1, 968949, Poly_aftertouch_c, 0, 56, 0
1, 968981, Note_on_c, 0, 58, 51
1, 969028, Note_off_c, 0, 58, 64
1, 969080, Note_on_c, 0, 53, 49
1, 969094, Note_on_c, 0, 89, 76
1, 969115, Note_on_c, 0, 77, 49
1, 969120, Note_off_c, 0, 89, 70
1, 969125, Note_off_c, 0, 53, 61
1, 969125, Poly_aftertouch_c, 0, 53, 0
1, 969141, Note_off_c, 0, 77, 38
1, 969193, Note_on_c, 0, 62, 42
1, 969234, Note_off_c, 0, 62, 54
1, 969276, Note_on_c, 0, 86, 75
1, 969283, Note_on_c, 0, 56, 44
1, 969285, Note_on_c, 0, 74, 66
1, 969303, Note_off_c, 0, 86, 69
1, 969314, Note_off_c, 0, 74, 61
1, 969317, Note_off_c, 0, 56, 57
1, 969317, Poly_aftertouch_c, 0, 56, 0
1, 969365, Note_on_c, 0, 58, 42
1, 969405, Note_off_c, 0, 58, 58
1, 969445, Note_on_c, 0, 53, 54
1, 969462, Note_on_c, 0, 82, 79
1, 969478, Note_on_c, 0, 70, 66
1, 969499, Note_off_c, 0, 53, 60
1, 969499, Poly_aftertouch_c, 0, 53, 0
1, 969504, Note_off_c, 0, 82, 63
1, 969504, Poly_aftertouch_c, 0, 82, 0
1, 969510, Note_off_c, 0, 70, 69
1, 969559, Note_on_c, 0, 62, 46
1, 969620, Note_off_c, 0, 62, 57
1, 969632, Note_on_c, 0, 56, 52
1, 969686, Note_off_c, 0, 56, 61
1, 969686, Poly_aftertouch_c, 0, 56, 0
1, 969726, Note_on_c, 0, 58, 52
1, 969777, Note_off_c, 0, 58, 62
1, 969818, Note_on_c, 0, 82, 79
1, 969829, Note_on_c, 0, 53, 55
1, 969837, Note_on_c, 0, 70, 53
1, 969845, Note_off_c, 0, 82, 67
1, 969845, Poly_aftertouch_c, 0, 82, 0
1, 969868, Note_off_c, 0, 70, 61
1, 969879, Note_off_c, 0, 53, 61
1, 969879, Poly_aftertouch_c, 0, 53, 0
1, 969942, Note_on_c, 0, 62, 36
1, 969984, Note_off_c, 0, 62, 52
1, 970016, Note_on_c, 0, 56, 50
1, 970061, Note_off_c, 0, 56, 64
1, 970061, Poly_aftertouch_c, 0, 56, 0
1, 970096, Note_on_c, 0, 58, 53
1, 970145, Note_off_c, 0, 58, 63
1, 970207, Note_on_c, 0, 53, 47
1, 970226, Note_on_c, 0, 86, 69
1, 970240, Note_on_c, 0, 74, 45
1, 970256, Note_off_c, 0, 53, 59
1, 970256, Poly_aftertouch_c, 0, 53, 0
1, 970259, Note_off_c, 0, 86, 69
1, 970277, Note_off_c, 0, 74, 36
1, 970311, Note_on_c, 0, 62, 48
1, 970368, Note_off_c, 0, 62, 57
1, 970399, Note_on_c, 0, 56, 54
1, 970451, Note_off_c, 0, 56, 64
1, 970451, Poly_aftertouch_c, 0, 56, 0
1, 970480, Note_on_c, 0, 58, 58
1, 970529, Note_off_c, 0, 58, 62
1, 970581, Note_on_c, 0, 53, 57
1, 970586, Note_on_c, 0, 89, 64
1, 970595, Note_on_c, 0, 77, 55
1, 970607, Note_off_c, 0, 89, 65
1, 970622, Note_off_c, 0, 77, 60
1, 970632, Note_off_c, 0, 53, 60
1, 970632, Poly_aftertouch_c, 0, 53, 0
1, 970694, Note_on_c, 0, 62, 48
1, 970754, Note_off_c, 0, 62, 58
1, 970767, Note_on_c, 0, 86, 75
1, 970771, Note_on_c, 0, 56, 53
1, 970777, Note_on_c, 0, 74, 67
1, 970793, Note_off_c, 0, 86, 72
1, 970808, Note_off_c, 0, 74, 69
1, 970821, Note_off_c, 0, 56, 63
1, 970821, Poly_aftertouch_c, 0, 56, 0
1, 970867, Note_on_c, 0, 58, 52
1, 970913, Note_off_c, 0, 58, 63
1, 970927, Note_on_c, 0, 53, 48
1, 970951, Note_on_c, 0, 82, 74
1, 970963, Note_on_c, 0, 70, 64
1, 970978, Note_off_c, 0, 82, 65
1, 970978, Poly_aftertouch_c, 0, 82, 0
1, 970989, Note_off_c, 0, 70, 65
1, 970991, Note_off_c, 0, 53, 58
1, 970991, Poly_aftertouch_c, 0, 53, 0
1, 971055, Note_on_c, 0, 62, 38
1, 971094, Note_off_c, 0, 62, 52
1, 971155, Note_on_c, 0, 80, 69
1, 971260, Note_off_c, 0, 80, 60
1, 971260, Poly_aftertouch_c, 0, 80, 0
1, 971270, Note_on_c, 0, 77, 57
1, 971326, Note_on_c, 0, 82, 70
1, 971332, Note_on_c, 0, 58, 75
1, 971341, Note_off_c, 0, 77, 60
1, 971346, Note_on_c, 0, 46, 67
1, 971376, Note_off_c, 0, 58, 63
1, 971382, Control_c, 0, 67, 123
1, 971384, Note_off_c, 0, 46, 63
1, 971403, Control_c, 0, 67, 118
1, 971420, Control_c, 0, 67, 112
1, 971428, Note_off_c, 0, 82, 55
1, 971428, Poly_aftertouch_c, 0, 82, 0
1, 971435, Note_on_c, 0, 74, 64
1, 971437, Control_c, 0, 67, 104
1, 971458, Control_c, 0, 67, 95
1, 971478, Control_c, 0, 67, 84
1, 971495, Control_c, 0, 67, 72
1, 971514, Control_c, 0, 67, 59
1, 971526, Note_on_c, 0, 80, 65
1, 971532, Control_c, 0, 67, 47
1, 971552, Control_c, 0, 67, 37
1, 971557, Note_off_c, 0, 74, 45
1, 971570, Control_c, 0, 67, 28
1, 971589, Control_c, 0, 67, 20
1, 971596, Note_off_c, 0, 80, 61
1, 971596, Poly_aftertouch_c, 0, 80, 0
1, 971608, Control_c, 0, 67, 12
1, 971621, Note_on_c, 0, 77, 70
1, 971686, Note_off_c, 0, 77, 57
1, 971690, Note_on_c, 0, 62, 82
1, 971693, Note_on_c, 0, 82, 77
1, 971696, Note_on_c, 0, 50, 78
1, 971701, Control_c, 0, 67, 0
1, 971733, Note_off_c, 0, 50, 63
1, 971733, Poly_aftertouch_c, 0, 50, 0
1, 971748, Note_off_c, 0, 62, 59
1, 971787, Note_off_c, 0, 82, 63
1, 971787, Poly_aftertouch_c, 0, 82, 0
1, 971807, Note_on_c, 0, 74, 68
1, 971881, Note_on_c, 0, 80, 66
1, 971930, Note_off_c, 0, 74, 45
1, 971947, Note_off_c, 0, 80, 62
1, 971947, Poly_aftertouch_c, 0, 80, 0
1, 971972, Note_on_c, 0, 77, 73
1, 972044, Note_off_c, 0, 77, 62
1, 972051, Note_on_c, 0, 82, 77
1, 972054, Note_on_c, 0, 65, 79
1, 972057, Note_on_c, 0, 53, 78
1, 972086, Note_off_c, 0, 65, 63
1, 972099, Note_off_c, 0, 53, 62
1, 972099, Poly_aftertouch_c, 0, 53, 0
1, 972138, Note_off_c, 0, 82, 63
1, 972138, Poly_aftertouch_c, 0, 82, 0
1, 972156, Note_on_c, 0, 74, 66
1, 972237, Note_on_c, 0, 50, 77
1, 972239, Note_on_c, 0, 80, 73
1, 972248, Note_on_c, 0, 62, 59
1, 972266, Note_off_c, 0, 74, 55
1, 972269, Note_off_c, 0, 50, 65
1, 972269, Poly_aftertouch_c, 0, 50, 0
1, 972274, Note_off_c, 0, 62, 62
1, 972315, Note_off_c, 0, 80, 63
1, 972315, Poly_aftertouch_c, 0, 80, 0
1, 972337, Note_on_c, 0, 77, 72
1, 972413, Note_off_c, 0, 77, 59
1, 972421, Note_on_c, 0, 46, 75
1, 972422, Note_on_c, 0, 58, 73
1, 972422, Note_on_c, 0, 82, 72
1, 972452, Note_off_c, 0, 58, 68
1, 972457, Note_off_c, 0, 46, 65
1, 972506, Note_off_c, 0, 82, 63
1, 972506, Poly_aftertouch_c, 0, 82, 0
1, 972513, Note_on_c, 0, 74, 72
1, 972611, Note_on_c, 0, 80, 78
1, 972670, Note_off_c, 0, 74, 58
1, 972709, Note_on_c, 0, 77, 75
1, 972716, Note_off_c, 0, 80, 64
1, 972716, Poly_aftertouch_c, 0, 80, 0
1, 972771, Note_on_c, 0, 46, 95
1, 972775, Note_on_c, 0, 34, 95
1, 972795, Note_on_c, 0, 82, 80
1, 972810, Note_off_c, 0, 77, 59
1, 972830, Note_off_c, 0, 34, 64
1, 972840, Note_off_c, 0, 46, 56
1, 972897, Note_on_c, 0, 74, 71
1, 972902, Note_off_c, 0, 82, 63
1, 972902, Poly_aftertouch_c, 0, 82, 0
1, 972993, Note_on_c, 0, 80, 77
1, 973036, Note_off_c, 0, 74, 57
1, 973078, Note_off_c, 0, 80, 62
1, 973078, Poly_aftertouch_c, 0, 80, 0
1, 973097, Note_on_c, 0, 77, 80
1, 973161, Note_on_c, 0, 50, 96
1, 973166, Note_on_c, 0, 38, 91
1, 973174, Note_off_c, 0, 77, 62
1, 973179, Note_on_c, 0, 82, 79
1, 973226, Note_off_c, 0, 38, 63
1, 973228, Note_off_c, 0, 50, 65
1, 973228, Poly_aftertouch_c, 0, 50, 0
1, 973279, Note_off_c, 0, 82, 64
1, 973279, Poly_aftertouch_c, 0, 82, 0
1, 973289, Note_on_c, 0, 74, 70
1, 973370, Note_on_c, 0, 80, 74
1, 973411, Note_off_c, 0, 74, 54
1, 973443, Note_off_c, 0, 80, 63
1, 973443, Poly_aftertouch_c, 0, 80, 0
1, 973466, Note_on_c, 0, 77, 76
1, 973526, Note_on_c, 0, 53, 95
1, 973529, Note_on_c, 0, 41, 93
1, 973542, Note_on_c, 0, 82, 80
1, 973543, Note_off_c, 0, 77, 60
1, 973580, Note_off_c, 0, 53, 65
1, 973580, Poly_aftertouch_c, 0, 53, 0
1, 973588, Note_off_c, 0, 41, 64
1, 973627, Note_on_c, 0, 74, 72
1, 973631, Note_off_c, 0, 82, 65
1, 973631, Poly_aftertouch_c, 0, 82, 0
1, 973709, Note_on_c, 0, 50, 88
1, 973715, Note_on_c, 0, 38, 88
1, 973720, Note_on_c, 0, 80, 82
1, 973754, Note_off_c, 0, 38, 67
1, 973757, Note_off_c, 0, 50, 61
1, 973757, Poly_aftertouch_c, 0, 50, 0
1, 973767, Note_off_c, 0, 74, 57
1, 973819, Note_off_c, 0, 80, 62
1, 973819, Poly_aftertouch_c, 0, 80, 0
1, 973832, Note_on_c, 0, 77, 72
1, 973851, Control_c, 0, 67, 10
1, 973870, Control_c, 0, 67, 14
1, 973889, Control_c, 0, 67, 18
1, 973892, Note_on_c, 0, 46, 81
1, 973895, Note_on_c, 0, 34, 80
1, 973907, Control_c, 0, 67, 25
1, 973913, Note_off_c, 0, 77, 56
1, 973917, Note_on_c, 0, 82, 78
1, 973924, Note_off_c, 0, 34, 66
1, 973926, Control_c, 0, 67, 36
1, 973929, Note_off_c, 0, 46, 65
1, 973945, Control_c, 0, 67, 49
1, 973965, Control_c, 0, 67, 61
1, 973982, Control_c, 0, 67, 70
1, 974001, Control_c, 0, 67, 79
1, 974004, Note_off_c, 0, 82, 62
1, 974004, Poly_aftertouch_c, 0, 82, 0
1, 974012, Note_on_c, 0, 74, 67
1, 974021, Control_c, 0, 67, 85
1, 974038, Control_c, 0, 67, 89
1, 974099, Note_on_c, 0, 80, 70
1, 974134, Note_off_c, 0, 74, 54
1, 974170, Note_off_c, 0, 80, 60
1, 974170, Poly_aftertouch_c, 0, 80, 0
1, 974202, Note_on_c, 0, 77, 65
1, 974256, Note_on_c, 0, 53, 64
1, 974258, Note_on_c, 0, 65, 69
1, 974269, Note_off_c, 0, 77, 56
1, 974287, Note_on_c, 0, 82, 67
1, 974292, Note_off_c, 0, 53, 64
1, 974292, Poly_aftertouch_c, 0, 53, 0
1, 974293, Note_off_c, 0, 65, 69
1, 974301, Control_c, 0, 67, 85
1, 974337, Control_c, 0, 67, 77
1, 974357, Control_c, 0, 67, 73
1, 974358, Note_off_c, 0, 82, 60
1, 974358, Poly_aftertouch_c, 0, 82, 0
1, 974375, Control_c, 0, 67, 68
1, 974385, Note_on_c, 0, 74, 55
1, 974393, Control_c, 0, 67, 62
1, 974413, Control_c, 0, 67, 55
1, 974432, Control_c, 0, 67, 48
1, 974436, Note_on_c, 0, 62, 71
1, 974438, Note_on_c, 0, 50, 70
1, 974450, Control_c, 0, 67, 40
1, 974466, Note_off_c, 0, 62, 69
1, 974466, Note_on_c, 0, 80, 69
1, 974469, Control_c, 0, 67, 32
1, 974470, Note_off_c, 0, 50, 66
1, 974470, Poly_aftertouch_c, 0, 50, 0
1, 974488, Control_c, 0, 67, 23
1, 974506, Control_c, 0, 67, 12
1, 974517, Note_off_c, 0, 74, 37
1, 974538, Note_off_c, 0, 80, 59
1, 974538, Poly_aftertouch_c, 0, 80, 0
1, 974542, Note_on_c, 0, 77, 80
1, 974542, Control_c, 0, 67, 0
1, 974623, Note_on_c, 0, 58, 90
1, 974628, Note_on_c, 0, 46, 92
1, 974629, Note_on_c, 0, 82, 87
1, 974630, Note_off_c, 0, 77, 59
1, 974679, Note_off_c, 0, 58, 66
1, 974681, Note_off_c, 0, 46, 56
1, 974713, Control_c, 0, 64, 37
1, 974726, Note_on_c, 0, 74, 81
1, 974729, Control_c, 0, 64, 56
1, 974732, Note_off_c, 0, 82, 64
1, 974732, Poly_aftertouch_c, 0, 82, 0
1, 974751, Control_c, 0, 64, 68
1, 974768, Control_c, 0, 64, 74
1, 974786, Control_c, 0, 64, 78
1, 974805, Control_c, 0, 64, 80
1, 974822, Note_on_c, 0, 80, 84
1, 974826, Control_c, 0, 64, 82
1, 974861, Control_c, 0, 64, 85
1, 974867, Note_off_c, 0, 74, 59
1, 974903, Note_on_c, 0, 77, 82
1, 974925, Note_off_c, 0, 80, 64
1, 974925, Poly_aftertouch_c, 0, 80, 0
1, 974974, Control_c, 0, 64, 76
1, 974992, Control_c, 0, 64, 56
1, 975002, Note_on_c, 0, 46, 100
1, 975004, Note_on_c, 0, 82, 92
1, 975006, Note_on_c, 0, 34, 98
1, 975011, Control_c, 0, 64, 0
1, 975017, Note_off_c, 0, 77, 59
1, 975035, Note_off_c, 0, 34, 72
1, 975044, Note_on_c, 0, 47, 46
1, 975047, Note_off_c, 0, 46, 67
1, 975090, Note_off_c, 0, 47, 36
1, 975090, Poly_aftertouch_c, 0, 47, 0
1, 975098, Note_on_c, 0, 74, 80
1, 975122, Note_off_c, 0, 82, 65
1, 975122, Poly_aftertouch_c, 0, 82, 0
1, 975250, Note_on_c, 0, 79, 90
1, 975251, Note_on_c, 0, 51, 99
1, 975257, Note_on_c, 0, 39, 101
1, 975280, Note_off_c, 0, 74, 42
1, 975292, Control_c, 0, 64, 60
1, 975299, Note_off_c, 0, 51, 65
1, 975299, Poly_aftertouch_c, 0, 51, 0
1, 975307, Note_off_c, 0, 79, 64
1, 975307, Poly_aftertouch_c, 0, 79, 0
1, 975311, Control_c, 0, 64, 127
1, 975323, Note_off_c, 0, 39, 58
1, 975655, Note_on_c, 0, 75, 98
1, 975659, Note_on_c, 0, 43, 94
1, 975660, Note_on_c, 0, 31, 88
1, 975704, Control_c, 0, 64, 121
1, 975721, Control_c, 0, 64, 83
1, 975741, Control_c, 0, 64, 43
1, 975759, Control_c, 0, 64, 0
1, 975773, Note_on_c, 0, 74, 89
1, 975808, Poly_aftertouch_c, 0, 32, 0
1, 975816, Note_off_c, 0, 75, 62
1, 975834, Control_c, 0, 64, 19
1, 975852, Control_c, 0, 64, 49
1, 975871, Control_c, 0, 64, 69
1, 975882, Note_off_c, 0, 74, 61
1, 975887, Note_on_c, 0, 72, 80
1, 975890, Control_c, 0, 64, 81
1, 975909, Control_c, 0, 64, 90
1, 975927, Control_c, 0, 64, 97
1, 975946, Control_c, 0, 64, 102
1, 975965, Control_c, 0, 64, 106
1, 975975, Note_on_c, 0, 70, 82
1, 975983, Control_c, 0, 64, 110
1, 975990, Note_off_c, 0, 72, 60
1, 976021, Control_c, 0, 64, 117
1, 976058, Control_c, 0, 64, 124
1, 976069, Note_on_c, 0, 68, 82
1, 976095, Note_off_c, 0, 43, 58
1, 976107, Note_off_c, 0, 70, 67
1, 976159, Note_on_c, 0, 67, 83
1, 976200, Note_off_c, 0, 68, 63
1, 976232, Note_off_c, 0, 31, 62
1, 976240, Note_on_c, 0, 65, 79
1, 976244, Control_c, 0, 64, 97
1, 976245, Note_off_c, 0, 67, 60
1, 976245, Note_on_c, 0, 44, 94
1, 976247, Note_on_c, 0, 32, 84
1, 976264, Control_c, 0, 64, 61
1, 976283, Control_c, 0, 64, 0
1, 976322, Note_on_c, 0, 63, 82
1, 976332, Note_off_c, 0, 65, 64
1, 976376, Control_c, 0, 64, 13
1, 976395, Control_c, 0, 64, 38
1, 976413, Control_c, 0, 64, 53
1, 976416, Note_on_c, 0, 62, 80
1, 976432, Control_c, 0, 64, 63
1, 976445, Note_off_c, 0, 63, 59
1, 976445, Poly_aftertouch_c, 0, 63, 0
1, 976451, Control_c, 0, 64, 68
1, 976488, Control_c, 0, 64, 70
1, 976496, Note_off_c, 0, 62, 61
1, 976496, Note_on_c, 0, 60, 75
1, 976539, Note_off_c, 0, 44, 57
1, 976539, Poly_aftertouch_c, 0, 44, 0
1, 976543, Control_c, 0, 64, 68
1, 976563, Control_c, 0, 64, 54
1, 976582, Control_c, 0, 64, 17
1, 976588, Note_off_c, 0, 32, 62
1, 976598, Note_on_c, 0, 58, 82
1, 976600, Control_c, 0, 64, 0
1, 976616, Note_on_c, 0, 46, 85
1, 976617, Note_on_c, 0, 34, 76
1, 976618, Note_off_c, 0, 60, 66
1, 976618, Poly_aftertouch_c, 0, 60, 0
1, 976676, Control_c, 0, 64, 34
1, 976689, Note_on_c, 0, 56, 81
1, 976694, Control_c, 0, 64, 61
1, 976710, Note_off_c, 0, 34, 48
1, 976711, Control_c, 0, 64, 82
1, 976721, Note_off_c, 0, 58, 62
1, 976731, Control_c, 0, 64, 96
1, 976750, Control_c, 0, 64, 108
1, 976757, Note_off_c, 0, 46, 61
1, 976786, Note_on_c, 0, 55, 81
1, 976806, Control_c, 0, 64, 100
1, 976815, Note_off_c, 0, 56, 60
1, 976815, Poly_aftertouch_c, 0, 56, 0
1, 976826, Control_c, 0, 64, 77
1, 976844, Control_c, 0, 64, 43
1, 976861, Control_c, 0, 64, 0
1, 976863, Note_off_c, 0, 55, 62
1, 976863, Poly_aftertouch_c, 0, 55, 0
1, 976868, Note_on_c, 0, 53, 75
1, 976968, Note_on_c, 0, 51, 91
1, 976969, Note_on_c, 0, 48, 80
1, 976976, Note_on_c, 0, 36, 77
1, 976988, Note_off_c, 0, 53, 63
1, 976988, Poly_aftertouch_c, 0, 53, 0
1, 977005, Note_off_c, 0, 48, 68
1, 977005, Poly_aftertouch_c, 0, 48, 0
1, 977007, Note_off_c, 0, 51, 65
1, 977007, Poly_aftertouch_c, 0, 51, 0
1, 977011, Control_c, 0, 64, 60
1, 977021, Note_off_c, 0, 36, 67
1, 977029, Control_c, 0, 64, 88
1, 977049, Control_c, 0, 64, 109
1, 977067, Control_c, 0, 64, 127
1, 977311, Note_on_c, 0, 43, 91
1, 977314, Note_on_c, 0, 79, 96
1, 977316, Note_on_c, 0, 31, 90
1, 977329, Control_c, 0, 64, 118
1, 977348, Control_c, 0, 64, 81
1, 977367, Control_c, 0, 64, 44
1, 977385, Control_c, 0, 64, 0
1, 977405, Note_on_c, 0, 77, 80
1, 977442, Control_c, 0, 64, 32
1, 977460, Control_c, 0, 64, 56
1, 977466, Note_off_c, 0, 79, 62
1, 977466, Poly_aftertouch_c, 0, 79, 0
1, 977473, Note_on_c, 0, 75, 85
1, 977480, Control_c, 0, 64, 73
1, 977498, Control_c, 0, 64, 83
1, 977517, Control_c, 0, 64, 91
1, 977519, Note_off_c, 0, 77, 61
1, 977534, Control_c, 0, 64, 98
1, 977548, Note_on_c, 0, 74, 83
1, 977554, Control_c, 0, 64, 106
1, 977573, Control_c, 0, 64, 114
1, 977588, Note_off_c, 0, 75, 65
1, 977591, Control_c, 0, 64, 122
1, 977598, Note_on_c, 0, 72, 80
1, 977607, Note_off_c, 0, 74, 63
1, 977609, Control_c, 0, 64, 127
1, 977638, Note_off_c, 0, 43, 59
1, 977674, Note_on_c, 0, 70, 90
1, 977697, Note_off_c, 0, 72, 55
1, 977724, Note_off_c, 0, 31, 55
1, 977752, Note_on_c, 0, 68, 82
1, 977796, Note_off_c, 0, 70, 65
1, 977821, Note_on_c, 0, 67, 87
1, 977854, Note_on_c, 0, 44, 90
1, 977861, Note_on_c, 0, 32, 87
1, 977866, Note_off_c, 0, 68, 64
1, 977871, Control_c, 0, 64, 109
1, 977888, Note_on_c, 0, 65, 84
1, 977891, Control_c, 0, 64, 80
1, 977910, Control_c, 0, 64, 46
1, 977913, Note_off_c, 0, 67, 51
1, 977928, Control_c, 0, 64, 0
1, 977983, Note_on_c, 0, 63, 81
1, 977995, Note_off_c, 0, 65, 62
1, 978060, Control_c, 0, 64, 33
1, 978073, Note_on_c, 0, 62, 85
1, 978077, Control_c, 0, 64, 50
1, 978096, Control_c, 0, 64, 64
1, 978113, Note_off_c, 0, 63, 61
1, 978113, Poly_aftertouch_c, 0, 63, 0
1, 978115, Control_c, 0, 64, 71
1, 978133, Control_c, 0, 64, 74
1, 978159, Note_on_c, 0, 60, 78
1, 978162, Note_off_c, 0, 62, 63
1, 978168, Note_off_c, 0, 44, 58
1, 978168, Poly_aftertouch_c, 0, 44, 0
1, 978190, Control_c, 0, 64, 64
1, 978210, Control_c, 0, 64, 44
1, 978227, Control_c, 0, 64, 0
1, 978234, Note_off_c, 0, 32, 63
1, 978238, Note_on_c, 0, 34, 78
1, 978243, Note_on_c, 0, 46, 88
1, 978251, Note_on_c, 0, 58, 87
1, 978280, Note_off_c, 0, 60, 63
1, 978280, Poly_aftertouch_c, 0, 60, 0
1, 978303, Control_c, 0, 64, 36
1, 978315, Note_off_c, 0, 34, 62
1, 978321, Control_c, 0, 64, 60
1, 978323, Note_off_c, 0, 46, 57
1, 978328, Poly_aftertouch_c, 0, 59, 0
1, 978339, Control_c, 0, 64, 79
1, 978346, Note_on_c, 0, 56, 88
1, 978359, Control_c, 0, 64, 92
1, 978377, Control_c, 0, 64, 105
1, 978385, Note_off_c, 0, 58, 65
1, 978395, Control_c, 0, 64, 113
1, 978446, Note_on_c, 0, 55, 84
1, 978470, Note_off_c, 0, 56, 61
1, 978470, Poly_aftertouch_c, 0, 56, 0
1, 978470, Control_c, 0, 64, 107
1, 978489, Control_c, 0, 64, 85
1, 978507, Control_c, 0, 64, 52
1, 978516, Note_on_c, 0, 53, 78
1, 978522, Note_off_c, 0, 55, 61
1, 978522, Poly_aftertouch_c, 0, 55, 0
1, 978526, Control_c, 0, 64, 0
1, 978604, Note_on_c, 0, 48, 82
1, 978612, Note_on_c, 0, 51, 92
1, 978613, Note_on_c, 0, 36, 76
1, 978629, Note_off_c, 0, 53, 65
1, 978629, Poly_aftertouch_c, 0, 53, 0
1, 978637, Control_c, 0, 64, 42
1, 978640, Note_off_c, 0, 48, 68
1, 978640, Poly_aftertouch_c, 0, 48, 0
1, 978648, Note_off_c, 0, 51, 64
1, 978648, Poly_aftertouch_c, 0, 51, 0
1, 978657, Note_off_c, 0, 36, 67
1, 978657, Control_c, 0, 64, 76
1, 978661, Note_on_c, 0, 37, 19
1, 978675, Control_c, 0, 64, 106
1, 978695, Control_c, 0, 64, 127
1, 978732, Note_off_c, 0, 37, 52
1, 978965, Note_on_c, 0, 43, 86
1, 978970, Note_on_c, 0, 31, 86
1, 978979, Note_on_c, 0, 82, 97
1, 979030, Control_c, 0, 64, 102
1, 979050, Control_c, 0, 64, 71
1, 979069, Control_c, 0, 64, 43
1, 979083, Note_on_c, 0, 80, 90
1, 979086, Control_c, 0, 64, 0
1, 979130, Note_off_c, 0, 82, 62
1, 979130, Poly_aftertouch_c, 0, 82, 0
1, 979162, Control_c, 0, 64, 27
1, 979174, Note_on_c, 0, 79, 89
1, 979179, Control_c, 0, 64, 39
1, 979199, Control_c, 0, 64, 46
1, 979217, Note_off_c, 0, 80, 64
1, 979217, Poly_aftertouch_c, 0, 80, 0
1, 979217, Control_c, 0, 64, 51
1, 979237, Control_c, 0, 64, 57
1, 979251, Note_on_c, 0, 77, 80
1, 979253, Note_off_c, 0, 79, 64
1, 979253, Poly_aftertouch_c, 0, 79, 0
1, 979255, Control_c, 0, 64, 63
1, 979274, Control_c, 0, 64, 67
1, 979311, Note_on_c, 0, 75, 90
1, 979332, Note_off_c, 0, 77, 62
1, 979348, Control_c, 0, 64, 69
1, 979382, Note_on_c, 0, 74, 74
1, 979386, Control_c, 0, 64, 71
1, 979412, Note_off_c, 0, 75, 64
1, 979420, Note_on_c, 0, 76, 34
1, 979421, Note_off_c, 0, 76, 127
1, 979422, Control_c, 0, 64, 73
1, 979440, Note_on_c, 0, 72, 80
1, 979443, Control_c, 0, 64, 76
1, 979444, Note_off_c, 0, 74, 64
1, 979461, Control_c, 0, 64, 80
1, 979480, Control_c, 0, 64, 85
1, 979498, Control_c, 0, 64, 91
1, 979517, Control_c, 0, 64, 97
1, 979518, Note_on_c, 0, 70, 89
1, 979527, Note_off_c, 0, 43, 57
1, 979536, Control_c, 0, 64, 104
1, 979537, Note_off_c, 0, 72, 64
1, 979554, Control_c, 0, 64, 109
1, 979575, Control_c, 0, 64, 113
1, 979593, Note_on_c, 0, 68, 85
1, 979628, Note_off_c, 0, 70, 65
1, 979662, Note_on_c, 0, 67, 84
1, 979707, Note_off_c, 0, 68, 64
1, 979724, Control_c, 0, 64, 109
1, 979733, Note_on_c, 0, 44, 87
1, 979742, Note_on_c, 0, 65, 85
1, 979742, Note_on_c, 0, 32, 77
1, 979742, Control_c, 0, 64, 100
1, 979756, Note_off_c, 0, 67, 61
1, 979760, Control_c, 0, 64, 85
1, 979771, Note_off_c, 0, 31, 54
1, 979778, Control_c, 0, 64, 66
1, 979798, Control_c, 0, 64, 43
1, 979815, Control_c, 0, 64, 0
1, 979838, Note_on_c, 0, 63, 83
1, 979858, Note_off_c, 0, 65, 60
1, 979929, Control_c, 0, 64, 29
1, 979933, Note_on_c, 0, 62, 82
1, 979947, Control_c, 0, 64, 48
1, 979965, Control_c, 0, 64, 63
1, 979983, Note_off_c, 0, 44, 61
1, 979983, Poly_aftertouch_c, 0, 44, 0
1, 979985, Control_c, 0, 64, 70
1, 979993, Note_off_c, 0, 63, 56
1, 979993, Poly_aftertouch_c, 0, 63, 0
1, 980004, Control_c, 0, 67, 8
1, 980008, Note_off_c, 0, 62, 61
1, 980027, Note_on_c, 0, 60, 74
1, 980041, Control_c, 0, 64, 60
1, 980059, Control_c, 0, 64, 44
1, 980078, Control_c, 0, 64, 0
1, 980116, Note_on_c, 0, 34, 73
1, 980118, Note_on_c, 0, 46, 72
1, 980122, Note_off_c, 0, 32, 60
1, 980132, Note_on_c, 0, 58, 80
1, 980150, Note_off_c, 0, 60, 62
1, 980150, Poly_aftertouch_c, 0, 60, 0
1, 980190, Control_c, 0, 64, 35
1, 980210, Control_c, 0, 64, 55
1, 980218, Note_off_c, 0, 34, 62
1, 980227, Note_on_c, 0, 56, 76
1, 980228, Control_c, 0, 64, 70
1, 980246, Control_c, 0, 64, 78
1, 980254, Note_off_c, 0, 58, 62
1, 980263, Note_off_c, 0, 46, 62
1, 980265, Control_c, 0, 64, 83
1, 980286, Control_c, 0, 64, 86
1, 980321, Note_on_c, 0, 55, 75
1, 980321, Control_c, 0, 64, 88
1, 980330, Note_off_c, 0, 56, 61
1, 980330, Poly_aftertouch_c, 0, 56, 0
1, 980358, Control_c, 0, 67, 12
1, 980385, Note_off_c, 0, 55, 61
1, 980385, Poly_aftertouch_c, 0, 55, 0
1, 980399, Note_on_c, 0, 53, 72
1, 980415, Control_c, 0, 67, 18
1, 980433, Control_c, 0, 67, 22
1, 980452, Control_c, 0, 67, 26
1, 980471, Control_c, 0, 67, 32
1, 980489, Control_c, 0, 67, 37
1, 980492, Note_on_c, 0, 51, 79
1, 980505, Note_off_c, 0, 53, 61
1, 980505, Poly_aftertouch_c, 0, 53, 0
1, 980509, Control_c, 0, 67, 42
1, 980522, Note_on_c, 0, 39, 78
1, 980526, Note_off_c, 0, 51, 69
1, 980526, Poly_aftertouch_c, 0, 51, 0
1, 980529, Control_c, 0, 64, 81
1, 980530, Control_c, 0, 67, 48
1, 980546, Control_c, 0, 64, 70
1, 980548, Control_c, 0, 67, 55
1, 980564, Control_c, 0, 64, 53
1, 980565, Control_c, 0, 67, 61
1, 980584, Control_c, 0, 64, 19
1, 980585, Control_c, 0, 67, 67
1, 980602, Control_c, 0, 64, 0
1, 980603, Control_c, 0, 67, 74
1, 980622, Control_c, 0, 67, 80
1, 980639, Control_c, 0, 67, 86
1, 980658, Control_c, 0, 67, 93
1, 980677, Control_c, 0, 67, 98
1, 980694, Control_c, 0, 67, 103
1, 980714, Control_c, 0, 67, 108
1, 980730, Note_on_c, 0, 51, 68
1, 980734, Control_c, 0, 67, 114
1, 980751, Control_c, 0, 67, 118
1, 980789, Control_c, 0, 67, 123
1, 980826, Control_c, 0, 67, 127
1, 980939, Note_on_c, 0, 67, 65
1, 981018, Note_on_c, 0, 63, 73
1, 981024, Note_off_c, 0, 67, 59
1, 981113, Note_on_c, 0, 68, 70
1, 981145, Note_off_c, 0, 63, 53
1, 981145, Poly_aftertouch_c, 0, 63, 0
1, 981157, Note_off_c, 0, 39, 58
1, 981201, Control_c, 0, 64, 12
1, 981204, Note_on_c, 0, 65, 67
1, 981219, Control_c, 0, 64, 27
1, 981238, Control_c, 0, 64, 34
1, 981247, Note_off_c, 0, 68, 52
1, 981274, Note_off_c, 0, 65, 60
1, 981297, Note_off_c, 0, 51, 38
1, 981297, Poly_aftertouch_c, 0, 51, 0
1, 981307, Note_on_c, 0, 39, 63
1, 981312, Control_c, 0, 64, 27
1, 981331, Control_c, 0, 64, 20
1, 981350, Control_c, 0, 64, 0
1, 981512, Note_on_c, 0, 51, 43
1, 981710, Note_on_c, 0, 70, 53
1, 981777, Note_off_c, 0, 70, 58
1, 981810, Note_on_c, 0, 67, 54
1, 981889, Note_on_c, 0, 72, 56
1, 981918, Note_off_c, 0, 67, 50
1, 981926, Note_off_c, 0, 39, 57
1, 981966, Control_c, 0, 64, 20
1, 981982, Note_on_c, 0, 68, 56
1, 981984, Control_c, 0, 64, 38
1, 982005, Control_c, 0, 64, 50
1, 982020, Note_off_c, 0, 51, 49
1, 982020, Poly_aftertouch_c, 0, 51, 0
1, 982023, Control_c, 0, 64, 57
1, 982027, Note_off_c, 0, 72, 54
1, 982041, Control_c, 0, 64, 61
1, 982042, Note_off_c, 0, 68, 57
1, 982092, Note_on_c, 0, 39, 49
1, 982097, Control_c, 0, 64, 60
1, 982116, Control_c, 0, 64, 58
1, 982134, Control_c, 0, 64, 55
1, 982154, Control_c, 0, 64, 50
1, 982172, Control_c, 0, 64, 44
1, 982191, Control_c, 0, 64, 36
1, 982210, Control_c, 0, 64, 24
1, 982228, Control_c, 0, 64, 0
1, 982300, Note_on_c, 0, 51, 36
1, 982360, Control_c, 0, 64, 19
1, 982378, Control_c, 0, 64, 31
1, 982396, Control_c, 0, 64, 42
1, 982416, Control_c, 0, 64, 51
1, 982433, Control_c, 0, 64, 58
1, 982453, Control_c, 0, 64, 63
1, 982471, Control_c, 0, 64, 65
1, 982491, Control_c, 0, 64, 67
1, 982510, Control_c, 0, 64, 68
1, 982536, Note_on_c, 0, 73, 48
1, 982566, Control_c, 0, 64, 71
1, 982603, Control_c, 0, 64, 73
1, 982640, Control_c, 0, 64, 75
1, 982678, Control_c, 0, 64, 78
1, 982715, Control_c, 0, 64, 80
1, 982737, Note_on_c, 0, 70, 40
1, 982740, Note_off_c, 0, 73, 37
1, 982828, Note_off_c, 0, 70, 52
1, 982851, Note_on_c, 0, 74, 47
1, 982966, Note_off_c, 0, 74, 58
1, 982989, Note_on_c, 0, 71, 46
1, 983094, Note_on_c, 0, 75, 53
1, 983110, Note_off_c, 0, 71, 37
1, 983197, Note_off_c, 0, 75, 56
1, 983208, Note_on_c, 0, 72, 45
1, 983291, Note_on_c, 0, 74, 66
1, 983298, Note_off_c, 0, 72, 54
1, 983344, Note_off_c, 0, 74, 57
1, 983351, Control_c, 0, 64, 78
1, 983385, Note_on_c, 0, 71, 55
1, 983469, Note_on_c, 0, 75, 69
1, 983480, Note_off_c, 0, 71, 54
1, 983559, Note_off_c, 0, 75, 59
1, 983566, Note_on_c, 0, 72, 65
1, 983664, Note_on_c, 0, 74, 71
1, 983671, Note_off_c, 0, 72, 55
1, 983707, Note_off_c, 0, 74, 61
1, 983750, Note_on_c, 0, 71, 64
1, 983836, Control_c, 0, 64, 75
1, 983837, Note_on_c, 0, 75, 70
1, 983846, Note_off_c, 0, 71, 53
1, 983875, Control_c, 0, 64, 72
1, 983893, Control_c, 0, 64, 69
1, 983912, Control_c, 0, 64, 64
1, 983913, Control_c, 0, 67, 122
1, 983922, Note_off_c, 0, 75, 60
1, 983930, Control_c, 0, 64, 61
1, 983932, Control_c, 0, 67, 113
1, 983939, Note_on_c, 0, 72, 65
1, 983949, Control_c, 0, 67, 103
1, 983968, Control_c, 0, 67, 93
1, 983986, Control_c, 0, 64, 62
1, 983987, Control_c, 0, 67, 84
1, 984005, Control_c, 0, 64, 63
1, 984026, Control_c, 0, 67, 80
1, 984028, Note_off_c, 0, 72, 49
1, 984031, Note_on_c, 0, 74, 67
1, 984061, Control_c, 0, 67, 84
1, 984086, Note_off_c, 0, 74, 58
1, 984099, Control_c, 0, 64, 62
1, 984100, Control_c, 0, 67, 95
1, 984116, Control_c, 0, 67, 106
1, 984136, Control_c, 0, 64, 61
1, 984138, Control_c, 0, 67, 117
1, 984145, Note_on_c, 0, 71, 52
1, 984154, Control_c, 0, 67, 123
1, 984173, Control_c, 0, 64, 60
1, 984191, Control_c, 0, 64, 56
1, 984193, Control_c, 0, 67, 127
1, 984211, Control_c, 0, 64, 49
1, 984229, Control_c, 0, 64, 41
1, 984230, Note_off_c, 0, 71, 47
1, 984247, Control_c, 0, 64, 33
1, 984248, Note_on_c, 0, 75, 58
1, 984323, Control_c, 0, 64, 38
1, 984341, Control_c, 0, 64, 44
1, 984344, Note_off_c, 0, 75, 59
1, 984357, Note_on_c, 0, 72, 50
1, 984360, Control_c, 0, 64, 53
1, 984378, Control_c, 0, 64, 62
1, 984397, Control_c, 0, 64, 68
1, 984416, Control_c, 0, 64, 71
1, 984435, Control_c, 0, 64, 73
1, 984450, Note_off_c, 0, 72, 61
1, 984474, Note_on_c, 0, 77, 54
1, 984524, Note_off_c, 0, 77, 59
1, 984581, Note_on_c, 0, 69, 48
1, 984659, Control_c, 0, 64, 69
1, 984677, Note_on_c, 0, 73, 56
1, 984677, Control_c, 0, 64, 66
1, 984694, Note_off_c, 0, 69, 47
1, 984694, Poly_aftertouch_c, 0, 69, 0
1, 984696, Control_c, 0, 64, 61
1, 984715, Control_c, 0, 64, 56
1, 984727, Note_off_c, 0, 73, 63
1, 984733, Control_c, 0, 64, 54
1, 984761, Note_on_c, 0, 70, 52
1, 984790, Control_c, 0, 64, 58
1, 984809, Control_c, 0, 64, 61
1, 984829, Control_c, 0, 64, 65
1, 984832, Note_off_c, 0, 70, 56
1, 984847, Control_c, 0, 64, 66
1, 984849, Note_on_c, 0, 75, 62
1, 984903, Control_c, 0, 64, 65
1, 984921, Control_c, 0, 64, 64
1, 984940, Control_c, 0, 64, 62
1, 984946, Note_off_c, 0, 75, 64
1, 984949, Note_on_c, 0, 67, 54
1, 984958, Control_c, 0, 64, 61
1, 984996, Control_c, 0, 64, 59
1, 985022, Note_on_c, 0, 72, 61
1, 985040, Note_off_c, 0, 67, 50
1, 985068, Note_off_c, 0, 72, 61
1, 985119, Note_on_c, 0, 68, 59
1, 985200, Note_off_c, 0, 68, 59
1, 985201, Control_c, 0, 64, 57
1, 985204, Note_on_c, 0, 73, 62
1, 985284, Note_on_c, 0, 65, 56
1, 985285, Note_off_c, 0, 73, 54
1, 985339, Note_off_c, 0, 65, 54
1, 985363, Note_on_c, 0, 70, 62
1, 985411, Note_off_c, 0, 70, 57
1, 985459, Note_on_c, 0, 67, 67
1, 985506, Note_off_c, 0, 67, 58
1, 985537, Note_on_c, 0, 72, 60
1, 985577, Note_off_c, 0, 72, 64
1, 985619, Note_on_c, 0, 64, 56
1, 985693, Note_off_c, 0, 64, 45
1, 985704, Note_on_c, 0, 68, 55
1, 985752, Note_off_c, 0, 68, 64
1, 985782, Note_on_c, 0, 65, 59
1, 985799, Control_c, 0, 64, 60
1, 985819, Control_c, 0, 64, 62
1, 985837, Control_c, 0, 64, 66
1, 985840, Note_off_c, 0, 65, 59
1, 985851, Note_off_c, 0, 39, 60
1, 985855, Control_c, 0, 64, 69
1, 985865, Poly_aftertouch_c, 0, 44, 0
1, 985870, Note_on_c, 0, 70, 64
1, 985873, Control_c, 0, 64, 73
1, 985875, Control_c, 0, 67, 121
1, 985894, Control_c, 0, 64, 76
1, 985895, Control_c, 0, 67, 114
1, 985913, Control_c, 0, 64, 78
1, 985914, Control_c, 0, 67, 106
1, 985919, Note_off_c, 0, 51, 61
1, 985919, Poly_aftertouch_c, 0, 51, 0
1, 985930, Control_c, 0, 67, 98
1, 985951, Control_c, 0, 64, 81
1, 985952, Control_c, 0, 67, 89
1, 985955, Note_off_c, 0, 70, 61
1, 985960, Note_on_c, 0, 62, 56
1, 985968, Control_c, 0, 67, 82
1, 985987, Control_c, 0, 67, 76
1, 986005, Control_c, 0, 67, 71
1, 986025, Control_c, 0, 67, 67
1, 986056, Note_on_c, 0, 67, 56
1, 986061, Note_off_c, 0, 62, 55
1, 986061, Control_c, 0, 67, 63
1, 986068, Note_on_c, 0, 51, 76
1, 986099, Control_c, 0, 64, 78
1, 986102, Note_off_c, 0, 67, 64
1, 986119, Control_c, 0, 64, 76
1, 986129, Note_on_c, 0, 63, 56
1, 986136, Control_c, 0, 64, 74
1, 986155, Control_c, 0, 64, 71
1, 986174, Control_c, 0, 64, 69
1, 986189, Note_off_c, 0, 63, 61
1, 986189, Poly_aftertouch_c, 0, 63, 0
1, 986211, Control_c, 0, 64, 67
1, 986245, Note_on_c, 0, 62, 42
1, 986287, Control_c, 0, 64, 66
1, 986289, Control_c, 0, 67, 67
1, 986308, Note_off_c, 0, 62, 57
1, 986323, Control_c, 0, 64, 65
1, 986334, Note_on_c, 0, 63, 51
1, 986380, Control_c, 0, 64, 63
1, 986381, Control_c, 0, 67, 72
1, 986405, Note_off_c, 0, 63, 53
1, 986405, Poly_aftertouch_c, 0, 63, 0
1, 986418, Control_c, 0, 67, 77
1, 986437, Control_c, 0, 67, 81
1, 986447, Note_on_c, 0, 61, 50
1, 986455, Control_c, 0, 67, 85
1, 986459, Note_on_c, 0, 67, 37
1, 986472, Control_c, 0, 67, 89
1, 986492, Control_c, 0, 67, 93
1, 986511, Control_c, 0, 67, 98
1, 986529, Control_c, 0, 67, 102
1, 986558, Note_off_c, 0, 67, 57
1, 986559, Note_on_c, 0, 63, 56
1, 986566, Control_c, 0, 67, 108
1, 986642, Note_on_c, 0, 68, 44
1, 986656, Note_on_c, 0, 60, 60
1, 986662, Note_off_c, 0, 63, 53
1, 986662, Poly_aftertouch_c, 0, 63, 0
1, 986691, Note_off_c, 0, 61, 63
1, 986743, Note_on_c, 0, 63, 47
1, 986753, Control_c, 0, 64, 64
1, 986773, Control_c, 0, 64, 65
1, 986829, Control_c, 0, 64, 66
1, 986842, Note_on_c, 0, 58, 62
1, 986847, Note_off_c, 0, 63, 58
1, 986847, Note_on_c, 0, 70, 62
1, 986847, Poly_aftertouch_c, 0, 63, 0
1, 986864, Note_off_c, 0, 60, 56
1, 986864, Poly_aftertouch_c, 0, 60, 0
1, 986885, Control_c, 0, 64, 67
1, 986894, Note_off_c, 0, 68, 56
1, 986948, Note_off_c, 0, 70, 54
1, 986956, Note_on_c, 0, 63, 27
1, 986978, Control_c, 0, 64, 69
1, 986998, Control_c, 0, 67, 104
1, 987015, Control_c, 0, 64, 72
1, 987023, Note_on_c, 0, 56, 69
1, 987033, Control_c, 0, 67, 99
1, 987036, Note_on_c, 0, 72, 73
1, 987046, Note_off_c, 0, 63, 54
1, 987046, Poly_aftertouch_c, 0, 63, 0
1, 987052, Control_c, 0, 64, 75
1, 987053, Control_c, 0, 67, 94
1, 987069, Note_off_c, 0, 58, 58
1, 987071, Control_c, 0, 67, 88
1, 987091, Control_c, 0, 64, 78
1, 987092, Control_c, 0, 67, 80
1, 987109, Control_c, 0, 67, 73
1, 987121, Note_off_c, 0, 72, 60
1, 987128, Control_c, 0, 64, 81
1, 987128, Control_c, 0, 67, 66
1, 987145, Control_c, 0, 67, 59
1, 987165, Control_c, 0, 64, 84
1, 987166, Note_on_c, 0, 63, 13
1, 987169, Control_c, 0, 67, 53
1, 987184, Control_c, 0, 67, 46
1, 987201, Control_c, 0, 67, 38
1, 987206, Note_on_c, 0, 55, 65
1, 987211, Note_off_c, 0, 63, 59
1, 987211, Poly_aftertouch_c, 0, 63, 0
1, 987214, Note_on_c, 0, 73, 77
1, 987220, Control_c, 0, 64, 86
1, 987221, Control_c, 0, 67, 28
1, 987228, Note_off_c, 0, 56, 60
1, 987228, Poly_aftertouch_c, 0, 56, 0
1, 987240, Control_c, 0, 67, 16
1, 987296, Control_c, 0, 64, 88
1, 987303, Note_off_c, 0, 73, 60
1, 987316, Note_on_c, 0, 63, 65
1, 987332, Control_c, 0, 67, 0
1, 987391, Note_off_c, 0, 63, 52
1, 987391, Poly_aftertouch_c, 0, 63, 0
1, 987398, Note_on_c, 0, 74, 80
1, 987402, Note_off_c, 0, 51, 56
1, 987402, Poly_aftertouch_c, 0, 51, 0
1, 987429, Note_on_c, 0, 53, 53
1, 987436, Note_off_c, 0, 55, 58
1, 987436, Poly_aftertouch_c, 0, 55, 0
1, 987471, Note_off_c, 0, 74, 62
1, 987504, Note_on_c, 0, 63, 56
1, 987544, Note_off_c, 0, 63, 65
1, 987544, Poly_aftertouch_c, 0, 63, 0
1, 987584, Note_off_c, 0, 53, 60
1, 987584, Poly_aftertouch_c, 0, 53, 0
1, 987585, Note_on_c, 0, 75, 80
1, 987595, Note_on_c, 0, 51, 66
1, 987596, Control_c, 0, 64, 84
1, 987632, Control_c, 0, 64, 81
1, 987651, Control_c, 0, 64, 78
1, 987655, Note_off_c, 0, 75, 65
1, 987655, Note_on_c, 0, 63, 65
1, 987669, Control_c, 0, 64, 75
1, 987688, Control_c, 0, 64, 73
1, 987707, Control_c, 0, 64, 70
1, 987727, Control_c, 0, 64, 68
1, 987743, Note_off_c, 0, 63, 55
1, 987743, Poly_aftertouch_c, 0, 63, 0
1, 987743, Control_c, 0, 64, 66
1, 987763, Control_c, 0, 64, 65
1, 987772, Note_on_c, 0, 67, 75
1, 987772, Note_on_c, 0, 75, 82
1, 987780, Note_on_c, 0, 49, 75
1, 987783, Control_c, 0, 64, 63
1, 987789, Note_off_c, 0, 51, 53
1, 987789, Poly_aftertouch_c, 0, 51, 0
1, 987800, Control_c, 0, 64, 60
1, 987819, Control_c, 0, 64, 56
1, 987835, Note_off_c, 0, 67, 63
1, 987838, Note_off_c, 0, 75, 65
1, 987838, Control_c, 0, 64, 51
1, 987855, Control_c, 0, 64, 45
1, 987856, Note_on_c, 0, 63, 71
1, 987860, Note_off_c, 0, 49, 57
1, 987860, Poly_aftertouch_c, 0, 49, 0
1, 987876, Control_c, 0, 64, 39
1, 987894, Control_c, 0, 64, 31
1, 987915, Control_c, 0, 64, 23
1, 987932, Control_c, 0, 64, 16
1, 987940, Note_off_c, 0, 63, 57
1, 987940, Poly_aftertouch_c, 0, 63, 0
1, 987949, Control_c, 0, 64, 11
1, 987951, Note_on_c, 0, 48, 78
1, 987961, Note_on_c, 0, 75, 85
1, 987963, Note_on_c, 0, 68, 78
1, 987989, Control_c, 0, 64, 0
1, 987997, Note_off_c, 0, 48, 64
1, 987997, Poly_aftertouch_c, 0, 48, 0
1, 988031, Note_off_c, 0, 68, 62
1, 988043, Note_off_c, 0, 75, 59
1, 988059, Note_on_c, 0, 63, 66
1, 988115, Note_off_c, 0, 63, 57
1, 988115, Poly_aftertouch_c, 0, 63, 0
1, 988148, Note_on_c, 0, 44, 76
1, 988153, Note_on_c, 0, 75, 77
1, 988165, Note_on_c, 0, 68, 70
1, 988165, Note_on_c, 0, 72, 70
1, 988183, Note_off_c, 0, 44, 66
1, 988200, Note_off_c, 0, 68, 65
1, 988225, Note_off_c, 0, 75, 65
1, 988230, Note_off_c, 0, 72, 60
1, 988240, Note_on_c, 0, 63, 74
1, 988327, Note_on_c, 0, 75, 88
1, 988329, Note_on_c, 0, 67, 78
1, 988329, Note_on_c, 0, 51, 87
1, 988329, Note_on_c, 0, 70, 81
1, 988346, Note_off_c, 0, 63, 61
1, 988346, Poly_aftertouch_c, 0, 63, 0
1, 988391, Note_off_c, 0, 51, 60
1, 988391, Poly_aftertouch_c, 0, 51, 0
1, 988411, Note_off_c, 0, 75, 65
1, 988414, Note_off_c, 0, 70, 64
1, 988415, Note_on_c, 0, 63, 80
1, 988502, Note_off_c, 0, 63, 60
1, 988502, Poly_aftertouch_c, 0, 63, 0
1, 988507, Note_on_c, 0, 39, 82
1, 988510, Note_on_c, 0, 70, 77
1, 988514, Note_on_c, 0, 75, 86
1, 988532, Control_c, 0, 64, 31
1, 988532, Control_c, 0, 67, 8
1, 988547, Note_off_c, 0, 39, 64
1, 988548, Control_c, 0, 64, 68
1, 988567, Note_off_c, 0, 70, 58
1, 988567, Control_c, 0, 64, 80
1, 988568, Control_c, 0, 67, 16
1, 988589, Control_c, 0, 64, 85
1, 988591, Control_c, 0, 67, 20
1, 988595, Note_on_c, 0, 63, 61
1, 988597, Note_off_c, 0, 67, 34
1, 988598, Poly_aftertouch_c, 0, 67, 0
1, 988611, Note_off_c, 0, 75, 63
1, 988625, Control_c, 0, 67, 25
1, 988633, Note_off_c, 0, 63, 65
1, 988633, Poly_aftertouch_c, 0, 63, 0
1, 988662, Control_c, 0, 64, 82
1, 988679, Control_c, 0, 64, 80
1, 988699, Control_c, 0, 64, 77
1, 988717, Control_c, 0, 64, 74
1, 988723, Note_on_c, 0, 63, 76
1, 988731, Note_on_c, 0, 72, 76
1, 988736, Control_c, 0, 64, 70
1, 988754, Control_c, 0, 64, 65
1, 988774, Control_c, 0, 64, 60
1, 988792, Control_c, 0, 64, 56
1, 988802, Note_off_c, 0, 63, 59
1, 988802, Poly_aftertouch_c, 0, 63, 0
1, 988810, Control_c, 0, 64, 51
1, 988815, Note_on_c, 0, 75, 83
1, 988829, Note_on_c, 0, 60, 67
1, 988830, Control_c, 0, 64, 44
1, 988836, Note_off_c, 0, 72, 59
1, 988847, Control_c, 0, 64, 36
1, 988867, Control_c, 0, 64, 26
1, 988877, Note_off_c, 0, 60, 61
1, 988877, Poly_aftertouch_c, 0, 60, 0
1, 988883, Control_c, 0, 64, 18
1, 988885, Note_off_c, 0, 75, 65
1, 988904, Control_c, 0, 64, 12
1, 988909, Note_on_c, 0, 69, 77
1, 988915, Note_on_c, 0, 65, 68
1, 988960, Control_c, 0, 64, 0
1, 988970, Note_off_c, 0, 65, 57
1, 988995, Note_on_c, 0, 77, 80
1, 988998, Note_on_c, 0, 57, 66
1, 988999, Note_off_c, 0, 69, 48
1, 988999, Poly_aftertouch_c, 0, 69, 0
1, 989016, Control_c, 0, 67, 31
1, 989035, Control_c, 0, 67, 35
1, 989053, Control_c, 0, 67, 40
1, 989058, Note_off_c, 0, 57, 59
1, 989058, Poly_aftertouch_c, 0, 57, 0
1, 989069, Note_off_c, 0, 77, 62
1, 989071, Control_c, 0, 67, 45
1, 989088, Note_on_c, 0, 70, 80
1, 989089, Control_c, 0, 67, 49
1, 989097, Note_on_c, 0, 61, 63
1, 989109, Control_c, 0, 67, 53
1, 989128, Control_c, 0, 67, 58
1, 989133, Note_off_c, 0, 61, 66
1, 989147, Control_c, 0, 67, 64
1, 989165, Control_c, 0, 67, 71
1, 989175, Note_on_c, 0, 73, 78
1, 989184, Control_c, 0, 67, 77
1, 989188, Note_on_c, 0, 58, 60
1, 989196, Note_off_c, 0, 70, 59
1, 989203, Control_c, 0, 67, 84
1, 989223, Control_c, 0, 67, 90
1, 989230, Note_off_c, 0, 58, 63
1, 989240, Control_c, 0, 67, 95
1, 989241, Note_off_c, 0, 73, 62
1, 989258, Control_c, 0, 67, 101
1, 989262, Note_on_c, 0, 63, 65
1, 989263, Note_on_c, 0, 67, 72
1, 989278, Control_c, 0, 67, 108
1, 989296, Control_c, 0, 67, 114
1, 989300, Note_off_c, 0, 63, 64
1, 989300, Poly_aftertouch_c, 0, 63, 0
1, 989315, Control_c, 0, 67, 118
1, 989351, Control_c, 0, 67, 122
1, 989356, Note_on_c, 0, 75, 74
1, 989358, Note_on_c, 0, 55, 54
1, 989372, Note_off_c, 0, 67, 59
1, 989390, Control_c, 0, 67, 127
1, 989417, Note_off_c, 0, 55, 58
1, 989417, Poly_aftertouch_c, 0, 55, 0
1, 989435, Note_on_c, 0, 68, 72
1, 989444, Note_on_c, 0, 60, 64
1, 989499, Note_off_c, 0, 60, 58
1, 989499, Poly_aftertouch_c, 0, 60, 0
1, 989535, Note_on_c, 0, 56, 63
1, 989535, Note_on_c, 0, 72, 66
1, 989538, Note_off_c, 0, 68, 59
1, 989542, Note_off_c, 0, 75, 47
1, 989561, Note_on_c, 0, 73, 33
1, 989587, Note_off_c, 0, 56, 58
1, 989587, Poly_aftertouch_c, 0, 56, 0
1, 989594, Note_off_c, 0, 72, 62
1, 989597, Note_off_c, 0, 73, 34
1, 989616, Note_on_c, 0, 61, 66
1, 989624, Note_on_c, 0, 65, 67
1, 989659, Note_off_c, 0, 61, 62
1, 989687, Note_off_c, 0, 65, 46
1, 989705, Note_on_c, 0, 73, 74
1, 989729, Note_on_c, 0, 53, 59
1, 989749, Note_on_c, 0, 54, 9
1, 989778, Note_off_c, 0, 53, 62
1, 989778, Poly_aftertouch_c, 0, 53, 0
1, 989794, Note_off_c, 0, 54, 39
1, 989805, Note_off_c, 0, 73, 57
1, 989805, Note_on_c, 0, 67, 74
1, 989813, Note_on_c, 0, 58, 64
1, 989866, Note_off_c, 0, 67, 51
1, 989870, Note_off_c, 0, 58, 56
1, 989890, Note_on_c, 0, 70, 77
1, 989902, Note_on_c, 0, 55, 55
1, 989939, Note_off_c, 0, 55, 62
1, 989939, Poly_aftertouch_c, 0, 55, 0
1, 989946, Note_off_c, 0, 70, 59
1, 989986, Note_on_c, 0, 60, 61
1, 989993, Note_on_c, 0, 64, 66
1, 990029, Note_off_c, 0, 60, 60
1, 990029, Poly_aftertouch_c, 0, 60, 0
1, 990037, Note_off_c, 0, 64, 53
1, 990053, Note_on_c, 0, 52, 58
1, 990071, Note_on_c, 0, 72, 62
1, 990102, Note_off_c, 0, 52, 64
1, 990143, Note_off_c, 0, 72, 61
1, 990143, Note_on_c, 0, 56, 67
1, 990155, Note_on_c, 0, 65, 71
1, 990188, Note_off_c, 0, 56, 63
1, 990188, Poly_aftertouch_c, 0, 56, 0
1, 990218, Note_on_c, 0, 53, 51
1, 990235, Note_off_c, 0, 65, 61
1, 990238, Note_on_c, 0, 68, 73
1, 990281, Note_off_c, 0, 53, 59
1, 990281, Poly_aftertouch_c, 0, 53, 0
1, 990286, Note_off_c, 0, 68, 64
1, 990316, Note_on_c, 0, 62, 66
1, 990319, Note_on_c, 0, 58, 63
1, 990360, Note_off_c, 0, 58, 66
1, 990400, Note_on_c, 0, 50, 61
1, 990402, Note_on_c, 0, 70, 73
1, 990416, Note_off_c, 0, 62, 54
1, 990448, Note_off_c, 0, 50, 63
1, 990448, Poly_aftertouch_c, 0, 50, 0
1, 990490, Note_on_c, 0, 63, 69
1, 990500, Note_on_c, 0, 55, 60
1, 990532, Control_c, 0, 67, 121
1, 990544, Note_off_c, 0, 55, 62
1, 990544, Poly_aftertouch_c, 0, 55, 0
1, 990550, Control_c, 0, 67, 113
1, 990569, Control_c, 0, 64, 12
1, 990570, Control_c, 0, 67, 103
1, 990574, Note_off_c, 0, 63, 62
1, 990574, Poly_aftertouch_c, 0, 63, 0
1, 990582, Note_on_c, 0, 51, 70
1, 990588, Control_c, 0, 64, 31
1, 990590, Control_c, 0, 67, 92
1, 990600, Note_off_c, 0, 70, 64
1, 990605, Control_c, 0, 64, 45
1, 990606, Control_c, 0, 67, 82
1, 990626, Control_c, 0, 64, 56
1, 990627, Control_c, 0, 67, 73
1, 990628, Note_off_c, 0, 51, 62
1, 990628, Poly_aftertouch_c, 0, 51, 0
1, 990643, Control_c, 0, 64, 63
1, 990644, Control_c, 0, 67, 68
1, 990661, Control_c, 0, 64, 64
1, 990678, Note_on_c, 0, 50, 61
1, 990680, Control_c, 0, 64, 62
1, 990699, Control_c, 0, 64, 59
1, 990717, Control_c, 0, 64, 53
1, 990737, Control_c, 0, 64, 43
1, 990741, Note_off_c, 0, 50, 56
1, 990741, Poly_aftertouch_c, 0, 50, 0
1, 990755, Control_c, 0, 64, 30
1, 990769, Note_on_c, 0, 51, 63
1, 990772, Control_c, 0, 64, 20
1, 990810, Note_off_c, 0, 51, 63
1, 990810, Poly_aftertouch_c, 0, 51, 0
1, 990810, Control_c, 0, 64, 28
1, 990829, Control_c, 0, 64, 38
1, 990843, Note_on_c, 0, 85, 69
1, 990847, Control_c, 0, 64, 51
1, 990853, Note_on_c, 0, 55, 62
1, 990854, Note_on_c, 0, 73, 60
1, 990868, Control_c, 0, 64, 63
1, 990886, Control_c, 0, 64, 69
1, 990905, Control_c, 0, 64, 67
1, 990923, Control_c, 0, 64, 57
1, 990927, Note_off_c, 0, 85, 63
1, 990929, Note_off_c, 0, 55, 51
1, 990929, Poly_aftertouch_c, 0, 55, 0
1, 990935, Note_on_c, 0, 51, 54
1, 990942, Control_c, 0, 64, 42
1, 990948, Note_off_c, 0, 73, 63
1, 990960, Control_c, 0, 64, 25
1, 990998, Control_c, 0, 64, 34
1, 990999, Note_off_c, 0, 51, 58
1, 990999, Poly_aftertouch_c, 0, 51, 0
1, 991014, Note_on_c, 0, 56, 61
1, 991016, Control_c, 0, 64, 47
1, 991029, Note_on_c, 0, 84, 74
1, 991034, Control_c, 0, 64, 62
1, 991045, Note_on_c, 0, 72, 64
1, 991052, Control_c, 0, 64, 69
1, 991073, Control_c, 0, 64, 66
1, 991091, Control_c, 0, 64, 60
1, 991092, Note_off_c, 0, 72, 59
1, 991092, Control_c, 0, 67, 62
1, 991103, Note_off_c, 0, 56, 60
1, 991103, Poly_aftertouch_c, 0, 56, 0
1, 991109, Control_c, 0, 64, 55
1, 991120, Note_on_c, 0, 51, 68
1, 991128, Control_c, 0, 67, 54
1, 991148, Control_c, 0, 67, 50
1, 991166, Control_c, 0, 64, 58
1, 991185, Control_c, 0, 64, 63
1, 991186, Control_c, 0, 67, 44
1, 991204, Control_c, 0, 64, 70
1, 991208, Note_off_c, 0, 51, 58
1, 991208, Poly_aftertouch_c, 0, 51, 0
1, 991211, Note_on_c, 0, 58, 67
1, 991212, Note_on_c, 0, 82, 80
1, 991222, Note_on_c, 0, 70, 73
1, 991223, Control_c, 0, 64, 77
1, 991223, Control_c, 0, 67, 39
1, 991225, Note_off_c, 0, 84, 60
1, 991241, Control_c, 0, 64, 81
1, 991261, Control_c, 0, 67, 34
1, 991279, Control_c, 0, 64, 71
1, 991286, Note_off_c, 0, 82, 64
1, 991286, Poly_aftertouch_c, 0, 82, 0
1, 991290, Note_off_c, 0, 70, 60
1, 991297, Control_c, 0, 64, 60
1, 991316, Control_c, 0, 67, 30
1, 991322, Note_off_c, 0, 58, 61
1, 991326, Note_on_c, 0, 51, 63
1, 991335, Control_c, 0, 64, 65
1, 991354, Control_c, 0, 64, 72
1, 991354, Control_c, 0, 67, 23
1, 991372, Control_c, 0, 64, 81
1, 991373, Control_c, 0, 67, 16
1, 991381, Note_off_c, 0, 51, 53
1, 991381, Poly_aftertouch_c, 0, 51, 0
1, 991392, Note_on_c, 0, 60, 69
1, 991392, Control_c, 0, 64, 93
1, 991396, Note_on_c, 0, 80, 83
1, 991405, Note_on_c, 0, 68, 73
1, 991410, Control_c, 0, 64, 108
1, 991428, Control_c, 0, 64, 120
1, 991430, Control_c, 0, 67, 0
1, 991435, Note_on_c, 0, 70, 52
1, 991452, Note_off_c, 0, 60, 60
1, 991452, Poly_aftertouch_c, 0, 60, 0
1, 991461, Note_off_c, 0, 70, 61
1, 991473, Note_off_c, 0, 80, 62
1, 991473, Poly_aftertouch_c, 0, 80, 0
1, 991483, Note_off_c, 0, 68, 61
1, 991483, Control_c, 0, 64, 114
1, 991501, Note_on_c, 0, 51, 74
1, 991502, Control_c, 0, 64, 107
1, 991521, Control_c, 0, 64, 101
1, 991576, Note_on_c, 0, 79, 84
1, 991578, Note_on_c, 0, 61, 73
1, 991580, Control_c, 0, 64, 97
1, 991581, Note_on_c, 0, 67, 80
1, 991584, Note_off_c, 0, 51, 55
1, 991584, Poly_aftertouch_c, 0, 51, 0
1, 991649, Note_off_c, 0, 79, 62
1, 991649, Poly_aftertouch_c, 0, 79, 0
1, 991651, Control_c, 0, 64, 102
1, 991657, Note_off_c, 0, 61, 56
1, 991657, Note_off_c, 0, 67, 58
1, 991681, Note_on_c, 0, 51, 76
1, 991755, Note_on_c, 0, 77, 84
1, 991759, Note_off_c, 0, 51, 57
1, 991759, Note_on_c, 0, 65, 80
1, 991759, Poly_aftertouch_c, 0, 51, 0
1, 991771, Note_on_c, 0, 62, 65
1, 991814, Note_off_c, 0, 62, 62
1, 991848, Note_on_c, 0, 51, 74
1, 991896, Control_c, 0, 64, 95
1, 991914, Control_c, 0, 64, 82
1, 991933, Control_c, 0, 64, 60
1, 991937, Note_on_c, 0, 75, 80
1, 991944, Note_off_c, 0, 51, 60
1, 991944, Poly_aftertouch_c, 0, 51, 0
1, 991952, Control_c, 0, 64, 30
1, 991953, Note_off_c, 0, 77, 59
1, 991955, Note_on_c, 0, 63, 78
1, 991970, Control_c, 0, 64, 0
1, 991971, Note_off_c, 0, 65, 58
1, 991972, Note_off_c, 0, 75, 67
1, 991991, Control_c, 0, 67, 8
1, 992026, Note_off_c, 0, 63, 61
1, 992026, Poly_aftertouch_c, 0, 63, 0
1, 992066, Note_on_c, 0, 51, 78
1, 992124, Note_on_c, 0, 75, 80
1, 992127, Note_on_c, 0, 72, 78
1, 992127, Note_on_c, 0, 68, 80
1, 992144, Note_off_c, 0, 51, 59
1, 992144, Poly_aftertouch_c, 0, 51, 0
1, 992146, Note_on_c, 0, 63, 80
1, 992157, Note_off_c, 0, 68, 74
1, 992158, Note_off_c, 0, 72, 71
1, 992158, Control_c, 0, 67, 12
1, 992164, Note_off_c, 0, 75, 63
1, 992212, Note_off_c, 0, 63, 59
1, 992212, Poly_aftertouch_c, 0, 63, 0
1, 992247, Note_on_c, 0, 51, 76
1, 992309, Note_on_c, 0, 70, 84
1, 992314, Note_on_c, 0, 75, 73
1, 992315, Note_on_c, 0, 73, 77
1, 992318, Note_off_c, 0, 51, 61
1, 992318, Poly_aftertouch_c, 0, 51, 0
1, 992336, Note_on_c, 0, 63, 73
1, 992341, Note_off_c, 0, 70, 64
1, 992346, Note_off_c, 0, 75, 69
1, 992350, Note_off_c, 0, 73, 66
1, 992375, Note_off_c, 0, 63, 64
1, 992375, Poly_aftertouch_c, 0, 63, 0
1, 992415, Note_on_c, 0, 51, 78
1, 992485, Note_off_c, 0, 51, 60
1, 992485, Poly_aftertouch_c, 0, 51, 0
1, 992502, Note_on_c, 0, 75, 69
1, 992504, Note_on_c, 0, 63, 71
1, 992505, Note_on_c, 0, 67, 68
1, 992535, Note_off_c, 0, 75, 66
1, 992539, Note_off_c, 0, 67, 64
1, 992545, Note_off_c, 0, 63, 65
1, 992545, Poly_aftertouch_c, 0, 63, 0
1, 992563, Poly_aftertouch_c, 0, 70, 0
1, 992572, Poly_aftertouch_c, 0, 70, 0
1, 992579, Note_on_c, 0, 51, 73
1, 992606, Control_c, 0, 67, 17
1, 992629, Note_off_c, 0, 51, 62
1, 992629, Poly_aftertouch_c, 0, 51, 0
1, 992644, Control_c, 0, 67, 24
1, 992662, Control_c, 0, 67, 29
1, 992682, Control_c, 0, 67, 36
1, 992686, Note_on_c, 0, 56, 72
1, 992688, Note_on_c, 0, 75, 66
1, 992696, Note_on_c, 0, 72, 69
1, 992701, Control_c, 0, 67, 41
1, 992713, Note_on_c, 0, 68, 67
1, 992720, Control_c, 0, 67, 47
1, 992733, Note_off_c, 0, 56, 60
1, 992733, Poly_aftertouch_c, 0, 56, 0
1, 992735, Control_c, 0, 67, 53
1, 992756, Control_c, 0, 67, 60
1, 992774, Control_c, 0, 67, 66
1, 992794, Control_c, 0, 64, 22
1, 992795, Control_c, 0, 67, 73
1, 992813, Control_c, 0, 64, 44
1, 992814, Control_c, 0, 67, 81
1, 992832, Control_c, 0, 64, 60
1, 992833, Control_c, 0, 67, 89
1, 992849, Control_c, 0, 64, 71
1, 992850, Control_c, 0, 67, 96
1, 992853, Note_off_c, 0, 72, 62
1, 992864, Note_on_c, 0, 44, 63
1, 992867, Control_c, 0, 64, 77
1, 992868, Control_c, 0, 67, 105
1, 992875, Note_off_c, 0, 68, 62
1, 992875, Note_off_c, 0, 75, 64
1, 992887, Control_c, 0, 64, 83
1, 992888, Control_c, 0, 67, 115
1, 992902, Note_off_c, 0, 44, 64
1, 992905, Control_c, 0, 64, 87
1, 992908, Control_c, 0, 67, 126
1, 992943, Control_c, 0, 64, 92
1, 993017, Control_c, 0, 64, 86
1, 993037, Control_c, 0, 64, 81
1, 993055, Control_c, 0, 64, 73
1, 993073, Control_c, 0, 64, 66
1, 993089, Note_on_c, 0, 60, 57
1, 993092, Control_c, 0, 64, 61
1, 993109, Note_on_c, 0, 58, 48
1, 993110, Control_c, 0, 64, 56
1, 993129, Control_c, 0, 64, 51
1, 993134, Note_off_c, 0, 60, 61
1, 993134, Poly_aftertouch_c, 0, 60, 0
1, 993149, Control_c, 0, 64, 43
1, 993166, Note_on_c, 0, 72, 66
1, 993167, Control_c, 0, 64, 35
1, 993185, Control_c, 0, 64, 25
1, 993205, Control_c, 0, 64, 20
1, 993229, Note_off_c, 0, 58, 61
1, 993247, Note_off_c, 0, 72, 60
1, 993269, Note_on_c, 0, 55, 51
1, 993270, Note_on_c, 0, 64, 63
1, 993313, Note_off_c, 0, 64, 62
1, 993336, Control_c, 0, 64, 25
1, 993356, Note_on_c, 0, 72, 60
1, 993429, Control_c, 0, 64, 31
1, 993432, Note_off_c, 0, 72, 60
1, 993446, Note_on_c, 0, 52, 64
1, 993447, Control_c, 0, 67, 122
1, 993452, Note_on_c, 0, 67, 66
1, 993466, Control_c, 0, 64, 35
1, 993477, Note_off_c, 0, 55, 56
1, 993477, Poly_aftertouch_c, 0, 55, 0
1, 993485, Control_c, 0, 67, 117
1, 993496, Note_off_c, 0, 67, 61
1, 993503, Control_c, 0, 64, 39
1, 993520, Control_c, 0, 64, 41
1, 993522, Note_on_c, 0, 72, 70
1, 993522, Control_c, 0, 67, 111
1, 993561, Control_c, 0, 64, 44
1, 993562, Control_c, 0, 67, 104
1, 993598, Control_c, 0, 64, 47
1, 993599, Control_c, 0, 67, 98
1, 993614, Note_on_c, 0, 48, 75
1, 993629, Note_on_c, 0, 71, 74
1, 993633, Note_off_c, 0, 72, 62
1, 993634, Control_c, 0, 64, 49
1, 993635, Control_c, 0, 67, 91
1, 993653, Control_c, 0, 67, 86
1, 993665, Note_off_c, 0, 52, 57
1, 993671, Control_c, 0, 64, 52
1, 993672, Control_c, 0, 67, 81
1, 993691, Control_c, 0, 67, 77
1, 993701, Note_off_c, 0, 71, 59
1, 993709, Note_on_c, 0, 72, 62
1, 993709, Control_c, 0, 64, 54
1, 993711, Control_c, 0, 67, 73
1, 993728, Control_c, 0, 67, 68
1, 993746, Control_c, 0, 64, 56
1, 993747, Control_c, 0, 67, 62
1, 993767, Control_c, 0, 67, 55
1, 993784, Control_c, 0, 64, 59
1, 993785, Control_c, 0, 67, 48
1, 993804, Note_on_c, 0, 50, 72
1, 993804, Control_c, 0, 64, 60
1, 993805, Control_c, 0, 67, 42
1, 993809, Note_on_c, 0, 70, 71
1, 993815, Note_off_c, 0, 72, 62
1, 993822, Control_c, 0, 67, 36
1, 993840, Note_off_c, 0, 48, 60
1, 993840, Poly_aftertouch_c, 0, 48, 0
1, 993840, Control_c, 0, 64, 62
1, 993841, Control_c, 0, 67, 30
1, 993859, Control_c, 0, 64, 63
1, 993861, Control_c, 0, 67, 21
1, 993878, Control_c, 0, 64, 64
1, 993879, Control_c, 0, 67, 10
1, 993896, Control_c, 0, 64, 65
1, 993899, Note_on_c, 0, 72, 69
1, 993907, Note_off_c, 0, 70, 65
1, 993914, Control_c, 0, 64, 66
1, 993935, Control_c, 0, 67, 0
1, 993953, Control_c, 0, 64, 67
1, 993989, Note_off_c, 0, 72, 60
1, 993997, Note_off_c, 0, 50, 61
1, 993997, Note_on_c, 0, 67, 68
1, 993997, Poly_aftertouch_c, 0, 50, 0
1, 993999, Note_on_c, 0, 52, 67
1, 994078, Note_on_c, 0, 72, 69
1, 994080, Note_off_c, 0, 67, 60
1, 994103, Control_c, 0, 64, 66
1, 994119, Note_off_c, 0, 52, 61
1, 994119, Control_c, 0, 64, 63
1, 994119, Control_c, 0, 67, 9
1, 994140, Control_c, 0, 64, 56
1, 994157, Control_c, 0, 64, 43
1, 994158, Control_c, 0, 67, 16
1, 994162, Note_off_c, 0, 72, 59
1, 994162, Note_on_c, 0, 53, 57
1, 994176, Note_on_c, 0, 68, 73
1, 994176, Control_c, 0, 64, 17
1, 994177, Control_c, 0, 67, 21
1, 994196, Control_c, 0, 64, 0
1, 994197, Control_c, 0, 67, 29
1, 994214, Control_c, 0, 67, 38
1, 994233, Control_c, 0, 67, 46
1, 994252, Control_c, 0, 67, 53
1, 994270, Control_c, 0, 67, 60
1, 994274, Note_off_c, 0, 68, 57
1, 994288, Control_c, 0, 64, 17
1, 994289, Control_c, 0, 67, 67
1, 994292, Note_on_c, 0, 72, 45
1, 994309, Control_c, 0, 64, 36
1, 994309, Control_c, 0, 67, 73
1, 994312, Note_on_c, 0, 71, 42
1, 994328, Control_c, 0, 64, 53
1, 994329, Control_c, 0, 67, 79
1, 994332, Note_off_c, 0, 72, 54
1, 994346, Control_c, 0, 64, 68
1, 994348, Control_c, 0, 67, 84
1, 994352, Note_off_c, 0, 71, 47
1, 994353, Note_off_c, 0, 53, 36
1, 994353, Poly_aftertouch_c, 0, 53, 0
1, 994362, Control_c, 0, 64, 76
1, 994368, Note_on_c, 0, 65, 68
1, 994371, Note_on_c, 0, 56, 47
1, 994383, Control_c, 0, 64, 81
1, 994385, Control_c, 0, 67, 91
1, 994401, Control_c, 0, 64, 84
1, 994420, Control_c, 0, 64, 87
1, 994422, Control_c, 0, 67, 97
1, 994436, Note_on_c, 0, 72, 65
1, 994447, Note_off_c, 0, 65, 62
1, 994457, Note_off_c, 0, 72, 64
1, 994513, Control_c, 0, 67, 101
1, 994524, Note_off_c, 0, 56, 40
1, 994524, Poly_aftertouch_c, 0, 56, 0
1, 994531, Control_c, 0, 64, 84
1, 994541, Note_on_c, 0, 46, 62
1, 994551, Control_c, 0, 64, 81
1, 994563, Note_on_c, 0, 80, 70
1, 994570, Control_c, 0, 64, 76
1, 994572, Control_c, 0, 67, 106
1, 994588, Control_c, 0, 64, 69
1, 994607, Control_c, 0, 64, 65
1, 994626, Control_c, 0, 64, 62
1, 994634, Note_off_c, 0, 46, 60
1, 994644, Control_c, 0, 64, 59
1, 994662, Control_c, 0, 64, 56
1, 994668, Note_on_c, 0, 58, 53
1, 994682, Control_c, 0, 64, 53
1, 994700, Control_c, 0, 64, 51
1, 994718, Note_off_c, 0, 58, 61
1, 994719, Control_c, 0, 64, 49
1, 994734, Note_on_c, 0, 50, 62
1, 994736, Control_c, 0, 64, 45
1, 994756, Control_c, 0, 64, 40
1, 994758, Note_on_c, 0, 77, 68
1, 994776, Control_c, 0, 64, 34
1, 994795, Control_c, 0, 64, 27
1, 994812, Control_c, 0, 64, 20
1, 994813, Note_off_c, 0, 50, 59
1, 994813, Poly_aftertouch_c, 0, 50, 0
1, 994830, Note_on_c, 0, 58, 59
1, 994830, Control_c, 0, 64, 16
1, 994893, Note_off_c, 0, 80, 60
1, 994893, Poly_aftertouch_c, 0, 80, 0
1, 994908, Note_off_c, 0, 58, 59
1, 994923, Note_off_c, 0, 77, 62
1, 994924, Note_on_c, 0, 53, 56
1, 994925, Control_c, 0, 64, 22
1, 994943, Control_c, 0, 64, 29
1, 994954, Note_on_c, 0, 74, 68
1, 994962, Control_c, 0, 64, 38
1, 994963, Control_c, 0, 67, 101
1, 994969, Note_off_c, 0, 53, 61
1, 994969, Poly_aftertouch_c, 0, 53, 0
1, 994981, Control_c, 0, 64, 50
1, 994997, Control_c, 0, 64, 60
1, 995002, Note_on_c, 0, 58, 50
1, 995019, Control_c, 0, 64, 66
1, 995038, Control_c, 0, 64, 63
1, 995055, Note_off_c, 0, 58, 59
1, 995055, Control_c, 0, 64, 54
1, 995074, Control_c, 0, 64, 39
1, 995093, Control_c, 0, 64, 21
1, 995094, Control_c, 0, 67, 96
1, 995117, Note_on_c, 0, 57, 65
1, 995120, Note_on_c, 0, 70, 76
1, 995126, Note_off_c, 0, 74, 55
1, 995129, Control_c, 0, 64, 26
1, 995131, Control_c, 0, 67, 87
1, 995150, Control_c, 0, 64, 37
1, 995152, Control_c, 0, 67, 79
1, 995168, Control_c, 0, 64, 51
1, 995169, Control_c, 0, 67, 69
1, 995184, Note_off_c, 0, 57, 62
1, 995184, Poly_aftertouch_c, 0, 57, 0
1, 995186, Control_c, 0, 64, 64
1, 995186, Control_c, 0, 67, 58
1, 995205, Control_c, 0, 64, 72
1, 995207, Control_c, 0, 67, 48
1, 995222, Note_on_c, 0, 58, 60
1, 995223, Control_c, 0, 64, 69
1, 995224, Control_c, 0, 67, 39
1, 995243, Control_c, 0, 64, 58
1, 995243, Control_c, 0, 67, 27
1, 995261, Control_c, 0, 64, 43
1, 995262, Control_c, 0, 67, 14
1, 995271, Note_off_c, 0, 58, 62
1, 995280, Control_c, 0, 64, 31
1, 995298, Note_on_c, 0, 56, 68
1, 995298, Control_c, 0, 67, 0
1, 995302, Note_on_c, 0, 72, 76
1, 995303, Note_off_c, 0, 70, 68
1, 995318, Control_c, 0, 64, 40
1, 995335, Control_c, 0, 64, 52
1, 995353, Note_off_c, 0, 56, 60
1, 995353, Poly_aftertouch_c, 0, 56, 0
1, 995355, Control_c, 0, 64, 66
1, 995375, Control_c, 0, 64, 76
1, 995386, Note_on_c, 0, 58, 69
1, 995392, Control_c, 0, 64, 82
1, 995411, Control_c, 0, 64, 85
1, 995462, Note_off_c, 0, 58, 48
1, 995477, Note_on_c, 0, 53, 65
1, 995483, Note_on_c, 0, 74, 81
1, 995552, Note_off_c, 0, 72, 56
1, 995554, Note_off_c, 0, 53, 59
1, 995554, Poly_aftertouch_c, 0, 53, 0
1, 995568, Note_on_c, 0, 58, 63
1, 995635, Control_c, 0, 64, 80
1, 995648, Note_off_c, 0, 58, 62
1, 995654, Control_c, 0, 64, 70
1, 995657, Note_on_c, 0, 75, 76
1, 995665, Note_on_c, 0, 55, 64
1, 995672, Control_c, 0, 64, 55
1, 995691, Control_c, 0, 64, 29
1, 995710, Control_c, 0, 64, 0
1, 995732, Note_off_c, 0, 55, 60
1, 995732, Poly_aftertouch_c, 0, 55, 0
1, 995766, Note_on_c, 0, 58, 62
1, 995777, Note_off_c, 0, 74, 54
1, 995803, Control_c, 0, 64, 21
1, 995811, Note_off_c, 0, 58, 64
1, 995822, Control_c, 0, 64, 46
1, 995827, Note_on_c, 0, 51, 58
1, 995841, Control_c, 0, 64, 67
1, 995859, Note_off_c, 0, 75, 64
1, 995859, Control_c, 0, 64, 82
1, 995873, Note_off_c, 0, 51, 62
1, 995873, Poly_aftertouch_c, 0, 51, 0
1, 995874, Note_on_c, 0, 79, 62
1, 995878, Control_c, 0, 64, 94
1, 995897, Control_c, 0, 64, 106
1, 995898, Note_off_c, 0, 79, 63
1, 995898, Poly_aftertouch_c, 0, 79, 0
1, 995915, Control_c, 0, 64, 113
1, 995925, Note_on_c, 0, 58, 70
1, 995989, Note_off_c, 0, 58, 47
1, 996009, Control_c, 0, 64, 108
1, 996027, Control_c, 0, 64, 92
1, 996047, Control_c, 0, 64, 71
1, 996055, Note_on_c, 0, 61, 68
1, 996065, Control_c, 0, 64, 51
1, 996066, Note_on_c, 0, 63, 68
1, 996084, Control_c, 0, 64, 29
1, 996103, Control_c, 0, 64, 0
1, 996137, Note_on_c, 0, 75, 51
1, 996139, Control_c, 0, 64, 10
1, 996144, Note_off_c, 0, 63, 57
1, 996144, Poly_aftertouch_c, 0, 63, 0
1, 996159, Control_c, 0, 64, 30
1, 996178, Control_c, 0, 64, 47
1, 996189, Note_off_c, 0, 61, 63
1, 996196, Control_c, 0, 64, 64
1, 996214, Note_on_c, 0, 67, 67
1, 996214, Control_c, 0, 64, 74
1, 996215, Note_off_c, 0, 75, 64
1, 996225, Note_on_c, 0, 58, 75
1, 996233, Control_c, 0, 64, 79
1, 996305, Note_off_c, 0, 67, 53
1, 996309, Control_c, 0, 64, 75
1, 996312, Note_on_c, 0, 75, 80
1, 996384, Note_off_c, 0, 58, 63
1, 996399, Note_on_c, 0, 55, 74
1, 996401, Control_c, 0, 64, 78
1, 996412, Note_on_c, 0, 70, 80
1, 996415, Note_off_c, 0, 75, 64
1, 996439, Control_c, 0, 64, 81
1, 996475, Note_off_c, 0, 70, 63
1, 996482, Note_on_c, 0, 75, 67
1, 996495, Control_c, 0, 64, 83
1, 996572, Note_on_c, 0, 74, 83
1, 996579, Note_on_c, 0, 51, 85
1, 996590, Control_c, 0, 64, 77
1, 996593, Note_off_c, 0, 75, 61
1, 996607, Note_off_c, 0, 55, 61
1, 996607, Poly_aftertouch_c, 0, 55, 0
1, 996608, Control_c, 0, 64, 69
1, 996627, Control_c, 0, 64, 60
1, 996646, Control_c, 0, 64, 51
1, 996663, Note_on_c, 0, 75, 80
1, 996663, Control_c, 0, 64, 40
1, 996671, Note_off_c, 0, 74, 60
1, 996682, Control_c, 0, 64, 26
1, 996701, Control_c, 0, 64, 21
1, 996738, Control_c, 0, 64, 31
1, 996757, Control_c, 0, 64, 39
1, 996772, Note_on_c, 0, 53, 78
1, 996776, Control_c, 0, 64, 48
1, 996782, Note_on_c, 0, 73, 77
1, 996785, Note_off_c, 0, 51, 61
1, 996785, Poly_aftertouch_c, 0, 51, 0
1, 996794, Control_c, 0, 64, 59
1, 996805, Note_off_c, 0, 75, 58
1, 996812, Control_c, 0, 64, 69
1, 996832, Control_c, 0, 64, 74
1, 996853, Note_on_c, 0, 75, 55
1, 996872, Note_off_c, 0, 73, 61
1, 996927, Control_c, 0, 64, 71
1, 996943, Control_c, 0, 64, 69
1, 996946, Note_on_c, 0, 70, 77
1, 996951, Note_off_c, 0, 75, 65
1, 996963, Note_on_c, 0, 55, 70
1, 996963, Control_c, 0, 64, 68
1, 996968, Note_off_c, 0, 53, 62
1, 996968, Poly_aftertouch_c, 0, 53, 0
1, 997000, Control_c, 0, 64, 67
1, 997047, Note_on_c, 0, 75, 81
1, 997052, Note_off_c, 0, 70, 62
1, 997112, Note_off_c, 0, 55, 62
1, 997112, Poly_aftertouch_c, 0, 55, 0
1, 997131, Note_on_c, 0, 72, 78
1, 997136, Note_off_c, 0, 75, 65
1, 997137, Note_on_c, 0, 56, 76
1, 997169, Control_c, 0, 64, 69
1, 997216, Note_on_c, 0, 75, 79
1, 997222, Note_off_c, 0, 72, 62
1, 997245, Control_c, 0, 64, 67
1, 997262, Control_c, 0, 64, 65
1, 997281, Control_c, 0, 64, 60
1, 997293, Note_on_c, 0, 72, 76
1, 997294, Note_off_c, 0, 56, 62
1, 997294, Poly_aftertouch_c, 0, 56, 0
1, 997296, Note_on_c, 0, 63, 78
1, 997300, Control_c, 0, 64, 55
1, 997304, Note_off_c, 0, 75, 65
1, 997307, Note_on_c, 0, 44, 82
1, 997318, Control_c, 0, 64, 48
1, 997336, Control_c, 0, 64, 37
1, 997351, Note_off_c, 0, 63, 61
1, 997351, Poly_aftertouch_c, 0, 63, 0
1, 997356, Control_c, 0, 64, 18
1, 997373, Control_c, 0, 64, 0
1, 997375, Note_on_c, 0, 75, 81
1, 997386, Note_off_c, 0, 72, 62
1, 997394, Note_off_c, 0, 44, 59
1, 997473, Note_on_c, 0, 46, 82
1, 997480, Note_on_c, 0, 73, 85
1, 997490, Note_on_c, 0, 67, 77
1, 997492, Note_off_c, 0, 75, 63
1, 997537, Note_off_c, 0, 67, 64
1, 997541, Note_off_c, 0, 46, 61
1, 997585, Note_on_c, 0, 75, 77
1, 997592, Note_off_c, 0, 73, 60
1, 997655, Note_on_c, 0, 48, 76
1, 997668, Note_on_c, 0, 72, 73
1, 997672, Note_off_c, 0, 75, 64
1, 997681, Note_on_c, 0, 68, 69
1, 997718, Note_off_c, 0, 68, 67
1, 997722, Note_off_c, 0, 48, 63
1, 997722, Poly_aftertouch_c, 0, 48, 0
1, 997753, Note_on_c, 0, 75, 83
1, 997762, Note_off_c, 0, 72, 63
1, 997833, Note_on_c, 0, 49, 80
1, 997839, Note_on_c, 0, 72, 80
1, 997855, Note_off_c, 0, 75, 64
1, 997863, Note_on_c, 0, 65, 62
1, 997870, Note_off_c, 0, 49, 65
1, 997870, Poly_aftertouch_c, 0, 49, 0
1, 997900, Note_off_c, 0, 65, 64
1, 997919, Note_on_c, 0, 75, 76
1, 997934, Note_off_c, 0, 72, 62
1, 997935, Control_c, 0, 64, 19
1, 997954, Control_c, 0, 64, 33
1, 997972, Control_c, 0, 64, 47
1, 997992, Control_c, 0, 64, 58
1, 998005, Note_on_c, 0, 46, 79
1, 998009, Control_c, 0, 64, 66
1, 998018, Note_on_c, 0, 65, 58
1, 998018, Note_on_c, 0, 73, 62
1, 998029, Control_c, 0, 64, 70
1, 998038, Note_on_c, 0, 70, 68
1, 998049, Control_c, 0, 64, 72
1, 998058, Note_off_c, 0, 46, 59
1, 998066, Note_off_c, 0, 73, 59
1, 998081, Note_off_c, 0, 75, 59
1, 998087, Note_off_c, 0, 65, 56
1, 998103, Control_c, 0, 64, 75
1, 998108, Note_off_c, 0, 70, 64
1, 998126, Note_on_c, 0, 73, 69
1, 998160, Control_c, 0, 64, 77
1, 998205, Note_on_c, 0, 51, 77
1, 998228, Note_on_c, 0, 68, 49
1, 998232, Note_on_c, 0, 63, 65
1, 998241, Note_off_c, 0, 73, 57
1, 998273, Note_off_c, 0, 51, 58
1, 998273, Poly_aftertouch_c, 0, 51, 0
1, 998276, Note_off_c, 0, 68, 48
1, 998287, Note_off_c, 0, 63, 59
1, 998287, Poly_aftertouch_c, 0, 63, 0
1, 998321, Note_on_c, 0, 72, 74
1, 998333, Poly_aftertouch_c, 0, 69, 0
1, 998366, Control_c, 0, 64, 73
1, 998386, Poly_aftertouch_c, 0, 73, 0
1, 998386, Control_c, 0, 64, 66
1, 998395, Note_on_c, 0, 67, 75
1, 998404, Control_c, 0, 64, 55
1, 998418, Note_on_c, 0, 61, 63
1, 998421, Note_on_c, 0, 39, 71
1, 998422, Control_c, 0, 64, 35
1, 998430, Note_off_c, 0, 72, 57
1, 998440, Control_c, 0, 64, 0
1, 998454, Note_off_c, 0, 39, 63
1, 998459, Note_off_c, 0, 61, 60
1, 998493, Note_off_c, 0, 67, 57
1, 998497, Note_on_c, 0, 70, 79
1, 998584, Note_on_c, 0, 44, 67
1, 998592, Note_on_c, 0, 68, 80
1, 998611, Note_off_c, 0, 70, 59
1, 998619, Note_on_c, 0, 60, 47
1, 998626, Note_off_c, 0, 44, 67
1, 998626, Control_c, 0, 67, 9
1, 998645, Control_c, 0, 67, 14
1, 998665, Control_c, 0, 67, 20
1, 998682, Control_c, 0, 67, 29
1, 998702, Control_c, 0, 67, 39
1, 998720, Control_c, 0, 67, 47
1, 998726, Note_off_c, 0, 60, 64
1, 998726, Poly_aftertouch_c, 0, 60, 0
1, 998740, Control_c, 0, 67, 56
1, 998758, Control_c, 0, 67, 67
1, 998777, Control_c, 0, 64, 28
1, 998778, Control_c, 0, 67, 81
1, 998796, Control_c, 0, 64, 51
1, 998797, Note_off_c, 0, 68, 65
1, 998797, Control_c, 0, 67, 97
1, 998802, Note_on_c, 0, 32, 64
1, 998814, Control_c, 0, 64, 71
1, 998815, Control_c, 0, 67, 117
1, 998833, Control_c, 0, 64, 85
1, 998835, Control_c, 0, 67, 127
1, 998843, Note_off_c, 0, 32, 61
1, 998852, Control_c, 0, 64, 97
1, 998871, Control_c, 0, 64, 105
1, 998945, Control_c, 0, 64, 94
1, 998963, Control_c, 0, 64, 79
1, 998982, Control_c, 0, 64, 61
1, 999001, Control_c, 0, 64, 43
1, 999019, Control_c, 0, 64, 0
1, 999047, Note_on_c, 0, 82, 70
1, 999071, Note_on_c, 0, 48, 45
1, 999077, Note_on_c, 0, 70, 52
1, 999095, Control_c, 0, 64, 18
1, 999113, Control_c, 0, 64, 42
1, 999133, Control_c, 0, 64, 61
1, 999143, Note_off_c, 0, 48, 56
1, 999143, Poly_aftertouch_c, 0, 48, 0
1, 999150, Control_c, 0, 64, 74
1, 999156, Note_off_c, 0, 82, 62
1, 999156, Poly_aftertouch_c, 0, 82, 0
1, 999170, Control_c, 0, 64, 78
1, 999175, Note_off_c, 0, 70, 62
1, 999177, Note_on_c, 0, 60, 58
1, 999233, Note_off_c, 0, 60, 57
1, 999233, Poly_aftertouch_c, 0, 60, 0
1, 999281, Control_c, 0, 64, 80
1, 999284, Note_on_c, 0, 79, 76
1, 999291, Note_on_c, 0, 52, 68
1, 999296, Note_on_c, 0, 67, 69
1, 999321, Control_c, 0, 64, 83
1, 999338, Control_c, 0, 64, 85
1, 999348, Note_off_c, 0, 79, 62
1, 999348, Poly_aftertouch_c, 0, 79, 0
1, 999356, Note_off_c, 0, 52, 53
1, 999360, Note_off_c, 0, 67, 58
1, 999372, Note_on_c, 0, 60, 68
1, 999375, Control_c, 0, 67, 122
1, 999394, Control_c, 0, 67, 116
1, 999413, Control_c, 0, 67, 107
1, 999430, Note_off_c, 0, 60, 56
1, 999430, Poly_aftertouch_c, 0, 60, 0
1, 999430, Control_c, 0, 67, 96
1, 999450, Control_c, 0, 67, 81
1, 999469, Control_c, 0, 67, 65
1, 999475, Note_on_c, 0, 76, 70
1, 999477, Note_on_c, 0, 55, 66
1, 999480, Note_on_c, 0, 77, 74
1, 999489, Note_on_c, 0, 64, 61
1, 999489, Control_c, 0, 67, 47
1, 999506, Control_c, 0, 67, 29
1, 999515, Note_off_c, 0, 55, 62
1, 999515, Poly_aftertouch_c, 0, 55, 0
1, 999522, Note_on_c, 0, 65, 48
1, 999523, Control_c, 0, 67, 11
1, 999544, Note_on_c, 0, 60, 62
1, 999545, Control_c, 0, 67, 0
1, 999556, Note_off_c, 0, 77, 60
1, 999568, Note_off_c, 0, 65, 33
1, 999581, Control_c, 0, 64, 81
1, 999600, Control_c, 0, 64, 73
1, 999601, Note_off_c, 0, 60, 60
1, 999601, Poly_aftertouch_c, 0, 60, 0
1, 999619, Control_c, 0, 64, 61
1, 999636, Control_c, 0, 64, 45
1, 999647, Note_on_c, 0, 59, 73
1, 999655, Control_c, 0, 64, 0
1, 999656, Note_on_c, 0, 72, 80
1, 999705, Note_off_c, 0, 76, 63
1, 999716, Note_off_c, 0, 59, 63
1, 999720, Poly_aftertouch_c, 0, 65, 0
1, 999741, Note_off_c, 0, 64, 55
1, 999752, Poly_aftertouch_c, 0, 75, 0
1, 999756, Note_on_c, 0, 60, 65
1, 999767, Control_c, 0, 64, 15
1, 999787, Control_c, 0, 64, 21
1, 999806, Control_c, 0, 64, 15
1, 999812, Note_off_c, 0, 60, 57
1, 999812, Poly_aftertouch_c, 0, 60, 0
1, 999831, Note_on_c, 0, 74, 83
1, 999843, Note_on_c, 0, 58, 71
1, 999853, Note_on_c, 0, 62, 73
1, 999880, Control_c, 0, 64, 25
1, 999892, Note_on_c, 0, 64, 37
1, 999896, Control_c, 0, 64, 37
1, 999901, Note_off_c, 0, 58, 61
1, 999917, Control_c, 0, 64, 50
1, 999927, Note_off_c, 0, 62, 58
1, 999935, Control_c, 0, 64, 63
1, 999936, Note_on_c, 0, 60, 73
1, 999939, Note_off_c, 0, 64, 34
1, 999954, Control_c, 0, 64, 73
1, 999973, Control_c, 0, 64, 79
1, 999992, Control_c, 0, 64, 83
1, 1000010, Note_off_c, 0, 60, 62
1, 1000010, Poly_aftertouch_c, 0, 60, 0
1, 1000010, Control_c, 0, 64, 86
1, 1000018, Note_on_c, 0, 76, 85
1, 1000028, Control_c, 0, 64, 90
1, 1000030, Note_on_c, 0, 55, 69
1, 1000031, Note_on_c, 0, 64, 75
1, 1000047, Control_c, 0, 64, 96
1, 1000056, Note_off_c, 0, 72, 27
1, 1000064, Note_off_c, 0, 74, 61
1, 1000066, Control_c, 0, 64, 102
1, 1000079, Note_off_c, 0, 55, 57
1, 1000079, Poly_aftertouch_c, 0, 55, 0
1, 1000084, Note_off_c, 0, 64, 54
1, 1000085, Control_c, 0, 64, 108
1, 1000103, Control_c, 0, 64, 112
1, 1000106, Note_on_c, 0, 60, 65
1, 1000112, Note_off_c, 0, 76, 64
1, 1000142, Control_c, 0, 64, 117
1, 1000165, Note_off_c, 0, 60, 60
1, 1000165, Poly_aftertouch_c, 0, 60, 0
1, 1000203, Note_on_c, 0, 56, 70
1, 1000205, Note_on_c, 0, 77, 85
1, 1000211, Note_on_c, 0, 65, 77
1, 1000216, Control_c, 0, 64, 100
1, 1000235, Control_c, 0, 64, 76
1, 1000247, Note_off_c, 0, 56, 62
1, 1000247, Poly_aftertouch_c, 0, 56, 0
1, 1000254, Control_c, 0, 64, 46
1, 1000267, Note_on_c, 0, 60, 66
1, 1000271, Control_c, 0, 64, 0
1, 1000284, Note_off_c, 0, 65, 63
1, 1000334, Note_off_c, 0, 60, 61
1, 1000334, Poly_aftertouch_c, 0, 60, 0
1, 1000366, Control_c, 0, 67, 9
1, 1000369, Note_on_c, 0, 53, 68
1, 1000395, Note_on_c, 0, 80, 78
1, 1000399, Note_off_c, 0, 77, 62
1, 1000402, Control_c, 0, 64, 39
1, 1000414, Note_off_c, 0, 53, 62
1, 1000414, Poly_aftertouch_c, 0, 53, 0
1, 1000421, Note_on_c, 0, 68, 53
1, 1000422, Control_c, 0, 64, 55
1, 1000441, Control_c, 0, 64, 68
1, 1000442, Control_c, 0, 67, 14
1, 1000451, Note_off_c, 0, 80, 63
1, 1000451, Poly_aftertouch_c, 0, 80, 0
1, 1000452, Note_off_c, 0, 68, 60
1, 1000457, Control_c, 0, 64, 74
1, 1000459, Control_c, 0, 67, 18
1, 1000464, Note_on_c, 0, 60, 56
1, 1000479, Control_c, 0, 64, 76
1, 1000481, Control_c, 0, 67, 26
1, 1000496, Control_c, 0, 67, 35
1, 1000499, Note_off_c, 0, 60, 63
1, 1000499, Poly_aftertouch_c, 0, 60, 0
1, 1000516, Control_c, 0, 67, 43
1, 1000536, Control_c, 0, 67, 48
1, 1000553, Control_c, 0, 67, 54
1, 1000572, Control_c, 0, 64, 72
1, 1000573, Control_c, 0, 67, 61
1, 1000586, Note_on_c, 0, 68, 63
1, 1000589, Note_on_c, 0, 70, 68
1, 1000591, Control_c, 0, 64, 69
1, 1000593, Control_c, 0, 67, 68
1, 1000610, Control_c, 0, 64, 65
1, 1000612, Control_c, 0, 67, 75
1, 1000627, Control_c, 0, 64, 60
1, 1000628, Control_c, 0, 67, 83
1, 1000646, Control_c, 0, 64, 56
1, 1000646, Control_c, 0, 67, 91
1, 1000666, Control_c, 0, 64, 51
1, 1000668, Control_c, 0, 67, 97
1, 1000679, Note_on_c, 0, 82, 79
1, 1000683, Control_c, 0, 64, 44
1, 1000685, Control_c, 0, 67, 103
1, 1000700, Note_off_c, 0, 70, 47
1, 1000701, Control_c, 0, 64, 36
1, 1000702, Control_c, 0, 67, 108
1, 1000721, Control_c, 0, 64, 27
1, 1000741, Control_c, 0, 64, 19
1, 1000745, Note_off_c, 0, 68, 65
1, 1000759, Control_c, 0, 64, 12
1, 1000770, Note_off_c, 0, 82, 64
1, 1000770, Poly_aftertouch_c, 0, 82, 0
1, 1000773, Note_on_c, 0, 65, 72
1, 1000777, Control_c, 0, 64, 8
1, 1000780, Note_on_c, 0, 74, 71
1, 1000815, Control_c, 0, 64, 0
1, 1000835, Note_off_c, 0, 74, 57
1, 1000854, Note_on_c, 0, 82, 77
1, 1000950, Note_off_c, 0, 82, 64
1, 1000950, Poly_aftertouch_c, 0, 82, 0
1, 1000954, Note_on_c, 0, 77, 72
1, 1000955, Note_on_c, 0, 62, 75
1, 1000956, Note_off_c, 0, 65, 58
1, 1000964, Control_c, 0, 67, 104
1, 1001012, Note_off_c, 0, 77, 59
1, 1001036, Note_on_c, 0, 82, 67
1, 1001038, Control_c, 0, 67, 99
1, 1001077, Control_c, 0, 67, 92
1, 1001095, Control_c, 0, 67, 85
1, 1001114, Control_c, 0, 67, 74
1, 1001122, Note_on_c, 0, 58, 84
1, 1001131, Control_c, 0, 67, 58
1, 1001133, Note_on_c, 0, 81, 68
1, 1001134, Note_off_c, 0, 82, 61
1, 1001134, Poly_aftertouch_c, 0, 82, 0
1, 1001152, Control_c, 0, 67, 42
1, 1001157, Note_off_c, 0, 62, 60
1, 1001157, Note_on_c, 0, 80, 55
1, 1001170, Control_c, 0, 67, 27
1, 1001189, Control_c, 0, 67, 15
1, 1001192, Note_off_c, 0, 80, 36
1, 1001192, Poly_aftertouch_c, 0, 80, 0
1, 1001208, Note_on_c, 0, 82, 77
1, 1001214, Note_off_c, 0, 81, 61
1, 1001226, Control_c, 0, 67, 0
1, 1001306, Note_on_c, 0, 60, 83
1, 1001313, Note_on_c, 0, 80, 78
1, 1001320, Note_off_c, 0, 58, 62
1, 1001335, Note_off_c, 0, 82, 63
1, 1001335, Poly_aftertouch_c, 0, 82, 0
1, 1001388, Note_on_c, 0, 82, 71
1, 1001412, Note_off_c, 0, 80, 63
1, 1001412, Poly_aftertouch_c, 0, 80, 0
1, 1001413, Control_c, 0, 64, 33
1, 1001431, Control_c, 0, 64, 52
1, 1001450, Control_c, 0, 64, 67
1, 1001454, Note_off_c, 0, 60, 62
1, 1001454, Poly_aftertouch_c, 0, 60, 0
1, 1001469, Control_c, 0, 64, 75
1, 1001476, Note_on_c, 0, 62, 84
1, 1001481, Note_on_c, 0, 77, 80
1, 1001492, Note_off_c, 0, 82, 64
1, 1001492, Poly_aftertouch_c, 0, 82, 0
1, 1001544, Control_c, 0, 64, 77
1, 1001557, Note_on_c, 0, 82, 74
1, 1001563, Note_off_c, 0, 62, 62
1, 1001582, Control_c, 0, 64, 80
1, 1001588, Note_off_c, 0, 77, 60
1, 1001600, Control_c, 0, 64, 83
1, 1001637, Control_c, 0, 64, 77
1, 1001655, Note_on_c, 0, 63, 89
1, 1001655, Control_c, 0, 64, 55
1, 1001658, Note_on_c, 0, 79, 79
1, 1001665, Note_off_c, 0, 82, 64
1, 1001665, Poly_aftertouch_c, 0, 82, 0
1, 1001674, Control_c, 0, 64, 0
1, 1001691, Note_on_c, 0, 80, 32
1, 1001691, Poly_aftertouch_c, 0, 80, 0
1, 1001692, Note_off_c, 0, 80, 127
1, 1001718, Note_off_c, 0, 63, 64
1, 1001718, Poly_aftertouch_c, 0, 63, 0
1, 1001737, Note_on_c, 0, 82, 79
1, 1001763, Note_off_c, 0, 79, 62
1, 1001763, Poly_aftertouch_c, 0, 79, 0
1, 1001768, Control_c, 0, 64, 40
1, 1001786, Control_c, 0, 64, 66
1, 1001806, Control_c, 0, 64, 87
1, 1001825, Control_c, 0, 64, 106
1, 1001826, Note_on_c, 0, 67, 84
1, 1001841, Note_on_c, 0, 75, 86
1, 1001841, Control_c, 0, 64, 127
1, 1001843, Note_off_c, 0, 82, 64
1, 1001843, Poly_aftertouch_c, 0, 82, 0
1, 1001855, Note_off_c, 0, 67, 68
1, 1001910, Note_on_c, 0, 82, 75
1, 1001943, Note_off_c, 0, 75, 63
1, 1001974, Control_c, 0, 64, 94
1, 1001986, Note_off_c, 0, 82, 64
1, 1001986, Poly_aftertouch_c, 0, 82, 0
1, 1001992, Control_c, 0, 64, 51
1, 1002011, Control_c, 0, 64, 0
1, 1002032, Note_on_c, 0, 85, 89
1, 1002036, Note_on_c, 0, 73, 84
1, 1002041, Note_on_c, 0, 39, 61
1, 1002088, Control_c, 0, 64, 37
1, 1002095, Note_off_c, 0, 85, 65
1, 1002103, Note_off_c, 0, 73, 63
1, 1002104, Control_c, 0, 64, 68
1, 1002111, Note_off_c, 0, 39, 55
1, 1002119, Note_on_c, 0, 51, 68
1, 1002123, Control_c, 0, 64, 92
1, 1002142, Control_c, 0, 64, 119
1, 1002161, Control_c, 0, 64, 127
1, 1002184, Note_off_c, 0, 51, 58
1, 1002184, Poly_aftertouch_c, 0, 51, 0
1, 1002215, Note_on_c, 0, 82, 91
1, 1002217, Note_on_c, 0, 43, 69
1, 1002221, Note_on_c, 0, 70, 89
1, 1002267, Note_on_c, 0, 44, 18
1, 1002268, Note_off_c, 0, 44, 127
1, 1002278, Note_off_c, 0, 82, 64
1, 1002278, Poly_aftertouch_c, 0, 82, 0
1, 1002282, Note_off_c, 0, 70, 63
1, 1002288, Note_off_c, 0, 43, 63
1, 1002299, Note_on_c, 0, 51, 78
1, 1002356, Note_off_c, 0, 51, 55
1, 1002356, Poly_aftertouch_c, 0, 51, 0
1, 1002388, Note_on_c, 0, 46, 81
1, 1002404, Note_on_c, 0, 79, 94
1, 1002410, Note_on_c, 0, 67, 91
1, 1002468, Note_off_c, 0, 46, 61
1, 1002468, Note_on_c, 0, 51, 75
1, 1002472, Note_off_c, 0, 79, 64
1, 1002472, Poly_aftertouch_c, 0, 79, 0
1, 1002479, Note_off_c, 0, 67, 61
1, 1002558, Note_off_c, 0, 51, 53
1, 1002558, Poly_aftertouch_c, 0, 51, 0
1, 1002578, Note_on_c, 0, 50, 76
1, 1002589, Note_on_c, 0, 75, 94
1, 1002597, Note_on_c, 0, 63, 96
1, 1002607, Note_on_c, 0, 49, 29
1, 1002659, Note_off_c, 0, 50, 61
1, 1002659, Poly_aftertouch_c, 0, 50, 0
1, 1002661, Note_on_c, 0, 51, 81
1, 1002663, Note_off_c, 0, 49, 30
1, 1002663, Poly_aftertouch_c, 0, 49, 0
1, 1002677, Note_off_c, 0, 63, 63
1, 1002677, Poly_aftertouch_c, 0, 63, 0
1, 1002683, Control_c, 0, 64, 120
1, 1002704, Control_c, 0, 64, 115
1, 1002723, Control_c, 0, 64, 103
1, 1002734, Note_off_c, 0, 75, 53
1, 1002741, Control_c, 0, 64, 79
1, 1002747, Note_off_c, 0, 51, 59
1, 1002747, Poly_aftertouch_c, 0, 51, 0
1, 1002760, Note_on_c, 0, 49, 84
1, 1002760, Control_c, 0, 64, 47
1, 1002777, Note_on_c, 0, 65, 96
1, 1002777, Note_on_c, 0, 77, 97
1, 1002779, Control_c, 0, 64, 0
1, 1002842, Note_off_c, 0, 49, 61
1, 1002842, Poly_aftertouch_c, 0, 49, 0
1, 1002845, Note_off_c, 0, 65, 62
1, 1002847, Note_on_c, 0, 51, 82
1, 1002869, Note_off_c, 0, 77, 61
1, 1002937, Note_off_c, 0, 51, 57
1, 1002937, Poly_aftertouch_c, 0, 51, 0
1, 1002942, Note_on_c, 0, 46, 87
1, 1002970, Note_on_c, 0, 79, 97
1, 1002973, Note_on_c, 0, 67, 89
1, 1003024, Note_on_c, 0, 51, 78
1, 1003028, Note_off_c, 0, 67, 64
1, 1003029, Note_off_c, 0, 79, 65
1, 1003029, Poly_aftertouch_c, 0, 79, 0
1, 1003033, Note_off_c, 0, 46, 60
1, 1003127, Note_on_c, 0, 48, 84
1, 1003129, Note_off_c, 0, 51, 58
1, 1003129, Poly_aftertouch_c, 0, 51, 0
1, 1003132, Control_c, 0, 64, 70
1, 1003142, Note_on_c, 0, 68, 94
1, 1003151, Note_on_c, 0, 79, 88
1, 1003151, Control_c, 0, 64, 113
1, 1003155, Note_on_c, 0, 78, 70
1, 1003172, Control_c, 0, 64, 127
1, 1003179, Note_off_c, 0, 79, 67
1, 1003179, Poly_aftertouch_c, 0, 79, 0
1, 1003181, Note_off_c, 0, 78, 67
1, 1003184, Note_off_c, 0, 68, 64
1, 1003209, Note_off_c, 0, 48, 62
1, 1003209, Poly_aftertouch_c, 0, 48, 0
1, 1003214, Note_on_c, 0, 51, 72
1, 1003306, Note_off_c, 0, 51, 57
1, 1003306, Poly_aftertouch_c, 0, 51, 0
1, 1003359, Note_on_c, 0, 44, 88
1, 1003371, Note_on_c, 0, 75, 104
1, 1003374, Note_on_c, 0, 80, 95
1, 1003376, Note_on_c, 0, 84, 91
1, 1003396, Note_on_c, 0, 85, 66
1, 1003397, Note_off_c, 0, 85, 127
1, 1003433, Control_c, 0, 64, 119
1, 1003451, Control_c, 0, 64, 112
1, 1003469, Control_c, 0, 64, 107
1, 1003473, Note_off_c, 0, 75, 61
1, 1003479, Note_off_c, 0, 44, 57
1, 1003482, Note_off_c, 0, 80, 64
1, 1003482, Poly_aftertouch_c, 0, 80, 0
1, 1003484, Note_on_c, 0, 87, 96
1, 1003488, Control_c, 0, 64, 101
1, 1003493, Note_on_c, 0, 56, 78
1, 1003495, Note_off_c, 0, 84, 63
1, 1003507, Control_c, 0, 64, 96
1, 1003526, Control_c, 0, 64, 89
1, 1003544, Control_c, 0, 64, 80
1, 1003552, Note_off_c, 0, 56, 60
1, 1003552, Poly_aftertouch_c, 0, 56, 0
1, 1003565, Control_c, 0, 64, 70
1, 1003582, Control_c, 0, 64, 59
1, 1003596, Note_on_c, 0, 43, 85
1, 1003597, Note_on_c, 0, 85, 96
1, 1003601, Note_on_c, 0, 82, 94
1, 1003601, Control_c, 0, 64, 49
1, 1003605, Note_on_c, 0, 75, 90
1, 1003607, Poly_aftertouch_c, 0, 53, 0
1, 1003611, Note_off_c, 0, 87, 66
1, 1003620, Control_c, 0, 64, 34
1, 1003656, Note_on_c, 0, 44, 18
1, 1003656, Control_c, 0, 64, 0
1, 1003660, Note_off_c, 0, 75, 65
1, 1003673, Note_off_c, 0, 43, 65
1, 1003676, Note_off_c, 0, 82, 62
1, 1003676, Poly_aftertouch_c, 0, 82, 0
1, 1003687, Note_on_c, 0, 87, 88
1, 1003692, Note_off_c, 0, 85, 67
1, 1003695, Note_on_c, 0, 55, 74
1, 1003726, Note_off_c, 0, 44, 30
1, 1003734, Note_off_c, 0, 55, 66
1, 1003734, Poly_aftertouch_c, 0, 55, 0
1, 1003771, Note_on_c, 0, 44, 74
1, 1003772, Note_on_c, 0, 84, 84
1, 1003776, Note_on_c, 0, 80, 90
1, 1003784, Note_on_c, 0, 75, 83
1, 1003789, Note_off_c, 0, 87, 64
1, 1003820, Note_off_c, 0, 44, 65
1, 1003836, Note_off_c, 0, 75, 61
1, 1003849, Note_on_c, 0, 56, 81
1, 1003853, Note_off_c, 0, 80, 64
1, 1003853, Poly_aftertouch_c, 0, 80, 0
1, 1003855, Note_on_c, 0, 87, 86
1, 1003880, Note_off_c, 0, 84, 60
1, 1003896, Note_off_c, 0, 56, 63
1, 1003896, Poly_aftertouch_c, 0, 56, 0
1, 1003939, Note_on_c, 0, 41, 84
1, 1003949, Note_on_c, 0, 84, 82
1, 1003957, Control_c, 0, 64, 12
1, 1003959, Note_on_c, 0, 75, 87
1, 1003967, Note_off_c, 0, 87, 64
1, 1003968, Note_on_c, 0, 80, 77
1, 1003976, Control_c, 0, 64, 27
1, 1003993, Control_c, 0, 64, 42
1, 1004002, Note_off_c, 0, 80, 62
1, 1004002, Poly_aftertouch_c, 0, 80, 0
1, 1004003, Note_off_c, 0, 41, 64
1, 1004012, Control_c, 0, 64, 55
1, 1004031, Control_c, 0, 64, 67
1, 1004034, Note_off_c, 0, 75, 63
1, 1004046, Note_on_c, 0, 53, 59
1, 1004049, Note_on_c, 0, 87, 91
1, 1004049, Control_c, 0, 64, 74
1, 1004068, Control_c, 0, 64, 79
1, 1004077, Note_off_c, 0, 53, 40
1, 1004078, Note_off_c, 0, 84, 59
1, 1004087, Control_c, 0, 64, 84
1, 1004106, Control_c, 0, 64, 90
1, 1004121, Note_off_c, 0, 87, 60
1, 1004125, Control_c, 0, 64, 97
1, 1004126, Note_on_c, 0, 37, 82
1, 1004139, Note_on_c, 0, 82, 88
1, 1004143, Control_c, 0, 64, 104
1, 1004162, Control_c, 0, 64, 109
1, 1004166, Note_off_c, 0, 37, 67
1, 1004169, Poly_aftertouch_c, 0, 52, 0
1, 1004199, Note_on_c, 0, 49, 77
1, 1004219, Note_off_c, 0, 82, 63
1, 1004219, Poly_aftertouch_c, 0, 82, 0
1, 1004223, Note_on_c, 0, 85, 82
1, 1004268, Note_off_c, 0, 49, 57
1, 1004268, Poly_aftertouch_c, 0, 49, 0
1, 1004298, Note_on_c, 0, 39, 88
1, 1004312, Note_on_c, 0, 80, 88
1, 1004331, Note_off_c, 0, 85, 64
1, 1004349, Control_c, 0, 64, 104
1, 1004385, Control_c, 0, 64, 99
1, 1004386, Note_off_c, 0, 39, 60
1, 1004403, Control_c, 0, 64, 87
1, 1004413, Note_on_c, 0, 82, 40
1, 1004413, Note_on_c, 0, 51, 78
1, 1004417, Note_on_c, 0, 83, 85
1, 1004423, Control_c, 0, 64, 67
1, 1004427, Note_off_c, 0, 80, 62
1, 1004427, Poly_aftertouch_c, 0, 80, 0
1, 1004442, Control_c, 0, 64, 37
1, 1004461, Control_c, 0, 64, 0
1, 1004462, Note_off_c, 0, 51, 61
1, 1004462, Poly_aftertouch_c, 0, 51, 0
1, 1004487, Note_on_c, 0, 39, 81
1, 1004488, Note_off_c, 0, 83, 63
1, 1004501, Note_on_c, 0, 79, 66
1, 1004504, Note_off_c, 0, 82, 65
1, 1004504, Poly_aftertouch_c, 0, 82, 0
1, 1004539, Note_on_c, 0, 78, 33
1, 1004556, Note_on_c, 0, 51, 81
1, 1004561, Note_off_c, 0, 39, 60
1, 1004590, Note_off_c, 0, 51, 66
1, 1004590, Note_on_c, 0, 82, 81
1, 1004590, Poly_aftertouch_c, 0, 51, 0
1, 1004624, Note_off_c, 0, 78, 37
1, 1004645, Note_off_c, 0, 79, 60
1, 1004645, Poly_aftertouch_c, 0, 79, 0
1, 1004686, Note_on_c, 0, 80, 78
1, 1004690, Note_on_c, 0, 32, 97
1, 1004694, Note_on_c, 0, 68, 96
1, 1004721, Note_off_c, 0, 82, 65
1, 1004721, Poly_aftertouch_c, 0, 82, 0
1, 1004737, Note_off_c, 0, 68, 66
1, 1004740, Note_off_c, 0, 80, 68
1, 1004740, Poly_aftertouch_c, 0, 80, 0
1, 1004741, Control_c, 0, 67, 23
1, 1004760, Control_c, 0, 64, 70
1, 1004761, Control_c, 0, 67, 44
1, 1004779, Control_c, 0, 64, 127
1, 1004797, Control_c, 0, 67, 49
1, 1004885, Note_off_c, 0, 32, 50
1, 1004890, Control_c, 0, 67, 53
1, 1004910, Control_c, 0, 67, 71
1, 1004912, Note_on_c, 0, 44, 82
1, 1004928, Control_c, 0, 64, 79
1, 1004931, Control_c, 0, 67, 112
1, 1004948, Control_c, 0, 64, 0
1, 1004949, Control_c, 0, 67, 127
1, 1004954, Note_off_c, 0, 44, 62
1, 1005131, Note_on_c, 0, 36, 46
1, 1005140, Note_on_c, 0, 60, 47
1, 1005170, Note_off_c, 0, 36, 53
1, 1005184, Note_off_c, 0, 60, 62
1, 1005184, Poly_aftertouch_c, 0, 60, 0
1, 1005216, Note_on_c, 0, 43, 50
1, 1005219, Note_on_c, 0, 55, 47
1, 1005259, Note_off_c, 0, 43, 63
1, 1005265, Note_off_c, 0, 55, 50
1, 1005265, Poly_aftertouch_c, 0, 55, 0
1, 1005290, Note_on_c, 0, 36, 61
1, 1005309, Note_on_c, 0, 60, 55
1, 1005348, Note_off_c, 0, 36, 62
1, 1005365, Note_off_c, 0, 60, 59
1, 1005365, Poly_aftertouch_c, 0, 60, 0
1, 1005384, Note_on_c, 0, 43, 48
1, 1005392, Note_on_c, 0, 55, 61
1, 1005440, Note_off_c, 0, 43, 61
1, 1005486, Note_off_c, 0, 55, 57
1, 1005486, Poly_aftertouch_c, 0, 55, 0
1, 1005498, Note_on_c, 0, 36, 57
1, 1005506, Note_on_c, 0, 60, 65
1, 1005543, Note_off_c, 0, 36, 63
1, 1005560, Note_off_c, 0, 60, 61
1, 1005560, Note_on_c, 0, 43, 55
1, 1005560, Poly_aftertouch_c, 0, 60, 0
1, 1005589, Note_on_c, 0, 55, 53
1, 1005618, Note_off_c, 0, 43, 61
1, 1005637, Note_off_c, 0, 55, 60
1, 1005637, Poly_aftertouch_c, 0, 55, 0
1, 1005653, Note_on_c, 0, 36, 65
1, 1005667, Note_on_c, 0, 62, 67
1, 1005710, Note_off_c, 0, 36, 59
1, 1005727, Note_off_c, 0, 62, 62
1, 1005732, Control_c, 0, 64, 20
1, 1005741, Note_on_c, 0, 43, 55
1, 1005750, Control_c, 0, 64, 29
1, 1005760, Note_on_c, 0, 59, 62
1, 1005770, Control_c, 0, 64, 33
1, 1005797, Note_off_c, 0, 43, 61
1, 1005824, Control_c, 0, 64, 38
1, 1005830, Note_on_c, 0, 63, 71
1, 1005840, Note_on_c, 0, 36, 68
1, 1005843, Control_c, 0, 64, 41
1, 1005851, Note_off_c, 0, 59, 47
1, 1005863, Control_c, 0, 64, 43
1, 1005882, Note_off_c, 0, 36, 61
1, 1005900, Control_c, 0, 64, 46
1, 1005907, Note_on_c, 0, 43, 60
1, 1005921, Note_off_c, 0, 63, 61
1, 1005921, Note_on_c, 0, 60, 69
1, 1005921, Poly_aftertouch_c, 0, 63, 0
1, 1005938, Control_c, 0, 64, 50
1, 1005956, Control_c, 0, 64, 52
1, 1005966, Note_off_c, 0, 43, 60
1, 1005975, Control_c, 0, 64, 55
1, 1005976, Note_off_c, 0, 60, 58
1, 1005976, Poly_aftertouch_c, 0, 60, 0
1, 1005995, Note_on_c, 0, 36, 71
1, 1006006, Note_on_c, 0, 65, 79
1, 1006011, Control_c, 0, 64, 57
1, 1006042, Note_off_c, 0, 65, 67
1, 1006049, Control_c, 0, 64, 60
1, 1006057, Note_off_c, 0, 36, 59
1, 1006084, Note_on_c, 0, 43, 69
1, 1006087, Control_c, 0, 64, 61
1, 1006092, Note_on_c, 0, 62, 72
1, 1006125, Control_c, 0, 64, 62
1, 1006144, Control_c, 0, 64, 63
1, 1006145, Control_c, 0, 67, 119
1, 1006149, Note_off_c, 0, 43, 61
1, 1006164, Control_c, 0, 64, 65
1, 1006165, Control_c, 0, 67, 112
1, 1006176, Note_on_c, 0, 67, 77
1, 1006177, Note_on_c, 0, 36, 81
1, 1006183, Control_c, 0, 64, 66
1, 1006184, Control_c, 0, 67, 103
1, 1006195, Note_off_c, 0, 62, 58
1, 1006199, Control_c, 0, 64, 67
1, 1006200, Control_c, 0, 67, 93
1, 1006218, Control_c, 0, 67, 83
1, 1006219, Note_off_c, 0, 36, 62
1, 1006237, Control_c, 0, 64, 69
1, 1006238, Control_c, 0, 67, 72
1, 1006248, Note_on_c, 0, 63, 80
1, 1006255, Control_c, 0, 67, 60
1, 1006256, Note_on_c, 0, 43, 70
1, 1006261, Note_off_c, 0, 67, 61
1, 1006275, Control_c, 0, 64, 72
1, 1006276, Control_c, 0, 67, 45
1, 1006293, Control_c, 0, 67, 29
1, 1006312, Control_c, 0, 67, 12
1, 1006313, Note_off_c, 0, 43, 62
1, 1006319, Note_off_c, 0, 63, 63
1, 1006319, Poly_aftertouch_c, 0, 63, 0
1, 1006331, Control_c, 0, 64, 75
1, 1006332, Control_c, 0, 67, 0
1, 1006345, Note_on_c, 0, 36, 84
1, 1006347, Note_on_c, 0, 71, 86
1, 1006369, Control_c, 0, 64, 77
1, 1006387, Control_c, 0, 64, 79
1, 1006398, Note_off_c, 0, 36, 60
1, 1006404, Control_c, 0, 64, 81
1, 1006425, Note_on_c, 0, 43, 77
1, 1006425, Control_c, 0, 64, 83
1, 1006426, Note_off_c, 0, 71, 64
1, 1006439, Note_on_c, 0, 67, 78
1, 1006462, Control_c, 0, 64, 87
1, 1006495, Note_off_c, 0, 43, 62
1, 1006497, Control_c, 0, 64, 93
1, 1006518, Note_on_c, 0, 36, 90
1, 1006521, Note_on_c, 0, 72, 81
1, 1006537, Control_c, 0, 64, 100
1, 1006570, Note_off_c, 0, 67, 60
1, 1006574, Control_c, 0, 64, 107
1, 1006580, Note_off_c, 0, 36, 64
1, 1006593, Control_c, 0, 64, 111
1, 1006602, Note_on_c, 0, 69, 85
1, 1006602, Note_on_c, 0, 43, 78
1, 1006610, Note_off_c, 0, 72, 62
1, 1006611, Control_c, 0, 64, 119
1, 1006630, Control_c, 0, 64, 126
1, 1006677, Note_off_c, 0, 43, 60
1, 1006684, Note_on_c, 0, 36, 93
1, 1006692, Note_on_c, 0, 74, 89
1, 1006708, Note_off_c, 0, 69, 53
1, 1006744, Note_off_c, 0, 36, 65
1, 1006765, Note_off_c, 0, 74, 65
1, 1006774, Note_on_c, 0, 43, 83
1, 1006783, Note_on_c, 0, 71, 81
1, 1006803, Poly_aftertouch_c, 0, 73, 0
1, 1006860, Note_off_c, 0, 43, 62
1, 1006866, Note_on_c, 0, 36, 92
1, 1006876, Note_on_c, 0, 76, 91
1, 1006912, Note_off_c, 0, 71, 60
1, 1006931, Note_off_c, 0, 36, 62
1, 1006955, Note_on_c, 0, 43, 82
1, 1006961, Note_on_c, 0, 72, 76
1, 1006994, Note_off_c, 0, 76, 62
1, 1007032, Note_on_c, 0, 36, 93
1, 1007042, Note_off_c, 0, 43, 62
1, 1007051, Note_on_c, 0, 79, 70
1, 1007053, Note_on_c, 0, 77, 73
1, 1007075, Note_off_c, 0, 72, 60
1, 1007097, Note_on_c, 0, 74, 83
1, 1007103, Note_off_c, 0, 36, 63
1, 1007110, Note_off_c, 0, 77, 59
1, 1007116, Note_off_c, 0, 79, 61
1, 1007116, Poly_aftertouch_c, 0, 79, 0
1, 1007118, Note_on_c, 0, 43, 80
1, 1007165, Note_off_c, 0, 74, 60
1, 1007197, Note_off_c, 0, 43, 60
1, 1007207, Note_on_c, 0, 36, 95
1, 1007216, Note_on_c, 0, 74, 81
1, 1007222, Note_on_c, 0, 77, 86
1, 1007230, Note_on_c, 0, 79, 79
1, 1007244, Note_off_c, 0, 74, 65
1, 1007257, Note_off_c, 0, 79, 69
1, 1007257, Poly_aftertouch_c, 0, 79, 0
1, 1007265, Control_c, 0, 64, 116
1, 1007271, Note_off_c, 0, 77, 59
1, 1007275, Note_off_c, 0, 36, 64
1, 1007284, Control_c, 0, 64, 66
1, 1007288, Note_on_c, 0, 43, 87
1, 1007303, Control_c, 0, 64, 0
1, 1007392, Note_off_c, 0, 43, 62
1, 1007408, Note_on_c, 0, 74, 101
1, 1007408, Note_on_c, 0, 31, 92
1, 1007409, Note_on_c, 0, 83, 106
1, 1007412, Note_on_c, 0, 71, 97
1, 1007436, Note_off_c, 0, 71, 70
1, 1007439, Note_off_c, 0, 74, 68
1, 1007447, Note_off_c, 0, 83, 68
1, 1007479, Note_off_c, 0, 31, 64
1, 1007498, Note_on_c, 0, 43, 80
1, 1007599, Note_off_c, 0, 43, 62
1, 1007604, Note_on_c, 0, 75, 108
1, 1007606, Note_on_c, 0, 84, 108
1, 1007607, Note_on_c, 0, 72, 103
1, 1007613, Note_on_c, 0, 36, 91
1, 1007620, Control_c, 0, 64, 51
1, 1007621, Control_c, 0, 67, 25
1, 1007640, Note_off_c, 0, 84, 70
1, 1007640, Note_off_c, 0, 72, 67
1, 1007640, Control_c, 0, 64, 127
1, 1007642, Control_c, 0, 67, 53
1, 1007648, Note_off_c, 0, 75, 69
1, 1007659, Control_c, 0, 67, 63
1, 1007677, Control_c, 0, 67, 70
1, 1007695, Control_c, 0, 67, 79
1, 1007703, Note_off_c, 0, 36, 61
1, 1007716, Control_c, 0, 67, 89
1, 1007726, Note_on_c, 0, 43, 80
1, 1007735, Control_c, 0, 67, 96
1, 1007751, Control_c, 0, 67, 103
1, 1007768, Note_on_c, 0, 41, 39
1, 1007769, Control_c, 0, 67, 111
1, 1007789, Control_c, 0, 67, 124
1, 1007800, Note_off_c, 0, 43, 63
1, 1007815, Note_off_c, 0, 41, 34
1, 1007842, Note_on_c, 0, 36, 73
1, 1007844, Control_c, 0, 64, 117
1, 1007866, Control_c, 0, 64, 70
1, 1007883, Control_c, 0, 64, 0
1, 1007893, Note_off_c, 0, 36, 60
1, 1007931, Note_on_c, 0, 43, 66
1, 1007983, Note_off_c, 0, 43, 59
1, 1007983, Note_on_c, 0, 60, 64
1, 1008027, Note_on_c, 0, 36, 69
1, 1008063, Note_on_c, 0, 55, 64
1, 1008068, Note_off_c, 0, 60, 61
1, 1008068, Poly_aftertouch_c, 0, 60, 0
1, 1008073, Note_off_c, 0, 36, 64
1, 1008113, Note_on_c, 0, 43, 61
1, 1008123, Note_off_c, 0, 55, 55
1, 1008123, Poly_aftertouch_c, 0, 55, 0
1, 1008156, Note_off_c, 0, 43, 64
1, 1008171, Note_on_c, 0, 60, 65
1, 1008198, Note_on_c, 0, 36, 60
1, 1008242, Note_off_c, 0, 60, 60
1, 1008242, Poly_aftertouch_c, 0, 60, 0
1, 1008246, Note_off_c, 0, 36, 61
1, 1008251, Note_on_c, 0, 55, 69
1, 1008265, Note_on_c, 0, 43, 54
1, 1008328, Note_off_c, 0, 43, 61
1, 1008333, Note_off_c, 0, 55, 47
1, 1008333, Poly_aftertouch_c, 0, 55, 0
1, 1008362, Note_on_c, 0, 60, 68
1, 1008367, Note_on_c, 0, 36, 60
1, 1008368, Control_c, 0, 64, 17
1, 1008387, Control_c, 0, 64, 28
1, 1008407, Control_c, 0, 64, 37
1, 1008414, Note_off_c, 0, 60, 59
1, 1008414, Poly_aftertouch_c, 0, 60, 0
1, 1008418, Note_off_c, 0, 36, 64
1, 1008425, Control_c, 0, 64, 44
1, 1008438, Note_on_c, 0, 55, 64
1, 1008442, Control_c, 0, 64, 50
1, 1008453, Note_on_c, 0, 43, 53
1, 1008460, Control_c, 0, 64, 56
1, 1008481, Control_c, 0, 64, 60
1, 1008500, Note_off_c, 0, 55, 59
1, 1008500, Poly_aftertouch_c, 0, 55, 0
1, 1008501, Control_c, 0, 64, 63
1, 1008505, Note_off_c, 0, 43, 61
1, 1008518, Control_c, 0, 64, 66
1, 1008531, Note_on_c, 0, 62, 69
1, 1008538, Control_c, 0, 64, 67
1, 1008541, Note_on_c, 0, 36, 66
1, 1008574, Control_c, 0, 64, 70
1, 1008596, Note_off_c, 0, 62, 62
1, 1008596, Note_off_c, 0, 36, 62
1, 1008613, Control_c, 0, 64, 73
1, 1008624, Note_on_c, 0, 43, 53
1, 1008627, Note_on_c, 0, 59, 68
1, 1008650, Control_c, 0, 64, 76
1, 1008680, Note_off_c, 0, 43, 60
1, 1008686, Control_c, 0, 64, 80
1, 1008704, Note_on_c, 0, 63, 72
1, 1008705, Control_c, 0, 64, 82
1, 1008715, Note_on_c, 0, 36, 79
1, 1008724, Control_c, 0, 64, 86
1, 1008726, Control_c, 0, 67, 119
1, 1008739, Note_off_c, 0, 59, 56
1, 1008743, Control_c, 0, 64, 90
1, 1008761, Control_c, 0, 64, 96
1, 1008762, Control_c, 0, 67, 113
1, 1008763, Note_off_c, 0, 36, 62
1, 1008781, Control_c, 0, 64, 101
1, 1008782, Control_c, 0, 67, 109
1, 1008786, Note_on_c, 0, 60, 72
1, 1008789, Note_off_c, 0, 63, 61
1, 1008789, Poly_aftertouch_c, 0, 63, 0
1, 1008799, Note_on_c, 0, 43, 68
1, 1008799, Control_c, 0, 64, 106
1, 1008800, Control_c, 0, 67, 104
1, 1008818, Control_c, 0, 64, 110
1, 1008819, Control_c, 0, 67, 98
1, 1008837, Control_c, 0, 64, 114
1, 1008838, Control_c, 0, 67, 91
1, 1008847, Note_off_c, 0, 60, 59
1, 1008847, Poly_aftertouch_c, 0, 60, 0
1, 1008855, Control_c, 0, 67, 83
1, 1008863, Note_off_c, 0, 43, 57
1, 1008874, Control_c, 0, 64, 121
1, 1008875, Control_c, 0, 67, 75
1, 1008880, Note_on_c, 0, 65, 80
1, 1008881, Note_on_c, 0, 36, 83
1, 1008893, Control_c, 0, 67, 67
1, 1008901, Poly_aftertouch_c, 0, 59, 0
1, 1008912, Control_c, 0, 64, 127
1, 1008913, Control_c, 0, 67, 58
1, 1008930, Control_c, 0, 67, 49
1, 1008936, Note_off_c, 0, 65, 65
1, 1008944, Note_off_c, 0, 36, 59
1, 1008949, Control_c, 0, 67, 41
1, 1008967, Note_on_c, 0, 62, 73
1, 1008967, Control_c, 0, 67, 34
1, 1008977, Note_on_c, 0, 43, 73
1, 1008984, Control_c, 0, 67, 26
1, 1009005, Control_c, 0, 67, 18
1, 1009023, Control_c, 0, 67, 8
1, 1009043, Note_off_c, 0, 43, 55
1, 1009051, Note_on_c, 0, 67, 81
1, 1009057, Note_on_c, 0, 36, 84
1, 1009074, Note_off_c, 0, 62, 57
1, 1009114, Note_off_c, 0, 36, 61
1, 1009116, Control_c, 0, 67, 0
1, 1009133, Note_on_c, 0, 63, 79
1, 1009142, Note_off_c, 0, 67, 61
1, 1009143, Note_on_c, 0, 43, 72
1, 1009204, Note_off_c, 0, 63, 63
1, 1009204, Poly_aftertouch_c, 0, 63, 0
1, 1009216, Note_off_c, 0, 43, 61
1, 1009224, Note_on_c, 0, 36, 81
1, 1009235, Note_on_c, 0, 71, 84
1, 1009281, Note_off_c, 0, 36, 57
1, 1009302, Note_off_c, 0, 71, 64
1, 1009312, Note_on_c, 0, 43, 68
1, 1009337, Note_on_c, 0, 67, 77
1, 1009380, Note_off_c, 0, 43, 61
1, 1009411, Note_on_c, 0, 36, 81
1, 1009415, Note_on_c, 0, 72, 86
1, 1009461, Note_off_c, 0, 36, 59
1, 1009464, Note_off_c, 0, 67, 59
1, 1009486, Note_on_c, 0, 43, 70
1, 1009512, Note_on_c, 0, 69, 83
1, 1009523, Note_off_c, 0, 72, 62
1, 1009551, Note_off_c, 0, 43, 62
1, 1009577, Note_on_c, 0, 36, 88
1, 1009598, Note_on_c, 0, 74, 87
1, 1009603, Note_off_c, 0, 69, 56
1, 1009643, Note_off_c, 0, 36, 60
1, 1009660, Note_on_c, 0, 43, 73
1, 1009675, Note_off_c, 0, 74, 63
1, 1009695, Note_on_c, 0, 71, 80
1, 1009728, Note_off_c, 0, 43, 62
1, 1009758, Note_on_c, 0, 36, 88
1, 1009772, Note_on_c, 0, 75, 94
1, 1009811, Note_off_c, 0, 36, 58
1, 1009812, Note_off_c, 0, 71, 59
1, 1009837, Note_on_c, 0, 43, 72
1, 1009855, Note_on_c, 0, 72, 71
1, 1009869, Note_off_c, 0, 75, 63
1, 1009899, Note_off_c, 0, 43, 60
1, 1009924, Note_on_c, 0, 36, 80
1, 1009945, Note_on_c, 0, 75, 84
1, 1009964, Note_off_c, 0, 72, 58
1, 1009976, Control_c, 0, 64, 111
1, 1009978, Note_off_c, 0, 36, 60
1, 1009996, Control_c, 0, 64, 80
1, 1009998, Note_on_c, 0, 43, 70
1, 1010016, Control_c, 0, 64, 48
1, 1010029, Note_on_c, 0, 72, 77
1, 1010034, Control_c, 0, 64, 0
1, 1010055, Note_off_c, 0, 75, 63
1, 1010071, Note_off_c, 0, 43, 59
1, 1010089, Note_on_c, 0, 38, 83
1, 1010109, Note_off_c, 0, 72, 63
1, 1010120, Note_on_c, 0, 74, 72
1, 1010158, Note_off_c, 0, 38, 62
1, 1010165, Note_off_c, 0, 74, 54
1, 1010167, Note_on_c, 0, 43, 81
1, 1010224, Note_off_c, 0, 43, 60
1, 1010283, Note_on_c, 0, 38, 90
1, 1010290, Note_on_c, 0, 78, 96
1, 1010290, Note_on_c, 0, 69, 91
1, 1010294, Note_on_c, 0, 66, 88
1, 1010330, Note_off_c, 0, 66, 60
1, 1010330, Poly_aftertouch_c, 0, 66, 0
1, 1010335, Note_off_c, 0, 69, 64
1, 1010347, Note_off_c, 0, 38, 63
1, 1010366, Note_off_c, 0, 78, 65
1, 1010377, Note_on_c, 0, 50, 79
1, 1010421, Note_off_c, 0, 50, 62
1, 1010421, Poly_aftertouch_c, 0, 50, 0
1, 1010506, Note_on_c, 0, 70, 98
1, 1010506, Note_on_c, 0, 79, 102
1, 1010508, Note_on_c, 0, 67, 96
1, 1010516, Note_on_c, 0, 31, 91
1, 1010538, Control_c, 0, 64, 51
1, 1010558, Control_c, 0, 64, 91
1, 1010561, Control_c, 0, 67, 12
1, 1010568, Note_off_c, 0, 67, 62
1, 1010576, Note_off_c, 0, 79, 65
1, 1010576, Poly_aftertouch_c, 0, 79, 0
1, 1010577, Control_c, 0, 64, 126
1, 1010579, Control_c, 0, 67, 17
1, 1010590, Note_off_c, 0, 70, 70
1, 1010593, Control_c, 0, 67, 26
1, 1010606, Note_off_c, 0, 31, 50
1, 1010612, Control_c, 0, 67, 35
1, 1010617, Note_on_c, 0, 43, 76
1, 1010631, Control_c, 0, 67, 42
1, 1010649, Control_c, 0, 67, 49
1, 1010668, Control_c, 0, 67, 55
1, 1010687, Control_c, 0, 67, 60
1, 1010707, Control_c, 0, 67, 69
1, 1010711, Note_off_c, 0, 43, 62
1, 1010723, Control_c, 0, 67, 82
1, 1010725, Note_on_c, 0, 31, 74
1, 1010744, Control_c, 0, 67, 98
1, 1010762, Control_c, 0, 67, 113
1, 1010781, Control_c, 0, 67, 121
1, 1010790, Note_off_c, 0, 31, 59
1, 1010819, Note_on_c, 0, 43, 64
1, 1010819, Control_c, 0, 67, 126
1, 1010837, Control_c, 0, 64, 118
1, 1010855, Control_c, 0, 64, 92
1, 1010869, Note_off_c, 0, 43, 58
1, 1010873, Control_c, 0, 64, 65
1, 1010894, Control_c, 0, 64, 34
1, 1010912, Control_c, 0, 64, 0
1, 1010929, Note_on_c, 0, 60, 49
1, 1010929, Note_on_c, 0, 36, 61
1, 1010979, Note_off_c, 0, 36, 62
1, 1010984, Note_off_c, 0, 60, 47
1, 1010984, Poly_aftertouch_c, 0, 60, 0
1, 1011004, Note_on_c, 0, 55, 57
1, 1011009, Note_on_c, 0, 43, 57
1, 1011063, Note_off_c, 0, 55, 57
1, 1011063, Poly_aftertouch_c, 0, 55, 0
1, 1011065, Note_off_c, 0, 43, 59
1, 1011095, Note_on_c, 0, 36, 64
1, 1011108, Note_on_c, 0, 60, 60
1, 1011152, Note_off_c, 0, 36, 60
1, 1011173, Control_c, 0, 64, 9
1, 1011178, Note_off_c, 0, 60, 53
1, 1011178, Poly_aftertouch_c, 0, 60, 0
1, 1011184, Note_on_c, 0, 43, 52
1, 1011192, Control_c, 0, 64, 21
1, 1011198, Note_on_c, 0, 55, 62
1, 1011211, Control_c, 0, 64, 29
1, 1011230, Control_c, 0, 64, 35
1, 1011239, Note_off_c, 0, 43, 59
1, 1011247, Control_c, 0, 64, 40
1, 1011255, Note_off_c, 0, 55, 57
1, 1011255, Poly_aftertouch_c, 0, 55, 0
1, 1011267, Control_c, 0, 64, 46
1, 1011286, Control_c, 0, 64, 52
1, 1011289, Note_on_c, 0, 36, 57
1, 1011297, Note_on_c, 0, 60, 66
1, 1011303, Control_c, 0, 64, 59
1, 1011323, Control_c, 0, 64, 64
1, 1011334, Note_off_c, 0, 36, 63
1, 1011342, Control_c, 0, 64, 67
1, 1011358, Note_off_c, 0, 60, 59
1, 1011358, Note_on_c, 0, 43, 54
1, 1011358, Poly_aftertouch_c, 0, 60, 0
1, 1011379, Control_c, 0, 64, 70
1, 1011389, Note_on_c, 0, 55, 56
1, 1011397, Control_c, 0, 67, 121
1, 1011416, Note_off_c, 0, 43, 60
1, 1011416, Control_c, 0, 64, 72
1, 1011434, Note_off_c, 0, 55, 55
1, 1011434, Poly_aftertouch_c, 0, 55, 0
1, 1011435, Control_c, 0, 67, 117
1, 1011450, Note_on_c, 0, 36, 61
1, 1011468, Note_on_c, 0, 62, 65
1, 1011472, Control_c, 0, 64, 75
1, 1011473, Control_c, 0, 67, 113
1, 1011492, Control_c, 0, 64, 77
1, 1011511, Note_off_c, 0, 36, 62
1, 1011511, Control_c, 0, 64, 79
1, 1011530, Note_off_c, 0, 62, 62
1, 1011530, Control_c, 0, 64, 81
1, 1011531, Control_c, 0, 67, 109
1, 1011534, Note_on_c, 0, 43, 60
1, 1011548, Control_c, 0, 64, 83
1, 1011560, Note_on_c, 0, 59, 68
1, 1011566, Control_c, 0, 64, 86
1, 1011602, Note_off_c, 0, 43, 59
1, 1011604, Control_c, 0, 64, 93
1, 1011605, Control_c, 0, 67, 104
1, 1011622, Control_c, 0, 64, 98
1, 1011640, Note_on_c, 0, 36, 73
1, 1011640, Control_c, 0, 64, 103
1, 1011641, Control_c, 0, 67, 98
1, 1011648, Note_on_c, 0, 63, 75
1, 1011660, Control_c, 0, 64, 108
1, 1011662, Control_c, 0, 67, 94
1, 1011680, Control_c, 0, 67, 90
1, 1011682, Note_off_c, 0, 59, 50
1, 1011689, Note_off_c, 0, 36, 59
1, 1011698, Control_c, 0, 64, 115
1, 1011698, Control_c, 0, 67, 85
1, 1011715, Control_c, 0, 67, 81
1, 1011727, Note_on_c, 0, 60, 69
1, 1011728, Note_on_c, 0, 43, 64
1, 1011733, Note_off_c, 0, 63, 61
1, 1011733, Poly_aftertouch_c, 0, 63, 0
1, 1011734, Control_c, 0, 64, 121
1, 1011735, Control_c, 0, 67, 75
1, 1011751, Note_on_c, 0, 59, 49
1, 1011753, Control_c, 0, 67, 70
1, 1011772, Control_c, 0, 64, 126
1, 1011773, Control_c, 0, 67, 66
1, 1011777, Note_off_c, 0, 59, 55
1, 1011782, Note_off_c, 0, 43, 60
1, 1011791, Control_c, 0, 67, 61
1, 1011798, Note_off_c, 0, 60, 63
1, 1011798, Poly_aftertouch_c, 0, 60, 0
1, 1011809, Control_c, 0, 67, 56
1, 1011811, Note_on_c, 0, 36, 79
1, 1011828, Control_c, 0, 67, 52
1, 1011830, Note_on_c, 0, 65, 77
1, 1011846, Control_c, 0, 67, 47
1, 1011866, Control_c, 0, 67, 42
1, 1011870, Note_off_c, 0, 36, 61
1, 1011884, Control_c, 0, 67, 37
1, 1011890, Note_off_c, 0, 65, 67
1, 1011893, Note_on_c, 0, 43, 71
1, 1011903, Control_c, 0, 67, 32
1, 1011922, Control_c, 0, 67, 27
1, 1011925, Note_on_c, 0, 62, 66
1, 1011941, Control_c, 0, 67, 21
1, 1011949, Note_on_c, 0, 64, 58
1, 1011960, Control_c, 0, 67, 15
1, 1011976, Note_off_c, 0, 43, 60
1, 1011976, Control_c, 0, 67, 10
1, 1011984, Note_on_c, 0, 36, 79
1, 1011995, Note_on_c, 0, 67, 80
1, 1012000, Note_off_c, 0, 64, 43
1, 1012013, Note_off_c, 0, 62, 52
1, 1012057, Note_off_c, 0, 36, 60
1, 1012069, Note_on_c, 0, 43, 69
1, 1012074, Note_on_c, 0, 63, 78
1, 1012086, Note_off_c, 0, 67, 60
1, 1012126, Control_c, 0, 67, 0
1, 1012137, Note_off_c, 0, 63, 64
1, 1012137, Poly_aftertouch_c, 0, 63, 0
1, 1012146, Note_off_c, 0, 43, 61
1, 1012168, Note_on_c, 0, 36, 85
1, 1012172, Note_on_c, 0, 71, 87
1, 1012224, Note_off_c, 0, 36, 63
1, 1012225, Note_off_c, 0, 71, 64
1, 1012256, Note_on_c, 0, 43, 70
1, 1012258, Note_on_c, 0, 67, 79
1, 1012293, Poly_aftertouch_c, 0, 70, 0
1, 1012316, Note_off_c, 0, 43, 59
1, 1012342, Note_on_c, 0, 36, 85
1, 1012343, Note_on_c, 0, 72, 85
1, 1012396, Note_off_c, 0, 67, 59
1, 1012407, Note_off_c, 0, 36, 58
1, 1012430, Note_on_c, 0, 43, 73
1, 1012430, Note_on_c, 0, 69, 86
1, 1012441, Note_off_c, 0, 72, 61
1, 1012501, Note_off_c, 0, 43, 62
1, 1012512, Note_off_c, 0, 69, 53
1, 1012525, Note_on_c, 0, 36, 86
1, 1012530, Note_on_c, 0, 74, 90
1, 1012590, Note_off_c, 0, 74, 66
1, 1012591, Note_off_c, 0, 36, 59
1, 1012602, Note_on_c, 0, 43, 74
1, 1012616, Note_on_c, 0, 71, 82
1, 1012681, Note_off_c, 0, 43, 60
1, 1012693, Note_on_c, 0, 75, 91
1, 1012697, Note_on_c, 0, 36, 85
1, 1012730, Note_off_c, 0, 71, 55
1, 1012765, Note_off_c, 0, 36, 62
1, 1012773, Note_on_c, 0, 43, 80
1, 1012793, Note_on_c, 0, 72, 72
1, 1012859, Note_off_c, 0, 43, 62
1, 1012865, Note_on_c, 0, 77, 75
1, 1012872, Note_off_c, 0, 72, 63
1, 1012875, Note_off_c, 0, 75, 60
1, 1012876, Note_on_c, 0, 36, 79
1, 1012897, Note_on_c, 0, 38, 71
1, 1012924, Note_off_c, 0, 77, 64
1, 1012925, Note_on_c, 0, 74, 84
1, 1012926, Note_off_c, 0, 38, 56
1, 1012940, Note_off_c, 0, 36, 60
1, 1012946, Note_on_c, 0, 43, 78
1, 1013030, Note_on_c, 0, 79, 87
1, 1013030, Note_on_c, 0, 75, 88
1, 1013031, Note_off_c, 0, 43, 62
1, 1013041, Note_on_c, 0, 36, 89
1, 1013050, Note_off_c, 0, 74, 63
1, 1013061, Note_on_c, 0, 77, 53
1, 1013061, Control_c, 0, 64, 79
1, 1013062, Note_off_c, 0, 77, 127
1, 1013075, Note_off_c, 0, 75, 63
1, 1013079, Control_c, 0, 64, 0
1, 1013080, Note_off_c, 0, 79, 64
1, 1013080, Poly_aftertouch_c, 0, 79, 0
1, 1013107, Note_off_c, 0, 36, 63
1, 1013121, Note_on_c, 0, 43, 80
1, 1013216, Note_off_c, 0, 43, 61
1, 1013234, Note_on_c, 0, 83, 102
1, 1013234, Note_on_c, 0, 74, 99
1, 1013238, Note_on_c, 0, 71, 96
1, 1013241, Note_on_c, 0, 31, 90
1, 1013278, Note_off_c, 0, 74, 67
1, 1013278, Note_off_c, 0, 71, 63
1, 1013293, Note_off_c, 0, 83, 64
1, 1013313, Note_off_c, 0, 31, 64
1, 1013336, Note_on_c, 0, 43, 78
1, 1013443, Note_on_c, 0, 84, 102
1, 1013447, Note_off_c, 0, 43, 59
1, 1013448, Note_on_c, 0, 72, 98
1, 1013450, Note_on_c, 0, 75, 99
1, 1013450, Note_on_c, 0, 36, 87
1, 1013493, Control_c, 0, 64, 51
1, 1013495, Control_c, 0, 67, 10
1, 1013511, Control_c, 0, 64, 83
1, 1013531, Control_c, 0, 64, 117
1, 1013534, Note_off_c, 0, 84, 68
1, 1013534, Control_c, 0, 67, 14
1, 1013538, Note_off_c, 0, 72, 63
1, 1013545, Note_off_c, 0, 36, 60
1, 1013549, Control_c, 0, 64, 127
1, 1013550, Control_c, 0, 67, 18
1, 1013568, Note_on_c, 0, 43, 77
1, 1013569, Note_off_c, 0, 75, 66
1, 1013586, Control_c, 0, 67, 25
1, 1013604, Control_c, 0, 67, 30
1, 1013623, Control_c, 0, 67, 36
1, 1013642, Control_c, 0, 67, 43
1, 1013649, Note_off_c, 0, 43, 62
1, 1013661, Control_c, 0, 67, 51
1, 1013674, Note_on_c, 0, 36, 75
1, 1013678, Control_c, 0, 67, 60
1, 1013699, Control_c, 0, 67, 67
1, 1013716, Control_c, 0, 67, 74
1, 1013734, Control_c, 0, 67, 80
1, 1013740, Note_off_c, 0, 36, 57
1, 1013754, Control_c, 0, 67, 84
1, 1013768, Note_on_c, 0, 43, 59
1, 1013771, Control_c, 0, 67, 89
1, 1013790, Control_c, 0, 67, 94
1, 1013811, Control_c, 0, 64, 118
1, 1013823, Note_off_c, 0, 43, 61
1, 1013830, Control_c, 0, 64, 97
1, 1013831, Control_c, 0, 67, 99
1, 1013843, Note_on_c, 0, 60, 48
1, 1013847, Control_c, 0, 64, 74
1, 1013867, Control_c, 0, 64, 47
1, 1013876, Note_on_c, 0, 36, 66
1, 1013885, Control_c, 0, 64, 0
1, 1013891, Note_off_c, 0, 60, 48
1, 1013891, Poly_aftertouch_c, 0, 60, 0
1, 1013915, Note_off_c, 0, 36, 62
1, 1013938, Note_on_c, 0, 55, 48
1, 1013945, Note_on_c, 0, 43, 58
1, 1013983, Note_off_c, 0, 55, 58
1, 1013983, Poly_aftertouch_c, 0, 55, 0
1, 1014009, Note_off_c, 0, 43, 59
1, 1014018, Note_on_c, 0, 60, 65
1, 1014032, Note_on_c, 0, 36, 61
1, 1014034, Control_c, 0, 64, 12
1, 1014053, Control_c, 0, 64, 25
1, 1014072, Control_c, 0, 64, 35
1, 1014082, Note_off_c, 0, 36, 63
1, 1014089, Control_c, 0, 64, 42
1, 1014097, Note_off_c, 0, 60, 60
1, 1014097, Poly_aftertouch_c, 0, 60, 0
1, 1014100, Note_on_c, 0, 55, 62
1, 1014109, Control_c, 0, 64, 47
1, 1014128, Control_c, 0, 64, 52
1, 1014134, Note_on_c, 0, 43, 52
1, 1014148, Control_c, 0, 64, 57
1, 1014165, Control_c, 0, 64, 63
1, 1014170, Note_off_c, 0, 55, 61
1, 1014170, Poly_aftertouch_c, 0, 55, 0
1, 1014180, Note_off_c, 0, 43, 63
1, 1014184, Control_c, 0, 64, 67
1, 1014203, Control_c, 0, 64, 69
1, 1014215, Note_on_c, 0, 60, 63
1, 1014219, Note_on_c, 0, 36, 59
1, 1014222, Control_c, 0, 64, 71
1, 1014240, Control_c, 0, 64, 73
1, 1014259, Control_c, 0, 64, 76
1, 1014267, Note_off_c, 0, 36, 64
1, 1014276, Note_off_c, 0, 60, 60
1, 1014276, Poly_aftertouch_c, 0, 60, 0
1, 1014276, Control_c, 0, 64, 79
1, 1014291, Note_on_c, 0, 43, 52
1, 1014295, Control_c, 0, 64, 82
1, 1014299, Note_on_c, 0, 55, 58
1, 1014315, Control_c, 0, 64, 86
1, 1014334, Control_c, 0, 64, 92
1, 1014348, Note_off_c, 0, 43, 60
1, 1014351, Control_c, 0, 64, 98
1, 1014353, Note_off_c, 0, 55, 61
1, 1014353, Poly_aftertouch_c, 0, 55, 0
1, 1014371, Control_c, 0, 64, 105
1, 1014389, Note_on_c, 0, 36, 68
1, 1014390, Note_on_c, 0, 62, 68
1, 1014390, Control_c, 0, 64, 111
1, 1014408, Control_c, 0, 64, 117
1, 1014427, Control_c, 0, 64, 122
1, 1014440, Note_off_c, 0, 36, 60
1, 1014441, Note_off_c, 0, 62, 62
1, 1014445, Control_c, 0, 64, 126
1, 1014463, Control_c, 0, 67, 95
1, 1014470, Note_on_c, 0, 43, 58
1, 1014475, Note_on_c, 0, 59, 73
1, 1014521, Control_c, 0, 67, 90
1, 1014536, Note_off_c, 0, 43, 56
1, 1014558, Control_c, 0, 67, 82
1, 1014561, Note_on_c, 0, 63, 80
1, 1014575, Note_on_c, 0, 36, 78
1, 1014577, Control_c, 0, 67, 75
1, 1014592, Note_off_c, 0, 59, 54
1, 1014594, Control_c, 0, 67, 67
1, 1014613, Control_c, 0, 67, 59
1, 1014626, Note_off_c, 0, 36, 61
1, 1014633, Control_c, 0, 67, 52
1, 1014650, Note_on_c, 0, 60, 73
1, 1014652, Control_c, 0, 67, 47
1, 1014659, Note_off_c, 0, 63, 61
1, 1014659, Poly_aftertouch_c, 0, 63, 0
1, 1014661, Note_on_c, 0, 43, 70
1, 1014670, Control_c, 0, 67, 42
1, 1014689, Control_c, 0, 67, 36
1, 1014694, Note_on_c, 0, 59, 46
1, 1014696, Note_off_c, 0, 59, 62
1, 1014708, Control_c, 0, 67, 29
1, 1014711, Note_off_c, 0, 60, 63
1, 1014711, Poly_aftertouch_c, 0, 60, 0
1, 1014722, Note_off_c, 0, 43, 60
1, 1014726, Control_c, 0, 67, 21
1, 1014741, Note_on_c, 0, 36, 82
1, 1014745, Control_c, 0, 67, 13
1, 1014747, Note_on_c, 0, 65, 84
1, 1014793, Note_off_c, 0, 65, 63
1, 1014802, Note_off_c, 0, 36, 57
1, 1014825, Note_on_c, 0, 43, 73
1, 1014838, Note_on_c, 0, 62, 73
1, 1014877, Control_c, 0, 67, 0
1, 1014901, Note_off_c, 0, 43, 59
1, 1014921, Note_on_c, 0, 67, 79
1, 1014923, Note_on_c, 0, 36, 84
1, 1014943, Note_off_c, 0, 62, 58
1, 1014973, Note_off_c, 0, 36, 56
1, 1014992, Note_on_c, 0, 63, 80
1, 1015007, Note_on_c, 0, 43, 72
1, 1015013, Note_off_c, 0, 67, 57
1, 1015072, Note_off_c, 0, 63, 63
1, 1015072, Poly_aftertouch_c, 0, 63, 0
1, 1015077, Note_off_c, 0, 43, 59
1, 1015095, Note_on_c, 0, 36, 84
1, 1015096, Note_on_c, 0, 71, 88
1, 1015156, Note_off_c, 0, 36, 57
1, 1015170, Note_off_c, 0, 71, 65
1, 1015174, Note_on_c, 0, 43, 70
1, 1015194, Note_on_c, 0, 67, 82
1, 1015241, Note_off_c, 0, 43, 61
1, 1015269, Note_on_c, 0, 36, 86
1, 1015279, Note_on_c, 0, 72, 84
1, 1015318, Note_off_c, 0, 36, 61
1, 1015321, Note_off_c, 0, 67, 58
1, 1015352, Note_on_c, 0, 43, 75
1, 1015357, Note_on_c, 0, 69, 88
1, 1015358, Note_off_c, 0, 72, 60
1, 1015425, Note_off_c, 0, 43, 61
1, 1015444, Note_off_c, 0, 69, 49
1, 1015448, Note_on_c, 0, 36, 83
1, 1015457, Note_on_c, 0, 74, 88
1, 1015505, Note_off_c, 0, 36, 55
1, 1015523, Note_off_c, 0, 74, 58
1, 1015531, Note_on_c, 0, 43, 68
1, 1015544, Note_on_c, 0, 71, 83
1, 1015594, Note_off_c, 0, 43, 64
1, 1015630, Note_on_c, 0, 36, 82
1, 1015632, Note_on_c, 0, 75, 93
1, 1015666, Note_off_c, 0, 71, 56
1, 1015676, Note_off_c, 0, 36, 62
1, 1015699, Note_on_c, 0, 43, 77
1, 1015720, Note_on_c, 0, 72, 87
1, 1015726, Note_off_c, 0, 75, 64
1, 1015753, Note_on_c, 0, 73, 26
1, 1015768, Note_off_c, 0, 43, 58
1, 1015769, Note_off_c, 0, 73, 36
1, 1015796, Note_on_c, 0, 36, 80
1, 1015808, Note_on_c, 0, 75, 92
1, 1015827, Note_off_c, 0, 72, 58
1, 1015836, Note_off_c, 0, 36, 63
1, 1015864, Note_on_c, 0, 43, 76
1, 1015889, Note_on_c, 0, 72, 80
1, 1015925, Note_off_c, 0, 75, 63
1, 1015941, Note_off_c, 0, 43, 61
1, 1015959, Note_on_c, 0, 38, 82
1, 1015960, Control_c, 0, 64, 93
1, 1015969, Note_on_c, 0, 75, 80
1, 1015979, Control_c, 0, 64, 53
1, 1015983, Note_off_c, 0, 72, 62
1, 1015998, Control_c, 0, 64, 0
1, 1016023, Note_off_c, 0, 75, 69
1, 1016031, Note_off_c, 0, 38, 63
1, 1016049, Note_on_c, 0, 43, 72
1, 1016087, Note_off_c, 0, 43, 66
1, 1016161, Note_on_c, 0, 38, 87
1, 1016164, Note_on_c, 0, 78, 96
1, 1016164, Note_on_c, 0, 69, 91
1, 1016165, Note_on_c, 0, 66, 92
1, 1016217, Note_off_c, 0, 69, 60
1, 1016217, Note_off_c, 0, 66, 62
1, 1016217, Poly_aftertouch_c, 0, 66, 0
1, 1016226, Note_off_c, 0, 38, 61
1, 1016255, Note_on_c, 0, 50, 74
1, 1016263, Note_off_c, 0, 78, 64
1, 1016290, Note_off_c, 0, 50, 65
1, 1016290, Poly_aftertouch_c, 0, 50, 0
1, 1016372, Control_c, 0, 67, 8
1, 1016386, Note_on_c, 0, 79, 101
1, 1016389, Note_on_c, 0, 70, 98
1, 1016389, Note_on_c, 0, 67, 95
1, 1016392, Note_on_c, 0, 31, 89
1, 1016409, Control_c, 0, 67, 13
1, 1016448, Control_c, 0, 67, 21
1, 1016466, Control_c, 0, 64, 23
1, 1016467, Control_c, 0, 67, 27
1, 1016484, Control_c, 0, 64, 48
1, 1016485, Control_c, 0, 67, 34
1, 1016488, Note_off_c, 0, 31, 47
1, 1016505, Control_c, 0, 64, 67
1, 1016506, Control_c, 0, 67, 40
1, 1016515, Note_on_c, 0, 43, 69
1, 1016524, Control_c, 0, 64, 80
1, 1016525, Note_off_c, 0, 67, 60
1, 1016525, Control_c, 0, 67, 47
1, 1016539, Control_c, 0, 64, 92
1, 1016542, Control_c, 0, 67, 55
1, 1016554, Note_off_c, 0, 70, 63
1, 1016559, Control_c, 0, 64, 105
1, 1016560, Note_off_c, 0, 43, 63
1, 1016560, Control_c, 0, 67, 65
1, 1016577, Control_c, 0, 64, 116
1, 1016577, Control_c, 0, 67, 76
1, 1016597, Control_c, 0, 64, 123
1, 1016598, Control_c, 0, 67, 86
1, 1016600, Note_on_c, 0, 31, 65
1, 1016615, Control_c, 0, 67, 94
1, 1016635, Control_c, 0, 64, 127
1, 1016636, Control_c, 0, 67, 102
1, 1016650, Note_off_c, 0, 31, 62
1, 1016651, Control_c, 0, 67, 107
1, 1016667, Note_on_c, 0, 43, 68
1, 1016690, Control_c, 0, 67, 111
1, 1016708, Note_off_c, 0, 43, 65
1, 1016728, Control_c, 0, 64, 118
1, 1016729, Control_c, 0, 67, 118
1, 1016745, Control_c, 0, 64, 108
1, 1016746, Control_c, 0, 67, 123
1, 1016755, Note_off_c, 0, 79, 30
1, 1016755, Poly_aftertouch_c, 0, 79, 0
1, 1016757, Poly_aftertouch_c, 0, 33, 0
1, 1016764, Control_c, 0, 64, 93
1, 1016765, Control_c, 0, 67, 127
1, 1016776, Note_on_c, 0, 43, 78
1, 1016780, Note_on_c, 0, 70, 65
1, 1016783, Control_c, 0, 64, 76
1, 1016802, Control_c, 0, 64, 62
1, 1016820, Control_c, 0, 64, 52
1, 1016824, Note_off_c, 0, 43, 58
1, 1016841, Control_c, 0, 64, 41
1, 1016846, Note_off_c, 0, 70, 57
1, 1016858, Control_c, 0, 64, 23
1, 1016875, Control_c, 0, 64, 0
1, 1016877, Note_on_c, 0, 67, 64
1, 1016879, Note_on_c, 0, 50, 60
1, 1016923, Note_off_c, 0, 50, 62
1, 1016923, Poly_aftertouch_c, 0, 50, 0
1, 1016942, Note_off_c, 0, 67, 52
1, 1016967, Note_on_c, 0, 43, 59
1, 1016978, Note_on_c, 0, 70, 58
1, 1017005, Note_off_c, 0, 43, 64
1, 1017018, Note_off_c, 0, 70, 66
1, 1017041, Note_on_c, 0, 50, 54
1, 1017054, Note_on_c, 0, 67, 64
1, 1017092, Note_off_c, 0, 50, 62
1, 1017092, Poly_aftertouch_c, 0, 50, 0
1, 1017100, Note_off_c, 0, 67, 57
1, 1017100, Control_c, 0, 64, 9
1, 1017127, Note_on_c, 0, 70, 60
1, 1017129, Note_on_c, 0, 43, 54
1, 1017174, Note_off_c, 0, 70, 63
1, 1017182, Note_off_c, 0, 43, 61
1, 1017195, Control_c, 0, 64, 14
1, 1017210, Note_on_c, 0, 67, 67
1, 1017213, Note_on_c, 0, 50, 51
1, 1017232, Control_c, 0, 64, 18
1, 1017267, Note_off_c, 0, 50, 63
1, 1017267, Poly_aftertouch_c, 0, 50, 0
1, 1017273, Note_off_c, 0, 67, 55
1, 1017306, Note_on_c, 0, 72, 61
1, 1017306, Control_c, 0, 64, 23
1, 1017309, Note_on_c, 0, 43, 56
1, 1017353, Note_off_c, 0, 43, 63
1, 1017378, Note_on_c, 0, 50, 58
1, 1017392, Note_on_c, 0, 69, 68
1, 1017431, Note_off_c, 0, 50, 61
1, 1017431, Poly_aftertouch_c, 0, 50, 0
1, 1017439, Note_off_c, 0, 72, 53
1, 1017457, Control_c, 0, 67, 123
1, 1017475, Note_on_c, 0, 43, 58
1, 1017475, Control_c, 0, 64, 19
1, 1017475, Control_c, 0, 67, 118
1, 1017481, Note_on_c, 0, 74, 75
1, 1017486, Poly_aftertouch_c, 0, 72, 0
1, 1017493, Control_c, 0, 64, 11
1, 1017494, Control_c, 0, 67, 113
1, 1017512, Note_off_c, 0, 69, 59
1, 1017512, Control_c, 0, 64, 0
1, 1017513, Control_c, 0, 67, 106
1, 1017514, Note_off_c, 0, 43, 65
1, 1017527, Note_off_c, 0, 74, 60
1, 1017531, Control_c, 0, 67, 96
1, 1017545, Note_on_c, 0, 70, 7
1, 1017547, Control_c, 0, 67, 82
1, 1017552, Note_on_c, 0, 50, 60
1, 1017568, Control_c, 0, 67, 68
1, 1017587, Control_c, 0, 67, 57
1, 1017592, Note_off_c, 0, 70, 31
1, 1017607, Control_c, 0, 67, 51
1, 1017615, Note_off_c, 0, 50, 56
1, 1017615, Poly_aftertouch_c, 0, 50, 0
1, 1017642, Note_on_c, 0, 78, 91
1, 1017642, Control_c, 0, 67, 46
1, 1017645, Note_on_c, 0, 66, 83
1, 1017646, Note_on_c, 0, 69, 82
1, 1017651, Note_on_c, 0, 38, 80
1, 1017654, Note_on_c, 0, 70, 42
1, 1017671, Note_off_c, 0, 66, 75
1, 1017671, Poly_aftertouch_c, 0, 66, 0
1, 1017673, Note_off_c, 0, 69, 71
1, 1017689, Note_off_c, 0, 70, 59
1, 1017692, Note_off_c, 0, 78, 66
1, 1017721, Note_off_c, 0, 38, 60
1, 1017743, Note_on_c, 0, 50, 65
1, 1017794, Note_off_c, 0, 50, 59
1, 1017794, Poly_aftertouch_c, 0, 50, 0
1, 1017844, Note_on_c, 0, 79, 92
1, 1017847, Control_c, 0, 67, 50
1, 1017850, Note_on_c, 0, 43, 69
1, 1017855, Note_on_c, 0, 70, 71
1, 1017858, Note_on_c, 0, 67, 71
1, 1017887, Control_c, 0, 64, 8
1, 1017888, Control_c, 0, 67, 60
1, 1017891, Note_on_c, 0, 77, 40
1, 1017892, Note_off_c, 0, 77, 127
1, 1017908, Control_c, 0, 64, 33
1, 1017910, Control_c, 0, 67, 65
1, 1017911, Note_off_c, 0, 43, 61
1, 1017924, Control_c, 0, 64, 45
1, 1017925, Control_c, 0, 67, 70
1, 1017940, Note_on_c, 0, 50, 61
1, 1017942, Control_c, 0, 64, 52
1, 1017943, Control_c, 0, 67, 75
1, 1017961, Control_c, 0, 64, 56
1, 1017962, Control_c, 0, 67, 79
1, 1017980, Control_c, 0, 64, 61
1, 1018000, Control_c, 0, 64, 66
1, 1018001, Control_c, 0, 67, 85
1, 1018006, Note_off_c, 0, 50, 58
1, 1018006, Poly_aftertouch_c, 0, 50, 0
1, 1018017, Control_c, 0, 64, 70
1, 1018035, Control_c, 0, 64, 72
1, 1018043, Note_on_c, 0, 43, 64
1, 1018055, Control_c, 0, 67, 89
1, 1018079, Note_off_c, 0, 43, 64
1, 1018095, Note_off_c, 0, 70, 60
1, 1018107, Note_off_c, 0, 67, 52
1, 1018110, Control_c, 0, 64, 69
1, 1018111, Control_c, 0, 67, 94
1, 1018131, Note_on_c, 0, 50, 61
1, 1018131, Control_c, 0, 64, 66
1, 1018148, Control_c, 0, 64, 60
1, 1018150, Control_c, 0, 67, 100
1, 1018167, Control_c, 0, 64, 52
1, 1018168, Control_c, 0, 67, 105
1, 1018177, Note_off_c, 0, 50, 62
1, 1018177, Poly_aftertouch_c, 0, 50, 0
1, 1018184, Control_c, 0, 64, 40
1, 1018185, Control_c, 0, 67, 110
1, 1018205, Control_c, 0, 64, 18
1, 1018206, Control_c, 0, 67, 117
1, 1018221, Note_on_c, 0, 43, 54
1, 1018221, Control_c, 0, 64, 0
1, 1018222, Control_c, 0, 67, 121
1, 1018230, Note_off_c, 0, 79, 40
1, 1018230, Poly_aftertouch_c, 0, 79, 0
1, 1018238, Note_on_c, 0, 70, 61
1, 1018260, Control_c, 0, 67, 126
1, 1018261, Note_off_c, 0, 43, 64
1, 1018283, Note_off_c, 0, 70, 64
1, 1018286, Note_on_c, 0, 50, 60
1, 1018324, Note_on_c, 0, 67, 48
1, 1018333, Note_off_c, 0, 50, 63
1, 1018333, Poly_aftertouch_c, 0, 50, 0
1, 1018381, Note_on_c, 0, 41, 71
1, 1018400, Note_off_c, 0, 67, 52
1, 1018419, Note_on_c, 0, 70, 61
1, 1018468, Note_off_c, 0, 70, 64
1, 1018473, Note_off_c, 0, 41, 57
1, 1018491, Note_on_c, 0, 49, 59
1, 1018517, Note_on_c, 0, 67, 50
1, 1018532, Note_off_c, 0, 49, 58
1, 1018532, Poly_aftertouch_c, 0, 49, 0
1, 1018573, Note_off_c, 0, 67, 60
1, 1018581, Note_on_c, 0, 40, 68
1, 1018608, Note_on_c, 0, 70, 55
1, 1018632, Note_off_c, 0, 40, 57
1, 1018632, Poly_aftertouch_c, 0, 40, 0
1, 1018649, Note_off_c, 0, 70, 65
1, 1018670, Note_on_c, 0, 48, 56
1, 1018700, Note_on_c, 0, 67, 56
1, 1018716, Note_off_c, 0, 48, 64
1, 1018716, Poly_aftertouch_c, 0, 48, 0
1, 1018750, Note_off_c, 0, 67, 59
1, 1018763, Note_on_c, 0, 41, 46
1, 1018774, Note_on_c, 0, 70, 57
1, 1018805, Note_off_c, 0, 41, 55
1, 1018827, Note_off_c, 0, 70, 62
1, 1018849, Note_on_c, 0, 49, 62
1, 1018871, Poly_aftertouch_c, 0, 42, 0
1, 1018878, Note_on_c, 0, 67, 51
1, 1018894, Note_off_c, 0, 49, 63
1, 1018894, Poly_aftertouch_c, 0, 49, 0
1, 1018914, Control_c, 0, 67, 120
1, 1018933, Note_off_c, 0, 67, 46
1, 1018934, Control_c, 0, 67, 115
1, 1018946, Note_on_c, 0, 40, 54
1, 1018946, Note_on_c, 0, 70, 73
1, 1018952, Control_c, 0, 67, 108
1, 1018970, Control_c, 0, 67, 98
1, 1018989, Control_c, 0, 67, 86
1, 1018990, Note_off_c, 0, 40, 62
1, 1018990, Poly_aftertouch_c, 0, 40, 0
1, 1018995, Note_off_c, 0, 70, 58
1, 1019008, Control_c, 0, 67, 73
1, 1019021, Note_on_c, 0, 48, 67
1, 1019025, Control_c, 0, 67, 62
1, 1019045, Control_c, 0, 67, 54
1, 1019065, Control_c, 0, 67, 47
1, 1019084, Control_c, 0, 67, 41
1, 1019096, Note_off_c, 0, 48, 59
1, 1019096, Poly_aftertouch_c, 0, 48, 0
1, 1019121, Note_on_c, 0, 76, 88
1, 1019125, Note_on_c, 0, 67, 80
1, 1019128, Note_on_c, 0, 36, 72
1, 1019133, Note_on_c, 0, 70, 73
1, 1019163, Note_off_c, 0, 70, 71
1, 1019165, Note_off_c, 0, 67, 62
1, 1019175, Note_off_c, 0, 36, 65
1, 1019181, Note_off_c, 0, 76, 64
1, 1019225, Note_on_c, 0, 48, 54
1, 1019251, Control_c, 0, 67, 47
1, 1019271, Control_c, 0, 67, 52
1, 1019281, Note_off_c, 0, 48, 57
1, 1019281, Poly_aftertouch_c, 0, 48, 0
1, 1019289, Control_c, 0, 67, 58
1, 1019308, Control_c, 0, 67, 66
1, 1019317, Note_on_c, 0, 77, 85
1, 1019327, Control_c, 0, 67, 76
1, 1019329, Note_on_c, 0, 41, 68
1, 1019333, Note_on_c, 0, 68, 68
1, 1019339, Note_on_c, 0, 65, 63
1, 1019346, Control_c, 0, 67, 87
1, 1019364, Control_c, 0, 64, 28
1, 1019365, Control_c, 0, 67, 93
1, 1019382, Control_c, 0, 64, 43
1, 1019383, Control_c, 0, 67, 98
1, 1019391, Note_off_c, 0, 41, 59
1, 1019402, Control_c, 0, 64, 54
1, 1019403, Control_c, 0, 67, 105
1, 1019419, Control_c, 0, 64, 63
1, 1019420, Control_c, 0, 67, 111
1, 1019422, Note_on_c, 0, 48, 53
1, 1019439, Control_c, 0, 64, 67
1, 1019440, Control_c, 0, 67, 116
1, 1019459, Control_c, 0, 64, 69
1, 1019460, Control_c, 0, 67, 122
1, 1019476, Control_c, 0, 67, 127
1, 1019485, Note_off_c, 0, 48, 60
1, 1019485, Poly_aftertouch_c, 0, 48, 0
1, 1019493, Control_c, 0, 64, 73
1, 1019524, Note_on_c, 0, 41, 57
1, 1019531, Control_c, 0, 64, 75
1, 1019563, Note_off_c, 0, 41, 62
1, 1019584, Note_off_c, 0, 68, 62
1, 1019603, Note_off_c, 0, 65, 52
1, 1019604, Note_on_c, 0, 48, 61
1, 1019625, Control_c, 0, 64, 73
1, 1019644, Control_c, 0, 64, 71
1, 1019654, Note_off_c, 0, 48, 59
1, 1019654, Poly_aftertouch_c, 0, 48, 0
1, 1019662, Control_c, 0, 64, 69
1, 1019680, Control_c, 0, 64, 67
1, 1019686, Note_on_c, 0, 41, 59
1, 1019701, Control_c, 0, 64, 65
1, 1019709, Note_off_c, 0, 77, 38
1, 1019709, Note_on_c, 0, 68, 55
1, 1019716, Control_c, 0, 64, 63
1, 1019737, Control_c, 0, 64, 61
1, 1019743, Note_off_c, 0, 41, 58
1, 1019760, Note_off_c, 0, 68, 63
1, 1019774, Control_c, 0, 64, 60
1, 1019779, Note_on_c, 0, 48, 55
1, 1019780, Note_on_c, 0, 65, 57
1, 1019834, Note_off_c, 0, 48, 60
1, 1019834, Poly_aftertouch_c, 0, 48, 0
1, 1019869, Note_on_c, 0, 41, 63
1, 1019881, Note_off_c, 0, 65, 59
1, 1019884, Note_on_c, 0, 68, 62
1, 1019888, Control_c, 0, 64, 61
1, 1019920, Note_off_c, 0, 41, 60
1, 1019925, Control_c, 0, 64, 62
1, 1019930, Note_off_c, 0, 68, 65
1, 1019952, Note_on_c, 0, 48, 61
1, 1019961, Note_on_c, 0, 65, 54
1, 1019981, Control_c, 0, 64, 63
1, 1020004, Note_off_c, 0, 48, 60
1, 1020004, Poly_aftertouch_c, 0, 48, 0
1, 1020023, Note_off_c, 0, 65, 57
1, 1020036, Control_c, 0, 64, 64
1, 1020046, Note_on_c, 0, 41, 62
1, 1020051, Note_on_c, 0, 68, 67
1, 1020075, Control_c, 0, 64, 65
1, 1020090, Note_off_c, 0, 41, 60
1, 1020094, Note_off_c, 0, 68, 60
1, 1020130, Control_c, 0, 64, 66
1, 1020132, Note_on_c, 0, 48, 57
1, 1020137, Note_on_c, 0, 65, 61
1, 1020168, Control_c, 0, 64, 68
1, 1020177, Note_off_c, 0, 48, 64
1, 1020177, Poly_aftertouch_c, 0, 48, 0
1, 1020178, Note_off_c, 0, 65, 66
1, 1020204, Control_c, 0, 64, 70
1, 1020206, Control_c, 0, 67, 122
1, 1020209, Note_on_c, 0, 70, 70
1, 1020212, Note_on_c, 0, 41, 58
1, 1020224, Control_c, 0, 67, 118
1, 1020242, Control_c, 0, 67, 114
1, 1020255, Note_off_c, 0, 41, 62
1, 1020260, Control_c, 0, 64, 73
1, 1020261, Control_c, 0, 67, 108
1, 1020279, Control_c, 0, 67, 101
1, 1020282, Note_on_c, 0, 48, 66
1, 1020287, Note_on_c, 0, 67, 69
1, 1020290, Note_off_c, 0, 70, 63
1, 1020298, Control_c, 0, 67, 94
1, 1020318, Control_c, 0, 64, 75
1, 1020320, Control_c, 0, 67, 84
1, 1020335, Control_c, 0, 67, 74
1, 1020355, Control_c, 0, 67, 62
1, 1020374, Control_c, 0, 67, 51
1, 1020377, Note_off_c, 0, 48, 60
1, 1020377, Note_on_c, 0, 41, 65
1, 1020377, Poly_aftertouch_c, 0, 48, 0
1, 1020383, Note_on_c, 0, 72, 69
1, 1020392, Control_c, 0, 67, 42
1, 1020410, Note_on_c, 0, 68, 64
1, 1020411, Control_c, 0, 64, 73
1, 1020412, Control_c, 0, 67, 36
1, 1020418, Note_off_c, 0, 67, 60
1, 1020422, Note_off_c, 0, 41, 61
1, 1020429, Control_c, 0, 64, 70
1, 1020430, Control_c, 0, 67, 31
1, 1020444, Note_off_c, 0, 68, 68
1, 1020446, Note_off_c, 0, 72, 61
1, 1020448, Control_c, 0, 64, 65
1, 1020466, Note_on_c, 0, 48, 59
1, 1020467, Control_c, 0, 64, 57
1, 1020486, Control_c, 0, 64, 46
1, 1020503, Control_c, 0, 64, 30
1, 1020523, Control_c, 0, 64, 0
1, 1020553, Note_off_c, 0, 48, 58
1, 1020553, Poly_aftertouch_c, 0, 48, 0
1, 1020560, Note_on_c, 0, 76, 88
1, 1020571, Note_on_c, 0, 36, 73
1, 1020576, Note_on_c, 0, 67, 71
1, 1020583, Note_on_c, 0, 70, 70
1, 1020616, Control_c, 0, 64, 28
1, 1020633, Note_off_c, 0, 36, 57
1, 1020634, Control_c, 0, 64, 47
1, 1020634, Control_c, 0, 67, 39
1, 1020654, Control_c, 0, 64, 63
1, 1020654, Control_c, 0, 67, 45
1, 1020669, Note_on_c, 0, 48, 58
1, 1020670, Note_off_c, 0, 67, 61
1, 1020672, Control_c, 0, 64, 72
1, 1020673, Control_c, 0, 67, 52
1, 1020682, Note_off_c, 0, 76, 65
1, 1020691, Control_c, 0, 67, 60
1, 1020695, Note_off_c, 0, 70, 63
1, 1020710, Control_c, 0, 67, 67
1, 1020729, Control_c, 0, 64, 70
1, 1020730, Control_c, 0, 67, 71
1, 1020747, Control_c, 0, 64, 65
1, 1020751, Note_off_c, 0, 48, 56
1, 1020751, Poly_aftertouch_c, 0, 48, 0
1, 1020766, Control_c, 0, 64, 58
1, 1020768, Control_c, 0, 67, 77
1, 1020769, Note_on_c, 0, 77, 80
1, 1020774, Note_on_c, 0, 41, 64
1, 1020785, Control_c, 0, 64, 46
1, 1020785, Control_c, 0, 67, 82
1, 1020791, Note_on_c, 0, 68, 62
1, 1020796, Note_on_c, 0, 65, 60
1, 1020803, Control_c, 0, 64, 26
1, 1020804, Control_c, 0, 67, 86
1, 1020822, Control_c, 0, 64, 0
1, 1020824, Control_c, 0, 67, 91
1, 1020834, Note_off_c, 0, 41, 58
1, 1020839, Control_c, 0, 67, 95
1, 1020860, Control_c, 0, 67, 99
1, 1020877, Note_on_c, 0, 48, 57
1, 1020896, Control_c, 0, 67, 104
1, 1020936, Note_off_c, 0, 48, 58
1, 1020936, Poly_aftertouch_c, 0, 48, 0
1, 1020960, Note_on_c, 0, 41, 63
1, 1020972, Control_c, 0, 64, 23
1, 1020990, Control_c, 0, 64, 34
1, 1021009, Control_c, 0, 64, 44
1, 1021014, Note_off_c, 0, 41, 58
1, 1021028, Control_c, 0, 64, 52
1, 1021031, Note_off_c, 0, 65, 53
1, 1021036, Note_off_c, 0, 68, 62
1, 1021046, Control_c, 0, 64, 56
1, 1021053, Note_on_c, 0, 48, 65
1, 1021084, Control_c, 0, 64, 54
1, 1021102, Control_c, 0, 64, 52
1, 1021112, Note_off_c, 0, 48, 57
1, 1021112, Poly_aftertouch_c, 0, 48, 0
1, 1021118, Note_off_c, 0, 77, 39
1, 1021146, Note_on_c, 0, 41, 61
1, 1021160, Note_on_c, 0, 68, 55
1, 1021194, Note_off_c, 0, 41, 61
1, 1021216, Note_off_c, 0, 68, 63
1, 1021233, Control_c, 0, 64, 45
1, 1021238, Note_on_c, 0, 65, 54
1, 1021254, Note_on_c, 0, 48, 45
1, 1021254, Control_c, 0, 64, 34
1, 1021271, Control_c, 0, 64, 20
1, 1021288, Note_off_c, 0, 48, 52
1, 1021288, Poly_aftertouch_c, 0, 48, 0
1, 1021314, Note_on_c, 0, 39, 74
1, 1021320, Note_off_c, 0, 65, 54
1, 1021351, Note_on_c, 0, 68, 58
1, 1021385, Note_off_c, 0, 39, 57
1, 1021395, Note_off_c, 0, 68, 65
1, 1021421, Note_on_c, 0, 47, 53
1, 1021434, Note_on_c, 0, 65, 55
1, 1021455, Note_off_c, 0, 47, 56
1, 1021455, Poly_aftertouch_c, 0, 47, 0
1, 1021478, Note_on_c, 0, 38, 71
1, 1021496, Note_off_c, 0, 65, 56
1, 1021510, Note_on_c, 0, 68, 61
1, 1021544, Note_off_c, 0, 38, 59
1, 1021561, Note_off_c, 0, 68, 61
1, 1021574, Note_on_c, 0, 46, 71
1, 1021588, Control_c, 0, 64, 0
1, 1021603, Note_on_c, 0, 65, 52
1, 1021627, Note_off_c, 0, 46, 58
1, 1021654, Note_off_c, 0, 65, 49
1, 1021661, Note_on_c, 0, 39, 71
1, 1021663, Control_c, 0, 67, 100
1, 1021687, Note_on_c, 0, 68, 64
1, 1021713, Note_off_c, 0, 39, 61
1, 1021718, Control_c, 0, 67, 94
1, 1021738, Control_c, 0, 67, 89
1, 1021742, Note_off_c, 0, 68, 59
1, 1021757, Control_c, 0, 64, 15
1, 1021759, Control_c, 0, 67, 81
1, 1021763, Note_on_c, 0, 47, 57
1, 1021766, Note_on_c, 0, 65, 62
1, 1021776, Control_c, 0, 64, 21
1, 1021777, Control_c, 0, 67, 70
1, 1021794, Control_c, 0, 64, 29
1, 1021795, Control_c, 0, 67, 57
1, 1021804, Note_off_c, 0, 47, 63
1, 1021804, Poly_aftertouch_c, 0, 47, 0
1, 1021812, Control_c, 0, 64, 36
1, 1021815, Control_c, 0, 67, 44
1, 1021831, Note_off_c, 0, 65, 51
1, 1021831, Control_c, 0, 64, 45
1, 1021832, Note_on_c, 0, 38, 62
1, 1021832, Control_c, 0, 67, 30
1, 1021850, Control_c, 0, 64, 51
1, 1021852, Control_c, 0, 67, 9
1, 1021861, Note_on_c, 0, 68, 66
1, 1021869, Control_c, 0, 64, 54
1, 1021870, Control_c, 0, 67, 0
1, 1021884, Note_off_c, 0, 38, 64
1, 1021888, Control_c, 0, 64, 51
1, 1021906, Note_off_c, 0, 68, 62
1, 1021906, Control_c, 0, 64, 42
1, 1021925, Control_c, 0, 64, 0
1, 1021945, Note_on_c, 0, 65, 40
1, 1021951, Note_on_c, 0, 46, 58
1, 1021984, Note_off_c, 0, 65, 50
1, 1022006, Note_off_c, 0, 46, 61
1, 1022027, Note_on_c, 0, 74, 83
1, 1022038, Control_c, 0, 67, 9
1, 1022042, Note_on_c, 0, 68, 71
1, 1022043, Note_on_c, 0, 65, 74
1, 1022045, Note_on_c, 0, 34, 78
1, 1022056, Control_c, 0, 67, 15
1, 1022074, Control_c, 0, 67, 23
1, 1022094, Control_c, 0, 67, 36
1, 1022102, Note_off_c, 0, 65, 59
1, 1022109, Note_off_c, 0, 74, 63
1, 1022111, Control_c, 0, 64, 12
1, 1022113, Control_c, 0, 67, 50
1, 1022128, Note_off_c, 0, 34, 59
1, 1022131, Control_c, 0, 64, 35
1, 1022133, Control_c, 0, 67, 62
1, 1022140, Note_on_c, 0, 46, 63
1, 1022145, Note_off_c, 0, 68, 33
1, 1022151, Control_c, 0, 64, 46
1, 1022152, Control_c, 0, 67, 69
1, 1022187, Control_c, 0, 64, 39
1, 1022188, Control_c, 0, 67, 77
1, 1022205, Control_c, 0, 64, 25
1, 1022210, Note_off_c, 0, 46, 55
1, 1022225, Control_c, 0, 64, 0
1, 1022226, Control_c, 0, 67, 85
1, 1022243, Note_on_c, 0, 39, 65
1, 1022243, Control_c, 0, 67, 95
1, 1022245, Note_on_c, 0, 75, 74
1, 1022255, Note_on_c, 0, 67, 66
1, 1022260, Control_c, 0, 67, 115
1, 1022266, Note_on_c, 0, 63, 63
1, 1022280, Control_c, 0, 67, 127
1, 1022298, Note_off_c, 0, 39, 62
1, 1022342, Note_on_c, 0, 46, 57
1, 1022384, Note_off_c, 0, 46, 62
1, 1022427, Note_off_c, 0, 63, 55
1, 1022427, Poly_aftertouch_c, 0, 63, 0
1, 1022440, Note_off_c, 0, 67, 52
1, 1022440, Note_on_c, 0, 39, 54
1, 1022448, Control_c, 0, 64, 26
1, 1022467, Control_c, 0, 64, 41
1, 1022480, Note_off_c, 0, 39, 60
1, 1022485, Control_c, 0, 64, 50
1, 1022492, Note_off_c, 0, 75, 54
1, 1022505, Control_c, 0, 64, 56
1, 1022514, Note_on_c, 0, 46, 57
1, 1022525, Control_c, 0, 64, 63
1, 1022542, Control_c, 0, 64, 67
1, 1022596, Note_off_c, 0, 46, 58
1, 1022622, Note_on_c, 0, 67, 56
1, 1022637, Control_c, 0, 64, 65
1, 1022654, Control_c, 0, 64, 63
1, 1022672, Control_c, 0, 64, 60
1, 1022692, Control_c, 0, 64, 58
1, 1022713, Note_on_c, 0, 63, 54
1, 1022718, Note_off_c, 0, 67, 60
1, 1022784, Note_off_c, 0, 63, 56
1, 1022784, Poly_aftertouch_c, 0, 63, 0
1, 1022790, Note_on_c, 0, 67, 44
1, 1022885, Note_off_c, 0, 67, 62
1, 1022912, Note_on_c, 0, 63, 58
1, 1022916, Control_c, 0, 64, 60
1, 1022959, Note_off_c, 0, 63, 64
1, 1022959, Poly_aftertouch_c, 0, 63, 0
1, 1022974, Note_on_c, 0, 67, 46
1, 1022991, Control_c, 0, 64, 61
1, 1023009, Control_c, 0, 64, 62
1, 1023039, Note_off_c, 0, 67, 61
1, 1023047, Control_c, 0, 64, 63
1, 1023061, Note_on_c, 0, 63, 58
1, 1023084, Control_c, 0, 64, 64
1, 1023109, Note_off_c, 0, 63, 58
1, 1023109, Poly_aftertouch_c, 0, 63, 0
1, 1023152, Note_on_c, 0, 68, 61
1, 1023229, Note_on_c, 0, 65, 58
1, 1023243, Note_off_c, 0, 68, 56
1, 1023311, Note_off_c, 0, 65, 41
1, 1023332, Note_on_c, 0, 69, 61
1, 1023453, Note_off_c, 0, 69, 57
1, 1023464, Poly_aftertouch_c, 0, 66, 127
1, 1023478, Note_on_c, 0, 70, 58
1, 1023487, Poly_aftertouch_c, 0, 66, 0
1, 1023583, Note_on_c, 0, 67, 54
1, 1023677, Note_off_c, 0, 67, 55
1, 1023689, Note_on_c, 0, 71, 53
1, 1023724, Note_off_c, 0, 70, 38
1, 1023725, Poly_aftertouch_c, 0, 70, 0
1, 1023757, Control_c, 0, 64, 65
1, 1023765, Note_off_c, 0, 71, 56
1, 1023779, Note_on_c, 0, 68, 52
1, 1023815, Control_c, 0, 64, 66
1, 1023857, Note_on_c, 0, 72, 49
1, 1023860, Note_off_c, 0, 68, 56
1, 1023870, Control_c, 0, 64, 67
1, 1023904, Note_off_c, 0, 72, 58
1, 1023954, Note_on_c, 0, 69, 58
1, 1024026, Note_on_c, 0, 73, 64
1, 1024039, Control_c, 0, 64, 68
1, 1024040, Note_off_c, 0, 69, 54
1, 1024112, Note_off_c, 0, 73, 62
1, 1024117, Note_on_c, 0, 70, 62
1, 1024201, Note_off_c, 0, 70, 58
1, 1024203, Note_on_c, 0, 74, 59
1, 1024254, Note_off_c, 0, 74, 59
1, 1024304, Note_on_c, 0, 71, 50
1, 1024364, Note_off_c, 0, 71, 55
1, 1024367, Note_on_c, 0, 75, 59
1, 1024412, Control_c, 0, 64, 67
1, 1024462, Note_on_c, 0, 72, 49
1, 1024467, Note_off_c, 0, 75, 51
1, 1024506, Control_c, 0, 64, 66
1, 1024545, Note_on_c, 0, 74, 64
1, 1024561, Note_off_c, 0, 72, 55
1, 1024606, Note_off_c, 0, 74, 60
1, 1024637, Note_on_c, 0, 71, 58
1, 1024722, Note_off_c, 0, 71, 48
1, 1024728, Note_on_c, 0, 75, 61
1, 1024786, Control_c, 0, 64, 65
1, 1024792, Note_off_c, 0, 75, 54
1, 1024832, Note_on_c, 0, 72, 51
1, 1024842, Control_c, 0, 64, 64
1, 1024861, Control_c, 0, 64, 63
1, 1024879, Control_c, 0, 64, 62
1, 1024898, Control_c, 0, 64, 61
1, 1024910, Note_off_c, 0, 72, 54
1, 1024920, Note_on_c, 0, 74, 58
1, 1024935, Control_c, 0, 64, 60
1, 1024962, Note_off_c, 0, 74, 64
1, 1025000, Note_on_c, 0, 71, 50
1, 1025087, Note_off_c, 0, 71, 45
1, 1025093, Note_on_c, 0, 75, 54
1, 1025160, Note_off_c, 0, 75, 59
1, 1025196, Note_on_c, 0, 72, 48
1, 1025261, Note_off_c, 0, 72, 56
1, 1025277, Note_on_c, 0, 74, 54
1, 1025304, Note_off_c, 0, 74, 62
1, 1025346, Note_on_c, 0, 71, 58
1, 1025413, Note_off_c, 0, 71, 51
1, 1025445, Note_on_c, 0, 75, 69
1, 1025495, Note_off_c, 0, 75, 55
1, 1025545, Note_on_c, 0, 72, 50
1, 1025591, Note_off_c, 0, 72, 59
1, 1025630, Note_on_c, 0, 77, 63
1, 1025666, Note_off_c, 0, 77, 65
1, 1025683, Control_c, 0, 64, 58
1, 1025719, Note_on_c, 0, 69, 57
1, 1025770, Note_off_c, 0, 69, 54
1, 1025822, Note_on_c, 0, 73, 49
1, 1025851, Note_off_c, 0, 73, 59
1, 1025882, Note_on_c, 0, 70, 60
1, 1025928, Note_off_c, 0, 70, 60
1, 1025973, Note_on_c, 0, 75, 65
1, 1026061, Note_off_c, 0, 75, 61
1, 1026075, Note_on_c, 0, 67, 50
1, 1026076, Control_c, 0, 64, 56
1, 1026143, Note_on_c, 0, 72, 55
1, 1026153, Note_off_c, 0, 67, 53
1, 1026171, Note_off_c, 0, 72, 59
1, 1026223, Note_on_c, 0, 68, 57
1, 1026264, Control_c, 0, 64, 54
1, 1026276, Note_off_c, 0, 68, 60
1, 1026300, Note_on_c, 0, 73, 66
1, 1026377, Note_off_c, 0, 73, 53
1, 1026395, Note_on_c, 0, 65, 50
1, 1026455, Note_off_c, 0, 65, 49
1, 1026470, Note_on_c, 0, 70, 66
1, 1026487, Control_c, 0, 64, 52
1, 1026522, Note_off_c, 0, 70, 54
1, 1026543, Control_c, 0, 64, 49
1, 1026568, Note_on_c, 0, 67, 62
1, 1026600, Control_c, 0, 64, 47
1, 1026615, Note_off_c, 0, 67, 61
1, 1026636, Note_on_c, 0, 72, 59
1, 1026683, Note_off_c, 0, 72, 62
1, 1026719, Note_on_c, 0, 64, 62
1, 1026731, Control_c, 0, 64, 45
1, 1026802, Note_on_c, 0, 68, 59
1, 1026820, Note_off_c, 0, 64, 52
1, 1026856, Note_off_c, 0, 68, 63
1, 1026887, Note_on_c, 0, 65, 59
1, 1026945, Note_off_c, 0, 65, 57
1, 1026986, Note_on_c, 0, 70, 60
1, 1027034, Note_off_c, 0, 70, 64
1, 1027047, Note_on_c, 0, 62, 56
1, 1027107, Note_on_c, 0, 51, 73
1, 1027141, Note_on_c, 0, 67, 57
1, 1027146, Note_off_c, 0, 62, 50
1, 1027180, Control_c, 0, 67, 119
1, 1027196, Note_off_c, 0, 67, 60
1, 1027199, Control_c, 0, 67, 112
1, 1027218, Control_c, 0, 67, 104
1, 1027231, Note_on_c, 0, 63, 59
1, 1027237, Control_c, 0, 67, 94
1, 1027254, Control_c, 0, 67, 84
1, 1027273, Control_c, 0, 67, 76
1, 1027278, Note_off_c, 0, 63, 62
1, 1027278, Poly_aftertouch_c, 0, 63, 0
1, 1027291, Control_c, 0, 67, 69
1, 1027310, Control_c, 0, 67, 63
1, 1027314, Note_on_c, 0, 62, 58
1, 1027330, Control_c, 0, 67, 58
1, 1027347, Control_c, 0, 64, 47
1, 1027348, Control_c, 0, 67, 54
1, 1027400, Note_on_c, 0, 63, 59
1, 1027402, Control_c, 0, 64, 49
1, 1027403, Note_off_c, 0, 62, 57
1, 1027479, Note_off_c, 0, 63, 58
1, 1027479, Poly_aftertouch_c, 0, 63, 0
1, 1027479, Control_c, 0, 64, 51
1, 1027491, Note_on_c, 0, 67, 60
1, 1027516, Control_c, 0, 64, 53
1, 1027529, Note_on_c, 0, 61, 54
1, 1027553, Control_c, 0, 67, 59
1, 1027591, Control_c, 0, 64, 55
1, 1027592, Control_c, 0, 67, 64
1, 1027614, Note_off_c, 0, 67, 61
1, 1027625, Note_on_c, 0, 63, 60
1, 1027628, Control_c, 0, 64, 58
1, 1027629, Control_c, 0, 67, 71
1, 1027646, Control_c, 0, 64, 60
1, 1027666, Control_c, 0, 64, 62
1, 1027667, Control_c, 0, 67, 76
1, 1027674, Note_off_c, 0, 61, 63
1, 1027681, Note_on_c, 0, 68, 54
1, 1027682, Note_off_c, 0, 63, 56
1, 1027682, Poly_aftertouch_c, 0, 63, 0
1, 1027684, Control_c, 0, 64, 63
1, 1027689, Note_on_c, 0, 60, 49
1, 1027703, Control_c, 0, 64, 65
1, 1027721, Control_c, 0, 64, 66
1, 1027759, Control_c, 0, 64, 67
1, 1027787, Note_on_c, 0, 63, 61
1, 1027834, Control_c, 0, 64, 69
1, 1027843, Note_off_c, 0, 60, 59
1, 1027843, Poly_aftertouch_c, 0, 60, 0
1, 1027853, Note_on_c, 0, 58, 60
1, 1027868, Note_on_c, 0, 70, 69
1, 1027871, Note_off_c, 0, 63, 59
1, 1027871, Poly_aftertouch_c, 0, 63, 0
1, 1027909, Control_c, 0, 67, 72
1, 1027939, Note_off_c, 0, 68, 44
1, 1027948, Note_off_c, 0, 70, 63
1, 1027957, Note_on_c, 0, 63, 56
1, 1028008, Note_off_c, 0, 58, 59
1, 1028027, Note_on_c, 0, 56, 61
1, 1028049, Note_off_c, 0, 63, 60
1, 1028049, Poly_aftertouch_c, 0, 63, 0
1, 1028051, Note_on_c, 0, 72, 67
1, 1028128, Note_off_c, 0, 72, 62
1, 1028128, Note_on_c, 0, 63, 57
1, 1028163, Note_off_c, 0, 56, 57
1, 1028163, Poly_aftertouch_c, 0, 56, 0
1, 1028208, Note_off_c, 0, 63, 60
1, 1028208, Note_on_c, 0, 55, 57
1, 1028208, Poly_aftertouch_c, 0, 63, 0
1, 1028231, Note_on_c, 0, 73, 77
1, 1028246, Control_c, 0, 67, 67
1, 1028283, Control_c, 0, 67, 62
1, 1028294, Note_off_c, 0, 51, 58
1, 1028294, Poly_aftertouch_c, 0, 51, 0
1, 1028301, Note_off_c, 0, 73, 64
1, 1028305, Note_on_c, 0, 63, 67
1, 1028320, Control_c, 0, 67, 56
1, 1028357, Control_c, 0, 67, 51
1, 1028381, Note_off_c, 0, 63, 61
1, 1028381, Poly_aftertouch_c, 0, 63, 0
1, 1028394, Note_on_c, 0, 53, 55
1, 1028395, Note_off_c, 0, 55, 58
1, 1028395, Poly_aftertouch_c, 0, 55, 0
1, 1028396, Note_on_c, 0, 74, 77
1, 1028414, Control_c, 0, 67, 47
1, 1028451, Control_c, 0, 67, 42
1, 1028469, Control_c, 0, 67, 37
1, 1028470, Note_off_c, 0, 74, 63
1, 1028485, Note_on_c, 0, 63, 67
1, 1028488, Control_c, 0, 67, 33
1, 1028507, Control_c, 0, 67, 27
1, 1028524, Note_off_c, 0, 53, 57
1, 1028526, Control_c, 0, 67, 22
1, 1028540, Note_off_c, 0, 63, 61
1, 1028540, Poly_aftertouch_c, 0, 63, 0
1, 1028544, Control_c, 0, 67, 17
1, 1028563, Control_c, 0, 67, 11
1, 1028578, Note_on_c, 0, 75, 79
1, 1028581, Note_on_c, 0, 51, 63
1, 1028649, Note_on_c, 0, 63, 66
1, 1028652, Note_off_c, 0, 75, 64
1, 1028669, Note_off_c, 0, 51, 50
1, 1028669, Poly_aftertouch_c, 0, 51, 0
1, 1028675, Control_c, 0, 67, 0
1, 1028721, Note_off_c, 0, 63, 59
1, 1028721, Poly_aftertouch_c, 0, 63, 0
1, 1028759, Note_on_c, 0, 67, 71
1, 1028769, Note_on_c, 0, 75, 76
1, 1028769, Control_c, 0, 64, 68
1, 1028774, Note_on_c, 0, 49, 69
1, 1028789, Control_c, 0, 64, 65
1, 1028806, Control_c, 0, 64, 62
1, 1028818, Note_off_c, 0, 67, 61
1, 1028821, Note_off_c, 0, 75, 59
1, 1028824, Control_c, 0, 64, 58
1, 1028825, Note_off_c, 0, 49, 54
1, 1028825, Poly_aftertouch_c, 0, 49, 0
1, 1028842, Note_on_c, 0, 63, 78
1, 1028842, Control_c, 0, 64, 53
1, 1028862, Control_c, 0, 64, 48
1, 1028882, Control_c, 0, 64, 40
1, 1028899, Control_c, 0, 64, 27
1, 1028912, Note_off_c, 0, 63, 57
1, 1028912, Poly_aftertouch_c, 0, 63, 0
1, 1028917, Control_c, 0, 64, 0
1, 1028941, Note_on_c, 0, 75, 82
1, 1028944, Note_on_c, 0, 48, 58
1, 1028944, Note_on_c, 0, 68, 78
1, 1028985, Note_off_c, 0, 48, 65
1, 1028985, Poly_aftertouch_c, 0, 48, 0
1, 1029015, Note_off_c, 0, 68, 61
1, 1029027, Note_off_c, 0, 75, 60
1, 1029038, Note_on_c, 0, 63, 71
1, 1029087, Note_off_c, 0, 63, 55
1, 1029087, Poly_aftertouch_c, 0, 63, 0
1, 1029126, Note_on_c, 0, 72, 70
1, 1029126, Note_on_c, 0, 75, 73
1, 1029130, Note_on_c, 0, 68, 61
1, 1029134, Note_on_c, 0, 44, 64
1, 1029166, Note_off_c, 0, 68, 66
1, 1029173, Note_off_c, 0, 44, 64
1, 1029195, Note_off_c, 0, 72, 61
1, 1029196, Note_off_c, 0, 75, 64
1, 1029205, Note_on_c, 0, 63, 73
1, 1029292, Note_on_c, 0, 70, 80
1, 1029295, Note_on_c, 0, 67, 73
1, 1029298, Note_off_c, 0, 63, 60
1, 1029298, Poly_aftertouch_c, 0, 63, 0
1, 1029302, Note_on_c, 0, 75, 82
1, 1029313, Note_on_c, 0, 51, 69
1, 1029349, Control_c, 0, 67, 9
1, 1029353, Note_off_c, 0, 51, 64
1, 1029353, Poly_aftertouch_c, 0, 51, 0
1, 1029362, Note_off_c, 0, 67, 59
1, 1029370, Note_off_c, 0, 75, 65
1, 1029386, Control_c, 0, 67, 17
1, 1029396, Note_off_c, 0, 70, 60
1, 1029398, Note_on_c, 0, 63, 79
1, 1029423, Control_c, 0, 67, 23
1, 1029461, Control_c, 0, 64, 29
1, 1029463, Control_c, 0, 67, 30
1, 1029470, Note_off_c, 0, 63, 63
1, 1029470, Poly_aftertouch_c, 0, 63, 0
1, 1029475, Note_on_c, 0, 70, 65
1, 1029478, Note_on_c, 0, 39, 66
1, 1029480, Control_c, 0, 64, 59
1, 1029481, Control_c, 0, 67, 37
1, 1029485, Note_on_c, 0, 75, 86
1, 1029497, Control_c, 0, 64, 72
1, 1029498, Control_c, 0, 67, 50
1, 1029511, Note_off_c, 0, 39, 62
1, 1029516, Control_c, 0, 64, 78
1, 1029517, Control_c, 0, 67, 66
1, 1029528, Note_off_c, 0, 70, 62
1, 1029535, Control_c, 0, 64, 84
1, 1029537, Control_c, 0, 67, 81
1, 1029555, Control_c, 0, 64, 90
1, 1029556, Control_c, 0, 67, 93
1, 1029572, Note_on_c, 0, 63, 48
1, 1029572, Control_c, 0, 64, 97
1, 1029573, Control_c, 0, 67, 104
1, 1029580, Note_off_c, 0, 75, 63
1, 1029592, Control_c, 0, 64, 101
1, 1029593, Control_c, 0, 67, 113
1, 1029608, Note_off_c, 0, 63, 57
1, 1029608, Poly_aftertouch_c, 0, 63, 0
1, 1029629, Control_c, 0, 67, 117
1, 1029667, Control_c, 0, 64, 95
1, 1029685, Control_c, 0, 64, 90
1, 1029690, Note_on_c, 0, 63, 73
1, 1029694, Note_on_c, 0, 72, 74
1, 1029703, Control_c, 0, 64, 81
1, 1029722, Control_c, 0, 64, 70
1, 1029742, Control_c, 0, 64, 60
1, 1029752, Note_off_c, 0, 63, 57
1, 1029752, Poly_aftertouch_c, 0, 63, 0
1, 1029759, Control_c, 0, 64, 52
1, 1029775, Note_on_c, 0, 75, 81
1, 1029778, Control_c, 0, 64, 44
1, 1029798, Note_off_c, 0, 72, 59
1, 1029798, Control_c, 0, 64, 33
1, 1029803, Note_on_c, 0, 60, 47
1, 1029817, Control_c, 0, 64, 21
1, 1029834, Control_c, 0, 64, 9
1, 1029837, Note_off_c, 0, 60, 55
1, 1029837, Poly_aftertouch_c, 0, 60, 0
1, 1029848, Note_off_c, 0, 75, 65
1, 1029852, Control_c, 0, 64, 0
1, 1029868, Note_on_c, 0, 65, 60
1, 1029871, Note_on_c, 0, 69, 77
1, 1029909, Control_c, 0, 67, 113
1, 1029917, Note_off_c, 0, 65, 61
1, 1029948, Note_on_c, 0, 57, 67
1, 1029950, Note_on_c, 0, 77, 80
1, 1029972, Note_off_c, 0, 69, 57
1, 1030010, Note_off_c, 0, 57, 59
1, 1030010, Poly_aftertouch_c, 0, 57, 0
1, 1030036, Note_on_c, 0, 70, 82
1, 1030043, Note_off_c, 0, 77, 61
1, 1030057, Note_on_c, 0, 61, 63
1, 1030094, Note_off_c, 0, 61, 66
1, 1030131, Note_on_c, 0, 73, 78
1, 1030138, Note_on_c, 0, 58, 58
1, 1030168, Note_off_c, 0, 70, 60
1, 1030179, Note_off_c, 0, 58, 65
1, 1030185, Note_off_c, 0, 73, 63
1, 1030210, Note_on_c, 0, 63, 64
1, 1030222, Note_on_c, 0, 67, 69
1, 1030253, Note_off_c, 0, 63, 62
1, 1030253, Poly_aftertouch_c, 0, 63, 0
1, 1030297, Note_on_c, 0, 75, 79
1, 1030300, Note_on_c, 0, 55, 60
1, 1030329, Note_off_c, 0, 67, 60
1, 1030355, Note_off_c, 0, 55, 60
1, 1030355, Poly_aftertouch_c, 0, 55, 0
1, 1030382, Note_on_c, 0, 68, 75
1, 1030389, Note_on_c, 0, 60, 63
1, 1030447, Note_off_c, 0, 60, 59
1, 1030447, Poly_aftertouch_c, 0, 60, 0
1, 1030465, Note_on_c, 0, 72, 73
1, 1030476, Note_on_c, 0, 56, 58
1, 1030490, Note_off_c, 0, 75, 37
1, 1030492, Note_off_c, 0, 68, 61
1, 1030513, Note_on_c, 0, 73, 14
1, 1030514, Note_off_c, 0, 73, 127
1, 1030524, Note_off_c, 0, 56, 62
1, 1030524, Poly_aftertouch_c, 0, 56, 0
1, 1030548, Note_off_c, 0, 72, 61
1, 1030550, Note_on_c, 0, 61, 69
1, 1030561, Note_on_c, 0, 65, 70
1, 1030597, Note_off_c, 0, 61, 60
1, 1030644, Note_on_c, 0, 53, 61
1, 1030656, Note_off_c, 0, 65, 57
1, 1030682, Poly_aftertouch_c, 0, 73, 127
1, 1030721, Note_off_c, 0, 53, 57
1, 1030734, Note_on_c, 0, 67, 69
1, 1030739, Note_on_c, 0, 58, 64
1, 1030760, Poly_aftertouch_c, 0, 73, 0
1, 1030797, Note_off_c, 0, 58, 58
1, 1030805, Note_on_c, 0, 70, 80
1, 1030815, Note_on_c, 0, 55, 60
1, 1030824, Note_off_c, 0, 67, 57
1, 1030854, Note_off_c, 0, 55, 63
1, 1030854, Poly_aftertouch_c, 0, 55, 0
1, 1030872, Note_off_c, 0, 70, 66
1, 1030898, Note_on_c, 0, 64, 75
1, 1030904, Note_on_c, 0, 60, 68
1, 1030966, Note_off_c, 0, 60, 57
1, 1030966, Poly_aftertouch_c, 0, 60, 0
1, 1030977, Note_on_c, 0, 52, 61
1, 1030981, Note_on_c, 0, 72, 74
1, 1031004, Note_off_c, 0, 64, 59
1, 1031037, Note_off_c, 0, 52, 59
1, 1031056, Note_on_c, 0, 65, 80
1, 1031062, Note_on_c, 0, 56, 73
1, 1031068, Note_off_c, 0, 72, 62
1, 1031116, Note_off_c, 0, 56, 58
1, 1031116, Poly_aftertouch_c, 0, 56, 0
1, 1031148, Note_on_c, 0, 53, 53
1, 1031150, Note_on_c, 0, 68, 81
1, 1031163, Note_off_c, 0, 65, 62
1, 1031202, Note_off_c, 0, 53, 62
1, 1031209, Note_off_c, 0, 68, 64
1, 1031215, Note_on_c, 0, 58, 67
1, 1031243, Note_on_c, 0, 62, 69
1, 1031256, Note_off_c, 0, 58, 64
1, 1031325, Note_on_c, 0, 70, 81
1, 1031329, Note_on_c, 0, 50, 57
1, 1031371, Note_off_c, 0, 50, 63
1, 1031371, Poly_aftertouch_c, 0, 50, 0
1, 1031387, Control_c, 0, 67, 109
1, 1031402, Note_on_c, 0, 55, 62
1, 1031405, Control_c, 0, 67, 105
1, 1031413, Note_on_c, 0, 63, 80
1, 1031424, Control_c, 0, 67, 99
1, 1031429, Note_off_c, 0, 62, 57
1, 1031442, Control_c, 0, 67, 90
1, 1031448, Note_off_c, 0, 55, 59
1, 1031448, Poly_aftertouch_c, 0, 55, 0
1, 1031462, Control_c, 0, 67, 78
1, 1031480, Control_c, 0, 64, 34
1, 1031482, Control_c, 0, 67, 65
1, 1031486, Note_on_c, 0, 51, 73
1, 1031487, Note_off_c, 0, 63, 64
1, 1031487, Poly_aftertouch_c, 0, 63, 0
1, 1031499, Control_c, 0, 64, 54
1, 1031499, Control_c, 0, 67, 52
1, 1031517, Control_c, 0, 64, 69
1, 1031518, Note_off_c, 0, 70, 64
1, 1031519, Control_c, 0, 67, 39
1, 1031534, Note_off_c, 0, 51, 58
1, 1031534, Poly_aftertouch_c, 0, 51, 0
1, 1031535, Control_c, 0, 64, 78
1, 1031536, Control_c, 0, 67, 29
1, 1031556, Control_c, 0, 64, 83
1, 1031557, Control_c, 0, 67, 24
1, 1031574, Control_c, 0, 64, 85
1, 1031582, Note_on_c, 0, 50, 72
1, 1031612, Control_c, 0, 64, 80
1, 1031630, Control_c, 0, 64, 69
1, 1031649, Control_c, 0, 64, 52
1, 1031657, Note_off_c, 0, 50, 59
1, 1031657, Poly_aftertouch_c, 0, 50, 0
1, 1031666, Note_on_c, 0, 51, 72
1, 1031669, Control_c, 0, 64, 28
1, 1031686, Control_c, 0, 64, 0
1, 1031725, Note_off_c, 0, 51, 58
1, 1031725, Poly_aftertouch_c, 0, 51, 0
1, 1031759, Note_on_c, 0, 55, 65
1, 1031761, Control_c, 0, 64, 19
1, 1031774, Note_on_c, 0, 85, 70
1, 1031779, Control_c, 0, 64, 42
1, 1031784, Note_on_c, 0, 73, 58
1, 1031799, Control_c, 0, 64, 62
1, 1031818, Control_c, 0, 64, 76
1, 1031820, Control_c, 0, 67, 17
1, 1031830, Note_off_c, 0, 55, 55
1, 1031830, Poly_aftertouch_c, 0, 55, 0
1, 1031835, Control_c, 0, 64, 83
1, 1031836, Control_c, 0, 67, 13
1, 1031865, Note_on_c, 0, 51, 56
1, 1031873, Control_c, 0, 64, 72
1, 1031874, Control_c, 0, 67, 8
1, 1031887, Note_off_c, 0, 85, 62
1, 1031892, Note_off_c, 0, 73, 64
1, 1031892, Control_c, 0, 64, 56
1, 1031911, Control_c, 0, 64, 37
1, 1031915, Note_off_c, 0, 51, 61
1, 1031915, Poly_aftertouch_c, 0, 51, 0
1, 1031925, Note_on_c, 0, 56, 67
1, 1031930, Control_c, 0, 64, 31
1, 1031947, Control_c, 0, 64, 38
1, 1031966, Note_on_c, 0, 84, 78
1, 1031966, Control_c, 0, 64, 49
1, 1031974, Poly_aftertouch_c, 0, 78, 0
1, 1031977, Note_on_c, 0, 72, 69
1, 1031983, Control_c, 0, 64, 63
1, 1032005, Control_c, 0, 64, 75
1, 1032021, Control_c, 0, 64, 78
1, 1032023, Control_c, 0, 67, 0
1, 1032025, Note_on_c, 0, 51, 72
1, 1032029, Note_off_c, 0, 56, 64
1, 1032029, Poly_aftertouch_c, 0, 56, 0
1, 1032042, Control_c, 0, 64, 72
1, 1032043, Note_off_c, 0, 72, 60
1, 1032059, Control_c, 0, 64, 55
1, 1032079, Control_c, 0, 64, 29
1, 1032097, Note_off_c, 0, 84, 58
1, 1032097, Control_c, 0, 64, 0
1, 1032115, Control_c, 0, 64, 18
1, 1032134, Control_c, 0, 64, 36
1, 1032136, Note_off_c, 0, 51, 60
1, 1032136, Poly_aftertouch_c, 0, 51, 0
1, 1032140, Note_on_c, 0, 82, 79
1, 1032144, Note_on_c, 0, 70, 80
1, 1032148, Note_on_c, 0, 58, 67
1, 1032154, Control_c, 0, 64, 54
1, 1032172, Control_c, 0, 64, 70
1, 1032190, Control_c, 0, 64, 81
1, 1032207, Note_off_c, 0, 82, 62
1, 1032207, Poly_aftertouch_c, 0, 82, 0
1, 1032208, Control_c, 0, 64, 87
1, 1032211, Note_off_c, 0, 70, 65
1, 1032236, Note_on_c, 0, 51, 69
1, 1032239, Note_off_c, 0, 58, 62
1, 1032311, Note_off_c, 0, 51, 58
1, 1032311, Poly_aftertouch_c, 0, 51, 0
1, 1032319, Note_on_c, 0, 80, 78
1, 1032320, Note_on_c, 0, 68, 80
1, 1032326, Note_on_c, 0, 60, 70
1, 1032359, Control_c, 0, 64, 91
1, 1032370, Note_off_c, 0, 60, 62
1, 1032370, Poly_aftertouch_c, 0, 60, 0
1, 1032380, Note_off_c, 0, 80, 61
1, 1032380, Poly_aftertouch_c, 0, 80, 0
1, 1032395, Note_off_c, 0, 68, 62
1, 1032403, Note_on_c, 0, 51, 67
1, 1032492, Note_off_c, 0, 51, 54
1, 1032492, Poly_aftertouch_c, 0, 51, 0
1, 1032493, Note_on_c, 0, 61, 76
1, 1032505, Note_on_c, 0, 79, 84
1, 1032506, Note_on_c, 0, 67, 80
1, 1032569, Note_off_c, 0, 79, 62
1, 1032569, Poly_aftertouch_c, 0, 79, 0
1, 1032576, Note_off_c, 0, 67, 61
1, 1032578, Note_off_c, 0, 61, 58
1, 1032591, Note_on_c, 0, 51, 74
1, 1032664, Note_off_c, 0, 51, 60
1, 1032664, Poly_aftertouch_c, 0, 51, 0
1, 1032676, Note_on_c, 0, 62, 68
1, 1032693, Note_on_c, 0, 77, 85
1, 1032699, Note_on_c, 0, 65, 79
1, 1032719, Note_off_c, 0, 62, 63
1, 1032756, Note_on_c, 0, 51, 76
1, 1032799, Note_off_c, 0, 65, 53
1, 1032802, Note_off_c, 0, 77, 60
1, 1032845, Control_c, 0, 64, 80
1, 1032850, Note_off_c, 0, 51, 57
1, 1032850, Poly_aftertouch_c, 0, 51, 0
1, 1032860, Note_on_c, 0, 63, 73
1, 1032863, Control_c, 0, 64, 65
1, 1032868, Note_on_c, 0, 75, 77
1, 1032882, Control_c, 0, 64, 46
1, 1032894, Note_off_c, 0, 75, 71
1, 1032902, Control_c, 0, 64, 0
1, 1032925, Note_off_c, 0, 63, 59
1, 1032925, Poly_aftertouch_c, 0, 63, 0
1, 1032948, Note_on_c, 0, 51, 75
1, 1033032, Note_off_c, 0, 51, 57
1, 1033032, Poly_aftertouch_c, 0, 51, 0
1, 1033037, Note_on_c, 0, 63, 80
1, 1033049, Note_on_c, 0, 75, 84
1, 1033055, Note_on_c, 0, 68, 82
1, 1033061, Note_on_c, 0, 72, 73
1, 1033084, Note_off_c, 0, 68, 74
1, 1033091, Note_off_c, 0, 72, 70
1, 1033104, Note_off_c, 0, 63, 61
1, 1033104, Poly_aftertouch_c, 0, 63, 0
1, 1033108, Note_off_c, 0, 75, 64
1, 1033123, Note_on_c, 0, 51, 78
1, 1033215, Note_off_c, 0, 51, 59
1, 1033215, Poly_aftertouch_c, 0, 51, 0
1, 1033219, Note_on_c, 0, 63, 70
1, 1033241, Note_on_c, 0, 73, 84
1, 1033243, Note_on_c, 0, 70, 82
1, 1033252, Note_on_c, 0, 75, 70
1, 1033263, Note_off_c, 0, 63, 64
1, 1033263, Poly_aftertouch_c, 0, 63, 0
1, 1033272, Note_off_c, 0, 70, 70
1, 1033281, Note_off_c, 0, 75, 69
1, 1033295, Note_off_c, 0, 73, 63
1, 1033312, Note_on_c, 0, 51, 58
1, 1033355, Note_off_c, 0, 51, 60
1, 1033355, Poly_aftertouch_c, 0, 51, 0
1, 1033392, Note_on_c, 0, 63, 70
1, 1033432, Note_off_c, 0, 63, 63
1, 1033432, Poly_aftertouch_c, 0, 63, 0
1, 1033434, Note_on_c, 0, 75, 77
1, 1033444, Note_on_c, 0, 67, 66
1, 1033446, Note_on_c, 0, 70, 61
1, 1033475, Note_off_c, 0, 75, 63
1, 1033475, Note_off_c, 0, 70, 66
1, 1033475, Note_off_c, 0, 67, 64
1, 1033475, Note_on_c, 0, 51, 69
1, 1033532, Note_off_c, 0, 51, 59
1, 1033532, Poly_aftertouch_c, 0, 51, 0
1, 1033601, Note_on_c, 0, 56, 65
1, 1033609, Control_c, 0, 67, 8
1, 1033614, Note_on_c, 0, 75, 80
1, 1033624, Note_on_c, 0, 72, 76
1, 1033627, Note_on_c, 0, 68, 76
1, 1033644, Note_off_c, 0, 56, 64
1, 1033644, Poly_aftertouch_c, 0, 56, 0
1, 1033667, Control_c, 0, 67, 14
1, 1033687, Control_c, 0, 64, 18
1, 1033688, Control_c, 0, 67, 18
1, 1033705, Control_c, 0, 64, 45
1, 1033706, Control_c, 0, 67, 25
1, 1033724, Control_c, 0, 64, 63
1, 1033725, Control_c, 0, 67, 33
1, 1033743, Control_c, 0, 64, 76
1, 1033745, Control_c, 0, 67, 41
1, 1033759, Note_off_c, 0, 72, 61
1, 1033760, Control_c, 0, 64, 84
1, 1033764, Control_c, 0, 67, 48
1, 1033776, Note_off_c, 0, 68, 56
1, 1033779, Note_off_c, 0, 75, 63
1, 1033780, Control_c, 0, 64, 92
1, 1033781, Control_c, 0, 67, 54
1, 1033788, Note_on_c, 0, 44, 71
1, 1033799, Control_c, 0, 64, 100
1, 1033800, Control_c, 0, 67, 61
1, 1033818, Control_c, 0, 64, 107
1, 1033820, Control_c, 0, 67, 68
1, 1033826, Note_off_c, 0, 44, 64
1, 1033837, Control_c, 0, 67, 76
1, 1033855, Control_c, 0, 67, 84
1, 1033873, Control_c, 0, 67, 93
1, 1033892, Control_c, 0, 67, 101
1, 1033912, Control_c, 0, 64, 99
1, 1033913, Control_c, 0, 67, 110
1, 1033929, Control_c, 0, 64, 90
1, 1033930, Control_c, 0, 67, 117
1, 1033948, Control_c, 0, 64, 77
1, 1033950, Control_c, 0, 67, 121
1, 1033967, Control_c, 0, 64, 62
1, 1033986, Control_c, 0, 64, 49
1, 1033987, Control_c, 0, 67, 125
1, 1033994, Note_on_c, 0, 60, 63
1, 1034002, Note_on_c, 0, 58, 60
1, 1034004, Control_c, 0, 64, 30
1, 1034023, Control_c, 0, 64, 0
1, 1034048, Note_off_c, 0, 60, 56
1, 1034048, Poly_aftertouch_c, 0, 60, 0
1, 1034073, Note_on_c, 0, 72, 74
1, 1034146, Note_off_c, 0, 58, 61
1, 1034160, Note_off_c, 0, 72, 60
1, 1034167, Note_on_c, 0, 64, 66
1, 1034182, Note_on_c, 0, 55, 56
1, 1034224, Note_off_c, 0, 64, 56
1, 1034258, Note_on_c, 0, 72, 67
1, 1034338, Note_off_c, 0, 72, 60
1, 1034351, Note_on_c, 0, 67, 71
1, 1034356, Note_on_c, 0, 52, 71
1, 1034378, Control_c, 0, 67, 121
1, 1034389, Note_off_c, 0, 55, 53
1, 1034389, Poly_aftertouch_c, 0, 55, 0
1, 1034411, Note_off_c, 0, 67, 60
1, 1034431, Note_on_c, 0, 72, 66
1, 1034524, Note_on_c, 0, 71, 70
1, 1034526, Control_c, 0, 67, 117
1, 1034533, Note_off_c, 0, 72, 62
1, 1034543, Note_on_c, 0, 48, 78
1, 1034584, Note_off_c, 0, 52, 58
1, 1034604, Note_off_c, 0, 71, 57
1, 1034618, Note_on_c, 0, 72, 69
1, 1034620, Control_c, 0, 67, 112
1, 1034659, Control_c, 0, 67, 108
1, 1034696, Control_c, 0, 67, 102
1, 1034715, Control_c, 0, 64, 8
1, 1034716, Control_c, 0, 67, 97
1, 1034723, Note_on_c, 0, 70, 80
1, 1034730, Note_off_c, 0, 72, 63
1, 1034733, Control_c, 0, 64, 16
1, 1034735, Control_c, 0, 67, 89
1, 1034736, Note_on_c, 0, 50, 69
1, 1034752, Control_c, 0, 64, 21
1, 1034754, Control_c, 0, 67, 80
1, 1034770, Note_off_c, 0, 48, 61
1, 1034770, Poly_aftertouch_c, 0, 48, 0
1, 1034770, Control_c, 0, 64, 27
1, 1034771, Control_c, 0, 67, 71
1, 1034790, Control_c, 0, 64, 32
1, 1034791, Control_c, 0, 67, 62
1, 1034808, Control_c, 0, 67, 51
1, 1034818, Note_on_c, 0, 72, 76
1, 1034819, Note_off_c, 0, 70, 60
1, 1034827, Control_c, 0, 64, 36
1, 1034829, Control_c, 0, 67, 40
1, 1034846, Control_c, 0, 67, 32
1, 1034866, Control_c, 0, 64, 31
1, 1034902, Control_c, 0, 64, 21
1, 1034906, Note_off_c, 0, 72, 61
1, 1034912, Note_on_c, 0, 67, 72
1, 1034914, Note_on_c, 0, 52, 72
1, 1034918, Note_off_c, 0, 50, 62
1, 1034918, Poly_aftertouch_c, 0, 50, 0
1, 1034921, Control_c, 0, 64, 9
1, 1034939, Control_c, 0, 64, 0
1, 1034977, Control_c, 0, 67, 39
1, 1034991, Note_on_c, 0, 72, 72
1, 1034994, Control_c, 0, 67, 46
1, 1034997, Note_off_c, 0, 67, 61
1, 1035013, Control_c, 0, 67, 53
1, 1035033, Control_c, 0, 67, 59
1, 1035036, Note_off_c, 0, 52, 59
1, 1035053, Control_c, 0, 67, 65
1, 1035069, Control_c, 0, 67, 71
1, 1035081, Note_off_c, 0, 72, 60
1, 1035085, Note_on_c, 0, 68, 73
1, 1035086, Note_on_c, 0, 53, 54
1, 1035088, Control_c, 0, 67, 78
1, 1035107, Control_c, 0, 67, 86
1, 1035127, Control_c, 0, 67, 93
1, 1035145, Control_c, 0, 67, 100
1, 1035164, Control_c, 0, 67, 106
1, 1035172, Note_off_c, 0, 68, 62
1, 1035172, Note_on_c, 0, 72, 66
1, 1035201, Control_c, 0, 67, 113
1, 1035207, Note_off_c, 0, 53, 58
1, 1035219, Control_c, 0, 64, 8
1, 1035220, Control_c, 0, 67, 117
1, 1035239, Control_c, 0, 64, 31
1, 1035244, Note_off_c, 0, 72, 62
1, 1035257, Control_c, 0, 64, 49
1, 1035258, Control_c, 0, 67, 123
1, 1035262, Note_on_c, 0, 56, 55
1, 1035276, Control_c, 0, 64, 62
1, 1035286, Note_on_c, 0, 65, 61
1, 1035295, Control_c, 0, 64, 70
1, 1035313, Control_c, 0, 64, 73
1, 1035315, Control_c, 0, 67, 127
1, 1035330, Note_on_c, 0, 72, 60
1, 1035341, Note_off_c, 0, 65, 60
1, 1035368, Note_off_c, 0, 72, 66
1, 1035390, Control_c, 0, 64, 70
1, 1035406, Control_c, 0, 64, 68
1, 1035410, Note_off_c, 0, 56, 58
1, 1035410, Poly_aftertouch_c, 0, 56, 0
1, 1035426, Control_c, 0, 64, 65
1, 1035442, Note_on_c, 0, 46, 60
1, 1035444, Control_c, 0, 64, 60
1, 1035463, Control_c, 0, 64, 56
1, 1035471, Note_on_c, 0, 80, 69
1, 1035481, Control_c, 0, 64, 52
1, 1035500, Control_c, 0, 64, 47
1, 1035518, Note_off_c, 0, 46, 57
1, 1035519, Control_c, 0, 64, 41
1, 1035537, Control_c, 0, 64, 34
1, 1035554, Control_c, 0, 64, 25
1, 1035557, Note_on_c, 0, 58, 50
1, 1035575, Control_c, 0, 64, 13
1, 1035606, Note_off_c, 0, 58, 62
1, 1035611, Control_c, 0, 64, 0
1, 1035626, Note_on_c, 0, 50, 62
1, 1035655, Note_on_c, 0, 77, 57
1, 1035712, Note_off_c, 0, 50, 59
1, 1035712, Poly_aftertouch_c, 0, 50, 0
1, 1035733, Note_on_c, 0, 58, 47
1, 1035789, Note_off_c, 0, 58, 58
1, 1035794, Note_off_c, 0, 80, 63
1, 1035794, Poly_aftertouch_c, 0, 80, 0
1, 1035824, Note_on_c, 0, 53, 61
1, 1035831, Note_off_c, 0, 77, 62
1, 1035853, Note_on_c, 0, 74, 68
1, 1035867, Note_off_c, 0, 53, 63
1, 1035908, Note_on_c, 0, 58, 58
1, 1035961, Note_off_c, 0, 58, 59
1, 1036011, Note_on_c, 0, 57, 65
1, 1036016, Note_on_c, 0, 70, 74
1, 1036055, Note_off_c, 0, 74, 59
1, 1036084, Note_off_c, 0, 57, 63
1, 1036084, Poly_aftertouch_c, 0, 57, 0
1, 1036127, Note_on_c, 0, 58, 59
1, 1036135, Control_c, 0, 67, 121
1, 1036155, Control_c, 0, 67, 117
1, 1036174, Control_c, 0, 67, 112
1, 1036183, Note_off_c, 0, 58, 56
1, 1036192, Control_c, 0, 64, 13
1, 1036194, Control_c, 0, 67, 105
1, 1036202, Note_on_c, 0, 72, 79
1, 1036206, Note_on_c, 0, 56, 68
1, 1036210, Control_c, 0, 64, 19
1, 1036211, Control_c, 0, 67, 98
1, 1036225, Note_off_c, 0, 70, 61
1, 1036228, Control_c, 0, 64, 25
1, 1036228, Control_c, 0, 67, 90
1, 1036249, Control_c, 0, 64, 30
1, 1036250, Control_c, 0, 67, 80
1, 1036254, Note_off_c, 0, 56, 61
1, 1036254, Poly_aftertouch_c, 0, 56, 0
1, 1036268, Control_c, 0, 64, 36
1, 1036268, Control_c, 0, 67, 68
1, 1036285, Control_c, 0, 64, 43
1, 1036285, Control_c, 0, 67, 55
1, 1036296, Note_on_c, 0, 58, 66
1, 1036302, Control_c, 0, 64, 47
1, 1036304, Control_c, 0, 67, 41
1, 1036324, Control_c, 0, 64, 51
1, 1036325, Control_c, 0, 67, 25
1, 1036342, Control_c, 0, 67, 10
1, 1036345, Note_off_c, 0, 58, 59
1, 1036361, Control_c, 0, 64, 53
1, 1036363, Control_c, 0, 67, 0
1, 1036378, Note_on_c, 0, 53, 64
1, 1036383, Note_on_c, 0, 74, 82
1, 1036446, Note_off_c, 0, 53, 58
1, 1036463, Note_off_c, 0, 72, 56
1, 1036470, Note_on_c, 0, 58, 65
1, 1036471, Control_c, 0, 64, 50
1, 1036490, Control_c, 0, 64, 44
1, 1036510, Control_c, 0, 64, 34
1, 1036529, Control_c, 0, 64, 0
1, 1036538, Note_off_c, 0, 58, 53
1, 1036563, Note_on_c, 0, 75, 79
1, 1036565, Note_on_c, 0, 55, 53
1, 1036621, Note_off_c, 0, 55, 63
1, 1036621, Poly_aftertouch_c, 0, 55, 0
1, 1036636, Note_on_c, 0, 58, 61
1, 1036685, Note_off_c, 0, 74, 54
1, 1036691, Note_off_c, 0, 58, 61
1, 1036736, Note_on_c, 0, 51, 56
1, 1036752, Control_c, 0, 64, 30
1, 1036761, Note_off_c, 0, 75, 63
1, 1036771, Control_c, 0, 64, 49
1, 1036775, Note_on_c, 0, 79, 55
1, 1036784, Note_off_c, 0, 51, 60
1, 1036784, Poly_aftertouch_c, 0, 51, 0
1, 1036790, Control_c, 0, 64, 64
1, 1036803, Note_off_c, 0, 79, 60
1, 1036803, Poly_aftertouch_c, 0, 79, 0
1, 1036809, Control_c, 0, 64, 73
1, 1036826, Control_c, 0, 64, 78
1, 1036829, Note_on_c, 0, 58, 70
1, 1036846, Control_c, 0, 64, 81
1, 1036866, Control_c, 0, 64, 84
1, 1036904, Note_off_c, 0, 58, 55
1, 1036921, Control_c, 0, 64, 82
1, 1036941, Control_c, 0, 64, 78
1, 1036956, Note_on_c, 0, 63, 69
1, 1036957, Note_on_c, 0, 61, 69
1, 1036959, Control_c, 0, 64, 74
1, 1036977, Control_c, 0, 64, 71
1, 1037032, Note_on_c, 0, 75, 64
1, 1037052, Control_c, 0, 64, 74
1, 1037054, Note_off_c, 0, 63, 59
1, 1037054, Poly_aftertouch_c, 0, 63, 0
1, 1037056, Note_off_c, 0, 61, 62
1, 1037089, Control_c, 0, 64, 77
1, 1037108, Control_c, 0, 64, 79
1, 1037116, Note_on_c, 0, 58, 78
1, 1037124, Note_off_c, 0, 75, 65
1, 1037126, Note_on_c, 0, 67, 72
1, 1037127, Control_c, 0, 64, 81
1, 1037209, Note_off_c, 0, 67, 54
1, 1037219, Note_on_c, 0, 75, 82
1, 1037245, Note_off_c, 0, 58, 60
1, 1037258, Control_c, 0, 64, 83
1, 1037295, Note_on_c, 0, 56, 49
1, 1037312, Note_on_c, 0, 55, 79
1, 1037316, Note_on_c, 0, 70, 81
1, 1037323, Note_off_c, 0, 75, 64
1, 1037370, Control_c, 0, 64, 81
1, 1037393, Note_off_c, 0, 70, 64
1, 1037400, Note_on_c, 0, 75, 69
1, 1037407, Control_c, 0, 64, 77
1, 1037425, Control_c, 0, 64, 73
1, 1037445, Control_c, 0, 64, 68
1, 1037463, Control_c, 0, 64, 62
1, 1037483, Control_c, 0, 64, 58
1, 1037486, Note_on_c, 0, 51, 81
1, 1037496, Note_on_c, 0, 74, 81
1, 1037502, Control_c, 0, 64, 52
1, 1037510, Note_off_c, 0, 56, 20
1, 1037510, Poly_aftertouch_c, 0, 56, 0
1, 1037512, Note_off_c, 0, 75, 63
1, 1037519, Control_c, 0, 64, 44
1, 1037532, Note_off_c, 0, 55, 59
1, 1037532, Poly_aftertouch_c, 0, 55, 0
1, 1037538, Control_c, 0, 64, 32
1, 1037557, Control_c, 0, 64, 19
1, 1037576, Control_c, 0, 64, 8
1, 1037585, Note_on_c, 0, 75, 79
1, 1037593, Note_off_c, 0, 74, 63
1, 1037679, Note_on_c, 0, 53, 78
1, 1037692, Note_off_c, 0, 51, 63
1, 1037692, Poly_aftertouch_c, 0, 51, 0
1, 1037693, Note_on_c, 0, 73, 78
1, 1037696, Note_off_c, 0, 75, 63
1, 1037767, Note_on_c, 0, 75, 75
1, 1037774, Note_off_c, 0, 73, 63
1, 1037780, Control_c, 0, 64, 0
1, 1037830, Note_off_c, 0, 53, 56
1, 1037857, Note_on_c, 0, 70, 80
1, 1037863, Note_off_c, 0, 75, 65
1, 1037870, Note_on_c, 0, 55, 70
1, 1037958, Note_on_c, 0, 75, 82
1, 1037963, Note_off_c, 0, 70, 62
1, 1037977, Note_off_c, 0, 55, 61
1, 1037977, Poly_aftertouch_c, 0, 55, 0
1, 1038036, Note_on_c, 0, 56, 78
1, 1038048, Note_on_c, 0, 72, 78
1, 1038052, Note_off_c, 0, 75, 64
1, 1038108, Note_off_c, 0, 56, 63
1, 1038108, Poly_aftertouch_c, 0, 56, 0
1, 1038136, Note_on_c, 0, 75, 78
1, 1038140, Note_off_c, 0, 72, 61
1, 1038210, Note_on_c, 0, 72, 74
1, 1038212, Note_on_c, 0, 63, 78
1, 1038217, Note_on_c, 0, 44, 81
1, 1038223, Note_off_c, 0, 75, 64
1, 1038260, Note_off_c, 0, 63, 62
1, 1038260, Poly_aftertouch_c, 0, 63, 0
1, 1038278, Note_off_c, 0, 44, 59
1, 1038291, Note_on_c, 0, 75, 80
1, 1038301, Note_off_c, 0, 72, 63
1, 1038389, Note_on_c, 0, 73, 87
1, 1038392, Note_on_c, 0, 46, 79
1, 1038398, Note_on_c, 0, 67, 78
1, 1038405, Note_off_c, 0, 75, 64
1, 1038445, Note_off_c, 0, 67, 63
1, 1038456, Note_off_c, 0, 46, 58
1, 1038495, Note_on_c, 0, 75, 79
1, 1038503, Note_off_c, 0, 73, 62
1, 1038554, Note_on_c, 0, 73, 69
1, 1038573, Note_on_c, 0, 48, 75
1, 1038577, Note_off_c, 0, 75, 63
1, 1038589, Note_on_c, 0, 68, 71
1, 1038631, Note_off_c, 0, 68, 63
1, 1038636, Note_off_c, 0, 48, 62
1, 1038636, Poly_aftertouch_c, 0, 48, 0
1, 1038649, Note_off_c, 0, 73, 64
1, 1038667, Note_on_c, 0, 75, 82
1, 1038746, Note_on_c, 0, 72, 76
1, 1038750, Note_on_c, 0, 49, 81
1, 1038767, Note_off_c, 0, 75, 64
1, 1038771, Note_on_c, 0, 65, 66
1, 1038773, Control_c, 0, 64, 12
1, 1038791, Control_c, 0, 64, 20
1, 1038794, Note_off_c, 0, 49, 61
1, 1038794, Poly_aftertouch_c, 0, 49, 0
1, 1038806, Note_off_c, 0, 65, 68
1, 1038809, Control_c, 0, 64, 31
1, 1038828, Note_on_c, 0, 75, 75
1, 1038828, Control_c, 0, 64, 41
1, 1038839, Note_off_c, 0, 72, 63
1, 1038846, Control_c, 0, 64, 50
1, 1038867, Control_c, 0, 64, 56
1, 1038885, Control_c, 0, 64, 62
1, 1038903, Control_c, 0, 64, 65
1, 1038921, Note_on_c, 0, 73, 57
1, 1038922, Control_c, 0, 64, 67
1, 1038924, Note_on_c, 0, 46, 78
1, 1038933, Note_on_c, 0, 65, 66
1, 1038936, Note_on_c, 0, 70, 77
1, 1038948, Note_off_c, 0, 75, 62
1, 1038951, Note_off_c, 0, 73, 61
1, 1038960, Control_c, 0, 64, 69
1, 1038970, Note_off_c, 0, 46, 61
1, 1038992, Note_off_c, 0, 65, 60
1, 1038997, Control_c, 0, 64, 71
1, 1039010, Note_off_c, 0, 70, 63
1, 1039027, Note_on_c, 0, 73, 82
1, 1039108, Note_on_c, 0, 51, 74
1, 1039126, Note_on_c, 0, 63, 72
1, 1039133, Note_off_c, 0, 73, 64
1, 1039148, Note_off_c, 0, 51, 61
1, 1039148, Poly_aftertouch_c, 0, 51, 0
1, 1039163, Note_off_c, 0, 63, 61
1, 1039163, Note_on_c, 0, 67, 42
1, 1039163, Poly_aftertouch_c, 0, 63, 0
1, 1039197, Note_on_c, 0, 72, 82
1, 1039207, Note_off_c, 0, 67, 52
1, 1039207, Poly_aftertouch_c, 0, 66, 0
1, 1039221, Control_c, 0, 64, 68
1, 1039240, Control_c, 0, 64, 60
1, 1039258, Control_c, 0, 64, 42
1, 1039278, Control_c, 0, 64, 0
1, 1039288, Note_on_c, 0, 39, 77
1, 1039289, Note_on_c, 0, 67, 77
1, 1039296, Note_off_c, 0, 72, 60
1, 1039303, Note_on_c, 0, 61, 73
1, 1039333, Note_off_c, 0, 39, 62
1, 1039344, Note_on_c, 0, 66, 23
1, 1039345, Note_off_c, 0, 66, 127
1, 1039357, Note_on_c, 0, 70, 82
1, 1039365, Note_off_c, 0, 61, 57
1, 1039365, Note_off_c, 0, 67, 64
1, 1039457, Note_on_c, 0, 44, 67
1, 1039472, Note_on_c, 0, 68, 74
1, 1039487, Note_off_c, 0, 70, 55
1, 1039494, Note_off_c, 0, 44, 64
1, 1039498, Note_on_c, 0, 60, 60
1, 1039558, Control_c, 0, 67, 8
1, 1039573, Note_off_c, 0, 60, 63
1, 1039573, Poly_aftertouch_c, 0, 60, 0
1, 1039595, Control_c, 0, 67, 13
1, 1039633, Control_c, 0, 67, 18
1, 1039652, Control_c, 0, 64, 35
1, 1039653, Control_c, 0, 67, 24
1, 1039668, Note_off_c, 0, 68, 64
1, 1039671, Control_c, 0, 64, 55
1, 1039672, Control_c, 0, 67, 34
1, 1039685, Note_on_c, 0, 32, 60
1, 1039688, Control_c, 0, 64, 72
1, 1039690, Control_c, 0, 67, 48
1, 1039707, Control_c, 0, 64, 83
1, 1039709, Control_c, 0, 67, 64
1, 1039721, Note_off_c, 0, 32, 58
1, 1039725, Control_c, 0, 64, 94
1, 1039728, Control_c, 0, 67, 79
1, 1039745, Control_c, 0, 64, 106
1, 1039746, Control_c, 0, 67, 92
1, 1039763, Control_c, 0, 64, 113
1, 1039764, Control_c, 0, 67, 108
1, 1039782, Control_c, 0, 67, 125
1, 1039820, Control_c, 0, 64, 102
1, 1039839, Control_c, 0, 64, 83
1, 1039857, Control_c, 0, 64, 58
1, 1039876, Control_c, 0, 64, 27
1, 1039895, Control_c, 0, 64, 0
1, 1039903, Note_on_c, 0, 82, 70
1, 1039923, Note_on_c, 0, 70, 54
1, 1039945, Note_on_c, 0, 48, 47
1, 1039950, Control_c, 0, 64, 20
1, 1039969, Control_c, 0, 64, 44
1, 1039988, Control_c, 0, 64, 64
1, 1039997, Note_off_c, 0, 48, 58
1, 1039997, Poly_aftertouch_c, 0, 48, 0
1, 1040007, Control_c, 0, 64, 77
1, 1040012, Note_off_c, 0, 82, 63
1, 1040012, Poly_aftertouch_c, 0, 82, 0
1, 1040015, Note_off_c, 0, 70, 63
1, 1040025, Control_c, 0, 64, 83
1, 1040041, Note_on_c, 0, 60, 61
1, 1040046, Control_c, 0, 64, 85
1, 1040092, Note_off_c, 0, 60, 57
1, 1040092, Poly_aftertouch_c, 0, 60, 0
1, 1040124, Note_on_c, 0, 79, 77
1, 1040137, Control_c, 0, 67, 118
1, 1040141, Note_on_c, 0, 67, 66
1, 1040146, Note_on_c, 0, 52, 63
1, 1040158, Control_c, 0, 67, 110
1, 1040174, Control_c, 0, 67, 99
1, 1040193, Note_off_c, 0, 79, 62
1, 1040193, Poly_aftertouch_c, 0, 79, 0
1, 1040194, Control_c, 0, 64, 90
1, 1040195, Control_c, 0, 67, 87
1, 1040197, Note_off_c, 0, 67, 58
1, 1040200, Note_off_c, 0, 52, 57
1, 1040214, Control_c, 0, 67, 74
1, 1040232, Note_on_c, 0, 60, 69
1, 1040232, Control_c, 0, 67, 59
1, 1040249, Control_c, 0, 67, 45
1, 1040268, Control_c, 0, 67, 31
1, 1040282, Note_off_c, 0, 60, 56
1, 1040282, Poly_aftertouch_c, 0, 60, 0
1, 1040289, Control_c, 0, 67, 18
1, 1040315, Note_on_c, 0, 76, 79
1, 1040323, Control_c, 0, 67, 0
1, 1040324, Note_on_c, 0, 53, 67
1, 1040326, Note_on_c, 0, 64, 71
1, 1040342, Note_on_c, 0, 77, 45
1, 1040343, Note_off_c, 0, 77, 127
1, 1040383, Note_off_c, 0, 53, 60
1, 1040402, Note_on_c, 0, 60, 60
1, 1040459, Note_off_c, 0, 60, 56
1, 1040459, Poly_aftertouch_c, 0, 60, 0
1, 1040498, Note_on_c, 0, 72, 82
1, 1040511, Control_c, 0, 64, 87
1, 1040538, Note_off_c, 0, 76, 63
1, 1040547, Note_on_c, 0, 59, 42
1, 1040581, Note_off_c, 0, 59, 47
1, 1040587, Note_off_c, 0, 64, 43
1, 1040587, Poly_aftertouch_c, 0, 55, 0
1, 1040587, Poly_aftertouch_c, 0, 64, 0
1, 1040619, Note_on_c, 0, 60, 38
1, 1040679, Note_on_c, 0, 74, 82
1, 1040681, Note_off_c, 0, 60, 56
1, 1040681, Poly_aftertouch_c, 0, 60, 0
1, 1040685, Note_on_c, 0, 62, 77
1, 1040693, Note_on_c, 0, 58, 75
1, 1040699, Control_c, 0, 64, 91
1, 1040756, Note_off_c, 0, 62, 59
1, 1040758, Note_off_c, 0, 58, 50
1, 1040796, Poly_aftertouch_c, 0, 73, 0
1, 1040801, Note_on_c, 0, 60, 69
1, 1040849, Control_c, 0, 64, 80
1, 1040855, Note_off_c, 0, 60, 53
1, 1040855, Poly_aftertouch_c, 0, 60, 0
1, 1040865, Note_on_c, 0, 76, 86
1, 1040868, Control_c, 0, 64, 67
1, 1040880, Note_on_c, 0, 55, 65
1, 1040884, Note_off_c, 0, 72, 28
1, 1040884, Note_on_c, 0, 64, 68
1, 1040887, Control_c, 0, 64, 56
1, 1040891, Note_off_c, 0, 74, 45
1, 1040904, Control_c, 0, 64, 46
1, 1040922, Control_c, 0, 64, 32
1, 1040924, Note_off_c, 0, 64, 59
1, 1040924, Note_off_c, 0, 55, 63
1, 1040943, Control_c, 0, 64, 0
1, 1040952, Note_off_c, 0, 76, 63
1, 1040973, Note_on_c, 0, 60, 69
1, 1041028, Note_off_c, 0, 60, 58
1, 1041028, Poly_aftertouch_c, 0, 60, 0
1, 1041042, Note_on_c, 0, 77, 86
1, 1041056, Note_on_c, 0, 65, 66
1, 1041070, Note_on_c, 0, 56, 69
1, 1041101, Note_off_c, 0, 65, 62
1, 1041109, Note_off_c, 0, 56, 64
1, 1041109, Poly_aftertouch_c, 0, 56, 0
1, 1041147, Note_on_c, 0, 60, 56
1, 1041147, Control_c, 0, 67, 9
1, 1041166, Control_c, 0, 67, 13
1, 1041184, Control_c, 0, 67, 20
1, 1041195, Note_off_c, 0, 60, 63
1, 1041195, Poly_aftertouch_c, 0, 60, 0
1, 1041202, Control_c, 0, 67, 30
1, 1041222, Control_c, 0, 64, 9
1, 1041224, Control_c, 0, 67, 44
1, 1041229, Note_on_c, 0, 80, 74
1, 1041232, Note_off_c, 0, 77, 62
1, 1041238, Note_on_c, 0, 68, 64
1, 1041241, Control_c, 0, 64, 30
1, 1041242, Control_c, 0, 67, 56
1, 1041244, Note_on_c, 0, 53, 58
1, 1041259, Control_c, 0, 64, 47
1, 1041261, Control_c, 0, 67, 65
1, 1041276, Note_off_c, 0, 68, 66
1, 1041277, Control_c, 0, 64, 63
1, 1041279, Control_c, 0, 67, 75
1, 1041286, Note_off_c, 0, 53, 63
1, 1041297, Control_c, 0, 64, 73
1, 1041298, Note_off_c, 0, 80, 62
1, 1041298, Poly_aftertouch_c, 0, 80, 0
1, 1041298, Control_c, 0, 67, 88
1, 1041316, Control_c, 0, 64, 78
1, 1041317, Control_c, 0, 67, 104
1, 1041320, Note_on_c, 0, 60, 63
1, 1041334, Control_c, 0, 67, 116
1, 1041357, Note_off_c, 0, 60, 65
1, 1041357, Poly_aftertouch_c, 0, 60, 0
1, 1041372, Control_c, 0, 67, 122
1, 1041389, Control_c, 0, 64, 75
1, 1041409, Control_c, 0, 64, 70
1, 1041410, Control_c, 0, 67, 126
1, 1041418, Note_on_c, 0, 70, 64
1, 1041429, Control_c, 0, 64, 64
1, 1041435, Note_on_c, 0, 68, 71
1, 1041446, Control_c, 0, 64, 59
1, 1041464, Control_c, 0, 64, 54
1, 1041484, Control_c, 0, 64, 50
1, 1041502, Control_c, 0, 64, 46
1, 1041507, Note_on_c, 0, 82, 76
1, 1041521, Control_c, 0, 64, 42
1, 1041529, Note_off_c, 0, 70, 61
1, 1041579, Note_off_c, 0, 68, 63
1, 1041590, Note_off_c, 0, 82, 62
1, 1041590, Poly_aftertouch_c, 0, 82, 0
1, 1041595, Control_c, 0, 67, 121
1, 1041599, Note_on_c, 0, 74, 71
1, 1041617, Note_on_c, 0, 65, 67
1, 1041634, Control_c, 0, 67, 117
1, 1041665, Note_off_c, 0, 74, 57
1, 1041669, Control_c, 0, 67, 109
1, 1041686, Note_on_c, 0, 82, 74
1, 1041689, Control_c, 0, 67, 104
1, 1041709, Control_c, 0, 67, 100
1, 1041726, Control_c, 0, 67, 96
1, 1041745, Control_c, 0, 67, 91
1, 1041765, Control_c, 0, 67, 87
1, 1041774, Note_off_c, 0, 82, 65
1, 1041774, Poly_aftertouch_c, 0, 82, 0
1, 1041779, Note_on_c, 0, 62, 78
1, 1041782, Note_on_c, 0, 77, 71
1, 1041782, Control_c, 0, 67, 83
1, 1041785, Note_off_c, 0, 65, 60
1, 1041801, Control_c, 0, 67, 79
1, 1041821, Control_c, 0, 67, 74
1, 1041840, Control_c, 0, 67, 70
1, 1041841, Note_off_c, 0, 77, 58
1, 1041866, Note_on_c, 0, 82, 69
1, 1041876, Control_c, 0, 67, 63
1, 1041895, Control_c, 0, 67, 58
1, 1041914, Control_c, 0, 67, 53
1, 1041933, Control_c, 0, 64, 37
1, 1041934, Control_c, 0, 67, 45
1, 1041949, Note_on_c, 0, 58, 81
1, 1041950, Control_c, 0, 67, 37
1, 1041961, Note_on_c, 0, 81, 75
1, 1041969, Control_c, 0, 67, 26
1, 1041976, Note_off_c, 0, 82, 59
1, 1041976, Poly_aftertouch_c, 0, 82, 0
1, 1041988, Control_c, 0, 67, 14
1, 1041994, Note_off_c, 0, 62, 61
1, 1042008, Control_c, 0, 64, 32
1, 1042008, Control_c, 0, 67, 0
1, 1042045, Control_c, 0, 64, 24
1, 1042048, Note_on_c, 0, 82, 78
1, 1042065, Control_c, 0, 64, 9
1, 1042069, Note_off_c, 0, 81, 62
1, 1042082, Control_c, 0, 64, 0
1, 1042136, Note_on_c, 0, 60, 84
1, 1042144, Note_on_c, 0, 80, 82
1, 1042158, Note_off_c, 0, 82, 64
1, 1042158, Poly_aftertouch_c, 0, 82, 0
1, 1042163, Note_off_c, 0, 58, 59
1, 1042219, Note_on_c, 0, 82, 80
1, 1042246, Note_off_c, 0, 80, 63
1, 1042246, Poly_aftertouch_c, 0, 80, 0
1, 1042274, Note_off_c, 0, 60, 62
1, 1042274, Poly_aftertouch_c, 0, 60, 0
1, 1042306, Note_on_c, 0, 62, 82
1, 1042313, Note_on_c, 0, 77, 82
1, 1042331, Note_off_c, 0, 82, 65
1, 1042331, Poly_aftertouch_c, 0, 82, 0
1, 1042385, Note_off_c, 0, 62, 63
1, 1042386, Note_on_c, 0, 82, 78
1, 1042421, Note_off_c, 0, 77, 61
1, 1042475, Note_on_c, 0, 63, 84
1, 1042484, Note_on_c, 0, 79, 82
1, 1042501, Note_off_c, 0, 82, 64
1, 1042501, Poly_aftertouch_c, 0, 82, 0
1, 1042512, Control_c, 0, 64, 39
1, 1042528, Note_on_c, 0, 80, 20
1, 1042528, Poly_aftertouch_c, 0, 80, 0
1, 1042529, Note_off_c, 0, 80, 127
1, 1042529, Control_c, 0, 64, 65
1, 1042533, Note_off_c, 0, 63, 63
1, 1042533, Poly_aftertouch_c, 0, 63, 0
1, 1042544, Poly_aftertouch_c, 0, 78, 0
1, 1042549, Control_c, 0, 64, 84
1, 1042569, Control_c, 0, 64, 100
1, 1042570, Note_on_c, 0, 82, 80
1, 1042587, Control_c, 0, 64, 120
1, 1042605, Control_c, 0, 64, 127
1, 1042648, Note_on_c, 0, 67, 82
1, 1042663, Note_on_c, 0, 75, 79
1, 1042670, Note_off_c, 0, 82, 65
1, 1042670, Poly_aftertouch_c, 0, 82, 0
1, 1042674, Note_off_c, 0, 67, 71
1, 1042714, Note_off_c, 0, 79, 27
1, 1042714, Poly_aftertouch_c, 0, 79, 0
1, 1042734, Note_on_c, 0, 82, 80
1, 1042786, Note_off_c, 0, 75, 62
1, 1042812, Control_c, 0, 64, 123
1, 1042821, Note_off_c, 0, 82, 65
1, 1042821, Poly_aftertouch_c, 0, 82, 0
1, 1042830, Control_c, 0, 64, 88
1, 1042850, Control_c, 0, 64, 49
1, 1042869, Control_c, 0, 64, 0
1, 1042882, Note_on_c, 0, 85, 93
1, 1042887, Note_on_c, 0, 39, 71
1, 1042893, Note_on_c, 0, 73, 84
1, 1042942, Control_c, 0, 64, 29
1, 1042961, Control_c, 0, 64, 64
1, 1042980, Control_c, 0, 64, 94
1, 1042997, Note_on_c, 0, 51, 65
1, 1042997, Control_c, 0, 64, 127
1, 1043012, Note_off_c, 0, 39, 59
1, 1043028, Note_off_c, 0, 85, 62
1, 1043037, Note_off_c, 0, 73, 62
1, 1043089, Note_off_c, 0, 51, 59
1, 1043089, Poly_aftertouch_c, 0, 51, 0
1, 1043120, Note_on_c, 0, 43, 64
1, 1043128, Note_on_c, 0, 82, 89
1, 1043136, Note_on_c, 0, 70, 93
1, 1043147, Note_on_c, 0, 44, 46
1, 1043153, Note_on_c, 0, 42, 24
1, 1043192, Note_off_c, 0, 44, 34
1, 1043198, Note_off_c, 0, 82, 65
1, 1043198, Poly_aftertouch_c, 0, 82, 0
1, 1043205, Note_on_c, 0, 51, 73
1, 1043207, Note_off_c, 0, 43, 63
1, 1043212, Note_off_c, 0, 42, 30
1, 1043219, Note_off_c, 0, 70, 59
1, 1043277, Note_off_c, 0, 51, 58
1, 1043277, Poly_aftertouch_c, 0, 51, 0
1, 1043314, Note_on_c, 0, 46, 77
1, 1043331, Note_on_c, 0, 79, 93
1, 1043336, Note_on_c, 0, 67, 92
1, 1043382, Note_off_c, 0, 46, 59
1, 1043383, Note_off_c, 0, 79, 64
1, 1043383, Poly_aftertouch_c, 0, 79, 0
1, 1043393, Note_on_c, 0, 51, 72
1, 1043406, Note_off_c, 0, 67, 60
1, 1043495, Note_on_c, 0, 50, 83
1, 1043502, Note_off_c, 0, 51, 41
1, 1043502, Poly_aftertouch_c, 0, 51, 0
1, 1043503, Control_c, 0, 64, 96
1, 1043508, Note_on_c, 0, 75, 92
1, 1043511, Note_on_c, 0, 63, 96
1, 1043522, Control_c, 0, 64, 65
1, 1043541, Control_c, 0, 64, 42
1, 1043559, Control_c, 0, 64, 35
1, 1043575, Note_off_c, 0, 63, 65
1, 1043575, Poly_aftertouch_c, 0, 63, 0
1, 1043577, Control_c, 0, 64, 39
1, 1043585, Note_off_c, 0, 50, 62
1, 1043585, Poly_aftertouch_c, 0, 50, 0
1, 1043597, Control_c, 0, 64, 49
1, 1043609, Note_on_c, 0, 51, 78
1, 1043616, Control_c, 0, 64, 62
1, 1043634, Control_c, 0, 64, 73
1, 1043651, Note_off_c, 0, 75, 58
1, 1043653, Control_c, 0, 64, 81
1, 1043671, Control_c, 0, 64, 85
1, 1043689, Note_off_c, 0, 51, 56
1, 1043689, Poly_aftertouch_c, 0, 51, 0
1, 1043698, Note_on_c, 0, 65, 96
1, 1043698, Note_on_c, 0, 77, 89
1, 1043702, Note_on_c, 0, 49, 85
1, 1043709, Note_on_c, 0, 79, 94
1, 1043727, Control_c, 0, 64, 80
1, 1043735, Note_off_c, 0, 79, 59
1, 1043735, Poly_aftertouch_c, 0, 79, 0
1, 1043747, Control_c, 0, 64, 71
1, 1043763, Note_off_c, 0, 65, 62
1, 1043765, Control_c, 0, 64, 51
1, 1043778, Note_off_c, 0, 49, 60
1, 1043778, Poly_aftertouch_c, 0, 49, 0
1, 1043782, Control_c, 0, 64, 0
1, 1043783, Note_off_c, 0, 77, 60
1, 1043792, Note_on_c, 0, 51, 79
1, 1043877, Note_off_c, 0, 51, 59
1, 1043877, Poly_aftertouch_c, 0, 51, 0
1, 1043884, Note_on_c, 0, 67, 92
1, 1043885, Note_on_c, 0, 79, 97
1, 1043886, Note_on_c, 0, 46, 83
1, 1043939, Note_off_c, 0, 67, 65
1, 1043941, Note_off_c, 0, 79, 64
1, 1043941, Poly_aftertouch_c, 0, 79, 0
1, 1043974, Note_on_c, 0, 51, 70
1, 1043981, Note_off_c, 0, 46, 62
1, 1043990, Control_c, 0, 64, 68
1, 1044008, Control_c, 0, 64, 88
1, 1044026, Control_c, 0, 64, 102
1, 1044046, Control_c, 0, 64, 114
1, 1044064, Note_on_c, 0, 80, 99
1, 1044064, Control_c, 0, 64, 120
1, 1044066, Note_on_c, 0, 68, 96
1, 1044068, Note_on_c, 0, 48, 84
1, 1044077, Note_off_c, 0, 51, 62
1, 1044077, Poly_aftertouch_c, 0, 51, 0
1, 1044101, Control_c, 0, 64, 125
1, 1044104, Note_off_c, 0, 68, 64
1, 1044122, Note_off_c, 0, 80, 62
1, 1044122, Poly_aftertouch_c, 0, 80, 0
1, 1044146, Note_off_c, 0, 48, 62
1, 1044146, Poly_aftertouch_c, 0, 48, 0
1, 1044171, Note_on_c, 0, 51, 82
1, 1044232, Control_c, 0, 64, 121
1, 1044251, Control_c, 0, 64, 100
1, 1044254, Note_off_c, 0, 51, 60
1, 1044254, Poly_aftertouch_c, 0, 51, 0
1, 1044270, Control_c, 0, 64, 75
1, 1044283, Note_on_c, 0, 75, 102
1, 1044283, Note_on_c, 0, 84, 96
1, 1044285, Note_on_c, 0, 80, 93
1, 1044288, Control_c, 0, 64, 56
1, 1044292, Note_on_c, 0, 44, 86
1, 1044307, Control_c, 0, 64, 51
1, 1044344, Control_c, 0, 64, 58
1, 1044361, Note_off_c, 0, 75, 59
1, 1044363, Control_c, 0, 64, 66
1, 1044383, Control_c, 0, 64, 75
1, 1044388, Note_off_c, 0, 80, 63
1, 1044388, Poly_aftertouch_c, 0, 80, 0
1, 1044400, Note_off_c, 0, 44, 57
1, 1044400, Note_on_c, 0, 87, 96
1, 1044401, Control_c, 0, 64, 82
1, 1044413, Note_on_c, 0, 56, 75
1, 1044415, Note_off_c, 0, 84, 61
1, 1044420, Control_c, 0, 64, 88
1, 1044465, Note_off_c, 0, 56, 61
1, 1044465, Poly_aftertouch_c, 0, 56, 0
1, 1044474, Control_c, 0, 64, 84
1, 1044494, Control_c, 0, 64, 69
1, 1044510, Note_on_c, 0, 82, 93
1, 1044511, Note_on_c, 0, 43, 83
1, 1044513, Control_c, 0, 64, 49
1, 1044514, Note_on_c, 0, 85, 94
1, 1044523, Note_on_c, 0, 75, 82
1, 1044523, Poly_aftertouch_c, 0, 53, 0
1, 1044524, Note_off_c, 0, 87, 65
1, 1044531, Control_c, 0, 64, 8
1, 1044551, Control_c, 0, 64, 0
1, 1044580, Note_off_c, 0, 75, 64
1, 1044588, Note_off_c, 0, 43, 64
1, 1044589, Note_off_c, 0, 82, 65
1, 1044589, Poly_aftertouch_c, 0, 82, 0
1, 1044606, Control_c, 0, 64, 13
1, 1044608, Note_on_c, 0, 55, 75
1, 1044608, Note_on_c, 0, 87, 92
1, 1044618, Note_off_c, 0, 85, 65
1, 1044624, Control_c, 0, 64, 34
1, 1044645, Control_c, 0, 64, 45
1, 1044649, Note_off_c, 0, 55, 66
1, 1044653, Poly_aftertouch_c, 0, 44, 0
1, 1044663, Control_c, 0, 64, 49
1, 1044691, Note_on_c, 0, 44, 70
1, 1044693, Note_on_c, 0, 84, 85
1, 1044697, Note_on_c, 0, 80, 90
1, 1044699, Control_c, 0, 64, 51
1, 1044701, Note_off_c, 0, 87, 65
1, 1044709, Note_on_c, 0, 75, 79
1, 1044718, Control_c, 0, 64, 56
1, 1044739, Control_c, 0, 64, 63
1, 1044740, Note_off_c, 0, 44, 65
1, 1044746, Note_on_c, 0, 46, 19
1, 1044748, Note_off_c, 0, 75, 64
1, 1044756, Control_c, 0, 64, 68
1, 1044765, Note_on_c, 0, 56, 82
1, 1044776, Control_c, 0, 64, 70
1, 1044783, Note_on_c, 0, 87, 92
1, 1044787, Note_off_c, 0, 80, 65
1, 1044787, Poly_aftertouch_c, 0, 80, 0
1, 1044801, Note_off_c, 0, 84, 63
1, 1044809, Note_off_c, 0, 46, 30
1, 1044817, Note_off_c, 0, 56, 61
1, 1044817, Poly_aftertouch_c, 0, 56, 0
1, 1044849, Control_c, 0, 64, 68
1, 1044861, Note_on_c, 0, 41, 80
1, 1044866, Note_on_c, 0, 84, 80
1, 1044870, Note_on_c, 0, 75, 87
1, 1044884, Note_off_c, 0, 87, 64
1, 1044886, Note_on_c, 0, 80, 73
1, 1044914, Note_off_c, 0, 41, 65
1, 1044915, Note_off_c, 0, 80, 63
1, 1044915, Poly_aftertouch_c, 0, 80, 0
1, 1044932, Poly_aftertouch_c, 0, 43, 0
1, 1044934, Poly_aftertouch_c, 0, 43, 0
1, 1044942, Control_c, 0, 64, 72
1, 1044951, Note_off_c, 0, 75, 64
1, 1044951, Note_on_c, 0, 53, 71
1, 1044962, Control_c, 0, 64, 75
1, 1044964, Note_on_c, 0, 87, 89
1, 1044981, Control_c, 0, 64, 79
1, 1044989, Note_off_c, 0, 84, 61
1, 1044990, Note_off_c, 0, 53, 65
1, 1044999, Control_c, 0, 64, 84
1, 1045003, Poly_aftertouch_c, 0, 43, 0
1, 1045017, Control_c, 0, 64, 89
1, 1045036, Control_c, 0, 64, 95
1, 1045040, Note_off_c, 0, 87, 63
1, 1045043, Note_on_c, 0, 37, 79
1, 1045046, Note_on_c, 0, 82, 88
1, 1045054, Control_c, 0, 64, 102
1, 1045070, Poly_aftertouch_c, 0, 52, 0
1, 1045071, Poly_aftertouch_c, 0, 52, 0
1, 1045074, Control_c, 0, 64, 108
1, 1045085, Note_off_c, 0, 37, 67
1, 1045111, Control_c, 0, 64, 113
1, 1045120, Note_on_c, 0, 49, 77
1, 1045133, Note_off_c, 0, 82, 62
1, 1045133, Poly_aftertouch_c, 0, 82, 0
1, 1045134, Note_on_c, 0, 85, 96
1, 1045174, Note_off_c, 0, 49, 58
1, 1045174, Poly_aftertouch_c, 0, 49, 0
1, 1045195, Note_on_c, 0, 86, 30
1, 1045207, Note_on_c, 0, 39, 91
1, 1045217, Note_on_c, 0, 80, 90
1, 1045222, Control_c, 0, 64, 109
1, 1045235, Note_off_c, 0, 85, 63
1, 1045241, Control_c, 0, 64, 102
1, 1045242, Note_off_c, 0, 86, 53
1, 1045261, Control_c, 0, 64, 84
1, 1045271, Note_on_c, 0, 72, 27
1, 1045278, Control_c, 0, 64, 57
1, 1045282, Note_off_c, 0, 39, 61
1, 1045298, Control_c, 0, 64, 0
1, 1045314, Note_on_c, 0, 51, 81
1, 1045316, Note_on_c, 0, 84, 86
1, 1045320, Note_off_c, 0, 72, 41
1, 1045325, Note_off_c, 0, 80, 63
1, 1045325, Poly_aftertouch_c, 0, 80, 0
1, 1045342, Note_on_c, 0, 83, 66
1, 1045366, Note_off_c, 0, 51, 60
1, 1045366, Poly_aftertouch_c, 0, 51, 0
1, 1045374, Poly_aftertouch_c, 0, 82, 127
1, 1045375, Note_on_c, 0, 39, 82
1, 1045395, Note_off_c, 0, 84, 63
1, 1045404, Note_on_c, 0, 79, 80
1, 1045408, Note_off_c, 0, 83, 37
1, 1045426, Poly_aftertouch_c, 0, 82, 0
1, 1045459, Note_off_c, 0, 39, 61
1, 1045462, Note_on_c, 0, 51, 84
1, 1045482, Poly_aftertouch_c, 0, 78, 0
1, 1045495, Note_on_c, 0, 82, 85
1, 1045496, Note_off_c, 0, 51, 65
1, 1045496, Poly_aftertouch_c, 0, 51, 0
1, 1045503, Poly_aftertouch_c, 0, 78, 0
1, 1045512, Note_off_c, 0, 79, 61
1, 1045512, Poly_aftertouch_c, 0, 79, 0
1, 1045584, Note_on_c, 0, 32, 98
1, 1045584, Note_on_c, 0, 80, 94
1, 1045592, Note_on_c, 0, 68, 89
1, 1045616, Control_c, 0, 67, 9
1, 1045622, Note_off_c, 0, 82, 64
1, 1045629, Note_on_c, 0, 70, 47
1, 1045630, Note_off_c, 0, 70, 127
1, 1045633, Note_off_c, 0, 68, 65
1, 1045635, Control_c, 0, 67, 48
1, 1045639, Note_off_c, 0, 80, 67
1, 1045639, Poly_aftertouch_c, 0, 80, 0
1, 1045653, Control_c, 0, 64, 58
1, 1045654, Control_c, 0, 67, 79
1, 1045672, Control_c, 0, 64, 127
1, 1045673, Control_c, 0, 67, 94
1, 1045680, Note_off_c, 0, 32, 59
1, 1045688, Control_c, 0, 67, 103
1, 1045765, Control_c, 0, 67, 107
1, 1045769, Note_on_c, 0, 44, 92
1, 1045785, Control_c, 0, 67, 114
1, 1045803, Control_c, 0, 64, 123
1, 1045804, Control_c, 0, 67, 127
1, 1045806, Note_off_c, 0, 44, 65
1, 1045821, Control_c, 0, 64, 79
1, 1045842, Control_c, 0, 64, 20
1, 1045859, Control_c, 0, 64, 0
1, 1046004, Note_on_c, 0, 60, 50
1, 1046012, Note_on_c, 0, 59, 55
1, 1046012, Note_on_c, 0, 68, 53
1, 1046037, Note_off_c, 0, 59, 58
1, 1046042, Note_off_c, 0, 60, 62
1, 1046042, Poly_aftertouch_c, 0, 60, 0
1, 1046046, Note_off_c, 0, 68, 56
1, 1046069, Note_on_c, 0, 72, 67
1, 1046089, Note_on_c, 0, 56, 68
1, 1046140, Note_off_c, 0, 56, 58
1, 1046140, Poly_aftertouch_c, 0, 56, 0
1, 1046141, Note_off_c, 0, 72, 61
1, 1046170, Note_on_c, 0, 65, 72
1, 1046173, Note_on_c, 0, 61, 65
1, 1046210, Note_off_c, 0, 61, 67
1, 1046234, Note_off_c, 0, 65, 55
1, 1046251, Note_on_c, 0, 53, 62
1, 1046262, Note_on_c, 0, 73, 68
1, 1046312, Note_off_c, 0, 53, 53
1, 1046345, Note_off_c, 0, 73, 62
1, 1046348, Note_on_c, 0, 58, 67
1, 1046349, Note_on_c, 0, 67, 71
1, 1046413, Note_off_c, 0, 58, 52
1, 1046430, Note_off_c, 0, 67, 53
1, 1046436, Note_on_c, 0, 70, 78
1, 1046448, Note_on_c, 0, 55, 56
1, 1046482, Note_off_c, 0, 55, 62
1, 1046502, Note_off_c, 0, 70, 64
1, 1046528, Note_on_c, 0, 60, 64
1, 1046540, Note_on_c, 0, 64, 65
1, 1046571, Note_off_c, 0, 60, 60
1, 1046571, Poly_aftertouch_c, 0, 60, 0
1, 1046597, Note_on_c, 0, 52, 62
1, 1046616, Note_on_c, 0, 72, 72
1, 1046633, Note_off_c, 0, 64, 40
1, 1046667, Note_off_c, 0, 52, 60
1, 1046688, Note_on_c, 0, 56, 77
1, 1046701, Note_on_c, 0, 65, 75
1, 1046707, Note_off_c, 0, 72, 61
1, 1046759, Note_off_c, 0, 56, 61
1, 1046759, Poly_aftertouch_c, 0, 56, 0
1, 1046775, Control_c, 0, 67, 119
1, 1046784, Note_on_c, 0, 53, 55
1, 1046793, Control_c, 0, 67, 110
1, 1046800, Note_on_c, 0, 68, 67
1, 1046809, Note_off_c, 0, 65, 61
1, 1046812, Control_c, 0, 67, 98
1, 1046831, Control_c, 0, 67, 84
1, 1046849, Control_c, 0, 67, 66
1, 1046853, Note_on_c, 0, 58, 76
1, 1046864, Note_off_c, 0, 68, 52
1, 1046869, Note_off_c, 0, 53, 60
1, 1046870, Control_c, 0, 67, 45
1, 1046886, Control_c, 0, 67, 23
1, 1046890, Note_on_c, 0, 62, 68
1, 1046924, Control_c, 0, 67, 0
1, 1046943, Note_off_c, 0, 58, 61
1, 1046954, Note_on_c, 0, 70, 53
1, 1046977, Note_on_c, 0, 50, 51
1, 1047007, Note_off_c, 0, 62, 59
1, 1047020, Poly_aftertouch_c, 0, 64, 0
1, 1047028, Note_off_c, 0, 50, 60
1, 1047028, Poly_aftertouch_c, 0, 50, 0
1, 1047033, Note_off_c, 0, 70, 61
1, 1047037, Note_on_c, 0, 67, 82
1, 1047043, Note_on_c, 0, 51, 76
1, 1047065, Note_off_c, 0, 67, 67
1, 1047073, Note_off_c, 0, 51, 68
1, 1047073, Poly_aftertouch_c, 0, 51, 0
1, 1047243, Note_on_c, 0, 79, 94
1, 1047245, Note_on_c, 0, 75, 86
1, 1047245, Note_on_c, 0, 70, 87
1, 1047247, Note_on_c, 0, 67, 85
1, 1047248, Note_on_c, 0, 51, 97
1, 1047251, Note_on_c, 0, 39, 92
1, 1047274, Note_off_c, 0, 75, 74
1, 1047276, Note_off_c, 0, 70, 75
1, 1047279, Note_off_c, 0, 67, 71
1, 1047286, Control_c, 0, 64, 72
1, 1047287, Control_c, 0, 67, 49
1, 1047288, Note_off_c, 0, 39, 68
1, 1047294, Note_off_c, 0, 79, 61
1, 1047294, Poly_aftertouch_c, 0, 79, 0
1, 1047296, Note_off_c, 0, 51, 62
1, 1047296, Poly_aftertouch_c, 0, 51, 0
1, 1047297, Control_c, 0, 64, 127
1, 1047300, Control_c, 0, 67, 107
1, 1047318, Control_c, 0, 67, 127
1, 1047413, Control_c, 0, 64, 113
1, 1047429, Control_c, 0, 64, 78
1, 1047448, Control_c, 0, 64, 43
1, 1047464, Note_on_c, 0, 63, 80
1, 1047465, Control_c, 0, 64, 0
1, 1047490, Note_on_c, 0, 79, 71
1, 1047499, Note_on_c, 0, 81, 59
1, 1047522, Note_off_c, 0, 81, 65
1, 1047556, Note_off_c, 0, 79, 62
1, 1047556, Poly_aftertouch_c, 0, 79, 0
1, 1047561, Note_on_c, 0, 75, 80
1, 1047565, Note_on_c, 0, 67, 75
1, 1047569, Note_off_c, 0, 63, 59
1, 1047569, Poly_aftertouch_c, 0, 63, 0
1, 1047631, Note_off_c, 0, 67, 62
1, 1047653, Note_on_c, 0, 80, 82
1, 1047655, Note_on_c, 0, 60, 72
1, 1047664, Note_off_c, 0, 75, 64
1, 1047735, Note_on_c, 0, 68, 70
1, 1047738, Note_on_c, 0, 72, 71
1, 1047750, Note_off_c, 0, 60, 63
1, 1047750, Poly_aftertouch_c, 0, 60, 0
1, 1047759, Note_off_c, 0, 80, 65
1, 1047759, Poly_aftertouch_c, 0, 80, 0
1, 1047786, Note_off_c, 0, 68, 60
1, 1047822, Note_on_c, 0, 62, 61
1, 1047822, Note_on_c, 0, 77, 80
1, 1047866, Note_off_c, 0, 72, 59
1, 1047877, Poly_aftertouch_c, 0, 63, 0
1, 1047887, Note_off_c, 0, 62, 59
1, 1047911, Note_off_c, 0, 77, 60
1, 1047912, Note_on_c, 0, 74, 79
1, 1047919, Note_on_c, 0, 65, 61
1, 1047963, Note_off_c, 0, 65, 62
1, 1047985, Note_off_c, 0, 74, 64
1, 1047999, Note_on_c, 0, 79, 79
1, 1048016, Note_on_c, 0, 59, 64
1, 1048065, Note_off_c, 0, 59, 62
1, 1048087, Note_on_c, 0, 67, 65
1, 1048090, Note_on_c, 0, 71, 66
1, 1048097, Note_off_c, 0, 79, 60
1, 1048097, Poly_aftertouch_c, 0, 79, 0
1, 1048149, Note_off_c, 0, 67, 57
1, 1048174, Note_on_c, 0, 75, 73
1, 1048184, Note_on_c, 0, 60, 58
1, 1048195, Note_off_c, 0, 71, 58
1, 1048230, Note_off_c, 0, 60, 62
1, 1048230, Poly_aftertouch_c, 0, 60, 0
1, 1048260, Note_on_c, 0, 63, 64
1, 1048261, Note_off_c, 0, 75, 60
1, 1048268, Note_on_c, 0, 72, 65
1, 1048323, Note_off_c, 0, 72, 61
1, 1048330, Note_off_c, 0, 63, 55
1, 1048334, Note_on_c, 0, 77, 74
1, 1048347, Control_c, 0, 67, 121
1, 1048353, Note_on_c, 0, 57, 62
1, 1048365, Control_c, 0, 67, 114
1, 1048383, Control_c, 0, 67, 106
1, 1048399, Note_off_c, 0, 57, 62
1, 1048399, Poly_aftertouch_c, 0, 57, 0
1, 1048401, Control_c, 0, 67, 96
1, 1048419, Note_on_c, 0, 69, 68
1, 1048420, Control_c, 0, 67, 84
1, 1048425, Note_on_c, 0, 65, 57
1, 1048439, Control_c, 0, 67, 72
1, 1048458, Control_c, 0, 67, 59
1, 1048459, Note_off_c, 0, 77, 56
1, 1048476, Control_c, 0, 67, 43
1, 1048481, Note_on_c, 0, 73, 73
1, 1048497, Note_off_c, 0, 69, 62
1, 1048497, Control_c, 0, 67, 22
1, 1048508, Note_off_c, 0, 65, 60
1, 1048510, Note_on_c, 0, 58, 58
1, 1048516, Note_off_c, 0, 73, 67
1, 1048533, Control_c, 0, 67, 0
1, 1048537, Note_off_c, 0, 58, 61
1, 1048683, Control_c, 0, 67, 11
1, 1048687, Note_on_c, 0, 82, 88
1, 1048694, Note_on_c, 0, 70, 89
1, 1048695, Note_on_c, 0, 73, 90
1, 1048697, Note_on_c, 0, 77, 76
1, 1048697, Note_on_c, 0, 58, 86
1, 1048700, Control_c, 0, 67, 19
1, 1048705, Note_on_c, 0, 46, 90
1, 1048721, Control_c, 0, 64, 50
1, 1048722, Control_c, 0, 67, 36
1, 1048739, Control_c, 0, 64, 79
1, 1048740, Control_c, 0, 67, 59
1, 1048758, Control_c, 0, 64, 104
1, 1048760, Control_c, 0, 67, 84
1, 1048762, Note_off_c, 0, 46, 61
1, 1048767, Note_off_c, 0, 82, 65
1, 1048773, Note_off_c, 0, 58, 64
1, 1048776, Control_c, 0, 64, 127
1, 1048777, Control_c, 0, 67, 109
1, 1048783, Note_off_c, 0, 77, 60
1, 1048785, Note_off_c, 0, 73, 61
1, 1048794, Control_c, 0, 67, 127
1, 1048820, Note_off_c, 0, 70, 64
1, 1048869, Control_c, 0, 64, 116
1, 1048889, Control_c, 0, 64, 79
1, 1048904, Note_on_c, 0, 61, 74
1, 1048906, Control_c, 0, 64, 40
1, 1048926, Note_on_c, 0, 70, 70
1, 1048926, Control_c, 0, 64, 0
1, 1048954, Note_off_c, 0, 61, 60
1, 1048974, Note_off_c, 0, 70, 59
1, 1049005, Note_on_c, 0, 58, 70
1, 1049005, Note_on_c, 0, 73, 73
1, 1049068, Note_off_c, 0, 73, 62
1, 1049074, Note_off_c, 0, 58, 61
1, 1049088, Note_on_c, 0, 63, 68
1, 1049098, Note_on_c, 0, 67, 65
1, 1049131, Note_off_c, 0, 63, 64
1, 1049167, Note_on_c, 0, 75, 74
1, 1049174, Note_on_c, 0, 55, 57
1, 1049180, Note_off_c, 0, 67, 54
1, 1049230, Note_off_c, 0, 55, 63
1, 1049254, Note_on_c, 0, 68, 68
1, 1049256, Note_on_c, 0, 60, 61
1, 1049294, Note_off_c, 0, 75, 58
1, 1049306, Note_off_c, 0, 60, 61
1, 1049306, Poly_aftertouch_c, 0, 60, 0
1, 1049350, Note_on_c, 0, 56, 65
1, 1049353, Note_off_c, 0, 68, 58
1, 1049353, Note_on_c, 0, 72, 58
1, 1049381, Note_on_c, 0, 73, 12
1, 1049386, Note_off_c, 0, 72, 54
1, 1049402, Note_off_c, 0, 56, 60
1, 1049402, Poly_aftertouch_c, 0, 56, 0
1, 1049422, Note_on_c, 0, 61, 67
1, 1049426, Note_off_c, 0, 73, 30
1, 1049431, Note_on_c, 0, 65, 68
1, 1049467, Note_off_c, 0, 61, 59
1, 1049524, Note_on_c, 0, 73, 75
1, 1049526, Note_off_c, 0, 65, 44
1, 1049526, Note_on_c, 0, 53, 52
1, 1049531, Note_on_c, 0, 52, 39
1, 1049575, Note_off_c, 0, 53, 62
1, 1049577, Note_off_c, 0, 52, 54
1, 1049584, Note_on_c, 0, 58, 73
1, 1049596, Note_on_c, 0, 67, 69
1, 1049603, Note_off_c, 0, 73, 61
1, 1049693, Note_off_c, 0, 58, 59
1, 1049698, Note_on_c, 0, 70, 70
1, 1049699, Note_on_c, 0, 52, 53
1, 1049700, Note_off_c, 0, 67, 57
1, 1049730, Control_c, 0, 67, 122
1, 1049745, Note_off_c, 0, 70, 58
1, 1049749, Control_c, 0, 64, 26
1, 1049750, Control_c, 0, 67, 110
1, 1049751, Note_on_c, 0, 60, 69
1, 1049751, Note_on_c, 0, 72, 67
1, 1049758, Note_off_c, 0, 52, 57
1, 1049768, Control_c, 0, 64, 44
1, 1049768, Control_c, 0, 67, 95
1, 1049787, Control_c, 0, 64, 57
1, 1049788, Control_c, 0, 67, 77
1, 1049804, Control_c, 0, 64, 67
1, 1049806, Control_c, 0, 67, 60
1, 1049810, Note_on_c, 0, 64, 61
1, 1049824, Control_c, 0, 64, 71
1, 1049826, Control_c, 0, 67, 44
1, 1049841, Control_c, 0, 67, 29
1, 1049853, Note_off_c, 0, 60, 62
1, 1049853, Poly_aftertouch_c, 0, 60, 0
1, 1049860, Control_c, 0, 67, 15
1, 1049892, Note_on_c, 0, 68, 78
1, 1049896, Note_on_c, 0, 53, 65
1, 1049898, Note_off_c, 0, 72, 63
1, 1049906, Note_off_c, 0, 64, 60
1, 1049917, Control_c, 0, 64, 60
1, 1049935, Control_c, 0, 64, 38
1, 1049937, Note_off_c, 0, 53, 65
1, 1049945, Note_off_c, 0, 68, 62
1, 1049954, Control_c, 0, 64, 0
1, 1050066, Control_c, 0, 67, 8
1, 1050123, Control_c, 0, 67, 13
1, 1050141, Control_c, 0, 67, 21
1, 1050151, Note_on_c, 0, 80, 78
1, 1050154, Note_on_c, 0, 68, 64
1, 1050154, Note_on_c, 0, 72, 61
1, 1050160, Control_c, 0, 64, 38
1, 1050161, Control_c, 0, 67, 41
1, 1050163, Note_on_c, 0, 77, 62
1, 1050165, Note_on_c, 0, 41, 56
1, 1050179, Note_off_c, 0, 72, 63
1, 1050179, Control_c, 0, 64, 68
1, 1050180, Control_c, 0, 67, 75
1, 1050187, Note_on_c, 0, 55, 38
1, 1050188, Note_off_c, 0, 68, 68
1, 1050191, Note_off_c, 0, 77, 61
1, 1050197, Control_c, 0, 64, 83
1, 1050199, Control_c, 0, 67, 114
1, 1050204, Poly_aftertouch_c, 0, 53, 0
1, 1050207, Note_off_c, 0, 80, 66
1, 1050207, Poly_aftertouch_c, 0, 80, 0
1, 1050209, Note_off_c, 0, 41, 33
1, 1050216, Control_c, 0, 64, 93
1, 1050219, Control_c, 0, 67, 127
1, 1050228, Note_off_c, 0, 55, 34
1, 1050234, Control_c, 0, 64, 99
1, 1050273, Poly_aftertouch_c, 0, 53, 0
1, 1050367, Control_c, 0, 64, 91
1, 1050384, Control_c, 0, 64, 84
1, 1050402, Control_c, 0, 64, 73
1, 1050421, Note_on_c, 0, 80, 57
1, 1050421, Control_c, 0, 64, 63
1, 1050440, Control_c, 0, 64, 54
1, 1050456, Control_c, 0, 64, 45
1, 1050477, Control_c, 0, 64, 33
1, 1050478, Note_off_c, 0, 80, 59
1, 1050478, Poly_aftertouch_c, 0, 80, 0
1, 1050497, Control_c, 0, 64, 19
1, 1050504, Poly_aftertouch_c, 0, 65, 127
1, 1050513, Note_on_c, 0, 68, 58
1, 1050517, Note_on_c, 0, 77, 46
1, 1050519, Poly_aftertouch_c, 0, 64, 0
1, 1050532, Note_on_c, 0, 76, 51
1, 1050533, Poly_aftertouch_c, 0, 65, 0
1, 1050534, Control_c, 0, 64, 0
1, 1050556, Note_off_c, 0, 68, 65
1, 1050566, Note_off_c, 0, 76, 55
1, 1050572, Note_off_c, 0, 77, 60
1, 1050590, Note_on_c, 0, 62, 57
1, 1050593, Note_on_c, 0, 82, 76
1, 1050660, Note_off_c, 0, 62, 59
1, 1050689, Note_on_c, 0, 74, 64
1, 1050692, Note_off_c, 0, 82, 63
1, 1050703, Note_on_c, 0, 70, 57
1, 1050746, Note_off_c, 0, 70, 65
1, 1050746, Note_on_c, 0, 63, 66
1, 1050757, Note_on_c, 0, 79, 71
1, 1050779, Note_off_c, 0, 74, 57
1, 1050810, Note_off_c, 0, 79, 54
1, 1050810, Poly_aftertouch_c, 0, 79, 0
1, 1050832, Note_off_c, 0, 63, 60
1, 1050832, Note_on_c, 0, 67, 69
1, 1050840, Note_on_c, 0, 75, 74
1, 1050899, Note_off_c, 0, 67, 63
1, 1050926, Note_off_c, 0, 75, 61
1, 1050938, Note_on_c, 0, 60, 67
1, 1050938, Note_on_c, 0, 80, 77
1, 1051000, Note_on_c, 0, 68, 67
1, 1051011, Note_on_c, 0, 72, 72
1, 1051012, Note_off_c, 0, 60, 63
1, 1051012, Poly_aftertouch_c, 0, 60, 0
1, 1051031, Note_off_c, 0, 80, 64
1, 1051031, Poly_aftertouch_c, 0, 80, 0
1, 1051089, Note_off_c, 0, 68, 63
1, 1051099, Note_on_c, 0, 77, 77
1, 1051106, Note_on_c, 0, 62, 60
1, 1051112, Note_on_c, 0, 63, 52
1, 1051133, Note_off_c, 0, 72, 59
1, 1051157, Note_off_c, 0, 62, 62
1, 1051158, Note_off_c, 0, 63, 64
1, 1051183, Note_on_c, 0, 65, 58
1, 1051185, Note_off_c, 0, 77, 60
1, 1051189, Note_on_c, 0, 74, 77
1, 1051240, Note_off_c, 0, 65, 57
1, 1051262, Note_off_c, 0, 74, 63
1, 1051264, Note_on_c, 0, 79, 71
1, 1051267, Note_on_c, 0, 59, 70
1, 1051333, Note_off_c, 0, 59, 60
1, 1051337, Control_c, 0, 67, 122
1, 1051349, Note_on_c, 0, 67, 49
1, 1051350, Note_on_c, 0, 71, 66
1, 1051372, Note_off_c, 0, 79, 60
1, 1051372, Poly_aftertouch_c, 0, 79, 0
1, 1051375, Control_c, 0, 67, 118
1, 1051406, Note_off_c, 0, 67, 61
1, 1051411, Control_c, 0, 67, 111
1, 1051431, Note_on_c, 0, 75, 67
1, 1051431, Control_c, 0, 67, 106
1, 1051450, Control_c, 0, 64, 21
1, 1051451, Control_c, 0, 67, 101
1, 1051456, Note_on_c, 0, 60, 62
1, 1051461, Note_off_c, 0, 71, 56
1, 1051469, Control_c, 0, 64, 42
1, 1051470, Control_c, 0, 67, 96
1, 1051478, Note_off_c, 0, 75, 60
1, 1051488, Control_c, 0, 64, 58
1, 1051489, Control_c, 0, 67, 92
1, 1051490, Note_off_c, 0, 60, 66
1, 1051490, Poly_aftertouch_c, 0, 60, 0
1, 1051506, Control_c, 0, 64, 68
1, 1051563, Control_c, 0, 64, 66
1, 1051581, Control_c, 0, 64, 61
1, 1051599, Control_c, 0, 64, 53
1, 1051618, Control_c, 0, 64, 39
1, 1051637, Control_c, 0, 64, 13
1, 1051654, Control_c, 0, 64, 0
1, 1051659, Note_on_c, 0, 84, 69
1, 1051673, Note_on_c, 0, 75, 52
1, 1051680, Note_on_c, 0, 45, 60
1, 1051680, Note_on_c, 0, 77, 54
1, 1051688, Note_on_c, 0, 72, 50
1, 1051712, Control_c, 0, 64, 22
1, 1051713, Control_c, 0, 67, 87
1, 1051730, Control_c, 0, 64, 37
1, 1051731, Control_c, 0, 67, 83
1, 1051750, Control_c, 0, 64, 54
1, 1051751, Control_c, 0, 67, 75
1, 1051760, Note_off_c, 0, 75, 63
1, 1051767, Control_c, 0, 64, 67
1, 1051768, Control_c, 0, 67, 63
1, 1051778, Note_off_c, 0, 84, 62
1, 1051786, Control_c, 0, 64, 71
1, 1051786, Control_c, 0, 67, 49
1, 1051805, Control_c, 0, 67, 35
1, 1051815, Note_off_c, 0, 72, 55
1, 1051823, Control_c, 0, 64, 62
1, 1051825, Control_c, 0, 67, 17
1, 1051828, Note_off_c, 0, 45, 58
1, 1051828, Poly_aftertouch_c, 0, 45, 0
1, 1051844, Control_c, 0, 64, 43
1, 1051845, Control_c, 0, 67, 0
1, 1051856, Note_on_c, 0, 46, 75
1, 1051861, Control_c, 0, 64, 0
1, 1051864, Note_on_c, 0, 73, 75
1, 1051880, Note_off_c, 0, 77, 60
1, 1051882, Poly_aftertouch_c, 0, 78, 0
1, 1051894, Note_off_c, 0, 73, 65
1, 1051896, Note_off_c, 0, 46, 66
1, 1052050, Note_on_c, 0, 82, 87
1, 1052058, Note_on_c, 0, 70, 85
1, 1052059, Note_on_c, 0, 73, 80
1, 1052063, Note_on_c, 0, 77, 68
1, 1052064, Note_on_c, 0, 58, 78
1, 1052067, Control_c, 0, 64, 23
1, 1052068, Control_c, 0, 67, 22
1, 1052086, Control_c, 0, 64, 79
1, 1052086, Control_c, 0, 67, 18
1, 1052105, Control_c, 0, 64, 105
1, 1052123, Control_c, 0, 64, 125
1, 1052125, Control_c, 0, 67, 0
1, 1052128, Note_off_c, 0, 58, 64
1, 1052170, Note_off_c, 0, 73, 61
1, 1052178, Control_c, 0, 64, 120
1, 1052197, Control_c, 0, 64, 92
1, 1052217, Control_c, 0, 64, 49
1, 1052236, Control_c, 0, 64, 0
1, 1052246, Note_on_c, 0, 73, 77
1, 1052249, Note_on_c, 0, 43, 80
1, 1052268, Note_off_c, 0, 77, 61
1, 1052271, Note_off_c, 0, 82, 57
1, 1052280, Note_off_c, 0, 70, 62
1, 1052286, Note_off_c, 0, 73, 65
1, 1052294, Note_off_c, 0, 43, 62
1, 1052436, Note_on_c, 0, 82, 95
1, 1052442, Note_on_c, 0, 70, 99
1, 1052443, Note_on_c, 0, 75, 92
1, 1052450, Note_on_c, 0, 73, 83
1, 1052452, Note_on_c, 0, 55, 87
1, 1052460, Control_c, 0, 64, 60
1, 1052479, Control_c, 0, 64, 106
1, 1052481, Control_c, 0, 67, 21
1, 1052497, Control_c, 0, 64, 127
1, 1052514, Note_off_c, 0, 55, 64
1, 1052534, Control_c, 0, 67, 0
1, 1052561, Note_off_c, 0, 73, 57
1, 1052563, Note_off_c, 0, 82, 63
1, 1052570, Control_c, 0, 64, 120
1, 1052574, Note_off_c, 0, 70, 60
1, 1052591, Control_c, 0, 64, 74
1, 1052609, Control_c, 0, 64, 0
1, 1052634, Note_on_c, 0, 44, 88
1, 1052638, Note_on_c, 0, 72, 89
1, 1052667, Note_off_c, 0, 44, 68
1, 1052692, Note_off_c, 0, 75, 60
1, 1052706, Note_off_c, 0, 72, 61
1, 1052840, Note_on_c, 0, 75, 86
1, 1052841, Note_on_c, 0, 80, 91
1, 1052841, Note_on_c, 0, 72, 90
1, 1052842, Note_on_c, 0, 56, 99
1, 1052842, Note_on_c, 0, 68, 97
1, 1052871, Control_c, 0, 64, 92
1, 1052889, Control_c, 0, 64, 127
1, 1052890, Control_c, 0, 67, 22
1, 1052902, Note_off_c, 0, 56, 64
1, 1052902, Poly_aftertouch_c, 0, 56, 0
1, 1052909, Control_c, 0, 67, 13
1, 1052927, Control_c, 0, 67, 0
1, 1052937, Note_off_c, 0, 72, 60
1, 1052980, Note_off_c, 0, 68, 62
1, 1052984, Control_c, 0, 64, 110
1, 1052986, Note_off_c, 0, 80, 61
1, 1052986, Poly_aftertouch_c, 0, 80, 0
1, 1053002, Control_c, 0, 64, 68
1, 1053020, Control_c, 0, 64, 0
1, 1053042, Note_off_c, 0, 75, 62
1, 1053055, Note_on_c, 0, 39, 98
1, 1053057, Note_on_c, 0, 70, 90
1, 1053105, Note_off_c, 0, 39, 58
1, 1053148, Note_off_c, 0, 70, 58
1, 1053352, Note_on_c, 0, 79, 90
1, 1053353, Note_on_c, 0, 75, 89
1, 1053355, Note_on_c, 0, 67, 94
1, 1053356, Note_on_c, 0, 70, 89
1, 1053361, Note_on_c, 0, 51, 96
1, 1053395, Control_c, 0, 64, 58
1, 1053395, Control_c, 0, 67, 34
1, 1053415, Control_c, 0, 64, 127
1, 1053417, Control_c, 0, 67, 81
1, 1053432, Control_c, 0, 67, 119
1, 1053440, Note_off_c, 0, 51, 61
1, 1053440, Poly_aftertouch_c, 0, 51, 0
1, 1053446, Note_off_c, 0, 79, 62
1, 1053446, Poly_aftertouch_c, 0, 79, 0
1, 1053452, Control_c, 0, 67, 127
1, 1053453, Note_off_c, 0, 67, 61
1, 1053473, Note_off_c, 0, 70, 65
1, 1053486, Note_off_c, 0, 75, 65
1, 1053731, Control_c, 0, 64, 116
1, 1053750, Control_c, 0, 64, 94
1, 1053768, Control_c, 0, 64, 70
1, 1053775, Note_on_c, 0, 49, 59
1, 1053787, Control_c, 0, 64, 44
1, 1053806, Control_c, 0, 64, 0
1, 1053833, Note_off_c, 0, 49, 56
1, 1053833, Poly_aftertouch_c, 0, 49, 0
1, 1053884, Note_on_c, 0, 51, 63
1, 1053930, Note_off_c, 0, 51, 60
1, 1053930, Poly_aftertouch_c, 0, 51, 0
1, 1053970, Note_on_c, 0, 75, 77
1, 1053977, Note_on_c, 0, 63, 68
1, 1053982, Note_on_c, 0, 46, 58
1, 1053998, Note_off_c, 0, 75, 69
1, 1054012, Note_off_c, 0, 63, 68
1, 1054029, Note_off_c, 0, 46, 61
1, 1054078, Note_on_c, 0, 55, 44
1, 1054119, Note_off_c, 0, 55, 52
1, 1054168, Note_on_c, 0, 49, 55
1, 1054220, Note_off_c, 0, 49, 60
1, 1054220, Poly_aftertouch_c, 0, 49, 0
1, 1054274, Note_on_c, 0, 51, 53
1, 1054314, Note_off_c, 0, 51, 62
1, 1054314, Poly_aftertouch_c, 0, 51, 0
1, 1054364, Note_on_c, 0, 46, 56
1, 1054369, Note_on_c, 0, 79, 69
1, 1054375, Note_on_c, 0, 67, 59
1, 1054400, Note_off_c, 0, 79, 68
1, 1054400, Poly_aftertouch_c, 0, 79, 0
1, 1054403, Note_off_c, 0, 67, 62
1, 1054416, Note_off_c, 0, 46, 60
1, 1054472, Note_on_c, 0, 55, 44
1, 1054529, Note_off_c, 0, 55, 58
1, 1054555, Note_on_c, 0, 49, 48
1, 1054604, Note_off_c, 0, 49, 60
1, 1054604, Poly_aftertouch_c, 0, 49, 0
1, 1054623, Note_on_c, 0, 51, 51
1, 1054671, Note_off_c, 0, 51, 62
1, 1054671, Poly_aftertouch_c, 0, 51, 0
1, 1054735, Note_on_c, 0, 82, 74
1, 1054738, Note_on_c, 0, 46, 50
1, 1054748, Note_on_c, 0, 70, 58
1, 1054767, Note_off_c, 0, 82, 64
1, 1054786, Note_off_c, 0, 70, 64
1, 1054788, Note_off_c, 0, 46, 61
1, 1054841, Note_on_c, 0, 55, 41
1, 1054894, Note_off_c, 0, 55, 54
1, 1054924, Note_on_c, 0, 49, 53
1, 1054944, Note_on_c, 0, 79, 58
1, 1054970, Note_off_c, 0, 79, 63
1, 1054970, Poly_aftertouch_c, 0, 79, 0
1, 1054984, Note_off_c, 0, 49, 59
1, 1054984, Poly_aftertouch_c, 0, 49, 0
1, 1054987, Note_on_c, 0, 67, 13
1, 1054989, Note_off_c, 0, 67, 43
1, 1055043, Note_on_c, 0, 51, 43
1, 1055080, Note_off_c, 0, 51, 56
1, 1055080, Poly_aftertouch_c, 0, 51, 0
1, 1055126, Note_on_c, 0, 46, 55
1, 1055137, Note_on_c, 0, 75, 70
1, 1055156, Note_on_c, 0, 63, 54
1, 1055168, Note_off_c, 0, 75, 68
1, 1055184, Note_off_c, 0, 46, 57
1, 1055187, Note_off_c, 0, 63, 59
1, 1055229, Note_on_c, 0, 55, 43
1, 1055290, Note_off_c, 0, 55, 57
1, 1055316, Note_on_c, 0, 49, 50
1, 1055365, Note_off_c, 0, 49, 60
1, 1055365, Poly_aftertouch_c, 0, 49, 0
1, 1055397, Note_on_c, 0, 51, 57
1, 1055443, Note_off_c, 0, 51, 62
1, 1055443, Poly_aftertouch_c, 0, 51, 0
1, 1055486, Note_on_c, 0, 75, 74
1, 1055494, Note_on_c, 0, 63, 63
1, 1055503, Note_on_c, 0, 46, 53
1, 1055523, Note_off_c, 0, 75, 60
1, 1055534, Note_off_c, 0, 63, 66
1, 1055555, Note_off_c, 0, 46, 60
1, 1055598, Note_on_c, 0, 55, 48
1, 1055656, Note_off_c, 0, 55, 56
1, 1055675, Note_on_c, 0, 49, 60
1, 1055732, Note_off_c, 0, 49, 59
1, 1055732, Poly_aftertouch_c, 0, 49, 0
1, 1055764, Note_on_c, 0, 51, 59
1, 1055813, Note_off_c, 0, 51, 61
1, 1055813, Poly_aftertouch_c, 0, 51, 0
1, 1055860, Note_on_c, 0, 79, 82
1, 1055862, Note_on_c, 0, 46, 60
1, 1055870, Note_on_c, 0, 67, 67
1, 1055906, Note_off_c, 0, 67, 68
1, 1055910, Note_off_c, 0, 79, 57
1, 1055910, Poly_aftertouch_c, 0, 79, 0
1, 1055913, Note_off_c, 0, 46, 59
1, 1055959, Note_on_c, 0, 55, 55
1, 1056029, Note_off_c, 0, 55, 52
1, 1056047, Note_on_c, 0, 49, 59
1, 1056105, Note_off_c, 0, 49, 58
1, 1056105, Poly_aftertouch_c, 0, 49, 0
1, 1056143, Note_on_c, 0, 51, 60
1, 1056195, Note_off_c, 0, 51, 62
1, 1056195, Poly_aftertouch_c, 0, 51, 0
1, 1056227, Note_on_c, 0, 82, 79
1, 1056235, Note_on_c, 0, 70, 68
1, 1056244, Note_on_c, 0, 46, 66
1, 1056275, Note_off_c, 0, 82, 60
1, 1056276, Note_off_c, 0, 70, 61
1, 1056305, Note_off_c, 0, 46, 55
1, 1056349, Note_on_c, 0, 55, 49
1, 1056408, Note_off_c, 0, 55, 57
1, 1056423, Note_on_c, 0, 49, 57
1, 1056431, Note_on_c, 0, 79, 64
1, 1056437, Note_on_c, 0, 67, 64
1, 1056452, Note_off_c, 0, 79, 64
1, 1056452, Poly_aftertouch_c, 0, 79, 0
1, 1056473, Note_off_c, 0, 67, 66
1, 1056481, Control_c, 0, 67, 121
1, 1056482, Note_off_c, 0, 49, 59
1, 1056482, Poly_aftertouch_c, 0, 49, 0
1, 1056499, Control_c, 0, 67, 117
1, 1056517, Control_c, 0, 67, 109
1, 1056521, Note_on_c, 0, 51, 57
1, 1056536, Control_c, 0, 67, 99
1, 1056554, Control_c, 0, 67, 89
1, 1056568, Note_off_c, 0, 51, 59
1, 1056568, Poly_aftertouch_c, 0, 51, 0
1, 1056573, Control_c, 0, 64, 37
1, 1056574, Control_c, 0, 67, 80
1, 1056592, Control_c, 0, 64, 56
1, 1056594, Control_c, 0, 67, 71
1, 1056607, Note_on_c, 0, 46, 51
1, 1056607, Note_on_c, 0, 75, 66
1, 1056611, Control_c, 0, 64, 69
1, 1056612, Control_c, 0, 67, 59
1, 1056630, Control_c, 0, 64, 75
1, 1056632, Control_c, 0, 67, 46
1, 1056641, Note_off_c, 0, 75, 69
1, 1056649, Control_c, 0, 64, 78
1, 1056651, Control_c, 0, 67, 36
1, 1056667, Control_c, 0, 67, 28
1, 1056673, Note_off_c, 0, 46, 58
1, 1056686, Control_c, 0, 67, 24
1, 1056700, Note_on_c, 0, 55, 53
1, 1056723, Control_c, 0, 64, 75
1, 1056742, Note_off_c, 0, 55, 64
1, 1056742, Control_c, 0, 64, 73
1, 1056760, Control_c, 0, 64, 69
1, 1056779, Control_c, 0, 64, 64
1, 1056797, Control_c, 0, 64, 60
1, 1056815, Note_on_c, 0, 82, 69
1, 1056816, Control_c, 0, 64, 56
1, 1056836, Control_c, 0, 64, 51
1, 1056854, Control_c, 0, 64, 45
1, 1056873, Control_c, 0, 64, 39
1, 1056893, Control_c, 0, 64, 32
1, 1056910, Control_c, 0, 64, 24
1, 1056919, Note_on_c, 0, 85, 70
1, 1056929, Control_c, 0, 64, 18
1, 1056935, Note_off_c, 0, 82, 42
1, 1056947, Control_c, 0, 64, 11
1, 1056966, Control_c, 0, 64, 0
1, 1056975, Note_off_c, 0, 85, 56
1, 1056986, Note_on_c, 0, 51, 71
1, 1056992, Note_on_c, 0, 39, 67
1, 1057007, Note_on_c, 0, 79, 63
1, 1057028, Note_off_c, 0, 51, 62
1, 1057028, Poly_aftertouch_c, 0, 51, 0
1, 1057032, Note_off_c, 0, 39, 61
1, 1057077, Note_on_c, 0, 87, 71
1, 1057128, Note_off_c, 0, 79, 53
1, 1057128, Poly_aftertouch_c, 0, 79, 0
1, 1057170, Note_on_c, 0, 82, 76
1, 1057170, Control_c, 0, 67, 19
1, 1057187, Note_off_c, 0, 87, 60
1, 1057190, Control_c, 0, 67, 14
1, 1057247, Control_c, 0, 67, 0
1, 1057270, Note_on_c, 0, 85, 76
1, 1057279, Note_off_c, 0, 82, 52
1, 1057333, Note_off_c, 0, 85, 58
1, 1057338, Note_on_c, 0, 55, 80
1, 1057346, Note_on_c, 0, 43, 74
1, 1057359, Note_on_c, 0, 79, 71
1, 1057389, Note_off_c, 0, 43, 63
1, 1057402, Note_off_c, 0, 55, 60
1, 1057460, Note_on_c, 0, 87, 65
1, 1057538, Note_on_c, 0, 82, 74
1, 1057547, Note_off_c, 0, 79, 37
1, 1057547, Poly_aftertouch_c, 0, 79, 0
1, 1057557, Note_off_c, 0, 87, 60
1, 1057643, Note_on_c, 0, 85, 76
1, 1057644, Note_off_c, 0, 82, 54
1, 1057695, Control_c, 0, 67, 8
1, 1057711, Note_off_c, 0, 85, 61
1, 1057716, Note_on_c, 0, 58, 78
1, 1057724, Note_on_c, 0, 46, 75
1, 1057729, Note_on_c, 0, 79, 70
1, 1057753, Note_off_c, 0, 58, 68
1, 1057762, Note_off_c, 0, 46, 66
1, 1057828, Note_on_c, 0, 87, 67
1, 1057836, Note_off_c, 0, 79, 56
1, 1057836, Poly_aftertouch_c, 0, 79, 0
1, 1057896, Note_on_c, 0, 55, 66
1, 1057900, Note_on_c, 0, 43, 63
1, 1057905, Note_on_c, 0, 82, 71
1, 1057920, Note_off_c, 0, 87, 60
1, 1057932, Note_off_c, 0, 55, 67
1, 1057937, Note_off_c, 0, 43, 62
1, 1057975, Control_c, 0, 67, 12
1, 1058012, Note_off_c, 0, 82, 54
1, 1058012, Note_on_c, 0, 85, 74
1, 1058031, Control_c, 0, 67, 17
1, 1058071, Note_off_c, 0, 85, 55
1, 1058091, Note_on_c, 0, 51, 68
1, 1058095, Note_on_c, 0, 39, 60
1, 1058104, Note_on_c, 0, 79, 61
1, 1058124, Note_off_c, 0, 51, 65
1, 1058124, Poly_aftertouch_c, 0, 51, 0
1, 1058133, Note_off_c, 0, 39, 57
1, 1058180, Control_c, 0, 67, 12
1, 1058195, Note_on_c, 0, 87, 71
1, 1058204, Note_off_c, 0, 79, 53
1, 1058204, Poly_aftertouch_c, 0, 79, 0
1, 1058289, Note_on_c, 0, 82, 76
1, 1058293, Control_c, 0, 67, 0
1, 1058294, Note_off_c, 0, 87, 60
1, 1058373, Note_on_c, 0, 85, 81
1, 1058411, Note_off_c, 0, 82, 62
1, 1058425, Control_c, 0, 64, 8
1, 1058460, Note_on_c, 0, 63, 94
1, 1058461, Control_c, 0, 64, 19
1, 1058464, Note_on_c, 0, 51, 91
1, 1058465, Note_off_c, 0, 85, 62
1, 1058473, Note_on_c, 0, 79, 75
1, 1058481, Control_c, 0, 64, 29
1, 1058500, Control_c, 0, 64, 40
1, 1058517, Control_c, 0, 64, 49
1, 1058537, Control_c, 0, 64, 57
1, 1058545, Note_off_c, 0, 63, 62
1, 1058555, Control_c, 0, 64, 62
1, 1058558, Note_off_c, 0, 51, 60
1, 1058558, Poly_aftertouch_c, 0, 51, 0
1, 1058572, Note_on_c, 0, 87, 76
1, 1058572, Control_c, 0, 64, 63
1, 1058593, Note_off_c, 0, 79, 57
1, 1058593, Poly_aftertouch_c, 0, 79, 0
1, 1058611, Control_c, 0, 64, 61
1, 1058630, Control_c, 0, 64, 60
1, 1058648, Control_c, 0, 64, 58
1, 1058660, Note_on_c, 0, 82, 72
1, 1058666, Control_c, 0, 64, 56
1, 1058681, Note_off_c, 0, 87, 63
1, 1058686, Control_c, 0, 64, 53
1, 1058704, Control_c, 0, 64, 47
1, 1058724, Control_c, 0, 64, 40
1, 1058742, Control_c, 0, 64, 30
1, 1058754, Note_on_c, 0, 85, 78
1, 1058760, Control_c, 0, 64, 0
1, 1058776, Note_off_c, 0, 82, 60
1, 1058824, Note_off_c, 0, 85, 64
1, 1058846, Note_on_c, 0, 79, 79
1, 1058853, Note_on_c, 0, 67, 95
1, 1058855, Note_on_c, 0, 55, 93
1, 1058893, Control_c, 0, 64, 26
1, 1058910, Control_c, 0, 64, 43
1, 1058911, Control_c, 0, 67, 8
1, 1058929, Control_c, 0, 64, 55
1, 1058942, Note_off_c, 0, 55, 57
1, 1058944, Note_on_c, 0, 87, 76
1, 1058947, Control_c, 0, 64, 62
1, 1058950, Note_off_c, 0, 67, 64
1, 1058967, Control_c, 0, 64, 64
1, 1058970, Note_off_c, 0, 79, 58
1, 1058970, Poly_aftertouch_c, 0, 79, 0
1, 1059023, Control_c, 0, 64, 63
1, 1059036, Note_on_c, 0, 82, 76
1, 1059041, Control_c, 0, 64, 61
1, 1059056, Note_off_c, 0, 87, 62
1, 1059060, Control_c, 0, 64, 57
1, 1059079, Control_c, 0, 64, 51
1, 1059097, Control_c, 0, 64, 41
1, 1059116, Control_c, 0, 64, 29
1, 1059130, Note_on_c, 0, 85, 82
1, 1059134, Control_c, 0, 64, 16
1, 1059153, Control_c, 0, 64, 0
1, 1059154, Note_off_c, 0, 82, 57
1, 1059202, Note_off_c, 0, 85, 64
1, 1059233, Note_on_c, 0, 79, 77
1, 1059238, Note_on_c, 0, 70, 96
1, 1059242, Note_on_c, 0, 58, 91
1, 1059286, Note_off_c, 0, 58, 60
1, 1059289, Note_off_c, 0, 70, 67
1, 1059318, Note_on_c, 0, 87, 79
1, 1059344, Note_off_c, 0, 79, 61
1, 1059344, Poly_aftertouch_c, 0, 79, 0
1, 1059420, Note_on_c, 0, 82, 76
1, 1059427, Note_on_c, 0, 67, 88
1, 1059432, Note_off_c, 0, 87, 62
1, 1059432, Note_on_c, 0, 55, 84
1, 1059461, Note_off_c, 0, 67, 62
1, 1059463, Note_off_c, 0, 55, 70
1, 1059497, Note_on_c, 0, 85, 76
1, 1059532, Note_off_c, 0, 82, 60
1, 1059575, Note_off_c, 0, 85, 63
1, 1059601, Control_c, 0, 67, 12
1, 1059606, Note_on_c, 0, 79, 70
1, 1059623, Note_on_c, 0, 63, 76
1, 1059632, Note_on_c, 0, 51, 68
1, 1059639, Control_c, 0, 67, 18
1, 1059659, Control_c, 0, 67, 24
1, 1059660, Note_off_c, 0, 63, 64
1, 1059670, Note_off_c, 0, 51, 62
1, 1059670, Poly_aftertouch_c, 0, 51, 0
1, 1059677, Control_c, 0, 67, 32
1, 1059695, Control_c, 0, 67, 41
1, 1059698, Note_on_c, 0, 87, 70
1, 1059714, Control_c, 0, 67, 49
1, 1059734, Control_c, 0, 67, 54
1, 1059735, Note_off_c, 0, 79, 56
1, 1059735, Poly_aftertouch_c, 0, 79, 0
1, 1059752, Control_c, 0, 67, 59
1, 1059771, Control_c, 0, 67, 63
1, 1059786, Note_on_c, 0, 82, 70
1, 1059788, Control_c, 0, 67, 68
1, 1059797, Note_off_c, 0, 87, 60
1, 1059808, Control_c, 0, 67, 72
1, 1059827, Control_c, 0, 67, 76
1, 1059863, Control_c, 0, 67, 80
1, 1059880, Note_on_c, 0, 85, 70
1, 1059907, Note_off_c, 0, 82, 49
1, 1059955, Note_off_c, 0, 85, 64
1, 1059981, Note_on_c, 0, 79, 67
1, 1059982, Note_on_c, 0, 58, 73
1, 1059991, Note_on_c, 0, 46, 63
1, 1060020, Note_off_c, 0, 58, 64
1, 1060032, Note_off_c, 0, 46, 62
1, 1060071, Note_on_c, 0, 87, 74
1, 1060094, Note_off_c, 0, 79, 56
1, 1060094, Poly_aftertouch_c, 0, 79, 0
1, 1060171, Note_on_c, 0, 55, 66
1, 1060171, Note_on_c, 0, 43, 72
1, 1060177, Note_on_c, 0, 82, 76
1, 1060184, Control_c, 0, 67, 76
1, 1060194, Note_off_c, 0, 87, 61
1, 1060201, Note_off_c, 0, 43, 67
1, 1060202, Note_off_c, 0, 55, 67
1, 1060219, Control_c, 0, 67, 70
1, 1060238, Control_c, 0, 67, 64
1, 1060257, Control_c, 0, 67, 56
1, 1060263, Note_on_c, 0, 85, 74
1, 1060276, Control_c, 0, 67, 47
1, 1060295, Poly_aftertouch_c, 0, 44, 0
1, 1060295, Control_c, 0, 67, 36
1, 1060301, Note_off_c, 0, 82, 55
1, 1060312, Control_c, 0, 67, 23
1, 1060348, Note_off_c, 0, 85, 63
1, 1060349, Note_on_c, 0, 51, 86
1, 1060350, Control_c, 0, 67, 0
1, 1060365, Note_on_c, 0, 79, 81
1, 1060367, Control_c, 0, 64, 21
1, 1060381, Note_on_c, 0, 39, 53
1, 1060385, Note_off_c, 0, 51, 63
1, 1060385, Poly_aftertouch_c, 0, 51, 0
1, 1060387, Control_c, 0, 64, 37
1, 1060392, Note_on_c, 0, 40, 37
1, 1060406, Control_c, 0, 64, 50
1, 1060421, Note_off_c, 0, 39, 47
1, 1060424, Control_c, 0, 64, 62
1, 1060443, Note_off_c, 0, 40, 36
1, 1060443, Poly_aftertouch_c, 0, 40, 0
1, 1060444, Control_c, 0, 64, 70
1, 1060462, Control_c, 0, 64, 75
1, 1060467, Note_on_c, 0, 87, 81
1, 1060482, Control_c, 0, 64, 78
1, 1060501, Control_c, 0, 64, 80
1, 1060517, Note_off_c, 0, 79, 56
1, 1060517, Poly_aftertouch_c, 0, 79, 0
1, 1060517, Control_c, 0, 64, 83
1, 1060538, Control_c, 0, 64, 85
1, 1060546, Note_on_c, 0, 82, 85
1, 1060556, Control_c, 0, 64, 88
1, 1060584, Note_off_c, 0, 87, 64
1, 1060648, Note_on_c, 0, 85, 88
1, 1060650, Control_c, 0, 64, 81
1, 1060668, Control_c, 0, 64, 72
1, 1060687, Control_c, 0, 64, 62
1, 1060697, Note_off_c, 0, 82, 56
1, 1060704, Control_c, 0, 64, 53
1, 1060724, Control_c, 0, 64, 33
1, 1060736, Note_on_c, 0, 51, 96
1, 1060740, Note_on_c, 0, 39, 97
1, 1060743, Control_c, 0, 64, 0
1, 1060761, Note_off_c, 0, 85, 64
1, 1060764, Note_on_c, 0, 79, 90
1, 1060780, Note_on_c, 0, 87, 60
1, 1060785, Note_off_c, 0, 51, 65
1, 1060785, Poly_aftertouch_c, 0, 51, 0
1, 1060796, Note_off_c, 0, 39, 59
1, 1060804, Note_off_c, 0, 87, 63
1, 1060913, Note_on_c, 0, 87, 70
1, 1060960, Note_off_c, 0, 79, 41
1, 1060960, Poly_aftertouch_c, 0, 79, 0
1, 1060985, Note_on_c, 0, 56, 95
1, 1060990, Note_on_c, 0, 44, 101
1, 1061002, Note_on_c, 0, 84, 83
1, 1061002, Control_c, 0, 64, 37
1, 1061016, Note_on_c, 0, 85, 69
1, 1061022, Control_c, 0, 64, 96
1, 1061025, Note_on_c, 0, 43, 52
1, 1061028, Note_off_c, 0, 56, 65
1, 1061028, Poly_aftertouch_c, 0, 56, 0
1, 1061030, Note_off_c, 0, 87, 64
1, 1061038, Note_off_c, 0, 85, 64
1, 1061041, Control_c, 0, 64, 127
1, 1061044, Note_off_c, 0, 44, 55
1, 1061050, Note_off_c, 0, 84, 65
1, 1061065, Note_off_c, 0, 43, 55
1, 1061302, Note_on_c, 0, 80, 98
1, 1061306, Note_on_c, 0, 48, 96
1, 1061309, Note_on_c, 0, 36, 94
1, 1061342, Control_c, 0, 64, 115
1, 1061360, Control_c, 0, 64, 80
1, 1061380, Control_c, 0, 64, 46
1, 1061397, Control_c, 0, 64, 0
1, 1061420, Note_on_c, 0, 79, 88
1, 1061459, Note_off_c, 0, 80, 62
1, 1061459, Poly_aftertouch_c, 0, 80, 0
1, 1061503, Note_off_c, 0, 79, 64
1, 1061503, Note_on_c, 0, 77, 78
1, 1061503, Poly_aftertouch_c, 0, 79, 0
1, 1061510, Control_c, 0, 64, 24
1, 1061528, Control_c, 0, 64, 43
1, 1061547, Control_c, 0, 64, 58
1, 1061566, Control_c, 0, 64, 67
1, 1061584, Control_c, 0, 64, 72
1, 1061585, Note_on_c, 0, 75, 84
1, 1061598, Note_off_c, 0, 77, 62
1, 1061602, Control_c, 0, 64, 76
1, 1061622, Control_c, 0, 64, 79
1, 1061641, Control_c, 0, 64, 83
1, 1061659, Control_c, 0, 64, 87
1, 1061672, Note_on_c, 0, 73, 87
1, 1061678, Control_c, 0, 64, 93
1, 1061698, Control_c, 0, 64, 99
1, 1061716, Note_off_c, 0, 75, 64
1, 1061716, Control_c, 0, 64, 103
1, 1061725, Note_off_c, 0, 48, 57
1, 1061725, Poly_aftertouch_c, 0, 48, 0
1, 1061749, Note_off_c, 0, 73, 65
1, 1061756, Note_on_c, 0, 72, 80
1, 1061827, Control_c, 0, 64, 99
1, 1061847, Control_c, 0, 64, 81
1, 1061856, Note_off_c, 0, 36, 61
1, 1061860, Note_on_c, 0, 70, 87
1, 1061862, Note_on_c, 0, 49, 92
1, 1061862, Note_on_c, 0, 37, 82
1, 1061865, Control_c, 0, 64, 52
1, 1061885, Control_c, 0, 64, 0
1, 1061891, Note_off_c, 0, 72, 62
1, 1061962, Note_on_c, 0, 68, 80
1, 1061977, Control_c, 0, 64, 16
1, 1061996, Control_c, 0, 64, 42
1, 1062001, Note_off_c, 0, 70, 64
1, 1062014, Control_c, 0, 64, 60
1, 1062033, Control_c, 0, 64, 71
1, 1062050, Note_on_c, 0, 67, 78
1, 1062051, Control_c, 0, 64, 74
1, 1062120, Note_off_c, 0, 49, 54
1, 1062120, Poly_aftertouch_c, 0, 49, 0
1, 1062126, Control_c, 0, 64, 69
1, 1062128, Note_off_c, 0, 68, 58
1, 1062140, Note_on_c, 0, 65, 77
1, 1062144, Control_c, 0, 64, 54
1, 1062147, Note_off_c, 0, 67, 62
1, 1062164, Control_c, 0, 64, 17
1, 1062184, Control_c, 0, 64, 0
1, 1062218, Note_off_c, 0, 37, 62
1, 1062224, Note_on_c, 0, 39, 80
1, 1062228, Note_on_c, 0, 51, 89
1, 1062242, Note_on_c, 0, 63, 85
1, 1062257, Note_off_c, 0, 65, 61
1, 1062257, Control_c, 0, 64, 38
1, 1062277, Control_c, 0, 64, 63
1, 1062295, Control_c, 0, 64, 81
1, 1062298, Note_off_c, 0, 51, 63
1, 1062298, Poly_aftertouch_c, 0, 51, 0
1, 1062301, Note_off_c, 0, 39, 61
1, 1062314, Control_c, 0, 64, 92
1, 1062327, Note_on_c, 0, 61, 87
1, 1062332, Control_c, 0, 64, 101
1, 1062350, Note_off_c, 0, 63, 60
1, 1062405, Control_c, 0, 64, 90
1, 1062408, Note_off_c, 0, 61, 62
1, 1062408, Note_on_c, 0, 60, 80
1, 1062427, Control_c, 0, 64, 69
1, 1062444, Control_c, 0, 64, 32
1, 1062463, Control_c, 0, 64, 0
1, 1062502, Note_on_c, 0, 58, 82
1, 1062517, Note_off_c, 0, 60, 62
1, 1062517, Poly_aftertouch_c, 0, 60, 0
1, 1062578, Note_on_c, 0, 53, 84
1, 1062579, Note_on_c, 0, 41, 85
1, 1062587, Note_on_c, 0, 56, 93
1, 1062613, Control_c, 0, 64, 42
1, 1062615, Note_off_c, 0, 58, 65
1, 1062623, Note_off_c, 0, 53, 63
1, 1062629, Note_off_c, 0, 56, 65
1, 1062629, Poly_aftertouch_c, 0, 56, 0
1, 1062629, Control_c, 0, 64, 83
1, 1062635, Note_off_c, 0, 41, 64
1, 1062650, Control_c, 0, 64, 110
1, 1062668, Control_c, 0, 64, 127
1, 1062893, Control_c, 0, 64, 112
1, 1062898, Note_on_c, 0, 84, 92
1, 1062901, Note_on_c, 0, 48, 88
1, 1062907, Note_on_c, 0, 36, 88
1, 1062912, Control_c, 0, 64, 74
1, 1062930, Control_c, 0, 64, 30
1, 1062949, Control_c, 0, 64, 0
1, 1062981, Note_on_c, 0, 82, 85
1, 1063024, Control_c, 0, 64, 27
1, 1063043, Control_c, 0, 64, 56
1, 1063052, Note_off_c, 0, 84, 60
1, 1063053, Note_on_c, 0, 80, 84
1, 1063062, Control_c, 0, 64, 78
1, 1063080, Control_c, 0, 64, 94
1, 1063099, Control_c, 0, 64, 111
1, 1063101, Note_off_c, 0, 82, 64
1, 1063118, Control_c, 0, 64, 121
1, 1063120, Note_on_c, 0, 79, 86
1, 1063157, Note_off_c, 0, 80, 63
1, 1063157, Poly_aftertouch_c, 0, 80, 0
1, 1063168, Note_on_c, 0, 77, 80
1, 1063181, Note_off_c, 0, 79, 62
1, 1063181, Poly_aftertouch_c, 0, 79, 0
1, 1063235, Note_off_c, 0, 77, 52
1, 1063245, Note_on_c, 0, 75, 87
1, 1063267, Note_off_c, 0, 48, 57
1, 1063267, Poly_aftertouch_c, 0, 48, 0
1, 1063302, Note_on_c, 0, 73, 84
1, 1063332, Note_off_c, 0, 75, 63
1, 1063367, Note_on_c, 0, 72, 82
1, 1063370, Note_off_c, 0, 73, 65
1, 1063435, Control_c, 0, 64, 113
1, 1063454, Note_on_c, 0, 70, 88
1, 1063456, Note_off_c, 0, 36, 61
1, 1063456, Control_c, 0, 64, 96
1, 1063460, Note_on_c, 0, 49, 88
1, 1063465, Note_on_c, 0, 37, 82
1, 1063473, Note_off_c, 0, 72, 58
1, 1063474, Control_c, 0, 64, 71
1, 1063491, Control_c, 0, 64, 41
1, 1063511, Control_c, 0, 64, 0
1, 1063551, Note_on_c, 0, 68, 80
1, 1063601, Note_off_c, 0, 70, 67
1, 1063648, Note_on_c, 0, 67, 82
1, 1063660, Control_c, 0, 64, 39
1, 1063677, Control_c, 0, 64, 56
1, 1063695, Note_off_c, 0, 68, 64
1, 1063697, Control_c, 0, 64, 68
1, 1063716, Note_off_c, 0, 49, 52
1, 1063716, Poly_aftertouch_c, 0, 49, 0
1, 1063716, Control_c, 0, 64, 73
1, 1063737, Note_on_c, 0, 65, 79
1, 1063742, Note_off_c, 0, 67, 62
1, 1063753, Control_c, 0, 64, 71
1, 1063772, Control_c, 0, 64, 62
1, 1063791, Control_c, 0, 64, 43
1, 1063809, Control_c, 0, 64, 0
1, 1063820, Note_off_c, 0, 37, 62
1, 1063822, Note_on_c, 0, 39, 79
1, 1063827, Note_on_c, 0, 51, 84
1, 1063834, Note_on_c, 0, 63, 84
1, 1063857, Note_off_c, 0, 65, 61
1, 1063903, Control_c, 0, 64, 43
1, 1063905, Control_c, 0, 67, 9
1, 1063910, Note_off_c, 0, 39, 60
1, 1063911, Note_off_c, 0, 51, 60
1, 1063911, Poly_aftertouch_c, 0, 51, 0
1, 1063921, Note_on_c, 0, 61, 85
1, 1063922, Control_c, 0, 64, 66
1, 1063940, Control_c, 0, 64, 83
1, 1063945, Note_off_c, 0, 63, 61
1, 1063959, Control_c, 0, 64, 95
1, 1063979, Control_c, 0, 64, 105
1, 1063997, Control_c, 0, 64, 109
1, 1063998, Note_on_c, 0, 60, 80
1, 1064001, Note_off_c, 0, 61, 64
1, 1064014, Control_c, 0, 67, 0
1, 1064052, Control_c, 0, 64, 102
1, 1064071, Control_c, 0, 64, 80
1, 1064082, Note_on_c, 0, 58, 87
1, 1064090, Control_c, 0, 64, 41
1, 1064105, Note_off_c, 0, 60, 63
1, 1064105, Poly_aftertouch_c, 0, 60, 0
1, 1064108, Control_c, 0, 64, 0
1, 1064162, Note_on_c, 0, 53, 77
1, 1064166, Note_on_c, 0, 41, 74
1, 1064173, Note_on_c, 0, 56, 93
1, 1064195, Note_off_c, 0, 58, 64
1, 1064200, Note_off_c, 0, 53, 65
1, 1064201, Control_c, 0, 64, 43
1, 1064211, Note_off_c, 0, 41, 65
1, 1064217, Note_off_c, 0, 56, 67
1, 1064217, Poly_aftertouch_c, 0, 56, 0
1, 1064219, Control_c, 0, 64, 72
1, 1064240, Control_c, 0, 64, 94
1, 1064258, Control_c, 0, 64, 127
1, 1064301, Poly_aftertouch_c, 0, 43, 0
1, 1064539, Note_on_c, 0, 48, 89
1, 1064544, Note_on_c, 0, 36, 88
1, 1064549, Note_on_c, 0, 87, 92
1, 1064576, Control_c, 0, 64, 87
1, 1064595, Control_c, 0, 64, 30
1, 1064613, Control_c, 0, 64, 0
1, 1064630, Note_on_c, 0, 85, 88
1, 1064669, Control_c, 0, 64, 45
1, 1064682, Note_off_c, 0, 87, 62
1, 1064687, Control_c, 0, 64, 81
1, 1064707, Control_c, 0, 64, 124
1, 1064717, Note_on_c, 0, 84, 80
1, 1064718, Note_off_c, 0, 85, 65
1, 1064767, Note_off_c, 0, 84, 63
1, 1064788, Note_on_c, 0, 82, 87
1, 1064851, Note_on_c, 0, 80, 84
1, 1064893, Note_off_c, 0, 82, 64
1, 1064916, Note_on_c, 0, 79, 83
1, 1064952, Note_off_c, 0, 80, 65
1, 1064952, Poly_aftertouch_c, 0, 80, 0
1, 1064977, Note_on_c, 0, 77, 81
1, 1064978, Note_off_c, 0, 79, 62
1, 1064978, Poly_aftertouch_c, 0, 79, 0
1, 1065049, Note_off_c, 0, 48, 58
1, 1065049, Poly_aftertouch_c, 0, 48, 0
1, 1065050, Note_on_c, 0, 75, 88
1, 1065062, Note_off_c, 0, 77, 57
1, 1065122, Note_on_c, 0, 73, 84
1, 1065148, Note_off_c, 0, 75, 63
1, 1065189, Note_off_c, 0, 73, 65
1, 1065190, Note_on_c, 0, 72, 83
1, 1065256, Note_on_c, 0, 49, 83
1, 1065267, Control_c, 0, 64, 108
1, 1065268, Note_on_c, 0, 37, 77
1, 1065276, Note_on_c, 0, 70, 88
1, 1065286, Control_c, 0, 64, 75
1, 1065295, Note_off_c, 0, 36, 58
1, 1065306, Control_c, 0, 64, 39
1, 1065310, Note_off_c, 0, 72, 60
1, 1065324, Control_c, 0, 64, 0
1, 1065371, Note_on_c, 0, 68, 81
1, 1065426, Note_off_c, 0, 70, 66
1, 1065436, Control_c, 0, 64, 20
1, 1065454, Control_c, 0, 64, 44
1, 1065458, Note_on_c, 0, 67, 83
1, 1065474, Control_c, 0, 64, 61
1, 1065492, Control_c, 0, 64, 73
1, 1065497, Note_off_c, 0, 49, 57
1, 1065497, Poly_aftertouch_c, 0, 49, 0
1, 1065505, Note_off_c, 0, 68, 64
1, 1065511, Control_c, 0, 64, 80
1, 1065531, Control_c, 0, 64, 86
1, 1065544, Note_off_c, 0, 67, 61
1, 1065546, Note_on_c, 0, 65, 80
1, 1065547, Control_c, 0, 64, 92
1, 1065567, Control_c, 0, 64, 97
1, 1065622, Control_c, 0, 64, 93
1, 1065627, Note_off_c, 0, 37, 61
1, 1065638, Note_on_c, 0, 51, 76
1, 1065638, Note_on_c, 0, 39, 71
1, 1065642, Control_c, 0, 64, 88
1, 1065646, Note_on_c, 0, 63, 80
1, 1065660, Control_c, 0, 64, 82
1, 1065661, Note_off_c, 0, 65, 63
1, 1065680, Control_c, 0, 64, 78
1, 1065715, Note_off_c, 0, 51, 60
1, 1065715, Poly_aftertouch_c, 0, 51, 0
1, 1065727, Note_on_c, 0, 61, 80
1, 1065750, Note_off_c, 0, 63, 62
1, 1065750, Poly_aftertouch_c, 0, 42, 0
1, 1065753, Control_c, 0, 64, 81
1, 1065755, Note_off_c, 0, 39, 60
1, 1065792, Control_c, 0, 64, 83
1, 1065807, Note_off_c, 0, 61, 63
1, 1065815, Note_on_c, 0, 60, 75
1, 1065920, Note_on_c, 0, 58, 76
1, 1065922, Note_off_c, 0, 60, 61
1, 1065922, Poly_aftertouch_c, 0, 60, 0
1, 1065925, Control_c, 0, 67, 10
1, 1065943, Control_c, 0, 64, 81
1, 1065943, Control_c, 0, 67, 14
1, 1065959, Control_c, 0, 67, 19
1, 1065979, Control_c, 0, 64, 77
1, 1065981, Control_c, 0, 67, 27
1, 1065998, Control_c, 0, 64, 73
1, 1065999, Control_c, 0, 67, 36
1, 1066016, Control_c, 0, 64, 66
1, 1066018, Control_c, 0, 67, 46
1, 1066031, Note_on_c, 0, 32, 82
1, 1066033, Control_c, 0, 64, 57
1, 1066034, Control_c, 0, 67, 58
1, 1066036, Note_on_c, 0, 56, 76
1, 1066054, Control_c, 0, 64, 40
1, 1066056, Control_c, 0, 67, 72
1, 1066072, Control_c, 0, 64, 0
1, 1066073, Control_c, 0, 67, 88
1, 1066079, Note_off_c, 0, 58, 59
1, 1066090, Control_c, 0, 67, 107
1, 1066109, Control_c, 0, 67, 127
1, 1066120, Note_off_c, 0, 56, 62
1, 1066120, Poly_aftertouch_c, 0, 56, 0
1, 1066221, Control_c, 0, 64, 27
1, 1066240, Control_c, 0, 64, 36
1, 1066257, Note_on_c, 0, 44, 73
1, 1066334, Control_c, 0, 64, 42
1, 1066354, Control_c, 0, 64, 45
1, 1066371, Control_c, 0, 64, 49
1, 1066390, Control_c, 0, 64, 54
1, 1066409, Control_c, 0, 64, 59
1, 1066427, Control_c, 0, 64, 63
1, 1066446, Control_c, 0, 64, 64
1, 1066495, Note_on_c, 0, 80, 58
1, 1066521, Control_c, 0, 64, 65
1, 1066561, Note_off_c, 0, 80, 52
1, 1066561, Poly_aftertouch_c, 0, 80, 0
1, 1066576, Control_c, 0, 64, 66
1, 1066583, Note_on_c, 0, 77, 66
1, 1066596, Control_c, 0, 64, 68
1, 1066615, Control_c, 0, 64, 70
1, 1066632, Control_c, 0, 64, 72
1, 1066660, Note_off_c, 0, 77, 58
1, 1066670, Control_c, 0, 64, 75
1, 1066683, Note_on_c, 0, 82, 67
1, 1066760, Note_off_c, 0, 82, 60
1, 1066764, Note_on_c, 0, 74, 66
1, 1066855, Note_on_c, 0, 78, 65
1, 1066888, Note_off_c, 0, 74, 38
1, 1066908, Note_off_c, 0, 78, 53
1, 1066913, Control_c, 0, 64, 73
1, 1066958, Note_on_c, 0, 75, 56
1, 1067010, Note_off_c, 0, 75, 60
1, 1067028, Note_on_c, 0, 80, 63
1, 1067119, Note_on_c, 0, 72, 61
1, 1067143, Note_off_c, 0, 80, 61
1, 1067143, Poly_aftertouch_c, 0, 80, 0
1, 1067175, Control_c, 0, 64, 76
1, 1067193, Control_c, 0, 64, 79
1, 1067213, Control_c, 0, 64, 83
1, 1067217, Note_on_c, 0, 77, 50
1, 1067225, Note_off_c, 0, 72, 55
1, 1067232, Control_c, 0, 64, 88
1, 1067250, Control_c, 0, 64, 93
1, 1067268, Control_c, 0, 64, 99
1, 1067287, Note_on_c, 0, 73, 70
1, 1067287, Control_c, 0, 64, 105
1, 1067300, Note_off_c, 0, 77, 36
1, 1067305, Control_c, 0, 64, 111
1, 1067325, Control_c, 0, 64, 116
1, 1067344, Control_c, 0, 64, 120
1, 1067362, Control_c, 0, 64, 124
1, 1067389, Note_on_c, 0, 78, 84
1, 1067407, Note_off_c, 0, 73, 61
1, 1067408, Note_off_c, 0, 32, 54
1, 1067499, Note_on_c, 0, 70, 63
1, 1067508, Note_off_c, 0, 44, 53
1, 1067536, Note_off_c, 0, 78, 63
1, 1067566, Note_on_c, 0, 75, 73
1, 1067572, Note_off_c, 0, 70, 62
1, 1067579, Note_on_c, 0, 32, 59
1, 1067655, Note_on_c, 0, 69, 49
1, 1067687, Note_off_c, 0, 69, 56
1, 1067698, Control_c, 0, 64, 118
1, 1067717, Control_c, 0, 64, 108
1, 1067735, Note_on_c, 0, 73, 68
1, 1067735, Control_c, 0, 64, 91
1, 1067738, Note_off_c, 0, 75, 63
1, 1067738, Note_on_c, 0, 44, 55
1, 1067738, Note_on_c, 0, 77, 62
1, 1067755, Control_c, 0, 64, 72
1, 1067773, Control_c, 0, 64, 56
1, 1067793, Control_c, 0, 64, 43
1, 1067812, Control_c, 0, 64, 38
1, 1067816, Note_off_c, 0, 73, 62
1, 1067830, Control_c, 0, 64, 40
1, 1067844, Note_on_c, 0, 70, 58
1, 1067846, Control_c, 0, 64, 46
1, 1067867, Control_c, 0, 64, 53
1, 1067886, Note_off_c, 0, 77, 55
1, 1067886, Control_c, 0, 64, 59
1, 1067904, Control_c, 0, 64, 64
1, 1067913, Note_off_c, 0, 70, 47
1, 1067922, Control_c, 0, 64, 67
1, 1067928, Note_on_c, 0, 73, 63
1, 1068010, Note_on_c, 0, 70, 60
1, 1068014, Note_off_c, 0, 73, 60
1, 1068054, Control_c, 0, 64, 68
1, 1068086, Note_off_c, 0, 70, 62
1, 1068088, Note_on_c, 0, 76, 66
1, 1068129, Control_c, 0, 64, 70
1, 1068165, Note_on_c, 0, 67, 60
1, 1068165, Control_c, 0, 64, 73
1, 1068203, Control_c, 0, 64, 76
1, 1068208, Note_off_c, 0, 76, 49
1, 1068223, Control_c, 0, 64, 78
1, 1068231, Note_off_c, 0, 67, 43
1, 1068240, Control_c, 0, 64, 81
1, 1068253, Note_on_c, 0, 70, 55
1, 1068260, Control_c, 0, 64, 84
1, 1068279, Control_c, 0, 64, 88
1, 1068298, Control_c, 0, 64, 92
1, 1068323, Note_off_c, 0, 70, 49
1, 1068335, Control_c, 0, 64, 98
1, 1068350, Note_on_c, 0, 67, 58
1, 1068373, Control_c, 0, 64, 105
1, 1068403, Note_off_c, 0, 67, 59
1, 1068430, Note_on_c, 0, 73, 63
1, 1068503, Control_c, 0, 64, 109
1, 1068505, Note_off_c, 0, 73, 56
1, 1068508, Note_on_c, 0, 64, 60
1, 1068556, Note_off_c, 0, 64, 56
1, 1068619, Note_on_c, 0, 67, 48
1, 1068648, Note_off_c, 0, 67, 58
1, 1068697, Note_on_c, 0, 64, 60
1, 1068732, Note_off_c, 0, 64, 68
1, 1068783, Note_on_c, 0, 70, 60
1, 1068835, Note_off_c, 0, 32, 50
1, 1068859, Note_on_c, 0, 61, 61
1, 1068881, Note_off_c, 0, 70, 54
1, 1068919, Note_off_c, 0, 61, 54
1, 1068923, Note_off_c, 0, 44, 48
1, 1068958, Note_on_c, 0, 68, 66
1, 1068970, Control_c, 0, 64, 101
1, 1068987, Control_c, 0, 64, 87
1, 1068990, Note_on_c, 0, 32, 58
1, 1069008, Control_c, 0, 64, 68
1, 1069026, Control_c, 0, 64, 52
1, 1069039, Note_off_c, 0, 68, 61
1, 1069044, Control_c, 0, 64, 34
1, 1069049, Note_on_c, 0, 63, 64
1, 1069064, Control_c, 0, 64, 18
1, 1069101, Control_c, 0, 64, 26
1, 1069120, Control_c, 0, 64, 34
1, 1069129, Note_off_c, 0, 63, 60
1, 1069137, Note_on_c, 0, 72, 57
1, 1069139, Control_c, 0, 64, 42
1, 1069145, Note_on_c, 0, 44, 51
1, 1069158, Control_c, 0, 64, 50
1, 1069175, Control_c, 0, 64, 56
1, 1069196, Control_c, 0, 64, 63
1, 1069212, Control_c, 0, 64, 67
1, 1069216, Note_on_c, 0, 60, 56
1, 1069221, Note_off_c, 0, 72, 59
1, 1069230, Control_c, 0, 64, 70
1, 1069250, Control_c, 0, 64, 72
1, 1069271, Note_off_c, 0, 60, 55
1, 1069271, Poly_aftertouch_c, 0, 60, 0
1, 1069288, Control_c, 0, 64, 74
1, 1069310, Note_on_c, 0, 68, 51
1, 1069368, Note_off_c, 0, 68, 63
1, 1069388, Note_on_c, 0, 65, 43
1, 1069442, Note_off_c, 0, 65, 49
1, 1069472, Note_on_c, 0, 70, 66
1, 1069549, Note_off_c, 0, 70, 59
1, 1069549, Control_c, 0, 64, 76
1, 1069570, Note_on_c, 0, 62, 54
1, 1069625, Control_c, 0, 64, 78
1, 1069634, Note_off_c, 0, 62, 43
1, 1069643, Note_on_c, 0, 66, 61
1, 1069696, Note_off_c, 0, 66, 57
1, 1069737, Control_c, 0, 64, 80
1, 1069746, Note_on_c, 0, 63, 50
1, 1069807, Note_off_c, 0, 63, 61
1, 1069813, Note_on_c, 0, 68, 63
1, 1069912, Note_on_c, 0, 60, 60
1, 1069927, Note_off_c, 0, 68, 63
1, 1069982, Note_on_c, 0, 65, 63
1, 1070004, Note_off_c, 0, 60, 58
1, 1070004, Poly_aftertouch_c, 0, 60, 0
1, 1070057, Note_off_c, 0, 65, 58
1, 1070067, Note_on_c, 0, 61, 72
1, 1070111, Control_c, 0, 64, 83
1, 1070129, Control_c, 0, 64, 85
1, 1070148, Control_c, 0, 64, 87
1, 1070162, Note_on_c, 0, 66, 79
1, 1070167, Note_off_c, 0, 61, 61
1, 1070185, Control_c, 0, 64, 92
1, 1070199, Note_off_c, 0, 32, 54
1, 1070223, Control_c, 0, 64, 96
1, 1070259, Note_on_c, 0, 58, 61
1, 1070272, Note_off_c, 0, 44, 37
1, 1070298, Control_c, 0, 64, 100
1, 1070326, Note_off_c, 0, 58, 50
1, 1070326, Note_on_c, 0, 63, 69
1, 1070327, Note_off_c, 0, 66, 61
1, 1070365, Note_on_c, 0, 32, 61
1, 1070373, Control_c, 0, 64, 92
1, 1070391, Control_c, 0, 64, 82
1, 1070411, Control_c, 0, 64, 66
1, 1070413, Note_on_c, 0, 57, 61
1, 1070428, Control_c, 0, 64, 48
1, 1070448, Control_c, 0, 64, 0
1, 1070453, Note_off_c, 0, 57, 62
1, 1070453, Poly_aftertouch_c, 0, 57, 0
1, 1070492, Note_off_c, 0, 63, 61
1, 1070492, Note_on_c, 0, 61, 66
1, 1070494, Note_on_c, 0, 65, 59
1, 1070506, Note_on_c, 0, 44, 53
1, 1070542, Control_c, 0, 64, 14
1, 1070560, Control_c, 0, 64, 31
1, 1070563, Note_off_c, 0, 61, 62
1, 1070578, Control_c, 0, 64, 41
1, 1070597, Control_c, 0, 64, 50
1, 1070608, Note_on_c, 0, 58, 61
1, 1070616, Control_c, 0, 64, 59
1, 1070634, Control_c, 0, 64, 65
1, 1070653, Note_off_c, 0, 65, 59
1, 1070653, Control_c, 0, 64, 67
1, 1070669, Note_off_c, 0, 58, 54
1, 1070683, Note_on_c, 0, 61, 63
1, 1070768, Note_off_c, 0, 61, 61
1, 1070773, Note_on_c, 0, 58, 48
1, 1070846, Note_off_c, 0, 58, 59
1, 1070852, Note_on_c, 0, 64, 61
1, 1070922, Note_on_c, 0, 55, 60
1, 1070934, Note_off_c, 0, 64, 52
1, 1070977, Note_off_c, 0, 55, 55
1, 1071011, Note_on_c, 0, 58, 56
1, 1071091, Note_off_c, 0, 58, 59
1, 1071133, Note_on_c, 0, 55, 26
1, 1071174, Note_off_c, 0, 55, 48
1, 1071183, Note_on_c, 0, 61, 61
1, 1071252, Note_off_c, 0, 61, 51
1, 1071267, Note_on_c, 0, 52, 52
1, 1071307, Note_off_c, 0, 52, 56
1, 1071360, Note_on_c, 0, 55, 50
1, 1071383, Control_c, 0, 64, 69
1, 1071414, Note_off_c, 0, 55, 61
1, 1071438, Control_c, 0, 64, 71
1, 1071443, Note_on_c, 0, 52, 51
1, 1071519, Note_off_c, 0, 52, 59
1, 1071530, Note_on_c, 0, 58, 57
1, 1071576, Note_off_c, 0, 32, 55
1, 1071632, Note_on_c, 0, 49, 55
1, 1071638, Note_off_c, 0, 44, 54
1, 1071681, Note_off_c, 0, 49, 59
1, 1071681, Poly_aftertouch_c, 0, 49, 0
1, 1071695, Note_off_c, 0, 58, 48
1, 1071714, Note_on_c, 0, 56, 61
1, 1071732, Note_on_c, 0, 32, 50
1, 1071736, Control_c, 0, 64, 69
1, 1071757, Control_c, 0, 64, 67
1, 1071775, Control_c, 0, 64, 63
1, 1071786, Note_off_c, 0, 56, 60
1, 1071786, Poly_aftertouch_c, 0, 56, 0
1, 1071793, Control_c, 0, 64, 56
1, 1071806, Note_on_c, 0, 51, 65
1, 1071811, Control_c, 0, 64, 47
1, 1071831, Control_c, 0, 64, 41
1, 1071868, Control_c, 0, 64, 37
1, 1071885, Note_on_c, 0, 44, 47
1, 1071891, Note_off_c, 0, 51, 60
1, 1071891, Poly_aftertouch_c, 0, 51, 0
1, 1071896, Note_on_c, 0, 60, 64
1, 1071905, Control_c, 0, 64, 42
1, 1071925, Control_c, 0, 64, 45
1, 1071943, Control_c, 0, 64, 48
1, 1071962, Control_c, 0, 64, 51
1, 1071971, Note_on_c, 0, 48, 57
1, 1071981, Control_c, 0, 64, 53
1, 1071999, Control_c, 0, 64, 55
1, 1072002, Note_off_c, 0, 48, 57
1, 1072002, Poly_aftertouch_c, 0, 48, 0
1, 1072018, Control_c, 0, 64, 57
1, 1072031, Note_off_c, 0, 60, 61
1, 1072031, Poly_aftertouch_c, 0, 60, 0
1, 1072035, Control_c, 0, 64, 60
1, 1072053, Note_on_c, 0, 61, 69
1, 1072054, Control_c, 0, 64, 61
1, 1072074, Control_c, 0, 64, 62
1, 1072112, Control_c, 0, 64, 63
1, 1072133, Note_on_c, 0, 58, 62
1, 1072140, Note_off_c, 0, 61, 59
1, 1072148, Control_c, 0, 64, 64
1, 1072220, Note_off_c, 0, 58, 62
1, 1072223, Note_on_c, 0, 64, 61
1, 1072299, Note_off_c, 0, 64, 58
1, 1072303, Note_on_c, 0, 55, 58
1, 1072375, Note_off_c, 0, 55, 43
1, 1072385, Note_on_c, 0, 58, 60
1, 1072481, Note_off_c, 0, 58, 62
1, 1072486, Note_on_c, 0, 55, 51
1, 1072540, Note_off_c, 0, 55, 64
1, 1072552, Note_on_c, 0, 61, 62
1, 1072560, Control_c, 0, 64, 65
1, 1072616, Note_off_c, 0, 61, 56
1, 1072634, Note_on_c, 0, 52, 62
1, 1072654, Control_c, 0, 64, 66
1, 1072701, Note_off_c, 0, 52, 51
1, 1072738, Note_on_c, 0, 55, 55
1, 1072788, Note_off_c, 0, 55, 61
1, 1072835, Note_on_c, 0, 52, 55
1, 1072868, Note_off_c, 0, 52, 59
1, 1072909, Note_on_c, 0, 58, 57
1, 1072945, Note_off_c, 0, 32, 57
1, 1072991, Control_c, 0, 64, 67
1, 1073002, Note_on_c, 0, 49, 57
1, 1073027, Note_off_c, 0, 58, 56
1, 1073036, Note_off_c, 0, 44, 52
1, 1073061, Note_off_c, 0, 49, 57
1, 1073061, Poly_aftertouch_c, 0, 49, 0
1, 1073080, Note_on_c, 0, 32, 46
1, 1073082, Control_c, 0, 64, 65
1, 1073095, Note_on_c, 0, 56, 60
1, 1073101, Control_c, 0, 64, 63
1, 1073121, Control_c, 0, 64, 59
1, 1073140, Control_c, 0, 64, 50
1, 1073148, Note_off_c, 0, 56, 59
1, 1073148, Poly_aftertouch_c, 0, 56, 0
1, 1073159, Control_c, 0, 64, 36
1, 1073172, Note_on_c, 0, 51, 63
1, 1073178, Control_c, 0, 64, 17
1, 1073197, Control_c, 0, 64, 0
1, 1073236, Note_on_c, 0, 44, 43
1, 1073253, Control_c, 0, 64, 16
1, 1073259, Note_off_c, 0, 51, 58
1, 1073259, Poly_aftertouch_c, 0, 51, 0
1, 1073267, Note_on_c, 0, 60, 62
1, 1073270, Control_c, 0, 64, 22
1, 1073290, Control_c, 0, 64, 26
1, 1073327, Control_c, 0, 64, 31
1, 1073353, Note_on_c, 0, 48, 54
1, 1073364, Control_c, 0, 64, 36
1, 1073386, Note_off_c, 0, 48, 55
1, 1073386, Poly_aftertouch_c, 0, 48, 0
1, 1073387, Note_off_c, 0, 60, 62
1, 1073387, Poly_aftertouch_c, 0, 60, 0
1, 1073402, Control_c, 0, 64, 41
1, 1073431, Note_on_c, 0, 61, 63
1, 1073439, Control_c, 0, 64, 43
1, 1073441, Poly_aftertouch_c, 0, 50, 0
1, 1073508, Note_on_c, 0, 58, 60
1, 1073514, Control_c, 0, 64, 45
1, 1073518, Note_off_c, 0, 61, 60
1, 1073550, Control_c, 0, 64, 47
1, 1073585, Note_off_c, 0, 58, 56
1, 1073590, Control_c, 0, 64, 49
1, 1073595, Note_on_c, 0, 64, 63
1, 1073661, Note_off_c, 0, 64, 53
1, 1073665, Note_on_c, 0, 55, 58
1, 1073665, Control_c, 0, 64, 51
1, 1073716, Note_off_c, 0, 55, 56
1, 1073738, Control_c, 0, 64, 53
1, 1073745, Note_on_c, 0, 58, 63
1, 1073833, Control_c, 0, 64, 56
1, 1073835, Note_off_c, 0, 58, 60
1, 1073862, Note_on_c, 0, 55, 50
1, 1073887, Control_c, 0, 64, 58
1, 1073902, Note_off_c, 0, 55, 61
1, 1073922, Note_on_c, 0, 61, 58
1, 1073927, Control_c, 0, 64, 60
1, 1073962, Control_c, 0, 64, 62
1, 1073976, Note_off_c, 0, 61, 59
1, 1073995, Note_on_c, 0, 52, 59
1, 1073999, Control_c, 0, 64, 63
1, 1074059, Note_off_c, 0, 52, 51
1, 1074098, Note_on_c, 0, 55, 49
1, 1074112, Control_c, 0, 64, 64
1, 1074146, Note_off_c, 0, 55, 62
1, 1074148, Control_c, 0, 64, 65
1, 1074169, Control_c, 0, 64, 67
1, 1074187, Control_c, 0, 64, 68
1, 1074197, Note_on_c, 0, 52, 49
1, 1074224, Control_c, 0, 64, 70
1, 1074233, Note_off_c, 0, 52, 52
1, 1074259, Note_on_c, 0, 58, 56
1, 1074283, Note_off_c, 0, 32, 54
1, 1074352, Note_on_c, 0, 49, 59
1, 1074354, Control_c, 0, 64, 72
1, 1074373, Note_off_c, 0, 58, 44
1, 1074411, Control_c, 0, 64, 70
1, 1074426, Note_off_c, 0, 49, 56
1, 1074426, Poly_aftertouch_c, 0, 49, 0
1, 1074429, Control_c, 0, 64, 66
1, 1074444, Note_on_c, 0, 56, 63
1, 1074448, Control_c, 0, 64, 59
1, 1074449, Note_on_c, 0, 32, 55
1, 1074467, Control_c, 0, 64, 50
1, 1074479, Note_off_c, 0, 44, 51
1, 1074486, Control_c, 0, 64, 41
1, 1074505, Control_c, 0, 64, 35
1, 1074525, Note_off_c, 0, 56, 60
1, 1074525, Poly_aftertouch_c, 0, 56, 0
1, 1074543, Note_on_c, 0, 51, 58
1, 1074580, Control_c, 0, 64, 42
1, 1074599, Control_c, 0, 64, 44
1, 1074613, Note_on_c, 0, 60, 34
1, 1074614, Note_off_c, 0, 51, 54
1, 1074614, Poly_aftertouch_c, 0, 51, 0
1, 1074617, Control_c, 0, 64, 47
1, 1074635, Control_c, 0, 64, 49
1, 1074649, Note_off_c, 0, 60, 47
1, 1074649, Poly_aftertouch_c, 0, 60, 0
1, 1074673, Control_c, 0, 64, 51
1, 1074680, Note_on_c, 0, 48, 62
1, 1074710, Control_c, 0, 64, 54
1, 1074736, Note_off_c, 0, 48, 54
1, 1074736, Poly_aftertouch_c, 0, 48, 0
1, 1074747, Control_c, 0, 64, 56
1, 1074775, Note_on_c, 0, 51, 59
1, 1074864, Note_off_c, 0, 51, 59
1, 1074864, Poly_aftertouch_c, 0, 51, 0
1, 1074874, Note_on_c, 0, 48, 56
1, 1074897, Control_c, 0, 64, 58
1, 1074938, Note_off_c, 0, 48, 58
1, 1074938, Poly_aftertouch_c, 0, 48, 0
1, 1074944, Note_on_c, 0, 56, 42
1, 1074985, Note_off_c, 0, 56, 59
1, 1074985, Poly_aftertouch_c, 0, 56, 0
1, 1075034, Note_on_c, 0, 44, 60
1, 1075085, Note_off_c, 0, 44, 58
1, 1075155, Note_on_c, 0, 48, 43
1, 1075224, Note_off_c, 0, 48, 55
1, 1075224, Poly_aftertouch_c, 0, 48, 0
1, 1075240, Note_on_c, 0, 44, 54
1, 1075272, Control_c, 0, 64, 56
1, 1075318, Note_off_c, 0, 44, 57
1, 1075327, Note_on_c, 0, 51, 52
1, 1075373, Note_off_c, 0, 51, 63
1, 1075373, Poly_aftertouch_c, 0, 51, 0
1, 1075429, Note_on_c, 0, 39, 55
1, 1075478, Note_off_c, 0, 39, 58
1, 1075518, Note_on_c, 0, 44, 47
1, 1075552, Control_c, 0, 64, 54
1, 1075592, Note_off_c, 0, 44, 59
1, 1075619, Note_on_c, 0, 39, 48
1, 1075664, Control_c, 0, 64, 52
1, 1075713, Note_off_c, 0, 39, 50
1, 1075739, Note_on_c, 0, 48, 40
1, 1075769, Note_off_c, 0, 32, 56
1, 1075870, Note_on_c, 0, 36, 26
1, 1075964, Note_off_c, 0, 48, 42
1, 1075964, Poly_aftertouch_c, 0, 48, 0
1, 1076170, Note_on_c, 0, 32, 34
1, 1076243, Control_c, 0, 64, 50
1, 1076281, Control_c, 0, 64, 48
1, 1076319, Control_c, 0, 64, 45
1, 1076356, Control_c, 0, 64, 42
1, 1076358, Note_off_c, 0, 36, 47
1, 1076412, Control_c, 0, 64, 38
1, 1076488, Control_c, 0, 64, 34
1, 1076561, Control_c, 0, 64, 30
1, 1076655, Control_c, 0, 64, 26
1, 1076710, Control_c, 0, 64, 21
1, 1077366, Control_c, 0, 64, 17
1, 1077516, Control_c, 0, 64, 13
1, 1077590, Control_c, 0, 64, 9
1, 1077645, Control_c, 0, 64, 0
1, 1077897, Note_off_c, 0, 32, 36
1, 1077897, End_track
0, 0, End_of_file
