0, 0, Header, 1, 2, 480
1, 0, Start_track
1, 0, Title_t, "untitled"
1, 0, Time_signature, 4, 2, 24, 8
1, 0, Key_signature, 0, "major"
1, 0, Tempo, 500000
1, 0, Marker_t, "Adagio sostenuto"
1, 295680, Tempo, 500000
1, 295680, Marker_t, "Allegretto"
1, 416640, Tempo, 500000
1, 416640, Marker_t, "Presto agitato"
1, 416640, End_track
2, 0, Start_track
2, 0, Title_t, "Beethoven: Moonlight Sonata"
2, 0, Program_c, 0, 0
2, 0, Control_c, 0, 7, 100
2, 0, Control_c, 0, 91, 127
2, 0, Control_c, 0, 64, 127
2, 0, Note_on_c, 0, 37, 16
2, 4, Note_on_c, 0, 49, 17
2, 14, Note_on_c, 0, 56, 25
2, 420, Note_on_c, 0, 61, 32
2, 608, Note_on_c, 0, 56, 0
2, 716, Note_on_c, 0, 61, 0
2, 802, Note_on_c, 0, 64, 28
2, 1114, Note_on_c, 0, 56, 40
2, 1128, Note_on_c, 0, 64, 0
2, 1452, Note_on_c, 0, 61, 41
2, 1482, Note_on_c, 0, 56, 0
2, 1782, Note_on_c, 0, 61, 0
2, 1822, Note_on_c, 0, 64, 33
2, 2108, Note_on_c, 0, 64, 0
2, 2156, Note_on_c, 0, 56, 29
2, 2484, Note_on_c, 0, 61, 33
2, 2502, Note_on_c, 0, 56, 0
2, 2778, Note_on_c, 0, 61, 0
2, 2876, Note_on_c, 0, 64, 24
2, 3110, Note_on_c, 0, 64, 0
2, 3208, Note_on_c, 0, 56, 27
2, 3536, Note_on_c, 0, 61, 32
2, 3582, Note_on_c, 0, 56, 0
2, 3760, Note_on_c, 0, 49, 0
2, 3890, Note_on_c, 0, 61, 0
2, 3920, Note_on_c, 0, 64, 25
2, 4278, Note_on_c, 0, 64, 0
2, 4302, Note_on_c, 0, 47, 37
2, 4310, Note_on_c, 0, 56, 34
2, 4316, Note_on_c, 0, 35, 43
2, 4376, Note_on_c, 0, 37, 0
2, 4752, Note_on_c, 0, 61, 32
2, 4946, Control_c, 0, 64, 0
2, 5084, Control_c, 0, 64, 127
2, 5100, Note_on_c, 0, 61, 0
2, 5143, Note_on_c, 0, 56, 0
2, 5146, Note_on_c, 0, 64, 21
2, 5252, Note_on_c, 0, 64, 0
2, 5476, Note_on_c, 0, 56, 26
2, 5814, Note_on_c, 0, 61, 32
2, 5842, Note_on_c, 0, 56, 0
2, 6118, Note_on_c, 0, 61, 0
2, 6176, Note_on_c, 0, 64, 25
2, 6442, Note_on_c, 0, 64, 0
2, 6500, Note_on_c, 0, 56, 26
2, 6824, Note_on_c, 0, 61, 31
2, 6948, Note_on_c, 0, 56, 0
2, 7150, Note_on_c, 0, 61, 0
2, 7194, Note_on_c, 0, 64, 26
2, 7442, Note_on_c, 0, 64, 0
2, 7534, Note_on_c, 0, 56, 18
2, 7866, Note_on_c, 0, 61, 26
2, 7868, Note_on_c, 0, 56, 0
2, 8176, Note_on_c, 0, 61, 0
2, 8260, Note_on_c, 0, 64, 24
2, 8386, Note_on_c, 0, 47, 0
2, 8572, Note_on_c, 0, 64, 0
2, 8642, Note_on_c, 0, 45, 29
2, 8648, Note_on_c, 0, 35, 0
2, 8656, Note_on_c, 0, 33, 37
2, 8664, Note_on_c, 0, 57, 21
2, 8894, Control_c, 0, 64, 0
2, 9002, Note_on_c, 0, 61, 42
2, 9186, Control_c, 0, 64, 127
2, 9348, Note_on_c, 0, 57, 0
2, 9368, Note_on_c, 0, 61, 0
2, 9394, Note_on_c, 0, 64, 40
2, 9664, Note_on_c, 0, 64, 0
2, 9742, Note_on_c, 0, 57, 28
2, 10088, Note_on_c, 0, 61, 44
2, 10092, Note_on_c, 0, 57, 0
2, 10316, Note_on_c, 0, 45, 0
2, 10438, Note_on_c, 0, 64, 46
2, 10484, Note_on_c, 0, 61, 0
2, 10786, Note_on_c, 0, 30, 69
2, 10802, Note_on_c, 0, 33, 0
2, 10802, Note_on_c, 0, 42, 47
2, 10822, Note_on_c, 0, 57, 39
2, 11028, Note_on_c, 0, 64, 0
2, 11170, Note_on_c, 0, 62, 54
2, 11474, Note_on_c, 0, 57, 0
2, 11488, Note_on_c, 0, 62, 0
2, 11554, Note_on_c, 0, 66, 47
2, 11644, Control_c, 0, 64, 0
2, 11814, Control_c, 0, 64, 127
2, 11886, Note_on_c, 0, 57, 51
2, 11936, Note_on_c, 0, 66, 0
2, 12250, Note_on_c, 0, 62, 62
2, 12446, Note_on_c, 0, 57, 0
2, 12612, Note_on_c, 0, 66, 52
2, 12682, Note_on_c, 0, 62, 0
2, 12770, Note_on_c, 0, 42, 0
2, 12938, Note_on_c, 0, 44, 65
2, 12940, Note_on_c, 0, 56, 48
2, 12958, Note_on_c, 0, 32, 50
2, 13028, Note_on_c, 0, 66, 0
2, 13196, Control_c, 0, 64, 0
2, 13214, Note_on_c, 0, 30, 0
2, 13302, Note_on_c, 0, 60, 59
2, 13566, Control_c, 0, 64, 127
2, 13582, Note_on_c, 0, 56, 0
2, 13696, Note_on_c, 0, 66, 47
2, 13866, Note_on_c, 0, 60, 0
2, 14050, Note_on_c, 0, 56, 41
2, 14074, Note_on_c, 0, 66, 0
2, 14426, Control_c, 0, 64, 0
2, 14450, Note_on_c, 0, 61, 44
2, 14642, Control_c, 0, 64, 127
2, 14744, Note_on_c, 0, 56, 0
2, 14792, Note_on_c, 0, 61, 0
2, 14800, Note_on_c, 0, 44, 0
2, 14828, Note_on_c, 0, 64, 41
2, 14884, Note_on_c, 0, 32, 0
2, 15172, Note_on_c, 0, 32, 33
2, 15182, Note_on_c, 0, 56, 41
2, 15188, Note_on_c, 0, 44, 31
2, 15214, Note_on_c, 0, 64, 0
2, 15364, Control_c, 0, 64, 0
2, 15562, Note_on_c, 0, 61, 40
2, 15656, Control_c, 0, 64, 127
2, 15956, Note_on_c, 0, 63, 34
2, 15962, Note_on_c, 0, 56, 0
2, 15968, Note_on_c, 0, 61, 0
2, 16342, Note_on_c, 0, 54, 46
2, 16408, Note_on_c, 0, 63, 0
2, 16408, Control_c, 0, 64, 0
2, 16684, Control_c, 0, 64, 127
2, 16746, Note_on_c, 0, 60, 31
2, 17072, Note_on_c, 0, 32, 0
2, 17136, Note_on_c, 0, 60, 0
2, 17180, Note_on_c, 0, 44, 0
2, 17190, Note_on_c, 0, 63, 36
2, 17312, Note_on_c, 0, 54, 0
2, 17778, Note_on_c, 0, 44, 29
2, 17782, Note_on_c, 0, 49, 20
2, 17787, Note_on_c, 0, 52, 37
2, 17788, Note_on_c, 0, 37, 17
2, 17824, Note_on_c, 0, 63, 0
2, 17914, Control_c, 0, 64, 0
2, 18206, Control_c, 0, 64, 127
2, 18228, Note_on_c, 0, 56, 31
2, 18469, Note_on_c, 0, 52, 0
2, 18612, Note_on_c, 0, 56, 0
2, 18618, Note_on_c, 0, 61, 36
2, 18880, Note_on_c, 0, 61, 0
2, 18968, Note_on_c, 0, 56, 39
2, 19064, Note_on_c, 0, 56, 0
2, 19324, Note_on_c, 0, 61, 29
2, 19618, Note_on_c, 0, 61, 0
2, 19712, Note_on_c, 0, 64, 23
2, 20048, Note_on_c, 0, 64, 0
2, 20084, Note_on_c, 0, 56, 18
2, 20488, Note_on_c, 0, 61, 21
2, 20532, Note_on_c, 0, 56, 0
2, 20816, Note_on_c, 0, 61, 0
2, 20890, Note_on_c, 0, 64, 23
2, 21094, Note_on_c, 0, 64, 0
2, 21354, Note_on_c, 0, 68, 69
2, 21376, Note_on_c, 0, 56, 42
2, 21678, Note_on_c, 0, 56, 0
2, 21822, Note_on_c, 0, 61, 17
2, 21964, Note_on_c, 0, 44, 0
2, 22104, Note_on_c, 0, 61, 0
2, 22186, Note_on_c, 0, 68, 0
2, 22194, Note_on_c, 0, 49, 0
2, 22228, Note_on_c, 0, 64, 27
2, 22298, Note_on_c, 0, 64, 0
2, 22301, Note_on_c, 0, 37, 0
2, 22504, Note_on_c, 0, 68, 65
2, 22666, Note_on_c, 0, 68, 0
2, 22820, Note_on_c, 0, 56, 40
2, 22823, Note_on_c, 0, 68, 57
2, 22832, Note_on_c, 0, 44, 28
2, 22838, Note_on_c, 0, 36, 28
2, 22838, Note_on_c, 0, 48, 23
2, 23076, Control_c, 0, 64, 0
2, 23242, Note_on_c, 0, 63, 37
2, 23338, Control_c, 0, 64, 127
2, 23540, Note_on_c, 0, 56, 0
2, 23614, Note_on_c, 0, 63, 0
2, 23624, Note_on_c, 0, 66, 24
2, 23968, Note_on_c, 0, 66, 0
2, 24018, Note_on_c, 0, 56, 25
2, 24332, Note_on_c, 0, 56, 0
2, 24368, Note_on_c, 0, 63, 24
2, 24682, Note_on_c, 0, 63, 0
2, 24698, Note_on_c, 0, 66, 25
2, 25038, Note_on_c, 0, 66, 0
2, 25050, Note_on_c, 0, 56, 20
2, 25368, Note_on_c, 0, 56, 0
2, 25438, Note_on_c, 0, 63, 23
2, 25690, Note_on_c, 0, 63, 0
2, 25844, Note_on_c, 0, 66, 14
2, 25874, Note_on_c, 0, 68, 0
2, 26074, Note_on_c, 0, 66, 0
2, 26264, Note_on_c, 0, 68, 63
2, 26292, Note_on_c, 0, 56, 28
2, 26410, Note_on_c, 0, 56, 0
2, 26650, Note_on_c, 0, 63, 31
2, 26838, Note_on_c, 0, 63, 0
2, 26926, Note_on_c, 0, 68, 0
2, 27020, Note_on_c, 0, 48, 0
2, 27030, Note_on_c, 0, 66, 17
2, 27062, Note_on_c, 0, 36, 0
2, 27130, Note_on_c, 0, 66, 0
2, 27232, Note_on_c, 0, 68, 60
2, 27280, Note_on_c, 0, 44, 0
2, 27382, Note_on_c, 0, 68, 0
2, 27512, Note_on_c, 0, 68, 58
2, 27532, Note_on_c, 0, 56, 37
2, 27550, Note_on_c, 0, 49, 21
2, 27552, Note_on_c, 0, 37, 29
2, 27748, Control_c, 0, 64, 0
2, 27924, Note_on_c, 0, 61, 28
2, 28010, Control_c, 0, 64, 127
2, 28240, Note_on_c, 0, 56, 0
2, 28292, Note_on_c, 0, 61, 0
2, 28294, Note_on_c, 0, 64, 34
2, 28520, Note_on_c, 0, 64, 0
2, 28630, Note_on_c, 0, 56, 36
2, 28936, Note_on_c, 0, 56, 0
2, 28962, Note_on_c, 0, 49, 0
2, 28978, Note_on_c, 0, 61, 37
2, 29240, Note_on_c, 0, 61, 0
2, 29332, Note_on_c, 0, 64, 42
2, 29372, Note_on_c, 0, 68, 0
2, 29684, Note_on_c, 0, 69, 67
2, 29696, Note_on_c, 0, 57, 41
2, 29704, Note_on_c, 0, 30, 32
2, 29740, Note_on_c, 0, 42, 17
2, 29764, Note_on_c, 0, 37, 0
2, 29774, Note_on_c, 0, 64, 0
2, 29930, Control_c, 0, 64, 0
2, 30038, Note_on_c, 0, 61, 48
2, 30164, Control_c, 0, 64, 127
2, 30338, Note_on_c, 0, 57, 0
2, 30374, Note_on_c, 0, 66, 24
2, 30402, Note_on_c, 0, 61, 0
2, 30706, Note_on_c, 0, 66, 0
2, 30742, Note_on_c, 0, 57, 25
2, 31028, Note_on_c, 0, 57, 0
2, 31084, Note_on_c, 0, 61, 37
2, 31132, Note_on_c, 0, 30, 0
2, 31328, Note_on_c, 0, 61, 0
2, 31436, Note_on_c, 0, 69, 0
2, 31439, Note_on_c, 0, 66, 34
2, 31460, Note_on_c, 0, 42, 0
2, 31600, Note_on_c, 0, 66, 0
2, 31762, Note_on_c, 0, 68, 71
2, 31784, Note_on_c, 0, 56, 37
2, 31806, Note_on_c, 0, 35, 39
2, 31809, Note_on_c, 0, 47, 20
2, 32064, Control_c, 0, 64, 0
2, 32130, Note_on_c, 0, 59, 36
2, 32296, Control_c, 0, 64, 127
2, 32438, Note_on_c, 0, 56, 0
2, 32456, Note_on_c, 0, 64, 44
2, 32496, Note_on_c, 0, 59, 0
2, 32682, Note_on_c, 0, 64, 0
2, 32822, Note_on_c, 0, 56, 44
2, 33034, Note_on_c, 0, 56, 0
2, 33200, Note_on_c, 0, 59, 37
2, 33332, Note_on_c, 0, 47, 0
2, 33366, Note_on_c, 0, 59, 0
2, 33386, Note_on_c, 0, 35, 0
2, 33536, Note_on_c, 0, 64, 47
2, 33632, Note_on_c, 0, 68, 0
2, 33720, Note_on_c, 0, 64, 0
2, 33870, Note_on_c, 0, 66, 57
2, 33894, Note_on_c, 0, 35, 32
2, 33904, Note_on_c, 0, 57, 24
2, 33924, Note_on_c, 0, 47, 18
2, 34108, Control_c, 0, 64, 0
2, 34220, Note_on_c, 0, 59, 46
2, 34308, Control_c, 0, 64, 127
2, 34334, Note_on_c, 0, 35, 0
2, 34370, Note_on_c, 0, 57, 0
2, 34434, Note_on_c, 0, 59, 0
2, 34436, Note_on_c, 0, 47, 0
2, 34584, Note_on_c, 0, 63, 52
2, 34674, Note_on_c, 0, 66, 0
2, 34734, Note_on_c, 0, 63, 0
2, 34996, Note_on_c, 0, 71, 74
2, 35056, Note_on_c, 0, 57, 14
2, 35234, Note_on_c, 0, 57, 0
2, 35394, Note_on_c, 0, 59, 39
2, 35476, Note_on_c, 0, 59, 0
2, 35740, Note_on_c, 0, 71, 0
2, 35812, Note_on_c, 0, 63, 58
2, 35918, Note_on_c, 0, 63, 0
2, 36316, Note_on_c, 0, 64, 57
2, 36332, Note_on_c, 0, 56, 25
2, 36334, Note_on_c, 0, 40, 35
2, 36348, Note_on_c, 0, 52, 19
2, 36444, Control_c, 0, 64, 0
2, 36706, Control_c, 0, 64, 127
2, 36742, Note_on_c, 0, 59, 35
2, 36778, Note_on_c, 0, 64, 0
2, 36964, Note_on_c, 0, 56, 0
2, 37068, Note_on_c, 0, 59, 0
2, 37094, Note_on_c, 0, 64, 41
2, 37170, Note_on_c, 0, 64, 0
2, 37404, Note_on_c, 0, 56, 36
2, 37752, Note_on_c, 0, 59, 35
2, 37768, Note_on_c, 0, 56, 0
2, 38054, Note_on_c, 0, 59, 0
2, 38114, Note_on_c, 0, 64, 18
2, 38372, Note_on_c, 0, 64, 0
2, 38405, Note_on_c, 0, 56, 32
2, 38748, Note_on_c, 0, 59, 23
2, 38772, Note_on_c, 0, 56, 0
2, 39018, Note_on_c, 0, 59, 0
2, 39104, Note_on_c, 0, 64, 29
2, 39310, Note_on_c, 0, 64, 0
2, 39408, Note_on_c, 0, 56, 24
2, 39740, Note_on_c, 0, 56, 0
2, 39764, Note_on_c, 0, 59, 21
2, 39858, Note_on_c, 0, 52, 0
2, 39954, Note_on_c, 0, 40, 0
2, 40066, Note_on_c, 0, 59, 0
2, 40154, Note_on_c, 0, 64, 28
2, 40416, Note_on_c, 0, 64, 0
2, 40616, Note_on_c, 0, 55, 21
2, 40618, Note_on_c, 0, 52, 29
2, 40638, Note_on_c, 0, 40, 43
2, 40716, Control_c, 0, 64, 0
2, 40946, Control_c, 0, 64, 127
2, 41040, Note_on_c, 0, 59, 23
2, 41100, Note_on_c, 0, 55, 0
2, 41308, Note_on_c, 0, 59, 0
2, 41402, Note_on_c, 0, 64, 28
2, 41626, Note_on_c, 0, 64, 0
2, 41764, Note_on_c, 0, 55, 13
2, 42000, Note_on_c, 0, 55, 0
2, 42138, Note_on_c, 0, 59, 11
2, 42398, Note_on_c, 0, 59, 0
2, 42472, Note_on_c, 0, 64, 25
2, 42764, Note_on_c, 0, 64, 0
2, 42796, Note_on_c, 0, 55, 23
2, 43066, Note_on_c, 0, 55, 0
2, 43152, Note_on_c, 0, 59, 14
2, 43538, Note_on_c, 0, 59, 0
2, 43558, Note_on_c, 0, 64, 23
2, 43782, Note_on_c, 0, 64, 0
2, 43956, Note_on_c, 0, 67, 50
2, 43984, Note_on_c, 0, 55, 21
2, 44278, Note_on_c, 0, 55, 0
2, 44394, Note_on_c, 0, 59, 10
2, 44580, Note_on_c, 0, 59, 0
2, 44704, Note_on_c, 0, 67, 0
2, 44802, Note_on_c, 0, 64, 20
2, 44904, Note_on_c, 0, 64, 0
2, 44944, Note_on_c, 0, 52, 0
2, 45104, Note_on_c, 0, 40, 0
2, 45112, Note_on_c, 0, 67, 54
2, 45230, Note_on_c, 0, 67, 0
2, 45462, Note_on_c, 0, 67, 35
2, 45486, Note_on_c, 0, 55, 29
2, 45504, Note_on_c, 0, 50, 19
2, 45507, Note_on_c, 0, 38, 31
2, 45678, Control_c, 0, 64, 0
2, 45920, Note_on_c, 0, 59, 19
2, 45940, Control_c, 0, 64, 127
2, 46020, Note_on_c, 0, 55, 0
2, 46136, Note_on_c, 0, 59, 0
2, 46286, Note_on_c, 0, 65, 16
2, 46528, Note_on_c, 0, 65, 0
2, 46676, Note_on_c, 0, 55, 26
2, 46958, Note_on_c, 0, 55, 0
2, 47046, Note_on_c, 0, 59, 25
2, 47268, Note_on_c, 0, 59, 0
2, 47370, Note_on_c, 0, 65, 26
2, 47546, Note_on_c, 0, 65, 0
2, 47718, Note_on_c, 0, 55, 33
2, 47914, Note_on_c, 0, 55, 0
2, 48076, Note_on_c, 0, 59, 26
2, 48244, Note_on_c, 0, 59, 0
2, 48438, Note_on_c, 0, 65, 41
2, 48550, Note_on_c, 0, 67, 0
2, 48622, Note_on_c, 0, 65, 0
2, 48866, Note_on_c, 0, 67, 71
2, 48896, Note_on_c, 0, 55, 31
2, 49146, Note_on_c, 0, 55, 0
2, 49268, Note_on_c, 0, 59, 40
2, 49430, Note_on_c, 0, 59, 0
2, 49608, Note_on_c, 0, 67, 0
2, 49608, Note_on_c, 0, 65, 51
2, 49684, Note_on_c, 0, 50, 0
2, 49776, Note_on_c, 0, 67, 67
2, 49910, Note_on_c, 0, 67, 0
2, 50010, Note_on_c, 0, 38, 0
2, 50064, Note_on_c, 0, 67, 75
2, 50072, Note_on_c, 0, 55, 46
2, 50082, Note_on_c, 0, 48, 29
2, 50106, Note_on_c, 0, 36, 34
2, 50142, Note_on_c, 0, 65, 0
2, 50242, Control_c, 0, 64, 0
2, 50446, Note_on_c, 0, 60, 48
2, 50534, Control_c, 0, 64, 127
2, 50808, Note_on_c, 0, 64, 55
2, 50864, Note_on_c, 0, 55, 0
2, 50950, Note_on_c, 0, 60, 0
2, 51004, Note_on_c, 0, 48, 0
2, 51014, Note_on_c, 0, 64, 0
2, 51170, Note_on_c, 0, 55, 44
2, 51184, Note_on_c, 0, 35, 47
2, 51187, Note_on_c, 0, 47, 28
2, 51232, Note_on_c, 0, 36, 0
2, 51456, Control_c, 0, 64, 0
2, 51576, Note_on_c, 0, 60, 42
2, 51702, Control_c, 0, 64, 127
2, 51878, Note_on_c, 0, 47, 0
2, 51886, Note_on_c, 0, 55, 0
2, 51922, Note_on_c, 0, 60, 0
2, 51982, Note_on_c, 0, 64, 40
2, 52224, Note_on_c, 0, 35, 0
2, 52312, Note_on_c, 0, 64, 0
2, 52334, Note_on_c, 0, 46, 24
2, 52350, Note_on_c, 0, 34, 33
2, 52358, Note_on_c, 0, 55, 32
2, 52438, Control_c, 0, 64, 0
2, 52732, Control_c, 0, 64, 127
2, 52758, Note_on_c, 0, 61, 24
2, 52894, Note_on_c, 0, 55, 0
2, 52992, Note_on_c, 0, 61, 0
2, 53132, Note_on_c, 0, 64, 34
2, 53204, Note_on_c, 0, 67, 0
2, 53330, Note_on_c, 0, 64, 0
2, 53606, Note_on_c, 0, 66, 29
2, 53638, Note_on_c, 0, 54, 18
2, 53806, Control_c, 0, 64, 0
2, 54022, Control_c, 0, 64, 127
2, 54034, Note_on_c, 0, 61, 24
2, 54184, Note_on_c, 0, 54, 0
2, 54272, Note_on_c, 0, 61, 0
2, 54426, Note_on_c, 0, 64, 21
2, 54432, Note_on_c, 0, 66, 0
2, 54444, Note_on_c, 0, 46, 0
2, 54486, Note_on_c, 0, 34, 0
2, 54514, Note_on_c, 0, 64, 0
2, 54802, Note_on_c, 0, 66, 43
2, 54816, Note_on_c, 0, 54, 31
2, 54836, Note_on_c, 0, 47, 18
2, 54864, Note_on_c, 0, 35, 31
2, 55004, Control_c, 0, 64, 0
2, 55182, Note_on_c, 0, 59, 31
2, 55266, Control_c, 0, 64, 127
2, 55458, Note_on_c, 0, 59, 0
2, 55472, Note_on_c, 0, 54, 0
2, 55526, Note_on_c, 0, 62, 25
2, 55672, Note_on_c, 0, 62, 0
2, 55886, Note_on_c, 0, 54, 40
2, 56264, Note_on_c, 0, 59, 37
2, 56288, Note_on_c, 0, 47, 0
2, 56298, Note_on_c, 0, 54, 0
2, 56562, Note_on_c, 0, 59, 0
2, 56650, Note_on_c, 0, 62, 33
2, 56800, Note_on_c, 0, 66, 0
2, 56926, Note_on_c, 0, 35, 0
2, 57022, Note_on_c, 0, 67, 70
2, 57040, Note_on_c, 0, 55, 41
2, 57043, Note_on_c, 0, 28, 36
2, 57043, Note_on_c, 0, 40, 46
2, 57124, Note_on_c, 0, 62, 0
2, 57402, Control_c, 0, 64, 0
2, 57454, Note_on_c, 0, 59, 43
2, 57602, Control_c, 0, 64, 127
2, 57726, Note_on_c, 0, 55, 0
2, 57758, Note_on_c, 0, 67, 0
2, 57764, Note_on_c, 0, 59, 0
2, 57788, Note_on_c, 0, 61, 35
2, 57796, Note_on_c, 0, 28, 0
2, 57832, Note_on_c, 0, 40, 0
2, 58142, Note_on_c, 0, 64, 81
2, 58152, Note_on_c, 0, 52, 39
2, 58160, Note_on_c, 0, 43, 37
2, 58178, Note_on_c, 0, 31, 39
2, 58224, Note_on_c, 0, 61, 0
2, 58384, Control_c, 0, 64, 0
2, 58518, Note_on_c, 0, 59, 47
2, 58570, Control_c, 0, 64, 127
2, 58660, Note_on_c, 0, 52, 0
2, 58696, Note_on_c, 0, 43, 0
2, 58814, Note_on_c, 0, 59, 0
2, 58872, Note_on_c, 0, 61, 44
2, 58892, Note_on_c, 0, 64, 0
2, 59020, Note_on_c, 0, 31, 0
2, 59042, Note_on_c, 0, 61, 0
2, 59208, Note_on_c, 0, 66, 54
2, 59213, Note_on_c, 0, 54, 48
2, 59218, Note_on_c, 0, 30, 24
2, 59230, Note_on_c, 0, 42, 20
2, 59384, Control_c, 0, 64, 0
2, 59570, Note_on_c, 0, 59, 37
2, 59676, Control_c, 0, 64, 127
2, 59928, Note_on_c, 0, 62, 40
2, 59988, Note_on_c, 0, 54, 0
2, 60026, Note_on_c, 0, 59, 0
2, 60298, Note_on_c, 0, 54, 40
2, 60326, Note_on_c, 0, 62, 0
2, 60370, Note_on_c, 0, 42, 0
2, 60580, Note_on_c, 0, 30, 0
2, 60610, Note_on_c, 0, 54, 0
2, 60654, Note_on_c, 0, 59, 29
2, 60902, Note_on_c, 0, 59, 0
2, 60988, Note_on_c, 0, 66, 0
2, 61026, Note_on_c, 0, 62, 29
2, 61384, Note_on_c, 0, 66, 50
2, 61402, Note_on_c, 0, 30, 29
2, 61404, Note_on_c, 0, 54, 33
2, 61412, Note_on_c, 0, 42, 21
2, 61498, Note_on_c, 0, 62, 0
2, 61550, Control_c, 0, 64, 0
2, 61782, Note_on_c, 0, 58, 24
2, 61842, Control_c, 0, 64, 127
2, 61978, Note_on_c, 0, 54, 0
2, 62138, Note_on_c, 0, 61, 27
2, 62158, Note_on_c, 0, 58, 0
2, 62484, Note_on_c, 0, 61, 0
2, 62516, Note_on_c, 0, 54, 29
2, 62832, Note_on_c, 0, 54, 0
2, 62877, Note_on_c, 0, 30, 0
2, 62894, Note_on_c, 0, 58, 12
2, 63296, Note_on_c, 0, 61, 33
2, 63304, Note_on_c, 0, 58, 0
2, 63404, Note_on_c, 0, 42, 0
2, 63504, Note_on_c, 0, 61, 0
2, 63872, Note_on_c, 0, 59, 33
2, 63892, Note_on_c, 0, 47, 20
2, 63894, Note_on_c, 0, 35, 21
2, 63978, Control_c, 0, 64, 0
2, 64028, Note_on_c, 0, 66, 0
2, 64240, Control_c, 0, 64, 127
2, 64342, Note_on_c, 0, 62, 24
2, 64528, Note_on_c, 0, 62, 0
2, 64606, Note_on_c, 0, 59, 0
2, 64668, Note_on_c, 0, 66, 13
2, 64968, Note_on_c, 0, 66, 0
2, 65040, Note_on_c, 0, 59, 9
2, 65394, Note_on_c, 0, 62, 20
2, 65424, Note_on_c, 0, 59, 0
2, 65724, Note_on_c, 0, 62, 0
2, 65732, Note_on_c, 0, 66, 31
2, 66030, Note_on_c, 0, 66, 0
2, 66076, Note_on_c, 0, 59, 28
2, 66386, Note_on_c, 0, 63, 35
2, 66406, Control_c, 0, 64, 0
2, 66544, Control_c, 0, 64, 127
2, 66678, Note_on_c, 0, 59, 0
2, 66706, Note_on_c, 0, 66, 31
2, 66716, Note_on_c, 0, 63, 0
2, 66910, Note_on_c, 0, 66, 0
2, 67114, Note_on_c, 0, 71, 78
2, 67150, Note_on_c, 0, 59, 20
2, 67482, Note_on_c, 0, 63, 27
2, 67596, Note_on_c, 0, 59, 0
2, 67646, Note_on_c, 0, 63, 0
2, 67750, Note_on_c, 0, 71, 0
2, 67778, Note_on_c, 0, 66, 43
2, 68106, Note_on_c, 0, 72, 89
2, 68124, Note_on_c, 0, 59, 42
2, 68128, Note_on_c, 0, 66, 0
2, 68388, Control_c, 0, 64, 0
2, 68464, Note_on_c, 0, 64, 32
2, 68604, Control_c, 0, 64, 127
2, 68750, Note_on_c, 0, 35, 0
2, 68754, Note_on_c, 0, 59, 0
2, 68816, Note_on_c, 0, 67, 33
2, 68828, Note_on_c, 0, 47, 0
2, 68884, Note_on_c, 0, 64, 0
2, 69128, Note_on_c, 0, 52, 55
2, 69138, Note_on_c, 0, 40, 58
2, 69138, Note_on_c, 0, 59, 31
2, 69158, Note_on_c, 0, 67, 0
2, 69470, Note_on_c, 0, 64, 52
2, 69642, Note_on_c, 0, 59, 0
2, 69776, Note_on_c, 0, 40, 0
2, 69804, Note_on_c, 0, 67, 48
2, 69836, Note_on_c, 0, 52, 0
2, 69860, Note_on_c, 0, 64, 0
2, 70074, Note_on_c, 0, 67, 0
2, 70126, Note_on_c, 0, 59, 32
2, 70132, Note_on_c, 0, 55, 48
2, 70138, Note_on_c, 0, 43, 48
2, 70248, Control_c, 0, 64, 0
2, 70478, Control_c, 0, 64, 127
2, 70490, Note_on_c, 0, 64, 37
2, 70596, Note_on_c, 0, 59, 0
2, 70599, Note_on_c, 0, 55, 0
2, 70744, Note_on_c, 0, 72, 0
2, 70750, Note_on_c, 0, 43, 0
2, 70776, Note_on_c, 0, 64, 0
2, 70846, Note_on_c, 0, 67, 17
2, 71148, Note_on_c, 0, 70, 40
2, 71168, Note_on_c, 0, 40, 40
2, 71168, Note_on_c, 0, 59, 36
2, 71171, Note_on_c, 0, 52, 40
2, 71204, Note_on_c, 0, 67, 0
2, 71384, Control_c, 0, 64, 0
2, 71554, Note_on_c, 0, 64, 34
2, 71610, Note_on_c, 0, 59, 0
2, 71614, Control_c, 0, 64, 127
2, 71640, Note_on_c, 0, 52, 0
2, 71804, Note_on_c, 0, 64, 0
2, 71904, Note_on_c, 0, 40, 0
2, 71909, Note_on_c, 0, 67, 24
2, 72028, Note_on_c, 0, 67, 0
2, 72212, Note_on_c, 0, 70, 0
2, 72270, Note_on_c, 0, 71, 51
2, 72296, Note_on_c, 0, 59, 31
2, 72302, Note_on_c, 0, 47, 19
2, 72306, Note_on_c, 0, 35, 25
2, 72368, Control_c, 0, 64, 0
2, 72610, Note_on_c, 0, 63, 36
2, 72628, Control_c, 0, 64, 127
2, 72868, Note_on_c, 0, 59, 0
2, 72946, Note_on_c, 0, 66, 23
2, 72972, Note_on_c, 0, 63, 0
2, 73190, Note_on_c, 0, 66, 0
2, 73270, Note_on_c, 0, 59, 26
2, 73588, Note_on_c, 0, 63, 29
2, 73591, Note_on_c, 0, 59, 0
2, 73920, Note_on_c, 0, 63, 0
2, 73930, Note_on_c, 0, 66, 16
2, 74166, Note_on_c, 0, 66, 0
2, 74278, Note_on_c, 0, 59, 18
2, 74516, Note_on_c, 0, 59, 0
2, 74584, Note_on_c, 0, 63, 27
2, 74796, Note_on_c, 0, 63, 0
2, 74928, Note_on_c, 0, 66, 23
2, 75028, Note_on_c, 0, 71, 0
2, 75130, Note_on_c, 0, 66, 0
2, 75240, Note_on_c, 0, 71, 93
2, 75288, Note_on_c, 0, 59, 19
2, 75568, Note_on_c, 0, 63, 39
2, 75584, Note_on_c, 0, 59, 0
2, 75764, Note_on_c, 0, 63, 0
2, 75870, Note_on_c, 0, 71, 0
2, 75898, Note_on_c, 0, 66, 43
2, 75956, Note_on_c, 0, 66, 0
2, 76242, Note_on_c, 0, 72, 87
2, 76264, Note_on_c, 0, 59, 36
2, 76470, Control_c, 0, 64, 0
2, 76590, Note_on_c, 0, 64, 40
2, 76716, Control_c, 0, 64, 127
2, 76826, Note_on_c, 0, 35, 0
2, 76890, Note_on_c, 0, 59, 0
2, 76922, Note_on_c, 0, 67, 40
2, 76946, Note_on_c, 0, 47, 0
2, 76988, Note_on_c, 0, 64, 0
2, 77168, Note_on_c, 0, 67, 0
2, 77218, Note_on_c, 0, 52, 66
2, 77234, Note_on_c, 0, 40, 62
2, 77240, Note_on_c, 0, 59, 32
2, 77550, Note_on_c, 0, 64, 46
2, 77650, Note_on_c, 0, 59, 0
2, 77664, Note_on_c, 0, 52, 0
2, 77738, Note_on_c, 0, 40, 0
2, 77870, Note_on_c, 0, 67, 34
2, 77906, Note_on_c, 0, 64, 0
2, 78156, Note_on_c, 0, 59, 33
2, 78170, Note_on_c, 0, 55, 62
2, 78188, Note_on_c, 0, 43, 47
2, 78198, Note_on_c, 0, 67, 0
2, 78282, Control_c, 0, 64, 0
2, 78518, Note_on_c, 0, 64, 40
2, 78560, Control_c, 0, 64, 127
2, 78642, Note_on_c, 0, 55, 0
2, 78666, Note_on_c, 0, 59, 0
2, 78796, Note_on_c, 0, 64, 0
2, 78796, Note_on_c, 0, 43, 0
2, 78834, Note_on_c, 0, 67, 41
2, 78856, Note_on_c, 0, 72, 0
2, 79134, Note_on_c, 0, 70, 59
2, 79158, Note_on_c, 0, 59, 44
2, 79158, Note_on_c, 0, 52, 54
2, 79161, Note_on_c, 0, 40, 56
2, 79180, Note_on_c, 0, 67, 0
2, 79468, Note_on_c, 0, 59, 0
2, 79502, Note_on_c, 0, 64, 41
2, 79542, Note_on_c, 0, 52, 0
2, 79682, Note_on_c, 0, 64, 0
2, 79792, Note_on_c, 0, 40, 0
2, 79840, Note_on_c, 0, 67, 31
2, 80042, Note_on_c, 0, 67, 0
2, 80162, Note_on_c, 0, 71, 86
2, 80170, Note_on_c, 0, 70, 0
2, 80180, Note_on_c, 0, 47, 36
2, 80188, Note_on_c, 0, 59, 39
2, 80191, Note_on_c, 0, 35, 52
2, 80250, Control_c, 0, 64, 0
2, 80496, Note_on_c, 0, 63, 54
2, 80618, Control_c, 0, 64, 127
2, 80804, Note_on_c, 0, 59, 0
2, 80820, Note_on_c, 0, 66, 29
2, 80882, Note_on_c, 0, 63, 0
2, 81124, Note_on_c, 0, 66, 0
2, 81180, Note_on_c, 0, 59, 33
2, 81183, Note_on_c, 0, 47, 0
2, 81494, Note_on_c, 0, 59, 0
2, 81494, Note_on_c, 0, 63, 48
2, 81670, Note_on_c, 0, 35, 0
2, 81812, Note_on_c, 0, 66, 47
2, 81814, Note_on_c, 0, 63, 0
2, 81830, Note_on_c, 0, 71, 0
2, 82150, Note_on_c, 0, 71, 90
2, 82154, Note_on_c, 0, 32, 57
2, 82160, Note_on_c, 0, 44, 44
2, 82162, Note_on_c, 0, 59, 51
2, 82214, Note_on_c, 0, 66, 0
2, 82354, Control_c, 0, 64, 0
2, 82462, Note_on_c, 0, 62, 54
2, 82616, Control_c, 0, 64, 127
2, 82784, Note_on_c, 0, 65, 52
2, 82808, Note_on_c, 0, 59, 0
2, 82902, Note_on_c, 0, 62, 0
2, 83140, Note_on_c, 0, 59, 50
2, 83176, Note_on_c, 0, 65, 0
2, 83468, Note_on_c, 0, 62, 57
2, 83618, Note_on_c, 0, 59, 0
2, 83632, Note_on_c, 0, 71, 0
2, 83700, Note_on_c, 0, 44, 0
2, 83806, Note_on_c, 0, 65, 49
2, 83816, Note_on_c, 0, 62, 0
2, 83832, Note_on_c, 0, 32, 0
2, 84004, Note_on_c, 0, 65, 0
2, 84146, Note_on_c, 0, 71, 92
2, 84160, Note_on_c, 0, 29, 58
2, 84166, Note_on_c, 0, 41, 47
2, 84168, Note_on_c, 0, 59, 34
2, 84260, Control_c, 0, 64, 0
2, 84506, Note_on_c, 0, 61, 47
2, 84522, Control_c, 0, 64, 127
2, 84570, Note_on_c, 0, 41, 0
2, 84588, Note_on_c, 0, 59, 0
2, 84808, Note_on_c, 0, 61, 0
2, 84874, Note_on_c, 0, 68, 41
2, 85144, Note_on_c, 0, 68, 0
2, 85238, Note_on_c, 0, 59, 40
2, 85522, Note_on_c, 0, 59, 0
2, 85568, Note_on_c, 0, 61, 47
2, 85764, Note_on_c, 0, 61, 0
2, 85884, Note_on_c, 0, 68, 56
2, 85966, Note_on_c, 0, 71, 0
2, 86194, Note_on_c, 0, 68, 0
2, 86196, Note_on_c, 0, 69, 63
2, 86206, Note_on_c, 0, 30, 47
2, 86206, Note_on_c, 0, 57, 43
2, 86214, Note_on_c, 0, 42, 41
2, 86230, Note_on_c, 0, 29, 0
2, 86410, Control_c, 0, 64, 0
2, 86556, Note_on_c, 0, 61, 50
2, 86704, Control_c, 0, 64, 127
2, 86830, Note_on_c, 0, 57, 0
2, 86924, Note_on_c, 0, 66, 34
2, 86966, Note_on_c, 0, 61, 0
2, 87176, Note_on_c, 0, 66, 0
2, 87268, Note_on_c, 0, 57, 36
2, 87602, Note_on_c, 0, 57, 0
2, 87610, Note_on_c, 0, 61, 44
2, 87762, Note_on_c, 0, 30, 0
2, 87926, Note_on_c, 0, 69, 0
2, 87944, Note_on_c, 0, 61, 0
2, 87950, Note_on_c, 0, 66, 42
2, 87972, Note_on_c, 0, 42, 0
2, 88126, Note_on_c, 0, 66, 0
2, 88271, Note_on_c, 0, 47, 46
2, 88276, Note_on_c, 0, 35, 56
2, 88286, Note_on_c, 0, 67, 70
2, 88286, Note_on_c, 0, 55, 43
2, 88638, Note_on_c, 0, 59, 37
2, 88670, Control_c, 0, 64, 0
2, 88884, Control_c, 0, 64, 127
2, 88922, Note_on_c, 0, 55, 0
2, 88964, Note_on_c, 0, 62, 48
2, 89022, Note_on_c, 0, 59, 0
2, 89190, Note_on_c, 0, 62, 0
2, 89316, Note_on_c, 0, 55, 43
2, 89518, Note_on_c, 0, 55, 0
2, 89678, Note_on_c, 0, 59, 39
2, 89810, Note_on_c, 0, 67, 0
2, 89826, Note_on_c, 0, 35, 0
2, 89834, Note_on_c, 0, 59, 0
2, 89908, Note_on_c, 0, 47, 0
2, 90026, Note_on_c, 0, 62, 51
2, 90128, Note_on_c, 0, 62, 0
2, 90386, Note_on_c, 0, 66, 56
2, 90396, Note_on_c, 0, 54, 50
2, 90416, Note_on_c, 0, 48, 27
2, 90424, Note_on_c, 0, 36, 41
2, 90544, Control_c, 0, 64, 0
2, 90728, Note_on_c, 0, 57, 42
2, 90836, Control_c, 0, 64, 127
2, 91022, Note_on_c, 0, 54, 0
2, 91046, Note_on_c, 0, 57, 0
2, 91088, Note_on_c, 0, 63, 35
2, 91358, Note_on_c, 0, 63, 0
2, 91446, Note_on_c, 0, 54, 34
2, 91796, Note_on_c, 0, 57, 39
2, 91822, Note_on_c, 0, 54, 0
2, 91980, Note_on_c, 0, 57, 0
2, 92172, Note_on_c, 0, 63, 44
2, 92198, Note_on_c, 0, 66, 0
2, 92294, Note_on_c, 0, 48, 0
2, 92298, Note_on_c, 0, 63, 0
2, 92628, Note_on_c, 0, 61, 60
2, 92640, Note_on_c, 0, 49, 33
2, 92650, Note_on_c, 0, 37, 33
2, 92672, Note_on_c, 0, 36, 0
2, 92986, Note_on_c, 0, 54, 44
2, 93018, Control_c, 0, 64, 0
2, 93248, Control_c, 0, 64, 127
2, 93326, Note_on_c, 0, 57, 39
2, 93362, Note_on_c, 0, 49, 0
2, 93398, Note_on_c, 0, 54, 0
2, 93584, Note_on_c, 0, 57, 0
2, 93654, Note_on_c, 0, 49, 37
2, 93978, Note_on_c, 0, 49, 0
2, 93980, Note_on_c, 0, 54, 40
2, 94212, Note_on_c, 0, 54, 0
2, 94284, Note_on_c, 0, 37, 0
2, 94340, Note_on_c, 0, 57, 24
2, 94352, Note_on_c, 0, 61, 0
2, 94532, Note_on_c, 0, 57, 0
2, 94740, Note_on_c, 0, 61, 55
2, 94754, Note_on_c, 0, 49, 27
2, 94764, Note_on_c, 0, 37, 27
2, 94938, Control_c, 0, 64, 0
2, 95132, Note_on_c, 0, 54, 37
2, 95170, Control_c, 0, 64, 127
2, 95360, Note_on_c, 0, 49, 0
2, 95434, Note_on_c, 0, 54, 0
2, 95540, Note_on_c, 0, 56, 27
2, 95546, Note_on_c, 0, 61, 0
2, 95656, Note_on_c, 0, 56, 0
2, 95920, Note_on_c, 0, 61, 51
2, 95934, Note_on_c, 0, 49, 23
2, 96152, Control_c, 0, 64, 0
2, 96340, Note_on_c, 0, 53, 48
2, 96368, Control_c, 0, 64, 127
2, 96522, Note_on_c, 0, 49, 0
2, 96606, Note_on_c, 0, 53, 0
2, 96694, Note_on_c, 0, 37, 0
2, 96744, Note_on_c, 0, 56, 40
2, 96874, Note_on_c, 0, 56, 0
2, 97280, Note_on_c, 0, 54, 58
2, 97312, Note_on_c, 0, 42, 26
2, 97312, Note_on_c, 0, 30, 32
2, 97328, Note_on_c, 0, 37, 29
2, 97476, Note_on_c, 0, 61, 0
2, 97752, Note_on_c, 0, 57, 28
2, 98124, Note_on_c, 0, 61, 32
2, 98130, Note_on_c, 0, 57, 0
2, 98220, Note_on_c, 0, 54, 0
2, 98464, Note_on_c, 0, 57, 34
2, 98478, Note_on_c, 0, 61, 0
2, 98798, Note_on_c, 0, 57, 0
2, 98814, Note_on_c, 0, 61, 47
2, 99114, Note_on_c, 0, 61, 0
2, 99150, Note_on_c, 0, 66, 28
2, 99486, Note_on_c, 0, 61, 25
2, 99492, Note_on_c, 0, 66, 0
2, 99854, Note_on_c, 0, 66, 16
2, 99884, Note_on_c, 0, 61, 0
2, 100232, Note_on_c, 0, 66, 0
2, 100238, Note_on_c, 0, 69, 21
2, 100444, Note_on_c, 0, 69, 0
2, 100672, Note_on_c, 0, 73, 74
2, 100716, Note_on_c, 0, 61, 41
2, 100810, Note_on_c, 0, 61, 0
2, 101024, Note_on_c, 0, 30, 0
2, 101036, Note_on_c, 0, 37, 0
2, 101078, Note_on_c, 0, 66, 29
2, 101088, Note_on_c, 0, 42, 0
2, 101274, Note_on_c, 0, 73, 0
2, 101346, Note_on_c, 0, 66, 0
2, 101404, Note_on_c, 0, 69, 27
2, 101490, Note_on_c, 0, 69, 0
2, 101624, Note_on_c, 0, 73, 83
2, 101754, Note_on_c, 0, 73, 0
2, 101896, Note_on_c, 0, 73, 80
2, 101916, Note_on_c, 0, 41, 42
2, 101920, Note_on_c, 0, 49, 28
2, 101924, Note_on_c, 0, 53, 59
2, 101928, Note_on_c, 0, 61, 36
2, 102022, Control_c, 0, 64, 0
2, 102328, Note_on_c, 0, 68, 27
2, 102330, Control_c, 0, 64, 127
2, 102408, Note_on_c, 0, 61, 0
2, 102686, Note_on_c, 0, 71, 50
2, 102688, Note_on_c, 0, 68, 0
2, 102900, Note_on_c, 0, 71, 0
2, 103026, Note_on_c, 0, 61, 33
2, 103320, Note_on_c, 0, 61, 0
2, 103362, Note_on_c, 0, 68, 31
2, 103668, Note_on_c, 0, 68, 0
2, 103712, Note_on_c, 0, 71, 34
2, 103932, Note_on_c, 0, 71, 0
2, 104058, Note_on_c, 0, 61, 34
2, 104340, Note_on_c, 0, 61, 0
2, 104398, Note_on_c, 0, 68, 25
2, 104676, Note_on_c, 0, 68, 0
2, 104728, Note_on_c, 0, 73, 0
2, 104764, Note_on_c, 0, 71, 34
2, 104910, Note_on_c, 0, 71, 0
2, 105136, Note_on_c, 0, 73, 71
2, 105154, Note_on_c, 0, 61, 40
2, 105358, Note_on_c, 0, 61, 0
2, 105510, Note_on_c, 0, 68, 35
2, 105744, Note_on_c, 0, 73, 0
2, 105818, Note_on_c, 0, 53, 0
2, 105822, Note_on_c, 0, 68, 0
2, 105838, Note_on_c, 0, 71, 41
2, 105876, Note_on_c, 0, 41, 0
2, 105910, Note_on_c, 0, 71, 0
2, 105966, Note_on_c, 0, 73, 75
2, 106092, Note_on_c, 0, 73, 0
2, 106104, Note_on_c, 0, 49, 0
2, 106226, Note_on_c, 0, 73, 87
2, 106234, Note_on_c, 0, 61, 65
2, 106238, Note_on_c, 0, 42, 41
2, 106244, Note_on_c, 0, 54, 42
2, 106320, Note_on_c, 0, 61, 0
2, 106410, Note_on_c, 0, 61, 8
2, 106462, Control_c, 0, 64, 0
2, 106586, Note_on_c, 0, 66, 35
2, 106816, Control_c, 0, 64, 127
2, 106878, Note_on_c, 0, 69, 36
2, 106924, Note_on_c, 0, 61, 0
2, 106932, Note_on_c, 0, 66, 0
2, 107200, Note_on_c, 0, 61, 34
2, 107203, Note_on_c, 0, 69, 0
2, 107534, Note_on_c, 0, 66, 33
2, 107558, Note_on_c, 0, 61, 0
2, 107842, Note_on_c, 0, 69, 41
2, 107856, Note_on_c, 0, 66, 0
2, 107884, Note_on_c, 0, 54, 0
2, 107920, Note_on_c, 0, 73, 0
2, 108026, Note_on_c, 0, 69, 0
2, 108034, Note_on_c, 0, 42, 0
2, 108170, Note_on_c, 0, 72, 85
2, 108178, Note_on_c, 0, 60, 65
2, 108182, Note_on_c, 0, 51, 58
2, 108190, Note_on_c, 0, 39, 55
2, 108530, Note_on_c, 0, 66, 39
2, 108598, Control_c, 0, 64, 0
2, 108752, Control_c, 0, 64, 127
2, 108812, Note_on_c, 0, 60, 0
2, 108864, Note_on_c, 0, 69, 48
2, 108886, Note_on_c, 0, 72, 0
2, 108972, Note_on_c, 0, 66, 0
2, 108992, Note_on_c, 0, 51, 0
2, 109022, Note_on_c, 0, 69, 0
2, 109078, Note_on_c, 0, 39, 0
2, 109148, Note_on_c, 0, 73, 87
2, 109154, Note_on_c, 0, 49, 66
2, 109162, Note_on_c, 0, 61, 67
2, 109170, Note_on_c, 0, 37, 58
2, 109474, Note_on_c, 0, 66, 55
2, 109506, Control_c, 0, 64, 0
2, 109688, Control_c, 0, 64, 127
2, 109808, Note_on_c, 0, 69, 62
2, 109811, Note_on_c, 0, 66, 0
2, 109880, Note_on_c, 0, 61, 0
2, 109890, Note_on_c, 0, 49, 0
2, 109936, Note_on_c, 0, 37, 0
2, 109954, Note_on_c, 0, 73, 0
2, 109986, Note_on_c, 0, 69, 0
2, 110194, Note_on_c, 0, 36, 52
2, 110196, Note_on_c, 0, 44, 56
2, 110196, Note_on_c, 0, 75, 89
2, 110200, Note_on_c, 0, 48, 42
2, 110204, Note_on_c, 0, 63, 71
2, 110458, Control_c, 0, 64, 0
2, 110610, Note_on_c, 0, 66, 34
2, 110688, Control_c, 0, 64, 127
2, 110784, Note_on_c, 0, 63, 0
2, 110958, Note_on_c, 0, 68, 39
2, 111020, Note_on_c, 0, 66, 0
2, 111250, Note_on_c, 0, 68, 0
2, 111326, Note_on_c, 0, 63, 27
2, 111594, Note_on_c, 0, 63, 0
2, 111668, Note_on_c, 0, 66, 32
2, 111990, Note_on_c, 0, 66, 0
2, 112000, Note_on_c, 0, 68, 43
2, 112202, Note_on_c, 0, 68, 0
2, 112336, Note_on_c, 0, 63, 46
2, 112548, Note_on_c, 0, 63, 0
2, 112670, Note_on_c, 0, 66, 46
2, 112862, Note_on_c, 0, 66, 0
2, 112906, Note_on_c, 0, 44, 0
2, 112932, Note_on_c, 0, 36, 0
2, 112934, Note_on_c, 0, 48, 0
2, 112982, Note_on_c, 0, 68, 57
2, 112986, Note_on_c, 0, 75, 0
2, 113138, Note_on_c, 0, 68, 0
2, 113286, Note_on_c, 0, 75, 90
2, 113294, Note_on_c, 0, 48, 52
2, 113304, Note_on_c, 0, 63, 67
2, 113306, Note_on_c, 0, 36, 46
2, 113306, Note_on_c, 0, 44, 48
2, 113582, Note_on_c, 0, 63, 0
2, 113632, Note_on_c, 0, 66, 43
2, 113846, Note_on_c, 0, 36, 0
2, 113864, Note_on_c, 0, 48, 0
2, 113924, Note_on_c, 0, 66, 0
2, 113936, Note_on_c, 0, 44, 0
2, 113956, Note_on_c, 0, 68, 54
2, 114018, Note_on_c, 0, 75, 0
2, 114096, Note_on_c, 0, 68, 0
2, 114256, Note_on_c, 0, 76, 93
2, 114278, Note_on_c, 0, 64, 64
2, 114283, Note_on_c, 0, 49, 52
2, 114283, Note_on_c, 0, 37, 57
2, 114300, Note_on_c, 0, 44, 49
2, 114498, Control_c, 0, 64, 0
2, 114622, Note_on_c, 0, 68, 47
2, 114806, Control_c, 0, 64, 127
2, 114854, Note_on_c, 0, 64, 0
2, 114956, Note_on_c, 0, 73, 46
2, 115014, Note_on_c, 0, 68, 0
2, 115178, Note_on_c, 0, 73, 0
2, 115304, Note_on_c, 0, 64, 54
2, 115542, Note_on_c, 0, 49, 0
2, 115604, Note_on_c, 0, 64, 0
2, 115622, Note_on_c, 0, 68, 47
2, 115658, Note_on_c, 0, 44, 0
2, 115802, Note_on_c, 0, 68, 0
2, 115946, Note_on_c, 0, 73, 59
2, 115982, Note_on_c, 0, 76, 0
2, 116090, Note_on_c, 0, 73, 0
2, 116248, Note_on_c, 0, 75, 83
2, 116268, Note_on_c, 0, 37, 0
2, 116268, Note_on_c, 0, 63, 58
2, 116274, Note_on_c, 0, 30, 54
2, 116274, Note_on_c, 0, 42, 34
2, 116434, Control_c, 0, 64, 0
2, 116588, Note_on_c, 0, 66, 41
2, 116696, Note_on_c, 0, 63, 0
2, 116710, Control_c, 0, 64, 127
2, 116930, Note_on_c, 0, 69, 46
2, 117000, Note_on_c, 0, 42, 0
2, 117000, Note_on_c, 0, 75, 0
2, 117003, Note_on_c, 0, 66, 0
2, 117066, Note_on_c, 0, 30, 0
2, 117092, Note_on_c, 0, 69, 0
2, 117270, Note_on_c, 0, 73, 64
2, 117284, Note_on_c, 0, 61, 42
2, 117298, Note_on_c, 0, 43, 34
2, 117301, Note_on_c, 0, 31, 37
2, 117432, Control_c, 0, 64, 0
2, 117662, Note_on_c, 0, 64, 42
2, 117772, Control_c, 0, 64, 127
2, 117892, Note_on_c, 0, 43, 0
2, 117930, Note_on_c, 0, 61, 0
2, 117962, Note_on_c, 0, 64, 0
2, 118048, Note_on_c, 0, 70, 36
2, 118138, Note_on_c, 0, 73, 0
2, 118220, Note_on_c, 0, 31, 0
2, 118486, Note_on_c, 0, 32, 24
2, 118488, Note_on_c, 0, 72, 48
2, 118494, Note_on_c, 0, 44, 31
2, 118570, Note_on_c, 0, 70, 0
2, 118570, Control_c, 0, 64, 0
2, 118834, Note_on_c, 0, 60, 37
2, 118922, Control_c, 0, 64, 127
2, 119132, Note_on_c, 0, 63, 41
2, 119150, Note_on_c, 0, 60, 0
2, 119430, Note_on_c, 0, 68, 64
2, 119480, Note_on_c, 0, 63, 0
2, 119576, Note_on_c, 0, 72, 0
2, 119766, Note_on_c, 0, 60, 32
2, 120072, Note_on_c, 0, 60, 0
2, 120078, Note_on_c, 0, 63, 41
2, 120368, Note_on_c, 0, 69, 55
2, 120404, Note_on_c, 0, 68, 0
2, 120416, Note_on_c, 0, 63, 0
2, 120684, Note_on_c, 0, 60, 34
2, 120706, Control_c, 0, 64, 0
2, 120936, Control_c, 0, 64, 127
2, 120978, Note_on_c, 0, 63, 40
2, 120996, Note_on_c, 0, 60, 0
2, 121286, Note_on_c, 0, 66, 39
2, 121308, Note_on_c, 0, 63, 0
2, 121414, Note_on_c, 0, 69, 0
2, 121566, Control_c, 0, 64, 0
2, 121606, Note_on_c, 0, 60, 31
2, 121766, Control_c, 0, 64, 127
2, 121850, Note_on_c, 0, 44, 0
2, 121896, Note_on_c, 0, 60, 0
2, 121906, Note_on_c, 0, 32, 0
2, 121950, Note_on_c, 0, 63, 28
2, 122166, Note_on_c, 0, 66, 0
2, 122169, Note_on_c, 0, 63, 0
2, 122288, Note_on_c, 0, 32, 40
2, 122294, Note_on_c, 0, 44, 46
2, 122640, Note_on_c, 0, 60, 42
2, 122892, Note_on_c, 0, 60, 0
2, 122952, Note_on_c, 0, 63, 39
2, 123232, Note_on_c, 0, 56, 60
2, 123346, Note_on_c, 0, 63, 0
2, 123546, Note_on_c, 0, 60, 35
2, 123790, Note_on_c, 0, 60, 0
2, 123854, Note_on_c, 0, 63, 43
2, 124064, Note_on_c, 0, 56, 0
2, 124122, Note_on_c, 0, 63, 0
2, 124142, Note_on_c, 0, 57, 58
2, 124460, Note_on_c, 0, 60, 32
2, 124514, Control_c, 0, 64, 0
2, 124716, Control_c, 0, 64, 127
2, 124740, Note_on_c, 0, 63, 36
2, 124860, Note_on_c, 0, 60, 0
2, 125020, Note_on_c, 0, 63, 0
2, 125076, Note_on_c, 0, 54, 66
2, 125194, Note_on_c, 0, 57, 0
2, 125400, Note_on_c, 0, 60, 35
2, 125578, Note_on_c, 0, 44, 0
2, 125602, Note_on_c, 0, 32, 0
2, 125666, Note_on_c, 0, 60, 0
2, 125690, Note_on_c, 0, 54, 0
2, 125694, Note_on_c, 0, 63, 41
2, 125910, Note_on_c, 0, 63, 0
2, 126014, Note_on_c, 0, 52, 63
2, 126044, Note_on_c, 0, 44, 32
2, 126048, Note_on_c, 0, 32, 24
2, 126052, Control_c, 0, 64, 0
2, 126268, Control_c, 0, 64, 127
2, 126318, Note_on_c, 0, 52, 0
2, 126338, Note_on_c, 0, 64, 56
2, 126432, Note_on_c, 0, 64, 0
2, 126616, Note_on_c, 0, 68, 44
2, 126894, Note_on_c, 0, 73, 75
2, 126902, Note_on_c, 0, 68, 0
2, 127214, Note_on_c, 0, 64, 42
2, 127448, Note_on_c, 0, 64, 0
2, 127504, Note_on_c, 0, 68, 44
2, 127734, Note_on_c, 0, 73, 0
2, 127744, Note_on_c, 0, 68, 0
2, 127828, Note_on_c, 0, 76, 80
2, 128154, Note_on_c, 0, 64, 33
2, 128378, Note_on_c, 0, 64, 0
2, 128440, Note_on_c, 0, 68, 33
2, 128608, Note_on_c, 0, 68, 0
2, 128802, Note_on_c, 0, 73, 42
2, 128940, Note_on_c, 0, 76, 0
2, 129136, Note_on_c, 0, 44, 0
2, 129142, Note_on_c, 0, 64, 17
2, 129246, Note_on_c, 0, 64, 0
2, 129266, Note_on_c, 0, 32, 0
2, 129428, Note_on_c, 0, 68, 33
2, 129502, Note_on_c, 0, 73, 0
2, 129570, Note_on_c, 0, 68, 0
2, 129718, Note_on_c, 0, 32, 39
2, 129726, Note_on_c, 0, 44, 41
2, 130032, Note_on_c, 0, 52, 47
2, 130310, Note_on_c, 0, 56, 41
2, 130352, Note_on_c, 0, 52, 0
2, 130590, Note_on_c, 0, 61, 60
2, 130648, Note_on_c, 0, 56, 0
2, 130894, Note_on_c, 0, 52, 47
2, 131030, Note_on_c, 0, 52, 0
2, 131178, Note_on_c, 0, 56, 37
2, 131260, Note_on_c, 0, 61, 0
2, 131490, Note_on_c, 0, 56, 0
2, 131508, Note_on_c, 0, 64, 51
2, 131846, Note_on_c, 0, 52, 35
2, 132082, Note_on_c, 0, 52, 0
2, 132166, Note_on_c, 0, 56, 25
2, 132314, Note_on_c, 0, 56, 0
2, 132480, Note_on_c, 0, 61, 34
2, 132552, Note_on_c, 0, 64, 0
2, 132820, Note_on_c, 0, 52, 21
2, 132990, Note_on_c, 0, 52, 0
2, 132992, Note_on_c, 0, 44, 0
2, 133048, Note_on_c, 0, 32, 0
2, 133160, Note_on_c, 0, 61, 0
2, 133202, Note_on_c, 0, 56, 25
2, 133406, Note_on_c, 0, 56, 0
2, 133570, Note_on_c, 0, 44, 28
2, 133582, Note_on_c, 0, 32, 24
2, 133590, Note_on_c, 0, 51, 26
2, 133675, Control_c, 0, 64, 0
2, 133920, Control_c, 0, 64, 127
2, 133958, Note_on_c, 0, 57, 31
2, 134148, Note_on_c, 0, 51, 0
2, 134290, Note_on_c, 0, 54, 46
2, 134296, Note_on_c, 0, 57, 0
2, 134598, Note_on_c, 0, 54, 0
2, 134598, Note_on_c, 0, 60, 57
2, 134888, Note_on_c, 0, 57, 39
2, 134890, Note_on_c, 0, 60, 0
2, 135180, Note_on_c, 0, 57, 0
2, 135184, Note_on_c, 0, 63, 59
2, 135476, Note_on_c, 0, 60, 57
2, 135520, Note_on_c, 0, 63, 0
2, 135766, Note_on_c, 0, 66, 44
2, 135774, Note_on_c, 0, 60, 0
2, 136048, Note_on_c, 0, 63, 56
2, 136076, Note_on_c, 0, 66, 0
2, 136322, Note_on_c, 0, 63, 0
2, 136346, Note_on_c, 0, 69, 40
2, 136674, Note_on_c, 0, 66, 35
2, 136706, Note_on_c, 0, 69, 0
2, 136876, Note_on_c, 0, 44, 0
2, 136902, Note_on_c, 0, 32, 0
2, 136996, Note_on_c, 0, 66, 0
2, 136999, Note_on_c, 0, 72, 40
2, 137108, Note_on_c, 0, 72, 0
2, 137382, Note_on_c, 0, 52, 55
2, 137394, Note_on_c, 0, 44, 32
2, 137394, Note_on_c, 0, 32, 32
2, 137690, Note_on_c, 0, 61, 57
2, 137745, Control_c, 0, 64, 0
2, 137914, Control_c, 0, 64, 127
2, 137980, Note_on_c, 0, 56, 56
2, 137983, Note_on_c, 0, 52, 0
2, 138098, Note_on_c, 0, 61, 0
2, 138232, Note_on_c, 0, 56, 0
2, 138280, Note_on_c, 0, 64, 75
2, 138482, Note_on_c, 0, 64, 0
2, 138540, Note_on_c, 0, 61, 73
2, 138824, Note_on_c, 0, 68, 67
2, 138838, Note_on_c, 0, 61, 0
2, 139122, Note_on_c, 0, 64, 75
2, 139154, Note_on_c, 0, 68, 0
2, 139428, Note_on_c, 0, 73, 62
2, 139496, Note_on_c, 0, 64, 0
2, 139712, Note_on_c, 0, 68, 63
2, 139782, Note_on_c, 0, 73, 0
2, 140044, Note_on_c, 0, 76, 57
2, 140062, Note_on_c, 0, 68, 0
2, 140402, Note_on_c, 0, 73, 51
2, 140468, Note_on_c, 0, 76, 0
2, 140680, Note_on_c, 0, 44, 0
2, 140712, Note_on_c, 0, 68, 54
2, 140726, Note_on_c, 0, 32, 0
2, 140726, Note_on_c, 0, 73, 0
2, 141008, Note_on_c, 0, 68, 0
2, 141017, Note_on_c, 0, 32, 50
2, 141017, Note_on_c, 0, 61, 52
2, 141022, Note_on_c, 0, 44, 49
2, 141110, Control_c, 0, 64, 0
2, 141332, Note_on_c, 0, 67, 51
2, 141340, Control_c, 0, 64, 127
2, 141394, Note_on_c, 0, 61, 0
2, 141624, Note_on_c, 0, 64, 66
2, 141628, Note_on_c, 0, 67, 0
2, 141906, Note_on_c, 0, 70, 64
2, 141924, Note_on_c, 0, 64, 0
2, 142188, Note_on_c, 0, 67, 78
2, 142208, Note_on_c, 0, 70, 0
2, 142460, Note_on_c, 0, 73, 77
2, 142472, Note_on_c, 0, 67, 0
2, 142736, Note_on_c, 0, 70, 73
2, 142780, Note_on_c, 0, 73, 0
2, 143042, Note_on_c, 0, 76, 77
2, 143102, Note_on_c, 0, 70, 0
2, 143326, Note_on_c, 0, 73, 78
2, 143400, Note_on_c, 0, 76, 0
2, 143620, Note_on_c, 0, 79, 101
2, 143666, Note_on_c, 0, 73, 0
2, 143920, Note_on_c, 0, 76, 86
2, 143948, Note_on_c, 0, 79, 0
2, 144206, Note_on_c, 0, 44, 0
2, 144238, Note_on_c, 0, 32, 0
2, 144244, Note_on_c, 0, 82, 86
2, 144260, Note_on_c, 0, 76, 0
2, 144388, Note_on_c, 0, 82, 0
2, 144606, Note_on_c, 0, 66, 71
2, 144612, Note_on_c, 0, 44, 56
2, 144614, Note_on_c, 0, 32, 56
2, 144828, Control_c, 0, 64, 0
2, 144950, Note_on_c, 0, 72, 79
2, 144998, Control_c, 0, 64, 127
2, 145062, Note_on_c, 0, 66, 0
2, 145260, Note_on_c, 0, 69, 85
2, 145272, Note_on_c, 0, 72, 0
2, 145548, Note_on_c, 0, 75, 88
2, 145580, Note_on_c, 0, 69, 0
2, 145832, Note_on_c, 0, 72, 92
2, 145844, Note_on_c, 0, 75, 0
2, 146094, Note_on_c, 0, 78, 92
2, 146116, Note_on_c, 0, 72, 0
2, 146368, Note_on_c, 0, 75, 89
2, 146412, Note_on_c, 0, 78, 0
2, 146656, Note_on_c, 0, 81, 95
2, 146715, Note_on_c, 0, 75, 0
2, 146956, Note_on_c, 0, 78, 96
2, 147014, Note_on_c, 0, 81, 0
2, 147270, Note_on_c, 0, 84, 110
2, 147306, Note_on_c, 0, 78, 0
2, 147576, Note_on_c, 0, 81, 104
2, 147602, Note_on_c, 0, 84, 0
2, 147918, Note_on_c, 0, 87, 77
2, 147942, Note_on_c, 0, 81, 0
2, 148270, Note_on_c, 0, 84, 94
2, 148359, Note_on_c, 0, 87, 0
2, 148596, Note_on_c, 0, 78, 74
2, 148628, Note_on_c, 0, 84, 0
2, 148912, Note_on_c, 0, 81, 67
2, 148958, Note_on_c, 0, 78, 0
2, 149206, Note_on_c, 0, 75, 55
2, 149220, Note_on_c, 0, 81, 0
2, 149488, Note_on_c, 0, 78, 62
2, 149526, Note_on_c, 0, 75, 0
2, 149778, Note_on_c, 0, 78, 0
2, 149778, Note_on_c, 0, 72, 55
2, 150074, Note_on_c, 0, 75, 50
2, 150096, Note_on_c, 0, 72, 0
2, 150358, Note_on_c, 0, 75, 0
2, 150368, Note_on_c, 0, 69, 20
2, 150604, Note_on_c, 0, 69, 0
2, 150674, Note_on_c, 0, 72, 39
2, 150924, Note_on_c, 0, 72, 0
2, 150948, Note_on_c, 0, 66, 26
2, 151234, Note_on_c, 0, 69, 27
2, 151260, Note_on_c, 0, 66, 0
2, 151510, Note_on_c, 0, 69, 0
2, 151516, Note_on_c, 0, 63, 36
2, 151802, Note_on_c, 0, 66, 33
2, 151828, Note_on_c, 0, 63, 0
2, 152070, Note_on_c, 0, 60, 35
2, 152092, Note_on_c, 0, 66, 0
2, 152348, Note_on_c, 0, 60, 0
2, 152354, Note_on_c, 0, 63, 46
2, 152612, Note_on_c, 0, 63, 0
2, 152634, Note_on_c, 0, 57, 44
2, 152854, Note_on_c, 0, 57, 0
2, 152932, Note_on_c, 0, 60, 51
2, 153158, Note_on_c, 0, 60, 0
2, 153200, Note_on_c, 0, 54, 54
2, 153450, Note_on_c, 0, 54, 0
2, 153490, Note_on_c, 0, 57, 48
2, 153764, Note_on_c, 0, 51, 56
2, 154060, Note_on_c, 0, 57, 0
2, 154082, Note_on_c, 0, 54, 43
2, 154382, Note_on_c, 0, 49, 52
2, 154420, Note_on_c, 0, 54, 0
2, 154476, Note_on_c, 0, 51, 0
2, 154694, Control_c, 0, 64, 0
2, 154708, Note_on_c, 0, 54, 40
2, 154846, Control_c, 0, 64, 127
2, 154962, Note_on_c, 0, 44, 0
2, 154988, Note_on_c, 0, 32, 0
2, 155012, Note_on_c, 0, 54, 0
2, 155022, Note_on_c, 0, 57, 32
2, 155186, Note_on_c, 0, 49, 0
2, 155332, Note_on_c, 0, 48, 51
2, 155342, Note_on_c, 0, 57, 0
2, 155374, Note_on_c, 0, 44, 34
2, 155376, Note_on_c, 0, 32, 24
2, 155630, Control_c, 0, 64, 0
2, 155682, Note_on_c, 0, 54, 40
2, 155860, Control_c, 0, 64, 127
2, 155970, Note_on_c, 0, 56, 33
2, 156058, Note_on_c, 0, 54, 0
2, 156258, Note_on_c, 0, 56, 0
2, 156268, Note_on_c, 0, 57, 37
2, 156542, Note_on_c, 0, 56, 39
2, 156544, Note_on_c, 0, 57, 0
2, 156862, Note_on_c, 0, 54, 44
2, 156864, Note_on_c, 0, 56, 0
2, 157006, Note_on_c, 0, 48, 0
2, 157062, Note_on_c, 0, 54, 0
2, 157128, Note_on_c, 0, 51, 58
2, 157422, Note_on_c, 0, 54, 49
2, 157520, Control_c, 0, 64, 0
2, 157628, Control_c, 0, 64, 127
2, 157708, Note_on_c, 0, 57, 43
2, 157744, Note_on_c, 0, 54, 0
2, 157876, Note_on_c, 0, 51, 0
2, 157930, Note_on_c, 0, 57, 0
2, 157974, Note_on_c, 0, 49, 66
2, 158242, Control_c, 0, 64, 0
2, 158288, Note_on_c, 0, 54, 49
2, 158388, Control_c, 0, 64, 127
2, 158554, Note_on_c, 0, 54, 0
2, 158566, Note_on_c, 0, 44, 0
2, 158594, Note_on_c, 0, 32, 0
2, 158644, Note_on_c, 0, 57, 35
2, 158744, Note_on_c, 0, 49, 0
2, 158940, Note_on_c, 0, 48, 59
2, 158956, Note_on_c, 0, 44, 41
2, 158958, Note_on_c, 0, 32, 32
2, 159008, Note_on_c, 0, 57, 0
2, 159042, Control_c, 0, 64, 0
2, 159262, Note_on_c, 0, 54, 52
2, 159410, Control_c, 0, 64, 127
2, 159558, Note_on_c, 0, 56, 32
2, 159610, Note_on_c, 0, 54, 0
2, 159872, Note_on_c, 0, 57, 28
2, 159876, Note_on_c, 0, 56, 0
2, 159902, Control_c, 0, 64, 0
2, 160102, Control_c, 0, 64, 127
2, 160180, Note_on_c, 0, 56, 29
2, 160224, Note_on_c, 0, 57, 0
2, 160506, Note_on_c, 0, 54, 36
2, 160508, Note_on_c, 0, 56, 0
2, 160578, Control_c, 0, 64, 0
2, 160664, Note_on_c, 0, 48, 0
2, 160670, Control_c, 0, 64, 127
2, 160838, Note_on_c, 0, 50, 52
2, 160876, Note_on_c, 0, 54, 0
2, 161040, Control_c, 0, 64, 0
2, 161188, Note_on_c, 0, 54, 47
2, 161208, Control_c, 0, 64, 127
2, 161442, Note_on_c, 0, 54, 0
2, 161514, Note_on_c, 0, 57, 31
2, 161842, Note_on_c, 0, 49, 47
2, 161888, Note_on_c, 0, 50, 0
2, 161980, Note_on_c, 0, 57, 0
2, 162052, Control_c, 0, 64, 0
2, 162150, Note_on_c, 0, 54, 41
2, 162300, Control_c, 0, 64, 127
2, 162466, Note_on_c, 0, 54, 0
2, 162466, Note_on_c, 0, 44, 0
2, 162480, Note_on_c, 0, 32, 0
2, 162578, Note_on_c, 0, 57, 27
2, 162680, Note_on_c, 0, 49, 0
2, 162934, Note_on_c, 0, 48, 42
2, 162960, Note_on_c, 0, 32, 29
2, 162964, Note_on_c, 0, 44, 29
2, 162988, Note_on_c, 0, 57, 0
2, 163068, Control_c, 0, 64, 0
2, 163324, Note_on_c, 0, 54, 39
2, 163404, Control_c, 0, 64, 127
2, 163612, Note_on_c, 0, 56, 31
2, 163656, Note_on_c, 0, 54, 0
2, 163900, Note_on_c, 0, 56, 0
2, 163914, Note_on_c, 0, 57, 25
2, 164194, Note_on_c, 0, 57, 0
2, 164224, Note_on_c, 0, 56, 27
2, 164296, Note_on_c, 0, 48, 0
2, 164514, Note_on_c, 0, 44, 0
2, 164544, Note_on_c, 0, 56, 0
2, 164562, Note_on_c, 0, 54, 39
2, 164576, Note_on_c, 0, 32, 0
2, 164876, Note_on_c, 0, 54, 0
2, 164882, Note_on_c, 0, 49, 39
2, 164885, Note_on_c, 0, 33, 46
2, 164902, Note_on_c, 0, 45, 27
2, 165048, Control_c, 0, 64, 0
2, 165222, Note_on_c, 0, 52, 50
2, 165418, Control_c, 0, 64, 127
2, 165474, Note_on_c, 0, 49, 0
2, 165548, Note_on_c, 0, 61, 48
2, 165550, Note_on_c, 0, 52, 0
2, 165774, Note_on_c, 0, 61, 0
2, 165854, Note_on_c, 0, 49, 40
2, 165962, Note_on_c, 0, 45, 0
2, 166054, Note_on_c, 0, 49, 0
2, 166254, Note_on_c, 0, 52, 25
2, 166454, Note_on_c, 0, 52, 0
2, 166540, Note_on_c, 0, 61, 34
2, 166562, Note_on_c, 0, 33, 0
2, 166830, Note_on_c, 0, 51, 32
2, 166844, Note_on_c, 0, 30, 47
2, 166848, Note_on_c, 0, 42, 37
2, 166888, Note_on_c, 0, 61, 0
2, 166954, Control_c, 0, 64, 0
2, 167168, Note_on_c, 0, 57, 35
2, 167216, Control_c, 0, 64, 127
2, 167248, Note_on_c, 0, 42, 0
2, 167302, Note_on_c, 0, 51, 0
2, 167480, Note_on_c, 0, 57, 0
2, 167506, Note_on_c, 0, 61, 40
2, 167744, Note_on_c, 0, 61, 0
2, 167812, Note_on_c, 0, 51, 35
2, 168168, Note_on_c, 0, 51, 0
2, 168168, Note_on_c, 0, 57, 31
2, 168388, Note_on_c, 0, 57, 0
2, 168522, Note_on_c, 0, 30, 0
2, 168532, Note_on_c, 0, 61, 27
2, 168822, Note_on_c, 0, 51, 31
2, 168846, Note_on_c, 0, 32, 36
2, 168872, Note_on_c, 0, 44, 19
2, 168878, Note_on_c, 0, 61, 0
2, 168936, Control_c, 0, 64, 0
2, 169196, Note_on_c, 0, 56, 33
2, 169228, Control_c, 0, 64, 127
2, 169400, Note_on_c, 0, 51, 0
2, 169434, Note_on_c, 0, 56, 0
2, 169574, Note_on_c, 0, 60, 33
2, 169796, Note_on_c, 0, 60, 0
2, 169896, Note_on_c, 0, 51, 28
2, 170162, Note_on_c, 0, 44, 0
2, 170262, Note_on_c, 0, 51, 0
2, 170268, Note_on_c, 0, 54, 43
2, 170512, Note_on_c, 0, 32, 0
2, 170518, Note_on_c, 0, 54, 0
2, 170690, Note_on_c, 0, 60, 29
2, 171314, Note_on_c, 0, 60, 0
2, 171317, Note_on_c, 0, 37, 21
2, 171324, Note_on_c, 0, 52, 39
2, 171326, Note_on_c, 0, 44, 29
2, 171332, Note_on_c, 0, 49, 23
2, 171426, Control_c, 0, 64, 0
2, 171718, Control_c, 0, 64, 127
2, 171762, Note_on_c, 0, 56, 25
2, 171844, Note_on_c, 0, 52, 0
2, 172028, Note_on_c, 0, 56, 0
2, 172136, Note_on_c, 0, 61, 27
2, 172368, Note_on_c, 0, 61, 0
2, 172458, Note_on_c, 0, 56, 25
2, 172768, Note_on_c, 0, 56, 0
2, 172832, Note_on_c, 0, 61, 16
2, 173038, Note_on_c, 0, 61, 0
2, 173196, Note_on_c, 0, 64, 27
2, 173424, Note_on_c, 0, 64, 0
2, 173530, Note_on_c, 0, 56, 25
2, 173822, Note_on_c, 0, 56, 0
2, 173872, Note_on_c, 0, 61, 25
2, 174026, Note_on_c, 0, 61, 0
2, 174204, Note_on_c, 0, 64, 25
2, 174350, Note_on_c, 0, 64, 0
2, 174540, Note_on_c, 0, 68, 51
2, 174543, Note_on_c, 0, 56, 27
2, 174700, Note_on_c, 0, 56, 0
2, 174918, Note_on_c, 0, 61, 24
2, 174936, Note_on_c, 0, 44, 0
2, 175020, Note_on_c, 0, 49, 0
2, 175114, Note_on_c, 0, 37, 0
2, 175144, Note_on_c, 0, 61, 0
2, 175228, Note_on_c, 0, 68, 0
2, 175322, Note_on_c, 0, 64, 35
2, 175376, Note_on_c, 0, 64, 0
2, 175564, Note_on_c, 0, 68, 49
2, 175704, Note_on_c, 0, 68, 0
2, 175876, Note_on_c, 0, 68, 36
2, 175902, Note_on_c, 0, 56, 20
2, 175906, Note_on_c, 0, 44, 19
2, 175912, Note_on_c, 0, 36, 28
2, 175920, Note_on_c, 0, 48, 20
2, 176004, Control_c, 0, 64, 0
2, 176296, Control_c, 0, 64, 127
2, 176326, Note_on_c, 0, 63, 24
2, 176508, Note_on_c, 0, 56, 0
2, 176610, Note_on_c, 0, 63, 0
2, 176730, Note_on_c, 0, 66, 14
2, 176952, Note_on_c, 0, 66, 0
2, 177052, Note_on_c, 0, 56, 26
2, 177358, Note_on_c, 0, 56, 0
2, 177404, Note_on_c, 0, 63, 23
2, 177676, Note_on_c, 0, 63, 0
2, 177760, Note_on_c, 0, 66, 20
2, 178042, Note_on_c, 0, 66, 0
2, 178094, Note_on_c, 0, 56, 21
2, 178336, Note_on_c, 0, 56, 0
2, 178446, Note_on_c, 0, 63, 13
2, 178646, Note_on_c, 0, 63, 0
2, 178842, Note_on_c, 0, 66, 13
2, 178928, Note_on_c, 0, 68, 0
2, 179074, Note_on_c, 0, 66, 0
2, 179244, Note_on_c, 0, 68, 44
2, 179258, Note_on_c, 0, 56, 20
2, 179386, Note_on_c, 0, 56, 0
2, 179616, Note_on_c, 0, 63, 33
2, 179698, Note_on_c, 0, 63, 0
2, 179802, Note_on_c, 0, 68, 0
2, 179856, Note_on_c, 0, 36, 0
2, 179896, Note_on_c, 0, 48, 0
2, 179938, Note_on_c, 0, 66, 29
2, 180058, Note_on_c, 0, 68, 64
2, 180068, Note_on_c, 0, 66, 0
2, 180176, Note_on_c, 0, 68, 0
2, 180330, Note_on_c, 0, 68, 62
2, 180352, Note_on_c, 0, 56, 33
2, 180368, Note_on_c, 0, 49, 26
2, 180374, Note_on_c, 0, 44, 0
2, 180376, Note_on_c, 0, 37, 28
2, 180490, Control_c, 0, 64, 0
2, 180720, Note_on_c, 0, 61, 26
2, 180736, Control_c, 0, 64, 127
2, 180870, Note_on_c, 0, 56, 0
2, 180999, Note_on_c, 0, 61, 0
2, 181122, Note_on_c, 0, 64, 9
2, 181326, Note_on_c, 0, 64, 0
2, 181404, Note_on_c, 0, 56, 26
2, 181636, Note_on_c, 0, 56, 0
2, 181648, Note_on_c, 0, 49, 0
2, 181734, Note_on_c, 0, 61, 28
2, 182006, Note_on_c, 0, 61, 0
2, 182098, Note_on_c, 0, 64, 27
2, 182222, Note_on_c, 0, 68, 0
2, 182354, Note_on_c, 0, 37, 0
2, 182512, Note_on_c, 0, 69, 52
2, 182524, Note_on_c, 0, 57, 25
2, 182546, Note_on_c, 0, 30, 32
2, 182556, Note_on_c, 0, 42, 23
2, 182590, Note_on_c, 0, 64, 0
2, 182658, Control_c, 0, 64, 0
2, 182858, Note_on_c, 0, 61, 40
2, 182888, Control_c, 0, 64, 127
2, 183114, Note_on_c, 0, 57, 0
2, 183200, Note_on_c, 0, 66, 31
2, 183224, Note_on_c, 0, 61, 0
2, 183386, Note_on_c, 0, 66, 0
2, 183518, Note_on_c, 0, 57, 27
2, 183696, Note_on_c, 0, 57, 0
2, 183766, Note_on_c, 0, 30, 0
2, 183860, Note_on_c, 0, 61, 31
2, 183952, Note_on_c, 0, 61, 0
2, 184060, Note_on_c, 0, 69, 0
2, 184064, Note_on_c, 0, 42, 0
2, 184200, Note_on_c, 0, 66, 32
2, 184294, Note_on_c, 0, 66, 0
2, 184526, Note_on_c, 0, 68, 55
2, 184542, Note_on_c, 0, 56, 31
2, 184574, Note_on_c, 0, 47, 21
2, 184584, Note_on_c, 0, 35, 34
2, 184762, Control_c, 0, 64, 0
2, 184912, Note_on_c, 0, 59, 32
2, 185008, Control_c, 0, 64, 127
2, 185116, Note_on_c, 0, 56, 0
2, 185214, Note_on_c, 0, 59, 0
2, 185266, Note_on_c, 0, 64, 33
2, 185390, Note_on_c, 0, 64, 0
2, 185580, Note_on_c, 0, 56, 34
2, 185736, Note_on_c, 0, 56, 0
2, 185932, Note_on_c, 0, 59, 25
2, 185946, Note_on_c, 0, 35, 0
2, 185954, Note_on_c, 0, 47, 0
2, 186070, Note_on_c, 0, 59, 0
2, 186282, Note_on_c, 0, 64, 41
2, 186374, Note_on_c, 0, 68, 0
2, 186454, Note_on_c, 0, 64, 0
2, 186660, Note_on_c, 0, 66, 50
2, 186698, Note_on_c, 0, 57, 21
2, 186700, Note_on_c, 0, 47, 19
2, 186704, Note_on_c, 0, 35, 33
2, 186944, Control_c, 0, 64, 0
2, 187046, Note_on_c, 0, 59, 19
2, 187144, Control_c, 0, 64, 127
2, 187168, Note_on_c, 0, 57, 0
2, 187190, Note_on_c, 0, 35, 0
2, 187234, Note_on_c, 0, 59, 0
2, 187266, Note_on_c, 0, 47, 0
2, 187412, Note_on_c, 0, 66, 0
2, 187412, Note_on_c, 0, 63, 26
2, 187486, Note_on_c, 0, 63, 0
2, 187838, Note_on_c, 0, 71, 57
2, 187900, Note_on_c, 0, 57, 13
2, 187994, Note_on_c, 0, 57, 0
2, 188240, Note_on_c, 0, 59, 28
2, 188341, Note_on_c, 0, 59, 0
2, 188506, Note_on_c, 0, 71, 0
2, 188592, Note_on_c, 0, 63, 29
2, 188662, Note_on_c, 0, 63, 0
2, 189114, Note_on_c, 0, 64, 52
2, 189114, Note_on_c, 0, 56, 24
2, 189152, Note_on_c, 0, 40, 39
2, 189155, Note_on_c, 0, 52, 28
2, 189188, Control_c, 0, 64, 0
2, 189494, Control_c, 0, 64, 127
2, 189588, Note_on_c, 0, 40, 0
2, 189596, Note_on_c, 0, 52, 0
2, 189654, Note_on_c, 0, 64, 0
2, 189692, Note_on_c, 0, 56, 0
2, 189698, Note_on_c, 0, 59, 17
2, 189912, Note_on_c, 0, 59, 0
2, 190062, Note_on_c, 0, 64, 31
2, 190354, Note_on_c, 0, 64, 0
2, 190434, Note_on_c, 0, 59, 25
2, 190744, Note_on_c, 0, 59, 0
2, 190783, Note_on_c, 0, 64, 17
2, 191070, Note_on_c, 0, 64, 0
2, 191106, Note_on_c, 0, 68, 23
2, 191390, Note_on_c, 0, 68, 0
2, 191466, Note_on_c, 0, 59, 16
2, 191838, Note_on_c, 0, 64, 28
2, 191868, Note_on_c, 0, 59, 0
2, 192130, Note_on_c, 0, 64, 0
2, 192184, Note_on_c, 0, 68, 27
2, 192326, Note_on_c, 0, 68, 0
2, 192524, Note_on_c, 0, 71, 86
2, 192556, Note_on_c, 0, 59, 29
2, 192782, Note_on_c, 0, 59, 0
2, 192940, Note_on_c, 0, 64, 39
2, 193016, Note_on_c, 0, 64, 0
2, 193310, Note_on_c, 0, 71, 0
2, 193324, Note_on_c, 0, 68, 52
2, 193386, Note_on_c, 0, 68, 0
2, 193550, Note_on_c, 0, 71, 97
2, 193674, Note_on_c, 0, 71, 0
2, 193816, Note_on_c, 0, 71, 87
2, 193826, Note_on_c, 0, 59, 44
2, 193842, Note_on_c, 0, 39, 29
2, 193846, Note_on_c, 0, 51, 36
2, 193936, Control_c, 0, 64, 0
2, 194204, Note_on_c, 0, 66, 20
2, 194242, Control_c, 0, 64, 127
2, 194380, Note_on_c, 0, 59, 0
2, 194538, Note_on_c, 0, 69, 27
2, 194568, Note_on_c, 0, 66, 0
2, 194728, Note_on_c, 0, 69, 0
2, 194890, Note_on_c, 0, 59, 28
2, 195120, Note_on_c, 0, 59, 0
2, 195228, Note_on_c, 0, 66, 23
2, 195542, Note_on_c, 0, 69, 26
2, 195558, Note_on_c, 0, 66, 0
2, 195880, Note_on_c, 0, 59, 24
2, 196134, Note_on_c, 0, 69, 0
2, 196156, Note_on_c, 0, 59, 0
2, 196194, Note_on_c, 0, 66, 24
2, 196500, Note_on_c, 0, 66, 0
2, 196528, Note_on_c, 0, 69, 31
2, 196568, Note_on_c, 0, 71, 0
2, 196694, Note_on_c, 0, 69, 0
2, 196960, Note_on_c, 0, 71, 77
2, 196972, Note_on_c, 0, 59, 47
2, 197276, Note_on_c, 0, 59, 0
2, 197322, Note_on_c, 0, 66, 19
2, 197508, Note_on_c, 0, 71, 0
2, 197556, Note_on_c, 0, 66, 0
2, 197616, Note_on_c, 0, 69, 16
2, 197740, Note_on_c, 0, 51, 0
2, 197740, Note_on_c, 0, 71, 90
2, 197760, Note_on_c, 0, 39, 0
2, 197784, Note_on_c, 0, 69, 0
2, 197802, Note_on_c, 0, 71, 0
2, 197992, Note_on_c, 0, 71, 94
2, 198012, Note_on_c, 0, 59, 50
2, 198022, Note_on_c, 0, 52, 47
2, 198024, Note_on_c, 0, 40, 55
2, 198176, Control_c, 0, 64, 0
2, 198326, Note_on_c, 0, 64, 42
2, 198438, Control_c, 0, 64, 127
2, 198544, Note_on_c, 0, 59, 0
2, 198598, Note_on_c, 0, 64, 0
2, 198648, Note_on_c, 0, 68, 43
2, 198986, Note_on_c, 0, 68, 0
2, 199024, Note_on_c, 0, 59, 48
2, 199326, Note_on_c, 0, 59, 0
2, 199332, Note_on_c, 0, 64, 54
2, 199520, Note_on_c, 0, 52, 0
2, 199526, Note_on_c, 0, 64, 0
2, 199622, Note_on_c, 0, 68, 55
2, 199720, Note_on_c, 0, 71, 0
2, 199776, Note_on_c, 0, 40, 0
2, 199924, Note_on_c, 0, 72, 89
2, 199934, Note_on_c, 0, 51, 57
2, 199938, Note_on_c, 0, 60, 51
2, 199940, Note_on_c, 0, 39, 49
2, 200004, Note_on_c, 0, 68, 0
2, 200158, Control_c, 0, 64, 0
2, 200276, Note_on_c, 0, 66, 44
2, 200388, Control_c, 0, 64, 127
2, 200502, Note_on_c, 0, 60, 0
2, 200606, Note_on_c, 0, 68, 51
2, 200652, Note_on_c, 0, 66, 0
2, 200655, Note_on_c, 0, 72, 0
2, 200748, Note_on_c, 0, 51, 0
2, 200778, Note_on_c, 0, 68, 0
2, 200788, Note_on_c, 0, 39, 0
2, 200894, Note_on_c, 0, 73, 94
2, 200904, Note_on_c, 0, 49, 65
2, 200904, Note_on_c, 0, 61, 78
2, 200910, Note_on_c, 0, 37, 69
2, 201064, Control_c, 0, 64, 0
2, 201260, Note_on_c, 0, 64, 59
2, 201280, Control_c, 0, 64, 127
2, 201352, Note_on_c, 0, 61, 0
2, 201392, Note_on_c, 0, 49, 0
2, 201466, Note_on_c, 0, 64, 0
2, 201554, Note_on_c, 0, 37, 0
2, 201600, Note_on_c, 0, 68, 54
2, 201646, Note_on_c, 0, 73, 0
2, 201672, Note_on_c, 0, 68, 0
2, 202132, Note_on_c, 0, 75, 59
2, 202138, Note_on_c, 0, 44, 25
2, 202142, Note_on_c, 0, 48, 29
2, 202142, Note_on_c, 0, 63, 40
2, 202156, Control_c, 0, 64, 0
2, 202172, Note_on_c, 0, 36, 35
2, 202508, Control_c, 0, 64, 127
2, 202546, Note_on_c, 0, 66, 19
2, 202684, Note_on_c, 0, 63, 0
2, 202864, Note_on_c, 0, 68, 34
2, 202870, Note_on_c, 0, 66, 0
2, 203138, Note_on_c, 0, 68, 0
2, 203180, Note_on_c, 0, 63, 36
2, 203310, Note_on_c, 0, 63, 0
2, 203452, Note_on_c, 0, 44, 0
2, 203486, Note_on_c, 0, 66, 26
2, 203580, Note_on_c, 0, 48, 0
2, 203590, Note_on_c, 0, 36, 0
2, 203748, Note_on_c, 0, 66, 0
2, 203751, Note_on_c, 0, 75, 0
2, 203798, Note_on_c, 0, 68, 33
2, 203928, Note_on_c, 0, 68, 0
2, 204098, Note_on_c, 0, 76, 71
2, 204122, Note_on_c, 0, 64, 39
2, 204124, Note_on_c, 0, 37, 32
2, 204127, Note_on_c, 0, 49, 27
2, 204136, Note_on_c, 0, 44, 34
2, 204230, Control_c, 0, 64, 0
2, 204422, Note_on_c, 0, 68, 37
2, 204492, Control_c, 0, 64, 127
2, 204602, Note_on_c, 0, 64, 0
2, 204734, Note_on_c, 0, 73, 43
2, 204760, Note_on_c, 0, 68, 0
2, 204964, Note_on_c, 0, 73, 0
2, 205072, Note_on_c, 0, 64, 51
2, 205206, Note_on_c, 0, 44, 0
2, 205306, Note_on_c, 0, 49, 0
2, 205326, Note_on_c, 0, 64, 0
2, 205380, Note_on_c, 0, 68, 39
2, 205536, Note_on_c, 0, 68, 0
2, 205700, Note_on_c, 0, 73, 43
2, 205714, Note_on_c, 0, 37, 0
2, 205752, Note_on_c, 0, 76, 0
2, 205832, Note_on_c, 0, 73, 0
2, 206018, Note_on_c, 0, 74, 83
2, 206040, Note_on_c, 0, 42, 35
2, 206044, Note_on_c, 0, 62, 35
2, 206044, Note_on_c, 0, 30, 46
2, 206166, Control_c, 0, 64, 0
2, 206344, Note_on_c, 0, 66, 37
2, 206426, Control_c, 0, 64, 127
2, 206466, Note_on_c, 0, 42, 0
2, 206504, Note_on_c, 0, 62, 0
2, 206664, Note_on_c, 0, 69, 28
2, 206696, Note_on_c, 0, 66, 0
2, 206846, Note_on_c, 0, 69, 0
2, 207016, Note_on_c, 0, 62, 35
2, 207118, Note_on_c, 0, 62, 0
2, 207372, Note_on_c, 0, 66, 29
2, 207384, Note_on_c, 0, 74, 0
2, 207598, Note_on_c, 0, 66, 0
2, 207658, Note_on_c, 0, 30, 0
2, 207678, Note_on_c, 0, 69, 28
2, 208014, Note_on_c, 0, 32, 35
2, 208016, Note_on_c, 0, 72, 58
2, 208021, Note_on_c, 0, 44, 39
2, 208024, Note_on_c, 0, 60, 33
2, 208086, Control_c, 0, 64, 0
2, 208106, Note_on_c, 0, 69, 0
2, 208366, Note_on_c, 0, 66, 26
2, 208394, Control_c, 0, 64, 127
2, 208480, Note_on_c, 0, 60, 0
2, 208533, Note_on_c, 0, 44, 0
2, 208668, Note_on_c, 0, 44, 2
2, 208682, Note_on_c, 0, 68, 28
2, 208710, Note_on_c, 0, 66, 0
2, 208888, Note_on_c, 0, 68, 0
2, 209016, Note_on_c, 0, 60, 33
2, 209224, Note_on_c, 0, 60, 0
2, 209296, Note_on_c, 0, 32, 0
2, 209354, Note_on_c, 0, 66, 21
2, 209652, Note_on_c, 0, 72, 0
2, 209658, Note_on_c, 0, 66, 0
2, 209704, Note_on_c, 0, 68, 23
2, 209752, Note_on_c, 0, 44, 0
2, 209884, Note_on_c, 0, 68, 0
2, 210088, Note_on_c, 0, 49, 28
2, 210091, Note_on_c, 0, 37, 32
2, 210102, Note_on_c, 0, 73, 41
2, 210108, Note_on_c, 0, 61, 27
2, 210130, Control_c, 0, 64, 0
2, 210452, Control_c, 0, 64, 127
2, 210502, Note_on_c, 0, 64, 36
2, 210578, Note_on_c, 0, 61, 0
2, 210778, Note_on_c, 0, 64, 0
2, 210816, Note_on_c, 0, 68, 36
2, 211064, Note_on_c, 0, 68, 0
2, 211142, Note_on_c, 0, 61, 36
2, 211436, Note_on_c, 0, 61, 0
2, 211472, Note_on_c, 0, 64, 37
2, 211634, Note_on_c, 0, 64, 0
2, 211768, Note_on_c, 0, 68, 34
2, 212046, Note_on_c, 0, 61, 28
2, 212068, Note_on_c, 0, 68, 0
2, 212126, Control_c, 0, 64, 0
2, 212342, Control_c, 0, 64, 127
2, 212350, Note_on_c, 0, 65, 34
2, 212452, Note_on_c, 0, 61, 0
2, 212570, Note_on_c, 0, 65, 0
2, 212638, Note_on_c, 0, 73, 0
2, 212641, Note_on_c, 0, 68, 42
2, 212764, Note_on_c, 0, 68, 0
2, 212932, Note_on_c, 0, 73, 89
2, 212956, Note_on_c, 0, 61, 41
2, 213172, Note_on_c, 0, 61, 0
2, 213258, Note_on_c, 0, 65, 35
2, 213350, Note_on_c, 0, 65, 0
2, 213526, Note_on_c, 0, 73, 0
2, 213546, Note_on_c, 0, 68, 50
2, 213602, Note_on_c, 0, 68, 0
2, 213852, Note_on_c, 0, 74, 108
2, 213864, Note_on_c, 0, 61, 71
2, 214032, Control_c, 0, 64, 0
2, 214178, Note_on_c, 0, 66, 42
2, 214232, Control_c, 0, 64, 127
2, 214248, Note_on_c, 0, 61, 0
2, 214488, Note_on_c, 0, 69, 44
2, 214520, Note_on_c, 0, 66, 0
2, 214526, Note_on_c, 0, 37, 0
2, 214534, Note_on_c, 0, 49, 0
2, 214782, Note_on_c, 0, 61, 40
2, 214790, Note_on_c, 0, 54, 75
2, 214793, Note_on_c, 0, 42, 59
2, 214860, Note_on_c, 0, 69, 0
2, 215116, Note_on_c, 0, 66, 36
2, 215118, Note_on_c, 0, 61, 0
2, 215416, Note_on_c, 0, 66, 0
2, 215418, Note_on_c, 0, 69, 40
2, 215518, Note_on_c, 0, 54, 0
2, 215540, Note_on_c, 0, 42, 0
2, 215714, Note_on_c, 0, 61, 31
2, 215728, Note_on_c, 0, 57, 60
2, 215728, Note_on_c, 0, 45, 56
2, 215764, Note_on_c, 0, 69, 0
2, 215814, Control_c, 0, 64, 0
2, 216046, Note_on_c, 0, 66, 32
2, 216100, Note_on_c, 0, 61, 0
2, 216106, Control_c, 0, 64, 127
2, 216210, Note_on_c, 0, 57, 0
2, 216236, Note_on_c, 0, 74, 0
2, 216360, Note_on_c, 0, 66, 0
2, 216392, Note_on_c, 0, 69, 26
2, 216440, Note_on_c, 0, 45, 0
2, 216718, Note_on_c, 0, 72, 52
2, 216740, Note_on_c, 0, 61, 28
2, 216742, Note_on_c, 0, 42, 29
2, 216754, Note_on_c, 0, 54, 29
2, 216796, Note_on_c, 0, 69, 0
2, 216830, Control_c, 0, 64, 0
2, 217078, Note_on_c, 0, 66, 25
2, 217080, Control_c, 0, 64, 127
2, 217176, Note_on_c, 0, 61, 0
2, 217274, Note_on_c, 0, 54, 0
2, 217408, Note_on_c, 0, 72, 0
2, 217418, Note_on_c, 0, 69, 20
2, 217524, Note_on_c, 0, 42, 0
2, 217532, Note_on_c, 0, 66, 0
2, 217774, Note_on_c, 0, 73, 40
2, 217792, Note_on_c, 0, 61, 31
2, 217798, Note_on_c, 0, 37, 31
2, 217802, Note_on_c, 0, 49, 21
2, 217812, Control_c, 0, 64, 0
2, 217816, Note_on_c, 0, 69, 0
2, 218158, Note_on_c, 0, 65, 27
2, 218166, Control_c, 0, 64, 127
2, 218390, Note_on_c, 0, 61, 0
2, 218474, Note_on_c, 0, 68, 34
2, 218522, Note_on_c, 0, 65, 0
2, 218758, Note_on_c, 0, 61, 34
2, 218794, Note_on_c, 0, 68, 0
2, 219134, Note_on_c, 0, 65, 25
2, 219216, Note_on_c, 0, 61, 0
2, 219434, Note_on_c, 0, 68, 29
2, 219466, Note_on_c, 0, 65, 0
2, 219688, Note_on_c, 0, 68, 0
2, 219764, Note_on_c, 0, 61, 18
2, 220022, Note_on_c, 0, 61, 0
2, 220116, Note_on_c, 0, 65, 11
2, 220342, Note_on_c, 0, 65, 0
2, 220408, Note_on_c, 0, 73, 0
2, 220440, Note_on_c, 0, 68, 25
2, 220556, Note_on_c, 0, 68, 0
2, 220748, Note_on_c, 0, 73, 78
2, 220778, Note_on_c, 0, 61, 34
2, 221014, Note_on_c, 0, 61, 0
2, 221080, Note_on_c, 0, 65, 28
2, 221244, Note_on_c, 0, 65, 0
2, 221358, Note_on_c, 0, 73, 0
2, 221382, Note_on_c, 0, 68, 54
2, 221434, Note_on_c, 0, 68, 0
2, 221696, Note_on_c, 0, 74, 100
2, 221706, Note_on_c, 0, 61, 65
2, 222018, Note_on_c, 0, 66, 36
2, 222068, Control_c, 0, 64, 0
2, 222226, Control_c, 0, 64, 127
2, 222246, Note_on_c, 0, 61, 0
2, 222324, Note_on_c, 0, 69, 41
2, 222396, Note_on_c, 0, 37, 0
2, 222416, Note_on_c, 0, 49, 0
2, 222422, Note_on_c, 0, 66, 0
2, 222606, Note_on_c, 0, 54, 85
2, 222614, Note_on_c, 0, 42, 63
2, 222618, Note_on_c, 0, 61, 43
2, 222722, Note_on_c, 0, 69, 0
2, 222926, Note_on_c, 0, 61, 0
2, 222926, Note_on_c, 0, 66, 43
2, 223246, Note_on_c, 0, 69, 41
2, 223268, Note_on_c, 0, 66, 0
2, 223402, Note_on_c, 0, 54, 0
2, 223412, Note_on_c, 0, 42, 0
2, 223548, Note_on_c, 0, 61, 35
2, 223551, Note_on_c, 0, 57, 77
2, 223562, Note_on_c, 0, 45, 51
2, 223692, Note_on_c, 0, 69, 0
2, 223744, Control_c, 0, 64, 0
2, 223870, Note_on_c, 0, 66, 35
2, 223986, Note_on_c, 0, 61, 0
2, 224000, Control_c, 0, 64, 127
2, 224176, Note_on_c, 0, 74, 0
2, 224192, Note_on_c, 0, 57, 0
2, 224208, Note_on_c, 0, 69, 44
2, 224272, Note_on_c, 0, 45, 0
2, 224330, Note_on_c, 0, 66, 0
2, 224516, Note_on_c, 0, 72, 70
2, 224524, Note_on_c, 0, 42, 48
2, 224528, Note_on_c, 0, 54, 51
2, 224530, Note_on_c, 0, 61, 41
2, 224594, Note_on_c, 0, 69, 0
2, 224852, Note_on_c, 0, 66, 32
2, 224896, Control_c, 0, 64, 0
2, 225064, Control_c, 0, 64, 127
2, 225130, Note_on_c, 0, 54, 0
2, 225186, Note_on_c, 0, 69, 20
2, 225212, Note_on_c, 0, 61, 0
2, 225286, Note_on_c, 0, 72, 0
2, 225300, Note_on_c, 0, 66, 0
2, 225332, Note_on_c, 0, 42, 0
2, 225502, Note_on_c, 0, 73, 56
2, 225514, Note_on_c, 0, 61, 39
2, 225516, Note_on_c, 0, 49, 44
2, 225524, Note_on_c, 0, 37, 42
2, 225586, Note_on_c, 0, 69, 0
2, 225648, Control_c, 0, 64, 0
2, 225838, Note_on_c, 0, 65, 34
2, 225940, Control_c, 0, 64, 127
2, 226130, Note_on_c, 0, 68, 41
2, 226166, Note_on_c, 0, 61, 0
2, 226242, Note_on_c, 0, 65, 0
2, 226434, Note_on_c, 0, 61, 51
2, 226576, Note_on_c, 0, 68, 0
2, 226640, Note_on_c, 0, 49, 0
2, 226756, Note_on_c, 0, 65, 46
2, 226860, Note_on_c, 0, 61, 0
2, 226978, Note_on_c, 0, 73, 0
2, 227044, Note_on_c, 0, 65, 0
2, 227058, Note_on_c, 0, 37, 0
2, 227068, Note_on_c, 0, 68, 54
2, 227212, Note_on_c, 0, 68, 0
2, 227384, Note_on_c, 0, 73, 89
2, 227384, Note_on_c, 0, 30, 74
2, 227392, Note_on_c, 0, 42, 57
2, 227400, Note_on_c, 0, 61, 69
2, 227704, Note_on_c, 0, 66, 47
2, 227862, Control_c, 0, 64, 0
2, 228002, Note_on_c, 0, 69, 47
2, 228076, Control_c, 0, 64, 127
2, 228128, Note_on_c, 0, 61, 0
2, 228150, Note_on_c, 0, 66, 0
2, 228314, Note_on_c, 0, 61, 65
2, 228368, Note_on_c, 0, 69, 0
2, 228638, Note_on_c, 0, 66, 49
2, 228678, Note_on_c, 0, 61, 0
2, 228786, Note_on_c, 0, 30, 0
2, 228832, Note_on_c, 0, 42, 0
2, 228896, Note_on_c, 0, 73, 0
2, 228968, Note_on_c, 0, 69, 57
2, 229074, Note_on_c, 0, 66, 0
2, 229158, Note_on_c, 0, 69, 0
2, 229378, Note_on_c, 0, 71, 89
2, 229388, Note_on_c, 0, 39, 80
2, 229390, Note_on_c, 0, 59, 60
2, 229394, Note_on_c, 0, 51, 70
2, 229782, Control_c, 0, 64, 0
2, 229804, Note_on_c, 0, 66, 50
2, 230074, Control_c, 0, 64, 127
2, 230184, Note_on_c, 0, 69, 50
2, 230220, Note_on_c, 0, 59, 0
2, 230318, Note_on_c, 0, 66, 0
2, 230512, Note_on_c, 0, 59, 56
2, 230522, Note_on_c, 0, 69, 0
2, 230830, Note_on_c, 0, 66, 46
2, 230892, Note_on_c, 0, 59, 0
2, 231128, Note_on_c, 0, 69, 48
2, 231152, Note_on_c, 0, 66, 0
2, 231440, Note_on_c, 0, 59, 50
2, 231788, Note_on_c, 0, 66, 41
2, 231802, Note_on_c, 0, 69, 0
2, 231828, Note_on_c, 0, 59, 0
2, 232124, Note_on_c, 0, 71, 0
2, 232130, Note_on_c, 0, 69, 37
2, 232188, Note_on_c, 0, 66, 0
2, 232298, Note_on_c, 0, 39, 0
2, 232322, Note_on_c, 0, 51, 0
2, 232518, Note_on_c, 0, 59, 55
2, 232520, Note_on_c, 0, 71, 90
2, 232532, Note_on_c, 0, 40, 83
2, 232542, Note_on_c, 0, 52, 63
2, 232762, Control_c, 0, 64, 0
2, 232858, Note_on_c, 0, 69, 0
2, 232890, Note_on_c, 0, 64, 52
2, 233054, Control_c, 0, 64, 127
2, 233176, Note_on_c, 0, 68, 52
2, 233186, Note_on_c, 0, 64, 0
2, 233256, Note_on_c, 0, 52, 0
2, 233260, Note_on_c, 0, 71, 0
2, 233274, Note_on_c, 0, 59, 0
2, 233454, Note_on_c, 0, 40, 0
2, 233464, Note_on_c, 0, 69, 82
2, 233468, Note_on_c, 0, 37, 83
2, 233474, Note_on_c, 0, 57, 58
2, 233476, Note_on_c, 0, 49, 74
2, 233554, Note_on_c, 0, 68, 0
2, 233700, Control_c, 0, 64, 0
2, 233794, Note_on_c, 0, 64, 65
2, 233930, Control_c, 0, 64, 127
2, 233978, Note_on_c, 0, 57, 0
2, 234078, Note_on_c, 0, 68, 70
2, 234100, Note_on_c, 0, 64, 0
2, 234102, Note_on_c, 0, 69, 0
2, 234180, Note_on_c, 0, 49, 0
2, 234216, Note_on_c, 0, 68, 0
2, 234356, Note_on_c, 0, 69, 87
2, 234366, Note_on_c, 0, 51, 71
2, 234370, Note_on_c, 0, 57, 70
2, 234370, Note_on_c, 0, 39, 71
2, 234410, Note_on_c, 0, 37, 0
2, 234438, Control_c, 0, 64, 0
2, 234662, Note_on_c, 0, 63, 59
2, 234776, Control_c, 0, 64, 127
2, 234902, Note_on_c, 0, 57, 0
2, 234934, Note_on_c, 0, 51, 0
2, 234972, Note_on_c, 0, 66, 57
2, 234996, Note_on_c, 0, 69, 0
2, 235060, Note_on_c, 0, 63, 0
2, 235254, Note_on_c, 0, 68, 70
2, 235266, Note_on_c, 0, 56, 58
2, 235276, Note_on_c, 0, 48, 43
2, 235292, Note_on_c, 0, 36, 58
2, 235308, Note_on_c, 0, 66, 0
2, 235316, Note_on_c, 0, 39, 0
2, 235374, Control_c, 0, 64, 0
2, 235592, Note_on_c, 0, 63, 49
2, 235698, Control_c, 0, 64, 127
2, 235838, Note_on_c, 0, 56, 0
2, 235858, Note_on_c, 0, 48, 0
2, 235888, Note_on_c, 0, 66, 47
2, 235920, Note_on_c, 0, 68, 0
2, 235938, Note_on_c, 0, 63, 0
2, 236018, Note_on_c, 0, 66, 0
2, 236140, Note_on_c, 0, 68, 86
2, 236144, Note_on_c, 0, 49, 57
2, 236150, Note_on_c, 0, 37, 71
2, 236158, Note_on_c, 0, 56, 58
2, 236202, Note_on_c, 0, 36, 0
2, 236374, Control_c, 0, 64, 0
2, 236432, Note_on_c, 0, 61, 50
2, 236604, Control_c, 0, 64, 127
2, 236730, Note_on_c, 0, 61, 0
2, 236736, Note_on_c, 0, 64, 62
2, 236778, Note_on_c, 0, 49, 0
2, 236808, Note_on_c, 0, 68, 0
2, 236848, Note_on_c, 0, 56, 0
2, 236888, Note_on_c, 0, 64, 0
2, 236936, Note_on_c, 0, 37, 0
2, 237026, Note_on_c, 0, 66, 80
2, 237028, Note_on_c, 0, 45, 63
2, 237031, Note_on_c, 0, 33, 73
2, 237044, Note_on_c, 0, 54, 70
2, 237250, Control_c, 0, 64, 0
2, 237334, Note_on_c, 0, 61, 50
2, 237618, Control_c, 0, 64, 127
2, 237662, Note_on_c, 0, 63, 49
2, 237772, Note_on_c, 0, 54, 0
2, 237838, Note_on_c, 0, 61, 0
2, 237988, Note_on_c, 0, 54, 64
2, 238150, Note_on_c, 0, 63, 0
2, 238286, Note_on_c, 0, 61, 51
2, 238314, Note_on_c, 0, 54, 0
2, 238562, Note_on_c, 0, 45, 0
2, 238570, Note_on_c, 0, 63, 63
2, 238668, Note_on_c, 0, 66, 0
2, 238682, Note_on_c, 0, 61, 0
2, 238842, Note_on_c, 0, 68, 87
2, 238852, Note_on_c, 0, 44, 77
2, 238852, Note_on_c, 0, 56, 70
2, 238855, Note_on_c, 0, 32, 63
2, 238936, Note_on_c, 0, 63, 0
2, 238952, Note_on_c, 0, 33, 0
2, 239158, Note_on_c, 0, 61, 57
2, 239186, Control_c, 0, 64, 0
2, 239416, Control_c, 0, 64, 127
2, 239456, Note_on_c, 0, 56, 0
2, 239458, Note_on_c, 0, 63, 55
2, 239572, Note_on_c, 0, 68, 0
2, 239575, Note_on_c, 0, 44, 0
2, 239580, Note_on_c, 0, 61, 0
2, 239710, Note_on_c, 0, 32, 0
2, 239732, Note_on_c, 0, 69, 81
2, 239738, Note_on_c, 0, 57, 65
2, 239758, Note_on_c, 0, 30, 62
2, 239758, Note_on_c, 0, 42, 62
2, 239796, Note_on_c, 0, 63, 0
2, 239846, Control_c, 0, 64, 0
2, 240054, Note_on_c, 0, 61, 55
2, 240154, Control_c, 0, 64, 127
2, 240160, Note_on_c, 0, 42, 0
2, 240256, Note_on_c, 0, 57, 0
2, 240350, Note_on_c, 0, 61, 0
2, 240416, Note_on_c, 0, 69, 0
2, 240426, Note_on_c, 0, 63, 58
2, 240842, Note_on_c, 0, 68, 62
2, 240852, Note_on_c, 0, 56, 43
2, 240864, Note_on_c, 0, 44, 39
2, 240868, Note_on_c, 0, 32, 39
2, 240880, Note_on_c, 0, 30, 0
2, 240922, Control_c, 0, 64, 0
2, 240938, Note_on_c, 0, 63, 0
2, 241194, Note_on_c, 0, 61, 41
2, 241322, Control_c, 0, 64, 127
2, 241564, Note_on_c, 0, 64, 32
2, 241580, Note_on_c, 0, 56, 0
2, 241582, Note_on_c, 0, 61, 0
2, 241886, Note_on_c, 0, 56, 32
2, 241932, Note_on_c, 0, 64, 0
2, 241966, Control_c, 0, 64, 0
2, 242104, Control_c, 0, 64, 127
2, 242214, Note_on_c, 0, 61, 33
2, 242306, Note_on_c, 0, 56, 0
2, 242444, Note_on_c, 0, 44, 0
2, 242482, Note_on_c, 0, 68, 0
2, 242506, Note_on_c, 0, 32, 0
2, 242552, Note_on_c, 0, 64, 36
2, 242554, Note_on_c, 0, 61, 0
2, 242650, Note_on_c, 0, 64, 0
2, 242926, Note_on_c, 0, 68, 62
2, 242958, Note_on_c, 0, 54, 26
2, 242968, Note_on_c, 0, 44, 24
2, 242976, Note_on_c, 0, 32, 18
2, 243058, Control_c, 0, 64, 0
2, 243284, Note_on_c, 0, 60, 31
2, 243410, Control_c, 0, 64, 127
2, 243486, Note_on_c, 0, 54, 0
2, 243572, Note_on_c, 0, 60, 0
2, 243658, Note_on_c, 0, 63, 31
2, 243726, Note_on_c, 0, 68, 0
2, 243890, Note_on_c, 0, 63, 0
2, 244000, Note_on_c, 0, 54, 39
2, 244344, Note_on_c, 0, 54, 0
2, 244406, Note_on_c, 0, 60, 17
2, 244584, Note_on_c, 0, 32, 0
2, 244742, Note_on_c, 0, 60, 0
2, 244772, Note_on_c, 0, 63, 39
2, 244808, Note_on_c, 0, 44, 0
2, 244948, Note_on_c, 0, 63, 0
2, 245284, Note_on_c, 0, 61, 33
2, 245296, Note_on_c, 0, 44, 37
2, 245300, Note_on_c, 0, 52, 39
2, 245310, Note_on_c, 0, 37, 28
2, 245744, Note_on_c, 0, 56, 39
2, 245764, Note_on_c, 0, 61, 0
2, 245826, Note_on_c, 0, 52, 0
2, 246110, Note_on_c, 0, 56, 0
2, 246110, Note_on_c, 0, 61, 39
2, 246382, Note_on_c, 0, 61, 0
2, 246420, Note_on_c, 0, 56, 35
2, 246536, Note_on_c, 0, 56, 0
2, 246738, Note_on_c, 0, 61, 31
2, 246856, Note_on_c, 0, 61, 0
2, 247068, Note_on_c, 0, 64, 32
2, 247326, Note_on_c, 0, 64, 0
2, 247382, Note_on_c, 0, 56, 20
2, 247712, Note_on_c, 0, 61, 32
2, 247776, Note_on_c, 0, 56, 0
2, 248012, Note_on_c, 0, 44, 0
2, 248080, Note_on_c, 0, 64, 35
2, 248100, Note_on_c, 0, 61, 0
2, 248410, Note_on_c, 0, 64, 0
2, 248438, Note_on_c, 0, 56, 36
2, 248460, Note_on_c, 0, 44, 66
2, 248850, Note_on_c, 0, 61, 33
2, 248894, Note_on_c, 0, 56, 0
2, 249032, Note_on_c, 0, 44, 0
2, 249168, Note_on_c, 0, 64, 32
2, 249232, Note_on_c, 0, 61, 0
2, 249276, Note_on_c, 0, 44, 70
2, 249330, Note_on_c, 0, 37, 0
2, 249402, Note_on_c, 0, 44, 0
2, 249482, Note_on_c, 0, 56, 44
2, 249482, Note_on_c, 0, 44, 62
2, 249518, Note_on_c, 0, 36, 54
2, 249542, Note_on_c, 0, 64, 0
2, 249648, Control_c, 0, 64, 0
2, 249850, Note_on_c, 0, 63, 35
2, 249910, Control_c, 0, 64, 127
2, 250026, Note_on_c, 0, 56, 0
2, 250192, Note_on_c, 0, 66, 29
2, 250240, Note_on_c, 0, 63, 0
2, 250522, Note_on_c, 0, 56, 25
2, 250528, Note_on_c, 0, 66, 0
2, 250858, Note_on_c, 0, 63, 36
2, 250874, Note_on_c, 0, 56, 0
2, 251154, Note_on_c, 0, 63, 0
2, 251188, Note_on_c, 0, 66, 28
2, 251496, Note_on_c, 0, 56, 31
2, 251498, Note_on_c, 0, 66, 0
2, 251860, Note_on_c, 0, 63, 29
2, 251890, Note_on_c, 0, 56, 0
2, 251982, Note_on_c, 0, 44, 0
2, 252238, Note_on_c, 0, 63, 0
2, 252262, Note_on_c, 0, 66, 19
2, 252612, Note_on_c, 0, 66, 0
2, 252646, Note_on_c, 0, 56, 32
2, 252682, Note_on_c, 0, 44, 36
2, 252988, Note_on_c, 0, 63, 41
2, 253074, Note_on_c, 0, 56, 0
2, 253132, Note_on_c, 0, 36, 0
2, 253232, Note_on_c, 0, 44, 0
2, 253348, Note_on_c, 0, 66, 26
2, 253368, Note_on_c, 0, 63, 0
2, 253474, Note_on_c, 0, 44, 57
2, 253634, Note_on_c, 0, 44, 0
2, 253780, Note_on_c, 0, 56, 33
2, 253806, Note_on_c, 0, 44, 43
2, 253824, Note_on_c, 0, 37, 28
2, 253918, Note_on_c, 0, 66, 0
2, 253952, Control_c, 0, 64, 0
2, 254170, Note_on_c, 0, 64, 37
2, 254196, Control_c, 0, 64, 127
2, 254410, Note_on_c, 0, 56, 0
2, 254512, Note_on_c, 0, 61, 39
2, 254572, Note_on_c, 0, 64, 0
2, 254820, Note_on_c, 0, 61, 0
2, 254830, Note_on_c, 0, 68, 48
2, 255146, Note_on_c, 0, 68, 0
2, 255158, Note_on_c, 0, 64, 54
2, 255446, Note_on_c, 0, 64, 0
2, 255490, Note_on_c, 0, 73, 49
2, 255786, Note_on_c, 0, 68, 50
2, 255846, Note_on_c, 0, 73, 0
2, 256098, Note_on_c, 0, 76, 59
2, 256164, Note_on_c, 0, 68, 0
2, 256358, Note_on_c, 0, 44, 0
2, 256424, Note_on_c, 0, 73, 58
2, 256518, Note_on_c, 0, 76, 0
2, 256798, Note_on_c, 0, 44, 59
2, 256798, Note_on_c, 0, 80, 50
2, 256830, Note_on_c, 0, 73, 0
2, 257184, Note_on_c, 0, 76, 54
2, 257286, Note_on_c, 0, 80, 0
2, 257398, Note_on_c, 0, 44, 0
2, 257456, Note_on_c, 0, 37, 0
2, 257518, Note_on_c, 0, 73, 56
2, 257616, Note_on_c, 0, 76, 0
2, 257624, Note_on_c, 0, 44, 74
2, 257768, Note_on_c, 0, 44, 0
2, 258016, Note_on_c, 0, 72, 54
2, 258024, Note_on_c, 0, 44, 70
2, 258030, Note_on_c, 0, 32, 55
2, 258150, Note_on_c, 0, 73, 0
2, 258192, Control_c, 0, 64, 0
2, 258422, Control_c, 0, 64, 127
2, 258424, Note_on_c, 0, 75, 65
2, 258562, Note_on_c, 0, 72, 0
2, 258766, Note_on_c, 0, 69, 44
2, 258796, Note_on_c, 0, 75, 0
2, 259074, Note_on_c, 0, 69, 0
2, 259096, Note_on_c, 0, 72, 55
2, 259426, Note_on_c, 0, 66, 40
2, 259458, Note_on_c, 0, 72, 0
2, 259752, Note_on_c, 0, 69, 33
2, 259774, Note_on_c, 0, 66, 0
2, 260108, Note_on_c, 0, 63, 44
2, 260122, Note_on_c, 0, 69, 0
2, 260464, Note_on_c, 0, 66, 31
2, 260466, Note_on_c, 0, 63, 0
2, 260604, Note_on_c, 0, 44, 0
2, 260776, Note_on_c, 0, 66, 0
2, 260790, Note_on_c, 0, 57, 36
2, 261144, Note_on_c, 0, 60, 47
2, 261150, Note_on_c, 0, 44, 46
2, 261220, Control_c, 0, 64, 0
2, 261450, Control_c, 0, 64, 127
2, 261620, Note_on_c, 0, 56, 47
2, 261636, Note_on_c, 0, 57, 0
2, 261684, Note_on_c, 0, 32, 0
2, 261768, Note_on_c, 0, 44, 0
2, 261948, Note_on_c, 0, 54, 64
2, 261984, Note_on_c, 0, 56, 0
2, 262082, Note_on_c, 0, 44, 52
2, 262168, Note_on_c, 0, 44, 0
2, 262210, Note_on_c, 0, 54, 0
2, 262380, Note_on_c, 0, 61, 47
2, 262384, Note_on_c, 0, 52, 52
2, 262399, Note_on_c, 0, 44, 25
2, 262404, Note_on_c, 0, 60, 0
2, 262410, Note_on_c, 0, 37, 29
2, 262448, Control_c, 0, 64, 0
2, 262708, Control_c, 0, 64, 127
2, 262748, Note_on_c, 0, 52, 0
2, 262782, Note_on_c, 0, 64, 51
2, 262848, Note_on_c, 0, 61, 0
2, 263086, Note_on_c, 0, 64, 0
2, 263088, Note_on_c, 0, 61, 59
2, 263398, Note_on_c, 0, 61, 0
2, 263410, Note_on_c, 0, 68, 54
2, 263734, Note_on_c, 0, 64, 65
2, 263742, Note_on_c, 0, 68, 0
2, 264032, Note_on_c, 0, 64, 0
2, 264050, Note_on_c, 0, 73, 63
2, 264338, Note_on_c, 0, 73, 0
2, 264338, Note_on_c, 0, 68, 65
2, 264620, Note_on_c, 0, 68, 0
2, 264670, Note_on_c, 0, 76, 55
2, 264942, Note_on_c, 0, 44, 0
2, 264980, Note_on_c, 0, 73, 46
2, 265054, Note_on_c, 0, 76, 0
2, 265336, Note_on_c, 0, 44, 57
2, 265339, Note_on_c, 0, 80, 47
2, 265364, Note_on_c, 0, 73, 0
2, 265428, Control_c, 0, 64, 0
2, 265612, Control_c, 0, 64, 127
2, 265758, Note_on_c, 0, 76, 46
2, 265854, Note_on_c, 0, 80, 0
2, 266000, Note_on_c, 0, 44, 0
2, 266004, Note_on_c, 0, 37, 0
2, 266110, Note_on_c, 0, 73, 44
2, 266194, Note_on_c, 0, 76, 0
2, 266222, Note_on_c, 0, 44, 58
2, 266360, Note_on_c, 0, 44, 0
2, 266596, Note_on_c, 0, 44, 57
2, 266600, Note_on_c, 0, 32, 43
2, 266604, Note_on_c, 0, 72, 47
2, 266720, Control_c, 0, 64, 0
2, 266744, Note_on_c, 0, 73, 0
2, 266966, Control_c, 0, 64, 127
2, 267048, Note_on_c, 0, 75, 55
2, 267136, Note_on_c, 0, 72, 0
2, 267412, Note_on_c, 0, 69, 42
2, 267414, Note_on_c, 0, 75, 0
2, 267734, Note_on_c, 0, 69, 0
2, 267746, Note_on_c, 0, 72, 59
2, 268066, Note_on_c, 0, 66, 41
2, 268070, Note_on_c, 0, 72, 0
2, 268390, Note_on_c, 0, 69, 37
2, 268398, Note_on_c, 0, 66, 0
2, 268732, Note_on_c, 0, 63, 39
2, 268746, Note_on_c, 0, 69, 0
2, 268952, Note_on_c, 0, 63, 0
2, 269134, Note_on_c, 0, 66, 31
2, 269424, Note_on_c, 0, 44, 0
2, 269494, Note_on_c, 0, 57, 37
2, 269526, Note_on_c, 0, 66, 0
2, 269994, Note_on_c, 0, 60, 43
2, 270038, Control_c, 0, 64, 0
2, 270040, Note_on_c, 0, 44, 41
2, 270330, Control_c, 0, 64, 127
2, 270490, Note_on_c, 0, 56, 40
2, 270532, Note_on_c, 0, 57, 0
2, 270548, Note_on_c, 0, 32, 0
2, 270636, Note_on_c, 0, 44, 0
2, 270862, Note_on_c, 0, 54, 57
2, 270908, Note_on_c, 0, 56, 0
2, 271006, Note_on_c, 0, 44, 34
2, 271054, Note_on_c, 0, 54, 0
2, 271116, Note_on_c, 0, 44, 0
2, 271406, Note_on_c, 0, 44, 32
2, 271408, Note_on_c, 0, 61, 41
2, 271422, Note_on_c, 0, 52, 50
2, 271430, Note_on_c, 0, 37, 31
2, 271436, Control_c, 0, 64, 0
2, 271450, Note_on_c, 0, 60, 0
2, 271822, Control_c, 0, 64, 127
2, 271858, Note_on_c, 0, 56, 41
2, 271930, Note_on_c, 0, 61, 0
2, 272198, Note_on_c, 0, 61, 43
2, 272246, Note_on_c, 0, 56, 0
2, 272256, Note_on_c, 0, 52, 0
2, 272540, Note_on_c, 0, 61, 0
2, 272564, Note_on_c, 0, 64, 49
2, 272928, Note_on_c, 0, 61, 41
2, 273018, Note_on_c, 0, 64, 0
2, 273236, Note_on_c, 0, 56, 37
2, 273264, Note_on_c, 0, 61, 0
2, 273548, Note_on_c, 0, 49, 44
2, 273558, Note_on_c, 0, 56, 0
2, 273864, Note_on_c, 0, 52, 42
2, 274142, Note_on_c, 0, 56, 37
2, 274164, Note_on_c, 0, 52, 0
2, 274456, Note_on_c, 0, 56, 0
2, 274480, Note_on_c, 0, 61, 35
2, 274816, Note_on_c, 0, 56, 29
2, 274866, Note_on_c, 0, 61, 0
2, 274908, Note_on_c, 0, 44, 0
2, 275164, Note_on_c, 0, 52, 34
2, 275190, Note_on_c, 0, 56, 0
2, 275460, Note_on_c, 0, 52, 0
2, 275486, Note_on_c, 0, 44, 54
2, 275572, Note_on_c, 0, 49, 0
2, 275808, Note_on_c, 0, 49, 33
2, 276144, Note_on_c, 0, 52, 50
2, 276208, Note_on_c, 0, 49, 0
2, 276458, Note_on_c, 0, 52, 0
2, 276484, Note_on_c, 0, 56, 35
2, 276852, Note_on_c, 0, 52, 35
2, 276868, Note_on_c, 0, 56, 0
2, 276882, Note_on_c, 0, 44, 0
2, 277134, Note_on_c, 0, 52, 0
2, 277202, Note_on_c, 0, 49, 26
2, 277498, Note_on_c, 0, 49, 0
2, 277550, Note_on_c, 0, 44, 37
2, 277904, Note_on_c, 0, 49, 40
2, 277938, Note_on_c, 0, 44, 0
2, 278252, Note_on_c, 0, 44, 40
2, 278262, Note_on_c, 0, 49, 0
2, 278624, Note_on_c, 0, 40, 51
2, 278634, Note_on_c, 0, 44, 0
2, 278704, Control_c, 0, 64, 0
2, 278858, Control_c, 0, 64, 127
2, 279050, Note_on_c, 0, 40, 0
2, 279050, Note_on_c, 0, 44, 43
2, 279088, Control_c, 0, 64, 0
2, 279180, Control_c, 0, 64, 127
2, 279532, Note_on_c, 0, 40, 49
2, 279588, Note_on_c, 0, 44, 0
2, 279650, Note_on_c, 0, 37, 0
2, 280392, Note_on_c, 0, 37, 39
2, 280408, Note_on_c, 0, 40, 0
2, 280902, Control_c, 0, 64, 0
2, 281116, Control_c, 0, 64, 127
2, 281674, Note_on_c, 0, 37, 0
2, 282754, Note_on_c, 0, 61, 49
2, 282754, Note_on_c, 0, 56, 26
2, 282770, Note_on_c, 0, 52, 40
2, 282776, Note_on_c, 0, 44, 25
2, 282782, Note_on_c, 0, 49, 16
2, 282784, Note_on_c, 0, 37, 13
2, 283970, Note_on_c, 0, 49, 0
2, 284062, Note_on_c, 0, 44, 0
2, 284212, Note_on_c, 0, 52, 0
2, 284280, Note_on_c, 0, 61, 0
2, 284286, Note_on_c, 0, 56, 0
2, 284288, Note_on_c, 0, 37, 0
2, 286242, Note_on_c, 0, 56, 14
2, 286244, Note_on_c, 0, 61, 27
2, 286248, Note_on_c, 0, 44, 18
2, 286252, Note_on_c, 0, 49, 13
2, 286256, Note_on_c, 0, 52, 25
2, 286256, Note_on_c, 0, 37, 10
2, 290604, Note_on_c, 0, 52, 0
2, 290622, Note_on_c, 0, 49, 0
2, 290662, Note_on_c, 0, 37, 0
2, 290684, Note_on_c, 0, 44, 0
2, 290694, Note_on_c, 0, 56, 0
2, 290717, Note_on_c, 0, 61, 0
2, 290858, Control_c, 0, 64, 0
2, 291840, Control_c, 0, 64, 0
2, 295680, Control_c, 0, 64, 127
2, 295680, Note_on_c, 0, 68, 36
2, 295680, Note_on_c, 0, 73, 43
2, 295720, Note_on_c, 0, 65, 18
2, 295782, Note_on_c, 0, 68, 0
2, 295998, Note_on_c, 0, 63, 48
2, 296000, Note_on_c, 0, 68, 46
2, 296000, Note_on_c, 0, 72, 65
2, 296016, Note_on_c, 0, 65, 0
2, 296064, Note_on_c, 0, 73, 0
2, 296076, Control_c, 0, 64, 0
2, 296336, Control_c, 0, 64, 127
2, 296396, Note_on_c, 0, 68, 0
2, 296418, Note_on_c, 0, 70, 52
2, 296426, Note_on_c, 0, 67, 43
2, 296440, Note_on_c, 0, 61, 40
2, 296443, Control_c, 0, 64, 0
2, 296450, Note_on_c, 0, 72, 0
2, 296462, Note_on_c, 0, 63, 0
2, 296626, Note_on_c, 0, 67, 0
2, 296698, Note_on_c, 0, 61, 0
2, 296722, Note_on_c, 0, 75, 55
2, 296728, Note_on_c, 0, 68, 43
2, 296734, Note_on_c, 0, 70, 0
2, 296750, Note_on_c, 0, 60, 37
2, 296830, Note_on_c, 0, 60, 0
2, 296874, Control_c, 0, 64, 127
2, 296894, Note_on_c, 0, 75, 0
2, 296900, Note_on_c, 0, 68, 0
2, 296950, Control_c, 0, 64, 0
2, 297164, Note_on_c, 0, 49, 64
2, 297164, Note_on_c, 0, 73, 58
2, 297174, Note_on_c, 0, 65, 49
2, 297177, Note_on_c, 0, 58, 39
2, 297216, Note_on_c, 0, 49, 0
2, 297234, Note_on_c, 0, 65, 0
2, 297240, Note_on_c, 0, 73, 0
2, 297242, Note_on_c, 0, 58, 0
2, 297428, Note_on_c, 0, 68, 54
2, 297428, Note_on_c, 0, 63, 65
2, 297431, Note_on_c, 0, 72, 66
2, 297438, Note_on_c, 0, 51, 57
2, 297492, Note_on_c, 0, 68, 0
2, 297504, Note_on_c, 0, 63, 0
2, 297522, Note_on_c, 0, 51, 0
2, 297528, Note_on_c, 0, 72, 0
2, 297842, Note_on_c, 0, 70, 54
2, 297850, Note_on_c, 0, 67, 37
2, 297862, Note_on_c, 0, 51, 41
2, 297865, Note_on_c, 0, 61, 46
2, 297930, Note_on_c, 0, 61, 0
2, 297930, Note_on_c, 0, 51, 0
2, 297936, Note_on_c, 0, 67, 0
2, 297960, Note_on_c, 0, 70, 0
2, 298122, Note_on_c, 0, 68, 43
2, 298138, Note_on_c, 0, 56, 35
2, 298150, Note_on_c, 0, 60, 33
2, 298222, Note_on_c, 0, 60, 0
2, 298256, Note_on_c, 0, 56, 0
2, 298274, Note_on_c, 0, 68, 0
2, 298576, Note_on_c, 0, 78, 69
2, 298579, Note_on_c, 0, 73, 44
2, 298594, Control_c, 0, 64, 127
2, 298594, Note_on_c, 0, 70, 34
2, 298674, Note_on_c, 0, 73, 0
2, 298752, Note_on_c, 0, 70, 0
2, 298878, Note_on_c, 0, 77, 88
2, 298884, Note_on_c, 0, 68, 69
2, 298892, Note_on_c, 0, 73, 49
2, 298962, Note_on_c, 0, 78, 0
2, 299102, Control_c, 0, 64, 0
2, 299318, Note_on_c, 0, 75, 85
2, 299332, Control_c, 0, 64, 127
2, 299334, Note_on_c, 0, 72, 47
2, 299336, Note_on_c, 0, 68, 0
2, 299346, Note_on_c, 0, 73, 0
2, 299346, Note_on_c, 0, 66, 36
2, 299362, Note_on_c, 0, 77, 0
2, 299470, Control_c, 0, 64, 0
2, 299556, Note_on_c, 0, 72, 0
2, 299600, Note_on_c, 0, 66, 0
2, 299606, Note_on_c, 0, 80, 72
2, 299608, Note_on_c, 0, 73, 58
2, 299620, Note_on_c, 0, 65, 46
2, 299624, Note_on_c, 0, 75, 0
2, 299722, Note_on_c, 0, 73, 0
2, 299744, Note_on_c, 0, 65, 0
2, 299762, Control_c, 0, 64, 127
2, 299782, Note_on_c, 0, 80, 0
2, 299840, Control_c, 0, 64, 0
2, 300030, Note_on_c, 0, 78, 73
2, 300032, Note_on_c, 0, 70, 47
2, 300040, Note_on_c, 0, 63, 66
2, 300046, Note_on_c, 0, 54, 59
2, 300096, Note_on_c, 0, 63, 0
2, 300096, Note_on_c, 0, 78, 0
2, 300100, Note_on_c, 0, 70, 0
2, 300112, Note_on_c, 0, 54, 0
2, 300300, Note_on_c, 0, 68, 55
2, 300300, Note_on_c, 0, 77, 65
2, 300308, Note_on_c, 0, 73, 48
2, 300312, Note_on_c, 0, 56, 49
2, 300376, Note_on_c, 0, 73, 0
2, 300412, Note_on_c, 0, 77, 0
2, 300420, Note_on_c, 0, 68, 0
2, 300428, Note_on_c, 0, 56, 0
2, 300732, Note_on_c, 0, 75, 57
2, 300738, Note_on_c, 0, 66, 40
2, 300741, Note_on_c, 0, 72, 34
2, 300752, Note_on_c, 0, 56, 29
2, 300814, Note_on_c, 0, 75, 0
2, 300820, Note_on_c, 0, 66, 0
2, 300824, Note_on_c, 0, 72, 0
2, 300828, Note_on_c, 0, 56, 0
2, 301028, Note_on_c, 0, 73, 41
2, 301050, Note_on_c, 0, 61, 29
2, 301056, Note_on_c, 0, 65, 27
2, 301120, Note_on_c, 0, 65, 0
2, 301130, Control_c, 0, 64, 127
2, 301140, Note_on_c, 0, 73, 0
2, 301156, Note_on_c, 0, 61, 0
2, 301175, Control_c, 0, 64, 0
2, 301508, Note_on_c, 0, 56, 26
2, 301510, Note_on_c, 0, 73, 69
2, 301512, Note_on_c, 0, 61, 54
2, 301520, Note_on_c, 0, 53, 67
2, 301590, Note_on_c, 0, 56, 0
2, 301622, Control_c, 0, 64, 127
2, 301736, Note_on_c, 0, 53, 0
2, 301836, Note_on_c, 0, 56, 51
2, 301864, Note_on_c, 0, 51, 48
2, 301932, Note_on_c, 0, 61, 0
2, 302016, Note_on_c, 0, 73, 0
2, 302068, Control_c, 0, 64, 0
2, 302082, Note_on_c, 0, 60, 59
2, 302086, Note_on_c, 0, 72, 71
2, 302200, Note_on_c, 0, 60, 0
2, 302212, Note_on_c, 0, 72, 0
2, 302228, Note_on_c, 0, 56, 0
2, 302268, Control_c, 0, 64, 127
2, 302324, Note_on_c, 0, 51, 0
2, 302326, Note_on_c, 0, 70, 78
2, 302336, Note_on_c, 0, 49, 52
2, 302338, Note_on_c, 0, 58, 56
2, 302338, Note_on_c, 0, 55, 55
2, 302392, Note_on_c, 0, 58, 0
2, 302560, Note_on_c, 0, 49, 0
2, 302572, Note_on_c, 0, 55, 0
2, 302590, Note_on_c, 0, 60, 56
2, 302598, Note_on_c, 0, 63, 55
2, 302598, Note_on_c, 0, 48, 47
2, 302636, Control_c, 0, 64, 0
2, 302812, Note_on_c, 0, 75, 80
2, 302815, Note_on_c, 0, 60, 0
2, 302834, Note_on_c, 0, 70, 0
2, 302846, Note_on_c, 0, 48, 0
2, 302852, Control_c, 0, 64, 127
2, 302882, Note_on_c, 0, 63, 0
2, 302964, Note_on_c, 0, 75, 0
2, 303036, Control_c, 0, 64, 0
2, 303054, Note_on_c, 0, 58, 41
2, 303054, Note_on_c, 0, 73, 77
2, 303058, Note_on_c, 0, 49, 58
2, 303062, Note_on_c, 0, 65, 56
2, 303120, Note_on_c, 0, 65, 0
2, 303128, Note_on_c, 0, 49, 0
2, 303132, Note_on_c, 0, 58, 0
2, 303296, Note_on_c, 0, 68, 52
2, 303304, Note_on_c, 0, 63, 64
2, 303310, Note_on_c, 0, 51, 60
2, 303392, Note_on_c, 0, 63, 0
2, 303432, Note_on_c, 0, 51, 0
2, 303490, Note_on_c, 0, 68, 0
2, 303512, Control_c, 0, 64, 127
2, 303516, Note_on_c, 0, 72, 62
2, 303550, Note_on_c, 0, 73, 0
2, 303558, Control_c, 0, 64, 0
2, 303600, Note_on_c, 0, 72, 0
2, 303744, Note_on_c, 0, 70, 49
2, 303746, Note_on_c, 0, 67, 23
2, 303748, Note_on_c, 0, 61, 41
2, 303766, Note_on_c, 0, 51, 11
2, 303846, Note_on_c, 0, 61, 0
2, 303848, Note_on_c, 0, 51, 0
2, 303912, Note_on_c, 0, 67, 0
2, 304018, Note_on_c, 0, 56, 33
2, 304044, Note_on_c, 0, 60, 26
2, 304124, Note_on_c, 0, 60, 0
2, 304166, Note_on_c, 0, 56, 0
2, 304204, Control_c, 0, 64, 127
2, 304218, Note_on_c, 0, 68, 48
2, 304234, Control_c, 0, 64, 0
2, 304244, Note_on_c, 0, 70, 0
2, 304374, Note_on_c, 0, 68, 0
2, 304450, Control_c, 0, 64, 127
2, 304478, Note_on_c, 0, 78, 96
2, 304488, Note_on_c, 0, 61, 36
2, 304490, Note_on_c, 0, 66, 62
2, 304502, Note_on_c, 0, 58, 13
2, 304566, Note_on_c, 0, 61, 0
2, 304624, Note_on_c, 0, 58, 0
2, 304730, Note_on_c, 0, 61, 80
2, 304740, Control_c, 0, 64, 0
2, 304756, Note_on_c, 0, 56, 54
2, 304934, Note_on_c, 0, 66, 0
2, 304942, Note_on_c, 0, 78, 0
2, 304942, Control_c, 0, 64, 127
2, 304976, Note_on_c, 0, 77, 100
2, 304982, Note_on_c, 0, 65, 75
2, 305016, Note_on_c, 0, 61, 0
2, 305042, Note_on_c, 0, 65, 0
2, 305072, Note_on_c, 0, 77, 0
2, 305102, Note_on_c, 0, 56, 0
2, 305210, Note_on_c, 0, 75, 98
2, 305214, Note_on_c, 0, 63, 85
2, 305222, Note_on_c, 0, 60, 62
2, 305224, Note_on_c, 0, 54, 63
2, 305250, Note_on_c, 0, 63, 0
2, 305288, Note_on_c, 0, 54, 0
2, 305420, Note_on_c, 0, 60, 0
2, 305432, Control_c, 0, 64, 0
2, 305446, Note_on_c, 0, 68, 78
2, 305454, Note_on_c, 0, 65, 71
2, 305474, Note_on_c, 0, 53, 59
2, 305600, Note_on_c, 0, 65, 0
2, 305624, Note_on_c, 0, 53, 0
2, 305648, Control_c, 0, 64, 127
2, 305664, Note_on_c, 0, 80, 98
2, 305668, Note_on_c, 0, 75, 0
2, 305736, Note_on_c, 0, 68, 0
2, 305796, Note_on_c, 0, 80, 0
2, 305872, Control_c, 0, 64, 0
2, 305896, Note_on_c, 0, 63, 69
2, 305896, Note_on_c, 0, 54, 73
2, 305899, Note_on_c, 0, 78, 92
2, 305906, Note_on_c, 0, 70, 69
2, 305994, Note_on_c, 0, 54, 0
2, 306000, Note_on_c, 0, 63, 0
2, 306000, Note_on_c, 0, 70, 0
2, 306134, Note_on_c, 0, 68, 71
2, 306146, Note_on_c, 0, 56, 65
2, 306146, Note_on_c, 0, 73, 49
2, 306248, Note_on_c, 0, 68, 0
2, 306294, Note_on_c, 0, 56, 0
2, 306382, Note_on_c, 0, 73, 0
2, 306382, Note_on_c, 0, 77, 82
2, 306424, Note_on_c, 0, 78, 0
2, 306504, Note_on_c, 0, 77, 0
2, 306612, Note_on_c, 0, 66, 31
2, 306612, Note_on_c, 0, 75, 57
2, 306620, Note_on_c, 0, 56, 41
2, 306628, Note_on_c, 0, 72, 27
2, 306696, Note_on_c, 0, 56, 0
2, 306718, Note_on_c, 0, 66, 0
2, 306772, Note_on_c, 0, 72, 0
2, 306889, Note_on_c, 0, 65, 35
2, 306894, Note_on_c, 0, 61, 39
2, 306988, Note_on_c, 0, 65, 0
2, 307052, Note_on_c, 0, 61, 0
2, 307076, Control_c, 0, 64, 127
2, 307126, Note_on_c, 0, 73, 44
2, 307138, Note_on_c, 0, 75, 0
2, 307154, Control_c, 0, 64, 0
2, 307312, Note_on_c, 0, 73, 0
2, 307364, Note_on_c, 0, 73, 88
2, 307378, Note_on_c, 0, 61, 51
2, 307384, Control_c, 0, 64, 127
2, 307400, Note_on_c, 0, 65, 41
2, 307470, Note_on_c, 0, 65, 0
2, 307474, Note_on_c, 0, 61, 0
2, 307520, Note_on_c, 0, 73, 0
2, 307642, Note_on_c, 0, 73, 78
2, 307648, Note_on_c, 0, 58, 63
2, 307660, Note_on_c, 0, 65, 43
2, 307814, Control_c, 0, 64, 0
2, 307964, Note_on_c, 0, 65, 0
2, 307998, Control_c, 0, 64, 127
2, 308014, Note_on_c, 0, 73, 0
2, 308112, Note_on_c, 0, 73, 74
2, 308126, Note_on_c, 0, 56, 59
2, 308130, Note_on_c, 0, 65, 57
2, 308132, Note_on_c, 0, 58, 0
2, 308184, Note_on_c, 0, 65, 0
2, 308210, Note_on_c, 0, 56, 0
2, 308234, Note_on_c, 0, 73, 0
2, 308368, Control_c, 0, 64, 0
2, 308374, Note_on_c, 0, 73, 86
2, 308376, Note_on_c, 0, 63, 71
2, 308384, Note_on_c, 0, 55, 71
2, 308604, Note_on_c, 0, 56, 74
2, 308607, Note_on_c, 0, 72, 78
2, 308628, Note_on_c, 0, 55, 0
2, 308636, Note_on_c, 0, 73, 0
2, 308660, Control_c, 0, 64, 127
2, 308684, Note_on_c, 0, 63, 0
2, 308689, Control_c, 0, 64, 0
2, 308736, Note_on_c, 0, 56, 0
2, 308778, Note_on_c, 0, 72, 0
2, 308840, Note_on_c, 0, 63, 69
2, 308842, Note_on_c, 0, 56, 58
2, 308842, Note_on_c, 0, 71, 78
2, 308966, Note_on_c, 0, 63, 0
2, 308982, Control_c, 0, 64, 127
2, 309006, Note_on_c, 0, 56, 0
2, 309012, Note_on_c, 0, 71, 0
2, 309134, Note_on_c, 0, 56, 55
2, 309140, Note_on_c, 0, 63, 56
2, 309140, Note_on_c, 0, 71, 72
2, 309182, Control_c, 0, 64, 0
2, 309368, Note_on_c, 0, 63, 0
2, 309458, Control_c, 0, 64, 127
2, 309490, Note_on_c, 0, 71, 0
2, 309624, Note_on_c, 0, 63, 60
2, 309627, Note_on_c, 0, 56, 0
2, 309627, Note_on_c, 0, 71, 62
2, 309644, Note_on_c, 0, 54, 50
2, 309716, Note_on_c, 0, 71, 0
2, 309736, Note_on_c, 0, 63, 0
2, 309900, Note_on_c, 0, 54, 0
2, 309908, Note_on_c, 0, 71, 75
2, 309916, Note_on_c, 0, 61, 43
2, 309934, Control_c, 0, 64, 0
2, 309938, Note_on_c, 0, 53, 54
2, 310144, Note_on_c, 0, 53, 0
2, 310156, Note_on_c, 0, 70, 59
2, 310170, Note_on_c, 0, 54, 63
2, 310178, Note_on_c, 0, 71, 0
2, 310212, Control_c, 0, 64, 127
2, 310224, Note_on_c, 0, 54, 0
2, 310227, Note_on_c, 0, 61, 0
2, 310296, Note_on_c, 0, 70, 0
2, 310334, Control_c, 0, 64, 0
2, 310382, Note_on_c, 0, 70, 63
2, 310388, Note_on_c, 0, 61, 82
2, 310396, Note_on_c, 0, 54, 86
2, 310514, Note_on_c, 0, 61, 0
2, 310530, Note_on_c, 0, 54, 0
2, 310534, Control_c, 0, 64, 127
2, 310688, Note_on_c, 0, 72, 101
2, 310691, Note_on_c, 0, 66, 67
2, 310698, Note_on_c, 0, 51, 82
2, 310700, Note_on_c, 0, 56, 73
2, 310756, Note_on_c, 0, 70, 0
2, 310826, Control_c, 0, 64, 0
2, 311002, Note_on_c, 0, 56, 0
2, 311042, Control_c, 0, 64, 127
2, 311082, Note_on_c, 0, 66, 0
2, 311188, Note_on_c, 0, 73, 100
2, 311198, Note_on_c, 0, 65, 79
2, 311206, Note_on_c, 0, 56, 64
2, 311212, Note_on_c, 0, 49, 74
2, 311232, Note_on_c, 0, 51, 0
2, 311238, Note_on_c, 0, 72, 0
2, 311272, Control_c, 0, 64, 0
2, 311402, Note_on_c, 0, 65, 0
2, 311406, Note_on_c, 0, 56, 0
2, 311410, Control_c, 0, 64, 127
2, 311516, Control_c, 0, 64, 0
2, 311536, Note_on_c, 0, 75, 82
2, 311548, Note_on_c, 0, 66, 46
2, 311552, Note_on_c, 0, 56, 20
2, 311556, Note_on_c, 0, 49, 0
2, 311556, Note_on_c, 0, 48, 46
2, 311578, Note_on_c, 0, 73, 0
2, 311840, Control_c, 0, 64, 127
2, 311886, Note_on_c, 0, 56, 0
2, 311898, Note_on_c, 0, 75, 0
2, 311904, Note_on_c, 0, 66, 0
2, 312112, Note_on_c, 0, 66, 63
2, 312122, Note_on_c, 0, 63, 47
2, 312372, Note_on_c, 0, 56, 39
2, 312384, Note_on_c, 0, 49, 50
2, 312392, Control_c, 0, 64, 0
2, 312412, Note_on_c, 0, 48, 0
2, 312600, Note_on_c, 0, 63, 0
2, 312619, Note_on_c, 0, 66, 0
2, 312628, Note_on_c, 0, 65, 59
2, 312642, Note_on_c, 0, 61, 32
2, 312706, Note_on_c, 0, 56, 0
2, 312706, Control_c, 0, 64, 127
2, 312752, Note_on_c, 0, 61, 0
2, 312950, Note_on_c, 0, 70, 41
2, 312954, Note_on_c, 0, 49, 0
2, 312960, Note_on_c, 0, 65, 0
2, 312962, Control_c, 0, 64, 0
2, 312962, Note_on_c, 0, 42, 35
2, 312964, Note_on_c, 0, 58, 21
2, 312966, Note_on_c, 0, 54, 33
2, 313078, Note_on_c, 0, 54, 0
2, 313090, Note_on_c, 0, 58, 0
2, 313106, Note_on_c, 0, 70, 0
2, 313114, Note_on_c, 0, 66, 35
2, 313120, Note_on_c, 0, 51, 47
2, 313324, Note_on_c, 0, 66, 0
2, 313328, Note_on_c, 0, 56, 8
2, 313330, Note_on_c, 0, 51, 0
2, 313330, Note_on_c, 0, 61, 35
2, 313334, Note_on_c, 0, 65, 35
2, 313342, Note_on_c, 0, 44, 42
2, 313394, Note_on_c, 0, 42, 0
2, 313586, Note_on_c, 0, 61, 0
2, 313636, Note_on_c, 0, 65, 0
2, 313642, Note_on_c, 0, 63, 43
2, 313650, Note_on_c, 0, 60, 35
2, 313654, Note_on_c, 0, 56, 0
2, 313722, Note_on_c, 0, 60, 0
2, 313744, Control_c, 0, 64, 127
2, 313752, Note_on_c, 0, 63, 0
2, 313778, Note_on_c, 0, 44, 0
2, 313884, Control_c, 0, 64, 0
2, 313886, Note_on_c, 0, 61, 44
2, 313890, Note_on_c, 0, 73, 62
2, 313902, Note_on_c, 0, 56, 32
2, 313914, Note_on_c, 0, 53, 42
2, 313996, Note_on_c, 0, 56, 0
2, 314068, Control_c, 0, 64, 127
2, 314116, Note_on_c, 0, 61, 0
2, 314162, Note_on_c, 0, 53, 0
2, 314180, Note_on_c, 0, 73, 0
2, 314202, Note_on_c, 0, 72, 70
2, 314205, Control_c, 0, 64, 0
2, 314205, Note_on_c, 0, 60, 65
2, 314212, Note_on_c, 0, 56, 27
2, 314234, Note_on_c, 0, 51, 23
2, 314468, Control_c, 0, 64, 127
2, 314530, Note_on_c, 0, 60, 0
2, 314530, Note_on_c, 0, 72, 0
2, 314606, Note_on_c, 0, 56, 0
2, 314668, Note_on_c, 0, 51, 0
2, 314698, Note_on_c, 0, 55, 26
2, 314700, Note_on_c, 0, 58, 44
2, 314703, Note_on_c, 0, 70, 59
2, 314712, Note_on_c, 0, 49, 35
2, 314744, Control_c, 0, 64, 0
2, 314824, Note_on_c, 0, 58, 0
2, 314898, Control_c, 0, 64, 127
2, 314924, Note_on_c, 0, 49, 0
2, 314936, Note_on_c, 0, 70, 0
2, 314978, Note_on_c, 0, 55, 0
2, 315004, Note_on_c, 0, 75, 64
2, 315026, Note_on_c, 0, 63, 48
2, 315036, Control_c, 0, 64, 0
2, 315036, Note_on_c, 0, 48, 35
2, 315039, Note_on_c, 0, 60, 31
2, 315214, Note_on_c, 0, 60, 0
2, 315252, Note_on_c, 0, 48, 0
2, 315255, Note_on_c, 0, 63, 0
2, 315288, Note_on_c, 0, 75, 0
2, 315476, Note_on_c, 0, 65, 40
2, 315486, Note_on_c, 0, 58, 55
2, 315489, Note_on_c, 0, 73, 51
2, 315490, Note_on_c, 0, 49, 42
2, 315546, Note_on_c, 0, 65, 0
2, 315550, Note_on_c, 0, 58, 0
2, 315556, Note_on_c, 0, 49, 0
2, 315752, Note_on_c, 0, 63, 74
2, 315756, Note_on_c, 0, 68, 52
2, 315770, Note_on_c, 0, 51, 55
2, 315836, Note_on_c, 0, 68, 0
2, 315844, Note_on_c, 0, 63, 0
2, 315912, Note_on_c, 0, 51, 0
2, 315942, Control_c, 0, 64, 127
2, 316004, Note_on_c, 0, 72, 80
2, 316020, Control_c, 0, 64, 0
2, 316056, Note_on_c, 0, 73, 0
2, 316138, Note_on_c, 0, 72, 0
2, 316244, Note_on_c, 0, 70, 63
2, 316256, Note_on_c, 0, 61, 39
2, 316256, Note_on_c, 0, 67, 49
2, 316260, Note_on_c, 0, 51, 48
2, 316330, Note_on_c, 0, 51, 0
2, 316334, Note_on_c, 0, 61, 0
2, 316346, Note_on_c, 0, 67, 0
2, 316512, Note_on_c, 0, 56, 60
2, 316512, Note_on_c, 0, 60, 51
2, 316588, Note_on_c, 0, 60, 0
2, 316588, Note_on_c, 0, 56, 0
2, 316648, Control_c, 0, 64, 127
2, 316710, Control_c, 0, 64, 0
2, 316748, Note_on_c, 0, 68, 62
2, 316780, Note_on_c, 0, 70, 0
2, 316888, Note_on_c, 0, 68, 0
2, 316972, Control_c, 0, 64, 127
2, 316998, Note_on_c, 0, 78, 103
2, 316998, Note_on_c, 0, 58, 37
2, 317000, Note_on_c, 0, 61, 55
2, 317004, Note_on_c, 0, 66, 75
2, 317070, Note_on_c, 0, 61, 0
2, 317082, Note_on_c, 0, 58, 0
2, 317190, Note_on_c, 0, 66, 0
2, 317232, Note_on_c, 0, 78, 0
2, 317282, Note_on_c, 0, 77, 106
2, 317285, Note_on_c, 0, 65, 85
2, 317286, Note_on_c, 0, 56, 48
2, 317290, Note_on_c, 0, 61, 57
2, 317356, Control_c, 0, 64, 0
2, 317556, Control_c, 0, 64, 127
2, 317558, Note_on_c, 0, 65, 0
2, 317592, Note_on_c, 0, 77, 0
2, 317636, Note_on_c, 0, 61, 0
2, 317662, Note_on_c, 0, 56, 0
2, 317758, Note_on_c, 0, 60, 40
2, 317764, Note_on_c, 0, 75, 90
2, 317764, Note_on_c, 0, 63, 93
2, 317774, Note_on_c, 0, 54, 56
2, 317786, Control_c, 0, 64, 0
2, 317870, Note_on_c, 0, 63, 0
2, 317926, Note_on_c, 0, 60, 0
2, 317936, Note_on_c, 0, 54, 0
2, 317939, Note_on_c, 0, 75, 0
2, 317939, Control_c, 0, 64, 127
2, 318032, Note_on_c, 0, 80, 95
2, 318032, Control_c, 0, 64, 0
2, 318038, Note_on_c, 0, 68, 73
2, 318041, Note_on_c, 0, 61, 52
2, 318064, Note_on_c, 0, 53, 65
2, 318200, Note_on_c, 0, 61, 0
2, 318210, Note_on_c, 0, 53, 0
2, 318216, Control_c, 0, 64, 127
2, 318262, Note_on_c, 0, 68, 0
2, 318282, Note_on_c, 0, 80, 0
2, 318292, Control_c, 0, 64, 0
2, 318512, Note_on_c, 0, 78, 101
2, 318520, Note_on_c, 0, 58, 51
2, 318520, Note_on_c, 0, 66, 73
2, 318532, Note_on_c, 0, 61, 42
2, 318570, Control_c, 0, 64, 127
2, 318642, Note_on_c, 0, 61, 0
2, 318792, Note_on_c, 0, 61, 79
2, 318798, Note_on_c, 0, 56, 75
2, 318820, Note_on_c, 0, 58, 0
2, 318832, Control_c, 0, 64, 0
2, 319008, Note_on_c, 0, 66, 0
2, 319012, Note_on_c, 0, 78, 0
2, 319032, Note_on_c, 0, 77, 101
2, 319035, Note_on_c, 0, 65, 86
2, 319062, Control_c, 0, 64, 127
2, 319116, Note_on_c, 0, 77, 0
2, 319120, Note_on_c, 0, 65, 0
2, 319206, Note_on_c, 0, 56, 0
2, 319209, Note_on_c, 0, 61, 0
2, 319264, Note_on_c, 0, 75, 109
2, 319266, Note_on_c, 0, 63, 109
2, 319282, Note_on_c, 0, 54, 78
2, 319285, Note_on_c, 0, 60, 75
2, 319292, Control_c, 0, 64, 0
2, 319374, Note_on_c, 0, 63, 0
2, 319430, Note_on_c, 0, 75, 0
2, 319430, Control_c, 0, 64, 127
2, 319454, Note_on_c, 0, 54, 0
2, 319504, Note_on_c, 0, 60, 0
2, 319518, Note_on_c, 0, 80, 109
2, 319522, Control_c, 0, 64, 0
2, 319524, Note_on_c, 0, 61, 90
2, 319524, Note_on_c, 0, 68, 92
2, 319532, Note_on_c, 0, 53, 111
2, 319656, Note_on_c, 0, 61, 0
2, 319676, Note_on_c, 0, 53, 0
2, 319722, Control_c, 0, 64, 127
2, 319746, Note_on_c, 0, 68, 0
2, 319770, Note_on_c, 0, 80, 0
2, 319798, Control_c, 0, 64, 0
2, 319996, Note_on_c, 0, 78, 111
2, 319998, Note_on_c, 0, 61, 75
2, 320002, Note_on_c, 0, 58, 82
2, 320002, Note_on_c, 0, 66, 92
2, 320076, Control_c, 0, 64, 127
2, 320134, Note_on_c, 0, 61, 0
2, 320282, Note_on_c, 0, 61, 100
2, 320288, Note_on_c, 0, 56, 86
2, 320310, Note_on_c, 0, 58, 0
2, 320320, Control_c, 0, 64, 0
2, 320476, Note_on_c, 0, 66, 0
2, 320484, Note_on_c, 0, 78, 0
2, 320508, Note_on_c, 0, 77, 108
2, 320518, Note_on_c, 0, 65, 83
2, 320522, Control_c, 0, 64, 127
2, 320548, Note_on_c, 0, 61, 0
2, 320562, Note_on_c, 0, 56, 0
2, 320562, Note_on_c, 0, 65, 0
2, 320626, Note_on_c, 0, 77, 0
2, 320848, Note_on_c, 0, 82, 112
2, 320852, Note_on_c, 0, 70, 100
2, 320860, Note_on_c, 0, 64, 101
2, 320863, Note_on_c, 0, 61, 80
2, 320870, Note_on_c, 0, 55, 86
2, 320906, Control_c, 0, 64, 0
2, 321114, Note_on_c, 0, 61, 0
2, 321134, Note_on_c, 0, 64, 0
2, 321166, Control_c, 0, 64, 127
2, 321232, Note_on_c, 0, 65, 72
2, 321248, Note_on_c, 0, 61, 37
2, 321248, Note_on_c, 0, 56, 56
2, 321276, Note_on_c, 0, 55, 0
2, 321350, Control_c, 0, 64, 0
2, 321500, Note_on_c, 0, 70, 0
2, 321560, Note_on_c, 0, 80, 81
2, 321578, Note_on_c, 0, 68, 55
2, 321590, Note_on_c, 0, 82, 0
2, 321698, Note_on_c, 0, 65, 0
2, 321738, Note_on_c, 0, 61, 0
2, 321750, Control_c, 0, 64, 127
2, 321774, Note_on_c, 0, 80, 0
2, 321802, Note_on_c, 0, 68, 0
2, 321808, Note_on_c, 0, 56, 0
2, 321996, Control_c, 0, 64, 0
2, 322358, Note_on_c, 0, 44, 40
2, 322360, Note_on_c, 0, 60, 49
2, 322362, Note_on_c, 0, 54, 52
2, 322367, Note_on_c, 0, 32, 20
2, 322924, Note_on_c, 0, 60, 0
2, 322944, Note_on_c, 0, 63, 44
2, 323086, Control_c, 0, 64, 127
2, 323098, Note_on_c, 0, 61, 47
2, 323116, Note_on_c, 0, 63, 0
2, 323164, Note_on_c, 0, 61, 0
2, 323232, Note_on_c, 0, 54, 0
2, 323260, Note_on_c, 0, 32, 0
2, 323338, Note_on_c, 0, 53, 55
2, 323340, Note_on_c, 0, 61, 41
2, 323346, Note_on_c, 0, 37, 20
2, 323348, Control_c, 0, 64, 0
2, 323390, Note_on_c, 0, 44, 0
2, 323494, Note_on_c, 0, 53, 0
2, 323506, Note_on_c, 0, 37, 0
2, 323578, Control_c, 0, 64, 127
2, 323616, Note_on_c, 0, 61, 0
2, 323778, Control_c, 0, 64, 0
2, 323936, Note_on_c, 0, 73, 40
2, 323944, Note_on_c, 0, 61, 25
2, 323962, Note_on_c, 0, 65, 25
2, 324102, Note_on_c, 0, 65, 0
2, 324102, Control_c, 0, 64, 127
2, 324116, Note_on_c, 0, 73, 0
2, 324204, Note_on_c, 0, 61, 0
2, 324250, Note_on_c, 0, 73, 49
2, 324258, Note_on_c, 0, 58, 32
2, 324274, Note_on_c, 0, 65, 36
2, 324392, Control_c, 0, 64, 0
2, 324608, Control_c, 0, 64, 127
2, 324624, Note_on_c, 0, 65, 0
2, 324627, Note_on_c, 0, 73, 0
2, 324728, Note_on_c, 0, 58, 0
2, 324778, Note_on_c, 0, 73, 66
2, 324786, Note_on_c, 0, 56, 40
2, 324800, Note_on_c, 0, 65, 35
2, 324846, Note_on_c, 0, 56, 0
2, 324862, Note_on_c, 0, 65, 0
2, 324862, Note_on_c, 0, 73, 0
2, 325062, Note_on_c, 0, 73, 71
2, 325064, Note_on_c, 0, 63, 58
2, 325082, Note_on_c, 0, 55, 34
2, 325146, Control_c, 0, 64, 0
2, 325298, Note_on_c, 0, 56, 62
2, 325308, Note_on_c, 0, 72, 80
2, 325312, Note_on_c, 0, 55, 0
2, 325320, Note_on_c, 0, 73, 0
2, 325372, Note_on_c, 0, 63, 0
2, 325372, Note_on_c, 0, 56, 0
2, 325380, Control_c, 0, 64, 127
2, 325418, Note_on_c, 0, 72, 0
2, 325484, Control_c, 0, 64, 0
2, 325536, Note_on_c, 0, 56, 70
2, 325540, Note_on_c, 0, 63, 66
2, 325546, Note_on_c, 0, 71, 88
2, 325618, Note_on_c, 0, 63, 0
2, 325618, Note_on_c, 0, 56, 0
2, 325666, Note_on_c, 0, 71, 0
2, 325700, Control_c, 0, 64, 127
2, 325832, Note_on_c, 0, 71, 88
2, 325836, Note_on_c, 0, 63, 60
2, 325840, Note_on_c, 0, 56, 41
2, 326148, Note_on_c, 0, 63, 0
2, 326194, Note_on_c, 0, 71, 0
2, 326254, Note_on_c, 0, 56, 0
2, 326340, Note_on_c, 0, 63, 67
2, 326346, Note_on_c, 0, 54, 47
2, 326348, Note_on_c, 0, 71, 86
2, 326408, Note_on_c, 0, 63, 0
2, 326426, Note_on_c, 0, 71, 0
2, 326516, Note_on_c, 0, 54, 0
2, 326604, Control_c, 0, 64, 0
2, 326622, Note_on_c, 0, 71, 96
2, 326628, Note_on_c, 0, 61, 59
2, 326644, Note_on_c, 0, 53, 72
2, 326850, Note_on_c, 0, 53, 0
2, 326858, Note_on_c, 0, 70, 79
2, 326866, Note_on_c, 0, 54, 72
2, 326894, Note_on_c, 0, 71, 0
2, 326897, Note_on_c, 0, 61, 0
2, 326897, Control_c, 0, 64, 127
2, 326920, Note_on_c, 0, 54, 0
2, 326976, Note_on_c, 0, 70, 0
2, 327020, Control_c, 0, 64, 0
2, 327095, Note_on_c, 0, 70, 82
2, 327102, Note_on_c, 0, 54, 89
2, 327106, Note_on_c, 0, 61, 83
2, 327236, Control_c, 0, 64, 127
2, 327242, Note_on_c, 0, 61, 0
2, 327280, Note_on_c, 0, 54, 0
2, 327382, Note_on_c, 0, 66, 71
2, 327382, Note_on_c, 0, 72, 103
2, 327392, Note_on_c, 0, 56, 65
2, 327402, Note_on_c, 0, 51, 73
2, 327458, Note_on_c, 0, 70, 0
2, 327512, Control_c, 0, 64, 0
2, 327714, Note_on_c, 0, 56, 0
2, 327742, Control_c, 0, 64, 127
2, 327776, Note_on_c, 0, 66, 0
2, 327872, Note_on_c, 0, 73, 100
2, 327886, Note_on_c, 0, 56, 56
2, 327890, Note_on_c, 0, 49, 71
2, 327894, Note_on_c, 0, 65, 58
2, 327912, Control_c, 0, 64, 0
2, 327918, Note_on_c, 0, 72, 0
2, 327918, Note_on_c, 0, 51, 0
2, 328050, Control_c, 0, 64, 127
2, 328066, Note_on_c, 0, 65, 0
2, 328074, Note_on_c, 0, 56, 0
2, 328158, Control_c, 0, 64, 0
2, 328238, Note_on_c, 0, 75, 70
2, 328256, Note_on_c, 0, 73, 0
2, 328260, Note_on_c, 0, 49, 0
2, 328260, Note_on_c, 0, 48, 39
2, 328268, Note_on_c, 0, 56, 24
2, 328274, Note_on_c, 0, 66, 21
2, 328542, Control_c, 0, 64, 127
2, 328574, Note_on_c, 0, 56, 0
2, 328598, Note_on_c, 0, 75, 0
2, 328636, Note_on_c, 0, 66, 0
2, 328860, Note_on_c, 0, 66, 46
2, 328868, Note_on_c, 0, 63, 32
2, 329064, Control_c, 0, 64, 0
2, 329128, Note_on_c, 0, 48, 0
2, 329131, Note_on_c, 0, 56, 28
2, 329142, Note_on_c, 0, 49, 42
2, 329390, Note_on_c, 0, 63, 0
2, 329396, Note_on_c, 0, 65, 51
2, 329410, Note_on_c, 0, 66, 0
2, 329410, Note_on_c, 0, 61, 29
2, 329464, Note_on_c, 0, 56, 0
2, 329524, Control_c, 0, 64, 127
2, 329537, Note_on_c, 0, 61, 0
2, 329670, Note_on_c, 0, 49, 0
2, 329706, Note_on_c, 0, 70, 41
2, 329709, Control_c, 0, 64, 0
2, 329709, Note_on_c, 0, 58, 33
2, 329713, Note_on_c, 0, 65, 0
2, 329722, Note_on_c, 0, 42, 29
2, 329732, Note_on_c, 0, 54, 16
2, 329824, Note_on_c, 0, 54, 0
2, 329824, Note_on_c, 0, 58, 0
2, 329854, Note_on_c, 0, 70, 0
2, 329878, Note_on_c, 0, 66, 29
2, 329894, Note_on_c, 0, 51, 24
2, 329956, Control_c, 0, 64, 127
2, 330050, Note_on_c, 0, 51, 0
2, 330062, Control_c, 0, 64, 0
2, 330096, Note_on_c, 0, 66, 0
2, 330098, Note_on_c, 0, 65, 35
2, 330102, Note_on_c, 0, 61, 27
2, 330122, Note_on_c, 0, 44, 35
2, 330122, Note_on_c, 0, 56, 6
2, 330188, Note_on_c, 0, 42, 0
2, 330366, Note_on_c, 0, 61, 0
2, 330410, Note_on_c, 0, 65, 0
2, 330410, Note_on_c, 0, 63, 39
2, 330426, Note_on_c, 0, 60, 33
2, 330468, Note_on_c, 0, 56, 0
2, 330494, Note_on_c, 0, 60, 0
2, 330497, Note_on_c, 0, 63, 0
2, 330508, Control_c, 0, 64, 127
2, 330558, Note_on_c, 0, 44, 0
2, 330616, Control_c, 0, 64, 0
2, 330656, Note_on_c, 0, 73, 50
2, 330662, Note_on_c, 0, 61, 47
2, 330666, Note_on_c, 0, 56, 39
2, 330678, Note_on_c, 0, 53, 36
2, 330730, Note_on_c, 0, 56, 0
2, 330816, Control_c, 0, 64, 127
2, 330884, Note_on_c, 0, 61, 0
2, 330916, Note_on_c, 0, 53, 0
2, 330918, Note_on_c, 0, 73, 0
2, 330954, Note_on_c, 0, 72, 65
2, 330960, Note_on_c, 0, 60, 64
2, 330984, Note_on_c, 0, 56, 36
2, 330988, Note_on_c, 0, 51, 14
2, 331138, Control_c, 0, 64, 0
2, 331292, Note_on_c, 0, 72, 0
2, 331302, Note_on_c, 0, 60, 0
2, 331308, Control_c, 0, 64, 127
2, 331346, Note_on_c, 0, 51, 0
2, 331368, Note_on_c, 0, 56, 0
2, 331434, Note_on_c, 0, 58, 54
2, 331436, Note_on_c, 0, 55, 37
2, 331438, Note_on_c, 0, 49, 26
2, 331440, Note_on_c, 0, 70, 57
2, 331546, Note_on_c, 0, 58, 0
2, 331574, Note_on_c, 0, 49, 0
2, 331646, Note_on_c, 0, 70, 0
2, 331658, Note_on_c, 0, 55, 0
2, 331744, Note_on_c, 0, 75, 64
2, 331764, Note_on_c, 0, 63, 36
2, 331766, Control_c, 0, 64, 0
2, 331780, Note_on_c, 0, 60, 29
2, 331788, Note_on_c, 0, 48, 14
2, 331922, Note_on_c, 0, 60, 0
2, 331954, Note_on_c, 0, 48, 0
2, 331954, Note_on_c, 0, 63, 0
2, 331982, Control_c, 0, 64, 127
2, 331995, Note_on_c, 0, 75, 0
2, 332076, Control_c, 0, 64, 0
2, 332214, Note_on_c, 0, 73, 56
2, 332219, Note_on_c, 0, 58, 24
2, 332219, Note_on_c, 0, 49, 46
2, 332234, Note_on_c, 0, 65, 48
2, 332294, Note_on_c, 0, 65, 0
2, 332336, Note_on_c, 0, 49, 0
2, 332339, Note_on_c, 0, 58, 0
2, 332382, Control_c, 0, 64, 127
2, 332428, Control_c, 0, 64, 0
2, 332496, Note_on_c, 0, 63, 50
2, 332499, Note_on_c, 0, 68, 47
2, 332510, Note_on_c, 0, 51, 46
2, 332618, Note_on_c, 0, 68, 0
2, 332620, Note_on_c, 0, 63, 0
2, 332646, Note_on_c, 0, 51, 0
2, 332690, Control_c, 0, 64, 127
2, 332720, Control_c, 0, 64, 0
2, 332748, Note_on_c, 0, 72, 64
2, 332808, Note_on_c, 0, 73, 0
2, 332922, Note_on_c, 0, 72, 0
2, 332992, Note_on_c, 0, 70, 57
2, 332998, Note_on_c, 0, 61, 47
2, 332998, Note_on_c, 0, 51, 36
2, 333008, Note_on_c, 0, 67, 41
2, 333012, Control_c, 0, 64, 127
2, 333064, Note_on_c, 0, 61, 0
2, 333080, Note_on_c, 0, 51, 0
2, 333082, Note_on_c, 0, 67, 0
2, 333090, Control_c, 0, 64, 0
2, 333266, Note_on_c, 0, 60, 55
2, 333270, Note_on_c, 0, 56, 50
2, 333354, Note_on_c, 0, 60, 0
2, 333364, Note_on_c, 0, 56, 0
2, 333428, Control_c, 0, 64, 127
2, 333504, Control_c, 0, 64, 0
2, 333512, Note_on_c, 0, 68, 58
2, 333534, Note_on_c, 0, 70, 0
2, 333646, Note_on_c, 0, 68, 0
2, 333792, Note_on_c, 0, 78, 74
2, 333800, Note_on_c, 0, 66, 37
2, 333802, Note_on_c, 0, 58, 18
2, 333804, Note_on_c, 0, 61, 33
2, 333880, Note_on_c, 0, 61, 0
2, 333918, Control_c, 0, 64, 127
2, 333920, Note_on_c, 0, 58, 0
2, 334000, Note_on_c, 0, 66, 0
2, 334026, Note_on_c, 0, 78, 0
2, 334078, Note_on_c, 0, 77, 87
2, 334090, Note_on_c, 0, 61, 41
2, 334090, Note_on_c, 0, 56, 20
2, 334092, Note_on_c, 0, 65, 54
2, 334226, Control_c, 0, 64, 0
2, 334394, Control_c, 0, 64, 127
2, 334399, Note_on_c, 0, 65, 0
2, 334404, Note_on_c, 0, 77, 0
2, 334404, Note_on_c, 0, 61, 0
2, 334434, Note_on_c, 0, 56, 0
2, 334574, Note_on_c, 0, 75, 73
2, 334578, Note_on_c, 0, 63, 63
2, 334582, Note_on_c, 0, 60, 43
2, 334588, Note_on_c, 0, 54, 32
2, 334610, Control_c, 0, 64, 0
2, 334682, Note_on_c, 0, 54, 0
2, 334682, Note_on_c, 0, 63, 0
2, 334748, Control_c, 0, 64, 127
2, 334782, Note_on_c, 0, 60, 0
2, 334784, Note_on_c, 0, 75, 0
2, 334854, Note_on_c, 0, 61, 50
2, 334854, Note_on_c, 0, 80, 83
2, 334857, Control_c, 0, 64, 0
2, 334857, Note_on_c, 0, 68, 60
2, 334870, Note_on_c, 0, 53, 62
2, 334966, Note_on_c, 0, 53, 0
2, 334986, Note_on_c, 0, 61, 0
2, 335024, Note_on_c, 0, 68, 0
2, 335024, Control_c, 0, 64, 127
2, 335058, Note_on_c, 0, 80, 0
2, 335102, Control_c, 0, 64, 0
2, 335329, Note_on_c, 0, 78, 89
2, 335340, Note_on_c, 0, 61, 52
2, 335342, Note_on_c, 0, 66, 52
2, 335344, Note_on_c, 0, 58, 49
2, 335394, Control_c, 0, 64, 127
2, 335450, Note_on_c, 0, 61, 0
2, 335614, Note_on_c, 0, 61, 78
2, 335624, Note_on_c, 0, 56, 71
2, 335658, Note_on_c, 0, 58, 0
2, 335810, Control_c, 0, 64, 0
2, 335813, Note_on_c, 0, 66, 0
2, 335824, Note_on_c, 0, 78, 0
2, 335860, Note_on_c, 0, 77, 95
2, 335860, Note_on_c, 0, 65, 79
2, 335946, Note_on_c, 0, 77, 0
2, 335972, Note_on_c, 0, 65, 0
2, 335992, Control_c, 0, 64, 127
2, 336016, Note_on_c, 0, 61, 0
2, 336065, Note_on_c, 0, 56, 0
2, 336094, Note_on_c, 0, 75, 103
2, 336098, Note_on_c, 0, 63, 98
2, 336106, Note_on_c, 0, 54, 73
2, 336114, Note_on_c, 0, 60, 64
2, 336117, Control_c, 0, 64, 0
2, 336188, Note_on_c, 0, 63, 0
2, 336262, Note_on_c, 0, 75, 0
2, 336282, Note_on_c, 0, 60, 0
2, 336326, Note_on_c, 0, 54, 0
2, 336332, Control_c, 0, 64, 127
2, 336348, Note_on_c, 0, 80, 109
2, 336352, Note_on_c, 0, 68, 96
2, 336358, Note_on_c, 0, 61, 93
2, 336370, Note_on_c, 0, 53, 111
2, 336392, Control_c, 0, 64, 0
2, 336468, Note_on_c, 0, 61, 0
2, 336506, Note_on_c, 0, 53, 0
2, 336520, Note_on_c, 0, 68, 0
2, 336562, Control_c, 0, 64, 127
2, 336594, Note_on_c, 0, 80, 0
2, 336670, Control_c, 0, 64, 0
2, 336836, Note_on_c, 0, 78, 113
2, 336838, Note_on_c, 0, 58, 75
2, 336840, Note_on_c, 0, 66, 96
2, 336846, Note_on_c, 0, 61, 69
2, 336930, Control_c, 0, 64, 127
2, 336970, Note_on_c, 0, 61, 0
2, 337132, Note_on_c, 0, 61, 93
2, 337132, Note_on_c, 0, 56, 87
2, 337144, Note_on_c, 0, 58, 0
2, 337160, Control_c, 0, 64, 0
2, 337340, Note_on_c, 0, 78, 0
2, 337342, Note_on_c, 0, 66, 0
2, 337362, Control_c, 0, 64, 127
2, 337390, Note_on_c, 0, 77, 108
2, 337398, Note_on_c, 0, 65, 86
2, 337436, Note_on_c, 0, 65, 0
2, 337450, Note_on_c, 0, 61, 0
2, 337468, Note_on_c, 0, 77, 0
2, 337480, Note_on_c, 0, 56, 0
2, 337606, Control_c, 0, 64, 0
2, 337700, Note_on_c, 0, 82, 118
2, 337700, Note_on_c, 0, 70, 111
2, 337704, Note_on_c, 0, 64, 111
2, 337708, Note_on_c, 0, 61, 92
2, 337714, Note_on_c, 0, 55, 90
2, 337838, Control_c, 0, 64, 127
2, 337924, Note_on_c, 0, 61, 0
2, 337968, Note_on_c, 0, 64, 0
2, 338084, Note_on_c, 0, 56, 70
2, 338084, Note_on_c, 0, 65, 80
2, 338084, Note_on_c, 0, 61, 62
2, 338120, Note_on_c, 0, 55, 0
2, 338176, Control_c, 0, 64, 0
2, 338340, Note_on_c, 0, 70, 0
2, 338400, Note_on_c, 0, 80, 89
2, 338406, Note_on_c, 0, 68, 83
2, 338456, Note_on_c, 0, 82, 0
2, 338536, Note_on_c, 0, 65, 0
2, 338560, Control_c, 0, 64, 127
2, 338568, Note_on_c, 0, 61, 0
2, 338616, Note_on_c, 0, 80, 0
2, 338628, Note_on_c, 0, 56, 0
2, 338631, Note_on_c, 0, 68, 0
2, 338882, Control_c, 0, 64, 0
2, 339358, Note_on_c, 0, 60, 52
2, 339360, Note_on_c, 0, 54, 47
2, 339372, Note_on_c, 0, 44, 39
2, 339374, Note_on_c, 0, 32, 23
2, 340122, Note_on_c, 0, 63, 37
2, 340128, Note_on_c, 0, 60, 0
2, 340326, Control_c, 0, 64, 127
2, 340328, Note_on_c, 0, 61, 41
2, 340338, Note_on_c, 0, 63, 0
2, 340396, Note_on_c, 0, 61, 0
2, 340438, Note_on_c, 0, 32, 0
2, 340478, Note_on_c, 0, 54, 0
2, 340588, Control_c, 0, 64, 0
2, 340600, Note_on_c, 0, 61, 31
2, 340608, Note_on_c, 0, 37, 25
2, 340624, Note_on_c, 0, 53, 27
2, 340850, Note_on_c, 0, 44, 0
2, 340894, Note_on_c, 0, 37, 0
2, 340894, Control_c, 0, 64, 127
2, 340900, Note_on_c, 0, 53, 0
2, 340952, Note_on_c, 0, 61, 0
2, 341002, Control_c, 0, 64, 0
2, 341186, Note_on_c, 0, 65, 101
2, 341189, Note_on_c, 0, 53, 109
2, 341500, Note_on_c, 0, 44, 101
2, 341500, Note_on_c, 0, 37, 105
2, 341662, Control_c, 0, 64, 127
2, 341740, Note_on_c, 0, 53, 0
2, 341802, Note_on_c, 0, 65, 0
2, 341980, Note_on_c, 0, 66, 89
2, 341983, Note_on_c, 0, 54, 98
2, 342232, Control_c, 0, 64, 0
2, 342296, Note_on_c, 0, 39, 90
2, 342324, Note_on_c, 0, 37, 0
2, 342504, Note_on_c, 0, 54, 0
2, 342507, Control_c, 0, 64, 127
2, 342640, Note_on_c, 0, 66, 0
2, 342804, Note_on_c, 0, 75, 101
2, 342806, Note_on_c, 0, 63, 103
2, 343016, Control_c, 0, 64, 0
2, 343092, Note_on_c, 0, 39, 0
2, 343097, Note_on_c, 0, 42, 80
2, 343182, Note_on_c, 0, 75, 0
2, 343230, Control_c, 0, 64, 127
2, 343236, Note_on_c, 0, 63, 0
2, 343354, Note_on_c, 0, 72, 85
2, 343356, Note_on_c, 0, 60, 87
2, 343402, Note_on_c, 0, 72, 0
2, 343412, Note_on_c, 0, 60, 0
2, 343598, Note_on_c, 0, 56, 90
2, 343600, Note_on_c, 0, 68, 96
2, 343640, Note_on_c, 0, 56, 0
2, 343650, Note_on_c, 0, 68, 0
2, 343830, Control_c, 0, 64, 0
2, 343864, Note_on_c, 0, 61, 92
2, 343868, Note_on_c, 0, 73, 86
2, 343874, Note_on_c, 0, 42, 0
2, 343882, Note_on_c, 0, 41, 66
2, 343972, Note_on_c, 0, 61, 0
2, 344106, Control_c, 0, 64, 127
2, 344130, Note_on_c, 0, 73, 0
2, 344134, Note_on_c, 0, 77, 92
2, 344140, Note_on_c, 0, 65, 63
2, 344170, Note_on_c, 0, 77, 0
2, 344218, Note_on_c, 0, 65, 0
2, 344458, Note_on_c, 0, 65, 105
2, 344468, Note_on_c, 0, 53, 115
2, 344522, Note_on_c, 0, 44, 0
2, 344568, Note_on_c, 0, 41, 0
2, 344706, Control_c, 0, 64, 0
2, 344754, Note_on_c, 0, 44, 101
2, 344762, Note_on_c, 0, 37, 95
2, 345028, Note_on_c, 0, 53, 0
2, 345060, Control_c, 0, 64, 127
2, 345116, Note_on_c, 0, 65, 0
2, 345266, Note_on_c, 0, 66, 95
2, 345269, Note_on_c, 0, 54, 102
2, 345442, Control_c, 0, 64, 0
2, 345572, Note_on_c, 0, 37, 0
2, 345580, Note_on_c, 0, 39, 80
2, 345692, Note_on_c, 0, 54, 0
2, 345720, Control_c, 0, 64, 127
2, 345862, Note_on_c, 0, 66, 0
2, 346068, Note_on_c, 0, 66, 82
2, 346070, Note_on_c, 0, 78, 97
2, 346288, Control_c, 0, 64, 0
2, 346352, Note_on_c, 0, 39, 0
2, 346364, Note_on_c, 0, 32, 60
2, 346402, Note_on_c, 0, 66, 0
2, 346518, Control_c, 0, 64, 127
2, 346592, Note_on_c, 0, 44, 0
2, 346624, Note_on_c, 0, 70, 57
2, 346627, Note_on_c, 0, 82, 72
2, 346668, Note_on_c, 0, 78, 0
2, 346676, Note_on_c, 0, 82, 0
2, 346696, Note_on_c, 0, 70, 0
2, 346734, Note_on_c, 0, 32, 0
2, 346864, Note_on_c, 0, 72, 83
2, 346867, Note_on_c, 0, 60, 83
2, 346884, Note_on_c, 0, 44, 48
2, 346912, Note_on_c, 0, 72, 0
2, 346916, Note_on_c, 0, 60, 0
2, 346934, Control_c, 0, 64, 0
2, 347120, Note_on_c, 0, 75, 74
2, 347123, Note_on_c, 0, 63, 63
2, 347148, Note_on_c, 0, 37, 40
2, 347280, Note_on_c, 0, 63, 0
2, 347350, Note_on_c, 0, 75, 0
2, 347370, Note_on_c, 0, 73, 56
2, 347373, Note_on_c, 0, 61, 54
2, 347420, Note_on_c, 0, 73, 0
2, 347438, Note_on_c, 0, 61, 0
2, 347438, Control_c, 0, 64, 127
2, 347456, Note_on_c, 0, 44, 0
2, 347502, Control_c, 0, 64, 0
2, 347509, Note_on_c, 0, 37, 0
2, 347632, Note_on_c, 0, 65, 103
2, 347632, Note_on_c, 0, 53, 120
2, 347934, Note_on_c, 0, 44, 98
2, 347936, Note_on_c, 0, 37, 103
2, 348138, Note_on_c, 0, 53, 0
2, 348162, Control_c, 0, 64, 127
2, 348248, Note_on_c, 0, 65, 0
2, 348424, Note_on_c, 0, 66, 85
2, 348432, Note_on_c, 0, 54, 89
2, 348624, Control_c, 0, 64, 0
2, 348710, Note_on_c, 0, 37, 0
2, 348732, Note_on_c, 0, 39, 66
2, 348926, Note_on_c, 0, 54, 0
2, 348946, Control_c, 0, 64, 127
2, 349040, Note_on_c, 0, 66, 0
2, 349186, Note_on_c, 0, 75, 102
2, 349186, Note_on_c, 0, 63, 100
2, 349376, Control_c, 0, 64, 0
2, 349454, Note_on_c, 0, 39, 0
2, 349466, Note_on_c, 0, 42, 78
2, 349568, Note_on_c, 0, 75, 0
2, 349571, Note_on_c, 0, 63, 0
2, 349592, Control_c, 0, 64, 127
2, 349704, Note_on_c, 0, 72, 89
2, 349706, Note_on_c, 0, 60, 87
2, 349730, Control_c, 0, 64, 0
2, 349744, Note_on_c, 0, 72, 0
2, 349754, Note_on_c, 0, 60, 0
2, 349935, Note_on_c, 0, 68, 87
2, 349935, Note_on_c, 0, 56, 83
2, 349984, Note_on_c, 0, 56, 0
2, 350006, Note_on_c, 0, 68, 0
2, 350184, Note_on_c, 0, 73, 82
2, 350188, Note_on_c, 0, 61, 79
2, 350214, Note_on_c, 0, 42, 0
2, 350214, Note_on_c, 0, 41, 62
2, 350290, Note_on_c, 0, 61, 0
2, 350440, Note_on_c, 0, 77, 92
2, 350444, Note_on_c, 0, 65, 71
2, 350454, Note_on_c, 0, 73, 0
2, 350474, Note_on_c, 0, 77, 0
2, 350498, Control_c, 0, 64, 127
2, 350512, Note_on_c, 0, 65, 0
2, 350590, Control_c, 0, 64, 0
2, 350716, Note_on_c, 0, 65, 104
2, 350726, Note_on_c, 0, 53, 116
2, 350828, Note_on_c, 0, 44, 0
2, 350856, Note_on_c, 0, 41, 0
2, 351012, Note_on_c, 0, 37, 96
2, 351014, Note_on_c, 0, 44, 89
2, 351096, Control_c, 0, 64, 127
2, 351196, Note_on_c, 0, 53, 0
2, 351296, Note_on_c, 0, 65, 0
2, 351488, Note_on_c, 0, 66, 86
2, 351494, Note_on_c, 0, 54, 96
2, 351542, Control_c, 0, 64, 0
2, 351756, Note_on_c, 0, 37, 0
2, 351794, Note_on_c, 0, 39, 79
2, 351900, Note_on_c, 0, 54, 0
2, 351958, Control_c, 0, 64, 127
2, 352054, Note_on_c, 0, 66, 0
2, 352252, Note_on_c, 0, 78, 101
2, 352258, Note_on_c, 0, 66, 79
2, 352526, Control_c, 0, 64, 0
2, 352546, Note_on_c, 0, 32, 58
2, 352552, Note_on_c, 0, 39, 0
2, 352590, Note_on_c, 0, 66, 0
2, 352726, Control_c, 0, 64, 127
2, 352729, Note_on_c, 0, 44, 0
2, 352778, Note_on_c, 0, 82, 85
2, 352784, Note_on_c, 0, 70, 57
2, 352824, Note_on_c, 0, 82, 0
2, 352827, Note_on_c, 0, 78, 0
2, 352848, Note_on_c, 0, 70, 0
2, 352864, Control_c, 0, 64, 0
2, 352954, Note_on_c, 0, 32, 0
2, 353026, Note_on_c, 0, 72, 74
2, 353028, Note_on_c, 0, 60, 82
2, 353044, Note_on_c, 0, 44, 37
2, 353084, Note_on_c, 0, 60, 0
2, 353102, Note_on_c, 0, 72, 0
2, 353282, Note_on_c, 0, 75, 64
2, 353292, Note_on_c, 0, 63, 48
2, 353330, Note_on_c, 0, 37, 31
2, 353432, Note_on_c, 0, 63, 0
2, 353470, Note_on_c, 0, 44, 0
2, 353490, Note_on_c, 0, 75, 0
2, 353493, Control_c, 0, 64, 127
2, 353548, Note_on_c, 0, 37, 0
2, 353552, Note_on_c, 0, 73, 48
2, 353556, Note_on_c, 0, 61, 37
2, 353624, Note_on_c, 0, 61, 0
2, 353628, Note_on_c, 0, 73, 0
2, 353694, Control_c, 0, 64, 0
2, 353852, Note_on_c, 0, 77, 55
2, 353876, Note_on_c, 0, 65, 29
2, 354124, Control_c, 0, 64, 127
2, 354162, Note_on_c, 0, 56, 31
2, 354180, Note_on_c, 0, 50, 18
2, 354196, Note_on_c, 0, 65, 0
2, 354210, Note_on_c, 0, 77, 0
2, 354642, Note_on_c, 0, 70, 37
2, 354652, Note_on_c, 0, 58, 20
2, 354740, Note_on_c, 0, 56, 0
2, 354774, Note_on_c, 0, 50, 0
2, 354878, Control_c, 0, 64, 0
2, 354952, Note_on_c, 0, 55, 39
2, 354955, Note_on_c, 0, 49, 21
2, 355114, Note_on_c, 0, 58, 0
2, 355138, Control_c, 0, 64, 127
2, 355226, Note_on_c, 0, 70, 0
2, 355334, Note_on_c, 0, 55, 0
2, 355416, Note_on_c, 0, 63, 41
2, 355420, Note_on_c, 0, 75, 48
2, 355428, Note_on_c, 0, 49, 0
2, 355662, Control_c, 0, 64, 0
2, 355706, Note_on_c, 0, 54, 48
2, 355726, Note_on_c, 0, 48, 26
2, 355890, Control_c, 0, 64, 127
2, 355895, Note_on_c, 0, 75, 0
2, 355950, Note_on_c, 0, 63, 0
2, 356150, Note_on_c, 0, 68, 57
2, 356156, Note_on_c, 0, 56, 52
2, 356254, Note_on_c, 0, 54, 0
2, 356292, Note_on_c, 0, 48, 0
2, 356454, Note_on_c, 0, 53, 89
2, 356460, Control_c, 0, 64, 0
2, 356472, Note_on_c, 0, 47, 41
2, 356678, Note_on_c, 0, 56, 0
2, 356706, Control_c, 0, 64, 127
2, 356772, Note_on_c, 0, 68, 0
2, 356798, Note_on_c, 0, 47, 0
2, 356808, Note_on_c, 0, 53, 0
2, 356894, Note_on_c, 0, 73, 88
2, 356904, Note_on_c, 0, 61, 74
2, 357192, Note_on_c, 0, 49, 90
2, 357202, Note_on_c, 0, 46, 73
2, 357212, Control_c, 0, 64, 0
2, 357462, Note_on_c, 0, 73, 0
2, 357488, Control_c, 0, 64, 127
2, 357500, Note_on_c, 0, 61, 0
2, 357682, Note_on_c, 0, 66, 67
2, 357684, Note_on_c, 0, 54, 74
2, 357888, Control_c, 0, 64, 0
2, 357974, Note_on_c, 0, 44, 65
2, 357982, Note_on_c, 0, 46, 0
2, 358242, Control_c, 0, 64, 127
2, 358312, Note_on_c, 0, 54, 0
2, 358410, Note_on_c, 0, 66, 0
2, 358474, Note_on_c, 0, 53, 101
2, 358478, Note_on_c, 0, 65, 72
2, 358642, Control_c, 0, 64, 0
2, 358758, Note_on_c, 0, 53, 0
2, 358764, Note_on_c, 0, 37, 75
2, 358778, Note_on_c, 0, 44, 0
2, 358886, Control_c, 0, 64, 127
2, 358994, Note_on_c, 0, 68, 75
2, 359002, Note_on_c, 0, 56, 65
2, 359006, Note_on_c, 0, 65, 0
2, 359032, Note_on_c, 0, 41, 58
2, 359058, Note_on_c, 0, 37, 0
2, 359114, Note_on_c, 0, 56, 0
2, 359240, Control_c, 0, 64, 0
2, 359250, Note_on_c, 0, 71, 85
2, 359253, Note_on_c, 0, 41, 0
2, 359258, Note_on_c, 0, 59, 64
2, 359268, Note_on_c, 0, 44, 51
2, 359276, Note_on_c, 0, 68, 0
2, 359532, Note_on_c, 0, 59, 0
2, 359542, Note_on_c, 0, 44, 0
2, 359548, Note_on_c, 0, 42, 51
2, 359564, Control_c, 0, 64, 127
2, 359748, Control_c, 0, 64, 0
2, 359810, Note_on_c, 0, 70, 49
2, 359813, Note_on_c, 0, 58, 31
2, 359826, Note_on_c, 0, 71, 0
2, 359944, Note_on_c, 0, 58, 0
2, 360024, Control_c, 0, 64, 127
2, 360036, Note_on_c, 0, 49, 0
2, 360044, Note_on_c, 0, 70, 0
2, 360068, Note_on_c, 0, 42, 0
2, 360092, Note_on_c, 0, 73, 65
2, 360098, Note_on_c, 0, 61, 58
2, 360300, Control_c, 0, 64, 0
2, 360346, Note_on_c, 0, 46, 74
2, 360348, Note_on_c, 0, 49, 79
2, 360594, Control_c, 0, 64, 127
2, 360606, Note_on_c, 0, 73, 0
2, 360648, Note_on_c, 0, 61, 0
2, 360802, Note_on_c, 0, 54, 83
2, 360802, Note_on_c, 0, 66, 69
2, 361084, Control_c, 0, 64, 0
2, 361088, Note_on_c, 0, 44, 75
2, 361110, Note_on_c, 0, 46, 0
2, 361360, Control_c, 0, 64, 127
2, 361392, Note_on_c, 0, 54, 0
2, 361464, Note_on_c, 0, 66, 0
2, 361546, Note_on_c, 0, 65, 73
2, 361570, Note_on_c, 0, 53, 71
2, 361762, Control_c, 0, 64, 0
2, 361836, Note_on_c, 0, 43, 69
2, 361838, Note_on_c, 0, 44, 0
2, 362052, Control_c, 0, 64, 127
2, 362098, Note_on_c, 0, 53, 0
2, 362098, Note_on_c, 0, 65, 0
2, 362304, Note_on_c, 0, 64, 71
2, 362310, Note_on_c, 0, 52, 56
2, 362544, Control_c, 0, 64, 0
2, 362578, Note_on_c, 0, 44, 54
2, 362602, Note_on_c, 0, 43, 0
2, 362866, Control_c, 0, 64, 127
2, 362880, Note_on_c, 0, 52, 0
2, 362922, Note_on_c, 0, 64, 0
2, 363064, Note_on_c, 0, 65, 51
2, 363068, Note_on_c, 0, 53, 70
2, 363082, Control_c, 0, 64, 0
2, 363194, Note_on_c, 0, 49, 0
2, 363240, Note_on_c, 0, 44, 0
2, 363266, Control_c, 0, 64, 127
2, 363350, Note_on_c, 0, 49, 52
2, 363350, Note_on_c, 0, 46, 52
2, 363486, Note_on_c, 0, 53, 0
2, 363544, Control_c, 0, 64, 0
2, 363700, Note_on_c, 0, 65, 0
2, 363742, Control_c, 0, 64, 127
2, 363810, Note_on_c, 0, 66, 64
2, 363813, Note_on_c, 0, 54, 64
2, 364104, Note_on_c, 0, 44, 60
2, 364108, Note_on_c, 0, 46, 0
2, 364110, Control_c, 0, 64, 0
2, 364342, Control_c, 0, 64, 127
2, 364384, Note_on_c, 0, 49, 0
2, 364432, Note_on_c, 0, 54, 0
2, 364458, Note_on_c, 0, 66, 0
2, 364582, Note_on_c, 0, 65, 33
2, 364582, Note_on_c, 0, 53, 60
2, 364772, Control_c, 0, 64, 0
2, 364886, Note_on_c, 0, 32, 62
2, 364934, Note_on_c, 0, 53, 0
2, 364956, Control_c, 0, 64, 127
2, 364972, Note_on_c, 0, 65, 0
2, 365004, Note_on_c, 0, 32, 0
2, 365028, Note_on_c, 0, 44, 0
2, 365136, Note_on_c, 0, 54, 57
2, 365139, Note_on_c, 0, 66, 46
2, 365156, Control_c, 0, 64, 0
2, 365188, Note_on_c, 0, 54, 0
2, 365216, Note_on_c, 0, 66, 0
2, 365416, Note_on_c, 0, 44, 41
2, 365421, Note_on_c, 0, 60, 42
2, 365423, Note_on_c, 0, 48, 36
2, 365498, Note_on_c, 0, 48, 0
2, 365544, Note_on_c, 0, 44, 0
2, 365554, Note_on_c, 0, 60, 0
2, 365766, Note_on_c, 0, 61, 42
2, 365768, Note_on_c, 0, 49, 35
2, 365776, Note_on_c, 0, 37, 23
2, 365909, Note_on_c, 0, 37, 0
2, 365924, Control_c, 0, 64, 127
2, 365926, Note_on_c, 0, 49, 0
2, 365926, Note_on_c, 0, 61, 0
2, 366016, Control_c, 0, 64, 0
2, 366342, Note_on_c, 0, 77, 40
2, 366352, Note_on_c, 0, 65, 14
2, 366462, Control_c, 0, 64, 127
2, 366684, Note_on_c, 0, 65, 0
2, 366684, Note_on_c, 0, 56, 24
2, 366694, Note_on_c, 0, 50, 18
2, 366722, Note_on_c, 0, 77, 0
2, 367149, Note_on_c, 0, 50, 0
2, 367166, Note_on_c, 0, 58, 21
2, 367166, Note_on_c, 0, 70, 39
2, 367174, Note_on_c, 0, 56, 0
2, 367414, Control_c, 0, 64, 0
2, 367450, Note_on_c, 0, 55, 34
2, 367456, Note_on_c, 0, 49, 33
2, 367590, Note_on_c, 0, 58, 0
2, 367646, Control_c, 0, 64, 127
2, 367684, Note_on_c, 0, 70, 0
2, 367762, Note_on_c, 0, 55, 0
2, 367836, Note_on_c, 0, 49, 0
2, 367914, Note_on_c, 0, 75, 55
2, 367917, Note_on_c, 0, 63, 43
2, 368152, Control_c, 0, 64, 0
2, 368204, Note_on_c, 0, 54, 51
2, 368212, Note_on_c, 0, 48, 25
2, 368384, Control_c, 0, 64, 127
2, 368394, Note_on_c, 0, 75, 0
2, 368462, Note_on_c, 0, 63, 0
2, 368642, Note_on_c, 0, 68, 63
2, 368652, Note_on_c, 0, 56, 51
2, 368660, Note_on_c, 0, 54, 0
2, 368698, Note_on_c, 0, 48, 0
2, 368914, Note_on_c, 0, 53, 73
2, 368918, Note_on_c, 0, 47, 31
2, 368936, Control_c, 0, 64, 0
2, 369142, Note_on_c, 0, 56, 0
2, 369152, Control_c, 0, 64, 127
2, 369234, Note_on_c, 0, 68, 0
2, 369256, Note_on_c, 0, 53, 0
2, 369268, Note_on_c, 0, 47, 0
2, 369362, Note_on_c, 0, 73, 93
2, 369372, Note_on_c, 0, 61, 79
2, 369634, Note_on_c, 0, 46, 70
2, 369634, Note_on_c, 0, 49, 66
2, 369658, Control_c, 0, 64, 0
2, 369872, Control_c, 0, 64, 127
2, 369882, Note_on_c, 0, 73, 0
2, 369938, Note_on_c, 0, 61, 0
2, 370144, Note_on_c, 0, 66, 73
2, 370148, Note_on_c, 0, 54, 73
2, 370414, Note_on_c, 0, 44, 63
2, 370482, Note_on_c, 0, 46, 0
2, 370534, Control_c, 0, 64, 0
2, 370764, Control_c, 0, 64, 127
2, 370766, Note_on_c, 0, 54, 0
2, 370840, Note_on_c, 0, 66, 0
2, 370884, Note_on_c, 0, 65, 72
2, 370892, Note_on_c, 0, 53, 87
2, 371086, Control_c, 0, 64, 0
2, 371152, Note_on_c, 0, 37, 75
2, 371168, Note_on_c, 0, 53, 0
2, 371202, Note_on_c, 0, 44, 0
2, 371288, Control_c, 0, 64, 127
2, 371376, Note_on_c, 0, 65, 0
2, 371390, Note_on_c, 0, 68, 50
2, 371402, Note_on_c, 0, 56, 55
2, 371432, Note_on_c, 0, 41, 59
2, 371462, Note_on_c, 0, 37, 0
2, 371494, Note_on_c, 0, 56, 0
2, 371626, Control_c, 0, 64, 0
2, 371652, Note_on_c, 0, 41, 0
2, 371662, Note_on_c, 0, 71, 74
2, 371678, Note_on_c, 0, 59, 44
2, 371678, Note_on_c, 0, 44, 47
2, 371686, Note_on_c, 0, 68, 0
2, 371926, Note_on_c, 0, 44, 0
2, 371938, Note_on_c, 0, 59, 0
2, 371952, Note_on_c, 0, 42, 47
2, 372010, Control_c, 0, 64, 127
2, 372102, Control_c, 0, 64, 0
2, 372184, Note_on_c, 0, 58, 34
2, 372187, Note_on_c, 0, 70, 48
2, 372202, Note_on_c, 0, 71, 0
2, 372264, Note_on_c, 0, 58, 0
2, 372350, Note_on_c, 0, 49, 0
2, 372362, Control_c, 0, 64, 127
2, 372392, Note_on_c, 0, 70, 0
2, 372398, Note_on_c, 0, 42, 0
2, 372472, Note_on_c, 0, 73, 74
2, 372482, Note_on_c, 0, 61, 59
2, 372722, Note_on_c, 0, 49, 63
2, 372732, Note_on_c, 0, 46, 59
2, 373016, Note_on_c, 0, 73, 0
2, 373056, Note_on_c, 0, 61, 0
2, 373216, Note_on_c, 0, 66, 63
2, 373219, Note_on_c, 0, 54, 73
2, 373284, Control_c, 0, 64, 0
2, 373472, Note_on_c, 0, 44, 78
2, 373544, Note_on_c, 0, 46, 0
2, 373760, Control_c, 0, 64, 127
2, 373790, Note_on_c, 0, 54, 0
2, 373852, Note_on_c, 0, 66, 0
2, 373922, Note_on_c, 0, 65, 71
2, 373922, Note_on_c, 0, 53, 81
2, 374176, Control_c, 0, 64, 0
2, 374202, Note_on_c, 0, 43, 80
2, 374205, Note_on_c, 0, 44, 0
2, 374410, Note_on_c, 0, 65, 0
2, 374416, Note_on_c, 0, 53, 0
2, 374422, Control_c, 0, 64, 127
2, 374650, Note_on_c, 0, 64, 83
2, 374650, Note_on_c, 0, 52, 67
2, 374868, Control_c, 0, 64, 0
2, 374928, Note_on_c, 0, 43, 0
2, 374934, Note_on_c, 0, 44, 72
2, 375174, Control_c, 0, 64, 127
2, 375178, Note_on_c, 0, 52, 0
2, 375186, Note_on_c, 0, 64, 0
2, 375378, Note_on_c, 0, 49, 0
2, 375386, Note_on_c, 0, 65, 51
2, 375400, Note_on_c, 0, 44, 0
2, 375404, Note_on_c, 0, 53, 69
2, 375604, Control_c, 0, 64, 0
2, 375656, Note_on_c, 0, 46, 47
2, 375662, Note_on_c, 0, 49, 54
2, 375846, Note_on_c, 0, 53, 0
2, 375902, Note_on_c, 0, 65, 0
2, 375912, Control_c, 0, 64, 127
2, 376118, Note_on_c, 0, 66, 56
2, 376121, Note_on_c, 0, 54, 58
2, 376388, Control_c, 0, 64, 0
2, 376420, Note_on_c, 0, 46, 0
2, 376428, Note_on_c, 0, 44, 46
2, 376634, Control_c, 0, 64, 127
2, 376672, Note_on_c, 0, 49, 0
2, 376716, Note_on_c, 0, 54, 0
2, 376790, Note_on_c, 0, 66, 0
2, 376954, Note_on_c, 0, 65, 49
2, 376968, Note_on_c, 0, 53, 48
2, 377094, Control_c, 0, 64, 0
2, 377218, Note_on_c, 0, 32, 43
2, 377276, Note_on_c, 0, 53, 0
2, 377296, Control_c, 0, 64, 127
2, 377318, Note_on_c, 0, 65, 0
2, 377332, Note_on_c, 0, 32, 0
2, 377364, Note_on_c, 0, 44, 0
2, 377478, Note_on_c, 0, 54, 54
2, 377488, Note_on_c, 0, 66, 37
2, 377494, Control_c, 0, 64, 0
2, 377544, Note_on_c, 0, 54, 0
2, 377564, Note_on_c, 0, 66, 0
2, 377776, Note_on_c, 0, 48, 40
2, 377782, Note_on_c, 0, 44, 40
2, 377784, Note_on_c, 0, 60, 35
2, 377850, Note_on_c, 0, 48, 0
2, 377870, Note_on_c, 0, 44, 0
2, 377932, Note_on_c, 0, 60, 0
2, 378156, Note_on_c, 0, 61, 40
2, 378158, Note_on_c, 0, 49, 29
2, 378168, Note_on_c, 0, 37, 16
2, 378318, Note_on_c, 0, 49, 0
2, 378320, Note_on_c, 0, 37, 0
2, 378354, Control_c, 0, 64, 127
2, 378370, Note_on_c, 0, 61, 0
2, 378400, Control_c, 0, 64, 0
2, 378994, Note_on_c, 0, 73, 39
2, 379006, Note_on_c, 0, 68, 13
2, 379024, Note_on_c, 0, 65, 14
2, 379108, Control_c, 0, 64, 127
2, 379114, Note_on_c, 0, 68, 0
2, 379278, Note_on_c, 0, 65, 0
2, 379326, Note_on_c, 0, 72, 57
2, 379348, Note_on_c, 0, 63, 27
2, 379358, Note_on_c, 0, 73, 0
2, 379358, Note_on_c, 0, 68, 20
2, 379508, Control_c, 0, 64, 0
2, 379738, Control_c, 0, 64, 127
2, 379804, Note_on_c, 0, 68, 0
2, 379814, Note_on_c, 0, 70, 37
2, 379814, Control_c, 0, 64, 0
2, 379824, Note_on_c, 0, 63, 0
2, 379824, Note_on_c, 0, 61, 27
2, 379848, Note_on_c, 0, 67, 11
2, 379874, Note_on_c, 0, 72, 0
2, 379978, Note_on_c, 0, 67, 0
2, 380104, Note_on_c, 0, 61, 0
2, 380106, Note_on_c, 0, 75, 41
2, 380130, Note_on_c, 0, 68, 20
2, 380136, Note_on_c, 0, 70, 0
2, 380156, Note_on_c, 0, 60, 25
2, 380258, Note_on_c, 0, 60, 0
2, 380290, Control_c, 0, 64, 127
2, 380298, Note_on_c, 0, 68, 0
2, 380332, Note_on_c, 0, 75, 0
2, 380336, Control_c, 0, 64, 0
2, 380562, Note_on_c, 0, 58, 25
2, 380564, Note_on_c, 0, 73, 48
2, 380565, Note_on_c, 0, 65, 26
2, 380576, Note_on_c, 0, 49, 36
2, 380634, Note_on_c, 0, 65, 0
2, 380638, Note_on_c, 0, 49, 0
2, 380638, Note_on_c, 0, 58, 0
2, 380668, Note_on_c, 0, 73, 0
2, 380848, Note_on_c, 0, 68, 39
2, 380848, Note_on_c, 0, 72, 55
2, 380856, Note_on_c, 0, 63, 40
2, 380864, Note_on_c, 0, 51, 44
2, 380936, Note_on_c, 0, 63, 0
2, 380942, Note_on_c, 0, 68, 0
2, 381002, Note_on_c, 0, 72, 0
2, 381014, Control_c, 0, 64, 127
2, 381028, Note_on_c, 0, 51, 0
2, 381060, Control_c, 0, 64, 0
2, 381298, Note_on_c, 0, 61, 39
2, 381300, Note_on_c, 0, 70, 44
2, 381300, Note_on_c, 0, 67, 32
2, 381304, Note_on_c, 0, 51, 34
2, 381376, Note_on_c, 0, 67, 0
2, 381380, Note_on_c, 0, 51, 0
2, 381380, Note_on_c, 0, 61, 0
2, 381448, Note_on_c, 0, 70, 0
2, 381592, Note_on_c, 0, 68, 49
2, 381602, Note_on_c, 0, 56, 42
2, 381602, Note_on_c, 0, 60, 39
2, 381680, Note_on_c, 0, 60, 0
2, 381734, Note_on_c, 0, 56, 0
2, 381738, Note_on_c, 0, 68, 0
2, 381766, Control_c, 0, 64, 127
2, 381798, Control_c, 0, 64, 0
2, 382062, Note_on_c, 0, 78, 74
2, 382062, Note_on_c, 0, 70, 41
2, 382072, Note_on_c, 0, 73, 43
2, 382148, Note_on_c, 0, 73, 0
2, 382196, Control_c, 0, 64, 127
2, 382366, Note_on_c, 0, 68, 63
2, 382371, Note_on_c, 0, 77, 87
2, 382388, Note_on_c, 0, 73, 41
2, 382396, Note_on_c, 0, 70, 0
2, 382474, Note_on_c, 0, 78, 0
2, 382550, Control_c, 0, 64, 0
2, 382738, Note_on_c, 0, 73, 0
2, 382796, Control_c, 0, 64, 127
2, 382818, Note_on_c, 0, 75, 73
2, 382830, Note_on_c, 0, 72, 33
2, 382840, Note_on_c, 0, 68, 0
2, 382842, Control_c, 0, 64, 0
2, 382844, Note_on_c, 0, 66, 35
2, 382870, Note_on_c, 0, 77, 0
2, 382936, Note_on_c, 0, 72, 0
2, 383066, Note_on_c, 0, 66, 0
2, 383114, Note_on_c, 0, 80, 71
2, 383117, Note_on_c, 0, 73, 44
2, 383122, Note_on_c, 0, 75, 0
2, 383124, Note_on_c, 0, 65, 35
2, 383206, Note_on_c, 0, 73, 0
2, 383258, Note_on_c, 0, 65, 0
2, 383316, Note_on_c, 0, 80, 0
2, 383318, Control_c, 0, 64, 127
2, 383364, Control_c, 0, 64, 0
2, 383568, Note_on_c, 0, 78, 60
2, 383568, Note_on_c, 0, 63, 62
2, 383570, Note_on_c, 0, 70, 29
2, 383576, Note_on_c, 0, 54, 55
2, 383632, Note_on_c, 0, 54, 0
2, 383634, Note_on_c, 0, 63, 0
2, 383644, Note_on_c, 0, 70, 0
2, 383692, Note_on_c, 0, 78, 0
2, 383848, Note_on_c, 0, 68, 43
2, 383851, Note_on_c, 0, 77, 67
2, 383857, Note_on_c, 0, 56, 32
2, 383864, Note_on_c, 0, 73, 35
2, 383942, Note_on_c, 0, 73, 0
2, 383956, Note_on_c, 0, 56, 0
2, 383974, Note_on_c, 0, 68, 0
2, 384014, Note_on_c, 0, 77, 0
2, 384300, Note_on_c, 0, 75, 50
2, 384300, Note_on_c, 0, 72, 29
2, 384304, Note_on_c, 0, 56, 27
2, 384306, Note_on_c, 0, 66, 29
2, 384376, Note_on_c, 0, 72, 0
2, 384386, Note_on_c, 0, 56, 0
2, 384432, Note_on_c, 0, 66, 0
2, 384440, Note_on_c, 0, 75, 0
2, 384607, Note_on_c, 0, 61, 28
2, 384612, Note_on_c, 0, 73, 33
2, 384614, Note_on_c, 0, 65, 25
2, 384730, Note_on_c, 0, 65, 0
2, 384768, Note_on_c, 0, 61, 0
2, 384778, Note_on_c, 0, 73, 0
2, 384791, Control_c, 0, 64, 127
2, 384854, Control_c, 0, 64, 0
2, 385126, Note_on_c, 0, 73, 55
2, 385129, Note_on_c, 0, 61, 34
2, 385140, Note_on_c, 0, 56, 21
2, 385148, Note_on_c, 0, 53, 65
2, 385242, Note_on_c, 0, 56, 0
2, 385376, Control_c, 0, 64, 127
2, 385394, Note_on_c, 0, 53, 0
2, 385456, Note_on_c, 0, 56, 50
2, 385466, Note_on_c, 0, 51, 36
2, 385606, Note_on_c, 0, 61, 0
2, 385666, Note_on_c, 0, 73, 0
2, 385682, Note_on_c, 0, 72, 74
2, 385684, Control_c, 0, 64, 0
2, 385692, Note_on_c, 0, 60, 65
2, 385814, Note_on_c, 0, 60, 0
2, 385854, Note_on_c, 0, 72, 0
2, 385884, Control_c, 0, 64, 127
2, 385894, Note_on_c, 0, 56, 0
2, 385926, Note_on_c, 0, 70, 77
2, 385940, Note_on_c, 0, 51, 0
2, 385942, Note_on_c, 0, 58, 59
2, 385950, Note_on_c, 0, 55, 41
2, 385950, Note_on_c, 0, 49, 40
2, 385996, Note_on_c, 0, 58, 0
2, 386168, Note_on_c, 0, 49, 0
2, 386174, Note_on_c, 0, 55, 0
2, 386190, Note_on_c, 0, 63, 62
2, 386196, Note_on_c, 0, 60, 48
2, 386206, Control_c, 0, 64, 0
2, 386212, Note_on_c, 0, 48, 42
2, 386392, Note_on_c, 0, 60, 0
2, 386418, Note_on_c, 0, 63, 0
2, 386424, Note_on_c, 0, 75, 82
2, 386434, Note_on_c, 0, 48, 0
2, 386452, Control_c, 0, 64, 127
2, 386462, Note_on_c, 0, 70, 0
2, 386528, Control_c, 0, 64, 0
2, 386542, Note_on_c, 0, 75, 0
2, 386656, Note_on_c, 0, 58, 42
2, 386658, Note_on_c, 0, 73, 67
2, 386666, Note_on_c, 0, 49, 47
2, 386669, Note_on_c, 0, 65, 40
2, 386732, Note_on_c, 0, 65, 0
2, 386736, Note_on_c, 0, 49, 0
2, 386744, Note_on_c, 0, 58, 0
2, 386932, Note_on_c, 0, 68, 46
2, 386932, Note_on_c, 0, 63, 52
2, 386940, Note_on_c, 0, 51, 52
2, 387014, Note_on_c, 0, 68, 0
2, 387056, Note_on_c, 0, 63, 0
2, 387102, Note_on_c, 0, 51, 0
2, 387160, Control_c, 0, 64, 127
2, 387163, Note_on_c, 0, 72, 72
2, 387230, Note_on_c, 0, 73, 0
2, 387252, Control_c, 0, 64, 0
2, 387272, Note_on_c, 0, 72, 0
2, 387420, Note_on_c, 0, 70, 52
2, 387423, Note_on_c, 0, 51, 49
2, 387428, Note_on_c, 0, 67, 33
2, 387432, Note_on_c, 0, 61, 36
2, 387504, Note_on_c, 0, 51, 0
2, 387510, Note_on_c, 0, 61, 0
2, 387520, Note_on_c, 0, 67, 0
2, 387620, Control_c, 0, 64, 127
2, 387686, Note_on_c, 0, 56, 29
2, 387702, Note_on_c, 0, 60, 47
2, 387728, Control_c, 0, 64, 0
2, 387828, Note_on_c, 0, 60, 0
2, 387876, Note_on_c, 0, 56, 0
2, 387948, Note_on_c, 0, 68, 47
2, 387966, Note_on_c, 0, 70, 0
2, 388004, Control_c, 0, 64, 127
2, 388084, Note_on_c, 0, 68, 0
2, 388172, Control_c, 0, 64, 0
2, 388216, Note_on_c, 0, 78, 90
2, 388236, Note_on_c, 0, 61, 33
2, 388236, Note_on_c, 0, 58, 36
2, 388242, Note_on_c, 0, 66, 33
2, 388314, Note_on_c, 0, 61, 0
2, 388420, Control_c, 0, 64, 127
2, 388450, Note_on_c, 0, 58, 0
2, 388506, Note_on_c, 0, 61, 71
2, 388510, Note_on_c, 0, 56, 54
2, 388512, Control_c, 0, 64, 0
2, 388718, Note_on_c, 0, 66, 0
2, 388726, Control_c, 0, 64, 127
2, 388730, Note_on_c, 0, 78, 0
2, 388760, Note_on_c, 0, 77, 94
2, 388768, Note_on_c, 0, 65, 64
2, 388856, Note_on_c, 0, 65, 0
2, 388900, Note_on_c, 0, 61, 0
2, 388906, Note_on_c, 0, 77, 0
2, 388942, Note_on_c, 0, 56, 0
2, 389002, Note_on_c, 0, 75, 95
2, 389004, Note_on_c, 0, 63, 93
2, 389022, Note_on_c, 0, 60, 54
2, 389025, Note_on_c, 0, 54, 58
2, 389042, Note_on_c, 0, 63, 0
2, 389142, Control_c, 0, 64, 0
2, 389200, Note_on_c, 0, 54, 0
2, 389258, Note_on_c, 0, 68, 72
2, 389272, Note_on_c, 0, 65, 62
2, 389276, Note_on_c, 0, 60, 0
2, 389282, Note_on_c, 0, 53, 83
2, 389426, Note_on_c, 0, 65, 0
2, 389440, Note_on_c, 0, 53, 0
2, 389478, Control_c, 0, 64, 127
2, 389508, Note_on_c, 0, 80, 93
2, 389528, Note_on_c, 0, 68, 0
2, 389544, Note_on_c, 0, 75, 0
2, 389646, Note_on_c, 0, 80, 0
2, 389664, Control_c, 0, 64, 0
2, 389746, Note_on_c, 0, 78, 94
2, 389749, Note_on_c, 0, 70, 60
2, 389756, Note_on_c, 0, 63, 69
2, 389758, Note_on_c, 0, 54, 77
2, 389826, Note_on_c, 0, 54, 0
2, 389834, Note_on_c, 0, 70, 0
2, 389840, Note_on_c, 0, 63, 0
2, 390008, Note_on_c, 0, 73, 57
2, 390014, Note_on_c, 0, 68, 63
2, 390034, Note_on_c, 0, 56, 46
2, 390144, Note_on_c, 0, 68, 0
2, 390188, Note_on_c, 0, 56, 0
2, 390216, Control_c, 0, 64, 127
2, 390250, Note_on_c, 0, 77, 83
2, 390270, Note_on_c, 0, 73, 0
2, 390300, Note_on_c, 0, 78, 0
2, 390370, Control_c, 0, 64, 0
2, 390372, Note_on_c, 0, 77, 0
2, 390516, Note_on_c, 0, 75, 59
2, 390530, Note_on_c, 0, 66, 27
2, 390533, Note_on_c, 0, 72, 35
2, 390548, Note_on_c, 0, 56, 25
2, 390656, Note_on_c, 0, 72, 0
2, 390656, Note_on_c, 0, 66, 0
2, 390678, Note_on_c, 0, 56, 0
2, 390822, Note_on_c, 0, 65, 31
2, 390824, Note_on_c, 0, 61, 31
2, 390992, Note_on_c, 0, 65, 0
2, 391016, Note_on_c, 0, 61, 0
2, 391098, Note_on_c, 0, 73, 46
2, 391120, Note_on_c, 0, 75, 0
2, 391276, Control_c, 0, 64, 127
2, 391288, Note_on_c, 0, 73, 0
2, 391394, Note_on_c, 0, 73, 42
2, 391408, Note_on_c, 0, 61, 41
2, 391424, Note_on_c, 0, 65, 34
2, 391486, Note_on_c, 0, 65, 0
2, 391516, Note_on_c, 0, 61, 0
2, 391534, Note_on_c, 0, 73, 0
2, 391700, Note_on_c, 0, 73, 65
2, 391704, Note_on_c, 0, 58, 42
2, 391704, Note_on_c, 0, 65, 44
2, 391846, Control_c, 0, 64, 0
2, 392046, Control_c, 0, 64, 127
2, 392064, Note_on_c, 0, 65, 0
2, 392092, Note_on_c, 0, 73, 0
2, 392162, Note_on_c, 0, 58, 0
2, 392216, Note_on_c, 0, 73, 64
2, 392246, Note_on_c, 0, 65, 31
2, 392249, Note_on_c, 0, 56, 42
2, 392310, Note_on_c, 0, 56, 0
2, 392310, Note_on_c, 0, 65, 0
2, 392338, Note_on_c, 0, 73, 0
2, 392494, Note_on_c, 0, 73, 57
2, 392498, Note_on_c, 0, 55, 43
2, 392502, Note_on_c, 0, 63, 51
2, 392680, Control_c, 0, 64, 0
2, 392730, Note_on_c, 0, 55, 0
2, 392744, Note_on_c, 0, 72, 71
2, 392756, Note_on_c, 0, 73, 0
2, 392764, Note_on_c, 0, 56, 56
2, 392818, Note_on_c, 0, 63, 0
2, 392842, Note_on_c, 0, 56, 0
2, 392878, Note_on_c, 0, 72, 0
2, 392906, Control_c, 0, 64, 127
2, 392980, Note_on_c, 0, 63, 65
2, 392982, Control_c, 0, 64, 0
2, 392994, Note_on_c, 0, 71, 87
2, 393006, Note_on_c, 0, 56, 57
2, 393076, Note_on_c, 0, 63, 0
2, 393092, Note_on_c, 0, 56, 0
2, 393156, Note_on_c, 0, 71, 0
2, 393166, Control_c, 0, 64, 127
2, 393294, Note_on_c, 0, 71, 75
2, 393300, Note_on_c, 0, 56, 42
2, 393304, Note_on_c, 0, 63, 48
2, 393590, Note_on_c, 0, 63, 0
2, 393622, Note_on_c, 0, 71, 0
2, 393646, Note_on_c, 0, 56, 0
2, 393788, Note_on_c, 0, 71, 75
2, 393798, Note_on_c, 0, 54, 54
2, 393798, Note_on_c, 0, 63, 64
2, 393856, Note_on_c, 0, 63, 0
2, 393876, Note_on_c, 0, 54, 0
2, 393918, Note_on_c, 0, 71, 0
2, 394072, Note_on_c, 0, 71, 86
2, 394075, Note_on_c, 0, 61, 60
2, 394092, Note_on_c, 0, 53, 74
2, 394120, Control_c, 0, 64, 0
2, 394320, Note_on_c, 0, 70, 77
2, 394328, Note_on_c, 0, 53, 0
2, 394334, Control_c, 0, 64, 127
2, 394336, Note_on_c, 0, 54, 67
2, 394348, Note_on_c, 0, 71, 0
2, 394382, Note_on_c, 0, 61, 0
2, 394392, Note_on_c, 0, 54, 0
2, 394444, Note_on_c, 0, 70, 0
2, 394520, Control_c, 0, 64, 0
2, 394558, Note_on_c, 0, 70, 78
2, 394566, Note_on_c, 0, 61, 79
2, 394569, Note_on_c, 0, 54, 83
2, 394636, Note_on_c, 0, 61, 0
2, 394718, Control_c, 0, 64, 127
2, 394872, Note_on_c, 0, 72, 98
2, 394872, Note_on_c, 0, 56, 66
2, 394875, Note_on_c, 0, 66, 58
2, 394878, Note_on_c, 0, 54, 0
2, 394888, Note_on_c, 0, 51, 63
2, 394946, Note_on_c, 0, 70, 0
2, 394980, Control_c, 0, 64, 0
2, 395204, Note_on_c, 0, 56, 0
2, 395226, Control_c, 0, 64, 127
2, 395252, Note_on_c, 0, 66, 0
2, 395350, Note_on_c, 0, 73, 93
2, 395370, Note_on_c, 0, 56, 54
2, 395370, Note_on_c, 0, 49, 70
2, 395373, Note_on_c, 0, 65, 55
2, 395396, Note_on_c, 0, 51, 0
2, 395412, Note_on_c, 0, 72, 0
2, 395474, Note_on_c, 0, 65, 0
2, 395522, Note_on_c, 0, 56, 0
2, 395656, Control_c, 0, 64, 0
2, 395714, Note_on_c, 0, 75, 62
2, 395726, Note_on_c, 0, 49, 0
2, 395730, Note_on_c, 0, 73, 0
2, 395734, Note_on_c, 0, 56, 36
2, 395744, Note_on_c, 0, 48, 48
2, 395746, Note_on_c, 0, 66, 24
2, 396012, Note_on_c, 0, 56, 0
2, 396024, Control_c, 0, 64, 127
2, 396038, Note_on_c, 0, 75, 0
2, 396080, Note_on_c, 0, 66, 0
2, 396268, Note_on_c, 0, 66, 57
2, 396282, Note_on_c, 0, 63, 44
2, 396354, Note_on_c, 0, 63, 0
2, 396454, Note_on_c, 0, 63, 16
2, 396562, Control_c, 0, 64, 0
2, 396567, Note_on_c, 0, 56, 21
2, 396592, Note_on_c, 0, 48, 0
2, 396610, Note_on_c, 0, 49, 31
2, 396818, Note_on_c, 0, 63, 0
2, 396842, Note_on_c, 0, 66, 0
2, 396844, Note_on_c, 0, 65, 47
2, 396864, Note_on_c, 0, 61, 32
2, 396946, Note_on_c, 0, 56, 0
2, 396992, Control_c, 0, 64, 127
2, 397004, Note_on_c, 0, 61, 0
2, 397080, Note_on_c, 0, 49, 0
2, 397150, Note_on_c, 0, 70, 35
2, 397153, Note_on_c, 0, 65, 0
2, 397156, Note_on_c, 0, 54, 17
2, 397158, Note_on_c, 0, 58, 23
2, 397176, Note_on_c, 0, 42, 26
2, 397176, Control_c, 0, 64, 0
2, 397248, Note_on_c, 0, 58, 0
2, 397254, Note_on_c, 0, 54, 0
2, 397304, Note_on_c, 0, 70, 0
2, 397320, Note_on_c, 0, 66, 31
2, 397340, Note_on_c, 0, 51, 14
2, 397468, Note_on_c, 0, 51, 0
2, 397536, Note_on_c, 0, 65, 35
2, 397548, Note_on_c, 0, 66, 0
2, 397548, Note_on_c, 0, 44, 36
2, 397554, Note_on_c, 0, 61, 32
2, 397564, Note_on_c, 0, 56, 6
2, 397582, Note_on_c, 0, 42, 0
2, 397798, Note_on_c, 0, 61, 0
2, 397808, Note_on_c, 0, 65, 0
2, 397816, Note_on_c, 0, 63, 44
2, 397832, Note_on_c, 0, 60, 24
2, 397860, Note_on_c, 0, 56, 0
2, 397900, Note_on_c, 0, 63, 0
2, 397906, Note_on_c, 0, 60, 0
2, 397930, Control_c, 0, 64, 127
2, 397956, Note_on_c, 0, 44, 0
2, 398068, Control_c, 0, 64, 0
2, 398073, Note_on_c, 0, 73, 60
2, 398076, Note_on_c, 0, 61, 54
2, 398082, Note_on_c, 0, 56, 40
2, 398088, Note_on_c, 0, 53, 37
2, 398170, Note_on_c, 0, 56, 0
2, 398252, Control_c, 0, 64, 127
2, 398306, Note_on_c, 0, 61, 0
2, 398348, Note_on_c, 0, 73, 0
2, 398360, Note_on_c, 0, 53, 0
2, 398376, Note_on_c, 0, 72, 75
2, 398384, Note_on_c, 0, 60, 67
2, 398384, Note_on_c, 0, 56, 49
2, 398398, Note_on_c, 0, 51, 19
2, 398530, Control_c, 0, 64, 0
2, 398714, Control_c, 0, 64, 127
2, 398724, Note_on_c, 0, 60, 0
2, 398730, Note_on_c, 0, 51, 0
2, 398740, Note_on_c, 0, 56, 0
2, 398744, Note_on_c, 0, 72, 0
2, 398848, Note_on_c, 0, 70, 66
2, 398850, Note_on_c, 0, 58, 60
2, 398858, Note_on_c, 0, 55, 36
2, 398860, Note_on_c, 0, 49, 40
2, 398898, Control_c, 0, 64, 0
2, 398962, Note_on_c, 0, 58, 0
2, 398964, Note_on_c, 0, 49, 0
2, 399022, Control_c, 0, 64, 127
2, 399082, Note_on_c, 0, 70, 0
2, 399124, Note_on_c, 0, 55, 0
2, 399154, Note_on_c, 0, 75, 66
2, 399160, Control_c, 0, 64, 0
2, 399170, Note_on_c, 0, 60, 44
2, 399170, Note_on_c, 0, 48, 28
2, 399178, Note_on_c, 0, 63, 33
2, 399324, Note_on_c, 0, 60, 0
2, 399330, Note_on_c, 0, 48, 0
2, 399352, Note_on_c, 0, 63, 0
2, 399406, Control_c, 0, 64, 127
2, 399436, Note_on_c, 0, 75, 0
2, 399466, Control_c, 0, 64, 0
2, 399620, Note_on_c, 0, 73, 62
2, 399640, Note_on_c, 0, 49, 57
2, 399644, Note_on_c, 0, 58, 32
2, 399646, Note_on_c, 0, 65, 42
2, 399704, Note_on_c, 0, 49, 0
2, 399712, Note_on_c, 0, 65, 0
2, 399720, Note_on_c, 0, 58, 0
2, 399744, Control_c, 0, 64, 127
2, 399928, Control_c, 0, 64, 0
2, 399928, Note_on_c, 0, 68, 48
2, 399931, Note_on_c, 0, 63, 54
2, 399948, Note_on_c, 0, 51, 41
2, 400088, Note_on_c, 0, 63, 0
2, 400124, Note_on_c, 0, 51, 0
2, 400184, Note_on_c, 0, 72, 73
2, 400188, Control_c, 0, 64, 127
2, 400192, Note_on_c, 0, 68, 0
2, 400206, Note_on_c, 0, 73, 0
2, 400290, Note_on_c, 0, 72, 0
2, 400372, Control_c, 0, 64, 0
2, 400438, Note_on_c, 0, 61, 37
2, 400440, Note_on_c, 0, 70, 59
2, 400456, Note_on_c, 0, 51, 36
2, 400459, Note_on_c, 0, 67, 40
2, 400540, Note_on_c, 0, 51, 0
2, 400546, Note_on_c, 0, 61, 0
2, 400578, Note_on_c, 0, 67, 0
2, 400634, Control_c, 0, 64, 127
2, 400720, Note_on_c, 0, 56, 37
2, 400723, Note_on_c, 0, 60, 50
2, 400726, Control_c, 0, 64, 0
2, 400820, Note_on_c, 0, 60, 0
2, 400884, Note_on_c, 0, 56, 0
2, 400950, Note_on_c, 0, 68, 59
2, 400958, Control_c, 0, 64, 127
2, 400966, Note_on_c, 0, 70, 0
2, 401062, Note_on_c, 0, 68, 0
2, 401172, Control_c, 0, 64, 0
2, 401206, Note_on_c, 0, 78, 92
2, 401212, Note_on_c, 0, 66, 54
2, 401220, Note_on_c, 0, 61, 48
2, 401234, Note_on_c, 0, 58, 33
2, 401328, Note_on_c, 0, 61, 0
2, 401388, Control_c, 0, 64, 127
2, 401458, Note_on_c, 0, 66, 0
2, 401474, Note_on_c, 0, 78, 0
2, 401490, Note_on_c, 0, 77, 93
2, 401502, Note_on_c, 0, 61, 52
2, 401510, Note_on_c, 0, 65, 70
2, 401512, Note_on_c, 0, 58, 0
2, 401514, Note_on_c, 0, 56, 41
2, 401632, Control_c, 0, 64, 0
2, 401826, Note_on_c, 0, 65, 0
2, 401832, Control_c, 0, 64, 127
2, 401834, Note_on_c, 0, 77, 0
2, 401906, Note_on_c, 0, 61, 0
2, 401932, Note_on_c, 0, 56, 0
2, 401972, Note_on_c, 0, 63, 74
2, 401975, Note_on_c, 0, 75, 86
2, 401990, Note_on_c, 0, 60, 51
2, 401996, Note_on_c, 0, 54, 43
2, 402016, Control_c, 0, 64, 0
2, 402080, Note_on_c, 0, 63, 0
2, 402172, Control_c, 0, 64, 127
2, 402210, Note_on_c, 0, 75, 0
2, 402236, Note_on_c, 0, 60, 0
2, 402254, Note_on_c, 0, 54, 0
2, 402278, Note_on_c, 0, 80, 93
2, 402286, Note_on_c, 0, 68, 67
2, 402298, Note_on_c, 0, 61, 55
2, 402310, Control_c, 0, 64, 0
2, 402318, Note_on_c, 0, 53, 69
2, 402430, Note_on_c, 0, 61, 0
2, 402456, Note_on_c, 0, 53, 0
2, 402508, Control_c, 0, 64, 127
2, 402540, Note_on_c, 0, 68, 0
2, 402556, Note_on_c, 0, 80, 0
2, 402602, Control_c, 0, 64, 0
2, 402754, Note_on_c, 0, 78, 101
2, 402756, Note_on_c, 0, 66, 71
2, 402756, Note_on_c, 0, 58, 67
2, 402758, Note_on_c, 0, 61, 60
2, 402842, Note_on_c, 0, 61, 0
2, 402846, Control_c, 0, 64, 127
2, 403078, Control_c, 0, 64, 0
2, 403078, Note_on_c, 0, 61, 78
2, 403084, Note_on_c, 0, 56, 77
2, 403086, Note_on_c, 0, 58, 0
2, 403271, Note_on_c, 0, 66, 0
2, 403276, Control_c, 0, 64, 127
2, 403278, Note_on_c, 0, 78, 0
2, 403312, Note_on_c, 0, 77, 95
2, 403318, Note_on_c, 0, 65, 75
2, 403388, Note_on_c, 0, 56, 0
2, 403402, Note_on_c, 0, 61, 0
2, 403412, Note_on_c, 0, 65, 0
2, 403440, Note_on_c, 0, 77, 0
2, 403538, Control_c, 0, 64, 0
2, 403546, Note_on_c, 0, 54, 78
2, 403550, Note_on_c, 0, 75, 97
2, 403556, Note_on_c, 0, 63, 95
2, 403559, Note_on_c, 0, 60, 69
2, 403662, Note_on_c, 0, 63, 0
2, 403692, Note_on_c, 0, 60, 0
2, 403692, Control_c, 0, 64, 127
2, 403774, Note_on_c, 0, 75, 0
2, 403830, Control_c, 0, 64, 0
2, 403838, Note_on_c, 0, 80, 104
2, 403842, Note_on_c, 0, 68, 83
2, 403848, Note_on_c, 0, 61, 77
2, 403852, Note_on_c, 0, 54, 0
2, 403852, Note_on_c, 0, 53, 101
2, 404006, Note_on_c, 0, 61, 0
2, 404030, Note_on_c, 0, 53, 0
2, 404030, Control_c, 0, 64, 127
2, 404116, Note_on_c, 0, 80, 0
2, 404124, Note_on_c, 0, 68, 0
2, 404168, Control_c, 0, 64, 0
2, 404316, Note_on_c, 0, 78, 110
2, 404320, Note_on_c, 0, 58, 73
2, 404324, Note_on_c, 0, 61, 78
2, 404324, Note_on_c, 0, 66, 83
2, 404414, Control_c, 0, 64, 127
2, 404454, Note_on_c, 0, 61, 0
2, 404622, Note_on_c, 0, 61, 93
2, 404628, Note_on_c, 0, 56, 80
2, 404644, Note_on_c, 0, 58, 0
2, 404660, Control_c, 0, 64, 0
2, 404828, Note_on_c, 0, 78, 0
2, 404831, Note_on_c, 0, 66, 0
2, 404844, Control_c, 0, 64, 127
2, 404880, Note_on_c, 0, 77, 104
2, 404886, Note_on_c, 0, 65, 85
2, 404902, Note_on_c, 0, 61, 0
2, 404910, Note_on_c, 0, 56, 0
2, 404926, Note_on_c, 0, 65, 0
2, 404984, Note_on_c, 0, 77, 0
2, 405198, Control_c, 0, 64, 0
2, 405212, Note_on_c, 0, 70, 87
2, 405212, Note_on_c, 0, 82, 105
2, 405214, Note_on_c, 0, 64, 89
2, 405214, Note_on_c, 0, 55, 63
2, 405214, Note_on_c, 0, 61, 69
2, 405396, Note_on_c, 0, 61, 0
2, 405428, Control_c, 0, 64, 127
2, 405464, Note_on_c, 0, 64, 0
2, 405596, Note_on_c, 0, 55, 0
2, 405608, Note_on_c, 0, 56, 49
2, 405610, Note_on_c, 0, 61, 43
2, 405612, Note_on_c, 0, 65, 54
2, 405852, Note_on_c, 0, 70, 0
2, 405934, Note_on_c, 0, 80, 83
2, 405934, Control_c, 0, 64, 0
2, 405946, Note_on_c, 0, 68, 49
2, 406012, Note_on_c, 0, 82, 0
2, 406190, Note_on_c, 0, 65, 0
2, 406202, Note_on_c, 0, 61, 0
2, 406242, Control_c, 0, 64, 127
2, 406250, Note_on_c, 0, 80, 0
2, 406266, Note_on_c, 0, 56, 0
2, 406292, Note_on_c, 0, 68, 0
2, 406366, Control_c, 0, 64, 0
2, 407078, Note_on_c, 0, 60, 46
2, 407078, Note_on_c, 0, 54, 37
2, 407078, Note_on_c, 0, 44, 36
2, 407078, Note_on_c, 0, 32, 19
2, 407824, Control_c, 0, 64, 127
2, 408050, Note_on_c, 0, 60, 0
2, 408055, Note_on_c, 0, 63, 37
2, 408154, Note_on_c, 0, 32, 0
2, 408234, Note_on_c, 0, 63, 0
2, 408242, Note_on_c, 0, 61, 44
2, 408312, Note_on_c, 0, 54, 0
2, 408314, Note_on_c, 0, 61, 0
2, 408492, Note_on_c, 0, 61, 42
2, 408496, Note_on_c, 0, 53, 37
2, 408504, Note_on_c, 0, 37, 24
2, 408532, Control_c, 0, 64, 0
2, 408964, Note_on_c, 0, 44, 0
2, 409078, Note_on_c, 0, 53, 0
2, 409136, Note_on_c, 0, 61, 0
2, 409144, Note_on_c, 0, 37, 0
2, 410880, Control_c, 0, 64, 0
2, 412800, Control_c, 0, 64, 0
2, 416640, Note_on_c, 0, 37, 66
2, 416684, Note_on_c, 0, 37, 0
2, 416718, Note_on_c, 0, 44, 80
2, 416776, Note_on_c, 0, 44, 0
2, 416822, Note_on_c, 0, 49, 81
2, 416844, Note_on_c, 0, 44, 58
2, 416888, Note_on_c, 0, 49, 0
2, 416894, Note_on_c, 0, 44, 0
2, 416906, Note_on_c, 0, 52, 65
2, 416962, Note_on_c, 0, 52, 0
2, 416962, Note_on_c, 0, 56, 69
2, 416984, Note_on_c, 0, 37, 73
2, 417012, Note_on_c, 0, 56, 0
2, 417032, Note_on_c, 0, 37, 0
2, 417040, Note_on_c, 0, 49, 86
2, 417124, Note_on_c, 0, 52, 86
2, 417127, Note_on_c, 0, 49, 0
2, 417136, Note_on_c, 0, 44, 58
2, 417194, Note_on_c, 0, 44, 0
2, 417216, Note_on_c, 0, 56, 67
2, 417248, Note_on_c, 0, 52, 0
2, 417296, Note_on_c, 0, 61, 71
2, 417318, Note_on_c, 0, 37, 59
2, 417342, Note_on_c, 0, 61, 0
2, 417342, Note_on_c, 0, 56, 0
2, 417368, Note_on_c, 0, 37, 0
2, 417390, Note_on_c, 0, 52, 78
2, 417406, Control_c, 0, 64, 127
2, 417438, Note_on_c, 0, 52, 0
2, 417452, Control_c, 0, 64, 0
2, 417460, Note_on_c, 0, 44, 54
2, 417463, Note_on_c, 0, 56, 69
2, 417518, Note_on_c, 0, 44, 0
2, 417530, Note_on_c, 0, 56, 0
2, 417533, Note_on_c, 0, 61, 71
2, 417624, Note_on_c, 0, 64, 86
2, 417642, Note_on_c, 0, 37, 54
2, 417664, Note_on_c, 0, 64, 0
2, 417672, Note_on_c, 0, 61, 0
2, 417696, Note_on_c, 0, 37, 0
2, 417706, Note_on_c, 0, 56, 79
2, 417780, Note_on_c, 0, 61, 48
2, 417783, Note_on_c, 0, 44, 52
2, 417800, Note_on_c, 0, 56, 0
2, 417850, Note_on_c, 0, 44, 0
2, 417850, Note_on_c, 0, 64, 65
2, 417904, Note_on_c, 0, 61, 0
2, 417944, Note_on_c, 0, 68, 73
2, 417966, Note_on_c, 0, 64, 0
2, 417996, Note_on_c, 0, 37, 40
2, 418004, Note_on_c, 0, 68, 0
2, 418019, Note_on_c, 0, 61, 63
2, 418054, Note_on_c, 0, 37, 0
2, 418116, Note_on_c, 0, 64, 83
2, 418122, Note_on_c, 0, 61, 0
2, 418134, Note_on_c, 0, 44, 39
2, 418192, Note_on_c, 0, 68, 66
2, 418202, Note_on_c, 0, 44, 0
2, 418222, Note_on_c, 0, 64, 0
2, 418268, Note_on_c, 0, 73, 80
2, 418292, Note_on_c, 0, 37, 52
2, 418310, Note_on_c, 0, 68, 0
2, 418328, Note_on_c, 0, 73, 0
2, 418342, Note_on_c, 0, 37, 0
2, 418370, Note_on_c, 0, 64, 80
2, 418428, Note_on_c, 0, 64, 0
2, 418430, Note_on_c, 0, 68, 74
2, 418448, Note_on_c, 0, 44, 54
2, 418514, Note_on_c, 0, 73, 79
2, 418520, Note_on_c, 0, 44, 0
2, 418544, Note_on_c, 0, 68, 0
2, 418600, Note_on_c, 0, 76, 81
2, 418608, Note_on_c, 0, 37, 64
2, 418646, Note_on_c, 0, 73, 0
2, 418666, Note_on_c, 0, 76, 0
2, 418668, Note_on_c, 0, 37, 0
2, 418690, Note_on_c, 0, 68, 63
2, 418712, Control_c, 0, 64, 127
2, 418756, Note_on_c, 0, 73, 52
2, 418759, Note_on_c, 0, 68, 0
2, 418766, Note_on_c, 0, 44, 69
2, 418814, Note_on_c, 0, 44, 0
2, 418814, Note_on_c, 0, 76, 72
2, 418820, Control_c, 0, 64, 0
2, 418872, Note_on_c, 0, 73, 0
2, 418875, Note_on_c, 0, 76, 0
2, 418928, Note_on_c, 0, 76, 115
2, 418930, Note_on_c, 0, 73, 102
2, 418930, Note_on_c, 0, 68, 116
2, 418932, Note_on_c, 0, 80, 118
2, 418938, Note_on_c, 0, 49, 109
2, 418946, Note_on_c, 0, 37, 90
2, 419036, Note_on_c, 0, 49, 0
2, 419040, Note_on_c, 0, 68, 0
2, 419042, Note_on_c, 0, 80, 0
2, 419050, Control_c, 0, 64, 127
2, 419058, Note_on_c, 0, 76, 0
2, 419060, Note_on_c, 0, 37, 0
2, 419064, Note_on_c, 0, 73, 0
2, 419104, Note_on_c, 0, 80, 93
2, 419107, Note_on_c, 0, 68, 85
2, 419112, Note_on_c, 0, 76, 105
2, 419116, Note_on_c, 0, 73, 90
2, 419144, Note_on_c, 0, 44, 75
2, 419152, Note_on_c, 0, 76, 0
2, 419166, Note_on_c, 0, 73, 0
2, 419174, Note_on_c, 0, 80, 0
2, 419192, Note_on_c, 0, 44, 0
2, 419208, Note_on_c, 0, 68, 0
2, 419282, Control_c, 0, 64, 0
2, 419356, Note_on_c, 0, 36, 111
2, 419446, Note_on_c, 0, 36, 0
2, 419446, Note_on_c, 0, 44, 104
2, 419546, Note_on_c, 0, 48, 82
2, 419626, Note_on_c, 0, 44, 0
2, 419634, Note_on_c, 0, 51, 87
2, 419656, Note_on_c, 0, 48, 0
2, 419722, Note_on_c, 0, 56, 86
2, 419730, Note_on_c, 0, 36, 81
2, 419776, Note_on_c, 0, 51, 0
2, 419784, Note_on_c, 0, 36, 0
2, 419796, Note_on_c, 0, 56, 0
2, 419816, Note_on_c, 0, 48, 72
2, 419886, Note_on_c, 0, 44, 65
2, 419894, Note_on_c, 0, 51, 74
2, 419904, Note_on_c, 0, 48, 0
2, 419958, Note_on_c, 0, 44, 0
2, 419970, Note_on_c, 0, 56, 67
2, 420010, Note_on_c, 0, 51, 0
2, 420052, Note_on_c, 0, 60, 81
2, 420078, Note_on_c, 0, 36, 67
2, 420122, Note_on_c, 0, 56, 0
2, 420130, Note_on_c, 0, 60, 0
2, 420133, Note_on_c, 0, 36, 0
2, 420152, Note_on_c, 0, 51, 85
2, 420208, Note_on_c, 0, 51, 0
2, 420230, Note_on_c, 0, 56, 60
2, 420232, Note_on_c, 0, 44, 58
2, 420302, Note_on_c, 0, 44, 0
2, 420302, Note_on_c, 0, 60, 82
2, 420332, Note_on_c, 0, 56, 0
2, 420392, Note_on_c, 0, 63, 87
2, 420416, Note_on_c, 0, 36, 57
2, 420438, Note_on_c, 0, 60, 0
2, 420470, Note_on_c, 0, 36, 0
2, 420476, Note_on_c, 0, 56, 86
2, 420508, Note_on_c, 0, 63, 0
2, 420566, Note_on_c, 0, 44, 63
2, 420569, Note_on_c, 0, 60, 75
2, 420596, Note_on_c, 0, 56, 0
2, 420628, Note_on_c, 0, 44, 0
2, 420662, Note_on_c, 0, 63, 89
2, 420678, Control_c, 0, 64, 127
2, 420690, Note_on_c, 0, 60, 0
2, 420710, Control_c, 0, 64, 0
2, 420748, Note_on_c, 0, 36, 64
2, 420748, Note_on_c, 0, 68, 82
2, 420770, Note_on_c, 0, 63, 0
2, 420800, Note_on_c, 0, 36, 0
2, 420812, Note_on_c, 0, 68, 0
2, 420842, Note_on_c, 0, 60, 79
2, 420912, Note_on_c, 0, 63, 95
2, 420918, Note_on_c, 0, 44, 62
2, 420920, Note_on_c, 0, 60, 0
2, 420976, Note_on_c, 0, 44, 0
2, 421006, Note_on_c, 0, 68, 57
2, 421032, Note_on_c, 0, 63, 0
2, 421082, Note_on_c, 0, 36, 50
2, 421090, Note_on_c, 0, 72, 55
2, 421104, Note_on_c, 0, 68, 0
2, 421140, Note_on_c, 0, 36, 0
2, 421146, Note_on_c, 0, 72, 0
2, 421152, Note_on_c, 0, 63, 94
2, 421236, Note_on_c, 0, 68, 73
2, 421236, Note_on_c, 0, 44, 64
2, 421256, Note_on_c, 0, 63, 0
2, 421296, Note_on_c, 0, 44, 0
2, 421304, Note_on_c, 0, 72, 79
2, 421356, Note_on_c, 0, 68, 0
2, 421396, Note_on_c, 0, 75, 88
2, 421404, Note_on_c, 0, 36, 63
2, 421418, Note_on_c, 0, 72, 0
2, 421460, Note_on_c, 0, 68, 63
2, 421468, Note_on_c, 0, 36, 0
2, 421468, Note_on_c, 0, 75, 0
2, 421544, Note_on_c, 0, 72, 86
2, 421568, Note_on_c, 0, 44, 67
2, 421584, Note_on_c, 0, 68, 0
2, 421618, Note_on_c, 0, 44, 0
2, 421620, Note_on_c, 0, 75, 79
2, 421654, Note_on_c, 0, 72, 0
2, 421658, Note_on_c, 0, 75, 0
2, 421700, Note_on_c, 0, 75, 100
2, 421700, Note_on_c, 0, 80, 123
2, 421703, Note_on_c, 0, 72, 115
2, 421703, Note_on_c, 0, 68, 117
2, 421716, Note_on_c, 0, 48, 102
2, 421726, Note_on_c, 0, 36, 100
2, 421784, Note_on_c, 0, 36, 0
2, 421816, Control_c, 0, 64, 127
2, 421818, Note_on_c, 0, 80, 0
2, 421826, Note_on_c, 0, 68, 0
2, 421834, Note_on_c, 0, 48, 0
2, 421838, Note_on_c, 0, 75, 0
2, 421852, Note_on_c, 0, 72, 0
2, 421888, Note_on_c, 0, 75, 100
2, 421890, Note_on_c, 0, 80, 67
2, 421900, Note_on_c, 0, 68, 87
2, 421902, Note_on_c, 0, 72, 74
2, 421908, Note_on_c, 0, 44, 90
2, 421949, Note_on_c, 0, 44, 0
2, 421958, Note_on_c, 0, 75, 0
2, 421964, Note_on_c, 0, 80, 0
2, 421976, Note_on_c, 0, 72, 0
2, 421996, Note_on_c, 0, 68, 0
2, 422062, Control_c, 0, 64, 0
2, 422089, Note_on_c, 0, 35, 113
2, 422158, Note_on_c, 0, 35, 0
2, 422158, Note_on_c, 0, 49, 104
2, 422252, Note_on_c, 0, 44, 78
2, 422266, Note_on_c, 0, 53, 103
2, 422288, Note_on_c, 0, 49, 0
2, 422308, Note_on_c, 0, 44, 0
2, 422338, Note_on_c, 0, 56, 86
2, 422372, Note_on_c, 0, 53, 0
2, 422426, Note_on_c, 0, 35, 93
2, 422436, Note_on_c, 0, 61, 87
2, 422470, Note_on_c, 0, 35, 0
2, 422473, Note_on_c, 0, 56, 0
2, 422488, Note_on_c, 0, 61, 0
2, 422518, Note_on_c, 0, 53, 117
2, 422582, Note_on_c, 0, 44, 73
2, 422594, Note_on_c, 0, 56, 77
2, 422616, Note_on_c, 0, 53, 0
2, 422650, Note_on_c, 0, 44, 0
2, 422666, Note_on_c, 0, 61, 82
2, 422676, Control_c, 0, 64, 127
2, 422702, Note_on_c, 0, 56, 0
2, 422722, Control_c, 0, 64, 0
2, 422764, Note_on_c, 0, 65, 79
2, 422767, Note_on_c, 0, 35, 85
2, 422810, Note_on_c, 0, 35, 0
2, 422810, Note_on_c, 0, 61, 0
2, 422826, Note_on_c, 0, 65, 0
2, 422842, Note_on_c, 0, 56, 93
2, 422846, Control_c, 0, 64, 127
2, 422908, Control_c, 0, 64, 0
2, 422922, Note_on_c, 0, 44, 71
2, 422924, Note_on_c, 0, 61, 77
2, 422958, Note_on_c, 0, 56, 0
2, 422996, Note_on_c, 0, 65, 83
2, 423000, Note_on_c, 0, 44, 0
2, 423060, Control_c, 0, 64, 127
2, 423066, Note_on_c, 0, 61, 0
2, 423098, Note_on_c, 0, 68, 93
2, 423118, Note_on_c, 0, 35, 78
2, 423138, Control_c, 0, 64, 0
2, 423144, Note_on_c, 0, 65, 0
2, 423160, Note_on_c, 0, 35, 0
2, 423176, Note_on_c, 0, 61, 79
2, 423202, Note_on_c, 0, 68, 0
2, 423260, Note_on_c, 0, 44, 71
2, 423260, Control_c, 0, 64, 127
2, 423274, Note_on_c, 0, 65, 81
2, 423300, Note_on_c, 0, 61, 0
2, 423322, Control_c, 0, 64, 0
2, 423332, Note_on_c, 0, 44, 0
2, 423346, Note_on_c, 0, 68, 82
2, 423408, Note_on_c, 0, 65, 0
2, 423438, Note_on_c, 0, 73, 93
2, 423456, Note_on_c, 0, 35, 72
2, 423484, Note_on_c, 0, 68, 0
2, 423500, Control_c, 0, 64, 127
2, 423502, Note_on_c, 0, 35, 0
2, 423522, Note_on_c, 0, 65, 83
2, 423542, Note_on_c, 0, 73, 0
2, 423552, Control_c, 0, 64, 0
2, 423592, Note_on_c, 0, 68, 71
2, 423597, Note_on_c, 0, 44, 69
2, 423636, Note_on_c, 0, 65, 0
2, 423682, Note_on_c, 0, 73, 87
2, 423684, Note_on_c, 0, 44, 0
2, 423706, Control_c, 0, 64, 127
2, 423734, Note_on_c, 0, 68, 0
2, 423737, Control_c, 0, 64, 0
2, 423770, Note_on_c, 0, 77, 90
2, 423780, Note_on_c, 0, 35, 79
2, 423806, Note_on_c, 0, 73, 0
2, 423816, Note_on_c, 0, 77, 0
2, 423826, Note_on_c, 0, 35, 0
2, 423842, Note_on_c, 0, 68, 93
2, 423906, Control_c, 0, 64, 127
2, 423924, Note_on_c, 0, 73, 79
2, 423944, Note_on_c, 0, 44, 66
2, 423964, Note_on_c, 0, 68, 0
2, 423988, Note_on_c, 0, 77, 89
2, 423998, Control_c, 0, 64, 0
2, 424006, Note_on_c, 0, 44, 0
2, 424066, Note_on_c, 0, 73, 0
2, 424080, Note_on_c, 0, 80, 103
2, 424092, Note_on_c, 0, 35, 90
2, 424120, Note_on_c, 0, 77, 0
2, 424148, Note_on_c, 0, 73, 74
2, 424162, Note_on_c, 0, 35, 0
2, 424166, Note_on_c, 0, 80, 0
2, 424168, Control_c, 0, 64, 127
2, 424214, Control_c, 0, 64, 0
2, 424250, Note_on_c, 0, 77, 78
2, 424253, Note_on_c, 0, 44, 82
2, 424296, Note_on_c, 0, 73, 0
2, 424308, Note_on_c, 0, 44, 0
2, 424310, Note_on_c, 0, 80, 93
2, 424336, Control_c, 0, 64, 127
2, 424348, Note_on_c, 0, 80, 0
2, 424366, Control_c, 0, 64, 0
2, 424376, Note_on_c, 0, 77, 0
2, 424418, Note_on_c, 0, 47, 111
2, 424420, Note_on_c, 0, 80, 87
2, 424420, Note_on_c, 0, 85, 124
2, 424422, Note_on_c, 0, 73, 121
2, 424424, Note_on_c, 0, 77, 120
2, 424430, Note_on_c, 0, 35, 112
2, 424486, Note_on_c, 0, 35, 0
2, 424552, Note_on_c, 0, 85, 0
2, 424560, Note_on_c, 0, 77, 0
2, 424564, Note_on_c, 0, 73, 0
2, 424574, Note_on_c, 0, 80, 0
2, 424574, Control_c, 0, 64, 127
2, 424577, Note_on_c, 0, 47, 0
2, 424620, Note_on_c, 0, 77, 100
2, 424624, Note_on_c, 0, 73, 75
2, 424628, Note_on_c, 0, 80, 101
2, 424628, Note_on_c, 0, 85, 89
2, 424642, Note_on_c, 0, 44, 90
2, 424684, Note_on_c, 0, 44, 0
2, 424694, Note_on_c, 0, 85, 0
2, 424696, Note_on_c, 0, 80, 0
2, 424696, Note_on_c, 0, 77, 0
2, 424730, Note_on_c, 0, 73, 0
2, 424796, Control_c, 0, 64, 0
2, 424846, Note_on_c, 0, 33, 105
2, 424936, Note_on_c, 0, 49, 94
2, 424960, Note_on_c, 0, 33, 0
2, 425020, Note_on_c, 0, 45, 72
2, 425030, Note_on_c, 0, 54, 101
2, 425042, Note_on_c, 0, 49, 0
2, 425110, Note_on_c, 0, 57, 58
2, 425130, Note_on_c, 0, 45, 0
2, 425142, Note_on_c, 0, 54, 0
2, 425182, Note_on_c, 0, 61, 93
2, 425185, Note_on_c, 0, 33, 78
2, 425196, Control_c, 0, 64, 127
2, 425198, Note_on_c, 0, 57, 0
2, 425218, Note_on_c, 0, 61, 0
2, 425266, Note_on_c, 0, 61, 88
2, 425272, Note_on_c, 0, 33, 0
2, 425272, Control_c, 0, 64, 0
2, 425361, Note_on_c, 0, 45, 58
2, 425378, Note_on_c, 0, 66, 74
2, 425394, Note_on_c, 0, 61, 0
2, 425412, Control_c, 0, 64, 127
2, 425468, Note_on_c, 0, 69, 50
2, 425472, Note_on_c, 0, 45, 0
2, 425472, Control_c, 0, 64, 0
2, 425522, Note_on_c, 0, 73, 89
2, 425526, Note_on_c, 0, 66, 0
2, 425530, Note_on_c, 0, 69, 0
2, 425530, Note_on_c, 0, 33, 77
2, 425560, Note_on_c, 0, 73, 0
2, 425590, Note_on_c, 0, 33, 0
2, 425596, Control_c, 0, 64, 127
2, 425612, Note_on_c, 0, 73, 83
2, 425710, Note_on_c, 0, 78, 75
2, 425730, Note_on_c, 0, 45, 58
2, 425744, Note_on_c, 0, 73, 0
2, 425794, Note_on_c, 0, 45, 0
2, 425794, Note_on_c, 0, 78, 0
2, 425816, Note_on_c, 0, 81, 60
2, 425842, Control_c, 0, 64, 0
2, 425864, Note_on_c, 0, 81, 0
2, 425890, Note_on_c, 0, 33, 105
2, 425892, Note_on_c, 0, 85, 118
2, 425896, Note_on_c, 0, 78, 105
2, 425906, Note_on_c, 0, 73, 120
2, 426014, Note_on_c, 0, 33, 0
2, 426016, Note_on_c, 0, 78, 0
2, 426018, Note_on_c, 0, 85, 0
2, 426040, Control_c, 0, 64, 127
2, 426042, Note_on_c, 0, 73, 0
2, 426082, Note_on_c, 0, 85, 105
2, 426086, Note_on_c, 0, 78, 75
2, 426086, Note_on_c, 0, 73, 103
2, 426092, Note_on_c, 0, 45, 62
2, 426144, Note_on_c, 0, 85, 0
2, 426156, Note_on_c, 0, 78, 0
2, 426160, Note_on_c, 0, 73, 0
2, 426180, Note_on_c, 0, 45, 0
2, 426210, Control_c, 0, 64, 0
2, 426286, Note_on_c, 0, 33, 108
2, 426362, Note_on_c, 0, 49, 101
2, 426406, Note_on_c, 0, 33, 0
2, 426420, Control_c, 0, 64, 127
2, 426450, Note_on_c, 0, 52, 105
2, 426472, Control_c, 0, 64, 0
2, 426472, Note_on_c, 0, 45, 62
2, 426475, Note_on_c, 0, 49, 0
2, 426542, Note_on_c, 0, 55, 95
2, 426556, Note_on_c, 0, 45, 0
2, 426578, Note_on_c, 0, 52, 0
2, 426616, Note_on_c, 0, 61, 93
2, 426632, Note_on_c, 0, 33, 77
2, 426646, Note_on_c, 0, 55, 0
2, 426654, Note_on_c, 0, 61, 0
2, 426656, Control_c, 0, 64, 127
2, 426702, Note_on_c, 0, 61, 83
2, 426716, Note_on_c, 0, 33, 0
2, 426733, Control_c, 0, 64, 0
2, 426790, Note_on_c, 0, 64, 100
2, 426798, Note_on_c, 0, 45, 62
2, 426818, Note_on_c, 0, 61, 0
2, 426878, Note_on_c, 0, 67, 90
2, 426886, Control_c, 0, 64, 127
2, 426904, Note_on_c, 0, 64, 0
2, 426914, Note_on_c, 0, 45, 0
2, 426948, Control_c, 0, 64, 0
2, 426958, Note_on_c, 0, 33, 89
2, 426966, Note_on_c, 0, 73, 98
2, 426989, Note_on_c, 0, 67, 0
2, 426998, Note_on_c, 0, 73, 0
2, 427034, Note_on_c, 0, 33, 0
2, 427054, Note_on_c, 0, 73, 67
2, 427118, Control_c, 0, 64, 127
2, 427142, Note_on_c, 0, 76, 85
2, 427150, Note_on_c, 0, 45, 62
2, 427164, Control_c, 0, 64, 0
2, 427178, Note_on_c, 0, 73, 0
2, 427206, Note_on_c, 0, 45, 0
2, 427216, Note_on_c, 0, 79, 89
2, 427230, Note_on_c, 0, 76, 0
2, 427256, Note_on_c, 0, 79, 0
2, 427326, Note_on_c, 0, 79, 86
2, 427326, Note_on_c, 0, 73, 126
2, 427329, Note_on_c, 0, 85, 123
2, 427329, Note_on_c, 0, 33, 118
2, 427336, Note_on_c, 0, 45, 111
2, 427390, Note_on_c, 0, 33, 0
2, 427414, Note_on_c, 0, 45, 0
2, 427458, Note_on_c, 0, 79, 0
2, 427458, Note_on_c, 0, 73, 0
2, 427468, Note_on_c, 0, 85, 0
2, 427548, Note_on_c, 0, 85, 97
2, 427548, Control_c, 0, 64, 127
2, 427551, Note_on_c, 0, 73, 104
2, 427551, Note_on_c, 0, 79, 102
2, 427558, Note_on_c, 0, 45, 100
2, 427564, Note_on_c, 0, 33, 101
2, 427594, Note_on_c, 0, 45, 0
2, 427594, Control_c, 0, 64, 0
2, 427600, Note_on_c, 0, 33, 0
2, 427676, Note_on_c, 0, 73, 0
2, 427698, Note_on_c, 0, 85, 0
2, 427701, Note_on_c, 0, 79, 0
2, 427796, Note_on_c, 0, 72, 127
2, 427796, Note_on_c, 0, 84, 127
2, 427799, Note_on_c, 0, 80, 106
2, 427806, Note_on_c, 0, 44, 124
2, 427810, Note_on_c, 0, 32, 104
2, 427840, Note_on_c, 0, 32, 0
2, 427854, Control_c, 0, 64, 127
2, 427876, Note_on_c, 0, 44, 0
2, 427898, Note_on_c, 0, 72, 0
2, 427906, Note_on_c, 0, 84, 0
2, 427914, Note_on_c, 0, 80, 0
2, 428126, Note_on_c, 0, 56, 88
2, 428138, Note_on_c, 0, 60, 70
2, 428141, Note_on_c, 0, 68, 85
2, 428222, Note_on_c, 0, 60, 0
2, 428234, Note_on_c, 0, 80, 81
2, 428237, Note_on_c, 0, 68, 0
2, 428342, Note_on_c, 0, 80, 0
2, 428345, Note_on_c, 0, 68, 79
2, 428348, Note_on_c, 0, 60, 81
2, 428362, Control_c, 0, 64, 0
2, 428424, Note_on_c, 0, 68, 0
2, 428427, Note_on_c, 0, 80, 59
2, 428518, Note_on_c, 0, 61, 79
2, 428521, Note_on_c, 0, 70, 71
2, 428530, Note_on_c, 0, 60, 0
2, 428546, Note_on_c, 0, 80, 0
2, 428592, Control_c, 0, 64, 127
2, 428614, Note_on_c, 0, 80, 71
2, 428638, Note_on_c, 0, 70, 0
2, 428722, Note_on_c, 0, 72, 78
2, 428724, Note_on_c, 0, 63, 82
2, 428726, Note_on_c, 0, 80, 0
2, 428730, Control_c, 0, 64, 0
2, 428784, Note_on_c, 0, 61, 0
2, 428810, Note_on_c, 0, 80, 63
2, 428842, Note_on_c, 0, 72, 0
2, 428900, Note_on_c, 0, 64, 82
2, 428904, Note_on_c, 0, 63, 0
2, 428914, Control_c, 0, 64, 127
2, 428916, Note_on_c, 0, 73, 77
2, 428922, Note_on_c, 0, 80, 0
2, 429000, Note_on_c, 0, 80, 70
2, 429046, Note_on_c, 0, 73, 0
2, 429100, Note_on_c, 0, 66, 72
2, 429100, Control_c, 0, 64, 0
2, 429110, Note_on_c, 0, 75, 75
2, 429118, Note_on_c, 0, 80, 0
2, 429126, Note_on_c, 0, 64, 0
2, 429184, Note_on_c, 0, 80, 80
2, 429220, Note_on_c, 0, 75, 0
2, 429284, Control_c, 0, 64, 127
2, 429290, Note_on_c, 0, 72, 89
2, 429296, Note_on_c, 0, 63, 79
2, 429310, Note_on_c, 0, 80, 0
2, 429320, Note_on_c, 0, 66, 0
2, 429380, Note_on_c, 0, 80, 77
2, 429402, Note_on_c, 0, 72, 0
2, 429482, Note_on_c, 0, 66, 75
2, 429486, Note_on_c, 0, 75, 78
2, 429502, Note_on_c, 0, 63, 0
2, 429510, Note_on_c, 0, 80, 0
2, 429530, Control_c, 0, 64, 0
2, 429582, Note_on_c, 0, 80, 71
2, 429630, Note_on_c, 0, 75, 0
2, 429664, Note_on_c, 0, 73, 88
2, 429680, Note_on_c, 0, 64, 70
2, 429694, Note_on_c, 0, 66, 0
2, 429696, Note_on_c, 0, 80, 0
2, 429714, Control_c, 0, 64, 127
2, 429758, Note_on_c, 0, 73, 0
2, 429764, Note_on_c, 0, 80, 82
2, 429810, Note_on_c, 0, 56, 0
2, 429824, Note_on_c, 0, 64, 0
2, 429864, Note_on_c, 0, 78, 92
2, 429868, Note_on_c, 0, 69, 54
2, 429878, Note_on_c, 0, 80, 0
2, 429960, Note_on_c, 0, 80, 70
2, 430014, Note_on_c, 0, 78, 0
2, 430044, Note_on_c, 0, 68, 67
2, 430044, Note_on_c, 0, 76, 81
2, 430054, Note_on_c, 0, 80, 0
2, 430060, Note_on_c, 0, 69, 0
2, 430140, Note_on_c, 0, 80, 69
2, 430164, Note_on_c, 0, 76, 0
2, 430232, Note_on_c, 0, 75, 82
2, 430234, Note_on_c, 0, 68, 0
2, 430242, Note_on_c, 0, 80, 0
2, 430242, Note_on_c, 0, 66, 64
2, 430322, Note_on_c, 0, 80, 75
2, 430364, Note_on_c, 0, 75, 0
2, 430374, Note_on_c, 0, 66, 0
2, 430416, Note_on_c, 0, 73, 75
2, 430426, Note_on_c, 0, 80, 0
2, 430426, Note_on_c, 0, 64, 83
2, 430500, Note_on_c, 0, 80, 74
2, 430520, Note_on_c, 0, 73, 0
2, 430556, Note_on_c, 0, 64, 0
2, 430598, Note_on_c, 0, 80, 0
2, 430612, Note_on_c, 0, 72, 85
2, 430614, Note_on_c, 0, 63, 80
2, 430672, Note_on_c, 0, 63, 0
2, 430682, Note_on_c, 0, 80, 71
2, 430684, Note_on_c, 0, 72, 0
2, 430786, Note_on_c, 0, 61, 80
2, 430794, Note_on_c, 0, 69, 86
2, 430802, Note_on_c, 0, 80, 0
2, 430828, Note_on_c, 0, 61, 0
2, 430870, Note_on_c, 0, 69, 0
2, 430888, Note_on_c, 0, 79, 96
2, 430952, Note_on_c, 0, 79, 0
2, 430976, Note_on_c, 0, 68, 87
2, 430979, Note_on_c, 0, 56, 90
2, 430992, Note_on_c, 0, 60, 67
2, 431044, Note_on_c, 0, 60, 0
2, 431074, Note_on_c, 0, 68, 0
2, 431074, Note_on_c, 0, 80, 89
2, 431082, Control_c, 0, 64, 0
2, 431170, Note_on_c, 0, 68, 78
2, 431182, Note_on_c, 0, 80, 0
2, 431188, Note_on_c, 0, 60, 88
2, 431258, Note_on_c, 0, 68, 0
2, 431258, Note_on_c, 0, 80, 77
2, 431286, Note_on_c, 0, 60, 0
2, 431312, Control_c, 0, 64, 127
2, 431354, Note_on_c, 0, 68, 73
2, 431360, Note_on_c, 0, 60, 70
2, 431362, Note_on_c, 0, 80, 0
2, 431422, Note_on_c, 0, 68, 0
2, 431440, Note_on_c, 0, 80, 64
2, 431504, Note_on_c, 0, 60, 0
2, 431548, Note_on_c, 0, 70, 66
2, 431558, Note_on_c, 0, 80, 0
2, 431558, Note_on_c, 0, 61, 60
2, 431630, Note_on_c, 0, 70, 0
2, 431644, Note_on_c, 0, 80, 54
2, 431750, Note_on_c, 0, 72, 64
2, 431756, Note_on_c, 0, 63, 71
2, 431760, Note_on_c, 0, 80, 0
2, 431788, Control_c, 0, 64, 0
2, 431790, Note_on_c, 0, 61, 0
2, 431834, Note_on_c, 0, 80, 57
2, 431886, Note_on_c, 0, 72, 0
2, 431908, Note_on_c, 0, 63, 0
2, 431932, Note_on_c, 0, 73, 69
2, 431936, Note_on_c, 0, 64, 77
2, 431946, Note_on_c, 0, 80, 0
2, 431972, Control_c, 0, 64, 127
2, 432010, Note_on_c, 0, 80, 74
2, 432052, Note_on_c, 0, 73, 0
2, 432112, Note_on_c, 0, 66, 72
2, 432114, Note_on_c, 0, 75, 79
2, 432116, Note_on_c, 0, 80, 0
2, 432138, Note_on_c, 0, 64, 0
2, 432194, Note_on_c, 0, 80, 70
2, 432228, Note_on_c, 0, 75, 0
2, 432250, Note_on_c, 0, 66, 0
2, 432284, Note_on_c, 0, 63, 85
2, 432284, Note_on_c, 0, 72, 87
2, 432306, Note_on_c, 0, 80, 0
2, 432378, Note_on_c, 0, 80, 78
2, 432386, Note_on_c, 0, 72, 0
2, 432444, Note_on_c, 0, 63, 0
2, 432460, Note_on_c, 0, 66, 83
2, 432474, Note_on_c, 0, 75, 87
2, 432492, Note_on_c, 0, 80, 0
2, 432568, Note_on_c, 0, 80, 81
2, 432572, Control_c, 0, 64, 0
2, 432618, Note_on_c, 0, 75, 0
2, 432642, Note_on_c, 0, 73, 86
2, 432654, Note_on_c, 0, 64, 81
2, 432678, Note_on_c, 0, 80, 0
2, 432682, Note_on_c, 0, 66, 0
2, 432736, Note_on_c, 0, 80, 96
2, 432756, Control_c, 0, 64, 127
2, 432762, Note_on_c, 0, 73, 0
2, 432796, Note_on_c, 0, 56, 0
2, 432820, Note_on_c, 0, 64, 0
2, 432836, Note_on_c, 0, 78, 95
2, 432842, Note_on_c, 0, 69, 59
2, 432862, Note_on_c, 0, 80, 0
2, 432930, Note_on_c, 0, 80, 81
2, 432994, Note_on_c, 0, 78, 0
2, 433002, Note_on_c, 0, 76, 86
2, 433002, Note_on_c, 0, 68, 78
2, 433020, Note_on_c, 0, 80, 0
2, 433038, Note_on_c, 0, 69, 0
2, 433104, Note_on_c, 0, 80, 77
2, 433144, Note_on_c, 0, 76, 0
2, 433162, Note_on_c, 0, 68, 0
2, 433186, Note_on_c, 0, 66, 75
2, 433189, Note_on_c, 0, 75, 90
2, 433202, Note_on_c, 0, 80, 0
2, 433284, Note_on_c, 0, 80, 79
2, 433302, Note_on_c, 0, 66, 0
2, 433314, Note_on_c, 0, 75, 0
2, 433370, Note_on_c, 0, 64, 87
2, 433372, Note_on_c, 0, 73, 83
2, 433388, Note_on_c, 0, 80, 0
2, 433450, Note_on_c, 0, 80, 79
2, 433453, Note_on_c, 0, 73, 0
2, 433506, Note_on_c, 0, 64, 0
2, 433550, Note_on_c, 0, 63, 88
2, 433552, Note_on_c, 0, 72, 88
2, 433564, Note_on_c, 0, 80, 0
2, 433622, Note_on_c, 0, 63, 0
2, 433624, Note_on_c, 0, 72, 0
2, 433624, Note_on_c, 0, 80, 87
2, 433720, Note_on_c, 0, 61, 77
2, 433728, Note_on_c, 0, 80, 0
2, 433728, Note_on_c, 0, 69, 89
2, 433764, Note_on_c, 0, 61, 0
2, 433806, Note_on_c, 0, 69, 0
2, 433814, Note_on_c, 0, 79, 96
2, 433832, Control_c, 0, 64, 0
2, 433886, Note_on_c, 0, 79, 0
2, 433900, Note_on_c, 0, 60, 86
2, 433903, Note_on_c, 0, 56, 86
2, 433910, Note_on_c, 0, 68, 92
2, 433944, Note_on_c, 0, 60, 0
2, 433950, Note_on_c, 0, 56, 0
2, 434004, Note_on_c, 0, 80, 87
2, 434006, Note_on_c, 0, 68, 0
2, 434068, Note_on_c, 0, 80, 0
2, 434084, Note_on_c, 0, 61, 89
2, 434084, Note_on_c, 0, 69, 64
2, 434090, Note_on_c, 0, 56, 81
2, 434124, Note_on_c, 0, 61, 0
2, 434132, Note_on_c, 0, 56, 0
2, 434146, Note_on_c, 0, 69, 0
2, 434174, Note_on_c, 0, 79, 89
2, 434226, Note_on_c, 0, 79, 0
2, 434248, Note_on_c, 0, 68, 90
2, 434258, Note_on_c, 0, 60, 83
2, 434268, Note_on_c, 0, 56, 63
2, 434300, Note_on_c, 0, 60, 0
2, 434316, Note_on_c, 0, 56, 0
2, 434340, Note_on_c, 0, 80, 87
2, 434364, Note_on_c, 0, 68, 0
2, 434410, Note_on_c, 0, 80, 0
2, 434420, Note_on_c, 0, 61, 98
2, 434426, Note_on_c, 0, 56, 63
2, 434430, Note_on_c, 0, 69, 71
2, 434466, Note_on_c, 0, 61, 0
2, 434472, Note_on_c, 0, 56, 0
2, 434486, Note_on_c, 0, 69, 0
2, 434500, Note_on_c, 0, 79, 96
2, 434574, Note_on_c, 0, 79, 0
2, 434584, Note_on_c, 0, 68, 96
2, 434584, Note_on_c, 0, 60, 101
2, 434598, Note_on_c, 0, 56, 71
2, 434630, Note_on_c, 0, 60, 0
2, 434644, Note_on_c, 0, 56, 0
2, 434672, Note_on_c, 0, 80, 96
2, 434694, Note_on_c, 0, 68, 0
2, 434752, Note_on_c, 0, 69, 82
2, 434762, Note_on_c, 0, 56, 82
2, 434764, Note_on_c, 0, 61, 103
2, 434768, Note_on_c, 0, 80, 0
2, 434816, Note_on_c, 0, 61, 0
2, 434820, Note_on_c, 0, 56, 0
2, 434834, Note_on_c, 0, 79, 102
2, 434856, Note_on_c, 0, 69, 0
2, 434920, Note_on_c, 0, 79, 0
2, 434928, Note_on_c, 0, 68, 105
2, 434936, Note_on_c, 0, 60, 103
2, 434952, Note_on_c, 0, 56, 83
2, 434984, Note_on_c, 0, 60, 0
2, 434992, Note_on_c, 0, 56, 0
2, 435018, Note_on_c, 0, 80, 101
2, 435048, Note_on_c, 0, 68, 0
2, 435126, Note_on_c, 0, 80, 0
2, 435132, Note_on_c, 0, 61, 93
2, 435136, Note_on_c, 0, 69, 75
2, 435140, Note_on_c, 0, 56, 70
2, 435185, Note_on_c, 0, 56, 0
2, 435190, Note_on_c, 0, 61, 0
2, 435202, Note_on_c, 0, 79, 101
2, 435236, Note_on_c, 0, 69, 0
2, 435270, Note_on_c, 0, 79, 0
2, 435314, Note_on_c, 0, 68, 115
2, 435314, Note_on_c, 0, 80, 118
2, 435317, Note_on_c, 0, 60, 108
2, 435318, Note_on_c, 0, 56, 95
2, 435338, Control_c, 0, 64, 127
2, 435354, Note_on_c, 0, 60, 0
2, 435355, Note_on_c, 0, 56, 0
2, 435372, Note_on_c, 0, 68, 0
2, 435384, Note_on_c, 0, 80, 0
2, 435490, Control_c, 0, 64, 0
2, 435734, Note_on_c, 0, 56, 115
2, 435742, Note_on_c, 0, 44, 98
2, 435750, Note_on_c, 0, 32, 96
2, 437366, Control_c, 0, 64, 127
2, 437432, Note_on_c, 0, 44, 0
2, 437440, Note_on_c, 0, 56, 0
2, 437462, Note_on_c, 0, 32, 0
2, 437734, Control_c, 0, 64, 0
2, 437786, Note_on_c, 0, 37, 87
2, 437828, Note_on_c, 0, 37, 0
2, 437868, Note_on_c, 0, 44, 86
2, 437922, Note_on_c, 0, 44, 0
2, 437966, Note_on_c, 0, 49, 75
2, 437978, Note_on_c, 0, 44, 24
2, 438038, Note_on_c, 0, 49, 0
2, 438042, Note_on_c, 0, 44, 0
2, 438064, Note_on_c, 0, 52, 69
2, 438116, Note_on_c, 0, 52, 0
2, 438120, Note_on_c, 0, 37, 59
2, 438132, Note_on_c, 0, 56, 65
2, 438174, Note_on_c, 0, 37, 0
2, 438186, Note_on_c, 0, 56, 0
2, 438220, Note_on_c, 0, 49, 80
2, 438286, Note_on_c, 0, 52, 93
2, 438286, Note_on_c, 0, 44, 69
2, 438344, Note_on_c, 0, 49, 0
2, 438346, Note_on_c, 0, 44, 0
2, 438380, Note_on_c, 0, 56, 75
2, 438398, Note_on_c, 0, 52, 0
2, 438458, Note_on_c, 0, 37, 69
2, 438464, Note_on_c, 0, 61, 86
2, 438496, Note_on_c, 0, 56, 0
2, 438512, Note_on_c, 0, 37, 0
2, 438518, Note_on_c, 0, 61, 0
2, 438556, Note_on_c, 0, 52, 93
2, 438588, Note_on_c, 0, 44, 72
2, 438634, Note_on_c, 0, 56, 81
2, 438636, Note_on_c, 0, 52, 0
2, 438652, Note_on_c, 0, 44, 0
2, 438716, Note_on_c, 0, 61, 90
2, 438750, Note_on_c, 0, 56, 0
2, 438784, Note_on_c, 0, 37, 71
2, 438802, Note_on_c, 0, 64, 95
2, 438838, Note_on_c, 0, 37, 0
2, 438840, Note_on_c, 0, 64, 0
2, 438854, Note_on_c, 0, 61, 0
2, 438868, Note_on_c, 0, 56, 90
2, 438924, Note_on_c, 0, 44, 66
2, 438938, Note_on_c, 0, 61, 72
2, 438978, Note_on_c, 0, 56, 0
2, 438988, Note_on_c, 0, 44, 0
2, 439026, Note_on_c, 0, 64, 89
2, 439088, Note_on_c, 0, 61, 0
2, 439114, Note_on_c, 0, 68, 87
2, 439122, Note_on_c, 0, 37, 74
2, 439156, Note_on_c, 0, 64, 0
2, 439176, Note_on_c, 0, 37, 0
2, 439176, Note_on_c, 0, 61, 74
2, 439218, Note_on_c, 0, 68, 0
2, 439276, Note_on_c, 0, 44, 67
2, 439278, Note_on_c, 0, 64, 86
2, 439308, Note_on_c, 0, 61, 0
2, 439350, Note_on_c, 0, 44, 0
2, 439360, Note_on_c, 0, 68, 77
2, 439388, Note_on_c, 0, 64, 0
2, 439428, Note_on_c, 0, 73, 82
2, 439456, Note_on_c, 0, 37, 63
2, 439459, Note_on_c, 0, 68, 0
2, 439490, Note_on_c, 0, 73, 0
2, 439504, Note_on_c, 0, 37, 0
2, 439516, Note_on_c, 0, 64, 83
2, 439584, Note_on_c, 0, 68, 83
2, 439604, Note_on_c, 0, 64, 0
2, 439612, Note_on_c, 0, 44, 70
2, 439672, Note_on_c, 0, 44, 0
2, 439682, Note_on_c, 0, 73, 87
2, 439702, Note_on_c, 0, 68, 0
2, 439748, Note_on_c, 0, 76, 89
2, 439770, Note_on_c, 0, 37, 67
2, 439780, Note_on_c, 0, 76, 0
2, 439802, Note_on_c, 0, 73, 0
2, 439826, Note_on_c, 0, 37, 0
2, 439832, Note_on_c, 0, 76, 80
2, 439912, Note_on_c, 0, 80, 98
2, 439940, Note_on_c, 0, 44, 69
2, 439952, Note_on_c, 0, 76, 0
2, 439992, Note_on_c, 0, 44, 0
2, 440010, Note_on_c, 0, 85, 95
2, 440028, Note_on_c, 0, 80, 0
2, 440060, Note_on_c, 0, 85, 0
2, 440088, Note_on_c, 0, 85, 34
2, 440088, Note_on_c, 0, 76, 124
2, 440091, Note_on_c, 0, 88, 125
2, 440098, Note_on_c, 0, 49, 111
2, 440108, Note_on_c, 0, 37, 100
2, 440140, Note_on_c, 0, 85, 0
2, 440146, Control_c, 0, 64, 127
2, 440178, Note_on_c, 0, 37, 0
2, 440184, Note_on_c, 0, 49, 0
2, 440194, Note_on_c, 0, 88, 0
2, 440194, Note_on_c, 0, 76, 0
2, 440296, Note_on_c, 0, 76, 102
2, 440299, Note_on_c, 0, 88, 86
2, 440312, Note_on_c, 0, 44, 86
2, 440334, Note_on_c, 0, 88, 0
2, 440350, Note_on_c, 0, 44, 0
2, 440352, Note_on_c, 0, 76, 0
2, 440546, Control_c, 0, 64, 0
2, 440576, Note_on_c, 0, 34, 109
2, 440680, Note_on_c, 0, 34, 0
2, 440682, Note_on_c, 0, 52, 110
2, 440760, Control_c, 0, 64, 127
2, 440774, Note_on_c, 0, 55, 101
2, 440776, Note_on_c, 0, 49, 80
2, 440796, Note_on_c, 0, 52, 0
2, 440846, Note_on_c, 0, 49, 0
2, 440868, Note_on_c, 0, 61, 88
2, 440900, Note_on_c, 0, 55, 0
2, 440948, Note_on_c, 0, 64, 95
2, 440956, Note_on_c, 0, 46, 65
2, 441008, Control_c, 0, 64, 0
2, 441011, Note_on_c, 0, 61, 0
2, 441024, Note_on_c, 0, 46, 0
2, 441042, Note_on_c, 0, 55, 102
2, 441054, Note_on_c, 0, 64, 0
2, 441112, Note_on_c, 0, 49, 75
2, 441130, Note_on_c, 0, 61, 98
2, 441156, Note_on_c, 0, 55, 0
2, 441198, Note_on_c, 0, 49, 0
2, 441206, Note_on_c, 0, 64, 93
2, 441252, Control_c, 0, 64, 127
2, 441260, Note_on_c, 0, 61, 0
2, 441290, Note_on_c, 0, 46, 75
2, 441298, Note_on_c, 0, 67, 96
2, 441342, Note_on_c, 0, 64, 0
2, 441345, Note_on_c, 0, 67, 0
2, 441372, Note_on_c, 0, 46, 0
2, 441390, Note_on_c, 0, 61, 101
2, 441456, Note_on_c, 0, 49, 71
2, 441462, Note_on_c, 0, 64, 86
2, 441490, Note_on_c, 0, 61, 0
2, 441516, Note_on_c, 0, 49, 0
2, 441544, Control_c, 0, 64, 0
2, 441562, Note_on_c, 0, 67, 94
2, 441602, Note_on_c, 0, 64, 0
2, 441632, Note_on_c, 0, 46, 79
2, 441648, Note_on_c, 0, 73, 96
2, 441688, Note_on_c, 0, 46, 0
2, 441688, Note_on_c, 0, 67, 0
2, 441746, Note_on_c, 0, 64, 102
2, 441760, Control_c, 0, 64, 127
2, 441788, Note_on_c, 0, 73, 0
2, 441794, Note_on_c, 0, 49, 73
2, 441824, Note_on_c, 0, 67, 102
2, 441842, Note_on_c, 0, 64, 0
2, 441852, Note_on_c, 0, 49, 0
2, 441906, Note_on_c, 0, 73, 86
2, 441914, Control_c, 0, 64, 0
2, 441950, Note_on_c, 0, 67, 0
2, 441992, Note_on_c, 0, 46, 72
2, 441998, Note_on_c, 0, 76, 97
2, 442058, Note_on_c, 0, 46, 0
2, 442058, Note_on_c, 0, 73, 0
2, 442078, Note_on_c, 0, 67, 105
2, 442098, Control_c, 0, 64, 127
2, 442128, Note_on_c, 0, 76, 0
2, 442160, Note_on_c, 0, 49, 66
2, 442160, Note_on_c, 0, 73, 80
2, 442196, Note_on_c, 0, 67, 0
2, 442228, Note_on_c, 0, 49, 0
2, 442236, Note_on_c, 0, 76, 80
2, 442304, Note_on_c, 0, 73, 0
2, 442316, Note_on_c, 0, 79, 105
2, 442340, Note_on_c, 0, 46, 79
2, 442346, Note_on_c, 0, 76, 0
2, 442352, Note_on_c, 0, 79, 0
2, 442396, Note_on_c, 0, 73, 79
2, 442416, Note_on_c, 0, 46, 0
2, 442472, Note_on_c, 0, 76, 78
2, 442500, Note_on_c, 0, 49, 71
2, 442524, Note_on_c, 0, 73, 0
2, 442560, Note_on_c, 0, 49, 0
2, 442563, Note_on_c, 0, 79, 100
2, 442606, Control_c, 0, 64, 0
2, 442616, Note_on_c, 0, 76, 0
2, 442646, Note_on_c, 0, 85, 105
2, 442662, Note_on_c, 0, 46, 82
2, 442682, Note_on_c, 0, 79, 0
2, 442734, Note_on_c, 0, 76, 72
2, 442760, Note_on_c, 0, 85, 0
2, 442778, Note_on_c, 0, 46, 0
2, 442790, Control_c, 0, 64, 127
2, 442806, Note_on_c, 0, 79, 100
2, 442814, Note_on_c, 0, 49, 83
2, 442848, Note_on_c, 0, 76, 0
2, 442870, Note_on_c, 0, 49, 0
2, 442896, Note_on_c, 0, 85, 96
2, 442928, Control_c, 0, 64, 0
2, 442930, Note_on_c, 0, 79, 0
2, 442996, Note_on_c, 0, 76, 126
2, 442998, Note_on_c, 0, 88, 124
2, 443000, Note_on_c, 0, 46, 109
2, 443010, Note_on_c, 0, 34, 96
2, 443042, Note_on_c, 0, 34, 0
2, 443082, Note_on_c, 0, 46, 0
2, 443084, Note_on_c, 0, 85, 0
2, 443084, Control_c, 0, 64, 127
2, 443102, Note_on_c, 0, 88, 0
2, 443116, Note_on_c, 0, 76, 0
2, 443202, Note_on_c, 0, 49, 95
2, 443205, Note_on_c, 0, 76, 93
2, 443205, Note_on_c, 0, 88, 105
2, 443236, Note_on_c, 0, 88, 0
2, 443248, Note_on_c, 0, 49, 0
2, 443262, Note_on_c, 0, 76, 0
2, 443388, Control_c, 0, 64, 0
2, 443456, Note_on_c, 0, 31, 125
2, 443564, Note_on_c, 0, 31, 0
2, 443576, Note_on_c, 0, 51, 97
2, 443588, Control_c, 0, 64, 127
2, 443684, Note_on_c, 0, 58, 74
2, 443768, Note_on_c, 0, 61, 87
2, 443784, Note_on_c, 0, 51, 0
2, 443808, Note_on_c, 0, 58, 0
2, 443874, Note_on_c, 0, 63, 90
2, 443877, Note_on_c, 0, 43, 96
2, 443928, Note_on_c, 0, 61, 0
2, 443936, Note_on_c, 0, 43, 0
2, 443936, Note_on_c, 0, 63, 0
2, 443960, Note_on_c, 0, 58, 82
2, 444042, Note_on_c, 0, 51, 78
2, 444052, Note_on_c, 0, 61, 82
2, 444070, Note_on_c, 0, 58, 0
2, 444126, Note_on_c, 0, 51, 0
2, 444142, Note_on_c, 0, 63, 96
2, 444164, Note_on_c, 0, 61, 0
2, 444220, Note_on_c, 0, 70, 87
2, 444234, Note_on_c, 0, 43, 83
2, 444248, Note_on_c, 0, 63, 0
2, 444278, Note_on_c, 0, 43, 0
2, 444302, Note_on_c, 0, 61, 93
2, 444368, Note_on_c, 0, 70, 0
2, 444390, Note_on_c, 0, 63, 98
2, 444392, Note_on_c, 0, 51, 75
2, 444424, Note_on_c, 0, 61, 0
2, 444482, Note_on_c, 0, 51, 0
2, 444494, Note_on_c, 0, 70, 80
2, 444498, Note_on_c, 0, 63, 0
2, 444578, Note_on_c, 0, 73, 89
2, 444596, Note_on_c, 0, 43, 75
2, 444634, Note_on_c, 0, 70, 0
2, 444646, Note_on_c, 0, 43, 0
2, 444666, Note_on_c, 0, 63, 97
2, 444730, Note_on_c, 0, 73, 0
2, 444760, Note_on_c, 0, 51, 71
2, 444763, Note_on_c, 0, 70, 79
2, 444774, Note_on_c, 0, 63, 0
2, 444834, Note_on_c, 0, 51, 0
2, 444862, Note_on_c, 0, 73, 85
2, 444896, Note_on_c, 0, 70, 0
2, 444910, Control_c, 0, 64, 0
2, 444950, Note_on_c, 0, 75, 94
2, 444956, Note_on_c, 0, 43, 69
2, 445002, Note_on_c, 0, 73, 0
2, 445012, Note_on_c, 0, 43, 0
2, 445030, Note_on_c, 0, 70, 86
2, 445058, Note_on_c, 0, 75, 0
2, 445078, Control_c, 0, 64, 127
2, 445116, Note_on_c, 0, 51, 62
2, 445124, Note_on_c, 0, 73, 79
2, 445160, Note_on_c, 0, 70, 0
2, 445198, Note_on_c, 0, 75, 96
2, 445208, Note_on_c, 0, 51, 0
2, 445244, Note_on_c, 0, 73, 0
2, 445292, Note_on_c, 0, 82, 92
2, 445316, Note_on_c, 0, 43, 48
2, 445318, Note_on_c, 0, 75, 0
2, 445362, Note_on_c, 0, 73, 85
2, 445374, Note_on_c, 0, 43, 0
2, 445452, Note_on_c, 0, 82, 0
2, 445460, Note_on_c, 0, 75, 89
2, 445466, Note_on_c, 0, 51, 52
2, 445484, Note_on_c, 0, 73, 0
2, 445544, Note_on_c, 0, 51, 0
2, 445547, Note_on_c, 0, 82, 70
2, 445592, Note_on_c, 0, 75, 0
2, 445616, Control_c, 0, 64, 0
2, 445636, Note_on_c, 0, 85, 103
2, 445668, Note_on_c, 0, 82, 0
2, 445670, Note_on_c, 0, 43, 57
2, 445730, Note_on_c, 0, 82, 73
2, 445774, Note_on_c, 0, 43, 0
2, 445800, Note_on_c, 0, 85, 0
2, 445802, Control_c, 0, 64, 127
2, 445848, Note_on_c, 0, 75, 79
2, 445860, Note_on_c, 0, 51, 50
2, 445898, Note_on_c, 0, 82, 0
2, 445922, Note_on_c, 0, 73, 77
2, 445934, Note_on_c, 0, 51, 0
2, 445956, Note_on_c, 0, 75, 0
2, 446018, Note_on_c, 0, 73, 0
2, 446034, Note_on_c, 0, 82, 88
2, 446058, Note_on_c, 0, 43, 46
2, 446126, Note_on_c, 0, 43, 0
2, 446150, Note_on_c, 0, 75, 70
2, 446156, Note_on_c, 0, 82, 0
2, 446264, Note_on_c, 0, 73, 57
2, 446267, Note_on_c, 0, 51, 37
2, 446296, Note_on_c, 0, 75, 0
2, 446324, Control_c, 0, 64, 0
2, 446338, Note_on_c, 0, 51, 0
2, 446340, Note_on_c, 0, 70, 71
2, 446360, Note_on_c, 0, 73, 0
2, 446458, Note_on_c, 0, 70, 0
2, 446480, Note_on_c, 0, 71, 87
2, 446484, Note_on_c, 0, 44, 49
2, 446636, Note_on_c, 0, 51, 46
2, 446676, Control_c, 0, 64, 127
2, 446684, Note_on_c, 0, 71, 0
2, 446698, Note_on_c, 0, 44, 0
2, 446704, Note_on_c, 0, 51, 0
2, 446772, Note_on_c, 0, 47, 17
2, 446852, Note_on_c, 0, 47, 0
2, 446894, Note_on_c, 0, 51, 28
2, 446976, Note_on_c, 0, 51, 0
2, 447070, Note_on_c, 0, 75, 90
2, 447092, Control_c, 0, 64, 0
2, 447092, Note_on_c, 0, 44, 40
2, 447224, Note_on_c, 0, 51, 26
2, 447270, Note_on_c, 0, 44, 0
2, 447292, Note_on_c, 0, 47, 42
2, 447298, Note_on_c, 0, 51, 0
2, 447306, Control_c, 0, 64, 127
2, 447354, Note_on_c, 0, 47, 0
2, 447387, Note_on_c, 0, 51, 39
2, 447486, Note_on_c, 0, 51, 0
2, 447500, Note_on_c, 0, 44, 52
2, 447578, Note_on_c, 0, 44, 0
2, 447636, Note_on_c, 0, 51, 9
2, 447688, Note_on_c, 0, 51, 0
2, 447706, Note_on_c, 0, 47, 34
2, 447780, Note_on_c, 0, 47, 0
2, 447810, Note_on_c, 0, 51, 26
2, 447948, Note_on_c, 0, 51, 0
2, 447972, Note_on_c, 0, 71, 69
2, 448008, Note_on_c, 0, 44, 37
2, 448044, Control_c, 0, 64, 0
2, 448078, Note_on_c, 0, 75, 0
2, 448138, Note_on_c, 0, 51, 28
2, 448212, Note_on_c, 0, 51, 0
2, 448212, Control_c, 0, 64, 127
2, 448238, Note_on_c, 0, 68, 59
2, 448242, Note_on_c, 0, 47, 29
2, 448282, Note_on_c, 0, 71, 0
2, 448302, Note_on_c, 0, 68, 0
2, 448332, Note_on_c, 0, 47, 0
2, 448338, Note_on_c, 0, 67, 67
2, 448380, Note_on_c, 0, 51, 26
2, 448424, Note_on_c, 0, 67, 0
2, 448427, Note_on_c, 0, 68, 71
2, 448462, Note_on_c, 0, 51, 0
2, 448516, Note_on_c, 0, 70, 58
2, 448518, Note_on_c, 0, 68, 0
2, 448520, Note_on_c, 0, 44, 0
2, 448520, Control_c, 0, 64, 0
2, 448542, Note_on_c, 0, 46, 25
2, 448602, Note_on_c, 0, 68, 67
2, 448668, Note_on_c, 0, 70, 0
2, 448686, Note_on_c, 0, 51, 41
2, 448764, Note_on_c, 0, 51, 0
2, 448816, Note_on_c, 0, 49, 43
2, 448858, Control_c, 0, 64, 127
2, 448900, Note_on_c, 0, 46, 0
2, 448902, Note_on_c, 0, 49, 0
2, 448942, Note_on_c, 0, 51, 39
2, 449012, Note_on_c, 0, 51, 0
2, 449050, Note_on_c, 0, 67, 57
2, 449084, Note_on_c, 0, 46, 24
2, 449120, Control_c, 0, 64, 0
2, 449150, Note_on_c, 0, 68, 0
2, 449192, Note_on_c, 0, 51, 42
2, 449240, Note_on_c, 0, 46, 0
2, 449254, Note_on_c, 0, 51, 0
2, 449272, Note_on_c, 0, 49, 47
2, 449304, Control_c, 0, 64, 127
2, 449346, Note_on_c, 0, 49, 0
2, 449388, Note_on_c, 0, 67, 0
2, 449406, Note_on_c, 0, 51, 31
2, 449482, Note_on_c, 0, 46, 48
2, 449488, Note_on_c, 0, 51, 0
2, 449562, Note_on_c, 0, 46, 0
2, 449582, Note_on_c, 0, 51, 44
2, 449648, Note_on_c, 0, 67, 88
2, 449660, Note_on_c, 0, 51, 0
2, 449692, Note_on_c, 0, 49, 46
2, 449768, Note_on_c, 0, 49, 0
2, 449806, Note_on_c, 0, 51, 40
2, 449826, Control_c, 0, 64, 0
2, 449862, Note_on_c, 0, 75, 77
2, 449870, Note_on_c, 0, 51, 0
2, 449892, Note_on_c, 0, 46, 39
2, 449894, Note_on_c, 0, 67, 0
2, 449976, Note_on_c, 0, 51, 42
2, 450042, Control_c, 0, 64, 127
2, 450070, Note_on_c, 0, 51, 0
2, 450094, Note_on_c, 0, 49, 43
2, 450164, Note_on_c, 0, 49, 0
2, 450174, Note_on_c, 0, 67, 72
2, 450186, Note_on_c, 0, 46, 0
2, 450226, Note_on_c, 0, 51, 39
2, 450234, Note_on_c, 0, 67, 0
2, 450272, Note_on_c, 0, 70, 65
2, 450272, Control_c, 0, 64, 0
2, 450288, Note_on_c, 0, 75, 0
2, 450294, Note_on_c, 0, 51, 0
2, 450312, Note_on_c, 0, 47, 29
2, 450384, Note_on_c, 0, 47, 0
2, 450420, Note_on_c, 0, 51, 33
2, 450484, Note_on_c, 0, 51, 0
2, 450488, Control_c, 0, 64, 127
2, 450494, Note_on_c, 0, 47, 25
2, 450576, Note_on_c, 0, 47, 0
2, 450602, Note_on_c, 0, 51, 39
2, 450676, Note_on_c, 0, 51, 0
2, 450688, Note_on_c, 0, 68, 62
2, 450726, Note_on_c, 0, 47, 20
2, 450782, Note_on_c, 0, 70, 0
2, 450798, Note_on_c, 0, 47, 0
2, 450814, Note_on_c, 0, 51, 37
2, 450872, Control_c, 0, 64, 0
2, 450888, Note_on_c, 0, 51, 0
2, 450888, Note_on_c, 0, 47, 39
2, 450982, Note_on_c, 0, 47, 0
2, 450998, Note_on_c, 0, 51, 41
2, 451010, Control_c, 0, 64, 127
2, 451084, Note_on_c, 0, 51, 0
2, 451092, Note_on_c, 0, 47, 46
2, 451140, Note_on_c, 0, 68, 0
2, 451164, Note_on_c, 0, 47, 0
2, 451188, Note_on_c, 0, 51, 48
2, 451258, Note_on_c, 0, 68, 82
2, 451264, Note_on_c, 0, 51, 0
2, 451284, Note_on_c, 0, 47, 56
2, 451348, Note_on_c, 0, 47, 0
2, 451390, Note_on_c, 0, 51, 56
2, 451456, Note_on_c, 0, 51, 0
2, 451464, Note_on_c, 0, 68, 0
2, 451468, Note_on_c, 0, 75, 83
2, 451470, Control_c, 0, 64, 0
2, 451492, Note_on_c, 0, 47, 63
2, 451558, Note_on_c, 0, 47, 0
2, 451596, Note_on_c, 0, 51, 50
2, 451654, Note_on_c, 0, 51, 0
2, 451656, Control_c, 0, 64, 127
2, 451658, Note_on_c, 0, 47, 51
2, 451758, Note_on_c, 0, 51, 52
2, 451758, Note_on_c, 0, 68, 60
2, 451761, Note_on_c, 0, 47, 0
2, 451792, Note_on_c, 0, 75, 0
2, 451824, Note_on_c, 0, 51, 0
2, 451824, Control_c, 0, 64, 0
2, 451862, Note_on_c, 0, 71, 93
2, 451862, Note_on_c, 0, 43, 71
2, 451888, Note_on_c, 0, 68, 0
2, 451946, Note_on_c, 0, 43, 0
2, 451982, Note_on_c, 0, 51, 55
2, 452054, Control_c, 0, 64, 127
2, 452070, Note_on_c, 0, 51, 0
2, 452090, Note_on_c, 0, 43, 37
2, 452162, Note_on_c, 0, 43, 0
2, 452198, Note_on_c, 0, 51, 43
2, 452274, Note_on_c, 0, 51, 0
2, 452284, Note_on_c, 0, 70, 55
2, 452312, Note_on_c, 0, 43, 40
2, 452332, Control_c, 0, 64, 0
2, 452356, Note_on_c, 0, 71, 0
2, 452380, Note_on_c, 0, 43, 0
2, 452408, Note_on_c, 0, 51, 47
2, 452482, Note_on_c, 0, 51, 0
2, 452504, Note_on_c, 0, 43, 24
2, 452516, Control_c, 0, 64, 127
2, 452584, Note_on_c, 0, 43, 0
2, 452598, Note_on_c, 0, 51, 35
2, 452690, Note_on_c, 0, 43, 36
2, 452702, Note_on_c, 0, 51, 0
2, 452774, Note_on_c, 0, 70, 0
2, 452780, Note_on_c, 0, 43, 0
2, 452814, Note_on_c, 0, 51, 43
2, 452868, Note_on_c, 0, 70, 31
2, 452886, Note_on_c, 0, 51, 0
2, 452912, Note_on_c, 0, 43, 34
2, 453002, Note_on_c, 0, 43, 0
2, 453036, Note_on_c, 0, 51, 40
2, 453116, Control_c, 0, 64, 0
2, 453119, Note_on_c, 0, 51, 0
2, 453140, Note_on_c, 0, 75, 70
2, 453140, Note_on_c, 0, 43, 42
2, 453176, Note_on_c, 0, 70, 0
2, 453222, Note_on_c, 0, 43, 0
2, 453246, Note_on_c, 0, 51, 49
2, 453284, Control_c, 0, 64, 127
2, 453328, Note_on_c, 0, 51, 0
2, 453334, Note_on_c, 0, 43, 34
2, 453450, Note_on_c, 0, 43, 0
2, 453464, Note_on_c, 0, 51, 39
2, 453472, Note_on_c, 0, 70, 52
2, 453484, Control_c, 0, 64, 0
2, 453494, Note_on_c, 0, 75, 0
2, 453534, Note_on_c, 0, 51, 0
2, 453540, Note_on_c, 0, 70, 0
2, 453592, Note_on_c, 0, 44, 46
2, 453594, Note_on_c, 0, 71, 75
2, 453698, Control_c, 0, 64, 127
2, 453710, Note_on_c, 0, 71, 0
2, 453752, Note_on_c, 0, 51, 43
2, 453755, Note_on_c, 0, 44, 0
2, 453824, Note_on_c, 0, 51, 0
2, 453866, Note_on_c, 0, 87, 82
2, 453870, Note_on_c, 0, 75, 73
2, 453896, Note_on_c, 0, 47, 32
2, 453972, Note_on_c, 0, 47, 0
2, 454000, Note_on_c, 0, 51, 54
2, 454068, Note_on_c, 0, 51, 0
2, 454096, Note_on_c, 0, 75, 0
2, 454096, Note_on_c, 0, 44, 50
2, 454108, Note_on_c, 0, 87, 0
2, 454180, Note_on_c, 0, 44, 0
2, 454202, Note_on_c, 0, 51, 42
2, 454236, Control_c, 0, 64, 0
2, 454270, Note_on_c, 0, 51, 0
2, 454270, Note_on_c, 0, 87, 74
2, 454278, Note_on_c, 0, 75, 66
2, 454292, Note_on_c, 0, 47, 62
2, 454354, Note_on_c, 0, 47, 0
2, 454404, Note_on_c, 0, 51, 57
2, 454436, Control_c, 0, 64, 127
2, 454462, Note_on_c, 0, 51, 0
2, 454476, Note_on_c, 0, 44, 83
2, 454510, Note_on_c, 0, 75, 0
2, 454514, Note_on_c, 0, 87, 0
2, 454528, Control_c, 0, 64, 0
2, 454586, Note_on_c, 0, 44, 0
2, 454586, Note_on_c, 0, 51, 59
2, 454650, Note_on_c, 0, 51, 0
2, 454656, Note_on_c, 0, 87, 94
2, 454656, Note_on_c, 0, 75, 89
2, 454676, Note_on_c, 0, 47, 67
2, 454706, Note_on_c, 0, 75, 0
2, 454709, Note_on_c, 0, 87, 0
2, 454740, Note_on_c, 0, 47, 0
2, 454778, Note_on_c, 0, 51, 63
2, 454852, Note_on_c, 0, 51, 0
2, 454864, Note_on_c, 0, 83, 123
2, 454866, Note_on_c, 0, 44, 72
2, 454868, Note_on_c, 0, 71, 97
2, 454894, Note_on_c, 0, 83, 0
2, 454908, Note_on_c, 0, 71, 0
2, 454956, Note_on_c, 0, 51, 57
2, 454974, Note_on_c, 0, 44, 0
2, 455048, Note_on_c, 0, 51, 0
2, 455048, Note_on_c, 0, 68, 95
2, 455048, Note_on_c, 0, 80, 102
2, 455062, Note_on_c, 0, 47, 72
2, 455104, Note_on_c, 0, 68, 0
2, 455130, Note_on_c, 0, 47, 0
2, 455130, Note_on_c, 0, 80, 0
2, 455156, Note_on_c, 0, 51, 64
2, 455252, Note_on_c, 0, 68, 93
2, 455258, Note_on_c, 0, 80, 101
2, 455260, Note_on_c, 0, 51, 0
2, 455268, Note_on_c, 0, 46, 57
2, 455354, Note_on_c, 0, 51, 51
2, 455376, Note_on_c, 0, 80, 0
2, 455382, Note_on_c, 0, 68, 0
2, 455394, Note_on_c, 0, 46, 0
2, 455472, Note_on_c, 0, 67, 79
2, 455474, Note_on_c, 0, 79, 89
2, 455478, Note_on_c, 0, 49, 62
2, 455484, Note_on_c, 0, 51, 0
2, 455566, Note_on_c, 0, 49, 0
2, 455576, Note_on_c, 0, 51, 51
2, 455664, Note_on_c, 0, 51, 0
2, 455666, Note_on_c, 0, 46, 64
2, 455690, Note_on_c, 0, 67, 0
2, 455708, Note_on_c, 0, 79, 0
2, 455712, Control_c, 0, 64, 127
2, 455734, Note_on_c, 0, 46, 0
2, 455766, Note_on_c, 0, 51, 57
2, 455818, Control_c, 0, 64, 0
2, 455854, Note_on_c, 0, 79, 95
2, 455859, Note_on_c, 0, 51, 0
2, 455859, Note_on_c, 0, 67, 75
2, 455872, Note_on_c, 0, 49, 67
2, 455932, Note_on_c, 0, 49, 0
2, 455976, Note_on_c, 0, 51, 55
2, 456034, Control_c, 0, 64, 127
2, 456038, Note_on_c, 0, 51, 0
2, 456054, Note_on_c, 0, 46, 60
2, 456056, Note_on_c, 0, 67, 0
2, 456080, Note_on_c, 0, 79, 0
2, 456110, Control_c, 0, 64, 0
2, 456116, Note_on_c, 0, 46, 0
2, 456144, Note_on_c, 0, 51, 69
2, 456234, Note_on_c, 0, 51, 0
2, 456244, Note_on_c, 0, 67, 104
2, 456246, Note_on_c, 0, 79, 115
2, 456252, Note_on_c, 0, 49, 75
2, 456280, Note_on_c, 0, 67, 0
2, 456290, Note_on_c, 0, 79, 0
2, 456332, Note_on_c, 0, 49, 0
2, 456350, Note_on_c, 0, 51, 64
2, 456426, Note_on_c, 0, 51, 0
2, 456462, Note_on_c, 0, 46, 62
2, 456465, Note_on_c, 0, 87, 111
2, 456468, Note_on_c, 0, 75, 109
2, 456508, Note_on_c, 0, 75, 0
2, 456510, Note_on_c, 0, 87, 0
2, 456556, Note_on_c, 0, 46, 0
2, 456556, Note_on_c, 0, 51, 75
2, 456652, Note_on_c, 0, 51, 0
2, 456662, Note_on_c, 0, 49, 78
2, 456678, Note_on_c, 0, 79, 111
2, 456681, Note_on_c, 0, 67, 106
2, 456716, Note_on_c, 0, 67, 0
2, 456726, Note_on_c, 0, 79, 0
2, 456772, Note_on_c, 0, 51, 65
2, 456780, Note_on_c, 0, 49, 0
2, 456868, Note_on_c, 0, 82, 109
2, 456870, Note_on_c, 0, 70, 103
2, 456876, Note_on_c, 0, 47, 75
2, 456880, Note_on_c, 0, 51, 0
2, 456946, Note_on_c, 0, 47, 0
2, 456948, Note_on_c, 0, 70, 0
2, 456956, Control_c, 0, 64, 127
2, 456960, Note_on_c, 0, 82, 0
2, 456980, Note_on_c, 0, 51, 64
2, 457032, Control_c, 0, 64, 0
2, 457080, Note_on_c, 0, 80, 90
2, 457082, Note_on_c, 0, 68, 82
2, 457084, Note_on_c, 0, 47, 69
2, 457094, Note_on_c, 0, 51, 0
2, 457150, Note_on_c, 0, 47, 0
2, 457176, Note_on_c, 0, 51, 66
2, 457264, Note_on_c, 0, 51, 0
2, 457264, Control_c, 0, 64, 127
2, 457278, Note_on_c, 0, 47, 67
2, 457314, Note_on_c, 0, 68, 0
2, 457330, Note_on_c, 0, 80, 0
2, 457336, Note_on_c, 0, 47, 0
2, 457366, Note_on_c, 0, 51, 64
2, 457416, Control_c, 0, 64, 0
2, 457458, Note_on_c, 0, 68, 78
2, 457458, Note_on_c, 0, 80, 87
2, 457466, Note_on_c, 0, 51, 0
2, 457482, Note_on_c, 0, 47, 82
2, 457530, Note_on_c, 0, 47, 0
2, 457574, Note_on_c, 0, 51, 64
2, 457648, Control_c, 0, 64, 127
2, 457670, Note_on_c, 0, 47, 89
2, 457686, Note_on_c, 0, 51, 0
2, 457696, Note_on_c, 0, 68, 0
2, 457702, Note_on_c, 0, 80, 0
2, 457720, Note_on_c, 0, 47, 0
2, 457723, Control_c, 0, 64, 0
2, 457754, Note_on_c, 0, 51, 74
2, 457828, Note_on_c, 0, 68, 101
2, 457836, Note_on_c, 0, 80, 105
2, 457860, Note_on_c, 0, 47, 93
2, 457866, Note_on_c, 0, 51, 0
2, 457906, Note_on_c, 0, 68, 0
2, 457920, Note_on_c, 0, 47, 0
2, 457920, Control_c, 0, 64, 127
2, 457944, Note_on_c, 0, 80, 0
2, 457950, Note_on_c, 0, 51, 70
2, 457953, Control_c, 0, 64, 0
2, 458038, Note_on_c, 0, 87, 111
2, 458040, Note_on_c, 0, 75, 104
2, 458050, Note_on_c, 0, 47, 93
2, 458062, Note_on_c, 0, 51, 0
2, 458070, Note_on_c, 0, 87, 0
2, 458086, Note_on_c, 0, 75, 0
2, 458130, Note_on_c, 0, 51, 79
2, 458133, Note_on_c, 0, 47, 0
2, 458230, Note_on_c, 0, 47, 81
2, 458236, Note_on_c, 0, 80, 106
2, 458236, Note_on_c, 0, 68, 101
2, 458244, Note_on_c, 0, 51, 0
2, 458284, Note_on_c, 0, 68, 0
2, 458312, Note_on_c, 0, 51, 86
2, 458346, Note_on_c, 0, 80, 0
2, 458352, Note_on_c, 0, 47, 0
2, 458414, Note_on_c, 0, 51, 0
2, 458430, Note_on_c, 0, 83, 127
2, 458434, Note_on_c, 0, 71, 118
2, 458438, Note_on_c, 0, 43, 96
2, 458478, Note_on_c, 0, 71, 0
2, 458526, Note_on_c, 0, 43, 0
2, 458526, Control_c, 0, 64, 127
2, 458536, Note_on_c, 0, 51, 71
2, 458542, Note_on_c, 0, 83, 0
2, 458630, Control_c, 0, 64, 0
2, 458636, Note_on_c, 0, 82, 104
2, 458636, Note_on_c, 0, 70, 96
2, 458639, Note_on_c, 0, 51, 0
2, 458656, Note_on_c, 0, 43, 93
2, 458716, Note_on_c, 0, 43, 0
2, 458742, Note_on_c, 0, 51, 58
2, 458815, Control_c, 0, 64, 127
2, 458846, Note_on_c, 0, 51, 0
2, 458854, Note_on_c, 0, 70, 0
2, 458854, Note_on_c, 0, 43, 93
2, 458868, Note_on_c, 0, 82, 0
2, 458934, Note_on_c, 0, 43, 0
2, 458936, Note_on_c, 0, 51, 63
2, 459030, Control_c, 0, 64, 0
2, 459036, Note_on_c, 0, 51, 0
2, 459038, Note_on_c, 0, 70, 70
2, 459038, Note_on_c, 0, 82, 83
2, 459050, Note_on_c, 0, 43, 83
2, 459138, Note_on_c, 0, 51, 58
2, 459150, Note_on_c, 0, 43, 0
2, 459216, Control_c, 0, 64, 127
2, 459240, Note_on_c, 0, 43, 78
2, 459245, Note_on_c, 0, 51, 0
2, 459312, Note_on_c, 0, 82, 0
2, 459314, Note_on_c, 0, 70, 0
2, 459326, Note_on_c, 0, 51, 66
2, 459342, Note_on_c, 0, 43, 0
2, 459418, Note_on_c, 0, 70, 90
2, 459422, Note_on_c, 0, 51, 0
2, 459422, Note_on_c, 0, 82, 95
2, 459436, Note_on_c, 0, 43, 89
2, 459490, Note_on_c, 0, 70, 0
2, 459524, Note_on_c, 0, 82, 0
2, 459530, Note_on_c, 0, 51, 77
2, 459542, Note_on_c, 0, 43, 0
2, 459582, Control_c, 0, 64, 0
2, 459614, Note_on_c, 0, 75, 109
2, 459614, Note_on_c, 0, 87, 113
2, 459632, Note_on_c, 0, 51, 0
2, 459632, Note_on_c, 0, 43, 86
2, 459662, Note_on_c, 0, 87, 0
2, 459686, Note_on_c, 0, 75, 0
2, 459692, Control_c, 0, 64, 127
2, 459702, Note_on_c, 0, 51, 83
2, 459736, Note_on_c, 0, 43, 0
2, 459768, Control_c, 0, 64, 0
2, 459796, Note_on_c, 0, 51, 0
2, 459806, Note_on_c, 0, 43, 87
2, 459808, Note_on_c, 0, 70, 106
2, 459812, Note_on_c, 0, 82, 103
2, 459868, Note_on_c, 0, 70, 0
2, 459882, Note_on_c, 0, 51, 71
2, 459918, Note_on_c, 0, 43, 0
2, 459928, Note_on_c, 0, 82, 0
2, 459984, Note_on_c, 0, 51, 0
2, 460014, Note_on_c, 0, 84, 127
2, 460014, Note_on_c, 0, 72, 121
2, 460022, Note_on_c, 0, 42, 116
2, 460064, Control_c, 0, 64, 127
2, 460124, Note_on_c, 0, 51, 85
2, 460172, Note_on_c, 0, 42, 0
2, 460198, Note_on_c, 0, 44, 87
2, 460230, Note_on_c, 0, 51, 0
2, 460274, Control_c, 0, 64, 0
2, 460302, Note_on_c, 0, 51, 88
2, 460318, Note_on_c, 0, 44, 0
2, 460400, Note_on_c, 0, 51, 0
2, 460403, Note_on_c, 0, 42, 103
2, 460460, Control_c, 0, 64, 127
2, 460506, Note_on_c, 0, 51, 79
2, 460526, Note_on_c, 0, 42, 0
2, 460600, Note_on_c, 0, 72, 0
2, 460604, Note_on_c, 0, 44, 96
2, 460606, Note_on_c, 0, 51, 0
2, 460610, Note_on_c, 0, 84, 0
2, 460702, Note_on_c, 0, 51, 87
2, 460714, Note_on_c, 0, 44, 0
2, 460736, Control_c, 0, 64, 0
2, 460796, Note_on_c, 0, 85, 119
2, 460798, Note_on_c, 0, 73, 111
2, 460802, Note_on_c, 0, 51, 0
2, 460824, Note_on_c, 0, 40, 119
2, 460908, Note_on_c, 0, 40, 0
2, 460918, Note_on_c, 0, 49, 95
2, 460952, Control_c, 0, 64, 127
2, 461004, Note_on_c, 0, 44, 95
2, 461020, Note_on_c, 0, 49, 0
2, 461106, Note_on_c, 0, 49, 71
2, 461109, Note_on_c, 0, 44, 0
2, 461194, Note_on_c, 0, 49, 0
2, 461200, Note_on_c, 0, 85, 0
2, 461202, Note_on_c, 0, 40, 116
2, 461266, Note_on_c, 0, 73, 0
2, 461298, Note_on_c, 0, 40, 0
2, 461304, Note_on_c, 0, 49, 89
2, 461396, Note_on_c, 0, 44, 96
2, 461399, Note_on_c, 0, 49, 0
2, 461510, Note_on_c, 0, 49, 72
2, 461524, Note_on_c, 0, 44, 0
2, 461550, Control_c, 0, 64, 0
2, 461594, Note_on_c, 0, 70, 108
2, 461598, Note_on_c, 0, 82, 104
2, 461612, Note_on_c, 0, 49, 0
2, 461626, Note_on_c, 0, 40, 113
2, 461676, Note_on_c, 0, 83, 120
2, 461698, Note_on_c, 0, 82, 0
2, 461730, Note_on_c, 0, 49, 75
2, 461764, Note_on_c, 0, 82, 70
2, 461806, Note_on_c, 0, 40, 0
2, 461826, Control_c, 0, 64, 127
2, 461842, Note_on_c, 0, 42, 75
2, 461847, Note_on_c, 0, 49, 0
2, 461847, Note_on_c, 0, 83, 0
2, 461866, Note_on_c, 0, 80, 89
2, 461898, Note_on_c, 0, 82, 0
2, 461958, Note_on_c, 0, 82, 96
2, 461970, Note_on_c, 0, 49, 83
2, 461988, Note_on_c, 0, 42, 0
2, 462068, Note_on_c, 0, 70, 0
2, 462072, Control_c, 0, 64, 0
2, 462092, Note_on_c, 0, 71, 118
2, 462092, Note_on_c, 0, 83, 127
2, 462095, Note_on_c, 0, 49, 0
2, 462104, Note_on_c, 0, 39, 100
2, 462156, Note_on_c, 0, 80, 0
2, 462172, Note_on_c, 0, 82, 0
2, 462210, Note_on_c, 0, 47, 87
2, 462274, Note_on_c, 0, 39, 0
2, 462306, Note_on_c, 0, 42, 74
2, 462322, Note_on_c, 0, 47, 0
2, 462380, Control_c, 0, 64, 127
2, 462392, Note_on_c, 0, 47, 83
2, 462420, Note_on_c, 0, 42, 0
2, 462488, Control_c, 0, 64, 0
2, 462506, Note_on_c, 0, 47, 0
2, 462510, Note_on_c, 0, 39, 96
2, 462612, Note_on_c, 0, 47, 51
2, 462618, Note_on_c, 0, 39, 0
2, 462688, Control_c, 0, 64, 127
2, 462702, Note_on_c, 0, 42, 74
2, 462712, Note_on_c, 0, 47, 0
2, 462764, Control_c, 0, 64, 0
2, 462798, Note_on_c, 0, 47, 65
2, 462804, Note_on_c, 0, 42, 0
2, 462886, Control_c, 0, 64, 127
2, 462894, Note_on_c, 0, 83, 0
2, 462896, Note_on_c, 0, 39, 88
2, 462904, Note_on_c, 0, 47, 0
2, 462918, Note_on_c, 0, 71, 0
2, 462968, Note_on_c, 0, 47, 82
2, 463018, Note_on_c, 0, 39, 0
2, 463074, Note_on_c, 0, 47, 0
2, 463086, Note_on_c, 0, 42, 93
2, 463188, Note_on_c, 0, 47, 85
2, 463210, Control_c, 0, 64, 0
2, 463218, Note_on_c, 0, 42, 0
2, 463280, Note_on_c, 0, 80, 121
2, 463286, Note_on_c, 0, 68, 108
2, 463294, Note_on_c, 0, 38, 109
2, 463296, Note_on_c, 0, 47, 0
2, 463396, Note_on_c, 0, 47, 57
2, 463432, Note_on_c, 0, 38, 0
2, 463484, Note_on_c, 0, 40, 100
2, 463487, Note_on_c, 0, 47, 0
2, 463532, Control_c, 0, 64, 127
2, 463572, Note_on_c, 0, 40, 0
2, 463592, Note_on_c, 0, 47, 69
2, 463670, Note_on_c, 0, 47, 0
2, 463699, Note_on_c, 0, 38, 95
2, 463814, Note_on_c, 0, 38, 0
2, 463814, Note_on_c, 0, 47, 73
2, 463880, Note_on_c, 0, 47, 0
2, 463886, Note_on_c, 0, 68, 0
2, 463910, Note_on_c, 0, 40, 94
2, 463974, Note_on_c, 0, 80, 0
2, 464000, Note_on_c, 0, 40, 0
2, 464010, Note_on_c, 0, 47, 81
2, 464038, Control_c, 0, 64, 0
2, 464092, Note_on_c, 0, 47, 0
2, 464106, Note_on_c, 0, 81, 124
2, 464114, Note_on_c, 0, 69, 108
2, 464118, Note_on_c, 0, 37, 102
2, 464222, Note_on_c, 0, 45, 85
2, 464268, Note_on_c, 0, 37, 0
2, 464328, Note_on_c, 0, 40, 98
2, 464340, Note_on_c, 0, 45, 0
2, 464378, Control_c, 0, 64, 127
2, 464420, Note_on_c, 0, 45, 63
2, 464438, Note_on_c, 0, 40, 0
2, 464512, Note_on_c, 0, 45, 0
2, 464526, Note_on_c, 0, 37, 95
2, 464630, Note_on_c, 0, 45, 59
2, 464640, Note_on_c, 0, 37, 0
2, 464668, Note_on_c, 0, 81, 0
2, 464702, Note_on_c, 0, 45, 0
2, 464726, Note_on_c, 0, 69, 0
2, 464734, Note_on_c, 0, 40, 100
2, 464804, Note_on_c, 0, 45, 64
2, 464832, Note_on_c, 0, 40, 0
2, 464868, Control_c, 0, 64, 0
2, 464892, Note_on_c, 0, 45, 0
2, 464922, Note_on_c, 0, 79, 124
2, 464925, Note_on_c, 0, 67, 116
2, 464932, Note_on_c, 0, 37, 109
2, 464960, Note_on_c, 0, 67, 0
2, 464972, Note_on_c, 0, 69, 31
2, 465038, Control_c, 0, 64, 127
2, 465042, Note_on_c, 0, 69, 0
2, 465046, Note_on_c, 0, 80, 95
2, 465050, Note_on_c, 0, 46, 70
2, 465110, Note_on_c, 0, 37, 0
2, 465140, Note_on_c, 0, 39, 79
2, 465146, Note_on_c, 0, 80, 0
2, 465176, Note_on_c, 0, 46, 0
2, 465200, Note_on_c, 0, 77, 94
2, 465216, Note_on_c, 0, 79, 0
2, 465270, Note_on_c, 0, 46, 63
2, 465272, Note_on_c, 0, 79, 110
2, 465340, Note_on_c, 0, 77, 0
2, 465359, Note_on_c, 0, 39, 0
2, 465386, Note_on_c, 0, 46, 0
2, 465404, Note_on_c, 0, 78, 10
2, 465410, Note_on_c, 0, 68, 105
2, 465416, Note_on_c, 0, 80, 116
2, 465422, Note_on_c, 0, 35, 118
2, 465454, Control_c, 0, 64, 0
2, 465457, Note_on_c, 0, 79, 0
2, 465486, Note_on_c, 0, 78, 0
2, 465524, Note_on_c, 0, 44, 96
2, 465638, Note_on_c, 0, 44, 0
2, 465638, Note_on_c, 0, 39, 83
2, 465676, Note_on_c, 0, 35, 0
2, 465698, Control_c, 0, 64, 127
2, 465736, Note_on_c, 0, 44, 77
2, 465768, Note_on_c, 0, 39, 0
2, 465842, Note_on_c, 0, 44, 0
2, 465846, Note_on_c, 0, 35, 111
2, 465954, Note_on_c, 0, 44, 79
2, 465960, Note_on_c, 0, 35, 0
2, 466040, Note_on_c, 0, 39, 87
2, 466062, Note_on_c, 0, 44, 0
2, 466144, Note_on_c, 0, 44, 83
2, 466154, Note_on_c, 0, 39, 0
2, 466258, Note_on_c, 0, 35, 113
2, 466261, Note_on_c, 0, 44, 0
2, 466340, Note_on_c, 0, 68, 0
2, 466350, Note_on_c, 0, 44, 80
2, 466360, Note_on_c, 0, 35, 0
2, 466384, Note_on_c, 0, 80, 0
2, 466446, Note_on_c, 0, 44, 0
2, 466451, Note_on_c, 0, 39, 81
2, 466538, Note_on_c, 0, 44, 89
2, 466568, Note_on_c, 0, 39, 0
2, 466592, Note_on_c, 0, 44, 0
2, 466774, Control_c, 0, 64, 0
2, 466798, Note_on_c, 0, 81, 118
2, 466798, Note_on_c, 0, 69, 111
2, 466798, Note_on_c, 0, 73, 102
2, 466798, Note_on_c, 0, 76, 109
2, 466804, Note_on_c, 0, 49, 115
2, 466810, Note_on_c, 0, 45, 81
2, 466816, Note_on_c, 0, 37, 93
2, 466818, Note_on_c, 0, 40, 92
2, 467220, Control_c, 0, 64, 127
2, 467324, Note_on_c, 0, 49, 0
2, 467324, Note_on_c, 0, 69, 0
2, 467344, Note_on_c, 0, 37, 0
2, 467346, Note_on_c, 0, 45, 0
2, 467358, Note_on_c, 0, 40, 0
2, 467388, Note_on_c, 0, 76, 0
2, 467392, Note_on_c, 0, 73, 0
2, 467744, Control_c, 0, 64, 0
2, 467778, Note_on_c, 0, 76, 69
2, 467808, Note_on_c, 0, 81, 0
2, 467858, Note_on_c, 0, 78, 75
2, 467902, Note_on_c, 0, 76, 0
2, 467954, Note_on_c, 0, 80, 86
2, 467976, Note_on_c, 0, 78, 0
2, 468050, Note_on_c, 0, 80, 0
2, 468050, Note_on_c, 0, 81, 96
2, 468155, Note_on_c, 0, 81, 0
2, 468156, Note_on_c, 0, 83, 113
2, 468248, Note_on_c, 0, 83, 0
2, 468250, Note_on_c, 0, 85, 87
2, 468338, Note_on_c, 0, 83, 113
2, 468392, Note_on_c, 0, 85, 0
2, 468420, Note_on_c, 0, 69, 40
2, 468426, Note_on_c, 0, 61, 40
2, 468430, Note_on_c, 0, 64, 41
2, 468438, Note_on_c, 0, 81, 93
2, 468462, Note_on_c, 0, 83, 0
2, 468506, Note_on_c, 0, 81, 0
2, 468536, Note_on_c, 0, 76, 72
2, 468606, Note_on_c, 0, 69, 0
2, 468631, Note_on_c, 0, 76, 0
2, 468635, Note_on_c, 0, 64, 0
2, 468638, Note_on_c, 0, 78, 77
2, 468652, Note_on_c, 0, 61, 0
2, 468728, Note_on_c, 0, 80, 75
2, 468736, Note_on_c, 0, 78, 0
2, 468825, Note_on_c, 0, 80, 0
2, 468826, Note_on_c, 0, 81, 79
2, 468926, Note_on_c, 0, 81, 0
2, 468936, Note_on_c, 0, 83, 83
2, 469031, Note_on_c, 0, 83, 0
2, 469040, Note_on_c, 0, 85, 55
2, 469140, Note_on_c, 0, 83, 79
2, 469164, Note_on_c, 0, 85, 0
2, 469220, Note_on_c, 0, 81, 69
2, 469220, Note_on_c, 0, 69, 41
2, 469221, Note_on_c, 0, 83, 0
2, 469242, Note_on_c, 0, 61, 36
2, 469248, Note_on_c, 0, 64, 36
2, 469264, Note_on_c, 0, 81, 0
2, 469314, Note_on_c, 0, 76, 58
2, 469396, Note_on_c, 0, 69, 0
2, 469400, Note_on_c, 0, 76, 0
2, 469400, Note_on_c, 0, 78, 71
2, 469434, Note_on_c, 0, 61, 0
2, 469438, Note_on_c, 0, 64, 0
2, 469492, Note_on_c, 0, 80, 71
2, 469498, Note_on_c, 0, 78, 0
2, 469589, Note_on_c, 0, 80, 0
2, 469590, Note_on_c, 0, 81, 81
2, 469694, Note_on_c, 0, 83, 97
2, 469699, Note_on_c, 0, 81, 0
2, 469786, Note_on_c, 0, 85, 67
2, 469797, Note_on_c, 0, 83, 0
2, 469888, Note_on_c, 0, 83, 104
2, 469924, Note_on_c, 0, 85, 0
2, 469981, Note_on_c, 0, 83, 0
2, 469982, Note_on_c, 0, 69, 39
2, 469986, Note_on_c, 0, 81, 79
2, 470002, Note_on_c, 0, 61, 29
2, 470006, Note_on_c, 0, 64, 40
2, 470034, Note_on_c, 0, 81, 0
2, 470084, Note_on_c, 0, 76, 62
2, 470132, Note_on_c, 0, 64, 0
2, 470136, Note_on_c, 0, 69, 0
2, 470138, Control_c, 0, 64, 127
2, 470154, Note_on_c, 0, 61, 0
2, 470172, Note_on_c, 0, 76, 0
2, 470174, Note_on_c, 0, 78, 79
2, 470230, Control_c, 0, 64, 0
2, 470264, Note_on_c, 0, 80, 85
2, 470304, Note_on_c, 0, 78, 0
2, 470322, Note_on_c, 0, 80, 0
2, 470358, Note_on_c, 0, 81, 90
2, 470362, Note_on_c, 0, 69, 57
2, 470378, Note_on_c, 0, 61, 44
2, 470384, Note_on_c, 0, 64, 56
2, 470430, Note_on_c, 0, 81, 0
2, 470448, Note_on_c, 0, 83, 117
2, 470524, Note_on_c, 0, 69, 0
2, 470526, Note_on_c, 0, 61, 0
2, 470538, Control_c, 0, 64, 127
2, 470540, Note_on_c, 0, 64, 0
2, 470550, Note_on_c, 0, 85, 93
2, 470574, Note_on_c, 0, 83, 0
2, 470646, Control_c, 0, 64, 0
2, 470648, Note_on_c, 0, 85, 0
2, 470648, Note_on_c, 0, 86, 95
2, 470714, Note_on_c, 0, 86, 0
2, 470732, Note_on_c, 0, 69, 55
2, 470750, Note_on_c, 0, 88, 98
2, 470750, Note_on_c, 0, 64, 54
2, 470753, Note_on_c, 0, 61, 41
2, 470814, Note_on_c, 0, 88, 0
2, 470844, Note_on_c, 0, 87, 80
2, 470890, Note_on_c, 0, 61, 0
2, 470908, Control_c, 0, 64, 127
2, 470926, Note_on_c, 0, 69, 0
2, 470928, Note_on_c, 0, 64, 0
2, 470932, Note_on_c, 0, 88, 94
2, 470935, Note_on_c, 0, 87, 0
2, 471018, Note_on_c, 0, 87, 73
2, 471030, Control_c, 0, 64, 0
2, 471032, Note_on_c, 0, 88, 0
2, 471124, Note_on_c, 0, 88, 82
2, 471126, Note_on_c, 0, 87, 0
2, 471132, Note_on_c, 0, 69, 52
2, 471148, Note_on_c, 0, 61, 44
2, 471156, Note_on_c, 0, 64, 42
2, 471238, Note_on_c, 0, 85, 79
2, 471264, Note_on_c, 0, 88, 0
2, 471284, Note_on_c, 0, 69, 0
2, 471292, Control_c, 0, 64, 127
2, 471300, Note_on_c, 0, 64, 0
2, 471322, Note_on_c, 0, 61, 0
2, 471332, Note_on_c, 0, 83, 113
2, 471364, Note_on_c, 0, 85, 0
2, 471434, Note_on_c, 0, 81, 87
2, 471442, Note_on_c, 0, 83, 0
2, 471476, Control_c, 0, 64, 0
2, 471532, Note_on_c, 0, 81, 0
2, 471536, Note_on_c, 0, 80, 94
2, 471556, Note_on_c, 0, 63, 44
2, 471628, Note_on_c, 0, 63, 0
2, 471642, Note_on_c, 0, 71, 64
2, 471700, Note_on_c, 0, 71, 0
2, 471748, Note_on_c, 0, 68, 48
2, 471752, Control_c, 0, 64, 127
2, 471808, Note_on_c, 0, 68, 0
2, 471856, Note_on_c, 0, 71, 70
2, 471912, Note_on_c, 0, 71, 0
2, 471950, Note_on_c, 0, 63, 71
2, 472000, Note_on_c, 0, 63, 0
2, 472058, Note_on_c, 0, 71, 71
2, 472090, Control_c, 0, 64, 0
2, 472110, Note_on_c, 0, 71, 0
2, 472132, Note_on_c, 0, 68, 71
2, 472200, Note_on_c, 0, 68, 0
2, 472214, Note_on_c, 0, 80, 0
2, 472214, Control_c, 0, 64, 127
2, 472228, Note_on_c, 0, 71, 59
2, 472276, Note_on_c, 0, 71, 0
2, 472290, Control_c, 0, 64, 0
2, 472320, Note_on_c, 0, 82, 96
2, 472322, Note_on_c, 0, 63, 75
2, 472380, Note_on_c, 0, 63, 0
2, 472383, Note_on_c, 0, 83, 113
2, 472410, Note_on_c, 0, 82, 0
2, 472413, Note_on_c, 0, 73, 70
2, 472426, Note_on_c, 0, 83, 0
2, 472474, Note_on_c, 0, 82, 72
2, 472488, Note_on_c, 0, 73, 0
2, 472491, Control_c, 0, 64, 127
2, 472526, Note_on_c, 0, 82, 0
2, 472534, Note_on_c, 0, 67, 50
2, 472546, Note_on_c, 0, 83, 102
2, 472594, Note_on_c, 0, 83, 0
2, 472594, Note_on_c, 0, 67, 0
2, 472602, Note_on_c, 0, 82, 51
2, 472608, Note_on_c, 0, 73, 65
2, 472698, Note_on_c, 0, 83, 101
2, 472706, Control_c, 0, 64, 0
2, 472722, Note_on_c, 0, 82, 0
2, 472728, Note_on_c, 0, 73, 0
2, 472752, Note_on_c, 0, 63, 71
2, 472776, Note_on_c, 0, 82, 83
2, 472808, Note_on_c, 0, 83, 0
2, 472811, Note_on_c, 0, 63, 0
2, 472828, Control_c, 0, 64, 127
2, 472876, Note_on_c, 0, 73, 47
2, 472886, Note_on_c, 0, 80, 86
2, 472896, Note_on_c, 0, 82, 0
2, 472972, Note_on_c, 0, 82, 74
2, 472984, Note_on_c, 0, 73, 0
2, 472996, Control_c, 0, 64, 0
2, 472998, Note_on_c, 0, 80, 0
2, 473074, Note_on_c, 0, 82, 0
2, 473082, Note_on_c, 0, 80, 103
2, 473082, Note_on_c, 0, 71, 115
2, 473084, Note_on_c, 0, 64, 95
2, 473087, Note_on_c, 0, 68, 71
2, 473112, Note_on_c, 0, 71, 0
2, 473118, Note_on_c, 0, 64, 0
2, 473130, Note_on_c, 0, 68, 0
2, 473176, Note_on_c, 0, 80, 0
2, 473182, Control_c, 0, 64, 127
2, 473589, Note_on_c, 0, 45, 90
2, 473592, Note_on_c, 0, 37, 93
2, 473594, Note_on_c, 0, 57, 116
2, 473594, Note_on_c, 0, 64, 110
2, 473596, Note_on_c, 0, 69, 110
2, 473596, Note_on_c, 0, 49, 104
2, 473599, Note_on_c, 0, 61, 105
2, 473602, Note_on_c, 0, 40, 102
2, 473720, Control_c, 0, 64, 0
2, 473864, Note_on_c, 0, 45, 0
2, 473866, Note_on_c, 0, 37, 0
2, 473876, Note_on_c, 0, 49, 0
2, 473880, Note_on_c, 0, 40, 0
2, 473894, Note_on_c, 0, 57, 0
2, 473908, Note_on_c, 0, 64, 0
2, 473928, Note_on_c, 0, 61, 0
2, 473934, Control_c, 0, 64, 127
2, 474322, Note_on_c, 0, 64, 70
2, 474324, Note_on_c, 0, 69, 0
2, 474364, Control_c, 0, 64, 0
2, 474378, Note_on_c, 0, 64, 0
2, 474398, Note_on_c, 0, 66, 56
2, 474476, Note_on_c, 0, 68, 69
2, 474520, Note_on_c, 0, 66, 0
2, 474569, Note_on_c, 0, 68, 0
2, 474572, Note_on_c, 0, 69, 72
2, 474671, Note_on_c, 0, 69, 0
2, 474676, Note_on_c, 0, 71, 77
2, 474756, Note_on_c, 0, 73, 64
2, 474762, Note_on_c, 0, 71, 0
2, 474850, Note_on_c, 0, 71, 73
2, 474888, Note_on_c, 0, 73, 0
2, 474940, Note_on_c, 0, 71, 0
2, 474942, Note_on_c, 0, 69, 70
2, 474992, Note_on_c, 0, 69, 0
2, 475032, Note_on_c, 0, 64, 79
2, 475130, Note_on_c, 0, 64, 0
2, 475143, Note_on_c, 0, 66, 63
2, 475222, Note_on_c, 0, 68, 65
2, 475232, Note_on_c, 0, 66, 0
2, 475311, Note_on_c, 0, 68, 0
2, 475314, Note_on_c, 0, 57, 74
2, 475314, Note_on_c, 0, 49, 72
2, 475317, Note_on_c, 0, 69, 73
2, 475326, Note_on_c, 0, 52, 85
2, 475374, Note_on_c, 0, 52, 0
2, 475383, Note_on_c, 0, 57, 0
2, 475400, Note_on_c, 0, 49, 0
2, 475414, Note_on_c, 0, 71, 86
2, 475415, Note_on_c, 0, 69, 0
2, 475514, Note_on_c, 0, 71, 0
2, 475514, Note_on_c, 0, 73, 63
2, 475620, Note_on_c, 0, 71, 87
2, 475654, Note_on_c, 0, 73, 0
2, 475698, Note_on_c, 0, 71, 0
2, 475710, Note_on_c, 0, 69, 65
2, 475762, Note_on_c, 0, 69, 0
2, 475802, Note_on_c, 0, 64, 75
2, 475896, Note_on_c, 0, 64, 0
2, 475912, Note_on_c, 0, 66, 59
2, 476000, Note_on_c, 0, 68, 56
2, 476010, Note_on_c, 0, 66, 0
2, 476078, Note_on_c, 0, 57, 65
2, 476090, Note_on_c, 0, 49, 60
2, 476090, Note_on_c, 0, 69, 66
2, 476093, Note_on_c, 0, 52, 69
2, 476095, Note_on_c, 0, 68, 0
2, 476132, Note_on_c, 0, 57, 0
2, 476135, Note_on_c, 0, 52, 0
2, 476148, Note_on_c, 0, 49, 0
2, 476208, Note_on_c, 0, 69, 0
2, 476212, Note_on_c, 0, 71, 49
2, 476300, Note_on_c, 0, 73, 55
2, 476305, Note_on_c, 0, 71, 0
2, 476392, Note_on_c, 0, 71, 55
2, 476442, Note_on_c, 0, 73, 0
2, 476496, Note_on_c, 0, 69, 64
2, 476502, Note_on_c, 0, 71, 0
2, 476548, Note_on_c, 0, 69, 0
2, 476596, Note_on_c, 0, 64, 65
2, 476678, Note_on_c, 0, 64, 0
2, 476678, Note_on_c, 0, 57, 70
2, 476681, Note_on_c, 0, 52, 80
2, 476686, Note_on_c, 0, 49, 64
2, 476694, Note_on_c, 0, 66, 67
2, 476730, Note_on_c, 0, 52, 0
2, 476730, Note_on_c, 0, 57, 0
2, 476744, Note_on_c, 0, 49, 0
2, 476786, Note_on_c, 0, 68, 62
2, 476814, Note_on_c, 0, 66, 0
2, 476868, Note_on_c, 0, 69, 79
2, 476871, Note_on_c, 0, 68, 0
2, 476987, Note_on_c, 0, 69, 0
2, 476990, Note_on_c, 0, 71, 73
2, 477044, Note_on_c, 0, 57, 78
2, 477047, Note_on_c, 0, 49, 82
2, 477048, Note_on_c, 0, 52, 75
2, 477069, Note_on_c, 0, 71, 0
2, 477070, Note_on_c, 0, 73, 70
2, 477098, Note_on_c, 0, 52, 0
2, 477112, Note_on_c, 0, 57, 0
2, 477112, Note_on_c, 0, 49, 0
2, 477154, Note_on_c, 0, 71, 66
2, 477210, Note_on_c, 0, 73, 0
2, 477244, Note_on_c, 0, 69, 72
2, 477276, Note_on_c, 0, 71, 0
2, 477306, Note_on_c, 0, 69, 0
2, 477336, Note_on_c, 0, 64, 80
2, 477432, Note_on_c, 0, 66, 79
2, 477435, Note_on_c, 0, 57, 81
2, 477440, Note_on_c, 0, 64, 0
2, 477440, Note_on_c, 0, 49, 81
2, 477440, Note_on_c, 0, 52, 93
2, 477486, Note_on_c, 0, 52, 0
2, 477489, Note_on_c, 0, 57, 0
2, 477494, Note_on_c, 0, 49, 0
2, 477524, Note_on_c, 0, 68, 79
2, 477556, Note_on_c, 0, 66, 0
2, 477615, Note_on_c, 0, 68, 0
2, 477616, Note_on_c, 0, 69, 81
2, 477720, Note_on_c, 0, 71, 90
2, 477724, Note_on_c, 0, 69, 0
2, 477798, Note_on_c, 0, 73, 85
2, 477798, Note_on_c, 0, 57, 74
2, 477799, Note_on_c, 0, 71, 0
2, 477800, Note_on_c, 0, 49, 78
2, 477804, Note_on_c, 0, 52, 72
2, 477846, Note_on_c, 0, 52, 0
2, 477846, Note_on_c, 0, 49, 0
2, 477852, Note_on_c, 0, 57, 0
2, 477884, Note_on_c, 0, 71, 92
2, 477964, Note_on_c, 0, 73, 0
2, 477976, Note_on_c, 0, 69, 82
2, 477988, Note_on_c, 0, 57, 104
2, 477988, Note_on_c, 0, 49, 100
2, 477994, Note_on_c, 0, 52, 113
2, 478000, Note_on_c, 0, 71, 0
2, 478052, Note_on_c, 0, 69, 0
2, 478066, Note_on_c, 0, 64, 95
2, 478090, Note_on_c, 0, 57, 0
2, 478104, Note_on_c, 0, 49, 0
2, 478112, Note_on_c, 0, 52, 0
2, 478174, Note_on_c, 0, 66, 82
2, 478180, Note_on_c, 0, 64, 0
2, 478270, Note_on_c, 0, 68, 81
2, 478304, Note_on_c, 0, 66, 0
2, 478358, Note_on_c, 0, 68, 0
2, 478358, Note_on_c, 0, 69, 78
2, 478442, Note_on_c, 0, 69, 0
2, 478456, Note_on_c, 0, 71, 102
2, 478550, Note_on_c, 0, 73, 93
2, 478580, Note_on_c, 0, 71, 0
2, 478630, Note_on_c, 0, 73, 0
2, 478650, Note_on_c, 0, 74, 104
2, 478734, Note_on_c, 0, 76, 108
2, 478766, Note_on_c, 0, 74, 0
2, 478822, Note_on_c, 0, 78, 101
2, 478852, Control_c, 0, 64, 127
2, 478874, Note_on_c, 0, 76, 0
2, 478914, Note_on_c, 0, 80, 97
2, 478970, Note_on_c, 0, 78, 0
2, 478996, Note_on_c, 0, 80, 0
2, 479004, Note_on_c, 0, 81, 102
2, 479020, Control_c, 0, 64, 0
2, 479090, Note_on_c, 0, 83, 127
2, 479110, Note_on_c, 0, 81, 0
2, 479182, Note_on_c, 0, 85, 103
2, 479204, Control_c, 0, 64, 127
2, 479218, Note_on_c, 0, 83, 0
2, 479266, Note_on_c, 0, 86, 100
2, 479274, Note_on_c, 0, 85, 0
2, 479362, Note_on_c, 0, 87, 101
2, 479380, Note_on_c, 0, 86, 0
2, 479440, Note_on_c, 0, 87, 0
2, 479496, Control_c, 0, 64, 0
2, 479504, Note_on_c, 0, 88, 124
2, 479510, Note_on_c, 0, 76, 116
2, 479520, Note_on_c, 0, 49, 75
2, 479604, Note_on_c, 0, 57, 64
2, 479650, Control_c, 0, 64, 127
2, 479690, Note_on_c, 0, 57, 0
2, 479712, Note_on_c, 0, 49, 0
2, 479720, Note_on_c, 0, 52, 72
2, 479796, Note_on_c, 0, 52, 0
2, 479820, Note_on_c, 0, 88, 0
2, 479820, Note_on_c, 0, 57, 66
2, 479890, Note_on_c, 0, 57, 0
2, 479920, Note_on_c, 0, 49, 80
2, 480008, Note_on_c, 0, 57, 48
2, 480082, Note_on_c, 0, 57, 0
2, 480085, Note_on_c, 0, 49, 0
2, 480104, Note_on_c, 0, 52, 87
2, 480188, Note_on_c, 0, 57, 66
2, 480210, Note_on_c, 0, 52, 0
2, 480274, Note_on_c, 0, 57, 0
2, 480274, Note_on_c, 0, 80, 120
2, 480280, Note_on_c, 0, 68, 112
2, 480296, Note_on_c, 0, 50, 105
2, 480326, Control_c, 0, 64, 0
2, 480340, Note_on_c, 0, 76, 0
2, 480402, Note_on_c, 0, 59, 74
2, 480486, Note_on_c, 0, 53, 108
2, 480490, Note_on_c, 0, 50, 0
2, 480494, Note_on_c, 0, 59, 0
2, 480526, Control_c, 0, 64, 127
2, 480580, Note_on_c, 0, 59, 69
2, 480598, Note_on_c, 0, 53, 0
2, 480670, Note_on_c, 0, 59, 0
2, 480672, Note_on_c, 0, 50, 100
2, 480734, Note_on_c, 0, 68, 0
2, 480766, Note_on_c, 0, 59, 63
2, 480786, Note_on_c, 0, 50, 0
2, 480868, Note_on_c, 0, 53, 115
2, 480871, Note_on_c, 0, 59, 0
2, 480956, Note_on_c, 0, 59, 89
2, 480972, Note_on_c, 0, 53, 0
2, 481002, Control_c, 0, 64, 0
2, 481022, Note_on_c, 0, 80, 0
2, 481040, Note_on_c, 0, 71, 127
2, 481042, Note_on_c, 0, 83, 127
2, 481048, Note_on_c, 0, 59, 0
2, 481068, Note_on_c, 0, 51, 105
2, 481142, Note_on_c, 0, 59, 72
2, 481218, Control_c, 0, 64, 127
2, 481236, Note_on_c, 0, 56, 83
2, 481256, Note_on_c, 0, 59, 0
2, 481274, Note_on_c, 0, 83, 0
2, 481286, Note_on_c, 0, 51, 0
2, 481330, Note_on_c, 0, 59, 89
2, 481362, Note_on_c, 0, 71, 0
2, 481362, Note_on_c, 0, 56, 0
2, 481430, Note_on_c, 0, 59, 0
2, 481448, Note_on_c, 0, 51, 86
2, 481558, Note_on_c, 0, 59, 70
2, 481600, Note_on_c, 0, 59, 0
2, 481660, Note_on_c, 0, 56, 46
2, 481702, Note_on_c, 0, 59, 64
2, 481742, Note_on_c, 0, 59, 0
2, 481760, Note_on_c, 0, 56, 0
2, 481786, Note_on_c, 0, 51, 0
2, 481848, Control_c, 0, 64, 0
2, 481851, Note_on_c, 0, 67, 111
2, 481851, Note_on_c, 0, 55, 121
2, 481855, Note_on_c, 0, 61, 102
2, 481868, Note_on_c, 0, 39, 109
2, 481960, Note_on_c, 0, 51, 100
2, 481980, Note_on_c, 0, 39, 0
2, 482032, Control_c, 0, 64, 127
2, 482080, Note_on_c, 0, 50, 89
2, 482088, Note_on_c, 0, 51, 0
2, 482154, Note_on_c, 0, 50, 0
2, 482160, Note_on_c, 0, 51, 82
2, 482254, Note_on_c, 0, 51, 0
2, 482256, Note_on_c, 0, 50, 83
2, 482350, Note_on_c, 0, 51, 82
2, 482372, Note_on_c, 0, 50, 0
2, 482384, Note_on_c, 0, 55, 0
2, 482432, Note_on_c, 0, 50, 101
2, 482454, Note_on_c, 0, 67, 0
2, 482457, Note_on_c, 0, 51, 0
2, 482474, Note_on_c, 0, 61, 0
2, 482548, Note_on_c, 0, 50, 0
2, 482552, Note_on_c, 0, 51, 90
2, 482650, Note_on_c, 0, 51, 0
2, 482662, Control_c, 0, 64, 0
2, 482678, Note_on_c, 0, 44, 113
2, 482680, Note_on_c, 0, 68, 98
2, 482680, Note_on_c, 0, 56, 96
2, 482680, Note_on_c, 0, 59, 85
2, 482758, Note_on_c, 0, 56, 0
2, 482768, Note_on_c, 0, 59, 0
2, 482790, Note_on_c, 0, 44, 0
2, 482800, Control_c, 0, 64, 127
2, 482815, Note_on_c, 0, 68, 0
2, 482928, Note_on_c, 0, 71, 86
2, 482930, Note_on_c, 0, 56, 85
2, 482932, Note_on_c, 0, 63, 81
2, 482954, Control_c, 0, 64, 0
2, 482982, Note_on_c, 0, 56, 0
2, 482986, Note_on_c, 0, 71, 0
2, 482996, Note_on_c, 0, 63, 0
2, 483116, Note_on_c, 0, 71, 79
2, 483126, Note_on_c, 0, 56, 73
2, 483126, Note_on_c, 0, 63, 62
2, 483174, Note_on_c, 0, 56, 0
2, 483176, Note_on_c, 0, 71, 0
2, 483184, Note_on_c, 0, 63, 0
2, 483318, Note_on_c, 0, 63, 57
2, 483320, Note_on_c, 0, 56, 46
2, 483322, Note_on_c, 0, 71, 78
2, 483372, Note_on_c, 0, 63, 0
2, 483374, Note_on_c, 0, 71, 0
2, 483382, Note_on_c, 0, 56, 0
2, 483508, Note_on_c, 0, 71, 64
2, 483512, Note_on_c, 0, 63, 58
2, 483520, Note_on_c, 0, 56, 46
2, 483562, Note_on_c, 0, 63, 0
2, 483562, Note_on_c, 0, 71, 0
2, 483576, Note_on_c, 0, 56, 0
2, 483706, Note_on_c, 0, 56, 57
2, 483712, Note_on_c, 0, 71, 63
2, 483716, Note_on_c, 0, 63, 54
2, 483760, Note_on_c, 0, 56, 0
2, 483766, Note_on_c, 0, 63, 0
2, 483766, Note_on_c, 0, 71, 0
2, 483886, Note_on_c, 0, 63, 43
2, 483888, Note_on_c, 0, 58, 40
2, 483889, Note_on_c, 0, 70, 50
2, 483940, Note_on_c, 0, 63, 0
2, 483950, Note_on_c, 0, 70, 0
2, 483950, Note_on_c, 0, 58, 0
2, 484078, Note_on_c, 0, 68, 58
2, 484086, Note_on_c, 0, 59, 56
2, 484089, Note_on_c, 0, 63, 59
2, 484130, Note_on_c, 0, 68, 0
2, 484134, Note_on_c, 0, 59, 0
2, 484148, Note_on_c, 0, 63, 0
2, 484268, Note_on_c, 0, 61, 66
2, 484272, Note_on_c, 0, 51, 72
2, 484272, Note_on_c, 0, 67, 73
2, 484276, Note_on_c, 0, 63, 54
2, 484316, Note_on_c, 0, 51, 0
2, 484318, Note_on_c, 0, 61, 0
2, 484318, Note_on_c, 0, 67, 0
2, 484324, Note_on_c, 0, 63, 0
2, 484444, Note_on_c, 0, 75, 79
2, 484472, Note_on_c, 0, 63, 32
2, 484474, Note_on_c, 0, 61, 50
2, 484474, Note_on_c, 0, 67, 47
2, 484490, Note_on_c, 0, 75, 0
2, 484532, Note_on_c, 0, 61, 0
2, 484535, Note_on_c, 0, 67, 0
2, 484538, Note_on_c, 0, 63, 0
2, 484630, Note_on_c, 0, 67, 55
2, 484632, Note_on_c, 0, 63, 48
2, 484634, Note_on_c, 0, 75, 85
2, 484634, Note_on_c, 0, 61, 44
2, 484682, Note_on_c, 0, 75, 0
2, 484696, Note_on_c, 0, 61, 0
2, 484698, Note_on_c, 0, 67, 0
2, 484708, Note_on_c, 0, 63, 0
2, 484816, Note_on_c, 0, 67, 72
2, 484822, Note_on_c, 0, 75, 83
2, 484822, Note_on_c, 0, 63, 60
2, 484826, Note_on_c, 0, 61, 51
2, 484870, Note_on_c, 0, 75, 0
2, 484870, Note_on_c, 0, 67, 0
2, 484876, Note_on_c, 0, 63, 0
2, 484882, Note_on_c, 0, 61, 0
2, 485008, Note_on_c, 0, 67, 83
2, 485010, Note_on_c, 0, 75, 87
2, 485012, Note_on_c, 0, 61, 54
2, 485012, Note_on_c, 0, 63, 62
2, 485066, Note_on_c, 0, 61, 0
2, 485066, Note_on_c, 0, 67, 0
2, 485066, Note_on_c, 0, 75, 0
2, 485069, Note_on_c, 0, 63, 0
2, 485192, Note_on_c, 0, 75, 89
2, 485196, Note_on_c, 0, 67, 89
2, 485202, Note_on_c, 0, 63, 75
2, 485210, Note_on_c, 0, 61, 71
2, 485244, Note_on_c, 0, 67, 0
2, 485252, Note_on_c, 0, 75, 0
2, 485258, Note_on_c, 0, 61, 0
2, 485260, Note_on_c, 0, 63, 0
2, 485378, Note_on_c, 0, 75, 86
2, 485384, Note_on_c, 0, 59, 80
2, 485384, Note_on_c, 0, 68, 82
2, 485390, Note_on_c, 0, 63, 66
2, 485428, Note_on_c, 0, 75, 0
2, 485434, Note_on_c, 0, 59, 0
2, 485440, Note_on_c, 0, 63, 0
2, 485470, Note_on_c, 0, 68, 0
2, 485554, Note_on_c, 0, 63, 66
2, 485554, Note_on_c, 0, 70, 77
2, 485556, Note_on_c, 0, 58, 65
2, 485564, Note_on_c, 0, 75, 89
2, 485596, Note_on_c, 0, 63, 0
2, 485600, Note_on_c, 0, 58, 0
2, 485610, Note_on_c, 0, 75, 0
2, 485616, Note_on_c, 0, 70, 0
2, 485741, Note_on_c, 0, 75, 83
2, 485744, Note_on_c, 0, 56, 73
2, 485744, Note_on_c, 0, 71, 79
2, 485748, Note_on_c, 0, 44, 90
2, 485782, Note_on_c, 0, 75, 0
2, 485786, Note_on_c, 0, 44, 0
2, 485788, Note_on_c, 0, 71, 0
2, 485794, Note_on_c, 0, 56, 0
2, 485916, Note_on_c, 0, 71, 69
2, 485920, Note_on_c, 0, 63, 80
2, 485924, Note_on_c, 0, 56, 69
2, 485972, Note_on_c, 0, 63, 0
2, 485980, Note_on_c, 0, 56, 0
2, 485980, Note_on_c, 0, 71, 0
2, 486100, Note_on_c, 0, 71, 71
2, 486112, Note_on_c, 0, 56, 59
2, 486112, Note_on_c, 0, 63, 58
2, 486160, Note_on_c, 0, 71, 0
2, 486164, Note_on_c, 0, 63, 0
2, 486166, Note_on_c, 0, 56, 0
2, 486296, Note_on_c, 0, 71, 65
2, 486300, Note_on_c, 0, 63, 48
2, 486300, Note_on_c, 0, 56, 47
2, 486354, Note_on_c, 0, 71, 0
2, 486356, Note_on_c, 0, 63, 0
2, 486362, Note_on_c, 0, 56, 0
2, 486476, Note_on_c, 0, 63, 57
2, 486476, Note_on_c, 0, 71, 71
2, 486476, Note_on_c, 0, 56, 66
2, 486530, Note_on_c, 0, 56, 0
2, 486534, Note_on_c, 0, 71, 0
2, 486538, Note_on_c, 0, 63, 0
2, 486658, Note_on_c, 0, 71, 65
2, 486661, Note_on_c, 0, 63, 51
2, 486666, Note_on_c, 0, 56, 58
2, 486712, Note_on_c, 0, 71, 0
2, 486714, Note_on_c, 0, 63, 0
2, 486720, Note_on_c, 0, 56, 0
2, 486828, Note_on_c, 0, 70, 57
2, 486834, Note_on_c, 0, 63, 52
2, 486836, Note_on_c, 0, 58, 49
2, 486892, Note_on_c, 0, 63, 0
2, 486898, Note_on_c, 0, 70, 0
2, 486900, Note_on_c, 0, 58, 0
2, 487014, Note_on_c, 0, 68, 59
2, 487020, Note_on_c, 0, 63, 46
2, 487022, Note_on_c, 0, 59, 63
2, 487068, Note_on_c, 0, 59, 0
2, 487070, Note_on_c, 0, 68, 0
2, 487084, Note_on_c, 0, 63, 0
2, 487202, Note_on_c, 0, 61, 33
2, 487204, Note_on_c, 0, 63, 47
2, 487204, Note_on_c, 0, 51, 66
2, 487207, Note_on_c, 0, 67, 73
2, 487250, Note_on_c, 0, 67, 0
2, 487254, Note_on_c, 0, 51, 0
2, 487254, Note_on_c, 0, 63, 0
2, 487274, Note_on_c, 0, 61, 0
2, 487302, Control_c, 0, 64, 127
2, 487348, Control_c, 0, 64, 0
2, 487382, Note_on_c, 0, 75, 64
2, 487392, Note_on_c, 0, 67, 34
2, 487395, Note_on_c, 0, 63, 41
2, 487396, Note_on_c, 0, 61, 47
2, 487432, Note_on_c, 0, 75, 0
2, 487454, Note_on_c, 0, 63, 0
2, 487462, Note_on_c, 0, 61, 0
2, 487464, Note_on_c, 0, 67, 0
2, 487560, Note_on_c, 0, 63, 57
2, 487560, Note_on_c, 0, 67, 59
2, 487562, Note_on_c, 0, 61, 43
2, 487570, Note_on_c, 0, 75, 72
2, 487618, Note_on_c, 0, 75, 0
2, 487618, Note_on_c, 0, 61, 0
2, 487626, Note_on_c, 0, 67, 0
2, 487626, Note_on_c, 0, 63, 0
2, 487740, Note_on_c, 0, 67, 80
2, 487744, Note_on_c, 0, 75, 77
2, 487746, Note_on_c, 0, 63, 64
2, 487752, Note_on_c, 0, 61, 50
2, 487798, Note_on_c, 0, 67, 0
2, 487804, Note_on_c, 0, 75, 0
2, 487804, Note_on_c, 0, 61, 0
2, 487808, Note_on_c, 0, 63, 0
2, 487922, Note_on_c, 0, 75, 87
2, 487928, Note_on_c, 0, 67, 90
2, 487928, Note_on_c, 0, 63, 71
2, 487931, Note_on_c, 0, 61, 63
2, 487984, Note_on_c, 0, 61, 0
2, 487987, Note_on_c, 0, 67, 0
2, 488004, Note_on_c, 0, 63, 0
2, 488030, Note_on_c, 0, 75, 0
2, 488092, Note_on_c, 0, 75, 86
2, 488098, Note_on_c, 0, 67, 87
2, 488102, Note_on_c, 0, 63, 73
2, 488110, Note_on_c, 0, 61, 72
2, 488170, Note_on_c, 0, 67, 0
2, 488174, Note_on_c, 0, 61, 0
2, 488194, Note_on_c, 0, 75, 0
2, 488210, Note_on_c, 0, 63, 0
2, 488262, Note_on_c, 0, 68, 86
2, 488268, Note_on_c, 0, 75, 87
2, 488274, Note_on_c, 0, 63, 86
2, 488280, Note_on_c, 0, 59, 74
2, 488334, Note_on_c, 0, 59, 0
2, 488364, Note_on_c, 0, 63, 0
2, 488370, Note_on_c, 0, 68, 0
2, 488380, Note_on_c, 0, 75, 0
2, 488440, Note_on_c, 0, 75, 89
2, 488443, Note_on_c, 0, 63, 78
2, 488443, Note_on_c, 0, 70, 80
2, 488452, Note_on_c, 0, 58, 69
2, 488484, Note_on_c, 0, 63, 0
2, 488496, Note_on_c, 0, 58, 0
2, 488514, Note_on_c, 0, 70, 0
2, 488540, Note_on_c, 0, 75, 0
2, 488624, Note_on_c, 0, 75, 75
2, 488626, Note_on_c, 0, 44, 96
2, 488630, Note_on_c, 0, 71, 96
2, 488662, Note_on_c, 0, 44, 0
2, 488674, Note_on_c, 0, 71, 0
2, 488716, Note_on_c, 0, 75, 0
2, 488746, Control_c, 0, 64, 127
2, 488816, Note_on_c, 0, 75, 71
2, 488822, Note_on_c, 0, 71, 104
2, 488828, Note_on_c, 0, 56, 66
2, 488838, Control_c, 0, 64, 0
2, 488840, Note_on_c, 0, 59, 62
2, 488876, Note_on_c, 0, 71, 0
2, 488884, Note_on_c, 0, 59, 0
2, 488886, Note_on_c, 0, 56, 0
2, 488920, Note_on_c, 0, 75, 0
2, 489006, Note_on_c, 0, 75, 70
2, 489006, Note_on_c, 0, 71, 104
2, 489020, Note_on_c, 0, 59, 59
2, 489030, Note_on_c, 0, 56, 69
2, 489092, Note_on_c, 0, 59, 0
2, 489094, Note_on_c, 0, 71, 0
2, 489182, Note_on_c, 0, 56, 0
2, 489194, Note_on_c, 0, 71, 70
2, 489194, Note_on_c, 0, 63, 75
2, 489202, Note_on_c, 0, 68, 60
2, 489202, Note_on_c, 0, 59, 64
2, 489230, Note_on_c, 0, 75, 0
2, 489240, Note_on_c, 0, 63, 0
2, 489254, Note_on_c, 0, 59, 0
2, 489310, Note_on_c, 0, 68, 0
2, 489316, Note_on_c, 0, 71, 0
2, 489384, Note_on_c, 0, 49, 89
2, 489426, Note_on_c, 0, 49, 0
2, 489484, Control_c, 0, 64, 127
2, 489576, Control_c, 0, 64, 0
2, 489578, Note_on_c, 0, 73, 62
2, 489578, Note_on_c, 0, 76, 75
2, 489580, Note_on_c, 0, 56, 58
2, 489586, Note_on_c, 0, 61, 71
2, 489628, Note_on_c, 0, 76, 0
2, 489631, Note_on_c, 0, 56, 0
2, 489634, Note_on_c, 0, 73, 0
2, 489638, Note_on_c, 0, 61, 0
2, 489770, Note_on_c, 0, 76, 79
2, 489770, Note_on_c, 0, 73, 66
2, 489780, Note_on_c, 0, 61, 62
2, 489786, Note_on_c, 0, 56, 58
2, 489834, Note_on_c, 0, 73, 0
2, 489838, Note_on_c, 0, 61, 0
2, 489944, Note_on_c, 0, 73, 49
2, 489944, Note_on_c, 0, 68, 50
2, 489947, Note_on_c, 0, 61, 62
2, 489950, Note_on_c, 0, 64, 56
2, 489958, Note_on_c, 0, 56, 0
2, 489970, Note_on_c, 0, 76, 0
2, 490002, Note_on_c, 0, 64, 0
2, 490006, Note_on_c, 0, 61, 0
2, 490058, Note_on_c, 0, 73, 0
2, 490064, Note_on_c, 0, 68, 0
2, 490114, Control_c, 0, 64, 127
2, 490124, Note_on_c, 0, 51, 88
2, 490160, Control_c, 0, 64, 0
2, 490190, Note_on_c, 0, 51, 0
2, 490300, Note_on_c, 0, 75, 73
2, 490310, Note_on_c, 0, 71, 79
2, 490316, Note_on_c, 0, 59, 66
2, 490322, Note_on_c, 0, 56, 65
2, 490360, Note_on_c, 0, 71, 0
2, 490366, Note_on_c, 0, 59, 0
2, 490380, Note_on_c, 0, 75, 0
2, 490382, Note_on_c, 0, 56, 0
2, 490494, Note_on_c, 0, 75, 64
2, 490504, Note_on_c, 0, 71, 73
2, 490518, Note_on_c, 0, 56, 57
2, 490536, Note_on_c, 0, 59, 33
2, 490552, Note_on_c, 0, 71, 0
2, 490598, Note_on_c, 0, 59, 0
2, 490628, Note_on_c, 0, 56, 0
2, 490686, Note_on_c, 0, 63, 71
2, 490688, Note_on_c, 0, 68, 48
2, 490694, Note_on_c, 0, 71, 25
2, 490696, Note_on_c, 0, 59, 33
2, 490704, Note_on_c, 0, 75, 0
2, 490744, Control_c, 0, 64, 127
2, 490747, Note_on_c, 0, 63, 0
2, 490756, Note_on_c, 0, 59, 0
2, 490768, Note_on_c, 0, 71, 0
2, 490778, Note_on_c, 0, 68, 0
2, 490820, Control_c, 0, 64, 0
2, 490876, Note_on_c, 0, 51, 73
2, 490960, Note_on_c, 0, 51, 0
2, 491040, Note_on_c, 0, 75, 59
2, 491044, Note_on_c, 0, 70, 59
2, 491046, Note_on_c, 0, 55, 50
2, 491052, Note_on_c, 0, 58, 55
2, 491098, Note_on_c, 0, 70, 0
2, 491098, Note_on_c, 0, 75, 0
2, 491100, Note_on_c, 0, 55, 0
2, 491110, Note_on_c, 0, 58, 0
2, 491222, Note_on_c, 0, 55, 31
2, 491242, Note_on_c, 0, 75, 63
2, 491242, Note_on_c, 0, 70, 57
2, 491280, Note_on_c, 0, 58, 27
2, 491298, Note_on_c, 0, 55, 0
2, 491316, Note_on_c, 0, 70, 0
2, 491358, Note_on_c, 0, 58, 0
2, 491404, Control_c, 0, 64, 127
2, 491416, Note_on_c, 0, 58, 56
2, 491432, Note_on_c, 0, 75, 0
2, 491432, Note_on_c, 0, 70, 44
2, 491435, Note_on_c, 0, 67, 59
2, 491439, Note_on_c, 0, 63, 20
2, 491466, Note_on_c, 0, 58, 0
2, 491498, Note_on_c, 0, 63, 0
2, 491498, Note_on_c, 0, 67, 0
2, 491506, Note_on_c, 0, 70, 0
2, 491604, Control_c, 0, 64, 0
2, 491656, Note_on_c, 0, 68, 55
2, 491658, Note_on_c, 0, 71, 81
2, 491660, Note_on_c, 0, 32, 67
2, 491704, Note_on_c, 0, 32, 0
2, 491708, Note_on_c, 0, 71, 0
2, 491708, Note_on_c, 0, 68, 0
2, 491772, Control_c, 0, 64, 127
2, 491892, Note_on_c, 0, 44, 67
2, 491897, Note_on_c, 0, 51, 58
2, 491900, Note_on_c, 0, 83, 64
2, 491900, Note_on_c, 0, 71, 63
2, 491910, Control_c, 0, 64, 0
2, 491950, Note_on_c, 0, 44, 0
2, 491952, Note_on_c, 0, 51, 0
2, 491954, Note_on_c, 0, 83, 0
2, 491960, Note_on_c, 0, 71, 0
2, 492066, Note_on_c, 0, 83, 92
2, 492066, Note_on_c, 0, 71, 62
2, 492074, Note_on_c, 0, 75, 66
2, 492076, Note_on_c, 0, 51, 55
2, 492080, Note_on_c, 0, 44, 48
2, 492126, Note_on_c, 0, 83, 0
2, 492128, Note_on_c, 0, 71, 0
2, 492128, Note_on_c, 0, 75, 0
2, 492138, Note_on_c, 0, 51, 0
2, 492138, Note_on_c, 0, 44, 0
2, 492244, Note_on_c, 0, 83, 115
2, 492248, Note_on_c, 0, 71, 85
2, 492258, Note_on_c, 0, 75, 65
2, 492264, Note_on_c, 0, 51, 60
2, 492270, Note_on_c, 0, 44, 52
2, 492314, Note_on_c, 0, 75, 0
2, 492314, Note_on_c, 0, 71, 0
2, 492320, Note_on_c, 0, 51, 0
2, 492328, Note_on_c, 0, 44, 0
2, 492338, Note_on_c, 0, 83, 0
2, 492412, Note_on_c, 0, 83, 121
2, 492420, Note_on_c, 0, 71, 98
2, 492424, Note_on_c, 0, 75, 79
2, 492426, Note_on_c, 0, 51, 66
2, 492430, Note_on_c, 0, 44, 70
2, 492484, Note_on_c, 0, 44, 0
2, 492484, Note_on_c, 0, 71, 0
2, 492496, Note_on_c, 0, 51, 0
2, 492499, Note_on_c, 0, 75, 0
2, 492520, Note_on_c, 0, 83, 0
2, 492586, Note_on_c, 0, 83, 118
2, 492592, Note_on_c, 0, 51, 80
2, 492596, Note_on_c, 0, 75, 77
2, 492602, Note_on_c, 0, 44, 81
2, 492602, Note_on_c, 0, 71, 72
2, 492638, Note_on_c, 0, 83, 0
2, 492656, Note_on_c, 0, 71, 0
2, 492666, Note_on_c, 0, 44, 0
2, 492678, Note_on_c, 0, 51, 0
2, 492700, Note_on_c, 0, 75, 0
2, 492754, Note_on_c, 0, 70, 101
2, 492757, Note_on_c, 0, 82, 93
2, 492764, Note_on_c, 0, 73, 85
2, 492766, Note_on_c, 0, 51, 81
2, 492778, Note_on_c, 0, 46, 82
2, 492822, Note_on_c, 0, 82, 0
2, 492842, Note_on_c, 0, 51, 0
2, 492842, Note_on_c, 0, 70, 0
2, 492852, Note_on_c, 0, 46, 0
2, 492866, Note_on_c, 0, 73, 0
2, 492926, Note_on_c, 0, 80, 109
2, 492928, Note_on_c, 0, 68, 93
2, 492928, Note_on_c, 0, 71, 102
2, 492938, Note_on_c, 0, 51, 86
2, 492948, Note_on_c, 0, 47, 96
2, 493000, Note_on_c, 0, 47, 0
2, 493014, Note_on_c, 0, 51, 0
2, 493034, Note_on_c, 0, 68, 0
2, 493036, Note_on_c, 0, 71, 0
2, 493038, Note_on_c, 0, 80, 0
2, 493114, Note_on_c, 0, 49, 103
2, 493118, Note_on_c, 0, 70, 101
2, 493118, Note_on_c, 0, 67, 116
2, 493120, Note_on_c, 0, 39, 97
2, 493120, Note_on_c, 0, 79, 121
2, 493150, Note_on_c, 0, 67, 0
2, 493152, Note_on_c, 0, 39, 0
2, 493152, Note_on_c, 0, 49, 0
2, 493158, Note_on_c, 0, 70, 0
2, 493202, Control_c, 0, 64, 127
2, 493226, Note_on_c, 0, 79, 0
2, 493320, Note_on_c, 0, 88, 121
2, 493325, Control_c, 0, 64, 0
2, 493325, Note_on_c, 0, 79, 96
2, 493325, Note_on_c, 0, 61, 95
2, 493329, Note_on_c, 0, 76, 102
2, 493334, Note_on_c, 0, 51, 83
2, 493364, Note_on_c, 0, 76, 0
2, 493372, Note_on_c, 0, 61, 0
2, 493378, Note_on_c, 0, 51, 0
2, 493386, Note_on_c, 0, 88, 0
2, 493412, Note_on_c, 0, 79, 0
2, 493498, Note_on_c, 0, 76, 112
2, 493500, Note_on_c, 0, 88, 121
2, 493500, Note_on_c, 0, 79, 104
2, 493504, Note_on_c, 0, 61, 104
2, 493512, Note_on_c, 0, 51, 88
2, 493558, Note_on_c, 0, 51, 0
2, 493562, Note_on_c, 0, 61, 0
2, 493582, Note_on_c, 0, 88, 0
2, 493594, Note_on_c, 0, 79, 0
2, 493610, Note_on_c, 0, 76, 0
2, 493668, Note_on_c, 0, 88, 96
2, 493668, Note_on_c, 0, 79, 102
2, 493668, Note_on_c, 0, 76, 110
2, 493671, Note_on_c, 0, 61, 103
2, 493682, Note_on_c, 0, 51, 94
2, 493732, Note_on_c, 0, 51, 0
2, 493758, Note_on_c, 0, 76, 0
2, 493772, Note_on_c, 0, 61, 0
2, 493784, Note_on_c, 0, 79, 0
2, 493792, Note_on_c, 0, 88, 0
2, 493844, Note_on_c, 0, 61, 96
2, 493846, Note_on_c, 0, 88, 119
2, 493849, Note_on_c, 0, 76, 102
2, 493852, Note_on_c, 0, 79, 111
2, 493860, Note_on_c, 0, 51, 101
2, 493904, Note_on_c, 0, 51, 0
2, 493930, Note_on_c, 0, 88, 0
2, 493942, Note_on_c, 0, 76, 0
2, 493952, Note_on_c, 0, 61, 0
2, 493960, Note_on_c, 0, 79, 0
2, 494018, Note_on_c, 0, 61, 102
2, 494024, Note_on_c, 0, 76, 97
2, 494024, Note_on_c, 0, 88, 120
2, 494027, Note_on_c, 0, 79, 115
2, 494040, Note_on_c, 0, 51, 101
2, 494076, Note_on_c, 0, 51, 0
2, 494097, Note_on_c, 0, 88, 0
2, 494108, Note_on_c, 0, 61, 0
2, 494116, Note_on_c, 0, 76, 0
2, 494166, Note_on_c, 0, 79, 0
2, 494200, Note_on_c, 0, 75, 118
2, 494200, Note_on_c, 0, 87, 115
2, 494206, Note_on_c, 0, 59, 109
2, 494208, Note_on_c, 0, 51, 108
2, 494210, Note_on_c, 0, 79, 111
2, 494248, Note_on_c, 0, 51, 0
2, 494268, Note_on_c, 0, 59, 0
2, 494306, Note_on_c, 0, 87, 0
2, 494310, Note_on_c, 0, 75, 0
2, 494342, Note_on_c, 0, 79, 0
2, 494368, Note_on_c, 0, 58, 101
2, 494371, Note_on_c, 0, 85, 116
2, 494374, Note_on_c, 0, 73, 118
2, 494382, Note_on_c, 0, 51, 105
2, 494384, Note_on_c, 0, 79, 102
2, 494406, Note_on_c, 0, 58, 0
2, 494424, Note_on_c, 0, 51, 0
2, 494476, Note_on_c, 0, 85, 0
2, 494482, Note_on_c, 0, 79, 0
2, 494485, Note_on_c, 0, 73, 0
2, 494524, Control_c, 0, 64, 127
2, 494554, Note_on_c, 0, 71, 126
2, 494554, Note_on_c, 0, 83, 127
2, 494558, Note_on_c, 0, 44, 116
2, 494558, Note_on_c, 0, 80, 101
2, 494562, Note_on_c, 0, 32, 105
2, 494590, Note_on_c, 0, 32, 0
2, 494602, Note_on_c, 0, 44, 0
2, 494640, Note_on_c, 0, 71, 0
2, 494648, Note_on_c, 0, 83, 0
2, 494668, Note_on_c, 0, 80, 0
2, 494724, Control_c, 0, 64, 0
2, 494748, Note_on_c, 0, 71, 102
2, 494750, Note_on_c, 0, 83, 115
2, 494750, Note_on_c, 0, 44, 95
2, 494752, Note_on_c, 0, 51, 89
2, 494754, Note_on_c, 0, 75, 86
2, 494802, Note_on_c, 0, 51, 0
2, 494810, Note_on_c, 0, 75, 0
2, 494812, Note_on_c, 0, 44, 0
2, 494830, Note_on_c, 0, 71, 0
2, 494850, Note_on_c, 0, 83, 0
2, 494914, Note_on_c, 0, 51, 74
2, 494914, Note_on_c, 0, 75, 74
2, 494918, Note_on_c, 0, 83, 115
2, 494921, Note_on_c, 0, 71, 86
2, 494921, Note_on_c, 0, 44, 79
2, 494974, Note_on_c, 0, 75, 0
2, 494976, Note_on_c, 0, 51, 0
2, 495008, Note_on_c, 0, 44, 0
2, 495024, Note_on_c, 0, 83, 0
2, 495024, Note_on_c, 0, 71, 0
2, 495094, Note_on_c, 0, 71, 81
2, 495096, Note_on_c, 0, 83, 108
2, 495100, Note_on_c, 0, 75, 70
2, 495103, Note_on_c, 0, 51, 67
2, 495110, Note_on_c, 0, 44, 73
2, 495166, Note_on_c, 0, 51, 0
2, 495168, Note_on_c, 0, 44, 0
2, 495172, Note_on_c, 0, 75, 0
2, 495196, Note_on_c, 0, 83, 0
2, 495199, Note_on_c, 0, 71, 0
2, 495268, Note_on_c, 0, 83, 111
2, 495268, Note_on_c, 0, 51, 63
2, 495272, Note_on_c, 0, 71, 86
2, 495272, Note_on_c, 0, 75, 66
2, 495274, Note_on_c, 0, 44, 77
2, 495336, Note_on_c, 0, 44, 0
2, 495348, Note_on_c, 0, 51, 0
2, 495359, Note_on_c, 0, 83, 0
2, 495376, Note_on_c, 0, 71, 0
2, 495384, Note_on_c, 0, 75, 0
2, 495456, Note_on_c, 0, 83, 116
2, 495458, Note_on_c, 0, 71, 101
2, 495458, Note_on_c, 0, 75, 93
2, 495464, Note_on_c, 0, 51, 78
2, 495464, Note_on_c, 0, 44, 89
2, 495496, Note_on_c, 0, 83, 0
2, 495534, Note_on_c, 0, 71, 0
2, 495536, Note_on_c, 0, 44, 0
2, 495538, Note_on_c, 0, 51, 0
2, 495550, Note_on_c, 0, 75, 0
2, 495624, Note_on_c, 0, 70, 110
2, 495630, Note_on_c, 0, 82, 105
2, 495632, Note_on_c, 0, 73, 98
2, 495640, Note_on_c, 0, 51, 80
2, 495642, Note_on_c, 0, 46, 89
2, 495704, Note_on_c, 0, 51, 0
2, 495714, Note_on_c, 0, 70, 0
2, 495718, Note_on_c, 0, 46, 0
2, 495722, Note_on_c, 0, 82, 0
2, 495744, Note_on_c, 0, 73, 0
2, 495796, Note_on_c, 0, 68, 111
2, 495798, Note_on_c, 0, 80, 109
2, 495808, Note_on_c, 0, 51, 90
2, 495811, Note_on_c, 0, 47, 100
2, 495814, Note_on_c, 0, 71, 106
2, 495876, Note_on_c, 0, 51, 0
2, 495892, Note_on_c, 0, 47, 0
2, 495912, Note_on_c, 0, 80, 0
2, 495918, Note_on_c, 0, 68, 0
2, 495934, Note_on_c, 0, 71, 0
2, 495982, Note_on_c, 0, 67, 118
2, 495982, Note_on_c, 0, 39, 109
2, 495984, Note_on_c, 0, 79, 127
2, 495984, Note_on_c, 0, 49, 105
2, 495986, Note_on_c, 0, 70, 93
2, 496012, Note_on_c, 0, 39, 0
2, 496020, Note_on_c, 0, 49, 0
2, 496028, Note_on_c, 0, 67, 0
2, 496028, Note_on_c, 0, 70, 0
2, 496044, Control_c, 0, 64, 127
2, 496058, Note_on_c, 0, 79, 0
2, 496178, Note_on_c, 0, 61, 110
2, 496178, Note_on_c, 0, 51, 93
2, 496178, Note_on_c, 0, 79, 90
2, 496181, Note_on_c, 0, 88, 126
2, 496184, Note_on_c, 0, 76, 109
2, 496222, Note_on_c, 0, 51, 0
2, 496222, Note_on_c, 0, 61, 0
2, 496234, Note_on_c, 0, 79, 0
2, 496268, Note_on_c, 0, 76, 0
2, 496274, Control_c, 0, 64, 0
2, 496304, Note_on_c, 0, 88, 0
2, 496348, Note_on_c, 0, 79, 106
2, 496352, Note_on_c, 0, 61, 110
2, 496352, Note_on_c, 0, 76, 111
2, 496352, Note_on_c, 0, 88, 115
2, 496352, Note_on_c, 0, 51, 101
2, 496402, Note_on_c, 0, 51, 0
2, 496440, Note_on_c, 0, 76, 0
2, 496448, Note_on_c, 0, 88, 0
2, 496458, Note_on_c, 0, 79, 0
2, 496460, Note_on_c, 0, 61, 0
2, 496528, Note_on_c, 0, 88, 111
2, 496528, Note_on_c, 0, 51, 105
2, 496530, Note_on_c, 0, 79, 111
2, 496532, Note_on_c, 0, 76, 102
2, 496532, Note_on_c, 0, 61, 105
2, 496576, Note_on_c, 0, 51, 0
2, 496620, Note_on_c, 0, 88, 0
2, 496622, Note_on_c, 0, 76, 0
2, 496624, Note_on_c, 0, 61, 0
2, 496644, Note_on_c, 0, 79, 0
2, 496708, Note_on_c, 0, 61, 103
2, 496712, Note_on_c, 0, 79, 108
2, 496712, Note_on_c, 0, 76, 109
2, 496712, Note_on_c, 0, 88, 118
2, 496718, Note_on_c, 0, 51, 104
2, 496794, Note_on_c, 0, 88, 0
2, 496796, Note_on_c, 0, 61, 0
2, 496796, Note_on_c, 0, 51, 0
2, 496802, Note_on_c, 0, 76, 0
2, 496830, Note_on_c, 0, 79, 0
2, 496894, Note_on_c, 0, 88, 118
2, 496894, Note_on_c, 0, 79, 108
2, 496894, Note_on_c, 0, 76, 104
2, 496901, Note_on_c, 0, 61, 94
2, 496904, Note_on_c, 0, 51, 93
2, 496972, Note_on_c, 0, 88, 0
2, 496974, Note_on_c, 0, 51, 0
2, 496988, Note_on_c, 0, 76, 0
2, 496993, Note_on_c, 0, 61, 0
2, 497028, Note_on_c, 0, 79, 0
2, 497060, Note_on_c, 0, 59, 106
2, 497060, Note_on_c, 0, 51, 92
2, 497070, Note_on_c, 0, 87, 109
2, 497072, Note_on_c, 0, 75, 111
2, 497080, Note_on_c, 0, 79, 115
2, 497114, Note_on_c, 0, 59, 0
2, 497120, Note_on_c, 0, 51, 0
2, 497146, Note_on_c, 0, 87, 0
2, 497160, Note_on_c, 0, 75, 0
2, 497162, Note_on_c, 0, 79, 0
2, 497236, Note_on_c, 0, 58, 95
2, 497244, Note_on_c, 0, 85, 108
2, 497244, Note_on_c, 0, 73, 105
2, 497250, Note_on_c, 0, 79, 98
2, 497250, Note_on_c, 0, 51, 98
2, 497282, Note_on_c, 0, 58, 0
2, 497288, Note_on_c, 0, 51, 0
2, 497340, Note_on_c, 0, 85, 0
2, 497356, Note_on_c, 0, 73, 0
2, 497366, Note_on_c, 0, 79, 0
2, 497426, Note_on_c, 0, 44, 111
2, 497428, Note_on_c, 0, 56, 100
2, 497430, Note_on_c, 0, 71, 117
2, 497432, Note_on_c, 0, 83, 127
2, 497438, Note_on_c, 0, 80, 95
2, 497456, Note_on_c, 0, 44, 0
2, 497460, Note_on_c, 0, 71, 0
2, 497464, Note_on_c, 0, 56, 0
2, 497474, Control_c, 0, 64, 127
2, 497482, Note_on_c, 0, 80, 0
2, 497502, Note_on_c, 0, 83, 0
2, 497634, Note_on_c, 0, 80, 96
2, 497637, Note_on_c, 0, 63, 89
2, 497640, Note_on_c, 0, 83, 116
2, 497652, Note_on_c, 0, 59, 69
2, 497678, Note_on_c, 0, 83, 0
2, 497682, Note_on_c, 0, 63, 0
2, 497688, Note_on_c, 0, 80, 0
2, 497696, Note_on_c, 0, 59, 0
2, 497734, Control_c, 0, 64, 0
2, 497830, Note_on_c, 0, 80, 74
2, 497830, Note_on_c, 0, 83, 105
2, 497833, Note_on_c, 0, 59, 52
2, 497840, Note_on_c, 0, 63, 66
2, 497900, Note_on_c, 0, 59, 0
2, 497940, Note_on_c, 0, 83, 0
2, 498012, Note_on_c, 0, 59, 67
2, 498014, Note_on_c, 0, 83, 101
2, 498018, Note_on_c, 0, 87, 58
2, 498032, Note_on_c, 0, 56, 69
2, 498042, Note_on_c, 0, 80, 0
2, 498046, Note_on_c, 0, 63, 0
2, 498092, Note_on_c, 0, 59, 0
2, 498095, Note_on_c, 0, 56, 0
2, 498144, Note_on_c, 0, 83, 0
2, 498214, Note_on_c, 0, 49, 86
2, 498238, Note_on_c, 0, 87, 0
2, 498244, Control_c, 0, 64, 127
2, 498252, Note_on_c, 0, 49, 0
2, 498388, Note_on_c, 0, 85, 83
2, 498394, Note_on_c, 0, 80, 69
2, 498400, Note_on_c, 0, 61, 74
2, 498406, Note_on_c, 0, 64, 66
2, 498426, Control_c, 0, 64, 0
2, 498444, Note_on_c, 0, 80, 0
2, 498460, Note_on_c, 0, 61, 0
2, 498462, Note_on_c, 0, 64, 0
2, 498482, Note_on_c, 0, 85, 0
2, 498568, Note_on_c, 0, 80, 73
2, 498571, Note_on_c, 0, 85, 67
2, 498578, Note_on_c, 0, 61, 59
2, 498586, Note_on_c, 0, 64, 64
2, 498666, Note_on_c, 0, 61, 0
2, 498696, Note_on_c, 0, 85, 0
2, 498734, Note_on_c, 0, 64, 0
2, 498758, Note_on_c, 0, 88, 60
2, 498760, Note_on_c, 0, 85, 65
2, 498762, Note_on_c, 0, 61, 62
2, 498764, Note_on_c, 0, 56, 50
2, 498774, Note_on_c, 0, 80, 0
2, 498818, Note_on_c, 0, 56, 0
2, 498828, Note_on_c, 0, 61, 0
2, 498842, Note_on_c, 0, 88, 0
2, 498902, Note_on_c, 0, 85, 0
2, 498918, Control_c, 0, 64, 127
2, 498954, Note_on_c, 0, 51, 93
2, 498994, Note_on_c, 0, 51, 0
2, 499072, Control_c, 0, 64, 0
2, 499110, Note_on_c, 0, 80, 66
2, 499110, Note_on_c, 0, 59, 37
2, 499112, Note_on_c, 0, 63, 83
2, 499112, Note_on_c, 0, 83, 105
2, 499162, Note_on_c, 0, 63, 0
2, 499168, Note_on_c, 0, 59, 0
2, 499172, Note_on_c, 0, 80, 0
2, 499192, Note_on_c, 0, 83, 0
2, 499300, Note_on_c, 0, 80, 79
2, 499302, Note_on_c, 0, 83, 102
2, 499308, Note_on_c, 0, 59, 56
2, 499310, Note_on_c, 0, 63, 82
2, 499414, Note_on_c, 0, 83, 0
2, 499420, Note_on_c, 0, 59, 0
2, 499452, Note_on_c, 0, 80, 0
2, 499458, Note_on_c, 0, 63, 0
2, 499490, Note_on_c, 0, 83, 101
2, 499492, Note_on_c, 0, 59, 66
2, 499496, Note_on_c, 0, 56, 69
2, 499502, Note_on_c, 0, 87, 59
2, 499554, Note_on_c, 0, 56, 0
2, 499604, Note_on_c, 0, 59, 0
2, 499612, Note_on_c, 0, 83, 0
2, 499624, Control_c, 0, 64, 127
2, 499688, Note_on_c, 0, 49, 95
2, 499710, Note_on_c, 0, 87, 0
2, 499732, Note_on_c, 0, 49, 0
2, 499792, Control_c, 0, 64, 0
2, 499864, Note_on_c, 0, 82, 72
2, 499867, Note_on_c, 0, 79, 81
2, 499867, Note_on_c, 0, 63, 80
2, 499882, Note_on_c, 0, 58, 56
2, 499924, Note_on_c, 0, 63, 0
2, 499927, Note_on_c, 0, 79, 0
2, 499946, Note_on_c, 0, 58, 0
2, 499972, Note_on_c, 0, 82, 0
2, 500038, Note_on_c, 0, 82, 70
2, 500054, Note_on_c, 0, 79, 74
2, 500060, Note_on_c, 0, 58, 51
2, 500060, Note_on_c, 0, 63, 64
2, 500146, Note_on_c, 0, 58, 0
2, 500156, Note_on_c, 0, 82, 0
2, 500206, Note_on_c, 0, 63, 0
2, 500240, Control_c, 0, 64, 127
2, 500243, Note_on_c, 0, 82, 46
2, 500243, Note_on_c, 0, 58, 42
2, 500258, Note_on_c, 0, 79, 0
2, 500262, Note_on_c, 0, 87, 41
2, 500266, Note_on_c, 0, 55, 59
2, 500316, Note_on_c, 0, 55, 0
2, 500316, Note_on_c, 0, 58, 0
2, 500398, Note_on_c, 0, 82, 0
2, 500414, Note_on_c, 0, 87, 0
2, 500452, Note_on_c, 0, 47, 85
2, 500490, Note_on_c, 0, 47, 0
2, 500608, Control_c, 0, 64, 0
2, 500650, Note_on_c, 0, 75, 57
2, 500656, Note_on_c, 0, 83, 104
2, 500666, Note_on_c, 0, 68, 71
2, 500676, Note_on_c, 0, 63, 69
2, 500730, Note_on_c, 0, 68, 0
2, 500733, Note_on_c, 0, 63, 0
2, 500764, Note_on_c, 0, 83, 0
2, 500770, Note_on_c, 0, 75, 0
2, 500808, Control_c, 0, 64, 127
2, 500844, Note_on_c, 0, 83, 105
2, 500846, Note_on_c, 0, 75, 74
2, 500864, Note_on_c, 0, 68, 65
2, 500882, Note_on_c, 0, 63, 54
2, 500930, Note_on_c, 0, 63, 0
2, 500938, Note_on_c, 0, 68, 0
2, 500948, Note_on_c, 0, 75, 0
2, 500990, Note_on_c, 0, 83, 0
2, 501028, Note_on_c, 0, 63, 50
2, 501038, Note_on_c, 0, 87, 66
2, 501052, Note_on_c, 0, 80, 64
2, 501064, Note_on_c, 0, 59, 46
2, 501082, Note_on_c, 0, 63, 0
2, 501104, Note_on_c, 0, 87, 0
2, 501108, Note_on_c, 0, 80, 0
2, 501116, Note_on_c, 0, 59, 0
2, 501130, Control_c, 0, 64, 0
2, 501232, Note_on_c, 0, 49, 74
2, 501276, Note_on_c, 0, 49, 0
2, 501330, Control_c, 0, 64, 127
2, 501426, Note_on_c, 0, 81, 65
2, 501428, Note_on_c, 0, 69, 47
2, 501428, Note_on_c, 0, 64, 50
2, 501430, Note_on_c, 0, 73, 60
2, 501480, Note_on_c, 0, 64, 0
2, 501486, Note_on_c, 0, 73, 0
2, 501488, Note_on_c, 0, 69, 0
2, 501490, Note_on_c, 0, 81, 0
2, 501618, Note_on_c, 0, 81, 50
2, 501624, Note_on_c, 0, 73, 59
2, 501630, Note_on_c, 0, 69, 33
2, 501692, Note_on_c, 0, 73, 0
2, 501698, Note_on_c, 0, 69, 0
2, 501746, Note_on_c, 0, 81, 0
2, 501798, Note_on_c, 0, 85, 52
2, 501802, Note_on_c, 0, 76, 29
2, 501812, Note_on_c, 0, 61, 62
2, 501812, Note_on_c, 0, 64, 73
2, 501836, Control_c, 0, 64, 0
2, 501854, Note_on_c, 0, 64, 0
2, 501861, Note_on_c, 0, 61, 0
2, 501882, Note_on_c, 0, 76, 0
2, 501948, Note_on_c, 0, 85, 0
2, 501990, Note_on_c, 0, 51, 71
2, 502034, Note_on_c, 0, 51, 0
2, 502068, Control_c, 0, 64, 127
2, 502174, Note_on_c, 0, 80, 73
2, 502178, Note_on_c, 0, 71, 73
2, 502188, Note_on_c, 0, 68, 48
2, 502193, Note_on_c, 0, 63, 18
2, 502238, Note_on_c, 0, 71, 0
2, 502246, Note_on_c, 0, 68, 0
2, 502257, Note_on_c, 0, 63, 0
2, 502266, Note_on_c, 0, 80, 0
2, 502368, Note_on_c, 0, 80, 62
2, 502373, Note_on_c, 0, 71, 72
2, 502374, Note_on_c, 0, 63, 55
2, 502382, Note_on_c, 0, 68, 25
2, 502430, Note_on_c, 0, 63, 0
2, 502439, Note_on_c, 0, 71, 0
2, 502448, Note_on_c, 0, 68, 0
2, 502514, Note_on_c, 0, 80, 0
2, 502558, Note_on_c, 0, 83, 87
2, 502564, Note_on_c, 0, 75, 52
2, 502566, Note_on_c, 0, 63, 40
2, 502620, Note_on_c, 0, 63, 0
2, 502650, Control_c, 0, 64, 0
2, 502722, Note_on_c, 0, 83, 0
2, 502748, Note_on_c, 0, 51, 75
2, 502754, Note_on_c, 0, 75, 0
2, 502796, Note_on_c, 0, 51, 0
2, 502836, Control_c, 0, 64, 127
2, 502954, Note_on_c, 0, 79, 78
2, 502968, Note_on_c, 0, 70, 57
2, 502976, Note_on_c, 0, 67, 41
2, 502978, Note_on_c, 0, 61, 35
2, 503024, Note_on_c, 0, 79, 0
2, 503036, Note_on_c, 0, 70, 0
2, 503046, Note_on_c, 0, 67, 0
2, 503054, Note_on_c, 0, 61, 0
2, 503190, Note_on_c, 0, 79, 60
2, 503204, Control_c, 0, 64, 0
2, 503207, Note_on_c, 0, 70, 50
2, 503222, Note_on_c, 0, 67, 29
2, 503228, Note_on_c, 0, 61, 25
2, 503302, Note_on_c, 0, 61, 0
2, 503325, Note_on_c, 0, 70, 0
2, 503380, Note_on_c, 0, 67, 0
2, 503388, Control_c, 0, 64, 127
2, 503432, Note_on_c, 0, 58, 37
2, 503435, Note_on_c, 0, 61, 4
2, 503435, Note_on_c, 0, 73, 31
2, 503436, Note_on_c, 0, 82, 49
2, 503450, Note_on_c, 0, 79, 0
2, 503502, Note_on_c, 0, 58, 0
2, 503516, Note_on_c, 0, 61, 0
2, 503640, Note_on_c, 0, 73, 0
2, 503680, Control_c, 0, 64, 0
2, 503700, Note_on_c, 0, 44, 52
2, 503706, Note_on_c, 0, 80, 55
2, 503710, Note_on_c, 0, 71, 42
2, 503760, Note_on_c, 0, 82, 0
2, 503818, Note_on_c, 0, 56, 50
2, 503890, Note_on_c, 0, 56, 0
2, 503912, Control_c, 0, 64, 127
2, 503936, Note_on_c, 0, 51, 49
2, 503946, Note_on_c, 0, 44, 0
2, 504000, Note_on_c, 0, 51, 0
2, 504046, Note_on_c, 0, 56, 43
2, 504114, Note_on_c, 0, 56, 0
2, 504146, Note_on_c, 0, 44, 54
2, 504208, Note_on_c, 0, 44, 0
2, 504258, Note_on_c, 0, 71, 0
2, 504260, Note_on_c, 0, 56, 44
2, 504300, Note_on_c, 0, 80, 0
2, 504324, Note_on_c, 0, 56, 0
2, 504366, Note_on_c, 0, 51, 36
2, 504428, Note_on_c, 0, 51, 0
2, 504466, Note_on_c, 0, 56, 29
2, 504542, Note_on_c, 0, 56, 0
2, 504545, Note_on_c, 0, 44, 55
2, 504614, Note_on_c, 0, 44, 0
2, 504656, Note_on_c, 0, 56, 27
2, 504762, Note_on_c, 0, 56, 0
2, 504804, Note_on_c, 0, 51, 23
2, 504876, Note_on_c, 0, 51, 0
2, 504890, Note_on_c, 0, 56, 41
2, 504932, Note_on_c, 0, 71, 96
2, 504960, Note_on_c, 0, 56, 0
2, 504988, Note_on_c, 0, 44, 50
2, 505046, Note_on_c, 0, 44, 0
2, 505094, Note_on_c, 0, 56, 47
2, 505170, Note_on_c, 0, 56, 0
2, 505244, Note_on_c, 0, 51, 25
2, 505302, Note_on_c, 0, 71, 0
2, 505318, Note_on_c, 0, 51, 0
2, 505318, Note_on_c, 0, 56, 56
2, 505321, Note_on_c, 0, 68, 78
2, 505444, Note_on_c, 0, 67, 86
2, 505444, Note_on_c, 0, 44, 57
2, 505447, Note_on_c, 0, 56, 0
2, 505456, Note_on_c, 0, 68, 0
2, 505478, Control_c, 0, 64, 0
2, 505564, Note_on_c, 0, 58, 42
2, 505664, Note_on_c, 0, 58, 0
2, 505678, Note_on_c, 0, 44, 0
2, 505684, Note_on_c, 0, 51, 46
2, 505708, Control_c, 0, 64, 127
2, 505752, Note_on_c, 0, 67, 0
2, 505755, Note_on_c, 0, 51, 0
2, 505774, Note_on_c, 0, 58, 27
2, 505868, Note_on_c, 0, 75, 82
2, 505876, Note_on_c, 0, 58, 0
2, 505876, Note_on_c, 0, 61, 59
2, 505888, Note_on_c, 0, 44, 49
2, 505894, Note_on_c, 0, 67, 13
2, 505950, Note_on_c, 0, 44, 0
2, 505986, Note_on_c, 0, 67, 0
2, 505990, Note_on_c, 0, 58, 25
2, 506014, Note_on_c, 0, 61, 0
2, 506042, Note_on_c, 0, 75, 0
2, 506078, Note_on_c, 0, 58, 0
2, 506110, Note_on_c, 0, 51, 35
2, 506184, Note_on_c, 0, 51, 0
2, 506198, Note_on_c, 0, 58, 29
2, 506294, Note_on_c, 0, 58, 0
2, 506294, Note_on_c, 0, 75, 69
2, 506310, Note_on_c, 0, 61, 47
2, 506310, Note_on_c, 0, 44, 55
2, 506317, Note_on_c, 0, 67, 48
2, 506324, Control_c, 0, 64, 0
2, 506430, Note_on_c, 0, 44, 0
2, 506448, Note_on_c, 0, 58, 32
2, 506478, Control_c, 0, 64, 127
2, 506504, Note_on_c, 0, 67, 0
2, 506522, Note_on_c, 0, 58, 0
2, 506524, Note_on_c, 0, 75, 0
2, 506527, Note_on_c, 0, 61, 0
2, 506552, Note_on_c, 0, 51, 33
2, 506624, Note_on_c, 0, 58, 26
2, 506626, Note_on_c, 0, 51, 0
2, 506708, Control_c, 0, 64, 0
2, 506718, Note_on_c, 0, 75, 60
2, 506734, Note_on_c, 0, 58, 0
2, 506734, Note_on_c, 0, 61, 36
2, 506744, Note_on_c, 0, 67, 42
2, 506750, Note_on_c, 0, 44, 54
2, 506820, Note_on_c, 0, 44, 0
2, 506848, Note_on_c, 0, 58, 27
2, 506862, Control_c, 0, 64, 127
2, 506876, Note_on_c, 0, 75, 0
2, 506926, Note_on_c, 0, 58, 0
2, 506932, Note_on_c, 0, 67, 0
2, 506942, Note_on_c, 0, 61, 0
2, 506974, Note_on_c, 0, 51, 32
2, 507040, Note_on_c, 0, 58, 35
2, 507044, Note_on_c, 0, 51, 0
2, 507102, Note_on_c, 0, 58, 0
2, 507122, Control_c, 0, 64, 0
2, 507152, Note_on_c, 0, 59, 66
2, 507164, Note_on_c, 0, 44, 62
2, 507226, Note_on_c, 0, 68, 13
2, 507236, Note_on_c, 0, 59, 0
2, 507276, Control_c, 0, 64, 127
2, 507296, Note_on_c, 0, 56, 43
2, 507299, Note_on_c, 0, 44, 0
2, 507344, Note_on_c, 0, 75, 80
2, 507384, Note_on_c, 0, 56, 0
2, 507458, Note_on_c, 0, 51, 18
2, 507534, Note_on_c, 0, 56, 51
2, 507536, Note_on_c, 0, 51, 0
2, 507616, Note_on_c, 0, 56, 0
2, 507650, Note_on_c, 0, 44, 54
2, 507712, Note_on_c, 0, 44, 0
2, 507772, Note_on_c, 0, 56, 32
2, 507846, Note_on_c, 0, 56, 0
2, 507866, Note_on_c, 0, 51, 47
2, 507926, Note_on_c, 0, 51, 0
2, 507960, Note_on_c, 0, 56, 40
2, 508034, Note_on_c, 0, 56, 0
2, 508050, Note_on_c, 0, 68, 0
2, 508072, Note_on_c, 0, 44, 52
2, 508096, Note_on_c, 0, 75, 0
2, 508138, Note_on_c, 0, 44, 0
2, 508178, Note_on_c, 0, 56, 43
2, 508248, Note_on_c, 0, 56, 0
2, 508308, Note_on_c, 0, 51, 33
2, 508380, Note_on_c, 0, 51, 0
2, 508408, Note_on_c, 0, 56, 50
2, 508514, Note_on_c, 0, 56, 0
2, 508584, Note_on_c, 0, 83, 118
2, 508598, Note_on_c, 0, 44, 46
2, 508662, Note_on_c, 0, 44, 0
2, 508706, Note_on_c, 0, 56, 46
2, 508774, Note_on_c, 0, 56, 0
2, 508830, Note_on_c, 0, 51, 40
2, 508896, Note_on_c, 0, 51, 0
2, 508942, Note_on_c, 0, 56, 48
2, 508984, Note_on_c, 0, 83, 0
2, 508990, Note_on_c, 0, 80, 79
2, 509034, Note_on_c, 0, 56, 0
2, 509068, Note_on_c, 0, 80, 0
2, 509078, Note_on_c, 0, 44, 55
2, 509102, Note_on_c, 0, 79, 96
2, 509166, Control_c, 0, 64, 0
2, 509220, Note_on_c, 0, 58, 36
2, 509316, Note_on_c, 0, 58, 0
2, 509328, Note_on_c, 0, 51, 47
2, 509350, Control_c, 0, 64, 127
2, 509356, Note_on_c, 0, 44, 0
2, 509406, Note_on_c, 0, 51, 0
2, 509412, Note_on_c, 0, 79, 0
2, 509432, Note_on_c, 0, 58, 26
2, 509534, Note_on_c, 0, 58, 0
2, 509540, Note_on_c, 0, 87, 79
2, 509556, Note_on_c, 0, 73, 41
2, 509559, Note_on_c, 0, 44, 59
2, 509566, Note_on_c, 0, 79, 62
2, 509618, Note_on_c, 0, 44, 0
2, 509624, Note_on_c, 0, 79, 0
2, 509658, Note_on_c, 0, 73, 0
2, 509668, Note_on_c, 0, 58, 31
2, 509702, Note_on_c, 0, 87, 0
2, 509746, Note_on_c, 0, 58, 0
2, 509792, Note_on_c, 0, 51, 32
2, 509862, Note_on_c, 0, 51, 0
2, 509874, Note_on_c, 0, 58, 34
2, 509952, Note_on_c, 0, 58, 0
2, 509968, Note_on_c, 0, 87, 87
2, 509974, Note_on_c, 0, 73, 70
2, 509990, Note_on_c, 0, 79, 77
2, 509990, Note_on_c, 0, 44, 63
2, 510044, Note_on_c, 0, 44, 0
2, 510050, Note_on_c, 0, 79, 0
2, 510064, Note_on_c, 0, 73, 0
2, 510100, Note_on_c, 0, 58, 43
2, 510152, Note_on_c, 0, 87, 0
2, 510166, Note_on_c, 0, 58, 0
2, 510198, Note_on_c, 0, 51, 48
2, 510268, Note_on_c, 0, 51, 0
2, 510282, Note_on_c, 0, 58, 32
2, 510356, Note_on_c, 0, 58, 0
2, 510364, Note_on_c, 0, 87, 93
2, 510370, Note_on_c, 0, 73, 74
2, 510376, Note_on_c, 0, 44, 77
2, 510376, Note_on_c, 0, 79, 88
2, 510442, Note_on_c, 0, 44, 0
2, 510482, Note_on_c, 0, 58, 40
2, 510534, Note_on_c, 0, 87, 0
2, 510546, Note_on_c, 0, 58, 0
2, 510558, Note_on_c, 0, 73, 0
2, 510582, Note_on_c, 0, 51, 57
2, 510652, Note_on_c, 0, 51, 0
2, 510654, Note_on_c, 0, 79, 0
2, 510666, Note_on_c, 0, 58, 55
2, 510722, Note_on_c, 0, 58, 0
2, 510734, Control_c, 0, 64, 0
2, 510768, Note_on_c, 0, 44, 78
2, 510782, Note_on_c, 0, 71, 95
2, 510831, Note_on_c, 0, 71, 0
2, 510878, Note_on_c, 0, 80, 80
2, 510902, Control_c, 0, 64, 127
2, 510910, Note_on_c, 0, 56, 62
2, 510974, Note_on_c, 0, 87, 80
2, 511010, Note_on_c, 0, 44, 0
2, 511016, Note_on_c, 0, 56, 0
2, 511068, Note_on_c, 0, 51, 34
2, 511136, Note_on_c, 0, 51, 0
2, 511164, Note_on_c, 0, 56, 50
2, 511230, Note_on_c, 0, 56, 0
2, 511276, Note_on_c, 0, 44, 62
2, 511298, Note_on_c, 0, 80, 0
2, 511336, Note_on_c, 0, 44, 0
2, 511390, Note_on_c, 0, 56, 44
2, 511450, Note_on_c, 0, 56, 0
2, 511458, Note_on_c, 0, 87, 0
2, 511466, Note_on_c, 0, 51, 55
2, 511536, Note_on_c, 0, 51, 0
2, 511539, Note_on_c, 0, 56, 43
2, 511562, Control_c, 0, 64, 0
2, 511586, Note_on_c, 0, 73, 79
2, 511610, Note_on_c, 0, 56, 0
2, 511620, Note_on_c, 0, 44, 67
2, 511662, Note_on_c, 0, 73, 0
2, 511676, Note_on_c, 0, 79, 96
2, 511732, Control_c, 0, 64, 127
2, 511736, Note_on_c, 0, 87, 94
2, 511744, Note_on_c, 0, 58, 47
2, 511760, Note_on_c, 0, 44, 0
2, 511828, Note_on_c, 0, 58, 0
2, 511830, Note_on_c, 0, 79, 0
2, 511908, Note_on_c, 0, 51, 14
2, 511974, Note_on_c, 0, 51, 0
2, 511977, Note_on_c, 0, 58, 37
2, 512044, Note_on_c, 0, 58, 0
2, 512060, Note_on_c, 0, 44, 77
2, 512136, Note_on_c, 0, 44, 0
2, 512142, Note_on_c, 0, 87, 0
2, 512182, Note_on_c, 0, 58, 32
2, 512252, Note_on_c, 0, 58, 0
2, 512260, Note_on_c, 0, 51, 55
2, 512320, Note_on_c, 0, 58, 48
2, 512322, Note_on_c, 0, 51, 0
2, 512378, Control_c, 0, 64, 0
2, 512386, Note_on_c, 0, 58, 0
2, 512424, Note_on_c, 0, 71, 81
2, 512430, Note_on_c, 0, 44, 74
2, 512476, Note_on_c, 0, 71, 0
2, 512492, Note_on_c, 0, 44, 0
2, 512524, Note_on_c, 0, 80, 74
2, 512540, Note_on_c, 0, 56, 66
2, 512546, Control_c, 0, 64, 127
2, 512622, Note_on_c, 0, 87, 81
2, 512642, Note_on_c, 0, 56, 0
2, 512670, Note_on_c, 0, 51, 39
2, 512732, Note_on_c, 0, 51, 0
2, 512754, Note_on_c, 0, 56, 50
2, 512812, Note_on_c, 0, 56, 0
2, 512842, Note_on_c, 0, 44, 74
2, 512898, Note_on_c, 0, 80, 0
2, 512916, Note_on_c, 0, 44, 0
2, 512952, Note_on_c, 0, 56, 44
2, 513004, Note_on_c, 0, 87, 0
2, 513020, Note_on_c, 0, 56, 0
2, 513056, Note_on_c, 0, 51, 52
2, 513120, Note_on_c, 0, 51, 0
2, 513146, Note_on_c, 0, 56, 54
2, 513202, Note_on_c, 0, 56, 0
2, 513238, Control_c, 0, 64, 0
2, 513244, Note_on_c, 0, 73, 65
2, 513258, Note_on_c, 0, 44, 72
2, 513336, Note_on_c, 0, 79, 72
2, 513344, Note_on_c, 0, 44, 0
2, 513362, Note_on_c, 0, 58, 37
2, 513372, Note_on_c, 0, 73, 0
2, 513375, Control_c, 0, 64, 127
2, 513406, Note_on_c, 0, 87, 73
2, 513440, Note_on_c, 0, 58, 0
2, 513470, Note_on_c, 0, 79, 0
2, 513484, Note_on_c, 0, 51, 36
2, 513556, Note_on_c, 0, 51, 0
2, 513570, Note_on_c, 0, 58, 35
2, 513594, Note_on_c, 0, 87, 0
2, 513646, Note_on_c, 0, 58, 0
2, 513672, Note_on_c, 0, 44, 69
2, 513736, Note_on_c, 0, 44, 0
2, 513790, Note_on_c, 0, 58, 47
2, 513860, Note_on_c, 0, 58, 0
2, 513894, Note_on_c, 0, 51, 44
2, 513956, Note_on_c, 0, 58, 41
2, 513962, Note_on_c, 0, 51, 0
2, 514024, Note_on_c, 0, 58, 0
2, 514066, Note_on_c, 0, 59, 57
2, 514068, Control_c, 0, 64, 0
2, 514080, Note_on_c, 0, 44, 65
2, 514152, Note_on_c, 0, 44, 0
2, 514164, Note_on_c, 0, 68, 46
2, 514186, Note_on_c, 0, 56, 56
2, 514236, Control_c, 0, 64, 127
2, 514252, Note_on_c, 0, 68, 0
2, 514260, Note_on_c, 0, 63, 56
2, 514266, Note_on_c, 0, 56, 0
2, 514278, Note_on_c, 0, 59, 0
2, 514292, Note_on_c, 0, 51, 31
2, 514324, Note_on_c, 0, 63, 0
2, 514344, Note_on_c, 0, 68, 49
2, 514360, Note_on_c, 0, 51, 0
2, 514382, Note_on_c, 0, 56, 37
2, 514416, Note_on_c, 0, 68, 0
2, 514440, Note_on_c, 0, 59, 59
2, 514446, Note_on_c, 0, 56, 0
2, 514470, Note_on_c, 0, 44, 62
2, 514528, Note_on_c, 0, 44, 0
2, 514540, Note_on_c, 0, 68, 40
2, 514542, Note_on_c, 0, 59, 0
2, 514570, Note_on_c, 0, 56, 33
2, 514614, Note_on_c, 0, 68, 0
2, 514632, Note_on_c, 0, 63, 59
2, 514638, Note_on_c, 0, 56, 0
2, 514682, Note_on_c, 0, 51, 26
2, 514684, Note_on_c, 0, 63, 0
2, 514708, Note_on_c, 0, 68, 40
2, 514748, Note_on_c, 0, 56, 47
2, 514758, Note_on_c, 0, 51, 0
2, 514816, Note_on_c, 0, 68, 0
2, 514818, Note_on_c, 0, 56, 0
2, 514818, Note_on_c, 0, 59, 62
2, 514836, Note_on_c, 0, 44, 60
2, 514892, Note_on_c, 0, 44, 0
2, 514896, Note_on_c, 0, 68, 47
2, 514934, Note_on_c, 0, 59, 0
2, 514936, Note_on_c, 0, 56, 50
2, 515000, Note_on_c, 0, 63, 70
2, 515002, Note_on_c, 0, 56, 0
2, 515004, Note_on_c, 0, 68, 0
2, 515054, Note_on_c, 0, 51, 31
2, 515058, Note_on_c, 0, 63, 0
2, 515076, Note_on_c, 0, 68, 59
2, 515104, Note_on_c, 0, 56, 55
2, 515122, Note_on_c, 0, 51, 0
2, 515176, Note_on_c, 0, 56, 0
2, 515184, Note_on_c, 0, 59, 75
2, 515196, Note_on_c, 0, 68, 0
2, 515202, Note_on_c, 0, 44, 69
2, 515254, Note_on_c, 0, 44, 0
2, 515262, Note_on_c, 0, 68, 60
2, 515264, Note_on_c, 0, 56, 63
2, 515364, Note_on_c, 0, 56, 0
2, 515366, Note_on_c, 0, 63, 80
2, 515368, Note_on_c, 0, 59, 0
2, 515368, Note_on_c, 0, 51, 71
2, 515388, Note_on_c, 0, 68, 0
2, 515424, Note_on_c, 0, 56, 86
2, 515446, Note_on_c, 0, 68, 95
2, 515450, Note_on_c, 0, 51, 0
2, 515450, Note_on_c, 0, 63, 0
2, 515518, Note_on_c, 0, 56, 0
2, 515524, Note_on_c, 0, 60, 101
2, 515526, Note_on_c, 0, 44, 96
2, 515542, Control_c, 0, 64, 0
2, 515588, Note_on_c, 0, 68, 0
2, 515614, Note_on_c, 0, 54, 95
2, 515617, Note_on_c, 0, 66, 75
2, 515654, Note_on_c, 0, 44, 0
2, 515696, Note_on_c, 0, 63, 98
2, 515704, Note_on_c, 0, 51, 85
2, 515712, Control_c, 0, 64, 127
2, 515720, Note_on_c, 0, 54, 0
2, 515736, Note_on_c, 0, 66, 0
2, 515746, Note_on_c, 0, 60, 0
2, 515790, Note_on_c, 0, 66, 92
2, 515790, Note_on_c, 0, 54, 85
2, 515824, Note_on_c, 0, 63, 0
2, 515834, Note_on_c, 0, 51, 0
2, 515872, Note_on_c, 0, 60, 104
2, 515880, Note_on_c, 0, 54, 0
2, 515880, Note_on_c, 0, 44, 94
2, 515906, Note_on_c, 0, 66, 0
2, 515944, Note_on_c, 0, 54, 97
2, 515956, Note_on_c, 0, 66, 93
2, 515976, Note_on_c, 0, 60, 0
2, 515988, Note_on_c, 0, 44, 0
2, 516044, Note_on_c, 0, 54, 0
2, 516044, Note_on_c, 0, 63, 105
2, 516052, Note_on_c, 0, 51, 89
2, 516066, Note_on_c, 0, 66, 0
2, 516128, Note_on_c, 0, 54, 95
2, 516134, Note_on_c, 0, 66, 86
2, 516144, Note_on_c, 0, 63, 0
2, 516160, Note_on_c, 0, 51, 0
2, 516226, Note_on_c, 0, 54, 0
2, 516226, Note_on_c, 0, 60, 105
2, 516240, Note_on_c, 0, 44, 103
2, 516244, Note_on_c, 0, 66, 0
2, 516308, Note_on_c, 0, 54, 87
2, 516314, Note_on_c, 0, 60, 0
2, 516314, Note_on_c, 0, 66, 88
2, 516354, Note_on_c, 0, 44, 0
2, 516402, Note_on_c, 0, 63, 105
2, 516414, Note_on_c, 0, 66, 0
2, 516414, Note_on_c, 0, 51, 93
2, 516426, Note_on_c, 0, 54, 0
2, 516490, Note_on_c, 0, 66, 86
2, 516504, Note_on_c, 0, 54, 98
2, 516510, Note_on_c, 0, 63, 0
2, 516545, Note_on_c, 0, 51, 0
2, 516584, Note_on_c, 0, 60, 104
2, 516600, Note_on_c, 0, 66, 0
2, 516614, Note_on_c, 0, 44, 104
2, 516616, Note_on_c, 0, 54, 0
2, 516666, Note_on_c, 0, 66, 83
2, 516688, Note_on_c, 0, 54, 95
2, 516696, Note_on_c, 0, 60, 0
2, 516768, Note_on_c, 0, 44, 0
2, 516784, Note_on_c, 0, 63, 93
2, 516790, Note_on_c, 0, 66, 0
2, 516793, Note_on_c, 0, 51, 78
2, 516804, Note_on_c, 0, 54, 0
2, 516842, Note_on_c, 0, 66, 88
2, 516868, Note_on_c, 0, 54, 103
2, 516890, Note_on_c, 0, 66, 0
2, 516900, Note_on_c, 0, 63, 0
2, 516912, Note_on_c, 0, 51, 0
2, 516920, Note_on_c, 0, 54, 0
2, 517124, Note_on_c, 0, 52, 119
2, 517126, Note_on_c, 0, 56, 98
2, 517126, Note_on_c, 0, 61, 109
2, 517132, Note_on_c, 0, 64, 86
2, 517132, Note_on_c, 0, 37, 127
2, 517160, Note_on_c, 0, 52, 0
2, 517164, Note_on_c, 0, 61, 0
2, 517168, Note_on_c, 0, 56, 0
2, 517172, Note_on_c, 0, 64, 0
2, 517200, Note_on_c, 0, 37, 0
2, 517310, Note_on_c, 0, 44, 96
2, 517356, Control_c, 0, 64, 0
2, 517386, Note_on_c, 0, 49, 88
2, 517430, Note_on_c, 0, 44, 0
2, 517468, Note_on_c, 0, 52, 95
2, 517510, Note_on_c, 0, 49, 0
2, 517520, Note_on_c, 0, 37, 90
2, 517532, Note_on_c, 0, 56, 93
2, 517564, Note_on_c, 0, 37, 0
2, 517570, Note_on_c, 0, 52, 0
2, 517606, Note_on_c, 0, 49, 82
2, 517640, Note_on_c, 0, 56, 0
2, 517674, Note_on_c, 0, 44, 89
2, 517686, Note_on_c, 0, 52, 92
2, 517710, Note_on_c, 0, 49, 0
2, 517726, Note_on_c, 0, 44, 0
2, 517766, Note_on_c, 0, 56, 79
2, 517808, Note_on_c, 0, 52, 0
2, 517848, Note_on_c, 0, 61, 94
2, 517858, Note_on_c, 0, 37, 90
2, 517896, Note_on_c, 0, 37, 0
2, 517896, Note_on_c, 0, 56, 0
2, 517928, Note_on_c, 0, 52, 102
2, 517944, Note_on_c, 0, 61, 0
2, 518004, Note_on_c, 0, 56, 73
2, 518004, Note_on_c, 0, 44, 82
2, 518040, Note_on_c, 0, 52, 0
2, 518062, Note_on_c, 0, 44, 0
2, 518100, Note_on_c, 0, 61, 86
2, 518150, Note_on_c, 0, 56, 0
2, 518172, Note_on_c, 0, 64, 101
2, 518180, Note_on_c, 0, 37, 98
2, 518220, Note_on_c, 0, 64, 0
2, 518238, Note_on_c, 0, 37, 0
2, 518238, Note_on_c, 0, 61, 0
2, 518256, Note_on_c, 0, 56, 96
2, 518332, Note_on_c, 0, 44, 96
2, 518335, Note_on_c, 0, 61, 80
2, 518384, Note_on_c, 0, 56, 0
2, 518400, Note_on_c, 0, 44, 0
2, 518410, Note_on_c, 0, 64, 93
2, 518482, Note_on_c, 0, 61, 0
2, 518496, Note_on_c, 0, 68, 96
2, 518514, Note_on_c, 0, 37, 96
2, 518538, Note_on_c, 0, 64, 0
2, 518560, Note_on_c, 0, 37, 0
2, 518560, Note_on_c, 0, 61, 79
2, 518600, Note_on_c, 0, 68, 0
2, 518646, Note_on_c, 0, 64, 83
2, 518668, Note_on_c, 0, 44, 89
2, 518698, Note_on_c, 0, 61, 0
2, 518736, Note_on_c, 0, 68, 93
2, 518738, Note_on_c, 0, 44, 0
2, 518788, Note_on_c, 0, 64, 0
2, 518820, Note_on_c, 0, 73, 95
2, 518842, Note_on_c, 0, 37, 96
2, 518862, Note_on_c, 0, 68, 0
2, 518886, Note_on_c, 0, 37, 0
2, 518902, Note_on_c, 0, 64, 81
2, 518936, Note_on_c, 0, 73, 0
2, 518966, Note_on_c, 0, 68, 69
2, 518994, Note_on_c, 0, 44, 90
2, 519014, Note_on_c, 0, 64, 0
2, 519058, Note_on_c, 0, 44, 0
2, 519058, Note_on_c, 0, 73, 79
2, 519076, Note_on_c, 0, 68, 0
2, 519144, Note_on_c, 0, 76, 86
2, 519150, Note_on_c, 0, 37, 97
2, 519176, Note_on_c, 0, 73, 0
2, 519188, Note_on_c, 0, 76, 0
2, 519212, Note_on_c, 0, 68, 96
2, 519264, Note_on_c, 0, 37, 0
2, 519286, Note_on_c, 0, 73, 72
2, 519312, Note_on_c, 0, 44, 92
2, 519326, Note_on_c, 0, 68, 0
2, 519360, Note_on_c, 0, 44, 0
2, 519376, Note_on_c, 0, 76, 50
2, 519398, Note_on_c, 0, 73, 0
2, 519444, Note_on_c, 0, 73, 115
2, 519444, Note_on_c, 0, 49, 125
2, 519446, Note_on_c, 0, 80, 121
2, 519446, Note_on_c, 0, 37, 111
2, 519457, Note_on_c, 0, 68, 126
2, 519538, Control_c, 0, 64, 127
2, 519554, Note_on_c, 0, 49, 0
2, 519558, Note_on_c, 0, 37, 0
2, 519568, Note_on_c, 0, 80, 0
2, 519584, Note_on_c, 0, 76, 0
2, 519593, Note_on_c, 0, 68, 0
2, 519594, Note_on_c, 0, 73, 0
2, 519620, Note_on_c, 0, 80, 98
2, 519626, Note_on_c, 0, 76, 104
2, 519628, Note_on_c, 0, 68, 101
2, 519629, Note_on_c, 0, 73, 87
2, 519639, Note_on_c, 0, 44, 96
2, 519650, Note_on_c, 0, 80, 0
2, 519660, Note_on_c, 0, 76, 0
2, 519672, Note_on_c, 0, 73, 0
2, 519720, Note_on_c, 0, 44, 0
2, 519732, Note_on_c, 0, 68, 0
2, 519768, Control_c, 0, 64, 0
2, 519820, Note_on_c, 0, 36, 124
2, 519902, Note_on_c, 0, 44, 113
2, 519908, Note_on_c, 0, 36, 0
2, 519994, Note_on_c, 0, 48, 82
2, 520076, Note_on_c, 0, 51, 90
2, 520100, Note_on_c, 0, 44, 0
2, 520108, Note_on_c, 0, 48, 0
2, 520170, Note_on_c, 0, 56, 87
2, 520173, Note_on_c, 0, 36, 95
2, 520222, Note_on_c, 0, 51, 0
2, 520228, Note_on_c, 0, 36, 0
2, 520252, Note_on_c, 0, 48, 89
2, 520274, Note_on_c, 0, 56, 0
2, 520314, Note_on_c, 0, 44, 86
2, 520326, Note_on_c, 0, 51, 80
2, 520362, Note_on_c, 0, 48, 0
2, 520402, Note_on_c, 0, 44, 0
2, 520414, Note_on_c, 0, 56, 82
2, 520478, Note_on_c, 0, 51, 0
2, 520500, Note_on_c, 0, 36, 96
2, 520534, Note_on_c, 0, 60, 74
2, 520552, Note_on_c, 0, 36, 0
2, 520566, Note_on_c, 0, 56, 0
2, 520582, Note_on_c, 0, 60, 0
2, 520584, Note_on_c, 0, 51, 101
2, 520652, Note_on_c, 0, 44, 83
2, 520666, Note_on_c, 0, 56, 71
2, 520682, Note_on_c, 0, 51, 0
2, 520738, Note_on_c, 0, 60, 94
2, 520768, Note_on_c, 0, 44, 0
2, 520808, Note_on_c, 0, 56, 0
2, 520826, Note_on_c, 0, 36, 95
2, 520836, Note_on_c, 0, 63, 101
2, 520874, Note_on_c, 0, 60, 0
2, 520890, Note_on_c, 0, 56, 79
2, 520932, Note_on_c, 0, 63, 0
2, 520932, Note_on_c, 0, 36, 0
2, 520982, Note_on_c, 0, 60, 69
2, 520996, Note_on_c, 0, 44, 77
2, 521032, Note_on_c, 0, 56, 0
2, 521080, Note_on_c, 0, 63, 103
2, 521088, Note_on_c, 0, 44, 0
2, 521126, Note_on_c, 0, 60, 0
2, 521154, Note_on_c, 0, 68, 96
2, 521182, Note_on_c, 0, 36, 96
2, 521196, Note_on_c, 0, 63, 0
2, 521240, Note_on_c, 0, 68, 0
2, 521243, Note_on_c, 0, 60, 86
2, 521286, Note_on_c, 0, 36, 0
2, 521312, Note_on_c, 0, 63, 93
2, 521342, Note_on_c, 0, 44, 79
2, 521345, Note_on_c, 0, 60, 0
2, 521398, Note_on_c, 0, 68, 80
2, 521426, Note_on_c, 0, 44, 0
2, 521448, Note_on_c, 0, 63, 0
2, 521492, Note_on_c, 0, 72, 88
2, 521495, Note_on_c, 0, 36, 94
2, 521536, Note_on_c, 0, 68, 0
2, 521542, Note_on_c, 0, 72, 0
2, 521564, Note_on_c, 0, 63, 102
2, 521584, Note_on_c, 0, 36, 0
2, 521628, Note_on_c, 0, 68, 62
2, 521654, Note_on_c, 0, 44, 80
2, 521670, Note_on_c, 0, 63, 0
2, 521716, Note_on_c, 0, 72, 78
2, 521750, Note_on_c, 0, 44, 0
2, 521778, Note_on_c, 0, 68, 0
2, 521796, Note_on_c, 0, 75, 100
2, 521799, Note_on_c, 0, 36, 88
2, 521836, Note_on_c, 0, 72, 0
2, 521862, Note_on_c, 0, 68, 67
2, 521870, Note_on_c, 0, 36, 0
2, 521884, Note_on_c, 0, 75, 0
2, 521958, Note_on_c, 0, 72, 67
2, 521970, Note_on_c, 0, 44, 79
2, 522016, Note_on_c, 0, 44, 0
2, 522016, Note_on_c, 0, 68, 0
2, 522030, Note_on_c, 0, 75, 69
2, 522042, Control_c, 0, 64, 127
2, 522064, Note_on_c, 0, 72, 0
2, 522072, Note_on_c, 0, 75, 0
2, 522106, Note_on_c, 0, 80, 126
2, 522109, Note_on_c, 0, 68, 109
2, 522112, Note_on_c, 0, 48, 117
2, 522112, Note_on_c, 0, 75, 116
2, 522112, Note_on_c, 0, 72, 116
2, 522124, Note_on_c, 0, 36, 96
2, 522222, Note_on_c, 0, 80, 0
2, 522234, Note_on_c, 0, 36, 0
2, 522236, Note_on_c, 0, 48, 0
2, 522238, Note_on_c, 0, 68, 0
2, 522248, Note_on_c, 0, 75, 0
2, 522250, Note_on_c, 0, 72, 0
2, 522278, Note_on_c, 0, 80, 101
2, 522286, Note_on_c, 0, 68, 98
2, 522296, Note_on_c, 0, 44, 96
2, 522299, Note_on_c, 0, 75, 90
2, 522304, Note_on_c, 0, 72, 60
2, 522308, Note_on_c, 0, 80, 0
2, 522358, Note_on_c, 0, 72, 0
2, 522358, Note_on_c, 0, 44, 0
2, 522376, Note_on_c, 0, 75, 0
2, 522392, Note_on_c, 0, 68, 0
2, 522472, Control_c, 0, 64, 0
2, 522500, Note_on_c, 0, 35, 124
2, 522578, Note_on_c, 0, 49, 110
2, 522590, Note_on_c, 0, 35, 0
2, 522654, Note_on_c, 0, 44, 90
2, 522674, Note_on_c, 0, 53, 109
2, 522694, Note_on_c, 0, 49, 0
2, 522748, Note_on_c, 0, 56, 86
2, 522764, Note_on_c, 0, 44, 0
2, 522794, Note_on_c, 0, 53, 0
2, 522810, Control_c, 0, 64, 127
2, 522846, Note_on_c, 0, 35, 97
2, 522858, Note_on_c, 0, 61, 92
2, 522898, Note_on_c, 0, 56, 0
2, 522904, Note_on_c, 0, 35, 0
2, 522944, Note_on_c, 0, 53, 120
2, 522950, Note_on_c, 0, 61, 0
2, 522998, Note_on_c, 0, 44, 80
2, 523016, Note_on_c, 0, 56, 83
2, 523036, Note_on_c, 0, 53, 0
2, 523100, Note_on_c, 0, 61, 85
2, 523124, Note_on_c, 0, 44, 0
2, 523134, Note_on_c, 0, 56, 0
2, 523164, Control_c, 0, 64, 0
2, 523192, Note_on_c, 0, 65, 96
2, 523194, Note_on_c, 0, 35, 102
2, 523252, Note_on_c, 0, 61, 0
2, 523262, Note_on_c, 0, 65, 0
2, 523288, Note_on_c, 0, 56, 95
2, 523300, Note_on_c, 0, 35, 0
2, 523322, Note_on_c, 0, 58, 37
2, 523350, Note_on_c, 0, 44, 79
2, 523364, Control_c, 0, 64, 127
2, 523372, Note_on_c, 0, 61, 83
2, 523380, Note_on_c, 0, 56, 0
2, 523408, Note_on_c, 0, 58, 0
2, 523454, Note_on_c, 0, 65, 80
2, 523478, Note_on_c, 0, 44, 0
2, 523522, Note_on_c, 0, 61, 0
2, 523532, Control_c, 0, 64, 0
2, 523550, Note_on_c, 0, 68, 94
2, 523550, Note_on_c, 0, 35, 98
2, 523588, Note_on_c, 0, 65, 0
2, 523610, Note_on_c, 0, 61, 85
2, 523634, Note_on_c, 0, 35, 0
2, 523652, Note_on_c, 0, 68, 0
2, 523686, Control_c, 0, 64, 127
2, 523702, Note_on_c, 0, 44, 83
2, 523702, Note_on_c, 0, 65, 66
2, 523756, Note_on_c, 0, 61, 0
2, 523790, Note_on_c, 0, 68, 90
2, 523822, Note_on_c, 0, 44, 0
2, 523848, Note_on_c, 0, 65, 0
2, 523870, Control_c, 0, 64, 0
2, 523876, Note_on_c, 0, 73, 95
2, 523896, Note_on_c, 0, 35, 102
2, 523926, Note_on_c, 0, 68, 0
2, 523954, Note_on_c, 0, 65, 73
2, 523968, Note_on_c, 0, 73, 0
2, 523972, Note_on_c, 0, 35, 0
2, 524028, Note_on_c, 0, 68, 71
2, 524040, Control_c, 0, 64, 127
2, 524043, Note_on_c, 0, 44, 78
2, 524086, Note_on_c, 0, 65, 0
2, 524112, Note_on_c, 0, 73, 80
2, 524142, Note_on_c, 0, 44, 0
2, 524145, Control_c, 0, 64, 0
2, 524164, Note_on_c, 0, 68, 0
2, 524210, Note_on_c, 0, 77, 87
2, 524213, Note_on_c, 0, 35, 97
2, 524250, Note_on_c, 0, 73, 0
2, 524253, Note_on_c, 0, 77, 0
2, 524288, Note_on_c, 0, 68, 100
2, 524310, Note_on_c, 0, 35, 0
2, 524332, Control_c, 0, 64, 127
2, 524354, Note_on_c, 0, 73, 79
2, 524366, Note_on_c, 0, 44, 82
2, 524392, Note_on_c, 0, 68, 0
2, 524446, Note_on_c, 0, 77, 87
2, 524486, Note_on_c, 0, 44, 0
2, 524500, Control_c, 0, 64, 0
2, 524508, Note_on_c, 0, 73, 0
2, 524516, Note_on_c, 0, 35, 102
2, 524528, Note_on_c, 0, 80, 98
2, 524556, Note_on_c, 0, 77, 0
2, 524570, Note_on_c, 0, 80, 0
2, 524578, Note_on_c, 0, 73, 83
2, 524624, Note_on_c, 0, 35, 0
2, 524680, Note_on_c, 0, 44, 88
2, 524688, Note_on_c, 0, 77, 73
2, 524716, Control_c, 0, 64, 127
2, 524748, Note_on_c, 0, 80, 93
2, 524750, Note_on_c, 0, 44, 0
2, 524762, Note_on_c, 0, 73, 0
2, 524762, Control_c, 0, 64, 0
2, 524788, Note_on_c, 0, 80, 0
2, 524814, Note_on_c, 0, 77, 0
2, 524842, Note_on_c, 0, 47, 118
2, 524848, Note_on_c, 0, 35, 118
2, 524848, Note_on_c, 0, 80, 98
2, 524850, Note_on_c, 0, 85, 124
2, 524850, Note_on_c, 0, 73, 109
2, 524860, Note_on_c, 0, 77, 113
2, 524962, Control_c, 0, 64, 127
2, 524982, Note_on_c, 0, 85, 0
2, 524986, Note_on_c, 0, 73, 0
2, 525000, Note_on_c, 0, 80, 0
2, 525004, Note_on_c, 0, 35, 0
2, 525004, Note_on_c, 0, 77, 0
2, 525044, Note_on_c, 0, 85, 92
2, 525054, Note_on_c, 0, 80, 95
2, 525054, Note_on_c, 0, 73, 89
2, 525062, Note_on_c, 0, 77, 104
2, 525070, Note_on_c, 0, 44, 95
2, 525082, Note_on_c, 0, 85, 0
2, 525092, Note_on_c, 0, 47, 0
2, 525102, Note_on_c, 0, 77, 0
2, 525110, Note_on_c, 0, 80, 0
2, 525164, Note_on_c, 0, 73, 0
2, 525178, Note_on_c, 0, 44, 0
2, 525284, Control_c, 0, 64, 0
2, 525308, Note_on_c, 0, 33, 123
2, 525406, Note_on_c, 0, 49, 83
2, 525416, Note_on_c, 0, 33, 0
2, 525438, Note_on_c, 0, 51, 28
2, 525468, Note_on_c, 0, 49, 0
2, 525478, Note_on_c, 0, 54, 101
2, 525502, Note_on_c, 0, 45, 75
2, 525507, Note_on_c, 0, 51, 0
2, 525530, Control_c, 0, 64, 127
2, 525542, Note_on_c, 0, 57, 69
2, 525612, Note_on_c, 0, 54, 0
2, 525626, Note_on_c, 0, 45, 0
2, 525648, Note_on_c, 0, 61, 75
2, 525656, Note_on_c, 0, 57, 0
2, 525659, Note_on_c, 0, 33, 100
2, 525692, Note_on_c, 0, 61, 0
2, 525744, Note_on_c, 0, 61, 86
2, 525780, Note_on_c, 0, 33, 0
2, 525812, Note_on_c, 0, 61, 0
2, 525826, Note_on_c, 0, 45, 77
2, 525829, Note_on_c, 0, 66, 77
2, 525938, Note_on_c, 0, 69, 56
2, 525952, Note_on_c, 0, 45, 0
2, 525984, Note_on_c, 0, 73, 94
2, 525994, Note_on_c, 0, 33, 96
2, 526000, Note_on_c, 0, 69, 0
2, 526004, Note_on_c, 0, 66, 0
2, 526016, Note_on_c, 0, 73, 0
2, 526068, Note_on_c, 0, 73, 78
2, 526116, Note_on_c, 0, 33, 0
2, 526154, Note_on_c, 0, 78, 85
2, 526196, Note_on_c, 0, 45, 66
2, 526214, Note_on_c, 0, 81, 85
2, 526228, Note_on_c, 0, 73, 0
2, 526278, Note_on_c, 0, 78, 0
2, 526296, Note_on_c, 0, 45, 0
2, 526296, Control_c, 0, 64, 0
2, 526312, Note_on_c, 0, 81, 0
2, 526328, Note_on_c, 0, 78, 111
2, 526330, Note_on_c, 0, 73, 120
2, 526332, Note_on_c, 0, 85, 119
2, 526334, Note_on_c, 0, 33, 115
2, 526464, Note_on_c, 0, 85, 0
2, 526470, Note_on_c, 0, 73, 0
2, 526484, Note_on_c, 0, 78, 0
2, 526484, Note_on_c, 0, 33, 0
2, 526498, Control_c, 0, 64, 127
2, 526516, Note_on_c, 0, 85, 104
2, 526518, Note_on_c, 0, 73, 112
2, 526532, Note_on_c, 0, 78, 103
2, 526544, Note_on_c, 0, 45, 82
2, 526554, Note_on_c, 0, 85, 0
2, 526566, Note_on_c, 0, 78, 0
2, 526614, Note_on_c, 0, 73, 0
2, 526658, Note_on_c, 0, 45, 0
2, 526666, Control_c, 0, 64, 0
2, 526720, Note_on_c, 0, 33, 123
2, 526798, Note_on_c, 0, 49, 105
2, 526864, Note_on_c, 0, 33, 0
2, 526880, Note_on_c, 0, 52, 108
2, 526904, Note_on_c, 0, 49, 0
2, 526912, Control_c, 0, 64, 127
2, 526924, Note_on_c, 0, 45, 69
2, 526972, Note_on_c, 0, 55, 95
2, 527010, Note_on_c, 0, 52, 0
2, 527048, Note_on_c, 0, 45, 0
2, 527060, Note_on_c, 0, 61, 90
2, 527066, Note_on_c, 0, 55, 0
2, 527088, Note_on_c, 0, 33, 100
2, 527096, Note_on_c, 0, 61, 0
2, 527140, Note_on_c, 0, 61, 102
2, 527206, Control_c, 0, 64, 0
2, 527228, Note_on_c, 0, 64, 101
2, 527232, Note_on_c, 0, 33, 0
2, 527264, Note_on_c, 0, 61, 0
2, 527292, Note_on_c, 0, 45, 63
2, 527312, Control_c, 0, 64, 127
2, 527318, Note_on_c, 0, 67, 90
2, 527362, Note_on_c, 0, 64, 0
2, 527412, Note_on_c, 0, 73, 93
2, 527422, Note_on_c, 0, 45, 0
2, 527444, Note_on_c, 0, 67, 0
2, 527448, Note_on_c, 0, 73, 0
2, 527448, Note_on_c, 0, 33, 98
2, 527500, Note_on_c, 0, 73, 87
2, 527592, Note_on_c, 0, 33, 0
2, 527594, Note_on_c, 0, 76, 87
2, 527632, Note_on_c, 0, 73, 0
2, 527652, Note_on_c, 0, 45, 64
2, 527664, Note_on_c, 0, 79, 100
2, 527682, Control_c, 0, 64, 0
2, 527700, Note_on_c, 0, 79, 0
2, 527706, Note_on_c, 0, 76, 0
2, 527708, Note_on_c, 0, 45, 0
2, 527786, Note_on_c, 0, 79, 89
2, 527788, Note_on_c, 0, 73, 126
2, 527790, Note_on_c, 0, 85, 123
2, 527792, Note_on_c, 0, 45, 82
2, 527798, Note_on_c, 0, 33, 116
2, 527866, Control_c, 0, 64, 127
2, 527882, Note_on_c, 0, 33, 0
2, 527892, Note_on_c, 0, 45, 0
2, 527900, Control_c, 0, 64, 0
2, 527920, Note_on_c, 0, 73, 0
2, 527928, Note_on_c, 0, 79, 0
2, 527930, Note_on_c, 0, 85, 0
2, 528002, Note_on_c, 0, 79, 102
2, 528006, Note_on_c, 0, 85, 97
2, 528008, Note_on_c, 0, 73, 100
2, 528022, Note_on_c, 0, 45, 102
2, 528022, Note_on_c, 0, 33, 108
2, 528064, Note_on_c, 0, 33, 0
2, 528070, Note_on_c, 0, 45, 0
2, 528080, Control_c, 0, 64, 127
2, 528112, Control_c, 0, 64, 0
2, 528150, Note_on_c, 0, 73, 0
2, 528174, Note_on_c, 0, 79, 0
2, 528177, Note_on_c, 0, 85, 0
2, 528248, Note_on_c, 0, 80, 105
2, 528248, Note_on_c, 0, 72, 127
2, 528248, Note_on_c, 0, 84, 124
2, 528254, Note_on_c, 0, 44, 127
2, 528258, Note_on_c, 0, 32, 115
2, 528286, Note_on_c, 0, 32, 0
2, 528298, Note_on_c, 0, 82, 28
2, 528326, Note_on_c, 0, 84, 0
2, 528330, Note_on_c, 0, 44, 0
2, 528342, Control_c, 0, 64, 127
2, 528350, Note_on_c, 0, 72, 0
2, 528368, Note_on_c, 0, 80, 0
2, 528368, Note_on_c, 0, 82, 0
2, 528566, Note_on_c, 0, 60, 97
2, 528574, Note_on_c, 0, 56, 79
2, 528578, Note_on_c, 0, 68, 93
2, 528654, Note_on_c, 0, 60, 0
2, 528674, Note_on_c, 0, 80, 81
2, 528684, Note_on_c, 0, 68, 0
2, 528766, Note_on_c, 0, 68, 77
2, 528796, Note_on_c, 0, 80, 0
2, 528806, Note_on_c, 0, 60, 75
2, 528860, Note_on_c, 0, 80, 75
2, 528866, Note_on_c, 0, 68, 0
2, 528942, Control_c, 0, 64, 0
2, 528945, Note_on_c, 0, 61, 86
2, 528950, Note_on_c, 0, 60, 0
2, 528956, Note_on_c, 0, 70, 78
2, 528982, Note_on_c, 0, 80, 0
2, 529046, Note_on_c, 0, 80, 69
2, 529068, Note_on_c, 0, 70, 0
2, 529124, Control_c, 0, 64, 127
2, 529144, Note_on_c, 0, 72, 74
2, 529164, Note_on_c, 0, 63, 75
2, 529174, Note_on_c, 0, 80, 0
2, 529242, Note_on_c, 0, 80, 69
2, 529250, Note_on_c, 0, 72, 0
2, 529318, Note_on_c, 0, 61, 0
2, 529332, Note_on_c, 0, 73, 74
2, 529342, Note_on_c, 0, 64, 92
2, 529356, Note_on_c, 0, 63, 0
2, 529356, Note_on_c, 0, 80, 0
2, 529418, Note_on_c, 0, 80, 75
2, 529470, Note_on_c, 0, 73, 0
2, 529510, Control_c, 0, 64, 0
2, 529513, Note_on_c, 0, 75, 82
2, 529526, Note_on_c, 0, 80, 0
2, 529536, Note_on_c, 0, 66, 88
2, 529578, Note_on_c, 0, 64, 0
2, 529601, Note_on_c, 0, 80, 74
2, 529646, Note_on_c, 0, 75, 0
2, 529692, Note_on_c, 0, 72, 97
2, 529695, Control_c, 0, 64, 127
2, 529710, Note_on_c, 0, 63, 93
2, 529728, Note_on_c, 0, 80, 0
2, 529750, Note_on_c, 0, 66, 0
2, 529792, Note_on_c, 0, 80, 77
2, 529798, Note_on_c, 0, 72, 0
2, 529876, Note_on_c, 0, 75, 87
2, 529896, Note_on_c, 0, 66, 93
2, 529902, Note_on_c, 0, 80, 0
2, 529958, Note_on_c, 0, 63, 0
2, 529978, Note_on_c, 0, 80, 78
2, 529986, Control_c, 0, 64, 0
2, 530040, Note_on_c, 0, 75, 0
2, 530058, Note_on_c, 0, 73, 93
2, 530078, Note_on_c, 0, 64, 92
2, 530100, Note_on_c, 0, 80, 0
2, 530138, Note_on_c, 0, 66, 0
2, 530154, Note_on_c, 0, 80, 93
2, 530156, Control_c, 0, 64, 127
2, 530164, Note_on_c, 0, 73, 0
2, 530212, Note_on_c, 0, 56, 0
2, 530232, Note_on_c, 0, 78, 90
2, 530252, Note_on_c, 0, 64, 0
2, 530260, Note_on_c, 0, 69, 79
2, 530284, Note_on_c, 0, 80, 0
2, 530342, Note_on_c, 0, 80, 94
2, 530415, Note_on_c, 0, 78, 0
2, 530415, Note_on_c, 0, 76, 93
2, 530430, Note_on_c, 0, 80, 0
2, 530440, Note_on_c, 0, 68, 89
2, 530484, Note_on_c, 0, 69, 0
2, 530520, Note_on_c, 0, 80, 74
2, 530554, Note_on_c, 0, 76, 0
2, 530596, Note_on_c, 0, 75, 95
2, 530610, Note_on_c, 0, 68, 0
2, 530610, Note_on_c, 0, 66, 80
2, 530614, Note_on_c, 0, 80, 0
2, 530694, Note_on_c, 0, 80, 80
2, 530718, Note_on_c, 0, 75, 0
2, 530746, Note_on_c, 0, 66, 0
2, 530790, Note_on_c, 0, 73, 89
2, 530798, Note_on_c, 0, 80, 0
2, 530798, Note_on_c, 0, 64, 98
2, 530870, Note_on_c, 0, 80, 73
2, 530886, Note_on_c, 0, 73, 0
2, 530972, Note_on_c, 0, 80, 0
2, 530972, Note_on_c, 0, 72, 87
2, 530994, Note_on_c, 0, 64, 0
2, 530994, Note_on_c, 0, 63, 90
2, 531040, Note_on_c, 0, 80, 72
2, 531070, Note_on_c, 0, 72, 0
2, 531114, Note_on_c, 0, 63, 0
2, 531160, Note_on_c, 0, 69, 86
2, 531162, Note_on_c, 0, 61, 89
2, 531174, Note_on_c, 0, 80, 0
2, 531214, Note_on_c, 0, 61, 0
2, 531260, Note_on_c, 0, 69, 0
2, 531260, Note_on_c, 0, 79, 93
2, 531338, Note_on_c, 0, 79, 0
2, 531338, Note_on_c, 0, 56, 100
2, 531344, Note_on_c, 0, 60, 92
2, 531348, Note_on_c, 0, 68, 88
2, 531388, Note_on_c, 0, 60, 0
2, 531432, Note_on_c, 0, 68, 0
2, 531444, Note_on_c, 0, 80, 85
2, 531506, Control_c, 0, 64, 0
2, 531542, Note_on_c, 0, 68, 67
2, 531548, Note_on_c, 0, 60, 88
2, 531560, Note_on_c, 0, 80, 0
2, 531628, Note_on_c, 0, 68, 0
2, 531628, Note_on_c, 0, 80, 73
2, 531662, Note_on_c, 0, 60, 0
2, 531706, Control_c, 0, 64, 127
2, 531734, Note_on_c, 0, 80, 0
2, 531737, Note_on_c, 0, 68, 63
2, 531742, Note_on_c, 0, 60, 57
2, 531798, Note_on_c, 0, 68, 0
2, 531826, Note_on_c, 0, 80, 48
2, 531900, Note_on_c, 0, 60, 0
2, 531920, Note_on_c, 0, 70, 66
2, 531928, Note_on_c, 0, 61, 69
2, 531952, Note_on_c, 0, 80, 0
2, 532008, Note_on_c, 0, 70, 0
2, 532016, Note_on_c, 0, 80, 69
2, 532122, Note_on_c, 0, 72, 73
2, 532130, Note_on_c, 0, 63, 80
2, 532140, Note_on_c, 0, 80, 0
2, 532176, Note_on_c, 0, 61, 0
2, 532206, Note_on_c, 0, 80, 70
2, 532216, Note_on_c, 0, 72, 0
2, 532308, Note_on_c, 0, 73, 79
2, 532308, Note_on_c, 0, 64, 82
2, 532311, Note_on_c, 0, 63, 0
2, 532316, Note_on_c, 0, 80, 0
2, 532400, Note_on_c, 0, 80, 63
2, 532440, Note_on_c, 0, 73, 0
2, 532490, Note_on_c, 0, 75, 82
2, 532500, Note_on_c, 0, 66, 81
2, 532504, Note_on_c, 0, 80, 0
2, 532528, Note_on_c, 0, 64, 0
2, 532568, Control_c, 0, 64, 0
2, 532580, Note_on_c, 0, 80, 70
2, 532602, Note_on_c, 0, 75, 0
2, 532668, Note_on_c, 0, 72, 96
2, 532668, Note_on_c, 0, 63, 93
2, 532690, Control_c, 0, 64, 127
2, 532702, Note_on_c, 0, 80, 0
2, 532704, Note_on_c, 0, 66, 0
2, 532762, Note_on_c, 0, 80, 83
2, 532768, Note_on_c, 0, 72, 0
2, 532842, Note_on_c, 0, 66, 89
2, 532850, Note_on_c, 0, 75, 83
2, 532862, Note_on_c, 0, 80, 0
2, 532884, Note_on_c, 0, 63, 0
2, 532954, Note_on_c, 0, 80, 69
2, 532998, Control_c, 0, 64, 0
2, 533001, Note_on_c, 0, 75, 0
2, 533016, Note_on_c, 0, 73, 96
2, 533024, Note_on_c, 0, 64, 92
2, 533042, Note_on_c, 0, 66, 0
2, 533050, Note_on_c, 0, 80, 0
2, 533112, Note_on_c, 0, 80, 88
2, 533130, Note_on_c, 0, 73, 0
2, 533150, Control_c, 0, 64, 127
2, 533155, Note_on_c, 0, 56, 0
2, 533196, Note_on_c, 0, 78, 93
2, 533212, Note_on_c, 0, 69, 88
2, 533218, Note_on_c, 0, 64, 0
2, 533242, Note_on_c, 0, 80, 0
2, 533306, Note_on_c, 0, 80, 81
2, 533370, Note_on_c, 0, 76, 93
2, 533376, Note_on_c, 0, 78, 0
2, 533390, Note_on_c, 0, 68, 87
2, 533408, Note_on_c, 0, 80, 0
2, 533426, Note_on_c, 0, 69, 0
2, 533476, Note_on_c, 0, 80, 85
2, 533506, Note_on_c, 0, 76, 0
2, 533558, Note_on_c, 0, 75, 93
2, 533562, Note_on_c, 0, 68, 0
2, 533562, Note_on_c, 0, 66, 87
2, 533588, Note_on_c, 0, 80, 0
2, 533654, Note_on_c, 0, 80, 90
2, 533684, Note_on_c, 0, 75, 0
2, 533700, Note_on_c, 0, 66, 0
2, 533740, Note_on_c, 0, 73, 90
2, 533743, Note_on_c, 0, 64, 104
2, 533750, Note_on_c, 0, 80, 0
2, 533834, Note_on_c, 0, 80, 70
2, 533844, Note_on_c, 0, 73, 0
2, 533920, Note_on_c, 0, 72, 95
2, 533928, Note_on_c, 0, 64, 0
2, 533930, Note_on_c, 0, 63, 98
2, 533996, Note_on_c, 0, 72, 0
2, 534036, Note_on_c, 0, 63, 0
2, 534084, Note_on_c, 0, 61, 97
2, 534098, Note_on_c, 0, 69, 95
2, 534112, Note_on_c, 0, 80, 0
2, 534126, Note_on_c, 0, 61, 0
2, 534182, Note_on_c, 0, 69, 0
2, 534194, Note_on_c, 0, 79, 97
2, 534256, Note_on_c, 0, 79, 0
2, 534258, Control_c, 0, 64, 0
2, 534268, Note_on_c, 0, 60, 93
2, 534274, Note_on_c, 0, 56, 89
2, 534276, Note_on_c, 0, 68, 97
2, 534308, Note_on_c, 0, 60, 0
2, 534314, Note_on_c, 0, 56, 0
2, 534368, Note_on_c, 0, 80, 89
2, 534374, Note_on_c, 0, 68, 0
2, 534438, Note_on_c, 0, 80, 0
2, 534450, Note_on_c, 0, 61, 86
2, 534452, Note_on_c, 0, 69, 74
2, 534462, Note_on_c, 0, 56, 78
2, 534492, Note_on_c, 0, 61, 0
2, 534504, Note_on_c, 0, 56, 0
2, 534530, Note_on_c, 0, 69, 0
2, 534534, Note_on_c, 0, 79, 97
2, 534604, Note_on_c, 0, 79, 0
2, 534624, Note_on_c, 0, 60, 97
2, 534628, Note_on_c, 0, 68, 94
2, 534636, Note_on_c, 0, 56, 72
2, 534666, Note_on_c, 0, 60, 0
2, 534678, Note_on_c, 0, 56, 0
2, 534718, Note_on_c, 0, 80, 89
2, 534740, Note_on_c, 0, 68, 0
2, 534792, Note_on_c, 0, 61, 109
2, 534804, Note_on_c, 0, 56, 75
2, 534807, Note_on_c, 0, 69, 85
2, 534842, Note_on_c, 0, 80, 0
2, 534850, Note_on_c, 0, 56, 0
2, 534866, Note_on_c, 0, 61, 0
2, 534888, Note_on_c, 0, 79, 94
2, 534908, Note_on_c, 0, 69, 0
2, 534948, Note_on_c, 0, 79, 0
2, 534972, Note_on_c, 0, 60, 108
2, 534982, Note_on_c, 0, 68, 93
2, 534982, Note_on_c, 0, 56, 98
2, 535020, Note_on_c, 0, 70, 21
2, 535024, Note_on_c, 0, 56, 0
2, 535034, Note_on_c, 0, 60, 0
2, 535058, Note_on_c, 0, 80, 96
2, 535090, Note_on_c, 0, 68, 0
2, 535094, Note_on_c, 0, 70, 0
2, 535136, Note_on_c, 0, 61, 103
2, 535142, Note_on_c, 0, 69, 87
2, 535144, Note_on_c, 0, 56, 82
2, 535166, Note_on_c, 0, 80, 0
2, 535190, Note_on_c, 0, 56, 0
2, 535198, Note_on_c, 0, 61, 0
2, 535220, Note_on_c, 0, 79, 98
2, 535230, Note_on_c, 0, 69, 0
2, 535304, Note_on_c, 0, 60, 104
2, 535310, Note_on_c, 0, 56, 83
2, 535324, Note_on_c, 0, 79, 0
2, 535324, Note_on_c, 0, 68, 102
2, 535362, Note_on_c, 0, 56, 0
2, 535376, Note_on_c, 0, 60, 0
2, 535424, Note_on_c, 0, 80, 88
2, 535470, Note_on_c, 0, 68, 0
2, 535504, Note_on_c, 0, 56, 83
2, 535506, Note_on_c, 0, 61, 98
2, 535510, Note_on_c, 0, 69, 67
2, 535556, Note_on_c, 0, 61, 0
2, 535562, Note_on_c, 0, 80, 0
2, 535562, Note_on_c, 0, 56, 0
2, 535570, Note_on_c, 0, 79, 79
2, 535602, Note_on_c, 0, 69, 0
2, 535614, Note_on_c, 0, 79, 0
2, 535679, Note_on_c, 0, 80, 120
2, 535683, Note_on_c, 0, 60, 115
2, 535686, Note_on_c, 0, 68, 120
2, 535686, Note_on_c, 0, 56, 98
2, 535732, Control_c, 0, 64, 127
2, 535734, Note_on_c, 0, 60, 0
2, 535748, Note_on_c, 0, 80, 0
2, 535750, Note_on_c, 0, 56, 0
2, 535760, Note_on_c, 0, 68, 0
2, 535978, Control_c, 0, 64, 0
2, 536166, Note_on_c, 0, 44, 110
2, 536170, Note_on_c, 0, 56, 115
2, 536172, Note_on_c, 0, 32, 105
2, 537362, Control_c, 0, 64, 127
2, 537400, Note_on_c, 0, 56, 0
2, 537410, Note_on_c, 0, 44, 0
2, 537470, Note_on_c, 0, 32, 0
2, 538128, Note_on_c, 0, 37, 95
2, 538128, Control_c, 0, 64, 0
2, 538168, Note_on_c, 0, 37, 0
2, 538204, Note_on_c, 0, 44, 83
2, 538292, Note_on_c, 0, 49, 75
2, 538384, Note_on_c, 0, 52, 77
2, 538387, Note_on_c, 0, 44, 0
2, 538404, Note_on_c, 0, 49, 0
2, 538438, Note_on_c, 0, 56, 74
2, 538444, Note_on_c, 0, 52, 0
2, 538474, Note_on_c, 0, 37, 70
2, 538502, Note_on_c, 0, 56, 0
2, 538520, Note_on_c, 0, 49, 74
2, 538522, Note_on_c, 0, 37, 0
2, 538602, Note_on_c, 0, 52, 94
2, 538618, Note_on_c, 0, 44, 66
2, 538621, Note_on_c, 0, 49, 0
2, 538690, Note_on_c, 0, 44, 0
2, 538696, Note_on_c, 0, 56, 71
2, 538720, Note_on_c, 0, 52, 0
2, 538780, Note_on_c, 0, 61, 79
2, 538800, Note_on_c, 0, 37, 67
2, 538818, Note_on_c, 0, 56, 0
2, 538830, Note_on_c, 0, 61, 0
2, 538848, Note_on_c, 0, 37, 0
2, 538874, Note_on_c, 0, 52, 97
2, 538926, Note_on_c, 0, 52, 0
2, 538944, Note_on_c, 0, 44, 67
2, 538947, Note_on_c, 0, 56, 81
2, 539014, Note_on_c, 0, 44, 0
2, 539038, Note_on_c, 0, 61, 79
2, 539082, Note_on_c, 0, 56, 0
2, 539106, Note_on_c, 0, 64, 83
2, 539118, Note_on_c, 0, 37, 74
2, 539144, Note_on_c, 0, 64, 0
2, 539168, Note_on_c, 0, 37, 0
2, 539168, Note_on_c, 0, 61, 0
2, 539192, Note_on_c, 0, 56, 86
2, 539262, Note_on_c, 0, 44, 75
2, 539270, Note_on_c, 0, 61, 73
2, 539296, Note_on_c, 0, 56, 0
2, 539342, Note_on_c, 0, 44, 0
2, 539366, Note_on_c, 0, 64, 41
2, 539410, Note_on_c, 0, 61, 0
2, 539424, Note_on_c, 0, 68, 83
2, 539434, Note_on_c, 0, 37, 75
2, 539464, Note_on_c, 0, 64, 0
2, 539476, Note_on_c, 0, 61, 75
2, 539486, Note_on_c, 0, 68, 0
2, 539492, Note_on_c, 0, 37, 0
2, 539566, Note_on_c, 0, 64, 73
2, 539606, Note_on_c, 0, 44, 70
2, 539609, Note_on_c, 0, 61, 0
2, 539658, Note_on_c, 0, 68, 79
2, 539672, Note_on_c, 0, 44, 0
2, 539692, Note_on_c, 0, 64, 0
2, 539742, Note_on_c, 0, 73, 79
2, 539756, Note_on_c, 0, 37, 66
2, 539758, Note_on_c, 0, 68, 0
2, 539788, Note_on_c, 0, 73, 0
2, 539812, Note_on_c, 0, 64, 88
2, 539818, Note_on_c, 0, 37, 0
2, 539884, Note_on_c, 0, 68, 77
2, 539908, Note_on_c, 0, 44, 67
2, 539922, Note_on_c, 0, 64, 0
2, 539972, Note_on_c, 0, 73, 87
2, 539974, Note_on_c, 0, 44, 0
2, 540008, Note_on_c, 0, 68, 0
2, 540036, Note_on_c, 0, 76, 79
2, 540058, Note_on_c, 0, 37, 82
2, 540074, Note_on_c, 0, 76, 0
2, 540074, Note_on_c, 0, 73, 0
2, 540118, Note_on_c, 0, 76, 103
2, 540180, Note_on_c, 0, 37, 0
2, 540196, Note_on_c, 0, 80, 100
2, 540215, Note_on_c, 0, 44, 83
2, 540232, Note_on_c, 0, 76, 0
2, 540270, Note_on_c, 0, 44, 0
2, 540286, Note_on_c, 0, 85, 93
2, 540312, Note_on_c, 0, 80, 0
2, 540364, Note_on_c, 0, 76, 126
2, 540368, Note_on_c, 0, 88, 124
2, 540370, Note_on_c, 0, 49, 123
2, 540378, Note_on_c, 0, 37, 113
2, 540388, Control_c, 0, 64, 127
2, 540436, Note_on_c, 0, 85, 0
2, 540480, Note_on_c, 0, 37, 0
2, 540494, Note_on_c, 0, 88, 0
2, 540506, Note_on_c, 0, 76, 0
2, 540514, Note_on_c, 0, 49, 0
2, 540580, Note_on_c, 0, 88, 96
2, 540590, Note_on_c, 0, 76, 82
2, 540592, Note_on_c, 0, 44, 96
2, 540614, Note_on_c, 0, 88, 0
2, 540650, Note_on_c, 0, 76, 0
2, 540702, Note_on_c, 0, 44, 0
2, 540818, Control_c, 0, 64, 0
2, 540856, Note_on_c, 0, 34, 112
2, 540966, Note_on_c, 0, 34, 0
2, 540976, Note_on_c, 0, 52, 109
2, 541018, Control_c, 0, 64, 127
2, 541056, Note_on_c, 0, 55, 97
2, 541070, Note_on_c, 0, 49, 78
2, 541092, Note_on_c, 0, 52, 0
2, 541144, Note_on_c, 0, 61, 85
2, 541160, Note_on_c, 0, 49, 0
2, 541170, Note_on_c, 0, 55, 0
2, 541236, Note_on_c, 0, 64, 73
2, 541248, Note_on_c, 0, 46, 73
2, 541290, Note_on_c, 0, 61, 0
2, 541300, Note_on_c, 0, 64, 0
2, 541318, Note_on_c, 0, 55, 105
2, 541330, Note_on_c, 0, 46, 0
2, 541388, Note_on_c, 0, 61, 71
2, 541406, Note_on_c, 0, 49, 79
2, 541426, Note_on_c, 0, 55, 0
2, 541448, Control_c, 0, 64, 0
2, 541484, Note_on_c, 0, 64, 90
2, 541520, Note_on_c, 0, 49, 0
2, 541548, Note_on_c, 0, 61, 0
2, 541578, Note_on_c, 0, 46, 80
2, 541581, Note_on_c, 0, 64, 0
2, 541584, Note_on_c, 0, 67, 49
2, 541618, Control_c, 0, 64, 127
2, 541646, Note_on_c, 0, 61, 93
2, 541652, Note_on_c, 0, 67, 0
2, 541668, Note_on_c, 0, 46, 0
2, 541734, Note_on_c, 0, 49, 75
2, 541736, Note_on_c, 0, 64, 90
2, 541750, Note_on_c, 0, 61, 0
2, 541824, Note_on_c, 0, 67, 78
2, 541832, Control_c, 0, 64, 0
2, 541850, Note_on_c, 0, 49, 0
2, 541864, Note_on_c, 0, 64, 0
2, 541914, Note_on_c, 0, 46, 75
2, 541916, Note_on_c, 0, 73, 96
2, 541952, Note_on_c, 0, 67, 0
2, 541998, Note_on_c, 0, 46, 0
2, 542016, Note_on_c, 0, 64, 89
2, 542048, Note_on_c, 0, 73, 0
2, 542048, Control_c, 0, 64, 127
2, 542066, Note_on_c, 0, 49, 80
2, 542086, Note_on_c, 0, 67, 93
2, 542104, Note_on_c, 0, 64, 0
2, 542174, Note_on_c, 0, 73, 82
2, 542182, Note_on_c, 0, 49, 0
2, 542200, Control_c, 0, 64, 0
2, 542210, Note_on_c, 0, 67, 0
2, 542248, Note_on_c, 0, 76, 100
2, 542252, Note_on_c, 0, 46, 78
2, 542304, Note_on_c, 0, 73, 0
2, 542342, Note_on_c, 0, 67, 104
2, 542358, Note_on_c, 0, 46, 0
2, 542382, Note_on_c, 0, 76, 0
2, 542408, Note_on_c, 0, 73, 79
2, 542411, Note_on_c, 0, 49, 78
2, 542432, Control_c, 0, 64, 127
2, 542452, Note_on_c, 0, 67, 0
2, 542486, Note_on_c, 0, 76, 73
2, 542492, Control_c, 0, 64, 0
2, 542512, Note_on_c, 0, 49, 0
2, 542562, Note_on_c, 0, 73, 0
2, 542574, Note_on_c, 0, 79, 106
2, 542590, Note_on_c, 0, 46, 78
2, 542600, Note_on_c, 0, 76, 0
2, 542608, Note_on_c, 0, 79, 0
2, 542654, Note_on_c, 0, 73, 73
2, 542662, Control_c, 0, 64, 127
2, 542714, Note_on_c, 0, 46, 0
2, 542732, Note_on_c, 0, 76, 66
2, 542742, Note_on_c, 0, 49, 74
2, 542784, Note_on_c, 0, 73, 0
2, 542810, Note_on_c, 0, 79, 97
2, 542816, Control_c, 0, 64, 0
2, 542818, Note_on_c, 0, 49, 0
2, 542848, Note_on_c, 0, 76, 0
2, 542892, Note_on_c, 0, 85, 98
2, 542914, Note_on_c, 0, 46, 87
2, 542917, Note_on_c, 0, 79, 0
2, 542974, Note_on_c, 0, 76, 85
2, 543020, Note_on_c, 0, 85, 0
2, 543030, Note_on_c, 0, 46, 0
2, 543030, Control_c, 0, 64, 127
2, 543060, Note_on_c, 0, 79, 104
2, 543070, Note_on_c, 0, 49, 88
2, 543114, Note_on_c, 0, 76, 0
2, 543120, Note_on_c, 0, 49, 0
2, 543132, Note_on_c, 0, 85, 86
2, 543154, Control_c, 0, 64, 0
2, 543176, Note_on_c, 0, 79, 0
2, 543238, Note_on_c, 0, 88, 119
2, 543240, Note_on_c, 0, 76, 127
2, 543244, Note_on_c, 0, 46, 112
2, 543258, Note_on_c, 0, 34, 101
2, 543290, Note_on_c, 0, 34, 0
2, 543316, Note_on_c, 0, 85, 0
2, 543338, Control_c, 0, 64, 127
2, 543342, Note_on_c, 0, 46, 0
2, 543368, Note_on_c, 0, 76, 0
2, 543371, Note_on_c, 0, 88, 0
2, 543432, Note_on_c, 0, 88, 90
2, 543444, Note_on_c, 0, 49, 98
2, 543448, Note_on_c, 0, 76, 79
2, 543474, Note_on_c, 0, 88, 0
2, 543506, Note_on_c, 0, 49, 0
2, 543509, Note_on_c, 0, 76, 0
2, 543630, Control_c, 0, 64, 0
2, 543690, Note_on_c, 0, 31, 127
2, 543784, Note_on_c, 0, 31, 0
2, 543808, Note_on_c, 0, 51, 94
2, 543844, Control_c, 0, 64, 127
2, 543916, Note_on_c, 0, 58, 73
2, 543920, Note_on_c, 0, 51, 0
2, 543946, Note_on_c, 0, 51, 33
2, 544018, Note_on_c, 0, 61, 85
2, 544026, Note_on_c, 0, 51, 0
2, 544054, Note_on_c, 0, 58, 0
2, 544122, Note_on_c, 0, 63, 89
2, 544128, Note_on_c, 0, 43, 90
2, 544180, Note_on_c, 0, 61, 0
2, 544183, Note_on_c, 0, 43, 0
2, 544196, Note_on_c, 0, 63, 0
2, 544206, Note_on_c, 0, 58, 80
2, 544288, Note_on_c, 0, 51, 83
2, 544296, Note_on_c, 0, 61, 75
2, 544328, Note_on_c, 0, 58, 0
2, 544380, Note_on_c, 0, 63, 100
2, 544402, Note_on_c, 0, 51, 0
2, 544412, Note_on_c, 0, 61, 0
2, 544470, Note_on_c, 0, 70, 86
2, 544490, Note_on_c, 0, 63, 0
2, 544490, Note_on_c, 0, 43, 80
2, 544546, Note_on_c, 0, 43, 0
2, 544550, Note_on_c, 0, 61, 79
2, 544638, Note_on_c, 0, 63, 95
2, 544646, Note_on_c, 0, 51, 73
2, 544656, Note_on_c, 0, 70, 0
2, 544672, Note_on_c, 0, 61, 0
2, 544742, Note_on_c, 0, 70, 57
2, 544748, Note_on_c, 0, 51, 0
2, 544768, Note_on_c, 0, 63, 0
2, 544820, Note_on_c, 0, 73, 88
2, 544823, Note_on_c, 0, 43, 79
2, 544888, Note_on_c, 0, 43, 0
2, 544888, Note_on_c, 0, 70, 0
2, 544914, Note_on_c, 0, 63, 98
2, 544984, Note_on_c, 0, 73, 0
2, 544986, Note_on_c, 0, 51, 75
2, 544992, Note_on_c, 0, 70, 63
2, 545012, Note_on_c, 0, 63, 0
2, 545084, Note_on_c, 0, 73, 62
2, 545098, Note_on_c, 0, 51, 0
2, 545144, Note_on_c, 0, 70, 0
2, 545174, Note_on_c, 0, 75, 94
2, 545182, Control_c, 0, 64, 0
2, 545184, Note_on_c, 0, 43, 64
2, 545234, Note_on_c, 0, 73, 0
2, 545262, Note_on_c, 0, 70, 86
2, 545284, Note_on_c, 0, 75, 0
2, 545308, Note_on_c, 0, 43, 0
2, 545338, Note_on_c, 0, 73, 71
2, 545344, Note_on_c, 0, 51, 70
2, 545368, Note_on_c, 0, 70, 0
2, 545382, Control_c, 0, 64, 127
2, 545422, Note_on_c, 0, 75, 95
2, 545460, Note_on_c, 0, 73, 0
2, 545478, Note_on_c, 0, 51, 0
2, 545520, Note_on_c, 0, 82, 86
2, 545532, Note_on_c, 0, 43, 56
2, 545562, Note_on_c, 0, 75, 0
2, 545596, Note_on_c, 0, 43, 0
2, 545598, Note_on_c, 0, 73, 86
2, 545666, Note_on_c, 0, 82, 0
2, 545696, Note_on_c, 0, 51, 64
2, 545696, Note_on_c, 0, 75, 81
2, 545716, Note_on_c, 0, 73, 0
2, 545786, Note_on_c, 0, 82, 79
2, 545796, Note_on_c, 0, 75, 0
2, 545838, Note_on_c, 0, 51, 0
2, 545841, Control_c, 0, 64, 0
2, 545870, Note_on_c, 0, 43, 60
2, 545876, Note_on_c, 0, 85, 101
2, 545914, Note_on_c, 0, 82, 0
2, 545970, Note_on_c, 0, 82, 86
2, 545994, Note_on_c, 0, 43, 0
2, 546028, Note_on_c, 0, 85, 0
2, 546028, Control_c, 0, 64, 127
2, 546072, Note_on_c, 0, 75, 77
2, 546075, Note_on_c, 0, 51, 52
2, 546116, Note_on_c, 0, 82, 0
2, 546148, Note_on_c, 0, 73, 78
2, 546166, Note_on_c, 0, 51, 0
2, 546190, Note_on_c, 0, 75, 0
2, 546242, Control_c, 0, 64, 0
2, 546266, Note_on_c, 0, 73, 0
2, 546272, Note_on_c, 0, 82, 72
2, 546276, Note_on_c, 0, 43, 42
2, 546380, Note_on_c, 0, 75, 56
2, 546404, Note_on_c, 0, 82, 0
2, 546442, Control_c, 0, 64, 127
2, 546484, Note_on_c, 0, 43, 0
2, 546490, Note_on_c, 0, 73, 55
2, 546493, Note_on_c, 0, 51, 37
2, 546520, Note_on_c, 0, 75, 0
2, 546588, Note_on_c, 0, 70, 55
2, 546598, Note_on_c, 0, 51, 0
2, 546598, Note_on_c, 0, 73, 0
2, 546718, Control_c, 0, 64, 0
2, 546734, Note_on_c, 0, 70, 0
2, 546743, Note_on_c, 0, 71, 67
2, 546746, Note_on_c, 0, 44, 40
2, 546900, Note_on_c, 0, 51, 47
2, 546974, Note_on_c, 0, 51, 0
2, 546978, Note_on_c, 0, 44, 0
2, 546980, Control_c, 0, 64, 127
2, 547018, Note_on_c, 0, 47, 31
2, 547032, Note_on_c, 0, 71, 0
2, 547128, Note_on_c, 0, 47, 0
2, 547158, Note_on_c, 0, 51, 33
2, 547286, Note_on_c, 0, 51, 0
2, 547342, Note_on_c, 0, 75, 77
2, 547358, Note_on_c, 0, 44, 36
2, 547570, Note_on_c, 0, 44, 0
2, 547594, Note_on_c, 0, 47, 29
2, 547676, Note_on_c, 0, 47, 0
2, 547696, Note_on_c, 0, 51, 25
2, 547778, Note_on_c, 0, 51, 0
2, 547796, Note_on_c, 0, 44, 50
2, 547874, Note_on_c, 0, 44, 0
2, 547902, Note_on_c, 0, 51, 26
2, 547976, Note_on_c, 0, 51, 0
2, 547996, Note_on_c, 0, 47, 39
2, 548076, Note_on_c, 0, 47, 0
2, 548094, Note_on_c, 0, 51, 24
2, 548168, Note_on_c, 0, 71, 87
2, 548180, Note_on_c, 0, 51, 0
2, 548212, Note_on_c, 0, 44, 41
2, 548268, Note_on_c, 0, 75, 0
2, 548350, Note_on_c, 0, 51, 31
2, 548408, Note_on_c, 0, 68, 63
2, 548424, Note_on_c, 0, 51, 0
2, 548466, Note_on_c, 0, 47, 28
2, 548468, Note_on_c, 0, 68, 0
2, 548510, Note_on_c, 0, 71, 0
2, 548522, Note_on_c, 0, 67, 63
2, 548544, Note_on_c, 0, 47, 0
2, 548580, Note_on_c, 0, 68, 70
2, 548582, Note_on_c, 0, 51, 29
2, 548586, Note_on_c, 0, 67, 0
2, 548650, Note_on_c, 0, 68, 0
2, 548660, Note_on_c, 0, 70, 63
2, 548670, Control_c, 0, 64, 0
2, 548696, Note_on_c, 0, 51, 0
2, 548714, Note_on_c, 0, 44, 0
2, 548717, Note_on_c, 0, 68, 78
2, 548734, Note_on_c, 0, 46, 35
2, 548786, Note_on_c, 0, 70, 0
2, 548872, Note_on_c, 0, 51, 47
2, 548938, Note_on_c, 0, 51, 0
2, 548958, Note_on_c, 0, 49, 44
2, 548992, Control_c, 0, 64, 127
2, 549012, Note_on_c, 0, 46, 0
2, 549044, Note_on_c, 0, 49, 0
2, 549080, Note_on_c, 0, 51, 29
2, 549146, Note_on_c, 0, 67, 67
2, 549152, Note_on_c, 0, 51, 0
2, 549188, Note_on_c, 0, 46, 25
2, 549224, Control_c, 0, 64, 0
2, 549274, Note_on_c, 0, 51, 29
2, 549296, Note_on_c, 0, 68, 0
2, 549364, Note_on_c, 0, 51, 0
2, 549378, Note_on_c, 0, 49, 46
2, 549392, Note_on_c, 0, 46, 0
2, 549438, Control_c, 0, 64, 127
2, 549470, Note_on_c, 0, 49, 0
2, 549472, Note_on_c, 0, 51, 28
2, 549570, Note_on_c, 0, 51, 0
2, 549594, Note_on_c, 0, 46, 35
2, 549688, Note_on_c, 0, 46, 0
2, 549696, Note_on_c, 0, 67, 0
2, 549708, Note_on_c, 0, 51, 42
2, 549806, Note_on_c, 0, 67, 66
2, 549812, Note_on_c, 0, 51, 0
2, 549842, Note_on_c, 0, 49, 43
2, 549918, Note_on_c, 0, 49, 0
2, 549962, Note_on_c, 0, 51, 39
2, 550032, Note_on_c, 0, 51, 0
2, 550038, Control_c, 0, 64, 0
2, 550054, Note_on_c, 0, 75, 67
2, 550058, Note_on_c, 0, 46, 43
2, 550088, Note_on_c, 0, 67, 0
2, 550172, Note_on_c, 0, 51, 47
2, 550246, Note_on_c, 0, 51, 0
2, 550260, Control_c, 0, 64, 127
2, 550286, Note_on_c, 0, 49, 43
2, 550366, Note_on_c, 0, 49, 0
2, 550384, Note_on_c, 0, 46, 0
2, 550398, Note_on_c, 0, 67, 64
2, 550404, Note_on_c, 0, 51, 36
2, 550470, Note_on_c, 0, 67, 0
2, 550472, Note_on_c, 0, 51, 0
2, 550488, Note_on_c, 0, 47, 56
2, 550504, Note_on_c, 0, 70, 62
2, 550542, Note_on_c, 0, 47, 0
2, 550556, Note_on_c, 0, 75, 0
2, 550602, Note_on_c, 0, 51, 48
2, 550688, Note_on_c, 0, 51, 0
2, 550718, Note_on_c, 0, 47, 43
2, 550728, Control_c, 0, 64, 0
2, 550782, Note_on_c, 0, 47, 0
2, 550798, Note_on_c, 0, 51, 48
2, 550896, Note_on_c, 0, 47, 27
2, 550898, Control_c, 0, 64, 127
2, 550900, Note_on_c, 0, 51, 0
2, 550928, Note_on_c, 0, 68, 54
2, 550970, Note_on_c, 0, 47, 0
2, 550998, Note_on_c, 0, 51, 40
2, 551058, Note_on_c, 0, 70, 0
2, 551084, Note_on_c, 0, 51, 0
2, 551104, Note_on_c, 0, 47, 33
2, 551176, Note_on_c, 0, 47, 0
2, 551194, Note_on_c, 0, 51, 44
2, 551252, Control_c, 0, 64, 0
2, 551294, Note_on_c, 0, 47, 44
2, 551300, Note_on_c, 0, 51, 0
2, 551386, Note_on_c, 0, 47, 0
2, 551394, Note_on_c, 0, 51, 50
2, 551404, Control_c, 0, 64, 127
2, 551456, Note_on_c, 0, 68, 0
2, 551506, Note_on_c, 0, 68, 95
2, 551514, Note_on_c, 0, 47, 52
2, 551520, Note_on_c, 0, 51, 0
2, 551590, Note_on_c, 0, 47, 0
2, 551638, Note_on_c, 0, 51, 48
2, 551724, Note_on_c, 0, 75, 86
2, 551738, Note_on_c, 0, 51, 0
2, 551746, Note_on_c, 0, 47, 71
2, 551749, Note_on_c, 0, 68, 0
2, 551820, Control_c, 0, 64, 0
2, 551826, Note_on_c, 0, 47, 0
2, 551862, Note_on_c, 0, 51, 59
2, 551956, Note_on_c, 0, 47, 44
2, 551966, Note_on_c, 0, 51, 0
2, 551988, Control_c, 0, 64, 127
2, 552042, Note_on_c, 0, 51, 66
2, 552052, Note_on_c, 0, 68, 78
2, 552054, Note_on_c, 0, 47, 0
2, 552140, Note_on_c, 0, 75, 0
2, 552142, Control_c, 0, 64, 0
2, 552162, Note_on_c, 0, 43, 64
2, 552167, Note_on_c, 0, 71, 100
2, 552174, Note_on_c, 0, 51, 0
2, 552190, Note_on_c, 0, 68, 0
2, 552250, Note_on_c, 0, 43, 0
2, 552258, Note_on_c, 0, 51, 48
2, 552384, Note_on_c, 0, 43, 51
2, 552388, Control_c, 0, 64, 127
2, 552398, Note_on_c, 0, 51, 0
2, 552457, Note_on_c, 0, 43, 0
2, 552482, Note_on_c, 0, 51, 58
2, 552580, Note_on_c, 0, 51, 0
2, 552606, Note_on_c, 0, 43, 43
2, 552618, Note_on_c, 0, 70, 60
2, 552674, Note_on_c, 0, 43, 0
2, 552716, Note_on_c, 0, 71, 0
2, 552716, Note_on_c, 0, 51, 44
2, 552804, Note_on_c, 0, 51, 0
2, 552818, Control_c, 0, 64, 0
2, 552828, Note_on_c, 0, 43, 43
2, 552896, Note_on_c, 0, 43, 0
2, 552922, Note_on_c, 0, 51, 51
2, 552988, Control_c, 0, 64, 127
2, 553020, Note_on_c, 0, 51, 0
2, 553022, Note_on_c, 0, 43, 39
2, 553096, Note_on_c, 0, 43, 0
2, 553116, Note_on_c, 0, 51, 43
2, 553132, Note_on_c, 0, 70, 0
2, 553220, Note_on_c, 0, 70, 50
2, 553232, Note_on_c, 0, 51, 0
2, 553244, Note_on_c, 0, 43, 39
2, 553316, Note_on_c, 0, 43, 0
2, 553370, Note_on_c, 0, 51, 32
2, 553478, Note_on_c, 0, 51, 0
2, 553498, Note_on_c, 0, 75, 57
2, 553510, Note_on_c, 0, 43, 47
2, 553538, Note_on_c, 0, 70, 0
2, 553600, Note_on_c, 0, 43, 0
2, 553644, Note_on_c, 0, 51, 50
2, 553716, Note_on_c, 0, 51, 0
2, 553754, Note_on_c, 0, 43, 43
2, 553832, Note_on_c, 0, 43, 0
2, 553842, Note_on_c, 0, 70, 46
2, 553848, Control_c, 0, 64, 0
2, 553864, Note_on_c, 0, 75, 0
2, 553884, Note_on_c, 0, 51, 32
2, 553914, Note_on_c, 0, 70, 0
2, 553956, Note_on_c, 0, 51, 0
2, 553968, Note_on_c, 0, 71, 70
2, 553984, Note_on_c, 0, 44, 52
2, 554062, Control_c, 0, 64, 127
2, 554082, Note_on_c, 0, 71, 0
2, 554138, Note_on_c, 0, 51, 39
2, 554208, Note_on_c, 0, 51, 0
2, 554211, Note_on_c, 0, 44, 0
2, 554256, Note_on_c, 0, 87, 71
2, 554259, Note_on_c, 0, 75, 64
2, 554386, Note_on_c, 0, 51, 42
2, 554448, Note_on_c, 0, 51, 0
2, 554458, Note_on_c, 0, 44, 69
2, 554504, Note_on_c, 0, 75, 0
2, 554512, Note_on_c, 0, 87, 0
2, 554526, Note_on_c, 0, 44, 0
2, 554570, Note_on_c, 0, 51, 37
2, 554644, Note_on_c, 0, 51, 0
2, 554646, Control_c, 0, 64, 0
2, 554672, Note_on_c, 0, 47, 57
2, 554674, Note_on_c, 0, 87, 77
2, 554677, Note_on_c, 0, 75, 73
2, 554742, Note_on_c, 0, 47, 0
2, 554782, Note_on_c, 0, 51, 59
2, 554848, Note_on_c, 0, 51, 0
2, 554876, Control_c, 0, 64, 127
2, 554878, Note_on_c, 0, 44, 73
2, 554908, Control_c, 0, 64, 0
2, 554926, Note_on_c, 0, 87, 0
2, 554936, Note_on_c, 0, 75, 0
2, 554950, Note_on_c, 0, 44, 0
2, 554980, Note_on_c, 0, 51, 55
2, 555048, Note_on_c, 0, 51, 0
2, 555080, Note_on_c, 0, 75, 80
2, 555084, Note_on_c, 0, 87, 79
2, 555094, Note_on_c, 0, 47, 50
2, 555108, Control_c, 0, 64, 127
2, 555126, Note_on_c, 0, 87, 0
2, 555128, Note_on_c, 0, 75, 0
2, 555156, Note_on_c, 0, 47, 0
2, 555210, Note_on_c, 0, 51, 60
2, 555282, Note_on_c, 0, 51, 0
2, 555294, Note_on_c, 0, 83, 116
2, 555300, Note_on_c, 0, 71, 93
2, 555304, Note_on_c, 0, 44, 66
2, 555328, Note_on_c, 0, 83, 0
2, 555342, Note_on_c, 0, 71, 0
2, 555396, Note_on_c, 0, 44, 0
2, 555416, Control_c, 0, 64, 0
2, 555419, Note_on_c, 0, 51, 54
2, 555488, Note_on_c, 0, 51, 0
2, 555496, Note_on_c, 0, 68, 79
2, 555496, Note_on_c, 0, 80, 95
2, 555512, Note_on_c, 0, 47, 59
2, 555550, Note_on_c, 0, 68, 0
2, 555552, Note_on_c, 0, 80, 0
2, 555572, Note_on_c, 0, 47, 0
2, 555584, Control_c, 0, 64, 127
2, 555612, Note_on_c, 0, 51, 60
2, 555646, Control_c, 0, 64, 0
2, 555706, Note_on_c, 0, 80, 95
2, 555708, Note_on_c, 0, 68, 86
2, 555718, Note_on_c, 0, 46, 59
2, 555721, Note_on_c, 0, 51, 0
2, 555802, Note_on_c, 0, 46, 0
2, 555816, Note_on_c, 0, 68, 0
2, 555820, Note_on_c, 0, 80, 0
2, 555822, Note_on_c, 0, 51, 50
2, 555876, Control_c, 0, 64, 127
2, 555928, Note_on_c, 0, 49, 60
2, 555934, Note_on_c, 0, 51, 0
2, 555940, Note_on_c, 0, 79, 87
2, 555943, Note_on_c, 0, 67, 69
2, 555990, Note_on_c, 0, 49, 0
2, 556030, Control_c, 0, 64, 0
2, 556030, Note_on_c, 0, 51, 50
2, 556124, Note_on_c, 0, 51, 0
2, 556128, Note_on_c, 0, 46, 54
2, 556172, Note_on_c, 0, 67, 0
2, 556190, Note_on_c, 0, 79, 0
2, 556202, Note_on_c, 0, 46, 0
2, 556214, Control_c, 0, 64, 127
2, 556228, Note_on_c, 0, 51, 50
2, 556334, Note_on_c, 0, 51, 0
2, 556336, Control_c, 0, 64, 0
2, 556344, Note_on_c, 0, 67, 63
2, 556346, Note_on_c, 0, 79, 82
2, 556346, Note_on_c, 0, 49, 63
2, 556422, Note_on_c, 0, 49, 0
2, 556438, Note_on_c, 0, 51, 46
2, 556532, Note_on_c, 0, 51, 0
2, 556535, Note_on_c, 0, 46, 58
2, 556535, Control_c, 0, 64, 127
2, 556588, Note_on_c, 0, 67, 0
2, 556598, Note_on_c, 0, 46, 0
2, 556606, Note_on_c, 0, 79, 0
2, 556628, Note_on_c, 0, 51, 58
2, 556644, Control_c, 0, 64, 0
2, 556746, Note_on_c, 0, 51, 0
2, 556748, Note_on_c, 0, 67, 75
2, 556750, Note_on_c, 0, 79, 104
2, 556752, Note_on_c, 0, 49, 67
2, 556788, Note_on_c, 0, 79, 0
2, 556788, Control_c, 0, 64, 127
2, 556796, Note_on_c, 0, 67, 0
2, 556822, Note_on_c, 0, 49, 0
2, 556848, Note_on_c, 0, 51, 54
2, 556890, Control_c, 0, 64, 0
2, 556948, Note_on_c, 0, 51, 0
2, 556960, Note_on_c, 0, 87, 105
2, 556960, Note_on_c, 0, 75, 101
2, 556974, Note_on_c, 0, 46, 52
2, 557014, Note_on_c, 0, 75, 0
2, 557028, Control_c, 0, 64, 127
2, 557030, Note_on_c, 0, 87, 0
2, 557048, Note_on_c, 0, 46, 0
2, 557064, Note_on_c, 0, 51, 62
2, 557136, Control_c, 0, 64, 0
2, 557168, Note_on_c, 0, 51, 0
2, 557168, Note_on_c, 0, 79, 116
2, 557168, Note_on_c, 0, 67, 104
2, 557171, Note_on_c, 0, 49, 74
2, 557206, Note_on_c, 0, 79, 0
2, 557208, Note_on_c, 0, 67, 0
2, 557258, Note_on_c, 0, 49, 0
2, 557258, Control_c, 0, 64, 127
2, 557272, Note_on_c, 0, 51, 58
2, 557290, Control_c, 0, 64, 0
2, 557374, Note_on_c, 0, 51, 0
2, 557382, Note_on_c, 0, 82, 103
2, 557382, Note_on_c, 0, 47, 69
2, 557382, Note_on_c, 0, 70, 96
2, 557434, Note_on_c, 0, 47, 0
2, 557466, Note_on_c, 0, 51, 59
2, 557476, Note_on_c, 0, 82, 0
2, 557488, Note_on_c, 0, 70, 0
2, 557490, Control_c, 0, 64, 127
2, 557578, Note_on_c, 0, 51, 0
2, 557594, Note_on_c, 0, 47, 70
2, 557597, Control_c, 0, 64, 0
2, 557602, Note_on_c, 0, 80, 90
2, 557604, Note_on_c, 0, 68, 79
2, 557648, Note_on_c, 0, 47, 0
2, 557686, Note_on_c, 0, 51, 56
2, 557786, Note_on_c, 0, 51, 0
2, 557794, Note_on_c, 0, 47, 74
2, 557812, Control_c, 0, 64, 127
2, 557842, Note_on_c, 0, 47, 0
2, 557844, Note_on_c, 0, 68, 0
2, 557852, Note_on_c, 0, 80, 0
2, 557878, Note_on_c, 0, 51, 65
2, 557920, Control_c, 0, 64, 0
2, 557978, Note_on_c, 0, 80, 78
2, 557984, Note_on_c, 0, 51, 0
2, 557986, Note_on_c, 0, 68, 73
2, 557990, Note_on_c, 0, 47, 64
2, 558040, Note_on_c, 0, 47, 0
2, 558070, Note_on_c, 0, 51, 69
2, 558134, Control_c, 0, 64, 127
2, 558171, Note_on_c, 0, 47, 67
2, 558184, Note_on_c, 0, 51, 0
2, 558184, Note_on_c, 0, 68, 0
2, 558198, Note_on_c, 0, 80, 0
2, 558230, Note_on_c, 0, 47, 0
2, 558258, Note_on_c, 0, 51, 73
2, 558258, Control_c, 0, 64, 0
2, 558362, Note_on_c, 0, 51, 0
2, 558362, Note_on_c, 0, 80, 96
2, 558362, Note_on_c, 0, 68, 90
2, 558368, Note_on_c, 0, 47, 79
2, 558396, Note_on_c, 0, 68, 0
2, 558426, Note_on_c, 0, 80, 0
2, 558429, Note_on_c, 0, 47, 0
2, 558458, Control_c, 0, 64, 127
2, 558458, Note_on_c, 0, 51, 74
2, 558534, Control_c, 0, 64, 0
2, 558558, Note_on_c, 0, 87, 108
2, 558561, Note_on_c, 0, 75, 101
2, 558568, Note_on_c, 0, 47, 86
2, 558570, Note_on_c, 0, 51, 0
2, 558588, Note_on_c, 0, 87, 0
2, 558600, Note_on_c, 0, 75, 0
2, 558648, Note_on_c, 0, 47, 0
2, 558662, Note_on_c, 0, 51, 72
2, 558718, Control_c, 0, 64, 127
2, 558750, Note_on_c, 0, 68, 105
2, 558752, Note_on_c, 0, 80, 108
2, 558766, Note_on_c, 0, 47, 77
2, 558786, Note_on_c, 0, 51, 0
2, 558794, Note_on_c, 0, 68, 0
2, 558842, Control_c, 0, 64, 0
2, 558856, Note_on_c, 0, 80, 0
2, 558860, Note_on_c, 0, 51, 78
2, 558888, Note_on_c, 0, 47, 0
2, 558968, Note_on_c, 0, 83, 127
2, 558971, Note_on_c, 0, 71, 121
2, 558978, Note_on_c, 0, 43, 81
2, 558996, Note_on_c, 0, 51, 0
2, 559014, Note_on_c, 0, 71, 0
2, 559048, Note_on_c, 0, 83, 0
2, 559054, Note_on_c, 0, 43, 0
2, 559068, Note_on_c, 0, 51, 73
2, 559071, Control_c, 0, 64, 127
2, 559182, Note_on_c, 0, 51, 0
2, 559204, Note_on_c, 0, 82, 101
2, 559204, Note_on_c, 0, 43, 77
2, 559206, Note_on_c, 0, 70, 88
2, 559272, Control_c, 0, 64, 0
2, 559286, Note_on_c, 0, 43, 0
2, 559304, Note_on_c, 0, 51, 69
2, 559420, Note_on_c, 0, 43, 78
2, 559424, Note_on_c, 0, 51, 0
2, 559456, Control_c, 0, 64, 127
2, 559472, Note_on_c, 0, 43, 0
2, 559474, Note_on_c, 0, 70, 0
2, 559478, Note_on_c, 0, 82, 0
2, 559500, Note_on_c, 0, 51, 70
2, 559604, Note_on_c, 0, 82, 88
2, 559604, Note_on_c, 0, 70, 83
2, 559616, Note_on_c, 0, 43, 75
2, 559636, Note_on_c, 0, 51, 0
2, 559639, Control_c, 0, 64, 0
2, 559694, Note_on_c, 0, 43, 0
2, 559706, Note_on_c, 0, 51, 71
2, 559812, Note_on_c, 0, 43, 73
2, 559826, Control_c, 0, 64, 127
2, 559836, Note_on_c, 0, 51, 0
2, 559860, Note_on_c, 0, 70, 0
2, 559863, Note_on_c, 0, 82, 0
2, 559898, Note_on_c, 0, 43, 0
2, 559902, Note_on_c, 0, 51, 75
2, 559918, Control_c, 0, 64, 0
2, 559980, Note_on_c, 0, 70, 101
2, 559984, Note_on_c, 0, 82, 100
2, 559994, Note_on_c, 0, 43, 71
2, 560024, Note_on_c, 0, 51, 0
2, 560038, Note_on_c, 0, 70, 0
2, 560056, Control_c, 0, 64, 127
2, 560092, Note_on_c, 0, 82, 0
2, 560094, Note_on_c, 0, 51, 75
2, 560100, Note_on_c, 0, 43, 0
2, 560178, Control_c, 0, 64, 0
2, 560182, Note_on_c, 0, 43, 73
2, 560186, Note_on_c, 0, 75, 103
2, 560186, Note_on_c, 0, 87, 109
2, 560224, Note_on_c, 0, 87, 0
2, 560234, Note_on_c, 0, 51, 0
2, 560256, Note_on_c, 0, 75, 0
2, 560290, Note_on_c, 0, 43, 0
2, 560290, Note_on_c, 0, 51, 92
2, 560316, Control_c, 0, 64, 127
2, 560378, Note_on_c, 0, 70, 100
2, 560380, Note_on_c, 0, 43, 70
2, 560380, Note_on_c, 0, 82, 102
2, 560412, Note_on_c, 0, 51, 0
2, 560448, Note_on_c, 0, 70, 0
2, 560474, Note_on_c, 0, 82, 0
2, 560480, Note_on_c, 0, 43, 0
2, 560480, Note_on_c, 0, 51, 82
2, 560516, Control_c, 0, 64, 0
2, 560584, Note_on_c, 0, 51, 0
2, 560590, Note_on_c, 0, 84, 127
2, 560590, Note_on_c, 0, 72, 118
2, 560592, Note_on_c, 0, 42, 103
2, 560706, Note_on_c, 0, 51, 80
2, 560744, Note_on_c, 0, 42, 0
2, 560770, Note_on_c, 0, 44, 87
2, 560778, Control_c, 0, 64, 127
2, 560794, Note_on_c, 0, 51, 0
2, 560878, Note_on_c, 0, 44, 0
2, 560884, Note_on_c, 0, 51, 79
2, 560930, Control_c, 0, 64, 0
2, 560982, Note_on_c, 0, 51, 0
2, 560985, Note_on_c, 0, 42, 101
2, 561088, Note_on_c, 0, 51, 80
2, 561098, Note_on_c, 0, 42, 0
2, 561116, Control_c, 0, 64, 127
2, 561182, Note_on_c, 0, 44, 95
2, 561192, Note_on_c, 0, 51, 0
2, 561202, Note_on_c, 0, 72, 0
2, 561204, Note_on_c, 0, 84, 0
2, 561278, Note_on_c, 0, 51, 85
2, 561294, Note_on_c, 0, 44, 0
2, 561330, Control_c, 0, 64, 0
2, 561386, Note_on_c, 0, 51, 0
2, 561386, Note_on_c, 0, 85, 121
2, 561388, Note_on_c, 0, 73, 115
2, 561404, Note_on_c, 0, 40, 125
2, 561498, Note_on_c, 0, 40, 0
2, 561501, Note_on_c, 0, 49, 89
2, 561546, Control_c, 0, 64, 127
2, 561598, Note_on_c, 0, 44, 93
2, 561610, Note_on_c, 0, 49, 0
2, 561688, Note_on_c, 0, 49, 69
2, 561698, Note_on_c, 0, 85, 0
2, 561714, Note_on_c, 0, 44, 0
2, 561776, Note_on_c, 0, 73, 0
2, 561788, Note_on_c, 0, 40, 116
2, 561796, Note_on_c, 0, 49, 0
2, 561884, Note_on_c, 0, 40, 0
2, 561884, Note_on_c, 0, 49, 77
2, 561982, Note_on_c, 0, 44, 98
2, 561985, Note_on_c, 0, 49, 0
2, 562098, Note_on_c, 0, 44, 0
2, 562098, Note_on_c, 0, 49, 78
2, 562144, Control_c, 0, 64, 0
2, 562192, Note_on_c, 0, 70, 103
2, 562194, Note_on_c, 0, 82, 102
2, 562202, Note_on_c, 0, 49, 0
2, 562212, Note_on_c, 0, 40, 120
2, 562256, Note_on_c, 0, 83, 100
2, 562282, Note_on_c, 0, 82, 0
2, 562310, Note_on_c, 0, 49, 71
2, 562334, Note_on_c, 0, 40, 0
2, 562342, Note_on_c, 0, 82, 83
2, 562360, Control_c, 0, 64, 127
2, 562426, Note_on_c, 0, 83, 0
2, 562436, Note_on_c, 0, 42, 75
2, 562436, Note_on_c, 0, 80, 92
2, 562439, Note_on_c, 0, 49, 0
2, 562472, Note_on_c, 0, 82, 0
2, 562540, Note_on_c, 0, 82, 90
2, 562568, Note_on_c, 0, 42, 0
2, 562568, Note_on_c, 0, 49, 89
2, 562658, Note_on_c, 0, 70, 0
2, 562678, Note_on_c, 0, 49, 0
2, 562684, Control_c, 0, 64, 0
2, 562686, Note_on_c, 0, 83, 127
2, 562688, Note_on_c, 0, 71, 120
2, 562692, Note_on_c, 0, 39, 100
2, 562736, Note_on_c, 0, 80, 0
2, 562760, Note_on_c, 0, 82, 0
2, 562800, Note_on_c, 0, 47, 92
2, 562848, Note_on_c, 0, 39, 0
2, 562890, Note_on_c, 0, 42, 83
2, 562908, Note_on_c, 0, 47, 0
2, 562944, Control_c, 0, 64, 127
2, 562986, Note_on_c, 0, 47, 72
2, 563014, Note_on_c, 0, 42, 0
2, 563088, Note_on_c, 0, 47, 0
2, 563088, Control_c, 0, 64, 0
2, 563098, Note_on_c, 0, 39, 95
2, 563196, Note_on_c, 0, 47, 60
2, 563214, Note_on_c, 0, 39, 0
2, 563252, Control_c, 0, 64, 127
2, 563286, Note_on_c, 0, 42, 93
2, 563306, Note_on_c, 0, 47, 0
2, 563392, Note_on_c, 0, 47, 77
2, 563412, Note_on_c, 0, 42, 0
2, 563420, Control_c, 0, 64, 0
2, 563496, Note_on_c, 0, 47, 0
2, 563496, Note_on_c, 0, 39, 96
2, 563574, Control_c, 0, 64, 127
2, 563578, Note_on_c, 0, 83, 0
2, 563584, Note_on_c, 0, 71, 0
2, 563584, Note_on_c, 0, 47, 65
2, 563606, Note_on_c, 0, 39, 0
2, 563684, Note_on_c, 0, 47, 0
2, 563690, Note_on_c, 0, 42, 87
2, 563790, Note_on_c, 0, 47, 79
2, 563812, Note_on_c, 0, 42, 0
2, 563882, Control_c, 0, 64, 0
2, 563898, Note_on_c, 0, 80, 118
2, 563900, Note_on_c, 0, 68, 111
2, 563906, Note_on_c, 0, 47, 0
2, 563912, Note_on_c, 0, 38, 115
2, 564020, Note_on_c, 0, 47, 75
2, 564062, Note_on_c, 0, 38, 0
2, 564106, Note_on_c, 0, 40, 101
2, 564112, Control_c, 0, 64, 127
2, 564122, Note_on_c, 0, 47, 0
2, 564210, Note_on_c, 0, 40, 0
2, 564210, Note_on_c, 0, 47, 67
2, 564264, Control_c, 0, 64, 0
2, 564318, Note_on_c, 0, 38, 100
2, 564326, Note_on_c, 0, 47, 0
2, 564428, Note_on_c, 0, 38, 0
2, 564428, Note_on_c, 0, 47, 60
2, 564450, Control_c, 0, 64, 127
2, 564540, Note_on_c, 0, 47, 0
2, 564540, Note_on_c, 0, 40, 65
2, 564564, Note_on_c, 0, 41, 48
2, 564572, Note_on_c, 0, 68, 0
2, 564580, Note_on_c, 0, 80, 0
2, 564602, Note_on_c, 0, 40, 0
2, 564620, Note_on_c, 0, 47, 77
2, 564626, Note_on_c, 0, 41, 0
2, 564680, Control_c, 0, 64, 0
2, 564714, Note_on_c, 0, 81, 121
2, 564714, Note_on_c, 0, 69, 111
2, 564728, Note_on_c, 0, 47, 0
2, 564731, Note_on_c, 0, 37, 101
2, 564826, Note_on_c, 0, 45, 90
2, 564860, Note_on_c, 0, 37, 0
2, 564910, Control_c, 0, 64, 127
2, 564920, Note_on_c, 0, 40, 103
2, 564944, Note_on_c, 0, 45, 0
2, 565010, Note_on_c, 0, 45, 75
2, 565024, Note_on_c, 0, 40, 0
2, 565116, Note_on_c, 0, 37, 95
2, 565120, Note_on_c, 0, 45, 0
2, 565204, Note_on_c, 0, 45, 65
2, 565212, Note_on_c, 0, 37, 0
2, 565312, Note_on_c, 0, 45, 0
2, 565318, Note_on_c, 0, 40, 104
2, 565332, Note_on_c, 0, 81, 0
2, 565388, Note_on_c, 0, 69, 0
2, 565388, Note_on_c, 0, 45, 69
2, 565424, Note_on_c, 0, 40, 0
2, 565488, Note_on_c, 0, 45, 0
2, 565494, Control_c, 0, 64, 0
2, 565544, Note_on_c, 0, 67, 119
2, 565544, Note_on_c, 0, 79, 124
2, 565550, Note_on_c, 0, 37, 102
2, 565588, Note_on_c, 0, 67, 0
2, 565652, Note_on_c, 0, 46, 82
2, 565664, Control_c, 0, 64, 127
2, 565672, Note_on_c, 0, 80, 103
2, 565708, Note_on_c, 0, 37, 0
2, 565760, Note_on_c, 0, 39, 79
2, 565772, Note_on_c, 0, 80, 0
2, 565782, Note_on_c, 0, 46, 0
2, 565818, Note_on_c, 0, 77, 95
2, 565846, Note_on_c, 0, 79, 0
2, 565900, Note_on_c, 0, 46, 73
2, 565902, Note_on_c, 0, 79, 113
2, 565976, Note_on_c, 0, 39, 0
2, 565988, Note_on_c, 0, 77, 0
2, 566012, Note_on_c, 0, 46, 0
2, 566022, Note_on_c, 0, 78, 12
2, 566040, Note_on_c, 0, 68, 109
2, 566040, Note_on_c, 0, 35, 124
2, 566040, Note_on_c, 0, 80, 115
2, 566094, Note_on_c, 0, 79, 0
2, 566094, Control_c, 0, 64, 0
2, 566118, Note_on_c, 0, 78, 0
2, 566152, Note_on_c, 0, 44, 96
2, 566192, Note_on_c, 0, 35, 0
2, 566254, Note_on_c, 0, 39, 80
2, 566256, Note_on_c, 0, 44, 0
2, 566324, Control_c, 0, 64, 127
2, 566350, Note_on_c, 0, 44, 79
2, 566388, Note_on_c, 0, 39, 0
2, 566454, Note_on_c, 0, 35, 115
2, 566462, Note_on_c, 0, 44, 0
2, 566554, Note_on_c, 0, 35, 0
2, 566560, Note_on_c, 0, 44, 83
2, 566646, Note_on_c, 0, 39, 87
2, 566666, Note_on_c, 0, 44, 0
2, 566752, Note_on_c, 0, 44, 82
2, 566776, Note_on_c, 0, 39, 0
2, 566862, Note_on_c, 0, 35, 116
2, 566884, Note_on_c, 0, 44, 0
2, 566946, Note_on_c, 0, 44, 93
2, 566950, Note_on_c, 0, 35, 0
2, 566986, Note_on_c, 0, 68, 0
2, 567026, Note_on_c, 0, 80, 0
2, 567056, Note_on_c, 0, 44, 0
2, 567068, Note_on_c, 0, 39, 82
2, 567141, Note_on_c, 0, 44, 80
2, 567144, Note_on_c, 0, 39, 0
2, 567202, Note_on_c, 0, 44, 0
2, 567368, Note_on_c, 0, 81, 116
2, 567368, Note_on_c, 0, 69, 110
2, 567368, Note_on_c, 0, 73, 101
2, 567371, Note_on_c, 0, 76, 109
2, 567371, Note_on_c, 0, 49, 112
2, 567372, Note_on_c, 0, 40, 103
2, 567372, Note_on_c, 0, 45, 83
2, 567374, Control_c, 0, 64, 0
2, 567376, Note_on_c, 0, 37, 96
2, 567708, Control_c, 0, 64, 127
2, 567752, Note_on_c, 0, 49, 0
2, 567762, Note_on_c, 0, 37, 0
2, 567762, Note_on_c, 0, 40, 0
2, 567772, Note_on_c, 0, 45, 0
2, 567782, Note_on_c, 0, 69, 0
2, 567858, Note_on_c, 0, 73, 0
2, 567878, Note_on_c, 0, 76, 0
2, 568314, Note_on_c, 0, 76, 71
2, 568322, Control_c, 0, 64, 0
2, 568358, Note_on_c, 0, 81, 0
2, 568400, Note_on_c, 0, 78, 82
2, 568404, Note_on_c, 0, 76, 0
2, 568482, Note_on_c, 0, 80, 90
2, 568516, Note_on_c, 0, 78, 0
2, 568566, Note_on_c, 0, 80, 0
2, 568578, Note_on_c, 0, 81, 95
2, 568676, Note_on_c, 0, 83, 115
2, 568677, Note_on_c, 0, 81, 0
2, 568778, Note_on_c, 0, 85, 79
2, 568796, Note_on_c, 0, 83, 0
2, 568858, Note_on_c, 0, 83, 104
2, 568908, Note_on_c, 0, 85, 0
2, 568964, Note_on_c, 0, 81, 86
2, 568988, Note_on_c, 0, 69, 34
2, 568990, Note_on_c, 0, 83, 0
2, 569002, Note_on_c, 0, 64, 47
2, 569005, Note_on_c, 0, 61, 39
2, 569030, Note_on_c, 0, 81, 0
2, 569066, Note_on_c, 0, 76, 62
2, 569124, Note_on_c, 0, 69, 0
2, 569136, Control_c, 0, 64, 127
2, 569146, Note_on_c, 0, 64, 0
2, 569154, Note_on_c, 0, 76, 0
2, 569166, Control_c, 0, 64, 0
2, 569168, Note_on_c, 0, 78, 70
2, 569201, Note_on_c, 0, 61, 0
2, 569262, Note_on_c, 0, 80, 71
2, 569271, Note_on_c, 0, 78, 0
2, 569354, Note_on_c, 0, 80, 0
2, 569362, Note_on_c, 0, 81, 79
2, 569464, Note_on_c, 0, 81, 0
2, 569464, Note_on_c, 0, 83, 97
2, 569585, Note_on_c, 0, 83, 0
2, 569586, Note_on_c, 0, 85, 54
2, 569684, Note_on_c, 0, 83, 82
2, 569704, Note_on_c, 0, 85, 0
2, 569744, Note_on_c, 0, 83, 0
2, 569774, Note_on_c, 0, 81, 67
2, 569806, Note_on_c, 0, 69, 37
2, 569816, Note_on_c, 0, 61, 42
2, 569820, Note_on_c, 0, 64, 29
2, 569822, Note_on_c, 0, 81, 0
2, 569866, Note_on_c, 0, 76, 51
2, 569928, Note_on_c, 0, 64, 0
2, 569952, Note_on_c, 0, 69, 0
2, 569966, Control_c, 0, 64, 127
2, 569969, Note_on_c, 0, 78, 57
2, 569974, Note_on_c, 0, 76, 0
2, 569986, Note_on_c, 0, 61, 0
2, 569996, Control_c, 0, 64, 0
2, 570052, Note_on_c, 0, 80, 63
2, 570059, Note_on_c, 0, 78, 0
2, 570149, Note_on_c, 0, 80, 0
2, 570156, Note_on_c, 0, 81, 75
2, 570260, Note_on_c, 0, 83, 94
2, 570265, Note_on_c, 0, 81, 0
2, 570357, Note_on_c, 0, 83, 0
2, 570358, Note_on_c, 0, 85, 59
2, 570468, Note_on_c, 0, 83, 92
2, 570474, Note_on_c, 0, 85, 0
2, 570526, Note_on_c, 0, 83, 0
2, 570556, Note_on_c, 0, 81, 71
2, 570568, Note_on_c, 0, 69, 33
2, 570580, Note_on_c, 0, 61, 37
2, 570590, Note_on_c, 0, 64, 32
2, 570602, Note_on_c, 0, 81, 0
2, 570652, Note_on_c, 0, 76, 62
2, 570688, Control_c, 0, 64, 127
2, 570734, Note_on_c, 0, 69, 0
2, 570734, Note_on_c, 0, 64, 0
2, 570746, Note_on_c, 0, 78, 70
2, 570749, Note_on_c, 0, 61, 0
2, 570749, Note_on_c, 0, 76, 0
2, 570834, Note_on_c, 0, 78, 0
2, 570840, Note_on_c, 0, 80, 73
2, 570904, Control_c, 0, 64, 0
2, 570938, Note_on_c, 0, 81, 81
2, 570944, Note_on_c, 0, 80, 0
2, 570948, Note_on_c, 0, 69, 50
2, 570964, Note_on_c, 0, 61, 41
2, 570964, Note_on_c, 0, 64, 43
2, 571034, Note_on_c, 0, 83, 111
2, 571036, Note_on_c, 0, 81, 0
2, 571098, Note_on_c, 0, 64, 0
2, 571110, Note_on_c, 0, 69, 0
2, 571124, Note_on_c, 0, 83, 0
2, 571134, Note_on_c, 0, 85, 83
2, 571142, Note_on_c, 0, 61, 0
2, 571148, Control_c, 0, 64, 127
2, 571242, Note_on_c, 0, 85, 0
2, 571248, Note_on_c, 0, 86, 89
2, 571272, Control_c, 0, 64, 0
2, 571328, Note_on_c, 0, 86, 0
2, 571338, Note_on_c, 0, 69, 52
2, 571342, Note_on_c, 0, 88, 96
2, 571346, Note_on_c, 0, 61, 49
2, 571354, Note_on_c, 0, 64, 52
2, 571404, Note_on_c, 0, 88, 0
2, 571452, Note_on_c, 0, 87, 73
2, 571514, Note_on_c, 0, 87, 0
2, 571518, Control_c, 0, 64, 127
2, 571524, Note_on_c, 0, 69, 0
2, 571530, Note_on_c, 0, 88, 95
2, 571558, Note_on_c, 0, 64, 0
2, 571564, Note_on_c, 0, 61, 0
2, 571616, Note_on_c, 0, 88, 0
2, 571632, Note_on_c, 0, 87, 80
2, 571656, Control_c, 0, 64, 0
2, 571692, Note_on_c, 0, 87, 0
2, 571742, Note_on_c, 0, 69, 54
2, 571744, Note_on_c, 0, 88, 98
2, 571760, Note_on_c, 0, 61, 44
2, 571760, Note_on_c, 0, 64, 34
2, 571830, Note_on_c, 0, 69, 0
2, 571834, Note_on_c, 0, 64, 0
2, 571844, Note_on_c, 0, 85, 90
2, 571886, Control_c, 0, 64, 127
2, 571890, Note_on_c, 0, 61, 0
2, 571892, Note_on_c, 0, 88, 0
2, 571944, Note_on_c, 0, 83, 120
2, 571982, Note_on_c, 0, 85, 0
2, 572042, Note_on_c, 0, 81, 93
2, 572044, Note_on_c, 0, 83, 0
2, 572086, Control_c, 0, 64, 0
2, 572112, Note_on_c, 0, 81, 0
2, 572152, Note_on_c, 0, 80, 95
2, 572152, Note_on_c, 0, 63, 65
2, 572220, Note_on_c, 0, 63, 0
2, 572276, Note_on_c, 0, 71, 57
2, 572336, Note_on_c, 0, 71, 0
2, 572348, Control_c, 0, 64, 127
2, 572362, Note_on_c, 0, 68, 56
2, 572422, Note_on_c, 0, 68, 0
2, 572502, Note_on_c, 0, 71, 58
2, 572556, Note_on_c, 0, 71, 0
2, 572570, Note_on_c, 0, 63, 70
2, 572618, Note_on_c, 0, 63, 0
2, 572656, Note_on_c, 0, 71, 58
2, 572670, Control_c, 0, 64, 0
2, 572724, Note_on_c, 0, 71, 0
2, 572752, Note_on_c, 0, 68, 63
2, 572818, Note_on_c, 0, 71, 77
2, 572820, Note_on_c, 0, 68, 0
2, 572838, Control_c, 0, 64, 127
2, 572876, Note_on_c, 0, 80, 0
2, 572878, Note_on_c, 0, 71, 0
2, 572932, Control_c, 0, 64, 0
2, 572940, Note_on_c, 0, 63, 78
2, 572950, Note_on_c, 0, 82, 87
2, 573008, Note_on_c, 0, 63, 0
2, 573012, Note_on_c, 0, 83, 116
2, 573016, Note_on_c, 0, 82, 0
2, 573052, Note_on_c, 0, 73, 59
2, 573056, Note_on_c, 0, 83, 0
2, 573092, Note_on_c, 0, 82, 73
2, 573100, Control_c, 0, 64, 127
2, 573108, Note_on_c, 0, 73, 0
2, 573148, Note_on_c, 0, 67, 52
2, 573166, Note_on_c, 0, 82, 0
2, 573186, Note_on_c, 0, 83, 90
2, 573206, Note_on_c, 0, 67, 0
2, 573230, Note_on_c, 0, 83, 0
2, 573233, Note_on_c, 0, 82, 64
2, 573246, Note_on_c, 0, 73, 74
2, 573298, Note_on_c, 0, 73, 0
2, 573301, Note_on_c, 0, 82, 0
2, 573308, Note_on_c, 0, 83, 95
2, 573342, Note_on_c, 0, 63, 71
2, 573378, Note_on_c, 0, 83, 0
2, 573381, Note_on_c, 0, 82, 49
2, 573392, Control_c, 0, 64, 0
2, 573414, Note_on_c, 0, 73, 47
2, 573448, Note_on_c, 0, 82, 0
2, 573458, Note_on_c, 0, 83, 90
2, 573500, Control_c, 0, 64, 127
2, 573528, Note_on_c, 0, 82, 66
2, 573531, Note_on_c, 0, 73, 0
2, 573531, Note_on_c, 0, 67, 57
2, 573538, Note_on_c, 0, 63, 0
2, 573568, Note_on_c, 0, 83, 0
2, 573590, Note_on_c, 0, 67, 0
2, 573604, Note_on_c, 0, 80, 93
2, 573604, Note_on_c, 0, 73, 64
2, 573608, Note_on_c, 0, 82, 0
2, 573648, Note_on_c, 0, 73, 0
2, 573652, Control_c, 0, 64, 0
2, 573684, Note_on_c, 0, 82, 81
2, 573690, Note_on_c, 0, 80, 0
2, 573758, Note_on_c, 0, 82, 0
2, 573761, Note_on_c, 0, 71, 111
2, 573766, Note_on_c, 0, 68, 79
2, 573768, Note_on_c, 0, 80, 100
2, 573776, Note_on_c, 0, 64, 86
2, 573794, Note_on_c, 0, 71, 0
2, 573804, Note_on_c, 0, 68, 0
2, 573806, Note_on_c, 0, 80, 0
2, 573812, Note_on_c, 0, 64, 0
2, 573836, Control_c, 0, 64, 127
2, 574212, Note_on_c, 0, 57, 115
2, 574214, Note_on_c, 0, 69, 105
2, 574217, Note_on_c, 0, 49, 102
2, 574220, Note_on_c, 0, 61, 105
2, 574222, Note_on_c, 0, 64, 108
2, 574226, Note_on_c, 0, 45, 81
2, 574228, Note_on_c, 0, 37, 80
2, 574234, Note_on_c, 0, 40, 92
2, 574390, Control_c, 0, 64, 0
2, 574530, Note_on_c, 0, 57, 0
2, 574538, Note_on_c, 0, 49, 0
2, 574540, Note_on_c, 0, 45, 0
2, 574542, Note_on_c, 0, 40, 0
2, 574546, Note_on_c, 0, 64, 0
2, 574552, Note_on_c, 0, 37, 0
2, 574566, Note_on_c, 0, 61, 0
2, 574576, Control_c, 0, 64, 127
2, 574832, Note_on_c, 0, 69, 0
2, 574844, Note_on_c, 0, 64, 83
2, 574925, Note_on_c, 0, 64, 0
2, 574926, Note_on_c, 0, 66, 62
2, 574944, Control_c, 0, 64, 0
2, 575010, Note_on_c, 0, 68, 71
2, 575044, Note_on_c, 0, 66, 0
2, 575099, Note_on_c, 0, 68, 0
2, 575106, Note_on_c, 0, 69, 74
2, 575196, Note_on_c, 0, 69, 0
2, 575198, Note_on_c, 0, 71, 89
2, 575280, Note_on_c, 0, 71, 0
2, 575306, Note_on_c, 0, 73, 66
2, 575408, Note_on_c, 0, 71, 64
2, 575426, Note_on_c, 0, 73, 0
2, 575490, Note_on_c, 0, 69, 66
2, 575494, Note_on_c, 0, 71, 0
2, 575546, Note_on_c, 0, 69, 0
2, 575592, Note_on_c, 0, 64, 72
2, 575676, Note_on_c, 0, 64, 0
2, 575694, Note_on_c, 0, 66, 55
2, 575792, Note_on_c, 0, 68, 60
2, 575816, Note_on_c, 0, 66, 0
2, 575870, Note_on_c, 0, 57, 43
2, 575871, Note_on_c, 0, 68, 0
2, 575874, Note_on_c, 0, 69, 73
2, 575876, Note_on_c, 0, 49, 40
2, 575884, Note_on_c, 0, 52, 57
2, 575968, Note_on_c, 0, 69, 0
2, 575972, Note_on_c, 0, 52, 0
2, 575982, Note_on_c, 0, 71, 86
2, 575994, Note_on_c, 0, 57, 0
2, 576014, Note_on_c, 0, 49, 0
2, 576082, Note_on_c, 0, 71, 0
2, 576082, Note_on_c, 0, 73, 59
2, 576192, Note_on_c, 0, 71, 73
2, 576224, Note_on_c, 0, 73, 0
2, 576252, Note_on_c, 0, 71, 0
2, 576274, Note_on_c, 0, 69, 57
2, 576324, Note_on_c, 0, 69, 0
2, 576360, Note_on_c, 0, 64, 72
2, 576456, Note_on_c, 0, 64, 0
2, 576460, Note_on_c, 0, 66, 58
2, 576544, Note_on_c, 0, 66, 0
2, 576544, Note_on_c, 0, 68, 55
2, 576634, Note_on_c, 0, 68, 0
2, 576636, Note_on_c, 0, 69, 62
2, 576658, Note_on_c, 0, 57, 39
2, 576664, Note_on_c, 0, 49, 43
2, 576668, Note_on_c, 0, 52, 52
2, 576729, Note_on_c, 0, 69, 0
2, 576730, Note_on_c, 0, 52, 0
2, 576742, Note_on_c, 0, 71, 78
2, 576756, Note_on_c, 0, 57, 0
2, 576778, Note_on_c, 0, 49, 0
2, 576838, Note_on_c, 0, 73, 60
2, 576842, Note_on_c, 0, 71, 0
2, 576954, Note_on_c, 0, 71, 80
2, 576978, Note_on_c, 0, 73, 0
2, 577038, Note_on_c, 0, 71, 0
2, 577041, Note_on_c, 0, 69, 64
2, 577098, Note_on_c, 0, 69, 0
2, 577148, Note_on_c, 0, 64, 67
2, 577210, Note_on_c, 0, 57, 66
2, 577213, Note_on_c, 0, 49, 70
2, 577222, Note_on_c, 0, 52, 74
2, 577231, Note_on_c, 0, 64, 0
2, 577236, Note_on_c, 0, 66, 60
2, 577270, Note_on_c, 0, 57, 0
2, 577272, Note_on_c, 0, 52, 0
2, 577294, Note_on_c, 0, 49, 0
2, 577314, Note_on_c, 0, 66, 0
2, 577317, Note_on_c, 0, 68, 73
2, 577406, Note_on_c, 0, 68, 0
2, 577408, Note_on_c, 0, 69, 74
2, 577504, Note_on_c, 0, 71, 85
2, 577505, Note_on_c, 0, 69, 0
2, 577595, Note_on_c, 0, 71, 0
2, 577600, Note_on_c, 0, 73, 66
2, 577602, Note_on_c, 0, 57, 75
2, 577604, Note_on_c, 0, 52, 90
2, 577610, Note_on_c, 0, 49, 75
2, 577652, Note_on_c, 0, 52, 0
2, 577664, Note_on_c, 0, 49, 0
2, 577676, Note_on_c, 0, 57, 0
2, 577690, Note_on_c, 0, 71, 75
2, 577720, Note_on_c, 0, 73, 0
2, 577780, Note_on_c, 0, 71, 0
2, 577784, Note_on_c, 0, 69, 67
2, 577846, Note_on_c, 0, 69, 0
2, 577876, Note_on_c, 0, 64, 80
2, 577976, Note_on_c, 0, 57, 73
2, 577976, Note_on_c, 0, 66, 73
2, 577979, Note_on_c, 0, 49, 71
2, 577986, Note_on_c, 0, 52, 80
2, 577998, Note_on_c, 0, 64, 0
2, 578028, Note_on_c, 0, 49, 0
2, 578034, Note_on_c, 0, 57, 0
2, 578046, Note_on_c, 0, 52, 0
2, 578060, Note_on_c, 0, 68, 75
2, 578100, Note_on_c, 0, 66, 0
2, 578152, Note_on_c, 0, 69, 85
2, 578156, Note_on_c, 0, 68, 0
2, 578260, Note_on_c, 0, 71, 95
2, 578268, Note_on_c, 0, 69, 0
2, 578338, Note_on_c, 0, 57, 81
2, 578341, Note_on_c, 0, 52, 96
2, 578341, Note_on_c, 0, 49, 82
2, 578344, Note_on_c, 0, 71, 0
2, 578352, Note_on_c, 0, 73, 77
2, 578384, Note_on_c, 0, 52, 0
2, 578390, Note_on_c, 0, 49, 0
2, 578394, Note_on_c, 0, 57, 0
2, 578442, Note_on_c, 0, 71, 85
2, 578500, Note_on_c, 0, 73, 0
2, 578522, Note_on_c, 0, 57, 94
2, 578528, Note_on_c, 0, 69, 83
2, 578530, Note_on_c, 0, 49, 93
2, 578530, Note_on_c, 0, 52, 97
2, 578568, Note_on_c, 0, 71, 0
2, 578590, Note_on_c, 0, 52, 0
2, 578602, Note_on_c, 0, 69, 0
2, 578624, Note_on_c, 0, 64, 89
2, 578638, Note_on_c, 0, 57, 0
2, 578648, Note_on_c, 0, 49, 0
2, 578730, Note_on_c, 0, 66, 74
2, 578758, Note_on_c, 0, 64, 0
2, 578822, Note_on_c, 0, 68, 77
2, 578866, Note_on_c, 0, 66, 0
2, 578900, Note_on_c, 0, 68, 0
2, 578912, Note_on_c, 0, 69, 80
2, 579012, Note_on_c, 0, 69, 0
2, 579020, Note_on_c, 0, 71, 100
2, 579106, Note_on_c, 0, 73, 88
2, 579136, Note_on_c, 0, 71, 0
2, 579168, Control_c, 0, 64, 127
2, 579182, Note_on_c, 0, 73, 0
2, 579198, Note_on_c, 0, 74, 97
2, 579201, Control_c, 0, 64, 0
2, 579288, Note_on_c, 0, 76, 105
2, 579326, Note_on_c, 0, 74, 0
2, 579378, Note_on_c, 0, 78, 101
2, 579412, Note_on_c, 0, 76, 0
2, 579414, Control_c, 0, 64, 127
2, 579472, Note_on_c, 0, 80, 96
2, 579520, Note_on_c, 0, 78, 0
2, 579550, Note_on_c, 0, 80, 0
2, 579564, Note_on_c, 0, 81, 106
2, 579584, Control_c, 0, 64, 0
2, 579654, Note_on_c, 0, 83, 127
2, 579682, Note_on_c, 0, 81, 0
2, 579744, Note_on_c, 0, 85, 104
2, 579768, Control_c, 0, 64, 127
2, 579786, Note_on_c, 0, 83, 0
2, 579834, Note_on_c, 0, 86, 101
2, 579840, Note_on_c, 0, 85, 0
2, 579926, Note_on_c, 0, 87, 98
2, 579948, Note_on_c, 0, 86, 0
2, 580057, Note_on_c, 0, 87, 0
2, 580068, Note_on_c, 0, 88, 124
2, 580071, Note_on_c, 0, 76, 119
2, 580074, Note_on_c, 0, 49, 63
2, 580188, Note_on_c, 0, 57, 52
2, 580264, Note_on_c, 0, 57, 0
2, 580282, Note_on_c, 0, 52, 73
2, 580364, Note_on_c, 0, 49, 0
2, 580372, Note_on_c, 0, 57, 55
2, 580382, Control_c, 0, 64, 0
2, 580388, Note_on_c, 0, 52, 0
2, 580480, Note_on_c, 0, 49, 81
2, 580494, Note_on_c, 0, 57, 0
2, 580536, Control_c, 0, 64, 127
2, 580554, Note_on_c, 0, 88, 0
2, 580572, Note_on_c, 0, 57, 58
2, 580676, Note_on_c, 0, 52, 93
2, 580684, Note_on_c, 0, 57, 0
2, 580754, Note_on_c, 0, 52, 0
2, 580762, Note_on_c, 0, 57, 66
2, 580772, Note_on_c, 0, 49, 0
2, 580866, Note_on_c, 0, 57, 0
2, 580874, Note_on_c, 0, 80, 117
2, 580878, Note_on_c, 0, 68, 111
2, 580900, Note_on_c, 0, 50, 105
2, 580954, Note_on_c, 0, 76, 0
2, 581004, Note_on_c, 0, 59, 71
2, 581012, Control_c, 0, 64, 0
2, 581098, Note_on_c, 0, 53, 101
2, 581112, Note_on_c, 0, 59, 0
2, 581160, Note_on_c, 0, 50, 0
2, 581166, Control_c, 0, 64, 127
2, 581198, Note_on_c, 0, 59, 70
2, 581224, Note_on_c, 0, 53, 0
2, 581270, Note_on_c, 0, 59, 0
2, 581306, Note_on_c, 0, 50, 95
2, 581340, Note_on_c, 0, 68, 0
2, 581356, Note_on_c, 0, 50, 0
2, 581392, Note_on_c, 0, 59, 65
2, 581468, Note_on_c, 0, 59, 0
2, 581494, Note_on_c, 0, 53, 109
2, 581596, Note_on_c, 0, 59, 83
2, 581604, Note_on_c, 0, 53, 0
2, 581626, Control_c, 0, 64, 0
2, 581636, Note_on_c, 0, 80, 0
2, 581665, Note_on_c, 0, 71, 125
2, 581668, Note_on_c, 0, 83, 127
2, 581694, Note_on_c, 0, 59, 0
2, 581697, Note_on_c, 0, 51, 98
2, 581788, Note_on_c, 0, 59, 67
2, 581842, Control_c, 0, 64, 127
2, 581852, Note_on_c, 0, 51, 0
2, 581852, Note_on_c, 0, 56, 77
2, 581874, Note_on_c, 0, 59, 0
2, 581946, Note_on_c, 0, 83, 0
2, 581966, Note_on_c, 0, 59, 75
2, 581984, Note_on_c, 0, 56, 0
2, 582036, Note_on_c, 0, 71, 0
2, 582082, Note_on_c, 0, 59, 0
2, 582088, Note_on_c, 0, 51, 88
2, 582182, Note_on_c, 0, 59, 65
2, 582200, Note_on_c, 0, 51, 0
2, 582280, Note_on_c, 0, 56, 71
2, 582283, Note_on_c, 0, 59, 0
2, 582354, Note_on_c, 0, 59, 83
2, 582392, Note_on_c, 0, 56, 0
2, 582394, Note_on_c, 0, 59, 0
2, 582472, Control_c, 0, 64, 0
2, 582500, Note_on_c, 0, 67, 111
2, 582503, Note_on_c, 0, 61, 100
2, 582506, Note_on_c, 0, 55, 116
2, 582506, Note_on_c, 0, 39, 111
2, 582584, Note_on_c, 0, 39, 0
2, 582592, Note_on_c, 0, 51, 100
2, 582656, Control_c, 0, 64, 127
2, 582688, Note_on_c, 0, 50, 82
2, 582702, Note_on_c, 0, 51, 0
2, 582790, Note_on_c, 0, 51, 77
2, 582792, Note_on_c, 0, 50, 0
2, 582888, Note_on_c, 0, 50, 75
2, 582898, Note_on_c, 0, 51, 0
2, 582986, Note_on_c, 0, 51, 67
2, 582990, Note_on_c, 0, 50, 0
2, 583052, Note_on_c, 0, 55, 0
2, 583078, Note_on_c, 0, 50, 70
2, 583084, Note_on_c, 0, 51, 0
2, 583108, Note_on_c, 0, 67, 0
2, 583112, Note_on_c, 0, 61, 0
2, 583176, Note_on_c, 0, 51, 80
2, 583179, Note_on_c, 0, 50, 0
2, 583256, Control_c, 0, 64, 0
2, 583276, Note_on_c, 0, 51, 0
2, 583282, Note_on_c, 0, 56, 98
2, 583286, Note_on_c, 0, 68, 93
2, 583296, Note_on_c, 0, 59, 86
2, 583306, Note_on_c, 0, 44, 95
2, 583356, Note_on_c, 0, 44, 0
2, 583362, Note_on_c, 0, 56, 0
2, 583364, Note_on_c, 0, 59, 0
2, 583418, Note_on_c, 0, 68, 0
2, 583426, Control_c, 0, 64, 127
2, 583530, Note_on_c, 0, 71, 95
2, 583530, Note_on_c, 0, 63, 78
2, 583542, Note_on_c, 0, 56, 70
2, 583578, Control_c, 0, 64, 0
2, 583582, Note_on_c, 0, 63, 0
2, 583594, Note_on_c, 0, 56, 0
2, 583604, Note_on_c, 0, 71, 0
2, 583720, Note_on_c, 0, 56, 67
2, 583720, Note_on_c, 0, 71, 82
2, 583732, Note_on_c, 0, 63, 63
2, 583772, Note_on_c, 0, 71, 0
2, 583772, Note_on_c, 0, 56, 0
2, 583778, Note_on_c, 0, 63, 0
2, 583914, Note_on_c, 0, 63, 56
2, 583916, Note_on_c, 0, 56, 47
2, 583924, Note_on_c, 0, 71, 65
2, 583966, Note_on_c, 0, 63, 0
2, 583972, Note_on_c, 0, 56, 0
2, 583978, Note_on_c, 0, 71, 0
2, 584100, Note_on_c, 0, 71, 50
2, 584102, Note_on_c, 0, 56, 42
2, 584108, Note_on_c, 0, 63, 37
2, 584158, Note_on_c, 0, 71, 0
2, 584164, Note_on_c, 0, 56, 0
2, 584166, Note_on_c, 0, 63, 0
2, 584300, Note_on_c, 0, 56, 47
2, 584302, Note_on_c, 0, 71, 49
2, 584306, Note_on_c, 0, 63, 43
2, 584360, Note_on_c, 0, 63, 0
2, 584360, Note_on_c, 0, 56, 0
2, 584363, Note_on_c, 0, 71, 0
2, 584484, Note_on_c, 0, 70, 43
2, 584487, Note_on_c, 0, 58, 34
2, 584496, Note_on_c, 0, 63, 40
2, 584546, Note_on_c, 0, 70, 0
2, 584554, Note_on_c, 0, 63, 0
2, 584556, Note_on_c, 0, 58, 0
2, 584658, Note_on_c, 0, 63, 42
2, 584660, Note_on_c, 0, 68, 54
2, 584666, Note_on_c, 0, 59, 46
2, 584716, Note_on_c, 0, 68, 0
2, 584719, Note_on_c, 0, 63, 0
2, 584720, Note_on_c, 0, 59, 0
2, 584852, Note_on_c, 0, 63, 57
2, 584852, Note_on_c, 0, 67, 64
2, 584855, Note_on_c, 0, 51, 63
2, 584855, Note_on_c, 0, 61, 59
2, 584900, Note_on_c, 0, 63, 0
2, 584902, Note_on_c, 0, 67, 0
2, 584904, Note_on_c, 0, 51, 0
2, 584908, Note_on_c, 0, 61, 0
2, 585046, Note_on_c, 0, 75, 60
2, 585058, Note_on_c, 0, 67, 55
2, 585058, Note_on_c, 0, 63, 23
2, 585061, Note_on_c, 0, 61, 44
2, 585094, Note_on_c, 0, 75, 0
2, 585118, Note_on_c, 0, 67, 0
2, 585122, Note_on_c, 0, 63, 0
2, 585128, Note_on_c, 0, 61, 0
2, 585224, Note_on_c, 0, 63, 52
2, 585238, Note_on_c, 0, 61, 39
2, 585240, Note_on_c, 0, 75, 71
2, 585244, Note_on_c, 0, 67, 52
2, 585288, Note_on_c, 0, 75, 0
2, 585294, Note_on_c, 0, 63, 0
2, 585300, Note_on_c, 0, 61, 0
2, 585304, Note_on_c, 0, 67, 0
2, 585422, Note_on_c, 0, 67, 69
2, 585428, Note_on_c, 0, 75, 74
2, 585430, Note_on_c, 0, 63, 52
2, 585432, Note_on_c, 0, 61, 43
2, 585474, Note_on_c, 0, 75, 0
2, 585477, Note_on_c, 0, 67, 0
2, 585484, Note_on_c, 0, 63, 0
2, 585488, Note_on_c, 0, 61, 0
2, 585612, Note_on_c, 0, 63, 49
2, 585614, Note_on_c, 0, 67, 85
2, 585616, Note_on_c, 0, 75, 80
2, 585616, Note_on_c, 0, 61, 42
2, 585666, Note_on_c, 0, 67, 0
2, 585668, Note_on_c, 0, 75, 0
2, 585670, Note_on_c, 0, 61, 0
2, 585672, Note_on_c, 0, 63, 0
2, 585796, Note_on_c, 0, 61, 47
2, 585798, Note_on_c, 0, 63, 56
2, 585800, Note_on_c, 0, 75, 77
2, 585804, Note_on_c, 0, 67, 79
2, 585846, Note_on_c, 0, 75, 0
2, 585854, Note_on_c, 0, 67, 0
2, 585862, Note_on_c, 0, 63, 0
2, 585864, Note_on_c, 0, 61, 0
2, 585988, Note_on_c, 0, 75, 74
2, 585988, Note_on_c, 0, 63, 50
2, 585990, Note_on_c, 0, 68, 80
2, 585991, Note_on_c, 0, 59, 65
2, 586034, Note_on_c, 0, 75, 0
2, 586044, Note_on_c, 0, 63, 0
2, 586044, Note_on_c, 0, 59, 0
2, 586048, Note_on_c, 0, 68, 0
2, 586166, Note_on_c, 0, 70, 75
2, 586168, Note_on_c, 0, 63, 50
2, 586176, Note_on_c, 0, 58, 56
2, 586180, Note_on_c, 0, 75, 78
2, 586220, Note_on_c, 0, 63, 0
2, 586226, Note_on_c, 0, 75, 0
2, 586226, Note_on_c, 0, 58, 0
2, 586232, Note_on_c, 0, 70, 0
2, 586356, Note_on_c, 0, 44, 94
2, 586359, Note_on_c, 0, 75, 77
2, 586366, Note_on_c, 0, 71, 79
2, 586396, Note_on_c, 0, 44, 0
2, 586402, Note_on_c, 0, 75, 0
2, 586410, Note_on_c, 0, 71, 0
2, 586534, Note_on_c, 0, 71, 56
2, 586536, Note_on_c, 0, 63, 78
2, 586544, Note_on_c, 0, 56, 77
2, 586588, Note_on_c, 0, 63, 0
2, 586590, Note_on_c, 0, 71, 0
2, 586594, Note_on_c, 0, 56, 0
2, 586720, Note_on_c, 0, 71, 60
2, 586740, Note_on_c, 0, 63, 52
2, 586744, Note_on_c, 0, 56, 57
2, 586778, Note_on_c, 0, 71, 0
2, 586794, Note_on_c, 0, 63, 0
2, 586796, Note_on_c, 0, 56, 0
2, 586908, Note_on_c, 0, 71, 70
2, 586910, Note_on_c, 0, 56, 37
2, 586911, Note_on_c, 0, 63, 42
2, 586960, Note_on_c, 0, 71, 0
2, 586966, Note_on_c, 0, 63, 0
2, 586970, Note_on_c, 0, 56, 0
2, 587104, Note_on_c, 0, 63, 50
2, 587107, Note_on_c, 0, 71, 58
2, 587114, Note_on_c, 0, 56, 51
2, 587158, Note_on_c, 0, 63, 0
2, 587166, Note_on_c, 0, 71, 0
2, 587169, Note_on_c, 0, 56, 0
2, 587292, Note_on_c, 0, 71, 71
2, 587308, Note_on_c, 0, 63, 44
2, 587308, Note_on_c, 0, 56, 39
2, 587346, Note_on_c, 0, 71, 0
2, 587362, Note_on_c, 0, 63, 0
2, 587372, Note_on_c, 0, 56, 0
2, 587476, Note_on_c, 0, 70, 57
2, 587478, Note_on_c, 0, 58, 40
2, 587478, Note_on_c, 0, 63, 41
2, 587534, Note_on_c, 0, 63, 0
2, 587542, Note_on_c, 0, 58, 0
2, 587546, Note_on_c, 0, 70, 0
2, 587664, Note_on_c, 0, 68, 55
2, 587667, Note_on_c, 0, 63, 42
2, 587676, Note_on_c, 0, 59, 44
2, 587720, Note_on_c, 0, 68, 0
2, 587732, Note_on_c, 0, 59, 0
2, 587748, Note_on_c, 0, 63, 0
2, 587846, Note_on_c, 0, 51, 64
2, 587854, Note_on_c, 0, 61, 52
2, 587856, Note_on_c, 0, 63, 6
2, 587856, Note_on_c, 0, 67, 72
2, 587900, Note_on_c, 0, 51, 0
2, 587902, Note_on_c, 0, 67, 0
2, 587914, Note_on_c, 0, 61, 0
2, 587928, Control_c, 0, 64, 127
2, 587958, Note_on_c, 0, 63, 0
2, 588004, Control_c, 0, 64, 0
2, 588044, Note_on_c, 0, 75, 80
2, 588048, Note_on_c, 0, 61, 56
2, 588058, Note_on_c, 0, 63, 49
2, 588062, Note_on_c, 0, 67, 49
2, 588092, Note_on_c, 0, 75, 0
2, 588108, Note_on_c, 0, 61, 0
2, 588112, Note_on_c, 0, 63, 0
2, 588122, Note_on_c, 0, 67, 0
2, 588230, Note_on_c, 0, 67, 51
2, 588232, Note_on_c, 0, 75, 80
2, 588240, Note_on_c, 0, 63, 56
2, 588244, Note_on_c, 0, 61, 54
2, 588294, Note_on_c, 0, 75, 0
2, 588296, Note_on_c, 0, 61, 0
2, 588297, Note_on_c, 0, 63, 0
2, 588306, Note_on_c, 0, 67, 0
2, 588408, Note_on_c, 0, 67, 65
2, 588418, Note_on_c, 0, 75, 74
2, 588418, Note_on_c, 0, 63, 66
2, 588428, Note_on_c, 0, 61, 47
2, 588476, Note_on_c, 0, 67, 0
2, 588479, Note_on_c, 0, 75, 0
2, 588482, Note_on_c, 0, 63, 0
2, 588484, Note_on_c, 0, 61, 0
2, 588603, Note_on_c, 0, 67, 79
2, 588610, Note_on_c, 0, 75, 78
2, 588617, Note_on_c, 0, 63, 65
2, 588620, Note_on_c, 0, 61, 54
2, 588654, Note_on_c, 0, 67, 0
2, 588658, Note_on_c, 0, 75, 0
2, 588672, Note_on_c, 0, 61, 0
2, 588683, Note_on_c, 0, 63, 0
2, 588788, Note_on_c, 0, 63, 55
2, 588794, Note_on_c, 0, 67, 67
2, 588797, Note_on_c, 0, 75, 67
2, 588800, Note_on_c, 0, 61, 43
2, 588848, Note_on_c, 0, 75, 0
2, 588848, Note_on_c, 0, 67, 0
2, 588856, Note_on_c, 0, 63, 0
2, 588862, Note_on_c, 0, 61, 0
2, 588970, Note_on_c, 0, 68, 66
2, 588974, Note_on_c, 0, 75, 48
2, 588978, Note_on_c, 0, 59, 47
2, 588982, Note_on_c, 0, 63, 49
2, 589028, Note_on_c, 0, 75, 0
2, 589028, Note_on_c, 0, 68, 0
2, 589034, Note_on_c, 0, 59, 0
2, 589040, Note_on_c, 0, 63, 0
2, 589156, Note_on_c, 0, 75, 55
2, 589162, Note_on_c, 0, 70, 54
2, 589170, Note_on_c, 0, 63, 40
2, 589173, Note_on_c, 0, 58, 48
2, 589218, Note_on_c, 0, 70, 0
2, 589224, Note_on_c, 0, 75, 0
2, 589227, Note_on_c, 0, 63, 0
2, 589230, Note_on_c, 0, 58, 0
2, 589374, Note_on_c, 0, 75, 64
2, 589380, Note_on_c, 0, 71, 58
2, 589382, Note_on_c, 0, 44, 63
2, 589385, Control_c, 0, 64, 127
2, 589428, Note_on_c, 0, 75, 0
2, 589432, Note_on_c, 0, 44, 0
2, 589438, Note_on_c, 0, 71, 0
2, 589580, Note_on_c, 0, 75, 62
2, 589590, Note_on_c, 0, 56, 54
2, 589592, Note_on_c, 0, 71, 59
2, 589602, Note_on_c, 0, 59, 51
2, 589632, Control_c, 0, 64, 0
2, 589636, Note_on_c, 0, 75, 0
2, 589648, Note_on_c, 0, 71, 0
2, 589652, Note_on_c, 0, 56, 0
2, 589652, Note_on_c, 0, 59, 0
2, 589766, Note_on_c, 0, 71, 65
2, 589774, Note_on_c, 0, 75, 60
2, 589789, Note_on_c, 0, 59, 44
2, 589792, Note_on_c, 0, 56, 59
2, 589838, Note_on_c, 0, 71, 0
2, 589852, Note_on_c, 0, 59, 0
2, 589952, Note_on_c, 0, 63, 66
2, 589952, Note_on_c, 0, 68, 57
2, 589956, Note_on_c, 0, 71, 48
2, 589962, Note_on_c, 0, 59, 43
2, 589982, Note_on_c, 0, 75, 0
2, 589992, Note_on_c, 0, 56, 0
2, 590000, Note_on_c, 0, 63, 0
2, 590010, Note_on_c, 0, 59, 0
2, 590040, Note_on_c, 0, 71, 0
2, 590052, Note_on_c, 0, 68, 0
2, 590150, Note_on_c, 0, 49, 82
2, 590190, Note_on_c, 0, 49, 0
2, 590248, Control_c, 0, 64, 127
2, 590334, Note_on_c, 0, 76, 65
2, 590338, Note_on_c, 0, 73, 65
2, 590350, Note_on_c, 0, 61, 57
2, 590358, Note_on_c, 0, 56, 39
2, 590384, Note_on_c, 0, 76, 0
2, 590386, Control_c, 0, 64, 0
2, 590396, Note_on_c, 0, 73, 0
2, 590404, Note_on_c, 0, 61, 0
2, 590422, Note_on_c, 0, 56, 0
2, 590534, Note_on_c, 0, 56, 33
2, 590542, Note_on_c, 0, 76, 70
2, 590542, Note_on_c, 0, 73, 58
2, 590556, Note_on_c, 0, 61, 62
2, 590610, Note_on_c, 0, 73, 0
2, 590613, Note_on_c, 0, 61, 0
2, 590706, Note_on_c, 0, 73, 49
2, 590708, Note_on_c, 0, 68, 47
2, 590714, Note_on_c, 0, 64, 40
2, 590717, Note_on_c, 0, 61, 59
2, 590718, Note_on_c, 0, 56, 0
2, 590754, Note_on_c, 0, 76, 0
2, 590770, Note_on_c, 0, 64, 0
2, 590770, Note_on_c, 0, 61, 0
2, 590852, Note_on_c, 0, 73, 0
2, 590858, Note_on_c, 0, 68, 0
2, 590906, Note_on_c, 0, 51, 82
2, 590956, Note_on_c, 0, 51, 0
2, 590968, Control_c, 0, 64, 127
2, 591046, Control_c, 0, 64, 0
2, 591082, Note_on_c, 0, 75, 62
2, 591084, Note_on_c, 0, 71, 79
2, 591093, Note_on_c, 0, 59, 51
2, 591100, Note_on_c, 0, 56, 58
2, 591138, Note_on_c, 0, 71, 0
2, 591144, Note_on_c, 0, 75, 0
2, 591144, Note_on_c, 0, 59, 0
2, 591154, Note_on_c, 0, 56, 0
2, 591284, Note_on_c, 0, 75, 62
2, 591287, Note_on_c, 0, 71, 75
2, 591288, Note_on_c, 0, 56, 44
2, 591292, Note_on_c, 0, 59, 32
2, 591336, Note_on_c, 0, 71, 0
2, 591350, Note_on_c, 0, 59, 0
2, 591384, Note_on_c, 0, 56, 0
2, 591480, Note_on_c, 0, 63, 54
2, 591484, Note_on_c, 0, 68, 36
2, 591488, Note_on_c, 0, 71, 40
2, 591492, Note_on_c, 0, 75, 0
2, 591492, Note_on_c, 0, 59, 27
2, 591522, Control_c, 0, 64, 127
2, 591546, Note_on_c, 0, 63, 0
2, 591549, Note_on_c, 0, 59, 0
2, 591562, Note_on_c, 0, 71, 0
2, 591570, Note_on_c, 0, 68, 0
2, 591660, Control_c, 0, 64, 0
2, 591672, Note_on_c, 0, 51, 63
2, 591728, Note_on_c, 0, 51, 0
2, 591846, Note_on_c, 0, 70, 64
2, 591848, Note_on_c, 0, 75, 64
2, 591858, Note_on_c, 0, 58, 50
2, 591866, Note_on_c, 0, 55, 60
2, 591904, Note_on_c, 0, 70, 0
2, 591906, Note_on_c, 0, 75, 0
2, 591920, Note_on_c, 0, 58, 0
2, 591920, Note_on_c, 0, 55, 0
2, 592044, Note_on_c, 0, 70, 57
2, 592052, Note_on_c, 0, 75, 69
2, 592052, Note_on_c, 0, 55, 42
2, 592062, Note_on_c, 0, 58, 37
2, 592112, Note_on_c, 0, 55, 0
2, 592112, Note_on_c, 0, 70, 0
2, 592128, Note_on_c, 0, 58, 0
2, 592148, Note_on_c, 0, 75, 0
2, 592224, Note_on_c, 0, 58, 37
2, 592227, Control_c, 0, 64, 127
2, 592227, Note_on_c, 0, 70, 46
2, 592230, Note_on_c, 0, 63, 46
2, 592231, Note_on_c, 0, 67, 49
2, 592284, Note_on_c, 0, 58, 0
2, 592287, Note_on_c, 0, 63, 0
2, 592290, Note_on_c, 0, 70, 0
2, 592296, Note_on_c, 0, 67, 0
2, 592444, Control_c, 0, 64, 0
2, 592468, Note_on_c, 0, 68, 47
2, 592470, Note_on_c, 0, 71, 71
2, 592476, Note_on_c, 0, 44, 34
2, 592480, Note_on_c, 0, 32, 35
2, 592522, Note_on_c, 0, 71, 0
2, 592530, Note_on_c, 0, 68, 0
2, 592542, Note_on_c, 0, 44, 0
2, 592548, Note_on_c, 0, 32, 0
2, 592598, Control_c, 0, 64, 127
2, 592722, Note_on_c, 0, 83, 97
2, 592724, Note_on_c, 0, 71, 71
2, 592727, Note_on_c, 0, 44, 63
2, 592736, Note_on_c, 0, 75, 48
2, 592736, Note_on_c, 0, 51, 49
2, 592772, Note_on_c, 0, 83, 0
2, 592788, Note_on_c, 0, 44, 0
2, 592794, Note_on_c, 0, 51, 0
2, 592800, Note_on_c, 0, 75, 0
2, 592800, Note_on_c, 0, 71, 0
2, 592828, Control_c, 0, 64, 0
2, 592916, Note_on_c, 0, 75, 57
2, 592919, Note_on_c, 0, 83, 108
2, 592919, Note_on_c, 0, 71, 72
2, 592942, Note_on_c, 0, 44, 55
2, 592944, Note_on_c, 0, 51, 54
2, 592970, Note_on_c, 0, 83, 0
2, 592982, Note_on_c, 0, 71, 0
2, 592998, Note_on_c, 0, 51, 0
2, 592998, Note_on_c, 0, 44, 0
2, 593006, Note_on_c, 0, 75, 0
2, 593098, Note_on_c, 0, 75, 58
2, 593101, Note_on_c, 0, 71, 80
2, 593104, Note_on_c, 0, 83, 108
2, 593120, Note_on_c, 0, 51, 46
2, 593126, Note_on_c, 0, 44, 50
2, 593158, Note_on_c, 0, 83, 0
2, 593166, Note_on_c, 0, 71, 0
2, 593180, Note_on_c, 0, 44, 0
2, 593180, Note_on_c, 0, 51, 0
2, 593198, Note_on_c, 0, 75, 0
2, 593286, Note_on_c, 0, 75, 63
2, 593294, Note_on_c, 0, 83, 111
2, 593296, Note_on_c, 0, 71, 88
2, 593296, Note_on_c, 0, 44, 62
2, 593299, Note_on_c, 0, 51, 54
2, 593344, Note_on_c, 0, 83, 0
2, 593362, Note_on_c, 0, 44, 0
2, 593362, Note_on_c, 0, 51, 0
2, 593365, Note_on_c, 0, 71, 0
2, 593400, Note_on_c, 0, 75, 0
2, 593476, Note_on_c, 0, 75, 77
2, 593476, Note_on_c, 0, 51, 63
2, 593479, Note_on_c, 0, 83, 118
2, 593479, Note_on_c, 0, 44, 75
2, 593482, Note_on_c, 0, 71, 90
2, 593514, Note_on_c, 0, 83, 0
2, 593530, Note_on_c, 0, 71, 0
2, 593544, Note_on_c, 0, 44, 0
2, 593550, Note_on_c, 0, 51, 0
2, 593588, Note_on_c, 0, 75, 0
2, 593652, Note_on_c, 0, 82, 96
2, 593652, Note_on_c, 0, 70, 90
2, 593652, Note_on_c, 0, 73, 90
2, 593664, Note_on_c, 0, 46, 79
2, 593670, Note_on_c, 0, 51, 69
2, 593728, Note_on_c, 0, 51, 0
2, 593732, Note_on_c, 0, 82, 0
2, 593742, Note_on_c, 0, 70, 0
2, 593748, Note_on_c, 0, 46, 0
2, 593778, Note_on_c, 0, 73, 0
2, 593832, Note_on_c, 0, 80, 103
2, 593832, Note_on_c, 0, 68, 96
2, 593835, Note_on_c, 0, 71, 101
2, 593842, Note_on_c, 0, 51, 80
2, 593846, Note_on_c, 0, 47, 94
2, 593894, Note_on_c, 0, 47, 0
2, 593896, Note_on_c, 0, 51, 0
2, 593938, Note_on_c, 0, 80, 0
2, 593938, Note_on_c, 0, 68, 0
2, 593964, Note_on_c, 0, 71, 0
2, 594026, Note_on_c, 0, 70, 97
2, 594028, Note_on_c, 0, 67, 109
2, 594030, Note_on_c, 0, 79, 118
2, 594036, Note_on_c, 0, 39, 82
2, 594042, Note_on_c, 0, 49, 57
2, 594062, Note_on_c, 0, 67, 0
2, 594068, Note_on_c, 0, 70, 0
2, 594072, Note_on_c, 0, 39, 0
2, 594088, Control_c, 0, 64, 127
2, 594096, Note_on_c, 0, 49, 0
2, 594098, Note_on_c, 0, 79, 0
2, 594268, Note_on_c, 0, 79, 93
2, 594272, Note_on_c, 0, 88, 86
2, 594274, Note_on_c, 0, 61, 78
2, 594282, Note_on_c, 0, 51, 66
2, 594286, Note_on_c, 0, 76, 54
2, 594320, Control_c, 0, 64, 0
2, 594323, Note_on_c, 0, 88, 0
2, 594326, Note_on_c, 0, 61, 0
2, 594336, Note_on_c, 0, 51, 0
2, 594340, Note_on_c, 0, 76, 0
2, 594380, Note_on_c, 0, 79, 0
2, 594444, Note_on_c, 0, 79, 97
2, 594448, Note_on_c, 0, 88, 104
2, 594454, Note_on_c, 0, 76, 82
2, 594466, Note_on_c, 0, 51, 65
2, 594468, Note_on_c, 0, 61, 74
2, 594514, Note_on_c, 0, 61, 0
2, 594514, Note_on_c, 0, 76, 0
2, 594517, Note_on_c, 0, 51, 0
2, 594540, Note_on_c, 0, 79, 0
2, 594564, Note_on_c, 0, 88, 0
2, 594624, Note_on_c, 0, 79, 93
2, 594624, Note_on_c, 0, 88, 103
2, 594626, Note_on_c, 0, 61, 82
2, 594630, Note_on_c, 0, 51, 81
2, 594632, Note_on_c, 0, 76, 104
2, 594688, Note_on_c, 0, 51, 0
2, 594708, Note_on_c, 0, 61, 0
2, 594708, Note_on_c, 0, 88, 0
2, 594718, Note_on_c, 0, 76, 0
2, 594744, Note_on_c, 0, 79, 0
2, 594812, Note_on_c, 0, 61, 96
2, 594812, Note_on_c, 0, 79, 103
2, 594815, Note_on_c, 0, 88, 111
2, 594815, Note_on_c, 0, 76, 104
2, 594822, Note_on_c, 0, 51, 98
2, 594872, Note_on_c, 0, 51, 0
2, 594892, Note_on_c, 0, 88, 0
2, 594922, Note_on_c, 0, 76, 0
2, 594922, Note_on_c, 0, 61, 0
2, 594934, Note_on_c, 0, 79, 0
2, 594994, Note_on_c, 0, 79, 108
2, 594994, Note_on_c, 0, 88, 103
2, 594994, Note_on_c, 0, 76, 103
2, 594997, Note_on_c, 0, 61, 93
2, 595014, Note_on_c, 0, 51, 98
2, 595072, Note_on_c, 0, 88, 0
2, 595075, Note_on_c, 0, 76, 0
2, 595080, Note_on_c, 0, 51, 0
2, 595092, Note_on_c, 0, 61, 0
2, 595126, Note_on_c, 0, 79, 0
2, 595170, Note_on_c, 0, 87, 108
2, 595174, Note_on_c, 0, 75, 109
2, 595180, Note_on_c, 0, 79, 116
2, 595188, Note_on_c, 0, 59, 101
2, 595191, Note_on_c, 0, 51, 95
2, 595238, Note_on_c, 0, 51, 0
2, 595240, Note_on_c, 0, 59, 0
2, 595280, Note_on_c, 0, 75, 0
2, 595284, Note_on_c, 0, 87, 0
2, 595302, Note_on_c, 0, 79, 0
2, 595348, Note_on_c, 0, 73, 105
2, 595352, Note_on_c, 0, 79, 116
2, 595352, Note_on_c, 0, 58, 93
2, 595354, Note_on_c, 0, 85, 103
2, 595374, Note_on_c, 0, 51, 101
2, 595388, Note_on_c, 0, 58, 0
2, 595406, Note_on_c, 0, 51, 0
2, 595466, Note_on_c, 0, 85, 0
2, 595466, Note_on_c, 0, 79, 0
2, 595469, Note_on_c, 0, 73, 0
2, 595540, Note_on_c, 0, 71, 121
2, 595540, Note_on_c, 0, 83, 127
2, 595548, Note_on_c, 0, 80, 90
2, 595552, Note_on_c, 0, 44, 104
2, 595554, Note_on_c, 0, 32, 89
2, 595564, Control_c, 0, 64, 127
2, 595584, Note_on_c, 0, 44, 0
2, 595590, Note_on_c, 0, 32, 0
2, 595604, Note_on_c, 0, 80, 0
2, 595620, Note_on_c, 0, 83, 0
2, 595636, Note_on_c, 0, 71, 0
2, 595732, Note_on_c, 0, 71, 83
2, 595732, Note_on_c, 0, 83, 104
2, 595734, Control_c, 0, 64, 0
2, 595736, Note_on_c, 0, 75, 79
2, 595738, Note_on_c, 0, 51, 81
2, 595744, Note_on_c, 0, 44, 90
2, 595786, Note_on_c, 0, 51, 0
2, 595789, Note_on_c, 0, 44, 0
2, 595796, Note_on_c, 0, 75, 0
2, 595818, Note_on_c, 0, 71, 0
2, 595824, Note_on_c, 0, 83, 0
2, 595904, Note_on_c, 0, 83, 110
2, 595907, Note_on_c, 0, 71, 87
2, 595914, Note_on_c, 0, 44, 75
2, 595914, Note_on_c, 0, 51, 74
2, 595922, Note_on_c, 0, 75, 65
2, 595980, Note_on_c, 0, 75, 0
2, 595982, Note_on_c, 0, 44, 0
2, 595988, Note_on_c, 0, 51, 0
2, 595994, Note_on_c, 0, 83, 0
2, 596006, Note_on_c, 0, 71, 0
2, 596092, Note_on_c, 0, 71, 73
2, 596094, Note_on_c, 0, 51, 79
2, 596094, Note_on_c, 0, 83, 101
2, 596094, Note_on_c, 0, 44, 86
2, 596098, Note_on_c, 0, 75, 74
2, 596176, Note_on_c, 0, 83, 0
2, 596178, Note_on_c, 0, 44, 0
2, 596186, Note_on_c, 0, 71, 0
2, 596190, Note_on_c, 0, 51, 0
2, 596194, Note_on_c, 0, 75, 0
2, 596268, Note_on_c, 0, 83, 115
2, 596268, Note_on_c, 0, 71, 93
2, 596271, Note_on_c, 0, 75, 74
2, 596271, Note_on_c, 0, 51, 74
2, 596278, Note_on_c, 0, 44, 81
2, 596358, Note_on_c, 0, 83, 0
2, 596370, Note_on_c, 0, 71, 0
2, 596372, Note_on_c, 0, 44, 0
2, 596376, Note_on_c, 0, 51, 0
2, 596394, Note_on_c, 0, 75, 0
2, 596448, Note_on_c, 0, 83, 115
2, 596448, Note_on_c, 0, 75, 96
2, 596451, Note_on_c, 0, 71, 102
2, 596451, Note_on_c, 0, 51, 83
2, 596454, Note_on_c, 0, 44, 93
2, 596504, Note_on_c, 0, 83, 0
2, 596524, Note_on_c, 0, 71, 0
2, 596546, Note_on_c, 0, 44, 0
2, 596549, Note_on_c, 0, 51, 0
2, 596564, Note_on_c, 0, 75, 0
2, 596624, Note_on_c, 0, 70, 101
2, 596630, Note_on_c, 0, 82, 101
2, 596630, Note_on_c, 0, 73, 97
2, 596633, Note_on_c, 0, 51, 89
2, 596642, Note_on_c, 0, 46, 87
2, 596708, Note_on_c, 0, 46, 0
2, 596730, Note_on_c, 0, 51, 0
2, 596734, Note_on_c, 0, 70, 0
2, 596740, Note_on_c, 0, 82, 0
2, 596756, Note_on_c, 0, 73, 0
2, 596804, Note_on_c, 0, 80, 109
2, 596804, Note_on_c, 0, 68, 108
2, 596804, Note_on_c, 0, 51, 89
2, 596807, Note_on_c, 0, 71, 111
2, 596812, Note_on_c, 0, 47, 104
2, 596906, Note_on_c, 0, 51, 0
2, 596916, Note_on_c, 0, 68, 0
2, 596920, Note_on_c, 0, 47, 0
2, 596924, Note_on_c, 0, 71, 0
2, 596924, Note_on_c, 0, 80, 0
2, 596992, Note_on_c, 0, 70, 103
2, 596994, Note_on_c, 0, 67, 118
2, 596994, Note_on_c, 0, 49, 105
2, 596996, Note_on_c, 0, 79, 121
2, 596998, Note_on_c, 0, 39, 105
2, 597028, Note_on_c, 0, 39, 0
2, 597030, Note_on_c, 0, 67, 0
2, 597040, Note_on_c, 0, 49, 0
2, 597058, Note_on_c, 0, 70, 0
2, 597068, Control_c, 0, 64, 127
2, 597076, Note_on_c, 0, 79, 0
2, 597210, Note_on_c, 0, 88, 111
2, 597212, Note_on_c, 0, 61, 90
2, 597220, Note_on_c, 0, 76, 86
2, 597222, Note_on_c, 0, 79, 95
2, 597226, Note_on_c, 0, 51, 78
2, 597260, Note_on_c, 0, 61, 0
2, 597270, Control_c, 0, 64, 0
2, 597276, Note_on_c, 0, 51, 0
2, 597282, Note_on_c, 0, 76, 0
2, 597284, Note_on_c, 0, 79, 0
2, 597304, Note_on_c, 0, 88, 0
2, 597394, Note_on_c, 0, 76, 102
2, 597394, Note_on_c, 0, 51, 85
2, 597397, Note_on_c, 0, 61, 96
2, 597397, Note_on_c, 0, 79, 98
2, 597397, Note_on_c, 0, 88, 93
2, 597456, Note_on_c, 0, 51, 0
2, 597464, Note_on_c, 0, 61, 0
2, 597494, Note_on_c, 0, 76, 0
2, 597496, Note_on_c, 0, 88, 0
2, 597496, Note_on_c, 0, 79, 0
2, 597572, Note_on_c, 0, 61, 102
2, 597572, Note_on_c, 0, 79, 101
2, 597576, Note_on_c, 0, 76, 100
2, 597576, Note_on_c, 0, 88, 104
2, 597578, Note_on_c, 0, 51, 104
2, 597654, Note_on_c, 0, 51, 0
2, 597660, Note_on_c, 0, 88, 0
2, 597663, Note_on_c, 0, 61, 0
2, 597680, Note_on_c, 0, 76, 0
2, 597688, Note_on_c, 0, 79, 0
2, 597754, Note_on_c, 0, 61, 93
2, 597757, Note_on_c, 0, 79, 108
2, 597760, Note_on_c, 0, 88, 112
2, 597760, Note_on_c, 0, 76, 100
2, 597764, Note_on_c, 0, 51, 100
2, 597842, Note_on_c, 0, 51, 0
2, 597842, Note_on_c, 0, 61, 0
2, 597854, Note_on_c, 0, 76, 0
2, 597882, Note_on_c, 0, 88, 0
2, 597890, Note_on_c, 0, 79, 0
2, 597940, Note_on_c, 0, 61, 93
2, 597943, Note_on_c, 0, 88, 110
2, 597946, Note_on_c, 0, 76, 109
2, 597946, Note_on_c, 0, 79, 116
2, 597960, Note_on_c, 0, 51, 96
2, 598014, Note_on_c, 0, 51, 0
2, 598034, Note_on_c, 0, 61, 0
2, 598034, Note_on_c, 0, 88, 0
2, 598048, Note_on_c, 0, 76, 0
2, 598068, Note_on_c, 0, 79, 0
2, 598124, Note_on_c, 0, 59, 106
2, 598124, Note_on_c, 0, 79, 110
2, 598127, Note_on_c, 0, 51, 104
2, 598127, Note_on_c, 0, 87, 105
2, 598127, Note_on_c, 0, 75, 110
2, 598176, Note_on_c, 0, 59, 0
2, 598190, Note_on_c, 0, 51, 0
2, 598208, Note_on_c, 0, 87, 0
2, 598220, Note_on_c, 0, 75, 0
2, 598248, Note_on_c, 0, 79, 0
2, 598298, Note_on_c, 0, 85, 106
2, 598300, Note_on_c, 0, 73, 103
2, 598300, Note_on_c, 0, 79, 111
2, 598310, Note_on_c, 0, 58, 86
2, 598318, Note_on_c, 0, 51, 96
2, 598350, Note_on_c, 0, 58, 0
2, 598358, Note_on_c, 0, 51, 0
2, 598414, Note_on_c, 0, 79, 0
2, 598426, Note_on_c, 0, 85, 0
2, 598434, Note_on_c, 0, 73, 0
2, 598500, Note_on_c, 0, 83, 127
2, 598502, Note_on_c, 0, 71, 116
2, 598508, Note_on_c, 0, 80, 93
2, 598510, Note_on_c, 0, 44, 93
2, 598534, Note_on_c, 0, 71, 0
2, 598548, Note_on_c, 0, 44, 0
2, 598548, Note_on_c, 0, 80, 0
2, 598560, Control_c, 0, 64, 127
2, 598606, Note_on_c, 0, 83, 0
2, 598702, Note_on_c, 0, 80, 97
2, 598702, Note_on_c, 0, 83, 108
2, 598722, Note_on_c, 0, 63, 54
2, 598722, Note_on_c, 0, 59, 55
2, 598759, Note_on_c, 0, 83, 0
2, 598762, Note_on_c, 0, 80, 0
2, 598776, Control_c, 0, 64, 0
2, 598778, Note_on_c, 0, 59, 0
2, 598780, Note_on_c, 0, 63, 0
2, 598886, Note_on_c, 0, 59, 41
2, 598896, Note_on_c, 0, 80, 83
2, 598904, Note_on_c, 0, 83, 108
2, 598916, Note_on_c, 0, 63, 58
2, 598974, Note_on_c, 0, 59, 0
2, 598986, Note_on_c, 0, 83, 0
2, 599082, Note_on_c, 0, 83, 93
2, 599094, Note_on_c, 0, 59, 40
2, 599097, Note_on_c, 0, 87, 62
2, 599102, Note_on_c, 0, 63, 0
2, 599104, Note_on_c, 0, 56, 63
2, 599130, Note_on_c, 0, 80, 0
2, 599150, Note_on_c, 0, 59, 0
2, 599176, Note_on_c, 0, 56, 0
2, 599260, Note_on_c, 0, 83, 0
2, 599268, Note_on_c, 0, 87, 0
2, 599282, Note_on_c, 0, 49, 82
2, 599322, Note_on_c, 0, 49, 0
2, 599328, Control_c, 0, 64, 127
2, 599468, Note_on_c, 0, 85, 82
2, 599470, Note_on_c, 0, 80, 72
2, 599482, Note_on_c, 0, 61, 63
2, 599492, Note_on_c, 0, 64, 62
2, 599496, Control_c, 0, 64, 0
2, 599534, Note_on_c, 0, 61, 0
2, 599534, Note_on_c, 0, 80, 0
2, 599537, Note_on_c, 0, 85, 0
2, 599544, Note_on_c, 0, 64, 0
2, 599660, Note_on_c, 0, 80, 79
2, 599662, Note_on_c, 0, 85, 80
2, 599668, Note_on_c, 0, 64, 54
2, 599674, Note_on_c, 0, 61, 56
2, 599746, Note_on_c, 0, 61, 0
2, 599784, Note_on_c, 0, 85, 0
2, 599842, Note_on_c, 0, 61, 52
2, 599850, Note_on_c, 0, 85, 73
2, 599853, Note_on_c, 0, 64, 0
2, 599860, Note_on_c, 0, 88, 51
2, 599862, Note_on_c, 0, 80, 0
2, 599864, Note_on_c, 0, 56, 59
2, 599908, Note_on_c, 0, 61, 0
2, 599913, Note_on_c, 0, 56, 0
2, 599940, Note_on_c, 0, 88, 0
2, 599980, Note_on_c, 0, 85, 0
2, 600004, Control_c, 0, 64, 127
2, 600038, Note_on_c, 0, 51, 94
2, 600080, Note_on_c, 0, 51, 0
2, 600213, Note_on_c, 0, 80, 58
2, 600222, Note_on_c, 0, 83, 101
2, 600232, Note_on_c, 0, 59, 64
2, 600235, Note_on_c, 0, 63, 80
2, 600280, Note_on_c, 0, 80, 0
2, 600280, Control_c, 0, 64, 0
2, 600283, Note_on_c, 0, 59, 0
2, 600287, Note_on_c, 0, 63, 0
2, 600292, Note_on_c, 0, 83, 0
2, 600392, Note_on_c, 0, 59, 54
2, 600395, Note_on_c, 0, 83, 109
2, 600400, Note_on_c, 0, 80, 71
2, 600404, Note_on_c, 0, 63, 71
2, 600468, Note_on_c, 0, 59, 0
2, 600512, Note_on_c, 0, 83, 0
2, 600590, Note_on_c, 0, 63, 0
2, 600590, Note_on_c, 0, 83, 95
2, 600593, Note_on_c, 0, 80, 0
2, 600596, Note_on_c, 0, 59, 59
2, 600602, Note_on_c, 0, 87, 58
2, 600604, Note_on_c, 0, 56, 55
2, 600618, Control_c, 0, 64, 127
2, 600642, Note_on_c, 0, 59, 0
2, 600666, Note_on_c, 0, 56, 0
2, 600710, Note_on_c, 0, 83, 0
2, 600782, Note_on_c, 0, 49, 95
2, 600785, Note_on_c, 0, 87, 0
2, 600830, Note_on_c, 0, 49, 0
2, 600850, Control_c, 0, 64, 0
2, 600968, Note_on_c, 0, 82, 73
2, 600968, Note_on_c, 0, 58, 57
2, 600970, Note_on_c, 0, 63, 80
2, 600974, Note_on_c, 0, 79, 83
2, 601036, Note_on_c, 0, 58, 0
2, 601040, Note_on_c, 0, 63, 0
2, 601050, Note_on_c, 0, 79, 0
2, 601094, Note_on_c, 0, 82, 0
2, 601096, Control_c, 0, 64, 127
2, 601158, Note_on_c, 0, 82, 65
2, 601176, Note_on_c, 0, 63, 65
2, 601176, Note_on_c, 0, 79, 64
2, 601186, Note_on_c, 0, 58, 35
2, 601250, Note_on_c, 0, 58, 0
2, 601256, Note_on_c, 0, 82, 0
2, 601282, Note_on_c, 0, 63, 0
2, 601352, Note_on_c, 0, 58, 32
2, 601372, Note_on_c, 0, 87, 50
2, 601374, Note_on_c, 0, 82, 42
2, 601390, Note_on_c, 0, 79, 0
2, 601402, Note_on_c, 0, 55, 24
2, 601426, Note_on_c, 0, 58, 0
2, 601444, Note_on_c, 0, 82, 0
2, 601448, Control_c, 0, 64, 0
2, 601454, Note_on_c, 0, 87, 0
2, 601462, Note_on_c, 0, 55, 0
2, 601568, Note_on_c, 0, 47, 74
2, 601612, Note_on_c, 0, 47, 0
2, 601680, Control_c, 0, 64, 127
2, 601774, Note_on_c, 0, 83, 97
2, 601786, Note_on_c, 0, 75, 70
2, 601790, Note_on_c, 0, 68, 42
2, 601794, Note_on_c, 0, 63, 37
2, 601823, Note_on_c, 0, 83, 0
2, 601840, Note_on_c, 0, 75, 0
2, 601854, Note_on_c, 0, 68, 0
2, 601858, Note_on_c, 0, 63, 0
2, 601972, Note_on_c, 0, 75, 60
2, 601975, Note_on_c, 0, 63, 44
2, 601975, Note_on_c, 0, 83, 104
2, 601982, Note_on_c, 0, 68, 39
2, 602034, Note_on_c, 0, 63, 0
2, 602046, Note_on_c, 0, 75, 0
2, 602048, Note_on_c, 0, 83, 0
2, 602104, Note_on_c, 0, 68, 0
2, 602162, Note_on_c, 0, 87, 56
2, 602168, Note_on_c, 0, 80, 58
2, 602178, Note_on_c, 0, 63, 51
2, 602184, Note_on_c, 0, 59, 28
2, 602226, Note_on_c, 0, 63, 0
2, 602238, Note_on_c, 0, 80, 0
2, 602250, Note_on_c, 0, 59, 0
2, 602264, Note_on_c, 0, 87, 0
2, 602264, Control_c, 0, 64, 0
2, 602350, Note_on_c, 0, 49, 83
2, 602390, Note_on_c, 0, 49, 0
2, 602462, Control_c, 0, 64, 127
2, 602550, Note_on_c, 0, 81, 60
2, 602558, Note_on_c, 0, 73, 57
2, 602568, Note_on_c, 0, 69, 47
2, 602574, Note_on_c, 0, 64, 55
2, 602608, Note_on_c, 0, 81, 0
2, 602616, Note_on_c, 0, 73, 0
2, 602624, Note_on_c, 0, 64, 0
2, 602630, Note_on_c, 0, 69, 0
2, 602728, Note_on_c, 0, 81, 57
2, 602742, Note_on_c, 0, 73, 65
2, 602745, Note_on_c, 0, 64, 41
2, 602748, Note_on_c, 0, 69, 40
2, 602754, Control_c, 0, 64, 0
2, 602800, Note_on_c, 0, 64, 0
2, 602850, Note_on_c, 0, 73, 0
2, 602886, Note_on_c, 0, 69, 0
2, 602916, Note_on_c, 0, 81, 0
2, 602924, Control_c, 0, 64, 127
2, 602939, Note_on_c, 0, 85, 57
2, 602939, Note_on_c, 0, 64, 42
2, 602944, Note_on_c, 0, 61, 59
2, 602952, Note_on_c, 0, 76, 34
2, 602990, Note_on_c, 0, 64, 0
2, 602994, Note_on_c, 0, 61, 0
2, 603016, Note_on_c, 0, 76, 0
2, 603038, Note_on_c, 0, 85, 0
2, 603038, Control_c, 0, 64, 0
2, 603132, Note_on_c, 0, 51, 78
2, 603178, Note_on_c, 0, 51, 0
2, 603230, Control_c, 0, 64, 127
2, 603310, Note_on_c, 0, 80, 69
2, 603316, Note_on_c, 0, 71, 72
2, 603326, Note_on_c, 0, 68, 49
2, 603332, Note_on_c, 0, 63, 44
2, 603374, Note_on_c, 0, 71, 0
2, 603382, Note_on_c, 0, 68, 0
2, 603388, Note_on_c, 0, 63, 0
2, 603392, Note_on_c, 0, 80, 0
2, 603508, Control_c, 0, 64, 0
2, 603514, Note_on_c, 0, 71, 59
2, 603516, Note_on_c, 0, 80, 66
2, 603516, Note_on_c, 0, 68, 54
2, 603524, Note_on_c, 0, 63, 28
2, 603586, Note_on_c, 0, 63, 0
2, 603670, Note_on_c, 0, 68, 0
2, 603691, Note_on_c, 0, 71, 0
2, 603708, Control_c, 0, 64, 127
2, 603724, Note_on_c, 0, 80, 0
2, 603738, Note_on_c, 0, 75, 49
2, 603738, Note_on_c, 0, 59, 14
2, 603738, Note_on_c, 0, 63, 37
2, 603746, Note_on_c, 0, 83, 77
2, 603794, Note_on_c, 0, 59, 0
2, 603816, Note_on_c, 0, 75, 0
2, 603826, Note_on_c, 0, 63, 0
2, 603836, Note_on_c, 0, 83, 0
2, 603938, Note_on_c, 0, 51, 59
2, 603992, Note_on_c, 0, 51, 0
2, 604076, Control_c, 0, 64, 0
2, 604142, Note_on_c, 0, 70, 47
2, 604147, Note_on_c, 0, 79, 72
2, 604152, Note_on_c, 0, 67, 55
2, 604154, Note_on_c, 0, 61, 43
2, 604218, Note_on_c, 0, 70, 0
2, 604221, Note_on_c, 0, 67, 0
2, 604230, Note_on_c, 0, 61, 0
2, 604234, Note_on_c, 0, 79, 0
2, 604306, Control_c, 0, 64, 127
2, 604374, Note_on_c, 0, 70, 40
2, 604374, Note_on_c, 0, 67, 42
2, 604378, Note_on_c, 0, 79, 56
2, 604380, Note_on_c, 0, 61, 40
2, 604440, Note_on_c, 0, 70, 0
2, 604446, Note_on_c, 0, 67, 0
2, 604453, Note_on_c, 0, 61, 0
2, 604602, Note_on_c, 0, 82, 50
2, 604604, Note_on_c, 0, 79, 0
2, 604626, Note_on_c, 0, 73, 29
2, 604628, Note_on_c, 0, 58, 32
2, 604630, Note_on_c, 0, 61, 21
2, 604692, Note_on_c, 0, 58, 0
2, 604696, Note_on_c, 0, 61, 0
2, 604728, Note_on_c, 0, 73, 0
2, 604874, Control_c, 0, 64, 0
2, 604904, Note_on_c, 0, 80, 57
2, 604918, Note_on_c, 0, 44, 43
2, 604932, Note_on_c, 0, 82, 0
2, 604932, Note_on_c, 0, 71, 41
2, 605030, Note_on_c, 0, 56, 39
2, 605104, Note_on_c, 0, 56, 0
2, 605152, Note_on_c, 0, 44, 0
2, 605152, Note_on_c, 0, 51, 35
2, 605198, Control_c, 0, 64, 127
2, 605222, Note_on_c, 0, 51, 0
2, 605256, Note_on_c, 0, 56, 34
2, 605322, Note_on_c, 0, 56, 0
2, 605344, Note_on_c, 0, 71, 0
2, 605354, Note_on_c, 0, 44, 51
2, 605416, Note_on_c, 0, 80, 0
2, 605418, Note_on_c, 0, 44, 0
2, 605460, Note_on_c, 0, 56, 33
2, 605530, Note_on_c, 0, 56, 0
2, 605574, Note_on_c, 0, 51, 36
2, 605636, Note_on_c, 0, 51, 0
2, 605654, Note_on_c, 0, 56, 43
2, 605726, Note_on_c, 0, 56, 0
2, 605762, Note_on_c, 0, 44, 54
2, 605820, Note_on_c, 0, 44, 0
2, 605864, Note_on_c, 0, 56, 41
2, 605934, Note_on_c, 0, 56, 0
2, 605998, Note_on_c, 0, 51, 23
2, 606072, Note_on_c, 0, 51, 0
2, 606082, Note_on_c, 0, 56, 48
2, 606148, Note_on_c, 0, 56, 0
2, 606156, Note_on_c, 0, 71, 88
2, 606180, Note_on_c, 0, 44, 59
2, 606250, Note_on_c, 0, 44, 0
2, 606306, Note_on_c, 0, 56, 48
2, 606376, Note_on_c, 0, 56, 0
2, 606448, Note_on_c, 0, 51, 27
2, 606522, Note_on_c, 0, 51, 0
2, 606525, Note_on_c, 0, 56, 57
2, 606525, Note_on_c, 0, 68, 67
2, 606528, Note_on_c, 0, 71, 0
2, 606590, Note_on_c, 0, 68, 0
2, 606642, Note_on_c, 0, 67, 79
2, 606646, Note_on_c, 0, 56, 0
2, 606658, Note_on_c, 0, 44, 50
2, 606658, Control_c, 0, 64, 0
2, 606770, Note_on_c, 0, 58, 37
2, 606864, Note_on_c, 0, 58, 0
2, 606878, Note_on_c, 0, 51, 50
2, 606888, Note_on_c, 0, 44, 0
2, 606888, Control_c, 0, 64, 127
2, 606946, Note_on_c, 0, 67, 0
2, 606952, Note_on_c, 0, 51, 0
2, 606982, Note_on_c, 0, 58, 25
2, 607076, Note_on_c, 0, 75, 78
2, 607076, Note_on_c, 0, 61, 49
2, 607082, Note_on_c, 0, 58, 0
2, 607096, Note_on_c, 0, 67, 33
2, 607104, Note_on_c, 0, 44, 55
2, 607134, Control_c, 0, 64, 0
2, 607198, Note_on_c, 0, 44, 0
2, 607202, Note_on_c, 0, 58, 31
2, 607282, Note_on_c, 0, 75, 0
2, 607288, Note_on_c, 0, 67, 0
2, 607292, Note_on_c, 0, 58, 0
2, 607302, Control_c, 0, 64, 127
2, 607314, Note_on_c, 0, 51, 37
2, 607317, Note_on_c, 0, 61, 0
2, 607398, Note_on_c, 0, 51, 0
2, 607400, Note_on_c, 0, 58, 26
2, 607506, Note_on_c, 0, 58, 0
2, 607509, Note_on_c, 0, 75, 72
2, 607520, Note_on_c, 0, 61, 56
2, 607532, Note_on_c, 0, 67, 47
2, 607536, Note_on_c, 0, 44, 52
2, 607604, Note_on_c, 0, 44, 0
2, 607632, Note_on_c, 0, 67, 0
2, 607656, Note_on_c, 0, 61, 0
2, 607660, Note_on_c, 0, 58, 35
2, 607684, Note_on_c, 0, 75, 0
2, 607732, Note_on_c, 0, 58, 0
2, 607760, Note_on_c, 0, 51, 40
2, 607830, Note_on_c, 0, 51, 0
2, 607848, Note_on_c, 0, 58, 24
2, 607932, Control_c, 0, 64, 0
2, 607948, Note_on_c, 0, 58, 0
2, 607948, Note_on_c, 0, 75, 64
2, 607948, Note_on_c, 0, 61, 57
2, 607968, Note_on_c, 0, 44, 50
2, 607976, Note_on_c, 0, 67, 51
2, 608042, Note_on_c, 0, 44, 0
2, 608066, Note_on_c, 0, 58, 29
2, 608104, Note_on_c, 0, 75, 0
2, 608106, Control_c, 0, 64, 127
2, 608130, Note_on_c, 0, 61, 0
2, 608136, Note_on_c, 0, 58, 0
2, 608170, Note_on_c, 0, 67, 0
2, 608186, Note_on_c, 0, 51, 27
2, 608260, Note_on_c, 0, 51, 0
2, 608260, Note_on_c, 0, 58, 23
2, 608284, Note_on_c, 0, 59, 59
2, 608328, Note_on_c, 0, 59, 0
2, 608333, Note_on_c, 0, 58, 0
2, 608333, Note_on_c, 0, 68, 27
2, 608402, Note_on_c, 0, 44, 44
2, 608470, Control_c, 0, 64, 0
2, 608492, Note_on_c, 0, 75, 73
2, 608516, Note_on_c, 0, 56, 42
2, 608622, Note_on_c, 0, 56, 0
2, 608666, Note_on_c, 0, 51, 46
2, 608686, Control_c, 0, 64, 127
2, 608722, Note_on_c, 0, 44, 0
2, 608754, Note_on_c, 0, 51, 0
2, 608790, Note_on_c, 0, 56, 41
2, 608860, Note_on_c, 0, 56, 0
2, 608886, Note_on_c, 0, 44, 52
2, 608970, Note_on_c, 0, 44, 0
2, 608996, Note_on_c, 0, 56, 32
2, 608999, Note_on_c, 0, 75, 0
2, 609006, Note_on_c, 0, 68, 0
2, 609070, Note_on_c, 0, 56, 0
2, 609104, Note_on_c, 0, 51, 43
2, 609170, Note_on_c, 0, 51, 0
2, 609212, Note_on_c, 0, 56, 31
2, 609286, Note_on_c, 0, 56, 0
2, 609304, Note_on_c, 0, 44, 55
2, 609364, Note_on_c, 0, 44, 0
2, 609406, Note_on_c, 0, 56, 29
2, 609490, Note_on_c, 0, 56, 0
2, 609544, Note_on_c, 0, 51, 28
2, 609620, Note_on_c, 0, 51, 0
2, 609632, Note_on_c, 0, 56, 47
2, 609700, Note_on_c, 0, 56, 0
2, 609708, Note_on_c, 0, 83, 116
2, 609732, Note_on_c, 0, 44, 59
2, 609790, Note_on_c, 0, 44, 0
2, 609840, Note_on_c, 0, 56, 43
2, 609910, Note_on_c, 0, 56, 0
2, 609954, Note_on_c, 0, 51, 43
2, 610024, Note_on_c, 0, 51, 0
2, 610068, Note_on_c, 0, 83, 0
2, 610072, Note_on_c, 0, 56, 54
2, 610100, Note_on_c, 0, 80, 82
2, 610160, Note_on_c, 0, 80, 0
2, 610188, Note_on_c, 0, 56, 0
2, 610218, Note_on_c, 0, 44, 57
2, 610220, Note_on_c, 0, 79, 88
2, 610268, Control_c, 0, 64, 0
2, 610340, Note_on_c, 0, 58, 47
2, 610440, Note_on_c, 0, 58, 0
2, 610462, Note_on_c, 0, 44, 0
2, 610462, Note_on_c, 0, 51, 46
2, 610482, Control_c, 0, 64, 127
2, 610514, Note_on_c, 0, 79, 0
2, 610538, Note_on_c, 0, 51, 0
2, 610548, Note_on_c, 0, 58, 29
2, 610640, Note_on_c, 0, 58, 0
2, 610656, Note_on_c, 0, 87, 67
2, 610664, Note_on_c, 0, 73, 43
2, 610676, Note_on_c, 0, 44, 49
2, 610702, Note_on_c, 0, 79, 34
2, 610736, Note_on_c, 0, 44, 0
2, 610782, Note_on_c, 0, 79, 0
2, 610786, Note_on_c, 0, 58, 36
2, 610846, Note_on_c, 0, 73, 0
2, 610846, Note_on_c, 0, 87, 0
2, 610860, Note_on_c, 0, 58, 0
2, 610886, Note_on_c, 0, 51, 40
2, 610958, Note_on_c, 0, 51, 0
2, 610988, Note_on_c, 0, 58, 28
2, 611062, Note_on_c, 0, 58, 0
2, 611074, Note_on_c, 0, 87, 82
2, 611086, Note_on_c, 0, 73, 54
2, 611092, Note_on_c, 0, 79, 70
2, 611100, Note_on_c, 0, 44, 55
2, 611158, Note_on_c, 0, 44, 0
2, 611180, Note_on_c, 0, 79, 0
2, 611190, Note_on_c, 0, 58, 41
2, 611248, Note_on_c, 0, 73, 0
2, 611260, Note_on_c, 0, 58, 0
2, 611288, Note_on_c, 0, 87, 0
2, 611296, Note_on_c, 0, 51, 46
2, 611370, Note_on_c, 0, 51, 0
2, 611382, Note_on_c, 0, 58, 39
2, 611454, Note_on_c, 0, 58, 0
2, 611480, Note_on_c, 0, 87, 90
2, 611488, Note_on_c, 0, 44, 60
2, 611492, Note_on_c, 0, 73, 58
2, 611494, Note_on_c, 0, 79, 77
2, 611546, Note_on_c, 0, 44, 0
2, 611584, Note_on_c, 0, 58, 35
2, 611606, Note_on_c, 0, 73, 0
2, 611638, Note_on_c, 0, 87, 0
2, 611650, Note_on_c, 0, 58, 0
2, 611666, Note_on_c, 0, 51, 57
2, 611708, Note_on_c, 0, 79, 0
2, 611736, Note_on_c, 0, 51, 0
2, 611742, Note_on_c, 0, 58, 33
2, 611806, Note_on_c, 0, 58, 0
2, 611850, Control_c, 0, 64, 0
2, 611858, Note_on_c, 0, 44, 71
2, 611892, Note_on_c, 0, 71, 85
2, 611940, Note_on_c, 0, 71, 0
2, 611982, Note_on_c, 0, 80, 59
2, 611985, Note_on_c, 0, 56, 57
2, 612012, Note_on_c, 0, 44, 0
2, 612020, Control_c, 0, 64, 127
2, 612076, Note_on_c, 0, 87, 87
2, 612090, Note_on_c, 0, 56, 0
2, 612120, Note_on_c, 0, 51, 41
2, 612182, Note_on_c, 0, 51, 0
2, 612226, Note_on_c, 0, 56, 51
2, 612290, Note_on_c, 0, 56, 0
2, 612318, Note_on_c, 0, 44, 63
2, 612380, Note_on_c, 0, 44, 0
2, 612390, Note_on_c, 0, 80, 0
2, 612420, Note_on_c, 0, 56, 33
2, 612488, Note_on_c, 0, 56, 0
2, 612512, Note_on_c, 0, 87, 0
2, 612515, Note_on_c, 0, 51, 41
2, 612580, Note_on_c, 0, 56, 44
2, 612592, Note_on_c, 0, 51, 0
2, 612650, Note_on_c, 0, 56, 0
2, 612688, Note_on_c, 0, 73, 74
2, 612694, Note_on_c, 0, 44, 65
2, 612696, Control_c, 0, 64, 0
2, 612772, Note_on_c, 0, 73, 0
2, 612786, Note_on_c, 0, 79, 80
2, 612804, Note_on_c, 0, 58, 44
2, 612848, Note_on_c, 0, 44, 0
2, 612850, Control_c, 0, 64, 127
2, 612854, Note_on_c, 0, 87, 79
2, 612878, Note_on_c, 0, 58, 0
2, 612918, Note_on_c, 0, 51, 31
2, 612976, Note_on_c, 0, 79, 0
2, 612992, Note_on_c, 0, 51, 0
2, 613004, Note_on_c, 0, 58, 29
2, 613084, Note_on_c, 0, 58, 0
2, 613087, Note_on_c, 0, 44, 63
2, 613110, Note_on_c, 0, 87, 0
2, 613156, Note_on_c, 0, 44, 0
2, 613196, Note_on_c, 0, 58, 25
2, 613270, Note_on_c, 0, 58, 0
2, 613302, Note_on_c, 0, 51, 40
2, 613354, Note_on_c, 0, 58, 41
2, 613370, Note_on_c, 0, 51, 0
2, 613430, Note_on_c, 0, 58, 0
2, 613480, Control_c, 0, 64, 0
2, 613486, Note_on_c, 0, 44, 63
2, 613508, Note_on_c, 0, 71, 59
2, 613560, Note_on_c, 0, 71, 0
2, 613568, Note_on_c, 0, 44, 0
2, 613568, Note_on_c, 0, 80, 55
2, 613600, Note_on_c, 0, 56, 54
2, 613632, Control_c, 0, 64, 127
2, 613682, Note_on_c, 0, 56, 0
2, 613684, Note_on_c, 0, 87, 63
2, 613730, Note_on_c, 0, 51, 39
2, 613796, Note_on_c, 0, 51, 0
2, 613844, Note_on_c, 0, 56, 36
2, 613914, Note_on_c, 0, 56, 0
2, 613932, Note_on_c, 0, 44, 44
2, 613996, Note_on_c, 0, 44, 0
2, 614020, Note_on_c, 0, 56, 33
2, 614078, Note_on_c, 0, 87, 0
2, 614096, Note_on_c, 0, 56, 0
2, 614108, Note_on_c, 0, 80, 0
2, 614168, Note_on_c, 0, 51, 20
2, 614246, Note_on_c, 0, 51, 0
2, 614248, Note_on_c, 0, 56, 35
2, 614318, Note_on_c, 0, 56, 0
2, 614356, Control_c, 0, 64, 0
2, 614356, Note_on_c, 0, 44, 50
2, 614384, Note_on_c, 0, 73, 41
2, 614454, Note_on_c, 0, 73, 0
2, 614468, Note_on_c, 0, 58, 33
2, 614504, Note_on_c, 0, 79, 47
2, 614508, Control_c, 0, 64, 127
2, 614540, Note_on_c, 0, 44, 0
2, 614544, Note_on_c, 0, 58, 0
2, 614568, Note_on_c, 0, 87, 52
2, 614576, Note_on_c, 0, 79, 0
2, 614579, Note_on_c, 0, 51, 26
2, 614652, Note_on_c, 0, 58, 14
2, 614660, Note_on_c, 0, 51, 0
2, 614710, Note_on_c, 0, 87, 0
2, 614752, Note_on_c, 0, 44, 58
2, 614758, Note_on_c, 0, 58, 0
2, 614824, Note_on_c, 0, 44, 0
2, 614842, Note_on_c, 0, 58, 26
2, 614924, Note_on_c, 0, 58, 0
2, 614964, Note_on_c, 0, 51, 36
2, 615020, Note_on_c, 0, 58, 32
2, 615038, Note_on_c, 0, 51, 0
2, 615087, Note_on_c, 0, 58, 0
2, 615108, Control_c, 0, 64, 0
2, 615122, Note_on_c, 0, 59, 41
2, 615144, Note_on_c, 0, 44, 52
2, 615208, Note_on_c, 0, 68, 42
2, 615244, Note_on_c, 0, 44, 0
2, 615256, Note_on_c, 0, 56, 42
2, 615284, Note_on_c, 0, 68, 0
2, 615308, Control_c, 0, 64, 127
2, 615320, Note_on_c, 0, 56, 0
2, 615320, Note_on_c, 0, 59, 0
2, 615326, Note_on_c, 0, 63, 39
2, 615352, Note_on_c, 0, 51, 33
2, 615388, Note_on_c, 0, 63, 0
2, 615396, Note_on_c, 0, 68, 28
2, 615424, Note_on_c, 0, 51, 0
2, 615450, Note_on_c, 0, 56, 36
2, 615476, Note_on_c, 0, 68, 0
2, 615516, Note_on_c, 0, 59, 46
2, 615518, Note_on_c, 0, 56, 0
2, 615530, Note_on_c, 0, 44, 52
2, 615580, Note_on_c, 0, 59, 0
2, 615594, Note_on_c, 0, 44, 0
2, 615610, Note_on_c, 0, 56, 37
2, 615612, Note_on_c, 0, 68, 27
2, 615676, Note_on_c, 0, 68, 0
2, 615692, Note_on_c, 0, 56, 0
2, 615702, Note_on_c, 0, 63, 43
2, 615740, Note_on_c, 0, 51, 33
2, 615760, Note_on_c, 0, 63, 0
2, 615763, Note_on_c, 0, 68, 39
2, 615808, Note_on_c, 0, 51, 0
2, 615814, Note_on_c, 0, 56, 43
2, 615848, Note_on_c, 0, 68, 0
2, 615874, Note_on_c, 0, 56, 0
2, 615882, Note_on_c, 0, 59, 47
2, 615912, Note_on_c, 0, 44, 48
2, 615958, Note_on_c, 0, 68, 37
2, 615970, Note_on_c, 0, 59, 0
2, 615973, Note_on_c, 0, 44, 0
2, 615994, Note_on_c, 0, 56, 42
2, 616034, Note_on_c, 0, 68, 0
2, 616062, Note_on_c, 0, 56, 0
2, 616064, Note_on_c, 0, 63, 47
2, 616096, Note_on_c, 0, 51, 35
2, 616118, Note_on_c, 0, 63, 0
2, 616136, Note_on_c, 0, 68, 41
2, 616160, Note_on_c, 0, 51, 0
2, 616176, Note_on_c, 0, 56, 42
2, 616236, Note_on_c, 0, 56, 0
2, 616240, Note_on_c, 0, 68, 0
2, 616244, Note_on_c, 0, 44, 66
2, 616254, Note_on_c, 0, 59, 62
2, 616294, Note_on_c, 0, 44, 0
2, 616320, Note_on_c, 0, 56, 54
2, 616330, Note_on_c, 0, 68, 48
2, 616348, Note_on_c, 0, 59, 0
2, 616408, Note_on_c, 0, 56, 0
2, 616434, Note_on_c, 0, 63, 71
2, 616436, Note_on_c, 0, 51, 57
2, 616446, Note_on_c, 0, 68, 0
2, 616480, Note_on_c, 0, 56, 67
2, 616494, Note_on_c, 0, 51, 0
2, 616500, Note_on_c, 0, 63, 0
2, 616506, Note_on_c, 0, 68, 79
2, 616538, Note_on_c, 0, 56, 0
2, 616568, Control_c, 0, 64, 0
2, 616592, Note_on_c, 0, 44, 75
2, 616598, Note_on_c, 0, 68, 0
2, 616604, Note_on_c, 0, 60, 66
2, 616656, Note_on_c, 0, 44, 0
2, 616682, Note_on_c, 0, 66, 60
2, 616682, Note_on_c, 0, 54, 74
2, 616764, Note_on_c, 0, 54, 0
2, 616764, Note_on_c, 0, 60, 0
2, 616767, Control_c, 0, 64, 127
2, 616770, Note_on_c, 0, 63, 74
2, 616772, Note_on_c, 0, 51, 63
2, 616802, Note_on_c, 0, 66, 0
2, 616852, Note_on_c, 0, 51, 0
2, 616852, Note_on_c, 0, 54, 67
2, 616860, Note_on_c, 0, 63, 0
2, 616870, Note_on_c, 0, 66, 77
2, 616914, Note_on_c, 0, 54, 0
2, 616922, Note_on_c, 0, 66, 0
2, 616934, Note_on_c, 0, 44, 78
2, 616942, Note_on_c, 0, 60, 82
2, 616996, Note_on_c, 0, 44, 0
2, 617010, Note_on_c, 0, 54, 77
2, 617040, Note_on_c, 0, 66, 74
2, 617058, Note_on_c, 0, 60, 0
2, 617100, Note_on_c, 0, 66, 0
2, 617106, Note_on_c, 0, 54, 0
2, 617116, Note_on_c, 0, 51, 77
2, 617126, Note_on_c, 0, 63, 89
2, 617184, Note_on_c, 0, 63, 0
2, 617196, Note_on_c, 0, 54, 73
2, 617210, Note_on_c, 0, 51, 0
2, 617212, Note_on_c, 0, 66, 79
2, 617268, Note_on_c, 0, 54, 0
2, 617270, Note_on_c, 0, 66, 0
2, 617296, Note_on_c, 0, 44, 90
2, 617296, Note_on_c, 0, 60, 100
2, 617376, Note_on_c, 0, 54, 79
2, 617384, Note_on_c, 0, 66, 85
2, 617398, Note_on_c, 0, 60, 0
2, 617410, Note_on_c, 0, 44, 0
2, 617468, Note_on_c, 0, 63, 97
2, 617470, Note_on_c, 0, 54, 0
2, 617484, Note_on_c, 0, 66, 0
2, 617487, Note_on_c, 0, 51, 82
2, 617558, Note_on_c, 0, 66, 81
2, 617568, Note_on_c, 0, 54, 88
2, 617582, Note_on_c, 0, 63, 0
2, 617612, Note_on_c, 0, 51, 0
2, 617664, Note_on_c, 0, 54, 0
2, 617664, Note_on_c, 0, 60, 98
2, 617676, Note_on_c, 0, 66, 0
2, 617680, Note_on_c, 0, 44, 98
2, 617740, Note_on_c, 0, 66, 74
2, 617748, Note_on_c, 0, 54, 81
2, 617780, Note_on_c, 0, 60, 0
2, 617812, Note_on_c, 0, 44, 0
2, 617850, Note_on_c, 0, 63, 87
2, 617858, Note_on_c, 0, 54, 0
2, 617858, Note_on_c, 0, 51, 60
2, 617868, Note_on_c, 0, 66, 0
2, 617928, Note_on_c, 0, 66, 83
2, 617930, Note_on_c, 0, 44, 47
2, 617932, Note_on_c, 0, 54, 95
2, 617938, Note_on_c, 0, 63, 0
2, 617972, Note_on_c, 0, 54, 0
2, 617974, Note_on_c, 0, 51, 0
2, 617976, Note_on_c, 0, 66, 0
2, 617990, Note_on_c, 0, 44, 0
2, 618186, Note_on_c, 0, 53, 127
2, 618188, Note_on_c, 0, 61, 90
2, 618192, Note_on_c, 0, 56, 82
2, 618194, Note_on_c, 0, 37, 121
2, 618194, Note_on_c, 0, 65, 69
2, 618212, Note_on_c, 0, 53, 0
2, 618224, Note_on_c, 0, 61, 0
2, 618236, Note_on_c, 0, 56, 0
2, 618240, Note_on_c, 0, 65, 0
2, 618278, Note_on_c, 0, 37, 0
2, 618358, Note_on_c, 0, 49, 96
2, 618394, Note_on_c, 0, 44, 105
2, 618414, Note_on_c, 0, 53, 92
2, 618428, Control_c, 0, 64, 0
2, 618456, Note_on_c, 0, 44, 0
2, 618466, Note_on_c, 0, 49, 0
2, 618496, Note_on_c, 0, 56, 83
2, 618548, Note_on_c, 0, 53, 0
2, 618582, Note_on_c, 0, 37, 92
2, 618582, Note_on_c, 0, 61, 96
2, 618632, Note_on_c, 0, 37, 0
2, 618634, Note_on_c, 0, 56, 0
2, 618678, Note_on_c, 0, 53, 106
2, 618692, Note_on_c, 0, 61, 0
2, 618744, Note_on_c, 0, 44, 86
2, 618756, Note_on_c, 0, 56, 80
2, 618776, Note_on_c, 0, 53, 0
2, 618810, Note_on_c, 0, 44, 0
2, 618828, Note_on_c, 0, 61, 67
2, 618870, Note_on_c, 0, 56, 0
2, 618912, Note_on_c, 0, 65, 81
2, 618924, Note_on_c, 0, 37, 89
2, 618972, Note_on_c, 0, 65, 0
2, 618972, Note_on_c, 0, 61, 0
2, 618984, Note_on_c, 0, 37, 0
2, 619000, Note_on_c, 0, 56, 98
2, 619076, Note_on_c, 0, 44, 80
2, 619078, Note_on_c, 0, 61, 75
2, 619124, Note_on_c, 0, 56, 0
2, 619144, Note_on_c, 0, 44, 0
2, 619150, Note_on_c, 0, 65, 73
2, 619230, Note_on_c, 0, 61, 0
2, 619252, Note_on_c, 0, 37, 86
2, 619255, Note_on_c, 0, 68, 86
2, 619302, Note_on_c, 0, 65, 0
2, 619304, Note_on_c, 0, 37, 0
2, 619336, Note_on_c, 0, 61, 79
2, 619382, Note_on_c, 0, 68, 0
2, 619410, Note_on_c, 0, 44, 80
2, 619424, Note_on_c, 0, 65, 67
2, 619462, Note_on_c, 0, 61, 0
2, 619472, Note_on_c, 0, 44, 0
2, 619508, Note_on_c, 0, 68, 79
2, 619560, Note_on_c, 0, 65, 0
2, 619578, Note_on_c, 0, 37, 86
2, 619586, Note_on_c, 0, 73, 89
2, 619622, Note_on_c, 0, 68, 0
2, 619634, Note_on_c, 0, 37, 0
2, 619658, Note_on_c, 0, 65, 57
2, 619694, Note_on_c, 0, 73, 0
2, 619728, Note_on_c, 0, 68, 78
2, 619731, Note_on_c, 0, 44, 80
2, 619762, Note_on_c, 0, 65, 0
2, 619802, Note_on_c, 0, 44, 0
2, 619830, Note_on_c, 0, 73, 87
2, 619868, Note_on_c, 0, 68, 0
2, 619898, Note_on_c, 0, 37, 87
2, 619912, Note_on_c, 0, 77, 85
2, 619924, Note_on_c, 0, 73, 0
2, 619948, Note_on_c, 0, 77, 0
2, 619974, Note_on_c, 0, 68, 86
2, 619994, Note_on_c, 0, 37, 0
2, 620060, Note_on_c, 0, 44, 86
2, 620084, Note_on_c, 0, 73, 57
2, 620096, Note_on_c, 0, 68, 0
2, 620132, Note_on_c, 0, 77, 69
2, 620135, Note_on_c, 0, 73, 0
2, 620142, Note_on_c, 0, 44, 0
2, 620214, Note_on_c, 0, 37, 97
2, 620216, Note_on_c, 0, 80, 92
2, 620244, Note_on_c, 0, 77, 0
2, 620276, Note_on_c, 0, 73, 89
2, 620306, Note_on_c, 0, 80, 0
2, 620322, Note_on_c, 0, 37, 0
2, 620362, Note_on_c, 0, 77, 74
2, 620392, Note_on_c, 0, 44, 90
2, 620394, Note_on_c, 0, 73, 0
2, 620438, Note_on_c, 0, 80, 97
2, 620470, Note_on_c, 0, 80, 0
2, 620473, Note_on_c, 0, 44, 0
2, 620494, Note_on_c, 0, 77, 0
2, 620526, Note_on_c, 0, 80, 95
2, 620526, Note_on_c, 0, 49, 121
2, 620529, Note_on_c, 0, 85, 123
2, 620532, Note_on_c, 0, 73, 121
2, 620535, Note_on_c, 0, 37, 109
2, 620538, Note_on_c, 0, 77, 121
2, 620608, Control_c, 0, 64, 127
2, 620644, Note_on_c, 0, 85, 0
2, 620656, Note_on_c, 0, 49, 0
2, 620662, Note_on_c, 0, 73, 0
2, 620664, Note_on_c, 0, 80, 0
2, 620672, Note_on_c, 0, 77, 0
2, 620682, Note_on_c, 0, 37, 0
2, 620714, Note_on_c, 0, 44, 98
2, 620714, Note_on_c, 0, 73, 93
2, 620717, Note_on_c, 0, 80, 95
2, 620724, Note_on_c, 0, 85, 49
2, 620738, Note_on_c, 0, 77, 81
2, 620756, Note_on_c, 0, 80, 0
2, 620772, Note_on_c, 0, 77, 0
2, 620778, Note_on_c, 0, 85, 0
2, 620812, Note_on_c, 0, 73, 0
2, 620820, Note_on_c, 0, 44, 0
2, 620870, Control_c, 0, 64, 0
2, 620908, Note_on_c, 0, 35, 125
2, 620990, Note_on_c, 0, 35, 0
2, 620993, Note_on_c, 0, 49, 104
2, 621078, Note_on_c, 0, 44, 87
2, 621090, Note_on_c, 0, 53, 113
2, 621104, Note_on_c, 0, 49, 0
2, 621158, Note_on_c, 0, 56, 87
2, 621174, Note_on_c, 0, 44, 0
2, 621182, Note_on_c, 0, 53, 0
2, 621256, Note_on_c, 0, 61, 90
2, 621259, Note_on_c, 0, 35, 105
2, 621296, Note_on_c, 0, 56, 0
2, 621322, Note_on_c, 0, 35, 0
2, 621336, Note_on_c, 0, 53, 120
2, 621342, Note_on_c, 0, 61, 0
2, 621420, Note_on_c, 0, 44, 80
2, 621422, Note_on_c, 0, 56, 82
2, 621442, Note_on_c, 0, 53, 0
2, 621494, Note_on_c, 0, 61, 81
2, 621520, Note_on_c, 0, 44, 0
2, 621536, Note_on_c, 0, 56, 0
2, 621592, Note_on_c, 0, 65, 82
2, 621595, Note_on_c, 0, 35, 104
2, 621634, Note_on_c, 0, 61, 0
2, 621646, Note_on_c, 0, 65, 0
2, 621670, Note_on_c, 0, 35, 0
2, 621678, Note_on_c, 0, 56, 93
2, 621756, Note_on_c, 0, 61, 78
2, 621756, Note_on_c, 0, 44, 79
2, 621796, Note_on_c, 0, 56, 0
2, 621816, Note_on_c, 0, 65, 85
2, 621854, Note_on_c, 0, 44, 0
2, 621884, Note_on_c, 0, 61, 0
2, 621918, Note_on_c, 0, 68, 88
2, 621940, Note_on_c, 0, 35, 94
2, 621954, Note_on_c, 0, 65, 0
2, 621984, Note_on_c, 0, 61, 79
2, 621998, Note_on_c, 0, 35, 0
2, 622018, Note_on_c, 0, 68, 0
2, 622082, Note_on_c, 0, 65, 72
2, 622100, Note_on_c, 0, 44, 73
2, 622112, Note_on_c, 0, 61, 0
2, 622160, Note_on_c, 0, 68, 83
2, 622188, Note_on_c, 0, 44, 0
2, 622191, Note_on_c, 0, 65, 0
2, 622254, Note_on_c, 0, 73, 85
2, 622276, Note_on_c, 0, 35, 96
2, 622296, Note_on_c, 0, 68, 0
2, 622328, Note_on_c, 0, 35, 0
2, 622346, Note_on_c, 0, 73, 0
2, 622349, Note_on_c, 0, 65, 73
2, 622420, Note_on_c, 0, 68, 79
2, 622438, Note_on_c, 0, 44, 78
2, 622462, Note_on_c, 0, 65, 0
2, 622516, Note_on_c, 0, 73, 71
2, 622518, Note_on_c, 0, 44, 0
2, 622550, Note_on_c, 0, 68, 0
2, 622600, Note_on_c, 0, 77, 81
2, 622610, Note_on_c, 0, 35, 90
2, 622628, Note_on_c, 0, 73, 0
2, 622638, Note_on_c, 0, 77, 0
2, 622668, Note_on_c, 0, 35, 0
2, 622676, Note_on_c, 0, 68, 100
2, 622750, Note_on_c, 0, 73, 75
2, 622778, Note_on_c, 0, 44, 73
2, 622798, Note_on_c, 0, 68, 0
2, 622834, Note_on_c, 0, 77, 66
2, 622837, Note_on_c, 0, 44, 0
2, 622886, Note_on_c, 0, 73, 0
2, 622918, Note_on_c, 0, 80, 89
2, 622928, Note_on_c, 0, 35, 88
2, 622948, Note_on_c, 0, 77, 0
2, 622964, Note_on_c, 0, 80, 0
2, 622970, Note_on_c, 0, 73, 75
2, 623024, Note_on_c, 0, 35, 0
2, 623068, Note_on_c, 0, 77, 72
2, 623080, Note_on_c, 0, 44, 83
2, 623126, Note_on_c, 0, 80, 87
2, 623132, Note_on_c, 0, 44, 0
2, 623134, Note_on_c, 0, 73, 0
2, 623166, Note_on_c, 0, 80, 0
2, 623178, Note_on_c, 0, 77, 0
2, 623226, Note_on_c, 0, 47, 118
2, 623228, Note_on_c, 0, 77, 126
2, 623228, Note_on_c, 0, 80, 97
2, 623228, Note_on_c, 0, 73, 116
2, 623230, Note_on_c, 0, 85, 124
2, 623236, Note_on_c, 0, 35, 120
2, 623282, Control_c, 0, 64, 127
2, 623352, Note_on_c, 0, 35, 0
2, 623362, Note_on_c, 0, 85, 0
2, 623365, Note_on_c, 0, 73, 0
2, 623378, Note_on_c, 0, 80, 0
2, 623388, Note_on_c, 0, 77, 0
2, 623424, Note_on_c, 0, 85, 93
2, 623432, Note_on_c, 0, 73, 88
2, 623432, Note_on_c, 0, 80, 86
2, 623446, Note_on_c, 0, 77, 89
2, 623452, Note_on_c, 0, 44, 93
2, 623456, Note_on_c, 0, 85, 0
2, 623470, Note_on_c, 0, 47, 0
2, 623496, Note_on_c, 0, 77, 0
2, 623496, Note_on_c, 0, 80, 0
2, 623512, Note_on_c, 0, 44, 0
2, 623542, Note_on_c, 0, 73, 0
2, 623652, Control_c, 0, 64, 0
2, 623674, Note_on_c, 0, 33, 116
2, 623774, Note_on_c, 0, 49, 87
2, 623818, Note_on_c, 0, 33, 0
2, 623838, Note_on_c, 0, 45, 79
2, 623854, Note_on_c, 0, 54, 94
2, 623882, Note_on_c, 0, 49, 0
2, 623912, Control_c, 0, 64, 127
2, 623922, Note_on_c, 0, 57, 74
2, 623940, Note_on_c, 0, 45, 0
2, 623982, Note_on_c, 0, 54, 0
2, 624018, Note_on_c, 0, 33, 97
2, 624018, Note_on_c, 0, 61, 88
2, 624040, Note_on_c, 0, 57, 0
2, 624057, Note_on_c, 0, 61, 0
2, 624108, Note_on_c, 0, 61, 89
2, 624156, Note_on_c, 0, 33, 0
2, 624190, Note_on_c, 0, 45, 70
2, 624204, Note_on_c, 0, 66, 77
2, 624216, Note_on_c, 0, 61, 0
2, 624294, Note_on_c, 0, 45, 0
2, 624298, Note_on_c, 0, 69, 63
2, 624354, Note_on_c, 0, 33, 88
2, 624356, Note_on_c, 0, 73, 90
2, 624370, Note_on_c, 0, 66, 0
2, 624388, Note_on_c, 0, 73, 0
2, 624402, Note_on_c, 0, 69, 0
2, 624444, Note_on_c, 0, 73, 77
2, 624476, Note_on_c, 0, 33, 0
2, 624526, Note_on_c, 0, 78, 80
2, 624562, Note_on_c, 0, 45, 72
2, 624592, Note_on_c, 0, 73, 0
2, 624600, Note_on_c, 0, 81, 87
2, 624632, Note_on_c, 0, 45, 0
2, 624632, Note_on_c, 0, 78, 0
2, 624654, Note_on_c, 0, 81, 0
2, 624700, Note_on_c, 0, 78, 101
2, 624704, Note_on_c, 0, 33, 123
2, 624706, Note_on_c, 0, 73, 120
2, 624710, Note_on_c, 0, 85, 118
2, 624820, Note_on_c, 0, 85, 0
2, 624844, Note_on_c, 0, 33, 0
2, 624850, Note_on_c, 0, 73, 0
2, 624852, Note_on_c, 0, 78, 0
2, 624898, Note_on_c, 0, 85, 86
2, 624902, Note_on_c, 0, 78, 103
2, 624906, Note_on_c, 0, 73, 96
2, 624910, Note_on_c, 0, 45, 93
2, 624936, Note_on_c, 0, 85, 0
2, 624946, Note_on_c, 0, 78, 0
2, 625006, Note_on_c, 0, 73, 0
2, 625016, Note_on_c, 0, 45, 0
2, 625140, Note_on_c, 0, 29, 127
2, 625234, Control_c, 0, 64, 0
2, 625268, Note_on_c, 0, 49, 94
2, 625360, Note_on_c, 0, 29, 0
2, 625363, Note_on_c, 0, 56, 86
2, 625374, Note_on_c, 0, 41, 93
2, 625378, Note_on_c, 0, 49, 0
2, 625432, Note_on_c, 0, 59, 93
2, 625476, Control_c, 0, 64, 127
2, 625500, Note_on_c, 0, 41, 0
2, 625504, Note_on_c, 0, 56, 0
2, 625538, Note_on_c, 0, 61, 87
2, 625541, Note_on_c, 0, 29, 115
2, 625578, Note_on_c, 0, 61, 0
2, 625581, Note_on_c, 0, 59, 0
2, 625634, Note_on_c, 0, 61, 83
2, 625690, Note_on_c, 0, 29, 0
2, 625708, Note_on_c, 0, 41, 90
2, 625746, Note_on_c, 0, 68, 88
2, 625774, Note_on_c, 0, 61, 0
2, 625786, Control_c, 0, 64, 0
2, 625846, Note_on_c, 0, 41, 0
2, 625848, Note_on_c, 0, 71, 96
2, 625896, Note_on_c, 0, 29, 106
2, 625916, Note_on_c, 0, 68, 0
2, 625919, Note_on_c, 0, 73, 95
2, 625954, Note_on_c, 0, 73, 0
2, 625956, Control_c, 0, 64, 127
2, 625964, Note_on_c, 0, 71, 0
2, 626008, Note_on_c, 0, 73, 86
2, 626066, Note_on_c, 0, 29, 0
2, 626110, Note_on_c, 0, 80, 96
2, 626113, Note_on_c, 0, 41, 89
2, 626152, Note_on_c, 0, 73, 0
2, 626190, Note_on_c, 0, 83, 118
2, 626204, Note_on_c, 0, 41, 0
2, 626218, Control_c, 0, 64, 0
2, 626236, Note_on_c, 0, 83, 0
2, 626246, Note_on_c, 0, 80, 0
2, 626290, Note_on_c, 0, 41, 97
2, 626293, Note_on_c, 0, 73, 119
2, 626293, Note_on_c, 0, 80, 113
2, 626293, Note_on_c, 0, 85, 115
2, 626298, Note_on_c, 0, 29, 117
2, 626300, Note_on_c, 0, 83, 121
2, 626378, Note_on_c, 0, 29, 0
2, 626392, Note_on_c, 0, 41, 0
2, 626410, Note_on_c, 0, 73, 0
2, 626416, Control_c, 0, 64, 127
2, 626462, Note_on_c, 0, 85, 0
2, 626468, Note_on_c, 0, 83, 0
2, 626468, Note_on_c, 0, 80, 0
2, 626478, Control_c, 0, 64, 0
2, 626562, Note_on_c, 0, 80, 75
2, 626567, Note_on_c, 0, 73, 103
2, 626567, Note_on_c, 0, 83, 124
2, 626574, Note_on_c, 0, 85, 97
2, 626582, Note_on_c, 0, 29, 111
2, 626582, Note_on_c, 0, 41, 108
2, 626616, Note_on_c, 0, 29, 0
2, 626618, Note_on_c, 0, 41, 0
2, 626678, Control_c, 0, 64, 127
2, 626680, Note_on_c, 0, 73, 0
2, 626726, Note_on_c, 0, 85, 0
2, 626760, Note_on_c, 0, 83, 0
2, 626764, Note_on_c, 0, 80, 0
2, 626816, Control_c, 0, 64, 0
2, 626924, Note_on_c, 0, 85, 118
2, 626926, Note_on_c, 0, 73, 103
2, 626930, Note_on_c, 0, 81, 109
2, 626930, Note_on_c, 0, 78, 98
2, 626948, Note_on_c, 0, 42, 103
2, 626950, Note_on_c, 0, 30, 98
2, 626986, Note_on_c, 0, 30, 0
2, 626994, Note_on_c, 0, 42, 0
2, 627062, Control_c, 0, 64, 127
2, 627066, Note_on_c, 0, 73, 0
2, 627102, Note_on_c, 0, 85, 0
2, 627110, Note_on_c, 0, 81, 0
2, 627112, Note_on_c, 0, 78, 0
2, 627212, Note_on_c, 0, 61, 44
2, 627300, Note_on_c, 0, 61, 0
2, 627352, Note_on_c, 0, 57, 39
2, 627428, Note_on_c, 0, 57, 0
2, 627470, Note_on_c, 0, 61, 44
2, 627570, Note_on_c, 0, 61, 0
2, 627600, Note_on_c, 0, 73, 101
2, 627642, Note_on_c, 0, 54, 43
2, 627660, Control_c, 0, 64, 0
2, 627756, Note_on_c, 0, 61, 41
2, 627842, Note_on_c, 0, 61, 0
2, 627864, Note_on_c, 0, 57, 36
2, 627898, Note_on_c, 0, 54, 0
2, 627952, Note_on_c, 0, 57, 0
2, 627954, Control_c, 0, 64, 127
2, 627974, Note_on_c, 0, 61, 26
2, 628068, Note_on_c, 0, 61, 0
2, 628082, Note_on_c, 0, 54, 43
2, 628158, Note_on_c, 0, 54, 0
2, 628178, Note_on_c, 0, 61, 29
2, 628298, Note_on_c, 0, 61, 0
2, 628330, Note_on_c, 0, 57, 26
2, 628408, Note_on_c, 0, 61, 35
2, 628410, Note_on_c, 0, 57, 0
2, 628498, Note_on_c, 0, 69, 77
2, 628500, Note_on_c, 0, 61, 0
2, 628578, Note_on_c, 0, 54, 37
2, 628598, Control_c, 0, 64, 0
2, 628602, Note_on_c, 0, 73, 0
2, 628676, Note_on_c, 0, 54, 0
2, 628682, Note_on_c, 0, 61, 26
2, 628760, Note_on_c, 0, 61, 0
2, 628766, Note_on_c, 0, 66, 62
2, 628768, Control_c, 0, 64, 127
2, 628784, Note_on_c, 0, 57, 32
2, 628850, Note_on_c, 0, 69, 0
2, 628876, Note_on_c, 0, 65, 71
2, 628879, Note_on_c, 0, 57, 0
2, 628879, Note_on_c, 0, 66, 0
2, 628916, Note_on_c, 0, 61, 20
2, 628954, Note_on_c, 0, 66, 63
2, 628956, Note_on_c, 0, 65, 0
2, 629020, Note_on_c, 0, 61, 0
2, 629020, Note_on_c, 0, 68, 71
2, 629048, Note_on_c, 0, 66, 0
2, 629060, Control_c, 0, 64, 0
2, 629074, Note_on_c, 0, 56, 35
2, 629112, Note_on_c, 0, 66, 82
2, 629178, Note_on_c, 0, 68, 0
2, 629202, Note_on_c, 0, 61, 31
2, 629308, Note_on_c, 0, 61, 0
2, 629336, Control_c, 0, 64, 127
2, 629360, Note_on_c, 0, 56, 0
2, 629384, Note_on_c, 0, 59, 13
2, 629454, Note_on_c, 0, 61, 25
2, 629476, Note_on_c, 0, 59, 0
2, 629542, Note_on_c, 0, 61, 0
2, 629588, Note_on_c, 0, 65, 58
2, 629600, Note_on_c, 0, 56, 24
2, 629674, Control_c, 0, 64, 0
2, 629692, Note_on_c, 0, 61, 33
2, 629748, Note_on_c, 0, 56, 0
2, 629751, Note_on_c, 0, 66, 0
2, 629771, Note_on_c, 0, 61, 0
2, 629808, Note_on_c, 0, 59, 35
2, 629890, Note_on_c, 0, 59, 0
2, 629890, Control_c, 0, 64, 127
2, 629898, Note_on_c, 0, 61, 33
2, 629978, Note_on_c, 0, 61, 0
2, 630016, Note_on_c, 0, 56, 42
2, 630088, Note_on_c, 0, 56, 0
2, 630098, Note_on_c, 0, 65, 0
2, 630116, Note_on_c, 0, 61, 43
2, 630194, Note_on_c, 0, 61, 0
2, 630194, Note_on_c, 0, 65, 65
2, 630256, Note_on_c, 0, 59, 24
2, 630328, Note_on_c, 0, 59, 0
2, 630356, Note_on_c, 0, 61, 33
2, 630424, Note_on_c, 0, 73, 71
2, 630426, Note_on_c, 0, 61, 0
2, 630442, Control_c, 0, 64, 0
2, 630446, Note_on_c, 0, 56, 46
2, 630468, Note_on_c, 0, 65, 0
2, 630550, Note_on_c, 0, 61, 32
2, 630632, Note_on_c, 0, 56, 0
2, 630642, Control_c, 0, 64, 127
2, 630670, Note_on_c, 0, 61, 0
2, 630692, Note_on_c, 0, 59, 34
2, 630776, Note_on_c, 0, 59, 0
2, 630776, Note_on_c, 0, 65, 71
2, 630822, Note_on_c, 0, 61, 37
2, 630842, Note_on_c, 0, 65, 0
2, 630900, Note_on_c, 0, 61, 0
2, 630912, Note_on_c, 0, 68, 63
2, 630986, Note_on_c, 0, 73, 0
2, 631066, Note_on_c, 0, 61, 36
2, 631140, Note_on_c, 0, 61, 0
2, 631140, Note_on_c, 0, 57, 29
2, 631164, Control_c, 0, 64, 0
2, 631230, Note_on_c, 0, 57, 0
2, 631244, Note_on_c, 0, 61, 42
2, 631350, Note_on_c, 0, 57, 24
2, 631354, Note_on_c, 0, 61, 0
2, 631364, Control_c, 0, 64, 127
2, 631402, Note_on_c, 0, 66, 49
2, 631424, Note_on_c, 0, 57, 0
2, 631444, Note_on_c, 0, 61, 44
2, 631538, Note_on_c, 0, 61, 0
2, 631552, Note_on_c, 0, 68, 0
2, 631580, Note_on_c, 0, 57, 19
2, 631594, Control_c, 0, 64, 0
2, 631652, Note_on_c, 0, 57, 0
2, 631666, Note_on_c, 0, 61, 46
2, 631762, Note_on_c, 0, 61, 0
2, 631764, Control_c, 0, 64, 127
2, 631786, Note_on_c, 0, 57, 20
2, 631862, Note_on_c, 0, 57, 0
2, 631886, Note_on_c, 0, 61, 46
2, 631889, Note_on_c, 0, 66, 0
2, 631970, Note_on_c, 0, 66, 56
2, 631988, Note_on_c, 0, 61, 0
2, 632024, Note_on_c, 0, 57, 29
2, 632092, Note_on_c, 0, 57, 0
2, 632134, Note_on_c, 0, 61, 40
2, 632204, Note_on_c, 0, 73, 77
2, 632208, Note_on_c, 0, 61, 0
2, 632226, Note_on_c, 0, 57, 28
2, 632256, Control_c, 0, 64, 0
2, 632272, Note_on_c, 0, 66, 0
2, 632306, Note_on_c, 0, 57, 0
2, 632326, Note_on_c, 0, 61, 43
2, 632408, Control_c, 0, 64, 127
2, 632422, Note_on_c, 0, 61, 0
2, 632424, Note_on_c, 0, 57, 33
2, 632504, Note_on_c, 0, 57, 0
2, 632510, Note_on_c, 0, 66, 58
2, 632518, Note_on_c, 0, 61, 49
2, 632624, Control_c, 0, 64, 0
2, 632628, Note_on_c, 0, 69, 67
2, 632630, Note_on_c, 0, 61, 0
2, 632656, Note_on_c, 0, 73, 0
2, 632666, Note_on_c, 0, 66, 0
2, 632668, Note_on_c, 0, 53, 62
2, 632732, Note_on_c, 0, 53, 0
2, 632746, Note_on_c, 0, 61, 47
2, 632840, Control_c, 0, 64, 127
2, 632864, Note_on_c, 0, 53, 59
2, 632870, Note_on_c, 0, 61, 0
2, 632938, Note_on_c, 0, 53, 0
2, 632968, Note_on_c, 0, 61, 40
2, 633092, Note_on_c, 0, 61, 0
2, 633092, Note_on_c, 0, 68, 63
2, 633134, Note_on_c, 0, 53, 33
2, 633192, Note_on_c, 0, 53, 0
2, 633192, Note_on_c, 0, 61, 39
2, 633200, Note_on_c, 0, 69, 0
2, 633238, Control_c, 0, 64, 0
2, 633292, Note_on_c, 0, 53, 57
2, 633304, Note_on_c, 0, 61, 0
2, 633378, Note_on_c, 0, 53, 0
2, 633392, Control_c, 0, 64, 127
2, 633400, Note_on_c, 0, 61, 36
2, 633506, Note_on_c, 0, 61, 0
2, 633532, Note_on_c, 0, 53, 50
2, 633568, Note_on_c, 0, 68, 0
2, 633590, Note_on_c, 0, 53, 0
2, 633620, Note_on_c, 0, 61, 36
2, 633694, Note_on_c, 0, 68, 63
2, 633726, Note_on_c, 0, 61, 0
2, 633770, Note_on_c, 0, 53, 49
2, 633832, Note_on_c, 0, 53, 0
2, 633866, Note_on_c, 0, 61, 42
2, 633954, Note_on_c, 0, 73, 59
2, 633976, Control_c, 0, 64, 0
2, 633982, Note_on_c, 0, 61, 0
2, 634000, Note_on_c, 0, 68, 0
2, 634028, Note_on_c, 0, 53, 48
2, 634088, Note_on_c, 0, 53, 0
2, 634094, Note_on_c, 0, 61, 33
2, 634160, Control_c, 0, 64, 127
2, 634192, Note_on_c, 0, 61, 0
2, 634195, Note_on_c, 0, 53, 46
2, 634276, Note_on_c, 0, 53, 0
2, 634302, Note_on_c, 0, 61, 26
2, 634320, Note_on_c, 0, 73, 0
2, 634320, Note_on_c, 0, 68, 46
2, 634376, Note_on_c, 0, 61, 0
2, 634408, Note_on_c, 0, 68, 0
2, 634438, Control_c, 0, 64, 0
2, 634472, Note_on_c, 0, 69, 37
2, 634478, Note_on_c, 0, 54, 50
2, 634616, Note_on_c, 0, 73, 40
2, 634621, Note_on_c, 0, 69, 0
2, 634698, Control_c, 0, 64, 127
2, 634704, Note_on_c, 0, 69, 32
2, 634706, Note_on_c, 0, 73, 0
2, 634716, Note_on_c, 0, 54, 0
2, 634806, Note_on_c, 0, 73, 43
2, 634838, Note_on_c, 0, 69, 0
2, 634904, Note_on_c, 0, 73, 0
2, 634916, Note_on_c, 0, 66, 44
2, 634936, Note_on_c, 0, 61, 75
2, 635016, Note_on_c, 0, 66, 0
2, 635050, Note_on_c, 0, 73, 32
2, 635130, Note_on_c, 0, 73, 0
2, 635160, Control_c, 0, 64, 0
2, 635166, Note_on_c, 0, 69, 36
2, 635240, Note_on_c, 0, 69, 0
2, 635256, Note_on_c, 0, 73, 43
2, 635348, Note_on_c, 0, 73, 0
2, 635368, Note_on_c, 0, 66, 32
2, 635390, Control_c, 0, 64, 127
2, 635444, Note_on_c, 0, 66, 0
2, 635454, Note_on_c, 0, 73, 37
2, 635586, Note_on_c, 0, 73, 0
2, 635596, Note_on_c, 0, 69, 26
2, 635660, Note_on_c, 0, 73, 48
2, 635674, Note_on_c, 0, 69, 0
2, 635782, Note_on_c, 0, 73, 0
2, 635796, Note_on_c, 0, 66, 36
2, 635814, Note_on_c, 0, 57, 63
2, 635856, Note_on_c, 0, 61, 0
2, 635886, Note_on_c, 0, 66, 0
2, 635896, Note_on_c, 0, 73, 32
2, 636034, Note_on_c, 0, 73, 0
2, 636058, Note_on_c, 0, 69, 32
2, 636182, Note_on_c, 0, 69, 0
2, 636194, Note_on_c, 0, 73, 41
2, 636197, Note_on_c, 0, 54, 89
2, 636210, Note_on_c, 0, 57, 0
2, 636260, Note_on_c, 0, 54, 0
2, 636282, Note_on_c, 0, 73, 0
2, 636320, Note_on_c, 0, 68, 46
2, 636358, Note_on_c, 0, 54, 69
2, 636444, Note_on_c, 0, 73, 54
2, 636480, Control_c, 0, 64, 0
2, 636490, Note_on_c, 0, 68, 0
2, 636556, Note_on_c, 0, 73, 0
2, 636580, Note_on_c, 0, 71, 56
2, 636662, Note_on_c, 0, 73, 41
2, 636686, Note_on_c, 0, 71, 0
2, 636726, Control_c, 0, 64, 127
2, 636766, Note_on_c, 0, 73, 0
2, 636780, Note_on_c, 0, 68, 49
2, 636796, Note_on_c, 0, 53, 100
2, 636799, Note_on_c, 0, 54, 0
2, 636818, Control_c, 0, 64, 0
2, 636886, Note_on_c, 0, 73, 39
2, 636938, Note_on_c, 0, 68, 0
2, 637006, Note_on_c, 0, 71, 66
2, 637009, Note_on_c, 0, 73, 0
2, 637090, Note_on_c, 0, 73, 50
2, 637120, Note_on_c, 0, 71, 0
2, 637200, Note_on_c, 0, 53, 0
2, 637214, Note_on_c, 0, 68, 44
2, 637228, Note_on_c, 0, 73, 0
2, 637234, Control_c, 0, 64, 127
2, 637300, Note_on_c, 0, 73, 51
2, 637356, Note_on_c, 0, 68, 0
2, 637408, Note_on_c, 0, 53, 102
2, 637432, Note_on_c, 0, 71, 70
2, 637435, Note_on_c, 0, 73, 0
2, 637528, Note_on_c, 0, 73, 43
2, 637568, Note_on_c, 0, 71, 0
2, 637572, Control_c, 0, 64, 0
2, 637664, Note_on_c, 0, 68, 60
2, 637666, Note_on_c, 0, 73, 0
2, 637666, Note_on_c, 0, 61, 87
2, 637688, Note_on_c, 0, 53, 0
2, 637774, Note_on_c, 0, 73, 35
2, 637844, Note_on_c, 0, 68, 0
2, 637906, Note_on_c, 0, 73, 0
2, 637906, Note_on_c, 0, 71, 63
2, 638006, Note_on_c, 0, 73, 41
2, 638009, Note_on_c, 0, 71, 0
2, 638032, Note_on_c, 0, 53, 86
2, 638032, Control_c, 0, 64, 127
2, 638124, Control_c, 0, 64, 0
2, 638144, Note_on_c, 0, 53, 0
2, 638152, Note_on_c, 0, 73, 0
2, 638164, Note_on_c, 0, 66, 47
2, 638166, Note_on_c, 0, 56, 69
2, 638232, Note_on_c, 0, 61, 0
2, 638274, Note_on_c, 0, 73, 29
2, 638316, Note_on_c, 0, 66, 0
2, 638410, Note_on_c, 0, 73, 0
2, 638413, Note_on_c, 0, 69, 35
2, 638490, Note_on_c, 0, 73, 43
2, 638506, Note_on_c, 0, 69, 0
2, 638586, Control_c, 0, 64, 127
2, 638628, Note_on_c, 0, 73, 0
2, 638634, Note_on_c, 0, 66, 40
2, 638682, Note_on_c, 0, 54, 57
2, 638704, Note_on_c, 0, 56, 0
2, 638732, Note_on_c, 0, 66, 0
2, 638736, Note_on_c, 0, 73, 26
2, 638832, Control_c, 0, 64, 0
2, 638882, Note_on_c, 0, 73, 0
2, 638882, Note_on_c, 0, 69, 34
2, 638960, Note_on_c, 0, 73, 46
2, 638982, Note_on_c, 0, 69, 0
2, 639062, Control_c, 0, 64, 127
2, 639082, Note_on_c, 0, 66, 44
2, 639092, Note_on_c, 0, 73, 0
2, 639152, Note_on_c, 0, 54, 0
2, 639168, Note_on_c, 0, 66, 0
2, 639168, Note_on_c, 0, 73, 46
2, 639270, Note_on_c, 0, 54, 85
2, 639294, Note_on_c, 0, 69, 41
2, 639304, Note_on_c, 0, 73, 0
2, 639378, Note_on_c, 0, 73, 50
2, 639396, Note_on_c, 0, 69, 0
2, 639500, Note_on_c, 0, 61, 88
2, 639510, Note_on_c, 0, 73, 0
2, 639510, Note_on_c, 0, 66, 49
2, 639538, Note_on_c, 0, 54, 0
2, 639538, Control_c, 0, 64, 0
2, 639608, Note_on_c, 0, 73, 35
2, 639656, Note_on_c, 0, 66, 0
2, 639738, Note_on_c, 0, 73, 0
2, 639738, Note_on_c, 0, 69, 40
2, 639754, Control_c, 0, 64, 127
2, 639814, Note_on_c, 0, 61, 0
2, 639819, Note_on_c, 0, 54, 92
2, 639826, Note_on_c, 0, 69, 0
2, 639828, Note_on_c, 0, 73, 44
2, 639878, Note_on_c, 0, 54, 0
2, 639904, Note_on_c, 0, 73, 0
2, 639926, Note_on_c, 0, 66, 47
2, 639954, Note_on_c, 0, 54, 93
2, 640016, Control_c, 0, 64, 0
2, 640082, Note_on_c, 0, 74, 54
2, 640104, Note_on_c, 0, 66, 0
2, 640126, Note_on_c, 0, 54, 0
2, 640154, Note_on_c, 0, 74, 0
2, 640178, Note_on_c, 0, 69, 54
2, 640190, Note_on_c, 0, 54, 101
2, 640214, Control_c, 0, 64, 127
2, 640316, Note_on_c, 0, 74, 52
2, 640330, Note_on_c, 0, 69, 0
2, 640440, Note_on_c, 0, 74, 0
2, 640456, Note_on_c, 0, 66, 58
2, 640462, Note_on_c, 0, 54, 0
2, 640464, Note_on_c, 0, 62, 105
2, 640506, Control_c, 0, 64, 0
2, 640622, Note_on_c, 0, 74, 66
2, 640668, Note_on_c, 0, 66, 0
2, 640722, Control_c, 0, 64, 127
2, 640750, Note_on_c, 0, 74, 0
2, 640756, Note_on_c, 0, 69, 43
2, 640792, Note_on_c, 0, 54, 90
2, 640798, Note_on_c, 0, 62, 0
2, 640832, Note_on_c, 0, 74, 65
2, 640838, Note_on_c, 0, 54, 0
2, 640838, Note_on_c, 0, 69, 0
2, 640890, Note_on_c, 0, 74, 0
2, 640924, Note_on_c, 0, 54, 93
2, 640932, Note_on_c, 0, 69, 56
2, 641048, Note_on_c, 0, 54, 0
2, 641053, Note_on_c, 0, 74, 72
2, 641066, Note_on_c, 0, 69, 0
2, 641152, Note_on_c, 0, 74, 0
2, 641160, Note_on_c, 0, 72, 72
2, 641163, Note_on_c, 0, 54, 96
2, 641268, Note_on_c, 0, 74, 71
2, 641306, Note_on_c, 0, 72, 0
2, 641382, Control_c, 0, 64, 0
2, 641446, Note_on_c, 0, 69, 56
2, 641454, Note_on_c, 0, 74, 0
2, 641458, Note_on_c, 0, 62, 86
2, 641488, Note_on_c, 0, 54, 0
2, 641588, Note_on_c, 0, 74, 43
2, 641706, Control_c, 0, 64, 127
2, 641714, Note_on_c, 0, 72, 56
2, 641716, Note_on_c, 0, 74, 0
2, 641766, Note_on_c, 0, 69, 0
2, 641768, Note_on_c, 0, 62, 0
2, 641834, Note_on_c, 0, 74, 35
2, 641838, Note_on_c, 0, 72, 0
2, 641870, Note_on_c, 0, 54, 66
2, 641968, Note_on_c, 0, 74, 0
2, 641976, Note_on_c, 0, 67, 54
2, 642013, Control_c, 0, 64, 0
2, 642024, Note_on_c, 0, 54, 0
2, 642029, Note_on_c, 0, 55, 62
2, 642156, Note_on_c, 0, 74, 42
2, 642228, Note_on_c, 0, 74, 0
2, 642268, Note_on_c, 0, 67, 0
2, 642274, Note_on_c, 0, 71, 52
2, 642288, Control_c, 0, 64, 127
2, 642354, Note_on_c, 0, 71, 0
2, 642357, Note_on_c, 0, 55, 0
2, 642418, Note_on_c, 0, 74, 46
2, 642486, Note_on_c, 0, 74, 0
2, 642562, Note_on_c, 0, 67, 35
2, 642598, Note_on_c, 0, 50, 81
2, 642716, Note_on_c, 0, 67, 0
2, 642720, Note_on_c, 0, 74, 43
2, 642784, Note_on_c, 0, 74, 0
2, 642840, Note_on_c, 0, 71, 50
2, 642843, Control_c, 0, 64, 0
2, 642912, Note_on_c, 0, 71, 0
2, 642956, Note_on_c, 0, 74, 48
2, 643016, Note_on_c, 0, 74, 0
2, 643056, Control_c, 0, 64, 127
2, 643070, Note_on_c, 0, 67, 16
2, 643152, Note_on_c, 0, 74, 36
2, 643182, Note_on_c, 0, 67, 0
2, 643230, Note_on_c, 0, 74, 0
2, 643276, Note_on_c, 0, 71, 41
2, 643346, Note_on_c, 0, 71, 0
2, 643358, Note_on_c, 0, 74, 37
2, 643440, Note_on_c, 0, 74, 0
2, 643474, Note_on_c, 0, 67, 47
2, 643477, Note_on_c, 0, 47, 92
2, 643562, Note_on_c, 0, 50, 0
2, 643580, Control_c, 0, 64, 0
2, 643592, Note_on_c, 0, 67, 0
2, 643612, Note_on_c, 0, 74, 41
2, 643686, Note_on_c, 0, 74, 0
2, 643732, Note_on_c, 0, 71, 51
2, 643748, Control_c, 0, 64, 127
2, 643806, Note_on_c, 0, 71, 0
2, 643822, Note_on_c, 0, 47, 0
2, 643822, Note_on_c, 0, 43, 87
2, 643840, Note_on_c, 0, 74, 40
2, 643866, Note_on_c, 0, 43, 0
2, 643902, Note_on_c, 0, 74, 0
2, 643926, Note_on_c, 0, 69, 47
2, 643942, Note_on_c, 0, 43, 72
2, 644036, Note_on_c, 0, 69, 0
2, 644052, Note_on_c, 0, 74, 29
2, 644102, Control_c, 0, 64, 0
2, 644144, Note_on_c, 0, 74, 0
2, 644190, Note_on_c, 0, 72, 41
2, 644268, Note_on_c, 0, 72, 0
2, 644290, Note_on_c, 0, 74, 37
2, 644348, Control_c, 0, 64, 127
2, 644374, Note_on_c, 0, 74, 0
2, 644400, Note_on_c, 0, 69, 37
2, 644424, Note_on_c, 0, 42, 64
2, 644464, Note_on_c, 0, 43, 0
2, 644502, Note_on_c, 0, 69, 0
2, 644514, Note_on_c, 0, 74, 34
2, 644564, Control_c, 0, 64, 0
2, 644610, Note_on_c, 0, 74, 0
2, 644642, Note_on_c, 0, 72, 39
2, 644726, Note_on_c, 0, 72, 0
2, 644728, Note_on_c, 0, 74, 43
2, 644846, Note_on_c, 0, 74, 0
2, 644848, Note_on_c, 0, 69, 44
2, 644966, Note_on_c, 0, 69, 0
2, 644968, Note_on_c, 0, 74, 41
2, 644978, Control_c, 0, 64, 127
2, 645022, Note_on_c, 0, 42, 0
2, 645110, Note_on_c, 0, 72, 59
2, 645116, Note_on_c, 0, 74, 0
2, 645120, Note_on_c, 0, 42, 73
2, 645232, Note_on_c, 0, 74, 41
2, 645246, Note_on_c, 0, 72, 0
2, 645368, Note_on_c, 0, 69, 49
2, 645371, Note_on_c, 0, 50, 97
2, 645380, Note_on_c, 0, 74, 0
2, 645422, Note_on_c, 0, 42, 0
2, 645424, Control_c, 0, 64, 0
2, 645478, Note_on_c, 0, 74, 43
2, 645608, Control_c, 0, 64, 127
2, 645618, Note_on_c, 0, 72, 58
2, 645620, Note_on_c, 0, 74, 0
2, 645644, Note_on_c, 0, 69, 0
2, 645674, Note_on_c, 0, 50, 0
2, 645706, Note_on_c, 0, 42, 80
2, 645706, Note_on_c, 0, 74, 55
2, 645708, Note_on_c, 0, 72, 0
2, 645824, Note_on_c, 0, 67, 54
2, 645827, Note_on_c, 0, 74, 0
2, 645834, Note_on_c, 0, 45, 92
2, 645892, Note_on_c, 0, 42, 0
2, 645900, Control_c, 0, 64, 0
2, 645932, Note_on_c, 0, 74, 41
2, 646022, Note_on_c, 0, 67, 0
2, 646064, Note_on_c, 0, 74, 0
2, 646070, Note_on_c, 0, 71, 57
2, 646156, Note_on_c, 0, 74, 49
2, 646159, Note_on_c, 0, 71, 0
2, 646222, Control_c, 0, 64, 127
2, 646298, Note_on_c, 0, 74, 0
2, 646314, Note_on_c, 0, 67, 50
2, 646356, Note_on_c, 0, 43, 85
2, 646394, Note_on_c, 0, 45, 0
2, 646432, Note_on_c, 0, 67, 0
2, 646438, Note_on_c, 0, 74, 35
2, 646530, Control_c, 0, 64, 0
2, 646564, Note_on_c, 0, 74, 0
2, 646582, Note_on_c, 0, 71, 54
2, 646658, Note_on_c, 0, 71, 0
2, 646668, Note_on_c, 0, 74, 42
2, 646760, Control_c, 0, 64, 127
2, 646796, Note_on_c, 0, 74, 0
2, 646802, Note_on_c, 0, 67, 48
2, 646890, Note_on_c, 0, 43, 0
2, 646894, Note_on_c, 0, 74, 42
2, 646936, Note_on_c, 0, 67, 0
2, 647022, Note_on_c, 0, 43, 89
2, 647028, Note_on_c, 0, 71, 67
2, 647032, Note_on_c, 0, 74, 0
2, 647134, Note_on_c, 0, 74, 39
2, 647150, Note_on_c, 0, 71, 0
2, 647302, Note_on_c, 0, 74, 0
2, 647310, Note_on_c, 0, 67, 51
2, 647364, Note_on_c, 0, 50, 97
2, 647404, Note_on_c, 0, 43, 0
2, 647420, Control_c, 0, 64, 0
2, 647456, Note_on_c, 0, 74, 39
2, 647562, Note_on_c, 0, 67, 0
2, 647610, Note_on_c, 0, 74, 0
2, 647634, Note_on_c, 0, 71, 52
2, 647650, Control_c, 0, 64, 127
2, 647766, Note_on_c, 0, 42, 89
2, 647776, Note_on_c, 0, 71, 0
2, 647776, Note_on_c, 0, 74, 48
2, 647810, Note_on_c, 0, 50, 0
2, 647840, Note_on_c, 0, 42, 0
2, 647858, Note_on_c, 0, 74, 0
2, 647886, Note_on_c, 0, 68, 58
2, 647912, Note_on_c, 0, 42, 89
2, 648052, Note_on_c, 0, 74, 41
2, 648112, Control_c, 0, 64, 0
2, 648120, Note_on_c, 0, 68, 0
2, 648170, Note_on_c, 0, 74, 0
2, 648184, Note_on_c, 0, 71, 59
2, 648266, Note_on_c, 0, 74, 56
2, 648282, Note_on_c, 0, 71, 0
2, 648328, Control_c, 0, 64, 127
2, 648364, Note_on_c, 0, 68, 52
2, 648398, Note_on_c, 0, 41, 87
2, 648426, Note_on_c, 0, 74, 0
2, 648470, Note_on_c, 0, 42, 0
2, 648474, Note_on_c, 0, 73, 43
2, 648558, Note_on_c, 0, 68, 0
2, 648582, Note_on_c, 0, 73, 0
2, 648592, Note_on_c, 0, 71, 63
2, 648690, Note_on_c, 0, 73, 40
2, 648696, Control_c, 0, 64, 0
2, 648738, Note_on_c, 0, 71, 0
2, 648798, Note_on_c, 0, 68, 62
2, 648832, Note_on_c, 0, 73, 0
2, 648896, Control_c, 0, 64, 127
2, 648930, Note_on_c, 0, 73, 35
2, 649006, Note_on_c, 0, 41, 0
2, 649024, Note_on_c, 0, 68, 0
2, 649076, Note_on_c, 0, 73, 0
2, 649078, Note_on_c, 0, 71, 70
2, 649092, Note_on_c, 0, 41, 95
2, 649202, Note_on_c, 0, 73, 41
2, 649238, Note_on_c, 0, 71, 0
2, 649336, Note_on_c, 0, 68, 70
2, 649342, Note_on_c, 0, 49, 100
2, 649355, Note_on_c, 0, 73, 0
2, 649376, Note_on_c, 0, 41, 0
2, 649418, Control_c, 0, 64, 0
2, 649452, Note_on_c, 0, 73, 40
2, 649502, Note_on_c, 0, 68, 0
2, 649566, Note_on_c, 0, 71, 86
2, 649572, Control_c, 0, 64, 127
2, 649590, Note_on_c, 0, 73, 0
2, 649662, Note_on_c, 0, 73, 63
2, 649678, Note_on_c, 0, 49, 0
2, 649684, Note_on_c, 0, 41, 103
2, 649700, Note_on_c, 0, 71, 0
2, 649766, Note_on_c, 0, 66, 74
2, 649790, Note_on_c, 0, 73, 0
2, 649794, Note_on_c, 0, 42, 98
2, 649812, Note_on_c, 0, 41, 0
2, 649820, Control_c, 0, 64, 0
2, 649894, Note_on_c, 0, 73, 50
2, 649954, Note_on_c, 0, 66, 0
2, 649984, Note_on_c, 0, 42, 0
2, 650018, Note_on_c, 0, 69, 58
2, 650030, Note_on_c, 0, 73, 0
2, 650032, Control_c, 0, 64, 127
2, 650038, Note_on_c, 0, 42, 97
2, 650132, Note_on_c, 0, 73, 57
2, 650160, Note_on_c, 0, 69, 0
2, 650246, Note_on_c, 0, 66, 73
2, 650264, Note_on_c, 0, 73, 0
2, 650267, Note_on_c, 0, 45, 101
2, 650290, Note_on_c, 0, 42, 0
2, 650362, Note_on_c, 0, 73, 56
2, 650418, Note_on_c, 0, 66, 0
2, 650472, Note_on_c, 0, 42, 98
2, 650476, Note_on_c, 0, 69, 77
2, 650504, Note_on_c, 0, 73, 0
2, 650528, Note_on_c, 0, 45, 0
2, 650572, Note_on_c, 0, 73, 75
2, 650612, Note_on_c, 0, 69, 0
2, 650680, Note_on_c, 0, 42, 0
2, 650690, Note_on_c, 0, 66, 78
2, 650690, Note_on_c, 0, 38, 113
2, 650693, Control_c, 0, 64, 0
2, 650722, Note_on_c, 0, 73, 0
2, 650826, Note_on_c, 0, 78, 88
2, 650856, Note_on_c, 0, 66, 0
2, 650868, Note_on_c, 0, 38, 0
2, 650908, Control_c, 0, 64, 127
2, 650926, Note_on_c, 0, 38, 104
2, 650932, Note_on_c, 0, 69, 72
2, 650966, Note_on_c, 0, 78, 0
2, 651044, Note_on_c, 0, 78, 62
2, 651084, Note_on_c, 0, 69, 0
2, 651096, Note_on_c, 0, 38, 0
2, 651136, Note_on_c, 0, 66, 86
2, 651142, Note_on_c, 0, 42, 103
2, 651166, Note_on_c, 0, 78, 0
2, 651248, Note_on_c, 0, 78, 65
2, 651251, Note_on_c, 0, 66, 0
2, 651302, Note_on_c, 0, 42, 0
2, 651378, Note_on_c, 0, 38, 112
2, 651381, Note_on_c, 0, 69, 80
2, 651404, Note_on_c, 0, 78, 0
2, 651502, Note_on_c, 0, 78, 59
2, 651532, Note_on_c, 0, 69, 0
2, 651535, Note_on_c, 0, 38, 0
2, 651652, Note_on_c, 0, 66, 72
2, 651655, Note_on_c, 0, 78, 0
2, 651672, Note_on_c, 0, 36, 124
2, 651722, Control_c, 0, 64, 0
2, 651874, Note_on_c, 0, 78, 78
2, 651908, Note_on_c, 0, 66, 0
2, 651980, Control_c, 0, 64, 127
2, 652006, Note_on_c, 0, 68, 77
2, 652032, Note_on_c, 0, 75, 63
2, 652056, Note_on_c, 0, 78, 0
2, 652130, Note_on_c, 0, 68, 0
2, 652136, Note_on_c, 0, 78, 66
2, 652176, Note_on_c, 0, 75, 0
2, 652256, Note_on_c, 0, 66, 74
2, 652262, Note_on_c, 0, 78, 0
2, 652342, Note_on_c, 0, 66, 0
2, 652348, Note_on_c, 0, 78, 65
2, 652474, Note_on_c, 0, 68, 69
2, 652474, Note_on_c, 0, 75, 73
2, 652480, Note_on_c, 0, 78, 0
2, 652552, Note_on_c, 0, 36, 0
2, 652574, Note_on_c, 0, 68, 0
2, 652584, Note_on_c, 0, 78, 69
2, 652618, Note_on_c, 0, 75, 0
2, 652680, Note_on_c, 0, 66, 82
2, 652702, Note_on_c, 0, 78, 0
2, 652770, Note_on_c, 0, 78, 77
2, 652786, Note_on_c, 0, 66, 0
2, 652890, Note_on_c, 0, 36, 101
2, 652896, Note_on_c, 0, 68, 78
2, 652906, Note_on_c, 0, 75, 70
2, 652914, Note_on_c, 0, 78, 0
2, 652990, Note_on_c, 0, 68, 0
2, 653004, Note_on_c, 0, 78, 64
2, 653062, Note_on_c, 0, 75, 0
2, 653094, Note_on_c, 0, 39, 98
2, 653104, Note_on_c, 0, 66, 87
2, 653110, Note_on_c, 0, 78, 0
2, 653112, Note_on_c, 0, 36, 0
2, 653194, Note_on_c, 0, 78, 70
2, 653206, Note_on_c, 0, 66, 0
2, 653276, Note_on_c, 0, 39, 0
2, 653312, Note_on_c, 0, 36, 106
2, 653315, Note_on_c, 0, 68, 82
2, 653324, Note_on_c, 0, 78, 0
2, 653327, Note_on_c, 0, 75, 67
2, 653394, Note_on_c, 0, 78, 77
2, 653412, Note_on_c, 0, 36, 0
2, 653434, Note_on_c, 0, 68, 0
2, 653474, Note_on_c, 0, 75, 0
2, 653506, Note_on_c, 0, 78, 0
2, 653520, Control_c, 0, 64, 0
2, 653554, Note_on_c, 0, 64, 105
2, 653562, Note_on_c, 0, 37, 115
2, 653588, Note_on_c, 0, 73, 18
2, 653652, Note_on_c, 0, 73, 0
2, 653692, Note_on_c, 0, 76, 74
2, 653730, Note_on_c, 0, 37, 0
2, 653732, Note_on_c, 0, 64, 0
2, 653750, Control_c, 0, 64, 127
2, 653796, Note_on_c, 0, 73, 87
2, 653808, Note_on_c, 0, 37, 85
2, 653818, Note_on_c, 0, 76, 0
2, 653912, Note_on_c, 0, 76, 51
2, 653930, Note_on_c, 0, 37, 0
2, 653952, Note_on_c, 0, 73, 0
2, 654014, Note_on_c, 0, 40, 113
2, 654022, Note_on_c, 0, 76, 0
2, 654022, Note_on_c, 0, 64, 92
2, 654094, Note_on_c, 0, 64, 0
2, 654110, Note_on_c, 0, 76, 59
2, 654126, Note_on_c, 0, 40, 0
2, 654202, Note_on_c, 0, 37, 102
2, 654208, Note_on_c, 0, 73, 86
2, 654232, Note_on_c, 0, 76, 0
2, 654292, Note_on_c, 0, 37, 0
2, 654306, Note_on_c, 0, 76, 70
2, 654348, Note_on_c, 0, 73, 0
2, 654382, Control_c, 0, 64, 0
2, 654412, Note_on_c, 0, 33, 112
2, 654418, Note_on_c, 0, 64, 102
2, 654424, Note_on_c, 0, 76, 0
2, 654518, Note_on_c, 0, 76, 63
2, 654530, Note_on_c, 0, 64, 0
2, 654536, Note_on_c, 0, 33, 0
2, 654596, Control_c, 0, 64, 127
2, 654616, Note_on_c, 0, 73, 80
2, 654622, Note_on_c, 0, 76, 0
2, 654622, Note_on_c, 0, 33, 95
2, 654720, Note_on_c, 0, 76, 57
2, 654754, Note_on_c, 0, 33, 0
2, 654762, Note_on_c, 0, 73, 0
2, 654822, Note_on_c, 0, 37, 103
2, 654824, Note_on_c, 0, 64, 95
2, 654826, Note_on_c, 0, 76, 0
2, 654894, Note_on_c, 0, 64, 0
2, 654908, Note_on_c, 0, 76, 60
2, 654954, Note_on_c, 0, 37, 0
2, 655020, Note_on_c, 0, 73, 80
2, 655022, Note_on_c, 0, 76, 0
2, 655024, Note_on_c, 0, 33, 109
2, 655108, Note_on_c, 0, 76, 71
2, 655124, Note_on_c, 0, 33, 0
2, 655136, Note_on_c, 0, 73, 0
2, 655196, Control_c, 0, 64, 0
2, 655236, Note_on_c, 0, 30, 115
2, 655239, Note_on_c, 0, 63, 100
2, 655296, Note_on_c, 0, 76, 0
2, 655350, Note_on_c, 0, 63, 0
2, 655353, Note_on_c, 0, 75, 83
2, 655386, Note_on_c, 0, 30, 0
2, 655410, Control_c, 0, 64, 127
2, 655460, Note_on_c, 0, 30, 89
2, 655460, Note_on_c, 0, 73, 80
2, 655474, Note_on_c, 0, 75, 0
2, 655550, Note_on_c, 0, 75, 75
2, 655592, Note_on_c, 0, 73, 0
2, 655596, Note_on_c, 0, 30, 0
2, 655660, Note_on_c, 0, 63, 94
2, 655678, Note_on_c, 0, 75, 0
2, 655678, Note_on_c, 0, 33, 101
2, 655762, Note_on_c, 0, 75, 67
2, 655766, Note_on_c, 0, 63, 0
2, 655806, Note_on_c, 0, 33, 0
2, 655860, Note_on_c, 0, 30, 101
2, 655862, Note_on_c, 0, 73, 83
2, 655882, Note_on_c, 0, 75, 0
2, 655952, Note_on_c, 0, 75, 78
2, 655974, Note_on_c, 0, 30, 0
2, 655980, Note_on_c, 0, 73, 0
2, 656056, Control_c, 0, 64, 0
2, 656058, Note_on_c, 0, 63, 97
2, 656066, Note_on_c, 0, 75, 0
2, 656070, Note_on_c, 0, 31, 124
2, 656162, Note_on_c, 0, 63, 0
2, 656164, Note_on_c, 0, 75, 71
2, 656188, Note_on_c, 0, 31, 0
2, 656240, Control_c, 0, 64, 127
2, 656272, Note_on_c, 0, 31, 101
2, 656274, Note_on_c, 0, 73, 82
2, 656290, Note_on_c, 0, 75, 0
2, 656362, Note_on_c, 0, 75, 81
2, 656400, Note_on_c, 0, 73, 0
2, 656474, Note_on_c, 0, 31, 0
2, 656484, Note_on_c, 0, 63, 97
2, 656486, Note_on_c, 0, 34, 101
2, 656500, Note_on_c, 0, 75, 0
2, 656574, Note_on_c, 0, 75, 74
2, 656612, Note_on_c, 0, 63, 0
2, 656636, Note_on_c, 0, 34, 0
2, 656722, Note_on_c, 0, 31, 112
2, 656730, Note_on_c, 0, 73, 78
2, 656740, Note_on_c, 0, 75, 0
2, 656820, Note_on_c, 0, 31, 0
2, 656828, Note_on_c, 0, 75, 74
2, 656922, Note_on_c, 0, 73, 0
2, 656932, Note_on_c, 0, 75, 0
2, 657008, Control_c, 0, 64, 0
2, 657022, Note_on_c, 0, 75, 83
2, 657024, Note_on_c, 0, 72, 97
2, 657027, Note_on_c, 0, 32, 101
2, 657032, Note_on_c, 0, 63, 97
2, 657212, Note_on_c, 0, 44, 69
2, 657254, Note_on_c, 0, 32, 0
2, 657300, Control_c, 0, 64, 127
2, 657328, Note_on_c, 0, 44, 0
2, 657340, Note_on_c, 0, 32, 47
2, 657374, Note_on_c, 0, 63, 0
2, 657402, Note_on_c, 0, 75, 0
2, 657468, Note_on_c, 0, 32, 0
2, 657474, Note_on_c, 0, 72, 0
2, 657474, Note_on_c, 0, 44, 77
2, 657602, Note_on_c, 0, 44, 0
2, 657622, Note_on_c, 0, 32, 58
2, 657654, Note_on_c, 0, 68, 110
2, 657752, Note_on_c, 0, 32, 0
2, 657758, Note_on_c, 0, 44, 60
2, 657874, Note_on_c, 0, 32, 34
2, 657876, Note_on_c, 0, 44, 0
2, 657988, Note_on_c, 0, 32, 0
2, 658006, Note_on_c, 0, 44, 56
2, 658098, Note_on_c, 0, 44, 0
2, 658112, Note_on_c, 0, 32, 49
2, 658228, Note_on_c, 0, 32, 0
2, 658236, Note_on_c, 0, 44, 66
2, 658334, Note_on_c, 0, 32, 42
2, 658346, Note_on_c, 0, 44, 0
2, 658452, Note_on_c, 0, 44, 55
2, 658460, Note_on_c, 0, 32, 0
2, 658570, Note_on_c, 0, 32, 44
2, 658572, Note_on_c, 0, 69, 87
2, 658575, Note_on_c, 0, 44, 0
2, 658590, Control_c, 0, 64, 0
2, 658634, Note_on_c, 0, 68, 0
2, 658712, Note_on_c, 0, 32, 0
2, 658712, Note_on_c, 0, 44, 62
2, 658790, Control_c, 0, 64, 127
2, 658818, Note_on_c, 0, 32, 42
2, 658821, Note_on_c, 0, 68, 96
2, 658828, Note_on_c, 0, 44, 0
2, 658898, Note_on_c, 0, 69, 0
2, 658940, Note_on_c, 0, 32, 0
2, 658947, Note_on_c, 0, 44, 59
2, 659066, Note_on_c, 0, 32, 49
2, 659069, Note_on_c, 0, 44, 0
2, 659076, Note_on_c, 0, 66, 89
2, 659090, Note_on_c, 0, 57, 63
2, 659090, Note_on_c, 0, 61, 78
2, 659132, Note_on_c, 0, 68, 0
2, 659180, Note_on_c, 0, 32, 0
2, 659186, Note_on_c, 0, 44, 54
2, 659236, Control_c, 0, 64, 0
2, 659284, Note_on_c, 0, 32, 46
2, 659312, Note_on_c, 0, 44, 0
2, 659406, Note_on_c, 0, 32, 0
2, 659410, Note_on_c, 0, 44, 50
2, 659420, Control_c, 0, 64, 127
2, 659516, Note_on_c, 0, 32, 40
2, 659532, Note_on_c, 0, 44, 0
2, 659535, Note_on_c, 0, 68, 72
2, 659546, Note_on_c, 0, 66, 0
2, 659636, Note_on_c, 0, 32, 0
2, 659636, Note_on_c, 0, 44, 47
2, 659702, Note_on_c, 0, 57, 0
2, 659712, Note_on_c, 0, 61, 0
2, 659746, Note_on_c, 0, 32, 40
2, 659752, Note_on_c, 0, 44, 0
2, 659758, Note_on_c, 0, 66, 79
2, 659782, Note_on_c, 0, 68, 0
2, 659858, Note_on_c, 0, 32, 0
2, 659868, Note_on_c, 0, 66, 0
2, 659870, Note_on_c, 0, 44, 50
2, 659966, Note_on_c, 0, 56, 78
2, 659971, Note_on_c, 0, 64, 96
2, 659974, Note_on_c, 0, 44, 0
2, 659980, Note_on_c, 0, 32, 47
2, 659983, Note_on_c, 0, 59, 59
2, 660078, Note_on_c, 0, 32, 0
2, 660092, Note_on_c, 0, 44, 54
2, 660098, Control_c, 0, 64, 0
2, 660182, Note_on_c, 0, 32, 49
2, 660204, Note_on_c, 0, 44, 0
2, 660280, Control_c, 0, 64, 127
2, 660294, Note_on_c, 0, 44, 52
2, 660300, Note_on_c, 0, 32, 0
2, 660366, Note_on_c, 0, 66, 75
2, 660372, Note_on_c, 0, 64, 0
2, 660392, Note_on_c, 0, 32, 46
2, 660404, Note_on_c, 0, 44, 0
2, 660506, Note_on_c, 0, 32, 0
2, 660510, Note_on_c, 0, 44, 50
2, 660556, Note_on_c, 0, 59, 0
2, 660559, Note_on_c, 0, 66, 0
2, 660610, Note_on_c, 0, 44, 0
2, 660610, Note_on_c, 0, 32, 39
2, 660616, Note_on_c, 0, 64, 95
2, 660650, Note_on_c, 0, 56, 0
2, 660668, Note_on_c, 0, 64, 0
2, 660708, Note_on_c, 0, 32, 0
2, 660726, Note_on_c, 0, 44, 49
2, 660812, Note_on_c, 0, 44, 0
2, 660830, Note_on_c, 0, 32, 50
2, 660838, Note_on_c, 0, 63, 94
2, 660844, Note_on_c, 0, 54, 75
2, 660848, Note_on_c, 0, 57, 65
2, 660896, Control_c, 0, 64, 0
2, 660954, Note_on_c, 0, 32, 0
2, 660964, Note_on_c, 0, 44, 65
2, 661046, Note_on_c, 0, 32, 43
2, 661052, Note_on_c, 0, 44, 0
2, 661096, Control_c, 0, 64, 127
2, 661172, Note_on_c, 0, 32, 0
2, 661184, Note_on_c, 0, 44, 59
2, 661266, Note_on_c, 0, 44, 0
2, 661270, Note_on_c, 0, 64, 83
2, 661274, Note_on_c, 0, 32, 35
2, 661292, Note_on_c, 0, 63, 0
2, 661374, Note_on_c, 0, 32, 0
2, 661408, Note_on_c, 0, 44, 55
2, 661474, Note_on_c, 0, 44, 0
2, 661488, Note_on_c, 0, 63, 93
2, 661496, Note_on_c, 0, 32, 42
2, 661502, Note_on_c, 0, 64, 0
2, 661558, Note_on_c, 0, 57, 0
2, 661562, Note_on_c, 0, 54, 0
2, 661564, Note_on_c, 0, 63, 0
2, 661568, Note_on_c, 0, 32, 0
2, 661624, Note_on_c, 0, 44, 52
2, 661690, Note_on_c, 0, 44, 0
2, 661702, Note_on_c, 0, 61, 90
2, 661706, Note_on_c, 0, 52, 80
2, 661706, Note_on_c, 0, 56, 56
2, 661716, Note_on_c, 0, 32, 50
2, 661756, Control_c, 0, 64, 0
2, 661796, Note_on_c, 0, 32, 0
2, 661842, Note_on_c, 0, 44, 60
2, 661924, Note_on_c, 0, 44, 0
2, 661940, Note_on_c, 0, 32, 51
2, 661940, Control_c, 0, 64, 127
2, 662014, Note_on_c, 0, 32, 0
2, 662056, Note_on_c, 0, 44, 48
2, 662086, Note_on_c, 0, 61, 0
2, 662094, Note_on_c, 0, 63, 81
2, 662134, Note_on_c, 0, 44, 0
2, 662164, Note_on_c, 0, 32, 47
2, 662224, Note_on_c, 0, 52, 0
2, 662232, Note_on_c, 0, 32, 0
2, 662258, Note_on_c, 0, 63, 0
2, 662286, Note_on_c, 0, 44, 50
2, 662316, Note_on_c, 0, 61, 82
2, 662334, Note_on_c, 0, 56, 0
2, 662354, Note_on_c, 0, 44, 0
2, 662390, Note_on_c, 0, 32, 46
2, 662448, Note_on_c, 0, 32, 0
2, 662448, Note_on_c, 0, 61, 0
2, 662520, Note_on_c, 0, 44, 41
2, 662534, Note_on_c, 0, 60, 82
2, 662544, Note_on_c, 0, 54, 66
2, 662546, Note_on_c, 0, 51, 70
2, 662586, Note_on_c, 0, 44, 0
2, 662602, Control_c, 0, 64, 0
2, 662604, Note_on_c, 0, 32, 46
2, 662674, Note_on_c, 0, 32, 0
2, 662710, Note_on_c, 0, 44, 41
2, 662808, Control_c, 0, 64, 127
2, 662812, Note_on_c, 0, 44, 0
2, 662812, Note_on_c, 0, 32, 42
2, 662884, Note_on_c, 0, 32, 0
2, 662912, Note_on_c, 0, 44, 34
2, 663000, Note_on_c, 0, 44, 0
2, 663038, Note_on_c, 0, 32, 29
2, 663104, Note_on_c, 0, 32, 0
2, 663150, Note_on_c, 0, 44, 36
2, 663152, Note_on_c, 0, 51, 0
2, 663174, Note_on_c, 0, 60, 0
2, 663218, Note_on_c, 0, 44, 0
2, 663262, Note_on_c, 0, 32, 39
2, 663326, Note_on_c, 0, 32, 0
2, 663384, Note_on_c, 0, 44, 48
2, 663424, Note_on_c, 0, 61, 60
2, 663444, Note_on_c, 0, 49, 42
2, 663444, Note_on_c, 0, 52, 54
2, 663447, Note_on_c, 0, 44, 0
2, 663488, Note_on_c, 0, 54, 0
2, 663491, Note_on_c, 0, 32, 41
2, 663562, Note_on_c, 0, 32, 0
2, 663600, Control_c, 0, 64, 0
2, 663608, Note_on_c, 0, 44, 54
2, 663680, Note_on_c, 0, 44, 0
2, 663708, Note_on_c, 0, 32, 27
2, 663794, Note_on_c, 0, 32, 0
2, 663800, Control_c, 0, 64, 127
2, 663840, Note_on_c, 0, 44, 36
2, 663912, Note_on_c, 0, 44, 0
2, 663934, Note_on_c, 0, 32, 26
2, 663980, Note_on_c, 0, 49, 0
2, 664004, Note_on_c, 0, 52, 0
2, 664018, Note_on_c, 0, 32, 0
2, 664032, Note_on_c, 0, 61, 0
2, 664058, Note_on_c, 0, 48, 48
2, 664082, Note_on_c, 0, 44, 42
2, 664124, Note_on_c, 0, 48, 0
2, 664148, Note_on_c, 0, 44, 0
2, 664184, Note_on_c, 0, 32, 33
2, 664202, Note_on_c, 0, 56, 46
2, 664264, Note_on_c, 0, 32, 0
2, 664326, Note_on_c, 0, 44, 40
2, 664410, Note_on_c, 0, 63, 59
2, 664412, Note_on_c, 0, 44, 0
2, 664430, Control_c, 0, 64, 0
2, 664448, Note_on_c, 0, 32, 19
2, 664540, Note_on_c, 0, 32, 0
2, 664582, Note_on_c, 0, 44, 40
2, 664598, Control_c, 0, 64, 127
2, 664618, Note_on_c, 0, 56, 0
2, 664652, Note_on_c, 0, 44, 0
2, 664676, Note_on_c, 0, 63, 0
2, 664676, Note_on_c, 0, 32, 26
2, 664752, Note_on_c, 0, 32, 0
2, 664800, Note_on_c, 0, 44, 32
2, 664876, Note_on_c, 0, 44, 0
2, 664926, Note_on_c, 0, 32, 28
2, 664966, Note_on_c, 0, 80, 71
2, 665000, Note_on_c, 0, 32, 0
2, 665052, Note_on_c, 0, 44, 39
2, 665126, Note_on_c, 0, 44, 0
2, 665168, Note_on_c, 0, 32, 33
2, 665236, Note_on_c, 0, 32, 0
2, 665296, Note_on_c, 0, 44, 36
2, 665362, Note_on_c, 0, 44, 0
2, 665396, Note_on_c, 0, 32, 37
2, 665459, Note_on_c, 0, 32, 0
2, 665498, Note_on_c, 0, 80, 0
2, 665498, Note_on_c, 0, 44, 41
2, 665568, Note_on_c, 0, 44, 0
2, 665618, Note_on_c, 0, 32, 39
2, 665636, Note_on_c, 0, 80, 86
2, 665644, Control_c, 0, 64, 0
2, 665680, Note_on_c, 0, 32, 0
2, 665692, Note_on_c, 0, 80, 0
2, 665724, Note_on_c, 0, 44, 55
2, 665796, Note_on_c, 0, 44, 0
2, 665832, Note_on_c, 0, 32, 44
2, 665850, Note_on_c, 0, 81, 60
2, 665898, Note_on_c, 0, 32, 0
2, 665901, Note_on_c, 0, 81, 0
2, 665948, Note_on_c, 0, 44, 55
2, 666012, Note_on_c, 0, 44, 0
2, 666050, Note_on_c, 0, 32, 42
2, 666050, Note_on_c, 0, 80, 70
2, 666110, Note_on_c, 0, 80, 0
2, 666112, Note_on_c, 0, 32, 0
2, 666164, Note_on_c, 0, 44, 50
2, 666228, Note_on_c, 0, 44, 0
2, 666252, Note_on_c, 0, 32, 40
2, 666260, Note_on_c, 0, 78, 72
2, 666304, Note_on_c, 0, 78, 0
2, 666320, Note_on_c, 0, 32, 0
2, 666364, Note_on_c, 0, 44, 39
2, 666432, Note_on_c, 0, 44, 0
2, 666454, Note_on_c, 0, 78, 79
2, 666454, Note_on_c, 0, 32, 34
2, 666464, Note_on_c, 0, 69, 43
2, 666472, Note_on_c, 0, 73, 37
2, 666516, Note_on_c, 0, 32, 0
2, 666532, Note_on_c, 0, 73, 0
2, 666532, Note_on_c, 0, 69, 0
2, 666536, Note_on_c, 0, 78, 0
2, 666556, Note_on_c, 0, 44, 37
2, 666622, Note_on_c, 0, 44, 0
2, 666664, Note_on_c, 0, 32, 36
2, 666680, Note_on_c, 0, 80, 73
2, 666688, Note_on_c, 0, 71, 73
2, 666690, Note_on_c, 0, 75, 40
2, 666726, Note_on_c, 0, 32, 0
2, 666734, Note_on_c, 0, 80, 0
2, 666740, Note_on_c, 0, 71, 0
2, 666746, Note_on_c, 0, 75, 0
2, 666784, Note_on_c, 0, 44, 46
2, 666844, Note_on_c, 0, 44, 0
2, 666872, Note_on_c, 0, 32, 44
2, 666886, Note_on_c, 0, 78, 80
2, 666896, Note_on_c, 0, 69, 59
2, 666898, Note_on_c, 0, 73, 44
2, 666930, Note_on_c, 0, 78, 0
2, 666936, Note_on_c, 0, 32, 0
2, 666954, Note_on_c, 0, 69, 0
2, 666962, Note_on_c, 0, 73, 0
2, 666988, Note_on_c, 0, 44, 46
2, 667052, Note_on_c, 0, 44, 0
2, 667088, Note_on_c, 0, 32, 51
2, 667098, Note_on_c, 0, 76, 60
2, 667103, Note_on_c, 0, 68, 64
2, 667110, Note_on_c, 0, 71, 44
2, 667150, Note_on_c, 0, 32, 0
2, 667152, Note_on_c, 0, 76, 0
2, 667166, Note_on_c, 0, 68, 0
2, 667176, Note_on_c, 0, 71, 0
2, 667210, Note_on_c, 0, 44, 49
2, 667270, Note_on_c, 0, 44, 0
2, 667296, Note_on_c, 0, 76, 62
2, 667298, Note_on_c, 0, 32, 55
2, 667304, Note_on_c, 0, 71, 56
2, 667314, Note_on_c, 0, 68, 59
2, 667356, Note_on_c, 0, 76, 0
2, 667358, Note_on_c, 0, 32, 0
2, 667368, Note_on_c, 0, 71, 0
2, 667368, Note_on_c, 0, 68, 0
2, 667412, Note_on_c, 0, 44, 48
2, 667478, Note_on_c, 0, 44, 0
2, 667506, Note_on_c, 0, 78, 74
2, 667506, Note_on_c, 0, 32, 56
2, 667514, Note_on_c, 0, 73, 49
2, 667516, Note_on_c, 0, 69, 51
2, 667560, Note_on_c, 0, 78, 0
2, 667566, Note_on_c, 0, 32, 0
2, 667569, Note_on_c, 0, 73, 0
2, 667572, Note_on_c, 0, 69, 0
2, 667616, Note_on_c, 0, 44, 48
2, 667680, Note_on_c, 0, 44, 0
2, 667698, Note_on_c, 0, 32, 50
2, 667704, Note_on_c, 0, 71, 78
2, 667704, Note_on_c, 0, 68, 67
2, 667706, Note_on_c, 0, 76, 48
2, 667750, Note_on_c, 0, 71, 0
2, 667758, Note_on_c, 0, 76, 0
2, 667768, Note_on_c, 0, 68, 0
2, 667772, Note_on_c, 0, 32, 0
2, 667814, Note_on_c, 0, 44, 49
2, 667880, Note_on_c, 0, 44, 0
2, 667906, Note_on_c, 0, 32, 60
2, 667906, Note_on_c, 0, 66, 69
2, 667906, Note_on_c, 0, 69, 66
2, 667909, Note_on_c, 0, 75, 74
2, 667964, Note_on_c, 0, 75, 0
2, 667964, Note_on_c, 0, 66, 0
2, 667972, Note_on_c, 0, 69, 0
2, 667986, Note_on_c, 0, 32, 0
2, 668026, Note_on_c, 0, 44, 59
2, 668086, Note_on_c, 0, 44, 0
2, 668100, Note_on_c, 0, 66, 71
2, 668102, Note_on_c, 0, 69, 60
2, 668104, Note_on_c, 0, 75, 86
2, 668115, Note_on_c, 0, 32, 57
2, 668154, Note_on_c, 0, 66, 0
2, 668164, Note_on_c, 0, 69, 0
2, 668186, Note_on_c, 0, 32, 0
2, 668189, Note_on_c, 0, 75, 0
2, 668234, Note_on_c, 0, 44, 60
2, 668288, Note_on_c, 0, 44, 0
2, 668298, Note_on_c, 0, 76, 78
2, 668306, Note_on_c, 0, 68, 69
2, 668308, Note_on_c, 0, 71, 64
2, 668318, Note_on_c, 0, 32, 62
2, 668354, Note_on_c, 0, 76, 0
2, 668366, Note_on_c, 0, 71, 0
2, 668376, Note_on_c, 0, 32, 0
2, 668386, Note_on_c, 0, 68, 0
2, 668418, Note_on_c, 0, 44, 54
2, 668480, Note_on_c, 0, 44, 0
2, 668502, Note_on_c, 0, 75, 78
2, 668505, Note_on_c, 0, 32, 60
2, 668510, Note_on_c, 0, 66, 65
2, 668516, Note_on_c, 0, 69, 39
2, 668568, Note_on_c, 0, 75, 0
2, 668574, Note_on_c, 0, 32, 0
2, 668578, Note_on_c, 0, 69, 0
2, 668592, Note_on_c, 0, 66, 0
2, 668608, Note_on_c, 0, 44, 60
2, 668674, Note_on_c, 0, 44, 0
2, 668694, Note_on_c, 0, 73, 86
2, 668697, Note_on_c, 0, 32, 63
2, 668702, Note_on_c, 0, 68, 62
2, 668712, Note_on_c, 0, 64, 79
2, 668754, Note_on_c, 0, 68, 0
2, 668762, Note_on_c, 0, 64, 0
2, 668776, Note_on_c, 0, 32, 0
2, 668810, Note_on_c, 0, 44, 66
2, 668816, Note_on_c, 0, 73, 0
2, 668878, Note_on_c, 0, 44, 0
2, 668890, Note_on_c, 0, 73, 79
2, 668896, Note_on_c, 0, 32, 60
2, 668902, Note_on_c, 0, 64, 81
2, 668906, Note_on_c, 0, 68, 50
2, 668942, Note_on_c, 0, 64, 0
2, 668960, Note_on_c, 0, 68, 0
2, 668996, Note_on_c, 0, 32, 0
2, 668999, Note_on_c, 0, 73, 0
2, 669024, Note_on_c, 0, 44, 67
2, 669076, Note_on_c, 0, 75, 95
2, 669080, Note_on_c, 0, 44, 0
2, 669084, Note_on_c, 0, 66, 72
2, 669090, Note_on_c, 0, 69, 62
2, 669098, Note_on_c, 0, 32, 55
2, 669144, Note_on_c, 0, 66, 0
2, 669146, Note_on_c, 0, 69, 0
2, 669156, Note_on_c, 0, 75, 0
2, 669192, Note_on_c, 0, 32, 0
2, 669220, Note_on_c, 0, 44, 62
2, 669280, Note_on_c, 0, 73, 92
2, 669286, Note_on_c, 0, 44, 0
2, 669292, Note_on_c, 0, 68, 71
2, 669292, Note_on_c, 0, 64, 83
2, 669300, Note_on_c, 0, 32, 50
2, 669340, Note_on_c, 0, 64, 0
2, 669346, Note_on_c, 0, 68, 0
2, 669358, Note_on_c, 0, 73, 0
2, 669390, Note_on_c, 0, 32, 0
2, 669416, Note_on_c, 0, 44, 55
2, 669506, Note_on_c, 0, 44, 0
2, 669516, Note_on_c, 0, 72, 103
2, 669519, Note_on_c, 0, 32, 52
2, 669526, Note_on_c, 0, 63, 80
2, 669532, Note_on_c, 0, 66, 55
2, 669616, Note_on_c, 0, 32, 0
2, 669642, Note_on_c, 0, 44, 59
2, 669724, Note_on_c, 0, 44, 0
2, 669726, Note_on_c, 0, 32, 42
2, 669806, Control_c, 0, 64, 127
2, 669834, Note_on_c, 0, 32, 0
2, 669858, Note_on_c, 0, 44, 42
2, 669928, Note_on_c, 0, 32, 36
2, 669936, Note_on_c, 0, 44, 0
2, 670034, Note_on_c, 0, 32, 0
2, 670056, Note_on_c, 0, 44, 48
2, 670144, Note_on_c, 0, 44, 0
2, 670158, Note_on_c, 0, 32, 49
2, 670196, Note_on_c, 0, 66, 0
2, 670210, Note_on_c, 0, 63, 0
2, 670226, Note_on_c, 0, 32, 0
2, 670264, Note_on_c, 0, 72, 0
2, 670278, Note_on_c, 0, 44, 59
2, 670350, Note_on_c, 0, 44, 0
2, 670364, Note_on_c, 0, 73, 88
2, 670370, Note_on_c, 0, 61, 71
2, 670376, Note_on_c, 0, 32, 52
2, 670384, Note_on_c, 0, 64, 65
2, 670456, Note_on_c, 0, 32, 0
2, 670498, Note_on_c, 0, 44, 65
2, 670560, Control_c, 0, 64, 0
2, 670586, Note_on_c, 0, 32, 50
2, 670592, Note_on_c, 0, 44, 0
2, 670704, Note_on_c, 0, 32, 0
2, 670712, Note_on_c, 0, 44, 54
2, 670728, Control_c, 0, 64, 127
2, 670808, Note_on_c, 0, 32, 34
2, 670811, Note_on_c, 0, 44, 0
2, 670926, Note_on_c, 0, 32, 0
2, 670938, Note_on_c, 0, 44, 59
2, 670978, Note_on_c, 0, 64, 0
2, 671012, Note_on_c, 0, 61, 0
2, 671032, Note_on_c, 0, 73, 0
2, 671078, Note_on_c, 0, 32, 44
2, 671078, Note_on_c, 0, 60, 75
2, 671096, Note_on_c, 0, 44, 0
2, 671112, Control_c, 0, 64, 0
2, 671228, Note_on_c, 0, 66, 67
2, 671246, Note_on_c, 0, 32, 0
2, 671254, Note_on_c, 0, 44, 48
2, 671256, Control_c, 0, 64, 127
2, 671282, Note_on_c, 0, 60, 0
2, 671400, Note_on_c, 0, 44, 0
2, 671430, Note_on_c, 0, 75, 87
2, 671440, Note_on_c, 0, 32, 29
2, 671522, Note_on_c, 0, 32, 0
2, 671574, Note_on_c, 0, 44, 47
2, 671672, Note_on_c, 0, 44, 0
2, 671686, Note_on_c, 0, 32, 35
2, 671774, Note_on_c, 0, 32, 0
2, 671814, Note_on_c, 0, 44, 46
2, 671888, Note_on_c, 0, 44, 0
2, 671932, Note_on_c, 0, 32, 40
2, 671992, Note_on_c, 0, 32, 0
2, 672040, Note_on_c, 0, 44, 50
2, 672102, Note_on_c, 0, 44, 0
2, 672146, Note_on_c, 0, 32, 37
2, 672206, Note_on_c, 0, 32, 0
2, 672250, Note_on_c, 0, 44, 48
2, 672318, Note_on_c, 0, 44, 0
2, 672354, Note_on_c, 0, 32, 39
2, 672426, Note_on_c, 0, 32, 0
2, 672434, Note_on_c, 0, 75, 0
2, 672472, Note_on_c, 0, 66, 0
2, 672474, Note_on_c, 0, 44, 50
2, 672552, Note_on_c, 0, 44, 0
2, 672588, Note_on_c, 0, 32, 37
2, 672664, Note_on_c, 0, 32, 0
2, 672718, Note_on_c, 0, 44, 42
2, 672784, Note_on_c, 0, 44, 0
2, 672830, Note_on_c, 0, 32, 32
2, 672830, Note_on_c, 0, 73, 56
2, 672846, Note_on_c, 0, 61, 43
2, 672850, Note_on_c, 0, 64, 41
2, 672896, Control_c, 0, 64, 0
2, 672930, Note_on_c, 0, 32, 0
2, 672954, Note_on_c, 0, 44, 46
2, 673066, Note_on_c, 0, 44, 0
2, 673068, Note_on_c, 0, 64, 0
2, 673080, Note_on_c, 0, 32, 41
2, 673080, Control_c, 0, 64, 127
2, 673106, Note_on_c, 0, 61, 0
2, 673118, Note_on_c, 0, 73, 0
2, 673140, Note_on_c, 0, 32, 0
2, 673186, Note_on_c, 0, 44, 35
2, 673260, Note_on_c, 0, 44, 0
2, 673288, Note_on_c, 0, 63, 63
2, 673288, Note_on_c, 0, 66, 35
2, 673290, Note_on_c, 0, 72, 71
2, 673298, Note_on_c, 0, 32, 47
2, 673342, Control_c, 0, 64, 0
2, 673394, Note_on_c, 0, 32, 0
2, 673422, Note_on_c, 0, 44, 55
2, 673494, Control_c, 0, 64, 127
2, 673522, Note_on_c, 0, 44, 0
2, 673540, Note_on_c, 0, 32, 54
2, 673544, Note_on_c, 0, 66, 0
2, 673556, Note_on_c, 0, 72, 0
2, 673566, Note_on_c, 0, 63, 0
2, 673612, Note_on_c, 0, 32, 0
2, 673660, Note_on_c, 0, 44, 58
2, 673714, Note_on_c, 0, 72, 82
2, 673720, Note_on_c, 0, 66, 58
2, 673724, Note_on_c, 0, 63, 78
2, 673740, Note_on_c, 0, 44, 0
2, 673756, Note_on_c, 0, 32, 55
2, 673854, Note_on_c, 0, 32, 0
2, 673890, Note_on_c, 0, 44, 65
2, 673956, Note_on_c, 0, 44, 0
2, 673976, Note_on_c, 0, 66, 0
2, 673984, Note_on_c, 0, 32, 50
2, 673992, Note_on_c, 0, 63, 0
2, 674008, Note_on_c, 0, 72, 0
2, 674052, Note_on_c, 0, 32, 0
2, 674102, Note_on_c, 0, 44, 60
2, 674148, Note_on_c, 0, 73, 86
2, 674158, Note_on_c, 0, 61, 67
2, 674168, Note_on_c, 0, 44, 0
2, 674168, Note_on_c, 0, 64, 65
2, 674200, Note_on_c, 0, 32, 55
2, 674216, Control_c, 0, 64, 0
2, 674272, Note_on_c, 0, 32, 0
2, 674318, Note_on_c, 0, 44, 62
2, 674386, Note_on_c, 0, 44, 0
2, 674386, Control_c, 0, 64, 127
2, 674408, Note_on_c, 0, 32, 56
2, 674426, Note_on_c, 0, 64, 0
2, 674445, Note_on_c, 0, 61, 0
2, 674452, Note_on_c, 0, 73, 0
2, 674480, Note_on_c, 0, 32, 0
2, 674520, Note_on_c, 0, 44, 58
2, 674590, Note_on_c, 0, 73, 90
2, 674595, Note_on_c, 0, 61, 79
2, 674600, Note_on_c, 0, 44, 0
2, 674602, Note_on_c, 0, 64, 69
2, 674626, Note_on_c, 0, 32, 54
2, 674732, Note_on_c, 0, 32, 0
2, 674750, Note_on_c, 0, 44, 59
2, 674816, Note_on_c, 0, 64, 0
2, 674840, Note_on_c, 0, 44, 0
2, 674844, Note_on_c, 0, 61, 0
2, 674866, Note_on_c, 0, 73, 0
2, 674866, Note_on_c, 0, 32, 52
2, 674958, Note_on_c, 0, 60, 87
2, 675000, Control_c, 0, 64, 0
2, 675096, Note_on_c, 0, 66, 71
2, 675128, Note_on_c, 0, 44, 50
2, 675154, Control_c, 0, 64, 127
2, 675158, Note_on_c, 0, 32, 0
2, 675170, Note_on_c, 0, 60, 0
2, 675316, Note_on_c, 0, 75, 82
2, 675340, Note_on_c, 0, 44, 0
2, 675390, Note_on_c, 0, 32, 39
2, 675496, Note_on_c, 0, 32, 0
2, 675520, Note_on_c, 0, 44, 48
2, 675614, Note_on_c, 0, 44, 0
2, 675658, Note_on_c, 0, 32, 33
2, 675748, Note_on_c, 0, 32, 0
2, 675786, Note_on_c, 0, 44, 47
2, 675874, Note_on_c, 0, 44, 0
2, 675906, Note_on_c, 0, 32, 44
2, 676000, Note_on_c, 0, 32, 0
2, 676034, Note_on_c, 0, 44, 49
2, 676122, Note_on_c, 0, 44, 0
2, 676150, Note_on_c, 0, 32, 49
2, 676230, Note_on_c, 0, 32, 0
2, 676240, Note_on_c, 0, 75, 0
2, 676280, Note_on_c, 0, 44, 49
2, 676312, Note_on_c, 0, 66, 0
2, 676366, Note_on_c, 0, 44, 0
2, 676422, Note_on_c, 0, 32, 32
2, 676504, Note_on_c, 0, 32, 0
2, 676564, Note_on_c, 0, 44, 39
2, 676634, Note_on_c, 0, 44, 0
2, 676674, Note_on_c, 0, 64, 47
2, 676676, Note_on_c, 0, 61, 42
2, 676698, Note_on_c, 0, 32, 27
2, 676768, Control_c, 0, 64, 0
2, 676792, Note_on_c, 0, 32, 0
2, 676834, Note_on_c, 0, 44, 40
2, 676874, Control_c, 0, 64, 127
2, 676926, Note_on_c, 0, 44, 0
2, 676966, Note_on_c, 0, 73, 47
2, 676980, Note_on_c, 0, 32, 19
2, 677014, Note_on_c, 0, 61, 0
2, 677016, Note_on_c, 0, 64, 0
2, 677058, Note_on_c, 0, 32, 0
2, 677116, Note_on_c, 0, 73, 0
2, 677122, Note_on_c, 0, 44, 40
2, 677200, Note_on_c, 0, 44, 0
2, 677210, Note_on_c, 0, 63, 41
2, 677212, Note_on_c, 0, 66, 39
2, 677244, Note_on_c, 0, 32, 29
2, 677258, Control_c, 0, 64, 0
2, 677388, Note_on_c, 0, 32, 0
2, 677394, Note_on_c, 0, 44, 51
2, 677444, Control_c, 0, 64, 127
2, 677476, Note_on_c, 0, 44, 0
2, 677508, Note_on_c, 0, 72, 48
2, 677520, Note_on_c, 0, 63, 0
2, 677526, Note_on_c, 0, 32, 20
2, 677544, Note_on_c, 0, 66, 0
2, 677598, Note_on_c, 0, 32, 0
2, 677646, Note_on_c, 0, 44, 48
2, 677696, Note_on_c, 0, 72, 0
2, 677720, Note_on_c, 0, 44, 0
2, 677756, Note_on_c, 0, 63, 54
2, 677759, Note_on_c, 0, 66, 44
2, 677762, Note_on_c, 0, 32, 42
2, 677832, Note_on_c, 0, 32, 0
2, 677878, Note_on_c, 0, 44, 48
2, 677938, Note_on_c, 0, 63, 0
2, 677958, Note_on_c, 0, 44, 0
2, 677992, Note_on_c, 0, 32, 43
2, 678002, Note_on_c, 0, 72, 67
2, 678022, Note_on_c, 0, 66, 0
2, 678064, Note_on_c, 0, 32, 0
2, 678094, Note_on_c, 0, 72, 0
2, 678114, Note_on_c, 0, 44, 51
2, 678184, Note_on_c, 0, 44, 0
2, 678212, Control_c, 0, 64, 0
2, 678216, Note_on_c, 0, 32, 51
2, 678216, Note_on_c, 0, 61, 67
2, 678222, Note_on_c, 0, 64, 80
2, 678332, Note_on_c, 0, 32, 0
2, 678350, Note_on_c, 0, 44, 54
2, 678396, Control_c, 0, 64, 127
2, 678444, Note_on_c, 0, 44, 0
2, 678472, Note_on_c, 0, 32, 43
2, 678472, Note_on_c, 0, 73, 67
2, 678512, Note_on_c, 0, 61, 0
2, 678540, Note_on_c, 0, 64, 0
2, 678544, Note_on_c, 0, 32, 0
2, 678596, Note_on_c, 0, 44, 64
2, 678618, Note_on_c, 0, 73, 0
2, 678662, Note_on_c, 0, 44, 0
2, 678694, Note_on_c, 0, 32, 55
2, 678700, Note_on_c, 0, 61, 70
2, 678700, Note_on_c, 0, 64, 87
2, 678800, Note_on_c, 0, 32, 0
2, 678814, Note_on_c, 0, 44, 59
2, 678904, Note_on_c, 0, 44, 0
2, 678914, Note_on_c, 0, 64, 0
2, 678938, Note_on_c, 0, 32, 48
2, 678938, Note_on_c, 0, 73, 77
2, 678976, Note_on_c, 0, 61, 0
2, 679026, Note_on_c, 0, 32, 0
2, 679052, Note_on_c, 0, 44, 66
2, 679092, Note_on_c, 0, 73, 0
2, 679134, Control_c, 0, 64, 0
2, 679144, Note_on_c, 0, 44, 0
2, 679170, Note_on_c, 0, 60, 75
2, 679172, Note_on_c, 0, 32, 60
2, 679176, Note_on_c, 0, 66, 70
2, 679286, Control_c, 0, 64, 127
2, 679302, Note_on_c, 0, 60, 0
2, 679310, Note_on_c, 0, 32, 0
2, 679320, Note_on_c, 0, 44, 59
2, 679368, Note_on_c, 0, 66, 0
2, 679416, Note_on_c, 0, 44, 0
2, 679436, Note_on_c, 0, 75, 89
2, 679446, Note_on_c, 0, 32, 39
2, 679484, Note_on_c, 0, 75, 0
2, 679538, Note_on_c, 0, 32, 0
2, 679570, Note_on_c, 0, 44, 55
2, 679652, Note_on_c, 0, 44, 0
2, 679672, Note_on_c, 0, 60, 74
2, 679675, Note_on_c, 0, 66, 65
2, 679678, Note_on_c, 0, 32, 49
2, 679740, Note_on_c, 0, 60, 0
2, 679784, Note_on_c, 0, 32, 0
2, 679802, Note_on_c, 0, 66, 0
2, 679812, Note_on_c, 0, 44, 55
2, 679886, Note_on_c, 0, 44, 0
2, 679932, Note_on_c, 0, 75, 82
2, 679938, Note_on_c, 0, 32, 44
2, 679972, Note_on_c, 0, 75, 0
2, 680024, Note_on_c, 0, 32, 0
2, 680060, Note_on_c, 0, 44, 43
2, 680164, Note_on_c, 0, 44, 0
2, 680190, Note_on_c, 0, 64, 75
2, 680192, Note_on_c, 0, 61, 59
2, 680195, Control_c, 0, 64, 0
2, 680226, Note_on_c, 0, 33, 48
2, 680374, Note_on_c, 0, 33, 0
2, 680376, Note_on_c, 0, 45, 46
2, 680394, Control_c, 0, 64, 127
2, 680434, Note_on_c, 0, 61, 0
2, 680446, Note_on_c, 0, 45, 0
2, 680474, Note_on_c, 0, 73, 64
2, 680504, Note_on_c, 0, 33, 39
2, 680510, Note_on_c, 0, 64, 0
2, 680592, Note_on_c, 0, 33, 0
2, 680616, Note_on_c, 0, 73, 0
2, 680646, Note_on_c, 0, 45, 35
2, 680732, Note_on_c, 0, 45, 0
2, 680756, Note_on_c, 0, 61, 39
2, 680772, Note_on_c, 0, 64, 67
2, 680778, Note_on_c, 0, 33, 37
2, 680880, Note_on_c, 0, 61, 0
2, 680888, Note_on_c, 0, 64, 0
2, 680904, Note_on_c, 0, 33, 0
2, 680948, Note_on_c, 0, 45, 14
2, 681016, Note_on_c, 0, 45, 0
2, 681078, Note_on_c, 0, 33, 44
2, 681080, Note_on_c, 0, 73, 58
2, 681146, Note_on_c, 0, 73, 0
2, 681172, Note_on_c, 0, 33, 0
2, 681260, Note_on_c, 0, 45, 32
2, 681334, Note_on_c, 0, 45, 0
2, 681636, Note_on_c, 0, 57, 34
2, 681638, Control_c, 0, 64, 0
2, 681638, Note_on_c, 0, 63, 49
2, 681642, Note_on_c, 0, 69, 58
2, 681642, Note_on_c, 0, 61, 48
2, 681644, Note_on_c, 0, 30, 60
2, 681644, Note_on_c, 0, 42, 47
2, 681842, Note_on_c, 0, 30, 0
2, 681848, Note_on_c, 0, 42, 0
2, 681884, Control_c, 0, 64, 127
2, 683168, Note_on_c, 0, 57, 0
2, 683234, Note_on_c, 0, 63, 0
2, 683278, Note_on_c, 0, 69, 0
2, 683306, Note_on_c, 0, 61, 0
2, 684510, Note_on_c, 0, 68, 32
2, 684525, Note_on_c, 0, 63, 31
2, 684530, Note_on_c, 0, 60, 21
2, 684532, Note_on_c, 0, 56, 19
2, 684532, Note_on_c, 0, 44, 23
2, 684532, Note_on_c, 0, 32, 16
2, 684680, Control_c, 0, 64, 0
2, 685556, Control_c, 0, 64, 127
2, 685702, Note_on_c, 0, 44, 0
2, 685784, Note_on_c, 0, 56, 0
2, 685910, Note_on_c, 0, 32, 0
2, 685930, Note_on_c, 0, 60, 0
2, 685988, Note_on_c, 0, 68, 0
2, 686024, Note_on_c, 0, 63, 0
2, 686932, Note_on_c, 0, 37, 98
2, 686940, Control_c, 0, 64, 0
2, 686972, Note_on_c, 0, 37, 0
2, 687002, Note_on_c, 0, 44, 92
2, 687058, Note_on_c, 0, 44, 0
2, 687092, Note_on_c, 0, 44, 32
2, 687094, Note_on_c, 0, 49, 74
2, 687158, Note_on_c, 0, 44, 0
2, 687186, Note_on_c, 0, 49, 0
2, 687190, Note_on_c, 0, 52, 72
2, 687244, Note_on_c, 0, 52, 0
2, 687248, Note_on_c, 0, 56, 66
2, 687270, Note_on_c, 0, 37, 66
2, 687312, Note_on_c, 0, 37, 0
2, 687314, Note_on_c, 0, 56, 0
2, 687324, Note_on_c, 0, 49, 74
2, 687400, Note_on_c, 0, 52, 96
2, 687410, Note_on_c, 0, 44, 65
2, 687424, Note_on_c, 0, 49, 0
2, 687462, Note_on_c, 0, 44, 0
2, 687501, Note_on_c, 0, 56, 73
2, 687522, Note_on_c, 0, 52, 0
2, 687584, Note_on_c, 0, 61, 77
2, 687598, Note_on_c, 0, 37, 63
2, 687628, Note_on_c, 0, 61, 0
2, 687630, Note_on_c, 0, 56, 0
2, 687648, Note_on_c, 0, 37, 0
2, 687676, Note_on_c, 0, 52, 97
2, 687722, Note_on_c, 0, 52, 0
2, 687732, Note_on_c, 0, 44, 66
2, 687748, Note_on_c, 0, 56, 62
2, 687794, Note_on_c, 0, 44, 0
2, 687832, Note_on_c, 0, 61, 71
2, 687846, Note_on_c, 0, 56, 0
2, 687906, Note_on_c, 0, 64, 85
2, 687920, Note_on_c, 0, 37, 65
2, 687948, Note_on_c, 0, 64, 0
2, 687964, Note_on_c, 0, 61, 0
2, 687974, Note_on_c, 0, 37, 0
2, 687976, Note_on_c, 0, 56, 79
2, 688064, Note_on_c, 0, 44, 59
2, 688090, Note_on_c, 0, 56, 0
2, 688108, Note_on_c, 0, 61, 65
2, 688130, Note_on_c, 0, 44, 0
2, 688138, Note_on_c, 0, 64, 89
2, 688156, Note_on_c, 0, 61, 0
2, 688228, Note_on_c, 0, 68, 72
2, 688242, Note_on_c, 0, 64, 0
2, 688254, Note_on_c, 0, 37, 64
2, 688280, Note_on_c, 0, 68, 0
2, 688298, Note_on_c, 0, 61, 78
2, 688304, Note_on_c, 0, 37, 0
2, 688396, Note_on_c, 0, 64, 79
2, 688404, Note_on_c, 0, 44, 63
2, 688412, Note_on_c, 0, 61, 0
2, 688466, Note_on_c, 0, 44, 0
2, 688466, Note_on_c, 0, 68, 74
2, 688478, Note_on_c, 0, 64, 0
2, 688546, Note_on_c, 0, 73, 77
2, 688562, Note_on_c, 0, 37, 72
2, 688582, Note_on_c, 0, 68, 0
2, 688594, Note_on_c, 0, 73, 0
2, 688614, Note_on_c, 0, 37, 0
2, 688630, Note_on_c, 0, 64, 79
2, 688684, Note_on_c, 0, 68, 63
2, 688708, Note_on_c, 0, 64, 0
2, 688728, Note_on_c, 0, 44, 64
2, 688780, Note_on_c, 0, 73, 72
2, 688786, Note_on_c, 0, 44, 0
2, 688808, Note_on_c, 0, 68, 0
2, 688854, Note_on_c, 0, 76, 81
2, 688868, Note_on_c, 0, 37, 75
2, 688884, Note_on_c, 0, 73, 0
2, 688892, Note_on_c, 0, 76, 0
2, 688930, Note_on_c, 0, 37, 0
2, 688938, Note_on_c, 0, 68, 78
2, 689012, Note_on_c, 0, 73, 62
2, 689040, Note_on_c, 0, 68, 0
2, 689040, Note_on_c, 0, 44, 78
2, 689062, Note_on_c, 0, 76, 75
2, 689088, Note_on_c, 0, 44, 0
2, 689104, Note_on_c, 0, 76, 0
2, 689126, Note_on_c, 0, 73, 0
2, 689148, Note_on_c, 0, 76, 116
2, 689148, Note_on_c, 0, 80, 111
2, 689152, Note_on_c, 0, 68, 110
2, 689156, Note_on_c, 0, 73, 82
2, 689160, Note_on_c, 0, 49, 121
2, 689160, Note_on_c, 0, 70, 55
2, 689166, Note_on_c, 0, 37, 111
2, 689220, Note_on_c, 0, 70, 0
2, 689236, Note_on_c, 0, 80, 0
2, 689243, Control_c, 0, 64, 127
2, 689256, Note_on_c, 0, 76, 0
2, 689260, Note_on_c, 0, 49, 0
2, 689282, Note_on_c, 0, 68, 0
2, 689282, Note_on_c, 0, 37, 0
2, 689290, Note_on_c, 0, 73, 0
2, 689310, Note_on_c, 0, 80, 90
2, 689310, Note_on_c, 0, 76, 97
2, 689314, Note_on_c, 0, 73, 59
2, 689326, Note_on_c, 0, 68, 92
2, 689334, Note_on_c, 0, 44, 95
2, 689340, Note_on_c, 0, 80, 0
2, 689350, Note_on_c, 0, 76, 0
2, 689356, Note_on_c, 0, 73, 0
2, 689380, Note_on_c, 0, 44, 0
2, 689412, Note_on_c, 0, 68, 0
2, 689458, Control_c, 0, 64, 0
2, 689536, Note_on_c, 0, 36, 117
2, 689620, Note_on_c, 0, 36, 0
2, 689696, Note_on_c, 0, 48, 77
2, 689702, Note_on_c, 0, 44, 67
2, 689768, Note_on_c, 0, 44, 0
2, 689776, Note_on_c, 0, 51, 88
2, 689806, Note_on_c, 0, 48, 0
2, 689870, Note_on_c, 0, 56, 77
2, 689880, Note_on_c, 0, 36, 90
2, 689918, Note_on_c, 0, 56, 0
2, 689918, Note_on_c, 0, 51, 0
2, 689932, Note_on_c, 0, 36, 0
2, 689948, Note_on_c, 0, 48, 85
2, 690024, Note_on_c, 0, 51, 79
2, 690032, Note_on_c, 0, 44, 81
2, 690064, Note_on_c, 0, 48, 0
2, 690108, Note_on_c, 0, 56, 82
2, 690124, Note_on_c, 0, 44, 0
2, 690164, Note_on_c, 0, 51, 0
2, 690180, Note_on_c, 0, 60, 96
2, 690196, Note_on_c, 0, 56, 0
2, 690214, Note_on_c, 0, 36, 82
2, 690250, Note_on_c, 0, 60, 0
2, 690260, Note_on_c, 0, 36, 0
2, 690284, Note_on_c, 0, 51, 90
2, 690354, Note_on_c, 0, 56, 90
2, 690366, Note_on_c, 0, 44, 74
2, 690382, Note_on_c, 0, 51, 0
2, 690428, Note_on_c, 0, 60, 82
2, 690442, Note_on_c, 0, 44, 0
2, 690498, Note_on_c, 0, 56, 0
2, 690518, Note_on_c, 0, 63, 96
2, 690524, Note_on_c, 0, 36, 87
2, 690546, Note_on_c, 0, 60, 0
2, 690556, Note_on_c, 0, 56, 89
2, 690602, Note_on_c, 0, 63, 0
2, 690618, Note_on_c, 0, 36, 0
2, 690662, Note_on_c, 0, 60, 88
2, 690696, Note_on_c, 0, 44, 81
2, 690704, Note_on_c, 0, 56, 0
2, 690746, Note_on_c, 0, 63, 96
2, 690788, Note_on_c, 0, 44, 0
2, 690798, Note_on_c, 0, 60, 0
2, 690844, Note_on_c, 0, 68, 89
2, 690870, Note_on_c, 0, 36, 98
2, 690878, Note_on_c, 0, 63, 0
2, 690934, Note_on_c, 0, 60, 90
2, 690956, Note_on_c, 0, 68, 0
2, 690964, Note_on_c, 0, 36, 0
2, 691002, Note_on_c, 0, 63, 98
2, 691038, Note_on_c, 0, 44, 83
2, 691044, Note_on_c, 0, 60, 0
2, 691090, Note_on_c, 0, 44, 0
2, 691094, Note_on_c, 0, 68, 82
2, 691110, Note_on_c, 0, 63, 0
2, 691168, Note_on_c, 0, 72, 87
2, 691178, Note_on_c, 0, 36, 87
2, 691200, Note_on_c, 0, 68, 0
2, 691210, Note_on_c, 0, 72, 0
2, 691244, Note_on_c, 0, 63, 105
2, 691258, Note_on_c, 0, 36, 0
2, 691310, Note_on_c, 0, 68, 71
2, 691320, Note_on_c, 0, 44, 80
2, 691356, Note_on_c, 0, 63, 0
2, 691378, Note_on_c, 0, 72, 82
2, 691392, Note_on_c, 0, 44, 0
2, 691448, Note_on_c, 0, 68, 0
2, 691476, Note_on_c, 0, 75, 90
2, 691492, Note_on_c, 0, 36, 83
2, 691498, Note_on_c, 0, 48, 85
2, 691504, Note_on_c, 0, 72, 0
2, 691530, Note_on_c, 0, 68, 70
2, 691533, Note_on_c, 0, 75, 0
2, 691592, Note_on_c, 0, 48, 0
2, 691632, Note_on_c, 0, 36, 0
2, 691642, Note_on_c, 0, 72, 74
2, 691645, Note_on_c, 0, 68, 0
2, 691645, Note_on_c, 0, 44, 87
2, 691684, Note_on_c, 0, 75, 87
2, 691728, Note_on_c, 0, 75, 0
2, 691744, Note_on_c, 0, 44, 0
2, 691762, Note_on_c, 0, 72, 0
2, 691792, Note_on_c, 0, 75, 105
2, 691792, Note_on_c, 0, 48, 116
2, 691792, Note_on_c, 0, 80, 123
2, 691792, Note_on_c, 0, 36, 112
2, 691792, Note_on_c, 0, 72, 112
2, 691795, Note_on_c, 0, 68, 120
2, 691886, Note_on_c, 0, 72, 0
2, 691898, Note_on_c, 0, 36, 0
2, 691904, Note_on_c, 0, 48, 0
2, 691904, Note_on_c, 0, 68, 0
2, 691907, Note_on_c, 0, 80, 0
2, 691922, Note_on_c, 0, 75, 0
2, 691964, Control_c, 0, 64, 127
2, 691964, Note_on_c, 0, 80, 94
2, 691964, Note_on_c, 0, 72, 79
2, 691966, Note_on_c, 0, 68, 77
2, 691966, Note_on_c, 0, 75, 95
2, 691972, Note_on_c, 0, 44, 96
2, 691998, Note_on_c, 0, 80, 0
2, 692020, Note_on_c, 0, 75, 0
2, 692050, Note_on_c, 0, 44, 0
2, 692076, Note_on_c, 0, 68, 0
2, 692078, Note_on_c, 0, 72, 0
2, 692132, Control_c, 0, 64, 0
2, 692170, Note_on_c, 0, 35, 124
2, 692256, Note_on_c, 0, 49, 108
2, 692259, Note_on_c, 0, 35, 0
2, 692334, Note_on_c, 0, 44, 82
2, 692346, Note_on_c, 0, 53, 108
2, 692366, Note_on_c, 0, 49, 0
2, 692418, Note_on_c, 0, 56, 83
2, 692432, Note_on_c, 0, 44, 0
2, 692462, Note_on_c, 0, 53, 0
2, 692510, Note_on_c, 0, 35, 105
2, 692526, Note_on_c, 0, 61, 89
2, 692560, Note_on_c, 0, 56, 0
2, 692576, Note_on_c, 0, 61, 0
2, 692596, Note_on_c, 0, 53, 117
2, 692616, Note_on_c, 0, 35, 0
2, 692664, Note_on_c, 0, 44, 80
2, 692670, Note_on_c, 0, 56, 80
2, 692686, Note_on_c, 0, 53, 0
2, 692748, Note_on_c, 0, 61, 88
2, 692792, Note_on_c, 0, 44, 0
2, 692795, Note_on_c, 0, 56, 0
2, 692852, Note_on_c, 0, 65, 88
2, 692858, Note_on_c, 0, 35, 98
2, 692894, Note_on_c, 0, 61, 0
2, 692906, Note_on_c, 0, 65, 0
2, 692932, Note_on_c, 0, 56, 98
2, 692944, Note_on_c, 0, 35, 0
2, 693014, Note_on_c, 0, 44, 77
2, 693017, Note_on_c, 0, 61, 87
2, 693048, Note_on_c, 0, 56, 0
2, 693080, Note_on_c, 0, 65, 74
2, 693128, Note_on_c, 0, 44, 0
2, 693160, Note_on_c, 0, 61, 0
2, 693184, Note_on_c, 0, 68, 94
2, 693208, Note_on_c, 0, 35, 97
2, 693224, Note_on_c, 0, 65, 0
2, 693254, Note_on_c, 0, 61, 85
2, 693278, Note_on_c, 0, 68, 0
2, 693300, Note_on_c, 0, 35, 0
2, 693348, Note_on_c, 0, 65, 67
2, 693362, Note_on_c, 0, 44, 74
2, 693378, Note_on_c, 0, 61, 0
2, 693424, Note_on_c, 0, 68, 86
2, 693468, Note_on_c, 0, 44, 0
2, 693476, Note_on_c, 0, 65, 0
2, 693516, Note_on_c, 0, 73, 93
2, 693534, Note_on_c, 0, 35, 98
2, 693554, Note_on_c, 0, 68, 0
2, 693598, Note_on_c, 0, 35, 0
2, 693608, Note_on_c, 0, 73, 0
2, 693626, Note_on_c, 0, 65, 87
2, 693680, Note_on_c, 0, 44, 86
2, 693682, Note_on_c, 0, 68, 86
2, 693724, Note_on_c, 0, 65, 0
2, 693762, Note_on_c, 0, 73, 79
2, 693790, Note_on_c, 0, 44, 0
2, 693812, Note_on_c, 0, 68, 0
2, 693854, Note_on_c, 0, 35, 94
2, 693862, Note_on_c, 0, 77, 56
2, 693878, Note_on_c, 0, 73, 0
2, 693910, Note_on_c, 0, 77, 0
2, 693922, Note_on_c, 0, 68, 93
2, 693942, Note_on_c, 0, 35, 0
2, 693998, Note_on_c, 0, 73, 82
2, 694016, Note_on_c, 0, 44, 72
2, 694026, Note_on_c, 0, 68, 0
2, 694074, Note_on_c, 0, 77, 85
2, 694086, Note_on_c, 0, 44, 0
2, 694138, Note_on_c, 0, 73, 0
2, 694156, Note_on_c, 0, 80, 95
2, 694158, Note_on_c, 0, 35, 104
2, 694186, Note_on_c, 0, 77, 0
2, 694202, Note_on_c, 0, 73, 78
2, 694238, Note_on_c, 0, 80, 0
2, 694274, Note_on_c, 0, 35, 0
2, 694298, Note_on_c, 0, 77, 75
2, 694322, Note_on_c, 0, 44, 82
2, 694356, Note_on_c, 0, 73, 0
2, 694378, Note_on_c, 0, 80, 88
2, 694388, Note_on_c, 0, 44, 0
2, 694422, Note_on_c, 0, 80, 0
2, 694438, Note_on_c, 0, 77, 0
2, 694478, Note_on_c, 0, 77, 118
2, 694478, Note_on_c, 0, 35, 118
2, 694480, Note_on_c, 0, 47, 118
2, 694482, Note_on_c, 0, 80, 103
2, 694482, Note_on_c, 0, 73, 118
2, 694486, Note_on_c, 0, 85, 121
2, 694602, Note_on_c, 0, 35, 0
2, 694610, Note_on_c, 0, 85, 0
2, 694620, Note_on_c, 0, 77, 0
2, 694622, Note_on_c, 0, 73, 0
2, 694626, Note_on_c, 0, 80, 0
2, 694652, Control_c, 0, 64, 127
2, 694670, Note_on_c, 0, 85, 83
2, 694672, Note_on_c, 0, 73, 83
2, 694676, Note_on_c, 0, 44, 95
2, 694678, Note_on_c, 0, 77, 89
2, 694680, Note_on_c, 0, 80, 93
2, 694706, Note_on_c, 0, 85, 0
2, 694710, Note_on_c, 0, 77, 0
2, 694720, Note_on_c, 0, 80, 0
2, 694724, Note_on_c, 0, 47, 0
2, 694770, Note_on_c, 0, 73, 0
2, 694778, Note_on_c, 0, 44, 0
2, 694852, Control_c, 0, 64, 0
2, 694900, Note_on_c, 0, 33, 126
2, 694992, Note_on_c, 0, 49, 94
2, 695042, Note_on_c, 0, 33, 0
2, 695066, Note_on_c, 0, 54, 96
2, 695068, Note_on_c, 0, 45, 67
2, 695082, Control_c, 0, 64, 127
2, 695104, Note_on_c, 0, 49, 0
2, 695136, Note_on_c, 0, 57, 75
2, 695194, Note_on_c, 0, 45, 0
2, 695200, Note_on_c, 0, 54, 0
2, 695216, Note_on_c, 0, 61, 92
2, 695224, Note_on_c, 0, 33, 102
2, 695250, Note_on_c, 0, 57, 0
2, 695258, Note_on_c, 0, 61, 0
2, 695310, Note_on_c, 0, 61, 90
2, 695352, Note_on_c, 0, 33, 0
2, 695396, Note_on_c, 0, 45, 77
2, 695414, Note_on_c, 0, 66, 77
2, 695440, Note_on_c, 0, 61, 0
2, 695452, Control_c, 0, 64, 0
2, 695504, Note_on_c, 0, 69, 67
2, 695550, Note_on_c, 0, 45, 0
2, 695574, Note_on_c, 0, 33, 100
2, 695577, Note_on_c, 0, 73, 92
2, 695586, Note_on_c, 0, 66, 0
2, 695612, Note_on_c, 0, 73, 0
2, 695630, Note_on_c, 0, 69, 0
2, 695636, Control_c, 0, 64, 127
2, 695662, Note_on_c, 0, 73, 89
2, 695708, Note_on_c, 0, 33, 0
2, 695756, Note_on_c, 0, 78, 79
2, 695772, Note_on_c, 0, 45, 59
2, 695816, Note_on_c, 0, 73, 0
2, 695854, Note_on_c, 0, 81, 75
2, 695872, Note_on_c, 0, 78, 0
2, 695882, Control_c, 0, 64, 0
2, 695892, Note_on_c, 0, 45, 0
2, 695894, Note_on_c, 0, 81, 0
2, 695934, Note_on_c, 0, 33, 118
2, 695934, Note_on_c, 0, 78, 106
2, 695934, Note_on_c, 0, 73, 125
2, 695940, Note_on_c, 0, 85, 121
2, 696064, Note_on_c, 0, 85, 0
2, 696078, Note_on_c, 0, 73, 0
2, 696081, Note_on_c, 0, 78, 0
2, 696081, Control_c, 0, 64, 127
2, 696085, Note_on_c, 0, 33, 0
2, 696122, Note_on_c, 0, 85, 96
2, 696126, Note_on_c, 0, 73, 105
2, 696128, Note_on_c, 0, 78, 106
2, 696148, Note_on_c, 0, 45, 75
2, 696158, Note_on_c, 0, 85, 0
2, 696172, Note_on_c, 0, 78, 0
2, 696224, Note_on_c, 0, 73, 0
2, 696264, Note_on_c, 0, 45, 0
2, 696282, Control_c, 0, 64, 0
2, 696324, Note_on_c, 0, 33, 121
2, 696414, Note_on_c, 0, 49, 106
2, 696480, Note_on_c, 0, 33, 0
2, 696498, Note_on_c, 0, 52, 108
2, 696506, Note_on_c, 0, 49, 0
2, 696518, Note_on_c, 0, 45, 73
2, 696528, Control_c, 0, 64, 127
2, 696584, Note_on_c, 0, 55, 92
2, 696587, Control_c, 0, 64, 0
2, 696604, Note_on_c, 0, 52, 0
2, 696638, Note_on_c, 0, 45, 0
2, 696660, Note_on_c, 0, 61, 96
2, 696670, Note_on_c, 0, 33, 95
2, 696692, Note_on_c, 0, 55, 0
2, 696695, Note_on_c, 0, 61, 0
2, 696742, Note_on_c, 0, 61, 96
2, 696758, Control_c, 0, 64, 127
2, 696796, Note_on_c, 0, 33, 0
2, 696818, Control_c, 0, 64, 0
2, 696838, Note_on_c, 0, 64, 103
2, 696856, Note_on_c, 0, 45, 59
2, 696862, Note_on_c, 0, 61, 0
2, 696922, Note_on_c, 0, 67, 87
2, 696948, Note_on_c, 0, 64, 0
2, 696972, Control_c, 0, 64, 127
2, 696986, Note_on_c, 0, 45, 0
2, 697000, Note_on_c, 0, 73, 88
2, 697014, Note_on_c, 0, 33, 93
2, 697018, Control_c, 0, 64, 0
2, 697026, Note_on_c, 0, 67, 0
2, 697034, Note_on_c, 0, 73, 0
2, 697082, Note_on_c, 0, 73, 93
2, 697138, Note_on_c, 0, 33, 0
2, 697174, Note_on_c, 0, 76, 82
2, 697192, Note_on_c, 0, 45, 70
2, 697210, Note_on_c, 0, 73, 0
2, 697232, Note_on_c, 0, 79, 97
2, 697264, Note_on_c, 0, 76, 0
2, 697267, Note_on_c, 0, 79, 0
2, 697270, Note_on_c, 0, 45, 0
2, 697348, Note_on_c, 0, 79, 72
2, 697350, Note_on_c, 0, 73, 123
2, 697356, Note_on_c, 0, 45, 93
2, 697358, Note_on_c, 0, 85, 123
2, 697362, Note_on_c, 0, 33, 118
2, 697456, Note_on_c, 0, 45, 0
2, 697464, Note_on_c, 0, 33, 0
2, 697490, Note_on_c, 0, 85, 0
2, 697492, Note_on_c, 0, 73, 0
2, 697496, Note_on_c, 0, 79, 0
2, 697568, Note_on_c, 0, 79, 112
2, 697568, Note_on_c, 0, 85, 102
2, 697571, Note_on_c, 0, 73, 109
2, 697584, Note_on_c, 0, 45, 97
2, 697588, Note_on_c, 0, 33, 111
2, 697602, Control_c, 0, 64, 127
2, 697630, Note_on_c, 0, 45, 0
2, 697632, Note_on_c, 0, 33, 0
2, 697648, Control_c, 0, 64, 0
2, 697718, Note_on_c, 0, 73, 0
2, 697742, Note_on_c, 0, 85, 0
2, 697750, Note_on_c, 0, 79, 0
2, 697812, Note_on_c, 0, 80, 105
2, 697814, Note_on_c, 0, 72, 127
2, 697814, Note_on_c, 0, 84, 124
2, 697818, Note_on_c, 0, 44, 121
2, 697820, Note_on_c, 0, 32, 97
2, 697850, Note_on_c, 0, 32, 0
2, 697858, Note_on_c, 0, 44, 0
2, 697886, Note_on_c, 0, 80, 0
2, 697892, Note_on_c, 0, 84, 0
2, 697892, Note_on_c, 0, 72, 0
2, 697895, Control_c, 0, 64, 127
2, 698110, Note_on_c, 0, 56, 90
2, 698115, Note_on_c, 0, 68, 90
2, 698115, Note_on_c, 0, 60, 77
2, 698176, Note_on_c, 0, 60, 0
2, 698214, Note_on_c, 0, 80, 81
2, 698217, Note_on_c, 0, 68, 0
2, 698264, Control_c, 0, 64, 0
2, 698308, Note_on_c, 0, 60, 82
2, 698312, Note_on_c, 0, 68, 80
2, 698328, Note_on_c, 0, 80, 0
2, 698404, Note_on_c, 0, 80, 67
2, 698418, Note_on_c, 0, 68, 0
2, 698462, Control_c, 0, 64, 127
2, 698508, Note_on_c, 0, 60, 0
2, 698522, Note_on_c, 0, 80, 0
2, 698522, Note_on_c, 0, 70, 67
2, 698522, Note_on_c, 0, 61, 70
2, 698606, Note_on_c, 0, 80, 56
2, 698628, Note_on_c, 0, 70, 0
2, 698694, Control_c, 0, 64, 0
2, 698720, Note_on_c, 0, 80, 0
2, 698720, Note_on_c, 0, 72, 75
2, 698738, Note_on_c, 0, 63, 71
2, 698788, Note_on_c, 0, 61, 0
2, 698806, Note_on_c, 0, 80, 52
2, 698852, Note_on_c, 0, 72, 0
2, 698908, Control_c, 0, 64, 127
2, 698913, Note_on_c, 0, 73, 71
2, 698917, Note_on_c, 0, 63, 0
2, 698917, Note_on_c, 0, 80, 0
2, 698917, Note_on_c, 0, 64, 73
2, 699004, Note_on_c, 0, 80, 64
2, 699030, Note_on_c, 0, 73, 0
2, 699108, Note_on_c, 0, 75, 79
2, 699108, Control_c, 0, 64, 0
2, 699111, Note_on_c, 0, 80, 0
2, 699111, Note_on_c, 0, 66, 71
2, 699140, Note_on_c, 0, 64, 0
2, 699180, Note_on_c, 0, 80, 72
2, 699218, Note_on_c, 0, 75, 0
2, 699282, Note_on_c, 0, 72, 87
2, 699292, Note_on_c, 0, 80, 0
2, 699292, Control_c, 0, 64, 127
2, 699292, Note_on_c, 0, 63, 74
2, 699316, Note_on_c, 0, 66, 0
2, 699378, Note_on_c, 0, 80, 67
2, 699396, Note_on_c, 0, 72, 0
2, 699472, Note_on_c, 0, 75, 78
2, 699482, Note_on_c, 0, 80, 0
2, 699490, Note_on_c, 0, 66, 80
2, 699496, Note_on_c, 0, 63, 0
2, 699554, Control_c, 0, 64, 0
2, 699574, Note_on_c, 0, 80, 65
2, 699614, Note_on_c, 0, 75, 0
2, 699646, Note_on_c, 0, 73, 82
2, 699666, Note_on_c, 0, 64, 82
2, 699676, Note_on_c, 0, 80, 0
2, 699722, Control_c, 0, 64, 127
2, 699736, Note_on_c, 0, 66, 0
2, 699744, Note_on_c, 0, 80, 86
2, 699748, Note_on_c, 0, 73, 0
2, 699790, Note_on_c, 0, 64, 0
2, 699798, Note_on_c, 0, 56, 0
2, 699838, Note_on_c, 0, 78, 90
2, 699844, Note_on_c, 0, 69, 66
2, 699870, Note_on_c, 0, 80, 0
2, 699938, Note_on_c, 0, 80, 77
2, 699984, Note_on_c, 0, 78, 0
2, 700012, Note_on_c, 0, 76, 83
2, 700018, Note_on_c, 0, 68, 83
2, 700032, Note_on_c, 0, 69, 0
2, 700046, Note_on_c, 0, 80, 0
2, 700104, Note_on_c, 0, 80, 90
2, 700122, Note_on_c, 0, 76, 0
2, 700160, Note_on_c, 0, 68, 0
2, 700196, Note_on_c, 0, 75, 89
2, 700198, Note_on_c, 0, 80, 0
2, 700204, Note_on_c, 0, 66, 67
2, 700292, Note_on_c, 0, 80, 75
2, 700306, Note_on_c, 0, 75, 0
2, 700334, Note_on_c, 0, 66, 0
2, 700384, Note_on_c, 0, 73, 83
2, 700392, Note_on_c, 0, 80, 0
2, 700412, Note_on_c, 0, 64, 82
2, 700474, Note_on_c, 0, 80, 62
2, 700494, Note_on_c, 0, 73, 0
2, 700546, Note_on_c, 0, 64, 0
2, 700566, Note_on_c, 0, 72, 83
2, 700580, Note_on_c, 0, 80, 0
2, 700586, Note_on_c, 0, 63, 87
2, 700642, Note_on_c, 0, 80, 83
2, 700648, Note_on_c, 0, 63, 0
2, 700660, Note_on_c, 0, 72, 0
2, 700754, Note_on_c, 0, 69, 83
2, 700758, Note_on_c, 0, 80, 0
2, 700766, Note_on_c, 0, 61, 87
2, 700810, Note_on_c, 0, 61, 0
2, 700822, Note_on_c, 0, 69, 0
2, 700854, Note_on_c, 0, 79, 90
2, 700920, Note_on_c, 0, 79, 0
2, 700942, Note_on_c, 0, 68, 90
2, 700948, Note_on_c, 0, 56, 101
2, 700954, Note_on_c, 0, 60, 74
2, 701002, Note_on_c, 0, 60, 0
2, 701028, Note_on_c, 0, 68, 0
2, 701030, Control_c, 0, 64, 0
2, 701042, Note_on_c, 0, 80, 87
2, 701148, Note_on_c, 0, 68, 88
2, 701158, Note_on_c, 0, 80, 0
2, 701158, Note_on_c, 0, 60, 90
2, 701212, Note_on_c, 0, 68, 0
2, 701228, Note_on_c, 0, 80, 71
2, 701230, Note_on_c, 0, 60, 0
2, 701274, Control_c, 0, 64, 127
2, 701330, Note_on_c, 0, 80, 0
2, 701340, Note_on_c, 0, 68, 83
2, 701360, Note_on_c, 0, 60, 50
2, 701396, Note_on_c, 0, 68, 0
2, 701436, Note_on_c, 0, 80, 55
2, 701508, Note_on_c, 0, 60, 0
2, 701508, Note_on_c, 0, 70, 66
2, 701522, Note_on_c, 0, 61, 64
2, 701546, Note_on_c, 0, 80, 0
2, 701592, Note_on_c, 0, 70, 0
2, 701622, Note_on_c, 0, 80, 62
2, 701720, Note_on_c, 0, 72, 69
2, 701724, Note_on_c, 0, 63, 81
2, 701738, Note_on_c, 0, 80, 0
2, 701780, Note_on_c, 0, 61, 0
2, 701812, Note_on_c, 0, 80, 70
2, 701828, Control_c, 0, 64, 0
2, 701834, Note_on_c, 0, 72, 0
2, 701876, Note_on_c, 0, 63, 0
2, 701884, Note_on_c, 0, 73, 78
2, 701890, Note_on_c, 0, 64, 78
2, 701928, Note_on_c, 0, 80, 0
2, 701994, Note_on_c, 0, 80, 77
2, 702012, Control_c, 0, 64, 127
2, 702016, Note_on_c, 0, 73, 0
2, 702072, Note_on_c, 0, 75, 85
2, 702074, Note_on_c, 0, 66, 79
2, 702100, Note_on_c, 0, 64, 0
2, 702104, Note_on_c, 0, 80, 0
2, 702170, Note_on_c, 0, 80, 82
2, 702186, Note_on_c, 0, 75, 0
2, 702242, Note_on_c, 0, 66, 0
2, 702248, Note_on_c, 0, 63, 89
2, 702250, Note_on_c, 0, 72, 89
2, 702290, Control_c, 0, 64, 0
2, 702308, Note_on_c, 0, 80, 0
2, 702356, Note_on_c, 0, 72, 0
2, 702364, Note_on_c, 0, 80, 100
2, 702412, Control_c, 0, 64, 127
2, 702438, Note_on_c, 0, 75, 93
2, 702438, Note_on_c, 0, 66, 81
2, 702446, Note_on_c, 0, 63, 0
2, 702464, Note_on_c, 0, 80, 0
2, 702520, Control_c, 0, 64, 0
2, 702538, Note_on_c, 0, 80, 86
2, 702580, Note_on_c, 0, 75, 0
2, 702608, Note_on_c, 0, 73, 90
2, 702626, Note_on_c, 0, 64, 83
2, 702636, Note_on_c, 0, 80, 0
2, 702694, Note_on_c, 0, 66, 0
2, 702697, Note_on_c, 0, 80, 90
2, 702704, Control_c, 0, 64, 127
2, 702714, Note_on_c, 0, 73, 0
2, 702760, Note_on_c, 0, 56, 0
2, 702774, Note_on_c, 0, 64, 0
2, 702790, Note_on_c, 0, 78, 95
2, 702798, Note_on_c, 0, 69, 81
2, 702816, Note_on_c, 0, 80, 0
2, 702888, Note_on_c, 0, 80, 77
2, 702962, Note_on_c, 0, 76, 94
2, 702965, Note_on_c, 0, 78, 0
2, 702980, Note_on_c, 0, 80, 0
2, 702980, Note_on_c, 0, 68, 85
2, 703002, Note_on_c, 0, 69, 0
2, 703060, Note_on_c, 0, 80, 75
2, 703090, Note_on_c, 0, 76, 0
2, 703110, Note_on_c, 0, 68, 0
2, 703138, Note_on_c, 0, 75, 90
2, 703154, Note_on_c, 0, 80, 0
2, 703166, Note_on_c, 0, 66, 80
2, 703234, Note_on_c, 0, 80, 78
2, 703252, Note_on_c, 0, 75, 0
2, 703255, Note_on_c, 0, 66, 0
2, 703320, Note_on_c, 0, 73, 90
2, 703330, Note_on_c, 0, 80, 0
2, 703334, Note_on_c, 0, 64, 96
2, 703408, Note_on_c, 0, 80, 77
2, 703426, Note_on_c, 0, 73, 0
2, 703486, Note_on_c, 0, 64, 0
2, 703510, Note_on_c, 0, 72, 89
2, 703514, Note_on_c, 0, 80, 0
2, 703516, Note_on_c, 0, 63, 95
2, 703582, Note_on_c, 0, 80, 80
2, 703604, Note_on_c, 0, 63, 0
2, 703608, Note_on_c, 0, 72, 0
2, 703680, Note_on_c, 0, 61, 86
2, 703682, Note_on_c, 0, 69, 88
2, 703714, Note_on_c, 0, 80, 0
2, 703722, Note_on_c, 0, 61, 0
2, 703758, Note_on_c, 0, 69, 0
2, 703782, Note_on_c, 0, 79, 92
2, 703856, Note_on_c, 0, 60, 100
2, 703860, Note_on_c, 0, 68, 96
2, 703866, Note_on_c, 0, 56, 88
2, 703872, Control_c, 0, 64, 0
2, 703874, Note_on_c, 0, 79, 0
2, 703906, Note_on_c, 0, 60, 0
2, 703918, Note_on_c, 0, 56, 0
2, 703964, Note_on_c, 0, 80, 93
2, 703966, Note_on_c, 0, 68, 0
2, 704038, Note_on_c, 0, 80, 0
2, 704040, Note_on_c, 0, 69, 72
2, 704042, Note_on_c, 0, 61, 94
2, 704046, Note_on_c, 0, 56, 78
2, 704080, Note_on_c, 0, 61, 0
2, 704086, Note_on_c, 0, 56, 0
2, 704122, Note_on_c, 0, 79, 90
2, 704130, Note_on_c, 0, 69, 0
2, 704198, Note_on_c, 0, 79, 0
2, 704212, Note_on_c, 0, 60, 100
2, 704218, Note_on_c, 0, 68, 95
2, 704226, Note_on_c, 0, 56, 79
2, 704264, Note_on_c, 0, 60, 0
2, 704284, Note_on_c, 0, 56, 0
2, 704314, Note_on_c, 0, 80, 79
2, 704318, Note_on_c, 0, 68, 0
2, 704362, Note_on_c, 0, 80, 0
2, 704379, Note_on_c, 0, 61, 101
2, 704380, Note_on_c, 0, 69, 89
2, 704390, Note_on_c, 0, 56, 79
2, 704432, Note_on_c, 0, 69, 0
2, 704436, Note_on_c, 0, 61, 0
2, 704450, Note_on_c, 0, 56, 0
2, 704480, Note_on_c, 0, 79, 95
2, 704554, Note_on_c, 0, 68, 103
2, 704556, Note_on_c, 0, 60, 100
2, 704564, Note_on_c, 0, 56, 85
2, 704577, Note_on_c, 0, 79, 0
2, 704617, Note_on_c, 0, 56, 0
2, 704624, Note_on_c, 0, 60, 0
2, 704656, Note_on_c, 0, 80, 109
2, 704664, Note_on_c, 0, 68, 0
2, 704728, Note_on_c, 0, 80, 0
2, 704740, Note_on_c, 0, 69, 92
2, 704758, Note_on_c, 0, 56, 89
2, 704758, Note_on_c, 0, 61, 94
2, 704806, Note_on_c, 0, 61, 0
2, 704826, Note_on_c, 0, 56, 0
2, 704834, Note_on_c, 0, 69, 0
2, 704836, Note_on_c, 0, 79, 101
2, 704912, Note_on_c, 0, 68, 110
2, 704916, Note_on_c, 0, 56, 83
2, 704922, Note_on_c, 0, 60, 102
2, 704942, Note_on_c, 0, 79, 0
2, 704978, Note_on_c, 0, 56, 0
2, 705001, Note_on_c, 0, 60, 0
2, 705008, Note_on_c, 0, 68, 0
2, 705028, Note_on_c, 0, 80, 92
2, 705092, Note_on_c, 0, 69, 85
2, 705096, Note_on_c, 0, 80, 0
2, 705118, Note_on_c, 0, 56, 93
2, 705124, Note_on_c, 0, 61, 95
2, 705166, Note_on_c, 0, 61, 0
2, 705178, Note_on_c, 0, 69, 0
2, 705180, Note_on_c, 0, 56, 0
2, 705200, Note_on_c, 0, 79, 92
2, 705268, Note_on_c, 0, 79, 0
2, 705278, Note_on_c, 0, 80, 118
2, 705278, Note_on_c, 0, 68, 103
2, 705286, Note_on_c, 0, 56, 105
2, 705294, Note_on_c, 0, 60, 116
2, 705346, Note_on_c, 0, 80, 0
2, 705378, Note_on_c, 0, 68, 0
2, 705378, Note_on_c, 0, 60, 0
2, 705390, Note_on_c, 0, 56, 0
2, 705392, Control_c, 0, 64, 127
2, 705546, Control_c, 0, 64, 0
2, 705724, Note_on_c, 0, 56, 116
2, 705728, Note_on_c, 0, 44, 112
2, 705732, Note_on_c, 0, 32, 106
2, 707560, Control_c, 0, 64, 127
2, 707854, Note_on_c, 0, 32, 0
2, 707894, Note_on_c, 0, 44, 0
2, 708140, Note_on_c, 0, 56, 0
2, 708588, Control_c, 0, 64, 0
2, 708724, Note_on_c, 0, 49, 44
2, 708886, Note_on_c, 0, 56, 41
2, 708926, Control_c, 0, 64, 127
2, 708962, Note_on_c, 0, 56, 0
2, 709016, Note_on_c, 0, 52, 39
2, 709064, Note_on_c, 0, 49, 0
2, 709102, Note_on_c, 0, 52, 0
2, 709142, Note_on_c, 0, 56, 31
2, 709238, Note_on_c, 0, 56, 0
2, 709306, Note_on_c, 0, 68, 94
2, 709360, Note_on_c, 0, 49, 32
2, 709488, Note_on_c, 0, 49, 0
2, 709488, Note_on_c, 0, 56, 23
2, 709566, Note_on_c, 0, 56, 0
2, 709586, Note_on_c, 0, 52, 36
2, 709650, Note_on_c, 0, 56, 47
2, 709662, Note_on_c, 0, 52, 0
2, 709726, Note_on_c, 0, 56, 0
2, 709778, Note_on_c, 0, 49, 48
2, 709856, Note_on_c, 0, 49, 0
2, 709878, Note_on_c, 0, 56, 50
2, 709946, Note_on_c, 0, 56, 0
2, 709994, Note_on_c, 0, 52, 50
2, 710052, Note_on_c, 0, 52, 0
2, 710100, Note_on_c, 0, 56, 41
2, 710150, Note_on_c, 0, 64, 92
2, 710178, Note_on_c, 0, 56, 0
2, 710206, Note_on_c, 0, 49, 41
2, 710232, Control_c, 0, 64, 0
2, 710264, Note_on_c, 0, 68, 0
2, 710326, Note_on_c, 0, 56, 36
2, 710382, Note_on_c, 0, 61, 85
2, 710406, Note_on_c, 0, 56, 0
2, 710418, Control_c, 0, 64, 127
2, 710474, Note_on_c, 0, 52, 29
2, 710477, Note_on_c, 0, 60, 94
2, 710482, Note_on_c, 0, 61, 0
2, 710488, Note_on_c, 0, 64, 0
2, 710546, Note_on_c, 0, 52, 0
2, 710554, Note_on_c, 0, 61, 83
2, 710562, Note_on_c, 0, 56, 35
2, 710586, Note_on_c, 0, 60, 0
2, 710616, Control_c, 0, 64, 0
2, 710620, Note_on_c, 0, 63, 89
2, 710660, Note_on_c, 0, 56, 0
2, 710663, Note_on_c, 0, 61, 0
2, 710678, Note_on_c, 0, 49, 0
2, 710702, Note_on_c, 0, 61, 85
2, 710730, Note_on_c, 0, 51, 37
2, 710776, Note_on_c, 0, 63, 0
2, 710832, Note_on_c, 0, 56, 40
2, 710920, Note_on_c, 0, 56, 0
2, 710950, Note_on_c, 0, 54, 46
2, 710970, Control_c, 0, 64, 127
2, 711008, Note_on_c, 0, 51, 0
2, 711044, Note_on_c, 0, 54, 0
2, 711054, Note_on_c, 0, 56, 29
2, 711136, Note_on_c, 0, 56, 0
2, 711150, Note_on_c, 0, 60, 73
2, 711204, Note_on_c, 0, 51, 26
2, 711248, Control_c, 0, 64, 0
2, 711292, Note_on_c, 0, 56, 41
2, 711328, Note_on_c, 0, 61, 0
2, 711362, Note_on_c, 0, 56, 0
2, 711380, Note_on_c, 0, 54, 54
2, 711424, Note_on_c, 0, 51, 0
2, 711462, Control_c, 0, 64, 127
2, 711465, Note_on_c, 0, 54, 0
2, 711476, Note_on_c, 0, 56, 31
2, 711564, Note_on_c, 0, 56, 0
2, 711596, Note_on_c, 0, 51, 44
2, 711666, Note_on_c, 0, 60, 0
2, 711678, Note_on_c, 0, 51, 0
2, 711678, Note_on_c, 0, 56, 46
2, 711738, Note_on_c, 0, 60, 87
2, 711776, Note_on_c, 0, 56, 0
2, 711804, Note_on_c, 0, 54, 46
2, 711876, Note_on_c, 0, 54, 0
2, 711906, Note_on_c, 0, 56, 36
2, 711964, Note_on_c, 0, 68, 82
2, 711976, Note_on_c, 0, 56, 0
2, 711984, Control_c, 0, 64, 0
2, 712014, Note_on_c, 0, 51, 47
2, 712026, Note_on_c, 0, 60, 0
2, 712098, Note_on_c, 0, 56, 44
2, 712186, Note_on_c, 0, 56, 0
2, 712200, Control_c, 0, 64, 127
2, 712203, Note_on_c, 0, 54, 58
2, 712262, Note_on_c, 0, 54, 0
2, 712280, Note_on_c, 0, 60, 83
2, 712294, Note_on_c, 0, 51, 0
2, 712318, Note_on_c, 0, 56, 41
2, 712364, Note_on_c, 0, 60, 0
2, 712378, Note_on_c, 0, 63, 92
2, 712388, Note_on_c, 0, 56, 0
2, 712428, Note_on_c, 0, 52, 47
2, 712438, Note_on_c, 0, 68, 0
2, 712480, Note_on_c, 0, 52, 0
2, 712514, Note_on_c, 0, 56, 42
2, 712568, Control_c, 0, 64, 0
2, 712586, Note_on_c, 0, 56, 0
2, 712592, Note_on_c, 0, 52, 47
2, 712676, Note_on_c, 0, 52, 0
2, 712688, Note_on_c, 0, 56, 50
2, 712768, Control_c, 0, 64, 127
2, 712792, Note_on_c, 0, 52, 48
2, 712796, Note_on_c, 0, 56, 0
2, 712806, Note_on_c, 0, 61, 71
2, 712860, Note_on_c, 0, 52, 0
2, 712890, Note_on_c, 0, 56, 47
2, 712950, Note_on_c, 0, 63, 0
2, 712984, Control_c, 0, 64, 0
2, 712987, Note_on_c, 0, 56, 0
2, 713006, Note_on_c, 0, 52, 49
2, 713068, Note_on_c, 0, 52, 0
2, 713096, Note_on_c, 0, 56, 46
2, 713166, Control_c, 0, 64, 127
2, 713180, Note_on_c, 0, 56, 0
2, 713202, Note_on_c, 0, 52, 52
2, 713266, Note_on_c, 0, 52, 0
2, 713272, Note_on_c, 0, 61, 0
2, 713302, Note_on_c, 0, 56, 50
2, 713384, Note_on_c, 0, 61, 89
2, 713392, Note_on_c, 0, 56, 0
2, 713424, Note_on_c, 0, 52, 55
2, 713478, Note_on_c, 0, 52, 0
2, 713518, Note_on_c, 0, 56, 47
2, 713600, Note_on_c, 0, 56, 0
2, 713608, Note_on_c, 0, 68, 87
2, 713644, Control_c, 0, 64, 0
2, 713654, Note_on_c, 0, 52, 62
2, 713657, Note_on_c, 0, 61, 0
2, 713704, Note_on_c, 0, 52, 0
2, 713742, Note_on_c, 0, 56, 63
2, 713810, Note_on_c, 0, 56, 0
2, 713828, Note_on_c, 0, 52, 50
2, 713844, Control_c, 0, 64, 127
2, 713886, Note_on_c, 0, 52, 0
2, 713920, Note_on_c, 0, 61, 87
2, 713924, Note_on_c, 0, 56, 58
2, 714022, Note_on_c, 0, 68, 0
2, 714036, Note_on_c, 0, 56, 0
2, 714040, Note_on_c, 0, 64, 95
2, 714054, Note_on_c, 0, 61, 0
2, 714054, Control_c, 0, 64, 0
2, 714057, Note_on_c, 0, 48, 50
2, 714132, Note_on_c, 0, 48, 0
2, 714154, Note_on_c, 0, 56, 49
2, 714262, Note_on_c, 0, 48, 42
2, 714274, Note_on_c, 0, 56, 0
2, 714274, Control_c, 0, 64, 127
2, 714346, Note_on_c, 0, 48, 0
2, 714352, Note_on_c, 0, 56, 54
2, 714454, Note_on_c, 0, 56, 0
2, 714480, Note_on_c, 0, 63, 70
2, 714488, Note_on_c, 0, 48, 27
2, 714560, Note_on_c, 0, 48, 0
2, 714588, Note_on_c, 0, 56, 51
2, 714588, Control_c, 0, 64, 0
2, 714604, Note_on_c, 0, 64, 0
2, 714680, Note_on_c, 0, 56, 0
2, 714700, Note_on_c, 0, 48, 27
2, 714776, Note_on_c, 0, 48, 0
2, 714780, Control_c, 0, 64, 127
2, 714802, Note_on_c, 0, 56, 47
2, 714896, Note_on_c, 0, 56, 0
2, 714916, Note_on_c, 0, 48, 26
2, 714928, Note_on_c, 0, 63, 0
2, 714994, Note_on_c, 0, 48, 0
2, 715026, Note_on_c, 0, 56, 41
2, 715110, Note_on_c, 0, 56, 0
2, 715132, Note_on_c, 0, 63, 71
2, 715166, Note_on_c, 0, 48, 28
2, 715236, Note_on_c, 0, 48, 0
2, 715268, Note_on_c, 0, 56, 51
2, 715358, Note_on_c, 0, 56, 0
2, 715404, Note_on_c, 0, 68, 51
2, 715420, Note_on_c, 0, 48, 29
2, 715426, Control_c, 0, 64, 0
2, 715436, Note_on_c, 0, 63, 0
2, 715498, Note_on_c, 0, 48, 0
2, 715516, Note_on_c, 0, 56, 48
2, 715564, Control_c, 0, 64, 127
2, 715586, Note_on_c, 0, 56, 0
2, 715612, Note_on_c, 0, 48, 24
2, 715714, Note_on_c, 0, 48, 0
2, 715738, Note_on_c, 0, 68, 0
2, 715740, Note_on_c, 0, 63, 69
2, 715750, Note_on_c, 0, 56, 47
2, 715764, Control_c, 0, 64, 0
2, 715798, Note_on_c, 0, 63, 0
2, 715844, Note_on_c, 0, 56, 0
2, 715886, Note_on_c, 0, 49, 46
2, 715886, Note_on_c, 0, 64, 78
2, 715978, Control_c, 0, 64, 127
2, 715984, Note_on_c, 0, 64, 0
2, 716024, Note_on_c, 0, 56, 41
2, 716104, Note_on_c, 0, 56, 0
2, 716146, Note_on_c, 0, 49, 0
2, 716172, Note_on_c, 0, 80, 93
2, 716182, Note_on_c, 0, 68, 65
2, 716192, Note_on_c, 0, 52, 34
2, 716266, Note_on_c, 0, 52, 0
2, 716294, Note_on_c, 0, 56, 44
2, 716364, Control_c, 0, 64, 0
2, 716370, Note_on_c, 0, 56, 0
2, 716394, Note_on_c, 0, 49, 59
2, 716492, Note_on_c, 0, 68, 0
2, 716495, Note_on_c, 0, 49, 0
2, 716498, Note_on_c, 0, 80, 0
2, 716510, Note_on_c, 0, 56, 46
2, 716548, Control_c, 0, 64, 127
2, 716584, Note_on_c, 0, 56, 0
2, 716616, Note_on_c, 0, 80, 71
2, 716622, Note_on_c, 0, 52, 54
2, 716625, Note_on_c, 0, 68, 66
2, 716678, Note_on_c, 0, 52, 0
2, 716726, Note_on_c, 0, 56, 48
2, 716732, Control_c, 0, 64, 0
2, 716808, Note_on_c, 0, 56, 0
2, 716813, Note_on_c, 0, 49, 58
2, 716880, Note_on_c, 0, 80, 0
2, 716883, Note_on_c, 0, 68, 0
2, 716894, Note_on_c, 0, 49, 0
2, 716902, Control_c, 0, 64, 127
2, 716936, Note_on_c, 0, 56, 37
2, 717018, Note_on_c, 0, 56, 0
2, 717036, Note_on_c, 0, 68, 72
2, 717036, Note_on_c, 0, 80, 85
2, 717072, Note_on_c, 0, 52, 48
2, 717082, Note_on_c, 0, 80, 0
2, 717086, Note_on_c, 0, 68, 0
2, 717132, Note_on_c, 0, 52, 0
2, 717160, Note_on_c, 0, 56, 55
2, 717236, Note_on_c, 0, 56, 0
2, 717250, Note_on_c, 0, 76, 90
2, 717252, Note_on_c, 0, 64, 96
2, 717276, Note_on_c, 0, 49, 47
2, 717288, Note_on_c, 0, 76, 0
2, 717294, Note_on_c, 0, 64, 0
2, 717386, Note_on_c, 0, 49, 0
2, 717386, Note_on_c, 0, 56, 50
2, 717444, Note_on_c, 0, 56, 0
2, 717452, Note_on_c, 0, 61, 92
2, 717454, Note_on_c, 0, 73, 82
2, 717462, Note_on_c, 0, 52, 67
2, 717508, Note_on_c, 0, 61, 0
2, 717520, Note_on_c, 0, 52, 0
2, 717520, Note_on_c, 0, 73, 0
2, 717562, Control_c, 0, 64, 0
2, 717574, Note_on_c, 0, 56, 50
2, 717686, Note_on_c, 0, 73, 89
2, 717686, Note_on_c, 0, 61, 89
2, 717700, Note_on_c, 0, 56, 0
2, 717708, Note_on_c, 0, 51, 55
2, 717798, Note_on_c, 0, 56, 44
2, 717808, Control_c, 0, 64, 127
2, 717822, Note_on_c, 0, 61, 0
2, 717860, Note_on_c, 0, 73, 0
2, 717928, Note_on_c, 0, 56, 0
2, 717931, Control_c, 0, 64, 0
2, 717944, Note_on_c, 0, 60, 72
2, 717946, Note_on_c, 0, 72, 78
2, 717949, Note_on_c, 0, 54, 55
2, 718002, Note_on_c, 0, 51, 0
2, 718040, Note_on_c, 0, 54, 0
2, 718042, Note_on_c, 0, 56, 43
2, 718126, Note_on_c, 0, 56, 0
2, 718150, Note_on_c, 0, 51, 57
2, 718162, Control_c, 0, 64, 127
2, 718196, Note_on_c, 0, 60, 0
2, 718212, Note_on_c, 0, 72, 0
2, 718216, Note_on_c, 0, 51, 0
2, 718232, Note_on_c, 0, 56, 54
2, 718322, Note_on_c, 0, 56, 0
2, 718340, Note_on_c, 0, 60, 87
2, 718348, Note_on_c, 0, 54, 59
2, 718352, Note_on_c, 0, 72, 81
2, 718376, Control_c, 0, 64, 0
2, 718418, Note_on_c, 0, 54, 0
2, 718446, Note_on_c, 0, 56, 50
2, 718513, Note_on_c, 0, 56, 0
2, 718534, Note_on_c, 0, 51, 64
2, 718576, Control_c, 0, 64, 127
2, 718582, Note_on_c, 0, 60, 0
2, 718596, Note_on_c, 0, 72, 0
2, 718606, Note_on_c, 0, 51, 0
2, 718628, Note_on_c, 0, 56, 57
2, 718684, Control_c, 0, 64, 0
2, 718720, Note_on_c, 0, 56, 0
2, 718734, Note_on_c, 0, 60, 83
2, 718737, Note_on_c, 0, 72, 86
2, 718740, Note_on_c, 0, 54, 65
2, 718778, Note_on_c, 0, 60, 0
2, 718784, Note_on_c, 0, 72, 0
2, 718790, Control_c, 0, 64, 127
2, 718802, Note_on_c, 0, 54, 0
2, 718848, Note_on_c, 0, 56, 62
2, 718918, Note_on_c, 0, 56, 0
2, 718952, Note_on_c, 0, 80, 108
2, 718955, Note_on_c, 0, 68, 86
2, 718970, Note_on_c, 0, 51, 58
2, 718984, Note_on_c, 0, 80, 0
2, 719002, Note_on_c, 0, 68, 0
2, 719052, Note_on_c, 0, 56, 69
2, 719070, Note_on_c, 0, 51, 0
2, 719122, Note_on_c, 0, 56, 0
2, 719154, Note_on_c, 0, 60, 104
2, 719154, Note_on_c, 0, 72, 98
2, 719157, Note_on_c, 0, 54, 74
2, 719192, Note_on_c, 0, 72, 0
2, 719192, Note_on_c, 0, 60, 0
2, 719228, Note_on_c, 0, 54, 0
2, 719264, Note_on_c, 0, 56, 60
2, 719330, Note_on_c, 0, 56, 0
2, 719356, Note_on_c, 0, 75, 105
2, 719358, Note_on_c, 0, 63, 105
2, 719372, Note_on_c, 0, 52, 67
2, 719418, Note_on_c, 0, 52, 0
2, 719456, Note_on_c, 0, 63, 0
2, 719459, Note_on_c, 0, 56, 71
2, 719472, Note_on_c, 0, 75, 0
2, 719540, Note_on_c, 0, 56, 0
2, 719572, Note_on_c, 0, 52, 63
2, 719572, Note_on_c, 0, 73, 90
2, 719576, Note_on_c, 0, 61, 90
2, 719590, Control_c, 0, 64, 0
2, 719630, Note_on_c, 0, 52, 0
2, 719668, Note_on_c, 0, 56, 71
2, 719738, Note_on_c, 0, 56, 0
2, 719768, Note_on_c, 0, 52, 79
2, 719806, Control_c, 0, 64, 127
2, 719820, Note_on_c, 0, 52, 0
2, 719832, Note_on_c, 0, 61, 0
2, 719842, Note_on_c, 0, 73, 0
2, 719858, Note_on_c, 0, 56, 69
2, 719944, Note_on_c, 0, 56, 0
2, 719960, Note_on_c, 0, 73, 81
2, 719968, Note_on_c, 0, 52, 88
2, 719970, Note_on_c, 0, 61, 87
2, 720016, Note_on_c, 0, 52, 0
2, 720036, Control_c, 0, 64, 0
2, 720064, Note_on_c, 0, 56, 71
2, 720166, Note_on_c, 0, 56, 0
2, 720166, Note_on_c, 0, 52, 95
2, 720196, Note_on_c, 0, 61, 0
2, 720208, Note_on_c, 0, 73, 0
2, 720216, Note_on_c, 0, 52, 0
2, 720220, Control_c, 0, 64, 127
2, 720256, Note_on_c, 0, 56, 69
2, 720348, Note_on_c, 0, 73, 97
2, 720348, Note_on_c, 0, 61, 96
2, 720364, Note_on_c, 0, 56, 0
2, 720367, Note_on_c, 0, 52, 92
2, 720386, Note_on_c, 0, 61, 0
2, 720422, Note_on_c, 0, 52, 0
2, 720452, Note_on_c, 0, 73, 0
2, 720454, Note_on_c, 0, 56, 59
2, 720540, Note_on_c, 0, 68, 106
2, 720540, Note_on_c, 0, 80, 115
2, 720550, Note_on_c, 0, 56, 0
2, 720572, Note_on_c, 0, 52, 87
2, 720596, Note_on_c, 0, 80, 0
2, 720626, Note_on_c, 0, 52, 0
2, 720626, Note_on_c, 0, 68, 0
2, 720654, Note_on_c, 0, 56, 67
2, 720744, Note_on_c, 0, 61, 111
2, 720746, Note_on_c, 0, 73, 103
2, 720748, Note_on_c, 0, 56, 0
2, 720770, Note_on_c, 0, 52, 80
2, 720802, Note_on_c, 0, 61, 0
2, 720826, Note_on_c, 0, 52, 0
2, 720848, Note_on_c, 0, 56, 65
2, 720862, Note_on_c, 0, 73, 0
2, 720944, Note_on_c, 0, 76, 121
2, 720954, Note_on_c, 0, 64, 108
2, 720960, Note_on_c, 0, 56, 0
2, 720971, Note_on_c, 0, 48, 77
2, 720996, Note_on_c, 0, 64, 0
2, 721036, Note_on_c, 0, 76, 0
2, 721054, Note_on_c, 0, 56, 60
2, 721058, Note_on_c, 0, 48, 0
2, 721168, Note_on_c, 0, 75, 111
2, 721173, Note_on_c, 0, 63, 111
2, 721178, Note_on_c, 0, 56, 0
2, 721190, Note_on_c, 0, 48, 87
2, 721218, Control_c, 0, 64, 0
2, 721284, Note_on_c, 0, 56, 71
2, 721292, Note_on_c, 0, 48, 0
2, 721370, Note_on_c, 0, 48, 67
2, 721400, Note_on_c, 0, 56, 0
2, 721434, Control_c, 0, 64, 127
2, 721460, Note_on_c, 0, 56, 77
2, 721464, Note_on_c, 0, 63, 0
2, 721472, Note_on_c, 0, 75, 0
2, 721476, Note_on_c, 0, 48, 0
2, 721574, Note_on_c, 0, 56, 0
2, 721577, Note_on_c, 0, 48, 58
2, 721588, Note_on_c, 0, 75, 93
2, 721596, Note_on_c, 0, 63, 96
2, 721660, Note_on_c, 0, 56, 48
2, 721678, Note_on_c, 0, 48, 0
2, 721766, Note_on_c, 0, 56, 0
2, 721776, Note_on_c, 0, 48, 58
2, 721854, Note_on_c, 0, 75, 0
2, 721860, Note_on_c, 0, 56, 58
2, 721862, Note_on_c, 0, 63, 0
2, 721888, Note_on_c, 0, 48, 0
2, 721954, Note_on_c, 0, 48, 70
2, 721966, Note_on_c, 0, 56, 0
2, 721982, Note_on_c, 0, 63, 103
2, 721986, Note_on_c, 0, 75, 105
2, 722064, Note_on_c, 0, 63, 0
2, 722067, Note_on_c, 0, 56, 56
2, 722076, Note_on_c, 0, 48, 0
2, 722100, Note_on_c, 0, 75, 0
2, 722176, Note_on_c, 0, 56, 0
2, 722192, Note_on_c, 0, 80, 112
2, 722194, Note_on_c, 0, 68, 104
2, 722200, Note_on_c, 0, 48, 57
2, 722232, Note_on_c, 0, 80, 0
2, 722258, Note_on_c, 0, 68, 0
2, 722270, Note_on_c, 0, 56, 63
2, 722312, Note_on_c, 0, 48, 0
2, 722376, Note_on_c, 0, 56, 0
2, 722406, Note_on_c, 0, 48, 54
2, 722410, Note_on_c, 0, 63, 111
2, 722412, Note_on_c, 0, 75, 105
2, 722496, Note_on_c, 0, 63, 0
2, 722496, Note_on_c, 0, 56, 64
2, 722512, Note_on_c, 0, 75, 0
2, 722526, Note_on_c, 0, 48, 0
2, 722610, Note_on_c, 0, 56, 0
2, 722664, Control_c, 0, 64, 0
2, 722676, Note_on_c, 0, 77, 123
2, 722680, Note_on_c, 0, 65, 118
2, 722698, Note_on_c, 0, 47, 115
2, 722808, Note_on_c, 0, 56, 77
2, 722892, Note_on_c, 0, 49, 82
2, 722900, Note_on_c, 0, 47, 0
2, 722908, Control_c, 0, 64, 127
2, 722914, Note_on_c, 0, 56, 0
2, 722996, Note_on_c, 0, 56, 70
2, 723006, Note_on_c, 0, 49, 0
2, 723106, Note_on_c, 0, 47, 95
2, 723116, Note_on_c, 0, 56, 0
2, 723210, Note_on_c, 0, 56, 59
2, 723228, Note_on_c, 0, 47, 0
2, 723304, Note_on_c, 0, 77, 0
2, 723310, Note_on_c, 0, 56, 0
2, 723310, Note_on_c, 0, 49, 87
2, 723318, Note_on_c, 0, 65, 0
2, 723414, Note_on_c, 0, 56, 80
2, 723450, Note_on_c, 0, 49, 0
2, 723462, Control_c, 0, 64, 0
2, 723510, Note_on_c, 0, 56, 0
2, 723522, Note_on_c, 0, 78, 116
2, 723530, Note_on_c, 0, 66, 109
2, 723538, Note_on_c, 0, 45, 106
2, 723630, Note_on_c, 0, 54, 101
2, 723666, Note_on_c, 0, 45, 0
2, 723708, Control_c, 0, 64, 127
2, 723720, Note_on_c, 0, 49, 83
2, 723738, Note_on_c, 0, 54, 0
2, 723814, Note_on_c, 0, 54, 87
2, 723832, Note_on_c, 0, 49, 0
2, 723910, Note_on_c, 0, 54, 0
2, 723924, Note_on_c, 0, 45, 90
2, 723930, Note_on_c, 0, 78, 0
2, 724022, Note_on_c, 0, 54, 82
2, 724044, Note_on_c, 0, 45, 0
2, 724092, Note_on_c, 0, 66, 0
2, 724114, Note_on_c, 0, 54, 0
2, 724144, Note_on_c, 0, 49, 85
2, 724234, Note_on_c, 0, 54, 86
2, 724252, Note_on_c, 0, 49, 0
2, 724344, Note_on_c, 0, 54, 0
2, 724354, Control_c, 0, 64, 0
2, 724384, Note_on_c, 0, 63, 116
2, 724388, Note_on_c, 0, 75, 103
2, 724388, Note_on_c, 0, 45, 96
2, 724480, Note_on_c, 0, 76, 89
2, 724488, Note_on_c, 0, 54, 96
2, 724518, Note_on_c, 0, 75, 0
2, 724538, Control_c, 0, 64, 127
2, 724541, Note_on_c, 0, 45, 0
2, 724564, Note_on_c, 0, 75, 62
2, 724610, Note_on_c, 0, 54, 0
2, 724630, Note_on_c, 0, 47, 77
2, 724633, Note_on_c, 0, 76, 0
2, 724638, Note_on_c, 0, 73, 86
2, 724660, Note_on_c, 0, 75, 0
2, 724744, Note_on_c, 0, 75, 83
2, 724756, Note_on_c, 0, 54, 93
2, 724780, Note_on_c, 0, 47, 0
2, 724850, Note_on_c, 0, 63, 0
2, 724880, Control_c, 0, 64, 0
2, 724892, Note_on_c, 0, 76, 116
2, 724894, Note_on_c, 0, 54, 0
2, 724894, Note_on_c, 0, 64, 115
2, 724902, Note_on_c, 0, 44, 109
2, 724944, Note_on_c, 0, 75, 0
2, 724946, Note_on_c, 0, 73, 0
2, 725008, Note_on_c, 0, 52, 102
2, 725066, Note_on_c, 0, 44, 0
2, 725108, Note_on_c, 0, 47, 83
2, 725112, Note_on_c, 0, 52, 0
2, 725122, Control_c, 0, 64, 127
2, 725208, Note_on_c, 0, 52, 88
2, 725236, Note_on_c, 0, 47, 0
2, 725310, Note_on_c, 0, 52, 0
2, 725322, Note_on_c, 0, 44, 109
2, 725430, Note_on_c, 0, 44, 0
2, 725446, Note_on_c, 0, 52, 89
2, 725490, Note_on_c, 0, 52, 0
2, 725528, Note_on_c, 0, 47, 93
2, 725630, Note_on_c, 0, 47, 0
2, 725638, Note_on_c, 0, 52, 102
2, 725686, Note_on_c, 0, 52, 0
2, 725716, Note_on_c, 0, 44, 103
2, 725812, Note_on_c, 0, 52, 95
2, 725830, Note_on_c, 0, 44, 0
2, 725830, Note_on_c, 0, 76, 0
2, 725878, Note_on_c, 0, 52, 0
2, 725900, Note_on_c, 0, 47, 90
2, 725946, Note_on_c, 0, 64, 0
2, 726008, Note_on_c, 0, 47, 0
2, 726014, Note_on_c, 0, 52, 111
2, 726058, Control_c, 0, 64, 0
2, 726100, Note_on_c, 0, 52, 0
2, 726116, Note_on_c, 0, 43, 112
2, 726118, Note_on_c, 0, 73, 118
2, 726120, Note_on_c, 0, 61, 120
2, 726234, Note_on_c, 0, 52, 101
2, 726278, Note_on_c, 0, 43, 0
2, 726302, Note_on_c, 0, 45, 79
2, 726305, Note_on_c, 0, 52, 0
2, 726305, Control_c, 0, 64, 127
2, 726426, Note_on_c, 0, 45, 0
2, 726426, Note_on_c, 0, 52, 98
2, 726500, Note_on_c, 0, 52, 0
2, 726514, Note_on_c, 0, 43, 102
2, 726616, Note_on_c, 0, 43, 0
2, 726630, Note_on_c, 0, 52, 105
2, 726698, Note_on_c, 0, 52, 0
2, 726720, Note_on_c, 0, 45, 87
2, 726828, Note_on_c, 0, 52, 110
2, 726830, Note_on_c, 0, 61, 0
2, 726832, Note_on_c, 0, 45, 0
2, 726846, Note_on_c, 0, 73, 0
2, 726874, Control_c, 0, 64, 0
2, 726924, Note_on_c, 0, 52, 0
2, 726930, Note_on_c, 0, 74, 127
2, 726933, Note_on_c, 0, 62, 121
2, 726940, Note_on_c, 0, 42, 103
2, 727036, Note_on_c, 0, 50, 106
2, 727082, Note_on_c, 0, 42, 0
2, 727120, Control_c, 0, 64, 127
2, 727134, Note_on_c, 0, 45, 93
2, 727160, Note_on_c, 0, 50, 0
2, 727226, Note_on_c, 0, 50, 93
2, 727250, Note_on_c, 0, 45, 0
2, 727332, Note_on_c, 0, 50, 0
2, 727334, Note_on_c, 0, 42, 95
2, 727358, Note_on_c, 0, 74, 0
2, 727440, Note_on_c, 0, 50, 71
2, 727448, Note_on_c, 0, 42, 0
2, 727524, Note_on_c, 0, 62, 0
2, 727538, Note_on_c, 0, 45, 88
2, 727540, Note_on_c, 0, 50, 0
2, 727628, Note_on_c, 0, 50, 87
2, 727684, Note_on_c, 0, 45, 0
2, 727702, Control_c, 0, 64, 0
2, 727728, Note_on_c, 0, 50, 0
2, 727756, Note_on_c, 0, 42, 96
2, 727760, Note_on_c, 0, 60, 108
2, 727764, Note_on_c, 0, 72, 116
2, 727798, Note_on_c, 0, 60, 0
2, 727864, Note_on_c, 0, 51, 95
2, 727872, Control_c, 0, 64, 127
2, 727872, Note_on_c, 0, 73, 90
2, 727908, Note_on_c, 0, 72, 0
2, 727970, Note_on_c, 0, 42, 0
2, 727970, Note_on_c, 0, 44, 87
2, 727992, Note_on_c, 0, 51, 0
2, 728002, Note_on_c, 0, 73, 0
2, 728012, Note_on_c, 0, 72, 20
2, 728026, Note_on_c, 0, 70, 83
2, 728074, Note_on_c, 0, 72, 0
2, 728100, Note_on_c, 0, 51, 80
2, 728110, Note_on_c, 0, 72, 90
2, 728182, Note_on_c, 0, 70, 0
2, 728202, Note_on_c, 0, 51, 0
2, 728218, Note_on_c, 0, 44, 0
2, 728234, Note_on_c, 0, 61, 120
2, 728234, Note_on_c, 0, 73, 117
2, 728250, Note_on_c, 0, 40, 126
2, 728252, Note_on_c, 0, 72, 0
2, 728302, Control_c, 0, 64, 0
2, 728356, Note_on_c, 0, 49, 95
2, 728466, Note_on_c, 0, 44, 90
2, 728476, Note_on_c, 0, 49, 0
2, 728506, Note_on_c, 0, 40, 0
2, 728548, Control_c, 0, 64, 127
2, 728556, Note_on_c, 0, 49, 75
2, 728606, Note_on_c, 0, 44, 0
2, 728670, Note_on_c, 0, 40, 116
2, 728673, Note_on_c, 0, 49, 0
2, 728772, Note_on_c, 0, 49, 72
2, 728798, Note_on_c, 0, 40, 0
2, 728868, Note_on_c, 0, 44, 93
2, 728871, Note_on_c, 0, 49, 0
2, 728966, Note_on_c, 0, 49, 75
2, 729002, Note_on_c, 0, 44, 0
2, 729066, Note_on_c, 0, 49, 0
2, 729080, Note_on_c, 0, 40, 115
2, 729098, Note_on_c, 0, 61, 0
2, 729190, Note_on_c, 0, 40, 0
2, 729198, Note_on_c, 0, 49, 82
2, 729222, Note_on_c, 0, 73, 0
2, 729288, Note_on_c, 0, 49, 0
2, 729291, Note_on_c, 0, 44, 89
2, 729368, Note_on_c, 0, 44, 0
2, 729384, Note_on_c, 0, 49, 77
2, 729448, Note_on_c, 0, 49, 0
2, 729548, Control_c, 0, 64, 0
2, 729628, Note_on_c, 0, 66, 103
2, 729628, Note_on_c, 0, 74, 126
2, 729628, Note_on_c, 0, 62, 126
2, 729630, Note_on_c, 0, 50, 104
2, 729631, Note_on_c, 0, 69, 108
2, 729633, Note_on_c, 0, 45, 80
2, 729634, Note_on_c, 0, 42, 101
2, 729634, Note_on_c, 0, 54, 123
2, 729748, Note_on_c, 0, 45, 0
2, 729760, Note_on_c, 0, 54, 0
2, 729762, Note_on_c, 0, 42, 0
2, 729768, Note_on_c, 0, 50, 0
2, 729808, Control_c, 0, 64, 127
2, 729942, Note_on_c, 0, 62, 0
2, 730054, Note_on_c, 0, 69, 0
2, 730064, Note_on_c, 0, 66, 0
2, 730906, Note_on_c, 0, 69, 57
2, 730966, Note_on_c, 0, 74, 0
2, 731000, Note_on_c, 0, 69, 0
2, 731004, Note_on_c, 0, 71, 83
2, 731101, Note_on_c, 0, 71, 0
2, 731102, Note_on_c, 0, 73, 78
2, 731160, Control_c, 0, 64, 0
2, 731188, Note_on_c, 0, 73, 0
2, 731196, Note_on_c, 0, 74, 93
2, 731278, Note_on_c, 0, 74, 0
2, 731288, Note_on_c, 0, 76, 87
2, 731382, Note_on_c, 0, 78, 86
2, 731398, Note_on_c, 0, 76, 0
2, 731462, Note_on_c, 0, 76, 77
2, 731536, Note_on_c, 0, 78, 0
2, 731556, Note_on_c, 0, 57, 54
2, 731556, Note_on_c, 0, 62, 55
2, 731559, Note_on_c, 0, 54, 56
2, 731568, Note_on_c, 0, 74, 90
2, 731590, Note_on_c, 0, 76, 0
2, 731626, Note_on_c, 0, 74, 0
2, 731654, Note_on_c, 0, 69, 69
2, 731682, Control_c, 0, 64, 127
2, 731684, Note_on_c, 0, 62, 0
2, 731720, Note_on_c, 0, 57, 0
2, 731746, Note_on_c, 0, 54, 0
2, 731760, Note_on_c, 0, 69, 0
2, 731772, Note_on_c, 0, 71, 85
2, 731836, Control_c, 0, 64, 0
2, 731844, Note_on_c, 0, 71, 0
2, 731862, Note_on_c, 0, 73, 71
2, 731958, Note_on_c, 0, 74, 96
2, 731965, Note_on_c, 0, 73, 0
2, 732065, Note_on_c, 0, 74, 0
2, 732068, Note_on_c, 0, 76, 82
2, 732162, Note_on_c, 0, 76, 0
2, 732168, Note_on_c, 0, 78, 80
2, 732256, Note_on_c, 0, 76, 65
2, 732320, Note_on_c, 0, 78, 0
2, 732364, Note_on_c, 0, 74, 89
2, 732392, Note_on_c, 0, 62, 42
2, 732392, Note_on_c, 0, 54, 50
2, 732395, Note_on_c, 0, 57, 29
2, 732396, Note_on_c, 0, 76, 0
2, 732414, Note_on_c, 0, 74, 0
2, 732458, Note_on_c, 0, 69, 55
2, 732482, Control_c, 0, 64, 127
2, 732486, Note_on_c, 0, 57, 0
2, 732488, Note_on_c, 0, 62, 0
2, 732550, Note_on_c, 0, 54, 0
2, 732572, Note_on_c, 0, 71, 80
2, 732584, Note_on_c, 0, 69, 0
2, 732620, Control_c, 0, 64, 0
2, 732660, Note_on_c, 0, 73, 66
2, 732670, Note_on_c, 0, 71, 0
2, 732750, Note_on_c, 0, 74, 89
2, 732752, Note_on_c, 0, 73, 0
2, 732864, Note_on_c, 0, 76, 79
2, 732866, Note_on_c, 0, 74, 0
2, 732962, Note_on_c, 0, 76, 0
2, 732964, Note_on_c, 0, 78, 80
2, 733054, Note_on_c, 0, 76, 65
2, 733106, Note_on_c, 0, 78, 0
2, 733160, Note_on_c, 0, 74, 82
2, 733176, Note_on_c, 0, 76, 0
2, 733176, Note_on_c, 0, 62, 36
2, 733186, Note_on_c, 0, 57, 31
2, 733188, Note_on_c, 0, 54, 31
2, 733206, Note_on_c, 0, 74, 0
2, 733268, Note_on_c, 0, 69, 35
2, 733280, Control_c, 0, 64, 127
2, 733286, Note_on_c, 0, 62, 0
2, 733289, Note_on_c, 0, 57, 0
2, 733312, Note_on_c, 0, 54, 0
2, 733400, Note_on_c, 0, 71, 40
2, 733408, Note_on_c, 0, 69, 0
2, 733458, Note_on_c, 0, 73, 73
2, 733470, Note_on_c, 0, 71, 0
2, 733546, Note_on_c, 0, 74, 93
2, 733552, Note_on_c, 0, 73, 0
2, 733556, Control_c, 0, 64, 0
2, 733568, Note_on_c, 0, 54, 51
2, 733572, Note_on_c, 0, 62, 34
2, 733574, Note_on_c, 0, 57, 37
2, 733648, Note_on_c, 0, 76, 86
2, 733661, Note_on_c, 0, 74, 0
2, 733662, Note_on_c, 0, 54, 0
2, 733664, Control_c, 0, 64, 127
2, 733670, Note_on_c, 0, 62, 0
2, 733690, Note_on_c, 0, 57, 0
2, 733734, Note_on_c, 0, 78, 92
2, 733748, Note_on_c, 0, 76, 0
2, 733826, Note_on_c, 0, 79, 109
2, 733840, Note_on_c, 0, 78, 0
2, 733848, Control_c, 0, 64, 0
2, 733918, Note_on_c, 0, 62, 49
2, 733924, Note_on_c, 0, 57, 41
2, 733926, Note_on_c, 0, 81, 109
2, 733926, Note_on_c, 0, 54, 51
2, 733934, Note_on_c, 0, 79, 0
2, 734028, Note_on_c, 0, 80, 101
2, 734040, Note_on_c, 0, 81, 0
2, 734052, Note_on_c, 0, 62, 0
2, 734098, Note_on_c, 0, 57, 0
2, 734100, Note_on_c, 0, 54, 0
2, 734120, Note_on_c, 0, 83, 126
2, 734126, Control_c, 0, 64, 127
2, 734144, Note_on_c, 0, 80, 0
2, 734220, Note_on_c, 0, 81, 104
2, 734264, Control_c, 0, 64, 0
2, 734280, Note_on_c, 0, 83, 0
2, 734320, Note_on_c, 0, 79, 108
2, 734330, Note_on_c, 0, 62, 44
2, 734332, Note_on_c, 0, 54, 42
2, 734340, Note_on_c, 0, 57, 34
2, 734374, Note_on_c, 0, 81, 0
2, 734416, Note_on_c, 0, 57, 0
2, 734416, Note_on_c, 0, 78, 97
2, 734454, Note_on_c, 0, 79, 0
2, 734474, Note_on_c, 0, 54, 0
2, 734494, Control_c, 0, 64, 127
2, 734524, Note_on_c, 0, 76, 87
2, 734544, Note_on_c, 0, 78, 0
2, 734554, Note_on_c, 0, 62, 0
2, 734624, Note_on_c, 0, 74, 104
2, 734654, Note_on_c, 0, 76, 0
2, 734664, Control_c, 0, 64, 0
2, 734740, Note_on_c, 0, 73, 92
2, 734744, Note_on_c, 0, 56, 42
2, 734766, Note_on_c, 0, 74, 0
2, 734870, Note_on_c, 0, 64, 40
2, 734873, Note_on_c, 0, 56, 0
2, 734928, Note_on_c, 0, 64, 0
2, 734940, Control_c, 0, 64, 127
2, 734942, Note_on_c, 0, 61, 44
2, 735010, Note_on_c, 0, 61, 0
2, 735066, Note_on_c, 0, 64, 47
2, 735122, Note_on_c, 0, 64, 0
2, 735158, Note_on_c, 0, 56, 54
2, 735230, Note_on_c, 0, 56, 0
2, 735260, Note_on_c, 0, 64, 42
2, 735316, Note_on_c, 0, 64, 0
2, 735356, Note_on_c, 0, 61, 46
2, 735418, Note_on_c, 0, 64, 57
2, 735426, Note_on_c, 0, 61, 0
2, 735472, Note_on_c, 0, 64, 0
2, 735492, Control_c, 0, 64, 0
2, 735536, Note_on_c, 0, 73, 0
2, 735554, Note_on_c, 0, 75, 80
2, 735556, Note_on_c, 0, 56, 50
2, 735608, Note_on_c, 0, 75, 0
2, 735632, Note_on_c, 0, 76, 70
2, 735656, Note_on_c, 0, 56, 0
2, 735664, Note_on_c, 0, 66, 46
2, 735686, Note_on_c, 0, 76, 0
2, 735702, Note_on_c, 0, 75, 65
2, 735708, Control_c, 0, 64, 127
2, 735726, Note_on_c, 0, 66, 0
2, 735770, Note_on_c, 0, 60, 31
2, 735773, Note_on_c, 0, 75, 0
2, 735792, Note_on_c, 0, 76, 56
2, 735842, Note_on_c, 0, 75, 71
2, 735844, Note_on_c, 0, 76, 0
2, 735850, Note_on_c, 0, 60, 0
2, 735850, Note_on_c, 0, 66, 39
2, 735908, Note_on_c, 0, 75, 0
2, 735916, Note_on_c, 0, 66, 0
2, 735918, Note_on_c, 0, 76, 63
2, 735928, Note_on_c, 0, 56, 54
2, 735978, Note_on_c, 0, 76, 0
2, 735978, Note_on_c, 0, 75, 64
2, 736000, Note_on_c, 0, 66, 43
2, 736028, Note_on_c, 0, 56, 0
2, 736056, Note_on_c, 0, 75, 0
2, 736064, Note_on_c, 0, 76, 55
2, 736098, Note_on_c, 0, 66, 0
2, 736132, Note_on_c, 0, 75, 80
2, 736150, Note_on_c, 0, 60, 32
2, 736178, Note_on_c, 0, 76, 0
2, 736200, Note_on_c, 0, 66, 54
2, 736210, Note_on_c, 0, 75, 0
2, 736220, Note_on_c, 0, 73, 82
2, 736234, Note_on_c, 0, 60, 0
2, 736276, Note_on_c, 0, 66, 0
2, 736284, Note_on_c, 0, 73, 0
2, 736302, Note_on_c, 0, 75, 87
2, 736322, Control_c, 0, 64, 0
2, 736358, Note_on_c, 0, 75, 0
2, 736400, Note_on_c, 0, 64, 101
2, 736402, Note_on_c, 0, 61, 87
2, 736404, Note_on_c, 0, 73, 108
2, 736406, Note_on_c, 0, 57, 54
2, 736434, Note_on_c, 0, 64, 0
2, 736437, Note_on_c, 0, 73, 0
2, 736442, Note_on_c, 0, 61, 0
2, 736462, Note_on_c, 0, 57, 0
2, 736480, Control_c, 0, 64, 127
2, 736874, Note_on_c, 0, 57, 95
2, 736876, Note_on_c, 0, 50, 124
2, 736876, Note_on_c, 0, 62, 118
2, 736876, Note_on_c, 0, 54, 113
2, 736876, Note_on_c, 0, 42, 105
2, 736878, Note_on_c, 0, 30, 86
2, 736881, Note_on_c, 0, 38, 88
2, 736886, Note_on_c, 0, 33, 78
2, 737182, Control_c, 0, 64, 0
2, 737312, Note_on_c, 0, 38, 0
2, 737318, Note_on_c, 0, 33, 0
2, 737326, Note_on_c, 0, 30, 0
2, 737374, Note_on_c, 0, 50, 0
2, 737380, Note_on_c, 0, 57, 0
2, 737382, Control_c, 0, 64, 127
2, 737410, Note_on_c, 0, 54, 0
2, 737426, Note_on_c, 0, 42, 0
2, 737736, Note_on_c, 0, 57, 72
2, 737744, Note_on_c, 0, 62, 0
2, 737828, Control_c, 0, 64, 0
2, 737834, Note_on_c, 0, 57, 0
2, 737836, Note_on_c, 0, 59, 65
2, 737908, Note_on_c, 0, 61, 79
2, 737921, Note_on_c, 0, 59, 0
2, 737993, Note_on_c, 0, 61, 0
2, 737994, Note_on_c, 0, 62, 83
2, 738089, Note_on_c, 0, 62, 0
2, 738100, Note_on_c, 0, 64, 88
2, 738172, Note_on_c, 0, 64, 0
2, 738182, Note_on_c, 0, 66, 69
2, 738274, Note_on_c, 0, 64, 75
2, 738324, Note_on_c, 0, 66, 0
2, 738378, Note_on_c, 0, 62, 86
2, 738386, Note_on_c, 0, 64, 0
2, 738440, Note_on_c, 0, 62, 0
2, 738472, Note_on_c, 0, 57, 69
2, 738570, Note_on_c, 0, 59, 82
2, 738586, Note_on_c, 0, 57, 0
2, 738670, Note_on_c, 0, 59, 0
2, 738676, Note_on_c, 0, 61, 78
2, 738762, Note_on_c, 0, 62, 92
2, 738762, Note_on_c, 0, 50, 81
2, 738765, Note_on_c, 0, 61, 0
2, 738765, Note_on_c, 0, 42, 63
2, 738770, Note_on_c, 0, 45, 63
2, 738864, Note_on_c, 0, 62, 0
2, 738866, Note_on_c, 0, 64, 92
2, 738870, Note_on_c, 0, 45, 0
2, 738882, Note_on_c, 0, 42, 0
2, 738884, Note_on_c, 0, 50, 0
2, 738964, Note_on_c, 0, 64, 0
2, 738966, Note_on_c, 0, 66, 71
2, 739052, Note_on_c, 0, 64, 74
2, 739120, Note_on_c, 0, 66, 0
2, 739154, Note_on_c, 0, 62, 87
2, 739176, Note_on_c, 0, 64, 0
2, 739196, Note_on_c, 0, 62, 0
2, 739240, Note_on_c, 0, 57, 70
2, 739344, Note_on_c, 0, 59, 77
2, 739347, Note_on_c, 0, 57, 0
2, 739428, Note_on_c, 0, 61, 69
2, 739437, Note_on_c, 0, 59, 0
2, 739528, Note_on_c, 0, 62, 78
2, 739529, Note_on_c, 0, 61, 0
2, 739540, Note_on_c, 0, 50, 82
2, 739540, Note_on_c, 0, 42, 71
2, 739543, Note_on_c, 0, 45, 65
2, 739620, Note_on_c, 0, 45, 0
2, 739623, Note_on_c, 0, 62, 0
2, 739628, Note_on_c, 0, 50, 0
2, 739628, Note_on_c, 0, 64, 80
2, 739652, Note_on_c, 0, 42, 0
2, 739722, Note_on_c, 0, 64, 0
2, 739730, Note_on_c, 0, 66, 55
2, 739826, Note_on_c, 0, 64, 64
2, 739870, Note_on_c, 0, 66, 0
2, 739910, Note_on_c, 0, 64, 0
2, 739928, Note_on_c, 0, 62, 74
2, 739978, Note_on_c, 0, 62, 0
2, 740018, Note_on_c, 0, 57, 59
2, 740100, Note_on_c, 0, 50, 86
2, 740102, Note_on_c, 0, 45, 77
2, 740112, Note_on_c, 0, 57, 0
2, 740112, Note_on_c, 0, 42, 71
2, 740128, Note_on_c, 0, 59, 72
2, 740168, Note_on_c, 0, 45, 0
2, 740180, Note_on_c, 0, 59, 0
2, 740192, Note_on_c, 0, 50, 0
2, 740196, Note_on_c, 0, 42, 0
2, 740196, Note_on_c, 0, 61, 69
2, 740250, Note_on_c, 0, 61, 0
2, 740288, Note_on_c, 0, 62, 72
2, 740346, Note_on_c, 0, 62, 0
2, 740384, Note_on_c, 0, 64, 81
2, 740452, Note_on_c, 0, 64, 0
2, 740482, Note_on_c, 0, 66, 70
2, 740482, Note_on_c, 0, 50, 105
2, 740485, Note_on_c, 0, 45, 89
2, 740490, Note_on_c, 0, 42, 83
2, 740546, Note_on_c, 0, 45, 0
2, 740560, Note_on_c, 0, 42, 0
2, 740580, Note_on_c, 0, 64, 74
2, 740598, Note_on_c, 0, 50, 0
2, 740620, Note_on_c, 0, 66, 0
2, 740668, Note_on_c, 0, 64, 0
2, 740674, Note_on_c, 0, 62, 81
2, 740724, Note_on_c, 0, 62, 0
2, 740750, Note_on_c, 0, 57, 72
2, 740846, Note_on_c, 0, 50, 106
2, 740848, Note_on_c, 0, 45, 94
2, 740856, Note_on_c, 0, 42, 87
2, 740859, Note_on_c, 0, 59, 93
2, 740880, Note_on_c, 0, 57, 0
2, 740938, Note_on_c, 0, 61, 90
2, 740941, Note_on_c, 0, 45, 0
2, 740948, Note_on_c, 0, 59, 0
2, 740948, Note_on_c, 0, 42, 0
2, 740950, Note_on_c, 0, 50, 0
2, 741026, Note_on_c, 0, 62, 100
2, 741032, Note_on_c, 0, 61, 0
2, 741132, Note_on_c, 0, 64, 101
2, 741138, Note_on_c, 0, 62, 0
2, 741208, Note_on_c, 0, 45, 93
2, 741210, Note_on_c, 0, 50, 105
2, 741212, Note_on_c, 0, 64, 0
2, 741218, Note_on_c, 0, 66, 78
2, 741218, Note_on_c, 0, 42, 89
2, 741280, Note_on_c, 0, 50, 0
2, 741284, Note_on_c, 0, 45, 0
2, 741286, Note_on_c, 0, 64, 95
2, 741290, Note_on_c, 0, 42, 0
2, 741360, Note_on_c, 0, 66, 0
2, 741388, Note_on_c, 0, 62, 101
2, 741391, Note_on_c, 0, 50, 119
2, 741391, Note_on_c, 0, 45, 105
2, 741395, Note_on_c, 0, 64, 0
2, 741400, Note_on_c, 0, 42, 95
2, 741474, Note_on_c, 0, 57, 90
2, 741482, Note_on_c, 0, 62, 0
2, 741508, Note_on_c, 0, 45, 0
2, 741528, Note_on_c, 0, 42, 0
2, 741528, Note_on_c, 0, 50, 0
2, 741598, Note_on_c, 0, 59, 96
2, 741610, Note_on_c, 0, 57, 0
2, 741676, Note_on_c, 0, 61, 92
2, 741710, Note_on_c, 0, 59, 0
2, 741766, Note_on_c, 0, 62, 95
2, 741784, Note_on_c, 0, 61, 0
2, 741840, Note_on_c, 0, 62, 0
2, 741862, Note_on_c, 0, 64, 102
2, 741946, Note_on_c, 0, 66, 87
2, 741982, Note_on_c, 0, 64, 0
2, 742032, Note_on_c, 0, 67, 96
2, 742058, Note_on_c, 0, 66, 0
2, 742126, Note_on_c, 0, 69, 102
2, 742170, Note_on_c, 0, 67, 0
2, 742216, Note_on_c, 0, 71, 111
2, 742256, Note_on_c, 0, 69, 0
2, 742304, Note_on_c, 0, 73, 88
2, 742352, Note_on_c, 0, 71, 0
2, 742390, Note_on_c, 0, 74, 102
2, 742392, Note_on_c, 0, 73, 0
2, 742476, Note_on_c, 0, 76, 108
2, 742506, Note_on_c, 0, 74, 0
2, 742560, Note_on_c, 0, 78, 102
2, 742588, Note_on_c, 0, 76, 0
2, 742656, Note_on_c, 0, 78, 0
2, 742656, Note_on_c, 0, 79, 97
2, 742736, Note_on_c, 0, 79, 0
2, 742739, Note_on_c, 0, 80, 104
2, 742806, Control_c, 0, 64, 127
2, 742846, Note_on_c, 0, 80, 0
2, 742892, Note_on_c, 0, 81, 125
2, 742898, Note_on_c, 0, 69, 112
2, 742906, Note_on_c, 0, 42, 75
2, 742988, Note_on_c, 0, 50, 66
2, 743036, Control_c, 0, 64, 0
2, 743096, Note_on_c, 0, 45, 66
2, 743120, Note_on_c, 0, 50, 0
2, 743190, Control_c, 0, 64, 127
2, 743198, Note_on_c, 0, 50, 72
2, 743204, Note_on_c, 0, 42, 0
2, 743238, Note_on_c, 0, 45, 0
2, 743258, Note_on_c, 0, 81, 0
2, 743306, Note_on_c, 0, 42, 57
2, 743314, Note_on_c, 0, 50, 0
2, 743392, Note_on_c, 0, 50, 64
2, 743470, Note_on_c, 0, 50, 0
2, 743490, Note_on_c, 0, 45, 78
2, 743560, Note_on_c, 0, 42, 0
2, 743588, Note_on_c, 0, 45, 0
2, 743598, Note_on_c, 0, 50, 95
2, 743670, Note_on_c, 0, 73, 118
2, 743674, Note_on_c, 0, 61, 121
2, 743678, Note_on_c, 0, 50, 0
2, 743700, Note_on_c, 0, 43, 112
2, 743712, Control_c, 0, 64, 0
2, 743736, Note_on_c, 0, 69, 0
2, 743812, Note_on_c, 0, 52, 93
2, 743878, Note_on_c, 0, 52, 0
2, 743880, Note_on_c, 0, 46, 72
2, 743902, Note_on_c, 0, 43, 0
2, 743944, Control_c, 0, 64, 127
2, 743982, Note_on_c, 0, 52, 80
2, 744028, Note_on_c, 0, 46, 0
2, 744050, Note_on_c, 0, 52, 0
2, 744072, Note_on_c, 0, 43, 82
2, 744130, Note_on_c, 0, 61, 0
2, 744174, Note_on_c, 0, 52, 82
2, 744198, Note_on_c, 0, 43, 0
2, 744250, Note_on_c, 0, 52, 0
2, 744288, Note_on_c, 0, 46, 66
2, 744386, Note_on_c, 0, 52, 101
2, 744414, Note_on_c, 0, 46, 0
2, 744436, Control_c, 0, 64, 0
2, 744452, Note_on_c, 0, 73, 0
2, 744466, Note_on_c, 0, 52, 0
2, 744466, Note_on_c, 0, 76, 124
2, 744466, Note_on_c, 0, 64, 127
2, 744486, Note_on_c, 0, 44, 109
2, 744582, Note_on_c, 0, 52, 87
2, 744662, Note_on_c, 0, 49, 74
2, 744665, Control_c, 0, 64, 127
2, 744686, Note_on_c, 0, 52, 0
2, 744690, Note_on_c, 0, 44, 0
2, 744772, Note_on_c, 0, 52, 85
2, 744776, Note_on_c, 0, 76, 0
2, 744798, Note_on_c, 0, 49, 0
2, 744872, Note_on_c, 0, 64, 0
2, 744880, Note_on_c, 0, 52, 0
2, 744890, Note_on_c, 0, 44, 86
2, 744986, Note_on_c, 0, 52, 80
2, 745036, Note_on_c, 0, 44, 0
2, 745044, Note_on_c, 0, 52, 0
2, 745076, Note_on_c, 0, 49, 69
2, 745166, Note_on_c, 0, 52, 78
2, 745178, Note_on_c, 0, 49, 0
2, 745206, Note_on_c, 0, 52, 0
2, 745326, Control_c, 0, 64, 0
2, 745350, Note_on_c, 0, 60, 116
2, 745354, Note_on_c, 0, 54, 109
2, 745354, Note_on_c, 0, 48, 119
2, 745364, Note_on_c, 0, 32, 110
2, 745446, Note_on_c, 0, 44, 95
2, 745472, Note_on_c, 0, 32, 0
2, 745556, Control_c, 0, 64, 127
2, 745558, Note_on_c, 0, 43, 79
2, 745560, Note_on_c, 0, 44, 0
2, 745650, Note_on_c, 0, 43, 0
2, 745653, Note_on_c, 0, 44, 78
2, 745758, Note_on_c, 0, 43, 74
2, 745778, Note_on_c, 0, 44, 0
2, 745842, Note_on_c, 0, 43, 0
2, 745850, Note_on_c, 0, 44, 77
2, 745868, Note_on_c, 0, 48, 0
2, 745930, Note_on_c, 0, 44, 0
2, 745946, Note_on_c, 0, 54, 0
2, 745956, Note_on_c, 0, 43, 66
2, 745970, Note_on_c, 0, 60, 0
2, 746038, Note_on_c, 0, 43, 0
2, 746061, Note_on_c, 0, 44, 96
2, 746124, Note_on_c, 0, 44, 0
2, 746202, Control_c, 0, 64, 0
2, 746216, Note_on_c, 0, 49, 106
2, 746216, Note_on_c, 0, 61, 106
2, 746220, Note_on_c, 0, 52, 101
2, 746220, Note_on_c, 0, 37, 111
2, 746260, Note_on_c, 0, 52, 0
2, 746263, Note_on_c, 0, 37, 0
2, 746294, Note_on_c, 0, 49, 0
2, 746336, Note_on_c, 0, 61, 0
2, 746339, Control_c, 0, 64, 127
2, 746510, Note_on_c, 0, 49, 81
2, 746516, Note_on_c, 0, 56, 67
2, 746516, Note_on_c, 0, 64, 75
2, 746555, Note_on_c, 0, 49, 0
2, 746570, Note_on_c, 0, 64, 0
2, 746572, Note_on_c, 0, 56, 0
2, 746586, Control_c, 0, 64, 0
2, 746714, Note_on_c, 0, 64, 72
2, 746718, Note_on_c, 0, 56, 63
2, 746722, Note_on_c, 0, 49, 77
2, 746766, Note_on_c, 0, 49, 0
2, 746769, Note_on_c, 0, 64, 0
2, 746772, Note_on_c, 0, 56, 0
2, 746912, Note_on_c, 0, 56, 55
2, 746914, Note_on_c, 0, 64, 70
2, 746917, Note_on_c, 0, 49, 64
2, 746964, Note_on_c, 0, 49, 0
2, 746966, Note_on_c, 0, 64, 0
2, 746970, Note_on_c, 0, 56, 0
2, 747094, Note_on_c, 0, 64, 66
2, 747102, Note_on_c, 0, 56, 52
2, 747112, Note_on_c, 0, 49, 60
2, 747148, Note_on_c, 0, 64, 0
2, 747162, Note_on_c, 0, 49, 0
2, 747165, Note_on_c, 0, 56, 0
2, 747294, Note_on_c, 0, 49, 52
2, 747298, Note_on_c, 0, 56, 42
2, 747306, Note_on_c, 0, 64, 37
2, 747352, Note_on_c, 0, 49, 0
2, 747355, Note_on_c, 0, 56, 0
2, 747366, Note_on_c, 0, 64, 0
2, 747474, Note_on_c, 0, 56, 47
2, 747474, Note_on_c, 0, 63, 67
2, 747482, Note_on_c, 0, 51, 49
2, 747532, Note_on_c, 0, 63, 0
2, 747536, Note_on_c, 0, 56, 0
2, 747542, Note_on_c, 0, 51, 0
2, 747664, Note_on_c, 0, 52, 62
2, 747666, Note_on_c, 0, 61, 60
2, 747666, Note_on_c, 0, 56, 46
2, 747712, Note_on_c, 0, 52, 0
2, 747726, Note_on_c, 0, 61, 0
2, 747736, Note_on_c, 0, 56, 0
2, 747860, Note_on_c, 0, 56, 47
2, 747862, Note_on_c, 0, 44, 73
2, 747864, Note_on_c, 0, 60, 67
2, 747864, Note_on_c, 0, 54, 60
2, 747910, Note_on_c, 0, 44, 0
2, 747913, Note_on_c, 0, 56, 0
2, 747920, Note_on_c, 0, 54, 0
2, 747924, Note_on_c, 0, 60, 0
2, 748046, Note_on_c, 0, 60, 51
2, 748052, Note_on_c, 0, 68, 59
2, 748054, Note_on_c, 0, 54, 65
2, 748057, Note_on_c, 0, 56, 43
2, 748108, Note_on_c, 0, 68, 0
2, 748111, Note_on_c, 0, 60, 0
2, 748116, Note_on_c, 0, 54, 0
2, 748120, Note_on_c, 0, 56, 0
2, 748244, Note_on_c, 0, 68, 77
2, 748250, Note_on_c, 0, 60, 63
2, 748253, Note_on_c, 0, 56, 57
2, 748262, Note_on_c, 0, 54, 57
2, 748298, Note_on_c, 0, 68, 0
2, 748310, Note_on_c, 0, 60, 0
2, 748316, Note_on_c, 0, 54, 0
2, 748320, Note_on_c, 0, 56, 0
2, 748430, Note_on_c, 0, 56, 60
2, 748433, Note_on_c, 0, 60, 73
2, 748433, Note_on_c, 0, 68, 80
2, 748440, Note_on_c, 0, 54, 71
2, 748490, Note_on_c, 0, 54, 0
2, 748490, Note_on_c, 0, 56, 0
2, 748502, Note_on_c, 0, 60, 0
2, 748516, Note_on_c, 0, 68, 0
2, 748628, Note_on_c, 0, 68, 75
2, 748631, Note_on_c, 0, 60, 79
2, 748634, Note_on_c, 0, 56, 69
2, 748644, Note_on_c, 0, 54, 86
2, 748686, Note_on_c, 0, 54, 0
2, 748690, Note_on_c, 0, 56, 0
2, 748692, Note_on_c, 0, 60, 0
2, 748712, Note_on_c, 0, 68, 0
2, 748812, Note_on_c, 0, 68, 67
2, 748812, Note_on_c, 0, 54, 80
2, 748815, Note_on_c, 0, 60, 75
2, 748815, Note_on_c, 0, 56, 58
2, 748872, Note_on_c, 0, 60, 0
2, 748872, Note_on_c, 0, 68, 0
2, 748880, Note_on_c, 0, 54, 0
2, 748882, Note_on_c, 0, 56, 0
2, 748988, Note_on_c, 0, 68, 71
2, 748994, Note_on_c, 0, 61, 90
2, 748996, Note_on_c, 0, 56, 55
2, 748996, Note_on_c, 0, 52, 79
2, 749038, Note_on_c, 0, 68, 0
2, 749044, Note_on_c, 0, 52, 0
2, 749050, Note_on_c, 0, 56, 0
2, 749058, Note_on_c, 0, 61, 0
2, 749188, Note_on_c, 0, 63, 73
2, 749194, Note_on_c, 0, 56, 32
2, 749196, Note_on_c, 0, 68, 51
2, 749198, Note_on_c, 0, 51, 74
2, 749238, Note_on_c, 0, 63, 0
2, 749240, Note_on_c, 0, 51, 0
2, 749252, Note_on_c, 0, 68, 0
2, 749266, Note_on_c, 0, 56, 0
2, 749376, Note_on_c, 0, 68, 63
2, 749382, Note_on_c, 0, 64, 69
2, 749384, Note_on_c, 0, 37, 89
2, 749418, Note_on_c, 0, 37, 0
2, 749422, Note_on_c, 0, 68, 0
2, 749424, Note_on_c, 0, 64, 0
2, 749552, Note_on_c, 0, 56, 77
2, 749552, Note_on_c, 0, 64, 63
2, 749562, Note_on_c, 0, 49, 37
2, 749610, Note_on_c, 0, 56, 0
2, 749624, Note_on_c, 0, 64, 0
2, 749628, Note_on_c, 0, 49, 0
2, 749756, Note_on_c, 0, 64, 65
2, 749756, Note_on_c, 0, 56, 62
2, 749757, Note_on_c, 0, 49, 63
2, 749806, Note_on_c, 0, 64, 0
2, 749812, Note_on_c, 0, 56, 0
2, 749821, Note_on_c, 0, 49, 0
2, 749948, Note_on_c, 0, 56, 47
2, 749954, Note_on_c, 0, 64, 59
2, 749962, Note_on_c, 0, 49, 59
2, 750004, Note_on_c, 0, 64, 0
2, 750008, Note_on_c, 0, 56, 0
2, 750012, Note_on_c, 0, 49, 0
2, 750128, Note_on_c, 0, 64, 50
2, 750131, Note_on_c, 0, 56, 44
2, 750140, Note_on_c, 0, 49, 39
2, 750182, Note_on_c, 0, 64, 0
2, 750200, Note_on_c, 0, 56, 0
2, 750210, Note_on_c, 0, 49, 0
2, 750318, Note_on_c, 0, 49, 52
2, 750322, Note_on_c, 0, 56, 46
2, 750324, Note_on_c, 0, 64, 51
2, 750376, Note_on_c, 0, 49, 0
2, 750380, Note_on_c, 0, 64, 0
2, 750382, Note_on_c, 0, 56, 0
2, 750510, Note_on_c, 0, 51, 55
2, 750512, Note_on_c, 0, 63, 59
2, 750516, Note_on_c, 0, 56, 35
2, 750568, Note_on_c, 0, 63, 0
2, 750570, Note_on_c, 0, 51, 0
2, 750578, Note_on_c, 0, 56, 0
2, 750696, Note_on_c, 0, 52, 71
2, 750696, Note_on_c, 0, 56, 37
2, 750698, Note_on_c, 0, 61, 55
2, 750740, Note_on_c, 0, 52, 0
2, 750758, Note_on_c, 0, 56, 0
2, 750760, Note_on_c, 0, 61, 0
2, 750898, Note_on_c, 0, 54, 60
2, 750900, Note_on_c, 0, 56, 49
2, 750900, Note_on_c, 0, 44, 73
2, 750902, Note_on_c, 0, 60, 59
2, 750948, Note_on_c, 0, 44, 0
2, 750950, Note_on_c, 0, 54, 0
2, 750954, Note_on_c, 0, 56, 0
2, 750958, Note_on_c, 0, 60, 0
2, 751076, Note_on_c, 0, 60, 44
2, 751076, Note_on_c, 0, 68, 63
2, 751086, Note_on_c, 0, 56, 62
2, 751092, Note_on_c, 0, 54, 52
2, 751122, Note_on_c, 0, 68, 0
2, 751140, Note_on_c, 0, 60, 0
2, 751142, Note_on_c, 0, 56, 0
2, 751150, Note_on_c, 0, 54, 0
2, 751262, Note_on_c, 0, 68, 75
2, 751268, Note_on_c, 0, 60, 50
2, 751268, Note_on_c, 0, 56, 50
2, 751272, Note_on_c, 0, 54, 63
2, 751312, Note_on_c, 0, 68, 0
2, 751324, Note_on_c, 0, 56, 0
2, 751330, Note_on_c, 0, 60, 0
2, 751336, Note_on_c, 0, 54, 0
2, 751446, Note_on_c, 0, 60, 74
2, 751449, Note_on_c, 0, 68, 87
2, 751449, Note_on_c, 0, 56, 59
2, 751458, Note_on_c, 0, 54, 71
2, 751506, Note_on_c, 0, 54, 0
2, 751514, Note_on_c, 0, 56, 0
2, 751514, Note_on_c, 0, 60, 0
2, 751520, Note_on_c, 0, 68, 0
2, 751636, Note_on_c, 0, 68, 82
2, 751642, Note_on_c, 0, 60, 77
2, 751644, Note_on_c, 0, 54, 74
2, 751644, Note_on_c, 0, 56, 52
2, 751692, Note_on_c, 0, 54, 0
2, 751702, Note_on_c, 0, 60, 0
2, 751708, Note_on_c, 0, 56, 0
2, 751716, Note_on_c, 0, 68, 0
2, 751816, Note_on_c, 0, 68, 71
2, 751822, Note_on_c, 0, 56, 59
2, 751824, Note_on_c, 0, 60, 74
2, 751826, Note_on_c, 0, 54, 78
2, 751880, Note_on_c, 0, 54, 0
2, 751883, Note_on_c, 0, 60, 0
2, 751888, Note_on_c, 0, 68, 0
2, 751896, Note_on_c, 0, 56, 0
2, 751998, Note_on_c, 0, 61, 77
2, 752006, Note_on_c, 0, 68, 57
2, 752009, Note_on_c, 0, 52, 83
2, 752012, Note_on_c, 0, 56, 37
2, 752062, Note_on_c, 0, 68, 0
2, 752062, Note_on_c, 0, 61, 0
2, 752065, Note_on_c, 0, 52, 0
2, 752082, Note_on_c, 0, 56, 0
2, 752186, Note_on_c, 0, 68, 57
2, 752190, Note_on_c, 0, 56, 26
2, 752192, Note_on_c, 0, 63, 66
2, 752196, Note_on_c, 0, 51, 71
2, 752240, Note_on_c, 0, 51, 0
2, 752243, Note_on_c, 0, 63, 0
2, 752256, Note_on_c, 0, 56, 0
2, 752256, Note_on_c, 0, 68, 0
2, 752376, Note_on_c, 0, 68, 59
2, 752379, Note_on_c, 0, 37, 79
2, 752402, Note_on_c, 0, 64, 59
2, 752422, Note_on_c, 0, 37, 0
2, 752440, Note_on_c, 0, 68, 0
2, 752450, Note_on_c, 0, 64, 0
2, 752562, Note_on_c, 0, 68, 58
2, 752568, Note_on_c, 0, 64, 44
2, 752584, Note_on_c, 0, 49, 69
2, 752584, Note_on_c, 0, 52, 69
2, 752630, Note_on_c, 0, 52, 0
2, 752630, Note_on_c, 0, 49, 0
2, 752634, Note_on_c, 0, 64, 0
2, 752634, Note_on_c, 0, 68, 0
2, 752756, Note_on_c, 0, 68, 46
2, 752760, Note_on_c, 0, 64, 62
2, 752784, Note_on_c, 0, 49, 50
2, 752784, Note_on_c, 0, 52, 42
2, 752818, Note_on_c, 0, 64, 0
2, 752840, Note_on_c, 0, 52, 0
2, 752964, Note_on_c, 0, 61, 36
2, 752964, Note_on_c, 0, 56, 47
2, 752968, Note_on_c, 0, 52, 44
2, 752972, Note_on_c, 0, 64, 28
2, 752984, Note_on_c, 0, 68, 0
2, 752998, Note_on_c, 0, 49, 0
2, 753018, Note_on_c, 0, 52, 0
2, 753028, Note_on_c, 0, 56, 0
2, 753042, Note_on_c, 0, 64, 0
2, 753070, Note_on_c, 0, 61, 0
2, 753158, Note_on_c, 0, 42, 74
2, 753194, Note_on_c, 0, 42, 0
2, 753208, Control_c, 0, 64, 127
2, 753284, Control_c, 0, 64, 0
2, 753342, Note_on_c, 0, 66, 52
2, 753345, Note_on_c, 0, 69, 56
2, 753348, Note_on_c, 0, 54, 74
2, 753358, Note_on_c, 0, 49, 55
2, 753403, Note_on_c, 0, 54, 0
2, 753410, Note_on_c, 0, 66, 0
2, 753410, Note_on_c, 0, 69, 0
2, 753410, Note_on_c, 0, 49, 0
2, 753532, Note_on_c, 0, 49, 44
2, 753535, Note_on_c, 0, 69, 58
2, 753542, Note_on_c, 0, 66, 46
2, 753544, Note_on_c, 0, 54, 73
2, 753600, Note_on_c, 0, 54, 0
2, 753630, Note_on_c, 0, 66, 0
2, 753692, Note_on_c, 0, 49, 0
2, 753708, Note_on_c, 0, 61, 50
2, 753708, Note_on_c, 0, 66, 48
2, 753720, Note_on_c, 0, 57, 41
2, 753722, Note_on_c, 0, 54, 62
2, 753732, Note_on_c, 0, 69, 0
2, 753770, Note_on_c, 0, 54, 0
2, 753792, Note_on_c, 0, 57, 0
2, 753830, Note_on_c, 0, 61, 0
2, 753860, Note_on_c, 0, 66, 0
2, 753910, Note_on_c, 0, 44, 85
2, 753916, Control_c, 0, 64, 127
2, 753960, Note_on_c, 0, 44, 0
2, 753962, Control_c, 0, 64, 0
2, 754090, Note_on_c, 0, 68, 67
2, 754102, Note_on_c, 0, 64, 79
2, 754108, Note_on_c, 0, 49, 66
2, 754110, Note_on_c, 0, 52, 75
2, 754152, Note_on_c, 0, 64, 0
2, 754155, Note_on_c, 0, 52, 0
2, 754168, Note_on_c, 0, 49, 0
2, 754168, Note_on_c, 0, 68, 0
2, 754282, Note_on_c, 0, 68, 60
2, 754286, Note_on_c, 0, 49, 49
2, 754286, Note_on_c, 0, 64, 72
2, 754286, Note_on_c, 0, 52, 58
2, 754332, Note_on_c, 0, 52, 0
2, 754336, Note_on_c, 0, 64, 0
2, 754428, Note_on_c, 0, 49, 0
2, 754484, Note_on_c, 0, 52, 48
2, 754484, Note_on_c, 0, 64, 40
2, 754486, Note_on_c, 0, 56, 52
2, 754486, Note_on_c, 0, 61, 52
2, 754508, Note_on_c, 0, 68, 0
2, 754514, Control_c, 0, 64, 127
2, 754540, Note_on_c, 0, 52, 0
2, 754550, Note_on_c, 0, 56, 0
2, 754550, Note_on_c, 0, 64, 0
2, 754588, Note_on_c, 0, 61, 0
2, 754668, Control_c, 0, 64, 0
2, 754694, Note_on_c, 0, 44, 65
2, 754770, Note_on_c, 0, 44, 0
2, 754852, Note_on_c, 0, 68, 59
2, 754858, Note_on_c, 0, 51, 52
2, 754862, Note_on_c, 0, 63, 64
2, 754864, Note_on_c, 0, 48, 34
2, 754914, Note_on_c, 0, 63, 0
2, 754914, Note_on_c, 0, 51, 0
2, 754920, Note_on_c, 0, 68, 0
2, 754926, Note_on_c, 0, 48, 0
2, 754928, Control_c, 0, 64, 127
2, 755006, Control_c, 0, 64, 0
2, 755044, Note_on_c, 0, 68, 51
2, 755046, Note_on_c, 0, 48, 25
2, 755050, Note_on_c, 0, 63, 48
2, 755098, Note_on_c, 0, 51, 26
2, 755122, Note_on_c, 0, 63, 0
2, 755132, Note_on_c, 0, 48, 0
2, 755166, Note_on_c, 0, 51, 0
2, 755206, Control_c, 0, 64, 127
2, 755235, Note_on_c, 0, 68, 0
2, 755240, Note_on_c, 0, 63, 56
2, 755248, Note_on_c, 0, 60, 48
2, 755252, Note_on_c, 0, 51, 43
2, 755254, Note_on_c, 0, 56, 48
2, 755308, Note_on_c, 0, 51, 0
2, 755310, Note_on_c, 0, 56, 0
2, 755314, Note_on_c, 0, 60, 0
2, 755320, Note_on_c, 0, 63, 0
2, 755390, Control_c, 0, 64, 0
2, 755458, Note_on_c, 0, 64, 72
2, 755462, Note_on_c, 0, 37, 74
2, 755465, Note_on_c, 0, 61, 58
2, 755504, Note_on_c, 0, 64, 0
2, 755508, Note_on_c, 0, 37, 0
2, 755516, Note_on_c, 0, 61, 0
2, 755560, Control_c, 0, 64, 127
2, 755698, Note_on_c, 0, 76, 73
2, 755704, Note_on_c, 0, 56, 65
2, 755704, Note_on_c, 0, 68, 43
2, 755704, Note_on_c, 0, 49, 63
2, 755712, Note_on_c, 0, 64, 21
2, 755746, Note_on_c, 0, 76, 0
2, 755758, Note_on_c, 0, 49, 0
2, 755758, Note_on_c, 0, 56, 0
2, 755766, Note_on_c, 0, 68, 0
2, 755772, Note_on_c, 0, 64, 0
2, 755774, Control_c, 0, 64, 0
2, 755892, Note_on_c, 0, 64, 63
2, 755892, Note_on_c, 0, 76, 78
2, 755895, Note_on_c, 0, 68, 51
2, 755904, Note_on_c, 0, 56, 62
2, 755910, Note_on_c, 0, 49, 49
2, 755942, Note_on_c, 0, 76, 0
2, 755958, Note_on_c, 0, 56, 0
2, 755958, Note_on_c, 0, 68, 0
2, 755964, Note_on_c, 0, 49, 0
2, 755966, Note_on_c, 0, 64, 0
2, 756064, Note_on_c, 0, 64, 81
2, 756068, Note_on_c, 0, 68, 59
2, 756070, Note_on_c, 0, 76, 83
2, 756080, Note_on_c, 0, 49, 43
2, 756080, Note_on_c, 0, 56, 49
2, 756128, Note_on_c, 0, 76, 0
2, 756144, Note_on_c, 0, 49, 0
2, 756146, Note_on_c, 0, 56, 0
2, 756160, Note_on_c, 0, 64, 0
2, 756164, Note_on_c, 0, 68, 0
2, 756240, Note_on_c, 0, 68, 70
2, 756246, Note_on_c, 0, 64, 82
2, 756254, Note_on_c, 0, 76, 85
2, 756254, Note_on_c, 0, 56, 56
2, 756262, Note_on_c, 0, 49, 58
2, 756310, Note_on_c, 0, 76, 0
2, 756330, Note_on_c, 0, 56, 0
2, 756330, Note_on_c, 0, 49, 0
2, 756342, Note_on_c, 0, 64, 0
2, 756352, Note_on_c, 0, 68, 0
2, 756416, Note_on_c, 0, 68, 77
2, 756422, Note_on_c, 0, 64, 90
2, 756424, Note_on_c, 0, 76, 90
2, 756432, Note_on_c, 0, 56, 62
2, 756442, Note_on_c, 0, 49, 63
2, 756460, Note_on_c, 0, 76, 0
2, 756496, Note_on_c, 0, 49, 0
2, 756500, Note_on_c, 0, 64, 0
2, 756502, Note_on_c, 0, 56, 0
2, 756512, Note_on_c, 0, 68, 0
2, 756602, Note_on_c, 0, 75, 97
2, 756608, Note_on_c, 0, 63, 98
2, 756608, Note_on_c, 0, 66, 81
2, 756610, Note_on_c, 0, 56, 64
2, 756614, Note_on_c, 0, 51, 83
2, 756652, Note_on_c, 0, 75, 0
2, 756676, Note_on_c, 0, 56, 0
2, 756676, Note_on_c, 0, 51, 0
2, 756698, Note_on_c, 0, 63, 0
2, 756708, Note_on_c, 0, 66, 0
2, 756782, Note_on_c, 0, 73, 96
2, 756782, Note_on_c, 0, 64, 102
2, 756785, Note_on_c, 0, 61, 95
2, 756788, Note_on_c, 0, 56, 74
2, 756800, Note_on_c, 0, 52, 97
2, 756842, Note_on_c, 0, 52, 0
2, 756846, Note_on_c, 0, 56, 0
2, 756880, Note_on_c, 0, 73, 0
2, 756894, Note_on_c, 0, 61, 0
2, 756897, Note_on_c, 0, 64, 0
2, 756963, Note_on_c, 0, 72, 100
2, 756970, Note_on_c, 0, 60, 105
2, 756970, Note_on_c, 0, 63, 100
2, 756970, Note_on_c, 0, 54, 93
2, 756970, Note_on_c, 0, 44, 90
2, 757004, Note_on_c, 0, 60, 0
2, 757006, Note_on_c, 0, 54, 0
2, 757006, Note_on_c, 0, 63, 0
2, 757008, Note_on_c, 0, 44, 0
2, 757024, Note_on_c, 0, 72, 0
2, 757066, Control_c, 0, 64, 127
2, 757184, Note_on_c, 0, 84, 103
2, 757190, Note_on_c, 0, 72, 67
2, 757192, Note_on_c, 0, 66, 75
2, 757204, Control_c, 0, 64, 0
2, 757204, Note_on_c, 0, 75, 50
2, 757207, Note_on_c, 0, 56, 57
2, 757222, Note_on_c, 0, 84, 0
2, 757236, Note_on_c, 0, 66, 0
2, 757256, Note_on_c, 0, 75, 0
2, 757262, Note_on_c, 0, 56, 0
2, 757266, Note_on_c, 0, 72, 0
2, 757354, Note_on_c, 0, 75, 98
2, 757354, Note_on_c, 0, 72, 87
2, 757357, Note_on_c, 0, 84, 108
2, 757360, Note_on_c, 0, 66, 74
2, 757362, Note_on_c, 0, 56, 59
2, 757412, Note_on_c, 0, 66, 0
2, 757417, Note_on_c, 0, 56, 0
2, 757442, Note_on_c, 0, 84, 0
2, 757450, Note_on_c, 0, 75, 0
2, 757454, Note_on_c, 0, 72, 0
2, 757530, Note_on_c, 0, 75, 82
2, 757530, Note_on_c, 0, 84, 88
2, 757533, Note_on_c, 0, 72, 86
2, 757542, Note_on_c, 0, 66, 83
2, 757550, Note_on_c, 0, 56, 82
2, 757598, Note_on_c, 0, 56, 0
2, 757602, Note_on_c, 0, 66, 0
2, 757630, Note_on_c, 0, 72, 0
2, 757630, Note_on_c, 0, 84, 0
2, 757650, Note_on_c, 0, 75, 0
2, 757718, Note_on_c, 0, 66, 87
2, 757718, Note_on_c, 0, 75, 93
2, 757718, Note_on_c, 0, 84, 106
2, 757721, Note_on_c, 0, 72, 105
2, 757730, Note_on_c, 0, 56, 86
2, 757780, Note_on_c, 0, 56, 0
2, 757812, Note_on_c, 0, 84, 0
2, 757820, Note_on_c, 0, 72, 0
2, 757824, Note_on_c, 0, 66, 0
2, 757846, Note_on_c, 0, 75, 0
2, 757896, Note_on_c, 0, 66, 83
2, 757904, Note_on_c, 0, 75, 103
2, 757906, Note_on_c, 0, 72, 108
2, 757908, Note_on_c, 0, 84, 109
2, 757916, Note_on_c, 0, 56, 93
2, 757962, Note_on_c, 0, 56, 0
2, 757992, Note_on_c, 0, 72, 0
2, 757996, Note_on_c, 0, 84, 0
2, 758000, Note_on_c, 0, 66, 0
2, 758036, Note_on_c, 0, 75, 0
2, 758080, Note_on_c, 0, 85, 115
2, 758080, Note_on_c, 0, 73, 113
2, 758083, Note_on_c, 0, 76, 101
2, 758092, Note_on_c, 0, 64, 105
2, 758092, Note_on_c, 0, 56, 100
2, 758142, Note_on_c, 0, 56, 0
2, 758146, Note_on_c, 0, 64, 0
2, 758168, Note_on_c, 0, 73, 0
2, 758184, Note_on_c, 0, 85, 0
2, 758202, Note_on_c, 0, 76, 0
2, 758262, Note_on_c, 0, 63, 109
2, 758262, Note_on_c, 0, 75, 101
2, 758262, Note_on_c, 0, 87, 111
2, 758265, Note_on_c, 0, 78, 103
2, 758274, Note_on_c, 0, 56, 96
2, 758292, Note_on_c, 0, 63, 0
2, 758312, Note_on_c, 0, 56, 0
2, 758376, Note_on_c, 0, 75, 0
2, 758378, Note_on_c, 0, 78, 0
2, 758396, Note_on_c, 0, 87, 0
2, 758456, Note_on_c, 0, 88, 120
2, 758462, Note_on_c, 0, 76, 104
2, 758464, Note_on_c, 0, 80, 101
2, 758470, Note_on_c, 0, 49, 100
2, 758480, Note_on_c, 0, 37, 83
2, 758482, Note_on_c, 0, 88, 0
2, 758500, Note_on_c, 0, 80, 0
2, 758504, Note_on_c, 0, 49, 0
2, 758512, Note_on_c, 0, 76, 0
2, 758518, Note_on_c, 0, 37, 0
2, 758524, Control_c, 0, 64, 127
2, 758680, Note_on_c, 0, 64, 89
2, 758684, Note_on_c, 0, 68, 66
2, 758686, Note_on_c, 0, 76, 78
2, 758688, Note_on_c, 0, 56, 54
2, 758694, Note_on_c, 0, 49, 77
2, 758724, Note_on_c, 0, 64, 0
2, 758734, Note_on_c, 0, 76, 0
2, 758738, Note_on_c, 0, 68, 0
2, 758740, Note_on_c, 0, 49, 0
2, 758744, Note_on_c, 0, 56, 0
2, 758770, Control_c, 0, 64, 0
2, 758860, Note_on_c, 0, 76, 81
2, 758860, Note_on_c, 0, 49, 63
2, 758863, Note_on_c, 0, 64, 79
2, 758864, Note_on_c, 0, 56, 55
2, 758868, Note_on_c, 0, 68, 50
2, 758906, Note_on_c, 0, 76, 0
2, 758912, Note_on_c, 0, 64, 0
2, 758916, Note_on_c, 0, 49, 0
2, 758924, Note_on_c, 0, 68, 0
2, 758934, Note_on_c, 0, 56, 0
2, 759034, Note_on_c, 0, 76, 85
2, 759038, Note_on_c, 0, 68, 49
2, 759040, Note_on_c, 0, 56, 67
2, 759040, Note_on_c, 0, 64, 72
2, 759048, Note_on_c, 0, 49, 59
2, 759088, Note_on_c, 0, 76, 0
2, 759096, Note_on_c, 0, 64, 0
2, 759098, Note_on_c, 0, 56, 0
2, 759101, Note_on_c, 0, 49, 0
2, 759104, Note_on_c, 0, 68, 0
2, 759222, Note_on_c, 0, 56, 59
2, 759222, Note_on_c, 0, 76, 85
2, 759225, Note_on_c, 0, 68, 57
2, 759228, Note_on_c, 0, 64, 73
2, 759230, Note_on_c, 0, 49, 56
2, 759268, Note_on_c, 0, 76, 0
2, 759278, Note_on_c, 0, 64, 0
2, 759288, Note_on_c, 0, 49, 0
2, 759296, Note_on_c, 0, 68, 0
2, 759296, Note_on_c, 0, 56, 0
2, 759398, Note_on_c, 0, 56, 65
2, 759404, Note_on_c, 0, 76, 90
2, 759406, Note_on_c, 0, 49, 69
2, 759408, Note_on_c, 0, 64, 87
2, 759410, Note_on_c, 0, 68, 63
2, 759440, Note_on_c, 0, 76, 0
2, 759452, Note_on_c, 0, 64, 0
2, 759464, Note_on_c, 0, 56, 0
2, 759466, Note_on_c, 0, 49, 0
2, 759482, Note_on_c, 0, 68, 0
2, 759578, Note_on_c, 0, 66, 81
2, 759581, Note_on_c, 0, 75, 86
2, 759588, Note_on_c, 0, 51, 81
2, 759594, Note_on_c, 0, 63, 70
2, 759596, Note_on_c, 0, 56, 62
2, 759624, Note_on_c, 0, 75, 0
2, 759638, Note_on_c, 0, 63, 0
2, 759650, Note_on_c, 0, 56, 0
2, 759656, Note_on_c, 0, 51, 0
2, 759690, Note_on_c, 0, 66, 0
2, 759750, Note_on_c, 0, 73, 95
2, 759752, Note_on_c, 0, 61, 95
2, 759756, Note_on_c, 0, 56, 60
2, 759758, Note_on_c, 0, 64, 93
2, 759764, Note_on_c, 0, 52, 102
2, 759802, Note_on_c, 0, 52, 0
2, 759810, Note_on_c, 0, 56, 0
2, 759840, Note_on_c, 0, 64, 0
2, 759856, Note_on_c, 0, 73, 0
2, 759859, Note_on_c, 0, 61, 0
2, 759940, Note_on_c, 0, 60, 97
2, 759944, Note_on_c, 0, 63, 93
2, 759946, Note_on_c, 0, 72, 95
2, 759948, Note_on_c, 0, 44, 83
2, 759948, Note_on_c, 0, 54, 93
2, 759976, Note_on_c, 0, 63, 0
2, 759980, Note_on_c, 0, 60, 0
2, 759986, Note_on_c, 0, 54, 0
2, 759988, Note_on_c, 0, 44, 0
2, 759994, Note_on_c, 0, 72, 0
2, 760000, Control_c, 0, 64, 127
2, 760142, Note_on_c, 0, 72, 86
2, 760142, Note_on_c, 0, 75, 93
2, 760145, Note_on_c, 0, 84, 102
2, 760145, Note_on_c, 0, 66, 74
2, 760156, Note_on_c, 0, 56, 65
2, 760180, Note_on_c, 0, 84, 0
2, 760186, Note_on_c, 0, 75, 0
2, 760200, Note_on_c, 0, 72, 0
2, 760200, Note_on_c, 0, 66, 0
2, 760214, Note_on_c, 0, 56, 0
2, 760230, Control_c, 0, 64, 0
2, 760318, Note_on_c, 0, 72, 105
2, 760320, Note_on_c, 0, 75, 90
2, 760322, Note_on_c, 0, 84, 112
2, 760322, Note_on_c, 0, 66, 78
2, 760324, Note_on_c, 0, 56, 69
2, 760376, Note_on_c, 0, 56, 0
2, 760376, Note_on_c, 0, 66, 0
2, 760410, Note_on_c, 0, 84, 0
2, 760418, Note_on_c, 0, 72, 0
2, 760430, Note_on_c, 0, 75, 0
2, 760490, Note_on_c, 0, 84, 94
2, 760492, Note_on_c, 0, 75, 96
2, 760494, Note_on_c, 0, 72, 100
2, 760502, Note_on_c, 0, 66, 80
2, 760510, Note_on_c, 0, 56, 87
2, 760558, Note_on_c, 0, 66, 0
2, 760561, Note_on_c, 0, 56, 0
2, 760580, Note_on_c, 0, 84, 0
2, 760596, Note_on_c, 0, 72, 0
2, 760599, Note_on_c, 0, 75, 0
2, 760676, Note_on_c, 0, 75, 96
2, 760678, Note_on_c, 0, 84, 108
2, 760678, Note_on_c, 0, 72, 105
2, 760680, Note_on_c, 0, 66, 89
2, 760692, Note_on_c, 0, 56, 88
2, 760745, Note_on_c, 0, 56, 0
2, 760766, Note_on_c, 0, 84, 0
2, 760784, Note_on_c, 0, 72, 0
2, 760792, Note_on_c, 0, 66, 0
2, 760800, Note_on_c, 0, 75, 0
2, 760870, Note_on_c, 0, 66, 82
2, 760874, Note_on_c, 0, 72, 108
2, 760874, Note_on_c, 0, 75, 90
2, 760874, Note_on_c, 0, 56, 95
2, 760880, Note_on_c, 0, 84, 108
2, 760930, Note_on_c, 0, 56, 0
2, 760944, Note_on_c, 0, 72, 0
2, 760958, Note_on_c, 0, 84, 0
2, 760990, Note_on_c, 0, 66, 0
2, 761002, Note_on_c, 0, 75, 0
2, 761048, Note_on_c, 0, 85, 111
2, 761048, Note_on_c, 0, 73, 106
2, 761054, Note_on_c, 0, 76, 94
2, 761054, Note_on_c, 0, 56, 100
2, 761054, Note_on_c, 0, 64, 95
2, 761102, Note_on_c, 0, 64, 0
2, 761104, Note_on_c, 0, 76, 0
2, 761106, Note_on_c, 0, 56, 0
2, 761136, Note_on_c, 0, 85, 0
2, 761146, Note_on_c, 0, 73, 0
2, 761226, Note_on_c, 0, 78, 101
2, 761226, Note_on_c, 0, 75, 96
2, 761229, Note_on_c, 0, 87, 98
2, 761234, Note_on_c, 0, 63, 101
2, 761242, Note_on_c, 0, 56, 86
2, 761266, Note_on_c, 0, 63, 0
2, 761280, Note_on_c, 0, 56, 0
2, 761302, Note_on_c, 0, 75, 0
2, 761324, Note_on_c, 0, 87, 0
2, 761334, Note_on_c, 0, 78, 0
2, 761422, Note_on_c, 0, 88, 120
2, 761428, Note_on_c, 0, 61, 105
2, 761430, Note_on_c, 0, 76, 102
2, 761430, Note_on_c, 0, 80, 98
2, 761432, Note_on_c, 0, 49, 101
2, 761468, Note_on_c, 0, 49, 0
2, 761468, Note_on_c, 0, 61, 0
2, 761506, Control_c, 0, 64, 127
2, 761528, Note_on_c, 0, 80, 0
2, 761548, Note_on_c, 0, 76, 0
2, 761562, Note_on_c, 0, 88, 0
2, 761616, Note_on_c, 0, 85, 96
2, 761616, Note_on_c, 0, 80, 79
2, 761624, Note_on_c, 0, 61, 74
2, 761626, Note_on_c, 0, 64, 79
2, 761674, Control_c, 0, 64, 0
2, 761682, Note_on_c, 0, 64, 0
2, 761687, Note_on_c, 0, 61, 0
2, 761726, Note_on_c, 0, 85, 0
2, 761734, Note_on_c, 0, 80, 0
2, 761798, Note_on_c, 0, 85, 83
2, 761801, Note_on_c, 0, 80, 78
2, 761814, Note_on_c, 0, 61, 63
2, 761822, Note_on_c, 0, 64, 71
2, 761876, Note_on_c, 0, 64, 0
2, 761918, Note_on_c, 0, 80, 0
2, 761990, Note_on_c, 0, 80, 64
2, 761992, Note_on_c, 0, 61, 0
2, 762014, Note_on_c, 0, 68, 52
2, 762014, Note_on_c, 0, 76, 50
2, 762030, Note_on_c, 0, 64, 52
2, 762033, Note_on_c, 0, 85, 0
2, 762066, Note_on_c, 0, 68, 0
2, 762078, Note_on_c, 0, 64, 0
2, 762098, Note_on_c, 0, 76, 0
2, 762178, Note_on_c, 0, 80, 0
2, 762190, Note_on_c, 0, 54, 94
2, 762240, Note_on_c, 0, 54, 0
2, 762258, Control_c, 0, 64, 127
2, 762357, Note_on_c, 0, 85, 74
2, 762358, Note_on_c, 0, 81, 72
2, 762362, Note_on_c, 0, 66, 55
2, 762372, Note_on_c, 0, 61, 73
2, 762422, Note_on_c, 0, 66, 0
2, 762426, Note_on_c, 0, 61, 0
2, 762434, Note_on_c, 0, 81, 0
2, 762444, Control_c, 0, 64, 0
2, 762474, Note_on_c, 0, 85, 0
2, 762530, Note_on_c, 0, 85, 98
2, 762533, Note_on_c, 0, 81, 75
2, 762546, Note_on_c, 0, 61, 55
2, 762564, Note_on_c, 0, 66, 59
2, 762626, Note_on_c, 0, 66, 0
2, 762646, Note_on_c, 0, 81, 0
2, 762650, Note_on_c, 0, 61, 0
2, 762718, Note_on_c, 0, 81, 67
2, 762722, Note_on_c, 0, 69, 48
2, 762724, Note_on_c, 0, 78, 66
2, 762725, Note_on_c, 0, 66, 55
2, 762774, Note_on_c, 0, 66, 0
2, 762780, Note_on_c, 0, 69, 0
2, 762784, Note_on_c, 0, 85, 0
2, 762808, Note_on_c, 0, 78, 0
2, 762811, Control_c, 0, 64, 127
2, 762826, Note_on_c, 0, 81, 0
2, 762874, Control_c, 0, 64, 0
2, 762920, Note_on_c, 0, 56, 86
2, 763060, Note_on_c, 0, 56, 0
2, 763116, Note_on_c, 0, 80, 78
2, 763118, Control_c, 0, 64, 127
2, 763122, Note_on_c, 0, 76, 77
2, 763140, Note_on_c, 0, 64, 59
2, 763142, Note_on_c, 0, 61, 56
2, 763174, Note_on_c, 0, 76, 0
2, 763190, Note_on_c, 0, 64, 0
2, 763200, Note_on_c, 0, 61, 0
2, 763212, Note_on_c, 0, 80, 0
2, 763242, Control_c, 0, 64, 0
2, 763300, Note_on_c, 0, 80, 71
2, 763300, Note_on_c, 0, 61, 39
2, 763310, Note_on_c, 0, 76, 82
2, 763314, Note_on_c, 0, 64, 50
2, 763370, Note_on_c, 0, 64, 0
2, 763392, Note_on_c, 0, 76, 0
2, 763446, Note_on_c, 0, 61, 0
2, 763472, Control_c, 0, 64, 127
2, 763494, Note_on_c, 0, 68, 48
2, 763494, Note_on_c, 0, 73, 47
2, 763498, Note_on_c, 0, 64, 55
2, 763500, Note_on_c, 0, 76, 42
2, 763514, Note_on_c, 0, 80, 0
2, 763544, Note_on_c, 0, 64, 0
2, 763550, Note_on_c, 0, 68, 0
2, 763580, Control_c, 0, 64, 0
2, 763616, Note_on_c, 0, 73, 0
2, 763636, Note_on_c, 0, 76, 0
2, 763682, Note_on_c, 0, 54, 90
2, 763724, Note_on_c, 0, 54, 0
2, 763810, Control_c, 0, 64, 127
2, 763856, Note_on_c, 0, 75, 72
2, 763856, Note_on_c, 0, 80, 67
2, 763870, Note_on_c, 0, 60, 33
2, 763872, Note_on_c, 0, 63, 52
2, 763908, Note_on_c, 0, 75, 0
2, 763922, Note_on_c, 0, 80, 0
2, 763922, Note_on_c, 0, 63, 0
2, 763940, Note_on_c, 0, 60, 0
2, 764010, Control_c, 0, 64, 0
2, 764038, Note_on_c, 0, 60, 57
2, 764046, Note_on_c, 0, 80, 66
2, 764046, Note_on_c, 0, 75, 66
2, 764050, Note_on_c, 0, 63, 40
2, 764104, Note_on_c, 0, 63, 0
2, 764106, Note_on_c, 0, 75, 0
2, 764116, Note_on_c, 0, 60, 0
2, 764204, Note_on_c, 0, 80, 0
2, 764218, Note_on_c, 0, 75, 54
2, 764220, Note_on_c, 0, 63, 52
2, 764222, Note_on_c, 0, 68, 43
2, 764226, Control_c, 0, 64, 127
2, 764226, Note_on_c, 0, 72, 39
2, 764266, Note_on_c, 0, 63, 0
2, 764280, Note_on_c, 0, 75, 0
2, 764280, Note_on_c, 0, 68, 0
2, 764286, Note_on_c, 0, 72, 0
2, 764348, Control_c, 0, 64, 0
2, 764436, Note_on_c, 0, 52, 90
2, 764478, Note_on_c, 0, 52, 0
2, 764564, Control_c, 0, 64, 127
2, 764612, Note_on_c, 0, 80, 66
2, 764624, Note_on_c, 0, 73, 50
2, 764676, Note_on_c, 0, 80, 0
2, 764682, Note_on_c, 0, 73, 0
2, 764762, Control_c, 0, 64, 0
2, 764800, Note_on_c, 0, 80, 72
2, 764802, Note_on_c, 0, 73, 55
2, 764805, Note_on_c, 0, 56, 60
2, 764812, Note_on_c, 0, 61, 65
2, 764870, Note_on_c, 0, 56, 0
2, 764878, Note_on_c, 0, 61, 0
2, 764950, Note_on_c, 0, 73, 0
2, 764950, Note_on_c, 0, 80, 0
2, 764978, Control_c, 0, 64, 127
2, 765016, Note_on_c, 0, 76, 48
2, 765020, Note_on_c, 0, 68, 57
2, 765038, Note_on_c, 0, 61, 17
2, 765076, Note_on_c, 0, 76, 0
2, 765090, Note_on_c, 0, 61, 0
2, 765100, Note_on_c, 0, 68, 0
2, 765100, Control_c, 0, 64, 0
2, 765224, Note_on_c, 0, 42, 67
2, 765266, Note_on_c, 0, 42, 0
2, 765316, Control_c, 0, 64, 127
2, 765420, Note_on_c, 0, 78, 73
2, 765430, Note_on_c, 0, 69, 54
2, 765438, Note_on_c, 0, 57, 29
2, 765440, Note_on_c, 0, 54, 72
2, 765470, Note_on_c, 0, 78, 0
2, 765492, Note_on_c, 0, 54, 0
2, 765506, Note_on_c, 0, 57, 0
2, 765512, Note_on_c, 0, 69, 0
2, 765604, Note_on_c, 0, 78, 77
2, 765606, Note_on_c, 0, 54, 54
2, 765610, Note_on_c, 0, 57, 48
2, 765612, Note_on_c, 0, 69, 47
2, 765640, Control_c, 0, 64, 0
2, 765680, Note_on_c, 0, 57, 0
2, 765706, Note_on_c, 0, 54, 0
2, 765736, Note_on_c, 0, 69, 0
2, 765742, Note_on_c, 0, 78, 0
2, 765808, Control_c, 0, 64, 127
2, 765820, Note_on_c, 0, 74, 62
2, 765824, Note_on_c, 0, 57, 47
2, 765826, Note_on_c, 0, 66, 46
2, 765828, Note_on_c, 0, 62, 37
2, 765874, Note_on_c, 0, 74, 0
2, 765880, Note_on_c, 0, 57, 0
2, 765890, Note_on_c, 0, 66, 0
2, 765894, Note_on_c, 0, 62, 0
2, 765916, Control_c, 0, 64, 0
2, 766006, Note_on_c, 0, 44, 90
2, 766052, Note_on_c, 0, 44, 0
2, 766116, Control_c, 0, 64, 127
2, 766200, Note_on_c, 0, 68, 67
2, 766202, Note_on_c, 0, 76, 70
2, 766210, Note_on_c, 0, 56, 71
2, 766214, Note_on_c, 0, 52, 28
2, 766254, Note_on_c, 0, 76, 0
2, 766267, Note_on_c, 0, 68, 0
2, 766276, Note_on_c, 0, 56, 0
2, 766276, Note_on_c, 0, 52, 0
2, 766392, Control_c, 0, 64, 0
2, 766392, Note_on_c, 0, 76, 72
2, 766395, Note_on_c, 0, 68, 49
2, 766408, Note_on_c, 0, 56, 48
2, 766411, Note_on_c, 0, 52, 77
2, 766478, Note_on_c, 0, 56, 0
2, 766504, Note_on_c, 0, 52, 0
2, 766556, Note_on_c, 0, 68, 0
2, 766560, Note_on_c, 0, 76, 0
2, 766590, Note_on_c, 0, 73, 55
2, 766592, Note_on_c, 0, 56, 57
2, 766592, Control_c, 0, 64, 127
2, 766592, Note_on_c, 0, 64, 54
2, 766602, Note_on_c, 0, 61, 40
2, 766640, Note_on_c, 0, 56, 0
2, 766670, Note_on_c, 0, 61, 0
2, 766698, Note_on_c, 0, 64, 0
2, 766714, Control_c, 0, 64, 0
2, 766732, Note_on_c, 0, 73, 0
2, 766792, Note_on_c, 0, 44, 87
2, 766854, Note_on_c, 0, 44, 0
2, 766914, Control_c, 0, 64, 127
2, 767004, Note_on_c, 0, 75, 69
2, 767008, Note_on_c, 0, 54, 51
2, 767012, Note_on_c, 0, 66, 46
2, 767014, Note_on_c, 0, 51, 33
2, 767064, Note_on_c, 0, 54, 0
2, 767066, Note_on_c, 0, 75, 0
2, 767078, Note_on_c, 0, 51, 0
2, 767080, Note_on_c, 0, 66, 0
2, 767206, Control_c, 0, 64, 0
2, 767230, Note_on_c, 0, 75, 52
2, 767234, Note_on_c, 0, 51, 34
2, 767234, Note_on_c, 0, 54, 43
2, 767240, Note_on_c, 0, 66, 41
2, 767296, Note_on_c, 0, 54, 0
2, 767398, Note_on_c, 0, 66, 0
2, 767420, Note_on_c, 0, 51, 0
2, 767420, Control_c, 0, 64, 127
2, 767478, Note_on_c, 0, 54, 41
2, 767480, Note_on_c, 0, 72, 52
2, 767480, Note_on_c, 0, 63, 43
2, 767483, Note_on_c, 0, 75, 0
2, 767486, Note_on_c, 0, 60, 26
2, 767538, Note_on_c, 0, 54, 0
2, 767550, Note_on_c, 0, 60, 0
2, 767658, Note_on_c, 0, 63, 0
2, 767784, Note_on_c, 0, 73, 57
2, 767790, Control_c, 0, 64, 0
2, 767796, Note_on_c, 0, 37, 44
2, 767808, Note_on_c, 0, 64, 42
2, 767844, Note_on_c, 0, 72, 0
2, 767914, Note_on_c, 0, 49, 47
2, 767988, Note_on_c, 0, 49, 0
2, 768014, Note_on_c, 0, 44, 52
2, 768060, Note_on_c, 0, 37, 0
2, 768066, Control_c, 0, 64, 127
2, 768094, Note_on_c, 0, 44, 0
2, 768118, Note_on_c, 0, 49, 27
2, 768206, Note_on_c, 0, 49, 0
2, 768220, Note_on_c, 0, 37, 57
2, 768284, Note_on_c, 0, 37, 0
2, 768308, Note_on_c, 0, 49, 37
2, 768328, Note_on_c, 0, 64, 0
2, 768392, Note_on_c, 0, 49, 0
2, 768426, Note_on_c, 0, 44, 56
2, 768490, Note_on_c, 0, 44, 0
2, 768495, Note_on_c, 0, 73, 0
2, 768516, Note_on_c, 0, 49, 50
2, 768592, Note_on_c, 0, 49, 0
2, 768622, Note_on_c, 0, 37, 67
2, 768684, Note_on_c, 0, 37, 0
2, 768716, Note_on_c, 0, 49, 46
2, 768800, Note_on_c, 0, 49, 0
2, 768842, Note_on_c, 0, 44, 48
2, 768906, Note_on_c, 0, 44, 0
2, 768928, Note_on_c, 0, 49, 42
2, 768988, Control_c, 0, 64, 0
2, 768992, Note_on_c, 0, 64, 90
2, 769014, Note_on_c, 0, 49, 0
2, 769034, Note_on_c, 0, 37, 55
2, 769114, Note_on_c, 0, 37, 0
2, 769140, Note_on_c, 0, 49, 49
2, 769188, Control_c, 0, 64, 127
2, 769210, Note_on_c, 0, 49, 0
2, 769258, Note_on_c, 0, 44, 47
2, 769326, Note_on_c, 0, 44, 0
2, 769350, Note_on_c, 0, 61, 86
2, 769364, Note_on_c, 0, 49, 51
2, 769368, Note_on_c, 0, 64, 0
2, 769468, Note_on_c, 0, 61, 0
2, 769471, Note_on_c, 0, 49, 0
2, 769471, Note_on_c, 0, 60, 100
2, 769490, Note_on_c, 0, 37, 56
2, 769542, Control_c, 0, 64, 0
2, 769610, Note_on_c, 0, 51, 58
2, 769660, Note_on_c, 0, 37, 0
2, 769715, Note_on_c, 0, 44, 54
2, 769719, Note_on_c, 0, 51, 0
2, 769756, Control_c, 0, 64, 127
2, 769786, Note_on_c, 0, 44, 0
2, 769808, Note_on_c, 0, 51, 48
2, 769818, Note_on_c, 0, 60, 0
2, 769904, Note_on_c, 0, 68, 74
2, 769906, Note_on_c, 0, 51, 0
2, 769909, Note_on_c, 0, 54, 70
2, 769914, Note_on_c, 0, 60, 36
2, 769924, Note_on_c, 0, 37, 46
2, 770028, Note_on_c, 0, 51, 35
2, 770032, Control_c, 0, 64, 0
2, 770138, Note_on_c, 0, 51, 0
2, 770138, Note_on_c, 0, 37, 0
2, 770148, Note_on_c, 0, 44, 47
2, 770186, Note_on_c, 0, 60, 0
2, 770188, Control_c, 0, 64, 127
2, 770194, Note_on_c, 0, 54, 0
2, 770206, Note_on_c, 0, 68, 0
2, 770218, Note_on_c, 0, 44, 0
2, 770226, Note_on_c, 0, 51, 50
2, 770352, Note_on_c, 0, 51, 0
2, 770354, Note_on_c, 0, 68, 73
2, 770356, Control_c, 0, 64, 0
2, 770362, Note_on_c, 0, 37, 50
2, 770374, Note_on_c, 0, 54, 60
2, 770388, Note_on_c, 0, 60, 50
2, 770448, Note_on_c, 0, 51, 37
2, 770456, Note_on_c, 0, 37, 0
2, 770572, Control_c, 0, 64, 127
2, 770575, Note_on_c, 0, 51, 0
2, 770584, Note_on_c, 0, 44, 43
2, 770618, Note_on_c, 0, 54, 0
2, 770628, Note_on_c, 0, 68, 0
2, 770630, Note_on_c, 0, 60, 0
2, 770656, Note_on_c, 0, 44, 0
2, 770659, Note_on_c, 0, 51, 51
2, 770768, Note_on_c, 0, 51, 0
2, 770770, Control_c, 0, 64, 0
2, 770772, Note_on_c, 0, 68, 71
2, 770792, Note_on_c, 0, 54, 58
2, 770802, Note_on_c, 0, 37, 52
2, 770806, Note_on_c, 0, 60, 48
2, 770864, Note_on_c, 0, 37, 0
2, 770896, Note_on_c, 0, 51, 39
2, 770940, Control_c, 0, 64, 127
2, 770946, Note_on_c, 0, 54, 0
2, 770950, Note_on_c, 0, 68, 0
2, 770972, Note_on_c, 0, 51, 0
2, 771004, Note_on_c, 0, 44, 50
2, 771030, Note_on_c, 0, 60, 0
2, 771074, Note_on_c, 0, 44, 0
2, 771077, Note_on_c, 0, 51, 46
2, 771136, Note_on_c, 0, 52, 70
2, 771156, Note_on_c, 0, 51, 0
2, 771228, Note_on_c, 0, 37, 58
2, 771231, Control_c, 0, 64, 0
2, 771231, Note_on_c, 0, 61, 56
2, 771324, Note_on_c, 0, 52, 0
2, 771370, Control_c, 0, 64, 127
2, 771382, Note_on_c, 0, 49, 47
2, 771432, Note_on_c, 0, 68, 74
2, 771476, Note_on_c, 0, 49, 0
2, 771542, Note_on_c, 0, 37, 0
2, 771552, Note_on_c, 0, 44, 36
2, 771624, Note_on_c, 0, 44, 0
2, 771654, Note_on_c, 0, 49, 39
2, 771682, Note_on_c, 0, 61, 0
2, 771742, Note_on_c, 0, 49, 0
2, 771770, Note_on_c, 0, 37, 55
2, 771868, Note_on_c, 0, 37, 0
2, 771886, Note_on_c, 0, 49, 40
2, 771964, Note_on_c, 0, 49, 0
2, 771990, Note_on_c, 0, 44, 49
2, 772050, Note_on_c, 0, 44, 0
2, 772088, Note_on_c, 0, 49, 42
2, 772152, Note_on_c, 0, 49, 0
2, 772184, Note_on_c, 0, 37, 52
2, 772202, Note_on_c, 0, 68, 0
2, 772252, Note_on_c, 0, 37, 0
2, 772282, Note_on_c, 0, 49, 47
2, 772354, Note_on_c, 0, 49, 0
2, 772408, Note_on_c, 0, 44, 41
2, 772482, Note_on_c, 0, 44, 0
2, 772520, Note_on_c, 0, 49, 48
2, 772604, Note_on_c, 0, 49, 0
2, 772676, Note_on_c, 0, 76, 66
2, 772679, Note_on_c, 0, 37, 44
2, 772778, Note_on_c, 0, 37, 0
2, 772782, Note_on_c, 0, 49, 49
2, 772844, Control_c, 0, 64, 0
2, 772874, Note_on_c, 0, 49, 0
2, 772916, Note_on_c, 0, 44, 49
2, 772968, Control_c, 0, 64, 127
2, 772984, Note_on_c, 0, 44, 0
2, 773038, Note_on_c, 0, 49, 55
2, 773060, Note_on_c, 0, 73, 44
2, 773068, Note_on_c, 0, 76, 0
2, 773100, Note_on_c, 0, 49, 0
2, 773120, Note_on_c, 0, 73, 0
2, 773158, Note_on_c, 0, 37, 57
2, 773170, Note_on_c, 0, 72, 64
2, 773182, Control_c, 0, 64, 0
2, 773278, Note_on_c, 0, 51, 52
2, 773346, Note_on_c, 0, 37, 0
2, 773364, Note_on_c, 0, 51, 0
2, 773398, Control_c, 0, 64, 127
2, 773406, Note_on_c, 0, 44, 39
2, 773462, Note_on_c, 0, 72, 0
2, 773476, Note_on_c, 0, 44, 0
2, 773512, Note_on_c, 0, 51, 40
2, 773584, Note_on_c, 0, 51, 0
2, 773616, Note_on_c, 0, 80, 66
2, 773630, Note_on_c, 0, 66, 26
2, 773640, Note_on_c, 0, 37, 55
2, 773654, Note_on_c, 0, 72, 17
2, 773704, Note_on_c, 0, 37, 0
2, 773744, Note_on_c, 0, 51, 47
2, 773754, Note_on_c, 0, 72, 0
2, 773778, Note_on_c, 0, 66, 0
2, 773792, Note_on_c, 0, 80, 0
2, 773810, Note_on_c, 0, 51, 0
2, 773836, Note_on_c, 0, 44, 47
2, 773896, Note_on_c, 0, 44, 0
2, 773946, Note_on_c, 0, 51, 31
2, 774020, Note_on_c, 0, 51, 0
2, 774038, Note_on_c, 0, 80, 74
2, 774054, Note_on_c, 0, 66, 39
2, 774054, Note_on_c, 0, 37, 54
2, 774066, Note_on_c, 0, 72, 42
2, 774110, Note_on_c, 0, 37, 0
2, 774130, Note_on_c, 0, 72, 0
2, 774142, Note_on_c, 0, 51, 43
2, 774148, Note_on_c, 0, 66, 0
2, 774214, Note_on_c, 0, 80, 0
2, 774218, Note_on_c, 0, 51, 0
2, 774262, Note_on_c, 0, 44, 37
2, 774330, Note_on_c, 0, 44, 0
2, 774332, Note_on_c, 0, 51, 52
2, 774424, Note_on_c, 0, 51, 0
2, 774460, Note_on_c, 0, 37, 62
2, 774476, Note_on_c, 0, 80, 85
2, 774484, Note_on_c, 0, 66, 52
2, 774496, Note_on_c, 0, 72, 56
2, 774524, Note_on_c, 0, 37, 0
2, 774574, Note_on_c, 0, 51, 43
2, 774636, Note_on_c, 0, 66, 0
2, 774640, Note_on_c, 0, 51, 0
2, 774654, Note_on_c, 0, 80, 0
2, 774674, Note_on_c, 0, 44, 41
2, 774740, Note_on_c, 0, 72, 0
2, 774744, Note_on_c, 0, 44, 0
2, 774746, Note_on_c, 0, 51, 57
2, 774804, Note_on_c, 0, 51, 0
2, 774842, Control_c, 0, 64, 0
2, 774868, Note_on_c, 0, 37, 66
2, 774886, Note_on_c, 0, 64, 85
2, 774932, Note_on_c, 0, 64, 0
2, 774984, Note_on_c, 0, 73, 47
2, 775010, Control_c, 0, 64, 127
2, 775012, Note_on_c, 0, 49, 39
2, 775068, Note_on_c, 0, 37, 0
2, 775078, Note_on_c, 0, 80, 83
2, 775094, Note_on_c, 0, 49, 0
2, 775122, Note_on_c, 0, 44, 41
2, 775188, Note_on_c, 0, 44, 0
2, 775224, Note_on_c, 0, 49, 40
2, 775288, Note_on_c, 0, 49, 0
2, 775326, Note_on_c, 0, 37, 52
2, 775396, Note_on_c, 0, 37, 0
2, 775418, Note_on_c, 0, 49, 40
2, 775480, Note_on_c, 0, 49, 0
2, 775522, Note_on_c, 0, 44, 47
2, 775592, Note_on_c, 0, 44, 0
2, 775604, Note_on_c, 0, 49, 44
2, 775618, Note_on_c, 0, 73, 0
2, 775646, Note_on_c, 0, 80, 0
2, 775678, Note_on_c, 0, 49, 0
2, 775720, Note_on_c, 0, 37, 66
2, 775734, Control_c, 0, 64, 0
2, 775746, Note_on_c, 0, 66, 60
2, 775846, Note_on_c, 0, 72, 63
2, 775852, Note_on_c, 0, 51, 46
2, 775872, Note_on_c, 0, 66, 0
2, 775888, Control_c, 0, 64, 127
2, 775920, Note_on_c, 0, 51, 0
2, 775926, Note_on_c, 0, 37, 0
2, 775934, Note_on_c, 0, 80, 70
2, 775948, Note_on_c, 0, 44, 35
2, 776026, Note_on_c, 0, 44, 0
2, 776056, Note_on_c, 0, 51, 34
2, 776142, Note_on_c, 0, 51, 0
2, 776142, Note_on_c, 0, 37, 55
2, 776244, Note_on_c, 0, 37, 0
2, 776247, Note_on_c, 0, 51, 47
2, 776350, Note_on_c, 0, 51, 0
2, 776350, Note_on_c, 0, 80, 0
2, 776356, Note_on_c, 0, 44, 51
2, 776428, Note_on_c, 0, 44, 0
2, 776428, Note_on_c, 0, 51, 64
2, 776492, Note_on_c, 0, 72, 0
2, 776500, Note_on_c, 0, 51, 0
2, 776518, Control_c, 0, 64, 0
2, 776566, Note_on_c, 0, 37, 60
2, 776572, Note_on_c, 0, 64, 72
2, 776636, Note_on_c, 0, 64, 0
2, 776672, Control_c, 0, 64, 127
2, 776692, Note_on_c, 0, 49, 49
2, 776700, Note_on_c, 0, 73, 47
2, 776718, Note_on_c, 0, 37, 0
2, 776770, Note_on_c, 0, 49, 0
2, 776794, Note_on_c, 0, 80, 80
2, 776808, Note_on_c, 0, 44, 42
2, 776874, Note_on_c, 0, 44, 0
2, 776938, Note_on_c, 0, 49, 32
2, 777008, Note_on_c, 0, 49, 0
2, 777020, Note_on_c, 0, 37, 48
2, 777088, Note_on_c, 0, 37, 0
2, 777091, Note_on_c, 0, 49, 42
2, 777186, Note_on_c, 0, 49, 0
2, 777208, Note_on_c, 0, 44, 48
2, 777276, Note_on_c, 0, 44, 0
2, 777288, Note_on_c, 0, 49, 43
2, 777294, Note_on_c, 0, 80, 0
2, 777386, Note_on_c, 0, 49, 0
2, 777398, Note_on_c, 0, 73, 0
2, 777432, Note_on_c, 0, 37, 52
2, 777454, Control_c, 0, 64, 0
2, 777466, Note_on_c, 0, 66, 37
2, 777564, Note_on_c, 0, 66, 0
2, 777564, Note_on_c, 0, 51, 40
2, 777567, Note_on_c, 0, 72, 54
2, 777624, Control_c, 0, 64, 127
2, 777632, Note_on_c, 0, 51, 0
2, 777650, Note_on_c, 0, 80, 63
2, 777656, Note_on_c, 0, 44, 43
2, 777678, Note_on_c, 0, 37, 0
2, 777732, Note_on_c, 0, 44, 0
2, 777752, Note_on_c, 0, 51, 33
2, 777800, Note_on_c, 0, 72, 0
2, 777840, Note_on_c, 0, 51, 0
2, 777848, Note_on_c, 0, 37, 50
2, 777858, Note_on_c, 0, 80, 0
2, 777946, Note_on_c, 0, 51, 41
2, 777949, Note_on_c, 0, 37, 0
2, 778034, Note_on_c, 0, 51, 0
2, 778066, Note_on_c, 0, 44, 39
2, 778120, Note_on_c, 0, 51, 56
2, 778142, Note_on_c, 0, 44, 0
2, 778180, Note_on_c, 0, 51, 0
2, 778244, Note_on_c, 0, 37, 51
2, 778247, Note_on_c, 0, 52, 72
2, 778254, Control_c, 0, 64, 0
2, 778348, Note_on_c, 0, 49, 52
2, 778358, Note_on_c, 0, 61, 54
2, 778412, Note_on_c, 0, 49, 0
2, 778418, Note_on_c, 0, 37, 0
2, 778436, Note_on_c, 0, 44, 52
2, 778438, Control_c, 0, 64, 127
2, 778442, Note_on_c, 0, 52, 0
2, 778448, Note_on_c, 0, 61, 0
2, 778454, Note_on_c, 0, 56, 56
2, 778504, Note_on_c, 0, 44, 0
2, 778530, Note_on_c, 0, 56, 0
2, 778532, Note_on_c, 0, 49, 42
2, 778534, Note_on_c, 0, 61, 66
2, 778596, Note_on_c, 0, 49, 0
2, 778599, Note_on_c, 0, 61, 0
2, 778632, Note_on_c, 0, 52, 69
2, 778634, Note_on_c, 0, 37, 57
2, 778712, Note_on_c, 0, 37, 0
2, 778724, Note_on_c, 0, 61, 47
2, 778734, Note_on_c, 0, 52, 0
2, 778738, Note_on_c, 0, 49, 47
2, 778798, Note_on_c, 0, 49, 0
2, 778816, Note_on_c, 0, 61, 0
2, 778826, Note_on_c, 0, 56, 65
2, 778828, Note_on_c, 0, 44, 57
2, 778888, Note_on_c, 0, 44, 0
2, 778914, Note_on_c, 0, 56, 0
2, 778916, Note_on_c, 0, 61, 64
2, 778924, Note_on_c, 0, 49, 44
2, 778988, Note_on_c, 0, 49, 0
2, 779030, Note_on_c, 0, 52, 79
2, 779032, Note_on_c, 0, 61, 0
2, 779032, Note_on_c, 0, 37, 69
2, 779116, Note_on_c, 0, 37, 0
2, 779118, Note_on_c, 0, 61, 54
2, 779132, Note_on_c, 0, 52, 0
2, 779144, Note_on_c, 0, 49, 63
2, 779194, Note_on_c, 0, 49, 0
2, 779222, Note_on_c, 0, 56, 73
2, 779226, Note_on_c, 0, 61, 0
2, 779226, Note_on_c, 0, 44, 56
2, 779288, Note_on_c, 0, 44, 0
2, 779300, Note_on_c, 0, 56, 0
2, 779302, Note_on_c, 0, 61, 73
2, 779308, Note_on_c, 0, 49, 69
2, 779386, Note_on_c, 0, 49, 0
2, 779398, Note_on_c, 0, 52, 82
2, 779400, Note_on_c, 0, 37, 66
2, 779408, Note_on_c, 0, 61, 0
2, 779458, Note_on_c, 0, 37, 0
2, 779474, Note_on_c, 0, 49, 71
2, 779476, Note_on_c, 0, 61, 80
2, 779512, Note_on_c, 0, 52, 0
2, 779576, Note_on_c, 0, 56, 75
2, 779576, Note_on_c, 0, 44, 80
2, 779584, Note_on_c, 0, 61, 0
2, 779588, Note_on_c, 0, 49, 0
2, 779648, Note_on_c, 0, 49, 87
2, 779651, Note_on_c, 0, 44, 0
2, 779666, Note_on_c, 0, 61, 75
2, 779700, Note_on_c, 0, 49, 0
2, 779710, Note_on_c, 0, 56, 0
2, 779728, Control_c, 0, 64, 0
2, 779752, Note_on_c, 0, 49, 96
2, 779754, Note_on_c, 0, 53, 116
2, 779757, Note_on_c, 0, 35, 117
2, 779780, Note_on_c, 0, 61, 0
2, 779834, Note_on_c, 0, 47, 79
2, 779846, Note_on_c, 0, 61, 77
2, 779870, Note_on_c, 0, 35, 0
2, 779928, Control_c, 0, 64, 127
2, 779930, Note_on_c, 0, 37, 83
2, 779936, Note_on_c, 0, 56, 83
2, 779950, Note_on_c, 0, 47, 0
2, 779953, Note_on_c, 0, 53, 0
2, 779958, Note_on_c, 0, 61, 0
2, 779990, Note_on_c, 0, 49, 0
2, 780020, Note_on_c, 0, 47, 82
2, 780022, Note_on_c, 0, 61, 82
2, 780054, Note_on_c, 0, 37, 0
2, 780068, Note_on_c, 0, 56, 0
2, 780114, Note_on_c, 0, 47, 0
2, 780118, Note_on_c, 0, 53, 111
2, 780124, Note_on_c, 0, 49, 85
2, 780130, Note_on_c, 0, 35, 106
2, 780152, Note_on_c, 0, 61, 0
2, 780218, Note_on_c, 0, 47, 62
2, 780218, Note_on_c, 0, 61, 78
2, 780234, Note_on_c, 0, 49, 0
2, 780266, Note_on_c, 0, 35, 0
2, 780272, Note_on_c, 0, 53, 0
2, 780313, Note_on_c, 0, 56, 85
2, 780317, Note_on_c, 0, 37, 94
2, 780322, Note_on_c, 0, 47, 0
2, 780332, Note_on_c, 0, 61, 0
2, 780404, Note_on_c, 0, 61, 79
2, 780410, Note_on_c, 0, 47, 86
2, 780442, Note_on_c, 0, 37, 0
2, 780448, Note_on_c, 0, 56, 0
2, 780502, Note_on_c, 0, 47, 0
2, 780505, Note_on_c, 0, 49, 93
2, 780509, Note_on_c, 0, 53, 118
2, 780509, Note_on_c, 0, 35, 118
2, 780538, Note_on_c, 0, 61, 0
2, 780592, Note_on_c, 0, 47, 65
2, 780610, Note_on_c, 0, 49, 0
2, 780614, Note_on_c, 0, 61, 79
2, 780634, Note_on_c, 0, 35, 0
2, 780654, Note_on_c, 0, 53, 0
2, 780680, Note_on_c, 0, 37, 94
2, 780690, Note_on_c, 0, 47, 0
2, 780690, Note_on_c, 0, 56, 89
2, 780710, Note_on_c, 0, 61, 0
2, 780776, Note_on_c, 0, 47, 86
2, 780786, Note_on_c, 0, 61, 81
2, 780814, Note_on_c, 0, 37, 0
2, 780836, Note_on_c, 0, 56, 0
2, 780866, Note_on_c, 0, 47, 0
2, 780884, Note_on_c, 0, 49, 93
2, 780887, Note_on_c, 0, 35, 115
2, 780887, Note_on_c, 0, 53, 118
2, 780916, Note_on_c, 0, 61, 0
2, 780964, Note_on_c, 0, 47, 80
2, 780980, Note_on_c, 0, 61, 87
2, 780986, Note_on_c, 0, 49, 0
2, 781032, Note_on_c, 0, 35, 0
2, 781058, Note_on_c, 0, 47, 0
2, 781072, Note_on_c, 0, 53, 0
2, 781082, Note_on_c, 0, 56, 86
2, 781090, Note_on_c, 0, 37, 87
2, 781104, Note_on_c, 0, 61, 0
2, 781130, Note_on_c, 0, 47, 83
2, 781160, Note_on_c, 0, 61, 96
2, 781186, Note_on_c, 0, 47, 0
2, 781210, Note_on_c, 0, 37, 0
2, 781230, Note_on_c, 0, 56, 0
2, 781268, Note_on_c, 0, 61, 0
2, 781296, Control_c, 0, 64, 0
2, 781300, Note_on_c, 0, 49, 118
2, 781300, Note_on_c, 0, 54, 109
2, 781308, Note_on_c, 0, 61, 80
2, 781308, Note_on_c, 0, 57, 96
2, 781316, Note_on_c, 0, 45, 124
2, 781316, Note_on_c, 0, 33, 124
2, 781378, Note_on_c, 0, 49, 0
2, 781402, Note_on_c, 0, 45, 0
2, 781402, Note_on_c, 0, 54, 0
2, 781402, Note_on_c, 0, 33, 0
2, 781432, Note_on_c, 0, 57, 0
2, 781448, Note_on_c, 0, 49, 78
2, 781494, Note_on_c, 0, 42, 90
2, 781504, Note_on_c, 0, 54, 89
2, 781522, Note_on_c, 0, 61, 0
2, 781542, Control_c, 0, 64, 127
2, 781572, Note_on_c, 0, 49, 0
2, 781577, Note_on_c, 0, 42, 0
2, 781588, Control_c, 0, 64, 0
2, 781608, Note_on_c, 0, 57, 85
2, 781672, Note_on_c, 0, 54, 0
2, 781672, Note_on_c, 0, 33, 101
2, 781682, Note_on_c, 0, 61, 90
2, 781718, Note_on_c, 0, 57, 0
2, 781766, Note_on_c, 0, 33, 0
2, 781766, Note_on_c, 0, 54, 86
2, 781800, Note_on_c, 0, 61, 0
2, 781836, Note_on_c, 0, 42, 86
2, 781848, Note_on_c, 0, 57, 79
2, 781894, Note_on_c, 0, 54, 0
2, 781940, Note_on_c, 0, 42, 0
2, 781944, Note_on_c, 0, 61, 90
2, 781992, Note_on_c, 0, 57, 0
2, 782032, Note_on_c, 0, 33, 102
2, 782034, Note_on_c, 0, 66, 87
2, 782078, Note_on_c, 0, 61, 0
2, 782112, Note_on_c, 0, 33, 0
2, 782126, Note_on_c, 0, 57, 80
2, 782162, Note_on_c, 0, 66, 0
2, 782188, Note_on_c, 0, 42, 81
2, 782198, Note_on_c, 0, 61, 82
2, 782240, Note_on_c, 0, 57, 0
2, 782298, Note_on_c, 0, 42, 0
2, 782302, Note_on_c, 0, 66, 72
2, 782336, Note_on_c, 0, 61, 0
2, 782368, Note_on_c, 0, 69, 83
2, 782378, Note_on_c, 0, 33, 97
2, 782440, Note_on_c, 0, 69, 0
2, 782442, Note_on_c, 0, 66, 0
2, 782460, Note_on_c, 0, 33, 0
2, 782468, Note_on_c, 0, 61, 104
2, 782528, Note_on_c, 0, 42, 75
2, 782554, Note_on_c, 0, 66, 75
2, 782588, Note_on_c, 0, 61, 0
2, 782602, Control_c, 0, 64, 127
2, 782622, Note_on_c, 0, 42, 0
2, 782628, Note_on_c, 0, 69, 77
2, 782708, Note_on_c, 0, 66, 0
2, 782724, Note_on_c, 0, 73, 95
2, 782728, Note_on_c, 0, 33, 92
2, 782760, Note_on_c, 0, 69, 0
2, 782806, Note_on_c, 0, 33, 0
2, 782806, Note_on_c, 0, 66, 77
2, 782824, Note_on_c, 0, 73, 0
2, 782884, Note_on_c, 0, 42, 74
2, 782892, Note_on_c, 0, 69, 77
2, 782926, Note_on_c, 0, 66, 0
2, 782964, Note_on_c, 0, 42, 0
2, 782967, Note_on_c, 0, 73, 90
2, 783018, Note_on_c, 0, 69, 0
2, 783048, Note_on_c, 0, 78, 96
2, 783068, Note_on_c, 0, 33, 100
2, 783088, Note_on_c, 0, 73, 0
2, 783118, Note_on_c, 0, 33, 0
2, 783136, Note_on_c, 0, 69, 89
2, 783156, Note_on_c, 0, 78, 0
2, 783204, Note_on_c, 0, 73, 81
2, 783214, Note_on_c, 0, 42, 82
2, 783264, Note_on_c, 0, 69, 0
2, 783292, Note_on_c, 0, 78, 93
2, 783330, Note_on_c, 0, 42, 0
2, 783356, Note_on_c, 0, 73, 0
2, 783366, Note_on_c, 0, 81, 97
2, 783378, Note_on_c, 0, 33, 110
2, 783412, Note_on_c, 0, 81, 0
2, 783424, Note_on_c, 0, 78, 0
2, 783462, Note_on_c, 0, 73, 87
2, 783482, Note_on_c, 0, 33, 0
2, 783526, Note_on_c, 0, 78, 71
2, 783544, Note_on_c, 0, 42, 86
2, 783585, Note_on_c, 0, 73, 0
2, 783608, Note_on_c, 0, 81, 85
2, 783610, Note_on_c, 0, 42, 0
2, 783632, Control_c, 0, 64, 0
2, 783660, Note_on_c, 0, 78, 0
2, 783676, Note_on_c, 0, 81, 0
2, 783708, Note_on_c, 0, 78, 112
2, 783708, Note_on_c, 0, 73, 125
2, 783708, Note_on_c, 0, 45, 123
2, 783711, Note_on_c, 0, 85, 119
2, 783711, Note_on_c, 0, 33, 121
2, 783716, Note_on_c, 0, 81, 111
2, 783844, Note_on_c, 0, 33, 0
2, 783846, Note_on_c, 0, 85, 0
2, 783846, Control_c, 0, 64, 127
2, 783856, Note_on_c, 0, 81, 0
2, 783868, Note_on_c, 0, 73, 0
2, 783874, Note_on_c, 0, 78, 0
2, 783894, Note_on_c, 0, 45, 0
2, 783894, Note_on_c, 0, 85, 96
2, 783897, Note_on_c, 0, 73, 100
2, 783904, Note_on_c, 0, 42, 98
2, 783910, Note_on_c, 0, 81, 104
2, 783910, Note_on_c, 0, 78, 46
2, 783926, Note_on_c, 0, 85, 0
2, 783944, Note_on_c, 0, 81, 0
2, 783958, Note_on_c, 0, 78, 0
2, 783996, Note_on_c, 0, 42, 0
2, 784004, Note_on_c, 0, 73, 0
2, 784092, Control_c, 0, 64, 0
2, 784114, Note_on_c, 0, 32, 118
2, 784196, Note_on_c, 0, 49, 103
2, 784240, Note_on_c, 0, 32, 0
2, 784282, Note_on_c, 0, 52, 101
2, 784290, Note_on_c, 0, 40, 111
2, 784328, Note_on_c, 0, 49, 0
2, 784360, Note_on_c, 0, 56, 88
2, 784384, Control_c, 0, 64, 127
2, 784402, Note_on_c, 0, 40, 0
2, 784412, Note_on_c, 0, 52, 0
2, 784450, Note_on_c, 0, 61, 93
2, 784458, Note_on_c, 0, 32, 90
2, 784508, Note_on_c, 0, 56, 0
2, 784546, Note_on_c, 0, 52, 108
2, 784560, Note_on_c, 0, 61, 0
2, 784576, Note_on_c, 0, 32, 0
2, 784624, Note_on_c, 0, 40, 92
2, 784624, Note_on_c, 0, 56, 85
2, 784660, Note_on_c, 0, 52, 0
2, 784712, Note_on_c, 0, 61, 83
2, 784734, Note_on_c, 0, 40, 0
2, 784766, Note_on_c, 0, 56, 0
2, 784786, Note_on_c, 0, 64, 98
2, 784800, Note_on_c, 0, 32, 95
2, 784842, Note_on_c, 0, 64, 0
2, 784856, Note_on_c, 0, 61, 0
2, 784888, Note_on_c, 0, 56, 101
2, 784902, Note_on_c, 0, 32, 0
2, 784970, Note_on_c, 0, 40, 100
2, 784984, Note_on_c, 0, 61, 103
2, 785008, Note_on_c, 0, 56, 0
2, 785052, Note_on_c, 0, 64, 92
2, 785076, Note_on_c, 0, 40, 0
2, 785120, Note_on_c, 0, 61, 0
2, 785134, Note_on_c, 0, 68, 96
2, 785144, Note_on_c, 0, 32, 96
2, 785182, Note_on_c, 0, 64, 0
2, 785213, Note_on_c, 0, 61, 86
2, 785260, Note_on_c, 0, 32, 0
2, 785276, Note_on_c, 0, 68, 0
2, 785304, Note_on_c, 0, 40, 101
2, 785307, Note_on_c, 0, 64, 89
2, 785346, Note_on_c, 0, 61, 0
2, 785382, Note_on_c, 0, 68, 73
2, 785400, Note_on_c, 0, 40, 0
2, 785436, Note_on_c, 0, 64, 0
2, 785464, Note_on_c, 0, 32, 100
2, 785468, Note_on_c, 0, 73, 98
2, 785524, Note_on_c, 0, 68, 0
2, 785564, Note_on_c, 0, 64, 105
2, 785602, Note_on_c, 0, 73, 0
2, 785605, Note_on_c, 0, 32, 0
2, 785624, Note_on_c, 0, 68, 78
2, 785634, Note_on_c, 0, 40, 104
2, 785664, Note_on_c, 0, 64, 0
2, 785718, Note_on_c, 0, 73, 77
2, 785742, Note_on_c, 0, 40, 0
2, 785764, Note_on_c, 0, 68, 0
2, 785792, Note_on_c, 0, 32, 95
2, 785792, Note_on_c, 0, 76, 97
2, 785834, Note_on_c, 0, 76, 0
2, 785850, Note_on_c, 0, 73, 0
2, 785876, Note_on_c, 0, 68, 96
2, 785924, Note_on_c, 0, 32, 0
2, 785948, Note_on_c, 0, 40, 104
2, 785958, Note_on_c, 0, 73, 83
2, 786010, Note_on_c, 0, 68, 0
2, 786034, Note_on_c, 0, 76, 73
2, 786060, Note_on_c, 0, 40, 0
2, 786112, Note_on_c, 0, 73, 0
2, 786120, Note_on_c, 0, 32, 101
2, 786120, Note_on_c, 0, 80, 101
2, 786164, Note_on_c, 0, 76, 0
2, 786200, Note_on_c, 0, 73, 81
2, 786234, Note_on_c, 0, 80, 0
2, 786272, Note_on_c, 0, 32, 0
2, 786272, Note_on_c, 0, 40, 101
2, 786294, Note_on_c, 0, 76, 59
2, 786346, Note_on_c, 0, 73, 0
2, 786366, Note_on_c, 0, 40, 0
2, 786374, Note_on_c, 0, 80, 93
2, 786430, Note_on_c, 0, 76, 0
2, 786444, Note_on_c, 0, 80, 0
2, 786490, Note_on_c, 0, 76, 104
2, 786492, Note_on_c, 0, 85, 123
2, 786495, Note_on_c, 0, 80, 110
2, 786498, Note_on_c, 0, 73, 115
2, 786500, Note_on_c, 0, 32, 98
2, 786508, Note_on_c, 0, 44, 115
2, 786638, Note_on_c, 0, 73, 0
2, 786652, Note_on_c, 0, 85, 0
2, 786652, Note_on_c, 0, 44, 0
2, 786666, Note_on_c, 0, 76, 0
2, 786688, Note_on_c, 0, 80, 0
2, 786706, Note_on_c, 0, 32, 0
2, 786716, Note_on_c, 0, 85, 103
2, 786719, Note_on_c, 0, 73, 96
2, 786722, Note_on_c, 0, 76, 97
2, 786742, Note_on_c, 0, 40, 115
2, 786742, Note_on_c, 0, 80, 96
2, 786798, Note_on_c, 0, 85, 0
2, 786804, Note_on_c, 0, 80, 0
2, 786830, Note_on_c, 0, 76, 0
2, 786860, Note_on_c, 0, 73, 0
2, 786910, Note_on_c, 0, 40, 0
2, 787020, Note_on_c, 0, 31, 127
2, 787200, Note_on_c, 0, 49, 93
2, 787272, Note_on_c, 0, 52, 100
2, 787336, Note_on_c, 0, 55, 80
2, 787350, Control_c, 0, 64, 0
2, 787396, Note_on_c, 0, 58, 83
2, 787418, Note_on_c, 0, 61, 112
2, 787506, Note_on_c, 0, 31, 0
2, 787534, Control_c, 0, 64, 127
2, 787580, Note_on_c, 0, 49, 0
2, 787626, Note_on_c, 0, 52, 0
2, 787636, Note_on_c, 0, 31, 112
2, 787664, Note_on_c, 0, 55, 0
2, 787676, Note_on_c, 0, 34, 82
2, 787700, Note_on_c, 0, 37, 86
2, 787706, Note_on_c, 0, 58, 0
2, 787748, Note_on_c, 0, 40, 115
2, 787762, Note_on_c, 0, 61, 0
2, 787776, Note_on_c, 0, 43, 112
2, 787888, Note_on_c, 0, 31, 0
2, 787918, Note_on_c, 0, 61, 86
2, 787944, Note_on_c, 0, 34, 0
2, 787958, Note_on_c, 0, 40, 0
2, 787961, Note_on_c, 0, 37, 0
2, 787984, Note_on_c, 0, 64, 85
2, 788016, Note_on_c, 0, 43, 0
2, 788032, Note_on_c, 0, 67, 80
2, 788078, Note_on_c, 0, 70, 80
2, 788092, Note_on_c, 0, 73, 106
2, 788270, Note_on_c, 0, 61, 0
2, 788276, Note_on_c, 0, 64, 0
2, 788294, Note_on_c, 0, 43, 93
2, 788312, Note_on_c, 0, 67, 0
2, 788320, Note_on_c, 0, 46, 92
2, 788362, Note_on_c, 0, 70, 0
2, 788378, Note_on_c, 0, 49, 89
2, 788404, Note_on_c, 0, 73, 0
2, 788416, Note_on_c, 0, 52, 101
2, 788444, Note_on_c, 0, 43, 0
2, 788474, Note_on_c, 0, 55, 112
2, 788506, Note_on_c, 0, 46, 0
2, 788540, Note_on_c, 0, 49, 0
2, 788566, Note_on_c, 0, 52, 0
2, 788604, Note_on_c, 0, 55, 0
2, 788716, Note_on_c, 0, 73, 98
2, 788786, Note_on_c, 0, 76, 80
2, 788866, Note_on_c, 0, 79, 100
2, 788958, Note_on_c, 0, 82, 75
2, 789016, Note_on_c, 0, 76, 0
2, 789030, Note_on_c, 0, 85, 119
2, 789042, Note_on_c, 0, 64, 110
2, 789045, Note_on_c, 0, 55, 92
2, 789054, Note_on_c, 0, 58, 65
2, 789057, Note_on_c, 0, 61, 79
2, 789066, Note_on_c, 0, 76, 47
2, 789086, Note_on_c, 0, 55, 0
2, 789110, Note_on_c, 0, 61, 0
2, 789110, Note_on_c, 0, 64, 0
2, 789118, Note_on_c, 0, 58, 0
2, 790612, Note_on_c, 0, 85, 0
2, 790624, Note_on_c, 0, 79, 0
2, 790627, Note_on_c, 0, 73, 0
2, 790636, Note_on_c, 0, 76, 0
2, 790644, Note_on_c, 0, 82, 0
2, 791250, Note_on_c, 0, 30, 112
2, 791498, Note_on_c, 0, 45, 72
2, 791560, Control_c, 0, 64, 0
2, 791563, Note_on_c, 0, 48, 71
2, 791624, Note_on_c, 0, 51, 82
2, 791684, Note_on_c, 0, 54, 80
2, 791741, Note_on_c, 0, 57, 93
2, 791745, Note_on_c, 0, 30, 0
2, 791745, Control_c, 0, 64, 127
2, 791878, Note_on_c, 0, 30, 89
2, 791886, Note_on_c, 0, 45, 0
2, 791906, Note_on_c, 0, 33, 87
2, 791910, Note_on_c, 0, 48, 0
2, 791966, Note_on_c, 0, 36, 96
2, 791970, Note_on_c, 0, 51, 0
2, 791988, Note_on_c, 0, 54, 0
2, 792010, Note_on_c, 0, 57, 0
2, 792010, Note_on_c, 0, 39, 87
2, 792034, Note_on_c, 0, 30, 0
2, 792076, Note_on_c, 0, 42, 106
2, 792110, Note_on_c, 0, 33, 0
2, 792180, Note_on_c, 0, 36, 0
2, 792226, Note_on_c, 0, 39, 0
2, 792230, Note_on_c, 0, 57, 83
2, 792252, Note_on_c, 0, 42, 0
2, 792286, Note_on_c, 0, 60, 96
2, 792332, Note_on_c, 0, 63, 94
2, 792362, Note_on_c, 0, 57, 0
2, 792392, Note_on_c, 0, 66, 71
2, 792438, Note_on_c, 0, 69, 94
2, 792504, Note_on_c, 0, 60, 0
2, 792536, Note_on_c, 0, 42, 89
2, 792562, Note_on_c, 0, 63, 0
2, 792572, Note_on_c, 0, 45, 83
2, 792598, Note_on_c, 0, 66, 0
2, 792620, Note_on_c, 0, 69, 0
2, 792638, Note_on_c, 0, 48, 88
2, 792676, Note_on_c, 0, 42, 0
2, 792692, Note_on_c, 0, 51, 90
2, 792732, Note_on_c, 0, 45, 0
2, 792788, Note_on_c, 0, 54, 116
2, 792830, Note_on_c, 0, 48, 0
2, 792904, Note_on_c, 0, 69, 95
2, 792907, Note_on_c, 0, 51, 0
2, 792932, Note_on_c, 0, 54, 0
2, 793012, Note_on_c, 0, 72, 98
2, 793138, Note_on_c, 0, 75, 102
2, 793320, Note_on_c, 0, 81, 112
2, 793328, Note_on_c, 0, 63, 92
2, 793336, Note_on_c, 0, 54, 86
2, 793344, Note_on_c, 0, 60, 75
2, 793354, Note_on_c, 0, 57, 59
2, 795738, Note_on_c, 0, 54, 0
2, 795746, Note_on_c, 0, 63, 0
2, 795782, Note_on_c, 0, 60, 0
2, 795880, Note_on_c, 0, 57, 0
2, 795894, Note_on_c, 0, 81, 0
2, 795976, Note_on_c, 0, 69, 0
2, 796012, Note_on_c, 0, 72, 0
2, 796058, Note_on_c, 0, 75, 0
2, 796734, Note_on_c, 0, 49, 49
2, 796754, Control_c, 0, 64, 0
2, 796932, Note_on_c, 0, 68, 42
2, 797022, Note_on_c, 0, 68, 0
2, 797076, Note_on_c, 0, 64, 42
2, 797146, Note_on_c, 0, 64, 0
2, 797152, Control_c, 0, 64, 127
2, 797174, Note_on_c, 0, 68, 51
2, 797242, Note_on_c, 0, 68, 0
2, 797248, Note_on_c, 0, 56, 67
2, 797268, Note_on_c, 0, 61, 59
2, 797290, Control_c, 0, 64, 0
2, 797410, Note_on_c, 0, 68, 44
2, 797422, Note_on_c, 0, 49, 0
2, 797472, Note_on_c, 0, 68, 0
2, 797484, Note_on_c, 0, 61, 0
2, 797504, Note_on_c, 0, 64, 50
2, 797564, Note_on_c, 0, 64, 0
2, 797568, Note_on_c, 0, 68, 31
2, 797598, Control_c, 0, 64, 127
2, 797686, Note_on_c, 0, 61, 58
2, 797702, Note_on_c, 0, 68, 0
2, 797762, Note_on_c, 0, 61, 0
2, 797778, Note_on_c, 0, 68, 43
2, 797870, Note_on_c, 0, 68, 0
2, 797930, Note_on_c, 0, 64, 34
2, 797978, Note_on_c, 0, 68, 41
2, 797988, Note_on_c, 0, 64, 0
2, 798080, Note_on_c, 0, 52, 87
2, 798083, Note_on_c, 0, 68, 0
2, 798090, Control_c, 0, 64, 0
2, 798093, Note_on_c, 0, 61, 58
2, 798226, Note_on_c, 0, 68, 36
2, 798230, Note_on_c, 0, 61, 0
2, 798264, Note_on_c, 0, 56, 0
2, 798306, Control_c, 0, 64, 127
2, 798332, Note_on_c, 0, 68, 0
2, 798354, Note_on_c, 0, 64, 47
2, 798420, Note_on_c, 0, 64, 0
2, 798426, Note_on_c, 0, 49, 71
2, 798438, Note_on_c, 0, 52, 0
2, 798452, Note_on_c, 0, 68, 36
2, 798476, Note_on_c, 0, 49, 0
2, 798542, Note_on_c, 0, 49, 66
2, 798550, Note_on_c, 0, 68, 0
2, 798550, Note_on_c, 0, 63, 59
2, 798628, Control_c, 0, 64, 0
2, 798680, Note_on_c, 0, 68, 34
2, 798694, Note_on_c, 0, 63, 0
2, 798792, Note_on_c, 0, 68, 0
2, 798808, Note_on_c, 0, 66, 36
2, 798878, Note_on_c, 0, 68, 42
2, 798906, Note_on_c, 0, 66, 0
2, 798920, Control_c, 0, 64, 127
2, 798996, Note_on_c, 0, 68, 0
2, 799001, Note_on_c, 0, 63, 49
2, 799012, Control_c, 0, 64, 0
2, 799026, Note_on_c, 0, 48, 41
2, 799056, Note_on_c, 0, 49, 0
2, 799096, Note_on_c, 0, 68, 34
2, 799102, Note_on_c, 0, 63, 0
2, 799242, Note_on_c, 0, 66, 33
2, 799248, Note_on_c, 0, 68, 0
2, 799324, Note_on_c, 0, 68, 49
2, 799366, Note_on_c, 0, 66, 0
2, 799380, Control_c, 0, 64, 127
2, 799442, Note_on_c, 0, 68, 0
2, 799442, Note_on_c, 0, 63, 46
2, 799448, Note_on_c, 0, 48, 0
2, 799532, Note_on_c, 0, 63, 0
2, 799542, Note_on_c, 0, 68, 34
2, 799624, Note_on_c, 0, 48, 59
2, 799670, Note_on_c, 0, 66, 40
2, 799678, Note_on_c, 0, 68, 0
2, 799752, Note_on_c, 0, 66, 0
2, 799755, Note_on_c, 0, 68, 49
2, 799840, Note_on_c, 0, 56, 79
2, 799850, Note_on_c, 0, 68, 0
2, 799853, Note_on_c, 0, 48, 0
2, 799853, Note_on_c, 0, 63, 51
2, 799888, Control_c, 0, 64, 0
2, 799964, Note_on_c, 0, 68, 37
2, 800012, Note_on_c, 0, 63, 0
2, 800078, Note_on_c, 0, 68, 0
2, 800082, Note_on_c, 0, 66, 36
2, 800088, Control_c, 0, 64, 127
2, 800152, Note_on_c, 0, 48, 54
2, 800152, Note_on_c, 0, 68, 52
2, 800228, Note_on_c, 0, 66, 0
2, 800256, Control_c, 0, 64, 0
2, 800270, Note_on_c, 0, 51, 79
2, 800276, Note_on_c, 0, 68, 0
2, 800276, Note_on_c, 0, 61, 56
2, 800304, Note_on_c, 0, 56, 0
2, 800322, Note_on_c, 0, 48, 0
2, 800386, Note_on_c, 0, 68, 37
2, 800418, Note_on_c, 0, 61, 0
2, 800502, Note_on_c, 0, 68, 0
2, 800528, Note_on_c, 0, 64, 48
2, 800588, Note_on_c, 0, 68, 47
2, 800592, Note_on_c, 0, 64, 0
2, 800624, Control_c, 0, 64, 127
2, 800698, Note_on_c, 0, 68, 0
2, 800711, Note_on_c, 0, 61, 57
2, 800718, Note_on_c, 0, 49, 67
2, 800734, Note_on_c, 0, 51, 0
2, 800764, Control_c, 0, 64, 0
2, 800812, Note_on_c, 0, 68, 33
2, 800818, Note_on_c, 0, 61, 0
2, 800908, Note_on_c, 0, 68, 0
2, 800928, Note_on_c, 0, 64, 60
2, 800986, Note_on_c, 0, 64, 0
2, 801006, Note_on_c, 0, 68, 37
2, 801054, Control_c, 0, 64, 127
2, 801092, Note_on_c, 0, 49, 0
2, 801128, Note_on_c, 0, 61, 55
2, 801144, Note_on_c, 0, 68, 0
2, 801204, Note_on_c, 0, 61, 0
2, 801218, Note_on_c, 0, 68, 47
2, 801332, Note_on_c, 0, 49, 82
2, 801354, Note_on_c, 0, 68, 0
2, 801354, Note_on_c, 0, 64, 54
2, 801416, Note_on_c, 0, 64, 0
2, 801422, Note_on_c, 0, 68, 57
2, 801548, Note_on_c, 0, 61, 59
2, 801556, Note_on_c, 0, 56, 79
2, 801574, Note_on_c, 0, 68, 0
2, 801594, Control_c, 0, 64, 0
2, 801602, Note_on_c, 0, 49, 0
2, 801652, Note_on_c, 0, 68, 46
2, 801698, Note_on_c, 0, 61, 0
2, 801776, Note_on_c, 0, 64, 58
2, 801788, Note_on_c, 0, 68, 0
2, 801808, Control_c, 0, 64, 127
2, 801852, Note_on_c, 0, 64, 0
2, 801855, Note_on_c, 0, 68, 59
2, 801864, Note_on_c, 0, 49, 65
2, 801922, Note_on_c, 0, 56, 0
2, 801946, Control_c, 0, 64, 0
2, 801970, Note_on_c, 0, 52, 90
2, 801972, Note_on_c, 0, 60, 63
2, 801994, Note_on_c, 0, 68, 0
2, 802006, Note_on_c, 0, 49, 0
2, 802070, Note_on_c, 0, 68, 55
2, 802160, Note_on_c, 0, 60, 0
2, 802190, Note_on_c, 0, 68, 0
2, 802202, Note_on_c, 0, 66, 34
2, 802262, Note_on_c, 0, 68, 63
2, 802284, Note_on_c, 0, 66, 0
2, 802300, Control_c, 0, 64, 127
2, 802388, Note_on_c, 0, 68, 0
2, 802391, Note_on_c, 0, 60, 50
2, 802422, Note_on_c, 0, 51, 66
2, 802424, Control_c, 0, 64, 0
2, 802434, Note_on_c, 0, 52, 0
2, 802474, Note_on_c, 0, 68, 47
2, 802538, Note_on_c, 0, 60, 0
2, 802602, Note_on_c, 0, 68, 0
2, 802602, Note_on_c, 0, 66, 41
2, 802684, Note_on_c, 0, 68, 47
2, 802732, Note_on_c, 0, 66, 0
2, 802800, Note_on_c, 0, 68, 0
2, 802800, Note_on_c, 0, 60, 54
2, 802822, Control_c, 0, 64, 127
2, 802890, Note_on_c, 0, 68, 50
2, 802894, Note_on_c, 0, 51, 0
2, 802920, Note_on_c, 0, 60, 0
2, 803004, Note_on_c, 0, 51, 52
2, 803018, Note_on_c, 0, 68, 0
2, 803024, Note_on_c, 0, 66, 40
2, 803098, Control_c, 0, 64, 0
2, 803106, Note_on_c, 0, 68, 47
2, 803170, Note_on_c, 0, 66, 0
2, 803242, Note_on_c, 0, 68, 0
2, 803268, Note_on_c, 0, 60, 50
2, 803276, Note_on_c, 0, 56, 52
2, 803312, Note_on_c, 0, 51, 0
2, 803370, Note_on_c, 0, 68, 33
2, 803464, Note_on_c, 0, 60, 0
2, 803506, Note_on_c, 0, 68, 0
2, 803520, Note_on_c, 0, 66, 25
2, 803544, Control_c, 0, 64, 127
2, 803600, Note_on_c, 0, 68, 39
2, 803658, Note_on_c, 0, 56, 0
2, 803672, Note_on_c, 0, 51, 26
2, 803688, Note_on_c, 0, 66, 0
2, 803702, Note_on_c, 0, 68, 0
2, 803744, Control_c, 0, 64, 0
2, 803756, Note_on_c, 0, 51, 0
2, 803776, Note_on_c, 0, 61, 40
2, 803784, Note_on_c, 0, 68, 56
2, 803800, Note_on_c, 0, 52, 48
2, 803818, Note_on_c, 0, 64, 32
2, 803946, Note_on_c, 0, 56, 42
2, 803952, Note_on_c, 0, 52, 0
2, 803988, Note_on_c, 0, 64, 0
2, 803991, Control_c, 0, 64, 127
2, 803996, Note_on_c, 0, 61, 0
2, 804026, Note_on_c, 0, 56, 0
2, 804068, Note_on_c, 0, 52, 33
2, 804086, Note_on_c, 0, 68, 0
2, 804140, Note_on_c, 0, 52, 0
2, 804196, Note_on_c, 0, 56, 25
2, 804272, Note_on_c, 0, 56, 0
2, 804286, Note_on_c, 0, 80, 88
2, 804294, Note_on_c, 0, 68, 56
2, 804340, Note_on_c, 0, 52, 39
2, 804398, Note_on_c, 0, 52, 0
2, 804416, Note_on_c, 0, 56, 34
2, 804512, Note_on_c, 0, 56, 0
2, 804530, Note_on_c, 0, 52, 25
2, 804558, Control_c, 0, 64, 0
2, 804610, Note_on_c, 0, 52, 0
2, 804616, Note_on_c, 0, 56, 36
2, 804696, Control_c, 0, 64, 127
2, 804704, Note_on_c, 0, 56, 0
2, 804712, Note_on_c, 0, 52, 60
2, 804768, Note_on_c, 0, 52, 0
2, 804804, Note_on_c, 0, 56, 36
2, 804814, Note_on_c, 0, 80, 0
2, 804892, Note_on_c, 0, 56, 0
2, 804920, Note_on_c, 0, 52, 35
2, 804974, Note_on_c, 0, 56, 48
2, 804978, Note_on_c, 0, 52, 0
2, 805088, Note_on_c, 0, 56, 0
2, 805114, Note_on_c, 0, 76, 85
2, 805124, Note_on_c, 0, 64, 75
2, 805146, Note_on_c, 0, 68, 0
2, 805164, Note_on_c, 0, 52, 11
2, 805218, Note_on_c, 0, 52, 0
2, 805236, Note_on_c, 0, 76, 0
2, 805244, Note_on_c, 0, 64, 0
2, 805247, Note_on_c, 0, 56, 42
2, 805316, Note_on_c, 0, 56, 0
2, 805362, Note_on_c, 0, 52, 27
2, 805428, Note_on_c, 0, 52, 0
2, 805470, Note_on_c, 0, 73, 73
2, 805472, Note_on_c, 0, 61, 77
2, 805482, Note_on_c, 0, 56, 44
2, 805514, Note_on_c, 0, 73, 0
2, 805522, Note_on_c, 0, 61, 0
2, 805548, Note_on_c, 0, 56, 0
2, 805584, Note_on_c, 0, 73, 51
2, 805600, Note_on_c, 0, 61, 60
2, 805606, Note_on_c, 0, 54, 50
2, 805666, Control_c, 0, 64, 0
2, 805690, Note_on_c, 0, 54, 0
2, 805712, Note_on_c, 0, 56, 48
2, 805802, Note_on_c, 0, 56, 0
2, 805838, Note_on_c, 0, 54, 47
2, 805864, Control_c, 0, 64, 127
2, 805900, Note_on_c, 0, 54, 0
2, 805942, Note_on_c, 0, 56, 37
2, 805994, Note_on_c, 0, 61, 0
2, 806014, Note_on_c, 0, 56, 0
2, 806036, Note_on_c, 0, 73, 0
2, 806050, Note_on_c, 0, 72, 65
2, 806058, Note_on_c, 0, 60, 59
2, 806082, Note_on_c, 0, 54, 24
2, 806150, Note_on_c, 0, 54, 0
2, 806160, Control_c, 0, 64, 0
2, 806170, Note_on_c, 0, 56, 41
2, 806238, Note_on_c, 0, 56, 0
2, 806242, Note_on_c, 0, 54, 47
2, 806340, Control_c, 0, 64, 127
2, 806354, Note_on_c, 0, 54, 0
2, 806378, Note_on_c, 0, 56, 29
2, 806452, Note_on_c, 0, 56, 0
2, 806488, Note_on_c, 0, 54, 40
2, 806526, Note_on_c, 0, 60, 0
2, 806558, Note_on_c, 0, 54, 0
2, 806578, Note_on_c, 0, 72, 0
2, 806616, Note_on_c, 0, 56, 29
2, 806686, Note_on_c, 0, 56, 0
2, 806689, Note_on_c, 0, 60, 66
2, 806689, Note_on_c, 0, 72, 67
2, 806730, Note_on_c, 0, 54, 48
2, 806742, Note_on_c, 0, 60, 0
2, 806758, Note_on_c, 0, 72, 0
2, 806790, Note_on_c, 0, 54, 0
2, 806848, Note_on_c, 0, 56, 41
2, 806914, Note_on_c, 0, 56, 0
2, 806968, Note_on_c, 0, 54, 42
2, 806992, Note_on_c, 0, 80, 100
2, 807004, Note_on_c, 0, 68, 73
2, 807034, Note_on_c, 0, 54, 0
2, 807072, Note_on_c, 0, 80, 0
2, 807080, Note_on_c, 0, 56, 42
2, 807136, Note_on_c, 0, 68, 0
2, 807170, Note_on_c, 0, 56, 0
2, 807198, Note_on_c, 0, 54, 59
2, 807268, Note_on_c, 0, 54, 0
2, 807332, Note_on_c, 0, 56, 46
2, 807340, Note_on_c, 0, 60, 83
2, 807348, Note_on_c, 0, 72, 72
2, 807384, Note_on_c, 0, 60, 0
2, 807394, Note_on_c, 0, 72, 0
2, 807404, Note_on_c, 0, 56, 0
2, 807490, Note_on_c, 0, 52, 42
2, 807492, Note_on_c, 0, 75, 82
2, 807494, Note_on_c, 0, 63, 87
2, 807494, Control_c, 0, 64, 0
2, 807566, Note_on_c, 0, 52, 0
2, 807600, Note_on_c, 0, 56, 48
2, 807682, Note_on_c, 0, 56, 0
2, 807708, Control_c, 0, 64, 127
2, 807726, Note_on_c, 0, 52, 41
2, 807784, Note_on_c, 0, 52, 0
2, 807794, Note_on_c, 0, 63, 0
2, 807822, Note_on_c, 0, 75, 0
2, 807834, Note_on_c, 0, 56, 33
2, 807908, Note_on_c, 0, 56, 0
2, 807924, Note_on_c, 0, 61, 64
2, 807926, Note_on_c, 0, 73, 66
2, 807950, Note_on_c, 0, 52, 36
2, 808010, Note_on_c, 0, 52, 0
2, 808042, Note_on_c, 0, 56, 36
2, 808124, Note_on_c, 0, 56, 0
2, 808146, Note_on_c, 0, 52, 42
2, 808154, Control_c, 0, 64, 0
2, 808214, Note_on_c, 0, 52, 0
2, 808238, Note_on_c, 0, 56, 35
2, 808322, Note_on_c, 0, 56, 0
2, 808324, Control_c, 0, 64, 127
2, 808348, Note_on_c, 0, 52, 55
2, 808404, Note_on_c, 0, 52, 0
2, 808414, Note_on_c, 0, 61, 0
2, 808428, Note_on_c, 0, 73, 0
2, 808450, Note_on_c, 0, 56, 40
2, 808526, Note_on_c, 0, 56, 0
2, 808552, Note_on_c, 0, 73, 80
2, 808554, Note_on_c, 0, 61, 89
2, 808588, Note_on_c, 0, 52, 54
2, 808594, Note_on_c, 0, 61, 0
2, 808642, Note_on_c, 0, 52, 0
2, 808668, Note_on_c, 0, 73, 0
2, 808682, Note_on_c, 0, 56, 54
2, 808752, Note_on_c, 0, 56, 0
2, 808804, Note_on_c, 0, 80, 106
2, 808812, Note_on_c, 0, 68, 67
2, 808836, Note_on_c, 0, 52, 41
2, 808842, Note_on_c, 0, 70, 25
2, 808850, Note_on_c, 0, 80, 0
2, 808894, Note_on_c, 0, 68, 0
2, 808894, Note_on_c, 0, 52, 0
2, 808906, Note_on_c, 0, 70, 0
2, 808906, Note_on_c, 0, 56, 58
2, 809010, Note_on_c, 0, 56, 0
2, 809010, Note_on_c, 0, 52, 49
2, 809076, Note_on_c, 0, 52, 0
2, 809122, Note_on_c, 0, 56, 49
2, 809125, Note_on_c, 0, 61, 89
2, 809125, Note_on_c, 0, 73, 83
2, 809168, Note_on_c, 0, 73, 0
2, 809168, Note_on_c, 0, 61, 0
2, 809234, Note_on_c, 0, 56, 0
2, 809244, Control_c, 0, 64, 0
2, 809266, Note_on_c, 0, 76, 104
2, 809274, Note_on_c, 0, 48, 51
2, 809284, Note_on_c, 0, 64, 83
2, 809348, Note_on_c, 0, 48, 0
2, 809386, Note_on_c, 0, 56, 58
2, 809460, Control_c, 0, 64, 127
2, 809478, Note_on_c, 0, 56, 0
2, 809504, Note_on_c, 0, 64, 0
2, 809514, Note_on_c, 0, 48, 35
2, 809518, Note_on_c, 0, 76, 0
2, 809578, Note_on_c, 0, 48, 0
2, 809588, Note_on_c, 0, 56, 47
2, 809674, Note_on_c, 0, 56, 0
2, 809686, Note_on_c, 0, 75, 80
2, 809689, Note_on_c, 0, 48, 24
2, 809694, Note_on_c, 0, 63, 73
2, 809766, Note_on_c, 0, 48, 0
2, 809796, Note_on_c, 0, 56, 49
2, 809872, Note_on_c, 0, 56, 0
2, 809894, Note_on_c, 0, 48, 39
2, 809936, Control_c, 0, 64, 0
2, 809978, Note_on_c, 0, 48, 0
2, 809984, Note_on_c, 0, 56, 55
2, 810074, Control_c, 0, 64, 127
2, 810080, Note_on_c, 0, 56, 0
2, 810100, Note_on_c, 0, 48, 33
2, 810172, Note_on_c, 0, 48, 0
2, 810188, Note_on_c, 0, 63, 0
2, 810198, Note_on_c, 0, 75, 0
2, 810198, Note_on_c, 0, 56, 48
2, 810288, Note_on_c, 0, 56, 0
2, 810324, Note_on_c, 0, 75, 79
2, 810332, Note_on_c, 0, 63, 80
2, 810348, Note_on_c, 0, 48, 42
2, 810372, Note_on_c, 0, 63, 0
2, 810386, Note_on_c, 0, 75, 0
2, 810410, Note_on_c, 0, 48, 0
2, 810440, Note_on_c, 0, 56, 56
2, 810522, Note_on_c, 0, 56, 0
2, 810574, Note_on_c, 0, 80, 100
2, 810578, Note_on_c, 0, 68, 77
2, 810598, Note_on_c, 0, 48, 42
2, 810674, Note_on_c, 0, 68, 0
2, 810680, Note_on_c, 0, 56, 54
2, 810692, Note_on_c, 0, 80, 0
2, 810704, Note_on_c, 0, 48, 0
2, 810814, Note_on_c, 0, 56, 0
2, 810822, Note_on_c, 0, 48, 35
2, 810916, Note_on_c, 0, 48, 0
2, 810938, Note_on_c, 0, 75, 67
2, 810942, Note_on_c, 0, 63, 49
2, 810948, Note_on_c, 0, 56, 47
2, 810980, Note_on_c, 0, 75, 0
2, 810996, Note_on_c, 0, 63, 0
2, 811028, Control_c, 0, 64, 0
2, 811058, Note_on_c, 0, 56, 0
2, 811080, Note_on_c, 0, 78, 93
2, 811084, Note_on_c, 0, 66, 65
2, 811092, Note_on_c, 0, 49, 56
2, 811202, Note_on_c, 0, 49, 0
2, 811226, Control_c, 0, 64, 127
2, 811228, Note_on_c, 0, 56, 58
2, 811248, Note_on_c, 0, 66, 0
2, 811256, Note_on_c, 0, 78, 0
2, 811328, Note_on_c, 0, 56, 0
2, 811344, Note_on_c, 0, 64, 82
2, 811348, Note_on_c, 0, 76, 81
2, 811370, Note_on_c, 0, 49, 46
2, 811384, Note_on_c, 0, 64, 0
2, 811394, Note_on_c, 0, 76, 0
2, 811432, Note_on_c, 0, 49, 0
2, 811484, Note_on_c, 0, 56, 48
2, 811564, Note_on_c, 0, 56, 0
2, 811606, Note_on_c, 0, 85, 96
2, 811609, Note_on_c, 0, 73, 85
2, 811620, Note_on_c, 0, 49, 47
2, 811636, Note_on_c, 0, 85, 0
2, 811646, Note_on_c, 0, 73, 0
2, 811692, Note_on_c, 0, 49, 0
2, 811714, Note_on_c, 0, 56, 56
2, 811816, Note_on_c, 0, 56, 0
2, 811846, Note_on_c, 0, 49, 57
2, 811852, Note_on_c, 0, 64, 93
2, 811852, Note_on_c, 0, 76, 79
2, 811888, Note_on_c, 0, 64, 0
2, 811892, Note_on_c, 0, 76, 0
2, 811904, Note_on_c, 0, 49, 0
2, 811936, Note_on_c, 0, 56, 57
2, 811986, Note_on_c, 0, 56, 0
2, 812026, Control_c, 0, 64, 0
2, 812070, Note_on_c, 0, 78, 105
2, 812074, Note_on_c, 0, 47, 65
2, 812076, Note_on_c, 0, 66, 94
2, 812186, Note_on_c, 0, 47, 0
2, 812188, Note_on_c, 0, 49, 75
2, 812210, Control_c, 0, 64, 127
2, 812230, Note_on_c, 0, 66, 0
2, 812242, Note_on_c, 0, 78, 0
2, 812264, Note_on_c, 0, 49, 0
2, 812290, Note_on_c, 0, 47, 49
2, 812306, Note_on_c, 0, 77, 97
2, 812308, Note_on_c, 0, 65, 79
2, 812346, Note_on_c, 0, 65, 0
2, 812384, Note_on_c, 0, 77, 0
2, 812408, Note_on_c, 0, 47, 0
2, 812408, Note_on_c, 0, 49, 72
2, 812466, Note_on_c, 0, 49, 0
2, 812506, Note_on_c, 0, 47, 51
2, 812524, Note_on_c, 0, 85, 111
2, 812524, Note_on_c, 0, 73, 102
2, 812560, Note_on_c, 0, 85, 0
2, 812563, Note_on_c, 0, 73, 0
2, 812612, Note_on_c, 0, 49, 81
2, 812626, Note_on_c, 0, 47, 0
2, 812696, Note_on_c, 0, 49, 0
2, 812706, Note_on_c, 0, 47, 69
2, 812736, Note_on_c, 0, 77, 109
2, 812738, Note_on_c, 0, 65, 100
2, 812768, Note_on_c, 0, 77, 0
2, 812772, Note_on_c, 0, 65, 0
2, 812824, Note_on_c, 0, 49, 79
2, 812852, Note_on_c, 0, 47, 0
2, 812886, Control_c, 0, 64, 0
2, 812940, Note_on_c, 0, 49, 0
2, 812950, Note_on_c, 0, 68, 109
2, 812953, Note_on_c, 0, 80, 116
2, 812958, Note_on_c, 0, 45, 85
2, 813054, Note_on_c, 0, 68, 0
2, 813060, Note_on_c, 0, 45, 0
2, 813070, Control_c, 0, 64, 127
2, 813072, Note_on_c, 0, 80, 0
2, 813078, Note_on_c, 0, 49, 74
2, 813162, Note_on_c, 0, 45, 51
2, 813168, Note_on_c, 0, 49, 0
2, 813170, Note_on_c, 0, 66, 93
2, 813172, Note_on_c, 0, 78, 104
2, 813214, Note_on_c, 0, 66, 0
2, 813260, Note_on_c, 0, 49, 78
2, 813270, Note_on_c, 0, 78, 0
2, 813280, Note_on_c, 0, 45, 0
2, 813366, Note_on_c, 0, 45, 52
2, 813372, Note_on_c, 0, 49, 0
2, 813378, Note_on_c, 0, 73, 109
2, 813382, Note_on_c, 0, 85, 111
2, 813414, Note_on_c, 0, 85, 0
2, 813420, Note_on_c, 0, 73, 0
2, 813476, Note_on_c, 0, 49, 69
2, 813492, Note_on_c, 0, 45, 0
2, 813576, Note_on_c, 0, 45, 55
2, 813590, Note_on_c, 0, 49, 0
2, 813594, Note_on_c, 0, 66, 101
2, 813598, Note_on_c, 0, 78, 109
2, 813648, Note_on_c, 0, 66, 0
2, 813678, Note_on_c, 0, 78, 0
2, 813692, Note_on_c, 0, 49, 71
2, 813738, Note_on_c, 0, 45, 0
2, 813746, Control_c, 0, 64, 0
2, 813810, Note_on_c, 0, 49, 0
2, 813818, Note_on_c, 0, 81, 108
2, 813818, Note_on_c, 0, 69, 105
2, 813818, Note_on_c, 0, 41, 108
2, 813900, Note_on_c, 0, 81, 0
2, 813916, Control_c, 0, 64, 127
2, 813938, Note_on_c, 0, 69, 0
2, 813938, Note_on_c, 0, 49, 79
2, 813970, Note_on_c, 0, 41, 0
2, 814046, Note_on_c, 0, 49, 0
2, 814048, Note_on_c, 0, 41, 83
2, 814052, Note_on_c, 0, 68, 98
2, 814056, Note_on_c, 0, 80, 111
2, 814116, Note_on_c, 0, 68, 0
2, 814132, Note_on_c, 0, 80, 0
2, 814154, Note_on_c, 0, 49, 74
2, 814186, Note_on_c, 0, 41, 0
2, 814280, Note_on_c, 0, 49, 0
2, 814284, Note_on_c, 0, 85, 118
2, 814286, Note_on_c, 0, 73, 111
2, 814300, Note_on_c, 0, 41, 83
2, 814334, Note_on_c, 0, 85, 0
2, 814356, Note_on_c, 0, 73, 0
2, 814406, Note_on_c, 0, 49, 85
2, 814432, Note_on_c, 0, 41, 0
2, 814506, Note_on_c, 0, 49, 0
2, 814522, Note_on_c, 0, 68, 105
2, 814522, Note_on_c, 0, 80, 111
2, 814525, Note_on_c, 0, 41, 81
2, 814616, Note_on_c, 0, 49, 80
2, 814628, Note_on_c, 0, 41, 0
2, 814640, Note_on_c, 0, 68, 0
2, 814660, Note_on_c, 0, 49, 0
2, 814698, Note_on_c, 0, 80, 0
2, 814932, Note_on_c, 0, 42, 116
2, 814934, Note_on_c, 0, 81, 115
2, 814934, Note_on_c, 0, 30, 118
2, 814937, Note_on_c, 0, 37, 105
2, 815054, Control_c, 0, 64, 0
2, 815268, Note_on_c, 0, 78, 98
2, 815360, Control_c, 0, 64, 127
2, 815376, Note_on_c, 0, 81, 0
2, 815436, Note_on_c, 0, 73, 82
2, 815486, Note_on_c, 0, 78, 0
2, 815598, Note_on_c, 0, 69, 82
2, 815630, Note_on_c, 0, 73, 0
2, 815720, Note_on_c, 0, 69, 0
2, 815748, Note_on_c, 0, 66, 86
2, 815882, Note_on_c, 0, 61, 96
2, 815934, Note_on_c, 0, 66, 0
2, 816032, Note_on_c, 0, 69, 97
2, 816056, Note_on_c, 0, 61, 0
2, 816166, Note_on_c, 0, 66, 89
2, 816202, Note_on_c, 0, 69, 0
2, 816304, Note_on_c, 0, 61, 89
2, 816342, Note_on_c, 0, 66, 0
2, 816420, Note_on_c, 0, 57, 97
2, 816438, Note_on_c, 0, 61, 0
2, 816488, Note_on_c, 0, 57, 0
2, 816532, Note_on_c, 0, 54, 102
2, 816650, Note_on_c, 0, 49, 93
2, 816686, Note_on_c, 0, 54, 0
2, 816760, Note_on_c, 0, 57, 89
2, 816782, Note_on_c, 0, 49, 0
2, 816854, Note_on_c, 0, 54, 86
2, 816948, Note_on_c, 0, 49, 80
2, 816986, Note_on_c, 0, 54, 0
2, 817032, Note_on_c, 0, 45, 83
2, 817056, Note_on_c, 0, 49, 0
2, 817126, Note_on_c, 0, 49, 83
2, 817138, Note_on_c, 0, 45, 0
2, 817184, Note_on_c, 0, 57, 0
2, 817226, Note_on_c, 0, 54, 96
2, 817238, Note_on_c, 0, 49, 0
2, 817262, Note_on_c, 0, 54, 0
2, 817322, Note_on_c, 0, 57, 85
2, 817388, Note_on_c, 0, 57, 0
2, 817408, Note_on_c, 0, 61, 97
2, 817496, Note_on_c, 0, 66, 87
2, 817526, Note_on_c, 0, 61, 0
2, 817544, Note_on_c, 0, 66, 0
2, 817588, Note_on_c, 0, 69, 93
2, 817670, Note_on_c, 0, 73, 90
2, 817706, Note_on_c, 0, 69, 0
2, 817752, Note_on_c, 0, 78, 95
2, 817788, Note_on_c, 0, 73, 0
2, 817853, Note_on_c, 0, 81, 108
2, 817878, Note_on_c, 0, 30, 0
2, 817892, Note_on_c, 0, 78, 0
2, 817944, Note_on_c, 0, 78, 94
2, 817946, Note_on_c, 0, 42, 0
2, 817962, Note_on_c, 0, 37, 0
2, 818044, Note_on_c, 0, 81, 0
2, 818060, Note_on_c, 0, 73, 87
2, 818124, Note_on_c, 0, 78, 0
2, 818174, Note_on_c, 0, 69, 80
2, 818268, Note_on_c, 0, 73, 0
2, 818362, Note_on_c, 0, 81, 112
2, 818362, Note_on_c, 0, 38, 111
2, 818362, Note_on_c, 0, 42, 112
2, 818365, Note_on_c, 0, 30, 115
2, 818480, Control_c, 0, 64, 0
2, 818570, Note_on_c, 0, 78, 98
2, 818686, Note_on_c, 0, 69, 0
2, 818708, Note_on_c, 0, 81, 0
2, 818724, Note_on_c, 0, 74, 97
2, 818740, Control_c, 0, 64, 127
2, 818784, Note_on_c, 0, 78, 0
2, 818876, Note_on_c, 0, 69, 83
2, 818902, Note_on_c, 0, 74, 0
2, 819034, Note_on_c, 0, 66, 90
2, 819080, Note_on_c, 0, 69, 0
2, 819180, Note_on_c, 0, 62, 101
2, 819228, Note_on_c, 0, 66, 0
2, 819332, Note_on_c, 0, 69, 95
2, 819370, Note_on_c, 0, 62, 0
2, 819462, Note_on_c, 0, 66, 87
2, 819528, Note_on_c, 0, 69, 0
2, 819606, Note_on_c, 0, 62, 92
2, 819644, Note_on_c, 0, 66, 0
2, 819700, Note_on_c, 0, 62, 0
2, 819718, Note_on_c, 0, 57, 93
2, 819826, Note_on_c, 0, 57, 0
2, 819844, Note_on_c, 0, 54, 101
2, 819948, Note_on_c, 0, 50, 104
2, 820000, Note_on_c, 0, 54, 0
2, 820062, Note_on_c, 0, 57, 86
2, 820086, Note_on_c, 0, 50, 0
2, 820146, Note_on_c, 0, 54, 101
2, 820238, Note_on_c, 0, 50, 75
2, 820284, Note_on_c, 0, 54, 0
2, 820310, Note_on_c, 0, 45, 90
2, 820322, Note_on_c, 0, 50, 0
2, 820414, Note_on_c, 0, 50, 80
2, 820426, Note_on_c, 0, 45, 0
2, 820468, Note_on_c, 0, 57, 0
2, 820514, Note_on_c, 0, 54, 92
2, 820526, Note_on_c, 0, 50, 0
2, 820568, Note_on_c, 0, 54, 0
2, 820606, Note_on_c, 0, 57, 96
2, 820702, Note_on_c, 0, 62, 98
2, 820716, Note_on_c, 0, 57, 0
2, 820802, Note_on_c, 0, 62, 0
2, 820802, Note_on_c, 0, 66, 87
2, 820840, Note_on_c, 0, 66, 0
2, 820846, Note_on_c, 0, 67, 54
2, 820890, Note_on_c, 0, 69, 92
2, 820912, Note_on_c, 0, 67, 0
2, 820992, Note_on_c, 0, 74, 97
2, 821042, Note_on_c, 0, 69, 0
2, 821076, Note_on_c, 0, 78, 96
2, 821122, Note_on_c, 0, 74, 0
2, 821180, Note_on_c, 0, 81, 117
2, 821218, Note_on_c, 0, 78, 0
2, 821274, Note_on_c, 0, 78, 93
2, 821294, Note_on_c, 0, 38, 0
2, 821378, Note_on_c, 0, 74, 94
2, 821388, Note_on_c, 0, 81, 0
2, 821454, Note_on_c, 0, 78, 0
2, 821476, Note_on_c, 0, 69, 97
2, 821506, Note_on_c, 0, 42, 0
2, 821506, Note_on_c, 0, 30, 0
2, 821528, Note_on_c, 0, 74, 0
2, 821554, Note_on_c, 0, 69, 0
2, 821680, Note_on_c, 0, 85, 115
2, 821686, Note_on_c, 0, 43, 121
2, 821688, Note_on_c, 0, 31, 119
2, 821688, Note_on_c, 0, 37, 115
2, 821828, Control_c, 0, 64, 0
2, 821856, Note_on_c, 0, 82, 89
2, 822008, Note_on_c, 0, 79, 102
2, 822062, Note_on_c, 0, 85, 0
2, 822106, Control_c, 0, 64, 127
2, 822118, Note_on_c, 0, 82, 0
2, 822152, Note_on_c, 0, 76, 96
2, 822186, Note_on_c, 0, 79, 0
2, 822258, Note_on_c, 0, 76, 0
2, 822288, Note_on_c, 0, 73, 96
2, 822424, Note_on_c, 0, 70, 93
2, 822494, Note_on_c, 0, 73, 0
2, 822598, Note_on_c, 0, 76, 102
2, 822636, Note_on_c, 0, 70, 0
2, 822740, Note_on_c, 0, 73, 89
2, 822824, Note_on_c, 0, 76, 0
2, 822868, Note_on_c, 0, 70, 83
2, 822936, Note_on_c, 0, 73, 0
2, 822964, Note_on_c, 0, 67, 90
2, 823034, Note_on_c, 0, 70, 0
2, 823044, Note_on_c, 0, 67, 0
2, 823048, Note_on_c, 0, 64, 101
2, 823086, Note_on_c, 0, 64, 0
2, 823136, Note_on_c, 0, 61, 97
2, 823212, Note_on_c, 0, 58, 82
2, 823282, Note_on_c, 0, 61, 0
2, 823318, Note_on_c, 0, 64, 112
2, 823344, Note_on_c, 0, 58, 0
2, 823414, Note_on_c, 0, 61, 92
2, 823464, Note_on_c, 0, 58, 59
2, 823476, Note_on_c, 0, 64, 0
2, 823546, Note_on_c, 0, 61, 0
2, 823564, Note_on_c, 0, 55, 96
2, 823626, Note_on_c, 0, 58, 0
2, 823658, Note_on_c, 0, 52, 118
2, 823670, Note_on_c, 0, 55, 0
2, 823758, Note_on_c, 0, 49, 101
2, 823761, Note_on_c, 0, 52, 0
2, 823856, Note_on_c, 0, 49, 0
2, 823864, Note_on_c, 0, 52, 101
2, 823942, Note_on_c, 0, 55, 104
2, 823962, Note_on_c, 0, 52, 0
2, 824032, Note_on_c, 0, 58, 80
2, 824068, Note_on_c, 0, 55, 0
2, 824096, Note_on_c, 0, 61, 97
2, 824156, Note_on_c, 0, 58, 0
2, 824184, Note_on_c, 0, 61, 0
2, 824187, Note_on_c, 0, 64, 102
2, 824260, Note_on_c, 0, 67, 104
2, 824300, Note_on_c, 0, 64, 0
2, 824348, Note_on_c, 0, 70, 90
2, 824398, Note_on_c, 0, 67, 0
2, 824418, Note_on_c, 0, 73, 89
2, 824462, Note_on_c, 0, 70, 0
2, 824472, Note_on_c, 0, 73, 0
2, 824508, Note_on_c, 0, 76, 102
2, 824594, Note_on_c, 0, 79, 109
2, 824646, Note_on_c, 0, 76, 0
2, 824658, Note_on_c, 0, 82, 92
2, 824666, Note_on_c, 0, 37, 0
2, 824698, Note_on_c, 0, 79, 0
2, 824714, Note_on_c, 0, 31, 0
2, 824742, Note_on_c, 0, 85, 98
2, 824776, Note_on_c, 0, 43, 0
2, 824782, Note_on_c, 0, 82, 0
2, 824848, Note_on_c, 0, 82, 83
2, 824968, Note_on_c, 0, 76, 108
2, 824986, Note_on_c, 0, 85, 0
2, 825032, Note_on_c, 0, 82, 0
2, 825190, Note_on_c, 0, 44, 127
2, 825195, Note_on_c, 0, 32, 110
2, 825198, Note_on_c, 0, 88, 124
2, 825200, Note_on_c, 0, 37, 110
2, 825270, Control_c, 0, 64, 0
2, 825416, Note_on_c, 0, 85, 105
2, 825526, Note_on_c, 0, 88, 0
2, 825562, Control_c, 0, 64, 127
2, 825578, Note_on_c, 0, 76, 0
2, 825582, Note_on_c, 0, 80, 97
2, 825642, Note_on_c, 0, 85, 0
2, 825746, Note_on_c, 0, 76, 100
2, 825778, Note_on_c, 0, 80, 0
2, 825812, Note_on_c, 0, 32, 0
2, 825822, Note_on_c, 0, 37, 0
2, 825833, Note_on_c, 0, 44, 0
2, 825910, Note_on_c, 0, 73, 95
2, 825960, Note_on_c, 0, 76, 0
2, 826074, Note_on_c, 0, 68, 100
2, 826138, Note_on_c, 0, 73, 0
2, 826258, Note_on_c, 0, 76, 104
2, 826280, Note_on_c, 0, 68, 0
2, 826424, Note_on_c, 0, 73, 96
2, 826504, Note_on_c, 0, 76, 0
2, 826572, Note_on_c, 0, 68, 90
2, 826628, Note_on_c, 0, 73, 0
2, 826702, Note_on_c, 0, 64, 112
2, 826716, Note_on_c, 0, 68, 0
2, 826810, Note_on_c, 0, 64, 0
2, 826826, Note_on_c, 0, 73, 90
2, 826950, Note_on_c, 0, 68, 89
2, 826996, Note_on_c, 0, 73, 0
2, 827052, Note_on_c, 0, 64, 97
2, 827084, Note_on_c, 0, 68, 0
2, 827166, Note_on_c, 0, 64, 0
2, 827180, Note_on_c, 0, 61, 110
2, 827274, Note_on_c, 0, 61, 0
2, 827288, Note_on_c, 0, 68, 80
2, 827382, Note_on_c, 0, 64, 87
2, 827428, Note_on_c, 0, 68, 0
2, 827454, Note_on_c, 0, 64, 0
2, 827466, Note_on_c, 0, 61, 87
2, 827576, Note_on_c, 0, 56, 106
2, 827592, Note_on_c, 0, 61, 0
2, 827670, Note_on_c, 0, 64, 93
2, 827692, Note_on_c, 0, 56, 0
2, 827756, Note_on_c, 0, 61, 67
2, 827822, Note_on_c, 0, 61, 0
2, 827830, Note_on_c, 0, 64, 0
2, 827834, Note_on_c, 0, 56, 74
2, 827938, Note_on_c, 0, 52, 120
2, 827956, Note_on_c, 0, 56, 0
2, 828022, Note_on_c, 0, 52, 0
2, 828034, Note_on_c, 0, 61, 79
2, 828118, Note_on_c, 0, 56, 75
2, 828184, Note_on_c, 0, 61, 0
2, 828220, Note_on_c, 0, 52, 97
2, 828222, Note_on_c, 0, 56, 0
2, 828302, Note_on_c, 0, 52, 0
2, 828328, Note_on_c, 0, 49, 109
2, 828412, Note_on_c, 0, 49, 0
2, 828438, Note_on_c, 0, 56, 82
2, 828544, Note_on_c, 0, 52, 96
2, 828590, Note_on_c, 0, 56, 0
2, 828642, Note_on_c, 0, 49, 92
2, 828664, Note_on_c, 0, 52, 0
2, 828768, Note_on_c, 0, 49, 0
2, 828842, Note_on_c, 0, 44, 113
2, 828926, Control_c, 0, 64, 0
2, 829012, Note_on_c, 0, 45, 82
2, 829112, Control_c, 0, 64, 127
2, 829134, Note_on_c, 0, 46, 80
2, 829140, Note_on_c, 0, 44, 0
2, 829152, Note_on_c, 0, 45, 0
2, 829262, Note_on_c, 0, 47, 85
2, 829284, Note_on_c, 0, 46, 0
2, 829376, Note_on_c, 0, 48, 94
2, 829382, Note_on_c, 0, 47, 0
2, 829482, Note_on_c, 0, 49, 90
2, 829506, Note_on_c, 0, 48, 0
2, 829586, Note_on_c, 0, 50, 92
2, 829598, Note_on_c, 0, 49, 0
2, 829666, Note_on_c, 0, 50, 0
2, 829670, Note_on_c, 0, 51, 90
2, 829748, Note_on_c, 0, 52, 110
2, 829764, Note_on_c, 0, 51, 0
2, 829842, Note_on_c, 0, 53, 117
2, 829856, Note_on_c, 0, 52, 0
2, 829916, Note_on_c, 0, 54, 103
2, 829938, Note_on_c, 0, 53, 0
2, 829996, Note_on_c, 0, 55, 100
2, 830004, Note_on_c, 0, 54, 0
2, 830064, Control_c, 0, 64, 0
2, 830084, Note_on_c, 0, 56, 103
2, 830142, Note_on_c, 0, 55, 0
2, 830168, Note_on_c, 0, 57, 97
2, 830218, Control_c, 0, 64, 127
2, 830221, Note_on_c, 0, 56, 0
2, 830260, Note_on_c, 0, 58, 87
2, 830314, Note_on_c, 0, 57, 0
2, 830348, Note_on_c, 0, 59, 93
2, 830366, Note_on_c, 0, 58, 0
2, 830436, Note_on_c, 0, 60, 104
2, 830448, Control_c, 0, 64, 0
2, 830482, Note_on_c, 0, 59, 0
2, 830520, Note_on_c, 0, 61, 103
2, 830564, Note_on_c, 0, 60, 0
2, 830602, Control_c, 0, 64, 127
2, 830602, Note_on_c, 0, 62, 96
2, 830608, Note_on_c, 0, 61, 0
2, 830684, Note_on_c, 0, 63, 103
2, 830701, Note_on_c, 0, 62, 0
2, 830768, Note_on_c, 0, 63, 0
2, 830768, Note_on_c, 0, 64, 106
2, 830842, Note_on_c, 0, 65, 95
2, 830872, Note_on_c, 0, 64, 0
2, 830908, Note_on_c, 0, 66, 86
2, 830936, Note_on_c, 0, 65, 0
2, 830952, Note_on_c, 0, 66, 0
2, 830970, Note_on_c, 0, 67, 93
2, 831052, Note_on_c, 0, 68, 95
2, 831062, Control_c, 0, 64, 0
2, 831088, Note_on_c, 0, 67, 0
2, 831110, Note_on_c, 0, 69, 92
2, 831174, Note_on_c, 0, 68, 0
2, 831194, Note_on_c, 0, 70, 90
2, 831216, Control_c, 0, 64, 127
2, 831246, Note_on_c, 0, 69, 0
2, 831276, Note_on_c, 0, 71, 100
2, 831279, Note_on_c, 0, 70, 0
2, 831348, Note_on_c, 0, 72, 101
2, 831390, Note_on_c, 0, 71, 0
2, 831414, Note_on_c, 0, 73, 93
2, 831456, Note_on_c, 0, 72, 0
2, 831468, Note_on_c, 0, 73, 0
2, 831486, Note_on_c, 0, 74, 97
2, 831546, Note_on_c, 0, 74, 0
2, 831570, Note_on_c, 0, 75, 94
2, 831608, Note_on_c, 0, 75, 0
2, 831636, Note_on_c, 0, 76, 102
2, 831718, Note_on_c, 0, 77, 98
2, 831736, Note_on_c, 0, 76, 0
2, 831774, Note_on_c, 0, 78, 93
2, 831804, Note_on_c, 0, 77, 0
2, 831820, Note_on_c, 0, 78, 0
2, 831856, Note_on_c, 0, 79, 106
2, 831916, Note_on_c, 0, 79, 0
2, 831938, Note_on_c, 0, 80, 96
2, 832026, Note_on_c, 0, 66, 103
2, 832026, Note_on_c, 0, 81, 116
2, 832038, Note_on_c, 0, 60, 95
2, 832038, Note_on_c, 0, 56, 83
2, 832046, Control_c, 0, 64, 0
2, 832060, Note_on_c, 0, 80, 0
2, 832202, Note_on_c, 0, 83, 127
2, 832210, Note_on_c, 0, 81, 0
2, 832306, Control_c, 0, 64, 127
2, 832320, Note_on_c, 0, 81, 100
2, 832334, Note_on_c, 0, 83, 0
2, 832398, Note_on_c, 0, 56, 0
2, 832398, Note_on_c, 0, 60, 0
2, 832450, Note_on_c, 0, 81, 0
2, 832450, Note_on_c, 0, 83, 120
2, 832466, Note_on_c, 0, 66, 0
2, 832560, Note_on_c, 0, 81, 95
2, 832572, Note_on_c, 0, 83, 0
2, 832668, Note_on_c, 0, 81, 0
2, 832682, Note_on_c, 0, 83, 118
2, 832784, Note_on_c, 0, 83, 0
2, 832794, Note_on_c, 0, 81, 101
2, 832912, Note_on_c, 0, 81, 0
2, 832912, Note_on_c, 0, 83, 121
2, 832990, Note_on_c, 0, 83, 0
2, 832998, Note_on_c, 0, 81, 73
2, 833092, Note_on_c, 0, 81, 0
2, 833120, Note_on_c, 0, 83, 113
2, 833190, Note_on_c, 0, 83, 0
2, 833208, Note_on_c, 0, 81, 82
2, 833300, Note_on_c, 0, 81, 0
2, 833320, Note_on_c, 0, 83, 111
2, 833360, Note_on_c, 0, 83, 0
2, 833382, Note_on_c, 0, 81, 71
2, 833452, Note_on_c, 0, 81, 0
2, 833472, Note_on_c, 0, 83, 100
2, 833512, Note_on_c, 0, 83, 0
2, 833540, Note_on_c, 0, 81, 74
2, 833594, Note_on_c, 0, 81, 0
2, 833612, Note_on_c, 0, 83, 110
2, 833660, Note_on_c, 0, 83, 0
2, 833692, Note_on_c, 0, 81, 70
2, 833734, Note_on_c, 0, 81, 0
2, 833748, Note_on_c, 0, 83, 118
2, 833804, Note_on_c, 0, 83, 0
2, 833826, Note_on_c, 0, 81, 57
2, 833874, Note_on_c, 0, 81, 0
2, 833898, Note_on_c, 0, 83, 115
2, 833950, Note_on_c, 0, 83, 0
2, 833973, Note_on_c, 0, 81, 55
2, 834020, Note_on_c, 0, 81, 0
2, 834042, Note_on_c, 0, 83, 112
2, 834084, Note_on_c, 0, 83, 0
2, 834130, Note_on_c, 0, 81, 58
2, 834174, Note_on_c, 0, 81, 0
2, 834202, Note_on_c, 0, 83, 108
2, 834242, Note_on_c, 0, 83, 0
2, 834278, Note_on_c, 0, 81, 57
2, 834348, Note_on_c, 0, 81, 0
2, 834366, Note_on_c, 0, 83, 104
2, 834408, Note_on_c, 0, 83, 0
2, 834444, Note_on_c, 0, 81, 50
2, 834524, Note_on_c, 0, 83, 93
2, 834532, Note_on_c, 0, 81, 0
2, 834606, Note_on_c, 0, 83, 0
2, 834648, Note_on_c, 0, 81, 66
2, 834788, Note_on_c, 0, 66, 3
2, 834792, Note_on_c, 0, 56, 12
2, 834796, Note_on_c, 0, 60, 11
2, 834938, Note_on_c, 0, 80, 62
2, 834992, Note_on_c, 0, 81, 0
2, 835160, Note_on_c, 0, 78, 72
2, 835216, Note_on_c, 0, 80, 0
2, 835332, Note_on_c, 0, 76, 63
2, 835346, Note_on_c, 0, 78, 0
2, 835486, Note_on_c, 0, 75, 59
2, 835526, Note_on_c, 0, 76, 0
2, 835604, Note_on_c, 0, 78, 67
2, 835618, Note_on_c, 0, 75, 0
2, 835728, Note_on_c, 0, 73, 62
2, 835762, Note_on_c, 0, 78, 0
2, 835818, Note_on_c, 0, 73, 0
2, 835842, Note_on_c, 0, 72, 52
2, 835918, Note_on_c, 0, 72, 0
2, 835970, Note_on_c, 0, 75, 60
2, 836034, Note_on_c, 0, 66, 0
2, 836052, Note_on_c, 0, 75, 0
2, 836078, Note_on_c, 0, 69, 55
2, 836194, Note_on_c, 0, 68, 65
2, 836208, Note_on_c, 0, 69, 0
2, 836304, Note_on_c, 0, 60, 0
2, 836320, Note_on_c, 0, 66, 56
2, 836334, Note_on_c, 0, 68, 0
2, 836444, Note_on_c, 0, 69, 50
2, 836478, Note_on_c, 0, 66, 0
2, 836580, Note_on_c, 0, 69, 0
2, 836583, Note_on_c, 0, 64, 64
2, 836698, Note_on_c, 0, 63, 59
2, 836716, Note_on_c, 0, 64, 0
2, 836820, Note_on_c, 0, 63, 0
2, 836820, Note_on_c, 0, 66, 54
2, 836950, Note_on_c, 0, 61, 67
2, 836986, Note_on_c, 0, 66, 0
2, 836989, Note_on_c, 0, 56, 0
2, 837064, Note_on_c, 0, 61, 0
2, 837070, Note_on_c, 0, 60, 51
2, 837166, Note_on_c, 0, 60, 0
2, 837186, Note_on_c, 0, 63, 63
2, 837282, Note_on_c, 0, 63, 0
2, 837308, Note_on_c, 0, 57, 59
2, 837442, Note_on_c, 0, 56, 69
2, 837452, Note_on_c, 0, 57, 0
2, 837586, Note_on_c, 0, 54, 77
2, 837602, Note_on_c, 0, 56, 0
2, 837732, Note_on_c, 0, 57, 62
2, 837758, Note_on_c, 0, 54, 0
2, 837874, Note_on_c, 0, 57, 0
2, 837884, Note_on_c, 0, 52, 87
2, 838050, Note_on_c, 0, 51, 74
2, 838070, Note_on_c, 0, 52, 0
2, 838226, Note_on_c, 0, 54, 86
2, 838262, Note_on_c, 0, 51, 0
2, 838406, Control_c, 0, 64, 0
2, 838422, Note_on_c, 0, 49, 85
2, 838480, Note_on_c, 0, 54, 0
2, 838638, Note_on_c, 0, 48, 77
2, 838654, Control_c, 0, 64, 127
2, 838672, Note_on_c, 0, 49, 0
2, 838700, Control_c, 0, 64, 0
2, 838914, Control_c, 0, 64, 127
2, 838992, Note_on_c, 0, 51, 62
2, 839022, Note_on_c, 0, 48, 0
2, 839144, Control_c, 0, 64, 0
2, 839468, Control_c, 0, 64, 127
2, 839646, Note_on_c, 0, 45, 60
2, 839858, Note_on_c, 0, 51, 0
2, 840082, Control_c, 0, 64, 0
2, 840298, Control_c, 0, 64, 127
2, 840340, Note_on_c, 0, 44, 70
2, 840430, Note_on_c, 0, 45, 0
2, 840850, Control_c, 0, 64, 0
2, 841066, Control_c, 0, 64, 127
2, 841272, Note_on_c, 0, 43, 71
2, 841286, Note_on_c, 0, 31, 60
2, 841512, Note_on_c, 0, 44, 0
2, 841664, Control_c, 0, 64, 0
2, 841988, Control_c, 0, 64, 127
2, 843946, Note_on_c, 0, 44, 49
2, 843948, Note_on_c, 0, 32, 37
2, 844092, Note_on_c, 0, 31, 0
2, 844146, Note_on_c, 0, 43, 0
2, 844368, Control_c, 0, 64, 0
2, 844630, Control_c, 0, 64, 127
2, 845676, Note_on_c, 0, 32, 0
2, 846098, Note_on_c, 0, 44, 0
2, 846192, Note_on_c, 0, 49, 36
2, 846195, Control_c, 0, 64, 0
2, 846198, Note_on_c, 0, 37, 33
2, 846382, Control_c, 0, 64, 127
2, 846392, Note_on_c, 0, 49, 0
2, 846490, Note_on_c, 0, 49, 23
2, 846608, Note_on_c, 0, 37, 0
2, 846632, Note_on_c, 0, 49, 0
2, 846678, Note_on_c, 0, 44, 28
2, 846752, Note_on_c, 0, 49, 20
2, 846756, Note_on_c, 0, 44, 0
2, 846854, Note_on_c, 0, 49, 0
2, 846912, Note_on_c, 0, 37, 24
2, 847000, Note_on_c, 0, 37, 0
2, 847003, Note_on_c, 0, 49, 23
2, 847088, Note_on_c, 0, 49, 0
2, 847144, Note_on_c, 0, 44, 24
2, 847214, Note_on_c, 0, 49, 29
2, 847224, Note_on_c, 0, 44, 0
2, 847300, Note_on_c, 0, 49, 0
2, 847336, Note_on_c, 0, 37, 28
2, 847420, Note_on_c, 0, 37, 0
2, 847426, Note_on_c, 0, 49, 20
2, 847508, Note_on_c, 0, 49, 0
2, 847578, Note_on_c, 0, 44, 13
2, 847632, Note_on_c, 0, 49, 24
2, 847648, Note_on_c, 0, 44, 0
2, 847746, Note_on_c, 0, 49, 0
2, 847746, Note_on_c, 0, 64, 44
2, 847774, Note_on_c, 0, 37, 34
2, 847850, Note_on_c, 0, 37, 0
2, 847856, Note_on_c, 0, 49, 29
2, 847938, Note_on_c, 0, 49, 0
2, 848020, Note_on_c, 0, 44, 20
2, 848102, Note_on_c, 0, 44, 0
2, 848110, Note_on_c, 0, 49, 40
2, 848120, Note_on_c, 0, 64, 0
2, 848124, Note_on_c, 0, 61, 54
2, 848178, Note_on_c, 0, 49, 0
2, 848192, Note_on_c, 0, 61, 0
2, 848230, Note_on_c, 0, 37, 48
2, 848233, Note_on_c, 0, 60, 66
2, 848256, Control_c, 0, 64, 0
2, 848372, Note_on_c, 0, 51, 33
2, 848440, Control_c, 0, 64, 127
2, 848450, Note_on_c, 0, 51, 0
2, 848458, Note_on_c, 0, 44, 52
2, 848480, Note_on_c, 0, 37, 0
2, 848520, Note_on_c, 0, 60, 0
2, 848540, Note_on_c, 0, 44, 0
2, 848566, Note_on_c, 0, 51, 26
2, 848676, Note_on_c, 0, 51, 0
2, 848680, Note_on_c, 0, 68, 59
2, 848686, Note_on_c, 0, 54, 52
2, 848696, Note_on_c, 0, 60, 28
2, 848704, Note_on_c, 0, 37, 42
2, 848764, Control_c, 0, 64, 0
2, 848790, Note_on_c, 0, 51, 35
2, 848842, Note_on_c, 0, 60, 0
2, 848886, Control_c, 0, 64, 127
2, 848892, Note_on_c, 0, 37, 0
2, 848894, Note_on_c, 0, 68, 0
2, 848897, Note_on_c, 0, 51, 0
2, 848904, Note_on_c, 0, 44, 51
2, 848926, Note_on_c, 0, 54, 0
2, 848980, Note_on_c, 0, 44, 0
2, 849002, Note_on_c, 0, 51, 41
2, 849110, Note_on_c, 0, 51, 0
2, 849122, Note_on_c, 0, 68, 66
2, 849142, Note_on_c, 0, 54, 51
2, 849144, Note_on_c, 0, 60, 33
2, 849156, Note_on_c, 0, 37, 48
2, 849224, Note_on_c, 0, 37, 0
2, 849238, Note_on_c, 0, 60, 0
2, 849254, Note_on_c, 0, 51, 34
2, 849284, Note_on_c, 0, 54, 0
2, 849314, Note_on_c, 0, 68, 0
2, 849328, Note_on_c, 0, 51, 0
2, 849364, Note_on_c, 0, 44, 43
2, 849444, Note_on_c, 0, 44, 0
2, 849480, Note_on_c, 0, 51, 33
2, 849552, Note_on_c, 0, 68, 66
2, 849558, Note_on_c, 0, 51, 0
2, 849562, Note_on_c, 0, 60, 47
2, 849566, Note_on_c, 0, 54, 48
2, 849592, Note_on_c, 0, 37, 36
2, 849664, Note_on_c, 0, 68, 0
2, 849667, Note_on_c, 0, 37, 0
2, 849676, Note_on_c, 0, 51, 33
2, 849696, Note_on_c, 0, 54, 0
2, 849728, Note_on_c, 0, 60, 0
2, 849748, Note_on_c, 0, 51, 0
2, 849778, Note_on_c, 0, 44, 44
2, 849846, Note_on_c, 0, 44, 0
2, 849849, Note_on_c, 0, 51, 35
2, 849849, Note_on_c, 0, 52, 72
2, 849894, Note_on_c, 0, 52, 0
2, 849912, Note_on_c, 0, 51, 0
2, 849948, Note_on_c, 0, 61, 17
2, 849976, Note_on_c, 0, 37, 46
2, 850058, Note_on_c, 0, 68, 72
2, 850098, Note_on_c, 0, 49, 36
2, 850238, Control_c, 0, 64, 0
2, 850264, Note_on_c, 0, 44, 55
2, 850278, Note_on_c, 0, 49, 0
2, 850376, Note_on_c, 0, 49, 41
2, 850378, Control_c, 0, 64, 127
2, 850394, Note_on_c, 0, 37, 0
2, 850478, Note_on_c, 0, 44, 0
2, 850480, Note_on_c, 0, 49, 0
2, 850496, Note_on_c, 0, 37, 39
2, 850590, Note_on_c, 0, 49, 41
2, 850690, Note_on_c, 0, 49, 0
2, 850700, Note_on_c, 0, 37, 0
2, 850718, Note_on_c, 0, 44, 54
2, 850786, Note_on_c, 0, 44, 0
2, 850810, Note_on_c, 0, 49, 35
2, 850892, Note_on_c, 0, 49, 0
2, 850914, Note_on_c, 0, 37, 57
2, 851014, Note_on_c, 0, 61, 0
2, 851028, Note_on_c, 0, 37, 0
2, 851030, Note_on_c, 0, 49, 31
2, 851064, Note_on_c, 0, 68, 0
2, 851108, Note_on_c, 0, 49, 0
2, 851144, Note_on_c, 0, 44, 42
2, 851216, Note_on_c, 0, 44, 0
2, 851280, Note_on_c, 0, 49, 32
2, 851366, Note_on_c, 0, 49, 0
2, 851466, Note_on_c, 0, 76, 57
2, 851496, Note_on_c, 0, 37, 33
2, 851606, Note_on_c, 0, 49, 36
2, 851676, Note_on_c, 0, 49, 0
2, 851682, Note_on_c, 0, 37, 0
2, 851712, Note_on_c, 0, 44, 43
2, 851784, Note_on_c, 0, 44, 0
2, 851838, Note_on_c, 0, 49, 36
2, 851856, Note_on_c, 0, 73, 56
2, 851860, Note_on_c, 0, 76, 0
2, 851910, Note_on_c, 0, 49, 0
2, 851912, Note_on_c, 0, 73, 0
2, 851966, Note_on_c, 0, 37, 44
2, 851970, Note_on_c, 0, 72, 77
2, 852052, Control_c, 0, 64, 0
2, 852100, Note_on_c, 0, 51, 52
2, 852176, Note_on_c, 0, 51, 0
2, 852206, Note_on_c, 0, 44, 48
2, 852220, Control_c, 0, 64, 127
2, 852256, Note_on_c, 0, 37, 0
2, 852264, Note_on_c, 0, 72, 0
2, 852286, Note_on_c, 0, 44, 0
2, 852312, Note_on_c, 0, 51, 42
2, 852408, Note_on_c, 0, 51, 0
2, 852416, Note_on_c, 0, 80, 80
2, 852426, Note_on_c, 0, 66, 44
2, 852429, Note_on_c, 0, 72, 32
2, 852456, Note_on_c, 0, 37, 50
2, 852520, Note_on_c, 0, 72, 0
2, 852530, Note_on_c, 0, 37, 0
2, 852564, Note_on_c, 0, 51, 39
2, 852578, Note_on_c, 0, 66, 0
2, 852612, Note_on_c, 0, 80, 0
2, 852636, Note_on_c, 0, 51, 0
2, 852658, Note_on_c, 0, 44, 46
2, 852734, Note_on_c, 0, 44, 0
2, 852760, Note_on_c, 0, 51, 33
2, 852852, Note_on_c, 0, 51, 0
2, 852856, Note_on_c, 0, 80, 85
2, 852866, Note_on_c, 0, 72, 49
2, 852872, Note_on_c, 0, 66, 43
2, 852884, Note_on_c, 0, 37, 51
2, 852952, Note_on_c, 0, 37, 0
2, 852962, Note_on_c, 0, 72, 0
2, 852982, Note_on_c, 0, 51, 36
2, 853008, Note_on_c, 0, 66, 0
2, 853056, Note_on_c, 0, 51, 0
2, 853070, Note_on_c, 0, 80, 0
2, 853088, Note_on_c, 0, 44, 44
2, 853166, Note_on_c, 0, 44, 0
2, 853186, Note_on_c, 0, 51, 46
2, 853266, Note_on_c, 0, 51, 0
2, 853280, Note_on_c, 0, 80, 85
2, 853288, Note_on_c, 0, 72, 51
2, 853294, Note_on_c, 0, 66, 49
2, 853302, Note_on_c, 0, 37, 49
2, 853370, Note_on_c, 0, 37, 0
2, 853392, Note_on_c, 0, 51, 40
2, 853462, Note_on_c, 0, 51, 0
2, 853462, Note_on_c, 0, 80, 0
2, 853492, Note_on_c, 0, 44, 51
2, 853498, Note_on_c, 0, 66, 0
2, 853568, Note_on_c, 0, 44, 0
2, 853571, Note_on_c, 0, 51, 55
2, 853600, Note_on_c, 0, 72, 0
2, 853640, Note_on_c, 0, 51, 0
2, 853710, Note_on_c, 0, 37, 59
2, 853712, Control_c, 0, 64, 0
2, 853740, Note_on_c, 0, 64, 70
2, 853796, Note_on_c, 0, 64, 0
2, 853832, Note_on_c, 0, 49, 44
2, 853838, Note_on_c, 0, 73, 39
2, 853848, Control_c, 0, 64, 127
2, 853912, Note_on_c, 0, 37, 0
2, 853940, Note_on_c, 0, 49, 0
2, 853942, Note_on_c, 0, 80, 83
2, 853976, Note_on_c, 0, 44, 44
2, 854044, Note_on_c, 0, 44, 0
2, 854102, Note_on_c, 0, 49, 40
2, 854168, Note_on_c, 0, 49, 0
2, 854200, Note_on_c, 0, 37, 49
2, 854250, Note_on_c, 0, 73, 0
2, 854296, Note_on_c, 0, 49, 41
2, 854306, Note_on_c, 0, 37, 0
2, 854396, Note_on_c, 0, 49, 0
2, 854422, Note_on_c, 0, 44, 43
2, 854502, Note_on_c, 0, 44, 0
2, 854504, Note_on_c, 0, 49, 43
2, 854556, Note_on_c, 0, 80, 0
2, 854602, Note_on_c, 0, 49, 0
2, 854660, Note_on_c, 0, 37, 44
2, 854680, Note_on_c, 0, 66, 50
2, 854762, Note_on_c, 0, 72, 52
2, 854765, Note_on_c, 0, 51, 47
2, 854772, Control_c, 0, 64, 0
2, 854826, Note_on_c, 0, 80, 73
2, 854842, Note_on_c, 0, 51, 0
2, 854874, Note_on_c, 0, 44, 40
2, 854900, Note_on_c, 0, 37, 0
2, 854950, Note_on_c, 0, 51, 39
2, 854952, Control_c, 0, 64, 127
2, 854958, Note_on_c, 0, 44, 0
2, 855072, Note_on_c, 0, 51, 0
2, 855086, Note_on_c, 0, 37, 47
2, 855176, Note_on_c, 0, 51, 39
2, 855185, Note_on_c, 0, 37, 0
2, 855192, Note_on_c, 0, 80, 0
2, 855288, Note_on_c, 0, 66, 0
2, 855298, Note_on_c, 0, 51, 0
2, 855322, Note_on_c, 0, 44, 42
2, 855346, Note_on_c, 0, 72, 0
2, 855396, Note_on_c, 0, 44, 0
2, 855396, Note_on_c, 0, 51, 42
2, 855466, Note_on_c, 0, 51, 0
2, 855538, Note_on_c, 0, 37, 55
2, 855554, Control_c, 0, 64, 0
2, 855584, Note_on_c, 0, 64, 62
2, 855652, Note_on_c, 0, 64, 0
2, 855658, Note_on_c, 0, 49, 40
2, 855690, Note_on_c, 0, 73, 43
2, 855708, Control_c, 0, 64, 127
2, 855756, Note_on_c, 0, 37, 0
2, 855776, Note_on_c, 0, 49, 0
2, 855790, Note_on_c, 0, 80, 77
2, 855802, Note_on_c, 0, 44, 43
2, 855878, Note_on_c, 0, 44, 0
2, 855932, Note_on_c, 0, 49, 28
2, 856002, Note_on_c, 0, 49, 0
2, 856032, Note_on_c, 0, 37, 46
2, 856106, Note_on_c, 0, 37, 0
2, 856130, Note_on_c, 0, 49, 34
2, 856158, Note_on_c, 0, 73, 0
2, 856206, Note_on_c, 0, 49, 0
2, 856268, Note_on_c, 0, 44, 37
2, 856284, Note_on_c, 0, 80, 0
2, 856344, Note_on_c, 0, 44, 0
2, 856378, Note_on_c, 0, 49, 48
2, 856450, Note_on_c, 0, 49, 0
2, 856520, Note_on_c, 0, 37, 42
2, 856576, Note_on_c, 0, 66, 51
2, 856584, Control_c, 0, 64, 0
2, 856630, Note_on_c, 0, 51, 48
2, 856664, Note_on_c, 0, 37, 0
2, 856676, Note_on_c, 0, 72, 62
2, 856706, Note_on_c, 0, 51, 0
2, 856706, Note_on_c, 0, 66, 0
2, 856722, Control_c, 0, 64, 127
2, 856740, Note_on_c, 0, 44, 37
2, 856756, Note_on_c, 0, 80, 64
2, 856820, Note_on_c, 0, 44, 0
2, 856834, Note_on_c, 0, 51, 42
2, 856837, Note_on_c, 0, 72, 0
2, 856920, Note_on_c, 0, 51, 0
2, 856968, Note_on_c, 0, 37, 47
2, 856998, Note_on_c, 0, 80, 0
2, 857034, Note_on_c, 0, 37, 0
2, 857072, Note_on_c, 0, 51, 47
2, 857142, Note_on_c, 0, 51, 0
2, 857184, Note_on_c, 0, 44, 48
2, 857242, Note_on_c, 0, 44, 0
2, 857280, Note_on_c, 0, 51, 52
2, 857340, Note_on_c, 0, 51, 0
2, 857362, Note_on_c, 0, 64, 62
2, 857412, Note_on_c, 0, 64, 0
2, 857436, Note_on_c, 0, 73, 67
2, 857460, Control_c, 0, 64, 0
2, 857498, Note_on_c, 0, 73, 0
2, 857508, Note_on_c, 0, 49, 126
2, 857511, Note_on_c, 0, 37, 118
2, 857514, Note_on_c, 0, 44, 115
2, 857519, Note_on_c, 0, 80, 121
2, 857540, Note_on_c, 0, 37, 0
2, 857548, Note_on_c, 0, 44, 0
2, 857594, Note_on_c, 0, 49, 0
2, 857598, Control_c, 0, 64, 127
2, 857622, Note_on_c, 0, 80, 0
2, 857772, Note_on_c, 0, 64, 83
2, 857840, Note_on_c, 0, 64, 0
2, 857870, Note_on_c, 0, 68, 82
2, 857870, Note_on_c, 0, 56, 73
2, 857960, Note_on_c, 0, 61, 77
2, 857960, Note_on_c, 0, 73, 63
2, 857963, Note_on_c, 0, 68, 0
2, 857982, Note_on_c, 0, 56, 0
2, 858020, Note_on_c, 0, 61, 0
2, 858034, Note_on_c, 0, 76, 82
2, 858054, Note_on_c, 0, 64, 93
2, 858064, Note_on_c, 0, 73, 0
2, 858074, Note_on_c, 0, 76, 0
2, 858100, Note_on_c, 0, 64, 0
2, 858140, Note_on_c, 0, 68, 90
2, 858166, Note_on_c, 0, 56, 69
2, 858244, Note_on_c, 0, 61, 80
2, 858248, Note_on_c, 0, 68, 0
2, 858250, Note_on_c, 0, 73, 82
2, 858254, Note_on_c, 0, 56, 0
2, 858334, Note_on_c, 0, 61, 0
2, 858334, Note_on_c, 0, 64, 67
2, 858340, Note_on_c, 0, 76, 80
2, 858380, Note_on_c, 0, 64, 0
2, 858380, Note_on_c, 0, 73, 0
2, 858414, Note_on_c, 0, 68, 69
2, 858426, Note_on_c, 0, 80, 105
2, 858460, Note_on_c, 0, 76, 0
2, 858510, Note_on_c, 0, 61, 79
2, 858520, Note_on_c, 0, 68, 0
2, 858520, Note_on_c, 0, 73, 83
2, 858544, Note_on_c, 0, 80, 0
2, 858588, Note_on_c, 0, 61, 0
2, 858606, Note_on_c, 0, 64, 58
2, 858609, Note_on_c, 0, 76, 80
2, 858634, Note_on_c, 0, 73, 0
2, 858658, Note_on_c, 0, 64, 0
2, 858666, Note_on_c, 0, 68, 69
2, 858694, Note_on_c, 0, 80, 82
2, 858704, Note_on_c, 0, 76, 0
2, 858736, Note_on_c, 0, 68, 0
2, 858770, Note_on_c, 0, 85, 103
2, 858772, Note_on_c, 0, 73, 83
2, 858794, Note_on_c, 0, 80, 0
2, 858806, Note_on_c, 0, 73, 0
2, 858874, Note_on_c, 0, 76, 92
2, 858884, Note_on_c, 0, 64, 79
2, 858914, Note_on_c, 0, 85, 0
2, 858938, Note_on_c, 0, 80, 93
2, 858948, Note_on_c, 0, 64, 0
2, 858978, Note_on_c, 0, 68, 64
2, 858998, Note_on_c, 0, 76, 0
2, 859046, Note_on_c, 0, 85, 95
2, 859048, Note_on_c, 0, 73, 66
2, 859056, Note_on_c, 0, 80, 0
2, 859080, Note_on_c, 0, 68, 0
2, 859114, Note_on_c, 0, 73, 0
2, 859148, Note_on_c, 0, 76, 97
2, 859151, Note_on_c, 0, 88, 116
2, 859154, Note_on_c, 0, 85, 0
2, 859238, Note_on_c, 0, 85, 73
2, 859242, Note_on_c, 0, 76, 0
2, 859244, Note_on_c, 0, 73, 80
2, 859322, Note_on_c, 0, 88, 0
2, 859334, Note_on_c, 0, 68, 70
2, 859352, Note_on_c, 0, 80, 89
2, 859374, Note_on_c, 0, 73, 0
2, 859388, Note_on_c, 0, 85, 0
2, 859428, Note_on_c, 0, 64, 62
2, 859430, Note_on_c, 0, 76, 80
2, 859452, Note_on_c, 0, 80, 0
2, 859462, Note_on_c, 0, 68, 0
2, 859474, Note_on_c, 0, 64, 0
2, 859488, Note_on_c, 0, 76, 0
2, 859538, Note_on_c, 0, 85, 101
2, 859548, Note_on_c, 0, 73, 95
2, 859638, Note_on_c, 0, 80, 83
2, 859654, Note_on_c, 0, 68, 77
2, 859664, Note_on_c, 0, 73, 0
2, 859670, Note_on_c, 0, 85, 0
2, 859720, Note_on_c, 0, 64, 59
2, 859730, Note_on_c, 0, 76, 79
2, 859750, Note_on_c, 0, 80, 0
2, 859754, Note_on_c, 0, 68, 0
2, 859804, Note_on_c, 0, 61, 64
2, 859804, Note_on_c, 0, 73, 86
2, 859816, Note_on_c, 0, 64, 0
2, 859848, Note_on_c, 0, 76, 0
2, 859848, Note_on_c, 0, 61, 0
2, 859900, Note_on_c, 0, 73, 0
2, 859902, Note_on_c, 0, 80, 102
2, 859906, Note_on_c, 0, 68, 82
2, 859952, Note_on_c, 0, 68, 0
2, 859986, Note_on_c, 0, 64, 70
2, 860000, Note_on_c, 0, 76, 77
2, 860056, Note_on_c, 0, 80, 0
2, 860064, Note_on_c, 0, 61, 74
2, 860082, Note_on_c, 0, 73, 87
2, 860100, Note_on_c, 0, 64, 0
2, 860120, Note_on_c, 0, 76, 0
2, 860140, Note_on_c, 0, 56, 71
2, 860164, Note_on_c, 0, 68, 87
2, 860184, Note_on_c, 0, 73, 0
2, 860194, Note_on_c, 0, 61, 0
2, 860194, Note_on_c, 0, 56, 0
2, 860214, Note_on_c, 0, 68, 0
2, 860248, Note_on_c, 0, 64, 95
2, 860260, Note_on_c, 0, 76, 101
2, 860328, Note_on_c, 0, 61, 101
2, 860348, Note_on_c, 0, 73, 90
2, 860362, Note_on_c, 0, 64, 0
2, 860402, Note_on_c, 0, 76, 0
2, 860404, Note_on_c, 0, 56, 59
2, 860432, Note_on_c, 0, 68, 83
2, 860470, Note_on_c, 0, 61, 0
2, 860492, Note_on_c, 0, 73, 0
2, 860508, Note_on_c, 0, 52, 65
2, 860524, Note_on_c, 0, 56, 0
2, 860524, Note_on_c, 0, 64, 97
2, 860536, Note_on_c, 0, 68, 0
2, 860554, Note_on_c, 0, 52, 0
2, 860588, Note_on_c, 0, 64, 0
2, 860614, Note_on_c, 0, 73, 104
2, 860616, Note_on_c, 0, 61, 97
2, 860702, Note_on_c, 0, 56, 87
2, 860705, Note_on_c, 0, 68, 86
2, 860722, Note_on_c, 0, 61, 0
2, 860774, Note_on_c, 0, 73, 0
2, 860792, Note_on_c, 0, 52, 77
2, 860806, Note_on_c, 0, 64, 90
2, 860850, Note_on_c, 0, 68, 0
2, 860856, Note_on_c, 0, 56, 0
2, 860860, Note_on_c, 0, 49, 82
2, 860868, Note_on_c, 0, 61, 101
2, 860896, Note_on_c, 0, 52, 0
2, 860910, Note_on_c, 0, 49, 0
2, 860916, Note_on_c, 0, 64, 0
2, 860958, Note_on_c, 0, 56, 80
2, 860968, Note_on_c, 0, 61, 0
2, 860968, Note_on_c, 0, 68, 101
2, 861032, Note_on_c, 0, 52, 86
2, 861052, Note_on_c, 0, 64, 86
2, 861054, Note_on_c, 0, 56, 0
2, 861114, Note_on_c, 0, 49, 77
2, 861118, Note_on_c, 0, 68, 0
2, 861142, Note_on_c, 0, 61, 95
2, 861174, Note_on_c, 0, 52, 0
2, 861177, Note_on_c, 0, 64, 0
2, 861206, Note_on_c, 0, 44, 86
2, 861220, Note_on_c, 0, 56, 97
2, 861244, Note_on_c, 0, 49, 0
2, 861247, Note_on_c, 0, 61, 0
2, 861272, Note_on_c, 0, 44, 0
2, 861272, Note_on_c, 0, 56, 0
2, 861314, Note_on_c, 0, 64, 113
2, 861320, Note_on_c, 0, 52, 109
2, 861390, Note_on_c, 0, 49, 98
2, 861406, Note_on_c, 0, 61, 96
2, 861416, Note_on_c, 0, 52, 0
2, 861438, Note_on_c, 0, 64, 0
2, 861502, Note_on_c, 0, 44, 29
2, 861505, Note_on_c, 0, 56, 90
2, 861538, Note_on_c, 0, 61, 0
2, 861552, Note_on_c, 0, 49, 0
2, 861596, Note_on_c, 0, 40, 40
2, 861596, Note_on_c, 0, 52, 102
2, 861599, Note_on_c, 0, 44, 0
2, 861602, Note_on_c, 0, 56, 0
2, 861656, Note_on_c, 0, 40, 0
2, 861670, Note_on_c, 0, 49, 96
2, 861682, Note_on_c, 0, 61, 106
2, 861706, Note_on_c, 0, 52, 0
2, 861776, Note_on_c, 0, 44, 98
2, 861780, Note_on_c, 0, 56, 89
2, 861786, Note_on_c, 0, 49, 0
2, 861838, Note_on_c, 0, 61, 0
2, 861848, Note_on_c, 0, 40, 105
2, 861870, Note_on_c, 0, 52, 110
2, 861886, Note_on_c, 0, 44, 0
2, 861898, Note_on_c, 0, 56, 0
2, 861942, Note_on_c, 0, 44, 96
2, 861964, Note_on_c, 0, 56, 95
2, 861980, Note_on_c, 0, 40, 0
2, 861986, Note_on_c, 0, 52, 0
2, 862038, Note_on_c, 0, 44, 0
2, 862066, Note_on_c, 0, 49, 124
2, 862072, Note_on_c, 0, 37, 121
2, 862100, Note_on_c, 0, 56, 0
2, 862152, Note_on_c, 0, 37, 0
2, 862152, Note_on_c, 0, 49, 0
2, 862454, Control_c, 0, 64, 0
2, 862842, Note_on_c, 0, 40, 118
2, 862844, Note_on_c, 0, 85, 118
2, 862844, Note_on_c, 0, 73, 118
2, 862844, Note_on_c, 0, 37, 103
2, 862844, Note_on_c, 0, 44, 104
2, 862847, Note_on_c, 0, 49, 117
2, 862847, Note_on_c, 0, 80, 108
2, 862847, Note_on_c, 0, 76, 111
2, 862926, Note_on_c, 0, 37, 0
2, 862938, Note_on_c, 0, 40, 0
2, 862946, Control_c, 0, 64, 127
2, 862956, Note_on_c, 0, 85, 0
2, 862962, Note_on_c, 0, 49, 0
2, 862968, Note_on_c, 0, 44, 0
2, 862972, Note_on_c, 0, 73, 0
2, 863004, Note_on_c, 0, 76, 0
2, 863022, Note_on_c, 0, 80, 0
2, 863438, Control_c, 0, 64, 0
2, 863689, Note_on_c, 0, 64, 123
2, 863689, Note_on_c, 0, 37, 106
2, 863690, Note_on_c, 0, 73, 117
2, 863690, Note_on_c, 0, 61, 127
2, 863694, Note_on_c, 0, 40, 120
2, 863694, Note_on_c, 0, 44, 105
2, 863696, Note_on_c, 0, 49, 117
2, 863696, Note_on_c, 0, 68, 103
2, 863790, Control_c, 0, 64, 127
2, 863800, Note_on_c, 0, 37, 0
2, 863806, Note_on_c, 0, 40, 0
2, 863810, Note_on_c, 0, 61, 0
2, 863816, Note_on_c, 0, 49, 0
2, 863826, Note_on_c, 0, 44, 0
2, 863829, Note_on_c, 0, 73, 0
2, 863850, Note_on_c, 0, 64, 0
2, 863894, Note_on_c, 0, 68, 0
2, 864404, Control_c, 0, 64, 0
2, 865920, Control_c, 0, 64, 0
2, 865920, End_track
0, 0, End_of_file
