0, 0, Header, 0, 1, 384
1, 0, Start_track
1, 0, Tempo, 512820
1, 0, Title_t, "Sonata No.14 in Mondscheinsonate"
1, 0, Program_c, 0, 0
1, 0, Control_c, 0, 7, 100
1, 3, Control_c, 0, 10, 64
1, 3, Control_c, 0, 91, 127
1, 3, Control_c, 0, 91, 127
1, 6, Program_c, 0, 0
1, 6, Control_c, 0, 7, 100
1, 6, Control_c, 0, 10, 64
1, 9, Control_c, 0, 64, 0
1, 9, Control_c, 0, 91, 127
1, 9, Control_c, 0, 64, 0
1, 748, Note_on_c, 0, 37, 60
1, 815, Note_on_c, 0, 44, 65
1, 815, Note_on_c, 0, 37, 0
1, 882, Note_on_c, 0, 49, 67
1, 882, Note_on_c, 0, 44, 57
1, 894, Note_on_c, 0, 44, 0
1, 950, Note_on_c, 0, 52, 69
1, 950, Note_on_c, 0, 44, 0
1, 961, Note_on_c, 0, 49, 0
1, 1017, Note_on_c, 0, 56, 71
1, 1017, Note_on_c, 0, 37, 61
1, 1028, Note_on_c, 0, 52, 0
1, 1085, Note_on_c, 0, 49, 65
1, 1085, Note_on_c, 0, 37, 0
1, 1096, Note_on_c, 0, 56, 0
1, 1152, Note_on_c, 0, 52, 66
1, 1152, Note_on_c, 0, 44, 57
1, 1163, Note_on_c, 0, 49, 0
1, 1219, Note_on_c, 0, 56, 68
1, 1219, Note_on_c, 0, 44, 0
1, 1231, Note_on_c, 0, 52, 0
1, 1287, Note_on_c, 0, 61, 70
1, 1287, Note_on_c, 0, 37, 59
1, 1298, Note_on_c, 0, 56, 0
1, 1354, Note_on_c, 0, 52, 65
1, 1354, Note_on_c, 0, 37, 0
1, 1365, Note_on_c, 0, 61, 0
1, 1421, Note_on_c, 0, 56, 66
1, 1421, Note_on_c, 0, 44, 56
1, 1433, Note_on_c, 0, 52, 0
1, 1489, Note_on_c, 0, 61, 68
1, 1489, Note_on_c, 0, 44, 0
1, 1500, Note_on_c, 0, 56, 0
1, 1556, Note_on_c, 0, 64, 70
1, 1556, Note_on_c, 0, 37, 60
1, 1567, Note_on_c, 0, 61, 0
1, 1623, Note_on_c, 0, 56, 66
1, 1623, Note_on_c, 0, 37, 0
1, 1635, Note_on_c, 0, 64, 0
1, 1691, Note_on_c, 0, 61, 67
1, 1691, Note_on_c, 0, 44, 57
1, 1702, Note_on_c, 0, 56, 0
1, 1758, Note_on_c, 0, 64, 68
1, 1758, Note_on_c, 0, 44, 0
1, 1769, Note_on_c, 0, 61, 0
1, 1826, Note_on_c, 0, 68, 69
1, 1826, Note_on_c, 0, 37, 61
1, 1837, Note_on_c, 0, 64, 0
1, 1893, Note_on_c, 0, 61, 66
1, 1893, Note_on_c, 0, 37, 0
1, 1904, Note_on_c, 0, 68, 0
1, 1960, Note_on_c, 0, 64, 66
1, 1960, Note_on_c, 0, 44, 59
1, 1971, Note_on_c, 0, 61, 0
1, 2028, Note_on_c, 0, 68, 68
1, 2028, Note_on_c, 0, 44, 0
1, 2039, Note_on_c, 0, 64, 0
1, 2095, Note_on_c, 0, 73, 69
1, 2095, Note_on_c, 0, 37, 61
1, 2106, Note_on_c, 0, 68, 0
1, 2162, Note_on_c, 0, 64, 71
1, 2162, Note_on_c, 0, 37, 0
1, 2174, Note_on_c, 0, 73, 0
1, 2230, Note_on_c, 0, 68, 66
1, 2230, Note_on_c, 0, 44, 58
1, 2241, Note_on_c, 0, 64, 0
1, 2297, Note_on_c, 0, 73, 70
1, 2297, Note_on_c, 0, 44, 0
1, 2308, Note_on_c, 0, 68, 0
1, 2364, Note_on_c, 0, 76, 72
1, 2364, Note_on_c, 0, 37, 59
1, 2376, Note_on_c, 0, 73, 0
1, 2432, Note_on_c, 0, 68, 69
1, 2432, Note_on_c, 0, 37, 0
1, 2443, Note_on_c, 0, 76, 0
1, 2499, Note_on_c, 0, 73, 71
1, 2499, Note_on_c, 0, 44, 56
1, 2510, Note_on_c, 0, 68, 0
1, 2567, Note_on_c, 0, 76, 74
1, 2567, Note_on_c, 0, 44, 0
1, 2578, Note_on_c, 0, 73, 0
1, 2634, Note_on_c, 0, 76, 0
1, 2634, Note_on_c, 0, 68, 92
1, 2634, Note_on_c, 0, 76, 107
1, 2637, Control_c, 0, 64, 127
1, 2637, Note_on_c, 0, 80, 107
1, 2637, Note_on_c, 0, 73, 92
1, 2640, Note_on_c, 0, 49, 90
1, 2640, Note_on_c, 0, 37, 90
1, 2640, Control_c, 0, 64, 127
1, 2704, Note_on_c, 0, 73, 0
1, 2704, Note_on_c, 0, 68, 0
1, 2704, Note_on_c, 0, 76, 0
1, 2707, Note_on_c, 0, 80, 0
1, 2707, Note_on_c, 0, 37, 0
1, 2707, Note_on_c, 0, 49, 0
1, 2774, Note_on_c, 0, 68, 80
1, 2774, Note_on_c, 0, 73, 80
1, 2774, Note_on_c, 0, 80, 92
1, 2777, Note_on_c, 0, 76, 92
1, 2777, Note_on_c, 0, 44, 80
1, 2845, Note_on_c, 0, 76, 0
1, 2845, Note_on_c, 0, 68, 0
1, 2845, Note_on_c, 0, 73, 0
1, 2848, Note_on_c, 0, 80, 0
1, 2848, Note_on_c, 0, 44, 0
1, 2915, Note_on_c, 0, 36, 59
1, 2921, Control_c, 0, 64, 0
1, 2921, Control_c, 0, 64, 0
1, 2982, Note_on_c, 0, 44, 66
1, 2982, Note_on_c, 0, 36, 0
1, 3049, Note_on_c, 0, 48, 67
1, 3049, Note_on_c, 0, 44, 54
1, 3061, Note_on_c, 0, 44, 0
1, 3117, Note_on_c, 0, 51, 69
1, 3117, Note_on_c, 0, 44, 0
1, 3128, Note_on_c, 0, 48, 0
1, 3184, Note_on_c, 0, 56, 71
1, 3184, Note_on_c, 0, 36, 59
1, 3195, Note_on_c, 0, 51, 0
1, 3252, Note_on_c, 0, 48, 66
1, 3252, Note_on_c, 0, 36, 0
1, 3263, Note_on_c, 0, 56, 0
1, 3319, Note_on_c, 0, 51, 67
1, 3319, Note_on_c, 0, 44, 54
1, 3330, Note_on_c, 0, 48, 0
1, 3386, Note_on_c, 0, 56, 70
1, 3386, Note_on_c, 0, 44, 0
1, 3397, Note_on_c, 0, 51, 0
1, 3454, Note_on_c, 0, 60, 72
1, 3454, Note_on_c, 0, 36, 58
1, 3465, Note_on_c, 0, 56, 0
1, 3521, Note_on_c, 0, 51, 66
1, 3521, Note_on_c, 0, 36, 0
1, 3532, Note_on_c, 0, 60, 0
1, 3588, Note_on_c, 0, 56, 67
1, 3588, Note_on_c, 0, 44, 54
1, 3600, Note_on_c, 0, 51, 0
1, 3656, Note_on_c, 0, 60, 69
1, 3656, Note_on_c, 0, 44, 0
1, 3667, Note_on_c, 0, 56, 0
1, 3723, Note_on_c, 0, 63, 71
1, 3723, Note_on_c, 0, 36, 58
1, 3734, Note_on_c, 0, 60, 0
1, 3790, Note_on_c, 0, 56, 65
1, 3790, Note_on_c, 0, 36, 0
1, 3802, Note_on_c, 0, 63, 0
1, 3858, Note_on_c, 0, 60, 66
1, 3858, Note_on_c, 0, 44, 55
1, 3869, Note_on_c, 0, 56, 0
1, 3925, Note_on_c, 0, 63, 68
1, 3925, Note_on_c, 0, 44, 0
1, 3936, Note_on_c, 0, 60, 0
1, 3993, Note_on_c, 0, 68, 70
1, 3993, Note_on_c, 0, 36, 58
1, 4004, Note_on_c, 0, 63, 0
1, 4060, Note_on_c, 0, 60, 66
1, 4060, Note_on_c, 0, 36, 0
1, 4071, Note_on_c, 0, 68, 0
1, 4127, Note_on_c, 0, 63, 67
1, 4127, Note_on_c, 0, 44, 53
1, 4138, Note_on_c, 0, 60, 0
1, 4195, Note_on_c, 0, 68, 69
1, 4195, Note_on_c, 0, 44, 0
1, 4206, Note_on_c, 0, 63, 0
1, 4262, Note_on_c, 0, 72, 71
1, 4262, Note_on_c, 0, 36, 58
1, 4273, Note_on_c, 0, 68, 0
1, 4329, Note_on_c, 0, 63, 66
1, 4329, Note_on_c, 0, 36, 0
1, 4341, Note_on_c, 0, 72, 0
1, 4397, Note_on_c, 0, 68, 67
1, 4397, Note_on_c, 0, 44, 54
1, 4408, Note_on_c, 0, 63, 0
1, 4464, Note_on_c, 0, 72, 70
1, 4464, Note_on_c, 0, 44, 0
1, 4475, Note_on_c, 0, 68, 0
1, 4531, Note_on_c, 0, 75, 72
1, 4531, Note_on_c, 0, 36, 58
1, 4543, Note_on_c, 0, 72, 0
1, 4599, Note_on_c, 0, 68, 70
1, 4599, Note_on_c, 0, 36, 0
1, 4610, Note_on_c, 0, 75, 0
1, 4666, Note_on_c, 0, 72, 71
1, 4666, Note_on_c, 0, 44, 54
1, 4677, Note_on_c, 0, 68, 0
1, 4734, Note_on_c, 0, 75, 72
1, 4734, Note_on_c, 0, 44, 0
1, 4745, Note_on_c, 0, 72, 0
1, 4801, Note_on_c, 0, 75, 0
1, 4801, Note_on_c, 0, 68, 92
1, 4801, Note_on_c, 0, 72, 92
1, 4804, Control_c, 0, 64, 127
1, 4804, Note_on_c, 0, 75, 107
1, 4804, Note_on_c, 0, 80, 107
1, 4807, Note_on_c, 0, 48, 90
1, 4807, Note_on_c, 0, 36, 90
1, 4807, Control_c, 0, 64, 127
1, 4871, Note_on_c, 0, 80, 0
1, 4871, Note_on_c, 0, 68, 0
1, 4871, Note_on_c, 0, 72, 0
1, 4874, Note_on_c, 0, 75, 0
1, 4874, Note_on_c, 0, 36, 0
1, 4874, Note_on_c, 0, 48, 0
1, 4942, Note_on_c, 0, 72, 79
1, 4942, Note_on_c, 0, 80, 91
1, 4942, Note_on_c, 0, 68, 79
1, 4945, Note_on_c, 0, 75, 91
1, 4945, Note_on_c, 0, 44, 78
1, 5012, Note_on_c, 0, 75, 0
1, 5012, Note_on_c, 0, 72, 0
1, 5012, Note_on_c, 0, 80, 0
1, 5015, Note_on_c, 0, 68, 0
1, 5015, Note_on_c, 0, 44, 0
1, 5083, Control_c, 0, 64, 0
1, 5083, Note_on_c, 0, 35, 75
1, 5083, Control_c, 0, 64, 0
1, 5150, Note_on_c, 0, 49, 88
1, 5150, Note_on_c, 0, 35, 0
1, 5217, Note_on_c, 0, 53, 84
1, 5217, Note_on_c, 0, 44, 69
1, 5229, Note_on_c, 0, 49, 0
1, 5285, Note_on_c, 0, 56, 88
1, 5285, Note_on_c, 0, 44, 0
1, 5296, Note_on_c, 0, 53, 0
1, 5352, Note_on_c, 0, 61, 90
1, 5352, Note_on_c, 0, 35, 77
1, 5363, Note_on_c, 0, 56, 0
1, 5419, Note_on_c, 0, 52, 83
1, 5419, Note_on_c, 0, 35, 0
1, 5431, Note_on_c, 0, 61, 0
1, 5487, Note_on_c, 0, 56, 84
1, 5487, Note_on_c, 0, 44, 71
1, 5498, Note_on_c, 0, 52, 0
1, 5554, Note_on_c, 0, 61, 87
1, 5554, Note_on_c, 0, 44, 0
1, 5565, Note_on_c, 0, 56, 0
1, 5622, Note_on_c, 0, 65, 90
1, 5622, Note_on_c, 0, 35, 77
1, 5633, Note_on_c, 0, 61, 0
1, 5689, Note_on_c, 0, 56, 84
1, 5689, Note_on_c, 0, 35, 0
1, 5700, Note_on_c, 0, 65, 0
1, 5756, Note_on_c, 0, 61, 87
1, 5756, Note_on_c, 0, 44, 72
1, 5767, Note_on_c, 0, 56, 0
1, 5824, Note_on_c, 0, 65, 89
1, 5824, Note_on_c, 0, 44, 0
1, 5835, Note_on_c, 0, 61, 0
1, 5891, Note_on_c, 0, 68, 90
1, 5891, Note_on_c, 0, 35, 77
1, 5902, Note_on_c, 0, 65, 0
1, 5958, Note_on_c, 0, 61, 84
1, 5958, Note_on_c, 0, 35, 0
1, 5970, Note_on_c, 0, 68, 0
1, 6026, Note_on_c, 0, 65, 85
1, 6026, Note_on_c, 0, 44, 72
1, 6037, Note_on_c, 0, 61, 0
1, 6093, Note_on_c, 0, 68, 88
1, 6093, Note_on_c, 0, 44, 0
1, 6104, Note_on_c, 0, 65, 0
1, 6160, Note_on_c, 0, 73, 89
1, 6160, Note_on_c, 0, 35, 77
1, 6172, Note_on_c, 0, 68, 0
1, 6228, Note_on_c, 0, 65, 83
1, 6228, Note_on_c, 0, 35, 0
1, 6239, Note_on_c, 0, 73, 0
1, 6295, Note_on_c, 0, 68, 84
1, 6295, Note_on_c, 0, 44, 72
1, 6306, Note_on_c, 0, 65, 0
1, 6363, Note_on_c, 0, 73, 88
1, 6363, Note_on_c, 0, 44, 0
1, 6374, Note_on_c, 0, 68, 0
1, 6430, Note_on_c, 0, 77, 90
1, 6430, Note_on_c, 0, 35, 77
1, 6441, Note_on_c, 0, 73, 0
1, 6497, Note_on_c, 0, 68, 84
1, 6497, Note_on_c, 0, 35, 0
1, 6508, Note_on_c, 0, 77, 0
1, 6565, Note_on_c, 0, 73, 88
1, 6565, Note_on_c, 0, 44, 71
1, 6576, Note_on_c, 0, 68, 0
1, 6632, Note_on_c, 0, 77, 90
1, 6632, Note_on_c, 0, 44, 0
1, 6643, Note_on_c, 0, 73, 0
1, 6699, Note_on_c, 0, 80, 88
1, 6699, Note_on_c, 0, 35, 77
1, 6711, Note_on_c, 0, 77, 0
1, 6767, Note_on_c, 0, 73, 90
1, 6767, Note_on_c, 0, 35, 0
1, 6778, Note_on_c, 0, 80, 0
1, 6834, Note_on_c, 0, 77, 92
1, 6834, Note_on_c, 0, 44, 70
1, 6845, Note_on_c, 0, 73, 0
1, 6901, Note_on_c, 0, 80, 94
1, 6901, Note_on_c, 0, 44, 0
1, 6913, Note_on_c, 0, 77, 0
1, 6969, Note_on_c, 0, 80, 0
1, 6969, Note_on_c, 0, 77, 100
1, 6969, Note_on_c, 0, 85, 116
1, 6972, Control_c, 0, 64, 127
1, 6972, Note_on_c, 0, 80, 116
1, 6972, Note_on_c, 0, 73, 100
1, 6975, Note_on_c, 0, 35, 95
1, 6975, Control_c, 0, 64, 127
1, 6975, Note_on_c, 0, 47, 95
1, 7039, Note_on_c, 0, 73, 0
1, 7039, Note_on_c, 0, 77, 0
1, 7039, Note_on_c, 0, 85, 0
1, 7042, Note_on_c, 0, 80, 0
1, 7042, Note_on_c, 0, 47, 0
1, 7042, Note_on_c, 0, 35, 0
1, 7109, Note_on_c, 0, 80, 103
1, 7109, Note_on_c, 0, 85, 103
1, 7109, Note_on_c, 0, 73, 89
1, 7112, Note_on_c, 0, 77, 89
1, 7112, Note_on_c, 0, 44, 86
1, 7179, Note_on_c, 0, 77, 0
1, 7179, Note_on_c, 0, 80, 0
1, 7179, Note_on_c, 0, 85, 0
1, 7182, Note_on_c, 0, 73, 0
1, 7182, Note_on_c, 0, 44, 0
1, 7249, Control_c, 0, 64, 0
1, 7249, Control_c, 0, 64, 0
1, 7249, Note_on_c, 0, 33, 69
1, 7316, Note_on_c, 0, 49, 82
1, 7316, Note_on_c, 0, 33, 0
1, 7383, Note_on_c, 0, 54, 85
1, 7383, Note_on_c, 0, 45, 71
1, 7395, Note_on_c, 0, 49, 0
1, 7451, Note_on_c, 0, 57, 83
1, 7451, Note_on_c, 0, 45, 0
1, 7462, Note_on_c, 0, 54, 0
1, 7518, Note_on_c, 0, 61, 92
1, 7518, Note_on_c, 0, 33, 78
1, 7529, Note_on_c, 0, 57, 0
1, 7552, Note_on_c, 0, 61, 0
1, 7586, Note_on_c, 0, 61, 95
1, 7586, Note_on_c, 0, 33, 0
1, 7653, Note_on_c, 0, 66, 100
1, 7653, Note_on_c, 0, 45, 81
1, 7664, Note_on_c, 0, 61, 0
1, 7720, Note_on_c, 0, 69, 97
1, 7720, Note_on_c, 0, 45, 0
1, 7731, Note_on_c, 0, 66, 0
1, 7788, Note_on_c, 0, 73, 104
1, 7788, Note_on_c, 0, 33, 78
1, 7799, Note_on_c, 0, 69, 0
1, 7821, Note_on_c, 0, 73, 0
1, 7855, Note_on_c, 0, 73, 101
1, 7855, Note_on_c, 0, 33, 0
1, 7922, Note_on_c, 0, 78, 106
1, 7922, Note_on_c, 0, 45, 78
1, 7934, Note_on_c, 0, 73, 0
1, 7990, Note_on_c, 0, 81, 100
1, 7990, Note_on_c, 0, 45, 0
1, 8001, Note_on_c, 0, 78, 0
1, 8057, Note_on_c, 0, 81, 0
1, 8057, Note_on_c, 0, 73, 104
1, 8057, Note_on_c, 0, 85, 121
1, 8060, Note_on_c, 0, 78, 104
1, 8060, Control_c, 0, 64, 127
1, 8060, Note_on_c, 0, 33, 89
1, 8063, Control_c, 0, 64, 127
1, 8126, Note_on_c, 0, 78, 0
1, 8126, Note_on_c, 0, 85, 0
1, 8126, Note_on_c, 0, 73, 0
1, 8129, Note_on_c, 0, 33, 0
1, 8194, Note_on_c, 0, 73, 101
1, 8194, Note_on_c, 0, 78, 101
1, 8194, Note_on_c, 0, 85, 118
1, 8197, Note_on_c, 0, 45, 89
1, 8262, Note_on_c, 0, 85, 0
1, 8262, Note_on_c, 0, 78, 0
1, 8262, Note_on_c, 0, 73, 0
1, 8265, Note_on_c, 0, 45, 0
1, 8331, Control_c, 0, 64, 0
1, 8331, Control_c, 0, 64, 0
1, 8331, Note_on_c, 0, 33, 89
1, 8398, Note_on_c, 0, 49, 99
1, 8398, Note_on_c, 0, 33, 0
1, 8466, Note_on_c, 0, 52, 101
1, 8466, Note_on_c, 0, 45, 85
1, 8477, Note_on_c, 0, 49, 0
1, 8533, Note_on_c, 0, 55, 104
1, 8533, Note_on_c, 0, 45, 0
1, 8544, Note_on_c, 0, 52, 0
1, 8600, Note_on_c, 0, 61, 100
1, 8600, Note_on_c, 0, 33, 89
1, 8611, Note_on_c, 0, 55, 0
1, 8634, Note_on_c, 0, 61, 0
1, 8668, Note_on_c, 0, 61, 101
1, 8668, Note_on_c, 0, 33, 0
1, 8735, Note_on_c, 0, 64, 104
1, 8735, Note_on_c, 0, 45, 85
1, 8746, Note_on_c, 0, 61, 0
1, 8802, Note_on_c, 0, 67, 104
1, 8802, Note_on_c, 0, 45, 0
1, 8814, Note_on_c, 0, 64, 0
1, 8870, Note_on_c, 0, 73, 105
1, 8870, Note_on_c, 0, 33, 89
1, 8881, Note_on_c, 0, 67, 0
1, 8903, Note_on_c, 0, 73, 0
1, 8937, Note_on_c, 0, 73, 101
1, 8937, Note_on_c, 0, 33, 0
1, 9004, Note_on_c, 0, 76, 104
1, 9004, Note_on_c, 0, 45, 85
1, 9016, Note_on_c, 0, 73, 0
1, 9072, Note_on_c, 0, 79, 105
1, 9072, Note_on_c, 0, 45, 0
1, 9083, Note_on_c, 0, 76, 0
1, 9139, Note_on_c, 0, 79, 0
1, 9139, Note_on_c, 0, 85, 119
1, 9139, Control_c, 0, 64, 127
1, 9142, Note_on_c, 0, 73, 102
1, 9142, Note_on_c, 0, 79, 119
1, 9142, Note_on_c, 0, 33, 96
1, 9145, Control_c, 0, 64, 127
1, 9218, Note_on_c, 0, 79, 0
1, 9218, Note_on_c, 0, 73, 0
1, 9218, Note_on_c, 0, 85, 0
1, 9221, Note_on_c, 0, 33, 0
1, 9296, Note_on_c, 0, 73, 102
1, 9296, Note_on_c, 0, 79, 119
1, 9296, Note_on_c, 0, 85, 119
1, 9299, Note_on_c, 0, 45, 96
1, 9374, Note_on_c, 0, 85, 0
1, 9374, Note_on_c, 0, 79, 0
1, 9374, Note_on_c, 0, 73, 0
1, 9377, Note_on_c, 0, 45, 0
1, 9453, Note_on_c, 0, 72, 118
1, 9453, Note_on_c, 0, 84, 118
1, 9453, Control_c, 0, 64, 0
1, 9456, Note_on_c, 0, 80, 118
1, 9456, Note_on_c, 0, 44, 89
1, 9456, Note_on_c, 0, 32, 89
1, 9459, Control_c, 0, 64, 0
1, 9609, Note_on_c, 0, 80, 0
1, 9609, Note_on_c, 0, 84, 0
1, 9609, Note_on_c, 0, 72, 0
1, 9612, Note_on_c, 0, 68, 98
1, 9612, Note_on_c, 0, 32, 0
1, 9612, Note_on_c, 0, 44, 0
1, 9615, Control_c, 0, 64, 127
1, 9615, Note_on_c, 0, 60, 84
1, 9615, Note_on_c, 0, 56, 84
1, 9678, Note_on_c, 0, 68, 0
1, 9678, Note_on_c, 0, 80, 79
1, 9746, Note_on_c, 0, 80, 0
1, 9746, Note_on_c, 0, 68, 99
1, 9746, Note_on_c, 0, 60, 0
1, 9749, Note_on_c, 0, 60, 83
1, 9814, Note_on_c, 0, 68, 0
1, 9814, Note_on_c, 0, 80, 81
1, 9879, Control_c, 0, 64, 0
1, 9882, Note_on_c, 0, 80, 0
1, 9882, Note_on_c, 0, 70, 100
1, 9882, Note_on_c, 0, 60, 0
1, 9885, Note_on_c, 0, 61, 84
1, 9911, Control_c, 0, 64, 127
1, 9950, Note_on_c, 0, 70, 0
1, 9950, Note_on_c, 0, 80, 81
1, 10019, Note_on_c, 0, 80, 0
1, 10019, Note_on_c, 0, 72, 100
1, 10019, Note_on_c, 0, 61, 0
1, 10022, Control_c, 0, 64, 0
1, 10022, Note_on_c, 0, 63, 86
1, 10048, Control_c, 0, 64, 127
1, 10087, Note_on_c, 0, 72, 0
1, 10087, Note_on_c, 0, 80, 82
1, 10155, Note_on_c, 0, 80, 0
1, 10155, Note_on_c, 0, 73, 102
1, 10155, Note_on_c, 0, 63, 0
1, 10158, Note_on_c, 0, 64, 88
1, 10158, Control_c, 0, 64, 0
1, 10188, Control_c, 0, 64, 127
1, 10223, Note_on_c, 0, 73, 0
1, 10223, Note_on_c, 0, 80, 83
1, 10265, Control_c, 0, 64, 0
1, 10292, Note_on_c, 0, 80, 0
1, 10292, Note_on_c, 0, 75, 103
1, 10292, Note_on_c, 0, 64, 0
1, 10295, Note_on_c, 0, 66, 89
1, 10298, Control_c, 0, 64, 127
1, 10360, Note_on_c, 0, 75, 0
1, 10360, Note_on_c, 0, 80, 83
1, 10418, Control_c, 0, 64, 0
1, 10428, Note_on_c, 0, 80, 0
1, 10428, Note_on_c, 0, 72, 104
1, 10428, Note_on_c, 0, 66, 0
1, 10431, Note_on_c, 0, 63, 90
1, 10454, Control_c, 0, 64, 127
1, 10496, Note_on_c, 0, 72, 0
1, 10496, Note_on_c, 0, 80, 83
1, 10545, Control_c, 0, 64, 0
1, 10564, Note_on_c, 0, 80, 0
1, 10564, Note_on_c, 0, 75, 105
1, 10564, Note_on_c, 0, 63, 0
1, 10567, Note_on_c, 0, 66, 92
1, 10588, Control_c, 0, 64, 127
1, 10634, Note_on_c, 0, 75, 0
1, 10634, Note_on_c, 0, 80, 84
1, 10694, Control_c, 0, 64, 0
1, 10704, Note_on_c, 0, 80, 0
1, 10704, Note_on_c, 0, 73, 105
1, 10704, Note_on_c, 0, 66, 0
1, 10707, Note_on_c, 0, 64, 94
1, 10741, Control_c, 0, 64, 127
1, 10774, Note_on_c, 0, 73, 0
1, 10774, Note_on_c, 0, 80, 84
1, 10844, Note_on_c, 0, 80, 0
1, 10844, Note_on_c, 0, 78, 109
1, 10844, Note_on_c, 0, 64, 0
1, 10847, Note_on_c, 0, 69, 95
1, 10851, Control_c, 0, 64, 0
1, 10885, Control_c, 0, 64, 127
1, 10914, Note_on_c, 0, 78, 0
1, 10914, Note_on_c, 0, 80, 84
1, 10984, Note_on_c, 0, 80, 0
1, 10984, Note_on_c, 0, 76, 105
1, 10984, Note_on_c, 0, 69, 0
1, 10987, Note_on_c, 0, 68, 94
1, 10987, Control_c, 0, 64, 0
1, 11014, Control_c, 0, 64, 127
1, 11054, Note_on_c, 0, 76, 0
1, 11054, Note_on_c, 0, 80, 84
1, 11097, Control_c, 0, 64, 0
1, 11124, Note_on_c, 0, 80, 0
1, 11124, Note_on_c, 0, 75, 105
1, 11124, Note_on_c, 0, 68, 0
1, 11127, Note_on_c, 0, 66, 92
1, 11157, Control_c, 0, 64, 127
1, 11194, Note_on_c, 0, 75, 0
1, 11194, Note_on_c, 0, 80, 84
1, 11263, Note_on_c, 0, 80, 0
1, 11263, Note_on_c, 0, 73, 103
1, 11263, Note_on_c, 0, 66, 0
1, 11266, Control_c, 0, 64, 0
1, 11266, Note_on_c, 0, 64, 90
1, 11293, Control_c, 0, 64, 127
1, 11333, Note_on_c, 0, 73, 0
1, 11333, Note_on_c, 0, 80, 84
1, 11389, Control_c, 0, 64, 0
1, 11402, Note_on_c, 0, 80, 0
1, 11402, Note_on_c, 0, 72, 103
1, 11402, Note_on_c, 0, 64, 0
1, 11405, Note_on_c, 0, 63, 89
1, 11412, Control_c, 0, 64, 127
1, 11472, Note_on_c, 0, 72, 0
1, 11472, Note_on_c, 0, 80, 83
1, 11531, Control_c, 0, 64, 0
1, 11541, Note_on_c, 0, 80, 0
1, 11541, Note_on_c, 0, 69, 101
1, 11541, Note_on_c, 0, 63, 0
1, 11544, Note_on_c, 0, 61, 88
1, 11564, Control_c, 0, 64, 127
1, 11610, Note_on_c, 0, 69, 0
1, 11610, Note_on_c, 0, 79, 82
1, 11656, Control_c, 0, 64, 0
1, 11679, Note_on_c, 0, 79, 0
1, 11679, Note_on_c, 0, 68, 100
1, 11679, Note_on_c, 0, 61, 0
1, 11682, Note_on_c, 0, 56, 0
1, 11682, Note_on_c, 0, 60, 86
1, 11682, Note_on_c, 0, 56, 86
1, 11685, Control_c, 0, 64, 127
1, 11748, Note_on_c, 0, 68, 0
1, 11748, Note_on_c, 0, 80, 81
1, 11817, Note_on_c, 0, 80, 0
1, 11817, Note_on_c, 0, 68, 99
1, 11817, Note_on_c, 0, 60, 0
1, 11820, Note_on_c, 0, 60, 85
1, 11886, Note_on_c, 0, 68, 0
1, 11886, Note_on_c, 0, 80, 80
1, 11954, Note_on_c, 0, 80, 0
1, 11954, Note_on_c, 0, 68, 98
1, 11954, Note_on_c, 0, 60, 0
1, 11957, Note_on_c, 0, 60, 83
1, 12023, Note_on_c, 0, 68, 0
1, 12023, Note_on_c, 0, 80, 80
1, 12056, Control_c, 0, 64, 0
1, 12092, Note_on_c, 0, 80, 0
1, 12092, Note_on_c, 0, 70, 98
1, 12092, Note_on_c, 0, 60, 0
1, 12095, Note_on_c, 0, 61, 81
1, 12101, Control_c, 0, 64, 127
1, 12160, Note_on_c, 0, 70, 0
1, 12160, Note_on_c, 0, 80, 82
1, 12206, Control_c, 0, 64, 0
1, 12229, Note_on_c, 0, 80, 0
1, 12229, Note_on_c, 0, 72, 100
1, 12229, Note_on_c, 0, 61, 0
1, 12232, Note_on_c, 0, 63, 83
1, 12238, Control_c, 0, 64, 127
1, 12297, Note_on_c, 0, 72, 0
1, 12297, Note_on_c, 0, 80, 80
1, 12365, Note_on_c, 0, 80, 0
1, 12365, Note_on_c, 0, 73, 100
1, 12365, Note_on_c, 0, 63, 0
1, 12368, Note_on_c, 0, 64, 84
1, 12372, Control_c, 0, 64, 0
1, 12398, Control_c, 0, 64, 127
1, 12434, Note_on_c, 0, 73, 0
1, 12434, Note_on_c, 0, 80, 84
1, 12493, Control_c, 0, 64, 0
1, 12502, Note_on_c, 0, 80, 0
1, 12502, Note_on_c, 0, 75, 101
1, 12502, Note_on_c, 0, 64, 0
1, 12505, Note_on_c, 0, 66, 87
1, 12528, Control_c, 0, 64, 127
1, 12571, Note_on_c, 0, 75, 0
1, 12571, Note_on_c, 0, 80, 82
1, 12616, Control_c, 0, 64, 0
1, 12639, Note_on_c, 0, 80, 0
1, 12639, Note_on_c, 0, 72, 103
1, 12639, Note_on_c, 0, 66, 0
1, 12642, Note_on_c, 0, 63, 89
1, 12642, Control_c, 0, 64, 127
1, 12708, Note_on_c, 0, 72, 0
1, 12708, Note_on_c, 0, 80, 83
1, 12757, Control_c, 0, 64, 0
1, 12776, Note_on_c, 0, 80, 0
1, 12776, Note_on_c, 0, 75, 104
1, 12776, Note_on_c, 0, 63, 0
1, 12779, Note_on_c, 0, 66, 90
1, 12806, Control_c, 0, 64, 127
1, 12847, Note_on_c, 0, 75, 0
1, 12847, Note_on_c, 0, 80, 84
1, 12915, Control_c, 0, 64, 0
1, 12919, Note_on_c, 0, 80, 0
1, 12919, Note_on_c, 0, 73, 105
1, 12919, Note_on_c, 0, 66, 0
1, 12922, Note_on_c, 0, 64, 90
1, 12949, Control_c, 0, 64, 127
1, 12990, Note_on_c, 0, 73, 0
1, 12990, Note_on_c, 0, 80, 87
1, 13061, Note_on_c, 0, 80, 0
1, 13061, Note_on_c, 0, 78, 109
1, 13061, Note_on_c, 0, 64, 0
1, 13064, Note_on_c, 0, 69, 90
1, 13078, Control_c, 0, 64, 0
1, 13107, Control_c, 0, 64, 127
1, 13130, Note_on_c, 0, 78, 0
1, 13130, Note_on_c, 0, 80, 90
1, 13190, Control_c, 0, 64, 0
1, 13199, Note_on_c, 0, 80, 0
1, 13199, Note_on_c, 0, 76, 109
1, 13199, Note_on_c, 0, 69, 0
1, 13202, Note_on_c, 0, 68, 89
1, 13223, Control_c, 0, 64, 127
1, 13269, Note_on_c, 0, 76, 0
1, 13269, Note_on_c, 0, 80, 89
1, 13338, Note_on_c, 0, 80, 0
1, 13338, Note_on_c, 0, 75, 109
1, 13338, Note_on_c, 0, 68, 0
1, 13341, Note_on_c, 0, 66, 89
1, 13341, Control_c, 0, 64, 0
1, 13364, Control_c, 0, 64, 127
1, 13407, Note_on_c, 0, 75, 0
1, 13407, Note_on_c, 0, 80, 89
1, 13476, Note_on_c, 0, 80, 0
1, 13476, Note_on_c, 0, 73, 109
1, 13476, Note_on_c, 0, 66, 0
1, 13479, Note_on_c, 0, 64, 89
1, 13479, Control_c, 0, 64, 0
1, 13512, Control_c, 0, 64, 127
1, 13545, Note_on_c, 0, 73, 0
1, 13545, Note_on_c, 0, 80, 88
1, 13594, Control_c, 0, 64, 0
1, 13614, Note_on_c, 0, 80, 0
1, 13614, Note_on_c, 0, 72, 109
1, 13614, Note_on_c, 0, 64, 0
1, 13617, Note_on_c, 0, 63, 89
1, 13623, Control_c, 0, 64, 127
1, 13683, Note_on_c, 0, 72, 0
1, 13683, Note_on_c, 0, 80, 89
1, 13751, Note_on_c, 0, 80, 0
1, 13751, Note_on_c, 0, 69, 109
1, 13751, Note_on_c, 0, 63, 0
1, 13754, Control_c, 0, 64, 0
1, 13754, Note_on_c, 0, 61, 89
1, 13778, Control_c, 0, 64, 127
1, 13820, Note_on_c, 0, 69, 0
1, 13820, Note_on_c, 0, 79, 88
1, 13846, Control_c, 0, 64, 0
1, 13889, Note_on_c, 0, 79, 0
1, 13889, Note_on_c, 0, 68, 109
1, 13889, Note_on_c, 0, 61, 0
1, 13892, Note_on_c, 0, 56, 0
1, 13892, Control_c, 0, 64, 127
1, 13892, Note_on_c, 0, 56, 94
1, 13895, Note_on_c, 0, 60, 94
1, 13957, Note_on_c, 0, 68, 0
1, 13957, Note_on_c, 0, 80, 88
1, 13957, Note_on_c, 0, 60, 0
1, 13960, Note_on_c, 0, 56, 0
1, 13960, Control_c, 0, 64, 0
1, 14025, Note_on_c, 0, 80, 0
1, 14025, Note_on_c, 0, 69, 104
1, 14025, Note_on_c, 0, 61, 83
1, 14028, Note_on_c, 0, 56, 83
1, 14039, Control_c, 0, 64, 127
1, 14094, Note_on_c, 0, 69, 0
1, 14094, Note_on_c, 0, 79, 89
1, 14094, Note_on_c, 0, 56, 0
1, 14097, Note_on_c, 0, 61, 0
1, 14097, Control_c, 0, 64, 0
1, 14163, Note_on_c, 0, 79, 0
1, 14163, Note_on_c, 0, 68, 109
1, 14163, Note_on_c, 0, 56, 89
1, 14166, Note_on_c, 0, 60, 89
1, 14176, Control_c, 0, 64, 127
1, 14232, Note_on_c, 0, 68, 0
1, 14232, Note_on_c, 0, 80, 88
1, 14232, Note_on_c, 0, 60, 0
1, 14235, Note_on_c, 0, 56, 0
1, 14252, Control_c, 0, 64, 0
1, 14302, Note_on_c, 0, 80, 0
1, 14302, Note_on_c, 0, 69, 103
1, 14302, Note_on_c, 0, 61, 83
1, 14305, Note_on_c, 0, 56, 83
1, 14325, Control_c, 0, 64, 127
1, 14371, Note_on_c, 0, 69, 0
1, 14371, Note_on_c, 0, 79, 89
1, 14371, Note_on_c, 0, 56, 0
1, 14374, Note_on_c, 0, 61, 0
1, 14398, Control_c, 0, 64, 0
1, 14441, Note_on_c, 0, 79, 0
1, 14441, Note_on_c, 0, 68, 109
1, 14441, Note_on_c, 0, 56, 94
1, 14444, Note_on_c, 0, 60, 94
1, 14464, Control_c, 0, 64, 127
1, 14511, Note_on_c, 0, 68, 0
1, 14511, Note_on_c, 0, 80, 88
1, 14511, Note_on_c, 0, 60, 0
1, 14514, Note_on_c, 0, 56, 0
1, 14538, Control_c, 0, 64, 0
1, 14581, Note_on_c, 0, 80, 0
1, 14581, Note_on_c, 0, 69, 103
1, 14581, Note_on_c, 0, 56, 83
1, 14584, Note_on_c, 0, 61, 83
1, 14601, Control_c, 0, 64, 127
1, 14652, Note_on_c, 0, 69, 0
1, 14652, Note_on_c, 0, 79, 87
1, 14652, Note_on_c, 0, 61, 0
1, 14655, Note_on_c, 0, 56, 0
1, 14682, Control_c, 0, 64, 0
1, 14722, Note_on_c, 0, 79, 0
1, 14722, Note_on_c, 0, 68, 109
1, 14722, Note_on_c, 0, 56, 89
1, 14725, Note_on_c, 0, 60, 89
1, 14753, Control_c, 0, 64, 127
1, 14793, Note_on_c, 0, 68, 0
1, 14793, Note_on_c, 0, 80, 88
1, 14793, Note_on_c, 0, 60, 0
1, 14796, Note_on_c, 0, 56, 0
1, 14827, Control_c, 0, 64, 0
1, 14864, Note_on_c, 0, 80, 0
1, 14864, Note_on_c, 0, 69, 104
1, 14864, Note_on_c, 0, 61, 82
1, 14867, Note_on_c, 0, 56, 82
1, 14895, Control_c, 0, 64, 127
1, 14936, Note_on_c, 0, 69, 0
1, 14936, Note_on_c, 0, 79, 87
1, 14936, Note_on_c, 0, 56, 0
1, 14939, Note_on_c, 0, 61, 0
1, 14953, Control_c, 0, 64, 0
1, 15007, Note_on_c, 0, 79, 0
1, 15007, Note_on_c, 0, 68, 109
1, 15007, Note_on_c, 0, 80, 109
1, 15010, Note_on_c, 0, 56, 94
1, 15010, Note_on_c, 0, 60, 94
1, 15025, Control_c, 0, 64, 127
1, 15192, Note_on_c, 0, 80, 0
1, 15192, Note_on_c, 0, 68, 0
1, 15192, Note_on_c, 0, 60, 0
1, 15195, Note_on_c, 0, 56, 0
1, 15227, Control_c, 0, 64, 0
1, 15376, Note_on_c, 0, 56, 127
1, 15376, Note_on_c, 0, 32, 104
1, 15376, Note_on_c, 0, 44, 104
1, 15492, Control_c, 0, 64, 127
1, 16851, Control_c, 0, 64, 0
1, 16993, Note_on_c, 0, 56, 0
1, 16993, Note_on_c, 0, 44, 0
1, 16993, Note_on_c, 0, 32, 0
1, 16996, Note_on_c, 0, 37, 61
1, 17060, Note_on_c, 0, 44, 63
1, 17060, Note_on_c, 0, 37, 0
1, 17127, Note_on_c, 0, 49, 66
1, 17127, Note_on_c, 0, 44, 56
1, 17139, Note_on_c, 0, 44, 0
1, 17195, Note_on_c, 0, 52, 68
1, 17195, Note_on_c, 0, 44, 0
1, 17206, Note_on_c, 0, 49, 0
1, 17262, Note_on_c, 0, 56, 71
1, 17262, Note_on_c, 0, 37, 61
1, 17273, Note_on_c, 0, 52, 0
1, 17329, Note_on_c, 0, 49, 66
1, 17329, Note_on_c, 0, 37, 0
1, 17341, Note_on_c, 0, 56, 0
1, 17397, Note_on_c, 0, 52, 68
1, 17397, Note_on_c, 0, 44, 56
1, 17408, Note_on_c, 0, 49, 0
1, 17464, Note_on_c, 0, 56, 70
1, 17464, Note_on_c, 0, 44, 0
1, 17475, Note_on_c, 0, 52, 0
1, 17531, Note_on_c, 0, 61, 71
1, 17531, Note_on_c, 0, 37, 61
1, 17543, Note_on_c, 0, 56, 0
1, 17599, Note_on_c, 0, 52, 66
1, 17599, Note_on_c, 0, 37, 0
1, 17610, Note_on_c, 0, 61, 0
1, 17666, Note_on_c, 0, 56, 67
1, 17666, Note_on_c, 0, 44, 56
1, 17677, Note_on_c, 0, 52, 0
1, 17734, Note_on_c, 0, 61, 69
1, 17734, Note_on_c, 0, 44, 0
1, 17745, Note_on_c, 0, 56, 0
1, 17801, Note_on_c, 0, 64, 71
1, 17801, Note_on_c, 0, 37, 61
1, 17812, Note_on_c, 0, 61, 0
1, 17868, Note_on_c, 0, 56, 66
1, 17868, Note_on_c, 0, 37, 0
1, 17880, Note_on_c, 0, 64, 0
1, 17936, Note_on_c, 0, 61, 67
1, 17936, Note_on_c, 0, 44, 56
1, 17947, Note_on_c, 0, 56, 0
1, 18003, Note_on_c, 0, 64, 69
1, 18003, Note_on_c, 0, 44, 0
1, 18014, Note_on_c, 0, 61, 0
1, 18070, Note_on_c, 0, 68, 71
1, 18070, Note_on_c, 0, 37, 61
1, 18082, Note_on_c, 0, 64, 0
1, 18138, Note_on_c, 0, 61, 66
1, 18149, Note_on_c, 0, 68, 0
1, 18205, Note_on_c, 0, 64, 67
1, 18205, Note_on_c, 0, 37, 0
1, 18205, Note_on_c, 0, 44, 56
1, 18216, Note_on_c, 0, 61, 0
1, 18272, Note_on_c, 0, 68, 69
1, 18284, Note_on_c, 0, 64, 0
1, 18340, Note_on_c, 0, 73, 71
1, 18340, Note_on_c, 0, 44, 0
1, 18340, Note_on_c, 0, 37, 61
1, 18351, Note_on_c, 0, 68, 0
1, 18407, Note_on_c, 0, 64, 66
1, 18418, Note_on_c, 0, 73, 0
1, 18475, Note_on_c, 0, 68, 68
1, 18475, Note_on_c, 0, 37, 0
1, 18475, Note_on_c, 0, 44, 56
1, 18486, Note_on_c, 0, 64, 0
1, 18542, Note_on_c, 0, 73, 70
1, 18553, Note_on_c, 0, 68, 0
1, 18609, Note_on_c, 0, 76, 71
1, 18609, Note_on_c, 0, 44, 0
1, 18609, Note_on_c, 0, 37, 61
1, 18621, Note_on_c, 0, 73, 0
1, 18677, Note_on_c, 0, 76, 70
1, 18688, Note_on_c, 0, 76, 0
1, 18744, Note_on_c, 0, 80, 71
1, 18744, Note_on_c, 0, 37, 0
1, 18744, Note_on_c, 0, 44, 56
1, 18755, Note_on_c, 0, 76, 0
1, 18811, Note_on_c, 0, 85, 73
1, 18823, Note_on_c, 0, 80, 0
1, 18879, Note_on_c, 0, 76, 109
1, 18879, Note_on_c, 0, 88, 127
1, 18879, Control_c, 0, 64, 127
1, 18882, Note_on_c, 0, 44, 0
1, 18882, Note_on_c, 0, 37, 100
1, 18882, Note_on_c, 0, 49, 100
1, 18885, Control_c, 0, 64, 127
1, 18890, Note_on_c, 0, 85, 0
1, 18948, Note_on_c, 0, 88, 0
1, 18948, Note_on_c, 0, 76, 0
1, 19017, Note_on_c, 0, 76, 87
1, 19017, Note_on_c, 0, 88, 101
1, 19017, Note_on_c, 0, 49, 0
1, 19020, Note_on_c, 0, 37, 0
1, 19020, Note_on_c, 0, 44, 87
1, 19087, Note_on_c, 0, 88, 0
1, 19087, Note_on_c, 0, 76, 0
1, 19087, Note_on_c, 0, 44, 0
1, 19156, Control_c, 0, 64, 0
1, 19156, Note_on_c, 0, 34, 58
1, 19156, Control_c, 0, 64, 0
1, 19223, Note_on_c, 0, 52, 66
1, 19223, Note_on_c, 0, 34, 0
1, 19291, Note_on_c, 0, 55, 68
1, 19291, Note_on_c, 0, 49, 53
1, 19302, Note_on_c, 0, 52, 0
1, 19358, Note_on_c, 0, 61, 70
1, 19358, Note_on_c, 0, 49, 0
1, 19369, Note_on_c, 0, 55, 0
1, 19425, Note_on_c, 0, 64, 71
1, 19425, Note_on_c, 0, 46, 58
1, 19437, Note_on_c, 0, 61, 0
1, 19493, Note_on_c, 0, 54, 66
1, 19493, Note_on_c, 0, 46, 0
1, 19504, Note_on_c, 0, 64, 0
1, 19560, Note_on_c, 0, 61, 67
1, 19560, Note_on_c, 0, 49, 54
1, 19571, Note_on_c, 0, 54, 0
1, 19628, Note_on_c, 0, 64, 69
1, 19628, Note_on_c, 0, 49, 0
1, 19639, Note_on_c, 0, 61, 0
1, 19695, Note_on_c, 0, 67, 71
1, 19695, Note_on_c, 0, 46, 58
1, 19706, Note_on_c, 0, 64, 0
1, 19762, Note_on_c, 0, 61, 66
1, 19762, Note_on_c, 0, 46, 0
1, 19773, Note_on_c, 0, 67, 0
1, 19830, Note_on_c, 0, 64, 67
1, 19830, Note_on_c, 0, 49, 54
1, 19841, Note_on_c, 0, 61, 0
1, 19897, Note_on_c, 0, 66, 70
1, 19897, Note_on_c, 0, 49, 0
1, 19908, Note_on_c, 0, 64, 0
1, 19964, Note_on_c, 0, 73, 72
1, 19964, Note_on_c, 0, 46, 58
1, 19976, Note_on_c, 0, 66, 0
1, 20032, Note_on_c, 0, 64, 66
1, 20032, Note_on_c, 0, 46, 0
1, 20043, Note_on_c, 0, 73, 0
1, 20099, Note_on_c, 0, 66, 68
1, 20099, Note_on_c, 0, 49, 54
1, 20110, Note_on_c, 0, 64, 0
1, 20166, Note_on_c, 0, 73, 71
1, 20166, Note_on_c, 0, 49, 0
1, 20178, Note_on_c, 0, 66, 0
1, 20234, Note_on_c, 0, 76, 73
1, 20234, Note_on_c, 0, 46, 58
1, 20245, Note_on_c, 0, 73, 0
1, 20301, Note_on_c, 0, 67, 66
1, 20301, Note_on_c, 0, 46, 0
1, 20312, Note_on_c, 0, 76, 0
1, 20368, Note_on_c, 0, 73, 69
1, 20368, Note_on_c, 0, 49, 54
1, 20380, Note_on_c, 0, 67, 0
1, 20436, Note_on_c, 0, 76, 71
1, 20436, Note_on_c, 0, 49, 0
1, 20447, Note_on_c, 0, 73, 0
1, 20503, Note_on_c, 0, 79, 73
1, 20503, Note_on_c, 0, 46, 58
1, 20514, Note_on_c, 0, 76, 0
1, 20571, Note_on_c, 0, 73, 66
1, 20571, Note_on_c, 0, 46, 0
1, 20582, Note_on_c, 0, 79, 0
1, 20638, Note_on_c, 0, 76, 68
1, 20638, Note_on_c, 0, 49, 53
1, 20649, Note_on_c, 0, 73, 0
1, 20705, Note_on_c, 0, 78, 70
1, 20705, Note_on_c, 0, 49, 0
1, 20717, Note_on_c, 0, 76, 0
1, 20773, Note_on_c, 0, 85, 72
1, 20773, Note_on_c, 0, 46, 58
1, 20784, Note_on_c, 0, 78, 0
1, 20840, Note_on_c, 0, 76, 68
1, 20840, Note_on_c, 0, 46, 0
1, 20851, Note_on_c, 0, 85, 0
1, 20907, Note_on_c, 0, 78, 71
1, 20907, Note_on_c, 0, 49, 54
1, 20919, Note_on_c, 0, 76, 0
1, 20975, Note_on_c, 0, 85, 74
1, 20975, Note_on_c, 0, 49, 0
1, 20986, Note_on_c, 0, 78, 0
1, 21042, Note_on_c, 0, 76, 106
1, 21042, Control_c, 0, 64, 127
1, 21042, Note_on_c, 0, 88, 124
1, 21045, Note_on_c, 0, 46, 100
1, 21045, Control_c, 0, 64, 127
1, 21045, Note_on_c, 0, 34, 100
1, 21054, Note_on_c, 0, 85, 0
1, 21111, Note_on_c, 0, 88, 0
1, 21111, Note_on_c, 0, 76, 0
1, 21111, Note_on_c, 0, 34, 0
1, 21114, Note_on_c, 0, 46, 0
1, 21179, Note_on_c, 0, 76, 86
1, 21179, Note_on_c, 0, 88, 100
1, 21179, Note_on_c, 0, 49, 85
1, 21248, Note_on_c, 0, 88, 0
1, 21248, Note_on_c, 0, 76, 0
1, 21248, Note_on_c, 0, 49, 0
1, 21317, Control_c, 0, 64, 0
1, 21317, Control_c, 0, 64, 0
1, 21317, Note_on_c, 0, 31, 56
1, 21384, Note_on_c, 0, 51, 69
1, 21451, Note_on_c, 0, 58, 70
1, 21451, Note_on_c, 0, 31, 0
1, 21451, Note_on_c, 0, 51, 53
1, 21463, Note_on_c, 0, 51, 0
1, 21519, Note_on_c, 0, 61, 68
1, 21530, Note_on_c, 0, 58, 0
1, 21586, Note_on_c, 0, 63, 71
1, 21586, Note_on_c, 0, 51, 0
1, 21586, Note_on_c, 0, 43, 58
1, 21597, Note_on_c, 0, 61, 0
1, 21654, Note_on_c, 0, 58, 72
1, 21665, Note_on_c, 0, 63, 0
1, 21721, Note_on_c, 0, 61, 73
1, 21721, Note_on_c, 0, 43, 0
1, 21721, Note_on_c, 0, 51, 56
1, 21732, Note_on_c, 0, 58, 0
1, 21788, Note_on_c, 0, 63, 70
1, 21799, Note_on_c, 0, 61, 0
1, 21856, Note_on_c, 0, 70, 76
1, 21856, Note_on_c, 0, 51, 0
1, 21856, Note_on_c, 0, 43, 61
1, 21867, Note_on_c, 0, 63, 0
1, 21923, Note_on_c, 0, 61, 77
1, 21934, Note_on_c, 0, 70, 0
1, 21990, Note_on_c, 0, 63, 78
1, 21990, Note_on_c, 0, 43, 0
1, 21990, Note_on_c, 0, 51, 58
1, 22002, Note_on_c, 0, 61, 0
1, 22058, Note_on_c, 0, 70, 72
1, 22069, Note_on_c, 0, 63, 0
1, 22125, Note_on_c, 0, 73, 79
1, 22125, Note_on_c, 0, 51, 0
1, 22125, Note_on_c, 0, 43, 63
1, 22136, Note_on_c, 0, 70, 0
1, 22192, Note_on_c, 0, 63, 80
1, 22204, Note_on_c, 0, 73, 0
1, 22260, Note_on_c, 0, 70, 81
1, 22260, Note_on_c, 0, 43, 0
1, 22260, Note_on_c, 0, 51, 61
1, 22271, Note_on_c, 0, 63, 0
1, 22327, Note_on_c, 0, 73, 77
1, 22338, Note_on_c, 0, 70, 0
1, 22395, Note_on_c, 0, 75, 83
1, 22395, Note_on_c, 0, 51, 0
1, 22395, Note_on_c, 0, 43, 66
1, 22406, Note_on_c, 0, 73, 0
1, 22462, Note_on_c, 0, 70, 83
1, 22462, Note_on_c, 0, 43, 0
1, 22473, Note_on_c, 0, 75, 0
1, 22529, Note_on_c, 0, 73, 84
1, 22529, Note_on_c, 0, 51, 62
1, 22540, Note_on_c, 0, 70, 0
1, 22597, Note_on_c, 0, 75, 80
1, 22597, Note_on_c, 0, 51, 0
1, 22608, Note_on_c, 0, 73, 0
1, 22664, Note_on_c, 0, 82, 85
1, 22664, Note_on_c, 0, 43, 68
1, 22675, Note_on_c, 0, 75, 0
1, 22731, Note_on_c, 0, 73, 87
1, 22731, Note_on_c, 0, 43, 0
1, 22743, Note_on_c, 0, 82, 0
1, 22799, Note_on_c, 0, 75, 88
1, 22799, Note_on_c, 0, 51, 64
1, 22810, Note_on_c, 0, 73, 0
1, 22866, Note_on_c, 0, 82, 84
1, 22866, Note_on_c, 0, 51, 0
1, 22877, Note_on_c, 0, 75, 0
1, 22933, Note_on_c, 0, 85, 89
1, 22933, Note_on_c, 0, 43, 71
1, 22945, Note_on_c, 0, 82, 0
1, 23001, Note_on_c, 0, 82, 87
1, 23001, Note_on_c, 0, 43, 0
1, 23012, Note_on_c, 0, 85, 0
1, 23069, Note_on_c, 0, 75, 84
1, 23069, Note_on_c, 0, 51, 67
1, 23081, Note_on_c, 0, 82, 0
1, 23138, Note_on_c, 0, 73, 82
1, 23138, Note_on_c, 0, 51, 0
1, 23150, Note_on_c, 0, 75, 0
1, 23208, Note_on_c, 0, 82, 80
1, 23208, Note_on_c, 0, 43, 66
1, 23219, Note_on_c, 0, 73, 0
1, 23278, Note_on_c, 0, 75, 78
1, 23278, Note_on_c, 0, 43, 0
1, 23290, Note_on_c, 0, 82, 0
1, 23349, Note_on_c, 0, 73, 76
1, 23349, Note_on_c, 0, 51, 63
1, 23361, Note_on_c, 0, 75, 0
1, 23420, Note_on_c, 0, 70, 72
1, 23420, Note_on_c, 0, 51, 0
1, 23432, Note_on_c, 0, 73, 0
1, 23493, Note_on_c, 0, 71, 63
1, 23493, Note_on_c, 0, 44, 49
1, 23506, Note_on_c, 0, 70, 0
1, 23570, Note_on_c, 0, 51, 41
1, 23583, Note_on_c, 0, 44, 0
1, 23647, Note_on_c, 0, 71, 0
1, 23647, Note_on_c, 0, 47, 44
1, 23660, Note_on_c, 0, 51, 0
1, 23724, Note_on_c, 0, 51, 40
1, 23736, Note_on_c, 0, 47, 0
1, 23801, Note_on_c, 0, 75, 77
1, 23801, Note_on_c, 0, 44, 49
1, 23813, Note_on_c, 0, 51, 0
1, 23869, Note_on_c, 0, 51, 40
1, 23880, Note_on_c, 0, 44, 0
1, 23937, Note_on_c, 0, 47, 44
1, 23948, Note_on_c, 0, 51, 0
1, 24005, Note_on_c, 0, 51, 39
1, 24016, Note_on_c, 0, 47, 0
1, 24072, Note_on_c, 0, 44, 49
1, 24084, Note_on_c, 0, 51, 0
1, 24140, Note_on_c, 0, 51, 41
1, 24151, Note_on_c, 0, 44, 0
1, 24208, Note_on_c, 0, 47, 45
1, 24220, Note_on_c, 0, 51, 0
1, 24281, Note_on_c, 0, 51, 40
1, 24293, Note_on_c, 0, 47, 0
1, 24347, Control_c, 0, 64, 0
1, 24354, Note_on_c, 0, 71, 65
1, 24354, Note_on_c, 0, 44, 49
1, 24367, Note_on_c, 0, 75, 0
1, 24367, Note_on_c, 0, 51, 0
1, 24431, Note_on_c, 0, 51, 41
1, 24444, Note_on_c, 0, 44, 0
1, 24508, Note_on_c, 0, 47, 45
1, 24521, Note_on_c, 0, 51, 0
1, 24585, Note_on_c, 0, 68, 65
1, 24585, Note_on_c, 0, 51, 40
1, 24603, Note_on_c, 0, 71, 0
1, 24603, Note_on_c, 0, 47, 0
1, 24638, Note_on_c, 0, 68, 0
1, 24638, Note_on_c, 0, 67, 54
1, 24656, Note_on_c, 0, 67, 0
1, 24656, Note_on_c, 0, 68, 54
1, 24674, Note_on_c, 0, 68, 0
1, 24674, Note_on_c, 0, 70, 54
1, 24692, Note_on_c, 0, 70, 0
1, 24692, Note_on_c, 0, 68, 73
1, 24692, Note_on_c, 0, 46, 49
1, 24704, Note_on_c, 0, 51, 0
1, 24765, Note_on_c, 0, 51, 41
1, 24777, Note_on_c, 0, 46, 0
1, 24837, Note_on_c, 0, 49, 45
1, 24850, Note_on_c, 0, 51, 0
1, 24910, Note_on_c, 0, 51, 41
1, 24922, Note_on_c, 0, 49, 0
1, 24983, Note_on_c, 0, 67, 65
1, 24983, Note_on_c, 0, 46, 49
1, 24994, Note_on_c, 0, 68, 0
1, 24994, Note_on_c, 0, 51, 0
1, 25051, Note_on_c, 0, 51, 41
1, 25062, Note_on_c, 0, 46, 0
1, 25119, Note_on_c, 0, 49, 45
1, 25130, Note_on_c, 0, 51, 0
1, 25186, Note_on_c, 0, 51, 41
1, 25198, Note_on_c, 0, 49, 0
1, 25254, Note_on_c, 0, 46, 49
1, 25265, Note_on_c, 0, 51, 0
1, 25322, Note_on_c, 0, 51, 41
1, 25333, Note_on_c, 0, 46, 0
1, 25390, Note_on_c, 0, 67, 0
1, 25390, Note_on_c, 0, 67, 65
1, 25390, Note_on_c, 0, 49, 45
1, 25402, Note_on_c, 0, 51, 0
1, 25464, Note_on_c, 0, 51, 41
1, 25477, Note_on_c, 0, 49, 0
1, 25539, Note_on_c, 0, 75, 77
1, 25539, Note_on_c, 0, 46, 49
1, 25552, Note_on_c, 0, 67, 0
1, 25552, Note_on_c, 0, 51, 0
1, 25616, Note_on_c, 0, 51, 41
1, 25629, Note_on_c, 0, 46, 0
1, 25694, Note_on_c, 0, 49, 45
1, 25707, Note_on_c, 0, 51, 0
1, 25771, Note_on_c, 0, 75, 0
1, 25771, Note_on_c, 0, 67, 67
1, 25771, Note_on_c, 0, 51, 41
1, 25784, Note_on_c, 0, 49, 0
1, 25810, Note_on_c, 0, 67, 0
1, 25849, Note_on_c, 0, 70, 61
1, 25849, Note_on_c, 0, 47, 49
1, 25861, Note_on_c, 0, 51, 0
1, 25922, Note_on_c, 0, 51, 44
1, 25934, Note_on_c, 0, 47, 0
1, 25994, Note_on_c, 0, 47, 46
1, 26006, Note_on_c, 0, 51, 0
1, 26067, Note_on_c, 0, 51, 41
1, 26079, Note_on_c, 0, 47, 0
1, 26139, Note_on_c, 0, 68, 66
1, 26139, Note_on_c, 0, 47, 48
1, 26151, Note_on_c, 0, 70, 0
1, 26151, Note_on_c, 0, 51, 0
1, 26207, Note_on_c, 0, 51, 44
1, 26218, Note_on_c, 0, 47, 0
1, 26274, Note_on_c, 0, 47, 44
1, 26285, Note_on_c, 0, 51, 0
1, 26341, Note_on_c, 0, 51, 40
1, 26353, Note_on_c, 0, 47, 0
1, 26409, Note_on_c, 0, 47, 49
1, 26420, Note_on_c, 0, 51, 0
1, 26476, Note_on_c, 0, 51, 43
1, 26487, Note_on_c, 0, 47, 0
1, 26543, Note_on_c, 0, 68, 0
1, 26543, Note_on_c, 0, 68, 63
1, 26543, Note_on_c, 0, 47, 46
1, 26556, Note_on_c, 0, 51, 0
1, 26616, Note_on_c, 0, 51, 41
1, 26628, Note_on_c, 0, 47, 0
1, 26688, Note_on_c, 0, 75, 77
1, 26688, Note_on_c, 0, 47, 48
1, 26701, Note_on_c, 0, 68, 0
1, 26701, Note_on_c, 0, 51, 0
1, 26765, Note_on_c, 0, 51, 41
1, 26777, Note_on_c, 0, 47, 0
1, 26842, Note_on_c, 0, 47, 45
1, 26854, Note_on_c, 0, 51, 0
1, 26919, Note_on_c, 0, 68, 65
1, 26919, Note_on_c, 0, 51, 41
1, 26931, Note_on_c, 0, 47, 0
1, 26944, Note_on_c, 0, 75, 0
1, 26996, Note_on_c, 0, 71, 67
1, 26996, Note_on_c, 0, 43, 48
1, 27008, Note_on_c, 0, 68, 0
1, 27008, Note_on_c, 0, 51, 0
1, 27068, Note_on_c, 0, 51, 40
1, 27080, Note_on_c, 0, 43, 0
1, 27141, Note_on_c, 0, 43, 45
1, 27153, Note_on_c, 0, 51, 0
1, 27213, Note_on_c, 0, 51, 41
1, 27225, Note_on_c, 0, 43, 0
1, 27286, Note_on_c, 0, 70, 65
1, 27286, Note_on_c, 0, 43, 48
1, 27297, Note_on_c, 0, 71, 0
1, 27297, Note_on_c, 0, 51, 0
1, 27354, Note_on_c, 0, 51, 44
1, 27365, Note_on_c, 0, 43, 0
1, 27421, Note_on_c, 0, 43, 46
1, 27433, Note_on_c, 0, 51, 0
1, 27489, Note_on_c, 0, 51, 46
1, 27501, Note_on_c, 0, 43, 0
1, 27557, Note_on_c, 0, 43, 48
1, 27568, Note_on_c, 0, 51, 0
1, 27625, Note_on_c, 0, 51, 44
1, 27636, Note_on_c, 0, 43, 0
1, 27693, Note_on_c, 0, 70, 0
1, 27693, Note_on_c, 0, 70, 67
1, 27693, Note_on_c, 0, 43, 47
1, 27705, Note_on_c, 0, 51, 0
1, 27770, Note_on_c, 0, 51, 43
1, 27782, Note_on_c, 0, 43, 0
1, 27847, Note_on_c, 0, 75, 63
1, 27847, Note_on_c, 0, 43, 48
1, 27859, Note_on_c, 0, 70, 0
1, 27859, Note_on_c, 0, 51, 0
1, 27924, Note_on_c, 0, 51, 39
1, 27936, Note_on_c, 0, 43, 0
1, 28000, Note_on_c, 0, 43, 44
1, 28013, Note_on_c, 0, 51, 0
1, 28077, Note_on_c, 0, 75, 0
1, 28077, Note_on_c, 0, 70, 67
1, 28077, Note_on_c, 0, 51, 41
1, 28090, Note_on_c, 0, 43, 0
1, 28154, Note_on_c, 0, 71, 71
1, 28154, Note_on_c, 0, 44, 56
1, 28166, Note_on_c, 0, 70, 0
1, 28166, Note_on_c, 0, 51, 0
1, 28224, Note_on_c, 0, 71, 0
1, 28224, Note_on_c, 0, 51, 48
1, 28235, Note_on_c, 0, 44, 0
1, 28293, Note_on_c, 0, 87, 70
1, 28293, Note_on_c, 0, 75, 70
1, 28293, Note_on_c, 0, 47, 52
1, 28305, Note_on_c, 0, 51, 0
1, 28362, Note_on_c, 0, 51, 47
1, 28374, Note_on_c, 0, 47, 0
1, 28432, Note_on_c, 0, 44, 58
1, 28443, Note_on_c, 0, 51, 0
1, 28501, Note_on_c, 0, 51, 47
1, 28513, Note_on_c, 0, 44, 0
1, 28570, Note_on_c, 0, 75, 0
1, 28570, Note_on_c, 0, 87, 0
1, 28570, Note_on_c, 0, 87, 73
1, 28573, Note_on_c, 0, 75, 73
1, 28573, Note_on_c, 0, 47, 51
1, 28582, Note_on_c, 0, 51, 0
1, 28640, Note_on_c, 0, 51, 47
1, 28651, Note_on_c, 0, 47, 0
1, 28709, Note_on_c, 0, 44, 59
1, 28720, Note_on_c, 0, 51, 0
1, 28778, Note_on_c, 0, 51, 48
1, 28790, Note_on_c, 0, 44, 0
1, 28848, Note_on_c, 0, 75, 0
1, 28848, Note_on_c, 0, 87, 0
1, 28848, Note_on_c, 0, 75, 71
1, 28851, Note_on_c, 0, 87, 71
1, 28851, Note_on_c, 0, 47, 52
1, 28859, Note_on_c, 0, 51, 0
1, 28915, Note_on_c, 0, 87, 0
1, 28915, Note_on_c, 0, 75, 0
1, 28915, Note_on_c, 0, 51, 48
1, 28926, Note_on_c, 0, 47, 0
1, 28982, Note_on_c, 0, 71, 73
1, 28982, Note_on_c, 0, 83, 73
1, 28982, Note_on_c, 0, 44, 61
1, 28993, Note_on_c, 0, 51, 0
1, 29050, Note_on_c, 0, 83, 0
1, 29050, Note_on_c, 0, 71, 0
1, 29050, Note_on_c, 0, 51, 54
1, 29061, Note_on_c, 0, 44, 0
1, 29117, Note_on_c, 0, 80, 74
1, 29117, Note_on_c, 0, 68, 74
1, 29117, Note_on_c, 0, 47, 54
1, 29128, Note_on_c, 0, 51, 0
1, 29184, Note_on_c, 0, 68, 0
1, 29184, Note_on_c, 0, 80, 0
1, 29184, Note_on_c, 0, 51, 50
1, 29196, Note_on_c, 0, 47, 0
1, 29252, Note_on_c, 0, 80, 77
1, 29252, Note_on_c, 0, 68, 77
1, 29252, Note_on_c, 0, 46, 65
1, 29263, Note_on_c, 0, 51, 0
1, 29319, Note_on_c, 0, 68, 0
1, 29319, Note_on_c, 0, 80, 0
1, 29319, Note_on_c, 0, 51, 51
1, 29330, Note_on_c, 0, 46, 0
1, 29386, Note_on_c, 0, 79, 78
1, 29386, Note_on_c, 0, 67, 78
1, 29386, Note_on_c, 0, 49, 56
1, 29398, Note_on_c, 0, 51, 0
1, 29456, Note_on_c, 0, 51, 51
1, 29468, Note_on_c, 0, 49, 0
1, 29526, Note_on_c, 0, 46, 66
1, 29538, Note_on_c, 0, 51, 0
1, 29596, Note_on_c, 0, 51, 52
1, 29607, Note_on_c, 0, 46, 0
1, 29665, Note_on_c, 0, 67, 0
1, 29665, Note_on_c, 0, 79, 0
1, 29665, Note_on_c, 0, 79, 83
1, 29668, Note_on_c, 0, 67, 83
1, 29668, Note_on_c, 0, 49, 58
1, 29677, Note_on_c, 0, 51, 0
1, 29735, Note_on_c, 0, 51, 52
1, 29747, Note_on_c, 0, 49, 0
1, 29805, Note_on_c, 0, 46, 68
1, 29817, Note_on_c, 0, 51, 0
1, 29875, Note_on_c, 0, 51, 52
1, 29886, Note_on_c, 0, 46, 0
1, 29944, Note_on_c, 0, 67, 0
1, 29944, Note_on_c, 0, 79, 0
1, 29944, Note_on_c, 0, 67, 85
1, 29947, Note_on_c, 0, 79, 85
1, 29947, Note_on_c, 0, 49, 59
1, 29956, Note_on_c, 0, 51, 0
1, 30012, Note_on_c, 0, 79, 0
1, 30012, Note_on_c, 0, 67, 0
1, 30012, Note_on_c, 0, 51, 54
1, 30023, Note_on_c, 0, 49, 0
1, 30079, Note_on_c, 0, 87, 87
1, 30079, Note_on_c, 0, 75, 87
1, 30079, Note_on_c, 0, 46, 69
1, 30090, Note_on_c, 0, 51, 0
1, 30147, Note_on_c, 0, 75, 0
1, 30147, Note_on_c, 0, 87, 0
1, 30147, Note_on_c, 0, 51, 58
1, 30158, Note_on_c, 0, 46, 0
1, 30214, Note_on_c, 0, 67, 89
1, 30214, Note_on_c, 0, 79, 89
1, 30214, Note_on_c, 0, 49, 63
1, 30225, Note_on_c, 0, 51, 0
1, 30281, Note_on_c, 0, 79, 0
1, 30281, Note_on_c, 0, 67, 0
1, 30281, Note_on_c, 0, 51, 59
1, 30293, Note_on_c, 0, 49, 0
1, 30349, Note_on_c, 0, 70, 91
1, 30349, Note_on_c, 0, 82, 91
1, 30349, Note_on_c, 0, 47, 71
1, 30360, Note_on_c, 0, 51, 0
1, 30416, Note_on_c, 0, 82, 0
1, 30416, Note_on_c, 0, 70, 0
1, 30416, Note_on_c, 0, 51, 62
1, 30427, Note_on_c, 0, 47, 0
1, 30483, Note_on_c, 0, 68, 92
1, 30483, Note_on_c, 0, 80, 92
1, 30483, Note_on_c, 0, 47, 66
1, 30495, Note_on_c, 0, 51, 0
1, 30553, Note_on_c, 0, 51, 61
1, 30565, Note_on_c, 0, 47, 0
1, 30623, Note_on_c, 0, 47, 72
1, 30635, Note_on_c, 0, 51, 0
1, 30693, Note_on_c, 0, 51, 62
1, 30704, Note_on_c, 0, 47, 0
1, 30762, Note_on_c, 0, 80, 0
1, 30762, Note_on_c, 0, 68, 0
1, 30762, Note_on_c, 0, 68, 96
1, 30765, Note_on_c, 0, 80, 96
1, 30765, Note_on_c, 0, 47, 67
1, 30774, Note_on_c, 0, 51, 0
1, 30832, Note_on_c, 0, 51, 67
1, 30844, Note_on_c, 0, 47, 0
1, 30902, Note_on_c, 0, 47, 77
1, 30914, Note_on_c, 0, 51, 0
1, 30972, Note_on_c, 0, 51, 66
1, 30983, Note_on_c, 0, 47, 0
1, 31041, Note_on_c, 0, 80, 0
1, 31041, Note_on_c, 0, 68, 0
1, 31041, Note_on_c, 0, 68, 99
1, 31044, Note_on_c, 0, 80, 99
1, 31044, Note_on_c, 0, 47, 69
1, 31053, Note_on_c, 0, 51, 0
1, 31109, Note_on_c, 0, 80, 0
1, 31109, Note_on_c, 0, 68, 0
1, 31109, Note_on_c, 0, 51, 63
1, 31121, Note_on_c, 0, 47, 0
1, 31177, Note_on_c, 0, 75, 102
1, 31177, Note_on_c, 0, 87, 102
1, 31177, Note_on_c, 0, 47, 78
1, 31189, Note_on_c, 0, 51, 0
1, 31245, Note_on_c, 0, 87, 0
1, 31245, Note_on_c, 0, 75, 0
1, 31245, Note_on_c, 0, 51, 68
1, 31257, Note_on_c, 0, 47, 0
1, 31313, Note_on_c, 0, 80, 103
1, 31313, Note_on_c, 0, 68, 103
1, 31313, Note_on_c, 0, 47, 71
1, 31325, Note_on_c, 0, 51, 0
1, 31381, Note_on_c, 0, 68, 0
1, 31381, Note_on_c, 0, 80, 0
1, 31381, Note_on_c, 0, 51, 66
1, 31393, Note_on_c, 0, 47, 0
1, 31449, Note_on_c, 0, 71, 104
1, 31449, Note_on_c, 0, 83, 104
1, 31449, Note_on_c, 0, 43, 80
1, 31461, Note_on_c, 0, 51, 0
1, 31517, Note_on_c, 0, 83, 0
1, 31517, Note_on_c, 0, 71, 0
1, 31517, Note_on_c, 0, 51, 73
1, 31529, Note_on_c, 0, 43, 0
1, 31585, Note_on_c, 0, 82, 106
1, 31585, Note_on_c, 0, 70, 106
1, 31585, Note_on_c, 0, 43, 77
1, 31597, Note_on_c, 0, 51, 0
1, 31655, Note_on_c, 0, 51, 77
1, 31666, Note_on_c, 0, 43, 0
1, 31724, Note_on_c, 0, 43, 81
1, 31735, Note_on_c, 0, 51, 0
1, 31793, Note_on_c, 0, 51, 72
1, 31804, Note_on_c, 0, 43, 0
1, 31862, Note_on_c, 0, 70, 0
1, 31862, Note_on_c, 0, 82, 0
1, 31862, Note_on_c, 0, 70, 110
1, 31865, Note_on_c, 0, 82, 110
1, 31865, Note_on_c, 0, 43, 78
1, 31873, Note_on_c, 0, 51, 0
1, 31931, Note_on_c, 0, 51, 72
1, 31942, Note_on_c, 0, 43, 0
1, 32000, Note_on_c, 0, 43, 84
1, 32011, Note_on_c, 0, 51, 0
1, 32069, Note_on_c, 0, 51, 73
1, 32081, Note_on_c, 0, 43, 0
1, 32138, Note_on_c, 0, 82, 0
1, 32138, Note_on_c, 0, 70, 0
1, 32138, Note_on_c, 0, 82, 110
1, 32141, Note_on_c, 0, 70, 110
1, 32141, Note_on_c, 0, 43, 80
1, 32150, Note_on_c, 0, 51, 0
1, 32207, Note_on_c, 0, 70, 0
1, 32207, Note_on_c, 0, 82, 0
1, 32207, Note_on_c, 0, 51, 73
1, 32219, Note_on_c, 0, 43, 0
1, 32276, Note_on_c, 0, 87, 110
1, 32276, Note_on_c, 0, 75, 110
1, 32276, Note_on_c, 0, 43, 84
1, 32288, Note_on_c, 0, 51, 0
1, 32345, Note_on_c, 0, 75, 0
1, 32345, Note_on_c, 0, 87, 0
1, 32345, Note_on_c, 0, 51, 74
1, 32357, Note_on_c, 0, 43, 0
1, 32414, Note_on_c, 0, 82, 110
1, 32414, Note_on_c, 0, 70, 110
1, 32414, Note_on_c, 0, 43, 81
1, 32426, Note_on_c, 0, 51, 0
1, 32484, Note_on_c, 0, 70, 0
1, 32484, Note_on_c, 0, 82, 0
1, 32484, Note_on_c, 0, 51, 74
1, 32495, Note_on_c, 0, 43, 0
1, 32553, Note_on_c, 0, 72, 113
1, 32553, Note_on_c, 0, 84, 113
1, 32553, Note_on_c, 0, 42, 88
1, 32564, Note_on_c, 0, 51, 0
1, 32620, Note_on_c, 0, 51, 74
1, 32631, Note_on_c, 0, 42, 0
1, 32687, Note_on_c, 0, 44, 82
1, 32699, Note_on_c, 0, 51, 0
1, 32755, Note_on_c, 0, 51, 74
1, 32766, Note_on_c, 0, 44, 0
1, 32822, Note_on_c, 0, 42, 88
1, 32833, Note_on_c, 0, 51, 0
1, 32889, Note_on_c, 0, 51, 76
1, 32901, Note_on_c, 0, 42, 0
1, 32957, Note_on_c, 0, 44, 82
1, 32968, Note_on_c, 0, 51, 0
1, 33024, Note_on_c, 0, 51, 76
1, 33035, Note_on_c, 0, 44, 0
1, 33092, Note_on_c, 0, 84, 0
1, 33092, Note_on_c, 0, 72, 0
1, 33092, Note_on_c, 0, 85, 113
1, 33095, Note_on_c, 0, 73, 113
1, 33095, Note_on_c, 0, 40, 88
1, 33103, Note_on_c, 0, 51, 0
1, 33159, Note_on_c, 0, 49, 76
1, 33170, Note_on_c, 0, 40, 0
1, 33226, Note_on_c, 0, 44, 83
1, 33237, Note_on_c, 0, 49, 0
1, 33294, Note_on_c, 0, 49, 76
1, 33305, Note_on_c, 0, 44, 0
1, 33361, Note_on_c, 0, 40, 88
1, 33372, Note_on_c, 0, 49, 0
1, 33428, Note_on_c, 0, 49, 77
1, 33440, Note_on_c, 0, 40, 0
1, 33496, Note_on_c, 0, 44, 82
1, 33507, Note_on_c, 0, 49, 0
1, 33563, Note_on_c, 0, 49, 77
1, 33574, Note_on_c, 0, 44, 0
1, 33630, Note_on_c, 0, 73, 0
1, 33630, Note_on_c, 0, 85, 0
1, 33630, Note_on_c, 0, 82, 96
1, 33633, Note_on_c, 0, 70, 96
1, 33633, Note_on_c, 0, 40, 88
1, 33642, Note_on_c, 0, 49, 0
1, 33647, Control_c, 0, 64, 127
1, 33674, Note_on_c, 0, 82, 0
1, 33674, Note_on_c, 0, 83, 92
1, 33700, Note_on_c, 0, 49, 77
1, 33712, Note_on_c, 0, 40, 0
1, 33718, Note_on_c, 0, 83, 0
1, 33718, Note_on_c, 0, 82, 96
1, 33762, Note_on_c, 0, 82, 0
1, 33762, Note_on_c, 0, 83, 96
1, 33770, Note_on_c, 0, 42, 82
1, 33782, Note_on_c, 0, 49, 0
1, 33805, Note_on_c, 0, 83, 0
1, 33805, Note_on_c, 0, 80, 96
1, 33840, Note_on_c, 0, 49, 77
1, 33852, Note_on_c, 0, 42, 0
1, 33858, Note_on_c, 0, 80, 0
1, 33858, Note_on_c, 0, 82, 92
1, 33910, Note_on_c, 0, 82, 0
1, 33910, Note_on_c, 0, 70, 0
1, 33910, Note_on_c, 0, 71, 113
1, 33913, Note_on_c, 0, 83, 113
1, 33913, Note_on_c, 0, 39, 88
1, 33922, Note_on_c, 0, 49, 0
1, 33929, Control_c, 0, 64, 0
1, 33978, Note_on_c, 0, 47, 78
1, 33989, Note_on_c, 0, 39, 0
1, 34045, Note_on_c, 0, 42, 83
1, 34056, Note_on_c, 0, 47, 0
1, 34112, Note_on_c, 0, 47, 78
1, 34124, Note_on_c, 0, 42, 0
1, 34180, Note_on_c, 0, 39, 88
1, 34191, Note_on_c, 0, 47, 0
1, 34247, Note_on_c, 0, 47, 77
1, 34258, Note_on_c, 0, 39, 0
1, 34315, Note_on_c, 0, 42, 82
1, 34326, Note_on_c, 0, 47, 0
1, 34382, Note_on_c, 0, 47, 76
1, 34393, Note_on_c, 0, 42, 0
1, 34449, Note_on_c, 0, 39, 88
1, 34460, Note_on_c, 0, 47, 0
1, 34517, Note_on_c, 0, 47, 76
1, 34528, Note_on_c, 0, 39, 0
1, 34584, Note_on_c, 0, 42, 81
1, 34595, Note_on_c, 0, 47, 0
1, 34651, Note_on_c, 0, 47, 76
1, 34663, Note_on_c, 0, 42, 0
1, 34719, Note_on_c, 0, 83, 0
1, 34719, Note_on_c, 0, 71, 0
1, 34719, Note_on_c, 0, 80, 113
1, 34722, Note_on_c, 0, 68, 113
1, 34722, Note_on_c, 0, 38, 88
1, 34730, Note_on_c, 0, 47, 0
1, 34787, Note_on_c, 0, 47, 79
1, 34799, Note_on_c, 0, 38, 0
1, 34856, Note_on_c, 0, 40, 84
1, 34867, Note_on_c, 0, 47, 0
1, 34925, Note_on_c, 0, 47, 79
1, 34936, Note_on_c, 0, 40, 0
1, 34993, Note_on_c, 0, 38, 88
1, 35005, Note_on_c, 0, 47, 0
1, 35062, Note_on_c, 0, 47, 79
1, 35073, Note_on_c, 0, 38, 0
1, 35131, Note_on_c, 0, 40, 84
1, 35142, Note_on_c, 0, 47, 0
1, 35199, Note_on_c, 0, 47, 78
1, 35211, Note_on_c, 0, 40, 0
1, 35268, Note_on_c, 0, 68, 0
1, 35268, Note_on_c, 0, 80, 0
1, 35268, Note_on_c, 0, 69, 112
1, 35271, Note_on_c, 0, 81, 112
1, 35271, Note_on_c, 0, 37, 88
1, 35279, Note_on_c, 0, 47, 0
1, 35336, Note_on_c, 0, 45, 78
1, 35347, Note_on_c, 0, 37, 0
1, 35404, Note_on_c, 0, 40, 83
1, 35416, Note_on_c, 0, 45, 0
1, 35473, Note_on_c, 0, 45, 77
1, 35484, Note_on_c, 0, 40, 0
1, 35541, Note_on_c, 0, 37, 88
1, 35552, Note_on_c, 0, 45, 0
1, 35609, Note_on_c, 0, 45, 78
1, 35620, Note_on_c, 0, 37, 0
1, 35677, Note_on_c, 0, 40, 83
1, 35689, Note_on_c, 0, 45, 0
1, 35745, Note_on_c, 0, 45, 78
1, 35757, Note_on_c, 0, 40, 0
1, 35814, Note_on_c, 0, 81, 0
1, 35814, Note_on_c, 0, 69, 0
1, 35814, Note_on_c, 0, 67, 98
1, 35817, Note_on_c, 0, 79, 98
1, 35817, Note_on_c, 0, 37, 88
1, 35825, Note_on_c, 0, 45, 0
1, 35825, Control_c, 0, 64, 127
1, 35857, Note_on_c, 0, 79, 0
1, 35857, Note_on_c, 0, 80, 93
1, 35883, Note_on_c, 0, 79, 98
1, 35883, Note_on_c, 0, 46, 77
1, 35894, Note_on_c, 0, 37, 0
1, 35900, Note_on_c, 0, 80, 0
1, 35926, Note_on_c, 0, 79, 0
1, 35944, Note_on_c, 0, 80, 93
1, 35952, Note_on_c, 0, 39, 81
1, 35964, Note_on_c, 0, 46, 0
1, 35987, Note_on_c, 0, 80, 0
1, 35987, Note_on_c, 0, 77, 98
1, 36022, Note_on_c, 0, 46, 77
1, 36033, Note_on_c, 0, 39, 0
1, 36039, Note_on_c, 0, 77, 0
1, 36039, Note_on_c, 0, 78, 98
1, 36091, Note_on_c, 0, 78, 0
1, 36091, Note_on_c, 0, 67, 0
1, 36091, Note_on_c, 0, 68, 113
1, 36094, Note_on_c, 0, 80, 113
1, 36094, Note_on_c, 0, 35, 88
1, 36102, Note_on_c, 0, 46, 0
1, 36102, Control_c, 0, 64, 0
1, 36158, Note_on_c, 0, 44, 78
1, 36169, Note_on_c, 0, 35, 0
1, 36226, Note_on_c, 0, 39, 82
1, 36237, Note_on_c, 0, 44, 0
1, 36293, Note_on_c, 0, 44, 78
1, 36304, Note_on_c, 0, 39, 0
1, 36360, Note_on_c, 0, 35, 88
1, 36372, Note_on_c, 0, 44, 0
1, 36428, Note_on_c, 0, 44, 77
1, 36439, Note_on_c, 0, 35, 0
1, 36495, Note_on_c, 0, 39, 82
1, 36506, Note_on_c, 0, 44, 0
1, 36562, Note_on_c, 0, 44, 78
1, 36574, Note_on_c, 0, 39, 0
1, 36630, Note_on_c, 0, 35, 88
1, 36641, Note_on_c, 0, 44, 0
1, 36697, Note_on_c, 0, 44, 77
1, 36708, Note_on_c, 0, 35, 0
1, 36764, Note_on_c, 0, 37, 82
1, 36776, Note_on_c, 0, 44, 0
1, 36832, Note_on_c, 0, 44, 79
1, 36843, Note_on_c, 0, 37, 0
1, 36899, Note_on_c, 0, 80, 0
1, 36899, Note_on_c, 0, 68, 0
1, 36899, Note_on_c, 0, 76, 113
1, 36902, Note_on_c, 0, 69, 113
1, 36902, Note_on_c, 0, 73, 113
1, 36902, Note_on_c, 0, 81, 113
1, 36905, Note_on_c, 0, 45, 88
1, 36905, Note_on_c, 0, 40, 88
1, 36905, Note_on_c, 0, 49, 88
1, 36908, Note_on_c, 0, 37, 88
1, 36908, Note_on_c, 0, 44, 0
1, 37505, Note_on_c, 0, 81, 0
1, 37505, Note_on_c, 0, 76, 0
1, 37505, Note_on_c, 0, 69, 0
1, 37508, Note_on_c, 0, 73, 0
1, 37508, Note_on_c, 0, 76, 66
1, 37573, Note_on_c, 0, 76, 0
1, 37573, Note_on_c, 0, 78, 66
1, 37640, Note_on_c, 0, 78, 0
1, 37640, Note_on_c, 0, 80, 67
1, 37708, Note_on_c, 0, 80, 0
1, 37708, Note_on_c, 0, 81, 68
1, 37708, Note_on_c, 0, 49, 0
1, 37711, Note_on_c, 0, 45, 0
1, 37711, Note_on_c, 0, 40, 0
1, 37711, Note_on_c, 0, 37, 0
1, 37775, Note_on_c, 0, 81, 0
1, 37775, Note_on_c, 0, 83, 69
1, 37842, Note_on_c, 0, 83, 0
1, 37842, Note_on_c, 0, 85, 70
1, 37910, Note_on_c, 0, 85, 0
1, 37910, Note_on_c, 0, 83, 70
1, 37977, Note_on_c, 0, 83, 0
1, 37977, Note_on_c, 0, 81, 68
1, 37977, Note_on_c, 0, 64, 69
1, 37980, Note_on_c, 0, 61, 69
1, 37980, Note_on_c, 0, 69, 69
1, 38044, Note_on_c, 0, 81, 0
1, 38044, Note_on_c, 0, 76, 66
1, 38112, Note_on_c, 0, 76, 0
1, 38112, Note_on_c, 0, 78, 66
1, 38179, Note_on_c, 0, 78, 0
1, 38179, Note_on_c, 0, 80, 66
1, 38244, Note_on_c, 0, 69, 0
1, 38244, Note_on_c, 0, 80, 0
1, 38244, Note_on_c, 0, 81, 67
1, 38244, Note_on_c, 0, 61, 0
1, 38244, Note_on_c, 0, 64, 0
1, 38314, Note_on_c, 0, 81, 0
1, 38314, Note_on_c, 0, 83, 68
1, 38381, Note_on_c, 0, 83, 0
1, 38381, Note_on_c, 0, 85, 69
1, 38449, Note_on_c, 0, 85, 0
1, 38449, Note_on_c, 0, 83, 67
1, 38516, Note_on_c, 0, 83, 0
1, 38516, Note_on_c, 0, 81, 67
1, 38516, Note_on_c, 0, 64, 68
1, 38519, Note_on_c, 0, 61, 68
1, 38519, Note_on_c, 0, 69, 68
1, 38583, Note_on_c, 0, 81, 0
1, 38583, Note_on_c, 0, 76, 66
1, 38651, Note_on_c, 0, 76, 0
1, 38651, Note_on_c, 0, 78, 67
1, 38718, Note_on_c, 0, 78, 0
1, 38718, Note_on_c, 0, 80, 68
1, 38785, Note_on_c, 0, 80, 0
1, 38785, Note_on_c, 0, 81, 69
1, 38785, Note_on_c, 0, 69, 0
1, 38788, Note_on_c, 0, 61, 0
1, 38788, Note_on_c, 0, 64, 0
1, 38853, Note_on_c, 0, 81, 0
1, 38853, Note_on_c, 0, 83, 70
1, 38920, Note_on_c, 0, 83, 0
1, 38920, Note_on_c, 0, 85, 71
1, 38987, Note_on_c, 0, 85, 0
1, 38987, Note_on_c, 0, 83, 68
1, 39055, Note_on_c, 0, 83, 0
1, 39055, Note_on_c, 0, 81, 66
1, 39055, Note_on_c, 0, 64, 68
1, 39058, Note_on_c, 0, 61, 68
1, 39058, Note_on_c, 0, 69, 68
1, 39122, Note_on_c, 0, 81, 0
1, 39122, Note_on_c, 0, 76, 67
1, 39190, Note_on_c, 0, 76, 0
1, 39190, Note_on_c, 0, 78, 70
1, 39257, Note_on_c, 0, 78, 0
1, 39257, Note_on_c, 0, 80, 71
1, 39324, Note_on_c, 0, 80, 0
1, 39324, Note_on_c, 0, 81, 74
1, 39324, Note_on_c, 0, 69, 0
1, 39327, Note_on_c, 0, 61, 0
1, 39327, Note_on_c, 0, 64, 0
1, 39327, Note_on_c, 0, 64, 72
1, 39330, Note_on_c, 0, 61, 72
1, 39330, Note_on_c, 0, 69, 72
1, 39392, Note_on_c, 0, 81, 0
1, 39392, Note_on_c, 0, 83, 77
1, 39459, Note_on_c, 0, 83, 0
1, 39459, Note_on_c, 0, 85, 78
1, 39526, Note_on_c, 0, 85, 0
1, 39526, Note_on_c, 0, 86, 81
1, 39594, Note_on_c, 0, 86, 0
1, 39594, Note_on_c, 0, 88, 82
1, 39594, Note_on_c, 0, 69, 0
1, 39597, Note_on_c, 0, 61, 0
1, 39597, Note_on_c, 0, 64, 0
1, 39597, Note_on_c, 0, 69, 81
1, 39600, Note_on_c, 0, 64, 81
1, 39600, Note_on_c, 0, 61, 81
1, 39661, Note_on_c, 0, 88, 0
1, 39661, Note_on_c, 0, 87, 80
1, 39728, Note_on_c, 0, 87, 0
1, 39728, Note_on_c, 0, 88, 78
1, 39796, Note_on_c, 0, 88, 0
1, 39796, Note_on_c, 0, 87, 77
1, 39863, Note_on_c, 0, 87, 0
1, 39863, Note_on_c, 0, 88, 74
1, 39863, Note_on_c, 0, 61, 0
1, 39866, Note_on_c, 0, 64, 0
1, 39866, Note_on_c, 0, 69, 0
1, 39866, Note_on_c, 0, 69, 76
1, 39869, Note_on_c, 0, 64, 76
1, 39869, Note_on_c, 0, 61, 76
1, 39930, Note_on_c, 0, 88, 0
1, 39930, Note_on_c, 0, 85, 72
1, 39998, Note_on_c, 0, 85, 0
1, 39998, Note_on_c, 0, 83, 71
1, 40065, Note_on_c, 0, 83, 0
1, 40065, Note_on_c, 0, 81, 69
1, 40133, Note_on_c, 0, 81, 0
1, 40133, Note_on_c, 0, 80, 67
1, 40133, Note_on_c, 0, 61, 0
1, 40136, Note_on_c, 0, 64, 0
1, 40136, Note_on_c, 0, 69, 0
1, 40136, Note_on_c, 0, 63, 68
1, 40200, Note_on_c, 0, 71, 62
1, 40211, Note_on_c, 0, 63, 0
1, 40267, Note_on_c, 0, 68, 66
1, 40279, Note_on_c, 0, 71, 0
1, 40335, Note_on_c, 0, 71, 62
1, 40346, Note_on_c, 0, 68, 0
1, 40402, Note_on_c, 0, 63, 70
1, 40413, Note_on_c, 0, 71, 0
1, 40469, Note_on_c, 0, 71, 61
1, 40481, Note_on_c, 0, 63, 0
1, 40537, Note_on_c, 0, 68, 66
1, 40548, Note_on_c, 0, 71, 0
1, 40604, Note_on_c, 0, 71, 61
1, 40615, Note_on_c, 0, 68, 0
1, 40671, Note_on_c, 0, 80, 0
1, 40671, Note_on_c, 0, 82, 69
1, 40671, Note_on_c, 0, 63, 70
1, 40679, Control_c, 0, 64, 127
1, 40683, Note_on_c, 0, 71, 0
1, 40717, Note_on_c, 0, 82, 0
1, 40717, Note_on_c, 0, 83, 69
1, 40740, Note_on_c, 0, 73, 63
1, 40751, Note_on_c, 0, 63, 0
1, 40762, Note_on_c, 0, 83, 0
1, 40762, Note_on_c, 0, 82, 69
1, 40805, Note_on_c, 0, 82, 0
1, 40805, Note_on_c, 0, 83, 69
1, 40808, Note_on_c, 0, 67, 66
1, 40819, Note_on_c, 0, 73, 0
1, 40848, Note_on_c, 0, 83, 0
1, 40848, Note_on_c, 0, 82, 69
1, 40876, Note_on_c, 0, 73, 61
1, 40887, Note_on_c, 0, 67, 0
1, 40890, Note_on_c, 0, 82, 0
1, 40890, Note_on_c, 0, 83, 69
1, 40933, Note_on_c, 0, 83, 0
1, 40933, Note_on_c, 0, 82, 67
1, 40944, Note_on_c, 0, 63, 70
1, 40956, Note_on_c, 0, 73, 0
1, 40973, Note_on_c, 0, 82, 0
1, 40973, Note_on_c, 0, 83, 67
1, 41013, Note_on_c, 0, 83, 0
1, 41013, Note_on_c, 0, 82, 68
1, 41013, Note_on_c, 0, 73, 61
1, 41024, Note_on_c, 0, 63, 0
1, 41047, Note_on_c, 0, 82, 0
1, 41047, Note_on_c, 0, 83, 69
1, 41081, Note_on_c, 0, 83, 0
1, 41081, Note_on_c, 0, 82, 70
1, 41081, Note_on_c, 0, 67, 66
1, 41092, Note_on_c, 0, 73, 0
1, 41115, Note_on_c, 0, 82, 0
1, 41115, Note_on_c, 0, 83, 71
1, 41149, Note_on_c, 0, 83, 0
1, 41149, Note_on_c, 0, 82, 71
1, 41149, Note_on_c, 0, 73, 61
1, 41160, Note_on_c, 0, 67, 0
1, 41183, Note_on_c, 0, 82, 0
1, 41183, Note_on_c, 0, 83, 72
1, 41217, Note_on_c, 0, 83, 0
1, 41217, Note_on_c, 0, 80, 77
1, 41217, Note_on_c, 0, 68, 77
1, 41220, Note_on_c, 0, 64, 77
1, 41220, Note_on_c, 0, 71, 77
1, 41227, Control_c, 0, 64, 0
1, 41231, Note_on_c, 0, 73, 0
1, 41379, Note_on_c, 0, 80, 0
1, 41379, Note_on_c, 0, 68, 0
1, 41379, Note_on_c, 0, 64, 0
1, 41382, Note_on_c, 0, 71, 0
1, 41541, Note_on_c, 0, 69, 100
1, 41541, Note_on_c, 0, 64, 100
1, 41541, Note_on_c, 0, 57, 100
1, 41544, Note_on_c, 0, 61, 100
1, 41544, Note_on_c, 0, 40, 100
1, 41544, Note_on_c, 0, 45, 100
1, 41547, Note_on_c, 0, 49, 100
1, 41547, Note_on_c, 0, 37, 100
1, 41878, Note_on_c, 0, 61, 0
1, 41878, Note_on_c, 0, 69, 0
1, 41878, Note_on_c, 0, 64, 0
1, 41881, Note_on_c, 0, 57, 0
1, 41881, Note_on_c, 0, 64, 69
1, 41946, Note_on_c, 0, 64, 0
1, 41946, Note_on_c, 0, 66, 69
1, 42013, Note_on_c, 0, 66, 0
1, 42013, Note_on_c, 0, 68, 69
1, 42080, Note_on_c, 0, 68, 0
1, 42080, Note_on_c, 0, 69, 67
1, 42080, Note_on_c, 0, 37, 0
1, 42083, Note_on_c, 0, 40, 0
1, 42083, Note_on_c, 0, 45, 0
1, 42083, Note_on_c, 0, 49, 0
1, 42148, Note_on_c, 0, 69, 0
1, 42148, Note_on_c, 0, 71, 66
1, 42215, Note_on_c, 0, 71, 0
1, 42215, Note_on_c, 0, 73, 68
1, 42282, Note_on_c, 0, 73, 0
1, 42282, Note_on_c, 0, 71, 67
1, 42350, Note_on_c, 0, 71, 0
1, 42350, Note_on_c, 0, 69, 66
1, 42417, Note_on_c, 0, 69, 0
1, 42417, Note_on_c, 0, 64, 66
1, 42484, Note_on_c, 0, 64, 0
1, 42484, Note_on_c, 0, 66, 67
1, 42552, Note_on_c, 0, 66, 0
1, 42552, Note_on_c, 0, 68, 68
1, 42619, Note_on_c, 0, 68, 0
1, 42619, Note_on_c, 0, 69, 70
1, 42619, Note_on_c, 0, 52, 68
1, 42622, Note_on_c, 0, 49, 68
1, 42622, Note_on_c, 0, 57, 68
1, 42686, Note_on_c, 0, 69, 0
1, 42686, Note_on_c, 0, 71, 71
1, 42754, Note_on_c, 0, 71, 0
1, 42754, Note_on_c, 0, 73, 68
1, 42821, Note_on_c, 0, 73, 0
1, 42821, Note_on_c, 0, 71, 67
1, 42889, Note_on_c, 0, 71, 0
1, 42889, Note_on_c, 0, 69, 67
1, 42889, Note_on_c, 0, 57, 0
1, 42892, Note_on_c, 0, 49, 0
1, 42892, Note_on_c, 0, 52, 0
1, 42956, Note_on_c, 0, 69, 0
1, 42956, Note_on_c, 0, 64, 67
1, 43023, Note_on_c, 0, 64, 0
1, 43023, Note_on_c, 0, 66, 67
1, 43091, Note_on_c, 0, 66, 0
1, 43091, Note_on_c, 0, 68, 69
1, 43158, Note_on_c, 0, 68, 0
1, 43158, Note_on_c, 0, 69, 69
1, 43158, Note_on_c, 0, 52, 68
1, 43161, Note_on_c, 0, 49, 68
1, 43161, Note_on_c, 0, 57, 68
1, 43225, Note_on_c, 0, 69, 0
1, 43225, Note_on_c, 0, 71, 69
1, 43293, Note_on_c, 0, 71, 0
1, 43293, Note_on_c, 0, 73, 69
1, 43360, Note_on_c, 0, 73, 0
1, 43360, Note_on_c, 0, 71, 69
1, 43427, Note_on_c, 0, 71, 0
1, 43427, Note_on_c, 0, 69, 68
1, 43427, Note_on_c, 0, 57, 0
1, 43430, Note_on_c, 0, 49, 0
1, 43430, Note_on_c, 0, 52, 0
1, 43495, Note_on_c, 0, 69, 0
1, 43495, Note_on_c, 0, 64, 69
1, 43562, Note_on_c, 0, 64, 0
1, 43562, Note_on_c, 0, 66, 70
1, 43562, Note_on_c, 0, 57, 70
1, 43565, Note_on_c, 0, 49, 70
1, 43565, Note_on_c, 0, 52, 70
1, 43630, Note_on_c, 0, 66, 0
1, 43630, Note_on_c, 0, 68, 71
1, 43697, Note_on_c, 0, 68, 0
1, 43697, Note_on_c, 0, 69, 72
1, 43697, Note_on_c, 0, 52, 0
1, 43700, Note_on_c, 0, 49, 0
1, 43700, Note_on_c, 0, 57, 0
1, 43764, Note_on_c, 0, 69, 0
1, 43764, Note_on_c, 0, 71, 73
1, 43832, Note_on_c, 0, 71, 0
1, 43832, Note_on_c, 0, 73, 76
1, 43832, Note_on_c, 0, 57, 82
1, 43835, Note_on_c, 0, 49, 82
1, 43835, Note_on_c, 0, 52, 82
1, 43899, Note_on_c, 0, 73, 0
1, 43899, Note_on_c, 0, 71, 77
1, 43966, Note_on_c, 0, 71, 0
1, 43966, Note_on_c, 0, 69, 78
1, 43966, Note_on_c, 0, 52, 0
1, 43969, Note_on_c, 0, 49, 0
1, 43969, Note_on_c, 0, 57, 0
1, 44034, Note_on_c, 0, 69, 0
1, 44034, Note_on_c, 0, 64, 79
1, 44101, Note_on_c, 0, 64, 0
1, 44101, Note_on_c, 0, 66, 80
1, 44101, Note_on_c, 0, 57, 90
1, 44104, Note_on_c, 0, 52, 90
1, 44104, Note_on_c, 0, 49, 90
1, 44168, Note_on_c, 0, 66, 0
1, 44168, Note_on_c, 0, 68, 81
1, 44236, Note_on_c, 0, 68, 0
1, 44236, Note_on_c, 0, 69, 83
1, 44236, Note_on_c, 0, 49, 0
1, 44239, Note_on_c, 0, 52, 0
1, 44239, Note_on_c, 0, 57, 0
1, 44303, Note_on_c, 0, 69, 0
1, 44303, Note_on_c, 0, 71, 84
1, 44371, Note_on_c, 0, 71, 0
1, 44371, Note_on_c, 0, 73, 84
1, 44371, Note_on_c, 0, 57, 90
1, 44374, Note_on_c, 0, 52, 90
1, 44374, Note_on_c, 0, 49, 90
1, 44438, Note_on_c, 0, 73, 0
1, 44438, Note_on_c, 0, 71, 85
1, 44505, Note_on_c, 0, 71, 0
1, 44505, Note_on_c, 0, 69, 88
1, 44505, Note_on_c, 0, 49, 0
1, 44508, Note_on_c, 0, 52, 0
1, 44508, Note_on_c, 0, 57, 0
1, 44508, Note_on_c, 0, 52, 89
1, 44511, Note_on_c, 0, 57, 89
1, 44511, Note_on_c, 0, 49, 89
1, 44573, Note_on_c, 0, 69, 0
1, 44573, Note_on_c, 0, 64, 89
1, 44640, Note_on_c, 0, 64, 0
1, 44640, Note_on_c, 0, 66, 90
1, 44707, Note_on_c, 0, 66, 0
1, 44707, Note_on_c, 0, 68, 90
1, 44775, Note_on_c, 0, 68, 0
1, 44775, Note_on_c, 0, 69, 93
1, 44775, Note_on_c, 0, 49, 0
1, 44778, Note_on_c, 0, 57, 0
1, 44778, Note_on_c, 0, 52, 0
1, 44842, Note_on_c, 0, 69, 0
1, 44842, Note_on_c, 0, 71, 94
1, 44909, Note_on_c, 0, 71, 0
1, 44909, Note_on_c, 0, 73, 95
1, 44977, Note_on_c, 0, 73, 0
1, 44977, Note_on_c, 0, 74, 96
1, 45044, Note_on_c, 0, 74, 0
1, 45044, Note_on_c, 0, 76, 98
1, 45112, Note_on_c, 0, 76, 0
1, 45112, Note_on_c, 0, 78, 99
1, 45179, Note_on_c, 0, 78, 0
1, 45179, Note_on_c, 0, 80, 100
1, 45246, Note_on_c, 0, 80, 0
1, 45246, Note_on_c, 0, 81, 101
1, 45314, Note_on_c, 0, 81, 0
1, 45314, Note_on_c, 0, 83, 103
1, 45381, Note_on_c, 0, 83, 0
1, 45381, Note_on_c, 0, 85, 103
1, 45448, Note_on_c, 0, 85, 0
1, 45448, Note_on_c, 0, 86, 104
1, 45516, Note_on_c, 0, 86, 0
1, 45516, Note_on_c, 0, 87, 105
1, 45583, Note_on_c, 0, 87, 0
1, 45583, Note_on_c, 0, 76, 109
1, 45583, Note_on_c, 0, 88, 109
1, 45586, Note_on_c, 0, 49, 93
1, 45650, Note_on_c, 0, 57, 82
1, 45662, Note_on_c, 0, 49, 0
1, 45718, Note_on_c, 0, 52, 88
1, 45729, Note_on_c, 0, 57, 0
1, 45785, Note_on_c, 0, 57, 84
1, 45796, Note_on_c, 0, 52, 0
1, 45853, Note_on_c, 0, 49, 93
1, 45864, Note_on_c, 0, 57, 0
1, 45920, Note_on_c, 0, 57, 82
1, 45931, Note_on_c, 0, 49, 0
1, 45987, Note_on_c, 0, 52, 87
1, 45998, Note_on_c, 0, 57, 0
1, 46055, Note_on_c, 0, 57, 82
1, 46066, Note_on_c, 0, 52, 0
1, 46122, Note_on_c, 0, 88, 0
1, 46122, Note_on_c, 0, 76, 0
1, 46122, Note_on_c, 0, 68, 109
1, 46125, Note_on_c, 0, 80, 109
1, 46125, Note_on_c, 0, 50, 93
1, 46133, Note_on_c, 0, 57, 0
1, 46189, Note_on_c, 0, 59, 82
1, 46201, Note_on_c, 0, 50, 0
1, 46257, Note_on_c, 0, 53, 88
1, 46268, Note_on_c, 0, 59, 0
1, 46324, Note_on_c, 0, 59, 83
1, 46335, Note_on_c, 0, 53, 0
1, 46391, Note_on_c, 0, 50, 93
1, 46403, Note_on_c, 0, 59, 0
1, 46459, Note_on_c, 0, 59, 82
1, 46470, Note_on_c, 0, 50, 0
1, 46526, Note_on_c, 0, 53, 85
1, 46537, Note_on_c, 0, 59, 0
1, 46594, Note_on_c, 0, 59, 82
1, 46605, Note_on_c, 0, 53, 0
1, 46661, Note_on_c, 0, 80, 0
1, 46661, Note_on_c, 0, 68, 0
1, 46661, Note_on_c, 0, 83, 109
1, 46664, Note_on_c, 0, 71, 109
1, 46664, Note_on_c, 0, 51, 93
1, 46672, Note_on_c, 0, 59, 0
1, 46728, Note_on_c, 0, 59, 82
1, 46739, Note_on_c, 0, 51, 0
1, 46796, Note_on_c, 0, 56, 88
1, 46807, Note_on_c, 0, 59, 0
1, 46863, Note_on_c, 0, 59, 88
1, 46874, Note_on_c, 0, 56, 0
1, 46930, Note_on_c, 0, 51, 93
1, 46942, Note_on_c, 0, 59, 0
1, 46998, Note_on_c, 0, 59, 83
1, 47009, Note_on_c, 0, 51, 0
1, 47065, Note_on_c, 0, 56, 88
1, 47076, Note_on_c, 0, 59, 0
1, 47132, Note_on_c, 0, 59, 84
1, 47144, Note_on_c, 0, 56, 0
1, 47200, Note_on_c, 0, 71, 0
1, 47200, Note_on_c, 0, 83, 0
1, 47200, Note_on_c, 0, 67, 109
1, 47203, Note_on_c, 0, 55, 94
1, 47203, Note_on_c, 0, 61, 94
1, 47203, Note_on_c, 0, 39, 93
1, 47211, Note_on_c, 0, 59, 0
1, 47268, Note_on_c, 0, 51, 84
1, 47279, Note_on_c, 0, 39, 0
1, 47336, Note_on_c, 0, 50, 89
1, 47348, Note_on_c, 0, 51, 0
1, 47404, Note_on_c, 0, 51, 83
1, 47416, Note_on_c, 0, 50, 0
1, 47473, Note_on_c, 0, 39, 93
1, 47484, Note_on_c, 0, 51, 0
1, 47541, Note_on_c, 0, 51, 83
1, 47552, Note_on_c, 0, 39, 0
1, 47609, Note_on_c, 0, 50, 89
1, 47620, Note_on_c, 0, 51, 0
1, 47677, Note_on_c, 0, 51, 82
1, 47689, Note_on_c, 0, 50, 0
1, 47745, Note_on_c, 0, 61, 0
1, 47745, Note_on_c, 0, 55, 0
1, 47745, Note_on_c, 0, 67, 0
1, 47748, Note_on_c, 0, 63, 109
1, 47748, Note_on_c, 0, 68, 109
1, 47748, Note_on_c, 0, 59, 109
1, 47751, Note_on_c, 0, 51, 0
1, 47751, Note_on_c, 0, 44, 94
1, 47880, Note_on_c, 0, 59, 0
1, 47880, Note_on_c, 0, 68, 0
1, 47880, Note_on_c, 0, 63, 0
1, 47883, Note_on_c, 0, 63, 70
1, 47883, Note_on_c, 0, 71, 70
1, 47883, Note_on_c, 0, 44, 0
1, 47950, Note_on_c, 0, 71, 0
1, 47950, Note_on_c, 0, 63, 0
1, 48019, Note_on_c, 0, 63, 70
1, 48019, Note_on_c, 0, 71, 70
1, 48019, Note_on_c, 0, 56, 61
1, 48089, Note_on_c, 0, 71, 0
1, 48089, Note_on_c, 0, 63, 0
1, 48089, Note_on_c, 0, 56, 0
1, 48158, Note_on_c, 0, 63, 70
1, 48158, Note_on_c, 0, 71, 70
1, 48158, Note_on_c, 0, 56, 61
1, 48228, Note_on_c, 0, 71, 0
1, 48228, Note_on_c, 0, 63, 0
1, 48228, Note_on_c, 0, 56, 0
1, 48297, Note_on_c, 0, 63, 70
1, 48297, Note_on_c, 0, 71, 70
1, 48297, Note_on_c, 0, 56, 61
1, 48367, Note_on_c, 0, 71, 0
1, 48367, Note_on_c, 0, 63, 0
1, 48367, Note_on_c, 0, 56, 0
1, 48436, Note_on_c, 0, 71, 70
1, 48436, Note_on_c, 0, 63, 70
1, 48436, Note_on_c, 0, 56, 61
1, 48505, Note_on_c, 0, 63, 0
1, 48505, Note_on_c, 0, 71, 0
1, 48505, Note_on_c, 0, 56, 0
1, 48575, Note_on_c, 0, 70, 68
1, 48575, Note_on_c, 0, 63, 68
1, 48575, Note_on_c, 0, 58, 60
1, 48644, Note_on_c, 0, 63, 0
1, 48644, Note_on_c, 0, 70, 0
1, 48644, Note_on_c, 0, 58, 0
1, 48713, Note_on_c, 0, 68, 67
1, 48713, Note_on_c, 0, 63, 67
1, 48713, Note_on_c, 0, 59, 60
1, 48782, Note_on_c, 0, 63, 0
1, 48782, Note_on_c, 0, 68, 0
1, 48782, Note_on_c, 0, 59, 0
1, 48851, Note_on_c, 0, 63, 80
1, 48851, Note_on_c, 0, 67, 80
1, 48851, Note_on_c, 0, 49, 66
1, 48854, Note_on_c, 0, 61, 66
1, 48989, Note_on_c, 0, 67, 0
1, 48989, Note_on_c, 0, 63, 0
1, 48989, Note_on_c, 0, 75, 68
1, 48992, Note_on_c, 0, 67, 68
1, 48992, Note_on_c, 0, 61, 0
1, 48992, Note_on_c, 0, 49, 0
1, 48995, Note_on_c, 0, 63, 60
1, 48995, Note_on_c, 0, 61, 60
1, 49125, Note_on_c, 0, 67, 0
1, 49125, Note_on_c, 0, 75, 0
1, 49125, Note_on_c, 0, 67, 68
1, 49128, Note_on_c, 0, 75, 68
1, 49128, Note_on_c, 0, 61, 0
1, 49128, Note_on_c, 0, 63, 0
1, 49131, Note_on_c, 0, 61, 59
1, 49131, Note_on_c, 0, 63, 59
1, 49261, Note_on_c, 0, 75, 0
1, 49261, Note_on_c, 0, 67, 0
1, 49261, Note_on_c, 0, 67, 69
1, 49264, Note_on_c, 0, 75, 69
1, 49264, Note_on_c, 0, 63, 0
1, 49264, Note_on_c, 0, 61, 0
1, 49267, Note_on_c, 0, 61, 59
1, 49267, Note_on_c, 0, 63, 59
1, 49397, Note_on_c, 0, 75, 0
1, 49397, Note_on_c, 0, 67, 0
1, 49397, Note_on_c, 0, 75, 70
1, 49400, Note_on_c, 0, 67, 70
1, 49400, Note_on_c, 0, 63, 0
1, 49400, Note_on_c, 0, 61, 0
1, 49403, Note_on_c, 0, 63, 59
1, 49403, Note_on_c, 0, 61, 59
1, 49533, Note_on_c, 0, 67, 0
1, 49533, Note_on_c, 0, 75, 0
1, 49533, Note_on_c, 0, 75, 70
1, 49536, Note_on_c, 0, 67, 70
1, 49536, Note_on_c, 0, 61, 0
1, 49536, Note_on_c, 0, 63, 0
1, 49539, Note_on_c, 0, 61, 59
1, 49539, Note_on_c, 0, 63, 59
1, 49669, Note_on_c, 0, 67, 0
1, 49669, Note_on_c, 0, 75, 0
1, 49669, Note_on_c, 0, 75, 71
1, 49672, Note_on_c, 0, 68, 71
1, 49672, Note_on_c, 0, 63, 0
1, 49672, Note_on_c, 0, 61, 0
1, 49675, Note_on_c, 0, 63, 59
1, 49675, Note_on_c, 0, 59, 59
1, 49805, Note_on_c, 0, 68, 0
1, 49805, Note_on_c, 0, 75, 0
1, 49805, Note_on_c, 0, 70, 69
1, 49808, Note_on_c, 0, 75, 69
1, 49808, Note_on_c, 0, 59, 0
1, 49808, Note_on_c, 0, 63, 0
1, 49811, Note_on_c, 0, 58, 58
1, 49811, Note_on_c, 0, 63, 58
1, 49941, Note_on_c, 0, 75, 0
1, 49941, Note_on_c, 0, 70, 0
1, 49941, Note_on_c, 0, 71, 79
1, 49944, Note_on_c, 0, 75, 79
1, 49944, Note_on_c, 0, 63, 0
1, 49944, Note_on_c, 0, 58, 0
1, 49947, Note_on_c, 0, 56, 66
1, 49947, Note_on_c, 0, 44, 66
1, 50077, Note_on_c, 0, 75, 0
1, 50077, Note_on_c, 0, 71, 0
1, 50077, Note_on_c, 0, 71, 69
1, 50080, Note_on_c, 0, 63, 69
1, 50080, Note_on_c, 0, 44, 0
1, 50080, Note_on_c, 0, 56, 0
1, 50083, Note_on_c, 0, 56, 60
1, 50216, Note_on_c, 0, 63, 0
1, 50216, Note_on_c, 0, 71, 0
1, 50216, Note_on_c, 0, 63, 69
1, 50219, Note_on_c, 0, 71, 69
1, 50219, Note_on_c, 0, 56, 0
1, 50219, Note_on_c, 0, 56, 60
1, 50356, Note_on_c, 0, 71, 0
1, 50356, Note_on_c, 0, 63, 0
1, 50356, Note_on_c, 0, 63, 69
1, 50359, Note_on_c, 0, 71, 69
1, 50359, Note_on_c, 0, 56, 0
1, 50359, Note_on_c, 0, 56, 60
1, 50495, Note_on_c, 0, 71, 0
1, 50495, Note_on_c, 0, 63, 0
1, 50495, Note_on_c, 0, 63, 69
1, 50498, Note_on_c, 0, 71, 69
1, 50498, Note_on_c, 0, 56, 0
1, 50498, Note_on_c, 0, 56, 61
1, 50634, Note_on_c, 0, 71, 0
1, 50634, Note_on_c, 0, 63, 0
1, 50634, Note_on_c, 0, 71, 69
1, 50637, Note_on_c, 0, 63, 69
1, 50637, Note_on_c, 0, 56, 0
1, 50637, Note_on_c, 0, 56, 60
1, 50773, Note_on_c, 0, 63, 0
1, 50773, Note_on_c, 0, 71, 0
1, 50773, Note_on_c, 0, 63, 69
1, 50776, Note_on_c, 0, 70, 69
1, 50776, Note_on_c, 0, 56, 0
1, 50776, Note_on_c, 0, 58, 61
1, 50911, Note_on_c, 0, 70, 0
1, 50911, Note_on_c, 0, 63, 0
1, 50911, Note_on_c, 0, 63, 67
1, 50914, Note_on_c, 0, 68, 67
1, 50914, Note_on_c, 0, 58, 0
1, 50914, Note_on_c, 0, 59, 61
1, 51049, Note_on_c, 0, 68, 0
1, 51049, Note_on_c, 0, 63, 0
1, 51049, Note_on_c, 0, 67, 79
1, 51052, Note_on_c, 0, 63, 79
1, 51052, Note_on_c, 0, 59, 0
1, 51052, Note_on_c, 0, 61, 66
1, 51055, Note_on_c, 0, 51, 66
1, 51187, Note_on_c, 0, 63, 0
1, 51187, Note_on_c, 0, 67, 0
1, 51187, Note_on_c, 0, 67, 68
1, 51190, Note_on_c, 0, 75, 68
1, 51190, Note_on_c, 0, 51, 0
1, 51190, Note_on_c, 0, 61, 0
1, 51193, Note_on_c, 0, 61, 59
1, 51193, Note_on_c, 0, 63, 59
1, 51323, Note_on_c, 0, 75, 0
1, 51323, Note_on_c, 0, 67, 0
1, 51323, Note_on_c, 0, 67, 68
1, 51326, Note_on_c, 0, 75, 68
1, 51326, Note_on_c, 0, 63, 0
1, 51326, Note_on_c, 0, 61, 0
1, 51329, Note_on_c, 0, 61, 61
1, 51329, Note_on_c, 0, 63, 61
1, 51459, Note_on_c, 0, 75, 0
1, 51459, Note_on_c, 0, 67, 0
1, 51459, Note_on_c, 0, 75, 70
1, 51462, Note_on_c, 0, 67, 70
1, 51462, Note_on_c, 0, 63, 0
1, 51462, Note_on_c, 0, 61, 0
1, 51465, Note_on_c, 0, 63, 60
1, 51465, Note_on_c, 0, 61, 60
1, 51595, Note_on_c, 0, 67, 0
1, 51595, Note_on_c, 0, 75, 0
1, 51595, Note_on_c, 0, 67, 68
1, 51598, Note_on_c, 0, 75, 68
1, 51598, Note_on_c, 0, 61, 0
1, 51598, Note_on_c, 0, 63, 0
1, 51601, Note_on_c, 0, 61, 60
1, 51601, Note_on_c, 0, 63, 60
1, 51731, Note_on_c, 0, 75, 0
1, 51731, Note_on_c, 0, 67, 0
1, 51731, Note_on_c, 0, 75, 68
1, 51734, Note_on_c, 0, 67, 68
1, 51734, Note_on_c, 0, 63, 0
1, 51734, Note_on_c, 0, 61, 0
1, 51737, Note_on_c, 0, 63, 60
1, 51737, Note_on_c, 0, 61, 60
1, 51867, Note_on_c, 0, 67, 0
1, 51867, Note_on_c, 0, 75, 0
1, 51867, Note_on_c, 0, 68, 69
1, 51870, Note_on_c, 0, 75, 69
1, 51870, Note_on_c, 0, 61, 0
1, 51870, Note_on_c, 0, 63, 0
1, 51873, Note_on_c, 0, 59, 60
1, 51873, Note_on_c, 0, 63, 60
1, 52003, Note_on_c, 0, 75, 0
1, 52003, Note_on_c, 0, 68, 0
1, 52003, Note_on_c, 0, 70, 71
1, 52006, Note_on_c, 0, 75, 71
1, 52006, Note_on_c, 0, 63, 0
1, 52006, Note_on_c, 0, 59, 0
1, 52009, Note_on_c, 0, 63, 60
1, 52009, Note_on_c, 0, 58, 60
1, 52139, Note_on_c, 0, 75, 0
1, 52139, Note_on_c, 0, 70, 0
1, 52139, Note_on_c, 0, 75, 76
1, 52142, Note_on_c, 0, 71, 76
1, 52142, Note_on_c, 0, 58, 0
1, 52142, Note_on_c, 0, 63, 0
1, 52145, Note_on_c, 0, 44, 67
1, 52209, Note_on_c, 0, 71, 0
1, 52209, Note_on_c, 0, 75, 0
1, 52209, Note_on_c, 0, 44, 0
1, 52279, Note_on_c, 0, 75, 69
1, 52279, Note_on_c, 0, 71, 69
1, 52279, Note_on_c, 0, 59, 57
1, 52282, Note_on_c, 0, 56, 57
1, 52346, Note_on_c, 0, 71, 0
1, 52346, Note_on_c, 0, 75, 0
1, 52346, Note_on_c, 0, 56, 0
1, 52349, Note_on_c, 0, 59, 0
1, 52414, Note_on_c, 0, 75, 69
1, 52414, Note_on_c, 0, 71, 69
1, 52414, Note_on_c, 0, 56, 57
1, 52417, Note_on_c, 0, 59, 57
1, 52422, Control_c, 0, 64, 127
1, 52549, Note_on_c, 0, 71, 0
1, 52549, Note_on_c, 0, 75, 0
1, 52549, Note_on_c, 0, 68, 66
1, 52552, Note_on_c, 0, 71, 66
1, 52552, Note_on_c, 0, 59, 0
1, 52552, Note_on_c, 0, 56, 0
1, 52555, Note_on_c, 0, 63, 56
1, 52555, Note_on_c, 0, 59, 56
1, 52624, Control_c, 0, 64, 0
1, 52683, Note_on_c, 0, 71, 0
1, 52683, Note_on_c, 0, 68, 0
1, 52683, Note_on_c, 0, 59, 0
1, 52686, Note_on_c, 0, 63, 0
1, 52686, Note_on_c, 0, 49, 66
1, 52752, Note_on_c, 0, 49, 0
1, 52821, Note_on_c, 0, 76, 69
1, 52821, Note_on_c, 0, 73, 69
1, 52821, Note_on_c, 0, 61, 61
1, 52824, Note_on_c, 0, 56, 61
1, 52888, Note_on_c, 0, 73, 0
1, 52888, Note_on_c, 0, 76, 0
1, 52888, Note_on_c, 0, 56, 0
1, 52891, Note_on_c, 0, 61, 0
1, 52955, Note_on_c, 0, 73, 69
1, 52955, Note_on_c, 0, 76, 69
1, 52955, Note_on_c, 0, 61, 61
1, 52958, Note_on_c, 0, 56, 61
1, 52979, Control_c, 0, 64, 127
1, 53090, Note_on_c, 0, 76, 0
1, 53090, Note_on_c, 0, 73, 0
1, 53090, Note_on_c, 0, 68, 67
1, 53093, Note_on_c, 0, 73, 67
1, 53093, Note_on_c, 0, 56, 0
1, 53093, Note_on_c, 0, 61, 0
1, 53096, Note_on_c, 0, 64, 58
1, 53096, Note_on_c, 0, 61, 58
1, 53197, Control_c, 0, 64, 0
1, 53225, Note_on_c, 0, 73, 0
1, 53225, Note_on_c, 0, 68, 0
1, 53225, Note_on_c, 0, 61, 0
1, 53228, Note_on_c, 0, 64, 0
1, 53228, Note_on_c, 0, 51, 66
1, 53295, Note_on_c, 0, 51, 0
1, 53365, Note_on_c, 0, 75, 66
1, 53365, Note_on_c, 0, 71, 66
1, 53365, Note_on_c, 0, 56, 59
1, 53368, Note_on_c, 0, 59, 59
1, 53432, Note_on_c, 0, 71, 0
1, 53432, Note_on_c, 0, 75, 0
1, 53432, Note_on_c, 0, 59, 0
1, 53435, Note_on_c, 0, 56, 0
1, 53499, Note_on_c, 0, 75, 66
1, 53499, Note_on_c, 0, 71, 66
1, 53499, Note_on_c, 0, 59, 60
1, 53502, Note_on_c, 0, 56, 60
1, 53507, Control_c, 0, 64, 127
1, 53634, Note_on_c, 0, 71, 0
1, 53634, Note_on_c, 0, 75, 0
1, 53634, Note_on_c, 0, 71, 62
1, 53637, Note_on_c, 0, 68, 62
1, 53637, Note_on_c, 0, 56, 0
1, 53637, Note_on_c, 0, 59, 0
1, 53640, Note_on_c, 0, 63, 56
1, 53640, Note_on_c, 0, 59, 56
1, 53736, Control_c, 0, 64, 0
1, 53769, Note_on_c, 0, 68, 0
1, 53769, Note_on_c, 0, 71, 0
1, 53769, Note_on_c, 0, 59, 0
1, 53772, Note_on_c, 0, 63, 0
1, 53772, Note_on_c, 0, 51, 66
1, 53840, Note_on_c, 0, 51, 0
1, 53912, Note_on_c, 0, 70, 68
1, 53912, Note_on_c, 0, 75, 68
1, 53912, Note_on_c, 0, 58, 57
1, 53915, Note_on_c, 0, 55, 57
1, 53979, Note_on_c, 0, 75, 0
1, 53979, Note_on_c, 0, 70, 0
1, 53979, Note_on_c, 0, 55, 0
1, 53982, Note_on_c, 0, 58, 0
1, 54046, Note_on_c, 0, 70, 66
1, 54046, Note_on_c, 0, 75, 66
1, 54046, Note_on_c, 0, 58, 57
1, 54049, Note_on_c, 0, 55, 57
1, 54074, Control_c, 0, 64, 127
1, 54181, Note_on_c, 0, 75, 0
1, 54181, Note_on_c, 0, 70, 0
1, 54181, Note_on_c, 0, 70, 63
1, 54184, Note_on_c, 0, 67, 63
1, 54184, Note_on_c, 0, 55, 0
1, 54184, Note_on_c, 0, 58, 0
1, 54187, Note_on_c, 0, 58, 56
1, 54187, Note_on_c, 0, 63, 56
1, 54294, Control_c, 0, 64, 0
1, 54316, Note_on_c, 0, 67, 0
1, 54316, Note_on_c, 0, 70, 0
1, 54316, Note_on_c, 0, 68, 68
1, 54319, Note_on_c, 0, 71, 68
1, 54319, Note_on_c, 0, 63, 0
1, 54319, Note_on_c, 0, 58, 0
1, 54322, Note_on_c, 0, 32, 60
1, 54322, Note_on_c, 0, 44, 60
1, 54450, Note_on_c, 0, 71, 0
1, 54450, Note_on_c, 0, 68, 0
1, 54450, Note_on_c, 0, 71, 71
1, 54453, Note_on_c, 0, 83, 71
1, 54453, Note_on_c, 0, 75, 71
1, 54453, Note_on_c, 0, 44, 0
1, 54456, Note_on_c, 0, 32, 0
1, 54456, Note_on_c, 0, 51, 59
1, 54456, Note_on_c, 0, 44, 59
1, 54503, Control_c, 0, 64, 127
1, 54588, Note_on_c, 0, 75, 0
1, 54588, Note_on_c, 0, 83, 0
1, 54588, Note_on_c, 0, 71, 0
1, 54591, Note_on_c, 0, 75, 76
1, 54591, Note_on_c, 0, 83, 76
1, 54591, Note_on_c, 0, 71, 76
1, 54594, Note_on_c, 0, 44, 0
1, 54594, Note_on_c, 0, 51, 0
1, 54594, Note_on_c, 0, 44, 61
1, 54597, Note_on_c, 0, 51, 61
1, 54726, Note_on_c, 0, 71, 0
1, 54726, Note_on_c, 0, 83, 0
1, 54726, Note_on_c, 0, 75, 0
1, 54729, Note_on_c, 0, 83, 79
1, 54729, Note_on_c, 0, 71, 79
1, 54729, Note_on_c, 0, 75, 79
1, 54732, Note_on_c, 0, 51, 0
1, 54732, Note_on_c, 0, 44, 0
1, 54732, Note_on_c, 0, 51, 66
1, 54735, Note_on_c, 0, 44, 66
1, 54863, Note_on_c, 0, 75, 0
1, 54863, Note_on_c, 0, 71, 0
1, 54863, Note_on_c, 0, 83, 0
1, 54866, Note_on_c, 0, 83, 83
1, 54866, Note_on_c, 0, 71, 83
1, 54866, Note_on_c, 0, 75, 83
1, 54869, Note_on_c, 0, 44, 0
1, 54869, Note_on_c, 0, 51, 0
1, 54869, Note_on_c, 0, 44, 69
1, 54872, Note_on_c, 0, 51, 69
1, 55000, Note_on_c, 0, 75, 0
1, 55000, Note_on_c, 0, 71, 0
1, 55000, Note_on_c, 0, 83, 0
1, 55003, Note_on_c, 0, 83, 88
1, 55003, Note_on_c, 0, 71, 88
1, 55003, Note_on_c, 0, 75, 88
1, 55006, Note_on_c, 0, 51, 0
1, 55006, Note_on_c, 0, 44, 0
1, 55006, Note_on_c, 0, 51, 72
1, 55009, Note_on_c, 0, 44, 72
1, 55052, Control_c, 0, 64, 0
1, 55137, Note_on_c, 0, 75, 0
1, 55137, Note_on_c, 0, 71, 0
1, 55137, Note_on_c, 0, 83, 0
1, 55140, Note_on_c, 0, 82, 91
1, 55140, Note_on_c, 0, 73, 91
1, 55140, Note_on_c, 0, 70, 91
1, 55143, Note_on_c, 0, 44, 0
1, 55143, Note_on_c, 0, 51, 0
1, 55143, Note_on_c, 0, 51, 78
1, 55146, Note_on_c, 0, 46, 78
1, 55183, Control_c, 0, 64, 127
1, 55248, Control_c, 0, 64, 0
1, 55274, Note_on_c, 0, 70, 0
1, 55274, Note_on_c, 0, 73, 0
1, 55274, Note_on_c, 0, 82, 0
1, 55277, Note_on_c, 0, 68, 95
1, 55277, Note_on_c, 0, 71, 95
1, 55277, Note_on_c, 0, 80, 95
1, 55280, Note_on_c, 0, 46, 0
1, 55280, Note_on_c, 0, 51, 0
1, 55280, Note_on_c, 0, 51, 80
1, 55283, Note_on_c, 0, 47, 80
1, 55313, Control_c, 0, 64, 127
1, 55371, Control_c, 0, 64, 0
1, 55410, Note_on_c, 0, 80, 0
1, 55410, Note_on_c, 0, 71, 0
1, 55410, Note_on_c, 0, 68, 0
1, 55413, Note_on_c, 0, 67, 99
1, 55413, Note_on_c, 0, 70, 99
1, 55413, Note_on_c, 0, 79, 99
1, 55416, Note_on_c, 0, 47, 0
1, 55416, Note_on_c, 0, 51, 0
1, 55416, Control_c, 0, 64, 127
1, 55419, Note_on_c, 0, 51, 84
1, 55419, Note_on_c, 0, 49, 84
1, 55419, Note_on_c, 0, 39, 84
1, 55523, Control_c, 0, 64, 0
1, 55549, Note_on_c, 0, 79, 0
1, 55549, Note_on_c, 0, 70, 0
1, 55549, Note_on_c, 0, 67, 0
1, 55552, Note_on_c, 0, 79, 100
1, 55552, Note_on_c, 0, 88, 100
1, 55552, Note_on_c, 0, 76, 100
1, 55555, Note_on_c, 0, 39, 0
1, 55555, Note_on_c, 0, 49, 0
1, 55555, Note_on_c, 0, 51, 0
1, 55558, Note_on_c, 0, 51, 83
1, 55558, Note_on_c, 0, 61, 83
1, 55582, Control_c, 0, 64, 127
1, 55685, Note_on_c, 0, 76, 0
1, 55685, Note_on_c, 0, 88, 0
1, 55685, Note_on_c, 0, 79, 0
1, 55688, Note_on_c, 0, 79, 107
1, 55688, Note_on_c, 0, 88, 107
1, 55688, Note_on_c, 0, 76, 107
1, 55691, Note_on_c, 0, 61, 0
1, 55691, Note_on_c, 0, 51, 0
1, 55691, Note_on_c, 0, 51, 89
1, 55694, Note_on_c, 0, 61, 89
1, 55821, Note_on_c, 0, 76, 0
1, 55821, Note_on_c, 0, 88, 0
1, 55821, Note_on_c, 0, 79, 0
1, 55824, Note_on_c, 0, 76, 104
1, 55824, Note_on_c, 0, 88, 104
1, 55824, Note_on_c, 0, 79, 104
1, 55827, Note_on_c, 0, 61, 0
1, 55827, Note_on_c, 0, 51, 0
1, 55827, Note_on_c, 0, 61, 85
1, 55830, Note_on_c, 0, 51, 85
1, 55957, Note_on_c, 0, 79, 0
1, 55957, Note_on_c, 0, 88, 0
1, 55957, Note_on_c, 0, 76, 0
1, 55960, Note_on_c, 0, 88, 107
1, 55960, Note_on_c, 0, 79, 107
1, 55960, Note_on_c, 0, 76, 107
1, 55963, Note_on_c, 0, 51, 0
1, 55963, Note_on_c, 0, 61, 0
1, 55963, Note_on_c, 0, 51, 88
1, 55966, Note_on_c, 0, 61, 88
1, 56093, Note_on_c, 0, 76, 0
1, 56093, Note_on_c, 0, 79, 0
1, 56093, Note_on_c, 0, 88, 0
1, 56096, Note_on_c, 0, 88, 102
1, 56096, Note_on_c, 0, 79, 102
1, 56096, Note_on_c, 0, 76, 102
1, 56099, Note_on_c, 0, 61, 0
1, 56099, Note_on_c, 0, 51, 0
1, 56099, Note_on_c, 0, 61, 83
1, 56102, Note_on_c, 0, 51, 83
1, 56200, Control_c, 0, 64, 0
1, 56229, Note_on_c, 0, 76, 0
1, 56229, Note_on_c, 0, 79, 0
1, 56229, Note_on_c, 0, 88, 0
1, 56232, Note_on_c, 0, 87, 105
1, 56232, Note_on_c, 0, 79, 105
1, 56232, Note_on_c, 0, 75, 105
1, 56235, Note_on_c, 0, 51, 0
1, 56235, Note_on_c, 0, 61, 0
1, 56235, Note_on_c, 0, 59, 89
1, 56238, Note_on_c, 0, 51, 89
1, 56259, Control_c, 0, 64, 127
1, 56365, Control_c, 0, 64, 0
1, 56368, Note_on_c, 0, 75, 0
1, 56368, Note_on_c, 0, 79, 0
1, 56368, Note_on_c, 0, 87, 0
1, 56371, Note_on_c, 0, 85, 102
1, 56371, Note_on_c, 0, 79, 102
1, 56371, Note_on_c, 0, 73, 102
1, 56374, Note_on_c, 0, 51, 0
1, 56374, Note_on_c, 0, 59, 0
1, 56374, Note_on_c, 0, 58, 85
1, 56377, Note_on_c, 0, 51, 85
1, 56402, Control_c, 0, 64, 127
1, 56485, Control_c, 0, 64, 0
1, 56507, Note_on_c, 0, 73, 0
1, 56507, Note_on_c, 0, 79, 0
1, 56507, Note_on_c, 0, 85, 0
1, 56510, Note_on_c, 0, 71, 107
1, 56510, Note_on_c, 0, 80, 107
1, 56510, Note_on_c, 0, 83, 107
1, 56513, Note_on_c, 0, 51, 0
1, 56513, Note_on_c, 0, 58, 0
1, 56513, Note_on_c, 0, 32, 92
1, 56516, Note_on_c, 0, 44, 92
1, 56535, Control_c, 0, 64, 127
1, 56650, Note_on_c, 0, 80, 0
1, 56650, Note_on_c, 0, 71, 0
1, 56650, Note_on_c, 0, 71, 68
1, 56653, Note_on_c, 0, 75, 68
1, 56653, Note_on_c, 0, 83, 68
1, 56653, Note_on_c, 0, 44, 0
1, 56656, Note_on_c, 0, 32, 0
1, 56656, Note_on_c, 0, 51, 59
1, 56656, Note_on_c, 0, 44, 59
1, 56663, Control_c, 0, 64, 0
1, 56748, Control_c, 0, 64, 127
1, 56787, Note_on_c, 0, 83, 0
1, 56787, Note_on_c, 0, 83, 0
1, 56787, Note_on_c, 0, 71, 0
1, 56790, Note_on_c, 0, 75, 0
1, 56790, Note_on_c, 0, 71, 72
1, 56790, Note_on_c, 0, 75, 72
1, 56793, Note_on_c, 0, 83, 72
1, 56793, Note_on_c, 0, 44, 0
1, 56793, Note_on_c, 0, 51, 0
1, 56796, Note_on_c, 0, 51, 62
1, 56796, Note_on_c, 0, 44, 62
1, 56924, Note_on_c, 0, 83, 0
1, 56924, Note_on_c, 0, 75, 0
1, 56924, Note_on_c, 0, 71, 0
1, 56927, Note_on_c, 0, 71, 78
1, 56927, Note_on_c, 0, 83, 78
1, 56927, Note_on_c, 0, 75, 78
1, 56930, Note_on_c, 0, 44, 0
1, 56930, Note_on_c, 0, 51, 0
1, 56930, Note_on_c, 0, 44, 67
1, 56933, Note_on_c, 0, 51, 67
1, 57061, Note_on_c, 0, 75, 0
1, 57061, Note_on_c, 0, 83, 0
1, 57061, Note_on_c, 0, 71, 0
1, 57064, Note_on_c, 0, 75, 82
1, 57064, Note_on_c, 0, 83, 82
1, 57064, Note_on_c, 0, 71, 82
1, 57067, Note_on_c, 0, 51, 0
1, 57067, Note_on_c, 0, 44, 0
1, 57067, Note_on_c, 0, 51, 71
1, 57070, Note_on_c, 0, 44, 71
1, 57198, Note_on_c, 0, 71, 0
1, 57198, Note_on_c, 0, 83, 0
1, 57198, Note_on_c, 0, 75, 0
1, 57201, Note_on_c, 0, 83, 88
1, 57201, Note_on_c, 0, 71, 88
1, 57201, Note_on_c, 0, 75, 88
1, 57204, Note_on_c, 0, 44, 0
1, 57204, Note_on_c, 0, 51, 0
1, 57204, Note_on_c, 0, 51, 76
1, 57207, Note_on_c, 0, 44, 76
1, 57295, Control_c, 0, 64, 0
1, 57334, Note_on_c, 0, 75, 0
1, 57334, Note_on_c, 0, 71, 0
1, 57334, Note_on_c, 0, 83, 0
1, 57337, Note_on_c, 0, 82, 92
1, 57337, Note_on_c, 0, 73, 92
1, 57337, Note_on_c, 0, 70, 92
1, 57340, Note_on_c, 0, 44, 0
1, 57340, Note_on_c, 0, 51, 0
1, 57340, Note_on_c, 0, 46, 79
1, 57343, Note_on_c, 0, 51, 79
1, 57343, Control_c, 0, 64, 127
1, 57457, Control_c, 0, 64, 0
1, 57470, Note_on_c, 0, 70, 0
1, 57470, Note_on_c, 0, 73, 0
1, 57470, Note_on_c, 0, 82, 0
1, 57473, Note_on_c, 0, 80, 96
1, 57473, Note_on_c, 0, 68, 96
1, 57473, Note_on_c, 0, 71, 96
1, 57476, Note_on_c, 0, 51, 0
1, 57476, Note_on_c, 0, 46, 0
1, 57476, Note_on_c, 0, 51, 83
1, 57479, Note_on_c, 0, 47, 83
1, 57516, Control_c, 0, 64, 127
1, 57561, Control_c, 0, 64, 0
1, 57606, Note_on_c, 0, 71, 0
1, 57606, Note_on_c, 0, 68, 0
1, 57606, Note_on_c, 0, 80, 0
1, 57609, Note_on_c, 0, 79, 102
1, 57609, Note_on_c, 0, 67, 102
1, 57609, Note_on_c, 0, 70, 102
1, 57612, Note_on_c, 0, 47, 0
1, 57612, Note_on_c, 0, 51, 0
1, 57612, Note_on_c, 0, 39, 88
1, 57615, Note_on_c, 0, 49, 88
1, 57615, Note_on_c, 0, 51, 88
1, 57654, Control_c, 0, 64, 127
1, 57735, Control_c, 0, 64, 0
1, 57742, Note_on_c, 0, 70, 0
1, 57742, Note_on_c, 0, 67, 0
1, 57742, Note_on_c, 0, 79, 0
1, 57745, Note_on_c, 0, 79, 103
1, 57745, Note_on_c, 0, 88, 103
1, 57745, Note_on_c, 0, 76, 103
1, 57748, Note_on_c, 0, 51, 0
1, 57748, Note_on_c, 0, 49, 0
1, 57748, Note_on_c, 0, 39, 0
1, 57751, Note_on_c, 0, 51, 85
1, 57751, Note_on_c, 0, 61, 85
1, 57774, Control_c, 0, 64, 127
1, 57877, Note_on_c, 0, 76, 0
1, 57877, Note_on_c, 0, 88, 0
1, 57877, Note_on_c, 0, 79, 0
1, 57880, Note_on_c, 0, 79, 106
1, 57880, Note_on_c, 0, 76, 106
1, 57880, Note_on_c, 0, 88, 106
1, 57883, Note_on_c, 0, 61, 0
1, 57883, Note_on_c, 0, 51, 0
1, 57883, Note_on_c, 0, 51, 89
1, 57886, Note_on_c, 0, 61, 89
1, 58013, Note_on_c, 0, 88, 0
1, 58013, Note_on_c, 0, 76, 0
1, 58013, Note_on_c, 0, 79, 0
1, 58016, Note_on_c, 0, 79, 102
1, 58016, Note_on_c, 0, 76, 102
1, 58016, Note_on_c, 0, 88, 102
1, 58019, Note_on_c, 0, 61, 0
1, 58019, Note_on_c, 0, 51, 0
1, 58019, Note_on_c, 0, 61, 84
1, 58022, Note_on_c, 0, 51, 84
1, 58149, Note_on_c, 0, 88, 0
1, 58149, Note_on_c, 0, 76, 0
1, 58149, Note_on_c, 0, 79, 0
1, 58152, Note_on_c, 0, 79, 107
1, 58152, Note_on_c, 0, 88, 107
1, 58152, Note_on_c, 0, 76, 107
1, 58155, Note_on_c, 0, 51, 0
1, 58155, Note_on_c, 0, 61, 0
1, 58155, Note_on_c, 0, 51, 89
1, 58158, Note_on_c, 0, 61, 89
1, 58287, Note_on_c, 0, 76, 0
1, 58287, Note_on_c, 0, 88, 0
1, 58287, Note_on_c, 0, 79, 0
1, 58290, Note_on_c, 0, 76, 102
1, 58290, Note_on_c, 0, 88, 102
1, 58290, Note_on_c, 0, 79, 102
1, 58293, Note_on_c, 0, 61, 0
1, 58293, Note_on_c, 0, 51, 0
1, 58293, Note_on_c, 0, 61, 85
1, 58296, Note_on_c, 0, 51, 85
1, 58388, Control_c, 0, 64, 0
1, 58425, Note_on_c, 0, 79, 0
1, 58425, Note_on_c, 0, 88, 0
1, 58425, Note_on_c, 0, 76, 0
1, 58428, Note_on_c, 0, 87, 104
1, 58428, Note_on_c, 0, 79, 104
1, 58428, Note_on_c, 0, 75, 104
1, 58431, Note_on_c, 0, 51, 0
1, 58431, Note_on_c, 0, 61, 0
1, 58431, Note_on_c, 0, 59, 89
1, 58434, Note_on_c, 0, 51, 89
1, 58448, Control_c, 0, 64, 127
1, 58542, Control_c, 0, 64, 0
1, 58564, Note_on_c, 0, 75, 0
1, 58564, Note_on_c, 0, 79, 0
1, 58564, Note_on_c, 0, 87, 0
1, 58567, Note_on_c, 0, 85, 103
1, 58567, Note_on_c, 0, 79, 103
1, 58567, Note_on_c, 0, 73, 103
1, 58570, Note_on_c, 0, 51, 0
1, 58570, Note_on_c, 0, 59, 0
1, 58570, Note_on_c, 0, 58, 89
1, 58573, Note_on_c, 0, 51, 89
1, 58573, Control_c, 0, 64, 127
1, 58671, Control_c, 0, 64, 0
1, 58705, Note_on_c, 0, 73, 0
1, 58705, Note_on_c, 0, 79, 0
1, 58705, Note_on_c, 0, 85, 0
1, 58708, Note_on_c, 0, 80, 107
1, 58708, Note_on_c, 0, 83, 107
1, 58708, Note_on_c, 0, 71, 107
1, 58711, Note_on_c, 0, 51, 0
1, 58711, Note_on_c, 0, 58, 0
1, 58711, Note_on_c, 0, 44, 92
1, 58714, Note_on_c, 0, 56, 92
1, 58846, Note_on_c, 0, 71, 0
1, 58846, Note_on_c, 0, 83, 0
1, 58846, Note_on_c, 0, 80, 0
1, 58849, Note_on_c, 0, 83, 69
1, 58849, Note_on_c, 0, 80, 69
1, 58849, Note_on_c, 0, 56, 0
1, 58852, Note_on_c, 0, 44, 0
1, 58852, Note_on_c, 0, 59, 61
1, 58852, Note_on_c, 0, 63, 61
1, 58913, Note_on_c, 0, 80, 0
1, 58913, Note_on_c, 0, 83, 0
1, 58913, Note_on_c, 0, 63, 0
1, 58916, Note_on_c, 0, 59, 0
1, 58981, Note_on_c, 0, 83, 69
1, 58981, Note_on_c, 0, 80, 69
1, 58981, Note_on_c, 0, 59, 59
1, 58984, Note_on_c, 0, 63, 59
1, 58992, Control_c, 0, 64, 127
1, 59115, Note_on_c, 0, 80, 0
1, 59115, Note_on_c, 0, 83, 0
1, 59115, Note_on_c, 0, 87, 67
1, 59118, Note_on_c, 0, 83, 67
1, 59118, Note_on_c, 0, 63, 0
1, 59118, Note_on_c, 0, 59, 0
1, 59121, Note_on_c, 0, 56, 57
1, 59121, Note_on_c, 0, 59, 57
1, 59139, Control_c, 0, 64, 0
1, 59250, Note_on_c, 0, 83, 0
1, 59250, Note_on_c, 0, 87, 0
1, 59250, Note_on_c, 0, 59, 0
1, 59253, Note_on_c, 0, 56, 0
1, 59253, Note_on_c, 0, 49, 67
1, 59319, Note_on_c, 0, 49, 0
1, 59388, Note_on_c, 0, 85, 68
1, 59388, Note_on_c, 0, 80, 68
1, 59388, Note_on_c, 0, 64, 60
1, 59391, Note_on_c, 0, 61, 60
1, 59455, Note_on_c, 0, 80, 0
1, 59455, Note_on_c, 0, 85, 0
1, 59455, Note_on_c, 0, 61, 0
1, 59458, Note_on_c, 0, 64, 0
1, 59522, Note_on_c, 0, 80, 68
1, 59522, Note_on_c, 0, 85, 68
1, 59522, Note_on_c, 0, 64, 60
1, 59525, Note_on_c, 0, 61, 60
1, 59542, Control_c, 0, 64, 127
1, 59657, Note_on_c, 0, 85, 0
1, 59657, Note_on_c, 0, 80, 0
1, 59657, Note_on_c, 0, 88, 67
1, 59660, Note_on_c, 0, 85, 67
1, 59660, Note_on_c, 0, 61, 0
1, 59660, Note_on_c, 0, 64, 0
1, 59663, Note_on_c, 0, 61, 57
1, 59663, Note_on_c, 0, 56, 57
1, 59752, Control_c, 0, 64, 0
1, 59792, Note_on_c, 0, 85, 0
1, 59792, Note_on_c, 0, 88, 0
1, 59792, Note_on_c, 0, 56, 0
1, 59795, Note_on_c, 0, 61, 0
1, 59795, Note_on_c, 0, 51, 67
1, 59862, Note_on_c, 0, 51, 0
1, 59931, Note_on_c, 0, 83, 68
1, 59931, Note_on_c, 0, 80, 68
1, 59931, Note_on_c, 0, 59, 60
1, 59934, Note_on_c, 0, 63, 60
1, 59999, Note_on_c, 0, 80, 0
1, 59999, Note_on_c, 0, 83, 0
1, 59999, Note_on_c, 0, 63, 0
1, 60002, Note_on_c, 0, 59, 0
1, 60066, Note_on_c, 0, 83, 68
1, 60066, Note_on_c, 0, 80, 68
1, 60066, Note_on_c, 0, 59, 60
1, 60069, Note_on_c, 0, 63, 60
1, 60079, Control_c, 0, 64, 127
1, 60201, Note_on_c, 0, 80, 0
1, 60201, Note_on_c, 0, 83, 0
1, 60201, Note_on_c, 0, 83, 67
1, 60204, Note_on_c, 0, 87, 67
1, 60204, Note_on_c, 0, 63, 0
1, 60204, Note_on_c, 0, 59, 0
1, 60207, Note_on_c, 0, 56, 57
1, 60207, Note_on_c, 0, 59, 57
1, 60312, Control_c, 0, 64, 0
1, 60336, Note_on_c, 0, 87, 0
1, 60336, Note_on_c, 0, 83, 0
1, 60336, Note_on_c, 0, 59, 0
1, 60339, Note_on_c, 0, 56, 0
1, 60339, Note_on_c, 0, 49, 68
1, 60405, Note_on_c, 0, 49, 0
1, 60474, Note_on_c, 0, 82, 70
1, 60474, Note_on_c, 0, 79, 70
1, 60474, Note_on_c, 0, 63, 60
1, 60477, Note_on_c, 0, 58, 60
1, 60542, Note_on_c, 0, 79, 0
1, 60542, Note_on_c, 0, 82, 0
1, 60542, Note_on_c, 0, 58, 0
1, 60545, Note_on_c, 0, 63, 0
1, 60609, Note_on_c, 0, 79, 70
1, 60609, Note_on_c, 0, 82, 70
1, 60609, Note_on_c, 0, 63, 60
1, 60612, Note_on_c, 0, 58, 60
1, 60620, Control_c, 0, 64, 127
1, 60744, Note_on_c, 0, 82, 0
1, 60744, Note_on_c, 0, 79, 0
1, 60744, Note_on_c, 0, 82, 67
1, 60747, Note_on_c, 0, 87, 67
1, 60747, Note_on_c, 0, 58, 0
1, 60747, Note_on_c, 0, 63, 0
1, 60750, Note_on_c, 0, 58, 58
1, 60750, Note_on_c, 0, 55, 58
1, 60865, Control_c, 0, 64, 0
1, 60878, Note_on_c, 0, 87, 0
1, 60878, Note_on_c, 0, 82, 0
1, 60878, Note_on_c, 0, 55, 0
1, 60881, Note_on_c, 0, 58, 0
1, 60881, Note_on_c, 0, 47, 63
1, 61014, Note_on_c, 0, 75, 76
1, 61014, Note_on_c, 0, 83, 76
1, 61014, Note_on_c, 0, 47, 0
1, 61017, Note_on_c, 0, 68, 57
1, 61017, Note_on_c, 0, 63, 57
1, 61084, Note_on_c, 0, 83, 0
1, 61084, Note_on_c, 0, 75, 0
1, 61084, Note_on_c, 0, 63, 0
1, 61087, Note_on_c, 0, 68, 0
1, 61155, Note_on_c, 0, 75, 71
1, 61155, Note_on_c, 0, 83, 71
1, 61155, Note_on_c, 0, 63, 59
1, 61158, Note_on_c, 0, 68, 59
1, 61188, Control_c, 0, 64, 127
1, 61299, Note_on_c, 0, 83, 0
1, 61299, Note_on_c, 0, 75, 0
1, 61299, Note_on_c, 0, 80, 71
1, 61302, Note_on_c, 0, 87, 71
1, 61302, Note_on_c, 0, 68, 0
1, 61302, Note_on_c, 0, 63, 0
1, 61305, Note_on_c, 0, 63, 59
1, 61305, Note_on_c, 0, 59, 59
1, 61393, Control_c, 0, 64, 0
1, 61445, Note_on_c, 0, 87, 0
1, 61445, Note_on_c, 0, 80, 0
1, 61445, Note_on_c, 0, 59, 0
1, 61448, Note_on_c, 0, 63, 0
1, 61448, Note_on_c, 0, 51, 69
1, 61593, Note_on_c, 0, 81, 83
1, 61593, Note_on_c, 0, 73, 83
1, 61593, Note_on_c, 0, 51, 0
1, 61596, Note_on_c, 0, 64, 66
1, 61596, Note_on_c, 0, 69, 66
1, 61668, Note_on_c, 0, 73, 0
1, 61668, Note_on_c, 0, 81, 0
1, 61668, Note_on_c, 0, 69, 0
1, 61671, Note_on_c, 0, 64, 0
1, 61744, Note_on_c, 0, 81, 77
1, 61744, Note_on_c, 0, 73, 77
1, 61744, Note_on_c, 0, 69, 64
1, 61747, Note_on_c, 0, 64, 64
1, 61767, Control_c, 0, 64, 127
1, 61897, Note_on_c, 0, 73, 0
1, 61897, Note_on_c, 0, 81, 0
1, 61897, Note_on_c, 0, 76, 76
1, 61900, Note_on_c, 0, 85, 76
1, 61900, Note_on_c, 0, 64, 0
1, 61900, Note_on_c, 0, 69, 0
1, 61903, Note_on_c, 0, 64, 64
1, 61903, Note_on_c, 0, 61, 64
1, 62009, Control_c, 0, 64, 0
1, 62050, Note_on_c, 0, 85, 0
1, 62050, Note_on_c, 0, 76, 0
1, 62050, Note_on_c, 0, 61, 0
1, 62053, Note_on_c, 0, 64, 0
1, 62053, Note_on_c, 0, 47, 72
1, 62206, Note_on_c, 0, 71, 78
1, 62206, Note_on_c, 0, 80, 78
1, 62206, Note_on_c, 0, 47, 0
1, 62209, Note_on_c, 0, 68, 67
1, 62209, Note_on_c, 0, 63, 67
1, 62286, Note_on_c, 0, 80, 0
1, 62286, Note_on_c, 0, 71, 0
1, 62286, Note_on_c, 0, 63, 0
1, 62289, Note_on_c, 0, 68, 0
1, 62366, Note_on_c, 0, 80, 78
1, 62366, Note_on_c, 0, 71, 78
1, 62366, Note_on_c, 0, 63, 67
1, 62369, Note_on_c, 0, 68, 67
1, 62378, Control_c, 0, 64, 127
1, 62530, Note_on_c, 0, 71, 0
1, 62530, Note_on_c, 0, 80, 0
1, 62530, Note_on_c, 0, 75, 71
1, 62533, Note_on_c, 0, 83, 71
1, 62533, Note_on_c, 0, 68, 0
1, 62533, Note_on_c, 0, 63, 0
1, 62536, Note_on_c, 0, 63, 63
1, 62536, Note_on_c, 0, 59, 63
1, 62642, Control_c, 0, 64, 0
1, 62699, Note_on_c, 0, 83, 0
1, 62699, Note_on_c, 0, 75, 0
1, 62699, Note_on_c, 0, 59, 0
1, 62702, Note_on_c, 0, 63, 0
1, 62702, Note_on_c, 0, 51, 70
1, 62873, Note_on_c, 0, 79, 72
1, 62873, Note_on_c, 0, 70, 72
1, 62873, Note_on_c, 0, 51, 0
1, 62876, Note_on_c, 0, 67, 61
1, 62876, Note_on_c, 0, 61, 61
1, 62961, Note_on_c, 0, 70, 0
1, 62961, Note_on_c, 0, 79, 0
1, 62961, Note_on_c, 0, 61, 0
1, 62964, Note_on_c, 0, 67, 0
1, 63049, Note_on_c, 0, 70, 71
1, 63049, Note_on_c, 0, 79, 71
1, 63049, Note_on_c, 0, 61, 61
1, 63052, Note_on_c, 0, 67, 61
1, 63087, Control_c, 0, 64, 127
1, 63226, Note_on_c, 0, 79, 0
1, 63226, Note_on_c, 0, 70, 0
1, 63226, Note_on_c, 0, 73, 60
1, 63229, Note_on_c, 0, 82, 60
1, 63229, Note_on_c, 0, 67, 0
1, 63229, Note_on_c, 0, 61, 0
1, 63232, Note_on_c, 0, 61, 52
1, 63232, Note_on_c, 0, 58, 52
1, 63367, Control_c, 0, 64, 0
1, 63405, Note_on_c, 0, 82, 0
1, 63405, Note_on_c, 0, 73, 0
1, 63405, Note_on_c, 0, 71, 69
1, 63408, Note_on_c, 0, 80, 69
1, 63408, Note_on_c, 0, 58, 0
1, 63408, Note_on_c, 0, 61, 0
1, 63411, Note_on_c, 0, 44, 59
1, 63479, Note_on_c, 0, 56, 49
1, 63491, Note_on_c, 0, 44, 0
1, 63553, Note_on_c, 0, 51, 53
1, 63566, Note_on_c, 0, 56, 0
1, 63628, Note_on_c, 0, 56, 48
1, 63640, Note_on_c, 0, 51, 0
1, 63702, Note_on_c, 0, 80, 0
1, 63702, Note_on_c, 0, 71, 0
1, 63702, Note_on_c, 0, 44, 59
1, 63714, Note_on_c, 0, 56, 0
1, 63776, Note_on_c, 0, 56, 49
1, 63789, Note_on_c, 0, 44, 0
1, 63851, Note_on_c, 0, 51, 53
1, 63863, Note_on_c, 0, 56, 0
1, 63925, Note_on_c, 0, 56, 49
1, 63937, Note_on_c, 0, 51, 0
1, 63999, Note_on_c, 0, 44, 59
1, 64012, Note_on_c, 0, 56, 0
1, 64074, Note_on_c, 0, 56, 49
1, 64086, Note_on_c, 0, 44, 0
1, 64148, Note_on_c, 0, 51, 54
1, 64160, Note_on_c, 0, 56, 0
1, 64222, Note_on_c, 0, 56, 49
1, 64235, Note_on_c, 0, 51, 0
1, 64296, Note_on_c, 0, 71, 69
1, 64296, Note_on_c, 0, 44, 59
1, 64309, Note_on_c, 0, 56, 0
1, 64372, Note_on_c, 0, 56, 49
1, 64385, Note_on_c, 0, 44, 0
1, 64448, Note_on_c, 0, 51, 54
1, 64461, Note_on_c, 0, 56, 0
1, 64524, Note_on_c, 0, 71, 0
1, 64524, Note_on_c, 0, 68, 69
1, 64524, Note_on_c, 0, 56, 49
1, 64537, Note_on_c, 0, 51, 0
1, 64562, Note_on_c, 0, 68, 0
1, 64600, Note_on_c, 0, 67, 78
1, 64600, Note_on_c, 0, 44, 59
1, 64613, Note_on_c, 0, 56, 0
1, 64676, Note_on_c, 0, 58, 49
1, 64689, Note_on_c, 0, 44, 0
1, 64752, Note_on_c, 0, 51, 55
1, 64765, Note_on_c, 0, 58, 0
1, 64828, Note_on_c, 0, 58, 49
1, 64840, Note_on_c, 0, 51, 0
1, 64904, Note_on_c, 0, 67, 0
1, 64904, Note_on_c, 0, 75, 66
1, 64904, Note_on_c, 0, 61, 66
1, 64907, Note_on_c, 0, 67, 66
1, 64907, Note_on_c, 0, 44, 59
1, 64917, Note_on_c, 0, 58, 0
1, 64984, Note_on_c, 0, 58, 49
1, 64997, Note_on_c, 0, 44, 0
1, 65064, Note_on_c, 0, 51, 54
1, 65077, Note_on_c, 0, 58, 0
1, 65144, Note_on_c, 0, 67, 0
1, 65144, Note_on_c, 0, 61, 0
1, 65144, Note_on_c, 0, 75, 0
1, 65147, Note_on_c, 0, 58, 49
1, 65157, Note_on_c, 0, 51, 0
1, 65224, Note_on_c, 0, 67, 66
1, 65224, Note_on_c, 0, 75, 66
1, 65224, Note_on_c, 0, 61, 66
1, 65227, Note_on_c, 0, 44, 59
1, 65238, Note_on_c, 0, 58, 0
1, 65304, Note_on_c, 0, 58, 51
1, 65318, Note_on_c, 0, 44, 0
1, 65384, Note_on_c, 0, 51, 55
1, 65398, Note_on_c, 0, 58, 0
1, 65465, Note_on_c, 0, 61, 0
1, 65465, Note_on_c, 0, 75, 0
1, 65465, Note_on_c, 0, 67, 0
1, 65468, Note_on_c, 0, 58, 50
1, 65478, Note_on_c, 0, 51, 0
1, 65545, Note_on_c, 0, 67, 69
1, 65545, Note_on_c, 0, 75, 69
1, 65545, Note_on_c, 0, 61, 69
1, 65548, Note_on_c, 0, 44, 59
1, 65558, Note_on_c, 0, 58, 0
1, 65625, Note_on_c, 0, 58, 50
1, 65638, Note_on_c, 0, 44, 0
1, 65705, Note_on_c, 0, 51, 53
1, 65718, Note_on_c, 0, 58, 0
1, 65785, Note_on_c, 0, 61, 0
1, 65785, Note_on_c, 0, 75, 0
1, 65785, Note_on_c, 0, 67, 0
1, 65788, Note_on_c, 0, 59, 69
1, 65788, Note_on_c, 0, 58, 49
1, 65803, Note_on_c, 0, 51, 0
1, 65839, Note_on_c, 0, 68, 69
1, 65857, Note_on_c, 0, 59, 0
1, 65893, Note_on_c, 0, 75, 78
1, 65893, Note_on_c, 0, 44, 59
1, 65905, Note_on_c, 0, 68, 0
1, 65905, Note_on_c, 0, 58, 0
1, 65967, Note_on_c, 0, 56, 49
1, 65980, Note_on_c, 0, 44, 0
1, 66042, Note_on_c, 0, 51, 54
1, 66054, Note_on_c, 0, 56, 0
1, 66116, Note_on_c, 0, 56, 49
1, 66128, Note_on_c, 0, 51, 0
1, 66190, Note_on_c, 0, 44, 59
1, 66203, Note_on_c, 0, 56, 0
1, 66265, Note_on_c, 0, 56, 50
1, 66277, Note_on_c, 0, 44, 0
1, 66339, Note_on_c, 0, 51, 55
1, 66351, Note_on_c, 0, 56, 0
1, 66413, Note_on_c, 0, 56, 50
1, 66426, Note_on_c, 0, 51, 0
1, 66487, Note_on_c, 0, 44, 59
1, 66500, Note_on_c, 0, 56, 0
1, 66562, Note_on_c, 0, 56, 50
1, 66574, Note_on_c, 0, 44, 0
1, 66636, Note_on_c, 0, 51, 55
1, 66649, Note_on_c, 0, 56, 0
1, 66710, Note_on_c, 0, 56, 50
1, 66723, Note_on_c, 0, 51, 0
1, 66785, Note_on_c, 0, 75, 0
1, 66785, Note_on_c, 0, 83, 79
1, 66785, Note_on_c, 0, 44, 59
1, 66797, Note_on_c, 0, 56, 0
1, 66860, Note_on_c, 0, 56, 49
1, 66873, Note_on_c, 0, 44, 0
1, 66936, Note_on_c, 0, 51, 53
1, 66949, Note_on_c, 0, 56, 0
1, 67012, Note_on_c, 0, 83, 0
1, 67012, Note_on_c, 0, 80, 79
1, 67012, Note_on_c, 0, 56, 49
1, 67024, Note_on_c, 0, 51, 0
1, 67087, Note_on_c, 0, 80, 0
1, 67087, Note_on_c, 0, 79, 89
1, 67087, Note_on_c, 0, 44, 59
1, 67100, Note_on_c, 0, 56, 0
1, 67163, Note_on_c, 0, 58, 53
1, 67176, Note_on_c, 0, 44, 0
1, 67239, Note_on_c, 0, 51, 53
1, 67251, Note_on_c, 0, 58, 0
1, 67314, Note_on_c, 0, 58, 50
1, 67327, Note_on_c, 0, 51, 0
1, 67390, Note_on_c, 0, 79, 0
1, 67390, Note_on_c, 0, 73, 78
1, 67390, Note_on_c, 0, 79, 78
1, 67393, Note_on_c, 0, 87, 78
1, 67393, Note_on_c, 0, 44, 59
1, 67403, Note_on_c, 0, 58, 0
1, 67468, Note_on_c, 0, 58, 50
1, 67481, Note_on_c, 0, 44, 0
1, 67546, Note_on_c, 0, 51, 53
1, 67559, Note_on_c, 0, 58, 0
1, 67624, Note_on_c, 0, 87, 0
1, 67624, Note_on_c, 0, 79, 0
1, 67624, Note_on_c, 0, 73, 0
1, 67627, Note_on_c, 0, 58, 49
1, 67637, Note_on_c, 0, 51, 0
1, 67702, Note_on_c, 0, 87, 78
1, 67702, Note_on_c, 0, 79, 78
1, 67702, Note_on_c, 0, 73, 78
1, 67705, Note_on_c, 0, 44, 59
1, 67715, Note_on_c, 0, 58, 0
1, 67780, Note_on_c, 0, 58, 50
1, 67793, Note_on_c, 0, 44, 0
1, 67858, Note_on_c, 0, 51, 53
1, 67871, Note_on_c, 0, 58, 0
1, 67937, Note_on_c, 0, 73, 0
1, 67937, Note_on_c, 0, 79, 0
1, 67937, Note_on_c, 0, 87, 0
1, 67940, Note_on_c, 0, 58, 49
1, 67950, Note_on_c, 0, 51, 0
1, 68015, Note_on_c, 0, 87, 78
1, 68015, Note_on_c, 0, 79, 78
1, 68015, Note_on_c, 0, 73, 78
1, 68018, Note_on_c, 0, 44, 59
1, 68028, Note_on_c, 0, 58, 0
1, 68093, Note_on_c, 0, 58, 51
1, 68106, Note_on_c, 0, 44, 0
1, 68171, Note_on_c, 0, 51, 56
1, 68184, Note_on_c, 0, 58, 0
1, 68247, Note_on_c, 0, 73, 0
1, 68247, Note_on_c, 0, 79, 0
1, 68247, Note_on_c, 0, 87, 0
1, 68250, Note_on_c, 0, 68, 66
1, 68250, Note_on_c, 0, 58, 51
1, 68264, Note_on_c, 0, 51, 0
1, 68298, Note_on_c, 0, 80, 73
1, 68315, Note_on_c, 0, 68, 0
1, 68349, Note_on_c, 0, 87, 96
1, 68349, Note_on_c, 0, 44, 59
1, 68361, Note_on_c, 0, 80, 0
1, 68361, Note_on_c, 0, 58, 0
1, 68422, Note_on_c, 0, 56, 49
1, 68435, Note_on_c, 0, 44, 0
1, 68496, Note_on_c, 0, 51, 53
1, 68508, Note_on_c, 0, 56, 0
1, 68569, Note_on_c, 0, 56, 49
1, 68581, Note_on_c, 0, 51, 0
1, 68642, Note_on_c, 0, 44, 60
1, 68655, Note_on_c, 0, 56, 0
1, 68716, Note_on_c, 0, 56, 49
1, 68728, Note_on_c, 0, 44, 0
1, 68789, Note_on_c, 0, 51, 52
1, 68801, Note_on_c, 0, 56, 0
1, 68862, Note_on_c, 0, 87, 0
1, 68862, Note_on_c, 0, 69, 61
1, 68862, Note_on_c, 0, 56, 49
1, 68877, Note_on_c, 0, 51, 0
1, 68905, Note_on_c, 0, 79, 73
1, 68919, Note_on_c, 0, 69, 0
1, 68948, Note_on_c, 0, 87, 95
1, 68948, Note_on_c, 0, 44, 59
1, 68960, Note_on_c, 0, 79, 0
1, 68960, Note_on_c, 0, 56, 0
1, 69021, Note_on_c, 0, 58, 51
1, 69033, Note_on_c, 0, 44, 0
1, 69094, Note_on_c, 0, 51, 54
1, 69107, Note_on_c, 0, 58, 0
1, 69168, Note_on_c, 0, 58, 54
1, 69180, Note_on_c, 0, 51, 0
1, 69241, Note_on_c, 0, 44, 59
1, 69253, Note_on_c, 0, 58, 0
1, 69314, Note_on_c, 0, 58, 51
1, 69327, Note_on_c, 0, 44, 0
1, 69388, Note_on_c, 0, 51, 55
1, 69400, Note_on_c, 0, 58, 0
1, 69461, Note_on_c, 0, 87, 0
1, 69461, Note_on_c, 0, 71, 58
1, 69461, Note_on_c, 0, 58, 51
1, 69477, Note_on_c, 0, 51, 0
1, 69509, Note_on_c, 0, 80, 73
1, 69525, Note_on_c, 0, 71, 0
1, 69557, Note_on_c, 0, 87, 95
1, 69557, Note_on_c, 0, 44, 59
1, 69569, Note_on_c, 0, 80, 0
1, 69569, Note_on_c, 0, 58, 0
1, 69631, Note_on_c, 0, 56, 49
1, 69643, Note_on_c, 0, 44, 0
1, 69704, Note_on_c, 0, 51, 53
1, 69716, Note_on_c, 0, 56, 0
1, 69777, Note_on_c, 0, 56, 49
1, 69789, Note_on_c, 0, 51, 0
1, 69851, Note_on_c, 0, 44, 59
1, 69863, Note_on_c, 0, 56, 0
1, 69924, Note_on_c, 0, 56, 49
1, 69936, Note_on_c, 0, 44, 0
1, 69997, Note_on_c, 0, 51, 53
1, 70009, Note_on_c, 0, 56, 0
1, 70070, Note_on_c, 0, 87, 0
1, 70070, Note_on_c, 0, 69, 63
1, 70070, Note_on_c, 0, 56, 49
1, 70083, Note_on_c, 0, 51, 0
1, 70107, Note_on_c, 0, 79, 72
1, 70119, Note_on_c, 0, 69, 0
1, 70144, Note_on_c, 0, 87, 94
1, 70144, Note_on_c, 0, 44, 59
1, 70156, Note_on_c, 0, 79, 0
1, 70156, Note_on_c, 0, 56, 0
1, 70217, Note_on_c, 0, 58, 50
1, 70229, Note_on_c, 0, 44, 0
1, 70290, Note_on_c, 0, 51, 54
1, 70303, Note_on_c, 0, 58, 0
1, 70364, Note_on_c, 0, 58, 49
1, 70376, Note_on_c, 0, 51, 0
1, 70437, Note_on_c, 0, 44, 59
1, 70449, Note_on_c, 0, 58, 0
1, 70510, Note_on_c, 0, 58, 50
1, 70523, Note_on_c, 0, 44, 0
1, 70584, Note_on_c, 0, 51, 54
1, 70596, Note_on_c, 0, 58, 0
1, 70657, Note_on_c, 0, 58, 51
1, 70669, Note_on_c, 0, 51, 0
1, 70730, Note_on_c, 0, 87, 0
1, 70730, Note_on_c, 0, 59, 68
1, 70730, Note_on_c, 0, 44, 60
1, 70743, Note_on_c, 0, 58, 0
1, 70807, Note_on_c, 0, 68, 69
1, 70807, Note_on_c, 0, 56, 59
1, 70820, Note_on_c, 0, 59, 0
1, 70820, Note_on_c, 0, 44, 0
1, 70883, Note_on_c, 0, 63, 70
1, 70883, Note_on_c, 0, 51, 60
1, 70896, Note_on_c, 0, 68, 0
1, 70896, Note_on_c, 0, 56, 0
1, 70959, Note_on_c, 0, 68, 67
1, 70959, Note_on_c, 0, 56, 58
1, 70972, Note_on_c, 0, 63, 0
1, 70972, Note_on_c, 0, 51, 0
1, 71035, Note_on_c, 0, 59, 72
1, 71035, Note_on_c, 0, 44, 61
1, 71048, Note_on_c, 0, 68, 0
1, 71048, Note_on_c, 0, 56, 0
1, 71111, Note_on_c, 0, 68, 73
1, 71111, Note_on_c, 0, 56, 62
1, 71123, Note_on_c, 0, 59, 0
1, 71123, Note_on_c, 0, 44, 0
1, 71186, Note_on_c, 0, 63, 74
1, 71186, Note_on_c, 0, 51, 63
1, 71198, Note_on_c, 0, 68, 0
1, 71198, Note_on_c, 0, 56, 0
1, 71261, Note_on_c, 0, 68, 70
1, 71261, Note_on_c, 0, 56, 61
1, 71273, Note_on_c, 0, 63, 0
1, 71273, Note_on_c, 0, 51, 0
1, 71336, Note_on_c, 0, 59, 78
1, 71336, Note_on_c, 0, 44, 66
1, 71348, Note_on_c, 0, 68, 0
1, 71348, Note_on_c, 0, 56, 0
1, 71410, Note_on_c, 0, 68, 78
1, 71410, Note_on_c, 0, 56, 67
1, 71422, Note_on_c, 0, 59, 0
1, 71422, Note_on_c, 0, 44, 0
1, 71483, Note_on_c, 0, 63, 79
1, 71483, Note_on_c, 0, 51, 67
1, 71495, Note_on_c, 0, 68, 0
1, 71495, Note_on_c, 0, 56, 0
1, 71556, Note_on_c, 0, 68, 72
1, 71556, Note_on_c, 0, 56, 68
1, 71568, Note_on_c, 0, 63, 0
1, 71568, Note_on_c, 0, 51, 0
1, 71628, Note_on_c, 0, 59, 82
1, 71628, Note_on_c, 0, 44, 70
1, 71640, Note_on_c, 0, 68, 0
1, 71640, Note_on_c, 0, 56, 0
1, 71700, Note_on_c, 0, 68, 83
1, 71700, Note_on_c, 0, 56, 71
1, 71712, Note_on_c, 0, 59, 0
1, 71712, Note_on_c, 0, 44, 0
1, 71773, Note_on_c, 0, 63, 84
1, 71773, Note_on_c, 0, 51, 72
1, 71785, Note_on_c, 0, 68, 0
1, 71785, Note_on_c, 0, 56, 0
1, 71845, Note_on_c, 0, 68, 78
1, 71845, Note_on_c, 0, 56, 66
1, 71856, Note_on_c, 0, 63, 0
1, 71856, Note_on_c, 0, 51, 0
1, 71916, Note_on_c, 0, 60, 88
1, 71916, Note_on_c, 0, 44, 73
1, 71928, Note_on_c, 0, 68, 0
1, 71928, Note_on_c, 0, 56, 0
1, 71987, Note_on_c, 0, 66, 89
1, 71987, Note_on_c, 0, 54, 76
1, 71999, Note_on_c, 0, 60, 0
1, 71999, Note_on_c, 0, 44, 0
1, 72059, Note_on_c, 0, 63, 90
1, 72059, Note_on_c, 0, 51, 77
1, 72071, Note_on_c, 0, 66, 0
1, 72071, Note_on_c, 0, 54, 0
1, 72130, Note_on_c, 0, 66, 84
1, 72130, Note_on_c, 0, 54, 71
1, 72142, Note_on_c, 0, 63, 0
1, 72142, Note_on_c, 0, 51, 0
1, 72201, Note_on_c, 0, 60, 92
1, 72201, Note_on_c, 0, 44, 78
1, 72213, Note_on_c, 0, 66, 0
1, 72213, Note_on_c, 0, 54, 0
1, 72273, Note_on_c, 0, 66, 93
1, 72273, Note_on_c, 0, 54, 79
1, 72285, Note_on_c, 0, 60, 0
1, 72285, Note_on_c, 0, 44, 0
1, 72344, Note_on_c, 0, 63, 94
1, 72344, Note_on_c, 0, 51, 81
1, 72356, Note_on_c, 0, 66, 0
1, 72356, Note_on_c, 0, 54, 0
1, 72414, Note_on_c, 0, 66, 90
1, 72414, Note_on_c, 0, 54, 77
1, 72426, Note_on_c, 0, 63, 0
1, 72426, Note_on_c, 0, 51, 0
1, 72484, Note_on_c, 0, 60, 96
1, 72484, Note_on_c, 0, 44, 83
1, 72496, Note_on_c, 0, 66, 0
1, 72496, Note_on_c, 0, 54, 0
1, 72554, Note_on_c, 0, 66, 98
1, 72554, Note_on_c, 0, 54, 84
1, 72566, Note_on_c, 0, 60, 0
1, 72566, Note_on_c, 0, 44, 0
1, 72624, Note_on_c, 0, 63, 99
1, 72624, Note_on_c, 0, 51, 85
1, 72636, Note_on_c, 0, 66, 0
1, 72636, Note_on_c, 0, 54, 0
1, 72694, Note_on_c, 0, 66, 100
1, 72694, Note_on_c, 0, 54, 78
1, 72706, Note_on_c, 0, 63, 0
1, 72706, Note_on_c, 0, 51, 0
1, 72764, Note_on_c, 0, 60, 102
1, 72764, Note_on_c, 0, 44, 87
1, 72775, Note_on_c, 0, 66, 0
1, 72775, Note_on_c, 0, 54, 0
1, 72833, Note_on_c, 0, 66, 103
1, 72833, Note_on_c, 0, 54, 89
1, 72845, Note_on_c, 0, 60, 0
1, 72845, Note_on_c, 0, 44, 0
1, 72903, Note_on_c, 0, 63, 103
1, 72903, Note_on_c, 0, 51, 89
1, 72914, Note_on_c, 0, 66, 0
1, 72914, Note_on_c, 0, 54, 0
1, 72972, Note_on_c, 0, 66, 96
1, 72972, Note_on_c, 0, 54, 83
1, 72984, Note_on_c, 0, 63, 0
1, 72984, Note_on_c, 0, 51, 0
1, 73040, Note_on_c, 0, 52, 92
1, 73040, Note_on_c, 0, 56, 92
1, 73040, Note_on_c, 0, 61, 107
1, 73043, Note_on_c, 0, 64, 107
1, 73043, Note_on_c, 0, 37, 92
1, 73052, Note_on_c, 0, 66, 0
1, 73052, Note_on_c, 0, 54, 0
1, 73110, Note_on_c, 0, 61, 0
1, 73110, Note_on_c, 0, 52, 0
1, 73110, Note_on_c, 0, 56, 0
1, 73113, Note_on_c, 0, 64, 0
1, 73113, Note_on_c, 0, 44, 74
1, 73113, Note_on_c, 0, 37, 0
1, 73178, Note_on_c, 0, 49, 77
1, 73178, Note_on_c, 0, 44, 57
1, 73189, Note_on_c, 0, 44, 0
1, 73245, Note_on_c, 0, 52, 78
1, 73245, Note_on_c, 0, 44, 0
1, 73256, Note_on_c, 0, 49, 0
1, 73313, Note_on_c, 0, 56, 80
1, 73313, Note_on_c, 0, 37, 61
1, 73324, Note_on_c, 0, 52, 0
1, 73380, Note_on_c, 0, 49, 74
1, 73380, Note_on_c, 0, 37, 0
1, 73391, Note_on_c, 0, 56, 0
1, 73448, Note_on_c, 0, 52, 76
1, 73448, Note_on_c, 0, 44, 58
1, 73459, Note_on_c, 0, 49, 0
1, 73515, Note_on_c, 0, 56, 77
1, 73515, Note_on_c, 0, 44, 0
1, 73526, Note_on_c, 0, 52, 0
1, 73582, Note_on_c, 0, 61, 78
1, 73582, Note_on_c, 0, 37, 60
1, 73594, Note_on_c, 0, 56, 0
1, 73650, Note_on_c, 0, 52, 71
1, 73650, Note_on_c, 0, 37, 0
1, 73661, Note_on_c, 0, 61, 0
1, 73717, Note_on_c, 0, 56, 73
1, 73717, Note_on_c, 0, 44, 57
1, 73729, Note_on_c, 0, 52, 0
1, 73785, Note_on_c, 0, 61, 74
1, 73785, Note_on_c, 0, 44, 0
1, 73796, Note_on_c, 0, 56, 0
1, 73852, Note_on_c, 0, 64, 77
1, 73852, Note_on_c, 0, 37, 57
1, 73864, Note_on_c, 0, 61, 0
1, 73920, Note_on_c, 0, 56, 72
1, 73920, Note_on_c, 0, 37, 0
1, 73931, Note_on_c, 0, 64, 0
1, 73987, Note_on_c, 0, 61, 73
1, 73987, Note_on_c, 0, 44, 57
1, 73998, Note_on_c, 0, 56, 0
1, 74055, Note_on_c, 0, 64, 76
1, 74055, Note_on_c, 0, 44, 0
1, 74066, Note_on_c, 0, 61, 0
1, 74122, Note_on_c, 0, 68, 78
1, 74122, Note_on_c, 0, 37, 61
1, 74133, Note_on_c, 0, 64, 0
1, 74190, Note_on_c, 0, 61, 72
1, 74190, Note_on_c, 0, 37, 0
1, 74201, Note_on_c, 0, 68, 0
1, 74257, Note_on_c, 0, 64, 73
1, 74257, Note_on_c, 0, 44, 58
1, 74268, Note_on_c, 0, 61, 0
1, 74324, Note_on_c, 0, 68, 76
1, 74324, Note_on_c, 0, 44, 0
1, 74336, Note_on_c, 0, 64, 0
1, 74392, Note_on_c, 0, 73, 78
1, 74392, Note_on_c, 0, 37, 61
1, 74403, Note_on_c, 0, 68, 0
1, 74459, Note_on_c, 0, 64, 72
1, 74459, Note_on_c, 0, 37, 0
1, 74471, Note_on_c, 0, 73, 0
1, 74527, Note_on_c, 0, 68, 73
1, 74527, Note_on_c, 0, 44, 58
1, 74538, Note_on_c, 0, 64, 0
1, 74594, Note_on_c, 0, 73, 76
1, 74594, Note_on_c, 0, 44, 0
1, 74606, Note_on_c, 0, 68, 0
1, 74662, Note_on_c, 0, 76, 77
1, 74662, Note_on_c, 0, 37, 59
1, 74673, Note_on_c, 0, 73, 0
1, 74729, Note_on_c, 0, 68, 72
1, 74729, Note_on_c, 0, 37, 0
1, 74740, Note_on_c, 0, 76, 0
1, 74797, Note_on_c, 0, 73, 76
1, 74797, Note_on_c, 0, 44, 55
1, 74808, Note_on_c, 0, 68, 0
1, 74864, Note_on_c, 0, 76, 78
1, 74864, Note_on_c, 0, 44, 0
1, 74875, Note_on_c, 0, 73, 0
1, 74932, Note_on_c, 0, 76, 0
1, 74932, Note_on_c, 0, 76, 107
1, 74932, Note_on_c, 0, 80, 107
1, 74935, Note_on_c, 0, 73, 92
1, 74935, Note_on_c, 0, 68, 92
1, 74935, Control_c, 0, 64, 127
1, 74938, Control_c, 0, 64, 127
1, 74938, Note_on_c, 0, 49, 89
1, 74938, Note_on_c, 0, 37, 89
1, 75002, Note_on_c, 0, 68, 0
1, 75002, Note_on_c, 0, 76, 0
1, 75002, Note_on_c, 0, 80, 0
1, 75005, Note_on_c, 0, 73, 0
1, 75005, Note_on_c, 0, 37, 0
1, 75005, Note_on_c, 0, 49, 0
1, 75072, Note_on_c, 0, 68, 80
1, 75072, Note_on_c, 0, 80, 92
1, 75072, Note_on_c, 0, 73, 80
1, 75075, Note_on_c, 0, 76, 92
1, 75075, Note_on_c, 0, 44, 80
1, 75142, Note_on_c, 0, 76, 0
1, 75142, Note_on_c, 0, 68, 0
1, 75142, Note_on_c, 0, 80, 0
1, 75145, Note_on_c, 0, 73, 0
1, 75145, Note_on_c, 0, 44, 0
1, 75212, Note_on_c, 0, 36, 59
1, 75219, Control_c, 0, 64, 0
1, 75219, Control_c, 0, 64, 0
1, 75280, Note_on_c, 0, 44, 67
1, 75280, Note_on_c, 0, 36, 0
1, 75347, Note_on_c, 0, 48, 69
1, 75347, Note_on_c, 0, 44, 56
1, 75358, Note_on_c, 0, 44, 0
1, 75415, Note_on_c, 0, 51, 71
1, 75415, Note_on_c, 0, 44, 0
1, 75426, Note_on_c, 0, 48, 0
1, 75482, Note_on_c, 0, 56, 72
1, 75482, Note_on_c, 0, 36, 59
1, 75493, Note_on_c, 0, 51, 0
1, 75549, Note_on_c, 0, 48, 67
1, 75549, Note_on_c, 0, 36, 0
1, 75560, Note_on_c, 0, 56, 0
1, 75617, Note_on_c, 0, 51, 68
1, 75617, Note_on_c, 0, 44, 55
1, 75628, Note_on_c, 0, 48, 0
1, 75684, Note_on_c, 0, 56, 71
1, 75684, Note_on_c, 0, 44, 0
1, 75695, Note_on_c, 0, 51, 0
1, 75751, Note_on_c, 0, 60, 73
1, 75751, Note_on_c, 0, 36, 58
1, 75763, Note_on_c, 0, 56, 0
1, 75819, Note_on_c, 0, 51, 66
1, 75819, Note_on_c, 0, 36, 0
1, 75830, Note_on_c, 0, 60, 0
1, 75886, Note_on_c, 0, 56, 68
1, 75886, Note_on_c, 0, 44, 54
1, 75897, Note_on_c, 0, 51, 0
1, 75953, Note_on_c, 0, 60, 70
1, 75953, Note_on_c, 0, 44, 0
1, 75965, Note_on_c, 0, 56, 0
1, 76021, Note_on_c, 0, 63, 71
1, 76021, Note_on_c, 0, 36, 58
1, 76032, Note_on_c, 0, 60, 0
1, 76088, Note_on_c, 0, 56, 67
1, 76088, Note_on_c, 0, 36, 0
1, 76099, Note_on_c, 0, 63, 0
1, 76156, Note_on_c, 0, 60, 70
1, 76156, Note_on_c, 0, 44, 55
1, 76167, Note_on_c, 0, 56, 0
1, 76223, Note_on_c, 0, 63, 72
1, 76223, Note_on_c, 0, 44, 0
1, 76234, Note_on_c, 0, 60, 0
1, 76290, Note_on_c, 0, 68, 73
1, 76290, Note_on_c, 0, 36, 58
1, 76301, Note_on_c, 0, 63, 0
1, 76358, Note_on_c, 0, 60, 67
1, 76358, Note_on_c, 0, 36, 0
1, 76369, Note_on_c, 0, 68, 0
1, 76425, Note_on_c, 0, 63, 68
1, 76425, Note_on_c, 0, 44, 55
1, 76436, Note_on_c, 0, 60, 0
1, 76492, Note_on_c, 0, 68, 70
1, 76492, Note_on_c, 0, 44, 0
1, 76504, Note_on_c, 0, 63, 0
1, 76560, Note_on_c, 0, 72, 71
1, 76560, Note_on_c, 0, 36, 58
1, 76571, Note_on_c, 0, 68, 0
1, 76627, Note_on_c, 0, 63, 67
1, 76627, Note_on_c, 0, 36, 0
1, 76638, Note_on_c, 0, 72, 0
1, 76694, Note_on_c, 0, 68, 69
1, 76694, Note_on_c, 0, 44, 54
1, 76706, Note_on_c, 0, 63, 0
1, 76762, Note_on_c, 0, 72, 71
1, 76762, Note_on_c, 0, 44, 0
1, 76773, Note_on_c, 0, 68, 0
1, 76829, Note_on_c, 0, 75, 72
1, 76829, Note_on_c, 0, 36, 58
1, 76840, Note_on_c, 0, 72, 0
1, 76897, Note_on_c, 0, 68, 71
1, 76897, Note_on_c, 0, 36, 0
1, 76908, Note_on_c, 0, 75, 0
1, 76964, Note_on_c, 0, 72, 72
1, 76964, Note_on_c, 0, 44, 54
1, 76975, Note_on_c, 0, 68, 0
1, 77031, Note_on_c, 0, 75, 76
1, 77031, Note_on_c, 0, 44, 0
1, 77042, Note_on_c, 0, 72, 0
1, 77099, Note_on_c, 0, 75, 0
1, 77099, Control_c, 0, 64, 127
1, 77099, Note_on_c, 0, 68, 92
1, 77102, Note_on_c, 0, 72, 92
1, 77102, Note_on_c, 0, 75, 107
1, 77102, Note_on_c, 0, 80, 107
1, 77105, Control_c, 0, 64, 127
1, 77105, Note_on_c, 0, 48, 89
1, 77105, Note_on_c, 0, 36, 89
1, 77169, Note_on_c, 0, 80, 0
1, 77169, Note_on_c, 0, 68, 0
1, 77169, Note_on_c, 0, 72, 0
1, 77172, Note_on_c, 0, 75, 0
1, 77172, Note_on_c, 0, 36, 0
1, 77172, Note_on_c, 0, 48, 0
1, 77239, Note_on_c, 0, 68, 79
1, 77239, Note_on_c, 0, 72, 79
1, 77239, Note_on_c, 0, 75, 91
1, 77242, Note_on_c, 0, 80, 91
1, 77242, Note_on_c, 0, 44, 71
1, 77310, Note_on_c, 0, 80, 0
1, 77310, Note_on_c, 0, 68, 0
1, 77310, Note_on_c, 0, 72, 0
1, 77313, Note_on_c, 0, 75, 0
1, 77313, Note_on_c, 0, 44, 0
1, 77380, Control_c, 0, 64, 0
1, 77380, Control_c, 0, 64, 0
1, 77380, Note_on_c, 0, 35, 75
1, 77448, Note_on_c, 0, 49, 85
1, 77448, Note_on_c, 0, 35, 0
1, 77515, Note_on_c, 0, 53, 88
1, 77515, Note_on_c, 0, 44, 70
1, 77526, Note_on_c, 0, 49, 0
1, 77582, Note_on_c, 0, 56, 85
1, 77582, Note_on_c, 0, 44, 0
1, 77594, Note_on_c, 0, 53, 0
1, 77650, Note_on_c, 0, 61, 90
1, 77650, Note_on_c, 0, 35, 77
1, 77661, Note_on_c, 0, 56, 0
1, 77717, Note_on_c, 0, 52, 84
1, 77717, Note_on_c, 0, 35, 0
1, 77728, Note_on_c, 0, 61, 0
1, 77785, Note_on_c, 0, 56, 85
1, 77785, Note_on_c, 0, 44, 72
1, 77796, Note_on_c, 0, 52, 0
1, 77852, Note_on_c, 0, 61, 84
1, 77852, Note_on_c, 0, 44, 0
1, 77863, Note_on_c, 0, 56, 0
1, 77919, Note_on_c, 0, 65, 90
1, 77919, Note_on_c, 0, 35, 77
1, 77930, Note_on_c, 0, 61, 0
1, 77987, Note_on_c, 0, 56, 84
1, 77987, Note_on_c, 0, 35, 0
1, 77998, Note_on_c, 0, 65, 0
1, 78054, Note_on_c, 0, 61, 85
1, 78054, Note_on_c, 0, 44, 72
1, 78065, Note_on_c, 0, 56, 0
1, 78121, Note_on_c, 0, 65, 87
1, 78121, Note_on_c, 0, 44, 0
1, 78133, Note_on_c, 0, 61, 0
1, 78189, Note_on_c, 0, 68, 91
1, 78189, Note_on_c, 0, 35, 77
1, 78200, Note_on_c, 0, 65, 0
1, 78256, Note_on_c, 0, 61, 84
1, 78256, Note_on_c, 0, 35, 0
1, 78267, Note_on_c, 0, 68, 0
1, 78323, Note_on_c, 0, 65, 87
1, 78323, Note_on_c, 0, 44, 72
1, 78335, Note_on_c, 0, 61, 0
1, 78391, Note_on_c, 0, 68, 84
1, 78391, Note_on_c, 0, 44, 0
1, 78402, Note_on_c, 0, 65, 0
1, 78458, Note_on_c, 0, 73, 91
1, 78458, Note_on_c, 0, 35, 77
1, 78469, Note_on_c, 0, 68, 0
1, 78526, Note_on_c, 0, 65, 82
1, 78526, Note_on_c, 0, 35, 0
1, 78537, Note_on_c, 0, 73, 0
1, 78593, Note_on_c, 0, 68, 84
1, 78593, Note_on_c, 0, 44, 72
1, 78604, Note_on_c, 0, 65, 0
1, 78660, Note_on_c, 0, 73, 84
1, 78660, Note_on_c, 0, 44, 0
1, 78671, Note_on_c, 0, 68, 0
1, 78728, Note_on_c, 0, 77, 90
1, 78728, Note_on_c, 0, 35, 77
1, 78739, Note_on_c, 0, 73, 0
1, 78795, Note_on_c, 0, 68, 85
1, 78795, Note_on_c, 0, 35, 0
1, 78806, Note_on_c, 0, 77, 0
1, 78862, Note_on_c, 0, 73, 88
1, 78862, Note_on_c, 0, 44, 72
1, 78874, Note_on_c, 0, 68, 0
1, 78930, Note_on_c, 0, 77, 87
1, 78930, Note_on_c, 0, 44, 0
1, 78941, Note_on_c, 0, 73, 0
1, 78997, Note_on_c, 0, 80, 92
1, 78997, Note_on_c, 0, 35, 77
1, 79008, Note_on_c, 0, 77, 0
1, 79064, Note_on_c, 0, 73, 85
1, 79064, Note_on_c, 0, 35, 0
1, 79076, Note_on_c, 0, 80, 0
1, 79132, Note_on_c, 0, 77, 90
1, 79132, Note_on_c, 0, 44, 72
1, 79143, Note_on_c, 0, 73, 0
1, 79199, Note_on_c, 0, 80, 91
1, 79199, Note_on_c, 0, 44, 0
1, 79210, Note_on_c, 0, 77, 0
1, 79267, Note_on_c, 0, 80, 0
1, 79267, Note_on_c, 0, 77, 100
1, 79267, Note_on_c, 0, 80, 116
1, 79270, Note_on_c, 0, 73, 100
1, 79270, Control_c, 0, 64, 127
1, 79270, Note_on_c, 0, 85, 116
1, 79273, Note_on_c, 0, 47, 93
1, 79273, Note_on_c, 0, 35, 93
1, 79273, Control_c, 0, 64, 127
1, 79337, Note_on_c, 0, 85, 0
1, 79337, Note_on_c, 0, 77, 0
1, 79337, Note_on_c, 0, 80, 0
1, 79340, Note_on_c, 0, 73, 0
1, 79340, Note_on_c, 0, 35, 0
1, 79340, Note_on_c, 0, 47, 0
1, 79406, Note_on_c, 0, 77, 89
1, 79406, Note_on_c, 0, 73, 89
1, 79406, Note_on_c, 0, 80, 103
1, 79409, Note_on_c, 0, 85, 103
1, 79409, Note_on_c, 0, 44, 86
1, 79476, Note_on_c, 0, 85, 0
1, 79476, Note_on_c, 0, 77, 0
1, 79476, Note_on_c, 0, 73, 0
1, 79479, Note_on_c, 0, 80, 0
1, 79479, Note_on_c, 0, 44, 0
1, 79546, Control_c, 0, 64, 0
1, 79546, Note_on_c, 0, 33, 69
1, 79546, Control_c, 0, 64, 0
1, 79614, Note_on_c, 0, 49, 82
1, 79614, Note_on_c, 0, 33, 0
1, 79681, Note_on_c, 0, 54, 85
1, 79681, Note_on_c, 0, 45, 71
1, 79692, Note_on_c, 0, 49, 0
1, 79749, Note_on_c, 0, 57, 84
1, 79749, Note_on_c, 0, 45, 0
1, 79760, Note_on_c, 0, 54, 0
1, 79816, Note_on_c, 0, 61, 92
1, 79816, Note_on_c, 0, 33, 78
1, 79827, Note_on_c, 0, 57, 0
1, 79850, Note_on_c, 0, 61, 0
1, 79883, Note_on_c, 0, 61, 95
1, 79883, Note_on_c, 0, 33, 0
1, 79951, Note_on_c, 0, 66, 100
1, 79951, Note_on_c, 0, 45, 83
1, 79962, Note_on_c, 0, 61, 0
1, 80018, Note_on_c, 0, 69, 100
1, 80018, Note_on_c, 0, 45, 0
1, 80029, Note_on_c, 0, 66, 0
1, 80085, Note_on_c, 0, 73, 104
1, 80085, Note_on_c, 0, 33, 89
1, 80097, Note_on_c, 0, 69, 0
1, 80119, Note_on_c, 0, 73, 0
1, 80153, Note_on_c, 0, 73, 108
1, 80153, Note_on_c, 0, 33, 0
1, 80220, Note_on_c, 0, 78, 109
1, 80220, Note_on_c, 0, 45, 90
1, 80231, Note_on_c, 0, 73, 0
1, 80287, Note_on_c, 0, 81, 105
1, 80287, Note_on_c, 0, 45, 0
1, 80299, Note_on_c, 0, 78, 0
1, 80355, Note_on_c, 0, 78, 115
1, 80355, Control_c, 0, 64, 127
1, 80355, Note_on_c, 0, 73, 99
1, 80358, Note_on_c, 0, 85, 115
1, 80358, Note_on_c, 0, 33, 99
1, 80358, Control_c, 0, 64, 127
1, 80366, Note_on_c, 0, 81, 0
1, 80423, Note_on_c, 0, 78, 0
1, 80423, Note_on_c, 0, 73, 0
1, 80423, Note_on_c, 0, 85, 0
1, 80426, Note_on_c, 0, 33, 0
1, 80492, Note_on_c, 0, 73, 98
1, 80492, Note_on_c, 0, 78, 114
1, 80492, Note_on_c, 0, 85, 114
1, 80495, Note_on_c, 0, 45, 98
1, 80560, Note_on_c, 0, 85, 0
1, 80560, Note_on_c, 0, 78, 0
1, 80560, Note_on_c, 0, 73, 0
1, 80563, Note_on_c, 0, 45, 0
1, 80629, Control_c, 0, 64, 0
1, 80629, Control_c, 0, 64, 0
1, 80629, Note_on_c, 0, 33, 89
1, 80696, Note_on_c, 0, 49, 99
1, 80696, Note_on_c, 0, 33, 0
1, 80763, Note_on_c, 0, 52, 101
1, 80763, Note_on_c, 0, 45, 85
1, 80774, Note_on_c, 0, 49, 0
1, 80831, Note_on_c, 0, 55, 99
1, 80831, Note_on_c, 0, 45, 0
1, 80842, Note_on_c, 0, 52, 0
1, 80898, Note_on_c, 0, 61, 105
1, 80898, Note_on_c, 0, 33, 89
1, 80909, Note_on_c, 0, 55, 0
1, 80932, Note_on_c, 0, 61, 0
1, 80965, Note_on_c, 0, 61, 100
1, 80965, Note_on_c, 0, 33, 0
1, 81033, Note_on_c, 0, 64, 104
1, 81033, Note_on_c, 0, 45, 85
1, 81044, Note_on_c, 0, 61, 0
1, 81100, Note_on_c, 0, 67, 101
1, 81100, Note_on_c, 0, 45, 0
1, 81111, Note_on_c, 0, 64, 0
1, 81167, Note_on_c, 0, 73, 106
1, 81167, Note_on_c, 0, 33, 89
1, 81179, Note_on_c, 0, 67, 0
1, 81201, Note_on_c, 0, 73, 0
1, 81235, Note_on_c, 0, 73, 104
1, 81235, Note_on_c, 0, 33, 0
1, 81302, Note_on_c, 0, 76, 105
1, 81302, Note_on_c, 0, 45, 85
1, 81313, Note_on_c, 0, 73, 0
1, 81370, Note_on_c, 0, 79, 105
1, 81370, Note_on_c, 0, 45, 0
1, 81381, Note_on_c, 0, 76, 0
1, 81437, Note_on_c, 0, 79, 0
1, 81437, Control_c, 0, 64, 127
1, 81437, Note_on_c, 0, 79, 121
1, 81440, Note_on_c, 0, 73, 104
1, 81440, Note_on_c, 0, 85, 121
1, 81440, Note_on_c, 0, 33, 104
1, 81443, Control_c, 0, 64, 127
1, 81515, Note_on_c, 0, 85, 0
1, 81515, Note_on_c, 0, 73, 0
1, 81515, Note_on_c, 0, 79, 0
1, 81518, Note_on_c, 0, 33, 0
1, 81594, Note_on_c, 0, 85, 121
1, 81594, Note_on_c, 0, 73, 104
1, 81594, Note_on_c, 0, 79, 121
1, 81597, Note_on_c, 0, 45, 104
1, 81672, Note_on_c, 0, 79, 0
1, 81672, Note_on_c, 0, 73, 0
1, 81672, Note_on_c, 0, 85, 0
1, 81675, Note_on_c, 0, 45, 0
1, 81750, Control_c, 0, 64, 0
1, 81750, Note_on_c, 0, 84, 121
1, 81750, Note_on_c, 0, 80, 121
1, 81753, Note_on_c, 0, 72, 104
1, 81753, Note_on_c, 0, 44, 89
1, 81753, Note_on_c, 0, 32, 89
1, 81756, Control_c, 0, 64, 0
1, 81907, Note_on_c, 0, 72, 0
1, 81907, Note_on_c, 0, 80, 0
1, 81907, Note_on_c, 0, 84, 0
1, 81910, Note_on_c, 0, 68, 98
1, 81910, Note_on_c, 0, 32, 0
1, 81910, Note_on_c, 0, 44, 0
1, 81913, Note_on_c, 0, 60, 84
1, 81913, Note_on_c, 0, 56, 84
1, 81924, Control_c, 0, 64, 127
1, 81975, Note_on_c, 0, 68, 0
1, 81975, Note_on_c, 0, 80, 79
1, 82044, Note_on_c, 0, 80, 0
1, 82044, Note_on_c, 0, 68, 99
1, 82044, Note_on_c, 0, 60, 0
1, 82047, Note_on_c, 0, 60, 83
1, 82112, Note_on_c, 0, 68, 0
1, 82112, Note_on_c, 0, 80, 81
1, 82151, Control_c, 0, 64, 0
1, 82180, Note_on_c, 0, 80, 0
1, 82180, Note_on_c, 0, 70, 100
1, 82180, Note_on_c, 0, 60, 0
1, 82183, Note_on_c, 0, 61, 84
1, 82209, Control_c, 0, 64, 127
1, 82248, Note_on_c, 0, 70, 0
1, 82248, Note_on_c, 0, 80, 81
1, 82307, Control_c, 0, 64, 0
1, 82316, Note_on_c, 0, 80, 0
1, 82316, Note_on_c, 0, 72, 100
1, 82316, Note_on_c, 0, 61, 0
1, 82319, Note_on_c, 0, 63, 86
1, 82339, Control_c, 0, 64, 127
1, 82385, Note_on_c, 0, 72, 0
1, 82385, Note_on_c, 0, 80, 82
1, 82449, Control_c, 0, 64, 0
1, 82453, Note_on_c, 0, 80, 0
1, 82453, Note_on_c, 0, 73, 102
1, 82453, Note_on_c, 0, 63, 0
1, 82456, Note_on_c, 0, 64, 88
1, 82476, Control_c, 0, 64, 127
1, 82521, Note_on_c, 0, 73, 0
1, 82521, Note_on_c, 0, 80, 83
1, 82586, Control_c, 0, 64, 0
1, 82589, Note_on_c, 0, 80, 0
1, 82589, Note_on_c, 0, 75, 103
1, 82589, Note_on_c, 0, 64, 0
1, 82592, Note_on_c, 0, 66, 89
1, 82618, Control_c, 0, 64, 127
1, 82658, Note_on_c, 0, 75, 0
1, 82658, Note_on_c, 0, 80, 83
1, 82713, Control_c, 0, 64, 0
1, 82726, Note_on_c, 0, 80, 0
1, 82726, Note_on_c, 0, 72, 104
1, 82726, Note_on_c, 0, 66, 0
1, 82729, Note_on_c, 0, 63, 90
1, 82745, Control_c, 0, 64, 127
1, 82794, Note_on_c, 0, 72, 0
1, 82794, Note_on_c, 0, 80, 83
1, 82836, Control_c, 0, 64, 0
1, 82862, Note_on_c, 0, 80, 0
1, 82862, Note_on_c, 0, 75, 105
1, 82862, Note_on_c, 0, 63, 0
1, 82865, Note_on_c, 0, 66, 92
1, 82885, Control_c, 0, 64, 127
1, 82932, Note_on_c, 0, 75, 0
1, 82932, Note_on_c, 0, 80, 84
1, 82996, Control_c, 0, 64, 0
1, 83002, Note_on_c, 0, 80, 0
1, 83002, Note_on_c, 0, 73, 105
1, 83002, Note_on_c, 0, 66, 0
1, 83005, Note_on_c, 0, 64, 94
1, 83025, Control_c, 0, 64, 127
1, 83072, Note_on_c, 0, 73, 0
1, 83072, Note_on_c, 0, 80, 84
1, 83142, Note_on_c, 0, 80, 0
1, 83142, Note_on_c, 0, 78, 109
1, 83142, Note_on_c, 0, 64, 0
1, 83145, Note_on_c, 0, 69, 95
1, 83165, Control_c, 0, 64, 0
1, 83189, Control_c, 0, 64, 127
1, 83212, Note_on_c, 0, 78, 0
1, 83212, Note_on_c, 0, 80, 84
1, 83282, Note_on_c, 0, 80, 0
1, 83282, Note_on_c, 0, 76, 105
1, 83282, Note_on_c, 0, 69, 0
1, 83285, Note_on_c, 0, 68, 94
1, 83288, Control_c, 0, 64, 0
1, 83339, Control_c, 0, 64, 127
1, 83352, Note_on_c, 0, 76, 0
1, 83352, Note_on_c, 0, 80, 84
1, 83422, Note_on_c, 0, 80, 0
1, 83422, Note_on_c, 0, 75, 105
1, 83422, Note_on_c, 0, 68, 0
1, 83425, Note_on_c, 0, 66, 92
1, 83428, Control_c, 0, 64, 0
1, 83462, Control_c, 0, 64, 127
1, 83491, Note_on_c, 0, 75, 0
1, 83491, Note_on_c, 0, 80, 84
1, 83561, Note_on_c, 0, 80, 0
1, 83561, Note_on_c, 0, 73, 103
1, 83561, Note_on_c, 0, 66, 0
1, 83564, Note_on_c, 0, 64, 90
1, 83571, Control_c, 0, 64, 0
1, 83604, Control_c, 0, 64, 127
1, 83631, Note_on_c, 0, 73, 0
1, 83631, Note_on_c, 0, 80, 84
1, 83700, Note_on_c, 0, 80, 0
1, 83700, Note_on_c, 0, 72, 103
1, 83700, Note_on_c, 0, 64, 0
1, 83703, Note_on_c, 0, 63, 89
1, 83703, Control_c, 0, 64, 0
1, 83736, Control_c, 0, 64, 127
1, 83769, Note_on_c, 0, 72, 0
1, 83769, Note_on_c, 0, 80, 83
1, 83839, Note_on_c, 0, 80, 0
1, 83839, Note_on_c, 0, 69, 101
1, 83839, Note_on_c, 0, 63, 0
1, 83842, Control_c, 0, 64, 0
1, 83842, Note_on_c, 0, 61, 88
1, 83871, Control_c, 0, 64, 127
1, 83908, Note_on_c, 0, 69, 0
1, 83908, Note_on_c, 0, 79, 82
1, 83957, Control_c, 0, 64, 0
1, 83977, Note_on_c, 0, 79, 0
1, 83977, Note_on_c, 0, 68, 100
1, 83977, Note_on_c, 0, 61, 0
1, 83980, Note_on_c, 0, 56, 0
1, 83980, Note_on_c, 0, 60, 86
1, 83980, Note_on_c, 0, 56, 86
1, 84026, Control_c, 0, 64, 127
1, 84046, Note_on_c, 0, 68, 0
1, 84046, Note_on_c, 0, 80, 81
1, 84115, Note_on_c, 0, 80, 0
1, 84115, Note_on_c, 0, 68, 99
1, 84115, Note_on_c, 0, 60, 0
1, 84118, Note_on_c, 0, 60, 85
1, 84184, Note_on_c, 0, 68, 0
1, 84184, Note_on_c, 0, 80, 80
1, 84252, Note_on_c, 0, 80, 0
1, 84252, Note_on_c, 0, 68, 98
1, 84252, Note_on_c, 0, 60, 0
1, 84255, Note_on_c, 0, 60, 83
1, 84321, Note_on_c, 0, 68, 0
1, 84321, Note_on_c, 0, 80, 80
1, 84389, Note_on_c, 0, 80, 0
1, 84389, Note_on_c, 0, 70, 98
1, 84389, Note_on_c, 0, 60, 0
1, 84392, Note_on_c, 0, 61, 81
1, 84399, Control_c, 0, 64, 0
1, 84429, Control_c, 0, 64, 127
1, 84458, Note_on_c, 0, 70, 0
1, 84458, Note_on_c, 0, 80, 82
1, 84526, Note_on_c, 0, 80, 0
1, 84526, Note_on_c, 0, 72, 100
1, 84526, Note_on_c, 0, 61, 0
1, 84529, Note_on_c, 0, 63, 83
1, 84539, Control_c, 0, 64, 0
1, 84585, Control_c, 0, 64, 127
1, 84595, Note_on_c, 0, 72, 0
1, 84595, Note_on_c, 0, 80, 80
1, 84653, Control_c, 0, 64, 0
1, 84663, Note_on_c, 0, 80, 0
1, 84663, Note_on_c, 0, 73, 100
1, 84663, Note_on_c, 0, 63, 0
1, 84666, Note_on_c, 0, 64, 84
1, 84692, Control_c, 0, 64, 127
1, 84732, Note_on_c, 0, 73, 0
1, 84732, Note_on_c, 0, 80, 84
1, 84794, Control_c, 0, 64, 0
1, 84800, Note_on_c, 0, 80, 0
1, 84800, Note_on_c, 0, 75, 101
1, 84800, Note_on_c, 0, 64, 0
1, 84803, Note_on_c, 0, 66, 87
1, 84833, Control_c, 0, 64, 127
1, 84868, Note_on_c, 0, 75, 0
1, 84868, Note_on_c, 0, 80, 82
1, 84937, Note_on_c, 0, 80, 0
1, 84937, Note_on_c, 0, 72, 103
1, 84937, Note_on_c, 0, 66, 0
1, 84940, Control_c, 0, 64, 0
1, 84940, Note_on_c, 0, 63, 89
1, 84966, Control_c, 0, 64, 127
1, 85005, Note_on_c, 0, 72, 0
1, 85005, Note_on_c, 0, 80, 83
1, 85047, Control_c, 0, 64, 0
1, 85074, Note_on_c, 0, 80, 0
1, 85074, Note_on_c, 0, 75, 104
1, 85074, Note_on_c, 0, 63, 0
1, 85077, Note_on_c, 0, 66, 90
1, 85091, Control_c, 0, 64, 127
1, 85145, Note_on_c, 0, 75, 0
1, 85145, Note_on_c, 0, 80, 84
1, 85213, Control_c, 0, 64, 0
1, 85216, Note_on_c, 0, 80, 0
1, 85216, Note_on_c, 0, 73, 105
1, 85216, Note_on_c, 0, 66, 0
1, 85219, Note_on_c, 0, 64, 90
1, 85240, Control_c, 0, 64, 127
1, 85288, Note_on_c, 0, 73, 0
1, 85288, Note_on_c, 0, 80, 87
1, 85359, Note_on_c, 0, 80, 0
1, 85359, Note_on_c, 0, 78, 109
1, 85359, Note_on_c, 0, 64, 0
1, 85362, Note_on_c, 0, 69, 90
1, 85372, Control_c, 0, 64, 0
1, 85428, Note_on_c, 0, 78, 0
1, 85428, Note_on_c, 0, 80, 90
1, 85428, Control_c, 0, 64, 127
1, 85497, Note_on_c, 0, 80, 0
1, 85497, Note_on_c, 0, 76, 109
1, 85497, Note_on_c, 0, 69, 0
1, 85500, Note_on_c, 0, 68, 89
1, 85500, Control_c, 0, 64, 0
1, 85547, Control_c, 0, 64, 127
1, 85566, Note_on_c, 0, 76, 0
1, 85566, Note_on_c, 0, 80, 89
1, 85636, Note_on_c, 0, 80, 0
1, 85636, Note_on_c, 0, 75, 109
1, 85636, Note_on_c, 0, 68, 0
1, 85639, Note_on_c, 0, 66, 89
1, 85642, Control_c, 0, 64, 0
1, 85665, Control_c, 0, 64, 127
1, 85705, Note_on_c, 0, 75, 0
1, 85705, Note_on_c, 0, 80, 89
1, 85767, Control_c, 0, 64, 0
1, 85774, Note_on_c, 0, 80, 0
1, 85774, Note_on_c, 0, 73, 109
1, 85774, Note_on_c, 0, 66, 0
1, 85777, Note_on_c, 0, 64, 89
1, 85790, Control_c, 0, 64, 127
1, 85843, Note_on_c, 0, 73, 0
1, 85843, Note_on_c, 0, 80, 88
1, 85882, Control_c, 0, 64, 0
1, 85911, Note_on_c, 0, 80, 0
1, 85911, Note_on_c, 0, 72, 109
1, 85911, Note_on_c, 0, 64, 0
1, 85914, Note_on_c, 0, 63, 89
1, 85921, Control_c, 0, 64, 127
1, 85980, Note_on_c, 0, 72, 0
1, 85980, Note_on_c, 0, 80, 89
1, 86039, Control_c, 0, 64, 0
1, 86049, Note_on_c, 0, 80, 0
1, 86049, Note_on_c, 0, 69, 109
1, 86049, Note_on_c, 0, 63, 0
1, 86052, Note_on_c, 0, 61, 89
1, 86072, Control_c, 0, 64, 127
1, 86118, Note_on_c, 0, 69, 0
1, 86118, Note_on_c, 0, 79, 88
1, 86150, Control_c, 0, 64, 0
1, 86186, Note_on_c, 0, 79, 0
1, 86186, Note_on_c, 0, 68, 109
1, 86186, Note_on_c, 0, 61, 0
1, 86189, Note_on_c, 0, 56, 0
1, 86189, Note_on_c, 0, 56, 94
1, 86189, Note_on_c, 0, 60, 94
1, 86203, Control_c, 0, 64, 127
1, 86255, Note_on_c, 0, 68, 0
1, 86255, Note_on_c, 0, 80, 88
1, 86255, Note_on_c, 0, 60, 0
1, 86258, Note_on_c, 0, 56, 0
1, 86258, Control_c, 0, 64, 0
1, 86323, Note_on_c, 0, 80, 0
1, 86323, Note_on_c, 0, 69, 104
1, 86323, Note_on_c, 0, 61, 83
1, 86326, Note_on_c, 0, 56, 83
1, 86366, Control_c, 0, 64, 127
1, 86392, Note_on_c, 0, 69, 0
1, 86392, Note_on_c, 0, 79, 89
1, 86392, Note_on_c, 0, 56, 0
1, 86395, Note_on_c, 0, 61, 0
1, 86415, Control_c, 0, 64, 0
1, 86461, Note_on_c, 0, 79, 0
1, 86461, Note_on_c, 0, 68, 109
1, 86461, Note_on_c, 0, 60, 89
1, 86464, Note_on_c, 0, 56, 89
1, 86480, Control_c, 0, 64, 127
1, 86530, Note_on_c, 0, 68, 0
1, 86530, Note_on_c, 0, 80, 88
1, 86530, Note_on_c, 0, 56, 0
1, 86533, Note_on_c, 0, 60, 0
1, 86540, Control_c, 0, 64, 0
1, 86599, Note_on_c, 0, 80, 0
1, 86599, Note_on_c, 0, 69, 104
1, 86599, Note_on_c, 0, 61, 83
1, 86602, Note_on_c, 0, 56, 83
1, 86623, Control_c, 0, 64, 127
1, 86669, Note_on_c, 0, 69, 0
1, 86669, Note_on_c, 0, 79, 89
1, 86669, Note_on_c, 0, 56, 0
1, 86672, Note_on_c, 0, 61, 0
1, 86686, Control_c, 0, 64, 0
1, 86739, Note_on_c, 0, 79, 0
1, 86739, Note_on_c, 0, 68, 109
1, 86739, Note_on_c, 0, 60, 94
1, 86742, Note_on_c, 0, 56, 94
1, 86766, Control_c, 0, 64, 127
1, 86809, Note_on_c, 0, 68, 0
1, 86809, Note_on_c, 0, 80, 88
1, 86809, Note_on_c, 0, 56, 0
1, 86812, Note_on_c, 0, 60, 0
1, 86819, Control_c, 0, 64, 0
1, 86879, Note_on_c, 0, 80, 0
1, 86879, Note_on_c, 0, 69, 104
1, 86879, Note_on_c, 0, 61, 83
1, 86882, Note_on_c, 0, 56, 83
1, 86902, Control_c, 0, 64, 127
1, 86949, Note_on_c, 0, 69, 0
1, 86949, Note_on_c, 0, 79, 87
1, 86949, Note_on_c, 0, 56, 0
1, 86952, Note_on_c, 0, 61, 0
1, 86952, Control_c, 0, 64, 0
1, 87020, Note_on_c, 0, 79, 0
1, 87020, Note_on_c, 0, 68, 109
1, 87020, Note_on_c, 0, 60, 89
1, 87023, Note_on_c, 0, 56, 89
1, 87027, Control_c, 0, 64, 127
1, 87091, Note_on_c, 0, 68, 0
1, 87091, Note_on_c, 0, 80, 88
1, 87091, Note_on_c, 0, 56, 0
1, 87094, Note_on_c, 0, 60, 0
1, 87101, Control_c, 0, 64, 0
1, 87162, Note_on_c, 0, 80, 0
1, 87162, Note_on_c, 0, 69, 104
1, 87162, Note_on_c, 0, 61, 82
1, 87165, Note_on_c, 0, 56, 82
1, 87186, Control_c, 0, 64, 127
1, 87227, Control_c, 0, 64, 0
1, 87234, Note_on_c, 0, 69, 0
1, 87234, Note_on_c, 0, 79, 87
1, 87234, Note_on_c, 0, 56, 0
1, 87237, Note_on_c, 0, 61, 0
1, 87305, Note_on_c, 0, 79, 0
1, 87305, Note_on_c, 0, 68, 109
1, 87305, Note_on_c, 0, 80, 109
1, 87308, Control_c, 0, 64, 127
1, 87308, Note_on_c, 0, 56, 94
1, 87308, Note_on_c, 0, 60, 94
1, 87489, Note_on_c, 0, 80, 0
1, 87489, Note_on_c, 0, 68, 0
1, 87489, Note_on_c, 0, 60, 0
1, 87492, Note_on_c, 0, 56, 0
1, 87533, Control_c, 0, 64, 0
1, 87674, Note_on_c, 0, 56, 127
1, 87674, Note_on_c, 0, 32, 109
1, 87674, Note_on_c, 0, 44, 109
1, 87841, Control_c, 0, 64, 127
1, 89149, Control_c, 0, 64, 0
1, 89290, Note_on_c, 0, 56, 0
1, 89290, Note_on_c, 0, 44, 0
1, 89290, Note_on_c, 0, 32, 0
1, 89293, Note_on_c, 0, 37, 61
1, 89358, Note_on_c, 0, 44, 66
1, 89358, Note_on_c, 0, 37, 0
1, 89425, Note_on_c, 0, 49, 68
1, 89425, Note_on_c, 0, 44, 56
1, 89436, Note_on_c, 0, 44, 0
1, 89492, Note_on_c, 0, 52, 71
1, 89492, Note_on_c, 0, 44, 0
1, 89504, Note_on_c, 0, 49, 0
1, 89560, Note_on_c, 0, 56, 72
1, 89560, Note_on_c, 0, 37, 61
1, 89571, Note_on_c, 0, 52, 0
1, 89627, Note_on_c, 0, 49, 66
1, 89627, Note_on_c, 0, 37, 0
1, 89638, Note_on_c, 0, 56, 0
1, 89695, Note_on_c, 0, 52, 68
1, 89695, Note_on_c, 0, 44, 57
1, 89706, Note_on_c, 0, 49, 0
1, 89762, Note_on_c, 0, 56, 70
1, 89762, Note_on_c, 0, 44, 0
1, 89773, Note_on_c, 0, 52, 0
1, 89829, Note_on_c, 0, 61, 72
1, 89829, Note_on_c, 0, 37, 61
1, 89840, Note_on_c, 0, 56, 0
1, 89897, Note_on_c, 0, 52, 66
1, 89897, Note_on_c, 0, 37, 0
1, 89908, Note_on_c, 0, 61, 0
1, 89964, Note_on_c, 0, 56, 68
1, 89964, Note_on_c, 0, 44, 57
1, 89975, Note_on_c, 0, 52, 0
1, 90031, Note_on_c, 0, 61, 70
1, 90031, Note_on_c, 0, 44, 0
1, 90043, Note_on_c, 0, 56, 0
1, 90099, Note_on_c, 0, 64, 72
1, 90099, Note_on_c, 0, 37, 61
1, 90110, Note_on_c, 0, 61, 0
1, 90166, Note_on_c, 0, 56, 67
1, 90166, Note_on_c, 0, 37, 0
1, 90177, Note_on_c, 0, 64, 0
1, 90233, Note_on_c, 0, 61, 69
1, 90233, Note_on_c, 0, 44, 56
1, 90245, Note_on_c, 0, 56, 0
1, 90301, Note_on_c, 0, 64, 71
1, 90301, Note_on_c, 0, 44, 0
1, 90312, Note_on_c, 0, 61, 0
1, 90368, Note_on_c, 0, 68, 72
1, 90368, Note_on_c, 0, 37, 61
1, 90379, Note_on_c, 0, 64, 0
1, 90435, Note_on_c, 0, 61, 66
1, 90447, Note_on_c, 0, 68, 0
1, 90503, Note_on_c, 0, 64, 66
1, 90503, Note_on_c, 0, 37, 0
1, 90503, Note_on_c, 0, 44, 56
1, 90514, Note_on_c, 0, 61, 0
1, 90570, Note_on_c, 0, 68, 69
1, 90581, Note_on_c, 0, 64, 0
1, 90638, Note_on_c, 0, 73, 72
1, 90638, Note_on_c, 0, 44, 0
1, 90638, Note_on_c, 0, 37, 61
1, 90649, Note_on_c, 0, 68, 0
1, 90705, Note_on_c, 0, 64, 66
1, 90716, Note_on_c, 0, 73, 0
1, 90772, Note_on_c, 0, 68, 69
1, 90772, Note_on_c, 0, 37, 0
1, 90772, Note_on_c, 0, 44, 56
1, 90784, Note_on_c, 0, 64, 0
1, 90840, Note_on_c, 0, 73, 71
1, 90851, Note_on_c, 0, 68, 0
1, 90907, Note_on_c, 0, 76, 74
1, 90907, Note_on_c, 0, 44, 0
1, 90907, Note_on_c, 0, 37, 61
1, 90918, Note_on_c, 0, 73, 0
1, 90974, Note_on_c, 0, 76, 70
1, 90986, Note_on_c, 0, 76, 0
1, 91042, Note_on_c, 0, 80, 71
1, 91042, Note_on_c, 0, 37, 0
1, 91042, Note_on_c, 0, 44, 61
1, 91053, Note_on_c, 0, 76, 0
1, 91109, Note_on_c, 0, 85, 73
1, 91120, Note_on_c, 0, 80, 0
1, 91176, Note_on_c, 0, 85, 0
1, 91176, Note_on_c, 0, 76, 108
1, 91176, Control_c, 0, 64, 127
1, 91179, Note_on_c, 0, 88, 126
1, 91179, Note_on_c, 0, 44, 0
1, 91179, Note_on_c, 0, 49, 102
1, 91182, Control_c, 0, 64, 127
1, 91182, Note_on_c, 0, 37, 102
1, 91246, Note_on_c, 0, 88, 0
1, 91246, Note_on_c, 0, 76, 0
1, 91315, Note_on_c, 0, 76, 87
1, 91315, Note_on_c, 0, 88, 101
1, 91315, Note_on_c, 0, 37, 0
1, 91318, Note_on_c, 0, 49, 0
1, 91318, Note_on_c, 0, 44, 87
1, 91384, Note_on_c, 0, 88, 0
1, 91384, Note_on_c, 0, 76, 0
1, 91384, Note_on_c, 0, 44, 0
1, 91454, Control_c, 0, 64, 0
1, 91454, Note_on_c, 0, 34, 58
1, 91454, Control_c, 0, 64, 0
1, 91521, Note_on_c, 0, 52, 65
1, 91521, Note_on_c, 0, 34, 0
1, 91588, Note_on_c, 0, 55, 67
1, 91588, Note_on_c, 0, 49, 54
1, 91600, Note_on_c, 0, 52, 0
1, 91656, Note_on_c, 0, 61, 69
1, 91656, Note_on_c, 0, 49, 0
1, 91667, Note_on_c, 0, 55, 0
1, 91723, Note_on_c, 0, 64, 71
1, 91723, Note_on_c, 0, 46, 58
1, 91734, Note_on_c, 0, 61, 0
1, 91791, Note_on_c, 0, 54, 66
1, 91791, Note_on_c, 0, 46, 0
1, 91802, Note_on_c, 0, 64, 0
1, 91858, Note_on_c, 0, 61, 68
1, 91858, Note_on_c, 0, 49, 58
1, 91869, Note_on_c, 0, 54, 0
1, 91925, Note_on_c, 0, 64, 70
1, 91925, Note_on_c, 0, 49, 0
1, 91936, Note_on_c, 0, 61, 0
1, 91993, Note_on_c, 0, 67, 71
1, 91993, Note_on_c, 0, 46, 58
1, 92004, Note_on_c, 0, 64, 0
1, 92060, Note_on_c, 0, 61, 69
1, 92060, Note_on_c, 0, 46, 0
1, 92071, Note_on_c, 0, 67, 0
1, 92127, Note_on_c, 0, 64, 68
1, 92127, Note_on_c, 0, 49, 54
1, 92139, Note_on_c, 0, 61, 0
1, 92195, Note_on_c, 0, 66, 70
1, 92195, Note_on_c, 0, 49, 0
1, 92206, Note_on_c, 0, 64, 0
1, 92262, Note_on_c, 0, 73, 72
1, 92262, Note_on_c, 0, 46, 58
1, 92273, Note_on_c, 0, 66, 0
1, 92329, Note_on_c, 0, 64, 66
1, 92329, Note_on_c, 0, 46, 0
1, 92341, Note_on_c, 0, 73, 0
1, 92397, Note_on_c, 0, 66, 68
1, 92397, Note_on_c, 0, 49, 58
1, 92408, Note_on_c, 0, 64, 0
1, 92464, Note_on_c, 0, 73, 71
1, 92464, Note_on_c, 0, 49, 0
1, 92475, Note_on_c, 0, 66, 0
1, 92532, Note_on_c, 0, 76, 72
1, 92532, Note_on_c, 0, 46, 58
1, 92543, Note_on_c, 0, 73, 0
1, 92599, Note_on_c, 0, 67, 67
1, 92599, Note_on_c, 0, 46, 0
1, 92610, Note_on_c, 0, 76, 0
1, 92666, Note_on_c, 0, 73, 67
1, 92666, Note_on_c, 0, 49, 54
1, 92677, Note_on_c, 0, 67, 0
1, 92734, Note_on_c, 0, 76, 69
1, 92734, Note_on_c, 0, 49, 0
1, 92745, Note_on_c, 0, 73, 0
1, 92801, Note_on_c, 0, 79, 72
1, 92801, Note_on_c, 0, 46, 58
1, 92812, Note_on_c, 0, 76, 0
1, 92868, Note_on_c, 0, 73, 66
1, 92868, Note_on_c, 0, 46, 0
1, 92880, Note_on_c, 0, 79, 0
1, 92936, Note_on_c, 0, 76, 69
1, 92936, Note_on_c, 0, 49, 54
1, 92947, Note_on_c, 0, 73, 0
1, 93003, Note_on_c, 0, 78, 71
1, 93003, Note_on_c, 0, 49, 0
1, 93014, Note_on_c, 0, 76, 0
1, 93070, Note_on_c, 0, 85, 74
1, 93070, Note_on_c, 0, 46, 58
1, 93082, Note_on_c, 0, 78, 0
1, 93138, Note_on_c, 0, 76, 71
1, 93138, Note_on_c, 0, 46, 0
1, 93149, Note_on_c, 0, 85, 0
1, 93205, Note_on_c, 0, 78, 74
1, 93205, Note_on_c, 0, 49, 55
1, 93216, Note_on_c, 0, 76, 0
1, 93272, Note_on_c, 0, 85, 78
1, 93272, Note_on_c, 0, 49, 0
1, 93284, Note_on_c, 0, 78, 0
1, 93340, Note_on_c, 0, 85, 0
1, 93340, Note_on_c, 0, 88, 124
1, 93340, Control_c, 0, 64, 127
1, 93343, Note_on_c, 0, 76, 106
1, 93343, Note_on_c, 0, 46, 97
1, 93343, Control_c, 0, 64, 127
1, 93346, Note_on_c, 0, 34, 97
1, 93409, Note_on_c, 0, 76, 0
1, 93409, Note_on_c, 0, 88, 0
1, 93409, Note_on_c, 0, 34, 0
1, 93412, Note_on_c, 0, 46, 0
1, 93477, Note_on_c, 0, 76, 86
1, 93477, Note_on_c, 0, 88, 100
1, 93477, Note_on_c, 0, 49, 85
1, 93546, Note_on_c, 0, 88, 0
1, 93546, Note_on_c, 0, 76, 0
1, 93546, Note_on_c, 0, 49, 0
1, 93614, Control_c, 0, 64, 0
1, 93614, Note_on_c, 0, 31, 56
1, 93614, Control_c, 0, 64, 0
1, 93682, Note_on_c, 0, 51, 69
1, 93749, Note_on_c, 0, 58, 70
1, 93749, Note_on_c, 0, 31, 0
1, 93749, Note_on_c, 0, 51, 57
1, 93760, Note_on_c, 0, 51, 0
1, 93817, Note_on_c, 0, 61, 71
1, 93828, Note_on_c, 0, 58, 0
1, 93884, Note_on_c, 0, 63, 71
1, 93884, Note_on_c, 0, 51, 0
1, 93884, Note_on_c, 0, 43, 58
1, 93895, Note_on_c, 0, 61, 0
1, 93951, Note_on_c, 0, 58, 72
1, 93962, Note_on_c, 0, 63, 0
1, 94019, Note_on_c, 0, 61, 73
1, 94019, Note_on_c, 0, 43, 0
1, 94019, Note_on_c, 0, 51, 60
1, 94030, Note_on_c, 0, 58, 0
1, 94086, Note_on_c, 0, 63, 74
1, 94097, Note_on_c, 0, 61, 0
1, 94153, Note_on_c, 0, 70, 76
1, 94153, Note_on_c, 0, 51, 0
1, 94153, Note_on_c, 0, 43, 61
1, 94165, Note_on_c, 0, 63, 0
1, 94221, Note_on_c, 0, 61, 77
1, 94232, Note_on_c, 0, 70, 0
1, 94288, Note_on_c, 0, 63, 78
1, 94288, Note_on_c, 0, 43, 0
1, 94288, Note_on_c, 0, 51, 61
1, 94299, Note_on_c, 0, 61, 0
1, 94355, Note_on_c, 0, 70, 78
1, 94367, Note_on_c, 0, 63, 0
1, 94423, Note_on_c, 0, 73, 79
1, 94423, Note_on_c, 0, 51, 0
1, 94423, Note_on_c, 0, 43, 63
1, 94434, Note_on_c, 0, 70, 0
1, 94490, Note_on_c, 0, 63, 80
1, 94501, Note_on_c, 0, 73, 0
1, 94558, Note_on_c, 0, 70, 81
1, 94558, Note_on_c, 0, 43, 0
1, 94558, Note_on_c, 0, 51, 64
1, 94569, Note_on_c, 0, 63, 0
1, 94625, Note_on_c, 0, 73, 82
1, 94636, Note_on_c, 0, 70, 0
1, 94692, Note_on_c, 0, 75, 83
1, 94692, Note_on_c, 0, 51, 0
1, 94692, Note_on_c, 0, 43, 66
1, 94703, Note_on_c, 0, 73, 0
1, 94760, Note_on_c, 0, 70, 83
1, 94760, Note_on_c, 0, 43, 0
1, 94771, Note_on_c, 0, 75, 0
1, 94827, Note_on_c, 0, 73, 84
1, 94827, Note_on_c, 0, 51, 67
1, 94838, Note_on_c, 0, 70, 0
1, 94894, Note_on_c, 0, 75, 84
1, 94894, Note_on_c, 0, 51, 0
1, 94906, Note_on_c, 0, 73, 0
1, 94962, Note_on_c, 0, 82, 85
1, 94962, Note_on_c, 0, 43, 68
1, 94973, Note_on_c, 0, 75, 0
1, 95029, Note_on_c, 0, 73, 87
1, 95029, Note_on_c, 0, 43, 0
1, 95040, Note_on_c, 0, 82, 0
1, 95096, Note_on_c, 0, 75, 88
1, 95096, Note_on_c, 0, 51, 70
1, 95108, Note_on_c, 0, 73, 0
1, 95164, Note_on_c, 0, 82, 89
1, 95164, Note_on_c, 0, 51, 0
1, 95175, Note_on_c, 0, 75, 0
1, 95231, Note_on_c, 0, 85, 89
1, 95231, Note_on_c, 0, 43, 71
1, 95242, Note_on_c, 0, 82, 0
1, 95299, Note_on_c, 0, 82, 87
1, 95299, Note_on_c, 0, 43, 0
1, 95310, Note_on_c, 0, 85, 0
1, 95367, Note_on_c, 0, 75, 84
1, 95367, Note_on_c, 0, 51, 67
1, 95378, Note_on_c, 0, 82, 0
1, 95436, Note_on_c, 0, 73, 82
1, 95436, Note_on_c, 0, 51, 0
1, 95447, Note_on_c, 0, 75, 0
1, 95505, Note_on_c, 0, 82, 80
1, 95505, Note_on_c, 0, 43, 66
1, 95517, Note_on_c, 0, 73, 0
1, 95576, Note_on_c, 0, 75, 78
1, 95576, Note_on_c, 0, 43, 0
1, 95587, Note_on_c, 0, 82, 0
1, 95646, Note_on_c, 0, 73, 76
1, 95646, Note_on_c, 0, 51, 63
1, 95658, Note_on_c, 0, 75, 0
1, 95718, Note_on_c, 0, 70, 72
1, 95718, Note_on_c, 0, 51, 0
1, 95730, Note_on_c, 0, 73, 0
1, 95790, Note_on_c, 0, 71, 63
1, 95790, Note_on_c, 0, 44, 49
1, 95802, Note_on_c, 0, 70, 0
1, 95867, Note_on_c, 0, 51, 40
1, 95879, Note_on_c, 0, 44, 0
1, 95943, Note_on_c, 0, 71, 0
1, 95943, Note_on_c, 0, 47, 44
1, 95956, Note_on_c, 0, 51, 0
1, 96020, Note_on_c, 0, 51, 40
1, 96033, Note_on_c, 0, 47, 0
1, 96097, Note_on_c, 0, 75, 77
1, 96097, Note_on_c, 0, 44, 49
1, 96109, Note_on_c, 0, 51, 0
1, 96166, Note_on_c, 0, 51, 40
1, 96177, Note_on_c, 0, 44, 0
1, 96234, Note_on_c, 0, 47, 44
1, 96245, Note_on_c, 0, 51, 0
1, 96301, Note_on_c, 0, 51, 40
1, 96313, Note_on_c, 0, 47, 0
1, 96369, Note_on_c, 0, 44, 49
1, 96380, Note_on_c, 0, 51, 0
1, 96437, Note_on_c, 0, 51, 41
1, 96448, Note_on_c, 0, 44, 0
1, 96505, Note_on_c, 0, 47, 45
1, 96517, Note_on_c, 0, 51, 0
1, 96578, Note_on_c, 0, 51, 40
1, 96590, Note_on_c, 0, 47, 0
1, 96651, Note_on_c, 0, 71, 71
1, 96651, Note_on_c, 0, 44, 49
1, 96664, Note_on_c, 0, 75, 0
1, 96664, Note_on_c, 0, 51, 0
1, 96728, Note_on_c, 0, 51, 41
1, 96741, Note_on_c, 0, 44, 0
1, 96805, Note_on_c, 0, 47, 45
1, 96818, Note_on_c, 0, 51, 0
1, 96882, Note_on_c, 0, 71, 0
1, 96882, Note_on_c, 0, 68, 71
1, 96882, Note_on_c, 0, 51, 39
1, 96900, Note_on_c, 0, 47, 0
1, 96935, Note_on_c, 0, 68, 0
1, 96935, Note_on_c, 0, 67, 58
1, 96953, Note_on_c, 0, 67, 0
1, 96953, Note_on_c, 0, 68, 58
1, 96971, Note_on_c, 0, 68, 0
1, 96971, Note_on_c, 0, 70, 58
1, 96989, Note_on_c, 0, 70, 0
1, 96989, Note_on_c, 0, 68, 79
1, 96989, Note_on_c, 0, 46, 49
1, 97001, Note_on_c, 0, 51, 0
1, 97061, Note_on_c, 0, 51, 41
1, 97073, Note_on_c, 0, 46, 0
1, 97134, Note_on_c, 0, 49, 45
1, 97146, Note_on_c, 0, 51, 0
1, 97207, Note_on_c, 0, 51, 41
1, 97219, Note_on_c, 0, 49, 0
1, 97280, Note_on_c, 0, 67, 71
1, 97280, Note_on_c, 0, 46, 49
1, 97291, Note_on_c, 0, 68, 0
1, 97291, Note_on_c, 0, 51, 0
1, 97348, Note_on_c, 0, 51, 39
1, 97359, Note_on_c, 0, 46, 0
1, 97415, Note_on_c, 0, 49, 45
1, 97427, Note_on_c, 0, 51, 0
1, 97483, Note_on_c, 0, 51, 43
1, 97494, Note_on_c, 0, 49, 0
1, 97551, Note_on_c, 0, 46, 49
1, 97562, Note_on_c, 0, 51, 0
1, 97619, Note_on_c, 0, 51, 41
1, 97630, Note_on_c, 0, 46, 0
1, 97687, Note_on_c, 0, 67, 0
1, 97687, Note_on_c, 0, 67, 71
1, 97687, Note_on_c, 0, 49, 45
1, 97699, Note_on_c, 0, 51, 0
1, 97761, Note_on_c, 0, 51, 40
1, 97774, Note_on_c, 0, 49, 0
1, 97836, Note_on_c, 0, 75, 83
1, 97836, Note_on_c, 0, 46, 49
1, 97849, Note_on_c, 0, 67, 0
1, 97849, Note_on_c, 0, 51, 0
1, 97913, Note_on_c, 0, 51, 41
1, 97926, Note_on_c, 0, 46, 0
1, 97991, Note_on_c, 0, 49, 45
1, 98004, Note_on_c, 0, 51, 0
1, 98068, Note_on_c, 0, 75, 0
1, 98068, Note_on_c, 0, 67, 72
1, 98068, Note_on_c, 0, 51, 41
1, 98081, Note_on_c, 0, 49, 0
1, 98107, Note_on_c, 0, 67, 0
1, 98146, Note_on_c, 0, 70, 66
1, 98146, Note_on_c, 0, 47, 49
1, 98158, Note_on_c, 0, 51, 0
1, 98218, Note_on_c, 0, 51, 45
1, 98230, Note_on_c, 0, 47, 0
1, 98291, Note_on_c, 0, 47, 46
1, 98303, Note_on_c, 0, 51, 0
1, 98364, Note_on_c, 0, 51, 41
1, 98376, Note_on_c, 0, 47, 0
1, 98436, Note_on_c, 0, 68, 71
1, 98436, Note_on_c, 0, 47, 48
1, 98447, Note_on_c, 0, 70, 0
1, 98447, Note_on_c, 0, 51, 0
1, 98503, Note_on_c, 0, 51, 39
1, 98515, Note_on_c, 0, 47, 0
1, 98571, Note_on_c, 0, 47, 44
1, 98582, Note_on_c, 0, 51, 0
1, 98638, Note_on_c, 0, 51, 40
1, 98649, Note_on_c, 0, 47, 0
1, 98706, Note_on_c, 0, 47, 49
1, 98717, Note_on_c, 0, 51, 0
1, 98773, Note_on_c, 0, 51, 40
1, 98784, Note_on_c, 0, 47, 0
1, 98840, Note_on_c, 0, 68, 0
1, 98840, Note_on_c, 0, 68, 68
1, 98840, Note_on_c, 0, 47, 46
1, 98852, Note_on_c, 0, 51, 0
1, 98912, Note_on_c, 0, 51, 41
1, 98924, Note_on_c, 0, 47, 0
1, 98984, Note_on_c, 0, 75, 84
1, 98984, Note_on_c, 0, 47, 48
1, 98997, Note_on_c, 0, 68, 0
1, 98997, Note_on_c, 0, 51, 0
1, 99061, Note_on_c, 0, 51, 41
1, 99074, Note_on_c, 0, 47, 0
1, 99138, Note_on_c, 0, 47, 45
1, 99151, Note_on_c, 0, 51, 0
1, 99215, Note_on_c, 0, 68, 71
1, 99215, Note_on_c, 0, 51, 40
1, 99228, Note_on_c, 0, 75, 0
1, 99228, Note_on_c, 0, 47, 0
1, 99292, Note_on_c, 0, 71, 72
1, 99292, Note_on_c, 0, 43, 48
1, 99304, Note_on_c, 0, 68, 0
1, 99304, Note_on_c, 0, 51, 0
1, 99365, Note_on_c, 0, 51, 45
1, 99377, Note_on_c, 0, 43, 0
1, 99438, Note_on_c, 0, 43, 45
1, 99450, Note_on_c, 0, 51, 0
1, 99510, Note_on_c, 0, 51, 41
1, 99522, Note_on_c, 0, 43, 0
1, 99583, Note_on_c, 0, 70, 71
1, 99583, Note_on_c, 0, 43, 48
1, 99594, Note_on_c, 0, 71, 0
1, 99594, Note_on_c, 0, 51, 0
1, 99650, Note_on_c, 0, 51, 46
1, 99662, Note_on_c, 0, 43, 0
1, 99718, Note_on_c, 0, 43, 46
1, 99730, Note_on_c, 0, 51, 0
1, 99786, Note_on_c, 0, 51, 43
1, 99797, Note_on_c, 0, 43, 0
1, 99854, Note_on_c, 0, 43, 48
1, 99865, Note_on_c, 0, 51, 0
1, 99922, Note_on_c, 0, 51, 43
1, 99933, Note_on_c, 0, 43, 0
1, 99989, Note_on_c, 0, 70, 0
1, 99989, Note_on_c, 0, 70, 72
1, 99989, Note_on_c, 0, 43, 47
1, 100002, Note_on_c, 0, 51, 0
1, 100066, Note_on_c, 0, 51, 41
1, 100079, Note_on_c, 0, 43, 0
1, 100143, Note_on_c, 0, 75, 68
1, 100143, Note_on_c, 0, 43, 48
1, 100156, Note_on_c, 0, 70, 0
1, 100156, Note_on_c, 0, 51, 0
1, 100220, Note_on_c, 0, 51, 39
1, 100233, Note_on_c, 0, 43, 0
1, 100297, Note_on_c, 0, 43, 44
1, 100310, Note_on_c, 0, 51, 0
1, 100374, Note_on_c, 0, 75, 0
1, 100374, Note_on_c, 0, 70, 72
1, 100374, Note_on_c, 0, 51, 40
1, 100387, Note_on_c, 0, 43, 0
1, 100451, Note_on_c, 0, 71, 74
1, 100451, Note_on_c, 0, 44, 56
1, 100463, Note_on_c, 0, 70, 0
1, 100463, Note_on_c, 0, 51, 0
1, 100521, Note_on_c, 0, 51, 49
1, 100532, Note_on_c, 0, 44, 0
1, 100590, Note_on_c, 0, 71, 0
1, 100590, Note_on_c, 0, 87, 74
1, 100590, Note_on_c, 0, 75, 74
1, 100593, Note_on_c, 0, 47, 52
1, 100601, Note_on_c, 0, 51, 0
1, 100659, Note_on_c, 0, 51, 47
1, 100671, Note_on_c, 0, 47, 0
1, 100728, Note_on_c, 0, 44, 58
1, 100740, Note_on_c, 0, 51, 0
1, 100798, Note_on_c, 0, 51, 47
1, 100809, Note_on_c, 0, 44, 0
1, 100867, Note_on_c, 0, 75, 0
1, 100867, Note_on_c, 0, 87, 0
1, 100867, Note_on_c, 0, 75, 73
1, 100870, Note_on_c, 0, 87, 73
1, 100870, Note_on_c, 0, 47, 51
1, 100879, Note_on_c, 0, 51, 0
1, 100936, Note_on_c, 0, 51, 47
1, 100948, Note_on_c, 0, 47, 0
1, 101006, Note_on_c, 0, 44, 59
1, 101017, Note_on_c, 0, 51, 0
1, 101075, Note_on_c, 0, 51, 48
1, 101087, Note_on_c, 0, 44, 0
1, 101144, Note_on_c, 0, 87, 0
1, 101144, Note_on_c, 0, 75, 0
1, 101144, Note_on_c, 0, 75, 71
1, 101147, Note_on_c, 0, 87, 71
1, 101147, Note_on_c, 0, 47, 52
1, 101156, Note_on_c, 0, 51, 0
1, 101212, Note_on_c, 0, 87, 0
1, 101212, Note_on_c, 0, 75, 0
1, 101212, Note_on_c, 0, 51, 48
1, 101223, Note_on_c, 0, 47, 0
1, 101279, Note_on_c, 0, 71, 73
1, 101279, Note_on_c, 0, 83, 73
1, 101279, Note_on_c, 0, 44, 61
1, 101290, Note_on_c, 0, 51, 0
1, 101346, Note_on_c, 0, 83, 0
1, 101346, Note_on_c, 0, 71, 0
1, 101346, Note_on_c, 0, 51, 49
1, 101358, Note_on_c, 0, 44, 0
1, 101414, Note_on_c, 0, 80, 74
1, 101414, Note_on_c, 0, 68, 74
1, 101414, Note_on_c, 0, 47, 54
1, 101425, Note_on_c, 0, 51, 0
1, 101481, Note_on_c, 0, 68, 0
1, 101481, Note_on_c, 0, 80, 0
1, 101481, Note_on_c, 0, 51, 49
1, 101492, Note_on_c, 0, 47, 0
1, 101548, Note_on_c, 0, 68, 77
1, 101548, Note_on_c, 0, 80, 77
1, 101548, Note_on_c, 0, 46, 65
1, 101560, Note_on_c, 0, 51, 0
1, 101616, Note_on_c, 0, 80, 0
1, 101616, Note_on_c, 0, 68, 0
1, 101616, Note_on_c, 0, 51, 50
1, 101627, Note_on_c, 0, 46, 0
1, 101683, Note_on_c, 0, 67, 78
1, 101683, Note_on_c, 0, 79, 78
1, 101683, Note_on_c, 0, 49, 56
1, 101695, Note_on_c, 0, 51, 0
1, 101753, Note_on_c, 0, 51, 50
1, 101765, Note_on_c, 0, 49, 0
1, 101823, Note_on_c, 0, 46, 66
1, 101834, Note_on_c, 0, 51, 0
1, 101892, Note_on_c, 0, 51, 52
1, 101904, Note_on_c, 0, 46, 0
1, 101962, Note_on_c, 0, 79, 0
1, 101962, Note_on_c, 0, 67, 0
1, 101962, Note_on_c, 0, 79, 83
1, 101965, Note_on_c, 0, 67, 83
1, 101965, Note_on_c, 0, 49, 58
1, 101974, Note_on_c, 0, 51, 0
1, 102032, Note_on_c, 0, 51, 58
1, 102044, Note_on_c, 0, 49, 0
1, 102102, Note_on_c, 0, 46, 68
1, 102113, Note_on_c, 0, 51, 0
1, 102172, Note_on_c, 0, 51, 52
1, 102183, Note_on_c, 0, 46, 0
1, 102241, Note_on_c, 0, 67, 0
1, 102241, Note_on_c, 0, 79, 0
1, 102241, Note_on_c, 0, 79, 85
1, 102244, Note_on_c, 0, 67, 85
1, 102244, Note_on_c, 0, 49, 59
1, 102253, Note_on_c, 0, 51, 0
1, 102309, Note_on_c, 0, 67, 0
1, 102309, Note_on_c, 0, 79, 0
1, 102309, Note_on_c, 0, 51, 52
1, 102320, Note_on_c, 0, 49, 0
1, 102376, Note_on_c, 0, 75, 87
1, 102376, Note_on_c, 0, 87, 87
1, 102376, Note_on_c, 0, 46, 69
1, 102387, Note_on_c, 0, 51, 0
1, 102443, Note_on_c, 0, 87, 0
1, 102443, Note_on_c, 0, 75, 0
1, 102443, Note_on_c, 0, 51, 60
1, 102455, Note_on_c, 0, 46, 0
1, 102511, Note_on_c, 0, 67, 89
1, 102511, Note_on_c, 0, 79, 89
1, 102511, Note_on_c, 0, 49, 63
1, 102522, Note_on_c, 0, 51, 0
1, 102578, Note_on_c, 0, 79, 0
1, 102578, Note_on_c, 0, 67, 0
1, 102578, Note_on_c, 0, 51, 60
1, 102589, Note_on_c, 0, 49, 0
1, 102645, Note_on_c, 0, 82, 91
1, 102645, Note_on_c, 0, 70, 91
1, 102645, Note_on_c, 0, 47, 71
1, 102657, Note_on_c, 0, 51, 0
1, 102713, Note_on_c, 0, 70, 0
1, 102713, Note_on_c, 0, 82, 0
1, 102713, Note_on_c, 0, 51, 61
1, 102724, Note_on_c, 0, 47, 0
1, 102780, Note_on_c, 0, 68, 92
1, 102780, Note_on_c, 0, 80, 92
1, 102780, Note_on_c, 0, 47, 66
1, 102792, Note_on_c, 0, 51, 0
1, 102850, Note_on_c, 0, 51, 61
1, 102862, Note_on_c, 0, 47, 0
1, 102920, Note_on_c, 0, 47, 72
1, 102931, Note_on_c, 0, 51, 0
1, 102989, Note_on_c, 0, 51, 62
1, 103001, Note_on_c, 0, 47, 0
1, 103059, Note_on_c, 0, 80, 0
1, 103059, Note_on_c, 0, 68, 0
1, 103059, Note_on_c, 0, 68, 96
1, 103062, Note_on_c, 0, 80, 96
1, 103062, Note_on_c, 0, 47, 67
1, 103071, Note_on_c, 0, 51, 0
1, 103129, Note_on_c, 0, 51, 62
1, 103141, Note_on_c, 0, 47, 0
1, 103199, Note_on_c, 0, 47, 77
1, 103210, Note_on_c, 0, 51, 0
1, 103269, Note_on_c, 0, 51, 65
1, 103280, Note_on_c, 0, 47, 0
1, 103338, Note_on_c, 0, 80, 0
1, 103338, Note_on_c, 0, 68, 0
1, 103338, Note_on_c, 0, 80, 99
1, 103341, Note_on_c, 0, 68, 99
1, 103341, Note_on_c, 0, 47, 69
1, 103350, Note_on_c, 0, 51, 0
1, 103406, Note_on_c, 0, 68, 0
1, 103406, Note_on_c, 0, 80, 0
1, 103406, Note_on_c, 0, 51, 63
1, 103418, Note_on_c, 0, 47, 0
1, 103474, Note_on_c, 0, 87, 102
1, 103474, Note_on_c, 0, 75, 102
1, 103474, Note_on_c, 0, 47, 78
1, 103486, Note_on_c, 0, 51, 0
1, 103542, Note_on_c, 0, 75, 0
1, 103542, Note_on_c, 0, 87, 0
1, 103542, Note_on_c, 0, 51, 66
1, 103554, Note_on_c, 0, 47, 0
1, 103610, Note_on_c, 0, 68, 103
1, 103610, Note_on_c, 0, 80, 103
1, 103610, Note_on_c, 0, 47, 71
1, 103622, Note_on_c, 0, 51, 0
1, 103678, Note_on_c, 0, 80, 0
1, 103678, Note_on_c, 0, 68, 0
1, 103678, Note_on_c, 0, 51, 66
1, 103690, Note_on_c, 0, 47, 0
1, 103746, Note_on_c, 0, 71, 104
1, 103746, Note_on_c, 0, 83, 104
1, 103746, Note_on_c, 0, 43, 80
1, 103758, Note_on_c, 0, 51, 0
1, 103814, Note_on_c, 0, 83, 0
1, 103814, Note_on_c, 0, 71, 0
1, 103814, Note_on_c, 0, 51, 72
1, 103826, Note_on_c, 0, 43, 0
1, 103882, Note_on_c, 0, 70, 106
1, 103882, Note_on_c, 0, 82, 106
1, 103882, Note_on_c, 0, 43, 77
1, 103894, Note_on_c, 0, 51, 0
1, 103951, Note_on_c, 0, 51, 71
1, 103963, Note_on_c, 0, 43, 0
1, 104020, Note_on_c, 0, 43, 81
1, 104032, Note_on_c, 0, 51, 0
1, 104089, Note_on_c, 0, 51, 73
1, 104101, Note_on_c, 0, 43, 0
1, 104159, Note_on_c, 0, 82, 0
1, 104159, Note_on_c, 0, 70, 0
1, 104159, Note_on_c, 0, 70, 110
1, 104162, Note_on_c, 0, 82, 110
1, 104162, Note_on_c, 0, 43, 78
1, 104170, Note_on_c, 0, 51, 0
1, 104228, Note_on_c, 0, 51, 72
1, 104239, Note_on_c, 0, 43, 0
1, 104297, Note_on_c, 0, 43, 84
1, 104308, Note_on_c, 0, 51, 0
1, 104366, Note_on_c, 0, 51, 74
1, 104377, Note_on_c, 0, 43, 0
1, 104435, Note_on_c, 0, 82, 0
1, 104435, Note_on_c, 0, 70, 0
1, 104435, Note_on_c, 0, 70, 110
1, 104438, Note_on_c, 0, 82, 110
1, 104438, Note_on_c, 0, 43, 80
1, 104446, Note_on_c, 0, 51, 0
1, 104504, Note_on_c, 0, 82, 0
1, 104504, Note_on_c, 0, 70, 0
1, 104504, Note_on_c, 0, 51, 73
1, 104516, Note_on_c, 0, 43, 0
1, 104573, Note_on_c, 0, 87, 110
1, 104573, Note_on_c, 0, 75, 110
1, 104573, Note_on_c, 0, 43, 84
1, 104585, Note_on_c, 0, 51, 0
1, 104642, Note_on_c, 0, 75, 0
1, 104642, Note_on_c, 0, 87, 0
1, 104642, Note_on_c, 0, 51, 74
1, 104654, Note_on_c, 0, 43, 0
1, 104711, Note_on_c, 0, 82, 110
1, 104711, Note_on_c, 0, 70, 110
1, 104711, Note_on_c, 0, 43, 81
1, 104723, Note_on_c, 0, 51, 0
1, 104780, Note_on_c, 0, 70, 0
1, 104780, Note_on_c, 0, 82, 0
1, 104780, Note_on_c, 0, 51, 73
1, 104792, Note_on_c, 0, 43, 0
1, 104849, Note_on_c, 0, 72, 113
1, 104849, Note_on_c, 0, 84, 113
1, 104849, Note_on_c, 0, 42, 88
1, 104861, Note_on_c, 0, 51, 0
1, 104917, Note_on_c, 0, 51, 78
1, 104928, Note_on_c, 0, 42, 0
1, 104984, Note_on_c, 0, 44, 82
1, 104995, Note_on_c, 0, 51, 0
1, 105052, Note_on_c, 0, 51, 76
1, 105063, Note_on_c, 0, 44, 0
1, 105119, Note_on_c, 0, 42, 88
1, 105130, Note_on_c, 0, 51, 0
1, 105186, Note_on_c, 0, 51, 77
1, 105197, Note_on_c, 0, 42, 0
1, 105254, Note_on_c, 0, 44, 82
1, 105265, Note_on_c, 0, 51, 0
1, 105321, Note_on_c, 0, 51, 77
1, 105332, Note_on_c, 0, 44, 0
1, 105388, Note_on_c, 0, 84, 0
1, 105388, Note_on_c, 0, 72, 0
1, 105388, Note_on_c, 0, 73, 113
1, 105391, Note_on_c, 0, 85, 113
1, 105391, Note_on_c, 0, 40, 88
1, 105400, Note_on_c, 0, 51, 0
1, 105456, Note_on_c, 0, 49, 79
1, 105467, Note_on_c, 0, 40, 0
1, 105523, Note_on_c, 0, 44, 83
1, 105534, Note_on_c, 0, 49, 0
1, 105590, Note_on_c, 0, 49, 77
1, 105602, Note_on_c, 0, 44, 0
1, 105658, Note_on_c, 0, 40, 88
1, 105669, Note_on_c, 0, 49, 0
1, 105725, Note_on_c, 0, 49, 76
1, 105736, Note_on_c, 0, 40, 0
1, 105793, Note_on_c, 0, 44, 82
1, 105804, Note_on_c, 0, 49, 0
1, 105860, Note_on_c, 0, 49, 82
1, 105871, Note_on_c, 0, 44, 0
1, 105927, Note_on_c, 0, 85, 0
1, 105927, Note_on_c, 0, 73, 0
1, 105927, Note_on_c, 0, 70, 98
1, 105930, Note_on_c, 0, 82, 98
1, 105930, Note_on_c, 0, 40, 88
1, 105930, Control_c, 0, 64, 127
1, 105939, Note_on_c, 0, 49, 0
1, 105971, Note_on_c, 0, 82, 0
1, 105971, Note_on_c, 0, 83, 92
1, 105997, Note_on_c, 0, 49, 77
1, 106009, Note_on_c, 0, 40, 0
1, 106015, Note_on_c, 0, 83, 0
1, 106015, Note_on_c, 0, 82, 98
1, 106058, Note_on_c, 0, 82, 0
1, 106058, Note_on_c, 0, 83, 92
1, 106067, Note_on_c, 0, 42, 82
1, 106079, Note_on_c, 0, 49, 0
1, 106102, Note_on_c, 0, 83, 0
1, 106102, Note_on_c, 0, 80, 98
1, 106137, Note_on_c, 0, 49, 74
1, 106149, Note_on_c, 0, 42, 0
1, 106155, Note_on_c, 0, 80, 0
1, 106155, Note_on_c, 0, 82, 93
1, 106207, Note_on_c, 0, 82, 0
1, 106207, Note_on_c, 0, 70, 0
1, 106207, Note_on_c, 0, 71, 113
1, 106210, Note_on_c, 0, 83, 113
1, 106210, Note_on_c, 0, 39, 88
1, 106215, Control_c, 0, 64, 0
1, 106218, Note_on_c, 0, 49, 0
1, 106275, Note_on_c, 0, 47, 76
1, 106286, Note_on_c, 0, 39, 0
1, 106342, Note_on_c, 0, 42, 83
1, 106353, Note_on_c, 0, 47, 0
1, 106409, Note_on_c, 0, 47, 76
1, 106420, Note_on_c, 0, 42, 0
1, 106477, Note_on_c, 0, 39, 88
1, 106488, Note_on_c, 0, 47, 0
1, 106544, Note_on_c, 0, 47, 76
1, 106555, Note_on_c, 0, 39, 0
1, 106611, Note_on_c, 0, 42, 82
1, 106623, Note_on_c, 0, 47, 0
1, 106679, Note_on_c, 0, 47, 76
1, 106690, Note_on_c, 0, 42, 0
1, 106746, Note_on_c, 0, 39, 88
1, 106757, Note_on_c, 0, 47, 0
1, 106813, Note_on_c, 0, 47, 74
1, 106825, Note_on_c, 0, 39, 0
1, 106881, Note_on_c, 0, 42, 81
1, 106892, Note_on_c, 0, 47, 0
1, 106948, Note_on_c, 0, 47, 81
1, 106959, Note_on_c, 0, 42, 0
1, 107016, Note_on_c, 0, 83, 0
1, 107016, Note_on_c, 0, 71, 0
1, 107016, Note_on_c, 0, 80, 113
1, 107019, Note_on_c, 0, 68, 113
1, 107019, Note_on_c, 0, 38, 88
1, 107027, Note_on_c, 0, 47, 0
1, 107084, Note_on_c, 0, 47, 77
1, 107096, Note_on_c, 0, 38, 0
1, 107153, Note_on_c, 0, 40, 84
1, 107164, Note_on_c, 0, 47, 0
1, 107221, Note_on_c, 0, 47, 74
1, 107233, Note_on_c, 0, 40, 0
1, 107290, Note_on_c, 0, 38, 88
1, 107302, Note_on_c, 0, 47, 0
1, 107359, Note_on_c, 0, 47, 77
1, 107370, Note_on_c, 0, 38, 0
1, 107427, Note_on_c, 0, 40, 84
1, 107439, Note_on_c, 0, 47, 0
1, 107496, Note_on_c, 0, 47, 76
1, 107507, Note_on_c, 0, 40, 0
1, 107565, Note_on_c, 0, 68, 0
1, 107565, Note_on_c, 0, 80, 0
1, 107565, Note_on_c, 0, 69, 112
1, 107568, Note_on_c, 0, 81, 112
1, 107568, Note_on_c, 0, 37, 88
1, 107576, Note_on_c, 0, 47, 0
1, 107633, Note_on_c, 0, 45, 77
1, 107644, Note_on_c, 0, 37, 0
1, 107701, Note_on_c, 0, 40, 83
1, 107712, Note_on_c, 0, 45, 0
1, 107769, Note_on_c, 0, 45, 76
1, 107781, Note_on_c, 0, 40, 0
1, 107838, Note_on_c, 0, 37, 88
1, 107849, Note_on_c, 0, 45, 0
1, 107906, Note_on_c, 0, 45, 77
1, 107917, Note_on_c, 0, 37, 0
1, 107974, Note_on_c, 0, 40, 83
1, 107985, Note_on_c, 0, 45, 0
1, 108042, Note_on_c, 0, 45, 77
1, 108054, Note_on_c, 0, 40, 0
1, 108110, Note_on_c, 0, 81, 0
1, 108110, Note_on_c, 0, 69, 0
1, 108110, Note_on_c, 0, 67, 96
1, 108113, Note_on_c, 0, 79, 96
1, 108113, Note_on_c, 0, 37, 88
1, 108118, Control_c, 0, 64, 127
1, 108122, Note_on_c, 0, 45, 0
1, 108154, Note_on_c, 0, 79, 0
1, 108154, Note_on_c, 0, 80, 91
1, 108180, Note_on_c, 0, 46, 76
1, 108191, Note_on_c, 0, 37, 0
1, 108197, Note_on_c, 0, 80, 0
1, 108197, Note_on_c, 0, 79, 96
1, 108240, Note_on_c, 0, 79, 0
1, 108240, Note_on_c, 0, 80, 91
1, 108249, Note_on_c, 0, 39, 81
1, 108261, Note_on_c, 0, 46, 0
1, 108284, Note_on_c, 0, 80, 0
1, 108284, Note_on_c, 0, 77, 98
1, 108318, Note_on_c, 0, 46, 76
1, 108330, Note_on_c, 0, 39, 0
1, 108336, Note_on_c, 0, 77, 0
1, 108336, Note_on_c, 0, 78, 92
1, 108388, Note_on_c, 0, 78, 0
1, 108388, Note_on_c, 0, 67, 0
1, 108388, Note_on_c, 0, 80, 113
1, 108391, Note_on_c, 0, 68, 113
1, 108391, Note_on_c, 0, 35, 88
1, 108391, Control_c, 0, 64, 0
1, 108399, Note_on_c, 0, 46, 0
1, 108455, Note_on_c, 0, 44, 77
1, 108466, Note_on_c, 0, 35, 0
1, 108522, Note_on_c, 0, 39, 82
1, 108534, Note_on_c, 0, 44, 0
1, 108590, Note_on_c, 0, 44, 76
1, 108601, Note_on_c, 0, 39, 0
1, 108657, Note_on_c, 0, 35, 88
1, 108668, Note_on_c, 0, 44, 0
1, 108724, Note_on_c, 0, 44, 76
1, 108736, Note_on_c, 0, 35, 0
1, 108792, Note_on_c, 0, 39, 82
1, 108803, Note_on_c, 0, 44, 0
1, 108859, Note_on_c, 0, 44, 74
1, 108870, Note_on_c, 0, 39, 0
1, 108927, Note_on_c, 0, 35, 88
1, 108938, Note_on_c, 0, 44, 0
1, 108994, Note_on_c, 0, 44, 76
1, 109005, Note_on_c, 0, 35, 0
1, 109061, Note_on_c, 0, 37, 82
1, 109072, Note_on_c, 0, 44, 0
1, 109129, Note_on_c, 0, 44, 74
1, 109140, Note_on_c, 0, 37, 0
1, 109196, Note_on_c, 0, 68, 0
1, 109196, Note_on_c, 0, 80, 0
1, 109196, Note_on_c, 0, 76, 113
1, 109199, Note_on_c, 0, 69, 113
1, 109199, Note_on_c, 0, 73, 113
1, 109199, Note_on_c, 0, 81, 113
1, 109202, Note_on_c, 0, 44, 0
1, 109202, Note_on_c, 0, 45, 88
1, 109202, Note_on_c, 0, 49, 88
1, 109205, Note_on_c, 0, 40, 88
1, 109205, Note_on_c, 0, 37, 88
1, 109802, Note_on_c, 0, 81, 0
1, 109802, Note_on_c, 0, 76, 0
1, 109802, Note_on_c, 0, 69, 0
1, 109805, Note_on_c, 0, 73, 0
1, 109805, Note_on_c, 0, 76, 67
1, 109870, Note_on_c, 0, 76, 0
1, 109870, Note_on_c, 0, 78, 68
1, 109937, Note_on_c, 0, 78, 0
1, 109937, Note_on_c, 0, 80, 70
1, 110004, Note_on_c, 0, 80, 0
1, 110004, Note_on_c, 0, 81, 71
1, 110004, Note_on_c, 0, 37, 0
1, 110007, Note_on_c, 0, 45, 0
1, 110007, Note_on_c, 0, 49, 0
1, 110007, Note_on_c, 0, 40, 0
1, 110072, Note_on_c, 0, 81, 0
1, 110072, Note_on_c, 0, 83, 72
1, 110139, Note_on_c, 0, 83, 0
1, 110139, Note_on_c, 0, 85, 73
1, 110206, Note_on_c, 0, 85, 0
1, 110206, Note_on_c, 0, 83, 71
1, 110274, Note_on_c, 0, 83, 0
1, 110274, Note_on_c, 0, 81, 68
1, 110274, Note_on_c, 0, 64, 69
1, 110277, Note_on_c, 0, 61, 69
1, 110277, Note_on_c, 0, 69, 69
1, 110341, Note_on_c, 0, 81, 0
1, 110341, Note_on_c, 0, 76, 66
1, 110409, Note_on_c, 0, 76, 0
1, 110409, Note_on_c, 0, 78, 67
1, 110476, Note_on_c, 0, 78, 0
1, 110476, Note_on_c, 0, 80, 67
1, 110541, Note_on_c, 0, 69, 0
1, 110541, Note_on_c, 0, 80, 0
1, 110541, Note_on_c, 0, 81, 68
1, 110541, Note_on_c, 0, 61, 0
1, 110541, Note_on_c, 0, 64, 0
1, 110611, Note_on_c, 0, 81, 0
1, 110611, Note_on_c, 0, 83, 69
1, 110678, Note_on_c, 0, 83, 0
1, 110678, Note_on_c, 0, 85, 70
1, 110745, Note_on_c, 0, 85, 0
1, 110745, Note_on_c, 0, 83, 69
1, 110813, Note_on_c, 0, 83, 0
1, 110813, Note_on_c, 0, 81, 67
1, 110813, Note_on_c, 0, 69, 68
1, 110816, Note_on_c, 0, 64, 68
1, 110816, Note_on_c, 0, 61, 68
1, 110880, Note_on_c, 0, 81, 0
1, 110880, Note_on_c, 0, 76, 68
1, 110947, Note_on_c, 0, 76, 0
1, 110947, Note_on_c, 0, 78, 69
1, 111015, Note_on_c, 0, 78, 0
1, 111015, Note_on_c, 0, 80, 69
1, 111082, Note_on_c, 0, 80, 0
1, 111082, Note_on_c, 0, 81, 70
1, 111082, Note_on_c, 0, 61, 0
1, 111085, Note_on_c, 0, 64, 0
1, 111085, Note_on_c, 0, 69, 0
1, 111149, Note_on_c, 0, 81, 0
1, 111149, Note_on_c, 0, 83, 71
1, 111217, Note_on_c, 0, 83, 0
1, 111217, Note_on_c, 0, 85, 71
1, 111284, Note_on_c, 0, 85, 0
1, 111284, Note_on_c, 0, 83, 68
1, 111352, Note_on_c, 0, 83, 0
1, 111352, Note_on_c, 0, 81, 66
1, 111352, Note_on_c, 0, 69, 68
1, 111355, Note_on_c, 0, 64, 68
1, 111355, Note_on_c, 0, 61, 68
1, 111419, Note_on_c, 0, 81, 0
1, 111419, Note_on_c, 0, 76, 67
1, 111486, Note_on_c, 0, 76, 0
1, 111486, Note_on_c, 0, 78, 70
1, 111554, Note_on_c, 0, 78, 0
1, 111554, Note_on_c, 0, 80, 71
1, 111621, Note_on_c, 0, 80, 0
1, 111621, Note_on_c, 0, 81, 74
1, 111621, Note_on_c, 0, 61, 0
1, 111624, Note_on_c, 0, 64, 0
1, 111624, Note_on_c, 0, 69, 0
1, 111624, Note_on_c, 0, 69, 72
1, 111627, Note_on_c, 0, 64, 72
1, 111627, Note_on_c, 0, 61, 72
1, 111688, Note_on_c, 0, 81, 0
1, 111688, Note_on_c, 0, 83, 77
1, 111756, Note_on_c, 0, 83, 0
1, 111756, Note_on_c, 0, 85, 78
1, 111823, Note_on_c, 0, 85, 0
1, 111823, Note_on_c, 0, 86, 81
1, 111890, Note_on_c, 0, 86, 0
1, 111890, Note_on_c, 0, 88, 82
1, 111890, Note_on_c, 0, 61, 0
1, 111893, Note_on_c, 0, 64, 0
1, 111893, Note_on_c, 0, 69, 0
1, 111893, Note_on_c, 0, 69, 81
1, 111896, Note_on_c, 0, 64, 81
1, 111896, Note_on_c, 0, 61, 81
1, 111958, Note_on_c, 0, 88, 0
1, 111958, Note_on_c, 0, 87, 80
1, 112025, Note_on_c, 0, 87, 0
1, 112025, Note_on_c, 0, 88, 78
1, 112093, Note_on_c, 0, 88, 0
1, 112093, Note_on_c, 0, 87, 77
1, 112160, Note_on_c, 0, 87, 0
1, 112160, Note_on_c, 0, 88, 74
1, 112160, Note_on_c, 0, 61, 0
1, 112163, Note_on_c, 0, 64, 0
1, 112163, Note_on_c, 0, 69, 0
1, 112163, Note_on_c, 0, 61, 76
1, 112166, Note_on_c, 0, 69, 76
1, 112166, Note_on_c, 0, 64, 76
1, 112227, Note_on_c, 0, 88, 0
1, 112227, Note_on_c, 0, 85, 72
1, 112295, Note_on_c, 0, 85, 0
1, 112295, Note_on_c, 0, 83, 71
1, 112362, Note_on_c, 0, 83, 0
1, 112362, Note_on_c, 0, 81, 69
1, 112429, Note_on_c, 0, 81, 0
1, 112429, Note_on_c, 0, 80, 67
1, 112429, Note_on_c, 0, 64, 0
1, 112432, Note_on_c, 0, 69, 0
1, 112432, Note_on_c, 0, 61, 0
1, 112432, Note_on_c, 0, 63, 68
1, 112497, Note_on_c, 0, 63, 0
1, 112497, Note_on_c, 0, 71, 61
1, 112564, Note_on_c, 0, 71, 0
1, 112564, Note_on_c, 0, 68, 68
1, 112631, Note_on_c, 0, 68, 0
1, 112631, Note_on_c, 0, 71, 68
1, 112699, Note_on_c, 0, 71, 0
1, 112699, Note_on_c, 0, 63, 70
1, 112766, Note_on_c, 0, 63, 0
1, 112766, Note_on_c, 0, 71, 62
1, 112834, Note_on_c, 0, 71, 0
1, 112834, Note_on_c, 0, 68, 66
1, 112901, Note_on_c, 0, 68, 0
1, 112901, Note_on_c, 0, 71, 61
1, 112968, Note_on_c, 0, 80, 0
1, 112968, Note_on_c, 0, 82, 69
1, 112968, Note_on_c, 0, 71, 0
1, 112971, Note_on_c, 0, 63, 70
1, 112985, Control_c, 0, 64, 127
1, 113014, Note_on_c, 0, 82, 0
1, 113014, Note_on_c, 0, 83, 69
1, 113036, Note_on_c, 0, 63, 0
1, 113036, Note_on_c, 0, 73, 62
1, 113059, Note_on_c, 0, 83, 0
1, 113059, Note_on_c, 0, 82, 69
1, 113102, Note_on_c, 0, 82, 0
1, 113102, Note_on_c, 0, 83, 69
1, 113105, Note_on_c, 0, 73, 0
1, 113105, Note_on_c, 0, 67, 67
1, 113144, Note_on_c, 0, 83, 0
1, 113144, Note_on_c, 0, 82, 69
1, 113173, Note_on_c, 0, 67, 0
1, 113173, Note_on_c, 0, 73, 62
1, 113187, Note_on_c, 0, 82, 0
1, 113187, Note_on_c, 0, 83, 69
1, 113230, Note_on_c, 0, 83, 0
1, 113230, Note_on_c, 0, 82, 69
1, 113241, Note_on_c, 0, 73, 0
1, 113241, Note_on_c, 0, 63, 70
1, 113270, Note_on_c, 0, 82, 0
1, 113270, Note_on_c, 0, 83, 67
1, 113309, Note_on_c, 0, 83, 0
1, 113309, Note_on_c, 0, 82, 68
1, 113309, Note_on_c, 0, 63, 0
1, 113312, Note_on_c, 0, 73, 63
1, 113343, Note_on_c, 0, 82, 0
1, 113343, Note_on_c, 0, 83, 69
1, 113378, Note_on_c, 0, 83, 0
1, 113378, Note_on_c, 0, 82, 70
1, 113378, Note_on_c, 0, 73, 0
1, 113381, Note_on_c, 0, 67, 67
1, 113412, Note_on_c, 0, 82, 0
1, 113412, Note_on_c, 0, 83, 71
1, 113446, Note_on_c, 0, 83, 0
1, 113446, Note_on_c, 0, 82, 71
1, 113446, Note_on_c, 0, 67, 0
1, 113449, Note_on_c, 0, 73, 63
1, 113480, Note_on_c, 0, 82, 0
1, 113480, Note_on_c, 0, 83, 72
1, 113514, Note_on_c, 0, 83, 0
1, 113514, Note_on_c, 0, 80, 77
1, 113514, Note_on_c, 0, 73, 0
1, 113517, Note_on_c, 0, 71, 77
1, 113517, Note_on_c, 0, 64, 77
1, 113517, Note_on_c, 0, 68, 77
1, 113534, Control_c, 0, 64, 0
1, 113676, Note_on_c, 0, 80, 0
1, 113676, Note_on_c, 0, 68, 0
1, 113676, Note_on_c, 0, 64, 0
1, 113679, Note_on_c, 0, 71, 0
1, 113838, Note_on_c, 0, 69, 100
1, 113838, Note_on_c, 0, 64, 100
1, 113838, Note_on_c, 0, 57, 100
1, 113841, Note_on_c, 0, 61, 100
1, 113841, Note_on_c, 0, 49, 100
1, 113841, Note_on_c, 0, 45, 100
1, 113844, Note_on_c, 0, 40, 100
1, 113844, Note_on_c, 0, 37, 100
1, 114175, Note_on_c, 0, 61, 0
1, 114175, Note_on_c, 0, 69, 0
1, 114175, Note_on_c, 0, 64, 0
1, 114178, Note_on_c, 0, 57, 0
1, 114178, Note_on_c, 0, 64, 67
1, 114242, Note_on_c, 0, 64, 0
1, 114242, Note_on_c, 0, 66, 68
1, 114310, Note_on_c, 0, 66, 0
1, 114310, Note_on_c, 0, 68, 69
1, 114377, Note_on_c, 0, 68, 0
1, 114377, Note_on_c, 0, 69, 71
1, 114377, Note_on_c, 0, 37, 0
1, 114380, Note_on_c, 0, 49, 0
1, 114380, Note_on_c, 0, 45, 0
1, 114380, Note_on_c, 0, 40, 0
1, 114444, Note_on_c, 0, 69, 0
1, 114444, Note_on_c, 0, 71, 71
1, 114512, Note_on_c, 0, 71, 0
1, 114512, Note_on_c, 0, 73, 72
1, 114579, Note_on_c, 0, 73, 0
1, 114579, Note_on_c, 0, 71, 70
1, 114646, Note_on_c, 0, 71, 0
1, 114646, Note_on_c, 0, 69, 67
1, 114714, Note_on_c, 0, 69, 0
1, 114714, Note_on_c, 0, 64, 67
1, 114781, Note_on_c, 0, 64, 0
1, 114781, Note_on_c, 0, 66, 67
1, 114849, Note_on_c, 0, 66, 0
1, 114849, Note_on_c, 0, 68, 68
1, 114916, Note_on_c, 0, 68, 0
1, 114916, Note_on_c, 0, 69, 69
1, 114916, Note_on_c, 0, 52, 68
1, 114919, Note_on_c, 0, 49, 68
1, 114919, Note_on_c, 0, 57, 68
1, 114983, Note_on_c, 0, 69, 0
1, 114983, Note_on_c, 0, 71, 69
1, 115051, Note_on_c, 0, 71, 0
1, 115051, Note_on_c, 0, 73, 70
1, 115118, Note_on_c, 0, 73, 0
1, 115118, Note_on_c, 0, 71, 70
1, 115185, Note_on_c, 0, 71, 0
1, 115185, Note_on_c, 0, 69, 67
1, 115185, Note_on_c, 0, 57, 0
1, 115188, Note_on_c, 0, 49, 0
1, 115188, Note_on_c, 0, 52, 0
1, 115253, Note_on_c, 0, 69, 0
1, 115253, Note_on_c, 0, 64, 67
1, 115320, Note_on_c, 0, 64, 0
1, 115320, Note_on_c, 0, 66, 67
1, 115387, Note_on_c, 0, 66, 0
1, 115387, Note_on_c, 0, 68, 69
1, 115455, Note_on_c, 0, 68, 0
1, 115455, Note_on_c, 0, 69, 70
1, 115455, Note_on_c, 0, 52, 68
1, 115458, Note_on_c, 0, 57, 68
1, 115458, Note_on_c, 0, 49, 68
1, 115522, Note_on_c, 0, 69, 0
1, 115522, Note_on_c, 0, 71, 71
1, 115590, Note_on_c, 0, 71, 0
1, 115590, Note_on_c, 0, 73, 71
1, 115657, Note_on_c, 0, 73, 0
1, 115657, Note_on_c, 0, 71, 69
1, 115724, Note_on_c, 0, 71, 0
1, 115724, Note_on_c, 0, 69, 68
1, 115724, Note_on_c, 0, 49, 0
1, 115727, Note_on_c, 0, 57, 0
1, 115727, Note_on_c, 0, 52, 0
1, 115792, Note_on_c, 0, 69, 0
1, 115792, Note_on_c, 0, 64, 69
1, 115859, Note_on_c, 0, 64, 0
1, 115859, Note_on_c, 0, 66, 70
1, 115859, Note_on_c, 0, 49, 70
1, 115862, Note_on_c, 0, 57, 70
1, 115862, Note_on_c, 0, 52, 70
1, 115926, Note_on_c, 0, 66, 0
1, 115926, Note_on_c, 0, 68, 71
1, 115994, Note_on_c, 0, 68, 0
1, 115994, Note_on_c, 0, 69, 72
1, 115994, Note_on_c, 0, 52, 0
1, 115997, Note_on_c, 0, 57, 0
1, 115997, Note_on_c, 0, 49, 0
1, 116061, Note_on_c, 0, 69, 0
1, 116061, Note_on_c, 0, 71, 73
1, 116128, Note_on_c, 0, 71, 0
1, 116128, Note_on_c, 0, 73, 76
1, 116128, Note_on_c, 0, 49, 82
1, 116131, Note_on_c, 0, 57, 82
1, 116131, Note_on_c, 0, 52, 82
1, 116196, Note_on_c, 0, 73, 0
1, 116196, Note_on_c, 0, 71, 77
1, 116263, Note_on_c, 0, 71, 0
1, 116263, Note_on_c, 0, 69, 78
1, 116263, Note_on_c, 0, 52, 0
1, 116266, Note_on_c, 0, 57, 0
1, 116266, Note_on_c, 0, 49, 0
1, 116331, Note_on_c, 0, 69, 0
1, 116331, Note_on_c, 0, 64, 79
1, 116398, Note_on_c, 0, 64, 0
1, 116398, Note_on_c, 0, 66, 80
1, 116398, Note_on_c, 0, 49, 90
1, 116401, Note_on_c, 0, 57, 90
1, 116401, Note_on_c, 0, 52, 90
1, 116465, Note_on_c, 0, 66, 0
1, 116465, Note_on_c, 0, 68, 81
1, 116533, Note_on_c, 0, 68, 0
1, 116533, Note_on_c, 0, 69, 83
1, 116533, Note_on_c, 0, 52, 0
1, 116536, Note_on_c, 0, 57, 0
1, 116536, Note_on_c, 0, 49, 0
1, 116600, Note_on_c, 0, 69, 0
1, 116600, Note_on_c, 0, 71, 84
1, 116667, Note_on_c, 0, 71, 0
1, 116667, Note_on_c, 0, 73, 84
1, 116667, Note_on_c, 0, 57, 90
1, 116670, Note_on_c, 0, 52, 90
1, 116670, Note_on_c, 0, 49, 90
1, 116735, Note_on_c, 0, 73, 0
1, 116735, Note_on_c, 0, 71, 85
1, 116802, Note_on_c, 0, 71, 0
1, 116802, Note_on_c, 0, 69, 88
1, 116802, Note_on_c, 0, 49, 0
1, 116805, Note_on_c, 0, 52, 0
1, 116805, Note_on_c, 0, 57, 0
1, 116805, Note_on_c, 0, 52, 89
1, 116808, Note_on_c, 0, 49, 89
1, 116808, Note_on_c, 0, 57, 89
1, 116869, Note_on_c, 0, 69, 0
1, 116869, Note_on_c, 0, 64, 89
1, 116937, Note_on_c, 0, 64, 0
1, 116937, Note_on_c, 0, 66, 90
1, 117004, Note_on_c, 0, 66, 0
1, 117004, Note_on_c, 0, 68, 90
1, 117072, Note_on_c, 0, 68, 0
1, 117072, Note_on_c, 0, 69, 93
1, 117072, Note_on_c, 0, 57, 0
1, 117075, Note_on_c, 0, 49, 0
1, 117075, Note_on_c, 0, 52, 0
1, 117139, Note_on_c, 0, 69, 0
1, 117139, Note_on_c, 0, 71, 94
1, 117206, Note_on_c, 0, 71, 0
1, 117206, Note_on_c, 0, 73, 95
1, 117274, Note_on_c, 0, 73, 0
1, 117274, Note_on_c, 0, 74, 96
1, 117341, Note_on_c, 0, 74, 0
1, 117341, Note_on_c, 0, 76, 98
1, 117408, Note_on_c, 0, 76, 0
1, 117408, Note_on_c, 0, 78, 99
1, 117476, Note_on_c, 0, 78, 0
1, 117476, Note_on_c, 0, 80, 100
1, 117543, Note_on_c, 0, 80, 0
1, 117543, Note_on_c, 0, 81, 101
1, 117610, Note_on_c, 0, 81, 0
1, 117610, Note_on_c, 0, 83, 103
1, 117678, Note_on_c, 0, 83, 0
1, 117678, Note_on_c, 0, 85, 103
1, 117745, Note_on_c, 0, 85, 0
1, 117745, Note_on_c, 0, 86, 104
1, 117813, Note_on_c, 0, 86, 0
1, 117813, Note_on_c, 0, 87, 105
1, 117880, Note_on_c, 0, 87, 0
1, 117880, Note_on_c, 0, 88, 109
1, 117880, Note_on_c, 0, 76, 109
1, 117883, Note_on_c, 0, 49, 93
1, 117947, Note_on_c, 0, 57, 82
1, 117958, Note_on_c, 0, 49, 0
1, 118015, Note_on_c, 0, 52, 88
1, 118026, Note_on_c, 0, 57, 0
1, 118082, Note_on_c, 0, 57, 83
1, 118093, Note_on_c, 0, 52, 0
1, 118149, Note_on_c, 0, 49, 93
1, 118161, Note_on_c, 0, 57, 0
1, 118217, Note_on_c, 0, 57, 82
1, 118228, Note_on_c, 0, 49, 0
1, 118284, Note_on_c, 0, 52, 87
1, 118295, Note_on_c, 0, 57, 0
1, 118351, Note_on_c, 0, 57, 83
1, 118363, Note_on_c, 0, 52, 0
1, 118419, Note_on_c, 0, 76, 0
1, 118419, Note_on_c, 0, 88, 0
1, 118419, Note_on_c, 0, 68, 109
1, 118422, Note_on_c, 0, 80, 109
1, 118422, Note_on_c, 0, 50, 93
1, 118430, Note_on_c, 0, 57, 0
1, 118486, Note_on_c, 0, 59, 82
1, 118497, Note_on_c, 0, 50, 0
1, 118554, Note_on_c, 0, 53, 88
1, 118565, Note_on_c, 0, 59, 0
1, 118621, Note_on_c, 0, 59, 83
1, 118632, Note_on_c, 0, 53, 0
1, 118688, Note_on_c, 0, 50, 93
1, 118699, Note_on_c, 0, 59, 0
1, 118756, Note_on_c, 0, 59, 80
1, 118767, Note_on_c, 0, 50, 0
1, 118823, Note_on_c, 0, 53, 85
1, 118834, Note_on_c, 0, 59, 0
1, 118890, Note_on_c, 0, 59, 82
1, 118902, Note_on_c, 0, 53, 0
1, 118958, Note_on_c, 0, 80, 0
1, 118958, Note_on_c, 0, 68, 0
1, 118958, Note_on_c, 0, 71, 109
1, 118961, Note_on_c, 0, 83, 109
1, 118961, Note_on_c, 0, 51, 93
1, 118969, Note_on_c, 0, 59, 0
1, 119025, Note_on_c, 0, 59, 82
1, 119036, Note_on_c, 0, 51, 0
1, 119092, Note_on_c, 0, 56, 88
1, 119104, Note_on_c, 0, 59, 0
1, 119160, Note_on_c, 0, 59, 83
1, 119171, Note_on_c, 0, 56, 0
1, 119227, Note_on_c, 0, 51, 93
1, 119238, Note_on_c, 0, 59, 0
1, 119294, Note_on_c, 0, 59, 83
1, 119306, Note_on_c, 0, 51, 0
1, 119362, Note_on_c, 0, 56, 88
1, 119373, Note_on_c, 0, 59, 0
1, 119429, Note_on_c, 0, 59, 82
1, 119440, Note_on_c, 0, 56, 0
1, 119497, Note_on_c, 0, 83, 0
1, 119497, Note_on_c, 0, 71, 0
1, 119497, Note_on_c, 0, 55, 94
1, 119500, Note_on_c, 0, 67, 109
1, 119500, Note_on_c, 0, 61, 94
1, 119500, Note_on_c, 0, 39, 93
1, 119508, Note_on_c, 0, 59, 0
1, 119565, Note_on_c, 0, 51, 83
1, 119576, Note_on_c, 0, 39, 0
1, 119633, Note_on_c, 0, 50, 89
1, 119644, Note_on_c, 0, 51, 0
1, 119701, Note_on_c, 0, 51, 83
1, 119713, Note_on_c, 0, 50, 0
1, 119769, Note_on_c, 0, 39, 93
1, 119781, Note_on_c, 0, 51, 0
1, 119838, Note_on_c, 0, 51, 84
1, 119849, Note_on_c, 0, 39, 0
1, 119906, Note_on_c, 0, 50, 89
1, 119917, Note_on_c, 0, 51, 0
1, 119974, Note_on_c, 0, 51, 83
1, 119985, Note_on_c, 0, 50, 0
1, 120042, Note_on_c, 0, 61, 0
1, 120042, Note_on_c, 0, 67, 0
1, 120042, Note_on_c, 0, 55, 0
1, 120045, Note_on_c, 0, 63, 94
1, 120045, Note_on_c, 0, 59, 94
1, 120045, Note_on_c, 0, 68, 109
1, 120048, Note_on_c, 0, 51, 0
1, 120048, Note_on_c, 0, 44, 94
1, 120177, Note_on_c, 0, 68, 0
1, 120177, Note_on_c, 0, 59, 0
1, 120177, Note_on_c, 0, 63, 0
1, 120180, Note_on_c, 0, 71, 70
1, 120180, Note_on_c, 0, 63, 70
1, 120180, Note_on_c, 0, 44, 0
1, 120247, Note_on_c, 0, 63, 0
1, 120247, Note_on_c, 0, 71, 0
1, 120316, Note_on_c, 0, 71, 70
1, 120316, Note_on_c, 0, 63, 70
1, 120316, Note_on_c, 0, 56, 61
1, 120386, Note_on_c, 0, 63, 0
1, 120386, Note_on_c, 0, 71, 0
1, 120386, Note_on_c, 0, 56, 0
1, 120455, Note_on_c, 0, 63, 70
1, 120455, Note_on_c, 0, 71, 70
1, 120455, Note_on_c, 0, 56, 61
1, 120525, Note_on_c, 0, 71, 0
1, 120525, Note_on_c, 0, 63, 0
1, 120525, Note_on_c, 0, 56, 0
1, 120594, Note_on_c, 0, 71, 70
1, 120594, Note_on_c, 0, 63, 70
1, 120594, Note_on_c, 0, 56, 61
1, 120663, Note_on_c, 0, 63, 0
1, 120663, Note_on_c, 0, 71, 0
1, 120663, Note_on_c, 0, 56, 0
1, 120733, Note_on_c, 0, 71, 70
1, 120733, Note_on_c, 0, 63, 70
1, 120733, Note_on_c, 0, 56, 61
1, 120802, Note_on_c, 0, 63, 0
1, 120802, Note_on_c, 0, 71, 0
1, 120802, Note_on_c, 0, 56, 0
1, 120871, Note_on_c, 0, 63, 68
1, 120871, Note_on_c, 0, 70, 68
1, 120871, Note_on_c, 0, 58, 58
1, 120940, Note_on_c, 0, 70, 0
1, 120940, Note_on_c, 0, 63, 0
1, 120940, Note_on_c, 0, 58, 0
1, 121010, Note_on_c, 0, 68, 66
1, 121010, Note_on_c, 0, 63, 66
1, 121010, Note_on_c, 0, 59, 57
1, 121079, Note_on_c, 0, 63, 0
1, 121079, Note_on_c, 0, 68, 0
1, 121079, Note_on_c, 0, 59, 0
1, 121148, Note_on_c, 0, 63, 80
1, 121148, Note_on_c, 0, 67, 80
1, 121148, Note_on_c, 0, 49, 66
1, 121151, Note_on_c, 0, 61, 66
1, 121286, Note_on_c, 0, 67, 0
1, 121286, Note_on_c, 0, 63, 0
1, 121286, Note_on_c, 0, 67, 68
1, 121289, Note_on_c, 0, 75, 68
1, 121289, Note_on_c, 0, 61, 0
1, 121289, Note_on_c, 0, 49, 0
1, 121292, Note_on_c, 0, 61, 60
1, 121292, Note_on_c, 0, 63, 60
1, 121422, Note_on_c, 0, 75, 0
1, 121422, Note_on_c, 0, 67, 0
1, 121422, Note_on_c, 0, 67, 68
1, 121425, Note_on_c, 0, 75, 68
1, 121425, Note_on_c, 0, 63, 0
1, 121425, Note_on_c, 0, 61, 0
1, 121428, Note_on_c, 0, 61, 59
1, 121428, Note_on_c, 0, 63, 59
1, 121558, Note_on_c, 0, 75, 0
1, 121558, Note_on_c, 0, 67, 0
1, 121558, Note_on_c, 0, 75, 69
1, 121561, Note_on_c, 0, 67, 69
1, 121561, Note_on_c, 0, 63, 0
1, 121561, Note_on_c, 0, 61, 0
1, 121564, Note_on_c, 0, 61, 59
1, 121564, Note_on_c, 0, 63, 59
1, 121694, Note_on_c, 0, 67, 0
1, 121694, Note_on_c, 0, 75, 0
1, 121694, Note_on_c, 0, 67, 70
1, 121697, Note_on_c, 0, 75, 70
1, 121697, Note_on_c, 0, 63, 0
1, 121697, Note_on_c, 0, 61, 0
1, 121700, Note_on_c, 0, 63, 59
1, 121700, Note_on_c, 0, 61, 59
1, 121830, Note_on_c, 0, 75, 0
1, 121830, Note_on_c, 0, 67, 0
1, 121830, Note_on_c, 0, 67, 70
1, 121833, Note_on_c, 0, 75, 70
1, 121833, Note_on_c, 0, 61, 0
1, 121833, Note_on_c, 0, 63, 0
1, 121836, Note_on_c, 0, 63, 59
1, 121836, Note_on_c, 0, 61, 59
1, 121966, Note_on_c, 0, 75, 0
1, 121966, Note_on_c, 0, 67, 0
1, 121966, Note_on_c, 0, 75, 71
1, 121969, Note_on_c, 0, 68, 71
1, 121969, Note_on_c, 0, 61, 0
1, 121969, Note_on_c, 0, 63, 0
1, 121972, Note_on_c, 0, 63, 59
1, 121972, Note_on_c, 0, 59, 59
1, 122102, Note_on_c, 0, 68, 0
1, 122102, Note_on_c, 0, 75, 0
1, 122102, Note_on_c, 0, 70, 73
1, 122105, Note_on_c, 0, 75, 73
1, 122105, Note_on_c, 0, 59, 0
1, 122105, Note_on_c, 0, 63, 0
1, 122108, Note_on_c, 0, 58, 61
1, 122108, Note_on_c, 0, 63, 61
1, 122238, Note_on_c, 0, 75, 0
1, 122238, Note_on_c, 0, 70, 0
1, 122238, Note_on_c, 0, 71, 79
1, 122241, Note_on_c, 0, 75, 79
1, 122241, Note_on_c, 0, 63, 0
1, 122241, Note_on_c, 0, 58, 0
1, 122244, Note_on_c, 0, 56, 66
1, 122244, Note_on_c, 0, 44, 66
1, 122374, Note_on_c, 0, 75, 0
1, 122374, Note_on_c, 0, 71, 0
1, 122374, Note_on_c, 0, 71, 69
1, 122377, Note_on_c, 0, 63, 69
1, 122377, Note_on_c, 0, 44, 0
1, 122377, Note_on_c, 0, 56, 0
1, 122380, Note_on_c, 0, 56, 60
1, 122513, Note_on_c, 0, 63, 0
1, 122513, Note_on_c, 0, 71, 0
1, 122513, Note_on_c, 0, 63, 69
1, 122516, Note_on_c, 0, 71, 69
1, 122516, Note_on_c, 0, 56, 0
1, 122516, Note_on_c, 0, 56, 60
1, 122653, Note_on_c, 0, 71, 0
1, 122653, Note_on_c, 0, 63, 0
1, 122653, Note_on_c, 0, 71, 69
1, 122656, Note_on_c, 0, 63, 69
1, 122656, Note_on_c, 0, 56, 0
1, 122656, Note_on_c, 0, 56, 60
1, 122792, Note_on_c, 0, 63, 0
1, 122792, Note_on_c, 0, 71, 0
1, 122792, Note_on_c, 0, 71, 69
1, 122795, Note_on_c, 0, 63, 69
1, 122795, Note_on_c, 0, 56, 0
1, 122795, Note_on_c, 0, 56, 61
1, 122931, Note_on_c, 0, 63, 0
1, 122931, Note_on_c, 0, 71, 0
1, 122931, Note_on_c, 0, 63, 69
1, 122934, Note_on_c, 0, 71, 69
1, 122934, Note_on_c, 0, 56, 0
1, 122934, Note_on_c, 0, 56, 60
1, 123069, Note_on_c, 0, 71, 0
1, 123069, Note_on_c, 0, 63, 0
1, 123069, Note_on_c, 0, 63, 67
1, 123072, Note_on_c, 0, 70, 67
1, 123072, Note_on_c, 0, 56, 0
1, 123072, Note_on_c, 0, 58, 59
1, 123208, Note_on_c, 0, 70, 0
1, 123208, Note_on_c, 0, 63, 0
1, 123208, Note_on_c, 0, 68, 66
1, 123211, Note_on_c, 0, 63, 66
1, 123211, Note_on_c, 0, 58, 0
1, 123211, Note_on_c, 0, 59, 57
1, 123346, Note_on_c, 0, 63, 0
1, 123346, Note_on_c, 0, 68, 0
1, 123346, Note_on_c, 0, 63, 79
1, 123349, Note_on_c, 0, 67, 79
1, 123349, Note_on_c, 0, 59, 0
1, 123349, Note_on_c, 0, 51, 66
1, 123352, Note_on_c, 0, 61, 66
1, 123484, Note_on_c, 0, 67, 0
1, 123484, Note_on_c, 0, 63, 0
1, 123484, Note_on_c, 0, 75, 68
1, 123487, Note_on_c, 0, 67, 68
1, 123487, Note_on_c, 0, 61, 0
1, 123487, Note_on_c, 0, 51, 0
1, 123490, Note_on_c, 0, 61, 59
1, 123490, Note_on_c, 0, 63, 59
1, 123620, Note_on_c, 0, 67, 0
1, 123620, Note_on_c, 0, 75, 0
1, 123620, Note_on_c, 0, 75, 68
1, 123623, Note_on_c, 0, 67, 68
1, 123623, Note_on_c, 0, 63, 0
1, 123623, Note_on_c, 0, 61, 0
1, 123626, Note_on_c, 0, 63, 61
1, 123626, Note_on_c, 0, 61, 61
1, 123756, Note_on_c, 0, 67, 0
1, 123756, Note_on_c, 0, 75, 0
1, 123756, Note_on_c, 0, 67, 70
1, 123759, Note_on_c, 0, 75, 70
1, 123759, Note_on_c, 0, 61, 0
1, 123759, Note_on_c, 0, 63, 0
1, 123762, Note_on_c, 0, 61, 60
1, 123762, Note_on_c, 0, 63, 60
1, 123892, Note_on_c, 0, 75, 0
1, 123892, Note_on_c, 0, 67, 0
1, 123892, Note_on_c, 0, 67, 68
1, 123895, Note_on_c, 0, 75, 68
1, 123895, Note_on_c, 0, 63, 0
1, 123895, Note_on_c, 0, 61, 0
1, 123898, Note_on_c, 0, 61, 60
1, 123898, Note_on_c, 0, 63, 60
1, 124028, Note_on_c, 0, 75, 0
1, 124028, Note_on_c, 0, 67, 0
1, 124028, Note_on_c, 0, 67, 68
1, 124031, Note_on_c, 0, 75, 68
1, 124031, Note_on_c, 0, 63, 0
1, 124031, Note_on_c, 0, 61, 0
1, 124034, Note_on_c, 0, 63, 60
1, 124034, Note_on_c, 0, 61, 60
1, 124164, Note_on_c, 0, 75, 0
1, 124164, Note_on_c, 0, 67, 0
1, 124164, Note_on_c, 0, 68, 70
1, 124167, Note_on_c, 0, 75, 70
1, 124167, Note_on_c, 0, 61, 0
1, 124167, Note_on_c, 0, 63, 0
1, 124170, Note_on_c, 0, 63, 61
1, 124170, Note_on_c, 0, 59, 61
1, 124300, Note_on_c, 0, 75, 0
1, 124300, Note_on_c, 0, 68, 0
1, 124300, Note_on_c, 0, 75, 71
1, 124303, Note_on_c, 0, 70, 71
1, 124303, Note_on_c, 0, 59, 0
1, 124303, Note_on_c, 0, 63, 0
1, 124306, Note_on_c, 0, 63, 63
1, 124306, Note_on_c, 0, 58, 63
1, 124436, Note_on_c, 0, 70, 0
1, 124436, Note_on_c, 0, 75, 0
1, 124436, Note_on_c, 0, 75, 76
1, 124439, Note_on_c, 0, 71, 76
1, 124439, Note_on_c, 0, 58, 0
1, 124439, Note_on_c, 0, 63, 0
1, 124442, Note_on_c, 0, 44, 67
1, 124506, Note_on_c, 0, 71, 0
1, 124506, Note_on_c, 0, 75, 0
1, 124506, Note_on_c, 0, 44, 0
1, 124576, Note_on_c, 0, 71, 69
1, 124576, Note_on_c, 0, 75, 69
1, 124576, Note_on_c, 0, 59, 57
1, 124579, Note_on_c, 0, 56, 57
1, 124643, Note_on_c, 0, 75, 0
1, 124643, Note_on_c, 0, 71, 0
1, 124643, Note_on_c, 0, 56, 0
1, 124646, Note_on_c, 0, 59, 0
1, 124703, Control_c, 0, 64, 127
1, 124711, Note_on_c, 0, 71, 69
1, 124711, Note_on_c, 0, 75, 69
1, 124711, Note_on_c, 0, 56, 57
1, 124714, Note_on_c, 0, 59, 57
1, 124845, Note_on_c, 0, 75, 0
1, 124845, Note_on_c, 0, 71, 0
1, 124845, Note_on_c, 0, 71, 68
1, 124848, Note_on_c, 0, 68, 68
1, 124848, Note_on_c, 0, 59, 0
1, 124848, Note_on_c, 0, 56, 0
1, 124851, Note_on_c, 0, 59, 56
1, 124851, Note_on_c, 0, 63, 56
1, 124885, Control_c, 0, 64, 0
1, 124980, Note_on_c, 0, 68, 0
1, 124980, Note_on_c, 0, 71, 0
1, 124980, Note_on_c, 0, 63, 0
1, 124983, Note_on_c, 0, 59, 0
1, 124983, Note_on_c, 0, 49, 66
1, 125049, Note_on_c, 0, 49, 0
1, 125117, Note_on_c, 0, 73, 69
1, 125117, Note_on_c, 0, 76, 69
1, 125117, Note_on_c, 0, 56, 61
1, 125120, Note_on_c, 0, 61, 61
1, 125185, Note_on_c, 0, 76, 0
1, 125185, Note_on_c, 0, 73, 0
1, 125185, Note_on_c, 0, 61, 0
1, 125188, Note_on_c, 0, 56, 0
1, 125252, Note_on_c, 0, 76, 69
1, 125252, Note_on_c, 0, 73, 69
1, 125252, Control_c, 0, 64, 127
1, 125255, Note_on_c, 0, 61, 61
1, 125255, Note_on_c, 0, 56, 61
1, 125387, Note_on_c, 0, 73, 0
1, 125387, Note_on_c, 0, 76, 0
1, 125387, Note_on_c, 0, 73, 68
1, 125390, Note_on_c, 0, 68, 68
1, 125390, Note_on_c, 0, 56, 0
1, 125390, Note_on_c, 0, 61, 0
1, 125393, Note_on_c, 0, 61, 59
1, 125393, Note_on_c, 0, 64, 59
1, 125490, Control_c, 0, 64, 0
1, 125521, Note_on_c, 0, 68, 0
1, 125521, Note_on_c, 0, 73, 0
1, 125521, Note_on_c, 0, 64, 0
1, 125524, Note_on_c, 0, 61, 0
1, 125524, Note_on_c, 0, 51, 66
1, 125591, Note_on_c, 0, 51, 0
1, 125661, Note_on_c, 0, 75, 66
1, 125661, Note_on_c, 0, 71, 66
1, 125661, Note_on_c, 0, 59, 59
1, 125664, Note_on_c, 0, 56, 59
1, 125729, Note_on_c, 0, 71, 0
1, 125729, Note_on_c, 0, 75, 0
1, 125729, Note_on_c, 0, 56, 0
1, 125732, Note_on_c, 0, 59, 0
1, 125796, Note_on_c, 0, 75, 66
1, 125796, Note_on_c, 0, 71, 66
1, 125796, Note_on_c, 0, 56, 60
1, 125799, Note_on_c, 0, 59, 60
1, 125807, Control_c, 0, 64, 127
1, 125931, Note_on_c, 0, 71, 0
1, 125931, Note_on_c, 0, 75, 0
1, 125931, Note_on_c, 0, 68, 68
1, 125934, Note_on_c, 0, 71, 68
1, 125934, Note_on_c, 0, 59, 0
1, 125934, Note_on_c, 0, 56, 0
1, 125937, Note_on_c, 0, 63, 60
1, 125937, Note_on_c, 0, 59, 60
1, 125995, Control_c, 0, 64, 0
1, 126066, Note_on_c, 0, 71, 0
1, 126066, Note_on_c, 0, 68, 0
1, 126066, Note_on_c, 0, 59, 0
1, 126069, Note_on_c, 0, 63, 0
1, 126069, Note_on_c, 0, 51, 66
1, 126137, Note_on_c, 0, 51, 0
1, 126208, Note_on_c, 0, 75, 68
1, 126208, Note_on_c, 0, 70, 68
1, 126208, Note_on_c, 0, 55, 57
1, 126211, Note_on_c, 0, 58, 57
1, 126276, Note_on_c, 0, 70, 0
1, 126276, Note_on_c, 0, 75, 0
1, 126276, Note_on_c, 0, 58, 0
1, 126279, Note_on_c, 0, 55, 0
1, 126343, Note_on_c, 0, 75, 66
1, 126343, Note_on_c, 0, 70, 66
1, 126343, Note_on_c, 0, 58, 57
1, 126346, Note_on_c, 0, 55, 57
1, 126359, Control_c, 0, 64, 127
1, 126478, Note_on_c, 0, 70, 0
1, 126478, Note_on_c, 0, 75, 0
1, 126478, Note_on_c, 0, 67, 66
1, 126481, Note_on_c, 0, 70, 66
1, 126481, Note_on_c, 0, 55, 0
1, 126481, Note_on_c, 0, 58, 0
1, 126484, Note_on_c, 0, 58, 57
1, 126484, Note_on_c, 0, 63, 57
1, 126576, Control_c, 0, 64, 0
1, 126613, Note_on_c, 0, 70, 0
1, 126613, Note_on_c, 0, 67, 0
1, 126613, Note_on_c, 0, 68, 68
1, 126616, Note_on_c, 0, 71, 68
1, 126616, Note_on_c, 0, 63, 0
1, 126616, Note_on_c, 0, 58, 0
1, 126619, Note_on_c, 0, 32, 60
1, 126619, Note_on_c, 0, 44, 60
1, 126747, Note_on_c, 0, 71, 0
1, 126747, Note_on_c, 0, 68, 0
1, 126747, Note_on_c, 0, 75, 71
1, 126750, Note_on_c, 0, 83, 71
1, 126750, Note_on_c, 0, 71, 71
1, 126750, Note_on_c, 0, 44, 0
1, 126753, Note_on_c, 0, 32, 0
1, 126753, Note_on_c, 0, 44, 59
1, 126753, Note_on_c, 0, 51, 59
1, 126800, Control_c, 0, 64, 127
1, 126885, Note_on_c, 0, 71, 0
1, 126885, Note_on_c, 0, 83, 0
1, 126885, Note_on_c, 0, 75, 0
1, 126888, Note_on_c, 0, 83, 76
1, 126888, Note_on_c, 0, 75, 76
1, 126888, Note_on_c, 0, 71, 76
1, 126891, Note_on_c, 0, 51, 0
1, 126891, Note_on_c, 0, 44, 0
1, 126891, Note_on_c, 0, 44, 61
1, 126894, Note_on_c, 0, 51, 61
1, 127023, Note_on_c, 0, 71, 0
1, 127023, Note_on_c, 0, 75, 0
1, 127023, Note_on_c, 0, 83, 0
1, 127026, Note_on_c, 0, 83, 79
1, 127026, Note_on_c, 0, 71, 79
1, 127026, Note_on_c, 0, 75, 79
1, 127029, Note_on_c, 0, 51, 0
1, 127029, Note_on_c, 0, 44, 0
1, 127029, Note_on_c, 0, 51, 66
1, 127032, Note_on_c, 0, 44, 66
1, 127160, Note_on_c, 0, 75, 0
1, 127160, Note_on_c, 0, 71, 0
1, 127160, Note_on_c, 0, 83, 0
1, 127163, Note_on_c, 0, 75, 83
1, 127163, Note_on_c, 0, 83, 83
1, 127163, Note_on_c, 0, 71, 83
1, 127166, Note_on_c, 0, 44, 0
1, 127166, Note_on_c, 0, 51, 0
1, 127166, Note_on_c, 0, 51, 69
1, 127169, Note_on_c, 0, 44, 69
1, 127297, Note_on_c, 0, 71, 0
1, 127297, Note_on_c, 0, 83, 0
1, 127297, Note_on_c, 0, 75, 0
1, 127300, Note_on_c, 0, 75, 88
1, 127300, Note_on_c, 0, 71, 88
1, 127300, Note_on_c, 0, 83, 88
1, 127303, Note_on_c, 0, 44, 0
1, 127303, Note_on_c, 0, 51, 0
1, 127303, Note_on_c, 0, 51, 72
1, 127306, Note_on_c, 0, 44, 72
1, 127395, Control_c, 0, 64, 0
1, 127434, Note_on_c, 0, 83, 0
1, 127434, Note_on_c, 0, 71, 0
1, 127434, Note_on_c, 0, 75, 0
1, 127437, Note_on_c, 0, 73, 91
1, 127437, Note_on_c, 0, 70, 91
1, 127437, Note_on_c, 0, 82, 91
1, 127440, Note_on_c, 0, 44, 0
1, 127440, Note_on_c, 0, 51, 0
1, 127440, Note_on_c, 0, 51, 78
1, 127443, Note_on_c, 0, 46, 78
1, 127473, Control_c, 0, 64, 127
1, 127551, Control_c, 0, 64, 0
1, 127570, Note_on_c, 0, 82, 0
1, 127570, Note_on_c, 0, 70, 0
1, 127570, Note_on_c, 0, 73, 0
1, 127573, Note_on_c, 0, 80, 95
1, 127573, Note_on_c, 0, 68, 95
1, 127573, Note_on_c, 0, 71, 95
1, 127576, Note_on_c, 0, 46, 0
1, 127576, Note_on_c, 0, 51, 0
1, 127576, Note_on_c, 0, 51, 80
1, 127579, Note_on_c, 0, 47, 80
1, 127603, Control_c, 0, 64, 127
1, 127675, Control_c, 0, 64, 0
1, 127707, Note_on_c, 0, 71, 0
1, 127707, Note_on_c, 0, 68, 0
1, 127707, Note_on_c, 0, 80, 0
1, 127710, Note_on_c, 0, 79, 99
1, 127710, Note_on_c, 0, 67, 99
1, 127710, Note_on_c, 0, 70, 99
1, 127713, Note_on_c, 0, 47, 0
1, 127713, Note_on_c, 0, 51, 0
1, 127713, Note_on_c, 0, 51, 84
1, 127716, Note_on_c, 0, 49, 84
1, 127716, Note_on_c, 0, 39, 84
1, 127725, Control_c, 0, 64, 127
1, 127816, Control_c, 0, 64, 0
1, 127846, Note_on_c, 0, 70, 0
1, 127846, Note_on_c, 0, 67, 0
1, 127846, Note_on_c, 0, 79, 0
1, 127849, Note_on_c, 0, 76, 100
1, 127849, Note_on_c, 0, 88, 100
1, 127849, Note_on_c, 0, 79, 100
1, 127852, Note_on_c, 0, 39, 0
1, 127852, Note_on_c, 0, 49, 0
1, 127852, Note_on_c, 0, 51, 0
1, 127855, Note_on_c, 0, 61, 83
1, 127855, Note_on_c, 0, 51, 83
1, 127898, Control_c, 0, 64, 127
1, 127982, Note_on_c, 0, 79, 0
1, 127982, Note_on_c, 0, 88, 0
1, 127982, Note_on_c, 0, 76, 0
1, 127985, Note_on_c, 0, 79, 107
1, 127985, Note_on_c, 0, 76, 107
1, 127985, Note_on_c, 0, 88, 107
1, 127988, Note_on_c, 0, 51, 0
1, 127988, Note_on_c, 0, 61, 0
1, 127988, Note_on_c, 0, 51, 88
1, 127991, Note_on_c, 0, 61, 88
1, 128118, Note_on_c, 0, 88, 0
1, 128118, Note_on_c, 0, 76, 0
1, 128118, Note_on_c, 0, 79, 0
1, 128121, Note_on_c, 0, 79, 103
1, 128121, Note_on_c, 0, 88, 103
1, 128121, Note_on_c, 0, 76, 103
1, 128124, Note_on_c, 0, 61, 0
1, 128124, Note_on_c, 0, 51, 0
1, 128124, Note_on_c, 0, 61, 83
1, 128127, Note_on_c, 0, 51, 83
1, 128254, Note_on_c, 0, 76, 0
1, 128254, Note_on_c, 0, 88, 0
1, 128254, Note_on_c, 0, 79, 0
1, 128257, Note_on_c, 0, 88, 107
1, 128257, Note_on_c, 0, 76, 107
1, 128257, Note_on_c, 0, 79, 107
1, 128260, Note_on_c, 0, 51, 0
1, 128260, Note_on_c, 0, 61, 0
1, 128260, Note_on_c, 0, 61, 88
1, 128263, Note_on_c, 0, 51, 88
1, 128390, Note_on_c, 0, 79, 0
1, 128390, Note_on_c, 0, 76, 0
1, 128390, Note_on_c, 0, 88, 0
1, 128393, Note_on_c, 0, 79, 104
1, 128393, Note_on_c, 0, 76, 104
1, 128393, Note_on_c, 0, 88, 104
1, 128396, Note_on_c, 0, 51, 0
1, 128396, Note_on_c, 0, 61, 0
1, 128396, Note_on_c, 0, 61, 84
1, 128399, Note_on_c, 0, 51, 84
1, 128515, Control_c, 0, 64, 0
1, 128526, Note_on_c, 0, 88, 0
1, 128526, Note_on_c, 0, 76, 0
1, 128526, Note_on_c, 0, 79, 0
1, 128529, Note_on_c, 0, 75, 106
1, 128529, Note_on_c, 0, 87, 106
1, 128529, Note_on_c, 0, 79, 106
1, 128532, Note_on_c, 0, 51, 0
1, 128532, Note_on_c, 0, 61, 0
1, 128532, Note_on_c, 0, 51, 88
1, 128535, Note_on_c, 0, 59, 88
1, 128567, Control_c, 0, 64, 127
1, 128647, Control_c, 0, 64, 0
1, 128665, Note_on_c, 0, 79, 0
1, 128665, Note_on_c, 0, 87, 0
1, 128665, Note_on_c, 0, 75, 0
1, 128668, Note_on_c, 0, 85, 104
1, 128668, Note_on_c, 0, 73, 104
1, 128668, Note_on_c, 0, 79, 104
1, 128671, Note_on_c, 0, 59, 0
1, 128671, Note_on_c, 0, 51, 0
1, 128671, Note_on_c, 0, 51, 84
1, 128674, Note_on_c, 0, 58, 84
1, 128674, Control_c, 0, 64, 127
1, 128771, Control_c, 0, 64, 0
1, 128805, Note_on_c, 0, 79, 0
1, 128805, Note_on_c, 0, 73, 0
1, 128805, Note_on_c, 0, 85, 0
1, 128808, Note_on_c, 0, 83, 107
1, 128808, Note_on_c, 0, 80, 107
1, 128808, Note_on_c, 0, 71, 107
1, 128811, Note_on_c, 0, 58, 0
1, 128811, Note_on_c, 0, 51, 0
1, 128811, Note_on_c, 0, 44, 89
1, 128814, Note_on_c, 0, 32, 89
1, 128859, Control_c, 0, 64, 127
1, 128948, Note_on_c, 0, 71, 0
1, 128948, Note_on_c, 0, 80, 0
1, 128948, Note_on_c, 0, 71, 68
1, 128951, Note_on_c, 0, 83, 68
1, 128951, Note_on_c, 0, 75, 68
1, 128951, Note_on_c, 0, 32, 0
1, 128954, Note_on_c, 0, 44, 0
1, 128954, Note_on_c, 0, 51, 59
1, 128954, Note_on_c, 0, 44, 59
1, 129085, Note_on_c, 0, 75, 0
1, 129085, Note_on_c, 0, 83, 0
1, 129085, Note_on_c, 0, 71, 0
1, 129088, Note_on_c, 0, 83, 0
1, 129088, Note_on_c, 0, 71, 72
1, 129088, Note_on_c, 0, 75, 72
1, 129091, Note_on_c, 0, 83, 72
1, 129091, Note_on_c, 0, 44, 0
1, 129091, Note_on_c, 0, 51, 0
1, 129094, Note_on_c, 0, 51, 62
1, 129094, Note_on_c, 0, 44, 62
1, 129222, Note_on_c, 0, 83, 0
1, 129222, Note_on_c, 0, 75, 0
1, 129222, Note_on_c, 0, 71, 0
1, 129225, Note_on_c, 0, 71, 78
1, 129225, Note_on_c, 0, 83, 78
1, 129225, Note_on_c, 0, 75, 78
1, 129228, Note_on_c, 0, 44, 0
1, 129228, Note_on_c, 0, 51, 0
1, 129228, Note_on_c, 0, 44, 67
1, 129231, Note_on_c, 0, 51, 67
1, 129359, Note_on_c, 0, 75, 0
1, 129359, Note_on_c, 0, 83, 0
1, 129359, Note_on_c, 0, 71, 0
1, 129362, Note_on_c, 0, 71, 82
1, 129362, Note_on_c, 0, 75, 82
1, 129362, Note_on_c, 0, 83, 82
1, 129365, Note_on_c, 0, 51, 0
1, 129365, Note_on_c, 0, 44, 0
1, 129365, Note_on_c, 0, 44, 71
1, 129368, Note_on_c, 0, 51, 71
1, 129496, Note_on_c, 0, 83, 0
1, 129496, Note_on_c, 0, 75, 0
1, 129496, Note_on_c, 0, 71, 0
1, 129499, Note_on_c, 0, 75, 88
1, 129499, Note_on_c, 0, 83, 88
1, 129499, Note_on_c, 0, 71, 88
1, 129502, Note_on_c, 0, 51, 0
1, 129502, Note_on_c, 0, 44, 0
1, 129502, Note_on_c, 0, 44, 76
1, 129505, Note_on_c, 0, 51, 76
1, 129573, Control_c, 0, 64, 0
1, 129632, Note_on_c, 0, 71, 0
1, 129632, Note_on_c, 0, 83, 0
1, 129632, Note_on_c, 0, 75, 0
1, 129635, Note_on_c, 0, 73, 92
1, 129635, Note_on_c, 0, 82, 92
1, 129635, Note_on_c, 0, 70, 92
1, 129638, Note_on_c, 0, 51, 0
1, 129638, Note_on_c, 0, 44, 0
1, 129638, Note_on_c, 0, 51, 79
1, 129641, Note_on_c, 0, 46, 79
1, 129671, Control_c, 0, 64, 127
1, 129762, Control_c, 0, 64, 0
1, 129768, Note_on_c, 0, 70, 0
1, 129768, Note_on_c, 0, 82, 0
1, 129768, Note_on_c, 0, 73, 0
1, 129771, Note_on_c, 0, 68, 96
1, 129771, Note_on_c, 0, 71, 96
1, 129771, Note_on_c, 0, 80, 96
1, 129774, Note_on_c, 0, 46, 0
1, 129774, Note_on_c, 0, 51, 0
1, 129774, Note_on_c, 0, 47, 83
1, 129777, Note_on_c, 0, 51, 83
1, 129826, Control_c, 0, 64, 127
1, 129865, Control_c, 0, 64, 0
1, 129904, Note_on_c, 0, 80, 0
1, 129904, Note_on_c, 0, 71, 0
1, 129904, Note_on_c, 0, 68, 0
1, 129907, Note_on_c, 0, 67, 102
1, 129907, Note_on_c, 0, 79, 102
1, 129907, Note_on_c, 0, 70, 102
1, 129910, Note_on_c, 0, 51, 0
1, 129910, Note_on_c, 0, 47, 0
1, 129910, Note_on_c, 0, 49, 88
1, 129913, Note_on_c, 0, 39, 88
1, 129913, Note_on_c, 0, 51, 88
1, 129944, Control_c, 0, 64, 127
1, 130040, Note_on_c, 0, 70, 0
1, 130040, Note_on_c, 0, 79, 0
1, 130040, Note_on_c, 0, 67, 0
1, 130043, Note_on_c, 0, 88, 102
1, 130043, Note_on_c, 0, 79, 102
1, 130043, Note_on_c, 0, 76, 102
1, 130046, Note_on_c, 0, 51, 0
1, 130046, Note_on_c, 0, 39, 0
1, 130046, Note_on_c, 0, 49, 0
1, 130049, Control_c, 0, 64, 0
1, 130049, Note_on_c, 0, 51, 83
1, 130049, Note_on_c, 0, 61, 83
1, 130109, Control_c, 0, 64, 127
1, 130174, Note_on_c, 0, 76, 0
1, 130174, Note_on_c, 0, 79, 0
1, 130174, Note_on_c, 0, 88, 0
1, 130177, Note_on_c, 0, 88, 107
1, 130177, Note_on_c, 0, 76, 107
1, 130177, Note_on_c, 0, 79, 107
1, 130180, Note_on_c, 0, 61, 0
1, 130180, Note_on_c, 0, 51, 0
1, 130180, Note_on_c, 0, 51, 89
1, 130183, Note_on_c, 0, 61, 89
1, 130310, Note_on_c, 0, 79, 0
1, 130310, Note_on_c, 0, 76, 0
1, 130310, Note_on_c, 0, 88, 0
1, 130313, Note_on_c, 0, 88, 102
1, 130313, Note_on_c, 0, 79, 102
1, 130313, Note_on_c, 0, 76, 102
1, 130316, Note_on_c, 0, 61, 0
1, 130316, Note_on_c, 0, 51, 0
1, 130316, Note_on_c, 0, 51, 84
1, 130319, Note_on_c, 0, 61, 84
1, 130447, Note_on_c, 0, 76, 0
1, 130447, Note_on_c, 0, 79, 0
1, 130447, Note_on_c, 0, 88, 0
1, 130450, Note_on_c, 0, 79, 107
1, 130450, Note_on_c, 0, 76, 107
1, 130450, Note_on_c, 0, 88, 107
1, 130453, Note_on_c, 0, 61, 0
1, 130453, Note_on_c, 0, 51, 0
1, 130453, Note_on_c, 0, 61, 89
1, 130456, Note_on_c, 0, 51, 89
1, 130584, Note_on_c, 0, 88, 0
1, 130584, Note_on_c, 0, 76, 0
1, 130584, Note_on_c, 0, 79, 0
1, 130587, Note_on_c, 0, 79, 103
1, 130587, Note_on_c, 0, 76, 103
1, 130587, Note_on_c, 0, 88, 103
1, 130590, Note_on_c, 0, 51, 0
1, 130590, Note_on_c, 0, 61, 0
1, 130590, Note_on_c, 0, 51, 84
1, 130593, Note_on_c, 0, 61, 84
1, 130689, Control_c, 0, 64, 0
1, 130723, Note_on_c, 0, 88, 0
1, 130723, Note_on_c, 0, 76, 0
1, 130723, Note_on_c, 0, 79, 0
1, 130726, Note_on_c, 0, 75, 105
1, 130726, Note_on_c, 0, 79, 105
1, 130726, Note_on_c, 0, 87, 105
1, 130729, Note_on_c, 0, 61, 0
1, 130729, Note_on_c, 0, 51, 0
1, 130729, Note_on_c, 0, 59, 89
1, 130732, Note_on_c, 0, 51, 89
1, 130738, Control_c, 0, 64, 127
1, 130836, Control_c, 0, 64, 0
1, 130862, Note_on_c, 0, 87, 0
1, 130862, Note_on_c, 0, 79, 0
1, 130862, Note_on_c, 0, 75, 0
1, 130865, Note_on_c, 0, 79, 103
1, 130865, Note_on_c, 0, 73, 103
1, 130865, Note_on_c, 0, 85, 103
1, 130868, Note_on_c, 0, 51, 0
1, 130868, Note_on_c, 0, 59, 0
1, 130868, Note_on_c, 0, 51, 84
1, 130871, Note_on_c, 0, 58, 84
1, 130896, Control_c, 0, 64, 127
1, 130968, Control_c, 0, 64, 0
1, 131002, Note_on_c, 0, 85, 0
1, 131002, Note_on_c, 0, 73, 0
1, 131002, Note_on_c, 0, 79, 0
1, 131005, Note_on_c, 0, 83, 107
1, 131005, Note_on_c, 0, 80, 107
1, 131005, Note_on_c, 0, 71, 107
1, 131008, Note_on_c, 0, 58, 0
1, 131008, Note_on_c, 0, 51, 0
1, 131008, Note_on_c, 0, 44, 90
1, 131011, Note_on_c, 0, 56, 90
1, 131143, Note_on_c, 0, 71, 0
1, 131143, Note_on_c, 0, 80, 0
1, 131143, Note_on_c, 0, 83, 0
1, 131146, Note_on_c, 0, 83, 69
1, 131146, Note_on_c, 0, 80, 69
1, 131146, Note_on_c, 0, 56, 0
1, 131149, Note_on_c, 0, 44, 0
1, 131149, Note_on_c, 0, 59, 61
1, 131149, Note_on_c, 0, 63, 61
1, 131211, Note_on_c, 0, 80, 0
1, 131211, Note_on_c, 0, 83, 0
1, 131211, Note_on_c, 0, 63, 0
1, 131214, Note_on_c, 0, 59, 0
1, 131278, Note_on_c, 0, 83, 69
1, 131278, Note_on_c, 0, 80, 69
1, 131278, Note_on_c, 0, 63, 59
1, 131281, Note_on_c, 0, 59, 59
1, 131298, Control_c, 0, 64, 127
1, 131413, Note_on_c, 0, 80, 0
1, 131413, Note_on_c, 0, 83, 0
1, 131413, Note_on_c, 0, 83, 67
1, 131416, Note_on_c, 0, 87, 67
1, 131416, Note_on_c, 0, 59, 0
1, 131416, Note_on_c, 0, 63, 0
1, 131419, Note_on_c, 0, 56, 57
1, 131419, Note_on_c, 0, 59, 57
1, 131484, Control_c, 0, 64, 0
1, 131548, Note_on_c, 0, 87, 0
1, 131548, Note_on_c, 0, 83, 0
1, 131548, Note_on_c, 0, 59, 0
1, 131551, Note_on_c, 0, 56, 0
1, 131551, Note_on_c, 0, 49, 67
1, 131617, Note_on_c, 0, 49, 0
1, 131685, Note_on_c, 0, 85, 68
1, 131685, Note_on_c, 0, 80, 68
1, 131685, Note_on_c, 0, 64, 60
1, 131688, Note_on_c, 0, 61, 60
1, 131753, Note_on_c, 0, 80, 0
1, 131753, Note_on_c, 0, 85, 0
1, 131753, Note_on_c, 0, 61, 0
1, 131756, Note_on_c, 0, 64, 0
1, 131820, Note_on_c, 0, 85, 68
1, 131820, Note_on_c, 0, 80, 68
1, 131820, Note_on_c, 0, 61, 60
1, 131823, Note_on_c, 0, 64, 60
1, 131836, Control_c, 0, 64, 127
1, 131955, Note_on_c, 0, 80, 0
1, 131955, Note_on_c, 0, 85, 0
1, 131955, Note_on_c, 0, 88, 66
1, 131958, Note_on_c, 0, 85, 66
1, 131958, Note_on_c, 0, 64, 0
1, 131958, Note_on_c, 0, 61, 0
1, 131961, Note_on_c, 0, 56, 57
1, 131961, Note_on_c, 0, 61, 57
1, 132038, Control_c, 0, 64, 0
1, 132090, Note_on_c, 0, 85, 0
1, 132090, Note_on_c, 0, 88, 0
1, 132090, Note_on_c, 0, 61, 0
1, 132093, Note_on_c, 0, 56, 0
1, 132093, Note_on_c, 0, 51, 67
1, 132159, Note_on_c, 0, 51, 0
1, 132229, Note_on_c, 0, 83, 68
1, 132229, Note_on_c, 0, 80, 68
1, 132229, Note_on_c, 0, 63, 60
1, 132232, Note_on_c, 0, 59, 60
1, 132296, Note_on_c, 0, 80, 0
1, 132296, Note_on_c, 0, 83, 0
1, 132296, Note_on_c, 0, 59, 0
1, 132299, Note_on_c, 0, 63, 0
1, 132364, Note_on_c, 0, 80, 68
1, 132364, Note_on_c, 0, 83, 68
1, 132364, Note_on_c, 0, 63, 60
1, 132367, Note_on_c, 0, 59, 60
1, 132378, Control_c, 0, 64, 127
1, 132499, Note_on_c, 0, 83, 0
1, 132499, Note_on_c, 0, 80, 0
1, 132499, Note_on_c, 0, 87, 66
1, 132502, Note_on_c, 0, 83, 66
1, 132502, Note_on_c, 0, 59, 0
1, 132502, Note_on_c, 0, 63, 0
1, 132505, Note_on_c, 0, 59, 57
1, 132505, Note_on_c, 0, 56, 57
1, 132601, Control_c, 0, 64, 0
1, 132633, Note_on_c, 0, 83, 0
1, 132633, Note_on_c, 0, 87, 0
1, 132633, Note_on_c, 0, 56, 0
1, 132636, Note_on_c, 0, 59, 0
1, 132636, Note_on_c, 0, 49, 68
1, 132703, Note_on_c, 0, 49, 0
1, 132772, Note_on_c, 0, 82, 70
1, 132772, Note_on_c, 0, 79, 70
1, 132772, Note_on_c, 0, 63, 60
1, 132775, Note_on_c, 0, 58, 60
1, 132839, Note_on_c, 0, 79, 0
1, 132839, Note_on_c, 0, 82, 0
1, 132839, Note_on_c, 0, 58, 0
1, 132842, Note_on_c, 0, 63, 0
1, 132907, Note_on_c, 0, 82, 70
1, 132907, Note_on_c, 0, 79, 70
1, 132907, Note_on_c, 0, 58, 60
1, 132910, Note_on_c, 0, 63, 60
1, 132916, Control_c, 0, 64, 127
1, 133041, Note_on_c, 0, 79, 0
1, 133041, Note_on_c, 0, 82, 0
1, 133041, Note_on_c, 0, 87, 66
1, 133044, Note_on_c, 0, 82, 66
1, 133044, Note_on_c, 0, 63, 0
1, 133044, Note_on_c, 0, 58, 0
1, 133047, Note_on_c, 0, 58, 57
1, 133047, Note_on_c, 0, 55, 57
1, 133163, Control_c, 0, 64, 0
1, 133176, Note_on_c, 0, 82, 0
1, 133176, Note_on_c, 0, 87, 0
1, 133176, Note_on_c, 0, 55, 0
1, 133179, Note_on_c, 0, 58, 0
1, 133179, Note_on_c, 0, 47, 63
1, 133312, Note_on_c, 0, 83, 76
1, 133312, Note_on_c, 0, 75, 76
1, 133312, Note_on_c, 0, 47, 0
1, 133315, Note_on_c, 0, 63, 57
1, 133315, Note_on_c, 0, 68, 57
1, 133382, Note_on_c, 0, 75, 0
1, 133382, Note_on_c, 0, 83, 0
1, 133382, Note_on_c, 0, 68, 0
1, 133385, Note_on_c, 0, 63, 0
1, 133453, Note_on_c, 0, 75, 71
1, 133453, Note_on_c, 0, 83, 71
1, 133453, Note_on_c, 0, 68, 59
1, 133456, Note_on_c, 0, 63, 59
1, 133486, Control_c, 0, 64, 127
1, 133597, Note_on_c, 0, 83, 0
1, 133597, Note_on_c, 0, 75, 0
1, 133597, Note_on_c, 0, 87, 71
1, 133600, Note_on_c, 0, 80, 71
1, 133600, Note_on_c, 0, 63, 0
1, 133600, Note_on_c, 0, 68, 0
1, 133603, Note_on_c, 0, 63, 59
1, 133603, Note_on_c, 0, 59, 59
1, 133682, Control_c, 0, 64, 0
1, 133743, Note_on_c, 0, 80, 0
1, 133743, Note_on_c, 0, 87, 0
1, 133743, Note_on_c, 0, 59, 0
1, 133746, Note_on_c, 0, 63, 0
1, 133746, Note_on_c, 0, 51, 69
1, 133891, Note_on_c, 0, 81, 83
1, 133891, Note_on_c, 0, 73, 83
1, 133891, Note_on_c, 0, 51, 0
1, 133894, Note_on_c, 0, 64, 66
1, 133894, Note_on_c, 0, 69, 66
1, 133966, Note_on_c, 0, 73, 0
1, 133966, Note_on_c, 0, 81, 0
1, 133966, Note_on_c, 0, 69, 0
1, 133969, Note_on_c, 0, 64, 0
1, 134042, Note_on_c, 0, 81, 77
1, 134042, Note_on_c, 0, 73, 77
1, 134042, Note_on_c, 0, 69, 64
1, 134045, Note_on_c, 0, 64, 64
1, 134073, Control_c, 0, 64, 127
1, 134195, Note_on_c, 0, 73, 0
1, 134195, Note_on_c, 0, 81, 0
1, 134195, Note_on_c, 0, 76, 76
1, 134198, Note_on_c, 0, 85, 76
1, 134198, Note_on_c, 0, 64, 0
1, 134198, Note_on_c, 0, 69, 0
1, 134201, Note_on_c, 0, 64, 64
1, 134201, Note_on_c, 0, 61, 64
1, 134307, Control_c, 0, 64, 0
1, 134348, Note_on_c, 0, 85, 0
1, 134348, Note_on_c, 0, 76, 0
1, 134348, Note_on_c, 0, 61, 0
1, 134351, Note_on_c, 0, 64, 0
1, 134351, Note_on_c, 0, 47, 72
1, 134504, Note_on_c, 0, 80, 78
1, 134504, Note_on_c, 0, 71, 78
1, 134504, Note_on_c, 0, 47, 0
1, 134507, Note_on_c, 0, 68, 67
1, 134507, Note_on_c, 0, 63, 67
1, 134584, Note_on_c, 0, 71, 0
1, 134584, Note_on_c, 0, 80, 0
1, 134584, Note_on_c, 0, 63, 0
1, 134587, Note_on_c, 0, 68, 0
1, 134664, Note_on_c, 0, 71, 78
1, 134664, Note_on_c, 0, 80, 78
1, 134664, Note_on_c, 0, 68, 67
1, 134667, Note_on_c, 0, 63, 67
1, 134695, Control_c, 0, 64, 127
1, 134828, Note_on_c, 0, 80, 0
1, 134828, Note_on_c, 0, 71, 0
1, 134828, Note_on_c, 0, 75, 71
1, 134831, Note_on_c, 0, 83, 71
1, 134831, Note_on_c, 0, 63, 0
1, 134831, Note_on_c, 0, 68, 0
1, 134834, Note_on_c, 0, 63, 63
1, 134834, Note_on_c, 0, 59, 63
1, 134952, Control_c, 0, 64, 0
1, 134996, Note_on_c, 0, 83, 0
1, 134996, Note_on_c, 0, 75, 0
1, 134996, Note_on_c, 0, 59, 0
1, 134999, Note_on_c, 0, 63, 0
1, 134999, Note_on_c, 0, 51, 70
1, 135170, Note_on_c, 0, 70, 72
1, 135170, Note_on_c, 0, 79, 72
1, 135170, Note_on_c, 0, 51, 0
1, 135173, Note_on_c, 0, 67, 61
1, 135173, Note_on_c, 0, 61, 61
1, 135259, Note_on_c, 0, 79, 0
1, 135259, Note_on_c, 0, 70, 0
1, 135259, Note_on_c, 0, 61, 0
1, 135262, Note_on_c, 0, 67, 0
1, 135347, Note_on_c, 0, 70, 71
1, 135347, Note_on_c, 0, 79, 71
1, 135347, Note_on_c, 0, 67, 61
1, 135350, Note_on_c, 0, 61, 61
1, 135406, Control_c, 0, 64, 127
1, 135524, Note_on_c, 0, 79, 0
1, 135524, Note_on_c, 0, 70, 0
1, 135524, Note_on_c, 0, 73, 60
1, 135527, Note_on_c, 0, 82, 60
1, 135527, Note_on_c, 0, 61, 0
1, 135527, Note_on_c, 0, 67, 0
1, 135530, Note_on_c, 0, 58, 52
1, 135530, Note_on_c, 0, 61, 52
1, 135626, Control_c, 0, 64, 0
1, 135702, Note_on_c, 0, 82, 0
1, 135702, Note_on_c, 0, 73, 0
1, 135702, Note_on_c, 0, 80, 69
1, 135705, Note_on_c, 0, 71, 69
1, 135705, Note_on_c, 0, 61, 0
1, 135705, Note_on_c, 0, 58, 0
1, 135708, Note_on_c, 0, 44, 59
1, 135777, Note_on_c, 0, 56, 48
1, 135789, Note_on_c, 0, 44, 0
1, 135851, Note_on_c, 0, 51, 53
1, 135863, Note_on_c, 0, 56, 0
1, 135925, Note_on_c, 0, 56, 49
1, 135938, Note_on_c, 0, 51, 0
1, 136000, Note_on_c, 0, 71, 0
1, 136000, Note_on_c, 0, 80, 0
1, 136000, Note_on_c, 0, 44, 59
1, 136012, Note_on_c, 0, 56, 0
1, 136074, Note_on_c, 0, 56, 49
1, 136086, Note_on_c, 0, 44, 0
1, 136148, Note_on_c, 0, 51, 53
1, 136161, Note_on_c, 0, 56, 0
1, 136223, Note_on_c, 0, 56, 49
1, 136235, Note_on_c, 0, 51, 0
1, 136297, Note_on_c, 0, 44, 59
1, 136309, Note_on_c, 0, 56, 0
1, 136371, Note_on_c, 0, 56, 49
1, 136384, Note_on_c, 0, 44, 0
1, 136445, Note_on_c, 0, 51, 54
1, 136458, Note_on_c, 0, 56, 0
1, 136520, Note_on_c, 0, 56, 49
1, 136532, Note_on_c, 0, 51, 0
1, 136594, Note_on_c, 0, 71, 69
1, 136594, Note_on_c, 0, 44, 59
1, 136607, Note_on_c, 0, 56, 0
1, 136670, Note_on_c, 0, 56, 49
1, 136683, Note_on_c, 0, 44, 0
1, 136746, Note_on_c, 0, 51, 54
1, 136759, Note_on_c, 0, 56, 0
1, 136822, Note_on_c, 0, 71, 0
1, 136822, Note_on_c, 0, 68, 69
1, 136822, Note_on_c, 0, 56, 49
1, 136834, Note_on_c, 0, 51, 0
1, 136860, Note_on_c, 0, 68, 0
1, 136898, Note_on_c, 0, 67, 78
1, 136898, Note_on_c, 0, 44, 59
1, 136910, Note_on_c, 0, 56, 0
1, 136974, Note_on_c, 0, 58, 49
1, 136986, Note_on_c, 0, 44, 0
1, 137050, Note_on_c, 0, 51, 55
1, 137062, Note_on_c, 0, 58, 0
1, 137125, Note_on_c, 0, 58, 49
1, 137138, Note_on_c, 0, 51, 0
1, 137201, Note_on_c, 0, 67, 0
1, 137201, Note_on_c, 0, 61, 66
1, 137201, Note_on_c, 0, 67, 66
1, 137204, Note_on_c, 0, 75, 66
1, 137204, Note_on_c, 0, 44, 59
1, 137215, Note_on_c, 0, 58, 0
1, 137281, Note_on_c, 0, 58, 49
1, 137295, Note_on_c, 0, 44, 0
1, 137362, Note_on_c, 0, 51, 54
1, 137375, Note_on_c, 0, 58, 0
1, 137442, Note_on_c, 0, 75, 0
1, 137442, Note_on_c, 0, 67, 0
1, 137442, Note_on_c, 0, 61, 0
1, 137445, Note_on_c, 0, 58, 50
1, 137455, Note_on_c, 0, 51, 0
1, 137522, Note_on_c, 0, 75, 66
1, 137522, Note_on_c, 0, 61, 66
1, 137522, Note_on_c, 0, 67, 66
1, 137525, Note_on_c, 0, 44, 59
1, 137535, Note_on_c, 0, 58, 0
1, 137602, Note_on_c, 0, 58, 50
1, 137615, Note_on_c, 0, 44, 0
1, 137682, Note_on_c, 0, 51, 55
1, 137695, Note_on_c, 0, 58, 0
1, 137762, Note_on_c, 0, 67, 0
1, 137762, Note_on_c, 0, 61, 0
1, 137762, Note_on_c, 0, 75, 0
1, 137765, Note_on_c, 0, 58, 49
1, 137776, Note_on_c, 0, 51, 0
1, 137842, Note_on_c, 0, 67, 69
1, 137842, Note_on_c, 0, 75, 69
1, 137842, Note_on_c, 0, 61, 69
1, 137845, Note_on_c, 0, 44, 59
1, 137856, Note_on_c, 0, 58, 0
1, 137923, Note_on_c, 0, 58, 49
1, 137936, Note_on_c, 0, 44, 0
1, 138003, Note_on_c, 0, 51, 53
1, 138016, Note_on_c, 0, 58, 0
1, 138083, Note_on_c, 0, 61, 0
1, 138083, Note_on_c, 0, 75, 0
1, 138083, Note_on_c, 0, 67, 0
1, 138086, Note_on_c, 0, 59, 69
1, 138086, Note_on_c, 0, 58, 49
1, 138101, Note_on_c, 0, 51, 0
1, 138137, Note_on_c, 0, 68, 69
1, 138155, Note_on_c, 0, 59, 0
1, 138191, Note_on_c, 0, 75, 78
1, 138191, Note_on_c, 0, 44, 59
1, 138203, Note_on_c, 0, 68, 0
1, 138203, Note_on_c, 0, 58, 0
1, 138265, Note_on_c, 0, 56, 48
1, 138277, Note_on_c, 0, 44, 0
1, 138339, Note_on_c, 0, 51, 54
1, 138352, Note_on_c, 0, 56, 0
1, 138414, Note_on_c, 0, 56, 48
1, 138426, Note_on_c, 0, 51, 0
1, 138488, Note_on_c, 0, 44, 59
1, 138500, Note_on_c, 0, 56, 0
1, 138562, Note_on_c, 0, 56, 49
1, 138575, Note_on_c, 0, 44, 0
1, 138636, Note_on_c, 0, 51, 55
1, 138649, Note_on_c, 0, 56, 0
1, 138711, Note_on_c, 0, 56, 50
1, 138723, Note_on_c, 0, 51, 0
1, 138785, Note_on_c, 0, 44, 59
1, 138798, Note_on_c, 0, 56, 0
1, 138859, Note_on_c, 0, 56, 50
1, 138872, Note_on_c, 0, 44, 0
1, 138934, Note_on_c, 0, 51, 55
1, 138946, Note_on_c, 0, 56, 0
1, 139008, Note_on_c, 0, 56, 49
1, 139021, Note_on_c, 0, 51, 0
1, 139082, Note_on_c, 0, 75, 0
1, 139082, Note_on_c, 0, 83, 79
1, 139082, Note_on_c, 0, 44, 59
1, 139095, Note_on_c, 0, 56, 0
1, 139158, Note_on_c, 0, 56, 49
1, 139171, Note_on_c, 0, 44, 0
1, 139234, Note_on_c, 0, 51, 53
1, 139246, Note_on_c, 0, 56, 0
1, 139309, Note_on_c, 0, 83, 0
1, 139309, Note_on_c, 0, 80, 79
1, 139309, Note_on_c, 0, 56, 50
1, 139322, Note_on_c, 0, 51, 0
1, 139385, Note_on_c, 0, 80, 0
1, 139385, Note_on_c, 0, 79, 89
1, 139385, Note_on_c, 0, 44, 59
1, 139398, Note_on_c, 0, 56, 0
1, 139461, Note_on_c, 0, 58, 49
1, 139473, Note_on_c, 0, 44, 0
1, 139536, Note_on_c, 0, 51, 53
1, 139549, Note_on_c, 0, 58, 0
1, 139612, Note_on_c, 0, 58, 49
1, 139624, Note_on_c, 0, 51, 0
1, 139687, Note_on_c, 0, 79, 0
1, 139687, Note_on_c, 0, 73, 78
1, 139687, Note_on_c, 0, 79, 78
1, 139690, Note_on_c, 0, 87, 78
1, 139690, Note_on_c, 0, 44, 59
1, 139701, Note_on_c, 0, 58, 0
1, 139766, Note_on_c, 0, 58, 49
1, 139779, Note_on_c, 0, 44, 0
1, 139844, Note_on_c, 0, 51, 53
1, 139857, Note_on_c, 0, 58, 0
1, 139922, Note_on_c, 0, 87, 0
1, 139922, Note_on_c, 0, 79, 0
1, 139922, Note_on_c, 0, 73, 0
1, 139925, Note_on_c, 0, 58, 49
1, 139935, Note_on_c, 0, 51, 0
1, 140000, Note_on_c, 0, 79, 78
1, 140000, Note_on_c, 0, 73, 78
1, 140000, Note_on_c, 0, 87, 78
1, 140003, Note_on_c, 0, 44, 59
1, 140013, Note_on_c, 0, 58, 0
1, 140078, Note_on_c, 0, 58, 49
1, 140091, Note_on_c, 0, 44, 0
1, 140156, Note_on_c, 0, 51, 53
1, 140169, Note_on_c, 0, 58, 0
1, 140234, Note_on_c, 0, 87, 0
1, 140234, Note_on_c, 0, 73, 0
1, 140234, Note_on_c, 0, 79, 0
1, 140237, Note_on_c, 0, 58, 49
1, 140247, Note_on_c, 0, 51, 0
1, 140312, Note_on_c, 0, 79, 78
1, 140312, Note_on_c, 0, 73, 78
1, 140312, Note_on_c, 0, 87, 78
1, 140315, Note_on_c, 0, 44, 59
1, 140325, Note_on_c, 0, 58, 0
1, 140390, Note_on_c, 0, 58, 50
1, 140403, Note_on_c, 0, 44, 0
1, 140469, Note_on_c, 0, 51, 56
1, 140482, Note_on_c, 0, 58, 0
1, 140545, Note_on_c, 0, 87, 0
1, 140545, Note_on_c, 0, 73, 0
1, 140545, Note_on_c, 0, 79, 0
1, 140548, Note_on_c, 0, 68, 66
1, 140548, Note_on_c, 0, 58, 50
1, 140562, Note_on_c, 0, 51, 0
1, 140596, Note_on_c, 0, 80, 72
1, 140613, Note_on_c, 0, 68, 0
1, 140647, Note_on_c, 0, 87, 96
1, 140647, Note_on_c, 0, 44, 59
1, 140659, Note_on_c, 0, 80, 0
1, 140659, Note_on_c, 0, 58, 0
1, 140720, Note_on_c, 0, 56, 49
1, 140732, Note_on_c, 0, 44, 0
1, 140793, Note_on_c, 0, 51, 53
1, 140806, Note_on_c, 0, 56, 0
1, 140867, Note_on_c, 0, 56, 49
1, 140879, Note_on_c, 0, 51, 0
1, 140940, Note_on_c, 0, 44, 60
1, 140952, Note_on_c, 0, 56, 0
1, 141013, Note_on_c, 0, 56, 49
1, 141026, Note_on_c, 0, 44, 0
1, 141087, Note_on_c, 0, 51, 52
1, 141099, Note_on_c, 0, 56, 0
1, 141160, Note_on_c, 0, 87, 0
1, 141160, Note_on_c, 0, 69, 61
1, 141160, Note_on_c, 0, 56, 49
1, 141174, Note_on_c, 0, 51, 0
1, 141203, Note_on_c, 0, 79, 71
1, 141217, Note_on_c, 0, 69, 0
1, 141245, Note_on_c, 0, 87, 95
1, 141245, Note_on_c, 0, 44, 59
1, 141258, Note_on_c, 0, 79, 0
1, 141258, Note_on_c, 0, 56, 0
1, 141319, Note_on_c, 0, 58, 50
1, 141331, Note_on_c, 0, 44, 0
1, 141392, Note_on_c, 0, 51, 54
1, 141404, Note_on_c, 0, 58, 0
1, 141465, Note_on_c, 0, 58, 50
1, 141478, Note_on_c, 0, 51, 0
1, 141539, Note_on_c, 0, 44, 59
1, 141551, Note_on_c, 0, 58, 0
1, 141612, Note_on_c, 0, 58, 49
1, 141624, Note_on_c, 0, 44, 0
1, 141685, Note_on_c, 0, 51, 55
1, 141698, Note_on_c, 0, 58, 0
1, 141759, Note_on_c, 0, 87, 0
1, 141759, Note_on_c, 0, 71, 58
1, 141759, Note_on_c, 0, 58, 49
1, 141775, Note_on_c, 0, 51, 0
1, 141807, Note_on_c, 0, 80, 69
1, 141823, Note_on_c, 0, 71, 0
1, 141855, Note_on_c, 0, 87, 95
1, 141855, Note_on_c, 0, 44, 59
1, 141867, Note_on_c, 0, 80, 0
1, 141867, Note_on_c, 0, 58, 0
1, 141928, Note_on_c, 0, 56, 49
1, 141940, Note_on_c, 0, 44, 0
1, 142002, Note_on_c, 0, 51, 53
1, 142014, Note_on_c, 0, 56, 0
1, 142075, Note_on_c, 0, 56, 49
1, 142087, Note_on_c, 0, 51, 0
1, 142148, Note_on_c, 0, 44, 59
1, 142160, Note_on_c, 0, 56, 0
1, 142221, Note_on_c, 0, 56, 50
1, 142234, Note_on_c, 0, 44, 0
1, 142295, Note_on_c, 0, 51, 53
1, 142307, Note_on_c, 0, 56, 0
1, 142368, Note_on_c, 0, 87, 0
1, 142368, Note_on_c, 0, 69, 63
1, 142368, Note_on_c, 0, 56, 49
1, 142380, Note_on_c, 0, 51, 0
1, 142405, Note_on_c, 0, 79, 72
1, 142417, Note_on_c, 0, 69, 0
1, 142441, Note_on_c, 0, 87, 94
1, 142441, Note_on_c, 0, 44, 59
1, 142454, Note_on_c, 0, 79, 0
1, 142454, Note_on_c, 0, 56, 0
1, 142515, Note_on_c, 0, 58, 50
1, 142527, Note_on_c, 0, 44, 0
1, 142588, Note_on_c, 0, 51, 54
1, 142600, Note_on_c, 0, 58, 0
1, 142661, Note_on_c, 0, 58, 50
1, 142674, Note_on_c, 0, 51, 0
1, 142735, Note_on_c, 0, 44, 59
1, 142747, Note_on_c, 0, 58, 0
1, 142808, Note_on_c, 0, 58, 51
1, 142820, Note_on_c, 0, 44, 0
1, 142881, Note_on_c, 0, 51, 54
1, 142894, Note_on_c, 0, 58, 0
1, 142955, Note_on_c, 0, 58, 51
1, 142967, Note_on_c, 0, 51, 0
1, 143028, Note_on_c, 0, 87, 0
1, 143028, Note_on_c, 0, 59, 68
1, 143028, Note_on_c, 0, 44, 60
1, 143041, Note_on_c, 0, 58, 0
1, 143105, Note_on_c, 0, 68, 69
1, 143105, Note_on_c, 0, 56, 59
1, 143118, Note_on_c, 0, 59, 0
1, 143118, Note_on_c, 0, 44, 0
1, 143181, Note_on_c, 0, 63, 70
1, 143181, Note_on_c, 0, 51, 60
1, 143194, Note_on_c, 0, 68, 0
1, 143194, Note_on_c, 0, 56, 0
1, 143257, Note_on_c, 0, 68, 66
1, 143257, Note_on_c, 0, 56, 57
1, 143270, Note_on_c, 0, 63, 0
1, 143270, Note_on_c, 0, 51, 0
1, 143333, Note_on_c, 0, 59, 72
1, 143333, Note_on_c, 0, 44, 61
1, 143346, Note_on_c, 0, 68, 0
1, 143346, Note_on_c, 0, 56, 0
1, 143408, Note_on_c, 0, 68, 73
1, 143408, Note_on_c, 0, 56, 62
1, 143421, Note_on_c, 0, 59, 0
1, 143421, Note_on_c, 0, 44, 0
1, 143484, Note_on_c, 0, 63, 74
1, 143484, Note_on_c, 0, 51, 63
1, 143496, Note_on_c, 0, 68, 0
1, 143496, Note_on_c, 0, 56, 0
1, 143558, Note_on_c, 0, 68, 72
1, 143558, Note_on_c, 0, 56, 60
1, 143571, Note_on_c, 0, 63, 0
1, 143571, Note_on_c, 0, 51, 0
1, 143633, Note_on_c, 0, 59, 78
1, 143633, Note_on_c, 0, 44, 66
1, 143646, Note_on_c, 0, 68, 0
1, 143646, Note_on_c, 0, 56, 0
1, 143708, Note_on_c, 0, 68, 78
1, 143708, Note_on_c, 0, 56, 67
1, 143720, Note_on_c, 0, 59, 0
1, 143720, Note_on_c, 0, 44, 0
1, 143781, Note_on_c, 0, 63, 79
1, 143781, Note_on_c, 0, 51, 67
1, 143793, Note_on_c, 0, 68, 0
1, 143793, Note_on_c, 0, 56, 0
1, 143853, Note_on_c, 0, 68, 74
1, 143853, Note_on_c, 0, 56, 62
1, 143865, Note_on_c, 0, 63, 0
1, 143865, Note_on_c, 0, 51, 0
1, 143926, Note_on_c, 0, 59, 82
1, 143926, Note_on_c, 0, 44, 70
1, 143938, Note_on_c, 0, 68, 0
1, 143938, Note_on_c, 0, 56, 0
1, 143998, Note_on_c, 0, 68, 83
1, 143998, Note_on_c, 0, 56, 71
1, 144010, Note_on_c, 0, 59, 0
1, 144010, Note_on_c, 0, 44, 0
1, 144070, Note_on_c, 0, 63, 84
1, 144070, Note_on_c, 0, 51, 72
1, 144082, Note_on_c, 0, 68, 0
1, 144082, Note_on_c, 0, 56, 0
1, 144142, Note_on_c, 0, 68, 78
1, 144142, Note_on_c, 0, 56, 66
1, 144154, Note_on_c, 0, 63, 0
1, 144154, Note_on_c, 0, 51, 0
1, 144214, Note_on_c, 0, 60, 88
1, 144214, Note_on_c, 0, 44, 73
1, 144225, Note_on_c, 0, 68, 0
1, 144225, Note_on_c, 0, 56, 0
1, 144285, Note_on_c, 0, 66, 89
1, 144285, Note_on_c, 0, 54, 76
1, 144297, Note_on_c, 0, 60, 0
1, 144297, Note_on_c, 0, 44, 0
1, 144356, Note_on_c, 0, 63, 90
1, 144356, Note_on_c, 0, 51, 77
1, 144368, Note_on_c, 0, 66, 0
1, 144368, Note_on_c, 0, 54, 0
1, 144428, Note_on_c, 0, 66, 85
1, 144428, Note_on_c, 0, 54, 72
1, 144440, Note_on_c, 0, 63, 0
1, 144440, Note_on_c, 0, 51, 0
1, 144499, Note_on_c, 0, 60, 92
1, 144499, Note_on_c, 0, 44, 78
1, 144511, Note_on_c, 0, 66, 0
1, 144511, Note_on_c, 0, 54, 0
1, 144570, Note_on_c, 0, 66, 93
1, 144570, Note_on_c, 0, 54, 79
1, 144582, Note_on_c, 0, 60, 0
1, 144582, Note_on_c, 0, 44, 0
1, 144642, Note_on_c, 0, 63, 94
1, 144642, Note_on_c, 0, 51, 81
1, 144653, Note_on_c, 0, 66, 0
1, 144653, Note_on_c, 0, 54, 0
1, 144712, Note_on_c, 0, 66, 90
1, 144712, Note_on_c, 0, 54, 78
1, 144724, Note_on_c, 0, 63, 0
1, 144724, Note_on_c, 0, 51, 0
1, 144782, Note_on_c, 0, 60, 96
1, 144782, Note_on_c, 0, 44, 83
1, 144794, Note_on_c, 0, 66, 0
1, 144794, Note_on_c, 0, 54, 0
1, 144852, Note_on_c, 0, 66, 98
1, 144852, Note_on_c, 0, 54, 84
1, 144863, Note_on_c, 0, 60, 0
1, 144863, Note_on_c, 0, 44, 0
1, 144922, Note_on_c, 0, 63, 99
1, 144922, Note_on_c, 0, 51, 85
1, 144933, Note_on_c, 0, 66, 0
1, 144933, Note_on_c, 0, 54, 0
1, 144992, Note_on_c, 0, 66, 93
1, 144992, Note_on_c, 0, 54, 80
1, 145003, Note_on_c, 0, 63, 0
1, 145003, Note_on_c, 0, 51, 0
1, 145061, Note_on_c, 0, 60, 102
1, 145061, Note_on_c, 0, 44, 87
1, 145073, Note_on_c, 0, 66, 0
1, 145073, Note_on_c, 0, 54, 0
1, 145131, Note_on_c, 0, 66, 103
1, 145131, Note_on_c, 0, 54, 89
1, 145142, Note_on_c, 0, 60, 0
1, 145142, Note_on_c, 0, 44, 0
1, 145200, Note_on_c, 0, 63, 103
1, 145200, Note_on_c, 0, 51, 89
1, 145212, Note_on_c, 0, 66, 0
1, 145212, Note_on_c, 0, 54, 0
1, 145270, Note_on_c, 0, 66, 96
1, 145270, Note_on_c, 0, 54, 81
1, 145281, Note_on_c, 0, 63, 0
1, 145281, Note_on_c, 0, 51, 0
1, 145338, Note_on_c, 0, 61, 105
1, 145338, Control_c, 0, 91, 127
1, 145338, Note_on_c, 0, 65, 105
1, 145341, Note_on_c, 0, 37, 78
1, 145341, Note_on_c, 0, 53, 78
1, 145341, Note_on_c, 0, 56, 78
1, 145344, Control_c, 0, 91, 127
1, 145349, Note_on_c, 0, 66, 0
1, 145349, Note_on_c, 0, 54, 0
1, 145405, Note_on_c, 0, 65, 0
1, 145405, Note_on_c, 0, 61, 0
1, 145405, Note_on_c, 0, 49, 70
1, 145408, Note_on_c, 0, 37, 0
1, 145408, Note_on_c, 0, 53, 0
1, 145408, Note_on_c, 0, 56, 0
1, 145473, Note_on_c, 0, 53, 71
1, 145473, Note_on_c, 0, 44, 50
1, 145484, Note_on_c, 0, 49, 0
1, 145540, Note_on_c, 0, 56, 72
1, 145540, Note_on_c, 0, 44, 0
1, 145551, Note_on_c, 0, 53, 0
1, 145608, Note_on_c, 0, 61, 74
1, 145608, Note_on_c, 0, 37, 53
1, 145619, Note_on_c, 0, 56, 0
1, 145675, Note_on_c, 0, 53, 68
1, 145675, Note_on_c, 0, 37, 0
1, 145686, Note_on_c, 0, 61, 0
1, 145742, Note_on_c, 0, 56, 69
1, 145742, Note_on_c, 0, 44, 51
1, 145754, Note_on_c, 0, 53, 0
1, 145810, Note_on_c, 0, 61, 71
1, 145810, Note_on_c, 0, 44, 0
1, 145821, Note_on_c, 0, 56, 0
1, 145877, Note_on_c, 0, 65, 71
1, 145877, Note_on_c, 0, 37, 53
1, 145888, Note_on_c, 0, 61, 0
1, 145944, Note_on_c, 0, 56, 67
1, 145944, Note_on_c, 0, 37, 0
1, 145956, Note_on_c, 0, 65, 0
1, 146012, Note_on_c, 0, 61, 69
1, 146012, Note_on_c, 0, 44, 51
1, 146023, Note_on_c, 0, 56, 0
1, 146079, Note_on_c, 0, 65, 71
1, 146079, Note_on_c, 0, 44, 0
1, 146090, Note_on_c, 0, 61, 0
1, 146146, Note_on_c, 0, 68, 72
1, 146146, Note_on_c, 0, 37, 52
1, 146158, Note_on_c, 0, 65, 0
1, 146214, Note_on_c, 0, 61, 68
1, 146214, Note_on_c, 0, 37, 0
1, 146225, Note_on_c, 0, 68, 0
1, 146281, Note_on_c, 0, 65, 69
1, 146281, Note_on_c, 0, 44, 49
1, 146292, Note_on_c, 0, 61, 0
1, 146349, Note_on_c, 0, 68, 71
1, 146349, Note_on_c, 0, 44, 0
1, 146360, Note_on_c, 0, 65, 0
1, 146416, Note_on_c, 0, 73, 71
1, 146416, Note_on_c, 0, 37, 60
1, 146427, Note_on_c, 0, 68, 0
1, 146483, Note_on_c, 0, 65, 68
1, 146495, Note_on_c, 0, 73, 0
1, 146551, Note_on_c, 0, 68, 70
1, 146551, Note_on_c, 0, 37, 0
1, 146551, Note_on_c, 0, 44, 57
1, 146562, Note_on_c, 0, 65, 0
1, 146618, Note_on_c, 0, 73, 71
1, 146629, Note_on_c, 0, 68, 0
1, 146685, Note_on_c, 0, 77, 74
1, 146685, Note_on_c, 0, 44, 0
1, 146685, Note_on_c, 0, 37, 61
1, 146697, Note_on_c, 0, 73, 0
1, 146753, Note_on_c, 0, 68, 68
1, 146764, Note_on_c, 0, 77, 0
1, 146820, Note_on_c, 0, 73, 70
1, 146820, Note_on_c, 0, 37, 0
1, 146820, Note_on_c, 0, 44, 57
1, 146831, Note_on_c, 0, 68, 0
1, 146887, Note_on_c, 0, 77, 71
1, 146899, Note_on_c, 0, 73, 0
1, 146955, Note_on_c, 0, 80, 73
1, 146955, Note_on_c, 0, 44, 0
1, 146955, Note_on_c, 0, 37, 61
1, 146966, Note_on_c, 0, 77, 0
1, 147022, Note_on_c, 0, 73, 69
1, 147033, Note_on_c, 0, 80, 0
1, 147090, Note_on_c, 0, 77, 71
1, 147090, Note_on_c, 0, 37, 0
1, 147090, Note_on_c, 0, 44, 57
1, 147101, Note_on_c, 0, 73, 0
1, 147157, Note_on_c, 0, 80, 72
1, 147168, Note_on_c, 0, 77, 0
1, 147224, Note_on_c, 0, 80, 0
1, 147224, Note_on_c, 0, 73, 91
1, 147224, Note_on_c, 0, 77, 91
1, 147227, Note_on_c, 0, 80, 106
1, 147227, Control_c, 0, 64, 127
1, 147227, Note_on_c, 0, 85, 106
1, 147230, Note_on_c, 0, 44, 0
1, 147230, Note_on_c, 0, 49, 89
1, 147230, Control_c, 0, 64, 127
1, 147233, Note_on_c, 0, 37, 89
1, 147295, Note_on_c, 0, 85, 0
1, 147295, Note_on_c, 0, 73, 0
1, 147295, Note_on_c, 0, 77, 0
1, 147298, Note_on_c, 0, 80, 0
1, 147365, Note_on_c, 0, 80, 90
1, 147365, Note_on_c, 0, 73, 78
1, 147365, Note_on_c, 0, 85, 90
1, 147368, Note_on_c, 0, 77, 78
1, 147368, Note_on_c, 0, 37, 0
1, 147368, Note_on_c, 0, 49, 0
1, 147371, Note_on_c, 0, 44, 77
1, 147436, Note_on_c, 0, 77, 0
1, 147436, Note_on_c, 0, 80, 0
1, 147436, Note_on_c, 0, 73, 0
1, 147439, Note_on_c, 0, 85, 0
1, 147506, Control_c, 0, 64, 0
1, 147506, Note_on_c, 0, 44, 0
1, 147506, Note_on_c, 0, 35, 90
1, 147509, Control_c, 0, 64, 0
1, 147573, Note_on_c, 0, 49, 71
1, 147641, Note_on_c, 0, 53, 72
1, 147641, Note_on_c, 0, 35, 0
1, 147641, Note_on_c, 0, 44, 61
1, 147652, Note_on_c, 0, 49, 0
1, 147708, Note_on_c, 0, 56, 74
1, 147719, Note_on_c, 0, 53, 0
1, 147775, Note_on_c, 0, 61, 77
1, 147775, Note_on_c, 0, 44, 0
1, 147775, Note_on_c, 0, 35, 66
1, 147787, Note_on_c, 0, 56, 0
1, 147843, Note_on_c, 0, 53, 71
1, 147854, Note_on_c, 0, 61, 0
1, 147910, Note_on_c, 0, 56, 73
1, 147910, Note_on_c, 0, 35, 0
1, 147910, Note_on_c, 0, 44, 62
1, 147921, Note_on_c, 0, 53, 0
1, 147978, Note_on_c, 0, 61, 74
1, 147989, Note_on_c, 0, 56, 0
1, 148045, Note_on_c, 0, 65, 77
1, 148045, Note_on_c, 0, 44, 0
1, 148045, Note_on_c, 0, 35, 67
1, 148056, Note_on_c, 0, 61, 0
1, 148112, Note_on_c, 0, 56, 71
1, 148124, Note_on_c, 0, 65, 0
1, 148180, Note_on_c, 0, 61, 73
1, 148180, Note_on_c, 0, 35, 0
1, 148180, Note_on_c, 0, 44, 61
1, 148191, Note_on_c, 0, 56, 0
1, 148247, Note_on_c, 0, 65, 76
1, 148258, Note_on_c, 0, 61, 0
1, 148314, Note_on_c, 0, 68, 78
1, 148314, Note_on_c, 0, 44, 0
1, 148314, Note_on_c, 0, 35, 67
1, 148326, Note_on_c, 0, 65, 0
1, 148382, Note_on_c, 0, 61, 71
1, 148393, Note_on_c, 0, 68, 0
1, 148449, Note_on_c, 0, 65, 73
1, 148449, Note_on_c, 0, 35, 0
1, 148449, Note_on_c, 0, 44, 62
1, 148460, Note_on_c, 0, 61, 0
1, 148516, Note_on_c, 0, 68, 76
1, 148528, Note_on_c, 0, 65, 0
1, 148584, Note_on_c, 0, 73, 78
1, 148584, Note_on_c, 0, 44, 0
1, 148584, Note_on_c, 0, 35, 67
1, 148595, Note_on_c, 0, 68, 0
1, 148651, Note_on_c, 0, 65, 73
1, 148662, Note_on_c, 0, 73, 0
1, 148719, Note_on_c, 0, 68, 76
1, 148719, Note_on_c, 0, 35, 0
1, 148719, Note_on_c, 0, 44, 62
1, 148730, Note_on_c, 0, 65, 0
1, 148786, Note_on_c, 0, 73, 78
1, 148797, Note_on_c, 0, 68, 0
1, 148853, Note_on_c, 0, 77, 78
1, 148853, Note_on_c, 0, 44, 0
1, 148853, Note_on_c, 0, 35, 67
1, 148865, Note_on_c, 0, 73, 0
1, 148921, Note_on_c, 0, 68, 72
1, 148932, Note_on_c, 0, 77, 0
1, 148988, Note_on_c, 0, 73, 74
1, 148988, Note_on_c, 0, 35, 0
1, 148988, Note_on_c, 0, 44, 62
1, 148999, Note_on_c, 0, 68, 0
1, 149055, Note_on_c, 0, 77, 77
1, 149067, Note_on_c, 0, 73, 0
1, 149123, Note_on_c, 0, 80, 79
1, 149123, Note_on_c, 0, 44, 0
1, 149123, Note_on_c, 0, 35, 67
1, 149134, Note_on_c, 0, 77, 0
1, 149190, Note_on_c, 0, 73, 72
1, 149201, Note_on_c, 0, 80, 0
1, 149257, Note_on_c, 0, 77, 77
1, 149257, Note_on_c, 0, 35, 0
1, 149257, Note_on_c, 0, 44, 62
1, 149269, Note_on_c, 0, 73, 0
1, 149325, Note_on_c, 0, 80, 80
1, 149336, Note_on_c, 0, 77, 0
1, 149392, Note_on_c, 0, 80, 0
1, 149392, Note_on_c, 0, 73, 91
1, 149392, Note_on_c, 0, 77, 91
1, 149395, Note_on_c, 0, 85, 106
1, 149395, Control_c, 0, 64, 127
1, 149395, Note_on_c, 0, 80, 106
1, 149398, Note_on_c, 0, 44, 0
1, 149398, Note_on_c, 0, 35, 89
1, 149398, Note_on_c, 0, 47, 89
1, 149401, Control_c, 0, 64, 127
1, 149463, Note_on_c, 0, 80, 0
1, 149463, Note_on_c, 0, 73, 0
1, 149463, Note_on_c, 0, 77, 0
1, 149466, Note_on_c, 0, 85, 0
1, 149533, Note_on_c, 0, 77, 80
1, 149533, Note_on_c, 0, 80, 94
1, 149533, Note_on_c, 0, 73, 80
1, 149536, Note_on_c, 0, 85, 94
1, 149536, Note_on_c, 0, 47, 0
1, 149536, Note_on_c, 0, 35, 0
1, 149539, Note_on_c, 0, 44, 77
1, 149604, Note_on_c, 0, 85, 0
1, 149604, Note_on_c, 0, 77, 0
1, 149604, Note_on_c, 0, 80, 0
1, 149607, Note_on_c, 0, 73, 0
1, 149674, Control_c, 0, 64, 0
1, 149674, Note_on_c, 0, 44, 0
1, 149674, Note_on_c, 0, 33, 91
1, 149677, Control_c, 0, 64, 0
1, 149741, Note_on_c, 0, 49, 83
1, 149741, Note_on_c, 0, 33, 0
1, 149809, Note_on_c, 0, 54, 84
1, 149809, Note_on_c, 0, 45, 71
1, 149820, Note_on_c, 0, 49, 0
1, 149876, Note_on_c, 0, 57, 87
1, 149876, Note_on_c, 0, 45, 0
1, 149887, Note_on_c, 0, 54, 0
1, 149943, Note_on_c, 0, 61, 89
1, 149943, Note_on_c, 0, 33, 75
1, 149955, Note_on_c, 0, 57, 0
1, 149977, Note_on_c, 0, 61, 0
1, 150011, Note_on_c, 0, 61, 84
1, 150011, Note_on_c, 0, 33, 0
1, 150078, Note_on_c, 0, 66, 87
1, 150078, Note_on_c, 0, 45, 71
1, 150089, Note_on_c, 0, 61, 0
1, 150145, Note_on_c, 0, 69, 89
1, 150145, Note_on_c, 0, 45, 0
1, 150157, Note_on_c, 0, 66, 0
1, 150213, Note_on_c, 0, 73, 91
1, 150213, Note_on_c, 0, 33, 75
1, 150224, Note_on_c, 0, 69, 0
1, 150247, Note_on_c, 0, 73, 0
1, 150280, Note_on_c, 0, 73, 84
1, 150280, Note_on_c, 0, 33, 0
1, 150348, Note_on_c, 0, 78, 87
1, 150348, Note_on_c, 0, 45, 71
1, 150359, Note_on_c, 0, 73, 0
1, 150415, Note_on_c, 0, 81, 90
1, 150415, Note_on_c, 0, 45, 0
1, 150426, Note_on_c, 0, 78, 0
1, 150482, Note_on_c, 0, 81, 0
1, 150482, Note_on_c, 0, 78, 98
1, 150482, Note_on_c, 0, 73, 98
1, 150485, Note_on_c, 0, 81, 114
1, 150485, Control_c, 0, 64, 127
1, 150485, Note_on_c, 0, 85, 114
1, 150488, Control_c, 0, 64, 127
1, 150488, Note_on_c, 0, 33, 97
1, 150553, Note_on_c, 0, 85, 0
1, 150553, Note_on_c, 0, 78, 0
1, 150553, Note_on_c, 0, 73, 0
1, 150556, Note_on_c, 0, 81, 0
1, 150556, Note_on_c, 0, 33, 0
1, 150624, Note_on_c, 0, 78, 85
1, 150624, Note_on_c, 0, 85, 99
1, 150624, Note_on_c, 0, 81, 99
1, 150627, Note_on_c, 0, 73, 85
1, 150627, Note_on_c, 0, 45, 83
1, 150694, Note_on_c, 0, 73, 0
1, 150694, Note_on_c, 0, 78, 0
1, 150694, Note_on_c, 0, 85, 0
1, 150697, Note_on_c, 0, 81, 0
1, 150697, Note_on_c, 0, 45, 0
1, 150765, Note_on_c, 0, 29, 76
1, 150772, Control_c, 0, 64, 0
1, 150772, Control_c, 0, 64, 0
1, 150832, Note_on_c, 0, 49, 83
1, 150832, Note_on_c, 0, 29, 0
1, 150900, Note_on_c, 0, 56, 84
1, 150900, Note_on_c, 0, 41, 72
1, 150911, Note_on_c, 0, 49, 0
1, 150967, Note_on_c, 0, 59, 88
1, 150967, Note_on_c, 0, 41, 0
1, 150978, Note_on_c, 0, 56, 0
1, 151034, Note_on_c, 0, 61, 90
1, 151034, Note_on_c, 0, 29, 73
1, 151046, Note_on_c, 0, 59, 0
1, 151068, Note_on_c, 0, 61, 0
1, 151102, Note_on_c, 0, 61, 83
1, 151102, Note_on_c, 0, 29, 0
1, 151169, Note_on_c, 0, 68, 85
1, 151169, Note_on_c, 0, 41, 71
1, 151180, Note_on_c, 0, 61, 0
1, 151237, Note_on_c, 0, 71, 89
1, 151237, Note_on_c, 0, 41, 0
1, 151248, Note_on_c, 0, 68, 0
1, 151304, Note_on_c, 0, 73, 91
1, 151304, Note_on_c, 0, 29, 73
1, 151315, Note_on_c, 0, 71, 0
1, 151338, Note_on_c, 0, 73, 0
1, 151371, Note_on_c, 0, 73, 83
1, 151371, Note_on_c, 0, 29, 0
1, 151439, Note_on_c, 0, 80, 85
1, 151439, Note_on_c, 0, 41, 69
1, 151450, Note_on_c, 0, 73, 0
1, 151506, Note_on_c, 0, 83, 89
1, 151506, Note_on_c, 0, 41, 0
1, 151517, Note_on_c, 0, 80, 0
1, 151573, Note_on_c, 0, 83, 0
1, 151573, Control_c, 0, 64, 127
1, 151573, Note_on_c, 0, 73, 101
1, 151576, Note_on_c, 0, 80, 101
1, 151576, Note_on_c, 0, 85, 118
1, 151576, Note_on_c, 0, 83, 118
1, 151579, Note_on_c, 0, 29, 96
1, 151579, Control_c, 0, 64, 127
1, 151653, Note_on_c, 0, 83, 0
1, 151653, Note_on_c, 0, 73, 0
1, 151653, Note_on_c, 0, 80, 0
1, 151656, Note_on_c, 0, 85, 0
1, 151656, Note_on_c, 0, 29, 0
1, 151732, Note_on_c, 0, 85, 103
1, 151732, Note_on_c, 0, 83, 103
1, 151732, Note_on_c, 0, 80, 89
1, 151735, Note_on_c, 0, 73, 89
1, 151735, Note_on_c, 0, 41, 89
1, 151811, Note_on_c, 0, 73, 0
1, 151811, Note_on_c, 0, 85, 0
1, 151811, Note_on_c, 0, 83, 0
1, 151814, Note_on_c, 0, 80, 0
1, 151814, Note_on_c, 0, 41, 0
1, 151890, Note_on_c, 0, 73, 94
1, 151890, Note_on_c, 0, 85, 109
1, 151890, Note_on_c, 0, 81, 109
1, 151893, Control_c, 0, 64, 0
1, 151893, Note_on_c, 0, 78, 94
1, 151893, Control_c, 0, 64, 0
1, 151896, Note_on_c, 0, 30, 91
1, 151896, Note_on_c, 0, 42, 91
1, 151980, Note_on_c, 0, 42, 0
1, 151980, Note_on_c, 0, 30, 0
1, 151980, Note_on_c, 0, 61, 45
1, 152069, Note_on_c, 0, 78, 0
1, 152069, Note_on_c, 0, 73, 0
1, 152069, Note_on_c, 0, 85, 0
1, 152072, Note_on_c, 0, 81, 0
1, 152072, Note_on_c, 0, 57, 51
1, 152084, Note_on_c, 0, 61, 0
1, 152159, Note_on_c, 0, 61, 45
1, 152174, Note_on_c, 0, 57, 0
1, 152248, Note_on_c, 0, 73, 90
1, 152248, Note_on_c, 0, 54, 59
1, 152259, Note_on_c, 0, 61, 0
1, 152315, Note_on_c, 0, 61, 43
1, 152327, Note_on_c, 0, 54, 0
1, 152383, Note_on_c, 0, 57, 47
1, 152394, Note_on_c, 0, 61, 0
1, 152450, Note_on_c, 0, 61, 44
1, 152461, Note_on_c, 0, 57, 0
1, 152518, Note_on_c, 0, 54, 55
1, 152529, Note_on_c, 0, 61, 0
1, 152585, Note_on_c, 0, 61, 44
1, 152596, Note_on_c, 0, 54, 0
1, 152652, Note_on_c, 0, 57, 48
1, 152663, Note_on_c, 0, 61, 0
1, 152720, Note_on_c, 0, 61, 45
1, 152731, Note_on_c, 0, 57, 0
1, 152787, Note_on_c, 0, 69, 71
1, 152787, Note_on_c, 0, 54, 55
1, 152798, Note_on_c, 0, 73, 0
1, 152798, Note_on_c, 0, 61, 0
1, 152854, Note_on_c, 0, 61, 45
1, 152866, Note_on_c, 0, 54, 0
1, 152922, Note_on_c, 0, 57, 48
1, 152933, Note_on_c, 0, 61, 0
1, 152989, Note_on_c, 0, 66, 71
1, 152989, Note_on_c, 0, 61, 44
1, 153015, Note_on_c, 0, 69, 0
1, 153015, Note_on_c, 0, 57, 0
1, 153066, Note_on_c, 0, 66, 0
1, 153066, Note_on_c, 0, 65, 59
1, 153091, Note_on_c, 0, 65, 0
1, 153091, Note_on_c, 0, 66, 59
1, 153117, Note_on_c, 0, 66, 0
1, 153117, Note_on_c, 0, 68, 59
1, 153142, Note_on_c, 0, 68, 0
1, 153142, Note_on_c, 0, 66, 83
1, 153142, Note_on_c, 0, 56, 54
1, 153154, Note_on_c, 0, 61, 0
1, 153213, Note_on_c, 0, 61, 43
1, 153225, Note_on_c, 0, 56, 0
1, 153284, Note_on_c, 0, 59, 47
1, 153296, Note_on_c, 0, 61, 0
1, 153355, Note_on_c, 0, 61, 41
1, 153367, Note_on_c, 0, 59, 0
1, 153426, Note_on_c, 0, 65, 71
1, 153426, Note_on_c, 0, 56, 56
1, 153437, Note_on_c, 0, 66, 0
1, 153437, Note_on_c, 0, 61, 0
1, 153493, Note_on_c, 0, 61, 45
1, 153504, Note_on_c, 0, 56, 0
1, 153560, Note_on_c, 0, 59, 50
1, 153572, Note_on_c, 0, 61, 0
1, 153628, Note_on_c, 0, 61, 46
1, 153639, Note_on_c, 0, 59, 0
1, 153695, Note_on_c, 0, 56, 54
1, 153706, Note_on_c, 0, 61, 0
1, 153762, Note_on_c, 0, 61, 45
1, 153774, Note_on_c, 0, 56, 0
1, 153830, Note_on_c, 0, 65, 0
1, 153830, Note_on_c, 0, 65, 71
1, 153830, Note_on_c, 0, 59, 48
1, 153842, Note_on_c, 0, 61, 0
1, 153904, Note_on_c, 0, 61, 45
1, 153917, Note_on_c, 0, 59, 0
1, 153979, Note_on_c, 0, 73, 77
1, 153979, Note_on_c, 0, 56, 54
1, 153991, Note_on_c, 0, 65, 0
1, 153991, Note_on_c, 0, 61, 0
1, 154054, Note_on_c, 0, 61, 47
1, 154066, Note_on_c, 0, 56, 0
1, 154128, Note_on_c, 0, 59, 50
1, 154141, Note_on_c, 0, 61, 0
1, 154203, Note_on_c, 0, 73, 0
1, 154203, Note_on_c, 0, 65, 71
1, 154203, Note_on_c, 0, 61, 47
1, 154215, Note_on_c, 0, 59, 0
1, 154277, Note_on_c, 0, 65, 0
1, 154277, Note_on_c, 0, 68, 70
1, 154277, Note_on_c, 0, 57, 54
1, 154289, Note_on_c, 0, 61, 0
1, 154350, Note_on_c, 0, 61, 46
1, 154362, Note_on_c, 0, 57, 0
1, 154423, Note_on_c, 0, 57, 50
1, 154435, Note_on_c, 0, 61, 0
1, 154496, Note_on_c, 0, 61, 45
1, 154508, Note_on_c, 0, 57, 0
1, 154569, Note_on_c, 0, 66, 71
1, 154569, Note_on_c, 0, 57, 55
1, 154580, Note_on_c, 0, 68, 0
1, 154580, Note_on_c, 0, 61, 0
1, 154636, Note_on_c, 0, 61, 47
1, 154648, Note_on_c, 0, 57, 0
1, 154704, Note_on_c, 0, 57, 50
1, 154715, Note_on_c, 0, 61, 0
1, 154772, Note_on_c, 0, 61, 46
1, 154783, Note_on_c, 0, 57, 0
1, 154840, Note_on_c, 0, 57, 54
1, 154851, Note_on_c, 0, 61, 0
1, 154907, Note_on_c, 0, 61, 45
1, 154919, Note_on_c, 0, 57, 0
1, 154975, Note_on_c, 0, 66, 0
1, 154975, Note_on_c, 0, 66, 72
1, 154975, Note_on_c, 0, 57, 49
1, 154988, Note_on_c, 0, 61, 0
1, 155050, Note_on_c, 0, 61, 45
1, 155062, Note_on_c, 0, 57, 0
1, 155124, Note_on_c, 0, 73, 77
1, 155124, Note_on_c, 0, 57, 55
1, 155137, Note_on_c, 0, 66, 0
1, 155137, Note_on_c, 0, 61, 0
1, 155199, Note_on_c, 0, 61, 46
1, 155211, Note_on_c, 0, 57, 0
1, 155274, Note_on_c, 0, 57, 49
1, 155286, Note_on_c, 0, 61, 0
1, 155348, Note_on_c, 0, 66, 71
1, 155348, Note_on_c, 0, 61, 45
1, 155361, Note_on_c, 0, 73, 0
1, 155361, Note_on_c, 0, 57, 0
1, 155423, Note_on_c, 0, 69, 68
1, 155423, Note_on_c, 0, 53, 57
1, 155435, Note_on_c, 0, 66, 0
1, 155435, Note_on_c, 0, 61, 0
1, 155495, Note_on_c, 0, 61, 45
1, 155507, Note_on_c, 0, 53, 0
1, 155568, Note_on_c, 0, 53, 48
1, 155580, Note_on_c, 0, 61, 0
1, 155641, Note_on_c, 0, 61, 45
1, 155653, Note_on_c, 0, 53, 0
1, 155713, Note_on_c, 0, 68, 72
1, 155713, Note_on_c, 0, 53, 55
1, 155724, Note_on_c, 0, 69, 0
1, 155724, Note_on_c, 0, 61, 0
1, 155780, Note_on_c, 0, 61, 46
1, 155792, Note_on_c, 0, 53, 0
1, 155848, Note_on_c, 0, 53, 49
1, 155859, Note_on_c, 0, 61, 0
1, 155915, Note_on_c, 0, 61, 45
1, 155926, Note_on_c, 0, 53, 0
1, 155983, Note_on_c, 0, 53, 54
1, 155994, Note_on_c, 0, 61, 0
1, 156050, Note_on_c, 0, 61, 45
1, 156061, Note_on_c, 0, 53, 0
1, 156117, Note_on_c, 0, 68, 0
1, 156117, Note_on_c, 0, 68, 72
1, 156117, Note_on_c, 0, 53, 50
1, 156129, Note_on_c, 0, 61, 0
1, 156187, Note_on_c, 0, 61, 47
1, 156199, Note_on_c, 0, 53, 0
1, 156258, Note_on_c, 0, 73, 79
1, 156258, Note_on_c, 0, 53, 54
1, 156270, Note_on_c, 0, 68, 0
1, 156270, Note_on_c, 0, 61, 0
1, 156330, Note_on_c, 0, 61, 45
1, 156343, Note_on_c, 0, 53, 0
1, 156403, Note_on_c, 0, 53, 48
1, 156415, Note_on_c, 0, 61, 0
1, 156476, Note_on_c, 0, 73, 0
1, 156476, Note_on_c, 0, 68, 71
1, 156476, Note_on_c, 0, 61, 44
1, 156488, Note_on_c, 0, 53, 0
1, 156549, Note_on_c, 0, 68, 0
1, 156549, Note_on_c, 0, 69, 57
1, 156549, Note_on_c, 0, 54, 59
1, 156562, Note_on_c, 0, 61, 0
1, 156627, Note_on_c, 0, 73, 47
1, 156640, Note_on_c, 0, 69, 0
1, 156705, Note_on_c, 0, 69, 51
1, 156705, Note_on_c, 0, 54, 0
1, 156718, Note_on_c, 0, 73, 0
1, 156782, Note_on_c, 0, 73, 46
1, 156795, Note_on_c, 0, 69, 0
1, 156860, Note_on_c, 0, 66, 57
1, 156860, Note_on_c, 0, 61, 76
1, 156872, Note_on_c, 0, 73, 0
1, 156931, Note_on_c, 0, 73, 47
1, 156943, Note_on_c, 0, 66, 0
1, 157002, Note_on_c, 0, 69, 50
1, 157014, Note_on_c, 0, 73, 0
1, 157072, Note_on_c, 0, 73, 47
1, 157084, Note_on_c, 0, 69, 0
1, 157142, Note_on_c, 0, 66, 57
1, 157154, Note_on_c, 0, 73, 0
1, 157212, Note_on_c, 0, 73, 48
1, 157224, Note_on_c, 0, 66, 0
1, 157282, Note_on_c, 0, 69, 51
1, 157293, Note_on_c, 0, 73, 0
1, 157351, Note_on_c, 0, 73, 46
1, 157363, Note_on_c, 0, 69, 0
1, 157420, Note_on_c, 0, 66, 57
1, 157420, Note_on_c, 0, 61, 0
1, 157420, Note_on_c, 0, 57, 67
1, 157432, Note_on_c, 0, 73, 0
1, 157494, Note_on_c, 0, 73, 48
1, 157506, Note_on_c, 0, 66, 0
1, 157567, Note_on_c, 0, 69, 51
1, 157579, Note_on_c, 0, 73, 0
1, 157641, Note_on_c, 0, 73, 47
1, 157641, Note_on_c, 0, 57, 0
1, 157641, Note_on_c, 0, 54, 67
1, 157653, Note_on_c, 0, 69, 0
1, 157714, Note_on_c, 0, 68, 57
1, 157714, Note_on_c, 0, 54, 0
1, 157714, Note_on_c, 0, 54, 74
1, 157727, Note_on_c, 0, 73, 0
1, 157788, Note_on_c, 0, 73, 48
1, 157800, Note_on_c, 0, 68, 0
1, 157861, Note_on_c, 0, 71, 51
1, 157874, Note_on_c, 0, 73, 0
1, 157935, Note_on_c, 0, 73, 48
1, 157947, Note_on_c, 0, 71, 0
1, 158009, Note_on_c, 0, 68, 57
1, 158009, Note_on_c, 0, 54, 0
1, 158009, Note_on_c, 0, 53, 66
1, 158020, Note_on_c, 0, 73, 0
1, 158076, Note_on_c, 0, 73, 47
1, 158088, Note_on_c, 0, 68, 0
1, 158144, Note_on_c, 0, 71, 51
1, 158155, Note_on_c, 0, 73, 0
1, 158212, Note_on_c, 0, 73, 47
1, 158223, Note_on_c, 0, 71, 0
1, 158280, Note_on_c, 0, 68, 57
1, 158291, Note_on_c, 0, 73, 0
1, 158348, Note_on_c, 0, 73, 47
1, 158359, Note_on_c, 0, 68, 0
1, 158415, Note_on_c, 0, 71, 51
1, 158415, Note_on_c, 0, 53, 0
1, 158415, Note_on_c, 0, 53, 66
1, 158427, Note_on_c, 0, 73, 0
1, 158483, Note_on_c, 0, 73, 47
1, 158494, Note_on_c, 0, 71, 0
1, 158551, Note_on_c, 0, 68, 57
1, 158551, Note_on_c, 0, 53, 0
1, 158551, Note_on_c, 0, 61, 77
1, 158563, Note_on_c, 0, 73, 0
1, 158624, Note_on_c, 0, 73, 47
1, 158637, Note_on_c, 0, 68, 0
1, 158698, Note_on_c, 0, 71, 51
1, 158710, Note_on_c, 0, 73, 0
1, 158772, Note_on_c, 0, 73, 47
1, 158772, Note_on_c, 0, 61, 0
1, 158772, Note_on_c, 0, 53, 66
1, 158784, Note_on_c, 0, 71, 0
1, 158845, Note_on_c, 0, 66, 57
1, 158845, Note_on_c, 0, 53, 0
1, 158845, Note_on_c, 0, 56, 61
1, 158858, Note_on_c, 0, 73, 0
1, 158921, Note_on_c, 0, 73, 47
1, 158933, Note_on_c, 0, 66, 0
1, 158996, Note_on_c, 0, 69, 50
1, 159009, Note_on_c, 0, 73, 0
1, 159072, Note_on_c, 0, 73, 46
1, 159085, Note_on_c, 0, 69, 0
1, 159148, Note_on_c, 0, 66, 57
1, 159148, Note_on_c, 0, 56, 0
1, 159148, Note_on_c, 0, 54, 66
1, 159159, Note_on_c, 0, 73, 0
1, 159215, Note_on_c, 0, 73, 47
1, 159227, Note_on_c, 0, 66, 0
1, 159283, Note_on_c, 0, 69, 50
1, 159295, Note_on_c, 0, 73, 0
1, 159351, Note_on_c, 0, 73, 47
1, 159362, Note_on_c, 0, 69, 0
1, 159419, Note_on_c, 0, 66, 57
1, 159430, Note_on_c, 0, 73, 0
1, 159487, Note_on_c, 0, 73, 47
1, 159498, Note_on_c, 0, 66, 0
1, 159554, Note_on_c, 0, 69, 50
1, 159554, Note_on_c, 0, 54, 0
1, 159554, Note_on_c, 0, 54, 67
1, 159567, Note_on_c, 0, 73, 0
1, 159632, Note_on_c, 0, 73, 47
1, 159645, Note_on_c, 0, 69, 0
1, 159709, Note_on_c, 0, 66, 57
1, 159709, Note_on_c, 0, 54, 0
1, 159709, Note_on_c, 0, 61, 73
1, 159722, Note_on_c, 0, 73, 0
1, 159787, Note_on_c, 0, 73, 48
1, 159800, Note_on_c, 0, 66, 0
1, 159865, Note_on_c, 0, 69, 51
1, 159877, Note_on_c, 0, 73, 0
1, 159942, Note_on_c, 0, 73, 48
1, 159942, Note_on_c, 0, 61, 0
1, 159942, Note_on_c, 0, 54, 66
1, 159955, Note_on_c, 0, 69, 0
1, 160020, Note_on_c, 0, 66, 57
1, 160020, Note_on_c, 0, 54, 0
1, 160020, Note_on_c, 0, 54, 74
1, 160032, Note_on_c, 0, 73, 0
1, 160088, Note_on_c, 0, 74, 47
1, 160088, Note_on_c, 0, 54, 0
1, 160099, Note_on_c, 0, 66, 0
1, 160156, Note_on_c, 0, 69, 51
1, 160156, Note_on_c, 0, 54, 68
1, 160167, Note_on_c, 0, 74, 0
1, 160224, Note_on_c, 0, 74, 48
1, 160235, Note_on_c, 0, 69, 0
1, 160291, Note_on_c, 0, 66, 63
1, 160291, Note_on_c, 0, 54, 0
1, 160291, Note_on_c, 0, 62, 73
1, 160303, Note_on_c, 0, 74, 0
1, 160359, Note_on_c, 0, 74, 47
1, 160370, Note_on_c, 0, 66, 0
1, 160427, Note_on_c, 0, 69, 51
1, 160438, Note_on_c, 0, 74, 0
1, 160495, Note_on_c, 0, 74, 51
1, 160495, Note_on_c, 0, 62, 0
1, 160495, Note_on_c, 0, 54, 79
1, 160506, Note_on_c, 0, 69, 0
1, 160562, Note_on_c, 0, 69, 67
1, 160562, Note_on_c, 0, 54, 0
1, 160562, Note_on_c, 0, 54, 79
1, 160574, Note_on_c, 0, 74, 0
1, 160630, Note_on_c, 0, 74, 50
1, 160630, Note_on_c, 0, 54, 0
1, 160642, Note_on_c, 0, 69, 0
1, 160698, Note_on_c, 0, 72, 55
1, 160698, Note_on_c, 0, 54, 82
1, 160709, Note_on_c, 0, 74, 0
1, 160766, Note_on_c, 0, 74, 50
1, 160777, Note_on_c, 0, 72, 0
1, 160834, Note_on_c, 0, 69, 73
1, 160834, Note_on_c, 0, 54, 0
1, 160834, Note_on_c, 0, 62, 83
1, 160845, Note_on_c, 0, 74, 0
1, 160901, Note_on_c, 0, 74, 50
1, 160913, Note_on_c, 0, 69, 0
1, 160969, Note_on_c, 0, 72, 57
1, 160980, Note_on_c, 0, 74, 0
1, 161037, Note_on_c, 0, 74, 51
1, 161037, Note_on_c, 0, 62, 0
1, 161037, Note_on_c, 0, 54, 83
1, 161048, Note_on_c, 0, 72, 0
1, 161105, Note_on_c, 0, 67, 73
1, 161105, Note_on_c, 0, 54, 0
1, 161105, Note_on_c, 0, 55, 88
1, 161118, Note_on_c, 0, 74, 0
1, 161187, Note_on_c, 0, 74, 48
1, 161201, Note_on_c, 0, 67, 0
1, 161269, Note_on_c, 0, 71, 51
1, 161269, Note_on_c, 0, 55, 0
1, 161283, Note_on_c, 0, 74, 0
1, 161352, Note_on_c, 0, 74, 48
1, 161365, Note_on_c, 0, 71, 0
1, 161434, Note_on_c, 0, 67, 57
1, 161434, Note_on_c, 0, 50, 67
1, 161445, Note_on_c, 0, 74, 0
1, 161502, Note_on_c, 0, 74, 49
1, 161513, Note_on_c, 0, 67, 0
1, 161569, Note_on_c, 0, 71, 52
1, 161581, Note_on_c, 0, 74, 0
1, 161637, Note_on_c, 0, 74, 47
1, 161648, Note_on_c, 0, 71, 0
1, 161705, Note_on_c, 0, 67, 57
1, 161716, Note_on_c, 0, 74, 0
1, 161773, Note_on_c, 0, 74, 48
1, 161784, Note_on_c, 0, 67, 0
1, 161841, Note_on_c, 0, 71, 51
1, 161852, Note_on_c, 0, 74, 0
1, 161908, Note_on_c, 0, 74, 47
1, 161920, Note_on_c, 0, 71, 0
1, 161976, Note_on_c, 0, 67, 57
1, 161976, Note_on_c, 0, 50, 0
1, 161976, Note_on_c, 0, 47, 67
1, 161989, Note_on_c, 0, 74, 0
1, 162051, Note_on_c, 0, 74, 48
1, 162064, Note_on_c, 0, 67, 0
1, 162127, Note_on_c, 0, 71, 51
1, 162139, Note_on_c, 0, 74, 0
1, 162202, Note_on_c, 0, 74, 48
1, 162202, Note_on_c, 0, 47, 0
1, 162202, Note_on_c, 0, 43, 67
1, 162215, Note_on_c, 0, 71, 0
1, 162278, Note_on_c, 0, 69, 57
1, 162278, Note_on_c, 0, 43, 0
1, 162278, Note_on_c, 0, 43, 78
1, 162290, Note_on_c, 0, 74, 0
1, 162353, Note_on_c, 0, 74, 48
1, 162365, Note_on_c, 0, 69, 0
1, 162428, Note_on_c, 0, 72, 52
1, 162441, Note_on_c, 0, 74, 0
1, 162504, Note_on_c, 0, 74, 48
1, 162516, Note_on_c, 0, 72, 0
1, 162579, Note_on_c, 0, 69, 57
1, 162579, Note_on_c, 0, 43, 0
1, 162579, Note_on_c, 0, 42, 67
1, 162590, Note_on_c, 0, 74, 0
1, 162647, Note_on_c, 0, 74, 47
1, 162658, Note_on_c, 0, 69, 0
1, 162715, Note_on_c, 0, 72, 51
1, 162726, Note_on_c, 0, 74, 0
1, 162782, Note_on_c, 0, 74, 47
1, 162794, Note_on_c, 0, 72, 0
1, 162850, Note_on_c, 0, 69, 57
1, 162861, Note_on_c, 0, 74, 0
1, 162918, Note_on_c, 0, 74, 46
1, 162929, Note_on_c, 0, 69, 0
1, 162986, Note_on_c, 0, 72, 51
1, 162986, Note_on_c, 0, 42, 0
1, 162986, Note_on_c, 0, 42, 67
1, 162997, Note_on_c, 0, 74, 0
1, 163053, Note_on_c, 0, 74, 46
1, 163065, Note_on_c, 0, 72, 0
1, 163121, Note_on_c, 0, 69, 57
1, 163121, Note_on_c, 0, 42, 0
1, 163121, Note_on_c, 0, 50, 71
1, 163133, Note_on_c, 0, 74, 0
1, 163193, Note_on_c, 0, 74, 47
1, 163205, Note_on_c, 0, 69, 0
1, 163264, Note_on_c, 0, 72, 51
1, 163276, Note_on_c, 0, 74, 0
1, 163335, Note_on_c, 0, 74, 47
1, 163335, Note_on_c, 0, 50, 0
1, 163335, Note_on_c, 0, 42, 66
1, 163351, Note_on_c, 0, 72, 0
1, 163426, Note_on_c, 0, 67, 57
1, 163426, Note_on_c, 0, 42, 0
1, 163426, Note_on_c, 0, 45, 88
1, 163438, Note_on_c, 0, 74, 0
1, 163498, Note_on_c, 0, 74, 48
1, 163510, Note_on_c, 0, 67, 0
1, 163569, Note_on_c, 0, 71, 51
1, 163581, Note_on_c, 0, 74, 0
1, 163640, Note_on_c, 0, 74, 47
1, 163652, Note_on_c, 0, 71, 0
1, 163712, Note_on_c, 0, 67, 58
1, 163712, Note_on_c, 0, 45, 0
1, 163712, Note_on_c, 0, 43, 78
1, 163723, Note_on_c, 0, 74, 0
1, 163780, Note_on_c, 0, 74, 48
1, 163791, Note_on_c, 0, 67, 0
1, 163847, Note_on_c, 0, 71, 52
1, 163859, Note_on_c, 0, 74, 0
1, 163915, Note_on_c, 0, 74, 48
1, 163926, Note_on_c, 0, 71, 0
1, 163983, Note_on_c, 0, 67, 59
1, 163994, Note_on_c, 0, 74, 0
1, 164051, Note_on_c, 0, 74, 48
1, 164062, Note_on_c, 0, 67, 0
1, 164119, Note_on_c, 0, 71, 52
1, 164119, Note_on_c, 0, 43, 0
1, 164119, Note_on_c, 0, 43, 80
1, 164130, Note_on_c, 0, 74, 0
1, 164186, Note_on_c, 0, 74, 48
1, 164198, Note_on_c, 0, 71, 0
1, 164254, Note_on_c, 0, 67, 59
1, 164254, Note_on_c, 0, 43, 0
1, 164254, Note_on_c, 0, 50, 80
1, 164268, Note_on_c, 0, 74, 0
1, 164336, Note_on_c, 0, 74, 51
1, 164349, Note_on_c, 0, 67, 0
1, 164417, Note_on_c, 0, 71, 54
1, 164431, Note_on_c, 0, 74, 0
1, 164499, Note_on_c, 0, 74, 48
1, 164499, Note_on_c, 0, 50, 0
1, 164499, Note_on_c, 0, 42, 78
1, 164513, Note_on_c, 0, 71, 0
1, 164581, Note_on_c, 0, 68, 61
1, 164581, Note_on_c, 0, 42, 0
1, 164581, Note_on_c, 0, 42, 96
1, 164593, Note_on_c, 0, 74, 0
1, 164653, Note_on_c, 0, 74, 50
1, 164665, Note_on_c, 0, 68, 0
1, 164725, Note_on_c, 0, 71, 55
1, 164737, Note_on_c, 0, 74, 0
1, 164798, Note_on_c, 0, 74, 50
1, 164810, Note_on_c, 0, 71, 0
1, 164870, Note_on_c, 0, 68, 62
1, 164870, Note_on_c, 0, 42, 0
1, 164870, Note_on_c, 0, 41, 84
1, 164881, Note_on_c, 0, 74, 0
1, 164938, Note_on_c, 0, 73, 50
1, 164949, Note_on_c, 0, 68, 0
1, 165006, Note_on_c, 0, 71, 56
1, 165017, Note_on_c, 0, 73, 0
1, 165073, Note_on_c, 0, 73, 50
1, 165085, Note_on_c, 0, 71, 0
1, 165141, Note_on_c, 0, 68, 63
1, 165152, Note_on_c, 0, 73, 0
1, 165209, Note_on_c, 0, 73, 51
1, 165220, Note_on_c, 0, 68, 0
1, 165277, Note_on_c, 0, 71, 59
1, 165277, Note_on_c, 0, 41, 0
1, 165277, Note_on_c, 0, 41, 84
1, 165288, Note_on_c, 0, 73, 0
1, 165344, Note_on_c, 0, 73, 51
1, 165356, Note_on_c, 0, 71, 0
1, 165412, Note_on_c, 0, 68, 65
1, 165412, Note_on_c, 0, 41, 0
1, 165412, Note_on_c, 0, 49, 84
1, 165424, Note_on_c, 0, 73, 0
1, 165480, Note_on_c, 0, 73, 54
1, 165491, Note_on_c, 0, 68, 0
1, 165548, Note_on_c, 0, 71, 59
1, 165559, Note_on_c, 0, 73, 0
1, 165616, Note_on_c, 0, 73, 52
1, 165616, Note_on_c, 0, 49, 0
1, 165616, Note_on_c, 0, 41, 84
1, 165627, Note_on_c, 0, 71, 0
1, 165683, Note_on_c, 0, 66, 78
1, 165683, Note_on_c, 0, 41, 0
1, 165683, Note_on_c, 0, 42, 99
1, 165695, Note_on_c, 0, 73, 0
1, 165751, Note_on_c, 0, 73, 62
1, 165751, Note_on_c, 0, 42, 0
1, 165762, Note_on_c, 0, 66, 0
1, 165819, Note_on_c, 0, 69, 66
1, 165819, Note_on_c, 0, 42, 89
1, 165831, Note_on_c, 0, 73, 0
1, 165888, Note_on_c, 0, 73, 61
1, 165900, Note_on_c, 0, 69, 0
1, 165958, Note_on_c, 0, 66, 77
1, 165958, Note_on_c, 0, 42, 0
1, 165958, Note_on_c, 0, 45, 89
1, 165970, Note_on_c, 0, 73, 0
1, 166028, Note_on_c, 0, 73, 62
1, 166039, Note_on_c, 0, 66, 0
1, 166097, Note_on_c, 0, 69, 66
1, 166097, Note_on_c, 0, 45, 0
1, 166097, Note_on_c, 0, 42, 82
1, 166109, Note_on_c, 0, 73, 0
1, 166167, Note_on_c, 0, 73, 62
1, 166178, Note_on_c, 0, 69, 0
1, 166236, Note_on_c, 0, 66, 77
1, 166236, Note_on_c, 0, 42, 0
1, 166236, Note_on_c, 0, 38, 99
1, 166247, Note_on_c, 0, 73, 0
1, 166304, Note_on_c, 0, 78, 61
1, 166304, Note_on_c, 0, 38, 0
1, 166315, Note_on_c, 0, 66, 0
1, 166372, Note_on_c, 0, 69, 65
1, 166372, Note_on_c, 0, 38, 90
1, 166383, Note_on_c, 0, 78, 0
1, 166441, Note_on_c, 0, 78, 60
1, 166453, Note_on_c, 0, 69, 0
1, 166511, Note_on_c, 0, 66, 74
1, 166511, Note_on_c, 0, 38, 0
1, 166511, Note_on_c, 0, 42, 89
1, 166523, Note_on_c, 0, 78, 0
1, 166581, Note_on_c, 0, 78, 63
1, 166593, Note_on_c, 0, 66, 0
1, 166651, Note_on_c, 0, 69, 66
1, 166651, Note_on_c, 0, 42, 0
1, 166651, Note_on_c, 0, 38, 84
1, 166662, Note_on_c, 0, 78, 0
1, 166720, Note_on_c, 0, 78, 61
1, 166732, Note_on_c, 0, 69, 0
1, 166790, Note_on_c, 0, 66, 83
1, 166790, Note_on_c, 0, 38, 0
1, 166790, Note_on_c, 0, 36, 100
1, 166802, Note_on_c, 0, 78, 0
1, 166858, Note_on_c, 0, 78, 59
1, 166869, Note_on_c, 0, 66, 0
1, 166926, Note_on_c, 0, 75, 66
1, 166926, Note_on_c, 0, 68, 66
1, 166937, Note_on_c, 0, 78, 0
1, 166994, Note_on_c, 0, 78, 60
1, 167005, Note_on_c, 0, 68, 0
1, 167005, Note_on_c, 0, 75, 0
1, 167061, Note_on_c, 0, 66, 80
1, 167073, Note_on_c, 0, 78, 0
1, 167129, Note_on_c, 0, 78, 61
1, 167140, Note_on_c, 0, 66, 0
1, 167197, Note_on_c, 0, 75, 66
1, 167197, Note_on_c, 0, 68, 66
1, 167208, Note_on_c, 0, 78, 0
1, 167265, Note_on_c, 0, 78, 62
1, 167276, Note_on_c, 0, 68, 0
1, 167276, Note_on_c, 0, 75, 0
1, 167333, Note_on_c, 0, 66, 79
1, 167344, Note_on_c, 0, 78, 0
1, 167400, Note_on_c, 0, 78, 63
1, 167400, Note_on_c, 0, 36, 0
1, 167412, Note_on_c, 0, 66, 0
1, 167468, Note_on_c, 0, 68, 66
1, 167468, Note_on_c, 0, 75, 66
1, 167468, Note_on_c, 0, 36, 91
1, 167479, Note_on_c, 0, 78, 0
1, 167536, Note_on_c, 0, 78, 60
1, 167547, Note_on_c, 0, 75, 0
1, 167547, Note_on_c, 0, 68, 0
1, 167604, Note_on_c, 0, 66, 79
1, 167604, Note_on_c, 0, 36, 0
1, 167604, Note_on_c, 0, 39, 91
1, 167615, Note_on_c, 0, 78, 0
1, 167671, Note_on_c, 0, 78, 61
1, 167683, Note_on_c, 0, 66, 0
1, 167739, Note_on_c, 0, 75, 66
1, 167739, Note_on_c, 0, 68, 66
1, 167739, Note_on_c, 0, 39, 0
1, 167742, Note_on_c, 0, 36, 87
1, 167750, Note_on_c, 0, 78, 0
1, 167807, Note_on_c, 0, 78, 60
1, 167818, Note_on_c, 0, 68, 0
1, 167818, Note_on_c, 0, 75, 0
1, 167875, Note_on_c, 0, 64, 87
1, 167875, Note_on_c, 0, 36, 0
1, 167875, Note_on_c, 0, 37, 97
1, 167886, Note_on_c, 0, 78, 0
1, 167943, Note_on_c, 0, 76, 72
1, 167943, Note_on_c, 0, 37, 0
1, 167954, Note_on_c, 0, 64, 0
1, 168010, Note_on_c, 0, 73, 77
1, 168010, Note_on_c, 0, 37, 91
1, 168022, Note_on_c, 0, 76, 0
1, 168078, Note_on_c, 0, 76, 72
1, 168089, Note_on_c, 0, 73, 0
1, 168146, Note_on_c, 0, 64, 87
1, 168146, Note_on_c, 0, 37, 0
1, 168146, Note_on_c, 0, 40, 91
1, 168157, Note_on_c, 0, 76, 0
1, 168215, Note_on_c, 0, 76, 72
1, 168226, Note_on_c, 0, 64, 0
1, 168284, Note_on_c, 0, 73, 76
1, 168284, Note_on_c, 0, 40, 0
1, 168284, Note_on_c, 0, 37, 87
1, 168296, Note_on_c, 0, 76, 0
1, 168353, Note_on_c, 0, 76, 71
1, 168365, Note_on_c, 0, 73, 0
1, 168422, Note_on_c, 0, 64, 87
1, 168422, Note_on_c, 0, 37, 0
1, 168422, Note_on_c, 0, 33, 100
1, 168434, Note_on_c, 0, 76, 0
1, 168491, Note_on_c, 0, 76, 73
1, 168491, Note_on_c, 0, 33, 0
1, 168503, Note_on_c, 0, 64, 0
1, 168560, Note_on_c, 0, 73, 78
1, 168560, Note_on_c, 0, 33, 91
1, 168572, Note_on_c, 0, 76, 0
1, 168629, Note_on_c, 0, 76, 71
1, 168641, Note_on_c, 0, 73, 0
1, 168699, Note_on_c, 0, 64, 87
1, 168699, Note_on_c, 0, 33, 0
1, 168699, Note_on_c, 0, 37, 90
1, 168710, Note_on_c, 0, 76, 0
1, 168768, Note_on_c, 0, 76, 73
1, 168779, Note_on_c, 0, 64, 0
1, 168837, Note_on_c, 0, 73, 78
1, 168837, Note_on_c, 0, 37, 0
1, 168837, Note_on_c, 0, 33, 89
1, 168848, Note_on_c, 0, 76, 0
1, 168906, Note_on_c, 0, 76, 72
1, 168917, Note_on_c, 0, 73, 0
1, 168975, Note_on_c, 0, 63, 87
1, 168975, Note_on_c, 0, 33, 0
1, 168975, Note_on_c, 0, 30, 99
1, 168986, Note_on_c, 0, 76, 0
1, 169044, Note_on_c, 0, 75, 73
1, 169044, Note_on_c, 0, 30, 0
1, 169056, Note_on_c, 0, 63, 0
1, 169113, Note_on_c, 0, 73, 79
1, 169113, Note_on_c, 0, 30, 91
1, 169125, Note_on_c, 0, 75, 0
1, 169182, Note_on_c, 0, 75, 72
1, 169194, Note_on_c, 0, 73, 0
1, 169251, Note_on_c, 0, 63, 87
1, 169251, Note_on_c, 0, 30, 0
1, 169251, Note_on_c, 0, 33, 91
1, 169263, Note_on_c, 0, 75, 0
1, 169321, Note_on_c, 0, 75, 71
1, 169333, Note_on_c, 0, 63, 0
1, 169392, Note_on_c, 0, 73, 78
1, 169392, Note_on_c, 0, 33, 0
1, 169392, Note_on_c, 0, 30, 89
1, 169403, Note_on_c, 0, 75, 0
1, 169462, Note_on_c, 0, 75, 72
1, 169474, Note_on_c, 0, 73, 0
1, 169532, Note_on_c, 0, 63, 87
1, 169532, Note_on_c, 0, 30, 0
1, 169532, Note_on_c, 0, 31, 101
1, 169544, Note_on_c, 0, 75, 0
1, 169602, Note_on_c, 0, 75, 71
1, 169602, Note_on_c, 0, 31, 0
1, 169614, Note_on_c, 0, 63, 0
1, 169673, Note_on_c, 0, 73, 76
1, 169673, Note_on_c, 0, 31, 89
1, 169684, Note_on_c, 0, 75, 0
1, 169743, Note_on_c, 0, 75, 71
1, 169754, Note_on_c, 0, 73, 0
1, 169813, Note_on_c, 0, 63, 87
1, 169813, Note_on_c, 0, 31, 0
1, 169813, Note_on_c, 0, 34, 89
1, 169825, Note_on_c, 0, 75, 0
1, 169883, Note_on_c, 0, 75, 71
1, 169895, Note_on_c, 0, 63, 0
1, 169954, Note_on_c, 0, 73, 77
1, 169954, Note_on_c, 0, 34, 0
1, 169954, Note_on_c, 0, 31, 89
1, 169966, Note_on_c, 0, 75, 0
1, 170026, Note_on_c, 0, 75, 70
1, 170038, Note_on_c, 0, 73, 0
1, 170098, Note_on_c, 0, 75, 0
1, 170098, Note_on_c, 0, 63, 90
1, 170098, Note_on_c, 0, 72, 102
1, 170101, Note_on_c, 0, 75, 105
1, 170101, Note_on_c, 0, 31, 0
1, 170101, Note_on_c, 0, 32, 57
1, 170171, Note_on_c, 0, 44, 49
1, 170183, Note_on_c, 0, 32, 0
1, 170245, Note_on_c, 0, 75, 0
1, 170245, Note_on_c, 0, 72, 0
1, 170245, Note_on_c, 0, 63, 0
1, 170248, Note_on_c, 0, 32, 57
1, 170257, Note_on_c, 0, 44, 0
1, 170319, Note_on_c, 0, 44, 47
1, 170332, Note_on_c, 0, 32, 0
1, 170395, Note_on_c, 0, 68, 74
1, 170395, Note_on_c, 0, 32, 57
1, 170406, Note_on_c, 0, 44, 0
1, 170465, Note_on_c, 0, 44, 48
1, 170476, Note_on_c, 0, 32, 0
1, 170534, Note_on_c, 0, 32, 57
1, 170546, Note_on_c, 0, 44, 0
1, 170604, Note_on_c, 0, 44, 48
1, 170616, Note_on_c, 0, 32, 0
1, 170674, Note_on_c, 0, 32, 57
1, 170685, Note_on_c, 0, 44, 0
1, 170744, Note_on_c, 0, 44, 51
1, 170755, Note_on_c, 0, 32, 0
1, 170813, Note_on_c, 0, 32, 57
1, 170825, Note_on_c, 0, 44, 0
1, 170883, Note_on_c, 0, 44, 50
1, 170895, Note_on_c, 0, 32, 0
1, 170953, Note_on_c, 0, 68, 0
1, 170953, Note_on_c, 0, 69, 70
1, 170953, Note_on_c, 0, 32, 57
1, 170965, Note_on_c, 0, 44, 0
1, 171025, Note_on_c, 0, 44, 48
1, 171037, Note_on_c, 0, 32, 0
1, 171097, Note_on_c, 0, 69, 0
1, 171097, Note_on_c, 0, 68, 70
1, 171097, Note_on_c, 0, 32, 57
1, 171109, Note_on_c, 0, 44, 0
1, 171169, Note_on_c, 0, 44, 50
1, 171181, Note_on_c, 0, 32, 0
1, 171242, Note_on_c, 0, 68, 0
1, 171242, Note_on_c, 0, 57, 69
1, 171242, Note_on_c, 0, 61, 69
1, 171245, Note_on_c, 0, 66, 80
1, 171245, Note_on_c, 0, 32, 56
1, 171254, Note_on_c, 0, 44, 0
1, 171315, Note_on_c, 0, 44, 49
1, 171327, Note_on_c, 0, 32, 0
1, 171388, Note_on_c, 0, 32, 56
1, 171400, Note_on_c, 0, 44, 0
1, 171461, Note_on_c, 0, 44, 48
1, 171473, Note_on_c, 0, 32, 0
1, 171534, Note_on_c, 0, 66, 0
1, 171534, Note_on_c, 0, 68, 68
1, 171534, Note_on_c, 0, 32, 56
1, 171546, Note_on_c, 0, 44, 0
1, 171607, Note_on_c, 0, 44, 49
1, 171619, Note_on_c, 0, 32, 0
1, 171680, Note_on_c, 0, 68, 0
1, 171680, Note_on_c, 0, 66, 68
1, 171680, Note_on_c, 0, 32, 56
1, 171692, Note_on_c, 0, 44, 0
1, 171753, Note_on_c, 0, 44, 49
1, 171765, Note_on_c, 0, 32, 0
1, 171827, Note_on_c, 0, 66, 0
1, 171827, Note_on_c, 0, 61, 0
1, 171827, Note_on_c, 0, 57, 0
1, 171830, Note_on_c, 0, 59, 69
1, 171830, Note_on_c, 0, 56, 69
1, 171830, Note_on_c, 0, 64, 80
1, 171833, Note_on_c, 0, 32, 56
1, 171839, Note_on_c, 0, 44, 0
1, 171901, Note_on_c, 0, 44, 49
1, 171913, Note_on_c, 0, 32, 0
1, 171975, Note_on_c, 0, 32, 56
1, 171987, Note_on_c, 0, 44, 0
1, 172049, Note_on_c, 0, 44, 50
1, 172062, Note_on_c, 0, 32, 0
1, 172124, Note_on_c, 0, 64, 0
1, 172124, Note_on_c, 0, 66, 67
1, 172124, Note_on_c, 0, 32, 56
1, 172137, Note_on_c, 0, 44, 0
1, 172198, Note_on_c, 0, 44, 49
1, 172210, Note_on_c, 0, 32, 0
1, 172272, Note_on_c, 0, 66, 0
1, 172272, Note_on_c, 0, 64, 67
1, 172272, Note_on_c, 0, 32, 56
1, 172284, Note_on_c, 0, 44, 0
1, 172345, Note_on_c, 0, 44, 48
1, 172357, Note_on_c, 0, 32, 0
1, 172419, Note_on_c, 0, 64, 0
1, 172419, Note_on_c, 0, 56, 0
1, 172419, Note_on_c, 0, 59, 0
1, 172422, Note_on_c, 0, 54, 68
1, 172422, Note_on_c, 0, 63, 79
1, 172422, Note_on_c, 0, 57, 68
1, 172425, Note_on_c, 0, 32, 56
1, 172431, Note_on_c, 0, 44, 0
1, 172492, Note_on_c, 0, 44, 49
1, 172504, Note_on_c, 0, 32, 0
1, 172566, Note_on_c, 0, 32, 56
1, 172578, Note_on_c, 0, 44, 0
1, 172639, Note_on_c, 0, 44, 49
1, 172652, Note_on_c, 0, 32, 0
1, 172713, Note_on_c, 0, 63, 0
1, 172713, Note_on_c, 0, 64, 66
1, 172713, Note_on_c, 0, 32, 57
1, 172725, Note_on_c, 0, 44, 0
1, 172785, Note_on_c, 0, 44, 49
1, 172798, Note_on_c, 0, 32, 0
1, 172858, Note_on_c, 0, 64, 0
1, 172858, Note_on_c, 0, 63, 66
1, 172858, Note_on_c, 0, 32, 57
1, 172871, Note_on_c, 0, 44, 0
1, 172932, Note_on_c, 0, 44, 49
1, 172944, Note_on_c, 0, 32, 0
1, 173006, Note_on_c, 0, 63, 0
1, 173006, Note_on_c, 0, 57, 0
1, 173006, Note_on_c, 0, 54, 0
1, 173009, Note_on_c, 0, 52, 68
1, 173009, Note_on_c, 0, 56, 68
1, 173009, Note_on_c, 0, 61, 79
1, 173012, Note_on_c, 0, 32, 57
1, 173019, Note_on_c, 0, 44, 0
1, 173081, Note_on_c, 0, 44, 49
1, 173093, Note_on_c, 0, 32, 0
1, 173156, Note_on_c, 0, 32, 57
1, 173168, Note_on_c, 0, 44, 0
1, 173231, Note_on_c, 0, 44, 49
1, 173244, Note_on_c, 0, 32, 0
1, 173307, Note_on_c, 0, 61, 0
1, 173307, Note_on_c, 0, 63, 70
1, 173307, Note_on_c, 0, 32, 57
1, 173319, Note_on_c, 0, 44, 0
1, 173380, Note_on_c, 0, 44, 49
1, 173392, Note_on_c, 0, 32, 0
1, 173453, Note_on_c, 0, 63, 0
1, 173453, Note_on_c, 0, 61, 70
1, 173453, Note_on_c, 0, 32, 57
1, 173465, Note_on_c, 0, 44, 0
1, 173526, Note_on_c, 0, 44, 50
1, 173538, Note_on_c, 0, 32, 0
1, 173599, Note_on_c, 0, 61, 0
1, 173599, Note_on_c, 0, 56, 0
1, 173599, Note_on_c, 0, 52, 0
1, 173602, Note_on_c, 0, 60, 79
1, 173602, Note_on_c, 0, 54, 68
1, 173602, Note_on_c, 0, 51, 68
1, 173605, Note_on_c, 0, 32, 57
1, 173611, Note_on_c, 0, 44, 0
1, 173672, Note_on_c, 0, 44, 50
1, 173685, Note_on_c, 0, 32, 0
1, 173745, Note_on_c, 0, 32, 57
1, 173758, Note_on_c, 0, 44, 0
1, 173818, Note_on_c, 0, 44, 49
1, 173831, Note_on_c, 0, 32, 0
1, 173892, Note_on_c, 0, 32, 57
1, 173904, Note_on_c, 0, 44, 0
1, 173965, Note_on_c, 0, 44, 50
1, 173977, Note_on_c, 0, 32, 0
1, 174038, Note_on_c, 0, 32, 57
1, 174050, Note_on_c, 0, 44, 0
1, 174111, Note_on_c, 0, 44, 51
1, 174123, Note_on_c, 0, 32, 0
1, 174184, Note_on_c, 0, 51, 0
1, 174184, Note_on_c, 0, 54, 0
1, 174184, Note_on_c, 0, 60, 0
1, 174187, Note_on_c, 0, 49, 67
1, 174187, Note_on_c, 0, 61, 78
1, 174187, Note_on_c, 0, 52, 67
1, 174190, Note_on_c, 0, 32, 57
1, 174196, Note_on_c, 0, 44, 0
1, 174257, Note_on_c, 0, 44, 50
1, 174269, Note_on_c, 0, 32, 0
1, 174330, Note_on_c, 0, 32, 57
1, 174342, Note_on_c, 0, 44, 0
1, 174403, Note_on_c, 0, 44, 48
1, 174415, Note_on_c, 0, 32, 0
1, 174476, Note_on_c, 0, 32, 54
1, 174488, Note_on_c, 0, 44, 0
1, 174549, Note_on_c, 0, 44, 49
1, 174561, Note_on_c, 0, 32, 0
1, 174622, Note_on_c, 0, 32, 54
1, 174634, Note_on_c, 0, 44, 0
1, 174695, Note_on_c, 0, 44, 47
1, 174707, Note_on_c, 0, 32, 0
1, 174768, Note_on_c, 0, 52, 0
1, 174768, Note_on_c, 0, 61, 0
1, 174768, Note_on_c, 0, 49, 0
1, 174771, Note_on_c, 0, 48, 67
1, 174771, Note_on_c, 0, 32, 54
1, 174781, Note_on_c, 0, 44, 0
1, 174805, Note_on_c, 0, 48, 0
1, 174805, Note_on_c, 0, 56, 67
1, 174841, Note_on_c, 0, 56, 0
1, 174841, Note_on_c, 0, 63, 79
1, 174841, Note_on_c, 0, 44, 49
1, 174854, Note_on_c, 0, 32, 0
1, 174915, Note_on_c, 0, 32, 54
1, 174927, Note_on_c, 0, 44, 0
1, 174988, Note_on_c, 0, 44, 48
1, 175000, Note_on_c, 0, 32, 0
1, 175036, Note_on_c, 0, 63, 0
1, 175061, Note_on_c, 0, 80, 85
1, 175061, Note_on_c, 0, 32, 54
1, 175072, Note_on_c, 0, 44, 0
1, 175131, Note_on_c, 0, 44, 48
1, 175142, Note_on_c, 0, 32, 0
1, 175201, Note_on_c, 0, 32, 54
1, 175212, Note_on_c, 0, 44, 0
1, 175271, Note_on_c, 0, 44, 49
1, 175282, Note_on_c, 0, 32, 0
1, 175341, Note_on_c, 0, 32, 57
1, 175352, Note_on_c, 0, 44, 0
1, 175411, Note_on_c, 0, 44, 50
1, 175422, Note_on_c, 0, 32, 0
1, 175480, Note_on_c, 0, 80, 0
1, 175480, Note_on_c, 0, 80, 89
1, 175480, Note_on_c, 0, 32, 58
1, 175492, Note_on_c, 0, 44, 0
1, 175550, Note_on_c, 0, 80, 0
1, 175550, Note_on_c, 0, 44, 51
1, 175562, Note_on_c, 0, 32, 0
1, 175620, Note_on_c, 0, 81, 90
1, 175620, Note_on_c, 0, 32, 59
1, 175632, Note_on_c, 0, 44, 0
1, 175690, Note_on_c, 0, 81, 0
1, 175690, Note_on_c, 0, 44, 54
1, 175701, Note_on_c, 0, 32, 0
1, 175760, Note_on_c, 0, 80, 88
1, 175760, Note_on_c, 0, 32, 59
1, 175771, Note_on_c, 0, 44, 0
1, 175829, Note_on_c, 0, 80, 0
1, 175829, Note_on_c, 0, 44, 55
1, 175841, Note_on_c, 0, 32, 0
1, 175899, Note_on_c, 0, 78, 91
1, 175899, Note_on_c, 0, 32, 61
1, 175910, Note_on_c, 0, 44, 0
1, 175968, Note_on_c, 0, 78, 0
1, 175968, Note_on_c, 0, 44, 55
1, 175980, Note_on_c, 0, 32, 0
1, 176038, Note_on_c, 0, 73, 77
1, 176038, Note_on_c, 0, 69, 77
1, 176038, Note_on_c, 0, 78, 77
1, 176041, Note_on_c, 0, 32, 62
1, 176049, Note_on_c, 0, 44, 0
1, 176107, Note_on_c, 0, 78, 0
1, 176107, Note_on_c, 0, 69, 0
1, 176107, Note_on_c, 0, 73, 0
1, 176110, Note_on_c, 0, 44, 57
1, 176119, Note_on_c, 0, 32, 0
1, 176177, Note_on_c, 0, 71, 78
1, 176177, Note_on_c, 0, 80, 78
1, 176177, Note_on_c, 0, 75, 78
1, 176180, Note_on_c, 0, 32, 63
1, 176189, Note_on_c, 0, 44, 0
1, 176246, Note_on_c, 0, 75, 0
1, 176246, Note_on_c, 0, 80, 0
1, 176246, Note_on_c, 0, 71, 0
1, 176249, Note_on_c, 0, 44, 58
1, 176258, Note_on_c, 0, 32, 0
1, 176316, Note_on_c, 0, 69, 78
1, 176316, Note_on_c, 0, 73, 78
1, 176316, Note_on_c, 0, 78, 78
1, 176319, Note_on_c, 0, 32, 65
1, 176327, Note_on_c, 0, 44, 0
1, 176385, Note_on_c, 0, 78, 0
1, 176385, Note_on_c, 0, 73, 0
1, 176385, Note_on_c, 0, 69, 0
1, 176388, Note_on_c, 0, 44, 59
1, 176397, Note_on_c, 0, 32, 0
1, 176454, Note_on_c, 0, 71, 80
1, 176454, Note_on_c, 0, 76, 80
1, 176454, Note_on_c, 0, 68, 80
1, 176457, Note_on_c, 0, 32, 66
1, 176466, Note_on_c, 0, 44, 0
1, 176524, Note_on_c, 0, 68, 0
1, 176524, Note_on_c, 0, 76, 0
1, 176524, Note_on_c, 0, 71, 0
1, 176527, Note_on_c, 0, 44, 59
1, 176535, Note_on_c, 0, 32, 0
1, 176593, Note_on_c, 0, 68, 81
1, 176593, Note_on_c, 0, 71, 81
1, 176593, Note_on_c, 0, 76, 81
1, 176596, Note_on_c, 0, 32, 67
1, 176604, Note_on_c, 0, 44, 0
1, 176662, Note_on_c, 0, 76, 0
1, 176662, Note_on_c, 0, 71, 0
1, 176662, Note_on_c, 0, 68, 0
1, 176665, Note_on_c, 0, 44, 61
1, 176674, Note_on_c, 0, 32, 0
1, 176731, Note_on_c, 0, 69, 82
1, 176731, Note_on_c, 0, 73, 82
1, 176731, Note_on_c, 0, 78, 82
1, 176734, Note_on_c, 0, 32, 68
1, 176743, Note_on_c, 0, 44, 0
1, 176800, Note_on_c, 0, 78, 0
1, 176800, Note_on_c, 0, 73, 0
1, 176800, Note_on_c, 0, 69, 0
1, 176803, Note_on_c, 0, 44, 62
1, 176812, Note_on_c, 0, 32, 0
1, 176869, Note_on_c, 0, 76, 84
1, 176869, Note_on_c, 0, 68, 84
1, 176869, Note_on_c, 0, 71, 84
1, 176872, Note_on_c, 0, 32, 69
1, 176881, Note_on_c, 0, 44, 0
1, 176938, Note_on_c, 0, 71, 0
1, 176938, Note_on_c, 0, 68, 0
1, 176938, Note_on_c, 0, 76, 0
1, 176941, Note_on_c, 0, 44, 63
1, 176950, Note_on_c, 0, 32, 0
1, 177007, Note_on_c, 0, 69, 84
1, 177007, Note_on_c, 0, 75, 84
1, 177007, Note_on_c, 0, 66, 84
1, 177010, Note_on_c, 0, 32, 71
1, 177019, Note_on_c, 0, 44, 0
1, 177076, Note_on_c, 0, 66, 0
1, 177076, Note_on_c, 0, 75, 0
1, 177076, Note_on_c, 0, 69, 0
1, 177079, Note_on_c, 0, 44, 65
1, 177088, Note_on_c, 0, 32, 0
1, 177145, Note_on_c, 0, 69, 85
1, 177145, Note_on_c, 0, 75, 85
1, 177145, Note_on_c, 0, 66, 85
1, 177148, Note_on_c, 0, 32, 71
1, 177157, Note_on_c, 0, 44, 0
1, 177214, Note_on_c, 0, 66, 0
1, 177214, Note_on_c, 0, 75, 0
1, 177214, Note_on_c, 0, 69, 0
1, 177217, Note_on_c, 0, 44, 66
1, 177225, Note_on_c, 0, 32, 0
1, 177283, Note_on_c, 0, 68, 88
1, 177283, Note_on_c, 0, 71, 88
1, 177283, Note_on_c, 0, 76, 88
1, 177286, Note_on_c, 0, 32, 73
1, 177294, Note_on_c, 0, 44, 0
1, 177352, Note_on_c, 0, 76, 0
1, 177352, Note_on_c, 0, 71, 0
1, 177352, Note_on_c, 0, 68, 0
1, 177355, Note_on_c, 0, 44, 69
1, 177363, Note_on_c, 0, 32, 0
1, 177421, Note_on_c, 0, 66, 89
1, 177421, Note_on_c, 0, 69, 89
1, 177421, Note_on_c, 0, 75, 89
1, 177424, Note_on_c, 0, 32, 74
1, 177432, Note_on_c, 0, 44, 0
1, 177489, Note_on_c, 0, 75, 0
1, 177489, Note_on_c, 0, 69, 0
1, 177489, Note_on_c, 0, 66, 0
1, 177492, Note_on_c, 0, 44, 70
1, 177501, Note_on_c, 0, 32, 0
1, 177558, Note_on_c, 0, 73, 90
1, 177558, Note_on_c, 0, 68, 90
1, 177558, Note_on_c, 0, 64, 90
1, 177561, Note_on_c, 0, 32, 74
1, 177570, Note_on_c, 0, 44, 0
1, 177627, Note_on_c, 0, 64, 0
1, 177627, Note_on_c, 0, 68, 0
1, 177627, Note_on_c, 0, 73, 0
1, 177630, Note_on_c, 0, 44, 71
1, 177639, Note_on_c, 0, 32, 0
1, 177696, Note_on_c, 0, 64, 91
1, 177696, Note_on_c, 0, 73, 91
1, 177696, Note_on_c, 0, 68, 91
1, 177699, Note_on_c, 0, 32, 68
1, 177708, Note_on_c, 0, 44, 0
1, 177765, Note_on_c, 0, 68, 0
1, 177765, Note_on_c, 0, 73, 0
1, 177765, Note_on_c, 0, 64, 0
1, 177768, Note_on_c, 0, 44, 66
1, 177776, Note_on_c, 0, 32, 0
1, 177834, Note_on_c, 0, 66, 81
1, 177834, Note_on_c, 0, 75, 81
1, 177834, Note_on_c, 0, 69, 81
1, 177837, Note_on_c, 0, 32, 62
1, 177845, Note_on_c, 0, 44, 0
1, 177903, Note_on_c, 0, 69, 0
1, 177903, Note_on_c, 0, 75, 0
1, 177903, Note_on_c, 0, 66, 0
1, 177906, Note_on_c, 0, 44, 52
1, 177914, Note_on_c, 0, 32, 0
1, 177972, Note_on_c, 0, 68, 74
1, 177972, Note_on_c, 0, 64, 74
1, 177972, Note_on_c, 0, 73, 74
1, 177975, Note_on_c, 0, 32, 57
1, 177983, Note_on_c, 0, 44, 0
1, 178040, Note_on_c, 0, 73, 0
1, 178040, Note_on_c, 0, 64, 0
1, 178040, Note_on_c, 0, 68, 0
1, 178043, Note_on_c, 0, 44, 51
1, 178052, Note_on_c, 0, 32, 0
1, 178109, Note_on_c, 0, 72, 67
1, 178109, Note_on_c, 0, 63, 67
1, 178109, Note_on_c, 0, 66, 67
1, 178112, Note_on_c, 0, 32, 56
1, 178121, Note_on_c, 0, 44, 0
1, 178180, Note_on_c, 0, 44, 49
1, 178192, Note_on_c, 0, 32, 0
1, 178251, Note_on_c, 0, 32, 54
1, 178262, Note_on_c, 0, 44, 0
1, 178321, Note_on_c, 0, 44, 52
1, 178333, Note_on_c, 0, 32, 0
1, 178392, Note_on_c, 0, 32, 54
1, 178404, Note_on_c, 0, 44, 0
1, 178463, Note_on_c, 0, 44, 48
1, 178474, Note_on_c, 0, 32, 0
1, 178533, Note_on_c, 0, 32, 54
1, 178545, Note_on_c, 0, 44, 0
1, 178604, Note_on_c, 0, 44, 49
1, 178616, Note_on_c, 0, 32, 0
1, 178675, Note_on_c, 0, 66, 0
1, 178675, Note_on_c, 0, 63, 0
1, 178675, Note_on_c, 0, 72, 0
1, 178678, Note_on_c, 0, 64, 77
1, 178678, Note_on_c, 0, 73, 77
1, 178678, Note_on_c, 0, 61, 77
1, 178681, Note_on_c, 0, 32, 56
1, 178686, Note_on_c, 0, 44, 0
1, 178745, Note_on_c, 0, 44, 50
1, 178757, Note_on_c, 0, 32, 0
1, 178816, Note_on_c, 0, 32, 56
1, 178828, Note_on_c, 0, 44, 0
1, 178887, Note_on_c, 0, 44, 52
1, 178898, Note_on_c, 0, 32, 0
1, 178957, Note_on_c, 0, 32, 59
1, 178969, Note_on_c, 0, 44, 0
1, 179028, Note_on_c, 0, 44, 56
1, 179040, Note_on_c, 0, 32, 0
1, 179099, Note_on_c, 0, 32, 63
1, 179110, Note_on_c, 0, 44, 0
1, 179169, Note_on_c, 0, 61, 0
1, 179169, Note_on_c, 0, 73, 0
1, 179169, Note_on_c, 0, 64, 0
1, 179172, Note_on_c, 0, 60, 68
1, 179172, Note_on_c, 0, 44, 59
1, 179183, Note_on_c, 0, 32, 0
1, 179210, Note_on_c, 0, 60, 0
1, 179210, Note_on_c, 0, 66, 80
1, 179252, Note_on_c, 0, 66, 0
1, 179252, Note_on_c, 0, 75, 105
1, 179252, Note_on_c, 0, 66, 105
1, 179255, Note_on_c, 0, 32, 65
1, 179263, Note_on_c, 0, 44, 0
1, 179322, Note_on_c, 0, 44, 60
1, 179334, Note_on_c, 0, 32, 0
1, 179392, Note_on_c, 0, 32, 68
1, 179404, Note_on_c, 0, 44, 0
1, 179463, Note_on_c, 0, 44, 62
1, 179475, Note_on_c, 0, 32, 0
1, 179533, Note_on_c, 0, 32, 70
1, 179545, Note_on_c, 0, 44, 0
1, 179604, Note_on_c, 0, 44, 63
1, 179616, Note_on_c, 0, 32, 0
1, 179674, Note_on_c, 0, 32, 70
1, 179686, Note_on_c, 0, 44, 0
1, 179745, Note_on_c, 0, 44, 62
1, 179756, Note_on_c, 0, 32, 0
1, 179815, Note_on_c, 0, 32, 63
1, 179827, Note_on_c, 0, 44, 0
1, 179886, Note_on_c, 0, 44, 59
1, 179897, Note_on_c, 0, 32, 0
1, 179956, Note_on_c, 0, 32, 59
1, 179968, Note_on_c, 0, 44, 0
1, 180026, Note_on_c, 0, 44, 54
1, 180038, Note_on_c, 0, 32, 0
1, 180097, Note_on_c, 0, 66, 0
1, 180097, Note_on_c, 0, 75, 0
1, 180097, Note_on_c, 0, 73, 79
1, 180100, Note_on_c, 0, 68, 79
1, 180100, Note_on_c, 0, 64, 79
1, 180100, Note_on_c, 0, 32, 59
1, 180109, Note_on_c, 0, 44, 0
1, 180167, Note_on_c, 0, 44, 52
1, 180179, Note_on_c, 0, 32, 0
1, 180238, Note_on_c, 0, 32, 56
1, 180250, Note_on_c, 0, 44, 0
1, 180308, Note_on_c, 0, 44, 49
1, 180320, Note_on_c, 0, 32, 0
1, 180379, Note_on_c, 0, 64, 0
1, 180379, Note_on_c, 0, 68, 0
1, 180379, Note_on_c, 0, 73, 0
1, 180382, Note_on_c, 0, 63, 66
1, 180382, Note_on_c, 0, 72, 66
1, 180382, Note_on_c, 0, 66, 66
1, 180385, Note_on_c, 0, 32, 54
1, 180390, Note_on_c, 0, 44, 0
1, 180449, Note_on_c, 0, 44, 50
1, 180461, Note_on_c, 0, 32, 0
1, 180520, Note_on_c, 0, 66, 0
1, 180520, Note_on_c, 0, 72, 0
1, 180520, Note_on_c, 0, 63, 0
1, 180523, Note_on_c, 0, 32, 54
1, 180531, Note_on_c, 0, 44, 0
1, 180590, Note_on_c, 0, 44, 48
1, 180602, Note_on_c, 0, 32, 0
1, 180660, Note_on_c, 0, 66, 73
1, 180660, Note_on_c, 0, 72, 73
1, 180660, Note_on_c, 0, 63, 73
1, 180663, Note_on_c, 0, 32, 54
1, 180672, Note_on_c, 0, 44, 0
1, 180731, Note_on_c, 0, 44, 49
1, 180742, Note_on_c, 0, 32, 0
1, 180801, Note_on_c, 0, 63, 0
1, 180801, Note_on_c, 0, 72, 0
1, 180801, Note_on_c, 0, 66, 0
1, 180804, Note_on_c, 0, 32, 54
1, 180813, Note_on_c, 0, 44, 0
1, 180872, Note_on_c, 0, 44, 52
1, 180884, Note_on_c, 0, 32, 0
1, 180944, Note_on_c, 0, 73, 84
1, 180944, Note_on_c, 0, 64, 84
1, 180944, Note_on_c, 0, 61, 84
1, 180947, Note_on_c, 0, 32, 52
1, 180956, Note_on_c, 0, 44, 0
1, 181016, Note_on_c, 0, 44, 50
1, 181028, Note_on_c, 0, 32, 0
1, 181089, Note_on_c, 0, 61, 0
1, 181089, Note_on_c, 0, 64, 0
1, 181089, Note_on_c, 0, 73, 0
1, 181092, Note_on_c, 0, 32, 59
1, 181101, Note_on_c, 0, 44, 0
1, 181162, Note_on_c, 0, 44, 54
1, 181174, Note_on_c, 0, 32, 0
1, 181236, Note_on_c, 0, 64, 90
1, 181236, Note_on_c, 0, 61, 90
1, 181236, Note_on_c, 0, 73, 90
1, 181239, Note_on_c, 0, 32, 61
1, 181249, Note_on_c, 0, 44, 0
1, 181312, Note_on_c, 0, 44, 57
1, 181324, Note_on_c, 0, 32, 0
1, 181388, Note_on_c, 0, 73, 0
1, 181388, Note_on_c, 0, 61, 0
1, 181388, Note_on_c, 0, 64, 0
1, 181391, Note_on_c, 0, 32, 66
1, 181400, Note_on_c, 0, 44, 0
1, 181464, Note_on_c, 0, 60, 71
1, 181464, Note_on_c, 0, 44, 60
1, 181471, Control_c, 0, 64, 127
1, 181480, Note_on_c, 0, 32, 0
1, 181513, Note_on_c, 0, 60, 0
1, 181513, Note_on_c, 0, 66, 80
1, 181562, Note_on_c, 0, 66, 0
1, 181562, Note_on_c, 0, 75, 105
1, 181562, Note_on_c, 0, 66, 105
1, 181565, Note_on_c, 0, 32, 66
1, 181574, Note_on_c, 0, 44, 0
1, 181638, Note_on_c, 0, 44, 61
1, 181651, Note_on_c, 0, 32, 0
1, 181715, Note_on_c, 0, 32, 71
1, 181727, Note_on_c, 0, 44, 0
1, 181791, Note_on_c, 0, 44, 66
1, 181804, Note_on_c, 0, 32, 0
1, 181818, Control_c, 0, 64, 0
1, 181867, Note_on_c, 0, 32, 76
1, 181880, Note_on_c, 0, 44, 0
1, 181908, Control_c, 0, 64, 127
1, 181944, Note_on_c, 0, 44, 67
1, 181957, Note_on_c, 0, 32, 0
1, 182020, Note_on_c, 0, 32, 74
1, 182033, Note_on_c, 0, 44, 0
1, 182083, Control_c, 0, 64, 0
1, 182097, Note_on_c, 0, 44, 66
1, 182109, Note_on_c, 0, 32, 0
1, 182173, Note_on_c, 0, 32, 68
1, 182186, Note_on_c, 0, 44, 0
1, 182214, Control_c, 0, 64, 127
1, 182250, Note_on_c, 0, 44, 63
1, 182262, Note_on_c, 0, 32, 0
1, 182326, Note_on_c, 0, 32, 68
1, 182339, Note_on_c, 0, 44, 0
1, 182402, Note_on_c, 0, 44, 59
1, 182415, Note_on_c, 0, 32, 0
1, 182429, Control_c, 0, 64, 0
1, 182479, Note_on_c, 0, 66, 0
1, 182479, Note_on_c, 0, 75, 0
1, 182479, Note_on_c, 0, 64, 67
1, 182482, Note_on_c, 0, 61, 58
1, 182482, Note_on_c, 0, 32, 63
1, 182492, Note_on_c, 0, 44, 0
1, 182520, Control_c, 0, 64, 127
1, 182555, Note_on_c, 0, 44, 57
1, 182568, Note_on_c, 0, 32, 0
1, 182632, Note_on_c, 0, 61, 0
1, 182632, Note_on_c, 0, 64, 0
1, 182632, Note_on_c, 0, 73, 61
1, 182635, Note_on_c, 0, 32, 59
1, 182645, Note_on_c, 0, 44, 0
1, 182708, Note_on_c, 0, 44, 52
1, 182721, Note_on_c, 0, 32, 0
1, 182744, Control_c, 0, 64, 0
1, 182785, Note_on_c, 0, 73, 0
1, 182785, Note_on_c, 0, 66, 71
1, 182785, Note_on_c, 0, 63, 61
1, 182788, Note_on_c, 0, 32, 58
1, 182797, Note_on_c, 0, 44, 0
1, 182830, Control_c, 0, 64, 127
1, 182861, Note_on_c, 0, 44, 50
1, 182874, Note_on_c, 0, 32, 0
1, 182938, Note_on_c, 0, 63, 0
1, 182938, Note_on_c, 0, 66, 0
1, 182938, Note_on_c, 0, 72, 66
1, 182941, Note_on_c, 0, 32, 56
1, 182950, Note_on_c, 0, 44, 0
1, 183014, Note_on_c, 0, 44, 51
1, 183027, Note_on_c, 0, 32, 0
1, 183059, Control_c, 0, 64, 0
1, 183090, Note_on_c, 0, 72, 0
1, 183090, Note_on_c, 0, 63, 67
1, 183090, Note_on_c, 0, 66, 78
1, 183093, Note_on_c, 0, 32, 56
1, 183103, Note_on_c, 0, 44, 0
1, 183145, Control_c, 0, 64, 127
1, 183167, Note_on_c, 0, 44, 51
1, 183180, Note_on_c, 0, 32, 0
1, 183243, Note_on_c, 0, 66, 0
1, 183243, Note_on_c, 0, 63, 0
1, 183243, Note_on_c, 0, 72, 73
1, 183246, Note_on_c, 0, 32, 59
1, 183256, Note_on_c, 0, 44, 0
1, 183320, Note_on_c, 0, 44, 56
1, 183332, Note_on_c, 0, 32, 0
1, 183351, Control_c, 0, 64, 0
1, 183396, Note_on_c, 0, 72, 0
1, 183396, Note_on_c, 0, 61, 78
1, 183396, Note_on_c, 0, 64, 90
1, 183399, Note_on_c, 0, 32, 63
1, 183409, Note_on_c, 0, 44, 0
1, 183427, Control_c, 0, 64, 127
1, 183473, Note_on_c, 0, 44, 56
1, 183485, Note_on_c, 0, 32, 0
1, 183549, Note_on_c, 0, 64, 0
1, 183549, Note_on_c, 0, 61, 0
1, 183549, Note_on_c, 0, 73, 78
1, 183552, Note_on_c, 0, 32, 63
1, 183562, Note_on_c, 0, 44, 0
1, 183626, Note_on_c, 0, 44, 58
1, 183638, Note_on_c, 0, 32, 0
1, 183702, Note_on_c, 0, 73, 0
1, 183702, Note_on_c, 0, 61, 81
1, 183702, Note_on_c, 0, 64, 94
1, 183705, Note_on_c, 0, 32, 66
1, 183711, Control_c, 0, 64, 0
1, 183715, Note_on_c, 0, 44, 0
1, 183765, Control_c, 0, 64, 127
1, 183778, Note_on_c, 0, 44, 61
1, 183791, Note_on_c, 0, 32, 0
1, 183855, Note_on_c, 0, 64, 0
1, 183855, Note_on_c, 0, 61, 0
1, 183855, Note_on_c, 0, 73, 87
1, 183858, Note_on_c, 0, 32, 71
1, 183868, Note_on_c, 0, 44, 0
1, 183931, Note_on_c, 0, 44, 63
1, 183944, Note_on_c, 0, 32, 0
1, 183949, Control_c, 0, 64, 0
1, 184008, Note_on_c, 0, 73, 0
1, 184008, Note_on_c, 0, 60, 90
1, 184008, Note_on_c, 0, 66, 105
1, 184011, Note_on_c, 0, 32, 76
1, 184020, Note_on_c, 0, 44, 0
1, 184039, Control_c, 0, 64, 127
1, 184084, Note_on_c, 0, 44, 70
1, 184097, Note_on_c, 0, 32, 0
1, 184161, Note_on_c, 0, 66, 0
1, 184161, Note_on_c, 0, 60, 0
1, 184161, Note_on_c, 0, 75, 92
1, 184164, Note_on_c, 0, 32, 76
1, 184173, Note_on_c, 0, 44, 0
1, 184237, Note_on_c, 0, 44, 68
1, 184250, Note_on_c, 0, 32, 0
1, 184287, Control_c, 0, 64, 0
1, 184313, Note_on_c, 0, 75, 0
1, 184313, Note_on_c, 0, 60, 83
1, 184313, Note_on_c, 0, 66, 96
1, 184316, Note_on_c, 0, 32, 70
1, 184326, Note_on_c, 0, 44, 0
1, 184359, Control_c, 0, 64, 127
1, 184390, Note_on_c, 0, 44, 61
1, 184404, Note_on_c, 0, 32, 0
1, 184469, Note_on_c, 0, 66, 0
1, 184469, Note_on_c, 0, 60, 0
1, 184469, Note_on_c, 0, 75, 79
1, 184472, Note_on_c, 0, 32, 66
1, 184482, Note_on_c, 0, 44, 0
1, 184548, Note_on_c, 0, 44, 58
1, 184561, Note_on_c, 0, 32, 0
1, 184580, Control_c, 0, 64, 0
1, 184628, Note_on_c, 0, 75, 0
1, 184628, Note_on_c, 0, 64, 85
1, 184628, Note_on_c, 0, 61, 73
1, 184631, Control_c, 0, 64, 127
1, 184631, Note_on_c, 0, 33, 62
1, 184642, Note_on_c, 0, 44, 0
1, 184710, Note_on_c, 0, 45, 55
1, 184723, Note_on_c, 0, 33, 0
1, 184792, Note_on_c, 0, 61, 0
1, 184792, Note_on_c, 0, 64, 0
1, 184792, Note_on_c, 0, 73, 71
1, 184795, Note_on_c, 0, 33, 59
1, 184806, Note_on_c, 0, 45, 0
1, 184876, Note_on_c, 0, 45, 52
1, 184890, Note_on_c, 0, 33, 0
1, 184962, Note_on_c, 0, 73, 0
1, 184962, Note_on_c, 0, 64, 78
1, 184962, Note_on_c, 0, 61, 67
1, 184965, Note_on_c, 0, 33, 57
1, 184976, Note_on_c, 0, 45, 0
1, 185047, Note_on_c, 0, 45, 50
1, 185062, Note_on_c, 0, 33, 0
1, 185134, Note_on_c, 0, 61, 0
1, 185134, Note_on_c, 0, 64, 0
1, 185134, Note_on_c, 0, 73, 73
1, 185137, Note_on_c, 0, 33, 56
1, 185148, Note_on_c, 0, 45, 0
1, 185222, Note_on_c, 0, 45, 51
1, 185237, Note_on_c, 0, 33, 0
1, 185311, Note_on_c, 0, 73, 0
1, 185311, Note_on_c, 0, 63, 66
1, 185311, Note_on_c, 0, 57, 57
1, 185314, Note_on_c, 0, 61, 57
1, 185314, Note_on_c, 0, 69, 66
1, 185314, Note_on_c, 0, 30, 49
1, 185317, Note_on_c, 0, 42, 56
1, 185317, Control_c, 0, 64, 0
1, 185326, Note_on_c, 0, 45, 0
1, 185588, Control_c, 0, 64, 127
1, 186736, Note_on_c, 0, 69, 0
1, 186736, Note_on_c, 0, 63, 0
1, 186736, Note_on_c, 0, 57, 0
1, 186739, Note_on_c, 0, 61, 0
1, 186739, Note_on_c, 0, 63, 47
1, 186739, Note_on_c, 0, 68, 47
1, 186742, Note_on_c, 0, 56, 41
1, 186742, Note_on_c, 0, 60, 41
1, 186742, Note_on_c, 0, 42, 0
1, 186745, Note_on_c, 0, 30, 0
1, 186745, Control_c, 0, 64, 0
1, 186745, Note_on_c, 0, 32, 42
1, 186748, Note_on_c, 0, 44, 48
1, 187033, Control_c, 0, 64, 127
1, 187983, Control_c, 0, 64, 0
1, 188161, Note_on_c, 0, 60, 0
1, 188161, Note_on_c, 0, 63, 0
1, 188161, Note_on_c, 0, 68, 0
1, 188164, Note_on_c, 0, 56, 0
1, 188164, Control_c, 0, 91, 127
1, 188164, Note_on_c, 0, 44, 0
1, 188167, Note_on_c, 0, 32, 0
1, 188167, Note_on_c, 0, 37, 84
1, 188167, Control_c, 0, 91, 127
1, 188228, Note_on_c, 0, 44, 66
1, 188228, Note_on_c, 0, 37, 0
1, 188296, Note_on_c, 0, 49, 67
1, 188296, Note_on_c, 0, 44, 58
1, 188307, Note_on_c, 0, 44, 0
1, 188363, Note_on_c, 0, 52, 69
1, 188363, Note_on_c, 0, 44, 0
1, 188374, Note_on_c, 0, 49, 0
1, 188431, Note_on_c, 0, 56, 71
1, 188431, Note_on_c, 0, 37, 61
1, 188442, Note_on_c, 0, 52, 0
1, 188498, Note_on_c, 0, 49, 71
1, 188498, Note_on_c, 0, 37, 0
1, 188509, Note_on_c, 0, 56, 0
1, 188565, Note_on_c, 0, 52, 68
1, 188565, Note_on_c, 0, 44, 57
1, 188576, Note_on_c, 0, 49, 0
1, 188633, Note_on_c, 0, 56, 70
1, 188633, Note_on_c, 0, 44, 0
1, 188644, Note_on_c, 0, 52, 0
1, 188700, Note_on_c, 0, 61, 71
1, 188700, Note_on_c, 0, 37, 59
1, 188711, Note_on_c, 0, 56, 0
1, 188767, Note_on_c, 0, 52, 66
1, 188767, Note_on_c, 0, 37, 0
1, 188779, Note_on_c, 0, 61, 0
1, 188835, Note_on_c, 0, 56, 67
1, 188835, Note_on_c, 0, 44, 56
1, 188846, Note_on_c, 0, 52, 0
1, 188902, Note_on_c, 0, 61, 69
1, 188902, Note_on_c, 0, 44, 0
1, 188913, Note_on_c, 0, 56, 0
1, 188969, Note_on_c, 0, 64, 71
1, 188969, Note_on_c, 0, 37, 60
1, 188981, Note_on_c, 0, 61, 0
1, 189037, Note_on_c, 0, 56, 67
1, 189037, Note_on_c, 0, 37, 0
1, 189048, Note_on_c, 0, 64, 0
1, 189104, Note_on_c, 0, 61, 68
1, 189104, Note_on_c, 0, 44, 56
1, 189115, Note_on_c, 0, 56, 0
1, 189172, Note_on_c, 0, 64, 71
1, 189172, Note_on_c, 0, 44, 0
1, 189183, Note_on_c, 0, 61, 0
1, 189239, Note_on_c, 0, 68, 73
1, 189239, Note_on_c, 0, 37, 61
1, 189250, Note_on_c, 0, 64, 0
1, 189306, Note_on_c, 0, 61, 66
1, 189306, Note_on_c, 0, 37, 0
1, 189317, Note_on_c, 0, 68, 0
1, 189374, Note_on_c, 0, 64, 68
1, 189374, Note_on_c, 0, 44, 58
1, 189385, Note_on_c, 0, 61, 0
1, 189441, Note_on_c, 0, 68, 70
1, 189441, Note_on_c, 0, 44, 0
1, 189452, Note_on_c, 0, 64, 0
1, 189508, Note_on_c, 0, 73, 72
1, 189508, Note_on_c, 0, 37, 61
1, 189520, Note_on_c, 0, 68, 0
1, 189576, Note_on_c, 0, 64, 71
1, 189576, Note_on_c, 0, 37, 0
1, 189587, Note_on_c, 0, 73, 0
1, 189643, Note_on_c, 0, 68, 69
1, 189643, Note_on_c, 0, 44, 58
1, 189654, Note_on_c, 0, 64, 0
1, 189710, Note_on_c, 0, 73, 71
1, 189710, Note_on_c, 0, 44, 0
1, 189722, Note_on_c, 0, 68, 0
1, 189778, Note_on_c, 0, 76, 73
1, 189778, Note_on_c, 0, 37, 59
1, 189789, Note_on_c, 0, 73, 0
1, 189845, Note_on_c, 0, 68, 71
1, 189845, Note_on_c, 0, 37, 0
1, 189856, Note_on_c, 0, 76, 0
1, 189913, Note_on_c, 0, 73, 71
1, 189913, Note_on_c, 0, 44, 55
1, 189924, Note_on_c, 0, 68, 0
1, 189980, Note_on_c, 0, 76, 76
1, 189980, Note_on_c, 0, 44, 0
1, 189991, Note_on_c, 0, 73, 0
1, 190047, Note_on_c, 0, 76, 0
1, 190047, Note_on_c, 0, 73, 92
1, 190047, Note_on_c, 0, 80, 107
1, 190050, Control_c, 0, 64, 127
1, 190050, Note_on_c, 0, 68, 92
1, 190050, Note_on_c, 0, 76, 107
1, 190053, Note_on_c, 0, 37, 92
1, 190053, Control_c, 0, 64, 127
1, 190053, Note_on_c, 0, 49, 92
1, 190117, Note_on_c, 0, 76, 0
1, 190117, Note_on_c, 0, 73, 0
1, 190117, Note_on_c, 0, 80, 0
1, 190120, Note_on_c, 0, 68, 0
1, 190120, Note_on_c, 0, 49, 0
1, 190120, Note_on_c, 0, 37, 0
1, 190188, Note_on_c, 0, 80, 92
1, 190188, Note_on_c, 0, 76, 92
1, 190188, Note_on_c, 0, 73, 80
1, 190191, Note_on_c, 0, 68, 80
1, 190191, Note_on_c, 0, 44, 80
1, 190258, Note_on_c, 0, 68, 0
1, 190258, Note_on_c, 0, 80, 0
1, 190258, Note_on_c, 0, 76, 0
1, 190261, Note_on_c, 0, 73, 0
1, 190261, Note_on_c, 0, 44, 0
1, 190328, Note_on_c, 0, 36, 59
1, 190335, Control_c, 0, 64, 0
1, 190335, Control_c, 0, 64, 0
1, 190395, Note_on_c, 0, 44, 66
1, 190395, Note_on_c, 0, 36, 0
1, 190463, Note_on_c, 0, 48, 68
1, 190463, Note_on_c, 0, 44, 55
1, 190474, Note_on_c, 0, 44, 0
1, 190530, Note_on_c, 0, 51, 70
1, 190530, Note_on_c, 0, 44, 0
1, 190541, Note_on_c, 0, 48, 0
1, 190598, Note_on_c, 0, 56, 71
1, 190598, Note_on_c, 0, 36, 59
1, 190609, Note_on_c, 0, 51, 0
1, 190665, Note_on_c, 0, 48, 67
1, 190665, Note_on_c, 0, 36, 0
1, 190676, Note_on_c, 0, 56, 0
1, 190732, Note_on_c, 0, 51, 69
1, 190732, Note_on_c, 0, 44, 55
1, 190743, Note_on_c, 0, 48, 0
1, 190800, Note_on_c, 0, 56, 71
1, 190800, Note_on_c, 0, 44, 0
1, 190811, Note_on_c, 0, 51, 0
1, 190867, Note_on_c, 0, 60, 72
1, 190867, Note_on_c, 0, 36, 58
1, 190878, Note_on_c, 0, 56, 0
1, 190934, Note_on_c, 0, 51, 70
1, 190934, Note_on_c, 0, 36, 0
1, 190946, Note_on_c, 0, 60, 0
1, 191002, Note_on_c, 0, 56, 70
1, 191002, Note_on_c, 0, 44, 54
1, 191013, Note_on_c, 0, 51, 0
1, 191069, Note_on_c, 0, 60, 71
1, 191069, Note_on_c, 0, 44, 0
1, 191080, Note_on_c, 0, 56, 0
1, 191136, Note_on_c, 0, 63, 72
1, 191136, Note_on_c, 0, 36, 58
1, 191148, Note_on_c, 0, 60, 0
1, 191204, Note_on_c, 0, 56, 66
1, 191204, Note_on_c, 0, 36, 0
1, 191215, Note_on_c, 0, 63, 0
1, 191271, Note_on_c, 0, 60, 69
1, 191271, Note_on_c, 0, 44, 53
1, 191282, Note_on_c, 0, 56, 0
1, 191339, Note_on_c, 0, 63, 71
1, 191339, Note_on_c, 0, 44, 0
1, 191350, Note_on_c, 0, 60, 0
1, 191406, Note_on_c, 0, 68, 73
1, 191406, Note_on_c, 0, 36, 58
1, 191417, Note_on_c, 0, 63, 0
1, 191473, Note_on_c, 0, 60, 68
1, 191473, Note_on_c, 0, 36, 0
1, 191484, Note_on_c, 0, 68, 0
1, 191541, Note_on_c, 0, 63, 69
1, 191541, Note_on_c, 0, 44, 53
1, 191552, Note_on_c, 0, 60, 0
1, 191608, Note_on_c, 0, 68, 71
1, 191608, Note_on_c, 0, 44, 0
1, 191619, Note_on_c, 0, 63, 0
1, 191675, Note_on_c, 0, 72, 72
1, 191675, Note_on_c, 0, 36, 58
1, 191687, Note_on_c, 0, 68, 0
1, 191743, Note_on_c, 0, 63, 70
1, 191743, Note_on_c, 0, 36, 0
1, 191754, Note_on_c, 0, 72, 0
1, 191810, Note_on_c, 0, 68, 69
1, 191810, Note_on_c, 0, 44, 53
1, 191821, Note_on_c, 0, 63, 0
1, 191877, Note_on_c, 0, 72, 71
1, 191877, Note_on_c, 0, 44, 0
1, 191889, Note_on_c, 0, 68, 0
1, 191945, Note_on_c, 0, 75, 72
1, 191945, Note_on_c, 0, 36, 58
1, 191956, Note_on_c, 0, 72, 0
1, 192012, Note_on_c, 0, 68, 68
1, 192012, Note_on_c, 0, 36, 0
1, 192023, Note_on_c, 0, 75, 0
1, 192079, Note_on_c, 0, 72, 71
1, 192079, Note_on_c, 0, 44, 53
1, 192091, Note_on_c, 0, 68, 0
1, 192147, Note_on_c, 0, 75, 73
1, 192147, Note_on_c, 0, 44, 0
1, 192158, Note_on_c, 0, 72, 0
1, 192214, Note_on_c, 0, 75, 0
1, 192214, Note_on_c, 0, 72, 92
1, 192214, Control_c, 0, 64, 127
1, 192217, Note_on_c, 0, 75, 107
1, 192217, Note_on_c, 0, 80, 107
1, 192217, Note_on_c, 0, 68, 92
1, 192220, Note_on_c, 0, 48, 92
1, 192220, Note_on_c, 0, 36, 92
1, 192220, Control_c, 0, 64, 127
1, 192285, Note_on_c, 0, 68, 0
1, 192285, Note_on_c, 0, 72, 0
1, 192285, Note_on_c, 0, 75, 0
1, 192288, Note_on_c, 0, 80, 0
1, 192288, Note_on_c, 0, 36, 0
1, 192288, Note_on_c, 0, 48, 0
1, 192355, Note_on_c, 0, 75, 91
1, 192355, Note_on_c, 0, 68, 79
1, 192355, Note_on_c, 0, 80, 91
1, 192358, Note_on_c, 0, 72, 79
1, 192358, Note_on_c, 0, 44, 78
1, 192426, Note_on_c, 0, 72, 0
1, 192426, Note_on_c, 0, 75, 0
1, 192426, Note_on_c, 0, 68, 0
1, 192429, Note_on_c, 0, 80, 0
1, 192429, Note_on_c, 0, 44, 0
1, 192496, Control_c, 0, 64, 0
1, 192496, Note_on_c, 0, 35, 75
1, 192496, Control_c, 0, 64, 0
1, 192563, Note_on_c, 0, 49, 84
1, 192563, Note_on_c, 0, 35, 0
1, 192631, Note_on_c, 0, 53, 87
1, 192631, Note_on_c, 0, 44, 70
1, 192642, Note_on_c, 0, 49, 0
1, 192698, Note_on_c, 0, 56, 89
1, 192698, Note_on_c, 0, 44, 0
1, 192709, Note_on_c, 0, 53, 0
1, 192765, Note_on_c, 0, 61, 90
1, 192765, Note_on_c, 0, 35, 77
1, 192777, Note_on_c, 0, 56, 0
1, 192833, Note_on_c, 0, 52, 87
1, 192833, Note_on_c, 0, 35, 0
1, 192844, Note_on_c, 0, 61, 0
1, 192900, Note_on_c, 0, 56, 89
1, 192900, Note_on_c, 0, 44, 72
1, 192911, Note_on_c, 0, 52, 0
1, 192968, Note_on_c, 0, 61, 90
1, 192968, Note_on_c, 0, 44, 0
1, 192979, Note_on_c, 0, 56, 0
1, 193035, Note_on_c, 0, 65, 92
1, 193035, Note_on_c, 0, 35, 77
1, 193046, Note_on_c, 0, 61, 0
1, 193102, Note_on_c, 0, 56, 88
1, 193102, Note_on_c, 0, 35, 0
1, 193113, Note_on_c, 0, 65, 0
1, 193170, Note_on_c, 0, 61, 90
1, 193170, Note_on_c, 0, 44, 72
1, 193181, Note_on_c, 0, 56, 0
1, 193237, Note_on_c, 0, 65, 92
1, 193237, Note_on_c, 0, 44, 0
1, 193248, Note_on_c, 0, 61, 0
1, 193304, Note_on_c, 0, 68, 94
1, 193304, Note_on_c, 0, 35, 77
1, 193316, Note_on_c, 0, 65, 0
1, 193372, Note_on_c, 0, 61, 88
1, 193372, Note_on_c, 0, 35, 0
1, 193383, Note_on_c, 0, 68, 0
1, 193439, Note_on_c, 0, 65, 90
1, 193439, Note_on_c, 0, 44, 71
1, 193450, Note_on_c, 0, 61, 0
1, 193506, Note_on_c, 0, 68, 90
1, 193506, Note_on_c, 0, 44, 0
1, 193518, Note_on_c, 0, 65, 0
1, 193574, Note_on_c, 0, 73, 92
1, 193574, Note_on_c, 0, 35, 77
1, 193585, Note_on_c, 0, 68, 0
1, 193641, Note_on_c, 0, 65, 88
1, 193641, Note_on_c, 0, 35, 0
1, 193652, Note_on_c, 0, 73, 0
1, 193709, Note_on_c, 0, 68, 90
1, 193709, Note_on_c, 0, 44, 71
1, 193720, Note_on_c, 0, 65, 0
1, 193776, Note_on_c, 0, 73, 91
1, 193776, Note_on_c, 0, 44, 0
1, 193787, Note_on_c, 0, 68, 0
1, 193843, Note_on_c, 0, 77, 93
1, 193843, Note_on_c, 0, 35, 77
1, 193854, Note_on_c, 0, 73, 0
1, 193911, Note_on_c, 0, 68, 85
1, 193911, Note_on_c, 0, 35, 0
1, 193922, Note_on_c, 0, 77, 0
1, 193978, Note_on_c, 0, 73, 88
1, 193978, Note_on_c, 0, 44, 72
1, 193989, Note_on_c, 0, 68, 0
1, 194045, Note_on_c, 0, 77, 90
1, 194045, Note_on_c, 0, 44, 0
1, 194057, Note_on_c, 0, 73, 0
1, 194113, Note_on_c, 0, 80, 91
1, 194113, Note_on_c, 0, 35, 77
1, 194124, Note_on_c, 0, 77, 0
1, 194180, Note_on_c, 0, 73, 88
1, 194180, Note_on_c, 0, 35, 0
1, 194191, Note_on_c, 0, 80, 0
1, 194247, Note_on_c, 0, 77, 90
1, 194247, Note_on_c, 0, 44, 72
1, 194259, Note_on_c, 0, 73, 0
1, 194315, Note_on_c, 0, 80, 93
1, 194315, Note_on_c, 0, 44, 0
1, 194326, Note_on_c, 0, 77, 0
1, 194382, Note_on_c, 0, 80, 0
1, 194382, Control_c, 0, 64, 127
1, 194382, Note_on_c, 0, 73, 100
1, 194385, Note_on_c, 0, 77, 100
1, 194385, Note_on_c, 0, 80, 116
1, 194385, Note_on_c, 0, 85, 116
1, 194388, Note_on_c, 0, 47, 98
1, 194388, Control_c, 0, 64, 127
1, 194388, Note_on_c, 0, 35, 98
1, 194452, Note_on_c, 0, 85, 0
1, 194452, Note_on_c, 0, 73, 0
1, 194452, Note_on_c, 0, 77, 0
1, 194455, Note_on_c, 0, 80, 0
1, 194455, Note_on_c, 0, 35, 0
1, 194455, Note_on_c, 0, 47, 0
1, 194522, Note_on_c, 0, 77, 89
1, 194522, Note_on_c, 0, 80, 103
1, 194522, Note_on_c, 0, 85, 103
1, 194525, Note_on_c, 0, 73, 89
1, 194525, Note_on_c, 0, 44, 86
1, 194592, Note_on_c, 0, 73, 0
1, 194592, Note_on_c, 0, 77, 0
1, 194592, Note_on_c, 0, 80, 0
1, 194595, Note_on_c, 0, 85, 0
1, 194595, Note_on_c, 0, 44, 0
1, 194662, Control_c, 0, 64, 0
1, 194662, Note_on_c, 0, 33, 69
1, 194662, Control_c, 0, 64, 0
1, 194729, Note_on_c, 0, 49, 82
1, 194729, Note_on_c, 0, 33, 0
1, 194797, Note_on_c, 0, 54, 85
1, 194797, Note_on_c, 0, 45, 71
1, 194808, Note_on_c, 0, 49, 0
1, 194864, Note_on_c, 0, 57, 84
1, 194864, Note_on_c, 0, 45, 0
1, 194875, Note_on_c, 0, 54, 0
1, 194932, Note_on_c, 0, 61, 92
1, 194932, Note_on_c, 0, 33, 78
1, 194943, Note_on_c, 0, 57, 0
1, 194965, Note_on_c, 0, 61, 0
1, 194999, Note_on_c, 0, 61, 95
1, 194999, Note_on_c, 0, 33, 0
1, 195066, Note_on_c, 0, 66, 100
1, 195066, Note_on_c, 0, 45, 83
1, 195077, Note_on_c, 0, 61, 0
1, 195134, Note_on_c, 0, 69, 100
1, 195134, Note_on_c, 0, 45, 0
1, 195145, Note_on_c, 0, 66, 0
1, 195201, Note_on_c, 0, 73, 107
1, 195201, Note_on_c, 0, 33, 89
1, 195212, Note_on_c, 0, 69, 0
1, 195235, Note_on_c, 0, 73, 0
1, 195268, Note_on_c, 0, 73, 110
1, 195268, Note_on_c, 0, 33, 0
1, 195336, Note_on_c, 0, 78, 113
1, 195336, Note_on_c, 0, 45, 89
1, 195347, Note_on_c, 0, 73, 0
1, 195403, Note_on_c, 0, 81, 109
1, 195403, Note_on_c, 0, 45, 0
1, 195414, Note_on_c, 0, 78, 0
1, 195470, Control_c, 0, 64, 127
1, 195470, Note_on_c, 0, 78, 115
1, 195470, Note_on_c, 0, 85, 115
1, 195473, Note_on_c, 0, 73, 99
1, 195473, Note_on_c, 0, 33, 99
1, 195473, Control_c, 0, 64, 127
1, 195482, Note_on_c, 0, 81, 0
1, 195539, Note_on_c, 0, 78, 0
1, 195539, Note_on_c, 0, 85, 0
1, 195539, Note_on_c, 0, 73, 0
1, 195542, Note_on_c, 0, 33, 0
1, 195607, Note_on_c, 0, 73, 98
1, 195607, Note_on_c, 0, 78, 114
1, 195607, Note_on_c, 0, 85, 114
1, 195610, Note_on_c, 0, 45, 98
1, 195676, Note_on_c, 0, 85, 0
1, 195676, Note_on_c, 0, 78, 0
1, 195676, Note_on_c, 0, 73, 0
1, 195679, Note_on_c, 0, 45, 0
1, 195744, Control_c, 0, 64, 0
1, 195744, Note_on_c, 0, 33, 89
1, 195744, Control_c, 0, 64, 0
1, 195812, Note_on_c, 0, 49, 99
1, 195812, Note_on_c, 0, 33, 0
1, 195879, Note_on_c, 0, 52, 101
1, 195879, Note_on_c, 0, 45, 84
1, 195890, Note_on_c, 0, 49, 0
1, 195946, Note_on_c, 0, 55, 99
1, 195946, Note_on_c, 0, 45, 0
1, 195957, Note_on_c, 0, 52, 0
1, 196014, Note_on_c, 0, 61, 105
1, 196014, Note_on_c, 0, 33, 89
1, 196025, Note_on_c, 0, 55, 0
1, 196047, Note_on_c, 0, 61, 0
1, 196081, Note_on_c, 0, 61, 101
1, 196081, Note_on_c, 0, 33, 0
1, 196148, Note_on_c, 0, 64, 104
1, 196148, Note_on_c, 0, 45, 85
1, 196160, Note_on_c, 0, 61, 0
1, 196216, Note_on_c, 0, 67, 101
1, 196216, Note_on_c, 0, 45, 0
1, 196227, Note_on_c, 0, 64, 0
1, 196283, Note_on_c, 0, 73, 106
1, 196283, Note_on_c, 0, 33, 89
1, 196294, Note_on_c, 0, 67, 0
1, 196317, Note_on_c, 0, 73, 0
1, 196350, Note_on_c, 0, 73, 105
1, 196350, Note_on_c, 0, 33, 0
1, 196418, Note_on_c, 0, 76, 106
1, 196418, Note_on_c, 0, 45, 86
1, 196429, Note_on_c, 0, 73, 0
1, 196485, Note_on_c, 0, 79, 104
1, 196485, Note_on_c, 0, 45, 0
1, 196496, Note_on_c, 0, 76, 0
1, 196552, Note_on_c, 0, 79, 0
1, 196552, Note_on_c, 0, 79, 121
1, 196552, Note_on_c, 0, 85, 121
1, 196555, Control_c, 0, 64, 127
1, 196555, Note_on_c, 0, 73, 104
1, 196555, Note_on_c, 0, 33, 104
1, 196558, Control_c, 0, 64, 127
1, 196631, Note_on_c, 0, 73, 0
1, 196631, Note_on_c, 0, 85, 0
1, 196631, Note_on_c, 0, 79, 0
1, 196634, Note_on_c, 0, 33, 0
1, 196709, Note_on_c, 0, 85, 121
1, 196709, Note_on_c, 0, 79, 121
1, 196709, Note_on_c, 0, 73, 104
1, 196712, Note_on_c, 0, 45, 104
1, 196788, Note_on_c, 0, 73, 0
1, 196788, Note_on_c, 0, 79, 0
1, 196788, Note_on_c, 0, 85, 0
1, 196791, Note_on_c, 0, 45, 0
1, 196866, Control_c, 0, 64, 0
1, 196866, Note_on_c, 0, 80, 121
1, 196866, Note_on_c, 0, 72, 104
1, 196869, Note_on_c, 0, 84, 121
1, 196869, Note_on_c, 0, 44, 89
1, 196869, Note_on_c, 0, 32, 89
1, 196872, Control_c, 0, 64, 0
1, 197023, Note_on_c, 0, 84, 0
1, 197023, Note_on_c, 0, 72, 0
1, 197023, Note_on_c, 0, 80, 0
1, 197026, Note_on_c, 0, 68, 98
1, 197026, Note_on_c, 0, 32, 0
1, 197026, Note_on_c, 0, 44, 0
1, 197029, Note_on_c, 0, 60, 84
1, 197029, Note_on_c, 0, 56, 84
1, 197042, Control_c, 0, 64, 127
1, 197091, Note_on_c, 0, 68, 0
1, 197091, Note_on_c, 0, 80, 79
1, 197159, Note_on_c, 0, 80, 0
1, 197159, Note_on_c, 0, 68, 99
1, 197159, Note_on_c, 0, 60, 0
1, 197162, Note_on_c, 0, 60, 83
1, 197227, Note_on_c, 0, 68, 0
1, 197227, Note_on_c, 0, 80, 81
1, 197279, Control_c, 0, 64, 0
1, 197296, Note_on_c, 0, 80, 0
1, 197296, Note_on_c, 0, 70, 100
1, 197296, Note_on_c, 0, 60, 0
1, 197299, Note_on_c, 0, 61, 84
1, 197305, Control_c, 0, 64, 127
1, 197364, Note_on_c, 0, 70, 0
1, 197364, Note_on_c, 0, 80, 81
1, 197419, Control_c, 0, 64, 0
1, 197432, Note_on_c, 0, 80, 0
1, 197432, Note_on_c, 0, 72, 100
1, 197432, Note_on_c, 0, 61, 0
1, 197435, Note_on_c, 0, 63, 86
1, 197468, Control_c, 0, 64, 127
1, 197500, Note_on_c, 0, 72, 0
1, 197500, Note_on_c, 0, 80, 82
1, 197568, Note_on_c, 0, 80, 0
1, 197568, Note_on_c, 0, 73, 102
1, 197568, Note_on_c, 0, 63, 0
1, 197571, Note_on_c, 0, 64, 88
1, 197571, Control_c, 0, 64, 0
1, 197597, Control_c, 0, 64, 127
1, 197637, Note_on_c, 0, 73, 0
1, 197637, Note_on_c, 0, 80, 83
1, 197702, Control_c, 0, 64, 0
1, 197705, Note_on_c, 0, 80, 0
1, 197705, Note_on_c, 0, 75, 103
1, 197705, Note_on_c, 0, 64, 0
1, 197708, Note_on_c, 0, 66, 89
1, 197731, Control_c, 0, 64, 127
1, 197773, Note_on_c, 0, 75, 0
1, 197773, Note_on_c, 0, 80, 83
1, 197841, Note_on_c, 0, 80, 0
1, 197841, Note_on_c, 0, 72, 104
1, 197841, Note_on_c, 0, 66, 0
1, 197844, Note_on_c, 0, 63, 90
1, 197910, Note_on_c, 0, 72, 0
1, 197910, Note_on_c, 0, 80, 83
1, 197961, Control_c, 0, 64, 0
1, 197978, Note_on_c, 0, 80, 0
1, 197978, Note_on_c, 0, 75, 105
1, 197978, Note_on_c, 0, 63, 0
1, 197981, Note_on_c, 0, 66, 92
1, 198024, Control_c, 0, 64, 127
1, 198048, Note_on_c, 0, 75, 0
1, 198048, Note_on_c, 0, 80, 84
1, 198118, Note_on_c, 0, 80, 0
1, 198118, Note_on_c, 0, 73, 105
1, 198118, Note_on_c, 0, 66, 0
1, 198121, Note_on_c, 0, 64, 94
1, 198138, Control_c, 0, 64, 0
1, 198171, Control_c, 0, 64, 127
1, 198188, Note_on_c, 0, 73, 0
1, 198188, Note_on_c, 0, 80, 84
1, 198258, Note_on_c, 0, 80, 0
1, 198258, Note_on_c, 0, 78, 109
1, 198258, Note_on_c, 0, 64, 0
1, 198261, Note_on_c, 0, 69, 95
1, 198261, Control_c, 0, 64, 0
1, 198304, Control_c, 0, 64, 127
1, 198328, Note_on_c, 0, 78, 0
1, 198328, Note_on_c, 0, 80, 84
1, 198374, Control_c, 0, 64, 0
1, 198398, Note_on_c, 0, 80, 0
1, 198398, Note_on_c, 0, 76, 105
1, 198398, Note_on_c, 0, 69, 0
1, 198401, Note_on_c, 0, 68, 94
1, 198431, Control_c, 0, 64, 127
1, 198468, Note_on_c, 0, 76, 0
1, 198468, Note_on_c, 0, 80, 84
1, 198537, Note_on_c, 0, 80, 0
1, 198537, Note_on_c, 0, 75, 105
1, 198537, Note_on_c, 0, 68, 0
1, 198540, Note_on_c, 0, 66, 92
1, 198540, Control_c, 0, 64, 0
1, 198570, Control_c, 0, 64, 127
1, 198607, Note_on_c, 0, 75, 0
1, 198607, Note_on_c, 0, 80, 84
1, 198677, Note_on_c, 0, 80, 0
1, 198677, Note_on_c, 0, 73, 103
1, 198677, Note_on_c, 0, 66, 0
1, 198680, Control_c, 0, 64, 0
1, 198680, Note_on_c, 0, 64, 90
1, 198710, Control_c, 0, 64, 127
1, 198746, Note_on_c, 0, 73, 0
1, 198746, Note_on_c, 0, 80, 84
1, 198799, Control_c, 0, 64, 0
1, 198816, Note_on_c, 0, 80, 0
1, 198816, Note_on_c, 0, 72, 103
1, 198816, Note_on_c, 0, 64, 0
1, 198819, Note_on_c, 0, 63, 89
1, 198841, Control_c, 0, 64, 127
1, 198883, Note_on_c, 0, 72, 0
1, 198883, Note_on_c, 0, 80, 83
1, 198937, Control_c, 0, 64, 0
1, 198950, Note_on_c, 0, 80, 0
1, 198950, Note_on_c, 0, 69, 101
1, 198950, Note_on_c, 0, 63, 0
1, 198953, Note_on_c, 0, 61, 88
1, 198967, Control_c, 0, 64, 127
1, 199019, Note_on_c, 0, 69, 0
1, 199019, Note_on_c, 0, 79, 82
1, 199066, Control_c, 0, 64, 0
1, 199089, Note_on_c, 0, 79, 0
1, 199089, Note_on_c, 0, 68, 100
1, 199089, Note_on_c, 0, 61, 0
1, 199092, Note_on_c, 0, 56, 0
1, 199092, Note_on_c, 0, 56, 86
1, 199092, Note_on_c, 0, 60, 86
1, 199128, Control_c, 0, 64, 127
1, 199158, Note_on_c, 0, 68, 0
1, 199158, Note_on_c, 0, 80, 81
1, 199226, Note_on_c, 0, 80, 0
1, 199226, Note_on_c, 0, 68, 99
1, 199226, Note_on_c, 0, 60, 0
1, 199229, Note_on_c, 0, 60, 85
1, 199295, Note_on_c, 0, 68, 0
1, 199295, Note_on_c, 0, 80, 80
1, 199364, Note_on_c, 0, 80, 0
1, 199364, Note_on_c, 0, 68, 98
1, 199364, Note_on_c, 0, 60, 0
1, 199367, Note_on_c, 0, 60, 83
1, 199433, Note_on_c, 0, 68, 0
1, 199433, Note_on_c, 0, 80, 80
1, 199485, Control_c, 0, 64, 0
1, 199501, Note_on_c, 0, 80, 0
1, 199501, Note_on_c, 0, 70, 98
1, 199501, Note_on_c, 0, 60, 0
1, 199504, Note_on_c, 0, 61, 81
1, 199521, Control_c, 0, 64, 127
1, 199570, Note_on_c, 0, 70, 0
1, 199570, Note_on_c, 0, 80, 82
1, 199638, Note_on_c, 0, 80, 0
1, 199638, Note_on_c, 0, 72, 100
1, 199638, Note_on_c, 0, 61, 0
1, 199641, Note_on_c, 0, 63, 83
1, 199651, Control_c, 0, 64, 0
1, 199684, Control_c, 0, 64, 127
1, 199706, Note_on_c, 0, 72, 0
1, 199706, Note_on_c, 0, 80, 80
1, 199775, Note_on_c, 0, 80, 0
1, 199775, Note_on_c, 0, 73, 100
1, 199775, Note_on_c, 0, 63, 0
1, 199778, Note_on_c, 0, 64, 84
1, 199791, Control_c, 0, 64, 0
1, 199820, Control_c, 0, 64, 127
1, 199843, Note_on_c, 0, 73, 0
1, 199843, Note_on_c, 0, 80, 84
1, 199912, Note_on_c, 0, 80, 0
1, 199912, Note_on_c, 0, 75, 101
1, 199912, Note_on_c, 0, 64, 0
1, 199915, Note_on_c, 0, 66, 87
1, 199918, Control_c, 0, 64, 0
1, 199954, Control_c, 0, 64, 127
1, 199980, Note_on_c, 0, 75, 0
1, 199980, Note_on_c, 0, 80, 82
1, 200049, Note_on_c, 0, 80, 0
1, 200049, Note_on_c, 0, 72, 103
1, 200049, Note_on_c, 0, 66, 0
1, 200052, Note_on_c, 0, 63, 89
1, 200117, Note_on_c, 0, 72, 0
1, 200117, Note_on_c, 0, 80, 83
1, 200159, Control_c, 0, 64, 0
1, 200185, Note_on_c, 0, 80, 0
1, 200185, Note_on_c, 0, 75, 104
1, 200185, Note_on_c, 0, 63, 0
1, 200188, Note_on_c, 0, 66, 90
1, 200240, Control_c, 0, 64, 127
1, 200257, Note_on_c, 0, 75, 0
1, 200257, Note_on_c, 0, 80, 84
1, 200328, Note_on_c, 0, 80, 0
1, 200328, Note_on_c, 0, 73, 105
1, 200328, Note_on_c, 0, 66, 0
1, 200331, Note_on_c, 0, 64, 90
1, 200342, Control_c, 0, 64, 0
1, 200379, Control_c, 0, 64, 127
1, 200400, Note_on_c, 0, 73, 0
1, 200400, Note_on_c, 0, 80, 87
1, 200470, Note_on_c, 0, 80, 0
1, 200470, Note_on_c, 0, 78, 109
1, 200470, Note_on_c, 0, 64, 0
1, 200473, Note_on_c, 0, 69, 90
1, 200477, Control_c, 0, 64, 0
1, 200507, Control_c, 0, 64, 127
1, 200540, Note_on_c, 0, 78, 0
1, 200540, Note_on_c, 0, 80, 90
1, 200609, Note_on_c, 0, 80, 0
1, 200609, Note_on_c, 0, 76, 109
1, 200609, Note_on_c, 0, 69, 0
1, 200612, Note_on_c, 0, 68, 89
1, 200615, Control_c, 0, 64, 0
1, 200638, Control_c, 0, 64, 127
1, 200678, Note_on_c, 0, 76, 0
1, 200678, Note_on_c, 0, 80, 89
1, 200747, Note_on_c, 0, 80, 0
1, 200747, Note_on_c, 0, 75, 109
1, 200747, Note_on_c, 0, 68, 0
1, 200750, Note_on_c, 0, 66, 89
1, 200750, Control_c, 0, 64, 0
1, 200784, Control_c, 0, 64, 127
1, 200816, Note_on_c, 0, 75, 0
1, 200816, Note_on_c, 0, 80, 89
1, 200885, Note_on_c, 0, 80, 0
1, 200885, Note_on_c, 0, 73, 109
1, 200885, Note_on_c, 0, 66, 0
1, 200888, Note_on_c, 0, 64, 89
1, 200888, Control_c, 0, 64, 0
1, 200915, Control_c, 0, 64, 127
1, 200954, Note_on_c, 0, 73, 0
1, 200954, Note_on_c, 0, 80, 88
1, 201004, Control_c, 0, 64, 0
1, 201023, Note_on_c, 0, 80, 0
1, 201023, Note_on_c, 0, 72, 109
1, 201023, Note_on_c, 0, 64, 0
1, 201026, Note_on_c, 0, 63, 89
1, 201033, Control_c, 0, 64, 127
1, 201092, Note_on_c, 0, 72, 0
1, 201092, Note_on_c, 0, 80, 89
1, 201144, Control_c, 0, 64, 0
1, 201161, Note_on_c, 0, 80, 0
1, 201161, Note_on_c, 0, 69, 109
1, 201161, Note_on_c, 0, 63, 0
1, 201164, Note_on_c, 0, 61, 89
1, 201170, Control_c, 0, 64, 127
1, 201229, Note_on_c, 0, 69, 0
1, 201229, Note_on_c, 0, 79, 88
1, 201279, Control_c, 0, 64, 0
1, 201298, Note_on_c, 0, 79, 0
1, 201298, Note_on_c, 0, 68, 109
1, 201298, Note_on_c, 0, 61, 0
1, 201301, Note_on_c, 0, 56, 0
1, 201301, Note_on_c, 0, 60, 94
1, 201301, Note_on_c, 0, 56, 94
1, 201327, Control_c, 0, 64, 127
1, 201366, Note_on_c, 0, 68, 0
1, 201366, Note_on_c, 0, 80, 88
1, 201366, Note_on_c, 0, 56, 0
1, 201369, Note_on_c, 0, 60, 0
1, 201383, Control_c, 0, 64, 0
1, 201435, Note_on_c, 0, 80, 0
1, 201435, Note_on_c, 0, 69, 104
1, 201435, Note_on_c, 0, 61, 83
1, 201438, Note_on_c, 0, 56, 83
1, 201454, Control_c, 0, 64, 127
1, 201504, Note_on_c, 0, 69, 0
1, 201504, Note_on_c, 0, 79, 89
1, 201504, Note_on_c, 0, 56, 0
1, 201507, Note_on_c, 0, 61, 0
1, 201507, Control_c, 0, 64, 0
1, 201573, Note_on_c, 0, 79, 0
1, 201573, Note_on_c, 0, 68, 109
1, 201573, Note_on_c, 0, 56, 90
1, 201576, Note_on_c, 0, 60, 90
1, 201602, Control_c, 0, 64, 127
1, 201642, Note_on_c, 0, 68, 0
1, 201642, Note_on_c, 0, 80, 88
1, 201642, Note_on_c, 0, 60, 0
1, 201645, Note_on_c, 0, 56, 0
1, 201655, Control_c, 0, 64, 0
1, 201711, Note_on_c, 0, 80, 0
1, 201711, Note_on_c, 0, 69, 104
1, 201711, Note_on_c, 0, 61, 83
1, 201714, Note_on_c, 0, 56, 83
1, 201731, Control_c, 0, 64, 127
1, 201781, Note_on_c, 0, 69, 0
1, 201781, Note_on_c, 0, 79, 89
1, 201781, Note_on_c, 0, 56, 0
1, 201784, Note_on_c, 0, 61, 0
1, 201787, Control_c, 0, 64, 0
1, 201851, Note_on_c, 0, 79, 0
1, 201851, Note_on_c, 0, 68, 109
1, 201851, Note_on_c, 0, 60, 94
1, 201854, Note_on_c, 0, 56, 94
1, 201874, Control_c, 0, 64, 127
1, 201921, Note_on_c, 0, 68, 0
1, 201921, Note_on_c, 0, 80, 88
1, 201921, Note_on_c, 0, 56, 0
1, 201924, Note_on_c, 0, 60, 0
1, 201934, Control_c, 0, 64, 0
1, 201991, Note_on_c, 0, 80, 0
1, 201991, Note_on_c, 0, 69, 103
1, 201991, Note_on_c, 0, 56, 83
1, 201994, Note_on_c, 0, 61, 83
1, 202014, Control_c, 0, 64, 127
1, 202061, Note_on_c, 0, 69, 0
1, 202061, Note_on_c, 0, 79, 87
1, 202061, Note_on_c, 0, 61, 0
1, 202064, Note_on_c, 0, 56, 0
1, 202075, Control_c, 0, 64, 0
1, 202132, Note_on_c, 0, 79, 0
1, 202132, Note_on_c, 0, 68, 109
1, 202132, Note_on_c, 0, 60, 89
1, 202135, Note_on_c, 0, 56, 89
1, 202155, Control_c, 0, 64, 127
1, 202203, Note_on_c, 0, 68, 0
1, 202203, Note_on_c, 0, 80, 88
1, 202203, Note_on_c, 0, 56, 0
1, 202206, Note_on_c, 0, 60, 0
1, 202216, Control_c, 0, 64, 0
1, 202274, Note_on_c, 0, 80, 0
1, 202274, Note_on_c, 0, 69, 103
1, 202274, Note_on_c, 0, 61, 82
1, 202277, Note_on_c, 0, 56, 82
1, 202294, Control_c, 0, 64, 127
1, 202345, Note_on_c, 0, 69, 0
1, 202345, Note_on_c, 0, 79, 87
1, 202345, Note_on_c, 0, 56, 0
1, 202348, Note_on_c, 0, 61, 0
1, 202348, Control_c, 0, 64, 0
1, 202417, Note_on_c, 0, 79, 0
1, 202417, Note_on_c, 0, 80, 109
1, 202417, Note_on_c, 0, 68, 109
1, 202420, Note_on_c, 0, 60, 94
1, 202420, Note_on_c, 0, 56, 94
1, 202478, Control_c, 0, 64, 127
1, 202601, Note_on_c, 0, 68, 0
1, 202601, Note_on_c, 0, 80, 0
1, 202601, Note_on_c, 0, 56, 0
1, 202604, Note_on_c, 0, 60, 0
1, 202654, Control_c, 0, 64, 0
1, 202785, Note_on_c, 0, 56, 127
1, 202785, Note_on_c, 0, 32, 89
1, 202785, Note_on_c, 0, 44, 103
1, 202934, Control_c, 0, 64, 127
1, 203812, Control_c, 0, 64, 0
1, 203891, Note_on_c, 0, 56, 0
1, 203891, Note_on_c, 0, 44, 0
1, 203891, Note_on_c, 0, 32, 0
1, 203894, Note_on_c, 0, 49, 57
1, 203968, Note_on_c, 0, 56, 45
1, 203981, Note_on_c, 0, 49, 0
1, 204045, Note_on_c, 0, 52, 50
1, 204058, Note_on_c, 0, 56, 0
1, 204122, Note_on_c, 0, 56, 45
1, 204135, Note_on_c, 0, 52, 0
1, 204199, Note_on_c, 0, 68, 77
1, 204199, Note_on_c, 0, 49, 57
1, 204211, Note_on_c, 0, 56, 0
1, 204267, Note_on_c, 0, 56, 45
1, 204278, Note_on_c, 0, 49, 0
1, 204335, Note_on_c, 0, 52, 50
1, 204346, Note_on_c, 0, 56, 0
1, 204403, Note_on_c, 0, 56, 46
1, 204414, Note_on_c, 0, 52, 0
1, 204470, Note_on_c, 0, 49, 57
1, 204482, Note_on_c, 0, 56, 0
1, 204538, Note_on_c, 0, 56, 46
1, 204550, Note_on_c, 0, 49, 0
1, 204606, Note_on_c, 0, 52, 51
1, 204618, Note_on_c, 0, 56, 0
1, 204679, Note_on_c, 0, 56, 46
1, 204691, Note_on_c, 0, 52, 0
1, 204752, Note_on_c, 0, 64, 66
1, 204752, Note_on_c, 0, 49, 57
1, 204765, Note_on_c, 0, 68, 0
1, 204765, Note_on_c, 0, 56, 0
1, 204829, Note_on_c, 0, 56, 46
1, 204842, Note_on_c, 0, 49, 0
1, 204906, Note_on_c, 0, 52, 51
1, 204919, Note_on_c, 0, 56, 0
1, 204983, Note_on_c, 0, 61, 66
1, 204983, Note_on_c, 0, 56, 46
1, 205001, Note_on_c, 0, 64, 0
1, 205001, Note_on_c, 0, 52, 0
1, 205036, Note_on_c, 0, 61, 0
1, 205036, Note_on_c, 0, 60, 54
1, 205054, Note_on_c, 0, 60, 0
1, 205054, Note_on_c, 0, 61, 54
1, 205072, Note_on_c, 0, 61, 0
1, 205072, Note_on_c, 0, 63, 54
1, 205090, Note_on_c, 0, 63, 0
1, 205090, Note_on_c, 0, 61, 73
1, 205090, Note_on_c, 0, 51, 57
1, 205102, Note_on_c, 0, 56, 0
1, 205163, Note_on_c, 0, 56, 46
1, 205175, Note_on_c, 0, 51, 0
1, 205235, Note_on_c, 0, 54, 51
1, 205248, Note_on_c, 0, 56, 0
1, 205308, Note_on_c, 0, 56, 46
1, 205320, Note_on_c, 0, 54, 0
1, 205381, Note_on_c, 0, 60, 66
1, 205381, Note_on_c, 0, 51, 57
1, 205392, Note_on_c, 0, 61, 0
1, 205392, Note_on_c, 0, 56, 0
1, 205449, Note_on_c, 0, 56, 47
1, 205460, Note_on_c, 0, 51, 0
1, 205517, Note_on_c, 0, 54, 51
1, 205528, Note_on_c, 0, 56, 0
1, 205584, Note_on_c, 0, 56, 51
1, 205596, Note_on_c, 0, 54, 0
1, 205652, Note_on_c, 0, 51, 57
1, 205663, Note_on_c, 0, 56, 0
1, 205720, Note_on_c, 0, 56, 46
1, 205731, Note_on_c, 0, 51, 0
1, 205788, Note_on_c, 0, 60, 0
1, 205788, Note_on_c, 0, 60, 66
1, 205788, Note_on_c, 0, 54, 51
1, 205800, Note_on_c, 0, 56, 0
1, 205862, Note_on_c, 0, 56, 45
1, 205875, Note_on_c, 0, 54, 0
1, 205937, Note_on_c, 0, 68, 77
1, 205937, Note_on_c, 0, 51, 57
1, 205950, Note_on_c, 0, 60, 0
1, 205950, Note_on_c, 0, 56, 0
1, 206014, Note_on_c, 0, 56, 45
1, 206027, Note_on_c, 0, 51, 0
1, 206092, Note_on_c, 0, 54, 51
1, 206105, Note_on_c, 0, 56, 0
1, 206170, Note_on_c, 0, 68, 0
1, 206170, Note_on_c, 0, 60, 67
1, 206170, Note_on_c, 0, 56, 45
1, 206182, Note_on_c, 0, 54, 0
1, 206208, Note_on_c, 0, 60, 0
1, 206247, Note_on_c, 0, 63, 61
1, 206247, Note_on_c, 0, 52, 57
1, 206259, Note_on_c, 0, 56, 0
1, 206320, Note_on_c, 0, 56, 48
1, 206332, Note_on_c, 0, 52, 0
1, 206392, Note_on_c, 0, 52, 52
1, 206404, Note_on_c, 0, 56, 0
1, 206465, Note_on_c, 0, 56, 47
1, 206477, Note_on_c, 0, 52, 0
1, 206537, Note_on_c, 0, 61, 66
1, 206537, Note_on_c, 0, 52, 56
1, 206549, Note_on_c, 0, 63, 0
1, 206549, Note_on_c, 0, 56, 0
1, 206605, Note_on_c, 0, 56, 47
1, 206616, Note_on_c, 0, 52, 0
1, 206672, Note_on_c, 0, 52, 50
1, 206683, Note_on_c, 0, 56, 0
1, 206739, Note_on_c, 0, 56, 45
1, 206751, Note_on_c, 0, 52, 0
1, 206807, Note_on_c, 0, 52, 57
1, 206818, Note_on_c, 0, 56, 0
1, 206874, Note_on_c, 0, 56, 47
1, 206885, Note_on_c, 0, 52, 0
1, 206942, Note_on_c, 0, 61, 0
1, 206942, Note_on_c, 0, 61, 63
1, 206942, Note_on_c, 0, 52, 52
1, 206954, Note_on_c, 0, 56, 0
1, 207014, Note_on_c, 0, 56, 47
1, 207026, Note_on_c, 0, 52, 0
1, 207086, Note_on_c, 0, 68, 78
1, 207086, Note_on_c, 0, 52, 56
1, 207099, Note_on_c, 0, 61, 0
1, 207099, Note_on_c, 0, 56, 0
1, 207163, Note_on_c, 0, 56, 47
1, 207176, Note_on_c, 0, 52, 0
1, 207240, Note_on_c, 0, 52, 51
1, 207253, Note_on_c, 0, 56, 0
1, 207317, Note_on_c, 0, 68, 0
1, 207317, Note_on_c, 0, 61, 66
1, 207317, Note_on_c, 0, 56, 51
1, 207329, Note_on_c, 0, 52, 0
1, 207394, Note_on_c, 0, 64, 67
1, 207394, Note_on_c, 0, 48, 56
1, 207406, Note_on_c, 0, 61, 0
1, 207406, Note_on_c, 0, 56, 0
1, 207466, Note_on_c, 0, 56, 47
1, 207478, Note_on_c, 0, 48, 0
1, 207539, Note_on_c, 0, 48, 51
1, 207551, Note_on_c, 0, 56, 0
1, 207611, Note_on_c, 0, 56, 48
1, 207623, Note_on_c, 0, 48, 0
1, 207684, Note_on_c, 0, 63, 66
1, 207684, Note_on_c, 0, 48, 56
1, 207695, Note_on_c, 0, 64, 0
1, 207695, Note_on_c, 0, 56, 0
1, 207752, Note_on_c, 0, 56, 48
1, 207763, Note_on_c, 0, 48, 0
1, 207819, Note_on_c, 0, 48, 52
1, 207831, Note_on_c, 0, 56, 0
1, 207887, Note_on_c, 0, 56, 47
1, 207899, Note_on_c, 0, 48, 0
1, 207955, Note_on_c, 0, 48, 56
1, 207966, Note_on_c, 0, 56, 0
1, 208023, Note_on_c, 0, 56, 49
1, 208034, Note_on_c, 0, 48, 0
1, 208091, Note_on_c, 0, 63, 0
1, 208091, Note_on_c, 0, 63, 67
1, 208091, Note_on_c, 0, 48, 54
1, 208103, Note_on_c, 0, 56, 0
1, 208168, Note_on_c, 0, 56, 49
1, 208180, Note_on_c, 0, 48, 0
1, 208245, Note_on_c, 0, 68, 63
1, 208245, Note_on_c, 0, 48, 56
1, 208257, Note_on_c, 0, 63, 0
1, 208257, Note_on_c, 0, 56, 0
1, 208322, Note_on_c, 0, 56, 46
1, 208334, Note_on_c, 0, 48, 0
1, 208399, Note_on_c, 0, 48, 50
1, 208411, Note_on_c, 0, 56, 0
1, 208476, Note_on_c, 0, 63, 67
1, 208476, Note_on_c, 0, 56, 44
1, 208488, Note_on_c, 0, 68, 0
1, 208488, Note_on_c, 0, 48, 0
1, 208552, Note_on_c, 0, 63, 0
1, 208552, Note_on_c, 0, 64, 71
1, 208552, Note_on_c, 0, 49, 56
1, 208564, Note_on_c, 0, 56, 0
1, 208622, Note_on_c, 0, 64, 0
1, 208622, Note_on_c, 0, 56, 48
1, 208633, Note_on_c, 0, 49, 0
1, 208691, Note_on_c, 0, 80, 73
1, 208691, Note_on_c, 0, 68, 62
1, 208691, Note_on_c, 0, 52, 52
1, 208703, Note_on_c, 0, 56, 0
1, 208760, Note_on_c, 0, 56, 47
1, 208772, Note_on_c, 0, 52, 0
1, 208830, Note_on_c, 0, 49, 58
1, 208841, Note_on_c, 0, 56, 0
1, 208899, Note_on_c, 0, 56, 47
1, 208911, Note_on_c, 0, 49, 0
1, 208968, Note_on_c, 0, 68, 0
1, 208968, Note_on_c, 0, 80, 0
1, 208968, Note_on_c, 0, 68, 59
1, 208971, Note_on_c, 0, 80, 68
1, 208971, Note_on_c, 0, 52, 51
1, 208980, Note_on_c, 0, 56, 0
1, 209038, Note_on_c, 0, 56, 47
1, 209049, Note_on_c, 0, 52, 0
1, 209107, Note_on_c, 0, 49, 59
1, 209119, Note_on_c, 0, 56, 0
1, 209176, Note_on_c, 0, 56, 47
1, 209188, Note_on_c, 0, 49, 0
1, 209246, Note_on_c, 0, 80, 0
1, 209246, Note_on_c, 0, 68, 0
1, 209246, Note_on_c, 0, 80, 71
1, 209249, Note_on_c, 0, 68, 61
1, 209249, Note_on_c, 0, 52, 52
1, 209257, Note_on_c, 0, 56, 0
1, 209313, Note_on_c, 0, 68, 0
1, 209313, Note_on_c, 0, 80, 0
1, 209313, Note_on_c, 0, 56, 47
1, 209324, Note_on_c, 0, 52, 0
1, 209380, Note_on_c, 0, 64, 63
1, 209380, Note_on_c, 0, 76, 73
1, 209380, Note_on_c, 0, 49, 61
1, 209392, Note_on_c, 0, 56, 0
1, 209448, Note_on_c, 0, 76, 0
1, 209448, Note_on_c, 0, 64, 0
1, 209448, Note_on_c, 0, 56, 50
1, 209459, Note_on_c, 0, 49, 0
1, 209515, Note_on_c, 0, 73, 71
1, 209515, Note_on_c, 0, 61, 61
1, 209515, Note_on_c, 0, 52, 54
1, 209526, Note_on_c, 0, 56, 0
1, 209582, Note_on_c, 0, 61, 0
1, 209582, Note_on_c, 0, 73, 0
1, 209582, Note_on_c, 0, 56, 49
1, 209594, Note_on_c, 0, 52, 0
1, 209650, Note_on_c, 0, 61, 66
1, 209650, Note_on_c, 0, 73, 77
1, 209650, Note_on_c, 0, 51, 65
1, 209661, Note_on_c, 0, 56, 0
1, 209717, Note_on_c, 0, 73, 0
1, 209717, Note_on_c, 0, 61, 0
1, 209717, Note_on_c, 0, 56, 49
1, 209728, Note_on_c, 0, 51, 0
1, 209784, Note_on_c, 0, 60, 67
1, 209784, Note_on_c, 0, 72, 78
1, 209784, Note_on_c, 0, 54, 56
1, 209796, Note_on_c, 0, 56, 0
1, 209854, Note_on_c, 0, 56, 49
1, 209866, Note_on_c, 0, 54, 0
1, 209924, Note_on_c, 0, 51, 66
1, 209936, Note_on_c, 0, 56, 0
1, 209994, Note_on_c, 0, 56, 52
1, 210005, Note_on_c, 0, 51, 0
1, 210064, Note_on_c, 0, 72, 0
1, 210064, Note_on_c, 0, 60, 0
1, 210064, Note_on_c, 0, 72, 83
1, 210067, Note_on_c, 0, 60, 72
1, 210067, Note_on_c, 0, 54, 58
1, 210075, Note_on_c, 0, 56, 0
1, 210133, Note_on_c, 0, 56, 50
1, 210145, Note_on_c, 0, 54, 0
1, 210203, Note_on_c, 0, 51, 68
1, 210215, Note_on_c, 0, 56, 0
1, 210273, Note_on_c, 0, 56, 52
1, 210284, Note_on_c, 0, 51, 0
1, 210343, Note_on_c, 0, 60, 0
1, 210343, Note_on_c, 0, 72, 0
1, 210343, Note_on_c, 0, 60, 73
1, 210346, Note_on_c, 0, 72, 85
1, 210346, Note_on_c, 0, 54, 59
1, 210354, Note_on_c, 0, 56, 0
1, 210410, Note_on_c, 0, 72, 0
1, 210410, Note_on_c, 0, 60, 0
1, 210410, Note_on_c, 0, 56, 52
1, 210421, Note_on_c, 0, 54, 0
1, 210477, Note_on_c, 0, 80, 87
1, 210477, Note_on_c, 0, 68, 75
1, 210477, Note_on_c, 0, 51, 69
1, 210488, Note_on_c, 0, 56, 0
1, 210545, Note_on_c, 0, 68, 0
1, 210545, Note_on_c, 0, 80, 0
1, 210545, Note_on_c, 0, 56, 58
1, 210556, Note_on_c, 0, 51, 0
1, 210612, Note_on_c, 0, 72, 85
1, 210612, Note_on_c, 0, 60, 73
1, 210612, Note_on_c, 0, 54, 63
1, 210623, Note_on_c, 0, 56, 0
1, 210679, Note_on_c, 0, 60, 0
1, 210679, Note_on_c, 0, 72, 0
1, 210679, Note_on_c, 0, 56, 60
1, 210691, Note_on_c, 0, 54, 0
1, 210747, Note_on_c, 0, 75, 91
1, 210747, Note_on_c, 0, 63, 78
1, 210747, Note_on_c, 0, 52, 71
1, 210758, Note_on_c, 0, 56, 0
1, 210814, Note_on_c, 0, 63, 0
1, 210814, Note_on_c, 0, 75, 0
1, 210814, Note_on_c, 0, 56, 61
1, 210825, Note_on_c, 0, 52, 0
1, 210881, Note_on_c, 0, 61, 79
1, 210881, Note_on_c, 0, 73, 92
1, 210881, Note_on_c, 0, 52, 66
1, 210893, Note_on_c, 0, 56, 0
1, 210951, Note_on_c, 0, 56, 61
1, 210963, Note_on_c, 0, 52, 0
1, 211021, Note_on_c, 0, 52, 72
1, 211033, Note_on_c, 0, 56, 0
1, 211091, Note_on_c, 0, 56, 61
1, 211102, Note_on_c, 0, 52, 0
1, 211160, Note_on_c, 0, 73, 0
1, 211160, Note_on_c, 0, 61, 0
1, 211160, Note_on_c, 0, 61, 83
1, 211163, Note_on_c, 0, 73, 96
1, 211163, Note_on_c, 0, 52, 67
1, 211172, Note_on_c, 0, 56, 0
1, 211230, Note_on_c, 0, 56, 62
1, 211242, Note_on_c, 0, 52, 0
1, 211300, Note_on_c, 0, 52, 77
1, 211312, Note_on_c, 0, 56, 0
1, 211370, Note_on_c, 0, 56, 65
1, 211381, Note_on_c, 0, 52, 0
1, 211440, Note_on_c, 0, 73, 0
1, 211440, Note_on_c, 0, 61, 0
1, 211440, Note_on_c, 0, 73, 92
1, 211443, Note_on_c, 0, 61, 79
1, 211443, Note_on_c, 0, 52, 69
1, 211451, Note_on_c, 0, 56, 0
1, 211508, Note_on_c, 0, 61, 0
1, 211508, Note_on_c, 0, 73, 0
1, 211508, Note_on_c, 0, 56, 66
1, 211519, Note_on_c, 0, 52, 0
1, 211576, Note_on_c, 0, 80, 102
1, 211576, Note_on_c, 0, 68, 88
1, 211576, Note_on_c, 0, 52, 78
1, 211587, Note_on_c, 0, 56, 0
1, 211644, Note_on_c, 0, 68, 0
1, 211644, Note_on_c, 0, 80, 0
1, 211644, Note_on_c, 0, 56, 68
1, 211655, Note_on_c, 0, 52, 0
1, 211711, Note_on_c, 0, 73, 103
1, 211711, Note_on_c, 0, 61, 89
1, 211711, Note_on_c, 0, 52, 71
1, 211723, Note_on_c, 0, 56, 0
1, 211779, Note_on_c, 0, 61, 0
1, 211779, Note_on_c, 0, 73, 0
1, 211779, Note_on_c, 0, 56, 67
1, 211791, Note_on_c, 0, 52, 0
1, 211847, Note_on_c, 0, 64, 89
1, 211847, Note_on_c, 0, 76, 104
1, 211847, Note_on_c, 0, 48, 80
1, 211859, Note_on_c, 0, 56, 0
1, 211915, Note_on_c, 0, 76, 0
1, 211915, Note_on_c, 0, 64, 0
1, 211915, Note_on_c, 0, 56, 73
1, 211927, Note_on_c, 0, 48, 0
1, 211983, Note_on_c, 0, 63, 88
1, 211983, Note_on_c, 0, 75, 102
1, 211983, Note_on_c, 0, 48, 77
1, 211995, Note_on_c, 0, 56, 0
1, 212053, Note_on_c, 0, 56, 72
1, 212064, Note_on_c, 0, 48, 0
1, 212122, Note_on_c, 0, 48, 81
1, 212133, Note_on_c, 0, 56, 0
1, 212191, Note_on_c, 0, 56, 72
1, 212202, Note_on_c, 0, 48, 0
1, 212260, Note_on_c, 0, 75, 0
1, 212260, Note_on_c, 0, 63, 0
1, 212260, Note_on_c, 0, 75, 110
1, 212263, Note_on_c, 0, 63, 95
1, 212263, Note_on_c, 0, 48, 78
1, 212271, Note_on_c, 0, 56, 0
1, 212329, Note_on_c, 0, 56, 72
1, 212340, Note_on_c, 0, 48, 0
1, 212398, Note_on_c, 0, 48, 84
1, 212410, Note_on_c, 0, 56, 0
1, 212467, Note_on_c, 0, 56, 72
1, 212479, Note_on_c, 0, 48, 0
1, 212536, Note_on_c, 0, 63, 0
1, 212536, Note_on_c, 0, 75, 0
1, 212536, Note_on_c, 0, 63, 92
1, 212539, Note_on_c, 0, 75, 107
1, 212539, Note_on_c, 0, 48, 80
1, 212548, Note_on_c, 0, 56, 0
1, 212605, Note_on_c, 0, 75, 0
1, 212605, Note_on_c, 0, 63, 0
1, 212605, Note_on_c, 0, 56, 73
1, 212617, Note_on_c, 0, 48, 0
1, 212674, Note_on_c, 0, 68, 95
1, 212674, Note_on_c, 0, 80, 110
1, 212674, Note_on_c, 0, 48, 84
1, 212686, Note_on_c, 0, 56, 0
1, 212743, Note_on_c, 0, 80, 0
1, 212743, Note_on_c, 0, 68, 0
1, 212743, Note_on_c, 0, 56, 73
1, 212755, Note_on_c, 0, 48, 0
1, 212813, Note_on_c, 0, 75, 107
1, 212813, Note_on_c, 0, 63, 92
1, 212813, Note_on_c, 0, 48, 81
1, 212824, Note_on_c, 0, 56, 0
1, 212882, Note_on_c, 0, 63, 0
1, 212882, Note_on_c, 0, 75, 0
1, 212882, Note_on_c, 0, 56, 74
1, 212893, Note_on_c, 0, 48, 0
1, 212951, Note_on_c, 0, 65, 97
1, 212951, Note_on_c, 0, 77, 113
1, 212951, Note_on_c, 0, 47, 88
1, 212962, Note_on_c, 0, 56, 0
1, 213018, Note_on_c, 0, 56, 77
1, 213029, Note_on_c, 0, 47, 0
1, 213085, Note_on_c, 0, 49, 82
1, 213097, Note_on_c, 0, 56, 0
1, 213153, Note_on_c, 0, 56, 76
1, 213164, Note_on_c, 0, 49, 0
1, 213220, Note_on_c, 0, 47, 88
1, 213231, Note_on_c, 0, 56, 0
1, 213287, Note_on_c, 0, 56, 77
1, 213299, Note_on_c, 0, 47, 0
1, 213355, Note_on_c, 0, 49, 82
1, 213366, Note_on_c, 0, 56, 0
1, 213422, Note_on_c, 0, 56, 77
1, 213433, Note_on_c, 0, 49, 0
1, 213490, Note_on_c, 0, 77, 0
1, 213490, Note_on_c, 0, 65, 0
1, 213490, Note_on_c, 0, 66, 97
1, 213493, Note_on_c, 0, 78, 113
1, 213493, Note_on_c, 0, 45, 88
1, 213501, Note_on_c, 0, 56, 0
1, 213557, Note_on_c, 0, 54, 77
1, 213568, Note_on_c, 0, 45, 0
1, 213624, Note_on_c, 0, 49, 83
1, 213636, Note_on_c, 0, 54, 0
1, 213692, Note_on_c, 0, 54, 78
1, 213703, Note_on_c, 0, 49, 0
1, 213759, Note_on_c, 0, 45, 88
1, 213770, Note_on_c, 0, 54, 0
1, 213826, Note_on_c, 0, 54, 77
1, 213838, Note_on_c, 0, 45, 0
1, 213894, Note_on_c, 0, 49, 82
1, 213905, Note_on_c, 0, 54, 0
1, 213961, Note_on_c, 0, 54, 77
1, 213972, Note_on_c, 0, 49, 0
1, 214028, Note_on_c, 0, 78, 0
1, 214028, Note_on_c, 0, 66, 0
1, 214028, Note_on_c, 0, 75, 95
1, 214031, Note_on_c, 0, 63, 82
1, 214031, Note_on_c, 0, 45, 88
1, 214039, Control_c, 0, 64, 127
1, 214039, Note_on_c, 0, 54, 0
1, 214072, Note_on_c, 0, 75, 0
1, 214072, Note_on_c, 0, 76, 90
1, 214098, Note_on_c, 0, 54, 76
1, 214110, Note_on_c, 0, 45, 0
1, 214116, Note_on_c, 0, 76, 0
1, 214116, Note_on_c, 0, 75, 95
1, 214160, Note_on_c, 0, 75, 0
1, 214160, Note_on_c, 0, 76, 90
1, 214168, Note_on_c, 0, 47, 82
1, 214180, Note_on_c, 0, 54, 0
1, 214203, Note_on_c, 0, 76, 0
1, 214203, Note_on_c, 0, 73, 95
1, 214238, Note_on_c, 0, 54, 76
1, 214250, Note_on_c, 0, 47, 0
1, 214256, Note_on_c, 0, 73, 0
1, 214256, Note_on_c, 0, 75, 91
1, 214308, Note_on_c, 0, 75, 0
1, 214308, Note_on_c, 0, 63, 0
1, 214308, Note_on_c, 0, 76, 113
1, 214311, Note_on_c, 0, 64, 97
1, 214311, Note_on_c, 0, 44, 88
1, 214316, Control_c, 0, 64, 0
1, 214320, Note_on_c, 0, 54, 0
1, 214376, Note_on_c, 0, 52, 77
1, 214387, Note_on_c, 0, 44, 0
1, 214443, Note_on_c, 0, 47, 83
1, 214454, Note_on_c, 0, 52, 0
1, 214511, Note_on_c, 0, 52, 76
1, 214522, Note_on_c, 0, 47, 0
1, 214578, Note_on_c, 0, 44, 88
1, 214589, Note_on_c, 0, 52, 0
1, 214645, Note_on_c, 0, 52, 77
1, 214656, Note_on_c, 0, 44, 0
1, 214713, Note_on_c, 0, 47, 82
1, 214724, Note_on_c, 0, 52, 0
1, 214780, Note_on_c, 0, 52, 76
1, 214791, Note_on_c, 0, 47, 0
1, 214847, Note_on_c, 0, 44, 88
1, 214859, Note_on_c, 0, 52, 0
1, 214915, Note_on_c, 0, 52, 74
1, 214926, Note_on_c, 0, 44, 0
1, 214982, Note_on_c, 0, 47, 81
1, 214993, Note_on_c, 0, 52, 0
1, 215049, Note_on_c, 0, 52, 77
1, 215061, Note_on_c, 0, 47, 0
1, 215117, Note_on_c, 0, 64, 0
1, 215117, Note_on_c, 0, 76, 0
1, 215117, Note_on_c, 0, 73, 113
1, 215120, Note_on_c, 0, 61, 97
1, 215120, Note_on_c, 0, 43, 88
1, 215128, Note_on_c, 0, 52, 0
1, 215185, Note_on_c, 0, 52, 79
1, 215197, Note_on_c, 0, 43, 0
1, 215254, Note_on_c, 0, 45, 84
1, 215266, Note_on_c, 0, 52, 0
1, 215323, Note_on_c, 0, 52, 79
1, 215334, Note_on_c, 0, 45, 0
1, 215391, Note_on_c, 0, 43, 88
1, 215403, Note_on_c, 0, 52, 0
1, 215460, Note_on_c, 0, 52, 78
1, 215471, Note_on_c, 0, 43, 0
1, 215529, Note_on_c, 0, 45, 84
1, 215540, Note_on_c, 0, 52, 0
1, 215597, Note_on_c, 0, 52, 79
1, 215609, Note_on_c, 0, 45, 0
1, 215666, Note_on_c, 0, 61, 0
1, 215666, Note_on_c, 0, 73, 0
1, 215666, Note_on_c, 0, 62, 96
1, 215669, Note_on_c, 0, 74, 112
1, 215669, Note_on_c, 0, 42, 88
1, 215677, Note_on_c, 0, 52, 0
1, 215734, Note_on_c, 0, 50, 74
1, 215746, Note_on_c, 0, 42, 0
1, 215802, Note_on_c, 0, 45, 83
1, 215814, Note_on_c, 0, 50, 0
1, 215871, Note_on_c, 0, 50, 76
1, 215882, Note_on_c, 0, 45, 0
1, 215939, Note_on_c, 0, 42, 88
1, 215950, Note_on_c, 0, 50, 0
1, 216007, Note_on_c, 0, 50, 74
1, 216018, Note_on_c, 0, 42, 0
1, 216075, Note_on_c, 0, 45, 83
1, 216087, Note_on_c, 0, 50, 0
1, 216143, Note_on_c, 0, 50, 74
1, 216155, Note_on_c, 0, 45, 0
1, 216212, Note_on_c, 0, 74, 0
1, 216212, Note_on_c, 0, 62, 0
1, 216212, Note_on_c, 0, 60, 82
1, 216215, Note_on_c, 0, 72, 95
1, 216215, Note_on_c, 0, 42, 88
1, 216218, Control_c, 0, 64, 127
1, 216223, Note_on_c, 0, 50, 0
1, 216255, Note_on_c, 0, 72, 0
1, 216255, Note_on_c, 0, 73, 89
1, 216281, Note_on_c, 0, 51, 76
1, 216293, Note_on_c, 0, 42, 0
1, 216298, Note_on_c, 0, 73, 0
1, 216298, Note_on_c, 0, 72, 95
1, 216342, Note_on_c, 0, 72, 0
1, 216342, Note_on_c, 0, 73, 89
1, 216350, Note_on_c, 0, 44, 81
1, 216362, Note_on_c, 0, 51, 0
1, 216385, Note_on_c, 0, 73, 0
1, 216385, Note_on_c, 0, 70, 95
1, 216420, Note_on_c, 0, 51, 81
1, 216431, Note_on_c, 0, 44, 0
1, 216437, Note_on_c, 0, 70, 0
1, 216437, Note_on_c, 0, 71, 89
1, 216489, Note_on_c, 0, 71, 0
1, 216489, Note_on_c, 0, 60, 0
1, 216489, Note_on_c, 0, 73, 113
1, 216492, Note_on_c, 0, 61, 97
1, 216492, Note_on_c, 0, 40, 88
1, 216495, Control_c, 0, 64, 0
1, 216500, Note_on_c, 0, 51, 0
1, 216556, Note_on_c, 0, 49, 76
1, 216567, Note_on_c, 0, 40, 0
1, 216624, Note_on_c, 0, 44, 82
1, 216635, Note_on_c, 0, 49, 0
1, 216691, Note_on_c, 0, 49, 78
1, 216702, Note_on_c, 0, 44, 0
1, 216758, Note_on_c, 0, 40, 88
1, 216770, Note_on_c, 0, 49, 0
1, 216826, Note_on_c, 0, 49, 77
1, 216837, Note_on_c, 0, 40, 0
1, 216893, Note_on_c, 0, 44, 82
1, 216904, Note_on_c, 0, 49, 0
1, 216960, Note_on_c, 0, 49, 77
1, 216972, Note_on_c, 0, 44, 0
1, 217028, Note_on_c, 0, 40, 88
1, 217039, Note_on_c, 0, 49, 0
1, 217095, Note_on_c, 0, 49, 77
1, 217106, Note_on_c, 0, 40, 0
1, 217163, Note_on_c, 0, 42, 82
1, 217174, Note_on_c, 0, 49, 0
1, 217230, Note_on_c, 0, 49, 82
1, 217241, Note_on_c, 0, 42, 0
1, 217297, Note_on_c, 0, 61, 0
1, 217297, Note_on_c, 0, 73, 0
1, 217297, Note_on_c, 0, 66, 97
1, 217300, Note_on_c, 0, 74, 113
1, 217300, Note_on_c, 0, 62, 97
1, 217300, Note_on_c, 0, 69, 113
1, 217303, Note_on_c, 0, 45, 76
1, 217303, Note_on_c, 0, 54, 88
1, 217303, Note_on_c, 0, 50, 88
1, 217306, Note_on_c, 0, 42, 76
1, 217306, Note_on_c, 0, 49, 0
1, 217903, Note_on_c, 0, 69, 0
1, 217903, Note_on_c, 0, 66, 0
1, 217903, Note_on_c, 0, 74, 0
1, 217906, Note_on_c, 0, 62, 0
1, 217906, Note_on_c, 0, 69, 67
1, 217971, Note_on_c, 0, 69, 0
1, 217971, Note_on_c, 0, 71, 67
1, 218038, Note_on_c, 0, 71, 0
1, 218038, Note_on_c, 0, 73, 68
1, 218106, Note_on_c, 0, 73, 0
1, 218106, Note_on_c, 0, 74, 69
1, 218106, Note_on_c, 0, 50, 0
1, 218109, Note_on_c, 0, 45, 0
1, 218109, Note_on_c, 0, 54, 0
1, 218109, Note_on_c, 0, 42, 0
1, 218173, Note_on_c, 0, 74, 0
1, 218173, Note_on_c, 0, 76, 70
1, 218240, Note_on_c, 0, 76, 0
1, 218240, Note_on_c, 0, 78, 70
1, 218308, Note_on_c, 0, 78, 0
1, 218308, Note_on_c, 0, 76, 68
1, 218375, Note_on_c, 0, 76, 0
1, 218375, Note_on_c, 0, 74, 68
1, 218375, Note_on_c, 0, 54, 69
1, 218378, Note_on_c, 0, 62, 69
1, 218378, Note_on_c, 0, 57, 69
1, 218442, Note_on_c, 0, 74, 0
1, 218442, Note_on_c, 0, 69, 66
1, 218510, Note_on_c, 0, 69, 0
1, 218510, Note_on_c, 0, 71, 67
1, 218577, Note_on_c, 0, 71, 0
1, 218577, Note_on_c, 0, 73, 68
1, 218642, Note_on_c, 0, 62, 0
1, 218642, Note_on_c, 0, 73, 0
1, 218642, Note_on_c, 0, 74, 69
1, 218642, Note_on_c, 0, 57, 0
1, 218642, Note_on_c, 0, 54, 0
1, 218712, Note_on_c, 0, 74, 0
1, 218712, Note_on_c, 0, 76, 70
1, 218779, Note_on_c, 0, 76, 0
1, 218779, Note_on_c, 0, 78, 71
1, 218847, Note_on_c, 0, 78, 0
1, 218847, Note_on_c, 0, 76, 69
1, 218914, Note_on_c, 0, 76, 0
1, 218914, Note_on_c, 0, 74, 67
1, 218914, Note_on_c, 0, 57, 68
1, 218917, Note_on_c, 0, 62, 68
1, 218917, Note_on_c, 0, 54, 68
1, 218981, Note_on_c, 0, 74, 0
1, 218981, Note_on_c, 0, 69, 67
1, 219049, Note_on_c, 0, 69, 0
1, 219049, Note_on_c, 0, 71, 69
1, 219116, Note_on_c, 0, 71, 0
1, 219116, Note_on_c, 0, 73, 71
1, 219183, Note_on_c, 0, 73, 0
1, 219183, Note_on_c, 0, 74, 71
1, 219183, Note_on_c, 0, 54, 0
1, 219186, Note_on_c, 0, 62, 0
1, 219186, Note_on_c, 0, 57, 0
1, 219251, Note_on_c, 0, 74, 0
1, 219251, Note_on_c, 0, 76, 72
1, 219318, Note_on_c, 0, 76, 0
1, 219318, Note_on_c, 0, 78, 72
1, 219385, Note_on_c, 0, 78, 0
1, 219385, Note_on_c, 0, 76, 70
1, 219453, Note_on_c, 0, 76, 0
1, 219453, Note_on_c, 0, 74, 66
1, 219453, Note_on_c, 0, 54, 68
1, 219456, Note_on_c, 0, 57, 68
1, 219456, Note_on_c, 0, 62, 68
1, 219520, Note_on_c, 0, 74, 0
1, 219520, Note_on_c, 0, 69, 67
1, 219588, Note_on_c, 0, 69, 0
1, 219588, Note_on_c, 0, 71, 70
1, 219655, Note_on_c, 0, 71, 0
1, 219655, Note_on_c, 0, 73, 71
1, 219722, Note_on_c, 0, 73, 0
1, 219722, Note_on_c, 0, 74, 74
1, 219722, Note_on_c, 0, 62, 0
1, 219725, Note_on_c, 0, 57, 0
1, 219725, Note_on_c, 0, 54, 0
1, 219725, Note_on_c, 0, 62, 72
1, 219728, Note_on_c, 0, 57, 72
1, 219728, Note_on_c, 0, 54, 72
1, 219790, Note_on_c, 0, 74, 0
1, 219790, Note_on_c, 0, 76, 77
1, 219857, Note_on_c, 0, 76, 0
1, 219857, Note_on_c, 0, 78, 78
1, 219924, Note_on_c, 0, 78, 0
1, 219924, Note_on_c, 0, 79, 81
1, 219992, Note_on_c, 0, 79, 0
1, 219992, Note_on_c, 0, 81, 82
1, 219992, Note_on_c, 0, 54, 0
1, 219995, Note_on_c, 0, 57, 0
1, 219995, Note_on_c, 0, 62, 0
1, 219995, Note_on_c, 0, 54, 81
1, 219998, Note_on_c, 0, 62, 81
1, 219998, Note_on_c, 0, 57, 81
1, 220059, Note_on_c, 0, 81, 0
1, 220059, Note_on_c, 0, 80, 80
1, 220126, Note_on_c, 0, 80, 0
1, 220126, Note_on_c, 0, 81, 78
1, 220194, Note_on_c, 0, 81, 0
1, 220194, Note_on_c, 0, 80, 77
1, 220261, Note_on_c, 0, 80, 0
1, 220261, Note_on_c, 0, 81, 74
1, 220261, Note_on_c, 0, 57, 0
1, 220264, Note_on_c, 0, 62, 0
1, 220264, Note_on_c, 0, 54, 0
1, 220264, Note_on_c, 0, 54, 76
1, 220267, Note_on_c, 0, 62, 76
1, 220267, Note_on_c, 0, 57, 76
1, 220329, Note_on_c, 0, 81, 0
1, 220329, Note_on_c, 0, 78, 72
1, 220396, Note_on_c, 0, 78, 0
1, 220396, Note_on_c, 0, 76, 71
1, 220463, Note_on_c, 0, 76, 0
1, 220463, Note_on_c, 0, 74, 69
1, 220531, Note_on_c, 0, 74, 0
1, 220531, Note_on_c, 0, 73, 67
1, 220531, Note_on_c, 0, 57, 0
1, 220534, Note_on_c, 0, 62, 0
1, 220534, Note_on_c, 0, 54, 0
1, 220534, Note_on_c, 0, 56, 68
1, 220598, Note_on_c, 0, 64, 62
1, 220609, Note_on_c, 0, 56, 0
1, 220665, Note_on_c, 0, 61, 66
1, 220677, Note_on_c, 0, 64, 0
1, 220733, Note_on_c, 0, 64, 61
1, 220744, Note_on_c, 0, 61, 0
1, 220800, Note_on_c, 0, 56, 70
1, 220811, Note_on_c, 0, 64, 0
1, 220867, Note_on_c, 0, 64, 61
1, 220879, Note_on_c, 0, 56, 0
1, 220935, Note_on_c, 0, 61, 66
1, 220946, Note_on_c, 0, 64, 0
1, 221002, Note_on_c, 0, 64, 60
1, 221013, Note_on_c, 0, 61, 0
1, 221070, Note_on_c, 0, 73, 0
1, 221070, Note_on_c, 0, 75, 69
1, 221070, Note_on_c, 0, 56, 70
1, 221081, Note_on_c, 0, 64, 0
1, 221084, Control_c, 0, 64, 127
1, 221115, Note_on_c, 0, 75, 0
1, 221115, Note_on_c, 0, 76, 69
1, 221138, Note_on_c, 0, 66, 61
1, 221149, Note_on_c, 0, 56, 0
1, 221160, Note_on_c, 0, 76, 0
1, 221160, Note_on_c, 0, 75, 69
1, 221203, Note_on_c, 0, 75, 0
1, 221203, Note_on_c, 0, 76, 69
1, 221206, Note_on_c, 0, 60, 66
1, 221217, Note_on_c, 0, 66, 0
1, 221246, Note_on_c, 0, 76, 0
1, 221246, Note_on_c, 0, 75, 69
1, 221274, Note_on_c, 0, 66, 61
1, 221286, Note_on_c, 0, 60, 0
1, 221286, Note_on_c, 0, 75, 0
1, 221286, Note_on_c, 0, 76, 69
1, 221331, Note_on_c, 0, 76, 0
1, 221331, Note_on_c, 0, 75, 68
1, 221342, Note_on_c, 0, 56, 70
1, 221354, Note_on_c, 0, 66, 0
1, 221371, Note_on_c, 0, 75, 0
1, 221371, Note_on_c, 0, 76, 68
1, 221411, Note_on_c, 0, 76, 0
1, 221411, Note_on_c, 0, 75, 69
1, 221411, Note_on_c, 0, 66, 62
1, 221422, Note_on_c, 0, 56, 0
1, 221445, Note_on_c, 0, 75, 0
1, 221445, Note_on_c, 0, 76, 70
1, 221479, Note_on_c, 0, 76, 0
1, 221479, Note_on_c, 0, 75, 71
1, 221479, Note_on_c, 0, 60, 66
1, 221490, Note_on_c, 0, 66, 0
1, 221513, Note_on_c, 0, 75, 0
1, 221513, Note_on_c, 0, 76, 71
1, 221547, Note_on_c, 0, 76, 0
1, 221547, Note_on_c, 0, 75, 72
1, 221547, Note_on_c, 0, 66, 60
1, 221558, Note_on_c, 0, 60, 0
1, 221581, Note_on_c, 0, 75, 0
1, 221615, Note_on_c, 0, 73, 77
1, 221615, Note_on_c, 0, 64, 77
1, 221615, Note_on_c, 0, 61, 77
1, 221618, Note_on_c, 0, 57, 77
1, 221629, Note_on_c, 0, 66, 0
1, 221632, Control_c, 0, 64, 0
1, 221777, Note_on_c, 0, 73, 0
1, 221777, Note_on_c, 0, 64, 0
1, 221777, Note_on_c, 0, 61, 0
1, 221780, Note_on_c, 0, 57, 0
1, 221939, Note_on_c, 0, 57, 100
1, 221939, Note_on_c, 0, 54, 86
1, 221939, Note_on_c, 0, 50, 86
1, 221942, Note_on_c, 0, 62, 100
1, 221942, Note_on_c, 0, 30, 80
1, 221942, Note_on_c, 0, 33, 80
1, 221945, Note_on_c, 0, 38, 93
1, 221945, Note_on_c, 0, 42, 93
1, 222276, Note_on_c, 0, 62, 0
1, 222276, Note_on_c, 0, 57, 0
1, 222276, Note_on_c, 0, 54, 0
1, 222279, Note_on_c, 0, 50, 0
1, 222279, Note_on_c, 0, 57, 67
1, 222344, Note_on_c, 0, 57, 0
1, 222344, Note_on_c, 0, 59, 67
1, 222411, Note_on_c, 0, 59, 0
1, 222411, Note_on_c, 0, 61, 68
1, 222478, Note_on_c, 0, 61, 0
1, 222478, Note_on_c, 0, 62, 69
1, 222478, Note_on_c, 0, 42, 0
1, 222481, Note_on_c, 0, 30, 0
1, 222481, Note_on_c, 0, 33, 0
1, 222481, Note_on_c, 0, 38, 0
1, 222546, Note_on_c, 0, 62, 0
1, 222546, Note_on_c, 0, 64, 70
1, 222613, Note_on_c, 0, 64, 0
1, 222613, Note_on_c, 0, 66, 71
1, 222680, Note_on_c, 0, 66, 0
1, 222680, Note_on_c, 0, 64, 70
1, 222748, Note_on_c, 0, 64, 0
1, 222748, Note_on_c, 0, 62, 67
1, 222815, Note_on_c, 0, 62, 0
1, 222815, Note_on_c, 0, 57, 66
1, 222882, Note_on_c, 0, 57, 0
1, 222882, Note_on_c, 0, 59, 67
1, 222950, Note_on_c, 0, 59, 0
1, 222950, Note_on_c, 0, 61, 67
1, 223017, Note_on_c, 0, 61, 0
1, 223017, Note_on_c, 0, 62, 68
1, 223017, Note_on_c, 0, 50, 68
1, 223020, Note_on_c, 0, 45, 59
1, 223020, Note_on_c, 0, 42, 59
1, 223085, Note_on_c, 0, 62, 0
1, 223085, Note_on_c, 0, 64, 69
1, 223152, Note_on_c, 0, 64, 0
1, 223152, Note_on_c, 0, 66, 70
1, 223219, Note_on_c, 0, 66, 0
1, 223219, Note_on_c, 0, 64, 67
1, 223287, Note_on_c, 0, 64, 0
1, 223287, Note_on_c, 0, 62, 67
1, 223287, Note_on_c, 0, 42, 0
1, 223290, Note_on_c, 0, 45, 0
1, 223290, Note_on_c, 0, 50, 0
1, 223354, Note_on_c, 0, 62, 0
1, 223354, Note_on_c, 0, 57, 67
1, 223421, Note_on_c, 0, 57, 0
1, 223421, Note_on_c, 0, 59, 67
1, 223489, Note_on_c, 0, 59, 0
1, 223489, Note_on_c, 0, 61, 69
1, 223556, Note_on_c, 0, 61, 0
1, 223556, Note_on_c, 0, 62, 69
1, 223556, Note_on_c, 0, 50, 68
1, 223559, Note_on_c, 0, 42, 59
1, 223559, Note_on_c, 0, 45, 59
1, 223623, Note_on_c, 0, 62, 0
1, 223623, Note_on_c, 0, 64, 69
1, 223691, Note_on_c, 0, 64, 0
1, 223691, Note_on_c, 0, 66, 69
1, 223758, Note_on_c, 0, 66, 0
1, 223758, Note_on_c, 0, 64, 69
1, 223826, Note_on_c, 0, 64, 0
1, 223826, Note_on_c, 0, 62, 68
1, 223826, Note_on_c, 0, 45, 0
1, 223829, Note_on_c, 0, 42, 0
1, 223829, Note_on_c, 0, 50, 0
1, 223893, Note_on_c, 0, 62, 0
1, 223893, Note_on_c, 0, 57, 70
1, 223960, Note_on_c, 0, 57, 0
1, 223960, Note_on_c, 0, 59, 71
1, 223960, Note_on_c, 0, 50, 70
1, 223963, Note_on_c, 0, 45, 61
1, 223963, Note_on_c, 0, 42, 61
1, 224028, Note_on_c, 0, 59, 0
1, 224028, Note_on_c, 0, 61, 73
1, 224095, Note_on_c, 0, 61, 0
1, 224095, Note_on_c, 0, 62, 76
1, 224095, Note_on_c, 0, 42, 0
1, 224098, Note_on_c, 0, 45, 0
1, 224098, Note_on_c, 0, 50, 0
1, 224162, Note_on_c, 0, 62, 0
1, 224162, Note_on_c, 0, 64, 77
1, 224230, Note_on_c, 0, 64, 0
1, 224230, Note_on_c, 0, 66, 78
1, 224230, Note_on_c, 0, 50, 82
1, 224233, Note_on_c, 0, 45, 71
1, 224233, Note_on_c, 0, 42, 71
1, 224297, Note_on_c, 0, 66, 0
1, 224297, Note_on_c, 0, 67, 80
1, 224364, Note_on_c, 0, 67, 0
1, 224364, Note_on_c, 0, 69, 82
1, 224364, Note_on_c, 0, 42, 0
1, 224367, Note_on_c, 0, 45, 0
1, 224367, Note_on_c, 0, 50, 0
1, 224432, Note_on_c, 0, 69, 0
1, 224432, Note_on_c, 0, 71, 84
1, 224499, Note_on_c, 0, 71, 0
1, 224499, Note_on_c, 0, 73, 85
1, 224499, Note_on_c, 0, 45, 78
1, 224502, Note_on_c, 0, 50, 90
1, 224502, Note_on_c, 0, 42, 78
1, 224567, Note_on_c, 0, 73, 0
1, 224567, Note_on_c, 0, 74, 88
1, 224634, Note_on_c, 0, 74, 0
1, 224634, Note_on_c, 0, 76, 90
1, 224634, Note_on_c, 0, 42, 0
1, 224637, Note_on_c, 0, 50, 0
1, 224637, Note_on_c, 0, 45, 0
1, 224701, Note_on_c, 0, 76, 0
1, 224701, Note_on_c, 0, 78, 91
1, 224769, Note_on_c, 0, 78, 0
1, 224769, Note_on_c, 0, 79, 93
1, 224769, Note_on_c, 0, 42, 78
1, 224772, Note_on_c, 0, 50, 90
1, 224772, Note_on_c, 0, 45, 78
1, 224836, Note_on_c, 0, 79, 0
1, 224836, Note_on_c, 0, 80, 95
1, 224903, Note_on_c, 0, 80, 0
1, 224903, Note_on_c, 0, 81, 103
1, 224903, Note_on_c, 0, 69, 89
1, 224906, Note_on_c, 0, 45, 0
1, 224906, Note_on_c, 0, 50, 0
1, 224906, Note_on_c, 0, 42, 0
1, 224909, Note_on_c, 0, 42, 88
1, 224971, Note_on_c, 0, 50, 76
1, 224982, Note_on_c, 0, 42, 0
1, 225038, Note_on_c, 0, 45, 83
1, 225049, Note_on_c, 0, 50, 0
1, 225105, Note_on_c, 0, 50, 77
1, 225117, Note_on_c, 0, 45, 0
1, 225173, Note_on_c, 0, 42, 88
1, 225184, Note_on_c, 0, 50, 0
1, 225240, Note_on_c, 0, 50, 76
1, 225251, Note_on_c, 0, 42, 0
1, 225308, Note_on_c, 0, 45, 82
1, 225319, Note_on_c, 0, 50, 0
1, 225375, Note_on_c, 0, 50, 74
1, 225386, Note_on_c, 0, 45, 0
1, 225442, Note_on_c, 0, 69, 0
1, 225442, Note_on_c, 0, 81, 0
1, 225442, Note_on_c, 0, 73, 101
1, 225445, Note_on_c, 0, 61, 87
1, 225445, Note_on_c, 0, 43, 88
1, 225453, Note_on_c, 0, 50, 0
1, 225510, Note_on_c, 0, 52, 77
1, 225521, Note_on_c, 0, 43, 0
1, 225577, Note_on_c, 0, 46, 83
1, 225588, Note_on_c, 0, 52, 0
1, 225644, Note_on_c, 0, 52, 76
1, 225656, Note_on_c, 0, 46, 0
1, 225712, Note_on_c, 0, 43, 88
1, 225723, Note_on_c, 0, 52, 0
1, 225779, Note_on_c, 0, 52, 74
1, 225790, Note_on_c, 0, 43, 0
1, 225846, Note_on_c, 0, 46, 81
1, 225858, Note_on_c, 0, 52, 0
1, 225914, Note_on_c, 0, 52, 74
1, 225925, Note_on_c, 0, 46, 0
1, 225981, Note_on_c, 0, 61, 0
1, 225981, Note_on_c, 0, 73, 0
1, 225981, Note_on_c, 0, 76, 101
1, 225984, Note_on_c, 0, 64, 87
1, 225984, Note_on_c, 0, 44, 88
1, 225992, Note_on_c, 0, 52, 0
1, 226048, Note_on_c, 0, 52, 79
1, 226060, Note_on_c, 0, 44, 0
1, 226116, Note_on_c, 0, 49, 83
1, 226127, Note_on_c, 0, 52, 0
1, 226183, Note_on_c, 0, 52, 77
1, 226194, Note_on_c, 0, 49, 0
1, 226251, Note_on_c, 0, 44, 88
1, 226262, Note_on_c, 0, 52, 0
1, 226318, Note_on_c, 0, 52, 77
1, 226329, Note_on_c, 0, 44, 0
1, 226385, Note_on_c, 0, 49, 83
1, 226397, Note_on_c, 0, 52, 0
1, 226453, Note_on_c, 0, 52, 78
1, 226464, Note_on_c, 0, 49, 0
1, 226520, Note_on_c, 0, 64, 0
1, 226520, Note_on_c, 0, 76, 0
1, 226520, Note_on_c, 0, 60, 101
1, 226523, Note_on_c, 0, 48, 87
1, 226523, Note_on_c, 0, 54, 87
1, 226523, Note_on_c, 0, 32, 88
1, 226531, Note_on_c, 0, 52, 0
1, 226588, Note_on_c, 0, 44, 78
1, 226600, Note_on_c, 0, 32, 0
1, 226656, Note_on_c, 0, 43, 84
1, 226668, Note_on_c, 0, 44, 0
1, 226725, Note_on_c, 0, 44, 78
1, 226736, Note_on_c, 0, 43, 0
1, 226793, Note_on_c, 0, 32, 88
1, 226804, Note_on_c, 0, 44, 0
1, 226861, Note_on_c, 0, 44, 78
1, 226872, Note_on_c, 0, 32, 0
1, 226929, Note_on_c, 0, 43, 84
1, 226941, Note_on_c, 0, 44, 0
1, 226998, Note_on_c, 0, 44, 79
1, 227009, Note_on_c, 0, 43, 0
1, 227066, Note_on_c, 0, 54, 0
1, 227066, Note_on_c, 0, 48, 0
1, 227066, Note_on_c, 0, 60, 0
1, 227069, Note_on_c, 0, 37, 80
1, 227069, Note_on_c, 0, 49, 80
1, 227069, Note_on_c, 0, 52, 80
1, 227072, Note_on_c, 0, 61, 80
1, 227077, Note_on_c, 0, 44, 0
1, 227200, Note_on_c, 0, 56, 67
1, 227200, Note_on_c, 0, 64, 67
1, 227200, Note_on_c, 0, 52, 0
1, 227203, Note_on_c, 0, 37, 0
1, 227203, Note_on_c, 0, 49, 0
1, 227203, Note_on_c, 0, 61, 0
1, 227206, Note_on_c, 0, 49, 58
1, 227268, Note_on_c, 0, 64, 0
1, 227268, Note_on_c, 0, 56, 0
1, 227268, Note_on_c, 0, 49, 0
1, 227335, Note_on_c, 0, 64, 67
1, 227335, Note_on_c, 0, 56, 67
1, 227335, Note_on_c, 0, 49, 58
1, 227403, Note_on_c, 0, 56, 0
1, 227403, Note_on_c, 0, 64, 0
1, 227403, Note_on_c, 0, 49, 0
1, 227472, Note_on_c, 0, 56, 67
1, 227472, Note_on_c, 0, 64, 67
1, 227472, Note_on_c, 0, 49, 58
1, 227540, Note_on_c, 0, 64, 0
1, 227540, Note_on_c, 0, 56, 0
1, 227540, Note_on_c, 0, 49, 0
1, 227608, Note_on_c, 0, 56, 67
1, 227608, Note_on_c, 0, 64, 67
1, 227608, Note_on_c, 0, 49, 58
1, 227676, Note_on_c, 0, 64, 0
1, 227676, Note_on_c, 0, 56, 0
1, 227676, Note_on_c, 0, 49, 0
1, 227744, Note_on_c, 0, 64, 67
1, 227744, Note_on_c, 0, 56, 67
1, 227744, Note_on_c, 0, 49, 58
1, 227813, Note_on_c, 0, 56, 0
1, 227813, Note_on_c, 0, 64, 0
1, 227813, Note_on_c, 0, 49, 0
1, 227881, Note_on_c, 0, 63, 65
1, 227881, Note_on_c, 0, 56, 65
1, 227881, Note_on_c, 0, 51, 57
1, 227949, Note_on_c, 0, 56, 0
1, 227949, Note_on_c, 0, 63, 0
1, 227949, Note_on_c, 0, 51, 0
1, 228017, Note_on_c, 0, 56, 63
1, 228017, Note_on_c, 0, 61, 63
1, 228017, Note_on_c, 0, 52, 56
1, 228086, Note_on_c, 0, 61, 0
1, 228086, Note_on_c, 0, 56, 0
1, 228086, Note_on_c, 0, 52, 0
1, 228154, Note_on_c, 0, 56, 73
1, 228154, Note_on_c, 0, 60, 73
1, 228154, Note_on_c, 0, 42, 63
1, 228157, Note_on_c, 0, 54, 63
1, 228290, Note_on_c, 0, 60, 0
1, 228290, Note_on_c, 0, 56, 0
1, 228290, Note_on_c, 0, 60, 67
1, 228293, Note_on_c, 0, 68, 67
1, 228293, Note_on_c, 0, 54, 0
1, 228293, Note_on_c, 0, 42, 0
1, 228296, Note_on_c, 0, 56, 57
1, 228296, Note_on_c, 0, 54, 57
1, 228427, Note_on_c, 0, 68, 0
1, 228427, Note_on_c, 0, 60, 0
1, 228427, Note_on_c, 0, 68, 67
1, 228430, Note_on_c, 0, 60, 67
1, 228430, Note_on_c, 0, 54, 0
1, 228430, Note_on_c, 0, 56, 0
1, 228433, Note_on_c, 0, 56, 57
1, 228433, Note_on_c, 0, 54, 57
1, 228561, Note_on_c, 0, 60, 0
1, 228561, Note_on_c, 0, 68, 0
1, 228561, Note_on_c, 0, 60, 67
1, 228564, Note_on_c, 0, 68, 67
1, 228564, Note_on_c, 0, 54, 0
1, 228564, Note_on_c, 0, 56, 0
1, 228567, Note_on_c, 0, 56, 57
1, 228567, Note_on_c, 0, 54, 57
1, 228696, Note_on_c, 0, 68, 0
1, 228696, Note_on_c, 0, 60, 0
1, 228696, Note_on_c, 0, 68, 67
1, 228699, Note_on_c, 0, 60, 67
1, 228699, Note_on_c, 0, 54, 0
1, 228699, Note_on_c, 0, 56, 0
1, 228702, Note_on_c, 0, 54, 57
1, 228702, Note_on_c, 0, 56, 57
1, 228831, Note_on_c, 0, 60, 0
1, 228831, Note_on_c, 0, 68, 0
1, 228831, Note_on_c, 0, 60, 67
1, 228834, Note_on_c, 0, 68, 67
1, 228834, Note_on_c, 0, 56, 0
1, 228834, Note_on_c, 0, 54, 0
1, 228837, Note_on_c, 0, 54, 57
1, 228837, Note_on_c, 0, 56, 57
1, 228965, Note_on_c, 0, 68, 0
1, 228965, Note_on_c, 0, 60, 0
1, 228965, Note_on_c, 0, 61, 67
1, 228968, Note_on_c, 0, 68, 67
1, 228968, Note_on_c, 0, 56, 0
1, 228968, Note_on_c, 0, 54, 0
1, 228971, Note_on_c, 0, 56, 57
1, 228971, Note_on_c, 0, 52, 57
1, 229100, Note_on_c, 0, 68, 0
1, 229100, Note_on_c, 0, 61, 0
1, 229100, Note_on_c, 0, 68, 71
1, 229103, Note_on_c, 0, 63, 71
1, 229103, Note_on_c, 0, 52, 0
1, 229103, Note_on_c, 0, 56, 0
1, 229106, Note_on_c, 0, 51, 60
1, 229106, Note_on_c, 0, 56, 60
1, 229235, Note_on_c, 0, 63, 0
1, 229235, Note_on_c, 0, 68, 0
1, 229235, Note_on_c, 0, 68, 80
1, 229238, Note_on_c, 0, 64, 80
1, 229238, Note_on_c, 0, 56, 0
1, 229238, Note_on_c, 0, 51, 0
1, 229241, Note_on_c, 0, 49, 63
1, 229241, Note_on_c, 0, 37, 63
1, 229370, Note_on_c, 0, 64, 0
1, 229370, Note_on_c, 0, 68, 0
1, 229370, Note_on_c, 0, 64, 67
1, 229373, Note_on_c, 0, 56, 67
1, 229373, Note_on_c, 0, 37, 0
1, 229373, Note_on_c, 0, 49, 0
1, 229376, Note_on_c, 0, 49, 56
1, 229504, Note_on_c, 0, 56, 0
1, 229504, Note_on_c, 0, 64, 0
1, 229504, Note_on_c, 0, 56, 67
1, 229507, Note_on_c, 0, 64, 67
1, 229507, Note_on_c, 0, 49, 0
1, 229507, Note_on_c, 0, 49, 57
1, 229641, Note_on_c, 0, 64, 0
1, 229641, Note_on_c, 0, 56, 0
1, 229641, Note_on_c, 0, 64, 68
1, 229644, Note_on_c, 0, 56, 68
1, 229644, Note_on_c, 0, 49, 0
1, 229644, Note_on_c, 0, 49, 57
1, 229777, Note_on_c, 0, 56, 0
1, 229777, Note_on_c, 0, 64, 0
1, 229777, Note_on_c, 0, 56, 68
1, 229780, Note_on_c, 0, 64, 68
1, 229780, Note_on_c, 0, 49, 0
1, 229780, Note_on_c, 0, 49, 57
1, 229914, Note_on_c, 0, 64, 0
1, 229914, Note_on_c, 0, 56, 0
1, 229914, Note_on_c, 0, 64, 68
1, 229917, Note_on_c, 0, 56, 68
1, 229917, Note_on_c, 0, 49, 0
1, 229917, Note_on_c, 0, 49, 58
1, 230050, Note_on_c, 0, 56, 0
1, 230050, Note_on_c, 0, 64, 0
1, 230050, Note_on_c, 0, 63, 66
1, 230053, Note_on_c, 0, 56, 66
1, 230053, Note_on_c, 0, 49, 0
1, 230053, Note_on_c, 0, 51, 56
1, 230187, Note_on_c, 0, 56, 0
1, 230187, Note_on_c, 0, 63, 0
1, 230187, Note_on_c, 0, 61, 67
1, 230190, Note_on_c, 0, 56, 67
1, 230190, Note_on_c, 0, 51, 0
1, 230190, Note_on_c, 0, 52, 56
1, 230323, Note_on_c, 0, 56, 0
1, 230323, Note_on_c, 0, 61, 0
1, 230323, Note_on_c, 0, 56, 80
1, 230326, Note_on_c, 0, 60, 80
1, 230326, Note_on_c, 0, 52, 0
1, 230326, Note_on_c, 0, 54, 66
1, 230329, Note_on_c, 0, 44, 66
1, 230459, Note_on_c, 0, 60, 0
1, 230459, Note_on_c, 0, 56, 0
1, 230459, Note_on_c, 0, 68, 66
1, 230462, Note_on_c, 0, 60, 66
1, 230462, Note_on_c, 0, 44, 0
1, 230462, Note_on_c, 0, 54, 0
1, 230465, Note_on_c, 0, 56, 56
1, 230465, Note_on_c, 0, 54, 56
1, 230596, Note_on_c, 0, 60, 0
1, 230596, Note_on_c, 0, 68, 0
1, 230596, Note_on_c, 0, 60, 66
1, 230599, Note_on_c, 0, 68, 66
1, 230599, Note_on_c, 0, 54, 0
1, 230599, Note_on_c, 0, 56, 0
1, 230602, Note_on_c, 0, 54, 57
1, 230602, Note_on_c, 0, 56, 57
1, 230731, Note_on_c, 0, 68, 0
1, 230731, Note_on_c, 0, 60, 0
1, 230731, Note_on_c, 0, 68, 66
1, 230734, Note_on_c, 0, 60, 66
1, 230734, Note_on_c, 0, 56, 0
1, 230734, Note_on_c, 0, 54, 0
1, 230737, Note_on_c, 0, 54, 57
1, 230737, Note_on_c, 0, 56, 57
1, 230865, Note_on_c, 0, 60, 0
1, 230865, Note_on_c, 0, 68, 0
1, 230865, Note_on_c, 0, 68, 66
1, 230868, Note_on_c, 0, 60, 66
1, 230868, Note_on_c, 0, 56, 0
1, 230868, Note_on_c, 0, 54, 0
1, 230871, Note_on_c, 0, 54, 57
1, 230871, Note_on_c, 0, 56, 57
1, 231000, Note_on_c, 0, 60, 0
1, 231000, Note_on_c, 0, 68, 0
1, 231000, Note_on_c, 0, 60, 66
1, 231003, Note_on_c, 0, 68, 66
1, 231003, Note_on_c, 0, 56, 0
1, 231003, Note_on_c, 0, 54, 0
1, 231006, Note_on_c, 0, 54, 57
1, 231006, Note_on_c, 0, 56, 57
1, 231135, Note_on_c, 0, 68, 0
1, 231135, Note_on_c, 0, 60, 0
1, 231135, Note_on_c, 0, 68, 66
1, 231138, Note_on_c, 0, 61, 66
1, 231138, Note_on_c, 0, 56, 0
1, 231138, Note_on_c, 0, 54, 0
1, 231141, Note_on_c, 0, 52, 59
1, 231141, Note_on_c, 0, 56, 59
1, 231269, Note_on_c, 0, 61, 0
1, 231269, Note_on_c, 0, 68, 0
1, 231269, Note_on_c, 0, 68, 71
1, 231272, Note_on_c, 0, 63, 71
1, 231272, Note_on_c, 0, 56, 0
1, 231272, Note_on_c, 0, 52, 0
1, 231275, Note_on_c, 0, 51, 61
1, 231275, Note_on_c, 0, 56, 61
1, 231404, Note_on_c, 0, 63, 0
1, 231404, Note_on_c, 0, 68, 0
1, 231404, Note_on_c, 0, 68, 82
1, 231407, Note_on_c, 0, 64, 82
1, 231407, Note_on_c, 0, 56, 0
1, 231407, Note_on_c, 0, 51, 0
1, 231410, Note_on_c, 0, 37, 66
1, 231473, Note_on_c, 0, 64, 0
1, 231473, Note_on_c, 0, 68, 0
1, 231473, Note_on_c, 0, 37, 0
1, 231541, Note_on_c, 0, 68, 66
1, 231541, Note_on_c, 0, 64, 66
1, 231541, Note_on_c, 0, 49, 58
1, 231544, Note_on_c, 0, 52, 58
1, 231609, Note_on_c, 0, 64, 0
1, 231609, Note_on_c, 0, 68, 0
1, 231609, Note_on_c, 0, 52, 0
1, 231612, Note_on_c, 0, 49, 0
1, 231676, Note_on_c, 0, 68, 67
1, 231676, Note_on_c, 0, 64, 67
1, 231676, Note_on_c, 0, 52, 58
1, 231679, Note_on_c, 0, 49, 58
1, 231692, Control_c, 0, 64, 127
1, 231811, Note_on_c, 0, 64, 0
1, 231811, Note_on_c, 0, 68, 0
1, 231811, Note_on_c, 0, 64, 63
1, 231814, Note_on_c, 0, 61, 63
1, 231814, Note_on_c, 0, 49, 0
1, 231814, Note_on_c, 0, 52, 0
1, 231817, Note_on_c, 0, 56, 56
1, 231817, Note_on_c, 0, 52, 56
1, 231859, Control_c, 0, 64, 0
1, 231946, Note_on_c, 0, 61, 0
1, 231946, Note_on_c, 0, 64, 0
1, 231946, Note_on_c, 0, 52, 0
1, 231949, Note_on_c, 0, 56, 0
1, 231949, Note_on_c, 0, 42, 67
1, 232014, Note_on_c, 0, 42, 0
1, 232083, Note_on_c, 0, 66, 67
1, 232083, Note_on_c, 0, 69, 67
1, 232083, Note_on_c, 0, 49, 58
1, 232086, Note_on_c, 0, 54, 58
1, 232150, Note_on_c, 0, 69, 0
1, 232150, Note_on_c, 0, 66, 0
1, 232150, Note_on_c, 0, 54, 0
1, 232153, Note_on_c, 0, 49, 0
1, 232214, Control_c, 0, 64, 127
1, 232218, Note_on_c, 0, 69, 67
1, 232218, Note_on_c, 0, 66, 67
1, 232218, Note_on_c, 0, 54, 58
1, 232221, Note_on_c, 0, 49, 58
1, 232352, Note_on_c, 0, 66, 0
1, 232352, Note_on_c, 0, 69, 0
1, 232352, Note_on_c, 0, 61, 65
1, 232355, Note_on_c, 0, 66, 65
1, 232355, Note_on_c, 0, 49, 0
1, 232355, Note_on_c, 0, 54, 0
1, 232358, Note_on_c, 0, 57, 56
1, 232358, Note_on_c, 0, 54, 56
1, 232432, Control_c, 0, 64, 0
1, 232487, Note_on_c, 0, 66, 0
1, 232487, Note_on_c, 0, 61, 0
1, 232487, Note_on_c, 0, 54, 0
1, 232490, Note_on_c, 0, 57, 0
1, 232490, Note_on_c, 0, 44, 67
1, 232556, Note_on_c, 0, 44, 0
1, 232625, Note_on_c, 0, 68, 66
1, 232625, Note_on_c, 0, 64, 66
1, 232625, Note_on_c, 0, 52, 57
1, 232628, Note_on_c, 0, 49, 57
1, 232693, Note_on_c, 0, 64, 0
1, 232693, Note_on_c, 0, 68, 0
1, 232693, Note_on_c, 0, 49, 0
1, 232696, Note_on_c, 0, 52, 0
1, 232760, Note_on_c, 0, 68, 66
1, 232760, Note_on_c, 0, 64, 66
1, 232760, Note_on_c, 0, 49, 57
1, 232763, Note_on_c, 0, 52, 57
1, 232770, Control_c, 0, 64, 127
1, 232895, Note_on_c, 0, 64, 0
1, 232895, Note_on_c, 0, 68, 0
1, 232895, Note_on_c, 0, 64, 65
1, 232898, Note_on_c, 0, 61, 65
1, 232898, Note_on_c, 0, 52, 0
1, 232898, Note_on_c, 0, 49, 0
1, 232901, Note_on_c, 0, 52, 56
1, 232901, Note_on_c, 0, 56, 56
1, 232953, Control_c, 0, 64, 0
1, 233029, Note_on_c, 0, 61, 0
1, 233029, Note_on_c, 0, 64, 0
1, 233029, Note_on_c, 0, 56, 0
1, 233032, Note_on_c, 0, 52, 0
1, 233032, Note_on_c, 0, 44, 67
1, 233100, Note_on_c, 0, 44, 0
1, 233171, Note_on_c, 0, 68, 66
1, 233171, Note_on_c, 0, 63, 66
1, 233171, Note_on_c, 0, 51, 57
1, 233174, Note_on_c, 0, 48, 57
1, 233238, Note_on_c, 0, 63, 0
1, 233238, Note_on_c, 0, 68, 0
1, 233238, Note_on_c, 0, 48, 0
1, 233241, Note_on_c, 0, 51, 0
1, 233306, Note_on_c, 0, 68, 66
1, 233306, Note_on_c, 0, 63, 66
1, 233306, Note_on_c, 0, 48, 57
1, 233309, Note_on_c, 0, 51, 57
1, 233318, Control_c, 0, 64, 127
1, 233440, Note_on_c, 0, 63, 0
1, 233440, Note_on_c, 0, 68, 0
1, 233440, Note_on_c, 0, 60, 63
1, 233443, Note_on_c, 0, 63, 63
1, 233443, Note_on_c, 0, 51, 0
1, 233443, Note_on_c, 0, 48, 0
1, 233446, Note_on_c, 0, 56, 55
1, 233446, Note_on_c, 0, 51, 55
1, 233546, Control_c, 0, 64, 0
1, 233575, Note_on_c, 0, 63, 0
1, 233575, Note_on_c, 0, 60, 0
1, 233575, Note_on_c, 0, 61, 80
1, 233578, Note_on_c, 0, 64, 80
1, 233578, Note_on_c, 0, 51, 0
1, 233578, Note_on_c, 0, 56, 0
1, 233581, Note_on_c, 0, 49, 68
1, 233581, Note_on_c, 0, 37, 68
1, 233712, Note_on_c, 0, 64, 0
1, 233712, Note_on_c, 0, 61, 0
1, 233712, Note_on_c, 0, 64, 66
1, 233715, Note_on_c, 0, 68, 66
1, 233715, Note_on_c, 0, 76, 66
1, 233715, Note_on_c, 0, 37, 0
1, 233718, Note_on_c, 0, 49, 0
1, 233718, Note_on_c, 0, 49, 57
1, 233718, Note_on_c, 0, 56, 57
1, 233807, Control_c, 0, 64, 127
1, 233847, Note_on_c, 0, 76, 0
1, 233847, Note_on_c, 0, 68, 0
1, 233847, Note_on_c, 0, 64, 0
1, 233850, Note_on_c, 0, 64, 66
1, 233850, Note_on_c, 0, 68, 66
1, 233850, Note_on_c, 0, 76, 66
1, 233853, Note_on_c, 0, 56, 0
1, 233853, Note_on_c, 0, 49, 0
1, 233853, Note_on_c, 0, 56, 60
1, 233856, Note_on_c, 0, 49, 60
1, 233982, Note_on_c, 0, 76, 0
1, 233982, Note_on_c, 0, 68, 0
1, 233982, Note_on_c, 0, 64, 0
1, 233985, Note_on_c, 0, 76, 66
1, 233985, Note_on_c, 0, 68, 66
1, 233985, Note_on_c, 0, 64, 66
1, 233988, Note_on_c, 0, 49, 0
1, 233988, Note_on_c, 0, 56, 0
1, 233988, Note_on_c, 0, 56, 59
1, 233991, Note_on_c, 0, 49, 59
1, 234116, Note_on_c, 0, 64, 0
1, 234116, Note_on_c, 0, 68, 0
1, 234116, Note_on_c, 0, 76, 0
1, 234119, Note_on_c, 0, 68, 66
1, 234119, Note_on_c, 0, 64, 66
1, 234119, Note_on_c, 0, 76, 66
1, 234122, Note_on_c, 0, 49, 0
1, 234122, Note_on_c, 0, 56, 0
1, 234122, Note_on_c, 0, 49, 57
1, 234125, Note_on_c, 0, 56, 57
1, 234251, Note_on_c, 0, 76, 0
1, 234251, Note_on_c, 0, 64, 0
1, 234251, Note_on_c, 0, 68, 0
1, 234254, Note_on_c, 0, 68, 66
1, 234254, Note_on_c, 0, 64, 66
1, 234254, Note_on_c, 0, 76, 66
1, 234257, Note_on_c, 0, 56, 0
1, 234257, Note_on_c, 0, 49, 0
1, 234257, Note_on_c, 0, 49, 57
1, 234260, Note_on_c, 0, 56, 57
1, 234322, Control_c, 0, 64, 0
1, 234386, Note_on_c, 0, 76, 0
1, 234386, Note_on_c, 0, 64, 0
1, 234386, Note_on_c, 0, 68, 0
1, 234389, Note_on_c, 0, 75, 69
1, 234389, Note_on_c, 0, 63, 69
1, 234389, Note_on_c, 0, 66, 69
1, 234392, Note_on_c, 0, 56, 0
1, 234392, Note_on_c, 0, 49, 0
1, 234392, Note_on_c, 0, 56, 59
1, 234395, Note_on_c, 0, 51, 59
1, 234417, Control_c, 0, 64, 127
1, 234521, Note_on_c, 0, 66, 0
1, 234521, Note_on_c, 0, 63, 0
1, 234521, Note_on_c, 0, 75, 0
1, 234524, Note_on_c, 0, 61, 72
1, 234524, Note_on_c, 0, 64, 72
1, 234524, Note_on_c, 0, 73, 72
1, 234527, Note_on_c, 0, 51, 0
1, 234527, Note_on_c, 0, 56, 0
1, 234527, Control_c, 0, 64, 0
1, 234530, Note_on_c, 0, 56, 62
1, 234530, Note_on_c, 0, 52, 62
1, 234552, Control_c, 0, 64, 127
1, 234655, Note_on_c, 0, 73, 0
1, 234655, Note_on_c, 0, 64, 0
1, 234655, Note_on_c, 0, 61, 0
1, 234658, Note_on_c, 0, 63, 79
1, 234658, Note_on_c, 0, 72, 79
1, 234658, Note_on_c, 0, 60, 79
1, 234661, Note_on_c, 0, 52, 0
1, 234661, Note_on_c, 0, 56, 0
1, 234661, Control_c, 0, 64, 0
1, 234664, Note_on_c, 0, 44, 66
1, 234664, Note_on_c, 0, 56, 66
1, 234664, Note_on_c, 0, 54, 66
1, 234675, Control_c, 0, 64, 127
1, 234747, Control_c, 0, 64, 0
1, 234792, Note_on_c, 0, 60, 0
1, 234792, Note_on_c, 0, 72, 0
1, 234792, Note_on_c, 0, 63, 0
1, 234795, Note_on_c, 0, 75, 98
1, 234795, Note_on_c, 0, 72, 98
1, 234795, Note_on_c, 0, 84, 98
1, 234798, Note_on_c, 0, 54, 0
1, 234798, Note_on_c, 0, 56, 0
1, 234798, Note_on_c, 0, 44, 0
1, 234801, Note_on_c, 0, 66, 73
1, 234801, Note_on_c, 0, 56, 73
1, 234817, Control_c, 0, 64, 127
1, 234927, Note_on_c, 0, 84, 0
1, 234927, Note_on_c, 0, 72, 0
1, 234927, Note_on_c, 0, 75, 0
1, 234930, Note_on_c, 0, 84, 104
1, 234930, Note_on_c, 0, 75, 104
1, 234930, Note_on_c, 0, 72, 104
1, 234933, Note_on_c, 0, 56, 0
1, 234933, Note_on_c, 0, 66, 0
1, 234933, Note_on_c, 0, 66, 84
1, 234936, Note_on_c, 0, 56, 84
1, 235063, Note_on_c, 0, 72, 0
1, 235063, Note_on_c, 0, 75, 0
1, 235063, Note_on_c, 0, 84, 0
1, 235066, Note_on_c, 0, 84, 96
1, 235066, Note_on_c, 0, 75, 96
1, 235066, Note_on_c, 0, 72, 96
1, 235069, Note_on_c, 0, 56, 0
1, 235069, Note_on_c, 0, 66, 0
1, 235069, Note_on_c, 0, 56, 78
1, 235072, Note_on_c, 0, 66, 78
1, 235199, Note_on_c, 0, 72, 0
1, 235199, Note_on_c, 0, 75, 0
1, 235199, Note_on_c, 0, 84, 0
1, 235202, Note_on_c, 0, 84, 104
1, 235202, Note_on_c, 0, 75, 104
1, 235202, Note_on_c, 0, 72, 104
1, 235205, Note_on_c, 0, 66, 0
1, 235205, Note_on_c, 0, 56, 0
1, 235205, Note_on_c, 0, 56, 83
1, 235208, Note_on_c, 0, 66, 83
1, 235336, Note_on_c, 0, 72, 0
1, 235336, Note_on_c, 0, 75, 0
1, 235336, Note_on_c, 0, 84, 0
1, 235339, Note_on_c, 0, 72, 98
1, 235339, Note_on_c, 0, 84, 98
1, 235339, Note_on_c, 0, 75, 98
1, 235342, Note_on_c, 0, 66, 0
1, 235342, Note_on_c, 0, 56, 0
1, 235342, Note_on_c, 0, 66, 78
1, 235345, Note_on_c, 0, 56, 78
1, 235363, Control_c, 0, 64, 0
1, 235474, Note_on_c, 0, 75, 0
1, 235474, Note_on_c, 0, 84, 0
1, 235474, Note_on_c, 0, 72, 0
1, 235477, Note_on_c, 0, 76, 106
1, 235477, Note_on_c, 0, 73, 106
1, 235477, Note_on_c, 0, 85, 106
1, 235480, Note_on_c, 0, 56, 0
1, 235480, Note_on_c, 0, 66, 0
1, 235480, Note_on_c, 0, 56, 84
1, 235483, Note_on_c, 0, 64, 84
1, 235501, Control_c, 0, 64, 127
1, 235586, Control_c, 0, 64, 0
1, 235613, Note_on_c, 0, 85, 0
1, 235613, Note_on_c, 0, 73, 0
1, 235613, Note_on_c, 0, 76, 0
1, 235616, Note_on_c, 0, 78, 101
1, 235616, Note_on_c, 0, 75, 101
1, 235616, Note_on_c, 0, 87, 101
1, 235619, Note_on_c, 0, 64, 0
1, 235619, Note_on_c, 0, 56, 0
1, 235619, Note_on_c, 0, 63, 78
1, 235622, Note_on_c, 0, 56, 78
1, 235640, Control_c, 0, 64, 127
1, 235753, Note_on_c, 0, 87, 0
1, 235753, Note_on_c, 0, 75, 0
1, 235753, Note_on_c, 0, 78, 0
1, 235756, Note_on_c, 0, 88, 114
1, 235756, Note_on_c, 0, 76, 114
1, 235756, Note_on_c, 0, 80, 114
1, 235759, Note_on_c, 0, 56, 0
1, 235759, Note_on_c, 0, 63, 0
1, 235759, Control_c, 0, 64, 0
1, 235762, Note_on_c, 0, 37, 83
1, 235762, Note_on_c, 0, 49, 83
1, 235892, Note_on_c, 0, 80, 0
1, 235892, Note_on_c, 0, 76, 0
1, 235892, Note_on_c, 0, 68, 66
1, 235895, Note_on_c, 0, 76, 66
1, 235895, Note_on_c, 0, 64, 66
1, 235895, Note_on_c, 0, 49, 0
1, 235898, Note_on_c, 0, 37, 0
1, 235898, Note_on_c, 0, 56, 57
1, 235898, Note_on_c, 0, 49, 57
1, 235964, Control_c, 0, 64, 127
1, 236028, Note_on_c, 0, 64, 0
1, 236028, Note_on_c, 0, 88, 0
1, 236028, Note_on_c, 0, 68, 0
1, 236031, Note_on_c, 0, 76, 0
1, 236031, Note_on_c, 0, 64, 66
1, 236031, Note_on_c, 0, 76, 66
1, 236034, Note_on_c, 0, 68, 66
1, 236034, Note_on_c, 0, 49, 0
1, 236034, Note_on_c, 0, 56, 0
1, 236037, Note_on_c, 0, 56, 57
1, 236037, Note_on_c, 0, 49, 57
1, 236164, Note_on_c, 0, 68, 0
1, 236164, Note_on_c, 0, 76, 0
1, 236164, Note_on_c, 0, 64, 0
1, 236167, Note_on_c, 0, 64, 66
1, 236167, Note_on_c, 0, 68, 66
1, 236167, Note_on_c, 0, 76, 66
1, 236170, Note_on_c, 0, 49, 0
1, 236170, Note_on_c, 0, 56, 0
1, 236170, Note_on_c, 0, 56, 57
1, 236173, Note_on_c, 0, 49, 57
1, 236299, Note_on_c, 0, 76, 0
1, 236299, Note_on_c, 0, 68, 0
1, 236299, Note_on_c, 0, 64, 0
1, 236302, Note_on_c, 0, 64, 67
1, 236302, Note_on_c, 0, 68, 67
1, 236302, Note_on_c, 0, 76, 67
1, 236305, Note_on_c, 0, 49, 0
1, 236305, Note_on_c, 0, 56, 0
1, 236305, Note_on_c, 0, 49, 57
1, 236308, Note_on_c, 0, 56, 57
1, 236435, Note_on_c, 0, 76, 0
1, 236435, Note_on_c, 0, 68, 0
1, 236435, Note_on_c, 0, 64, 0
1, 236438, Note_on_c, 0, 68, 67
1, 236438, Note_on_c, 0, 76, 67
1, 236438, Note_on_c, 0, 64, 67
1, 236441, Note_on_c, 0, 56, 0
1, 236441, Note_on_c, 0, 49, 0
1, 236441, Note_on_c, 0, 49, 57
1, 236444, Note_on_c, 0, 56, 57
1, 236506, Control_c, 0, 64, 0
1, 236570, Note_on_c, 0, 64, 0
1, 236570, Note_on_c, 0, 76, 0
1, 236570, Note_on_c, 0, 68, 0
1, 236573, Note_on_c, 0, 63, 67
1, 236573, Note_on_c, 0, 66, 67
1, 236573, Note_on_c, 0, 75, 67
1, 236576, Note_on_c, 0, 56, 0
1, 236576, Note_on_c, 0, 49, 0
1, 236576, Control_c, 0, 64, 127
1, 236579, Note_on_c, 0, 51, 57
1, 236579, Note_on_c, 0, 56, 57
1, 236674, Control_c, 0, 64, 0
1, 236706, Note_on_c, 0, 75, 0
1, 236706, Note_on_c, 0, 66, 0
1, 236706, Note_on_c, 0, 63, 0
1, 236709, Note_on_c, 0, 64, 69
1, 236709, Note_on_c, 0, 73, 69
1, 236709, Note_on_c, 0, 61, 69
1, 236712, Note_on_c, 0, 56, 0
1, 236712, Note_on_c, 0, 51, 0
1, 236712, Note_on_c, 0, 56, 59
1, 236715, Note_on_c, 0, 52, 59
1, 236729, Control_c, 0, 64, 127
1, 236841, Note_on_c, 0, 61, 0
1, 236841, Note_on_c, 0, 73, 0
1, 236841, Note_on_c, 0, 64, 0
1, 236844, Note_on_c, 0, 72, 76
1, 236844, Note_on_c, 0, 60, 76
1, 236844, Note_on_c, 0, 63, 76
1, 236847, Note_on_c, 0, 52, 0
1, 236847, Note_on_c, 0, 56, 0
1, 236847, Control_c, 0, 64, 0
1, 236850, Note_on_c, 0, 44, 64
1, 236850, Note_on_c, 0, 56, 64
1, 236850, Note_on_c, 0, 54, 64
1, 236874, Control_c, 0, 64, 127
1, 236920, Control_c, 0, 64, 0
1, 236979, Note_on_c, 0, 63, 0
1, 236979, Note_on_c, 0, 60, 0
1, 236979, Note_on_c, 0, 72, 0
1, 236982, Note_on_c, 0, 72, 94
1, 236982, Note_on_c, 0, 75, 94
1, 236982, Note_on_c, 0, 84, 94
1, 236985, Note_on_c, 0, 54, 0
1, 236985, Note_on_c, 0, 56, 0
1, 236985, Note_on_c, 0, 44, 0
1, 236988, Note_on_c, 0, 66, 72
1, 236988, Note_on_c, 0, 56, 72
1, 237018, Control_c, 0, 64, 127
1, 237114, Note_on_c, 0, 84, 0
1, 237114, Note_on_c, 0, 75, 0
1, 237114, Note_on_c, 0, 72, 0
1, 237117, Note_on_c, 0, 84, 104
1, 237117, Note_on_c, 0, 75, 104
1, 237117, Note_on_c, 0, 72, 104
1, 237120, Note_on_c, 0, 56, 0
1, 237120, Note_on_c, 0, 66, 0
1, 237120, Note_on_c, 0, 56, 83
1, 237123, Note_on_c, 0, 66, 83
1, 237249, Note_on_c, 0, 72, 0
1, 237249, Note_on_c, 0, 75, 0
1, 237249, Note_on_c, 0, 84, 0
1, 237252, Note_on_c, 0, 75, 97
1, 237252, Note_on_c, 0, 84, 97
1, 237252, Note_on_c, 0, 72, 97
1, 237255, Note_on_c, 0, 66, 0
1, 237255, Note_on_c, 0, 56, 0
1, 237255, Note_on_c, 0, 66, 75
1, 237258, Note_on_c, 0, 56, 75
1, 237384, Note_on_c, 0, 72, 0
1, 237384, Note_on_c, 0, 84, 0
1, 237384, Note_on_c, 0, 75, 0
1, 237387, Note_on_c, 0, 75, 104
1, 237387, Note_on_c, 0, 84, 104
1, 237387, Note_on_c, 0, 72, 104
1, 237390, Note_on_c, 0, 56, 0
1, 237390, Note_on_c, 0, 66, 0
1, 237390, Note_on_c, 0, 56, 83
1, 237393, Note_on_c, 0, 66, 83
1, 237520, Note_on_c, 0, 72, 0
1, 237520, Note_on_c, 0, 84, 0
1, 237520, Note_on_c, 0, 75, 0
1, 237523, Note_on_c, 0, 84, 104
1, 237523, Note_on_c, 0, 72, 104
1, 237523, Note_on_c, 0, 75, 104
1, 237526, Note_on_c, 0, 66, 0
1, 237526, Note_on_c, 0, 56, 0
1, 237526, Note_on_c, 0, 66, 75
1, 237529, Note_on_c, 0, 56, 75
1, 237598, Control_c, 0, 64, 0
1, 237637, Control_c, 0, 64, 127
1, 237656, Note_on_c, 0, 75, 0
1, 237656, Note_on_c, 0, 72, 0
1, 237656, Note_on_c, 0, 84, 0
1, 237659, Note_on_c, 0, 73, 104
1, 237659, Note_on_c, 0, 76, 104
1, 237659, Note_on_c, 0, 85, 104
1, 237662, Note_on_c, 0, 56, 0
1, 237662, Note_on_c, 0, 66, 0
1, 237662, Note_on_c, 0, 64, 83
1, 237665, Note_on_c, 0, 56, 83
1, 237734, Control_c, 0, 64, 0
1, 237786, Control_c, 0, 64, 127
1, 237793, Note_on_c, 0, 85, 0
1, 237793, Note_on_c, 0, 76, 0
1, 237793, Note_on_c, 0, 73, 0
1, 237796, Note_on_c, 0, 87, 97
1, 237796, Note_on_c, 0, 75, 97
1, 237796, Note_on_c, 0, 78, 97
1, 237799, Note_on_c, 0, 56, 0
1, 237799, Note_on_c, 0, 64, 0
1, 237799, Note_on_c, 0, 56, 74
1, 237802, Note_on_c, 0, 63, 74
1, 237930, Note_on_c, 0, 78, 0
1, 237930, Note_on_c, 0, 75, 0
1, 237930, Note_on_c, 0, 87, 0
1, 237933, Note_on_c, 0, 76, 115
1, 237933, Note_on_c, 0, 80, 115
1, 237933, Note_on_c, 0, 88, 115
1, 237936, Note_on_c, 0, 63, 0
1, 237936, Note_on_c, 0, 56, 0
1, 237936, Control_c, 0, 64, 0
1, 237939, Note_on_c, 0, 61, 85
1, 237939, Note_on_c, 0, 49, 85
1, 238067, Note_on_c, 0, 88, 0
1, 238067, Note_on_c, 0, 80, 0
1, 238067, Note_on_c, 0, 76, 0
1, 238070, Note_on_c, 0, 80, 69
1, 238070, Note_on_c, 0, 85, 69
1, 238070, Note_on_c, 0, 49, 0
1, 238073, Note_on_c, 0, 61, 0
1, 238073, Note_on_c, 0, 61, 60
1, 238073, Note_on_c, 0, 64, 60
1, 238135, Note_on_c, 0, 85, 0
1, 238135, Note_on_c, 0, 80, 0
1, 238135, Note_on_c, 0, 64, 0
1, 238138, Note_on_c, 0, 61, 0
1, 238202, Note_on_c, 0, 85, 69
1, 238202, Note_on_c, 0, 80, 69
1, 238202, Note_on_c, 0, 64, 61
1, 238205, Note_on_c, 0, 61, 61
1, 238218, Control_c, 0, 64, 127
1, 238338, Note_on_c, 0, 80, 0
1, 238338, Note_on_c, 0, 85, 0
1, 238338, Note_on_c, 0, 80, 67
1, 238341, Note_on_c, 0, 76, 67
1, 238341, Note_on_c, 0, 61, 0
1, 238341, Note_on_c, 0, 64, 0
1, 238344, Note_on_c, 0, 68, 57
1, 238344, Note_on_c, 0, 64, 57
1, 238406, Control_c, 0, 64, 0
1, 238474, Note_on_c, 0, 76, 0
1, 238474, Note_on_c, 0, 80, 0
1, 238474, Note_on_c, 0, 64, 0
1, 238477, Note_on_c, 0, 68, 0
1, 238477, Note_on_c, 0, 54, 67
1, 238542, Note_on_c, 0, 54, 0
1, 238611, Note_on_c, 0, 85, 68
1, 238611, Note_on_c, 0, 81, 68
1, 238611, Note_on_c, 0, 66, 58
1, 238614, Note_on_c, 0, 61, 58
1, 238679, Note_on_c, 0, 81, 0
1, 238679, Note_on_c, 0, 85, 0
1, 238679, Note_on_c, 0, 61, 0
1, 238682, Note_on_c, 0, 66, 0
1, 238746, Note_on_c, 0, 81, 68
1, 238746, Note_on_c, 0, 85, 68
1, 238746, Note_on_c, 0, 66, 60
1, 238749, Note_on_c, 0, 61, 60
1, 238786, Control_c, 0, 64, 127
1, 238882, Note_on_c, 0, 85, 0
1, 238882, Note_on_c, 0, 81, 0
1, 238882, Note_on_c, 0, 78, 67
1, 238885, Note_on_c, 0, 81, 67
1, 238885, Note_on_c, 0, 61, 0
1, 238885, Note_on_c, 0, 66, 0
1, 238888, Note_on_c, 0, 66, 57
1, 238888, Note_on_c, 0, 69, 57
1, 238965, Control_c, 0, 64, 0
1, 239017, Note_on_c, 0, 81, 0
1, 239017, Note_on_c, 0, 78, 0
1, 239017, Note_on_c, 0, 69, 0
1, 239020, Note_on_c, 0, 66, 0
1, 239020, Note_on_c, 0, 56, 66
1, 239086, Note_on_c, 0, 56, 0
1, 239154, Note_on_c, 0, 80, 68
1, 239154, Note_on_c, 0, 76, 68
1, 239154, Note_on_c, 0, 61, 60
1, 239157, Note_on_c, 0, 64, 60
1, 239222, Note_on_c, 0, 76, 0
1, 239222, Note_on_c, 0, 80, 0
1, 239222, Note_on_c, 0, 64, 0
1, 239225, Note_on_c, 0, 61, 0
1, 239290, Note_on_c, 0, 76, 68
1, 239290, Note_on_c, 0, 80, 68
1, 239290, Note_on_c, 0, 64, 60
1, 239293, Note_on_c, 0, 61, 60
1, 239315, Control_c, 0, 64, 127
1, 239425, Note_on_c, 0, 80, 0
1, 239425, Note_on_c, 0, 76, 0
1, 239425, Note_on_c, 0, 73, 66
1, 239428, Note_on_c, 0, 76, 66
1, 239428, Note_on_c, 0, 61, 0
1, 239428, Note_on_c, 0, 64, 0
1, 239431, Note_on_c, 0, 68, 57
1, 239431, Note_on_c, 0, 64, 57
1, 239447, Control_c, 0, 64, 0
1, 239560, Note_on_c, 0, 76, 0
1, 239560, Note_on_c, 0, 73, 0
1, 239560, Note_on_c, 0, 64, 0
1, 239563, Note_on_c, 0, 68, 0
1, 239563, Note_on_c, 0, 54, 66
1, 239629, Note_on_c, 0, 54, 0
1, 239698, Note_on_c, 0, 75, 70
1, 239698, Note_on_c, 0, 80, 70
1, 239698, Note_on_c, 0, 63, 60
1, 239701, Note_on_c, 0, 60, 60
1, 239766, Note_on_c, 0, 80, 0
1, 239766, Note_on_c, 0, 75, 0
1, 239766, Note_on_c, 0, 60, 0
1, 239769, Note_on_c, 0, 63, 0
1, 239833, Note_on_c, 0, 80, 70
1, 239833, Note_on_c, 0, 75, 70
1, 239833, Note_on_c, 0, 63, 60
1, 239836, Note_on_c, 0, 60, 60
1, 239859, Control_c, 0, 64, 127
1, 239968, Note_on_c, 0, 75, 0
1, 239968, Note_on_c, 0, 80, 0
1, 239968, Note_on_c, 0, 72, 68
1, 239971, Note_on_c, 0, 75, 68
1, 239971, Note_on_c, 0, 60, 0
1, 239971, Note_on_c, 0, 63, 0
1, 239974, Note_on_c, 0, 63, 58
1, 239974, Note_on_c, 0, 68, 58
1, 240065, Control_c, 0, 64, 0
1, 240103, Note_on_c, 0, 75, 0
1, 240103, Note_on_c, 0, 72, 0
1, 240103, Note_on_c, 0, 68, 0
1, 240106, Note_on_c, 0, 63, 0
1, 240106, Note_on_c, 0, 52, 66
1, 240239, Note_on_c, 0, 76, 76
1, 240239, Note_on_c, 0, 80, 76
1, 240239, Note_on_c, 0, 52, 0
1, 240242, Note_on_c, 0, 61, 60
1, 240242, Note_on_c, 0, 56, 60
1, 240306, Note_on_c, 0, 80, 0
1, 240306, Note_on_c, 0, 76, 0
1, 240306, Note_on_c, 0, 56, 0
1, 240309, Note_on_c, 0, 61, 0
1, 240374, Note_on_c, 0, 76, 77
1, 240374, Note_on_c, 0, 80, 77
1, 240374, Note_on_c, 0, 61, 60
1, 240377, Note_on_c, 0, 56, 60
1, 240398, Control_c, 0, 64, 127
1, 240510, Note_on_c, 0, 80, 0
1, 240510, Note_on_c, 0, 76, 0
1, 240510, Note_on_c, 0, 68, 74
1, 240513, Note_on_c, 0, 76, 74
1, 240513, Note_on_c, 0, 56, 0
1, 240513, Note_on_c, 0, 61, 0
1, 240516, Note_on_c, 0, 64, 56
1, 240516, Note_on_c, 0, 61, 56
1, 240603, Control_c, 0, 64, 0
1, 240648, Note_on_c, 0, 76, 0
1, 240648, Note_on_c, 0, 68, 0
1, 240648, Note_on_c, 0, 61, 0
1, 240651, Note_on_c, 0, 64, 0
1, 240651, Note_on_c, 0, 42, 66
1, 240789, Note_on_c, 0, 78, 87
1, 240789, Note_on_c, 0, 69, 87
1, 240789, Note_on_c, 0, 42, 0
1, 240792, Note_on_c, 0, 57, 61
1, 240792, Note_on_c, 0, 54, 61
1, 240860, Note_on_c, 0, 69, 0
1, 240860, Note_on_c, 0, 78, 0
1, 240860, Note_on_c, 0, 54, 0
1, 240863, Note_on_c, 0, 57, 0
1, 240931, Note_on_c, 0, 78, 85
1, 240931, Note_on_c, 0, 69, 85
1, 240931, Note_on_c, 0, 54, 61
1, 240934, Note_on_c, 0, 57, 61
1, 240948, Control_c, 0, 64, 127
1, 241075, Note_on_c, 0, 69, 0
1, 241075, Note_on_c, 0, 78, 0
1, 241075, Note_on_c, 0, 74, 83
1, 241078, Note_on_c, 0, 66, 83
1, 241078, Note_on_c, 0, 57, 0
1, 241078, Note_on_c, 0, 54, 0
1, 241081, Note_on_c, 0, 62, 59
1, 241081, Note_on_c, 0, 57, 59
1, 241192, Control_c, 0, 64, 0
1, 241223, Note_on_c, 0, 66, 0
1, 241223, Note_on_c, 0, 74, 0
1, 241223, Note_on_c, 0, 57, 0
1, 241226, Note_on_c, 0, 62, 0
1, 241226, Note_on_c, 0, 44, 64
1, 241372, Note_on_c, 0, 76, 78
1, 241372, Note_on_c, 0, 68, 78
1, 241372, Note_on_c, 0, 44, 0
1, 241375, Note_on_c, 0, 56, 57
1, 241375, Note_on_c, 0, 52, 57
1, 241449, Note_on_c, 0, 68, 0
1, 241449, Note_on_c, 0, 76, 0
1, 241449, Note_on_c, 0, 52, 0
1, 241452, Note_on_c, 0, 56, 0
1, 241527, Note_on_c, 0, 76, 78
1, 241527, Note_on_c, 0, 68, 78
1, 241527, Note_on_c, 0, 52, 58
1, 241530, Note_on_c, 0, 56, 58
1, 241536, Control_c, 0, 64, 127
1, 241683, Note_on_c, 0, 68, 0
1, 241683, Note_on_c, 0, 76, 0
1, 241683, Note_on_c, 0, 73, 78
1, 241686, Note_on_c, 0, 64, 78
1, 241686, Note_on_c, 0, 56, 0
1, 241686, Note_on_c, 0, 52, 0
1, 241689, Note_on_c, 0, 56, 60
1, 241689, Note_on_c, 0, 61, 60
1, 241793, Control_c, 0, 64, 0
1, 241839, Note_on_c, 0, 64, 0
1, 241839, Note_on_c, 0, 73, 0
1, 241839, Note_on_c, 0, 61, 0
1, 241842, Note_on_c, 0, 56, 0
1, 241842, Note_on_c, 0, 44, 67
1, 241997, Note_on_c, 0, 75, 68
1, 241997, Note_on_c, 0, 66, 68
1, 241997, Note_on_c, 0, 44, 0
1, 242000, Note_on_c, 0, 51, 57
1, 242000, Note_on_c, 0, 54, 57
1, 242078, Note_on_c, 0, 66, 0
1, 242078, Note_on_c, 0, 75, 0
1, 242078, Note_on_c, 0, 54, 0
1, 242081, Note_on_c, 0, 51, 0
1, 242160, Note_on_c, 0, 75, 68
1, 242160, Note_on_c, 0, 66, 68
1, 242160, Note_on_c, 0, 54, 57
1, 242163, Note_on_c, 0, 51, 57
1, 242189, Control_c, 0, 64, 127
1, 242331, Note_on_c, 0, 66, 0
1, 242331, Note_on_c, 0, 75, 0
1, 242331, Note_on_c, 0, 72, 66
1, 242334, Note_on_c, 0, 63, 66
1, 242334, Note_on_c, 0, 51, 0
1, 242334, Note_on_c, 0, 54, 0
1, 242337, Note_on_c, 0, 54, 57
1, 242337, Note_on_c, 0, 60, 57
1, 242455, Control_c, 0, 64, 0
1, 242508, Note_on_c, 0, 63, 0
1, 242508, Note_on_c, 0, 72, 0
1, 242508, Note_on_c, 0, 64, 69
1, 242511, Note_on_c, 0, 73, 69
1, 242511, Note_on_c, 0, 60, 0
1, 242511, Note_on_c, 0, 54, 0
1, 242514, Note_on_c, 0, 37, 68
1, 242582, Note_on_c, 0, 49, 47
1, 242595, Note_on_c, 0, 37, 0
1, 242657, Note_on_c, 0, 44, 53
1, 242669, Note_on_c, 0, 49, 0
1, 242731, Note_on_c, 0, 49, 48
1, 242743, Note_on_c, 0, 44, 0
1, 242805, Note_on_c, 0, 73, 0
1, 242805, Note_on_c, 0, 64, 0
1, 242805, Note_on_c, 0, 37, 59
1, 242818, Note_on_c, 0, 49, 0
1, 242880, Note_on_c, 0, 49, 48
1, 242892, Note_on_c, 0, 37, 0
1, 242954, Note_on_c, 0, 44, 53
1, 242966, Note_on_c, 0, 49, 0
1, 243028, Note_on_c, 0, 49, 48
1, 243041, Note_on_c, 0, 44, 0
1, 243102, Note_on_c, 0, 37, 59
1, 243115, Note_on_c, 0, 49, 0
1, 243177, Note_on_c, 0, 49, 48
1, 243189, Note_on_c, 0, 37, 0
1, 243251, Note_on_c, 0, 44, 54
1, 243264, Note_on_c, 0, 49, 0
1, 243325, Note_on_c, 0, 49, 54
1, 243338, Note_on_c, 0, 44, 0
1, 243400, Note_on_c, 0, 64, 69
1, 243400, Note_on_c, 0, 37, 59
1, 243412, Note_on_c, 0, 49, 0
1, 243476, Note_on_c, 0, 49, 48
1, 243488, Note_on_c, 0, 37, 0
1, 243552, Note_on_c, 0, 44, 54
1, 243564, Note_on_c, 0, 49, 0
1, 243627, Note_on_c, 0, 64, 0
1, 243627, Note_on_c, 0, 61, 69
1, 243627, Note_on_c, 0, 49, 49
1, 243640, Note_on_c, 0, 44, 0
1, 243665, Note_on_c, 0, 61, 0
1, 243703, Note_on_c, 0, 60, 78
1, 243703, Note_on_c, 0, 37, 59
1, 243716, Note_on_c, 0, 49, 0
1, 243779, Note_on_c, 0, 51, 49
1, 243792, Note_on_c, 0, 37, 0
1, 243855, Note_on_c, 0, 44, 55
1, 243868, Note_on_c, 0, 51, 0
1, 243931, Note_on_c, 0, 51, 49
1, 243944, Note_on_c, 0, 44, 0
1, 244007, Note_on_c, 0, 60, 0
1, 244007, Note_on_c, 0, 60, 66
1, 244007, Note_on_c, 0, 54, 66
1, 244010, Note_on_c, 0, 68, 66
1, 244010, Note_on_c, 0, 37, 59
1, 244020, Note_on_c, 0, 51, 0
1, 244087, Note_on_c, 0, 51, 48
1, 244100, Note_on_c, 0, 37, 0
1, 244167, Note_on_c, 0, 44, 54
1, 244181, Note_on_c, 0, 51, 0
1, 244247, Note_on_c, 0, 68, 0
1, 244247, Note_on_c, 0, 54, 0
1, 244247, Note_on_c, 0, 60, 0
1, 244250, Note_on_c, 0, 51, 48
1, 244261, Note_on_c, 0, 44, 0
1, 244327, Note_on_c, 0, 54, 66
1, 244327, Note_on_c, 0, 68, 66
1, 244327, Note_on_c, 0, 60, 66
1, 244330, Note_on_c, 0, 37, 59
1, 244341, Note_on_c, 0, 51, 0
1, 244408, Note_on_c, 0, 51, 49
1, 244421, Note_on_c, 0, 37, 0
1, 244488, Note_on_c, 0, 44, 55
1, 244501, Note_on_c, 0, 51, 0
1, 244568, Note_on_c, 0, 60, 0
1, 244568, Note_on_c, 0, 68, 0
1, 244568, Note_on_c, 0, 54, 0
1, 244571, Note_on_c, 0, 51, 49
1, 244581, Note_on_c, 0, 44, 0
1, 244648, Note_on_c, 0, 54, 69
1, 244648, Note_on_c, 0, 68, 69
1, 244648, Note_on_c, 0, 60, 69
1, 244651, Note_on_c, 0, 37, 59
1, 244661, Note_on_c, 0, 51, 0
1, 244728, Note_on_c, 0, 51, 48
1, 244741, Note_on_c, 0, 37, 0
1, 244808, Note_on_c, 0, 44, 53
1, 244822, Note_on_c, 0, 51, 0
1, 244888, Note_on_c, 0, 60, 0
1, 244888, Note_on_c, 0, 68, 0
1, 244888, Note_on_c, 0, 54, 0
1, 244891, Note_on_c, 0, 52, 69
1, 244891, Note_on_c, 0, 51, 49
1, 244906, Note_on_c, 0, 44, 0
1, 244942, Note_on_c, 0, 52, 0
1, 244942, Note_on_c, 0, 61, 69
1, 244996, Note_on_c, 0, 61, 0
1, 244996, Note_on_c, 0, 68, 78
1, 244996, Note_on_c, 0, 37, 59
1, 245009, Note_on_c, 0, 51, 0
1, 245071, Note_on_c, 0, 49, 49
1, 245083, Note_on_c, 0, 37, 0
1, 245145, Note_on_c, 0, 44, 54
1, 245157, Note_on_c, 0, 49, 0
1, 245219, Note_on_c, 0, 49, 49
1, 245232, Note_on_c, 0, 44, 0
1, 245293, Note_on_c, 0, 37, 59
1, 245306, Note_on_c, 0, 49, 0
1, 245368, Note_on_c, 0, 49, 51
1, 245380, Note_on_c, 0, 37, 0
1, 245442, Note_on_c, 0, 44, 55
1, 245455, Note_on_c, 0, 49, 0
1, 245516, Note_on_c, 0, 49, 50
1, 245529, Note_on_c, 0, 44, 0
1, 245591, Note_on_c, 0, 37, 59
1, 245603, Note_on_c, 0, 49, 0
1, 245665, Note_on_c, 0, 49, 50
1, 245677, Note_on_c, 0, 37, 0
1, 245739, Note_on_c, 0, 44, 55
1, 245752, Note_on_c, 0, 49, 0
1, 245814, Note_on_c, 0, 49, 49
1, 245826, Note_on_c, 0, 44, 0
1, 245888, Note_on_c, 0, 68, 0
1, 245888, Note_on_c, 0, 76, 79
1, 245888, Note_on_c, 0, 37, 59
1, 245901, Note_on_c, 0, 49, 0
1, 245964, Note_on_c, 0, 49, 49
1, 245976, Note_on_c, 0, 37, 0
1, 246039, Note_on_c, 0, 44, 53
1, 246052, Note_on_c, 0, 49, 0
1, 246115, Note_on_c, 0, 76, 0
1, 246115, Note_on_c, 0, 73, 79
1, 246115, Note_on_c, 0, 49, 48
1, 246128, Note_on_c, 0, 44, 0
1, 246191, Note_on_c, 0, 73, 0
1, 246191, Note_on_c, 0, 72, 89
1, 246191, Note_on_c, 0, 37, 59
1, 246203, Note_on_c, 0, 49, 0
1, 246266, Note_on_c, 0, 51, 49
1, 246279, Note_on_c, 0, 37, 0
1, 246342, Note_on_c, 0, 44, 53
1, 246354, Note_on_c, 0, 51, 0
1, 246418, Note_on_c, 0, 51, 49
1, 246430, Note_on_c, 0, 44, 0
1, 246493, Note_on_c, 0, 72, 0
1, 246493, Note_on_c, 0, 66, 78
1, 246493, Note_on_c, 0, 80, 78
1, 246496, Note_on_c, 0, 72, 78
1, 246496, Note_on_c, 0, 37, 59
1, 246506, Note_on_c, 0, 51, 0
1, 246571, Note_on_c, 0, 51, 49
1, 246584, Note_on_c, 0, 37, 0
1, 246649, Note_on_c, 0, 44, 53
1, 246662, Note_on_c, 0, 51, 0
1, 246727, Note_on_c, 0, 72, 0
1, 246727, Note_on_c, 0, 80, 0
1, 246727, Note_on_c, 0, 66, 0
1, 246730, Note_on_c, 0, 51, 49
1, 246740, Note_on_c, 0, 44, 0
1, 246806, Note_on_c, 0, 66, 78
1, 246806, Note_on_c, 0, 80, 78
1, 246806, Note_on_c, 0, 72, 78
1, 246809, Note_on_c, 0, 37, 59
1, 246819, Note_on_c, 0, 51, 0
1, 246884, Note_on_c, 0, 51, 48
1, 246897, Note_on_c, 0, 37, 0
1, 246962, Note_on_c, 0, 44, 53
1, 246975, Note_on_c, 0, 51, 0
1, 247040, Note_on_c, 0, 72, 0
1, 247040, Note_on_c, 0, 80, 0
1, 247040, Note_on_c, 0, 66, 0
1, 247043, Note_on_c, 0, 51, 49
1, 247053, Note_on_c, 0, 44, 0
1, 247118, Note_on_c, 0, 72, 78
1, 247118, Note_on_c, 0, 66, 78
1, 247118, Note_on_c, 0, 80, 78
1, 247121, Note_on_c, 0, 37, 59
1, 247131, Note_on_c, 0, 51, 0
1, 247196, Note_on_c, 0, 51, 52
1, 247209, Note_on_c, 0, 37, 0
1, 247274, Note_on_c, 0, 44, 56
1, 247287, Note_on_c, 0, 51, 0
1, 247351, Note_on_c, 0, 80, 0
1, 247351, Note_on_c, 0, 66, 0
1, 247351, Note_on_c, 0, 72, 0
1, 247354, Note_on_c, 0, 61, 66
1, 247354, Note_on_c, 0, 51, 50
1, 247368, Note_on_c, 0, 44, 0
1, 247402, Note_on_c, 0, 61, 0
1, 247402, Note_on_c, 0, 73, 73
1, 247452, Note_on_c, 0, 73, 0
1, 247452, Note_on_c, 0, 80, 96
1, 247452, Note_on_c, 0, 37, 59
1, 247465, Note_on_c, 0, 51, 0
1, 247526, Note_on_c, 0, 49, 49
1, 247538, Note_on_c, 0, 37, 0
1, 247599, Note_on_c, 0, 44, 53
1, 247611, Note_on_c, 0, 49, 0
1, 247672, Note_on_c, 0, 49, 49
1, 247685, Note_on_c, 0, 44, 0
1, 247746, Note_on_c, 0, 37, 60
1, 247758, Note_on_c, 0, 49, 0
1, 247819, Note_on_c, 0, 49, 47
1, 247831, Note_on_c, 0, 37, 0
1, 247892, Note_on_c, 0, 44, 52
1, 247904, Note_on_c, 0, 49, 0
1, 247966, Note_on_c, 0, 80, 0
1, 247966, Note_on_c, 0, 62, 63
1, 247966, Note_on_c, 0, 49, 48
1, 247980, Note_on_c, 0, 44, 0
1, 248008, Note_on_c, 0, 62, 0
1, 248008, Note_on_c, 0, 72, 72
1, 248051, Note_on_c, 0, 72, 0
1, 248051, Note_on_c, 0, 80, 95
1, 248051, Note_on_c, 0, 37, 59
1, 248063, Note_on_c, 0, 49, 0
1, 248124, Note_on_c, 0, 51, 49
1, 248137, Note_on_c, 0, 37, 0
1, 248198, Note_on_c, 0, 44, 54
1, 248210, Note_on_c, 0, 51, 0
1, 248271, Note_on_c, 0, 51, 49
1, 248283, Note_on_c, 0, 44, 0
1, 248344, Note_on_c, 0, 37, 59
1, 248357, Note_on_c, 0, 51, 0
1, 248418, Note_on_c, 0, 51, 49
1, 248430, Note_on_c, 0, 37, 0
1, 248491, Note_on_c, 0, 44, 55
1, 248503, Note_on_c, 0, 51, 0
1, 248564, Note_on_c, 0, 80, 0
1, 248564, Note_on_c, 0, 64, 61
1, 248564, Note_on_c, 0, 51, 50
1, 248580, Note_on_c, 0, 44, 0
1, 248612, Note_on_c, 0, 64, 0
1, 248612, Note_on_c, 0, 73, 73
1, 248661, Note_on_c, 0, 73, 0
1, 248661, Note_on_c, 0, 80, 95
1, 248661, Note_on_c, 0, 37, 59
1, 248673, Note_on_c, 0, 51, 0
1, 248734, Note_on_c, 0, 49, 49
1, 248746, Note_on_c, 0, 37, 0
1, 248807, Note_on_c, 0, 44, 53
1, 248819, Note_on_c, 0, 49, 0
1, 248880, Note_on_c, 0, 49, 48
1, 248893, Note_on_c, 0, 44, 0
1, 248954, Note_on_c, 0, 37, 59
1, 248966, Note_on_c, 0, 49, 0
1, 249027, Note_on_c, 0, 49, 49
1, 249039, Note_on_c, 0, 37, 0
1, 249100, Note_on_c, 0, 44, 53
1, 249113, Note_on_c, 0, 49, 0
1, 249174, Note_on_c, 0, 80, 0
1, 249174, Note_on_c, 0, 62, 63
1, 249174, Note_on_c, 0, 49, 49
1, 249186, Note_on_c, 0, 44, 0
1, 249210, Note_on_c, 0, 62, 0
1, 249210, Note_on_c, 0, 72, 73
1, 249247, Note_on_c, 0, 72, 0
1, 249247, Note_on_c, 0, 80, 94
1, 249247, Note_on_c, 0, 37, 59
1, 249259, Note_on_c, 0, 49, 0
1, 249320, Note_on_c, 0, 51, 49
1, 249333, Note_on_c, 0, 37, 0
1, 249394, Note_on_c, 0, 44, 54
1, 249406, Note_on_c, 0, 51, 0
1, 249467, Note_on_c, 0, 51, 49
1, 249479, Note_on_c, 0, 44, 0
1, 249540, Note_on_c, 0, 37, 59
1, 249553, Note_on_c, 0, 51, 0
1, 249614, Note_on_c, 0, 51, 49
1, 249626, Note_on_c, 0, 37, 0
1, 249687, Note_on_c, 0, 44, 54
1, 249699, Note_on_c, 0, 51, 0
1, 249760, Note_on_c, 0, 51, 50
1, 249773, Note_on_c, 0, 44, 0
1, 249834, Note_on_c, 0, 80, 0
1, 249834, Note_on_c, 0, 52, 70
1, 249834, Note_on_c, 0, 37, 59
1, 249846, Note_on_c, 0, 51, 0
1, 249910, Note_on_c, 0, 61, 67
1, 249910, Note_on_c, 0, 49, 57
1, 249923, Note_on_c, 0, 52, 0
1, 249923, Note_on_c, 0, 37, 0
1, 249986, Note_on_c, 0, 56, 71
1, 249986, Note_on_c, 0, 44, 61
1, 249999, Note_on_c, 0, 61, 0
1, 249999, Note_on_c, 0, 49, 0
1, 250062, Note_on_c, 0, 61, 68
1, 250062, Note_on_c, 0, 49, 60
1, 250074, Note_on_c, 0, 56, 0
1, 250074, Note_on_c, 0, 44, 0
1, 250137, Note_on_c, 0, 52, 73
1, 250137, Note_on_c, 0, 37, 63
1, 250149, Note_on_c, 0, 61, 0
1, 250149, Note_on_c, 0, 49, 0
1, 250212, Note_on_c, 0, 61, 71
1, 250212, Note_on_c, 0, 49, 61
1, 250225, Note_on_c, 0, 52, 0
1, 250225, Note_on_c, 0, 37, 0
1, 250288, Note_on_c, 0, 56, 77
1, 250288, Note_on_c, 0, 44, 66
1, 250300, Note_on_c, 0, 61, 0
1, 250300, Note_on_c, 0, 49, 0
1, 250363, Note_on_c, 0, 61, 72
1, 250363, Note_on_c, 0, 49, 61
1, 250376, Note_on_c, 0, 56, 0
1, 250376, Note_on_c, 0, 44, 0
1, 250438, Note_on_c, 0, 52, 78
1, 250438, Note_on_c, 0, 37, 67
1, 250450, Note_on_c, 0, 61, 0
1, 250450, Note_on_c, 0, 49, 0
1, 250512, Note_on_c, 0, 61, 73
1, 250512, Note_on_c, 0, 49, 63
1, 250524, Note_on_c, 0, 52, 0
1, 250524, Note_on_c, 0, 37, 0
1, 250586, Note_on_c, 0, 56, 80
1, 250586, Note_on_c, 0, 44, 69
1, 250598, Note_on_c, 0, 61, 0
1, 250598, Note_on_c, 0, 49, 0
1, 250659, Note_on_c, 0, 61, 77
1, 250659, Note_on_c, 0, 49, 64
1, 250672, Note_on_c, 0, 56, 0
1, 250672, Note_on_c, 0, 44, 0
1, 250733, Note_on_c, 0, 52, 82
1, 250733, Note_on_c, 0, 37, 71
1, 250746, Note_on_c, 0, 61, 0
1, 250746, Note_on_c, 0, 49, 0
1, 250807, Note_on_c, 0, 61, 78
1, 250807, Note_on_c, 0, 49, 66
1, 250819, Note_on_c, 0, 52, 0
1, 250819, Note_on_c, 0, 37, 0
1, 250881, Note_on_c, 0, 56, 84
1, 250881, Note_on_c, 0, 44, 72
1, 250893, Note_on_c, 0, 61, 0
1, 250893, Note_on_c, 0, 49, 0
1, 250953, Note_on_c, 0, 61, 78
1, 250953, Note_on_c, 0, 49, 68
1, 250966, Note_on_c, 0, 56, 0
1, 250966, Note_on_c, 0, 44, 0
1, 251026, Note_on_c, 0, 53, 87
1, 251026, Note_on_c, 0, 49, 87
1, 251026, Note_on_c, 0, 35, 75
1, 251038, Note_on_c, 0, 61, 0
1, 251038, Note_on_c, 0, 49, 0
1, 251063, Note_on_c, 0, 49, 0
1, 251099, Note_on_c, 0, 61, 79
1, 251099, Note_on_c, 0, 47, 69
1, 251111, Note_on_c, 0, 53, 0
1, 251111, Note_on_c, 0, 35, 0
1, 251172, Note_on_c, 0, 56, 89
1, 251172, Note_on_c, 0, 37, 77
1, 251184, Note_on_c, 0, 61, 0
1, 251184, Note_on_c, 0, 47, 0
1, 251244, Note_on_c, 0, 61, 81
1, 251244, Note_on_c, 0, 47, 71
1, 251255, Note_on_c, 0, 56, 0
1, 251255, Note_on_c, 0, 37, 0
1, 251314, Note_on_c, 0, 53, 90
1, 251314, Note_on_c, 0, 49, 90
1, 251314, Note_on_c, 0, 35, 78
1, 251326, Note_on_c, 0, 61, 0
1, 251326, Note_on_c, 0, 47, 0
1, 251349, Note_on_c, 0, 49, 0
1, 251385, Note_on_c, 0, 61, 82
1, 251385, Note_on_c, 0, 47, 72
1, 251396, Note_on_c, 0, 53, 0
1, 251396, Note_on_c, 0, 35, 0
1, 251455, Note_on_c, 0, 56, 92
1, 251455, Note_on_c, 0, 37, 79
1, 251467, Note_on_c, 0, 61, 0
1, 251467, Note_on_c, 0, 47, 0
1, 251526, Note_on_c, 0, 61, 87
1, 251526, Note_on_c, 0, 47, 73
1, 251537, Note_on_c, 0, 56, 0
1, 251537, Note_on_c, 0, 37, 0
1, 251596, Note_on_c, 0, 49, 95
1, 251596, Note_on_c, 0, 53, 95
1, 251596, Note_on_c, 0, 35, 82
1, 251608, Note_on_c, 0, 61, 0
1, 251608, Note_on_c, 0, 47, 0
1, 251631, Note_on_c, 0, 49, 0
1, 251665, Note_on_c, 0, 61, 89
1, 251665, Note_on_c, 0, 47, 78
1, 251677, Note_on_c, 0, 53, 0
1, 251677, Note_on_c, 0, 35, 0
1, 251733, Note_on_c, 0, 56, 96
1, 251733, Note_on_c, 0, 37, 83
1, 251745, Note_on_c, 0, 61, 0
1, 251745, Note_on_c, 0, 47, 0
1, 251802, Note_on_c, 0, 61, 91
1, 251802, Note_on_c, 0, 47, 78
1, 251813, Note_on_c, 0, 56, 0
1, 251813, Note_on_c, 0, 37, 0
1, 251870, Note_on_c, 0, 49, 98
1, 251870, Note_on_c, 0, 53, 98
1, 251870, Note_on_c, 0, 35, 84
1, 251881, Note_on_c, 0, 61, 0
1, 251881, Note_on_c, 0, 47, 0
1, 251903, Note_on_c, 0, 49, 0
1, 251937, Note_on_c, 0, 61, 93
1, 251937, Note_on_c, 0, 47, 79
1, 251949, Note_on_c, 0, 53, 0
1, 251949, Note_on_c, 0, 35, 0
1, 252005, Note_on_c, 0, 56, 100
1, 252005, Note_on_c, 0, 37, 86
1, 252016, Note_on_c, 0, 61, 0
1, 252016, Note_on_c, 0, 47, 0
1, 252073, Note_on_c, 0, 61, 94
1, 252073, Note_on_c, 0, 47, 81
1, 252084, Note_on_c, 0, 56, 0
1, 252084, Note_on_c, 0, 37, 0
1, 252141, Note_on_c, 0, 61, 0
1, 252141, Control_c, 0, 91, 127
1, 252141, Note_on_c, 0, 54, 89
1, 252144, Note_on_c, 0, 57, 89
1, 252144, Note_on_c, 0, 61, 103
1, 252144, Note_on_c, 0, 49, 89
1, 252147, Note_on_c, 0, 47, 0
1, 252147, Note_on_c, 0, 33, 77
1, 252147, Note_on_c, 0, 45, 89
1, 252150, Control_c, 0, 91, 127
1, 252208, Note_on_c, 0, 49, 0
1, 252208, Note_on_c, 0, 54, 0
1, 252208, Note_on_c, 0, 57, 0
1, 252211, Note_on_c, 0, 61, 0
1, 252211, Note_on_c, 0, 49, 73
1, 252211, Note_on_c, 0, 45, 0
1, 252214, Note_on_c, 0, 33, 0
1, 252275, Note_on_c, 0, 54, 76
1, 252275, Note_on_c, 0, 42, 57
1, 252287, Note_on_c, 0, 49, 0
1, 252343, Note_on_c, 0, 57, 78
1, 252343, Note_on_c, 0, 42, 0
1, 252354, Note_on_c, 0, 54, 0
1, 252410, Note_on_c, 0, 61, 80
1, 252410, Note_on_c, 0, 33, 57
1, 252421, Note_on_c, 0, 57, 0
1, 252477, Note_on_c, 0, 54, 74
1, 252477, Note_on_c, 0, 33, 0
1, 252489, Note_on_c, 0, 61, 0
1, 252545, Note_on_c, 0, 57, 74
1, 252545, Note_on_c, 0, 42, 53
1, 252556, Note_on_c, 0, 54, 0
1, 252612, Note_on_c, 0, 61, 76
1, 252612, Note_on_c, 0, 42, 0
1, 252623, Note_on_c, 0, 57, 0
1, 252680, Note_on_c, 0, 66, 78
1, 252680, Note_on_c, 0, 33, 57
1, 252691, Note_on_c, 0, 61, 0
1, 252747, Note_on_c, 0, 57, 73
1, 252747, Note_on_c, 0, 33, 0
1, 252758, Note_on_c, 0, 66, 0
1, 252814, Note_on_c, 0, 61, 76
1, 252814, Note_on_c, 0, 42, 52
1, 252826, Note_on_c, 0, 57, 0
1, 252882, Note_on_c, 0, 66, 78
1, 252882, Note_on_c, 0, 42, 0
1, 252893, Note_on_c, 0, 61, 0
1, 252949, Note_on_c, 0, 69, 79
1, 252949, Note_on_c, 0, 33, 57
1, 252960, Note_on_c, 0, 66, 0
1, 253016, Note_on_c, 0, 61, 73
1, 253016, Note_on_c, 0, 33, 0
1, 253028, Note_on_c, 0, 69, 0
1, 253084, Note_on_c, 0, 66, 73
1, 253084, Note_on_c, 0, 42, 52
1, 253095, Note_on_c, 0, 61, 0
1, 253151, Note_on_c, 0, 69, 74
1, 253151, Note_on_c, 0, 42, 0
1, 253162, Note_on_c, 0, 66, 0
1, 253218, Note_on_c, 0, 73, 78
1, 253218, Note_on_c, 0, 33, 57
1, 253230, Note_on_c, 0, 69, 0
1, 253286, Note_on_c, 0, 66, 79
1, 253297, Note_on_c, 0, 73, 0
1, 253353, Note_on_c, 0, 69, 71
1, 253353, Note_on_c, 0, 33, 0
1, 253353, Note_on_c, 0, 42, 58
1, 253364, Note_on_c, 0, 66, 0
1, 253421, Note_on_c, 0, 73, 72
1, 253432, Note_on_c, 0, 69, 0
1, 253488, Note_on_c, 0, 78, 76
1, 253488, Note_on_c, 0, 42, 0
1, 253488, Note_on_c, 0, 33, 58
1, 253499, Note_on_c, 0, 73, 0
1, 253555, Note_on_c, 0, 69, 71
1, 253567, Note_on_c, 0, 78, 0
1, 253623, Note_on_c, 0, 73, 71
1, 253623, Note_on_c, 0, 33, 0
1, 253623, Note_on_c, 0, 42, 58
1, 253634, Note_on_c, 0, 69, 0
1, 253690, Note_on_c, 0, 78, 73
1, 253701, Note_on_c, 0, 73, 0
1, 253757, Note_on_c, 0, 81, 76
1, 253757, Note_on_c, 0, 42, 0
1, 253757, Note_on_c, 0, 33, 58
1, 253769, Note_on_c, 0, 78, 0
1, 253825, Note_on_c, 0, 73, 71
1, 253836, Note_on_c, 0, 81, 0
1, 253892, Note_on_c, 0, 78, 74
1, 253892, Note_on_c, 0, 33, 0
1, 253892, Note_on_c, 0, 42, 53
1, 253903, Note_on_c, 0, 73, 0
1, 253959, Note_on_c, 0, 81, 78
1, 253971, Note_on_c, 0, 78, 0
1, 254022, Control_c, 0, 64, 127
1, 254027, Note_on_c, 0, 81, 0
1, 254027, Note_on_c, 0, 81, 112
1, 254027, Note_on_c, 0, 78, 96
1, 254030, Note_on_c, 0, 85, 112
1, 254030, Note_on_c, 0, 73, 96
1, 254030, Note_on_c, 0, 42, 0
1, 254033, Note_on_c, 0, 45, 94
1, 254033, Note_on_c, 0, 33, 94
1, 254097, Note_on_c, 0, 73, 0
1, 254097, Note_on_c, 0, 81, 0
1, 254097, Note_on_c, 0, 78, 0
1, 254100, Note_on_c, 0, 85, 0
1, 254167, Note_on_c, 0, 81, 94
1, 254167, Note_on_c, 0, 78, 81
1, 254167, Note_on_c, 0, 85, 94
1, 254170, Note_on_c, 0, 73, 81
1, 254170, Note_on_c, 0, 33, 0
1, 254170, Note_on_c, 0, 45, 0
1, 254173, Note_on_c, 0, 42, 81
1, 254237, Note_on_c, 0, 73, 0
1, 254237, Note_on_c, 0, 81, 0
1, 254237, Note_on_c, 0, 78, 0
1, 254240, Note_on_c, 0, 85, 0
1, 254308, Note_on_c, 0, 42, 0
1, 254308, Note_on_c, 0, 32, 72
1, 254308, Control_c, 0, 64, 0
1, 254376, Note_on_c, 0, 49, 79
1, 254443, Note_on_c, 0, 52, 81
1, 254443, Note_on_c, 0, 32, 0
1, 254443, Note_on_c, 0, 40, 66
1, 254455, Note_on_c, 0, 49, 0
1, 254511, Note_on_c, 0, 56, 84
1, 254522, Note_on_c, 0, 52, 0
1, 254579, Note_on_c, 0, 61, 87
1, 254579, Note_on_c, 0, 40, 0
1, 254579, Note_on_c, 0, 32, 72
1, 254590, Note_on_c, 0, 56, 0
1, 254647, Note_on_c, 0, 52, 81
1, 254658, Note_on_c, 0, 61, 0
1, 254715, Note_on_c, 0, 56, 84
1, 254715, Note_on_c, 0, 32, 0
1, 254715, Note_on_c, 0, 40, 67
1, 254726, Note_on_c, 0, 52, 0
1, 254782, Note_on_c, 0, 61, 85
1, 254794, Note_on_c, 0, 56, 0
1, 254850, Note_on_c, 0, 64, 88
1, 254850, Note_on_c, 0, 40, 0
1, 254850, Note_on_c, 0, 32, 72
1, 254861, Note_on_c, 0, 61, 0
1, 254918, Note_on_c, 0, 56, 82
1, 254929, Note_on_c, 0, 64, 0
1, 254986, Note_on_c, 0, 61, 84
1, 254986, Note_on_c, 0, 32, 0
1, 254986, Note_on_c, 0, 40, 67
1, 254997, Note_on_c, 0, 56, 0
1, 255053, Note_on_c, 0, 64, 85
1, 255065, Note_on_c, 0, 61, 0
1, 255121, Note_on_c, 0, 68, 89
1, 255121, Note_on_c, 0, 40, 0
1, 255121, Note_on_c, 0, 32, 72
1, 255132, Note_on_c, 0, 64, 0
1, 255189, Note_on_c, 0, 61, 82
1, 255200, Note_on_c, 0, 68, 0
1, 255257, Note_on_c, 0, 64, 84
1, 255257, Note_on_c, 0, 32, 0
1, 255257, Note_on_c, 0, 40, 72
1, 255268, Note_on_c, 0, 61, 0
1, 255325, Note_on_c, 0, 68, 85
1, 255336, Note_on_c, 0, 64, 0
1, 255392, Note_on_c, 0, 73, 88
1, 255392, Note_on_c, 0, 40, 0
1, 255392, Note_on_c, 0, 32, 72
1, 255404, Note_on_c, 0, 68, 0
1, 255460, Note_on_c, 0, 64, 85
1, 255471, Note_on_c, 0, 73, 0
1, 255528, Note_on_c, 0, 68, 85
1, 255528, Note_on_c, 0, 32, 0
1, 255528, Note_on_c, 0, 40, 72
1, 255539, Note_on_c, 0, 64, 0
1, 255596, Note_on_c, 0, 73, 84
1, 255607, Note_on_c, 0, 68, 0
1, 255663, Note_on_c, 0, 76, 88
1, 255663, Note_on_c, 0, 40, 0
1, 255663, Note_on_c, 0, 32, 72
1, 255675, Note_on_c, 0, 73, 0
1, 255731, Note_on_c, 0, 68, 83
1, 255743, Note_on_c, 0, 76, 0
1, 255799, Note_on_c, 0, 73, 84
1, 255799, Note_on_c, 0, 32, 0
1, 255799, Note_on_c, 0, 40, 67
1, 255810, Note_on_c, 0, 68, 0
1, 255867, Note_on_c, 0, 76, 89
1, 255878, Note_on_c, 0, 73, 0
1, 255935, Note_on_c, 0, 80, 90
1, 255935, Note_on_c, 0, 40, 0
1, 255935, Note_on_c, 0, 32, 72
1, 255946, Note_on_c, 0, 76, 0
1, 256002, Note_on_c, 0, 73, 84
1, 256014, Note_on_c, 0, 80, 0
1, 256070, Note_on_c, 0, 76, 88
1, 256070, Note_on_c, 0, 32, 0
1, 256070, Note_on_c, 0, 40, 67
1, 256081, Note_on_c, 0, 73, 0
1, 256138, Note_on_c, 0, 80, 90
1, 256149, Note_on_c, 0, 76, 0
1, 256206, Note_on_c, 0, 80, 0
1, 256206, Note_on_c, 0, 85, 122
1, 256206, Note_on_c, 0, 76, 105
1, 256209, Note_on_c, 0, 80, 122
1, 256209, Note_on_c, 0, 73, 105
1, 256209, Note_on_c, 0, 40, 0
1, 256212, Control_c, 0, 64, 127
1, 256212, Note_on_c, 0, 32, 99
1, 256212, Note_on_c, 0, 44, 99
1, 256280, Note_on_c, 0, 73, 0
1, 256280, Note_on_c, 0, 85, 0
1, 256280, Note_on_c, 0, 76, 0
1, 256283, Note_on_c, 0, 80, 0
1, 256355, Note_on_c, 0, 80, 109
1, 256355, Note_on_c, 0, 73, 94
1, 256355, Note_on_c, 0, 76, 94
1, 256358, Note_on_c, 0, 85, 109
1, 256358, Note_on_c, 0, 44, 0
1, 256358, Note_on_c, 0, 32, 0
1, 256361, Note_on_c, 0, 40, 89
1, 256463, Note_on_c, 0, 85, 0
1, 256463, Note_on_c, 0, 80, 0
1, 256463, Note_on_c, 0, 73, 0
1, 256466, Note_on_c, 0, 76, 0
1, 256570, Note_on_c, 0, 40, 0
1, 256570, Control_c, 0, 64, 0
1, 256570, Note_on_c, 0, 31, 57
1, 256617, Control_c, 0, 64, 127
1, 256747, Note_on_c, 0, 49, 47
1, 256792, Note_on_c, 0, 52, 49
1, 256836, Note_on_c, 0, 55, 52
1, 256880, Note_on_c, 0, 58, 56
1, 256924, Note_on_c, 0, 61, 63
1, 257101, Note_on_c, 0, 31, 0
1, 257101, Note_on_c, 0, 31, 63
1, 257145, Note_on_c, 0, 34, 66
1, 257190, Note_on_c, 0, 37, 69
1, 257234, Note_on_c, 0, 40, 71
1, 257278, Note_on_c, 0, 43, 73
1, 257455, Note_on_c, 0, 61, 0
1, 257455, Note_on_c, 0, 55, 0
1, 257455, Note_on_c, 0, 49, 0
1, 257458, Note_on_c, 0, 52, 0
1, 257458, Note_on_c, 0, 58, 0
1, 257458, Note_on_c, 0, 61, 73
1, 257499, Note_on_c, 0, 64, 77
1, 257543, Note_on_c, 0, 67, 79
1, 257587, Note_on_c, 0, 70, 82
1, 257632, Note_on_c, 0, 73, 84
1, 257809, Note_on_c, 0, 43, 0
1, 257809, Note_on_c, 0, 37, 0
1, 257809, Note_on_c, 0, 31, 0
1, 257812, Note_on_c, 0, 34, 0
1, 257812, Note_on_c, 0, 40, 0
1, 257812, Note_on_c, 0, 43, 71
1, 257853, Note_on_c, 0, 46, 76
1, 257897, Note_on_c, 0, 49, 79
1, 257941, Note_on_c, 0, 52, 82
1, 257985, Note_on_c, 0, 73, 0
1, 257985, Note_on_c, 0, 55, 85
1, 258166, Note_on_c, 0, 67, 0
1, 258166, Note_on_c, 0, 61, 0
1, 258166, Note_on_c, 0, 64, 0
1, 258169, Note_on_c, 0, 70, 0
1, 258169, Note_on_c, 0, 73, 88
1, 258169, Note_on_c, 0, 55, 0
1, 258211, Note_on_c, 0, 76, 91
1, 258256, Note_on_c, 0, 79, 96
1, 258301, Note_on_c, 0, 82, 100
1, 258346, Note_on_c, 0, 85, 104
1, 258346, Note_on_c, 0, 49, 0
1, 258346, Note_on_c, 0, 43, 0
1, 258349, Note_on_c, 0, 46, 0
1, 258349, Note_on_c, 0, 52, 0
1, 258349, Note_on_c, 0, 64, 103
1, 258352, Note_on_c, 0, 61, 103
1, 258352, Note_on_c, 0, 55, 103
1, 258352, Note_on_c, 0, 58, 103
1, 259686, Control_c, 0, 64, 0
1, 259799, Note_on_c, 0, 85, 0
1, 259799, Note_on_c, 0, 79, 0
1, 259799, Note_on_c, 0, 73, 0
1, 259802, Note_on_c, 0, 76, 0
1, 259802, Note_on_c, 0, 82, 0
1, 259802, Note_on_c, 0, 58, 0
1, 259805, Note_on_c, 0, 64, 0
1, 259805, Note_on_c, 0, 61, 0
1, 259805, Note_on_c, 0, 55, 0
1, 259808, Note_on_c, 0, 30, 66
1, 259830, Control_c, 0, 64, 127
1, 259976, Note_on_c, 0, 45, 45
1, 260020, Note_on_c, 0, 48, 48
1, 260064, Note_on_c, 0, 51, 52
1, 260108, Note_on_c, 0, 54, 55
1, 260153, Note_on_c, 0, 57, 59
1, 260329, Note_on_c, 0, 30, 0
1, 260329, Note_on_c, 0, 30, 59
1, 260374, Note_on_c, 0, 33, 61
1, 260418, Note_on_c, 0, 36, 66
1, 260462, Note_on_c, 0, 39, 68
1, 260506, Note_on_c, 0, 42, 72
1, 260683, Note_on_c, 0, 57, 0
1, 260683, Note_on_c, 0, 51, 0
1, 260683, Note_on_c, 0, 45, 0
1, 260686, Note_on_c, 0, 48, 0
1, 260686, Note_on_c, 0, 54, 0
1, 260686, Note_on_c, 0, 57, 76
1, 260727, Note_on_c, 0, 60, 78
1, 260772, Note_on_c, 0, 63, 79
1, 260816, Note_on_c, 0, 66, 80
1, 260860, Note_on_c, 0, 69, 84
1, 261037, Note_on_c, 0, 42, 0
1, 261037, Note_on_c, 0, 36, 0
1, 261037, Note_on_c, 0, 30, 0
1, 261040, Note_on_c, 0, 33, 0
1, 261040, Note_on_c, 0, 39, 0
1, 261040, Note_on_c, 0, 42, 74
1, 261081, Note_on_c, 0, 45, 77
1, 261125, Note_on_c, 0, 48, 79
1, 261170, Note_on_c, 0, 51, 82
1, 261214, Note_on_c, 0, 69, 0
1, 261214, Note_on_c, 0, 54, 84
1, 261304, Note_on_c, 0, 69, 96
1, 261394, Note_on_c, 0, 63, 0
1, 261394, Note_on_c, 0, 66, 0
1, 261394, Note_on_c, 0, 57, 0
1, 261397, Note_on_c, 0, 60, 0
1, 261397, Note_on_c, 0, 72, 101
1, 261397, Note_on_c, 0, 54, 0
1, 261484, Note_on_c, 0, 75, 104
1, 261575, Note_on_c, 0, 81, 118
1, 261575, Note_on_c, 0, 48, 0
1, 261575, Note_on_c, 0, 42, 0
1, 261578, Note_on_c, 0, 45, 0
1, 261578, Note_on_c, 0, 51, 0
1, 261578, Note_on_c, 0, 63, 103
1, 261581, Note_on_c, 0, 57, 103
1, 261581, Note_on_c, 0, 54, 103
1, 261581, Note_on_c, 0, 60, 103
1, 262785, Control_c, 0, 64, 0
1, 263021, Note_on_c, 0, 81, 0
1, 263021, Note_on_c, 0, 69, 0
1, 263021, Note_on_c, 0, 72, 0
1, 263024, Note_on_c, 0, 75, 0
1, 263024, Note_on_c, 0, 60, 0
1, 263024, Note_on_c, 0, 63, 0
1, 263027, Note_on_c, 0, 57, 0
1, 263027, Note_on_c, 0, 54, 0
1, 263027, Note_on_c, 0, 49, 59
1, 263099, Note_on_c, 0, 68, 47
1, 263177, Note_on_c, 0, 64, 51
1, 263177, Note_on_c, 0, 49, 0
1, 263189, Note_on_c, 0, 68, 0
1, 263254, Note_on_c, 0, 68, 46
1, 263267, Note_on_c, 0, 64, 0
1, 263332, Note_on_c, 0, 61, 57
1, 263332, Note_on_c, 0, 56, 76
1, 263344, Note_on_c, 0, 68, 0
1, 263403, Note_on_c, 0, 68, 46
1, 263415, Note_on_c, 0, 61, 0
1, 263474, Note_on_c, 0, 64, 50
1, 263485, Note_on_c, 0, 68, 0
1, 263544, Note_on_c, 0, 68, 46
1, 263556, Note_on_c, 0, 64, 0
1, 263614, Note_on_c, 0, 61, 57
1, 263626, Note_on_c, 0, 68, 0
1, 263684, Note_on_c, 0, 68, 47
1, 263696, Note_on_c, 0, 61, 0
1, 263754, Note_on_c, 0, 64, 51
1, 263765, Note_on_c, 0, 68, 0
1, 263823, Note_on_c, 0, 68, 46
1, 263835, Note_on_c, 0, 64, 0
1, 263892, Note_on_c, 0, 61, 57
1, 263892, Note_on_c, 0, 56, 0
1, 263892, Note_on_c, 0, 52, 67
1, 263904, Note_on_c, 0, 68, 0
1, 263966, Note_on_c, 0, 68, 47
1, 263978, Note_on_c, 0, 61, 0
1, 264039, Note_on_c, 0, 64, 51
1, 264051, Note_on_c, 0, 68, 0
1, 264113, Note_on_c, 0, 68, 47
1, 264113, Note_on_c, 0, 52, 0
1, 264113, Note_on_c, 0, 49, 67
1, 264125, Note_on_c, 0, 64, 0
1, 264186, Note_on_c, 0, 63, 57
1, 264186, Note_on_c, 0, 49, 0
1, 264186, Note_on_c, 0, 49, 74
1, 264199, Note_on_c, 0, 68, 0
1, 264260, Note_on_c, 0, 68, 47
1, 264272, Note_on_c, 0, 63, 0
1, 264333, Note_on_c, 0, 66, 51
1, 264346, Note_on_c, 0, 68, 0
1, 264407, Note_on_c, 0, 68, 46
1, 264419, Note_on_c, 0, 66, 0
1, 264481, Note_on_c, 0, 63, 57
1, 264481, Note_on_c, 0, 49, 0
1, 264481, Note_on_c, 0, 48, 66
1, 264492, Note_on_c, 0, 68, 0
1, 264548, Note_on_c, 0, 68, 48
1, 264560, Note_on_c, 0, 63, 0
1, 264616, Note_on_c, 0, 66, 51
1, 264627, Note_on_c, 0, 68, 0
1, 264684, Note_on_c, 0, 68, 47
1, 264695, Note_on_c, 0, 66, 0
1, 264752, Note_on_c, 0, 63, 57
1, 264763, Note_on_c, 0, 68, 0
1, 264819, Note_on_c, 0, 68, 46
1, 264831, Note_on_c, 0, 63, 0
1, 264887, Note_on_c, 0, 66, 51
1, 264887, Note_on_c, 0, 48, 0
1, 264887, Note_on_c, 0, 48, 66
1, 264899, Note_on_c, 0, 68, 0
1, 264955, Note_on_c, 0, 68, 47
1, 264966, Note_on_c, 0, 66, 0
1, 265023, Note_on_c, 0, 63, 57
1, 265023, Note_on_c, 0, 48, 0
1, 265023, Note_on_c, 0, 56, 77
1, 265035, Note_on_c, 0, 68, 0
1, 265096, Note_on_c, 0, 68, 47
1, 265109, Note_on_c, 0, 63, 0
1, 265170, Note_on_c, 0, 66, 51
1, 265182, Note_on_c, 0, 68, 0
1, 265244, Note_on_c, 0, 68, 47
1, 265244, Note_on_c, 0, 56, 0
1, 265244, Note_on_c, 0, 48, 66
1, 265256, Note_on_c, 0, 66, 0
1, 265317, Note_on_c, 0, 61, 57
1, 265317, Note_on_c, 0, 48, 0
1, 265317, Note_on_c, 0, 51, 61
1, 265330, Note_on_c, 0, 68, 0
1, 265393, Note_on_c, 0, 68, 46
1, 265405, Note_on_c, 0, 61, 0
1, 265468, Note_on_c, 0, 64, 50
1, 265481, Note_on_c, 0, 68, 0
1, 265544, Note_on_c, 0, 68, 47
1, 265557, Note_on_c, 0, 64, 0
1, 265620, Note_on_c, 0, 61, 57
1, 265620, Note_on_c, 0, 51, 0
1, 265620, Note_on_c, 0, 49, 66
1, 265631, Note_on_c, 0, 68, 0
1, 265687, Note_on_c, 0, 68, 46
1, 265699, Note_on_c, 0, 61, 0
1, 265755, Note_on_c, 0, 64, 50
1, 265766, Note_on_c, 0, 68, 0
1, 265823, Note_on_c, 0, 68, 46
1, 265834, Note_on_c, 0, 64, 0
1, 265891, Note_on_c, 0, 61, 57
1, 265902, Note_on_c, 0, 68, 0
1, 265959, Note_on_c, 0, 68, 47
1, 265970, Note_on_c, 0, 61, 0
1, 266026, Note_on_c, 0, 64, 50
1, 266026, Note_on_c, 0, 49, 0
1, 266026, Note_on_c, 0, 49, 67
1, 266039, Note_on_c, 0, 68, 0
1, 266104, Note_on_c, 0, 68, 46
1, 266117, Note_on_c, 0, 64, 0
1, 266181, Note_on_c, 0, 61, 57
1, 266181, Note_on_c, 0, 49, 0
1, 266181, Note_on_c, 0, 56, 73
1, 266194, Note_on_c, 0, 68, 0
1, 266259, Note_on_c, 0, 68, 47
1, 266272, Note_on_c, 0, 61, 0
1, 266336, Note_on_c, 0, 64, 51
1, 266349, Note_on_c, 0, 68, 0
1, 266414, Note_on_c, 0, 68, 46
1, 266414, Note_on_c, 0, 56, 0
1, 266414, Note_on_c, 0, 49, 66
1, 266427, Note_on_c, 0, 64, 0
1, 266492, Note_on_c, 0, 60, 57
1, 266492, Note_on_c, 0, 49, 0
1, 266492, Note_on_c, 0, 52, 61
1, 266504, Note_on_c, 0, 68, 0
1, 266567, Note_on_c, 0, 68, 45
1, 266580, Note_on_c, 0, 60, 0
1, 266643, Note_on_c, 0, 66, 50
1, 266655, Note_on_c, 0, 68, 0
1, 266718, Note_on_c, 0, 68, 46
1, 266731, Note_on_c, 0, 66, 0
1, 266794, Note_on_c, 0, 60, 57
1, 266794, Note_on_c, 0, 52, 0
1, 266794, Note_on_c, 0, 51, 66
1, 266805, Note_on_c, 0, 68, 0
1, 266862, Note_on_c, 0, 68, 46
1, 266873, Note_on_c, 0, 60, 0
1, 266930, Note_on_c, 0, 66, 50
1, 266941, Note_on_c, 0, 68, 0
1, 266997, Note_on_c, 0, 68, 46
1, 267009, Note_on_c, 0, 66, 0
1, 267065, Note_on_c, 0, 60, 57
1, 267076, Note_on_c, 0, 68, 0
1, 267133, Note_on_c, 0, 68, 48
1, 267144, Note_on_c, 0, 60, 0
1, 267201, Note_on_c, 0, 66, 50
1, 267201, Note_on_c, 0, 51, 0
1, 267201, Note_on_c, 0, 51, 67
1, 267214, Note_on_c, 0, 68, 0
1, 267278, Note_on_c, 0, 68, 46
1, 267291, Note_on_c, 0, 66, 0
1, 267356, Note_on_c, 0, 60, 57
1, 267356, Note_on_c, 0, 51, 0
1, 267356, Note_on_c, 0, 56, 73
1, 267369, Note_on_c, 0, 68, 0
1, 267433, Note_on_c, 0, 68, 46
1, 267446, Note_on_c, 0, 60, 0
1, 267511, Note_on_c, 0, 66, 51
1, 267524, Note_on_c, 0, 68, 0
1, 267588, Note_on_c, 0, 68, 47
1, 267588, Note_on_c, 0, 56, 0
1, 267588, Note_on_c, 0, 51, 66
1, 267601, Note_on_c, 0, 66, 0
1, 267666, Note_on_c, 0, 68, 0
1, 267666, Note_on_c, 0, 68, 59
1, 267666, Note_on_c, 0, 61, 59
1, 267669, Note_on_c, 0, 64, 59
1, 267669, Note_on_c, 0, 51, 0
1, 267669, Note_on_c, 0, 52, 58
1, 267743, Note_on_c, 0, 56, 52
1, 267756, Note_on_c, 0, 52, 0
1, 267821, Note_on_c, 0, 64, 0
1, 267821, Note_on_c, 0, 61, 0
1, 267821, Note_on_c, 0, 68, 0
1, 267824, Note_on_c, 0, 52, 58
1, 267834, Note_on_c, 0, 56, 0
1, 267899, Note_on_c, 0, 56, 51
1, 267911, Note_on_c, 0, 52, 0
1, 267976, Note_on_c, 0, 80, 78
1, 267976, Note_on_c, 0, 68, 78
1, 267976, Note_on_c, 0, 52, 66
1, 267987, Note_on_c, 0, 56, 0
1, 268043, Note_on_c, 0, 56, 51
1, 268055, Note_on_c, 0, 52, 0
1, 268111, Note_on_c, 0, 52, 58
1, 268122, Note_on_c, 0, 56, 0
1, 268178, Note_on_c, 0, 56, 51
1, 268189, Note_on_c, 0, 52, 0
1, 268246, Note_on_c, 0, 52, 66
1, 268257, Note_on_c, 0, 56, 0
1, 268313, Note_on_c, 0, 56, 51
1, 268324, Note_on_c, 0, 52, 0
1, 268380, Note_on_c, 0, 52, 57
1, 268392, Note_on_c, 0, 56, 0
1, 268448, Note_on_c, 0, 56, 51
1, 268459, Note_on_c, 0, 52, 0
1, 268515, Note_on_c, 0, 68, 0
1, 268515, Note_on_c, 0, 80, 0
1, 268515, Note_on_c, 0, 64, 66
1, 268518, Note_on_c, 0, 76, 66
1, 268518, Note_on_c, 0, 52, 66
1, 268527, Note_on_c, 0, 56, 0
1, 268586, Note_on_c, 0, 56, 52
1, 268598, Note_on_c, 0, 52, 0
1, 268657, Note_on_c, 0, 52, 58
1, 268669, Note_on_c, 0, 56, 0
1, 268728, Note_on_c, 0, 76, 0
1, 268728, Note_on_c, 0, 64, 0
1, 268728, Note_on_c, 0, 61, 66
1, 268731, Note_on_c, 0, 73, 66
1, 268731, Note_on_c, 0, 56, 51
1, 268740, Note_on_c, 0, 52, 0
1, 268800, Note_on_c, 0, 73, 0
1, 268800, Note_on_c, 0, 61, 0
1, 268800, Note_on_c, 0, 73, 74
1, 268803, Note_on_c, 0, 61, 74
1, 268803, Note_on_c, 0, 54, 66
1, 268811, Note_on_c, 0, 56, 0
1, 268871, Note_on_c, 0, 56, 49
1, 268883, Note_on_c, 0, 54, 0
1, 268942, Note_on_c, 0, 54, 57
1, 268954, Note_on_c, 0, 56, 0
1, 269013, Note_on_c, 0, 56, 50
1, 269025, Note_on_c, 0, 54, 0
1, 269084, Note_on_c, 0, 61, 0
1, 269084, Note_on_c, 0, 73, 0
1, 269084, Note_on_c, 0, 72, 65
1, 269087, Note_on_c, 0, 60, 65
1, 269087, Note_on_c, 0, 54, 66
1, 269095, Note_on_c, 0, 56, 0
1, 269152, Note_on_c, 0, 56, 51
1, 269163, Note_on_c, 0, 54, 0
1, 269219, Note_on_c, 0, 54, 59
1, 269231, Note_on_c, 0, 56, 0
1, 269287, Note_on_c, 0, 56, 54
1, 269298, Note_on_c, 0, 54, 0
1, 269354, Note_on_c, 0, 54, 66
1, 269366, Note_on_c, 0, 56, 0
1, 269422, Note_on_c, 0, 56, 51
1, 269433, Note_on_c, 0, 54, 0
1, 269490, Note_on_c, 0, 60, 0
1, 269490, Note_on_c, 0, 72, 0
1, 269490, Note_on_c, 0, 72, 66
1, 269493, Note_on_c, 0, 60, 66
1, 269493, Note_on_c, 0, 54, 57
1, 269502, Note_on_c, 0, 56, 0
1, 269563, Note_on_c, 0, 56, 51
1, 269575, Note_on_c, 0, 54, 0
1, 269636, Note_on_c, 0, 60, 0
1, 269636, Note_on_c, 0, 72, 0
1, 269636, Note_on_c, 0, 80, 76
1, 269639, Note_on_c, 0, 68, 76
1, 269639, Note_on_c, 0, 54, 66
1, 269648, Note_on_c, 0, 56, 0
1, 269712, Note_on_c, 0, 56, 52
1, 269725, Note_on_c, 0, 54, 0
1, 269789, Note_on_c, 0, 54, 57
1, 269801, Note_on_c, 0, 56, 0
1, 269865, Note_on_c, 0, 68, 0
1, 269865, Note_on_c, 0, 80, 0
1, 269865, Note_on_c, 0, 60, 66
1, 269868, Note_on_c, 0, 72, 66
1, 269868, Note_on_c, 0, 56, 52
1, 269878, Note_on_c, 0, 54, 0
1, 269941, Note_on_c, 0, 72, 0
1, 269941, Note_on_c, 0, 60, 0
1, 269941, Note_on_c, 0, 63, 65
1, 269944, Note_on_c, 0, 75, 65
1, 269944, Note_on_c, 0, 52, 66
1, 269954, Note_on_c, 0, 56, 0
1, 270014, Note_on_c, 0, 56, 51
1, 270026, Note_on_c, 0, 52, 0
1, 270087, Note_on_c, 0, 52, 58
1, 270099, Note_on_c, 0, 56, 0
1, 270159, Note_on_c, 0, 56, 51
1, 270171, Note_on_c, 0, 52, 0
1, 270232, Note_on_c, 0, 75, 0
1, 270232, Note_on_c, 0, 63, 0
1, 270232, Note_on_c, 0, 61, 66
1, 270235, Note_on_c, 0, 73, 66
1, 270235, Note_on_c, 0, 52, 66
1, 270243, Note_on_c, 0, 56, 0
1, 270299, Note_on_c, 0, 56, 52
1, 270311, Note_on_c, 0, 52, 0
1, 270367, Note_on_c, 0, 52, 59
1, 270378, Note_on_c, 0, 56, 0
1, 270434, Note_on_c, 0, 56, 52
1, 270446, Note_on_c, 0, 52, 0
1, 270502, Note_on_c, 0, 52, 66
1, 270513, Note_on_c, 0, 56, 0
1, 270570, Note_on_c, 0, 56, 51
1, 270581, Note_on_c, 0, 52, 0
1, 270637, Note_on_c, 0, 73, 0
1, 270637, Note_on_c, 0, 61, 0
1, 270637, Note_on_c, 0, 73, 65
1, 270640, Note_on_c, 0, 61, 65
1, 270640, Note_on_c, 0, 52, 58
1, 270649, Note_on_c, 0, 56, 0
1, 270710, Note_on_c, 0, 56, 52
1, 270722, Note_on_c, 0, 52, 0
1, 270782, Note_on_c, 0, 61, 0
1, 270782, Note_on_c, 0, 73, 0
1, 270782, Note_on_c, 0, 80, 76
1, 270785, Note_on_c, 0, 68, 76
1, 270785, Note_on_c, 0, 52, 66
1, 270795, Note_on_c, 0, 56, 0
1, 270859, Note_on_c, 0, 56, 52
1, 270871, Note_on_c, 0, 52, 0
1, 270935, Note_on_c, 0, 52, 59
1, 270948, Note_on_c, 0, 56, 0
1, 271012, Note_on_c, 0, 68, 0
1, 271012, Note_on_c, 0, 80, 0
1, 271012, Note_on_c, 0, 61, 65
1, 271015, Note_on_c, 0, 73, 65
1, 271015, Note_on_c, 0, 56, 52
1, 271025, Note_on_c, 0, 52, 0
1, 271089, Note_on_c, 0, 73, 0
1, 271089, Note_on_c, 0, 61, 0
1, 271089, Note_on_c, 0, 76, 68
1, 271092, Note_on_c, 0, 64, 68
1, 271092, Note_on_c, 0, 48, 66
1, 271101, Note_on_c, 0, 56, 0
1, 271161, Note_on_c, 0, 56, 54
1, 271173, Note_on_c, 0, 48, 0
1, 271233, Note_on_c, 0, 48, 59
1, 271245, Note_on_c, 0, 56, 0
1, 271306, Note_on_c, 0, 56, 52
1, 271318, Note_on_c, 0, 48, 0
1, 271378, Note_on_c, 0, 64, 0
1, 271378, Note_on_c, 0, 76, 0
1, 271378, Note_on_c, 0, 75, 67
1, 271381, Note_on_c, 0, 63, 67
1, 271381, Note_on_c, 0, 48, 66
1, 271389, Note_on_c, 0, 56, 0
1, 271445, Note_on_c, 0, 56, 52
1, 271457, Note_on_c, 0, 48, 0
1, 271513, Note_on_c, 0, 48, 58
1, 271524, Note_on_c, 0, 56, 0
1, 271580, Note_on_c, 0, 56, 51
1, 271591, Note_on_c, 0, 48, 0
1, 271648, Note_on_c, 0, 48, 66
1, 271659, Note_on_c, 0, 56, 0
1, 271715, Note_on_c, 0, 56, 51
1, 271726, Note_on_c, 0, 48, 0
1, 271783, Note_on_c, 0, 63, 0
1, 271783, Note_on_c, 0, 75, 0
1, 271783, Note_on_c, 0, 63, 66
1, 271786, Note_on_c, 0, 75, 66
1, 271786, Note_on_c, 0, 48, 57
1, 271796, Note_on_c, 0, 56, 0
1, 271860, Note_on_c, 0, 56, 51
1, 271873, Note_on_c, 0, 48, 0
1, 271938, Note_on_c, 0, 75, 0
1, 271938, Note_on_c, 0, 63, 0
1, 271938, Note_on_c, 0, 80, 74
1, 271941, Note_on_c, 0, 68, 74
1, 271941, Note_on_c, 0, 48, 66
1, 271951, Note_on_c, 0, 56, 0
1, 272016, Note_on_c, 0, 56, 51
1, 272028, Note_on_c, 0, 48, 0
1, 272093, Note_on_c, 0, 48, 57
1, 272106, Note_on_c, 0, 56, 0
1, 272171, Note_on_c, 0, 68, 0
1, 272171, Note_on_c, 0, 80, 0
1, 272171, Note_on_c, 0, 75, 66
1, 272174, Note_on_c, 0, 63, 66
1, 272174, Note_on_c, 0, 56, 51
1, 272184, Note_on_c, 0, 48, 0
1, 272248, Note_on_c, 0, 63, 0
1, 272248, Note_on_c, 0, 75, 0
1, 272248, Note_on_c, 0, 66, 69
1, 272251, Note_on_c, 0, 78, 69
1, 272251, Note_on_c, 0, 49, 66
1, 272260, Note_on_c, 0, 56, 0
1, 272316, Note_on_c, 0, 56, 61
1, 272327, Note_on_c, 0, 49, 0
1, 272384, Note_on_c, 0, 78, 0
1, 272384, Note_on_c, 0, 66, 0
1, 272384, Note_on_c, 0, 64, 67
1, 272387, Note_on_c, 0, 76, 67
1, 272387, Note_on_c, 0, 49, 66
1, 272395, Note_on_c, 0, 56, 0
1, 272451, Note_on_c, 0, 56, 61
1, 272462, Note_on_c, 0, 49, 0
1, 272519, Note_on_c, 0, 76, 0
1, 272519, Note_on_c, 0, 64, 0
1, 272519, Note_on_c, 0, 85, 74
1, 272522, Note_on_c, 0, 73, 74
1, 272522, Note_on_c, 0, 49, 68
1, 272530, Note_on_c, 0, 56, 0
1, 272586, Note_on_c, 0, 73, 0
1, 272586, Note_on_c, 0, 85, 0
1, 272586, Note_on_c, 0, 56, 65
1, 272598, Note_on_c, 0, 49, 0
1, 272654, Note_on_c, 0, 64, 71
1, 272654, Note_on_c, 0, 76, 71
1, 272654, Note_on_c, 0, 49, 71
1, 272665, Note_on_c, 0, 56, 0
1, 272722, Note_on_c, 0, 76, 0
1, 272722, Note_on_c, 0, 64, 0
1, 272722, Note_on_c, 0, 56, 67
1, 272733, Note_on_c, 0, 49, 0
1, 272790, Note_on_c, 0, 66, 78
1, 272790, Note_on_c, 0, 78, 78
1, 272790, Note_on_c, 0, 47, 73
1, 272801, Note_on_c, 0, 56, 0
1, 272859, Note_on_c, 0, 49, 70
1, 272870, Note_on_c, 0, 47, 0
1, 272928, Note_on_c, 0, 78, 0
1, 272928, Note_on_c, 0, 66, 0
1, 272928, Note_on_c, 0, 77, 77
1, 272931, Note_on_c, 0, 65, 77
1, 272931, Note_on_c, 0, 47, 76
1, 272940, Note_on_c, 0, 49, 0
1, 272998, Note_on_c, 0, 49, 71
1, 273009, Note_on_c, 0, 47, 0
1, 273067, Note_on_c, 0, 65, 0
1, 273067, Note_on_c, 0, 77, 0
1, 273067, Note_on_c, 0, 73, 81
1, 273070, Note_on_c, 0, 85, 81
1, 273070, Note_on_c, 0, 47, 78
1, 273079, Note_on_c, 0, 49, 0
1, 273137, Note_on_c, 0, 85, 0
1, 273137, Note_on_c, 0, 73, 0
1, 273137, Note_on_c, 0, 49, 73
1, 273148, Note_on_c, 0, 47, 0
1, 273206, Note_on_c, 0, 65, 81
1, 273206, Note_on_c, 0, 77, 81
1, 273206, Note_on_c, 0, 47, 80
1, 273218, Note_on_c, 0, 49, 0
1, 273276, Note_on_c, 0, 77, 0
1, 273276, Note_on_c, 0, 65, 0
1, 273276, Note_on_c, 0, 49, 73
1, 273287, Note_on_c, 0, 47, 0
1, 273345, Note_on_c, 0, 80, 88
1, 273345, Note_on_c, 0, 68, 88
1, 273345, Note_on_c, 0, 45, 83
1, 273357, Note_on_c, 0, 49, 0
1, 273415, Note_on_c, 0, 49, 77
1, 273427, Note_on_c, 0, 45, 0
1, 273484, Note_on_c, 0, 68, 0
1, 273484, Note_on_c, 0, 80, 0
1, 273484, Note_on_c, 0, 66, 85
1, 273487, Note_on_c, 0, 78, 85
1, 273487, Note_on_c, 0, 45, 84
1, 273496, Note_on_c, 0, 49, 0
1, 273554, Note_on_c, 0, 49, 79
1, 273566, Note_on_c, 0, 45, 0
1, 273624, Note_on_c, 0, 78, 0
1, 273624, Note_on_c, 0, 66, 0
1, 273624, Note_on_c, 0, 73, 91
1, 273627, Note_on_c, 0, 85, 91
1, 273627, Note_on_c, 0, 45, 88
1, 273635, Note_on_c, 0, 49, 0
1, 273693, Note_on_c, 0, 85, 0
1, 273693, Note_on_c, 0, 73, 0
1, 273693, Note_on_c, 0, 49, 82
1, 273705, Note_on_c, 0, 45, 0
1, 273764, Note_on_c, 0, 66, 90
1, 273764, Note_on_c, 0, 78, 90
1, 273764, Note_on_c, 0, 45, 90
1, 273776, Note_on_c, 0, 49, 0
1, 273836, Note_on_c, 0, 78, 0
1, 273836, Note_on_c, 0, 66, 0
1, 273836, Note_on_c, 0, 49, 83
1, 273848, Note_on_c, 0, 45, 0
1, 273907, Note_on_c, 0, 81, 96
1, 273907, Note_on_c, 0, 69, 96
1, 273907, Note_on_c, 0, 41, 92
1, 273919, Note_on_c, 0, 49, 0
1, 273980, Note_on_c, 0, 49, 88
1, 273992, Note_on_c, 0, 41, 0
1, 274053, Note_on_c, 0, 69, 0
1, 274053, Note_on_c, 0, 81, 0
1, 274053, Note_on_c, 0, 80, 95
1, 274056, Note_on_c, 0, 68, 95
1, 274056, Note_on_c, 0, 41, 95
1, 274065, Note_on_c, 0, 49, 0
1, 274126, Note_on_c, 0, 49, 90
1, 274139, Note_on_c, 0, 41, 0
1, 274201, Note_on_c, 0, 68, 0
1, 274201, Note_on_c, 0, 80, 0
1, 274201, Note_on_c, 0, 73, 102
1, 274204, Note_on_c, 0, 85, 102
1, 274204, Note_on_c, 0, 41, 96
1, 274212, Note_on_c, 0, 49, 0
1, 274274, Note_on_c, 0, 85, 0
1, 274274, Note_on_c, 0, 73, 0
1, 274274, Note_on_c, 0, 49, 91
1, 274287, Note_on_c, 0, 41, 0
1, 274353, Note_on_c, 0, 68, 100
1, 274353, Note_on_c, 0, 80, 100
1, 274353, Note_on_c, 0, 41, 100
1, 274366, Note_on_c, 0, 49, 0
1, 274432, Note_on_c, 0, 80, 0
1, 274432, Note_on_c, 0, 68, 0
1, 274432, Note_on_c, 0, 49, 93
1, 274446, Note_on_c, 0, 41, 0
1, 274514, Note_on_c, 0, 81, 109
1, 274514, Note_on_c, 0, 42, 103
1, 274514, Note_on_c, 0, 30, 89
1, 274517, Note_on_c, 0, 39, 89
1, 274525, Note_on_c, 0, 49, 0
1, 274537, Control_c, 0, 64, 127
1, 274603, Note_on_c, 0, 81, 0
1, 274603, Note_on_c, 0, 78, 89
1, 274693, Note_on_c, 0, 78, 0
1, 274693, Note_on_c, 0, 73, 88
1, 274783, Note_on_c, 0, 73, 0
1, 274783, Note_on_c, 0, 69, 96
1, 274811, Control_c, 0, 64, 0
1, 274835, Control_c, 0, 64, 127
1, 274873, Note_on_c, 0, 69, 0
1, 274873, Note_on_c, 0, 66, 84
1, 274963, Note_on_c, 0, 66, 0
1, 274963, Note_on_c, 0, 61, 85
1, 275053, Note_on_c, 0, 61, 0
1, 275053, Note_on_c, 0, 69, 94
1, 275057, Control_c, 0, 64, 0
1, 275097, Control_c, 0, 64, 127
1, 275143, Note_on_c, 0, 69, 0
1, 275143, Note_on_c, 0, 66, 85
1, 275233, Note_on_c, 0, 66, 0
1, 275233, Note_on_c, 0, 61, 85
1, 275323, Note_on_c, 0, 61, 0
1, 275323, Note_on_c, 0, 57, 94
1, 275327, Control_c, 0, 64, 0
1, 275363, Control_c, 0, 64, 127
1, 275413, Note_on_c, 0, 57, 0
1, 275413, Note_on_c, 0, 54, 82
1, 275503, Note_on_c, 0, 54, 0
1, 275503, Note_on_c, 0, 49, 84
1, 275593, Note_on_c, 0, 49, 0
1, 275593, Note_on_c, 0, 57, 102
1, 275593, Control_c, 0, 64, 0
1, 275616, Control_c, 0, 64, 127
1, 275660, Note_on_c, 0, 57, 0
1, 275660, Note_on_c, 0, 54, 82
1, 275720, Control_c, 0, 64, 0
1, 275728, Note_on_c, 0, 54, 0
1, 275728, Note_on_c, 0, 49, 89
1, 275740, Control_c, 0, 64, 127
1, 275795, Note_on_c, 0, 49, 0
1, 275795, Note_on_c, 0, 45, 83
1, 275863, Note_on_c, 0, 45, 0
1, 275863, Note_on_c, 0, 49, 94
1, 275882, Control_c, 0, 64, 0
1, 275907, Control_c, 0, 64, 127
1, 275930, Note_on_c, 0, 49, 0
1, 275930, Note_on_c, 0, 52, 84
1, 275998, Note_on_c, 0, 52, 0
1, 275998, Note_on_c, 0, 56, 89
1, 276006, Control_c, 0, 64, 0
1, 276038, Control_c, 0, 64, 127
1, 276065, Note_on_c, 0, 56, 0
1, 276065, Note_on_c, 0, 61, 83
1, 276117, Control_c, 0, 64, 0
1, 276133, Note_on_c, 0, 61, 0
1, 276133, Note_on_c, 0, 66, 94
1, 276148, Control_c, 0, 64, 127
1, 276200, Note_on_c, 0, 66, 0
1, 276200, Note_on_c, 0, 69, 82
1, 276267, Note_on_c, 0, 69, 0
1, 276267, Note_on_c, 0, 73, 89
1, 276335, Note_on_c, 0, 73, 0
1, 276335, Note_on_c, 0, 78, 81
1, 276375, Control_c, 0, 64, 0
1, 276402, Note_on_c, 0, 78, 0
1, 276402, Note_on_c, 0, 81, 95
1, 276414, Control_c, 0, 64, 127
1, 276470, Note_on_c, 0, 81, 0
1, 276470, Note_on_c, 0, 78, 85
1, 276537, Note_on_c, 0, 78, 0
1, 276537, Note_on_c, 0, 73, 90
1, 276606, Note_on_c, 0, 73, 0
1, 276606, Note_on_c, 0, 69, 87
1, 276671, Control_c, 0, 64, 0
1, 276674, Note_on_c, 0, 69, 0
1, 276674, Note_on_c, 0, 81, 109
1, 276674, Note_on_c, 0, 42, 0
1, 276677, Note_on_c, 0, 30, 0
1, 276677, Note_on_c, 0, 39, 0
1, 276677, Note_on_c, 0, 38, 73
1, 276680, Note_on_c, 0, 42, 85
1, 276680, Note_on_c, 0, 30, 73
1, 276687, Control_c, 0, 64, 127
1, 276764, Note_on_c, 0, 81, 0
1, 276764, Note_on_c, 0, 78, 87
1, 276854, Note_on_c, 0, 78, 0
1, 276854, Note_on_c, 0, 74, 88
1, 276925, Control_c, 0, 64, 0
1, 276944, Note_on_c, 0, 74, 0
1, 276944, Note_on_c, 0, 69, 94
1, 276950, Control_c, 0, 64, 127
1, 277034, Note_on_c, 0, 69, 0
1, 277034, Note_on_c, 0, 66, 84
1, 277124, Note_on_c, 0, 66, 0
1, 277124, Note_on_c, 0, 62, 87
1, 277195, Control_c, 0, 64, 0
1, 277214, Note_on_c, 0, 62, 0
1, 277214, Note_on_c, 0, 69, 93
1, 277220, Control_c, 0, 64, 127
1, 277304, Note_on_c, 0, 69, 0
1, 277304, Note_on_c, 0, 66, 83
1, 277394, Note_on_c, 0, 66, 0
1, 277394, Note_on_c, 0, 62, 85
1, 277468, Control_c, 0, 64, 0
1, 277484, Note_on_c, 0, 62, 0
1, 277484, Note_on_c, 0, 57, 95
1, 277500, Control_c, 0, 64, 127
1, 277574, Note_on_c, 0, 57, 0
1, 277574, Note_on_c, 0, 54, 83
1, 277664, Note_on_c, 0, 54, 0
1, 277664, Note_on_c, 0, 50, 84
1, 277754, Note_on_c, 0, 50, 0
1, 277754, Note_on_c, 0, 57, 101
1, 277754, Control_c, 0, 64, 0
1, 277773, Control_c, 0, 64, 127
1, 277821, Note_on_c, 0, 57, 0
1, 277821, Note_on_c, 0, 54, 87
1, 277857, Control_c, 0, 64, 0
1, 277885, Control_c, 0, 64, 127
1, 277889, Note_on_c, 0, 54, 0
1, 277889, Note_on_c, 0, 50, 93
1, 277956, Note_on_c, 0, 50, 0
1, 277956, Note_on_c, 0, 45, 88
1, 278011, Control_c, 0, 64, 0
1, 278024, Note_on_c, 0, 45, 0
1, 278024, Note_on_c, 0, 50, 96
1, 278033, Control_c, 0, 64, 127
1, 278091, Note_on_c, 0, 50, 0
1, 278091, Note_on_c, 0, 54, 83
1, 278142, Control_c, 0, 64, 0
1, 278158, Note_on_c, 0, 54, 0
1, 278158, Note_on_c, 0, 57, 90
1, 278168, Control_c, 0, 64, 127
1, 278226, Note_on_c, 0, 57, 0
1, 278226, Note_on_c, 0, 62, 85
1, 278265, Control_c, 0, 64, 0
1, 278293, Note_on_c, 0, 62, 0
1, 278293, Note_on_c, 0, 66, 95
1, 278313, Control_c, 0, 64, 127
1, 278361, Note_on_c, 0, 66, 0
1, 278361, Note_on_c, 0, 69, 83
1, 278428, Note_on_c, 0, 69, 0
1, 278428, Note_on_c, 0, 74, 90
1, 278496, Note_on_c, 0, 74, 0
1, 278496, Note_on_c, 0, 78, 87
1, 278557, Control_c, 0, 64, 0
1, 278563, Note_on_c, 0, 78, 0
1, 278563, Note_on_c, 0, 81, 102
1, 278586, Control_c, 0, 64, 127
1, 278631, Note_on_c, 0, 81, 0
1, 278631, Note_on_c, 0, 78, 88
1, 278699, Note_on_c, 0, 78, 0
1, 278699, Note_on_c, 0, 74, 93
1, 278768, Note_on_c, 0, 74, 0
1, 278768, Note_on_c, 0, 69, 89
1, 278837, Note_on_c, 0, 69, 0
1, 278837, Note_on_c, 0, 85, 110
1, 278837, Note_on_c, 0, 30, 0
1, 278840, Note_on_c, 0, 42, 0
1, 278840, Note_on_c, 0, 38, 0
1, 278840, Control_c, 0, 64, 0
1, 278843, Note_on_c, 0, 37, 73
1, 278843, Note_on_c, 0, 31, 73
1, 278843, Note_on_c, 0, 43, 85
1, 278856, Control_c, 0, 64, 127
1, 278927, Note_on_c, 0, 85, 0
1, 278927, Note_on_c, 0, 82, 90
1, 279016, Note_on_c, 0, 82, 0
1, 279016, Note_on_c, 0, 79, 89
1, 279100, Control_c, 0, 64, 0
1, 279106, Note_on_c, 0, 79, 0
1, 279106, Note_on_c, 0, 76, 102
1, 279129, Control_c, 0, 64, 127
1, 279196, Note_on_c, 0, 76, 0
1, 279196, Note_on_c, 0, 73, 87
1, 279286, Note_on_c, 0, 73, 0
1, 279286, Note_on_c, 0, 70, 89
1, 279373, Control_c, 0, 64, 0
1, 279376, Note_on_c, 0, 70, 0
1, 279376, Note_on_c, 0, 76, 102
1, 279399, Control_c, 0, 64, 127
1, 279466, Note_on_c, 0, 76, 0
1, 279466, Note_on_c, 0, 73, 90
1, 279556, Note_on_c, 0, 73, 0
1, 279556, Note_on_c, 0, 70, 90
1, 279627, Control_c, 0, 64, 0
1, 279646, Note_on_c, 0, 70, 0
1, 279646, Note_on_c, 0, 67, 98
1, 279669, Control_c, 0, 64, 127
1, 279714, Note_on_c, 0, 67, 0
1, 279714, Note_on_c, 0, 64, 83
1, 279781, Note_on_c, 0, 64, 0
1, 279781, Note_on_c, 0, 61, 89
1, 279848, Note_on_c, 0, 61, 0
1, 279848, Note_on_c, 0, 58, 84
1, 279916, Note_on_c, 0, 58, 0
1, 279916, Note_on_c, 0, 64, 95
1, 279916, Control_c, 0, 64, 0
1, 279933, Control_c, 0, 64, 127
1, 279983, Note_on_c, 0, 64, 0
1, 279983, Note_on_c, 0, 61, 85
1, 280051, Note_on_c, 0, 61, 0
1, 280051, Note_on_c, 0, 58, 91
1, 280118, Note_on_c, 0, 58, 0
1, 280118, Note_on_c, 0, 55, 85
1, 280173, Control_c, 0, 64, 0
1, 280186, Note_on_c, 0, 55, 0
1, 280186, Note_on_c, 0, 52, 96
1, 280186, Control_c, 0, 64, 127
1, 280253, Note_on_c, 0, 52, 0
1, 280253, Note_on_c, 0, 49, 87
1, 280311, Control_c, 0, 64, 0
1, 280321, Note_on_c, 0, 49, 0
1, 280321, Note_on_c, 0, 52, 91
1, 280321, Control_c, 0, 64, 127
1, 280388, Note_on_c, 0, 52, 0
1, 280388, Note_on_c, 0, 55, 85
1, 280456, Note_on_c, 0, 55, 0
1, 280456, Note_on_c, 0, 57, 103
1, 280456, Control_c, 0, 64, 0
1, 280467, Control_c, 0, 64, 127
1, 280501, Note_on_c, 0, 57, 0
1, 280501, Note_on_c, 0, 61, 86
1, 280546, Note_on_c, 0, 61, 0
1, 280546, Note_on_c, 0, 64, 92
1, 280592, Note_on_c, 0, 64, 0
1, 280592, Note_on_c, 0, 67, 88
1, 280637, Note_on_c, 0, 67, 0
1, 280637, Note_on_c, 0, 70, 93
1, 280683, Note_on_c, 0, 70, 0
1, 280683, Note_on_c, 0, 73, 87
1, 280728, Note_on_c, 0, 73, 0
1, 280728, Note_on_c, 0, 76, 94
1, 280728, Control_c, 0, 64, 0
1, 280750, Control_c, 0, 64, 127
1, 280774, Note_on_c, 0, 76, 0
1, 280774, Note_on_c, 0, 79, 89
1, 280820, Note_on_c, 0, 79, 0
1, 280820, Note_on_c, 0, 82, 95
1, 280866, Note_on_c, 0, 82, 0
1, 280866, Note_on_c, 0, 85, 89
1, 280913, Note_on_c, 0, 85, 0
1, 280913, Note_on_c, 0, 82, 96
1, 280959, Note_on_c, 0, 82, 0
1, 280959, Note_on_c, 0, 76, 90
1, 280995, Control_c, 0, 64, 0
1, 281005, Note_on_c, 0, 76, 0
1, 281005, Note_on_c, 0, 88, 113
1, 281005, Note_on_c, 0, 43, 0
1, 281008, Note_on_c, 0, 31, 0
1, 281008, Note_on_c, 0, 37, 0
1, 281008, Note_on_c, 0, 37, 72
1, 281011, Note_on_c, 0, 44, 84
1, 281011, Note_on_c, 0, 32, 72
1, 281041, Control_c, 0, 64, 127
1, 281095, Note_on_c, 0, 88, 0
1, 281095, Note_on_c, 0, 85, 89
1, 281185, Note_on_c, 0, 85, 0
1, 281185, Note_on_c, 0, 80, 89
1, 281275, Note_on_c, 0, 80, 0
1, 281275, Note_on_c, 0, 76, 102
1, 281275, Control_c, 0, 64, 0
1, 281307, Control_c, 0, 64, 127
1, 281365, Note_on_c, 0, 76, 0
1, 281365, Note_on_c, 0, 73, 88
1, 281455, Note_on_c, 0, 73, 0
1, 281455, Note_on_c, 0, 68, 89
1, 281545, Note_on_c, 0, 68, 0
1, 281545, Note_on_c, 0, 76, 102
1, 281545, Control_c, 0, 64, 0
1, 281576, Control_c, 0, 64, 127
1, 281635, Note_on_c, 0, 76, 0
1, 281635, Note_on_c, 0, 73, 88
1, 281725, Note_on_c, 0, 73, 0
1, 281725, Note_on_c, 0, 68, 88
1, 281799, Control_c, 0, 64, 0
1, 281815, Note_on_c, 0, 68, 0
1, 281815, Note_on_c, 0, 64, 102
1, 281842, Control_c, 0, 64, 127
1, 281882, Note_on_c, 0, 64, 0
1, 281882, Note_on_c, 0, 73, 89
1, 281950, Note_on_c, 0, 73, 0
1, 281950, Note_on_c, 0, 68, 93
1, 282017, Note_on_c, 0, 68, 0
1, 282017, Note_on_c, 0, 64, 90
1, 282085, Note_on_c, 0, 64, 0
1, 282085, Note_on_c, 0, 61, 103
1, 282085, Control_c, 0, 64, 0
1, 282121, Control_c, 0, 64, 127
1, 282152, Note_on_c, 0, 61, 0
1, 282152, Note_on_c, 0, 68, 87
1, 282220, Note_on_c, 0, 68, 0
1, 282220, Note_on_c, 0, 64, 90
1, 282287, Note_on_c, 0, 64, 0
1, 282287, Note_on_c, 0, 61, 87
1, 282354, Note_on_c, 0, 61, 0
1, 282354, Note_on_c, 0, 56, 102
1, 282370, Control_c, 0, 64, 0
1, 282406, Control_c, 0, 64, 127
1, 282422, Note_on_c, 0, 56, 0
1, 282422, Note_on_c, 0, 64, 85
1, 282489, Note_on_c, 0, 64, 0
1, 282489, Note_on_c, 0, 61, 89
1, 282557, Note_on_c, 0, 61, 0
1, 282557, Note_on_c, 0, 56, 84
1, 282612, Control_c, 0, 64, 0
1, 282624, Note_on_c, 0, 56, 0
1, 282624, Note_on_c, 0, 52, 103
1, 282656, Control_c, 0, 64, 127
1, 282692, Note_on_c, 0, 52, 0
1, 282692, Note_on_c, 0, 61, 87
1, 282759, Note_on_c, 0, 61, 0
1, 282759, Note_on_c, 0, 56, 91
1, 282827, Note_on_c, 0, 56, 0
1, 282827, Note_on_c, 0, 52, 87
1, 282894, Note_on_c, 0, 52, 0
1, 282894, Note_on_c, 0, 49, 102
1, 282894, Control_c, 0, 64, 0
1, 282934, Control_c, 0, 64, 127
1, 282962, Note_on_c, 0, 49, 0
1, 282962, Note_on_c, 0, 56, 85
1, 283029, Note_on_c, 0, 56, 0
1, 283029, Note_on_c, 0, 52, 90
1, 283097, Note_on_c, 0, 52, 0
1, 283097, Note_on_c, 0, 49, 84
1, 283144, Control_c, 0, 64, 0
1, 283164, Note_on_c, 0, 49, 0
1, 283164, Note_on_c, 0, 44, 66
1, 283164, Note_on_c, 0, 32, 0
1, 283167, Note_on_c, 0, 44, 0
1, 283167, Note_on_c, 0, 37, 0
1, 283231, Note_on_c, 0, 44, 0
1, 283231, Note_on_c, 0, 45, 66
1, 283299, Note_on_c, 0, 45, 0
1, 283299, Note_on_c, 0, 46, 67
1, 283366, Note_on_c, 0, 46, 0
1, 283366, Note_on_c, 0, 47, 68
1, 283434, Note_on_c, 0, 47, 0
1, 283434, Note_on_c, 0, 48, 70
1, 283501, Note_on_c, 0, 48, 0
1, 283501, Note_on_c, 0, 49, 71
1, 283569, Note_on_c, 0, 49, 0
1, 283569, Note_on_c, 0, 50, 71
1, 283636, Note_on_c, 0, 50, 0
1, 283636, Note_on_c, 0, 51, 72
1, 283704, Note_on_c, 0, 51, 0
1, 283704, Note_on_c, 0, 52, 74
1, 283771, Note_on_c, 0, 52, 0
1, 283771, Note_on_c, 0, 53, 76
1, 283839, Note_on_c, 0, 53, 0
1, 283839, Note_on_c, 0, 54, 77
1, 283906, Note_on_c, 0, 54, 0
1, 283906, Note_on_c, 0, 55, 78
1, 283973, Note_on_c, 0, 55, 0
1, 283973, Note_on_c, 0, 56, 79
1, 284041, Note_on_c, 0, 56, 0
1, 284041, Note_on_c, 0, 57, 80
1, 284108, Note_on_c, 0, 57, 0
1, 284108, Note_on_c, 0, 58, 81
1, 284176, Note_on_c, 0, 58, 0
1, 284176, Note_on_c, 0, 59, 82
1, 284243, Note_on_c, 0, 59, 0
1, 284243, Note_on_c, 0, 60, 84
1, 284311, Note_on_c, 0, 60, 0
1, 284311, Note_on_c, 0, 61, 84
1, 284378, Note_on_c, 0, 61, 0
1, 284378, Note_on_c, 0, 62, 85
1, 284446, Note_on_c, 0, 62, 0
1, 284446, Note_on_c, 0, 63, 87
1, 284513, Note_on_c, 0, 63, 0
1, 284513, Note_on_c, 0, 64, 89
1, 284567, Note_on_c, 0, 64, 0
1, 284567, Note_on_c, 0, 65, 90
1, 284621, Note_on_c, 0, 65, 0
1, 284621, Note_on_c, 0, 66, 90
1, 284675, Note_on_c, 0, 66, 0
1, 284675, Note_on_c, 0, 67, 91
1, 284729, Note_on_c, 0, 67, 0
1, 284729, Note_on_c, 0, 68, 92
1, 284783, Note_on_c, 0, 68, 0
1, 284783, Note_on_c, 0, 69, 93
1, 284800, Control_c, 0, 64, 127
1, 284837, Note_on_c, 0, 69, 0
1, 284837, Note_on_c, 0, 70, 94
1, 284891, Note_on_c, 0, 70, 0
1, 284891, Note_on_c, 0, 71, 95
1, 284945, Note_on_c, 0, 71, 0
1, 284945, Note_on_c, 0, 72, 96
1, 284999, Note_on_c, 0, 72, 0
1, 284999, Note_on_c, 0, 73, 96
1, 285053, Note_on_c, 0, 73, 0
1, 285053, Note_on_c, 0, 74, 98
1, 285059, Control_c, 0, 64, 0
1, 285066, Control_c, 0, 64, 127
1, 285098, Note_on_c, 0, 74, 0
1, 285098, Note_on_c, 0, 75, 98
1, 285143, Note_on_c, 0, 75, 0
1, 285143, Note_on_c, 0, 76, 99
1, 285188, Note_on_c, 0, 76, 0
1, 285188, Note_on_c, 0, 77, 100
1, 285221, Note_on_c, 0, 77, 0
1, 285221, Note_on_c, 0, 78, 101
1, 285255, Note_on_c, 0, 78, 0
1, 285255, Note_on_c, 0, 79, 101
1, 285289, Note_on_c, 0, 79, 0
1, 285324, Note_on_c, 0, 81, 106
1, 285324, Control_c, 0, 64, 0
1, 285324, Note_on_c, 0, 60, 84
1, 285327, Note_on_c, 0, 66, 84
1, 285327, Note_on_c, 0, 56, 84
1, 285368, Control_c, 0, 64, 127
1, 285390, Note_on_c, 0, 81, 0
1, 285390, Note_on_c, 0, 83, 95
1, 285455, Note_on_c, 0, 83, 0
1, 285455, Note_on_c, 0, 81, 101
1, 285515, Note_on_c, 0, 81, 0
1, 285515, Note_on_c, 0, 83, 94
1, 285572, Note_on_c, 0, 83, 0
1, 285572, Note_on_c, 0, 81, 103
1, 285630, Note_on_c, 0, 81, 0
1, 285630, Note_on_c, 0, 83, 94
1, 285688, Note_on_c, 0, 83, 0
1, 285688, Note_on_c, 0, 81, 106
1, 285745, Note_on_c, 0, 81, 0
1, 285745, Note_on_c, 0, 83, 98
1, 285802, Note_on_c, 0, 83, 0
1, 285802, Note_on_c, 0, 81, 106
1, 285857, Note_on_c, 0, 81, 0
1, 285857, Note_on_c, 0, 83, 96
1, 285914, Note_on_c, 0, 83, 0
1, 285914, Note_on_c, 0, 81, 106
1, 285970, Note_on_c, 0, 81, 0
1, 285970, Note_on_c, 0, 83, 103
1, 286027, Note_on_c, 0, 83, 0
1, 286027, Note_on_c, 0, 81, 104
1, 286033, Control_c, 0, 64, 0
1, 286053, Control_c, 0, 64, 127
1, 286081, Note_on_c, 0, 81, 0
1, 286081, Note_on_c, 0, 83, 100
1, 286136, Note_on_c, 0, 83, 0
1, 286136, Note_on_c, 0, 81, 103
1, 286192, Note_on_c, 0, 81, 0
1, 286192, Note_on_c, 0, 83, 100
1, 286248, Note_on_c, 0, 83, 0
1, 286248, Note_on_c, 0, 81, 102
1, 286300, Note_on_c, 0, 81, 0
1, 286300, Note_on_c, 0, 83, 98
1, 286355, Note_on_c, 0, 83, 0
1, 286355, Note_on_c, 0, 81, 101
1, 286411, Note_on_c, 0, 81, 0
1, 286411, Note_on_c, 0, 83, 93
1, 286470, Note_on_c, 0, 83, 0
1, 286470, Note_on_c, 0, 81, 98
1, 286529, Note_on_c, 0, 81, 0
1, 286529, Note_on_c, 0, 83, 90
1, 286590, Note_on_c, 0, 83, 0
1, 286590, Note_on_c, 0, 81, 98
1, 286660, Note_on_c, 0, 81, 0
1, 286660, Note_on_c, 0, 83, 90
1, 286701, Control_c, 0, 64, 0
1, 286733, Note_on_c, 0, 83, 0
1, 286733, Note_on_c, 0, 80, 99
1, 286733, Note_on_c, 0, 56, 0
1, 286736, Note_on_c, 0, 66, 0
1, 286736, Note_on_c, 0, 60, 0
1, 286967, Note_on_c, 0, 80, 0
1, 286967, Note_on_c, 0, 78, 84
1, 287207, Note_on_c, 0, 78, 0
1, 287207, Note_on_c, 0, 76, 84
1, 287447, Note_on_c, 0, 76, 0
1, 287447, Note_on_c, 0, 75, 84
1, 287672, Note_on_c, 0, 75, 0
1, 287672, Note_on_c, 0, 78, 87
1, 287879, Note_on_c, 0, 78, 0
1, 287879, Note_on_c, 0, 73, 84
1, 288068, Note_on_c, 0, 73, 0
1, 288068, Note_on_c, 0, 72, 84
1, 288247, Note_on_c, 0, 72, 0
1, 288247, Note_on_c, 0, 75, 87
1, 288414, Note_on_c, 0, 75, 0
1, 288414, Note_on_c, 0, 69, 84
1, 288575, Note_on_c, 0, 69, 0
1, 288575, Note_on_c, 0, 68, 84
1, 288730, Note_on_c, 0, 68, 0
1, 288730, Note_on_c, 0, 66, 84
1, 288877, Note_on_c, 0, 66, 0
1, 288877, Note_on_c, 0, 69, 87
1, 289013, Note_on_c, 0, 69, 0
1, 289013, Note_on_c, 0, 64, 84
1, 289149, Note_on_c, 0, 64, 0
1, 289149, Note_on_c, 0, 63, 84
1, 289281, Note_on_c, 0, 63, 0
1, 289281, Note_on_c, 0, 66, 88
1, 289407, Note_on_c, 0, 66, 0
1, 289407, Note_on_c, 0, 61, 84
1, 289530, Note_on_c, 0, 61, 0
1, 289530, Note_on_c, 0, 60, 83
1, 289648, Note_on_c, 0, 60, 0
1, 289648, Note_on_c, 0, 63, 83
1, 289761, Note_on_c, 0, 63, 0
1, 289761, Note_on_c, 0, 57, 84
1, 289871, Note_on_c, 0, 57, 0
1, 289871, Note_on_c, 0, 56, 83
1, 289978, Note_on_c, 0, 56, 0
1, 289978, Note_on_c, 0, 54, 83
1, 290082, Note_on_c, 0, 54, 0
1, 290082, Note_on_c, 0, 57, 85
1, 290183, Note_on_c, 0, 57, 0
1, 290183, Note_on_c, 0, 52, 83
1, 290279, Note_on_c, 0, 52, 0
1, 290279, Note_on_c, 0, 51, 83
1, 290372, Note_on_c, 0, 51, 0
1, 290372, Note_on_c, 0, 54, 87
1, 290461, Note_on_c, 0, 54, 0
1, 290461, Note_on_c, 0, 49, 83
1, 290545, Note_on_c, 0, 49, 0
1, 290545, Note_on_c, 0, 48, 83
1, 290630, Note_on_c, 0, 48, 0
1, 290630, Note_on_c, 0, 51, 82
1, 290930, Note_on_c, 0, 51, 0
1, 291042, Note_on_c, 0, 45, 79
1, 291431, Note_on_c, 0, 45, 0
1, 291588, Note_on_c, 0, 44, 72
1, 292196, Note_on_c, 0, 44, 0
1, 292465, Note_on_c, 0, 31, 49
1, 292465, Note_on_c, 0, 43, 56
1, 292475, Control_c, 0, 64, 127
1, 294190, Note_on_c, 0, 43, 0
1, 294190, Note_on_c, 0, 31, 0
1, 294190, Control_c, 0, 64, 0
1, 294193, Note_on_c, 0, 32, 44
1, 294193, Note_on_c, 0, 44, 51
1, 294477, Control_c, 0, 64, 127
1, 295762, Control_c, 0, 64, 0
1, 295914, Note_on_c, 0, 44, 0
1, 295914, Note_on_c, 0, 32, 0
1, 295914, Note_on_c, 0, 37, 54
1, 295917, Note_on_c, 0, 49, 54
1, 295988, Note_on_c, 0, 37, 0
1, 295988, Note_on_c, 0, 49, 47
1, 296063, Note_on_c, 0, 49, 0
1, 296063, Note_on_c, 0, 44, 52
1, 296137, Note_on_c, 0, 44, 0
1, 296137, Note_on_c, 0, 49, 47
1, 296211, Note_on_c, 0, 49, 0
1, 296211, Note_on_c, 0, 49, 0
1, 296211, Note_on_c, 0, 37, 54
1, 296286, Note_on_c, 0, 37, 0
1, 296286, Note_on_c, 0, 49, 47
1, 296360, Note_on_c, 0, 44, 52
1, 296372, Note_on_c, 0, 49, 0
1, 296434, Note_on_c, 0, 49, 46
1, 296447, Note_on_c, 0, 44, 0
1, 296509, Note_on_c, 0, 37, 54
1, 296521, Note_on_c, 0, 49, 0
1, 296583, Note_on_c, 0, 49, 48
1, 296595, Note_on_c, 0, 37, 0
1, 296657, Note_on_c, 0, 44, 52
1, 296670, Note_on_c, 0, 49, 0
1, 296732, Note_on_c, 0, 49, 48
1, 296744, Note_on_c, 0, 44, 0
1, 296806, Note_on_c, 0, 64, 59
1, 296806, Note_on_c, 0, 37, 54
1, 296818, Note_on_c, 0, 49, 0
1, 296880, Note_on_c, 0, 49, 48
1, 296893, Note_on_c, 0, 37, 0
1, 296955, Note_on_c, 0, 44, 52
1, 296967, Note_on_c, 0, 49, 0
1, 297029, Note_on_c, 0, 64, 0
1, 297029, Note_on_c, 0, 61, 59
1, 297029, Note_on_c, 0, 49, 46
1, 297041, Note_on_c, 0, 44, 0
1, 297103, Note_on_c, 0, 61, 0
1, 297103, Note_on_c, 0, 60, 68
1, 297103, Note_on_c, 0, 37, 54
1, 297116, Note_on_c, 0, 49, 0
1, 297178, Note_on_c, 0, 51, 47
1, 297190, Note_on_c, 0, 37, 0
1, 297252, Note_on_c, 0, 44, 52
1, 297264, Note_on_c, 0, 51, 0
1, 297326, Note_on_c, 0, 51, 47
1, 297339, Note_on_c, 0, 44, 0
1, 297401, Note_on_c, 0, 60, 0
1, 297401, Note_on_c, 0, 60, 60
1, 297401, Note_on_c, 0, 68, 60
1, 297404, Note_on_c, 0, 54, 60
1, 297404, Note_on_c, 0, 37, 54
1, 297413, Note_on_c, 0, 51, 0
1, 297477, Note_on_c, 0, 51, 46
1, 297490, Note_on_c, 0, 37, 0
1, 297554, Note_on_c, 0, 44, 52
1, 297567, Note_on_c, 0, 51, 0
1, 297631, Note_on_c, 0, 51, 47
1, 297643, Note_on_c, 0, 44, 0
1, 297707, Note_on_c, 0, 54, 0
1, 297707, Note_on_c, 0, 68, 0
1, 297707, Note_on_c, 0, 60, 0
1, 297710, Note_on_c, 0, 60, 59
1, 297710, Note_on_c, 0, 54, 59
1, 297710, Note_on_c, 0, 68, 59
1, 297713, Note_on_c, 0, 37, 54
1, 297720, Note_on_c, 0, 51, 0
1, 297784, Note_on_c, 0, 51, 48
1, 297797, Note_on_c, 0, 37, 0
1, 297861, Note_on_c, 0, 44, 52
1, 297874, Note_on_c, 0, 51, 0
1, 297938, Note_on_c, 0, 51, 52
1, 297950, Note_on_c, 0, 44, 0
1, 298014, Note_on_c, 0, 68, 0
1, 298014, Note_on_c, 0, 54, 0
1, 298014, Note_on_c, 0, 60, 0
1, 298017, Note_on_c, 0, 68, 59
1, 298017, Note_on_c, 0, 60, 59
1, 298017, Note_on_c, 0, 54, 59
1, 298020, Note_on_c, 0, 37, 54
1, 298027, Note_on_c, 0, 51, 0
1, 298091, Note_on_c, 0, 51, 46
1, 298104, Note_on_c, 0, 37, 0
1, 298168, Note_on_c, 0, 44, 52
1, 298180, Note_on_c, 0, 51, 0
1, 298244, Note_on_c, 0, 54, 0
1, 298244, Note_on_c, 0, 60, 0
1, 298244, Note_on_c, 0, 68, 0
1, 298247, Note_on_c, 0, 52, 49
1, 298247, Note_on_c, 0, 51, 47
1, 298262, Note_on_c, 0, 44, 0
1, 298299, Note_on_c, 0, 52, 0
1, 298299, Note_on_c, 0, 61, 56
1, 298353, Note_on_c, 0, 61, 0
1, 298353, Note_on_c, 0, 68, 68
1, 298353, Note_on_c, 0, 37, 54
1, 298365, Note_on_c, 0, 51, 0
1, 298426, Note_on_c, 0, 49, 46
1, 298438, Note_on_c, 0, 37, 0
1, 298499, Note_on_c, 0, 44, 52
1, 298512, Note_on_c, 0, 49, 0
1, 298573, Note_on_c, 0, 49, 47
1, 298585, Note_on_c, 0, 44, 0
1, 298646, Note_on_c, 0, 37, 54
1, 298658, Note_on_c, 0, 49, 0
1, 298719, Note_on_c, 0, 49, 48
1, 298732, Note_on_c, 0, 37, 0
1, 298793, Note_on_c, 0, 44, 52
1, 298805, Note_on_c, 0, 49, 0
1, 298866, Note_on_c, 0, 49, 46
1, 298878, Note_on_c, 0, 44, 0
1, 298939, Note_on_c, 0, 37, 54
1, 298951, Note_on_c, 0, 49, 0
1, 299013, Note_on_c, 0, 49, 47
1, 299025, Note_on_c, 0, 37, 0
1, 299086, Note_on_c, 0, 44, 52
1, 299098, Note_on_c, 0, 49, 0
1, 299159, Note_on_c, 0, 49, 47
1, 299171, Note_on_c, 0, 44, 0
1, 299233, Note_on_c, 0, 68, 0
1, 299233, Note_on_c, 0, 76, 66
1, 299233, Note_on_c, 0, 37, 54
1, 299245, Note_on_c, 0, 49, 0
1, 299307, Note_on_c, 0, 49, 47
1, 299319, Note_on_c, 0, 37, 0
1, 299381, Note_on_c, 0, 44, 52
1, 299394, Note_on_c, 0, 49, 0
1, 299455, Note_on_c, 0, 76, 0
1, 299455, Note_on_c, 0, 73, 66
1, 299455, Note_on_c, 0, 49, 46
1, 299468, Note_on_c, 0, 44, 0
1, 299530, Note_on_c, 0, 73, 0
1, 299530, Note_on_c, 0, 72, 76
1, 299530, Note_on_c, 0, 37, 54
1, 299542, Note_on_c, 0, 49, 0
1, 299604, Note_on_c, 0, 51, 47
1, 299617, Note_on_c, 0, 37, 0
1, 299678, Note_on_c, 0, 44, 52
1, 299691, Note_on_c, 0, 51, 0
1, 299753, Note_on_c, 0, 51, 47
1, 299765, Note_on_c, 0, 44, 0
1, 299827, Note_on_c, 0, 72, 0
1, 299827, Note_on_c, 0, 66, 66
1, 299827, Note_on_c, 0, 72, 66
1, 299830, Note_on_c, 0, 80, 66
1, 299830, Note_on_c, 0, 37, 54
1, 299840, Note_on_c, 0, 51, 0
1, 299903, Note_on_c, 0, 51, 49
1, 299915, Note_on_c, 0, 37, 0
1, 299978, Note_on_c, 0, 44, 52
1, 299991, Note_on_c, 0, 51, 0
1, 300054, Note_on_c, 0, 51, 46
1, 300067, Note_on_c, 0, 44, 0
1, 300130, Note_on_c, 0, 80, 0
1, 300130, Note_on_c, 0, 72, 0
1, 300130, Note_on_c, 0, 66, 0
1, 300133, Note_on_c, 0, 66, 66
1, 300133, Note_on_c, 0, 80, 66
1, 300133, Note_on_c, 0, 72, 66
1, 300136, Note_on_c, 0, 37, 54
1, 300142, Note_on_c, 0, 51, 0
1, 300205, Note_on_c, 0, 51, 47
1, 300218, Note_on_c, 0, 37, 0
1, 300281, Note_on_c, 0, 44, 52
1, 300293, Note_on_c, 0, 51, 0
1, 300357, Note_on_c, 0, 51, 47
1, 300369, Note_on_c, 0, 44, 0
1, 300432, Note_on_c, 0, 72, 0
1, 300432, Note_on_c, 0, 80, 0
1, 300432, Note_on_c, 0, 66, 0
1, 300435, Note_on_c, 0, 66, 66
1, 300435, Note_on_c, 0, 80, 66
1, 300435, Note_on_c, 0, 72, 66
1, 300438, Note_on_c, 0, 37, 54
1, 300445, Note_on_c, 0, 51, 0
1, 300508, Note_on_c, 0, 51, 48
1, 300520, Note_on_c, 0, 37, 0
1, 300583, Note_on_c, 0, 44, 52
1, 300596, Note_on_c, 0, 51, 0
1, 300659, Note_on_c, 0, 72, 0
1, 300659, Note_on_c, 0, 80, 0
1, 300659, Note_on_c, 0, 66, 0
1, 300662, Note_on_c, 0, 64, 59
1, 300662, Note_on_c, 0, 51, 48
1, 300677, Note_on_c, 0, 44, 0
1, 300713, Note_on_c, 0, 64, 0
1, 300713, Note_on_c, 0, 73, 65
1, 300766, Note_on_c, 0, 73, 0
1, 300766, Note_on_c, 0, 80, 79
1, 300766, Note_on_c, 0, 37, 54
1, 300779, Note_on_c, 0, 51, 0
1, 300841, Note_on_c, 0, 49, 49
1, 300853, Note_on_c, 0, 37, 0
1, 300915, Note_on_c, 0, 44, 55
1, 300927, Note_on_c, 0, 49, 0
1, 300989, Note_on_c, 0, 49, 50
1, 301002, Note_on_c, 0, 44, 0
1, 301064, Note_on_c, 0, 37, 57
1, 301076, Note_on_c, 0, 49, 0
1, 301138, Note_on_c, 0, 49, 51
1, 301150, Note_on_c, 0, 37, 0
1, 301212, Note_on_c, 0, 44, 58
1, 301225, Note_on_c, 0, 49, 0
1, 301287, Note_on_c, 0, 80, 0
1, 301287, Note_on_c, 0, 66, 68
1, 301287, Note_on_c, 0, 49, 52
1, 301303, Note_on_c, 0, 44, 0
1, 301337, Note_on_c, 0, 66, 0
1, 301337, Note_on_c, 0, 72, 73
1, 301387, Note_on_c, 0, 72, 0
1, 301387, Note_on_c, 0, 80, 85
1, 301387, Note_on_c, 0, 37, 59
1, 301399, Note_on_c, 0, 49, 0
1, 301461, Note_on_c, 0, 51, 56
1, 301473, Note_on_c, 0, 37, 0
1, 301534, Note_on_c, 0, 44, 61
1, 301547, Note_on_c, 0, 51, 0
1, 301608, Note_on_c, 0, 51, 57
1, 301621, Note_on_c, 0, 44, 0
1, 301682, Note_on_c, 0, 37, 63
1, 301694, Note_on_c, 0, 51, 0
1, 301756, Note_on_c, 0, 51, 58
1, 301768, Note_on_c, 0, 37, 0
1, 301830, Note_on_c, 0, 44, 66
1, 301842, Note_on_c, 0, 51, 0
1, 301904, Note_on_c, 0, 80, 0
1, 301904, Note_on_c, 0, 64, 77
1, 301904, Note_on_c, 0, 51, 59
1, 301920, Note_on_c, 0, 44, 0
1, 301953, Note_on_c, 0, 64, 0
1, 301953, Note_on_c, 0, 73, 83
1, 302002, Note_on_c, 0, 73, 0
1, 302002, Note_on_c, 0, 80, 93
1, 302002, Note_on_c, 0, 37, 66
1, 302014, Note_on_c, 0, 51, 0
1, 302075, Note_on_c, 0, 49, 60
1, 302087, Note_on_c, 0, 37, 0
1, 302148, Note_on_c, 0, 44, 69
1, 302160, Note_on_c, 0, 49, 0
1, 302222, Note_on_c, 0, 49, 62
1, 302234, Note_on_c, 0, 44, 0
1, 302295, Note_on_c, 0, 37, 70
1, 302307, Note_on_c, 0, 49, 0
1, 302368, Note_on_c, 0, 49, 66
1, 302380, Note_on_c, 0, 37, 0
1, 302441, Note_on_c, 0, 44, 71
1, 302454, Note_on_c, 0, 49, 0
1, 302515, Note_on_c, 0, 80, 0
1, 302515, Note_on_c, 0, 66, 81
1, 302515, Note_on_c, 0, 49, 65
1, 302531, Note_on_c, 0, 44, 0
1, 302564, Note_on_c, 0, 66, 0
1, 302564, Note_on_c, 0, 72, 90
1, 302613, Note_on_c, 0, 72, 0
1, 302613, Note_on_c, 0, 80, 105
1, 302613, Note_on_c, 0, 37, 72
1, 302625, Note_on_c, 0, 49, 0
1, 302686, Note_on_c, 0, 51, 69
1, 302698, Note_on_c, 0, 37, 0
1, 302758, Note_on_c, 0, 44, 74
1, 302771, Note_on_c, 0, 51, 0
1, 302831, Note_on_c, 0, 51, 69
1, 302843, Note_on_c, 0, 44, 0
1, 302904, Note_on_c, 0, 37, 77
1, 302916, Note_on_c, 0, 51, 0
1, 302977, Note_on_c, 0, 51, 71
1, 302989, Note_on_c, 0, 37, 0
1, 303050, Note_on_c, 0, 44, 78
1, 303062, Note_on_c, 0, 51, 0
1, 303122, Note_on_c, 0, 80, 0
1, 303122, Note_on_c, 0, 64, 90
1, 303122, Note_on_c, 0, 51, 71
1, 303139, Note_on_c, 0, 44, 0
1, 303171, Note_on_c, 0, 64, 0
1, 303171, Note_on_c, 0, 73, 90
1, 303212, Note_on_c, 0, 73, 0
1, 303212, Note_on_c, 0, 80, 91
1, 303212, Note_on_c, 0, 44, 83
1, 303215, Note_on_c, 0, 49, 83
1, 303215, Note_on_c, 0, 37, 83
1, 303224, Note_on_c, 0, 51, 0
1, 303283, Note_on_c, 0, 64, 84
1, 303283, Note_on_c, 0, 52, 72
1, 303288, Control_c, 0, 64, 127
1, 303295, Note_on_c, 0, 80, 0
1, 303295, Note_on_c, 0, 44, 0
1, 303295, Note_on_c, 0, 37, 0
1, 303298, Note_on_c, 0, 49, 0
1, 303355, Note_on_c, 0, 68, 87
1, 303355, Note_on_c, 0, 56, 75
1, 303367, Note_on_c, 0, 64, 0
1, 303367, Note_on_c, 0, 52, 0
1, 303426, Note_on_c, 0, 73, 83
1, 303426, Note_on_c, 0, 61, 71
1, 303438, Note_on_c, 0, 68, 0
1, 303438, Note_on_c, 0, 56, 0
1, 303491, Control_c, 0, 64, 0
1, 303497, Note_on_c, 0, 76, 91
1, 303497, Note_on_c, 0, 64, 78
1, 303509, Note_on_c, 0, 73, 0
1, 303509, Note_on_c, 0, 61, 0
1, 303514, Control_c, 0, 64, 127
1, 303568, Note_on_c, 0, 68, 85
1, 303568, Note_on_c, 0, 56, 72
1, 303580, Note_on_c, 0, 76, 0
1, 303580, Note_on_c, 0, 64, 0
1, 303638, Note_on_c, 0, 73, 88
1, 303638, Note_on_c, 0, 61, 73
1, 303650, Note_on_c, 0, 68, 0
1, 303650, Note_on_c, 0, 56, 0
1, 303708, Note_on_c, 0, 76, 84
1, 303708, Note_on_c, 0, 64, 72
1, 303720, Note_on_c, 0, 73, 0
1, 303720, Note_on_c, 0, 61, 0
1, 303756, Control_c, 0, 64, 0
1, 303778, Note_on_c, 0, 80, 91
1, 303778, Note_on_c, 0, 68, 78
1, 303786, Control_c, 0, 64, 127
1, 303790, Note_on_c, 0, 76, 0
1, 303790, Note_on_c, 0, 64, 0
1, 303848, Note_on_c, 0, 73, 84
1, 303848, Note_on_c, 0, 61, 73
1, 303859, Note_on_c, 0, 80, 0
1, 303859, Note_on_c, 0, 68, 0
1, 303917, Note_on_c, 0, 76, 87
1, 303917, Note_on_c, 0, 64, 73
1, 303928, Note_on_c, 0, 73, 0
1, 303928, Note_on_c, 0, 61, 0
1, 303986, Note_on_c, 0, 80, 85
1, 303986, Note_on_c, 0, 68, 72
1, 303997, Note_on_c, 0, 76, 0
1, 303997, Note_on_c, 0, 64, 0
1, 304031, Control_c, 0, 64, 0
1, 304055, Note_on_c, 0, 85, 92
1, 304055, Note_on_c, 0, 73, 79
1, 304066, Note_on_c, 0, 80, 0
1, 304066, Note_on_c, 0, 68, 0
1, 304066, Control_c, 0, 64, 127
1, 304123, Note_on_c, 0, 76, 88
1, 304123, Note_on_c, 0, 64, 75
1, 304135, Note_on_c, 0, 85, 0
1, 304135, Note_on_c, 0, 73, 0
1, 304191, Note_on_c, 0, 80, 90
1, 304191, Note_on_c, 0, 68, 78
1, 304203, Note_on_c, 0, 76, 0
1, 304203, Note_on_c, 0, 64, 0
1, 304259, Note_on_c, 0, 85, 88
1, 304259, Note_on_c, 0, 73, 75
1, 304271, Note_on_c, 0, 80, 0
1, 304271, Note_on_c, 0, 68, 0
1, 304315, Control_c, 0, 64, 0
1, 304327, Note_on_c, 0, 88, 96
1, 304327, Note_on_c, 0, 76, 83
1, 304338, Note_on_c, 0, 85, 0
1, 304338, Note_on_c, 0, 73, 0
1, 304338, Control_c, 0, 64, 127
1, 304394, Note_on_c, 0, 85, 96
1, 304394, Note_on_c, 0, 73, 80
1, 304405, Note_on_c, 0, 88, 0
1, 304405, Note_on_c, 0, 76, 0
1, 304462, Note_on_c, 0, 80, 95
1, 304462, Note_on_c, 0, 68, 79
1, 304473, Note_on_c, 0, 85, 0
1, 304473, Note_on_c, 0, 73, 0
1, 304529, Note_on_c, 0, 76, 91
1, 304529, Note_on_c, 0, 64, 76
1, 304540, Note_on_c, 0, 80, 0
1, 304540, Note_on_c, 0, 68, 0
1, 304581, Control_c, 0, 64, 0
1, 304596, Note_on_c, 0, 85, 98
1, 304596, Note_on_c, 0, 73, 82
1, 304608, Note_on_c, 0, 76, 0
1, 304608, Note_on_c, 0, 64, 0
1, 304608, Control_c, 0, 64, 127
1, 304664, Note_on_c, 0, 80, 96
1, 304664, Note_on_c, 0, 68, 80
1, 304675, Note_on_c, 0, 85, 0
1, 304675, Note_on_c, 0, 73, 0
1, 304731, Note_on_c, 0, 76, 95
1, 304731, Note_on_c, 0, 64, 78
1, 304742, Note_on_c, 0, 80, 0
1, 304742, Note_on_c, 0, 68, 0
1, 304798, Note_on_c, 0, 73, 89
1, 304798, Note_on_c, 0, 61, 78
1, 304810, Note_on_c, 0, 76, 0
1, 304810, Note_on_c, 0, 64, 0
1, 304842, Control_c, 0, 64, 0
1, 304866, Note_on_c, 0, 80, 96
1, 304866, Note_on_c, 0, 68, 82
1, 304870, Control_c, 0, 64, 127
1, 304877, Note_on_c, 0, 73, 0
1, 304877, Note_on_c, 0, 61, 0
1, 304933, Note_on_c, 0, 76, 95
1, 304933, Note_on_c, 0, 64, 80
1, 304944, Note_on_c, 0, 80, 0
1, 304944, Note_on_c, 0, 68, 0
1, 305000, Note_on_c, 0, 73, 94
1, 305000, Note_on_c, 0, 61, 78
1, 305012, Note_on_c, 0, 76, 0
1, 305012, Note_on_c, 0, 64, 0
1, 305068, Note_on_c, 0, 68, 90
1, 305068, Note_on_c, 0, 56, 78
1, 305079, Note_on_c, 0, 73, 0
1, 305079, Note_on_c, 0, 61, 0
1, 305116, Control_c, 0, 64, 0
1, 305135, Note_on_c, 0, 76, 96
1, 305135, Note_on_c, 0, 64, 82
1, 305146, Note_on_c, 0, 68, 0
1, 305146, Note_on_c, 0, 56, 0
1, 305151, Control_c, 0, 64, 127
1, 305203, Note_on_c, 0, 73, 96
1, 305203, Note_on_c, 0, 61, 80
1, 305214, Note_on_c, 0, 76, 0
1, 305214, Note_on_c, 0, 64, 0
1, 305270, Note_on_c, 0, 68, 94
1, 305270, Note_on_c, 0, 56, 78
1, 305281, Note_on_c, 0, 73, 0
1, 305281, Note_on_c, 0, 61, 0
1, 305337, Note_on_c, 0, 64, 89
1, 305337, Note_on_c, 0, 52, 78
1, 305349, Note_on_c, 0, 68, 0
1, 305349, Note_on_c, 0, 56, 0
1, 305405, Note_on_c, 0, 73, 94
1, 305405, Control_c, 0, 64, 0
1, 305405, Note_on_c, 0, 61, 79
1, 305416, Note_on_c, 0, 64, 0
1, 305416, Note_on_c, 0, 52, 0
1, 305441, Control_c, 0, 64, 127
1, 305472, Note_on_c, 0, 68, 92
1, 305472, Note_on_c, 0, 56, 78
1, 305483, Note_on_c, 0, 73, 0
1, 305483, Note_on_c, 0, 61, 0
1, 305540, Note_on_c, 0, 64, 91
1, 305540, Note_on_c, 0, 52, 78
1, 305551, Note_on_c, 0, 68, 0
1, 305551, Note_on_c, 0, 56, 0
1, 305608, Note_on_c, 0, 61, 85
1, 305608, Note_on_c, 0, 49, 75
1, 305620, Note_on_c, 0, 64, 0
1, 305620, Note_on_c, 0, 52, 0
1, 305677, Note_on_c, 0, 68, 94
1, 305677, Note_on_c, 0, 56, 80
1, 305685, Control_c, 0, 64, 0
1, 305689, Note_on_c, 0, 61, 0
1, 305689, Note_on_c, 0, 49, 0
1, 305718, Control_c, 0, 64, 127
1, 305747, Note_on_c, 0, 64, 92
1, 305747, Note_on_c, 0, 52, 79
1, 305759, Note_on_c, 0, 68, 0
1, 305759, Note_on_c, 0, 56, 0
1, 305817, Note_on_c, 0, 61, 91
1, 305817, Note_on_c, 0, 49, 78
1, 305829, Note_on_c, 0, 64, 0
1, 305829, Note_on_c, 0, 52, 0
1, 305887, Note_on_c, 0, 56, 87
1, 305887, Note_on_c, 0, 44, 75
1, 305899, Note_on_c, 0, 61, 0
1, 305899, Note_on_c, 0, 49, 0
1, 305930, Control_c, 0, 64, 0
1, 305959, Note_on_c, 0, 64, 94
1, 305959, Note_on_c, 0, 52, 81
1, 305971, Note_on_c, 0, 56, 0
1, 305971, Note_on_c, 0, 44, 0
1, 305971, Control_c, 0, 64, 127
1, 306030, Note_on_c, 0, 61, 92
1, 306030, Note_on_c, 0, 49, 81
1, 306042, Note_on_c, 0, 64, 0
1, 306042, Note_on_c, 0, 52, 0
1, 306103, Note_on_c, 0, 56, 90
1, 306103, Note_on_c, 0, 44, 79
1, 306115, Note_on_c, 0, 61, 0
1, 306115, Note_on_c, 0, 49, 0
1, 306175, Note_on_c, 0, 52, 87
1, 306175, Note_on_c, 0, 40, 77
1, 306188, Note_on_c, 0, 56, 0
1, 306188, Note_on_c, 0, 44, 0
1, 306249, Note_on_c, 0, 61, 94
1, 306249, Control_c, 0, 64, 0
1, 306249, Note_on_c, 0, 49, 81
1, 306261, Note_on_c, 0, 52, 0
1, 306261, Note_on_c, 0, 40, 0
1, 306275, Control_c, 0, 64, 127
1, 306323, Note_on_c, 0, 56, 92
1, 306323, Note_on_c, 0, 44, 80
1, 306335, Note_on_c, 0, 61, 0
1, 306335, Note_on_c, 0, 49, 0
1, 306397, Note_on_c, 0, 52, 91
1, 306397, Note_on_c, 0, 40, 79
1, 306410, Note_on_c, 0, 56, 0
1, 306410, Note_on_c, 0, 44, 0
1, 306473, Note_on_c, 0, 56, 87
1, 306473, Note_on_c, 0, 44, 78
1, 306485, Note_on_c, 0, 52, 0
1, 306485, Note_on_c, 0, 40, 0
1, 306549, Note_on_c, 0, 49, 91
1, 306549, Note_on_c, 0, 37, 78
1, 306561, Note_on_c, 0, 56, 0
1, 306561, Note_on_c, 0, 44, 0
1, 306684, Control_c, 0, 64, 0
1, 306737, Control_c, 0, 64, 127
1, 306854, Note_on_c, 0, 49, 0
1, 306854, Note_on_c, 0, 37, 0
1, 306859, Control_c, 0, 64, 0
1, 307160, Note_on_c, 0, 73, 97
1, 307160, Note_on_c, 0, 76, 97
1, 307160, Note_on_c, 0, 85, 112
1, 307163, Note_on_c, 0, 80, 112
1, 307163, Note_on_c, 0, 37, 80
1, 307163, Note_on_c, 0, 40, 80
1, 307166, Note_on_c, 0, 44, 92
1, 307166, Note_on_c, 0, 49, 92
1, 307178, Control_c, 0, 64, 127
1, 307304, Control_c, 0, 64, 0
1, 307389, Note_on_c, 0, 80, 0
1, 307389, Note_on_c, 0, 73, 0
1, 307389, Note_on_c, 0, 76, 0
1, 307392, Note_on_c, 0, 85, 0
1, 307392, Note_on_c, 0, 49, 0
1, 307392, Note_on_c, 0, 37, 0
1, 307395, Note_on_c, 0, 40, 0
1, 307395, Note_on_c, 0, 44, 0
1, 307772, Note_on_c, 0, 61, 96
1, 307772, Note_on_c, 0, 68, 111
1, 307772, Note_on_c, 0, 73, 111
1, 307775, Note_on_c, 0, 64, 96
1, 307775, Note_on_c, 0, 44, 92
1, 307775, Note_on_c, 0, 37, 80
1, 307778, Note_on_c, 0, 40, 80
1, 307778, Note_on_c, 0, 49, 92
1, 307796, Control_c, 0, 64, 127
1, 307984, Control_c, 0, 64, 0
1, 308023, Note_on_c, 0, 64, 0
1, 308023, Note_on_c, 0, 61, 0
1, 308023, Note_on_c, 0, 68, 0
1, 308026, Note_on_c, 0, 73, 0
1, 308026, Note_on_c, 0, 49, 0
1, 308026, Note_on_c, 0, 44, 0
1, 308029, Note_on_c, 0, 37, 0
1, 308029, Note_on_c, 0, 40, 0
1, 309527, End_track
0, 0, End_of_file
