0, 0, Header, 1, 7, 480
1, 0, Start_track
1, 0, Title_t, "Seq-1"
1, 0, SMPTE_offset, 96, 0, 0, 0, 0
1, 0, Time_signature, 4, 2, 24, 8
1, 0, Tempo, 512820
1, 0, End_track
2, 0, Start_track
2, 0, Title_t, "Beethoven Sonata No. 17"
2, 0, Control_c, 0, 7, 100
2, 439, Control_c, 0, 67, 127
2, 999, Control_c, 0, 64, 96
2, 1321, Note_on_c, 0, 37, 20
2, 1473, Note_on_c, 0, 40, 24
2, 1623, Note_on_c, 0, 45, 27
2, 1755, Note_on_c, 0, 49, 30
2, 1891, Note_on_c, 0, 52, 33
2, 2061, Note_on_c, 0, 57, 36
2, 4395, Note_on_c, 0, 61, 22
2, 4413, Note_off_c, 0, 52, 48
2, 4414, Note_off_c, 0, 49, 47
2, 4437, Note_off_c, 0, 57, 49
2, 4730, Note_off_c, 0, 61, 45
2, 5629, Note_on_c, 0, 64, 24
2, 6034, Note_off_c, 0, 64, 46
2, 7134, Note_on_c, 0, 69, 27
2, 11454, Note_off_c, 0, 37, 45
2, 11581, Note_off_c, 0, 40, 46
2, 11728, Note_off_c, 0, 45, 46
2, 11911, Note_off_c, 0, 69, 47
2, 11973, Control_c, 0, 67, 0
2, 12134, Note_on_c, 0, 49, 44
2, 12139, Note_on_c, 0, 57, 38
2, 12140, Note_on_c, 0, 69, 59
2, 12150, Control_c, 0, 64, 20
2, 12214, Note_off_c, 0, 49, 51
2, 12219, Note_off_c, 0, 57, 49
2, 12265, Note_on_c, 0, 67, 59
2, 12276, Note_off_c, 0, 69, 54
2, 12337, Note_off_c, 0, 67, 54
2, 12365, Note_on_c, 0, 50, 44
2, 12371, Note_on_c, 0, 57, 38
2, 12373, Note_on_c, 0, 67, 57
2, 12445, Note_off_c, 0, 50, 51
2, 12453, Note_off_c, 0, 57, 49
2, 12496, Note_on_c, 0, 65, 55
2, 12530, Note_off_c, 0, 67, 54
2, 12568, Note_off_c, 0, 65, 53
2, 12596, Note_on_c, 0, 52, 37
2, 12603, Note_on_c, 0, 65, 52
2, 12604, Note_on_c, 0, 57, 30
2, 12668, Note_off_c, 0, 52, 49
2, 12677, Note_off_c, 0, 57, 47
2, 12729, Note_on_c, 0, 64, 57
2, 12753, Note_off_c, 0, 65, 53
2, 12801, Note_off_c, 0, 64, 54
2, 12827, Note_on_c, 0, 53, 44
2, 12836, Note_on_c, 0, 57, 26
2, 12841, Note_on_c, 0, 64, 59
2, 12910, Note_off_c, 0, 53, 51
2, 12910, Note_off_c, 0, 57, 46
2, 12960, Note_on_c, 0, 62, 47
2, 13007, Note_off_c, 0, 64, 54
2, 13060, Note_on_c, 0, 49, 42
2, 13063, Note_off_c, 0, 62, 51
2, 13065, Note_on_c, 0, 57, 36
2, 13068, Note_on_c, 0, 69, 63
2, 13135, Note_off_c, 0, 49, 50
2, 13157, Note_off_c, 0, 57, 49
2, 13192, Note_on_c, 0, 67, 57
2, 13227, Note_off_c, 0, 69, 55
2, 13263, Note_off_c, 0, 67, 54
2, 13290, Note_on_c, 0, 50, 48
2, 13297, Note_on_c, 0, 57, 36
2, 13298, Note_on_c, 0, 67, 55
2, 13355, Note_off_c, 0, 50, 52
2, 13364, Note_off_c, 0, 57, 49
2, 13408, Note_on_c, 0, 65, 53
2, 13423, Note_off_c, 0, 67, 53
2, 13478, Note_off_c, 0, 65, 53
2, 13522, Note_on_c, 0, 52, 40
2, 13527, Note_on_c, 0, 57, 28
2, 13529, Note_on_c, 0, 65, 56
2, 13584, Note_off_c, 0, 52, 50
2, 13602, Note_off_c, 0, 57, 47
2, 13639, Note_on_c, 0, 64, 54
2, 13683, Note_off_c, 0, 65, 54
2, 13710, Note_off_c, 0, 64, 53
2, 13753, Note_on_c, 0, 53, 36
2, 13758, Note_on_c, 0, 57, 24
2, 13760, Note_on_c, 0, 64, 52
2, 13827, Note_off_c, 0, 53, 49
2, 13838, Note_off_c, 0, 57, 46
2, 13869, Note_on_c, 0, 62, 42
2, 13883, Note_off_c, 0, 64, 53
2, 13946, Note_off_c, 0, 62, 50
2, 13983, Note_on_c, 0, 54, 58
2, 13990, Note_on_c, 0, 74, 78
2, 13992, Note_on_c, 0, 62, 47
2, 14064, Note_off_c, 0, 54, 54
2, 14070, Note_off_c, 0, 62, 51
2, 14100, Note_on_c, 0, 72, 72
2, 14143, Note_off_c, 0, 74, 59
2, 14172, Note_off_c, 0, 72, 58
2, 14215, Note_on_c, 0, 55, 65
2, 14221, Note_on_c, 0, 72, 70
2, 14223, Note_on_c, 0, 62, 53
2, 14310, Note_off_c, 0, 55, 56
2, 14331, Note_off_c, 0, 62, 53
2, 14350, Note_on_c, 0, 70, 75
2, 14352, Note_off_c, 0, 72, 57
2, 14422, Note_off_c, 0, 70, 59
2, 14461, Note_on_c, 0, 57, 73
2, 14467, Note_on_c, 0, 70, 79
2, 14468, Note_on_c, 0, 62, 60
2, 14562, Note_off_c, 0, 62, 55
2, 14566, Note_off_c, 0, 57, 58
2, 14595, Note_on_c, 0, 69, 85
2, 14635, Note_off_c, 0, 70, 60
2, 14688, Note_off_c, 0, 69, 61
2, 14707, Note_on_c, 0, 58, 82
2, 14716, Note_on_c, 0, 69, 90
2, 14718, Note_on_c, 0, 62, 68
2, 14802, Note_off_c, 0, 58, 60
2, 14814, Note_off_c, 0, 62, 57
2, 14840, Note_on_c, 0, 67, 95
2, 14880, Note_off_c, 0, 69, 62
2, 14921, Note_off_c, 0, 67, 63
2, 14971, Note_on_c, 0, 58, 92
2, 14976, Note_on_c, 0, 67, 96
2, 14978, Note_on_c, 0, 62, 76
2, 15063, Note_off_c, 0, 58, 62
2, 15071, Note_off_c, 0, 62, 59
2, 15104, Note_on_c, 0, 68, 96
2, 15145, Note_off_c, 0, 67, 63
2, 15178, Note_off_c, 0, 68, 63
2, 15220, Note_on_c, 0, 68, 95
2, 15239, Note_on_c, 0, 65, 83
2, 15250, Note_on_c, 0, 57, 78
2, 15263, Note_on_c, 0, 62, 69
2, 15273, Control_c, 0, 64, 96
2, 16624, Note_off_c, 0, 68, 63
2, 16636, Note_on_c, 0, 69, 60
2, 16685, Control_c, 0, 64, 20
2, 16851, Control_c, 0, 64, 92
2, 16886, Note_off_c, 0, 69, 47
2, 16888, Note_on_c, 0, 68, 60
2, 17018, Note_off_c, 0, 68, 55
2, 17021, Note_on_c, 0, 66, 59
2, 17202, Note_off_c, 0, 66, 54
2, 17204, Note_on_c, 0, 68, 57
2, 17489, Note_off_c, 0, 68, 54
2, 17490, Note_on_c, 0, 71, 55
2, 17524, Control_c, 0, 64, 20
2, 17679, Control_c, 0, 64, 82
2, 17980, Note_off_c, 0, 57, 59
2, 18037, Note_off_c, 0, 71, 53
2, 18040, Note_on_c, 0, 69, 46
2, 18276, Note_off_c, 0, 62, 57
2, 18296, Note_off_c, 0, 65, 60
2, 18478, Note_off_c, 0, 69, 51
2, 18596, Note_on_c, 0, 69, 35
2, 18598, Note_on_c, 0, 64, 23
2, 18599, Note_on_c, 0, 57, 21
2, 18616, Control_c, 0, 64, 20
2, 18640, Note_on_c, 0, 61, 15
2, 18811, Control_c, 0, 64, 96
2, 22465, Note_off_c, 0, 57, 44
2, 22561, Control_c, 0, 67, 127
2, 22636, Note_off_c, 0, 61, 44
2, 22864, Note_off_c, 0, 64, 45
2, 22923, Control_c, 0, 64, 20
2, 23073, Note_off_c, 0, 69, 48
2, 23086, Control_c, 0, 64, 96
2, 23088, Note_on_c, 0, 40, 24
2, 23365, Note_on_c, 0, 43, 24
2, 23499, Note_on_c, 0, 48, 28
2, 23632, Note_on_c, 0, 52, 32
2, 23782, Note_on_c, 0, 55, 36
2, 23916, Note_on_c, 0, 60, 40
2, 26176, Note_off_c, 0, 55, 49
2, 26178, Note_off_c, 0, 52, 48
2, 26179, Note_off_c, 0, 60, 50
2, 26180, Note_on_c, 0, 64, 30
2, 26402, Note_off_c, 0, 64, 47
2, 27292, Note_on_c, 0, 67, 24
2, 27537, Note_off_c, 0, 67, 46
2, 29006, Note_on_c, 0, 72, 30
2, 31967, Note_off_c, 0, 40, 46
2, 31976, Control_c, 0, 67, 0
2, 32016, Note_off_c, 0, 48, 47
2, 32017, Note_off_c, 0, 43, 45
2, 32161, Control_c, 0, 64, 20
2, 32172, Note_off_c, 0, 72, 47
2, 32332, Note_on_c, 0, 52, 44
2, 32336, Note_on_c, 0, 72, 58
2, 32338, Note_on_c, 0, 60, 40
2, 32472, Note_on_c, 0, 70, 55
2, 32517, Note_off_c, 0, 72, 54
2, 32527, Note_off_c, 0, 60, 50
2, 32553, Note_off_c, 0, 70, 53
2, 32579, Note_on_c, 0, 53, 45
2, 32586, Note_on_c, 0, 70, 53
2, 32588, Note_off_c, 0, 52, 51
2, 32590, Note_on_c, 0, 60, 41
2, 32705, Note_on_c, 0, 68, 51
2, 32757, Note_off_c, 0, 70, 53
2, 32761, Note_off_c, 0, 60, 50
2, 32803, Note_off_c, 0, 68, 52
2, 32832, Note_off_c, 0, 53, 51
2, 32840, Note_on_c, 0, 68, 49
2, 32956, Note_on_c, 0, 69, 47
2, 32980, Note_off_c, 0, 68, 52
2, 33038, Note_off_c, 0, 69, 51
2, 33071, Note_on_c, 0, 69, 46
2, 33205, Note_on_c, 0, 74, 67
2, 33229, Note_off_c, 0, 69, 51
2, 33286, Note_off_c, 0, 74, 57
2, 33314, Note_on_c, 0, 54, 51
2, 33323, Note_on_c, 0, 62, 45
2, 33324, Note_on_c, 0, 74, 65
2, 33440, Note_on_c, 0, 72, 63
2, 33466, Note_off_c, 0, 74, 56
2, 33468, Note_off_c, 0, 62, 51
2, 33525, Note_off_c, 0, 54, 52
2, 33538, Note_off_c, 0, 72, 55
2, 33550, Note_on_c, 0, 55, 52
2, 33557, Note_on_c, 0, 72, 62
2, 33559, Note_on_c, 0, 62, 47
2, 33690, Note_on_c, 0, 69, 60
2, 33719, Note_off_c, 0, 72, 55
2, 33727, Note_off_c, 0, 62, 51
2, 33771, Note_off_c, 0, 69, 55
2, 33810, Note_on_c, 0, 69, 58
2, 33836, Note_off_c, 0, 55, 53
2, 33924, Note_on_c, 0, 70, 56
2, 33938, Note_off_c, 0, 69, 54
2, 34024, Note_off_c, 0, 70, 54
2, 34057, Note_on_c, 0, 70, 55
2, 34173, Note_on_c, 0, 75, 68
2, 34202, Note_off_c, 0, 70, 53
2, 34258, Note_off_c, 0, 75, 57
2, 34275, Control_c, 0, 64, 95
2, 34288, Note_on_c, 0, 63, 53
2, 34290, Note_on_c, 0, 75, 69
2, 34293, Note_on_c, 0, 58, 49
2, 34295, Note_on_c, 0, 55, 47
2, 34384, Note_off_c, 0, 55, 51
2, 34390, Note_off_c, 0, 63, 53
2, 34403, Note_off_c, 0, 58, 52
2, 34431, Note_on_c, 0, 74, 71
2, 34460, Note_off_c, 0, 75, 57
2, 34490, Control_c, 0, 64, 20
2, 34511, Note_off_c, 0, 74, 58
2, 34542, Note_on_c, 0, 74, 73
2, 34658, Note_on_c, 0, 73, 73
2, 34672, Note_off_c, 0, 74, 58
2, 34758, Note_off_c, 0, 73, 59
2, 34793, Note_on_c, 0, 73, 75
2, 34795, Note_on_c, 0, 64, 57
2, 34798, Note_on_c, 0, 61, 52
2, 34799, Note_on_c, 0, 58, 47
2, 34800, Note_on_c, 0, 55, 43
2, 34802, Control_c, 0, 64, 95
2, 34881, Note_off_c, 0, 58, 51
2, 34883, Note_off_c, 0, 55, 50
2, 34886, Note_off_c, 0, 61, 53
2, 34889, Note_off_c, 0, 64, 54
2, 34915, Note_on_c, 0, 82, 77
2, 34949, Note_off_c, 0, 73, 59
2, 34987, Control_c, 0, 64, 20
2, 34994, Note_off_c, 0, 82, 59
2, 35026, Note_on_c, 0, 82, 79
2, 35145, Note_on_c, 0, 76, 81
2, 35171, Note_off_c, 0, 82, 60
2, 35243, Note_off_c, 0, 76, 60
2, 35269, Control_c, 0, 64, 92
2, 35276, Note_on_c, 0, 61, 50
2, 35279, Note_on_c, 0, 76, 82
2, 35280, Note_on_c, 0, 55, 49
2, 35281, Note_on_c, 0, 58, 47
2, 35282, Note_on_c, 0, 64, 62
2, 35356, Note_off_c, 0, 61, 52
2, 35356, Note_off_c, 0, 55, 52
2, 35361, Note_off_c, 0, 58, 51
2, 35366, Note_off_c, 0, 64, 55
2, 35397, Note_on_c, 0, 85, 84
2, 35418, Note_off_c, 0, 76, 60
2, 35474, Control_c, 0, 64, 20
2, 35493, Note_off_c, 0, 85, 61
2, 35510, Note_on_c, 0, 85, 86
2, 35645, Note_on_c, 0, 77, 87
2, 35658, Note_off_c, 0, 85, 61
2, 35727, Note_off_c, 0, 77, 61
2, 35762, Note_on_c, 0, 77, 89
2, 35764, Note_on_c, 0, 65, 67
2, 35765, Note_on_c, 0, 62, 55
2, 35766, Note_on_c, 0, 56, 45
2, 35769, Control_c, 0, 64, 87
2, 35770, Note_on_c, 0, 59, 50
2, 35851, Note_off_c, 0, 59, 52
2, 35852, Note_off_c, 0, 62, 53
2, 35855, Note_off_c, 0, 56, 51
2, 35858, Note_off_c, 0, 65, 57
2, 35883, Note_on_c, 0, 86, 91
2, 35899, Note_off_c, 0, 77, 62
2, 35953, Control_c, 0, 64, 20
2, 35978, Note_off_c, 0, 86, 62
2, 36012, Note_on_c, 0, 86, 93
2, 36129, Note_on_c, 0, 77, 94
2, 36154, Note_off_c, 0, 86, 63
2, 36210, Note_off_c, 0, 77, 63
2, 36227, Control_c, 0, 64, 96
2, 36243, Note_on_c, 0, 65, 72
2, 36245, Note_on_c, 0, 77, 96
2, 36250, Note_on_c, 0, 62, 60
2, 36251, Note_on_c, 0, 59, 52
2, 36252, Note_on_c, 0, 56, 44
2, 36329, Note_off_c, 0, 65, 58
2, 36333, Note_off_c, 0, 59, 53
2, 36338, Note_off_c, 0, 62, 55
2, 36339, Note_off_c, 0, 56, 51
2, 36367, Note_on_c, 0, 89, 98
2, 36369, Note_off_c, 0, 77, 63
2, 36421, Control_c, 0, 64, 20
2, 36462, Note_off_c, 0, 89, 64
2, 36497, Note_on_c, 0, 89, 100
2, 36499, Note_on_c, 0, 65, 75
2, 36502, Note_on_c, 0, 62, 71
2, 36504, Note_on_c, 0, 57, 68
2, 36582, Note_off_c, 0, 57, 57
2, 36586, Control_c, 0, 64, 83
2, 36589, Note_off_c, 0, 65, 59
2, 36591, Note_off_c, 0, 62, 58
2, 36616, Note_on_c, 0, 85, 96
2, 36661, Note_off_c, 0, 89, 65
2, 36714, Note_off_c, 0, 85, 63
2, 36731, Note_on_c, 0, 85, 92
2, 36801, Control_c, 0, 64, 22
2, 36864, Note_on_c, 0, 86, 88
2, 36883, Note_off_c, 0, 85, 62
2, 36948, Note_off_c, 0, 86, 62
2, 36981, Note_on_c, 0, 86, 84
2, 37114, Note_on_c, 0, 80, 80
2, 37128, Note_off_c, 0, 86, 61
2, 37198, Note_off_c, 0, 80, 60
2, 37231, Note_on_c, 0, 80, 76
2, 37364, Note_on_c, 0, 81, 72
2, 37408, Note_off_c, 0, 80, 59
2, 37448, Note_off_c, 0, 81, 58
2, 37481, Note_on_c, 0, 81, 96
2, 37618, Note_on_c, 0, 76, 96
2, 37642, Note_off_c, 0, 81, 63
2, 37716, Note_off_c, 0, 76, 63
2, 37748, Note_on_c, 0, 76, 92
2, 37868, Note_on_c, 0, 77, 87
2, 37887, Note_off_c, 0, 76, 62
2, 37964, Note_off_c, 0, 77, 61
2, 37999, Note_on_c, 0, 77, 82
2, 38134, Note_on_c, 0, 73, 77
2, 38158, Note_off_c, 0, 77, 60
2, 38215, Note_off_c, 0, 73, 59
2, 38251, Note_on_c, 0, 73, 72
2, 38384, Note_on_c, 0, 74, 72
2, 38421, Note_off_c, 0, 73, 58
2, 38485, Note_off_c, 0, 74, 58
2, 38518, Note_on_c, 0, 74, 96
2, 38643, Note_on_c, 0, 68, 96
2, 38663, Note_off_c, 0, 74, 63
2, 38718, Note_off_c, 0, 68, 63
2, 38768, Note_on_c, 0, 68, 92
2, 38884, Note_on_c, 0, 69, 88
2, 38922, Note_off_c, 0, 68, 62
2, 38985, Note_off_c, 0, 69, 62
2, 39020, Note_on_c, 0, 69, 84
2, 39154, Note_on_c, 0, 64, 80
2, 39193, Note_off_c, 0, 69, 61
2, 39226, Note_off_c, 0, 64, 60
2, 39268, Note_on_c, 0, 64, 76
2, 39404, Note_on_c, 0, 65, 76
2, 39426, Note_off_c, 0, 64, 59
2, 39502, Note_off_c, 0, 65, 58
2, 39538, Note_on_c, 0, 65, 75
2, 39670, Note_on_c, 0, 61, 74
2, 39718, Note_off_c, 0, 65, 58
2, 39752, Note_off_c, 0, 61, 58
2, 39788, Note_on_c, 0, 61, 74
2, 39921, Note_on_c, 0, 62, 73
2, 39949, Note_off_c, 0, 61, 58
2, 40004, Note_off_c, 0, 62, 57
2, 40038, Note_on_c, 0, 62, 72
2, 40171, Note_off_c, 0, 62, 57
2, 40173, Note_on_c, 0, 58, 72
2, 40257, Note_off_c, 0, 58, 56
2, 40288, Note_on_c, 0, 46, 84
2, 40290, Note_on_c, 0, 58, 96
2, 40423, Note_on_c, 0, 45, 72
2, 40425, Note_on_c, 0, 57, 84
2, 40441, Note_off_c, 0, 46, 61
2, 40445, Control_c, 0, 64, 92
2, 40452, Note_off_c, 0, 58, 63
2, 40507, Note_off_c, 0, 45, 58
2, 40509, Note_off_c, 0, 57, 61
2, 40538, Note_on_c, 0, 57, 82
2, 40542, Note_on_c, 0, 45, 70
2, 40631, Control_c, 0, 64, 20
2, 40674, Note_on_c, 0, 61, 80
2, 40675, Note_on_c, 0, 49, 68
2, 40695, Note_off_c, 0, 45, 57
2, 40698, Note_off_c, 0, 57, 60
2, 40757, Note_off_c, 0, 49, 57
2, 40758, Note_off_c, 0, 61, 60
2, 40789, Note_on_c, 0, 61, 78
2, 40792, Note_on_c, 0, 49, 66
2, 40909, Note_on_c, 0, 62, 76
2, 40910, Note_on_c, 0, 50, 64
2, 40935, Note_off_c, 0, 49, 56
2, 40943, Note_off_c, 0, 61, 59
2, 41007, Note_off_c, 0, 62, 59
2, 41007, Note_off_c, 0, 50, 56
2, 41040, Note_on_c, 0, 62, 74
2, 41044, Note_on_c, 0, 50, 62
2, 41157, Note_off_c, 0, 62, 59
2, 41158, Note_on_c, 0, 58, 72
2, 41160, Note_off_c, 0, 50, 55
2, 41163, Note_on_c, 0, 46, 60
2, 41166, Control_c, 0, 64, 90
2, 41256, Note_off_c, 0, 58, 58
2, 41258, Note_off_c, 0, 46, 55
2, 41292, Note_on_c, 0, 46, 84
2, 41294, Note_on_c, 0, 58, 96
2, 41361, Control_c, 0, 64, 20
2, 41427, Note_on_c, 0, 45, 72
2, 41429, Note_on_c, 0, 57, 84
2, 41441, Note_off_c, 0, 46, 61
2, 41452, Note_off_c, 0, 58, 63
2, 41507, Note_off_c, 0, 57, 61
2, 41508, Note_off_c, 0, 45, 58
2, 41541, Note_on_c, 0, 45, 70
2, 41543, Note_on_c, 0, 57, 82
2, 41675, Note_on_c, 0, 61, 80
2, 41677, Note_on_c, 0, 49, 68
2, 41694, Note_off_c, 0, 57, 60
2, 41702, Note_off_c, 0, 45, 57
2, 41758, Note_off_c, 0, 61, 60
2, 41761, Note_off_c, 0, 49, 57
2, 41794, Note_on_c, 0, 61, 78
2, 41796, Note_on_c, 0, 49, 66
2, 41911, Note_on_c, 0, 50, 64
2, 41913, Note_on_c, 0, 62, 76
2, 41927, Note_off_c, 0, 49, 56
2, 41929, Note_off_c, 0, 61, 59
2, 42009, Note_off_c, 0, 50, 56
2, 42011, Note_off_c, 0, 62, 59
2, 42044, Note_on_c, 0, 62, 74
2, 42045, Note_on_c, 0, 50, 62
2, 42178, Note_on_c, 0, 46, 60
2, 42180, Note_on_c, 0, 58, 72
2, 42184, Note_off_c, 0, 50, 55
2, 42188, Note_off_c, 0, 62, 59
2, 42191, Control_c, 0, 64, 92
2, 42277, Note_off_c, 0, 46, 55
2, 42279, Note_off_c, 0, 58, 58
2, 42308, Note_on_c, 0, 58, 96
2, 42312, Note_on_c, 0, 46, 84
2, 42403, Control_c, 0, 64, 20
2, 42445, Note_on_c, 0, 57, 84
2, 42450, Note_on_c, 0, 45, 72
2, 42458, Note_off_c, 0, 46, 61
2, 42459, Note_off_c, 0, 58, 63
2, 42542, Note_off_c, 0, 57, 61
2, 42547, Note_off_c, 0, 45, 58
2, 42575, Note_on_c, 0, 57, 84
2, 42576, Note_on_c, 0, 45, 76
2, 42694, Note_on_c, 0, 58, 83
2, 42726, Note_off_c, 0, 57, 61
2, 42805, Note_on_c, 0, 53, 84
2, 42811, Note_on_c, 0, 59, 82
2, 42821, Note_off_c, 0, 58, 60
2, 42833, Note_on_c, 0, 50, 79
2, 42852, Control_c, 0, 64, 90
2, 42945, Note_on_c, 0, 60, 82
2, 43006, Note_off_c, 0, 59, 60
2, 43062, Note_on_c, 0, 61, 81
2, 43085, Control_c, 0, 64, 20
2, 43095, Note_off_c, 0, 60, 60
2, 43162, Note_off_c, 0, 61, 60
2, 43178, Note_on_c, 0, 62, 80
2, 43284, Note_off_c, 0, 50, 60
2, 43296, Note_on_c, 0, 63, 79
2, 43317, Note_off_c, 0, 62, 60
2, 43328, Note_off_c, 0, 53, 61
2, 43357, Note_off_c, 0, 45, 59
2, 43429, Note_on_c, 0, 64, 78
2, 43459, Note_off_c, 0, 63, 60
2, 43544, Note_on_c, 0, 50, 55
2, 43545, Note_on_c, 0, 53, 60
2, 43547, Note_on_c, 0, 65, 78
2, 43550, Note_on_c, 0, 45, 50
2, 43564, Control_c, 0, 64, 92
2, 43579, Note_off_c, 0, 64, 59
2, 43681, Note_on_c, 0, 66, 77
2, 43683, Note_off_c, 0, 50, 53
2, 43689, Note_off_c, 0, 45, 52
2, 43694, Note_off_c, 0, 53, 55
2, 43726, Note_off_c, 0, 65, 59
2, 43730, Control_c, 0, 64, 20
2, 43795, Note_off_c, 0, 66, 59
2, 43798, Note_on_c, 0, 67, 76
2, 43800, Note_on_c, 0, 45, 56
2, 43802, Note_on_c, 0, 53, 63
2, 43804, Note_on_c, 0, 50, 60
2, 43914, Note_off_c, 0, 67, 59
2, 43929, Note_on_c, 0, 68, 75
2, 43938, Note_off_c, 0, 50, 55
2, 43938, Note_off_c, 0, 45, 54
2, 43940, Note_off_c, 0, 53, 55
2, 44041, Note_off_c, 0, 68, 59
2, 44048, Note_on_c, 0, 69, 75
2, 44050, Note_on_c, 0, 55, 69
2, 44052, Note_on_c, 0, 45, 60
2, 44053, Note_on_c, 0, 52, 65
2, 44070, Control_c, 0, 64, 93
2, 44184, Note_off_c, 0, 69, 59
2, 44185, Note_on_c, 0, 70, 76
2, 44191, Note_off_c, 0, 45, 55
2, 44192, Note_off_c, 0, 52, 53
2, 44202, Note_off_c, 0, 55, 57
2, 44265, Control_c, 0, 64, 19
2, 44280, Note_off_c, 0, 70, 59
2, 44298, Note_on_c, 0, 61, 80
2, 44300, Note_on_c, 0, 52, 68
2, 44302, Note_on_c, 0, 45, 56
2, 44304, Note_on_c, 0, 55, 72
2, 44431, Note_off_c, 0, 61, 60
2, 44433, Note_on_c, 0, 69, 72
2, 44463, Note_off_c, 0, 55, 58
2, 44486, Note_off_c, 0, 45, 54
2, 44508, Note_off_c, 0, 52, 57
2, 44530, Note_off_c, 0, 69, 58
2, 44566, Control_c, 0, 64, 96
2, 44568, Note_on_c, 0, 62, 60
2, 44570, Note_on_c, 0, 38, 84
2, 44649, Note_off_c, 0, 62, 55
2, 44651, Note_on_c, 0, 57, 40
2, 44716, Note_off_c, 0, 57, 50
2, 44717, Note_on_c, 0, 53, 41
2, 44799, Note_off_c, 0, 53, 50
2, 44800, Note_on_c, 0, 57, 42
2, 44881, Note_off_c, 0, 57, 50
2, 44884, Note_on_c, 0, 53, 44
2, 44968, Note_off_c, 0, 53, 51
2, 44969, Note_on_c, 0, 57, 45
2, 45050, Note_off_c, 0, 57, 51
2, 45051, Note_off_c, 0, 38, 61
2, 45054, Note_on_c, 0, 41, 88
2, 45055, Note_on_c, 0, 53, 46
2, 45063, Control_c, 0, 64, 20
2, 45132, Note_off_c, 0, 53, 51
2, 45135, Note_on_c, 0, 57, 48
2, 45167, Note_off_c, 0, 41, 62
2, 45215, Note_off_c, 0, 57, 52
2, 45218, Note_on_c, 0, 53, 49
2, 45284, Note_off_c, 0, 53, 52
2, 45285, Note_on_c, 0, 45, 92
2, 45287, Note_on_c, 0, 57, 50
2, 45366, Note_off_c, 0, 57, 52
2, 45369, Note_on_c, 0, 53, 52
2, 45418, Note_off_c, 0, 45, 62
2, 45450, Note_off_c, 0, 53, 53
2, 45452, Note_on_c, 0, 57, 52
2, 45535, Note_off_c, 0, 57, 53
2, 45537, Note_on_c, 0, 53, 55
2, 45539, Note_on_c, 0, 50, 96
2, 45617, Note_on_c, 0, 57, 40
2, 45632, Note_off_c, 0, 53, 53
2, 45701, Note_off_c, 0, 57, 50
2, 45703, Note_on_c, 0, 53, 40
2, 45785, Note_off_c, 0, 53, 50
2, 45787, Note_on_c, 0, 57, 38
2, 45869, Note_off_c, 0, 57, 49
2, 45871, Note_on_c, 0, 53, 36
2, 45935, Note_off_c, 0, 53, 49
2, 45937, Note_on_c, 0, 57, 35
2, 46019, Note_off_c, 0, 57, 48
2, 46021, Note_on_c, 0, 53, 33
2, 46103, Note_off_c, 0, 53, 48
2, 46104, Note_on_c, 0, 57, 32
2, 46184, Note_off_c, 0, 57, 48
2, 46187, Note_on_c, 0, 53, 30
2, 46263, Control_c, 0, 67, 127
2, 46271, Note_off_c, 0, 53, 47
2, 46272, Note_on_c, 0, 69, 65
2, 46273, Note_on_c, 0, 57, 30
2, 46353, Note_off_c, 0, 57, 47
2, 46355, Note_on_c, 0, 53, 30
2, 46435, Note_off_c, 0, 53, 47
2, 46437, Note_on_c, 0, 57, 30
2, 46521, Note_off_c, 0, 57, 47
2, 46523, Note_on_c, 0, 68, 65
2, 46524, Note_on_c, 0, 53, 30
2, 46538, Note_off_c, 0, 69, 56
2, 46619, Note_off_c, 0, 53, 47
2, 46622, Note_on_c, 0, 57, 31
2, 46721, Note_off_c, 0, 57, 47
2, 46724, Note_on_c, 0, 53, 31
2, 46808, Note_off_c, 0, 68, 56
2, 46821, Note_off_c, 0, 53, 47
2, 46824, Note_on_c, 0, 69, 72
2, 46826, Note_on_c, 0, 57, 31
2, 46906, Note_off_c, 0, 57, 47
2, 46908, Note_on_c, 0, 53, 31
2, 46989, Note_off_c, 0, 53, 47
2, 46991, Note_on_c, 0, 57, 32
2, 47089, Note_off_c, 0, 57, 48
2, 47090, Note_on_c, 0, 70, 77
2, 47093, Note_on_c, 0, 53, 32
2, 47121, Note_off_c, 0, 69, 58
2, 47171, Note_off_c, 0, 53, 48
2, 47172, Note_on_c, 0, 57, 32
2, 47255, Note_off_c, 0, 57, 48
2, 47258, Note_on_c, 0, 53, 33
2, 47355, Note_off_c, 0, 53, 48
2, 47358, Note_on_c, 0, 69, 65
2, 47359, Note_on_c, 0, 57, 33
2, 47434, Note_off_c, 0, 70, 59
2, 47436, Note_off_c, 0, 57, 48
2, 47439, Note_on_c, 0, 53, 33
2, 47537, Note_off_c, 0, 53, 48
2, 47541, Note_on_c, 0, 57, 34
2, 47555, Note_off_c, 0, 69, 56
2, 47639, Note_off_c, 0, 57, 48
2, 47641, Note_on_c, 0, 69, 65
2, 47643, Note_on_c, 0, 53, 34
2, 47724, Note_off_c, 0, 53, 48
2, 47725, Note_on_c, 0, 57, 34
2, 47823, Note_off_c, 0, 57, 48
2, 47825, Note_on_c, 0, 53, 35
2, 47905, Note_off_c, 0, 53, 48
2, 47908, Note_on_c, 0, 57, 35
2, 48006, Note_off_c, 0, 57, 48
2, 48008, Note_on_c, 0, 53, 35
2, 48089, Note_off_c, 0, 53, 48
2, 48092, Note_on_c, 0, 57, 35
2, 48158, Note_off_c, 0, 57, 48
2, 48160, Note_off_c, 0, 69, 56
2, 48191, Note_on_c, 0, 69, 53
2, 48192, Note_on_c, 0, 53, 54
2, 48274, Note_off_c, 0, 53, 53
2, 48277, Note_on_c, 0, 57, 55
2, 48359, Note_off_c, 0, 57, 53
2, 48360, Note_off_c, 0, 50, 63
2, 48361, Note_on_c, 0, 53, 56
2, 48441, Note_off_c, 0, 53, 54
2, 48443, Note_on_c, 0, 57, 57
2, 48524, Note_off_c, 0, 57, 54
2, 48527, Note_on_c, 0, 53, 58
2, 48583, Control_c, 0, 67, 20
2, 48607, Note_off_c, 0, 53, 54
2, 48608, Note_on_c, 0, 57, 59
2, 48632, Note_off_c, 0, 69, 53
2, 48674, Note_off_c, 0, 57, 54
2, 48690, Note_on_c, 0, 69, 65
2, 48693, Note_on_c, 0, 40, 84
2, 48711, Control_c, 0, 64, 95
2, 48774, Note_off_c, 0, 69, 55
2, 48777, Note_on_c, 0, 61, 52
2, 48859, Note_off_c, 0, 61, 53
2, 48862, Note_on_c, 0, 55, 54
2, 48942, Note_off_c, 0, 55, 53
2, 48944, Note_on_c, 0, 61, 56
2, 49009, Note_off_c, 0, 61, 54
2, 49011, Note_on_c, 0, 55, 58
2, 49094, Note_off_c, 0, 55, 54
2, 49097, Note_on_c, 0, 61, 60
2, 49098, Control_c, 0, 64, 20
2, 49177, Note_off_c, 0, 61, 55
2, 49178, Note_off_c, 0, 40, 61
2, 49179, Note_on_c, 0, 55, 62
2, 49180, Note_on_c, 0, 43, 85
2, 49260, Note_off_c, 0, 55, 55
2, 49262, Note_on_c, 0, 61, 65
2, 49290, Note_off_c, 0, 43, 61
2, 49343, Note_off_c, 0, 61, 56
2, 49346, Note_on_c, 0, 55, 67
2, 49426, Note_off_c, 0, 55, 57
2, 49428, Note_on_c, 0, 49, 90
2, 49430, Note_on_c, 0, 61, 69
2, 49511, Note_off_c, 0, 61, 57
2, 49512, Note_on_c, 0, 55, 71
2, 49542, Note_off_c, 0, 49, 62
2, 49577, Note_off_c, 0, 55, 58
2, 49580, Note_on_c, 0, 61, 73
2, 49660, Note_off_c, 0, 61, 58
2, 49662, Note_on_c, 0, 55, 60
2, 49664, Note_on_c, 0, 52, 96
2, 49743, Note_on_c, 0, 61, 52
2, 49762, Note_off_c, 0, 55, 55
2, 49828, Note_off_c, 0, 61, 53
2, 49830, Note_on_c, 0, 55, 52
2, 49911, Note_off_c, 0, 55, 53
2, 49914, Note_on_c, 0, 61, 50
2, 49994, Note_off_c, 0, 61, 52
2, 49995, Note_on_c, 0, 55, 48
2, 50077, Note_off_c, 0, 55, 52
2, 50079, Note_on_c, 0, 61, 47
2, 50161, Note_off_c, 0, 61, 51
2, 50164, Note_on_c, 0, 55, 45
2, 50227, Note_off_c, 0, 55, 51
2, 50229, Note_on_c, 0, 61, 44
2, 50311, Note_off_c, 0, 61, 51
2, 50313, Note_on_c, 0, 55, 42
2, 50356, Control_c, 0, 67, 127
2, 50394, Note_off_c, 0, 55, 50
2, 50398, Note_on_c, 0, 69, 65
2, 50399, Note_on_c, 0, 61, 30
2, 50479, Note_off_c, 0, 61, 47
2, 50481, Note_on_c, 0, 55, 30
2, 50562, Note_off_c, 0, 55, 47
2, 50563, Note_on_c, 0, 61, 30
2, 50646, Note_off_c, 0, 61, 47
2, 50650, Note_off_c, 0, 69, 57
2, 50651, Note_on_c, 0, 55, 30
2, 50652, Note_on_c, 0, 68, 65
2, 50747, Note_off_c, 0, 55, 46
2, 50749, Note_on_c, 0, 61, 30
2, 50845, Note_off_c, 0, 61, 47
2, 50847, Note_on_c, 0, 55, 31
2, 50946, Note_off_c, 0, 55, 47
2, 50948, Note_off_c, 0, 68, 57
2, 50949, Note_on_c, 0, 69, 72
2, 50950, Note_on_c, 0, 61, 31
2, 51031, Note_off_c, 0, 61, 47
2, 51032, Note_on_c, 0, 55, 31
2, 51130, Note_off_c, 0, 55, 47
2, 51132, Note_on_c, 0, 61, 31
2, 51212, Note_off_c, 0, 69, 59
2, 51213, Note_off_c, 0, 61, 47
2, 51217, Note_on_c, 0, 70, 77
2, 51218, Note_on_c, 0, 55, 32
2, 51297, Note_off_c, 0, 55, 48
2, 51298, Note_on_c, 0, 61, 32
2, 51397, Note_off_c, 0, 61, 48
2, 51399, Note_on_c, 0, 55, 32
2, 51483, Note_off_c, 0, 55, 48
2, 51486, Note_off_c, 0, 70, 60
2, 51486, Note_on_c, 0, 61, 32
2, 51487, Note_on_c, 0, 69, 65
2, 51580, Note_off_c, 0, 61, 48
2, 51583, Note_on_c, 0, 55, 32
2, 51664, Note_off_c, 0, 55, 48
2, 51668, Note_on_c, 0, 61, 33
2, 51698, Note_off_c, 0, 69, 57
2, 51765, Note_off_c, 0, 61, 48
2, 51766, Note_on_c, 0, 69, 65
2, 51768, Note_on_c, 0, 55, 33
2, 51849, Note_off_c, 0, 55, 48
2, 51852, Note_on_c, 0, 61, 33
2, 51950, Note_off_c, 0, 61, 48
2, 51952, Note_on_c, 0, 55, 33
2, 52032, Note_off_c, 0, 55, 48
2, 52034, Note_on_c, 0, 61, 34
2, 52132, Note_off_c, 0, 61, 48
2, 52135, Note_on_c, 0, 55, 34
2, 52217, Note_off_c, 0, 55, 48
2, 52218, Note_on_c, 0, 61, 34
2, 52282, Note_off_c, 0, 69, 57
2, 52284, Note_off_c, 0, 61, 48
2, 52316, Note_on_c, 0, 69, 53
2, 52318, Note_on_c, 0, 55, 34
2, 52399, Note_off_c, 0, 55, 48
2, 52401, Note_on_c, 0, 61, 35
2, 52483, Note_off_c, 0, 61, 48
2, 52485, Note_off_c, 0, 52, 63
2, 52487, Note_on_c, 0, 55, 35
2, 52567, Note_off_c, 0, 55, 48
2, 52569, Note_on_c, 0, 61, 35
2, 52649, Note_off_c, 0, 61, 48
2, 52650, Note_on_c, 0, 55, 35
2, 52657, Control_c, 0, 67, 0
2, 52732, Note_off_c, 0, 55, 48
2, 52735, Note_on_c, 0, 61, 35
2, 52764, Note_off_c, 0, 69, 54
2, 52801, Note_off_c, 0, 61, 48
2, 52817, Note_on_c, 0, 69, 65
2, 52818, Note_on_c, 0, 41, 84
2, 52824, Control_c, 0, 64, 98
2, 52901, Note_off_c, 0, 69, 55
2, 52903, Note_on_c, 0, 62, 52
2, 52983, Note_off_c, 0, 62, 53
2, 52985, Note_on_c, 0, 57, 53
2, 53050, Note_off_c, 0, 57, 53
2, 53052, Note_on_c, 0, 62, 54
2, 53076, Control_c, 0, 64, 20
2, 53136, Note_off_c, 0, 62, 53
2, 53138, Note_off_c, 0, 41, 61
2, 53139, Note_on_c, 0, 57, 56
2, 53217, Note_off_c, 0, 57, 54
2, 53219, Note_on_c, 0, 62, 57
2, 53302, Note_off_c, 0, 62, 54
2, 53305, Note_on_c, 0, 57, 58
2, 53306, Note_on_c, 0, 45, 87
2, 53387, Note_off_c, 0, 57, 54
2, 53388, Note_on_c, 0, 62, 60
2, 53417, Note_off_c, 0, 45, 61
2, 53466, Note_off_c, 0, 62, 55
2, 53470, Note_on_c, 0, 57, 61
2, 53552, Note_off_c, 0, 57, 55
2, 53555, Note_on_c, 0, 50, 91
2, 53558, Note_on_c, 0, 62, 62
2, 53620, Note_off_c, 0, 62, 55
2, 53622, Note_on_c, 0, 57, 64
2, 53669, Note_off_c, 0, 50, 62
2, 53702, Note_off_c, 0, 57, 55
2, 53703, Note_on_c, 0, 62, 64
2, 53785, Note_off_c, 0, 62, 55
2, 53788, Note_on_c, 0, 57, 60
2, 53790, Note_on_c, 0, 53, 96
2, 53869, Note_on_c, 0, 62, 52
2, 53886, Note_off_c, 0, 57, 55
2, 53951, Note_off_c, 0, 62, 53
2, 53954, Note_on_c, 0, 57, 52
2, 54035, Note_off_c, 0, 57, 53
2, 54038, Note_on_c, 0, 62, 51
2, 54120, Note_off_c, 0, 62, 52
2, 54122, Note_on_c, 0, 57, 49
2, 54204, Note_off_c, 0, 57, 52
2, 54206, Note_on_c, 0, 62, 48
2, 54269, Note_off_c, 0, 62, 52
2, 54272, Note_on_c, 0, 74, 96
2, 54273, Note_on_c, 0, 57, 47
2, 54353, Note_off_c, 0, 57, 51
2, 54355, Note_on_c, 0, 62, 46
2, 54403, Note_off_c, 0, 74, 63
2, 54437, Note_off_c, 0, 62, 51
2, 54440, Note_off_c, 0, 53, 63
2, 54442, Note_on_c, 0, 57, 44
2, 54520, Note_off_c, 0, 57, 51
2, 54522, Note_on_c, 0, 62, 43
2, 54605, Note_off_c, 0, 62, 50
2, 54608, Note_on_c, 0, 57, 42
2, 54689, Note_off_c, 0, 57, 50
2, 54690, Note_on_c, 0, 62, 40
2, 54771, Note_off_c, 0, 62, 50
2, 54776, Note_on_c, 0, 44, 84
2, 54777, Note_on_c, 0, 64, 52
2, 54804, Control_c, 0, 64, 92
2, 54837, Note_off_c, 0, 64, 53
2, 54840, Note_on_c, 0, 59, 52
2, 54921, Note_off_c, 0, 59, 53
2, 54925, Note_on_c, 0, 64, 53
2, 55007, Note_off_c, 0, 64, 53
2, 55009, Note_on_c, 0, 59, 54
2, 55089, Note_off_c, 0, 59, 53
2, 55091, Note_on_c, 0, 64, 55
2, 55173, Note_off_c, 0, 64, 53
2, 55175, Note_on_c, 0, 59, 56
2, 55212, Control_c, 0, 64, 20
2, 55257, Note_off_c, 0, 59, 54
2, 55259, Note_off_c, 0, 44, 61
2, 55262, Note_on_c, 0, 47, 85
2, 55263, Note_on_c, 0, 64, 58
2, 55339, Note_off_c, 0, 64, 54
2, 55340, Note_on_c, 0, 59, 59
2, 55372, Note_off_c, 0, 47, 61
2, 55422, Note_off_c, 0, 59, 54
2, 55425, Note_on_c, 0, 64, 60
2, 55491, Note_off_c, 0, 64, 55
2, 55493, Note_on_c, 0, 52, 90
2, 55495, Note_on_c, 0, 59, 61
2, 55573, Note_off_c, 0, 59, 55
2, 55574, Note_on_c, 0, 64, 62
2, 55624, Note_off_c, 0, 52, 62
2, 55647, Note_on_c, 0, 59, 64
2, 55655, Note_off_c, 0, 64, 55
2, 55711, Note_off_c, 0, 59, 56
2, 55745, Note_on_c, 0, 56, 96
2, 55767, Note_on_c, 0, 59, 60
2, 55824, Note_on_c, 0, 64, 52
2, 55845, Note_off_c, 0, 59, 55
2, 55905, Note_off_c, 0, 64, 53
2, 55909, Note_on_c, 0, 59, 52
2, 55992, Note_off_c, 0, 59, 53
2, 55993, Note_on_c, 0, 64, 51
2, 56076, Note_off_c, 0, 64, 52
2, 56079, Note_on_c, 0, 59, 49
2, 56142, Note_off_c, 0, 59, 52
2, 56144, Note_on_c, 0, 64, 48
2, 56224, Note_off_c, 0, 64, 52
2, 56229, Note_on_c, 0, 76, 96
2, 56230, Note_on_c, 0, 59, 47
2, 56310, Note_off_c, 0, 59, 51
2, 56312, Note_on_c, 0, 64, 46
2, 56358, Note_off_c, 0, 76, 63
2, 56390, Note_off_c, 0, 64, 51
2, 56393, Note_off_c, 0, 56, 63
2, 56393, Note_on_c, 0, 59, 44
2, 56473, Note_off_c, 0, 59, 51
2, 56478, Note_on_c, 0, 64, 43
2, 56560, Note_off_c, 0, 64, 50
2, 56562, Note_on_c, 0, 59, 42
2, 56644, Note_off_c, 0, 59, 50
2, 56646, Note_on_c, 0, 64, 40
2, 56708, Note_on_c, 0, 65, 52
2, 56711, Note_on_c, 0, 45, 84
2, 56742, Control_c, 0, 64, 90
2, 56744, Note_off_c, 0, 64, 50
2, 56793, Note_off_c, 0, 65, 53
2, 56796, Note_on_c, 0, 60, 52
2, 56877, Note_off_c, 0, 60, 53
2, 56879, Note_on_c, 0, 65, 53
2, 56959, Note_off_c, 0, 65, 53
2, 56962, Note_on_c, 0, 60, 54
2, 57044, Note_off_c, 0, 60, 53
2, 57046, Note_on_c, 0, 65, 55
2, 57128, Note_off_c, 0, 65, 53
2, 57129, Note_on_c, 0, 60, 56
2, 57179, Control_c, 0, 64, 20
2, 57209, Note_off_c, 0, 60, 54
2, 57212, Note_off_c, 0, 45, 61
2, 57213, Note_on_c, 0, 65, 58
2, 57215, Note_on_c, 0, 48, 87
2, 57293, Note_off_c, 0, 65, 54
2, 57295, Note_on_c, 0, 60, 59
2, 57325, Note_off_c, 0, 48, 61
2, 57361, Note_off_c, 0, 60, 54
2, 57363, Note_on_c, 0, 65, 60
2, 57444, Note_off_c, 0, 65, 55
2, 57446, Note_on_c, 0, 53, 91
2, 57447, Note_on_c, 0, 60, 61
2, 57527, Note_off_c, 0, 60, 55
2, 57529, Note_on_c, 0, 65, 62
2, 57579, Note_off_c, 0, 53, 62
2, 57592, Note_on_c, 0, 60, 64
2, 57613, Note_off_c, 0, 65, 55
2, 57659, Note_off_c, 0, 60, 55
2, 57695, Note_on_c, 0, 57, 96
2, 57706, Note_on_c, 0, 60, 60
2, 57777, Note_on_c, 0, 65, 52
2, 57790, Note_off_c, 0, 60, 55
2, 57863, Note_off_c, 0, 65, 53
2, 57865, Note_on_c, 0, 60, 52
2, 57946, Note_off_c, 0, 60, 53
2, 57949, Note_on_c, 0, 65, 53
2, 58013, Note_off_c, 0, 65, 53
2, 58015, Note_on_c, 0, 60, 55
2, 58096, Note_off_c, 0, 60, 53
2, 58099, Note_on_c, 0, 65, 56
2, 58180, Note_off_c, 0, 65, 54
2, 58181, Note_on_c, 0, 77, 96
2, 58182, Note_on_c, 0, 60, 58
2, 58263, Note_off_c, 0, 60, 54
2, 58265, Note_on_c, 0, 65, 59
2, 58296, Note_off_c, 0, 77, 63
2, 58346, Note_off_c, 0, 65, 54
2, 58347, Note_off_c, 0, 57, 63
2, 58351, Note_on_c, 0, 60, 61
2, 58431, Note_off_c, 0, 60, 55
2, 58433, Note_on_c, 0, 65, 62
2, 58513, Note_off_c, 0, 65, 55
2, 58514, Note_on_c, 0, 60, 64
2, 58580, Note_off_c, 0, 60, 56
2, 58582, Note_on_c, 0, 65, 64
2, 58665, Note_off_c, 0, 65, 56
2, 58666, Note_on_c, 0, 68, 52
2, 58668, Note_on_c, 0, 47, 84
2, 58689, Control_c, 0, 64, 96
2, 58746, Note_off_c, 0, 68, 53
2, 58748, Note_on_c, 0, 62, 52
2, 58829, Note_off_c, 0, 62, 53
2, 58832, Note_on_c, 0, 68, 53
2, 58915, Note_off_c, 0, 68, 53
2, 58916, Note_on_c, 0, 62, 54
2, 58998, Note_off_c, 0, 62, 53
2, 59000, Note_on_c, 0, 68, 56
2, 59081, Note_off_c, 0, 68, 54
2, 59083, Note_on_c, 0, 62, 57
2, 59109, Control_c, 0, 64, 20
2, 59166, Note_off_c, 0, 62, 54
2, 59167, Note_off_c, 0, 47, 61
2, 59169, Note_on_c, 0, 50, 87
2, 59171, Note_on_c, 0, 68, 58
2, 59233, Note_off_c, 0, 68, 54
2, 59234, Note_on_c, 0, 62, 60
2, 59283, Note_off_c, 0, 50, 61
2, 59314, Note_off_c, 0, 62, 55
2, 59317, Note_on_c, 0, 68, 61
2, 59399, Note_off_c, 0, 68, 55
2, 59402, Note_on_c, 0, 62, 62
2, 59403, Note_on_c, 0, 56, 91
2, 59483, Note_off_c, 0, 62, 55
2, 59486, Note_on_c, 0, 68, 64
2, 59516, Note_off_c, 0, 56, 62
2, 59557, Note_on_c, 0, 62, 64
2, 59566, Note_off_c, 0, 68, 56
2, 59614, Note_off_c, 0, 62, 56
2, 59652, Note_on_c, 0, 59, 96
2, 59661, Note_on_c, 0, 62, 76
2, 59732, Note_on_c, 0, 68, 52
2, 59738, Note_off_c, 0, 62, 59
2, 59817, Note_off_c, 0, 68, 53
2, 59820, Note_on_c, 0, 62, 52
2, 59883, Note_off_c, 0, 62, 53
2, 59885, Note_on_c, 0, 68, 54
2, 59967, Note_off_c, 0, 68, 53
2, 59970, Note_on_c, 0, 62, 55
2, 60053, Note_off_c, 0, 62, 53
2, 60054, Note_on_c, 0, 68, 56
2, 60135, Note_off_c, 0, 68, 54
2, 60137, Note_on_c, 0, 80, 96
2, 60138, Note_on_c, 0, 62, 58
2, 60217, Note_off_c, 0, 62, 54
2, 60219, Note_on_c, 0, 68, 59
2, 60249, Note_off_c, 0, 80, 63
2, 60301, Note_off_c, 0, 68, 54
2, 60303, Note_off_c, 0, 59, 63
2, 60306, Note_on_c, 0, 62, 61
2, 60386, Note_off_c, 0, 62, 55
2, 60386, Note_on_c, 0, 68, 62
2, 60451, Note_off_c, 0, 68, 55
2, 60453, Note_on_c, 0, 62, 64
2, 60535, Note_off_c, 0, 62, 56
2, 60537, Note_on_c, 0, 68, 64
2, 60618, Note_off_c, 0, 68, 56
2, 60621, Note_on_c, 0, 48, 84
2, 60622, Note_on_c, 0, 69, 52
2, 60630, Control_c, 0, 64, 86
2, 60701, Note_off_c, 0, 69, 53
2, 60703, Note_on_c, 0, 64, 52
2, 60785, Note_off_c, 0, 64, 53
2, 60789, Note_on_c, 0, 69, 53
2, 60871, Note_off_c, 0, 69, 53
2, 60873, Note_on_c, 0, 64, 54
2, 60941, Control_c, 0, 64, 20
2, 60950, Note_off_c, 0, 64, 53
2, 60953, Note_on_c, 0, 69, 55
2, 61037, Note_off_c, 0, 69, 53
2, 61039, Note_on_c, 0, 64, 56
2, 61121, Note_off_c, 0, 64, 54
2, 61123, Note_off_c, 0, 48, 61
2, 61124, Note_on_c, 0, 57, 87
2, 61125, Note_on_c, 0, 69, 58
2, 61203, Note_off_c, 0, 69, 54
2, 61204, Note_on_c, 0, 64, 59
2, 61237, Note_off_c, 0, 57, 61
2, 61285, Note_off_c, 0, 64, 54
2, 61289, Note_on_c, 0, 69, 60
2, 61371, Note_off_c, 0, 69, 55
2, 61373, Note_on_c, 0, 64, 61
2, 61375, Note_on_c, 0, 60, 91
2, 61454, Note_off_c, 0, 64, 55
2, 61457, Note_on_c, 0, 69, 62
2, 61487, Note_off_c, 0, 60, 62
2, 61536, Note_off_c, 0, 69, 55
2, 61539, Note_on_c, 0, 64, 64
2, 61620, Note_off_c, 0, 64, 56
2, 61649, Note_on_c, 0, 69, 70
2, 61651, Note_on_c, 0, 66, 96
2, 61660, Note_on_c, 0, 63, 84
2, 61662, Control_c, 0, 64, 96
2, 61732, Note_on_c, 0, 72, 52
2, 61768, Note_off_c, 0, 69, 57
2, 61813, Note_off_c, 0, 72, 53
2, 61819, Note_on_c, 0, 69, 52
2, 61900, Note_off_c, 0, 69, 53
2, 61903, Note_on_c, 0, 72, 53
2, 61985, Note_off_c, 0, 72, 53
2, 61987, Note_on_c, 0, 69, 54
2, 62068, Note_off_c, 0, 69, 53
2, 62071, Note_on_c, 0, 72, 56
2, 62101, Control_c, 0, 64, 20
2, 62151, Note_off_c, 0, 72, 54
2, 62153, Note_on_c, 0, 81, 96
2, 62154, Note_on_c, 0, 69, 57
2, 62169, Note_off_c, 0, 63, 61
2, 62234, Note_off_c, 0, 69, 54
2, 62237, Note_on_c, 0, 72, 58
2, 62319, Note_off_c, 0, 72, 54
2, 62321, Note_off_c, 0, 66, 63
2, 62322, Note_on_c, 0, 69, 60
2, 62401, Note_off_c, 0, 81, 63
2, 62404, Note_off_c, 0, 69, 55
2, 62407, Note_on_c, 0, 72, 61
2, 62487, Note_off_c, 0, 72, 55
2, 62488, Note_on_c, 0, 69, 62
2, 62568, Note_off_c, 0, 69, 55
2, 62571, Note_on_c, 0, 72, 64
2, 62634, Note_on_c, 0, 69, 60
2, 62636, Note_on_c, 0, 66, 96
2, 62645, Note_on_c, 0, 63, 84
2, 62651, Note_off_c, 0, 72, 56
2, 62676, Control_c, 0, 64, 92
2, 62721, Note_on_c, 0, 72, 52
2, 62728, Note_off_c, 0, 69, 55
2, 62803, Note_off_c, 0, 72, 53
2, 62804, Note_on_c, 0, 69, 52
2, 62884, Note_off_c, 0, 69, 53
2, 62886, Note_on_c, 0, 72, 53
2, 62968, Note_off_c, 0, 72, 53
2, 62971, Note_on_c, 0, 69, 55
2, 63054, Note_off_c, 0, 69, 53
2, 63057, Note_on_c, 0, 72, 56
2, 63138, Note_off_c, 0, 72, 54
2, 63139, Note_on_c, 0, 81, 96
2, 63140, Note_on_c, 0, 69, 58
2, 63144, Control_c, 0, 64, 20
2, 63216, Note_off_c, 0, 63, 61
2, 63218, Note_off_c, 0, 69, 54
2, 63222, Note_on_c, 0, 72, 59
2, 63284, Note_off_c, 0, 66, 63
2, 63304, Note_off_c, 0, 72, 54
2, 63307, Note_on_c, 0, 69, 61
2, 63388, Note_off_c, 0, 81, 63
2, 63388, Note_off_c, 0, 69, 55
2, 63391, Note_on_c, 0, 72, 62
2, 63471, Note_off_c, 0, 72, 55
2, 63472, Note_on_c, 0, 69, 64
2, 63553, Note_off_c, 0, 69, 56
2, 63557, Note_on_c, 0, 72, 64
2, 63638, Note_off_c, 0, 72, 56
2, 63641, Note_on_c, 0, 69, 66
2, 63643, Note_on_c, 0, 66, 96
2, 63649, Note_on_c, 0, 63, 85
2, 63652, Control_c, 0, 64, 96
2, 63720, Note_on_c, 0, 72, 52
2, 63739, Note_off_c, 0, 69, 56
2, 63818, Note_off_c, 0, 72, 53
2, 63822, Note_on_c, 0, 69, 52
2, 63904, Note_off_c, 0, 69, 53
2, 63907, Note_on_c, 0, 72, 51
2, 63988, Note_off_c, 0, 72, 52
2, 63991, Note_on_c, 0, 69, 50
2, 64072, Note_off_c, 0, 69, 52
2, 64074, Note_on_c, 0, 72, 48
2, 64147, Control_c, 0, 64, 20
2, 64171, Note_off_c, 0, 72, 52
2, 64172, Note_on_c, 0, 81, 96
2, 64174, Note_on_c, 0, 69, 47
2, 64255, Note_off_c, 0, 69, 51
2, 64256, Note_off_c, 0, 63, 61
2, 64259, Note_on_c, 0, 72, 46
2, 64358, Note_off_c, 0, 66, 63
2, 64358, Note_off_c, 0, 72, 51
2, 64362, Note_on_c, 0, 69, 44
2, 64440, Note_off_c, 0, 69, 51
2, 64441, Note_off_c, 0, 81, 63
2, 64444, Note_on_c, 0, 72, 43
2, 64540, Note_off_c, 0, 72, 50
2, 64541, Note_on_c, 0, 69, 42
2, 64621, Note_off_c, 0, 69, 50
2, 64626, Note_on_c, 0, 72, 40
2, 64724, Note_off_c, 0, 72, 50
2, 64727, Note_on_c, 0, 68, 34
2, 64728, Note_on_c, 0, 71, 40
2, 64729, Note_on_c, 0, 52, 30
2, 64730, Note_on_c, 0, 80, 52
2, 64854, Note_off_c, 0, 52, 47
2, 64859, Note_on_c, 0, 64, 30
2, 64988, Note_off_c, 0, 80, 53
2, 64993, Note_off_c, 0, 68, 48
2, 64995, Note_off_c, 0, 71, 50
2, 64996, Note_off_c, 0, 64, 47
2, 64997, Note_on_c, 0, 59, 30
2, 64998, Note_on_c, 0, 62, 33
2, 65126, Note_off_c, 0, 59, 47
2, 65128, Note_off_c, 0, 62, 48
2, 65129, Note_on_c, 0, 64, 21
2, 65259, Note_off_c, 0, 64, 45
2, 65261, Note_on_c, 0, 65, 21
2, 65375, Note_off_c, 0, 65, 45
2, 65378, Note_on_c, 0, 64, 22
2, 65509, Note_off_c, 0, 64, 45
2, 65511, Note_on_c, 0, 83, 67
2, 65513, Note_on_c, 0, 59, 19
2, 65514, Note_on_c, 0, 62, 23
2, 65522, Control_c, 0, 64, 96
2, 65626, Note_off_c, 0, 62, 45
2, 65627, Note_off_c, 0, 59, 45
2, 65630, Note_on_c, 0, 80, 63
2, 65632, Note_on_c, 0, 64, 23
2, 65644, Note_off_c, 0, 83, 57
2, 65710, Note_off_c, 0, 80, 55
2, 65742, Note_off_c, 0, 64, 45
2, 65744, Note_on_c, 0, 76, 59
2, 65746, Note_on_c, 0, 52, 24
2, 65878, Note_off_c, 0, 52, 46
2, 65880, Note_on_c, 0, 77, 54
2, 65882, Note_on_c, 0, 64, 25
2, 65927, Note_off_c, 0, 76, 54
2, 65960, Note_off_c, 0, 77, 53
2, 65994, Note_off_c, 0, 64, 46
2, 65997, Note_on_c, 0, 77, 50
2, 65999, Note_on_c, 0, 59, 22
2, 65999, Note_on_c, 0, 62, 25
2, 66018, Control_c, 0, 64, 20
2, 66111, Note_off_c, 0, 62, 46
2, 66114, Note_off_c, 0, 77, 52
2, 66116, Note_off_c, 0, 59, 45
2, 66116, Note_on_c, 0, 64, 26
2, 66117, Note_on_c, 0, 74, 47
2, 66212, Note_off_c, 0, 74, 51
2, 66227, Note_off_c, 0, 64, 46
2, 66230, Note_on_c, 0, 65, 26
2, 66360, Note_off_c, 0, 65, 46
2, 66362, Note_on_c, 0, 64, 27
2, 66476, Note_off_c, 0, 64, 46
2, 66480, Note_on_c, 0, 83, 66
2, 66482, Note_on_c, 0, 59, 24
2, 66483, Note_on_c, 0, 62, 28
2, 66555, Control_c, 0, 64, 96
2, 66593, Note_off_c, 0, 62, 47
2, 66596, Note_off_c, 0, 59, 46
2, 66599, Note_on_c, 0, 80, 63
2, 66601, Note_off_c, 0, 83, 56
2, 66601, Note_on_c, 0, 64, 28
2, 66694, Note_off_c, 0, 80, 55
2, 66725, Note_off_c, 0, 64, 47
2, 66732, Note_on_c, 0, 76, 58
2, 66733, Note_on_c, 0, 52, 29
2, 66846, Note_off_c, 0, 52, 47
2, 66849, Note_on_c, 0, 77, 55
2, 66851, Note_on_c, 0, 64, 30
2, 66872, Note_off_c, 0, 76, 54
2, 66930, Note_off_c, 0, 77, 53
2, 66961, Note_off_c, 0, 64, 47
2, 66966, Note_on_c, 0, 77, 51
2, 66968, Note_on_c, 0, 59, 24
2, 66969, Note_on_c, 0, 62, 30
2, 67051, Control_c, 0, 64, 20
2, 67094, Note_off_c, 0, 77, 52
2, 67096, Note_off_c, 0, 59, 46
2, 67099, Note_off_c, 0, 62, 47
2, 67100, Note_on_c, 0, 74, 47
2, 67101, Note_on_c, 0, 64, 31
2, 67178, Note_off_c, 0, 74, 51
2, 67211, Note_off_c, 0, 64, 47
2, 67213, Note_on_c, 0, 65, 32
2, 67328, Note_off_c, 0, 65, 48
2, 67330, Note_on_c, 0, 64, 32
2, 67463, Note_off_c, 0, 64, 48
2, 67466, Note_on_c, 0, 83, 67
2, 67467, Note_on_c, 0, 62, 31
2, 67470, Note_on_c, 0, 59, 24
2, 67559, Control_c, 0, 64, 96
2, 67580, Note_off_c, 0, 59, 46
2, 67582, Note_off_c, 0, 62, 47
2, 67585, Note_on_c, 0, 80, 63
2, 67587, Note_on_c, 0, 64, 30
2, 67592, Note_off_c, 0, 83, 57
2, 67662, Note_off_c, 0, 80, 55
2, 67696, Note_off_c, 0, 64, 47
2, 67696, Note_on_c, 0, 76, 60
2, 67698, Note_on_c, 0, 52, 28
2, 67813, Note_off_c, 0, 52, 47
2, 67816, Note_on_c, 0, 77, 57
2, 67818, Note_on_c, 0, 64, 27
2, 67839, Note_off_c, 0, 76, 55
2, 67911, Note_off_c, 0, 77, 54
2, 67947, Note_off_c, 0, 64, 46
2, 67949, Note_on_c, 0, 77, 53
2, 67951, Note_on_c, 0, 59, 26
2, 67952, Note_on_c, 0, 62, 32
2, 68057, Control_c, 0, 64, 20
2, 68064, Note_off_c, 0, 59, 46
2, 68066, Note_off_c, 0, 62, 48
2, 68068, Note_on_c, 0, 74, 50
2, 68070, Note_on_c, 0, 64, 24
2, 68089, Note_off_c, 0, 77, 53
2, 68163, Note_off_c, 0, 74, 52
2, 68199, Note_off_c, 0, 64, 46
2, 68201, Note_on_c, 0, 74, 47
2, 68203, Note_on_c, 0, 52, 23
2, 68206, Control_c, 0, 64, 96
2, 68316, Note_off_c, 0, 52, 45
2, 68318, Note_on_c, 0, 72, 55
2, 68320, Note_on_c, 0, 64, 22
2, 68353, Note_off_c, 0, 74, 51
2, 68416, Note_off_c, 0, 72, 53
2, 68449, Note_off_c, 0, 64, 45
2, 68451, Note_on_c, 0, 72, 55
2, 68453, Note_on_c, 0, 56, 20
2, 68455, Note_on_c, 0, 59, 24
2, 68581, Note_off_c, 0, 59, 46
2, 68584, Note_off_c, 0, 56, 45
2, 68587, Note_on_c, 0, 71, 55
2, 68588, Note_on_c, 0, 64, 20
2, 68634, Note_off_c, 0, 72, 53
2, 68667, Note_off_c, 0, 71, 53
2, 68698, Note_off_c, 0, 64, 45
2, 68701, Note_on_c, 0, 71, 59
2, 68702, Note_on_c, 0, 52, 20
2, 68788, Control_c, 0, 64, 20
2, 68835, Note_off_c, 0, 52, 45
2, 68839, Note_on_c, 0, 72, 63
2, 68840, Note_on_c, 0, 64, 26
2, 68863, Note_off_c, 0, 71, 54
2, 68932, Note_off_c, 0, 72, 55
2, 68964, Note_off_c, 0, 64, 48
2, 68967, Note_on_c, 0, 69, 67
2, 68969, Note_on_c, 0, 60, 37
2, 68971, Note_on_c, 0, 57, 32
2, 69100, Note_off_c, 0, 69, 57
2, 69102, Note_off_c, 0, 57, 48
2, 69103, Note_off_c, 0, 60, 49
2, 69105, Note_on_c, 0, 64, 32
2, 69215, Note_off_c, 0, 64, 48
2, 69219, Note_on_c, 0, 65, 25
2, 69352, Note_off_c, 0, 65, 46
2, 69355, Note_on_c, 0, 64, 23
2, 69439, Control_c, 0, 64, 96
2, 69469, Note_off_c, 0, 64, 45
2, 69472, Note_on_c, 0, 84, 68
2, 69473, Note_on_c, 0, 57, 27
2, 69474, Note_on_c, 0, 60, 34
2, 69586, Note_off_c, 0, 57, 46
2, 69588, Note_off_c, 0, 60, 48
2, 69591, Note_on_c, 0, 64, 26
2, 69592, Note_on_c, 0, 81, 66
2, 69593, Note_off_c, 0, 84, 57
2, 69684, Note_off_c, 0, 81, 56
2, 69719, Note_off_c, 0, 64, 46
2, 69721, Note_on_c, 0, 75, 64
2, 69724, Note_on_c, 0, 52, 24
2, 69836, Note_off_c, 0, 52, 46
2, 69838, Note_on_c, 0, 76, 61
2, 69840, Note_on_c, 0, 64, 22
2, 69879, Note_off_c, 0, 75, 56
2, 69918, Note_off_c, 0, 76, 55
2, 69936, Control_c, 0, 64, 20
2, 69953, Note_off_c, 0, 64, 45
2, 69955, Note_on_c, 0, 76, 59
2, 69957, Note_on_c, 0, 57, 16
2, 69958, Note_on_c, 0, 60, 20
2, 70088, Note_off_c, 0, 60, 45
2, 70089, Note_off_c, 0, 57, 44
2, 70091, Note_on_c, 0, 72, 56
2, 70093, Note_on_c, 0, 64, 20
2, 70105, Note_off_c, 0, 76, 54
2, 70170, Note_off_c, 0, 72, 54
2, 70203, Note_off_c, 0, 64, 45
2, 70206, Note_on_c, 0, 65, 23
2, 70322, Note_off_c, 0, 65, 45
2, 70324, Note_on_c, 0, 64, 26
2, 70453, Control_c, 0, 64, 96
2, 70455, Note_off_c, 0, 64, 46
2, 70458, Note_on_c, 0, 57, 18
2, 70459, Note_on_c, 0, 84, 68
2, 70459, Note_on_c, 0, 60, 29
2, 70569, Note_off_c, 0, 60, 47
2, 70571, Note_off_c, 0, 57, 44
2, 70574, Note_on_c, 0, 81, 68
2, 70576, Note_on_c, 0, 64, 32
2, 70588, Note_off_c, 0, 84, 57
2, 70654, Note_off_c, 0, 81, 57
2, 70686, Note_off_c, 0, 64, 48
2, 70689, Note_on_c, 0, 75, 65
2, 70690, Note_on_c, 0, 52, 32
2, 70803, Note_off_c, 0, 52, 48
2, 70808, Note_on_c, 0, 76, 62
2, 70809, Note_on_c, 0, 64, 28
2, 70836, Note_off_c, 0, 75, 56
2, 70905, Note_off_c, 0, 76, 55
2, 70936, Note_off_c, 0, 64, 47
2, 70938, Note_on_c, 0, 76, 59
2, 70940, Note_on_c, 0, 57, 24
2, 70942, Note_on_c, 0, 60, 34
2, 70950, Control_c, 0, 64, 20
2, 71053, Note_off_c, 0, 60, 48
2, 71057, Note_off_c, 0, 57, 46
2, 71059, Note_on_c, 0, 72, 56
2, 71061, Note_on_c, 0, 64, 20
2, 71077, Note_off_c, 0, 76, 54
2, 71139, Note_off_c, 0, 72, 54
2, 71170, Note_off_c, 0, 64, 45
2, 71172, Note_on_c, 0, 65, 20
2, 71305, Note_off_c, 0, 65, 45
2, 71306, Note_on_c, 0, 64, 24
2, 71420, Note_off_c, 0, 64, 46
2, 71424, Note_on_c, 0, 84, 68
2, 71425, Note_on_c, 0, 57, 28
2, 71426, Note_on_c, 0, 60, 34
2, 71476, Control_c, 0, 64, 96
2, 71538, Note_off_c, 0, 57, 47
2, 71540, Note_off_c, 0, 60, 48
2, 71543, Note_on_c, 0, 81, 68
2, 71545, Note_on_c, 0, 64, 32
2, 71568, Note_off_c, 0, 84, 57
2, 71637, Note_off_c, 0, 81, 57
2, 71671, Note_off_c, 0, 64, 48
2, 71673, Note_on_c, 0, 75, 67
2, 71675, Note_on_c, 0, 52, 20
2, 71790, Note_off_c, 0, 52, 45
2, 71792, Note_on_c, 0, 76, 65
2, 71795, Note_on_c, 0, 64, 20
2, 71827, Note_off_c, 0, 75, 57
2, 71888, Note_off_c, 0, 76, 56
2, 71923, Note_off_c, 0, 64, 45
2, 71926, Note_on_c, 0, 76, 64
2, 71928, Note_on_c, 0, 60, 26
2, 71929, Note_on_c, 0, 57, 21
2, 71973, Control_c, 0, 64, 20
2, 72041, Note_off_c, 0, 57, 45
2, 72042, Note_off_c, 0, 60, 46
2, 72045, Note_on_c, 0, 64, 23
2, 72046, Note_on_c, 0, 72, 62
2, 72047, Note_off_c, 0, 76, 56
2, 72120, Control_c, 0, 64, 96
2, 72140, Note_off_c, 0, 72, 55
2, 72174, Note_off_c, 0, 64, 45
2, 72176, Note_on_c, 0, 72, 61
2, 72178, Note_on_c, 0, 52, 24
2, 72291, Note_off_c, 0, 52, 46
2, 72293, Note_on_c, 0, 71, 59
2, 72295, Note_on_c, 0, 64, 26
2, 72326, Note_off_c, 0, 72, 55
2, 72391, Note_off_c, 0, 71, 54
2, 72425, Note_off_c, 0, 64, 46
2, 72428, Note_on_c, 0, 71, 58
2, 72430, Note_on_c, 0, 57, 24
2, 72431, Note_on_c, 0, 60, 27
2, 72541, Note_off_c, 0, 60, 46
2, 72545, Note_off_c, 0, 57, 46
2, 72547, Note_on_c, 0, 69, 56
2, 72549, Note_on_c, 0, 64, 29
2, 72576, Note_off_c, 0, 71, 54
2, 72642, Note_off_c, 0, 69, 54
2, 72675, Note_off_c, 0, 64, 47
2, 72677, Note_on_c, 0, 69, 56
2, 72678, Note_on_c, 0, 52, 30
2, 72704, Control_c, 0, 64, 20
2, 72809, Note_off_c, 0, 52, 47
2, 72812, Note_on_c, 0, 68, 62
2, 72813, Note_on_c, 0, 64, 32
2, 72856, Note_off_c, 0, 69, 54
2, 72909, Note_off_c, 0, 68, 55
2, 72941, Note_off_c, 0, 64, 48
2, 72945, Note_on_c, 0, 71, 68
2, 72946, Note_on_c, 0, 59, 32
2, 72947, Note_on_c, 0, 62, 36
2, 73015, Note_off_c, 0, 71, 57
2, 73076, Note_off_c, 0, 59, 48
2, 73079, Note_off_c, 0, 62, 49
2, 73082, Note_on_c, 0, 64, 28
2, 73191, Note_off_c, 0, 64, 47
2, 73194, Note_on_c, 0, 65, 24
2, 73327, Note_off_c, 0, 65, 46
2, 73329, Note_on_c, 0, 64, 20
2, 73442, Note_off_c, 0, 64, 45
2, 73446, Note_on_c, 0, 62, 34
2, 73448, Note_on_c, 0, 89, 74
2, 73451, Note_on_c, 0, 59, 30
2, 73456, Control_c, 0, 64, 100
2, 73561, Note_off_c, 0, 59, 47
2, 73563, Note_off_c, 0, 62, 48
2, 73565, Note_on_c, 0, 64, 30
2, 73567, Note_on_c, 0, 86, 74
2, 73602, Note_off_c, 0, 89, 59
2, 73659, Note_off_c, 0, 86, 59
2, 73696, Note_off_c, 0, 64, 47
2, 73697, Note_on_c, 0, 52, 32
2, 73698, Note_on_c, 0, 85, 75
2, 73811, Note_off_c, 0, 52, 48
2, 73813, Note_on_c, 0, 86, 76
2, 73815, Note_on_c, 0, 64, 34
2, 73849, Note_off_c, 0, 85, 59
2, 73893, Note_off_c, 0, 86, 59
2, 73927, Note_off_c, 0, 64, 48
2, 73930, Note_on_c, 0, 62, 44
2, 73932, Note_on_c, 0, 59, 36
2, 73933, Note_on_c, 0, 83, 78
2, 73990, Control_c, 0, 64, 20
2, 74044, Note_off_c, 0, 59, 49
2, 74046, Note_off_c, 0, 62, 51
2, 74048, Note_off_c, 0, 83, 59
2, 74049, Note_on_c, 0, 64, 38
2, 74182, Note_off_c, 0, 64, 49
2, 74183, Note_on_c, 0, 65, 40
2, 74296, Note_off_c, 0, 65, 50
2, 74299, Note_on_c, 0, 64, 42
2, 74400, Control_c, 0, 64, 100
2, 74413, Note_off_c, 0, 64, 50
2, 74415, Note_on_c, 0, 89, 83
2, 74418, Note_on_c, 0, 59, 39
2, 74420, Note_on_c, 0, 62, 44
2, 74546, Note_off_c, 0, 62, 51
2, 74547, Note_off_c, 0, 59, 49
2, 74550, Note_on_c, 0, 86, 85
2, 74551, Note_on_c, 0, 64, 52
2, 74569, Note_off_c, 0, 89, 60
2, 74631, Note_off_c, 0, 86, 61
2, 74661, Note_off_c, 0, 64, 53
2, 74663, Note_on_c, 0, 85, 86
2, 74665, Note_on_c, 0, 52, 55
2, 74780, Note_off_c, 0, 52, 53
2, 74782, Note_on_c, 0, 64, 57
2, 74784, Note_on_c, 0, 86, 88
2, 74796, Note_off_c, 0, 85, 61
2, 74882, Note_off_c, 0, 86, 62
2, 74913, Note_off_c, 0, 64, 54
2, 74916, Note_on_c, 0, 83, 89
2, 74917, Note_on_c, 0, 59, 54
2, 74919, Note_on_c, 0, 62, 59
2, 74946, Control_c, 0, 64, 20
2, 75029, Note_off_c, 0, 62, 54
2, 75032, Note_off_c, 0, 83, 62
2, 75034, Note_off_c, 0, 59, 53
2, 75036, Note_on_c, 0, 64, 61
2, 75148, Note_off_c, 0, 64, 55
2, 75150, Note_on_c, 0, 65, 63
2, 75280, Note_off_c, 0, 65, 55
2, 75282, Note_on_c, 0, 64, 65
2, 75397, Note_off_c, 0, 64, 56
2, 75399, Note_on_c, 0, 59, 67
2, 75400, Note_on_c, 0, 62, 60
2, 75402, Note_on_c, 0, 89, 81
2, 75516, Note_off_c, 0, 59, 57
2, 75517, Note_off_c, 0, 62, 55
2, 75520, Note_on_c, 0, 86, 82
2, 75522, Note_on_c, 0, 64, 69
2, 75525, Note_off_c, 0, 89, 60
2, 75630, Note_off_c, 0, 64, 57
2, 75631, Note_off_c, 0, 86, 60
2, 75635, Note_on_c, 0, 59, 60
2, 75636, Note_on_c, 0, 62, 72
2, 75637, Note_on_c, 0, 83, 84
2, 75638, Note_on_c, 0, 52, 55
2, 75768, Note_off_c, 0, 59, 55
2, 75769, Note_off_c, 0, 62, 58
2, 75770, Note_off_c, 0, 52, 53
2, 75772, Note_on_c, 0, 86, 86
2, 75787, Note_off_c, 0, 83, 61
2, 75847, Note_off_c, 0, 86, 61
2, 75882, Note_on_c, 0, 80, 84
2, 76001, Note_on_c, 0, 83, 83
2, 76005, Note_off_c, 0, 80, 61
2, 76098, Note_off_c, 0, 83, 60
2, 76132, Note_on_c, 0, 77, 82
2, 76250, Note_on_c, 0, 80, 81
2, 76271, Note_off_c, 0, 77, 60
2, 76331, Note_off_c, 0, 80, 60
2, 76367, Note_on_c, 0, 74, 80
2, 76500, Note_on_c, 0, 77, 79
2, 76536, Note_off_c, 0, 74, 60
2, 76582, Note_off_c, 0, 77, 60
2, 76618, Note_on_c, 0, 71, 78
2, 76734, Note_on_c, 0, 74, 78
2, 76769, Note_off_c, 0, 71, 59
2, 76834, Note_off_c, 0, 74, 59
2, 76851, Note_on_c, 0, 68, 77
2, 76986, Note_on_c, 0, 71, 76
2, 77026, Note_off_c, 0, 68, 59
2, 77068, Note_off_c, 0, 71, 59
2, 77103, Note_on_c, 0, 65, 75
2, 77220, Note_on_c, 0, 68, 74
2, 77227, Note_off_c, 0, 65, 59
2, 77301, Note_off_c, 0, 68, 59
2, 77339, Note_on_c, 0, 62, 73
2, 77454, Note_on_c, 0, 65, 72
2, 77476, Note_off_c, 0, 62, 58
2, 77537, Note_off_c, 0, 65, 58
2, 77573, Note_on_c, 0, 59, 72
2, 77687, Note_on_c, 0, 62, 74
2, 77712, Note_off_c, 0, 59, 58
2, 77783, Note_off_c, 0, 62, 59
2, 77806, Control_c, 0, 64, 98
2, 77809, Note_on_c, 0, 44, 78
2, 77810, Note_on_c, 0, 56, 82
2, 77923, Note_off_c, 0, 44, 59
2, 77926, Note_on_c, 0, 59, 84
2, 77927, Note_on_c, 0, 47, 79
2, 77953, Note_off_c, 0, 56, 60
2, 78040, Note_off_c, 0, 47, 60
2, 78041, Note_off_c, 0, 59, 61
2, 78042, Note_on_c, 0, 50, 86
2, 78044, Note_on_c, 0, 38, 80
2, 78157, Note_off_c, 0, 38, 60
2, 78159, Note_off_c, 0, 50, 61
2, 78160, Note_on_c, 0, 59, 88
2, 78161, Note_on_c, 0, 47, 81
2, 78273, Note_off_c, 0, 47, 60
2, 78276, Note_on_c, 0, 44, 82
2, 78278, Note_on_c, 0, 56, 90
2, 78288, Note_off_c, 0, 59, 62
2, 78390, Note_off_c, 0, 44, 60
2, 78392, Note_off_c, 0, 56, 62
2, 78395, Note_on_c, 0, 38, 84
2, 78396, Note_on_c, 0, 50, 92
2, 78472, Note_off_c, 0, 50, 62
2, 78474, Note_off_c, 0, 38, 61
2, 78507, Control_c, 0, 64, 20
2, 78509, Note_on_c, 0, 36, 82
2, 78511, Note_on_c, 0, 48, 94
2, 78624, Note_off_c, 0, 36, 60
2, 78626, Note_off_c, 0, 48, 63
2, 78740, Note_on_c, 0, 48, 81
2, 78742, Note_on_c, 0, 52, 86
2, 78745, Note_on_c, 0, 40, 76
2, 78746, Note_on_c, 0, 57, 98
2, 78747, Note_on_c, 0, 36, 71
2, 78748, Note_on_c, 0, 45, 74
2, 78838, Note_off_c, 0, 52, 61
2, 78840, Note_off_c, 0, 40, 59
2, 78848, Note_off_c, 0, 48, 60
2, 78850, Note_off_c, 0, 36, 58
2, 78853, Note_off_c, 0, 57, 64
2, 78858, Note_off_c, 0, 45, 59
2, 78990, Note_on_c, 0, 58, 102
2, 78993, Note_on_c, 0, 53, 86
2, 78995, Note_on_c, 0, 50, 69
2, 78996, Note_on_c, 0, 38, 90
2, 78997, Note_on_c, 0, 41, 83
2, 78998, Note_on_c, 0, 46, 76
2, 78999, Control_c, 0, 64, 96
2, 79732, Note_off_c, 0, 46, 59
2, 79836, Note_off_c, 0, 58, 65
2, 79977, Note_on_c, 0, 45, 78
2, 79977, Note_on_c, 0, 57, 90
2, 80163, Note_off_c, 0, 45, 59
2, 80169, Note_off_c, 0, 57, 62
2, 80179, Note_off_c, 0, 38, 62
2, 80223, Note_off_c, 0, 50, 57
2, 80228, Note_on_c, 0, 56, 90
2, 80229, Note_on_c, 0, 44, 78
2, 80282, Note_off_c, 0, 41, 60
2, 80295, Note_off_c, 0, 53, 61
2, 80438, Note_off_c, 0, 44, 59
2, 80456, Note_off_c, 0, 56, 62
2, 80499, Note_on_c, 0, 52, 66
2, 80500, Note_on_c, 0, 57, 84
2, 80501, Note_on_c, 0, 45, 56
2, 80503, Note_on_c, 0, 48, 61
2, 80505, Note_on_c, 0, 36, 72
2, 80506, Note_on_c, 0, 40, 66
2, 80519, Control_c, 0, 64, 20
2, 80630, Note_off_c, 0, 48, 55
2, 80634, Note_off_c, 0, 45, 54
2, 80638, Note_off_c, 0, 52, 56
2, 80639, Note_off_c, 0, 57, 61
2, 80641, Note_off_c, 0, 36, 58
2, 80652, Note_off_c, 0, 40, 56
2, 80744, Note_on_c, 0, 64, 66
2, 80746, Note_on_c, 0, 69, 78
2, 80747, Note_on_c, 0, 52, 66
2, 80749, Note_on_c, 0, 57, 56
2, 80750, Note_on_c, 0, 60, 61
2, 80751, Note_on_c, 0, 48, 66
2, 80828, Note_off_c, 0, 64, 56
2, 80833, Note_off_c, 0, 60, 55
2, 80837, Note_off_c, 0, 52, 56
2, 80838, Note_off_c, 0, 48, 56
2, 80841, Note_off_c, 0, 69, 59
2, 80844, Note_off_c, 0, 57, 54
2, 80994, Note_on_c, 0, 65, 82
2, 80996, Note_on_c, 0, 70, 102
2, 80999, Control_c, 0, 64, 97
2, 81000, Note_on_c, 0, 53, 76
2, 81003, Note_on_c, 0, 58, 90
2, 81004, Note_on_c, 0, 62, 71
2, 81005, Note_on_c, 0, 50, 86
2, 81760, Note_off_c, 0, 70, 65
2, 81862, Note_off_c, 0, 58, 62
2, 81981, Note_on_c, 0, 57, 78
2, 81983, Note_on_c, 0, 69, 90
2, 82122, Note_off_c, 0, 50, 61
2, 82173, Note_off_c, 0, 69, 62
2, 82194, Note_off_c, 0, 53, 59
2, 82199, Note_off_c, 0, 57, 59
2, 82201, Note_off_c, 0, 65, 60
2, 82231, Note_on_c, 0, 68, 90
2, 82233, Note_on_c, 0, 56, 70
2, 82250, Note_off_c, 0, 62, 58
2, 82439, Note_off_c, 0, 56, 57
2, 82441, Note_off_c, 0, 68, 62
2, 82486, Note_on_c, 0, 64, 58
2, 82488, Note_on_c, 0, 69, 78
2, 82491, Note_on_c, 0, 52, 51
2, 82492, Note_on_c, 0, 57, 56
2, 82492, Note_on_c, 0, 60, 66
2, 82493, Note_on_c, 0, 48, 66
2, 82536, Control_c, 0, 64, 20
2, 82639, Note_off_c, 0, 64, 54
2, 82641, Note_off_c, 0, 52, 52
2, 82642, Note_off_c, 0, 60, 56
2, 82645, Note_off_c, 0, 69, 59
2, 82647, Note_off_c, 0, 57, 54
2, 82659, Note_off_c, 0, 48, 56
2, 82748, Note_on_c, 0, 69, 70
2, 82750, Note_on_c, 0, 81, 90
2, 82752, Note_on_c, 0, 60, 75
2, 82755, Note_on_c, 0, 64, 78
2, 82834, Note_off_c, 0, 81, 62
2, 82836, Note_off_c, 0, 69, 57
2, 82847, Note_off_c, 0, 64, 59
2, 82850, Note_off_c, 0, 60, 59
2, 82986, Control_c, 0, 64, 96
2, 82999, Note_on_c, 0, 70, 82
2, 83000, Note_on_c, 0, 82, 102
2, 83002, Note_on_c, 0, 62, 90
2, 83003, Note_on_c, 0, 65, 71
2, 83521, Note_off_c, 0, 62, 62
2, 83525, Note_off_c, 0, 65, 58
2, 83547, Note_off_c, 0, 70, 60
2, 83598, Note_off_c, 0, 82, 65
2, 83696, Control_c, 0, 64, 20
2, 83722, Note_on_c, 0, 71, 58
2, 83723, Note_on_c, 0, 66, 66
2, 83726, Note_on_c, 0, 63, 72
2, 83727, Note_on_c, 0, 83, 78
2, 83818, Note_off_c, 0, 66, 56
2, 83818, Note_off_c, 0, 83, 59
2, 83821, Note_off_c, 0, 71, 54
2, 83831, Note_off_c, 0, 63, 58
2, 83921, Control_c, 0, 64, 96
2, 83968, Note_on_c, 0, 84, 102
2, 83971, Note_on_c, 0, 64, 66
2, 83973, Note_on_c, 0, 69, 79
2, 83974, Note_on_c, 0, 72, 84
2, 84504, Note_off_c, 0, 69, 60
2, 84506, Note_off_c, 0, 84, 65
2, 84507, Note_off_c, 0, 72, 61
2, 84536, Note_off_c, 0, 64, 56
2, 84700, Control_c, 0, 64, 20
2, 84702, Note_on_c, 0, 85, 84
2, 84704, Note_on_c, 0, 69, 60
2, 84706, Note_on_c, 0, 73, 70
2, 84709, Note_on_c, 0, 64, 66
2, 84875, Control_c, 0, 64, 96
2, 84894, Note_off_c, 0, 64, 56
2, 84901, Note_off_c, 0, 73, 57
2, 84908, Note_off_c, 0, 85, 61
2, 84957, Note_on_c, 0, 74, 60
2, 84959, Note_on_c, 0, 86, 75
2, 84961, Note_on_c, 0, 65, 55
2, 85147, Note_off_c, 0, 86, 59
2, 85152, Note_off_c, 0, 74, 55
2, 85170, Note_off_c, 0, 65, 53
2, 85207, Note_on_c, 0, 76, 60
2, 85209, Note_on_c, 0, 88, 66
2, 85211, Note_on_c, 0, 61, 54
2, 85406, Note_off_c, 0, 61, 53
2, 85426, Note_off_c, 0, 76, 55
2, 85429, Note_off_c, 0, 88, 56
2, 85444, Note_off_c, 0, 69, 55
2, 85473, Note_on_c, 0, 89, 57
2, 85477, Note_on_c, 0, 77, 40
2, 85478, Note_on_c, 0, 62, 45
2, 85489, Control_c, 0, 64, 20
2, 85607, Note_off_c, 0, 77, 50
2, 85613, Note_off_c, 0, 89, 54
2, 85617, Note_off_c, 0, 62, 51
2, 85723, Note_on_c, 0, 65, 36
2, 85725, Note_on_c, 0, 77, 48
2, 85726, Control_c, 0, 64, 95
2, 85727, Note_on_c, 0, 58, 40
2, 85728, Note_on_c, 0, 62, 30
2, 85729, Note_on_c, 0, 50, 40
2, 85926, Note_off_c, 0, 62, 47
2, 85930, Note_off_c, 0, 58, 50
2, 85935, Note_off_c, 0, 50, 50
2, 85976, Note_on_c, 0, 52, 22
2, 85977, Note_on_c, 0, 57, 30
2, 85979, Note_on_c, 0, 60, 36
2, 86074, Control_c, 0, 64, 20
2, 86106, Note_off_c, 0, 65, 49
2, 86157, Note_off_c, 0, 77, 52
2, 86159, Note_off_c, 0, 57, 47
2, 86180, Note_off_c, 0, 60, 49
2, 86220, Control_c, 0, 64, 95
2, 86226, Note_on_c, 0, 64, 40
2, 86227, Note_on_c, 0, 76, 51
2, 86230, Note_on_c, 0, 56, 37
2, 86231, Note_on_c, 0, 59, 30
2, 86405, Note_off_c, 0, 64, 50
2, 86411, Note_off_c, 0, 52, 45
2, 86424, Note_off_c, 0, 56, 49
2, 86432, Note_off_c, 0, 76, 52
2, 86440, Note_off_c, 0, 59, 47
2, 86477, Note_on_c, 0, 69, 54
2, 86479, Note_on_c, 0, 45, 36
2, 86480, Note_on_c, 0, 57, 40
2, 86587, Note_off_c, 0, 45, 49
2, 86591, Note_off_c, 0, 57, 50
2, 86602, Note_off_c, 0, 69, 53
2, 86620, Control_c, 0, 64, 20
2, 86741, Note_on_c, 0, 33, 63
2, 86858, Note_off_c, 0, 33, 55
2, 86991, Note_on_c, 0, 34, 81
2, 87224, Note_on_c, 0, 61, 43
2, 87227, Note_on_c, 0, 64, 68
2, 87330, Note_off_c, 0, 64, 57
2, 87348, Note_off_c, 0, 61, 50
2, 87477, Note_on_c, 0, 62, 58
2, 87478, Note_on_c, 0, 65, 71
2, 87567, Note_off_c, 0, 65, 58
2, 87573, Note_off_c, 0, 62, 54
2, 87725, Note_on_c, 0, 74, 87
2, 87726, Note_on_c, 0, 65, 75
2, 87978, Note_on_c, 0, 33, 54
2, 88043, Note_off_c, 0, 34, 60
2, 88109, Note_off_c, 0, 65, 59
2, 88147, Note_off_c, 0, 74, 61
2, 88226, Note_on_c, 0, 74, 51
2, 88228, Note_on_c, 0, 65, 39
2, 88229, Note_on_c, 0, 32, 57
2, 88256, Note_off_c, 0, 33, 53
2, 88329, Note_off_c, 0, 74, 52
2, 88346, Note_off_c, 0, 65, 49
2, 88495, Note_on_c, 0, 73, 49
2, 88497, Note_on_c, 0, 33, 60
2, 88499, Note_on_c, 0, 64, 43
2, 88544, Note_off_c, 0, 32, 54
2, 88586, Note_off_c, 0, 73, 52
2, 88592, Note_off_c, 0, 64, 50
2, 88677, Note_off_c, 0, 33, 55
2, 88745, Note_on_c, 0, 33, 63
2, 88879, Note_off_c, 0, 33, 55
2, 88997, Note_on_c, 0, 34, 87
2, 89245, Note_on_c, 0, 64, 62
2, 89247, Note_on_c, 0, 61, 53
2, 89362, Note_off_c, 0, 64, 55
2, 89364, Note_off_c, 0, 61, 53
2, 89479, Note_on_c, 0, 65, 66
2, 89482, Note_on_c, 0, 62, 56
2, 89613, Note_off_c, 0, 65, 56
2, 89615, Note_off_c, 0, 62, 54
2, 89746, Note_on_c, 0, 77, 82
2, 89748, Note_on_c, 0, 74, 70
2, 89997, Note_on_c, 0, 33, 54
2, 90051, Note_off_c, 0, 34, 61
2, 90171, Note_off_c, 0, 74, 57
2, 90185, Note_off_c, 0, 77, 60
2, 90249, Note_on_c, 0, 32, 57
2, 90251, Note_on_c, 0, 74, 39
2, 90253, Note_on_c, 0, 77, 52
2, 90283, Note_off_c, 0, 33, 53
2, 90358, Note_off_c, 0, 77, 53
2, 90362, Note_off_c, 0, 74, 49
2, 90518, Note_on_c, 0, 76, 51
2, 90519, Note_on_c, 0, 33, 61
2, 90521, Note_on_c, 0, 73, 43
2, 90566, Note_off_c, 0, 32, 54
2, 90618, Note_off_c, 0, 76, 52
2, 90621, Note_off_c, 0, 73, 50
2, 90716, Note_off_c, 0, 33, 55
2, 90765, Note_on_c, 0, 33, 64
2, 90899, Note_off_c, 0, 33, 56
2, 91016, Note_on_c, 0, 34, 80
2, 91266, Note_on_c, 0, 64, 65
2, 91269, Note_on_c, 0, 61, 53
2, 91359, Note_off_c, 0, 64, 56
2, 91370, Note_off_c, 0, 61, 53
2, 91519, Note_on_c, 0, 62, 60
2, 91521, Note_on_c, 0, 65, 70
2, 91620, Note_off_c, 0, 65, 57
2, 91631, Note_off_c, 0, 62, 55
2, 91766, Note_on_c, 0, 77, 87
2, 91768, Note_on_c, 0, 74, 75
2, 92037, Note_on_c, 0, 33, 63
2, 92087, Note_off_c, 0, 34, 60
2, 92194, Note_off_c, 0, 77, 61
2, 92230, Note_off_c, 0, 74, 59
2, 92289, Note_on_c, 0, 89, 99
2, 92291, Note_on_c, 0, 32, 87
2, 92294, Note_on_c, 0, 86, 83
2, 92339, Note_off_c, 0, 33, 55
2, 92469, Note_off_c, 0, 32, 61
2, 92537, Note_on_c, 0, 31, 49
2, 92654, Note_off_c, 0, 31, 52
2, 92656, Note_on_c, 0, 30, 45
2, 92706, Note_off_c, 0, 89, 64
2, 92752, Note_off_c, 0, 86, 60
2, 92787, Note_off_c, 0, 30, 51
2, 92792, Note_on_c, 0, 31, 46
2, 92902, Note_off_c, 0, 31, 51
2, 92904, Note_on_c, 0, 33, 47
2, 93020, Note_off_c, 0, 33, 51
2, 93023, Note_on_c, 0, 35, 48
2, 93156, Note_off_c, 0, 35, 52
2, 93158, Note_on_c, 0, 31, 49
2, 93267, Note_on_c, 0, 77, 63
2, 93268, Note_on_c, 0, 74, 55
2, 93270, Note_off_c, 0, 31, 52
2, 93277, Note_on_c, 0, 33, 50
2, 93387, Note_off_c, 0, 33, 52
2, 93389, Note_on_c, 0, 35, 51
2, 93503, Note_on_c, 0, 76, 63
2, 93506, Note_off_c, 0, 35, 52
2, 93511, Note_on_c, 0, 36, 52
2, 93513, Note_on_c, 0, 72, 45
2, 93529, Note_off_c, 0, 74, 53
2, 93551, Note_off_c, 0, 77, 55
2, 93581, Note_off_c, 0, 76, 55
2, 93600, Note_off_c, 0, 72, 51
2, 93640, Note_off_c, 0, 36, 53
2, 93642, Note_on_c, 0, 35, 53
2, 93756, Note_off_c, 0, 35, 53
2, 93758, Note_on_c, 0, 36, 54
2, 93873, Note_off_c, 0, 36, 53
2, 93876, Note_on_c, 0, 38, 55
2, 94009, Note_off_c, 0, 38, 53
2, 94011, Note_on_c, 0, 40, 56
2, 94125, Note_off_c, 0, 40, 54
2, 94128, Note_on_c, 0, 39, 57
2, 94237, Note_on_c, 0, 88, 75
2, 94242, Note_off_c, 0, 39, 54
2, 94244, Note_on_c, 0, 40, 57
2, 94248, Note_on_c, 0, 84, 65
2, 94377, Note_off_c, 0, 40, 54
2, 94378, Note_on_c, 0, 39, 39
2, 94495, Note_off_c, 0, 39, 49
2, 94496, Note_on_c, 0, 40, 45
2, 94498, Note_on_c, 0, 83, 55
2, 94501, Note_off_c, 0, 88, 59
2, 94502, Note_on_c, 0, 86, 61
2, 94522, Note_off_c, 0, 84, 56
2, 94566, Note_off_c, 0, 86, 55
2, 94574, Note_off_c, 0, 83, 53
2, 94607, Note_off_c, 0, 40, 51
2, 94611, Note_on_c, 0, 39, 55
2, 94742, Note_off_c, 0, 39, 53
2, 94744, Note_on_c, 0, 40, 54
2, 94859, Note_off_c, 0, 40, 53
2, 94861, Note_on_c, 0, 42, 57
2, 94976, Note_off_c, 0, 42, 54
2, 94978, Note_on_c, 0, 44, 53
2, 95092, Note_off_c, 0, 44, 53
2, 95095, Note_on_c, 0, 40, 52
2, 95225, Note_on_c, 0, 71, 55
2, 95228, Note_off_c, 0, 40, 53
2, 95229, Note_on_c, 0, 74, 71
2, 95230, Note_on_c, 0, 42, 45
2, 95341, Note_off_c, 0, 42, 51
2, 95346, Note_on_c, 0, 44, 51
2, 95459, Note_on_c, 0, 69, 51
2, 95461, Note_on_c, 0, 72, 59
2, 95463, Note_off_c, 0, 44, 52
2, 95466, Note_on_c, 0, 45, 39
2, 95486, Note_off_c, 0, 74, 58
2, 95489, Note_off_c, 0, 71, 53
2, 95540, Note_off_c, 0, 69, 52
2, 95548, Note_off_c, 0, 72, 54
2, 95593, Note_off_c, 0, 45, 49
2, 95594, Note_on_c, 0, 44, 49
2, 95709, Note_off_c, 0, 44, 52
2, 95713, Note_on_c, 0, 45, 48
2, 95827, Note_off_c, 0, 45, 52
2, 95829, Note_on_c, 0, 47, 49
2, 95961, Note_off_c, 0, 47, 52
2, 95963, Note_on_c, 0, 48, 47
2, 96077, Note_off_c, 0, 48, 51
2, 96079, Note_on_c, 0, 45, 46
2, 96194, Note_off_c, 0, 45, 51
2, 96196, Note_on_c, 0, 84, 64
2, 96199, Note_on_c, 0, 81, 49
2, 96201, Note_on_c, 0, 47, 45
2, 96311, Note_off_c, 0, 47, 51
2, 96313, Note_on_c, 0, 48, 45
2, 96397, Note_off_c, 0, 81, 52
2, 96447, Note_off_c, 0, 48, 51
2, 96449, Note_on_c, 0, 83, 64
2, 96451, Note_on_c, 0, 50, 45
2, 96481, Note_off_c, 0, 84, 56
2, 96544, Note_off_c, 0, 83, 56
2, 96563, Note_off_c, 0, 50, 51
2, 96566, Note_on_c, 0, 49, 45
2, 96680, Note_off_c, 0, 49, 51
2, 96682, Note_on_c, 0, 50, 46
2, 96815, Note_off_c, 0, 50, 51
2, 96818, Note_on_c, 0, 52, 47
2, 96930, Note_off_c, 0, 52, 51
2, 96932, Note_on_c, 0, 53, 48
2, 97049, Note_off_c, 0, 53, 52
2, 97051, Note_on_c, 0, 50, 48
2, 97182, Note_off_c, 0, 50, 52
2, 97185, Note_on_c, 0, 71, 72
2, 97187, Note_on_c, 0, 69, 59
2, 97188, Note_on_c, 0, 52, 49
2, 97298, Note_off_c, 0, 52, 52
2, 97301, Note_on_c, 0, 53, 50
2, 97402, Note_off_c, 0, 71, 58
2, 97416, Note_off_c, 0, 53, 52
2, 97419, Note_on_c, 0, 68, 75
2, 97420, Note_on_c, 0, 52, 51
2, 97457, Note_off_c, 0, 69, 54
2, 97505, Note_off_c, 0, 68, 59
2, 97548, Note_off_c, 0, 52, 52
2, 97551, Note_on_c, 0, 63, 45
2, 97666, Note_off_c, 0, 63, 51
2, 97668, Note_on_c, 0, 64, 46
2, 97782, Note_off_c, 0, 64, 51
2, 97785, Note_on_c, 0, 63, 47
2, 97899, Note_off_c, 0, 63, 51
2, 97902, Note_on_c, 0, 64, 48
2, 98033, Note_off_c, 0, 64, 52
2, 98034, Note_on_c, 0, 63, 48
2, 98148, Note_off_c, 0, 63, 52
2, 98151, Note_on_c, 0, 80, 72
2, 98153, Note_on_c, 0, 71, 59
2, 98155, Note_on_c, 0, 64, 46
2, 98258, Note_on_c, 0, 52, 47
2, 98266, Note_off_c, 0, 64, 51
2, 98359, Note_off_c, 0, 52, 51
2, 98365, Note_off_c, 0, 71, 54
2, 98399, Note_on_c, 0, 81, 48
2, 98400, Note_on_c, 0, 52, 48
2, 98403, Note_on_c, 0, 64, 50
2, 98405, Note_on_c, 0, 60, 40
2, 98451, Note_off_c, 0, 80, 58
2, 98452, Control_c, 0, 64, 90
2, 98517, Note_off_c, 0, 81, 52
2, 98519, Note_on_c, 0, 76, 48
2, 98634, Note_off_c, 0, 76, 52
2, 98636, Note_on_c, 0, 72, 48
2, 98766, Note_off_c, 0, 72, 52
2, 98768, Note_on_c, 0, 84, 49
2, 98883, Note_off_c, 0, 84, 52
2, 98887, Note_on_c, 0, 59, 40
2, 98888, Note_off_c, 0, 64, 52
2, 98890, Note_on_c, 0, 83, 50
2, 98892, Note_off_c, 0, 60, 50
2, 98894, Note_on_c, 0, 62, 60
2, 98909, Control_c, 0, 64, 20
2, 99018, Note_off_c, 0, 83, 52
2, 99022, Note_on_c, 0, 80, 51
2, 99073, Control_c, 0, 64, 90
2, 99135, Note_off_c, 0, 80, 52
2, 99139, Note_on_c, 0, 76, 52
2, 99270, Note_off_c, 0, 76, 53
2, 99272, Note_on_c, 0, 86, 55
2, 99384, Note_off_c, 0, 59, 50
2, 99386, Note_off_c, 0, 86, 53
2, 99389, Note_off_c, 0, 62, 55
2, 99391, Note_on_c, 0, 84, 53
2, 99394, Note_on_c, 0, 60, 54
2, 99396, Note_on_c, 0, 57, 45
2, 99406, Control_c, 0, 64, 20
2, 99522, Note_off_c, 0, 84, 53
2, 99525, Note_on_c, 0, 81, 54
2, 99571, Control_c, 0, 64, 90
2, 99653, Note_off_c, 0, 81, 53
2, 99655, Note_on_c, 0, 76, 55
2, 99770, Note_off_c, 0, 76, 53
2, 99772, Note_on_c, 0, 88, 56
2, 99903, Note_off_c, 0, 88, 54
2, 99905, Note_off_c, 0, 60, 53
2, 99907, Note_on_c, 0, 87, 56
2, 99909, Note_on_c, 0, 59, 48
2, 99912, Note_off_c, 0, 57, 51
2, 99914, Note_on_c, 0, 56, 37
2, 99921, Control_c, 0, 64, 20
2, 100038, Note_off_c, 0, 87, 54
2, 100039, Note_on_c, 0, 88, 57
2, 100078, Control_c, 0, 64, 90
2, 100171, Note_off_c, 0, 88, 54
2, 100173, Note_on_c, 0, 87, 58
2, 100288, Note_off_c, 0, 87, 54
2, 100290, Note_off_c, 0, 59, 52
2, 100293, Note_on_c, 0, 88, 59
2, 100295, Note_off_c, 0, 56, 49
2, 100403, Note_off_c, 0, 88, 54
2, 100404, Note_off_c, 0, 52, 52
2, 100447, Control_c, 0, 64, 20
2, 100460, Note_on_c, 0, 88, 60
2, 100463, Note_on_c, 0, 57, 48
2, 100470, Note_on_c, 0, 76, 34
2, 100476, Note_on_c, 0, 84, 48
2, 100594, Note_off_c, 0, 57, 52
2, 100598, Note_on_c, 0, 52, 46
2, 100615, Control_c, 0, 64, 90
2, 100713, Note_off_c, 0, 52, 51
2, 100715, Note_on_c, 0, 48, 44
2, 100829, Note_off_c, 0, 48, 51
2, 100832, Note_on_c, 0, 57, 42
2, 100865, Note_off_c, 0, 76, 48
2, 100902, Note_off_c, 0, 84, 52
2, 100962, Note_off_c, 0, 88, 55
2, 100965, Note_off_c, 0, 57, 50
2, 100966, Note_on_c, 0, 86, 48
2, 100967, Note_on_c, 0, 59, 40
2, 100972, Note_on_c, 0, 74, 25
2, 100974, Note_on_c, 0, 83, 30
2, 100975, Control_c, 0, 64, 20
2, 101079, Note_off_c, 0, 59, 50
2, 101082, Note_on_c, 0, 56, 38
2, 101131, Control_c, 0, 64, 90
2, 101196, Note_off_c, 0, 56, 49
2, 101199, Note_on_c, 0, 52, 36
2, 101330, Note_off_c, 0, 52, 49
2, 101332, Note_on_c, 0, 59, 40
2, 101336, Note_off_c, 0, 83, 47
2, 101392, Note_off_c, 0, 74, 46
2, 101446, Note_off_c, 0, 86, 52
2, 101448, Note_off_c, 0, 59, 50
2, 101451, Note_on_c, 0, 84, 60
2, 101453, Note_on_c, 0, 60, 48
2, 101463, Control_c, 0, 64, 20
2, 101465, Note_on_c, 0, 81, 45
2, 101467, Note_on_c, 0, 72, 42
2, 101579, Note_off_c, 0, 60, 52
2, 101582, Note_on_c, 0, 57, 46
2, 101627, Control_c, 0, 64, 90
2, 101715, Note_off_c, 0, 57, 51
2, 101716, Note_on_c, 0, 52, 45
2, 101829, Note_off_c, 0, 52, 51
2, 101832, Note_on_c, 0, 64, 44
2, 101846, Note_off_c, 0, 72, 50
2, 101850, Note_off_c, 0, 81, 51
2, 101963, Note_off_c, 0, 84, 55
2, 101966, Note_off_c, 0, 64, 51
2, 101969, Note_on_c, 0, 80, 36
2, 101970, Note_on_c, 0, 83, 48
2, 101971, Note_on_c, 0, 63, 36
2, 101972, Note_on_c, 0, 71, 30
2, 101978, Control_c, 0, 64, 20
2, 102096, Note_off_c, 0, 63, 49
2, 102098, Note_on_c, 0, 64, 39
2, 102135, Control_c, 0, 64, 90
2, 102213, Note_off_c, 0, 64, 49
2, 102215, Note_on_c, 0, 63, 36
2, 102348, Note_off_c, 0, 71, 47
2, 102350, Note_off_c, 0, 80, 49
2, 102353, Note_off_c, 0, 63, 49
2, 102353, Note_off_c, 0, 83, 52
2, 102355, Note_on_c, 0, 64, 37
2, 102483, Note_off_c, 0, 64, 49
2, 102485, Note_on_c, 0, 81, 49
2, 102487, Note_on_c, 0, 52, 36
2, 102544, Control_c, 0, 64, 20
2, 102600, Note_off_c, 0, 81, 52
2, 102602, Note_on_c, 0, 76, 50
2, 102700, Control_c, 0, 64, 90
2, 102733, Note_off_c, 0, 76, 52
2, 102735, Note_on_c, 0, 72, 51
2, 102738, Note_on_c, 0, 60, 36
2, 102740, Note_on_c, 0, 64, 42
2, 102845, Note_off_c, 0, 52, 49
2, 102849, Note_off_c, 0, 72, 52
2, 102852, Note_on_c, 0, 84, 52
2, 102950, Note_off_c, 0, 84, 53
2, 102966, Note_on_c, 0, 83, 53
2, 102968, Note_on_c, 0, 52, 49
2, 103041, Control_c, 0, 64, 20
2, 103100, Note_off_c, 0, 83, 53
2, 103102, Note_on_c, 0, 80, 54
2, 103107, Note_off_c, 0, 60, 49
2, 103205, Control_c, 0, 64, 90
2, 103217, Note_off_c, 0, 80, 53
2, 103221, Note_on_c, 0, 76, 55
2, 103224, Note_off_c, 0, 64, 50
2, 103224, Note_on_c, 0, 62, 56
2, 103225, Note_on_c, 0, 59, 50
2, 103350, Note_off_c, 0, 76, 53
2, 103352, Note_on_c, 0, 86, 56
2, 103373, Note_off_c, 0, 52, 52
2, 103449, Note_off_c, 0, 86, 54
2, 103466, Note_on_c, 0, 84, 57
2, 103468, Note_on_c, 0, 52, 60
2, 103548, Control_c, 0, 64, 20
2, 103600, Note_off_c, 0, 84, 54
2, 103603, Note_on_c, 0, 81, 58
2, 103620, Note_off_c, 0, 59, 52
2, 103705, Control_c, 0, 64, 90
2, 103735, Note_off_c, 0, 81, 54
2, 103736, Note_off_c, 0, 62, 54
2, 103739, Note_on_c, 0, 76, 60
2, 103742, Note_on_c, 0, 60, 57
2, 103751, Note_on_c, 0, 57, 42
2, 103851, Note_off_c, 0, 76, 55
2, 103853, Note_on_c, 0, 88, 60
2, 103876, Note_off_c, 0, 52, 55
2, 103965, Note_off_c, 0, 88, 55
2, 103985, Note_on_c, 0, 87, 57
2, 103987, Note_on_c, 0, 52, 51
2, 104064, Control_c, 0, 64, 20
2, 104121, Note_off_c, 0, 87, 54
2, 104122, Note_on_c, 0, 88, 57
2, 104175, Note_off_c, 0, 57, 50
2, 104230, Control_c, 0, 64, 90
2, 104253, Note_off_c, 0, 88, 54
2, 104256, Note_on_c, 0, 59, 48
2, 104258, Note_on_c, 0, 87, 54
2, 104260, Note_off_c, 0, 60, 54
2, 104267, Note_on_c, 0, 56, 42
2, 104370, Note_off_c, 0, 87, 53
2, 104372, Note_off_c, 0, 52, 52
2, 104373, Note_on_c, 0, 88, 51
2, 104398, Note_off_c, 0, 56, 50
2, 104436, Note_off_c, 0, 59, 52
2, 104503, Note_off_c, 0, 88, 52
2, 104506, Note_on_c, 0, 57, 36
2, 104508, Note_on_c, 0, 76, 48
2, 104620, Note_off_c, 0, 57, 49
2, 104622, Note_on_c, 0, 52, 38
2, 104678, Control_c, 0, 64, 20
2, 104756, Note_off_c, 0, 52, 49
2, 104757, Note_on_c, 0, 88, 60
2, 104758, Note_on_c, 0, 48, 38
2, 104767, Note_on_c, 0, 84, 45
2, 104844, Control_c, 0, 64, 90
2, 104870, Note_off_c, 0, 48, 49
2, 104872, Note_on_c, 0, 57, 40
2, 104987, Note_off_c, 0, 57, 50
2, 104989, Note_on_c, 0, 59, 43
2, 105120, Note_off_c, 0, 59, 50
2, 105122, Note_on_c, 0, 56, 45
2, 105188, Note_off_c, 0, 84, 51
2, 105232, Control_c, 0, 64, 20
2, 105237, Note_off_c, 0, 88, 55
2, 105239, Note_off_c, 0, 56, 51
2, 105241, Note_off_c, 0, 76, 52
2, 105243, Note_on_c, 0, 86, 48
2, 105245, Note_on_c, 0, 52, 40
2, 105253, Note_on_c, 0, 83, 30
2, 105255, Note_on_c, 0, 74, 24
2, 105371, Note_off_c, 0, 52, 50
2, 105374, Note_on_c, 0, 59, 48
2, 105388, Control_c, 0, 64, 90
2, 105488, Note_off_c, 0, 59, 52
2, 105491, Note_on_c, 0, 60, 36
2, 105622, Note_off_c, 0, 60, 49
2, 105624, Note_on_c, 0, 57, 40
2, 105655, Note_off_c, 0, 74, 46
2, 105694, Note_off_c, 0, 83, 47
2, 105757, Note_off_c, 0, 86, 52
2, 105759, Note_off_c, 0, 57, 50
2, 105762, Note_on_c, 0, 84, 60
2, 105763, Note_on_c, 0, 52, 37
2, 105772, Note_on_c, 0, 72, 50
2, 105775, Note_on_c, 0, 81, 42
2, 105799, Control_c, 0, 64, 20
2, 105874, Note_off_c, 0, 52, 49
2, 105876, Note_on_c, 0, 64, 39
2, 105965, Control_c, 0, 64, 90
2, 106007, Note_off_c, 0, 64, 49
2, 106009, Note_on_c, 0, 63, 41
2, 106140, Note_off_c, 0, 63, 50
2, 106142, Note_on_c, 0, 64, 42
2, 106156, Note_off_c, 0, 81, 50
2, 106201, Note_off_c, 0, 72, 52
2, 106273, Note_off_c, 0, 84, 55
2, 106276, Note_off_c, 0, 64, 50
2, 106278, Note_on_c, 0, 83, 48
2, 106280, Note_on_c, 0, 63, 44
2, 106288, Note_on_c, 0, 80, 30
2, 106294, Note_on_c, 0, 71, 36
2, 106390, Note_off_c, 0, 63, 51
2, 106392, Note_on_c, 0, 64, 46
2, 106472, Note_off_c, 0, 80, 47
2, 106505, Note_off_c, 0, 71, 49
2, 106523, Note_off_c, 0, 83, 52
2, 106526, Note_off_c, 0, 64, 51
2, 106530, Note_on_c, 0, 52, 48
2, 106532, Note_on_c, 0, 81, 48
2, 106538, Control_c, 0, 64, 20
2, 106659, Note_on_c, 0, 76, 50
2, 106682, Note_off_c, 0, 81, 52
2, 106695, Control_c, 0, 64, 90
2, 106777, Note_on_c, 0, 64, 50
2, 106777, Note_on_c, 0, 72, 52
2, 106779, Note_on_c, 0, 60, 40
2, 106788, Note_off_c, 0, 76, 52
2, 106887, Note_off_c, 0, 52, 52
2, 106893, Note_on_c, 0, 84, 55
2, 106900, Note_off_c, 0, 72, 53
2, 107002, Note_off_c, 0, 84, 53
2, 107024, Note_on_c, 0, 83, 57
2, 107027, Note_on_c, 0, 52, 54
2, 107037, Control_c, 0, 64, 20
2, 107144, Note_on_c, 0, 80, 60
2, 107154, Note_off_c, 0, 83, 54
2, 107202, Control_c, 0, 64, 90
2, 107261, Note_off_c, 0, 60, 50
2, 107264, Note_off_c, 0, 64, 52
2, 107266, Note_on_c, 0, 59, 50
2, 107267, Note_on_c, 0, 62, 58
2, 107268, Note_on_c, 0, 76, 62
2, 107270, Note_off_c, 0, 80, 55
2, 107394, Note_on_c, 0, 86, 64
2, 107400, Note_off_c, 0, 52, 53
2, 107408, Note_off_c, 0, 76, 55
2, 107501, Note_off_c, 0, 86, 56
2, 107511, Note_on_c, 0, 52, 60
2, 107513, Note_on_c, 0, 84, 67
2, 107515, Control_c, 0, 64, 20
2, 107644, Note_on_c, 0, 81, 69
2, 107660, Control_c, 0, 64, 90
2, 107663, Note_off_c, 0, 84, 57
2, 107777, Note_off_c, 0, 62, 54
2, 107779, Note_off_c, 0, 59, 52
2, 107782, Note_on_c, 0, 60, 57
2, 107784, Note_on_c, 0, 57, 50
2, 107785, Note_on_c, 0, 76, 72
2, 107800, Note_off_c, 0, 81, 57
2, 107888, Note_off_c, 0, 52, 55
2, 107894, Note_on_c, 0, 88, 68
2, 107901, Note_off_c, 0, 76, 58
2, 108022, Note_off_c, 0, 88, 57
2, 108028, Note_on_c, 0, 52, 51
2, 108029, Note_on_c, 0, 87, 72
2, 108049, Control_c, 0, 64, 20
2, 108161, Note_on_c, 0, 88, 64
2, 108182, Note_off_c, 0, 87, 58
2, 108214, Control_c, 0, 64, 90
2, 108299, Note_off_c, 0, 57, 52
2, 108301, Note_off_c, 0, 60, 54
2, 108301, Note_on_c, 0, 56, 35
2, 108302, Note_on_c, 0, 87, 56
2, 108303, Note_off_c, 0, 88, 56
2, 108304, Note_on_c, 0, 59, 48
2, 108429, Note_on_c, 0, 88, 48
2, 108446, Note_off_c, 0, 87, 54
2, 108478, Note_off_c, 0, 56, 48
2, 108479, Note_off_c, 0, 59, 52
2, 108547, Note_off_c, 0, 52, 52
2, 108548, Note_on_c, 0, 84, 46
2, 108550, Note_on_c, 0, 45, 45
2, 108552, Note_off_c, 0, 88, 52
2, 108565, Control_c, 0, 64, 20
2, 108681, Note_on_c, 0, 81, 52
2, 108697, Note_off_c, 0, 84, 51
2, 108713, Control_c, 0, 64, 90
2, 108798, Note_off_c, 0, 81, 53
2, 108800, Note_on_c, 0, 57, 52
2, 108802, Note_on_c, 0, 76, 56
2, 108914, Note_on_c, 0, 88, 60
2, 108931, Note_off_c, 0, 76, 54
2, 109047, Note_off_c, 0, 57, 53
2, 109050, Note_off_c, 0, 45, 51
2, 109052, Note_off_c, 0, 88, 55
2, 109053, Note_on_c, 0, 52, 57
2, 109054, Note_on_c, 0, 87, 64
2, 109083, Control_c, 0, 64, 20
2, 109164, Note_on_c, 0, 88, 68
2, 109174, Note_off_c, 0, 87, 56
2, 109248, Control_c, 0, 64, 90
2, 109297, Note_on_c, 0, 87, 72
2, 109300, Note_off_c, 0, 88, 57
2, 109302, Note_on_c, 0, 56, 50
2, 109304, Note_on_c, 0, 59, 60
2, 109430, Note_on_c, 0, 88, 72
2, 109438, Note_off_c, 0, 87, 58
2, 109480, Note_off_c, 0, 59, 55
2, 109482, Note_off_c, 0, 56, 52
2, 109550, Note_off_c, 0, 52, 54
2, 109552, Note_on_c, 0, 57, 60
2, 109553, Note_on_c, 0, 84, 72
2, 109559, Control_c, 0, 64, 20
2, 109566, Note_off_c, 0, 88, 58
2, 109681, Note_on_c, 0, 81, 68
2, 109690, Note_off_c, 0, 84, 58
2, 109725, Control_c, 0, 64, 90
2, 109818, Note_on_c, 0, 76, 64
2, 109819, Note_on_c, 0, 60, 56
2, 109834, Note_off_c, 0, 81, 57
2, 109947, Note_off_c, 0, 76, 56
2, 109951, Note_on_c, 0, 88, 60
2, 110084, Note_off_c, 0, 60, 54
2, 110086, Note_off_c, 0, 57, 55
2, 110089, Note_on_c, 0, 52, 51
2, 110090, Note_on_c, 0, 87, 56
2, 110096, Control_c, 0, 64, 20
2, 110098, Note_off_c, 0, 88, 55
2, 110216, Note_on_c, 0, 88, 52
2, 110242, Note_off_c, 0, 87, 54
2, 110253, Control_c, 0, 64, 90
2, 110367, Note_on_c, 0, 87, 48
2, 110369, Note_on_c, 0, 56, 34
2, 110372, Note_on_c, 0, 59, 46
2, 110381, Note_off_c, 0, 88, 53
2, 110500, Note_on_c, 0, 88, 44
2, 110523, Note_off_c, 0, 87, 52
2, 110641, Control_c, 0, 64, 20
2, 110652, Note_off_c, 0, 56, 48
2, 110655, Note_off_c, 0, 59, 51
2, 110656, Note_off_c, 0, 52, 52
2, 110657, Note_on_c, 0, 81, 39
2, 110659, Note_on_c, 0, 57, 41
2, 110661, Note_on_c, 0, 45, 35
2, 110664, Note_off_c, 0, 88, 51
2, 110809, Control_c, 0, 64, 90
2, 110852, Note_off_c, 0, 45, 48
2, 110853, Note_off_c, 0, 57, 50
2, 110917, Note_off_c, 0, 81, 49
2, 111220, Note_on_c, 0, 57, 45
2, 111221, Note_on_c, 0, 45, 30
2, 111222, Note_on_c, 0, 33, 36
2, 111251, Control_c, 0, 64, 20
2, 111402, Control_c, 0, 64, 90
2, 111610, Note_off_c, 0, 33, 49
2, 111621, Note_off_c, 0, 45, 47
2, 111664, Note_off_c, 0, 57, 51
2, 111810, Note_on_c, 0, 57, 42
2, 111812, Note_on_c, 0, 45, 32
2, 111814, Note_on_c, 0, 33, 37
2, 111878, Control_c, 0, 64, 20
2, 112057, Control_c, 0, 64, 96
2, 112256, Note_off_c, 0, 45, 48
2, 112282, Note_off_c, 0, 33, 49
2, 112330, Note_off_c, 0, 57, 50
2, 112483, Note_on_c, 0, 57, 48
2, 112487, Note_on_c, 0, 45, 38
2, 112489, Note_on_c, 0, 33, 43
2, 112593, Control_c, 0, 64, 20
2, 112809, Control_c, 0, 64, 96
2, 112999, Note_off_c, 0, 45, 49
2, 113018, Note_off_c, 0, 33, 50
2, 113073, Note_off_c, 0, 57, 52
2, 113263, Note_on_c, 0, 57, 61
2, 113266, Note_on_c, 0, 45, 51
2, 113268, Note_on_c, 0, 33, 56
2, 113347, Control_c, 0, 64, 20
2, 113629, Control_c, 0, 64, 96
2, 115716, Note_off_c, 0, 45, 52
2, 115953, Note_off_c, 0, 57, 55
2, 116020, Note_off_c, 0, 33, 54
2, 116354, Control_c, 0, 67, 127
2, 116792, Control_c, 0, 64, 20
2, 116806, Note_on_c, 0, 55, 47
2, 116807, Note_on_c, 0, 43, 37
2, 116809, Note_on_c, 0, 31, 42
2, 116988, Control_c, 0, 64, 96
2, 117155, Note_off_c, 0, 43, 49
2, 117233, Note_off_c, 0, 55, 51
2, 117314, Note_off_c, 0, 31, 50
2, 117392, Note_on_c, 0, 29, 39
2, 117393, Note_on_c, 0, 41, 40
2, 117394, Note_on_c, 0, 53, 41
2, 117417, Control_c, 0, 64, 20
2, 117611, Control_c, 0, 64, 96
2, 117963, Control_c, 0, 64, 20
2, 117969, Note_off_c, 0, 53, 50
2, 117972, Note_off_c, 0, 29, 49
2, 117973, Note_off_c, 0, 41, 50
2, 117976, Note_on_c, 0, 40, 27
2, 117977, Note_on_c, 0, 52, 32
2, 118148, Control_c, 0, 64, 96
2, 118577, Note_off_c, 0, 40, 46
2, 118577, Note_off_c, 0, 52, 48
2, 118582, Note_on_c, 0, 41, 20
2, 118583, Note_on_c, 0, 53, 24
2, 118622, Control_c, 0, 64, 20
2, 118889, Note_off_c, 0, 41, 45
2, 118891, Note_off_c, 0, 53, 46
2, 118892, Note_on_c, 0, 38, 20
2, 118893, Note_on_c, 0, 50, 27
2, 119192, Note_off_c, 0, 50, 46
2, 119194, Note_off_c, 0, 38, 45
2, 119286, Control_c, 0, 64, 96
2, 119288, Note_on_c, 0, 37, 24
2, 119435, Note_on_c, 0, 40, 24
2, 119568, Note_on_c, 0, 45, 27
2, 119719, Note_on_c, 0, 49, 30
2, 119853, Note_on_c, 0, 52, 33
2, 119986, Note_on_c, 0, 57, 36
2, 122359, Note_off_c, 0, 49, 47
2, 122361, Note_off_c, 0, 57, 49
2, 122363, Note_off_c, 0, 52, 48
2, 122365, Note_on_c, 0, 61, 37
2, 122860, Note_off_c, 0, 61, 49
2, 123613, Note_on_c, 0, 64, 30
2, 124145, Note_off_c, 0, 64, 47
2, 125395, Note_on_c, 0, 69, 30
2, 129503, Note_off_c, 0, 69, 46
2, 129750, Control_c, 0, 67, 0
2, 129768, Note_off_c, 0, 37, 46
2, 129837, Note_off_c, 0, 40, 46
2, 129906, Note_off_c, 0, 45, 46
2, 130124, Note_on_c, 0, 69, 55
2, 130126, Note_on_c, 0, 49, 34
2, 130127, Note_on_c, 0, 57, 38
2, 130128, Control_c, 0, 64, 20
2, 130209, Note_off_c, 0, 57, 49
2, 130212, Note_off_c, 0, 49, 48
2, 130234, Note_on_c, 0, 67, 53
2, 130249, Note_off_c, 0, 69, 53
2, 130311, Note_off_c, 0, 67, 53
2, 130357, Note_on_c, 0, 67, 51
2, 130359, Note_on_c, 0, 50, 33
2, 130360, Note_on_c, 0, 57, 38
2, 130436, Note_off_c, 0, 57, 49
2, 130441, Note_off_c, 0, 50, 48
2, 130466, Note_on_c, 0, 65, 49
2, 130485, Note_off_c, 0, 67, 52
2, 130538, Note_off_c, 0, 65, 52
2, 130587, Note_on_c, 0, 65, 48
2, 130588, Note_on_c, 0, 52, 26
2, 130590, Note_on_c, 0, 57, 30
2, 130672, Note_off_c, 0, 57, 47
2, 130673, Note_off_c, 0, 52, 46
2, 130697, Note_on_c, 0, 64, 46
2, 130725, Note_off_c, 0, 65, 52
2, 130780, Note_off_c, 0, 64, 51
2, 130817, Note_on_c, 0, 64, 44
2, 130819, Note_on_c, 0, 57, 26
2, 130821, Note_on_c, 0, 53, 27
2, 130899, Note_off_c, 0, 53, 46
2, 130910, Note_off_c, 0, 57, 46
2, 130927, Note_on_c, 0, 62, 43
2, 130952, Note_off_c, 0, 64, 51
2, 131049, Note_off_c, 0, 62, 50
2, 131050, Note_on_c, 0, 69, 61
2, 131051, Note_on_c, 0, 49, 20
2, 131052, Note_on_c, 0, 57, 30
2, 131130, Note_off_c, 0, 49, 45
2, 131144, Note_off_c, 0, 57, 47
2, 131159, Note_on_c, 0, 67, 48
2, 131179, Note_off_c, 0, 69, 55
2, 131233, Note_off_c, 0, 67, 52
2, 131280, Note_on_c, 0, 67, 46
2, 131281, Note_on_c, 0, 57, 20
2, 131282, Note_on_c, 0, 50, 30
2, 131363, Note_off_c, 0, 57, 45
2, 131363, Note_off_c, 0, 50, 47
2, 131390, Note_on_c, 0, 65, 50
2, 131427, Note_off_c, 0, 67, 51
2, 131468, Note_off_c, 0, 65, 52
2, 131511, Note_on_c, 0, 65, 48
2, 131513, Note_on_c, 0, 52, 18
2, 131515, Note_on_c, 0, 57, 22
2, 131595, Note_off_c, 0, 52, 44
2, 131602, Note_off_c, 0, 57, 45
2, 131620, Note_on_c, 0, 64, 46
2, 131641, Note_off_c, 0, 65, 52
2, 131697, Note_off_c, 0, 64, 51
2, 131742, Note_on_c, 0, 64, 50
2, 131744, Note_on_c, 0, 53, 14
2, 131746, Note_on_c, 0, 57, 20
2, 131824, Note_off_c, 0, 53, 44
2, 131828, Note_off_c, 0, 57, 45
2, 131853, Note_on_c, 0, 62, 48
2, 131908, Note_off_c, 0, 64, 52
2, 131917, Note_off_c, 0, 62, 52
2, 131957, Note_on_c, 0, 74, 75
2, 131959, Note_on_c, 0, 54, 41
2, 131961, Note_on_c, 0, 62, 44
2, 132050, Note_off_c, 0, 62, 51
2, 132064, Note_off_c, 0, 54, 50
2, 132086, Note_on_c, 0, 72, 67
2, 132120, Note_off_c, 0, 74, 59
2, 132160, Note_off_c, 0, 72, 57
2, 132207, Note_on_c, 0, 72, 54
2, 132208, Note_on_c, 0, 62, 37
2, 132211, Note_on_c, 0, 55, 40
2, 132298, Note_off_c, 0, 62, 49
2, 132312, Note_off_c, 0, 55, 50
2, 132330, Note_on_c, 0, 70, 61
2, 132342, Note_off_c, 0, 72, 53
2, 132407, Note_off_c, 0, 70, 55
2, 132437, Note_on_c, 0, 70, 65
2, 132437, Note_on_c, 0, 62, 49
2, 132439, Note_on_c, 0, 57, 49
2, 132531, Note_off_c, 0, 57, 52
2, 132536, Note_off_c, 0, 62, 52
2, 132562, Note_on_c, 0, 69, 74
2, 132583, Note_off_c, 0, 70, 56
2, 132638, Note_off_c, 0, 69, 59
2, 132700, Note_on_c, 0, 69, 81
2, 132701, Note_on_c, 0, 58, 68
2, 132702, Note_on_c, 0, 62, 61
2, 132792, Note_off_c, 0, 62, 55
2, 132804, Note_off_c, 0, 58, 57
2, 132825, Note_on_c, 0, 67, 89
2, 132847, Note_off_c, 0, 69, 60
2, 132907, Note_off_c, 0, 67, 62
2, 132945, Note_on_c, 0, 67, 96
2, 132947, Note_on_c, 0, 58, 67
2, 132949, Note_on_c, 0, 62, 76
2, 133048, Note_off_c, 0, 62, 59
2, 133058, Note_off_c, 0, 58, 57
2, 133087, Note_on_c, 0, 68, 105
2, 133117, Note_off_c, 0, 67, 63
2, 133174, Note_off_c, 0, 68, 66
2, 133210, Control_c, 0, 64, 96
2, 133214, Note_on_c, 0, 65, 52
2, 133215, Note_on_c, 0, 68, 72
2, 133217, Note_on_c, 0, 57, 65
2, 133220, Note_on_c, 0, 62, 60
2, 134613, Control_c, 0, 64, 20
2, 134619, Note_off_c, 0, 68, 58
2, 134621, Note_on_c, 0, 69, 60
2, 134771, Control_c, 0, 64, 95
2, 134869, Note_off_c, 0, 69, 55
2, 134871, Note_on_c, 0, 68, 60
2, 135002, Note_off_c, 0, 68, 55
2, 135004, Note_on_c, 0, 66, 59
2, 135187, Note_off_c, 0, 66, 54
2, 135188, Note_on_c, 0, 68, 57
2, 135453, Note_off_c, 0, 68, 54
2, 135455, Note_on_c, 0, 71, 43
2, 135635, Note_off_c, 0, 62, 55
2, 135732, Note_off_c, 0, 65, 53
2, 135994, Note_off_c, 0, 57, 56
2, 136022, Note_off_c, 0, 71, 50
2, 136024, Note_on_c, 0, 69, 40
2, 136503, Note_off_c, 0, 69, 50
2, 136572, Note_on_c, 0, 69, 41
2, 136574, Note_on_c, 0, 61, 29
2, 136575, Note_on_c, 0, 64, 21
2, 136577, Note_on_c, 0, 57, 24
2, 136583, Control_c, 0, 64, 20
2, 136767, Control_c, 0, 64, 96
2, 140713, Control_c, 0, 67, 127
2, 140899, Control_c, 0, 64, 20
2, 140969, Note_off_c, 0, 61, 47
2, 140970, Note_off_c, 0, 64, 45
2, 140973, Note_off_c, 0, 69, 50
2, 140975, Note_off_c, 0, 57, 46
2, 141071, Control_c, 0, 64, 96
2, 141074, Note_on_c, 0, 40, 22
2, 141333, Note_on_c, 0, 43, 24
2, 141482, Note_on_c, 0, 48, 28
2, 141615, Note_on_c, 0, 52, 32
2, 141767, Note_on_c, 0, 55, 36
2, 141900, Note_on_c, 0, 60, 40
2, 144140, Note_off_c, 0, 55, 49
2, 144142, Note_off_c, 0, 52, 48
2, 144144, Note_off_c, 0, 60, 50
2, 144145, Note_on_c, 0, 64, 20
2, 144571, Note_off_c, 0, 64, 45
2, 145277, Note_on_c, 0, 67, 20
2, 145718, Note_off_c, 0, 67, 45
2, 146941, Note_on_c, 0, 72, 23
2, 149870, Note_off_c, 0, 40, 45
2, 150016, Note_off_c, 0, 72, 45
2, 150073, Note_off_c, 0, 43, 46
2, 150081, Control_c, 0, 67, 0
2, 150124, Note_off_c, 0, 48, 47
2, 150321, Control_c, 0, 64, 20
2, 150324, Note_on_c, 0, 60, 38
2, 150326, Note_on_c, 0, 72, 57
2, 150327, Note_on_c, 0, 52, 42
2, 150437, Note_on_c, 0, 70, 57
2, 150468, Note_off_c, 0, 72, 54
2, 150507, Note_off_c, 0, 60, 49
2, 150535, Note_off_c, 0, 70, 54
2, 150571, Note_on_c, 0, 60, 39
2, 150573, Note_on_c, 0, 70, 55
2, 150575, Note_on_c, 0, 53, 46
2, 150620, Note_off_c, 0, 52, 50
2, 150688, Note_on_c, 0, 68, 55
2, 150702, Note_off_c, 0, 70, 53
2, 150788, Note_off_c, 0, 68, 53
2, 150804, Note_off_c, 0, 53, 51
2, 150807, Note_off_c, 0, 60, 49
2, 150809, Note_on_c, 0, 68, 54
2, 150937, Note_on_c, 0, 69, 52
2, 150960, Note_off_c, 0, 68, 53
2, 151021, Note_off_c, 0, 69, 53
2, 151054, Note_on_c, 0, 69, 52
2, 151171, Note_on_c, 0, 74, 61
2, 151193, Note_off_c, 0, 69, 53
2, 151272, Note_off_c, 0, 74, 55
2, 151307, Note_on_c, 0, 62, 37
2, 151309, Note_on_c, 0, 74, 60
2, 151310, Note_on_c, 0, 54, 45
2, 151421, Note_on_c, 0, 72, 56
2, 151445, Note_off_c, 0, 74, 55
2, 151496, Note_off_c, 0, 62, 49
2, 151506, Note_off_c, 0, 72, 54
2, 151543, Note_on_c, 0, 62, 39
2, 151545, Note_on_c, 0, 72, 55
2, 151547, Note_on_c, 0, 55, 47
2, 151577, Note_off_c, 0, 54, 51
2, 151657, Note_on_c, 0, 69, 54
2, 151697, Note_off_c, 0, 72, 53
2, 151756, Note_off_c, 0, 69, 53
2, 151790, Note_off_c, 0, 62, 49
2, 151792, Note_off_c, 0, 55, 51
2, 151795, Note_on_c, 0, 69, 53
2, 151908, Note_on_c, 0, 70, 52
2, 151951, Note_off_c, 0, 69, 53
2, 152007, Note_off_c, 0, 70, 53
2, 152024, Note_on_c, 0, 70, 52
2, 152159, Note_on_c, 0, 75, 68
2, 152168, Note_off_c, 0, 70, 53
2, 152240, Note_off_c, 0, 75, 57
2, 152257, Control_c, 0, 64, 95
2, 152274, Note_on_c, 0, 55, 48
2, 152276, Note_on_c, 0, 75, 70
2, 152278, Note_on_c, 0, 63, 55
2, 152281, Note_on_c, 0, 58, 51
2, 152368, Note_off_c, 0, 63, 53
2, 152368, Note_off_c, 0, 58, 52
2, 152376, Note_off_c, 0, 55, 52
2, 152395, Note_on_c, 0, 74, 71
2, 152407, Note_off_c, 0, 75, 57
2, 152454, Control_c, 0, 64, 20
2, 152490, Note_off_c, 0, 74, 58
2, 152524, Note_on_c, 0, 74, 73
2, 152644, Note_on_c, 0, 73, 75
2, 152658, Note_off_c, 0, 74, 58
2, 152725, Note_off_c, 0, 73, 59
2, 152757, Control_c, 0, 64, 100
2, 152760, Note_on_c, 0, 58, 46
2, 152762, Note_on_c, 0, 55, 54
2, 152764, Note_on_c, 0, 73, 76
2, 152765, Note_on_c, 0, 64, 60
2, 152766, Note_on_c, 0, 61, 50
2, 152861, Note_off_c, 0, 58, 51
2, 152867, Note_off_c, 0, 55, 53
2, 152868, Note_off_c, 0, 61, 52
2, 152880, Note_off_c, 0, 64, 55
2, 152894, Note_off_c, 0, 73, 59
2, 152899, Note_on_c, 0, 82, 78
2, 152939, Control_c, 0, 64, 20
2, 152977, Note_off_c, 0, 82, 59
2, 153011, Note_on_c, 0, 82, 80
2, 153128, Note_on_c, 0, 76, 82
2, 153142, Note_off_c, 0, 82, 60
2, 153224, Control_c, 0, 64, 94
2, 153226, Note_off_c, 0, 76, 60
2, 153241, Note_on_c, 0, 55, 56
2, 153244, Note_on_c, 0, 76, 83
2, 153250, Note_on_c, 0, 64, 64
2, 153252, Note_on_c, 0, 58, 52
2, 153254, Note_on_c, 0, 61, 61
2, 153351, Note_off_c, 0, 55, 54
2, 153358, Note_off_c, 0, 61, 55
2, 153364, Note_off_c, 0, 64, 56
2, 153366, Note_off_c, 0, 58, 53
2, 153383, Note_on_c, 0, 85, 85
2, 153392, Note_off_c, 0, 76, 60
2, 153408, Control_c, 0, 64, 20
2, 153460, Note_off_c, 0, 85, 61
2, 153495, Note_on_c, 0, 85, 87
2, 153611, Note_on_c, 0, 77, 89
2, 153628, Note_off_c, 0, 85, 61
2, 153711, Note_off_c, 0, 77, 62
2, 153729, Control_c, 0, 64, 90
2, 153742, Note_on_c, 0, 62, 59
2, 153744, Note_on_c, 0, 59, 54
2, 153747, Note_on_c, 0, 77, 91
2, 153749, Note_on_c, 0, 56, 63
2, 153752, Note_on_c, 0, 65, 70
2, 153828, Note_off_c, 0, 62, 54
2, 153839, Note_off_c, 0, 59, 53
2, 153845, Note_off_c, 0, 56, 55
2, 153847, Note_off_c, 0, 65, 57
2, 153867, Note_on_c, 0, 86, 92
2, 153892, Note_off_c, 0, 77, 62
2, 153925, Control_c, 0, 64, 20
2, 153947, Note_off_c, 0, 86, 62
2, 153978, Note_on_c, 0, 86, 94
2, 154112, Note_on_c, 0, 77, 96
2, 154142, Note_off_c, 0, 86, 63
2, 154195, Note_off_c, 0, 77, 63
2, 154229, Note_on_c, 0, 62, 56
2, 154230, Note_on_c, 0, 77, 98
2, 154233, Note_on_c, 0, 59, 65
2, 154235, Note_on_c, 0, 65, 75
2, 154237, Control_c, 0, 64, 90
2, 154239, Note_on_c, 0, 56, 60
2, 154324, Note_off_c, 0, 56, 55
2, 154326, Note_off_c, 0, 59, 56
2, 154331, Note_off_c, 0, 62, 54
2, 154335, Note_off_c, 0, 65, 59
2, 154351, Note_on_c, 0, 89, 100
2, 154367, Note_off_c, 0, 77, 64
2, 154411, Control_c, 0, 64, 20
2, 154446, Note_off_c, 0, 89, 65
2, 154462, Note_on_c, 0, 89, 102
2, 154467, Note_on_c, 0, 65, 78
2, 154469, Note_on_c, 0, 62, 66
2, 154471, Note_on_c, 0, 57, 71
2, 154565, Note_off_c, 0, 62, 56
2, 154567, Note_off_c, 0, 57, 58
2, 154569, Note_off_c, 0, 65, 59
2, 154601, Note_on_c, 0, 85, 96
2, 154620, Note_off_c, 0, 89, 65
2, 154680, Note_off_c, 0, 85, 63
2, 154714, Note_on_c, 0, 85, 92
2, 154847, Note_on_c, 0, 86, 88
2, 154862, Note_off_c, 0, 85, 62
2, 154929, Note_off_c, 0, 86, 62
2, 154964, Note_on_c, 0, 86, 84
2, 155083, Note_on_c, 0, 80, 80
2, 155104, Note_off_c, 0, 86, 61
2, 155181, Note_off_c, 0, 80, 60
2, 155215, Note_on_c, 0, 80, 76
2, 155333, Note_on_c, 0, 81, 72
2, 155359, Note_off_c, 0, 80, 59
2, 155431, Note_off_c, 0, 81, 58
2, 155466, Note_on_c, 0, 81, 96
2, 155599, Note_on_c, 0, 76, 96
2, 155625, Note_off_c, 0, 81, 63
2, 155680, Note_off_c, 0, 76, 63
2, 155716, Note_on_c, 0, 76, 92
2, 155848, Note_on_c, 0, 77, 87
2, 155872, Note_off_c, 0, 76, 62
2, 155951, Note_off_c, 0, 77, 61
2, 155982, Note_on_c, 0, 77, 82
2, 156098, Note_on_c, 0, 73, 77
2, 156125, Note_off_c, 0, 77, 60
2, 156199, Note_off_c, 0, 73, 59
2, 156234, Note_on_c, 0, 73, 72
2, 156368, Note_on_c, 0, 74, 72
2, 156409, Note_off_c, 0, 73, 58
2, 156467, Note_off_c, 0, 74, 58
2, 156501, Note_on_c, 0, 74, 96
2, 156620, Note_on_c, 0, 68, 96
2, 156625, Note_off_c, 0, 74, 63
2, 156718, Note_off_c, 0, 68, 63
2, 156734, Note_on_c, 0, 68, 92
2, 156869, Note_on_c, 0, 69, 88
2, 156900, Note_off_c, 0, 68, 62
2, 156969, Note_off_c, 0, 69, 62
2, 157003, Note_on_c, 0, 69, 84
2, 157121, Note_off_c, 0, 69, 61
2, 157124, Note_on_c, 0, 64, 80
2, 157218, Note_off_c, 0, 64, 60
2, 157253, Note_on_c, 0, 64, 76
2, 157386, Note_on_c, 0, 65, 74
2, 157454, Note_off_c, 0, 64, 59
2, 157486, Note_off_c, 0, 65, 58
2, 157521, Note_on_c, 0, 65, 73
2, 157636, Note_on_c, 0, 61, 72
2, 157671, Note_off_c, 0, 65, 58
2, 157738, Note_off_c, 0, 61, 58
2, 157770, Note_on_c, 0, 61, 71
2, 157888, Note_on_c, 0, 62, 70
2, 157941, Note_off_c, 0, 61, 58
2, 157986, Note_off_c, 0, 62, 57
2, 158021, Note_on_c, 0, 62, 69
2, 158140, Note_on_c, 0, 58, 69
2, 158171, Note_off_c, 0, 62, 57
2, 158238, Note_off_c, 0, 58, 57
2, 158266, Control_c, 0, 64, 96
2, 158271, Note_on_c, 0, 58, 96
2, 158273, Note_on_c, 0, 46, 85
2, 158390, Note_on_c, 0, 57, 84
2, 158391, Note_on_c, 0, 45, 72
2, 158426, Note_off_c, 0, 46, 61
2, 158446, Note_off_c, 0, 58, 63
2, 158478, Control_c, 0, 64, 20
2, 158488, Note_off_c, 0, 57, 61
2, 158489, Note_off_c, 0, 45, 58
2, 158523, Note_on_c, 0, 45, 70
2, 158525, Note_on_c, 0, 57, 82
2, 158640, Note_on_c, 0, 61, 80
2, 158641, Note_on_c, 0, 49, 68
2, 158672, Note_off_c, 0, 45, 57
2, 158681, Note_off_c, 0, 57, 60
2, 158738, Note_off_c, 0, 61, 60
2, 158740, Note_off_c, 0, 49, 57
2, 158761, Control_c, 0, 64, 98
2, 158772, Note_on_c, 0, 49, 66
2, 158775, Note_on_c, 0, 61, 78
2, 158889, Note_on_c, 0, 62, 76
2, 158892, Note_on_c, 0, 50, 64
2, 158920, Note_off_c, 0, 61, 59
2, 158936, Note_off_c, 0, 49, 56
2, 158956, Control_c, 0, 64, 20
2, 158992, Note_off_c, 0, 50, 56
2, 158994, Note_off_c, 0, 62, 59
2, 159023, Note_on_c, 0, 50, 62
2, 159024, Note_on_c, 0, 62, 74
2, 159142, Note_on_c, 0, 46, 60
2, 159146, Note_on_c, 0, 58, 72
2, 159177, Note_off_c, 0, 50, 55
2, 159200, Note_off_c, 0, 62, 59
2, 159239, Note_off_c, 0, 46, 55
2, 159242, Note_off_c, 0, 58, 58
2, 159275, Note_on_c, 0, 46, 84
2, 159277, Note_on_c, 0, 58, 96
2, 159298, Control_c, 0, 64, 98
2, 159393, Note_on_c, 0, 45, 72
2, 159394, Note_on_c, 0, 57, 84
2, 159411, Note_off_c, 0, 46, 61
2, 159419, Note_off_c, 0, 58, 63
2, 159491, Note_off_c, 0, 45, 58
2, 159494, Note_off_c, 0, 57, 61
2, 159521, Control_c, 0, 64, 20
2, 159525, Note_on_c, 0, 45, 70
2, 159527, Note_on_c, 0, 57, 82
2, 159644, Note_on_c, 0, 49, 68
2, 159646, Note_on_c, 0, 61, 80
2, 159677, Note_off_c, 0, 57, 60
2, 159693, Note_off_c, 0, 45, 57
2, 159742, Note_off_c, 0, 49, 57
2, 159744, Note_off_c, 0, 61, 60
2, 159775, Note_on_c, 0, 61, 78
2, 159777, Note_on_c, 0, 49, 66
2, 159795, Control_c, 0, 64, 96
2, 159894, Note_on_c, 0, 50, 64
2, 159896, Note_on_c, 0, 62, 76
2, 159917, Note_off_c, 0, 61, 59
2, 159925, Note_off_c, 0, 49, 56
2, 159992, Note_off_c, 0, 50, 56
2, 159994, Note_off_c, 0, 62, 59
2, 160025, Note_on_c, 0, 62, 74
2, 160027, Note_on_c, 0, 50, 62
2, 160028, Control_c, 0, 64, 20
2, 160160, Note_on_c, 0, 58, 72
2, 160162, Note_on_c, 0, 46, 60
2, 160191, Note_off_c, 0, 50, 55
2, 160230, Note_off_c, 0, 62, 59
2, 160241, Note_off_c, 0, 58, 58
2, 160243, Note_off_c, 0, 46, 55
2, 160262, Control_c, 0, 64, 96
2, 160276, Note_on_c, 0, 58, 96
2, 160276, Note_on_c, 0, 46, 84
2, 160409, Note_on_c, 0, 57, 84
2, 160414, Note_on_c, 0, 45, 72
2, 160460, Note_off_c, 0, 46, 61
2, 160474, Note_off_c, 0, 58, 63
2, 160496, Control_c, 0, 64, 20
2, 160508, Note_off_c, 0, 57, 61
2, 160512, Note_off_c, 0, 45, 58
2, 160544, Note_on_c, 0, 45, 76
2, 160547, Note_on_c, 0, 57, 84
2, 160677, Note_on_c, 0, 58, 83
2, 160687, Note_off_c, 0, 57, 61
2, 160796, Note_on_c, 0, 53, 84
2, 160797, Note_on_c, 0, 59, 82
2, 160800, Note_on_c, 0, 50, 76
2, 160801, Note_off_c, 0, 58, 60
2, 160910, Note_on_c, 0, 60, 81
2, 160928, Control_c, 0, 64, 96
2, 160931, Note_off_c, 0, 59, 60
2, 161045, Note_on_c, 0, 61, 81
2, 161061, Note_off_c, 0, 60, 60
2, 161162, Note_on_c, 0, 62, 80
2, 161168, Note_off_c, 0, 61, 60
2, 161253, Control_c, 0, 64, 20
2, 161279, Note_on_c, 0, 63, 79
2, 161293, Note_off_c, 0, 62, 60
2, 161331, Note_off_c, 0, 53, 61
2, 161396, Note_off_c, 0, 50, 59
2, 161414, Note_on_c, 0, 64, 78
2, 161432, Note_off_c, 0, 63, 60
2, 161442, Note_off_c, 0, 45, 59
2, 161519, Note_off_c, 0, 64, 59
2, 161526, Note_on_c, 0, 45, 55
2, 161528, Note_on_c, 0, 53, 60
2, 161531, Note_on_c, 0, 65, 78
2, 161533, Note_on_c, 0, 50, 48
2, 161577, Control_c, 0, 64, 96
2, 161649, Note_on_c, 0, 66, 77
2, 161677, Note_off_c, 0, 65, 59
2, 161713, Note_off_c, 0, 53, 55
2, 161717, Note_off_c, 0, 45, 53
2, 161725, Note_off_c, 0, 50, 52
2, 161774, Note_off_c, 0, 66, 59
2, 161779, Note_on_c, 0, 50, 50
2, 161781, Note_on_c, 0, 45, 54
2, 161782, Note_on_c, 0, 53, 63
2, 161783, Note_on_c, 0, 67, 76
2, 161897, Note_on_c, 0, 68, 75
2, 161902, Control_c, 0, 64, 20
2, 161925, Note_off_c, 0, 67, 59
2, 161953, Note_off_c, 0, 45, 53
2, 161967, Note_off_c, 0, 53, 55
2, 161970, Note_off_c, 0, 50, 52
2, 162027, Note_on_c, 0, 52, 65
2, 162028, Note_on_c, 0, 69, 76
2, 162030, Note_on_c, 0, 45, 60
2, 162033, Note_off_c, 0, 68, 59
2, 162035, Note_on_c, 0, 55, 69
2, 162147, Note_on_c, 0, 70, 74
2, 162164, Note_off_c, 0, 69, 59
2, 162207, Note_off_c, 0, 45, 55
2, 162222, Note_off_c, 0, 52, 56
2, 162227, Note_off_c, 0, 55, 57
2, 162261, Note_off_c, 0, 70, 59
2, 162282, Note_on_c, 0, 55, 72
2, 162283, Note_on_c, 0, 61, 73
2, 162287, Note_on_c, 0, 45, 60
2, 162289, Note_on_c, 0, 52, 65
2, 162415, Note_on_c, 0, 69, 72
2, 162418, Note_off_c, 0, 61, 58
2, 162470, Note_off_c, 0, 52, 56
2, 162488, Note_off_c, 0, 55, 58
2, 162497, Note_off_c, 0, 69, 58
2, 162502, Note_off_c, 0, 45, 55
2, 162534, Control_c, 0, 64, 95
2, 162535, Note_on_c, 0, 62, 60
2, 162537, Note_on_c, 0, 38, 84
2, 162615, Note_off_c, 0, 62, 55
2, 162617, Note_on_c, 0, 57, 60
2, 162698, Note_off_c, 0, 57, 55
2, 162701, Note_on_c, 0, 53, 61
2, 162782, Note_off_c, 0, 53, 55
2, 162785, Note_on_c, 0, 57, 62
2, 162866, Note_off_c, 0, 57, 55
2, 162869, Note_on_c, 0, 53, 64
2, 162949, Note_off_c, 0, 53, 56
2, 162951, Note_on_c, 0, 57, 65
2, 163030, Control_c, 0, 64, 20
2, 163035, Note_off_c, 0, 57, 56
2, 163036, Note_off_c, 0, 38, 61
2, 163037, Note_on_c, 0, 41, 88
2, 163038, Note_on_c, 0, 53, 66
2, 163101, Note_off_c, 0, 53, 56
2, 163102, Note_on_c, 0, 57, 68
2, 163149, Note_off_c, 0, 41, 62
2, 163182, Note_off_c, 0, 57, 57
2, 163185, Note_on_c, 0, 53, 69
2, 163268, Note_off_c, 0, 53, 57
2, 163271, Note_on_c, 0, 57, 70
2, 163273, Note_on_c, 0, 45, 92
2, 163352, Note_off_c, 0, 57, 57
2, 163352, Note_on_c, 0, 53, 72
2, 163383, Note_off_c, 0, 45, 62
2, 163432, Note_off_c, 0, 53, 58
2, 163436, Note_on_c, 0, 57, 72
2, 163517, Note_off_c, 0, 57, 58
2, 163519, Note_on_c, 0, 53, 70
2, 163520, Note_on_c, 0, 50, 96
2, 163599, Note_on_c, 0, 57, 60
2, 163607, Note_off_c, 0, 53, 57
2, 163684, Note_off_c, 0, 57, 55
2, 163686, Note_on_c, 0, 53, 60
2, 163750, Note_off_c, 0, 53, 55
2, 163754, Note_on_c, 0, 57, 58
2, 163836, Note_off_c, 0, 57, 54
2, 163838, Note_on_c, 0, 53, 56
2, 163919, Note_off_c, 0, 53, 54
2, 163922, Note_on_c, 0, 57, 55
2, 164002, Note_off_c, 0, 57, 53
2, 164004, Note_on_c, 0, 53, 53
2, 164086, Note_off_c, 0, 53, 53
2, 164088, Note_on_c, 0, 57, 52
2, 164169, Note_off_c, 0, 57, 53
2, 164172, Note_on_c, 0, 53, 50
2, 164219, Control_c, 0, 67, 127
2, 164250, Note_off_c, 0, 53, 52
2, 164253, Note_on_c, 0, 69, 66
2, 164255, Note_on_c, 0, 57, 30
2, 164337, Note_off_c, 0, 57, 47
2, 164339, Note_on_c, 0, 53, 30
2, 164403, Note_off_c, 0, 53, 47
2, 164405, Note_on_c, 0, 57, 30
2, 164489, Note_off_c, 0, 57, 47
2, 164492, Note_on_c, 0, 53, 30
2, 164501, Note_on_c, 0, 68, 72
2, 164539, Note_off_c, 0, 69, 56
2, 164603, Note_off_c, 0, 53, 47
2, 164607, Note_on_c, 0, 57, 30
2, 164706, Note_off_c, 0, 57, 47
2, 164709, Note_on_c, 0, 53, 31
2, 164804, Note_off_c, 0, 53, 47
2, 164807, Note_on_c, 0, 69, 73
2, 164809, Note_on_c, 0, 57, 31
2, 164829, Note_off_c, 0, 68, 58
2, 164889, Note_off_c, 0, 57, 47
2, 164892, Note_on_c, 0, 53, 31
2, 164973, Note_off_c, 0, 53, 47
2, 164975, Note_on_c, 0, 57, 31
2, 165056, Note_off_c, 0, 69, 58
2, 165056, Note_off_c, 0, 57, 47
2, 165059, Note_on_c, 0, 70, 78
2, 165061, Note_on_c, 0, 53, 31
2, 165158, Note_off_c, 0, 53, 47
2, 165160, Note_on_c, 0, 57, 32
2, 165239, Note_off_c, 0, 57, 48
2, 165242, Note_on_c, 0, 53, 32
2, 165344, Note_off_c, 0, 53, 48
2, 165347, Note_on_c, 0, 69, 66
2, 165349, Note_on_c, 0, 57, 32
2, 165379, Note_off_c, 0, 70, 59
2, 165424, Note_off_c, 0, 57, 48
2, 165426, Note_on_c, 0, 53, 32
2, 165524, Note_off_c, 0, 53, 48
2, 165527, Note_on_c, 0, 57, 33
2, 165543, Note_off_c, 0, 69, 56
2, 165606, Note_off_c, 0, 57, 48
2, 165609, Note_on_c, 0, 69, 66
2, 165611, Note_on_c, 0, 53, 33
2, 165707, Note_off_c, 0, 53, 48
2, 165711, Note_on_c, 0, 57, 33
2, 165792, Note_off_c, 0, 57, 48
2, 165795, Note_on_c, 0, 53, 33
2, 165893, Note_off_c, 0, 53, 48
2, 165895, Note_on_c, 0, 57, 34
2, 165993, Note_off_c, 0, 57, 48
2, 165995, Note_on_c, 0, 53, 34
2, 166075, Note_off_c, 0, 53, 48
2, 166078, Note_on_c, 0, 57, 34
2, 166120, Note_off_c, 0, 69, 56
2, 166143, Note_off_c, 0, 57, 48
2, 166157, Note_on_c, 0, 69, 54
2, 166161, Note_on_c, 0, 53, 34
2, 166260, Note_off_c, 0, 53, 48
2, 166262, Note_on_c, 0, 57, 35
2, 166343, Note_off_c, 0, 57, 48
2, 166346, Note_off_c, 0, 50, 63
2, 166346, Note_on_c, 0, 53, 35
2, 166426, Note_off_c, 0, 53, 48
2, 166428, Note_on_c, 0, 57, 35
2, 166504, Control_c, 0, 67, 0
2, 166509, Note_off_c, 0, 57, 48
2, 166513, Note_on_c, 0, 53, 35
2, 166594, Note_off_c, 0, 53, 48
2, 166596, Note_on_c, 0, 57, 35
2, 166643, Note_off_c, 0, 69, 53
2, 166645, Note_off_c, 0, 57, 48
2, 166679, Note_on_c, 0, 69, 60
2, 166680, Note_on_c, 0, 40, 84
2, 166698, Control_c, 0, 64, 95
2, 166744, Note_off_c, 0, 69, 55
2, 166747, Note_on_c, 0, 61, 60
2, 166828, Note_off_c, 0, 61, 55
2, 166829, Note_on_c, 0, 55, 62
2, 166911, Note_off_c, 0, 55, 55
2, 166914, Note_on_c, 0, 61, 64
2, 166994, Note_off_c, 0, 61, 56
2, 166998, Note_on_c, 0, 55, 66
2, 167079, Note_off_c, 0, 55, 56
2, 167081, Note_on_c, 0, 61, 68
2, 167163, Note_off_c, 0, 61, 57
2, 167166, Note_off_c, 0, 40, 61
2, 167166, Note_on_c, 0, 55, 70
2, 167168, Note_on_c, 0, 43, 85
2, 167169, Control_c, 0, 64, 20
2, 167244, Note_off_c, 0, 55, 57
2, 167246, Note_on_c, 0, 61, 73
2, 167280, Note_off_c, 0, 43, 61
2, 167327, Note_off_c, 0, 61, 58
2, 167332, Note_on_c, 0, 55, 75
2, 167398, Note_off_c, 0, 55, 59
2, 167399, Note_on_c, 0, 61, 77
2, 167401, Note_on_c, 0, 49, 90
2, 167479, Note_off_c, 0, 61, 59
2, 167480, Note_on_c, 0, 55, 79
2, 167530, Note_off_c, 0, 49, 62
2, 167561, Note_off_c, 0, 55, 60
2, 167565, Note_on_c, 0, 61, 81
2, 167647, Note_off_c, 0, 61, 60
2, 167649, Note_on_c, 0, 55, 84
2, 167650, Note_on_c, 0, 52, 96
2, 167731, Note_on_c, 0, 61, 60
2, 167738, Note_off_c, 0, 55, 61
2, 167812, Note_off_c, 0, 61, 55
2, 167816, Note_on_c, 0, 55, 60
2, 167897, Note_off_c, 0, 55, 55
2, 167899, Note_on_c, 0, 61, 58
2, 167981, Note_off_c, 0, 61, 54
2, 167983, Note_on_c, 0, 55, 56
2, 168046, Note_off_c, 0, 55, 54
2, 168049, Note_on_c, 0, 61, 55
2, 168131, Note_off_c, 0, 61, 54
2, 168132, Note_on_c, 0, 55, 53
2, 168214, Note_off_c, 0, 55, 53
2, 168216, Note_on_c, 0, 61, 52
2, 168296, Note_off_c, 0, 61, 53
2, 168299, Note_on_c, 0, 55, 50
2, 168326, Control_c, 0, 67, 127
2, 168381, Note_off_c, 0, 55, 52
2, 168382, Note_on_c, 0, 69, 72
2, 168384, Note_on_c, 0, 61, 30
2, 168466, Note_off_c, 0, 61, 47
2, 168469, Note_on_c, 0, 55, 30
2, 168550, Note_off_c, 0, 55, 47
2, 168551, Note_on_c, 0, 61, 30
2, 168632, Note_off_c, 0, 69, 58
2, 168634, Note_off_c, 0, 61, 47
2, 168637, Note_on_c, 0, 68, 78
2, 168639, Note_on_c, 0, 55, 30
2, 168734, Note_off_c, 0, 55, 47
2, 168734, Note_on_c, 0, 61, 30
2, 168833, Note_off_c, 0, 61, 47
2, 168835, Note_on_c, 0, 55, 31
2, 168932, Note_off_c, 0, 68, 60
2, 168933, Note_off_c, 0, 55, 47
2, 168934, Note_on_c, 0, 69, 79
2, 168935, Note_on_c, 0, 61, 31
2, 169016, Note_off_c, 0, 61, 47
2, 169018, Note_on_c, 0, 55, 31
2, 169100, Note_off_c, 0, 55, 47
2, 169102, Note_on_c, 0, 61, 31
2, 169200, Note_off_c, 0, 61, 47
2, 169202, Note_off_c, 0, 69, 60
2, 169205, Note_on_c, 0, 55, 32
2, 169206, Note_on_c, 0, 70, 84
2, 169282, Note_off_c, 0, 55, 48
2, 169283, Note_on_c, 0, 61, 32
2, 169365, Note_off_c, 0, 61, 48
2, 169368, Note_on_c, 0, 55, 32
2, 169467, Note_off_c, 0, 55, 48
2, 169469, Note_off_c, 0, 70, 61
2, 169471, Note_on_c, 0, 61, 32
2, 169472, Note_on_c, 0, 69, 72
2, 169552, Note_off_c, 0, 61, 48
2, 169552, Note_on_c, 0, 55, 32
2, 169651, Note_off_c, 0, 55, 48
2, 169653, Note_on_c, 0, 61, 33
2, 169668, Note_off_c, 0, 69, 58
2, 169733, Note_off_c, 0, 61, 48
2, 169736, Note_on_c, 0, 69, 72
2, 169737, Note_on_c, 0, 55, 33
2, 169833, Note_off_c, 0, 55, 48
2, 169835, Note_on_c, 0, 61, 33
2, 169936, Note_off_c, 0, 61, 48
2, 169938, Note_on_c, 0, 55, 33
2, 170020, Note_off_c, 0, 55, 48
2, 170021, Note_on_c, 0, 61, 34
2, 170116, Note_off_c, 0, 61, 48
2, 170117, Note_on_c, 0, 55, 34
2, 170201, Note_off_c, 0, 55, 48
2, 170203, Note_on_c, 0, 61, 34
2, 170237, Note_off_c, 0, 69, 58
2, 170269, Note_off_c, 0, 61, 48
2, 170286, Note_on_c, 0, 69, 54
2, 170288, Note_on_c, 0, 55, 34
2, 170370, Note_off_c, 0, 55, 48
2, 170372, Note_on_c, 0, 61, 35
2, 170470, Note_off_c, 0, 61, 48
2, 170472, Note_off_c, 0, 52, 63
2, 170475, Note_on_c, 0, 55, 35
2, 170552, Note_off_c, 0, 55, 48
2, 170554, Note_on_c, 0, 61, 35
2, 170617, Control_c, 0, 67, 0
2, 170636, Note_off_c, 0, 61, 48
2, 170639, Note_on_c, 0, 55, 35
2, 170720, Note_off_c, 0, 55, 48
2, 170722, Note_on_c, 0, 61, 35
2, 170734, Note_off_c, 0, 69, 53
2, 170769, Note_off_c, 0, 61, 48
2, 170786, Note_on_c, 0, 69, 66
2, 170788, Note_on_c, 0, 41, 84
2, 170792, Control_c, 0, 64, 95
2, 170872, Note_off_c, 0, 69, 56
2, 170873, Note_on_c, 0, 62, 60
2, 170954, Note_off_c, 0, 62, 55
2, 170956, Note_on_c, 0, 57, 61
2, 171037, Note_off_c, 0, 57, 55
2, 171038, Note_on_c, 0, 62, 62
2, 171119, Note_off_c, 0, 62, 55
2, 171122, Note_off_c, 0, 41, 61
2, 171124, Note_on_c, 0, 57, 64
2, 171201, Control_c, 0, 64, 20
2, 171206, Note_off_c, 0, 57, 56
2, 171207, Note_on_c, 0, 62, 65
2, 171288, Note_off_c, 0, 62, 56
2, 171289, Note_on_c, 0, 45, 87
2, 171292, Note_on_c, 0, 57, 66
2, 171371, Note_off_c, 0, 57, 56
2, 171373, Note_on_c, 0, 62, 68
2, 171404, Note_off_c, 0, 45, 61
2, 171438, Note_off_c, 0, 62, 57
2, 171440, Note_on_c, 0, 57, 69
2, 171521, Note_off_c, 0, 57, 57
2, 171523, Note_on_c, 0, 50, 91
2, 171525, Note_on_c, 0, 62, 70
2, 171604, Note_off_c, 0, 62, 57
2, 171607, Note_on_c, 0, 57, 72
2, 171656, Note_off_c, 0, 50, 62
2, 171688, Note_off_c, 0, 57, 58
2, 171692, Note_on_c, 0, 62, 72
2, 171773, Note_off_c, 0, 62, 58
2, 171776, Note_on_c, 0, 57, 84
2, 171778, Note_on_c, 0, 53, 96
2, 171797, Control_c, 0, 64, 95
2, 171855, Note_on_c, 0, 62, 60
2, 171873, Note_off_c, 0, 57, 61
2, 171937, Note_off_c, 0, 62, 55
2, 171940, Note_on_c, 0, 57, 60
2, 172007, Note_off_c, 0, 57, 55
2, 172009, Note_on_c, 0, 62, 59
2, 172089, Note_off_c, 0, 62, 54
2, 172090, Note_on_c, 0, 57, 57
2, 172147, Control_c, 0, 64, 20
2, 172172, Note_off_c, 0, 57, 54
2, 172175, Note_on_c, 0, 62, 56
2, 172258, Note_off_c, 0, 62, 54
2, 172260, Note_on_c, 0, 74, 96
2, 172261, Note_on_c, 0, 57, 55
2, 172339, Note_off_c, 0, 57, 53
2, 172340, Note_on_c, 0, 62, 54
2, 172373, Note_off_c, 0, 74, 63
2, 172421, Note_off_c, 0, 62, 53
2, 172425, Note_off_c, 0, 53, 63
2, 172426, Note_on_c, 0, 57, 52
2, 172508, Note_off_c, 0, 57, 53
2, 172510, Note_on_c, 0, 62, 51
2, 172591, Note_off_c, 0, 62, 52
2, 172593, Note_on_c, 0, 57, 50
2, 172656, Note_off_c, 0, 57, 52
2, 172660, Note_on_c, 0, 62, 48
2, 172742, Note_off_c, 0, 62, 52
2, 172745, Note_on_c, 0, 64, 60
2, 172746, Note_on_c, 0, 44, 84
2, 172752, Control_c, 0, 64, 95
2, 172826, Note_off_c, 0, 64, 55
2, 172827, Note_on_c, 0, 59, 60
2, 172907, Note_off_c, 0, 59, 55
2, 172908, Note_on_c, 0, 64, 61
2, 172991, Note_off_c, 0, 64, 55
2, 172993, Note_on_c, 0, 59, 62
2, 173076, Note_off_c, 0, 59, 55
2, 173079, Note_on_c, 0, 64, 63
2, 173159, Note_off_c, 0, 64, 55
2, 173160, Note_on_c, 0, 59, 64
2, 173242, Note_off_c, 0, 59, 56
2, 173245, Note_off_c, 0, 44, 61
2, 173246, Note_on_c, 0, 47, 85
2, 173247, Note_on_c, 0, 64, 66
2, 173279, Control_c, 0, 64, 20
2, 173310, Note_off_c, 0, 64, 56
2, 173312, Note_on_c, 0, 59, 67
2, 173358, Note_off_c, 0, 47, 61
2, 173392, Note_off_c, 0, 59, 57
2, 173393, Note_on_c, 0, 64, 68
2, 173475, Note_off_c, 0, 64, 57
2, 173478, Note_on_c, 0, 59, 69
2, 173479, Note_on_c, 0, 52, 90
2, 173560, Note_off_c, 0, 59, 57
2, 173562, Note_on_c, 0, 64, 70
2, 173592, Note_off_c, 0, 52, 62
2, 173624, Note_on_c, 0, 59, 72
2, 173644, Note_off_c, 0, 64, 57
2, 173705, Note_off_c, 0, 59, 58
2, 173727, Note_on_c, 0, 56, 96
2, 173746, Control_c, 0, 64, 95
2, 173758, Note_on_c, 0, 59, 65
2, 173809, Note_on_c, 0, 64, 60
2, 173836, Note_off_c, 0, 59, 56
2, 173877, Note_off_c, 0, 64, 55
2, 173879, Note_on_c, 0, 59, 60
2, 173961, Note_off_c, 0, 59, 55
2, 173962, Note_on_c, 0, 64, 59
2, 174042, Note_off_c, 0, 64, 54
2, 174045, Note_on_c, 0, 59, 57
2, 174130, Note_off_c, 0, 59, 54
2, 174131, Note_on_c, 0, 64, 56
2, 174174, Control_c, 0, 64, 20
2, 174210, Note_off_c, 0, 64, 54
2, 174211, Note_on_c, 0, 59, 55
2, 174213, Note_on_c, 0, 76, 96
2, 174295, Note_off_c, 0, 59, 53
2, 174297, Note_on_c, 0, 64, 54
2, 174326, Note_off_c, 0, 76, 63
2, 174378, Note_off_c, 0, 64, 53
2, 174379, Note_off_c, 0, 56, 63
2, 174382, Note_on_c, 0, 59, 52
2, 174463, Note_off_c, 0, 59, 53
2, 174464, Note_on_c, 0, 64, 51
2, 174527, Note_off_c, 0, 64, 52
2, 174530, Note_on_c, 0, 59, 50
2, 174613, Note_off_c, 0, 59, 52
2, 174615, Note_on_c, 0, 64, 48
2, 174697, Note_off_c, 0, 64, 52
2, 174699, Note_on_c, 0, 65, 60
2, 174701, Note_on_c, 0, 45, 84
2, 174709, Control_c, 0, 64, 95
2, 174779, Note_off_c, 0, 65, 55
2, 174780, Note_on_c, 0, 60, 60
2, 174861, Note_off_c, 0, 60, 55
2, 174864, Note_on_c, 0, 65, 61
2, 174947, Note_off_c, 0, 65, 55
2, 174949, Note_on_c, 0, 60, 62
2, 175029, Note_off_c, 0, 60, 55
2, 175030, Note_on_c, 0, 65, 63
2, 175112, Note_off_c, 0, 65, 55
2, 175115, Note_on_c, 0, 60, 64
2, 175181, Note_off_c, 0, 60, 56
2, 175182, Note_off_c, 0, 45, 61
2, 175185, Note_on_c, 0, 65, 66
2, 175186, Note_on_c, 0, 48, 87
2, 175197, Control_c, 0, 64, 20
2, 175263, Note_off_c, 0, 65, 56
2, 175264, Note_on_c, 0, 60, 67
2, 175316, Note_off_c, 0, 48, 61
2, 175345, Note_off_c, 0, 60, 57
2, 175349, Note_on_c, 0, 65, 68
2, 175433, Note_off_c, 0, 65, 57
2, 175434, Note_on_c, 0, 60, 69
2, 175435, Note_on_c, 0, 53, 91
2, 175513, Note_off_c, 0, 60, 57
2, 175514, Note_on_c, 0, 65, 70
2, 175547, Note_off_c, 0, 53, 62
2, 175570, Note_on_c, 0, 60, 72
2, 175596, Note_off_c, 0, 65, 57
2, 175651, Note_off_c, 0, 60, 58
2, 175685, Note_on_c, 0, 57, 96
2, 175689, Note_on_c, 0, 60, 62
2, 175714, Control_c, 0, 64, 95
2, 175748, Note_on_c, 0, 65, 60
2, 175772, Note_off_c, 0, 60, 55
2, 175830, Note_off_c, 0, 65, 55
2, 175833, Note_on_c, 0, 60, 60
2, 175917, Note_off_c, 0, 60, 55
2, 175918, Note_on_c, 0, 65, 61
2, 176000, Note_off_c, 0, 65, 55
2, 176002, Note_on_c, 0, 60, 63
2, 176082, Note_off_c, 0, 60, 55
2, 176084, Note_on_c, 0, 65, 64
2, 176161, Control_c, 0, 64, 20
2, 176165, Note_off_c, 0, 65, 56
2, 176166, Note_on_c, 0, 77, 96
2, 176168, Note_on_c, 0, 60, 66
2, 176250, Note_off_c, 0, 60, 56
2, 176252, Note_on_c, 0, 65, 67
2, 176281, Note_off_c, 0, 77, 63
2, 176332, Note_off_c, 0, 65, 57
2, 176334, Note_off_c, 0, 57, 63
2, 176336, Note_on_c, 0, 60, 69
2, 176398, Note_off_c, 0, 60, 57
2, 176400, Note_on_c, 0, 65, 70
2, 176484, Note_off_c, 0, 65, 57
2, 176486, Note_on_c, 0, 60, 72
2, 176566, Note_off_c, 0, 60, 58
2, 176567, Note_on_c, 0, 65, 72
2, 176650, Control_c, 0, 64, 95
2, 176651, Note_off_c, 0, 65, 58
2, 176654, Note_on_c, 0, 68, 60
2, 176656, Note_on_c, 0, 47, 84
2, 176734, Note_off_c, 0, 68, 55
2, 176736, Note_on_c, 0, 62, 60
2, 176817, Note_off_c, 0, 62, 55
2, 176820, Note_on_c, 0, 68, 61
2, 176900, Note_off_c, 0, 68, 55
2, 176901, Note_on_c, 0, 62, 62
2, 176983, Note_off_c, 0, 62, 55
2, 176986, Note_on_c, 0, 68, 64
2, 177052, Note_off_c, 0, 68, 56
2, 177053, Note_on_c, 0, 62, 65
2, 177134, Note_off_c, 0, 62, 56
2, 177135, Note_off_c, 0, 47, 61
2, 177137, Note_on_c, 0, 68, 66
2, 177139, Note_on_c, 0, 50, 87
2, 177147, Control_c, 0, 64, 20
2, 177218, Note_off_c, 0, 68, 56
2, 177220, Note_on_c, 0, 62, 68
2, 177268, Note_off_c, 0, 50, 61
2, 177301, Note_off_c, 0, 62, 57
2, 177304, Note_on_c, 0, 68, 69
2, 177385, Note_off_c, 0, 68, 57
2, 177387, Note_on_c, 0, 56, 91
2, 177388, Note_on_c, 0, 62, 70
2, 177467, Note_off_c, 0, 62, 57
2, 177470, Note_on_c, 0, 68, 72
2, 177500, Note_off_c, 0, 56, 62
2, 177532, Note_on_c, 0, 62, 72
2, 177553, Note_off_c, 0, 68, 57
2, 177597, Note_off_c, 0, 62, 57
2, 177620, Note_on_c, 0, 59, 96
2, 177639, Note_on_c, 0, 62, 84
2, 177644, Control_c, 0, 64, 95
2, 177701, Note_on_c, 0, 68, 60
2, 177722, Note_off_c, 0, 62, 61
2, 177786, Note_off_c, 0, 68, 55
2, 177789, Note_on_c, 0, 62, 60
2, 177871, Note_off_c, 0, 62, 55
2, 177873, Note_on_c, 0, 68, 62
2, 177953, Note_off_c, 0, 68, 55
2, 177954, Note_on_c, 0, 62, 63
2, 178036, Note_off_c, 0, 62, 55
2, 178039, Note_on_c, 0, 68, 64
2, 178121, Note_off_c, 0, 68, 56
2, 178123, Note_on_c, 0, 62, 66
2, 178125, Note_on_c, 0, 80, 96
2, 178131, Control_c, 0, 64, 20
2, 178203, Note_off_c, 0, 62, 56
2, 178204, Note_on_c, 0, 68, 67
2, 178237, Note_off_c, 0, 80, 63
2, 178268, Note_off_c, 0, 68, 57
2, 178270, Note_off_c, 0, 59, 63
2, 178273, Note_on_c, 0, 62, 69
2, 178356, Note_off_c, 0, 62, 57
2, 178357, Note_on_c, 0, 68, 70
2, 178437, Note_off_c, 0, 68, 57
2, 178438, Note_on_c, 0, 62, 72
2, 178522, Note_off_c, 0, 62, 58
2, 178523, Note_on_c, 0, 68, 72
2, 178604, Note_off_c, 0, 68, 58
2, 178606, Note_on_c, 0, 69, 60
2, 178609, Note_on_c, 0, 48, 84
2, 178627, Control_c, 0, 64, 95
2, 178690, Note_off_c, 0, 69, 55
2, 178691, Note_on_c, 0, 64, 60
2, 178771, Note_off_c, 0, 64, 55
2, 178772, Note_on_c, 0, 69, 61
2, 178838, Note_off_c, 0, 69, 55
2, 178840, Note_on_c, 0, 64, 62
2, 178924, Note_off_c, 0, 64, 55
2, 178926, Note_on_c, 0, 69, 63
2, 179006, Note_off_c, 0, 69, 55
2, 179006, Note_on_c, 0, 64, 64
2, 179088, Note_off_c, 0, 64, 56
2, 179090, Note_off_c, 0, 48, 61
2, 179093, Note_on_c, 0, 57, 87
2, 179094, Note_on_c, 0, 69, 66
2, 179124, Control_c, 0, 64, 20
2, 179174, Note_off_c, 0, 69, 56
2, 179176, Note_on_c, 0, 64, 67
2, 179223, Note_off_c, 0, 57, 61
2, 179256, Note_off_c, 0, 64, 57
2, 179257, Note_on_c, 0, 69, 68
2, 179339, Note_off_c, 0, 69, 57
2, 179342, Note_on_c, 0, 64, 69
2, 179343, Note_on_c, 0, 60, 91
2, 179422, Note_off_c, 0, 64, 57
2, 179424, Note_on_c, 0, 69, 70
2, 179472, Note_off_c, 0, 60, 62
2, 179507, Note_off_c, 0, 69, 57
2, 179510, Note_on_c, 0, 64, 72
2, 179590, Note_off_c, 0, 64, 58
2, 179591, Note_on_c, 0, 69, 71
2, 179594, Note_on_c, 0, 66, 96
2, 179596, Note_on_c, 0, 63, 88
2, 179602, Control_c, 0, 64, 95
2, 179674, Note_on_c, 0, 72, 60
2, 179695, Note_off_c, 0, 69, 58
2, 179774, Note_off_c, 0, 72, 55
2, 179776, Note_on_c, 0, 69, 60
2, 179858, Note_off_c, 0, 69, 55
2, 179860, Note_on_c, 0, 72, 61
2, 179941, Note_off_c, 0, 72, 55
2, 179942, Note_on_c, 0, 69, 62
2, 180024, Note_off_c, 0, 69, 55
2, 180026, Note_on_c, 0, 72, 64
2, 180110, Note_off_c, 0, 72, 56
2, 180113, Note_on_c, 0, 69, 65
2, 180114, Note_on_c, 0, 81, 96
2, 180147, Control_c, 0, 64, 20
2, 180193, Note_off_c, 0, 69, 56
2, 180193, Note_on_c, 0, 72, 66
2, 180274, Note_off_c, 0, 66, 63
2, 180276, Note_off_c, 0, 63, 62
2, 180277, Note_off_c, 0, 72, 56
2, 180278, Note_on_c, 0, 69, 68
2, 180358, Note_off_c, 0, 69, 57
2, 180361, Note_off_c, 0, 81, 63
2, 180363, Note_on_c, 0, 72, 69
2, 180426, Note_off_c, 0, 72, 57
2, 180426, Note_on_c, 0, 69, 70
2, 180507, Note_off_c, 0, 69, 57
2, 180510, Note_on_c, 0, 72, 72
2, 180594, Note_off_c, 0, 72, 58
2, 180595, Note_on_c, 0, 69, 66
2, 180596, Note_on_c, 0, 66, 96
2, 180598, Note_on_c, 0, 63, 88
2, 180616, Control_c, 0, 64, 95
2, 180673, Note_on_c, 0, 72, 60
2, 180680, Note_off_c, 0, 69, 56
2, 180756, Note_off_c, 0, 72, 55
2, 180761, Note_on_c, 0, 69, 60
2, 180843, Note_off_c, 0, 69, 55
2, 180845, Note_on_c, 0, 72, 61
2, 180927, Note_off_c, 0, 72, 55
2, 180930, Note_on_c, 0, 69, 63
2, 181010, Note_off_c, 0, 69, 55
2, 181011, Note_on_c, 0, 72, 64
2, 181093, Note_off_c, 0, 72, 56
2, 181096, Note_on_c, 0, 81, 96
2, 181097, Note_on_c, 0, 69, 66
2, 181161, Control_c, 0, 64, 20
2, 181177, Note_off_c, 0, 69, 57
2, 181180, Note_on_c, 0, 72, 67
2, 181243, Note_off_c, 0, 66, 63
2, 181246, Note_off_c, 0, 72, 57
2, 181247, Note_off_c, 0, 63, 62
2, 181247, Note_on_c, 0, 69, 69
2, 181344, Note_off_c, 0, 81, 63
2, 181345, Note_off_c, 0, 69, 57
2, 181347, Note_on_c, 0, 72, 70
2, 181427, Note_off_c, 0, 72, 57
2, 181430, Note_on_c, 0, 69, 72
2, 181512, Note_off_c, 0, 69, 58
2, 181513, Note_on_c, 0, 72, 72
2, 181593, Note_off_c, 0, 72, 58
2, 181595, Note_on_c, 0, 69, 66
2, 181597, Note_on_c, 0, 66, 96
2, 181600, Note_on_c, 0, 63, 88
2, 181620, Control_c, 0, 64, 95
2, 181678, Note_on_c, 0, 72, 60
2, 181684, Note_off_c, 0, 69, 56
2, 181761, Note_off_c, 0, 72, 55
2, 181764, Note_on_c, 0, 69, 60
2, 181844, Note_off_c, 0, 69, 55
2, 181846, Note_on_c, 0, 72, 59
2, 181945, Note_off_c, 0, 72, 54
2, 181948, Note_on_c, 0, 69, 58
2, 182028, Note_off_c, 0, 69, 54
2, 182030, Note_on_c, 0, 72, 56
2, 182113, Note_off_c, 0, 72, 54
2, 182115, Note_on_c, 0, 69, 55
2, 182116, Note_on_c, 0, 81, 96
2, 182214, Note_off_c, 0, 69, 53
2, 182217, Note_on_c, 0, 72, 54
2, 182236, Control_c, 0, 64, 20
2, 182296, Note_off_c, 0, 66, 63
2, 182298, Note_off_c, 0, 72, 53
2, 182300, Note_off_c, 0, 63, 62
2, 182303, Note_on_c, 0, 69, 52
2, 182395, Note_off_c, 0, 81, 63
2, 182398, Note_off_c, 0, 69, 53
2, 182401, Note_on_c, 0, 72, 51
2, 182481, Note_off_c, 0, 72, 52
2, 182483, Note_on_c, 0, 69, 50
2, 182580, Note_off_c, 0, 69, 52
2, 182582, Note_on_c, 0, 72, 48
2, 182662, Note_off_c, 0, 72, 52
2, 182665, Note_on_c, 0, 80, 60
2, 182667, Note_on_c, 0, 71, 48
2, 182669, Note_on_c, 0, 52, 36
2, 182670, Note_on_c, 0, 68, 48
2, 182815, Note_off_c, 0, 52, 49
2, 182817, Note_on_c, 0, 64, 36
2, 182948, Note_off_c, 0, 80, 55
2, 182950, Note_off_c, 0, 71, 52
2, 182952, Note_off_c, 0, 64, 49
2, 182954, Note_on_c, 0, 62, 21
2, 182955, Note_off_c, 0, 68, 52
2, 182956, Note_on_c, 0, 59, 21
2, 183081, Note_off_c, 0, 59, 45
2, 183082, Note_off_c, 0, 62, 45
2, 183085, Note_on_c, 0, 64, 22
2, 183213, Note_off_c, 0, 64, 45
2, 183216, Note_on_c, 0, 65, 22
2, 183331, Note_off_c, 0, 65, 45
2, 183333, Note_on_c, 0, 64, 23
2, 183448, Note_off_c, 0, 64, 45
2, 183450, Note_on_c, 0, 59, 24
2, 183451, Note_on_c, 0, 62, 24
2, 183454, Note_on_c, 0, 83, 46
2, 183499, Control_c, 0, 64, 96
2, 183584, Note_off_c, 0, 59, 46
2, 183584, Note_off_c, 0, 62, 46
2, 183587, Note_on_c, 0, 64, 24
2, 183589, Note_on_c, 0, 80, 50
2, 183594, Note_off_c, 0, 83, 51
2, 183664, Note_off_c, 0, 80, 52
2, 183699, Note_off_c, 0, 64, 46
2, 183701, Note_on_c, 0, 76, 54
2, 183704, Note_on_c, 0, 52, 25
2, 183817, Note_off_c, 0, 52, 46
2, 183819, Note_on_c, 0, 64, 26
2, 183821, Note_on_c, 0, 77, 54
2, 183861, Note_off_c, 0, 76, 53
2, 183896, Note_off_c, 0, 77, 53
2, 183947, Note_off_c, 0, 64, 46
2, 183951, Note_on_c, 0, 62, 26
2, 183954, Note_on_c, 0, 77, 60
2, 183956, Note_on_c, 0, 59, 21
2, 183998, Control_c, 0, 64, 20
2, 184068, Note_off_c, 0, 59, 45
2, 184070, Note_off_c, 0, 62, 46
2, 184073, Note_on_c, 0, 64, 35
2, 184074, Note_on_c, 0, 74, 66
2, 184094, Note_off_c, 0, 77, 55
2, 184150, Note_off_c, 0, 74, 56
2, 184181, Note_off_c, 0, 64, 48
2, 184185, Note_on_c, 0, 65, 27
2, 184299, Note_off_c, 0, 65, 46
2, 184302, Note_on_c, 0, 64, 28
2, 184436, Note_off_c, 0, 64, 47
2, 184437, Note_on_c, 0, 62, 29
2, 184440, Note_on_c, 0, 59, 25
2, 184441, Note_on_c, 0, 83, 64
2, 184533, Control_c, 0, 64, 96
2, 184553, Note_off_c, 0, 59, 46
2, 184554, Note_off_c, 0, 62, 47
2, 184557, Note_on_c, 0, 64, 29
2, 184558, Note_on_c, 0, 80, 62
2, 184571, Note_off_c, 0, 83, 56
2, 184650, Note_off_c, 0, 80, 55
2, 184665, Note_off_c, 0, 64, 47
2, 184669, Note_on_c, 0, 76, 60
2, 184671, Note_on_c, 0, 52, 30
2, 184802, Note_off_c, 0, 52, 47
2, 184804, Note_on_c, 0, 77, 58
2, 184806, Note_on_c, 0, 64, 31
2, 184865, Note_off_c, 0, 76, 55
2, 184884, Note_off_c, 0, 77, 54
2, 184918, Note_off_c, 0, 64, 47
2, 184921, Note_on_c, 0, 62, 31
2, 184923, Note_on_c, 0, 77, 56
2, 184925, Note_on_c, 0, 59, 25
2, 185030, Control_c, 0, 64, 20
2, 185035, Note_off_c, 0, 59, 46
2, 185037, Note_off_c, 0, 62, 47
2, 185040, Note_on_c, 0, 64, 32
2, 185042, Note_on_c, 0, 74, 54
2, 185069, Note_off_c, 0, 77, 54
2, 185138, Note_off_c, 0, 74, 53
2, 185171, Note_off_c, 0, 64, 48
2, 185172, Note_on_c, 0, 65, 31
2, 185286, Note_off_c, 0, 65, 47
2, 185288, Note_on_c, 0, 64, 33
2, 185402, Note_off_c, 0, 64, 48
2, 185404, Note_on_c, 0, 83, 63
2, 185407, Note_on_c, 0, 59, 25
2, 185409, Note_on_c, 0, 62, 32
2, 185538, Control_c, 0, 64, 96
2, 185540, Note_off_c, 0, 62, 48
2, 185542, Note_off_c, 0, 59, 46
2, 185543, Note_on_c, 0, 80, 63
2, 185543, Note_on_c, 0, 64, 31
2, 185554, Note_off_c, 0, 83, 55
2, 185621, Note_off_c, 0, 80, 55
2, 185653, Note_off_c, 0, 64, 47
2, 185657, Note_on_c, 0, 76, 61
2, 185658, Note_on_c, 0, 52, 29
2, 185770, Note_off_c, 0, 52, 47
2, 185774, Note_on_c, 0, 64, 28
2, 185775, Note_on_c, 0, 77, 59
2, 185829, Note_off_c, 0, 76, 55
2, 185870, Note_off_c, 0, 77, 54
2, 185904, Note_off_c, 0, 64, 47
2, 185906, Note_on_c, 0, 77, 57
2, 185908, Note_on_c, 0, 62, 35
2, 185909, Note_on_c, 0, 59, 27
2, 186021, Note_off_c, 0, 62, 48
2, 186022, Note_off_c, 0, 59, 46
2, 186025, Note_on_c, 0, 74, 55
2, 186027, Note_on_c, 0, 64, 25
2, 186035, Control_c, 0, 64, 20
2, 186044, Note_off_c, 0, 77, 54
2, 186097, Note_off_c, 0, 74, 53
2, 186137, Note_off_c, 0, 64, 46
2, 186140, Note_on_c, 0, 74, 53
2, 186142, Note_on_c, 0, 52, 24
2, 186180, Control_c, 0, 64, 96
2, 186276, Note_off_c, 0, 52, 46
2, 186276, Note_on_c, 0, 64, 30
2, 186277, Note_on_c, 0, 72, 51
2, 186304, Note_off_c, 0, 74, 53
2, 186356, Note_off_c, 0, 72, 52
2, 186403, Note_off_c, 0, 64, 47
2, 186406, Note_on_c, 0, 59, 21
2, 186408, Note_on_c, 0, 72, 51
2, 186410, Note_on_c, 0, 56, 15
2, 186523, Note_off_c, 0, 56, 44
2, 186525, Note_off_c, 0, 59, 45
2, 186527, Note_on_c, 0, 64, 21
2, 186529, Note_on_c, 0, 71, 51
2, 186544, Note_off_c, 0, 72, 52
2, 186622, Note_off_c, 0, 71, 52
2, 186654, Note_off_c, 0, 64, 45
2, 186658, Note_on_c, 0, 52, 21
2, 186659, Note_on_c, 0, 71, 55
2, 186766, Control_c, 0, 64, 20
2, 186792, Note_off_c, 0, 52, 45
2, 186793, Note_on_c, 0, 72, 59
2, 186794, Note_on_c, 0, 64, 27
2, 186822, Note_off_c, 0, 71, 53
2, 186888, Note_off_c, 0, 72, 54
2, 186923, Note_off_c, 0, 64, 46
2, 186924, Note_on_c, 0, 69, 63
2, 186927, Note_on_c, 0, 57, 25
2, 186929, Note_on_c, 0, 60, 33
2, 187040, Note_off_c, 0, 57, 46
2, 187042, Note_off_c, 0, 60, 48
2, 187044, Note_off_c, 0, 69, 55
2, 187046, Note_on_c, 0, 64, 33
2, 187175, Note_off_c, 0, 64, 48
2, 187177, Note_on_c, 0, 65, 32
2, 187291, Note_off_c, 0, 65, 48
2, 187294, Note_on_c, 0, 64, 30
2, 187417, Control_c, 0, 64, 96
2, 187425, Note_off_c, 0, 64, 47
2, 187427, Note_on_c, 0, 84, 57
2, 187429, Note_on_c, 0, 57, 23
2, 187429, Note_on_c, 0, 60, 28
2, 187540, Note_off_c, 0, 60, 47
2, 187544, Note_off_c, 0, 57, 45
2, 187545, Note_on_c, 0, 81, 55
2, 187547, Note_on_c, 0, 64, 27
2, 187570, Note_off_c, 0, 84, 54
2, 187640, Note_off_c, 0, 81, 53
2, 187658, Note_off_c, 0, 64, 46
2, 187661, Note_on_c, 0, 75, 53
2, 187663, Note_on_c, 0, 52, 25
2, 187795, Note_off_c, 0, 52, 46
2, 187795, Note_on_c, 0, 64, 23
2, 187797, Note_on_c, 0, 76, 50
2, 187862, Note_off_c, 0, 75, 53
2, 187875, Note_off_c, 0, 76, 52
2, 187907, Note_off_c, 0, 64, 45
2, 187910, Note_on_c, 0, 60, 25
2, 187912, Note_on_c, 0, 57, 21
2, 187914, Note_on_c, 0, 76, 48
2, 187917, Control_c, 0, 64, 20
2, 188027, Note_off_c, 0, 60, 46
2, 188028, Note_off_c, 0, 57, 45
2, 188031, Note_on_c, 0, 64, 21
2, 188032, Note_on_c, 0, 72, 45
2, 188076, Note_off_c, 0, 76, 52
2, 188126, Note_off_c, 0, 72, 51
2, 188157, Note_off_c, 0, 64, 45
2, 188161, Note_on_c, 0, 65, 24
2, 188274, Note_off_c, 0, 65, 46
2, 188277, Note_on_c, 0, 64, 27
2, 188391, Note_off_c, 0, 64, 46
2, 188396, Note_on_c, 0, 60, 37
2, 188398, Note_on_c, 0, 84, 57
2, 188399, Note_on_c, 0, 57, 30
2, 188432, Control_c, 0, 64, 96
2, 188511, Note_off_c, 0, 57, 47
2, 188514, Note_off_c, 0, 60, 49
2, 188517, Note_on_c, 0, 64, 33
2, 188518, Note_on_c, 0, 81, 57
2, 188557, Note_off_c, 0, 84, 54
2, 188611, Note_off_c, 0, 81, 54
2, 188641, Note_off_c, 0, 64, 48
2, 188646, Note_on_c, 0, 52, 33
2, 188647, Note_on_c, 0, 75, 54
2, 188763, Note_off_c, 0, 52, 48
2, 188765, Note_on_c, 0, 76, 51
2, 188767, Note_on_c, 0, 64, 29
2, 188810, Note_off_c, 0, 75, 53
2, 188840, Note_off_c, 0, 76, 52
2, 188877, Note_off_c, 0, 64, 47
2, 188879, Note_on_c, 0, 60, 35
2, 188881, Note_on_c, 0, 76, 48
2, 188883, Note_on_c, 0, 57, 25
2, 188928, Control_c, 0, 64, 20
2, 189012, Note_off_c, 0, 57, 46
2, 189014, Note_off_c, 0, 60, 48
2, 189017, Note_on_c, 0, 64, 35
2, 189018, Note_on_c, 0, 72, 45
2, 189091, Note_off_c, 0, 76, 52
2, 189094, Note_off_c, 0, 72, 51
2, 189128, Note_off_c, 0, 64, 48
2, 189131, Note_on_c, 0, 65, 21
2, 189246, Note_off_c, 0, 65, 45
2, 189248, Note_on_c, 0, 64, 25
2, 189379, Note_off_c, 0, 64, 46
2, 189381, Note_on_c, 0, 84, 57
2, 189384, Note_on_c, 0, 57, 25
2, 189386, Note_on_c, 0, 60, 29
2, 189454, Control_c, 0, 64, 96
2, 189496, Note_off_c, 0, 60, 47
2, 189499, Note_off_c, 0, 57, 46
2, 189501, Note_on_c, 0, 64, 33
2, 189503, Note_on_c, 0, 81, 57
2, 189535, Note_off_c, 0, 84, 54
2, 189578, Note_off_c, 0, 81, 54
2, 189612, Note_off_c, 0, 64, 48
2, 189615, Note_on_c, 0, 52, 21
2, 189617, Note_on_c, 0, 75, 56
2, 189748, Note_off_c, 0, 52, 45
2, 189749, Note_on_c, 0, 64, 21
2, 189750, Note_on_c, 0, 76, 54
2, 189796, Note_off_c, 0, 75, 54
2, 189830, Note_off_c, 0, 76, 53
2, 189862, Note_off_c, 0, 64, 45
2, 189866, Note_on_c, 0, 76, 53
2, 189868, Note_on_c, 0, 57, 22
2, 189868, Note_on_c, 0, 60, 30
2, 189951, Control_c, 0, 64, 20
2, 189997, Note_off_c, 0, 60, 47
2, 190000, Note_off_c, 0, 57, 45
2, 190002, Note_on_c, 0, 72, 51
2, 190003, Note_on_c, 0, 64, 24
2, 190073, Note_off_c, 0, 76, 53
2, 190079, Note_off_c, 0, 72, 52
2, 190098, Control_c, 0, 64, 96
2, 190114, Note_off_c, 0, 64, 46
2, 190117, Note_on_c, 0, 72, 50
2, 190118, Note_on_c, 0, 52, 25
2, 190247, Note_off_c, 0, 52, 46
2, 190250, Note_on_c, 0, 71, 48
2, 190251, Note_on_c, 0, 64, 27
2, 190310, Note_off_c, 0, 72, 52
2, 190327, Note_off_c, 0, 71, 52
2, 190364, Note_off_c, 0, 64, 46
2, 190366, Note_on_c, 0, 71, 47
2, 190368, Note_on_c, 0, 57, 21
2, 190371, Note_on_c, 0, 60, 28
2, 190500, Note_off_c, 0, 57, 45
2, 190501, Note_off_c, 0, 60, 47
2, 190504, Note_on_c, 0, 64, 30
2, 190506, Note_on_c, 0, 69, 45
2, 190560, Note_off_c, 0, 71, 51
2, 190598, Note_off_c, 0, 69, 51
2, 190630, Note_off_c, 0, 64, 47
2, 190633, Note_on_c, 0, 52, 31
2, 190635, Note_on_c, 0, 69, 45
2, 190682, Control_c, 0, 64, 20
2, 190767, Note_off_c, 0, 52, 47
2, 190768, Note_on_c, 0, 68, 51
2, 190770, Note_on_c, 0, 64, 33
2, 190832, Note_off_c, 0, 69, 51
2, 190848, Note_off_c, 0, 68, 52
2, 190880, Note_off_c, 0, 64, 48
2, 190883, Note_on_c, 0, 62, 33
2, 190885, Note_on_c, 0, 71, 57
2, 190887, Note_on_c, 0, 59, 25
2, 191017, Note_off_c, 0, 59, 46
2, 191018, Note_off_c, 0, 62, 48
2, 191021, Note_off_c, 0, 71, 54
2, 191022, Note_on_c, 0, 64, 29
2, 191150, Note_off_c, 0, 64, 47
2, 191151, Note_on_c, 0, 65, 25
2, 191266, Note_off_c, 0, 65, 46
2, 191269, Note_on_c, 0, 64, 21
2, 191402, Note_off_c, 0, 64, 45
2, 191404, Note_on_c, 0, 89, 48
2, 191404, Note_on_c, 0, 59, 25
2, 191405, Note_on_c, 0, 62, 32
2, 191433, Control_c, 0, 64, 100
2, 191517, Note_off_c, 0, 62, 48
2, 191520, Note_off_c, 0, 59, 46
2, 191521, Note_on_c, 0, 64, 37
2, 191522, Note_on_c, 0, 86, 50
2, 191559, Note_off_c, 0, 89, 52
2, 191600, Note_off_c, 0, 86, 52
2, 191634, Note_off_c, 0, 64, 49
2, 191638, Note_on_c, 0, 85, 53
2, 191639, Note_on_c, 0, 52, 29
2, 191767, Note_off_c, 0, 52, 47
2, 191770, Note_on_c, 0, 64, 32
2, 191772, Note_on_c, 0, 86, 56
2, 191810, Note_off_c, 0, 85, 53
2, 191852, Note_off_c, 0, 86, 54
2, 191884, Note_off_c, 0, 64, 48
2, 191886, Note_on_c, 0, 83, 60
2, 191889, Note_on_c, 0, 62, 43
2, 191890, Note_on_c, 0, 59, 36
2, 191969, Control_c, 0, 64, 20
2, 192001, Note_off_c, 0, 62, 50
2, 192003, Note_off_c, 0, 83, 55
2, 192005, Note_off_c, 0, 59, 49
2, 192006, Note_on_c, 0, 64, 39
2, 192118, Note_off_c, 0, 64, 49
2, 192120, Note_on_c, 0, 65, 42
2, 192251, Note_off_c, 0, 65, 50
2, 192254, Note_on_c, 0, 64, 46
2, 192368, Note_off_c, 0, 64, 51
2, 192371, Note_on_c, 0, 89, 68
2, 192373, Note_on_c, 0, 59, 45
2, 192375, Note_on_c, 0, 62, 50
2, 192378, Control_c, 0, 64, 100
2, 192488, Note_off_c, 0, 59, 51
2, 192489, Note_off_c, 0, 62, 52
2, 192492, Note_on_c, 0, 64, 54
2, 192493, Note_on_c, 0, 86, 73
2, 192529, Note_off_c, 0, 89, 57
2, 192586, Note_off_c, 0, 86, 58
2, 192618, Note_off_c, 0, 64, 53
2, 192621, Note_on_c, 0, 85, 77
2, 192622, Note_on_c, 0, 52, 59
2, 192737, Note_off_c, 0, 52, 54
2, 192740, Note_on_c, 0, 86, 82
2, 192742, Note_on_c, 0, 64, 63
2, 192791, Note_off_c, 0, 85, 59
2, 192820, Note_off_c, 0, 86, 60
2, 192852, Note_off_c, 0, 64, 55
2, 192855, Note_on_c, 0, 62, 67
2, 192856, Note_on_c, 0, 83, 86
2, 192858, Note_on_c, 0, 59, 67
2, 192924, Control_c, 0, 64, 20
2, 192987, Note_off_c, 0, 83, 61
2, 192989, Note_off_c, 0, 59, 57
2, 192990, Note_off_c, 0, 62, 57
2, 192992, Note_on_c, 0, 64, 61
2, 193102, Note_off_c, 0, 64, 55
2, 193106, Note_on_c, 0, 65, 63
2, 193220, Note_off_c, 0, 65, 55
2, 193222, Note_on_c, 0, 64, 65
2, 193356, Note_off_c, 0, 64, 56
2, 193359, Note_on_c, 0, 89, 81
2, 193361, Note_on_c, 0, 62, 67
2, 193362, Note_on_c, 0, 59, 67
2, 193473, Note_off_c, 0, 59, 57
2, 193475, Note_off_c, 0, 62, 57
2, 193478, Note_on_c, 0, 64, 69
2, 193479, Note_on_c, 0, 86, 82
2, 193484, Note_off_c, 0, 89, 60
2, 193555, Note_off_c, 0, 86, 60
2, 193589, Note_off_c, 0, 64, 57
2, 193592, Note_on_c, 0, 83, 84
2, 193594, Note_on_c, 0, 62, 72
2, 193595, Note_on_c, 0, 52, 55
2, 193596, Note_on_c, 0, 59, 60
2, 193706, Note_off_c, 0, 59, 55
2, 193708, Note_off_c, 0, 62, 57
2, 193711, Note_off_c, 0, 52, 53
2, 193713, Note_on_c, 0, 86, 84
2, 193767, Note_off_c, 0, 83, 61
2, 193805, Note_off_c, 0, 86, 61
2, 193840, Note_on_c, 0, 80, 84
2, 193956, Note_on_c, 0, 83, 83
2, 194026, Note_off_c, 0, 80, 61
2, 194056, Note_off_c, 0, 83, 60
2, 194073, Note_on_c, 0, 77, 82
2, 194206, Note_on_c, 0, 80, 81
2, 194245, Note_off_c, 0, 77, 60
2, 194291, Note_off_c, 0, 80, 60
2, 194325, Note_on_c, 0, 74, 80
2, 194440, Note_on_c, 0, 77, 79
2, 194487, Note_off_c, 0, 74, 60
2, 194542, Note_off_c, 0, 77, 60
2, 194575, Note_on_c, 0, 71, 78
2, 194692, Note_on_c, 0, 74, 78
2, 194753, Note_off_c, 0, 71, 59
2, 194775, Note_off_c, 0, 74, 59
2, 194809, Note_on_c, 0, 68, 77
2, 194925, Note_on_c, 0, 71, 76
2, 195014, Note_off_c, 0, 68, 59
2, 195025, Note_off_c, 0, 71, 59
2, 195042, Note_on_c, 0, 65, 75
2, 195175, Note_on_c, 0, 68, 74
2, 195232, Note_off_c, 0, 65, 59
2, 195259, Note_off_c, 0, 68, 59
2, 195292, Note_on_c, 0, 62, 73
2, 195409, Note_on_c, 0, 65, 72
2, 195471, Note_off_c, 0, 62, 58
2, 195492, Note_off_c, 0, 65, 58
2, 195526, Note_on_c, 0, 59, 72
2, 195642, Note_on_c, 0, 62, 74
2, 195708, Note_off_c, 0, 59, 58
2, 195727, Note_off_c, 0, 62, 59
2, 195760, Control_c, 0, 64, 96
2, 195761, Note_on_c, 0, 56, 76
2, 195763, Note_on_c, 0, 44, 72
2, 195875, Note_off_c, 0, 44, 58
2, 195877, Note_off_c, 0, 56, 59
2, 195880, Note_on_c, 0, 47, 73
2, 195882, Note_on_c, 0, 59, 78
2, 195992, Note_off_c, 0, 47, 58
2, 195994, Note_off_c, 0, 59, 59
2, 195997, Note_on_c, 0, 38, 74
2, 195999, Note_on_c, 0, 50, 80
2, 196109, Note_off_c, 0, 38, 59
2, 196111, Note_off_c, 0, 50, 60
2, 196113, Note_on_c, 0, 47, 75
2, 196115, Note_on_c, 0, 59, 82
2, 196226, Note_off_c, 0, 47, 59
2, 196227, Note_off_c, 0, 59, 60
2, 196230, Note_on_c, 0, 44, 76
2, 196232, Note_on_c, 0, 56, 84
2, 196343, Note_off_c, 0, 44, 59
2, 196344, Note_off_c, 0, 56, 61
2, 196347, Note_on_c, 0, 38, 78
2, 196349, Note_on_c, 0, 50, 86
2, 196428, Note_off_c, 0, 38, 59
2, 196430, Note_off_c, 0, 50, 61
2, 196446, Control_c, 0, 64, 20
2, 196448, Note_on_c, 0, 48, 88
2, 196449, Note_on_c, 0, 36, 79
2, 196578, Note_off_c, 0, 36, 60
2, 196581, Note_off_c, 0, 48, 62
2, 196693, Note_on_c, 0, 48, 86
2, 196696, Note_on_c, 0, 45, 85
2, 196697, Note_on_c, 0, 57, 98
2, 196700, Note_on_c, 0, 40, 66
2, 196702, Note_on_c, 0, 52, 78
2, 196704, Note_on_c, 0, 36, 81
2, 196789, Note_off_c, 0, 57, 64
2, 196791, Note_off_c, 0, 48, 61
2, 196798, Note_off_c, 0, 36, 60
2, 196801, Note_off_c, 0, 45, 61
2, 196802, Note_off_c, 0, 40, 56
2, 196804, Note_off_c, 0, 52, 59
2, 196943, Note_on_c, 0, 46, 82
2, 196945, Note_on_c, 0, 41, 76
2, 196947, Note_on_c, 0, 53, 82
2, 196948, Note_on_c, 0, 38, 86
2, 196952, Note_on_c, 0, 58, 102
2, 196954, Note_on_c, 0, 50, 90
2, 196959, Control_c, 0, 64, 96
2, 197773, Note_off_c, 0, 58, 65
2, 197776, Note_off_c, 0, 46, 60
2, 197931, Note_on_c, 0, 45, 78
2, 197933, Note_on_c, 0, 57, 90
2, 198036, Note_off_c, 0, 38, 61
2, 198113, Note_off_c, 0, 45, 59
2, 198115, Note_off_c, 0, 50, 62
2, 198117, Note_off_c, 0, 57, 62
2, 198179, Note_on_c, 0, 56, 92
2, 198184, Note_off_c, 0, 53, 60
2, 198189, Note_on_c, 0, 44, 80
2, 198219, Note_off_c, 0, 41, 59
2, 198365, Note_off_c, 0, 56, 62
2, 198386, Note_off_c, 0, 44, 60
2, 198436, Note_on_c, 0, 57, 84
2, 198437, Note_on_c, 0, 40, 66
2, 198439, Note_on_c, 0, 36, 61
2, 198441, Note_on_c, 0, 52, 64
2, 198444, Note_on_c, 0, 48, 72
2, 198446, Note_on_c, 0, 45, 74
2, 198458, Control_c, 0, 64, 20
2, 198583, Note_off_c, 0, 57, 61
2, 198584, Note_off_c, 0, 52, 56
2, 198586, Note_off_c, 0, 45, 59
2, 198589, Note_off_c, 0, 40, 56
2, 198603, Note_off_c, 0, 36, 55
2, 198611, Note_off_c, 0, 48, 58
2, 198697, Note_on_c, 0, 64, 58
2, 198699, Note_on_c, 0, 52, 61
2, 198701, Note_on_c, 0, 60, 66
2, 198703, Note_on_c, 0, 57, 76
2, 198706, Note_on_c, 0, 69, 78
2, 198708, Note_on_c, 0, 48, 66
2, 198764, Note_off_c, 0, 64, 54
2, 198769, Note_off_c, 0, 52, 55
2, 198776, Note_off_c, 0, 57, 59
2, 198778, Note_off_c, 0, 48, 56
2, 198785, Note_off_c, 0, 69, 59
2, 198787, Note_off_c, 0, 60, 56
2, 198927, Control_c, 0, 64, 96
2, 198931, Note_on_c, 0, 50, 86
2, 198933, Note_on_c, 0, 58, 92
2, 198934, Note_on_c, 0, 65, 82
2, 198936, Note_on_c, 0, 70, 102
2, 198939, Note_on_c, 0, 62, 90
2, 198942, Note_on_c, 0, 53, 80
2, 199719, Note_off_c, 0, 70, 65
2, 199770, Note_off_c, 0, 58, 62
2, 199940, Note_on_c, 0, 57, 78
2, 199941, Note_on_c, 0, 69, 90
2, 200035, Note_off_c, 0, 62, 62
2, 200071, Note_off_c, 0, 53, 60
2, 200124, Note_off_c, 0, 65, 60
2, 200143, Note_off_c, 0, 69, 62
2, 200144, Note_off_c, 0, 57, 59
2, 200190, Note_on_c, 0, 56, 76
2, 200191, Note_on_c, 0, 68, 88
2, 200246, Note_off_c, 0, 50, 61
2, 200380, Note_off_c, 0, 68, 62
2, 200383, Note_off_c, 0, 56, 59
2, 200446, Note_on_c, 0, 52, 61
2, 200448, Note_on_c, 0, 57, 71
2, 200451, Note_on_c, 0, 60, 66
2, 200452, Note_on_c, 0, 64, 58
2, 200453, Note_on_c, 0, 48, 66
2, 200454, Control_c, 0, 64, 20
2, 200455, Note_on_c, 0, 69, 78
2, 200593, Note_off_c, 0, 60, 56
2, 200597, Note_off_c, 0, 57, 58
2, 200600, Note_off_c, 0, 48, 56
2, 200606, Note_off_c, 0, 64, 54
2, 200614, Note_off_c, 0, 52, 55
2, 200616, Note_off_c, 0, 69, 59
2, 200707, Note_on_c, 0, 64, 70
2, 200709, Note_on_c, 0, 69, 76
2, 200710, Note_on_c, 0, 60, 78
2, 200711, Note_on_c, 0, 81, 90
2, 200793, Note_off_c, 0, 69, 59
2, 200796, Note_off_c, 0, 64, 57
2, 200798, Note_off_c, 0, 81, 62
2, 200806, Note_off_c, 0, 60, 59
2, 200941, Note_on_c, 0, 62, 78
2, 200943, Note_on_c, 0, 70, 86
2, 200944, Note_on_c, 0, 65, 90
2, 200945, Note_on_c, 0, 82, 102
2, 200953, Control_c, 0, 64, 96
2, 201519, Note_off_c, 0, 62, 59
2, 201524, Note_off_c, 0, 65, 62
2, 201576, Note_off_c, 0, 70, 61
2, 201581, Note_off_c, 0, 82, 65
2, 201656, Control_c, 0, 64, 20
2, 201679, Note_on_c, 0, 63, 61
2, 201681, Note_on_c, 0, 66, 69
2, 201683, Note_on_c, 0, 71, 66
2, 201684, Note_on_c, 0, 83, 78
2, 201765, Note_off_c, 0, 63, 55
2, 201766, Note_off_c, 0, 71, 56
2, 201775, Note_off_c, 0, 66, 57
2, 201779, Note_off_c, 0, 83, 59
2, 201919, Control_c, 0, 64, 96
2, 201927, Note_on_c, 0, 64, 82
2, 201929, Note_on_c, 0, 72, 86
2, 201931, Note_on_c, 0, 69, 90
2, 201931, Note_on_c, 0, 84, 102
2, 202467, Note_off_c, 0, 69, 62
2, 202485, Note_off_c, 0, 72, 61
2, 202497, Note_off_c, 0, 84, 65
2, 202506, Note_off_c, 0, 64, 60
2, 202660, Control_c, 0, 64, 20
2, 202662, Note_on_c, 0, 64, 65
2, 202663, Note_on_c, 0, 73, 70
2, 202666, Note_on_c, 0, 69, 72
2, 202667, Note_on_c, 0, 85, 84
2, 202825, Control_c, 0, 64, 95
2, 202844, Note_off_c, 0, 73, 57
2, 202846, Note_off_c, 0, 85, 61
2, 202860, Note_off_c, 0, 64, 56
2, 202914, Note_on_c, 0, 74, 70
2, 202916, Note_on_c, 0, 65, 63
2, 202918, Note_on_c, 0, 86, 75
2, 203096, Note_off_c, 0, 74, 57
2, 203108, Note_off_c, 0, 86, 59
2, 203113, Note_off_c, 0, 65, 55
2, 203164, Note_on_c, 0, 76, 60
2, 203166, Note_on_c, 0, 61, 54
2, 203168, Note_on_c, 0, 88, 66
2, 203346, Note_off_c, 0, 76, 55
2, 203363, Note_off_c, 0, 61, 53
2, 203380, Note_off_c, 0, 88, 56
2, 203416, Note_on_c, 0, 77, 50
2, 203418, Note_on_c, 0, 62, 45
2, 203419, Note_on_c, 0, 89, 57
2, 203445, Note_off_c, 0, 69, 58
2, 203568, Note_off_c, 0, 62, 51
2, 203573, Note_off_c, 0, 77, 52
2, 203582, Note_off_c, 0, 89, 54
2, 203673, Control_c, 0, 64, 20
2, 203683, Note_on_c, 0, 50, 35
2, 203685, Note_on_c, 0, 58, 40
2, 203686, Note_on_c, 0, 77, 48
2, 203686, Note_on_c, 0, 62, 36
2, 203687, Note_on_c, 0, 65, 30
2, 203848, Note_off_c, 0, 62, 49
2, 203868, Control_c, 0, 64, 95
2, 203882, Note_off_c, 0, 58, 50
2, 203883, Note_off_c, 0, 50, 48
2, 203919, Note_on_c, 0, 52, 24
2, 203920, Note_on_c, 0, 57, 30
2, 203921, Note_on_c, 0, 60, 36
2, 204077, Note_off_c, 0, 65, 47
2, 204088, Note_off_c, 0, 77, 52
2, 204104, Note_off_c, 0, 60, 49
2, 204137, Note_off_c, 0, 57, 47
2, 204169, Note_on_c, 0, 56, 40
2, 204169, Note_on_c, 0, 64, 47
2, 204170, Note_on_c, 0, 59, 44
2, 204171, Note_on_c, 0, 76, 51
2, 204211, Control_c, 0, 64, 90
2, 204355, Note_off_c, 0, 52, 46
2, 204362, Note_off_c, 0, 56, 50
2, 204371, Note_off_c, 0, 76, 52
2, 204373, Note_off_c, 0, 59, 51
2, 204375, Note_off_c, 0, 64, 51
2, 204386, Control_c, 0, 64, 0
2, 204437, Note_on_c, 0, 45, 48
2, 204439, Note_on_c, 0, 57, 52
2, 204441, Note_on_c, 0, 69, 54
2, 204582, Note_off_c, 0, 45, 52
2, 204595, Note_off_c, 0, 57, 53
2, 204607, Note_off_c, 0, 69, 53
2, 204696, Note_on_c, 0, 33, 60
2, 204813, Note_off_c, 0, 33, 55
2, 204930, Note_on_c, 0, 34, 78
2, 205182, Note_on_c, 0, 61, 60
2, 205184, Note_on_c, 0, 64, 65
2, 205299, Note_off_c, 0, 61, 55
2, 205300, Note_off_c, 0, 64, 56
2, 205434, Note_on_c, 0, 62, 61
2, 205436, Note_on_c, 0, 65, 68
2, 205547, Note_off_c, 0, 65, 57
2, 205550, Note_off_c, 0, 62, 55
2, 205666, Note_on_c, 0, 65, 72
2, 205667, Note_on_c, 0, 74, 84
2, 205917, Note_on_c, 0, 33, 51
2, 205952, Note_off_c, 0, 34, 59
2, 206149, Note_off_c, 0, 65, 58
2, 206153, Note_off_c, 0, 74, 61
2, 206184, Note_on_c, 0, 65, 40
2, 206186, Note_on_c, 0, 74, 48
2, 206188, Note_off_c, 0, 33, 52
2, 206190, Note_on_c, 0, 32, 54
2, 206301, Note_off_c, 0, 65, 50
2, 206303, Note_off_c, 0, 74, 52
2, 206436, Note_on_c, 0, 64, 40
2, 206438, Note_on_c, 0, 73, 48
2, 206440, Note_on_c, 0, 33, 57
2, 206468, Note_off_c, 0, 32, 53
2, 206568, Note_off_c, 0, 64, 50
2, 206571, Note_off_c, 0, 73, 52
2, 206634, Note_off_c, 0, 33, 54
2, 206702, Note_on_c, 0, 33, 60
2, 206818, Note_off_c, 0, 33, 55
2, 206950, Note_on_c, 0, 34, 84
2, 207188, Note_on_c, 0, 61, 54
2, 207189, Note_on_c, 0, 64, 59
2, 207321, Note_off_c, 0, 61, 53
2, 207323, Note_off_c, 0, 64, 54
2, 207438, Note_on_c, 0, 62, 55
2, 207440, Note_on_c, 0, 65, 63
2, 207571, Note_off_c, 0, 62, 53
2, 207573, Note_off_c, 0, 65, 55
2, 207688, Note_on_c, 0, 74, 67
2, 207690, Note_on_c, 0, 77, 79
2, 207937, Note_on_c, 0, 33, 51
2, 207970, Note_off_c, 0, 34, 61
2, 208119, Note_off_c, 0, 74, 57
2, 208122, Note_off_c, 0, 77, 60
2, 208206, Note_on_c, 0, 74, 43
2, 208208, Note_on_c, 0, 77, 48
2, 208210, Note_on_c, 0, 32, 54
2, 208234, Note_off_c, 0, 33, 52
2, 208339, Note_off_c, 0, 74, 50
2, 208341, Note_off_c, 0, 77, 52
2, 208475, Note_on_c, 0, 73, 45
2, 208477, Note_on_c, 0, 76, 48
2, 208479, Note_on_c, 0, 33, 58
2, 208515, Note_off_c, 0, 32, 53
2, 208588, Note_off_c, 0, 76, 52
2, 208591, Note_off_c, 0, 73, 51
2, 208655, Note_off_c, 0, 33, 54
2, 208724, Note_on_c, 0, 33, 61
2, 208841, Note_off_c, 0, 33, 55
2, 208974, Note_on_c, 0, 34, 77
2, 209224, Note_on_c, 0, 61, 60
2, 209226, Note_on_c, 0, 64, 62
2, 209341, Note_off_c, 0, 61, 55
2, 209343, Note_off_c, 0, 64, 55
2, 209476, Note_on_c, 0, 62, 60
2, 209478, Note_on_c, 0, 65, 67
2, 209593, Note_off_c, 0, 62, 55
2, 209595, Note_off_c, 0, 65, 57
2, 209725, Note_on_c, 0, 74, 72
2, 209725, Note_on_c, 0, 77, 84
2, 209992, Note_on_c, 0, 33, 60
2, 210026, Note_off_c, 0, 34, 59
2, 210244, Note_off_c, 0, 74, 58
2, 210246, Note_off_c, 0, 77, 61
2, 210250, Note_on_c, 0, 86, 80
2, 210251, Note_on_c, 0, 32, 84
2, 210251, Note_on_c, 0, 89, 96
2, 210277, Note_off_c, 0, 33, 55
2, 210427, Note_off_c, 0, 32, 61
2, 210494, Note_on_c, 0, 31, 42
2, 210612, Note_off_c, 0, 31, 50
2, 210614, Note_on_c, 0, 30, 42
2, 210728, Note_off_c, 0, 30, 50
2, 210730, Note_off_c, 0, 86, 60
2, 210732, Note_off_c, 0, 89, 63
2, 210735, Note_on_c, 0, 31, 43
2, 210861, Note_off_c, 0, 31, 50
2, 210864, Note_on_c, 0, 33, 44
2, 210978, Note_off_c, 0, 33, 51
2, 210980, Note_on_c, 0, 35, 45
2, 211095, Note_off_c, 0, 35, 51
2, 211098, Note_on_c, 0, 31, 46
2, 211231, Note_off_c, 0, 31, 51
2, 211231, Note_on_c, 0, 74, 50
2, 211232, Note_on_c, 0, 77, 60
2, 211234, Note_on_c, 0, 33, 47
2, 211345, Note_off_c, 0, 33, 51
2, 211347, Note_on_c, 0, 35, 48
2, 211464, Note_off_c, 0, 35, 52
2, 211465, Note_on_c, 0, 72, 48
2, 211468, Note_on_c, 0, 76, 60
2, 211470, Note_on_c, 0, 36, 49
2, 211494, Note_off_c, 0, 77, 55
2, 211512, Note_off_c, 0, 74, 52
2, 211550, Note_off_c, 0, 72, 52
2, 211559, Note_off_c, 0, 76, 55
2, 211580, Note_off_c, 0, 36, 52
2, 211582, Note_on_c, 0, 35, 50
2, 211713, Note_off_c, 0, 35, 52
2, 211715, Note_on_c, 0, 36, 51
2, 211830, Note_off_c, 0, 36, 52
2, 211832, Note_on_c, 0, 38, 52
2, 211947, Note_off_c, 0, 38, 53
2, 211949, Note_on_c, 0, 40, 53
2, 212080, Note_off_c, 0, 40, 53
2, 212083, Note_on_c, 0, 39, 54
2, 212197, Note_off_c, 0, 39, 53
2, 212199, Note_on_c, 0, 84, 64
2, 212201, Note_on_c, 0, 88, 72
2, 212203, Note_on_c, 0, 40, 54
2, 212314, Note_off_c, 0, 40, 53
2, 212316, Note_on_c, 0, 39, 54
2, 212450, Note_off_c, 0, 39, 53
2, 212452, Note_on_c, 0, 83, 54
2, 212453, Note_on_c, 0, 86, 60
2, 212456, Note_on_c, 0, 40, 53
2, 212482, Note_off_c, 0, 88, 58
2, 212513, Note_off_c, 0, 84, 56
2, 212536, Note_off_c, 0, 83, 53
2, 212538, Note_off_c, 0, 86, 55
2, 212564, Note_off_c, 0, 40, 53
2, 212566, Note_on_c, 0, 39, 52
2, 212680, Note_off_c, 0, 39, 53
2, 212683, Note_on_c, 0, 40, 51
2, 212816, Note_off_c, 0, 40, 52
2, 212818, Note_on_c, 0, 42, 51
2, 212930, Note_off_c, 0, 42, 52
2, 212935, Note_on_c, 0, 44, 50
2, 213049, Note_off_c, 0, 44, 52
2, 213052, Note_on_c, 0, 40, 49
2, 213166, Note_off_c, 0, 40, 52
2, 213169, Note_on_c, 0, 71, 62
2, 213171, Note_on_c, 0, 74, 68
2, 213173, Note_on_c, 0, 42, 48
2, 213300, Note_off_c, 0, 42, 52
2, 213302, Note_on_c, 0, 44, 48
2, 213417, Note_off_c, 0, 44, 52
2, 213421, Note_on_c, 0, 69, 52
2, 213423, Note_on_c, 0, 72, 56
2, 213424, Note_on_c, 0, 45, 47
2, 213468, Note_off_c, 0, 74, 57
2, 213481, Note_off_c, 0, 71, 55
2, 213505, Note_off_c, 0, 69, 53
2, 213518, Note_off_c, 0, 72, 54
2, 213534, Note_off_c, 0, 45, 51
2, 213538, Note_on_c, 0, 44, 46
2, 213669, Note_off_c, 0, 44, 51
2, 213671, Note_on_c, 0, 45, 45
2, 213785, Note_off_c, 0, 45, 51
2, 213788, Note_on_c, 0, 47, 45
2, 213902, Note_off_c, 0, 47, 51
2, 213904, Note_on_c, 0, 48, 44
2, 214036, Note_off_c, 0, 48, 51
2, 214038, Note_on_c, 0, 45, 43
2, 214152, Note_off_c, 0, 45, 50
2, 214154, Note_on_c, 0, 84, 67
2, 214155, Note_on_c, 0, 81, 62
2, 214158, Note_on_c, 0, 47, 46
2, 214269, Note_off_c, 0, 47, 51
2, 214272, Note_on_c, 0, 48, 42
2, 214368, Note_off_c, 0, 81, 55
2, 214385, Note_off_c, 0, 48, 50
2, 214388, Note_on_c, 0, 83, 67
2, 214389, Note_on_c, 0, 50, 42
2, 214422, Note_off_c, 0, 84, 57
2, 214483, Note_off_c, 0, 83, 57
2, 214520, Note_off_c, 0, 50, 50
2, 214522, Note_on_c, 0, 49, 42
2, 214637, Note_off_c, 0, 49, 50
2, 214639, Note_on_c, 0, 50, 43
2, 214754, Note_off_c, 0, 50, 50
2, 214756, Note_on_c, 0, 52, 44
2, 214887, Note_off_c, 0, 52, 51
2, 214889, Note_on_c, 0, 53, 45
2, 215004, Note_off_c, 0, 53, 51
2, 215006, Note_on_c, 0, 50, 45
2, 215120, Note_off_c, 0, 50, 51
2, 215123, Note_on_c, 0, 69, 68
2, 215125, Note_on_c, 0, 71, 75
2, 215127, Note_on_c, 0, 52, 46
2, 215254, Note_off_c, 0, 52, 51
2, 215256, Note_on_c, 0, 53, 47
2, 215366, Note_off_c, 0, 71, 59
2, 215372, Note_off_c, 0, 53, 51
2, 215375, Note_on_c, 0, 68, 78
2, 215377, Note_on_c, 0, 52, 48
2, 215406, Note_off_c, 0, 69, 57
2, 215470, Note_off_c, 0, 68, 59
2, 215488, Note_off_c, 0, 52, 52
2, 215490, Note_on_c, 0, 63, 42
2, 215623, Note_off_c, 0, 63, 50
2, 215625, Note_on_c, 0, 64, 43
2, 215737, Note_off_c, 0, 64, 50
2, 215741, Note_on_c, 0, 63, 44
2, 215854, Note_off_c, 0, 63, 51
2, 215857, Note_on_c, 0, 64, 45
2, 215971, Note_off_c, 0, 64, 51
2, 215975, Note_on_c, 0, 63, 45
2, 216106, Note_off_c, 0, 63, 51
2, 216107, Note_on_c, 0, 80, 72
2, 216108, Note_on_c, 0, 71, 60
2, 216111, Note_on_c, 0, 64, 46
2, 216214, Note_on_c, 0, 52, 47
2, 216221, Note_off_c, 0, 64, 51
2, 216316, Note_off_c, 0, 52, 51
2, 216328, Note_off_c, 0, 71, 55
2, 216340, Note_on_c, 0, 81, 48
2, 216342, Note_on_c, 0, 60, 41
2, 216343, Note_on_c, 0, 64, 48
2, 216344, Note_on_c, 0, 52, 48
2, 216371, Note_off_c, 0, 80, 58
2, 216400, Control_c, 0, 64, 90
2, 216475, Note_off_c, 0, 81, 52
2, 216478, Note_on_c, 0, 76, 49
2, 216592, Note_off_c, 0, 76, 52
2, 216594, Note_on_c, 0, 72, 48
2, 216709, Note_off_c, 0, 72, 52
2, 216711, Note_on_c, 0, 84, 49
2, 216842, Note_off_c, 0, 84, 52
2, 216844, Note_off_c, 0, 64, 52
2, 216847, Note_off_c, 0, 60, 50
2, 216847, Note_on_c, 0, 83, 50
2, 216848, Note_on_c, 0, 59, 55
2, 216849, Note_on_c, 0, 62, 60
2, 216858, Control_c, 0, 64, 20
2, 216958, Note_off_c, 0, 83, 52
2, 216961, Note_on_c, 0, 80, 51
2, 217024, Control_c, 0, 64, 90
2, 217095, Note_off_c, 0, 80, 52
2, 217095, Note_on_c, 0, 76, 52
2, 217208, Note_off_c, 0, 76, 53
2, 217210, Note_on_c, 0, 86, 52
2, 217344, Note_off_c, 0, 86, 53
2, 217346, Note_off_c, 0, 59, 53
2, 217348, Note_off_c, 0, 62, 55
2, 217349, Note_on_c, 0, 84, 53
2, 217350, Note_on_c, 0, 57, 50
2, 217351, Note_on_c, 0, 60, 54
2, 217356, Control_c, 0, 64, 20
2, 217475, Note_off_c, 0, 84, 53
2, 217477, Note_on_c, 0, 81, 54
2, 217521, Control_c, 0, 64, 94
2, 217591, Note_off_c, 0, 81, 53
2, 217596, Note_on_c, 0, 76, 55
2, 217727, Note_off_c, 0, 76, 53
2, 217729, Note_on_c, 0, 88, 56
2, 217860, Note_off_c, 0, 88, 54
2, 217862, Note_off_c, 0, 57, 52
2, 217865, Note_off_c, 0, 60, 53
2, 217866, Note_on_c, 0, 56, 42
2, 217867, Note_on_c, 0, 59, 48
2, 217868, Note_on_c, 0, 87, 56
2, 217871, Control_c, 0, 64, 20
2, 217978, Note_off_c, 0, 87, 54
2, 217979, Note_on_c, 0, 88, 57
2, 218028, Control_c, 0, 64, 90
2, 218113, Note_off_c, 0, 88, 54
2, 218115, Note_on_c, 0, 87, 58
2, 218247, Note_off_c, 0, 87, 54
2, 218248, Note_off_c, 0, 56, 50
2, 218250, Note_off_c, 0, 59, 52
2, 218250, Note_on_c, 0, 88, 59
2, 218362, Note_off_c, 0, 88, 54
2, 218364, Note_off_c, 0, 52, 52
2, 218397, Control_c, 0, 64, 20
2, 218404, Note_on_c, 0, 88, 60
2, 218406, Note_on_c, 0, 57, 48
2, 218411, Note_on_c, 0, 76, 55
2, 218416, Note_on_c, 0, 84, 40
2, 218521, Note_off_c, 0, 57, 52
2, 218523, Note_on_c, 0, 52, 46
2, 218563, Control_c, 0, 64, 90
2, 218654, Note_off_c, 0, 52, 51
2, 218657, Note_on_c, 0, 48, 44
2, 218771, Note_off_c, 0, 48, 51
2, 218773, Note_on_c, 0, 57, 42
2, 218815, Note_off_c, 0, 76, 53
2, 218843, Note_off_c, 0, 84, 50
2, 218888, Note_off_c, 0, 88, 55
2, 218890, Note_off_c, 0, 57, 50
2, 218892, Note_on_c, 0, 86, 48
2, 218895, Note_on_c, 0, 59, 40
2, 218899, Note_on_c, 0, 74, 40
2, 218904, Note_on_c, 0, 83, 36
2, 218925, Control_c, 0, 64, 20
2, 219021, Note_off_c, 0, 59, 50
2, 219023, Note_on_c, 0, 56, 38
2, 219079, Control_c, 0, 64, 90
2, 219138, Note_off_c, 0, 56, 49
2, 219140, Note_on_c, 0, 52, 36
2, 219272, Note_off_c, 0, 52, 49
2, 219275, Note_on_c, 0, 59, 36
2, 219304, Note_off_c, 0, 83, 49
2, 219359, Note_off_c, 0, 74, 50
2, 219389, Note_off_c, 0, 86, 52
2, 219391, Note_off_c, 0, 59, 49
2, 219394, Note_on_c, 0, 84, 60
2, 219396, Note_on_c, 0, 60, 48
2, 219401, Note_on_c, 0, 81, 45
2, 219405, Note_on_c, 0, 72, 50
2, 219411, Control_c, 0, 64, 20
2, 219522, Note_off_c, 0, 60, 52
2, 219525, Note_on_c, 0, 57, 48
2, 219577, Control_c, 0, 64, 90
2, 219639, Note_off_c, 0, 57, 52
2, 219641, Note_on_c, 0, 52, 46
2, 219775, Note_off_c, 0, 52, 51
2, 219777, Note_on_c, 0, 64, 44
2, 219822, Note_off_c, 0, 72, 52
2, 219863, Note_off_c, 0, 81, 51
2, 219908, Note_off_c, 0, 84, 55
2, 219910, Note_off_c, 0, 64, 51
2, 219913, Note_on_c, 0, 83, 48
2, 219915, Note_on_c, 0, 63, 41
2, 219917, Note_on_c, 0, 71, 36
2, 219919, Note_on_c, 0, 80, 40
2, 219927, Control_c, 0, 64, 20
2, 220025, Note_off_c, 0, 63, 50
2, 220027, Note_on_c, 0, 64, 39
2, 220083, Control_c, 0, 64, 90
2, 220158, Note_off_c, 0, 64, 49
2, 220160, Note_on_c, 0, 63, 36
2, 220214, Note_off_c, 0, 71, 49
2, 220246, Note_off_c, 0, 80, 50
2, 220293, Note_off_c, 0, 63, 49
2, 220296, Note_off_c, 0, 83, 52
2, 220298, Note_on_c, 0, 64, 36
2, 220424, Note_off_c, 0, 64, 49
2, 220427, Note_on_c, 0, 81, 49
2, 220428, Note_on_c, 0, 52, 36
2, 220433, Control_c, 0, 64, 20
2, 220541, Note_off_c, 0, 81, 52
2, 220543, Note_on_c, 0, 76, 50
2, 220592, Control_c, 0, 64, 90
2, 220658, Note_off_c, 0, 76, 52
2, 220661, Note_on_c, 0, 72, 51
2, 220662, Note_on_c, 0, 64, 42
2, 220664, Note_on_c, 0, 60, 36
2, 220794, Note_off_c, 0, 72, 52
2, 220794, Note_on_c, 0, 84, 52
2, 220802, Note_off_c, 0, 52, 49
2, 220891, Note_off_c, 0, 84, 53
2, 220909, Note_on_c, 0, 83, 53
2, 220911, Note_on_c, 0, 52, 49
2, 220932, Control_c, 0, 64, 20
2, 221026, Note_off_c, 0, 83, 53
2, 221028, Note_on_c, 0, 80, 54
2, 221079, Note_off_c, 0, 64, 50
2, 221087, Note_off_c, 0, 60, 49
2, 221098, Control_c, 0, 64, 90
2, 221158, Note_off_c, 0, 80, 53
2, 221162, Note_on_c, 0, 62, 56
2, 221164, Note_on_c, 0, 76, 55
2, 221169, Note_on_c, 0, 59, 50
2, 221275, Note_off_c, 0, 76, 53
2, 221278, Note_on_c, 0, 86, 56
2, 221325, Note_off_c, 0, 52, 52
2, 221391, Note_off_c, 0, 86, 54
2, 221409, Note_on_c, 0, 84, 57
2, 221411, Note_on_c, 0, 52, 60
2, 221428, Control_c, 0, 64, 20
2, 221545, Note_off_c, 0, 84, 54
2, 221547, Note_on_c, 0, 81, 58
2, 221579, Note_off_c, 0, 62, 54
2, 221584, Control_c, 0, 64, 90
2, 221630, Note_off_c, 0, 59, 52
2, 221659, Note_on_c, 0, 60, 57
2, 221662, Note_off_c, 0, 81, 54
2, 221664, Note_on_c, 0, 57, 50
2, 221666, Note_on_c, 0, 76, 60
2, 221784, Note_off_c, 0, 52, 55
2, 221795, Note_off_c, 0, 76, 55
2, 221797, Note_on_c, 0, 88, 60
2, 221896, Note_off_c, 0, 88, 55
2, 221928, Note_on_c, 0, 87, 60
2, 221930, Note_on_c, 0, 52, 51
2, 221945, Control_c, 0, 64, 20
2, 222045, Note_off_c, 0, 87, 55
2, 222047, Note_on_c, 0, 88, 57
2, 222087, Note_off_c, 0, 57, 55
2, 222111, Control_c, 0, 64, 90
2, 222116, Note_off_c, 0, 60, 54
2, 222180, Note_off_c, 0, 88, 54
2, 222182, Note_on_c, 0, 56, 45
2, 222183, Note_on_c, 0, 59, 48
2, 222184, Note_on_c, 0, 87, 54
2, 222313, Note_off_c, 0, 87, 53
2, 222314, Note_on_c, 0, 88, 51
2, 222338, Note_off_c, 0, 59, 52
2, 222340, Note_off_c, 0, 56, 51
2, 222406, Note_off_c, 0, 52, 52
2, 222444, Note_off_c, 0, 88, 52
2, 222448, Note_on_c, 0, 76, 48
2, 222451, Note_on_c, 0, 57, 36
2, 222563, Note_off_c, 0, 57, 49
2, 222565, Note_on_c, 0, 52, 36
2, 222648, Control_c, 0, 64, 20
2, 222680, Note_off_c, 0, 52, 49
2, 222682, Note_on_c, 0, 84, 50
2, 222684, Note_on_c, 0, 88, 60
2, 222685, Note_on_c, 0, 48, 38
2, 222813, Control_c, 0, 64, 90
2, 222815, Note_off_c, 0, 48, 49
2, 222816, Note_on_c, 0, 57, 40
2, 222928, Note_off_c, 0, 57, 50
2, 222932, Note_on_c, 0, 59, 43
2, 223065, Note_off_c, 0, 59, 50
2, 223068, Note_on_c, 0, 56, 45
2, 223182, Note_off_c, 0, 84, 52
2, 223184, Note_off_c, 0, 88, 55
2, 223187, Note_off_c, 0, 56, 51
2, 223187, Note_off_c, 0, 76, 52
2, 223189, Note_on_c, 0, 74, 40
2, 223191, Note_on_c, 0, 52, 46
2, 223192, Note_on_c, 0, 83, 36
2, 223193, Note_on_c, 0, 86, 50
2, 223194, Control_c, 0, 64, 20
2, 223316, Note_off_c, 0, 52, 51
2, 223318, Note_on_c, 0, 59, 48
2, 223348, Control_c, 0, 64, 90
2, 223385, Control_c, 0, 64, 20
2, 223432, Note_off_c, 0, 59, 52
2, 223434, Note_on_c, 0, 60, 36
2, 223568, Note_off_c, 0, 60, 49
2, 223569, Note_on_c, 0, 57, 36
2, 223682, Note_off_c, 0, 83, 49
2, 223684, Note_off_c, 0, 74, 50
2, 223685, Note_off_c, 0, 57, 49
2, 223686, Note_off_c, 0, 86, 52
2, 223689, Note_on_c, 0, 72, 51
2, 223690, Note_on_c, 0, 81, 40
2, 223691, Note_on_c, 0, 84, 60
2, 223691, Note_on_c, 0, 52, 37
2, 223815, Note_off_c, 0, 52, 49
2, 223818, Note_on_c, 0, 64, 39
2, 223924, Control_c, 0, 64, 90
2, 223951, Note_off_c, 0, 64, 49
2, 223952, Note_on_c, 0, 63, 41
2, 224064, Note_off_c, 0, 63, 50
2, 224068, Note_on_c, 0, 64, 42
2, 224200, Note_off_c, 0, 72, 52
2, 224202, Note_off_c, 0, 81, 50
2, 224205, Note_off_c, 0, 84, 55
2, 224208, Note_off_c, 0, 64, 50
2, 224210, Note_on_c, 0, 71, 41
2, 224211, Note_on_c, 0, 80, 36
2, 224212, Note_on_c, 0, 83, 48
2, 224213, Note_on_c, 0, 63, 44
2, 224334, Note_off_c, 0, 63, 51
2, 224335, Note_on_c, 0, 64, 46
2, 224466, Note_off_c, 0, 71, 50
2, 224468, Note_off_c, 0, 80, 49
2, 224471, Note_off_c, 0, 83, 52
2, 224472, Control_c, 0, 64, 20
2, 224474, Note_off_c, 0, 64, 51
2, 224475, Note_on_c, 0, 81, 48
2, 224476, Note_on_c, 0, 52, 48
2, 224585, Note_on_c, 0, 76, 50
2, 224588, Note_off_c, 0, 81, 52
2, 224625, Control_c, 0, 64, 90
2, 224719, Note_off_c, 0, 76, 52
2, 224721, Note_on_c, 0, 72, 52
2, 224723, Note_on_c, 0, 64, 50
2, 224728, Note_on_c, 0, 60, 45
2, 224836, Note_off_c, 0, 72, 53
2, 224838, Note_on_c, 0, 84, 55
2, 224840, Note_off_c, 0, 52, 52
2, 224938, Note_off_c, 0, 84, 53
2, 224952, Note_on_c, 0, 52, 52
2, 224954, Note_on_c, 0, 83, 57
2, 224975, Control_c, 0, 64, 20
2, 225085, Note_on_c, 0, 80, 60
2, 225107, Note_off_c, 0, 83, 54
2, 225142, Control_c, 0, 64, 90
2, 225162, Note_off_c, 0, 60, 51
2, 225202, Note_off_c, 0, 64, 52
2, 225205, Note_on_c, 0, 76, 62
2, 225207, Note_on_c, 0, 62, 58
2, 225214, Note_on_c, 0, 59, 50
2, 225228, Note_off_c, 0, 80, 55
2, 225336, Note_off_c, 0, 76, 55
2, 225338, Note_on_c, 0, 86, 64
2, 225344, Note_off_c, 0, 52, 53
2, 225453, Note_on_c, 0, 52, 60
2, 225454, Note_on_c, 0, 84, 67
2, 225457, Note_off_c, 0, 86, 56
2, 225494, Control_c, 0, 64, 20
2, 225588, Note_on_c, 0, 81, 69
2, 225598, Note_off_c, 0, 84, 57
2, 225639, Control_c, 0, 64, 90
2, 225660, Note_off_c, 0, 59, 52
2, 225702, Note_off_c, 0, 62, 54
2, 225706, Note_on_c, 0, 76, 72
2, 225710, Note_off_c, 0, 81, 57
2, 225711, Note_on_c, 0, 60, 60
2, 225716, Note_on_c, 0, 57, 55
2, 225837, Note_off_c, 0, 76, 58
2, 225839, Note_on_c, 0, 88, 72
2, 225868, Note_off_c, 0, 52, 55
2, 225957, Note_off_c, 0, 88, 58
2, 225970, Note_on_c, 0, 87, 70
2, 225972, Note_on_c, 0, 52, 51
2, 225998, Control_c, 0, 64, 20
2, 226106, Note_on_c, 0, 88, 64
2, 226113, Note_off_c, 0, 57, 53
2, 226126, Note_off_c, 0, 87, 57
2, 226165, Control_c, 0, 64, 90
2, 226223, Note_off_c, 0, 60, 55
2, 226225, Note_off_c, 0, 88, 56
2, 226227, Note_on_c, 0, 59, 48
2, 226229, Note_on_c, 0, 87, 56
2, 226233, Note_on_c, 0, 56, 45
2, 226355, Note_on_c, 0, 88, 48
2, 226375, Note_off_c, 0, 87, 54
2, 226392, Note_off_c, 0, 56, 51
2, 226421, Note_off_c, 0, 59, 52
2, 226490, Note_off_c, 0, 52, 52
2, 226491, Note_on_c, 0, 84, 48
2, 226493, Note_on_c, 0, 45, 48
2, 226515, Control_c, 0, 64, 20
2, 226517, Note_off_c, 0, 88, 52
2, 226606, Note_on_c, 0, 81, 52
2, 226611, Note_off_c, 0, 84, 52
2, 226662, Control_c, 0, 64, 90
2, 226740, Note_on_c, 0, 76, 56
2, 226742, Note_on_c, 0, 57, 52
2, 226753, Note_off_c, 0, 81, 53
2, 226855, Note_off_c, 0, 76, 54
2, 226858, Note_on_c, 0, 88, 60
2, 226973, Note_off_c, 0, 57, 53
2, 226975, Note_off_c, 0, 45, 52
2, 226979, Note_on_c, 0, 87, 64
2, 226980, Note_on_c, 0, 52, 57
2, 226991, Note_off_c, 0, 88, 55
2, 227032, Control_c, 0, 64, 20
2, 227108, Note_on_c, 0, 88, 68
2, 227126, Note_off_c, 0, 87, 56
2, 227198, Control_c, 0, 64, 90
2, 227241, Note_on_c, 0, 59, 60
2, 227243, Note_on_c, 0, 87, 72
2, 227253, Note_off_c, 0, 88, 57
2, 227255, Note_on_c, 0, 56, 55
2, 227358, Note_on_c, 0, 88, 72
2, 227378, Note_off_c, 0, 87, 58
2, 227405, Note_off_c, 0, 56, 53
2, 227424, Note_off_c, 0, 59, 55
2, 227490, Note_off_c, 0, 88, 58
2, 227493, Note_off_c, 0, 52, 54
2, 227495, Note_on_c, 0, 84, 72
2, 227496, Note_on_c, 0, 57, 60
2, 227540, Control_c, 0, 64, 20
2, 227626, Note_on_c, 0, 81, 68
2, 227637, Note_off_c, 0, 84, 58
2, 227704, Control_c, 0, 64, 90
2, 227760, Note_on_c, 0, 76, 64
2, 227761, Note_on_c, 0, 60, 56
2, 227771, Note_off_c, 0, 81, 57
2, 227893, Note_off_c, 0, 76, 56
2, 227895, Note_on_c, 0, 88, 60
2, 228026, Note_off_c, 0, 60, 54
2, 228028, Note_off_c, 0, 57, 55
2, 228030, Note_on_c, 0, 52, 51
2, 228032, Note_on_c, 0, 87, 56
2, 228042, Note_off_c, 0, 88, 55
2, 228046, Control_c, 0, 64, 20
2, 228159, Note_on_c, 0, 88, 52
2, 228187, Note_off_c, 0, 87, 53
2, 228201, Control_c, 0, 64, 90
2, 228295, Note_off_c, 0, 88, 53
2, 228296, Note_on_c, 0, 59, 46
2, 228298, Note_on_c, 0, 87, 50
2, 228303, Note_on_c, 0, 56, 40
2, 228443, Note_on_c, 0, 88, 44
2, 228452, Note_off_c, 0, 87, 52
2, 228546, Note_off_c, 0, 56, 50
2, 228576, Note_off_c, 0, 88, 51
2, 228579, Note_off_c, 0, 59, 51
2, 228581, Note_off_c, 0, 52, 52
2, 228582, Note_on_c, 0, 81, 39
2, 228583, Note_on_c, 0, 57, 41
2, 228591, Control_c, 0, 64, 20
2, 228593, Note_on_c, 0, 45, 35
2, 228757, Control_c, 0, 64, 90
2, 228780, Note_off_c, 0, 45, 48
2, 228794, Note_off_c, 0, 57, 50
2, 228860, Note_off_c, 0, 81, 49
2, 229127, Control_c, 0, 64, 20
2, 229156, Note_on_c, 0, 57, 40
2, 229165, Note_on_c, 0, 33, 36
2, 229167, Note_on_c, 0, 45, 28
2, 229313, Control_c, 0, 64, 100
2, 229549, Note_off_c, 0, 45, 47
2, 229568, Note_off_c, 0, 33, 49
2, 229640, Note_off_c, 0, 57, 50
2, 229799, Note_on_c, 0, 57, 46
2, 229813, Note_on_c, 0, 33, 42
2, 229814, Note_on_c, 0, 45, 34
2, 229825, Control_c, 0, 64, 20
2, 230085, Control_c, 0, 64, 99
2, 230430, Note_off_c, 0, 57, 51
2, 230444, Note_off_c, 0, 45, 48
2, 230447, Note_off_c, 0, 33, 50
2, 230588, Note_on_c, 0, 57, 52
2, 230608, Control_c, 0, 64, 20
2, 230611, Note_on_c, 0, 33, 30
2, 230613, Note_on_c, 0, 45, 40
2, 230925, Control_c, 0, 64, 96
2, 231387, Note_off_c, 0, 57, 53
2, 231391, Note_off_c, 0, 33, 47
2, 231434, Note_off_c, 0, 45, 50
2, 231573, Note_on_c, 0, 57, 40
2, 231583, Note_on_c, 0, 45, 35
2, 231584, Note_on_c, 0, 33, 30
2, 231589, Control_c, 0, 64, 20
2, 231832, Control_c, 0, 64, 96
2, 233386, Note_off_c, 0, 45, 48
2, 233471, Note_off_c, 0, 57, 50
2, 233583, Note_off_c, 0, 33, 47
2, 233635, Control_c, 0, 67, 127
2, 233920, Note_on_c, 0, 43, 30
2, 233922, Note_on_c, 0, 55, 40
2, 233922, Note_on_c, 0, 31, 20
2, 233950, Control_c, 0, 64, 20
2, 234193, Control_c, 0, 64, 96
2, 235723, Note_off_c, 0, 43, 47
2, 235929, Note_off_c, 0, 55, 50
2, 235972, Note_off_c, 0, 31, 45
2, 236055, Control_c, 0, 64, 20
2, 236227, Control_c, 0, 64, 96
2, 236229, Note_on_c, 0, 30, 24
2, 236424, Note_off_c, 0, 30, 46
2, 236425, Note_on_c, 0, 33, 24
2, 236623, Note_off_c, 0, 33, 46
2, 236627, Note_on_c, 0, 38, 26
2, 236842, Note_off_c, 0, 38, 46
2, 236844, Note_on_c, 0, 42, 28
2, 237042, Note_off_c, 0, 42, 47
2, 237044, Note_on_c, 0, 45, 31
2, 237257, Note_off_c, 0, 45, 47
2, 237260, Note_on_c, 0, 50, 33
2, 237474, Note_off_c, 0, 50, 48
2, 237477, Note_on_c, 0, 54, 36
2, 237692, Note_off_c, 0, 54, 49
2, 237694, Note_on_c, 0, 57, 36
2, 237925, Note_off_c, 0, 57, 49
2, 237929, Note_on_c, 0, 62, 36
2, 239898, Note_off_c, 0, 62, 49
2, 239900, Note_on_c, 0, 66, 36
2, 240415, Note_off_c, 0, 66, 49
2, 240951, Note_on_c, 0, 69, 30
2, 241536, Note_off_c, 0, 69, 47
2, 242733, Note_on_c, 0, 74, 24
2, 246944, Note_off_c, 0, 74, 46
2, 247411, Control_c, 0, 64, 20
2, 247749, Control_c, 0, 64, 96
2, 247752, Note_on_c, 0, 36, 36
2, 247951, Note_off_c, 0, 36, 49
2, 247953, Note_on_c, 0, 39, 36
2, 248150, Note_off_c, 0, 39, 49
2, 248150, Note_on_c, 0, 42, 38
2, 248366, Note_off_c, 0, 42, 49
2, 248370, Note_on_c, 0, 45, 40
2, 248568, Note_off_c, 0, 45, 50
2, 248572, Note_on_c, 0, 48, 43
2, 248786, Note_off_c, 0, 48, 50
2, 248788, Note_on_c, 0, 51, 45
2, 249003, Note_off_c, 0, 51, 51
2, 249006, Note_on_c, 0, 54, 48
2, 249237, Note_off_c, 0, 54, 52
2, 249239, Note_on_c, 0, 57, 36
2, 249451, Note_off_c, 0, 57, 49
2, 249454, Note_on_c, 0, 60, 36
2, 249685, Note_off_c, 0, 60, 49
2, 249689, Note_on_c, 0, 63, 36
2, 249919, Note_off_c, 0, 63, 49
2, 249923, Note_on_c, 0, 66, 35
2, 251977, Note_off_c, 0, 66, 49
2, 251979, Note_on_c, 0, 69, 30
2, 252510, Note_off_c, 0, 69, 47
2, 253062, Note_on_c, 0, 75, 27
2, 253662, Note_off_c, 0, 75, 46
2, 254945, Note_on_c, 0, 78, 24
2, 258172, Note_off_c, 0, 78, 46
2, 259655, Control_c, 0, 64, 20
2, 259876, Control_c, 0, 64, 96
2, 259878, Note_on_c, 0, 37, 36
2, 260077, Note_off_c, 0, 37, 49
2, 260080, Note_on_c, 0, 42, 36
2, 260280, Note_off_c, 0, 42, 49
2, 260282, Note_on_c, 0, 46, 40
2, 260496, Note_off_c, 0, 46, 50
2, 260498, Note_on_c, 0, 49, 44
2, 260710, Note_off_c, 0, 49, 51
2, 260713, Note_on_c, 0, 54, 48
2, 260929, Note_off_c, 0, 54, 52
2, 260932, Note_on_c, 0, 58, 36
2, 261146, Note_off_c, 0, 58, 49
2, 261149, Note_on_c, 0, 61, 36
2, 261363, Note_off_c, 0, 61, 49
2, 261366, Note_on_c, 0, 66, 35
2, 261597, Note_off_c, 0, 66, 48
2, 261600, Note_on_c, 0, 70, 34
2, 263604, Note_off_c, 0, 70, 48
2, 263605, Note_on_c, 0, 73, 24
2, 264120, Note_off_c, 0, 73, 46
2, 264671, Note_on_c, 0, 78, 24
2, 265255, Note_off_c, 0, 78, 46
2, 266808, Note_on_c, 0, 82, 30
2, 270849, Note_off_c, 0, 82, 47
2, 271020, Control_c, 0, 67, 0
2, 271469, Control_c, 0, 64, 96
2, 271473, Note_on_c, 0, 57, 56
2, 271475, Note_on_c, 0, 54, 51
2, 271478, Note_on_c, 0, 30, 99
2, 271555, Note_off_c, 0, 57, 54
2, 271557, Note_off_c, 0, 54, 52
2, 271558, Note_on_c, 0, 61, 56
2, 271637, Note_off_c, 0, 61, 54
2, 271639, Note_on_c, 0, 57, 55
2, 271641, Note_on_c, 0, 54, 50
2, 271721, Note_off_c, 0, 57, 53
2, 271723, Note_off_c, 0, 54, 52
2, 271725, Note_on_c, 0, 61, 54
2, 271806, Note_off_c, 0, 61, 53
2, 271807, Note_on_c, 0, 57, 53
2, 271809, Note_on_c, 0, 54, 48
2, 271870, Note_off_c, 0, 57, 53
2, 271872, Note_off_c, 0, 54, 52
2, 271875, Note_on_c, 0, 61, 52
2, 271955, Note_off_c, 0, 61, 53
2, 271956, Note_off_c, 0, 30, 64
2, 271959, Note_on_c, 0, 57, 51
2, 271961, Note_on_c, 0, 33, 100
2, 271962, Note_on_c, 0, 54, 46
2, 272039, Note_off_c, 0, 57, 52
2, 272042, Note_off_c, 0, 54, 51
2, 272043, Note_on_c, 0, 61, 50
2, 272088, Note_off_c, 0, 33, 65
2, 272123, Note_off_c, 0, 61, 52
2, 272125, Note_on_c, 0, 57, 49
2, 272127, Note_on_c, 0, 54, 44
2, 272206, Note_off_c, 0, 57, 52
2, 272207, Note_off_c, 0, 54, 51
2, 272209, Note_on_c, 0, 61, 48
2, 272211, Note_on_c, 0, 37, 93
2, 272289, Note_off_c, 0, 61, 52
2, 272290, Note_on_c, 0, 57, 47
2, 272292, Note_on_c, 0, 54, 42
2, 272321, Note_off_c, 0, 37, 63
2, 272373, Note_off_c, 0, 54, 50
2, 272374, Note_off_c, 0, 57, 51
2, 272376, Note_on_c, 0, 61, 46
2, 272455, Note_off_c, 0, 61, 51
2, 272457, Note_on_c, 0, 57, 45
2, 272460, Note_on_c, 0, 54, 40
2, 272461, Note_on_c, 0, 42, 89
2, 272522, Note_off_c, 0, 54, 50
2, 272523, Note_off_c, 0, 57, 51
2, 272526, Note_on_c, 0, 61, 44
2, 272572, Note_off_c, 0, 42, 62
2, 272606, Note_off_c, 0, 61, 51
2, 272609, Note_on_c, 0, 57, 43
2, 272610, Note_on_c, 0, 54, 38
2, 272690, Note_off_c, 0, 57, 50
2, 272691, Note_off_c, 0, 54, 49
2, 272693, Note_on_c, 0, 61, 42
2, 272773, Note_off_c, 0, 61, 50
2, 272776, Note_on_c, 0, 57, 41
2, 272778, Note_on_c, 0, 54, 36
2, 272858, Note_off_c, 0, 57, 50
2, 272860, Note_off_c, 0, 54, 49
2, 272861, Note_on_c, 0, 61, 40
2, 272942, Note_off_c, 0, 61, 50
2, 272945, Note_on_c, 0, 57, 39
2, 272946, Note_on_c, 0, 54, 34
2, 272982, Control_c, 0, 64, 20
2, 273025, Note_off_c, 0, 57, 49
2, 273026, Note_off_c, 0, 54, 48
2, 273027, Note_on_c, 0, 61, 38
2, 273107, Note_off_c, 0, 61, 49
2, 273108, Note_on_c, 0, 57, 36
2, 273110, Note_on_c, 0, 54, 31
2, 273176, Control_c, 0, 67, 127
2, 273178, Note_off_c, 0, 54, 47
2, 273180, Note_off_c, 0, 57, 49
2, 273181, Note_on_c, 0, 61, 36
2, 273182, Note_on_c, 0, 73, 57
2, 273257, Note_off_c, 0, 61, 49
2, 273260, Note_on_c, 0, 57, 36
2, 273262, Note_on_c, 0, 54, 31
2, 273341, Note_off_c, 0, 57, 49
2, 273343, Note_off_c, 0, 54, 47
2, 273344, Note_on_c, 0, 61, 36
2, 273426, Note_off_c, 0, 61, 49
2, 273428, Note_on_c, 0, 57, 36
2, 273430, Note_on_c, 0, 54, 31
2, 273432, Note_on_c, 0, 72, 65
2, 273505, Note_off_c, 0, 73, 54
2, 273523, Note_off_c, 0, 57, 49
2, 273525, Note_off_c, 0, 54, 47
2, 273526, Note_on_c, 0, 61, 37
2, 273622, Note_off_c, 0, 61, 49
2, 273627, Note_on_c, 0, 57, 37
2, 273629, Note_on_c, 0, 54, 32
2, 273724, Note_off_c, 0, 57, 49
2, 273726, Note_off_c, 0, 54, 48
2, 273729, Note_on_c, 0, 61, 38
2, 273730, Note_on_c, 0, 73, 64
2, 273731, Note_off_c, 0, 72, 56
2, 273810, Note_off_c, 0, 61, 49
2, 273811, Note_on_c, 0, 57, 38
2, 273813, Note_on_c, 0, 54, 33
2, 273891, Note_off_c, 0, 57, 49
2, 273893, Note_off_c, 0, 54, 48
2, 273895, Note_on_c, 0, 61, 39
2, 273977, Note_off_c, 0, 61, 49
2, 273979, Note_on_c, 0, 57, 39
2, 273981, Note_on_c, 0, 54, 34
2, 273982, Note_on_c, 0, 74, 69
2, 274019, Note_off_c, 0, 73, 55
2, 274060, Note_off_c, 0, 57, 49
2, 274062, Note_off_c, 0, 54, 48
2, 274063, Note_on_c, 0, 61, 40
2, 274143, Note_off_c, 0, 61, 50
2, 274144, Note_on_c, 0, 57, 40
2, 274145, Note_on_c, 0, 54, 35
2, 274241, Note_off_c, 0, 57, 50
2, 274242, Note_off_c, 0, 54, 48
2, 274247, Note_on_c, 0, 61, 41
2, 274249, Note_on_c, 0, 73, 57
2, 274323, Note_off_c, 0, 74, 57
2, 274327, Note_off_c, 0, 61, 50
2, 274329, Note_on_c, 0, 57, 41
2, 274332, Note_on_c, 0, 54, 36
2, 274412, Note_off_c, 0, 54, 49
2, 274413, Note_off_c, 0, 57, 50
2, 274416, Note_on_c, 0, 61, 42
2, 274427, Note_off_c, 0, 73, 54
2, 274493, Note_off_c, 0, 61, 50
2, 274496, Note_on_c, 0, 57, 42
2, 274497, Note_on_c, 0, 54, 37
2, 274499, Note_on_c, 0, 73, 69
2, 274577, Note_off_c, 0, 57, 50
2, 274578, Note_off_c, 0, 54, 49
2, 274582, Note_on_c, 0, 61, 42
2, 274663, Note_off_c, 0, 61, 50
2, 274664, Note_on_c, 0, 57, 43
2, 274665, Note_on_c, 0, 54, 38
2, 274762, Note_off_c, 0, 54, 49
2, 274763, Note_off_c, 0, 57, 50
2, 274766, Note_on_c, 0, 61, 43
2, 274843, Note_off_c, 0, 61, 50
2, 274846, Note_on_c, 0, 57, 44
2, 274847, Note_on_c, 0, 54, 39
2, 274928, Note_off_c, 0, 57, 51
2, 274929, Note_off_c, 0, 54, 49
2, 274929, Note_off_c, 0, 73, 57
2, 274933, Note_on_c, 0, 61, 44
2, 274996, Note_off_c, 0, 61, 51
2, 275012, Note_on_c, 0, 57, 45
2, 275014, Note_on_c, 0, 54, 40
2, 275016, Note_on_c, 0, 73, 57
2, 275095, Note_off_c, 0, 57, 51
2, 275097, Note_off_c, 0, 54, 50
2, 275100, Note_on_c, 0, 61, 45
2, 275194, Note_off_c, 0, 61, 51
2, 275196, Note_on_c, 0, 57, 46
2, 275198, Note_on_c, 0, 54, 41
2, 275280, Note_off_c, 0, 57, 51
2, 275282, Note_off_c, 0, 54, 50
2, 275283, Note_on_c, 0, 61, 46
2, 275313, Control_c, 0, 67, 0
2, 275364, Note_off_c, 0, 61, 51
2, 275366, Note_on_c, 0, 57, 47
2, 275368, Note_on_c, 0, 54, 42
2, 275428, Note_off_c, 0, 57, 51
2, 275429, Note_off_c, 0, 54, 50
2, 275431, Note_on_c, 0, 61, 47
2, 275513, Note_off_c, 0, 61, 51
2, 275516, Note_off_c, 0, 73, 54
2, 275517, Note_on_c, 0, 59, 48
2, 275518, Note_on_c, 0, 32, 87
2, 275519, Note_on_c, 0, 53, 43
2, 275526, Control_c, 0, 64, 96
2, 275598, Note_off_c, 0, 59, 52
2, 275599, Note_off_c, 0, 53, 50
2, 275602, Note_on_c, 0, 61, 48
2, 275682, Note_off_c, 0, 61, 52
2, 275684, Note_on_c, 0, 59, 47
2, 275685, Note_on_c, 0, 53, 42
2, 275764, Note_off_c, 0, 59, 51
2, 275765, Note_off_c, 0, 53, 50
2, 275768, Note_on_c, 0, 61, 46
2, 275849, Note_off_c, 0, 61, 51
2, 275850, Note_on_c, 0, 59, 44
2, 275852, Note_on_c, 0, 53, 39
2, 275932, Note_off_c, 0, 53, 49
2, 275933, Note_off_c, 0, 59, 51
2, 275936, Note_on_c, 0, 61, 43
2, 276014, Note_off_c, 0, 61, 50
2, 276015, Note_off_c, 0, 32, 61
2, 276017, Note_on_c, 0, 59, 42
2, 276020, Note_on_c, 0, 53, 37
2, 276022, Note_on_c, 0, 35, 90
2, 276074, Control_c, 0, 64, 20
2, 276079, Note_off_c, 0, 53, 49
2, 276081, Note_off_c, 0, 59, 50
2, 276083, Note_on_c, 0, 61, 40
2, 276132, Note_off_c, 0, 35, 62
2, 276164, Note_off_c, 0, 61, 50
2, 276167, Note_on_c, 0, 59, 39
2, 276169, Note_on_c, 0, 53, 34
2, 276247, Note_off_c, 0, 59, 49
2, 276249, Note_off_c, 0, 53, 48
2, 276251, Note_on_c, 0, 61, 38
2, 276253, Note_on_c, 0, 41, 94
2, 276331, Note_off_c, 0, 61, 49
2, 276333, Note_on_c, 0, 59, 36
2, 276335, Note_on_c, 0, 53, 31
2, 276363, Note_off_c, 0, 41, 63
2, 276417, Note_off_c, 0, 53, 47
2, 276418, Note_off_c, 0, 59, 49
2, 276419, Note_on_c, 0, 61, 36
2, 276497, Note_off_c, 0, 61, 49
2, 276499, Note_on_c, 0, 59, 40
2, 276501, Note_on_c, 0, 53, 35
2, 276503, Note_on_c, 0, 44, 99
2, 276582, Note_off_c, 0, 59, 50
2, 276582, Note_off_c, 0, 53, 48
2, 276585, Note_on_c, 0, 61, 44
2, 276615, Note_off_c, 0, 44, 64
2, 276664, Note_off_c, 0, 61, 51
2, 276667, Note_on_c, 0, 59, 48
2, 276669, Note_on_c, 0, 53, 43
2, 276734, Note_off_c, 0, 53, 50
2, 276735, Note_off_c, 0, 59, 52
2, 276737, Note_on_c, 0, 61, 48
2, 276815, Note_off_c, 0, 61, 52
2, 276817, Note_on_c, 0, 59, 46
2, 276819, Note_on_c, 0, 53, 41
2, 276901, Note_off_c, 0, 59, 51
2, 276903, Note_off_c, 0, 53, 50
2, 276904, Note_on_c, 0, 61, 44
2, 276985, Note_off_c, 0, 61, 51
2, 276987, Note_on_c, 0, 59, 41
2, 276988, Note_on_c, 0, 53, 36
2, 277067, Note_off_c, 0, 59, 50
2, 277068, Note_off_c, 0, 53, 49
2, 277069, Note_on_c, 0, 61, 39
2, 277149, Note_off_c, 0, 61, 49
2, 277151, Note_on_c, 0, 59, 36
2, 277154, Note_on_c, 0, 53, 31
2, 277228, Control_c, 0, 67, 127
2, 277235, Note_off_c, 0, 53, 47
2, 277236, Note_off_c, 0, 59, 49
2, 277239, Note_on_c, 0, 61, 36
2, 277240, Note_on_c, 0, 73, 57
2, 277300, Note_off_c, 0, 61, 49
2, 277303, Note_on_c, 0, 59, 36
2, 277303, Note_on_c, 0, 53, 31
2, 277383, Note_off_c, 0, 59, 49
2, 277384, Note_off_c, 0, 53, 47
2, 277386, Note_on_c, 0, 61, 36
2, 277468, Note_off_c, 0, 61, 49
2, 277470, Note_off_c, 0, 73, 54
2, 277473, Note_on_c, 0, 59, 36
2, 277474, Note_on_c, 0, 72, 65
2, 277475, Note_on_c, 0, 53, 31
2, 277567, Note_off_c, 0, 59, 49
2, 277569, Note_off_c, 0, 53, 47
2, 277571, Note_on_c, 0, 61, 37
2, 277666, Note_off_c, 0, 61, 49
2, 277668, Note_on_c, 0, 59, 37
2, 277670, Note_on_c, 0, 53, 32
2, 277766, Note_off_c, 0, 59, 49
2, 277768, Note_off_c, 0, 53, 48
2, 277772, Note_off_c, 0, 72, 56
2, 277774, Note_on_c, 0, 61, 38
2, 277775, Note_on_c, 0, 73, 64
2, 277854, Note_off_c, 0, 61, 49
2, 277856, Note_on_c, 0, 59, 38
2, 277858, Note_on_c, 0, 53, 33
2, 277936, Note_off_c, 0, 59, 49
2, 277938, Note_off_c, 0, 53, 48
2, 277940, Note_on_c, 0, 61, 39
2, 278018, Note_off_c, 0, 61, 49
2, 278019, Note_off_c, 0, 73, 55
2, 278021, Note_on_c, 0, 59, 39
2, 278023, Note_on_c, 0, 53, 34
2, 278026, Note_on_c, 0, 74, 69
2, 278103, Note_off_c, 0, 59, 49
2, 278104, Note_off_c, 0, 53, 48
2, 278107, Note_on_c, 0, 61, 40
2, 278185, Note_off_c, 0, 61, 50
2, 278187, Note_on_c, 0, 59, 40
2, 278189, Note_on_c, 0, 53, 35
2, 278269, Note_off_c, 0, 59, 50
2, 278271, Note_off_c, 0, 53, 48
2, 278273, Note_off_c, 0, 74, 57
2, 278274, Note_on_c, 0, 61, 41
2, 278276, Note_on_c, 0, 73, 57
2, 278354, Note_off_c, 0, 61, 50
2, 278356, Note_on_c, 0, 59, 41
2, 278357, Note_on_c, 0, 53, 36
2, 278437, Note_off_c, 0, 53, 49
2, 278440, Note_off_c, 0, 59, 50
2, 278442, Note_on_c, 0, 61, 42
2, 278454, Note_off_c, 0, 73, 54
2, 278519, Note_off_c, 0, 61, 50
2, 278521, Note_on_c, 0, 59, 42
2, 278523, Note_on_c, 0, 53, 37
2, 278526, Note_on_c, 0, 73, 69
2, 278603, Note_off_c, 0, 59, 50
2, 278604, Note_off_c, 0, 53, 49
2, 278607, Note_on_c, 0, 61, 42
2, 278688, Note_off_c, 0, 61, 50
2, 278689, Note_on_c, 0, 59, 43
2, 278692, Note_on_c, 0, 53, 38
2, 278770, Note_off_c, 0, 59, 50
2, 278772, Note_off_c, 0, 53, 49
2, 278774, Note_on_c, 0, 61, 43
2, 278854, Note_off_c, 0, 61, 50
2, 278855, Note_on_c, 0, 59, 44
2, 278857, Note_on_c, 0, 53, 39
2, 278936, Note_off_c, 0, 59, 51
2, 278938, Note_off_c, 0, 53, 49
2, 278941, Note_on_c, 0, 61, 44
2, 278958, Note_off_c, 0, 73, 57
2, 279003, Note_off_c, 0, 61, 51
2, 279022, Note_on_c, 0, 59, 45
2, 279023, Note_on_c, 0, 73, 57
2, 279025, Note_on_c, 0, 53, 40
2, 279103, Note_off_c, 0, 59, 51
2, 279106, Note_off_c, 0, 53, 50
2, 279107, Note_on_c, 0, 61, 45
2, 279189, Note_off_c, 0, 61, 51
2, 279190, Note_on_c, 0, 59, 46
2, 279191, Note_on_c, 0, 53, 41
2, 279272, Note_off_c, 0, 53, 50
2, 279274, Note_off_c, 0, 59, 51
2, 279277, Note_on_c, 0, 61, 46
2, 279355, Note_off_c, 0, 61, 51
2, 279357, Note_on_c, 0, 59, 47
2, 279359, Note_on_c, 0, 53, 42
2, 279380, Control_c, 0, 67, 0
2, 279439, Note_off_c, 0, 59, 51
2, 279440, Note_off_c, 0, 53, 50
2, 279441, Note_on_c, 0, 61, 47
2, 279523, Note_off_c, 0, 61, 51
2, 279525, Note_off_c, 0, 73, 54
2, 279525, Note_on_c, 0, 33, 84
2, 279527, Note_on_c, 0, 54, 43
2, 279540, Control_c, 0, 64, 97
2, 279606, Note_off_c, 0, 54, 50
2, 279609, Note_on_c, 0, 57, 48
2, 279612, Note_on_c, 0, 61, 48
2, 279690, Note_off_c, 0, 61, 52
2, 279691, Note_off_c, 0, 57, 52
2, 279693, Note_on_c, 0, 54, 43
2, 279773, Note_off_c, 0, 54, 50
2, 279775, Note_on_c, 0, 61, 49
2, 279777, Note_on_c, 0, 57, 49
2, 279858, Note_off_c, 0, 61, 52
2, 279858, Note_off_c, 0, 57, 52
2, 279861, Note_on_c, 0, 54, 45
2, 279922, Note_off_c, 0, 54, 51
2, 279924, Note_on_c, 0, 57, 51
2, 279927, Note_on_c, 0, 61, 51
2, 280006, Note_off_c, 0, 57, 52
2, 280008, Note_off_c, 0, 61, 52
2, 280011, Note_off_c, 0, 33, 61
2, 280013, Note_on_c, 0, 54, 47
2, 280015, Note_on_c, 0, 37, 85
2, 280088, Control_c, 0, 64, 20
2, 280091, Note_off_c, 0, 54, 51
2, 280093, Note_on_c, 0, 57, 52
2, 280095, Note_on_c, 0, 61, 52
2, 280140, Note_off_c, 0, 37, 61
2, 280173, Note_off_c, 0, 61, 53
2, 280174, Note_off_c, 0, 57, 53
2, 280177, Note_on_c, 0, 54, 48
2, 280259, Note_off_c, 0, 54, 52
2, 280260, Note_on_c, 0, 61, 54
2, 280261, Note_on_c, 0, 42, 88
2, 280262, Note_on_c, 0, 57, 54
2, 280341, Note_off_c, 0, 57, 53
2, 280342, Note_off_c, 0, 61, 53
2, 280344, Note_on_c, 0, 54, 50
2, 280373, Note_off_c, 0, 42, 62
2, 280426, Note_off_c, 0, 54, 52
2, 280428, Note_on_c, 0, 57, 56
2, 280429, Note_on_c, 0, 61, 56
2, 280507, Note_off_c, 0, 61, 54
2, 280509, Note_off_c, 0, 57, 54
2, 280511, Note_on_c, 0, 54, 51
2, 280513, Note_on_c, 0, 45, 91
2, 280592, Note_off_c, 0, 54, 52
2, 280593, Note_on_c, 0, 61, 57
2, 280594, Note_on_c, 0, 57, 57
2, 280623, Note_off_c, 0, 45, 62
2, 280676, Note_off_c, 0, 57, 54
2, 280678, Note_off_c, 0, 61, 54
2, 280681, Note_on_c, 0, 54, 53
2, 280756, Note_off_c, 0, 54, 53
2, 280761, Note_on_c, 0, 57, 59
2, 280762, Note_on_c, 0, 61, 59
2, 280842, Note_off_c, 0, 57, 54
2, 280844, Note_off_c, 0, 61, 54
2, 280845, Note_on_c, 0, 54, 55
2, 280926, Note_off_c, 0, 54, 53
2, 280928, Note_on_c, 0, 61, 60
2, 280929, Note_on_c, 0, 57, 60
2, 281010, Note_off_c, 0, 57, 55
2, 281012, Note_off_c, 0, 61, 55
2, 281014, Note_on_c, 0, 54, 55
2, 281016, Note_on_c, 0, 78, 92
2, 281093, Note_off_c, 0, 54, 53
2, 281094, Note_on_c, 0, 57, 58
2, 281097, Note_on_c, 0, 61, 58
2, 281127, Note_off_c, 0, 78, 62
2, 281176, Note_off_c, 0, 57, 54
2, 281178, Note_off_c, 0, 61, 54
2, 281179, Note_on_c, 0, 54, 51
2, 281244, Note_off_c, 0, 54, 52
2, 281247, Note_on_c, 0, 57, 54
2, 281249, Note_on_c, 0, 61, 54
2, 281327, Note_off_c, 0, 61, 53
2, 281328, Note_off_c, 0, 57, 53
2, 281330, Note_on_c, 0, 54, 47
2, 281410, Note_off_c, 0, 54, 51
2, 281412, Note_on_c, 0, 61, 50
2, 281414, Note_on_c, 0, 57, 50
2, 281494, Note_off_c, 0, 57, 52
2, 281495, Note_off_c, 0, 61, 52
2, 281499, Note_on_c, 0, 35, 84
2, 281499, Note_on_c, 0, 54, 43
2, 281503, Control_c, 0, 64, 96
2, 281576, Note_off_c, 0, 54, 50
2, 281578, Note_on_c, 0, 62, 48
2, 281580, Note_on_c, 0, 59, 43
2, 281659, Note_off_c, 0, 62, 52
2, 281661, Note_off_c, 0, 59, 50
2, 281664, Note_on_c, 0, 54, 43
2, 281745, Note_off_c, 0, 54, 50
2, 281747, Note_on_c, 0, 62, 49
2, 281748, Note_on_c, 0, 59, 44
2, 281829, Note_off_c, 0, 59, 51
2, 281833, Note_off_c, 0, 62, 52
2, 281834, Note_on_c, 0, 54, 45
2, 281911, Note_off_c, 0, 54, 51
2, 281912, Note_on_c, 0, 62, 51
2, 281914, Note_on_c, 0, 59, 46
2, 281994, Note_off_c, 0, 62, 52
2, 281995, Note_off_c, 0, 59, 51
2, 281998, Note_off_c, 0, 35, 61
2, 282001, Note_on_c, 0, 54, 47
2, 282002, Note_on_c, 0, 38, 86
2, 282050, Control_c, 0, 64, 20
2, 282080, Note_off_c, 0, 54, 51
2, 282083, Note_on_c, 0, 62, 52
2, 282084, Note_on_c, 0, 59, 47
2, 282111, Note_off_c, 0, 38, 61
2, 282163, Note_off_c, 0, 62, 53
2, 282164, Note_off_c, 0, 59, 51
2, 282165, Note_on_c, 0, 54, 48
2, 282245, Note_off_c, 0, 54, 52
2, 282246, Note_on_c, 0, 62, 54
2, 282248, Note_on_c, 0, 42, 89
2, 282249, Note_on_c, 0, 59, 49
2, 282330, Note_off_c, 0, 59, 52
2, 282331, Note_off_c, 0, 62, 53
2, 282333, Note_on_c, 0, 54, 50
2, 282361, Note_off_c, 0, 42, 62
2, 282394, Note_off_c, 0, 54, 52
2, 282398, Note_on_c, 0, 62, 56
2, 282400, Note_on_c, 0, 59, 51
2, 282479, Note_off_c, 0, 62, 54
2, 282481, Note_off_c, 0, 59, 52
2, 282482, Note_on_c, 0, 47, 92
2, 282484, Note_on_c, 0, 54, 51
2, 282579, Note_off_c, 0, 54, 52
2, 282580, Note_on_c, 0, 62, 57
2, 282581, Note_on_c, 0, 59, 52
2, 282612, Note_off_c, 0, 47, 62
2, 282663, Note_off_c, 0, 59, 53
2, 282666, Note_off_c, 0, 62, 54
2, 282667, Note_on_c, 0, 54, 53
2, 282747, Note_off_c, 0, 54, 53
2, 282748, Note_on_c, 0, 62, 59
2, 282750, Note_on_c, 0, 59, 54
2, 282829, Note_off_c, 0, 62, 54
2, 282831, Note_off_c, 0, 59, 53
2, 282834, Note_on_c, 0, 54, 55
2, 282914, Note_off_c, 0, 54, 53
2, 282916, Note_on_c, 0, 62, 60
2, 282918, Note_on_c, 0, 59, 55
2, 282996, Note_off_c, 0, 62, 55
2, 282998, Note_off_c, 0, 59, 53
2, 283001, Note_on_c, 0, 54, 55
2, 283002, Note_on_c, 0, 78, 92
2, 283081, Note_off_c, 0, 54, 53
2, 283082, Note_on_c, 0, 62, 58
2, 283084, Note_on_c, 0, 59, 53
2, 283112, Note_off_c, 0, 78, 62
2, 283163, Note_off_c, 0, 62, 54
2, 283165, Note_off_c, 0, 59, 53
2, 283168, Note_on_c, 0, 54, 51
2, 283249, Note_off_c, 0, 54, 52
2, 283251, Note_on_c, 0, 62, 54
2, 283252, Note_on_c, 0, 59, 49
2, 283331, Note_off_c, 0, 62, 53
2, 283333, Note_off_c, 0, 59, 52
2, 283334, Note_on_c, 0, 54, 47
2, 283414, Note_off_c, 0, 54, 51
2, 283415, Note_on_c, 0, 62, 50
2, 283418, Note_on_c, 0, 59, 45
2, 283496, Control_c, 0, 64, 96
2, 283498, Note_off_c, 0, 59, 51
2, 283499, Note_off_c, 0, 62, 52
2, 283502, Note_on_c, 0, 55, 43
2, 283504, Note_on_c, 0, 35, 84
2, 283580, Note_off_c, 0, 55, 50
2, 283584, Note_on_c, 0, 62, 48
2, 283586, Note_on_c, 0, 59, 43
2, 283666, Note_off_c, 0, 62, 52
2, 283667, Note_off_c, 0, 59, 50
2, 283668, Note_on_c, 0, 55, 43
2, 283749, Note_off_c, 0, 55, 50
2, 283752, Note_on_c, 0, 62, 49
2, 283753, Note_on_c, 0, 59, 44
2, 283834, Note_off_c, 0, 59, 51
2, 283835, Note_off_c, 0, 62, 52
2, 283838, Note_on_c, 0, 55, 45
2, 283916, Note_off_c, 0, 55, 51
2, 283918, Note_on_c, 0, 62, 51
2, 283920, Note_on_c, 0, 59, 46
2, 283999, Note_off_c, 0, 62, 52
2, 284001, Note_off_c, 0, 59, 51
2, 284004, Note_off_c, 0, 35, 61
2, 284005, Note_on_c, 0, 55, 47
2, 284006, Note_on_c, 0, 38, 85
2, 284077, Control_c, 0, 64, 20
2, 284083, Note_off_c, 0, 55, 51
2, 284085, Note_on_c, 0, 62, 52
2, 284086, Note_on_c, 0, 59, 47
2, 284116, Note_off_c, 0, 38, 61
2, 284150, Note_off_c, 0, 62, 53
2, 284152, Note_off_c, 0, 59, 51
2, 284154, Note_on_c, 0, 55, 48
2, 284234, Note_off_c, 0, 55, 52
2, 284235, Note_on_c, 0, 62, 54
2, 284237, Note_on_c, 0, 43, 88
2, 284238, Note_on_c, 0, 59, 49
2, 284316, Note_off_c, 0, 59, 52
2, 284319, Note_off_c, 0, 62, 53
2, 284321, Note_on_c, 0, 55, 50
2, 284366, Note_off_c, 0, 43, 62
2, 284398, Note_off_c, 0, 55, 52
2, 284402, Note_on_c, 0, 62, 56
2, 284403, Note_on_c, 0, 59, 51
2, 284483, Note_off_c, 0, 62, 54
2, 284485, Note_off_c, 0, 59, 52
2, 284488, Note_on_c, 0, 55, 51
2, 284489, Note_on_c, 0, 47, 91
2, 284568, Note_off_c, 0, 55, 52
2, 284570, Note_on_c, 0, 62, 57
2, 284571, Note_on_c, 0, 59, 52
2, 284616, Note_off_c, 0, 47, 62
2, 284653, Note_off_c, 0, 59, 53
2, 284655, Note_off_c, 0, 62, 54
2, 284656, Note_on_c, 0, 55, 53
2, 284734, Note_off_c, 0, 55, 53
2, 284735, Note_on_c, 0, 62, 59
2, 284737, Note_on_c, 0, 59, 54
2, 284818, Note_off_c, 0, 62, 54
2, 284819, Note_off_c, 0, 59, 53
2, 284820, Note_on_c, 0, 55, 55
2, 284901, Note_off_c, 0, 55, 53
2, 284904, Note_on_c, 0, 62, 60
2, 284906, Note_on_c, 0, 59, 55
2, 284984, Note_off_c, 0, 62, 55
2, 284988, Note_off_c, 0, 59, 53
2, 284989, Note_on_c, 0, 55, 55
2, 284990, Note_on_c, 0, 79, 92
2, 285068, Note_off_c, 0, 55, 53
2, 285069, Note_on_c, 0, 62, 58
2, 285071, Note_on_c, 0, 59, 53
2, 285100, Note_off_c, 0, 79, 62
2, 285151, Note_off_c, 0, 62, 54
2, 285153, Note_off_c, 0, 59, 53
2, 285155, Note_on_c, 0, 55, 51
2, 285237, Note_off_c, 0, 55, 52
2, 285240, Note_on_c, 0, 62, 54
2, 285242, Note_on_c, 0, 59, 49
2, 285320, Note_off_c, 0, 62, 53
2, 285322, Note_off_c, 0, 59, 52
2, 285324, Note_on_c, 0, 55, 47
2, 285404, Note_off_c, 0, 55, 51
2, 285405, Note_on_c, 0, 62, 50
2, 285406, Note_on_c, 0, 59, 45
2, 285476, Control_c, 0, 64, 96
2, 285487, Note_off_c, 0, 59, 51
2, 285488, Note_off_c, 0, 62, 52
2, 285491, Note_on_c, 0, 36, 84
2, 285491, Note_on_c, 0, 55, 43
2, 285569, Note_off_c, 0, 55, 50
2, 285571, Note_on_c, 0, 64, 48
2, 285573, Note_on_c, 0, 60, 43
2, 285636, Note_off_c, 0, 64, 52
2, 285637, Note_off_c, 0, 60, 50
2, 285641, Note_on_c, 0, 55, 43
2, 285721, Note_off_c, 0, 55, 50
2, 285724, Note_on_c, 0, 64, 49
2, 285725, Note_on_c, 0, 60, 44
2, 285804, Note_off_c, 0, 64, 52
2, 285804, Note_off_c, 0, 60, 51
2, 285807, Note_on_c, 0, 55, 45
2, 285887, Note_off_c, 0, 55, 51
2, 285889, Note_on_c, 0, 64, 51
2, 285891, Note_on_c, 0, 60, 46
2, 285971, Note_off_c, 0, 60, 51
2, 285972, Note_off_c, 0, 64, 52
2, 285976, Note_off_c, 0, 36, 61
2, 285976, Note_on_c, 0, 40, 86
2, 285977, Note_on_c, 0, 55, 47
2, 286055, Control_c, 0, 64, 20
2, 286057, Note_off_c, 0, 55, 51
2, 286060, Note_on_c, 0, 64, 52
2, 286061, Note_on_c, 0, 60, 47
2, 286086, Note_off_c, 0, 40, 61
2, 286137, Note_off_c, 0, 64, 53
2, 286138, Note_off_c, 0, 60, 51
2, 286141, Note_on_c, 0, 55, 48
2, 286222, Note_off_c, 0, 55, 52
2, 286223, Note_on_c, 0, 64, 54
2, 286225, Note_on_c, 0, 43, 89
2, 286226, Note_on_c, 0, 60, 49
2, 286305, Note_off_c, 0, 60, 52
2, 286306, Note_off_c, 0, 64, 53
2, 286310, Note_on_c, 0, 55, 50
2, 286337, Note_off_c, 0, 43, 62
2, 286387, Note_off_c, 0, 55, 52
2, 286389, Note_on_c, 0, 64, 56
2, 286391, Note_on_c, 0, 60, 51
2, 286471, Note_off_c, 0, 64, 54
2, 286473, Note_off_c, 0, 60, 52
2, 286475, Note_on_c, 0, 55, 51
2, 286477, Note_on_c, 0, 48, 92
2, 286555, Note_off_c, 0, 55, 52
2, 286557, Note_on_c, 0, 64, 57
2, 286558, Note_on_c, 0, 60, 52
2, 286588, Note_off_c, 0, 48, 62
2, 286638, Note_off_c, 0, 60, 53
2, 286641, Note_off_c, 0, 64, 54
2, 286644, Note_on_c, 0, 55, 53
2, 286722, Note_off_c, 0, 55, 53
2, 286723, Note_on_c, 0, 64, 59
2, 286727, Note_on_c, 0, 60, 54
2, 286804, Note_off_c, 0, 64, 54
2, 286807, Note_off_c, 0, 60, 53
2, 286809, Note_on_c, 0, 55, 55
2, 286890, Note_off_c, 0, 55, 53
2, 286894, Note_on_c, 0, 64, 60
2, 286894, Note_on_c, 0, 60, 55
2, 286974, Note_off_c, 0, 64, 55
2, 286975, Note_off_c, 0, 60, 53
2, 286976, Note_on_c, 0, 55, 55
2, 286977, Note_on_c, 0, 79, 92
2, 287056, Note_off_c, 0, 55, 53
2, 287059, Note_on_c, 0, 64, 58
2, 287061, Note_on_c, 0, 60, 53
2, 287106, Note_off_c, 0, 79, 62
2, 287139, Note_off_c, 0, 60, 53
2, 287141, Note_off_c, 0, 64, 54
2, 287142, Note_on_c, 0, 55, 51
2, 287222, Note_off_c, 0, 55, 52
2, 287225, Note_on_c, 0, 64, 54
2, 287227, Note_on_c, 0, 60, 49
2, 287307, Note_off_c, 0, 64, 53
2, 287309, Note_off_c, 0, 60, 52
2, 287311, Note_on_c, 0, 55, 47
2, 287407, Note_off_c, 0, 55, 51
2, 287409, Note_on_c, 0, 64, 50
2, 287411, Note_on_c, 0, 60, 45
2, 287470, Control_c, 0, 64, 96
2, 287491, Note_off_c, 0, 60, 51
2, 287492, Note_off_c, 0, 64, 52
2, 287495, Note_on_c, 0, 57, 48
2, 287497, Note_on_c, 0, 37, 84
2, 287573, Note_off_c, 0, 57, 52
2, 287575, Note_on_c, 0, 64, 48
2, 287577, Note_on_c, 0, 61, 43
2, 287641, Note_off_c, 0, 64, 52
2, 287643, Note_off_c, 0, 61, 50
2, 287645, Note_on_c, 0, 57, 48
2, 287725, Note_off_c, 0, 57, 52
2, 287727, Note_on_c, 0, 64, 49
2, 287728, Note_on_c, 0, 61, 44
2, 287807, Note_off_c, 0, 64, 52
2, 287808, Note_off_c, 0, 61, 51
2, 287811, Note_on_c, 0, 57, 50
2, 287892, Note_off_c, 0, 57, 52
2, 287893, Note_on_c, 0, 64, 51
2, 287894, Note_on_c, 0, 61, 46
2, 287974, Note_off_c, 0, 64, 52
2, 287976, Note_off_c, 0, 61, 51
2, 287978, Note_off_c, 0, 37, 61
2, 287981, Note_on_c, 0, 57, 52
2, 287982, Note_on_c, 0, 40, 85
2, 288042, Control_c, 0, 64, 20
2, 288060, Note_off_c, 0, 57, 53
2, 288061, Note_on_c, 0, 64, 52
2, 288063, Note_on_c, 0, 61, 47
2, 288091, Note_off_c, 0, 40, 61
2, 288141, Note_off_c, 0, 64, 53
2, 288143, Note_off_c, 0, 61, 51
2, 288145, Note_on_c, 0, 57, 53
2, 288227, Note_off_c, 0, 57, 53
2, 288228, Note_on_c, 0, 64, 54
2, 288229, Note_on_c, 0, 45, 88
2, 288230, Note_on_c, 0, 61, 49
2, 288310, Note_off_c, 0, 64, 53
2, 288310, Note_off_c, 0, 61, 52
2, 288313, Note_on_c, 0, 57, 55
2, 288341, Note_off_c, 0, 45, 62
2, 288374, Note_off_c, 0, 57, 53
2, 288378, Note_on_c, 0, 64, 56
2, 288380, Note_on_c, 0, 61, 51
2, 288460, Note_off_c, 0, 64, 54
2, 288462, Note_off_c, 0, 61, 52
2, 288463, Note_on_c, 0, 57, 56
2, 288464, Note_on_c, 0, 49, 91
2, 288543, Note_off_c, 0, 57, 54
2, 288545, Note_on_c, 0, 64, 57
2, 288546, Note_on_c, 0, 61, 52
2, 288593, Note_off_c, 0, 49, 62
2, 288624, Note_off_c, 0, 64, 54
2, 288627, Note_off_c, 0, 61, 53
2, 288631, Note_on_c, 0, 57, 58
2, 288711, Note_off_c, 0, 57, 54
2, 288712, Note_on_c, 0, 64, 59
2, 288714, Note_on_c, 0, 61, 54
2, 288794, Note_off_c, 0, 64, 54
2, 288796, Note_off_c, 0, 61, 53
2, 288798, Note_on_c, 0, 57, 60
2, 288879, Note_off_c, 0, 57, 55
2, 288880, Note_on_c, 0, 64, 60
2, 288881, Note_on_c, 0, 61, 55
2, 288961, Note_off_c, 0, 64, 55
2, 288962, Note_off_c, 0, 61, 53
2, 288965, Note_on_c, 0, 57, 60
2, 288967, Note_on_c, 0, 81, 92
2, 289045, Note_off_c, 0, 57, 55
2, 289046, Note_on_c, 0, 64, 58
2, 289048, Note_on_c, 0, 61, 53
2, 289093, Note_off_c, 0, 81, 62
2, 289128, Note_off_c, 0, 61, 53
2, 289129, Note_off_c, 0, 64, 54
2, 289132, Note_on_c, 0, 57, 56
2, 289210, Note_off_c, 0, 57, 54
2, 289212, Note_on_c, 0, 64, 54
2, 289214, Note_on_c, 0, 61, 49
2, 289294, Note_off_c, 0, 64, 53
2, 289296, Note_off_c, 0, 61, 52
2, 289298, Note_on_c, 0, 57, 52
2, 289379, Note_off_c, 0, 57, 53
2, 289380, Note_on_c, 0, 64, 50
2, 289382, Note_on_c, 0, 61, 45
2, 289462, Note_off_c, 0, 61, 51
2, 289463, Note_off_c, 0, 64, 52
2, 289467, Note_on_c, 0, 57, 48
2, 289468, Note_on_c, 0, 38, 84
2, 289469, Control_c, 0, 64, 96
2, 289545, Note_off_c, 0, 57, 52
2, 289547, Note_on_c, 0, 65, 48
2, 289549, Note_on_c, 0, 62, 43
2, 289628, Note_off_c, 0, 65, 52
2, 289630, Note_off_c, 0, 62, 50
2, 289632, Note_on_c, 0, 57, 48
2, 289713, Note_off_c, 0, 57, 52
2, 289715, Note_on_c, 0, 65, 49
2, 289716, Note_on_c, 0, 62, 44
2, 289795, Note_off_c, 0, 65, 52
2, 289797, Note_off_c, 0, 62, 51
2, 289799, Note_on_c, 0, 57, 50
2, 289863, Note_off_c, 0, 57, 52
2, 289864, Note_on_c, 0, 65, 51
2, 289868, Note_on_c, 0, 62, 46
2, 289946, Note_off_c, 0, 62, 51
2, 289947, Note_off_c, 0, 65, 52
2, 289949, Note_off_c, 0, 38, 61
2, 289952, Note_on_c, 0, 41, 86
2, 289954, Note_on_c, 0, 57, 52
2, 290009, Control_c, 0, 64, 20
2, 290048, Note_off_c, 0, 57, 53
2, 290051, Note_on_c, 0, 65, 52
2, 290052, Note_on_c, 0, 62, 47
2, 290080, Note_off_c, 0, 41, 61
2, 290130, Note_off_c, 0, 65, 53
2, 290132, Note_off_c, 0, 62, 51
2, 290134, Note_on_c, 0, 57, 53
2, 290215, Note_off_c, 0, 57, 53
2, 290216, Note_on_c, 0, 65, 54
2, 290218, Note_on_c, 0, 45, 89
2, 290219, Note_on_c, 0, 62, 49
2, 290298, Note_off_c, 0, 62, 52
2, 290300, Note_off_c, 0, 65, 53
2, 290301, Note_on_c, 0, 57, 55
2, 290347, Note_off_c, 0, 45, 62
2, 290379, Note_off_c, 0, 57, 53
2, 290382, Note_on_c, 0, 65, 56
2, 290384, Note_on_c, 0, 62, 51
2, 290464, Note_off_c, 0, 65, 54
2, 290466, Note_off_c, 0, 62, 52
2, 290468, Note_on_c, 0, 57, 56
2, 290471, Note_on_c, 0, 50, 92
2, 290564, Note_off_c, 0, 57, 54
2, 290566, Note_on_c, 0, 65, 57
2, 290568, Note_on_c, 0, 62, 52
2, 290635, Note_off_c, 0, 50, 62
2, 290648, Note_off_c, 0, 62, 53
2, 290649, Note_off_c, 0, 65, 54
2, 290652, Note_on_c, 0, 57, 58
2, 290748, Note_off_c, 0, 57, 54
2, 290751, Note_on_c, 0, 65, 59
2, 290753, Note_on_c, 0, 62, 54
2, 290831, Note_off_c, 0, 65, 54
2, 290834, Note_off_c, 0, 62, 53
2, 290835, Note_on_c, 0, 57, 60
2, 290931, Note_off_c, 0, 57, 55
2, 290933, Note_on_c, 0, 65, 60
2, 290935, Note_on_c, 0, 62, 55
2, 291015, Note_off_c, 0, 62, 53
2, 291016, Note_off_c, 0, 65, 55
2, 291019, Note_on_c, 0, 57, 60
2, 291020, Note_on_c, 0, 81, 92
2, 291117, Note_off_c, 0, 57, 55
2, 291120, Note_on_c, 0, 65, 58
2, 291120, Note_on_c, 0, 62, 53
2, 291166, Note_off_c, 0, 81, 62
2, 291198, Note_off_c, 0, 65, 54
2, 291200, Note_off_c, 0, 62, 53
2, 291202, Note_on_c, 0, 57, 56
2, 291297, Note_off_c, 0, 57, 54
2, 291300, Note_on_c, 0, 65, 53
2, 291302, Note_on_c, 0, 62, 48
2, 291400, Note_off_c, 0, 65, 53
2, 291402, Note_off_c, 0, 62, 52
2, 291405, Note_on_c, 0, 57, 51
2, 291485, Note_off_c, 0, 57, 52
2, 291485, Note_on_c, 0, 65, 48
2, 291486, Note_on_c, 0, 62, 43
2, 291585, Control_c, 0, 64, 20
2, 291587, Note_off_c, 0, 62, 50
2, 291588, Note_off_c, 0, 65, 52
2, 291589, Note_on_c, 0, 47, 60
2, 291668, Note_on_c, 0, 62, 36
2, 291711, Note_off_c, 0, 47, 55
2, 291734, Note_off_c, 0, 62, 49
2, 291736, Note_on_c, 0, 59, 37
2, 291817, Note_off_c, 0, 59, 49
2, 291821, Note_on_c, 0, 62, 38
2, 291901, Note_off_c, 0, 62, 49
2, 291902, Note_on_c, 0, 59, 39
2, 291984, Note_off_c, 0, 59, 49
2, 291986, Note_on_c, 0, 62, 40
2, 292068, Note_off_c, 0, 62, 50
2, 292070, Note_on_c, 0, 80, 72
2, 292072, Note_on_c, 0, 59, 41
2, 292077, Note_on_c, 0, 68, 66
2, 292151, Note_off_c, 0, 59, 50
2, 292155, Note_on_c, 0, 62, 42
2, 292222, Note_off_c, 0, 68, 56
2, 292227, Note_off_c, 0, 80, 58
2, 292234, Note_off_c, 0, 62, 50
2, 292236, Note_on_c, 0, 59, 43
2, 292320, Note_off_c, 0, 59, 50
2, 292322, Note_on_c, 0, 62, 44
2, 292386, Note_off_c, 0, 62, 51
2, 292388, Note_on_c, 0, 59, 45
2, 292468, Note_off_c, 0, 59, 51
2, 292472, Note_on_c, 0, 62, 46
2, 292554, Note_off_c, 0, 62, 51
2, 292555, Note_on_c, 0, 46, 59
2, 292635, Note_on_c, 0, 62, 48
2, 292682, Note_off_c, 0, 46, 54
2, 292718, Note_off_c, 0, 62, 52
2, 292720, Note_on_c, 0, 58, 49
2, 292803, Note_off_c, 0, 58, 52
2, 292806, Note_on_c, 0, 62, 50
2, 292887, Note_off_c, 0, 62, 52
2, 292890, Note_on_c, 0, 58, 51
2, 292968, Note_off_c, 0, 58, 52
2, 292970, Note_on_c, 0, 62, 52
2, 293037, Note_off_c, 0, 62, 53
2, 293039, Note_on_c, 0, 86, 84
2, 293041, Note_on_c, 0, 58, 53
2, 293049, Note_on_c, 0, 74, 75
2, 293120, Note_off_c, 0, 58, 53
2, 293123, Note_on_c, 0, 62, 54
2, 293162, Note_off_c, 0, 86, 61
2, 293174, Note_off_c, 0, 74, 59
2, 293203, Note_off_c, 0, 62, 53
2, 293205, Note_on_c, 0, 58, 55
2, 293287, Note_off_c, 0, 58, 53
2, 293289, Note_on_c, 0, 62, 56
2, 293371, Note_off_c, 0, 62, 54
2, 293373, Note_on_c, 0, 58, 57
2, 293455, Note_off_c, 0, 58, 54
2, 293458, Note_on_c, 0, 62, 58
2, 293538, Note_off_c, 0, 62, 54
2, 293539, Note_on_c, 0, 73, 65
2, 293541, Note_on_c, 0, 85, 72
2, 293544, Note_on_c, 0, 45, 60
2, 293600, Note_off_c, 0, 85, 58
2, 293609, Note_off_c, 0, 73, 56
2, 293611, Note_off_c, 0, 45, 55
2, 293654, Note_on_c, 0, 69, 72
2, 293656, Note_on_c, 0, 57, 60
2, 293773, Note_on_c, 0, 68, 69
2, 293776, Note_off_c, 0, 57, 55
2, 293778, Note_on_c, 0, 56, 57
2, 293779, Note_off_c, 0, 69, 58
2, 293906, Note_on_c, 0, 69, 66
2, 293908, Note_on_c, 0, 57, 54
2, 293915, Note_off_c, 0, 56, 54
2, 293926, Note_off_c, 0, 68, 57
2, 294023, Note_on_c, 0, 68, 62
2, 294025, Note_on_c, 0, 56, 50
2, 294032, Note_off_c, 0, 57, 53
2, 294034, Note_off_c, 0, 69, 56
2, 294140, Note_on_c, 0, 69, 59
2, 294142, Note_off_c, 0, 56, 52
2, 294144, Note_on_c, 0, 57, 47
2, 294151, Note_off_c, 0, 68, 55
2, 294273, Note_on_c, 0, 68, 55
2, 294276, Note_on_c, 0, 56, 43
2, 294298, Note_off_c, 0, 57, 51
2, 294300, Note_off_c, 0, 69, 54
2, 294390, Note_on_c, 0, 69, 52
2, 294392, Note_off_c, 0, 68, 53
2, 294395, Note_on_c, 0, 57, 40
2, 294411, Note_off_c, 0, 56, 50
2, 294470, Note_off_c, 0, 69, 53
2, 294475, Note_off_c, 0, 57, 50
2, 294525, Note_on_c, 0, 68, 48
2, 294526, Note_on_c, 0, 56, 36
2, 294532, Control_c, 0, 64, 90
2, 294660, Note_on_c, 0, 57, 36
2, 294662, Note_on_c, 0, 69, 48
2, 294674, Note_off_c, 0, 56, 49
2, 294702, Note_off_c, 0, 68, 52
2, 294777, Note_on_c, 0, 64, 40
2, 294779, Note_on_c, 0, 73, 54
2, 294781, Note_on_c, 0, 61, 40
2, 294782, Note_on_c, 0, 76, 54
2, 294800, Note_off_c, 0, 57, 49
2, 294802, Note_off_c, 0, 69, 52
2, 294912, Note_on_c, 0, 57, 44
2, 294915, Note_on_c, 0, 69, 60
2, 294917, Note_off_c, 0, 73, 53
2, 294919, Note_off_c, 0, 64, 50
2, 294921, Note_off_c, 0, 61, 50
2, 294926, Note_off_c, 0, 76, 53
2, 295027, Note_on_c, 0, 74, 64
2, 295029, Note_on_c, 0, 77, 76
2, 295031, Note_on_c, 0, 62, 52
2, 295032, Note_on_c, 0, 65, 60
2, 295033, Note_off_c, 0, 69, 55
2, 295049, Note_off_c, 0, 57, 51
2, 295162, Note_on_c, 0, 57, 36
2, 295164, Note_on_c, 0, 69, 48
2, 295169, Note_off_c, 0, 77, 59
2, 295172, Note_off_c, 0, 65, 55
2, 295176, Note_off_c, 0, 62, 53
2, 295178, Note_off_c, 0, 74, 56
2, 295277, Note_on_c, 0, 71, 40
2, 295279, Note_on_c, 0, 74, 48
2, 295281, Note_on_c, 0, 59, 30
2, 295282, Note_on_c, 0, 62, 36
2, 295298, Note_off_c, 0, 57, 49
2, 295300, Note_off_c, 0, 69, 52
2, 295391, Control_c, 0, 64, 20
2, 295396, Note_on_c, 0, 57, 38
2, 295398, Note_on_c, 0, 69, 50
2, 295401, Note_off_c, 0, 74, 52
2, 295403, Note_off_c, 0, 59, 47
2, 295406, Note_off_c, 0, 62, 49
2, 295406, Note_off_c, 0, 71, 50
2, 295468, Note_off_c, 0, 69, 52
2, 295477, Note_off_c, 0, 57, 49
2, 295524, Note_on_c, 0, 76, 52
2, 295527, Note_on_c, 0, 64, 35
2, 295529, Note_on_c, 0, 73, 40
2, 295531, Note_on_c, 0, 61, 30
2, 295536, Control_c, 0, 64, 90
2, 295646, Note_on_c, 0, 57, 42
2, 295648, Note_on_c, 0, 69, 55
2, 295656, Note_off_c, 0, 61, 47
2, 295657, Note_off_c, 0, 73, 50
2, 295662, Note_off_c, 0, 64, 48
2, 295663, Note_off_c, 0, 76, 53
2, 295777, Note_on_c, 0, 76, 57
2, 295779, Note_on_c, 0, 61, 40
2, 295781, Note_on_c, 0, 64, 44
2, 295784, Note_off_c, 0, 69, 53
2, 295784, Note_on_c, 0, 73, 57
2, 295786, Note_off_c, 0, 57, 50
2, 295898, Control_c, 0, 64, 20
2, 295915, Note_on_c, 0, 57, 46
2, 295916, Note_on_c, 0, 69, 60
2, 295919, Note_off_c, 0, 61, 50
2, 295921, Note_off_c, 0, 64, 51
2, 295929, Note_off_c, 0, 76, 54
2, 295939, Note_off_c, 0, 73, 54
2, 295996, Note_off_c, 0, 57, 51
2, 295998, Note_off_c, 0, 69, 55
2, 296027, Note_on_c, 0, 77, 76
2, 296029, Note_on_c, 0, 62, 44
2, 296031, Note_on_c, 0, 65, 52
2, 296032, Note_on_c, 0, 74, 64
2, 296043, Control_c, 0, 64, 90
2, 296163, Note_on_c, 0, 69, 48
2, 296166, Note_on_c, 0, 57, 36
2, 296169, Note_off_c, 0, 74, 56
2, 296171, Note_off_c, 0, 77, 59
2, 296173, Note_off_c, 0, 62, 51
2, 296178, Note_off_c, 0, 65, 53
2, 296279, Note_on_c, 0, 74, 48
2, 296281, Note_on_c, 0, 71, 40
2, 296281, Note_on_c, 0, 62, 36
2, 296283, Note_on_c, 0, 59, 36
2, 296288, Note_off_c, 0, 69, 52
2, 296299, Note_off_c, 0, 57, 49
2, 296384, Control_c, 0, 64, 20
2, 296397, Note_on_c, 0, 69, 50
2, 296399, Note_on_c, 0, 57, 38
2, 296405, Note_off_c, 0, 62, 49
2, 296410, Note_off_c, 0, 71, 50
2, 296416, Note_off_c, 0, 59, 49
2, 296421, Note_off_c, 0, 74, 52
2, 296474, Note_off_c, 0, 57, 49
2, 296478, Note_off_c, 0, 69, 52
2, 296529, Note_on_c, 0, 73, 45
2, 296530, Note_on_c, 0, 76, 52
2, 296533, Control_c, 0, 64, 90
2, 296535, Note_on_c, 0, 61, 34
2, 296536, Note_on_c, 0, 64, 40
2, 296647, Note_on_c, 0, 69, 54
2, 296650, Note_off_c, 0, 61, 48
2, 296652, Note_on_c, 0, 57, 42
2, 296660, Note_off_c, 0, 73, 51
2, 296661, Note_off_c, 0, 76, 53
2, 296673, Note_off_c, 0, 64, 50
2, 296781, Note_on_c, 0, 73, 50
2, 296783, Note_on_c, 0, 76, 56
2, 296785, Note_on_c, 0, 61, 40
2, 296786, Note_on_c, 0, 64, 44
2, 296788, Note_off_c, 0, 57, 50
2, 296803, Note_off_c, 0, 69, 53
2, 296891, Control_c, 0, 64, 20
2, 296916, Note_on_c, 0, 57, 46
2, 296918, Note_on_c, 0, 69, 58
2, 296925, Note_off_c, 0, 61, 50
2, 296927, Note_off_c, 0, 64, 51
2, 296934, Note_off_c, 0, 73, 52
2, 296939, Note_off_c, 0, 76, 54
2, 296984, Note_off_c, 0, 57, 51
2, 296990, Note_off_c, 0, 69, 54
2, 297028, Control_c, 0, 64, 90
2, 297030, Note_on_c, 0, 74, 64
2, 297033, Note_on_c, 0, 77, 76
2, 297035, Note_on_c, 0, 65, 60
2, 297037, Note_on_c, 0, 62, 52
2, 297166, Note_on_c, 0, 57, 36
2, 297168, Note_on_c, 0, 69, 48
2, 297177, Note_off_c, 0, 65, 55
2, 297185, Note_off_c, 0, 62, 53
2, 297186, Note_off_c, 0, 74, 56
2, 297189, Note_off_c, 0, 77, 59
2, 297283, Note_on_c, 0, 71, 40
2, 297284, Note_on_c, 0, 74, 48
2, 297285, Note_on_c, 0, 59, 30
2, 297286, Note_on_c, 0, 62, 36
2, 297297, Note_off_c, 0, 69, 52
2, 297300, Note_off_c, 0, 57, 49
2, 297378, Control_c, 0, 64, 20
2, 297400, Note_on_c, 0, 57, 42
2, 297402, Note_on_c, 0, 69, 54
2, 297404, Note_off_c, 0, 59, 47
2, 297412, Note_off_c, 0, 71, 50
2, 297417, Note_off_c, 0, 74, 52
2, 297423, Note_off_c, 0, 62, 49
2, 297476, Note_off_c, 0, 69, 53
2, 297481, Note_off_c, 0, 57, 50
2, 297529, Note_on_c, 0, 76, 60
2, 297530, Note_on_c, 0, 73, 40
2, 297532, Note_on_c, 0, 64, 48
2, 297535, Control_c, 0, 64, 90
2, 297538, Note_on_c, 0, 61, 36
2, 297650, Note_off_c, 0, 73, 50
2, 297652, Note_on_c, 0, 57, 48
2, 297654, Note_on_c, 0, 69, 60
2, 297657, Note_off_c, 0, 76, 55
2, 297660, Note_off_c, 0, 61, 49
2, 297666, Note_off_c, 0, 64, 52
2, 297671, Control_c, 0, 64, 20
2, 297783, Note_on_c, 0, 68, 59
2, 297785, Note_off_c, 0, 57, 52
2, 297786, Note_on_c, 0, 56, 47
2, 297794, Note_off_c, 0, 69, 55
2, 297918, Note_on_c, 0, 57, 46
2, 297920, Note_on_c, 0, 69, 58
2, 297924, Note_off_c, 0, 56, 51
2, 297925, Note_off_c, 0, 68, 54
2, 298031, Note_on_c, 0, 68, 57
2, 298035, Note_on_c, 0, 56, 45
2, 298044, Note_off_c, 0, 69, 54
2, 298046, Note_off_c, 0, 57, 51
2, 298168, Note_off_c, 0, 56, 51
2, 298170, Note_on_c, 0, 57, 44
2, 298172, Note_on_c, 0, 69, 56
2, 298190, Note_off_c, 0, 68, 54
2, 298301, Note_on_c, 0, 56, 42
2, 298303, Note_on_c, 0, 68, 54
2, 298306, Note_off_c, 0, 57, 51
2, 298308, Note_off_c, 0, 69, 54
2, 298435, Note_on_c, 0, 57, 41
2, 298436, Note_on_c, 0, 69, 53
2, 298450, Note_off_c, 0, 56, 50
2, 298455, Note_off_c, 0, 68, 53
2, 298509, Note_off_c, 0, 57, 50
2, 298513, Note_off_c, 0, 69, 53
2, 298565, Note_on_c, 0, 68, 52
2, 298567, Note_on_c, 0, 56, 40
2, 298576, Control_c, 0, 64, 85
2, 298698, Note_off_c, 0, 68, 53
2, 298700, Note_off_c, 0, 56, 50
2, 298703, Note_on_c, 0, 69, 51
2, 298705, Note_on_c, 0, 57, 39
2, 298834, Note_off_c, 0, 69, 52
2, 298836, Note_off_c, 0, 57, 49
2, 298837, Note_on_c, 0, 64, 50
2, 298838, Note_on_c, 0, 49, 35
2, 298840, Note_on_c, 0, 52, 40
2, 298841, Note_on_c, 0, 61, 30
2, 298968, Note_off_c, 0, 52, 50
2, 298971, Note_off_c, 0, 61, 47
2, 298973, Note_off_c, 0, 49, 48
2, 298974, Note_off_c, 0, 64, 52
2, 298974, Note_on_c, 0, 57, 36
2, 298975, Note_on_c, 0, 69, 48
2, 298976, Control_c, 0, 64, 20
2, 299049, Note_off_c, 0, 69, 52
2, 299053, Note_off_c, 0, 57, 49
2, 299103, Note_on_c, 0, 53, 50
2, 299103, Note_on_c, 0, 62, 60
2, 299106, Note_on_c, 0, 50, 48
2, 299107, Note_on_c, 0, 65, 72
2, 299121, Control_c, 0, 64, 87
2, 299216, Note_off_c, 0, 62, 55
2, 299218, Note_off_c, 0, 65, 58
2, 299220, Note_off_c, 0, 50, 52
2, 299224, Note_off_c, 0, 53, 52
2, 299224, Note_on_c, 0, 69, 48
2, 299225, Note_on_c, 0, 57, 36
2, 299352, Note_off_c, 0, 57, 49
2, 299354, Note_off_c, 0, 69, 52
2, 299359, Note_on_c, 0, 59, 40
2, 299360, Note_on_c, 0, 62, 48
2, 299361, Note_on_c, 0, 47, 30
2, 299362, Note_on_c, 0, 50, 36
2, 299469, Note_off_c, 0, 59, 50
2, 299470, Note_off_c, 0, 62, 52
2, 299472, Note_off_c, 0, 47, 47
2, 299473, Note_off_c, 0, 50, 49
2, 299474, Note_on_c, 0, 57, 38
2, 299475, Note_on_c, 0, 69, 50
2, 299478, Control_c, 0, 64, 20
2, 299546, Note_off_c, 0, 57, 49
2, 299548, Note_off_c, 0, 69, 52
2, 299586, Note_on_c, 0, 61, 40
2, 299587, Note_on_c, 0, 64, 52
2, 299590, Note_on_c, 0, 49, 30
2, 299591, Note_on_c, 0, 52, 35
2, 299600, Control_c, 0, 64, 87
2, 299718, Note_off_c, 0, 61, 50
2, 299718, Note_off_c, 0, 64, 53
2, 299723, Note_off_c, 0, 49, 47
2, 299724, Note_off_c, 0, 52, 48
2, 299726, Note_on_c, 0, 57, 42
2, 299727, Note_on_c, 0, 69, 55
2, 299842, Note_off_c, 0, 57, 50
2, 299851, Note_off_c, 0, 69, 53
2, 299854, Note_on_c, 0, 61, 50
2, 299856, Note_on_c, 0, 64, 57
2, 299859, Note_on_c, 0, 49, 40
2, 299860, Note_on_c, 0, 52, 44
2, 299962, Control_c, 0, 64, 20
2, 299968, Note_off_c, 0, 64, 54
2, 299971, Note_off_c, 0, 49, 50
2, 299973, Note_off_c, 0, 52, 51
2, 299975, Note_off_c, 0, 61, 52
2, 299976, Note_on_c, 0, 57, 46
2, 299977, Note_on_c, 0, 69, 60
2, 300051, Note_off_c, 0, 69, 55
2, 300052, Note_off_c, 0, 57, 51
2, 300101, Note_on_c, 0, 65, 72
2, 300103, Note_on_c, 0, 53, 50
2, 300106, Note_on_c, 0, 50, 48
2, 300108, Note_on_c, 0, 62, 60
2, 300116, Control_c, 0, 64, 87
2, 300218, Note_off_c, 0, 65, 58
2, 300220, Note_off_c, 0, 53, 52
2, 300223, Note_off_c, 0, 50, 52
2, 300225, Note_off_c, 0, 62, 55
2, 300228, Note_on_c, 0, 57, 36
2, 300228, Note_on_c, 0, 69, 48
2, 300337, Note_on_c, 0, 59, 35
2, 300340, Note_on_c, 0, 62, 48
2, 300342, Note_on_c, 0, 47, 30
2, 300344, Note_on_c, 0, 50, 36
2, 300359, Note_off_c, 0, 57, 49
2, 300359, Note_off_c, 0, 69, 52
2, 300466, Control_c, 0, 64, 20
2, 300471, Note_off_c, 0, 62, 52
2, 300472, Note_off_c, 0, 50, 49
2, 300473, Note_off_c, 0, 59, 48
2, 300475, Note_off_c, 0, 47, 47
2, 300477, Note_on_c, 0, 57, 40
2, 300479, Note_on_c, 0, 69, 50
2, 300553, Note_off_c, 0, 57, 50
2, 300554, Note_off_c, 0, 69, 52
2, 300588, Note_on_c, 0, 64, 52
2, 300589, Note_on_c, 0, 61, 40
2, 300590, Note_on_c, 0, 52, 44
2, 300592, Note_on_c, 0, 49, 35
2, 300604, Control_c, 0, 64, 87
2, 300721, Note_off_c, 0, 61, 50
2, 300723, Note_off_c, 0, 52, 51
2, 300725, Note_off_c, 0, 49, 48
2, 300726, Note_off_c, 0, 64, 53
2, 300727, Note_on_c, 0, 57, 48
2, 300728, Note_on_c, 0, 69, 54
2, 300838, Note_on_c, 0, 64, 56
2, 300840, Note_on_c, 0, 52, 45
2, 300842, Note_on_c, 0, 61, 36
2, 300843, Note_on_c, 0, 49, 52
2, 300846, Note_off_c, 0, 69, 53
2, 300851, Note_off_c, 0, 57, 52
2, 300965, Control_c, 0, 64, 20
2, 300973, Note_off_c, 0, 52, 51
2, 300975, Note_off_c, 0, 61, 49
2, 300976, Note_off_c, 0, 64, 54
2, 300977, Note_off_c, 0, 49, 53
2, 300978, Note_on_c, 0, 69, 58
2, 300979, Note_on_c, 0, 57, 50
2, 301035, Note_off_c, 0, 69, 54
2, 301043, Note_off_c, 0, 57, 52
2, 301106, Note_on_c, 0, 62, 60
2, 301107, Note_on_c, 0, 65, 72
2, 301110, Note_on_c, 0, 50, 60
2, 301111, Note_on_c, 0, 53, 72
2, 301120, Control_c, 0, 64, 87
2, 301223, Note_off_c, 0, 62, 55
2, 301224, Note_off_c, 0, 65, 58
2, 301227, Note_off_c, 0, 50, 55
2, 301228, Note_off_c, 0, 53, 58
2, 301229, Note_on_c, 0, 57, 36
2, 301230, Note_on_c, 0, 69, 48
2, 301340, Note_on_c, 0, 50, 40
2, 301341, Note_on_c, 0, 59, 30
2, 301344, Note_on_c, 0, 47, 36
2, 301345, Note_on_c, 0, 62, 48
2, 301346, Note_off_c, 0, 57, 49
2, 301355, Note_off_c, 0, 69, 52
2, 301461, Control_c, 0, 64, 20
2, 301472, Note_off_c, 0, 59, 47
2, 301474, Note_off_c, 0, 62, 52
2, 301477, Note_off_c, 0, 47, 49
2, 301479, Note_off_c, 0, 50, 50
2, 301479, Note_on_c, 0, 57, 48
2, 301480, Note_on_c, 0, 69, 60
2, 301558, Note_off_c, 0, 57, 52
2, 301559, Note_off_c, 0, 69, 55
2, 301589, Note_on_c, 0, 61, 52
2, 301591, Note_on_c, 0, 64, 72
2, 301593, Note_on_c, 0, 49, 50
2, 301596, Note_on_c, 0, 52, 60
2, 301722, Note_off_c, 0, 61, 53
2, 301724, Note_off_c, 0, 64, 58
2, 301727, Note_off_c, 0, 49, 52
2, 301729, Note_off_c, 0, 52, 55
2, 301730, Note_on_c, 0, 45, 60
2, 301731, Note_on_c, 0, 57, 72
2, 301842, Note_on_c, 0, 44, 58
2, 301844, Note_on_c, 0, 56, 70
2, 301856, Note_off_c, 0, 45, 55
2, 301860, Note_off_c, 0, 57, 58
2, 301975, Note_on_c, 0, 57, 68
2, 301977, Note_on_c, 0, 45, 56
2, 301982, Note_off_c, 0, 44, 54
2, 302006, Note_off_c, 0, 56, 57
2, 302091, Note_on_c, 0, 56, 66
2, 302094, Note_on_c, 0, 44, 54
2, 302103, Note_off_c, 0, 45, 54
2, 302116, Note_off_c, 0, 57, 57
2, 302227, Note_on_c, 0, 57, 64
2, 302229, Note_on_c, 0, 45, 52
2, 302247, Note_off_c, 0, 56, 56
2, 302251, Note_off_c, 0, 44, 53
2, 302358, Note_on_c, 0, 56, 62
2, 302360, Note_on_c, 0, 44, 50
2, 302374, Note_off_c, 0, 45, 53
2, 302376, Note_off_c, 0, 57, 56
2, 302495, Note_on_c, 0, 45, 48
2, 302497, Note_on_c, 0, 57, 60
2, 302501, Note_off_c, 0, 44, 52
2, 302514, Note_off_c, 0, 56, 55
2, 302573, Note_off_c, 0, 57, 55
2, 302576, Note_off_c, 0, 45, 52
2, 302610, Note_on_c, 0, 44, 48
2, 302612, Note_on_c, 0, 56, 60
2, 302652, Control_c, 0, 64, 90
2, 302743, Note_off_c, 0, 44, 52
2, 302745, Note_off_c, 0, 56, 55
2, 302747, Note_on_c, 0, 45, 49
2, 302748, Note_on_c, 0, 57, 59
2, 302876, Note_off_c, 0, 45, 52
2, 302878, Note_off_c, 0, 57, 54
2, 302880, Note_on_c, 0, 61, 50
2, 302883, Note_on_c, 0, 49, 46
2, 302884, Note_on_c, 0, 64, 58
2, 302885, Note_on_c, 0, 52, 51
2, 303010, Note_off_c, 0, 61, 52
2, 303011, Note_off_c, 0, 64, 54
2, 303014, Control_c, 0, 64, 20
2, 303016, Note_off_c, 0, 49, 51
2, 303018, Note_off_c, 0, 52, 52
2, 303019, Note_on_c, 0, 45, 50
2, 303020, Note_on_c, 0, 57, 57
2, 303082, Note_off_c, 0, 45, 52
2, 303084, Note_off_c, 0, 57, 54
2, 303142, Note_on_c, 0, 65, 68
2, 303144, Note_on_c, 0, 47, 55
2, 303146, Note_on_c, 0, 50, 67
2, 303149, Note_on_c, 0, 62, 56
2, 303168, Control_c, 0, 64, 90
2, 303276, Note_off_c, 0, 65, 57
2, 303277, Note_off_c, 0, 47, 53
2, 303280, Note_off_c, 0, 50, 57
2, 303282, Note_off_c, 0, 62, 54
2, 303284, Note_on_c, 0, 45, 36
2, 303285, Note_on_c, 0, 57, 48
2, 303410, Note_off_c, 0, 57, 52
2, 303412, Note_off_c, 0, 45, 49
2, 303416, Note_on_c, 0, 62, 48
2, 303416, Note_on_c, 0, 50, 40
2, 303417, Note_on_c, 0, 53, 35
2, 303418, Note_on_c, 0, 59, 30
2, 303528, Note_off_c, 0, 62, 52
2, 303528, Note_off_c, 0, 53, 48
2, 303529, Note_off_c, 0, 59, 47
2, 303531, Note_off_c, 0, 50, 50
2, 303533, Note_on_c, 0, 45, 40
2, 303534, Note_on_c, 0, 57, 49
2, 303536, Control_c, 0, 64, 20
2, 303588, Note_off_c, 0, 57, 52
2, 303593, Note_off_c, 0, 45, 50
2, 303663, Note_on_c, 0, 52, 30
2, 303664, Note_on_c, 0, 61, 40
2, 303667, Note_on_c, 0, 49, 45
2, 303668, Note_on_c, 0, 64, 50
2, 303675, Control_c, 0, 64, 90
2, 303796, Note_off_c, 0, 52, 47
2, 303798, Note_off_c, 0, 61, 50
2, 303799, Note_off_c, 0, 49, 51
2, 303800, Note_off_c, 0, 64, 52
2, 303801, Note_on_c, 0, 57, 52
2, 303802, Note_on_c, 0, 45, 45
2, 303929, Note_off_c, 0, 45, 51
2, 303930, Note_off_c, 0, 57, 53
2, 303931, Note_on_c, 0, 61, 48
2, 303933, Note_on_c, 0, 49, 45
2, 303934, Note_on_c, 0, 64, 53
2, 303936, Note_on_c, 0, 52, 53
2, 304062, Note_off_c, 0, 61, 52
2, 304064, Note_off_c, 0, 64, 53
2, 304066, Note_off_c, 0, 49, 51
2, 304069, Note_off_c, 0, 52, 53
2, 304070, Note_on_c, 0, 45, 50
2, 304071, Note_on_c, 0, 57, 54
2, 304073, Control_c, 0, 64, 20
2, 304133, Note_off_c, 0, 57, 53
2, 304135, Note_off_c, 0, 45, 52
2, 304195, Note_on_c, 0, 65, 68
2, 304197, Note_on_c, 0, 47, 50
2, 304198, Note_on_c, 0, 50, 60
2, 304200, Note_on_c, 0, 62, 56
2, 304209, Control_c, 0, 64, 90
2, 304328, Note_off_c, 0, 65, 57
2, 304330, Note_off_c, 0, 50, 55
2, 304333, Note_off_c, 0, 62, 54
2, 304336, Note_off_c, 0, 47, 52
2, 304337, Note_on_c, 0, 45, 36
2, 304337, Note_on_c, 0, 57, 48
2, 304445, Note_off_c, 0, 57, 52
2, 304447, Note_off_c, 0, 45, 49
2, 304450, Note_on_c, 0, 62, 48
2, 304452, Note_on_c, 0, 50, 30
2, 304453, Note_on_c, 0, 53, 35
2, 304454, Note_on_c, 0, 59, 40
2, 304571, Control_c, 0, 64, 20
2, 304581, Note_off_c, 0, 62, 52
2, 304582, Note_off_c, 0, 53, 48
2, 304583, Note_off_c, 0, 59, 50
2, 304585, Note_off_c, 0, 50, 47
2, 304586, Note_on_c, 0, 45, 40
2, 304587, Note_on_c, 0, 57, 49
2, 304642, Note_off_c, 0, 45, 50
2, 304643, Note_off_c, 0, 57, 52
2, 304715, Note_on_c, 0, 52, 38
2, 304717, Note_on_c, 0, 61, 30
2, 304718, Note_on_c, 0, 49, 40
2, 304719, Note_on_c, 0, 64, 50
2, 304725, Control_c, 0, 64, 90
2, 304850, Note_off_c, 0, 61, 47
2, 304850, Note_off_c, 0, 64, 52
2, 304851, Note_off_c, 0, 49, 50
2, 304853, Note_off_c, 0, 52, 49
2, 304854, Note_on_c, 0, 45, 45
2, 304855, Note_on_c, 0, 57, 52
2, 304980, Note_off_c, 0, 45, 51
2, 304982, Note_off_c, 0, 57, 53
2, 304984, Note_on_c, 0, 61, 50
2, 304987, Note_on_c, 0, 64, 53
2, 304989, Note_on_c, 0, 49, 48
2, 304990, Note_on_c, 0, 52, 53
2, 305113, Note_off_c, 0, 61, 52
2, 305117, Note_off_c, 0, 64, 53
2, 305118, Control_c, 0, 64, 20
2, 305120, Note_off_c, 0, 49, 52
2, 305122, Note_off_c, 0, 52, 53
2, 305123, Note_on_c, 0, 45, 50
2, 305124, Note_on_c, 0, 57, 54
2, 305173, Note_off_c, 0, 57, 53
2, 305184, Note_off_c, 0, 45, 52
2, 305247, Note_on_c, 0, 65, 68
2, 305248, Note_on_c, 0, 47, 50
2, 305250, Note_on_c, 0, 50, 54
2, 305253, Note_on_c, 0, 62, 48
2, 305262, Control_c, 0, 64, 90
2, 305380, Note_off_c, 0, 65, 57
2, 305382, Note_off_c, 0, 50, 53
2, 305384, Note_off_c, 0, 62, 52
2, 305386, Note_off_c, 0, 47, 52
2, 305389, Note_on_c, 0, 45, 40
2, 305390, Note_on_c, 0, 57, 48
2, 305515, Note_off_c, 0, 57, 52
2, 305517, Note_off_c, 0, 45, 50
2, 305518, Note_on_c, 0, 62, 36
2, 305519, Note_on_c, 0, 50, 36
2, 305520, Note_on_c, 0, 53, 30
2, 305521, Note_on_c, 0, 59, 48
2, 305634, Control_c, 0, 64, 20
2, 305651, Note_off_c, 0, 53, 47
2, 305652, Note_off_c, 0, 59, 52
2, 305654, Note_off_c, 0, 62, 49
2, 305655, Note_off_c, 0, 50, 49
2, 305657, Note_on_c, 0, 45, 40
2, 305658, Note_on_c, 0, 57, 48
2, 305718, Note_off_c, 0, 57, 52
2, 305720, Note_off_c, 0, 45, 50
2, 305784, Note_on_c, 0, 64, 50
2, 305787, Note_on_c, 0, 61, 30
2, 305790, Note_on_c, 0, 49, 40
2, 305793, Control_c, 0, 64, 95
2, 305794, Note_on_c, 0, 57, 38
2, 305799, Note_on_c, 0, 52, 48
2, 305801, Note_on_c, 0, 45, 34
2, 306584, Note_off_c, 0, 61, 47
2, 306615, Note_off_c, 0, 49, 50
2, 306624, Note_off_c, 0, 57, 49
2, 306686, Note_off_c, 0, 52, 52
2, 306696, Note_off_c, 0, 45, 48
2, 306867, Note_off_c, 0, 64, 52
2, 306885, Note_on_c, 0, 62, 42
2, 306893, Note_on_c, 0, 57, 22
2, 306896, Note_on_c, 0, 45, 35
2, 306900, Note_on_c, 0, 33, 43
2, 306902, Note_on_c, 0, 53, 30
2, 306911, Control_c, 0, 64, 20
2, 307065, Control_c, 0, 64, 95
2, 307691, Note_off_c, 0, 53, 47
2, 307807, Note_off_c, 0, 57, 45
2, 307816, Note_off_c, 0, 45, 48
2, 307843, Note_off_c, 0, 33, 50
2, 307969, Note_off_c, 0, 62, 50
2, 308011, Control_c, 0, 64, 0
2, 308013, Note_on_c, 0, 52, 28
2, 308016, Note_on_c, 0, 61, 40
2, 308018, Note_on_c, 0, 45, 38
2, 308020, Note_on_c, 0, 33, 30
2, 308021, Note_on_c, 0, 57, 20
2, 308178, Control_c, 0, 64, 95
2, 308819, Note_off_c, 0, 52, 47
2, 308861, Note_off_c, 0, 45, 49
2, 308871, Note_off_c, 0, 61, 50
2, 308944, Note_off_c, 0, 33, 47
2, 308982, Note_off_c, 0, 57, 45
2, 309130, Note_on_c, 0, 58, 35
2, 309137, Note_on_c, 0, 50, 30
2, 309148, Note_on_c, 0, 53, 20
2, 309150, Note_on_c, 0, 45, 15
2, 309155, Note_on_c, 0, 33, 32
2, 309162, Control_c, 0, 64, 20
2, 309331, Control_c, 0, 64, 95
2, 310048, Note_off_c, 0, 45, 44
2, 310108, Note_off_c, 0, 50, 47
2, 310110, Note_off_c, 0, 53, 45
2, 310215, Note_off_c, 0, 33, 48
2, 310383, Note_off_c, 0, 58, 48
2, 310390, Note_on_c, 0, 49, 36
2, 310482, Note_off_c, 0, 49, 49
2, 310484, Note_on_c, 0, 50, 38
2, 310592, Note_off_c, 0, 50, 49
2, 310596, Note_on_c, 0, 57, 48
2, 310598, Note_on_c, 0, 45, 35
2, 310600, Note_on_c, 0, 33, 30
2, 310603, Control_c, 0, 64, 20
2, 310800, Control_c, 0, 64, 95
2, 312983, Note_off_c, 0, 45, 48
2, 313013, Note_off_c, 0, 33, 47
2, 313798, Note_off_c, 0, 57, 52
2, 313806, Note_on_c, 0, 46, 60
2, 313808, Note_on_c, 0, 58, 72
2, 313975, Control_c, 0, 64, 20
2, 314942, Note_off_c, 0, 58, 58
2, 314944, Note_on_c, 0, 57, 54
2, 314946, Note_on_c, 0, 45, 42
2, 314966, Note_off_c, 0, 46, 55
2, 315292, Note_off_c, 0, 57, 53
2, 315295, Note_on_c, 0, 55, 54
2, 315297, Note_on_c, 0, 43, 42
2, 315300, Note_off_c, 0, 45, 50
2, 315662, Note_on_c, 0, 53, 52
2, 315664, Note_on_c, 0, 41, 44
2, 315667, Note_off_c, 0, 43, 50
2, 315678, Note_off_c, 0, 55, 53
2, 316044, Note_off_c, 0, 41, 51
2, 316047, Note_off_c, 0, 53, 53
2, 316049, Note_on_c, 0, 39, 44
2, 316051, Note_on_c, 0, 51, 50
2, 316446, Note_off_c, 0, 39, 51
2, 316447, Note_off_c, 0, 51, 52
2, 316448, Note_on_c, 0, 38, 42
2, 316450, Note_on_c, 0, 50, 48
2, 316848, Note_off_c, 0, 38, 50
2, 316849, Note_off_c, 0, 50, 52
2, 316852, Note_on_c, 0, 37, 42
2, 316852, Note_on_c, 0, 49, 46
2, 317264, Note_off_c, 0, 37, 50
2, 317265, Note_off_c, 0, 49, 51
2, 317268, Note_on_c, 0, 43, 35
2, 317270, Note_on_c, 0, 55, 44
2, 317682, Note_off_c, 0, 43, 48
2, 317684, Note_off_c, 0, 55, 51
2, 317686, Note_on_c, 0, 58, 41
2, 317688, Note_on_c, 0, 46, 34
2, 318132, Note_off_c, 0, 58, 50
2, 318132, Note_off_c, 0, 46, 48
2, 318135, Note_on_c, 0, 57, 39
2, 318137, Note_on_c, 0, 45, 34
2, 318583, Note_off_c, 0, 57, 49
2, 318585, Note_off_c, 0, 45, 48
2, 318588, Note_on_c, 0, 55, 37
2, 318590, Note_on_c, 0, 43, 33
2, 319067, Note_off_c, 0, 55, 49
2, 319068, Note_off_c, 0, 43, 48
2, 319071, Note_on_c, 0, 53, 35
2, 319073, Note_on_c, 0, 41, 31
2, 319557, Note_off_c, 0, 41, 47
2, 319559, Note_off_c, 0, 53, 48
2, 319561, Note_on_c, 0, 39, 26
2, 319562, Note_on_c, 0, 51, 33
2, 320106, Note_off_c, 0, 39, 46
2, 320108, Note_off_c, 0, 51, 48
2, 320111, Note_on_c, 0, 38, 24
2, 320113, Note_on_c, 0, 50, 30
2, 320603, Control_c, 0, 67, 127
2, 320727, Note_off_c, 0, 50, 47
2, 320729, Note_off_c, 0, 38, 46
2, 320839, Control_c, 0, 64, 96
2, 320841, Note_on_c, 0, 36, 20
2, 321122, Note_on_c, 0, 40, 24
2, 321254, Note_on_c, 0, 45, 27
2, 321403, Note_on_c, 0, 49, 30
2, 321538, Note_on_c, 0, 52, 33
2, 321671, Note_on_c, 0, 57, 36
2, 324095, Note_off_c, 0, 52, 48
2, 324096, Note_off_c, 0, 49, 47
2, 324099, Note_off_c, 0, 57, 49
2, 324100, Note_on_c, 0, 61, 25
2, 324713, Note_off_c, 0, 61, 46
2, 325364, Note_on_c, 0, 64, 20
2, 326049, Note_off_c, 0, 64, 45
2, 326769, Note_off_c, 0, 40, 46
2, 326770, Note_off_c, 0, 36, 45
2, 326771, Note_off_c, 0, 45, 46
2, 327111, Note_on_c, 0, 69, 25
2, 331455, Note_off_c, 0, 69, 46
2, 331578, Note_on_c, 0, 69, 32
2, 332382, Note_off_c, 0, 69, 48
2, 332384, Note_on_c, 0, 70, 34
2, 333182, Note_off_c, 0, 70, 48
2, 333185, Note_on_c, 0, 69, 36
2, 334785, Note_off_c, 0, 69, 49
2, 334788, Note_on_c, 0, 67, 30
2, 337777, Note_off_c, 0, 67, 47
2, 337792, Note_on_c, 0, 67, 27
2, 337993, Note_off_c, 0, 67, 46
2, 337996, Note_on_c, 0, 76, 48
2, 339394, Note_off_c, 0, 76, 52
2, 339398, Note_on_c, 0, 74, 48
2, 339581, Note_off_c, 0, 74, 52
2, 339596, Note_on_c, 0, 74, 48
2, 341201, Note_off_c, 0, 74, 52
2, 341202, Note_on_c, 0, 73, 46
2, 344407, Note_off_c, 0, 73, 51
2, 344411, Note_on_c, 0, 76, 42
2, 345947, Note_off_c, 0, 76, 50
2, 346010, Note_on_c, 0, 76, 40
2, 348416, Note_off_c, 0, 76, 50
2, 348419, Note_on_c, 0, 67, 36
2, 349220, Note_off_c, 0, 67, 49
2, 349222, Note_on_c, 0, 70, 48
2, 351626, Note_off_c, 0, 70, 52
2, 351627, Note_on_c, 0, 69, 48
2, 352426, Note_off_c, 0, 69, 52
2, 352428, Note_on_c, 0, 67, 42
2, 354029, Note_off_c, 0, 67, 50
2, 354033, Note_on_c, 0, 65, 29
2, 355634, Note_off_c, 0, 65, 47
2, 355912, Control_c, 0, 67, 0
2, 356052, Control_c, 0, 64, 20
2, 357235, Note_on_c, 0, 57, 36
2, 357236, Note_on_c, 0, 49, 42
2, 357238, Note_on_c, 0, 69, 54
2, 357342, Note_off_c, 0, 57, 49
2, 357344, Note_off_c, 0, 49, 50
2, 357346, Note_on_c, 0, 67, 54
2, 357393, Note_off_c, 0, 69, 53
2, 357442, Note_off_c, 0, 67, 53
2, 357466, Note_on_c, 0, 57, 36
2, 357468, Note_on_c, 0, 50, 42
2, 357470, Note_on_c, 0, 67, 52
2, 357574, Note_off_c, 0, 57, 49
2, 357575, Note_off_c, 0, 50, 50
2, 357577, Note_on_c, 0, 65, 50
2, 357590, Note_off_c, 0, 67, 53
2, 357657, Note_off_c, 0, 65, 52
2, 357681, Note_on_c, 0, 57, 29
2, 357682, Note_on_c, 0, 52, 34
2, 357684, Note_on_c, 0, 65, 48
2, 357804, Note_off_c, 0, 57, 47
2, 357806, Note_off_c, 0, 52, 48
2, 357808, Note_on_c, 0, 64, 46
2, 357814, Note_off_c, 0, 65, 52
2, 357902, Note_off_c, 0, 64, 51
2, 357912, Note_on_c, 0, 57, 25
2, 357913, Note_on_c, 0, 53, 30
2, 357915, Note_on_c, 0, 64, 44
2, 358020, Note_off_c, 0, 57, 46
2, 358021, Note_off_c, 0, 53, 47
2, 358024, Note_on_c, 0, 62, 42
2, 358044, Note_off_c, 0, 64, 51
2, 358112, Note_off_c, 0, 62, 50
2, 358143, Note_on_c, 0, 57, 36
2, 358144, Note_on_c, 0, 49, 42
2, 358147, Note_on_c, 0, 69, 54
2, 358252, Note_off_c, 0, 57, 49
2, 358254, Note_off_c, 0, 49, 50
2, 358255, Note_on_c, 0, 67, 54
2, 358273, Note_off_c, 0, 69, 53
2, 358346, Note_off_c, 0, 67, 53
2, 358360, Note_on_c, 0, 57, 35
2, 358362, Note_on_c, 0, 50, 42
2, 358364, Note_on_c, 0, 67, 52
2, 358482, Note_off_c, 0, 50, 50
2, 358484, Note_off_c, 0, 57, 48
2, 358486, Note_on_c, 0, 65, 50
2, 358500, Note_off_c, 0, 67, 53
2, 358568, Note_off_c, 0, 65, 52
2, 358591, Note_on_c, 0, 57, 30
2, 358592, Note_on_c, 0, 52, 34
2, 358594, Note_on_c, 0, 65, 48
2, 358699, Note_off_c, 0, 57, 47
2, 358700, Note_off_c, 0, 52, 48
2, 358703, Note_on_c, 0, 64, 46
2, 358711, Note_off_c, 0, 65, 52
2, 358791, Note_off_c, 0, 64, 51
2, 358806, Note_on_c, 0, 57, 25
2, 358808, Note_on_c, 0, 53, 30
2, 358810, Note_on_c, 0, 64, 44
2, 358930, Note_off_c, 0, 53, 47
2, 358931, Note_on_c, 0, 62, 42
2, 358932, Note_off_c, 0, 57, 46
2, 358943, Note_off_c, 0, 64, 51
2, 359007, Note_off_c, 0, 62, 50
2, 359039, Note_on_c, 0, 62, 42
2, 359040, Note_on_c, 0, 54, 44
2, 359041, Note_on_c, 0, 74, 54
2, 359147, Note_off_c, 0, 62, 50
2, 359148, Note_off_c, 0, 54, 51
2, 359150, Note_on_c, 0, 72, 58
2, 359153, Note_off_c, 0, 74, 53
2, 359249, Note_off_c, 0, 72, 54
2, 359270, Note_on_c, 0, 62, 42
2, 359272, Note_on_c, 0, 55, 53
2, 359275, Note_on_c, 0, 72, 64
2, 359393, Note_off_c, 0, 62, 50
2, 359394, Note_off_c, 0, 55, 53
2, 359397, Note_on_c, 0, 70, 71
2, 359417, Note_off_c, 0, 72, 56
2, 359483, Note_off_c, 0, 70, 58
2, 359502, Note_on_c, 0, 62, 36
2, 359503, Note_on_c, 0, 57, 48
2, 359504, Note_on_c, 0, 70, 62
2, 359625, Note_off_c, 0, 62, 49
2, 359625, Note_off_c, 0, 57, 52
2, 359628, Note_on_c, 0, 69, 68
2, 359654, Note_off_c, 0, 70, 55
2, 359714, Note_off_c, 0, 69, 57
2, 359748, Note_on_c, 0, 58, 53
2, 359750, Note_on_c, 0, 62, 59
2, 359751, Note_on_c, 0, 69, 74
2, 359888, Note_off_c, 0, 62, 54
2, 359889, Note_off_c, 0, 58, 53
2, 359890, Note_on_c, 0, 67, 80
2, 359911, Note_off_c, 0, 69, 59
2, 359978, Note_off_c, 0, 67, 60
2, 360009, Note_on_c, 0, 58, 60
2, 360011, Note_on_c, 0, 62, 72
2, 360013, Note_on_c, 0, 67, 88
2, 360133, Note_off_c, 0, 58, 55
2, 360135, Note_off_c, 0, 62, 58
2, 360137, Note_on_c, 0, 68, 94
2, 360154, Note_off_c, 0, 67, 62
2, 360245, Note_off_c, 0, 68, 63
2, 360281, Note_on_c, 0, 57, 72
2, 360284, Note_on_c, 0, 62, 78
2, 360285, Note_on_c, 0, 65, 74
2, 360286, Note_on_c, 0, 68, 90
2, 360301, Control_c, 0, 64, 96
2, 361881, Control_c, 0, 64, 20
2, 361884, Note_off_c, 0, 68, 62
2, 361885, Note_on_c, 0, 69, 48
2, 362057, Control_c, 0, 64, 96
2, 362134, Note_off_c, 0, 69, 52
2, 362135, Note_on_c, 0, 68, 48
2, 362232, Note_off_c, 0, 68, 52
2, 362235, Note_on_c, 0, 66, 46
2, 362350, Note_off_c, 0, 66, 51
2, 362352, Note_on_c, 0, 68, 43
2, 362451, Note_off_c, 0, 68, 50
2, 362454, Note_on_c, 0, 71, 41
2, 363019, Note_off_c, 0, 71, 50
2, 363021, Note_on_c, 0, 69, 36
2, 363400, Note_off_c, 0, 57, 58
2, 363430, Note_off_c, 0, 62, 59
2, 363439, Note_off_c, 0, 65, 59
2, 363517, Note_off_c, 0, 69, 49
2, 363570, Note_on_c, 0, 69, 32
2, 363586, Control_c, 0, 64, 20
2, 363588, Note_on_c, 0, 64, 20
2, 363594, Note_on_c, 0, 57, 30
2, 363598, Note_on_c, 0, 61, 15
2, 363752, Control_c, 0, 64, 96
2, 368075, Note_off_c, 0, 57, 47
2, 369641, Note_off_c, 0, 61, 44
2, 370031, Note_off_c, 0, 64, 45
2, 370214, Control_c, 0, 67, 127
2, 370302, Note_off_c, 0, 69, 48
2, 370309, Note_on_c, 0, 40, 24
2, 370585, Note_on_c, 0, 43, 24
2, 370720, Note_on_c, 0, 48, 28
2, 370853, Note_on_c, 0, 52, 33
2, 371003, Note_on_c, 0, 55, 37
2, 371137, Note_on_c, 0, 60, 42
2, 373392, Note_off_c, 0, 52, 48
2, 373395, Note_off_c, 0, 60, 50
2, 373396, Note_off_c, 0, 55, 49
2, 373397, Note_on_c, 0, 64, 20
2, 373943, Note_off_c, 0, 64, 45
2, 374511, Note_on_c, 0, 67, 29
2, 375064, Note_off_c, 0, 67, 47
2, 376439, Note_on_c, 0, 72, 39
2, 380350, Note_off_c, 0, 72, 49
2, 380695, Note_off_c, 0, 40, 46
2, 380695, Note_off_c, 0, 43, 46
2, 380696, Note_off_c, 0, 48, 47
2, 380699, Note_on_c, 0, 73, 36
2, 383114, Note_off_c, 0, 73, 49
2, 383116, Note_on_c, 0, 61, 39
2, 385019, Note_off_c, 0, 61, 49
2, 385021, Note_on_c, 0, 60, 41
2, 385293, Note_off_c, 0, 60, 50
2, 385339, Note_on_c, 0, 60, 42
2, 386773, Note_off_c, 0, 60, 50
2, 386775, Note_on_c, 0, 58, 43
2, 389578, Note_off_c, 0, 58, 50
2, 389580, Note_on_c, 0, 67, 46
2, 390275, Note_off_c, 0, 67, 51
2, 390382, Note_on_c, 0, 67, 47
2, 391085, Note_off_c, 0, 67, 51
2, 391086, Note_on_c, 0, 68, 48
2, 391719, Note_off_c, 0, 68, 52
2, 391722, Note_on_c, 0, 70, 42
2, 393378, Note_off_c, 0, 70, 50
2, 393422, Note_on_c, 0, 70, 42
2, 393890, Note_off_c, 0, 70, 50
2, 393891, Note_on_c, 0, 73, 48
2, 395010, Note_off_c, 0, 73, 52
2, 395012, Note_on_c, 0, 72, 48
2, 395628, Note_off_c, 0, 72, 52
2, 395629, Note_on_c, 0, 67, 40
2, 396330, Note_off_c, 0, 67, 50
2, 396332, Note_on_c, 0, 68, 31
2, 402226, Control_c, 0, 67, 0
2, 402231, Note_off_c, 0, 68, 47
2, 402644, Control_c, 0, 64, 20
2, 402647, Note_on_c, 0, 68, 54
2, 402650, Note_on_c, 0, 37, 36
2, 402652, Note_on_c, 0, 29, 51
2, 402658, Note_on_c, 0, 41, 46
2, 402659, Note_on_c, 0, 61, 34
2, 402660, Note_on_c, 0, 56, 42
2, 402761, Note_off_c, 0, 29, 52
2, 402775, Note_off_c, 0, 37, 49
2, 402783, Note_off_c, 0, 41, 51
2, 402785, Note_off_c, 0, 61, 48
2, 402790, Note_off_c, 0, 56, 50
2, 402793, Note_off_c, 0, 68, 53
2, 403264, Note_on_c, 0, 68, 56
2, 403269, Note_on_c, 0, 56, 43
2, 403272, Note_on_c, 0, 41, 48
2, 403274, Note_on_c, 0, 61, 35
2, 403277, Note_on_c, 0, 37, 38
2, 403278, Note_on_c, 0, 29, 32
2, 403380, Note_off_c, 0, 41, 52
2, 403381, Note_off_c, 0, 56, 50
2, 403393, Note_off_c, 0, 37, 49
2, 403395, Note_off_c, 0, 29, 48
2, 403398, Note_off_c, 0, 61, 48
2, 403415, Note_off_c, 0, 68, 54
2, 403881, Note_on_c, 0, 68, 63
2, 403888, Note_on_c, 0, 56, 44
2, 403893, Note_on_c, 0, 61, 50
2, 403895, Note_on_c, 0, 29, 33
2, 403896, Note_on_c, 0, 37, 39
2, 403897, Note_on_c, 0, 41, 50
2, 404013, Note_off_c, 0, 56, 51
2, 404020, Note_off_c, 0, 41, 52
2, 404034, Note_off_c, 0, 29, 48
2, 404038, Note_off_c, 0, 61, 52
2, 404039, Note_off_c, 0, 37, 49
2, 404049, Note_off_c, 0, 68, 55
2, 404517, Note_on_c, 0, 68, 76
2, 404521, Note_on_c, 0, 29, 55
2, 404523, Note_on_c, 0, 41, 62
2, 404526, Note_on_c, 0, 37, 58
2, 404528, Note_on_c, 0, 56, 55
2, 404531, Note_on_c, 0, 61, 42
2, 404641, Note_off_c, 0, 29, 53
2, 404647, Note_off_c, 0, 37, 54
2, 404648, Note_off_c, 0, 56, 53
2, 404655, Note_off_c, 0, 61, 50
2, 404656, Note_off_c, 0, 41, 55
2, 404665, Note_off_c, 0, 68, 59
2, 405132, Control_c, 0, 64, 96
2, 405134, Note_on_c, 0, 30, 30
2, 405135, Note_on_c, 0, 69, 60
2, 405137, Note_on_c, 0, 37, 35
2, 405138, Note_on_c, 0, 42, 48
2, 405232, Note_on_c, 0, 66, 60
2, 405235, Note_off_c, 0, 69, 55
2, 405349, Note_off_c, 0, 66, 55
2, 405351, Note_on_c, 0, 61, 61
2, 405395, Note_off_c, 0, 30, 47
2, 405398, Note_off_c, 0, 42, 52
2, 405403, Note_off_c, 0, 37, 48
2, 405451, Note_off_c, 0, 61, 55
2, 405453, Note_on_c, 0, 57, 50
2, 405549, Note_off_c, 0, 57, 52
2, 405551, Note_on_c, 0, 54, 53
2, 405649, Note_off_c, 0, 54, 53
2, 405651, Note_on_c, 0, 49, 55
2, 405749, Note_off_c, 0, 49, 53
2, 405751, Note_on_c, 0, 57, 58
2, 405866, Note_off_c, 0, 57, 54
2, 405868, Note_on_c, 0, 54, 60
2, 405967, Note_off_c, 0, 54, 55
2, 405968, Note_on_c, 0, 49, 63
2, 406067, Note_off_c, 0, 49, 55
2, 406070, Note_on_c, 0, 45, 65
2, 406134, Note_off_c, 0, 45, 56
2, 406136, Note_on_c, 0, 49, 66
2, 406185, Note_off_c, 0, 49, 56
2, 406187, Note_on_c, 0, 54, 68
2, 406251, Note_off_c, 0, 54, 57
2, 406253, Note_on_c, 0, 57, 69
2, 406302, Note_off_c, 0, 57, 57
2, 406304, Note_on_c, 0, 61, 70
2, 406367, Note_off_c, 0, 61, 57
2, 406369, Note_on_c, 0, 66, 72
2, 406418, Note_off_c, 0, 66, 58
2, 406420, Note_on_c, 0, 69, 72
2, 406535, Note_off_c, 0, 69, 58
2, 406537, Note_on_c, 0, 66, 72
2, 406652, Note_off_c, 0, 66, 58
2, 406654, Note_on_c, 0, 61, 73
2, 406769, Note_off_c, 0, 61, 58
2, 406771, Note_on_c, 0, 57, 75
2, 406885, Note_off_c, 0, 57, 59
2, 406887, Note_on_c, 0, 61, 77
2, 407004, Note_off_c, 0, 61, 59
2, 407006, Note_on_c, 0, 66, 78
2, 407121, Note_off_c, 0, 66, 59
2, 407123, Note_on_c, 0, 69, 80
2, 407237, Note_off_c, 0, 69, 60
2, 407240, Note_on_c, 0, 73, 82
2, 407354, Note_off_c, 0, 73, 60
2, 407356, Note_on_c, 0, 78, 84
2, 407471, Note_off_c, 0, 78, 61
2, 407474, Note_on_c, 0, 81, 95
2, 407475, Control_c, 0, 64, 20
2, 407556, Note_off_c, 0, 81, 63
2, 407558, Note_on_c, 0, 78, 75
2, 407654, Note_off_c, 0, 78, 59
2, 407656, Note_on_c, 0, 73, 66
2, 407739, Note_off_c, 0, 73, 56
2, 407740, Note_on_c, 0, 69, 57
2, 407820, Note_off_c, 0, 69, 54
2, 407899, Note_on_c, 0, 50, 28
2, 407900, Note_on_c, 0, 69, 54
2, 407902, Note_on_c, 0, 62, 34
2, 407906, Note_on_c, 0, 57, 42
2, 407907, Note_on_c, 0, 42, 31
2, 407909, Note_on_c, 0, 54, 36
2, 408016, Note_off_c, 0, 54, 49
2, 408017, Note_off_c, 0, 57, 50
2, 408019, Note_off_c, 0, 42, 47
2, 408021, Note_off_c, 0, 62, 48
2, 408023, Note_off_c, 0, 50, 47
2, 408052, Note_off_c, 0, 69, 53
2, 408514, Note_on_c, 0, 54, 38
2, 408516, Note_on_c, 0, 57, 46
2, 408519, Note_on_c, 0, 50, 33
2, 408520, Note_on_c, 0, 69, 58
2, 408524, Note_on_c, 0, 42, 38
2, 408526, Note_on_c, 0, 62, 37
2, 408622, Note_off_c, 0, 50, 48
2, 408638, Note_off_c, 0, 62, 49
2, 408639, Note_off_c, 0, 54, 49
2, 408642, Note_off_c, 0, 57, 51
2, 408648, Note_off_c, 0, 42, 49
2, 408669, Note_off_c, 0, 69, 54
2, 409136, Note_on_c, 0, 42, 65
2, 409138, Note_on_c, 0, 69, 73
2, 409141, Note_on_c, 0, 54, 64
2, 409142, Note_on_c, 0, 50, 47
2, 409145, Note_on_c, 0, 57, 59
2, 409146, Note_on_c, 0, 62, 50
2, 409251, Note_off_c, 0, 50, 51
2, 409253, Note_off_c, 0, 54, 56
2, 409257, Note_off_c, 0, 42, 56
2, 409260, Note_off_c, 0, 62, 52
2, 409262, Note_off_c, 0, 57, 54
2, 409289, Note_off_c, 0, 69, 58
2, 409755, Note_on_c, 0, 62, 62
2, 409756, Note_on_c, 0, 42, 67
2, 409757, Note_on_c, 0, 69, 86
2, 409759, Note_on_c, 0, 57, 72
2, 409761, Note_on_c, 0, 50, 55
2, 409762, Note_on_c, 0, 54, 79
2, 409869, Note_off_c, 0, 62, 55
2, 409872, Note_off_c, 0, 42, 57
2, 409878, Note_off_c, 0, 54, 60
2, 409880, Note_off_c, 0, 57, 58
2, 409881, Note_off_c, 0, 50, 53
2, 409906, Note_off_c, 0, 69, 61
2, 410371, Control_c, 0, 64, 96
2, 410373, Note_on_c, 0, 70, 60
2, 410376, Note_on_c, 0, 43, 37
2, 410378, Note_on_c, 0, 55, 48
2, 410380, Note_on_c, 0, 50, 30
2, 410472, Note_on_c, 0, 67, 60
2, 410473, Note_off_c, 0, 70, 55
2, 410573, Note_off_c, 0, 67, 55
2, 410574, Note_on_c, 0, 62, 61
2, 410605, Note_off_c, 0, 43, 49
2, 410633, Note_off_c, 0, 55, 52
2, 410642, Note_off_c, 0, 50, 47
2, 410669, Note_off_c, 0, 62, 55
2, 410676, Note_on_c, 0, 58, 52
2, 410773, Note_off_c, 0, 58, 53
2, 410774, Note_on_c, 0, 55, 55
2, 410888, Note_off_c, 0, 55, 53
2, 410892, Note_on_c, 0, 50, 57
2, 410990, Note_off_c, 0, 50, 54
2, 410991, Note_on_c, 0, 58, 60
2, 411088, Note_off_c, 0, 58, 55
2, 411090, Note_on_c, 0, 55, 62
2, 411190, Note_off_c, 0, 55, 55
2, 411193, Note_on_c, 0, 50, 64
2, 411291, Note_off_c, 0, 50, 56
2, 411293, Note_on_c, 0, 46, 67
2, 411357, Note_off_c, 0, 46, 57
2, 411359, Note_on_c, 0, 50, 68
2, 411408, Note_off_c, 0, 50, 57
2, 411410, Note_on_c, 0, 55, 69
2, 411473, Note_off_c, 0, 55, 57
2, 411476, Note_on_c, 0, 58, 70
2, 411525, Note_off_c, 0, 58, 57
2, 411527, Note_on_c, 0, 62, 72
2, 411590, Note_off_c, 0, 62, 58
2, 411593, Note_on_c, 0, 67, 72
2, 411642, Note_off_c, 0, 67, 58
2, 411643, Note_on_c, 0, 70, 73
2, 411758, Note_off_c, 0, 70, 58
2, 411760, Note_on_c, 0, 67, 74
2, 411861, Note_off_c, 0, 67, 59
2, 411862, Note_on_c, 0, 62, 75
2, 411975, Note_off_c, 0, 62, 59
2, 411977, Note_on_c, 0, 58, 76
2, 412092, Note_off_c, 0, 58, 59
2, 412094, Note_on_c, 0, 62, 78
2, 412190, Note_off_c, 0, 62, 59
2, 412195, Note_on_c, 0, 67, 79
2, 412308, Note_off_c, 0, 67, 60
2, 412312, Note_on_c, 0, 70, 80
2, 412410, Note_off_c, 0, 70, 60
2, 412412, Note_on_c, 0, 74, 81
2, 412527, Note_off_c, 0, 74, 60
2, 412529, Note_on_c, 0, 79, 82
2, 412627, Note_off_c, 0, 79, 60
2, 412629, Control_c, 0, 64, 20
2, 412630, Note_on_c, 0, 82, 96
2, 412711, Note_off_c, 0, 82, 63
2, 412712, Note_on_c, 0, 79, 84
2, 412795, Note_off_c, 0, 79, 61
2, 412797, Note_on_c, 0, 74, 76
2, 412877, Note_off_c, 0, 74, 59
2, 412879, Note_on_c, 0, 70, 68
2, 412944, Note_off_c, 0, 70, 57
2, 413002, Note_on_c, 0, 76, 60
2, 413012, Note_on_c, 0, 61, 36
2, 413015, Note_on_c, 0, 67, 50
2, 413015, Note_on_c, 0, 55, 48
2, 413016, Note_on_c, 0, 70, 48
2, 413017, Note_on_c, 0, 58, 30
2, 413018, Note_on_c, 0, 64, 48
2, 413019, Note_on_c, 0, 73, 40
2, 413131, Note_off_c, 0, 55, 52
2, 413135, Note_off_c, 0, 64, 52
2, 413138, Note_off_c, 0, 58, 47
2, 413143, Note_off_c, 0, 61, 49
2, 413144, Note_off_c, 0, 70, 52
2, 413148, Note_off_c, 0, 67, 52
2, 413161, Note_off_c, 0, 73, 50
2, 413167, Note_off_c, 0, 76, 55
2, 413655, Note_on_c, 0, 76, 65
2, 413661, Note_on_c, 0, 70, 54
2, 413663, Note_on_c, 0, 67, 64
2, 413666, Note_on_c, 0, 61, 42
2, 413669, Note_on_c, 0, 58, 32
2, 413670, Note_on_c, 0, 64, 52
2, 413671, Note_on_c, 0, 73, 43
2, 413671, Note_on_c, 0, 55, 37
2, 413773, Note_off_c, 0, 61, 50
2, 413776, Note_off_c, 0, 55, 49
2, 413777, Note_off_c, 0, 64, 53
2, 413778, Note_off_c, 0, 67, 56
2, 413791, Note_off_c, 0, 58, 48
2, 413793, Note_off_c, 0, 73, 50
2, 413794, Note_off_c, 0, 70, 53
2, 413806, Note_off_c, 0, 76, 56
2, 414289, Note_on_c, 0, 76, 73
2, 414297, Note_on_c, 0, 64, 60
2, 414299, Note_on_c, 0, 61, 57
2, 414300, Note_on_c, 0, 55, 54
2, 414302, Note_on_c, 0, 73, 51
2, 414303, Note_on_c, 0, 67, 68
2, 414304, Note_on_c, 0, 70, 60
2, 414305, Note_on_c, 0, 58, 40
2, 414421, Note_off_c, 0, 55, 53
2, 414423, Note_off_c, 0, 67, 57
2, 414432, Note_off_c, 0, 73, 52
2, 414434, Note_off_c, 0, 58, 50
2, 414436, Note_off_c, 0, 61, 54
2, 414441, Note_off_c, 0, 64, 55
2, 414442, Note_off_c, 0, 70, 55
2, 414455, Note_off_c, 0, 76, 58
2, 414926, Note_on_c, 0, 76, 93
2, 414931, Note_on_c, 0, 55, 60
2, 414934, Note_on_c, 0, 64, 79
2, 414936, Note_on_c, 0, 58, 55
2, 414939, Note_on_c, 0, 61, 72
2, 414940, Note_on_c, 0, 70, 81
2, 414942, Note_on_c, 0, 73, 69
2, 414942, Note_on_c, 0, 67, 84
2, 415058, Note_off_c, 0, 70, 60
2, 415060, Note_off_c, 0, 58, 53
2, 415062, Note_off_c, 0, 64, 60
2, 415064, Note_off_c, 0, 55, 55
2, 415067, Note_off_c, 0, 67, 61
2, 415069, Note_off_c, 0, 73, 57
2, 415072, Note_off_c, 0, 61, 58
2, 415093, Note_off_c, 0, 76, 63
2, 415573, Control_c, 0, 64, 96
2, 415576, Note_on_c, 0, 77, 72
2, 415581, Note_on_c, 0, 62, 40
2, 415583, Note_on_c, 0, 59, 55
2, 415586, Note_on_c, 0, 65, 60
2, 415588, Note_on_c, 0, 56, 50
2, 415656, Note_on_c, 0, 74, 72
2, 415660, Note_off_c, 0, 77, 58
2, 415754, Note_off_c, 0, 74, 58
2, 415757, Note_on_c, 0, 71, 71
2, 415810, Note_off_c, 0, 62, 50
2, 415812, Note_off_c, 0, 65, 55
2, 415815, Note_off_c, 0, 56, 52
2, 415822, Note_off_c, 0, 59, 53
2, 415854, Note_off_c, 0, 71, 58
2, 415861, Note_on_c, 0, 68, 69
2, 415941, Note_off_c, 0, 68, 57
2, 415943, Note_on_c, 0, 65, 68
2, 416041, Note_off_c, 0, 65, 57
2, 416042, Note_on_c, 0, 74, 66
2, 416124, Note_off_c, 0, 74, 56
2, 416128, Note_on_c, 0, 71, 65
2, 416208, Note_off_c, 0, 71, 56
2, 416209, Note_on_c, 0, 68, 63
2, 416306, Note_off_c, 0, 68, 55
2, 416309, Note_on_c, 0, 65, 62
2, 416391, Note_off_c, 0, 65, 55
2, 416393, Note_on_c, 0, 62, 60
2, 416475, Note_off_c, 0, 62, 55
2, 416478, Note_on_c, 0, 65, 60
2, 416558, Note_off_c, 0, 65, 55
2, 416559, Note_on_c, 0, 68, 63
2, 416658, Note_off_c, 0, 68, 55
2, 416660, Note_on_c, 0, 71, 66
2, 416744, Note_off_c, 0, 71, 56
2, 416745, Note_on_c, 0, 74, 70
2, 416826, Note_off_c, 0, 74, 57
2, 416829, Note_on_c, 0, 77, 73
2, 416909, Note_off_c, 0, 77, 58
2, 416909, Note_on_c, 0, 80, 77
2, 416975, Note_off_c, 0, 80, 59
2, 416978, Note_on_c, 0, 83, 80
2, 417060, Note_off_c, 0, 83, 60
2, 417062, Note_on_c, 0, 86, 84
2, 417143, Note_off_c, 0, 86, 61
2, 417146, Control_c, 0, 64, 20
2, 417148, Note_on_c, 0, 89, 96
2, 417427, Note_off_c, 0, 89, 63
2, 417429, Note_on_c, 0, 86, 60
2, 417728, Note_off_c, 0, 86, 55
2, 417729, Note_on_c, 0, 85, 48
2, 417731, Note_on_c, 0, 57, 41
2, 417842, Note_off_c, 0, 57, 50
2, 417846, Note_on_c, 0, 69, 41
2, 417961, Note_off_c, 0, 85, 52
2, 417963, Note_off_c, 0, 69, 50
2, 417965, Note_on_c, 0, 67, 41
2, 417966, Note_on_c, 0, 64, 35
2, 418094, Note_off_c, 0, 67, 50
2, 418096, Note_off_c, 0, 64, 48
2, 418099, Note_on_c, 0, 69, 41
2, 418210, Note_off_c, 0, 69, 50
2, 418213, Note_on_c, 0, 70, 41
2, 418328, Note_off_c, 0, 70, 50
2, 418330, Note_on_c, 0, 69, 42
2, 418427, Control_c, 0, 64, 98
2, 418445, Note_off_c, 0, 69, 50
2, 418447, Note_on_c, 0, 88, 60
2, 418449, Note_on_c, 0, 67, 42
2, 418451, Note_on_c, 0, 64, 36
2, 418582, Note_off_c, 0, 64, 49
2, 418583, Note_off_c, 0, 67, 50
2, 418585, Note_on_c, 0, 69, 42
2, 418586, Note_on_c, 0, 85, 60
2, 418612, Note_off_c, 0, 88, 55
2, 418661, Note_off_c, 0, 85, 55
2, 418697, Note_off_c, 0, 69, 50
2, 418699, Note_on_c, 0, 81, 57
2, 418701, Note_on_c, 0, 57, 43
2, 418814, Note_off_c, 0, 57, 50
2, 418817, Note_on_c, 0, 82, 54
2, 418818, Note_on_c, 0, 69, 43
2, 418885, Note_off_c, 0, 81, 54
2, 418913, Note_off_c, 0, 82, 53
2, 418947, Note_off_c, 0, 69, 50
2, 418949, Note_on_c, 0, 82, 51
2, 418951, Note_on_c, 0, 67, 43
2, 418952, Note_on_c, 0, 64, 37
2, 419066, Note_off_c, 0, 67, 50
2, 419067, Note_off_c, 0, 64, 49
2, 419070, Note_on_c, 0, 69, 44
2, 419071, Note_on_c, 0, 79, 48
2, 419079, Control_c, 0, 64, 20
2, 419132, Note_off_c, 0, 82, 52
2, 419146, Note_off_c, 0, 79, 52
2, 419180, Note_off_c, 0, 69, 51
2, 419182, Note_on_c, 0, 70, 44
2, 419316, Note_off_c, 0, 70, 51
2, 419317, Note_on_c, 0, 69, 44
2, 419431, Control_c, 0, 64, 98
2, 419432, Note_off_c, 0, 69, 51
2, 419434, Note_on_c, 0, 88, 60
2, 419436, Note_on_c, 0, 64, 38
2, 419437, Note_on_c, 0, 67, 44
2, 419548, Note_off_c, 0, 67, 51
2, 419550, Note_off_c, 0, 64, 49
2, 419553, Note_on_c, 0, 69, 45
2, 419554, Note_on_c, 0, 85, 60
2, 419581, Note_off_c, 0, 88, 55
2, 419649, Note_off_c, 0, 85, 55
2, 419681, Note_off_c, 0, 69, 51
2, 419684, Note_on_c, 0, 81, 57
2, 419686, Note_on_c, 0, 57, 45
2, 419799, Note_off_c, 0, 57, 51
2, 419801, Note_on_c, 0, 69, 45
2, 419802, Note_on_c, 0, 82, 54
2, 419852, Note_off_c, 0, 81, 54
2, 419883, Note_off_c, 0, 82, 53
2, 419915, Note_off_c, 0, 69, 51
2, 419917, Note_on_c, 0, 82, 51
2, 419919, Note_on_c, 0, 64, 40
2, 419920, Note_on_c, 0, 67, 46
2, 420032, Note_off_c, 0, 67, 51
2, 420034, Note_off_c, 0, 64, 50
2, 420036, Note_on_c, 0, 69, 46
2, 420039, Note_on_c, 0, 79, 48
2, 420066, Note_off_c, 0, 82, 52
2, 420095, Control_c, 0, 64, 20
2, 420133, Note_off_c, 0, 79, 52
2, 420165, Note_off_c, 0, 69, 51
2, 420168, Note_on_c, 0, 70, 46
2, 420282, Note_off_c, 0, 70, 51
2, 420284, Note_on_c, 0, 69, 47
2, 420395, Control_c, 0, 64, 98
2, 420399, Note_off_c, 0, 69, 51
2, 420401, Note_on_c, 0, 88, 60
2, 420403, Note_on_c, 0, 67, 47
2, 420405, Note_on_c, 0, 64, 41
2, 420537, Note_off_c, 0, 67, 51
2, 420538, Note_off_c, 0, 64, 50
2, 420541, Note_on_c, 0, 69, 47
2, 420542, Note_on_c, 0, 85, 60
2, 420564, Note_off_c, 0, 88, 55
2, 420617, Note_off_c, 0, 85, 55
2, 420650, Note_off_c, 0, 69, 51
2, 420651, Note_on_c, 0, 81, 59
2, 420655, Note_on_c, 0, 57, 48
2, 420770, Note_off_c, 0, 57, 52
2, 420772, Note_on_c, 0, 69, 48
2, 420773, Note_on_c, 0, 82, 57
2, 420826, Note_off_c, 0, 81, 54
2, 420867, Note_off_c, 0, 82, 54
2, 420900, Note_off_c, 0, 69, 52
2, 420903, Note_on_c, 0, 82, 56
2, 420905, Note_on_c, 0, 67, 48
2, 420908, Note_on_c, 0, 64, 42
2, 421020, Note_off_c, 0, 64, 50
2, 421022, Note_off_c, 0, 67, 52
2, 421025, Note_on_c, 0, 69, 47
2, 421026, Note_on_c, 0, 79, 54
2, 421100, Note_off_c, 0, 82, 54
2, 421118, Note_off_c, 0, 79, 53
2, 421150, Note_off_c, 0, 69, 51
2, 421154, Note_on_c, 0, 79, 53
2, 421155, Note_on_c, 0, 57, 47
2, 421158, Control_c, 0, 64, 20
2, 421271, Note_off_c, 0, 57, 51
2, 421272, Note_on_c, 0, 77, 51
2, 421274, Note_on_c, 0, 69, 46
2, 421304, Note_off_c, 0, 79, 53
2, 421340, Control_c, 0, 64, 98
2, 421368, Note_off_c, 0, 77, 52
2, 421403, Note_off_c, 0, 69, 51
2, 421406, Note_on_c, 0, 77, 50
2, 421408, Note_on_c, 0, 61, 40
2, 421408, Note_on_c, 0, 64, 46
2, 421537, Note_off_c, 0, 61, 50
2, 421538, Note_off_c, 0, 64, 51
2, 421541, Note_on_c, 0, 69, 45
2, 421542, Note_on_c, 0, 76, 48
2, 421586, Note_off_c, 0, 77, 52
2, 421618, Note_off_c, 0, 76, 52
2, 421652, Note_off_c, 0, 69, 51
2, 421655, Note_on_c, 0, 76, 48
2, 421657, Note_on_c, 0, 57, 45
2, 421788, Note_off_c, 0, 57, 51
2, 421790, Note_on_c, 0, 69, 44
2, 421791, Note_on_c, 0, 77, 54
2, 421850, Note_off_c, 0, 76, 52
2, 421886, Note_off_c, 0, 77, 53
2, 421919, Note_off_c, 0, 69, 51
2, 421921, Note_on_c, 0, 74, 60
2, 421923, Note_on_c, 0, 65, 44
2, 421926, Note_on_c, 0, 62, 38
2, 421975, Control_c, 0, 64, 20
2, 422054, Note_off_c, 0, 74, 55
2, 422055, Note_off_c, 0, 65, 51
2, 422057, Note_off_c, 0, 62, 49
2, 422060, Note_on_c, 0, 69, 43
2, 422171, Note_off_c, 0, 69, 50
2, 422173, Note_on_c, 0, 70, 43
2, 422305, Note_off_c, 0, 70, 50
2, 422306, Note_on_c, 0, 69, 42
2, 422421, Note_off_c, 0, 69, 50
2, 422423, Control_c, 0, 64, 98
2, 422426, Note_on_c, 0, 65, 42
2, 422427, Note_on_c, 0, 62, 36
2, 422428, Note_on_c, 0, 89, 58
2, 422538, Note_off_c, 0, 89, 54
2, 422540, Note_off_c, 0, 62, 49
2, 422542, Note_off_c, 0, 65, 50
2, 422543, Note_on_c, 0, 69, 41
2, 422544, Note_on_c, 0, 86, 56
2, 422639, Note_off_c, 0, 86, 54
2, 422671, Note_off_c, 0, 69, 50
2, 422673, Note_on_c, 0, 80, 54
2, 422675, Note_on_c, 0, 57, 41
2, 422790, Note_off_c, 0, 57, 50
2, 422793, Note_on_c, 0, 81, 52
2, 422795, Note_on_c, 0, 69, 40
2, 422854, Note_off_c, 0, 80, 53
2, 422863, Note_off_c, 0, 81, 53
2, 422905, Note_off_c, 0, 69, 50
2, 422907, Note_on_c, 0, 65, 40
2, 422909, Note_on_c, 0, 81, 50
2, 422911, Note_on_c, 0, 62, 34
2, 423043, Note_off_c, 0, 62, 48
2, 423044, Note_off_c, 0, 65, 50
2, 423045, Note_off_c, 0, 81, 52
2, 423045, Note_on_c, 0, 69, 39
2, 423046, Note_on_c, 0, 77, 48
2, 423067, Control_c, 0, 64, 20
2, 423124, Note_off_c, 0, 77, 52
2, 423156, Note_off_c, 0, 69, 49
2, 423159, Note_on_c, 0, 70, 39
2, 423274, Note_off_c, 0, 70, 49
2, 423276, Note_on_c, 0, 69, 38
2, 423410, Note_off_c, 0, 69, 49
2, 423411, Note_on_c, 0, 89, 60
2, 423411, Note_on_c, 0, 62, 32
2, 423412, Note_on_c, 0, 65, 38
2, 423417, Control_c, 0, 64, 98
2, 423523, Note_off_c, 0, 62, 48
2, 423525, Note_off_c, 0, 65, 49
2, 423528, Note_on_c, 0, 69, 37
2, 423530, Note_on_c, 0, 86, 60
2, 423564, Note_off_c, 0, 89, 55
2, 423607, Note_off_c, 0, 86, 55
2, 423640, Note_off_c, 0, 69, 49
2, 423645, Note_on_c, 0, 80, 57
2, 423646, Note_on_c, 0, 57, 37
2, 423759, Note_off_c, 0, 57, 49
2, 423762, Note_on_c, 0, 81, 54
2, 423763, Note_on_c, 0, 69, 36
2, 423828, Note_off_c, 0, 80, 54
2, 423859, Note_off_c, 0, 81, 53
2, 423892, Note_off_c, 0, 69, 49
2, 423893, Note_on_c, 0, 81, 51
2, 423894, Note_on_c, 0, 65, 36
2, 423896, Note_on_c, 0, 62, 30
2, 424009, Note_off_c, 0, 65, 49
2, 424011, Note_off_c, 0, 81, 52
2, 424013, Note_off_c, 0, 62, 47
2, 424014, Note_on_c, 0, 69, 39
2, 424015, Note_on_c, 0, 77, 48
2, 424040, Control_c, 0, 64, 20
2, 424110, Note_off_c, 0, 77, 52
2, 424123, Note_off_c, 0, 69, 49
2, 424128, Note_on_c, 0, 70, 42
2, 424259, Note_off_c, 0, 70, 50
2, 424261, Note_on_c, 0, 69, 45
2, 424362, Control_c, 0, 64, 98
2, 424375, Note_off_c, 0, 69, 51
2, 424378, Note_on_c, 0, 89, 60
2, 424380, Note_on_c, 0, 65, 48
2, 424381, Note_on_c, 0, 62, 42
2, 424492, Note_off_c, 0, 65, 52
2, 424494, Note_off_c, 0, 62, 50
2, 424497, Note_on_c, 0, 86, 60
2, 424499, Note_on_c, 0, 69, 48
2, 424549, Note_off_c, 0, 89, 55
2, 424592, Note_off_c, 0, 86, 55
2, 424626, Note_off_c, 0, 69, 52
2, 424628, Note_on_c, 0, 80, 59
2, 424630, Note_on_c, 0, 57, 47
2, 424743, Note_off_c, 0, 57, 51
2, 424745, Note_on_c, 0, 69, 45
2, 424747, Note_on_c, 0, 81, 57
2, 424822, Note_off_c, 0, 80, 54
2, 424843, Note_off_c, 0, 81, 54
2, 424859, Note_off_c, 0, 69, 51
2, 424862, Note_on_c, 0, 81, 56
2, 424863, Note_on_c, 0, 62, 38
2, 424864, Note_on_c, 0, 65, 44
2, 424993, Note_off_c, 0, 81, 54
2, 424997, Note_off_c, 0, 65, 51
2, 424998, Note_off_c, 0, 62, 49
2, 425000, Note_on_c, 0, 69, 42
2, 425001, Note_on_c, 0, 77, 54
2, 425096, Note_off_c, 0, 77, 53
2, 425110, Note_off_c, 0, 69, 50
2, 425114, Control_c, 0, 64, 20
2, 425116, Note_on_c, 0, 77, 53
2, 425118, Note_on_c, 0, 57, 41
2, 425247, Note_off_c, 0, 57, 50
2, 425248, Note_on_c, 0, 76, 51
2, 425249, Note_on_c, 0, 69, 39
2, 425278, Control_c, 0, 64, 98
2, 425280, Note_off_c, 0, 77, 53
2, 425343, Note_off_c, 0, 76, 52
2, 425377, Note_off_c, 0, 69, 49
2, 425380, Note_on_c, 0, 76, 50
2, 425382, Note_on_c, 0, 65, 38
2, 425385, Note_on_c, 0, 62, 32
2, 425497, Note_off_c, 0, 62, 48
2, 425499, Note_off_c, 0, 65, 49
2, 425502, Note_on_c, 0, 69, 36
2, 425503, Note_on_c, 0, 74, 48
2, 425544, Note_off_c, 0, 76, 52
2, 425594, Note_off_c, 0, 74, 52
2, 425630, Note_off_c, 0, 69, 49
2, 425632, Note_on_c, 0, 74, 48
2, 425633, Note_on_c, 0, 57, 36
2, 425764, Note_off_c, 0, 57, 49
2, 425765, Note_on_c, 0, 69, 37
2, 425767, Note_on_c, 0, 73, 60
2, 425827, Note_off_c, 0, 74, 52
2, 425895, Note_off_c, 0, 69, 49
2, 425898, Note_off_c, 0, 73, 55
2, 425901, Note_on_c, 0, 67, 38
2, 425902, Note_on_c, 0, 76, 60
2, 425903, Note_on_c, 0, 64, 32
2, 425959, Control_c, 0, 64, 20
2, 426012, Note_off_c, 0, 67, 49
2, 426014, Note_off_c, 0, 76, 55
2, 426017, Note_off_c, 0, 64, 48
2, 426018, Note_on_c, 0, 69, 39
2, 426146, Note_off_c, 0, 69, 49
2, 426148, Note_on_c, 0, 70, 40
2, 426263, Note_off_c, 0, 70, 50
2, 426265, Note_on_c, 0, 69, 41
2, 426398, Note_off_c, 0, 69, 50
2, 426401, Note_on_c, 0, 82, 62
2, 426402, Note_on_c, 0, 67, 42
2, 426403, Note_on_c, 0, 64, 36
2, 426408, Control_c, 0, 64, 98
2, 426515, Note_off_c, 0, 67, 50
2, 426518, Note_off_c, 0, 64, 49
2, 426520, Note_on_c, 0, 69, 43
2, 426521, Note_on_c, 0, 79, 63
2, 426577, Note_off_c, 0, 82, 55
2, 426616, Note_off_c, 0, 79, 55
2, 426623, Note_on_c, 0, 75, 64
2, 426631, Note_off_c, 0, 69, 50
2, 426634, Note_on_c, 0, 57, 44
2, 426767, Note_off_c, 0, 57, 51
2, 426769, Note_on_c, 0, 76, 66
2, 426770, Note_on_c, 0, 69, 45
2, 426821, Note_off_c, 0, 75, 56
2, 426849, Note_off_c, 0, 76, 56
2, 426880, Note_off_c, 0, 69, 51
2, 426884, Note_on_c, 0, 67, 46
2, 426886, Note_on_c, 0, 73, 67
2, 426887, Note_on_c, 0, 64, 40
2, 426954, Control_c, 0, 64, 20
2, 426997, Note_off_c, 0, 73, 57
2, 426998, Note_off_c, 0, 64, 50
2, 427001, Note_off_c, 0, 67, 51
2, 427004, Note_on_c, 0, 69, 47
2, 427132, Note_off_c, 0, 69, 51
2, 427134, Note_on_c, 0, 70, 48
2, 427248, Note_off_c, 0, 70, 52
2, 427251, Note_on_c, 0, 69, 49
2, 427363, Control_c, 0, 64, 98
2, 427365, Note_off_c, 0, 69, 52
2, 427367, Note_on_c, 0, 67, 50
2, 427369, Note_on_c, 0, 82, 72
2, 427372, Note_on_c, 0, 64, 44
2, 427501, Note_off_c, 0, 64, 51
2, 427503, Note_off_c, 0, 67, 52
2, 427505, Note_off_c, 0, 82, 58
2, 427506, Note_on_c, 0, 69, 51
2, 427506, Note_on_c, 0, 79, 73
2, 427582, Note_off_c, 0, 79, 58
2, 427618, Note_off_c, 0, 69, 52
2, 427620, Note_on_c, 0, 75, 74
2, 427622, Note_on_c, 0, 57, 52
2, 427735, Note_off_c, 0, 57, 53
2, 427737, Note_on_c, 0, 76, 75
2, 427739, Note_on_c, 0, 69, 53
2, 427806, Note_off_c, 0, 75, 59
2, 427832, Note_off_c, 0, 76, 59
2, 427851, Note_off_c, 0, 69, 53
2, 427853, Note_on_c, 0, 67, 54
2, 427856, Note_on_c, 0, 64, 48
2, 427857, Note_on_c, 0, 73, 76
2, 427928, Control_c, 0, 64, 20
2, 427987, Note_off_c, 0, 64, 52
2, 427988, Note_off_c, 0, 67, 53
2, 427990, Note_off_c, 0, 73, 59
2, 427990, Note_on_c, 0, 69, 55
2, 428100, Note_off_c, 0, 69, 53
2, 428103, Note_on_c, 0, 70, 56
2, 428220, Note_off_c, 0, 70, 54
2, 428222, Note_on_c, 0, 69, 57
2, 428353, Note_off_c, 0, 69, 54
2, 428355, Note_on_c, 0, 82, 81
2, 428357, Note_on_c, 0, 64, 52
2, 428358, Note_on_c, 0, 67, 58
2, 428469, Note_off_c, 0, 67, 54
2, 428471, Note_off_c, 0, 64, 53
2, 428474, Note_on_c, 0, 69, 60
2, 428475, Note_on_c, 0, 79, 82
2, 428535, Note_off_c, 0, 82, 60
2, 428554, Note_off_c, 0, 79, 60
2, 428586, Note_off_c, 0, 69, 55
2, 428588, Note_on_c, 0, 76, 84
2, 428591, Note_on_c, 0, 57, 60
2, 428592, Note_on_c, 0, 64, 52
2, 428593, Note_on_c, 0, 67, 72
2, 428719, Note_on_c, 0, 79, 84
2, 428787, Note_off_c, 0, 76, 61
2, 428804, Note_off_c, 0, 79, 61
2, 428835, Note_off_c, 0, 64, 53
2, 428838, Note_off_c, 0, 67, 58
2, 428840, Note_off_c, 0, 57, 55
2, 428843, Note_on_c, 0, 73, 83
2, 428953, Note_on_c, 0, 76, 82
2, 429002, Note_off_c, 0, 73, 60
2, 429054, Note_off_c, 0, 76, 60
2, 429070, Note_on_c, 0, 70, 81
2, 429202, Note_on_c, 0, 73, 80
2, 429222, Note_off_c, 0, 70, 60
2, 429286, Note_off_c, 0, 73, 60
2, 429320, Note_on_c, 0, 67, 79
2, 429437, Note_on_c, 0, 70, 78
2, 429464, Note_off_c, 0, 67, 60
2, 429537, Note_off_c, 0, 70, 59
2, 429570, Note_on_c, 0, 64, 77
2, 429689, Note_on_c, 0, 67, 76
2, 429708, Note_off_c, 0, 64, 59
2, 429770, Note_off_c, 0, 67, 59
2, 429805, Note_on_c, 0, 61, 75
2, 429939, Note_on_c, 0, 64, 74
2, 429973, Note_off_c, 0, 61, 59
2, 430022, Note_off_c, 0, 64, 59
2, 430055, Note_on_c, 0, 58, 73
2, 430172, Note_on_c, 0, 61, 72
2, 430209, Note_off_c, 0, 58, 58
2, 430270, Note_off_c, 0, 61, 58
2, 430289, Note_on_c, 0, 55, 72
2, 430424, Note_on_c, 0, 58, 73
2, 430465, Note_off_c, 0, 55, 58
2, 430505, Note_off_c, 0, 58, 58
2, 430541, Note_on_c, 0, 52, 74
2, 430657, Note_on_c, 0, 55, 75
2, 430697, Note_off_c, 0, 52, 59
2, 430745, Control_c, 0, 64, 96
2, 430755, Note_off_c, 0, 55, 59
2, 430772, Note_on_c, 0, 49, 76
2, 430774, Note_on_c, 0, 37, 70
2, 430889, Note_off_c, 0, 49, 59
2, 430891, Note_off_c, 0, 37, 57
2, 430894, Note_on_c, 0, 52, 79
2, 430896, Note_on_c, 0, 40, 65
2, 431007, Note_off_c, 0, 52, 60
2, 431008, Note_off_c, 0, 40, 56
2, 431011, Note_on_c, 0, 43, 81
2, 431013, Note_on_c, 0, 31, 78
2, 431123, Note_off_c, 0, 43, 60
2, 431125, Note_off_c, 0, 31, 59
2, 431127, Note_on_c, 0, 52, 84
2, 431129, Note_on_c, 0, 40, 79
2, 431240, Note_off_c, 0, 52, 61
2, 431242, Note_off_c, 0, 40, 60
2, 431244, Note_on_c, 0, 49, 86
2, 431246, Note_on_c, 0, 37, 80
2, 431357, Note_off_c, 0, 49, 61
2, 431359, Note_off_c, 0, 37, 60
2, 431361, Note_on_c, 0, 43, 88
2, 431363, Note_on_c, 0, 31, 81
2, 431442, Note_off_c, 0, 43, 62
2, 431443, Note_off_c, 0, 31, 60
2, 431474, Control_c, 0, 64, 20
2, 431478, Note_on_c, 0, 29, 82
2, 431480, Note_on_c, 0, 41, 91
2, 431591, Note_off_c, 0, 41, 62
2, 431592, Note_off_c, 0, 29, 60
2, 431722, Note_on_c, 0, 53, 88
2, 431730, Note_on_c, 0, 62, 102
2, 431732, Note_on_c, 0, 50, 86
2, 431732, Note_on_c, 0, 57, 82
2, 431734, Note_on_c, 0, 41, 76
2, 431736, Note_on_c, 0, 45, 90
2, 431816, Note_off_c, 0, 41, 59
2, 431818, Note_off_c, 0, 45, 62
2, 431821, Note_off_c, 0, 50, 61
2, 431904, Note_off_c, 0, 57, 60
2, 431906, Note_off_c, 0, 53, 62
2, 431921, Note_off_c, 0, 62, 65
2, 431966, Note_on_c, 0, 55, 90
2, 431967, Note_on_c, 0, 43, 90
2, 431968, Control_c, 0, 64, 96
2, 431970, Note_on_c, 0, 63, 104
2, 431972, Note_on_c, 0, 46, 86
2, 431973, Note_on_c, 0, 58, 84
2, 431974, Note_on_c, 0, 51, 96
2, 432698, Note_off_c, 0, 63, 66
2, 432789, Note_off_c, 0, 51, 63
2, 432946, Note_on_c, 0, 62, 78
2, 432948, Note_on_c, 0, 50, 66
2, 433077, Note_off_c, 0, 46, 61
2, 433102, Note_off_c, 0, 43, 62
2, 433142, Note_off_c, 0, 62, 59
2, 433150, Note_off_c, 0, 55, 62
2, 433151, Note_off_c, 0, 50, 56
2, 433194, Note_on_c, 0, 49, 66
2, 433198, Note_on_c, 0, 61, 72
2, 433259, Note_off_c, 0, 58, 61
2, 433399, Note_off_c, 0, 61, 58
2, 433401, Note_off_c, 0, 49, 56
2, 433439, Control_c, 0, 64, 20
2, 433456, Note_on_c, 0, 62, 66
2, 433457, Note_on_c, 0, 50, 61
2, 433460, Note_on_c, 0, 45, 66
2, 433461, Note_on_c, 0, 41, 56
2, 433462, Note_on_c, 0, 53, 54
2, 433462, Note_on_c, 0, 57, 46
2, 433613, Note_off_c, 0, 53, 53
2, 433614, Note_off_c, 0, 57, 51
2, 433616, Note_off_c, 0, 50, 55
2, 433618, Note_off_c, 0, 41, 54
2, 433622, Note_off_c, 0, 62, 56
2, 433623, Note_off_c, 0, 45, 56
2, 433696, Note_on_c, 0, 65, 66
2, 433697, Note_on_c, 0, 62, 76
2, 433698, Note_on_c, 0, 57, 62
2, 433699, Note_on_c, 0, 74, 78
2, 433701, Note_on_c, 0, 53, 71
2, 433703, Note_on_c, 0, 69, 58
2, 433793, Note_off_c, 0, 62, 59
2, 433806, Note_off_c, 0, 57, 55
2, 433808, Note_off_c, 0, 53, 58
2, 433810, Note_off_c, 0, 74, 59
2, 433812, Note_off_c, 0, 65, 56
2, 433813, Note_off_c, 0, 69, 54
2, 433946, Note_on_c, 0, 75, 90
2, 433948, Note_on_c, 0, 58, 82
2, 433950, Note_on_c, 0, 67, 78
2, 433953, Note_on_c, 0, 55, 90
2, 433954, Note_on_c, 0, 70, 70
2, 433957, Note_on_c, 0, 63, 86
2, 433958, Control_c, 0, 64, 96
2, 434679, Note_off_c, 0, 63, 61
2, 434793, Note_off_c, 0, 75, 62
2, 434933, Note_on_c, 0, 62, 71
2, 434938, Note_on_c, 0, 74, 78
2, 435088, Note_off_c, 0, 58, 60
2, 435127, Note_off_c, 0, 62, 58
2, 435129, Note_off_c, 0, 74, 59
2, 435161, Note_off_c, 0, 70, 57
2, 435186, Note_on_c, 0, 61, 69
2, 435188, Note_on_c, 0, 73, 78
2, 435233, Note_off_c, 0, 55, 62
2, 435254, Note_off_c, 0, 67, 59
2, 435399, Control_c, 0, 64, 20
2, 435436, Note_off_c, 0, 73, 59
2, 435438, Note_off_c, 0, 61, 57
2, 435439, Note_on_c, 0, 57, 51
2, 435441, Note_on_c, 0, 69, 46
2, 435443, Note_on_c, 0, 65, 54
2, 435444, Note_on_c, 0, 62, 61
2, 435445, Note_on_c, 0, 74, 66
2, 435447, Note_on_c, 0, 53, 66
2, 435571, Note_off_c, 0, 65, 53
2, 435577, Note_off_c, 0, 74, 56
2, 435580, Note_off_c, 0, 57, 52
2, 435582, Note_off_c, 0, 69, 51
2, 435584, Note_off_c, 0, 62, 55
2, 435589, Note_off_c, 0, 53, 56
2, 435686, Note_on_c, 0, 74, 58
2, 435688, Note_on_c, 0, 86, 78
2, 435690, Note_on_c, 0, 69, 66
2, 435691, Note_on_c, 0, 65, 76
2, 435770, Note_off_c, 0, 74, 54
2, 435779, Note_off_c, 0, 69, 56
2, 435785, Note_off_c, 0, 65, 59
2, 435802, Note_off_c, 0, 86, 59
2, 435917, Note_on_c, 0, 86, 90
2, 435930, Note_on_c, 0, 75, 70
2, 435936, Control_c, 0, 64, 96
2, 435938, Note_on_c, 0, 67, 86
2, 435940, Note_on_c, 0, 70, 78
2, 436492, Note_off_c, 0, 67, 61
2, 436531, Note_off_c, 0, 70, 59
2, 436556, Note_off_c, 0, 75, 57
2, 436653, Note_off_c, 0, 86, 62
2, 436665, Control_c, 0, 64, 20
2, 436702, Note_on_c, 0, 71, 66
2, 436703, Note_on_c, 0, 76, 58
2, 436705, Note_on_c, 0, 86, 78
2, 436711, Note_on_c, 0, 68, 71
2, 436792, Note_off_c, 0, 76, 54
2, 436804, Note_off_c, 0, 68, 58
2, 436807, Note_off_c, 0, 71, 56
2, 436820, Note_off_c, 0, 86, 59
2, 436929, Note_on_c, 0, 86, 90
2, 436935, Note_on_c, 0, 69, 84
2, 436937, Control_c, 0, 64, 96
2, 436942, Note_on_c, 0, 77, 70
2, 436944, Note_on_c, 0, 72, 78
2, 437470, Note_off_c, 0, 69, 61
2, 437502, Note_off_c, 0, 72, 59
2, 437545, Note_off_c, 0, 77, 57
2, 437604, Note_off_c, 0, 86, 62
2, 437673, Note_on_c, 0, 86, 75
2, 437675, Note_on_c, 0, 78, 60
2, 437677, Note_on_c, 0, 69, 55
2, 437680, Note_on_c, 0, 72, 70
2, 437689, Control_c, 0, 64, 20
2, 437844, Control_c, 0, 64, 98
2, 437858, Note_off_c, 0, 78, 55
2, 437890, Note_off_c, 0, 69, 53
2, 437892, Note_off_c, 0, 72, 57
2, 437923, Note_on_c, 0, 74, 46
2, 437927, Note_on_c, 0, 79, 66
2, 437930, Note_on_c, 0, 70, 58
2, 438081, Note_off_c, 0, 79, 56
2, 438095, Note_off_c, 0, 74, 51
2, 438102, Note_off_c, 0, 86, 59
2, 438110, Note_off_c, 0, 70, 54
2, 438154, Note_on_c, 0, 72, 45
2, 438156, Note_on_c, 0, 86, 57
2, 438161, Note_on_c, 0, 66, 50
2, 438163, Note_on_c, 0, 81, 37
2, 438351, Note_off_c, 0, 72, 51
2, 438353, Note_off_c, 0, 81, 49
2, 438354, Note_off_c, 0, 86, 54
2, 438358, Note_off_c, 0, 66, 52
2, 438405, Note_on_c, 0, 82, 28
2, 438408, Note_on_c, 0, 70, 36
2, 438411, Note_on_c, 0, 86, 48
2, 438412, Note_on_c, 0, 67, 40
2, 438547, Note_off_c, 0, 70, 49
2, 438553, Note_off_c, 0, 82, 47
2, 438567, Note_off_c, 0, 67, 50
2, 438592, Note_off_c, 0, 86, 52
2, 438654, Note_on_c, 0, 82, 60
2, 438659, Note_on_c, 0, 67, 48
2, 438661, Note_on_c, 0, 70, 40
2, 438663, Control_c, 0, 64, 20
2, 438666, Note_on_c, 0, 63, 55
2, 438668, Note_on_c, 0, 55, 50
2, 438867, Note_off_c, 0, 67, 52
2, 438873, Note_off_c, 0, 55, 52
2, 438875, Note_off_c, 0, 63, 53
2, 438896, Control_c, 0, 64, 90
2, 438909, Note_on_c, 0, 62, 40
2, 438915, Note_on_c, 0, 57, 52
2, 438917, Note_on_c, 0, 65, 60
2, 439095, Note_off_c, 0, 70, 50
2, 439116, Note_off_c, 0, 62, 50
2, 439118, Note_off_c, 0, 65, 55
2, 439177, Note_on_c, 0, 64, 66
2, 439178, Note_on_c, 0, 69, 48
2, 439181, Note_on_c, 0, 81, 54
2, 439184, Note_on_c, 0, 61, 56
2, 439201, Control_c, 0, 64, 0
2, 439203, Note_off_c, 0, 82, 55
2, 439345, Note_off_c, 0, 57, 53
2, 439368, Note_off_c, 0, 61, 54
2, 439374, Note_off_c, 0, 69, 52
2, 439379, Note_off_c, 0, 64, 56
2, 439417, Note_off_c, 0, 81, 53
2, 439429, Note_on_c, 0, 50, 60
2, 439431, Note_on_c, 0, 62, 72
2, 439434, Note_on_c, 0, 74, 48
2, 439527, Note_off_c, 0, 50, 55
2, 439529, Note_off_c, 0, 62, 58
2, 439532, Note_off_c, 0, 74, 52
2, 439693, Note_on_c, 0, 38, 78
2, 439810, Note_off_c, 0, 38, 59
2, 439926, Note_on_c, 0, 39, 84
2, 440179, Note_on_c, 0, 54, 40
2, 440181, Note_on_c, 0, 57, 48
2, 440313, Note_off_c, 0, 54, 50
2, 440315, Note_off_c, 0, 57, 52
2, 440430, Note_on_c, 0, 55, 52
2, 440431, Note_on_c, 0, 58, 60
2, 440564, Note_off_c, 0, 55, 53
2, 440566, Note_off_c, 0, 58, 55
2, 440680, Note_on_c, 0, 58, 75
2, 440682, Note_on_c, 0, 67, 84
2, 440930, Note_on_c, 0, 38, 48
2, 441033, Note_off_c, 0, 39, 61
2, 441152, Note_off_c, 0, 67, 61
2, 441154, Note_off_c, 0, 58, 59
2, 441199, Note_on_c, 0, 58, 36
2, 441201, Note_on_c, 0, 67, 48
2, 441202, Note_on_c, 0, 37, 48
2, 441211, Note_off_c, 0, 38, 52
2, 441332, Note_off_c, 0, 58, 49
2, 441334, Note_off_c, 0, 67, 52
2, 441449, Note_on_c, 0, 57, 50
2, 441451, Note_on_c, 0, 66, 60
2, 441454, Note_on_c, 0, 38, 54
2, 441485, Note_off_c, 0, 37, 52
2, 441583, Note_off_c, 0, 57, 52
2, 441585, Note_off_c, 0, 66, 55
2, 441587, Note_off_c, 0, 38, 53
2, 441716, Note_on_c, 0, 38, 60
2, 441833, Note_off_c, 0, 38, 55
2, 441965, Note_on_c, 0, 39, 84
2, 442200, Note_on_c, 0, 54, 43
2, 442201, Note_on_c, 0, 57, 48
2, 442335, Note_off_c, 0, 54, 50
2, 442335, Note_off_c, 0, 57, 52
2, 442451, Note_on_c, 0, 55, 50
2, 442453, Note_on_c, 0, 58, 60
2, 442567, Note_off_c, 0, 55, 52
2, 442569, Note_off_c, 0, 58, 55
2, 442703, Note_on_c, 0, 67, 72
2, 442704, Note_on_c, 0, 70, 84
2, 442953, Note_on_c, 0, 38, 48
2, 442993, Note_off_c, 0, 39, 61
2, 443149, Note_off_c, 0, 70, 61
2, 443151, Note_off_c, 0, 67, 58
2, 443203, Note_on_c, 0, 67, 42
2, 443205, Note_on_c, 0, 70, 48
2, 443208, Note_on_c, 0, 37, 48
2, 443250, Note_off_c, 0, 38, 52
2, 443334, Note_off_c, 0, 67, 50
2, 443337, Note_off_c, 0, 70, 52
2, 443472, Note_on_c, 0, 66, 48
2, 443473, Note_on_c, 0, 69, 60
2, 443475, Note_on_c, 0, 38, 54
2, 443535, Note_off_c, 0, 37, 52
2, 443565, Note_off_c, 0, 38, 53
2, 443602, Note_off_c, 0, 66, 52
2, 443604, Note_off_c, 0, 69, 55
2, 443737, Note_on_c, 0, 38, 60
2, 443854, Note_off_c, 0, 38, 55
2, 443971, Note_on_c, 0, 39, 84
2, 444221, Note_on_c, 0, 54, 36
2, 444223, Note_on_c, 0, 57, 50
2, 444338, Note_off_c, 0, 54, 49
2, 444340, Note_off_c, 0, 57, 52
2, 444472, Note_on_c, 0, 55, 50
2, 444473, Note_on_c, 0, 58, 60
2, 444605, Note_off_c, 0, 55, 52
2, 444606, Note_off_c, 0, 58, 55
2, 444723, Note_on_c, 0, 67, 72
2, 444725, Note_on_c, 0, 70, 84
2, 444990, Note_on_c, 0, 38, 54
2, 445031, Note_off_c, 0, 39, 61
2, 445239, Note_off_c, 0, 67, 58
2, 445242, Note_off_c, 0, 70, 61
2, 445244, Note_on_c, 0, 79, 84
2, 445246, Note_on_c, 0, 82, 96
2, 445249, Note_on_c, 0, 37, 78
2, 445286, Note_off_c, 0, 38, 53
2, 445475, Note_off_c, 0, 37, 59
2, 445477, Note_on_c, 0, 36, 42
2, 445609, Note_off_c, 0, 36, 50
2, 445610, Note_on_c, 0, 35, 42
2, 445725, Note_off_c, 0, 79, 61
2, 445727, Note_off_c, 0, 82, 63
2, 445729, Note_off_c, 0, 35, 50
2, 445732, Note_on_c, 0, 36, 44
2, 445842, Note_off_c, 0, 36, 51
2, 445844, Note_on_c, 0, 38, 42
2, 445959, Note_off_c, 0, 38, 50
2, 445961, Note_on_c, 0, 40, 43
2, 446092, Note_off_c, 0, 40, 50
2, 446094, Note_on_c, 0, 36, 46
2, 446208, Note_off_c, 0, 36, 51
2, 446211, Note_on_c, 0, 67, 52
2, 446213, Note_on_c, 0, 70, 60
2, 446215, Note_on_c, 0, 38, 44
2, 446325, Note_off_c, 0, 38, 51
2, 446327, Note_on_c, 0, 40, 44
2, 446461, Note_off_c, 0, 40, 51
2, 446465, Note_on_c, 0, 65, 40
2, 446468, Note_on_c, 0, 69, 48
2, 446468, Note_on_c, 0, 41, 45
2, 446483, Note_off_c, 0, 67, 53
2, 446513, Note_off_c, 0, 70, 55
2, 446565, Note_off_c, 0, 69, 52
2, 446572, Note_off_c, 0, 65, 50
2, 446577, Note_off_c, 0, 41, 51
2, 446580, Note_on_c, 0, 40, 45
2, 446694, Note_off_c, 0, 40, 51
2, 446696, Note_on_c, 0, 41, 46
2, 446827, Note_off_c, 0, 41, 51
2, 446830, Note_on_c, 0, 43, 46
2, 446944, Note_off_c, 0, 43, 51
2, 446946, Note_on_c, 0, 45, 46
2, 447061, Note_off_c, 0, 45, 51
2, 447063, Note_on_c, 0, 44, 47
2, 447178, Note_off_c, 0, 44, 51
2, 447180, Note_on_c, 0, 77, 45
2, 447182, Note_on_c, 0, 81, 60
2, 447184, Note_on_c, 0, 45, 47
2, 447311, Note_off_c, 0, 45, 51
2, 447313, Note_on_c, 0, 44, 48
2, 447431, Note_off_c, 0, 44, 52
2, 447433, Note_on_c, 0, 76, 36
2, 447434, Note_on_c, 0, 79, 48
2, 447436, Note_on_c, 0, 45, 48
2, 447493, Note_off_c, 0, 81, 55
2, 447502, Note_off_c, 0, 77, 51
2, 447531, Note_off_c, 0, 79, 52
2, 447536, Note_off_c, 0, 76, 49
2, 447546, Note_off_c, 0, 45, 52
2, 447547, Note_on_c, 0, 44, 49
2, 447680, Note_off_c, 0, 44, 52
2, 447682, Note_on_c, 0, 45, 49
2, 447797, Note_off_c, 0, 45, 52
2, 447799, Note_on_c, 0, 47, 50
2, 447913, Note_off_c, 0, 47, 52
2, 447916, Note_on_c, 0, 49, 50
2, 448049, Note_off_c, 0, 49, 52
2, 448050, Note_on_c, 0, 45, 50
2, 448165, Note_off_c, 0, 45, 52
2, 448167, Note_on_c, 0, 64, 50
2, 448168, Note_on_c, 0, 47, 51
2, 448169, Note_on_c, 0, 67, 60
2, 448281, Note_off_c, 0, 47, 52
2, 448284, Note_on_c, 0, 49, 51
2, 448399, Note_off_c, 0, 49, 52
2, 448403, Note_on_c, 0, 62, 40
2, 448405, Note_on_c, 0, 65, 48
2, 448406, Note_on_c, 0, 50, 52
2, 448439, Note_off_c, 0, 67, 55
2, 448452, Note_off_c, 0, 64, 52
2, 448509, Note_off_c, 0, 65, 52
2, 448513, Note_off_c, 0, 62, 50
2, 448531, Note_off_c, 0, 50, 53
2, 448534, Note_on_c, 0, 49, 52
2, 448648, Note_off_c, 0, 49, 53
2, 448651, Note_on_c, 0, 50, 53
2, 448765, Note_off_c, 0, 50, 53
2, 448767, Note_on_c, 0, 52, 53
2, 448901, Note_off_c, 0, 52, 53
2, 448903, Note_on_c, 0, 53, 54
2, 449015, Note_off_c, 0, 53, 53
2, 449017, Note_on_c, 0, 50, 54
2, 449132, Note_off_c, 0, 50, 53
2, 449134, Note_on_c, 0, 77, 52
2, 449137, Note_on_c, 0, 52, 54
2, 449138, Note_on_c, 0, 74, 40
2, 449265, Note_off_c, 0, 52, 53
2, 449267, Note_on_c, 0, 53, 55
2, 449369, Note_off_c, 0, 53, 53
2, 449382, Note_on_c, 0, 76, 56
2, 449384, Note_on_c, 0, 55, 54
2, 449416, Note_off_c, 0, 77, 53
2, 449426, Note_off_c, 0, 74, 50
2, 449493, Note_off_c, 0, 76, 54
2, 449498, Note_off_c, 0, 55, 53
2, 449501, Note_on_c, 0, 54, 56
2, 449634, Note_off_c, 0, 54, 54
2, 449635, Note_on_c, 0, 55, 57
2, 449749, Note_off_c, 0, 55, 54
2, 449753, Note_on_c, 0, 57, 58
2, 449868, Note_off_c, 0, 57, 54
2, 449870, Note_on_c, 0, 58, 58
2, 449985, Note_off_c, 0, 58, 54
2, 449987, Note_on_c, 0, 55, 65
2, 450118, Note_off_c, 0, 55, 56
2, 450120, Note_on_c, 0, 76, 66
2, 450122, Note_on_c, 0, 86, 74
2, 450123, Note_on_c, 0, 57, 66
2, 450234, Note_off_c, 0, 57, 56
2, 450237, Note_on_c, 0, 58, 67
2, 450337, Note_off_c, 0, 58, 57
2, 450352, Note_on_c, 0, 85, 78
2, 450353, Note_on_c, 0, 57, 67
2, 450372, Note_off_c, 0, 76, 56
2, 450375, Note_off_c, 0, 86, 59
2, 450443, Note_off_c, 0, 85, 59
2, 450485, Note_off_c, 0, 57, 57
2, 450487, Note_on_c, 0, 56, 62
2, 450602, Note_off_c, 0, 56, 55
2, 450604, Note_on_c, 0, 57, 62
2, 450718, Note_off_c, 0, 57, 55
2, 450720, Note_on_c, 0, 56, 63
2, 450854, Note_off_c, 0, 56, 55
2, 450855, Note_on_c, 0, 57, 64
2, 450970, Note_off_c, 0, 57, 56
2, 450972, Note_on_c, 0, 56, 64
2, 451087, Note_off_c, 0, 56, 56
2, 451089, Note_on_c, 0, 64, 72
2, 451091, Note_on_c, 0, 73, 84
2, 451093, Note_on_c, 0, 57, 65
2, 451203, Note_off_c, 0, 57, 56
2, 451206, Note_on_c, 0, 45, 60
2, 451316, Note_off_c, 0, 45, 55
2, 451339, Note_off_c, 0, 64, 58
2, 451340, Note_off_c, 0, 73, 61
2, 451342, Note_on_c, 0, 57, 38
2, 451344, Note_on_c, 0, 45, 40
2, 451345, Note_on_c, 0, 74, 48
2, 451352, Note_on_c, 0, 53, 30
2, 451399, Control_c, 0, 64, 90
2, 451455, Note_on_c, 0, 69, 48
2, 451475, Note_off_c, 0, 74, 52
2, 451572, Note_on_c, 0, 65, 49
2, 451577, Note_off_c, 0, 69, 52
2, 451705, Note_on_c, 0, 77, 51
2, 451708, Note_off_c, 0, 53, 48
2, 451728, Note_off_c, 0, 65, 52
2, 451822, Note_off_c, 0, 57, 49
2, 451824, Note_on_c, 0, 55, 54
2, 451827, Note_on_c, 0, 76, 53
2, 451832, Note_off_c, 0, 77, 52
2, 451836, Note_on_c, 0, 52, 45
2, 451848, Control_c, 0, 64, 20
2, 451955, Note_on_c, 0, 73, 54
2, 451960, Note_off_c, 0, 76, 53
2, 452014, Control_c, 0, 64, 90
2, 452073, Note_on_c, 0, 69, 56
2, 452084, Note_off_c, 0, 73, 53
2, 452208, Note_on_c, 0, 79, 58
2, 452220, Note_off_c, 0, 52, 51
2, 452222, Note_off_c, 0, 69, 54
2, 452322, Note_off_c, 0, 55, 53
2, 452325, Note_on_c, 0, 77, 60
2, 452327, Note_on_c, 0, 53, 60
2, 452334, Note_off_c, 0, 79, 54
2, 452336, Note_on_c, 0, 50, 51
2, 452385, Control_c, 0, 64, 20
2, 452460, Note_on_c, 0, 74, 60
2, 452465, Note_off_c, 0, 77, 55
2, 452550, Control_c, 0, 64, 90
2, 452592, Note_on_c, 0, 69, 58
2, 452615, Note_off_c, 0, 74, 55
2, 452708, Note_on_c, 0, 81, 56
2, 452711, Note_off_c, 0, 50, 52
2, 452721, Note_off_c, 0, 69, 54
2, 452842, Note_off_c, 0, 53, 55
2, 452845, Note_on_c, 0, 52, 48
2, 452847, Note_on_c, 0, 80, 54
2, 452855, Note_on_c, 0, 49, 40
2, 452859, Note_off_c, 0, 45, 50
2, 452861, Note_off_c, 0, 81, 54
2, 452900, Control_c, 0, 64, 20
2, 452976, Note_on_c, 0, 81, 52
2, 452989, Note_off_c, 0, 80, 53
2, 453058, Control_c, 0, 64, 90
2, 453092, Note_off_c, 0, 81, 53
2, 453095, Note_on_c, 0, 80, 50
2, 453158, Note_off_c, 0, 49, 50
2, 453225, Note_off_c, 0, 52, 52
2, 453228, Note_on_c, 0, 81, 48
2, 453229, Note_off_c, 0, 80, 52
2, 453342, Note_off_c, 0, 81, 52
2, 453378, Note_on_c, 0, 81, 48
2, 453380, Note_on_c, 0, 50, 36
2, 453382, Note_on_c, 0, 69, 30
2, 453390, Note_on_c, 0, 77, 36
2, 453417, Control_c, 0, 64, 20
2, 453495, Note_off_c, 0, 50, 49
2, 453497, Note_on_c, 0, 45, 36
2, 453583, Control_c, 0, 64, 90
2, 453630, Note_off_c, 0, 45, 49
2, 453632, Note_on_c, 0, 41, 37
2, 453747, Note_off_c, 0, 41, 49
2, 453749, Note_on_c, 0, 50, 39
2, 453793, Note_off_c, 0, 77, 49
2, 453823, Note_off_c, 0, 69, 47
2, 453880, Note_off_c, 0, 81, 52
2, 453885, Note_off_c, 0, 50, 49
2, 453885, Note_on_c, 0, 79, 54
2, 453886, Note_on_c, 0, 52, 41
2, 453892, Note_on_c, 0, 76, 42
2, 453898, Note_on_c, 0, 67, 36
2, 453955, Control_c, 0, 64, 20
2, 453996, Note_off_c, 0, 52, 50
2, 453999, Note_on_c, 0, 49, 42
2, 454108, Control_c, 0, 64, 90
2, 454114, Note_off_c, 0, 49, 50
2, 454115, Note_on_c, 0, 45, 44
2, 454246, Note_off_c, 0, 45, 51
2, 454248, Note_on_c, 0, 52, 46
2, 454295, Note_off_c, 0, 76, 50
2, 454316, Note_off_c, 0, 67, 49
2, 454362, Note_off_c, 0, 79, 53
2, 454367, Note_off_c, 0, 52, 51
2, 454370, Note_on_c, 0, 77, 60
2, 454372, Note_on_c, 0, 53, 48
2, 454379, Note_on_c, 0, 74, 50
2, 454384, Note_on_c, 0, 65, 40
2, 454460, Control_c, 0, 64, 20
2, 454498, Note_off_c, 0, 53, 52
2, 454501, Note_on_c, 0, 50, 48
2, 454625, Control_c, 0, 64, 90
2, 454631, Note_off_c, 0, 50, 52
2, 454634, Note_on_c, 0, 45, 46
2, 454748, Note_off_c, 0, 45, 51
2, 454752, Note_off_c, 0, 74, 52
2, 454752, Note_on_c, 0, 57, 44
2, 454774, Note_off_c, 0, 65, 50
2, 454882, Note_off_c, 0, 77, 55
2, 454884, Note_off_c, 0, 57, 51
2, 454887, Note_on_c, 0, 76, 48
2, 454889, Note_on_c, 0, 56, 41
2, 454898, Note_on_c, 0, 64, 35
2, 454900, Note_on_c, 0, 73, 40
2, 454966, Control_c, 0, 64, 20
2, 455017, Note_off_c, 0, 56, 50
2, 455019, Note_on_c, 0, 57, 39
2, 455123, Control_c, 0, 64, 90
2, 455149, Note_off_c, 0, 57, 49
2, 455151, Note_on_c, 0, 56, 36
2, 455200, Note_off_c, 0, 73, 50
2, 455217, Note_off_c, 0, 64, 48
2, 455267, Note_off_c, 0, 76, 52
2, 455269, Note_off_c, 0, 56, 49
2, 455271, Note_on_c, 0, 57, 36
2, 455400, Note_off_c, 0, 57, 49
2, 455402, Note_on_c, 0, 45, 30
2, 455403, Note_on_c, 0, 74, 36
2, 455433, Control_c, 0, 64, 20
2, 455519, Note_on_c, 0, 69, 36
2, 455527, Note_off_c, 0, 74, 49
2, 455592, Control_c, 0, 64, 90
2, 455652, Note_on_c, 0, 57, 40
2, 455654, Note_on_c, 0, 65, 37
2, 455657, Note_off_c, 0, 69, 49
2, 455665, Note_on_c, 0, 53, 30
2, 455768, Note_on_c, 0, 77, 39
2, 455776, Note_off_c, 0, 65, 49
2, 455810, Note_off_c, 0, 45, 47
2, 455877, Note_off_c, 0, 77, 49
2, 455900, Note_on_c, 0, 76, 41
2, 455901, Note_on_c, 0, 45, 45
2, 455942, Control_c, 0, 64, 20
2, 456018, Note_on_c, 0, 73, 42
2, 456040, Note_off_c, 0, 76, 50
2, 456042, Note_off_c, 0, 53, 47
2, 456106, Control_c, 0, 64, 90
2, 456135, Note_off_c, 0, 57, 50
2, 456138, Note_on_c, 0, 55, 48
2, 456140, Note_on_c, 0, 69, 44
2, 456142, Note_off_c, 0, 73, 50
2, 456148, Note_on_c, 0, 52, 40
2, 456268, Note_on_c, 0, 79, 46
2, 456288, Note_off_c, 0, 69, 51
2, 456289, Note_off_c, 0, 45, 51
2, 456374, Note_off_c, 0, 79, 51
2, 456402, Note_on_c, 0, 45, 40
2, 456404, Note_on_c, 0, 77, 48
2, 456438, Control_c, 0, 64, 20
2, 456518, Note_on_c, 0, 74, 48
2, 456526, Note_off_c, 0, 77, 52
2, 456593, Control_c, 0, 64, 90
2, 456606, Note_off_c, 0, 52, 50
2, 456654, Note_off_c, 0, 55, 52
2, 456656, Note_off_c, 0, 74, 52
2, 456657, Note_on_c, 0, 53, 44
2, 456659, Note_on_c, 0, 69, 46
2, 456665, Note_on_c, 0, 50, 44
2, 456771, Note_on_c, 0, 81, 45
2, 456777, Note_off_c, 0, 69, 51
2, 456825, Note_off_c, 0, 45, 50
2, 456904, Note_on_c, 0, 45, 39
2, 456906, Note_on_c, 0, 80, 42
2, 456907, Note_off_c, 0, 81, 51
2, 456953, Control_c, 0, 64, 20
2, 457040, Note_on_c, 0, 81, 40
2, 457057, Note_off_c, 0, 80, 50
2, 457065, Note_off_c, 0, 50, 51
2, 457121, Control_c, 0, 64, 90
2, 457171, Note_off_c, 0, 81, 50
2, 457173, Note_off_c, 0, 53, 51
2, 457175, Note_on_c, 0, 52, 30
2, 457176, Note_on_c, 0, 80, 38
2, 457184, Note_on_c, 0, 49, 24
2, 457288, Note_on_c, 0, 81, 36
2, 457291, Note_off_c, 0, 80, 49
2, 457341, Note_off_c, 0, 49, 46
2, 457354, Note_off_c, 0, 52, 47
2, 457421, Note_off_c, 0, 45, 49
2, 457424, Note_on_c, 0, 69, 48
2, 457426, Note_on_c, 0, 50, 36
2, 457438, Note_off_c, 0, 81, 49
2, 457555, Note_on_c, 0, 45, 36
2, 457570, Note_off_c, 0, 50, 49
2, 457672, Note_on_c, 0, 81, 60
2, 457674, Note_off_c, 0, 45, 49
2, 457677, Note_on_c, 0, 41, 38
2, 457679, Note_on_c, 0, 77, 42
2, 457696, Control_c, 0, 64, 20
2, 457789, Note_on_c, 0, 50, 40
2, 457803, Note_off_c, 0, 41, 49
2, 457861, Control_c, 0, 64, 90
2, 457923, Note_on_c, 0, 52, 42
2, 457934, Note_off_c, 0, 50, 50
2, 458039, Note_on_c, 0, 49, 44
2, 458053, Note_off_c, 0, 52, 50
2, 458116, Note_off_c, 0, 77, 50
2, 458172, Note_off_c, 0, 81, 55
2, 458174, Note_off_c, 0, 69, 52
2, 458177, Note_on_c, 0, 79, 58
2, 458181, Note_on_c, 0, 45, 46
2, 458182, Note_on_c, 0, 76, 50
2, 458183, Note_on_c, 0, 67, 42
2, 458195, Note_off_c, 0, 49, 51
2, 458242, Control_c, 0, 64, 20
2, 458290, Note_on_c, 0, 52, 48
2, 458305, Note_off_c, 0, 45, 51
2, 458399, Control_c, 0, 64, 90
2, 458423, Note_on_c, 0, 53, 48
2, 458433, Note_off_c, 0, 52, 52
2, 458558, Note_on_c, 0, 50, 46
2, 458580, Note_off_c, 0, 53, 52
2, 458620, Note_off_c, 0, 67, 50
2, 458647, Note_off_c, 0, 76, 52
2, 458692, Note_off_c, 0, 79, 54
2, 458695, Note_on_c, 0, 77, 52
2, 458697, Note_on_c, 0, 45, 44
2, 458700, Note_off_c, 0, 50, 51
2, 458707, Note_on_c, 0, 74, 45
2, 458708, Note_on_c, 0, 65, 40
2, 458807, Control_c, 0, 64, 20
2, 458809, Note_on_c, 0, 57, 42
2, 458819, Note_off_c, 0, 45, 51
2, 458942, Note_on_c, 0, 56, 40
2, 458945, Note_off_c, 0, 57, 50
2, 458971, Control_c, 0, 64, 90
2, 459075, Note_on_c, 0, 57, 38
2, 459082, Note_off_c, 0, 56, 50
2, 459103, Note_off_c, 0, 65, 50
2, 459109, Note_off_c, 0, 74, 51
2, 459209, Note_off_c, 0, 77, 53
2, 459214, Note_on_c, 0, 76, 48
2, 459216, Note_on_c, 0, 56, 36
2, 459220, Note_on_c, 0, 73, 40
2, 459222, Note_on_c, 0, 64, 35
2, 459236, Note_off_c, 0, 57, 49
2, 459342, Note_on_c, 0, 57, 36
2, 459369, Note_off_c, 0, 56, 49
2, 459376, Note_off_c, 0, 73, 50
2, 459397, Note_off_c, 0, 64, 48
2, 459411, Note_off_c, 0, 76, 52
2, 459475, Note_off_c, 0, 57, 49
2, 459478, Note_on_c, 0, 74, 36
2, 459480, Note_on_c, 0, 45, 30
2, 459487, Control_c, 0, 64, 20
2, 459609, Note_on_c, 0, 69, 36
2, 459625, Note_off_c, 0, 74, 49
2, 459644, Control_c, 0, 64, 90
2, 459728, Note_on_c, 0, 65, 38
2, 459729, Note_on_c, 0, 57, 40
2, 459737, Note_on_c, 0, 53, 35
2, 459743, Note_off_c, 0, 69, 49
2, 459843, Note_on_c, 0, 77, 40
2, 459866, Note_off_c, 0, 65, 49
2, 459868, Note_off_c, 0, 45, 47
2, 459947, Note_off_c, 0, 77, 50
2, 459976, Note_on_c, 0, 76, 42
2, 459978, Note_on_c, 0, 45, 45
2, 459994, Control_c, 0, 64, 20
2, 460096, Note_on_c, 0, 73, 44
2, 460113, Note_off_c, 0, 76, 50
2, 460162, Control_c, 0, 64, 90
2, 460192, Note_off_c, 0, 53, 48
2, 460228, Note_off_c, 0, 57, 50
2, 460231, Note_on_c, 0, 55, 48
2, 460233, Note_on_c, 0, 69, 46
2, 460239, Note_on_c, 0, 52, 38
2, 460245, Note_off_c, 0, 73, 51
2, 460346, Note_on_c, 0, 79, 48
2, 460367, Note_off_c, 0, 69, 51
2, 460391, Note_off_c, 0, 45, 51
2, 460479, Note_on_c, 0, 77, 48
2, 460481, Note_off_c, 0, 79, 52
2, 460484, Note_on_c, 0, 45, 48
2, 460540, Control_c, 0, 64, 20
2, 460596, Note_on_c, 0, 74, 46
2, 460615, Note_off_c, 0, 77, 52
2, 460671, Note_off_c, 0, 52, 49
2, 460687, Control_c, 0, 64, 90
2, 460729, Note_off_c, 0, 55, 52
2, 460732, Note_on_c, 0, 53, 44
2, 460733, Note_on_c, 0, 69, 44
2, 460736, Note_on_c, 0, 50, 36
2, 460753, Note_off_c, 0, 74, 51
2, 460862, Note_on_c, 0, 81, 42
2, 460877, Note_off_c, 0, 69, 51
2, 460900, Note_off_c, 0, 45, 52
2, 460980, Note_on_c, 0, 45, 39
2, 460982, Note_on_c, 0, 80, 40
2, 460984, Note_off_c, 0, 81, 50
2, 461047, Control_c, 0, 64, 20
2, 461112, Note_on_c, 0, 81, 38
2, 461133, Note_off_c, 0, 80, 50
2, 461187, Note_off_c, 0, 50, 49
2, 461214, Control_c, 0, 64, 90
2, 461248, Note_off_c, 0, 53, 51
2, 461250, Note_on_c, 0, 80, 36
2, 461250, Note_on_c, 0, 52, 36
2, 461252, Note_on_c, 0, 49, 32
2, 461266, Note_off_c, 0, 81, 49
2, 461383, Note_on_c, 0, 81, 36
2, 461386, Note_off_c, 0, 80, 49
2, 461425, Note_off_c, 0, 49, 48
2, 461447, Note_off_c, 0, 52, 49
2, 461515, Note_off_c, 0, 45, 49
2, 461518, Note_on_c, 0, 77, 36
2, 461519, Note_on_c, 0, 38, 34
2, 461524, Note_off_c, 0, 81, 49
2, 461564, Control_c, 0, 64, 20
2, 461632, Note_on_c, 0, 74, 40
2, 461640, Note_off_c, 0, 77, 49
2, 461710, Control_c, 0, 64, 90
2, 461766, Note_off_c, 0, 38, 48
2, 461768, Note_on_c, 0, 69, 45
2, 461770, Note_on_c, 0, 50, 45
2, 461772, Note_off_c, 0, 74, 50
2, 461882, Note_on_c, 0, 81, 49
2, 461892, Note_off_c, 0, 69, 51
2, 462015, Note_off_c, 0, 50, 51
2, 462018, Note_on_c, 0, 80, 54
2, 462020, Note_on_c, 0, 45, 54
2, 462022, Note_off_c, 0, 81, 52
2, 462051, Control_c, 0, 64, 20
2, 462149, Note_on_c, 0, 81, 58
2, 462166, Note_off_c, 0, 80, 53
2, 462216, Control_c, 0, 64, 90
2, 462266, Note_off_c, 0, 45, 53
2, 462268, Note_on_c, 0, 49, 50
2, 462270, Note_on_c, 0, 52, 58
2, 462273, Note_on_c, 0, 80, 63
2, 462274, Note_off_c, 0, 81, 54
2, 462400, Note_on_c, 0, 81, 67
2, 462407, Note_off_c, 0, 80, 55
2, 462532, Note_off_c, 0, 52, 54
2, 462534, Note_off_c, 0, 49, 52
2, 462537, Note_on_c, 0, 77, 72
2, 462538, Note_on_c, 0, 50, 72
2, 462562, Note_off_c, 0, 81, 57
2, 462586, Control_c, 0, 64, 20
2, 462668, Note_on_c, 0, 74, 72
2, 462696, Note_off_c, 0, 77, 58
2, 462752, Control_c, 0, 64, 90
2, 462801, Note_off_c, 0, 50, 58
2, 462803, Note_on_c, 0, 53, 69
2, 462805, Note_on_c, 0, 69, 69
2, 462810, Note_off_c, 0, 74, 58
2, 462936, Note_on_c, 0, 81, 65
2, 462954, Note_off_c, 0, 69, 57
2, 463085, Note_off_c, 0, 53, 57
2, 463088, Note_on_c, 0, 80, 61
2, 463090, Note_on_c, 0, 45, 61
2, 463093, Control_c, 0, 64, 20
2, 463116, Note_off_c, 0, 81, 56
2, 463219, Note_on_c, 0, 81, 57
2, 463227, Note_off_c, 0, 80, 55
2, 463251, Control_c, 0, 64, 90
2, 463368, Note_off_c, 0, 45, 55
2, 463371, Note_on_c, 0, 52, 50
2, 463372, Note_on_c, 0, 80, 53
2, 463375, Note_off_c, 0, 81, 54
2, 463376, Note_on_c, 0, 49, 44
2, 463519, Note_on_c, 0, 81, 49
2, 463529, Note_off_c, 0, 80, 53
2, 463639, Control_c, 0, 64, 20
2, 463672, Note_off_c, 0, 81, 52
2, 463674, Note_off_c, 0, 49, 51
2, 463675, Note_off_c, 0, 52, 52
2, 463676, Note_on_c, 0, 74, 45
2, 463680, Note_on_c, 0, 50, 40
2, 463683, Note_on_c, 0, 38, 50
2, 463805, Control_c, 0, 64, 90
2, 463880, Note_off_c, 0, 38, 52
2, 463888, Note_off_c, 0, 50, 50
2, 463985, Note_off_c, 0, 74, 51
2, 464326, Note_on_c, 0, 62, 45
2, 464339, Note_on_c, 0, 38, 33
2, 464342, Note_on_c, 0, 50, 39
2, 464347, Control_c, 0, 64, 20
2, 464510, Control_c, 0, 64, 80
2, 464853, Note_off_c, 0, 50, 49
2, 464862, Note_off_c, 0, 38, 48
2, 464874, Note_off_c, 0, 62, 51
2, 465012, Note_on_c, 0, 62, 51
2, 465020, Note_on_c, 0, 38, 39
2, 465028, Note_on_c, 0, 50, 45
2, 465445, Note_off_c, 0, 38, 49
2, 465482, Note_off_c, 0, 50, 51
2, 465568, Note_off_c, 0, 62, 52
2, 465750, Note_on_c, 0, 62, 58
2, 465767, Note_on_c, 0, 50, 51
2, 465769, Note_on_c, 0, 38, 45
2, 466327, Note_off_c, 0, 50, 52
2, 466362, Note_off_c, 0, 38, 51
2, 466444, Control_c, 0, 67, 127
2, 466460, Note_off_c, 0, 62, 54
2, 466673, Control_c, 0, 64, 96
2, 466675, Note_on_c, 0, 62, 40
2, 466675, Note_on_c, 0, 38, 36
2, 466676, Note_on_c, 0, 53, 24
2, 466677, Note_on_c, 0, 57, 30
2, 466803, Note_on_c, 0, 33, 36
2, 466805, Note_off_c, 0, 38, 49
2, 466935, Note_on_c, 0, 29, 36
2, 466958, Note_off_c, 0, 33, 49
2, 467071, Note_on_c, 0, 41, 36
2, 467093, Note_off_c, 0, 29, 49
2, 467205, Note_on_c, 0, 38, 36
2, 467211, Note_off_c, 0, 41, 49
2, 467352, Note_off_c, 0, 38, 49
2, 467354, Note_on_c, 0, 33, 36
2, 467487, Note_on_c, 0, 45, 36
2, 467506, Note_off_c, 0, 33, 49
2, 467638, Note_on_c, 0, 41, 35
2, 467642, Note_off_c, 0, 45, 49
2, 467774, Note_on_c, 0, 38, 35
2, 467784, Note_off_c, 0, 41, 48
2, 467923, Note_on_c, 0, 33, 35
2, 467931, Note_off_c, 0, 38, 48
2, 468056, Note_on_c, 0, 29, 35
2, 468064, Note_off_c, 0, 33, 48
2, 468207, Note_on_c, 0, 41, 35
2, 468219, Note_off_c, 0, 29, 48
2, 468355, Note_on_c, 0, 38, 34
2, 468384, Note_off_c, 0, 41, 48
2, 468508, Note_on_c, 0, 33, 34
2, 468527, Note_off_c, 0, 38, 48
2, 468657, Note_on_c, 0, 45, 34
2, 468680, Note_off_c, 0, 33, 48
2, 468807, Note_on_c, 0, 41, 34
2, 468814, Note_off_c, 0, 45, 48
2, 468975, Note_on_c, 0, 38, 34
2, 468978, Note_off_c, 0, 41, 48
2, 469125, Note_on_c, 0, 33, 33
2, 469148, Note_off_c, 0, 38, 48
2, 469274, Note_on_c, 0, 29, 33
2, 469299, Note_off_c, 0, 33, 48
2, 469442, Note_on_c, 0, 41, 33
2, 469444, Note_off_c, 0, 29, 48
2, 469609, Note_on_c, 0, 38, 33
2, 469614, Note_off_c, 0, 41, 48
2, 469760, Note_on_c, 0, 33, 33
2, 469786, Note_off_c, 0, 38, 48
2, 469928, Note_on_c, 0, 45, 32
2, 469954, Note_off_c, 0, 33, 48
2, 470094, Note_on_c, 0, 41, 32
2, 470096, Note_off_c, 0, 45, 48
2, 470261, Note_on_c, 0, 38, 32
2, 470275, Note_off_c, 0, 41, 48
2, 470444, Note_on_c, 0, 33, 32
2, 470470, Note_off_c, 0, 38, 48
2, 470612, Note_on_c, 0, 29, 32
2, 470631, Note_off_c, 0, 33, 48
2, 470779, Note_on_c, 0, 41, 32
2, 470794, Note_off_c, 0, 29, 48
2, 470962, Note_on_c, 0, 38, 31
2, 470997, Note_off_c, 0, 41, 48
2, 471145, Note_on_c, 0, 33, 31
2, 471161, Note_off_c, 0, 38, 47
2, 471313, Note_off_c, 0, 33, 47
2, 471315, Note_on_c, 0, 45, 31
2, 471495, Note_on_c, 0, 41, 31
2, 471499, Note_off_c, 0, 45, 47
2, 471698, Note_on_c, 0, 38, 31
2, 471706, Note_off_c, 0, 41, 47
2, 471882, Note_on_c, 0, 33, 30
2, 471890, Note_off_c, 0, 38, 47
2, 472065, Note_on_c, 0, 29, 30
2, 472081, Note_off_c, 0, 33, 47
2, 472266, Note_on_c, 0, 41, 30
2, 472278, Note_off_c, 0, 29, 47
2, 472466, Note_on_c, 0, 38, 30
2, 472480, Note_off_c, 0, 41, 47
2, 472651, Note_on_c, 0, 33, 30
2, 472669, Note_off_c, 0, 38, 47
2, 472850, Note_on_c, 0, 45, 29
2, 472865, Note_off_c, 0, 33, 47
2, 473068, Note_on_c, 0, 41, 29
2, 473082, Note_off_c, 0, 45, 47
2, 473268, Note_on_c, 0, 38, 29
2, 473302, Note_off_c, 0, 41, 47
2, 473485, Note_on_c, 0, 33, 29
2, 473510, Note_off_c, 0, 38, 47
2, 473686, Note_on_c, 0, 29, 29
2, 473710, Note_off_c, 0, 33, 47
2, 473903, Note_on_c, 0, 41, 28
2, 473921, Note_off_c, 0, 29, 47
2, 474122, Note_on_c, 0, 38, 28
2, 474159, Note_off_c, 0, 41, 47
2, 474355, Note_on_c, 0, 33, 28
2, 474364, Note_off_c, 0, 38, 47
2, 474571, Note_on_c, 0, 45, 28
2, 474612, Note_off_c, 0, 33, 47
2, 474804, Note_on_c, 0, 41, 28
2, 474842, Note_off_c, 0, 45, 47
2, 475038, Control_c, 0, 64, 0
2, 475040, Note_off_c, 0, 41, 47
2, 475042, Note_on_c, 0, 38, 28
2, 476610, Note_off_c, 0, 38, 47
2, 476941, Note_off_c, 0, 62, 50
2, 476942, Note_off_c, 0, 53, 46
2, 476945, Note_off_c, 0, 57, 47
2, 476948, Control_c, 0, 64, 127
2, 476950, Note_on_c, 0, 77, 35
2, 476952, Note_on_c, 0, 74, 28
2, 476954, Note_on_c, 0, 50, 15
2, 476956, Note_on_c, 0, 45, 20
2, 476959, Note_on_c, 0, 69, 25
2, 476961, Note_on_c, 0, 38, 26
2, 476964, Note_on_c, 0, 65, 20
2, 478438, Note_off_c, 0, 38, 46
2, 478443, Note_off_c, 0, 69, 46
2, 478525, Note_off_c, 0, 65, 45
2, 478526, Note_off_c, 0, 50, 44
2, 478528, Note_off_c, 0, 45, 45
2, 478564, Note_off_c, 0, 74, 47
2, 478664, Note_off_c, 0, 77, 48
2, 478893, Note_on_c, 0, 65, 20
2, 478895, Note_on_c, 0, 74, 28
2, 478898, Note_on_c, 0, 50, 13
2, 478898, Note_on_c, 0, 62, 16
2, 478899, Note_on_c, 0, 69, 22
2, 478903, Note_on_c, 0, 38, 22
2, 478906, Note_on_c, 0, 45, 8
2, 478912, Control_c, 0, 64, 20
2, 479341, Control_c, 0, 64, 96
2, 486318, Note_off_c, 0, 65, 45
2, 486515, Note_off_c, 0, 74, 47
2, 486715, Note_off_c, 0, 69, 45
2, 486769, Note_off_c, 0, 50, 43
2, 487354, Note_off_c, 0, 45, 42
2, 487470, Note_off_c, 0, 62, 44
2, 487611, Note_off_c, 0, 38, 45
2, 487760, Control_c, 0, 67, 0
2, 488123, Control_c, 0, 64, 20
2, 488575, Control_c, 0, 64, 96
2, 488577, Note_on_c, 0, 34, 36
2, 488764, Note_on_c, 0, 41, 36
2, 488932, Note_on_c, 0, 46, 39
2, 489115, Note_on_c, 0, 50, 42
2, 489301, Note_on_c, 0, 53, 45
2, 489487, Note_on_c, 0, 58, 48
2, 492426, Note_off_c, 0, 34, 49
2, 492561, Note_off_c, 0, 50, 50
2, 492567, Note_off_c, 0, 53, 51
2, 492626, Note_off_c, 0, 46, 49
2, 492836, Note_off_c, 0, 41, 49
2, 493218, Note_off_c, 0, 58, 52
2, 493589, Control_c, 0, 64, 20
2, 493652, Note_on_c, 0, 74, 54
2, 494865, Note_on_c, 0, 75, 60
2, 494927, Note_off_c, 0, 74, 53
2, 494999, Note_off_c, 0, 75, 55
2, 495051, Note_on_c, 0, 77, 66
2, 496455, Note_off_c, 0, 77, 56
2, 496457, Note_on_c, 0, 58, 42
2, 496466, Note_on_c, 0, 34, 38
2, 496468, Note_on_c, 0, 41, 32
2, 496472, Note_on_c, 0, 46, 36
2, 496473, Note_on_c, 0, 50, 30
2, 496473, Note_on_c, 0, 53, 22
2, 496527, Control_c, 0, 64, 98
2, 497504, Note_off_c, 0, 53, 45
2, 497513, Note_off_c, 0, 46, 49
2, 497552, Note_off_c, 0, 50, 47
2, 497553, Note_off_c, 0, 34, 49
2, 497638, Note_off_c, 0, 41, 48
2, 497825, Note_off_c, 0, 58, 50
2, 497841, Note_on_c, 0, 57, 31
2, 497846, Control_c, 0, 64, 20
2, 497851, Note_on_c, 0, 36, 28
2, 497853, Note_on_c, 0, 41, 26
2, 497855, Note_on_c, 0, 48, 22
2, 497856, Note_on_c, 0, 51, 20
2, 497857, Note_on_c, 0, 53, 24
2, 498028, Control_c, 0, 64, 98
2, 500931, Note_off_c, 0, 48, 45
2, 501106, Note_off_c, 0, 41, 46
2, 501281, Note_off_c, 0, 51, 45
2, 501305, Note_off_c, 0, 36, 47
2, 501549, Note_off_c, 0, 53, 46
2, 501824, Note_off_c, 0, 57, 47
2, 501978, Control_c, 0, 64, 0
2, 502057, Note_on_c, 0, 81, 54
2, 503286, Note_on_c, 0, 82, 54
2, 503349, Note_off_c, 0, 81, 53
2, 503402, Note_off_c, 0, 82, 53
2, 503453, Note_on_c, 0, 84, 60
2, 504855, Note_off_c, 0, 84, 55
2, 504857, Note_on_c, 0, 63, 48
2, 504870, Note_on_c, 0, 60, 28
2, 504872, Note_on_c, 0, 45, 30
2, 504877, Note_on_c, 0, 53, 36
2, 504918, Control_c, 0, 64, 98
2, 505971, Note_off_c, 0, 53, 49
2, 505992, Note_off_c, 0, 60, 47
2, 505993, Note_off_c, 0, 45, 47
2, 506257, Note_off_c, 0, 63, 52
2, 506265, Note_on_c, 0, 62, 38
2, 506267, Control_c, 0, 64, 20
2, 506274, Note_on_c, 0, 53, 30
2, 506276, Note_on_c, 0, 58, 20
2, 506279, Note_on_c, 0, 46, 24
2, 506448, Control_c, 0, 64, 98
2, 508552, Note_off_c, 0, 46, 46
2, 508555, Note_off_c, 0, 58, 45
2, 508581, Note_off_c, 0, 53, 47
2, 508757, Note_off_c, 0, 62, 49
2, 509100, Control_c, 0, 64, 20
2, 509262, Control_c, 0, 64, 98
2, 509267, Note_on_c, 0, 62, 33
2, 509385, Note_on_c, 0, 65, 34
2, 509402, Note_off_c, 0, 62, 48
2, 509490, Note_on_c, 0, 63, 35
2, 509493, Note_off_c, 0, 65, 48
2, 509607, Note_on_c, 0, 62, 37
2, 509625, Note_off_c, 0, 63, 48
2, 509726, Note_on_c, 0, 63, 38
2, 509731, Note_off_c, 0, 62, 49
2, 509831, Note_on_c, 0, 65, 39
2, 509835, Note_off_c, 0, 63, 49
2, 509947, Note_on_c, 0, 67, 41
2, 509963, Note_off_c, 0, 65, 49
2, 510067, Note_on_c, 0, 69, 42
2, 510073, Note_off_c, 0, 67, 50
2, 510170, Note_on_c, 0, 70, 43
2, 510191, Note_off_c, 0, 69, 50
2, 510289, Note_on_c, 0, 72, 48
2, 510308, Note_off_c, 0, 70, 50
2, 510382, Note_off_c, 0, 72, 52
2, 510398, Note_on_c, 0, 74, 49
2, 510504, Control_c, 0, 64, 20
2, 511636, Note_on_c, 0, 75, 58
2, 511688, Note_off_c, 0, 74, 52
2, 511768, Note_off_c, 0, 75, 54
2, 511801, Note_on_c, 0, 77, 60
2, 513077, Note_off_c, 0, 77, 55
2, 513199, Control_c, 0, 64, 98
2, 513205, Note_on_c, 0, 77, 72
2, 513216, Note_on_c, 0, 59, 48
2, 513217, Note_on_c, 0, 50, 46
2, 513218, Note_on_c, 0, 68, 62
2, 514300, Note_off_c, 0, 59, 52
2, 514409, Note_off_c, 0, 50, 51
2, 514423, Note_off_c, 0, 68, 55
2, 514508, Note_off_c, 0, 77, 58
2, 514525, Control_c, 0, 64, 20
2, 514705, Note_on_c, 0, 77, 42
2, 514715, Note_on_c, 0, 51, 19
2, 514717, Note_on_c, 0, 67, 28
2, 514719, Control_c, 0, 64, 98
2, 514720, Note_on_c, 0, 59, 24
2, 516244, Note_on_c, 0, 75, 48
2, 516253, Note_on_c, 0, 60, 36
2, 516276, Note_off_c, 0, 77, 50
2, 516297, Note_off_c, 0, 59, 46
2, 516594, Note_off_c, 0, 67, 47
2, 516881, Note_off_c, 0, 60, 49
2, 516951, Note_off_c, 0, 75, 52
2, 516998, Note_off_c, 0, 51, 45
2, 517012, Note_on_c, 0, 74, 51
2, 517018, Control_c, 0, 64, 20
2, 517022, Note_on_c, 0, 53, 45
2, 517023, Note_on_c, 0, 70, 31
2, 517025, Note_on_c, 0, 62, 39
2, 517201, Control_c, 0, 64, 98
2, 517610, Note_off_c, 0, 62, 49
2, 517624, Note_off_c, 0, 53, 51
2, 517679, Note_off_c, 0, 70, 47
2, 517796, Note_off_c, 0, 74, 52
2, 517813, Note_on_c, 0, 72, 54
2, 517820, Note_on_c, 0, 55, 45
2, 517822, Note_on_c, 0, 63, 42
2, 517824, Note_on_c, 0, 70, 34
2, 517827, Control_c, 0, 64, 20
2, 517959, Control_c, 0, 64, 96
2, 517993, Note_off_c, 0, 72, 53
2, 518001, Note_off_c, 0, 55, 51
2, 518272, Note_off_c, 0, 70, 48
2, 518341, Note_off_c, 0, 63, 50
2, 518632, Note_on_c, 0, 72, 57
2, 518639, Note_on_c, 0, 55, 45
2, 518641, Note_on_c, 0, 64, 40
2, 518644, Note_on_c, 0, 70, 37
2, 518646, Control_c, 0, 64, 20
2, 518810, Control_c, 0, 64, 80
2, 518820, Note_off_c, 0, 55, 51
2, 518822, Note_off_c, 0, 72, 54
2, 519108, Note_off_c, 0, 70, 49
2, 519136, Note_off_c, 0, 64, 50
2, 519414, Control_c, 0, 64, 20
2, 519481, Note_on_c, 0, 53, 36
2, 519494, Note_on_c, 0, 64, 30
2, 519496, Note_on_c, 0, 70, 34
2, 519499, Note_on_c, 0, 72, 42
2, 519597, Note_on_c, 0, 74, 37
2, 519614, Note_off_c, 0, 72, 50
2, 519691, Note_on_c, 0, 72, 38
2, 519707, Note_off_c, 0, 74, 49
2, 519761, Note_on_c, 0, 74, 40
2, 519778, Note_off_c, 0, 72, 49
2, 519841, Note_on_c, 0, 72, 41
2, 519858, Note_off_c, 0, 74, 50
2, 519906, Note_on_c, 0, 74, 42
2, 519931, Note_off_c, 0, 72, 50
2, 519981, Note_on_c, 0, 72, 44
2, 519995, Note_off_c, 0, 74, 50
2, 520066, Note_off_c, 0, 72, 51
2, 520074, Note_on_c, 0, 71, 45
2, 520148, Note_on_c, 0, 72, 47
2, 520155, Note_off_c, 0, 71, 51
2, 520228, Note_on_c, 0, 74, 56
2, 520248, Note_off_c, 0, 72, 51
2, 520610, Note_off_c, 0, 74, 54
2, 520623, Note_on_c, 0, 72, 52
2, 520641, Note_off_c, 0, 64, 47
2, 520662, Control_c, 0, 64, 98
2, 520861, Note_off_c, 0, 70, 48
2, 520972, Note_off_c, 0, 72, 53
2, 521056, Note_on_c, 0, 72, 48
2, 521065, Note_on_c, 0, 69, 30
2, 521067, Note_on_c, 0, 65, 36
2, 521076, Control_c, 0, 64, 20
2, 521256, Control_c, 0, 64, 98
2, 521323, Note_off_c, 0, 53, 49
2, 521593, Note_off_c, 0, 69, 47
2, 521724, Note_off_c, 0, 72, 52
2, 521804, Note_off_c, 0, 65, 49
2, 522820, Control_c, 0, 64, 20
2, 523171, Note_on_c, 0, 53, 39
2, 523534, Control_c, 0, 64, 98
2, 523572, Note_on_c, 0, 55, 42
2, 523573, Note_on_c, 0, 51, 35
2, 523601, Note_off_c, 0, 53, 49
2, 523950, Note_off_c, 0, 51, 48
2, 523953, Note_on_c, 0, 48, 36
2, 523955, Note_on_c, 0, 57, 45
2, 523982, Note_off_c, 0, 55, 50
2, 524227, Note_off_c, 0, 57, 51
2, 524233, Note_off_c, 0, 48, 49
2, 524319, Note_on_c, 0, 46, 40
2, 524321, Note_on_c, 0, 50, 30
2, 524322, Note_on_c, 0, 58, 50
2, 524323, Note_on_c, 0, 34, 48
2, 524325, Control_c, 0, 64, 20
2, 524506, Control_c, 0, 64, 98
2, 525603, Note_off_c, 0, 46, 50
2, 525605, Note_off_c, 0, 50, 47
2, 525606, Note_on_c, 0, 48, 36
2, 525607, Note_on_c, 0, 51, 48
2, 525709, Control_c, 0, 64, 20
2, 525751, Note_off_c, 0, 51, 52
2, 525755, Note_off_c, 0, 48, 49
2, 525803, Note_on_c, 0, 50, 34
2, 525804, Note_on_c, 0, 53, 47
2, 525890, Control_c, 0, 64, 98
2, 526965, Note_off_c, 0, 53, 51
2, 527003, Note_off_c, 0, 50, 48
2, 527358, Note_on_c, 0, 50, 30
2, 527359, Note_on_c, 0, 53, 36
2, 528552, Note_off_c, 0, 50, 47
2, 528579, Note_off_c, 0, 53, 49
2, 528910, Note_off_c, 0, 58, 52
2, 528912, Note_off_c, 0, 34, 52
2, 528916, Note_on_c, 0, 74, 60
2, 528917, Control_c, 0, 64, 20
2, 528926, Note_on_c, 0, 46, 45
2, 528929, Note_on_c, 0, 50, 40
2, 528930, Note_on_c, 0, 53, 36
2, 529097, Control_c, 0, 64, 98
2, 529711, Note_on_c, 0, 75, 61
2, 529713, Note_off_c, 0, 74, 55
2, 529794, Note_off_c, 0, 75, 55
2, 529807, Note_on_c, 0, 74, 63
2, 529888, Note_off_c, 0, 74, 55
2, 529891, Note_on_c, 0, 72, 64
2, 529971, Note_off_c, 0, 72, 56
2, 529972, Note_on_c, 0, 74, 66
2, 530312, Note_off_c, 0, 74, 56
2, 530334, Note_on_c, 0, 75, 69
2, 530430, Note_off_c, 0, 75, 57
2, 530468, Note_on_c, 0, 77, 72
2, 530954, Note_off_c, 0, 46, 51
2, 531017, Note_off_c, 0, 50, 50
2, 531066, Note_off_c, 0, 53, 49
2, 531854, Note_off_c, 0, 77, 58
2, 532180, Control_c, 0, 64, 20
2, 532207, Note_on_c, 0, 58, 40
2, 532217, Note_on_c, 0, 34, 37
2, 532220, Note_on_c, 0, 46, 35
2, 532221, Note_on_c, 0, 50, 30
2, 532221, Note_on_c, 0, 53, 25
2, 532364, Control_c, 0, 64, 98
2, 533318, Note_off_c, 0, 46, 48
2, 533435, Note_off_c, 0, 53, 46
2, 533469, Note_off_c, 0, 34, 49
2, 533489, Note_off_c, 0, 50, 47
2, 533676, Note_off_c, 0, 58, 50
2, 533680, Note_on_c, 0, 57, 36
2, 533690, Note_on_c, 0, 29, 30
2, 533692, Note_on_c, 0, 41, 15
2, 533695, Note_on_c, 0, 48, 20
2, 533696, Note_on_c, 0, 51, 24
2, 533712, Control_c, 0, 64, 20
2, 533891, Control_c, 0, 64, 98
2, 534661, Note_off_c, 0, 48, 45
2, 534832, Note_off_c, 0, 51, 46
2, 534996, Note_on_c, 0, 50, 22
2, 534998, Note_on_c, 0, 53, 30
2, 535086, Control_c, 0, 64, 20
2, 535143, Note_off_c, 0, 50, 45
2, 535145, Note_off_c, 0, 53, 47
2, 535194, Note_on_c, 0, 51, 25
2, 535196, Note_on_c, 0, 54, 31
2, 535266, Control_c, 0, 64, 98
2, 536456, Note_off_c, 0, 54, 47
2, 536516, Note_off_c, 0, 51, 46
2, 536798, Note_on_c, 0, 51, 27
2, 536800, Note_on_c, 0, 54, 33
2, 537097, Note_off_c, 0, 29, 47
2, 537427, Note_off_c, 0, 41, 44
2, 537928, Note_off_c, 0, 51, 46
2, 537956, Note_off_c, 0, 54, 48
2, 538370, Note_off_c, 0, 57, 49
2, 538398, Control_c, 0, 64, 20
2, 538402, Note_on_c, 0, 84, 60
2, 538413, Note_on_c, 0, 51, 30
2, 538415, Note_on_c, 0, 41, 36
2, 538417, Note_on_c, 0, 54, 36
2, 538581, Control_c, 0, 64, 98
2, 539188, Note_off_c, 0, 84, 55
2, 539190, Note_on_c, 0, 86, 60
2, 539279, Note_off_c, 0, 86, 55
2, 539291, Note_on_c, 0, 84, 60
2, 539372, Note_off_c, 0, 84, 55
2, 539374, Note_on_c, 0, 83, 60
2, 539459, Note_off_c, 0, 54, 49
2, 539472, Note_off_c, 0, 83, 55
2, 539475, Note_on_c, 0, 84, 61
2, 539618, Note_off_c, 0, 41, 49
2, 539638, Note_off_c, 0, 51, 47
2, 539844, Note_off_c, 0, 84, 55
2, 539848, Note_on_c, 0, 86, 61
2, 539960, Note_off_c, 0, 86, 55
2, 540031, Note_on_c, 0, 87, 62
2, 541467, Note_off_c, 0, 87, 55
2, 541712, Note_on_c, 0, 66, 79
2, 541714, Control_c, 0, 64, 20
2, 541722, Note_on_c, 0, 60, 60
2, 541723, Note_on_c, 0, 63, 64
2, 541725, Note_on_c, 0, 58, 68
2, 541897, Control_c, 0, 64, 98
2, 542868, Note_off_c, 0, 60, 55
2, 542891, Note_off_c, 0, 58, 57
2, 542978, Note_off_c, 0, 66, 60
2, 542980, Note_off_c, 0, 63, 56
2, 543087, Control_c, 0, 64, 20
2, 543234, Note_on_c, 0, 65, 42
2, 543245, Note_on_c, 0, 57, 34
2, 543245, Note_on_c, 0, 60, 30
2, 543246, Note_on_c, 0, 63, 22
2, 543384, Control_c, 0, 64, 98
2, 543819, Note_off_c, 0, 63, 45
2, 544274, Note_off_c, 0, 57, 48
2, 544344, Note_off_c, 0, 60, 47
2, 544544, Note_on_c, 0, 59, 32
2, 544545, Note_on_c, 0, 62, 39
2, 544691, Note_off_c, 0, 59, 48
2, 544692, Note_off_c, 0, 62, 49
2, 544713, Control_c, 0, 64, 20
2, 544740, Note_on_c, 0, 60, 35
2, 544743, Note_on_c, 0, 63, 40
2, 544895, Control_c, 0, 64, 98
2, 545970, Note_off_c, 0, 63, 50
2, 546034, Note_off_c, 0, 60, 48
2, 546216, Note_off_c, 0, 65, 50
2, 546254, Control_c, 0, 64, 20
2, 546257, Note_on_c, 0, 60, 43
2, 546257, Note_on_c, 0, 63, 48
2, 546433, Control_c, 0, 64, 98
2, 547476, Note_off_c, 0, 63, 52
2, 547601, Note_off_c, 0, 60, 50
2, 547816, Note_on_c, 0, 84, 48
2, 547824, Note_on_c, 0, 60, 36
2, 547826, Note_on_c, 0, 53, 40
2, 547828, Note_on_c, 0, 63, 28
2, 547833, Control_c, 0, 64, 20
2, 548012, Control_c, 0, 64, 98
2, 548601, Note_off_c, 0, 84, 52
2, 548602, Note_on_c, 0, 86, 54
2, 548688, Note_off_c, 0, 86, 53
2, 548692, Note_on_c, 0, 84, 55
2, 548777, Note_off_c, 0, 84, 53
2, 548779, Note_on_c, 0, 83, 56
2, 548877, Note_off_c, 0, 83, 54
2, 548879, Note_on_c, 0, 84, 57
2, 549248, Note_off_c, 0, 84, 54
2, 549250, Note_on_c, 0, 86, 58
2, 549332, Control_c, 0, 64, 20
2, 549381, Note_off_c, 0, 86, 54
2, 549388, Note_off_c, 0, 60, 49
2, 549432, Note_on_c, 0, 87, 60
2, 549442, Note_on_c, 0, 57, 48
2, 549513, Control_c, 0, 64, 98
2, 550115, Note_off_c, 0, 63, 47
2, 550268, Note_off_c, 0, 53, 50
2, 550710, Note_off_c, 0, 57, 52
2, 550901, Note_off_c, 0, 87, 55
2, 551191, Note_on_c, 0, 75, 63
2, 551199, Note_on_c, 0, 54, 48
2, 551200, Note_on_c, 0, 60, 38
2, 551205, Note_on_c, 0, 63, 44
2, 551206, Note_on_c, 0, 69, 43
2, 551207, Control_c, 0, 64, 20
2, 551385, Control_c, 0, 64, 98
2, 552431, Note_off_c, 0, 69, 50
2, 552494, Note_off_c, 0, 63, 51
2, 552496, Note_off_c, 0, 60, 49
2, 552537, Note_off_c, 0, 54, 52
2, 552795, Note_off_c, 0, 75, 55
2, 552799, Note_on_c, 0, 74, 36
2, 552809, Note_on_c, 0, 55, 27
2, 552811, Note_on_c, 0, 58, 20
2, 552814, Control_c, 0, 64, 20
2, 552815, Note_on_c, 0, 62, 24
2, 552816, Note_on_c, 0, 70, 30
2, 552991, Control_c, 0, 64, 98
2, 553265, Note_off_c, 0, 70, 47
2, 553281, Note_off_c, 0, 58, 45
2, 553290, Note_off_c, 0, 55, 46
2, 553301, Note_off_c, 0, 62, 46
2, 553393, Note_off_c, 0, 74, 49
2, 554302, Control_c, 0, 64, 20
2, 554397, Note_on_c, 0, 79, 92
2, 554484, Control_c, 0, 64, 98
2, 555802, Note_on_c, 0, 73, 68
2, 555812, Note_on_c, 0, 52, 58
2, 555815, Note_on_c, 0, 58, 53
2, 555817, Note_on_c, 0, 67, 63
2, 555818, Note_on_c, 0, 70, 48
2, 555819, Note_on_c, 0, 61, 56
2, 556054, Note_off_c, 0, 58, 53
2, 556072, Note_off_c, 0, 61, 54
2, 556073, Note_off_c, 0, 67, 55
2, 556083, Note_off_c, 0, 73, 57
2, 556087, Note_off_c, 0, 52, 54
2, 556090, Note_off_c, 0, 70, 52
2, 556329, Control_c, 0, 64, 20
2, 557185, Note_off_c, 0, 79, 62
2, 557188, Note_on_c, 0, 77, 48
2, 557378, Control_c, 0, 64, 98
2, 558677, Control_c, 0, 64, 96
2, 558722, Note_on_c, 0, 70, 24
2, 558724, Note_on_c, 0, 74, 44
2, 558727, Note_on_c, 0, 62, 39
2, 558728, Note_on_c, 0, 53, 36
2, 558729, Note_on_c, 0, 58, 29
2, 558731, Note_on_c, 0, 65, 34
2, 558882, Note_off_c, 0, 74, 51
2, 558911, Note_off_c, 0, 53, 49
2, 558932, Note_off_c, 0, 70, 46
2, 558935, Note_off_c, 0, 62, 49
2, 558937, Note_off_c, 0, 58, 47
2, 558948, Note_off_c, 0, 65, 48
2, 559493, Control_c, 0, 64, 20
2, 560357, Note_on_c, 0, 41, 30
2, 560359, Note_on_c, 0, 53, 36
2, 560361, Note_on_c, 0, 60, 22
2, 560364, Note_on_c, 0, 63, 29
2, 560365, Note_off_c, 0, 77, 52
2, 560367, Note_on_c, 0, 69, 39
2, 560395, Control_c, 0, 64, 86
2, 560575, Note_off_c, 0, 69, 49
2, 560576, Note_off_c, 0, 41, 47
2, 560593, Note_off_c, 0, 53, 49
2, 560595, Note_off_c, 0, 63, 47
2, 560602, Note_off_c, 0, 60, 45
2, 560756, Control_c, 0, 64, 20
2, 562160, Note_on_c, 0, 70, 30
2, 562166, Note_on_c, 0, 46, 21
2, 562168, Note_on_c, 0, 34, 18
2, 562171, Note_on_c, 0, 62, 19
2, 562173, Note_on_c, 0, 58, 24
2, 562183, Control_c, 0, 64, 98
2, 562377, Note_off_c, 0, 62, 45
2, 562392, Note_off_c, 0, 46, 45
2, 562403, Note_off_c, 0, 70, 47
2, 562405, Note_off_c, 0, 58, 46
2, 562428, Note_off_c, 0, 34, 44
2, 562535, Control_c, 0, 64, 20
2, 563552, Control_c, 0, 64, 98
2, 563561, Note_on_c, 0, 46, 30
2, 563657, Note_off_c, 0, 46, 47
2, 563659, Note_on_c, 0, 34, 30
2, 563754, Note_off_c, 0, 34, 47
2, 563757, Note_on_c, 0, 46, 30
2, 563838, Note_off_c, 0, 46, 47
2, 563851, Note_on_c, 0, 34, 30
2, 563855, Control_c, 0, 64, 20
2, 563949, Note_off_c, 0, 34, 47
2, 564908, Control_c, 0, 64, 98
2, 564915, Note_on_c, 0, 46, 25
2, 565013, Note_off_c, 0, 46, 46
2, 565016, Note_on_c, 0, 34, 25
2, 565110, Note_off_c, 0, 34, 46
2, 565111, Note_on_c, 0, 46, 24
2, 565194, Note_off_c, 0, 46, 46
2, 565207, Note_on_c, 0, 34, 24
2, 565224, Control_c, 0, 64, 20
2, 565345, Note_off_c, 0, 34, 46
2, 566272, Note_on_c, 0, 46, 26
2, 566286, Control_c, 0, 64, 98
2, 566368, Note_off_c, 0, 46, 46
2, 566370, Note_on_c, 0, 34, 25
2, 566466, Note_off_c, 0, 34, 46
2, 566467, Note_on_c, 0, 46, 25
2, 566548, Note_off_c, 0, 46, 46
2, 566562, Note_on_c, 0, 63, 56
2, 566564, Note_on_c, 0, 34, 24
2, 566570, Note_on_c, 0, 55, 46
2, 566573, Note_on_c, 0, 58, 40
2, 566576, Control_c, 0, 64, 20
2, 566676, Note_off_c, 0, 34, 46
2, 566770, Control_c, 0, 64, 98
2, 567732, Note_off_c, 0, 58, 50
2, 567763, Note_off_c, 0, 55, 51
2, 567990, Note_off_c, 0, 63, 54
2, 568024, Note_on_c, 0, 62, 48
2, 568033, Note_on_c, 0, 58, 36
2, 568035, Note_on_c, 0, 53, 45
2, 568042, Control_c, 0, 64, 20
2, 568221, Control_c, 0, 64, 98
2, 569212, Note_off_c, 0, 53, 51
2, 569377, Note_off_c, 0, 58, 49
2, 569595, Note_off_c, 0, 62, 52
2, 569628, Note_on_c, 0, 61, 44
2, 569637, Note_on_c, 0, 52, 36
2, 569639, Note_on_c, 0, 58, 41
2, 569642, Control_c, 0, 64, 20
2, 569820, Control_c, 0, 64, 98
2, 570541, Note_off_c, 0, 58, 50
2, 570650, Note_off_c, 0, 52, 49
2, 570830, Note_off_c, 0, 61, 51
2, 571232, Note_on_c, 0, 52, 41
2, 571234, Note_on_c, 0, 58, 26
2, 571236, Note_on_c, 0, 61, 46
2, 571237, Control_c, 0, 64, 20
2, 571417, Control_c, 0, 64, 98
2, 572329, Note_on_c, 0, 46, 30
2, 572433, Note_off_c, 0, 46, 47
2, 572434, Note_on_c, 0, 34, 30
2, 572538, Note_off_c, 0, 34, 47
2, 572540, Note_on_c, 0, 46, 31
2, 572606, Note_off_c, 0, 46, 47
2, 572640, Note_off_c, 0, 61, 51
2, 572642, Note_off_c, 0, 52, 50
2, 572645, Note_on_c, 0, 53, 46
2, 572647, Note_on_c, 0, 62, 49
2, 572649, Note_on_c, 0, 34, 31
2, 572654, Control_c, 0, 64, 20
2, 572697, Note_off_c, 0, 34, 47
2, 572829, Control_c, 0, 64, 98
2, 572985, Note_off_c, 0, 62, 52
2, 572986, Note_off_c, 0, 53, 51
2, 572988, Note_off_c, 0, 58, 46
2, 573628, Control_c, 0, 64, 98
2, 573682, Note_on_c, 0, 46, 33
2, 573783, Note_off_c, 0, 46, 48
2, 573785, Note_on_c, 0, 34, 33
2, 573883, Note_off_c, 0, 34, 48
2, 573894, Note_on_c, 0, 46, 31
2, 573941, Note_off_c, 0, 46, 47
2, 573985, Note_on_c, 0, 34, 33
2, 573988, Control_c, 0, 64, 20
2, 574035, Note_off_c, 0, 34, 48
2, 575086, Note_on_c, 0, 46, 35
2, 575095, Control_c, 0, 64, 98
2, 575186, Note_off_c, 0, 46, 48
2, 575188, Note_on_c, 0, 34, 35
2, 575286, Note_off_c, 0, 34, 48
2, 575287, Note_on_c, 0, 46, 36
2, 575344, Note_off_c, 0, 46, 49
2, 575389, Note_on_c, 0, 55, 42
2, 575391, Note_on_c, 0, 51, 48
2, 575394, Note_on_c, 0, 34, 24
2, 575395, Note_on_c, 0, 60, 54
2, 575400, Control_c, 0, 64, 20
2, 575481, Note_off_c, 0, 34, 46
2, 575616, Control_c, 0, 64, 98
2, 576975, Note_off_c, 0, 55, 50
2, 576977, Note_off_c, 0, 51, 52
2, 577108, Note_on_c, 0, 62, 48
2, 577110, Note_off_c, 0, 60, 53
2, 577129, Control_c, 0, 64, 20
2, 577257, Note_off_c, 0, 62, 52
2, 577259, Note_on_c, 0, 60, 48
2, 577311, Control_c, 0, 64, 98
2, 577391, Note_off_c, 0, 60, 52
2, 577392, Note_on_c, 0, 58, 48
2, 577542, Note_off_c, 0, 58, 52
2, 577545, Note_on_c, 0, 60, 52
2, 577549, Control_c, 0, 64, 20
2, 577728, Control_c, 0, 64, 98
2, 578092, Note_off_c, 0, 60, 53
2, 578093, Note_on_c, 0, 63, 52
2, 578829, Note_off_c, 0, 63, 53
2, 578831, Note_on_c, 0, 60, 51
2, 578838, Note_on_c, 0, 51, 36
2, 578840, Note_on_c, 0, 54, 42
2, 578845, Control_c, 0, 64, 20
2, 579025, Control_c, 0, 64, 98
2, 579579, Note_on_c, 0, 57, 50
2, 579582, Note_off_c, 0, 60, 52
2, 580075, Note_off_c, 0, 54, 50
2, 580119, Note_off_c, 0, 51, 49
2, 580131, Note_off_c, 0, 57, 52
2, 580316, Note_on_c, 0, 60, 52
2, 580325, Note_on_c, 0, 51, 47
2, 580328, Note_on_c, 0, 54, 42
2, 580330, Note_on_c, 0, 57, 32
2, 580335, Control_c, 0, 64, 20
2, 580517, Control_c, 0, 64, 98
2, 581375, Note_off_c, 0, 57, 48
2, 581381, Note_on_c, 0, 46, 30
2, 581392, Note_off_c, 0, 54, 50
2, 581434, Note_off_c, 0, 51, 51
2, 581481, Note_off_c, 0, 46, 47
2, 581484, Note_on_c, 0, 34, 30
2, 581579, Note_off_c, 0, 34, 47
2, 581582, Note_on_c, 0, 46, 30
2, 581667, Note_off_c, 0, 46, 47
2, 581681, Note_off_c, 0, 60, 53
2, 581684, Note_on_c, 0, 58, 37
2, 581695, Control_c, 0, 64, 20
2, 581697, Note_on_c, 0, 50, 24
2, 581699, Note_on_c, 0, 34, 31
2, 581699, Note_on_c, 0, 53, 32
2, 581772, Note_off_c, 0, 34, 47
2, 581859, Control_c, 0, 64, 98
2, 581928, Note_off_c, 0, 50, 46
2, 581948, Note_off_c, 0, 53, 48
2, 582013, Note_off_c, 0, 58, 49
2, 582710, Note_on_c, 0, 46, 33
2, 582812, Note_off_c, 0, 46, 48
2, 582815, Note_on_c, 0, 34, 33
2, 582911, Note_off_c, 0, 34, 48
2, 582913, Note_on_c, 0, 46, 33
2, 582997, Note_off_c, 0, 46, 48
2, 583011, Note_on_c, 0, 34, 33
2, 583016, Control_c, 0, 64, 20
2, 583086, Note_off_c, 0, 34, 48
2, 583715, Control_c, 0, 64, 98
2, 584114, Note_on_c, 0, 46, 35
2, 584214, Note_off_c, 0, 46, 48
2, 584218, Note_on_c, 0, 34, 35
2, 584315, Note_off_c, 0, 34, 48
2, 584316, Note_on_c, 0, 46, 36
2, 584400, Note_off_c, 0, 46, 49
2, 584410, Control_c, 0, 64, 20
2, 584418, Note_on_c, 0, 70, 44
2, 584418, Note_on_c, 0, 34, 36
2, 584424, Note_on_c, 0, 62, 36
2, 584499, Note_off_c, 0, 34, 49
2, 584627, Control_c, 0, 64, 98
2, 585617, Note_off_c, 0, 62, 49
2, 585823, Note_off_c, 0, 70, 51
2, 585840, Note_on_c, 0, 67, 59
2, 585850, Note_on_c, 0, 58, 49
2, 585851, Note_on_c, 0, 62, 37
2, 585858, Control_c, 0, 64, 20
2, 586038, Control_c, 0, 64, 98
2, 586925, Note_off_c, 0, 58, 52
2, 586926, Note_off_c, 0, 62, 49
2, 587324, Note_off_c, 0, 67, 54
2, 587343, Note_on_c, 0, 65, 80
2, 587353, Note_on_c, 0, 57, 71
2, 587355, Note_on_c, 0, 62, 55
2, 587357, Control_c, 0, 64, 20
2, 587542, Control_c, 0, 64, 98
2, 588267, Note_off_c, 0, 57, 58
2, 588311, Note_off_c, 0, 62, 53
2, 588493, Note_off_c, 0, 65, 60
2, 588773, Control_c, 0, 64, 20
2, 588879, Note_on_c, 0, 64, 34
2, 588889, Note_on_c, 0, 55, 26
2, 588891, Note_on_c, 0, 60, 22
2, 589023, Control_c, 0, 64, 98
2, 590044, Note_on_c, 0, 48, 37
2, 590142, Note_off_c, 0, 48, 49
2, 590146, Note_on_c, 0, 36, 37
2, 590241, Note_off_c, 0, 36, 49
2, 590243, Note_on_c, 0, 48, 37
2, 590326, Note_off_c, 0, 48, 49
2, 590339, Note_on_c, 0, 36, 38
2, 590340, Control_c, 0, 64, 20
2, 590393, Note_off_c, 0, 36, 49
2, 590587, Control_c, 0, 64, 98
2, 590677, Note_off_c, 0, 60, 45
2, 590734, Note_off_c, 0, 55, 46
2, 590831, Note_off_c, 0, 64, 48
2, 591029, Note_on_c, 0, 64, 38
2, 591039, Note_on_c, 0, 55, 28
2, 591041, Note_on_c, 0, 60, 18
2, 591049, Control_c, 0, 64, 20
2, 591191, Control_c, 0, 64, 98
2, 591375, Note_on_c, 0, 84, 53
2, 591475, Note_off_c, 0, 84, 53
2, 591477, Note_on_c, 0, 72, 54
2, 591508, Note_off_c, 0, 60, 44
2, 591536, Note_off_c, 0, 55, 47
2, 591572, Note_off_c, 0, 72, 53
2, 591575, Note_on_c, 0, 84, 54
2, 591659, Note_off_c, 0, 84, 53
2, 591663, Note_off_c, 0, 64, 49
2, 591666, Control_c, 0, 64, 20
2, 591675, Note_on_c, 0, 72, 55
2, 591677, Note_on_c, 0, 65, 34
2, 591683, Note_on_c, 0, 60, 44
2, 591685, Note_on_c, 0, 57, 47
2, 591753, Note_off_c, 0, 72, 53
2, 591851, Control_c, 0, 64, 98
2, 592222, Note_off_c, 0, 57, 51
2, 592231, Note_off_c, 0, 60, 51
2, 592361, Note_off_c, 0, 65, 48
2, 592395, Note_on_c, 0, 67, 56
2, 592401, Control_c, 0, 64, 20
2, 592403, Note_on_c, 0, 58, 48
2, 592406, Note_on_c, 0, 60, 36
2, 592581, Control_c, 0, 64, 98
2, 592821, Note_off_c, 0, 60, 49
2, 592850, Note_off_c, 0, 58, 52
2, 592943, Note_off_c, 0, 67, 54
2, 593131, Note_on_c, 0, 67, 56
2, 593139, Note_on_c, 0, 60, 40
2, 593141, Note_on_c, 0, 58, 36
2, 593151, Control_c, 0, 64, 20
2, 593331, Control_c, 0, 64, 98
2, 593987, Note_off_c, 0, 58, 49
2, 594263, Note_off_c, 0, 67, 54
2, 594265, Note_on_c, 0, 64, 50
2, 594267, Note_on_c, 0, 48, 29
2, 594272, Note_on_c, 0, 56, 42
2, 594375, Note_off_c, 0, 48, 47
2, 594377, Note_on_c, 0, 36, 28
2, 594484, Note_off_c, 0, 56, 50
2, 594485, Note_off_c, 0, 36, 47
2, 594489, Note_on_c, 0, 48, 26
2, 594515, Note_off_c, 0, 64, 52
2, 594557, Note_off_c, 0, 48, 46
2, 594583, Note_on_c, 0, 65, 48
2, 594585, Control_c, 0, 64, 20
2, 594587, Note_on_c, 0, 36, 24
2, 594592, Note_on_c, 0, 57, 30
2, 594655, Note_off_c, 0, 36, 46
2, 594690, Note_off_c, 0, 57, 47
2, 594774, Control_c, 0, 64, 98
2, 594783, Note_off_c, 0, 65, 52
2, 595019, Note_off_c, 0, 60, 50
2, 595358, Note_on_c, 0, 65, 43
2, 595366, Note_on_c, 0, 57, 36
2, 595368, Note_on_c, 0, 60, 30
2, 595372, Control_c, 0, 64, 20
2, 595552, Control_c, 0, 64, 98
2, 595704, Note_on_c, 0, 84, 36
2, 595802, Note_off_c, 0, 84, 49
2, 595804, Note_on_c, 0, 72, 37
2, 595900, Note_off_c, 0, 72, 49
2, 595902, Note_on_c, 0, 84, 37
2, 595907, Note_off_c, 0, 60, 47
2, 595921, Note_off_c, 0, 57, 49
2, 595930, Control_c, 0, 64, 20
2, 595968, Note_off_c, 0, 84, 49
2, 595981, Note_off_c, 0, 65, 50
2, 596000, Note_on_c, 0, 67, 35
2, 596002, Note_on_c, 0, 72, 37
2, 596007, Note_on_c, 0, 60, 25
2, 596009, Note_on_c, 0, 64, 30
2, 596048, Note_off_c, 0, 72, 49
2, 596135, Control_c, 0, 64, 98
2, 596512, Note_off_c, 0, 60, 46
2, 596544, Note_off_c, 0, 64, 47
2, 596688, Note_off_c, 0, 67, 48
2, 596706, Note_on_c, 0, 69, 38
2, 596715, Control_c, 0, 64, 20
2, 596717, Note_on_c, 0, 60, 30
2, 596719, Note_on_c, 0, 65, 35
2, 596897, Control_c, 0, 64, 98
2, 597178, Note_off_c, 0, 65, 48
2, 597186, Note_off_c, 0, 60, 47
2, 597256, Note_off_c, 0, 69, 49
2, 597442, Note_on_c, 0, 69, 41
2, 597450, Note_on_c, 0, 60, 30
2, 597452, Note_on_c, 0, 65, 35
2, 597455, Control_c, 0, 64, 20
2, 597636, Control_c, 0, 64, 98
2, 598443, Note_off_c, 0, 65, 48
2, 598590, Note_off_c, 0, 69, 50
2, 598593, Note_on_c, 0, 63, 40
2, 598595, Note_on_c, 0, 66, 47
2, 598597, Note_on_c, 0, 48, 47
2, 598706, Note_off_c, 0, 48, 51
2, 598709, Note_on_c, 0, 36, 47
2, 598807, Note_off_c, 0, 36, 51
2, 598809, Note_on_c, 0, 48, 48
2, 598833, Note_off_c, 0, 63, 50
2, 598835, Note_off_c, 0, 66, 51
2, 598890, Note_off_c, 0, 48, 52
2, 598921, Note_on_c, 0, 64, 40
2, 598922, Note_on_c, 0, 67, 48
2, 598923, Note_on_c, 0, 36, 45
2, 598926, Control_c, 0, 64, 20
2, 598987, Note_off_c, 0, 60, 47
2, 599014, Note_off_c, 0, 36, 51
2, 599069, Note_off_c, 0, 64, 50
2, 599071, Note_off_c, 0, 67, 52
2, 599171, Control_c, 0, 64, 98
2, 599690, Note_on_c, 0, 67, 52
2, 599699, Note_on_c, 0, 60, 36
2, 599700, Note_on_c, 0, 64, 40
2, 599701, Control_c, 0, 64, 20
2, 599884, Control_c, 0, 64, 98
2, 600038, Note_on_c, 0, 84, 54
2, 600135, Note_off_c, 0, 84, 53
2, 600136, Note_on_c, 0, 72, 54
2, 600160, Note_off_c, 0, 60, 49
2, 600236, Note_off_c, 0, 72, 53
2, 600238, Note_on_c, 0, 84, 55
2, 600257, Note_off_c, 0, 64, 50
2, 600304, Note_off_c, 0, 84, 53
2, 600318, Note_off_c, 0, 67, 53
2, 600335, Note_on_c, 0, 72, 53
2, 600337, Note_on_c, 0, 69, 55
2, 600339, Control_c, 0, 64, 20
2, 600344, Note_on_c, 0, 60, 40
2, 600345, Note_on_c, 0, 65, 48
2, 600416, Note_off_c, 0, 72, 53
2, 600551, Control_c, 0, 64, 98
2, 600853, Note_off_c, 0, 60, 50
2, 600890, Note_off_c, 0, 65, 52
2, 601004, Note_off_c, 0, 69, 53
2, 601038, Note_on_c, 0, 70, 59
2, 601049, Note_on_c, 0, 60, 45
2, 601051, Note_on_c, 0, 67, 50
2, 601054, Control_c, 0, 64, 20
2, 601234, Control_c, 0, 64, 98
2, 601471, Note_off_c, 0, 60, 51
2, 601484, Note_off_c, 0, 67, 52
2, 601588, Note_off_c, 0, 70, 54
2, 601774, Note_on_c, 0, 70, 62
2, 601781, Note_on_c, 0, 60, 48
2, 601783, Note_on_c, 0, 67, 52
2, 602745, Note_off_c, 0, 67, 53
2, 602908, Note_off_c, 0, 70, 55
2, 602910, Note_on_c, 0, 48, 67
2, 602911, Note_on_c, 0, 68, 67
2, 602915, Note_on_c, 0, 64, 60
2, 603019, Note_off_c, 0, 48, 57
2, 603020, Note_on_c, 0, 36, 68
2, 603098, Note_off_c, 0, 64, 55
2, 603130, Note_off_c, 0, 36, 57
2, 603132, Note_on_c, 0, 48, 69
2, 603159, Note_off_c, 0, 68, 57
2, 603200, Note_off_c, 0, 48, 57
2, 603223, Control_c, 0, 64, 20
2, 603229, Note_on_c, 0, 69, 69
2, 603231, Note_on_c, 0, 36, 64
2, 603236, Note_on_c, 0, 65, 60
2, 603314, Note_off_c, 0, 65, 55
2, 603329, Note_off_c, 0, 69, 57
2, 603342, Note_off_c, 0, 36, 56
2, 603357, Note_off_c, 0, 60, 52
2, 603429, Control_c, 0, 64, 98
2, 603995, Note_on_c, 0, 69, 73
2, 604003, Note_on_c, 0, 60, 58
2, 604005, Note_on_c, 0, 65, 63
2, 604009, Control_c, 0, 64, 20
2, 604189, Control_c, 0, 64, 98
2, 604340, Note_on_c, 0, 84, 74
2, 604429, Note_off_c, 0, 65, 55
2, 604439, Note_off_c, 0, 84, 59
2, 604442, Note_on_c, 0, 72, 75
2, 604525, Note_off_c, 0, 60, 54
2, 604538, Note_off_c, 0, 72, 59
2, 604540, Note_on_c, 0, 84, 76
2, 604607, Note_off_c, 0, 84, 59
2, 604624, Note_off_c, 0, 69, 58
2, 604639, Note_on_c, 0, 72, 76
2, 604640, Note_on_c, 0, 71, 76
2, 604643, Control_c, 0, 64, 20
2, 604648, Note_on_c, 0, 62, 60
2, 604650, Note_on_c, 0, 65, 65
2, 604652, Note_on_c, 0, 68, 70
2, 604705, Note_off_c, 0, 72, 59
2, 604909, Control_c, 0, 64, 98
2, 605144, Note_off_c, 0, 65, 56
2, 605166, Note_off_c, 0, 68, 57
2, 605245, Note_off_c, 0, 62, 55
2, 605252, Note_off_c, 0, 71, 59
2, 605344, Note_on_c, 0, 71, 75
2, 605353, Note_on_c, 0, 62, 55
2, 605355, Note_on_c, 0, 65, 65
2, 605357, Note_on_c, 0, 68, 59
2, 605360, Control_c, 0, 64, 20
2, 605541, Control_c, 0, 64, 98
2, 605765, Note_off_c, 0, 65, 56
2, 605805, Note_off_c, 0, 68, 54
2, 605808, Note_off_c, 0, 62, 53
2, 605896, Note_off_c, 0, 71, 59
2, 606350, Note_on_c, 0, 72, 30
2, 606360, Note_on_c, 0, 64, 15
2, 606362, Note_on_c, 0, 67, 20
2, 606364, Control_c, 0, 64, 20
2, 606546, Control_c, 0, 64, 98
2, 606908, Note_off_c, 0, 64, 44
2, 606910, Note_off_c, 0, 67, 45
2, 607100, Note_off_c, 0, 72, 47
2, 607119, Note_on_c, 0, 67, 45
2, 607128, Note_on_c, 0, 60, 35
2, 607130, Note_on_c, 0, 64, 40
2, 607135, Control_c, 0, 64, 20
2, 607315, Control_c, 0, 64, 98
2, 607502, Note_on_c, 0, 48, 48
2, 607668, Note_off_c, 0, 48, 52
2, 607669, Note_on_c, 0, 36, 48
2, 607778, Note_off_c, 0, 36, 52
2, 607818, Note_on_c, 0, 48, 60
2, 607898, Note_off_c, 0, 48, 55
2, 607927, Control_c, 0, 64, 20
2, 608268, Note_off_c, 0, 64, 50
2, 608302, Note_off_c, 0, 60, 48
2, 608461, Note_off_c, 0, 67, 51
2, 608588, Note_on_c, 0, 67, 73
2, 608599, Note_on_c, 0, 60, 63
2, 608601, Note_on_c, 0, 64, 68
2, 608626, Control_c, 0, 64, 98
2, 608936, Note_on_c, 0, 84, 54
2, 609088, Note_off_c, 0, 84, 53
2, 609089, Note_on_c, 0, 72, 51
2, 609113, Note_off_c, 0, 60, 55
2, 609132, Note_off_c, 0, 64, 57
2, 609179, Control_c, 0, 64, 20
2, 609184, Note_off_c, 0, 72, 52
2, 609225, Note_off_c, 0, 67, 58
2, 609231, Note_on_c, 0, 71, 44
2, 609232, Note_on_c, 0, 84, 48
2, 609237, Note_on_c, 0, 62, 34
2, 609239, Note_on_c, 0, 65, 38
2, 609276, Note_off_c, 0, 84, 52
2, 609395, Control_c, 0, 64, 98
2, 609765, Note_off_c, 0, 62, 48
2, 609774, Note_off_c, 0, 65, 49
2, 609913, Note_off_c, 0, 71, 51
2, 609932, Note_on_c, 0, 67, 30
2, 609939, Note_on_c, 0, 62, 15
2, 609943, Note_on_c, 0, 65, 20
2, 609944, Control_c, 0, 64, 20
2, 610126, Control_c, 0, 64, 98
2, 610381, Note_off_c, 0, 65, 45
2, 610400, Note_off_c, 0, 62, 44
2, 610484, Note_off_c, 0, 67, 47
2, 610846, Note_on_c, 0, 72, 30
2, 610854, Note_on_c, 0, 60, 15
2, 610857, Note_on_c, 0, 64, 20
2, 610860, Control_c, 0, 64, 20
2, 611042, Control_c, 0, 64, 98
2, 611344, Note_off_c, 0, 60, 44
2, 611385, Note_off_c, 0, 64, 45
2, 611579, Note_off_c, 0, 72, 47
2, 611595, Note_on_c, 0, 67, 46
2, 611606, Note_on_c, 0, 60, 36
2, 611607, Note_on_c, 0, 64, 40
2, 611612, Control_c, 0, 64, 20
2, 611791, Control_c, 0, 64, 98
2, 611977, Note_on_c, 0, 48, 54
2, 612130, Note_off_c, 0, 48, 53
2, 612132, Note_on_c, 0, 36, 57
2, 612256, Note_off_c, 0, 36, 54
2, 612282, Note_on_c, 0, 48, 60
2, 612349, Note_off_c, 0, 48, 55
2, 612359, Control_c, 0, 64, 20
2, 612747, Note_off_c, 0, 60, 49
2, 612785, Note_off_c, 0, 64, 50
2, 612875, Note_off_c, 0, 67, 51
2, 613033, Note_on_c, 0, 67, 74
2, 613043, Note_on_c, 0, 60, 60
2, 613045, Note_on_c, 0, 64, 65
2, 613113, Control_c, 0, 64, 98
2, 613380, Note_on_c, 0, 84, 54
2, 613519, Note_off_c, 0, 84, 53
2, 613522, Note_on_c, 0, 72, 51
2, 613562, Note_off_c, 0, 60, 55
2, 613564, Note_off_c, 0, 64, 56
2, 613629, Note_off_c, 0, 72, 52
2, 613660, Control_c, 0, 64, 20
2, 613671, Note_off_c, 0, 67, 59
2, 613675, Note_on_c, 0, 71, 52
2, 613676, Note_on_c, 0, 84, 48
2, 613683, Note_on_c, 0, 62, 43
2, 613685, Note_on_c, 0, 65, 48
2, 613731, Note_off_c, 0, 84, 52
2, 613922, Control_c, 0, 64, 98
2, 614183, Note_off_c, 0, 65, 52
2, 614252, Note_off_c, 0, 62, 50
2, 614341, Note_off_c, 0, 71, 53
2, 614359, Note_on_c, 0, 67, 30
2, 614367, Note_on_c, 0, 62, 14
2, 614369, Note_on_c, 0, 65, 24
2, 614374, Control_c, 0, 64, 20
2, 614554, Control_c, 0, 64, 98
2, 614781, Note_off_c, 0, 62, 44
2, 614799, Note_off_c, 0, 65, 46
2, 614911, Note_off_c, 0, 67, 47
2, 615280, Note_on_c, 0, 72, 42
2, 615287, Note_on_c, 0, 60, 28
2, 615289, Note_on_c, 0, 64, 34
2, 615299, Control_c, 0, 64, 20
2, 615479, Control_c, 0, 64, 98
2, 615764, Note_off_c, 0, 64, 48
2, 615806, Note_off_c, 0, 60, 47
2, 615981, Note_off_c, 0, 72, 50
2, 615997, Note_on_c, 0, 67, 31
2, 616006, Note_on_c, 0, 60, 15
2, 616009, Note_on_c, 0, 64, 20
2, 616011, Control_c, 0, 64, 20
2, 616191, Control_c, 0, 64, 98
2, 616377, Note_on_c, 0, 48, 48
2, 616530, Note_off_c, 0, 48, 52
2, 616532, Note_on_c, 0, 36, 48
2, 616642, Note_off_c, 0, 36, 52
2, 616680, Note_on_c, 0, 48, 47
2, 616773, Note_off_c, 0, 48, 51
2, 616791, Control_c, 0, 64, 20
2, 616991, Note_off_c, 0, 60, 44
2, 617176, Note_off_c, 0, 64, 45
2, 617394, Note_off_c, 0, 67, 47
2, 617412, Note_on_c, 0, 64, 37
2, 617421, Note_on_c, 0, 55, 31
2, 617423, Note_on_c, 0, 60, 25
2, 617449, Control_c, 0, 64, 98
2, 617796, Note_on_c, 0, 48, 43
2, 617945, Note_off_c, 0, 48, 50
2, 617947, Note_on_c, 0, 36, 42
2, 618070, Note_off_c, 0, 36, 50
2, 618111, Note_on_c, 0, 48, 42
2, 618130, Control_c, 0, 64, 20
2, 618193, Note_off_c, 0, 48, 50
2, 618496, Note_off_c, 0, 55, 47
2, 618568, Note_off_c, 0, 60, 46
2, 618823, Note_off_c, 0, 64, 49
2, 618844, Note_on_c, 0, 60, 36
2, 618851, Note_on_c, 0, 52, 28
2, 618853, Note_on_c, 0, 55, 30
2, 618861, Control_c, 0, 64, 98
2, 619228, Note_on_c, 0, 48, 38
2, 619410, Note_off_c, 0, 48, 49
2, 619412, Note_on_c, 0, 36, 37
2, 619561, Note_off_c, 0, 36, 49
2, 619595, Note_on_c, 0, 48, 36
2, 619675, Control_c, 0, 64, 20
2, 619693, Note_off_c, 0, 48, 49
2, 620076, Note_off_c, 0, 55, 47
2, 620111, Note_off_c, 0, 52, 47
2, 620276, Note_off_c, 0, 60, 49
2, 620364, Note_on_c, 0, 60, 20
2, 621116, Note_on_c, 0, 59, 33
2, 621148, Note_off_c, 0, 60, 45
2, 621887, Note_on_c, 0, 60, 40
2, 621889, Note_on_c, 0, 58, 45
2, 621899, Control_c, 0, 64, 98
2, 621915, Note_off_c, 0, 59, 48
2, 622669, Note_on_c, 0, 57, 58
2, 622695, Note_off_c, 0, 58, 51
2, 622757, Control_c, 0, 64, 20
2, 623031, Note_on_c, 0, 62, 64
2, 623137, Note_off_c, 0, 62, 56
2, 623224, Note_on_c, 0, 64, 67
2, 623313, Note_off_c, 0, 64, 57
2, 623414, Note_off_c, 0, 60, 50
2, 623417, Note_on_c, 0, 65, 70
2, 623419, Note_on_c, 0, 55, 60
2, 623421, Note_on_c, 0, 58, 70
2, 623446, Note_off_c, 0, 57, 54
2, 623500, Note_off_c, 0, 65, 57
2, 623585, Note_on_c, 0, 67, 73
2, 623685, Note_off_c, 0, 67, 58
2, 623766, Note_on_c, 0, 69, 77
2, 623851, Note_off_c, 0, 69, 59
2, 623939, Note_on_c, 0, 70, 79
2, 623967, Note_off_c, 0, 55, 55
2, 623968, Note_off_c, 0, 58, 57
2, 624035, Note_off_c, 0, 70, 60
2, 624119, Note_on_c, 0, 72, 48
2, 624124, Control_c, 0, 64, 20
2, 624130, Note_on_c, 0, 41, 36
2, 624268, Note_off_c, 0, 41, 49
2, 624304, Control_c, 0, 64, 98
2, 624873, Note_on_c, 0, 53, 36
2, 625647, Control_c, 0, 64, 20
2, 625652, Note_off_c, 0, 53, 49
2, 625654, Note_on_c, 0, 57, 30
2, 625656, Note_on_c, 0, 65, 42
2, 625658, Note_on_c, 0, 60, 36
2, 625842, Control_c, 0, 64, 98
2, 626471, Note_off_c, 0, 57, 47
2, 626475, Note_off_c, 0, 60, 49
2, 626478, Note_on_c, 0, 53, 44
2, 627064, Note_on_c, 0, 69, 60
2, 627067, Note_off_c, 0, 72, 52
2, 627106, Note_off_c, 0, 65, 50
2, 627193, Control_c, 0, 64, 20
2, 627233, Note_off_c, 0, 69, 55
2, 627236, Note_off_c, 0, 53, 51
2, 627270, Note_on_c, 0, 58, 53
2, 627272, Note_on_c, 0, 65, 40
2, 627273, Note_on_c, 0, 62, 48
2, 627274, Note_on_c, 0, 77, 60
2, 627375, Control_c, 0, 64, 98
2, 628021, Note_off_c, 0, 58, 53
2, 628021, Note_off_c, 0, 62, 52
2, 628024, Note_on_c, 0, 53, 36
2, 628643, Note_off_c, 0, 53, 49
2, 628646, Note_on_c, 0, 74, 48
2, 628647, Note_off_c, 0, 77, 55
2, 628722, Control_c, 0, 64, 20
2, 628796, Note_off_c, 0, 74, 52
2, 628844, Note_off_c, 0, 65, 50
2, 628847, Note_on_c, 0, 60, 40
2, 628849, Note_on_c, 0, 72, 48
2, 628850, Note_on_c, 0, 57, 36
2, 628904, Control_c, 0, 64, 98
2, 629597, Note_off_c, 0, 57, 49
2, 629598, Note_on_c, 0, 53, 39
2, 629602, Note_off_c, 0, 60, 50
2, 630401, Note_off_c, 0, 53, 49
2, 630403, Note_on_c, 0, 65, 54
2, 630405, Note_on_c, 0, 60, 42
2, 630408, Note_on_c, 0, 57, 36
2, 630416, Control_c, 0, 64, 20
2, 630613, Control_c, 0, 64, 98
2, 631101, Note_off_c, 0, 60, 50
2, 631220, Note_off_c, 0, 57, 49
2, 631223, Note_on_c, 0, 53, 45
2, 631802, Note_off_c, 0, 65, 53
2, 631814, Note_on_c, 0, 69, 59
2, 631816, Note_off_c, 0, 72, 52
2, 631982, Note_off_c, 0, 69, 54
2, 631986, Note_off_c, 0, 53, 51
2, 632001, Note_on_c, 0, 65, 40
2, 632003, Note_on_c, 0, 50, 48
2, 632005, Note_on_c, 0, 70, 60
2, 632011, Control_c, 0, 64, 20
2, 632191, Control_c, 0, 64, 98
2, 632808, Note_off_c, 0, 50, 52
2, 632812, Note_off_c, 0, 65, 50
2, 632814, Note_on_c, 0, 46, 30
2, 632816, Note_on_c, 0, 62, 36
2, 633460, Note_off_c, 0, 46, 47
2, 633462, Note_off_c, 0, 70, 55
2, 633465, Note_off_c, 0, 62, 49
2, 633467, Note_on_c, 0, 67, 48
2, 633629, Note_off_c, 0, 67, 52
2, 633662, Note_on_c, 0, 36, 36
2, 633663, Note_on_c, 0, 65, 48
2, 633673, Control_c, 0, 64, 20
2, 633797, Note_off_c, 0, 36, 49
2, 633853, Control_c, 0, 64, 98
2, 634432, Note_on_c, 0, 48, 39
2, 634434, Note_on_c, 0, 57, 45
2, 634451, Control_c, 0, 64, 20
2, 634632, Control_c, 0, 64, 98
2, 635032, Note_off_c, 0, 57, 51
2, 635212, Note_on_c, 0, 60, 46
2, 635223, Note_on_c, 0, 53, 30
2, 635226, Note_on_c, 0, 57, 36
2, 635235, Control_c, 0, 64, 20
2, 635254, Note_off_c, 0, 48, 49
2, 635433, Control_c, 0, 64, 98
2, 636070, Note_on_c, 0, 48, 45
2, 636094, Note_off_c, 0, 53, 47
2, 636097, Note_off_c, 0, 57, 49
2, 636487, Note_off_c, 0, 60, 51
2, 636925, Note_off_c, 0, 65, 52
2, 636928, Note_on_c, 0, 69, 60
2, 636939, Note_on_c, 0, 52, 30
2, 636942, Note_on_c, 0, 55, 36
2, 636945, Control_c, 0, 64, 20
2, 636946, Note_on_c, 0, 60, 40
2, 636989, Note_off_c, 0, 48, 51
2, 637159, Control_c, 0, 64, 98
2, 637403, Note_on_c, 0, 67, 60
2, 637423, Note_off_c, 0, 69, 55
2, 637839, Note_off_c, 0, 52, 47
2, 637843, Note_on_c, 0, 65, 59
2, 637844, Note_on_c, 0, 48, 48
2, 637851, Control_c, 0, 64, 20
2, 637858, Note_off_c, 0, 67, 55
2, 637885, Note_off_c, 0, 55, 49
2, 638042, Control_c, 0, 64, 98
2, 638257, Note_on_c, 0, 67, 57
2, 638276, Note_off_c, 0, 65, 54
2, 638406, Note_off_c, 0, 60, 50
2, 638458, Note_off_c, 0, 48, 52
2, 638556, Note_off_c, 0, 67, 54
2, 638659, Note_on_c, 0, 52, 46
2, 638661, Note_on_c, 0, 60, 40
2, 638663, Note_on_c, 0, 41, 35
2, 638664, Note_on_c, 0, 67, 55
2, 638666, Control_c, 0, 64, 20
2, 638848, Control_c, 0, 64, 98
2, 639396, Note_on_c, 0, 48, 44
2, 639412, Note_off_c, 0, 52, 51
2, 639995, Note_off_c, 0, 60, 50
2, 639999, Note_off_c, 0, 67, 53
2, 640001, Note_on_c, 0, 68, 49
2, 640151, Note_off_c, 0, 68, 52
2, 640191, Note_off_c, 0, 48, 51
2, 640200, Control_c, 0, 64, 20
2, 640213, Note_on_c, 0, 60, 36
2, 640214, Note_on_c, 0, 53, 42
2, 640216, Note_on_c, 0, 69, 48
2, 640419, Control_c, 0, 64, 98
2, 640870, Note_off_c, 0, 53, 50
2, 641073, Note_off_c, 0, 60, 49
2, 641075, Note_off_c, 0, 69, 52
2, 641077, Note_off_c, 0, 41, 48
2, 641080, Note_on_c, 0, 45, 40
2, 641928, Note_on_c, 0, 46, 38
2, 641972, Note_off_c, 0, 45, 50
2, 641975, Control_c, 0, 64, 20
2, 642103, Note_on_c, 0, 60, 25
2, 642203, Note_off_c, 0, 60, 46
2, 642278, Note_on_c, 0, 62, 34
2, 642378, Note_off_c, 0, 62, 48
2, 642464, Note_on_c, 0, 64, 43
2, 642545, Note_off_c, 0, 64, 50
2, 642648, Note_on_c, 0, 43, 36
2, 642650, Note_on_c, 0, 65, 53
2, 642684, Note_off_c, 0, 46, 49
2, 642730, Note_off_c, 0, 65, 53
2, 642814, Note_on_c, 0, 67, 61
2, 642895, Note_off_c, 0, 67, 55
2, 642998, Note_on_c, 0, 69, 71
2, 643080, Note_off_c, 0, 69, 58
2, 643166, Note_off_c, 0, 43, 49
2, 643166, Note_on_c, 0, 70, 79
2, 643246, Note_off_c, 0, 70, 60
2, 643392, Control_c, 0, 64, 98
2, 643435, Note_on_c, 0, 72, 30
2, 643437, Note_on_c, 0, 41, 36
2, 643620, Note_off_c, 0, 41, 49
2, 644189, Note_on_c, 0, 53, 38
2, 644590, Note_on_c, 0, 64, 49
2, 644992, Note_off_c, 0, 64, 52
2, 644994, Note_off_c, 0, 53, 49
2, 644997, Note_on_c, 0, 57, 42
2, 644999, Note_on_c, 0, 60, 40
2, 645000, Note_on_c, 0, 65, 51
2, 645002, Control_c, 0, 64, 20
2, 645199, Control_c, 0, 64, 98
2, 645812, Note_on_c, 0, 53, 43
2, 645880, Note_off_c, 0, 57, 50
2, 645882, Note_off_c, 0, 60, 50
2, 646400, Note_off_c, 0, 72, 47
2, 646406, Note_on_c, 0, 69, 56
2, 646480, Control_c, 0, 64, 20
2, 646593, Note_off_c, 0, 69, 54
2, 646594, Note_off_c, 0, 53, 50
2, 646597, Note_on_c, 0, 58, 45
2, 646598, Note_on_c, 0, 62, 40
2, 646599, Note_on_c, 0, 77, 57
2, 646661, Control_c, 0, 64, 98
2, 647369, Note_off_c, 0, 58, 51
2, 647372, Note_on_c, 0, 53, 49
2, 647374, Note_off_c, 0, 62, 50
2, 647991, Note_off_c, 0, 77, 54
2, 647993, Note_off_c, 0, 53, 52
2, 647995, Note_on_c, 0, 74, 60
2, 648079, Control_c, 0, 64, 20
2, 648182, Note_off_c, 0, 74, 55
2, 648184, Note_off_c, 0, 65, 52
2, 648185, Note_on_c, 0, 60, 40
2, 648186, Note_on_c, 0, 57, 48
2, 648187, Note_on_c, 0, 72, 60
2, 648261, Control_c, 0, 64, 98
2, 648948, Note_off_c, 0, 57, 52
2, 648950, Note_off_c, 0, 60, 50
2, 648953, Note_on_c, 0, 53, 45
2, 649350, Note_on_c, 0, 64, 57
2, 649737, Note_off_c, 0, 64, 54
2, 649738, Note_off_c, 0, 53, 51
2, 649740, Note_on_c, 0, 65, 56
2, 649742, Note_on_c, 0, 57, 42
2, 649743, Note_on_c, 0, 60, 36
2, 649745, Control_c, 0, 64, 20
2, 649940, Control_c, 0, 64, 98
2, 650571, Note_off_c, 0, 57, 50
2, 650573, Note_off_c, 0, 60, 49
2, 650576, Note_on_c, 0, 53, 39
2, 651120, Note_off_c, 0, 65, 54
2, 651166, Note_off_c, 0, 72, 55
2, 651168, Note_on_c, 0, 69, 52
2, 651263, Control_c, 0, 64, 20
2, 651302, Note_off_c, 0, 69, 53
2, 651337, Note_off_c, 0, 53, 49
2, 651354, Note_on_c, 0, 65, 40
2, 651356, Note_on_c, 0, 50, 36
2, 651358, Note_on_c, 0, 72, 52
2, 651443, Control_c, 0, 64, 98
2, 651739, Note_on_c, 0, 70, 51
2, 651741, Note_off_c, 0, 72, 53
2, 652158, Note_off_c, 0, 65, 50
2, 652161, Note_off_c, 0, 50, 49
2, 652163, Note_on_c, 0, 46, 36
2, 652166, Note_on_c, 0, 62, 50
2, 652169, Control_c, 0, 64, 20
2, 652367, Control_c, 0, 64, 98
2, 652609, Note_off_c, 0, 70, 52
2, 652611, Note_on_c, 0, 67, 48
2, 652820, Note_off_c, 0, 62, 52
2, 652931, Note_off_c, 0, 67, 52
2, 653042, Note_off_c, 0, 46, 49
2, 653045, Note_on_c, 0, 65, 36
2, 653047, Note_on_c, 0, 48, 30
2, 653053, Note_on_c, 0, 57, 25
2, 653055, Control_c, 0, 64, 20
2, 653239, Control_c, 0, 64, 98
2, 653623, Note_off_c, 0, 57, 46
2, 653856, Note_on_c, 0, 53, 35
2, 653858, Note_on_c, 0, 57, 39
2, 654424, Note_off_c, 0, 57, 49
2, 654674, Note_on_c, 0, 57, 42
2, 654676, Note_on_c, 0, 60, 48
2, 654701, Note_off_c, 0, 53, 48
2, 655270, Note_off_c, 0, 57, 50
2, 655526, Note_on_c, 0, 53, 55
2, 655528, Note_on_c, 0, 57, 58
2, 655580, Note_off_c, 0, 60, 52
2, 656398, Note_off_c, 0, 48, 47
2, 656400, Note_off_c, 0, 65, 49
2, 656403, Note_on_c, 0, 36, 59
2, 656405, Note_on_c, 0, 60, 62
2, 656412, Control_c, 0, 64, 20
2, 656413, Note_on_c, 0, 55, 64
2, 656415, Note_on_c, 0, 52, 62
2, 656421, Note_off_c, 0, 53, 53
2, 656423, Note_off_c, 0, 57, 54
2, 656608, Control_c, 0, 64, 98
2, 657139, Note_off_c, 0, 52, 55
2, 657355, Note_on_c, 0, 48, 58
2, 657357, Note_on_c, 0, 52, 65
2, 657376, Note_off_c, 0, 55, 56
2, 657796, Note_off_c, 0, 36, 54
2, 657835, Note_off_c, 0, 48, 54
2, 657869, Note_off_c, 0, 60, 55
2, 657920, Note_off_c, 0, 52, 56
2, 658156, Control_c, 0, 64, 20
2, 658364, Note_on_c, 0, 57, 40
2, 658366, Note_on_c, 0, 48, 30
2, 658368, Note_on_c, 0, 41, 36
2, 658371, Note_on_c, 0, 53, 20
2, 658371, Note_on_c, 0, 29, 30
2, 658408, Control_c, 0, 64, 98
2, 658457, Note_off_c, 0, 29, 47
2, 658460, Note_off_c, 0, 41, 49
2, 658684, Note_off_c, 0, 53, 45
2, 658696, Note_off_c, 0, 48, 47
2, 658797, Note_off_c, 0, 57, 50
2, 659513, Control_c, 0, 64, 20
2, 659658, Note_on_c, 0, 41, 30
2, 659754, Note_off_c, 0, 41, 47
2, 659758, Note_on_c, 0, 29, 30
2, 659852, Note_off_c, 0, 29, 47
2, 659853, Note_on_c, 0, 41, 30
2, 659934, Note_off_c, 0, 41, 47
2, 659950, Note_on_c, 0, 29, 30
2, 660016, Note_off_c, 0, 29, 47
2, 660978, Note_on_c, 0, 41, 31
2, 661075, Note_off_c, 0, 41, 47
2, 661077, Note_on_c, 0, 29, 31
2, 661172, Note_off_c, 0, 29, 47
2, 661176, Note_on_c, 0, 41, 31
2, 661243, Note_off_c, 0, 41, 47
2, 661268, Note_on_c, 0, 29, 31
2, 661360, Note_off_c, 0, 29, 47
2, 661946, Note_on_c, 0, 65, 29
2, 662549, Note_off_c, 0, 65, 47
2, 662650, Note_on_c, 0, 65, 32
2, 663607, Control_c, 0, 64, 98
2, 663697, Note_on_c, 0, 41, 39
2, 663793, Note_off_c, 0, 41, 49
2, 663796, Note_on_c, 0, 29, 39
2, 663892, Note_off_c, 0, 29, 49
2, 663894, Note_on_c, 0, 41, 39
2, 663960, Note_off_c, 0, 41, 49
2, 663986, Note_on_c, 0, 63, 30
2, 663988, Note_off_c, 0, 65, 48
2, 663988, Note_on_c, 0, 60, 40
2, 663994, Note_on_c, 0, 29, 39
2, 664001, Control_c, 0, 64, 20
2, 664002, Note_on_c, 0, 66, 49
2, 664006, Note_on_c, 0, 57, 49
2, 664064, Note_off_c, 0, 29, 49
2, 664249, Control_c, 0, 64, 98
2, 665022, Note_on_c, 0, 41, 40
2, 665117, Note_off_c, 0, 41, 50
2, 665120, Note_on_c, 0, 29, 40
2, 665215, Note_off_c, 0, 29, 50
2, 665217, Note_on_c, 0, 41, 40
2, 665283, Note_off_c, 0, 41, 50
2, 665311, Note_on_c, 0, 29, 40
2, 665324, Control_c, 0, 64, 20
2, 665379, Note_off_c, 0, 29, 50
2, 665470, Note_off_c, 0, 66, 52
2, 665592, Control_c, 0, 64, 98
2, 665991, Note_off_c, 0, 63, 47
2, 665998, Note_off_c, 0, 60, 50
2, 666003, Note_on_c, 0, 66, 63
2, 666011, Note_off_c, 0, 57, 52
2, 666596, Note_off_c, 0, 66, 55
2, 666654, Control_c, 0, 64, 20
2, 666698, Note_on_c, 0, 66, 70
2, 666849, Control_c, 0, 64, 98
2, 667747, Note_on_c, 0, 41, 42
2, 667845, Note_off_c, 0, 41, 50
2, 667847, Note_on_c, 0, 29, 42
2, 667941, Note_off_c, 0, 29, 50
2, 667943, Note_on_c, 0, 41, 42
2, 668010, Note_off_c, 0, 41, 50
2, 668034, Control_c, 0, 64, 20
2, 668039, Note_on_c, 0, 60, 77
2, 668042, Note_on_c, 0, 29, 42
2, 668043, Note_on_c, 0, 69, 81
2, 668060, Note_on_c, 0, 63, 69
2, 668107, Note_off_c, 0, 29, 50
2, 668266, Control_c, 0, 64, 98
2, 669070, Note_on_c, 0, 41, 50
2, 669165, Note_off_c, 0, 41, 52
2, 669169, Note_on_c, 0, 29, 50
2, 669263, Note_off_c, 0, 29, 52
2, 669265, Note_on_c, 0, 41, 50
2, 669333, Note_off_c, 0, 41, 52
2, 669361, Note_on_c, 0, 29, 51
2, 669372, Control_c, 0, 64, 20
2, 669428, Note_off_c, 0, 29, 52
2, 669589, Control_c, 0, 64, 98
2, 669806, Note_off_c, 0, 69, 60
2, 670045, Note_on_c, 0, 69, 82
2, 670626, Note_off_c, 0, 69, 60
2, 670745, Note_off_c, 0, 66, 57
2, 670750, Note_off_c, 0, 60, 59
2, 670753, Note_on_c, 0, 69, 94
2, 670755, Control_c, 0, 64, 20
2, 670772, Note_off_c, 0, 63, 57
2, 670981, Control_c, 0, 64, 98
2, 671796, Note_on_c, 0, 41, 61
2, 671892, Note_off_c, 0, 41, 55
2, 671895, Note_on_c, 0, 29, 61
2, 671989, Note_off_c, 0, 29, 55
2, 671990, Note_on_c, 0, 41, 62
2, 672057, Note_off_c, 0, 41, 55
2, 672068, Note_on_c, 0, 72, 91
2, 672088, Note_on_c, 0, 29, 62
2, 672090, Note_on_c, 0, 63, 78
2, 672100, Control_c, 0, 64, 20
2, 672104, Note_on_c, 0, 66, 83
2, 672170, Note_off_c, 0, 29, 55
2, 672343, Control_c, 0, 64, 98
2, 673117, Note_on_c, 0, 41, 66
2, 673200, Note_off_c, 0, 41, 56
2, 673202, Note_on_c, 0, 29, 67
2, 673296, Note_off_c, 0, 29, 57
2, 673298, Note_on_c, 0, 41, 67
2, 673380, Note_off_c, 0, 41, 57
2, 673392, Note_on_c, 0, 29, 67
2, 673396, Control_c, 0, 64, 20
2, 673458, Note_off_c, 0, 29, 57
2, 673641, Control_c, 0, 64, 98
2, 673906, Note_off_c, 0, 63, 59
2, 673907, Note_off_c, 0, 72, 62
2, 674071, Note_off_c, 0, 66, 60
2, 674080, Note_on_c, 0, 72, 90
2, 674645, Note_off_c, 0, 72, 62
2, 674767, Note_off_c, 0, 69, 63
2, 674783, Note_on_c, 0, 72, 91
2, 675484, Note_off_c, 0, 72, 62
2, 675486, Note_on_c, 0, 75, 90
2, 675544, Control_c, 0, 64, 20
2, 675727, Control_c, 0, 64, 98
2, 675829, Note_on_c, 0, 57, 56
2, 675831, Note_on_c, 0, 60, 64
2, 675927, Note_off_c, 0, 57, 54
2, 675929, Note_off_c, 0, 60, 56
2, 675932, Note_on_c, 0, 53, 64
2, 676023, Note_off_c, 0, 53, 56
2, 676025, Note_on_c, 0, 57, 52
2, 676027, Note_on_c, 0, 60, 58
2, 676105, Note_off_c, 0, 57, 53
2, 676108, Note_off_c, 0, 60, 54
2, 676122, Note_on_c, 0, 53, 63
2, 676165, Control_c, 0, 64, 20
2, 676171, Note_off_c, 0, 53, 55
2, 676503, Note_off_c, 0, 75, 62
2, 676508, Note_on_c, 0, 74, 60
2, 676818, Note_on_c, 0, 72, 61
2, 676834, Note_off_c, 0, 74, 55
2, 677137, Note_on_c, 0, 70, 59
2, 677181, Note_off_c, 0, 72, 55
2, 677441, Note_on_c, 0, 69, 57
2, 677476, Note_off_c, 0, 70, 54
2, 677709, Note_on_c, 0, 67, 55
2, 677724, Note_off_c, 0, 69, 54
2, 677946, Note_on_c, 0, 65, 53
2, 677990, Note_off_c, 0, 67, 53
2, 678189, Note_on_c, 0, 64, 51
2, 678236, Note_off_c, 0, 65, 53
2, 678438, Note_on_c, 0, 63, 49
2, 678468, Note_off_c, 0, 64, 52
2, 678707, Note_on_c, 0, 62, 48
2, 678739, Note_off_c, 0, 63, 52
2, 678973, Note_on_c, 0, 60, 46
2, 678987, Note_off_c, 0, 62, 52
2, 679255, Note_on_c, 0, 58, 44
2, 679261, Note_off_c, 0, 60, 51
2, 679571, Note_on_c, 0, 57, 42
2, 679627, Note_off_c, 0, 58, 51
2, 679949, Note_off_c, 0, 57, 50
2, 679952, Note_on_c, 0, 63, 40
2, 680497, Note_on_c, 0, 57, 38
2, 680565, Note_off_c, 0, 63, 50
2, 681133, Note_off_c, 0, 57, 49
2, 681137, Note_on_c, 0, 46, 30
2, 681140, Note_on_c, 0, 58, 40
2, 681142, Control_c, 0, 64, 20
2, 681149, Note_on_c, 0, 50, 20
2, 681155, Note_on_c, 0, 34, 24
2, 681349, Control_c, 0, 64, 98
2, 682420, Note_on_c, 0, 51, 24
2, 682427, Note_off_c, 0, 50, 45
2, 682602, Note_off_c, 0, 51, 46
2, 682602, Note_on_c, 0, 53, 26
2, 683685, Note_off_c, 0, 53, 46
2, 684036, Note_on_c, 0, 53, 48
2, 684424, Note_off_c, 0, 46, 47
2, 684699, Note_off_c, 0, 34, 46
2, 685142, Note_off_c, 0, 53, 52
2, 685457, Note_off_c, 0, 58, 50
2, 685474, Note_on_c, 0, 74, 62
2, 685483, Note_on_c, 0, 50, 42
2, 685485, Note_on_c, 0, 53, 36
2, 685488, Note_on_c, 0, 46, 41
2, 685493, Control_c, 0, 64, 20
2, 685675, Control_c, 0, 64, 98
2, 686261, Note_off_c, 0, 74, 55
2, 686263, Note_on_c, 0, 75, 61
2, 686348, Note_off_c, 0, 75, 55
2, 686357, Note_on_c, 0, 74, 63
2, 686443, Note_off_c, 0, 74, 55
2, 686445, Note_on_c, 0, 72, 64
2, 686525, Note_off_c, 0, 72, 56
2, 686527, Note_on_c, 0, 74, 66
2, 686917, Note_off_c, 0, 74, 56
2, 686935, Note_on_c, 0, 75, 69
2, 687052, Note_off_c, 0, 75, 57
2, 687081, Note_on_c, 0, 77, 72
2, 687625, Note_off_c, 0, 46, 50
2, 687844, Note_off_c, 0, 53, 49
2, 687873, Note_off_c, 0, 50, 50
2, 688503, Note_off_c, 0, 77, 58
2, 688566, Note_on_c, 0, 58, 42
2, 688576, Note_on_c, 0, 34, 36
2, 688578, Note_on_c, 0, 41, 25
2, 688579, Note_on_c, 0, 46, 36
2, 688580, Note_on_c, 0, 50, 30
2, 688582, Control_c, 0, 64, 20
2, 688763, Control_c, 0, 64, 98
2, 689706, Note_off_c, 0, 34, 49
2, 689813, Note_off_c, 0, 41, 46
2, 689819, Note_off_c, 0, 46, 49
2, 689863, Note_off_c, 0, 50, 47
2, 690035, Note_off_c, 0, 58, 50
2, 690053, Note_on_c, 0, 57, 40
2, 690063, Note_on_c, 0, 41, 36
2, 690065, Note_on_c, 0, 48, 28
2, 690068, Note_on_c, 0, 36, 36
2, 690069, Note_on_c, 0, 51, 20
2, 690070, Control_c, 0, 64, 20
2, 690246, Control_c, 0, 64, 98
2, 691083, Note_off_c, 0, 51, 45
2, 691404, Note_on_c, 0, 53, 41
2, 691578, Note_on_c, 0, 54, 42
2, 691588, Note_off_c, 0, 53, 50
2, 692860, Note_off_c, 0, 54, 50
2, 693192, Note_on_c, 0, 54, 48
2, 693579, Note_off_c, 0, 36, 49
2, 693762, Note_off_c, 0, 48, 47
2, 693794, Note_off_c, 0, 41, 49
2, 694443, Note_off_c, 0, 54, 52
2, 694795, Note_off_c, 0, 57, 50
2, 694801, Note_on_c, 0, 54, 48
2, 694803, Note_on_c, 0, 81, 64
2, 694812, Note_on_c, 0, 63, 32
2, 694815, Control_c, 0, 64, 20
2, 694851, Note_on_c, 0, 60, 40
2, 694995, Control_c, 0, 64, 98
2, 695597, Note_on_c, 0, 82, 62
2, 695600, Note_off_c, 0, 81, 56
2, 695682, Note_on_c, 0, 81, 64
2, 695684, Note_off_c, 0, 82, 55
2, 695763, Note_off_c, 0, 81, 56
2, 695766, Note_on_c, 0, 79, 66
2, 695847, Note_off_c, 0, 79, 56
2, 695849, Note_on_c, 0, 81, 68
2, 696227, Note_on_c, 0, 82, 72
2, 696237, Note_off_c, 0, 81, 57
2, 696359, Note_off_c, 0, 82, 58
2, 696395, Note_on_c, 0, 84, 72
2, 696404, Note_on_c, 0, 53, 42
2, 696451, Note_off_c, 0, 54, 52
2, 696914, Note_off_c, 0, 63, 48
2, 697230, Note_off_c, 0, 60, 50
2, 697556, Note_off_c, 0, 53, 50
2, 697831, Note_off_c, 0, 84, 58
2, 697886, Note_on_c, 0, 63, 50
2, 697891, Control_c, 0, 64, 20
2, 697898, Note_on_c, 0, 45, 45
2, 697900, Note_on_c, 0, 53, 30
2, 697901, Note_on_c, 0, 60, 40
2, 698071, Control_c, 0, 64, 98
2, 699015, Note_off_c, 0, 53, 47
2, 699091, Note_off_c, 0, 60, 50
2, 699159, Note_off_c, 0, 45, 51
2, 699357, Note_off_c, 0, 63, 52
2, 699374, Note_on_c, 0, 62, 36
2, 699384, Note_on_c, 0, 34, 32
2, 699385, Note_on_c, 0, 46, 30
2, 699387, Note_on_c, 0, 53, 20
2, 699388, Note_on_c, 0, 56, 24
2, 699390, Control_c, 0, 64, 20
2, 699572, Control_c, 0, 64, 98
2, 700443, Note_off_c, 0, 56, 46
2, 700727, Note_on_c, 0, 58, 41
2, 700898, Note_on_c, 0, 59, 42
2, 700909, Note_off_c, 0, 58, 50
2, 702124, Note_off_c, 0, 59, 50
2, 702503, Note_on_c, 0, 59, 48
2, 703091, Note_off_c, 0, 46, 47
2, 703152, Note_off_c, 0, 53, 45
2, 703463, Note_off_c, 0, 34, 48
2, 703771, Note_off_c, 0, 59, 52
2, 704100, Note_off_c, 0, 62, 49
2, 704118, Note_on_c, 0, 74, 55
2, 704128, Control_c, 0, 64, 20
2, 704131, Note_on_c, 0, 59, 36
2, 704132, Note_on_c, 0, 65, 30
2, 704133, Note_on_c, 0, 68, 40
2, 704308, Control_c, 0, 64, 98
2, 704920, Note_off_c, 0, 74, 53
2, 704922, Note_on_c, 0, 75, 54
2, 705001, Note_on_c, 0, 74, 55
2, 705009, Note_off_c, 0, 75, 53
2, 705085, Note_off_c, 0, 74, 53
2, 705088, Note_on_c, 0, 72, 56
2, 705168, Note_off_c, 0, 72, 54
2, 705170, Note_on_c, 0, 74, 57
2, 705530, Control_c, 0, 64, 20
2, 705537, Note_on_c, 0, 75, 59
2, 705560, Note_off_c, 0, 74, 54
2, 705671, Note_off_c, 0, 75, 54
2, 705712, Control_c, 0, 64, 98
2, 705714, Note_on_c, 0, 77, 61
2, 705722, Note_on_c, 0, 58, 42
2, 705776, Note_off_c, 0, 59, 49
2, 706345, Note_off_c, 0, 68, 50
2, 706690, Note_off_c, 0, 65, 47
2, 706871, Note_off_c, 0, 58, 50
2, 707139, Note_off_c, 0, 77, 55
2, 707325, Note_on_c, 0, 77, 72
2, 707335, Note_on_c, 0, 58, 48
2, 707337, Note_on_c, 0, 50, 43
2, 707338, Note_on_c, 0, 68, 52
2, 707344, Control_c, 0, 64, 20
2, 707524, Control_c, 0, 64, 98
2, 708499, Note_off_c, 0, 50, 50
2, 708541, Note_off_c, 0, 68, 53
2, 708723, Note_off_c, 0, 58, 52
2, 708818, Note_off_c, 0, 77, 58
2, 708933, Note_on_c, 0, 77, 56
2, 708942, Note_on_c, 0, 58, 32
2, 708944, Note_on_c, 0, 67, 30
2, 708946, Note_on_c, 0, 51, 24
2, 708950, Control_c, 0, 64, 20
2, 709131, Control_c, 0, 64, 98
2, 709647, Note_on_c, 0, 59, 36
2, 709712, Note_off_c, 0, 58, 45
2, 710399, Note_on_c, 0, 75, 53
2, 710401, Note_on_c, 0, 60, 40
2, 710443, Note_off_c, 0, 77, 54
2, 710458, Note_off_c, 0, 59, 46
2, 710745, Note_off_c, 0, 67, 47
2, 710809, Note_off_c, 0, 51, 46
2, 710959, Control_c, 0, 64, 20
2, 711035, Note_off_c, 0, 75, 53
2, 711045, Note_off_c, 0, 60, 47
2, 711139, Control_c, 0, 64, 98
2, 711153, Note_on_c, 0, 74, 59
2, 711162, Note_on_c, 0, 62, 36
2, 711164, Note_on_c, 0, 70, 30
2, 711167, Note_on_c, 0, 53, 33
2, 711763, Note_off_c, 0, 53, 48
2, 711801, Note_off_c, 0, 70, 47
2, 711804, Note_off_c, 0, 62, 49
2, 711905, Note_off_c, 0, 74, 54
2, 711919, Note_on_c, 0, 55, 38
2, 711921, Note_on_c, 0, 72, 51
2, 711923, Note_on_c, 0, 63, 40
2, 711924, Note_on_c, 0, 70, 31
2, 711926, Control_c, 0, 64, 20
2, 712126, Control_c, 0, 64, 98
2, 712196, Note_off_c, 0, 72, 52
2, 712214, Note_off_c, 0, 55, 49
2, 712519, Note_off_c, 0, 63, 50
2, 712521, Note_off_c, 0, 70, 47
2, 712722, Note_on_c, 0, 55, 36
2, 712724, Note_on_c, 0, 72, 54
2, 712725, Note_on_c, 0, 64, 30
2, 712726, Note_on_c, 0, 70, 40
2, 712751, Control_c, 0, 64, 20
2, 712927, Note_off_c, 0, 72, 53
2, 712966, Control_c, 0, 64, 98
2, 712972, Note_off_c, 0, 55, 49
2, 713320, Note_off_c, 0, 70, 50
2, 713323, Note_off_c, 0, 64, 47
2, 713464, Control_c, 0, 64, 20
2, 713523, Note_on_c, 0, 64, 48
2, 713525, Note_on_c, 0, 70, 40
2, 713527, Note_on_c, 0, 53, 50
2, 713528, Note_on_c, 0, 72, 38
2, 713600, Note_on_c, 0, 74, 33
2, 713614, Note_off_c, 0, 72, 49
2, 713677, Note_on_c, 0, 72, 34
2, 713685, Note_off_c, 0, 74, 48
2, 713736, Note_on_c, 0, 74, 36
2, 713751, Note_off_c, 0, 72, 48
2, 713811, Note_on_c, 0, 72, 37
2, 713826, Note_off_c, 0, 74, 49
2, 713873, Note_on_c, 0, 74, 38
2, 713897, Note_off_c, 0, 72, 49
2, 713947, Note_on_c, 0, 72, 40
2, 713961, Note_off_c, 0, 74, 49
2, 714033, Note_off_c, 0, 72, 50
2, 714039, Note_on_c, 0, 71, 41
2, 714114, Note_on_c, 0, 72, 43
2, 714121, Note_off_c, 0, 71, 50
2, 714205, Note_on_c, 0, 74, 55
2, 714212, Note_off_c, 0, 72, 50
2, 714390, Control_c, 0, 64, 98
2, 714553, Note_off_c, 0, 74, 53
2, 714574, Note_on_c, 0, 72, 52
2, 714867, Note_off_c, 0, 72, 53
2, 714926, Note_on_c, 0, 69, 30
2, 714928, Note_on_c, 0, 72, 48
2, 714929, Note_on_c, 0, 65, 36
2, 714934, Control_c, 0, 64, 20
2, 714963, Note_off_c, 0, 64, 52
2, 714965, Note_off_c, 0, 70, 50
2, 715116, Control_c, 0, 64, 98
2, 715443, Note_off_c, 0, 69, 47
2, 715445, Note_off_c, 0, 72, 52
2, 715624, Note_off_c, 0, 65, 49
2, 715626, Note_off_c, 0, 53, 52
2, 716221, Control_c, 0, 64, 20
2, 716403, Control_c, 0, 64, 98
2, 716666, Note_on_c, 0, 53, 49
2, 716940, Note_off_c, 0, 53, 52
2, 716942, Note_on_c, 0, 55, 51
2, 717234, Note_off_c, 0, 55, 52
2, 717236, Note_on_c, 0, 53, 52
2, 717514, Note_off_c, 0, 53, 53
2, 717518, Note_on_c, 0, 52, 54
2, 717524, Control_c, 0, 64, 20
2, 717710, Control_c, 0, 64, 98
2, 717813, Note_off_c, 0, 52, 53
2, 717814, Note_on_c, 0, 53, 55
2, 718085, Note_off_c, 0, 53, 53
2, 718087, Note_on_c, 0, 51, 50
2, 718089, Note_on_c, 0, 55, 57
2, 718100, Control_c, 0, 64, 20
2, 718296, Control_c, 0, 64, 98
2, 718370, Note_off_c, 0, 55, 54
2, 718371, Note_off_c, 0, 51, 52
2, 718376, Note_on_c, 0, 48, 49
2, 718377, Note_on_c, 0, 57, 58
2, 718582, Note_off_c, 0, 48, 52
2, 718583, Note_off_c, 0, 57, 54
2, 718622, Note_on_c, 0, 58, 60
2, 718633, Note_on_c, 0, 34, 55
2, 718634, Note_on_c, 0, 46, 50
2, 718636, Control_c, 0, 64, 20
2, 718637, Note_on_c, 0, 50, 40
2, 718815, Control_c, 0, 64, 98
2, 718983, Note_off_c, 0, 34, 53
2, 719866, Note_off_c, 0, 46, 52
2, 719869, Note_off_c, 0, 50, 50
2, 719870, Note_on_c, 0, 48, 50
2, 719872, Note_on_c, 0, 51, 54
2, 720008, Control_c, 0, 64, 20
2, 720034, Note_off_c, 0, 48, 52
2, 720036, Note_off_c, 0, 51, 53
2, 720039, Note_on_c, 0, 50, 40
2, 720041, Note_on_c, 0, 53, 52
2, 720193, Control_c, 0, 64, 100
2, 720217, Note_on_c, 0, 82, 36
2, 720385, Note_off_c, 0, 82, 49
2, 720386, Note_on_c, 0, 86, 36
2, 720569, Note_off_c, 0, 86, 49
2, 720570, Note_on_c, 0, 82, 36
2, 720753, Note_off_c, 0, 82, 49
2, 720755, Note_on_c, 0, 77, 36
2, 720919, Note_off_c, 0, 77, 49
2, 720921, Note_on_c, 0, 82, 35
2, 721104, Note_off_c, 0, 82, 48
2, 721106, Note_on_c, 0, 74, 35
2, 721181, Note_off_c, 0, 50, 50
2, 721234, Note_off_c, 0, 53, 53
2, 721286, Note_off_c, 0, 74, 48
2, 721288, Note_on_c, 0, 77, 34
2, 721440, Note_off_c, 0, 77, 48
2, 721470, Note_on_c, 0, 50, 30
2, 721472, Note_on_c, 0, 53, 36
2, 721475, Note_on_c, 0, 70, 34
2, 721479, Control_c, 0, 64, 20
2, 721571, Note_off_c, 0, 58, 55
2, 721637, Note_off_c, 0, 70, 48
2, 721638, Note_on_c, 0, 74, 33
2, 721655, Control_c, 0, 64, 101
2, 721821, Note_off_c, 0, 74, 48
2, 721824, Note_on_c, 0, 65, 33
2, 722006, Note_off_c, 0, 65, 48
2, 722007, Note_on_c, 0, 70, 32
2, 722190, Note_off_c, 0, 70, 48
2, 722192, Note_on_c, 0, 62, 32
2, 722372, Note_off_c, 0, 62, 48
2, 722374, Note_on_c, 0, 65, 31
2, 722556, Note_off_c, 0, 65, 47
2, 722558, Note_on_c, 0, 58, 31
2, 722654, Note_off_c, 0, 53, 49
2, 722717, Note_off_c, 0, 50, 47
2, 722741, Note_off_c, 0, 58, 47
2, 722743, Note_on_c, 0, 62, 30
2, 722909, Note_off_c, 0, 62, 47
2, 722923, Note_on_c, 0, 74, 60
2, 722924, Note_on_c, 0, 53, 30
2, 722931, Control_c, 0, 64, 20
2, 723105, Control_c, 0, 64, 98
2, 723107, Note_off_c, 0, 53, 47
2, 723110, Note_on_c, 0, 58, 32
2, 723273, Note_off_c, 0, 58, 48
2, 723276, Note_on_c, 0, 50, 34
2, 723459, Note_off_c, 0, 50, 48
2, 723462, Note_on_c, 0, 53, 36
2, 723626, Note_off_c, 0, 53, 49
2, 723627, Note_on_c, 0, 46, 39
2, 723726, Note_off_c, 0, 74, 55
2, 723728, Note_on_c, 0, 75, 65
2, 723810, Note_off_c, 0, 46, 49
2, 723813, Note_on_c, 0, 50, 41
2, 723814, Note_off_c, 0, 75, 56
2, 723819, Note_on_c, 0, 74, 66
2, 723901, Note_off_c, 0, 74, 56
2, 723903, Note_on_c, 0, 72, 67
2, 723976, Note_off_c, 0, 50, 50
2, 723978, Note_on_c, 0, 41, 43
2, 723987, Note_off_c, 0, 72, 57
2, 723990, Note_on_c, 0, 74, 68
2, 724176, Note_off_c, 0, 41, 50
2, 724181, Note_on_c, 0, 46, 45
2, 724233, Note_on_c, 0, 75, 70
2, 724254, Note_off_c, 0, 74, 57
2, 724339, Note_off_c, 0, 75, 57
2, 724356, Note_off_c, 0, 46, 51
2, 724358, Note_on_c, 0, 77, 72
2, 724361, Note_on_c, 0, 38, 48
2, 724364, Control_c, 0, 64, 20
2, 724541, Control_c, 0, 64, 95
2, 724542, Note_off_c, 0, 38, 52
2, 724544, Note_on_c, 0, 34, 48
2, 724708, Note_off_c, 0, 34, 52
2, 724709, Note_on_c, 0, 38, 48
2, 724892, Note_off_c, 0, 38, 52
2, 724894, Note_on_c, 0, 41, 47
2, 725058, Note_off_c, 0, 41, 51
2, 725059, Note_on_c, 0, 46, 46
2, 725242, Note_off_c, 0, 46, 51
2, 725246, Note_on_c, 0, 38, 45
2, 725410, Note_off_c, 0, 38, 51
2, 725412, Note_on_c, 0, 41, 44
2, 725595, Note_off_c, 0, 41, 51
2, 725597, Note_on_c, 0, 46, 44
2, 725760, Note_off_c, 0, 46, 51
2, 725762, Note_off_c, 0, 77, 58
2, 725765, Note_on_c, 0, 50, 43
2, 725766, Note_on_c, 0, 58, 48
2, 725768, Control_c, 0, 64, 20
2, 725943, Control_c, 0, 64, 98
2, 725945, Note_off_c, 0, 50, 50
2, 725947, Note_on_c, 0, 46, 42
2, 726113, Note_off_c, 0, 46, 50
2, 726115, Note_on_c, 0, 41, 41
2, 726305, Note_off_c, 0, 41, 50
2, 726307, Note_on_c, 0, 38, 40
2, 726505, Note_off_c, 0, 38, 50
2, 726507, Note_on_c, 0, 46, 40
2, 726718, Note_off_c, 0, 46, 50
2, 726720, Note_on_c, 0, 41, 39
2, 726939, Note_off_c, 0, 41, 49
2, 726942, Note_on_c, 0, 38, 38
2, 727171, Note_off_c, 0, 38, 49
2, 727173, Note_on_c, 0, 34, 37
2, 727369, Note_on_c, 0, 57, 50
2, 727374, Note_off_c, 0, 58, 52
2, 727378, Note_off_c, 0, 34, 49
2, 727382, Note_on_c, 0, 29, 36
2, 727383, Note_on_c, 0, 48, 30
2, 727385, Control_c, 0, 64, 20
2, 727386, Note_on_c, 0, 51, 40
2, 727566, Control_c, 0, 64, 96
2, 727777, Note_off_c, 0, 29, 49
2, 728467, Note_off_c, 0, 48, 47
2, 728574, Note_off_c, 0, 51, 50
2, 728768, Note_on_c, 0, 50, 38
2, 728770, Note_on_c, 0, 53, 42
2, 728777, Control_c, 0, 64, 20
2, 728930, Note_off_c, 0, 50, 49
2, 728938, Note_off_c, 0, 53, 50
2, 728969, Note_on_c, 0, 51, 36
2, 728971, Note_on_c, 0, 54, 41
2, 728981, Control_c, 0, 64, 95
2, 729168, Note_on_c, 0, 84, 48
2, 729334, Note_off_c, 0, 84, 52
2, 729335, Note_on_c, 0, 87, 48
2, 729518, Note_off_c, 0, 87, 52
2, 729522, Note_on_c, 0, 84, 47
2, 729686, Note_off_c, 0, 84, 51
2, 729688, Note_on_c, 0, 81, 46
2, 729753, Note_off_c, 0, 51, 49
2, 729810, Note_off_c, 0, 54, 50
2, 729870, Note_off_c, 0, 81, 51
2, 729870, Note_on_c, 0, 84, 45
2, 730038, Note_off_c, 0, 84, 51
2, 730041, Note_on_c, 0, 78, 44
2, 730221, Note_off_c, 0, 78, 51
2, 730222, Note_on_c, 0, 81, 43
2, 730387, Note_off_c, 0, 81, 50
2, 730389, Note_on_c, 0, 51, 32
2, 730391, Note_on_c, 0, 54, 36
2, 730393, Note_on_c, 0, 75, 42
2, 730395, Control_c, 0, 64, 20
2, 730549, Control_c, 0, 64, 92
2, 730553, Note_off_c, 0, 75, 50
2, 730554, Note_on_c, 0, 78, 41
2, 730737, Note_off_c, 0, 78, 50
2, 730739, Note_on_c, 0, 72, 40
2, 730903, Note_off_c, 0, 72, 50
2, 730905, Note_on_c, 0, 75, 39
2, 731077, Note_off_c, 0, 57, 52
2, 731088, Note_off_c, 0, 75, 49
2, 731091, Note_on_c, 0, 69, 38
2, 731255, Note_off_c, 0, 69, 49
2, 731258, Note_on_c, 0, 72, 37
2, 731440, Note_off_c, 0, 72, 49
2, 731442, Note_on_c, 0, 66, 36
2, 731449, Note_off_c, 0, 54, 49
2, 731605, Note_off_c, 0, 66, 49
2, 731608, Note_on_c, 0, 69, 36
2, 731617, Note_off_c, 0, 51, 48
2, 731792, Note_off_c, 0, 69, 49
2, 731794, Note_on_c, 0, 84, 60
2, 731795, Note_on_c, 0, 63, 36
2, 731799, Control_c, 0, 64, 20
2, 731956, Note_off_c, 0, 63, 49
2, 731958, Note_on_c, 0, 66, 36
2, 731963, Control_c, 0, 64, 96
2, 732141, Note_off_c, 0, 66, 49
2, 732142, Note_on_c, 0, 60, 37
2, 732306, Note_off_c, 0, 60, 49
2, 732309, Note_on_c, 0, 63, 39
2, 732492, Note_off_c, 0, 63, 49
2, 732495, Note_on_c, 0, 57, 41
2, 732572, Note_off_c, 0, 84, 55
2, 732575, Note_on_c, 0, 86, 65
2, 732656, Note_off_c, 0, 86, 56
2, 732659, Note_off_c, 0, 57, 50
2, 732661, Note_on_c, 0, 84, 66
2, 732662, Note_on_c, 0, 60, 42
2, 732757, Note_off_c, 0, 84, 56
2, 732761, Note_on_c, 0, 83, 67
2, 732846, Note_off_c, 0, 60, 50
2, 732846, Note_off_c, 0, 83, 57
2, 732848, Note_on_c, 0, 84, 68
2, 732850, Note_on_c, 0, 54, 44
2, 733028, Note_off_c, 0, 54, 51
2, 733029, Note_on_c, 0, 57, 46
2, 733090, Note_on_c, 0, 86, 70
2, 733100, Note_off_c, 0, 84, 57
2, 733174, Note_off_c, 0, 86, 57
2, 733214, Note_on_c, 0, 87, 72
2, 733224, Note_off_c, 0, 57, 51
2, 733226, Note_on_c, 0, 48, 48
2, 733231, Control_c, 0, 64, 20
2, 733387, Control_c, 0, 64, 99
2, 733390, Note_off_c, 0, 48, 52
2, 733392, Note_on_c, 0, 54, 48
2, 733575, Note_off_c, 0, 54, 52
2, 733577, Note_on_c, 0, 51, 47
2, 733740, Note_off_c, 0, 51, 51
2, 733742, Note_on_c, 0, 57, 46
2, 733925, Note_off_c, 0, 57, 51
2, 733927, Note_on_c, 0, 54, 45
2, 734091, Note_off_c, 0, 54, 51
2, 734093, Note_on_c, 0, 60, 43
2, 734280, Note_off_c, 0, 60, 50
2, 734282, Note_on_c, 0, 57, 42
2, 734454, Note_off_c, 0, 57, 50
2, 734457, Note_on_c, 0, 54, 41
2, 734646, Note_off_c, 0, 87, 58
2, 734657, Note_off_c, 0, 54, 50
2, 734660, Note_on_c, 0, 66, 72
2, 734671, Note_on_c, 0, 63, 60
2, 734674, Note_on_c, 0, 60, 48
2, 734677, Control_c, 0, 64, 20
2, 734855, Control_c, 0, 64, 92
2, 734865, Note_on_c, 0, 51, 38
2, 735057, Note_off_c, 0, 51, 49
2, 735059, Note_on_c, 0, 46, 37
2, 735263, Note_off_c, 0, 46, 49
2, 735264, Note_on_c, 0, 54, 36
2, 735470, Note_off_c, 0, 54, 49
2, 735473, Note_on_c, 0, 51, 34
2, 735683, Note_off_c, 0, 51, 48
2, 735684, Note_on_c, 0, 58, 33
2, 735887, Note_off_c, 0, 60, 52
2, 735895, Note_off_c, 0, 63, 55
2, 735896, Note_off_c, 0, 58, 48
2, 735898, Note_on_c, 0, 54, 32
2, 736112, Note_off_c, 0, 54, 48
2, 736114, Note_on_c, 0, 51, 30
2, 736294, Note_off_c, 0, 66, 58
2, 736298, Note_off_c, 0, 51, 47
2, 736302, Note_on_c, 0, 65, 45
2, 736308, Note_on_c, 0, 63, 30
2, 736310, Note_on_c, 0, 60, 36
2, 736313, Note_on_c, 0, 45, 48
2, 736335, Control_c, 0, 64, 20
2, 736505, Control_c, 0, 64, 95
2, 736900, Note_off_c, 0, 60, 49
2, 736911, Note_off_c, 0, 63, 47
2, 736960, Note_off_c, 0, 45, 52
2, 737100, Note_on_c, 0, 57, 30
2, 737102, Note_on_c, 0, 60, 36
2, 737559, Note_off_c, 0, 60, 49
2, 737575, Note_off_c, 0, 57, 47
2, 737719, Note_on_c, 0, 59, 36
2, 737720, Note_on_c, 0, 62, 39
2, 737806, Control_c, 0, 64, 20
2, 737831, Note_off_c, 0, 59, 49
2, 737841, Note_off_c, 0, 62, 49
2, 737919, Note_on_c, 0, 60, 27
2, 737920, Note_on_c, 0, 63, 40
2, 737971, Control_c, 0, 64, 96
2, 738118, Note_on_c, 0, 84, 47
2, 738301, Note_off_c, 0, 84, 51
2, 738304, Note_on_c, 0, 87, 45
2, 738472, Note_off_c, 0, 87, 51
2, 738472, Note_on_c, 0, 84, 43
2, 738651, Note_off_c, 0, 84, 50
2, 738654, Note_on_c, 0, 81, 42
2, 738822, Note_off_c, 0, 81, 50
2, 738823, Note_on_c, 0, 84, 40
2, 738978, Note_off_c, 0, 60, 46
2, 739003, Note_off_c, 0, 84, 50
2, 739006, Note_on_c, 0, 75, 38
2, 739157, Note_off_c, 0, 63, 50
2, 739172, Note_off_c, 0, 75, 49
2, 739174, Note_on_c, 0, 81, 36
2, 739340, Note_off_c, 0, 81, 49
2, 739355, Note_on_c, 0, 60, 40
2, 739356, Note_on_c, 0, 63, 48
2, 739358, Note_on_c, 0, 72, 36
2, 739365, Control_c, 0, 64, 20
2, 739523, Note_off_c, 0, 72, 49
2, 739524, Note_on_c, 0, 75, 37
2, 739549, Control_c, 0, 64, 127
2, 739705, Note_off_c, 0, 75, 49
2, 739706, Note_on_c, 0, 69, 39
2, 739873, Note_off_c, 0, 69, 49
2, 739874, Note_on_c, 0, 72, 40
2, 739892, Note_off_c, 0, 63, 52
2, 739905, Note_off_c, 0, 60, 50
2, 740038, Note_off_c, 0, 65, 51
2, 740040, Note_off_c, 0, 72, 50
2, 740055, Note_on_c, 0, 63, 42
2, 740224, Note_off_c, 0, 63, 50
2, 740225, Note_on_c, 0, 69, 43
2, 740397, Note_on_c, 0, 84, 66
2, 740406, Note_off_c, 0, 69, 50
2, 740409, Note_on_c, 0, 60, 45
2, 740417, Control_c, 0, 64, 20
2, 740576, Note_off_c, 0, 60, 51
2, 740577, Note_on_c, 0, 63, 46
2, 740583, Control_c, 0, 64, 96
2, 740710, Note_off_c, 0, 84, 56
2, 740712, Note_off_c, 0, 63, 51
2, 740760, Note_on_c, 0, 84, 56
2, 740761, Note_on_c, 0, 57, 42
2, 740925, Note_off_c, 0, 57, 50
2, 740927, Note_on_c, 0, 60, 49
2, 741108, Note_off_c, 0, 60, 52
2, 741110, Note_on_c, 0, 53, 51
2, 741277, Note_off_c, 0, 53, 52
2, 741278, Note_on_c, 0, 57, 52
2, 741458, Note_off_c, 0, 57, 53
2, 741460, Note_on_c, 0, 48, 54
2, 741533, Note_off_c, 0, 84, 54
2, 741542, Note_on_c, 0, 86, 59
2, 741616, Note_on_c, 0, 84, 60
2, 741626, Note_off_c, 0, 86, 54
2, 741628, Note_off_c, 0, 48, 53
2, 741630, Note_on_c, 0, 53, 55
2, 741700, Note_off_c, 0, 84, 55
2, 741703, Note_on_c, 0, 83, 61
2, 741801, Note_off_c, 0, 83, 55
2, 741803, Note_on_c, 0, 84, 62
2, 741813, Note_off_c, 0, 53, 56
2, 741817, Note_on_c, 0, 45, 50
2, 741997, Note_off_c, 0, 45, 52
2, 741999, Note_on_c, 0, 48, 58
2, 742070, Note_on_c, 0, 86, 64
2, 742086, Note_off_c, 0, 84, 55
2, 742155, Note_off_c, 0, 86, 56
2, 742184, Note_on_c, 0, 87, 66
2, 742194, Note_off_c, 0, 48, 54
2, 742195, Note_on_c, 0, 41, 55
2, 742203, Control_c, 0, 64, 20
2, 742362, Note_off_c, 0, 41, 53
2, 742364, Note_on_c, 0, 45, 60
2, 742378, Control_c, 0, 64, 99
2, 742544, Note_off_c, 0, 45, 55
2, 742545, Note_on_c, 0, 36, 56
2, 742712, Note_off_c, 0, 36, 54
2, 742714, Note_on_c, 0, 41, 52
2, 742895, Note_off_c, 0, 41, 53
2, 742896, Note_on_c, 0, 33, 48
2, 743063, Note_off_c, 0, 33, 52
2, 743065, Note_on_c, 0, 36, 44
2, 743245, Note_off_c, 0, 36, 51
2, 743247, Note_on_c, 0, 29, 40
2, 743430, Note_off_c, 0, 29, 50
2, 743431, Note_on_c, 0, 33, 36
2, 743601, Note_off_c, 0, 87, 56
2, 743615, Note_off_c, 0, 33, 49
2, 743618, Note_on_c, 0, 75, 87
2, 743627, Note_on_c, 0, 69, 79
2, 743635, Control_c, 0, 64, 20
2, 743643, Note_on_c, 0, 72, 61
2, 743796, Note_on_c, 0, 30, 37
2, 743803, Control_c, 0, 64, 96
2, 743978, Note_off_c, 0, 30, 49
2, 743982, Note_on_c, 0, 33, 39
2, 744164, Note_off_c, 0, 33, 49
2, 744167, Note_on_c, 0, 36, 40
2, 744384, Note_off_c, 0, 36, 50
2, 744386, Note_on_c, 0, 42, 42
2, 744586, Note_off_c, 0, 42, 50
2, 744588, Note_on_c, 0, 45, 43
2, 744816, Note_off_c, 0, 45, 50
2, 744817, Note_on_c, 0, 48, 45
2, 745045, Note_off_c, 0, 48, 51
2, 745047, Note_on_c, 0, 54, 46
2, 745282, Note_off_c, 0, 75, 61
2, 745282, Note_off_c, 0, 69, 60
2, 745287, Note_off_c, 0, 54, 51
2, 745290, Note_on_c, 0, 74, 61
2, 745296, Note_on_c, 0, 70, 47
2, 745309, Control_c, 0, 64, 20
2, 745330, Note_off_c, 0, 72, 55
2, 745484, Note_on_c, 0, 31, 49
2, 745485, Control_c, 0, 64, 96
2, 745685, Note_off_c, 0, 31, 52
2, 745687, Note_on_c, 0, 34, 51
2, 745884, Note_off_c, 0, 34, 52
2, 745886, Note_off_c, 0, 70, 51
2, 745887, Note_on_c, 0, 38, 52
2, 746086, Note_off_c, 0, 74, 55
2, 746086, Note_off_c, 0, 38, 53
2, 746088, Note_on_c, 0, 43, 54
2, 746306, Note_off_c, 0, 43, 53
2, 746309, Note_on_c, 0, 46, 55
2, 746516, Note_off_c, 0, 46, 53
2, 746518, Note_on_c, 0, 50, 57
2, 746728, Note_off_c, 0, 50, 54
2, 746729, Note_on_c, 0, 55, 58
2, 746925, Note_off_c, 0, 55, 54
2, 746927, Note_on_c, 0, 79, 84
2, 746962, Control_c, 0, 64, 20
2, 747116, Note_on_c, 0, 40, 60
2, 747133, Control_c, 0, 64, 96
2, 747282, Note_off_c, 0, 40, 55
2, 747284, Note_on_c, 0, 43, 61
2, 747468, Note_off_c, 0, 43, 55
2, 747472, Note_on_c, 0, 46, 60
2, 747649, Note_off_c, 0, 46, 55
2, 747651, Note_on_c, 0, 52, 59
2, 747854, Note_off_c, 0, 52, 54
2, 747856, Note_on_c, 0, 55, 58
2, 748043, Note_off_c, 0, 55, 54
2, 748045, Note_on_c, 0, 58, 57
2, 748254, Note_off_c, 0, 58, 54
2, 748256, Note_on_c, 0, 55, 56
2, 748453, Note_off_c, 0, 55, 54
2, 748457, Note_on_c, 0, 67, 68
2, 748461, Note_on_c, 0, 61, 55
2, 748464, Control_c, 0, 64, 20
2, 748479, Note_on_c, 0, 70, 55
2, 748480, Note_on_c, 0, 73, 75
2, 748674, Note_off_c, 0, 61, 53
2, 748676, Note_on_c, 0, 58, 54
2, 748688, Note_off_c, 0, 70, 53
2, 748733, Note_off_c, 0, 73, 59
2, 748734, Note_off_c, 0, 67, 57
2, 748887, Note_off_c, 0, 58, 53
2, 748889, Note_on_c, 0, 55, 53
2, 748973, Control_c, 0, 64, 93
2, 749093, Note_off_c, 0, 55, 53
2, 749094, Note_on_c, 0, 52, 52
2, 749293, Note_off_c, 0, 52, 53
2, 749295, Note_on_c, 0, 49, 51
2, 749493, Note_off_c, 0, 49, 52
2, 749496, Note_on_c, 0, 46, 50
2, 749702, Note_off_c, 0, 46, 52
2, 749704, Note_on_c, 0, 43, 49
2, 749910, Note_off_c, 0, 43, 52
2, 749912, Note_on_c, 0, 40, 48
2, 750110, Note_off_c, 0, 79, 61
2, 750112, Note_off_c, 0, 40, 52
2, 750115, Note_on_c, 0, 77, 48
2, 750127, Control_c, 0, 64, 20
2, 750292, Control_c, 0, 64, 96
2, 750311, Note_on_c, 0, 41, 46
2, 750521, Note_off_c, 0, 41, 51
2, 750523, Note_on_c, 0, 46, 44
2, 750711, Note_off_c, 0, 46, 51
2, 750715, Note_on_c, 0, 50, 42
2, 750923, Note_off_c, 0, 50, 50
2, 750924, Note_on_c, 0, 53, 39
2, 751124, Note_off_c, 0, 53, 49
2, 751126, Note_on_c, 0, 50, 37
2, 751327, Note_off_c, 0, 50, 49
2, 751329, Note_on_c, 0, 46, 35
2, 751532, Note_off_c, 0, 46, 48
2, 751535, Note_on_c, 0, 41, 33
2, 751718, Note_off_c, 0, 41, 48
2, 751719, Note_on_c, 0, 74, 40
2, 751722, Control_c, 0, 64, 20
2, 751724, Note_on_c, 0, 65, 36
2, 751744, Note_on_c, 0, 70, 30
2, 751919, Note_on_c, 0, 41, 30
2, 751924, Note_off_c, 0, 70, 47
2, 751957, Note_off_c, 0, 65, 49
2, 751959, Note_off_c, 0, 74, 50
2, 752103, Note_off_c, 0, 41, 47
2, 752107, Note_on_c, 0, 46, 30
2, 752139, Control_c, 0, 64, 95
2, 752304, Note_off_c, 0, 46, 47
2, 752305, Note_on_c, 0, 50, 30
2, 752486, Note_off_c, 0, 50, 47
2, 752488, Note_on_c, 0, 53, 30
2, 752689, Note_off_c, 0, 53, 47
2, 752691, Note_on_c, 0, 50, 31
2, 752928, Note_off_c, 0, 50, 47
2, 752931, Note_on_c, 0, 46, 31
2, 753169, Note_off_c, 0, 46, 47
2, 753172, Note_on_c, 0, 41, 32
2, 753413, Note_off_c, 0, 41, 48
2, 753414, Note_off_c, 0, 77, 52
2, 753417, Note_on_c, 0, 65, 30
2, 753419, Note_on_c, 0, 51, 32
2, 753420, Note_on_c, 0, 63, 38
2, 753421, Note_on_c, 0, 69, 50
2, 753423, Control_c, 0, 64, 20
2, 753424, Note_on_c, 0, 60, 48
2, 753687, Note_off_c, 0, 51, 48
2, 753688, Note_on_c, 0, 48, 33
2, 753708, Note_off_c, 0, 63, 49
2, 753739, Note_off_c, 0, 69, 52
2, 753773, Note_off_c, 0, 60, 52
2, 753776, Note_off_c, 0, 65, 47
2, 753876, Control_c, 0, 64, 80
2, 753965, Note_off_c, 0, 48, 48
2, 753967, Note_on_c, 0, 45, 33
2, 754073, Control_c, 0, 64, 20
2, 754232, Note_off_c, 0, 45, 48
2, 754237, Note_on_c, 0, 41, 34
2, 754529, Note_off_c, 0, 41, 48
2, 754533, Note_on_c, 0, 39, 34
2, 754845, Note_off_c, 0, 39, 48
2, 754848, Note_on_c, 0, 36, 35
2, 755164, Note_off_c, 0, 36, 48
2, 755166, Note_on_c, 0, 33, 35
2, 755516, Note_off_c, 0, 33, 48
2, 755517, Note_on_c, 0, 29, 36
2, 755679, Control_c, 0, 64, 96
2, 755985, Note_off_c, 0, 29, 49
2, 755993, Note_on_c, 0, 70, 42
2, 756009, Note_on_c, 0, 34, 30
2, 756011, Note_on_c, 0, 58, 40
2, 756011, Note_on_c, 0, 62, 36
2, 756012, Note_on_c, 0, 65, 30
2, 756282, Note_off_c, 0, 58, 50
2, 756297, Note_off_c, 0, 62, 49
2, 756305, Note_off_c, 0, 65, 47
2, 756368, Note_off_c, 0, 70, 50
2, 756382, Note_off_c, 0, 34, 47
2, 756588, Control_c, 0, 64, 20
2, 758421, Control_c, 0, 64, 98
2, 758458, Note_on_c, 0, 46, 30
2, 758555, Note_off_c, 0, 46, 47
2, 758557, Note_on_c, 0, 34, 30
2, 758653, Note_off_c, 0, 34, 47
2, 758654, Note_on_c, 0, 46, 30
2, 758718, Note_off_c, 0, 46, 47
2, 758750, Note_on_c, 0, 34, 31
2, 758795, Control_c, 0, 64, 20
2, 758835, Note_off_c, 0, 34, 47
2, 759748, Control_c, 0, 64, 98
2, 759773, Note_on_c, 0, 46, 34
2, 759871, Note_off_c, 0, 46, 48
2, 759873, Note_on_c, 0, 34, 34
2, 759968, Note_off_c, 0, 34, 48
2, 759970, Note_on_c, 0, 46, 34
2, 760036, Note_off_c, 0, 46, 48
2, 760065, Note_on_c, 0, 34, 35
2, 760110, Control_c, 0, 64, 20
2, 760150, Note_off_c, 0, 34, 48
2, 761051, Control_c, 0, 64, 98
2, 761070, Note_on_c, 0, 46, 38
2, 761168, Note_off_c, 0, 46, 49
2, 761170, Note_on_c, 0, 34, 38
2, 761264, Note_off_c, 0, 34, 49
2, 761266, Note_on_c, 0, 46, 38
2, 761346, Note_off_c, 0, 46, 49
2, 761362, Note_on_c, 0, 65, 54
2, 761363, Note_on_c, 0, 34, 39
2, 761368, Note_on_c, 0, 56, 46
2, 761370, Note_on_c, 0, 58, 42
2, 761376, Control_c, 0, 64, 20
2, 761445, Note_off_c, 0, 34, 49
2, 761621, Control_c, 0, 64, 98
2, 762471, Note_off_c, 0, 56, 51
2, 762474, Note_off_c, 0, 58, 50
2, 762796, Note_on_c, 0, 63, 51
2, 762804, Note_on_c, 0, 55, 48
2, 762807, Note_on_c, 0, 58, 41
2, 762808, Control_c, 0, 64, 20
2, 762817, Note_off_c, 0, 65, 53
2, 763013, Control_c, 0, 64, 96
2, 763914, Note_off_c, 0, 58, 50
2, 763955, Note_off_c, 0, 55, 52
2, 764316, Note_on_c, 0, 62, 48
2, 764325, Note_on_c, 0, 54, 36
2, 764327, Note_on_c, 0, 58, 42
2, 764330, Control_c, 0, 64, 20
2, 764348, Note_off_c, 0, 63, 52
2, 764514, Control_c, 0, 64, 98
2, 765295, Note_off_c, 0, 58, 50
2, 765312, Note_off_c, 0, 54, 49
2, 765516, Note_off_c, 0, 62, 52
2, 765919, Note_on_c, 0, 62, 52
2, 765926, Note_on_c, 0, 58, 42
2, 765928, Note_on_c, 0, 54, 48
2, 765937, Control_c, 0, 64, 20
2, 766120, Control_c, 0, 64, 98
2, 767108, Note_off_c, 0, 54, 52
2, 767116, Note_on_c, 0, 46, 36
2, 767202, Note_off_c, 0, 58, 50
2, 767213, Note_off_c, 0, 46, 49
2, 767215, Note_on_c, 0, 34, 36
2, 767310, Note_off_c, 0, 34, 49
2, 767312, Note_on_c, 0, 46, 36
2, 767378, Note_off_c, 0, 46, 49
2, 767406, Note_on_c, 0, 63, 54
2, 767408, Note_on_c, 0, 34, 36
2, 767415, Note_on_c, 0, 55, 46
2, 767416, Note_on_c, 0, 58, 42
2, 767419, Control_c, 0, 64, 20
2, 767482, Note_off_c, 0, 34, 49
2, 767484, Note_off_c, 0, 62, 53
2, 767647, Control_c, 0, 64, 98
2, 767937, Note_off_c, 0, 58, 50
2, 767978, Note_off_c, 0, 55, 51
2, 768091, Note_off_c, 0, 63, 53
2, 768439, Note_on_c, 0, 46, 41
2, 768537, Note_off_c, 0, 46, 50
2, 768540, Note_on_c, 0, 34, 41
2, 768636, Note_off_c, 0, 34, 50
2, 768638, Note_on_c, 0, 46, 42
2, 768704, Note_off_c, 0, 46, 50
2, 768733, Note_on_c, 0, 34, 42
2, 768801, Note_off_c, 0, 34, 50
2, 768813, Control_c, 0, 64, 20
2, 769705, Control_c, 0, 64, 98
2, 769747, Note_on_c, 0, 46, 46
2, 769845, Note_off_c, 0, 46, 51
2, 769847, Note_on_c, 0, 34, 47
2, 769943, Note_off_c, 0, 34, 51
2, 769946, Note_on_c, 0, 46, 47
2, 770029, Note_off_c, 0, 46, 51
2, 770044, Note_on_c, 0, 68, 48
2, 770047, Note_on_c, 0, 34, 48
2, 770051, Note_on_c, 0, 58, 42
2, 770053, Note_on_c, 0, 65, 36
2, 770072, Control_c, 0, 64, 20
2, 770119, Note_off_c, 0, 34, 52
2, 770342, Control_c, 0, 64, 98
2, 771106, Note_off_c, 0, 65, 49
2, 771123, Note_off_c, 0, 58, 50
2, 771485, Note_on_c, 0, 67, 45
2, 771494, Note_on_c, 0, 58, 30
2, 771495, Note_on_c, 0, 63, 36
2, 771503, Control_c, 0, 64, 20
2, 771522, Note_off_c, 0, 68, 52
2, 771688, Control_c, 0, 64, 98
2, 772619, Note_off_c, 0, 63, 49
2, 772804, Note_off_c, 0, 58, 47
2, 773005, Note_on_c, 0, 66, 46
2, 773015, Note_on_c, 0, 58, 39
2, 773016, Note_on_c, 0, 62, 36
2, 773024, Control_c, 0, 64, 20
2, 773033, Note_off_c, 0, 67, 51
2, 773208, Control_c, 0, 64, 98
2, 773916, Note_off_c, 0, 62, 49
2, 774063, Note_off_c, 0, 58, 49
2, 774205, Note_off_c, 0, 66, 51
2, 774607, Note_on_c, 0, 66, 57
2, 774611, Control_c, 0, 64, 20
2, 774616, Note_on_c, 0, 58, 46
2, 774618, Note_on_c, 0, 62, 37
2, 774796, Control_c, 0, 64, 98
2, 775803, Note_on_c, 0, 51, 36
2, 775902, Note_off_c, 0, 51, 49
2, 775903, Note_on_c, 0, 39, 38
2, 775907, Note_off_c, 0, 62, 49
2, 775999, Note_off_c, 0, 39, 49
2, 776002, Note_on_c, 0, 51, 39
2, 776068, Note_off_c, 0, 51, 49
2, 776102, Note_off_c, 0, 66, 54
2, 776103, Note_on_c, 0, 63, 41
2, 776106, Note_on_c, 0, 39, 36
2, 776107, Note_on_c, 0, 67, 56
2, 776109, Control_c, 0, 64, 20
2, 776220, Note_off_c, 0, 39, 49
2, 776270, Control_c, 0, 64, 98
2, 777121, Note_on_c, 0, 51, 41
2, 777218, Note_off_c, 0, 51, 50
2, 777220, Note_on_c, 0, 39, 41
2, 777316, Note_off_c, 0, 39, 50
2, 777318, Note_on_c, 0, 51, 42
2, 777384, Note_off_c, 0, 51, 50
2, 777398, Note_on_c, 0, 39, 42
2, 777404, Control_c, 0, 64, 20
2, 777407, Note_off_c, 0, 58, 51
2, 777460, Note_off_c, 0, 39, 50
2, 777575, Control_c, 0, 64, 98
2, 777708, Note_off_c, 0, 67, 54
2, 778067, Note_off_c, 0, 63, 50
2, 778082, Note_on_c, 0, 67, 48
2, 778427, Note_on_c, 0, 51, 46
2, 778523, Note_off_c, 0, 51, 51
2, 778528, Note_on_c, 0, 39, 47
2, 778561, Note_off_c, 0, 67, 52
2, 778622, Note_off_c, 0, 39, 51
2, 778624, Note_on_c, 0, 51, 47
2, 778705, Note_off_c, 0, 51, 51
2, 778719, Note_on_c, 0, 75, 56
2, 778721, Note_on_c, 0, 67, 46
2, 778722, Note_on_c, 0, 39, 48
2, 778733, Control_c, 0, 64, 20
2, 778841, Note_off_c, 0, 39, 52
2, 778897, Control_c, 0, 64, 98
2, 779884, Note_off_c, 0, 67, 51
2, 780131, Note_off_c, 0, 75, 54
2, 780149, Note_on_c, 0, 72, 67
2, 780156, Note_on_c, 0, 63, 57
2, 780158, Note_on_c, 0, 67, 52
2, 780164, Control_c, 0, 64, 20
2, 780349, Control_c, 0, 64, 98
2, 781326, Note_off_c, 0, 67, 54
2, 781342, Note_off_c, 0, 63, 54
2, 781651, Note_off_c, 0, 72, 57
2, 781669, Note_on_c, 0, 70, 78
2, 781676, Note_on_c, 0, 62, 69
2, 781678, Note_on_c, 0, 67, 58
2, 781684, Control_c, 0, 64, 20
2, 781868, Control_c, 0, 64, 98
2, 782651, Note_off_c, 0, 67, 54
2, 782689, Note_off_c, 0, 62, 57
2, 782870, Note_off_c, 0, 70, 59
2, 783330, Note_on_c, 0, 69, 30
2, 783339, Note_on_c, 0, 60, 14
2, 783341, Note_on_c, 0, 65, 20
2, 783343, Control_c, 0, 64, 20
2, 783525, Control_c, 0, 64, 98
2, 784530, Note_on_c, 0, 53, 33
2, 784627, Note_off_c, 0, 53, 48
2, 784630, Note_on_c, 0, 41, 34
2, 784724, Note_off_c, 0, 41, 48
2, 784726, Note_on_c, 0, 53, 34
2, 784793, Note_off_c, 0, 53, 48
2, 784822, Note_on_c, 0, 41, 35
2, 784836, Control_c, 0, 64, 20
2, 784894, Note_off_c, 0, 41, 48
2, 785008, Control_c, 0, 64, 98
2, 785031, Note_off_c, 0, 65, 45
2, 785102, Note_off_c, 0, 60, 44
2, 785388, Note_off_c, 0, 69, 47
2, 785510, Note_on_c, 0, 69, 37
2, 785517, Note_on_c, 0, 60, 24
2, 785519, Note_on_c, 0, 65, 30
2, 785525, Control_c, 0, 64, 20
2, 785708, Control_c, 0, 64, 96
2, 785854, Note_on_c, 0, 89, 38
2, 785938, Note_off_c, 0, 89, 49
2, 785941, Note_on_c, 0, 77, 38
2, 786014, Note_off_c, 0, 65, 47
2, 786033, Note_off_c, 0, 60, 46
2, 786036, Note_off_c, 0, 77, 49
2, 786038, Note_on_c, 0, 89, 39
2, 786118, Note_off_c, 0, 89, 49
2, 786119, Note_off_c, 0, 69, 49
2, 786146, Note_on_c, 0, 62, 32
2, 786148, Note_on_c, 0, 65, 25
2, 786150, Note_on_c, 0, 70, 30
2, 786151, Note_on_c, 0, 77, 39
2, 786152, Control_c, 0, 64, 20
2, 786244, Note_off_c, 0, 77, 49
2, 786317, Control_c, 0, 64, 98
2, 786659, Note_off_c, 0, 65, 46
2, 786811, Note_off_c, 0, 62, 48
2, 786813, Note_off_c, 0, 70, 47
2, 786831, Note_on_c, 0, 72, 42
2, 786834, Control_c, 0, 64, 20
2, 786837, Note_on_c, 0, 63, 25
2, 786839, Note_on_c, 0, 65, 30
2, 787019, Control_c, 0, 64, 98
2, 787377, Note_off_c, 0, 72, 50
2, 787387, Note_off_c, 0, 63, 46
2, 787389, Note_off_c, 0, 65, 47
2, 787564, Note_on_c, 0, 63, 30
2, 787564, Note_on_c, 0, 65, 36
2, 787566, Control_c, 0, 64, 20
2, 787567, Note_on_c, 0, 72, 44
2, 787748, Control_c, 0, 64, 98
2, 788697, Note_off_c, 0, 63, 47
2, 788698, Note_off_c, 0, 72, 51
2, 788701, Note_on_c, 0, 61, 36
2, 788702, Note_on_c, 0, 53, 30
2, 788703, Note_on_c, 0, 69, 48
2, 788792, Note_off_c, 0, 53, 47
2, 788794, Note_on_c, 0, 41, 48
2, 788901, Note_off_c, 0, 41, 52
2, 788904, Note_on_c, 0, 53, 48
2, 788927, Note_off_c, 0, 61, 49
2, 788930, Note_off_c, 0, 69, 52
2, 788984, Note_off_c, 0, 53, 52
2, 788997, Note_on_c, 0, 62, 40
2, 788999, Note_on_c, 0, 70, 49
2, 789001, Note_on_c, 0, 41, 35
2, 789014, Control_c, 0, 64, 20
2, 789088, Note_off_c, 0, 41, 48
2, 789182, Control_c, 0, 64, 98
2, 789229, Note_off_c, 0, 65, 49
2, 789326, Note_off_c, 0, 62, 50
2, 789328, Note_off_c, 0, 70, 52
2, 789679, Control_c, 0, 64, 20
2, 789682, Note_on_c, 0, 62, 35
2, 789683, Note_on_c, 0, 65, 40
2, 789683, Note_on_c, 0, 70, 51
2, 789863, Control_c, 0, 64, 98
2, 790024, Note_on_c, 0, 89, 52
2, 790120, Note_off_c, 0, 89, 53
2, 790122, Note_on_c, 0, 77, 53
2, 790168, Note_off_c, 0, 65, 50
2, 790218, Note_off_c, 0, 77, 53
2, 790221, Note_on_c, 0, 89, 53
2, 790301, Note_off_c, 0, 89, 53
2, 790302, Note_off_c, 0, 70, 52
2, 790304, Note_off_c, 0, 62, 48
2, 790324, Note_on_c, 0, 72, 50
2, 790328, Note_on_c, 0, 65, 35
2, 790330, Note_on_c, 0, 69, 40
2, 790333, Control_c, 0, 64, 20
2, 790334, Note_on_c, 0, 77, 54
2, 790407, Note_off_c, 0, 77, 53
2, 790499, Control_c, 0, 64, 98
2, 790842, Note_off_c, 0, 65, 48
2, 790989, Note_off_c, 0, 72, 52
2, 790996, Note_off_c, 0, 69, 50
2, 791013, Note_on_c, 0, 74, 56
2, 791021, Note_on_c, 0, 65, 40
2, 791024, Note_on_c, 0, 70, 50
2, 791034, Control_c, 0, 64, 20
2, 791219, Control_c, 0, 64, 98
2, 791433, Note_off_c, 0, 65, 50
2, 791463, Note_off_c, 0, 70, 52
2, 791563, Note_off_c, 0, 74, 54
2, 791730, Note_on_c, 0, 74, 58
2, 791737, Control_c, 0, 64, 20
2, 791740, Note_on_c, 0, 65, 45
2, 791742, Note_on_c, 0, 70, 50
2, 791921, Control_c, 0, 64, 98
2, 792566, Note_off_c, 0, 70, 52
2, 792830, Note_off_c, 0, 74, 54
2, 792831, Note_on_c, 0, 68, 53
2, 792834, Note_on_c, 0, 71, 62
2, 792835, Note_on_c, 0, 53, 38
2, 792939, Note_off_c, 0, 53, 49
2, 792941, Note_on_c, 0, 41, 52
2, 793036, Note_off_c, 0, 41, 53
2, 793037, Note_on_c, 0, 53, 53
2, 793062, Note_off_c, 0, 68, 53
2, 793064, Note_off_c, 0, 71, 55
2, 793131, Note_off_c, 0, 53, 53
2, 793135, Note_on_c, 0, 72, 63
2, 793137, Note_on_c, 0, 41, 40
2, 793142, Note_on_c, 0, 69, 56
2, 793147, Control_c, 0, 64, 20
2, 793150, Note_off_c, 0, 65, 51
2, 793203, Note_off_c, 0, 41, 50
2, 793313, Control_c, 0, 64, 98
2, 793678, Note_off_c, 0, 72, 55
2, 793690, Note_off_c, 0, 69, 54
2, 793849, Control_c, 0, 64, 20
2, 793853, Note_on_c, 0, 72, 65
2, 793871, Note_on_c, 0, 65, 50
2, 793873, Note_on_c, 0, 69, 55
2, 794034, Control_c, 0, 64, 98
2, 794209, Note_on_c, 0, 89, 67
2, 794304, Note_off_c, 0, 89, 57
2, 794305, Note_on_c, 0, 77, 67
2, 794349, Note_off_c, 0, 69, 53
2, 794391, Note_off_c, 0, 65, 52
2, 794400, Note_off_c, 0, 77, 57
2, 794403, Note_on_c, 0, 89, 67
2, 794464, Note_off_c, 0, 72, 56
2, 794471, Note_off_c, 0, 89, 57
2, 794499, Note_on_c, 0, 77, 68
2, 794501, Note_on_c, 0, 74, 60
2, 794507, Note_on_c, 0, 65, 50
2, 794508, Note_on_c, 0, 70, 54
2, 794513, Control_c, 0, 64, 20
2, 794552, Note_off_c, 0, 77, 57
2, 794679, Control_c, 0, 64, 98
2, 794983, Note_off_c, 0, 70, 53
2, 795006, Note_off_c, 0, 65, 52
2, 795162, Note_off_c, 0, 74, 55
2, 795179, Note_on_c, 0, 75, 70
2, 795188, Note_on_c, 0, 65, 54
2, 795190, Note_on_c, 0, 72, 60
2, 795195, Control_c, 0, 64, 20
2, 795380, Control_c, 0, 64, 98
2, 795613, Note_off_c, 0, 65, 53
2, 795626, Note_off_c, 0, 72, 55
2, 795730, Note_off_c, 0, 75, 57
2, 795897, Note_on_c, 0, 75, 72
2, 795907, Control_c, 0, 64, 20
2, 795910, Note_on_c, 0, 65, 40
2, 795911, Note_on_c, 0, 72, 60
2, 796092, Control_c, 0, 64, 98
2, 796723, Note_off_c, 0, 72, 55
2, 797015, Note_off_c, 0, 75, 58
2, 797016, Note_on_c, 0, 73, 76
2, 797018, Note_on_c, 0, 53, 64
2, 797023, Note_on_c, 0, 69, 60
2, 797124, Note_off_c, 0, 53, 56
2, 797126, Note_on_c, 0, 41, 71
2, 797222, Note_off_c, 0, 41, 58
2, 797224, Note_on_c, 0, 53, 71
2, 797273, Note_off_c, 0, 69, 55
2, 797331, Note_off_c, 0, 73, 59
2, 797334, Note_off_c, 0, 53, 58
2, 797335, Note_on_c, 0, 74, 60
2, 797336, Note_on_c, 0, 41, 50
2, 797343, Note_on_c, 0, 70, 50
2, 797394, Control_c, 0, 64, 20
2, 797430, Note_off_c, 0, 41, 52
2, 797570, Control_c, 0, 64, 98
2, 797622, Note_off_c, 0, 65, 50
2, 797904, Note_off_c, 0, 70, 52
2, 797969, Note_off_c, 0, 74, 55
2, 798062, Note_on_c, 0, 74, 80
2, 798070, Note_on_c, 0, 65, 65
2, 798072, Note_on_c, 0, 70, 70
2, 798086, Control_c, 0, 64, 20
2, 798270, Control_c, 0, 64, 98
2, 798407, Note_on_c, 0, 89, 69
2, 798504, Note_off_c, 0, 89, 57
2, 798505, Note_on_c, 0, 77, 69
2, 798569, Note_off_c, 0, 65, 56
2, 798574, Note_off_c, 0, 70, 57
2, 798599, Note_off_c, 0, 77, 57
2, 798602, Note_on_c, 0, 89, 70
2, 798637, Control_c, 0, 64, 20
2, 798683, Note_off_c, 0, 74, 60
2, 798683, Note_off_c, 0, 89, 57
2, 798698, Note_on_c, 0, 76, 74
2, 798700, Note_on_c, 0, 77, 70
2, 798705, Note_on_c, 0, 67, 58
2, 798707, Note_on_c, 0, 70, 62
2, 798709, Note_on_c, 0, 73, 67
2, 798780, Note_off_c, 0, 77, 57
2, 798792, Control_c, 0, 64, 98
2, 799204, Note_off_c, 0, 70, 55
2, 799243, Note_off_c, 0, 76, 59
2, 799267, Note_off_c, 0, 73, 57
2, 799293, Note_off_c, 0, 67, 54
2, 799398, Note_on_c, 0, 76, 76
2, 799406, Control_c, 0, 64, 20
2, 799407, Note_on_c, 0, 67, 60
2, 799409, Note_on_c, 0, 70, 66
2, 799412, Note_on_c, 0, 73, 76
2, 799590, Control_c, 0, 64, 98
2, 799758, Note_on_c, 0, 89, 60
2, 799855, Note_off_c, 0, 89, 55
2, 799857, Note_on_c, 0, 77, 61
2, 799922, Note_off_c, 0, 70, 56
2, 799952, Note_off_c, 0, 77, 55
2, 799954, Note_on_c, 0, 89, 60
2, 799972, Note_off_c, 0, 67, 55
2, 799984, Note_off_c, 0, 73, 59
2, 800020, Control_c, 0, 64, 20
2, 800035, Note_off_c, 0, 89, 55
2, 800065, Note_off_c, 0, 76, 59
2, 800171, Note_on_c, 0, 77, 48
2, 800181, Note_on_c, 0, 69, 36
2, 800182, Note_on_c, 0, 72, 40
2, 800298, Control_c, 0, 64, 98
2, 800722, Note_off_c, 0, 72, 50
2, 800762, Note_off_c, 0, 69, 49
2, 800902, Note_off_c, 0, 77, 52
2, 800918, Note_on_c, 0, 72, 32
2, 800927, Note_on_c, 0, 65, 24
2, 800930, Note_on_c, 0, 69, 20
2, 800931, Control_c, 0, 64, 20
2, 801115, Control_c, 0, 64, 98
2, 801285, Note_on_c, 0, 53, 35
2, 801486, Note_off_c, 0, 53, 48
2, 801488, Note_on_c, 0, 41, 36
2, 801621, Note_off_c, 0, 41, 49
2, 801669, Note_on_c, 0, 53, 38
2, 801750, Note_off_c, 0, 53, 49
2, 801892, Note_off_c, 0, 69, 45
2, 801908, Note_off_c, 0, 65, 46
2, 802055, Note_off_c, 0, 72, 48
2, 802110, Control_c, 0, 64, 20
2, 802432, Control_c, 0, 64, 98
2, 802439, Note_on_c, 0, 65, 58
2, 802441, Note_on_c, 0, 69, 46
2, 802443, Note_on_c, 0, 72, 66
2, 802789, Note_on_c, 0, 89, 60
2, 802955, Note_off_c, 0, 89, 55
2, 802958, Note_on_c, 0, 77, 48
2, 803088, Note_off_c, 0, 77, 52
2, 803142, Note_off_c, 0, 65, 54
2, 803143, Note_off_c, 0, 69, 51
2, 803144, Note_off_c, 0, 72, 56
2, 803147, Note_on_c, 0, 76, 66
2, 803148, Note_on_c, 0, 89, 36
2, 803151, Control_c, 0, 64, 20
2, 803154, Note_on_c, 0, 67, 54
2, 803156, Note_on_c, 0, 70, 48
2, 803220, Note_off_c, 0, 89, 49
2, 803337, Control_c, 0, 64, 98
2, 803721, Note_off_c, 0, 70, 52
2, 803749, Note_off_c, 0, 67, 53
2, 803826, Note_off_c, 0, 76, 56
2, 803842, Note_on_c, 0, 72, 31
2, 803845, Control_c, 0, 64, 20
2, 803851, Note_on_c, 0, 67, 20
2, 803853, Note_on_c, 0, 70, 14
2, 804029, Control_c, 0, 64, 98
2, 804442, Note_off_c, 0, 67, 45
2, 804444, Note_off_c, 0, 70, 44
2, 804560, Note_off_c, 0, 72, 47
2, 804679, Note_on_c, 0, 77, 50
2, 804688, Note_on_c, 0, 69, 40
2, 804690, Note_on_c, 0, 65, 46
2, 804693, Control_c, 0, 64, 20
2, 804876, Control_c, 0, 64, 98
2, 805194, Note_off_c, 0, 69, 50
2, 805208, Note_off_c, 0, 65, 51
2, 805379, Note_off_c, 0, 77, 52
2, 805412, Note_on_c, 0, 72, 58
2, 805421, Note_on_c, 0, 65, 52
2, 805423, Note_on_c, 0, 69, 46
2, 805426, Control_c, 0, 64, 20
2, 805608, Control_c, 0, 64, 98
2, 805762, Note_on_c, 0, 53, 48
2, 805963, Note_off_c, 0, 53, 52
2, 805965, Note_on_c, 0, 41, 50
2, 806096, Note_off_c, 0, 41, 52
2, 806147, Note_on_c, 0, 53, 54
2, 806192, Control_c, 0, 64, 20
2, 806241, Note_off_c, 0, 53, 53
2, 806563, Note_off_c, 0, 69, 51
2, 806677, Note_off_c, 0, 65, 53
2, 806707, Note_off_c, 0, 72, 54
2, 806827, Control_c, 0, 64, 98
2, 806883, Note_on_c, 0, 72, 85
2, 806892, Note_on_c, 0, 65, 73
2, 806894, Note_on_c, 0, 69, 65
2, 807233, Note_on_c, 0, 89, 60
2, 807398, Note_off_c, 0, 89, 55
2, 807402, Note_on_c, 0, 77, 48
2, 807437, Note_off_c, 0, 65, 58
2, 807453, Note_off_c, 0, 69, 56
2, 807478, Control_c, 0, 64, 20
2, 807532, Note_off_c, 0, 77, 52
2, 807584, Note_off_c, 0, 72, 61
2, 807586, Note_on_c, 0, 89, 36
2, 807588, Note_on_c, 0, 76, 83
2, 807595, Note_on_c, 0, 67, 63
2, 807597, Note_on_c, 0, 70, 53
2, 807653, Note_off_c, 0, 89, 49
2, 807724, Control_c, 0, 64, 98
2, 808097, Note_off_c, 0, 70, 53
2, 808165, Note_off_c, 0, 67, 55
2, 808268, Note_off_c, 0, 76, 60
2, 808286, Note_on_c, 0, 72, 30
2, 808296, Note_on_c, 0, 67, 27
2, 808297, Note_on_c, 0, 70, 24
2, 808298, Control_c, 0, 64, 20
2, 808482, Control_c, 0, 64, 98
2, 808824, Note_off_c, 0, 70, 46
2, 808855, Note_off_c, 0, 67, 46
2, 809003, Note_off_c, 0, 72, 47
2, 809181, Note_on_c, 0, 77, 48
2, 809190, Note_on_c, 0, 65, 35
2, 809192, Note_on_c, 0, 69, 40
2, 809204, Control_c, 0, 64, 20
2, 809389, Control_c, 0, 64, 98
2, 809810, Note_off_c, 0, 69, 50
2, 809820, Note_off_c, 0, 65, 48
2, 809896, Note_off_c, 0, 77, 52
2, 809914, Note_on_c, 0, 72, 50
2, 809923, Note_on_c, 0, 65, 40
2, 809925, Note_on_c, 0, 69, 30
2, 809928, Control_c, 0, 64, 20
2, 810110, Control_c, 0, 64, 98
2, 810281, Note_on_c, 0, 53, 48
2, 810480, Note_off_c, 0, 53, 52
2, 810482, Note_on_c, 0, 41, 48
2, 810615, Note_off_c, 0, 41, 52
2, 810666, Note_on_c, 0, 53, 48
2, 810685, Control_c, 0, 64, 20
2, 810762, Note_off_c, 0, 53, 52
2, 811109, Note_off_c, 0, 69, 47
2, 811187, Note_off_c, 0, 65, 50
2, 811401, Note_off_c, 0, 72, 52
2, 811418, Note_on_c, 0, 69, 40
2, 811425, Control_c, 0, 64, 98
2, 811428, Note_on_c, 0, 60, 20
2, 811429, Note_on_c, 0, 65, 30
2, 811800, Note_on_c, 0, 53, 42
2, 811985, Note_off_c, 0, 53, 50
2, 811988, Note_on_c, 0, 41, 41
2, 812119, Note_off_c, 0, 41, 50
2, 812169, Note_on_c, 0, 53, 40
2, 812186, Control_c, 0, 64, 20
2, 812274, Note_off_c, 0, 53, 50
2, 812561, Note_off_c, 0, 65, 47
2, 812613, Note_off_c, 0, 60, 45
2, 812904, Note_off_c, 0, 69, 50
2, 812922, Note_on_c, 0, 65, 36
2, 812931, Note_on_c, 0, 57, 24
2, 812933, Note_on_c, 0, 60, 30
2, 812936, Control_c, 0, 64, 98
2, 813305, Note_on_c, 0, 53, 36
2, 813489, Note_off_c, 0, 53, 49
2, 813491, Note_on_c, 0, 41, 36
2, 813622, Note_off_c, 0, 41, 49
2, 813672, Note_on_c, 0, 53, 36
2, 813721, Control_c, 0, 64, 20
2, 813764, Note_off_c, 0, 53, 48
2, 814151, Note_off_c, 0, 57, 46
2, 814187, Note_off_c, 0, 60, 47
2, 814334, Note_off_c, 0, 65, 49
2, 814412, Note_on_c, 0, 65, 20
2, 814440, Control_c, 0, 64, 85
2, 815253, Note_on_c, 0, 64, 32
2, 815311, Note_off_c, 0, 65, 45
2, 816035, Note_on_c, 0, 63, 40
2, 816037, Note_on_c, 0, 65, 45
2, 816068, Control_c, 0, 64, 98
2, 816091, Note_off_c, 0, 64, 48
2, 816780, Note_on_c, 0, 62, 58
2, 816789, Control_c, 0, 64, 20
2, 816895, Note_off_c, 0, 63, 50
2, 816946, Control_c, 0, 64, 86
2, 817140, Note_on_c, 0, 67, 64
2, 817155, Control_c, 0, 64, 0
2, 817226, Note_off_c, 0, 67, 56
2, 817327, Note_on_c, 0, 69, 67
2, 817411, Note_off_c, 0, 69, 57
2, 817499, Note_on_c, 0, 60, 60
2, 817501, Note_on_c, 0, 63, 67
2, 817504, Note_on_c, 0, 70, 70
2, 817534, Note_off_c, 0, 62, 54
2, 817536, Note_off_c, 0, 65, 51
2, 817581, Note_off_c, 0, 70, 57
2, 817683, Note_on_c, 0, 72, 73
2, 817765, Note_off_c, 0, 72, 58
2, 817849, Note_on_c, 0, 74, 76
2, 817950, Note_off_c, 0, 74, 59
2, 818032, Note_off_c, 0, 60, 55
2, 818034, Note_on_c, 0, 75, 79
2, 818036, Note_off_c, 0, 63, 57
2, 818115, Note_off_c, 0, 75, 60
2, 818195, Control_c, 0, 64, 96
2, 818200, Note_on_c, 0, 46, 36
2, 818201, Note_on_c, 0, 77, 54
2, 818400, Note_off_c, 0, 46, 49
2, 818966, Note_on_c, 0, 58, 36
2, 819713, Note_on_c, 0, 70, 45
2, 819716, Note_off_c, 0, 58, 49
2, 819725, Note_on_c, 0, 62, 30
2, 819727, Note_on_c, 0, 65, 35
2, 819762, Control_c, 0, 64, 20
2, 819953, Control_c, 0, 64, 98
2, 820553, Note_off_c, 0, 62, 47
2, 820553, Note_off_c, 0, 65, 48
2, 820562, Note_on_c, 0, 58, 44
2, 821152, Note_off_c, 0, 77, 53
2, 821156, Note_on_c, 0, 74, 66
2, 821208, Note_off_c, 0, 70, 51
2, 821286, Note_off_c, 0, 74, 56
2, 821315, Note_off_c, 0, 58, 51
2, 821340, Note_on_c, 0, 82, 66
2, 821350, Note_on_c, 0, 63, 30
2, 821352, Note_on_c, 0, 67, 36
2, 821354, Note_on_c, 0, 70, 42
2, 821365, Control_c, 0, 64, 20
2, 821540, Control_c, 0, 64, 98
2, 822119, Note_off_c, 0, 67, 49
2, 822121, Note_on_c, 0, 58, 36
2, 822123, Note_off_c, 0, 63, 47
2, 822735, Note_off_c, 0, 82, 56
2, 822737, Note_off_c, 0, 58, 49
2, 822740, Note_on_c, 0, 79, 54
2, 822849, Control_c, 0, 64, 20
2, 822868, Note_off_c, 0, 79, 53
2, 822921, Note_on_c, 0, 62, 36
2, 822924, Note_on_c, 0, 65, 40
2, 822926, Note_on_c, 0, 77, 54
2, 822931, Note_off_c, 0, 70, 50
2, 823024, Control_c, 0, 64, 98
2, 823674, Note_on_c, 0, 58, 39
2, 823737, Note_off_c, 0, 65, 50
2, 823738, Note_off_c, 0, 62, 49
2, 824445, Note_on_c, 0, 65, 35
2, 824447, Note_on_c, 0, 62, 42
2, 824449, Note_on_c, 0, 70, 54
2, 824452, Control_c, 0, 64, 20
2, 824516, Note_off_c, 0, 58, 49
2, 824642, Control_c, 0, 64, 98
2, 825264, Note_on_c, 0, 58, 45
2, 825331, Note_off_c, 0, 65, 48
2, 825333, Note_off_c, 0, 62, 50
2, 825857, Note_off_c, 0, 58, 51
2, 825858, Note_off_c, 0, 77, 53
2, 825859, Note_on_c, 0, 74, 59
2, 825861, Note_off_c, 0, 70, 53
2, 825944, Control_c, 0, 64, 96
2, 826007, Note_off_c, 0, 74, 54
2, 826059, Note_on_c, 0, 75, 60
2, 826069, Note_on_c, 0, 70, 50
2, 826072, Note_on_c, 0, 55, 48
2, 826076, Control_c, 0, 64, 20
2, 826250, Control_c, 0, 64, 98
2, 826838, Note_on_c, 0, 51, 36
2, 826840, Note_on_c, 0, 67, 48
2, 826873, Note_off_c, 0, 70, 52
2, 826875, Note_off_c, 0, 55, 52
2, 827462, Control_c, 0, 64, 20
2, 827476, Note_off_c, 0, 67, 52
2, 827478, Note_off_c, 0, 75, 55
2, 827478, Note_off_c, 0, 51, 49
2, 827480, Note_on_c, 0, 72, 48
2, 827605, Note_off_c, 0, 72, 52
2, 827635, Control_c, 0, 64, 98
2, 827657, Note_on_c, 0, 41, 34
2, 827659, Note_on_c, 0, 70, 48
2, 827841, Note_off_c, 0, 41, 48
2, 828426, Note_on_c, 0, 53, 39
2, 828428, Note_on_c, 0, 62, 52
2, 829125, Note_off_c, 0, 62, 53
2, 829164, Note_off_c, 0, 53, 49
2, 829216, Note_on_c, 0, 62, 36
2, 829218, Note_on_c, 0, 58, 42
2, 829219, Note_on_c, 0, 65, 56
2, 830086, Note_on_c, 0, 53, 45
2, 830190, Note_off_c, 0, 58, 50
2, 830191, Note_off_c, 0, 62, 49
2, 830487, Note_off_c, 0, 65, 54
2, 830906, Note_off_c, 0, 70, 52
2, 830913, Note_on_c, 0, 74, 60
2, 830925, Note_on_c, 0, 57, 40
2, 830926, Note_on_c, 0, 60, 55
2, 830927, Control_c, 0, 64, 20
2, 830928, Note_on_c, 0, 65, 48
2, 831028, Note_off_c, 0, 53, 51
2, 831137, Control_c, 0, 64, 98
2, 831388, Note_on_c, 0, 72, 60
2, 831462, Note_off_c, 0, 74, 55
2, 831828, Note_on_c, 0, 70, 56
2, 831830, Note_on_c, 0, 53, 36
2, 831856, Note_off_c, 0, 60, 53
2, 831893, Note_off_c, 0, 72, 55
2, 831925, Note_off_c, 0, 57, 50
2, 832262, Note_on_c, 0, 72, 52
2, 832292, Note_off_c, 0, 65, 52
2, 832333, Note_off_c, 0, 70, 54
2, 832473, Note_off_c, 0, 53, 49
2, 832574, Note_off_c, 0, 72, 53
2, 832676, Control_c, 0, 64, 20
2, 832678, Note_on_c, 0, 46, 30
2, 832680, Note_on_c, 0, 72, 48
2, 832687, Note_on_c, 0, 57, 36
2, 832851, Control_c, 0, 64, 98
2, 833521, Note_on_c, 0, 53, 38
2, 833603, Note_off_c, 0, 57, 49
2, 834229, Note_on_c, 0, 73, 48
2, 834231, Note_off_c, 0, 72, 52
2, 834433, Note_off_c, 0, 73, 52
2, 834435, Note_on_c, 0, 74, 42
2, 834444, Control_c, 0, 64, 20
2, 834446, Note_on_c, 0, 58, 30
2, 834448, Note_on_c, 0, 65, 36
2, 834519, Note_off_c, 0, 53, 49
2, 834628, Control_c, 0, 64, 98
2, 835035, Note_off_c, 0, 58, 47
2, 835235, Note_off_c, 0, 74, 50
2, 835238, Note_off_c, 0, 46, 47
2, 835240, Note_on_c, 0, 50, 43
2, 835247, Note_off_c, 0, 65, 49
2, 835958, Note_on_c, 0, 51, 46
2, 836009, Note_off_c, 0, 50, 50
2, 836018, Control_c, 0, 64, 20
2, 836139, Note_on_c, 0, 65, 45
2, 836239, Note_off_c, 0, 65, 51
2, 836322, Note_on_c, 0, 67, 48
2, 836406, Note_off_c, 0, 67, 52
2, 836506, Note_on_c, 0, 69, 51
2, 836590, Note_off_c, 0, 69, 52
2, 836674, Note_on_c, 0, 48, 48
2, 836676, Note_on_c, 0, 70, 54
2, 836728, Note_off_c, 0, 51, 51
2, 836772, Note_off_c, 0, 70, 53
2, 836857, Note_on_c, 0, 72, 57
2, 836941, Note_off_c, 0, 72, 54
2, 837043, Note_on_c, 0, 74, 60
2, 837125, Note_off_c, 0, 74, 55
2, 837208, Note_off_c, 0, 48, 52
2, 837210, Note_on_c, 0, 75, 60
2, 837293, Note_off_c, 0, 75, 55
2, 837393, Note_on_c, 0, 46, 36
2, 837395, Note_on_c, 0, 77, 48
2, 837413, Control_c, 0, 64, 98
2, 837532, Note_off_c, 0, 46, 49
2, 838143, Note_on_c, 0, 58, 36
2, 838533, Note_on_c, 0, 69, 50
2, 838927, Note_off_c, 0, 69, 52
2, 838931, Note_on_c, 0, 65, 36
2, 838933, Note_on_c, 0, 70, 52
2, 838942, Note_on_c, 0, 62, 40
2, 839032, Note_off_c, 0, 58, 49
2, 839572, Note_off_c, 0, 62, 50
2, 839780, Note_on_c, 0, 62, 44
2, 839858, Note_off_c, 0, 65, 49
2, 840375, Note_off_c, 0, 77, 52
2, 840377, Note_on_c, 0, 74, 60
2, 840526, Note_off_c, 0, 74, 55
2, 840561, Note_on_c, 0, 63, 48
2, 840563, Note_on_c, 0, 67, 52
2, 840565, Note_on_c, 0, 82, 60
2, 840588, Control_c, 0, 64, 20
2, 840651, Note_off_c, 0, 62, 51
2, 840763, Control_c, 0, 64, 98
2, 841331, Note_off_c, 0, 67, 53
2, 841334, Note_on_c, 0, 58, 48
2, 841431, Note_off_c, 0, 63, 52
2, 841952, Note_off_c, 0, 58, 52
2, 841954, Note_off_c, 0, 82, 55
2, 841956, Note_on_c, 0, 79, 60
2, 842090, Note_off_c, 0, 79, 55
2, 842099, Control_c, 0, 64, 20
2, 842141, Note_off_c, 0, 70, 53
2, 842144, Note_on_c, 0, 77, 48
2, 842145, Note_on_c, 0, 65, 40
2, 842147, Note_on_c, 0, 62, 46
2, 842275, Control_c, 0, 64, 98
2, 842912, Note_on_c, 0, 58, 44
2, 842944, Note_off_c, 0, 62, 51
2, 842947, Note_off_c, 0, 65, 50
2, 843276, Note_on_c, 0, 69, 45
2, 843650, Note_on_c, 0, 70, 48
2, 843663, Note_off_c, 0, 69, 51
2, 843668, Note_off_c, 0, 58, 51
2, 843671, Note_on_c, 0, 65, 36
2, 843672, Note_on_c, 0, 62, 42
2, 843675, Control_c, 0, 64, 20
2, 843865, Control_c, 0, 64, 98
2, 844500, Note_off_c, 0, 62, 50
2, 844503, Note_on_c, 0, 58, 40
2, 844559, Note_off_c, 0, 65, 49
2, 844926, Note_off_c, 0, 70, 52
2, 845095, Note_off_c, 0, 58, 50
2, 845098, Note_off_c, 0, 77, 52
2, 845099, Note_on_c, 0, 74, 60
2, 845193, Control_c, 0, 64, 20
2, 845236, Note_off_c, 0, 74, 55
2, 845290, Note_on_c, 0, 55, 38
2, 845291, Note_on_c, 0, 70, 42
2, 845294, Note_on_c, 0, 77, 60
2, 845383, Control_c, 0, 64, 98
2, 845710, Note_off_c, 0, 77, 55
2, 845712, Note_on_c, 0, 75, 56
2, 846148, Note_off_c, 0, 70, 50
2, 846150, Note_on_c, 0, 51, 36
2, 846152, Note_on_c, 0, 67, 52
2, 846160, Control_c, 0, 64, 20
2, 846268, Note_off_c, 0, 55, 49
2, 846361, Control_c, 0, 64, 98
2, 846585, Note_off_c, 0, 75, 54
2, 846588, Note_on_c, 0, 72, 48
2, 846814, Note_off_c, 0, 51, 49
2, 846817, Note_off_c, 0, 67, 53
2, 846932, Note_off_c, 0, 72, 52
2, 847041, Note_on_c, 0, 53, 20
2, 847042, Note_on_c, 0, 70, 30
2, 847049, Note_on_c, 0, 62, 25
2, 847055, Control_c, 0, 64, 20
2, 847229, Control_c, 0, 64, 98
2, 847589, Note_off_c, 0, 62, 46
2, 847876, Note_on_c, 0, 58, 36
2, 847886, Note_on_c, 0, 62, 37
2, 848536, Note_off_c, 0, 62, 49
2, 848744, Note_on_c, 0, 62, 46
2, 848745, Note_on_c, 0, 65, 50
2, 848759, Control_c, 0, 64, 20
2, 848829, Note_off_c, 0, 58, 49
2, 848935, Control_c, 0, 64, 98
2, 849496, Note_off_c, 0, 62, 51
2, 849646, Note_off_c, 0, 65, 52
2, 849663, Note_on_c, 0, 62, 63
2, 849672, Note_on_c, 0, 58, 59
2, 850619, Note_off_c, 0, 62, 55
2, 850621, Note_off_c, 0, 53, 45
2, 850622, Note_off_c, 0, 70, 47
2, 850625, Note_on_c, 0, 41, 54
2, 850627, Note_on_c, 0, 65, 65
2, 850632, Note_off_c, 0, 58, 54
2, 850639, Control_c, 0, 64, 20
2, 850640, Note_on_c, 0, 60, 65
2, 850648, Note_on_c, 0, 57, 56
2, 850655, Note_on_c, 0, 29, 45
2, 850820, Control_c, 0, 64, 98
2, 851461, Note_off_c, 0, 57, 54
2, 851694, Note_on_c, 0, 53, 60
2, 851696, Note_on_c, 0, 57, 68
2, 851737, Note_off_c, 0, 60, 56
2, 852233, Note_off_c, 0, 65, 56
2, 852342, Note_off_c, 0, 57, 57
2, 852355, Note_off_c, 0, 53, 55
2, 852406, Note_off_c, 0, 41, 53
2, 852456, Note_off_c, 0, 29, 51
2, 852661, Control_c, 0, 64, 20
2, 852840, Note_on_c, 0, 62, 30
2, 852841, Note_on_c, 0, 34, 36
2, 852847, Note_on_c, 0, 53, 18
2, 852850, Note_on_c, 0, 58, 25
2, 852979, Note_off_c, 0, 34, 49
2, 853062, Control_c, 0, 64, 98
2, 853273, Note_off_c, 0, 53, 44
2, 853403, Note_off_c, 0, 58, 46
2, 853514, Note_off_c, 0, 62, 47
2, 854336, Note_on_c, 0, 46, 24
2, 854431, Note_off_c, 0, 46, 46
2, 854434, Note_on_c, 0, 34, 24
2, 854529, Note_off_c, 0, 34, 46
2, 854532, Note_on_c, 0, 46, 24
2, 854598, Note_off_c, 0, 46, 46
2, 854625, Note_on_c, 0, 34, 24
2, 854656, Control_c, 0, 64, 20
2, 854691, Note_off_c, 0, 34, 46
2, 855634, Control_c, 0, 64, 98
2, 855658, Note_on_c, 0, 46, 26
2, 855758, Note_off_c, 0, 46, 46
2, 855760, Note_on_c, 0, 34, 27
2, 855852, Note_off_c, 0, 34, 46
2, 855854, Note_on_c, 0, 46, 27
2, 855921, Note_off_c, 0, 46, 46
2, 855949, Note_on_c, 0, 34, 27
2, 855963, Control_c, 0, 64, 20
2, 856008, Note_off_c, 0, 34, 46
2, 856636, Note_on_c, 0, 58, 36
2, 856645, Control_c, 0, 64, 98
2, 857173, Note_off_c, 0, 58, 49
2, 857337, Note_on_c, 0, 58, 36
2, 857375, Control_c, 0, 64, 20
2, 857549, Control_c, 0, 64, 98
2, 858385, Note_on_c, 0, 46, 30
2, 858483, Note_off_c, 0, 46, 47
2, 858486, Note_on_c, 0, 34, 30
2, 858519, Note_off_c, 0, 58, 49
2, 858580, Note_off_c, 0, 34, 47
2, 858581, Note_on_c, 0, 46, 30
2, 858647, Note_off_c, 0, 46, 47
2, 858675, Control_c, 0, 64, 20
2, 858678, Note_on_c, 0, 59, 41
2, 858680, Note_on_c, 0, 34, 15
2, 858684, Note_on_c, 0, 50, 40
2, 858686, Note_on_c, 0, 53, 36
2, 858688, Note_on_c, 0, 56, 46
2, 858766, Note_off_c, 0, 34, 44
2, 859034, Control_c, 0, 64, 98
2, 859703, Note_on_c, 0, 46, 45
2, 859707, Note_off_c, 0, 50, 50
2, 859767, Note_off_c, 0, 56, 51
2, 859800, Note_off_c, 0, 46, 51
2, 859803, Note_on_c, 0, 34, 45
2, 859805, Note_off_c, 0, 53, 49
2, 859898, Note_off_c, 0, 34, 51
2, 859898, Note_on_c, 0, 46, 46
2, 859964, Note_off_c, 0, 46, 51
2, 859995, Note_on_c, 0, 34, 46
2, 859999, Control_c, 0, 64, 20
2, 860067, Note_off_c, 0, 34, 51
2, 860198, Control_c, 0, 64, 98
2, 860540, Note_off_c, 0, 59, 50
2, 860678, Note_on_c, 0, 59, 49
2, 861253, Note_off_c, 0, 59, 52
2, 861379, Note_on_c, 0, 59, 52
2, 861385, Control_c, 0, 64, 20
2, 861561, Control_c, 0, 64, 98
2, 862426, Note_on_c, 0, 46, 52
2, 862523, Note_off_c, 0, 46, 53
2, 862526, Note_on_c, 0, 34, 52
2, 862620, Note_off_c, 0, 34, 53
2, 862621, Note_on_c, 0, 46, 52
2, 862687, Note_off_c, 0, 46, 53
2, 862703, Note_on_c, 0, 62, 57
2, 862717, Note_on_c, 0, 34, 39
2, 862719, Note_on_c, 0, 53, 50
2, 862723, Control_c, 0, 64, 20
2, 862731, Note_on_c, 0, 56, 55
2, 862789, Note_off_c, 0, 34, 49
2, 862960, Control_c, 0, 64, 98
2, 863747, Note_on_c, 0, 46, 55
2, 863845, Note_off_c, 0, 46, 53
2, 863847, Note_on_c, 0, 34, 55
2, 863939, Note_off_c, 0, 34, 53
2, 863941, Note_on_c, 0, 46, 55
2, 864007, Note_off_c, 0, 46, 53
2, 864036, Note_off_c, 0, 59, 53
2, 864038, Note_off_c, 0, 53, 52
2, 864041, Note_on_c, 0, 34, 56
2, 864050, Note_off_c, 0, 56, 53
2, 864053, Control_c, 0, 64, 20
2, 864120, Note_off_c, 0, 34, 54
2, 864319, Control_c, 0, 64, 98
2, 864541, Note_off_c, 0, 62, 54
2, 864720, Note_on_c, 0, 62, 65
2, 865283, Note_off_c, 0, 62, 56
2, 865407, Note_on_c, 0, 62, 68
2, 865412, Control_c, 0, 64, 20
2, 865587, Control_c, 0, 64, 98
2, 866454, Note_on_c, 0, 46, 61
2, 866549, Note_off_c, 0, 46, 55
2, 866551, Note_on_c, 0, 34, 62
2, 866646, Note_off_c, 0, 34, 55
2, 866649, Note_on_c, 0, 46, 62
2, 866729, Note_off_c, 0, 46, 55
2, 866736, Note_on_c, 0, 65, 73
2, 866745, Note_on_c, 0, 34, 57
2, 866748, Note_on_c, 0, 59, 69
2, 866749, Note_on_c, 0, 56, 65
2, 866750, Control_c, 0, 64, 20
2, 866815, Note_off_c, 0, 34, 54
2, 867026, Control_c, 0, 64, 98
2, 867361, Note_off_c, 0, 62, 57
2, 867428, Note_off_c, 0, 59, 57
2, 867429, Note_off_c, 0, 56, 56
2, 867775, Note_on_c, 0, 46, 67
2, 867871, Note_off_c, 0, 46, 57
2, 867874, Note_on_c, 0, 34, 68
2, 867918, Note_off_c, 0, 65, 58
2, 867969, Note_off_c, 0, 34, 57
2, 867971, Note_on_c, 0, 46, 68
2, 868053, Note_off_c, 0, 46, 57
2, 868069, Note_on_c, 0, 34, 60
2, 868071, Note_on_c, 0, 68, 78
2, 868076, Note_on_c, 0, 59, 70
2, 868079, Note_on_c, 0, 65, 58
2, 868082, Control_c, 0, 64, 20
2, 868096, Note_on_c, 0, 62, 64
2, 868137, Note_off_c, 0, 34, 55
2, 868368, Control_c, 0, 64, 98
2, 868783, Note_off_c, 0, 62, 56
2, 868832, Note_off_c, 0, 65, 54
2, 868857, Note_off_c, 0, 59, 57
2, 869099, Note_off_c, 0, 68, 59
2, 869102, Note_on_c, 0, 46, 71
2, 869194, Note_off_c, 0, 46, 58
2, 869195, Note_on_c, 0, 34, 72
2, 869290, Note_off_c, 0, 34, 58
2, 869294, Note_on_c, 0, 46, 71
2, 869361, Note_off_c, 0, 46, 58
2, 869389, Note_on_c, 0, 34, 72
2, 869391, Note_on_c, 0, 71, 84
2, 869394, Control_c, 0, 64, 20
2, 869469, Note_off_c, 0, 34, 58
2, 869739, Control_c, 0, 64, 98
2, 870419, Note_on_c, 0, 56, 70
2, 870517, Note_off_c, 0, 56, 57
2, 870518, Note_on_c, 0, 46, 70
2, 870613, Note_off_c, 0, 46, 57
2, 870615, Note_on_c, 0, 56, 69
2, 870680, Note_off_c, 0, 56, 57
2, 870712, Note_on_c, 0, 46, 68
2, 870720, Note_on_c, 0, 62, 75
2, 870722, Note_on_c, 0, 68, 80
2, 870723, Control_c, 0, 64, 20
2, 870737, Note_on_c, 0, 65, 66
2, 870792, Note_off_c, 0, 46, 57
2, 871031, Control_c, 0, 64, 98
2, 871729, Note_off_c, 0, 65, 56
2, 871741, Note_on_c, 0, 56, 62
2, 871834, Note_off_c, 0, 62, 59
2, 871838, Note_off_c, 0, 56, 55
2, 871840, Note_on_c, 0, 46, 62
2, 871848, Note_off_c, 0, 68, 60
2, 871934, Note_off_c, 0, 46, 55
2, 871937, Note_on_c, 0, 56, 61
2, 872004, Note_off_c, 0, 56, 55
2, 872017, Note_off_c, 0, 71, 61
2, 872032, Note_on_c, 0, 70, 64
2, 872034, Note_on_c, 0, 46, 60
2, 872040, Note_on_c, 0, 62, 58
2, 872042, Note_on_c, 0, 65, 52
2, 872044, Control_c, 0, 64, 20
2, 872137, Note_off_c, 0, 46, 55
2, 872201, Control_c, 0, 64, 98
2, 872744, Note_off_c, 0, 70, 56
2, 872745, Note_on_c, 0, 68, 56
2, 873090, Note_off_c, 0, 62, 54
2, 873262, Note_off_c, 0, 65, 53
2, 873295, Note_off_c, 0, 68, 54
2, 873499, Note_on_c, 0, 66, 48
2, 873507, Control_c, 0, 64, 20
2, 873681, Control_c, 0, 64, 98
2, 874625, Note_on_c, 0, 46, 48
2, 874723, Note_off_c, 0, 46, 52
2, 874725, Note_on_c, 0, 34, 48
2, 874819, Note_off_c, 0, 34, 52
2, 874821, Note_on_c, 0, 46, 48
2, 874889, Note_off_c, 0, 46, 52
2, 874914, Note_off_c, 0, 66, 52
2, 874919, Note_on_c, 0, 67, 49
2, 874921, Note_on_c, 0, 34, 48
2, 874925, Note_on_c, 0, 58, 37
2, 874930, Control_c, 0, 64, 20
2, 874947, Note_on_c, 0, 63, 40
2, 874996, Note_off_c, 0, 34, 52
2, 875089, Control_c, 0, 64, 98
2, 875947, Note_on_c, 0, 46, 51
2, 876043, Note_off_c, 0, 46, 52
2, 876044, Note_on_c, 0, 34, 52
2, 876140, Note_off_c, 0, 34, 53
2, 876142, Note_on_c, 0, 46, 51
2, 876210, Note_off_c, 0, 46, 52
2, 876236, Note_on_c, 0, 34, 52
2, 876243, Control_c, 0, 64, 20
2, 876317, Note_off_c, 0, 34, 53
2, 876400, Control_c, 0, 64, 98
2, 876644, Note_off_c, 0, 58, 49
2, 876867, Note_off_c, 0, 63, 50
2, 876956, Note_on_c, 0, 70, 60
2, 876958, Note_off_c, 0, 67, 52
2, 877756, Note_off_c, 0, 70, 55
2, 877761, Note_on_c, 0, 75, 70
2, 877764, Control_c, 0, 64, 20
2, 877940, Control_c, 0, 64, 98
2, 878955, Note_on_c, 0, 58, 59
2, 879052, Note_off_c, 0, 58, 54
2, 879055, Note_on_c, 0, 46, 59
2, 879149, Note_off_c, 0, 46, 54
2, 879150, Note_on_c, 0, 58, 59
2, 879216, Note_off_c, 0, 58, 54
2, 879246, Note_on_c, 0, 63, 60
2, 879252, Note_on_c, 0, 46, 60
2, 879252, Control_c, 0, 64, 20
2, 879253, Note_on_c, 0, 69, 72
2, 879267, Note_on_c, 0, 66, 65
2, 879325, Note_off_c, 0, 46, 55
2, 879408, Control_c, 0, 64, 98
2, 880276, Note_on_c, 0, 58, 59
2, 880374, Note_off_c, 0, 58, 54
2, 880377, Note_on_c, 0, 46, 58
2, 880472, Note_off_c, 0, 46, 54
2, 880473, Note_on_c, 0, 58, 58
2, 880539, Note_off_c, 0, 58, 54
2, 880567, Note_off_c, 0, 75, 57
2, 880572, Note_on_c, 0, 46, 57
2, 880573, Note_on_c, 0, 72, 75
2, 880574, Control_c, 0, 64, 20
2, 880654, Note_off_c, 0, 46, 54
2, 880731, Control_c, 0, 64, 98
2, 880853, Note_off_c, 0, 69, 58
2, 880997, Note_off_c, 0, 63, 55
2, 881063, Note_off_c, 0, 66, 56
2, 881252, Note_off_c, 0, 72, 59
2, 881269, Note_on_c, 0, 69, 65
2, 882054, Note_off_c, 0, 69, 56
2, 882058, Note_on_c, 0, 72, 54
2, 882065, Control_c, 0, 64, 20
2, 882239, Control_c, 0, 64, 98
2, 883221, Note_on_c, 0, 46, 48
2, 883319, Note_off_c, 0, 46, 52
2, 883320, Note_on_c, 0, 34, 48
2, 883412, Note_off_c, 0, 34, 52
2, 883415, Note_on_c, 0, 46, 48
2, 883482, Note_off_c, 0, 46, 52
2, 883501, Note_on_c, 0, 70, 49
2, 883509, Note_off_c, 0, 72, 53
2, 883513, Note_on_c, 0, 34, 48
2, 883518, Note_on_c, 0, 62, 36
2, 883520, Note_on_c, 0, 65, 40
2, 883529, Control_c, 0, 64, 20
2, 883586, Note_off_c, 0, 34, 52
2, 883690, Control_c, 0, 64, 98
2, 884541, Note_on_c, 0, 46, 51
2, 884639, Note_off_c, 0, 46, 52
2, 884641, Note_on_c, 0, 34, 52
2, 884655, Note_off_c, 0, 62, 49
2, 884685, Note_off_c, 0, 65, 50
2, 884735, Note_off_c, 0, 34, 53
2, 884736, Note_on_c, 0, 46, 51
2, 884804, Note_off_c, 0, 46, 52
2, 884833, Note_on_c, 0, 68, 58
2, 884835, Note_on_c, 0, 34, 52
2, 884838, Note_on_c, 0, 65, 42
2, 884841, Control_c, 0, 64, 20
2, 884910, Note_off_c, 0, 34, 53
2, 885003, Control_c, 0, 64, 98
2, 885544, Note_off_c, 0, 70, 52
2, 885552, Note_on_c, 0, 74, 69
2, 885981, Note_off_c, 0, 65, 50
2, 886302, Note_off_c, 0, 74, 57
2, 886304, Note_on_c, 0, 77, 73
2, 886306, Note_off_c, 0, 68, 54
2, 887104, Note_off_c, 0, 77, 58
2, 887106, Note_on_c, 0, 75, 86
2, 887109, Control_c, 0, 64, 20
2, 887282, Control_c, 0, 64, 98
2, 887501, Note_on_c, 0, 58, 59
2, 887597, Note_off_c, 0, 58, 54
2, 887600, Note_on_c, 0, 46, 60
2, 887695, Note_off_c, 0, 46, 55
2, 887696, Note_on_c, 0, 58, 59
2, 887777, Note_off_c, 0, 58, 54
2, 887792, Note_on_c, 0, 67, 55
2, 887793, Note_on_c, 0, 70, 71
2, 887795, Note_on_c, 0, 46, 60
2, 887803, Control_c, 0, 64, 20
2, 887882, Note_off_c, 0, 46, 55
2, 887959, Control_c, 0, 64, 98
2, 888364, Note_off_c, 0, 70, 58
2, 888385, Note_off_c, 0, 67, 53
2, 888478, Note_on_c, 0, 66, 64
2, 888479, Note_on_c, 0, 69, 88
2, 888818, Note_on_c, 0, 58, 57
2, 888916, Note_off_c, 0, 58, 54
2, 888918, Note_on_c, 0, 46, 56
2, 889012, Note_off_c, 0, 46, 54
2, 889015, Note_on_c, 0, 58, 55
2, 889082, Note_off_c, 0, 58, 53
2, 889108, Note_off_c, 0, 75, 61
2, 889110, Note_on_c, 0, 46, 54
2, 889112, Note_on_c, 0, 72, 56
2, 889118, Note_on_c, 0, 63, 50
2, 889127, Control_c, 0, 64, 20
2, 889193, Note_off_c, 0, 46, 53
2, 889288, Control_c, 0, 64, 98
2, 889543, Note_off_c, 0, 69, 62
2, 889550, Note_off_c, 0, 66, 56
2, 889624, Note_off_c, 0, 63, 52
2, 889791, Note_off_c, 0, 72, 54
2, 889811, Note_on_c, 0, 69, 50
2, 889819, Note_on_c, 0, 60, 40
2, 889821, Note_on_c, 0, 66, 36
2, 889823, Note_on_c, 0, 63, 48
2, 889835, Control_c, 0, 64, 20
2, 890010, Control_c, 0, 64, 98
2, 890175, Note_on_c, 0, 58, 48
2, 890278, Note_off_c, 0, 58, 52
2, 890280, Note_on_c, 0, 46, 48
2, 890343, Note_off_c, 0, 63, 52
2, 890353, Note_off_c, 0, 66, 49
2, 890395, Note_off_c, 0, 46, 52
2, 890397, Note_on_c, 0, 58, 48
2, 890423, Note_off_c, 0, 60, 50
2, 890504, Note_off_c, 0, 58, 52
2, 890506, Note_off_c, 0, 69, 52
2, 890510, Note_on_c, 0, 46, 30
2, 890511, Note_on_c, 0, 62, 22
2, 890512, Note_on_c, 0, 65, 30
2, 890513, Note_on_c, 0, 50, 36
2, 890514, Note_on_c, 0, 70, 42
2, 890521, Control_c, 0, 64, 20
2, 890697, Control_c, 0, 64, 98
2, 891237, Note_off_c, 0, 62, 45
2, 891239, Note_off_c, 0, 65, 47
2, 891242, Note_off_c, 0, 70, 50
2, 891786, Note_off_c, 0, 50, 49
2, 891789, Note_on_c, 0, 48, 35
2, 891791, Note_on_c, 0, 51, 39
2, 891927, Note_off_c, 0, 48, 48
2, 891929, Note_off_c, 0, 51, 49
2, 891964, Control_c, 0, 64, 20
2, 891974, Note_on_c, 0, 53, 40
2, 891983, Note_on_c, 0, 50, 36
2, 892139, Control_c, 0, 64, 98
2, 893058, Note_off_c, 0, 50, 49
2, 893101, Note_off_c, 0, 53, 50
2, 893451, Note_on_c, 0, 48, 40
2, 893462, Note_on_c, 0, 51, 48
2, 893552, Control_c, 0, 64, 20
2, 893639, Note_on_c, 0, 65, 45
2, 893741, Note_off_c, 0, 65, 51
2, 893826, Note_on_c, 0, 64, 48
2, 893926, Note_off_c, 0, 64, 52
2, 894011, Note_on_c, 0, 65, 51
2, 894092, Note_off_c, 0, 65, 52
2, 894193, Note_on_c, 0, 67, 54
2, 894276, Note_off_c, 0, 67, 53
2, 894361, Note_on_c, 0, 69, 57
2, 894375, Note_off_c, 0, 46, 47
2, 894443, Note_off_c, 0, 69, 54
2, 894499, Note_off_c, 0, 48, 50
2, 894545, Note_on_c, 0, 70, 60
2, 894622, Note_off_c, 0, 51, 52
2, 894628, Note_off_c, 0, 70, 55
2, 894713, Note_on_c, 0, 72, 60
2, 894794, Note_off_c, 0, 72, 55
2, 894888, Control_c, 0, 64, 98
2, 894897, Note_on_c, 0, 74, 48
2, 894909, Note_on_c, 0, 65, 25
2, 894911, Note_on_c, 0, 70, 30
2, 894911, Note_on_c, 0, 46, 36
2, 894916, Note_on_c, 0, 50, 38
2, 895383, Note_off_c, 0, 50, 49
2, 895384, Note_off_c, 0, 46, 49
2, 895837, Note_off_c, 0, 70, 47
2, 896166, Note_on_c, 0, 72, 40
2, 896168, Note_on_c, 0, 75, 45
2, 896169, Note_off_c, 0, 74, 52
2, 896304, Note_off_c, 0, 75, 51
2, 896305, Note_off_c, 0, 72, 50
2, 896350, Control_c, 0, 64, 20
2, 896352, Note_on_c, 0, 74, 36
2, 896354, Note_on_c, 0, 77, 44
2, 896525, Control_c, 0, 64, 98
2, 897437, Note_off_c, 0, 65, 46
2, 897564, Note_off_c, 0, 77, 51
2, 897616, Note_off_c, 0, 74, 49
2, 897952, Note_on_c, 0, 75, 36
2, 897956, Control_c, 0, 64, 20
2, 897961, Note_on_c, 0, 65, 30
2, 897963, Note_on_c, 0, 72, 20
2, 898131, Control_c, 0, 64, 98
2, 898153, Note_on_c, 0, 53, 37
2, 898253, Note_off_c, 0, 53, 49
2, 898334, Note_on_c, 0, 52, 39
2, 898377, Control_c, 0, 64, 20
2, 898419, Note_off_c, 0, 52, 49
2, 898503, Note_on_c, 0, 53, 41
2, 898603, Note_off_c, 0, 53, 50
2, 898685, Note_on_c, 0, 55, 42
2, 898768, Note_off_c, 0, 55, 50
2, 898856, Note_on_c, 0, 57, 44
2, 898954, Note_off_c, 0, 57, 51
2, 898998, Note_off_c, 0, 65, 47
2, 899012, Note_off_c, 0, 72, 45
2, 899035, Note_on_c, 0, 58, 46
2, 899121, Note_off_c, 0, 58, 51
2, 899161, Note_off_c, 0, 75, 49
2, 899206, Note_on_c, 0, 60, 48
2, 899305, Note_off_c, 0, 60, 52
2, 899390, Note_on_c, 0, 58, 42
2, 899392, Note_on_c, 0, 62, 48
2, 899395, Note_on_c, 0, 65, 40
2, 899396, Note_on_c, 0, 70, 30
2, 899397, Note_on_c, 0, 74, 36
2, 899428, Control_c, 0, 64, 98
2, 899843, Note_off_c, 0, 65, 50
2, 899916, Note_off_c, 0, 74, 49
2, 899951, Note_off_c, 0, 70, 47
2, 900279, Note_off_c, 0, 58, 50
2, 900440, Note_off_c, 0, 62, 52
2, 900627, Note_on_c, 0, 60, 50
2, 900628, Note_on_c, 0, 63, 53
2, 900696, Control_c, 0, 64, 20
2, 900760, Note_off_c, 0, 60, 52
2, 900765, Note_off_c, 0, 63, 53
2, 900810, Note_on_c, 0, 62, 42
2, 900812, Note_on_c, 0, 65, 54
2, 900871, Control_c, 0, 64, 98
2, 901711, Note_off_c, 0, 65, 53
2, 901765, Note_off_c, 0, 62, 50
2, 902372, Control_c, 0, 64, 20
2, 902380, Note_on_c, 0, 34, 60
2, 902547, Control_c, 0, 64, 98
2, 904117, Note_off_c, 0, 34, 55
2, 904119, Note_on_c, 0, 33, 26
2, 904126, Control_c, 0, 64, 20
2, 904301, Control_c, 0, 64, 98
2, 909361, Note_off_c, 0, 33, 46
2, 909362, Note_on_c, 0, 84, 54
2, 910348, Note_off_c, 0, 84, 53
2, 910350, Note_on_c, 0, 86, 55
2, 910465, Note_off_c, 0, 86, 53
2, 910467, Note_on_c, 0, 84, 57
2, 910565, Note_off_c, 0, 84, 54
2, 910567, Note_on_c, 0, 83, 58
2, 910682, Note_off_c, 0, 83, 54
2, 910684, Note_on_c, 0, 84, 60
2, 910929, Note_off_c, 0, 84, 55
2, 910958, Note_on_c, 0, 86, 63
2, 911085, Note_off_c, 0, 86, 55
2, 911141, Note_on_c, 0, 87, 66
2, 912871, Note_on_c, 0, 66, 72
2, 912879, Control_c, 0, 64, 20
2, 912881, Note_on_c, 0, 58, 53
2, 912883, Note_on_c, 0, 60, 40
2, 912885, Note_on_c, 0, 63, 60
2, 912896, Note_off_c, 0, 87, 56
2, 913054, Control_c, 0, 64, 98
2, 914203, Note_off_c, 0, 63, 55
2, 914338, Note_off_c, 0, 60, 50
2, 914420, Note_off_c, 0, 58, 53
2, 914623, Note_off_c, 0, 66, 58
2, 914628, Note_on_c, 0, 65, 48
2, 914642, Note_on_c, 0, 57, 40
2, 914643, Note_on_c, 0, 63, 36
2, 914645, Control_c, 0, 64, 20
2, 914649, Note_on_c, 0, 60, 30
2, 914817, Control_c, 0, 64, 98
2, 916812, Note_off_c, 0, 57, 50
2, 917015, Note_off_c, 0, 60, 47
2, 917034, Note_off_c, 0, 63, 49
2, 917596, Note_off_c, 0, 65, 52
2, 917599, Note_on_c, 0, 67, 48
2, 917613, Control_c, 0, 64, 20
2, 917765, Note_off_c, 0, 67, 52
2, 917769, Note_on_c, 0, 65, 60
2, 917937, Note_off_c, 0, 65, 55
2, 917939, Note_on_c, 0, 64, 60
2, 918105, Note_off_c, 0, 64, 55
2, 918108, Note_on_c, 0, 65, 60
2, 918250, Note_off_c, 0, 65, 55
2, 918252, Note_on_c, 0, 67, 61
2, 918402, Note_off_c, 0, 67, 55
2, 918404, Note_on_c, 0, 69, 62
2, 918531, Note_off_c, 0, 69, 55
2, 918532, Note_on_c, 0, 70, 64
2, 918638, Note_off_c, 0, 70, 56
2, 918640, Note_on_c, 0, 72, 65
2, 918760, Note_off_c, 0, 72, 56
2, 918761, Note_on_c, 0, 74, 66
2, 918857, Note_off_c, 0, 74, 56
2, 918860, Note_on_c, 0, 75, 68
2, 918954, Note_off_c, 0, 75, 57
2, 918955, Note_on_c, 0, 77, 69
2, 919058, Note_off_c, 0, 77, 57
2, 919060, Note_on_c, 0, 79, 70
2, 919147, Note_off_c, 0, 79, 57
2, 919149, Note_on_c, 0, 81, 72
2, 919247, Note_off_c, 0, 81, 58
2, 919250, Note_on_c, 0, 82, 72
2, 919311, Note_off_c, 0, 82, 58
2, 919336, Note_on_c, 0, 84, 72
2, 919455, Control_c, 0, 64, 98
2, 920114, Note_off_c, 0, 84, 58
2, 920116, Note_on_c, 0, 86, 71
2, 920200, Note_off_c, 0, 86, 58
2, 920202, Note_on_c, 0, 84, 69
2, 920297, Note_off_c, 0, 84, 57
2, 920299, Note_on_c, 0, 83, 68
2, 920382, Note_off_c, 0, 83, 57
2, 920384, Note_on_c, 0, 84, 66
2, 920765, Note_on_c, 0, 86, 63
2, 920774, Note_off_c, 0, 84, 56
2, 920889, Note_off_c, 0, 86, 55
2, 920928, Note_on_c, 0, 87, 60
2, 922480, Note_off_c, 0, 87, 55
2, 922524, Note_on_c, 0, 75, 72
2, 922528, Control_c, 0, 64, 20
2, 922529, Note_on_c, 0, 60, 55
2, 922530, Note_on_c, 0, 72, 60
2, 922532, Note_on_c, 0, 53, 60
2, 922541, Note_on_c, 0, 63, 50
2, 922546, Note_on_c, 0, 69, 40
2, 922702, Control_c, 0, 64, 98
2, 923774, Note_off_c, 0, 60, 53
2, 923895, Note_off_c, 0, 53, 55
2, 923944, Note_off_c, 0, 63, 52
2, 923959, Note_off_c, 0, 72, 55
2, 923967, Note_off_c, 0, 69, 50
2, 924210, Note_off_c, 0, 75, 58
2, 924214, Note_on_c, 0, 74, 49
2, 924216, Note_on_c, 0, 70, 30
2, 924224, Note_on_c, 0, 58, 40
2, 924228, Note_on_c, 0, 55, 36
2, 924233, Note_on_c, 0, 62, 36
2, 924308, Control_c, 0, 64, 20
2, 924483, Control_c, 0, 64, 98
2, 924692, Note_off_c, 0, 70, 47
2, 924692, Note_off_c, 0, 62, 49
2, 924695, Note_off_c, 0, 55, 49
2, 924714, Note_off_c, 0, 58, 50
2, 924842, Note_off_c, 0, 74, 52
2, 925909, Note_on_c, 0, 79, 84
2, 926522, Control_c, 0, 64, 20
2, 926615, Note_on_c, 0, 52, 60
2, 926617, Note_on_c, 0, 58, 52
2, 926618, Note_on_c, 0, 61, 72
2, 926756, Control_c, 0, 64, 98
2, 926965, Note_off_c, 0, 52, 55
2, 926967, Note_off_c, 0, 58, 53
2, 926968, Note_off_c, 0, 61, 58
2, 927065, Control_c, 0, 64, 20
2, 927332, Note_on_c, 0, 67, 48
2, 927334, Note_on_c, 0, 70, 52
2, 927336, Note_on_c, 0, 73, 72
2, 927515, Control_c, 0, 64, 98
2, 927699, Note_off_c, 0, 67, 52
2, 927701, Note_off_c, 0, 70, 53
2, 927703, Note_off_c, 0, 73, 58
2, 928849, Note_off_c, 0, 79, 61
2, 928853, Note_on_c, 0, 77, 48
2, 929581, Control_c, 0, 64, 0
2, 929667, Note_on_c, 0, 58, 30
2, 929669, Note_on_c, 0, 53, 24
2, 929671, Note_on_c, 0, 62, 36
2, 929870, Note_off_c, 0, 62, 0
2, 929877, Note_off_c, 0, 58, 0
2, 929910, Note_off_c, 0, 53, 0
2, 929931, Control_c, 0, 64, 98
2, 930321, Control_c, 0, 64, 0
2, 930518, Note_on_c, 0, 65, 36
2, 930524, Note_on_c, 0, 70, 40
2, 930528, Note_on_c, 0, 74, 46
2, 930734, Note_off_c, 0, 65, 0
2, 930736, Note_off_c, 0, 70, 0
2, 930740, Control_c, 0, 64, 98
2, 930779, Note_off_c, 0, 74, 0
2, 931209, Control_c, 0, 64, 0
2, 931405, Note_on_c, 0, 41, 33
2, 931409, Note_on_c, 0, 29, 30
2, 931601, Note_off_c, 0, 41, 0
2, 931609, Note_off_c, 0, 29, 0
2, 931706, Control_c, 0, 64, 98
2, 932007, Control_c, 0, 64, 0
2, 932326, Note_off_c, 0, 77, 52
2, 932329, Note_on_c, 0, 69, 41
2, 932331, Note_on_c, 0, 60, 34
2, 932341, Note_on_c, 0, 63, 30
2, 932504, Control_c, 0, 64, 98
2, 932559, Note_off_c, 0, 60, 0
2, 932576, Note_off_c, 0, 69, 0
2, 932596, Note_off_c, 0, 63, 0
2, 933012, Control_c, 0, 64, 20
2, 933259, Note_on_c, 0, 53, 27
2, 933271, Note_on_c, 0, 41, 24
2, 933366, Control_c, 0, 64, 98
2, 933488, Note_off_c, 0, 41, 46
2, 933504, Note_off_c, 0, 53, 46
2, 933702, Control_c, 0, 64, 20
2, 934200, Note_on_c, 0, 46, 27
2, 934202, Note_on_c, 0, 70, 36
2, 934207, Note_on_c, 0, 34, 24
2, 934209, Note_on_c, 0, 58, 25
2, 934212, Note_on_c, 0, 62, 30
2, 934385, Control_c, 0, 64, 98
2, 934495, Note_off_c, 0, 58, 46
2, 934510, Note_off_c, 0, 62, 47
2, 934566, Note_off_c, 0, 70, 49
2, 934933, Note_on_c, 0, 77, 50
2, 934943, Note_on_c, 0, 65, 42
2, 935608, Note_off_c, 0, 65, 50
2, 935686, Note_off_c, 0, 77, 52
2, 935688, Note_on_c, 0, 74, 48
2, 935697, Note_on_c, 0, 62, 37
2, 936362, Note_off_c, 0, 62, 49
2, 936452, Note_off_c, 0, 74, 52
2, 936453, Note_on_c, 0, 71, 44
2, 936464, Note_on_c, 0, 59, 41
2, 937082, Note_off_c, 0, 59, 50
2, 937238, Note_off_c, 0, 71, 51
2, 937241, Note_on_c, 0, 70, 40
2, 937250, Note_on_c, 0, 58, 32
2, 937916, Note_off_c, 0, 58, 48
2, 937925, Note_off_c, 0, 34, 46
2, 938093, Note_off_c, 0, 70, 50
2, 938095, Note_on_c, 0, 68, 36
2, 938104, Note_on_c, 0, 56, 30
2, 938481, Note_off_c, 0, 46, 46
2, 938643, Note_off_c, 0, 56, 47
2, 938780, Note_off_c, 0, 68, 49
2, 939002, Note_on_c, 0, 46, 20
2, 939004, Note_on_c, 0, 34, 15
2, 939005, Note_on_c, 0, 67, 42
2, 939008, Note_on_c, 0, 55, 22
2, 939016, Control_c, 0, 64, 20
2, 939193, Control_c, 0, 64, 98
2, 939616, Note_off_c, 0, 55, 45
2, 939660, Note_off_c, 0, 67, 50
2, 939835, Note_on_c, 0, 70, 44
2, 939844, Note_on_c, 0, 58, 26
2, 940442, Note_off_c, 0, 58, 46
2, 940684, Note_off_c, 0, 70, 51
2, 940688, Note_on_c, 0, 63, 46
2, 940697, Note_on_c, 0, 51, 30
2, 941262, Note_off_c, 0, 51, 47
2, 941552, Note_off_c, 0, 63, 51
2, 941556, Note_on_c, 0, 55, 34
2, 941558, Note_on_c, 0, 67, 49
2, 941561, Control_c, 0, 64, 20
2, 941736, Control_c, 0, 64, 98
2, 942307, Note_off_c, 0, 55, 48
2, 942439, Note_off_c, 0, 67, 52
2, 942442, Note_on_c, 0, 48, 38
2, 942444, Note_on_c, 0, 60, 51
2, 943137, Note_off_c, 0, 48, 49
2, 943357, Note_off_c, 0, 60, 52
2, 943360, Note_on_c, 0, 53, 36
2, 943361, Note_on_c, 0, 65, 54
2, 943364, Control_c, 0, 64, 20
2, 943540, Control_c, 0, 64, 98
2, 943686, Note_off_c, 0, 53, 49
2, 943809, Note_off_c, 0, 65, 53
2, 943812, Note_on_c, 0, 51, 34
2, 943814, Note_on_c, 0, 63, 54
2, 944113, Note_off_c, 0, 46, 45
2, 944145, Note_off_c, 0, 51, 48
2, 944162, Note_off_c, 0, 63, 53
2, 944260, Note_off_c, 0, 34, 44
2, 944279, Note_on_c, 0, 46, 47
2, 944281, Note_on_c, 0, 50, 34
2, 944282, Control_c, 0, 64, 20
2, 944283, Note_on_c, 0, 62, 44
2, 944454, Control_c, 0, 64, 98
2, 945213, Note_on_c, 0, 65, 36
2, 945216, Note_off_c, 0, 50, 48
2, 945326, Note_off_c, 0, 62, 51
2, 945964, Note_on_c, 0, 62, 36
2, 946090, Note_off_c, 0, 65, 49
2, 946701, Note_on_c, 0, 74, 66
2, 946702, Note_on_c, 0, 59, 41
2, 946706, Control_c, 0, 64, 20
2, 946769, Note_off_c, 0, 62, 49
2, 946881, Control_c, 0, 64, 98
2, 947435, Note_on_c, 0, 58, 39
2, 947492, Note_off_c, 0, 59, 50
2, 948050, Control_c, 0, 64, 20
2, 948140, Note_on_c, 0, 72, 58
2, 948158, Note_off_c, 0, 74, 56
2, 948198, Note_on_c, 0, 56, 36
2, 948242, Note_on_c, 0, 74, 53
2, 948247, Control_c, 0, 64, 98
2, 948257, Note_off_c, 0, 72, 54
2, 948315, Note_off_c, 0, 58, 49
2, 948338, Note_off_c, 0, 74, 53
2, 948340, Note_on_c, 0, 75, 54
2, 948407, Note_off_c, 0, 75, 53
2, 948410, Note_on_c, 0, 74, 54
2, 948495, Note_off_c, 0, 74, 53
2, 948497, Note_on_c, 0, 75, 55
2, 948579, Note_off_c, 0, 75, 53
2, 948581, Note_on_c, 0, 74, 56
2, 948644, Note_off_c, 0, 74, 54
2, 948648, Note_on_c, 0, 75, 56
2, 948660, Note_off_c, 0, 46, 51
2, 948729, Note_off_c, 0, 75, 54
2, 948731, Note_on_c, 0, 74, 57
2, 948813, Note_off_c, 0, 74, 54
2, 948814, Note_on_c, 0, 75, 58
2, 948890, Note_off_c, 0, 56, 49
2, 948898, Note_off_c, 0, 75, 54
2, 948907, Note_on_c, 0, 74, 52
2, 948996, Note_on_c, 0, 72, 58
2, 949008, Note_off_c, 0, 74, 53
2, 949085, Note_on_c, 0, 75, 58
2, 949105, Note_off_c, 0, 72, 54
2, 949192, Note_off_c, 0, 75, 54
2, 949199, Note_on_c, 0, 77, 66
2, 949201, Note_on_c, 0, 46, 36
2, 949204, Note_on_c, 0, 55, 45
2, 949205, Control_c, 0, 64, 20
2, 949381, Control_c, 0, 64, 98
2, 949940, Note_on_c, 0, 75, 60
2, 949942, Note_on_c, 0, 58, 35
2, 949949, Control_c, 0, 64, 20
2, 949955, Note_off_c, 0, 55, 51
2, 950011, Note_off_c, 0, 77, 56
2, 950124, Control_c, 0, 64, 98
2, 950507, Note_off_c, 0, 75, 55
2, 950705, Note_on_c, 0, 51, 34
2, 950776, Note_off_c, 0, 58, 48
2, 951500, Note_on_c, 0, 75, 56
2, 951508, Note_on_c, 0, 55, 33
2, 951518, Control_c, 0, 64, 20
2, 951619, Note_off_c, 0, 51, 48
2, 951694, Control_c, 0, 64, 98
2, 952343, Note_on_c, 0, 48, 32
2, 952345, Control_c, 0, 64, 20
2, 952520, Control_c, 0, 64, 98
2, 952526, Note_off_c, 0, 55, 48
2, 953096, Control_c, 0, 64, 20
2, 953219, Note_off_c, 0, 75, 54
2, 953233, Note_on_c, 0, 72, 36
2, 953235, Note_on_c, 0, 53, 31
2, 953303, Control_c, 0, 64, 98
2, 953308, Note_off_c, 0, 48, 48
2, 953313, Note_off_c, 0, 72, 49
2, 953314, Note_on_c, 0, 69, 36
2, 953411, Note_off_c, 0, 69, 49
2, 953413, Note_on_c, 0, 70, 36
2, 953487, Note_off_c, 0, 70, 49
2, 953489, Note_on_c, 0, 69, 37
2, 953583, Note_off_c, 0, 69, 49
2, 953585, Note_on_c, 0, 70, 38
2, 953652, Note_off_c, 0, 70, 49
2, 953657, Note_on_c, 0, 69, 39
2, 953744, Note_off_c, 0, 69, 49
2, 953746, Note_on_c, 0, 70, 40
2, 953748, Note_on_c, 0, 51, 31
2, 953784, Note_off_c, 0, 53, 47
2, 953809, Note_off_c, 0, 70, 50
2, 953812, Note_on_c, 0, 69, 42
2, 953893, Note_off_c, 0, 69, 50
2, 953895, Note_on_c, 0, 70, 43
2, 953978, Note_off_c, 0, 70, 50
2, 953980, Note_on_c, 0, 69, 44
2, 954066, Note_off_c, 0, 69, 51
2, 954068, Note_on_c, 0, 67, 45
2, 954101, Note_off_c, 0, 46, 49
2, 954123, Note_off_c, 0, 51, 47
2, 954139, Note_off_c, 0, 67, 51
2, 954143, Note_on_c, 0, 69, 46
2, 954237, Note_off_c, 0, 69, 51
2, 954240, Note_on_c, 0, 70, 48
2, 954242, Note_on_c, 0, 50, 30
2, 954243, Note_on_c, 0, 46, 25
2, 954246, Control_c, 0, 64, 20
2, 954423, Control_c, 0, 64, 98
2, 954566, Note_off_c, 0, 70, 52
2, 955010, Note_on_c, 0, 53, 40
2, 955045, Note_off_c, 0, 50, 47
2, 955379, Note_on_c, 0, 69, 48
2, 955381, Note_on_c, 0, 51, 29
2, 955426, Note_off_c, 0, 53, 50
2, 955563, Note_off_c, 0, 46, 46
2, 955665, Note_off_c, 0, 51, 47
2, 955779, Note_on_c, 0, 70, 47
2, 955780, Note_on_c, 0, 50, 28
2, 955782, Note_on_c, 0, 46, 35
2, 955788, Control_c, 0, 64, 20
2, 955853, Note_off_c, 0, 69, 52
2, 955911, Note_off_c, 0, 70, 51
2, 955963, Control_c, 0, 64, 98
2, 956563, Note_on_c, 0, 53, 27
2, 956602, Note_off_c, 0, 50, 47
2, 956981, Note_on_c, 0, 72, 48
2, 956982, Note_on_c, 0, 51, 27
2, 956991, Note_on_c, 0, 69, 42
2, 957041, Note_off_c, 0, 53, 46
2, 957076, Note_off_c, 0, 46, 48
2, 957277, Note_off_c, 0, 51, 46
2, 957400, Note_on_c, 0, 74, 40
2, 957402, Note_on_c, 0, 50, 35
2, 957403, Note_on_c, 0, 46, 26
2, 957406, Control_c, 0, 64, 20
2, 957410, Note_on_c, 0, 70, 30
2, 957429, Note_off_c, 0, 72, 52
2, 957460, Note_off_c, 0, 69, 50
2, 957532, Note_off_c, 0, 70, 47
2, 957568, Note_off_c, 0, 74, 50
2, 957583, Control_c, 0, 64, 98
2, 958267, Note_on_c, 0, 53, 25
2, 958338, Note_off_c, 0, 50, 48
2, 958719, Note_on_c, 0, 81, 40
2, 958720, Note_on_c, 0, 51, 24
2, 958730, Note_on_c, 0, 72, 36
2, 958736, Note_off_c, 0, 53, 46
2, 958877, Note_off_c, 0, 46, 46
2, 959064, Note_off_c, 0, 72, 49
2, 959097, Note_off_c, 0, 51, 46
2, 959150, Note_off_c, 0, 81, 50
2, 959186, Note_on_c, 0, 46, 34
2, 959187, Note_on_c, 0, 50, 20
2, 959189, Note_on_c, 0, 82, 36
2, 959192, Control_c, 0, 64, 20
2, 959197, Note_on_c, 0, 74, 30
2, 959365, Control_c, 0, 64, 98
2, 960036, Note_off_c, 0, 74, 47
2, 960138, Note_off_c, 0, 50, 45
2, 960140, Note_off_c, 0, 82, 49
2, 960143, Note_off_c, 0, 46, 48
2, 960145, Note_on_c, 0, 86, 42
2, 960154, Control_c, 0, 64, 20
2, 960330, Control_c, 0, 64, 98
2, 960890, Note_off_c, 0, 86, 50
2, 960892, Note_on_c, 0, 84, 46
2, 960993, Control_c, 0, 64, 20
2, 961091, Note_off_c, 0, 84, 51
2, 961140, Note_on_c, 0, 84, 48
2, 961168, Control_c, 0, 64, 98
2, 963296, Note_on_c, 0, 82, 44
2, 963328, Note_off_c, 0, 84, 52
2, 964114, Note_off_c, 0, 82, 51
2, 964397, Note_on_c, 0, 34, 15
2, 964423, Control_c, 0, 64, 20
2, 964598, Control_c, 0, 64, 96
2, 967590, Note_off_c, 0, 34, 44
2, 968359, Control_c, 0, 64, 20
2, 968643, Note_on_c, 0, 69, 60
2, 968757, Note_on_c, 0, 77, 63
2, 968772, Note_off_c, 0, 69, 55
2, 968874, Note_on_c, 0, 76, 61
2, 968896, Note_off_c, 0, 77, 55
2, 968991, Note_on_c, 0, 74, 48
2, 968993, Note_on_c, 0, 50, 46
2, 969019, Note_off_c, 0, 76, 55
2, 969052, Control_c, 0, 64, 98
2, 969083, Note_off_c, 0, 74, 52
2, 969091, Note_off_c, 0, 50, 51
2, 969094, Note_on_c, 0, 57, 48
2, 969208, Note_on_c, 0, 62, 52
2, 969325, Note_off_c, 0, 62, 53
2, 969327, Note_on_c, 0, 69, 48
2, 969330, Note_on_c, 0, 65, 56
2, 969431, Control_c, 0, 64, 20
2, 969442, Note_off_c, 0, 65, 54
2, 969444, Note_off_c, 0, 69, 52
2, 969447, Note_on_c, 0, 77, 66
2, 969559, Note_on_c, 0, 76, 60
2, 969572, Note_off_c, 0, 77, 56
2, 969676, Note_off_c, 0, 57, 52
2, 969678, Note_on_c, 0, 74, 54
2, 969680, Note_off_c, 0, 76, 55
2, 969683, Note_on_c, 0, 50, 46
2, 969765, Note_off_c, 0, 74, 53
2, 969793, Note_off_c, 0, 50, 51
2, 969795, Note_on_c, 0, 57, 48
2, 969870, Control_c, 0, 64, 98
2, 969910, Note_on_c, 0, 62, 54
2, 970028, Note_off_c, 0, 62, 53
2, 970030, Note_on_c, 0, 69, 48
2, 970032, Note_on_c, 0, 65, 60
2, 970143, Note_off_c, 0, 65, 55
2, 970145, Note_off_c, 0, 69, 52
2, 970147, Note_on_c, 0, 77, 66
2, 970250, Control_c, 0, 64, 20
2, 970261, Note_on_c, 0, 76, 59
2, 970276, Note_off_c, 0, 77, 56
2, 970378, Note_off_c, 0, 57, 52
2, 970381, Note_on_c, 0, 74, 54
2, 970383, Note_on_c, 0, 50, 48
2, 970392, Note_off_c, 0, 76, 54
2, 970466, Note_off_c, 0, 74, 53
2, 970495, Note_off_c, 0, 50, 52
2, 970497, Note_on_c, 0, 57, 46
2, 970540, Control_c, 0, 64, 98
2, 970612, Note_on_c, 0, 62, 54
2, 970729, Note_off_c, 0, 62, 53
2, 970731, Note_on_c, 0, 65, 60
2, 970733, Note_on_c, 0, 69, 48
2, 970846, Note_off_c, 0, 65, 55
2, 970847, Note_off_c, 0, 69, 52
2, 970850, Note_on_c, 0, 77, 66
2, 970862, Control_c, 0, 64, 20
2, 970965, Note_on_c, 0, 74, 59
2, 970970, Note_off_c, 0, 77, 56
2, 971079, Note_off_c, 0, 57, 51
2, 971081, Note_on_c, 0, 76, 54
2, 971083, Note_on_c, 0, 45, 46
2, 971093, Note_off_c, 0, 74, 54
2, 971159, Note_off_c, 0, 76, 53
2, 971195, Note_off_c, 0, 45, 51
2, 971198, Note_on_c, 0, 57, 48
2, 971213, Control_c, 0, 64, 95
2, 971315, Note_on_c, 0, 61, 54
2, 971432, Note_off_c, 0, 61, 53
2, 971434, Note_on_c, 0, 64, 60
2, 971436, Note_on_c, 0, 69, 48
2, 971548, Note_off_c, 0, 64, 55
2, 971550, Note_off_c, 0, 69, 52
2, 971553, Note_on_c, 0, 79, 66
2, 971574, Control_c, 0, 64, 20
2, 971665, Note_on_c, 0, 77, 60
2, 971672, Note_off_c, 0, 79, 56
2, 971782, Note_off_c, 0, 57, 52
2, 971784, Note_on_c, 0, 76, 54
2, 971786, Note_on_c, 0, 45, 48
2, 971807, Note_off_c, 0, 77, 55
2, 971855, Note_off_c, 0, 76, 53
2, 971898, Note_off_c, 0, 45, 52
2, 971901, Note_on_c, 0, 57, 46
2, 971924, Control_c, 0, 64, 120
2, 972015, Note_on_c, 0, 61, 54
2, 972113, Note_off_c, 0, 61, 53
2, 972116, Note_on_c, 0, 64, 60
2, 972117, Note_on_c, 0, 69, 48
2, 972230, Note_off_c, 0, 69, 52
2, 972232, Note_off_c, 0, 64, 55
2, 972234, Note_on_c, 0, 79, 66
2, 972343, Control_c, 0, 64, 20
2, 972349, Note_on_c, 0, 77, 59
2, 972379, Note_off_c, 0, 79, 56
2, 972466, Note_off_c, 0, 57, 51
2, 972468, Note_on_c, 0, 76, 54
2, 972470, Note_on_c, 0, 45, 48
2, 972489, Note_off_c, 0, 77, 54
2, 972555, Note_off_c, 0, 76, 53
2, 972580, Note_off_c, 0, 45, 52
2, 972582, Note_on_c, 0, 57, 45
2, 972646, Control_c, 0, 64, 98
2, 972699, Note_on_c, 0, 61, 54
2, 972816, Note_off_c, 0, 61, 53
2, 972818, Note_on_c, 0, 64, 60
2, 972819, Note_on_c, 0, 69, 48
2, 972933, Note_off_c, 0, 69, 52
2, 972935, Note_off_c, 0, 64, 55
2, 972936, Note_on_c, 0, 79, 66
2, 972996, Control_c, 0, 64, 20
2, 973051, Note_on_c, 0, 77, 60
2, 973080, Note_off_c, 0, 79, 56
2, 973167, Note_off_c, 0, 57, 51
2, 973169, Note_on_c, 0, 76, 54
2, 973171, Note_on_c, 0, 45, 45
2, 973174, Note_off_c, 0, 77, 55
2, 973279, Note_off_c, 0, 76, 53
2, 973281, Note_off_c, 0, 45, 51
2, 973285, Note_on_c, 0, 57, 48
2, 973308, Control_c, 0, 64, 102
2, 973400, Note_on_c, 0, 61, 54
2, 973535, Note_off_c, 0, 61, 53
2, 973538, Note_on_c, 0, 64, 60
2, 973540, Note_on_c, 0, 69, 54
2, 973652, Note_off_c, 0, 64, 55
2, 973654, Note_off_c, 0, 69, 53
2, 973657, Note_on_c, 0, 79, 66
2, 973677, Control_c, 0, 64, 20
2, 973769, Note_on_c, 0, 76, 60
2, 973790, Note_off_c, 0, 79, 56
2, 973886, Note_off_c, 0, 57, 52
2, 973888, Note_on_c, 0, 77, 54
2, 973890, Note_on_c, 0, 50, 48
2, 973906, Note_off_c, 0, 76, 55
2, 973988, Note_off_c, 0, 77, 53
2, 974000, Note_off_c, 0, 50, 52
2, 974003, Note_on_c, 0, 57, 46
2, 974049, Control_c, 0, 64, 98
2, 974120, Note_on_c, 0, 62, 54
2, 974239, Note_off_c, 0, 62, 53
2, 974241, Note_on_c, 0, 65, 60
2, 974243, Note_on_c, 0, 74, 52
2, 974353, Note_off_c, 0, 65, 55
2, 974355, Note_on_c, 0, 81, 56
2, 974357, Note_off_c, 0, 74, 53
2, 974447, Control_c, 0, 64, 20
2, 974470, Note_on_c, 0, 86, 60
2, 974478, Note_off_c, 0, 81, 54
2, 974588, Note_off_c, 0, 57, 51
2, 974589, Note_on_c, 0, 82, 36
2, 974591, Note_on_c, 0, 55, 36
2, 974598, Note_off_c, 0, 86, 55
2, 974675, Note_off_c, 0, 82, 49
2, 974705, Note_on_c, 0, 62, 40
2, 974750, Control_c, 0, 64, 96
2, 974802, Note_on_c, 0, 67, 43
2, 974920, Note_on_c, 0, 70, 47
2, 975037, Note_off_c, 0, 70, 51
2, 975039, Note_on_c, 0, 74, 51
2, 975130, Control_c, 0, 64, 20
2, 975156, Note_on_c, 0, 82, 55
2, 975175, Note_off_c, 0, 74, 52
2, 975273, Note_off_c, 0, 62, 50
2, 975275, Note_off_c, 0, 55, 49
2, 975276, Note_off_c, 0, 67, 50
2, 975278, Note_on_c, 0, 51, 59
2, 975279, Note_on_c, 0, 79, 59
2, 975293, Note_off_c, 0, 82, 53
2, 975359, Note_off_c, 0, 79, 54
2, 975387, Note_on_c, 0, 58, 63
2, 975422, Control_c, 0, 64, 98
2, 975504, Note_on_c, 0, 63, 67
2, 975621, Note_on_c, 0, 67, 71
2, 975742, Note_on_c, 0, 70, 75
2, 975745, Note_off_c, 0, 67, 58
2, 975832, Control_c, 0, 64, 20
2, 975859, Note_on_c, 0, 79, 80
2, 975879, Note_off_c, 0, 70, 59
2, 975976, Note_off_c, 0, 58, 55
2, 975978, Note_off_c, 0, 51, 54
2, 975979, Note_off_c, 0, 63, 57
2, 975981, Note_on_c, 0, 49, 76
2, 975982, Note_on_c, 0, 76, 76
2, 975985, Note_off_c, 0, 79, 60
2, 976072, Note_off_c, 0, 76, 59
2, 976088, Note_on_c, 0, 57, 72
2, 976095, Control_c, 0, 64, 96
2, 976205, Note_on_c, 0, 61, 69
2, 976323, Note_on_c, 0, 64, 65
2, 976442, Note_on_c, 0, 69, 61
2, 976445, Note_off_c, 0, 64, 56
2, 976534, Control_c, 0, 64, 20
2, 976559, Note_on_c, 0, 76, 58
2, 976571, Note_off_c, 0, 69, 55
2, 976676, Note_off_c, 0, 57, 58
2, 976678, Note_off_c, 0, 49, 59
2, 976680, Note_off_c, 0, 61, 57
2, 976684, Note_on_c, 0, 50, 54
2, 976685, Note_on_c, 0, 77, 54
2, 976691, Note_off_c, 0, 76, 54
2, 976764, Note_off_c, 0, 77, 53
2, 976790, Note_on_c, 0, 57, 50
2, 976826, Control_c, 0, 64, 99
2, 976907, Note_on_c, 0, 62, 47
2, 977024, Note_on_c, 0, 65, 43
2, 977144, Note_on_c, 0, 69, 39
2, 977163, Note_off_c, 0, 65, 50
2, 977243, Control_c, 0, 64, 20
2, 977261, Note_on_c, 0, 77, 36
2, 977272, Note_off_c, 0, 69, 49
2, 977377, Note_off_c, 0, 62, 51
2, 977379, Note_off_c, 0, 57, 52
2, 977381, Note_off_c, 0, 50, 53
2, 977382, Note_on_c, 0, 74, 39
2, 977384, Note_on_c, 0, 45, 39
2, 977385, Note_off_c, 0, 77, 49
2, 977471, Note_off_c, 0, 74, 49
2, 977491, Note_on_c, 0, 53, 42
2, 977518, Control_c, 0, 64, 99
2, 977610, Note_on_c, 0, 57, 45
2, 977743, Note_on_c, 0, 62, 49
2, 977862, Note_on_c, 0, 69, 53
2, 977872, Note_off_c, 0, 62, 52
2, 977968, Note_off_c, 0, 45, 49
2, 977979, Note_on_c, 0, 74, 56
2, 977991, Note_off_c, 0, 69, 53
2, 978004, Note_off_c, 0, 53, 50
2, 978012, Note_off_c, 0, 57, 51
2, 978099, Note_off_c, 0, 74, 54
2, 978101, Control_c, 0, 64, 96
2, 978104, Note_on_c, 0, 73, 59
2, 978105, Note_on_c, 0, 45, 59
2, 978190, Note_off_c, 0, 73, 54
2, 978210, Note_on_c, 0, 52, 63
2, 978327, Note_on_c, 0, 55, 66
2, 978444, Note_on_c, 0, 61, 69
2, 978447, Note_on_c, 0, 57, 69
2, 978564, Note_off_c, 0, 61, 57
2, 978566, Note_on_c, 0, 69, 73
2, 978680, Control_c, 0, 64, 20
2, 978682, Note_on_c, 0, 73, 76
2, 978686, Note_off_c, 0, 69, 58
2, 978797, Note_off_c, 0, 52, 55
2, 978800, Note_off_c, 0, 45, 54
2, 978802, Note_off_c, 0, 57, 57
2, 978803, Note_off_c, 0, 55, 56
2, 978805, Note_on_c, 0, 38, 79
2, 978806, Note_on_c, 0, 74, 82
2, 978807, Note_off_c, 0, 73, 59
2, 978891, Note_off_c, 0, 74, 60
2, 978930, Note_off_c, 0, 38, 60
2, 978932, Note_on_c, 0, 50, 60
2, 979047, Note_on_c, 0, 53, 56
2, 979058, Note_off_c, 0, 50, 55
2, 979166, Note_on_c, 0, 57, 52
2, 979182, Note_off_c, 0, 53, 54
2, 979281, Note_on_c, 0, 62, 48
2, 979283, Note_on_c, 0, 65, 71
2, 979301, Note_off_c, 0, 57, 53
2, 979414, Note_on_c, 0, 69, 69
2, 979432, Note_off_c, 0, 65, 58
2, 979532, Note_on_c, 0, 74, 68
2, 979537, Note_off_c, 0, 62, 52
2, 979549, Note_off_c, 0, 69, 57
2, 979649, Note_on_c, 0, 77, 66
2, 979661, Note_off_c, 0, 74, 57
2, 979766, Note_on_c, 0, 81, 65
2, 979789, Note_off_c, 0, 77, 56
2, 979883, Note_on_c, 0, 77, 63
2, 979904, Note_off_c, 0, 81, 56
2, 979999, Note_on_c, 0, 86, 62
2, 980005, Note_off_c, 0, 77, 55
2, 980116, Note_on_c, 0, 81, 60
2, 980130, Note_off_c, 0, 86, 55
2, 980234, Note_on_c, 0, 82, 36
2, 980235, Note_on_c, 0, 55, 36
2, 980240, Note_off_c, 0, 81, 55
2, 980290, Note_off_c, 0, 82, 49
2, 980335, Note_on_c, 0, 62, 39
2, 980373, Control_c, 0, 64, 95
2, 980449, Note_on_c, 0, 67, 43
2, 980565, Note_on_c, 0, 70, 47
2, 980684, Note_on_c, 0, 74, 51
2, 980693, Note_off_c, 0, 70, 51
2, 980803, Note_off_c, 0, 67, 50
2, 980804, Note_off_c, 0, 62, 49
2, 980806, Note_on_c, 0, 82, 55
2, 980809, Note_off_c, 0, 74, 52
2, 980822, Control_c, 0, 64, 20
2, 980920, Note_off_c, 0, 55, 49
2, 980922, Note_on_c, 0, 79, 59
2, 980923, Note_on_c, 0, 51, 59
2, 980930, Note_off_c, 0, 82, 53
2, 981001, Note_off_c, 0, 79, 54
2, 981032, Note_on_c, 0, 58, 63
2, 981076, Control_c, 0, 64, 96
2, 981150, Note_on_c, 0, 63, 67
2, 981267, Note_on_c, 0, 67, 71
2, 981387, Note_off_c, 0, 67, 58
2, 981389, Note_on_c, 0, 70, 75
2, 981465, Control_c, 0, 64, 20
2, 981503, Note_off_c, 0, 70, 59
2, 981506, Note_off_c, 0, 58, 55
2, 981506, Note_off_c, 0, 63, 57
2, 981508, Note_on_c, 0, 79, 80
2, 981620, Note_off_c, 0, 51, 54
2, 981623, Note_on_c, 0, 76, 76
2, 981625, Note_on_c, 0, 49, 76
2, 981627, Note_off_c, 0, 79, 60
2, 981711, Note_off_c, 0, 76, 59
2, 981734, Note_on_c, 0, 57, 72
2, 981746, Control_c, 0, 64, 96
2, 981852, Note_on_c, 0, 61, 68
2, 981968, Note_on_c, 0, 64, 64
2, 982079, Control_c, 0, 64, 20
2, 982088, Note_on_c, 0, 69, 60
2, 982110, Note_off_c, 0, 64, 56
2, 982204, Note_off_c, 0, 69, 55
2, 982206, Note_off_c, 0, 61, 57
2, 982207, Note_off_c, 0, 57, 58
2, 982209, Note_on_c, 0, 76, 56
2, 982322, Note_off_c, 0, 76, 54
2, 982323, Note_off_c, 0, 49, 59
2, 982326, Note_on_c, 0, 77, 52
2, 982328, Note_on_c, 0, 50, 52
2, 982418, Note_off_c, 0, 77, 53
2, 982456, Note_on_c, 0, 57, 47
2, 982468, Control_c, 0, 64, 96
2, 982573, Note_on_c, 0, 62, 43
2, 982689, Note_on_c, 0, 65, 40
2, 982806, Note_on_c, 0, 69, 36
2, 982823, Note_off_c, 0, 65, 50
2, 982907, Control_c, 0, 64, 20
2, 982923, Note_off_c, 0, 62, 50
2, 982926, Note_off_c, 0, 57, 51
2, 982928, Note_on_c, 0, 77, 32
2, 982936, Note_off_c, 0, 69, 49
2, 983056, Note_off_c, 0, 50, 53
2, 983060, Note_on_c, 0, 45, 36
2, 983061, Note_on_c, 0, 74, 36
2, 983066, Note_off_c, 0, 77, 48
2, 983157, Note_off_c, 0, 74, 49
2, 983173, Note_on_c, 0, 53, 39
2, 983229, Control_c, 0, 64, 96
2, 983290, Note_on_c, 0, 57, 43
2, 983425, Note_on_c, 0, 62, 47
2, 983542, Note_on_c, 0, 69, 50
2, 983566, Note_off_c, 0, 62, 51
2, 983608, Control_c, 0, 64, 20
2, 983638, Note_off_c, 0, 45, 49
2, 983659, Note_off_c, 0, 53, 49
2, 983661, Note_off_c, 0, 57, 50
2, 983661, Note_on_c, 0, 74, 54
2, 983670, Note_off_c, 0, 69, 52
2, 983793, Note_on_c, 0, 73, 58
2, 983794, Note_on_c, 0, 45, 58
2, 983800, Note_off_c, 0, 74, 53
2, 983862, Control_c, 0, 64, 96
2, 983888, Note_off_c, 0, 73, 54
2, 983909, Note_on_c, 0, 52, 61
2, 984040, Note_on_c, 0, 55, 66
2, 984158, Note_on_c, 0, 57, 69
2, 984160, Note_on_c, 0, 61, 69
2, 984275, Note_on_c, 0, 69, 73
2, 984277, Control_c, 0, 64, 20
2, 984282, Note_off_c, 0, 61, 57
2, 984412, Note_on_c, 0, 73, 77
2, 984422, Note_off_c, 0, 69, 58
2, 984528, Note_off_c, 0, 55, 56
2, 984530, Note_off_c, 0, 52, 55
2, 984531, Note_off_c, 0, 57, 57
2, 984532, Note_off_c, 0, 45, 54
2, 984535, Note_on_c, 0, 50, 68
2, 984536, Note_on_c, 0, 74, 80
2, 984549, Note_off_c, 0, 73, 59
2, 984619, Note_off_c, 0, 74, 60
2, 984660, Note_off_c, 0, 50, 57
2, 984660, Note_on_c, 0, 53, 72
2, 984727, Note_on_c, 0, 69, 84
2, 984792, Note_off_c, 0, 69, 61
2, 984793, Note_off_c, 0, 53, 58
2, 984796, Note_on_c, 0, 81, 96
2, 984798, Note_on_c, 0, 57, 66
2, 984909, Note_off_c, 0, 57, 56
2, 984911, Note_on_c, 0, 62, 60
2, 985046, Note_off_c, 0, 62, 55
2, 985294, Note_off_c, 0, 81, 63
2, 985297, Note_on_c, 0, 80, 84
2, 985411, Note_on_c, 0, 79, 80
2, 985438, Note_off_c, 0, 80, 61
2, 985530, Note_on_c, 0, 78, 75
2, 985551, Note_off_c, 0, 79, 60
2, 985647, Note_on_c, 0, 77, 70
2, 985650, Note_off_c, 0, 78, 59
2, 985747, Note_on_c, 0, 76, 65
2, 985752, Note_off_c, 0, 77, 57
2, 985864, Note_on_c, 0, 75, 60
2, 985882, Note_off_c, 0, 76, 56
2, 985980, Note_on_c, 0, 74, 46
2, 985982, Note_on_c, 0, 45, 43
2, 986002, Note_off_c, 0, 75, 55
2, 986050, Note_off_c, 0, 74, 51
2, 986064, Control_c, 0, 64, 96
2, 986097, Note_on_c, 0, 53, 48
2, 986214, Note_on_c, 0, 57, 49
2, 986312, Note_on_c, 0, 62, 51
2, 986430, Note_on_c, 0, 69, 55
2, 986455, Note_off_c, 0, 45, 50
2, 986473, Control_c, 0, 64, 20
2, 986476, Note_off_c, 0, 62, 52
2, 986547, Note_on_c, 0, 74, 58
2, 986567, Note_off_c, 0, 69, 53
2, 986665, Note_off_c, 0, 53, 52
2, 986669, Control_c, 0, 64, 96
2, 986672, Note_off_c, 0, 57, 52
2, 986673, Note_on_c, 0, 45, 55
2, 986674, Note_on_c, 0, 73, 62
2, 986683, Note_off_c, 0, 74, 54
2, 986781, Note_on_c, 0, 52, 57
2, 986832, Note_off_c, 0, 73, 55
2, 986898, Note_on_c, 0, 55, 58
2, 987014, Note_on_c, 0, 61, 73
2, 987017, Note_on_c, 0, 57, 60
2, 987132, Note_on_c, 0, 69, 76
2, 987176, Note_off_c, 0, 61, 58
2, 987251, Control_c, 0, 64, 20
2, 987253, Note_on_c, 0, 73, 80
2, 987259, Note_off_c, 0, 69, 59
2, 987368, Note_off_c, 0, 52, 54
2, 987369, Note_off_c, 0, 45, 53
2, 987372, Note_off_c, 0, 57, 55
2, 987374, Note_off_c, 0, 55, 54
2, 987375, Note_on_c, 0, 74, 84
2, 987376, Note_on_c, 0, 50, 70
2, 987398, Note_off_c, 0, 73, 60
2, 987465, Note_off_c, 0, 74, 61
2, 987500, Note_off_c, 0, 50, 57
2, 987503, Note_on_c, 0, 53, 72
2, 987565, Note_on_c, 0, 74, 84
2, 987633, Note_off_c, 0, 74, 61
2, 987636, Note_off_c, 0, 53, 58
2, 987638, Note_on_c, 0, 57, 66
2, 987639, Note_on_c, 0, 86, 96
2, 987750, Note_off_c, 0, 57, 56
2, 987753, Note_on_c, 0, 62, 60
2, 987886, Note_off_c, 0, 62, 55
2, 988133, Note_off_c, 0, 86, 63
2, 988135, Note_on_c, 0, 85, 84
2, 988250, Note_on_c, 0, 84, 78
2, 988264, Note_off_c, 0, 85, 61
2, 988370, Note_on_c, 0, 83, 72
2, 988381, Note_off_c, 0, 84, 59
2, 988486, Note_on_c, 0, 82, 66
2, 988491, Note_off_c, 0, 83, 58
2, 988587, Note_on_c, 0, 81, 60
2, 988592, Note_off_c, 0, 82, 56
2, 988703, Note_on_c, 0, 80, 62
2, 988729, Note_off_c, 0, 81, 55
2, 988820, Note_off_c, 0, 80, 55
2, 988822, Note_on_c, 0, 81, 50
2, 988824, Note_on_c, 0, 45, 46
2, 988841, Control_c, 0, 64, 96
2, 988911, Note_off_c, 0, 81, 52
2, 988937, Note_on_c, 0, 53, 48
2, 989053, Note_on_c, 0, 57, 50
2, 989171, Note_on_c, 0, 62, 53
2, 989271, Note_off_c, 0, 62, 53
2, 989273, Note_on_c, 0, 69, 58
2, 989280, Control_c, 0, 64, 20
2, 989369, Note_off_c, 0, 45, 51
2, 989387, Note_off_c, 0, 69, 54
2, 989390, Note_off_c, 0, 57, 52
2, 989392, Note_off_c, 0, 53, 52
2, 989392, Note_on_c, 0, 74, 63
2, 989504, Note_off_c, 0, 74, 55
2, 989507, Note_on_c, 0, 73, 68
2, 989509, Note_on_c, 0, 45, 61
2, 989617, Note_off_c, 0, 73, 57
2, 989621, Note_off_c, 0, 45, 55
2, 989624, Note_on_c, 0, 52, 64
2, 989738, Note_off_c, 0, 52, 56
2, 989740, Note_on_c, 0, 55, 67
2, 989841, Note_off_c, 0, 55, 57
2, 989843, Note_on_c, 0, 73, 84
2, 989844, Note_on_c, 0, 33, 83
2, 989847, Control_c, 0, 64, 98
2, 989957, Note_off_c, 0, 73, 61
2, 989960, Note_on_c, 0, 81, 84
2, 989961, Note_on_c, 0, 41, 85
2, 989969, Note_off_c, 0, 33, 60
2, 990070, Note_off_c, 0, 81, 61
2, 990074, Note_on_c, 0, 85, 78
2, 990076, Note_on_c, 0, 40, 78
2, 990095, Note_off_c, 0, 41, 61
2, 990186, Note_off_c, 0, 85, 59
2, 990191, Note_on_c, 0, 86, 72
2, 990193, Note_on_c, 0, 38, 73
2, 990198, Note_off_c, 0, 40, 59
2, 990207, Control_c, 0, 64, 20
2, 990271, Note_off_c, 0, 38, 58
2, 990272, Note_off_c, 0, 86, 58
2, 990305, Note_on_c, 0, 50, 75
2, 990422, Note_off_c, 0, 50, 59
2, 990424, Note_on_c, 0, 53, 79
2, 990522, Note_off_c, 0, 53, 60
2, 990525, Note_on_c, 0, 57, 83
2, 990527, Note_on_c, 0, 33, 78
2, 990528, Control_c, 0, 64, 98
2, 990639, Note_off_c, 0, 57, 60
2, 990641, Note_on_c, 0, 62, 87
2, 990644, Note_on_c, 0, 41, 83
2, 990663, Note_off_c, 0, 33, 59
2, 990737, Note_off_c, 0, 62, 61
2, 990756, Note_on_c, 0, 40, 75
2, 990763, Note_off_c, 0, 41, 60
2, 990875, Note_on_c, 0, 38, 73
2, 990891, Note_off_c, 0, 40, 59
2, 990908, Control_c, 0, 64, 20
2, 990959, Note_off_c, 0, 38, 58
2, 990989, Note_on_c, 0, 50, 78
2, 991106, Note_off_c, 0, 50, 59
2, 991108, Note_on_c, 0, 53, 81
2, 991207, Note_off_c, 0, 53, 60
2, 991209, Note_on_c, 0, 57, 84
2, 991211, Note_on_c, 0, 33, 77
2, 991228, Control_c, 0, 64, 96
2, 991324, Note_off_c, 0, 57, 61
2, 991326, Note_on_c, 0, 41, 78
2, 991328, Note_on_c, 0, 62, 87
2, 991353, Note_off_c, 0, 33, 59
2, 991406, Note_off_c, 0, 62, 61
2, 991441, Note_on_c, 0, 40, 75
2, 991458, Note_off_c, 0, 41, 59
2, 991561, Note_on_c, 0, 38, 73
2, 991570, Control_c, 0, 64, 20
2, 991571, Note_off_c, 0, 40, 59
2, 991646, Note_off_c, 0, 38, 58
2, 991674, Note_on_c, 0, 50, 78
2, 991792, Note_off_c, 0, 50, 59
2, 991795, Note_on_c, 0, 53, 81
2, 991893, Note_off_c, 0, 53, 60
2, 991895, Note_on_c, 0, 57, 84
2, 991897, Note_on_c, 0, 33, 79
2, 991922, Control_c, 0, 64, 98
2, 992009, Note_off_c, 0, 57, 61
2, 992012, Note_on_c, 0, 62, 87
2, 992014, Note_on_c, 0, 41, 78
2, 992075, Note_off_c, 0, 33, 60
2, 992098, Note_off_c, 0, 62, 61
2, 992127, Note_on_c, 0, 40, 75
2, 992141, Note_off_c, 0, 41, 59
2, 992244, Note_off_c, 0, 40, 59
2, 992245, Note_on_c, 0, 50, 72
2, 992247, Note_on_c, 0, 43, 96
2, 992255, Note_on_c, 0, 31, 84
2, 992272, Control_c, 0, 64, 20
2, 992360, Note_off_c, 0, 50, 58
2, 992362, Note_on_c, 0, 53, 73
2, 992460, Note_off_c, 0, 53, 58
2, 992463, Note_on_c, 0, 59, 74
2, 992467, Control_c, 0, 64, 96
2, 992578, Note_off_c, 0, 59, 59
2, 992580, Note_on_c, 0, 62, 75
2, 992694, Note_off_c, 0, 62, 59
2, 992697, Note_on_c, 0, 65, 76
2, 992813, Note_off_c, 0, 65, 59
2, 992815, Note_on_c, 0, 71, 77
2, 992817, Note_off_c, 0, 31, 61
2, 992854, Note_off_c, 0, 43, 63
2, 992929, Note_off_c, 0, 71, 59
2, 992932, Note_on_c, 0, 60, 78
2, 992934, Note_on_c, 0, 48, 72
2, 992936, Note_on_c, 0, 36, 72
2, 993026, Note_off_c, 0, 36, 58
2, 993034, Note_off_c, 0, 48, 58
2, 993046, Note_off_c, 0, 60, 59
2, 993048, Note_on_c, 0, 72, 79
2, 993146, Note_off_c, 0, 72, 60
2, 993150, Note_on_c, 0, 64, 80
2, 993151, Note_on_c, 0, 52, 74
2, 993243, Note_off_c, 0, 52, 59
2, 993264, Note_off_c, 0, 64, 60
2, 993266, Note_on_c, 0, 76, 81
2, 993381, Note_off_c, 0, 76, 60
2, 993383, Note_on_c, 0, 67, 82
2, 993384, Note_on_c, 0, 55, 78
2, 993413, Control_c, 0, 64, 20
2, 993463, Note_off_c, 0, 55, 59
2, 993481, Note_off_c, 0, 67, 60
2, 993483, Note_on_c, 0, 79, 84
2, 993598, Note_off_c, 0, 79, 61
2, 993601, Note_on_c, 0, 72, 72
2, 993603, Note_on_c, 0, 60, 82
2, 993685, Note_off_c, 0, 60, 60
2, 993696, Note_off_c, 0, 72, 58
2, 993698, Note_on_c, 0, 84, 72
2, 993813, Note_off_c, 0, 84, 58
2, 993815, Note_on_c, 0, 76, 78
2, 993817, Note_on_c, 0, 64, 84
2, 993900, Note_off_c, 0, 64, 61
2, 993912, Note_off_c, 0, 76, 59
2, 993915, Note_on_c, 0, 88, 84
2, 993949, Control_c, 0, 64, 88
2, 994030, Note_off_c, 0, 88, 61
2, 994032, Note_on_c, 0, 72, 84
2, 994034, Note_on_c, 0, 60, 82
2, 994122, Note_off_c, 0, 60, 60
2, 994130, Note_off_c, 0, 72, 61
2, 994132, Note_on_c, 0, 84, 80
2, 994247, Note_off_c, 0, 84, 60
2, 994249, Note_on_c, 0, 67, 80
2, 994251, Note_on_c, 0, 55, 78
2, 994331, Note_off_c, 0, 55, 59
2, 994346, Note_off_c, 0, 67, 60
2, 994352, Note_on_c, 0, 79, 78
2, 994425, Control_c, 0, 64, 20
2, 994465, Note_off_c, 0, 79, 59
2, 994467, Note_on_c, 0, 64, 76
2, 994468, Note_on_c, 0, 52, 68
2, 994552, Note_off_c, 0, 52, 57
2, 994564, Note_off_c, 0, 64, 59
2, 994569, Note_on_c, 0, 76, 74
2, 994682, Note_off_c, 0, 76, 59
2, 994684, Note_on_c, 0, 67, 71
2, 994685, Note_on_c, 0, 55, 70
2, 994780, Note_off_c, 0, 55, 57
2, 994796, Control_c, 0, 64, 20
2, 994799, Note_off_c, 0, 67, 58
2, 994802, Note_on_c, 0, 79, 69
2, 994900, Note_off_c, 0, 79, 57
2, 994903, Note_on_c, 0, 64, 60
2, 994905, Note_on_c, 0, 52, 66
2, 995008, Note_off_c, 0, 52, 57
2, 995018, Note_off_c, 0, 64, 55
2, 995020, Note_on_c, 0, 76, 65
2, 995135, Note_off_c, 0, 76, 56
2, 995137, Note_on_c, 0, 48, 60
2, 995138, Note_on_c, 0, 60, 63
2, 995184, Note_off_c, 0, 48, 55
2, 995252, Note_off_c, 0, 60, 55
2, 995254, Note_on_c, 0, 31, 58
2, 995256, Note_on_c, 0, 72, 60
2, 995284, Control_c, 0, 64, 95
2, 995368, Note_off_c, 0, 72, 55
2, 995370, Note_on_c, 0, 40, 63
2, 995390, Note_off_c, 0, 31, 54
2, 995470, Note_on_c, 0, 38, 67
2, 995480, Note_off_c, 0, 40, 55
2, 995586, Note_on_c, 0, 36, 71
2, 995593, Note_off_c, 0, 38, 57
2, 995677, Note_off_c, 0, 36, 58
2, 995700, Note_on_c, 0, 48, 75
2, 995702, Control_c, 0, 64, 20
2, 995817, Note_off_c, 0, 48, 59
2, 995820, Note_on_c, 0, 52, 79
2, 995933, Note_off_c, 0, 52, 60
2, 995936, Note_on_c, 0, 55, 83
2, 995938, Note_on_c, 0, 31, 77
2, 995955, Control_c, 0, 64, 98
2, 996050, Note_off_c, 0, 55, 60
2, 996055, Note_on_c, 0, 60, 87
2, 996057, Note_on_c, 0, 40, 79
2, 996065, Note_off_c, 0, 31, 59
2, 996141, Note_off_c, 0, 60, 61
2, 996152, Note_on_c, 0, 38, 75
2, 996157, Note_off_c, 0, 40, 60
2, 996272, Note_on_c, 0, 36, 71
2, 996274, Note_off_c, 0, 38, 59
2, 996287, Control_c, 0, 64, 20
2, 996358, Note_off_c, 0, 36, 58
2, 996386, Note_on_c, 0, 48, 78
2, 996503, Note_off_c, 0, 48, 59
2, 996505, Note_on_c, 0, 52, 81
2, 996620, Note_off_c, 0, 52, 60
2, 996622, Note_on_c, 0, 55, 84
2, 996624, Note_on_c, 0, 31, 78
2, 996630, Control_c, 0, 64, 98
2, 996736, Note_off_c, 0, 55, 61
2, 996739, Note_on_c, 0, 60, 87
2, 996741, Note_on_c, 0, 40, 83
2, 996750, Note_off_c, 0, 31, 59
2, 996818, Note_off_c, 0, 60, 61
2, 996835, Note_off_c, 0, 40, 60
2, 996836, Note_on_c, 0, 38, 75
2, 996955, Note_on_c, 0, 36, 71
2, 996972, Note_off_c, 0, 38, 59
2, 996998, Control_c, 0, 64, 20
2, 997043, Note_off_c, 0, 36, 58
2, 997071, Note_on_c, 0, 48, 78
2, 997187, Note_off_c, 0, 48, 59
2, 997192, Note_on_c, 0, 52, 81
2, 997304, Note_off_c, 0, 52, 60
2, 997308, Note_on_c, 0, 31, 73
2, 997311, Note_on_c, 0, 55, 84
2, 997340, Control_c, 0, 64, 96
2, 997406, Note_off_c, 0, 55, 61
2, 997409, Note_on_c, 0, 60, 87
2, 997410, Note_on_c, 0, 40, 75
2, 997411, Note_off_c, 0, 31, 58
2, 997498, Note_off_c, 0, 60, 61
2, 997518, Note_off_c, 0, 40, 59
2, 997523, Note_on_c, 0, 38, 73
2, 997640, Note_off_c, 0, 38, 58
2, 997642, Note_on_c, 0, 57, 60
2, 997643, Note_on_c, 0, 50, 62
2, 997661, Control_c, 0, 64, 20
2, 997757, Note_off_c, 0, 50, 55
2, 997759, Note_off_c, 0, 57, 55
2, 997760, Note_on_c, 0, 62, 60
2, 997874, Note_off_c, 0, 62, 55
2, 997876, Note_on_c, 0, 57, 62
2, 997877, Note_on_c, 0, 50, 62
2, 997990, Note_off_c, 0, 50, 55
2, 997992, Note_off_c, 0, 57, 55
2, 997993, Note_on_c, 0, 62, 64
2, 998091, Note_off_c, 0, 62, 56
2, 998093, Note_on_c, 0, 51, 60
2, 998094, Note_on_c, 0, 57, 67
2, 998207, Note_off_c, 0, 51, 55
2, 998209, Note_off_c, 0, 57, 57
2, 998212, Note_on_c, 0, 63, 69
2, 998324, Note_off_c, 0, 63, 57
2, 998326, Note_on_c, 0, 64, 72
2, 998328, Note_on_c, 0, 55, 64
2, 998558, Note_off_c, 0, 55, 56
2, 998560, Note_off_c, 0, 64, 58
2, 998562, Note_on_c, 0, 59, 55
2, 998565, Note_on_c, 0, 62, 60
2, 998566, Note_on_c, 0, 77, 84
2, 998609, Note_off_c, 0, 77, 61
2, 998612, Note_on_c, 0, 79, 84
2, 998675, Note_off_c, 0, 62, 55
2, 998677, Note_off_c, 0, 59, 53
2, 998679, Note_on_c, 0, 77, 76
2, 998681, Note_on_c, 0, 64, 60
2, 998712, Note_off_c, 0, 79, 61
2, 998775, Note_off_c, 0, 64, 55
2, 998779, Note_on_c, 0, 76, 60
2, 998781, Note_on_c, 0, 56, 54
2, 998796, Note_off_c, 0, 77, 59
2, 998891, Note_off_c, 0, 56, 53
2, 998895, Note_on_c, 0, 64, 48
2, 998959, Note_off_c, 0, 76, 55
2, 999009, Note_off_c, 0, 64, 52
2, 999012, Note_on_c, 0, 62, 50
2, 999013, Note_on_c, 0, 59, 48
2, 999013, Note_on_c, 0, 77, 84
2, 999060, Note_off_c, 0, 77, 61
2, 999062, Note_on_c, 0, 79, 84
2, 999128, Note_off_c, 0, 59, 52
2, 999129, Note_off_c, 0, 62, 52
2, 999130, Note_on_c, 0, 77, 76
2, 999132, Note_on_c, 0, 64, 49
2, 999162, Note_off_c, 0, 79, 61
2, 999244, Note_off_c, 0, 64, 52
2, 999247, Note_on_c, 0, 56, 51
2, 999248, Note_on_c, 0, 76, 60
2, 999254, Note_off_c, 0, 77, 59
2, 999359, Note_off_c, 0, 56, 52
2, 999364, Note_on_c, 0, 64, 52
2, 999410, Note_off_c, 0, 76, 55
2, 999462, Note_off_c, 0, 64, 53
2, 999464, Note_on_c, 0, 62, 60
2, 999465, Note_on_c, 0, 59, 54
2, 999466, Note_on_c, 0, 77, 84
2, 999528, Note_off_c, 0, 77, 61
2, 999529, Note_on_c, 0, 79, 84
2, 999579, Note_off_c, 0, 59, 53
2, 999581, Note_off_c, 0, 62, 55
2, 999583, Note_on_c, 0, 77, 76
2, 999584, Note_on_c, 0, 64, 55
2, 999613, Note_off_c, 0, 79, 61
2, 999694, Note_off_c, 0, 64, 53
2, 999698, Note_on_c, 0, 76, 60
2, 999700, Note_on_c, 0, 56, 57
2, 999721, Note_off_c, 0, 77, 59
2, 999812, Note_off_c, 0, 56, 54
2, 999814, Note_on_c, 0, 64, 58
2, 999862, Note_off_c, 0, 76, 55
2, 999929, Note_off_c, 0, 64, 54
2, 999932, Note_on_c, 0, 62, 70
2, 999934, Note_on_c, 0, 59, 60
2, 999935, Note_on_c, 0, 77, 84
2, 999978, Note_off_c, 0, 77, 61
2, 999980, Note_on_c, 0, 79, 84
2, 1000029, Note_off_c, 0, 59, 55
2, 1000031, Note_off_c, 0, 62, 57
2, 1000034, Note_on_c, 0, 77, 76
2, 1000036, Note_on_c, 0, 64, 65
2, 1000064, Note_off_c, 0, 79, 61
2, 1000146, Note_off_c, 0, 64, 56
2, 1000148, Note_on_c, 0, 76, 60
2, 1000150, Note_on_c, 0, 56, 48
2, 1000189, Note_off_c, 0, 77, 59
2, 1000261, Note_off_c, 0, 56, 52
2, 1000262, Note_on_c, 0, 64, 59
2, 1000329, Note_off_c, 0, 76, 55
2, 1000377, Note_off_c, 0, 64, 54
2, 1000382, Note_on_c, 0, 62, 62
2, 1000383, Note_on_c, 0, 77, 84
2, 1000384, Note_on_c, 0, 59, 57
2, 1000429, Note_off_c, 0, 77, 61
2, 1000431, Note_on_c, 0, 79, 84
2, 1000497, Note_off_c, 0, 59, 54
2, 1000501, Note_off_c, 0, 62, 55
2, 1000502, Note_on_c, 0, 64, 55
2, 1000503, Note_on_c, 0, 77, 76
2, 1000532, Note_off_c, 0, 79, 61
2, 1000613, Note_off_c, 0, 64, 53
2, 1000616, Note_on_c, 0, 76, 60
2, 1000617, Note_on_c, 0, 56, 53
2, 1000628, Note_off_c, 0, 77, 59
2, 1000713, Note_off_c, 0, 56, 53
2, 1000716, Note_on_c, 0, 64, 51
2, 1000782, Note_off_c, 0, 76, 55
2, 1000830, Note_off_c, 0, 64, 52
2, 1000833, Note_on_c, 0, 62, 60
2, 1000834, Note_on_c, 0, 59, 49
2, 1000837, Note_on_c, 0, 77, 84
2, 1000898, Note_off_c, 0, 77, 61
2, 1000900, Note_on_c, 0, 79, 84
2, 1000949, Note_off_c, 0, 62, 55
2, 1000951, Note_off_c, 0, 59, 52
2, 1000954, Note_on_c, 0, 64, 48
2, 1000955, Note_on_c, 0, 77, 76
2, 1000984, Note_off_c, 0, 79, 61
2, 1001066, Note_off_c, 0, 64, 52
2, 1001068, Note_on_c, 0, 56, 48
2, 1001070, Note_on_c, 0, 76, 60
2, 1001078, Note_off_c, 0, 77, 59
2, 1001180, Note_off_c, 0, 56, 52
2, 1001183, Note_on_c, 0, 64, 50
2, 1001232, Note_off_c, 0, 76, 55
2, 1001286, Control_c, 0, 64, 98
2, 1001297, Note_off_c, 0, 64, 52
2, 1001299, Note_on_c, 0, 62, 60
2, 1001302, Note_on_c, 0, 77, 96
2, 1001304, Note_on_c, 0, 59, 52
2, 1001397, Note_off_c, 0, 62, 55
2, 1001399, Note_off_c, 0, 59, 53
2, 1001402, Note_on_c, 0, 64, 55
2, 1001514, Note_off_c, 0, 64, 53
2, 1001516, Note_on_c, 0, 56, 57
2, 1001631, Note_off_c, 0, 56, 54
2, 1001633, Note_on_c, 0, 64, 60
2, 1001748, Note_off_c, 0, 64, 55
2, 1001750, Note_on_c, 0, 62, 60
2, 1001752, Note_on_c, 0, 59, 55
2, 1001811, Control_c, 0, 64, 20
2, 1001865, Note_off_c, 0, 59, 53
2, 1001866, Note_off_c, 0, 62, 55
2, 1001869, Note_on_c, 0, 64, 56
2, 1001984, Note_off_c, 0, 64, 54
2, 1001986, Note_off_c, 0, 77, 63
2, 1001987, Note_on_c, 0, 56, 52
2, 1001988, Note_on_c, 0, 76, 72
2, 1002084, Note_off_c, 0, 56, 53
2, 1002086, Note_off_c, 0, 76, 58
2, 1002087, Note_on_c, 0, 64, 48
2, 1002201, Note_off_c, 0, 64, 52
2, 1002203, Note_on_c, 0, 74, 60
2, 1002204, Note_on_c, 0, 59, 44
2, 1002205, Note_on_c, 0, 62, 50
2, 1002317, Note_off_c, 0, 62, 52
2, 1002319, Note_off_c, 0, 74, 55
2, 1002320, Note_off_c, 0, 59, 51
2, 1002322, Note_on_c, 0, 64, 40
2, 1002434, Note_off_c, 0, 64, 50
2, 1002437, Note_on_c, 0, 72, 48
2, 1002438, Note_on_c, 0, 57, 36
2, 1002485, Note_on_c, 0, 74, 48
2, 1002507, Note_off_c, 0, 72, 52
2, 1002551, Note_off_c, 0, 74, 52
2, 1002553, Note_off_c, 0, 57, 49
2, 1002554, Note_on_c, 0, 64, 36
2, 1002555, Note_on_c, 0, 72, 48
2, 1002651, Note_off_c, 0, 64, 49
2, 1002653, Note_off_c, 0, 72, 52
2, 1002656, Note_on_c, 0, 60, 36
2, 1002657, Note_on_c, 0, 71, 48
2, 1002766, Note_off_c, 0, 60, 49
2, 1002771, Note_on_c, 0, 64, 37
2, 1002834, Note_off_c, 0, 71, 52
2, 1002885, Note_off_c, 0, 64, 49
2, 1002888, Note_on_c, 0, 57, 38
2, 1002889, Note_on_c, 0, 69, 51
2, 1003003, Note_off_c, 0, 57, 49
2, 1003004, Note_off_c, 0, 69, 52
2, 1003006, Note_on_c, 0, 64, 39
2, 1003119, Note_off_c, 0, 64, 49
2, 1003122, Note_on_c, 0, 52, 40
2, 1003123, Note_on_c, 0, 68, 54
2, 1003237, Note_off_c, 0, 52, 50
2, 1003237, Note_off_c, 0, 68, 53
2, 1003240, Note_on_c, 0, 62, 41
2, 1003336, Note_off_c, 0, 62, 50
2, 1003339, Note_on_c, 0, 59, 42
2, 1003341, Note_on_c, 0, 69, 57
2, 1003453, Note_off_c, 0, 59, 50
2, 1003455, Note_off_c, 0, 69, 54
2, 1003458, Note_on_c, 0, 62, 43
2, 1003570, Note_off_c, 0, 62, 50
2, 1003572, Note_on_c, 0, 52, 44
2, 1003574, Note_on_c, 0, 71, 60
2, 1003687, Note_off_c, 0, 52, 51
2, 1003689, Note_off_c, 0, 71, 55
2, 1003691, Note_on_c, 0, 62, 45
2, 1003806, Note_off_c, 0, 62, 51
2, 1003808, Note_on_c, 0, 60, 46
2, 1003809, Note_on_c, 0, 69, 48
2, 1003809, Note_on_c, 0, 57, 46
2, 1003919, Note_off_c, 0, 57, 51
2, 1003923, Note_off_c, 0, 60, 51
2, 1003925, Note_on_c, 0, 64, 47
2, 1004021, Note_off_c, 0, 69, 52
2, 1004022, Note_off_c, 0, 64, 51
2, 1004025, Note_on_c, 0, 77, 64
2, 1004027, Note_on_c, 0, 59, 42
2, 1004028, Note_on_c, 0, 62, 48
2, 1004030, Control_c, 0, 64, 98
2, 1004137, Note_off_c, 0, 77, 56
2, 1004139, Note_off_c, 0, 62, 52
2, 1004142, Note_off_c, 0, 59, 50
2, 1004144, Note_on_c, 0, 64, 48
2, 1004145, Note_on_c, 0, 89, 72
2, 1004254, Note_off_c, 0, 89, 58
2, 1004256, Note_off_c, 0, 64, 52
2, 1004259, Note_on_c, 0, 76, 65
2, 1004261, Note_on_c, 0, 56, 49
2, 1004284, Control_c, 0, 64, 20
2, 1004371, Note_off_c, 0, 76, 56
2, 1004373, Note_off_c, 0, 56, 52
2, 1004375, Note_on_c, 0, 88, 75
2, 1004377, Note_on_c, 0, 64, 51
2, 1004487, Note_off_c, 0, 88, 59
2, 1004489, Note_off_c, 0, 64, 52
2, 1004492, Note_on_c, 0, 77, 68
2, 1004494, Note_on_c, 0, 59, 46
2, 1004495, Note_on_c, 0, 62, 52
2, 1004509, Control_c, 0, 64, 98
2, 1004604, Note_off_c, 0, 77, 57
2, 1004606, Note_off_c, 0, 62, 53
2, 1004609, Note_off_c, 0, 59, 51
2, 1004611, Note_on_c, 0, 64, 54
2, 1004613, Note_on_c, 0, 89, 78
2, 1004706, Note_off_c, 0, 64, 53
2, 1004706, Note_off_c, 0, 89, 59
2, 1004709, Note_on_c, 0, 76, 71
2, 1004711, Note_on_c, 0, 56, 55
2, 1004751, Control_c, 0, 64, 20
2, 1004821, Note_off_c, 0, 76, 58
2, 1004823, Note_off_c, 0, 56, 53
2, 1004826, Note_on_c, 0, 64, 57
2, 1004828, Note_on_c, 0, 88, 81
2, 1004938, Note_off_c, 0, 88, 60
2, 1004940, Note_off_c, 0, 64, 54
2, 1004943, Note_on_c, 0, 62, 58
2, 1004945, Note_on_c, 0, 77, 74
2, 1004947, Note_on_c, 0, 59, 52
2, 1004968, Control_c, 0, 64, 98
2, 1005055, Note_off_c, 0, 77, 59
2, 1005057, Note_off_c, 0, 59, 53
2, 1005059, Note_off_c, 0, 62, 54
2, 1005062, Note_on_c, 0, 64, 60
2, 1005063, Note_on_c, 0, 89, 84
2, 1005173, Note_off_c, 0, 89, 61
2, 1005176, Note_off_c, 0, 64, 55
2, 1005178, Note_on_c, 0, 56, 60
2, 1005181, Note_on_c, 0, 76, 76
2, 1005212, Control_c, 0, 64, 20
2, 1005274, Note_off_c, 0, 56, 55
2, 1005276, Note_off_c, 0, 76, 59
2, 1005279, Note_on_c, 0, 64, 59
2, 1005280, Note_on_c, 0, 88, 83
2, 1005391, Note_off_c, 0, 64, 54
2, 1005393, Note_off_c, 0, 88, 60
2, 1005396, Note_on_c, 0, 62, 58
2, 1005397, Note_on_c, 0, 77, 74
2, 1005398, Note_on_c, 0, 59, 52
2, 1005415, Control_c, 0, 64, 98
2, 1005509, Note_off_c, 0, 62, 54
2, 1005510, Note_off_c, 0, 77, 58
2, 1005512, Note_off_c, 0, 59, 53
2, 1005513, Note_on_c, 0, 64, 57
2, 1005514, Note_on_c, 0, 89, 81
2, 1005624, Note_off_c, 0, 64, 54
2, 1005626, Note_off_c, 0, 89, 60
2, 1005629, Note_on_c, 0, 56, 56
2, 1005630, Note_on_c, 0, 76, 72
2, 1005648, Control_c, 0, 64, 20
2, 1005741, Note_off_c, 0, 56, 54
2, 1005743, Note_off_c, 0, 76, 58
2, 1005746, Note_on_c, 0, 64, 55
2, 1005747, Note_on_c, 0, 88, 79
2, 1005858, Note_off_c, 0, 64, 53
2, 1005860, Note_off_c, 0, 88, 60
2, 1005863, Note_on_c, 0, 62, 54
2, 1005864, Note_on_c, 0, 59, 48
2, 1005865, Note_on_c, 0, 77, 70
2, 1005891, Control_c, 0, 64, 98
2, 1005958, Note_off_c, 0, 62, 53
2, 1005960, Note_off_c, 0, 77, 57
2, 1005963, Note_off_c, 0, 59, 52
2, 1005964, Note_on_c, 0, 89, 77
2, 1005965, Note_on_c, 0, 64, 53
2, 1006075, Note_off_c, 0, 64, 53
2, 1006077, Note_off_c, 0, 89, 59
2, 1006080, Note_on_c, 0, 56, 52
2, 1006081, Note_on_c, 0, 76, 68
2, 1006087, Control_c, 0, 64, 20
2, 1006192, Note_off_c, 0, 56, 53
2, 1006194, Note_off_c, 0, 76, 57
2, 1006196, Note_on_c, 0, 64, 51
2, 1006198, Note_on_c, 0, 88, 75
2, 1006308, Note_off_c, 0, 64, 52
2, 1006310, Note_off_c, 0, 88, 59
2, 1006313, Note_on_c, 0, 62, 50
2, 1006315, Note_on_c, 0, 77, 66
2, 1006318, Note_on_c, 0, 59, 44
2, 1006425, Note_off_c, 0, 62, 52
2, 1006427, Note_off_c, 0, 77, 56
2, 1006430, Note_off_c, 0, 59, 51
2, 1006432, Note_on_c, 0, 89, 73
2, 1006434, Note_on_c, 0, 64, 48
2, 1006538, Control_c, 0, 64, 98
2, 1006543, Note_off_c, 0, 64, 52
2, 1006544, Note_off_c, 0, 89, 58
2, 1006547, Note_on_c, 0, 88, 72
2, 1006549, Note_on_c, 0, 76, 64
2, 1006551, Note_on_c, 0, 56, 48
2, 1006644, Note_off_c, 0, 56, 52
2, 1006645, Note_on_c, 0, 64, 54
2, 1006760, Note_off_c, 0, 88, 58
2, 1006761, Note_off_c, 0, 76, 56
2, 1006764, Note_off_c, 0, 64, 53
2, 1006767, Note_on_c, 0, 77, 76
2, 1006768, Note_on_c, 0, 89, 96
2, 1006769, Note_on_c, 0, 59, 54
2, 1006770, Note_on_c, 0, 62, 60
2, 1006792, Control_c, 0, 64, 20
2, 1006879, Note_off_c, 0, 59, 53
2, 1006879, Note_off_c, 0, 62, 55
2, 1006881, Note_on_c, 0, 64, 60
2, 1006967, Control_c, 0, 64, 96
2, 1006993, Note_off_c, 0, 64, 55
2, 1006997, Note_on_c, 0, 56, 56
2, 1007112, Note_off_c, 0, 56, 54
2, 1007114, Note_on_c, 0, 64, 52
2, 1007228, Note_off_c, 0, 64, 53
2, 1007231, Note_on_c, 0, 62, 48
2, 1007233, Note_on_c, 0, 59, 42
2, 1007329, Note_off_c, 0, 62, 52
2, 1007331, Note_off_c, 0, 59, 50
2, 1007333, Note_on_c, 0, 64, 48
2, 1007446, Note_off_c, 0, 64, 52
2, 1007448, Note_off_c, 0, 89, 63
2, 1007450, Note_off_c, 0, 77, 59
2, 1007451, Note_on_c, 0, 56, 46
2, 1007453, Note_on_c, 0, 76, 72
2, 1007454, Note_on_c, 0, 88, 72
2, 1007455, Control_c, 0, 64, 20
2, 1007562, Note_off_c, 0, 56, 51
2, 1007564, Note_off_c, 0, 76, 58
2, 1007567, Note_off_c, 0, 88, 58
2, 1007568, Note_on_c, 0, 64, 44
2, 1007679, Note_off_c, 0, 64, 51
2, 1007682, Note_on_c, 0, 74, 60
2, 1007684, Note_on_c, 0, 62, 41
2, 1007685, Note_on_c, 0, 86, 60
2, 1007686, Note_on_c, 0, 59, 35
2, 1007796, Note_off_c, 0, 62, 50
2, 1007799, Note_off_c, 0, 74, 55
2, 1007801, Note_off_c, 0, 59, 48
2, 1007802, Note_off_c, 0, 86, 55
2, 1007803, Note_on_c, 0, 64, 39
2, 1007894, Note_off_c, 0, 64, 49
2, 1007897, Note_on_c, 0, 72, 48
2, 1007899, Note_on_c, 0, 84, 48
2, 1007901, Note_on_c, 0, 57, 36
2, 1008014, Note_off_c, 0, 84, 52
2, 1008015, Note_off_c, 0, 57, 49
2, 1008016, Note_off_c, 0, 72, 52
2, 1008018, Note_on_c, 0, 64, 36
2, 1008129, Note_off_c, 0, 64, 49
2, 1008133, Note_on_c, 0, 71, 45
2, 1008134, Note_on_c, 0, 83, 45
2, 1008135, Note_on_c, 0, 60, 36
2, 1008245, Note_off_c, 0, 83, 51
2, 1008247, Note_off_c, 0, 60, 49
2, 1008250, Note_off_c, 0, 71, 51
2, 1008252, Note_on_c, 0, 64, 36
2, 1008364, Note_off_c, 0, 64, 49
2, 1008366, Note_on_c, 0, 69, 42
2, 1008369, Note_on_c, 0, 81, 42
2, 1008370, Note_on_c, 0, 57, 36
2, 1008481, Note_off_c, 0, 81, 50
2, 1008483, Note_off_c, 0, 57, 49
2, 1008485, Note_off_c, 0, 69, 50
2, 1008486, Note_on_c, 0, 64, 37
2, 1008581, Note_off_c, 0, 64, 49
2, 1008583, Note_on_c, 0, 52, 37
2, 1008585, Note_on_c, 0, 68, 42
2, 1008588, Note_on_c, 0, 80, 42
2, 1008698, Note_off_c, 0, 80, 50
2, 1008700, Note_off_c, 0, 52, 48
2, 1008702, Note_off_c, 0, 68, 50
2, 1008705, Note_on_c, 0, 62, 37
2, 1008815, Note_off_c, 0, 62, 49
2, 1008817, Note_on_c, 0, 59, 38
2, 1008819, Note_on_c, 0, 69, 45
2, 1008822, Note_on_c, 0, 81, 45
2, 1008932, Note_off_c, 0, 81, 51
2, 1008933, Note_off_c, 0, 59, 49
2, 1008936, Note_off_c, 0, 69, 51
2, 1008938, Note_on_c, 0, 62, 38
2, 1009048, Note_off_c, 0, 62, 49
2, 1009050, Note_on_c, 0, 71, 48
2, 1009052, Note_on_c, 0, 83, 48
2, 1009055, Note_on_c, 0, 52, 38
2, 1009165, Note_off_c, 0, 83, 52
2, 1009167, Note_off_c, 0, 52, 49
2, 1009169, Note_off_c, 0, 71, 52
2, 1009172, Note_on_c, 0, 62, 39
2, 1009266, Note_off_c, 0, 62, 49
2, 1009267, Note_on_c, 0, 81, 60
2, 1009269, Note_on_c, 0, 53, 39
2, 1009272, Note_on_c, 0, 69, 48
2, 1009382, Note_off_c, 0, 53, 49
2, 1009385, Note_on_c, 0, 60, 39
2, 1009497, Control_c, 0, 64, 98
2, 1009499, Note_off_c, 0, 69, 52
2, 1009501, Note_off_c, 0, 81, 55
2, 1009503, Note_off_c, 0, 60, 49
2, 1009506, Note_on_c, 0, 57, 40
2, 1009507, Note_on_c, 0, 89, 61
2, 1009508, Note_on_c, 0, 77, 49
2, 1009616, Note_off_c, 0, 57, 50
2, 1009618, Note_on_c, 0, 60, 40
2, 1009668, Note_off_c, 0, 77, 52
2, 1009670, Note_off_c, 0, 89, 55
2, 1009732, Note_off_c, 0, 60, 50
2, 1009735, Note_on_c, 0, 89, 63
2, 1009737, Note_on_c, 0, 53, 40
2, 1009739, Note_on_c, 0, 77, 51
2, 1009850, Note_off_c, 0, 77, 52
2, 1009851, Note_off_c, 0, 89, 55
2, 1009853, Note_off_c, 0, 53, 50
2, 1009856, Note_on_c, 0, 60, 41
2, 1009907, Control_c, 0, 64, 20
2, 1009952, Note_off_c, 0, 60, 50
2, 1009954, Note_on_c, 0, 89, 65
2, 1009956, Note_on_c, 0, 50, 41
2, 1009957, Note_on_c, 0, 77, 53
2, 1010068, Note_off_c, 0, 77, 53
2, 1010070, Note_off_c, 0, 89, 56
2, 1010073, Note_off_c, 0, 50, 50
2, 1010074, Note_on_c, 0, 58, 41
2, 1010185, Note_off_c, 0, 58, 50
2, 1010187, Note_on_c, 0, 88, 67
2, 1010190, Note_on_c, 0, 53, 42
2, 1010191, Note_on_c, 0, 76, 55
2, 1010302, Note_off_c, 0, 76, 53
2, 1010304, Note_off_c, 0, 88, 57
2, 1010306, Note_off_c, 0, 53, 50
2, 1010307, Note_on_c, 0, 58, 42
2, 1010418, Note_off_c, 0, 58, 50
2, 1010421, Note_on_c, 0, 86, 69
2, 1010423, Note_on_c, 0, 50, 42
2, 1010424, Note_on_c, 0, 74, 57
2, 1010519, Note_off_c, 0, 74, 54
2, 1010521, Note_off_c, 0, 86, 57
2, 1010523, Note_off_c, 0, 50, 50
2, 1010524, Note_on_c, 0, 58, 43
2, 1010636, Note_off_c, 0, 58, 50
2, 1010638, Note_on_c, 0, 84, 71
2, 1010640, Note_on_c, 0, 52, 43
2, 1010642, Note_on_c, 0, 72, 59
2, 1010752, Note_off_c, 0, 72, 54
2, 1010754, Note_off_c, 0, 84, 58
2, 1010757, Note_off_c, 0, 52, 50
2, 1010760, Note_on_c, 0, 60, 43
2, 1010870, Note_off_c, 0, 60, 50
2, 1010872, Note_on_c, 0, 83, 73
2, 1010874, Note_on_c, 0, 57, 44
2, 1010876, Note_on_c, 0, 71, 61
2, 1010986, Note_off_c, 0, 57, 51
2, 1010988, Note_off_c, 0, 71, 55
2, 1010990, Note_off_c, 0, 83, 58
2, 1010993, Note_on_c, 0, 60, 44
2, 1011104, Note_off_c, 0, 60, 51
2, 1011106, Note_on_c, 0, 69, 63
2, 1011107, Note_on_c, 0, 52, 44
2, 1011108, Note_on_c, 0, 81, 75
2, 1011204, Note_off_c, 0, 52, 51
2, 1011205, Note_off_c, 0, 69, 55
2, 1011208, Note_off_c, 0, 81, 59
2, 1011209, Note_on_c, 0, 60, 45
2, 1011320, Note_off_c, 0, 60, 51
2, 1011323, Note_on_c, 0, 80, 77
2, 1011324, Note_on_c, 0, 50, 45
2, 1011325, Note_on_c, 0, 68, 65
2, 1011437, Note_off_c, 0, 50, 51
2, 1011439, Note_off_c, 0, 68, 56
2, 1011442, Note_off_c, 0, 80, 59
2, 1011442, Note_on_c, 0, 59, 45
2, 1011554, Note_off_c, 0, 59, 51
2, 1011558, Note_on_c, 0, 69, 67
2, 1011560, Note_on_c, 0, 52, 46
2, 1011561, Note_on_c, 0, 81, 79
2, 1011672, Note_off_c, 0, 52, 51
2, 1011674, Note_off_c, 0, 69, 57
2, 1011677, Note_off_c, 0, 81, 60
2, 1011678, Note_on_c, 0, 59, 46
2, 1011789, Note_off_c, 0, 59, 51
2, 1011792, Note_on_c, 0, 71, 69
2, 1011794, Note_on_c, 0, 50, 46
2, 1011795, Note_on_c, 0, 83, 81
2, 1011888, Note_off_c, 0, 83, 60
2, 1011889, Note_off_c, 0, 50, 51
2, 1011892, Note_off_c, 0, 71, 57
2, 1011894, Note_on_c, 0, 59, 47
2, 1012004, Note_off_c, 0, 59, 51
2, 1012007, Note_on_c, 0, 69, 71
2, 1012009, Note_on_c, 0, 81, 83
2, 1012011, Note_on_c, 0, 48, 47
2, 1012021, Control_c, 0, 64, 98
2, 1012121, Note_off_c, 0, 48, 51
2, 1012124, Note_on_c, 0, 57, 47
2, 1012238, Note_off_c, 0, 81, 60
2, 1012240, Note_off_c, 0, 57, 51
2, 1012243, Note_off_c, 0, 69, 58
2, 1012245, Note_on_c, 0, 77, 72
2, 1012246, Note_on_c, 0, 47, 48
2, 1012247, Note_on_c, 0, 89, 84
2, 1012355, Note_off_c, 0, 47, 52
2, 1012357, Note_on_c, 0, 57, 48
2, 1012408, Note_off_c, 0, 77, 58
2, 1012409, Note_off_c, 0, 89, 61
2, 1012472, Note_off_c, 0, 57, 52
2, 1012477, Note_on_c, 0, 77, 72
2, 1012479, Note_on_c, 0, 89, 84
2, 1012479, Note_on_c, 0, 48, 52
2, 1012527, Control_c, 0, 64, 20
2, 1012574, Note_off_c, 0, 89, 61
2, 1012576, Note_off_c, 0, 48, 53
2, 1012578, Note_off_c, 0, 77, 58
2, 1012579, Note_on_c, 0, 57, 56
2, 1012689, Note_off_c, 0, 57, 54
2, 1012692, Note_on_c, 0, 77, 84
2, 1012694, Note_on_c, 0, 89, 96
2, 1012696, Note_on_c, 0, 50, 60
2, 1012808, Note_off_c, 0, 89, 63
2, 1012810, Note_off_c, 0, 50, 55
2, 1012811, Note_off_c, 0, 77, 61
2, 1012813, Note_on_c, 0, 57, 60
2, 1012815, Note_on_c, 0, 59, 60
2, 1012925, Note_off_c, 0, 59, 55
2, 1012927, Note_off_c, 0, 57, 55
2, 1012928, Note_on_c, 0, 88, 96
2, 1012929, Note_on_c, 0, 48, 57
2, 1012932, Note_on_c, 0, 76, 84
2, 1013042, Note_off_c, 0, 88, 63
2, 1013044, Note_off_c, 0, 48, 54
2, 1013045, Note_off_c, 0, 76, 61
2, 1013046, Note_on_c, 0, 57, 54
2, 1013048, Note_on_c, 0, 59, 54
2, 1013142, Note_off_c, 0, 57, 53
2, 1013144, Note_off_c, 0, 59, 53
2, 1013145, Note_on_c, 0, 74, 72
2, 1013146, Note_on_c, 0, 86, 84
2, 1013149, Note_on_c, 0, 50, 51
2, 1013259, Note_off_c, 0, 74, 58
2, 1013261, Note_off_c, 0, 86, 61
2, 1013262, Note_off_c, 0, 50, 52
2, 1013263, Note_on_c, 0, 59, 48
2, 1013265, Note_on_c, 0, 57, 48
2, 1013375, Note_off_c, 0, 57, 52
2, 1013377, Note_off_c, 0, 59, 52
2, 1013378, Note_on_c, 0, 72, 84
2, 1013380, Note_on_c, 0, 84, 96
2, 1013382, Note_on_c, 0, 52, 60
2, 1013492, Note_off_c, 0, 84, 63
2, 1013494, Note_off_c, 0, 52, 55
2, 1013496, Note_off_c, 0, 72, 61
2, 1013499, Note_on_c, 0, 57, 60
2, 1013500, Note_on_c, 0, 60, 60
2, 1013609, Note_off_c, 0, 57, 55
2, 1013611, Note_off_c, 0, 60, 55
2, 1013614, Note_on_c, 0, 71, 84
2, 1013615, Note_on_c, 0, 83, 96
2, 1013616, Note_on_c, 0, 51, 56
2, 1013725, Note_off_c, 0, 71, 61
2, 1013728, Note_off_c, 0, 83, 63
2, 1013730, Note_off_c, 0, 51, 54
2, 1013733, Note_on_c, 0, 60, 52
2, 1013734, Note_on_c, 0, 57, 52
2, 1013827, Note_off_c, 0, 57, 53
2, 1013828, Note_off_c, 0, 60, 53
2, 1013831, Note_on_c, 0, 69, 72
2, 1013833, Note_on_c, 0, 52, 48
2, 1013834, Note_on_c, 0, 81, 84
2, 1013943, Note_off_c, 0, 69, 58
2, 1013944, Note_off_c, 0, 81, 61
2, 1013947, Note_off_c, 0, 52, 52
2, 1013950, Note_on_c, 0, 57, 48
2, 1013951, Note_on_c, 0, 60, 48
2, 1014060, Note_off_c, 0, 57, 52
2, 1014061, Note_off_c, 0, 60, 52
2, 1014064, Note_on_c, 0, 80, 72
2, 1014066, Note_on_c, 0, 52, 50
2, 1014067, Note_on_c, 0, 68, 66
2, 1014177, Note_off_c, 0, 80, 58
2, 1014178, Note_off_c, 0, 68, 56
2, 1014181, Note_off_c, 0, 52, 52
2, 1014183, Note_on_c, 0, 59, 52
2, 1014184, Note_on_c, 0, 62, 52
2, 1014293, Note_off_c, 0, 59, 53
2, 1014295, Note_off_c, 0, 62, 53
2, 1014298, Note_on_c, 0, 81, 80
2, 1014300, Note_on_c, 0, 52, 55
2, 1014301, Note_on_c, 0, 69, 74
2, 1014410, Note_off_c, 0, 81, 60
2, 1014412, Note_off_c, 0, 69, 59
2, 1014414, Note_off_c, 0, 52, 53
2, 1014417, Note_on_c, 0, 57, 57
2, 1014418, Note_on_c, 0, 60, 57
2, 1014513, Note_off_c, 0, 57, 54
2, 1014515, Note_off_c, 0, 60, 54
2, 1014516, Note_on_c, 0, 52, 60
2, 1014517, Note_on_c, 0, 83, 84
2, 1014518, Note_on_c, 0, 71, 78
2, 1014629, Note_off_c, 0, 83, 61
2, 1014631, Note_off_c, 0, 71, 59
2, 1014632, Note_off_c, 0, 52, 55
2, 1014633, Note_on_c, 0, 56, 48
2, 1014634, Note_on_c, 0, 59, 48
2, 1014746, Note_off_c, 0, 56, 52
2, 1014748, Note_off_c, 0, 59, 52
2, 1014751, Note_on_c, 0, 81, 48
2, 1014752, Note_on_c, 0, 45, 36
2, 1014753, Note_on_c, 0, 69, 42
2, 1014863, Note_off_c, 0, 45, 49
2, 1014865, Note_on_c, 0, 60, 36
2, 1014979, Note_off_c, 0, 81, 52
2, 1014981, Note_off_c, 0, 69, 50
2, 1014984, Note_off_c, 0, 60, 49
2, 1014985, Note_on_c, 0, 57, 36
2, 1015096, Note_off_c, 0, 57, 49
2, 1015098, Note_on_c, 0, 60, 37
2, 1015196, Note_off_c, 0, 60, 49
2, 1015199, Note_on_c, 0, 69, 49
2, 1015201, Note_on_c, 0, 52, 38
2, 1015216, Control_c, 0, 64, 98
2, 1015313, Note_off_c, 0, 52, 49
2, 1015316, Note_on_c, 0, 81, 50
2, 1015318, Note_on_c, 0, 60, 39
2, 1015332, Note_off_c, 0, 69, 52
2, 1015430, Note_off_c, 0, 60, 49
2, 1015433, Note_on_c, 0, 72, 52
2, 1015434, Note_on_c, 0, 45, 40
2, 1015446, Note_off_c, 0, 81, 52
2, 1015508, Note_off_c, 0, 72, 53
2, 1015546, Note_off_c, 0, 45, 50
2, 1015549, Note_on_c, 0, 60, 41
2, 1015579, Control_c, 0, 64, 20
2, 1015664, Note_off_c, 0, 60, 50
2, 1015668, Note_on_c, 0, 57, 42
2, 1015764, Note_off_c, 0, 57, 50
2, 1015766, Note_on_c, 0, 60, 43
2, 1015879, Note_off_c, 0, 60, 50
2, 1015884, Note_on_c, 0, 72, 57
2, 1015885, Note_on_c, 0, 52, 44
2, 1015888, Control_c, 0, 64, 98
2, 1015999, Note_off_c, 0, 52, 51
2, 1016003, Note_on_c, 0, 84, 58
2, 1016004, Note_on_c, 0, 60, 45
2, 1016019, Note_off_c, 0, 72, 54
2, 1016089, Note_off_c, 0, 84, 54
2, 1016114, Note_off_c, 0, 60, 51
2, 1016117, Note_on_c, 0, 76, 60
2, 1016119, Note_on_c, 0, 45, 46
2, 1016197, Note_off_c, 0, 76, 55
2, 1016230, Control_c, 0, 64, 20
2, 1016232, Note_off_c, 0, 45, 51
2, 1016234, Note_on_c, 0, 60, 47
2, 1016348, Note_off_c, 0, 60, 51
2, 1016351, Note_on_c, 0, 57, 48
2, 1016449, Note_off_c, 0, 57, 52
2, 1016451, Note_on_c, 0, 60, 48
2, 1016565, Note_off_c, 0, 60, 52
2, 1016568, Note_on_c, 0, 76, 59
2, 1016570, Note_on_c, 0, 52, 47
2, 1016573, Control_c, 0, 64, 98
2, 1016686, Note_off_c, 0, 52, 51
2, 1016687, Note_on_c, 0, 88, 57
2, 1016689, Note_on_c, 0, 60, 45
2, 1016722, Note_off_c, 0, 76, 54
2, 1016789, Note_off_c, 0, 88, 54
2, 1016799, Note_off_c, 0, 60, 51
2, 1016801, Note_on_c, 0, 72, 56
2, 1016803, Note_on_c, 0, 45, 43
2, 1016886, Note_off_c, 0, 72, 54
2, 1016916, Note_off_c, 0, 45, 50
2, 1016918, Note_on_c, 0, 60, 42
2, 1016923, Control_c, 0, 64, 20
2, 1017033, Note_off_c, 0, 60, 50
2, 1017035, Note_on_c, 0, 57, 40
2, 1017133, Note_off_c, 0, 57, 50
2, 1017135, Note_on_c, 0, 60, 38
2, 1017243, Control_c, 0, 64, 98
2, 1017252, Note_off_c, 0, 60, 49
2, 1017254, Note_on_c, 0, 72, 50
2, 1017255, Note_on_c, 0, 52, 36
2, 1017369, Note_off_c, 0, 72, 52
2, 1017371, Note_off_c, 0, 52, 49
2, 1017372, Note_on_c, 0, 84, 48
2, 1017373, Note_on_c, 0, 60, 36
2, 1017479, Note_off_c, 0, 84, 52
2, 1017483, Note_off_c, 0, 60, 49
2, 1017486, Note_on_c, 0, 45, 36
2, 1017488, Note_on_c, 0, 69, 48
2, 1017555, Control_c, 0, 64, 20
2, 1017602, Note_off_c, 0, 45, 49
2, 1017604, Note_on_c, 0, 60, 38
2, 1017719, Note_off_c, 0, 60, 49
2, 1017721, Note_on_c, 0, 81, 67
2, 1017722, Note_on_c, 0, 57, 40
2, 1017818, Note_off_c, 0, 57, 50
2, 1017820, Note_on_c, 0, 60, 43
2, 1017934, Note_off_c, 0, 60, 50
2, 1017938, Note_on_c, 0, 52, 45
2, 1018053, Note_off_c, 0, 52, 51
2, 1018055, Note_on_c, 0, 60, 48
2, 1018169, Note_off_c, 0, 60, 52
2, 1018172, Note_on_c, 0, 40, 50
2, 1018286, Note_off_c, 0, 40, 52
2, 1018288, Note_on_c, 0, 62, 52
2, 1018387, Note_off_c, 0, 69, 52
2, 1018388, Note_off_c, 0, 62, 53
2, 1018391, Note_on_c, 0, 83, 76
2, 1018394, Note_on_c, 0, 59, 55
2, 1018395, Note_on_c, 0, 71, 64
2, 1018424, Note_off_c, 0, 81, 57
2, 1018503, Note_off_c, 0, 59, 53
2, 1018505, Note_on_c, 0, 62, 57
2, 1018572, Note_off_c, 0, 83, 59
2, 1018573, Note_off_c, 0, 71, 56
2, 1018620, Note_off_c, 0, 62, 54
2, 1018622, Note_on_c, 0, 80, 84
2, 1018625, Note_on_c, 0, 52, 60
2, 1018626, Note_on_c, 0, 68, 72
2, 1018737, Note_off_c, 0, 68, 58
2, 1018739, Note_off_c, 0, 80, 61
2, 1018742, Note_off_c, 0, 52, 55
2, 1018744, Note_on_c, 0, 62, 60
2, 1018854, Note_off_c, 0, 62, 55
2, 1018856, Note_on_c, 0, 81, 60
2, 1018858, Note_on_c, 0, 45, 36
2, 1018860, Note_on_c, 0, 69, 48
2, 1018973, Note_off_c, 0, 45, 49
2, 1018975, Note_on_c, 0, 60, 48
2, 1019073, Note_off_c, 0, 60, 52
2, 1019075, Note_off_c, 0, 69, 52
2, 1019076, Note_off_c, 0, 81, 55
2, 1019077, Note_on_c, 0, 57, 42
2, 1019190, Note_off_c, 0, 57, 50
2, 1019192, Note_on_c, 0, 60, 36
2, 1019193, Note_on_c, 0, 69, 48
2, 1019281, Control_c, 0, 64, 98
2, 1019306, Note_off_c, 0, 60, 49
2, 1019309, Note_off_c, 0, 69, 52
2, 1019311, Note_on_c, 0, 52, 36
2, 1019312, Note_on_c, 0, 81, 48
2, 1019423, Note_off_c, 0, 52, 49
2, 1019425, Note_off_c, 0, 81, 52
2, 1019428, Note_on_c, 0, 60, 37
2, 1019429, Note_on_c, 0, 69, 49
2, 1019505, Note_off_c, 0, 69, 52
2, 1019540, Note_off_c, 0, 60, 49
2, 1019543, Note_on_c, 0, 45, 38
2, 1019544, Note_on_c, 0, 72, 50
2, 1019596, Note_off_c, 0, 72, 52
2, 1019641, Control_c, 0, 64, 20
2, 1019657, Note_off_c, 0, 45, 49
2, 1019659, Note_on_c, 0, 60, 40
2, 1019755, Note_off_c, 0, 60, 50
2, 1019758, Note_on_c, 0, 57, 41
2, 1019872, Note_off_c, 0, 57, 50
2, 1019875, Note_on_c, 0, 60, 42
2, 1019877, Note_on_c, 0, 72, 54
2, 1019954, Control_c, 0, 64, 98
2, 1019989, Note_off_c, 0, 72, 53
2, 1019991, Note_off_c, 0, 60, 50
2, 1019994, Note_on_c, 0, 84, 55
2, 1019995, Note_on_c, 0, 52, 44
2, 1020106, Note_off_c, 0, 84, 53
2, 1020107, Note_off_c, 0, 52, 51
2, 1020111, Note_on_c, 0, 72, 56
2, 1020112, Note_on_c, 0, 60, 45
2, 1020224, Note_off_c, 0, 72, 54
2, 1020224, Note_off_c, 0, 60, 51
2, 1020227, Note_on_c, 0, 76, 57
2, 1020228, Note_on_c, 0, 45, 46
2, 1020281, Note_off_c, 0, 76, 54
2, 1020293, Control_c, 0, 64, 20
2, 1020343, Note_off_c, 0, 45, 51
2, 1020345, Note_on_c, 0, 60, 48
2, 1020441, Note_off_c, 0, 60, 52
2, 1020444, Note_on_c, 0, 57, 48
2, 1020559, Note_off_c, 0, 57, 52
2, 1020561, Note_on_c, 0, 60, 47
2, 1020563, Note_on_c, 0, 76, 60
2, 1020636, Control_c, 0, 64, 98
2, 1020676, Note_off_c, 0, 76, 55
2, 1020678, Note_off_c, 0, 60, 51
2, 1020680, Note_on_c, 0, 88, 60
2, 1020681, Note_on_c, 0, 52, 46
2, 1020792, Note_off_c, 0, 88, 55
2, 1020795, Note_off_c, 0, 52, 51
2, 1020797, Note_on_c, 0, 76, 59
2, 1020798, Note_on_c, 0, 60, 44
2, 1020909, Note_off_c, 0, 76, 54
2, 1020911, Note_off_c, 0, 60, 51
2, 1020914, Note_on_c, 0, 72, 57
2, 1020915, Note_on_c, 0, 45, 43
2, 1020965, Note_off_c, 0, 72, 54
2, 1020986, Control_c, 0, 64, 20
2, 1021012, Note_off_c, 0, 45, 50
2, 1021014, Note_on_c, 0, 60, 42
2, 1021126, Note_off_c, 0, 60, 50
2, 1021128, Note_on_c, 0, 57, 40
2, 1021243, Note_off_c, 0, 57, 50
2, 1021245, Note_on_c, 0, 60, 39
2, 1021247, Note_on_c, 0, 72, 52
2, 1021309, Control_c, 0, 64, 98
2, 1021359, Note_off_c, 0, 72, 53
2, 1021362, Note_off_c, 0, 60, 49
2, 1021365, Note_on_c, 0, 52, 38
2, 1021366, Note_on_c, 0, 88, 50
2, 1021476, Note_off_c, 0, 88, 52
2, 1021478, Note_off_c, 0, 52, 49
2, 1021481, Note_on_c, 0, 72, 48
2, 1021483, Note_on_c, 0, 60, 36
2, 1021562, Note_off_c, 0, 72, 52
2, 1021595, Note_off_c, 0, 60, 49
2, 1021598, Note_on_c, 0, 45, 33
2, 1021600, Note_on_c, 0, 69, 45
2, 1021618, Control_c, 0, 64, 20
2, 1021694, Note_off_c, 0, 45, 48
2, 1021696, Note_on_c, 0, 60, 38
2, 1021811, Note_off_c, 0, 60, 49
2, 1021813, Note_on_c, 0, 81, 67
2, 1021815, Note_on_c, 0, 57, 40
2, 1021928, Note_off_c, 0, 57, 50
2, 1021930, Note_on_c, 0, 60, 43
2, 1022045, Note_off_c, 0, 60, 50
2, 1022047, Note_on_c, 0, 52, 45
2, 1022161, Note_off_c, 0, 52, 51
2, 1022165, Note_on_c, 0, 60, 48
2, 1022280, Note_off_c, 0, 60, 52
2, 1022282, Note_on_c, 0, 40, 50
2, 1022380, Note_off_c, 0, 40, 52
2, 1022381, Note_on_c, 0, 62, 52
2, 1022497, Note_off_c, 0, 81, 57
2, 1022499, Note_off_c, 0, 69, 51
2, 1022500, Note_off_c, 0, 62, 53
2, 1022502, Note_on_c, 0, 71, 60
2, 1022503, Note_on_c, 0, 83, 76
2, 1022504, Note_on_c, 0, 59, 55
2, 1022614, Note_off_c, 0, 59, 53
2, 1022616, Note_on_c, 0, 62, 57
2, 1022663, Note_off_c, 0, 83, 59
2, 1022665, Note_off_c, 0, 71, 55
2, 1022730, Note_off_c, 0, 62, 54
2, 1022733, Note_on_c, 0, 80, 84
2, 1022735, Note_on_c, 0, 52, 60
2, 1022736, Note_on_c, 0, 68, 84
2, 1022847, Note_off_c, 0, 68, 61
2, 1022849, Note_off_c, 0, 80, 61
2, 1022851, Note_off_c, 0, 52, 55
2, 1022852, Note_on_c, 0, 62, 60
2, 1022964, Note_off_c, 0, 62, 55
2, 1022966, Note_on_c, 0, 81, 48
2, 1022968, Note_on_c, 0, 45, 36
2, 1022969, Note_on_c, 0, 69, 48
2, 1023066, Note_off_c, 0, 45, 49
2, 1023067, Note_on_c, 0, 57, 36
2, 1023181, Note_off_c, 0, 69, 52
2, 1023183, Note_off_c, 0, 81, 52
2, 1023185, Note_off_c, 0, 57, 49
2, 1023188, Note_on_c, 0, 56, 40
2, 1023189, Note_on_c, 0, 71, 47
2, 1023190, Note_on_c, 0, 83, 55
2, 1023298, Note_off_c, 0, 56, 50
2, 1023301, Note_on_c, 0, 57, 45
2, 1023417, Note_off_c, 0, 71, 51
2, 1023418, Note_off_c, 0, 83, 53
2, 1023419, Note_off_c, 0, 57, 51
2, 1023422, Note_on_c, 0, 55, 50
2, 1023423, Note_on_c, 0, 73, 62
2, 1023424, Note_on_c, 0, 85, 69
2, 1023533, Note_off_c, 0, 55, 52
2, 1023536, Note_on_c, 0, 57, 55
2, 1023634, Note_off_c, 0, 57, 53
2, 1023636, Note_off_c, 0, 73, 55
2, 1023637, Note_on_c, 0, 74, 70
2, 1023639, Note_off_c, 0, 85, 57
2, 1023640, Note_on_c, 0, 53, 60
2, 1023641, Note_on_c, 0, 86, 84
2, 1023750, Note_off_c, 0, 53, 55
2, 1023753, Note_on_c, 0, 57, 60
2, 1023867, Note_off_c, 0, 57, 55
2, 1023868, Note_off_c, 0, 74, 57
2, 1023869, Note_off_c, 0, 86, 61
2, 1023872, Note_on_c, 0, 72, 66
2, 1023874, Note_on_c, 0, 52, 56
2, 1023875, Note_on_c, 0, 84, 77
2, 1023984, Note_off_c, 0, 52, 54
2, 1023986, Note_on_c, 0, 57, 51
2, 1024101, Note_off_c, 0, 57, 52
2, 1024103, Note_off_c, 0, 72, 56
2, 1024105, Note_off_c, 0, 84, 59
2, 1024106, Note_on_c, 0, 51, 46
2, 1024108, Note_on_c, 0, 83, 63
2, 1024113, Note_on_c, 0, 71, 51
2, 1024218, Note_off_c, 0, 51, 51
2, 1024221, Note_on_c, 0, 57, 41
2, 1024251, Note_off_c, 0, 71, 52
2, 1024266, Note_off_c, 0, 83, 55
2, 1024316, Note_off_c, 0, 57, 50
2, 1024319, Note_on_c, 0, 84, 48
2, 1024321, Note_on_c, 0, 52, 36
2, 1024327, Note_on_c, 0, 72, 36
2, 1024433, Note_off_c, 0, 52, 49
2, 1024435, Note_on_c, 0, 57, 36
2, 1024508, Note_off_c, 0, 72, 49
2, 1024549, Note_off_c, 0, 84, 52
2, 1024552, Note_off_c, 0, 57, 49
2, 1024555, Note_on_c, 0, 80, 54
2, 1024557, Note_on_c, 0, 59, 39
2, 1024563, Note_on_c, 0, 68, 42
2, 1024667, Note_off_c, 0, 59, 49
2, 1024669, Note_on_c, 0, 52, 42
2, 1024731, Note_off_c, 0, 68, 50
2, 1024783, Note_off_c, 0, 80, 53
2, 1024786, Note_off_c, 0, 52, 50
2, 1024789, Note_on_c, 0, 81, 60
2, 1024791, Note_on_c, 0, 60, 45
2, 1024797, Note_on_c, 0, 69, 48
2, 1024903, Note_off_c, 0, 60, 51
2, 1024904, Note_on_c, 0, 52, 48
2, 1024937, Note_off_c, 0, 69, 52
2, 1024951, Note_off_c, 0, 81, 55
2, 1025000, Note_off_c, 0, 52, 52
2, 1025005, Note_on_c, 0, 83, 60
2, 1025007, Note_on_c, 0, 62, 48
2, 1025014, Note_on_c, 0, 71, 48
2, 1025119, Note_off_c, 0, 62, 52
2, 1025122, Note_on_c, 0, 52, 46
2, 1025201, Note_off_c, 0, 71, 52
2, 1025234, Note_off_c, 0, 83, 55
2, 1025236, Note_off_c, 0, 52, 51
2, 1025239, Note_on_c, 0, 78, 54
2, 1025241, Note_on_c, 0, 60, 44
2, 1025250, Note_on_c, 0, 66, 42
2, 1025353, Note_off_c, 0, 60, 51
2, 1025355, Note_on_c, 0, 52, 41
2, 1025423, Note_off_c, 0, 66, 50
2, 1025467, Note_off_c, 0, 78, 53
2, 1025472, Note_off_c, 0, 52, 50
2, 1025475, Note_on_c, 0, 80, 48
2, 1025476, Note_on_c, 0, 59, 39
2, 1025483, Note_on_c, 0, 68, 36
2, 1025571, Note_off_c, 0, 59, 49
2, 1025572, Note_on_c, 0, 52, 36
2, 1025605, Note_off_c, 0, 68, 49
2, 1025638, Note_off_c, 0, 80, 52
2, 1025686, Note_off_c, 0, 52, 49
2, 1025689, Note_on_c, 0, 69, 36
2, 1025691, Note_on_c, 0, 45, 31
2, 1025804, Note_off_c, 0, 45, 47
2, 1025806, Note_off_c, 0, 69, 49
2, 1025809, Note_on_c, 0, 57, 35
2, 1025811, Note_on_c, 0, 81, 48
2, 1025920, Note_off_c, 0, 57, 48
2, 1025922, Note_off_c, 0, 81, 52
2, 1025925, Note_on_c, 0, 56, 40
2, 1025927, Note_on_c, 0, 71, 50
2, 1026037, Note_off_c, 0, 56, 50
2, 1026039, Note_off_c, 0, 71, 52
2, 1026042, Note_on_c, 0, 57, 46
2, 1026044, Note_on_c, 0, 83, 66
2, 1026154, Note_off_c, 0, 57, 51
2, 1026156, Note_off_c, 0, 83, 56
2, 1026159, Note_on_c, 0, 55, 51
2, 1026161, Note_on_c, 0, 73, 69
2, 1026255, Note_off_c, 0, 55, 52
2, 1026256, Note_off_c, 0, 73, 57
2, 1026259, Note_on_c, 0, 57, 57
2, 1026260, Note_on_c, 0, 85, 86
2, 1026372, Note_off_c, 0, 57, 54
2, 1026373, Note_off_c, 0, 85, 61
2, 1026376, Note_on_c, 0, 53, 47
2, 1026377, Note_on_c, 0, 74, 64
2, 1026488, Note_off_c, 0, 53, 51
2, 1026490, Note_off_c, 0, 74, 56
2, 1026492, Note_on_c, 0, 57, 43
2, 1026493, Note_on_c, 0, 86, 64
2, 1026605, Note_off_c, 0, 57, 50
2, 1026607, Note_off_c, 0, 86, 56
2, 1026609, Note_on_c, 0, 52, 40
2, 1026610, Note_on_c, 0, 72, 53
2, 1026722, Note_off_c, 0, 52, 50
2, 1026726, Note_off_c, 0, 72, 53
2, 1026728, Note_on_c, 0, 57, 37
2, 1026729, Note_on_c, 0, 84, 53
2, 1026841, Note_off_c, 0, 57, 49
2, 1026842, Note_off_c, 0, 84, 53
2, 1026845, Note_on_c, 0, 51, 35
2, 1026846, Note_on_c, 0, 71, 44
2, 1026941, Note_off_c, 0, 51, 48
2, 1026943, Note_off_c, 0, 71, 51
2, 1026946, Note_on_c, 0, 83, 44
2, 1026947, Note_on_c, 0, 57, 32
2, 1027056, Note_off_c, 0, 57, 48
2, 1027059, Note_off_c, 0, 83, 51
2, 1027062, Note_on_c, 0, 52, 36
2, 1027063, Note_on_c, 0, 72, 42
2, 1027174, Note_off_c, 0, 52, 49
2, 1027176, Note_off_c, 0, 72, 50
2, 1027179, Note_on_c, 0, 84, 48
2, 1027180, Note_on_c, 0, 57, 36
2, 1027291, Note_off_c, 0, 57, 49
2, 1027293, Note_off_c, 0, 84, 52
2, 1027296, Note_on_c, 0, 68, 43
2, 1027297, Note_on_c, 0, 65, 37
2, 1027408, Note_off_c, 0, 65, 49
2, 1027410, Note_off_c, 0, 68, 50
2, 1027413, Note_on_c, 0, 80, 50
2, 1027414, Note_on_c, 0, 52, 38
2, 1027525, Note_off_c, 0, 52, 49
2, 1027526, Note_off_c, 0, 80, 52
2, 1027529, Note_on_c, 0, 64, 39
2, 1027530, Note_on_c, 0, 69, 45
2, 1027626, Note_off_c, 0, 64, 49
2, 1027627, Note_off_c, 0, 69, 51
2, 1027630, Note_on_c, 0, 52, 40
2, 1027631, Note_on_c, 0, 81, 52
2, 1027741, Note_off_c, 0, 52, 50
2, 1027744, Note_off_c, 0, 81, 53
2, 1027746, Note_on_c, 0, 71, 46
2, 1027747, Note_on_c, 0, 62, 40
2, 1027859, Note_off_c, 0, 62, 50
2, 1027860, Note_off_c, 0, 71, 51
2, 1027863, Note_on_c, 0, 52, 40
2, 1027864, Note_on_c, 0, 83, 52
2, 1027976, Note_off_c, 0, 52, 50
2, 1027978, Note_off_c, 0, 83, 53
2, 1027980, Note_on_c, 0, 60, 39
2, 1027981, Note_on_c, 0, 66, 45
2, 1028093, Note_off_c, 0, 60, 49
2, 1028094, Note_off_c, 0, 66, 51
2, 1028097, Note_on_c, 0, 52, 38
2, 1028098, Note_on_c, 0, 80, 50
2, 1028193, Note_off_c, 0, 80, 52
2, 1028194, Note_off_c, 0, 52, 49
2, 1028196, Note_on_c, 0, 68, 43
2, 1028197, Note_on_c, 0, 59, 37
2, 1028310, Note_off_c, 0, 68, 50
2, 1028312, Note_off_c, 0, 59, 49
2, 1028313, Note_on_c, 0, 80, 48
2, 1028313, Note_on_c, 0, 52, 36
2, 1028426, Note_off_c, 0, 80, 52
2, 1028428, Note_off_c, 0, 52, 49
2, 1028430, Note_on_c, 0, 69, 66
2, 1028430, Note_on_c, 0, 45, 60
2, 1028543, Note_off_c, 0, 69, 56
2, 1028544, Note_off_c, 0, 45, 55
2, 1028546, Note_on_c, 0, 81, 48
2, 1028547, Note_on_c, 0, 57, 36
2, 1028660, Note_off_c, 0, 81, 52
2, 1028662, Note_on_c, 0, 68, 42
2, 1028664, Note_on_c, 0, 56, 36
2, 1028699, Note_off_c, 0, 57, 49
2, 1028779, Note_on_c, 0, 69, 40
2, 1028781, Note_on_c, 0, 57, 32
2, 1028812, Note_off_c, 0, 68, 50
2, 1028829, Note_off_c, 0, 56, 49
2, 1028877, Note_off_c, 0, 69, 50
2, 1028879, Note_off_c, 0, 57, 48
2, 1028882, Note_on_c, 0, 45, 28
2, 1028884, Note_on_c, 0, 81, 44
2, 1028994, Note_off_c, 0, 81, 51
2, 1028996, Note_off_c, 0, 45, 47
2, 1028999, Note_on_c, 0, 57, 24
2, 1029001, Note_on_c, 0, 69, 36
2, 1029113, Note_on_c, 0, 56, 60
2, 1029115, Note_on_c, 0, 68, 66
2, 1029125, Note_off_c, 0, 57, 46
2, 1029129, Note_off_c, 0, 69, 49
2, 1029230, Note_on_c, 0, 69, 42
2, 1029232, Note_on_c, 0, 57, 36
2, 1029246, Note_off_c, 0, 68, 56
2, 1029248, Note_off_c, 0, 56, 55
2, 1029344, Note_off_c, 0, 69, 50
2, 1029346, Note_off_c, 0, 57, 49
2, 1029349, Note_on_c, 0, 81, 48
2, 1029351, Note_on_c, 0, 45, 36
2, 1029461, Note_off_c, 0, 81, 52
2, 1029463, Note_off_c, 0, 45, 49
2, 1029466, Note_on_c, 0, 69, 46
2, 1029468, Note_on_c, 0, 57, 32
2, 1029563, Note_on_c, 0, 56, 28
2, 1029566, Note_on_c, 0, 68, 44
2, 1029569, Note_off_c, 0, 57, 48
2, 1029571, Note_off_c, 0, 69, 51
2, 1029681, Note_on_c, 0, 57, 24
2, 1029683, Note_on_c, 0, 69, 42
2, 1029703, Note_off_c, 0, 56, 47
2, 1029705, Note_off_c, 0, 68, 51
2, 1029794, Note_off_c, 0, 57, 46
2, 1029797, Note_off_c, 0, 69, 50
2, 1029799, Note_on_c, 0, 45, 60
2, 1029801, Note_on_c, 0, 81, 72
2, 1029914, Note_off_c, 0, 45, 55
2, 1029916, Note_off_c, 0, 81, 58
2, 1029919, Note_on_c, 0, 57, 36
2, 1029920, Note_on_c, 0, 69, 48
2, 1030031, Note_on_c, 0, 56, 36
2, 1030033, Note_on_c, 0, 68, 48
2, 1030054, Note_off_c, 0, 69, 52
2, 1030058, Note_off_c, 0, 57, 49
2, 1030150, Note_on_c, 0, 57, 32
2, 1030152, Note_on_c, 0, 69, 46
2, 1030164, Note_off_c, 0, 56, 49
2, 1030203, Note_off_c, 0, 68, 52
2, 1030247, Note_off_c, 0, 57, 48
2, 1030250, Note_off_c, 0, 69, 51
2, 1030251, Note_on_c, 0, 45, 28
2, 1030252, Note_on_c, 0, 81, 44
2, 1030364, Note_off_c, 0, 45, 47
2, 1030366, Note_off_c, 0, 81, 51
2, 1030369, Note_on_c, 0, 57, 24
2, 1030371, Note_on_c, 0, 69, 42
2, 1030483, Note_on_c, 0, 56, 60
2, 1030485, Note_on_c, 0, 68, 72
2, 1030501, Note_off_c, 0, 69, 50
2, 1030511, Note_off_c, 0, 57, 46
2, 1030600, Note_on_c, 0, 57, 36
2, 1030602, Note_on_c, 0, 69, 48
2, 1030617, Note_off_c, 0, 56, 55
2, 1030624, Note_off_c, 0, 68, 58
2, 1030714, Note_off_c, 0, 57, 49
2, 1030717, Note_off_c, 0, 69, 52
2, 1030719, Note_on_c, 0, 45, 36
2, 1030722, Note_on_c, 0, 81, 48
2, 1030815, Note_off_c, 0, 45, 49
2, 1030817, Note_off_c, 0, 81, 52
2, 1030820, Note_on_c, 0, 57, 36
2, 1030822, Note_on_c, 0, 69, 46
2, 1030934, Note_on_c, 0, 56, 36
2, 1030936, Note_on_c, 0, 68, 44
2, 1030955, Note_off_c, 0, 57, 49
2, 1030958, Note_off_c, 0, 69, 51
2, 1031053, Note_on_c, 0, 57, 36
2, 1031054, Note_on_c, 0, 69, 42
2, 1031065, Note_off_c, 0, 56, 49
2, 1031075, Note_off_c, 0, 68, 51
2, 1031165, Note_off_c, 0, 57, 49
2, 1031167, Note_off_c, 0, 69, 50
2, 1031170, Note_on_c, 0, 64, 30
2, 1031172, Note_on_c, 0, 67, 36
2, 1031173, Note_on_c, 0, 70, 48
2, 1031174, Note_on_c, 0, 61, 40
2, 1031282, Note_on_c, 0, 69, 48
2, 1031298, Note_off_c, 0, 70, 52
2, 1031403, Note_off_c, 0, 61, 50
2, 1031406, Note_off_c, 0, 64, 47
2, 1031407, Note_on_c, 0, 70, 50
2, 1031413, Note_off_c, 0, 69, 52
2, 1031415, Note_off_c, 0, 67, 49
2, 1031501, Note_on_c, 0, 69, 52
2, 1031504, Note_off_c, 0, 70, 52
2, 1031618, Note_on_c, 0, 70, 55
2, 1031635, Note_off_c, 0, 69, 53
2, 1031735, Note_on_c, 0, 69, 57
2, 1031760, Note_off_c, 0, 70, 53
2, 1031852, Note_on_c, 0, 70, 60
2, 1031877, Note_off_c, 0, 69, 54
2, 1031969, Note_on_c, 0, 69, 60
2, 1031976, Note_off_c, 0, 70, 55
2, 1032086, Note_on_c, 0, 70, 59
2, 1032093, Note_off_c, 0, 69, 55
2, 1032187, Note_on_c, 0, 69, 57
2, 1032201, Note_off_c, 0, 70, 54
2, 1032304, Note_on_c, 0, 70, 56
2, 1032325, Note_off_c, 0, 69, 54
2, 1032421, Note_on_c, 0, 69, 54
2, 1032436, Note_off_c, 0, 70, 54
2, 1032537, Note_on_c, 0, 70, 53
2, 1032539, Note_off_c, 0, 69, 53
2, 1032654, Note_on_c, 0, 69, 51
2, 1032679, Note_off_c, 0, 70, 53
2, 1032772, Note_on_c, 0, 70, 50
2, 1032782, Note_off_c, 0, 69, 52
2, 1032873, Note_on_c, 0, 69, 48
2, 1032881, Note_off_c, 0, 70, 52
2, 1032989, Note_on_c, 0, 73, 48
2, 1032997, Note_off_c, 0, 69, 52
2, 1033106, Note_on_c, 0, 69, 51
2, 1033114, Note_off_c, 0, 73, 52
2, 1033223, Note_on_c, 0, 74, 54
2, 1033225, Note_off_c, 0, 69, 52
2, 1033340, Note_off_c, 0, 74, 53
2, 1033342, Note_on_c, 0, 69, 58
2, 1033437, Note_on_c, 0, 76, 61
2, 1033457, Note_off_c, 0, 69, 54
2, 1033554, Note_on_c, 0, 69, 65
2, 1033561, Note_off_c, 0, 76, 55
2, 1033671, Note_on_c, 0, 77, 68
2, 1033680, Note_off_c, 0, 69, 56
2, 1033788, Note_on_c, 0, 76, 72
2, 1033810, Note_off_c, 0, 77, 57
2, 1033905, Note_on_c, 0, 74, 48
2, 1033907, Note_on_c, 0, 50, 48
2, 1033926, Note_off_c, 0, 76, 58
2, 1033985, Note_off_c, 0, 74, 52
2, 1034021, Note_off_c, 0, 50, 52
2, 1034024, Note_on_c, 0, 57, 48
2, 1034060, Control_c, 0, 64, 96
2, 1034122, Note_on_c, 0, 62, 52
2, 1034241, Note_off_c, 0, 62, 53
2, 1034243, Note_on_c, 0, 69, 48
2, 1034244, Note_on_c, 0, 65, 56
2, 1034358, Note_off_c, 0, 65, 54
2, 1034360, Note_off_c, 0, 69, 52
2, 1034361, Note_on_c, 0, 77, 60
2, 1034451, Control_c, 0, 64, 20
2, 1034474, Note_on_c, 0, 76, 54
2, 1034479, Note_off_c, 0, 77, 55
2, 1034591, Note_off_c, 0, 57, 52
2, 1034594, Note_on_c, 0, 50, 48
2, 1034596, Note_on_c, 0, 74, 48
2, 1034598, Note_off_c, 0, 76, 53
2, 1034674, Note_off_c, 0, 74, 52
2, 1034708, Note_off_c, 0, 50, 52
2, 1034710, Note_on_c, 0, 57, 48
2, 1034743, Control_c, 0, 64, 96
2, 1034825, Note_on_c, 0, 62, 54
2, 1034942, Note_off_c, 0, 62, 53
2, 1034944, Note_on_c, 0, 69, 48
2, 1034946, Note_on_c, 0, 65, 60
2, 1035058, Note_off_c, 0, 65, 55
2, 1035060, Note_off_c, 0, 69, 52
2, 1035063, Note_on_c, 0, 77, 60
2, 1035133, Control_c, 0, 64, 20
2, 1035176, Note_on_c, 0, 76, 53
2, 1035199, Note_off_c, 0, 77, 55
2, 1035291, Note_off_c, 0, 57, 52
2, 1035294, Note_on_c, 0, 50, 43
2, 1035296, Note_on_c, 0, 74, 48
2, 1035318, Note_off_c, 0, 76, 53
2, 1035379, Note_off_c, 0, 74, 52
2, 1035409, Note_off_c, 0, 50, 50
2, 1035411, Note_on_c, 0, 57, 48
2, 1035434, Control_c, 0, 64, 96
2, 1035526, Note_on_c, 0, 62, 54
2, 1035643, Note_off_c, 0, 62, 53
2, 1035645, Note_on_c, 0, 69, 48
2, 1035646, Note_on_c, 0, 65, 60
2, 1035759, Note_off_c, 0, 65, 55
2, 1035761, Note_off_c, 0, 69, 52
2, 1035764, Note_on_c, 0, 77, 60
2, 1035776, Control_c, 0, 64, 20
2, 1035878, Note_on_c, 0, 74, 53
2, 1035900, Note_off_c, 0, 77, 55
2, 1035994, Note_off_c, 0, 57, 52
2, 1035997, Note_on_c, 0, 45, 45
2, 1035999, Note_on_c, 0, 76, 48
2, 1036020, Note_off_c, 0, 74, 53
2, 1036079, Note_off_c, 0, 76, 52
2, 1036111, Note_off_c, 0, 45, 51
2, 1036114, Note_on_c, 0, 57, 48
2, 1036126, Control_c, 0, 64, 96
2, 1036228, Note_on_c, 0, 61, 54
2, 1036345, Note_off_c, 0, 61, 53
2, 1036347, Note_on_c, 0, 69, 48
2, 1036349, Note_on_c, 0, 64, 60
2, 1036462, Note_off_c, 0, 64, 55
2, 1036464, Note_off_c, 0, 69, 52
2, 1036467, Note_on_c, 0, 79, 60
2, 1036506, Control_c, 0, 64, 20
2, 1036579, Note_on_c, 0, 77, 54
2, 1036588, Note_off_c, 0, 79, 55
2, 1036695, Note_off_c, 0, 57, 52
2, 1036698, Note_on_c, 0, 45, 40
2, 1036700, Note_on_c, 0, 76, 48
2, 1036703, Note_off_c, 0, 77, 53
2, 1036775, Note_off_c, 0, 76, 52
2, 1036812, Note_off_c, 0, 45, 50
2, 1036814, Note_on_c, 0, 57, 48
2, 1036876, Control_c, 0, 64, 96
2, 1036929, Note_on_c, 0, 61, 54
2, 1037046, Note_off_c, 0, 61, 53
2, 1037048, Note_on_c, 0, 69, 48
2, 1037050, Note_on_c, 0, 64, 60
2, 1037148, Note_off_c, 0, 64, 55
2, 1037150, Note_off_c, 0, 69, 52
2, 1037151, Note_on_c, 0, 79, 60
2, 1037258, Control_c, 0, 64, 20
2, 1037265, Note_off_c, 0, 79, 55
2, 1037267, Note_on_c, 0, 77, 53
2, 1037382, Note_off_c, 0, 77, 53
2, 1037384, Note_off_c, 0, 57, 52
2, 1037385, Note_on_c, 0, 45, 48
2, 1037386, Note_on_c, 0, 76, 48
2, 1037465, Note_off_c, 0, 76, 52
2, 1037496, Note_off_c, 0, 45, 52
2, 1037499, Note_on_c, 0, 57, 48
2, 1037510, Control_c, 0, 64, 96
2, 1037615, Note_on_c, 0, 61, 54
2, 1037732, Note_off_c, 0, 61, 53
2, 1037734, Note_on_c, 0, 64, 60
2, 1037737, Note_on_c, 0, 69, 48
2, 1037849, Note_off_c, 0, 64, 55
2, 1037851, Note_off_c, 0, 69, 52
2, 1037854, Note_on_c, 0, 79, 60
2, 1037890, Control_c, 0, 64, 20
2, 1037966, Note_off_c, 0, 79, 55
2, 1037968, Note_on_c, 0, 77, 54
2, 1038082, Note_off_c, 0, 77, 53
2, 1038085, Note_off_c, 0, 57, 52
2, 1038087, Note_on_c, 0, 45, 48
2, 1038088, Note_on_c, 0, 76, 52
2, 1038169, Note_off_c, 0, 76, 53
2, 1038199, Note_off_c, 0, 45, 52
2, 1038201, Note_on_c, 0, 57, 46
2, 1038251, Control_c, 0, 64, 96
2, 1038332, Note_on_c, 0, 61, 54
2, 1038450, Note_off_c, 0, 61, 53
2, 1038452, Note_on_c, 0, 69, 54
2, 1038454, Note_on_c, 0, 64, 60
2, 1038566, Note_off_c, 0, 64, 55
2, 1038568, Note_off_c, 0, 69, 53
2, 1038570, Note_on_c, 0, 79, 60
2, 1038631, Control_c, 0, 64, 20
2, 1038682, Note_off_c, 0, 79, 55
2, 1038685, Note_on_c, 0, 76, 54
2, 1038800, Note_off_c, 0, 76, 53
2, 1038804, Note_off_c, 0, 57, 51
2, 1038805, Note_on_c, 0, 50, 43
2, 1038806, Note_on_c, 0, 77, 48
2, 1038888, Note_off_c, 0, 77, 52
2, 1038916, Note_off_c, 0, 50, 50
2, 1038919, Note_on_c, 0, 57, 48
2, 1038973, Control_c, 0, 64, 96
2, 1039035, Note_on_c, 0, 62, 54
2, 1039151, Note_off_c, 0, 62, 53
2, 1039152, Note_on_c, 0, 74, 52
2, 1039154, Note_on_c, 0, 65, 60
2, 1039269, Note_off_c, 0, 65, 55
2, 1039271, Note_off_c, 0, 74, 53
2, 1039273, Note_on_c, 0, 81, 56
2, 1039353, Control_c, 0, 64, 20
2, 1039386, Note_off_c, 0, 81, 54
2, 1039388, Note_on_c, 0, 86, 60
2, 1039502, Note_off_c, 0, 86, 55
2, 1039504, Note_off_c, 0, 57, 52
2, 1039507, Note_on_c, 0, 55, 32
2, 1039508, Note_on_c, 0, 82, 32
2, 1039566, Control_c, 0, 64, 96
2, 1039579, Note_off_c, 0, 82, 48
2, 1039620, Note_on_c, 0, 62, 36
2, 1039735, Note_on_c, 0, 67, 40
2, 1039836, Note_on_c, 0, 70, 44
2, 1039946, Control_c, 0, 64, 20
2, 1039953, Note_off_c, 0, 70, 51
2, 1039955, Note_on_c, 0, 74, 49
2, 1040070, Note_off_c, 0, 74, 52
2, 1040072, Note_on_c, 0, 82, 53
2, 1040161, Control_c, 0, 64, 96
2, 1040187, Note_off_c, 0, 82, 53
2, 1040188, Note_off_c, 0, 62, 49
2, 1040191, Note_off_c, 0, 67, 50
2, 1040192, Note_off_c, 0, 55, 48
2, 1040194, Note_on_c, 0, 79, 58
2, 1040196, Note_on_c, 0, 51, 58
2, 1040273, Note_off_c, 0, 79, 54
2, 1040303, Note_on_c, 0, 58, 62
2, 1040422, Note_on_c, 0, 63, 67
2, 1040539, Note_on_c, 0, 67, 71
2, 1040541, Control_c, 0, 64, 20
2, 1040656, Note_off_c, 0, 67, 58
2, 1040658, Note_on_c, 0, 70, 76
2, 1040772, Note_off_c, 0, 70, 59
2, 1040775, Note_on_c, 0, 79, 81
2, 1040889, Note_off_c, 0, 79, 60
2, 1040892, Note_off_c, 0, 58, 55
2, 1040893, Note_off_c, 0, 63, 57
2, 1040894, Note_off_c, 0, 51, 54
2, 1040895, Note_on_c, 0, 76, 76
2, 1040896, Note_on_c, 0, 49, 76
2, 1040911, Control_c, 0, 64, 96
2, 1040984, Note_off_c, 0, 76, 59
2, 1041006, Note_on_c, 0, 57, 72
2, 1041122, Note_on_c, 0, 61, 68
2, 1041256, Note_on_c, 0, 64, 64
2, 1041291, Control_c, 0, 64, 20
2, 1041373, Note_off_c, 0, 64, 56
2, 1041375, Note_on_c, 0, 69, 60
2, 1041473, Note_off_c, 0, 69, 55
2, 1041475, Note_on_c, 0, 76, 56
2, 1041590, Note_off_c, 0, 76, 54
2, 1041592, Note_off_c, 0, 57, 58
2, 1041595, Note_off_c, 0, 61, 57
2, 1041596, Note_off_c, 0, 49, 59
2, 1041597, Note_on_c, 0, 77, 52
2, 1041599, Note_on_c, 0, 50, 52
2, 1041642, Control_c, 0, 64, 96
2, 1041687, Note_off_c, 0, 77, 53
2, 1041707, Note_on_c, 0, 57, 48
2, 1041824, Note_on_c, 0, 62, 44
2, 1041941, Note_on_c, 0, 65, 40
2, 1042022, Control_c, 0, 64, 20
2, 1042059, Note_off_c, 0, 65, 50
2, 1042062, Note_on_c, 0, 69, 36
2, 1042176, Note_off_c, 0, 69, 49
2, 1042178, Note_on_c, 0, 77, 32
2, 1042293, Note_off_c, 0, 77, 48
2, 1042296, Note_off_c, 0, 57, 52
2, 1042297, Note_off_c, 0, 62, 51
2, 1042298, Note_off_c, 0, 50, 53
2, 1042299, Note_on_c, 0, 74, 35
2, 1042300, Note_on_c, 0, 45, 35
2, 1042305, Control_c, 0, 64, 96
2, 1042380, Note_off_c, 0, 74, 48
2, 1042409, Note_on_c, 0, 53, 39
2, 1042542, Note_on_c, 0, 57, 43
2, 1042659, Note_on_c, 0, 62, 47
2, 1042686, Control_c, 0, 64, 20
2, 1042776, Note_off_c, 0, 62, 51
2, 1042779, Note_on_c, 0, 69, 51
2, 1042893, Note_off_c, 0, 69, 52
2, 1042895, Note_on_c, 0, 74, 54
2, 1042898, Note_off_c, 0, 45, 48
2, 1043009, Note_off_c, 0, 74, 53
2, 1043012, Note_off_c, 0, 53, 49
2, 1043015, Control_c, 0, 64, 96
2, 1043017, Note_off_c, 0, 57, 50
2, 1043018, Note_on_c, 0, 73, 60
2, 1043019, Note_on_c, 0, 45, 58
2, 1043101, Note_off_c, 0, 73, 55
2, 1043127, Note_on_c, 0, 52, 62
2, 1043244, Note_on_c, 0, 55, 65
2, 1043360, Note_on_c, 0, 61, 69
2, 1043362, Note_on_c, 0, 57, 69
2, 1043479, Note_off_c, 0, 61, 57
2, 1043482, Note_on_c, 0, 69, 73
2, 1043596, Note_off_c, 0, 69, 58
2, 1043598, Note_on_c, 0, 73, 77
2, 1043601, Control_c, 0, 64, 20
2, 1043711, Note_off_c, 0, 73, 59
2, 1043715, Note_off_c, 0, 52, 55
2, 1043716, Note_off_c, 0, 57, 57
2, 1043717, Note_off_c, 0, 55, 55
2, 1043718, Note_off_c, 0, 45, 54
2, 1043720, Note_on_c, 0, 38, 75
2, 1043721, Note_on_c, 0, 74, 80
2, 1043804, Note_off_c, 0, 74, 60
2, 1043844, Note_off_c, 0, 38, 59
2, 1043846, Note_on_c, 0, 50, 60
2, 1043963, Note_off_c, 0, 50, 55
2, 1043965, Note_on_c, 0, 53, 56
2, 1044079, Note_off_c, 0, 53, 54
2, 1044082, Note_on_c, 0, 57, 52
2, 1044213, Note_off_c, 0, 57, 53
2, 1044215, Note_on_c, 0, 65, 71
2, 1044216, Note_on_c, 0, 62, 48
2, 1044329, Note_off_c, 0, 65, 58
2, 1044332, Note_on_c, 0, 69, 69
2, 1044446, Note_off_c, 0, 69, 57
2, 1044448, Note_off_c, 0, 62, 52
2, 1044451, Note_on_c, 0, 74, 68
2, 1044563, Note_off_c, 0, 74, 57
2, 1044565, Note_on_c, 0, 77, 66
2, 1044680, Note_off_c, 0, 77, 56
2, 1044684, Note_on_c, 0, 81, 65
2, 1044796, Note_off_c, 0, 81, 56
2, 1044799, Note_on_c, 0, 77, 63
2, 1044913, Note_off_c, 0, 77, 55
2, 1044916, Note_on_c, 0, 86, 62
2, 1045031, Note_off_c, 0, 86, 55
2, 1045033, Note_on_c, 0, 81, 60
2, 1045149, Note_off_c, 0, 81, 55
2, 1045151, Note_on_c, 0, 82, 32
2, 1045154, Note_on_c, 0, 55, 32
2, 1045187, Control_c, 0, 64, 96
2, 1045231, Note_off_c, 0, 82, 48
2, 1045249, Note_on_c, 0, 62, 35
2, 1045366, Note_on_c, 0, 67, 40
2, 1045482, Note_on_c, 0, 70, 44
2, 1045596, Control_c, 0, 64, 20
2, 1045600, Note_off_c, 0, 70, 51
2, 1045602, Note_on_c, 0, 74, 49
2, 1045717, Note_off_c, 0, 74, 52
2, 1045719, Note_off_c, 0, 62, 48
2, 1045721, Note_off_c, 0, 67, 50
2, 1045722, Note_on_c, 0, 82, 53
2, 1045833, Note_off_c, 0, 82, 53
2, 1045835, Note_off_c, 0, 55, 48
2, 1045838, Note_on_c, 0, 51, 58
2, 1045839, Note_on_c, 0, 79, 58
2, 1045868, Control_c, 0, 64, 96
2, 1045910, Note_off_c, 0, 79, 54
2, 1045950, Note_on_c, 0, 58, 62
2, 1046066, Note_on_c, 0, 63, 67
2, 1046183, Note_on_c, 0, 67, 71
2, 1046280, Control_c, 0, 64, 20
2, 1046300, Note_off_c, 0, 67, 58
2, 1046302, Note_on_c, 0, 70, 76
2, 1046417, Note_off_c, 0, 70, 59
2, 1046420, Note_off_c, 0, 58, 55
2, 1046422, Note_off_c, 0, 63, 57
2, 1046424, Note_on_c, 0, 79, 80
2, 1046534, Note_off_c, 0, 79, 60
2, 1046537, Note_off_c, 0, 51, 54
2, 1046539, Note_on_c, 0, 49, 76
2, 1046541, Note_on_c, 0, 76, 76
2, 1046580, Control_c, 0, 64, 96
2, 1046624, Note_off_c, 0, 76, 59
2, 1046653, Note_on_c, 0, 57, 72
2, 1046769, Note_on_c, 0, 61, 68
2, 1046886, Note_on_c, 0, 64, 64
2, 1046989, Control_c, 0, 64, 20
2, 1047003, Note_off_c, 0, 64, 56
2, 1047006, Note_on_c, 0, 69, 60
2, 1047120, Note_off_c, 0, 69, 55
2, 1047122, Note_off_c, 0, 61, 57
2, 1047125, Note_off_c, 0, 57, 58
2, 1047126, Note_on_c, 0, 76, 56
2, 1047253, Note_off_c, 0, 76, 54
2, 1047255, Note_off_c, 0, 49, 59
2, 1047258, Note_on_c, 0, 50, 52
2, 1047260, Note_on_c, 0, 77, 52
2, 1047301, Control_c, 0, 64, 96
2, 1047342, Note_off_c, 0, 77, 53
2, 1047370, Note_on_c, 0, 57, 48
2, 1047486, Note_on_c, 0, 62, 44
2, 1047603, Note_on_c, 0, 65, 40
2, 1047710, Control_c, 0, 64, 20
2, 1047720, Note_off_c, 0, 65, 50
2, 1047722, Note_on_c, 0, 69, 36
2, 1047856, Note_off_c, 0, 69, 49
2, 1047858, Note_off_c, 0, 57, 52
2, 1047859, Note_off_c, 0, 62, 51
2, 1047860, Note_on_c, 0, 77, 32
2, 1047973, Note_off_c, 0, 77, 48
2, 1047975, Note_off_c, 0, 50, 53
2, 1047976, Note_on_c, 0, 45, 35
2, 1047977, Note_on_c, 0, 74, 35
2, 1048031, Control_c, 0, 64, 96
2, 1048067, Note_off_c, 0, 74, 48
2, 1048087, Note_on_c, 0, 53, 39
2, 1048203, Note_on_c, 0, 57, 42
2, 1048339, Note_on_c, 0, 62, 46
2, 1048442, Control_c, 0, 64, 20
2, 1048456, Note_off_c, 0, 62, 51
2, 1048458, Note_on_c, 0, 69, 50
2, 1048573, Note_off_c, 0, 69, 52
2, 1048575, Note_off_c, 0, 57, 50
2, 1048576, Note_off_c, 0, 53, 49
2, 1048578, Note_on_c, 0, 74, 53
2, 1048587, Note_off_c, 0, 45, 48
2, 1048706, Note_off_c, 0, 74, 53
2, 1048710, Note_on_c, 0, 45, 58
2, 1048712, Note_on_c, 0, 73, 58
2, 1048739, Control_c, 0, 64, 96
2, 1048808, Note_off_c, 0, 73, 54
2, 1048823, Note_on_c, 0, 52, 61
2, 1048955, Note_on_c, 0, 55, 65
2, 1049073, Note_on_c, 0, 61, 69
2, 1049075, Note_on_c, 0, 57, 69
2, 1049210, Control_c, 0, 64, 20
2, 1049211, Note_off_c, 0, 61, 57
2, 1049213, Note_on_c, 0, 69, 73
2, 1049327, Note_off_c, 0, 69, 58
2, 1049329, Note_on_c, 0, 73, 76
2, 1049460, Note_off_c, 0, 73, 59
2, 1049462, Note_off_c, 0, 52, 55
2, 1049463, Note_off_c, 0, 45, 54
2, 1049463, Note_off_c, 0, 57, 57
2, 1049465, Note_off_c, 0, 55, 56
2, 1049467, Note_on_c, 0, 50, 80
2, 1049468, Note_on_c, 0, 74, 81
2, 1049540, Note_off_c, 0, 74, 60
2, 1049575, Note_off_c, 0, 50, 60
2, 1049576, Note_on_c, 0, 53, 72
2, 1049642, Note_on_c, 0, 69, 84
2, 1049710, Note_off_c, 0, 69, 61
2, 1049712, Note_off_c, 0, 53, 58
2, 1049715, Note_on_c, 0, 81, 96
2, 1049716, Note_on_c, 0, 57, 66
2, 1049826, Note_off_c, 0, 57, 56
2, 1049827, Note_on_c, 0, 62, 60
2, 1049960, Note_off_c, 0, 62, 55
2, 1050210, Note_off_c, 0, 81, 63
2, 1050211, Note_on_c, 0, 80, 84
2, 1050326, Note_on_c, 0, 79, 80
2, 1050329, Note_off_c, 0, 80, 61
2, 1050444, Note_on_c, 0, 78, 75
2, 1050449, Note_off_c, 0, 79, 60
2, 1050561, Note_on_c, 0, 77, 70
2, 1050576, Note_off_c, 0, 78, 59
2, 1050661, Note_on_c, 0, 76, 65
2, 1050672, Note_off_c, 0, 77, 57
2, 1050777, Note_on_c, 0, 75, 60
2, 1050779, Note_off_c, 0, 76, 56
2, 1050891, Control_c, 0, 64, 96
2, 1050894, Note_on_c, 0, 74, 44
2, 1050896, Note_on_c, 0, 45, 32
2, 1050901, Note_off_c, 0, 75, 55
2, 1050989, Note_off_c, 0, 74, 51
2, 1051011, Note_on_c, 0, 53, 36
2, 1051127, Note_on_c, 0, 57, 40
2, 1051244, Note_on_c, 0, 62, 44
2, 1051344, Note_on_c, 0, 69, 47
2, 1051358, Control_c, 0, 64, 20
2, 1051361, Note_off_c, 0, 62, 51
2, 1051443, Note_off_c, 0, 45, 48
2, 1051463, Note_on_c, 0, 74, 51
2, 1051470, Note_off_c, 0, 69, 51
2, 1051578, Note_off_c, 0, 53, 49
2, 1051581, Note_off_c, 0, 57, 50
2, 1051585, Note_on_c, 0, 45, 50
2, 1051587, Note_on_c, 0, 73, 55
2, 1051592, Note_off_c, 0, 74, 52
2, 1051604, Control_c, 0, 64, 96
2, 1051668, Note_off_c, 0, 73, 53
2, 1051697, Note_on_c, 0, 52, 59
2, 1051813, Note_on_c, 0, 55, 63
2, 1051930, Note_on_c, 0, 57, 65
2, 1051933, Note_on_c, 0, 61, 68
2, 1052047, Note_on_c, 0, 69, 72
2, 1052066, Note_off_c, 0, 61, 57
2, 1052164, Note_on_c, 0, 73, 76
2, 1052167, Control_c, 0, 64, 20
2, 1052173, Note_off_c, 0, 69, 58
2, 1052297, Note_off_c, 0, 52, 54
2, 1052300, Note_off_c, 0, 57, 56
2, 1052302, Note_off_c, 0, 55, 55
2, 1052305, Note_off_c, 0, 45, 52
2, 1052306, Note_off_c, 0, 73, 59
2, 1052306, Note_on_c, 0, 74, 84
2, 1052307, Note_on_c, 0, 50, 80
2, 1052383, Note_off_c, 0, 74, 61
2, 1052414, Note_off_c, 0, 50, 60
2, 1052416, Note_on_c, 0, 53, 72
2, 1052479, Note_on_c, 0, 74, 84
2, 1052547, Note_off_c, 0, 74, 61
2, 1052549, Note_off_c, 0, 53, 58
2, 1052552, Note_on_c, 0, 57, 70
2, 1052554, Note_on_c, 0, 86, 96
2, 1052664, Note_off_c, 0, 57, 57
2, 1052667, Note_on_c, 0, 62, 60
2, 1052800, Note_off_c, 0, 62, 55
2, 1053047, Note_off_c, 0, 86, 63
2, 1053052, Note_on_c, 0, 85, 84
2, 1053169, Note_on_c, 0, 84, 78
2, 1053191, Note_off_c, 0, 85, 61
2, 1053286, Note_on_c, 0, 83, 72
2, 1053314, Note_off_c, 0, 84, 59
2, 1053402, Note_on_c, 0, 82, 66
2, 1053421, Note_off_c, 0, 83, 58
2, 1053519, Note_on_c, 0, 81, 60
2, 1053568, Note_off_c, 0, 82, 56
2, 1053619, Note_on_c, 0, 80, 60
2, 1053636, Note_off_c, 0, 81, 55
2, 1053737, Note_on_c, 0, 81, 43
2, 1053739, Note_on_c, 0, 45, 32
2, 1053746, Control_c, 0, 64, 96
2, 1053759, Note_off_c, 0, 80, 55
2, 1053816, Note_off_c, 0, 81, 50
2, 1053852, Note_on_c, 0, 53, 37
2, 1053968, Note_on_c, 0, 57, 42
2, 1054085, Note_on_c, 0, 62, 48
2, 1054176, Control_c, 0, 64, 20
2, 1054185, Note_on_c, 0, 69, 53
2, 1054204, Note_off_c, 0, 62, 52
2, 1054232, Note_off_c, 0, 45, 48
2, 1054301, Note_off_c, 0, 53, 49
2, 1054303, Note_off_c, 0, 57, 50
2, 1054306, Note_on_c, 0, 74, 58
2, 1054321, Note_off_c, 0, 69, 53
2, 1054423, Note_on_c, 0, 45, 60
2, 1054425, Note_on_c, 0, 73, 64
2, 1054437, Note_off_c, 0, 74, 54
2, 1054533, Note_off_c, 0, 73, 56
2, 1054535, Note_off_c, 0, 45, 55
2, 1054537, Note_on_c, 0, 52, 69
2, 1054652, Note_off_c, 0, 52, 57
2, 1054656, Note_on_c, 0, 55, 75
2, 1054771, Note_off_c, 0, 55, 59
2, 1054773, Note_on_c, 0, 73, 80
2, 1054775, Note_on_c, 0, 33, 72
2, 1054779, Control_c, 0, 64, 96
2, 1054871, Note_off_c, 0, 73, 60
2, 1054873, Note_on_c, 0, 81, 84
2, 1054875, Note_on_c, 0, 41, 80
2, 1054886, Note_off_c, 0, 33, 58
2, 1054987, Note_off_c, 0, 81, 61
2, 1054990, Note_on_c, 0, 85, 78
2, 1054992, Note_on_c, 0, 40, 73
2, 1055006, Note_off_c, 0, 41, 60
2, 1055104, Note_off_c, 0, 85, 59
2, 1055107, Note_on_c, 0, 86, 72
2, 1055109, Note_on_c, 0, 38, 65
2, 1055121, Note_off_c, 0, 40, 58
2, 1055158, Control_c, 0, 64, 20
2, 1055189, Note_off_c, 0, 38, 56
2, 1055190, Note_off_c, 0, 86, 58
2, 1055221, Note_on_c, 0, 50, 72
2, 1055338, Note_off_c, 0, 50, 58
2, 1055340, Note_on_c, 0, 53, 76
2, 1055450, Control_c, 0, 64, 96
2, 1055455, Note_off_c, 0, 53, 59
2, 1055457, Note_on_c, 0, 57, 80
2, 1055459, Note_on_c, 0, 33, 70
2, 1055556, Note_off_c, 0, 57, 60
2, 1055558, Note_on_c, 0, 62, 84
2, 1055560, Note_on_c, 0, 41, 75
2, 1055575, Note_off_c, 0, 33, 57
2, 1055646, Note_off_c, 0, 62, 61
2, 1055673, Note_on_c, 0, 40, 72
2, 1055709, Note_off_c, 0, 41, 59
2, 1055789, Note_on_c, 0, 38, 72
2, 1055807, Note_off_c, 0, 40, 58
2, 1055831, Control_c, 0, 64, 20
2, 1055873, Note_off_c, 0, 38, 58
2, 1055906, Note_on_c, 0, 50, 75
2, 1056023, Note_off_c, 0, 50, 59
2, 1056027, Note_on_c, 0, 53, 78
2, 1056141, Note_off_c, 0, 53, 59
2, 1056144, Note_on_c, 0, 33, 83
2, 1056146, Note_on_c, 0, 57, 81
2, 1056162, Control_c, 0, 64, 96
2, 1056240, Note_off_c, 0, 57, 60
2, 1056241, Note_off_c, 0, 33, 60
2, 1056242, Note_on_c, 0, 62, 84
2, 1056243, Note_on_c, 0, 41, 84
2, 1056333, Note_off_c, 0, 62, 61
2, 1056357, Note_on_c, 0, 40, 72
2, 1056385, Note_off_c, 0, 41, 61
2, 1056475, Note_on_c, 0, 38, 72
2, 1056495, Note_off_c, 0, 40, 58
2, 1056543, Control_c, 0, 64, 20
2, 1056563, Note_off_c, 0, 38, 58
2, 1056590, Note_on_c, 0, 50, 75
2, 1056707, Note_off_c, 0, 50, 59
2, 1056708, Note_on_c, 0, 53, 78
2, 1056806, Note_off_c, 0, 53, 59
2, 1056810, Note_on_c, 0, 33, 78
2, 1056811, Note_on_c, 0, 57, 81
2, 1056894, Control_c, 0, 64, 96
2, 1056923, Note_off_c, 0, 57, 60
2, 1056926, Note_off_c, 0, 33, 59
2, 1056928, Note_on_c, 0, 62, 84
2, 1056930, Note_on_c, 0, 41, 78
2, 1057014, Note_off_c, 0, 62, 61
2, 1057040, Note_on_c, 0, 40, 72
2, 1057066, Note_off_c, 0, 41, 59
2, 1057135, Note_off_c, 0, 40, 58
2, 1057162, Note_on_c, 0, 50, 72
2, 1057163, Note_on_c, 0, 43, 96
2, 1057164, Note_on_c, 0, 31, 84
2, 1057274, Control_c, 0, 64, 20
2, 1057278, Note_on_c, 0, 53, 73
2, 1057294, Note_off_c, 0, 50, 58
2, 1057390, Note_off_c, 0, 53, 58
2, 1057395, Note_on_c, 0, 59, 74
2, 1057493, Note_off_c, 0, 59, 59
2, 1057496, Note_on_c, 0, 62, 75
2, 1057610, Note_off_c, 0, 62, 59
2, 1057613, Note_on_c, 0, 65, 76
2, 1057727, Note_off_c, 0, 65, 59
2, 1057729, Note_on_c, 0, 71, 77
2, 1057844, Note_off_c, 0, 71, 59
2, 1057845, Note_off_c, 0, 31, 61
2, 1057846, Note_off_c, 0, 43, 63
2, 1057848, Note_on_c, 0, 60, 78
2, 1057850, Note_on_c, 0, 36, 65
2, 1057851, Note_on_c, 0, 48, 72
2, 1057932, Note_off_c, 0, 48, 58
2, 1057934, Note_off_c, 0, 36, 56
2, 1057959, Note_off_c, 0, 60, 59
2, 1057963, Note_on_c, 0, 72, 79
2, 1057989, Control_c, 0, 64, 96
2, 1058061, Note_off_c, 0, 72, 60
2, 1058063, Note_on_c, 0, 64, 80
2, 1058065, Note_on_c, 0, 52, 74
2, 1058152, Note_off_c, 0, 52, 59
2, 1058178, Note_off_c, 0, 64, 60
2, 1058180, Note_on_c, 0, 76, 81
2, 1058295, Note_off_c, 0, 76, 60
2, 1058297, Note_on_c, 0, 67, 82
2, 1058299, Note_on_c, 0, 55, 78
2, 1058377, Note_off_c, 0, 55, 59
2, 1058394, Note_off_c, 0, 67, 60
2, 1058400, Note_on_c, 0, 79, 84
2, 1058512, Note_off_c, 0, 79, 61
2, 1058514, Note_on_c, 0, 72, 72
2, 1058516, Note_on_c, 0, 60, 82
2, 1058592, Note_off_c, 0, 60, 60
2, 1058611, Note_off_c, 0, 72, 58
2, 1058614, Note_on_c, 0, 84, 72
2, 1058729, Note_off_c, 0, 84, 58
2, 1058731, Note_on_c, 0, 76, 78
2, 1058733, Note_on_c, 0, 64, 84
2, 1058813, Note_off_c, 0, 64, 61
2, 1058828, Note_off_c, 0, 76, 59
2, 1058831, Note_on_c, 0, 88, 84
2, 1058946, Note_off_c, 0, 88, 61
2, 1058948, Note_on_c, 0, 72, 84
2, 1058950, Note_on_c, 0, 60, 82
2, 1059028, Note_off_c, 0, 60, 60
2, 1059043, Note_off_c, 0, 72, 61
2, 1059047, Note_on_c, 0, 84, 82
2, 1059163, Note_off_c, 0, 84, 60
2, 1059165, Note_on_c, 0, 67, 80
2, 1059167, Note_on_c, 0, 55, 78
2, 1059206, Control_c, 0, 64, 20
2, 1059245, Note_off_c, 0, 55, 59
2, 1059263, Note_off_c, 0, 67, 60
2, 1059266, Note_on_c, 0, 79, 78
2, 1059381, Note_off_c, 0, 79, 59
2, 1059383, Note_on_c, 0, 64, 76
2, 1059384, Note_on_c, 0, 52, 74
2, 1059401, Control_c, 0, 64, 96
2, 1059485, Note_off_c, 0, 52, 59
2, 1059497, Note_off_c, 0, 64, 59
2, 1059500, Note_on_c, 0, 76, 74
2, 1059598, Note_off_c, 0, 76, 59
2, 1059600, Note_on_c, 0, 67, 71
2, 1059603, Note_on_c, 0, 55, 70
2, 1059689, Note_off_c, 0, 55, 57
2, 1059714, Note_off_c, 0, 67, 58
2, 1059717, Note_on_c, 0, 79, 69
2, 1059832, Note_off_c, 0, 79, 57
2, 1059834, Note_on_c, 0, 64, 67
2, 1059836, Note_on_c, 0, 52, 66
2, 1059906, Note_off_c, 0, 52, 56
2, 1059931, Note_off_c, 0, 64, 57
2, 1059934, Note_on_c, 0, 76, 65
2, 1059976, Control_c, 0, 64, 20
2, 1060051, Note_off_c, 0, 76, 56
2, 1060053, Note_on_c, 0, 60, 63
2, 1060054, Note_on_c, 0, 48, 62
2, 1060117, Note_off_c, 0, 48, 55
2, 1060165, Note_off_c, 0, 60, 55
2, 1060167, Note_on_c, 0, 72, 60
2, 1060170, Note_on_c, 0, 31, 60
2, 1060177, Control_c, 0, 64, 96
2, 1060282, Note_off_c, 0, 72, 55
2, 1060285, Note_on_c, 0, 40, 60
2, 1060292, Note_off_c, 0, 31, 55
2, 1060401, Note_on_c, 0, 38, 64
2, 1060421, Note_off_c, 0, 40, 55
2, 1060501, Note_on_c, 0, 36, 68
2, 1060504, Note_off_c, 0, 38, 56
2, 1060573, Note_off_c, 0, 36, 57
2, 1060587, Control_c, 0, 64, 20
2, 1060618, Note_on_c, 0, 48, 72
2, 1060735, Note_off_c, 0, 48, 58
2, 1060737, Note_on_c, 0, 52, 76
2, 1060852, Note_off_c, 0, 52, 59
2, 1060854, Note_on_c, 0, 55, 80
2, 1060856, Note_on_c, 0, 31, 80
2, 1060870, Control_c, 0, 64, 96
2, 1060968, Note_off_c, 0, 55, 60
2, 1060971, Note_on_c, 0, 40, 80
2, 1060973, Note_on_c, 0, 60, 84
2, 1060978, Note_off_c, 0, 31, 60
2, 1061039, Note_off_c, 0, 60, 61
2, 1061085, Note_on_c, 0, 38, 72
2, 1061090, Note_off_c, 0, 40, 60
2, 1061185, Note_on_c, 0, 36, 72
2, 1061205, Note_off_c, 0, 38, 58
2, 1061221, Control_c, 0, 64, 20
2, 1061256, Note_off_c, 0, 36, 58
2, 1061302, Note_on_c, 0, 48, 75
2, 1061419, Note_off_c, 0, 48, 59
2, 1061421, Note_on_c, 0, 52, 78
2, 1061536, Note_off_c, 0, 52, 59
2, 1061538, Note_on_c, 0, 31, 76
2, 1061540, Note_on_c, 0, 55, 81
2, 1061543, Control_c, 0, 64, 96
2, 1061653, Note_off_c, 0, 31, 59
2, 1061657, Note_off_c, 0, 55, 60
2, 1061658, Note_on_c, 0, 40, 84
2, 1061659, Note_on_c, 0, 60, 84
2, 1061713, Note_off_c, 0, 60, 61
2, 1061752, Note_on_c, 0, 38, 72
2, 1061779, Note_off_c, 0, 40, 61
2, 1061867, Note_off_c, 0, 38, 58
2, 1061872, Note_on_c, 0, 36, 72
2, 1061903, Control_c, 0, 64, 20
2, 1061938, Note_off_c, 0, 36, 58
2, 1061986, Note_on_c, 0, 48, 75
2, 1062103, Note_off_c, 0, 48, 59
2, 1062105, Note_on_c, 0, 52, 78
2, 1062220, Note_off_c, 0, 52, 59
2, 1062222, Note_on_c, 0, 31, 74
2, 1062224, Note_on_c, 0, 55, 81
2, 1062243, Control_c, 0, 64, 96
2, 1062336, Note_off_c, 0, 55, 60
2, 1062338, Note_off_c, 0, 31, 59
2, 1062341, Note_on_c, 0, 60, 84
2, 1062342, Note_on_c, 0, 40, 78
2, 1062399, Note_off_c, 0, 60, 61
2, 1062438, Note_on_c, 0, 38, 72
2, 1062472, Note_off_c, 0, 40, 59
2, 1062522, Note_off_c, 0, 38, 58
2, 1062556, Note_on_c, 0, 50, 54
2, 1062558, Note_on_c, 0, 57, 60
2, 1062585, Control_c, 0, 64, 20
2, 1062670, Note_off_c, 0, 57, 55
2, 1062672, Note_off_c, 0, 50, 53
2, 1062675, Note_on_c, 0, 62, 60
2, 1062787, Note_off_c, 0, 62, 55
2, 1062790, Note_on_c, 0, 50, 57
2, 1062791, Note_on_c, 0, 57, 62
2, 1062904, Note_off_c, 0, 57, 55
2, 1062907, Note_off_c, 0, 50, 54
2, 1062908, Note_on_c, 0, 62, 64
2, 1063020, Note_off_c, 0, 62, 56
2, 1063024, Note_on_c, 0, 51, 60
2, 1063025, Note_on_c, 0, 57, 67
2, 1063122, Note_off_c, 0, 51, 55
2, 1063123, Note_off_c, 0, 57, 57
2, 1063126, Note_on_c, 0, 63, 69
2, 1063238, Note_off_c, 0, 63, 57
2, 1063241, Note_on_c, 0, 64, 72
2, 1063243, Note_on_c, 0, 55, 66
2, 1063475, Note_off_c, 0, 55, 56
2, 1063476, Note_off_c, 0, 64, 58
2, 1063477, Note_on_c, 0, 62, 60
2, 1063478, Note_on_c, 0, 59, 60
2, 1063479, Note_on_c, 0, 77, 84
2, 1063525, Note_off_c, 0, 77, 61
2, 1063528, Note_on_c, 0, 79, 84
2, 1063590, Note_off_c, 0, 59, 55
2, 1063590, Note_off_c, 0, 79, 61
2, 1063593, Note_off_c, 0, 62, 55
2, 1063595, Note_on_c, 0, 77, 76
2, 1063597, Note_on_c, 0, 64, 60
2, 1063705, Note_off_c, 0, 77, 59
2, 1063709, Note_off_c, 0, 64, 55
2, 1063712, Note_on_c, 0, 76, 60
2, 1063714, Note_on_c, 0, 56, 54
2, 1063807, Note_off_c, 0, 56, 53
2, 1063809, Note_on_c, 0, 64, 48
2, 1063875, Note_off_c, 0, 76, 55
2, 1063923, Note_off_c, 0, 64, 52
2, 1063925, Note_on_c, 0, 77, 84
2, 1063927, Note_on_c, 0, 62, 50
2, 1063929, Note_on_c, 0, 59, 48
2, 1063992, Note_off_c, 0, 77, 61
2, 1063995, Note_on_c, 0, 79, 84
2, 1064042, Note_off_c, 0, 79, 61
2, 1064044, Note_off_c, 0, 62, 52
2, 1064047, Note_off_c, 0, 59, 52
2, 1064047, Note_on_c, 0, 77, 76
2, 1064048, Note_on_c, 0, 64, 49
2, 1064158, Note_off_c, 0, 64, 52
2, 1064160, Note_off_c, 0, 77, 59
2, 1064163, Note_on_c, 0, 56, 51
2, 1064164, Note_on_c, 0, 76, 60
2, 1064275, Note_off_c, 0, 56, 52
2, 1064277, Note_on_c, 0, 64, 52
2, 1064323, Note_off_c, 0, 76, 55
2, 1064375, Note_off_c, 0, 64, 53
2, 1064378, Note_on_c, 0, 77, 84
2, 1064380, Note_on_c, 0, 62, 60
2, 1064382, Note_on_c, 0, 59, 54
2, 1064441, Note_off_c, 0, 77, 61
2, 1064443, Note_on_c, 0, 79, 84
2, 1064494, Note_off_c, 0, 79, 61
2, 1064497, Note_off_c, 0, 62, 55
2, 1064498, Note_off_c, 0, 59, 53
2, 1064499, Note_on_c, 0, 64, 55
2, 1064500, Note_on_c, 0, 77, 76
2, 1064612, Note_off_c, 0, 64, 53
2, 1064614, Note_off_c, 0, 77, 59
2, 1064615, Note_on_c, 0, 56, 57
2, 1064616, Note_on_c, 0, 76, 60
2, 1064728, Note_off_c, 0, 56, 54
2, 1064730, Note_on_c, 0, 64, 58
2, 1064775, Note_off_c, 0, 76, 55
2, 1064842, Note_off_c, 0, 64, 54
2, 1064845, Note_on_c, 0, 77, 84
2, 1064847, Note_on_c, 0, 59, 55
2, 1064849, Note_on_c, 0, 62, 60
2, 1064893, Note_off_c, 0, 77, 61
2, 1064895, Note_on_c, 0, 79, 84
2, 1064962, Note_off_c, 0, 79, 61
2, 1064964, Note_off_c, 0, 62, 55
2, 1064965, Note_off_c, 0, 59, 53
2, 1064966, Note_on_c, 0, 64, 60
2, 1064967, Note_on_c, 0, 77, 76
2, 1065061, Note_off_c, 0, 64, 55
2, 1065062, Note_off_c, 0, 77, 59
2, 1065065, Note_on_c, 0, 56, 55
2, 1065066, Note_on_c, 0, 76, 60
2, 1065177, Note_off_c, 0, 56, 53
2, 1065181, Note_on_c, 0, 64, 59
2, 1065245, Note_off_c, 0, 76, 55
2, 1065295, Note_off_c, 0, 64, 54
2, 1065298, Note_on_c, 0, 62, 62
2, 1065300, Note_on_c, 0, 59, 57
2, 1065301, Note_on_c, 0, 77, 84
2, 1065361, Note_off_c, 0, 77, 61
2, 1065364, Note_on_c, 0, 79, 84
2, 1065413, Note_off_c, 0, 79, 61
2, 1065414, Note_off_c, 0, 59, 54
2, 1065417, Note_off_c, 0, 62, 55
2, 1065418, Note_on_c, 0, 64, 55
2, 1065419, Note_on_c, 0, 77, 76
2, 1065529, Note_off_c, 0, 64, 53
2, 1065531, Note_off_c, 0, 77, 59
2, 1065534, Note_on_c, 0, 56, 53
2, 1065535, Note_on_c, 0, 76, 60
2, 1065646, Note_off_c, 0, 56, 53
2, 1065648, Note_on_c, 0, 64, 51
2, 1065695, Note_off_c, 0, 76, 55
2, 1065743, Note_off_c, 0, 64, 52
2, 1065746, Note_on_c, 0, 62, 49
2, 1065748, Note_on_c, 0, 77, 84
2, 1065750, Note_on_c, 0, 59, 40
2, 1065812, Note_off_c, 0, 77, 61
2, 1065814, Note_on_c, 0, 79, 84
2, 1065861, Note_off_c, 0, 79, 61
2, 1065862, Note_off_c, 0, 59, 50
2, 1065865, Note_off_c, 0, 62, 52
2, 1065868, Note_on_c, 0, 64, 48
2, 1065869, Note_on_c, 0, 77, 76
2, 1065979, Note_off_c, 0, 64, 52
2, 1065979, Note_off_c, 0, 77, 59
2, 1065982, Note_on_c, 0, 76, 60
2, 1065984, Note_on_c, 0, 56, 48
2, 1066095, Note_off_c, 0, 56, 52
2, 1066097, Note_on_c, 0, 64, 50
2, 1066146, Note_off_c, 0, 76, 55
2, 1066211, Note_off_c, 0, 64, 52
2, 1066213, Note_on_c, 0, 62, 60
2, 1066215, Note_on_c, 0, 77, 96
2, 1066218, Note_on_c, 0, 59, 52
2, 1066220, Control_c, 0, 64, 96
2, 1066328, Note_off_c, 0, 62, 55
2, 1066330, Note_off_c, 0, 59, 53
2, 1066332, Note_on_c, 0, 64, 55
2, 1066428, Note_off_c, 0, 64, 53
2, 1066432, Note_on_c, 0, 56, 57
2, 1066545, Note_off_c, 0, 56, 54
2, 1066549, Note_on_c, 0, 64, 60
2, 1066664, Note_off_c, 0, 64, 55
2, 1066666, Note_on_c, 0, 59, 45
2, 1066668, Note_on_c, 0, 62, 60
2, 1066780, Note_off_c, 0, 62, 55
2, 1066782, Note_off_c, 0, 59, 51
2, 1066785, Note_on_c, 0, 64, 56
2, 1066824, Control_c, 0, 64, 20
2, 1066897, Note_off_c, 0, 77, 63
2, 1066899, Note_off_c, 0, 64, 54
2, 1066902, Note_on_c, 0, 76, 72
2, 1066903, Note_on_c, 0, 56, 52
2, 1066997, Note_off_c, 0, 76, 58
2, 1066999, Note_off_c, 0, 56, 53
2, 1067001, Note_on_c, 0, 64, 48
2, 1067115, Note_off_c, 0, 64, 52
2, 1067117, Note_on_c, 0, 62, 48
2, 1067119, Note_on_c, 0, 59, 44
2, 1067121, Note_on_c, 0, 74, 60
2, 1067231, Note_off_c, 0, 74, 55
2, 1067234, Note_off_c, 0, 62, 52
2, 1067234, Note_off_c, 0, 59, 51
2, 1067236, Note_on_c, 0, 64, 40
2, 1067348, Note_off_c, 0, 64, 50
2, 1067352, Note_on_c, 0, 72, 51
2, 1067352, Note_on_c, 0, 57, 36
2, 1067399, Note_on_c, 0, 74, 51
2, 1067431, Note_off_c, 0, 72, 52
2, 1067465, Note_off_c, 0, 57, 49
2, 1067469, Note_on_c, 0, 64, 36
2, 1067471, Note_on_c, 0, 72, 51
2, 1067491, Note_off_c, 0, 74, 52
2, 1067581, Note_off_c, 0, 72, 52
2, 1067583, Note_off_c, 0, 64, 49
2, 1067586, Note_on_c, 0, 60, 36
2, 1067588, Note_on_c, 0, 71, 48
2, 1067682, Note_off_c, 0, 60, 49
2, 1067687, Note_on_c, 0, 64, 37
2, 1067750, Note_off_c, 0, 71, 52
2, 1067799, Note_off_c, 0, 64, 49
2, 1067802, Note_on_c, 0, 69, 51
2, 1067804, Note_on_c, 0, 57, 38
2, 1067917, Note_off_c, 0, 57, 49
2, 1067918, Note_off_c, 0, 69, 52
2, 1067921, Note_on_c, 0, 64, 39
2, 1068034, Note_off_c, 0, 64, 49
2, 1068035, Note_on_c, 0, 68, 54
2, 1068037, Note_on_c, 0, 52, 40
2, 1068150, Note_off_c, 0, 52, 50
2, 1068152, Note_off_c, 0, 68, 53
2, 1068154, Note_on_c, 0, 62, 41
2, 1068267, Note_off_c, 0, 62, 50
2, 1068271, Note_on_c, 0, 69, 57
2, 1068272, Note_on_c, 0, 59, 42
2, 1068367, Note_off_c, 0, 59, 50
2, 1068371, Note_off_c, 0, 69, 54
2, 1068372, Note_on_c, 0, 62, 43
2, 1068484, Note_off_c, 0, 62, 50
2, 1068488, Note_on_c, 0, 71, 60
2, 1068489, Note_on_c, 0, 52, 44
2, 1068602, Note_off_c, 0, 52, 51
2, 1068605, Note_off_c, 0, 71, 55
2, 1068607, Note_on_c, 0, 62, 45
2, 1068719, Note_off_c, 0, 62, 51
2, 1068722, Note_on_c, 0, 69, 48
2, 1068724, Note_on_c, 0, 57, 41
2, 1068725, Note_on_c, 0, 60, 46
2, 1068836, Note_off_c, 0, 57, 50
2, 1068838, Note_off_c, 0, 60, 51
2, 1068841, Note_on_c, 0, 64, 47
2, 1068953, Note_off_c, 0, 64, 51
2, 1068955, Note_off_c, 0, 69, 52
2, 1068958, Note_on_c, 0, 59, 40
2, 1068960, Note_on_c, 0, 62, 48
2, 1068960, Control_c, 0, 64, 96
2, 1068961, Note_on_c, 0, 77, 63
2, 1069053, Note_off_c, 0, 59, 50
2, 1069055, Note_off_c, 0, 62, 52
2, 1069058, Note_on_c, 0, 64, 48
2, 1069060, Note_on_c, 0, 89, 72
2, 1069086, Note_off_c, 0, 77, 55
2, 1069170, Note_off_c, 0, 64, 52
2, 1069172, Note_off_c, 0, 89, 58
2, 1069175, Note_on_c, 0, 56, 49
2, 1069176, Note_on_c, 0, 76, 64
2, 1069287, Note_off_c, 0, 56, 52
2, 1069289, Control_c, 0, 64, 20
2, 1069291, Note_on_c, 0, 64, 51
2, 1069293, Note_on_c, 0, 88, 75
2, 1069320, Note_off_c, 0, 76, 56
2, 1069403, Note_off_c, 0, 64, 52
2, 1069405, Note_off_c, 0, 88, 59
2, 1069408, Note_on_c, 0, 59, 49
2, 1069409, Note_on_c, 0, 77, 67
2, 1069410, Note_on_c, 0, 62, 52
2, 1069494, Control_c, 0, 64, 96
2, 1069520, Note_off_c, 0, 62, 53
2, 1069522, Note_off_c, 0, 59, 52
2, 1069525, Note_on_c, 0, 64, 54
2, 1069527, Note_on_c, 0, 89, 78
2, 1069553, Note_off_c, 0, 77, 57
2, 1069621, Note_off_c, 0, 64, 53
2, 1069623, Note_off_c, 0, 89, 59
2, 1069625, Note_on_c, 0, 76, 70
2, 1069627, Note_on_c, 0, 56, 55
2, 1069738, Note_off_c, 0, 56, 53
2, 1069742, Note_on_c, 0, 88, 81
2, 1069744, Note_on_c, 0, 64, 57
2, 1069770, Note_off_c, 0, 76, 57
2, 1069824, Control_c, 0, 64, 20
2, 1069857, Note_off_c, 0, 64, 54
2, 1069858, Note_off_c, 0, 88, 60
2, 1069861, Note_on_c, 0, 62, 63
2, 1069862, Note_on_c, 0, 77, 73
2, 1069863, Note_on_c, 0, 59, 58
2, 1069973, Note_off_c, 0, 62, 55
2, 1069975, Note_off_c, 0, 59, 54
2, 1069978, Note_on_c, 0, 64, 60
2, 1069979, Note_on_c, 0, 89, 84
2, 1069983, Control_c, 0, 64, 96
2, 1070006, Note_off_c, 0, 77, 58
2, 1070088, Note_off_c, 0, 89, 61
2, 1070090, Note_off_c, 0, 64, 55
2, 1070091, Note_on_c, 0, 76, 75
2, 1070092, Note_on_c, 0, 56, 60
2, 1070206, Note_off_c, 0, 56, 55
2, 1070209, Note_on_c, 0, 88, 83
2, 1070211, Note_on_c, 0, 64, 59
2, 1070237, Note_off_c, 0, 76, 59
2, 1070304, Note_off_c, 0, 88, 60
2, 1070307, Note_off_c, 0, 64, 54
2, 1070309, Note_on_c, 0, 77, 73
2, 1070311, Note_on_c, 0, 59, 50
2, 1070312, Note_on_c, 0, 62, 58
2, 1070314, Control_c, 0, 64, 20
2, 1070424, Note_off_c, 0, 59, 52
2, 1070426, Note_off_c, 0, 62, 54
2, 1070428, Note_on_c, 0, 64, 57
2, 1070429, Note_on_c, 0, 89, 81
2, 1070454, Note_off_c, 0, 77, 58
2, 1070539, Note_off_c, 0, 89, 60
2, 1070540, Note_off_c, 0, 64, 54
2, 1070543, Note_on_c, 0, 76, 71
2, 1070545, Note_on_c, 0, 56, 56
2, 1070595, Control_c, 0, 64, 96
2, 1070657, Note_off_c, 0, 56, 54
2, 1070659, Note_on_c, 0, 88, 79
2, 1070662, Note_on_c, 0, 64, 55
2, 1070687, Note_off_c, 0, 76, 58
2, 1070772, Note_off_c, 0, 88, 60
2, 1070773, Note_off_c, 0, 64, 53
2, 1070776, Note_on_c, 0, 77, 69
2, 1070778, Note_on_c, 0, 59, 50
2, 1070781, Note_on_c, 0, 62, 54
2, 1070893, Note_off_c, 0, 59, 52
2, 1070895, Note_off_c, 0, 62, 53
2, 1070896, Note_on_c, 0, 64, 53
2, 1070897, Note_on_c, 0, 89, 77
2, 1070922, Note_off_c, 0, 77, 57
2, 1070928, Control_c, 0, 64, 20
2, 1070992, Note_off_c, 0, 89, 59
2, 1070993, Note_off_c, 0, 64, 53
2, 1070994, Note_on_c, 0, 76, 67
2, 1070996, Note_on_c, 0, 56, 52
2, 1071109, Note_off_c, 0, 56, 53
2, 1071111, Note_on_c, 0, 64, 51
2, 1071112, Note_on_c, 0, 88, 75
2, 1071121, Control_c, 0, 64, 96
2, 1071139, Note_off_c, 0, 76, 57
2, 1071222, Note_off_c, 0, 88, 59
2, 1071225, Note_off_c, 0, 64, 52
2, 1071227, Note_on_c, 0, 77, 65
2, 1071229, Note_on_c, 0, 59, 50
2, 1071230, Note_on_c, 0, 62, 50
2, 1071342, Note_off_c, 0, 59, 52
2, 1071344, Note_off_c, 0, 62, 52
2, 1071346, Note_on_c, 0, 64, 48
2, 1071347, Note_on_c, 0, 89, 73
2, 1071372, Note_off_c, 0, 77, 56
2, 1071454, Control_c, 0, 64, 20
2, 1071458, Note_off_c, 0, 89, 58
2, 1071460, Note_off_c, 0, 64, 52
2, 1071461, Note_on_c, 0, 88, 72
2, 1071463, Note_on_c, 0, 56, 48
2, 1071470, Note_on_c, 0, 76, 63
2, 1071575, Note_off_c, 0, 56, 52
2, 1071577, Note_on_c, 0, 64, 54
2, 1071635, Note_off_c, 0, 76, 55
2, 1071675, Note_off_c, 0, 88, 58
2, 1071677, Note_off_c, 0, 64, 53
2, 1071679, Note_on_c, 0, 89, 96
2, 1071680, Note_on_c, 0, 59, 60
2, 1071682, Note_on_c, 0, 62, 60
2, 1071689, Note_on_c, 0, 77, 80
2, 1071706, Control_c, 0, 64, 96
2, 1071793, Note_off_c, 0, 59, 55
2, 1071794, Note_off_c, 0, 62, 55
2, 1071797, Note_on_c, 0, 64, 60
2, 1071909, Note_off_c, 0, 64, 55
2, 1071912, Note_on_c, 0, 56, 56
2, 1072026, Note_off_c, 0, 56, 54
2, 1072028, Note_on_c, 0, 64, 52
2, 1072037, Control_c, 0, 64, 20
2, 1072143, Note_off_c, 0, 64, 53
2, 1072145, Note_on_c, 0, 62, 48
2, 1072147, Note_on_c, 0, 59, 43
2, 1072237, Note_off_c, 0, 77, 60
2, 1072243, Note_off_c, 0, 59, 50
2, 1072245, Note_off_c, 0, 62, 52
2, 1072248, Note_on_c, 0, 64, 48
2, 1072360, Note_off_c, 0, 89, 63
2, 1072362, Note_off_c, 0, 64, 52
2, 1072365, Note_on_c, 0, 88, 72
2, 1072367, Note_on_c, 0, 56, 46
2, 1072368, Note_on_c, 0, 76, 63
2, 1072477, Note_off_c, 0, 76, 55
2, 1072479, Note_off_c, 0, 88, 58
2, 1072481, Note_off_c, 0, 56, 51
2, 1072484, Note_on_c, 0, 64, 44
2, 1072596, Note_off_c, 0, 64, 51
2, 1072597, Note_on_c, 0, 86, 60
2, 1072598, Note_on_c, 0, 59, 34
2, 1072600, Note_on_c, 0, 62, 41
2, 1072601, Note_on_c, 0, 74, 51
2, 1072711, Note_off_c, 0, 74, 52
2, 1072712, Note_off_c, 0, 86, 55
2, 1072715, Note_off_c, 0, 59, 48
2, 1072717, Note_off_c, 0, 62, 50
2, 1072718, Note_on_c, 0, 64, 39
2, 1072828, Note_off_c, 0, 64, 49
2, 1072832, Note_on_c, 0, 84, 48
2, 1072833, Note_on_c, 0, 57, 36
2, 1072834, Note_on_c, 0, 72, 39
2, 1072930, Note_off_c, 0, 57, 49
2, 1072932, Note_off_c, 0, 72, 49
2, 1072933, Note_off_c, 0, 84, 52
2, 1072934, Note_on_c, 0, 64, 36
2, 1073047, Note_off_c, 0, 64, 49
2, 1073049, Note_on_c, 0, 83, 45
2, 1073051, Note_on_c, 0, 60, 36
2, 1073052, Note_on_c, 0, 71, 36
2, 1073163, Note_off_c, 0, 60, 49
2, 1073165, Note_off_c, 0, 83, 51
2, 1073168, Note_off_c, 0, 71, 49
2, 1073169, Note_on_c, 0, 64, 36
2, 1073280, Note_off_c, 0, 64, 49
2, 1073282, Note_on_c, 0, 81, 42
2, 1073285, Note_on_c, 0, 57, 36
2, 1073286, Note_on_c, 0, 69, 32
2, 1073397, Note_off_c, 0, 57, 49
2, 1073399, Note_off_c, 0, 69, 48
2, 1073401, Note_off_c, 0, 81, 50
2, 1073402, Note_on_c, 0, 64, 37
2, 1073513, Note_off_c, 0, 64, 49
2, 1073516, Note_on_c, 0, 80, 42
2, 1073518, Note_on_c, 0, 52, 37
2, 1073519, Note_on_c, 0, 68, 32
2, 1073614, Note_off_c, 0, 52, 49
2, 1073616, Note_off_c, 0, 80, 50
2, 1073618, Note_off_c, 0, 68, 48
2, 1073621, Note_on_c, 0, 62, 37
2, 1073731, Note_off_c, 0, 62, 49
2, 1073733, Note_on_c, 0, 81, 45
2, 1073735, Note_on_c, 0, 59, 38
2, 1073736, Note_on_c, 0, 69, 35
2, 1073848, Note_off_c, 0, 59, 49
2, 1073850, Note_off_c, 0, 81, 51
2, 1073852, Note_off_c, 0, 69, 48
2, 1073853, Note_on_c, 0, 62, 38
2, 1073965, Note_off_c, 0, 62, 49
2, 1073969, Note_on_c, 0, 83, 48
2, 1073971, Note_on_c, 0, 52, 38
2, 1073972, Note_on_c, 0, 71, 38
2, 1074083, Note_off_c, 0, 52, 49
2, 1074085, Note_off_c, 0, 83, 52
2, 1074088, Note_off_c, 0, 71, 49
2, 1074089, Note_on_c, 0, 62, 39
2, 1074200, Note_off_c, 0, 62, 49
2, 1074202, Note_on_c, 0, 81, 48
2, 1074205, Note_on_c, 0, 53, 39
2, 1074206, Note_on_c, 0, 69, 38
2, 1074207, Control_c, 0, 64, 98
2, 1074297, Note_off_c, 0, 53, 49
2, 1074300, Note_on_c, 0, 60, 39
2, 1074414, Note_off_c, 0, 81, 52
2, 1074415, Note_off_c, 0, 60, 49
2, 1074418, Note_off_c, 0, 69, 49
2, 1074419, Note_on_c, 0, 89, 49
2, 1074422, Note_on_c, 0, 57, 40
2, 1074423, Note_on_c, 0, 77, 39
2, 1074531, Note_off_c, 0, 57, 50
2, 1074534, Note_on_c, 0, 60, 40
2, 1074583, Note_off_c, 0, 89, 52
2, 1074585, Note_off_c, 0, 77, 49
2, 1074646, Note_off_c, 0, 60, 50
2, 1074650, Note_on_c, 0, 89, 51
2, 1074652, Note_on_c, 0, 77, 41
2, 1074655, Note_on_c, 0, 53, 40
2, 1074723, Control_c, 0, 64, 20
2, 1074763, Note_off_c, 0, 89, 52
2, 1074767, Note_off_c, 0, 53, 50
2, 1074768, Note_off_c, 0, 77, 50
2, 1074769, Note_on_c, 0, 60, 41
2, 1074865, Note_off_c, 0, 60, 50
2, 1074867, Note_on_c, 0, 50, 41
2, 1074870, Note_on_c, 0, 89, 53
2, 1074871, Note_on_c, 0, 77, 43
2, 1074982, Note_off_c, 0, 89, 53
2, 1074984, Note_off_c, 0, 50, 50
2, 1074986, Note_off_c, 0, 77, 50
2, 1074987, Note_on_c, 0, 58, 41
2, 1075098, Note_off_c, 0, 58, 50
2, 1075101, Note_on_c, 0, 88, 55
2, 1075103, Note_on_c, 0, 76, 45
2, 1075105, Note_on_c, 0, 53, 42
2, 1075216, Note_off_c, 0, 88, 53
2, 1075217, Note_off_c, 0, 53, 50
2, 1075220, Note_off_c, 0, 76, 51
2, 1075223, Note_on_c, 0, 58, 42
2, 1075333, Note_off_c, 0, 58, 50
2, 1075335, Note_on_c, 0, 50, 42
2, 1075337, Note_on_c, 0, 86, 57
2, 1075339, Note_on_c, 0, 74, 47
2, 1075449, Note_off_c, 0, 86, 54
2, 1075452, Note_off_c, 0, 50, 50
2, 1075453, Note_off_c, 0, 74, 51
2, 1075456, Note_on_c, 0, 58, 43
2, 1075552, Note_off_c, 0, 58, 50
2, 1075555, Note_on_c, 0, 84, 59
2, 1075555, Note_on_c, 0, 52, 43
2, 1075556, Note_on_c, 0, 72, 49
2, 1075668, Note_off_c, 0, 72, 52
2, 1075672, Note_off_c, 0, 84, 54
2, 1075672, Note_off_c, 0, 52, 50
2, 1075673, Note_on_c, 0, 60, 43
2, 1075785, Note_off_c, 0, 60, 50
2, 1075788, Note_on_c, 0, 83, 61
2, 1075789, Note_on_c, 0, 57, 44
2, 1075790, Note_on_c, 0, 71, 51
2, 1075902, Note_off_c, 0, 71, 52
2, 1075904, Note_off_c, 0, 83, 55
2, 1075905, Note_off_c, 0, 57, 51
2, 1075906, Note_on_c, 0, 60, 44
2, 1076019, Note_off_c, 0, 60, 51
2, 1076022, Note_on_c, 0, 81, 63
2, 1076023, Note_on_c, 0, 52, 44
2, 1076024, Note_on_c, 0, 69, 63
2, 1076135, Note_off_c, 0, 69, 55
2, 1076138, Note_off_c, 0, 81, 55
2, 1076140, Note_on_c, 0, 60, 45
2, 1076141, Note_off_c, 0, 52, 51
2, 1076235, Note_off_c, 0, 60, 51
2, 1076239, Note_on_c, 0, 80, 65
2, 1076241, Note_on_c, 0, 50, 45
2, 1076243, Note_on_c, 0, 68, 55
2, 1076353, Note_off_c, 0, 68, 53
2, 1076356, Note_off_c, 0, 80, 56
2, 1076358, Note_off_c, 0, 50, 51
2, 1076360, Note_on_c, 0, 59, 45
2, 1076470, Note_off_c, 0, 59, 51
2, 1076473, Note_on_c, 0, 81, 67
2, 1076475, Note_on_c, 0, 52, 46
2, 1076477, Note_on_c, 0, 69, 57
2, 1076587, Note_off_c, 0, 69, 54
2, 1076589, Note_off_c, 0, 81, 57
2, 1076591, Note_off_c, 0, 52, 51
2, 1076593, Note_on_c, 0, 59, 46
2, 1076703, Note_off_c, 0, 59, 51
2, 1076706, Note_on_c, 0, 83, 69
2, 1076708, Note_on_c, 0, 50, 46
2, 1076709, Note_on_c, 0, 71, 59
2, 1076819, Note_off_c, 0, 71, 54
2, 1076822, Note_off_c, 0, 83, 57
2, 1076825, Note_off_c, 0, 50, 51
2, 1076827, Note_on_c, 0, 59, 47
2, 1076922, Note_off_c, 0, 59, 51
2, 1076924, Note_on_c, 0, 81, 71
2, 1076925, Note_on_c, 0, 48, 47
2, 1076928, Control_c, 0, 64, 96
2, 1076929, Note_on_c, 0, 69, 61
2, 1077038, Note_off_c, 0, 48, 51
2, 1077040, Note_on_c, 0, 57, 47
2, 1077157, Note_off_c, 0, 69, 55
2, 1077158, Note_off_c, 0, 81, 58
2, 1077159, Note_off_c, 0, 57, 51
2, 1077162, Note_on_c, 0, 47, 48
2, 1077163, Note_on_c, 0, 77, 62
2, 1077163, Note_on_c, 0, 89, 72
2, 1077272, Note_off_c, 0, 47, 52
2, 1077274, Note_on_c, 0, 57, 48
2, 1077319, Note_off_c, 0, 89, 58
2, 1077322, Note_off_c, 0, 77, 55
2, 1077390, Note_off_c, 0, 57, 52
2, 1077393, Note_on_c, 0, 89, 72
2, 1077394, Note_on_c, 0, 48, 52
2, 1077395, Note_on_c, 0, 77, 62
2, 1077441, Control_c, 0, 64, 20
2, 1077490, Note_off_c, 0, 48, 53
2, 1077493, Note_off_c, 0, 89, 58
2, 1077494, Note_off_c, 0, 77, 55
2, 1077495, Note_on_c, 0, 57, 56
2, 1077607, Note_off_c, 0, 57, 54
2, 1077610, Note_on_c, 0, 89, 84
2, 1077612, Note_on_c, 0, 50, 60
2, 1077613, Note_on_c, 0, 77, 74
2, 1077724, Note_off_c, 0, 50, 55
2, 1077726, Note_off_c, 0, 89, 61
2, 1077729, Note_off_c, 0, 77, 59
2, 1077730, Note_on_c, 0, 57, 52
2, 1077731, Note_on_c, 0, 59, 60
2, 1077841, Note_off_c, 0, 59, 55
2, 1077843, Note_off_c, 0, 57, 53
2, 1077846, Note_on_c, 0, 48, 57
2, 1077847, Note_on_c, 0, 76, 74
2, 1077848, Note_on_c, 0, 88, 84
2, 1077957, Note_off_c, 0, 48, 54
2, 1077960, Note_off_c, 0, 76, 59
2, 1077961, Note_off_c, 0, 88, 61
2, 1077962, Note_on_c, 0, 57, 46
2, 1077963, Note_on_c, 0, 59, 54
2, 1078074, Note_off_c, 0, 59, 53
2, 1078076, Note_off_c, 0, 57, 51
2, 1078079, Note_on_c, 0, 50, 51
2, 1078080, Note_on_c, 0, 74, 62
2, 1078081, Note_on_c, 0, 86, 72
2, 1078173, Note_off_c, 0, 86, 58
2, 1078174, Note_off_c, 0, 50, 52
2, 1078177, Note_off_c, 0, 74, 55
2, 1078179, Note_on_c, 0, 59, 48
2, 1078181, Note_on_c, 0, 57, 40
2, 1078289, Note_off_c, 0, 59, 52
2, 1078291, Note_off_c, 0, 57, 50
2, 1078294, Note_on_c, 0, 84, 84
2, 1078296, Note_on_c, 0, 52, 60
2, 1078297, Note_on_c, 0, 72, 74
2, 1078405, Note_off_c, 0, 84, 61
2, 1078407, Note_off_c, 0, 52, 55
2, 1078410, Note_off_c, 0, 72, 59
2, 1078413, Note_on_c, 0, 60, 60
2, 1078415, Note_on_c, 0, 57, 52
2, 1078525, Note_off_c, 0, 60, 55
2, 1078526, Note_off_c, 0, 57, 53
2, 1078527, Note_on_c, 0, 83, 84
2, 1078529, Note_on_c, 0, 51, 56
2, 1078532, Note_on_c, 0, 71, 74
2, 1078640, Note_off_c, 0, 83, 61
2, 1078642, Note_off_c, 0, 51, 54
2, 1078643, Note_off_c, 0, 71, 59
2, 1078646, Note_on_c, 0, 60, 52
2, 1078648, Note_on_c, 0, 57, 44
2, 1078757, Note_off_c, 0, 60, 53
2, 1078758, Note_off_c, 0, 57, 51
2, 1078761, Note_on_c, 0, 81, 72
2, 1078763, Note_on_c, 0, 52, 48
2, 1078765, Note_on_c, 0, 69, 62
2, 1078857, Note_off_c, 0, 81, 58
2, 1078859, Note_off_c, 0, 52, 52
2, 1078861, Note_off_c, 0, 69, 55
2, 1078863, Note_on_c, 0, 57, 40
2, 1078864, Note_on_c, 0, 60, 48
2, 1078974, Note_off_c, 0, 60, 52
2, 1078975, Note_off_c, 0, 57, 50
2, 1078978, Note_on_c, 0, 80, 72
2, 1078980, Note_on_c, 0, 52, 50
2, 1078981, Note_on_c, 0, 68, 62
2, 1079090, Note_off_c, 0, 80, 58
2, 1079092, Note_off_c, 0, 52, 52
2, 1079094, Note_off_c, 0, 68, 55
2, 1079097, Note_on_c, 0, 62, 52
2, 1079098, Note_on_c, 0, 59, 44
2, 1079207, Note_off_c, 0, 62, 53
2, 1079210, Note_off_c, 0, 59, 51
2, 1079212, Note_on_c, 0, 81, 80
2, 1079213, Note_on_c, 0, 69, 70
2, 1079216, Note_on_c, 0, 52, 55
2, 1079326, Note_off_c, 0, 81, 60
2, 1079328, Note_off_c, 0, 52, 53
2, 1079329, Note_off_c, 0, 69, 57
2, 1079331, Note_on_c, 0, 60, 57
2, 1079333, Note_on_c, 0, 57, 49
2, 1079442, Note_off_c, 0, 60, 54
2, 1079444, Note_off_c, 0, 57, 52
2, 1079447, Note_on_c, 0, 83, 84
2, 1079449, Note_on_c, 0, 52, 60
2, 1079450, Note_on_c, 0, 71, 74
2, 1079543, Note_off_c, 0, 83, 61
2, 1079545, Note_off_c, 0, 71, 59
2, 1079547, Note_off_c, 0, 52, 55
2, 1079550, Note_on_c, 0, 56, 40
2, 1079551, Note_on_c, 0, 59, 48
2, 1079660, Note_off_c, 0, 56, 50
2, 1079661, Note_off_c, 0, 59, 52
2, 1079664, Note_on_c, 0, 81, 48
2, 1079666, Note_on_c, 0, 45, 36
2, 1079667, Note_on_c, 0, 69, 38
2, 1079776, Note_off_c, 0, 45, 49
2, 1079779, Note_on_c, 0, 60, 36
2, 1079893, Note_off_c, 0, 81, 52
2, 1079895, Note_off_c, 0, 69, 49
2, 1079898, Note_off_c, 0, 60, 49
2, 1079900, Note_on_c, 0, 57, 36
2, 1080010, Note_off_c, 0, 57, 49
2, 1080013, Note_on_c, 0, 60, 37
2, 1080112, Note_off_c, 0, 60, 49
2, 1080115, Note_on_c, 0, 69, 49
2, 1080116, Note_on_c, 0, 52, 38
2, 1080120, Control_c, 0, 64, 95
2, 1080228, Note_off_c, 0, 52, 49
2, 1080230, Note_off_c, 0, 69, 52
2, 1080233, Note_on_c, 0, 60, 39
2, 1080234, Note_on_c, 0, 81, 50
2, 1080345, Note_off_c, 0, 60, 49
2, 1080348, Note_off_c, 0, 81, 52
2, 1080350, Note_on_c, 0, 45, 40
2, 1080350, Note_on_c, 0, 72, 52
2, 1080432, Note_off_c, 0, 72, 53
2, 1080461, Control_c, 0, 64, 20
2, 1080463, Note_off_c, 0, 45, 50
2, 1080466, Note_on_c, 0, 60, 41
2, 1080580, Note_off_c, 0, 60, 50
2, 1080583, Note_on_c, 0, 57, 42
2, 1080697, Note_off_c, 0, 57, 50
2, 1080699, Note_on_c, 0, 60, 43
2, 1080783, Control_c, 0, 64, 95
2, 1080797, Note_off_c, 0, 60, 50
2, 1080800, Note_on_c, 0, 72, 57
2, 1080802, Note_on_c, 0, 52, 44
2, 1080914, Note_off_c, 0, 52, 51
2, 1080916, Note_off_c, 0, 72, 54
2, 1080919, Note_on_c, 0, 60, 45
2, 1080920, Note_on_c, 0, 84, 58
2, 1080996, Note_off_c, 0, 84, 54
2, 1081031, Note_off_c, 0, 60, 51
2, 1081033, Note_on_c, 0, 76, 60
2, 1081035, Note_on_c, 0, 45, 46
2, 1081120, Note_off_c, 0, 76, 55
2, 1081147, Note_off_c, 0, 45, 51
2, 1081150, Note_on_c, 0, 60, 47
2, 1081163, Control_c, 0, 64, 20
2, 1081264, Note_off_c, 0, 60, 51
2, 1081267, Note_on_c, 0, 57, 48
2, 1081381, Note_off_c, 0, 57, 52
2, 1081383, Note_on_c, 0, 60, 48
2, 1081465, Control_c, 0, 64, 95
2, 1081484, Note_off_c, 0, 60, 52
2, 1081485, Note_on_c, 0, 52, 47
2, 1081486, Note_on_c, 0, 76, 59
2, 1081598, Note_off_c, 0, 52, 51
2, 1081600, Note_off_c, 0, 76, 54
2, 1081603, Note_on_c, 0, 60, 45
2, 1081604, Note_on_c, 0, 88, 57
2, 1081683, Note_off_c, 0, 88, 54
2, 1081714, Note_off_c, 0, 60, 51
2, 1081717, Note_on_c, 0, 45, 43
2, 1081719, Note_on_c, 0, 72, 56
2, 1081795, Note_off_c, 0, 72, 54
2, 1081825, Control_c, 0, 64, 20
2, 1081834, Note_off_c, 0, 45, 50
2, 1081836, Note_on_c, 0, 60, 42
2, 1081951, Note_off_c, 0, 60, 50
2, 1081953, Note_on_c, 0, 57, 40
2, 1082068, Note_off_c, 0, 57, 50
2, 1082070, Note_on_c, 0, 60, 38
2, 1082135, Control_c, 0, 64, 95
2, 1082165, Note_off_c, 0, 60, 49
2, 1082168, Note_on_c, 0, 52, 36
2, 1082169, Note_on_c, 0, 72, 50
2, 1082282, Note_off_c, 0, 72, 52
2, 1082284, Note_off_c, 0, 52, 49
2, 1082285, Note_on_c, 0, 84, 48
2, 1082287, Note_on_c, 0, 60, 36
2, 1082366, Note_off_c, 0, 84, 52
2, 1082397, Note_off_c, 0, 60, 49
2, 1082400, Note_on_c, 0, 45, 36
2, 1082402, Note_on_c, 0, 69, 48
2, 1082439, Control_c, 0, 64, 20
2, 1082516, Note_off_c, 0, 45, 49
2, 1082518, Note_on_c, 0, 60, 38
2, 1082632, Note_off_c, 0, 60, 49
2, 1082635, Note_on_c, 0, 81, 67
2, 1082637, Note_on_c, 0, 57, 40
2, 1082733, Note_off_c, 0, 57, 50
2, 1082735, Note_on_c, 0, 60, 43
2, 1082849, Note_off_c, 0, 60, 50
2, 1082852, Note_on_c, 0, 52, 45
2, 1082966, Note_off_c, 0, 52, 51
2, 1082969, Note_on_c, 0, 60, 48
2, 1083083, Note_off_c, 0, 60, 52
2, 1083086, Note_on_c, 0, 40, 50
2, 1083200, Note_off_c, 0, 40, 52
2, 1083202, Note_on_c, 0, 62, 52
2, 1083317, Note_off_c, 0, 81, 57
2, 1083319, Note_off_c, 0, 62, 53
2, 1083321, Note_off_c, 0, 69, 52
2, 1083324, Note_on_c, 0, 83, 76
2, 1083326, Note_on_c, 0, 59, 55
2, 1083327, Note_on_c, 0, 71, 68
2, 1083418, Note_off_c, 0, 59, 53
2, 1083422, Note_on_c, 0, 62, 57
2, 1083486, Note_off_c, 0, 83, 58
2, 1083490, Note_off_c, 0, 71, 57
2, 1083534, Note_off_c, 0, 62, 54
2, 1083539, Note_on_c, 0, 52, 60
2, 1083541, Note_on_c, 0, 80, 84
2, 1083542, Note_on_c, 0, 68, 76
2, 1083653, Note_off_c, 0, 80, 61
2, 1083655, Note_off_c, 0, 52, 55
2, 1083657, Note_off_c, 0, 68, 59
2, 1083658, Note_on_c, 0, 62, 60
2, 1083768, Note_off_c, 0, 62, 55
2, 1083772, Note_on_c, 0, 81, 60
2, 1083774, Note_on_c, 0, 45, 48
2, 1083776, Note_on_c, 0, 69, 52
2, 1083886, Note_off_c, 0, 45, 52
2, 1083888, Note_on_c, 0, 60, 48
2, 1084003, Note_off_c, 0, 81, 55
2, 1084005, Note_off_c, 0, 69, 53
2, 1084008, Note_off_c, 0, 60, 52
2, 1084009, Note_on_c, 0, 57, 42
2, 1084104, Note_off_c, 0, 57, 50
2, 1084107, Note_on_c, 0, 69, 48
2, 1084108, Note_on_c, 0, 60, 36
2, 1084115, Control_c, 0, 64, 95
2, 1084220, Note_off_c, 0, 60, 49
2, 1084223, Note_off_c, 0, 69, 52
2, 1084225, Note_on_c, 0, 52, 36
2, 1084227, Note_on_c, 0, 81, 48
2, 1084337, Note_off_c, 0, 52, 49
2, 1084339, Note_off_c, 0, 81, 52
2, 1084342, Note_on_c, 0, 60, 37
2, 1084343, Note_on_c, 0, 69, 49
2, 1084422, Note_off_c, 0, 69, 52
2, 1084453, Note_off_c, 0, 60, 49
2, 1084457, Note_on_c, 0, 72, 50
2, 1084458, Control_c, 0, 64, 20
2, 1084461, Note_on_c, 0, 45, 38
2, 1084516, Note_off_c, 0, 72, 52
2, 1084571, Note_off_c, 0, 45, 49
2, 1084573, Note_on_c, 0, 60, 40
2, 1084688, Note_off_c, 0, 60, 50
2, 1084691, Note_on_c, 0, 57, 41
2, 1084778, Control_c, 0, 64, 95
2, 1084789, Note_off_c, 0, 57, 50
2, 1084791, Note_on_c, 0, 72, 54
2, 1084793, Note_on_c, 0, 60, 42
2, 1084906, Note_off_c, 0, 60, 50
2, 1084909, Note_off_c, 0, 72, 53
2, 1084912, Note_on_c, 0, 52, 44
2, 1084912, Note_on_c, 0, 84, 55
2, 1085024, Note_off_c, 0, 52, 51
2, 1085025, Note_off_c, 0, 84, 53
2, 1085029, Note_on_c, 0, 60, 45
2, 1085029, Note_on_c, 0, 72, 56
2, 1085139, Note_off_c, 0, 60, 51
2, 1085140, Note_off_c, 0, 72, 54
2, 1085143, Note_on_c, 0, 45, 46
2, 1085145, Note_on_c, 0, 76, 57
2, 1085158, Control_c, 0, 64, 20
2, 1085202, Note_off_c, 0, 76, 54
2, 1085256, Note_off_c, 0, 45, 51
2, 1085260, Note_on_c, 0, 60, 48
2, 1085358, Note_off_c, 0, 60, 52
2, 1085360, Note_on_c, 0, 57, 48
2, 1085461, Control_c, 0, 64, 95
2, 1085475, Note_off_c, 0, 57, 52
2, 1085477, Note_on_c, 0, 60, 47
2, 1085479, Note_on_c, 0, 76, 60
2, 1085592, Note_off_c, 0, 60, 51
2, 1085594, Note_off_c, 0, 76, 55
2, 1085596, Note_on_c, 0, 88, 60
2, 1085597, Note_on_c, 0, 52, 46
2, 1085708, Note_off_c, 0, 52, 51
2, 1085711, Note_off_c, 0, 88, 55
2, 1085713, Note_on_c, 0, 60, 44
2, 1085714, Note_on_c, 0, 76, 59
2, 1085820, Control_c, 0, 64, 20
2, 1085825, Note_off_c, 0, 60, 51
2, 1085827, Note_off_c, 0, 76, 54
2, 1085830, Note_on_c, 0, 45, 43
2, 1085831, Note_on_c, 0, 72, 57
2, 1085884, Note_off_c, 0, 72, 54
2, 1085941, Note_off_c, 0, 45, 50
2, 1085944, Note_on_c, 0, 60, 42
2, 1086040, Note_off_c, 0, 60, 50
2, 1086042, Note_on_c, 0, 57, 40
2, 1086132, Control_c, 0, 64, 95
2, 1086157, Note_off_c, 0, 57, 50
2, 1086159, Note_on_c, 0, 60, 39
2, 1086161, Note_on_c, 0, 72, 52
2, 1086273, Note_off_c, 0, 72, 53
2, 1086275, Note_off_c, 0, 60, 49
2, 1086278, Note_on_c, 0, 88, 50
2, 1086280, Note_on_c, 0, 52, 38
2, 1086390, Note_off_c, 0, 88, 52
2, 1086392, Note_off_c, 0, 52, 49
2, 1086395, Note_on_c, 0, 72, 48
2, 1086397, Note_on_c, 0, 60, 36
2, 1086434, Control_c, 0, 64, 20
2, 1086479, Note_off_c, 0, 72, 52
2, 1086509, Note_off_c, 0, 60, 49
2, 1086512, Note_on_c, 0, 69, 48
2, 1086513, Note_on_c, 0, 45, 36
2, 1086624, Note_off_c, 0, 45, 49
2, 1086627, Note_on_c, 0, 60, 38
2, 1086726, Note_off_c, 0, 60, 49
2, 1086729, Note_on_c, 0, 81, 68
2, 1086730, Note_on_c, 0, 57, 40
2, 1086843, Note_off_c, 0, 57, 50
2, 1086845, Note_on_c, 0, 60, 43
2, 1086960, Note_off_c, 0, 60, 50
2, 1086962, Note_on_c, 0, 52, 45
2, 1087076, Note_off_c, 0, 52, 51
2, 1087079, Note_on_c, 0, 60, 48
2, 1087193, Note_off_c, 0, 60, 52
2, 1087195, Note_on_c, 0, 40, 50
2, 1087294, Note_off_c, 0, 40, 52
2, 1087296, Note_on_c, 0, 62, 52
2, 1087411, Note_off_c, 0, 81, 57
2, 1087412, Note_off_c, 0, 62, 53
2, 1087415, Note_off_c, 0, 69, 52
2, 1087418, Note_on_c, 0, 59, 55
2, 1087419, Note_on_c, 0, 83, 76
2, 1087425, Note_on_c, 0, 71, 64
2, 1087528, Note_off_c, 0, 59, 53
2, 1087529, Note_on_c, 0, 62, 57
2, 1087596, Note_off_c, 0, 83, 59
2, 1087605, Note_off_c, 0, 71, 56
2, 1087643, Note_off_c, 0, 62, 54
2, 1087646, Note_on_c, 0, 80, 84
2, 1087648, Note_on_c, 0, 52, 60
2, 1087656, Note_on_c, 0, 68, 72
2, 1087761, Note_off_c, 0, 80, 61
2, 1087763, Note_off_c, 0, 52, 55
2, 1087765, Note_on_c, 0, 62, 60
2, 1087771, Note_off_c, 0, 68, 58
2, 1087877, Note_off_c, 0, 62, 55
2, 1087880, Note_on_c, 0, 81, 48
2, 1087882, Note_on_c, 0, 45, 36
2, 1087892, Note_on_c, 0, 69, 36
2, 1087980, Note_off_c, 0, 45, 49
2, 1087983, Note_on_c, 0, 57, 36
2, 1088097, Note_off_c, 0, 81, 52
2, 1088099, Note_off_c, 0, 57, 49
2, 1088099, Note_on_c, 0, 83, 55
2, 1088101, Note_on_c, 0, 56, 40
2, 1088105, Note_off_c, 0, 69, 48
2, 1088110, Note_on_c, 0, 71, 43
2, 1088211, Note_off_c, 0, 56, 50
2, 1088215, Note_on_c, 0, 57, 45
2, 1088330, Note_off_c, 0, 83, 53
2, 1088333, Note_off_c, 0, 57, 51
2, 1088333, Note_on_c, 0, 85, 69
2, 1088335, Note_on_c, 0, 55, 50
2, 1088338, Note_off_c, 0, 71, 50
2, 1088344, Note_on_c, 0, 73, 57
2, 1088447, Note_off_c, 0, 55, 52
2, 1088450, Note_on_c, 0, 57, 55
2, 1088564, Note_off_c, 0, 85, 57
2, 1088567, Note_off_c, 0, 57, 53
2, 1088567, Note_on_c, 0, 86, 84
2, 1088568, Note_on_c, 0, 53, 60
2, 1088573, Note_off_c, 0, 73, 54
2, 1088578, Note_on_c, 0, 74, 72
2, 1088664, Note_off_c, 0, 53, 55
2, 1088667, Note_on_c, 0, 57, 60
2, 1088781, Note_off_c, 0, 86, 61
2, 1088784, Note_off_c, 0, 57, 55
2, 1088786, Note_on_c, 0, 84, 77
2, 1088788, Note_on_c, 0, 52, 56
2, 1088791, Note_off_c, 0, 74, 58
2, 1088793, Note_on_c, 0, 72, 65
2, 1088898, Note_off_c, 0, 52, 54
2, 1088901, Note_on_c, 0, 57, 51
2, 1089014, Note_off_c, 0, 84, 59
2, 1089017, Note_off_c, 0, 57, 52
2, 1089020, Note_on_c, 0, 83, 63
2, 1089021, Note_on_c, 0, 51, 46
2, 1089024, Note_off_c, 0, 72, 56
2, 1089027, Note_on_c, 0, 71, 51
2, 1089131, Note_off_c, 0, 51, 51
2, 1089135, Note_on_c, 0, 57, 41
2, 1089181, Note_off_c, 0, 83, 55
2, 1089192, Note_off_c, 0, 71, 52
2, 1089249, Note_off_c, 0, 57, 50
2, 1089251, Note_on_c, 0, 84, 48
2, 1089253, Note_on_c, 0, 52, 36
2, 1089260, Note_on_c, 0, 72, 37
2, 1089350, Note_off_c, 0, 52, 49
2, 1089352, Note_on_c, 0, 57, 38
2, 1089468, Note_off_c, 0, 57, 49
2, 1089470, Note_off_c, 0, 84, 52
2, 1089473, Note_on_c, 0, 80, 54
2, 1089474, Note_on_c, 0, 59, 39
2, 1089476, Note_off_c, 0, 72, 49
2, 1089480, Note_on_c, 0, 68, 42
2, 1089585, Note_off_c, 0, 59, 49
2, 1089587, Note_on_c, 0, 52, 42
2, 1089700, Note_off_c, 0, 52, 50
2, 1089701, Note_off_c, 0, 80, 53
2, 1089704, Note_on_c, 0, 81, 60
2, 1089706, Note_on_c, 0, 60, 45
2, 1089711, Note_off_c, 0, 68, 50
2, 1089713, Note_on_c, 0, 69, 48
2, 1089819, Note_off_c, 0, 60, 51
2, 1089821, Note_on_c, 0, 52, 48
2, 1089868, Note_off_c, 0, 81, 55
2, 1089876, Note_off_c, 0, 69, 52
2, 1089919, Note_off_c, 0, 52, 52
2, 1089921, Note_on_c, 0, 83, 60
2, 1089922, Note_on_c, 0, 62, 48
2, 1089927, Note_on_c, 0, 71, 47
2, 1090033, Note_off_c, 0, 62, 52
2, 1090035, Note_on_c, 0, 52, 46
2, 1090150, Note_off_c, 0, 83, 55
2, 1090152, Note_off_c, 0, 52, 51
2, 1090155, Note_on_c, 0, 78, 54
2, 1090157, Note_on_c, 0, 60, 44
2, 1090161, Note_off_c, 0, 71, 51
2, 1090164, Note_on_c, 0, 66, 42
2, 1090267, Note_off_c, 0, 60, 51
2, 1090269, Note_on_c, 0, 52, 41
2, 1090386, Note_off_c, 0, 52, 50
2, 1090388, Note_off_c, 0, 78, 53
2, 1090391, Note_on_c, 0, 80, 48
2, 1090393, Note_on_c, 0, 59, 39
2, 1090395, Note_off_c, 0, 66, 50
2, 1090397, Note_on_c, 0, 68, 36
2, 1090501, Note_off_c, 0, 59, 49
2, 1090502, Note_on_c, 0, 52, 36
2, 1090552, Note_off_c, 0, 80, 52
2, 1090560, Note_off_c, 0, 68, 49
2, 1090600, Note_off_c, 0, 52, 49
2, 1090603, Note_on_c, 0, 69, 32
2, 1090605, Note_on_c, 0, 45, 29
2, 1090717, Note_off_c, 0, 69, 48
2, 1090719, Note_off_c, 0, 45, 47
2, 1090722, Note_on_c, 0, 81, 44
2, 1090724, Note_on_c, 0, 57, 32
2, 1090834, Note_off_c, 0, 81, 51
2, 1090836, Note_off_c, 0, 57, 48
2, 1090839, Note_on_c, 0, 71, 45
2, 1090841, Note_on_c, 0, 56, 36
2, 1090951, Note_off_c, 0, 71, 51
2, 1090953, Note_off_c, 0, 56, 49
2, 1090955, Note_on_c, 0, 83, 60
2, 1090957, Note_on_c, 0, 57, 42
2, 1091067, Note_off_c, 0, 83, 55
2, 1091069, Note_off_c, 0, 57, 50
2, 1091072, Note_on_c, 0, 73, 61
2, 1091074, Note_on_c, 0, 55, 46
2, 1091184, Note_off_c, 0, 73, 55
2, 1091187, Note_off_c, 0, 55, 51
2, 1091189, Note_on_c, 0, 85, 78
2, 1091191, Note_on_c, 0, 57, 52
2, 1091287, Note_off_c, 0, 85, 59
2, 1091289, Note_off_c, 0, 57, 53
2, 1091290, Note_on_c, 0, 74, 73
2, 1091291, Note_on_c, 0, 53, 55
2, 1091402, Note_off_c, 0, 74, 58
2, 1091406, Note_off_c, 0, 53, 53
2, 1091408, Note_on_c, 0, 86, 81
2, 1091409, Note_on_c, 0, 57, 55
2, 1091520, Note_off_c, 0, 86, 60
2, 1091521, Note_off_c, 0, 57, 53
2, 1091525, Note_on_c, 0, 72, 53
2, 1091527, Note_on_c, 0, 52, 42
2, 1091637, Note_off_c, 0, 72, 53
2, 1091639, Note_off_c, 0, 52, 50
2, 1091642, Note_on_c, 0, 84, 54
2, 1091644, Note_on_c, 0, 57, 38
2, 1091754, Note_off_c, 0, 84, 53
2, 1091756, Note_off_c, 0, 57, 49
2, 1091759, Note_on_c, 0, 71, 41
2, 1091761, Note_on_c, 0, 51, 34
2, 1091871, Note_off_c, 0, 71, 50
2, 1091873, Note_off_c, 0, 51, 48
2, 1091875, Note_on_c, 0, 83, 42
2, 1091877, Note_on_c, 0, 57, 30
2, 1091971, Note_off_c, 0, 83, 50
2, 1091973, Note_off_c, 0, 57, 47
2, 1091976, Note_on_c, 0, 52, 36
2, 1091978, Note_on_c, 0, 72, 40
2, 1092088, Note_off_c, 0, 52, 49
2, 1092090, Note_off_c, 0, 72, 50
2, 1092092, Note_on_c, 0, 57, 36
2, 1092093, Note_on_c, 0, 84, 48
2, 1092205, Note_off_c, 0, 57, 49
2, 1092206, Note_off_c, 0, 84, 52
2, 1092209, Note_on_c, 0, 65, 37
2, 1092211, Note_on_c, 0, 68, 41
2, 1092321, Note_off_c, 0, 65, 49
2, 1092323, Note_off_c, 0, 68, 50
2, 1092326, Note_on_c, 0, 52, 38
2, 1092328, Note_on_c, 0, 80, 50
2, 1092438, Note_off_c, 0, 52, 49
2, 1092440, Note_off_c, 0, 80, 52
2, 1092443, Note_on_c, 0, 64, 39
2, 1092445, Note_on_c, 0, 69, 43
2, 1092541, Note_off_c, 0, 64, 49
2, 1092543, Note_off_c, 0, 69, 50
2, 1092544, Note_on_c, 0, 52, 40
2, 1092545, Note_on_c, 0, 81, 52
2, 1092658, Note_off_c, 0, 52, 50
2, 1092659, Note_off_c, 0, 81, 53
2, 1092661, Note_on_c, 0, 62, 40
2, 1092662, Note_on_c, 0, 71, 44
2, 1092775, Note_off_c, 0, 62, 50
2, 1092776, Note_off_c, 0, 71, 51
2, 1092778, Note_on_c, 0, 52, 40
2, 1092779, Note_on_c, 0, 83, 52
2, 1092892, Note_off_c, 0, 52, 50
2, 1092893, Note_off_c, 0, 83, 53
2, 1092895, Note_on_c, 0, 60, 39
2, 1092895, Note_on_c, 0, 66, 43
2, 1093009, Note_off_c, 0, 60, 49
2, 1093010, Note_off_c, 0, 66, 50
2, 1093012, Note_on_c, 0, 52, 38
2, 1093012, Note_on_c, 0, 80, 50
2, 1093125, Note_off_c, 0, 52, 49
2, 1093127, Note_off_c, 0, 80, 52
2, 1093129, Note_on_c, 0, 59, 37
2, 1093129, Note_on_c, 0, 68, 41
2, 1093226, Note_off_c, 0, 59, 49
2, 1093227, Note_off_c, 0, 68, 50
2, 1093231, Note_on_c, 0, 80, 48
2, 1093231, Note_on_c, 0, 52, 36
2, 1093342, Note_off_c, 0, 52, 49
2, 1093344, Note_off_c, 0, 80, 52
2, 1093347, Note_on_c, 0, 45, 60
2, 1093348, Note_on_c, 0, 69, 64
2, 1093459, Note_off_c, 0, 45, 55
2, 1093461, Note_off_c, 0, 69, 56
2, 1093464, Note_on_c, 0, 81, 48
2, 1093465, Note_on_c, 0, 57, 36
2, 1093576, Note_off_c, 0, 81, 52
2, 1093578, Note_on_c, 0, 68, 48
2, 1093581, Note_on_c, 0, 56, 36
2, 1093583, Note_off_c, 0, 57, 49
2, 1093693, Note_on_c, 0, 69, 46
2, 1093695, Note_on_c, 0, 57, 32
2, 1093698, Note_off_c, 0, 56, 49
2, 1093704, Note_off_c, 0, 68, 52
2, 1093810, Note_off_c, 0, 57, 48
2, 1093812, Note_off_c, 0, 69, 51
2, 1093814, Note_on_c, 0, 45, 28
2, 1093815, Note_on_c, 0, 81, 44
2, 1093912, Note_off_c, 0, 45, 47
2, 1093914, Note_off_c, 0, 81, 51
2, 1093915, Note_on_c, 0, 57, 24
2, 1093916, Note_on_c, 0, 69, 42
2, 1094026, Note_on_c, 0, 68, 72
2, 1094028, Note_on_c, 0, 56, 60
2, 1094048, Note_off_c, 0, 69, 50
2, 1094050, Note_off_c, 0, 57, 46
2, 1094144, Note_on_c, 0, 69, 48
2, 1094145, Note_on_c, 0, 57, 36
2, 1094152, Note_off_c, 0, 68, 58
2, 1094174, Note_off_c, 0, 56, 55
2, 1094260, Note_off_c, 0, 57, 49
2, 1094262, Note_off_c, 0, 69, 52
2, 1094265, Note_on_c, 0, 45, 36
2, 1094266, Note_on_c, 0, 81, 48
2, 1094379, Note_off_c, 0, 45, 49
2, 1094382, Note_off_c, 0, 81, 52
2, 1094383, Note_on_c, 0, 57, 32
2, 1094384, Note_on_c, 0, 69, 46
2, 1094495, Note_on_c, 0, 68, 44
2, 1094498, Note_on_c, 0, 56, 28
2, 1094508, Note_off_c, 0, 57, 48
2, 1094515, Note_off_c, 0, 69, 51
2, 1094596, Note_on_c, 0, 69, 42
2, 1094598, Note_on_c, 0, 57, 24
2, 1094604, Note_off_c, 0, 68, 51
2, 1094610, Note_off_c, 0, 56, 47
2, 1094710, Note_off_c, 0, 69, 50
2, 1094713, Note_off_c, 0, 57, 46
2, 1094716, Note_on_c, 0, 81, 72
2, 1094718, Note_on_c, 0, 45, 60
2, 1094827, Note_off_c, 0, 81, 58
2, 1094829, Note_off_c, 0, 45, 55
2, 1094832, Note_on_c, 0, 69, 48
2, 1094834, Note_on_c, 0, 57, 36
2, 1094946, Note_on_c, 0, 68, 48
2, 1094948, Note_on_c, 0, 56, 36
2, 1094957, Note_off_c, 0, 57, 49
2, 1094966, Note_off_c, 0, 69, 52
2, 1095063, Note_on_c, 0, 69, 46
2, 1095065, Note_on_c, 0, 57, 32
2, 1095085, Note_off_c, 0, 56, 49
2, 1095091, Note_off_c, 0, 68, 52
2, 1095161, Note_off_c, 0, 69, 51
2, 1095163, Note_off_c, 0, 57, 48
2, 1095166, Note_on_c, 0, 45, 28
2, 1095168, Note_on_c, 0, 81, 44
2, 1095278, Note_off_c, 0, 81, 51
2, 1095280, Note_off_c, 0, 45, 47
2, 1095283, Note_on_c, 0, 69, 42
2, 1095285, Note_on_c, 0, 57, 24
2, 1095397, Note_on_c, 0, 56, 60
2, 1095399, Note_on_c, 0, 68, 72
2, 1095405, Note_off_c, 0, 57, 46
2, 1095407, Note_off_c, 0, 69, 50
2, 1095516, Note_on_c, 0, 69, 48
2, 1095517, Note_on_c, 0, 57, 36
2, 1095538, Note_off_c, 0, 68, 58
2, 1095542, Note_off_c, 0, 56, 55
2, 1095629, Note_off_c, 0, 69, 52
2, 1095630, Note_off_c, 0, 57, 49
2, 1095633, Note_on_c, 0, 45, 36
2, 1095635, Note_on_c, 0, 81, 48
2, 1095746, Note_off_c, 0, 81, 52
2, 1095747, Note_off_c, 0, 45, 49
2, 1095750, Note_on_c, 0, 57, 36
2, 1095752, Note_on_c, 0, 69, 46
2, 1095850, Note_on_c, 0, 56, 36
2, 1095852, Note_on_c, 0, 68, 44
2, 1095855, Note_off_c, 0, 57, 49
2, 1095866, Note_off_c, 0, 69, 51
2, 1095967, Note_on_c, 0, 57, 36
2, 1095969, Note_on_c, 0, 69, 42
2, 1095981, Note_off_c, 0, 56, 49
2, 1095986, Note_off_c, 0, 68, 51
2, 1096081, Note_off_c, 0, 57, 49
2, 1096083, Note_off_c, 0, 69, 50
2, 1096086, Note_on_c, 0, 67, 40
2, 1096087, Note_on_c, 0, 61, 30
2, 1096088, Note_on_c, 0, 70, 48
2, 1096089, Note_on_c, 0, 64, 36
2, 1096120, Control_c, 0, 64, 96
2, 1096199, Note_on_c, 0, 69, 48
2, 1096210, Note_off_c, 0, 70, 52
2, 1096314, Note_off_c, 0, 67, 50
2, 1096317, Note_off_c, 0, 61, 47
2, 1096319, Note_off_c, 0, 64, 49
2, 1096320, Note_on_c, 0, 70, 50
2, 1096341, Note_off_c, 0, 69, 52
2, 1096433, Note_on_c, 0, 69, 52
2, 1096453, Note_off_c, 0, 70, 52
2, 1096532, Note_on_c, 0, 70, 55
2, 1096561, Note_off_c, 0, 69, 53
2, 1096595, Control_c, 0, 64, 20
2, 1096649, Note_on_c, 0, 69, 57
2, 1096696, Note_off_c, 0, 70, 53
2, 1096766, Note_on_c, 0, 70, 60
2, 1096798, Note_off_c, 0, 69, 54
2, 1096883, Note_on_c, 0, 69, 60
2, 1096890, Note_off_c, 0, 70, 55
2, 1097000, Note_on_c, 0, 70, 59
2, 1097041, Note_off_c, 0, 69, 55
2, 1097117, Note_on_c, 0, 69, 57
2, 1097147, Note_off_c, 0, 70, 54
2, 1097218, Note_on_c, 0, 70, 56
2, 1097236, Note_off_c, 0, 69, 54
2, 1097334, Note_on_c, 0, 69, 54
2, 1097359, Note_off_c, 0, 70, 54
2, 1097451, Note_on_c, 0, 70, 53
2, 1097472, Note_off_c, 0, 69, 53
2, 1097568, Note_on_c, 0, 69, 51
2, 1097602, Note_off_c, 0, 70, 53
2, 1097686, Note_on_c, 0, 70, 50
2, 1097734, Note_off_c, 0, 69, 52
2, 1097786, Note_on_c, 0, 69, 48
2, 1097796, Note_off_c, 0, 70, 52
2, 1097903, Note_on_c, 0, 73, 48
2, 1097912, Note_off_c, 0, 69, 52
2, 1098020, Note_on_c, 0, 69, 51
2, 1098035, Note_off_c, 0, 73, 52
2, 1098137, Note_on_c, 0, 74, 54
2, 1098152, Note_off_c, 0, 69, 52
2, 1098254, Note_on_c, 0, 69, 58
2, 1098279, Note_off_c, 0, 74, 53
2, 1098370, Note_on_c, 0, 76, 61
2, 1098378, Note_off_c, 0, 69, 54
2, 1098470, Note_on_c, 0, 69, 65
2, 1098490, Note_off_c, 0, 76, 55
2, 1098587, Note_off_c, 0, 69, 56
2, 1098589, Note_on_c, 0, 77, 68
2, 1098704, Note_on_c, 0, 76, 72
2, 1098718, Note_off_c, 0, 77, 57
2, 1098823, Note_on_c, 0, 75, 48
2, 1098825, Note_on_c, 0, 66, 36
2, 1098828, Note_off_c, 0, 76, 58
2, 1098846, Control_c, 0, 64, 96
2, 1098909, Note_off_c, 0, 75, 52
2, 1098937, Note_on_c, 0, 69, 36
2, 1099056, Note_on_c, 0, 72, 38
2, 1099073, Note_off_c, 0, 69, 49
2, 1099157, Note_on_c, 0, 75, 43
2, 1099173, Note_off_c, 0, 72, 49
2, 1099271, Note_off_c, 0, 75, 50
2, 1099274, Note_on_c, 0, 81, 43
2, 1099284, Control_c, 0, 64, 20
2, 1099372, Note_off_c, 0, 66, 49
2, 1099390, Note_on_c, 0, 82, 45
2, 1099409, Note_off_c, 0, 81, 50
2, 1099505, Note_on_c, 0, 84, 48
2, 1099507, Note_on_c, 0, 66, 47
2, 1099514, Note_off_c, 0, 82, 51
2, 1099529, Control_c, 0, 64, 96
2, 1099584, Note_off_c, 0, 84, 52
2, 1099621, Note_on_c, 0, 69, 49
2, 1099741, Note_on_c, 0, 72, 52
2, 1099743, Note_off_c, 0, 69, 52
2, 1099839, Note_on_c, 0, 75, 43
2, 1099851, Note_off_c, 0, 72, 53
2, 1099928, Control_c, 0, 64, 20
2, 1099956, Note_off_c, 0, 75, 50
2, 1099958, Note_on_c, 0, 81, 43
2, 1099988, Note_off_c, 0, 66, 51
2, 1100074, Note_on_c, 0, 82, 45
2, 1100084, Note_off_c, 0, 81, 50
2, 1100190, Note_on_c, 0, 66, 61
2, 1100191, Note_on_c, 0, 84, 48
2, 1100209, Note_off_c, 0, 82, 51
2, 1100220, Control_c, 0, 64, 96
2, 1100269, Note_off_c, 0, 84, 52
2, 1100307, Note_on_c, 0, 69, 63
2, 1100407, Note_on_c, 0, 72, 65
2, 1100423, Note_off_c, 0, 69, 55
2, 1100526, Note_on_c, 0, 75, 42
2, 1100528, Note_off_c, 0, 72, 56
2, 1100640, Note_off_c, 0, 75, 50
2, 1100643, Note_on_c, 0, 81, 42
2, 1100659, Control_c, 0, 64, 20
2, 1100734, Note_off_c, 0, 66, 55
2, 1100759, Note_on_c, 0, 82, 45
2, 1100785, Note_off_c, 0, 81, 50
2, 1100876, Note_on_c, 0, 66, 70
2, 1100878, Note_on_c, 0, 84, 48
2, 1100883, Control_c, 0, 64, 96
2, 1100888, Note_off_c, 0, 82, 51
2, 1100965, Note_off_c, 0, 84, 52
2, 1100993, Note_on_c, 0, 69, 70
2, 1101093, Note_on_c, 0, 72, 71
2, 1101096, Note_off_c, 0, 69, 57
2, 1101210, Note_on_c, 0, 74, 52
2, 1101213, Note_off_c, 0, 72, 58
2, 1101327, Note_off_c, 0, 74, 53
2, 1101329, Note_on_c, 0, 84, 56
2, 1101350, Control_c, 0, 64, 20
2, 1101443, Note_on_c, 0, 81, 60
2, 1101463, Note_off_c, 0, 66, 57
2, 1101465, Note_off_c, 0, 84, 54
2, 1101563, Note_on_c, 0, 82, 84
2, 1101565, Note_on_c, 0, 31, 72
2, 1101581, Note_off_c, 0, 81, 55
2, 1101603, Control_c, 0, 64, 96
2, 1101647, Note_off_c, 0, 82, 61
2, 1101677, Note_on_c, 0, 34, 72
2, 1101778, Note_on_c, 0, 38, 74
2, 1101894, Note_on_c, 0, 46, 72
2, 1101897, Note_on_c, 0, 43, 76
2, 1102012, Note_off_c, 0, 46, 58
2, 1102014, Note_on_c, 0, 50, 72
2, 1102042, Control_c, 0, 64, 20
2, 1102077, Note_off_c, 0, 31, 58
2, 1102128, Note_off_c, 0, 50, 58
2, 1102133, Note_on_c, 0, 55, 78
2, 1102134, Note_off_c, 0, 43, 59
2, 1102137, Note_off_c, 0, 34, 58
2, 1102160, Note_off_c, 0, 38, 59
2, 1102247, Note_on_c, 0, 43, 83
2, 1102249, Note_on_c, 0, 58, 84
2, 1102277, Note_off_c, 0, 55, 59
2, 1102321, Note_off_c, 0, 58, 61
2, 1102345, Control_c, 0, 64, 96
2, 1102364, Note_on_c, 0, 46, 85
2, 1102461, Note_on_c, 0, 50, 87
2, 1102578, Note_on_c, 0, 58, 72
2, 1102580, Note_on_c, 0, 55, 89
2, 1102627, Control_c, 0, 64, 20
2, 1102695, Note_off_c, 0, 58, 58
2, 1102697, Note_on_c, 0, 62, 72
2, 1102756, Note_off_c, 0, 43, 60
2, 1102781, Note_off_c, 0, 50, 61
2, 1102811, Note_off_c, 0, 62, 58
2, 1102814, Note_on_c, 0, 67, 78
2, 1102817, Note_off_c, 0, 55, 62
2, 1102833, Note_off_c, 0, 46, 61
2, 1102929, Note_on_c, 0, 70, 84
2, 1102931, Note_on_c, 0, 55, 94
2, 1102940, Note_off_c, 0, 67, 59
2, 1102959, Control_c, 0, 64, 96
2, 1103020, Note_off_c, 0, 70, 61
2, 1103029, Note_on_c, 0, 58, 94
2, 1103146, Note_on_c, 0, 62, 95
2, 1103264, Note_on_c, 0, 70, 72
2, 1103267, Note_on_c, 0, 67, 96
2, 1103309, Control_c, 0, 64, 20
2, 1103381, Note_off_c, 0, 70, 58
2, 1103384, Note_on_c, 0, 74, 72
2, 1103424, Note_off_c, 0, 55, 63
2, 1103439, Note_off_c, 0, 58, 63
2, 1103498, Note_off_c, 0, 74, 58
2, 1103500, Note_off_c, 0, 62, 63
2, 1103501, Note_on_c, 0, 79, 78
2, 1103547, Note_off_c, 0, 67, 63
2, 1103615, Note_on_c, 0, 82, 84
2, 1103617, Note_on_c, 0, 67, 60
2, 1103631, Note_off_c, 0, 79, 59
2, 1103693, Note_off_c, 0, 82, 61
2, 1103715, Note_off_c, 0, 67, 55
2, 1103717, Note_on_c, 0, 70, 60
2, 1103832, Note_off_c, 0, 70, 55
2, 1103834, Note_on_c, 0, 74, 56
2, 1103949, Note_off_c, 0, 74, 54
2, 1103951, Note_on_c, 0, 77, 72
2, 1103953, Note_on_c, 0, 72, 51
2, 1104065, Note_off_c, 0, 77, 58
2, 1104068, Note_off_c, 0, 72, 52
2, 1104070, Note_on_c, 0, 71, 46
2, 1104072, Note_on_c, 0, 83, 60
2, 1104182, Note_off_c, 0, 71, 51
2, 1104185, Note_on_c, 0, 69, 41
2, 1104187, Note_on_c, 0, 84, 60
2, 1104189, Note_off_c, 0, 83, 55
2, 1104266, Note_off_c, 0, 69, 50
2, 1104300, Note_on_c, 0, 86, 48
2, 1104301, Note_on_c, 0, 68, 36
2, 1104313, Note_off_c, 0, 84, 55
2, 1104323, Control_c, 0, 64, 96
2, 1104391, Note_off_c, 0, 86, 52
2, 1104401, Note_on_c, 0, 71, 36
2, 1104517, Note_on_c, 0, 74, 38
2, 1104528, Note_off_c, 0, 71, 49
2, 1104634, Note_on_c, 0, 77, 43
2, 1104639, Note_off_c, 0, 74, 49
2, 1104694, Control_c, 0, 64, 20
2, 1104751, Note_off_c, 0, 77, 50
2, 1104752, Note_on_c, 0, 83, 43
2, 1104785, Note_off_c, 0, 68, 49
2, 1104868, Note_on_c, 0, 84, 45
2, 1104880, Note_off_c, 0, 83, 50
2, 1104961, Note_off_c, 0, 84, 51
2, 1104987, Note_on_c, 0, 86, 48
2, 1104987, Note_on_c, 0, 68, 35
2, 1105005, Control_c, 0, 64, 96
2, 1105073, Note_off_c, 0, 86, 52
2, 1105085, Note_on_c, 0, 71, 49
2, 1105203, Note_on_c, 0, 74, 52
2, 1105226, Note_off_c, 0, 71, 52
2, 1105320, Note_on_c, 0, 77, 43
2, 1105334, Note_off_c, 0, 74, 53
2, 1105425, Control_c, 0, 64, 20
2, 1105437, Note_off_c, 0, 77, 50
2, 1105439, Note_on_c, 0, 83, 43
2, 1105502, Note_off_c, 0, 68, 48
2, 1105554, Note_on_c, 0, 84, 45
2, 1105570, Note_off_c, 0, 83, 50
2, 1105647, Note_off_c, 0, 84, 51
2, 1105654, Note_on_c, 0, 86, 48
2, 1105656, Note_on_c, 0, 68, 49
2, 1105687, Control_c, 0, 64, 96
2, 1105750, Note_off_c, 0, 86, 52
2, 1105771, Note_on_c, 0, 71, 63
2, 1105887, Note_on_c, 0, 74, 65
2, 1105890, Note_off_c, 0, 71, 55
2, 1106004, Note_on_c, 0, 77, 43
2, 1106007, Note_off_c, 0, 74, 56
2, 1106117, Control_c, 0, 64, 20
2, 1106121, Note_off_c, 0, 77, 50
2, 1106123, Note_on_c, 0, 83, 43
2, 1106216, Note_off_c, 0, 68, 52
2, 1106239, Note_on_c, 0, 84, 45
2, 1106257, Note_off_c, 0, 83, 50
2, 1106326, Note_off_c, 0, 84, 51
2, 1106336, Note_on_c, 0, 86, 48
2, 1106338, Note_on_c, 0, 68, 58
2, 1106369, Control_c, 0, 64, 96
2, 1106424, Note_off_c, 0, 86, 52
2, 1106453, Note_on_c, 0, 71, 70
2, 1106572, Note_on_c, 0, 74, 71
2, 1106592, Note_off_c, 0, 71, 57
2, 1106688, Note_off_c, 0, 74, 58
2, 1106691, Note_on_c, 0, 76, 52
2, 1106769, Control_c, 0, 64, 20
2, 1106804, Note_off_c, 0, 76, 53
2, 1106807, Note_on_c, 0, 86, 56
2, 1106877, Note_off_c, 0, 68, 54
2, 1106924, Note_on_c, 0, 83, 60
2, 1106941, Note_off_c, 0, 86, 54
2, 1107025, Note_on_c, 0, 84, 84
2, 1107027, Note_on_c, 0, 33, 72
2, 1107037, Note_off_c, 0, 83, 55
2, 1107052, Control_c, 0, 64, 96
2, 1107125, Note_off_c, 0, 84, 61
2, 1107139, Note_on_c, 0, 36, 72
2, 1107255, Note_on_c, 0, 40, 74
2, 1107372, Note_on_c, 0, 48, 72
2, 1107374, Note_on_c, 0, 45, 76
2, 1107480, Control_c, 0, 64, 20
2, 1107493, Note_on_c, 0, 52, 72
2, 1107514, Note_off_c, 0, 48, 58
2, 1107533, Note_off_c, 0, 33, 58
2, 1107553, Note_off_c, 0, 36, 58
2, 1107592, Note_off_c, 0, 40, 59
2, 1107609, Note_on_c, 0, 57, 78
2, 1107627, Note_off_c, 0, 52, 58
2, 1107633, Note_off_c, 0, 45, 59
2, 1107706, Note_off_c, 0, 57, 59
2, 1107708, Note_on_c, 0, 60, 84
2, 1107711, Note_on_c, 0, 45, 83
2, 1107792, Control_c, 0, 64, 96
2, 1107796, Note_off_c, 0, 60, 61
2, 1107825, Note_on_c, 0, 48, 85
2, 1107940, Note_on_c, 0, 52, 87
2, 1108057, Note_on_c, 0, 60, 72
2, 1108059, Note_on_c, 0, 57, 89
2, 1108116, Control_c, 0, 64, 20
2, 1108176, Note_on_c, 0, 64, 72
2, 1108200, Note_off_c, 0, 60, 58
2, 1108215, Note_off_c, 0, 45, 60
2, 1108277, Note_on_c, 0, 69, 78
2, 1108281, Note_off_c, 0, 52, 61
2, 1108283, Note_off_c, 0, 48, 61
2, 1108297, Note_off_c, 0, 64, 58
2, 1108334, Note_off_c, 0, 57, 62
2, 1108394, Note_on_c, 0, 57, 94
2, 1108395, Note_on_c, 0, 72, 84
2, 1108398, Note_off_c, 0, 69, 59
2, 1108466, Control_c, 0, 64, 96
2, 1108479, Note_off_c, 0, 72, 61
2, 1108510, Note_on_c, 0, 60, 94
2, 1108627, Note_on_c, 0, 64, 95
2, 1108744, Note_on_c, 0, 72, 72
2, 1108745, Note_on_c, 0, 69, 96
2, 1108816, Control_c, 0, 64, 20
2, 1108861, Note_off_c, 0, 72, 58
2, 1108862, Note_on_c, 0, 76, 72
2, 1108960, Note_off_c, 0, 76, 58
2, 1108963, Note_on_c, 0, 81, 78
2, 1109055, Note_off_c, 0, 64, 63
2, 1109078, Note_off_c, 0, 81, 59
2, 1109080, Note_on_c, 0, 84, 84
2, 1109083, Note_off_c, 0, 57, 63
2, 1109095, Note_off_c, 0, 69, 63
2, 1109099, Note_off_c, 0, 60, 63
2, 1109153, Note_off_c, 0, 84, 61
2, 1109199, Note_on_c, 0, 45, 60
2, 1109311, Note_on_c, 0, 46, 60
2, 1109338, Note_off_c, 0, 45, 55
2, 1109410, Control_c, 0, 64, 96
2, 1109428, Note_on_c, 0, 43, 57
2, 1109445, Note_off_c, 0, 46, 55
2, 1109547, Note_on_c, 0, 52, 54
2, 1109580, Note_off_c, 0, 43, 54
2, 1109647, Note_on_c, 0, 50, 51
2, 1109675, Note_off_c, 0, 52, 53
2, 1109764, Note_on_c, 0, 49, 48
2, 1109781, Control_c, 0, 64, 20
2, 1109787, Note_off_c, 0, 50, 52
2, 1109851, Note_off_c, 0, 49, 52
2, 1109881, Note_on_c, 0, 58, 60
2, 1109997, Note_on_c, 0, 64, 60
2, 1110015, Note_off_c, 0, 58, 55
2, 1110115, Note_on_c, 0, 67, 61
2, 1110116, Note_on_c, 0, 49, 60
2, 1110121, Control_c, 0, 64, 96
2, 1110127, Note_off_c, 0, 64, 55
2, 1110231, Note_on_c, 0, 70, 62
2, 1110233, Note_on_c, 0, 55, 60
2, 1110249, Note_off_c, 0, 67, 55
2, 1110261, Note_off_c, 0, 49, 55
2, 1110317, Note_off_c, 0, 70, 55
2, 1110332, Note_on_c, 0, 53, 60
2, 1110353, Note_off_c, 0, 55, 55
2, 1110448, Note_on_c, 0, 52, 61
2, 1110472, Control_c, 0, 64, 20
2, 1110484, Note_off_c, 0, 53, 55
2, 1110530, Note_off_c, 0, 52, 55
2, 1110562, Note_on_c, 0, 61, 66
2, 1110682, Note_on_c, 0, 67, 68
2, 1110711, Note_off_c, 0, 61, 56
2, 1110799, Note_on_c, 0, 52, 64
2, 1110801, Note_on_c, 0, 70, 69
2, 1110818, Control_c, 0, 64, 96
2, 1110819, Note_off_c, 0, 67, 57
2, 1110901, Note_on_c, 0, 73, 70
2, 1110902, Note_on_c, 0, 58, 65
2, 1110925, Note_off_c, 0, 70, 57
2, 1110938, Note_off_c, 0, 52, 56
2, 1110985, Note_off_c, 0, 73, 57
2, 1111018, Note_on_c, 0, 57, 66
2, 1111041, Note_off_c, 0, 58, 56
2, 1111135, Note_on_c, 0, 55, 66
2, 1111155, Control_c, 0, 64, 20
2, 1111160, Note_off_c, 0, 57, 56
2, 1111215, Note_off_c, 0, 55, 56
2, 1111247, Note_on_c, 0, 70, 74
2, 1111366, Note_on_c, 0, 73, 76
2, 1111408, Note_off_c, 0, 70, 59
2, 1111485, Note_on_c, 0, 55, 69
2, 1111487, Note_on_c, 0, 76, 77
2, 1111506, Control_c, 0, 64, 96
2, 1111518, Note_off_c, 0, 73, 59
2, 1111586, Note_on_c, 0, 79, 78
2, 1111587, Note_on_c, 0, 64, 70
2, 1111609, Note_off_c, 0, 76, 59
2, 1111613, Note_off_c, 0, 55, 57
2, 1111683, Note_off_c, 0, 79, 59
2, 1111702, Note_on_c, 0, 62, 71
2, 1111720, Note_off_c, 0, 64, 57
2, 1111819, Note_on_c, 0, 61, 72
2, 1111847, Control_c, 0, 64, 20
2, 1111849, Note_off_c, 0, 62, 58
2, 1111905, Note_off_c, 0, 61, 58
2, 1111933, Note_on_c, 0, 76, 82
2, 1112053, Note_on_c, 0, 82, 84
2, 1112085, Note_off_c, 0, 76, 60
2, 1112157, Control_c, 0, 64, 96
2, 1112170, Note_on_c, 0, 81, 72
2, 1112172, Note_on_c, 0, 41, 60
2, 1112195, Note_off_c, 0, 82, 61
2, 1112251, Note_off_c, 0, 81, 58
2, 1112268, Note_on_c, 0, 45, 60
2, 1112291, Note_off_c, 0, 41, 55
2, 1112385, Note_on_c, 0, 43, 54
2, 1112416, Note_off_c, 0, 45, 55
2, 1112502, Note_on_c, 0, 41, 48
2, 1112517, Control_c, 0, 64, 20
2, 1112537, Note_off_c, 0, 43, 53
2, 1112585, Note_off_c, 0, 41, 52
2, 1112619, Note_on_c, 0, 62, 60
2, 1112736, Note_on_c, 0, 65, 60
2, 1112778, Note_off_c, 0, 62, 55
2, 1112853, Note_on_c, 0, 69, 61
2, 1112855, Note_on_c, 0, 41, 60
2, 1112880, Control_c, 0, 64, 96
2, 1112889, Note_off_c, 0, 65, 55
2, 1112956, Note_on_c, 0, 74, 62
2, 1112958, Note_on_c, 0, 53, 66
2, 1112970, Note_off_c, 0, 69, 55
2, 1112974, Note_off_c, 0, 41, 55
2, 1113042, Note_off_c, 0, 74, 55
2, 1113072, Note_on_c, 0, 52, 66
2, 1113092, Note_off_c, 0, 53, 56
2, 1113188, Note_on_c, 0, 50, 69
2, 1113232, Note_off_c, 0, 52, 56
2, 1113269, Control_c, 0, 64, 20
2, 1113277, Note_off_c, 0, 50, 57
2, 1113305, Note_on_c, 0, 65, 66
2, 1113421, Note_on_c, 0, 69, 67
2, 1113461, Note_off_c, 0, 65, 56
2, 1113522, Note_on_c, 0, 74, 68
2, 1113524, Note_on_c, 0, 50, 69
2, 1113542, Control_c, 0, 64, 95
2, 1113547, Note_off_c, 0, 69, 57
2, 1113639, Note_on_c, 0, 77, 70
2, 1113640, Note_on_c, 0, 57, 69
2, 1113661, Note_off_c, 0, 74, 57
2, 1113685, Note_off_c, 0, 50, 57
2, 1113738, Note_off_c, 0, 77, 57
2, 1113755, Note_on_c, 0, 55, 69
2, 1113789, Note_off_c, 0, 57, 57
2, 1113872, Note_on_c, 0, 53, 69
2, 1113907, Note_off_c, 0, 55, 57
2, 1113912, Control_c, 0, 64, 20
2, 1113958, Note_off_c, 0, 53, 57
2, 1113991, Note_on_c, 0, 69, 73
2, 1114108, Note_off_c, 0, 69, 58
2, 1114110, Note_on_c, 0, 74, 75
2, 1114208, Note_off_c, 0, 74, 59
2, 1114211, Note_on_c, 0, 77, 76
2, 1114212, Note_on_c, 0, 53, 69
2, 1114234, Control_c, 0, 64, 94
2, 1114325, Note_off_c, 0, 77, 59
2, 1114327, Note_on_c, 0, 81, 77
2, 1114329, Note_on_c, 0, 65, 69
2, 1114341, Note_off_c, 0, 53, 57
2, 1114407, Note_off_c, 0, 81, 59
2, 1114442, Note_on_c, 0, 64, 69
2, 1114464, Note_off_c, 0, 65, 57
2, 1114523, Note_off_c, 0, 64, 57
2, 1114557, Note_on_c, 0, 62, 70
2, 1114633, Control_c, 0, 64, 20
2, 1114675, Note_on_c, 0, 65, 70
2, 1114701, Note_off_c, 0, 62, 57
2, 1114792, Note_on_c, 0, 68, 72
2, 1114815, Note_off_c, 0, 65, 57
2, 1114889, Note_off_c, 0, 68, 58
2, 1114892, Note_on_c, 0, 80, 84
2, 1115009, Note_on_c, 0, 74, 84
2, 1115046, Note_off_c, 0, 80, 61
2, 1115126, Note_on_c, 0, 75, 83
2, 1115165, Note_off_c, 0, 74, 61
2, 1115243, Note_on_c, 0, 77, 82
2, 1115256, Note_off_c, 0, 75, 60
2, 1115327, Note_off_c, 0, 77, 50
2, 1115358, Note_on_c, 0, 38, 72
2, 1115365, Control_c, 0, 64, 95
2, 1115476, Note_on_c, 0, 41, 71
2, 1115493, Note_off_c, 0, 38, 58
2, 1115579, Note_on_c, 0, 44, 70
2, 1115581, Note_on_c, 0, 77, 78
2, 1115582, Note_off_c, 0, 41, 58
2, 1115696, Note_on_c, 0, 47, 69
2, 1115698, Note_on_c, 0, 71, 77
2, 1115699, Note_off_c, 0, 44, 57
2, 1115715, Note_off_c, 0, 77, 59
2, 1115733, Control_c, 0, 64, 20
2, 1115777, Note_off_c, 0, 47, 57
2, 1115812, Note_on_c, 0, 72, 76
2, 1115824, Note_off_c, 0, 71, 59
2, 1115929, Note_on_c, 0, 74, 75
2, 1115940, Note_off_c, 0, 72, 59
2, 1116007, Note_off_c, 0, 74, 59
2, 1116037, Control_c, 0, 64, 93
2, 1116043, Note_on_c, 0, 41, 67
2, 1116142, Note_on_c, 0, 44, 66
2, 1116153, Note_off_c, 0, 41, 57
2, 1116261, Note_on_c, 0, 74, 71
2, 1116262, Note_on_c, 0, 47, 65
2, 1116281, Note_off_c, 0, 44, 56
2, 1116380, Note_on_c, 0, 50, 64
2, 1116382, Note_on_c, 0, 65, 70
2, 1116399, Note_off_c, 0, 74, 58
2, 1116407, Note_off_c, 0, 47, 56
2, 1116446, Control_c, 0, 64, 20
2, 1116461, Note_off_c, 0, 50, 56
2, 1116494, Note_on_c, 0, 67, 69
2, 1116522, Note_off_c, 0, 65, 57
2, 1116610, Note_on_c, 0, 68, 68
2, 1116639, Note_off_c, 0, 67, 57
2, 1116695, Note_off_c, 0, 68, 57
2, 1116728, Note_on_c, 0, 47, 62
2, 1116747, Control_c, 0, 64, 93
2, 1116829, Note_on_c, 0, 50, 61
2, 1116852, Note_off_c, 0, 47, 55
2, 1116946, Note_on_c, 0, 68, 64
2, 1116947, Note_on_c, 0, 53, 60
2, 1116985, Note_off_c, 0, 50, 55
2, 1117064, Note_on_c, 0, 56, 60
2, 1117066, Note_on_c, 0, 62, 63
2, 1117069, Control_c, 0, 64, 20
2, 1117078, Note_off_c, 0, 53, 55
2, 1117090, Note_off_c, 0, 68, 56
2, 1117144, Note_off_c, 0, 56, 55
2, 1117180, Note_on_c, 0, 63, 62
2, 1117205, Note_off_c, 0, 62, 55
2, 1117298, Note_on_c, 0, 65, 60
2, 1117325, Note_off_c, 0, 63, 55
2, 1117384, Note_off_c, 0, 65, 55
2, 1117415, Note_on_c, 0, 56, 64
2, 1117421, Control_c, 0, 64, 96
2, 1117515, Note_off_c, 0, 56, 56
2, 1117517, Note_on_c, 0, 55, 68
2, 1117631, Note_off_c, 0, 55, 57
2, 1117634, Note_on_c, 0, 53, 72
2, 1117635, Note_on_c, 0, 79, 84
2, 1117749, Note_off_c, 0, 53, 58
2, 1117751, Note_on_c, 0, 51, 72
2, 1117752, Note_on_c, 0, 72, 84
2, 1117778, Note_off_c, 0, 79, 61
2, 1117830, Control_c, 0, 64, 20
2, 1117865, Note_off_c, 0, 51, 58
2, 1117868, Note_on_c, 0, 50, 72
2, 1117869, Note_on_c, 0, 74, 83
2, 1117875, Note_off_c, 0, 72, 61
2, 1117982, Note_off_c, 0, 50, 58
2, 1117984, Note_on_c, 0, 48, 71
2, 1117986, Note_on_c, 0, 75, 82
2, 1118007, Note_off_c, 0, 74, 60
2, 1118069, Note_off_c, 0, 75, 60
2, 1118098, Note_off_c, 0, 48, 58
2, 1118101, Note_on_c, 0, 39, 70
2, 1118113, Control_c, 0, 64, 93
2, 1118199, Note_off_c, 0, 39, 57
2, 1118202, Note_on_c, 0, 43, 69
2, 1118316, Note_off_c, 0, 43, 57
2, 1118318, Note_on_c, 0, 75, 79
2, 1118320, Note_on_c, 0, 48, 69
2, 1118399, Note_off_c, 0, 48, 57
2, 1118434, Note_on_c, 0, 67, 78
2, 1118444, Control_c, 0, 64, 20
2, 1118459, Note_off_c, 0, 75, 60
2, 1118551, Note_on_c, 0, 71, 77
2, 1118571, Note_off_c, 0, 67, 59
2, 1118667, Note_on_c, 0, 72, 76
2, 1118680, Note_off_c, 0, 71, 59
2, 1118747, Note_off_c, 0, 72, 59
2, 1118766, Note_on_c, 0, 43, 66
2, 1118775, Control_c, 0, 64, 93
2, 1118883, Note_off_c, 0, 43, 56
2, 1118886, Note_on_c, 0, 48, 65
2, 1119000, Note_off_c, 0, 48, 56
2, 1119003, Note_on_c, 0, 72, 72
2, 1119004, Note_on_c, 0, 51, 64
2, 1119085, Note_off_c, 0, 51, 56
2, 1119117, Note_on_c, 0, 63, 71
2, 1119126, Control_c, 0, 64, 20
2, 1119133, Note_off_c, 0, 72, 58
2, 1119239, Note_on_c, 0, 65, 70
2, 1119240, Note_off_c, 0, 63, 58
2, 1119353, Note_on_c, 0, 67, 69
2, 1119374, Note_off_c, 0, 65, 57
2, 1119433, Note_off_c, 0, 67, 57
2, 1119450, Note_on_c, 0, 48, 61
2, 1119467, Control_c, 0, 64, 93
2, 1119567, Note_off_c, 0, 48, 55
2, 1119570, Note_on_c, 0, 51, 60
2, 1119685, Note_off_c, 0, 51, 55
2, 1119686, Note_on_c, 0, 55, 60
2, 1119689, Note_on_c, 0, 67, 66
2, 1119770, Note_off_c, 0, 55, 55
2, 1119801, Note_off_c, 0, 67, 56
2, 1119803, Note_on_c, 0, 60, 65
2, 1119839, Control_c, 0, 64, 20
2, 1119918, Note_off_c, 0, 60, 56
2, 1119920, Note_on_c, 0, 62, 64
2, 1120004, Note_off_c, 0, 62, 56
2, 1120035, Note_on_c, 0, 63, 63
2, 1120135, Note_off_c, 0, 63, 55
2, 1120137, Note_on_c, 0, 60, 62
2, 1120252, Note_off_c, 0, 60, 55
2, 1120254, Note_on_c, 0, 55, 60
2, 1120336, Note_off_c, 0, 55, 55
2, 1120370, Note_on_c, 0, 36, 61
2, 1120487, Note_on_c, 0, 48, 62
2, 1120497, Note_off_c, 0, 36, 55
2, 1120604, Note_on_c, 0, 46, 63
2, 1120623, Note_off_c, 0, 48, 55
2, 1120704, Note_on_c, 0, 45, 64
2, 1120716, Note_off_c, 0, 46, 55
2, 1120749, Control_c, 0, 64, 20
2, 1120803, Note_off_c, 0, 45, 55
2, 1120821, Note_on_c, 0, 54, 60
2, 1120938, Note_on_c, 0, 60, 72
2, 1120957, Note_off_c, 0, 54, 55
2, 1121055, Note_on_c, 0, 63, 84
2, 1121057, Note_on_c, 0, 45, 68
2, 1121081, Control_c, 0, 64, 96
2, 1121083, Note_off_c, 0, 60, 58
2, 1121174, Note_on_c, 0, 66, 84
2, 1121176, Note_on_c, 0, 51, 69
2, 1121179, Note_off_c, 0, 45, 57
2, 1121194, Note_off_c, 0, 63, 61
2, 1121254, Note_off_c, 0, 66, 61
2, 1121289, Note_on_c, 0, 49, 70
2, 1121300, Note_off_c, 0, 51, 57
2, 1121389, Note_on_c, 0, 48, 72
2, 1121397, Note_off_c, 0, 49, 57
2, 1121430, Control_c, 0, 64, 20
2, 1121481, Note_off_c, 0, 48, 58
2, 1121506, Note_on_c, 0, 57, 72
2, 1121623, Note_on_c, 0, 63, 72
2, 1121632, Note_off_c, 0, 57, 58
2, 1121742, Note_on_c, 0, 66, 78
2, 1121743, Note_on_c, 0, 48, 60
2, 1121763, Control_c, 0, 64, 96
2, 1121765, Note_off_c, 0, 63, 58
2, 1121860, Note_off_c, 0, 48, 55
2, 1121863, Note_on_c, 0, 69, 84
2, 1121864, Note_on_c, 0, 54, 60
2, 1121866, Note_off_c, 0, 66, 59
2, 1121944, Note_off_c, 0, 69, 61
2, 1121975, Note_on_c, 0, 53, 66
2, 1121989, Note_off_c, 0, 54, 55
2, 1122076, Note_on_c, 0, 51, 72
2, 1122087, Note_off_c, 0, 53, 56
2, 1122123, Control_c, 0, 64, 20
2, 1122170, Note_off_c, 0, 51, 58
2, 1122193, Note_on_c, 0, 66, 72
2, 1122309, Note_on_c, 0, 69, 72
2, 1122312, Note_off_c, 0, 66, 58
2, 1122426, Note_on_c, 0, 51, 60
2, 1122428, Note_on_c, 0, 72, 78
2, 1122445, Note_off_c, 0, 69, 58
2, 1122454, Control_c, 0, 64, 96
2, 1122543, Note_on_c, 0, 75, 84
2, 1122545, Note_on_c, 0, 60, 60
2, 1122564, Note_off_c, 0, 72, 59
2, 1122565, Note_off_c, 0, 51, 55
2, 1122620, Note_off_c, 0, 75, 61
2, 1122661, Note_on_c, 0, 58, 66
2, 1122681, Note_off_c, 0, 60, 55
2, 1122760, Note_on_c, 0, 57, 72
2, 1122779, Note_off_c, 0, 58, 56
2, 1122807, Control_c, 0, 64, 20
2, 1122855, Note_off_c, 0, 57, 58
2, 1122874, Note_on_c, 0, 72, 84
2, 1122994, Note_on_c, 0, 78, 84
2, 1123005, Note_off_c, 0, 72, 61
2, 1123111, Note_on_c, 0, 77, 84
2, 1123113, Note_on_c, 0, 37, 60
2, 1123118, Note_off_c, 0, 78, 61
2, 1123127, Control_c, 0, 64, 96
2, 1123194, Note_off_c, 0, 77, 61
2, 1123227, Note_off_c, 0, 37, 55
2, 1123230, Note_on_c, 0, 49, 60
2, 1123328, Note_off_c, 0, 49, 55
2, 1123330, Note_on_c, 0, 48, 66
2, 1123444, Note_off_c, 0, 48, 56
2, 1123446, Note_on_c, 0, 46, 72
2, 1123497, Control_c, 0, 64, 20
2, 1123538, Note_off_c, 0, 46, 58
2, 1123559, Note_on_c, 0, 61, 72
2, 1123679, Note_on_c, 0, 65, 72
2, 1123682, Note_off_c, 0, 61, 58
2, 1123797, Note_on_c, 0, 46, 60
2, 1123799, Note_on_c, 0, 70, 78
2, 1123808, Note_off_c, 0, 65, 58
2, 1123828, Control_c, 0, 64, 96
2, 1123914, Note_on_c, 0, 73, 84
2, 1123916, Note_on_c, 0, 53, 60
2, 1123932, Note_off_c, 0, 46, 55
2, 1123933, Note_off_c, 0, 70, 59
2, 1124002, Note_off_c, 0, 73, 61
2, 1124012, Note_on_c, 0, 51, 66
2, 1124030, Note_off_c, 0, 53, 55
2, 1124128, Note_on_c, 0, 49, 72
2, 1124153, Note_off_c, 0, 51, 56
2, 1124189, Control_c, 0, 64, 20
2, 1124224, Note_off_c, 0, 49, 58
2, 1124245, Note_on_c, 0, 65, 72
2, 1124362, Note_on_c, 0, 70, 72
2, 1124380, Note_off_c, 0, 65, 58
2, 1124479, Note_on_c, 0, 73, 78
2, 1124480, Note_on_c, 0, 49, 60
2, 1124504, Note_off_c, 0, 70, 58
2, 1124511, Control_c, 0, 64, 96
2, 1124597, Note_on_c, 0, 77, 84
2, 1124600, Note_on_c, 0, 61, 60
2, 1124602, Note_off_c, 0, 73, 59
2, 1124616, Note_off_c, 0, 49, 55
2, 1124681, Note_off_c, 0, 77, 61
2, 1124696, Note_on_c, 0, 60, 66
2, 1124710, Note_off_c, 0, 61, 55
2, 1124813, Note_on_c, 0, 58, 72
2, 1124836, Note_off_c, 0, 60, 56
2, 1124861, Control_c, 0, 64, 20
2, 1124903, Note_off_c, 0, 58, 58
2, 1124931, Note_on_c, 0, 70, 72
2, 1125048, Note_off_c, 0, 70, 58
2, 1125050, Note_on_c, 0, 73, 72
2, 1125165, Note_off_c, 0, 73, 58
2, 1125167, Note_on_c, 0, 77, 78
2, 1125168, Note_on_c, 0, 58, 74
2, 1125182, Control_c, 0, 64, 96
2, 1125282, Note_off_c, 0, 58, 59
2, 1125284, Note_off_c, 0, 77, 59
2, 1125286, Note_on_c, 0, 65, 76
2, 1125287, Note_on_c, 0, 82, 84
2, 1125365, Note_off_c, 0, 82, 61
2, 1125381, Note_off_c, 0, 65, 59
2, 1125383, Note_on_c, 0, 63, 78
2, 1125464, Note_off_c, 0, 63, 59
2, 1125499, Note_on_c, 0, 61, 80
2, 1125525, Control_c, 0, 64, 20
2, 1125616, Note_off_c, 0, 61, 60
2, 1125618, Note_on_c, 0, 65, 82
2, 1125732, Note_off_c, 0, 65, 60
2, 1125734, Note_on_c, 0, 70, 84
2, 1125814, Note_off_c, 0, 70, 61
2, 1125850, Note_on_c, 0, 89, 82
2, 1125876, Control_c, 0, 64, 96
2, 1125951, Note_off_c, 0, 89, 60
2, 1125952, Note_on_c, 0, 82, 81
2, 1126067, Note_off_c, 0, 82, 60
2, 1126069, Note_on_c, 0, 84, 80
2, 1126184, Note_off_c, 0, 84, 60
2, 1126187, Note_on_c, 0, 85, 79
2, 1126267, Note_off_c, 0, 85, 60
2, 1126289, Control_c, 0, 64, 87
2, 1126303, Note_on_c, 0, 39, 72
2, 1126419, Note_off_c, 0, 39, 58
2, 1126421, Note_on_c, 0, 42, 72
2, 1126535, Note_off_c, 0, 42, 58
2, 1126538, Note_on_c, 0, 85, 76
2, 1126539, Note_on_c, 0, 46, 71
2, 1126553, Control_c, 0, 64, 20
2, 1126618, Note_off_c, 0, 46, 58
2, 1126632, Note_off_c, 0, 85, 59
2, 1126637, Note_on_c, 0, 78, 75
2, 1126751, Note_off_c, 0, 78, 59
2, 1126753, Note_on_c, 0, 80, 74
2, 1126868, Note_off_c, 0, 80, 59
2, 1126870, Note_on_c, 0, 82, 73
2, 1126947, Note_off_c, 0, 82, 58
2, 1126962, Control_c, 0, 64, 87
2, 1126984, Note_on_c, 0, 42, 67
2, 1127101, Note_off_c, 0, 42, 57
2, 1127104, Note_on_c, 0, 46, 66
2, 1127218, Note_off_c, 0, 46, 56
2, 1127221, Note_on_c, 0, 51, 65
2, 1127223, Note_on_c, 0, 82, 70
2, 1127243, Control_c, 0, 64, 20
2, 1127303, Note_off_c, 0, 51, 56
2, 1127318, Note_off_c, 0, 82, 57
2, 1127321, Note_on_c, 0, 73, 69
2, 1127435, Note_off_c, 0, 73, 57
2, 1127438, Note_on_c, 0, 77, 68
2, 1127552, Note_off_c, 0, 77, 57
2, 1127555, Note_on_c, 0, 78, 67
2, 1127634, Note_off_c, 0, 78, 57
2, 1127653, Control_c, 0, 64, 87
2, 1127668, Note_on_c, 0, 46, 61
2, 1127785, Note_off_c, 0, 46, 55
2, 1127788, Note_on_c, 0, 51, 60
2, 1127902, Note_off_c, 0, 51, 55
2, 1127905, Note_on_c, 0, 54, 60
2, 1127907, Note_on_c, 0, 78, 64
2, 1127916, Control_c, 0, 64, 20
2, 1127988, Note_off_c, 0, 54, 55
2, 1128003, Note_off_c, 0, 78, 56
2, 1128005, Note_on_c, 0, 70, 63
2, 1128120, Note_off_c, 0, 70, 55
2, 1128122, Note_on_c, 0, 72, 62
2, 1128236, Note_off_c, 0, 72, 55
2, 1128241, Note_on_c, 0, 73, 60
2, 1128330, Note_off_c, 0, 73, 55
2, 1128355, Control_c, 0, 64, 87
2, 1128357, Note_on_c, 0, 51, 66
2, 1128472, Note_off_c, 0, 51, 56
2, 1128474, Note_on_c, 0, 54, 72
2, 1128572, Note_off_c, 0, 54, 58
2, 1128575, Note_on_c, 0, 89, 84
2, 1128576, Note_on_c, 0, 58, 72
2, 1128629, Control_c, 0, 64, 20
2, 1128672, Note_off_c, 0, 58, 58
2, 1128689, Note_off_c, 0, 89, 61
2, 1128691, Note_on_c, 0, 82, 84
2, 1128806, Note_off_c, 0, 82, 61
2, 1128808, Note_on_c, 0, 84, 83
2, 1128922, Note_off_c, 0, 84, 60
2, 1128924, Note_on_c, 0, 85, 82
2, 1129003, Note_off_c, 0, 85, 60
2, 1129038, Control_c, 0, 64, 87
2, 1129039, Note_on_c, 0, 41, 72
2, 1129156, Note_off_c, 0, 41, 58
2, 1129158, Note_on_c, 0, 46, 71
2, 1129257, Note_off_c, 0, 46, 58
2, 1129259, Note_on_c, 0, 85, 78
2, 1129261, Note_on_c, 0, 49, 70
2, 1129301, Control_c, 0, 64, 20
2, 1129357, Note_off_c, 0, 49, 57
2, 1129373, Note_off_c, 0, 85, 59
2, 1129375, Note_on_c, 0, 77, 77
2, 1129490, Note_off_c, 0, 77, 59
2, 1129493, Note_on_c, 0, 81, 76
2, 1129607, Note_off_c, 0, 81, 59
2, 1129609, Note_on_c, 0, 82, 75
2, 1129715, Note_off_c, 0, 82, 59
2, 1129725, Note_on_c, 0, 46, 67
2, 1129728, Control_c, 0, 64, 87
2, 1129842, Note_off_c, 0, 46, 57
2, 1129845, Note_on_c, 0, 49, 66
2, 1129943, Note_off_c, 0, 49, 56
2, 1129945, Note_on_c, 0, 53, 65
2, 1129947, Note_on_c, 0, 82, 71
2, 1129974, Control_c, 0, 64, 20
2, 1130043, Note_off_c, 0, 53, 56
2, 1130059, Note_off_c, 0, 82, 58
2, 1130061, Note_on_c, 0, 73, 70
2, 1130177, Note_off_c, 0, 73, 57
2, 1130179, Note_on_c, 0, 75, 69
2, 1130294, Note_off_c, 0, 75, 57
2, 1130296, Note_on_c, 0, 77, 68
2, 1130385, Note_off_c, 0, 77, 57
2, 1130411, Note_on_c, 0, 49, 62
2, 1130420, Control_c, 0, 64, 87
2, 1130528, Note_off_c, 0, 49, 55
2, 1130529, Note_on_c, 0, 53, 61
2, 1130625, Note_off_c, 0, 53, 55
2, 1130627, Note_on_c, 0, 77, 64
2, 1130630, Note_on_c, 0, 58, 60
2, 1130656, Control_c, 0, 64, 20
2, 1130711, Note_off_c, 0, 58, 55
2, 1130742, Note_off_c, 0, 77, 56
2, 1130744, Note_on_c, 0, 70, 63
2, 1130859, Note_off_c, 0, 70, 55
2, 1130861, Note_on_c, 0, 72, 62
2, 1130976, Note_off_c, 0, 72, 55
2, 1130978, Note_on_c, 0, 73, 60
2, 1131062, Note_off_c, 0, 73, 55
2, 1131095, Control_c, 0, 64, 87
2, 1131096, Note_on_c, 0, 53, 66
2, 1131195, Note_off_c, 0, 53, 56
2, 1131197, Note_on_c, 0, 58, 72
2, 1131312, Note_off_c, 0, 58, 58
2, 1131314, Note_on_c, 0, 61, 72
2, 1131316, Note_on_c, 0, 85, 84
2, 1131385, Control_c, 0, 64, 20
2, 1131395, Note_off_c, 0, 61, 58
2, 1131428, Note_off_c, 0, 85, 61
2, 1131431, Note_on_c, 0, 82, 84
2, 1131545, Note_off_c, 0, 82, 61
2, 1131548, Note_on_c, 0, 84, 83
2, 1131662, Note_off_c, 0, 84, 60
2, 1131665, Note_on_c, 0, 85, 81
2, 1131748, Note_off_c, 0, 85, 60
2, 1131774, Control_c, 0, 64, 90
2, 1131778, Note_on_c, 0, 42, 52
2, 1131879, Note_off_c, 0, 42, 53
2, 1131882, Note_on_c, 0, 46, 52
2, 1131996, Note_off_c, 0, 46, 53
2, 1131998, Note_on_c, 0, 73, 77
2, 1132000, Note_on_c, 0, 49, 52
2, 1132020, Control_c, 0, 64, 20
2, 1132080, Note_off_c, 0, 49, 53
2, 1132112, Note_off_c, 0, 73, 59
2, 1132115, Note_on_c, 0, 70, 75
2, 1132229, Note_off_c, 0, 70, 59
2, 1132232, Note_on_c, 0, 72, 74
2, 1132346, Note_off_c, 0, 72, 59
2, 1132349, Note_on_c, 0, 73, 72
2, 1132432, Note_off_c, 0, 73, 58
2, 1132463, Note_on_c, 0, 54, 63
2, 1132468, Control_c, 0, 64, 90
2, 1132565, Note_off_c, 0, 54, 55
2, 1132566, Note_on_c, 0, 58, 64
2, 1132680, Note_off_c, 0, 58, 56
2, 1132685, Note_on_c, 0, 85, 84
2, 1132686, Note_on_c, 0, 61, 64
2, 1132721, Control_c, 0, 64, 20
2, 1132767, Note_off_c, 0, 61, 56
2, 1132799, Note_off_c, 0, 85, 61
2, 1132801, Note_on_c, 0, 82, 84
2, 1132916, Note_off_c, 0, 82, 61
2, 1132918, Note_on_c, 0, 84, 78
2, 1133033, Note_off_c, 0, 84, 59
2, 1133035, Note_on_c, 0, 85, 72
2, 1133110, Note_off_c, 0, 85, 58
2, 1133149, Control_c, 0, 64, 90
2, 1133152, Note_on_c, 0, 43, 59
2, 1133250, Note_off_c, 0, 43, 54
2, 1133252, Note_on_c, 0, 46, 60
2, 1133366, Note_off_c, 0, 46, 55
2, 1133369, Note_on_c, 0, 73, 84
2, 1133371, Note_on_c, 0, 51, 60
2, 1133403, Control_c, 0, 64, 20
2, 1133450, Note_off_c, 0, 51, 55
2, 1133483, Note_off_c, 0, 73, 61
2, 1133485, Note_on_c, 0, 70, 84
2, 1133600, Note_off_c, 0, 70, 61
2, 1133602, Note_on_c, 0, 72, 78
2, 1133717, Note_off_c, 0, 72, 59
2, 1133719, Note_on_c, 0, 73, 72
2, 1133803, Note_off_c, 0, 73, 58
2, 1133819, Note_on_c, 0, 55, 71
2, 1133832, Control_c, 0, 64, 90
2, 1133935, Note_off_c, 0, 55, 58
2, 1133936, Note_on_c, 0, 58, 72
2, 1134051, Note_off_c, 0, 58, 58
2, 1134053, Note_on_c, 0, 63, 72
2, 1134055, Note_on_c, 0, 84, 84
2, 1134086, Control_c, 0, 64, 20
2, 1134134, Note_off_c, 0, 63, 58
2, 1134167, Note_off_c, 0, 84, 61
2, 1134170, Note_on_c, 0, 80, 84
2, 1134285, Note_off_c, 0, 80, 61
2, 1134287, Note_on_c, 0, 82, 81
2, 1134402, Note_off_c, 0, 82, 61
2, 1134404, Note_on_c, 0, 84, 78
2, 1134481, Note_off_c, 0, 84, 59
2, 1134504, Note_on_c, 0, 44, 52
2, 1134513, Control_c, 0, 64, 90
2, 1134621, Note_off_c, 0, 44, 53
2, 1134623, Note_on_c, 0, 48, 52
2, 1134738, Note_off_c, 0, 48, 53
2, 1134740, Note_on_c, 0, 72, 69
2, 1134741, Note_on_c, 0, 51, 55
2, 1134796, Control_c, 0, 64, 20
2, 1134855, Note_off_c, 0, 72, 57
2, 1134856, Note_off_c, 0, 51, 53
2, 1134858, Note_on_c, 0, 68, 66
2, 1134971, Note_off_c, 0, 68, 56
2, 1134974, Note_on_c, 0, 70, 63
2, 1135088, Note_off_c, 0, 70, 55
2, 1135090, Note_on_c, 0, 72, 60
2, 1135178, Note_off_c, 0, 72, 55
2, 1135186, Control_c, 0, 64, 90
2, 1135188, Note_on_c, 0, 56, 72
2, 1135303, Note_off_c, 0, 56, 58
2, 1135305, Note_on_c, 0, 60, 72
2, 1135420, Note_off_c, 0, 60, 58
2, 1135422, Note_on_c, 0, 63, 69
2, 1135424, Note_on_c, 0, 87, 96
2, 1135459, Control_c, 0, 64, 20
2, 1135536, Note_off_c, 0, 87, 63
2, 1135538, Note_off_c, 0, 63, 57
2, 1135541, Note_on_c, 0, 84, 96
2, 1135655, Note_off_c, 0, 84, 63
2, 1135658, Note_on_c, 0, 85, 90
2, 1135772, Note_off_c, 0, 85, 62
2, 1135774, Note_on_c, 0, 87, 84
2, 1135858, Note_off_c, 0, 87, 61
2, 1135868, Control_c, 0, 64, 90
2, 1135872, Note_on_c, 0, 45, 52
2, 1135989, Note_off_c, 0, 45, 53
2, 1135992, Note_on_c, 0, 48, 52
2, 1136106, Note_off_c, 0, 48, 53
2, 1136109, Note_on_c, 0, 75, 72
2, 1136110, Note_on_c, 0, 53, 50
2, 1136160, Control_c, 0, 64, 20
2, 1136223, Note_off_c, 0, 75, 58
2, 1136225, Note_off_c, 0, 53, 52
2, 1136227, Note_on_c, 0, 72, 72
2, 1136339, Note_off_c, 0, 72, 58
2, 1136342, Note_on_c, 0, 73, 68
2, 1136440, Note_off_c, 0, 73, 57
2, 1136442, Note_on_c, 0, 75, 63
2, 1136552, Note_off_c, 0, 75, 55
2, 1136556, Note_on_c, 0, 57, 50
2, 1136673, Note_off_c, 0, 57, 52
2, 1136676, Note_on_c, 0, 60, 48
2, 1136790, Note_off_c, 0, 60, 52
2, 1136792, Note_on_c, 0, 65, 48
2, 1136907, Note_off_c, 0, 65, 52
2, 1136909, Note_on_c, 0, 73, 60
2, 1137024, Note_on_c, 0, 72, 48
2, 1137040, Note_off_c, 0, 73, 55
2, 1137126, Note_on_c, 0, 70, 48
2, 1137128, Note_on_c, 0, 46, 36
2, 1137145, Note_off_c, 0, 72, 52
2, 1137212, Note_off_c, 0, 70, 52
2, 1137242, Note_off_c, 0, 46, 49
2, 1137245, Note_on_c, 0, 53, 36
2, 1137271, Control_c, 0, 64, 90
2, 1137360, Note_on_c, 0, 58, 42
2, 1137477, Note_off_c, 0, 58, 50
2, 1137479, Note_on_c, 0, 65, 62
2, 1137480, Note_on_c, 0, 61, 48
2, 1137593, Note_off_c, 0, 61, 52
2, 1137595, Note_off_c, 0, 65, 55
2, 1137596, Note_on_c, 0, 73, 60
2, 1137709, Note_on_c, 0, 72, 48
2, 1137712, Note_off_c, 0, 73, 55
2, 1137720, Control_c, 0, 64, 20
2, 1137811, Note_off_c, 0, 53, 49
2, 1137813, Note_on_c, 0, 70, 48
2, 1137815, Note_on_c, 0, 46, 36
2, 1137828, Note_off_c, 0, 72, 52
2, 1137908, Note_off_c, 0, 70, 52
2, 1137927, Note_off_c, 0, 46, 49
2, 1137929, Note_on_c, 0, 53, 36
2, 1137953, Control_c, 0, 64, 90
2, 1138045, Note_on_c, 0, 58, 42
2, 1138162, Note_off_c, 0, 58, 50
2, 1138163, Note_on_c, 0, 61, 48
2, 1138165, Note_on_c, 0, 65, 62
2, 1138278, Note_off_c, 0, 61, 52
2, 1138280, Note_off_c, 0, 65, 55
2, 1138282, Note_on_c, 0, 73, 60
2, 1138294, Control_c, 0, 64, 20
2, 1138396, Note_on_c, 0, 72, 48
2, 1138399, Note_off_c, 0, 73, 55
2, 1138494, Note_off_c, 0, 53, 49
2, 1138498, Note_on_c, 0, 70, 48
2, 1138499, Note_on_c, 0, 46, 36
2, 1138509, Note_off_c, 0, 72, 52
2, 1138589, Note_off_c, 0, 70, 52
2, 1138611, Note_off_c, 0, 46, 49
2, 1138615, Note_on_c, 0, 53, 36
2, 1138654, Control_c, 0, 64, 90
2, 1138729, Note_on_c, 0, 58, 42
2, 1138846, Note_off_c, 0, 58, 50
2, 1138848, Note_on_c, 0, 61, 48
2, 1138849, Note_on_c, 0, 65, 62
2, 1138963, Note_off_c, 0, 61, 52
2, 1138963, Note_off_c, 0, 65, 55
2, 1138966, Note_on_c, 0, 73, 60
2, 1139037, Control_c, 0, 64, 20
2, 1139065, Note_on_c, 0, 70, 48
2, 1139074, Note_off_c, 0, 73, 55
2, 1139177, Note_off_c, 0, 70, 52
2, 1139181, Note_off_c, 0, 53, 49
2, 1139184, Note_on_c, 0, 72, 48
2, 1139185, Note_on_c, 0, 41, 36
2, 1139268, Note_off_c, 0, 72, 52
2, 1139295, Note_off_c, 0, 41, 49
2, 1139298, Note_on_c, 0, 53, 36
2, 1139329, Control_c, 0, 64, 90
2, 1139413, Note_on_c, 0, 57, 42
2, 1139530, Note_off_c, 0, 57, 50
2, 1139532, Note_on_c, 0, 60, 48
2, 1139534, Note_on_c, 0, 65, 65
2, 1139646, Note_off_c, 0, 65, 56
2, 1139648, Note_off_c, 0, 60, 52
2, 1139651, Note_on_c, 0, 75, 60
2, 1139708, Control_c, 0, 64, 20
2, 1139749, Note_on_c, 0, 73, 48
2, 1139755, Note_off_c, 0, 75, 55
2, 1139866, Note_off_c, 0, 53, 49
2, 1139868, Note_on_c, 0, 41, 36
2, 1139870, Note_on_c, 0, 72, 48
2, 1139873, Note_off_c, 0, 73, 52
2, 1139945, Note_off_c, 0, 72, 52
2, 1139980, Note_off_c, 0, 41, 49
2, 1139982, Note_on_c, 0, 53, 36
2, 1140000, Control_c, 0, 64, 90
2, 1140099, Note_on_c, 0, 57, 42
2, 1140216, Note_off_c, 0, 57, 50
2, 1140218, Note_on_c, 0, 60, 48
2, 1140219, Note_on_c, 0, 65, 62
2, 1140333, Note_off_c, 0, 65, 55
2, 1140335, Note_off_c, 0, 60, 52
2, 1140336, Note_on_c, 0, 75, 60
2, 1140428, Control_c, 0, 64, 20
2, 1140432, Note_off_c, 0, 75, 55
2, 1140434, Note_on_c, 0, 73, 60
2, 1140550, Note_off_c, 0, 73, 55
2, 1140551, Note_off_c, 0, 53, 49
2, 1140555, Note_on_c, 0, 41, 36
2, 1140557, Note_on_c, 0, 72, 60
2, 1140639, Note_off_c, 0, 72, 55
2, 1140665, Note_off_c, 0, 41, 49
2, 1140667, Note_on_c, 0, 53, 36
2, 1140692, Control_c, 0, 64, 90
2, 1140782, Note_on_c, 0, 57, 42
2, 1140900, Note_off_c, 0, 57, 50
2, 1140903, Note_on_c, 0, 65, 65
2, 1140905, Note_on_c, 0, 60, 48
2, 1141017, Note_off_c, 0, 60, 52
2, 1141019, Note_off_c, 0, 65, 56
2, 1141022, Note_on_c, 0, 75, 60
2, 1141117, Note_off_c, 0, 75, 55
2, 1141119, Note_on_c, 0, 73, 60
2, 1141150, Control_c, 0, 64, 20
2, 1141234, Note_off_c, 0, 73, 55
2, 1141236, Note_off_c, 0, 53, 49
2, 1141239, Note_on_c, 0, 41, 36
2, 1141240, Note_on_c, 0, 72, 60
2, 1141317, Note_off_c, 0, 72, 55
2, 1141350, Note_off_c, 0, 41, 49
2, 1141353, Note_on_c, 0, 53, 36
2, 1141423, Control_c, 0, 64, 98
2, 1141468, Note_on_c, 0, 57, 42
2, 1141585, Note_off_c, 0, 57, 50
2, 1141587, Note_on_c, 0, 65, 65
2, 1141589, Note_on_c, 0, 60, 48
2, 1141687, Note_off_c, 0, 60, 52
2, 1141689, Note_off_c, 0, 65, 56
2, 1141692, Note_on_c, 0, 75, 60
2, 1141803, Note_on_c, 0, 72, 48
2, 1141816, Note_off_c, 0, 75, 55
2, 1141842, Control_c, 0, 64, 20
2, 1141920, Note_off_c, 0, 53, 49
2, 1141923, Note_on_c, 0, 46, 36
2, 1141924, Note_on_c, 0, 73, 48
2, 1141934, Note_off_c, 0, 72, 52
2, 1142005, Note_off_c, 0, 73, 52
2, 1142037, Note_off_c, 0, 46, 49
2, 1142039, Note_on_c, 0, 53, 36
2, 1142106, Control_c, 0, 64, 98
2, 1142154, Note_on_c, 0, 58, 42
2, 1142271, Note_off_c, 0, 58, 50
2, 1142273, Note_on_c, 0, 65, 60
2, 1142275, Note_on_c, 0, 61, 48
2, 1142371, Note_off_c, 0, 61, 52
2, 1142373, Note_off_c, 0, 65, 55
2, 1142376, Note_on_c, 0, 73, 49
2, 1142488, Note_off_c, 0, 73, 52
2, 1142490, Note_on_c, 0, 77, 49
2, 1142514, Control_c, 0, 64, 20
2, 1142571, Note_off_c, 0, 77, 52
2, 1142604, Note_off_c, 0, 53, 49
2, 1142607, Note_on_c, 0, 46, 48
2, 1142722, Note_off_c, 0, 46, 52
2, 1142724, Note_on_c, 0, 53, 48
2, 1142797, Control_c, 0, 64, 98
2, 1142839, Note_on_c, 0, 58, 48
2, 1142956, Note_off_c, 0, 58, 52
2, 1142958, Note_on_c, 0, 61, 48
2, 1142959, Note_on_c, 0, 65, 62
2, 1143054, Note_off_c, 0, 65, 55
2, 1143056, Note_off_c, 0, 61, 52
2, 1143058, Note_on_c, 0, 73, 51
2, 1143171, Note_off_c, 0, 73, 52
2, 1143173, Note_on_c, 0, 77, 51
2, 1143226, Control_c, 0, 64, 20
2, 1143256, Note_off_c, 0, 77, 52
2, 1143288, Note_off_c, 0, 53, 52
2, 1143290, Note_on_c, 0, 46, 49
2, 1143405, Note_off_c, 0, 46, 52
2, 1143409, Note_on_c, 0, 53, 49
2, 1143490, Control_c, 0, 64, 98
2, 1143523, Note_on_c, 0, 58, 49
2, 1143640, Note_off_c, 0, 58, 52
2, 1143642, Note_on_c, 0, 61, 49
2, 1143644, Note_on_c, 0, 65, 64
2, 1143740, Note_off_c, 0, 65, 56
2, 1143742, Note_off_c, 0, 61, 52
2, 1143745, Note_on_c, 0, 73, 53
2, 1143857, Note_off_c, 0, 73, 53
2, 1143859, Note_on_c, 0, 77, 53
2, 1143890, Control_c, 0, 64, 20
2, 1143941, Note_off_c, 0, 77, 53
2, 1143973, Note_off_c, 0, 53, 52
2, 1143976, Note_on_c, 0, 46, 50
2, 1144090, Note_off_c, 0, 46, 52
2, 1144093, Note_on_c, 0, 54, 50
2, 1144151, Control_c, 0, 64, 98
2, 1144207, Note_on_c, 0, 58, 50
2, 1144307, Note_off_c, 0, 58, 52
2, 1144310, Note_on_c, 0, 61, 50
2, 1144312, Note_on_c, 0, 66, 61
2, 1144424, Note_off_c, 0, 66, 55
2, 1144426, Note_off_c, 0, 61, 52
2, 1144429, Note_on_c, 0, 73, 55
2, 1144541, Note_off_c, 0, 73, 53
2, 1144544, Note_on_c, 0, 78, 56
2, 1144609, Control_c, 0, 64, 20
2, 1144627, Note_off_c, 0, 78, 54
2, 1144658, Note_off_c, 0, 54, 52
2, 1144661, Note_on_c, 0, 46, 51
2, 1144775, Note_off_c, 0, 46, 52
2, 1144777, Note_on_c, 0, 54, 51
2, 1144794, Control_c, 0, 64, 94
2, 1144892, Note_on_c, 0, 58, 51
2, 1144994, Note_off_c, 0, 58, 52
2, 1144996, Note_on_c, 0, 66, 63
2, 1144998, Note_on_c, 0, 61, 51
2, 1145111, Note_off_c, 0, 61, 52
2, 1145112, Note_off_c, 0, 66, 55
2, 1145115, Note_on_c, 0, 73, 57
2, 1145227, Note_off_c, 0, 73, 54
2, 1145230, Note_on_c, 0, 78, 58
2, 1145272, Control_c, 0, 64, 20
2, 1145311, Note_off_c, 0, 78, 54
2, 1145344, Note_off_c, 0, 54, 52
2, 1145345, Note_on_c, 0, 46, 52
2, 1145461, Note_off_c, 0, 46, 53
2, 1145463, Note_on_c, 0, 55, 52
2, 1145496, Control_c, 0, 64, 94
2, 1145577, Note_on_c, 0, 58, 52
2, 1145678, Note_off_c, 0, 58, 53
2, 1145680, Note_on_c, 0, 67, 65
2, 1145682, Note_on_c, 0, 64, 53
2, 1145795, Note_off_c, 0, 64, 53
2, 1145797, Note_off_c, 0, 67, 56
2, 1145799, Note_on_c, 0, 73, 59
2, 1145911, Note_off_c, 0, 73, 54
2, 1145914, Note_on_c, 0, 79, 60
2, 1145973, Control_c, 0, 64, 20
2, 1145998, Note_off_c, 0, 79, 55
2, 1146028, Note_off_c, 0, 55, 53
2, 1146030, Note_on_c, 0, 46, 53
2, 1146145, Note_off_c, 0, 46, 53
2, 1146147, Note_on_c, 0, 55, 53
2, 1146188, Control_c, 0, 64, 94
2, 1146262, Note_on_c, 0, 58, 54
2, 1146363, Note_off_c, 0, 58, 53
2, 1146365, Note_on_c, 0, 67, 67
2, 1146367, Note_on_c, 0, 64, 54
2, 1146481, Note_off_c, 0, 64, 53
2, 1146483, Note_off_c, 0, 67, 57
2, 1146486, Note_on_c, 0, 73, 61
2, 1146596, Note_off_c, 0, 73, 55
2, 1146598, Note_on_c, 0, 79, 62
2, 1146647, Control_c, 0, 64, 20
2, 1146679, Note_off_c, 0, 79, 55
2, 1146714, Note_off_c, 0, 55, 53
2, 1146717, Note_on_c, 0, 46, 54
2, 1146831, Note_off_c, 0, 46, 53
2, 1146834, Note_on_c, 0, 56, 54
2, 1146872, Control_c, 0, 64, 94
2, 1146930, Note_on_c, 0, 62, 55
2, 1147047, Note_off_c, 0, 62, 53
2, 1147050, Note_on_c, 0, 65, 55
2, 1147051, Note_on_c, 0, 68, 63
2, 1147164, Note_off_c, 0, 68, 55
2, 1147166, Note_off_c, 0, 65, 53
2, 1147168, Note_on_c, 0, 74, 64
2, 1147279, Note_off_c, 0, 74, 56
2, 1147283, Note_on_c, 0, 80, 64
2, 1147339, Control_c, 0, 64, 20
2, 1147365, Note_off_c, 0, 80, 56
2, 1147397, Note_off_c, 0, 56, 53
2, 1147400, Note_on_c, 0, 46, 55
2, 1147514, Note_off_c, 0, 46, 53
2, 1147517, Note_on_c, 0, 56, 56
2, 1147533, Control_c, 0, 64, 94
2, 1147615, Note_on_c, 0, 62, 56
2, 1147732, Note_off_c, 0, 62, 54
2, 1147734, Note_on_c, 0, 65, 56
2, 1147735, Note_on_c, 0, 68, 65
2, 1147848, Note_off_c, 0, 68, 56
2, 1147850, Note_off_c, 0, 65, 54
2, 1147854, Note_on_c, 0, 74, 66
2, 1147967, Note_off_c, 0, 74, 56
2, 1147969, Note_on_c, 0, 80, 66
2, 1147982, Control_c, 0, 64, 20
2, 1148051, Note_off_c, 0, 80, 56
2, 1148083, Note_off_c, 0, 56, 54
2, 1148086, Note_on_c, 0, 46, 57
2, 1148201, Note_off_c, 0, 46, 54
2, 1148203, Note_on_c, 0, 56, 57
2, 1148235, Control_c, 0, 64, 94
2, 1148301, Note_on_c, 0, 62, 57
2, 1148418, Note_off_c, 0, 62, 54
2, 1148420, Note_on_c, 0, 65, 57
2, 1148422, Note_on_c, 0, 68, 67
2, 1148534, Note_off_c, 0, 65, 54
2, 1148536, Note_off_c, 0, 68, 57
2, 1148537, Note_on_c, 0, 74, 68
2, 1148651, Note_off_c, 0, 74, 57
2, 1148653, Note_on_c, 0, 80, 68
2, 1148684, Control_c, 0, 64, 20
2, 1148735, Note_off_c, 0, 80, 57
2, 1148768, Note_off_c, 0, 56, 54
2, 1148770, Note_on_c, 0, 46, 58
2, 1148886, Note_off_c, 0, 46, 54
2, 1148888, Note_on_c, 0, 56, 58
2, 1148908, Control_c, 0, 64, 94
2, 1148986, Note_on_c, 0, 62, 58
2, 1149102, Note_off_c, 0, 62, 54
2, 1149104, Note_on_c, 0, 68, 69
2, 1149106, Note_on_c, 0, 65, 58
2, 1149219, Note_off_c, 0, 65, 54
2, 1149221, Note_off_c, 0, 68, 57
2, 1149223, Note_on_c, 0, 74, 70
2, 1149336, Note_off_c, 0, 74, 57
2, 1149338, Note_on_c, 0, 80, 70
2, 1149355, Control_c, 0, 64, 20
2, 1149421, Note_off_c, 0, 80, 57
2, 1149454, Note_off_c, 0, 56, 54
2, 1149455, Note_on_c, 0, 81, 70
2, 1149456, Note_on_c, 0, 45, 59
2, 1149553, Note_off_c, 0, 45, 54
2, 1149555, Note_on_c, 0, 57, 59
2, 1149581, Control_c, 0, 64, 94
2, 1149671, Note_off_c, 0, 81, 57
2, 1149674, Note_on_c, 0, 61, 59
2, 1149788, Note_off_c, 0, 61, 54
2, 1149790, Note_on_c, 0, 69, 72
2, 1149792, Note_on_c, 0, 64, 59
2, 1149905, Note_off_c, 0, 64, 54
2, 1149907, Note_off_c, 0, 69, 58
2, 1149910, Note_on_c, 0, 76, 72
2, 1149911, Note_on_c, 0, 81, 96
2, 1150022, Note_off_c, 0, 76, 58
2, 1150024, Note_on_c, 0, 73, 60
2, 1150029, Control_c, 0, 64, 20
2, 1150138, Note_off_c, 0, 73, 55
2, 1150140, Note_off_c, 0, 81, 63
2, 1150143, Note_off_c, 0, 57, 54
2, 1150146, Note_on_c, 0, 50, 57
2, 1150147, Note_on_c, 0, 80, 64
2, 1150148, Note_on_c, 0, 77, 60
2, 1150240, Note_off_c, 0, 50, 54
2, 1150241, Note_on_c, 0, 57, 64
2, 1150282, Control_c, 0, 64, 94
2, 1150356, Note_off_c, 0, 77, 55
2, 1150358, Note_off_c, 0, 80, 56
2, 1150360, Note_on_c, 0, 62, 68
2, 1150472, Note_off_c, 0, 62, 57
2, 1150475, Note_on_c, 0, 65, 72
2, 1150477, Note_on_c, 0, 69, 60
2, 1150589, Note_off_c, 0, 65, 58
2, 1150591, Note_off_c, 0, 69, 55
2, 1150594, Note_on_c, 0, 80, 96
2, 1150596, Note_on_c, 0, 77, 72
2, 1150701, Control_c, 0, 64, 20
2, 1150706, Note_off_c, 0, 77, 58
2, 1150708, Note_on_c, 0, 74, 60
2, 1150822, Note_off_c, 0, 74, 55
2, 1150825, Note_off_c, 0, 80, 63
2, 1150827, Note_off_c, 0, 57, 56
2, 1150830, Note_on_c, 0, 76, 58
2, 1150831, Note_on_c, 0, 81, 64
2, 1150832, Note_on_c, 0, 45, 60
2, 1150924, Note_off_c, 0, 45, 55
2, 1150926, Note_on_c, 0, 57, 60
2, 1150944, Control_c, 0, 64, 94
2, 1151038, Note_off_c, 0, 81, 56
2, 1151041, Note_off_c, 0, 76, 54
2, 1151043, Note_on_c, 0, 61, 66
2, 1151155, Note_off_c, 0, 61, 56
2, 1151160, Note_on_c, 0, 64, 72
2, 1151161, Note_on_c, 0, 69, 72
2, 1151273, Note_off_c, 0, 69, 58
2, 1151276, Note_off_c, 0, 64, 58
2, 1151278, Note_on_c, 0, 81, 96
2, 1151280, Note_on_c, 0, 76, 72
2, 1151390, Note_off_c, 0, 76, 58
2, 1151393, Note_on_c, 0, 73, 72
2, 1151411, Control_c, 0, 64, 20
2, 1151506, Note_off_c, 0, 81, 63
2, 1151510, Note_off_c, 0, 73, 58
2, 1151512, Note_off_c, 0, 57, 55
2, 1151514, Note_on_c, 0, 77, 60
2, 1151515, Note_on_c, 0, 50, 58
2, 1151516, Note_on_c, 0, 80, 63
2, 1151608, Note_off_c, 0, 50, 54
2, 1151610, Note_on_c, 0, 57, 60
2, 1151617, Control_c, 0, 64, 94
2, 1151724, Note_off_c, 0, 80, 55
2, 1151726, Note_off_c, 0, 77, 55
2, 1151729, Note_on_c, 0, 62, 66
2, 1151841, Note_off_c, 0, 62, 56
2, 1151844, Note_on_c, 0, 65, 72
2, 1151846, Note_on_c, 0, 69, 72
2, 1151958, Note_off_c, 0, 69, 58
2, 1151960, Note_off_c, 0, 65, 58
2, 1151963, Note_on_c, 0, 80, 96
2, 1151964, Note_on_c, 0, 77, 72
2, 1152074, Note_off_c, 0, 77, 58
2, 1152080, Note_on_c, 0, 74, 60
2, 1152103, Control_c, 0, 64, 20
2, 1152175, Note_off_c, 0, 80, 63
2, 1152178, Note_off_c, 0, 74, 55
2, 1152180, Note_off_c, 0, 57, 55
2, 1152183, Note_on_c, 0, 45, 36
2, 1152183, Note_on_c, 0, 81, 48
2, 1152184, Note_on_c, 0, 73, 48
2, 1152185, Note_on_c, 0, 76, 48
2, 1152293, Note_off_c, 0, 45, 49
2, 1152295, Note_on_c, 0, 57, 36
2, 1152337, Control_c, 0, 64, 94
2, 1152410, Note_off_c, 0, 81, 52
2, 1152411, Note_off_c, 0, 73, 52
2, 1152412, Note_off_c, 0, 76, 52
2, 1152416, Note_on_c, 0, 61, 38
2, 1152527, Note_on_c, 0, 73, 52
2, 1152530, Note_on_c, 0, 64, 40
2, 1152645, Note_on_c, 0, 76, 56
2, 1152668, Note_off_c, 0, 73, 53
2, 1152727, Control_c, 0, 64, 20
2, 1152762, Note_on_c, 0, 79, 60
2, 1152775, Note_off_c, 0, 76, 54
2, 1152862, Note_off_c, 0, 61, 49
2, 1152864, Note_off_c, 0, 64, 50
2, 1152865, Note_off_c, 0, 57, 49
2, 1152867, Note_on_c, 0, 70, 48
2, 1152868, Note_on_c, 0, 55, 48
2, 1152873, Note_off_c, 0, 79, 55
2, 1152883, Control_c, 0, 64, 94
2, 1152944, Note_off_c, 0, 70, 52
2, 1152978, Note_on_c, 0, 57, 48
2, 1153095, Note_on_c, 0, 64, 49
2, 1153211, Note_on_c, 0, 70, 52
2, 1153328, Note_on_c, 0, 73, 56
2, 1153336, Note_off_c, 0, 70, 53
2, 1153390, Control_c, 0, 64, 20
2, 1153446, Note_on_c, 0, 76, 60
2, 1153467, Note_off_c, 0, 73, 54
2, 1153545, Note_off_c, 0, 57, 52
2, 1153548, Note_off_c, 0, 64, 52
2, 1153550, Note_off_c, 0, 55, 52
2, 1153553, Note_on_c, 0, 67, 48
2, 1153554, Note_on_c, 0, 49, 53
2, 1153558, Note_off_c, 0, 76, 55
2, 1153574, Control_c, 0, 64, 94
2, 1153642, Note_off_c, 0, 67, 52
2, 1153663, Note_on_c, 0, 52, 54
2, 1153779, Note_on_c, 0, 57, 60
2, 1153895, Note_on_c, 0, 70, 60
2, 1154006, Control_c, 0, 64, 20
2, 1154013, Note_on_c, 0, 69, 60
2, 1154015, Note_off_c, 0, 70, 55
2, 1154114, Note_on_c, 0, 67, 59
2, 1154125, Note_off_c, 0, 69, 55
2, 1154232, Note_off_c, 0, 52, 53
2, 1154234, Note_off_c, 0, 57, 55
2, 1154235, Note_off_c, 0, 49, 53
2, 1154237, Note_on_c, 0, 50, 59
2, 1154238, Note_on_c, 0, 65, 57
2, 1154252, Note_off_c, 0, 67, 54
2, 1154286, Control_c, 0, 64, 94
2, 1154345, Note_off_c, 0, 65, 54
2, 1154349, Note_on_c, 0, 53, 57
2, 1154465, Note_on_c, 0, 57, 55
2, 1154582, Note_on_c, 0, 65, 53
2, 1154699, Note_on_c, 0, 64, 51
2, 1154718, Note_off_c, 0, 65, 53
2, 1154744, Control_c, 0, 64, 20
2, 1154800, Note_on_c, 0, 62, 50
2, 1154821, Note_off_c, 0, 64, 52
2, 1154916, Note_off_c, 0, 53, 54
2, 1154918, Note_off_c, 0, 50, 54
2, 1154921, Note_off_c, 0, 57, 53
2, 1154924, Note_on_c, 0, 61, 48
2, 1154925, Note_on_c, 0, 45, 48
2, 1154938, Note_off_c, 0, 62, 52
2, 1155035, Note_off_c, 0, 45, 52
2, 1155036, Note_on_c, 0, 57, 48
2, 1155066, Note_off_c, 0, 61, 52
2, 1155085, Control_c, 0, 64, 98
2, 1155150, Note_on_c, 0, 61, 54
2, 1155268, Note_on_c, 0, 64, 60
2, 1155268, Note_on_c, 0, 73, 54
2, 1155385, Note_on_c, 0, 76, 60
2, 1155407, Note_off_c, 0, 73, 53
2, 1155456, Control_c, 0, 64, 20
2, 1155487, Note_on_c, 0, 79, 60
2, 1155501, Note_off_c, 0, 76, 55
2, 1155601, Note_off_c, 0, 61, 53
2, 1155602, Note_off_c, 0, 57, 52
2, 1155606, Note_off_c, 0, 64, 55
2, 1155608, Note_on_c, 0, 55, 48
2, 1155609, Note_on_c, 0, 70, 48
2, 1155617, Note_off_c, 0, 79, 55
2, 1155680, Control_c, 0, 64, 94
2, 1155717, Note_off_c, 0, 70, 52
2, 1155720, Note_on_c, 0, 57, 48
2, 1155837, Note_on_c, 0, 64, 50
2, 1155950, Note_on_c, 0, 70, 54
2, 1156070, Note_on_c, 0, 73, 60
2, 1156093, Note_off_c, 0, 70, 53
2, 1156129, Control_c, 0, 64, 20
2, 1156171, Note_on_c, 0, 76, 60
2, 1156173, Note_off_c, 0, 73, 55
2, 1156287, Note_off_c, 0, 64, 52
2, 1156290, Note_off_c, 0, 57, 52
2, 1156290, Note_off_c, 0, 55, 52
2, 1156292, Note_on_c, 0, 49, 58
2, 1156293, Note_on_c, 0, 67, 48
2, 1156309, Note_off_c, 0, 76, 55
2, 1156372, Control_c, 0, 64, 95
2, 1156376, Note_off_c, 0, 67, 52
2, 1156402, Note_on_c, 0, 52, 60
2, 1156519, Note_on_c, 0, 57, 60
2, 1156636, Note_on_c, 0, 70, 60
2, 1156738, Note_on_c, 0, 69, 60
2, 1156750, Note_off_c, 0, 70, 55
2, 1156855, Note_on_c, 0, 67, 54
2, 1156860, Control_c, 0, 64, 20
2, 1156869, Note_off_c, 0, 69, 55
2, 1156971, Note_off_c, 0, 52, 55
2, 1156974, Note_off_c, 0, 49, 54
2, 1156974, Note_off_c, 0, 57, 55
2, 1156977, Note_on_c, 0, 50, 48
2, 1156979, Note_on_c, 0, 65, 48
2, 1156988, Note_off_c, 0, 67, 53
2, 1157049, Note_off_c, 0, 65, 52
2, 1157088, Note_on_c, 0, 53, 48
2, 1157093, Control_c, 0, 64, 96
2, 1157205, Note_on_c, 0, 57, 49
2, 1157322, Note_on_c, 0, 65, 51
2, 1157420, Note_on_c, 0, 64, 54
2, 1157458, Note_off_c, 0, 65, 52
2, 1157513, Control_c, 0, 64, 20
2, 1157539, Note_on_c, 0, 62, 57
2, 1157567, Note_off_c, 0, 64, 53
2, 1157637, Note_off_c, 0, 53, 52
2, 1157640, Note_off_c, 0, 50, 52
2, 1157641, Note_off_c, 0, 57, 52
2, 1157650, Note_off_c, 0, 62, 54
2, 1157656, Note_on_c, 0, 78, 60
2, 1157658, Note_on_c, 0, 50, 53
2, 1157738, Note_off_c, 0, 78, 55
2, 1157772, Note_off_c, 0, 50, 53
2, 1157775, Note_on_c, 0, 62, 54
2, 1157889, Note_on_c, 0, 66, 60
2, 1157912, Control_c, 0, 64, 96
2, 1158006, Note_on_c, 0, 78, 57
2, 1158008, Note_on_c, 0, 69, 60
2, 1158106, Note_on_c, 0, 81, 54
2, 1158132, Note_off_c, 0, 78, 54
2, 1158223, Note_on_c, 0, 84, 51
2, 1158242, Control_c, 0, 64, 20
2, 1158248, Note_off_c, 0, 81, 53
2, 1158340, Note_off_c, 0, 66, 55
2, 1158342, Note_off_c, 0, 62, 53
2, 1158345, Note_off_c, 0, 69, 55
2, 1158347, Note_on_c, 0, 60, 54
2, 1158348, Note_on_c, 0, 75, 48
2, 1158370, Note_off_c, 0, 84, 52
2, 1158433, Note_off_c, 0, 75, 52
2, 1158457, Note_on_c, 0, 62, 51
2, 1158478, Control_c, 0, 64, 96
2, 1158576, Note_on_c, 0, 69, 48
2, 1158692, Note_on_c, 0, 75, 54
2, 1158792, Note_on_c, 0, 78, 60
2, 1158824, Note_off_c, 0, 75, 53
2, 1158909, Note_on_c, 0, 81, 60
2, 1158936, Control_c, 0, 64, 20
2, 1158951, Note_off_c, 0, 78, 55
2, 1159026, Note_off_c, 0, 62, 52
2, 1159029, Note_off_c, 0, 60, 53
2, 1159030, Note_off_c, 0, 69, 52
2, 1159031, Note_on_c, 0, 72, 48
2, 1159033, Note_on_c, 0, 54, 48
2, 1159052, Note_off_c, 0, 81, 55
2, 1159112, Note_off_c, 0, 72, 52
2, 1159143, Note_on_c, 0, 57, 60
2, 1159169, Control_c, 0, 64, 96
2, 1159260, Note_on_c, 0, 62, 60
2, 1159358, Note_on_c, 0, 75, 60
2, 1159477, Note_on_c, 0, 74, 60
2, 1159489, Note_off_c, 0, 75, 55
2, 1159594, Note_on_c, 0, 72, 54
2, 1159608, Control_c, 0, 64, 20
2, 1159613, Note_off_c, 0, 74, 55
2, 1159710, Note_off_c, 0, 57, 55
2, 1159713, Note_off_c, 0, 54, 52
2, 1159715, Note_off_c, 0, 62, 55
2, 1159718, Note_on_c, 0, 55, 59
2, 1159719, Note_on_c, 0, 70, 48
2, 1159728, Note_off_c, 0, 72, 53
2, 1159791, Note_off_c, 0, 70, 52
2, 1159827, Note_on_c, 0, 58, 57
2, 1159842, Control_c, 0, 64, 96
2, 1159943, Note_on_c, 0, 62, 55
2, 1160043, Note_on_c, 0, 70, 60
2, 1160164, Note_on_c, 0, 69, 60
2, 1160178, Note_off_c, 0, 70, 55
2, 1160281, Note_on_c, 0, 67, 54
2, 1160283, Note_off_c, 0, 69, 55
2, 1160290, Control_c, 0, 64, 20
2, 1160398, Note_off_c, 0, 62, 53
2, 1160400, Note_off_c, 0, 58, 54
2, 1160400, Note_off_c, 0, 55, 54
2, 1160401, Note_on_c, 0, 50, 48
2, 1160403, Note_off_c, 0, 67, 53
2, 1160403, Note_on_c, 0, 66, 48
2, 1160479, Note_off_c, 0, 66, 52
2, 1160510, Note_off_c, 0, 50, 52
2, 1160514, Note_on_c, 0, 62, 48
2, 1160628, Note_on_c, 0, 66, 60
2, 1160640, Control_c, 0, 64, 101
2, 1160729, Note_on_c, 0, 78, 56
2, 1160731, Note_on_c, 0, 69, 60
2, 1160845, Note_on_c, 0, 81, 60
2, 1160862, Note_off_c, 0, 78, 54
2, 1160963, Note_on_c, 0, 84, 63
2, 1160979, Note_off_c, 0, 81, 55
2, 1160991, Control_c, 0, 64, 20
2, 1161080, Note_off_c, 0, 66, 55
2, 1161081, Note_off_c, 0, 69, 55
2, 1161084, Note_off_c, 0, 62, 52
2, 1161087, Note_on_c, 0, 60, 54
2, 1161089, Note_on_c, 0, 75, 48
2, 1161098, Note_off_c, 0, 84, 55
2, 1161167, Note_off_c, 0, 75, 52
2, 1161196, Note_on_c, 0, 62, 51
2, 1161215, Control_c, 0, 64, 98
2, 1161313, Note_on_c, 0, 69, 48
2, 1161414, Note_on_c, 0, 75, 54
2, 1161531, Note_on_c, 0, 78, 60
2, 1161552, Note_off_c, 0, 75, 53
2, 1161648, Note_on_c, 0, 81, 62
2, 1161665, Control_c, 0, 64, 20
2, 1161671, Note_off_c, 0, 78, 55
2, 1161764, Note_off_c, 0, 62, 52
2, 1161766, Note_off_c, 0, 69, 52
2, 1161768, Note_off_c, 0, 60, 53
2, 1161771, Note_on_c, 0, 54, 48
2, 1161773, Note_on_c, 0, 72, 52
2, 1161780, Note_off_c, 0, 81, 55
2, 1161846, Note_off_c, 0, 72, 53
2, 1161883, Note_on_c, 0, 57, 60
2, 1161917, Control_c, 0, 64, 98
2, 1161983, Note_on_c, 0, 62, 60
2, 1162099, Note_on_c, 0, 75, 63
2, 1162216, Note_on_c, 0, 74, 60
2, 1162235, Note_off_c, 0, 75, 55
2, 1162296, Control_c, 0, 64, 20
2, 1162333, Note_on_c, 0, 72, 54
2, 1162344, Note_off_c, 0, 74, 55
2, 1162450, Note_off_c, 0, 57, 55
2, 1162452, Note_off_c, 0, 62, 55
2, 1162455, Note_off_c, 0, 54, 52
2, 1162457, Note_on_c, 0, 55, 48
2, 1162458, Note_on_c, 0, 70, 48
2, 1162464, Note_off_c, 0, 72, 53
2, 1162537, Note_off_c, 0, 70, 52
2, 1162561, Control_c, 0, 64, 98
2, 1162567, Note_on_c, 0, 58, 48
2, 1162667, Note_on_c, 0, 62, 49
2, 1162784, Note_on_c, 0, 70, 51
2, 1162901, Note_on_c, 0, 69, 54
2, 1162909, Note_off_c, 0, 70, 52
2, 1163020, Control_c, 0, 64, 20
2, 1163021, Note_on_c, 0, 67, 57
2, 1163046, Note_off_c, 0, 69, 53
2, 1163136, Note_off_c, 0, 58, 52
2, 1163139, Note_off_c, 0, 55, 52
2, 1163140, Note_off_c, 0, 62, 52
2, 1163141, Note_on_c, 0, 49, 53
2, 1163142, Note_on_c, 0, 82, 60
2, 1163158, Note_off_c, 0, 67, 54
2, 1163214, Control_c, 0, 64, 98
2, 1163225, Note_off_c, 0, 82, 55
2, 1163253, Note_on_c, 0, 52, 60
2, 1163352, Note_on_c, 0, 57, 62
2, 1163468, Note_on_c, 0, 82, 57
2, 1163586, Note_on_c, 0, 81, 54
2, 1163604, Note_off_c, 0, 82, 54
2, 1163681, Control_c, 0, 64, 20
2, 1163703, Note_on_c, 0, 79, 51
2, 1163725, Note_off_c, 0, 81, 53
2, 1163819, Note_off_c, 0, 52, 55
2, 1163823, Note_off_c, 0, 49, 53
2, 1163825, Note_off_c, 0, 57, 55
2, 1163825, Note_on_c, 0, 50, 48
2, 1163828, Note_on_c, 0, 77, 48
2, 1163838, Note_off_c, 0, 79, 52
2, 1163905, Note_off_c, 0, 77, 52
2, 1163924, Control_c, 0, 64, 20
2, 1163936, Note_on_c, 0, 53, 48
2, 1164036, Note_on_c, 0, 57, 49
2, 1164152, Note_on_c, 0, 77, 65
2, 1164272, Note_on_c, 0, 76, 60
2, 1164288, Note_off_c, 0, 77, 56
2, 1164389, Note_on_c, 0, 74, 56
2, 1164403, Note_off_c, 0, 76, 55
2, 1164506, Note_off_c, 0, 57, 52
2, 1164508, Note_off_c, 0, 53, 52
2, 1164509, Note_off_c, 0, 50, 52
2, 1164512, Note_on_c, 0, 54, 53
2, 1164513, Note_on_c, 0, 75, 84
2, 1164517, Note_off_c, 0, 74, 54
2, 1164595, Note_off_c, 0, 75, 61
2, 1164604, Note_on_c, 0, 57, 60
2, 1164636, Control_c, 0, 64, 98
2, 1164721, Note_on_c, 0, 62, 60
2, 1164837, Note_on_c, 0, 75, 57
2, 1164956, Note_on_c, 0, 74, 54
2, 1164960, Note_off_c, 0, 75, 54
2, 1165073, Note_on_c, 0, 72, 51
2, 1165084, Note_off_c, 0, 74, 53
2, 1165103, Control_c, 0, 64, 20
2, 1165190, Note_off_c, 0, 57, 55
2, 1165192, Note_off_c, 0, 62, 55
2, 1165193, Note_off_c, 0, 54, 53
2, 1165195, Note_on_c, 0, 55, 48
2, 1165196, Note_on_c, 0, 70, 49
2, 1165203, Note_off_c, 0, 72, 52
2, 1165267, Note_off_c, 0, 70, 52
2, 1165290, Note_on_c, 0, 58, 47
2, 1165395, Control_c, 0, 64, 96
2, 1165407, Note_on_c, 0, 62, 49
2, 1165523, Note_on_c, 0, 70, 51
2, 1165640, Note_on_c, 0, 69, 54
2, 1165652, Note_off_c, 0, 70, 52
2, 1165757, Note_on_c, 0, 67, 57
2, 1165766, Control_c, 0, 64, 20
2, 1165768, Note_off_c, 0, 69, 53
2, 1165874, Note_off_c, 0, 58, 51
2, 1165876, Note_off_c, 0, 62, 52
2, 1165878, Note_off_c, 0, 55, 52
2, 1165881, Note_on_c, 0, 49, 53
2, 1165883, Note_on_c, 0, 82, 60
2, 1165891, Note_off_c, 0, 67, 54
2, 1165964, Note_off_c, 0, 82, 55
2, 1165975, Note_on_c, 0, 52, 62
2, 1166040, Control_c, 0, 64, 98
2, 1166091, Note_on_c, 0, 57, 60
2, 1166210, Note_on_c, 0, 82, 57
2, 1166326, Note_on_c, 0, 81, 54
2, 1166336, Note_off_c, 0, 82, 54
2, 1166429, Control_c, 0, 64, 20
2, 1166443, Note_on_c, 0, 79, 51
2, 1166471, Note_off_c, 0, 81, 53
2, 1166560, Note_off_c, 0, 52, 55
2, 1166562, Note_off_c, 0, 57, 55
2, 1166563, Note_off_c, 0, 49, 53
2, 1166565, Note_off_c, 0, 79, 52
2, 1166566, Note_on_c, 0, 77, 48
2, 1166567, Note_on_c, 0, 50, 56
2, 1166635, Control_c, 0, 64, 98
2, 1166637, Note_off_c, 0, 77, 52
2, 1166660, Note_on_c, 0, 53, 52
2, 1166777, Note_on_c, 0, 57, 48
2, 1166893, Note_on_c, 0, 77, 51
2, 1167010, Note_on_c, 0, 76, 54
2, 1167055, Note_off_c, 0, 77, 52
2, 1167102, Control_c, 0, 64, 20
2, 1167127, Note_on_c, 0, 74, 57
2, 1167146, Note_off_c, 0, 76, 53
2, 1167228, Note_off_c, 0, 53, 53
2, 1167231, Note_off_c, 0, 50, 54
2, 1167231, Note_off_c, 0, 57, 52
2, 1167233, Note_on_c, 0, 49, 60
2, 1167234, Note_on_c, 0, 82, 84
2, 1167256, Note_off_c, 0, 74, 54
2, 1167326, Note_off_c, 0, 82, 61
2, 1167343, Note_on_c, 0, 52, 60
2, 1167355, Control_c, 0, 64, 98
2, 1167462, Note_on_c, 0, 57, 59
2, 1167579, Note_on_c, 0, 82, 57
2, 1167695, Note_on_c, 0, 81, 54
2, 1167719, Note_off_c, 0, 82, 54
2, 1167763, Control_c, 0, 64, 20
2, 1167813, Note_on_c, 0, 79, 51
2, 1167827, Note_off_c, 0, 81, 53
2, 1167913, Note_off_c, 0, 52, 55
2, 1167914, Note_off_c, 0, 49, 55
2, 1167917, Note_off_c, 0, 57, 54
2, 1167919, Note_on_c, 0, 50, 45
2, 1167920, Note_on_c, 0, 77, 48
2, 1167923, Note_off_c, 0, 79, 52
2, 1168010, Note_off_c, 0, 77, 52
2, 1168029, Note_on_c, 0, 53, 48
2, 1168038, Control_c, 0, 64, 98
2, 1168146, Note_on_c, 0, 57, 49
2, 1168263, Note_on_c, 0, 77, 50
2, 1168382, Note_on_c, 0, 76, 51
2, 1168397, Note_off_c, 0, 77, 52
2, 1168447, Control_c, 0, 64, 20
2, 1168499, Note_on_c, 0, 74, 52
2, 1168508, Note_off_c, 0, 76, 52
2, 1168599, Note_off_c, 0, 57, 52
2, 1168602, Note_off_c, 0, 53, 52
2, 1168604, Note_off_c, 0, 50, 51
2, 1168604, Note_off_c, 0, 74, 53
2, 1168605, Note_on_c, 0, 49, 60
2, 1168606, Note_on_c, 0, 82, 84
2, 1168685, Note_off_c, 0, 82, 61
2, 1168709, Control_c, 0, 64, 98
2, 1168713, Note_on_c, 0, 52, 60
2, 1168830, Note_on_c, 0, 57, 59
2, 1168947, Note_on_c, 0, 82, 57
2, 1169063, Note_on_c, 0, 81, 54
2, 1169078, Note_off_c, 0, 82, 54
2, 1169139, Control_c, 0, 64, 20
2, 1169181, Note_on_c, 0, 79, 51
2, 1169190, Note_off_c, 0, 81, 53
2, 1169281, Note_off_c, 0, 52, 55
2, 1169284, Note_off_c, 0, 57, 54
2, 1169285, Note_off_c, 0, 49, 55
2, 1169288, Note_on_c, 0, 50, 46
2, 1169290, Note_on_c, 0, 77, 48
2, 1169292, Note_off_c, 0, 79, 52
2, 1169382, Note_off_c, 0, 77, 52
2, 1169398, Note_on_c, 0, 53, 48
2, 1169400, Control_c, 0, 64, 98
2, 1169517, Note_on_c, 0, 57, 48
2, 1169633, Note_on_c, 0, 77, 54
2, 1169750, Note_on_c, 0, 76, 60
2, 1169769, Note_off_c, 0, 77, 53
2, 1169850, Note_on_c, 0, 74, 60
2, 1169869, Control_c, 0, 64, 20
2, 1169874, Note_off_c, 0, 76, 55
2, 1169962, Note_off_c, 0, 74, 55
2, 1169967, Note_off_c, 0, 53, 52
2, 1169970, Note_off_c, 0, 50, 51
2, 1169972, Note_off_c, 0, 57, 52
2, 1169975, Note_on_c, 0, 52, 70
2, 1169976, Note_on_c, 0, 82, 72
2, 1169977, Note_on_c, 0, 55, 82
2, 1169977, Note_on_c, 0, 45, 66
2, 1169978, Note_on_c, 0, 49, 78
2, 1170084, Note_on_c, 0, 79, 72
2, 1170097, Note_off_c, 0, 82, 58
2, 1170202, Note_off_c, 0, 55, 60
2, 1170203, Note_off_c, 0, 45, 56
2, 1170205, Note_off_c, 0, 49, 59
2, 1170208, Note_off_c, 0, 52, 58
2, 1170209, Note_on_c, 0, 78, 71
2, 1170230, Note_off_c, 0, 79, 58
2, 1170318, Note_on_c, 0, 79, 70
2, 1170333, Note_off_c, 0, 78, 58
2, 1170435, Note_on_c, 0, 82, 68
2, 1170447, Note_off_c, 0, 79, 57
2, 1170554, Note_on_c, 0, 79, 67
2, 1170562, Note_off_c, 0, 82, 57
2, 1170654, Note_on_c, 0, 78, 66
2, 1170679, Note_off_c, 0, 79, 57
2, 1170771, Note_on_c, 0, 79, 64
2, 1170778, Note_off_c, 0, 78, 56
2, 1170887, Note_on_c, 0, 82, 63
2, 1170910, Note_off_c, 0, 79, 56
2, 1171004, Note_on_c, 0, 79, 62
2, 1171027, Note_off_c, 0, 82, 55
2, 1171121, Note_on_c, 0, 78, 60
2, 1171128, Note_off_c, 0, 79, 55
2, 1171238, Note_on_c, 0, 79, 60
2, 1171265, Note_off_c, 0, 78, 55
2, 1171354, Note_on_c, 0, 75, 96
2, 1171369, Note_off_c, 0, 79, 55
2, 1171471, Note_on_c, 0, 76, 72
2, 1171474, Note_off_c, 0, 75, 63
2, 1171588, Note_on_c, 0, 79, 71
2, 1171605, Note_off_c, 0, 76, 58
2, 1171705, Note_on_c, 0, 76, 70
2, 1171719, Note_off_c, 0, 79, 58
2, 1171822, Note_on_c, 0, 75, 69
2, 1171844, Note_off_c, 0, 76, 57
2, 1171938, Note_on_c, 0, 76, 68
2, 1171948, Note_off_c, 0, 75, 57
2, 1172055, Note_on_c, 0, 79, 66
2, 1172076, Note_off_c, 0, 76, 57
2, 1172174, Note_on_c, 0, 76, 65
2, 1172177, Note_off_c, 0, 79, 56
2, 1172291, Note_on_c, 0, 75, 64
2, 1172320, Note_off_c, 0, 76, 56
2, 1172408, Note_on_c, 0, 76, 63
2, 1172435, Note_off_c, 0, 75, 56
2, 1172524, Note_on_c, 0, 79, 62
2, 1172539, Note_off_c, 0, 76, 55
2, 1172641, Note_on_c, 0, 76, 60
2, 1172669, Note_off_c, 0, 79, 55
2, 1172758, Note_on_c, 0, 72, 68
2, 1172777, Note_off_c, 0, 76, 55
2, 1172874, Note_on_c, 0, 73, 68
2, 1172898, Note_off_c, 0, 72, 57
2, 1172991, Note_on_c, 0, 76, 68
2, 1173010, Note_off_c, 0, 73, 57
2, 1173092, Note_on_c, 0, 73, 67
2, 1173099, Note_off_c, 0, 76, 57
2, 1173209, Note_on_c, 0, 72, 67
2, 1173220, Note_off_c, 0, 73, 57
2, 1173326, Note_on_c, 0, 73, 66
2, 1173339, Note_off_c, 0, 72, 57
2, 1173443, Note_on_c, 0, 76, 65
2, 1173445, Note_off_c, 0, 73, 56
2, 1173560, Note_on_c, 0, 73, 65
2, 1173576, Note_off_c, 0, 76, 56
2, 1173677, Note_on_c, 0, 72, 64
2, 1173688, Note_off_c, 0, 73, 56
2, 1173795, Note_on_c, 0, 73, 63
2, 1173802, Note_off_c, 0, 72, 56
2, 1173911, Note_on_c, 0, 76, 63
2, 1173926, Note_off_c, 0, 73, 55
2, 1174028, Note_on_c, 0, 73, 62
2, 1174039, Note_off_c, 0, 76, 55
2, 1174145, Note_on_c, 0, 69, 61
2, 1174160, Note_off_c, 0, 73, 55
2, 1174262, Note_on_c, 0, 70, 61
2, 1174280, Note_off_c, 0, 69, 55
2, 1174378, Note_on_c, 0, 73, 60
2, 1174401, Note_off_c, 0, 70, 55
2, 1174495, Note_on_c, 0, 70, 59
2, 1174500, Note_off_c, 0, 73, 55
2, 1174596, Note_on_c, 0, 69, 59
2, 1174604, Note_off_c, 0, 70, 54
2, 1174713, Note_on_c, 0, 70, 58
2, 1174735, Note_off_c, 0, 69, 54
2, 1174830, Note_on_c, 0, 73, 57
2, 1174841, Note_off_c, 0, 70, 54
2, 1174947, Note_on_c, 0, 70, 57
2, 1174975, Note_off_c, 0, 73, 54
2, 1175063, Note_on_c, 0, 69, 59
2, 1175085, Note_off_c, 0, 70, 54
2, 1175180, Note_on_c, 0, 70, 61
2, 1175185, Note_off_c, 0, 69, 54
2, 1175279, Note_on_c, 0, 73, 63
2, 1175290, Note_off_c, 0, 70, 55
2, 1175396, Note_on_c, 0, 70, 65
2, 1175402, Note_off_c, 0, 73, 55
2, 1175513, Note_on_c, 0, 66, 80
2, 1175543, Note_off_c, 0, 70, 56
2, 1175630, Note_on_c, 0, 67, 68
2, 1175636, Note_off_c, 0, 66, 60
2, 1175747, Note_on_c, 0, 70, 68
2, 1175758, Note_off_c, 0, 67, 57
2, 1175864, Note_on_c, 0, 67, 67
2, 1175886, Note_off_c, 0, 70, 57
2, 1175981, Note_on_c, 0, 66, 66
2, 1175995, Note_off_c, 0, 67, 57
2, 1176081, Note_on_c, 0, 67, 66
2, 1176091, Note_off_c, 0, 66, 56
2, 1176198, Note_on_c, 0, 70, 65
2, 1176221, Note_off_c, 0, 67, 56
2, 1176315, Note_on_c, 0, 67, 64
2, 1176322, Note_off_c, 0, 70, 56
2, 1176431, Note_on_c, 0, 66, 63
2, 1176447, Note_off_c, 0, 67, 56
2, 1176548, Note_on_c, 0, 67, 63
2, 1176562, Note_off_c, 0, 66, 55
2, 1176666, Note_on_c, 0, 70, 62
2, 1176696, Note_off_c, 0, 67, 55
2, 1176782, Note_on_c, 0, 67, 61
2, 1176811, Note_off_c, 0, 70, 55
2, 1176899, Note_on_c, 0, 70, 60
2, 1176904, Note_off_c, 0, 67, 55
2, 1177016, Note_on_c, 0, 67, 60
2, 1177035, Note_off_c, 0, 70, 55
2, 1177133, Note_on_c, 0, 66, 59
2, 1177143, Note_off_c, 0, 67, 55
2, 1177249, Note_on_c, 0, 67, 58
2, 1177275, Note_off_c, 0, 66, 54
2, 1177368, Note_on_c, 0, 70, 57
2, 1177393, Note_off_c, 0, 67, 54
2, 1177501, Note_on_c, 0, 67, 57
2, 1177544, Note_off_c, 0, 70, 54
2, 1177618, Note_on_c, 0, 66, 48
2, 1177643, Note_off_c, 0, 67, 54
2, 1177735, Note_on_c, 0, 67, 48
2, 1177744, Note_off_c, 0, 66, 52
2, 1177835, Note_on_c, 0, 70, 48
2, 1177860, Note_off_c, 0, 67, 52
2, 1177952, Note_on_c, 0, 67, 47
2, 1177973, Note_off_c, 0, 70, 52
2, 1178068, Note_on_c, 0, 66, 46
2, 1178110, Note_off_c, 0, 67, 51
2, 1178185, Note_on_c, 0, 67, 45
2, 1178199, Note_off_c, 0, 66, 51
2, 1178302, Note_on_c, 0, 70, 44
2, 1178325, Note_off_c, 0, 67, 51
2, 1178420, Note_on_c, 0, 73, 43
2, 1178449, Note_off_c, 0, 70, 51
2, 1178537, Note_on_c, 0, 70, 42
2, 1178557, Note_off_c, 0, 73, 50
2, 1178652, Note_on_c, 0, 67, 42
2, 1178669, Note_off_c, 0, 70, 50
2, 1178770, Note_on_c, 0, 66, 41
2, 1178790, Note_off_c, 0, 67, 50
2, 1178888, Note_on_c, 0, 67, 40
2, 1178893, Note_off_c, 0, 66, 50
2, 1179005, Note_on_c, 0, 70, 39
2, 1179025, Note_off_c, 0, 67, 50
2, 1179122, Note_on_c, 0, 73, 38
2, 1179150, Note_off_c, 0, 70, 49
2, 1179238, Note_on_c, 0, 76, 37
2, 1179261, Note_off_c, 0, 73, 49
2, 1179355, Note_on_c, 0, 67, 36
2, 1179378, Note_off_c, 0, 76, 49
2, 1179472, Note_on_c, 0, 66, 36
2, 1179495, Note_off_c, 0, 67, 49
2, 1179606, Note_on_c, 0, 67, 37
2, 1179610, Note_off_c, 0, 66, 49
2, 1179723, Note_on_c, 0, 70, 39
2, 1179748, Note_off_c, 0, 67, 49
2, 1179840, Note_on_c, 0, 73, 40
2, 1179855, Note_off_c, 0, 70, 49
2, 1179957, Note_on_c, 0, 76, 42
2, 1179970, Note_off_c, 0, 73, 50
2, 1180073, Note_on_c, 0, 69, 43
2, 1180081, Note_off_c, 0, 76, 50
2, 1180191, Note_on_c, 0, 77, 45
2, 1180208, Note_off_c, 0, 69, 50
2, 1180307, Note_off_c, 0, 77, 51
2, 1180309, Note_on_c, 0, 76, 46
2, 1180425, Note_off_c, 0, 76, 51
2, 1180427, Note_on_c, 0, 74, 48
2, 1180430, Note_on_c, 0, 50, 36
2, 1180542, Note_off_c, 0, 50, 49
2, 1180544, Note_on_c, 0, 57, 36
2, 1180570, Control_c, 0, 64, 96
2, 1180591, Note_off_c, 0, 74, 52
2, 1180642, Note_on_c, 0, 62, 42
2, 1180759, Note_off_c, 0, 62, 50
2, 1180761, Note_on_c, 0, 69, 60
2, 1180763, Note_on_c, 0, 65, 48
2, 1180876, Note_off_c, 0, 65, 52
2, 1180877, Note_off_c, 0, 69, 55
2, 1180880, Note_on_c, 0, 77, 60
2, 1180979, Control_c, 0, 64, 20
2, 1180992, Note_on_c, 0, 76, 52
2, 1181019, Note_off_c, 0, 77, 55
2, 1181109, Note_off_c, 0, 57, 49
2, 1181112, Note_on_c, 0, 50, 36
2, 1181114, Note_on_c, 0, 74, 52
2, 1181116, Note_off_c, 0, 76, 53
2, 1181191, Note_off_c, 0, 74, 53
2, 1181225, Note_off_c, 0, 50, 49
2, 1181228, Note_on_c, 0, 57, 36
2, 1181262, Control_c, 0, 64, 96
2, 1181327, Note_on_c, 0, 62, 42
2, 1181444, Note_off_c, 0, 62, 50
2, 1181446, Note_on_c, 0, 65, 48
2, 1181448, Note_on_c, 0, 69, 58
2, 1181561, Note_off_c, 0, 65, 52
2, 1181562, Note_off_c, 0, 69, 54
2, 1181564, Note_on_c, 0, 77, 60
2, 1181614, Control_c, 0, 64, 20
2, 1181677, Note_on_c, 0, 76, 51
2, 1181701, Note_off_c, 0, 77, 55
2, 1181795, Note_off_c, 0, 57, 49
2, 1181798, Note_on_c, 0, 74, 51
2, 1181799, Note_on_c, 0, 50, 36
2, 1181819, Note_off_c, 0, 76, 52
2, 1181876, Note_off_c, 0, 74, 52
2, 1181910, Note_off_c, 0, 50, 49
2, 1181912, Note_on_c, 0, 57, 36
2, 1181935, Control_c, 0, 64, 96
2, 1182010, Note_on_c, 0, 62, 42
2, 1182127, Note_off_c, 0, 62, 50
2, 1182129, Note_on_c, 0, 65, 48
2, 1182130, Note_on_c, 0, 69, 57
2, 1182244, Note_off_c, 0, 69, 54
2, 1182246, Note_off_c, 0, 65, 52
2, 1182248, Note_on_c, 0, 77, 60
2, 1182333, Control_c, 0, 64, 20
2, 1182363, Note_on_c, 0, 74, 52
2, 1182372, Note_off_c, 0, 77, 55
2, 1182477, Note_off_c, 0, 74, 53
2, 1182479, Note_off_c, 0, 57, 49
2, 1182482, Note_on_c, 0, 76, 52
2, 1182484, Note_on_c, 0, 45, 36
2, 1182564, Note_off_c, 0, 76, 53
2, 1182578, Note_off_c, 0, 45, 49
2, 1182580, Note_on_c, 0, 57, 36
2, 1182596, Control_c, 0, 64, 96
2, 1182695, Note_on_c, 0, 61, 42
2, 1182813, Note_off_c, 0, 61, 50
2, 1182816, Note_on_c, 0, 64, 48
2, 1182818, Note_on_c, 0, 69, 58
2, 1182930, Note_off_c, 0, 69, 54
2, 1182931, Note_off_c, 0, 64, 52
2, 1182932, Note_on_c, 0, 79, 60
2, 1183006, Control_c, 0, 64, 20
2, 1183048, Note_on_c, 0, 77, 53
2, 1183070, Note_off_c, 0, 79, 55
2, 1183166, Note_off_c, 0, 57, 49
2, 1183167, Note_on_c, 0, 76, 53
2, 1183168, Note_on_c, 0, 45, 36
2, 1183172, Note_off_c, 0, 77, 53
2, 1183255, Note_off_c, 0, 76, 53
2, 1183263, Note_off_c, 0, 45, 49
2, 1183266, Note_on_c, 0, 57, 36
2, 1183308, Control_c, 0, 64, 96
2, 1183382, Note_on_c, 0, 61, 42
2, 1183498, Note_off_c, 0, 61, 50
2, 1183501, Note_on_c, 0, 64, 48
2, 1183502, Note_on_c, 0, 69, 58
2, 1183614, Note_off_c, 0, 69, 54
2, 1183617, Note_off_c, 0, 64, 52
2, 1183619, Note_on_c, 0, 79, 60
2, 1183718, Control_c, 0, 64, 20
2, 1183734, Note_on_c, 0, 77, 52
2, 1183748, Note_off_c, 0, 79, 55
2, 1183851, Note_off_c, 0, 57, 49
2, 1183853, Note_on_c, 0, 45, 36
2, 1183855, Note_on_c, 0, 76, 52
2, 1183874, Note_off_c, 0, 77, 53
2, 1183932, Note_off_c, 0, 76, 53
2, 1183948, Note_off_c, 0, 45, 49
2, 1183951, Note_on_c, 0, 57, 36
2, 1183982, Control_c, 0, 64, 96
2, 1184066, Note_on_c, 0, 61, 42
2, 1184183, Note_off_c, 0, 61, 50
2, 1184185, Note_on_c, 0, 69, 60
2, 1184187, Note_on_c, 0, 64, 48
2, 1184299, Note_off_c, 0, 64, 52
2, 1184301, Note_off_c, 0, 69, 55
2, 1184304, Note_on_c, 0, 79, 60
2, 1184399, Control_c, 0, 64, 20
2, 1184417, Note_on_c, 0, 77, 51
2, 1184421, Note_off_c, 0, 79, 55
2, 1184533, Note_off_c, 0, 57, 49
2, 1184536, Note_on_c, 0, 45, 36
2, 1184539, Note_on_c, 0, 76, 51
2, 1184549, Note_off_c, 0, 77, 52
2, 1184624, Note_off_c, 0, 76, 52
2, 1184633, Note_off_c, 0, 45, 49
2, 1184636, Note_on_c, 0, 57, 36
2, 1184652, Control_c, 0, 64, 96
2, 1184752, Note_on_c, 0, 61, 42
2, 1184869, Note_off_c, 0, 61, 50
2, 1184871, Note_on_c, 0, 69, 57
2, 1184873, Note_on_c, 0, 64, 48
2, 1184986, Note_off_c, 0, 64, 52
2, 1184988, Note_off_c, 0, 69, 54
2, 1184991, Note_on_c, 0, 79, 60
2, 1185052, Control_c, 0, 64, 20
2, 1185102, Note_on_c, 0, 76, 60
2, 1185121, Note_off_c, 0, 79, 55
2, 1185202, Note_off_c, 0, 57, 49
2, 1185205, Note_on_c, 0, 50, 36
2, 1185207, Note_on_c, 0, 77, 58
2, 1185236, Note_off_c, 0, 76, 55
2, 1185300, Note_off_c, 0, 77, 54
2, 1185319, Note_off_c, 0, 50, 49
2, 1185322, Note_on_c, 0, 57, 36
2, 1185355, Control_c, 0, 64, 96
2, 1185436, Note_on_c, 0, 62, 38
2, 1185553, Note_off_c, 0, 62, 49
2, 1185555, Note_on_c, 0, 65, 40
2, 1185557, Note_on_c, 0, 74, 52
2, 1185670, Note_off_c, 0, 65, 50
2, 1185672, Note_off_c, 0, 74, 53
2, 1185675, Note_on_c, 0, 81, 52
2, 1185696, Control_c, 0, 64, 20
2, 1185787, Note_off_c, 0, 81, 53
2, 1185789, Note_on_c, 0, 86, 53
2, 1185885, Note_off_c, 0, 86, 53
2, 1185886, Note_off_c, 0, 57, 49
2, 1185889, Note_on_c, 0, 82, 55
2, 1185891, Note_on_c, 0, 55, 46
2, 1185984, Note_off_c, 0, 82, 53
2, 1185997, Control_c, 0, 64, 96
2, 1186002, Note_on_c, 0, 62, 48
2, 1186119, Note_on_c, 0, 67, 50
2, 1186236, Note_on_c, 0, 70, 60
2, 1186353, Note_off_c, 0, 70, 55
2, 1186355, Note_on_c, 0, 74, 62
2, 1186448, Control_c, 0, 64, 20
2, 1186472, Note_off_c, 0, 74, 55
2, 1186475, Note_on_c, 0, 82, 63
2, 1186571, Note_off_c, 0, 82, 55
2, 1186574, Note_off_c, 0, 67, 52
2, 1186575, Note_off_c, 0, 55, 51
2, 1186575, Note_off_c, 0, 62, 52
2, 1186578, Note_on_c, 0, 51, 58
2, 1186579, Note_on_c, 0, 79, 65
2, 1186671, Control_c, 0, 64, 96
2, 1186688, Note_on_c, 0, 58, 58
2, 1186697, Note_off_c, 0, 79, 56
2, 1186807, Note_on_c, 0, 63, 60
2, 1186922, Note_on_c, 0, 67, 70
2, 1187039, Note_off_c, 0, 67, 57
2, 1187040, Note_on_c, 0, 70, 72
2, 1187118, Control_c, 0, 64, 20
2, 1187154, Note_off_c, 0, 70, 58
2, 1187157, Note_on_c, 0, 79, 72
2, 1187255, Note_off_c, 0, 79, 58
2, 1187257, Note_off_c, 0, 63, 55
2, 1187260, Note_off_c, 0, 58, 54
2, 1187262, Note_off_c, 0, 51, 54
2, 1187263, Note_on_c, 0, 49, 55
2, 1187264, Note_on_c, 0, 76, 60
2, 1187351, Note_off_c, 0, 76, 55
2, 1187373, Note_on_c, 0, 57, 59
2, 1187449, Control_c, 0, 64, 96
2, 1187489, Note_on_c, 0, 61, 58
2, 1187606, Note_on_c, 0, 64, 59
2, 1187725, Note_off_c, 0, 64, 54
2, 1187727, Note_on_c, 0, 69, 58
2, 1187810, Control_c, 0, 64, 20
2, 1187825, Note_on_c, 0, 76, 57
2, 1187850, Note_off_c, 0, 69, 54
2, 1187866, Note_off_c, 0, 57, 54
2, 1187870, Note_off_c, 0, 49, 53
2, 1187942, Note_off_c, 0, 61, 54
2, 1187946, Note_on_c, 0, 50, 54
2, 1187948, Note_on_c, 0, 77, 56
2, 1187966, Note_off_c, 0, 76, 54
2, 1188027, Note_off_c, 0, 77, 54
2, 1188059, Note_on_c, 0, 57, 53
2, 1188171, Control_c, 0, 64, 96
2, 1188176, Note_on_c, 0, 62, 52
2, 1188292, Note_on_c, 0, 65, 52
2, 1188409, Note_off_c, 0, 65, 53
2, 1188412, Note_on_c, 0, 69, 51
2, 1188502, Control_c, 0, 64, 20
2, 1188510, Note_off_c, 0, 69, 52
2, 1188512, Note_on_c, 0, 77, 50
2, 1188627, Note_off_c, 0, 77, 52
2, 1188629, Note_off_c, 0, 57, 53
2, 1188631, Note_off_c, 0, 62, 53
2, 1188633, Note_off_c, 0, 50, 53
2, 1188634, Note_on_c, 0, 45, 48
2, 1188635, Note_on_c, 0, 74, 48
2, 1188727, Note_off_c, 0, 74, 52
2, 1188743, Note_on_c, 0, 53, 48
2, 1188786, Control_c, 0, 64, 98
2, 1188861, Note_on_c, 0, 57, 49
2, 1188977, Note_on_c, 0, 62, 51
2, 1189094, Note_off_c, 0, 62, 52
2, 1189096, Note_on_c, 0, 69, 55
2, 1189106, Control_c, 0, 64, 20
2, 1189128, Note_off_c, 0, 45, 52
2, 1189194, Note_off_c, 0, 69, 53
2, 1189196, Note_on_c, 0, 74, 58
2, 1189313, Note_off_c, 0, 74, 54
2, 1189315, Note_off_c, 0, 53, 52
2, 1189318, Note_off_c, 0, 57, 52
2, 1189319, Note_on_c, 0, 73, 62
2, 1189320, Note_on_c, 0, 45, 55
2, 1189400, Note_off_c, 0, 73, 55
2, 1189409, Control_c, 0, 64, 95
2, 1189430, Note_on_c, 0, 52, 57
2, 1189544, Note_on_c, 0, 55, 58
2, 1189663, Note_on_c, 0, 61, 73
2, 1189664, Note_on_c, 0, 57, 60
2, 1189780, Note_on_c, 0, 69, 76
2, 1189787, Note_off_c, 0, 61, 58
2, 1189880, Note_on_c, 0, 73, 80
2, 1189904, Note_off_c, 0, 69, 59
2, 1189906, Control_c, 0, 64, 20
2, 1189997, Note_off_c, 0, 52, 54
2, 1190000, Note_off_c, 0, 57, 55
2, 1190000, Note_off_c, 0, 45, 53
2, 1190002, Note_off_c, 0, 55, 54
2, 1190003, Note_on_c, 0, 74, 84
2, 1190004, Note_on_c, 0, 38, 72
2, 1190025, Note_off_c, 0, 73, 60
2, 1190081, Note_off_c, 0, 74, 61
2, 1190114, Note_off_c, 0, 38, 58
2, 1190116, Note_on_c, 0, 50, 72
2, 1190231, Note_off_c, 0, 50, 58
2, 1190233, Note_on_c, 0, 53, 68
2, 1190347, Note_off_c, 0, 53, 57
2, 1190350, Note_on_c, 0, 57, 64
2, 1190445, Note_off_c, 0, 57, 56
2, 1190448, Note_on_c, 0, 62, 60
2, 1190450, Note_on_c, 0, 65, 72
2, 1190563, Note_off_c, 0, 65, 58
2, 1190565, Note_on_c, 0, 69, 72
2, 1190679, Note_off_c, 0, 69, 58
2, 1190681, Note_off_c, 0, 62, 55
2, 1190683, Note_on_c, 0, 74, 70
2, 1190795, Note_off_c, 0, 74, 57
2, 1190798, Note_on_c, 0, 77, 68
2, 1190912, Note_off_c, 0, 77, 57
2, 1190917, Note_on_c, 0, 81, 66
2, 1191030, Note_off_c, 0, 81, 56
2, 1191034, Note_on_c, 0, 77, 64
2, 1191132, Note_off_c, 0, 77, 56
2, 1191134, Note_on_c, 0, 86, 62
2, 1191249, Note_off_c, 0, 86, 55
2, 1191251, Note_on_c, 0, 81, 60
2, 1191365, Note_off_c, 0, 81, 55
2, 1191367, Note_on_c, 0, 82, 48
2, 1191370, Note_on_c, 0, 55, 36
2, 1191427, Control_c, 0, 64, 96
2, 1191483, Note_on_c, 0, 62, 36
2, 1191599, Note_off_c, 0, 82, 52
2, 1191602, Note_on_c, 0, 67, 37
2, 1191716, Note_on_c, 0, 70, 49
2, 1191817, Note_off_c, 0, 70, 52
2, 1191819, Note_on_c, 0, 74, 50
2, 1191844, Control_c, 0, 64, 20
2, 1191933, Note_off_c, 0, 74, 52
2, 1191936, Note_on_c, 0, 82, 52
2, 1192050, Note_off_c, 0, 82, 53
2, 1192052, Note_off_c, 0, 62, 49
2, 1192055, Note_off_c, 0, 67, 49
2, 1192057, Note_on_c, 0, 79, 77
2, 1192058, Note_off_c, 0, 55, 49
2, 1192059, Note_on_c, 0, 51, 42
2, 1192061, Control_c, 0, 64, 96
2, 1192167, Note_on_c, 0, 58, 44
2, 1192284, Note_on_c, 0, 63, 45
2, 1192401, Note_off_c, 0, 79, 59
2, 1192403, Note_on_c, 0, 67, 57
2, 1192520, Note_off_c, 0, 67, 54
2, 1192522, Note_on_c, 0, 70, 58
2, 1192636, Note_off_c, 0, 70, 54
2, 1192639, Note_on_c, 0, 79, 60
2, 1192753, Note_off_c, 0, 79, 55
2, 1192755, Note_off_c, 0, 58, 51
2, 1192756, Note_off_c, 0, 63, 51
2, 1192757, Note_off_c, 0, 51, 50
2, 1192760, Control_c, 0, 64, 20
2, 1192761, Note_on_c, 0, 48, 50
2, 1192762, Note_on_c, 0, 75, 85
2, 1192869, Note_on_c, 0, 55, 52
2, 1192945, Control_c, 0, 64, 96
2, 1192987, Note_on_c, 0, 60, 53
2, 1193104, Note_off_c, 0, 75, 61
2, 1193106, Note_on_c, 0, 63, 65
2, 1193237, Note_off_c, 0, 63, 56
2, 1193239, Note_on_c, 0, 67, 66
2, 1193353, Note_off_c, 0, 67, 56
2, 1193356, Note_on_c, 0, 75, 68
2, 1193470, Note_off_c, 0, 75, 57
2, 1193472, Note_off_c, 0, 55, 53
2, 1193475, Note_off_c, 0, 60, 53
2, 1193475, Note_off_c, 0, 48, 52
2, 1193477, Control_c, 0, 64, 20
2, 1193478, Note_on_c, 0, 72, 88
2, 1193479, Note_on_c, 0, 45, 58
2, 1193603, Note_on_c, 0, 53, 60
2, 1193671, Control_c, 0, 64, 96
2, 1193720, Note_on_c, 0, 57, 60
2, 1193853, Note_off_c, 0, 72, 62
2, 1193856, Note_on_c, 0, 60, 72
2, 1193971, Note_off_c, 0, 60, 58
2, 1193974, Note_on_c, 0, 65, 72
2, 1194107, Note_off_c, 0, 65, 58
2, 1194109, Note_on_c, 0, 72, 63
2, 1194137, Note_off_c, 0, 53, 55
2, 1194138, Note_off_c, 0, 45, 54
2, 1194223, Note_off_c, 0, 72, 55
2, 1194229, Control_c, 0, 64, 20
2, 1194230, Note_off_c, 0, 57, 55
2, 1194231, Note_on_c, 0, 46, 36
2, 1194232, Note_on_c, 0, 74, 78
2, 1194357, Note_on_c, 0, 53, 36
2, 1194416, Control_c, 0, 64, 96
2, 1194490, Note_on_c, 0, 58, 36
2, 1194607, Note_off_c, 0, 74, 59
2, 1194609, Note_on_c, 0, 62, 54
2, 1194724, Note_off_c, 0, 62, 53
2, 1194726, Note_on_c, 0, 65, 53
2, 1194841, Note_off_c, 0, 65, 53
2, 1194843, Note_on_c, 0, 74, 53
2, 1194958, Note_off_c, 0, 74, 53
2, 1194960, Note_off_c, 0, 53, 49
2, 1194963, Control_c, 0, 64, 20
2, 1194965, Note_off_c, 0, 58, 49
2, 1194966, Note_off_c, 0, 46, 49
2, 1194966, Note_on_c, 0, 75, 76
2, 1194968, Note_on_c, 0, 39, 36
2, 1195074, Note_on_c, 0, 48, 37
2, 1195117, Control_c, 0, 64, 96
2, 1195193, Note_on_c, 0, 51, 39
2, 1195308, Note_off_c, 0, 75, 59
2, 1195311, Note_on_c, 0, 63, 53
2, 1195427, Note_off_c, 0, 63, 53
2, 1195429, Note_on_c, 0, 67, 54
2, 1195520, Note_off_c, 0, 39, 49
2, 1195537, Note_off_c, 0, 48, 49
2, 1195543, Note_off_c, 0, 67, 53
2, 1195546, Note_on_c, 0, 75, 55
2, 1195660, Note_off_c, 0, 75, 53
2, 1195663, Control_c, 0, 64, 20
2, 1195665, Note_off_c, 0, 51, 49
2, 1195667, Note_on_c, 0, 72, 80
2, 1195669, Note_on_c, 0, 41, 46
2, 1195775, Note_on_c, 0, 48, 48
2, 1195825, Control_c, 0, 64, 96
2, 1195894, Note_on_c, 0, 53, 49
2, 1196011, Note_off_c, 0, 72, 60
2, 1196013, Note_on_c, 0, 60, 59
2, 1196127, Note_off_c, 0, 60, 54
2, 1196130, Note_on_c, 0, 69, 60
2, 1196244, Note_off_c, 0, 69, 55
2, 1196246, Note_on_c, 0, 72, 60
2, 1196378, Note_off_c, 0, 72, 55
2, 1196379, Note_off_c, 0, 48, 52
2, 1196382, Note_off_c, 0, 53, 52
2, 1196382, Note_off_c, 0, 41, 51
2, 1196384, Note_on_c, 0, 77, 89
2, 1196386, Note_on_c, 0, 38, 56
2, 1196392, Control_c, 0, 64, 20
2, 1196494, Note_on_c, 0, 46, 58
2, 1196579, Control_c, 0, 64, 96
2, 1196628, Note_on_c, 0, 50, 60
2, 1196743, Note_off_c, 0, 77, 62
2, 1196746, Note_on_c, 0, 65, 48
2, 1196880, Note_off_c, 0, 65, 52
2, 1196881, Note_on_c, 0, 70, 48
2, 1196909, Note_off_c, 0, 38, 54
2, 1196977, Note_off_c, 0, 46, 54
2, 1196993, Note_off_c, 0, 70, 52
2, 1196997, Note_on_c, 0, 77, 54
2, 1197069, Note_off_c, 0, 50, 55
2, 1197128, Note_off_c, 0, 77, 53
2, 1197132, Control_c, 0, 64, 20
2, 1197136, Note_on_c, 0, 74, 84
2, 1197138, Note_on_c, 0, 46, 36
2, 1197244, Note_on_c, 0, 53, 36
2, 1197320, Control_c, 0, 64, 96
2, 1197377, Note_on_c, 0, 58, 37
2, 1197496, Note_off_c, 0, 74, 61
2, 1197498, Note_on_c, 0, 62, 60
2, 1197631, Note_off_c, 0, 62, 55
2, 1197633, Note_on_c, 0, 70, 60
2, 1197748, Note_off_c, 0, 70, 55
2, 1197750, Note_on_c, 0, 74, 61
2, 1197865, Note_off_c, 0, 74, 55
2, 1197867, Note_off_c, 0, 53, 49
2, 1197870, Note_off_c, 0, 58, 49
2, 1197870, Note_off_c, 0, 46, 49
2, 1197872, Control_c, 0, 64, 20
2, 1197873, Note_on_c, 0, 39, 45
2, 1197874, Note_on_c, 0, 75, 85
2, 1197962, Note_on_c, 0, 48, 47
2, 1198023, Control_c, 0, 64, 96
2, 1198080, Note_on_c, 0, 51, 48
2, 1198197, Note_off_c, 0, 75, 61
2, 1198198, Note_on_c, 0, 63, 62
2, 1198313, Note_off_c, 0, 63, 55
2, 1198315, Note_on_c, 0, 67, 63
2, 1198430, Note_off_c, 0, 67, 55
2, 1198432, Note_on_c, 0, 75, 63
2, 1198441, Note_off_c, 0, 48, 51
2, 1198444, Note_off_c, 0, 39, 51
2, 1198546, Note_off_c, 0, 75, 55
2, 1198553, Note_off_c, 0, 51, 52
2, 1198556, Note_on_c, 0, 72, 88
2, 1198558, Note_on_c, 0, 41, 56
2, 1198562, Control_c, 0, 64, 20
2, 1198684, Note_on_c, 0, 48, 58
2, 1198743, Control_c, 0, 64, 96
2, 1198801, Note_on_c, 0, 53, 60
2, 1198832, Note_off_c, 0, 72, 62
2, 1198918, Note_on_c, 0, 60, 65
2, 1199051, Note_off_c, 0, 60, 56
2, 1199053, Note_on_c, 0, 69, 65
2, 1199168, Note_off_c, 0, 69, 56
2, 1199170, Note_on_c, 0, 72, 66
2, 1199301, Note_off_c, 0, 72, 56
2, 1199303, Note_off_c, 0, 48, 54
2, 1199306, Note_off_c, 0, 53, 55
2, 1199306, Control_c, 0, 64, 20
2, 1199308, Note_on_c, 0, 34, 60
2, 1199309, Note_on_c, 0, 70, 72
2, 1199311, Note_off_c, 0, 41, 54
2, 1199434, Note_off_c, 0, 34, 55
2, 1199437, Note_on_c, 0, 41, 64
2, 1199552, Note_off_c, 0, 41, 56
2, 1199554, Note_on_c, 0, 46, 68
2, 1199668, Note_off_c, 0, 46, 57
2, 1199670, Note_on_c, 0, 29, 72
2, 1199688, Control_c, 0, 64, 96
2, 1199785, Note_off_c, 0, 29, 58
2, 1199786, Note_off_c, 0, 70, 58
2, 1199789, Note_on_c, 0, 37, 76
2, 1199902, Note_off_c, 0, 37, 59
2, 1199904, Note_on_c, 0, 36, 80
2, 1200018, Note_off_c, 0, 36, 60
2, 1200022, Note_on_c, 0, 34, 84
2, 1200062, Control_c, 0, 64, 20
2, 1200105, Note_off_c, 0, 34, 61
2, 1200137, Note_on_c, 0, 46, 75
2, 1200237, Note_off_c, 0, 46, 59
2, 1200240, Note_on_c, 0, 49, 78
2, 1200354, Control_c, 0, 64, 96
2, 1200357, Note_off_c, 0, 49, 59
2, 1200358, Note_on_c, 0, 53, 81
2, 1200359, Note_on_c, 0, 29, 80
2, 1200471, Note_off_c, 0, 29, 60
2, 1200473, Note_off_c, 0, 53, 60
2, 1200474, Note_on_c, 0, 37, 76
2, 1200476, Note_on_c, 0, 58, 84
2, 1200548, Note_off_c, 0, 58, 61
2, 1200587, Note_off_c, 0, 37, 59
2, 1200590, Note_on_c, 0, 36, 72
2, 1200705, Note_off_c, 0, 36, 58
2, 1200707, Note_on_c, 0, 34, 84
2, 1200732, Control_c, 0, 64, 20
2, 1200788, Note_off_c, 0, 34, 61
2, 1200805, Note_on_c, 0, 46, 72
2, 1200922, Note_off_c, 0, 46, 58
2, 1200924, Note_on_c, 0, 49, 72
2, 1201025, Control_c, 0, 64, 96
2, 1201039, Note_off_c, 0, 49, 58
2, 1201041, Note_on_c, 0, 53, 78
2, 1201043, Note_on_c, 0, 29, 80
2, 1201155, Note_off_c, 0, 29, 60
2, 1201157, Note_off_c, 0, 53, 59
2, 1201160, Note_on_c, 0, 37, 76
2, 1201162, Note_on_c, 0, 58, 84
2, 1201245, Note_off_c, 0, 58, 61
2, 1201272, Note_off_c, 0, 37, 59
2, 1201275, Note_on_c, 0, 36, 72
2, 1201389, Note_off_c, 0, 36, 58
2, 1201391, Note_on_c, 0, 34, 84
2, 1201396, Control_c, 0, 64, 20
2, 1201466, Note_off_c, 0, 34, 61
2, 1201487, Note_on_c, 0, 46, 72
2, 1201608, Note_off_c, 0, 46, 58
2, 1201610, Note_on_c, 0, 49, 72
2, 1201708, Control_c, 0, 64, 96
2, 1201721, Note_off_c, 0, 49, 58
2, 1201725, Note_on_c, 0, 29, 80
2, 1201727, Note_on_c, 0, 53, 78
2, 1201838, Note_off_c, 0, 53, 59
2, 1201841, Note_off_c, 0, 29, 60
2, 1201844, Note_on_c, 0, 58, 84
2, 1201846, Note_on_c, 0, 37, 76
2, 1201920, Note_off_c, 0, 58, 61
2, 1201955, Note_off_c, 0, 37, 59
2, 1201958, Note_on_c, 0, 34, 72
2, 1202071, Note_off_c, 0, 34, 58
2, 1202075, Note_on_c, 0, 43, 72
2, 1202077, Note_on_c, 0, 36, 84
2, 1202117, Control_c, 0, 64, 20
2, 1202173, Note_off_c, 0, 43, 58
2, 1202175, Note_on_c, 0, 46, 72
2, 1202290, Note_off_c, 0, 46, 58
2, 1202292, Note_on_c, 0, 52, 75
2, 1202407, Note_off_c, 0, 52, 59
2, 1202409, Note_on_c, 0, 55, 78
2, 1202523, Note_off_c, 0, 55, 59
2, 1202525, Note_on_c, 0, 58, 81
2, 1202640, Note_off_c, 0, 58, 60
2, 1202642, Note_on_c, 0, 64, 84
2, 1202757, Note_off_c, 0, 64, 61
2, 1202759, Note_off_c, 0, 36, 61
2, 1202762, Note_on_c, 0, 41, 72
2, 1202764, Note_on_c, 0, 29, 72
2, 1202765, Note_on_c, 0, 53, 72
2, 1202859, Note_off_c, 0, 53, 58
2, 1202860, Note_off_c, 0, 29, 58
2, 1202862, Note_off_c, 0, 41, 58
2, 1202864, Note_on_c, 0, 65, 72
2, 1202894, Control_c, 0, 64, 96
2, 1202975, Note_off_c, 0, 65, 58
2, 1202977, Note_on_c, 0, 44, 73
2, 1202979, Note_on_c, 0, 56, 73
2, 1203092, Note_off_c, 0, 56, 58
2, 1203095, Note_off_c, 0, 44, 58
2, 1203096, Note_on_c, 0, 68, 75
2, 1203208, Note_off_c, 0, 68, 59
2, 1203212, Note_on_c, 0, 48, 77
2, 1203213, Note_on_c, 0, 60, 76
2, 1203325, Note_off_c, 0, 60, 59
2, 1203329, Note_off_c, 0, 48, 59
2, 1203331, Note_on_c, 0, 72, 78
2, 1203427, Note_off_c, 0, 72, 59
2, 1203430, Note_on_c, 0, 65, 79
2, 1203430, Note_on_c, 0, 53, 80
2, 1203542, Note_off_c, 0, 53, 60
2, 1203547, Note_off_c, 0, 65, 60
2, 1203548, Note_on_c, 0, 77, 81
2, 1203660, Note_off_c, 0, 77, 60
2, 1203663, Note_on_c, 0, 68, 82
2, 1203665, Note_on_c, 0, 56, 84
2, 1203777, Note_off_c, 0, 56, 61
2, 1203780, Note_off_c, 0, 68, 60
2, 1203782, Note_on_c, 0, 80, 84
2, 1203802, Control_c, 0, 64, 20
2, 1203894, Note_off_c, 0, 80, 61
2, 1203897, Note_on_c, 0, 65, 84
2, 1203898, Note_on_c, 0, 53, 82
2, 1203997, Control_c, 0, 64, 96
2, 1204011, Note_off_c, 0, 53, 60
2, 1204013, Note_off_c, 0, 65, 61
2, 1204015, Note_on_c, 0, 77, 82
2, 1204111, Note_off_c, 0, 77, 60
2, 1204114, Note_on_c, 0, 60, 80
2, 1204116, Note_on_c, 0, 48, 78
2, 1204229, Note_off_c, 0, 48, 59
2, 1204231, Note_off_c, 0, 60, 60
2, 1204233, Note_on_c, 0, 72, 78
2, 1204345, Note_off_c, 0, 72, 59
2, 1204348, Note_on_c, 0, 56, 76
2, 1204350, Note_on_c, 0, 44, 74
2, 1204465, Note_off_c, 0, 44, 59
2, 1204466, Note_off_c, 0, 56, 59
2, 1204467, Note_on_c, 0, 68, 74
2, 1204579, Note_off_c, 0, 68, 59
2, 1204582, Note_on_c, 0, 60, 71
2, 1204584, Note_on_c, 0, 48, 69
2, 1204698, Note_off_c, 0, 48, 57
2, 1204700, Note_off_c, 0, 60, 58
2, 1204701, Note_on_c, 0, 72, 69
2, 1204797, Note_off_c, 0, 72, 57
2, 1204799, Note_on_c, 0, 44, 65
2, 1204801, Note_on_c, 0, 56, 67
2, 1204835, Control_c, 0, 64, 20
2, 1204914, Note_off_c, 0, 44, 56
2, 1204915, Note_off_c, 0, 56, 57
2, 1204918, Note_on_c, 0, 68, 65
2, 1205030, Note_off_c, 0, 68, 56
2, 1205033, Note_on_c, 0, 41, 57
2, 1205034, Note_on_c, 0, 53, 63
2, 1205081, Note_off_c, 0, 41, 54
2, 1205138, Control_c, 0, 64, 96
2, 1205147, Note_off_c, 0, 53, 55
2, 1205151, Note_on_c, 0, 65, 60
2, 1205152, Note_on_c, 0, 36, 55
2, 1205265, Note_off_c, 0, 65, 55
2, 1205267, Note_off_c, 0, 36, 53
2, 1205270, Note_on_c, 0, 44, 60
2, 1205382, Note_on_c, 0, 43, 72
2, 1205394, Note_off_c, 0, 44, 55
2, 1205482, Note_on_c, 0, 41, 84
2, 1205496, Note_off_c, 0, 43, 58
2, 1205527, Control_c, 0, 64, 20
2, 1205578, Note_off_c, 0, 41, 61
2, 1205600, Note_on_c, 0, 53, 72
2, 1205716, Note_on_c, 0, 56, 72
2, 1205726, Note_off_c, 0, 53, 58
2, 1205819, Control_c, 0, 64, 96
2, 1205833, Note_on_c, 0, 36, 74
2, 1205835, Note_on_c, 0, 60, 78
2, 1205837, Note_off_c, 0, 56, 58
2, 1205950, Note_on_c, 0, 65, 84
2, 1205951, Note_on_c, 0, 44, 72
2, 1205967, Note_off_c, 0, 36, 59
2, 1205970, Note_off_c, 0, 60, 59
2, 1206030, Note_off_c, 0, 65, 61
2, 1206052, Note_on_c, 0, 43, 72
2, 1206061, Note_off_c, 0, 44, 58
2, 1206169, Note_on_c, 0, 41, 84
2, 1206175, Note_off_c, 0, 43, 58
2, 1206200, Control_c, 0, 64, 20
2, 1206255, Note_off_c, 0, 41, 61
2, 1206281, Note_on_c, 0, 53, 72
2, 1206402, Note_on_c, 0, 56, 72
2, 1206410, Note_off_c, 0, 53, 58
2, 1206519, Note_on_c, 0, 36, 72
2, 1206521, Note_on_c, 0, 60, 78
2, 1206531, Control_c, 0, 64, 96
2, 1206536, Note_off_c, 0, 56, 58
2, 1206636, Note_on_c, 0, 65, 84
2, 1206638, Note_on_c, 0, 44, 72
2, 1206647, Note_off_c, 0, 60, 59
2, 1206649, Note_off_c, 0, 36, 58
2, 1206716, Note_off_c, 0, 65, 61
2, 1206735, Note_on_c, 0, 43, 78
2, 1206746, Note_off_c, 0, 44, 58
2, 1206853, Note_on_c, 0, 41, 84
2, 1206864, Note_off_c, 0, 43, 59
2, 1206891, Control_c, 0, 64, 20
2, 1206952, Note_off_c, 0, 41, 61
2, 1206968, Note_on_c, 0, 53, 72
2, 1207086, Note_on_c, 0, 56, 72
2, 1207098, Note_off_c, 0, 53, 58
2, 1207203, Note_off_c, 0, 56, 58
2, 1207206, Note_on_c, 0, 36, 72
2, 1207208, Note_on_c, 0, 60, 78
2, 1207213, Control_c, 0, 64, 96
2, 1207320, Note_on_c, 0, 65, 84
2, 1207322, Note_on_c, 0, 44, 72
2, 1207332, Note_off_c, 0, 60, 59
2, 1207343, Note_off_c, 0, 36, 58
2, 1207409, Note_off_c, 0, 65, 61
2, 1207420, Note_on_c, 0, 41, 78
2, 1207441, Note_off_c, 0, 44, 58
2, 1207519, Note_off_c, 0, 41, 59
2, 1207536, Note_on_c, 0, 50, 72
2, 1207538, Note_on_c, 0, 43, 84
2, 1207539, Note_on_c, 0, 31, 75
2, 1207582, Control_c, 0, 64, 20
2, 1207653, Note_off_c, 0, 50, 58
2, 1207656, Note_on_c, 0, 53, 72
2, 1207770, Note_off_c, 0, 53, 58
2, 1207773, Note_on_c, 0, 59, 75
2, 1207887, Note_off_c, 0, 59, 59
2, 1207890, Note_on_c, 0, 62, 78
2, 1208004, Note_off_c, 0, 62, 59
2, 1208006, Note_on_c, 0, 65, 81
2, 1208104, Note_off_c, 0, 65, 60
2, 1208107, Note_on_c, 0, 71, 84
2, 1208222, Note_off_c, 0, 71, 61
2, 1208224, Note_off_c, 0, 43, 61
2, 1208226, Note_off_c, 0, 31, 59
2, 1208227, Note_on_c, 0, 48, 68
2, 1208228, Note_on_c, 0, 60, 72
2, 1208229, Note_on_c, 0, 36, 60
2, 1208309, Note_off_c, 0, 48, 57
2, 1208309, Note_off_c, 0, 36, 55
2, 1208338, Note_off_c, 0, 60, 58
2, 1208341, Note_on_c, 0, 72, 72
2, 1208343, Control_c, 0, 64, 96
2, 1208456, Note_off_c, 0, 72, 58
2, 1208458, Note_on_c, 0, 63, 73
2, 1208460, Note_on_c, 0, 51, 74
2, 1208545, Note_off_c, 0, 51, 59
2, 1208572, Note_off_c, 0, 63, 58
2, 1208575, Note_on_c, 0, 75, 75
2, 1208673, Note_off_c, 0, 75, 59
2, 1208675, Note_on_c, 0, 67, 76
2, 1208677, Note_on_c, 0, 55, 78
2, 1208750, Note_off_c, 0, 55, 59
2, 1208789, Note_off_c, 0, 67, 59
2, 1208792, Note_on_c, 0, 79, 78
2, 1208906, Note_off_c, 0, 79, 59
2, 1208909, Note_on_c, 0, 72, 79
2, 1208911, Note_on_c, 0, 60, 82
2, 1208996, Note_off_c, 0, 60, 60
2, 1209023, Note_off_c, 0, 72, 60
2, 1209025, Note_on_c, 0, 84, 81
2, 1209128, Control_c, 0, 64, 20
2, 1209141, Note_off_c, 0, 84, 60
2, 1209143, Note_on_c, 0, 75, 82
2, 1209144, Note_on_c, 0, 63, 84
2, 1209222, Note_off_c, 0, 63, 61
2, 1209256, Note_off_c, 0, 75, 60
2, 1209259, Note_on_c, 0, 87, 84
2, 1209328, Control_c, 0, 64, 96
2, 1209357, Note_off_c, 0, 87, 61
2, 1209360, Note_on_c, 0, 72, 84
2, 1209361, Note_on_c, 0, 60, 82
2, 1209446, Note_off_c, 0, 60, 60
2, 1209474, Note_off_c, 0, 72, 61
2, 1209476, Note_on_c, 0, 84, 84
2, 1209591, Note_off_c, 0, 84, 61
2, 1209593, Note_on_c, 0, 67, 83
2, 1209595, Note_on_c, 0, 55, 78
2, 1209681, Note_off_c, 0, 55, 59
2, 1209707, Note_off_c, 0, 67, 60
2, 1209710, Note_on_c, 0, 79, 82
2, 1209824, Note_off_c, 0, 79, 60
2, 1209829, Note_on_c, 0, 63, 81
2, 1209830, Note_on_c, 0, 51, 74
2, 1209915, Note_off_c, 0, 51, 59
2, 1209943, Note_off_c, 0, 63, 60
2, 1209945, Note_on_c, 0, 75, 80
2, 1210041, Note_off_c, 0, 75, 60
2, 1210043, Note_on_c, 0, 67, 79
2, 1210045, Note_on_c, 0, 55, 69
2, 1210120, Note_off_c, 0, 55, 57
2, 1210157, Note_off_c, 0, 67, 60
2, 1210160, Note_on_c, 0, 79, 78
2, 1210274, Note_off_c, 0, 79, 59
2, 1210277, Note_on_c, 0, 63, 78
2, 1210278, Note_on_c, 0, 51, 65
2, 1210357, Note_off_c, 0, 51, 56
2, 1210391, Note_off_c, 0, 63, 59
2, 1210394, Note_on_c, 0, 75, 77
2, 1210431, Control_c, 0, 64, 20
2, 1210508, Note_off_c, 0, 75, 59
2, 1210510, Note_on_c, 0, 48, 60
2, 1210512, Note_on_c, 0, 60, 76
2, 1210560, Note_off_c, 0, 48, 55
2, 1210624, Note_off_c, 0, 60, 59
2, 1210624, Control_c, 0, 64, 96
2, 1210627, Note_on_c, 0, 72, 75
2, 1210629, Note_on_c, 0, 31, 60
2, 1210725, Note_off_c, 0, 72, 59
2, 1210728, Note_on_c, 0, 39, 60
2, 1210746, Note_off_c, 0, 31, 55
2, 1210845, Note_on_c, 0, 38, 72
2, 1210863, Note_off_c, 0, 39, 55
2, 1210963, Note_on_c, 0, 36, 84
2, 1210969, Note_off_c, 0, 38, 58
2, 1211022, Control_c, 0, 64, 20
2, 1211044, Note_off_c, 0, 36, 61
2, 1211077, Note_on_c, 0, 48, 72
2, 1211196, Note_on_c, 0, 51, 72
2, 1211199, Note_off_c, 0, 48, 58
2, 1211277, Control_c, 0, 64, 96
2, 1211295, Note_on_c, 0, 55, 78
2, 1211296, Note_on_c, 0, 31, 78
2, 1211306, Note_off_c, 0, 51, 58
2, 1211414, Note_on_c, 0, 60, 84
2, 1211416, Note_on_c, 0, 39, 72
2, 1211418, Note_off_c, 0, 31, 59
2, 1211433, Note_off_c, 0, 55, 59
2, 1211502, Note_off_c, 0, 60, 61
2, 1211529, Note_on_c, 0, 38, 72
2, 1211552, Note_off_c, 0, 39, 58
2, 1211646, Note_on_c, 0, 36, 84
2, 1211660, Note_off_c, 0, 38, 58
2, 1211666, Control_c, 0, 64, 20
2, 1211734, Note_off_c, 0, 36, 61
2, 1211762, Note_on_c, 0, 48, 72
2, 1211879, Note_on_c, 0, 51, 72
2, 1211900, Note_off_c, 0, 48, 58
2, 1211958, Control_c, 0, 64, 96
2, 1211980, Note_on_c, 0, 55, 78
2, 1211982, Note_on_c, 0, 31, 80
2, 1211989, Note_off_c, 0, 51, 58
2, 1212099, Note_on_c, 0, 60, 84
2, 1212101, Note_on_c, 0, 39, 76
2, 1212103, Note_off_c, 0, 31, 60
2, 1212124, Note_off_c, 0, 55, 59
2, 1212188, Note_off_c, 0, 60, 61
2, 1212215, Note_on_c, 0, 38, 72
2, 1212232, Note_off_c, 0, 39, 59
2, 1212332, Note_on_c, 0, 36, 84
2, 1212335, Note_off_c, 0, 38, 58
2, 1212378, Control_c, 0, 64, 20
2, 1212413, Note_off_c, 0, 36, 61
2, 1212449, Note_on_c, 0, 48, 72
2, 1212564, Note_on_c, 0, 51, 72
2, 1212569, Note_off_c, 0, 48, 58
2, 1212666, Note_on_c, 0, 31, 80
2, 1212668, Note_on_c, 0, 55, 78
2, 1212671, Note_off_c, 0, 51, 58
2, 1212690, Control_c, 0, 64, 80
2, 1212783, Note_off_c, 0, 31, 60
2, 1212785, Note_on_c, 0, 39, 76
2, 1212787, Note_on_c, 0, 60, 84
2, 1212802, Note_off_c, 0, 55, 59
2, 1212871, Note_off_c, 0, 60, 61
2, 1212899, Note_off_c, 0, 39, 59
2, 1212902, Note_on_c, 0, 36, 74
2, 1212982, Note_off_c, 0, 36, 59
2, 1213016, Note_on_c, 0, 45, 72
2, 1213018, Note_on_c, 0, 38, 84
2, 1213088, Control_c, 0, 64, 20
2, 1213133, Note_off_c, 0, 45, 58
2, 1213135, Note_on_c, 0, 48, 72
2, 1213250, Note_off_c, 0, 48, 58
2, 1213252, Note_on_c, 0, 54, 75
2, 1213350, Note_off_c, 0, 54, 59
2, 1213352, Note_on_c, 0, 57, 78
2, 1213467, Note_off_c, 0, 57, 59
2, 1213469, Note_on_c, 0, 60, 81
2, 1213584, Note_off_c, 0, 60, 60
2, 1213586, Note_on_c, 0, 66, 84
2, 1213701, Note_off_c, 0, 66, 61
2, 1213703, Note_off_c, 0, 38, 61
2, 1213705, Note_on_c, 0, 31, 65
2, 1213706, Note_on_c, 0, 55, 72
2, 1213707, Note_on_c, 0, 43, 60
2, 1213790, Note_off_c, 0, 43, 55
2, 1213794, Note_off_c, 0, 31, 56
2, 1213817, Note_off_c, 0, 55, 58
2, 1213820, Note_on_c, 0, 67, 72
2, 1213909, Control_c, 0, 64, 96
2, 1213916, Note_off_c, 0, 67, 58
2, 1213918, Note_on_c, 0, 58, 73
2, 1213920, Note_on_c, 0, 46, 60
2, 1214006, Note_off_c, 0, 46, 55
2, 1214031, Note_off_c, 0, 58, 58
2, 1214035, Note_on_c, 0, 70, 75
2, 1214149, Note_off_c, 0, 70, 59
2, 1214153, Note_on_c, 0, 62, 76
2, 1214154, Note_on_c, 0, 50, 77
2, 1214234, Note_off_c, 0, 50, 59
2, 1214266, Note_off_c, 0, 62, 59
2, 1214270, Note_on_c, 0, 74, 78
2, 1214384, Note_off_c, 0, 74, 59
2, 1214387, Note_on_c, 0, 67, 79
2, 1214389, Note_on_c, 0, 55, 80
2, 1214478, Note_off_c, 0, 55, 60
2, 1214501, Note_off_c, 0, 67, 60
2, 1214503, Note_on_c, 0, 79, 81
2, 1214601, Note_off_c, 0, 79, 60
2, 1214604, Note_on_c, 0, 70, 82
2, 1214606, Note_on_c, 0, 58, 84
2, 1214696, Note_off_c, 0, 58, 61
2, 1214718, Note_off_c, 0, 70, 60
2, 1214721, Note_on_c, 0, 82, 84
2, 1214835, Note_off_c, 0, 82, 61
2, 1214837, Note_on_c, 0, 67, 84
2, 1214839, Note_on_c, 0, 55, 82
2, 1214856, Control_c, 0, 64, 20
2, 1214929, Note_off_c, 0, 55, 60
2, 1214951, Note_off_c, 0, 67, 61
2, 1214954, Note_on_c, 0, 79, 83
2, 1215057, Control_c, 0, 64, 96
2, 1215068, Note_off_c, 0, 79, 60
2, 1215071, Note_on_c, 0, 62, 82
2, 1215073, Note_on_c, 0, 50, 78
2, 1215162, Note_off_c, 0, 50, 59
2, 1215185, Note_off_c, 0, 62, 60
2, 1215189, Note_on_c, 0, 74, 81
2, 1215288, Note_off_c, 0, 74, 60
2, 1215289, Note_on_c, 0, 58, 80
2, 1215290, Note_on_c, 0, 46, 74
2, 1215379, Note_off_c, 0, 46, 59
2, 1215402, Note_off_c, 0, 58, 60
2, 1215405, Note_on_c, 0, 70, 79
2, 1215519, Note_off_c, 0, 70, 60
2, 1215522, Note_on_c, 0, 62, 78
2, 1215524, Note_on_c, 0, 50, 70
2, 1215610, Note_off_c, 0, 50, 57
2, 1215638, Note_off_c, 0, 62, 59
2, 1215640, Note_on_c, 0, 74, 77
2, 1215755, Note_off_c, 0, 74, 59
2, 1215757, Note_on_c, 0, 58, 76
2, 1215758, Note_on_c, 0, 46, 66
2, 1215846, Note_off_c, 0, 46, 56
2, 1215871, Note_off_c, 0, 58, 59
2, 1215874, Note_on_c, 0, 70, 75
2, 1215880, Control_c, 0, 64, 20
2, 1215972, Note_off_c, 0, 70, 59
2, 1215975, Note_on_c, 0, 55, 74
2, 1215976, Note_on_c, 0, 43, 62
2, 1216021, Note_off_c, 0, 43, 55
2, 1216088, Note_off_c, 0, 55, 59
2, 1216090, Note_on_c, 0, 67, 72
2, 1216092, Note_on_c, 0, 38, 65
2, 1216120, Control_c, 0, 64, 80
2, 1216206, Note_off_c, 0, 67, 58
2, 1216209, Note_on_c, 0, 46, 60
2, 1216214, Note_off_c, 0, 38, 56
2, 1216323, Note_on_c, 0, 45, 72
2, 1216348, Note_off_c, 0, 46, 55
2, 1216441, Note_on_c, 0, 43, 84
2, 1216451, Control_c, 0, 64, 20
2, 1216466, Note_off_c, 0, 45, 58
2, 1216522, Note_off_c, 0, 43, 61
2, 1216543, Note_on_c, 0, 50, 75
2, 1216659, Note_off_c, 0, 50, 59
2, 1216662, Note_on_c, 0, 55, 78
2, 1216776, Note_off_c, 0, 55, 59
2, 1216779, Note_on_c, 0, 58, 81
2, 1216779, Note_on_c, 0, 38, 80
2, 1216793, Control_c, 0, 64, 80
2, 1216893, Note_off_c, 0, 58, 60
2, 1216895, Note_on_c, 0, 62, 84
2, 1216896, Note_on_c, 0, 46, 76
2, 1216908, Note_off_c, 0, 38, 60
2, 1216976, Note_off_c, 0, 62, 61
2, 1217009, Note_on_c, 0, 45, 72
2, 1217017, Note_off_c, 0, 46, 59
2, 1217126, Note_on_c, 0, 43, 84
2, 1217138, Note_off_c, 0, 45, 58
2, 1217162, Control_c, 0, 64, 20
2, 1217205, Note_off_c, 0, 43, 61
2, 1217226, Note_on_c, 0, 50, 72
2, 1217343, Note_off_c, 0, 50, 58
2, 1217346, Note_on_c, 0, 55, 72
2, 1217460, Note_off_c, 0, 55, 58
2, 1217463, Note_on_c, 0, 58, 78
2, 1217465, Note_on_c, 0, 38, 80
2, 1217484, Control_c, 0, 64, 80
2, 1217577, Note_off_c, 0, 58, 59
2, 1217579, Note_on_c, 0, 62, 84
2, 1217581, Note_on_c, 0, 46, 76
2, 1217593, Note_off_c, 0, 38, 60
2, 1217659, Note_off_c, 0, 62, 61
2, 1217694, Note_on_c, 0, 45, 72
2, 1217708, Note_off_c, 0, 46, 59
2, 1217810, Note_on_c, 0, 43, 84
2, 1217813, Note_off_c, 0, 45, 58
2, 1217846, Control_c, 0, 64, 20
2, 1217892, Note_off_c, 0, 43, 61
2, 1217908, Note_on_c, 0, 50, 72
2, 1218025, Note_off_c, 0, 50, 58
2, 1218027, Note_on_c, 0, 55, 72
2, 1218142, Note_off_c, 0, 55, 58
2, 1218144, Note_on_c, 0, 38, 80
2, 1218146, Note_on_c, 0, 58, 78
2, 1218157, Control_c, 0, 64, 80
2, 1218258, Note_off_c, 0, 58, 59
2, 1218261, Note_off_c, 0, 38, 60
2, 1218264, Note_on_c, 0, 62, 84
2, 1218265, Note_on_c, 0, 46, 76
2, 1218348, Note_off_c, 0, 62, 61
2, 1218375, Note_off_c, 0, 46, 59
2, 1218378, Note_on_c, 0, 43, 72
2, 1218493, Note_off_c, 0, 43, 58
2, 1218497, Note_on_c, 0, 56, 60
2, 1218499, Note_on_c, 0, 50, 54
2, 1218500, Note_on_c, 0, 34, 76
2, 1218501, Note_on_c, 0, 46, 84
2, 1218547, Control_c, 0, 64, 20
2, 1218595, Note_off_c, 0, 56, 55
2, 1218597, Note_off_c, 0, 50, 53
2, 1218598, Note_on_c, 0, 62, 60
2, 1218710, Note_off_c, 0, 62, 55
2, 1218714, Note_on_c, 0, 56, 63
2, 1218716, Note_on_c, 0, 50, 57
2, 1218828, Note_off_c, 0, 56, 55
2, 1218830, Note_off_c, 0, 50, 54
2, 1218833, Note_on_c, 0, 62, 66
2, 1218945, Note_off_c, 0, 62, 56
2, 1218947, Note_on_c, 0, 56, 69
2, 1218950, Note_on_c, 0, 50, 63
2, 1219062, Note_off_c, 0, 56, 57
2, 1219064, Note_off_c, 0, 50, 55
2, 1219067, Note_on_c, 0, 62, 72
2, 1219163, Note_off_c, 0, 62, 58
2, 1219165, Note_off_c, 0, 34, 59
2, 1219167, Note_off_c, 0, 46, 61
2, 1219169, Note_on_c, 0, 52, 65
2, 1219170, Note_on_c, 0, 61, 72
2, 1219172, Note_on_c, 0, 33, 75
2, 1219173, Note_on_c, 0, 45, 84
2, 1219174, Note_on_c, 0, 57, 60
2, 1219380, Note_off_c, 0, 57, 55
2, 1219382, Note_off_c, 0, 61, 58
2, 1219384, Note_off_c, 0, 52, 56
2, 1219386, Note_off_c, 0, 33, 59
2, 1219387, Note_off_c, 0, 45, 61
2, 1219431, Note_on_c, 0, 55, 48
2, 1219433, Note_on_c, 0, 70, 84
2, 1219435, Note_on_c, 0, 52, 42
2, 1219499, Note_off_c, 0, 70, 61
2, 1219501, Note_on_c, 0, 72, 84
2, 1219548, Note_off_c, 0, 72, 61
2, 1219550, Note_off_c, 0, 55, 52
2, 1219552, Note_off_c, 0, 52, 50
2, 1219555, Note_on_c, 0, 57, 48
2, 1219556, Note_on_c, 0, 70, 76
2, 1219666, Note_off_c, 0, 70, 59
2, 1219667, Note_off_c, 0, 57, 52
2, 1219669, Note_on_c, 0, 69, 60
2, 1219671, Note_on_c, 0, 49, 49
2, 1219782, Note_off_c, 0, 49, 52
2, 1219783, Note_on_c, 0, 57, 50
2, 1219883, Note_off_c, 0, 57, 52
2, 1219884, Note_off_c, 0, 69, 55
2, 1219887, Note_on_c, 0, 55, 50
2, 1219888, Note_on_c, 0, 70, 84
2, 1219889, Note_on_c, 0, 52, 44
2, 1219950, Note_off_c, 0, 70, 61
2, 1219952, Note_on_c, 0, 72, 84
2, 1220000, Note_off_c, 0, 72, 61
2, 1220003, Note_off_c, 0, 55, 52
2, 1220004, Note_off_c, 0, 52, 51
2, 1220005, Note_on_c, 0, 70, 76
2, 1220006, Note_on_c, 0, 57, 51
2, 1220116, Note_off_c, 0, 57, 52
2, 1220118, Note_off_c, 0, 70, 59
2, 1220120, Note_on_c, 0, 49, 52
2, 1220121, Note_on_c, 0, 69, 60
2, 1220232, Note_off_c, 0, 49, 53
2, 1220235, Note_on_c, 0, 57, 53
2, 1220351, Note_off_c, 0, 57, 53
2, 1220353, Note_off_c, 0, 69, 55
2, 1220356, Note_on_c, 0, 55, 54
2, 1220358, Note_on_c, 0, 52, 48
2, 1220359, Note_on_c, 0, 70, 84
2, 1220400, Note_off_c, 0, 70, 61
2, 1220403, Note_on_c, 0, 72, 84
2, 1220469, Note_off_c, 0, 72, 61
2, 1220470, Note_off_c, 0, 55, 53
2, 1220472, Note_off_c, 0, 52, 52
2, 1220473, Note_on_c, 0, 70, 76
2, 1220475, Note_on_c, 0, 57, 55
2, 1220567, Note_off_c, 0, 57, 53
2, 1220568, Note_off_c, 0, 70, 59
2, 1220570, Note_on_c, 0, 69, 60
2, 1220573, Note_on_c, 0, 49, 55
2, 1220685, Note_off_c, 0, 49, 53
2, 1220686, Note_on_c, 0, 57, 56
2, 1220800, Note_off_c, 0, 57, 54
2, 1220802, Note_off_c, 0, 69, 55
2, 1220804, Note_on_c, 0, 55, 57
2, 1220806, Note_on_c, 0, 70, 84
2, 1220808, Note_on_c, 0, 52, 51
2, 1220851, Note_off_c, 0, 70, 61
2, 1220853, Note_on_c, 0, 72, 84
2, 1220918, Note_off_c, 0, 55, 54
2, 1220918, Note_off_c, 0, 72, 61
2, 1220920, Note_off_c, 0, 52, 52
2, 1220923, Note_on_c, 0, 57, 58
2, 1220925, Note_on_c, 0, 70, 76
2, 1221034, Note_off_c, 0, 57, 54
2, 1221035, Note_off_c, 0, 70, 59
2, 1221037, Note_on_c, 0, 69, 60
2, 1221040, Note_on_c, 0, 49, 59
2, 1221150, Note_off_c, 0, 49, 54
2, 1221154, Note_on_c, 0, 57, 60
2, 1221255, Note_off_c, 0, 57, 55
2, 1221256, Note_off_c, 0, 69, 55
2, 1221257, Note_on_c, 0, 55, 60
2, 1221258, Note_on_c, 0, 70, 84
2, 1221259, Note_on_c, 0, 52, 54
2, 1221318, Note_off_c, 0, 70, 61
2, 1221321, Note_on_c, 0, 72, 84
2, 1221372, Note_off_c, 0, 55, 55
2, 1221372, Note_off_c, 0, 72, 61
2, 1221374, Note_off_c, 0, 52, 53
2, 1221375, Note_on_c, 0, 57, 59
2, 1221376, Note_on_c, 0, 70, 76
2, 1221486, Note_off_c, 0, 57, 54
2, 1221488, Note_off_c, 0, 70, 59
2, 1221491, Note_on_c, 0, 49, 58
2, 1221492, Note_on_c, 0, 69, 60
2, 1221605, Note_off_c, 0, 49, 54
2, 1221607, Note_on_c, 0, 57, 57
2, 1221722, Note_off_c, 0, 57, 54
2, 1221724, Note_off_c, 0, 69, 55
2, 1221725, Note_on_c, 0, 55, 56
2, 1221726, Note_on_c, 0, 70, 84
2, 1221727, Note_on_c, 0, 52, 50
2, 1221770, Note_off_c, 0, 70, 61
2, 1221771, Note_on_c, 0, 72, 84
2, 1221822, Note_off_c, 0, 55, 54
2, 1221822, Note_off_c, 0, 72, 61
2, 1221824, Note_off_c, 0, 52, 52
2, 1221827, Note_on_c, 0, 57, 55
2, 1221828, Note_on_c, 0, 70, 76
2, 1221935, Note_off_c, 0, 70, 59
2, 1221937, Note_off_c, 0, 57, 53
2, 1221940, Note_on_c, 0, 69, 60
2, 1221941, Note_on_c, 0, 49, 54
2, 1222051, Note_off_c, 0, 49, 53
2, 1222055, Note_on_c, 0, 57, 53
2, 1222171, Note_off_c, 0, 69, 55
2, 1222173, Control_c, 0, 64, 96
2, 1222176, Note_off_c, 0, 57, 53
2, 1222177, Note_on_c, 0, 55, 52
2, 1222178, Note_on_c, 0, 70, 108
2, 1222179, Note_on_c, 0, 52, 46
2, 1222285, Note_off_c, 0, 55, 53
2, 1222288, Note_off_c, 0, 52, 51
2, 1222291, Note_on_c, 0, 57, 51
2, 1222401, Note_off_c, 0, 57, 52
2, 1222407, Note_on_c, 0, 49, 50
2, 1222504, Note_off_c, 0, 49, 52
2, 1222507, Note_on_c, 0, 57, 48
2, 1222622, Note_off_c, 0, 57, 52
2, 1222624, Note_on_c, 0, 55, 48
2, 1222626, Note_on_c, 0, 52, 42
2, 1222738, Note_off_c, 0, 55, 52
2, 1222740, Note_off_c, 0, 52, 50
2, 1222743, Note_on_c, 0, 57, 46
2, 1222856, Note_off_c, 0, 70, 66
2, 1222857, Note_off_c, 0, 57, 51
2, 1222860, Note_on_c, 0, 69, 72
2, 1222861, Note_on_c, 0, 49, 44
2, 1222874, Control_c, 0, 64, 20
2, 1222972, Note_off_c, 0, 69, 58
2, 1222973, Note_off_c, 0, 49, 51
2, 1222976, Note_on_c, 0, 57, 42
2, 1223089, Note_off_c, 0, 57, 50
2, 1223091, Note_on_c, 0, 55, 40
2, 1223093, Note_on_c, 0, 67, 60
2, 1223095, Note_on_c, 0, 52, 34
2, 1223189, Note_off_c, 0, 67, 55
2, 1223191, Note_off_c, 0, 52, 48
2, 1223193, Note_off_c, 0, 55, 50
2, 1223196, Note_on_c, 0, 57, 38
2, 1223306, Note_off_c, 0, 57, 49
2, 1223308, Note_on_c, 0, 50, 36
2, 1223310, Note_on_c, 0, 65, 48
2, 1223374, Note_off_c, 0, 65, 52
2, 1223375, Note_on_c, 0, 67, 48
2, 1223424, Note_off_c, 0, 67, 52
2, 1223427, Note_off_c, 0, 50, 49
2, 1223429, Note_on_c, 0, 57, 37
2, 1223431, Note_on_c, 0, 65, 49
2, 1223541, Note_off_c, 0, 65, 52
2, 1223543, Note_off_c, 0, 57, 49
2, 1223546, Note_on_c, 0, 53, 40
2, 1223547, Note_on_c, 0, 64, 51
2, 1223658, Note_off_c, 0, 53, 50
2, 1223660, Note_on_c, 0, 57, 42
2, 1223708, Note_off_c, 0, 64, 52
2, 1223775, Note_off_c, 0, 57, 50
2, 1223777, Note_on_c, 0, 50, 45
2, 1223779, Note_on_c, 0, 62, 55
2, 1223875, Note_off_c, 0, 50, 51
2, 1223877, Note_off_c, 0, 62, 53
2, 1223880, Note_on_c, 0, 57, 48
2, 1223992, Note_off_c, 0, 57, 52
2, 1223994, Note_on_c, 0, 61, 60
2, 1223996, Note_on_c, 0, 45, 48
2, 1224109, Note_off_c, 0, 45, 52
2, 1224111, Note_off_c, 0, 61, 55
2, 1224113, Note_on_c, 0, 55, 46
2, 1224225, Note_off_c, 0, 55, 51
2, 1224228, Note_on_c, 0, 62, 58
2, 1224230, Note_on_c, 0, 52, 44
2, 1224342, Note_off_c, 0, 52, 51
2, 1224344, Note_off_c, 0, 62, 54
2, 1224347, Note_on_c, 0, 55, 42
2, 1224442, Note_off_c, 0, 55, 50
2, 1224445, Note_on_c, 0, 64, 53
2, 1224447, Note_on_c, 0, 45, 40
2, 1224559, Note_off_c, 0, 45, 50
2, 1224561, Note_off_c, 0, 64, 53
2, 1224564, Note_on_c, 0, 55, 38
2, 1224676, Note_off_c, 0, 55, 49
2, 1224679, Note_on_c, 0, 62, 48
2, 1224680, Note_on_c, 0, 53, 36
2, 1224683, Note_on_c, 0, 50, 30
2, 1224794, Note_off_c, 0, 53, 49
2, 1224795, Note_off_c, 0, 50, 47
2, 1224797, Note_on_c, 0, 57, 36
2, 1224912, Note_off_c, 0, 57, 49
2, 1224914, Note_off_c, 0, 62, 52
2, 1224917, Note_on_c, 0, 55, 60
2, 1224918, Note_on_c, 0, 70, 84
2, 1224919, Note_on_c, 0, 52, 54
2, 1225029, Note_off_c, 0, 55, 55
2, 1225031, Note_off_c, 0, 70, 61
2, 1225033, Note_on_c, 0, 82, 84
2, 1225034, Note_off_c, 0, 52, 53
2, 1225036, Note_on_c, 0, 57, 60
2, 1225128, Note_off_c, 0, 57, 55
2, 1225129, Note_off_c, 0, 82, 61
2, 1225131, Note_on_c, 0, 49, 60
2, 1225138, Note_on_c, 0, 69, 75
2, 1225244, Note_off_c, 0, 49, 55
2, 1225246, Note_on_c, 0, 81, 83
2, 1225248, Note_on_c, 0, 57, 59
2, 1225255, Note_off_c, 0, 69, 59
2, 1225360, Note_off_c, 0, 57, 54
2, 1225362, Note_off_c, 0, 81, 60
2, 1225365, Note_on_c, 0, 55, 58
2, 1225367, Note_on_c, 0, 52, 52
2, 1225372, Note_on_c, 0, 70, 73
2, 1225477, Note_off_c, 0, 55, 54
2, 1225481, Note_off_c, 0, 52, 53
2, 1225482, Note_on_c, 0, 57, 57
2, 1225484, Note_on_c, 0, 82, 81
2, 1225489, Note_off_c, 0, 70, 58
2, 1225593, Note_off_c, 0, 57, 54
2, 1225595, Note_off_c, 0, 82, 60
2, 1225598, Note_on_c, 0, 49, 56
2, 1225605, Note_on_c, 0, 69, 71
2, 1225711, Note_off_c, 0, 49, 54
2, 1225715, Note_on_c, 0, 57, 55
2, 1225717, Note_on_c, 0, 81, 79
2, 1225722, Note_off_c, 0, 69, 58
2, 1225813, Note_off_c, 0, 57, 53
2, 1225815, Note_off_c, 0, 81, 60
2, 1225818, Note_on_c, 0, 55, 54
2, 1225819, Note_on_c, 0, 52, 48
2, 1225822, Note_on_c, 0, 70, 69
2, 1225931, Note_off_c, 0, 55, 53
2, 1225932, Note_off_c, 0, 52, 52
2, 1225935, Note_on_c, 0, 57, 54
2, 1225936, Note_on_c, 0, 82, 77
2, 1225937, Note_off_c, 0, 70, 57
2, 1226046, Note_off_c, 0, 57, 53
2, 1226048, Note_off_c, 0, 82, 59
2, 1226051, Note_on_c, 0, 49, 53
2, 1226057, Note_on_c, 0, 69, 67
2, 1226164, Note_off_c, 0, 49, 53
2, 1226166, Note_on_c, 0, 81, 75
2, 1226168, Note_on_c, 0, 57, 52
2, 1226175, Note_off_c, 0, 69, 57
2, 1226281, Note_off_c, 0, 57, 53
2, 1226283, Note_off_c, 0, 81, 59
2, 1226285, Note_on_c, 0, 55, 51
2, 1226287, Note_on_c, 0, 52, 45
2, 1226290, Note_on_c, 0, 70, 65
2, 1226398, Note_off_c, 0, 55, 52
2, 1226401, Note_off_c, 0, 52, 51
2, 1226402, Note_on_c, 0, 57, 50
2, 1226404, Note_on_c, 0, 82, 73
2, 1226406, Note_off_c, 0, 70, 56
2, 1226495, Note_off_c, 0, 82, 58
2, 1226497, Note_off_c, 0, 57, 52
2, 1226502, Note_on_c, 0, 49, 49
2, 1226509, Note_on_c, 0, 69, 63
2, 1226614, Note_off_c, 0, 49, 52
2, 1226617, Note_on_c, 0, 81, 72
2, 1226619, Note_on_c, 0, 57, 48
2, 1226623, Note_off_c, 0, 69, 55
2, 1226729, Note_off_c, 0, 81, 58
2, 1226732, Note_off_c, 0, 57, 52
2, 1226736, Note_on_c, 0, 55, 48
2, 1226737, Note_on_c, 0, 52, 42
2, 1226742, Note_on_c, 0, 70, 63
2, 1226851, Note_off_c, 0, 55, 52
2, 1226852, Note_off_c, 0, 52, 50
2, 1226855, Note_on_c, 0, 57, 49
2, 1226856, Note_on_c, 0, 82, 73
2, 1226857, Note_off_c, 0, 70, 55
2, 1226962, Note_off_c, 0, 82, 58
2, 1226966, Note_off_c, 0, 57, 52
2, 1226970, Note_on_c, 0, 49, 51
2, 1226976, Note_on_c, 0, 69, 66
2, 1227068, Note_off_c, 0, 49, 52
2, 1227070, Note_on_c, 0, 57, 53
2, 1227072, Note_on_c, 0, 81, 76
2, 1227074, Note_off_c, 0, 69, 56
2, 1227182, Note_off_c, 0, 81, 59
2, 1227184, Note_off_c, 0, 57, 53
2, 1227187, Note_on_c, 0, 55, 54
2, 1227189, Note_on_c, 0, 52, 48
2, 1227192, Note_on_c, 0, 70, 69
2, 1227301, Note_off_c, 0, 52, 52
2, 1227303, Note_off_c, 0, 55, 53
2, 1227306, Note_on_c, 0, 57, 56
2, 1227306, Note_on_c, 0, 82, 79
2, 1227307, Note_off_c, 0, 70, 57
2, 1227416, Note_off_c, 0, 82, 60
2, 1227418, Note_off_c, 0, 57, 54
2, 1227420, Note_on_c, 0, 81, 81
2, 1227422, Note_on_c, 0, 49, 58
2, 1227427, Note_on_c, 0, 69, 72
2, 1227437, Control_c, 0, 64, 96
2, 1227532, Note_off_c, 0, 49, 54
2, 1227535, Note_on_c, 0, 57, 60
2, 1227652, Note_off_c, 0, 81, 60
2, 1227653, Note_off_c, 0, 57, 55
2, 1227654, Note_on_c, 0, 82, 84
2, 1227656, Note_on_c, 0, 55, 60
2, 1227658, Note_on_c, 0, 52, 54
2, 1227661, Note_off_c, 0, 69, 58
2, 1227665, Note_on_c, 0, 70, 75
2, 1227751, Note_off_c, 0, 55, 55
2, 1227752, Note_off_c, 0, 52, 53
2, 1227754, Note_on_c, 0, 57, 60
2, 1227867, Note_off_c, 0, 57, 55
2, 1227868, Note_on_c, 0, 49, 58
2, 1227983, Note_off_c, 0, 49, 54
2, 1227986, Note_on_c, 0, 57, 55
2, 1228102, Note_off_c, 0, 57, 53
2, 1228104, Note_on_c, 0, 55, 52
2, 1228106, Note_on_c, 0, 52, 46
2, 1228219, Note_off_c, 0, 52, 51
2, 1228221, Note_off_c, 0, 55, 53
2, 1228223, Note_on_c, 0, 57, 50
2, 1228335, Note_off_c, 0, 82, 61
2, 1228337, Note_off_c, 0, 57, 52
2, 1228340, Note_on_c, 0, 81, 72
2, 1228341, Note_on_c, 0, 49, 47
2, 1228345, Note_off_c, 0, 70, 59
2, 1228349, Note_on_c, 0, 69, 63
2, 1228352, Control_c, 0, 64, 20
2, 1228436, Note_off_c, 0, 81, 58
2, 1228438, Note_off_c, 0, 49, 51
2, 1228440, Note_on_c, 0, 57, 44
2, 1228445, Note_off_c, 0, 69, 55
2, 1228552, Note_off_c, 0, 57, 51
2, 1228555, Note_on_c, 0, 79, 60
2, 1228556, Note_on_c, 0, 55, 42
2, 1228557, Note_on_c, 0, 52, 36
2, 1228564, Note_on_c, 0, 67, 51
2, 1228670, Note_off_c, 0, 79, 55
2, 1228671, Note_off_c, 0, 52, 49
2, 1228674, Note_off_c, 0, 55, 50
2, 1228677, Note_on_c, 0, 57, 39
2, 1228679, Note_off_c, 0, 67, 52
2, 1228787, Note_off_c, 0, 57, 49
2, 1228788, Note_on_c, 0, 77, 48
2, 1228789, Note_on_c, 0, 50, 36
2, 1228797, Note_on_c, 0, 65, 39
2, 1228903, Note_off_c, 0, 77, 52
2, 1228905, Note_off_c, 0, 50, 49
2, 1228908, Note_on_c, 0, 57, 36
2, 1228912, Note_off_c, 0, 65, 49
2, 1229022, Note_off_c, 0, 57, 49
2, 1229024, Note_on_c, 0, 76, 57
2, 1229026, Note_on_c, 0, 53, 36
2, 1229031, Note_on_c, 0, 64, 48
2, 1229121, Note_off_c, 0, 76, 54
2, 1229122, Note_off_c, 0, 53, 49
2, 1229125, Note_on_c, 0, 57, 36
2, 1229130, Note_off_c, 0, 64, 52
2, 1229237, Note_off_c, 0, 57, 49
2, 1229239, Note_on_c, 0, 74, 54
2, 1229241, Note_on_c, 0, 50, 37
2, 1229246, Note_on_c, 0, 62, 45
2, 1229354, Note_off_c, 0, 74, 53
2, 1229356, Note_off_c, 0, 50, 49
2, 1229358, Note_on_c, 0, 57, 37
2, 1229363, Note_off_c, 0, 62, 51
2, 1229472, Note_off_c, 0, 57, 49
2, 1229473, Note_on_c, 0, 73, 51
2, 1229474, Note_on_c, 0, 45, 37
2, 1229481, Note_on_c, 0, 61, 42
2, 1229588, Note_off_c, 0, 45, 49
2, 1229589, Note_off_c, 0, 73, 52
2, 1229592, Note_on_c, 0, 55, 38
2, 1229598, Note_off_c, 0, 61, 50
2, 1229688, Note_off_c, 0, 55, 49
2, 1229689, Note_on_c, 0, 74, 54
2, 1229692, Note_on_c, 0, 52, 38
2, 1229698, Note_on_c, 0, 62, 45
2, 1229804, Note_off_c, 0, 52, 49
2, 1229806, Note_off_c, 0, 74, 53
2, 1229809, Note_on_c, 0, 55, 38
2, 1229816, Note_off_c, 0, 62, 51
2, 1229920, Note_off_c, 0, 55, 49
2, 1229923, Note_on_c, 0, 76, 48
2, 1229925, Note_on_c, 0, 45, 39
2, 1229933, Note_on_c, 0, 64, 39
2, 1230038, Note_off_c, 0, 45, 49
2, 1230039, Note_off_c, 0, 76, 52
2, 1230042, Note_on_c, 0, 55, 39
2, 1230050, Note_off_c, 0, 64, 49
2, 1230143, Control_c, 0, 64, 96
2, 1230155, Note_off_c, 0, 55, 49
2, 1230158, Note_on_c, 0, 74, 48
2, 1230159, Note_on_c, 0, 46, 39
2, 1230165, Note_on_c, 0, 62, 39
2, 1230273, Note_off_c, 0, 46, 49
2, 1230276, Note_on_c, 0, 53, 40
2, 1230371, Note_off_c, 0, 74, 52
2, 1230373, Note_off_c, 0, 53, 50
2, 1230377, Note_on_c, 0, 50, 40
2, 1230378, Note_on_c, 0, 82, 51
2, 1230384, Note_off_c, 0, 62, 49
2, 1230386, Note_on_c, 0, 70, 39
2, 1230488, Note_off_c, 0, 50, 50
2, 1230492, Note_on_c, 0, 53, 40
2, 1230557, Note_off_c, 0, 82, 52
2, 1230566, Note_off_c, 0, 70, 49
2, 1230606, Note_off_c, 0, 53, 50
2, 1230609, Note_on_c, 0, 82, 54
2, 1230610, Note_on_c, 0, 46, 41
2, 1230617, Note_on_c, 0, 70, 42
2, 1230722, Note_off_c, 0, 82, 53
2, 1230723, Note_off_c, 0, 46, 50
2, 1230727, Note_on_c, 0, 53, 41
2, 1230734, Note_off_c, 0, 70, 50
2, 1230767, Control_c, 0, 64, 20
2, 1230838, Note_off_c, 0, 53, 50
2, 1230842, Note_on_c, 0, 82, 57
2, 1230844, Note_on_c, 0, 43, 41
2, 1230850, Note_on_c, 0, 70, 45
2, 1230956, Note_off_c, 0, 82, 54
2, 1230958, Note_off_c, 0, 43, 50
2, 1230962, Note_on_c, 0, 51, 42
2, 1230969, Note_off_c, 0, 70, 51
2, 1231056, Note_off_c, 0, 51, 50
2, 1231059, Note_on_c, 0, 46, 42
2, 1231061, Note_on_c, 0, 81, 60
2, 1231068, Note_on_c, 0, 69, 48
2, 1231173, Note_off_c, 0, 81, 55
2, 1231176, Note_off_c, 0, 46, 50
2, 1231180, Note_on_c, 0, 51, 42
2, 1231186, Note_off_c, 0, 69, 52
2, 1231290, Note_off_c, 0, 51, 50
2, 1231295, Note_on_c, 0, 43, 43
2, 1231297, Note_on_c, 0, 79, 63
2, 1231302, Note_on_c, 0, 67, 51
2, 1231407, Note_off_c, 0, 79, 55
2, 1231411, Note_off_c, 0, 43, 50
2, 1231414, Note_on_c, 0, 51, 43
2, 1231419, Note_off_c, 0, 67, 52
2, 1231524, Note_off_c, 0, 51, 50
2, 1231528, Note_on_c, 0, 45, 43
2, 1231530, Note_on_c, 0, 77, 66
2, 1231537, Note_on_c, 0, 65, 54
2, 1231640, Note_off_c, 0, 77, 56
2, 1231645, Note_off_c, 0, 45, 50
2, 1231647, Note_on_c, 0, 53, 44
2, 1231654, Note_off_c, 0, 65, 53
2, 1231742, Note_off_c, 0, 53, 51
2, 1231745, Note_on_c, 0, 76, 69
2, 1231747, Note_on_c, 0, 50, 44
2, 1231754, Note_on_c, 0, 64, 57
2, 1231859, Note_off_c, 0, 76, 57
2, 1231861, Note_off_c, 0, 50, 51
2, 1231864, Note_on_c, 0, 53, 44
2, 1231868, Note_off_c, 0, 64, 54
2, 1231976, Note_off_c, 0, 53, 51
2, 1231978, Note_on_c, 0, 74, 72
2, 1231981, Note_on_c, 0, 45, 45
2, 1231987, Note_on_c, 0, 62, 60
2, 1232093, Note_off_c, 0, 74, 58
2, 1232095, Note_off_c, 0, 45, 51
2, 1232098, Note_on_c, 0, 53, 45
2, 1232102, Note_off_c, 0, 62, 55
2, 1232209, Note_off_c, 0, 53, 51
2, 1232212, Note_on_c, 0, 73, 75
2, 1232214, Note_on_c, 0, 43, 45
2, 1232221, Note_on_c, 0, 61, 63
2, 1232312, Note_off_c, 0, 73, 59
2, 1232314, Note_off_c, 0, 43, 51
2, 1232316, Note_on_c, 0, 52, 46
2, 1232320, Note_off_c, 0, 61, 55
2, 1232427, Note_off_c, 0, 52, 51
2, 1232430, Note_on_c, 0, 74, 78
2, 1232432, Note_on_c, 0, 45, 46
2, 1232438, Note_on_c, 0, 62, 66
2, 1232546, Note_off_c, 0, 74, 59
2, 1232548, Note_off_c, 0, 45, 51
2, 1232549, Note_on_c, 0, 52, 46
2, 1232553, Note_off_c, 0, 62, 56
2, 1232662, Note_off_c, 0, 52, 51
2, 1232665, Note_on_c, 0, 76, 81
2, 1232666, Note_on_c, 0, 43, 47
2, 1232674, Note_on_c, 0, 64, 69
2, 1232780, Note_off_c, 0, 76, 60
2, 1232781, Note_off_c, 0, 43, 51
2, 1232782, Note_on_c, 0, 52, 47
2, 1232788, Note_off_c, 0, 64, 57
2, 1232882, Control_c, 0, 64, 96
2, 1232896, Note_off_c, 0, 52, 51
2, 1232899, Note_on_c, 0, 74, 84
2, 1232900, Note_on_c, 0, 41, 48
2, 1232907, Note_on_c, 0, 62, 72
2, 1232996, Note_off_c, 0, 41, 52
2, 1232999, Note_on_c, 0, 50, 48
2, 1233112, Note_off_c, 0, 74, 61
2, 1233115, Note_off_c, 0, 50, 52
2, 1233118, Note_on_c, 0, 82, 82
2, 1233120, Note_on_c, 0, 40, 50
2, 1233122, Note_off_c, 0, 62, 58
2, 1233125, Note_on_c, 0, 70, 70
2, 1233230, Note_off_c, 0, 40, 52
2, 1233232, Note_on_c, 0, 50, 52
2, 1233277, Note_off_c, 0, 82, 60
2, 1233291, Note_off_c, 0, 70, 57
2, 1233345, Note_off_c, 0, 50, 53
2, 1233349, Note_on_c, 0, 82, 77
2, 1233351, Note_on_c, 0, 41, 55
2, 1233359, Note_on_c, 0, 70, 65
2, 1233464, Note_off_c, 0, 82, 59
2, 1233466, Note_off_c, 0, 41, 53
2, 1233468, Note_on_c, 0, 50, 57
2, 1233473, Note_off_c, 0, 70, 56
2, 1233544, Control_c, 0, 64, 20
2, 1233581, Note_off_c, 0, 50, 54
2, 1233583, Note_on_c, 0, 82, 72
2, 1233585, Note_on_c, 0, 43, 60
2, 1233590, Note_on_c, 0, 70, 60
2, 1233681, Note_off_c, 0, 43, 55
2, 1233683, Note_off_c, 0, 82, 58
2, 1233685, Note_on_c, 0, 52, 60
2, 1233688, Note_on_c, 0, 50, 53
2, 1233691, Note_off_c, 0, 70, 55
2, 1233797, Note_off_c, 0, 52, 55
2, 1233799, Note_off_c, 0, 50, 53
2, 1233802, Note_on_c, 0, 41, 59
2, 1233803, Note_on_c, 0, 81, 73
2, 1233810, Note_on_c, 0, 69, 61
2, 1233917, Note_off_c, 0, 41, 54
2, 1233918, Note_off_c, 0, 81, 58
2, 1233921, Note_on_c, 0, 50, 51
2, 1233922, Note_on_c, 0, 52, 58
2, 1233925, Note_off_c, 0, 69, 55
2, 1234032, Note_off_c, 0, 52, 54
2, 1234033, Note_off_c, 0, 50, 52
2, 1234036, Note_on_c, 0, 43, 57
2, 1234037, Note_on_c, 0, 79, 76
2, 1234043, Note_on_c, 0, 67, 64
2, 1234148, Note_off_c, 0, 43, 54
2, 1234150, Note_off_c, 0, 79, 59
2, 1234152, Note_on_c, 0, 52, 56
2, 1234154, Note_on_c, 0, 50, 49
2, 1234158, Note_off_c, 0, 67, 56
2, 1234247, Note_off_c, 0, 52, 54
2, 1234250, Note_off_c, 0, 50, 52
2, 1234253, Note_on_c, 0, 77, 79
2, 1234255, Note_on_c, 0, 45, 54
2, 1234262, Note_on_c, 0, 65, 67
2, 1234363, Note_off_c, 0, 77, 60
2, 1234367, Note_off_c, 0, 45, 53
2, 1234369, Note_on_c, 0, 53, 53
2, 1234370, Note_on_c, 0, 50, 46
2, 1234377, Note_off_c, 0, 65, 57
2, 1234481, Note_off_c, 0, 53, 53
2, 1234483, Note_off_c, 0, 50, 51
2, 1234486, Note_on_c, 0, 76, 82
2, 1234488, Note_on_c, 0, 44, 52
2, 1234496, Note_on_c, 0, 64, 70
2, 1234598, Note_off_c, 0, 76, 60
2, 1234600, Note_off_c, 0, 44, 53
2, 1234603, Note_on_c, 0, 53, 51
2, 1234605, Note_on_c, 0, 50, 44
2, 1234610, Note_off_c, 0, 64, 57
2, 1234714, Note_off_c, 0, 53, 52
2, 1234717, Note_off_c, 0, 50, 51
2, 1234720, Note_on_c, 0, 74, 84
2, 1234722, Note_on_c, 0, 45, 50
2, 1234729, Note_on_c, 0, 62, 72
2, 1234832, Note_off_c, 0, 74, 61
2, 1234834, Note_off_c, 0, 45, 52
2, 1234836, Note_on_c, 0, 53, 48
2, 1234839, Note_on_c, 0, 50, 41
2, 1234844, Note_off_c, 0, 62, 58
2, 1234931, Note_off_c, 0, 53, 52
2, 1234934, Note_off_c, 0, 50, 50
2, 1234938, Note_on_c, 0, 73, 84
2, 1234939, Note_on_c, 0, 45, 48
2, 1234944, Note_on_c, 0, 61, 72
2, 1235050, Note_off_c, 0, 73, 61
2, 1235051, Note_off_c, 0, 45, 52
2, 1235055, Note_on_c, 0, 55, 50
2, 1235056, Note_on_c, 0, 52, 43
2, 1235061, Note_off_c, 0, 61, 58
2, 1235166, Note_off_c, 0, 55, 52
2, 1235167, Note_off_c, 0, 52, 50
2, 1235171, Note_on_c, 0, 74, 76
2, 1235172, Note_on_c, 0, 45, 52
2, 1235177, Note_on_c, 0, 62, 64
2, 1235283, Note_off_c, 0, 74, 59
2, 1235284, Note_off_c, 0, 45, 53
2, 1235288, Note_on_c, 0, 53, 55
2, 1235289, Note_on_c, 0, 50, 48
2, 1235296, Note_off_c, 0, 62, 56
2, 1235400, Note_off_c, 0, 53, 53
2, 1235401, Note_off_c, 0, 50, 52
2, 1235405, Note_on_c, 0, 76, 72
2, 1235406, Note_on_c, 0, 45, 57
2, 1235414, Note_on_c, 0, 64, 60
2, 1235519, Note_off_c, 0, 76, 58
2, 1235520, Note_off_c, 0, 45, 54
2, 1235522, Note_on_c, 0, 52, 60
2, 1235523, Note_on_c, 0, 49, 53
2, 1235528, Note_off_c, 0, 64, 55
2, 1235617, Note_off_c, 0, 49, 53
2, 1235619, Note_off_c, 0, 52, 55
2, 1235622, Note_on_c, 0, 74, 48
2, 1235623, Note_on_c, 0, 38, 36
2, 1235629, Note_on_c, 0, 62, 36
2, 1235734, Note_off_c, 0, 38, 49
2, 1235736, Note_on_c, 0, 53, 36
2, 1235850, Note_off_c, 0, 74, 52
2, 1235855, Note_off_c, 0, 53, 49
2, 1235858, Note_on_c, 0, 50, 37
2, 1235862, Note_off_c, 0, 62, 49
2, 1235968, Note_off_c, 0, 50, 49
2, 1235969, Note_on_c, 0, 53, 38
2, 1236077, Control_c, 0, 64, 96
2, 1236084, Note_off_c, 0, 53, 49
2, 1236086, Note_on_c, 0, 62, 50
2, 1236088, Note_on_c, 0, 45, 39
2, 1236200, Note_off_c, 0, 45, 49
2, 1236205, Note_on_c, 0, 53, 40
2, 1236208, Note_on_c, 0, 74, 51
2, 1236212, Note_off_c, 0, 62, 52
2, 1236303, Note_off_c, 0, 53, 50
2, 1236306, Note_on_c, 0, 38, 41
2, 1236308, Note_on_c, 0, 65, 52
2, 1236339, Note_off_c, 0, 74, 52
2, 1236392, Note_off_c, 0, 65, 53
2, 1236420, Note_off_c, 0, 38, 50
2, 1236422, Note_on_c, 0, 53, 42
2, 1236437, Control_c, 0, 64, 20
2, 1236537, Note_off_c, 0, 53, 50
2, 1236539, Note_on_c, 0, 50, 43
2, 1236654, Note_off_c, 0, 50, 50
2, 1236656, Note_on_c, 0, 53, 44
2, 1236769, Control_c, 0, 64, 96
2, 1236773, Note_off_c, 0, 53, 51
2, 1236775, Note_on_c, 0, 65, 57
2, 1236776, Note_on_c, 0, 45, 45
2, 1236872, Note_off_c, 0, 45, 51
2, 1236874, Note_on_c, 0, 53, 46
2, 1236875, Note_on_c, 0, 77, 58
2, 1236878, Note_off_c, 0, 65, 54
2, 1236988, Note_off_c, 0, 53, 51
2, 1236991, Note_on_c, 0, 38, 48
2, 1236992, Note_on_c, 0, 69, 60
2, 1237009, Note_off_c, 0, 77, 54
2, 1237084, Note_off_c, 0, 69, 55
2, 1237101, Control_c, 0, 64, 20
2, 1237105, Note_off_c, 0, 38, 52
2, 1237107, Note_on_c, 0, 53, 48
2, 1237222, Note_off_c, 0, 53, 52
2, 1237224, Note_on_c, 0, 50, 47
2, 1237339, Note_off_c, 0, 50, 51
2, 1237342, Note_on_c, 0, 53, 45
2, 1237453, Control_c, 0, 64, 96
2, 1237457, Note_off_c, 0, 53, 51
2, 1237459, Note_on_c, 0, 69, 59
2, 1237460, Note_on_c, 0, 45, 43
2, 1237557, Note_off_c, 0, 45, 50
2, 1237559, Note_on_c, 0, 81, 57
2, 1237562, Note_on_c, 0, 53, 41
2, 1237599, Note_off_c, 0, 69, 54
2, 1237672, Note_off_c, 0, 53, 50
2, 1237676, Note_on_c, 0, 65, 56
2, 1237677, Note_on_c, 0, 38, 40
2, 1237683, Note_off_c, 0, 81, 54
2, 1237760, Note_off_c, 0, 65, 54
2, 1237789, Note_off_c, 0, 38, 50
2, 1237793, Note_on_c, 0, 53, 38
2, 1237795, Control_c, 0, 64, 20
2, 1237908, Note_off_c, 0, 53, 49
2, 1237910, Note_on_c, 0, 50, 37
2, 1238025, Note_off_c, 0, 50, 49
2, 1238027, Note_on_c, 0, 53, 37
2, 1238133, Control_c, 0, 64, 96
2, 1238141, Note_off_c, 0, 53, 49
2, 1238143, Note_on_c, 0, 65, 50
2, 1238145, Note_on_c, 0, 45, 37
2, 1238241, Note_off_c, 0, 45, 49
2, 1238244, Note_on_c, 0, 77, 48
2, 1238246, Note_on_c, 0, 53, 36
2, 1238288, Note_off_c, 0, 65, 52
2, 1238356, Note_off_c, 0, 77, 52
2, 1238358, Note_off_c, 0, 53, 49
2, 1238360, Note_on_c, 0, 62, 48
2, 1238362, Note_on_c, 0, 33, 36
2, 1238448, Control_c, 0, 64, 20
2, 1238473, Note_off_c, 0, 33, 49
2, 1238476, Note_on_c, 0, 53, 37
2, 1238591, Note_off_c, 0, 53, 49
2, 1238593, Note_on_c, 0, 74, 64
2, 1238593, Note_on_c, 0, 50, 38
2, 1238706, Note_off_c, 0, 50, 49
2, 1238711, Note_on_c, 0, 53, 39
2, 1238825, Note_off_c, 0, 53, 49
2, 1238827, Note_on_c, 0, 45, 40
2, 1238925, Note_off_c, 0, 45, 50
2, 1238928, Note_on_c, 0, 53, 41
2, 1239043, Note_off_c, 0, 53, 50
2, 1239045, Note_on_c, 0, 33, 42
2, 1239160, Note_off_c, 0, 33, 50
2, 1239162, Note_on_c, 0, 55, 43
2, 1239278, Note_off_c, 0, 74, 56
2, 1239279, Note_off_c, 0, 55, 50
2, 1239280, Note_off_c, 0, 62, 52
2, 1239283, Note_on_c, 0, 52, 44
2, 1239284, Note_on_c, 0, 76, 64
2, 1239290, Note_on_c, 0, 64, 54
2, 1239304, Control_c, 0, 64, 96
2, 1239393, Note_off_c, 0, 52, 51
2, 1239395, Note_on_c, 0, 55, 45
2, 1239444, Note_off_c, 0, 76, 56
2, 1239454, Note_off_c, 0, 64, 53
2, 1239493, Note_off_c, 0, 55, 51
2, 1239496, Note_on_c, 0, 45, 46
2, 1239498, Note_on_c, 0, 73, 68
2, 1239505, Note_on_c, 0, 61, 58
2, 1239610, Note_off_c, 0, 73, 57
2, 1239612, Note_off_c, 0, 45, 51
2, 1239615, Note_on_c, 0, 55, 47
2, 1239619, Note_off_c, 0, 61, 54
2, 1239727, Note_off_c, 0, 55, 51
2, 1239729, Note_on_c, 0, 74, 72
2, 1239732, Note_on_c, 0, 38, 48
2, 1239738, Note_on_c, 0, 62, 62
2, 1239762, Control_c, 0, 64, 20
2, 1239844, Note_off_c, 0, 38, 52
2, 1239847, Note_on_c, 0, 53, 48
2, 1239961, Note_off_c, 0, 74, 58
2, 1239963, Note_off_c, 0, 53, 52
2, 1239966, Note_on_c, 0, 50, 42
2, 1239972, Note_off_c, 0, 62, 55
2, 1240072, Control_c, 0, 64, 96
2, 1240078, Note_off_c, 0, 50, 50
2, 1240080, Note_on_c, 0, 62, 48
2, 1240082, Note_on_c, 0, 53, 36
2, 1240178, Note_off_c, 0, 53, 49
2, 1240180, Note_off_c, 0, 62, 52
2, 1240182, Note_on_c, 0, 45, 36
2, 1240185, Note_on_c, 0, 74, 48
2, 1240294, Note_off_c, 0, 45, 49
2, 1240296, Note_off_c, 0, 74, 52
2, 1240299, Note_on_c, 0, 53, 37
2, 1240301, Note_on_c, 0, 62, 49
2, 1240382, Note_off_c, 0, 62, 52
2, 1240411, Note_off_c, 0, 53, 49
2, 1240414, Note_on_c, 0, 65, 51
2, 1240416, Note_on_c, 0, 38, 39
2, 1240463, Control_c, 0, 64, 20
2, 1240472, Note_off_c, 0, 65, 52
2, 1240527, Note_off_c, 0, 38, 49
2, 1240533, Note_on_c, 0, 53, 41
2, 1240645, Note_off_c, 0, 53, 50
2, 1240647, Note_on_c, 0, 50, 42
2, 1240755, Control_c, 0, 64, 96
2, 1240761, Note_off_c, 0, 50, 50
2, 1240764, Note_on_c, 0, 65, 55
2, 1240766, Note_on_c, 0, 53, 44
2, 1240864, Note_off_c, 0, 53, 51
2, 1240866, Note_off_c, 0, 65, 53
2, 1240869, Note_on_c, 0, 45, 46
2, 1240870, Note_on_c, 0, 77, 57
2, 1240981, Note_off_c, 0, 45, 51
2, 1240983, Note_off_c, 0, 77, 54
2, 1240986, Note_on_c, 0, 53, 48
2, 1240987, Note_on_c, 0, 65, 58
2, 1241065, Note_off_c, 0, 65, 54
2, 1241097, Note_off_c, 0, 53, 52
2, 1241100, Note_on_c, 0, 69, 60
2, 1241102, Note_on_c, 0, 38, 48
2, 1241145, Control_c, 0, 64, 20
2, 1241161, Note_off_c, 0, 69, 55
2, 1241214, Note_off_c, 0, 38, 52
2, 1241217, Note_on_c, 0, 53, 47
2, 1241331, Note_off_c, 0, 53, 51
2, 1241333, Note_on_c, 0, 50, 46
2, 1241428, Control_c, 0, 64, 96
2, 1241448, Note_off_c, 0, 50, 51
2, 1241450, Note_on_c, 0, 53, 45
2, 1241452, Note_on_c, 0, 69, 59
2, 1241549, Note_off_c, 0, 53, 51
2, 1241551, Note_off_c, 0, 69, 54
2, 1241553, Note_on_c, 0, 45, 44
2, 1241554, Note_on_c, 0, 81, 58
2, 1241666, Note_off_c, 0, 45, 51
2, 1241667, Note_off_c, 0, 81, 54
2, 1241670, Note_on_c, 0, 53, 43
2, 1241672, Note_on_c, 0, 69, 56
2, 1241748, Note_off_c, 0, 69, 54
2, 1241782, Note_off_c, 0, 53, 50
2, 1241784, Note_on_c, 0, 38, 42
2, 1241786, Note_on_c, 0, 65, 55
2, 1241840, Note_off_c, 0, 65, 53
2, 1241856, Control_c, 0, 64, 20
2, 1241899, Note_off_c, 0, 38, 50
2, 1241903, Note_on_c, 0, 53, 41
2, 1242018, Note_off_c, 0, 53, 50
2, 1242020, Note_on_c, 0, 50, 40
2, 1242100, Control_c, 0, 64, 96
2, 1242116, Note_off_c, 0, 50, 50
2, 1242118, Note_on_c, 0, 53, 39
2, 1242119, Note_on_c, 0, 65, 51
2, 1242231, Note_off_c, 0, 65, 52
2, 1242234, Note_off_c, 0, 53, 49
2, 1242237, Note_on_c, 0, 77, 50
2, 1242239, Note_on_c, 0, 45, 38
2, 1242349, Note_off_c, 0, 77, 52
2, 1242351, Note_off_c, 0, 45, 49
2, 1242354, Note_on_c, 0, 65, 48
2, 1242356, Note_on_c, 0, 53, 36
2, 1242434, Note_off_c, 0, 65, 52
2, 1242466, Note_off_c, 0, 53, 49
2, 1242468, Note_on_c, 0, 33, 36
2, 1242470, Note_on_c, 0, 62, 48
2, 1242499, Control_c, 0, 64, 20
2, 1242583, Note_off_c, 0, 33, 49
2, 1242585, Note_on_c, 0, 53, 37
2, 1242699, Note_off_c, 0, 53, 49
2, 1242703, Note_on_c, 0, 74, 65
2, 1242704, Note_on_c, 0, 50, 38
2, 1242800, Note_off_c, 0, 50, 49
2, 1242803, Note_on_c, 0, 53, 39
2, 1242918, Note_off_c, 0, 53, 49
2, 1242920, Note_on_c, 0, 45, 40
2, 1243034, Note_off_c, 0, 45, 50
2, 1243038, Note_on_c, 0, 53, 42
2, 1243153, Note_off_c, 0, 53, 50
2, 1243156, Note_on_c, 0, 33, 43
2, 1243163, Control_c, 0, 64, 96
2, 1243270, Note_off_c, 0, 33, 50
2, 1243272, Note_on_c, 0, 55, 44
2, 1243387, Note_off_c, 0, 74, 56
2, 1243389, Note_off_c, 0, 55, 51
2, 1243390, Note_off_c, 0, 62, 52
2, 1243391, Note_on_c, 0, 76, 69
2, 1243393, Note_on_c, 0, 52, 45
2, 1243399, Note_on_c, 0, 64, 60
2, 1243487, Note_off_c, 0, 52, 51
2, 1243489, Note_on_c, 0, 55, 46
2, 1243540, Note_off_c, 0, 64, 55
2, 1243552, Note_off_c, 0, 76, 57
2, 1243603, Note_off_c, 0, 55, 51
2, 1243606, Note_on_c, 0, 45, 48
2, 1243608, Note_on_c, 0, 73, 72
2, 1243615, Note_on_c, 0, 61, 63
2, 1243699, Control_c, 0, 64, 20
2, 1243709, Note_off_c, 0, 61, 55
2, 1243720, Note_off_c, 0, 73, 58
2, 1243723, Note_off_c, 0, 45, 52
2, 1243724, Note_on_c, 0, 55, 48
2, 1243837, Note_off_c, 0, 55, 52
2, 1243840, Note_on_c, 0, 50, 36
2, 1243842, Note_on_c, 0, 74, 48
2, 1243848, Note_on_c, 0, 62, 39
2, 1243933, Note_off_c, 0, 62, 49
2, 1243954, Note_off_c, 0, 50, 49
2, 1243956, Note_on_c, 0, 62, 36
2, 1244072, Note_off_c, 0, 62, 49
2, 1244076, Note_on_c, 0, 61, 37
2, 1244077, Note_on_c, 0, 76, 49
2, 1244113, Note_off_c, 0, 74, 52
2, 1244171, Note_off_c, 0, 61, 49
2, 1244173, Note_on_c, 0, 62, 38
2, 1244288, Note_off_c, 0, 62, 49
2, 1244290, Note_on_c, 0, 60, 39
2, 1244292, Note_on_c, 0, 78, 51
2, 1244335, Note_off_c, 0, 76, 52
2, 1244405, Note_off_c, 0, 60, 49
2, 1244407, Note_on_c, 0, 62, 40
2, 1244454, Note_off_c, 0, 78, 52
2, 1244522, Note_off_c, 0, 62, 50
2, 1244524, Note_on_c, 0, 79, 53
2, 1244526, Note_on_c, 0, 58, 41
2, 1244639, Note_off_c, 0, 58, 50
2, 1244641, Note_on_c, 0, 62, 42
2, 1244738, Note_off_c, 0, 62, 50
2, 1244740, Note_off_c, 0, 79, 53
2, 1244743, Control_c, 0, 64, 96
2, 1244746, Note_on_c, 0, 86, 55
2, 1244747, Note_on_c, 0, 57, 43
2, 1244752, Note_on_c, 0, 77, 55
2, 1244856, Note_off_c, 0, 57, 50
2, 1244857, Note_on_c, 0, 62, 44
2, 1244935, Note_off_c, 0, 77, 53
2, 1244937, Note_off_c, 0, 86, 53
2, 1244958, Note_off_c, 0, 62, 51
2, 1244972, Note_on_c, 0, 86, 57
2, 1244975, Note_on_c, 0, 56, 45
2, 1244982, Note_on_c, 0, 76, 57
2, 1245063, Control_c, 0, 64, 20
2, 1245089, Note_off_c, 0, 56, 51
2, 1245091, Note_on_c, 0, 62, 46
2, 1245129, Note_off_c, 0, 76, 54
2, 1245139, Note_off_c, 0, 86, 54
2, 1245205, Note_off_c, 0, 62, 51
2, 1245208, Note_on_c, 0, 86, 60
2, 1245210, Note_on_c, 0, 57, 48
2, 1245219, Note_on_c, 0, 77, 60
2, 1245238, Control_c, 0, 64, 96
2, 1245323, Note_off_c, 0, 57, 52
2, 1245325, Note_on_c, 0, 62, 48
2, 1245403, Note_off_c, 0, 77, 55
2, 1245424, Note_off_c, 0, 62, 52
2, 1245427, Note_off_c, 0, 86, 55
2, 1245430, Note_on_c, 0, 85, 60
2, 1245431, Note_on_c, 0, 64, 47
2, 1245436, Note_on_c, 0, 73, 60
2, 1245542, Note_off_c, 0, 64, 51
2, 1245544, Note_on_c, 0, 57, 46
2, 1245633, Note_off_c, 0, 73, 55
2, 1245658, Note_off_c, 0, 85, 55
2, 1245661, Note_off_c, 0, 57, 51
2, 1245663, Note_on_c, 0, 86, 57
2, 1245665, Note_on_c, 0, 65, 45
2, 1245668, Control_c, 0, 64, 20
2, 1245670, Note_on_c, 0, 74, 57
2, 1245776, Note_off_c, 0, 65, 51
2, 1245777, Note_on_c, 0, 57, 44
2, 1245812, Note_off_c, 0, 74, 54
2, 1245824, Note_off_c, 0, 86, 54
2, 1245891, Note_off_c, 0, 57, 51
2, 1245894, Note_on_c, 0, 88, 54
2, 1245896, Note_on_c, 0, 67, 42
2, 1245902, Note_on_c, 0, 76, 54
2, 1245920, Control_c, 0, 64, 96
2, 1246009, Note_off_c, 0, 67, 50
2, 1246011, Note_on_c, 0, 57, 41
2, 1246064, Note_off_c, 0, 76, 53
2, 1246109, Note_off_c, 0, 57, 50
2, 1246111, Note_off_c, 0, 88, 53
2, 1246114, Note_on_c, 0, 65, 40
2, 1246116, Note_on_c, 0, 83, 50
2, 1246122, Note_on_c, 0, 71, 50
2, 1246224, Note_off_c, 0, 65, 50
2, 1246228, Note_on_c, 0, 57, 39
2, 1246318, Note_off_c, 0, 71, 52
2, 1246345, Note_off_c, 0, 57, 49
2, 1246346, Note_off_c, 0, 83, 52
2, 1246347, Note_on_c, 0, 85, 48
2, 1246349, Note_on_c, 0, 64, 38
2, 1246355, Note_on_c, 0, 73, 48
2, 1246371, Control_c, 0, 64, 20
2, 1246458, Note_off_c, 0, 64, 49
2, 1246461, Note_on_c, 0, 57, 36
2, 1246486, Note_off_c, 0, 73, 52
2, 1246509, Note_off_c, 0, 85, 52
2, 1246578, Note_off_c, 0, 57, 49
2, 1246581, Note_on_c, 0, 50, 36
2, 1246587, Note_on_c, 0, 74, 48
2, 1246680, Note_off_c, 0, 74, 52
2, 1246695, Note_off_c, 0, 50, 49
2, 1246697, Note_on_c, 0, 86, 50
2, 1246699, Note_on_c, 0, 62, 38
2, 1246793, Note_off_c, 0, 86, 52
2, 1246795, Note_off_c, 0, 62, 49
2, 1246798, Note_on_c, 0, 61, 40
2, 1246805, Note_on_c, 0, 76, 52
2, 1246902, Note_off_c, 0, 76, 53
2, 1246912, Note_off_c, 0, 61, 50
2, 1246914, Note_on_c, 0, 62, 43
2, 1246917, Note_on_c, 0, 86, 55
2, 1247027, Note_off_c, 0, 86, 53
2, 1247028, Note_off_c, 0, 62, 50
2, 1247031, Note_on_c, 0, 60, 45
2, 1247038, Note_on_c, 0, 78, 57
2, 1247128, Note_off_c, 0, 78, 54
2, 1247145, Note_off_c, 0, 60, 51
2, 1247148, Note_on_c, 0, 62, 48
2, 1247150, Note_on_c, 0, 86, 60
2, 1247260, Note_off_c, 0, 86, 55
2, 1247262, Note_off_c, 0, 62, 52
2, 1247265, Note_on_c, 0, 58, 48
2, 1247272, Note_on_c, 0, 79, 60
2, 1247345, Note_off_c, 0, 79, 55
2, 1247362, Note_off_c, 0, 58, 52
2, 1247366, Note_on_c, 0, 62, 45
2, 1247367, Note_on_c, 0, 86, 58
2, 1247480, Note_off_c, 0, 86, 54
2, 1247482, Note_off_c, 0, 62, 51
2, 1247483, Note_on_c, 0, 57, 42
2, 1247489, Note_on_c, 0, 77, 56
2, 1247582, Note_off_c, 0, 77, 54
2, 1247597, Note_off_c, 0, 57, 50
2, 1247600, Note_on_c, 0, 62, 39
2, 1247601, Note_on_c, 0, 86, 53
2, 1247713, Note_off_c, 0, 86, 53
2, 1247716, Note_off_c, 0, 62, 49
2, 1247717, Note_on_c, 0, 56, 36
2, 1247723, Note_on_c, 0, 76, 51
2, 1247824, Note_off_c, 0, 76, 52
2, 1247831, Note_off_c, 0, 56, 49
2, 1247834, Note_on_c, 0, 62, 36
2, 1247834, Note_on_c, 0, 86, 48
2, 1247947, Note_off_c, 0, 86, 52
2, 1247950, Note_off_c, 0, 62, 49
2, 1247951, Note_on_c, 0, 57, 36
2, 1247958, Note_on_c, 0, 77, 48
2, 1248037, Note_off_c, 0, 77, 52
2, 1248046, Note_off_c, 0, 57, 49
2, 1248050, Note_on_c, 0, 62, 38
2, 1248052, Note_on_c, 0, 86, 49
2, 1248163, Note_off_c, 0, 62, 49
2, 1248165, Note_off_c, 0, 86, 52
2, 1248167, Note_on_c, 0, 64, 40
2, 1248174, Note_on_c, 0, 73, 50
2, 1248269, Note_off_c, 0, 73, 52
2, 1248279, Note_off_c, 0, 64, 50
2, 1248284, Note_on_c, 0, 57, 42
2, 1248286, Note_on_c, 0, 85, 51
2, 1248397, Note_off_c, 0, 57, 50
2, 1248400, Note_off_c, 0, 85, 52
2, 1248401, Note_on_c, 0, 65, 44
2, 1248408, Note_on_c, 0, 74, 52
2, 1248507, Note_off_c, 0, 74, 53
2, 1248513, Note_off_c, 0, 65, 51
2, 1248517, Note_on_c, 0, 57, 46
2, 1248519, Note_on_c, 0, 86, 53
2, 1248632, Note_off_c, 0, 57, 51
2, 1248634, Note_off_c, 0, 86, 53
2, 1248636, Note_on_c, 0, 67, 48
2, 1248641, Note_on_c, 0, 76, 54
2, 1248727, Note_off_c, 0, 76, 53
2, 1248732, Note_off_c, 0, 67, 52
2, 1248734, Note_on_c, 0, 57, 50
2, 1248736, Note_on_c, 0, 88, 55
2, 1248849, Note_off_c, 0, 57, 52
2, 1248851, Note_off_c, 0, 88, 53
2, 1248853, Note_on_c, 0, 65, 52
2, 1248860, Note_on_c, 0, 71, 56
2, 1248960, Note_off_c, 0, 71, 54
2, 1248965, Note_off_c, 0, 65, 53
2, 1248968, Note_on_c, 0, 57, 54
2, 1248970, Note_on_c, 0, 83, 57
2, 1249083, Note_off_c, 0, 57, 53
2, 1249084, Note_off_c, 0, 83, 54
2, 1249087, Note_on_c, 0, 64, 56
2, 1249094, Note_on_c, 0, 73, 58
2, 1249182, Note_off_c, 0, 73, 54
2, 1249199, Note_off_c, 0, 64, 54
2, 1249201, Note_on_c, 0, 57, 58
2, 1249203, Note_on_c, 0, 85, 59
2, 1249316, Note_off_c, 0, 57, 54
2, 1249318, Note_off_c, 0, 85, 54
2, 1249320, Note_on_c, 0, 50, 72
2, 1249327, Note_on_c, 0, 74, 72
2, 1249408, Note_off_c, 0, 74, 58
2, 1249416, Note_off_c, 0, 50, 58
2, 1249418, Note_on_c, 0, 86, 48
2, 1249420, Note_on_c, 0, 62, 48
2, 1249533, Note_off_c, 0, 86, 52
2, 1249536, Note_on_c, 0, 73, 48
2, 1249538, Note_on_c, 0, 61, 42
2, 1249551, Note_off_c, 0, 62, 52
2, 1249654, Note_on_c, 0, 74, 44
2, 1249656, Note_on_c, 0, 62, 38
2, 1249668, Note_off_c, 0, 61, 50
2, 1249670, Note_off_c, 0, 73, 52
2, 1249766, Note_off_c, 0, 74, 51
2, 1249768, Note_off_c, 0, 62, 49
2, 1249771, Note_on_c, 0, 86, 40
2, 1249773, Note_on_c, 0, 50, 40
2, 1249883, Note_off_c, 0, 50, 50
2, 1249885, Note_off_c, 0, 86, 50
2, 1249888, Note_on_c, 0, 74, 36
2, 1249890, Note_on_c, 0, 62, 30
2, 1249985, Note_on_c, 0, 73, 72
2, 1249988, Note_on_c, 0, 61, 66
2, 1250004, Note_off_c, 0, 74, 49
2, 1250006, Note_off_c, 0, 62, 47
2, 1250102, Note_on_c, 0, 74, 48
2, 1250104, Note_on_c, 0, 62, 42
2, 1250115, Note_off_c, 0, 61, 56
2, 1250116, Note_off_c, 0, 73, 58
2, 1250219, Note_off_c, 0, 62, 50
2, 1250221, Note_off_c, 0, 74, 52
2, 1250224, Note_on_c, 0, 50, 48
2, 1250225, Note_on_c, 0, 86, 48
2, 1250336, Note_off_c, 0, 50, 52
2, 1250338, Note_off_c, 0, 86, 52
2, 1250341, Note_on_c, 0, 74, 44
2, 1250343, Note_on_c, 0, 62, 38
2, 1250453, Note_on_c, 0, 73, 40
2, 1250454, Note_on_c, 0, 61, 34
2, 1250479, Note_off_c, 0, 62, 49
2, 1250480, Note_off_c, 0, 74, 51
2, 1250570, Note_on_c, 0, 74, 36
2, 1250572, Note_on_c, 0, 62, 30
2, 1250578, Note_off_c, 0, 61, 48
2, 1250588, Note_off_c, 0, 73, 50
2, 1250667, Note_off_c, 0, 74, 49
2, 1250672, Note_off_c, 0, 62, 47
2, 1250673, Note_on_c, 0, 86, 72
2, 1250674, Note_on_c, 0, 50, 72
2, 1250784, Note_off_c, 0, 86, 58
2, 1250788, Note_off_c, 0, 50, 58
2, 1250791, Note_on_c, 0, 74, 48
2, 1250792, Note_on_c, 0, 62, 42
2, 1250905, Note_on_c, 0, 73, 48
2, 1250908, Note_on_c, 0, 61, 42
2, 1250920, Note_off_c, 0, 74, 52
2, 1250922, Note_off_c, 0, 62, 50
2, 1251022, Note_on_c, 0, 74, 44
2, 1251024, Note_on_c, 0, 62, 38
2, 1251032, Note_off_c, 0, 61, 50
2, 1251041, Note_off_c, 0, 73, 52
2, 1251134, Note_off_c, 0, 74, 51
2, 1251139, Note_off_c, 0, 62, 49
2, 1251141, Note_on_c, 0, 86, 40
2, 1251144, Note_on_c, 0, 50, 40
2, 1251251, Note_off_c, 0, 86, 50
2, 1251255, Note_off_c, 0, 50, 50
2, 1251258, Note_on_c, 0, 74, 36
2, 1251260, Note_on_c, 0, 62, 30
2, 1251357, Note_on_c, 0, 73, 72
2, 1251358, Note_on_c, 0, 61, 66
2, 1251359, Note_off_c, 0, 74, 49
2, 1251380, Note_off_c, 0, 62, 47
2, 1251474, Note_on_c, 0, 74, 48
2, 1251475, Note_on_c, 0, 62, 42
2, 1251488, Note_off_c, 0, 73, 58
2, 1251489, Note_off_c, 0, 61, 56
2, 1251588, Note_off_c, 0, 74, 52
2, 1251589, Note_off_c, 0, 62, 50
2, 1251592, Note_on_c, 0, 50, 48
2, 1251593, Note_on_c, 0, 86, 48
2, 1251704, Note_off_c, 0, 86, 52
2, 1251706, Note_off_c, 0, 50, 52
2, 1251709, Note_on_c, 0, 74, 42
2, 1251710, Note_on_c, 0, 62, 39
2, 1251824, Note_on_c, 0, 73, 36
2, 1251826, Note_on_c, 0, 61, 36
2, 1251849, Note_off_c, 0, 74, 50
2, 1251851, Note_off_c, 0, 62, 49
2, 1251942, Note_on_c, 0, 74, 36
2, 1251943, Note_on_c, 0, 62, 33
2, 1251966, Note_off_c, 0, 61, 49
2, 1251996, Note_off_c, 0, 73, 49
2, 1252009, Control_c, 0, 64, 96
2, 1252040, Note_off_c, 0, 74, 49
2, 1252041, Note_off_c, 0, 62, 48
2, 1252044, Note_on_c, 0, 72, 40
2, 1252045, Note_on_c, 0, 66, 30
2, 1252046, Note_on_c, 0, 75, 48
2, 1252047, Note_on_c, 0, 69, 36
2, 1252155, Note_on_c, 0, 74, 48
2, 1252165, Note_off_c, 0, 75, 52
2, 1252273, Note_off_c, 0, 72, 50
2, 1252274, Note_off_c, 0, 66, 47
2, 1252276, Note_off_c, 0, 69, 49
2, 1252279, Note_on_c, 0, 75, 51
2, 1252300, Note_off_c, 0, 74, 52
2, 1252349, Control_c, 0, 64, 20
2, 1252390, Note_on_c, 0, 74, 54
2, 1252409, Note_off_c, 0, 75, 52
2, 1252507, Note_on_c, 0, 75, 57
2, 1252514, Note_off_c, 0, 74, 53
2, 1252607, Note_on_c, 0, 74, 60
2, 1252627, Note_off_c, 0, 75, 54
2, 1252724, Note_on_c, 0, 75, 48
2, 1252737, Note_off_c, 0, 74, 55
2, 1252842, Note_on_c, 0, 74, 48
2, 1252868, Note_off_c, 0, 75, 52
2, 1252959, Note_on_c, 0, 75, 50
2, 1252964, Note_off_c, 0, 74, 52
2, 1253075, Note_on_c, 0, 74, 52
2, 1253097, Note_off_c, 0, 75, 52
2, 1253192, Note_on_c, 0, 75, 55
2, 1253197, Note_off_c, 0, 74, 53
2, 1253293, Note_on_c, 0, 74, 57
2, 1253316, Note_off_c, 0, 75, 53
2, 1253410, Note_on_c, 0, 75, 60
2, 1253415, Note_off_c, 0, 74, 54
2, 1253526, Note_on_c, 0, 74, 60
2, 1253554, Note_off_c, 0, 75, 55
2, 1253643, Note_on_c, 0, 75, 58
2, 1253654, Note_off_c, 0, 74, 55
2, 1253762, Note_on_c, 0, 74, 56
2, 1253776, Note_off_c, 0, 75, 54
2, 1253879, Note_on_c, 0, 75, 53
2, 1253888, Note_off_c, 0, 74, 54
2, 1253977, Note_on_c, 0, 74, 51
2, 1253984, Note_off_c, 0, 75, 53
2, 1254093, Note_on_c, 0, 75, 48
2, 1254112, Note_off_c, 0, 74, 52
2, 1254210, Note_on_c, 0, 74, 48
2, 1254229, Note_off_c, 0, 75, 52
2, 1254327, Note_on_c, 0, 75, 52
2, 1254341, Note_off_c, 0, 74, 52
2, 1254408, Note_off_c, 0, 75, 53
2, 1254443, Note_on_c, 0, 75, 57
2, 1254560, Note_off_c, 0, 75, 54
2, 1254563, Note_on_c, 0, 81, 62
2, 1254661, Note_off_c, 0, 81, 55
2, 1254663, Note_on_c, 0, 82, 67
2, 1254777, Note_off_c, 0, 82, 57
2, 1254780, Note_on_c, 0, 66, 48
2, 1254782, Note_on_c, 0, 84, 72
2, 1254827, Control_c, 0, 64, 96
2, 1254859, Note_off_c, 0, 84, 58
2, 1254896, Note_on_c, 0, 69, 48
2, 1255013, Note_off_c, 0, 69, 52
2, 1255014, Note_on_c, 0, 72, 49
2, 1255128, Note_off_c, 0, 72, 52
2, 1255130, Note_on_c, 0, 75, 50
2, 1255227, Control_c, 0, 64, 20
2, 1255229, Note_off_c, 0, 75, 52
2, 1255233, Note_on_c, 0, 81, 48
2, 1255316, Note_off_c, 0, 66, 52
2, 1255344, Note_off_c, 0, 81, 52
2, 1255349, Note_on_c, 0, 82, 51
2, 1255461, Note_off_c, 0, 82, 52
2, 1255466, Note_on_c, 0, 84, 54
2, 1255468, Note_on_c, 0, 66, 51
2, 1255481, Control_c, 0, 64, 96
2, 1255546, Note_off_c, 0, 84, 53
2, 1255579, Note_on_c, 0, 69, 52
2, 1255696, Note_off_c, 0, 69, 53
2, 1255700, Note_on_c, 0, 72, 53
2, 1255812, Note_off_c, 0, 72, 53
2, 1255817, Note_on_c, 0, 75, 48
2, 1255862, Control_c, 0, 64, 20
2, 1255915, Note_off_c, 0, 75, 52
2, 1255918, Note_on_c, 0, 81, 48
2, 1255959, Note_off_c, 0, 66, 52
2, 1256032, Note_off_c, 0, 81, 52
2, 1256034, Note_on_c, 0, 82, 51
2, 1256132, Note_off_c, 0, 82, 52
2, 1256149, Note_on_c, 0, 84, 54
2, 1256151, Note_on_c, 0, 66, 55
2, 1256163, Control_c, 0, 64, 96
2, 1256235, Note_off_c, 0, 84, 53
2, 1256266, Note_on_c, 0, 69, 55
2, 1256382, Note_off_c, 0, 69, 53
2, 1256385, Note_on_c, 0, 72, 54
2, 1256499, Note_off_c, 0, 72, 53
2, 1256501, Note_on_c, 0, 75, 48
2, 1256544, Control_c, 0, 64, 20
2, 1256600, Note_off_c, 0, 75, 52
2, 1256602, Note_on_c, 0, 81, 48
2, 1256655, Note_off_c, 0, 66, 53
2, 1256716, Note_off_c, 0, 81, 52
2, 1256718, Note_on_c, 0, 82, 50
2, 1256817, Note_off_c, 0, 82, 52
2, 1256833, Note_on_c, 0, 84, 53
2, 1256835, Note_on_c, 0, 66, 50
2, 1256864, Control_c, 0, 64, 96
2, 1256915, Note_off_c, 0, 84, 53
2, 1256951, Note_on_c, 0, 69, 49
2, 1257067, Note_off_c, 0, 69, 52
2, 1257071, Note_on_c, 0, 72, 48
2, 1257186, Note_off_c, 0, 72, 52
2, 1257188, Note_on_c, 0, 74, 48
2, 1257286, Note_off_c, 0, 74, 52
2, 1257287, Note_on_c, 0, 84, 52
2, 1257293, Control_c, 0, 64, 20
2, 1257352, Note_off_c, 0, 66, 52
2, 1257401, Note_off_c, 0, 84, 53
2, 1257405, Note_on_c, 0, 81, 48
2, 1257519, Note_off_c, 0, 81, 52
2, 1257522, Note_on_c, 0, 82, 48
2, 1257524, Note_on_c, 0, 55, 48
2, 1257600, Note_off_c, 0, 82, 52
2, 1257606, Control_c, 0, 64, 96
2, 1257636, Note_on_c, 0, 58, 48
2, 1257753, Note_on_c, 0, 62, 49
2, 1257853, Note_on_c, 0, 67, 49
2, 1257915, Note_off_c, 0, 55, 52
2, 1257970, Note_off_c, 0, 67, 52
2, 1257972, Note_on_c, 0, 70, 50
2, 1258024, Control_c, 0, 64, 20
2, 1258075, Note_off_c, 0, 58, 52
2, 1258086, Note_off_c, 0, 70, 52
2, 1258089, Note_on_c, 0, 74, 51
2, 1258169, Note_off_c, 0, 74, 52
2, 1258203, Note_off_c, 0, 62, 52
2, 1258208, Note_on_c, 0, 55, 51
2, 1258298, Control_c, 0, 64, 96
2, 1258321, Note_on_c, 0, 58, 52
2, 1258438, Note_on_c, 0, 61, 53
2, 1258537, Note_on_c, 0, 67, 56
2, 1258643, Note_off_c, 0, 55, 52
2, 1258653, Note_off_c, 0, 67, 54
2, 1258656, Note_on_c, 0, 70, 57
2, 1258727, Control_c, 0, 64, 20
2, 1258738, Note_off_c, 0, 58, 53
2, 1258770, Note_off_c, 0, 70, 54
2, 1258773, Note_on_c, 0, 73, 58
2, 1258853, Note_off_c, 0, 73, 54
2, 1258873, Note_off_c, 0, 61, 53
2, 1258888, Note_on_c, 0, 55, 55
2, 1258940, Control_c, 0, 64, 96
2, 1259005, Note_on_c, 0, 58, 56
2, 1259122, Note_on_c, 0, 62, 56
2, 1259221, Note_on_c, 0, 67, 62
2, 1259339, Note_off_c, 0, 67, 55
2, 1259341, Note_off_c, 0, 55, 53
2, 1259341, Note_on_c, 0, 70, 64
2, 1259398, Control_c, 0, 64, 20
2, 1259455, Note_off_c, 0, 70, 56
2, 1259458, Note_on_c, 0, 74, 65
2, 1259491, Note_off_c, 0, 58, 54
2, 1259540, Note_off_c, 0, 74, 56
2, 1259558, Note_off_c, 0, 62, 54
2, 1259572, Note_on_c, 0, 55, 59
2, 1259643, Control_c, 0, 64, 96
2, 1259690, Note_on_c, 0, 61, 60
2, 1259806, Note_on_c, 0, 64, 60
2, 1259906, Note_on_c, 0, 67, 69
2, 1260023, Note_off_c, 0, 67, 57
2, 1260027, Note_on_c, 0, 70, 70
2, 1260042, Control_c, 0, 64, 20
2, 1260071, Note_off_c, 0, 55, 54
2, 1260139, Note_off_c, 0, 70, 57
2, 1260142, Note_on_c, 0, 76, 72
2, 1260257, Note_off_c, 0, 76, 58
2, 1260259, Note_off_c, 0, 61, 55
2, 1260261, Note_off_c, 0, 64, 55
2, 1260263, Note_on_c, 0, 68, 60
2, 1260295, Control_c, 0, 64, 95
2, 1260374, Note_on_c, 0, 71, 54
2, 1260476, Note_on_c, 0, 74, 48
2, 1260491, Note_off_c, 0, 71, 53
2, 1260590, Note_off_c, 0, 74, 52
2, 1260593, Note_on_c, 0, 77, 48
2, 1260645, Control_c, 0, 64, 20
2, 1260709, Note_on_c, 0, 83, 48
2, 1260733, Note_off_c, 0, 77, 52
2, 1260769, Note_off_c, 0, 68, 55
2, 1260826, Note_on_c, 0, 85, 54
2, 1260843, Note_off_c, 0, 83, 52
2, 1260946, Note_on_c, 0, 68, 36
2, 1260948, Note_on_c, 0, 86, 60
2, 1260966, Note_off_c, 0, 85, 53
2, 1260988, Control_c, 0, 64, 96
2, 1261030, Note_off_c, 0, 86, 55
2, 1261060, Note_on_c, 0, 71, 36
2, 1261160, Note_on_c, 0, 74, 37
2, 1261177, Note_off_c, 0, 71, 49
2, 1261277, Note_on_c, 0, 77, 48
2, 1261282, Note_off_c, 0, 74, 49
2, 1261387, Control_c, 0, 64, 20
2, 1261394, Note_on_c, 0, 83, 48
2, 1261413, Note_off_c, 0, 77, 52
2, 1261481, Note_off_c, 0, 68, 49
2, 1261513, Note_on_c, 0, 85, 54
2, 1261514, Note_off_c, 0, 83, 52
2, 1261630, Note_on_c, 0, 68, 44
2, 1261632, Note_on_c, 0, 86, 60
2, 1261660, Note_off_c, 0, 85, 53
2, 1261690, Control_c, 0, 64, 96
2, 1261707, Note_off_c, 0, 86, 55
2, 1261746, Note_on_c, 0, 71, 46
2, 1261846, Note_on_c, 0, 74, 48
2, 1261849, Note_off_c, 0, 71, 51
2, 1261963, Note_on_c, 0, 77, 48
2, 1261986, Note_off_c, 0, 74, 52
2, 1262010, Control_c, 0, 64, 20
2, 1262080, Note_on_c, 0, 83, 48
2, 1262089, Note_off_c, 0, 77, 52
2, 1262118, Note_off_c, 0, 68, 51
2, 1262197, Note_on_c, 0, 85, 54
2, 1262244, Note_off_c, 0, 83, 52
2, 1262314, Note_on_c, 0, 68, 45
2, 1262316, Note_on_c, 0, 86, 60
2, 1262332, Control_c, 0, 64, 96
2, 1262349, Note_off_c, 0, 85, 53
2, 1262388, Note_off_c, 0, 86, 55
2, 1262430, Note_on_c, 0, 71, 43
2, 1262530, Note_on_c, 0, 74, 42
2, 1262540, Note_off_c, 0, 71, 50
2, 1262648, Note_on_c, 0, 76, 48
2, 1262666, Note_off_c, 0, 74, 50
2, 1262765, Note_on_c, 0, 86, 60
2, 1262786, Note_off_c, 0, 76, 52
2, 1262799, Control_c, 0, 64, 20
2, 1262877, Note_off_c, 0, 68, 51
2, 1262882, Note_on_c, 0, 83, 48
2, 1262893, Note_off_c, 0, 86, 55
2, 1262998, Note_off_c, 0, 83, 52
2, 1263001, Note_on_c, 0, 85, 48
2, 1263002, Note_on_c, 0, 57, 36
2, 1263082, Note_off_c, 0, 85, 52
2, 1263098, Note_on_c, 0, 61, 36
2, 1263131, Control_c, 0, 64, 96
2, 1263214, Note_on_c, 0, 64, 36
2, 1263331, Note_on_c, 0, 69, 49
2, 1263448, Note_off_c, 0, 69, 52
2, 1263450, Note_on_c, 0, 73, 50
2, 1263456, Note_off_c, 0, 57, 49
2, 1263521, Control_c, 0, 64, 20
2, 1263565, Note_off_c, 0, 73, 52
2, 1263567, Note_on_c, 0, 76, 51
2, 1263618, Note_off_c, 0, 61, 49
2, 1263648, Note_off_c, 0, 76, 52
2, 1263683, Note_off_c, 0, 64, 49
2, 1263687, Note_on_c, 0, 57, 39
2, 1263783, Note_on_c, 0, 61, 39
2, 1263785, Control_c, 0, 64, 96
2, 1263900, Note_on_c, 0, 63, 40
2, 1264016, Note_on_c, 0, 69, 56
2, 1264134, Note_off_c, 0, 69, 54
2, 1264136, Note_on_c, 0, 73, 57
2, 1264145, Note_off_c, 0, 57, 49
2, 1264194, Control_c, 0, 64, 20
2, 1264250, Note_off_c, 0, 73, 54
2, 1264252, Note_on_c, 0, 75, 58
2, 1264273, Note_off_c, 0, 61, 49
2, 1264335, Note_off_c, 0, 75, 54
2, 1264339, Note_off_c, 0, 63, 50
2, 1264367, Note_on_c, 0, 57, 42
2, 1264467, Note_on_c, 0, 61, 43
2, 1264486, Control_c, 0, 64, 95
2, 1264584, Note_on_c, 0, 64, 44
2, 1264701, Note_on_c, 0, 69, 62
2, 1264776, Note_off_c, 0, 57, 50
2, 1264817, Note_off_c, 0, 69, 55
2, 1264820, Note_on_c, 0, 73, 64
2, 1264836, Control_c, 0, 64, 20
2, 1264934, Note_off_c, 0, 73, 56
2, 1264936, Note_on_c, 0, 76, 65
2, 1264957, Note_off_c, 0, 61, 50
2, 1265020, Note_off_c, 0, 76, 56
2, 1265022, Note_off_c, 0, 64, 51
2, 1265051, Note_on_c, 0, 57, 46
2, 1265153, Note_on_c, 0, 61, 47
2, 1265167, Control_c, 0, 64, 96
2, 1265270, Note_on_c, 0, 66, 47
2, 1265385, Note_on_c, 0, 69, 69
2, 1265504, Note_off_c, 0, 69, 57
2, 1265506, Note_off_c, 0, 57, 51
2, 1265507, Note_on_c, 0, 73, 70
2, 1265518, Control_c, 0, 64, 20
2, 1265621, Note_off_c, 0, 73, 57
2, 1265623, Note_on_c, 0, 78, 72
2, 1265642, Note_off_c, 0, 61, 51
2, 1265704, Note_off_c, 0, 78, 58
2, 1265709, Note_off_c, 0, 66, 51
2, 1265721, Note_on_c, 0, 57, 60
2, 1265837, Note_on_c, 0, 61, 60
2, 1265850, Control_c, 0, 64, 95
2, 1265955, Note_on_c, 0, 67, 59
2, 1266071, Note_on_c, 0, 69, 71
2, 1266179, Note_off_c, 0, 57, 55
2, 1266190, Note_off_c, 0, 69, 58
2, 1266193, Note_on_c, 0, 73, 70
2, 1266210, Control_c, 0, 64, 20
2, 1266305, Note_off_c, 0, 73, 57
2, 1266307, Note_on_c, 0, 79, 69
2, 1266343, Note_off_c, 0, 61, 55
2, 1266388, Note_off_c, 0, 79, 57
2, 1266407, Note_off_c, 0, 67, 54
2, 1266410, Note_on_c, 0, 57, 54
2, 1266524, Note_on_c, 0, 61, 53
2, 1266580, Control_c, 0, 64, 95
2, 1266638, Note_on_c, 0, 66, 52
2, 1266755, Note_on_c, 0, 69, 64
2, 1266853, Note_off_c, 0, 57, 53
2, 1266872, Note_off_c, 0, 69, 56
2, 1266874, Note_on_c, 0, 73, 63
2, 1266902, Control_c, 0, 64, 20
2, 1266989, Note_off_c, 0, 73, 55
2, 1266991, Note_on_c, 0, 78, 62
2, 1267013, Note_off_c, 0, 61, 53
2, 1267073, Note_off_c, 0, 78, 55
2, 1267074, Note_off_c, 0, 66, 53
2, 1267090, Note_on_c, 0, 57, 47
2, 1267206, Note_on_c, 0, 61, 45
2, 1267222, Control_c, 0, 64, 95
2, 1267324, Note_on_c, 0, 67, 44
2, 1267440, Note_on_c, 0, 69, 58
2, 1267545, Note_off_c, 0, 57, 51
2, 1267557, Note_off_c, 0, 69, 54
2, 1267559, Note_on_c, 0, 73, 56
2, 1267585, Control_c, 0, 64, 20
2, 1267656, Note_off_c, 0, 73, 54
2, 1267660, Note_on_c, 0, 79, 55
2, 1267697, Note_off_c, 0, 61, 51
2, 1267760, Note_off_c, 0, 79, 53
2, 1267763, Note_off_c, 0, 67, 51
2, 1267775, Note_on_c, 0, 57, 39
2, 1267891, Note_on_c, 0, 61, 38
2, 1267896, Control_c, 0, 64, 96
2, 1268010, Note_on_c, 0, 65, 36
2, 1268126, Note_on_c, 0, 69, 51
2, 1268244, Note_off_c, 0, 69, 52
2, 1268245, Note_on_c, 0, 73, 50
2, 1268275, Control_c, 0, 64, 20
2, 1268280, Note_off_c, 0, 57, 49
2, 1268343, Note_off_c, 0, 73, 52
2, 1268348, Note_on_c, 0, 77, 48
2, 1268381, Note_off_c, 0, 61, 49
2, 1268443, Note_off_c, 0, 77, 52
2, 1268447, Note_off_c, 0, 65, 49
2, 1268460, Note_on_c, 0, 57, 37
2, 1268577, Note_on_c, 0, 61, 37
2, 1268608, Control_c, 0, 64, 96
2, 1268694, Note_on_c, 0, 64, 38
2, 1268810, Note_on_c, 0, 69, 49
2, 1268928, Note_off_c, 0, 69, 52
2, 1268930, Note_on_c, 0, 73, 50
2, 1268967, Control_c, 0, 64, 20
2, 1268988, Note_off_c, 0, 57, 49
2, 1269027, Note_off_c, 0, 73, 52
2, 1269030, Note_on_c, 0, 76, 51
2, 1269080, Note_off_c, 0, 61, 49
2, 1269128, Note_off_c, 0, 76, 52
2, 1269147, Note_off_c, 0, 64, 49
2, 1269149, Note_on_c, 0, 57, 40
2, 1269201, Control_c, 0, 64, 96
2, 1269261, Note_on_c, 0, 61, 40
2, 1269378, Note_on_c, 0, 63, 41
2, 1269494, Note_on_c, 0, 69, 56
2, 1269587, Note_off_c, 0, 57, 50
2, 1269611, Note_off_c, 0, 69, 54
2, 1269614, Note_on_c, 0, 73, 57
2, 1269620, Control_c, 0, 64, 20
2, 1269714, Note_off_c, 0, 73, 54
2, 1269717, Note_on_c, 0, 75, 58
2, 1269751, Note_off_c, 0, 61, 50
2, 1269796, Note_off_c, 0, 75, 54
2, 1269814, Note_off_c, 0, 63, 50
2, 1269831, Note_on_c, 0, 57, 43
2, 1269947, Note_on_c, 0, 61, 44
2, 1269953, Control_c, 0, 64, 96
2, 1270064, Note_on_c, 0, 64, 44
2, 1270181, Note_on_c, 0, 69, 63
2, 1270282, Note_off_c, 0, 57, 50
2, 1270284, Note_off_c, 0, 69, 55
2, 1270285, Note_on_c, 0, 73, 64
2, 1270323, Control_c, 0, 64, 20
2, 1270398, Note_off_c, 0, 73, 56
2, 1270401, Note_on_c, 0, 76, 66
2, 1270432, Note_off_c, 0, 61, 51
2, 1270482, Note_off_c, 0, 76, 56
2, 1270498, Note_off_c, 0, 64, 51
2, 1270515, Note_on_c, 0, 57, 46
2, 1270632, Note_on_c, 0, 61, 47
2, 1270663, Control_c, 0, 64, 96
2, 1270749, Note_on_c, 0, 66, 48
2, 1270865, Note_on_c, 0, 69, 70
2, 1270965, Note_off_c, 0, 69, 57
2, 1270968, Note_on_c, 0, 73, 72
2, 1270971, Note_off_c, 0, 57, 51
2, 1271034, Control_c, 0, 64, 20
2, 1271080, Note_off_c, 0, 73, 58
2, 1271083, Note_on_c, 0, 78, 72
2, 1271118, Note_off_c, 0, 61, 51
2, 1271166, Note_off_c, 0, 78, 58
2, 1271183, Note_off_c, 0, 66, 52
2, 1271200, Note_on_c, 0, 57, 48
2, 1271317, Note_on_c, 0, 61, 47
2, 1271326, Control_c, 0, 64, 96
2, 1271434, Note_on_c, 0, 67, 46
2, 1271550, Note_on_c, 0, 69, 70
2, 1271651, Note_off_c, 0, 69, 57
2, 1271653, Note_on_c, 0, 73, 67
2, 1271695, Note_off_c, 0, 57, 52
2, 1271696, Control_c, 0, 64, 20
2, 1271767, Note_off_c, 0, 73, 56
2, 1271769, Note_on_c, 0, 79, 65
2, 1271820, Note_off_c, 0, 61, 51
2, 1271850, Note_off_c, 0, 79, 56
2, 1271887, Note_off_c, 0, 67, 51
2, 1271888, Note_on_c, 0, 57, 43
2, 1271989, Control_c, 0, 64, 96
2, 1272001, Note_on_c, 0, 61, 42
2, 1272117, Note_on_c, 0, 67, 41
2, 1272235, Note_on_c, 0, 69, 54
2, 1272337, Note_off_c, 0, 69, 53
2, 1272338, Note_on_c, 0, 73, 52
2, 1272340, Control_c, 0, 64, 20
2, 1272381, Note_off_c, 0, 57, 50
2, 1272452, Note_off_c, 0, 73, 53
2, 1272456, Note_on_c, 0, 79, 49
2, 1272489, Note_off_c, 0, 61, 50
2, 1272537, Note_off_c, 0, 79, 52
2, 1272554, Note_off_c, 0, 67, 50
2, 1272571, Note_on_c, 0, 57, 38
2, 1272671, Control_c, 0, 64, 96
2, 1272687, Note_on_c, 0, 61, 37
2, 1272804, Note_on_c, 0, 67, 36
2, 1272904, Note_on_c, 0, 69, 39
2, 1273021, Note_off_c, 0, 69, 49
2, 1273024, Note_on_c, 0, 73, 36
2, 1273049, Note_off_c, 0, 57, 49
2, 1273091, Control_c, 0, 64, 20
2, 1273138, Note_off_c, 0, 73, 49
2, 1273140, Note_on_c, 0, 79, 36
2, 1273173, Note_off_c, 0, 61, 49
2, 1273221, Note_off_c, 0, 79, 49
2, 1273240, Note_off_c, 0, 67, 49
2, 1273255, Note_on_c, 0, 57, 36
2, 1273371, Note_on_c, 0, 61, 38
2, 1273489, Note_off_c, 0, 61, 49
2, 1273491, Note_on_c, 0, 64, 40
2, 1273588, Note_off_c, 0, 64, 50
2, 1273591, Note_on_c, 0, 69, 96
2, 1273705, Control_c, 0, 64, 96
2, 1273708, Note_off_c, 0, 69, 63
2, 1273710, Note_on_c, 0, 81, 81
2, 1273711, Note_on_c, 0, 77, 88
2, 1273822, Note_on_c, 0, 76, 84
2, 1273836, Note_off_c, 0, 77, 62
2, 1273939, Note_off_c, 0, 57, 49
2, 1273941, Note_on_c, 0, 74, 84
2, 1273944, Control_c, 0, 64, 20
2, 1273946, Note_on_c, 0, 50, 48
2, 1273958, Note_off_c, 0, 76, 61
2, 1274056, Note_off_c, 0, 50, 52
2, 1274058, Note_on_c, 0, 57, 48
2, 1274098, Note_off_c, 0, 74, 61
2, 1274105, Note_off_c, 0, 81, 60
2, 1274172, Note_on_c, 0, 62, 54
2, 1274275, Note_off_c, 0, 62, 53
2, 1274277, Note_on_c, 0, 65, 60
2, 1274279, Note_on_c, 0, 69, 96
2, 1274392, Control_c, 0, 64, 96
2, 1274394, Note_off_c, 0, 65, 55
2, 1274397, Note_off_c, 0, 69, 63
2, 1274398, Note_on_c, 0, 77, 88
2, 1274399, Note_on_c, 0, 81, 93
2, 1274508, Note_on_c, 0, 76, 84
2, 1274518, Note_off_c, 0, 77, 62
2, 1274625, Note_off_c, 0, 57, 52
2, 1274628, Note_on_c, 0, 74, 84
2, 1274630, Control_c, 0, 64, 20
2, 1274631, Note_on_c, 0, 50, 48
2, 1274651, Note_off_c, 0, 76, 61
2, 1274743, Note_off_c, 0, 50, 52
2, 1274744, Note_on_c, 0, 57, 48
2, 1274785, Note_off_c, 0, 74, 61
2, 1274791, Note_off_c, 0, 81, 63
2, 1274859, Note_on_c, 0, 62, 54
2, 1274957, Note_off_c, 0, 62, 53
2, 1274959, Note_on_c, 0, 65, 60
2, 1274961, Note_on_c, 0, 69, 96
2, 1275073, Note_off_c, 0, 69, 63
2, 1275077, Control_c, 0, 64, 96
2, 1275079, Note_off_c, 0, 65, 55
2, 1275081, Note_on_c, 0, 77, 88
2, 1275082, Note_on_c, 0, 81, 93
2, 1275192, Note_on_c, 0, 76, 84
2, 1275216, Note_off_c, 0, 77, 62
2, 1275310, Note_off_c, 0, 57, 52
2, 1275312, Note_on_c, 0, 74, 84
2, 1275314, Control_c, 0, 64, 20
2, 1275317, Note_on_c, 0, 50, 48
2, 1275322, Note_off_c, 0, 76, 61
2, 1275423, Note_off_c, 0, 50, 52
2, 1275426, Note_on_c, 0, 57, 48
2, 1275474, Note_off_c, 0, 74, 61
2, 1275477, Note_off_c, 0, 81, 63
2, 1275525, Note_on_c, 0, 62, 54
2, 1275644, Note_off_c, 0, 62, 53
2, 1275646, Note_on_c, 0, 65, 60
2, 1275647, Note_on_c, 0, 69, 96
2, 1275760, Note_off_c, 0, 69, 63
2, 1275762, Control_c, 0, 64, 96
2, 1275763, Note_off_c, 0, 65, 55
2, 1275765, Note_on_c, 0, 81, 93
2, 1275767, Note_on_c, 0, 77, 88
2, 1275879, Note_on_c, 0, 74, 84
2, 1275895, Note_off_c, 0, 77, 62
2, 1275993, Note_off_c, 0, 74, 61
2, 1275996, Note_off_c, 0, 57, 52
2, 1275998, Note_on_c, 0, 76, 84
2, 1276001, Control_c, 0, 64, 20
2, 1276002, Note_on_c, 0, 45, 48
2, 1276111, Note_off_c, 0, 45, 52
2, 1276112, Note_on_c, 0, 57, 48
2, 1276185, Note_off_c, 0, 76, 61
2, 1276211, Note_off_c, 0, 81, 63
2, 1276214, Note_on_c, 0, 61, 54
2, 1276328, Note_off_c, 0, 61, 53
2, 1276331, Note_on_c, 0, 69, 96
2, 1276332, Note_on_c, 0, 64, 60
2, 1276444, Note_off_c, 0, 64, 55
2, 1276447, Note_off_c, 0, 69, 63
2, 1276449, Control_c, 0, 64, 96
2, 1276451, Note_on_c, 0, 81, 93
2, 1276452, Note_on_c, 0, 79, 88
2, 1276561, Note_on_c, 0, 77, 84
2, 1276576, Note_off_c, 0, 79, 62
2, 1276678, Note_off_c, 0, 57, 52
2, 1276681, Control_c, 0, 64, 20
2, 1276682, Note_on_c, 0, 76, 84
2, 1276684, Note_on_c, 0, 45, 48
2, 1276693, Note_off_c, 0, 77, 61
2, 1276794, Note_off_c, 0, 45, 52
2, 1276798, Note_on_c, 0, 57, 48
2, 1276877, Note_off_c, 0, 76, 61
2, 1276895, Note_off_c, 0, 81, 63
2, 1276898, Note_on_c, 0, 61, 54
2, 1277013, Note_off_c, 0, 61, 53
2, 1277016, Note_on_c, 0, 69, 96
2, 1277018, Note_on_c, 0, 64, 60
2, 1277131, Note_off_c, 0, 64, 55
2, 1277134, Note_off_c, 0, 69, 63
2, 1277135, Control_c, 0, 64, 96
2, 1277136, Note_on_c, 0, 79, 88
2, 1277137, Note_on_c, 0, 81, 93
2, 1277248, Note_on_c, 0, 77, 84
2, 1277263, Note_off_c, 0, 79, 62
2, 1277365, Note_off_c, 0, 57, 52
2, 1277368, Control_c, 0, 64, 20
2, 1277369, Note_on_c, 0, 76, 84
2, 1277370, Note_on_c, 0, 45, 48
2, 1277385, Note_off_c, 0, 77, 61
2, 1277480, Note_off_c, 0, 45, 52
2, 1277484, Note_on_c, 0, 57, 48
2, 1277580, Note_off_c, 0, 76, 61
2, 1277582, Note_off_c, 0, 81, 63
2, 1277584, Note_on_c, 0, 61, 60
2, 1277699, Note_off_c, 0, 61, 55
2, 1277701, Note_on_c, 0, 69, 96
2, 1277703, Note_on_c, 0, 64, 60
2, 1277816, Note_off_c, 0, 64, 55
2, 1277818, Note_off_c, 0, 69, 63
2, 1277820, Control_c, 0, 64, 96
2, 1277822, Note_on_c, 0, 79, 88
2, 1277823, Note_on_c, 0, 81, 93
2, 1277932, Note_on_c, 0, 77, 84
2, 1277934, Note_off_c, 0, 79, 62
2, 1278050, Note_off_c, 0, 57, 52
2, 1278052, Control_c, 0, 64, 20
2, 1278054, Note_on_c, 0, 76, 84
2, 1278056, Note_on_c, 0, 45, 48
2, 1278080, Note_off_c, 0, 77, 61
2, 1278149, Note_off_c, 0, 45, 52
2, 1278150, Note_on_c, 0, 57, 48
2, 1278257, Note_off_c, 0, 76, 61
2, 1278264, Note_off_c, 0, 81, 63
2, 1278267, Note_on_c, 0, 61, 54
2, 1278383, Note_off_c, 0, 61, 53
2, 1278385, Note_on_c, 0, 64, 60
2, 1278387, Note_on_c, 0, 69, 96
2, 1278500, Control_c, 0, 64, 96
2, 1278502, Note_off_c, 0, 64, 55
2, 1278504, Note_off_c, 0, 69, 63
2, 1278507, Note_on_c, 0, 79, 88
2, 1278508, Note_on_c, 0, 81, 93
2, 1278615, Note_on_c, 0, 76, 84
2, 1278661, Note_off_c, 0, 79, 62
2, 1278733, Note_off_c, 0, 57, 52
2, 1278736, Note_on_c, 0, 77, 84
2, 1278738, Control_c, 0, 64, 20
2, 1278740, Note_on_c, 0, 50, 60
2, 1278750, Note_off_c, 0, 76, 61
2, 1278832, Note_off_c, 0, 50, 55
2, 1278836, Note_on_c, 0, 57, 56
2, 1278933, Note_off_c, 0, 77, 61
2, 1278949, Note_off_c, 0, 81, 63
2, 1278952, Note_on_c, 0, 62, 52
2, 1279065, Note_off_c, 0, 62, 53
2, 1279069, Note_on_c, 0, 65, 48
2, 1279071, Note_on_c, 0, 74, 48
2, 1279184, Note_off_c, 0, 74, 52
2, 1279186, Note_off_c, 0, 65, 52
2, 1279188, Note_on_c, 0, 81, 48
2, 1279203, Control_c, 0, 64, 20
2, 1279300, Note_off_c, 0, 81, 52
2, 1279303, Note_on_c, 0, 86, 60
2, 1279418, Note_off_c, 0, 86, 55
2, 1279419, Note_off_c, 0, 57, 54
2, 1279422, Note_on_c, 0, 82, 48
2, 1279424, Note_on_c, 0, 55, 49
2, 1279497, Control_c, 0, 64, 96
2, 1279502, Note_off_c, 0, 82, 52
2, 1279518, Note_on_c, 0, 62, 51
2, 1279633, Note_on_c, 0, 67, 52
2, 1279750, Note_on_c, 0, 70, 50
2, 1279869, Note_off_c, 0, 70, 52
2, 1279871, Note_on_c, 0, 74, 52
2, 1279905, Control_c, 0, 64, 20
2, 1279985, Note_off_c, 0, 74, 53
2, 1279988, Note_on_c, 0, 82, 55
2, 1280101, Note_off_c, 0, 82, 53
2, 1280104, Note_off_c, 0, 67, 53
2, 1280107, Note_off_c, 0, 62, 52
2, 1280108, Note_off_c, 0, 55, 52
2, 1280111, Note_on_c, 0, 51, 58
2, 1280112, Note_on_c, 0, 79, 57
2, 1280183, Note_off_c, 0, 79, 54
2, 1280197, Control_c, 0, 64, 96
2, 1280203, Note_on_c, 0, 58, 60
2, 1280320, Note_on_c, 0, 63, 60
2, 1280437, Note_on_c, 0, 67, 64
2, 1280555, Note_off_c, 0, 67, 56
2, 1280556, Note_on_c, 0, 70, 67
2, 1280587, Control_c, 0, 64, 20
2, 1280671, Note_off_c, 0, 70, 57
2, 1280673, Note_on_c, 0, 79, 69
2, 1280771, Note_off_c, 0, 79, 57
2, 1280774, Note_off_c, 0, 58, 55
2, 1280777, Note_off_c, 0, 63, 55
2, 1280778, Note_off_c, 0, 51, 54
2, 1280779, Note_on_c, 0, 49, 60
2, 1280780, Note_on_c, 0, 76, 72
2, 1280851, Control_c, 0, 64, 96
2, 1280873, Note_off_c, 0, 76, 58
2, 1280889, Note_on_c, 0, 57, 58
2, 1281006, Note_on_c, 0, 61, 56
2, 1281123, Note_on_c, 0, 64, 69
2, 1281240, Note_off_c, 0, 64, 57
2, 1281242, Note_on_c, 0, 69, 68
2, 1281270, Control_c, 0, 64, 20
2, 1281356, Note_off_c, 0, 69, 57
2, 1281358, Note_on_c, 0, 76, 66
2, 1281459, Note_off_c, 0, 76, 56
2, 1281460, Note_off_c, 0, 57, 54
2, 1281461, Note_off_c, 0, 61, 54
2, 1281462, Note_off_c, 0, 49, 55
2, 1281463, Note_on_c, 0, 50, 48
2, 1281464, Note_on_c, 0, 77, 65
2, 1281534, Control_c, 0, 64, 96
2, 1281547, Note_off_c, 0, 77, 56
2, 1281575, Note_on_c, 0, 57, 46
2, 1281692, Note_on_c, 0, 62, 44
2, 1281809, Note_on_c, 0, 65, 60
2, 1281926, Note_off_c, 0, 65, 55
2, 1281928, Note_on_c, 0, 69, 59
2, 1281951, Control_c, 0, 64, 20
2, 1282042, Note_off_c, 0, 69, 54
2, 1282045, Note_on_c, 0, 77, 57
2, 1282143, Note_off_c, 0, 77, 54
2, 1282145, Note_off_c, 0, 57, 51
2, 1282148, Note_off_c, 0, 62, 51
2, 1282148, Note_off_c, 0, 50, 52
2, 1282150, Note_on_c, 0, 45, 36
2, 1282150, Note_on_c, 0, 74, 48
2, 1282215, Control_c, 0, 64, 96
2, 1282238, Note_off_c, 0, 74, 52
2, 1282259, Note_on_c, 0, 53, 36
2, 1282376, Note_on_c, 0, 57, 37
2, 1282493, Note_on_c, 0, 62, 51
2, 1282566, Control_c, 0, 64, 20
2, 1282610, Note_off_c, 0, 62, 52
2, 1282612, Note_on_c, 0, 69, 55
2, 1282650, Note_off_c, 0, 45, 49
2, 1282726, Note_off_c, 0, 69, 53
2, 1282729, Note_on_c, 0, 74, 58
2, 1282824, Note_off_c, 0, 74, 54
2, 1282827, Note_off_c, 0, 53, 49
2, 1282829, Note_off_c, 0, 57, 49
2, 1282832, Note_on_c, 0, 73, 62
2, 1282834, Note_on_c, 0, 45, 43
2, 1282918, Note_off_c, 0, 73, 55
2, 1282936, Control_c, 0, 64, 96
2, 1282941, Note_on_c, 0, 52, 45
2, 1283058, Note_on_c, 0, 55, 46
2, 1283175, Note_on_c, 0, 61, 73
2, 1283179, Note_on_c, 0, 57, 48
2, 1283294, Note_off_c, 0, 61, 58
2, 1283296, Note_on_c, 0, 69, 76
2, 1283394, Note_off_c, 0, 69, 59
2, 1283396, Note_on_c, 0, 73, 80
2, 1283404, Control_c, 0, 64, 20
2, 1283509, Note_off_c, 0, 73, 60
2, 1283513, Note_off_c, 0, 55, 51
2, 1283516, Note_off_c, 0, 52, 51
2, 1283518, Note_off_c, 0, 57, 52
2, 1283519, Note_off_c, 0, 45, 50
2, 1283520, Note_on_c, 0, 38, 60
2, 1283521, Note_on_c, 0, 74, 84
2, 1283607, Note_off_c, 0, 74, 61
2, 1283626, Note_off_c, 0, 38, 55
2, 1283630, Note_on_c, 0, 50, 60
2, 1283744, Note_off_c, 0, 50, 55
2, 1283747, Note_on_c, 0, 53, 56
2, 1283861, Note_off_c, 0, 53, 54
2, 1283863, Note_on_c, 0, 57, 52
2, 1283978, Note_off_c, 0, 57, 53
2, 1283980, Note_on_c, 0, 62, 48
2, 1283982, Note_on_c, 0, 65, 72
2, 1284078, Note_off_c, 0, 65, 58
2, 1284080, Note_on_c, 0, 69, 72
2, 1284195, Note_off_c, 0, 69, 58
2, 1284197, Note_off_c, 0, 62, 52
2, 1284200, Note_on_c, 0, 74, 72
2, 1284312, Note_off_c, 0, 74, 58
2, 1284314, Note_on_c, 0, 77, 70
2, 1284428, Note_off_c, 0, 77, 57
2, 1284432, Note_on_c, 0, 81, 68
2, 1284545, Note_off_c, 0, 81, 57
2, 1284548, Note_on_c, 0, 77, 65
2, 1284663, Note_off_c, 0, 77, 56
2, 1284666, Note_on_c, 0, 86, 63
2, 1284766, Note_off_c, 0, 86, 55
2, 1284767, Note_on_c, 0, 81, 60
2, 1284881, Note_off_c, 0, 81, 55
2, 1284884, Note_on_c, 0, 82, 48
2, 1284886, Note_on_c, 0, 55, 50
2, 1284943, Note_off_c, 0, 82, 52
2, 1284955, Control_c, 0, 64, 96
2, 1284999, Note_on_c, 0, 62, 53
2, 1285114, Note_on_c, 0, 67, 56
2, 1285234, Note_on_c, 0, 70, 52
2, 1285349, Note_on_c, 0, 74, 56
2, 1285355, Note_off_c, 0, 70, 53
2, 1285391, Control_c, 0, 64, 20
2, 1285449, Note_on_c, 0, 82, 60
2, 1285470, Note_off_c, 0, 74, 54
2, 1285566, Note_off_c, 0, 62, 53
2, 1285568, Note_off_c, 0, 67, 54
2, 1285570, Note_off_c, 0, 55, 52
2, 1285571, Note_on_c, 0, 79, 64
2, 1285573, Note_on_c, 0, 51, 66
2, 1285580, Note_off_c, 0, 82, 55
2, 1285634, Control_c, 0, 64, 96
2, 1285641, Note_off_c, 0, 79, 56
2, 1285683, Note_on_c, 0, 58, 69
2, 1285800, Note_on_c, 0, 63, 72
2, 1285917, Note_on_c, 0, 67, 76
2, 1286017, Note_on_c, 0, 70, 80
2, 1286026, Note_off_c, 0, 67, 59
2, 1286083, Control_c, 0, 64, 20
2, 1286135, Note_on_c, 0, 79, 84
2, 1286139, Note_off_c, 0, 70, 60
2, 1286250, Note_off_c, 0, 58, 57
2, 1286253, Note_off_c, 0, 63, 58
2, 1286254, Note_off_c, 0, 51, 56
2, 1286258, Note_on_c, 0, 49, 70
2, 1286258, Note_on_c, 0, 76, 84
2, 1286263, Note_off_c, 0, 79, 61
2, 1286339, Note_off_c, 0, 76, 61
2, 1286346, Control_c, 0, 64, 20
2, 1286368, Note_on_c, 0, 57, 67
2, 1286486, Note_on_c, 0, 61, 64
2, 1286603, Note_on_c, 0, 64, 75
2, 1286703, Note_on_c, 0, 69, 72
2, 1286715, Note_off_c, 0, 64, 59
2, 1286776, Control_c, 0, 64, 20
2, 1286820, Note_on_c, 0, 76, 69
2, 1286858, Note_off_c, 0, 69, 58
2, 1286937, Note_off_c, 0, 57, 57
2, 1286939, Note_off_c, 0, 49, 57
2, 1286941, Note_off_c, 0, 61, 56
2, 1286944, Note_on_c, 0, 50, 53
2, 1286945, Note_on_c, 0, 77, 66
2, 1286956, Note_off_c, 0, 76, 57
2, 1287014, Note_off_c, 0, 77, 56
2, 1287028, Control_c, 0, 64, 96
2, 1287054, Note_on_c, 0, 57, 50
2, 1287168, Note_on_c, 0, 62, 48
2, 1287284, Note_on_c, 0, 65, 57
2, 1287385, Note_on_c, 0, 69, 54
2, 1287406, Note_off_c, 0, 65, 54
2, 1287468, Control_c, 0, 64, 20
2, 1287504, Note_on_c, 0, 77, 51
2, 1287524, Note_off_c, 0, 69, 53
2, 1287621, Note_off_c, 0, 57, 52
2, 1287624, Note_off_c, 0, 50, 53
2, 1287626, Note_off_c, 0, 62, 52
2, 1287627, Note_on_c, 0, 45, 36
2, 1287628, Note_on_c, 0, 74, 48
2, 1287631, Note_off_c, 0, 77, 52
2, 1287671, Control_c, 0, 64, 96
2, 1287712, Note_off_c, 0, 74, 52
2, 1287738, Note_on_c, 0, 53, 36
2, 1287852, Note_on_c, 0, 57, 38
2, 1287969, Note_on_c, 0, 62, 51
2, 1288072, Note_on_c, 0, 69, 55
2, 1288099, Note_off_c, 0, 62, 52
2, 1288121, Control_c, 0, 64, 20
2, 1288135, Note_off_c, 0, 45, 49
2, 1288191, Note_on_c, 0, 74, 58
2, 1288214, Note_off_c, 0, 69, 53
2, 1288307, Note_off_c, 0, 57, 49
2, 1288310, Note_off_c, 0, 53, 49
2, 1288312, Note_on_c, 0, 45, 48
2, 1288314, Note_on_c, 0, 73, 62
2, 1288333, Note_off_c, 0, 74, 54
2, 1288364, Control_c, 0, 64, 96
2, 1288393, Note_off_c, 0, 73, 55
2, 1288422, Note_on_c, 0, 52, 51
2, 1288539, Note_on_c, 0, 55, 54
2, 1288656, Note_on_c, 0, 61, 73
2, 1288657, Note_on_c, 0, 57, 56
2, 1288773, Note_off_c, 0, 61, 58
2, 1288775, Note_on_c, 0, 69, 76
2, 1288852, Note_off_c, 0, 45, 52
2, 1288871, Control_c, 0, 64, 20
2, 1288889, Note_off_c, 0, 69, 59
2, 1288892, Note_on_c, 0, 73, 80
2, 1289007, Note_off_c, 0, 73, 60
2, 1289008, Note_off_c, 0, 52, 52
2, 1289011, Note_off_c, 0, 55, 53
2, 1289013, Note_off_c, 0, 57, 54
2, 1289015, Note_on_c, 0, 50, 72
2, 1289016, Note_on_c, 0, 74, 84
2, 1289091, Note_off_c, 0, 74, 61
2, 1289124, Note_off_c, 0, 50, 58
2, 1289125, Note_on_c, 0, 53, 64
2, 1289193, Note_on_c, 0, 69, 84
2, 1289242, Note_off_c, 0, 69, 61
2, 1289244, Note_off_c, 0, 53, 56
2, 1289245, Note_on_c, 0, 81, 96
2, 1289246, Note_on_c, 0, 57, 56
2, 1289375, Note_off_c, 0, 57, 54
2, 1289377, Note_on_c, 0, 62, 48
2, 1289491, Note_off_c, 0, 62, 52
2, 1289741, Note_off_c, 0, 81, 63
2, 1289744, Note_on_c, 0, 80, 72
2, 1289842, Note_on_c, 0, 79, 72
2, 1289866, Note_off_c, 0, 80, 58
2, 1289959, Note_on_c, 0, 78, 68
2, 1289996, Note_off_c, 0, 79, 58
2, 1290076, Note_on_c, 0, 77, 63
2, 1290092, Note_off_c, 0, 78, 57
2, 1290193, Note_on_c, 0, 76, 58
2, 1290220, Note_off_c, 0, 77, 55
2, 1290310, Note_on_c, 0, 75, 53
2, 1290361, Note_off_c, 0, 76, 54
2, 1290426, Note_on_c, 0, 74, 48
2, 1290428, Note_on_c, 0, 45, 36
2, 1290461, Note_off_c, 0, 75, 53
2, 1290497, Control_c, 0, 64, 98
2, 1290507, Note_off_c, 0, 74, 52
2, 1290527, Note_on_c, 0, 53, 36
2, 1290643, Note_on_c, 0, 57, 38
2, 1290761, Note_on_c, 0, 62, 51
2, 1290877, Note_on_c, 0, 69, 55
2, 1290888, Note_off_c, 0, 62, 52
2, 1290928, Control_c, 0, 64, 20
2, 1290989, Note_off_c, 0, 45, 49
2, 1290996, Note_on_c, 0, 74, 58
2, 1291005, Note_off_c, 0, 69, 53
2, 1291113, Note_off_c, 0, 53, 49
2, 1291115, Note_off_c, 0, 57, 49
2, 1291117, Note_on_c, 0, 73, 62
2, 1291119, Note_on_c, 0, 45, 48
2, 1291132, Note_off_c, 0, 74, 54
2, 1291189, Control_c, 0, 64, 99
2, 1291206, Note_off_c, 0, 73, 55
2, 1291211, Note_on_c, 0, 52, 51
2, 1291328, Note_on_c, 0, 55, 54
2, 1291444, Note_on_c, 0, 61, 73
2, 1291446, Note_on_c, 0, 57, 56
2, 1291563, Note_on_c, 0, 69, 76
2, 1291580, Note_off_c, 0, 61, 58
2, 1291650, Note_off_c, 0, 45, 52
2, 1291687, Control_c, 0, 64, 20
2, 1291697, Note_on_c, 0, 73, 80
2, 1291716, Note_off_c, 0, 69, 59
2, 1291813, Note_off_c, 0, 52, 52
2, 1291816, Note_off_c, 0, 55, 53
2, 1291819, Note_off_c, 0, 57, 54
2, 1291820, Note_on_c, 0, 50, 72
2, 1291822, Note_on_c, 0, 74, 84
2, 1291827, Note_off_c, 0, 73, 60
2, 1291913, Note_off_c, 0, 74, 61
2, 1291946, Note_off_c, 0, 50, 58
2, 1291948, Note_on_c, 0, 53, 64
2, 1291997, Note_on_c, 0, 69, 84
2, 1292063, Note_off_c, 0, 69, 61
2, 1292065, Note_off_c, 0, 53, 56
2, 1292067, Note_on_c, 0, 86, 96
2, 1292069, Note_on_c, 0, 57, 56
2, 1292196, Note_off_c, 0, 57, 54
2, 1292198, Note_on_c, 0, 62, 48
2, 1292313, Note_off_c, 0, 62, 52
2, 1292582, Note_off_c, 0, 86, 63
2, 1292584, Note_on_c, 0, 85, 72
2, 1292700, Note_on_c, 0, 84, 72
2, 1292726, Note_off_c, 0, 85, 58
2, 1292801, Note_on_c, 0, 83, 68
2, 1292815, Note_off_c, 0, 84, 58
2, 1292918, Note_on_c, 0, 82, 63
2, 1292922, Note_off_c, 0, 83, 57
2, 1293034, Note_on_c, 0, 81, 58
2, 1293053, Note_off_c, 0, 82, 55
2, 1293151, Note_on_c, 0, 80, 53
2, 1293172, Note_off_c, 0, 81, 54
2, 1293268, Note_on_c, 0, 81, 48
2, 1293270, Note_on_c, 0, 45, 36
2, 1293280, Note_off_c, 0, 80, 53
2, 1293347, Note_off_c, 0, 81, 52
2, 1293383, Note_on_c, 0, 53, 36
2, 1293393, Control_c, 0, 64, 96
2, 1293483, Note_on_c, 0, 57, 38
2, 1293599, Note_on_c, 0, 62, 51
2, 1293719, Note_on_c, 0, 69, 55
2, 1293735, Note_off_c, 0, 62, 52
2, 1293763, Control_c, 0, 64, 20
2, 1293815, Note_off_c, 0, 45, 49
2, 1293836, Note_on_c, 0, 74, 58
2, 1293848, Note_off_c, 0, 69, 53
2, 1293953, Note_off_c, 0, 53, 49
2, 1293955, Note_off_c, 0, 57, 49
2, 1293957, Note_on_c, 0, 73, 62
2, 1293959, Note_on_c, 0, 45, 48
2, 1293976, Note_off_c, 0, 74, 54
2, 1294031, Note_off_c, 0, 73, 55
2, 1294035, Control_c, 0, 64, 96
2, 1294051, Note_on_c, 0, 52, 51
2, 1294168, Note_on_c, 0, 55, 54
2, 1294302, Note_on_c, 0, 61, 73
2, 1294304, Note_on_c, 0, 57, 56
2, 1294421, Note_on_c, 0, 69, 76
2, 1294424, Note_off_c, 0, 61, 58
2, 1294543, Note_off_c, 0, 45, 52
2, 1294553, Note_on_c, 0, 73, 80
2, 1294571, Note_off_c, 0, 69, 59
2, 1294580, Control_c, 0, 64, 20
2, 1294687, Note_off_c, 0, 52, 52
2, 1294690, Note_off_c, 0, 57, 54
2, 1294691, Note_off_c, 0, 55, 53
2, 1294694, Note_on_c, 0, 50, 72
2, 1294696, Note_on_c, 0, 74, 84
2, 1294702, Note_off_c, 0, 73, 60
2, 1294798, Note_off_c, 0, 74, 61
2, 1294919, Note_on_c, 0, 74, 96
2, 1294996, Note_on_c, 0, 77, 90
2, 1294999, Note_off_c, 0, 74, 63
2, 1295001, Note_off_c, 0, 50, 58
2, 1295002, Note_on_c, 0, 89, 100
2, 1295148, Control_c, 0, 64, 89
2, 1295860, Note_on_c, 0, 76, 80
2, 1295862, Note_on_c, 0, 88, 92
2, 1295881, Note_off_c, 0, 89, 65
2, 1295918, Note_off_c, 0, 77, 62
2, 1296003, Note_on_c, 0, 87, 91
2, 1296005, Note_on_c, 0, 75, 79
2, 1296010, Note_off_c, 0, 88, 62
2, 1296014, Note_off_c, 0, 76, 60
2, 1296136, Note_on_c, 0, 74, 77
2, 1296137, Note_on_c, 0, 86, 89
2, 1296145, Note_off_c, 0, 75, 60
2, 1296148, Note_off_c, 0, 87, 62
2, 1296260, Note_off_c, 0, 74, 59
2, 1296262, Note_on_c, 0, 85, 88
2, 1296263, Note_on_c, 0, 73, 76
2, 1296288, Note_off_c, 0, 86, 62
2, 1296391, Note_on_c, 0, 84, 86
2, 1296392, Note_on_c, 0, 72, 74
2, 1296400, Control_c, 0, 64, 20
2, 1296404, Note_off_c, 0, 73, 59
2, 1296406, Note_off_c, 0, 85, 62
2, 1296531, Note_on_c, 0, 83, 88
2, 1296533, Note_on_c, 0, 71, 76
2, 1296534, Note_off_c, 0, 72, 59
2, 1296536, Note_off_c, 0, 84, 61
2, 1296619, Note_on_c, 0, 70, 75
2, 1296621, Note_on_c, 0, 82, 87
2, 1296627, Note_off_c, 0, 83, 62
2, 1296630, Note_off_c, 0, 71, 59
2, 1296694, Note_on_c, 0, 81, 86
2, 1296700, Note_on_c, 0, 69, 74
2, 1296705, Note_off_c, 0, 82, 61
2, 1296714, Note_off_c, 0, 70, 59
2, 1296794, Note_on_c, 0, 80, 85
2, 1296802, Note_off_c, 0, 81, 61
2, 1296804, Note_on_c, 0, 68, 73
2, 1296809, Note_off_c, 0, 69, 59
2, 1296881, Note_on_c, 0, 67, 72
2, 1296883, Note_on_c, 0, 79, 84
2, 1296886, Note_off_c, 0, 80, 61
2, 1296889, Note_off_c, 0, 68, 58
2, 1296979, Note_on_c, 0, 78, 83
2, 1296981, Note_on_c, 0, 66, 71
2, 1296983, Note_off_c, 0, 79, 61
2, 1296994, Note_off_c, 0, 67, 58
2, 1297058, Note_off_c, 0, 78, 61
2, 1297069, Note_off_c, 0, 66, 58
2, 1297072, Note_on_c, 0, 77, 82
2, 1297073, Note_on_c, 0, 65, 70
2, 1297149, Note_on_c, 0, 76, 81
2, 1297153, Note_on_c, 0, 64, 69
2, 1297158, Note_off_c, 0, 65, 57
2, 1297161, Note_off_c, 0, 77, 60
2, 1297214, Note_on_c, 0, 75, 80
2, 1297221, Note_on_c, 0, 63, 68
2, 1297223, Note_off_c, 0, 64, 57
2, 1297226, Note_off_c, 0, 76, 60
2, 1297280, Note_on_c, 0, 74, 80
2, 1297284, Note_off_c, 0, 75, 60
2, 1297287, Note_on_c, 0, 62, 68
2, 1297294, Note_off_c, 0, 63, 57
2, 1297348, Note_off_c, 0, 74, 60
2, 1297350, Note_on_c, 0, 69, 67
2, 1297352, Note_on_c, 0, 81, 79
2, 1297357, Note_off_c, 0, 62, 57
2, 1297434, Note_off_c, 0, 81, 60
2, 1297438, Note_off_c, 0, 69, 57
2, 1297932, Note_on_c, 0, 57, 60
2, 1297933, Note_on_c, 0, 69, 72
2, 1297992, Note_off_c, 0, 57, 55
2, 1298001, Note_off_c, 0, 69, 58
2, 1298148, Note_on_c, 0, 50, 36
2, 1298150, Note_on_c, 0, 74, 48
2, 1298214, Note_off_c, 0, 74, 52
2, 1298228, Control_c, 0, 67, 127
2, 1298265, Note_off_c, 0, 50, 49
2, 1298268, Note_on_c, 0, 57, 36
2, 1298287, Control_c, 0, 64, 96
2, 1298384, Note_on_c, 0, 62, 37
2, 1298501, Note_off_c, 0, 62, 49
2, 1298503, Note_on_c, 0, 69, 49
2, 1298504, Note_on_c, 0, 65, 39
2, 1298618, Note_off_c, 0, 65, 49
2, 1298620, Control_c, 0, 64, 20
2, 1298623, Note_on_c, 0, 77, 50
2, 1298629, Note_off_c, 0, 69, 52
2, 1298735, Note_on_c, 0, 74, 51
2, 1298745, Note_off_c, 0, 77, 52
2, 1298770, Note_off_c, 0, 57, 49
2, 1298834, Note_on_c, 0, 73, 52
2, 1298837, Note_on_c, 0, 45, 43
2, 1298841, Note_off_c, 0, 74, 52
2, 1298923, Note_off_c, 0, 73, 53
2, 1298949, Note_off_c, 0, 45, 50
2, 1298954, Note_on_c, 0, 57, 45
2, 1298988, Control_c, 0, 64, 96
2, 1299067, Note_on_c, 0, 61, 46
2, 1299184, Note_off_c, 0, 61, 51
2, 1299186, Note_on_c, 0, 69, 56
2, 1299187, Note_on_c, 0, 64, 48
2, 1299300, Note_off_c, 0, 64, 52
2, 1299302, Note_on_c, 0, 76, 57
2, 1299310, Note_off_c, 0, 69, 54
2, 1299377, Control_c, 0, 64, 20
2, 1299403, Note_on_c, 0, 73, 58
2, 1299405, Note_off_c, 0, 76, 54
2, 1299519, Note_off_c, 0, 57, 51
2, 1299521, Note_on_c, 0, 74, 60
2, 1299524, Note_on_c, 0, 50, 36
2, 1299527, Note_off_c, 0, 73, 54
2, 1299602, Note_off_c, 0, 74, 55
2, 1299635, Note_off_c, 0, 50, 49
2, 1299638, Note_on_c, 0, 57, 36
2, 1299681, Control_c, 0, 64, 96
2, 1299755, Note_on_c, 0, 62, 37
2, 1299872, Note_off_c, 0, 62, 49
2, 1299874, Note_on_c, 0, 81, 48
2, 1299875, Note_on_c, 0, 65, 39
2, 1299988, Note_off_c, 0, 65, 49
2, 1299991, Note_on_c, 0, 89, 48
2, 1299992, Note_off_c, 0, 81, 52
2, 1300060, Control_c, 0, 64, 20
2, 1300089, Note_off_c, 0, 89, 52
2, 1300091, Note_on_c, 0, 86, 49
2, 1300206, Note_off_c, 0, 57, 49
2, 1300209, Note_on_c, 0, 85, 51
2, 1300209, Note_on_c, 0, 45, 43
2, 1300222, Note_off_c, 0, 86, 52
2, 1300302, Note_off_c, 0, 85, 52
2, 1300319, Note_off_c, 0, 45, 50
2, 1300323, Note_on_c, 0, 57, 45
2, 1300341, Control_c, 0, 64, 96
2, 1300436, Note_on_c, 0, 61, 46
2, 1300552, Note_off_c, 0, 61, 51
2, 1300557, Note_on_c, 0, 81, 55
2, 1300558, Note_on_c, 0, 64, 48
2, 1300673, Note_off_c, 0, 64, 52
2, 1300675, Note_on_c, 0, 88, 57
2, 1300690, Note_off_c, 0, 81, 53
2, 1300704, Control_c, 0, 64, 20
2, 1300774, Note_on_c, 0, 85, 58
2, 1300783, Note_off_c, 0, 88, 54
2, 1300891, Note_off_c, 0, 57, 51
2, 1300893, Note_on_c, 0, 86, 60
2, 1300894, Note_on_c, 0, 50, 36
2, 1300898, Note_off_c, 0, 85, 54
2, 1300973, Note_off_c, 0, 86, 55
2, 1301004, Note_off_c, 0, 50, 49
2, 1301008, Note_on_c, 0, 57, 36
2, 1301025, Control_c, 0, 64, 96
2, 1301122, Note_on_c, 0, 62, 37
2, 1301239, Note_off_c, 0, 62, 49
2, 1301241, Note_on_c, 0, 69, 48
2, 1301243, Note_on_c, 0, 65, 39
2, 1301358, Note_off_c, 0, 65, 49
2, 1301360, Note_on_c, 0, 77, 48
2, 1301364, Control_c, 0, 64, 20
2, 1301367, Note_off_c, 0, 69, 52
2, 1301456, Note_on_c, 0, 74, 49
2, 1301460, Note_off_c, 0, 77, 52
2, 1301575, Note_off_c, 0, 57, 49
2, 1301576, Note_on_c, 0, 45, 43
2, 1301577, Note_on_c, 0, 73, 51
2, 1301590, Note_off_c, 0, 74, 52
2, 1301655, Note_off_c, 0, 73, 52
2, 1301689, Note_off_c, 0, 45, 50
2, 1301694, Note_on_c, 0, 57, 45
2, 1301717, Control_c, 0, 64, 96
2, 1301808, Note_on_c, 0, 61, 46
2, 1301925, Note_off_c, 0, 61, 51
2, 1301927, Note_on_c, 0, 69, 55
2, 1301929, Note_on_c, 0, 64, 48
2, 1302025, Note_off_c, 0, 64, 52
2, 1302027, Note_on_c, 0, 76, 57
2, 1302044, Note_off_c, 0, 69, 53
2, 1302125, Control_c, 0, 64, 20
2, 1302142, Note_on_c, 0, 73, 58
2, 1302175, Note_off_c, 0, 76, 54
2, 1302258, Note_off_c, 0, 57, 51
2, 1302261, Note_on_c, 0, 50, 36
2, 1302263, Note_on_c, 0, 74, 60
2, 1302289, Note_off_c, 0, 73, 54
2, 1302347, Note_off_c, 0, 74, 55
2, 1302375, Note_off_c, 0, 50, 49
2, 1302378, Note_on_c, 0, 57, 36
2, 1302417, Control_c, 0, 64, 96
2, 1302492, Note_on_c, 0, 62, 42
2, 1302609, Note_off_c, 0, 62, 50
2, 1302611, Note_on_c, 0, 81, 48
2, 1302613, Note_on_c, 0, 65, 48
2, 1302709, Note_off_c, 0, 65, 52
2, 1302712, Note_on_c, 0, 89, 48
2, 1302726, Note_off_c, 0, 81, 52
2, 1302827, Note_on_c, 0, 86, 54
2, 1302828, Control_c, 0, 64, 20
2, 1302840, Note_off_c, 0, 89, 52
2, 1302943, Note_off_c, 0, 57, 49
2, 1302946, Note_on_c, 0, 85, 60
2, 1302949, Note_on_c, 0, 45, 36
2, 1302964, Note_off_c, 0, 86, 53
2, 1303034, Note_off_c, 0, 85, 55
2, 1303060, Note_off_c, 0, 45, 49
2, 1303062, Note_on_c, 0, 57, 36
2, 1303111, Control_c, 0, 64, 96
2, 1303177, Note_on_c, 0, 61, 42
2, 1303294, Note_off_c, 0, 61, 50
2, 1303296, Note_on_c, 0, 81, 57
2, 1303298, Note_on_c, 0, 64, 48
2, 1303394, Note_off_c, 0, 64, 52
2, 1303396, Note_on_c, 0, 88, 54
2, 1303405, Note_off_c, 0, 81, 54
2, 1303470, Control_c, 0, 64, 20
2, 1303511, Note_on_c, 0, 85, 51
2, 1303520, Note_off_c, 0, 88, 53
2, 1303627, Note_off_c, 0, 57, 49
2, 1303629, Note_on_c, 0, 86, 48
2, 1303631, Note_on_c, 0, 50, 36
2, 1303641, Note_off_c, 0, 85, 52
2, 1303711, Note_off_c, 0, 86, 52
2, 1303743, Note_off_c, 0, 50, 49
2, 1303746, Note_on_c, 0, 57, 36
2, 1303793, Control_c, 0, 64, 96
2, 1303863, Note_on_c, 0, 62, 37
2, 1303980, Note_off_c, 0, 62, 49
2, 1303982, Note_on_c, 0, 65, 44
2, 1303984, Note_on_c, 0, 89, 49
2, 1304082, Note_off_c, 0, 65, 51
2, 1304085, Note_on_c, 0, 81, 51
2, 1304092, Note_off_c, 0, 89, 52
2, 1304172, Control_c, 0, 64, 20
2, 1304199, Note_on_c, 0, 86, 54
2, 1304209, Note_off_c, 0, 81, 52
2, 1304313, Note_off_c, 0, 57, 49
2, 1304316, Note_on_c, 0, 77, 57
2, 1304318, Note_on_c, 0, 50, 50
2, 1304323, Note_off_c, 0, 86, 53
2, 1304391, Note_off_c, 0, 77, 54
2, 1304428, Note_off_c, 0, 50, 52
2, 1304431, Note_on_c, 0, 57, 60
2, 1304465, Control_c, 0, 64, 96
2, 1304546, Note_on_c, 0, 62, 63
2, 1304646, Note_off_c, 0, 62, 55
2, 1304649, Note_on_c, 0, 65, 60
2, 1304651, Note_on_c, 0, 86, 66
2, 1304766, Note_off_c, 0, 65, 55
2, 1304768, Note_on_c, 0, 77, 68
2, 1304772, Note_off_c, 0, 86, 56
2, 1304884, Note_on_c, 0, 81, 71
2, 1304895, Note_off_c, 0, 77, 57
2, 1304902, Control_c, 0, 64, 97
2, 1304999, Note_off_c, 0, 57, 55
2, 1305001, Note_on_c, 0, 74, 74
2, 1305002, Note_on_c, 0, 50, 70
2, 1305017, Note_off_c, 0, 81, 58
2, 1305075, Note_off_c, 0, 74, 59
2, 1305112, Note_off_c, 0, 50, 57
2, 1305117, Note_on_c, 0, 57, 56
2, 1305136, Control_c, 0, 64, 96
2, 1305230, Note_on_c, 0, 62, 58
2, 1305332, Note_off_c, 0, 62, 54
2, 1305335, Note_on_c, 0, 81, 59
2, 1305337, Note_on_c, 0, 65, 58
2, 1305452, Note_off_c, 0, 65, 54
2, 1305454, Note_on_c, 0, 74, 59
2, 1305463, Note_off_c, 0, 81, 54
2, 1305547, Control_c, 0, 64, 20
2, 1305568, Note_on_c, 0, 77, 59
2, 1305589, Note_off_c, 0, 74, 54
2, 1305683, Note_off_c, 0, 57, 54
2, 1305685, Note_on_c, 0, 69, 59
2, 1305687, Note_on_c, 0, 50, 58
2, 1305690, Note_off_c, 0, 77, 54
2, 1305750, Note_off_c, 0, 69, 54
2, 1305799, Note_off_c, 0, 50, 54
2, 1305801, Note_on_c, 0, 57, 58
2, 1305828, Control_c, 0, 64, 96
2, 1305917, Note_on_c, 0, 62, 62
2, 1306019, Note_off_c, 0, 62, 55
2, 1306020, Note_on_c, 0, 77, 60
2, 1306021, Note_on_c, 0, 65, 60
2, 1306133, Note_off_c, 0, 65, 55
2, 1306138, Note_on_c, 0, 69, 58
2, 1306145, Note_off_c, 0, 77, 55
2, 1306252, Note_on_c, 0, 74, 54
2, 1306266, Note_off_c, 0, 69, 54
2, 1306277, Control_c, 0, 64, 20
2, 1306386, Note_off_c, 0, 57, 54
2, 1306388, Note_on_c, 0, 50, 48
2, 1306390, Note_on_c, 0, 65, 48
2, 1306404, Note_off_c, 0, 74, 53
2, 1306500, Note_off_c, 0, 65, 52
2, 1306502, Note_on_c, 0, 74, 48
2, 1306589, Control_c, 0, 64, 98
2, 1306634, Note_off_c, 0, 74, 52
2, 1306637, Note_off_c, 0, 50, 52
2, 1306640, Note_on_c, 0, 69, 45
2, 1306769, Note_off_c, 0, 69, 51
2, 1306771, Note_on_c, 0, 65, 42
2, 1306921, Note_off_c, 0, 65, 50
2, 1306922, Note_on_c, 0, 62, 39
2, 1307070, Note_off_c, 0, 62, 49
2, 1307072, Note_on_c, 0, 57, 36
2, 1307219, Note_off_c, 0, 57, 49
2, 1307224, Note_on_c, 0, 53, 47
2, 1307388, Note_off_c, 0, 53, 51
2, 1307389, Note_on_c, 0, 62, 45
2, 1307570, Note_off_c, 0, 62, 51
2, 1307574, Note_on_c, 0, 57, 43
2, 1307757, Note_off_c, 0, 57, 50
2, 1307757, Note_on_c, 0, 53, 42
2, 1307938, Note_off_c, 0, 53, 50
2, 1307941, Note_on_c, 0, 50, 40
2, 1308072, Note_off_c, 0, 50, 50
2, 1308073, Note_on_c, 0, 45, 39
2, 1308223, Note_off_c, 0, 45, 49
2, 1308225, Note_on_c, 0, 41, 38
2, 1308356, Note_off_c, 0, 41, 49
2, 1308398, Note_on_c, 0, 38, 22
2, 1308489, Control_c, 0, 64, 20
2, 1308702, Control_c, 0, 64, 96
2, 1313384, Note_off_c, 0, 38, 45
2, 1313555, Control_c, 0, 64, 0
2, 1314097, Control_c, 0, 67, 0
2, 1314097, End_track
3, 0, Start_track
3, 0, Title_t, "in d-minor, Op. 31, No. 2"
3, 0, Channel_prefix, 1
3, 0, End_track
4, 0, Start_track
4, 0, Title_t, "Sequence by Richard Carlson"
4, 0, Channel_prefix, 3
4, 0, End_track
5, 0, Start_track
5, 0, Title_t, "http://geocities.com/lionheart2251"
5, 0, Channel_prefix, 4
5, 0, End_track
6, 0, Start_track
6, 0, Title_t, "lionheart2251@yahoo.com"
6, 0, Channel_prefix, 5
6, 0, End_track
7, 0, Start_track
7, 0, Title_t, "Copyright  2003"
7, 0, Channel_prefix, 6
7, 0, End_track
0, 0, End_of_file
