0, 0, Header, 0, 1, 384
1, 0, Start_track
1, 0, Tempo, 512820
1, 0, Title_t, ""
1, 0, Note_on_c, 0, 64, 52
1, 470, Note_on_c, 0, 76, 68
1, 473, Note_on_c, 0, 61, 44
1, 482, Note_on_c, 0, 57, 44
1, 482, Note_on_c, 0, 69, 51
1, 500, Note_on_c, 0, 64, 0
1, 613, Control_c, 0, 64, 127
1, 739, Note_on_c, 0, 76, 0
1, 814, Note_on_c, 0, 69, 0
1, 1026, Note_on_c, 0, 68, 67
1, 1042, Note_on_c, 0, 59, 50
1, 1060, Note_on_c, 0, 61, 0
1, 1158, Note_on_c, 0, 68, 0
1, 1217, Note_on_c, 0, 61, 47
1, 1217, Note_on_c, 0, 59, 0
1, 1233, Note_on_c, 0, 69, 72
1, 1237, Note_on_c, 0, 76, 80
1, 1292, Control_c, 0, 64, 0
1, 1412, Control_c, 0, 64, 127
1, 1462, Note_on_c, 0, 76, 0
1, 1581, Note_on_c, 0, 76, 80
1, 1593, Note_on_c, 0, 73, 66
1, 1599, Note_on_c, 0, 64, 62
1, 1612, Note_on_c, 0, 69, 0
1, 1685, Note_on_c, 0, 73, 0
1, 1696, Note_on_c, 0, 76, 0
1, 1710, Note_on_c, 0, 57, 0
1, 1749, Note_on_c, 0, 61, 0
1, 1796, Note_on_c, 0, 64, 0
1, 1915, Note_on_c, 0, 71, 55
1, 1932, Control_c, 0, 64, 0
1, 1943, Note_on_c, 0, 57, 62
1, 1947, Note_on_c, 0, 62, 63
1, 1963, Note_on_c, 0, 76, 78
1, 2000, Note_on_c, 0, 71, 0
1, 2016, Note_on_c, 0, 78, 83
1, 2022, Control_c, 0, 64, 127
1, 2038, Note_on_c, 0, 76, 0
1, 2066, Note_on_c, 0, 76, 55
1, 2069, Note_on_c, 0, 78, 0
1, 2106, Note_on_c, 0, 76, 0
1, 2109, Note_on_c, 0, 78, 97
1, 2171, Note_on_c, 0, 76, 78
1, 2189, Note_on_c, 0, 78, 0
1, 2223, Note_on_c, 0, 75, 77
1, 2228, Note_on_c, 0, 76, 0
1, 2271, Note_on_c, 0, 76, 109
1, 2286, Note_on_c, 0, 75, 0
1, 2331, Note_on_c, 0, 78, 100
1, 2386, Note_on_c, 0, 76, 0
1, 2496, Note_on_c, 0, 80, 100
1, 2543, Note_on_c, 0, 78, 0
1, 2667, Note_on_c, 0, 80, 0
1, 2699, Note_on_c, 0, 81, 88
1, 2703, Note_on_c, 0, 61, 57
1, 2715, Note_on_c, 0, 69, 36
1, 2731, Note_on_c, 0, 62, 0
1, 2800, Control_c, 0, 64, 0
1, 3040, Control_c, 0, 64, 127
1, 3095, Note_on_c, 0, 76, 65
1, 3099, Note_on_c, 0, 81, 0
1, 3118, Note_on_c, 0, 57, 0
1, 3168, Note_on_c, 0, 61, 0
1, 3183, Note_on_c, 0, 76, 0
1, 3196, Note_on_c, 0, 69, 0
1, 3526, Note_on_c, 0, 76, 61
1, 3529, Note_on_c, 0, 68, 38
1, 3541, Note_on_c, 0, 59, 38
1, 3549, Note_on_c, 0, 57, 35
1, 3609, Control_c, 0, 64, 0
1, 3768, Control_c, 0, 64, 127
1, 3886, Note_on_c, 0, 71, 52
1, 3895, Note_on_c, 0, 62, 50
1, 3901, Note_on_c, 0, 76, 0
1, 3908, Note_on_c, 0, 68, 0
1, 3932, Note_on_c, 0, 71, 0
1, 4046, Note_on_c, 0, 59, 0
1, 4066, Note_on_c, 0, 57, 0
1, 4128, Note_on_c, 0, 62, 0
1, 4271, Note_on_c, 0, 76, 65
1, 4275, Note_on_c, 0, 68, 41
1, 4275, Note_on_c, 0, 57, 41
1, 4283, Note_on_c, 0, 59, 34
1, 4329, Control_c, 0, 64, 0
1, 4448, Control_c, 0, 64, 127
1, 4485, Note_on_c, 0, 76, 0
1, 4502, Note_on_c, 0, 68, 0
1, 4645, Note_on_c, 0, 62, 56
1, 4652, Note_on_c, 0, 76, 83
1, 4662, Note_on_c, 0, 71, 48
1, 4695, Note_on_c, 0, 71, 0
1, 4725, Note_on_c, 0, 76, 0
1, 4802, Note_on_c, 0, 57, 0
1, 4802, Note_on_c, 0, 59, 0
1, 5043, Note_on_c, 0, 62, 0
1, 5048, Note_on_c, 0, 61, 43
1, 5052, Note_on_c, 0, 69, 39
1, 5064, Note_on_c, 0, 76, 64
1, 5067, Note_on_c, 0, 57, 36
1, 5137, Control_c, 0, 64, 0
1, 5243, Note_on_c, 0, 75, 74
1, 5298, Note_on_c, 0, 76, 0
1, 5420, Note_on_c, 0, 76, 103
1, 5432, Note_on_c, 0, 69, 0
1, 5470, Note_on_c, 0, 75, 0
1, 5585, Note_on_c, 0, 78, 91
1, 5626, Note_on_c, 0, 76, 0
1, 5633, Note_on_c, 0, 57, 0
1, 5683, Note_on_c, 0, 61, 0
1, 5766, Note_on_c, 0, 76, 94
1, 5831, Note_on_c, 0, 78, 0
1, 5937, Note_on_c, 0, 74, 91
1, 5937, Note_on_c, 0, 76, 0
1, 5941, Note_on_c, 0, 66, 64
1, 6102, Note_on_c, 0, 73, 84
1, 6120, Note_on_c, 0, 64, 84
1, 6139, Note_on_c, 0, 74, 0
1, 6139, Note_on_c, 0, 66, 0
1, 6272, Note_on_c, 0, 62, 71
1, 6279, Note_on_c, 0, 71, 83
1, 6318, Note_on_c, 0, 64, 0
1, 6335, Note_on_c, 0, 73, 0
1, 6511, Note_on_c, 0, 61, 60
1, 6520, Note_on_c, 0, 76, 69
1, 6527, Note_on_c, 0, 69, 61
1, 6541, Note_on_c, 0, 57, 32
1, 6541, Note_on_c, 0, 71, 0
1, 6562, Note_on_c, 0, 62, 0
1, 6765, Control_c, 0, 64, 127
1, 7032, Note_on_c, 0, 68, 82
1, 7036, Note_on_c, 0, 59, 62
1, 7081, Note_on_c, 0, 61, 0
1, 7096, Note_on_c, 0, 69, 0
1, 7101, Note_on_c, 0, 76, 0
1, 7224, Note_on_c, 0, 59, 0
1, 7232, Note_on_c, 0, 76, 84
1, 7232, Note_on_c, 0, 61, 59
1, 7236, Note_on_c, 0, 69, 79
1, 7250, Note_on_c, 0, 68, 0
1, 7285, Control_c, 0, 64, 0
1, 7424, Control_c, 0, 64, 127
1, 7459, Note_on_c, 0, 76, 0
1, 7573, Note_on_c, 0, 76, 92
1, 7573, Note_on_c, 0, 73, 84
1, 7580, Note_on_c, 0, 64, 72
1, 7584, Note_on_c, 0, 69, 0
1, 7639, Note_on_c, 0, 61, 0
1, 7653, Note_on_c, 0, 73, 0
1, 7658, Note_on_c, 0, 76, 0
1, 7700, Note_on_c, 0, 61, 2
1, 7718, Note_on_c, 0, 57, 0
1, 7746, Note_on_c, 0, 61, 0
1, 7775, Note_on_c, 0, 64, 0
1, 7913, Note_on_c, 0, 71, 50
1, 7929, Note_on_c, 0, 57, 57
1, 7929, Note_on_c, 0, 62, 68
1, 7934, Control_c, 0, 64, 0
1, 7951, Note_on_c, 0, 76, 82
1, 7985, Note_on_c, 0, 71, 0
1, 8009, Note_on_c, 0, 78, 88
1, 8018, Note_on_c, 0, 76, 0
1, 8024, Control_c, 0, 64, 127
1, 8062, Note_on_c, 0, 76, 102
1, 8078, Note_on_c, 0, 78, 0
1, 8117, Note_on_c, 0, 76, 0
1, 8117, Note_on_c, 0, 78, 91
1, 8161, Note_on_c, 0, 76, 105
1, 8188, Note_on_c, 0, 78, 0
1, 8211, Note_on_c, 0, 75, 94
1, 8234, Note_on_c, 0, 76, 0
1, 8250, Note_on_c, 0, 76, 64
1, 8288, Note_on_c, 0, 75, 0
1, 8324, Note_on_c, 0, 78, 105
1, 8388, Note_on_c, 0, 76, 0
1, 8498, Note_on_c, 0, 80, 103
1, 8532, Note_on_c, 0, 78, 0
1, 8656, Note_on_c, 0, 80, 0
1, 8718, Note_on_c, 0, 81, 76
1, 8729, Note_on_c, 0, 61, 54
1, 8733, Note_on_c, 0, 69, 53
1, 8741, Note_on_c, 0, 62, 0
1, 8783, Control_c, 0, 64, 0
1, 9012, Control_c, 0, 64, 127
1, 9178, Note_on_c, 0, 57, 0
1, 9185, Note_on_c, 0, 76, 74
1, 9190, Note_on_c, 0, 81, 0
1, 9212, Note_on_c, 0, 61, 0
1, 9271, Note_on_c, 0, 76, 0
1, 9296, Note_on_c, 0, 69, 0
1, 9551, Note_on_c, 0, 76, 59
1, 9551, Note_on_c, 0, 68, 35
1, 9556, Note_on_c, 0, 57, 35
1, 9559, Note_on_c, 0, 59, 36
1, 9612, Control_c, 0, 64, 0
1, 9771, Control_c, 0, 64, 127
1, 9923, Note_on_c, 0, 71, 46
1, 9927, Note_on_c, 0, 76, 0
1, 9927, Note_on_c, 0, 68, 0
1, 9931, Note_on_c, 0, 62, 42
1, 9954, Note_on_c, 0, 71, 0
1, 9978, Note_on_c, 0, 59, 0
1, 10006, Note_on_c, 0, 62, 0
1, 10091, Note_on_c, 0, 57, 0
1, 10294, Note_on_c, 0, 68, 45
1, 10294, Note_on_c, 0, 59, 49
1, 10294, Note_on_c, 0, 76, 64
1, 10297, Note_on_c, 0, 57, 42
1, 10331, Control_c, 0, 64, 0
1, 10461, Control_c, 0, 64, 127
1, 10480, Note_on_c, 0, 76, 0
1, 10489, Note_on_c, 0, 68, 0
1, 10671, Note_on_c, 0, 76, 71
1, 10671, Note_on_c, 0, 62, 43
1, 10687, Note_on_c, 0, 71, 31
1, 10700, Control_c, 0, 64, 0
1, 10800, Note_on_c, 0, 76, 0
1, 10800, Control_c, 0, 64, 127
1, 10817, Note_on_c, 0, 71, 0
1, 10833, Note_on_c, 0, 59, 0
1, 10837, Note_on_c, 0, 57, 0
1, 10868, Note_on_c, 0, 62, 0
1, 11100, Note_on_c, 0, 69, 45
1, 11108, Note_on_c, 0, 61, 32
1, 11122, Note_on_c, 0, 57, 25
1, 11139, Control_c, 0, 64, 0
1, 11280, Control_c, 0, 64, 127
1, 11422, Note_on_c, 0, 69, 0
1, 11422, Note_on_c, 0, 57, 0
1, 11476, Note_on_c, 0, 61, 0
1, 11818, Control_c, 0, 64, 0
1, 12462, Note_on_c, 0, 64, 42
1, 12717, Control_c, 0, 64, 127
1, 12926, Note_on_c, 0, 76, 57
1, 12932, Note_on_c, 0, 57, 33
1, 12935, Note_on_c, 0, 64, 0
1, 12935, Note_on_c, 0, 61, 34
1, 12955, Note_on_c, 0, 69, 31
1, 12998, Control_c, 0, 64, 0
1, 13118, Control_c, 0, 64, 127
1, 13170, Note_on_c, 0, 76, 0
1, 13235, Note_on_c, 0, 69, 0
1, 13496, Note_on_c, 0, 68, 59
1, 13503, Note_on_c, 0, 59, 47
1, 13517, Note_on_c, 0, 61, 0
1, 13618, Note_on_c, 0, 68, 0
1, 13689, Note_on_c, 0, 59, 0
1, 13692, Note_on_c, 0, 61, 57
1, 13708, Note_on_c, 0, 69, 54
1, 13708, Note_on_c, 0, 76, 67
1, 13745, Control_c, 0, 64, 0
1, 13886, Control_c, 0, 64, 127
1, 13905, Note_on_c, 0, 76, 0
1, 14050, Note_on_c, 0, 76, 88
1, 14050, Note_on_c, 0, 73, 72
1, 14054, Note_on_c, 0, 64, 67
1, 14082, Note_on_c, 0, 69, 0
1, 14176, Note_on_c, 0, 57, 0
1, 14180, Note_on_c, 0, 76, 0
1, 14191, Note_on_c, 0, 73, 0
1, 14206, Note_on_c, 0, 61, 0
1, 14229, Note_on_c, 0, 64, 0
1, 14376, Note_on_c, 0, 71, 59
1, 14385, Control_c, 0, 64, 0
1, 14401, Note_on_c, 0, 62, 64
1, 14401, Note_on_c, 0, 57, 65
1, 14429, Note_on_c, 0, 76, 87
1, 14477, Note_on_c, 0, 71, 0
1, 14482, Note_on_c, 0, 78, 87
1, 14486, Control_c, 0, 64, 127
1, 14497, Note_on_c, 0, 76, 0
1, 14541, Note_on_c, 0, 76, 80
1, 14544, Note_on_c, 0, 78, 0
1, 14570, Note_on_c, 0, 76, 0
1, 14581, Note_on_c, 0, 78, 97
1, 14625, Note_on_c, 0, 76, 93
1, 14650, Note_on_c, 0, 78, 0
1, 14683, Note_on_c, 0, 76, 0
1, 14683, Note_on_c, 0, 75, 85
1, 14725, Note_on_c, 0, 76, 107
1, 14759, Note_on_c, 0, 75, 0
1, 14795, Note_on_c, 0, 78, 98
1, 14882, Note_on_c, 0, 76, 0
1, 14968, Note_on_c, 0, 80, 98
1, 15007, Note_on_c, 0, 78, 0
1, 15169, Note_on_c, 0, 80, 0
1, 15172, Note_on_c, 0, 61, 48
1, 15172, Note_on_c, 0, 81, 83
1, 15195, Note_on_c, 0, 69, 56
1, 15199, Note_on_c, 0, 62, 0
1, 15265, Control_c, 0, 64, 0
1, 15464, Control_c, 0, 64, 127
1, 15515, Note_on_c, 0, 57, 0
1, 15614, Note_on_c, 0, 81, 0
1, 15618, Note_on_c, 0, 76, 63
1, 15723, Note_on_c, 0, 69, 0
1, 15744, Note_on_c, 0, 76, 0
1, 15801, Note_on_c, 0, 61, 0
1, 16014, Note_on_c, 0, 76, 57
1, 16023, Note_on_c, 0, 59, 43
1, 16023, Note_on_c, 0, 68, 34
1, 16028, Note_on_c, 0, 57, 36
1, 16084, Control_c, 0, 64, 0
1, 16252, Control_c, 0, 64, 127
1, 16384, Note_on_c, 0, 71, 58
1, 16397, Note_on_c, 0, 76, 0
1, 16397, Note_on_c, 0, 62, 45
1, 16412, Note_on_c, 0, 68, 0
1, 16459, Note_on_c, 0, 71, 0
1, 16482, Note_on_c, 0, 59, 0
1, 16553, Note_on_c, 0, 62, 0
1, 16568, Note_on_c, 0, 57, 0
1, 16744, Note_on_c, 0, 68, 53
1, 16744, Note_on_c, 0, 76, 69
1, 16755, Note_on_c, 0, 57, 44
1, 16759, Note_on_c, 0, 59, 35
1, 16784, Control_c, 0, 64, 0
1, 16932, Control_c, 0, 64, 127
1, 16944, Note_on_c, 0, 76, 0
1, 16972, Note_on_c, 0, 68, 0
1, 17103, Note_on_c, 0, 76, 87
1, 17109, Note_on_c, 0, 62, 50
1, 17112, Note_on_c, 0, 71, 50
1, 17145, Note_on_c, 0, 71, 0
1, 17183, Note_on_c, 0, 59, 0
1, 17194, Note_on_c, 0, 76, 0
1, 17227, Note_on_c, 0, 57, 0
1, 17349, Note_on_c, 0, 62, 0
1, 17452, Note_on_c, 0, 69, 58
1, 17468, Note_on_c, 0, 61, 47
1, 17468, Note_on_c, 0, 76, 72
1, 17474, Note_on_c, 0, 57, 47
1, 17493, Control_c, 0, 64, 0
1, 17638, Note_on_c, 0, 75, 83
1, 17708, Note_on_c, 0, 76, 0
1, 17810, Note_on_c, 0, 76, 98
1, 17832, Note_on_c, 0, 69, 0
1, 17878, Note_on_c, 0, 75, 0
1, 17953, Note_on_c, 0, 57, 0
1, 17974, Note_on_c, 0, 78, 82
1, 18000, Note_on_c, 0, 61, 0
1, 18010, Note_on_c, 0, 76, 0
1, 18148, Note_on_c, 0, 76, 83
1, 18195, Note_on_c, 0, 78, 0
1, 18308, Note_on_c, 0, 66, 59
1, 18316, Note_on_c, 0, 76, 0
1, 18316, Note_on_c, 0, 74, 80
1, 18471, Note_on_c, 0, 73, 77
1, 18485, Note_on_c, 0, 64, 79
1, 18488, Note_on_c, 0, 66, 0
1, 18491, Note_on_c, 0, 74, 0
1, 18644, Note_on_c, 0, 71, 81
1, 18649, Note_on_c, 0, 62, 76
1, 18695, Note_on_c, 0, 73, 0
1, 18698, Note_on_c, 0, 64, 0
1, 18860, Note_on_c, 0, 61, 50
1, 18866, Note_on_c, 0, 76, 68
1, 18869, Note_on_c, 0, 69, 57
1, 18869, Note_on_c, 0, 57, 42
1, 18877, Note_on_c, 0, 71, 0
1, 18893, Note_on_c, 0, 62, 0
1, 19089, Control_c, 0, 64, 127
1, 19400, Note_on_c, 0, 59, 54
1, 19400, Note_on_c, 0, 68, 72
1, 19430, Note_on_c, 0, 61, 0
1, 19449, Note_on_c, 0, 76, 0
1, 19454, Note_on_c, 0, 69, 0
1, 19523, Note_on_c, 0, 68, 0
1, 19554, Note_on_c, 0, 59, 0
1, 19609, Note_on_c, 0, 76, 80
1, 19609, Note_on_c, 0, 61, 49
1, 19618, Note_on_c, 0, 69, 67
1, 19649, Control_c, 0, 64, 0
1, 19789, Control_c, 0, 64, 127
1, 19833, Note_on_c, 0, 76, 0
1, 19974, Note_on_c, 0, 76, 91
1, 19974, Note_on_c, 0, 64, 73
1, 19974, Note_on_c, 0, 73, 74
1, 19978, Control_c, 0, 64, 0
1, 20003, Note_on_c, 0, 69, 0
1, 20088, Control_c, 0, 64, 127
1, 20141, Note_on_c, 0, 76, 0
1, 20149, Note_on_c, 0, 73, 0
1, 20154, Note_on_c, 0, 57, 0
1, 20166, Note_on_c, 0, 61, 0
1, 20209, Note_on_c, 0, 64, 0
1, 20322, Note_on_c, 0, 71, 70
1, 20338, Control_c, 0, 64, 0
1, 20341, Note_on_c, 0, 62, 75
1, 20341, Note_on_c, 0, 57, 76
1, 20360, Note_on_c, 0, 76, 91
1, 20396, Note_on_c, 0, 71, 0
1, 20418, Note_on_c, 0, 78, 90
1, 20434, Note_on_c, 0, 76, 0
1, 20438, Control_c, 0, 64, 127
1, 20463, Note_on_c, 0, 76, 69
1, 20480, Note_on_c, 0, 78, 0
1, 20500, Note_on_c, 0, 76, 0
1, 20520, Note_on_c, 0, 78, 90
1, 20555, Note_on_c, 0, 76, 98
1, 20592, Note_on_c, 0, 78, 0
1, 20619, Note_on_c, 0, 75, 89
1, 20627, Note_on_c, 0, 76, 0
1, 20659, Note_on_c, 0, 76, 96
1, 20693, Note_on_c, 0, 75, 0
1, 20723, Note_on_c, 0, 78, 99
1, 20783, Note_on_c, 0, 76, 0
1, 20893, Note_on_c, 0, 80, 101
1, 20934, Note_on_c, 0, 78, 0
1, 21036, Note_on_c, 0, 80, 0
1, 21096, Note_on_c, 0, 81, 80
1, 21106, Note_on_c, 0, 61, 46
1, 21112, Note_on_c, 0, 69, 59
1, 21141, Note_on_c, 0, 62, 0
1, 21167, Control_c, 0, 64, 0
1, 21377, Control_c, 0, 64, 127
1, 21533, Note_on_c, 0, 81, 0
1, 21533, Note_on_c, 0, 76, 55
1, 21553, Note_on_c, 0, 57, 0
1, 21588, Note_on_c, 0, 61, 0
1, 21621, Note_on_c, 0, 69, 0
1, 21674, Note_on_c, 0, 76, 0
1, 21929, Note_on_c, 0, 76, 63
1, 21936, Note_on_c, 0, 68, 38
1, 21950, Note_on_c, 0, 57, 40
1, 21953, Note_on_c, 0, 59, 36
1, 21995, Control_c, 0, 64, 0
1, 22146, Control_c, 0, 64, 127
1, 22299, Note_on_c, 0, 71, 59
1, 22310, Note_on_c, 0, 62, 48
1, 22327, Note_on_c, 0, 76, 0
1, 22344, Note_on_c, 0, 68, 0
1, 22379, Note_on_c, 0, 57, 0
1, 22393, Note_on_c, 0, 59, 0
1, 22393, Note_on_c, 0, 71, 0
1, 22400, Note_on_c, 0, 62, 0
1, 22655, Note_on_c, 0, 68, 45
1, 22655, Note_on_c, 0, 76, 66
1, 22669, Note_on_c, 0, 59, 36
1, 22672, Note_on_c, 0, 57, 41
1, 22684, Control_c, 0, 64, 0
1, 22805, Control_c, 0, 64, 127
1, 22818, Note_on_c, 0, 76, 0
1, 22836, Note_on_c, 0, 68, 0
1, 23035, Note_on_c, 0, 71, 44
1, 23040, Note_on_c, 0, 76, 59
1, 23057, Note_on_c, 0, 62, 48
1, 23075, Control_c, 0, 64, 0
1, 23173, Note_on_c, 0, 59, 0
1, 23184, Control_c, 0, 64, 127
1, 23211, Note_on_c, 0, 76, 0
1, 23239, Note_on_c, 0, 71, 0
1, 23253, Note_on_c, 0, 57, 0
1, 23350, Note_on_c, 0, 62, 0
1, 23463, Note_on_c, 0, 61, 35
1, 23467, Note_on_c, 0, 69, 38
1, 23474, Note_on_c, 0, 57, 26
1, 23534, Control_c, 0, 64, 0
1, 23683, Control_c, 0, 64, 127
1, 23772, Note_on_c, 0, 69, 0
1, 23783, Note_on_c, 0, 61, 0
1, 23783, Note_on_c, 0, 57, 0
1, 24203, Control_c, 0, 64, 0
1, 24765, Note_on_c, 0, 76, 91
1, 25236, Note_on_c, 0, 59, 50
1, 25236, Note_on_c, 0, 74, 84
1, 25240, Note_on_c, 0, 68, 50
1, 25250, Note_on_c, 0, 52, 45
1, 25263, Note_on_c, 0, 76, 0
1, 25561, Control_c, 0, 64, 127
1, 25782, Note_on_c, 0, 61, 70
1, 25791, Note_on_c, 0, 76, 96
1, 25835, Note_on_c, 0, 74, 0
1, 25838, Note_on_c, 0, 59, 0
1, 25984, Note_on_c, 0, 59, 67
1, 25984, Note_on_c, 0, 74, 96
1, 26003, Note_on_c, 0, 61, 0
1, 26016, Note_on_c, 0, 76, 0
1, 26031, Control_c, 0, 64, 0
1, 26171, Control_c, 0, 64, 127
1, 26229, Note_on_c, 0, 68, 0
1, 26341, Note_on_c, 0, 73, 94
1, 26349, Note_on_c, 0, 57, 79
1, 26349, Note_on_c, 0, 69, 75
1, 26371, Control_c, 0, 64, 0
1, 26401, Note_on_c, 0, 59, 0
1, 26467, Note_on_c, 0, 74, 0
1, 26490, Control_c, 0, 64, 127
1, 26527, Note_on_c, 0, 52, 0
1, 26541, Note_on_c, 0, 69, 0
1, 26739, Note_on_c, 0, 73, 0
1, 26770, Note_on_c, 0, 62, 57
1, 26770, Note_on_c, 0, 68, 59
1, 26770, Note_on_c, 0, 71, 70
1, 26779, Note_on_c, 0, 57, 0
1, 26779, Note_on_c, 0, 52, 64
1, 26829, Control_c, 0, 64, 0
1, 26999, Control_c, 0, 64, 127
1, 27158, Note_on_c, 0, 62, 0
1, 27289, Note_on_c, 0, 73, 78
1, 27292, Note_on_c, 0, 71, 0
1, 27303, Note_on_c, 0, 64, 63
1, 27364, Note_on_c, 0, 68, 0
1, 27386, Note_on_c, 0, 64, 0
1, 27490, Note_on_c, 0, 62, 59
1, 27499, Note_on_c, 0, 71, 65
1, 27527, Note_on_c, 0, 73, 0
1, 27539, Control_c, 0, 64, 0
1, 27679, Control_c, 0, 64, 127
1, 27849, Control_c, 0, 64, 0
1, 27852, Note_on_c, 0, 61, 57
1, 27863, Note_on_c, 0, 69, 76
1, 27867, Note_on_c, 0, 64, 39
1, 27879, Note_on_c, 0, 62, 0
1, 27968, Control_c, 0, 64, 127
1, 28010, Note_on_c, 0, 64, 0
1, 28019, Note_on_c, 0, 71, 0
1, 28034, Note_on_c, 0, 52, 0
1, 28044, Note_on_c, 0, 61, 0
1, 28044, Note_on_c, 0, 69, 0
1, 28329, Note_on_c, 0, 76, 98
1, 28335, Note_on_c, 0, 59, 55
1, 28340, Note_on_c, 0, 68, 62
1, 28348, Control_c, 0, 64, 0
1, 28351, Note_on_c, 0, 52, 51
1, 28487, Control_c, 0, 64, 127
1, 28528, Note_on_c, 0, 74, 97
1, 28569, Note_on_c, 0, 68, 0
1, 28575, Note_on_c, 0, 76, 0
1, 28725, Note_on_c, 0, 73, 77
1, 28736, Control_c, 0, 64, 0
1, 28740, Note_on_c, 0, 69, 65
1, 28748, Note_on_c, 0, 57, 50
1, 28748, Note_on_c, 0, 74, 0
1, 28778, Note_on_c, 0, 59, 0
1, 28887, Control_c, 0, 64, 127
1, 28900, Note_on_c, 0, 69, 0
1, 28907, Note_on_c, 0, 73, 0
1, 28955, Note_on_c, 0, 52, 0
1, 28967, Note_on_c, 0, 57, 0
1, 29078, Note_on_c, 0, 76, 101
1, 29081, Note_on_c, 0, 68, 76
1, 29090, Note_on_c, 0, 52, 63
1, 29094, Note_on_c, 0, 59, 60
1, 29117, Control_c, 0, 64, 0
1, 29246, Control_c, 0, 64, 127
1, 29267, Note_on_c, 0, 74, 96
1, 29314, Note_on_c, 0, 76, 0
1, 29330, Note_on_c, 0, 68, 0
1, 29461, Note_on_c, 0, 73, 74
1, 29467, Note_on_c, 0, 59, 0
1, 29467, Note_on_c, 0, 57, 58
1, 29471, Note_on_c, 0, 74, 0
1, 29476, Note_on_c, 0, 69, 53
1, 29487, Control_c, 0, 64, 0
1, 29626, Control_c, 0, 64, 127
1, 29633, Note_on_c, 0, 52, 0
1, 29642, Note_on_c, 0, 57, 0
1, 29642, Note_on_c, 0, 69, 0
1, 29650, Note_on_c, 0, 73, 0
1, 29785, Control_c, 0, 64, 0
1, 29835, Note_on_c, 0, 71, 67
1, 29835, Note_on_c, 0, 68, 56
1, 29842, Note_on_c, 0, 64, 60
1, 29842, Note_on_c, 0, 52, 43
1, 29885, Control_c, 0, 64, 127
1, 29910, Note_on_c, 0, 52, 0
1, 30038, Note_on_c, 0, 63, 69
1, 30068, Note_on_c, 0, 64, 0
1, 30105, Control_c, 0, 64, 0
1, 30224, Note_on_c, 0, 64, 88
1, 30253, Note_on_c, 0, 63, 0
1, 30390, Note_on_c, 0, 66, 84
1, 30416, Note_on_c, 0, 64, 0
1, 30457, Note_on_c, 0, 68, 0
1, 30496, Control_c, 0, 64, 127
1, 30554, Note_on_c, 0, 71, 0
1, 30565, Note_on_c, 0, 64, 97
1, 30571, Note_on_c, 0, 66, 0
1, 30628, Note_on_c, 0, 64, 0
1, 30730, Note_on_c, 0, 62, 78
1, 30739, Note_on_c, 0, 64, 100
1, 30784, Control_c, 0, 64, 0
1, 30908, Note_on_c, 0, 66, 88
1, 30920, Note_on_c, 0, 61, 70
1, 30968, Note_on_c, 0, 62, 0
1, 31001, Note_on_c, 0, 64, 0
1, 31091, Note_on_c, 0, 59, 70
1, 31094, Note_on_c, 0, 68, 79
1, 31111, Note_on_c, 0, 61, 0
1, 31134, Control_c, 0, 64, 127
1, 31167, Note_on_c, 0, 66, 0
1, 31198, Note_on_c, 0, 59, 0
1, 31198, Note_on_c, 0, 68, 0
1, 31377, Note_on_c, 0, 76, 56
1, 31384, Note_on_c, 0, 61, 43
1, 31390, Note_on_c, 0, 69, 43
1, 31394, Note_on_c, 0, 57, 42
1, 31434, Control_c, 0, 64, 0
1, 31733, Control_c, 0, 64, 127
1, 31912, Note_on_c, 0, 68, 56
1, 31912, Note_on_c, 0, 62, 47
1, 31935, Note_on_c, 0, 61, 0
1, 31944, Note_on_c, 0, 69, 0
1, 31982, Note_on_c, 0, 76, 0
1, 32001, Note_on_c, 0, 68, 0
1, 32060, Note_on_c, 0, 62, 0
1, 32126, Note_on_c, 0, 69, 62
1, 32129, Note_on_c, 0, 61, 53
1, 32129, Note_on_c, 0, 76, 67
1, 32163, Control_c, 0, 64, 0
1, 32313, Control_c, 0, 64, 127
1, 32326, Note_on_c, 0, 76, 0
1, 32396, Note_on_c, 0, 69, 0
1, 32484, Note_on_c, 0, 76, 81
1, 32487, Note_on_c, 0, 64, 60
1, 32497, Note_on_c, 0, 73, 62
1, 32503, Control_c, 0, 64, 0
1, 32582, Control_c, 0, 64, 127
1, 32621, Note_on_c, 0, 76, 0
1, 32621, Note_on_c, 0, 73, 0
1, 32636, Note_on_c, 0, 57, 0
1, 32649, Note_on_c, 0, 61, 0
1, 32692, Note_on_c, 0, 64, 0
1, 32823, Note_on_c, 0, 71, 62
1, 32831, Control_c, 0, 64, 0
1, 32841, Note_on_c, 0, 57, 62
1, 32844, Note_on_c, 0, 62, 69
1, 32862, Note_on_c, 0, 76, 87
1, 32909, Note_on_c, 0, 71, 0
1, 32919, Note_on_c, 0, 78, 92
1, 32933, Control_c, 0, 64, 127
1, 32933, Note_on_c, 0, 76, 0
1, 32982, Note_on_c, 0, 78, 0
1, 32982, Note_on_c, 0, 76, 97
1, 33012, Note_on_c, 0, 76, 0
1, 33017, Note_on_c, 0, 78, 95
1, 33066, Note_on_c, 0, 76, 95
1, 33096, Note_on_c, 0, 78, 0
1, 33126, Note_on_c, 0, 76, 0
1, 33130, Note_on_c, 0, 75, 88
1, 33170, Note_on_c, 0, 76, 108
1, 33202, Note_on_c, 0, 75, 0
1, 33238, Note_on_c, 0, 78, 100
1, 33308, Note_on_c, 0, 76, 0
1, 33418, Note_on_c, 0, 80, 101
1, 33459, Note_on_c, 0, 78, 0
1, 33547, Note_on_c, 0, 80, 0
1, 33611, Note_on_c, 0, 81, 79
1, 33621, Note_on_c, 0, 61, 52
1, 33624, Note_on_c, 0, 69, 64
1, 33633, Note_on_c, 0, 62, 0
1, 33671, Control_c, 0, 64, 0
1, 33850, Control_c, 0, 64, 127
1, 33979, Note_on_c, 0, 57, 0
1, 34013, Note_on_c, 0, 76, 82
1, 34022, Note_on_c, 0, 81, 0
1, 34035, Note_on_c, 0, 61, 0
1, 34082, Note_on_c, 0, 69, 0
1, 34095, Note_on_c, 0, 76, 0
1, 34348, Note_on_c, 0, 76, 68
1, 34348, Note_on_c, 0, 57, 43
1, 34355, Note_on_c, 0, 68, 42
1, 34355, Note_on_c, 0, 59, 46
1, 34419, Control_c, 0, 64, 0
1, 34590, Control_c, 0, 64, 127
1, 34728, Note_on_c, 0, 71, 49
1, 34728, Note_on_c, 0, 62, 42
1, 34735, Note_on_c, 0, 76, 0
1, 34741, Note_on_c, 0, 68, 0
1, 34806, Note_on_c, 0, 71, 0
1, 34820, Note_on_c, 0, 62, 0
1, 34820, Note_on_c, 0, 59, 0
1, 34826, Note_on_c, 0, 57, 0
1, 35096, Note_on_c, 0, 68, 42
1, 35109, Note_on_c, 0, 76, 51
1, 35113, Note_on_c, 0, 57, 41
1, 35113, Note_on_c, 0, 59, 37
1, 35119, Control_c, 0, 64, 0
1, 35269, Control_c, 0, 64, 127
1, 35278, Note_on_c, 0, 76, 0
1, 35326, Note_on_c, 0, 68, 0
1, 35483, Note_on_c, 0, 76, 65
1, 35486, Note_on_c, 0, 62, 40
1, 35490, Note_on_c, 0, 71, 37
1, 35507, Control_c, 0, 64, 0
1, 35624, Note_on_c, 0, 76, 0
1, 35637, Note_on_c, 0, 59, 0
1, 35637, Control_c, 0, 64, 127
1, 35651, Note_on_c, 0, 57, 0
1, 35654, Note_on_c, 0, 71, 0
1, 35713, Note_on_c, 0, 62, 0
1, 35925, Note_on_c, 0, 69, 45
1, 35925, Note_on_c, 0, 61, 34
1, 35943, Note_on_c, 0, 57, 25
1, 35979, Control_c, 0, 64, 0
1, 36118, Control_c, 0, 64, 127
1, 36262, Note_on_c, 0, 57, 0
1, 36291, Note_on_c, 0, 69, 0
1, 36291, Note_on_c, 0, 61, 0
1, 36606, Control_c, 0, 64, 0
1, 37165, Note_on_c, 0, 76, 56
1, 37574, Note_on_c, 0, 76, 0
1, 37574, Note_on_c, 0, 59, 38
1, 37581, Note_on_c, 0, 52, 50
1, 37587, Note_on_c, 0, 74, 59
1, 37593, Note_on_c, 0, 68, 30
1, 37786, Control_c, 0, 64, 127
1, 38088, Note_on_c, 0, 61, 44
1, 38088, Note_on_c, 0, 74, 0
1, 38114, Note_on_c, 0, 76, 70
1, 38130, Note_on_c, 0, 59, 0
1, 38276, Note_on_c, 0, 68, 0
1, 38296, Note_on_c, 0, 59, 57
1, 38305, Note_on_c, 0, 61, 0
1, 38313, Note_on_c, 0, 74, 64
1, 38325, Note_on_c, 0, 76, 0
1, 38354, Control_c, 0, 64, 0
1, 38504, Control_c, 0, 64, 127
1, 38650, Note_on_c, 0, 73, 71
1, 38660, Note_on_c, 0, 69, 48
1, 38660, Note_on_c, 0, 57, 53
1, 38666, Note_on_c, 0, 59, 0
1, 38674, Control_c, 0, 64, 0
1, 38677, Note_on_c, 0, 74, 0
1, 38804, Control_c, 0, 64, 127
1, 38865, Note_on_c, 0, 69, 0
1, 38885, Note_on_c, 0, 52, 0
1, 38961, Note_on_c, 0, 73, 0
1, 39032, Note_on_c, 0, 71, 65
1, 39032, Note_on_c, 0, 68, 44
1, 39041, Note_on_c, 0, 57, 0
1, 39041, Note_on_c, 0, 62, 44
1, 39044, Note_on_c, 0, 52, 37
1, 39053, Control_c, 0, 64, 0
1, 39203, Control_c, 0, 64, 127
1, 39356, Note_on_c, 0, 62, 0
1, 39477, Note_on_c, 0, 71, 0
1, 39524, Note_on_c, 0, 73, 79
1, 39540, Note_on_c, 0, 64, 70
1, 39565, Note_on_c, 0, 68, 0
1, 39630, Note_on_c, 0, 64, 0
1, 39720, Note_on_c, 0, 62, 61
1, 39720, Note_on_c, 0, 71, 82
1, 39765, Note_on_c, 0, 73, 0
1, 39793, Control_c, 0, 64, 0
1, 39913, Control_c, 0, 64, 127
1, 40043, Control_c, 0, 64, 0
1, 40049, Note_on_c, 0, 61, 67
1, 40053, Note_on_c, 0, 69, 86
1, 40057, Note_on_c, 0, 64, 58
1, 40123, Control_c, 0, 64, 127
1, 40141, Note_on_c, 0, 62, 0
1, 40180, Note_on_c, 0, 71, 0
1, 40187, Note_on_c, 0, 64, 0
1, 40197, Note_on_c, 0, 52, 0
1, 40211, Note_on_c, 0, 61, 0
1, 40219, Note_on_c, 0, 69, 0
1, 40400, Note_on_c, 0, 76, 95
1, 40405, Note_on_c, 0, 68, 68
1, 40410, Note_on_c, 0, 59, 56
1, 40422, Note_on_c, 0, 52, 49
1, 40432, Control_c, 0, 64, 0
1, 40563, Control_c, 0, 64, 127
1, 40577, Note_on_c, 0, 74, 99
1, 40610, Note_on_c, 0, 68, 0
1, 40613, Note_on_c, 0, 76, 0
1, 40801, Note_on_c, 0, 73, 77
1, 40811, Note_on_c, 0, 69, 60
1, 40828, Note_on_c, 0, 57, 41
1, 40831, Note_on_c, 0, 74, 0
1, 40842, Control_c, 0, 64, 0
1, 40842, Note_on_c, 0, 59, 0
1, 40992, Control_c, 0, 64, 127
1, 41005, Note_on_c, 0, 52, 0
1, 41010, Note_on_c, 0, 69, 0
1, 41021, Note_on_c, 0, 73, 0
1, 41069, Note_on_c, 0, 57, 0
1, 41146, Note_on_c, 0, 76, 97
1, 41152, Note_on_c, 0, 68, 69
1, 41152, Note_on_c, 0, 52, 44
1, 41152, Note_on_c, 0, 59, 59
1, 41191, Control_c, 0, 64, 0
1, 41310, Control_c, 0, 64, 127
1, 41329, Note_on_c, 0, 74, 94
1, 41372, Note_on_c, 0, 76, 0
1, 41372, Note_on_c, 0, 68, 0
1, 41538, Note_on_c, 0, 73, 72
1, 41545, Note_on_c, 0, 59, 0
1, 41548, Note_on_c, 0, 57, 51
1, 41551, Control_c, 0, 64, 0
1, 41551, Note_on_c, 0, 69, 47
1, 41574, Note_on_c, 0, 74, 0
1, 41710, Note_on_c, 0, 52, 0
1, 41710, Note_on_c, 0, 69, 0
1, 41710, Control_c, 0, 64, 127
1, 41730, Note_on_c, 0, 57, 0
1, 41733, Note_on_c, 0, 73, 0
1, 41901, Control_c, 0, 64, 0
1, 41927, Note_on_c, 0, 64, 55
1, 41927, Note_on_c, 0, 71, 60
1, 41932, Note_on_c, 0, 68, 44
1, 41935, Note_on_c, 0, 52, 39
1, 41990, Control_c, 0, 64, 127
1, 42001, Note_on_c, 0, 52, 0
1, 42145, Note_on_c, 0, 63, 70
1, 42183, Note_on_c, 0, 64, 0
1, 42270, Control_c, 0, 64, 0
1, 42332, Note_on_c, 0, 64, 99
1, 42365, Note_on_c, 0, 63, 0
1, 42500, Note_on_c, 0, 66, 95
1, 42543, Note_on_c, 0, 64, 0
1, 42580, Control_c, 0, 64, 127
1, 42598, Note_on_c, 0, 68, 0
1, 42666, Note_on_c, 0, 71, 0
1, 42679, Note_on_c, 0, 64, 102
1, 42687, Note_on_c, 0, 66, 0
1, 42737, Note_on_c, 0, 64, 0
1, 42843, Note_on_c, 0, 62, 84
1, 42846, Note_on_c, 0, 64, 105
1, 42869, Control_c, 0, 64, 0
1, 43011, Note_on_c, 0, 66, 88
1, 43019, Note_on_c, 0, 61, 81
1, 43068, Note_on_c, 0, 62, 0
1, 43100, Note_on_c, 0, 64, 0
1, 43187, Note_on_c, 0, 68, 85
1, 43192, Note_on_c, 0, 59, 67
1, 43212, Note_on_c, 0, 61, 0
1, 43224, Note_on_c, 0, 66, 0
1, 43427, Note_on_c, 0, 68, 0
1, 43454, Note_on_c, 0, 59, 0
1, 43488, Note_on_c, 0, 61, 48
1, 43491, Note_on_c, 0, 76, 51
1, 43494, Note_on_c, 0, 57, 41
1, 43499, Note_on_c, 0, 69, 40
1, 43717, Control_c, 0, 64, 127
1, 44066, Note_on_c, 0, 68, 55
1, 44076, Note_on_c, 0, 62, 40
1, 44090, Note_on_c, 0, 69, 0
1, 44099, Note_on_c, 0, 61, 0
1, 44131, Note_on_c, 0, 76, 0
1, 44188, Note_on_c, 0, 68, 0
1, 44188, Note_on_c, 0, 62, 0
1, 44280, Note_on_c, 0, 61, 54
1, 44292, Note_on_c, 0, 69, 54
1, 44295, Note_on_c, 0, 76, 54
1, 44357, Control_c, 0, 64, 0
1, 44477, Control_c, 0, 64, 127
1, 44500, Note_on_c, 0, 76, 0
1, 44600, Note_on_c, 0, 69, 0
1, 44640, Note_on_c, 0, 61, 0
1, 44649, Note_on_c, 0, 76, 80
1, 44658, Note_on_c, 0, 64, 58
1, 44658, Note_on_c, 0, 73, 56
1, 44666, Control_c, 0, 64, 0
1, 44766, Control_c, 0, 64, 127
1, 44780, Note_on_c, 0, 76, 0
1, 44786, Note_on_c, 0, 73, 0
1, 44826, Note_on_c, 0, 57, 0
1, 44875, Note_on_c, 0, 64, 0
1, 44988, Note_on_c, 0, 71, 47
1, 45014, Note_on_c, 0, 57, 54
1, 45026, Note_on_c, 0, 62, 49
1, 45026, Control_c, 0, 64, 0
1, 45042, Note_on_c, 0, 76, 84
1, 45054, Note_on_c, 0, 71, 0
1, 45098, Note_on_c, 0, 78, 87
1, 45108, Note_on_c, 0, 76, 0
1, 45117, Control_c, 0, 64, 127
1, 45151, Note_on_c, 0, 76, 100
1, 45160, Note_on_c, 0, 78, 0
1, 45199, Note_on_c, 0, 78, 93
1, 45206, Note_on_c, 0, 76, 0
1, 45257, Note_on_c, 0, 76, 96
1, 45272, Note_on_c, 0, 78, 0
1, 45291, Note_on_c, 0, 76, 0
1, 45302, Note_on_c, 0, 75, 85
1, 45341, Note_on_c, 0, 76, 102
1, 45369, Note_on_c, 0, 75, 0
1, 45432, Note_on_c, 0, 78, 92
1, 45478, Note_on_c, 0, 76, 0
1, 45620, Note_on_c, 0, 80, 90
1, 45643, Note_on_c, 0, 78, 0
1, 45740, Note_on_c, 0, 80, 0
1, 45830, Note_on_c, 0, 62, 0
1, 45836, Note_on_c, 0, 81, 72
1, 45847, Note_on_c, 0, 61, 39
1, 45851, Note_on_c, 0, 69, 45
1, 45916, Control_c, 0, 64, 0
1, 46085, Control_c, 0, 64, 127
1, 46215, Note_on_c, 0, 76, 75
1, 46222, Note_on_c, 0, 81, 0
1, 46230, Note_on_c, 0, 57, 0
1, 46276, Note_on_c, 0, 61, 0
1, 46276, Note_on_c, 0, 69, 0
1, 46282, Note_on_c, 0, 76, 0
1, 46566, Note_on_c, 0, 68, 47
1, 46569, Note_on_c, 0, 76, 67
1, 46579, Note_on_c, 0, 57, 55
1, 46590, Note_on_c, 0, 59, 37
1, 46634, Control_c, 0, 64, 0
1, 46803, Control_c, 0, 64, 127
1, 46941, Note_on_c, 0, 62, 49
1, 46945, Note_on_c, 0, 71, 54
1, 46958, Note_on_c, 0, 76, 0
1, 46977, Note_on_c, 0, 68, 0
1, 47013, Note_on_c, 0, 57, 0
1, 47016, Note_on_c, 0, 59, 0
1, 47016, Note_on_c, 0, 71, 0
1, 47038, Note_on_c, 0, 62, 0
1, 47317, Note_on_c, 0, 68, 39
1, 47322, Note_on_c, 0, 57, 45
1, 47322, Note_on_c, 0, 76, 57
1, 47332, Note_on_c, 0, 59, 36
1, 47343, Control_c, 0, 64, 0
1, 47494, Control_c, 0, 64, 127
1, 47512, Note_on_c, 0, 76, 0
1, 47544, Note_on_c, 0, 68, 0
1, 47688, Note_on_c, 0, 59, 0
1, 47725, Note_on_c, 0, 76, 61
1, 47737, Note_on_c, 0, 71, 34
1, 47737, Note_on_c, 0, 62, 29
1, 47753, Control_c, 0, 64, 0
1, 47870, Note_on_c, 0, 76, 0
1, 47870, Control_c, 0, 64, 127
1, 47899, Note_on_c, 0, 57, 0
1, 47905, Note_on_c, 0, 71, 0
1, 47945, Note_on_c, 0, 62, 0
1, 48187, Note_on_c, 0, 69, 40
1, 48207, Note_on_c, 0, 61, 29
1, 48218, Note_on_c, 0, 57, 23
1, 48263, Control_c, 0, 64, 0
1, 48422, Control_c, 0, 64, 127
1, 48530, Note_on_c, 0, 61, 0
1, 48530, Note_on_c, 0, 57, 0
1, 48533, Note_on_c, 0, 69, 0
1, 49071, Control_c, 0, 64, 0
1, 49414, Note_on_c, 0, 45, 60
1, 49610, Note_on_c, 0, 52, 63
1, 49765, Note_on_c, 0, 60, 56
1, 49771, Note_on_c, 0, 57, 43
1, 49781, Note_on_c, 0, 52, 0
1, 49799, Note_on_c, 0, 60, 0
1, 49806, Note_on_c, 0, 57, 0
1, 49940, Note_on_c, 0, 60, 68
1, 49944, Note_on_c, 0, 57, 43
1, 49971, Note_on_c, 0, 60, 0
1, 49980, Note_on_c, 0, 57, 0
1, 50117, Note_on_c, 0, 40, 58
1, 50160, Note_on_c, 0, 45, 0
1, 50277, Note_on_c, 0, 52, 61
1, 50441, Note_on_c, 0, 56, 44
1, 50444, Note_on_c, 0, 59, 50
1, 50466, Note_on_c, 0, 52, 0
1, 50472, Note_on_c, 0, 59, 0
1, 50476, Note_on_c, 0, 56, 0
1, 50604, Note_on_c, 0, 59, 54
1, 50611, Note_on_c, 0, 56, 49
1, 50645, Note_on_c, 0, 59, 0
1, 50652, Note_on_c, 0, 56, 0
1, 50781, Note_on_c, 0, 33, 70
1, 50831, Note_on_c, 0, 40, 0
1, 50943, Note_on_c, 0, 52, 74
1, 51107, Note_on_c, 0, 61, 72
1, 51122, Note_on_c, 0, 52, 0
1, 51135, Note_on_c, 0, 61, 0
1, 51135, Note_on_c, 0, 55, 23
1, 51141, Note_on_c, 0, 57, 18
1, 51169, Note_on_c, 0, 55, 0
1, 51169, Note_on_c, 0, 57, 0
1, 51279, Note_on_c, 0, 61, 58
1, 51291, Note_on_c, 0, 55, 43
1, 51316, Note_on_c, 0, 61, 0
1, 51329, Note_on_c, 0, 55, 0
1, 51469, Note_on_c, 0, 38, 51
1, 51512, Note_on_c, 0, 33, 0
1, 51636, Note_on_c, 0, 53, 66
1, 51805, Note_on_c, 0, 62, 63
1, 51811, Note_on_c, 0, 53, 0
1, 51811, Note_on_c, 0, 57, 47
1, 51841, Note_on_c, 0, 62, 0
1, 51844, Note_on_c, 0, 57, 0
1, 51968, Note_on_c, 0, 62, 70
1, 51972, Note_on_c, 0, 57, 63
1, 52000, Note_on_c, 0, 62, 0
1, 52000, Note_on_c, 0, 57, 0
1, 52145, Note_on_c, 0, 45, 70
1, 52214, Note_on_c, 0, 38, 0
1, 52304, Note_on_c, 0, 57, 69
1, 52461, Note_on_c, 0, 61, 56
1, 52469, Note_on_c, 0, 64, 76
1, 52489, Note_on_c, 0, 57, 0
1, 52493, Note_on_c, 0, 61, 0
1, 52496, Note_on_c, 0, 64, 0
1, 52641, Note_on_c, 0, 64, 84
1, 52641, Note_on_c, 0, 61, 67
1, 52672, Note_on_c, 0, 61, 0
1, 52676, Note_on_c, 0, 64, 0
1, 52818, Note_on_c, 0, 50, 76
1, 52960, Note_on_c, 0, 45, 0
1, 52977, Note_on_c, 0, 57, 81
1, 53143, Note_on_c, 0, 65, 78
1, 53143, Note_on_c, 0, 62, 59
1, 53168, Note_on_c, 0, 57, 0
1, 53171, Note_on_c, 0, 65, 0
1, 53174, Note_on_c, 0, 62, 0
1, 53315, Note_on_c, 0, 65, 66
1, 53321, Note_on_c, 0, 62, 55
1, 53346, Note_on_c, 0, 65, 0
1, 53352, Note_on_c, 0, 62, 0
1, 53490, Note_on_c, 0, 43, 62
1, 53609, Note_on_c, 0, 50, 0
1, 53654, Note_on_c, 0, 59, 62
1, 53823, Note_on_c, 0, 67, 57
1, 53823, Note_on_c, 0, 62, 48
1, 53830, Note_on_c, 0, 59, 0
1, 53856, Note_on_c, 0, 67, 0
1, 53859, Note_on_c, 0, 62, 0
1, 53981, Note_on_c, 0, 62, 59
1, 53999, Note_on_c, 0, 67, 47
1, 54021, Note_on_c, 0, 62, 0
1, 54036, Note_on_c, 0, 67, 0
1, 54173, Note_on_c, 0, 48, 51
1, 54228, Note_on_c, 0, 43, 0
1, 54336, Note_on_c, 0, 55, 56
1, 54514, Note_on_c, 0, 64, 56
1, 54514, Note_on_c, 0, 55, 0
1, 54536, Note_on_c, 0, 60, 13
1, 54546, Note_on_c, 0, 64, 0
1, 54571, Note_on_c, 0, 60, 0
1, 54675, Note_on_c, 0, 60, 13
1, 54678, Note_on_c, 0, 64, 54
1, 54710, Note_on_c, 0, 60, 0
1, 54728, Note_on_c, 0, 64, 0
1, 54902, Note_on_c, 0, 45, 62
1, 54952, Note_on_c, 0, 48, 0
1, 55057, Note_on_c, 0, 64, 67
1, 55218, Note_on_c, 0, 72, 81
1, 55225, Note_on_c, 0, 69, 66
1, 55238, Note_on_c, 0, 64, 0
1, 55248, Note_on_c, 0, 72, 0
1, 55252, Note_on_c, 0, 69, 0
1, 55385, Note_on_c, 0, 72, 85
1, 55385, Note_on_c, 0, 69, 79
1, 55414, Note_on_c, 0, 72, 0
1, 55414, Note_on_c, 0, 69, 0
1, 55541, Note_on_c, 0, 47, 74
1, 55582, Note_on_c, 0, 45, 0
1, 55704, Note_on_c, 0, 63, 81
1, 55880, Note_on_c, 0, 66, 66
1, 55884, Note_on_c, 0, 71, 65
1, 55904, Note_on_c, 0, 63, 0
1, 55908, Note_on_c, 0, 71, 0
1, 55908, Note_on_c, 0, 66, 0
1, 56053, Note_on_c, 0, 71, 73
1, 56056, Note_on_c, 0, 66, 66
1, 56079, Note_on_c, 0, 71, 0
1, 56087, Note_on_c, 0, 66, 0
1, 56233, Note_on_c, 0, 51, 81
1, 56305, Note_on_c, 0, 47, 0
1, 56399, Note_on_c, 0, 59, 78
1, 56557, Note_on_c, 0, 66, 78
1, 56557, Note_on_c, 0, 69, 87
1, 56583, Note_on_c, 0, 59, 0
1, 56583, Note_on_c, 0, 66, 0
1, 56589, Note_on_c, 0, 69, 0
1, 56725, Note_on_c, 0, 69, 95
1, 56725, Note_on_c, 0, 66, 87
1, 56762, Note_on_c, 0, 66, 0
1, 56769, Note_on_c, 0, 69, 0
1, 56901, Note_on_c, 0, 52, 84
1, 57036, Note_on_c, 0, 51, 0
1, 57053, Note_on_c, 0, 59, 73
1, 57220, Note_on_c, 0, 68, 73
1, 57234, Note_on_c, 0, 62, 47
1, 57239, Note_on_c, 0, 59, 0
1, 57255, Note_on_c, 0, 68, 0
1, 57269, Note_on_c, 0, 62, 0
1, 57393, Note_on_c, 0, 62, 53
1, 57404, Note_on_c, 0, 68, 52
1, 57425, Note_on_c, 0, 62, 0
1, 57437, Note_on_c, 0, 68, 0
1, 57613, Note_on_c, 0, 53, 43
1, 57676, Note_on_c, 0, 52, 0
1, 57776, Note_on_c, 0, 57, 52
1, 57932, Note_on_c, 0, 60, 57
1, 57935, Note_on_c, 0, 57, 0
1, 57939, Note_on_c, 0, 69, 55
1, 57971, Note_on_c, 0, 60, 0
1, 57971, Note_on_c, 0, 69, 0
1, 58099, Note_on_c, 0, 60, 57
1, 58110, Note_on_c, 0, 69, 66
1, 58138, Note_on_c, 0, 60, 0
1, 58146, Note_on_c, 0, 69, 0
1, 58278, Note_on_c, 0, 50, 68
1, 58326, Note_on_c, 0, 53, 0
1, 58442, Note_on_c, 0, 59, 56
1, 58600, Note_on_c, 0, 65, 44
1, 58607, Note_on_c, 0, 69, 57
1, 58610, Note_on_c, 0, 59, 0
1, 58638, Note_on_c, 0, 69, 0
1, 58638, Note_on_c, 0, 65, 0
1, 58788, Note_on_c, 0, 69, 59
1, 58788, Note_on_c, 0, 65, 44
1, 58822, Note_on_c, 0, 69, 0
1, 58829, Note_on_c, 0, 65, 0
1, 58971, Note_on_c, 0, 52, 61
1, 59001, Note_on_c, 0, 50, 0
1, 59139, Note_on_c, 0, 59, 54
1, 59297, Note_on_c, 0, 59, 0
1, 59297, Note_on_c, 0, 68, 68
1, 59329, Note_on_c, 0, 62, 25
1, 59332, Note_on_c, 0, 68, 0
1, 59371, Note_on_c, 0, 62, 0
1, 59462, Note_on_c, 0, 62, 34
1, 59467, Note_on_c, 0, 68, 69
1, 59502, Note_on_c, 0, 62, 0
1, 59502, Note_on_c, 0, 68, 0
1, 59660, Note_on_c, 0, 45, 49
1, 59694, Note_on_c, 0, 52, 0
1, 59820, Note_on_c, 0, 57, 55
1, 59994, Note_on_c, 0, 57, 0
1, 59994, Note_on_c, 0, 69, 60
1, 60003, Note_on_c, 0, 60, 39
1, 60026, Note_on_c, 0, 69, 0
1, 60046, Note_on_c, 0, 60, 0
1, 60159, Note_on_c, 0, 60, 62
1, 60159, Note_on_c, 0, 69, 82
1, 60191, Note_on_c, 0, 60, 0
1, 60196, Note_on_c, 0, 69, 0
1, 60396, Note_on_c, 0, 53, 57
1, 60396, Note_on_c, 0, 41, 58
1, 60431, Note_on_c, 0, 45, 0
1, 60574, Note_on_c, 0, 63, 68
1, 60734, Note_on_c, 0, 75, 72
1, 60744, Note_on_c, 0, 72, 71
1, 60754, Note_on_c, 0, 63, 0
1, 60769, Note_on_c, 0, 75, 0
1, 60772, Note_on_c, 0, 72, 0
1, 60895, Note_on_c, 0, 72, 91
1, 60895, Note_on_c, 0, 75, 87
1, 60999, Note_on_c, 0, 75, 0
1, 61005, Note_on_c, 0, 53, 0
1, 61011, Note_on_c, 0, 41, 0
1, 61011, Note_on_c, 0, 72, 0
1, 61063, Note_on_c, 0, 53, 79
1, 61068, Note_on_c, 0, 41, 80
1, 61219, Note_on_c, 0, 63, 95
1, 61380, Note_on_c, 0, 75, 95
1, 61380, Note_on_c, 0, 71, 85
1, 61399, Note_on_c, 0, 63, 0
1, 61406, Note_on_c, 0, 71, 0
1, 61423, Note_on_c, 0, 75, 0
1, 61548, Note_on_c, 0, 75, 97
1, 61548, Note_on_c, 0, 71, 95
1, 61617, Note_on_c, 0, 75, 0
1, 61640, Note_on_c, 0, 71, 0
1, 61643, Note_on_c, 0, 41, 0
1, 61651, Note_on_c, 0, 53, 0
1, 61713, Note_on_c, 0, 53, 103
1, 61719, Note_on_c, 0, 41, 96
1, 61879, Note_on_c, 0, 63, 107
1, 62045, Note_on_c, 0, 75, 106
1, 62045, Note_on_c, 0, 69, 103
1, 62063, Note_on_c, 0, 63, 0
1, 62076, Note_on_c, 0, 69, 0
1, 62102, Note_on_c, 0, 75, 0
1, 62213, Note_on_c, 0, 69, 105
1, 62213, Note_on_c, 0, 75, 107
1, 62254, Note_on_c, 0, 69, 0
1, 62268, Note_on_c, 0, 75, 0
1, 62282, Note_on_c, 0, 41, 0
1, 62292, Note_on_c, 0, 53, 0
1, 62389, Note_on_c, 0, 52, 97
1, 62395, Note_on_c, 0, 40, 102
1, 62554, Note_on_c, 0, 64, 97
1, 62725, Note_on_c, 0, 68, 78
1, 62733, Note_on_c, 0, 64, 0
1, 62733, Note_on_c, 0, 76, 83
1, 62752, Note_on_c, 0, 68, 0
1, 62765, Note_on_c, 0, 76, 0
1, 62899, Note_on_c, 0, 76, 79
1, 62908, Note_on_c, 0, 68, 68
1, 62924, Note_on_c, 0, 76, 0
1, 62930, Note_on_c, 0, 40, 0
1, 62938, Note_on_c, 0, 68, 0
1, 62960, Note_on_c, 0, 52, 0
1, 63126, Note_on_c, 0, 53, 52
1, 63306, Note_on_c, 0, 60, 60
1, 63485, Note_on_c, 0, 69, 54
1, 63485, Note_on_c, 0, 72, 45
1, 63489, Note_on_c, 0, 60, 0
1, 63516, Note_on_c, 0, 69, 0
1, 63525, Note_on_c, 0, 72, 0
1, 63642, Note_on_c, 0, 69, 57
1, 63642, Note_on_c, 0, 72, 60
1, 63676, Note_on_c, 0, 69, 0
1, 63680, Note_on_c, 0, 72, 0
1, 63833, Note_on_c, 0, 50, 54
1, 63875, Note_on_c, 0, 53, 0
1, 64006, Note_on_c, 0, 65, 55
1, 64155, Note_on_c, 0, 65, 0
1, 64179, Note_on_c, 0, 71, 27
1, 64190, Note_on_c, 0, 69, 23
1, 64212, Note_on_c, 0, 71, 0
1, 64225, Note_on_c, 0, 69, 0
1, 64346, Note_on_c, 0, 71, 37
1, 64371, Note_on_c, 0, 69, 22
1, 64378, Note_on_c, 0, 71, 0
1, 64403, Note_on_c, 0, 69, 0
1, 64522, Note_on_c, 0, 52, 57
1, 64548, Note_on_c, 0, 50, 0
1, 64697, Note_on_c, 0, 62, 51
1, 64840, Note_on_c, 0, 71, 37
1, 64854, Note_on_c, 0, 68, 51
1, 64872, Note_on_c, 0, 71, 0
1, 64878, Note_on_c, 0, 62, 0
1, 64889, Note_on_c, 0, 68, 0
1, 65026, Note_on_c, 0, 68, 47
1, 65037, Note_on_c, 0, 71, 37
1, 65066, Note_on_c, 0, 68, 0
1, 65069, Note_on_c, 0, 71, 0
1, 65203, Note_on_c, 0, 45, 66
1, 65237, Note_on_c, 0, 52, 0
1, 65367, Note_on_c, 0, 60, 64
1, 65543, Note_on_c, 0, 60, 0
1, 65543, Note_on_c, 0, 72, 66
1, 65560, Note_on_c, 0, 69, 39
1, 65576, Note_on_c, 0, 72, 0
1, 65598, Note_on_c, 0, 69, 0
1, 65714, Note_on_c, 0, 69, 62
1, 65726, Note_on_c, 0, 72, 61
1, 65742, Note_on_c, 0, 69, 0
1, 65756, Note_on_c, 0, 72, 0
1, 65917, Note_on_c, 0, 41, 70
1, 65940, Note_on_c, 0, 45, 0
1, 66081, Note_on_c, 0, 69, 65
1, 66243, Note_on_c, 0, 81, 83
1, 66248, Note_on_c, 0, 69, 0
1, 66251, Note_on_c, 0, 72, 77
1, 66271, Note_on_c, 0, 81, 0
1, 66278, Note_on_c, 0, 72, 0
1, 66415, Note_on_c, 0, 72, 97
1, 66415, Note_on_c, 0, 81, 94
1, 66449, Note_on_c, 0, 81, 0
1, 66467, Note_on_c, 0, 72, 0
1, 66597, Note_on_c, 0, 39, 89
1, 66633, Note_on_c, 0, 41, 0
1, 66764, Note_on_c, 0, 69, 101
1, 66930, Note_on_c, 0, 71, 86
1, 66930, Note_on_c, 0, 81, 96
1, 66940, Note_on_c, 0, 69, 0
1, 66993, Note_on_c, 0, 71, 0
1, 66998, Note_on_c, 0, 81, 0
1, 67097, Note_on_c, 0, 81, 109
1, 67097, Note_on_c, 0, 71, 92
1, 67121, Note_on_c, 0, 81, 0
1, 67132, Note_on_c, 0, 71, 0
1, 67284, Note_on_c, 0, 40, 101
1, 67316, Note_on_c, 0, 39, 0
1, 67457, Note_on_c, 0, 68, 93
1, 67572, Note_on_c, 0, 68, 0
1, 67624, Note_on_c, 0, 80, 102
1, 67635, Note_on_c, 0, 71, 72
1, 67654, Note_on_c, 0, 71, 0
1, 67686, Note_on_c, 0, 80, 0
1, 67821, Note_on_c, 0, 80, 103
1, 67821, Note_on_c, 0, 71, 80
1, 67848, Note_on_c, 0, 71, 0
1, 67877, Note_on_c, 0, 80, 0
1, 68125, Note_on_c, 0, 81, 103
1, 68135, Note_on_c, 0, 33, 66
1, 68135, Note_on_c, 0, 45, 69
1, 68141, Note_on_c, 0, 69, 75
1, 68149, Note_on_c, 0, 40, 0
1, 68757, Control_c, 0, 64, 127
1, 68809, Note_on_c, 0, 81, 0
1, 68855, Note_on_c, 0, 69, 0
1, 69378, Note_on_c, 0, 64, 47
1, 69457, Control_c, 0, 64, 0
1, 69526, Control_c, 0, 64, 127
1, 69559, Note_on_c, 0, 66, 62
1, 69605, Note_on_c, 0, 33, 0
1, 69648, Note_on_c, 0, 45, 0
1, 69739, Note_on_c, 0, 68, 81
1, 69744, Note_on_c, 0, 64, 0
1, 69772, Note_on_c, 0, 66, 0
1, 69794, Note_on_c, 0, 68, 0
1, 70018, Note_on_c, 0, 76, 55
1, 70018, Note_on_c, 0, 61, 41
1, 70024, Note_on_c, 0, 57, 39
1, 70033, Note_on_c, 0, 69, 44
1, 70115, Control_c, 0, 64, 0
1, 70265, Control_c, 0, 64, 127
1, 70547, Note_on_c, 0, 59, 62
1, 70547, Note_on_c, 0, 68, 73
1, 70561, Note_on_c, 0, 61, 0
1, 70564, Note_on_c, 0, 76, 0
1, 70605, Note_on_c, 0, 69, 0
1, 70690, Note_on_c, 0, 68, 0
1, 70716, Note_on_c, 0, 59, 0
1, 70748, Note_on_c, 0, 61, 59
1, 70748, Note_on_c, 0, 76, 87
1, 70751, Note_on_c, 0, 69, 81
1, 70795, Control_c, 0, 64, 0
1, 70925, Control_c, 0, 64, 127
1, 70963, Note_on_c, 0, 76, 0
1, 71082, Note_on_c, 0, 76, 92
1, 71088, Note_on_c, 0, 73, 82
1, 71097, Note_on_c, 0, 64, 66
1, 71126, Note_on_c, 0, 69, 0
1, 71158, Note_on_c, 0, 57, 0
1, 71198, Note_on_c, 0, 76, 0
1, 71203, Note_on_c, 0, 73, 0
1, 71228, Note_on_c, 0, 61, 0
1, 71252, Note_on_c, 0, 64, 0
1, 71424, Control_c, 0, 64, 0
1, 71429, Note_on_c, 0, 71, 59
1, 71441, Note_on_c, 0, 62, 78
1, 71444, Note_on_c, 0, 57, 72
1, 71489, Note_on_c, 0, 76, 82
1, 71513, Control_c, 0, 64, 127
1, 71538, Note_on_c, 0, 71, 0
1, 71543, Note_on_c, 0, 78, 88
1, 71550, Note_on_c, 0, 76, 0
1, 71597, Note_on_c, 0, 76, 99
1, 71611, Note_on_c, 0, 78, 0
1, 71646, Note_on_c, 0, 78, 95
1, 71657, Note_on_c, 0, 76, 0
1, 71694, Note_on_c, 0, 76, 73
1, 71723, Note_on_c, 0, 78, 0
1, 71753, Note_on_c, 0, 75, 90
1, 71753, Note_on_c, 0, 76, 0
1, 71795, Note_on_c, 0, 76, 106
1, 71830, Note_on_c, 0, 75, 0
1, 71882, Note_on_c, 0, 78, 97
1, 71947, Note_on_c, 0, 76, 0
1, 72050, Note_on_c, 0, 80, 99
1, 72096, Note_on_c, 0, 78, 0
1, 72174, Note_on_c, 0, 80, 0
1, 72252, Note_on_c, 0, 81, 80
1, 72261, Note_on_c, 0, 69, 57
1, 72261, Note_on_c, 0, 61, 54
1, 72284, Note_on_c, 0, 62, 0
1, 72332, Control_c, 0, 64, 0
1, 72512, Control_c, 0, 64, 127
1, 72621, Note_on_c, 0, 57, 0
1, 72625, Note_on_c, 0, 69, 0
1, 72629, Note_on_c, 0, 76, 82
1, 72634, Note_on_c, 0, 81, 0
1, 72657, Note_on_c, 0, 61, 0
1, 72680, Note_on_c, 0, 76, 0
1, 73097, Note_on_c, 0, 68, 41
1, 73103, Note_on_c, 0, 76, 62
1, 73103, Note_on_c, 0, 57, 44
1, 73118, Note_on_c, 0, 59, 40
1, 73200, Control_c, 0, 64, 0
1, 73351, Control_c, 0, 64, 127
1, 73483, Note_on_c, 0, 62, 43
1, 73492, Note_on_c, 0, 71, 49
1, 73503, Note_on_c, 0, 76, 0
1, 73529, Note_on_c, 0, 68, 0
1, 73543, Note_on_c, 0, 71, 0
1, 73589, Note_on_c, 0, 57, 0
1, 73592, Note_on_c, 0, 62, 0
1, 73595, Note_on_c, 0, 59, 0
1, 73844, Note_on_c, 0, 68, 40
1, 73849, Note_on_c, 0, 76, 58
1, 73858, Note_on_c, 0, 59, 38
1, 73862, Note_on_c, 0, 57, 40
1, 73901, Control_c, 0, 64, 0
1, 74000, Control_c, 0, 64, 127
1, 74037, Note_on_c, 0, 76, 0
1, 74104, Note_on_c, 0, 68, 0
1, 74209, Note_on_c, 0, 62, 51
1, 74209, Note_on_c, 0, 76, 75
1, 74217, Note_on_c, 0, 71, 48
1, 74241, Control_c, 0, 64, 0
1, 74330, Control_c, 0, 64, 127
1, 74339, Note_on_c, 0, 71, 0
1, 74344, Note_on_c, 0, 76, 0
1, 74358, Note_on_c, 0, 59, 0
1, 74371, Note_on_c, 0, 57, 0
1, 74417, Note_on_c, 0, 62, 0
1, 74575, Note_on_c, 0, 61, 55
1, 74593, Note_on_c, 0, 76, 68
1, 74600, Note_on_c, 0, 57, 28
1, 74600, Note_on_c, 0, 69, 54
1, 74610, Control_c, 0, 64, 0
1, 74767, Note_on_c, 0, 75, 73
1, 74817, Note_on_c, 0, 76, 0
1, 74943, Note_on_c, 0, 76, 101
1, 74997, Note_on_c, 0, 69, 0
1, 75001, Note_on_c, 0, 75, 0
1, 75098, Note_on_c, 0, 57, 0
1, 75114, Note_on_c, 0, 78, 90
1, 75152, Note_on_c, 0, 76, 0
1, 75155, Note_on_c, 0, 61, 0
1, 75297, Note_on_c, 0, 76, 88
1, 75352, Note_on_c, 0, 78, 0
1, 75440, Note_on_c, 0, 66, 53
1, 75460, Note_on_c, 0, 76, 0
1, 75460, Note_on_c, 0, 74, 80
1, 75623, Note_on_c, 0, 73, 81
1, 75635, Note_on_c, 0, 64, 85
1, 75642, Note_on_c, 0, 66, 0
1, 75645, Note_on_c, 0, 74, 0
1, 75791, Note_on_c, 0, 62, 79
1, 75791, Note_on_c, 0, 71, 79
1, 75833, Note_on_c, 0, 64, 0
1, 75838, Note_on_c, 0, 73, 0
1, 76031, Note_on_c, 0, 61, 57
1, 76036, Note_on_c, 0, 69, 62
1, 76036, Note_on_c, 0, 57, 40
1, 76039, Note_on_c, 0, 76, 68
1, 76039, Note_on_c, 0, 71, 0
1, 76072, Note_on_c, 0, 62, 0
1, 76259, Control_c, 0, 64, 127
1, 76547, Note_on_c, 0, 68, 77
1, 76557, Note_on_c, 0, 59, 68
1, 76578, Note_on_c, 0, 76, 0
1, 76593, Note_on_c, 0, 61, 0
1, 76593, Note_on_c, 0, 69, 0
1, 76743, Note_on_c, 0, 61, 62
1, 76748, Note_on_c, 0, 76, 78
1, 76753, Note_on_c, 0, 59, 0
1, 76753, Note_on_c, 0, 69, 80
1, 76753, Note_on_c, 0, 68, 0
1, 76796, Control_c, 0, 64, 0
1, 76956, Control_c, 0, 64, 127
1, 76989, Note_on_c, 0, 76, 0
1, 77108, Note_on_c, 0, 76, 60
1, 77114, Note_on_c, 0, 73, 56
1, 77114, Note_on_c, 0, 64, 51
1, 77136, Note_on_c, 0, 69, 0
1, 77196, Note_on_c, 0, 57, 0
1, 77203, Note_on_c, 0, 73, 0
1, 77211, Note_on_c, 0, 76, 0
1, 77250, Note_on_c, 0, 61, 0
1, 77266, Note_on_c, 0, 64, 0
1, 77435, Note_on_c, 0, 71, 46
1, 77469, Note_on_c, 0, 62, 64
1, 77469, Note_on_c, 0, 57, 62
1, 77476, Control_c, 0, 64, 0
1, 77509, Note_on_c, 0, 71, 0
1, 77509, Note_on_c, 0, 76, 86
1, 77556, Control_c, 0, 64, 127
1, 77565, Note_on_c, 0, 78, 89
1, 77573, Note_on_c, 0, 76, 0
1, 77615, Note_on_c, 0, 76, 100
1, 77623, Note_on_c, 0, 78, 0
1, 77666, Note_on_c, 0, 78, 92
1, 77673, Note_on_c, 0, 76, 0
1, 77717, Note_on_c, 0, 76, 106
1, 77748, Note_on_c, 0, 78, 0
1, 77768, Note_on_c, 0, 75, 92
1, 77778, Note_on_c, 0, 76, 0
1, 77806, Note_on_c, 0, 76, 81
1, 77846, Note_on_c, 0, 75, 0
1, 77921, Note_on_c, 0, 78, 102
1, 77971, Note_on_c, 0, 76, 0
1, 78096, Note_on_c, 0, 80, 101
1, 78136, Note_on_c, 0, 78, 0
1, 78240, Note_on_c, 0, 80, 0
1, 78294, Note_on_c, 0, 81, 85
1, 78302, Note_on_c, 0, 61, 49
1, 78305, Note_on_c, 0, 69, 51
1, 78329, Note_on_c, 0, 62, 0
1, 78365, Control_c, 0, 64, 0
1, 78574, Control_c, 0, 64, 127
1, 78677, Note_on_c, 0, 57, 0
1, 78677, Note_on_c, 0, 76, 78
1, 78684, Note_on_c, 0, 81, 0
1, 78684, Note_on_c, 0, 61, 0
1, 78719, Note_on_c, 0, 76, 0
1, 78752, Note_on_c, 0, 69, 0
1, 79058, Note_on_c, 0, 76, 57
1, 79058, Note_on_c, 0, 68, 30
1, 79076, Note_on_c, 0, 57, 44
1, 79079, Note_on_c, 0, 59, 42
1, 79134, Control_c, 0, 64, 0
1, 79272, Control_c, 0, 64, 127
1, 79416, Note_on_c, 0, 62, 47
1, 79416, Note_on_c, 0, 71, 53
1, 79438, Note_on_c, 0, 76, 0
1, 79451, Note_on_c, 0, 68, 0
1, 79459, Note_on_c, 0, 71, 0
1, 79499, Note_on_c, 0, 59, 0
1, 79503, Note_on_c, 0, 57, 0
1, 79510, Note_on_c, 0, 62, 0
1, 79750, Note_on_c, 0, 68, 40
1, 79759, Note_on_c, 0, 76, 63
1, 79759, Note_on_c, 0, 59, 54
1, 79768, Note_on_c, 0, 57, 43
1, 79803, Control_c, 0, 64, 0
1, 79932, Control_c, 0, 64, 127
1, 79956, Note_on_c, 0, 76, 0
1, 80016, Note_on_c, 0, 68, 0
1, 80112, Control_c, 0, 64, 0
1, 80127, Note_on_c, 0, 62, 50
1, 80138, Note_on_c, 0, 71, 52
1, 80141, Note_on_c, 0, 76, 72
1, 80223, Control_c, 0, 64, 127
1, 80286, Note_on_c, 0, 59, 0
1, 80314, Note_on_c, 0, 71, 0
1, 80314, Note_on_c, 0, 57, 0
1, 80318, Note_on_c, 0, 76, 0
1, 80389, Note_on_c, 0, 62, 0
1, 80577, Note_on_c, 0, 61, 36
1, 80581, Control_c, 0, 64, 0
1, 80581, Note_on_c, 0, 69, 50
1, 80584, Note_on_c, 0, 57, 41
1, 80693, Control_c, 0, 64, 127
1, 80793, Note_on_c, 0, 69, 0
1, 80793, Note_on_c, 0, 64, 72
1, 80985, Note_on_c, 0, 66, 75
1, 81014, Note_on_c, 0, 64, 0
1, 81021, Control_c, 0, 64, 0
1, 81070, Note_on_c, 0, 57, 0
1, 81098, Note_on_c, 0, 61, 0
1, 81173, Note_on_c, 0, 64, 87
1, 81196, Note_on_c, 0, 66, 0
1, 81344, Note_on_c, 0, 63, 81
1, 81438, Note_on_c, 0, 64, 0
1, 81513, Note_on_c, 0, 66, 70
1, 81565, Note_on_c, 0, 63, 0
1, 81699, Note_on_c, 0, 62, 73
1, 81853, Control_c, 0, 64, 127
1, 81878, Note_on_c, 0, 68, 72
1, 81889, Note_on_c, 0, 62, 0
1, 81903, Note_on_c, 0, 66, 0
1, 82088, Note_on_c, 0, 61, 67
1, 82098, Note_on_c, 0, 40, 54
1, 82122, Control_c, 0, 64, 0
1, 82290, Note_on_c, 0, 69, 75
1, 82311, Control_c, 0, 64, 127
1, 82318, Note_on_c, 0, 68, 0
1, 82359, Note_on_c, 0, 61, 0
1, 82469, Note_on_c, 0, 69, 0
1, 82469, Note_on_c, 0, 59, 76
1, 82538, Note_on_c, 0, 40, 0
1, 82646, Note_on_c, 0, 68, 81
1, 82649, Note_on_c, 0, 59, 0
1, 82813, Note_on_c, 0, 61, 79
1, 82823, Note_on_c, 0, 40, 80
1, 82853, Note_on_c, 0, 68, 0
1, 82861, Control_c, 0, 64, 0
1, 82980, Control_c, 0, 64, 127
1, 82995, Note_on_c, 0, 69, 84
1, 83017, Note_on_c, 0, 61, 0
1, 83017, Note_on_c, 0, 40, 0
1, 83164, Note_on_c, 0, 40, 85
1, 83164, Note_on_c, 0, 64, 94
1, 83177, Note_on_c, 0, 69, 0
1, 83180, Control_c, 0, 64, 0
1, 83280, Control_c, 0, 64, 127
1, 83335, Note_on_c, 0, 40, 0
1, 83353, Note_on_c, 0, 73, 85
1, 83367, Note_on_c, 0, 64, 0
1, 83499, Note_on_c, 0, 62, 85
1, 83499, Note_on_c, 0, 73, 0
1, 83506, Note_on_c, 0, 40, 87
1, 83565, Note_on_c, 0, 42, 80
1, 83584, Note_on_c, 0, 40, 0
1, 83637, Note_on_c, 0, 40, 81
1, 83674, Note_on_c, 0, 42, 0
1, 83705, Note_on_c, 0, 73, 73
1, 83708, Note_on_c, 0, 39, 77
1, 83729, Note_on_c, 0, 40, 0
1, 83779, Note_on_c, 0, 40, 96
1, 83788, Note_on_c, 0, 39, 0
1, 83851, Note_on_c, 0, 42, 84
1, 83851, Note_on_c, 0, 71, 79
1, 83869, Control_c, 0, 64, 0
1, 83875, Note_on_c, 0, 40, 0
1, 83878, Note_on_c, 0, 73, 0
1, 83934, Note_on_c, 0, 62, 0
1, 83990, Control_c, 0, 64, 127
1, 84020, Note_on_c, 0, 44, 84
1, 84030, Note_on_c, 0, 62, 92
1, 84059, Note_on_c, 0, 42, 0
1, 84059, Note_on_c, 0, 71, 0
1, 84099, Note_on_c, 0, 62, 0
1, 84197, Note_on_c, 0, 45, 93
1, 84208, Note_on_c, 0, 61, 78
1, 84243, Note_on_c, 0, 44, 0
1, 84270, Control_c, 0, 64, 0
1, 84402, Note_on_c, 0, 71, 67
1, 84408, Control_c, 0, 64, 127
1, 84572, Note_on_c, 0, 61, 0
1, 84578, Note_on_c, 0, 40, 62
1, 84587, Note_on_c, 0, 71, 0
1, 84593, Note_on_c, 0, 69, 71
1, 84607, Note_on_c, 0, 45, 0
1, 84607, Control_c, 0, 64, 0
1, 84739, Control_c, 0, 64, 127
1, 84782, Note_on_c, 0, 61, 57
1, 84800, Note_on_c, 0, 69, 0
1, 84804, Note_on_c, 0, 40, 0
1, 84826, Note_on_c, 0, 61, 0
1, 85015, Note_on_c, 0, 59, 60
1, 85020, Note_on_c, 0, 40, 54
1, 85078, Control_c, 0, 64, 0
1, 85220, Note_on_c, 0, 69, 66
1, 85249, Control_c, 0, 64, 127
1, 85397, Note_on_c, 0, 68, 71
1, 85426, Note_on_c, 0, 40, 0
1, 85430, Note_on_c, 0, 69, 0
1, 85569, Note_on_c, 0, 66, 76
1, 85590, Note_on_c, 0, 68, 0
1, 85609, Note_on_c, 0, 59, 0
1, 85744, Note_on_c, 0, 40, 75
1, 85748, Note_on_c, 0, 59, 65
1, 85758, Control_c, 0, 64, 0
1, 85888, Control_c, 0, 64, 127
1, 85903, Note_on_c, 0, 59, 0
1, 85931, Note_on_c, 0, 68, 75
1, 85951, Note_on_c, 0, 66, 0
1, 85972, Note_on_c, 0, 40, 0
1, 86104, Note_on_c, 0, 40, 62
1, 86115, Note_on_c, 0, 62, 59
1, 86115, Control_c, 0, 64, 0
1, 86120, Note_on_c, 0, 68, 0
1, 86217, Control_c, 0, 64, 127
1, 86307, Note_on_c, 0, 71, 59
1, 86310, Note_on_c, 0, 40, 0
1, 86318, Note_on_c, 0, 62, 0
1, 86338, Note_on_c, 0, 71, 0
1, 86526, Note_on_c, 0, 40, 52
1, 86526, Note_on_c, 0, 61, 43
1, 86534, Note_on_c, 0, 69, 62
1, 86566, Control_c, 0, 64, 0
1, 86696, Note_on_c, 0, 39, 66
1, 86725, Note_on_c, 0, 40, 0
1, 86867, Note_on_c, 0, 40, 86
1, 86900, Note_on_c, 0, 39, 0
1, 87031, Note_on_c, 0, 40, 0
1, 87037, Note_on_c, 0, 42, 77
1, 87108, Note_on_c, 0, 69, 0
1, 87122, Note_on_c, 0, 61, 0
1, 87210, Note_on_c, 0, 42, 0
1, 87219, Note_on_c, 0, 40, 88
1, 87381, Note_on_c, 0, 66, 85
1, 87384, Note_on_c, 0, 38, 73
1, 87455, Note_on_c, 0, 40, 0
1, 87561, Note_on_c, 0, 37, 78
1, 87565, Note_on_c, 0, 64, 95
1, 87647, Note_on_c, 0, 66, 0
1, 87651, Note_on_c, 0, 38, 0
1, 87734, Note_on_c, 0, 35, 71
1, 87738, Note_on_c, 0, 68, 86
1, 87751, Control_c, 0, 64, 127
1, 87751, Note_on_c, 0, 62, 70
1, 87754, Note_on_c, 0, 37, 0
1, 87768, Note_on_c, 0, 64, 0
1, 87842, Note_on_c, 0, 62, 0
1, 87864, Note_on_c, 0, 68, 0
1, 87969, Note_on_c, 0, 40, 67
1, 87972, Note_on_c, 0, 71, 66
1, 87976, Note_on_c, 0, 61, 51
1, 87986, Note_on_c, 0, 35, 0
1, 88020, Control_c, 0, 64, 0
1, 88180, Control_c, 0, 64, 127
1, 88200, Note_on_c, 0, 71, 0
1, 88200, Note_on_c, 0, 69, 76
1, 88246, Note_on_c, 0, 61, 0
1, 88276, Note_on_c, 0, 69, 0
1, 88375, Note_on_c, 0, 59, 81
1, 88496, Note_on_c, 0, 40, 0
1, 88523, Note_on_c, 0, 59, 0
1, 88540, Note_on_c, 0, 68, 82
1, 88627, Note_on_c, 0, 68, 0
1, 88716, Note_on_c, 0, 61, 84
1, 88716, Note_on_c, 0, 40, 93
1, 88738, Control_c, 0, 64, 0
1, 88859, Control_c, 0, 64, 127
1, 88902, Note_on_c, 0, 69, 87
1, 88910, Note_on_c, 0, 40, 0
1, 88920, Note_on_c, 0, 61, 0
1, 89061, Note_on_c, 0, 64, 94
1, 89066, Note_on_c, 0, 40, 89
1, 89072, Note_on_c, 0, 69, 0
1, 89079, Control_c, 0, 64, 0
1, 89168, Control_c, 0, 64, 127
1, 89225, Note_on_c, 0, 40, 0
1, 89243, Note_on_c, 0, 73, 91
1, 89252, Note_on_c, 0, 64, 0
1, 89379, Note_on_c, 0, 40, 82
1, 89384, Note_on_c, 0, 62, 84
1, 89399, Note_on_c, 0, 73, 0
1, 89436, Note_on_c, 0, 42, 79
1, 89461, Note_on_c, 0, 40, 0
1, 89507, Note_on_c, 0, 40, 97
1, 89544, Note_on_c, 0, 42, 0
1, 89572, Note_on_c, 0, 39, 90
1, 89590, Note_on_c, 0, 40, 0
1, 89590, Note_on_c, 0, 73, 71
1, 89635, Note_on_c, 0, 40, 99
1, 89671, Note_on_c, 0, 39, 0
1, 89721, Note_on_c, 0, 71, 82
1, 89721, Note_on_c, 0, 42, 97
1, 89748, Note_on_c, 0, 40, 0
1, 89752, Note_on_c, 0, 73, 0
1, 89756, Control_c, 0, 64, 0
1, 89810, Note_on_c, 0, 62, 0
1, 89888, Control_c, 0, 64, 127
1, 89902, Note_on_c, 0, 44, 89
1, 89912, Note_on_c, 0, 62, 86
1, 89952, Note_on_c, 0, 42, 0
1, 89963, Note_on_c, 0, 71, 0
1, 89984, Note_on_c, 0, 62, 0
1, 90091, Note_on_c, 0, 45, 102
1, 90099, Note_on_c, 0, 61, 88
1, 90138, Note_on_c, 0, 44, 0
1, 90146, Control_c, 0, 64, 0
1, 90287, Note_on_c, 0, 71, 70
1, 90297, Control_c, 0, 64, 127
1, 90481, Note_on_c, 0, 40, 71
1, 90485, Note_on_c, 0, 69, 73
1, 90491, Note_on_c, 0, 71, 0
1, 90514, Note_on_c, 0, 61, 0
1, 90522, Note_on_c, 0, 45, 0
1, 90527, Control_c, 0, 64, 0
1, 90646, Control_c, 0, 64, 127
1, 90707, Note_on_c, 0, 61, 60
1, 90727, Note_on_c, 0, 40, 0
1, 90735, Note_on_c, 0, 69, 0
1, 90756, Note_on_c, 0, 61, 0
1, 90962, Note_on_c, 0, 59, 51
1, 90973, Note_on_c, 0, 40, 54
1, 91026, Control_c, 0, 64, 0
1, 91183, Note_on_c, 0, 69, 60
1, 91197, Control_c, 0, 64, 127
1, 91356, Note_on_c, 0, 68, 67
1, 91366, Note_on_c, 0, 69, 0
1, 91465, Note_on_c, 0, 40, 0
1, 91539, Note_on_c, 0, 66, 72
1, 91548, Note_on_c, 0, 68, 0
1, 91561, Note_on_c, 0, 59, 0
1, 91720, Note_on_c, 0, 59, 64
1, 91724, Note_on_c, 0, 40, 59
1, 91735, Control_c, 0, 64, 0
1, 91751, Note_on_c, 0, 66, 0
1, 91835, Control_c, 0, 64, 127
1, 91869, Note_on_c, 0, 59, 0
1, 91893, Note_on_c, 0, 68, 64
1, 91931, Note_on_c, 0, 40, 0
1, 92072, Note_on_c, 0, 68, 0
1, 92075, Note_on_c, 0, 62, 60
1, 92089, Note_on_c, 0, 40, 46
1, 92094, Control_c, 0, 64, 0
1, 92155, Control_c, 0, 64, 127
1, 92277, Note_on_c, 0, 40, 0
1, 92277, Note_on_c, 0, 71, 48
1, 92317, Note_on_c, 0, 62, 0
1, 92322, Note_on_c, 0, 71, 0
1, 92518, Note_on_c, 0, 69, 59
1, 92522, Note_on_c, 0, 33, 41
1, 92529, Note_on_c, 0, 61, 26
1, 92574, Control_c, 0, 64, 0
1, 92694, Control_c, 0, 64, 127
1, 92731, Note_on_c, 0, 64, 70
1, 92759, Note_on_c, 0, 69, 0
1, 92827, Note_on_c, 0, 61, 0
1, 92912, Note_on_c, 0, 66, 74
1, 92928, Note_on_c, 0, 64, 0
1, 93071, Note_on_c, 0, 33, 0
1, 93074, Control_c, 0, 64, 0
1, 93088, Note_on_c, 0, 66, 0
1, 93093, Note_on_c, 0, 64, 88
1, 93270, Note_on_c, 0, 69, 83
1, 93293, Note_on_c, 0, 64, 0
1, 93453, Note_on_c, 0, 64, 71
1, 93479, Note_on_c, 0, 69, 0
1, 93649, Note_on_c, 0, 61, 44
1, 93653, Note_on_c, 0, 76, 83
1, 93663, Note_on_c, 0, 64, 0
1, 93742, Control_c, 0, 64, 127
1, 93858, Note_on_c, 0, 76, 0
1, 93888, Note_on_c, 0, 52, 40
1, 93898, Note_on_c, 0, 61, 0
1, 94108, Note_on_c, 0, 52, 0
1, 94116, Note_on_c, 0, 74, 74
1, 94132, Note_on_c, 0, 64, 36
1, 94132, Note_on_c, 0, 59, 39
1, 94171, Control_c, 0, 64, 0
1, 94294, Note_on_c, 0, 58, 84
1, 94349, Note_on_c, 0, 59, 0
1, 94465, Note_on_c, 0, 59, 74
1, 94528, Note_on_c, 0, 58, 0
1, 94636, Note_on_c, 0, 52, 73
1, 94636, Note_on_c, 0, 76, 91
1, 94655, Note_on_c, 0, 74, 0
1, 94663, Note_on_c, 0, 59, 0
1, 94819, Note_on_c, 0, 74, 89
1, 94824, Note_on_c, 0, 59, 62
1, 94838, Note_on_c, 0, 52, 0
1, 94857, Note_on_c, 0, 76, 0
1, 94961, Control_c, 0, 64, 127
1, 94996, Note_on_c, 0, 52, 70
1, 95019, Note_on_c, 0, 59, 0
1, 95044, Note_on_c, 0, 64, 0
1, 95152, Note_on_c, 0, 73, 87
1, 95161, Note_on_c, 0, 64, 70
1, 95169, Note_on_c, 0, 74, 0
1, 95173, Note_on_c, 0, 57, 69
1, 95177, Note_on_c, 0, 52, 0
1, 95190, Control_c, 0, 64, 0
1, 95310, Control_c, 0, 64, 127
1, 95337, Note_on_c, 0, 57, 0
1, 95337, Note_on_c, 0, 52, 80
1, 95349, Note_on_c, 0, 64, 0
1, 95520, Note_on_c, 0, 52, 0
1, 95537, Note_on_c, 0, 62, 73
1, 95547, Note_on_c, 0, 71, 73
1, 95552, Note_on_c, 0, 68, 64
1, 95577, Note_on_c, 0, 73, 0
1, 95577, Control_c, 0, 64, 0
1, 95720, Note_on_c, 0, 61, 84
1, 95762, Note_on_c, 0, 62, 0
1, 95860, Control_c, 0, 64, 127
1, 95894, Note_on_c, 0, 62, 89
1, 95903, Note_on_c, 0, 61, 0
1, 96051, Note_on_c, 0, 73, 86
1, 96067, Note_on_c, 0, 71, 0
1, 96067, Note_on_c, 0, 52, 76
1, 96082, Note_on_c, 0, 62, 0
1, 96244, Note_on_c, 0, 71, 79
1, 96247, Note_on_c, 0, 62, 76
1, 96256, Note_on_c, 0, 52, 0
1, 96276, Note_on_c, 0, 73, 0
1, 96289, Control_c, 0, 64, 0
1, 96399, Control_c, 0, 64, 127
1, 96412, Note_on_c, 0, 52, 82
1, 96430, Note_on_c, 0, 62, 0
1, 96436, Note_on_c, 0, 71, 0
1, 96440, Note_on_c, 0, 68, 0
1, 96574, Note_on_c, 0, 52, 0
1, 96594, Note_on_c, 0, 69, 78
1, 96594, Note_on_c, 0, 61, 58
1, 96602, Note_on_c, 0, 64, 64
1, 96628, Control_c, 0, 64, 0
1, 96728, Control_c, 0, 64, 127
1, 96766, Note_on_c, 0, 64, 0
1, 96766, Note_on_c, 0, 52, 65
1, 96785, Note_on_c, 0, 69, 0
1, 96805, Note_on_c, 0, 61, 0
1, 96996, Note_on_c, 0, 52, 0
1, 97007, Note_on_c, 0, 76, 79
1, 97010, Note_on_c, 0, 59, 49
1, 97021, Note_on_c, 0, 68, 44
1, 97049, Control_c, 0, 64, 0
1, 97149, Control_c, 0, 64, 127
1, 97174, Note_on_c, 0, 52, 63
1, 97188, Note_on_c, 0, 74, 87
1, 97199, Note_on_c, 0, 76, 0
1, 97238, Note_on_c, 0, 68, 0
1, 97330, Note_on_c, 0, 59, 0
1, 97360, Note_on_c, 0, 73, 84
1, 97364, Note_on_c, 0, 52, 0
1, 97368, Note_on_c, 0, 69, 74
1, 97371, Note_on_c, 0, 57, 65
1, 97388, Control_c, 0, 64, 0
1, 97397, Note_on_c, 0, 74, 0
1, 97498, Control_c, 0, 64, 127
1, 97541, Note_on_c, 0, 52, 60
1, 97560, Note_on_c, 0, 69, 0
1, 97571, Note_on_c, 0, 73, 0
1, 97571, Note_on_c, 0, 57, 0
1, 97712, Note_on_c, 0, 52, 0
1, 97728, Note_on_c, 0, 59, 57
1, 97739, Note_on_c, 0, 76, 70
1, 97743, Note_on_c, 0, 68, 50
1, 97787, Control_c, 0, 64, 0
1, 97876, Control_c, 0, 64, 127
1, 97907, Note_on_c, 0, 52, 59
1, 97921, Note_on_c, 0, 74, 67
1, 97943, Note_on_c, 0, 76, 0
1, 97948, Note_on_c, 0, 68, 0
1, 98007, Note_on_c, 0, 59, 0
1, 98075, Note_on_c, 0, 52, 0
1, 98099, Note_on_c, 0, 73, 70
1, 98103, Note_on_c, 0, 57, 61
1, 98119, Note_on_c, 0, 69, 38
1, 98145, Note_on_c, 0, 74, 0
1, 98145, Control_c, 0, 64, 0
1, 98265, Control_c, 0, 64, 127
1, 98301, Note_on_c, 0, 52, 58
1, 98308, Note_on_c, 0, 69, 0
1, 98311, Note_on_c, 0, 73, 0
1, 98322, Note_on_c, 0, 57, 0
1, 98333, Note_on_c, 0, 52, 0
1, 98523, Note_on_c, 0, 71, 52
1, 98523, Note_on_c, 0, 64, 39
1, 98528, Note_on_c, 0, 68, 44
1, 98567, Control_c, 0, 64, 0
1, 98709, Note_on_c, 0, 63, 66
1, 98754, Note_on_c, 0, 64, 0
1, 98910, Note_on_c, 0, 64, 78
1, 98932, Note_on_c, 0, 63, 0
1, 99075, Note_on_c, 0, 66, 84
1, 99099, Note_on_c, 0, 64, 0
1, 99178, Note_on_c, 0, 71, 0
1, 99255, Control_c, 0, 64, 127
1, 99268, Note_on_c, 0, 64, 85
1, 99276, Note_on_c, 0, 68, 0
1, 99279, Note_on_c, 0, 66, 0
1, 99323, Note_on_c, 0, 64, 0
1, 99446, Note_on_c, 0, 64, 72
1, 99451, Note_on_c, 0, 62, 51
1, 99506, Control_c, 0, 64, 0
1, 99627, Note_on_c, 0, 61, 59
1, 99627, Note_on_c, 0, 66, 69
1, 99651, Note_on_c, 0, 62, 0
1, 99685, Note_on_c, 0, 64, 0
1, 99813, Note_on_c, 0, 61, 0
1, 99813, Note_on_c, 0, 68, 66
1, 99818, Note_on_c, 0, 59, 56
1, 99854, Control_c, 0, 64, 127
1, 99867, Note_on_c, 0, 66, 0
1, 99893, Note_on_c, 0, 68, 0
1, 100024, Note_on_c, 0, 59, 0
1, 100027, Note_on_c, 0, 61, 54
1, 100044, Note_on_c, 0, 69, 50
1, 100044, Control_c, 0, 64, 0
1, 100044, Note_on_c, 0, 76, 57
1, 100221, Note_on_c, 0, 59, 63
1, 100225, Note_on_c, 0, 61, 0
1, 100396, Note_on_c, 0, 61, 65
1, 100410, Note_on_c, 0, 59, 0
1, 100582, Note_on_c, 0, 57, 63
1, 100589, Control_c, 0, 64, 127
1, 100589, Note_on_c, 0, 68, 85
1, 100600, Note_on_c, 0, 69, 0
1, 100604, Note_on_c, 0, 61, 0
1, 100632, Note_on_c, 0, 76, 0
1, 100777, Note_on_c, 0, 69, 89
1, 100777, Note_on_c, 0, 76, 80
1, 100781, Note_on_c, 0, 61, 64
1, 100789, Control_c, 0, 64, 0
1, 100793, Note_on_c, 0, 68, 0
1, 100797, Note_on_c, 0, 57, 0
1, 100918, Control_c, 0, 64, 127
1, 100953, Note_on_c, 0, 57, 65
1, 100997, Note_on_c, 0, 61, 0
1, 101002, Note_on_c, 0, 76, 0
1, 101119, Note_on_c, 0, 76, 101
1, 101128, Note_on_c, 0, 73, 76
1, 101139, Control_c, 0, 64, 0
1, 101139, Note_on_c, 0, 64, 71
1, 101148, Note_on_c, 0, 69, 0
1, 101148, Note_on_c, 0, 57, 0
1, 101258, Control_c, 0, 64, 127
1, 101276, Note_on_c, 0, 76, 0
1, 101286, Note_on_c, 0, 73, 0
1, 101318, Note_on_c, 0, 57, 75
1, 101323, Note_on_c, 0, 64, 0
1, 101471, Note_on_c, 0, 71, 62
1, 101489, Note_on_c, 0, 62, 78
1, 101492, Note_on_c, 0, 57, 0
1, 101499, Control_c, 0, 64, 0
1, 101510, Note_on_c, 0, 76, 95
1, 101538, Note_on_c, 0, 71, 0
1, 101575, Note_on_c, 0, 78, 93
1, 101588, Control_c, 0, 64, 127
1, 101588, Note_on_c, 0, 76, 0
1, 101621, Note_on_c, 0, 57, 62
1, 101635, Note_on_c, 0, 76, 97
1, 101655, Note_on_c, 0, 78, 0
1, 101671, Note_on_c, 0, 62, 0
1, 101722, Note_on_c, 0, 75, 84
1, 101729, Note_on_c, 0, 76, 0
1, 101772, Note_on_c, 0, 76, 113
1, 101792, Note_on_c, 0, 75, 0
1, 101826, Note_on_c, 0, 78, 100
1, 101838, Note_on_c, 0, 62, 69
1, 101861, Note_on_c, 0, 57, 0
1, 101878, Note_on_c, 0, 76, 0
1, 101947, Control_c, 0, 64, 0
1, 101988, Control_c, 0, 64, 127
1, 101999, Note_on_c, 0, 80, 99
1, 102016, Note_on_c, 0, 57, 69
1, 102046, Note_on_c, 0, 78, 0
1, 102063, Note_on_c, 0, 62, 0
1, 102126, Note_on_c, 0, 80, 0
1, 102185, Note_on_c, 0, 81, 87
1, 102193, Note_on_c, 0, 69, 67
1, 102193, Note_on_c, 0, 61, 60
1, 102223, Note_on_c, 0, 57, 0
1, 102237, Control_c, 0, 64, 0
1, 102371, Note_on_c, 0, 57, 36
1, 102377, Control_c, 0, 64, 127
1, 102389, Note_on_c, 0, 61, 0
1, 102556, Note_on_c, 0, 61, 51
1, 102556, Note_on_c, 0, 76, 81
1, 102562, Note_on_c, 0, 57, 0
1, 102565, Note_on_c, 0, 81, 0
1, 102607, Control_c, 0, 64, 0
1, 102697, Control_c, 0, 64, 127
1, 102729, Note_on_c, 0, 57, 55
1, 102736, Note_on_c, 0, 69, 0
1, 102750, Note_on_c, 0, 76, 0
1, 102763, Note_on_c, 0, 61, 0
1, 102923, Note_on_c, 0, 76, 74
1, 102923, Note_on_c, 0, 57, 0
1, 102926, Note_on_c, 0, 68, 52
1, 102932, Note_on_c, 0, 59, 45
1, 102987, Control_c, 0, 64, 0
1, 103084, Note_on_c, 0, 59, 0
1, 103087, Control_c, 0, 64, 127
1, 103096, Note_on_c, 0, 57, 53
1, 103275, Note_on_c, 0, 71, 62
1, 103279, Note_on_c, 0, 62, 52
1, 103282, Note_on_c, 0, 57, 0
1, 103316, Control_c, 0, 64, 0
1, 103365, Note_on_c, 0, 76, 0
1, 103395, Control_c, 0, 64, 127
1, 103458, Note_on_c, 0, 68, 0
1, 103470, Note_on_c, 0, 57, 57
1, 103501, Note_on_c, 0, 62, 0
1, 103504, Note_on_c, 0, 71, 0
1, 103643, Note_on_c, 0, 57, 0
1, 103648, Note_on_c, 0, 68, 59
1, 103648, Note_on_c, 0, 76, 80
1, 103651, Note_on_c, 0, 59, 52
1, 103665, Control_c, 0, 64, 0
1, 103765, Control_c, 0, 64, 127
1, 103800, Note_on_c, 0, 59, 0
1, 103810, Note_on_c, 0, 57, 61
1, 103991, Note_on_c, 0, 71, 69
1, 103995, Note_on_c, 0, 62, 61
1, 103995, Note_on_c, 0, 57, 0
1, 104052, Note_on_c, 0, 68, 0
1, 104157, Note_on_c, 0, 57, 53
1, 104161, Note_on_c, 0, 76, 0
1, 104188, Note_on_c, 0, 62, 0
1, 104310, Note_on_c, 0, 57, 0
1, 104362, Note_on_c, 0, 71, 0
1, 104370, Note_on_c, 0, 61, 63
1, 104376, Note_on_c, 0, 57, 39
1, 104383, Note_on_c, 0, 69, 50
1, 104404, Control_c, 0, 64, 0
1, 104495, Control_c, 0, 64, 127
1, 104498, Note_on_c, 0, 61, 0
1, 104515, Note_on_c, 0, 57, 0
1, 104580, Note_on_c, 0, 57, 52
1, 104755, Note_on_c, 0, 59, 72
1, 104764, Control_c, 0, 64, 0
1, 104775, Note_on_c, 0, 57, 0
1, 104912, Note_on_c, 0, 57, 78
1, 104975, Note_on_c, 0, 59, 0
1, 105087, Note_on_c, 0, 56, 86
1, 105147, Note_on_c, 0, 57, 0
1, 105246, Note_on_c, 0, 73, 90
1, 105250, Note_on_c, 0, 76, 95
1, 105257, Note_on_c, 0, 57, 100
1, 105301, Note_on_c, 0, 69, 0
1, 105318, Note_on_c, 0, 56, 0
1, 105420, Note_on_c, 0, 71, 76
1, 105424, Note_on_c, 0, 59, 84
1, 105424, Note_on_c, 0, 74, 97
1, 105452, Note_on_c, 0, 57, 0
1, 105475, Note_on_c, 0, 76, 0
1, 105492, Note_on_c, 0, 73, 0
1, 105590, Note_on_c, 0, 61, 90
1, 105598, Note_on_c, 0, 73, 86
1, 105598, Note_on_c, 0, 69, 89
1, 105636, Note_on_c, 0, 59, 0
1, 105680, Note_on_c, 0, 71, 0
1, 105719, Note_on_c, 0, 69, 0
1, 105738, Note_on_c, 0, 74, 0
1, 105806, Note_on_c, 0, 62, 81
1, 105806, Note_on_c, 0, 71, 80
1, 105828, Note_on_c, 0, 73, 0
1, 105828, Note_on_c, 0, 68, 75
1, 105842, Note_on_c, 0, 61, 0
1, 106031, Note_on_c, 0, 76, 70
1, 106101, Note_on_c, 0, 68, 0
1, 106101, Control_c, 0, 64, 127
1, 106123, Note_on_c, 0, 71, 0
1, 106183, Note_on_c, 0, 71, 50
1, 106200, Note_on_c, 0, 68, 41
1, 106214, Note_on_c, 0, 76, 0
1, 106352, Note_on_c, 0, 68, 0
1, 106359, Note_on_c, 0, 64, 65
1, 106364, Note_on_c, 0, 76, 85
1, 106367, Note_on_c, 0, 62, 0
1, 106374, Note_on_c, 0, 71, 0
1, 106533, Note_on_c, 0, 62, 75
1, 106544, Note_on_c, 0, 76, 0
1, 106544, Note_on_c, 0, 68, 70
1, 106544, Note_on_c, 0, 71, 65
1, 106571, Control_c, 0, 64, 0
1, 106579, Note_on_c, 0, 64, 0
1, 106692, Control_c, 0, 64, 127
1, 106717, Note_on_c, 0, 76, 91
1, 106753, Note_on_c, 0, 68, 0
1, 106879, Note_on_c, 0, 61, 82
1, 106892, Note_on_c, 0, 69, 91
1, 106902, Note_on_c, 0, 76, 0
1, 106912, Control_c, 0, 64, 0
1, 106961, Note_on_c, 0, 62, 0
1, 107032, Control_c, 0, 64, 127
1, 107063, Note_on_c, 0, 61, 0
1, 107074, Note_on_c, 0, 76, 90
1, 107085, Note_on_c, 0, 69, 0
1, 107085, Note_on_c, 0, 71, 0
1, 107095, Note_on_c, 0, 76, 0
1, 107316, Note_on_c, 0, 59, 58
1, 107316, Note_on_c, 0, 68, 55
1, 107321, Note_on_c, 0, 76, 85
1, 107321, Note_on_c, 0, 50, 76
1, 107371, Control_c, 0, 64, 0
1, 107510, Control_c, 0, 64, 127
1, 107519, Note_on_c, 0, 80, 91
1, 107552, Note_on_c, 0, 76, 0
1, 107676, Note_on_c, 0, 50, 0
1, 107693, Note_on_c, 0, 76, 95
1, 107704, Note_on_c, 0, 80, 0
1, 107707, Note_on_c, 0, 59, 0
1, 107856, Note_on_c, 0, 80, 97
1, 107863, Note_on_c, 0, 61, 79
1, 107866, Note_on_c, 0, 52, 89
1, 107877, Note_on_c, 0, 68, 0
1, 107881, Note_on_c, 0, 76, 0
1, 107939, Note_on_c, 0, 61, 0
1, 107939, Note_on_c, 0, 52, 0
1, 108037, Note_on_c, 0, 68, 83
1, 108040, Note_on_c, 0, 76, 97
1, 108040, Note_on_c, 0, 59, 74
1, 108044, Note_on_c, 0, 80, 0
1, 108044, Note_on_c, 0, 50, 83
1, 108100, Control_c, 0, 64, 0
1, 108206, Note_on_c, 0, 80, 92
1, 108210, Control_c, 0, 64, 127
1, 108217, Note_on_c, 0, 68, 0
1, 108222, Note_on_c, 0, 76, 0
1, 108235, Note_on_c, 0, 59, 0
1, 108246, Note_on_c, 0, 50, 0
1, 108286, Note_on_c, 0, 80, 0
1, 108384, Note_on_c, 0, 69, 81
1, 108387, Note_on_c, 0, 49, 84
1, 108387, Note_on_c, 0, 57, 85
1, 108387, Note_on_c, 0, 76, 99
1, 108420, Control_c, 0, 64, 0
1, 108519, Control_c, 0, 64, 127
1, 108565, Note_on_c, 0, 49, 0
1, 108573, Note_on_c, 0, 81, 100
1, 108579, Note_on_c, 0, 69, 0
1, 108590, Note_on_c, 0, 57, 0
1, 108611, Note_on_c, 0, 76, 0
1, 108611, Note_on_c, 0, 81, 0
1, 108785, Note_on_c, 0, 64, 78
1, 108788, Note_on_c, 0, 83, 71
1, 108801, Note_on_c, 0, 56, 50
1, 108838, Control_c, 0, 64, 0
1, 108979, Note_on_c, 0, 62, 66
1, 108983, Note_on_c, 0, 76, 89
1, 108996, Note_on_c, 0, 83, 0
1, 108996, Control_c, 0, 64, 127
1, 109051, Note_on_c, 0, 64, 0
1, 109073, Note_on_c, 0, 56, 0
1, 109185, Note_on_c, 0, 61, 67
1, 109189, Note_on_c, 0, 76, 0
1, 109189, Note_on_c, 0, 81, 68
1, 109194, Note_on_c, 0, 57, 46
1, 109199, Note_on_c, 0, 62, 0
1, 109238, Control_c, 0, 64, 0
1, 109388, Control_c, 0, 64, 127
1, 109394, Note_on_c, 0, 76, 51
1, 109397, Note_on_c, 0, 81, 0
1, 109405, Note_on_c, 0, 57, 0
1, 109431, Note_on_c, 0, 61, 0
1, 109543, Note_on_c, 0, 76, 0
1, 109572, Note_on_c, 0, 83, 55
1, 109580, Note_on_c, 0, 64, 70
1, 109583, Note_on_c, 0, 56, 55
1, 109608, Control_c, 0, 64, 0
1, 109748, Control_c, 0, 64, 127
1, 109763, Note_on_c, 0, 62, 55
1, 109763, Note_on_c, 0, 76, 65
1, 109780, Note_on_c, 0, 83, 0
1, 109793, Note_on_c, 0, 56, 0
1, 109802, Note_on_c, 0, 64, 0
1, 109943, Note_on_c, 0, 76, 0
1, 109953, Note_on_c, 0, 61, 60
1, 109965, Note_on_c, 0, 81, 45
1, 109969, Note_on_c, 0, 62, 0
1, 109973, Note_on_c, 0, 57, 31
1, 109997, Control_c, 0, 64, 0
1, 110118, Control_c, 0, 64, 127
1, 110134, Note_on_c, 0, 81, 0
1, 110160, Note_on_c, 0, 61, 0
1, 110167, Note_on_c, 0, 76, 70
1, 110171, Note_on_c, 0, 57, 0
1, 110431, Note_on_c, 0, 59, 39
1, 110434, Note_on_c, 0, 76, 0
1, 110437, Note_on_c, 0, 88, 58
1, 110455, Note_on_c, 0, 52, 41
1, 110467, Control_c, 0, 64, 0
1, 110607, Note_on_c, 0, 88, 0
1, 110760, Note_on_c, 0, 76, 59
1, 110966, Note_on_c, 0, 78, 62
1, 110982, Note_on_c, 0, 76, 0
1, 111146, Note_on_c, 0, 59, 0
1, 111151, Note_on_c, 0, 76, 76
1, 111172, Note_on_c, 0, 52, 0
1, 111183, Note_on_c, 0, 78, 0
1, 111339, Note_on_c, 0, 75, 68
1, 111464, Note_on_c, 0, 76, 0
1, 111502, Note_on_c, 0, 78, 70
1, 111561, Note_on_c, 0, 75, 0
1, 111681, Note_on_c, 0, 74, 84
1, 111705, Control_c, 0, 64, 127
1, 111855, Note_on_c, 0, 80, 94
1, 111876, Note_on_c, 0, 74, 0
1, 111885, Note_on_c, 0, 78, 0
1, 111912, Note_on_c, 0, 80, 0
1, 112054, Note_on_c, 0, 83, 66
1, 112060, Note_on_c, 0, 73, 44
1, 112060, Note_on_c, 0, 40, 57
1, 112095, Control_c, 0, 64, 0
1, 112243, Note_on_c, 0, 81, 87
1, 112259, Note_on_c, 0, 83, 0
1, 112264, Control_c, 0, 64, 127
1, 112327, Note_on_c, 0, 73, 0
1, 112361, Note_on_c, 0, 81, 0
1, 112422, Note_on_c, 0, 71, 85
1, 112578, Note_on_c, 0, 71, 0
1, 112591, Note_on_c, 0, 80, 88
1, 112616, Note_on_c, 0, 40, 0
1, 112669, Note_on_c, 0, 80, 0
1, 112755, Note_on_c, 0, 73, 82
1, 112755, Note_on_c, 0, 40, 85
1, 112805, Control_c, 0, 64, 0
1, 112883, Control_c, 0, 64, 127
1, 112938, Note_on_c, 0, 81, 93
1, 112965, Note_on_c, 0, 40, 0
1, 113098, Note_on_c, 0, 40, 84
1, 113098, Note_on_c, 0, 76, 101
1, 113114, Control_c, 0, 64, 0
1, 113127, Note_on_c, 0, 81, 0
1, 113202, Control_c, 0, 64, 127
1, 113254, Note_on_c, 0, 73, 0
1, 113254, Note_on_c, 0, 40, 0
1, 113273, Note_on_c, 0, 85, 92
1, 113287, Note_on_c, 0, 76, 0
1, 113419, Note_on_c, 0, 85, 0
1, 113428, Note_on_c, 0, 74, 96
1, 113436, Note_on_c, 0, 40, 92
1, 113488, Note_on_c, 0, 42, 79
1, 113507, Note_on_c, 0, 40, 0
1, 113558, Note_on_c, 0, 40, 88
1, 113597, Note_on_c, 0, 42, 0
1, 113624, Note_on_c, 0, 85, 88
1, 113629, Note_on_c, 0, 39, 84
1, 113649, Note_on_c, 0, 40, 0
1, 113696, Note_on_c, 0, 40, 96
1, 113728, Note_on_c, 0, 39, 0
1, 113758, Note_on_c, 0, 83, 84
1, 113778, Note_on_c, 0, 85, 0
1, 113778, Note_on_c, 0, 42, 91
1, 113792, Control_c, 0, 64, 0
1, 113814, Note_on_c, 0, 74, 0
1, 113854, Note_on_c, 0, 40, 0
1, 113892, Control_c, 0, 64, 127
1, 113950, Note_on_c, 0, 44, 86
1, 113961, Note_on_c, 0, 74, 90
1, 113987, Note_on_c, 0, 42, 0
1, 114010, Note_on_c, 0, 83, 0
1, 114046, Note_on_c, 0, 74, 0
1, 114132, Note_on_c, 0, 45, 89
1, 114135, Note_on_c, 0, 73, 83
1, 114181, Note_on_c, 0, 44, 0
1, 114213, Control_c, 0, 64, 0
1, 114312, Control_c, 0, 64, 127
1, 114323, Note_on_c, 0, 83, 76
1, 114497, Note_on_c, 0, 40, 64
1, 114500, Note_on_c, 0, 81, 79
1, 114500, Note_on_c, 0, 83, 0
1, 114515, Note_on_c, 0, 73, 0
1, 114518, Note_on_c, 0, 45, 0
1, 114521, Control_c, 0, 64, 0
1, 114622, Control_c, 0, 64, 127
1, 114695, Note_on_c, 0, 73, 70
1, 114706, Note_on_c, 0, 81, 0
1, 114727, Note_on_c, 0, 40, 0
1, 114735, Note_on_c, 0, 73, 0
1, 114932, Note_on_c, 0, 40, 50
1, 114939, Note_on_c, 0, 71, 65
1, 114990, Control_c, 0, 64, 0
1, 115176, Note_on_c, 0, 81, 66
1, 115181, Control_c, 0, 64, 127
1, 115355, Note_on_c, 0, 80, 66
1, 115387, Note_on_c, 0, 81, 0
1, 115509, Note_on_c, 0, 40, 0
1, 115529, Note_on_c, 0, 78, 76
1, 115549, Note_on_c, 0, 80, 0
1, 115564, Note_on_c, 0, 71, 0
1, 115709, Note_on_c, 0, 71, 65
1, 115716, Note_on_c, 0, 40, 55
1, 115740, Control_c, 0, 64, 0
1, 115819, Control_c, 0, 64, 127
1, 115872, Note_on_c, 0, 71, 0
1, 115879, Note_on_c, 0, 80, 68
1, 115904, Note_on_c, 0, 78, 0
1, 115909, Note_on_c, 0, 40, 0
1, 116059, Control_c, 0, 64, 0
1, 116063, Note_on_c, 0, 40, 42
1, 116063, Note_on_c, 0, 74, 80
1, 116088, Note_on_c, 0, 80, 0
1, 116140, Control_c, 0, 64, 127
1, 116255, Note_on_c, 0, 40, 0
1, 116268, Note_on_c, 0, 74, 0
1, 116268, Note_on_c, 0, 83, 73
1, 116323, Note_on_c, 0, 83, 0
1, 116534, Note_on_c, 0, 81, 54
1, 116542, Note_on_c, 0, 73, 43
1, 116548, Note_on_c, 0, 33, 33
1, 116579, Control_c, 0, 64, 0
1, 116698, Control_c, 0, 64, 127
1, 116806, Note_on_c, 0, 73, 0
1, 116830, Note_on_c, 0, 81, 0
1, 116833, Note_on_c, 0, 33, 0
1, 117029, Control_c, 0, 64, 0
1, 117616, Note_on_c, 0, 74, 117
1, 117622, Note_on_c, 0, 69, 110
1, 117622, Note_on_c, 0, 66, 106
1, 118028, Control_c, 0, 64, 127
1, 118095, Note_on_c, 0, 66, 0
1, 118156, Note_on_c, 0, 69, 0
1, 118272, Note_on_c, 0, 74, 0
1, 118741, Note_on_c, 0, 78, 59
1, 118752, Note_on_c, 0, 62, 36
1, 118827, Control_c, 0, 64, 0
1, 118967, Control_c, 0, 64, 127
1, 119156, Note_on_c, 0, 78, 0
1, 119193, Note_on_c, 0, 66, 45
1, 119197, Note_on_c, 0, 74, 62
1, 119206, Note_on_c, 0, 59, 38
1, 119237, Note_on_c, 0, 62, 0
1, 119246, Control_c, 0, 64, 0
1, 119356, Control_c, 0, 64, 127
1, 119429, Note_on_c, 0, 66, 0
1, 119552, Note_on_c, 0, 74, 0
1, 119564, Note_on_c, 0, 64, 56
1, 119564, Note_on_c, 0, 59, 0
1, 119564, Note_on_c, 0, 71, 65
1, 119572, Note_on_c, 0, 68, 43
1, 119595, Control_c, 0, 64, 0
1, 119705, Control_c, 0, 64, 127
1, 119776, Note_on_c, 0, 68, 0
1, 119947, Note_on_c, 0, 52, 51
1, 119950, Note_on_c, 0, 68, 56
1, 119950, Note_on_c, 0, 76, 68
1, 119950, Note_on_c, 0, 71, 0
1, 119961, Note_on_c, 0, 64, 0
1, 119985, Control_c, 0, 64, 0
1, 120084, Control_c, 0, 64, 127
1, 120165, Note_on_c, 0, 76, 0
1, 120234, Note_on_c, 0, 68, 0
1, 120371, Note_on_c, 0, 52, 0
1, 120407, Note_on_c, 0, 74, 67
1, 120417, Note_on_c, 0, 57, 42
1, 120425, Note_on_c, 0, 69, 42
1, 120445, Control_c, 0, 64, 0
1, 120605, Note_on_c, 0, 73, 83
1, 120735, Note_on_c, 0, 74, 0
1, 120778, Note_on_c, 0, 71, 84
1, 120811, Note_on_c, 0, 69, 0
1, 120814, Note_on_c, 0, 57, 0
1, 120870, Note_on_c, 0, 73, 0
1, 120924, Control_c, 0, 64, 127
1, 120973, Note_on_c, 0, 69, 95
1, 121027, Note_on_c, 0, 71, 0
1, 121049, Note_on_c, 0, 69, 0
1, 121321, Note_on_c, 0, 57, 96
1, 121321, Note_on_c, 0, 62, 106
1, 121324, Note_on_c, 0, 54, 83
1, 121363, Control_c, 0, 64, 0
1, 121743, Control_c, 0, 64, 127
1, 121857, Note_on_c, 0, 57, 0
1, 121870, Note_on_c, 0, 54, 0
1, 122255, Note_on_c, 0, 62, 0
1, 122324, Note_on_c, 0, 66, 59
1, 122340, Note_on_c, 0, 50, 40
1, 122402, Control_c, 0, 64, 0
1, 122532, Control_c, 0, 64, 127
1, 122547, Note_on_c, 0, 66, 0
1, 122724, Note_on_c, 0, 62, 59
1, 122724, Note_on_c, 0, 54, 47
1, 122737, Note_on_c, 0, 47, 35
1, 122744, Note_on_c, 0, 50, 0
1, 122771, Control_c, 0, 64, 0
1, 122891, Control_c, 0, 64, 127
1, 122972, Note_on_c, 0, 54, 0
1, 122976, Note_on_c, 0, 62, 0
1, 123112, Note_on_c, 0, 47, 0
1, 123117, Note_on_c, 0, 56, 50
1, 123117, Note_on_c, 0, 52, 47
1, 123126, Note_on_c, 0, 59, 52
1, 123151, Control_c, 0, 64, 0
1, 123280, Control_c, 0, 64, 127
1, 123349, Note_on_c, 0, 56, 0
1, 123396, Note_on_c, 0, 59, 0
1, 123548, Note_on_c, 0, 40, 47
1, 123557, Note_on_c, 0, 64, 56
1, 123557, Note_on_c, 0, 56, 43
1, 123575, Note_on_c, 0, 52, 0
1, 123591, Control_c, 0, 64, 0
1, 123720, Control_c, 0, 64, 127
1, 123776, Note_on_c, 0, 64, 0
1, 123790, Note_on_c, 0, 56, 0
1, 123853, Note_on_c, 0, 40, 0
1, 124029, Note_on_c, 0, 61, 50
1, 124046, Note_on_c, 0, 45, 45
1, 124046, Note_on_c, 0, 57, 34
1, 124100, Control_c, 0, 64, 0
1, 124250, Control_c, 0, 64, 127
1, 124375, Note_on_c, 0, 57, 0
1, 124407, Note_on_c, 0, 45, 0
1, 124459, Control_c, 0, 64, 0
1, 124465, Note_on_c, 0, 61, 0
1, 124962, Note_on_c, 0, 71, 54
1, 124965, Note_on_c, 0, 68, 46
1, 124965, Note_on_c, 0, 64, 46
1, 124998, Control_c, 0, 64, 127
1, 125120, Note_on_c, 0, 64, 0
1, 125133, Note_on_c, 0, 68, 0
1, 125147, Note_on_c, 0, 71, 0
1, 125409, Note_on_c, 0, 76, 70
1, 125422, Note_on_c, 0, 68, 40
1, 125439, Note_on_c, 0, 64, 32
1, 125511, Note_on_c, 0, 64, 0
1, 125543, Note_on_c, 0, 76, 0
1, 125556, Note_on_c, 0, 68, 0
1, 125952, Note_on_c, 0, 73, 52
1, 125973, Note_on_c, 0, 57, 43
1, 125976, Note_on_c, 0, 69, 37
1, 126048, Control_c, 0, 64, 0
1, 126175, Note_on_c, 0, 69, 0
1, 126206, Note_on_c, 0, 57, 0
1, 126261, Note_on_c, 0, 73, 0
1, 127000, Note_on_c, 0, 80, 28
1, 127000, Note_on_c, 0, 40, 35
1, 127008, Note_on_c, 0, 83, 39
1, 127193, Note_on_c, 0, 40, 0
1, 127533, Note_on_c, 0, 88, 45
1, 127933, Note_on_c, 0, 80, 0
1, 128146, Note_on_c, 0, 83, 0
1, 128146, Note_on_c, 0, 88, 0
1, 128150, Note_on_c, 0, 33, 49
1, 128158, Note_on_c, 0, 85, 50
1, 128163, Note_on_c, 0, 81, 28
1, 128207, Note_on_c, 0, 33, 0
1, 128260, Note_on_c, 0, 81, 0
1, 128267, Note_on_c, 0, 85, 0
1, 128794, Control_c, 0, 64, 0
1, 130292, End_track
0, 0, End_of_file
