0, 0, Header, 1, 6, 384
1, 0, Start_track
1, 0, Title_t, "--------"
1, 0, Sequencer_specific, 3, 0, 0, 65
1, 0, Time_signature, 6, 3, 12, 8
1, 0, Key_signature, 0, "major"
1, 0, Tempo, 714286
1, 0, End_track
2, 0, Start_track
2, 0, Title_t, "Bagatelle (No.1 of ""Seven Bagatelles"", Opus 33)"
2, 0, Control_c, 0, 0, 0
2, 0, Control_c, 0, 7, 110
2, 0, Control_c, 0, 10, 79
2, 0, Control_c, 0, 32, 0
2, 1, Program_c, 0, 0
2, 576, Note_on_c, 0, 70, 59
2, 764, Note_on_c, 0, 70, 0
2, 768, Note_on_c, 0, 79, 53
2, 828, Note_on_c, 0, 79, 0
2, 960, Note_on_c, 0, 75, 59
2, 1020, Note_on_c, 0, 75, 0
2, 1152, Note_on_c, 0, 70, 62
2, 1344, Note_on_c, 0, 58, 51
2, 1532, Note_on_c, 0, 58, 0
2, 1532, Note_on_c, 0, 70, 0
2, 1536, Note_on_c, 0, 63, 58
2, 1536, Note_on_c, 0, 67, 79
2, 1704, Note_on_c, 0, 70, 70
2, 1724, Note_on_c, 0, 70, 0
2, 1724, Note_on_c, 0, 67, 0
2, 1724, Note_on_c, 0, 63, 0
2, 1728, Note_on_c, 0, 68, 67
2, 1916, Note_on_c, 0, 68, 0
2, 1920, Note_on_c, 0, 67, 83
2, 2108, Note_on_c, 0, 67, 0
2, 2112, Note_on_c, 0, 63, 51
2, 2112, Note_on_c, 0, 68, 84
2, 2256, Note_on_c, 0, 67, 74
2, 2276, Note_on_c, 0, 67, 0
2, 2280, Note_on_c, 0, 68, 62
2, 2300, Note_on_c, 0, 68, 0
2, 2300, Note_on_c, 0, 68, 0
2, 2300, Note_on_c, 0, 63, 0
2, 2304, Note_on_c, 0, 70, 71
2, 2496, Note_on_c, 0, 58, 51
2, 2684, Note_on_c, 0, 58, 0
2, 2688, Note_on_c, 0, 63, 40
2, 2876, Note_on_c, 0, 63, 0
2, 3068, Note_on_c, 0, 70, 0
2, 3072, Note_on_c, 0, 58, 51
2, 3072, Note_on_c, 0, 68, 74
2, 3260, Note_on_c, 0, 68, 0
2, 3260, Note_on_c, 0, 58, 0
2, 3264, Note_on_c, 0, 63, 52
2, 3264, Note_on_c, 0, 67, 74
2, 3432, Note_on_c, 0, 67, 39
2, 3452, Note_on_c, 0, 67, 0
2, 3452, Note_on_c, 0, 67, 0
2, 3452, Note_on_c, 0, 63, 0
2, 3456, Note_on_c, 0, 65, 81
2, 3644, Note_on_c, 0, 65, 0
2, 3648, Note_on_c, 0, 64, 59
2, 3648, Note_on_c, 0, 56, 62
2, 3836, Note_on_c, 0, 56, 0
2, 3836, Note_on_c, 0, 64, 0
2, 3840, Note_on_c, 0, 65, 59
2, 3840, Note_on_c, 0, 60, 54
2, 4028, Note_on_c, 0, 60, 0
2, 4028, Note_on_c, 0, 65, 0
2, 4032, Note_on_c, 0, 69, 79
2, 4220, Note_on_c, 0, 69, 0
2, 4224, Note_on_c, 0, 70, 61
2, 4284, Note_on_c, 0, 70, 0
2, 4416, Note_on_c, 0, 62, 80
2, 4476, Note_on_c, 0, 62, 0
2, 4608, Note_on_c, 0, 65, 81
2, 4700, Note_on_c, 0, 65, 0
2, 4704, Note_on_c, 0, 63, 65
2, 4796, Note_on_c, 0, 63, 0
2, 4800, Note_on_c, 0, 62, 75
2, 4892, Note_on_c, 0, 62, 0
2, 4896, Note_on_c, 0, 63, 71
2, 4988, Note_on_c, 0, 63, 0
2, 4992, Note_on_c, 0, 65, 76
2, 4992, Note_on_c, 0, 58, 54
2, 5084, Note_on_c, 0, 65, 0
2, 5088, Note_on_c, 0, 67, 85
2, 5180, Note_on_c, 0, 67, 0
2, 5180, Note_on_c, 0, 58, 0
2, 5184, Note_on_c, 0, 68, 75
2, 5244, Note_on_c, 0, 68, 0
2, 5248, Note_on_c, 0, 70, 76
2, 5308, Note_on_c, 0, 70, 0
2, 5312, Note_on_c, 0, 72, 79
2, 5372, Note_on_c, 0, 72, 0
2, 5376, Note_on_c, 0, 74, 83
2, 5376, Note_on_c, 0, 58, 71
2, 5436, Note_on_c, 0, 74, 0
2, 5440, Note_on_c, 0, 75, 84
2, 5500, Note_on_c, 0, 75, 0
2, 5504, Note_on_c, 0, 77, 77
2, 5564, Note_on_c, 0, 77, 0
2, 5564, Note_on_c, 0, 58, 0
2, 5568, Note_on_c, 0, 79, 94
2, 5568, Note_on_c, 0, 63, 69
2, 5600, Note_on_c, 0, 79, 0
2, 5604, Note_on_c, 0, 77, 92
2, 5636, Note_on_c, 0, 77, 0
2, 5640, Note_on_c, 0, 75, 92
2, 5676, Note_on_c, 0, 75, 0
2, 5680, Note_on_c, 0, 74, 85
2, 5716, Note_on_c, 0, 74, 0
2, 5720, Note_on_c, 0, 72, 75
2, 5756, Note_on_c, 0, 72, 0
2, 5756, Note_on_c, 0, 63, 0
2, 5760, Note_on_c, 0, 70, 72
2, 5952, Note_on_c, 0, 58, 61
2, 6140, Note_on_c, 0, 58, 0
2, 6140, Note_on_c, 0, 70, 0
2, 6144, Note_on_c, 0, 63, 65
2, 6144, Note_on_c, 0, 67, 59
2, 6312, Note_on_c, 0, 70, 62
2, 6332, Note_on_c, 0, 70, 0
2, 6332, Note_on_c, 0, 67, 0
2, 6332, Note_on_c, 0, 63, 0
2, 6336, Note_on_c, 0, 68, 67
2, 6524, Note_on_c, 0, 68, 0
2, 6528, Note_on_c, 0, 67, 93
2, 6716, Note_on_c, 0, 67, 0
2, 6720, Note_on_c, 0, 63, 67
2, 6720, Note_on_c, 0, 68, 82
2, 6908, Note_on_c, 0, 68, 0
2, 6908, Note_on_c, 0, 63, 0
2, 6912, Note_on_c, 0, 69, 107
2, 7100, Note_on_c, 0, 69, 0
2, 7104, Note_on_c, 0, 58, 58
2, 7104, Note_on_c, 0, 70, 73
2, 7292, Note_on_c, 0, 58, 0
2, 7296, Note_on_c, 0, 63, 58
2, 7484, Note_on_c, 0, 63, 0
2, 7676, Note_on_c, 0, 70, 0
2, 7680, Note_on_c, 0, 58, 50
2, 7680, Note_on_c, 0, 72, 84
2, 7772, Note_on_c, 0, 72, 0
2, 7776, Note_on_c, 0, 70, 76
2, 7868, Note_on_c, 0, 70, 0
2, 7868, Note_on_c, 0, 58, 0
2, 7872, Note_on_c, 0, 63, 70
2, 7872, Note_on_c, 0, 68, 55
2, 7964, Note_on_c, 0, 68, 0
2, 7968, Note_on_c, 0, 67, 63
2, 8040, Note_on_c, 0, 67, 82
2, 8060, Note_on_c, 0, 67, 0
2, 8060, Note_on_c, 0, 67, 0
2, 8060, Note_on_c, 0, 63, 0
2, 8064, Note_on_c, 0, 65, 73
2, 8252, Note_on_c, 0, 65, 0
2, 8256, Note_on_c, 0, 64, 77
2, 8444, Note_on_c, 0, 64, 0
2, 8448, Note_on_c, 0, 65, 95
2, 8448, Note_on_c, 0, 60, 61
2, 8508, Note_on_c, 0, 60, 0
2, 8636, Note_on_c, 0, 65, 0
2, 8640, Note_on_c, 0, 69, 92
2, 8828, Note_on_c, 0, 69, 0
2, 8832, Note_on_c, 0, 70, 84
2, 8892, Note_on_c, 0, 70, 0
2, 9024, Note_on_c, 0, 62, 78
2, 9084, Note_on_c, 0, 62, 0
2, 9216, Note_on_c, 0, 63, 79
2, 9408, Note_on_c, 0, 58, 63
2, 9596, Note_on_c, 0, 58, 0
2, 9596, Note_on_c, 0, 63, 0
2, 9792, Note_on_c, 0, 58, 63
2, 9852, Note_on_c, 0, 58, 0
2, 9984, Note_on_c, 0, 58, 75
2, 10044, Note_on_c, 0, 58, 0
2, 10176, Note_on_c, 0, 58, 57
2, 10236, Note_on_c, 0, 58, 0
2, 10368, Note_on_c, 0, 70, 88
2, 10748, Note_on_c, 0, 70, 0
2, 10752, Note_on_c, 0, 68, 75
2, 10812, Note_on_c, 0, 68, 0
2, 10944, Note_on_c, 0, 58, 69
2, 11004, Note_on_c, 0, 58, 0
2, 11136, Note_on_c, 0, 58, 80
2, 11196, Note_on_c, 0, 58, 0
2, 11328, Note_on_c, 0, 58, 84
2, 11388, Note_on_c, 0, 58, 0
2, 11520, Note_on_c, 0, 68, 95
2, 11900, Note_on_c, 0, 68, 0
2, 11904, Note_on_c, 0, 67, 70
2, 11964, Note_on_c, 0, 67, 0
2, 12096, Note_on_c, 0, 58, 69
2, 12156, Note_on_c, 0, 58, 0
2, 12288, Note_on_c, 0, 58, 59
2, 12348, Note_on_c, 0, 58, 0
2, 12480, Note_on_c, 0, 58, 66
2, 12540, Note_on_c, 0, 58, 0
2, 12672, Note_on_c, 0, 62, 105
2, 12672, Note_on_c, 0, 44, 93
2, 12672, Note_on_c, 0, 58, 88
2, 12672, Note_on_c, 0, 67, 105
2, 13052, Note_on_c, 0, 67, 0
2, 13056, Note_on_c, 0, 65, 70
2, 13116, Note_on_c, 0, 65, 0
2, 13244, Note_on_c, 0, 58, 0
2, 13244, Note_on_c, 0, 44, 0
2, 13244, Note_on_c, 0, 62, 0
2, 13440, Note_on_c, 0, 65, 74
2, 13440, Note_on_c, 0, 62, 66
2, 13440, Note_on_c, 0, 41, 61
2, 13440, Note_on_c, 0, 58, 40
2, 13500, Note_on_c, 0, 58, 0
2, 13500, Note_on_c, 0, 65, 0
2, 13500, Note_on_c, 0, 62, 0
2, 13500, Note_on_c, 0, 41, 0
2, 13632, Note_on_c, 0, 67, 83
2, 13632, Note_on_c, 0, 39, 68
2, 13632, Note_on_c, 0, 58, 51
2, 13632, Note_on_c, 0, 63, 65
2, 13692, Note_on_c, 0, 63, 0
2, 13692, Note_on_c, 0, 67, 0
2, 13692, Note_on_c, 0, 39, 0
2, 13692, Note_on_c, 0, 58, 0
2, 13824, Note_on_c, 0, 65, 81
2, 13824, Note_on_c, 0, 62, 75
2, 13824, Note_on_c, 0, 58, 46
2, 13824, Note_on_c, 0, 46, 60
2, 14396, Note_on_c, 0, 46, 0
2, 14396, Note_on_c, 0, 65, 0
2, 14396, Note_on_c, 0, 62, 0
2, 14396, Note_on_c, 0, 58, 0
2, 14400, Note_on_c, 0, 70, 64
2, 14460, Note_on_c, 0, 70, 0
2, 14592, Note_on_c, 0, 70, 70
2, 14652, Note_on_c, 0, 70, 0
2, 14784, Note_on_c, 0, 70, 75
2, 14844, Note_on_c, 0, 70, 0
2, 14976, Note_on_c, 0, 70, 89
2, 14976, Note_on_c, 0, 65, 87
2, 14976, Note_on_c, 0, 62, 89
2, 14976, Note_on_c, 0, 82, 98
2, 15356, Note_on_c, 0, 82, 0
2, 15360, Note_on_c, 0, 80, 77
2, 15420, Note_on_c, 0, 80, 0
2, 15548, Note_on_c, 0, 62, 0
2, 15548, Note_on_c, 0, 65, 0
2, 15548, Note_on_c, 0, 70, 0
2, 15552, Note_on_c, 0, 70, 68
2, 15612, Note_on_c, 0, 70, 0
2, 15744, Note_on_c, 0, 70, 77
2, 15804, Note_on_c, 0, 70, 0
2, 15936, Note_on_c, 0, 70, 73
2, 15996, Note_on_c, 0, 70, 0
2, 16128, Note_on_c, 0, 70, 94
2, 16128, Note_on_c, 0, 63, 90
2, 16128, Note_on_c, 0, 67, 94
2, 16128, Note_on_c, 0, 80, 95
2, 16508, Note_on_c, 0, 80, 0
2, 16512, Note_on_c, 0, 79, 73
2, 16572, Note_on_c, 0, 79, 0
2, 16700, Note_on_c, 0, 67, 0
2, 16700, Note_on_c, 0, 63, 0
2, 16700, Note_on_c, 0, 70, 0
2, 16704, Note_on_c, 0, 70, 65
2, 16764, Note_on_c, 0, 70, 0
2, 16896, Note_on_c, 0, 70, 64
2, 16956, Note_on_c, 0, 70, 0
2, 17088, Note_on_c, 0, 70, 72
2, 17148, Note_on_c, 0, 70, 0
2, 17280, Note_on_c, 0, 68, 98
2, 17280, Note_on_c, 0, 70, 79
2, 17280, Note_on_c, 0, 74, 99
2, 17280, Note_on_c, 0, 79, 97
2, 17660, Note_on_c, 0, 79, 0
2, 17664, Note_on_c, 0, 77, 80
2, 17724, Note_on_c, 0, 77, 0
2, 17852, Note_on_c, 0, 74, 0
2, 17852, Note_on_c, 0, 70, 0
2, 17852, Note_on_c, 0, 68, 0
2, 17856, Note_on_c, 0, 70, 74
2, 17856, Note_on_c, 0, 75, 84
2, 17856, Note_on_c, 0, 67, 83
2, 17916, Note_on_c, 0, 67, 0
2, 17916, Note_on_c, 0, 75, 0
2, 17916, Note_on_c, 0, 70, 0
2, 18048, Note_on_c, 0, 77, 82
2, 18048, Note_on_c, 0, 74, 70
2, 18048, Note_on_c, 0, 65, 57
2, 18108, Note_on_c, 0, 65, 0
2, 18108, Note_on_c, 0, 74, 0
2, 18108, Note_on_c, 0, 77, 0
2, 18240, Note_on_c, 0, 79, 84
2, 18240, Note_on_c, 0, 75, 75
2, 18240, Note_on_c, 0, 63, 71
2, 18300, Note_on_c, 0, 63, 0
2, 18300, Note_on_c, 0, 75, 0
2, 18300, Note_on_c, 0, 79, 0
2, 18432, Note_on_c, 0, 70, 54
2, 18432, Note_on_c, 0, 77, 70
2, 18432, Note_on_c, 0, 74, 62
2, 19004, Note_on_c, 0, 74, 0
2, 19004, Note_on_c, 0, 77, 0
2, 19004, Note_on_c, 0, 70, 0
2, 19008, Note_on_c, 0, 58, 73
2, 19008, Note_on_c, 0, 55, 75
2, 19008, Note_on_c, 0, 63, 78
2, 19068, Note_on_c, 0, 63, 0
2, 19068, Note_on_c, 0, 55, 0
2, 19068, Note_on_c, 0, 58, 0
2, 19200, Note_on_c, 0, 62, 76
2, 19200, Note_on_c, 0, 65, 74
2, 19200, Note_on_c, 0, 53, 44
2, 19260, Note_on_c, 0, 53, 0
2, 19260, Note_on_c, 0, 65, 0
2, 19260, Note_on_c, 0, 62, 0
2, 19392, Note_on_c, 0, 63, 77
2, 19392, Note_on_c, 0, 67, 89
2, 19392, Note_on_c, 0, 51, 76
2, 19452, Note_on_c, 0, 51, 0
2, 19452, Note_on_c, 0, 67, 0
2, 19452, Note_on_c, 0, 63, 0
2, 19584, Note_on_c, 0, 58, 64
2, 19584, Note_on_c, 0, 65, 76
2, 19584, Note_on_c, 0, 62, 65
2, 20156, Note_on_c, 0, 62, 0
2, 20156, Note_on_c, 0, 65, 0
2, 20156, Note_on_c, 0, 58, 0
2, 20160, Note_on_c, 0, 67, 73
2, 20160, Note_on_c, 0, 70, 62
2, 20160, Note_on_c, 0, 75, 75
2, 20220, Note_on_c, 0, 75, 0
2, 20220, Note_on_c, 0, 70, 0
2, 20220, Note_on_c, 0, 67, 0
2, 20352, Note_on_c, 0, 65, 61
2, 20352, Note_on_c, 0, 74, 78
2, 20352, Note_on_c, 0, 77, 74
2, 20412, Note_on_c, 0, 77, 0
2, 20412, Note_on_c, 0, 74, 0
2, 20412, Note_on_c, 0, 65, 0
2, 20544, Note_on_c, 0, 75, 69
2, 20544, Note_on_c, 0, 79, 82
2, 20544, Note_on_c, 0, 63, 70
2, 20604, Note_on_c, 0, 63, 0
2, 20604, Note_on_c, 0, 79, 0
2, 20604, Note_on_c, 0, 75, 0
2, 20736, Note_on_c, 0, 77, 74
2, 20736, Note_on_c, 0, 74, 68
2, 20736, Note_on_c, 0, 70, 61
2, 21308, Note_on_c, 0, 70, 0
2, 21308, Note_on_c, 0, 74, 0
2, 21308, Note_on_c, 0, 77, 0
2, 21312, Note_on_c, 0, 75, 82
2, 21312, Note_on_c, 0, 67, 73
2, 21312, Note_on_c, 0, 70, 53
2, 21372, Note_on_c, 0, 70, 0
2, 21372, Note_on_c, 0, 67, 0
2, 21372, Note_on_c, 0, 75, 0
2, 21504, Note_on_c, 0, 65, 73
2, 21504, Note_on_c, 0, 74, 67
2, 21504, Note_on_c, 0, 77, 78
2, 21564, Note_on_c, 0, 77, 0
2, 21564, Note_on_c, 0, 74, 0
2, 21564, Note_on_c, 0, 65, 0
2, 21696, Note_on_c, 0, 63, 77
2, 21696, Note_on_c, 0, 79, 82
2, 21696, Note_on_c, 0, 75, 58
2, 21756, Note_on_c, 0, 75, 0
2, 21756, Note_on_c, 0, 79, 0
2, 21756, Note_on_c, 0, 63, 0
2, 21888, Note_on_c, 0, 77, 75
2, 21888, Note_on_c, 0, 74, 71
2, 21888, Note_on_c, 0, 58, 59
2, 22172, Note_on_c, 0, 58, 0
2, 22172, Note_on_c, 0, 74, 0
2, 22172, Note_on_c, 0, 77, 0
2, 22176, Note_on_c, 0, 70, 63
2, 22176, Note_on_c, 0, 75, 72
2, 22176, Note_on_c, 0, 67, 67
2, 22204, Note_on_c, 0, 67, 0
2, 22204, Note_on_c, 0, 75, 0
2, 22204, Note_on_c, 0, 70, 0
2, 22272, Note_on_c, 0, 65, 64
2, 22272, Note_on_c, 0, 74, 63
2, 22272, Note_on_c, 0, 77, 67
2, 22300, Note_on_c, 0, 77, 0
2, 22300, Note_on_c, 0, 74, 0
2, 22300, Note_on_c, 0, 65, 0
2, 22368, Note_on_c, 0, 63, 76
2, 22368, Note_on_c, 0, 79, 79
2, 22368, Note_on_c, 0, 75, 71
2, 22396, Note_on_c, 0, 75, 0
2, 22396, Note_on_c, 0, 79, 0
2, 22396, Note_on_c, 0, 63, 0
2, 22464, Note_on_c, 0, 70, 68
2, 22464, Note_on_c, 0, 74, 70
2, 22464, Note_on_c, 0, 77, 74
2, 22748, Note_on_c, 0, 77, 0
2, 22748, Note_on_c, 0, 74, 0
2, 22748, Note_on_c, 0, 70, 0
2, 22752, Note_on_c, 0, 70, 62
2, 22752, Note_on_c, 0, 75, 75
2, 22752, Note_on_c, 0, 67, 67
2, 22780, Note_on_c, 0, 67, 0
2, 22780, Note_on_c, 0, 75, 0
2, 22780, Note_on_c, 0, 70, 0
2, 22848, Note_on_c, 0, 77, 78
2, 22848, Note_on_c, 0, 65, 66
2, 22848, Note_on_c, 0, 74, 69
2, 22876, Note_on_c, 0, 74, 0
2, 22876, Note_on_c, 0, 65, 0
2, 22876, Note_on_c, 0, 77, 0
2, 22944, Note_on_c, 0, 75, 76
2, 22944, Note_on_c, 0, 79, 83
2, 22944, Note_on_c, 0, 63, 73
2, 22972, Note_on_c, 0, 63, 0
2, 22972, Note_on_c, 0, 79, 0
2, 22972, Note_on_c, 0, 75, 0
2, 23040, Note_on_c, 0, 58, 71
2, 23040, Note_on_c, 0, 74, 81
2, 23040, Note_on_c, 0, 77, 75
2, 23068, Note_on_c, 0, 77, 0
2, 23068, Note_on_c, 0, 74, 0
2, 23068, Note_on_c, 0, 58, 0
2, 23136, Note_on_c, 0, 67, 70
2, 23136, Note_on_c, 0, 70, 67
2, 23136, Note_on_c, 0, 75, 72
2, 23164, Note_on_c, 0, 75, 0
2, 23164, Note_on_c, 0, 70, 0
2, 23164, Note_on_c, 0, 67, 0
2, 23232, Note_on_c, 0, 65, 72
2, 23232, Note_on_c, 0, 74, 83
2, 23232, Note_on_c, 0, 77, 82
2, 23260, Note_on_c, 0, 77, 0
2, 23260, Note_on_c, 0, 74, 0
2, 23260, Note_on_c, 0, 65, 0
2, 23328, Note_on_c, 0, 75, 88
2, 23328, Note_on_c, 0, 79, 92
2, 23328, Note_on_c, 0, 63, 87
2, 23356, Note_on_c, 0, 63, 0
2, 23356, Note_on_c, 0, 79, 0
2, 23356, Note_on_c, 0, 75, 0
2, 23424, Note_on_c, 0, 58, 80
2, 23424, Note_on_c, 0, 77, 87
2, 23424, Note_on_c, 0, 74, 88
2, 23452, Note_on_c, 0, 74, 0
2, 23452, Note_on_c, 0, 77, 0
2, 23452, Note_on_c, 0, 58, 0
2, 23520, Note_on_c, 0, 67, 83
2, 23520, Note_on_c, 0, 75, 88
2, 23520, Note_on_c, 0, 70, 79
2, 23548, Note_on_c, 0, 70, 0
2, 23548, Note_on_c, 0, 75, 0
2, 23548, Note_on_c, 0, 67, 0
2, 23616, Note_on_c, 0, 65, 66
2, 23616, Note_on_c, 0, 74, 81
2, 23616, Note_on_c, 0, 77, 85
2, 23644, Note_on_c, 0, 77, 0
2, 23644, Note_on_c, 0, 74, 0
2, 23644, Note_on_c, 0, 65, 0
2, 23712, Note_on_c, 0, 79, 90
2, 23712, Note_on_c, 0, 75, 89
2, 23712, Note_on_c, 0, 63, 82
2, 23740, Note_on_c, 0, 63, 0
2, 23740, Note_on_c, 0, 75, 0
2, 23740, Note_on_c, 0, 79, 0
2, 23808, Note_on_c, 0, 77, 96
2, 23808, Note_on_c, 0, 74, 89
2, 23808, Note_on_c, 0, 58, 77
2, 23836, Note_on_c, 0, 58, 0
2, 23836, Note_on_c, 0, 74, 0
2, 23836, Note_on_c, 0, 77, 0
2, 23904, Note_on_c, 0, 75, 100
2, 23904, Note_on_c, 0, 70, 92
2, 23904, Note_on_c, 0, 67, 87
2, 23932, Note_on_c, 0, 67, 0
2, 23932, Note_on_c, 0, 70, 0
2, 23932, Note_on_c, 0, 75, 0
2, 24000, Note_on_c, 0, 65, 87
2, 24000, Note_on_c, 0, 74, 103
2, 24000, Note_on_c, 0, 77, 99
2, 24028, Note_on_c, 0, 77, 0
2, 24028, Note_on_c, 0, 74, 0
2, 24028, Note_on_c, 0, 65, 0
2, 24096, Note_on_c, 0, 79, 112
2, 24096, Note_on_c, 0, 63, 99
2, 24096, Note_on_c, 0, 75, 68
2, 24124, Note_on_c, 0, 75, 0
2, 24124, Note_on_c, 0, 63, 0
2, 24124, Note_on_c, 0, 79, 0
2, 24192, Note_on_c, 0, 74, 118
2, 24192, Note_on_c, 0, 77, 111
2, 24192, Note_on_c, 0, 58, 104
2, 24380, Note_on_c, 0, 58, 0
2, 24380, Note_on_c, 0, 77, 0
2, 24380, Note_on_c, 0, 74, 0
2, 24576, Note_on_c, 0, 77, 96
2, 24620, Note_on_c, 0, 77, 0
2, 24624, Note_on_c, 0, 75, 98
2, 24668, Note_on_c, 0, 75, 0
2, 24672, Note_on_c, 0, 74, 101
2, 24716, Note_on_c, 0, 74, 0
2, 24720, Note_on_c, 0, 72, 90
2, 24764, Note_on_c, 0, 72, 0
2, 24768, Note_on_c, 0, 70, 98
2, 24828, Note_on_c, 0, 70, 0
2, 25152, Note_on_c, 0, 77, 98
2, 25196, Note_on_c, 0, 77, 0
2, 25200, Note_on_c, 0, 75, 98
2, 25244, Note_on_c, 0, 75, 0
2, 25248, Note_on_c, 0, 74, 99
2, 25292, Note_on_c, 0, 74, 0
2, 25296, Note_on_c, 0, 72, 93
2, 25340, Note_on_c, 0, 72, 0
2, 25344, Note_on_c, 0, 70, 93
2, 25404, Note_on_c, 0, 70, 0
2, 26304, Note_on_c, 0, 77, 69
2, 26348, Note_on_c, 0, 77, 0
2, 26352, Note_on_c, 0, 75, 75
2, 26396, Note_on_c, 0, 75, 0
2, 26400, Note_on_c, 0, 74, 55
2, 26444, Note_on_c, 0, 74, 0
2, 26448, Note_on_c, 0, 72, 67
2, 26492, Note_on_c, 0, 72, 0
2, 26496, Note_on_c, 0, 70, 73
2, 26556, Note_on_c, 0, 70, 0
2, 26880, Note_on_c, 0, 79, 85
2, 26912, Note_on_c, 0, 79, 0
2, 26916, Note_on_c, 0, 77, 81
2, 26948, Note_on_c, 0, 77, 0
2, 26952, Note_on_c, 0, 75, 79
2, 26988, Note_on_c, 0, 75, 0
2, 26992, Note_on_c, 0, 74, 73
2, 27028, Note_on_c, 0, 74, 0
2, 27032, Note_on_c, 0, 72, 64
2, 27068, Note_on_c, 0, 72, 0
2, 27072, Note_on_c, 0, 70, 87
2, 27132, Note_on_c, 0, 70, 0
2, 27264, Note_on_c, 0, 80, 91
2, 27292, Note_on_c, 0, 80, 0
2, 27296, Note_on_c, 0, 79, 95
2, 27324, Note_on_c, 0, 79, 0
2, 27328, Note_on_c, 0, 77, 97
2, 27356, Note_on_c, 0, 77, 0
2, 27360, Note_on_c, 0, 75, 100
2, 27388, Note_on_c, 0, 75, 0
2, 27392, Note_on_c, 0, 74, 97
2, 27420, Note_on_c, 0, 74, 0
2, 27424, Note_on_c, 0, 72, 94
2, 27452, Note_on_c, 0, 72, 0
2, 27456, Note_on_c, 0, 70, 78
2, 27484, Note_on_c, 0, 70, 0
2, 27552, Note_on_c, 0, 82, 91
2, 27644, Note_on_c, 0, 82, 0
2, 27648, Note_on_c, 0, 80, 97
2, 27740, Note_on_c, 0, 80, 0
2, 27744, Note_on_c, 0, 79, 99
2, 27836, Note_on_c, 0, 79, 0
2, 27840, Note_on_c, 0, 77, 102
2, 27932, Note_on_c, 0, 77, 0
2, 27936, Note_on_c, 0, 75, 106
2, 28028, Note_on_c, 0, 75, 0
2, 28032, Note_on_c, 0, 74, 114
2, 28124, Note_on_c, 0, 74, 0
2, 28128, Note_on_c, 0, 72, 103
2, 28220, Note_on_c, 0, 72, 0
2, 28224, Note_on_c, 0, 70, 95
2, 28412, Note_on_c, 0, 70, 0
2, 28416, Note_on_c, 0, 79, 61
2, 28476, Note_on_c, 0, 79, 0
2, 28608, Note_on_c, 0, 75, 60
2, 28668, Note_on_c, 0, 75, 0
2, 28800, Note_on_c, 0, 70, 62
2, 28992, Note_on_c, 0, 58, 51
2, 29180, Note_on_c, 0, 58, 0
2, 29180, Note_on_c, 0, 70, 0
2, 29184, Note_on_c, 0, 63, 58
2, 29184, Note_on_c, 0, 67, 79
2, 29352, Note_on_c, 0, 70, 70
2, 29372, Note_on_c, 0, 70, 0
2, 29372, Note_on_c, 0, 67, 0
2, 29372, Note_on_c, 0, 63, 0
2, 29376, Note_on_c, 0, 68, 67
2, 29564, Note_on_c, 0, 68, 0
2, 29568, Note_on_c, 0, 67, 83
2, 29756, Note_on_c, 0, 67, 0
2, 29760, Note_on_c, 0, 63, 51
2, 29760, Note_on_c, 0, 68, 84
2, 29904, Note_on_c, 0, 67, 74
2, 29924, Note_on_c, 0, 67, 0
2, 29928, Note_on_c, 0, 68, 62
2, 29948, Note_on_c, 0, 68, 0
2, 29948, Note_on_c, 0, 68, 0
2, 29948, Note_on_c, 0, 63, 0
2, 29952, Note_on_c, 0, 70, 71
2, 30144, Note_on_c, 0, 58, 51
2, 30332, Note_on_c, 0, 58, 0
2, 30336, Note_on_c, 0, 63, 40
2, 30524, Note_on_c, 0, 63, 0
2, 30716, Note_on_c, 0, 70, 0
2, 30720, Note_on_c, 0, 58, 51
2, 30720, Note_on_c, 0, 68, 74
2, 30908, Note_on_c, 0, 68, 0
2, 30908, Note_on_c, 0, 58, 0
2, 30912, Note_on_c, 0, 63, 52
2, 30912, Note_on_c, 0, 67, 74
2, 31080, Note_on_c, 0, 67, 39
2, 31100, Note_on_c, 0, 67, 0
2, 31100, Note_on_c, 0, 67, 0
2, 31100, Note_on_c, 0, 63, 0
2, 31104, Note_on_c, 0, 65, 81
2, 31292, Note_on_c, 0, 65, 0
2, 31296, Note_on_c, 0, 64, 59
2, 31296, Note_on_c, 0, 56, 62
2, 31484, Note_on_c, 0, 56, 0
2, 31484, Note_on_c, 0, 64, 0
2, 31488, Note_on_c, 0, 65, 59
2, 31488, Note_on_c, 0, 60, 54
2, 31488, Note_on_c, 0, 65, 89
2, 31580, Note_on_c, 0, 65, 0
2, 31676, Note_on_c, 0, 65, 0
2, 31676, Note_on_c, 0, 60, 0
2, 31680, Note_on_c, 0, 69, 79
2, 31868, Note_on_c, 0, 69, 0
2, 31872, Note_on_c, 0, 70, 61
2, 31932, Note_on_c, 0, 70, 0
2, 32064, Note_on_c, 0, 62, 80
2, 32124, Note_on_c, 0, 62, 0
2, 32256, Note_on_c, 0, 65, 89
2, 32348, Note_on_c, 0, 65, 0
2, 32352, Note_on_c, 0, 63, 69
2, 32444, Note_on_c, 0, 63, 0
2, 32448, Note_on_c, 0, 62, 68
2, 32540, Note_on_c, 0, 62, 0
2, 32544, Note_on_c, 0, 63, 71
2, 32636, Note_on_c, 0, 63, 0
2, 32640, Note_on_c, 0, 67, 97
2, 32640, Note_on_c, 0, 58, 54
2, 32732, Note_on_c, 0, 67, 0
2, 32736, Note_on_c, 0, 63, 86
2, 32828, Note_on_c, 0, 63, 0
2, 32828, Note_on_c, 0, 58, 0
2, 32832, Note_on_c, 0, 70, 86
2, 32924, Note_on_c, 0, 70, 0
2, 32928, Note_on_c, 0, 67, 99
2, 33020, Note_on_c, 0, 67, 0
2, 33024, Note_on_c, 0, 75, 95
2, 33024, Note_on_c, 0, 58, 69
2, 33084, Note_on_c, 0, 75, 0
2, 33088, Note_on_c, 0, 70, 94
2, 33148, Note_on_c, 0, 70, 0
2, 33152, Note_on_c, 0, 67, 97
2, 33212, Note_on_c, 0, 67, 0
2, 33212, Note_on_c, 0, 58, 0
2, 33216, Note_on_c, 0, 79, 79
2, 33216, Note_on_c, 0, 63, 69
2, 33276, Note_on_c, 0, 79, 0
2, 33280, Note_on_c, 0, 75, 70
2, 33340, Note_on_c, 0, 75, 0
2, 33344, Note_on_c, 0, 70, 60
2, 33404, Note_on_c, 0, 70, 0
2, 33404, Note_on_c, 0, 63, 0
2, 33408, Note_on_c, 0, 68, 63
2, 33500, Note_on_c, 0, 68, 0
2, 33504, Note_on_c, 0, 67, 72
2, 33596, Note_on_c, 0, 67, 0
2, 33600, Note_on_c, 0, 58, 57
2, 33600, Note_on_c, 0, 66, 83
2, 33692, Note_on_c, 0, 66, 0
2, 33696, Note_on_c, 0, 67, 79
2, 33788, Note_on_c, 0, 67, 0
2, 33788, Note_on_c, 0, 58, 0
2, 33792, Note_on_c, 0, 63, 65
2, 33792, Note_on_c, 0, 66, 84
2, 33884, Note_on_c, 0, 66, 0
2, 33888, Note_on_c, 0, 67, 90
2, 33980, Note_on_c, 0, 67, 0
2, 33980, Note_on_c, 0, 63, 0
2, 33984, Note_on_c, 0, 70, 88
2, 34076, Note_on_c, 0, 70, 0
2, 34080, Note_on_c, 0, 68, 80
2, 34172, Note_on_c, 0, 68, 0
2, 34176, Note_on_c, 0, 67, 85
2, 34268, Note_on_c, 0, 67, 0
2, 34272, Note_on_c, 0, 68, 80
2, 34364, Note_on_c, 0, 68, 0
2, 34368, Note_on_c, 0, 63, 70
2, 34368, Note_on_c, 0, 67, 97
2, 34460, Note_on_c, 0, 67, 0
2, 34464, Note_on_c, 0, 68, 88
2, 34556, Note_on_c, 0, 68, 0
2, 34556, Note_on_c, 0, 63, 0
2, 34560, Note_on_c, 0, 72, 97
2, 34652, Note_on_c, 0, 72, 0
2, 34656, Note_on_c, 0, 70, 91
2, 34748, Note_on_c, 0, 70, 0
2, 34752, Note_on_c, 0, 58, 72
2, 34752, Note_on_c, 0, 69, 85
2, 34844, Note_on_c, 0, 69, 0
2, 34848, Note_on_c, 0, 70, 63
2, 34940, Note_on_c, 0, 70, 0
2, 34940, Note_on_c, 0, 58, 0
2, 34944, Note_on_c, 0, 63, 51
2, 34944, Note_on_c, 0, 69, 69
2, 35036, Note_on_c, 0, 69, 0
2, 35040, Note_on_c, 0, 70, 54
2, 35132, Note_on_c, 0, 70, 0
2, 35132, Note_on_c, 0, 63, 0
2, 35136, Note_on_c, 0, 69, 77
2, 35228, Note_on_c, 0, 69, 0
2, 35232, Note_on_c, 0, 70, 65
2, 35324, Note_on_c, 0, 70, 0
2, 35328, Note_on_c, 0, 58, 34
2, 35328, Note_on_c, 0, 72, 63
2, 35420, Note_on_c, 0, 72, 0
2, 35424, Note_on_c, 0, 68, 57
2, 35516, Note_on_c, 0, 68, 0
2, 35516, Note_on_c, 0, 58, 0
2, 35520, Note_on_c, 0, 63, 48
2, 35520, Note_on_c, 0, 67, 72
2, 35612, Note_on_c, 0, 67, 0
2, 35616, Note_on_c, 0, 65, 73
2, 35708, Note_on_c, 0, 65, 0
2, 35708, Note_on_c, 0, 63, 0
2, 35712, Note_on_c, 0, 67, 65
2, 35804, Note_on_c, 0, 67, 0
2, 35808, Note_on_c, 0, 65, 70
2, 35900, Note_on_c, 0, 65, 0
2, 35904, Note_on_c, 0, 64, 69
2, 35996, Note_on_c, 0, 64, 0
2, 36000, Note_on_c, 0, 65, 81
2, 36092, Note_on_c, 0, 65, 0
2, 36096, Note_on_c, 0, 60, 73
2, 36096, Note_on_c, 0, 67, 98
2, 36188, Note_on_c, 0, 67, 0
2, 36192, Note_on_c, 0, 68, 82
2, 36284, Note_on_c, 0, 68, 0
2, 36284, Note_on_c, 0, 60, 0
2, 36288, Note_on_c, 0, 69, 92
2, 36380, Note_on_c, 0, 69, 0
2, 36384, Note_on_c, 0, 70, 90
2, 36476, Note_on_c, 0, 70, 0
2, 36480, Note_on_c, 0, 62, 81
2, 36572, Note_on_c, 0, 62, 0
2, 36576, Note_on_c, 0, 70, 66
2, 36668, Note_on_c, 0, 70, 0
2, 36672, Note_on_c, 0, 62, 47
2, 36764, Note_on_c, 0, 62, 0
2, 37440, Note_on_c, 0, 70, 59
2, 37628, Note_on_c, 0, 70, 0
2, 37632, Note_on_c, 0, 79, 53
2, 37692, Note_on_c, 0, 79, 0
2, 37824, Note_on_c, 0, 75, 59
2, 37884, Note_on_c, 0, 75, 0
2, 38016, Note_on_c, 0, 70, 62
2, 38208, Note_on_c, 0, 58, 51
2, 38396, Note_on_c, 0, 58, 0
2, 38396, Note_on_c, 0, 70, 0
2, 38400, Note_on_c, 0, 63, 58
2, 38400, Note_on_c, 0, 67, 79
2, 38568, Note_on_c, 0, 70, 70
2, 38588, Note_on_c, 0, 70, 0
2, 38588, Note_on_c, 0, 67, 0
2, 38588, Note_on_c, 0, 63, 0
2, 38592, Note_on_c, 0, 68, 67
2, 38780, Note_on_c, 0, 68, 0
2, 38784, Note_on_c, 0, 67, 83
2, 38972, Note_on_c, 0, 67, 0
2, 38976, Note_on_c, 0, 63, 51
2, 38976, Note_on_c, 0, 68, 84
2, 39120, Note_on_c, 0, 67, 74
2, 39140, Note_on_c, 0, 67, 0
2, 39144, Note_on_c, 0, 68, 62
2, 39164, Note_on_c, 0, 68, 0
2, 39164, Note_on_c, 0, 68, 0
2, 39164, Note_on_c, 0, 63, 0
2, 39168, Note_on_c, 0, 70, 71
2, 39360, Note_on_c, 0, 58, 51
2, 39548, Note_on_c, 0, 58, 0
2, 39552, Note_on_c, 0, 63, 40
2, 39740, Note_on_c, 0, 63, 0
2, 39932, Note_on_c, 0, 70, 0
2, 39936, Note_on_c, 0, 58, 51
2, 39936, Note_on_c, 0, 68, 74
2, 40124, Note_on_c, 0, 68, 0
2, 40124, Note_on_c, 0, 58, 0
2, 40128, Note_on_c, 0, 63, 52
2, 40128, Note_on_c, 0, 67, 74
2, 40296, Note_on_c, 0, 67, 39
2, 40316, Note_on_c, 0, 67, 0
2, 40316, Note_on_c, 0, 67, 0
2, 40316, Note_on_c, 0, 63, 0
2, 40320, Note_on_c, 0, 65, 81
2, 40508, Note_on_c, 0, 65, 0
2, 40512, Note_on_c, 0, 64, 59
2, 40512, Note_on_c, 0, 56, 62
2, 40700, Note_on_c, 0, 56, 0
2, 40700, Note_on_c, 0, 64, 0
2, 40704, Note_on_c, 0, 65, 59
2, 40704, Note_on_c, 0, 60, 54
2, 40892, Note_on_c, 0, 60, 0
2, 40892, Note_on_c, 0, 65, 0
2, 40896, Note_on_c, 0, 69, 79
2, 41084, Note_on_c, 0, 69, 0
2, 41088, Note_on_c, 0, 70, 61
2, 41148, Note_on_c, 0, 70, 0
2, 41280, Note_on_c, 0, 62, 80
2, 41340, Note_on_c, 0, 62, 0
2, 41472, Note_on_c, 0, 65, 81
2, 41564, Note_on_c, 0, 65, 0
2, 41568, Note_on_c, 0, 63, 65
2, 41660, Note_on_c, 0, 63, 0
2, 41664, Note_on_c, 0, 62, 75
2, 41756, Note_on_c, 0, 62, 0
2, 41760, Note_on_c, 0, 63, 71
2, 41852, Note_on_c, 0, 63, 0
2, 41856, Note_on_c, 0, 65, 76
2, 41856, Note_on_c, 0, 58, 54
2, 41948, Note_on_c, 0, 65, 0
2, 41952, Note_on_c, 0, 67, 85
2, 42044, Note_on_c, 0, 67, 0
2, 42044, Note_on_c, 0, 58, 0
2, 42048, Note_on_c, 0, 68, 75
2, 42108, Note_on_c, 0, 68, 0
2, 42112, Note_on_c, 0, 70, 76
2, 42172, Note_on_c, 0, 70, 0
2, 42176, Note_on_c, 0, 72, 79
2, 42236, Note_on_c, 0, 72, 0
2, 42240, Note_on_c, 0, 74, 83
2, 42240, Note_on_c, 0, 58, 71
2, 42300, Note_on_c, 0, 74, 0
2, 42304, Note_on_c, 0, 75, 84
2, 42364, Note_on_c, 0, 75, 0
2, 42368, Note_on_c, 0, 77, 77
2, 42428, Note_on_c, 0, 77, 0
2, 42428, Note_on_c, 0, 58, 0
2, 42432, Note_on_c, 0, 79, 94
2, 42432, Note_on_c, 0, 63, 69
2, 42464, Note_on_c, 0, 79, 0
2, 42468, Note_on_c, 0, 77, 92
2, 42500, Note_on_c, 0, 77, 0
2, 42504, Note_on_c, 0, 75, 92
2, 42540, Note_on_c, 0, 75, 0
2, 42544, Note_on_c, 0, 74, 85
2, 42580, Note_on_c, 0, 74, 0
2, 42584, Note_on_c, 0, 72, 75
2, 42620, Note_on_c, 0, 72, 0
2, 42620, Note_on_c, 0, 63, 0
2, 42624, Note_on_c, 0, 70, 72
2, 42816, Note_on_c, 0, 58, 61
2, 43004, Note_on_c, 0, 58, 0
2, 43004, Note_on_c, 0, 70, 0
2, 43008, Note_on_c, 0, 63, 65
2, 43008, Note_on_c, 0, 67, 59
2, 43176, Note_on_c, 0, 70, 62
2, 43196, Note_on_c, 0, 70, 0
2, 43196, Note_on_c, 0, 67, 0
2, 43196, Note_on_c, 0, 63, 0
2, 43200, Note_on_c, 0, 68, 67
2, 43388, Note_on_c, 0, 68, 0
2, 43392, Note_on_c, 0, 67, 93
2, 43580, Note_on_c, 0, 67, 0
2, 43584, Note_on_c, 0, 63, 67
2, 43584, Note_on_c, 0, 68, 82
2, 43772, Note_on_c, 0, 68, 0
2, 43772, Note_on_c, 0, 63, 0
2, 43776, Note_on_c, 0, 69, 107
2, 43964, Note_on_c, 0, 69, 0
2, 43968, Note_on_c, 0, 58, 58
2, 43968, Note_on_c, 0, 70, 73
2, 44156, Note_on_c, 0, 58, 0
2, 44160, Note_on_c, 0, 63, 58
2, 44348, Note_on_c, 0, 63, 0
2, 44540, Note_on_c, 0, 70, 0
2, 44544, Note_on_c, 0, 58, 50
2, 44544, Note_on_c, 0, 72, 84
2, 44636, Note_on_c, 0, 72, 0
2, 44640, Note_on_c, 0, 70, 76
2, 44732, Note_on_c, 0, 70, 0
2, 44732, Note_on_c, 0, 58, 0
2, 44736, Note_on_c, 0, 63, 70
2, 44736, Note_on_c, 0, 68, 55
2, 44828, Note_on_c, 0, 68, 0
2, 44832, Note_on_c, 0, 67, 63
2, 44904, Note_on_c, 0, 67, 82
2, 44924, Note_on_c, 0, 67, 0
2, 44924, Note_on_c, 0, 67, 0
2, 44924, Note_on_c, 0, 63, 0
2, 44928, Note_on_c, 0, 65, 73
2, 45116, Note_on_c, 0, 65, 0
2, 45120, Note_on_c, 0, 64, 77
2, 45308, Note_on_c, 0, 64, 0
2, 45312, Note_on_c, 0, 65, 95
2, 45312, Note_on_c, 0, 60, 61
2, 45372, Note_on_c, 0, 60, 0
2, 45500, Note_on_c, 0, 65, 0
2, 45504, Note_on_c, 0, 69, 92
2, 45692, Note_on_c, 0, 69, 0
2, 45696, Note_on_c, 0, 70, 84
2, 45756, Note_on_c, 0, 70, 0
2, 45888, Note_on_c, 0, 62, 78
2, 45948, Note_on_c, 0, 62, 0
2, 46080, Note_on_c, 0, 63, 79
2, 46272, Note_on_c, 0, 58, 63
2, 46460, Note_on_c, 0, 58, 0
2, 46460, Note_on_c, 0, 63, 0
2, 46656, Note_on_c, 0, 58, 63
2, 46716, Note_on_c, 0, 58, 0
2, 46848, Note_on_c, 0, 58, 75
2, 46908, Note_on_c, 0, 58, 0
2, 47040, Note_on_c, 0, 58, 57
2, 47100, Note_on_c, 0, 58, 0
2, 47232, Note_on_c, 0, 70, 88
2, 47612, Note_on_c, 0, 70, 0
2, 47616, Note_on_c, 0, 68, 75
2, 47676, Note_on_c, 0, 68, 0
2, 47808, Note_on_c, 0, 58, 69
2, 47868, Note_on_c, 0, 58, 0
2, 48000, Note_on_c, 0, 58, 80
2, 48060, Note_on_c, 0, 58, 0
2, 48192, Note_on_c, 0, 58, 84
2, 48252, Note_on_c, 0, 58, 0
2, 48384, Note_on_c, 0, 68, 95
2, 48764, Note_on_c, 0, 68, 0
2, 48768, Note_on_c, 0, 67, 70
2, 48828, Note_on_c, 0, 67, 0
2, 48960, Note_on_c, 0, 58, 69
2, 49020, Note_on_c, 0, 58, 0
2, 49152, Note_on_c, 0, 58, 59
2, 49212, Note_on_c, 0, 58, 0
2, 49344, Note_on_c, 0, 58, 66
2, 49404, Note_on_c, 0, 58, 0
2, 49536, Note_on_c, 0, 62, 105
2, 49536, Note_on_c, 0, 44, 93
2, 49536, Note_on_c, 0, 58, 88
2, 49536, Note_on_c, 0, 67, 105
2, 49916, Note_on_c, 0, 67, 0
2, 49920, Note_on_c, 0, 65, 70
2, 49980, Note_on_c, 0, 65, 0
2, 50108, Note_on_c, 0, 58, 0
2, 50108, Note_on_c, 0, 44, 0
2, 50108, Note_on_c, 0, 62, 0
2, 50304, Note_on_c, 0, 65, 74
2, 50304, Note_on_c, 0, 62, 66
2, 50304, Note_on_c, 0, 41, 61
2, 50304, Note_on_c, 0, 58, 40
2, 50364, Note_on_c, 0, 58, 0
2, 50364, Note_on_c, 0, 65, 0
2, 50364, Note_on_c, 0, 62, 0
2, 50364, Note_on_c, 0, 41, 0
2, 50496, Note_on_c, 0, 67, 83
2, 50496, Note_on_c, 0, 39, 68
2, 50496, Note_on_c, 0, 58, 51
2, 50496, Note_on_c, 0, 63, 65
2, 50556, Note_on_c, 0, 63, 0
2, 50556, Note_on_c, 0, 67, 0
2, 50556, Note_on_c, 0, 39, 0
2, 50556, Note_on_c, 0, 58, 0
2, 50688, Note_on_c, 0, 65, 81
2, 50688, Note_on_c, 0, 62, 75
2, 50688, Note_on_c, 0, 58, 46
2, 50688, Note_on_c, 0, 46, 60
2, 51260, Note_on_c, 0, 46, 0
2, 51260, Note_on_c, 0, 65, 0
2, 51260, Note_on_c, 0, 62, 0
2, 51260, Note_on_c, 0, 58, 0
2, 51264, Note_on_c, 0, 70, 64
2, 51324, Note_on_c, 0, 70, 0
2, 51456, Note_on_c, 0, 70, 70
2, 51516, Note_on_c, 0, 70, 0
2, 51648, Note_on_c, 0, 70, 75
2, 51708, Note_on_c, 0, 70, 0
2, 51840, Note_on_c, 0, 70, 89
2, 51840, Note_on_c, 0, 65, 87
2, 51840, Note_on_c, 0, 62, 89
2, 51840, Note_on_c, 0, 82, 98
2, 52220, Note_on_c, 0, 82, 0
2, 52224, Note_on_c, 0, 80, 77
2, 52284, Note_on_c, 0, 80, 0
2, 52412, Note_on_c, 0, 62, 0
2, 52412, Note_on_c, 0, 65, 0
2, 52412, Note_on_c, 0, 70, 0
2, 52416, Note_on_c, 0, 70, 68
2, 52476, Note_on_c, 0, 70, 0
2, 52608, Note_on_c, 0, 70, 77
2, 52668, Note_on_c, 0, 70, 0
2, 52800, Note_on_c, 0, 70, 73
2, 52860, Note_on_c, 0, 70, 0
2, 52992, Note_on_c, 0, 70, 94
2, 52992, Note_on_c, 0, 63, 90
2, 52992, Note_on_c, 0, 67, 94
2, 52992, Note_on_c, 0, 80, 95
2, 53372, Note_on_c, 0, 80, 0
2, 53376, Note_on_c, 0, 79, 73
2, 53436, Note_on_c, 0, 79, 0
2, 53564, Note_on_c, 0, 67, 0
2, 53564, Note_on_c, 0, 63, 0
2, 53564, Note_on_c, 0, 70, 0
2, 53568, Note_on_c, 0, 70, 65
2, 53628, Note_on_c, 0, 70, 0
2, 53760, Note_on_c, 0, 70, 64
2, 53820, Note_on_c, 0, 70, 0
2, 53952, Note_on_c, 0, 70, 72
2, 54012, Note_on_c, 0, 70, 0
2, 54144, Note_on_c, 0, 68, 98
2, 54144, Note_on_c, 0, 70, 79
2, 54144, Note_on_c, 0, 74, 99
2, 54144, Note_on_c, 0, 79, 97
2, 54524, Note_on_c, 0, 79, 0
2, 54528, Note_on_c, 0, 77, 80
2, 54588, Note_on_c, 0, 77, 0
2, 54716, Note_on_c, 0, 74, 0
2, 54716, Note_on_c, 0, 70, 0
2, 54716, Note_on_c, 0, 68, 0
2, 54720, Note_on_c, 0, 70, 74
2, 54720, Note_on_c, 0, 75, 84
2, 54720, Note_on_c, 0, 67, 83
2, 54780, Note_on_c, 0, 67, 0
2, 54780, Note_on_c, 0, 75, 0
2, 54780, Note_on_c, 0, 70, 0
2, 54912, Note_on_c, 0, 77, 82
2, 54912, Note_on_c, 0, 74, 70
2, 54912, Note_on_c, 0, 65, 57
2, 54972, Note_on_c, 0, 65, 0
2, 54972, Note_on_c, 0, 74, 0
2, 54972, Note_on_c, 0, 77, 0
2, 55104, Note_on_c, 0, 79, 84
2, 55104, Note_on_c, 0, 75, 75
2, 55104, Note_on_c, 0, 63, 71
2, 55164, Note_on_c, 0, 63, 0
2, 55164, Note_on_c, 0, 75, 0
2, 55164, Note_on_c, 0, 79, 0
2, 55296, Note_on_c, 0, 70, 54
2, 55296, Note_on_c, 0, 77, 70
2, 55296, Note_on_c, 0, 74, 62
2, 55868, Note_on_c, 0, 74, 0
2, 55868, Note_on_c, 0, 77, 0
2, 55868, Note_on_c, 0, 70, 0
2, 55872, Note_on_c, 0, 58, 73
2, 55872, Note_on_c, 0, 55, 75
2, 55872, Note_on_c, 0, 63, 78
2, 55932, Note_on_c, 0, 63, 0
2, 55932, Note_on_c, 0, 55, 0
2, 55932, Note_on_c, 0, 58, 0
2, 56064, Note_on_c, 0, 62, 76
2, 56064, Note_on_c, 0, 65, 74
2, 56064, Note_on_c, 0, 53, 44
2, 56124, Note_on_c, 0, 53, 0
2, 56124, Note_on_c, 0, 65, 0
2, 56124, Note_on_c, 0, 62, 0
2, 56256, Note_on_c, 0, 63, 77
2, 56256, Note_on_c, 0, 67, 89
2, 56256, Note_on_c, 0, 51, 76
2, 56316, Note_on_c, 0, 51, 0
2, 56316, Note_on_c, 0, 67, 0
2, 56316, Note_on_c, 0, 63, 0
2, 56448, Note_on_c, 0, 58, 64
2, 56448, Note_on_c, 0, 65, 76
2, 56448, Note_on_c, 0, 62, 65
2, 57020, Note_on_c, 0, 62, 0
2, 57020, Note_on_c, 0, 65, 0
2, 57020, Note_on_c, 0, 58, 0
2, 57024, Note_on_c, 0, 67, 73
2, 57024, Note_on_c, 0, 70, 62
2, 57024, Note_on_c, 0, 75, 75
2, 57084, Note_on_c, 0, 75, 0
2, 57084, Note_on_c, 0, 70, 0
2, 57084, Note_on_c, 0, 67, 0
2, 57216, Note_on_c, 0, 65, 61
2, 57216, Note_on_c, 0, 74, 78
2, 57216, Note_on_c, 0, 77, 74
2, 57276, Note_on_c, 0, 77, 0
2, 57276, Note_on_c, 0, 74, 0
2, 57276, Note_on_c, 0, 65, 0
2, 57408, Note_on_c, 0, 75, 69
2, 57408, Note_on_c, 0, 79, 82
2, 57408, Note_on_c, 0, 63, 70
2, 57468, Note_on_c, 0, 63, 0
2, 57468, Note_on_c, 0, 79, 0
2, 57468, Note_on_c, 0, 75, 0
2, 57600, Note_on_c, 0, 77, 74
2, 57600, Note_on_c, 0, 74, 68
2, 57600, Note_on_c, 0, 70, 61
2, 58172, Note_on_c, 0, 70, 0
2, 58172, Note_on_c, 0, 74, 0
2, 58172, Note_on_c, 0, 77, 0
2, 58176, Note_on_c, 0, 75, 82
2, 58176, Note_on_c, 0, 67, 73
2, 58176, Note_on_c, 0, 70, 53
2, 58236, Note_on_c, 0, 70, 0
2, 58236, Note_on_c, 0, 67, 0
2, 58236, Note_on_c, 0, 75, 0
2, 58368, Note_on_c, 0, 65, 73
2, 58368, Note_on_c, 0, 74, 67
2, 58368, Note_on_c, 0, 77, 78
2, 58428, Note_on_c, 0, 77, 0
2, 58428, Note_on_c, 0, 74, 0
2, 58428, Note_on_c, 0, 65, 0
2, 58560, Note_on_c, 0, 63, 77
2, 58560, Note_on_c, 0, 79, 82
2, 58560, Note_on_c, 0, 75, 58
2, 58620, Note_on_c, 0, 75, 0
2, 58620, Note_on_c, 0, 79, 0
2, 58620, Note_on_c, 0, 63, 0
2, 58752, Note_on_c, 0, 77, 75
2, 58752, Note_on_c, 0, 74, 71
2, 58752, Note_on_c, 0, 58, 59
2, 59036, Note_on_c, 0, 58, 0
2, 59036, Note_on_c, 0, 74, 0
2, 59036, Note_on_c, 0, 77, 0
2, 59040, Note_on_c, 0, 70, 63
2, 59040, Note_on_c, 0, 75, 72
2, 59040, Note_on_c, 0, 67, 67
2, 59068, Note_on_c, 0, 67, 0
2, 59068, Note_on_c, 0, 75, 0
2, 59068, Note_on_c, 0, 70, 0
2, 59136, Note_on_c, 0, 65, 64
2, 59136, Note_on_c, 0, 74, 63
2, 59136, Note_on_c, 0, 77, 67
2, 59164, Note_on_c, 0, 77, 0
2, 59164, Note_on_c, 0, 74, 0
2, 59164, Note_on_c, 0, 65, 0
2, 59232, Note_on_c, 0, 63, 76
2, 59232, Note_on_c, 0, 79, 79
2, 59232, Note_on_c, 0, 75, 71
2, 59260, Note_on_c, 0, 75, 0
2, 59260, Note_on_c, 0, 79, 0
2, 59260, Note_on_c, 0, 63, 0
2, 59328, Note_on_c, 0, 70, 68
2, 59328, Note_on_c, 0, 74, 70
2, 59328, Note_on_c, 0, 77, 74
2, 59612, Note_on_c, 0, 77, 0
2, 59612, Note_on_c, 0, 74, 0
2, 59612, Note_on_c, 0, 70, 0
2, 59616, Note_on_c, 0, 70, 62
2, 59616, Note_on_c, 0, 75, 75
2, 59616, Note_on_c, 0, 67, 67
2, 59644, Note_on_c, 0, 67, 0
2, 59644, Note_on_c, 0, 75, 0
2, 59644, Note_on_c, 0, 70, 0
2, 59712, Note_on_c, 0, 77, 78
2, 59712, Note_on_c, 0, 65, 66
2, 59712, Note_on_c, 0, 74, 69
2, 59740, Note_on_c, 0, 74, 0
2, 59740, Note_on_c, 0, 65, 0
2, 59740, Note_on_c, 0, 77, 0
2, 59808, Note_on_c, 0, 75, 76
2, 59808, Note_on_c, 0, 79, 83
2, 59808, Note_on_c, 0, 63, 73
2, 59836, Note_on_c, 0, 63, 0
2, 59836, Note_on_c, 0, 79, 0
2, 59836, Note_on_c, 0, 75, 0
2, 59904, Note_on_c, 0, 58, 71
2, 59904, Note_on_c, 0, 74, 81
2, 59904, Note_on_c, 0, 77, 75
2, 59932, Note_on_c, 0, 77, 0
2, 59932, Note_on_c, 0, 74, 0
2, 59932, Note_on_c, 0, 58, 0
2, 60000, Note_on_c, 0, 67, 70
2, 60000, Note_on_c, 0, 70, 67
2, 60000, Note_on_c, 0, 75, 72
2, 60028, Note_on_c, 0, 75, 0
2, 60028, Note_on_c, 0, 70, 0
2, 60028, Note_on_c, 0, 67, 0
2, 60096, Note_on_c, 0, 65, 72
2, 60096, Note_on_c, 0, 74, 83
2, 60096, Note_on_c, 0, 77, 82
2, 60124, Note_on_c, 0, 77, 0
2, 60124, Note_on_c, 0, 74, 0
2, 60124, Note_on_c, 0, 65, 0
2, 60192, Note_on_c, 0, 75, 88
2, 60192, Note_on_c, 0, 79, 92
2, 60192, Note_on_c, 0, 63, 87
2, 60220, Note_on_c, 0, 63, 0
2, 60220, Note_on_c, 0, 79, 0
2, 60220, Note_on_c, 0, 75, 0
2, 60288, Note_on_c, 0, 58, 80
2, 60288, Note_on_c, 0, 77, 87
2, 60288, Note_on_c, 0, 74, 88
2, 60316, Note_on_c, 0, 74, 0
2, 60316, Note_on_c, 0, 77, 0
2, 60316, Note_on_c, 0, 58, 0
2, 60384, Note_on_c, 0, 67, 83
2, 60384, Note_on_c, 0, 75, 88
2, 60384, Note_on_c, 0, 70, 79
2, 60412, Note_on_c, 0, 70, 0
2, 60412, Note_on_c, 0, 75, 0
2, 60412, Note_on_c, 0, 67, 0
2, 60480, Note_on_c, 0, 65, 66
2, 60480, Note_on_c, 0, 74, 81
2, 60480, Note_on_c, 0, 77, 85
2, 60508, Note_on_c, 0, 77, 0
2, 60508, Note_on_c, 0, 74, 0
2, 60508, Note_on_c, 0, 65, 0
2, 60576, Note_on_c, 0, 79, 90
2, 60576, Note_on_c, 0, 75, 89
2, 60576, Note_on_c, 0, 63, 82
2, 60604, Note_on_c, 0, 63, 0
2, 60604, Note_on_c, 0, 75, 0
2, 60604, Note_on_c, 0, 79, 0
2, 60672, Note_on_c, 0, 77, 96
2, 60672, Note_on_c, 0, 74, 89
2, 60672, Note_on_c, 0, 58, 77
2, 60700, Note_on_c, 0, 58, 0
2, 60700, Note_on_c, 0, 74, 0
2, 60700, Note_on_c, 0, 77, 0
2, 60768, Note_on_c, 0, 75, 100
2, 60768, Note_on_c, 0, 70, 92
2, 60768, Note_on_c, 0, 67, 87
2, 60796, Note_on_c, 0, 67, 0
2, 60796, Note_on_c, 0, 70, 0
2, 60796, Note_on_c, 0, 75, 0
2, 60864, Note_on_c, 0, 65, 87
2, 60864, Note_on_c, 0, 74, 103
2, 60864, Note_on_c, 0, 77, 99
2, 60892, Note_on_c, 0, 77, 0
2, 60892, Note_on_c, 0, 74, 0
2, 60892, Note_on_c, 0, 65, 0
2, 60960, Note_on_c, 0, 79, 112
2, 60960, Note_on_c, 0, 63, 99
2, 60960, Note_on_c, 0, 75, 68
2, 60988, Note_on_c, 0, 75, 0
2, 60988, Note_on_c, 0, 63, 0
2, 60988, Note_on_c, 0, 79, 0
2, 61056, Note_on_c, 0, 74, 118
2, 61056, Note_on_c, 0, 77, 111
2, 61056, Note_on_c, 0, 58, 104
2, 61244, Note_on_c, 0, 58, 0
2, 61244, Note_on_c, 0, 77, 0
2, 61244, Note_on_c, 0, 74, 0
2, 61440, Note_on_c, 0, 77, 96
2, 61484, Note_on_c, 0, 77, 0
2, 61488, Note_on_c, 0, 75, 98
2, 61532, Note_on_c, 0, 75, 0
2, 61536, Note_on_c, 0, 74, 101
2, 61580, Note_on_c, 0, 74, 0
2, 61584, Note_on_c, 0, 72, 90
2, 61628, Note_on_c, 0, 72, 0
2, 61632, Note_on_c, 0, 70, 98
2, 61692, Note_on_c, 0, 70, 0
2, 62016, Note_on_c, 0, 77, 98
2, 62060, Note_on_c, 0, 77, 0
2, 62064, Note_on_c, 0, 75, 98
2, 62108, Note_on_c, 0, 75, 0
2, 62112, Note_on_c, 0, 74, 99
2, 62156, Note_on_c, 0, 74, 0
2, 62160, Note_on_c, 0, 72, 93
2, 62204, Note_on_c, 0, 72, 0
2, 62208, Note_on_c, 0, 70, 93
2, 62268, Note_on_c, 0, 70, 0
2, 63168, Note_on_c, 0, 77, 69
2, 63212, Note_on_c, 0, 77, 0
2, 63216, Note_on_c, 0, 75, 75
2, 63260, Note_on_c, 0, 75, 0
2, 63264, Note_on_c, 0, 74, 55
2, 63308, Note_on_c, 0, 74, 0
2, 63312, Note_on_c, 0, 72, 67
2, 63356, Note_on_c, 0, 72, 0
2, 63360, Note_on_c, 0, 70, 73
2, 63420, Note_on_c, 0, 70, 0
2, 63744, Note_on_c, 0, 79, 85
2, 63776, Note_on_c, 0, 79, 0
2, 63780, Note_on_c, 0, 77, 81
2, 63812, Note_on_c, 0, 77, 0
2, 63816, Note_on_c, 0, 75, 79
2, 63852, Note_on_c, 0, 75, 0
2, 63856, Note_on_c, 0, 74, 73
2, 63892, Note_on_c, 0, 74, 0
2, 63896, Note_on_c, 0, 72, 64
2, 63932, Note_on_c, 0, 72, 0
2, 63936, Note_on_c, 0, 70, 87
2, 63996, Note_on_c, 0, 70, 0
2, 64128, Note_on_c, 0, 80, 91
2, 64156, Note_on_c, 0, 80, 0
2, 64160, Note_on_c, 0, 79, 95
2, 64188, Note_on_c, 0, 79, 0
2, 64192, Note_on_c, 0, 77, 97
2, 64220, Note_on_c, 0, 77, 0
2, 64224, Note_on_c, 0, 75, 100
2, 64252, Note_on_c, 0, 75, 0
2, 64256, Note_on_c, 0, 74, 97
2, 64284, Note_on_c, 0, 74, 0
2, 64288, Note_on_c, 0, 72, 94
2, 64316, Note_on_c, 0, 72, 0
2, 64320, Note_on_c, 0, 70, 78
2, 64348, Note_on_c, 0, 70, 0
2, 64416, Note_on_c, 0, 82, 91
2, 64508, Note_on_c, 0, 82, 0
2, 64512, Note_on_c, 0, 80, 97
2, 64604, Note_on_c, 0, 80, 0
2, 64608, Note_on_c, 0, 79, 99
2, 64700, Note_on_c, 0, 79, 0
2, 64704, Note_on_c, 0, 77, 102
2, 64796, Note_on_c, 0, 77, 0
2, 64800, Note_on_c, 0, 75, 106
2, 64892, Note_on_c, 0, 75, 0
2, 64896, Note_on_c, 0, 74, 114
2, 64988, Note_on_c, 0, 74, 0
2, 64992, Note_on_c, 0, 72, 103
2, 65084, Note_on_c, 0, 72, 0
2, 65088, Note_on_c, 0, 70, 95
2, 65276, Note_on_c, 0, 70, 0
2, 65280, Note_on_c, 0, 79, 61
2, 65340, Note_on_c, 0, 79, 0
2, 65472, Note_on_c, 0, 75, 60
2, 65532, Note_on_c, 0, 75, 0
2, 65664, Note_on_c, 0, 70, 62
2, 65856, Note_on_c, 0, 58, 51
2, 66044, Note_on_c, 0, 58, 0
2, 66044, Note_on_c, 0, 70, 0
2, 66048, Note_on_c, 0, 63, 58
2, 66048, Note_on_c, 0, 67, 79
2, 66216, Note_on_c, 0, 70, 70
2, 66236, Note_on_c, 0, 70, 0
2, 66236, Note_on_c, 0, 67, 0
2, 66236, Note_on_c, 0, 63, 0
2, 66240, Note_on_c, 0, 68, 67
2, 66428, Note_on_c, 0, 68, 0
2, 66432, Note_on_c, 0, 67, 83
2, 66620, Note_on_c, 0, 67, 0
2, 66624, Note_on_c, 0, 63, 51
2, 66624, Note_on_c, 0, 68, 84
2, 66768, Note_on_c, 0, 67, 74
2, 66788, Note_on_c, 0, 67, 0
2, 66792, Note_on_c, 0, 68, 62
2, 66812, Note_on_c, 0, 68, 0
2, 66812, Note_on_c, 0, 68, 0
2, 66812, Note_on_c, 0, 63, 0
2, 66816, Note_on_c, 0, 70, 71
2, 67008, Note_on_c, 0, 58, 51
2, 67196, Note_on_c, 0, 58, 0
2, 67200, Note_on_c, 0, 63, 40
2, 67388, Note_on_c, 0, 63, 0
2, 67580, Note_on_c, 0, 70, 0
2, 67584, Note_on_c, 0, 58, 51
2, 67584, Note_on_c, 0, 68, 74
2, 67772, Note_on_c, 0, 68, 0
2, 67772, Note_on_c, 0, 58, 0
2, 67776, Note_on_c, 0, 63, 52
2, 67776, Note_on_c, 0, 67, 74
2, 67944, Note_on_c, 0, 67, 39
2, 67964, Note_on_c, 0, 67, 0
2, 67964, Note_on_c, 0, 67, 0
2, 67964, Note_on_c, 0, 63, 0
2, 67968, Note_on_c, 0, 65, 81
2, 68156, Note_on_c, 0, 65, 0
2, 68160, Note_on_c, 0, 64, 59
2, 68160, Note_on_c, 0, 56, 62
2, 68348, Note_on_c, 0, 56, 0
2, 68348, Note_on_c, 0, 64, 0
2, 68352, Note_on_c, 0, 65, 59
2, 68352, Note_on_c, 0, 60, 54
2, 68352, Note_on_c, 0, 65, 89
2, 68444, Note_on_c, 0, 65, 0
2, 68540, Note_on_c, 0, 65, 0
2, 68540, Note_on_c, 0, 60, 0
2, 68544, Note_on_c, 0, 69, 79
2, 68732, Note_on_c, 0, 69, 0
2, 68736, Note_on_c, 0, 70, 61
2, 68796, Note_on_c, 0, 70, 0
2, 68928, Note_on_c, 0, 62, 80
2, 68988, Note_on_c, 0, 62, 0
2, 69120, Note_on_c, 0, 65, 89
2, 69212, Note_on_c, 0, 65, 0
2, 69216, Note_on_c, 0, 63, 69
2, 69308, Note_on_c, 0, 63, 0
2, 69312, Note_on_c, 0, 62, 68
2, 69404, Note_on_c, 0, 62, 0
2, 69408, Note_on_c, 0, 63, 71
2, 69500, Note_on_c, 0, 63, 0
2, 69504, Note_on_c, 0, 67, 97
2, 69504, Note_on_c, 0, 58, 54
2, 69596, Note_on_c, 0, 67, 0
2, 69600, Note_on_c, 0, 63, 86
2, 69692, Note_on_c, 0, 63, 0
2, 69692, Note_on_c, 0, 58, 0
2, 69696, Note_on_c, 0, 70, 86
2, 69788, Note_on_c, 0, 70, 0
2, 69792, Note_on_c, 0, 67, 99
2, 69884, Note_on_c, 0, 67, 0
2, 69888, Note_on_c, 0, 75, 95
2, 69888, Note_on_c, 0, 58, 69
2, 69948, Note_on_c, 0, 75, 0
2, 69952, Note_on_c, 0, 70, 94
2, 70012, Note_on_c, 0, 70, 0
2, 70016, Note_on_c, 0, 67, 97
2, 70076, Note_on_c, 0, 67, 0
2, 70076, Note_on_c, 0, 58, 0
2, 70080, Note_on_c, 0, 79, 79
2, 70080, Note_on_c, 0, 63, 69
2, 70140, Note_on_c, 0, 79, 0
2, 70144, Note_on_c, 0, 75, 70
2, 70204, Note_on_c, 0, 75, 0
2, 70208, Note_on_c, 0, 70, 60
2, 70268, Note_on_c, 0, 70, 0
2, 70268, Note_on_c, 0, 63, 0
2, 70272, Note_on_c, 0, 68, 63
2, 70364, Note_on_c, 0, 68, 0
2, 70368, Note_on_c, 0, 67, 72
2, 70460, Note_on_c, 0, 67, 0
2, 70464, Note_on_c, 0, 58, 57
2, 70464, Note_on_c, 0, 66, 83
2, 70556, Note_on_c, 0, 66, 0
2, 70560, Note_on_c, 0, 67, 79
2, 70652, Note_on_c, 0, 67, 0
2, 70652, Note_on_c, 0, 58, 0
2, 70656, Note_on_c, 0, 63, 65
2, 70656, Note_on_c, 0, 66, 84
2, 70748, Note_on_c, 0, 66, 0
2, 70752, Note_on_c, 0, 67, 90
2, 70844, Note_on_c, 0, 67, 0
2, 70844, Note_on_c, 0, 63, 0
2, 70848, Note_on_c, 0, 70, 88
2, 70940, Note_on_c, 0, 70, 0
2, 70944, Note_on_c, 0, 68, 80
2, 71036, Note_on_c, 0, 68, 0
2, 71040, Note_on_c, 0, 67, 85
2, 71132, Note_on_c, 0, 67, 0
2, 71136, Note_on_c, 0, 68, 80
2, 71228, Note_on_c, 0, 68, 0
2, 71232, Note_on_c, 0, 63, 70
2, 71232, Note_on_c, 0, 67, 97
2, 71324, Note_on_c, 0, 67, 0
2, 71328, Note_on_c, 0, 68, 88
2, 71420, Note_on_c, 0, 68, 0
2, 71420, Note_on_c, 0, 63, 0
2, 71424, Note_on_c, 0, 72, 97
2, 71516, Note_on_c, 0, 72, 0
2, 71520, Note_on_c, 0, 70, 91
2, 71612, Note_on_c, 0, 70, 0
2, 71616, Note_on_c, 0, 58, 72
2, 71616, Note_on_c, 0, 69, 85
2, 71708, Note_on_c, 0, 69, 0
2, 71712, Note_on_c, 0, 70, 63
2, 71804, Note_on_c, 0, 70, 0
2, 71804, Note_on_c, 0, 58, 0
2, 71808, Note_on_c, 0, 63, 51
2, 71808, Note_on_c, 0, 69, 69
2, 71900, Note_on_c, 0, 69, 0
2, 71904, Note_on_c, 0, 70, 54
2, 71996, Note_on_c, 0, 70, 0
2, 71996, Note_on_c, 0, 63, 0
2, 72000, Note_on_c, 0, 69, 77
2, 72092, Note_on_c, 0, 69, 0
2, 72096, Note_on_c, 0, 70, 65
2, 72188, Note_on_c, 0, 70, 0
2, 72192, Note_on_c, 0, 58, 34
2, 72192, Note_on_c, 0, 72, 63
2, 72284, Note_on_c, 0, 72, 0
2, 72288, Note_on_c, 0, 68, 57
2, 72380, Note_on_c, 0, 68, 0
2, 72380, Note_on_c, 0, 58, 0
2, 72384, Note_on_c, 0, 63, 48
2, 72384, Note_on_c, 0, 67, 72
2, 72476, Note_on_c, 0, 67, 0
2, 72480, Note_on_c, 0, 65, 73
2, 72572, Note_on_c, 0, 65, 0
2, 72572, Note_on_c, 0, 63, 0
2, 72576, Note_on_c, 0, 67, 65
2, 72668, Note_on_c, 0, 67, 0
2, 72672, Note_on_c, 0, 65, 70
2, 72764, Note_on_c, 0, 65, 0
2, 72768, Note_on_c, 0, 64, 69
2, 72860, Note_on_c, 0, 64, 0
2, 72864, Note_on_c, 0, 65, 81
2, 72956, Note_on_c, 0, 65, 0
2, 72960, Note_on_c, 0, 60, 73
2, 72960, Note_on_c, 0, 67, 98
2, 73052, Note_on_c, 0, 67, 0
2, 73056, Note_on_c, 0, 68, 82
2, 73148, Note_on_c, 0, 68, 0
2, 73148, Note_on_c, 0, 60, 0
2, 73152, Note_on_c, 0, 69, 92
2, 73244, Note_on_c, 0, 69, 0
2, 73248, Note_on_c, 0, 70, 90
2, 73340, Note_on_c, 0, 70, 0
2, 73344, Note_on_c, 0, 62, 81
2, 73436, Note_on_c, 0, 62, 0
2, 73440, Note_on_c, 0, 70, 66
2, 73532, Note_on_c, 0, 70, 0
2, 73536, Note_on_c, 0, 62, 47
2, 73628, Note_on_c, 0, 62, 0
2, 74112, Note_on_c, 0, 70, 60
2, 74112, Note_on_c, 0, 58, 49
2, 74300, Note_on_c, 0, 58, 0
2, 74300, Note_on_c, 0, 70, 0
2, 74304, Note_on_c, 0, 66, 59
2, 74304, Note_on_c, 0, 78, 75
2, 74492, Note_on_c, 0, 78, 0
2, 74492, Note_on_c, 0, 66, 0
2, 74496, Note_on_c, 0, 75, 69
2, 74496, Note_on_c, 0, 63, 60
2, 74684, Note_on_c, 0, 63, 0
2, 74684, Note_on_c, 0, 75, 0
2, 74688, Note_on_c, 0, 74, 52
2, 74688, Note_on_c, 0, 62, 46
2, 74876, Note_on_c, 0, 62, 0
2, 74876, Note_on_c, 0, 74, 0
2, 74880, Note_on_c, 0, 75, 72
2, 74880, Note_on_c, 0, 63, 63
2, 75068, Note_on_c, 0, 63, 0
2, 75068, Note_on_c, 0, 75, 0
2, 75072, Note_on_c, 0, 70, 61
2, 75072, Note_on_c, 0, 58, 53
2, 75260, Note_on_c, 0, 58, 0
2, 75260, Note_on_c, 0, 70, 0
2, 75264, Note_on_c, 0, 69, 57
2, 75264, Note_on_c, 0, 57, 48
2, 75452, Note_on_c, 0, 57, 0
2, 75452, Note_on_c, 0, 69, 0
2, 75456, Note_on_c, 0, 70, 60
2, 75456, Note_on_c, 0, 58, 60
2, 75644, Note_on_c, 0, 58, 0
2, 75644, Note_on_c, 0, 70, 0
2, 75840, Note_on_c, 0, 53, 52
2, 75840, Note_on_c, 0, 65, 69
2, 76028, Note_on_c, 0, 65, 0
2, 76028, Note_on_c, 0, 53, 0
2, 76032, Note_on_c, 0, 63, 74
2, 76224, Note_on_c, 0, 58, 79
2, 76412, Note_on_c, 0, 63, 0
2, 76416, Note_on_c, 0, 66, 59
2, 76604, Note_on_c, 0, 66, 0
2, 76608, Note_on_c, 0, 65, 68
2, 76796, Note_on_c, 0, 65, 0
2, 76800, Note_on_c, 0, 68, 80
2, 76988, Note_on_c, 0, 68, 0
2, 76992, Note_on_c, 0, 62, 77
2, 77180, Note_on_c, 0, 62, 0
2, 77180, Note_on_c, 0, 58, 0
2, 77184, Note_on_c, 0, 63, 72
2, 77376, Note_on_c, 0, 58, 65
2, 77564, Note_on_c, 0, 63, 0
2, 77568, Note_on_c, 0, 66, 73
2, 77756, Note_on_c, 0, 66, 0
2, 77760, Note_on_c, 0, 65, 73
2, 77948, Note_on_c, 0, 65, 0
2, 77952, Note_on_c, 0, 68, 70
2, 78140, Note_on_c, 0, 68, 0
2, 78144, Note_on_c, 0, 62, 61
2, 78332, Note_on_c, 0, 62, 0
2, 78332, Note_on_c, 0, 58, 0
2, 78336, Note_on_c, 0, 51, 72
2, 78336, Note_on_c, 0, 63, 84
2, 78460, Note_on_c, 0, 63, 0
2, 78460, Note_on_c, 0, 51, 0
2, 78528, Note_on_c, 0, 58, 75
2, 78716, Note_on_c, 0, 58, 0
2, 78720, Note_on_c, 0, 70, 63
2, 78908, Note_on_c, 0, 70, 0
2, 78912, Note_on_c, 0, 78, 77
2, 79100, Note_on_c, 0, 78, 0
2, 79104, Note_on_c, 0, 75, 88
2, 79292, Note_on_c, 0, 75, 0
2, 79296, Note_on_c, 0, 62, 85
2, 79296, Note_on_c, 0, 74, 81
2, 79484, Note_on_c, 0, 74, 0
2, 79484, Note_on_c, 0, 62, 0
2, 79488, Note_on_c, 0, 75, 86
2, 79488, Note_on_c, 0, 63, 75
2, 79676, Note_on_c, 0, 63, 0
2, 79676, Note_on_c, 0, 75, 0
2, 79680, Note_on_c, 0, 70, 62
2, 79680, Note_on_c, 0, 58, 58
2, 79868, Note_on_c, 0, 58, 0
2, 79868, Note_on_c, 0, 70, 0
2, 79872, Note_on_c, 0, 69, 56
2, 79872, Note_on_c, 0, 57, 59
2, 80060, Note_on_c, 0, 57, 0
2, 80060, Note_on_c, 0, 69, 0
2, 80064, Note_on_c, 0, 58, 63
2, 80064, Note_on_c, 0, 70, 83
2, 80252, Note_on_c, 0, 70, 0
2, 80252, Note_on_c, 0, 58, 0
2, 80640, Note_on_c, 0, 63, 82
2, 80832, Note_on_c, 0, 58, 68
2, 81020, Note_on_c, 0, 63, 0
2, 81024, Note_on_c, 0, 66, 65
2, 81212, Note_on_c, 0, 66, 0
2, 81212, Note_on_c, 0, 58, 0
2, 81216, Note_on_c, 0, 63, 72
2, 81404, Note_on_c, 0, 63, 0
2, 81408, Note_on_c, 0, 66, 72
2, 81596, Note_on_c, 0, 66, 0
2, 81600, Note_on_c, 0, 54, 74
2, 81600, Note_on_c, 0, 60, 83
2, 81788, Note_on_c, 0, 60, 0
2, 81788, Note_on_c, 0, 54, 0
2, 81792, Note_on_c, 0, 61, 76
2, 82172, Note_on_c, 0, 61, 0
2, 82176, Note_on_c, 0, 65, 77
2, 82364, Note_on_c, 0, 65, 0
2, 82368, Note_on_c, 0, 63, 71
2, 82556, Note_on_c, 0, 63, 0
2, 82560, Note_on_c, 0, 66, 71
2, 82748, Note_on_c, 0, 66, 0
2, 82944, Note_on_c, 0, 61, 75
2, 82944, Control_c, 0, 64, 127
2, 83324, Note_on_c, 0, 61, 0
2, 83328, Note_on_c, 0, 68, 71
2, 83414, Control_c, 0, 64, 0
2, 83516, Note_on_c, 0, 68, 0
2, 83520, Note_on_c, 0, 65, 90
2, 83708, Note_on_c, 0, 65, 0
2, 83712, Note_on_c, 0, 68, 92
2, 83900, Note_on_c, 0, 68, 0
2, 84096, Note_on_c, 0, 63, 92
2, 84096, Control_c, 0, 64, 127
2, 84476, Note_on_c, 0, 63, 0
2, 84480, Note_on_c, 0, 68, 80
2, 84566, Control_c, 0, 64, 0
2, 84668, Note_on_c, 0, 68, 0
2, 84672, Note_on_c, 0, 65, 87
2, 84860, Note_on_c, 0, 65, 0
2, 84864, Note_on_c, 0, 68, 80
2, 85052, Note_on_c, 0, 68, 0
2, 85056, Note_on_c, 0, 62, 87
2, 85056, Note_on_c, 0, 56, 83
2, 85244, Note_on_c, 0, 56, 0
2, 85244, Note_on_c, 0, 62, 0
2, 85248, Note_on_c, 0, 63, 79
2, 85248, Control_c, 0, 64, 127
2, 85628, Note_on_c, 0, 63, 0
2, 85632, Note_on_c, 0, 75, 77
2, 85718, Control_c, 0, 64, 0
2, 85820, Note_on_c, 0, 75, 0
2, 85824, Note_on_c, 0, 74, 90
2, 86012, Note_on_c, 0, 74, 0
2, 86016, Note_on_c, 0, 75, 90
2, 86204, Note_on_c, 0, 75, 0
2, 86208, Note_on_c, 0, 69, 89
2, 86396, Note_on_c, 0, 69, 0
2, 86400, Note_on_c, 0, 70, 52
2, 86400, Note_on_c, 0, 34, 46
2, 86588, Note_on_c, 0, 34, 0
2, 86588, Note_on_c, 0, 70, 0
2, 86592, Note_on_c, 0, 75, 53
2, 86780, Note_on_c, 0, 75, 0
2, 86784, Note_on_c, 0, 69, 96
2, 86784, Note_on_c, 0, 63, 79
2, 86784, Note_on_c, 0, 59, 81
2, 86972, Note_on_c, 0, 59, 0
2, 86972, Note_on_c, 0, 63, 0
2, 86972, Note_on_c, 0, 69, 0
2, 86976, Note_on_c, 0, 58, 65
2, 86976, Note_on_c, 0, 70, 66
2, 86976, Note_on_c, 0, 62, 42
2, 87164, Note_on_c, 0, 62, 0
2, 87164, Note_on_c, 0, 70, 0
2, 87164, Note_on_c, 0, 58, 0
2, 87168, Note_on_c, 0, 75, 64
2, 87356, Note_on_c, 0, 75, 0
2, 87360, Note_on_c, 0, 69, 94
2, 87360, Note_on_c, 0, 63, 63
2, 87360, Note_on_c, 0, 59, 67
2, 87548, Note_on_c, 0, 59, 0
2, 87548, Note_on_c, 0, 63, 0
2, 87548, Note_on_c, 0, 69, 0
2, 87552, Note_on_c, 0, 70, 72
2, 87552, Note_on_c, 0, 58, 55
2, 87552, Note_on_c, 0, 62, 34
2, 87740, Note_on_c, 0, 70, 0
2, 87744, Note_on_c, 0, 82, 80
2, 87932, Note_on_c, 0, 82, 0
2, 87932, Note_on_c, 0, 62, 0
2, 87932, Note_on_c, 0, 58, 0
2, 87936, Note_on_c, 0, 74, 94
2, 88124, Note_on_c, 0, 74, 0
2, 88128, Note_on_c, 0, 86, 68
2, 88316, Note_on_c, 0, 86, 0
2, 88320, Note_on_c, 0, 77, 59
2, 88508, Note_on_c, 0, 77, 0
2, 88512, Note_on_c, 0, 89, 111
2, 88796, Note_on_c, 0, 89, 0
2, 88800, Note_on_c, 0, 87, 77
2, 88892, Note_on_c, 0, 87, 0
2, 88896, Note_on_c, 0, 86, 78
2, 88988, Note_on_c, 0, 86, 0
2, 88992, Note_on_c, 0, 84, 80
2, 89084, Note_on_c, 0, 84, 0
2, 89088, Note_on_c, 0, 82, 71
2, 89180, Note_on_c, 0, 82, 0
2, 89184, Note_on_c, 0, 81, 67
2, 89276, Note_on_c, 0, 81, 0
2, 89280, Note_on_c, 0, 79, 68
2, 89372, Note_on_c, 0, 79, 0
2, 89376, Note_on_c, 0, 77, 55
2, 89468, Note_on_c, 0, 77, 0
2, 89472, Note_on_c, 0, 75, 64
2, 89564, Note_on_c, 0, 75, 0
2, 89568, Note_on_c, 0, 74, 51
2, 89660, Note_on_c, 0, 74, 0
2, 89664, Note_on_c, 0, 72, 52
2, 89756, Note_on_c, 0, 72, 0
2, 89760, Note_on_c, 0, 70, 50
2, 89852, Note_on_c, 0, 70, 0
2, 89856, Note_on_c, 0, 69, 64
2, 89948, Note_on_c, 0, 69, 0
2, 89952, Note_on_c, 0, 70, 66
2, 90044, Note_on_c, 0, 70, 0
2, 90048, Note_on_c, 0, 72, 68
2, 90140, Note_on_c, 0, 72, 0
2, 90144, Note_on_c, 0, 74, 75
2, 90236, Note_on_c, 0, 74, 0
2, 90240, Note_on_c, 0, 75, 61
2, 90332, Note_on_c, 0, 75, 0
2, 90336, Note_on_c, 0, 77, 69
2, 90428, Note_on_c, 0, 77, 0
2, 90432, Note_on_c, 0, 79, 85
2, 90524, Note_on_c, 0, 79, 0
2, 90528, Note_on_c, 0, 81, 91
2, 90620, Note_on_c, 0, 81, 0
2, 90624, Note_on_c, 0, 82, 82
2, 90716, Note_on_c, 0, 82, 0
2, 90720, Note_on_c, 0, 84, 89
2, 90812, Note_on_c, 0, 84, 0
2, 90816, Note_on_c, 0, 86, 97
2, 90908, Note_on_c, 0, 86, 0
2, 90912, Note_on_c, 0, 87, 101
2, 91004, Note_on_c, 0, 87, 0
2, 91008, Note_on_c, 0, 89, 102
2, 91100, Note_on_c, 0, 89, 0
2, 91104, Note_on_c, 0, 87, 100
2, 91196, Note_on_c, 0, 87, 0
2, 91200, Note_on_c, 0, 86, 92
2, 91292, Note_on_c, 0, 86, 0
2, 91296, Note_on_c, 0, 84, 89
2, 91388, Note_on_c, 0, 84, 0
2, 91392, Note_on_c, 0, 82, 74
2, 91484, Note_on_c, 0, 82, 0
2, 91488, Note_on_c, 0, 80, 79
2, 91580, Note_on_c, 0, 80, 0
2, 91584, Note_on_c, 0, 79, 67
2, 91676, Note_on_c, 0, 79, 0
2, 91680, Note_on_c, 0, 77, 57
2, 91772, Note_on_c, 0, 77, 0
2, 91776, Note_on_c, 0, 75, 55
2, 91868, Note_on_c, 0, 75, 0
2, 91872, Note_on_c, 0, 74, 58
2, 91964, Note_on_c, 0, 74, 0
2, 91968, Note_on_c, 0, 72, 61
2, 92060, Note_on_c, 0, 72, 0
2, 92064, Note_on_c, 0, 70, 59
2, 92156, Note_on_c, 0, 70, 0
2, 92160, Note_on_c, 0, 68, 62
2, 92252, Note_on_c, 0, 68, 0
2, 92256, Note_on_c, 0, 70, 58
2, 92348, Note_on_c, 0, 70, 0
2, 92352, Note_on_c, 0, 72, 37
2, 92444, Note_on_c, 0, 72, 0
2, 92448, Note_on_c, 0, 74, 62
2, 92540, Note_on_c, 0, 74, 0
2, 92544, Note_on_c, 0, 75, 68
2, 92636, Note_on_c, 0, 75, 0
2, 92640, Note_on_c, 0, 77, 58
2, 92732, Note_on_c, 0, 77, 0
2, 92736, Note_on_c, 0, 79, 78
2, 92828, Note_on_c, 0, 79, 0
2, 92832, Note_on_c, 0, 80, 86
2, 92924, Note_on_c, 0, 80, 0
2, 92928, Note_on_c, 0, 82, 88
2, 93020, Note_on_c, 0, 82, 0
2, 93024, Note_on_c, 0, 84, 93
2, 93116, Note_on_c, 0, 84, 0
2, 93120, Note_on_c, 0, 86, 94
2, 93212, Note_on_c, 0, 86, 0
2, 93216, Note_on_c, 0, 87, 99
2, 93308, Note_on_c, 0, 87, 0
2, 93312, Note_on_c, 0, 89, 99
2, 93404, Note_on_c, 0, 89, 0
2, 93408, Note_on_c, 0, 87, 97
2, 93500, Note_on_c, 0, 87, 0
2, 93504, Note_on_c, 0, 86, 97
2, 93596, Note_on_c, 0, 86, 0
2, 93600, Note_on_c, 0, 84, 94
2, 93692, Note_on_c, 0, 84, 0
2, 93696, Note_on_c, 0, 82, 92
2, 93788, Note_on_c, 0, 82, 0
2, 93792, Note_on_c, 0, 80, 99
2, 93884, Note_on_c, 0, 80, 0
2, 93888, Note_on_c, 0, 79, 100
2, 93980, Note_on_c, 0, 79, 0
2, 93984, Note_on_c, 0, 77, 99
2, 94076, Note_on_c, 0, 77, 0
2, 94080, Note_on_c, 0, 75, 102
2, 94172, Note_on_c, 0, 75, 0
2, 94176, Note_on_c, 0, 74, 108
2, 94268, Note_on_c, 0, 74, 0
2, 94272, Note_on_c, 0, 72, 102
2, 94364, Note_on_c, 0, 72, 0
2, 94368, Note_on_c, 0, 70, 98
2, 94460, Note_on_c, 0, 70, 0
2, 94464, Note_on_c, 0, 68, 100
2, 94556, Note_on_c, 0, 68, 0
2, 94560, Note_on_c, 0, 67, 103
2, 94652, Note_on_c, 0, 67, 0
2, 94656, Note_on_c, 0, 68, 97
2, 94748, Note_on_c, 0, 68, 0
2, 94752, Note_on_c, 0, 70, 96
2, 94844, Note_on_c, 0, 70, 0
2, 94848, Note_on_c, 0, 72, 103
2, 94892, Note_on_c, 0, 72, 0
2, 94896, Note_on_c, 0, 74, 114
2, 94940, Note_on_c, 0, 74, 0
2, 94944, Note_on_c, 0, 75, 118
2, 94988, Note_on_c, 0, 75, 0
2, 94992, Note_on_c, 0, 79, 127
2, 95052, Note_on_c, 0, 79, 0
2, 95376, Note_on_c, 0, 75, 65
2, 95436, Note_on_c, 0, 75, 0
2, 95616, Note_on_c, 0, 70, 62
2, 95808, Note_on_c, 0, 58, 51
2, 95996, Note_on_c, 0, 58, 0
2, 95996, Note_on_c, 0, 70, 0
2, 96000, Note_on_c, 0, 63, 58
2, 96000, Note_on_c, 0, 67, 79
2, 96168, Note_on_c, 0, 70, 70
2, 96188, Note_on_c, 0, 70, 0
2, 96188, Note_on_c, 0, 67, 0
2, 96188, Note_on_c, 0, 63, 0
2, 96192, Note_on_c, 0, 68, 67
2, 96380, Note_on_c, 0, 68, 0
2, 96384, Note_on_c, 0, 67, 83
2, 96572, Note_on_c, 0, 67, 0
2, 96576, Note_on_c, 0, 63, 51
2, 96576, Note_on_c, 0, 68, 84
2, 96720, Note_on_c, 0, 67, 74
2, 96740, Note_on_c, 0, 67, 0
2, 96744, Note_on_c, 0, 68, 62
2, 96764, Note_on_c, 0, 68, 0
2, 96764, Note_on_c, 0, 68, 0
2, 96764, Note_on_c, 0, 63, 0
2, 96768, Note_on_c, 0, 70, 71
2, 96960, Note_on_c, 0, 58, 51
2, 97148, Note_on_c, 0, 58, 0
2, 97152, Note_on_c, 0, 63, 40
2, 97340, Note_on_c, 0, 63, 0
2, 97532, Note_on_c, 0, 70, 0
2, 97536, Note_on_c, 0, 58, 51
2, 97536, Note_on_c, 0, 68, 74
2, 97724, Note_on_c, 0, 68, 0
2, 97724, Note_on_c, 0, 58, 0
2, 97728, Note_on_c, 0, 63, 52
2, 97728, Note_on_c, 0, 67, 74
2, 97896, Note_on_c, 0, 67, 39
2, 97916, Note_on_c, 0, 67, 0
2, 97916, Note_on_c, 0, 67, 0
2, 97916, Note_on_c, 0, 63, 0
2, 97920, Note_on_c, 0, 65, 81
2, 98108, Note_on_c, 0, 65, 0
2, 98112, Note_on_c, 0, 64, 59
2, 98112, Note_on_c, 0, 56, 62
2, 98300, Note_on_c, 0, 56, 0
2, 98300, Note_on_c, 0, 64, 0
2, 98304, Note_on_c, 0, 65, 59
2, 98304, Note_on_c, 0, 60, 54
2, 98304, Note_on_c, 0, 65, 89
2, 98396, Note_on_c, 0, 65, 0
2, 98492, Note_on_c, 0, 65, 0
2, 98492, Note_on_c, 0, 60, 0
2, 98496, Note_on_c, 0, 69, 79
2, 98684, Note_on_c, 0, 69, 0
2, 98688, Note_on_c, 0, 70, 61
2, 98748, Note_on_c, 0, 70, 0
2, 98880, Note_on_c, 0, 62, 80
2, 98940, Note_on_c, 0, 62, 0
2, 99072, Note_on_c, 0, 65, 75
2, 99164, Note_on_c, 0, 65, 0
2, 99168, Note_on_c, 0, 63, 60
2, 99260, Note_on_c, 0, 63, 0
2, 99264, Note_on_c, 0, 62, 61
2, 99356, Note_on_c, 0, 62, 0
2, 99360, Note_on_c, 0, 63, 66
2, 99452, Note_on_c, 0, 63, 0
2, 99456, Note_on_c, 0, 58, 54
2, 99456, Note_on_c, 0, 67, 91
2, 99548, Note_on_c, 0, 67, 0
2, 99552, Note_on_c, 0, 63, 72
2, 99644, Note_on_c, 0, 63, 0
2, 99644, Note_on_c, 0, 58, 0
2, 99648, Note_on_c, 0, 70, 77
2, 99708, Note_on_c, 0, 70, 0
2, 99712, Note_on_c, 0, 67, 75
2, 99772, Note_on_c, 0, 67, 0
2, 99776, Note_on_c, 0, 75, 88
2, 99836, Note_on_c, 0, 75, 0
2, 99840, Note_on_c, 0, 58, 58
2, 99840, Note_on_c, 0, 70, 74
2, 99900, Note_on_c, 0, 70, 0
2, 99904, Note_on_c, 0, 79, 89
2, 99964, Note_on_c, 0, 79, 0
2, 99968, Note_on_c, 0, 75, 92
2, 100028, Note_on_c, 0, 75, 0
2, 100028, Note_on_c, 0, 58, 0
2, 100032, Note_on_c, 0, 63, 75
2, 100032, Note_on_c, 0, 82, 94
2, 100076, Note_on_c, 0, 82, 0
2, 100080, Note_on_c, 0, 79, 79
2, 100124, Note_on_c, 0, 79, 0
2, 100128, Note_on_c, 0, 75, 68
2, 100172, Note_on_c, 0, 75, 0
2, 100176, Note_on_c, 0, 70, 56
2, 100220, Note_on_c, 0, 70, 0
2, 100220, Note_on_c, 0, 63, 0
2, 100224, Note_on_c, 0, 68, 70
2, 100316, Note_on_c, 0, 68, 0
2, 100320, Note_on_c, 0, 67, 83
2, 100412, Note_on_c, 0, 67, 0
2, 100416, Note_on_c, 0, 66, 83
2, 100416, Note_on_c, 0, 58, 62
2, 100508, Note_on_c, 0, 66, 0
2, 100512, Note_on_c, 0, 67, 82
2, 100604, Note_on_c, 0, 67, 0
2, 100604, Note_on_c, 0, 58, 0
2, 100608, Note_on_c, 0, 66, 83
2, 100608, Note_on_c, 0, 63, 70
2, 100700, Note_on_c, 0, 66, 0
2, 100704, Note_on_c, 0, 67, 86
2, 100796, Note_on_c, 0, 67, 0
2, 100796, Note_on_c, 0, 63, 0
2, 100800, Note_on_c, 0, 70, 80
2, 100892, Note_on_c, 0, 70, 0
2, 100896, Note_on_c, 0, 68, 86
2, 100988, Note_on_c, 0, 68, 0
2, 100992, Note_on_c, 0, 67, 97
2, 101084, Note_on_c, 0, 67, 0
2, 101088, Note_on_c, 0, 68, 91
2, 101180, Note_on_c, 0, 68, 0
2, 101184, Note_on_c, 0, 67, 105
2, 101184, Note_on_c, 0, 63, 80
2, 101276, Note_on_c, 0, 67, 0
2, 101280, Note_on_c, 0, 68, 95
2, 101372, Note_on_c, 0, 68, 0
2, 101372, Note_on_c, 0, 63, 0
2, 101376, Note_on_c, 0, 72, 96
2, 101468, Note_on_c, 0, 72, 0
2, 101472, Note_on_c, 0, 70, 86
2, 101564, Note_on_c, 0, 70, 0
2, 101568, Note_on_c, 0, 69, 90
2, 101568, Note_on_c, 0, 58, 71
2, 101660, Note_on_c, 0, 69, 0
2, 101664, Note_on_c, 0, 70, 61
2, 101756, Note_on_c, 0, 70, 0
2, 101756, Note_on_c, 0, 58, 0
2, 101760, Note_on_c, 0, 69, 74
2, 101760, Note_on_c, 0, 63, 78
2, 101852, Note_on_c, 0, 69, 0
2, 101856, Note_on_c, 0, 70, 61
2, 101948, Note_on_c, 0, 70, 0
2, 101948, Note_on_c, 0, 63, 0
2, 101952, Note_on_c, 0, 69, 81
2, 102044, Note_on_c, 0, 69, 0
2, 102048, Note_on_c, 0, 70, 61
2, 102140, Note_on_c, 0, 70, 0
2, 102144, Note_on_c, 0, 72, 61
2, 102144, Note_on_c, 0, 58, 76
2, 102236, Note_on_c, 0, 72, 0
2, 102240, Note_on_c, 0, 70, 59
2, 102332, Note_on_c, 0, 70, 0
2, 102332, Note_on_c, 0, 58, 0
2, 102336, Note_on_c, 0, 68, 65
2, 102336, Note_on_c, 0, 63, 78
2, 102428, Note_on_c, 0, 68, 0
2, 102432, Note_on_c, 0, 67, 72
2, 102524, Note_on_c, 0, 67, 0
2, 102524, Note_on_c, 0, 63, 0
2, 102528, Note_on_c, 0, 65, 62
2, 102620, Note_on_c, 0, 65, 0
2, 102624, Note_on_c, 0, 67, 64
2, 102716, Note_on_c, 0, 67, 0
2, 102720, Note_on_c, 0, 65, 69
2, 102812, Note_on_c, 0, 65, 0
2, 102816, Note_on_c, 0, 64, 93
2, 102908, Note_on_c, 0, 64, 0
2, 102912, Note_on_c, 0, 65, 89
2, 102912, Note_on_c, 0, 60, 75
2, 103004, Note_on_c, 0, 65, 0
2, 103008, Note_on_c, 0, 67, 94
2, 103100, Note_on_c, 0, 67, 0
2, 103100, Note_on_c, 0, 60, 0
2, 103104, Note_on_c, 0, 68, 91
2, 103196, Note_on_c, 0, 68, 0
2, 103200, Note_on_c, 0, 69, 97
2, 103292, Note_on_c, 0, 69, 0
2, 103296, Note_on_c, 0, 70, 59
2, 103388, Note_on_c, 0, 70, 0
2, 103392, Note_on_c, 0, 62, 52
2, 103484, Note_on_c, 0, 62, 0
2, 103488, Note_on_c, 0, 70, 53
2, 103580, Note_on_c, 0, 70, 0
2, 103584, Note_on_c, 0, 62, 47
2, 103676, Note_on_c, 0, 62, 0
2, 103680, Note_on_c, 0, 63, 48
2, 103872, Note_on_c, 0, 58, 57
2, 104060, Note_on_c, 0, 58, 0
2, 104060, Note_on_c, 0, 63, 0
2, 104256, Note_on_c, 0, 58, 46
2, 104316, Note_on_c, 0, 58, 0
2, 104448, Note_on_c, 0, 58, 73
2, 104508, Note_on_c, 0, 58, 0
2, 104640, Note_on_c, 0, 58, 65
2, 104700, Note_on_c, 0, 58, 0
2, 104832, Note_on_c, 0, 65, 95
2, 104832, Note_on_c, 0, 46, 79
2, 104832, Note_on_c, 0, 38, 75
2, 104832, Note_on_c, 0, 58, 74
2, 104832, Note_on_c, 0, 70, 99
2, 105212, Note_on_c, 0, 70, 0
2, 105216, Note_on_c, 0, 68, 74
2, 105276, Note_on_c, 0, 68, 0
2, 105404, Note_on_c, 0, 58, 0
2, 105404, Note_on_c, 0, 65, 0
2, 105404, Note_on_c, 0, 46, 0
2, 105404, Note_on_c, 0, 38, 0
2, 105408, Note_on_c, 0, 58, 75
2, 105468, Note_on_c, 0, 58, 0
2, 105600, Note_on_c, 0, 58, 60
2, 105660, Note_on_c, 0, 58, 0
2, 105792, Note_on_c, 0, 58, 70
2, 105852, Note_on_c, 0, 58, 0
2, 105984, Note_on_c, 0, 68, 96
2, 106364, Note_on_c, 0, 68, 0
2, 106368, Note_on_c, 0, 67, 78
2, 106428, Note_on_c, 0, 67, 0
2, 106560, Note_on_c, 0, 58, 70
2, 106620, Note_on_c, 0, 58, 0
2, 106752, Note_on_c, 0, 58, 70
2, 106812, Note_on_c, 0, 58, 0
2, 106944, Note_on_c, 0, 58, 67
2, 107004, Note_on_c, 0, 58, 0
2, 107136, Note_on_c, 0, 44, 100
2, 107136, Note_on_c, 0, 62, 112
2, 107136, Note_on_c, 0, 58, 100
2, 107136, Note_on_c, 0, 67, 111
2, 107516, Note_on_c, 0, 67, 0
2, 107520, Note_on_c, 0, 65, 86
2, 107580, Note_on_c, 0, 65, 0
2, 107708, Note_on_c, 0, 58, 0
2, 107708, Note_on_c, 0, 62, 0
2, 107708, Note_on_c, 0, 44, 0
2, 107904, Note_on_c, 0, 62, 79
2, 107904, Note_on_c, 0, 65, 78
2, 107904, Note_on_c, 0, 53, 71
2, 107904, Note_on_c, 0, 58, 52
2, 107964, Note_on_c, 0, 58, 0
2, 107964, Note_on_c, 0, 62, 0
2, 107964, Note_on_c, 0, 65, 0
2, 107964, Note_on_c, 0, 53, 0
2, 108096, Note_on_c, 0, 63, 70
2, 108096, Note_on_c, 0, 67, 84
2, 108096, Note_on_c, 0, 58, 61
2, 108096, Note_on_c, 0, 51, 74
2, 108156, Note_on_c, 0, 51, 0
2, 108156, Note_on_c, 0, 63, 0
2, 108156, Note_on_c, 0, 67, 0
2, 108156, Note_on_c, 0, 58, 0
2, 108864, Note_on_c, 0, 69, 75
2, 108956, Note_on_c, 0, 69, 0
2, 108960, Note_on_c, 0, 70, 58
2, 108988, Note_on_c, 0, 70, 0
2, 109056, Note_on_c, 0, 69, 64
2, 109148, Note_on_c, 0, 69, 0
2, 109152, Note_on_c, 0, 70, 51
2, 109180, Note_on_c, 0, 70, 0
2, 109248, Note_on_c, 0, 69, 56
2, 109340, Note_on_c, 0, 69, 0
2, 109344, Note_on_c, 0, 70, 70
2, 109372, Note_on_c, 0, 70, 0
2, 109440, Note_on_c, 0, 70, 106
2, 109440, Note_on_c, 0, 62, 97
2, 109440, Note_on_c, 0, 65, 89
2, 109440, Note_on_c, 0, 82, 108
2, 109820, Note_on_c, 0, 82, 0
2, 109824, Note_on_c, 0, 80, 70
2, 109884, Note_on_c, 0, 80, 0
2, 110012, Note_on_c, 0, 65, 0
2, 110012, Note_on_c, 0, 62, 0
2, 110012, Note_on_c, 0, 70, 0
2, 110016, Note_on_c, 0, 69, 53
2, 110108, Note_on_c, 0, 69, 0
2, 110112, Note_on_c, 0, 70, 52
2, 110140, Note_on_c, 0, 70, 0
2, 110208, Note_on_c, 0, 69, 60
2, 110300, Note_on_c, 0, 69, 0
2, 110304, Note_on_c, 0, 70, 66
2, 110332, Note_on_c, 0, 70, 0
2, 110400, Note_on_c, 0, 69, 73
2, 110492, Note_on_c, 0, 69, 0
2, 110496, Note_on_c, 0, 70, 52
2, 110524, Note_on_c, 0, 70, 0
2, 110592, Note_on_c, 0, 70, 100
2, 110592, Note_on_c, 0, 63, 100
2, 110592, Note_on_c, 0, 67, 104
2, 110592, Note_on_c, 0, 80, 104
2, 110972, Note_on_c, 0, 80, 0
2, 110976, Note_on_c, 0, 79, 81
2, 111036, Note_on_c, 0, 79, 0
2, 111164, Note_on_c, 0, 67, 0
2, 111164, Note_on_c, 0, 63, 0
2, 111164, Note_on_c, 0, 70, 0
2, 111168, Note_on_c, 0, 69, 54
2, 111260, Note_on_c, 0, 69, 0
2, 111264, Note_on_c, 0, 70, 59
2, 111292, Note_on_c, 0, 70, 0
2, 111360, Note_on_c, 0, 69, 49
2, 111452, Note_on_c, 0, 69, 0
2, 111456, Note_on_c, 0, 70, 50
2, 111484, Note_on_c, 0, 70, 0
2, 111552, Note_on_c, 0, 69, 52
2, 111644, Note_on_c, 0, 69, 0
2, 111648, Note_on_c, 0, 70, 61
2, 111676, Note_on_c, 0, 70, 0
2, 111744, Note_on_c, 0, 70, 100
2, 111744, Note_on_c, 0, 68, 93
2, 111744, Note_on_c, 0, 74, 117
2, 111744, Note_on_c, 0, 79, 98
2, 112124, Note_on_c, 0, 79, 0
2, 112128, Note_on_c, 0, 77, 67
2, 112188, Note_on_c, 0, 77, 0
2, 112316, Note_on_c, 0, 74, 0
2, 112316, Note_on_c, 0, 68, 0
2, 112316, Note_on_c, 0, 70, 0
2, 112320, Note_on_c, 0, 75, 77
2, 112320, Note_on_c, 0, 67, 75
2, 112320, Note_on_c, 0, 70, 62
2, 112380, Note_on_c, 0, 70, 0
2, 112380, Note_on_c, 0, 67, 0
2, 112380, Note_on_c, 0, 75, 0
2, 112512, Note_on_c, 0, 74, 78
2, 112512, Note_on_c, 0, 65, 68
2, 112512, Note_on_c, 0, 77, 65
2, 112572, Note_on_c, 0, 77, 0
2, 112572, Note_on_c, 0, 65, 0
2, 112572, Note_on_c, 0, 74, 0
2, 112704, Note_on_c, 0, 79, 81
2, 112704, Note_on_c, 0, 75, 68
2, 112704, Note_on_c, 0, 63, 76
2, 112764, Note_on_c, 0, 63, 0
2, 112764, Note_on_c, 0, 75, 0
2, 112764, Note_on_c, 0, 79, 0
2, 112896, Note_on_c, 0, 74, 75
2, 112896, Note_on_c, 0, 77, 81
2, 112896, Note_on_c, 0, 70, 64
2, 113468, Note_on_c, 0, 70, 0
2, 113468, Note_on_c, 0, 77, 0
2, 113468, Note_on_c, 0, 74, 0
2, 113472, Note_on_c, 0, 63, 75
2, 113472, Note_on_c, 0, 58, 63
2, 113472, Note_on_c, 0, 55, 78
2, 113532, Note_on_c, 0, 55, 0
2, 113532, Note_on_c, 0, 58, 0
2, 113532, Note_on_c, 0, 63, 0
2, 113664, Note_on_c, 0, 62, 70
2, 113664, Note_on_c, 0, 65, 63
2, 113664, Note_on_c, 0, 53, 63
2, 113724, Note_on_c, 0, 53, 0
2, 113724, Note_on_c, 0, 65, 0
2, 113724, Note_on_c, 0, 62, 0
2, 113856, Note_on_c, 0, 63, 71
2, 113856, Note_on_c, 0, 67, 83
2, 113856, Note_on_c, 0, 51, 62
2, 113916, Note_on_c, 0, 51, 0
2, 113916, Note_on_c, 0, 67, 0
2, 113916, Note_on_c, 0, 63, 0
2, 114048, Note_on_c, 0, 65, 77
2, 114048, Note_on_c, 0, 62, 63
2, 114048, Note_on_c, 0, 58, 57
2, 114620, Note_on_c, 0, 58, 0
2, 114620, Note_on_c, 0, 62, 0
2, 114620, Note_on_c, 0, 65, 0
2, 114624, Note_on_c, 0, 75, 82
2, 114624, Note_on_c, 0, 70, 45
2, 114624, Note_on_c, 0, 67, 71
2, 114684, Note_on_c, 0, 67, 0
2, 114684, Note_on_c, 0, 70, 0
2, 114684, Note_on_c, 0, 75, 0
2, 114816, Note_on_c, 0, 74, 75
2, 114816, Note_on_c, 0, 65, 67
2, 114816, Note_on_c, 0, 77, 75
2, 114876, Note_on_c, 0, 77, 0
2, 114876, Note_on_c, 0, 65, 0
2, 114876, Note_on_c, 0, 74, 0
2, 115008, Note_on_c, 0, 75, 76
2, 115008, Note_on_c, 0, 63, 72
2, 115008, Note_on_c, 0, 79, 78
2, 115068, Note_on_c, 0, 79, 0
2, 115068, Note_on_c, 0, 63, 0
2, 115068, Note_on_c, 0, 75, 0
2, 115200, Note_on_c, 0, 77, 80
2, 115200, Note_on_c, 0, 74, 65
2, 115200, Note_on_c, 0, 70, 57
2, 115772, Note_on_c, 0, 70, 0
2, 115772, Note_on_c, 0, 74, 0
2, 115772, Note_on_c, 0, 77, 0
2, 115776, Note_on_c, 0, 70, 63
2, 115776, Note_on_c, 0, 75, 74
2, 115776, Note_on_c, 0, 67, 69
2, 115836, Note_on_c, 0, 67, 0
2, 115836, Note_on_c, 0, 75, 0
2, 115836, Note_on_c, 0, 70, 0
2, 115968, Note_on_c, 0, 74, 68
2, 115968, Note_on_c, 0, 77, 77
2, 115968, Note_on_c, 0, 65, 62
2, 116028, Note_on_c, 0, 65, 0
2, 116028, Note_on_c, 0, 77, 0
2, 116028, Note_on_c, 0, 74, 0
2, 116160, Note_on_c, 0, 75, 73
2, 116160, Note_on_c, 0, 79, 77
2, 116160, Note_on_c, 0, 63, 71
2, 116220, Note_on_c, 0, 63, 0
2, 116220, Note_on_c, 0, 79, 0
2, 116220, Note_on_c, 0, 75, 0
2, 116352, Note_on_c, 0, 58, 67
2, 116352, Note_on_c, 0, 74, 83
2, 116352, Note_on_c, 0, 77, 84
2, 116636, Note_on_c, 0, 77, 0
2, 116636, Note_on_c, 0, 74, 0
2, 116636, Note_on_c, 0, 58, 0
2, 116640, Note_on_c, 0, 75, 82
2, 116640, Note_on_c, 0, 70, 70
2, 116640, Note_on_c, 0, 67, 78
2, 116668, Note_on_c, 0, 67, 0
2, 116668, Note_on_c, 0, 70, 0
2, 116668, Note_on_c, 0, 75, 0
2, 116736, Note_on_c, 0, 74, 81
2, 116736, Note_on_c, 0, 77, 73
2, 116736, Note_on_c, 0, 65, 69
2, 116764, Note_on_c, 0, 65, 0
2, 116764, Note_on_c, 0, 77, 0
2, 116764, Note_on_c, 0, 74, 0
2, 116832, Note_on_c, 0, 75, 73
2, 116832, Note_on_c, 0, 79, 84
2, 116832, Note_on_c, 0, 63, 76
2, 116860, Note_on_c, 0, 63, 0
2, 116860, Note_on_c, 0, 79, 0
2, 116860, Note_on_c, 0, 75, 0
2, 116928, Note_on_c, 0, 70, 71
2, 116928, Note_on_c, 0, 77, 83
2, 116928, Note_on_c, 0, 74, 78
2, 117212, Note_on_c, 0, 74, 0
2, 117212, Note_on_c, 0, 77, 0
2, 117212, Note_on_c, 0, 70, 0
2, 117216, Note_on_c, 0, 70, 67
2, 117216, Note_on_c, 0, 75, 77
2, 117216, Note_on_c, 0, 67, 78
2, 117244, Note_on_c, 0, 67, 0
2, 117244, Note_on_c, 0, 75, 0
2, 117244, Note_on_c, 0, 70, 0
2, 117312, Note_on_c, 0, 74, 81
2, 117312, Note_on_c, 0, 65, 70
2, 117312, Note_on_c, 0, 77, 73
2, 117340, Note_on_c, 0, 77, 0
2, 117340, Note_on_c, 0, 65, 0
2, 117340, Note_on_c, 0, 74, 0
2, 117408, Note_on_c, 0, 75, 74
2, 117408, Note_on_c, 0, 79, 83
2, 117408, Note_on_c, 0, 63, 82
2, 117436, Note_on_c, 0, 63, 0
2, 117436, Note_on_c, 0, 79, 0
2, 117436, Note_on_c, 0, 75, 0
2, 117504, Note_on_c, 0, 77, 79
2, 117504, Note_on_c, 0, 58, 67
2, 117504, Note_on_c, 0, 74, 75
2, 117532, Note_on_c, 0, 74, 0
2, 117532, Note_on_c, 0, 58, 0
2, 117532, Note_on_c, 0, 77, 0
2, 117600, Note_on_c, 0, 70, 59
2, 117600, Note_on_c, 0, 75, 75
2, 117600, Note_on_c, 0, 67, 62
2, 117628, Note_on_c, 0, 67, 0
2, 117628, Note_on_c, 0, 75, 0
2, 117628, Note_on_c, 0, 70, 0
2, 117696, Note_on_c, 0, 74, 80
2, 117696, Note_on_c, 0, 77, 81
2, 117696, Note_on_c, 0, 65, 68
2, 117724, Note_on_c, 0, 65, 0
2, 117724, Note_on_c, 0, 77, 0
2, 117724, Note_on_c, 0, 74, 0
2, 117792, Note_on_c, 0, 75, 89
2, 117792, Note_on_c, 0, 79, 93
2, 117792, Note_on_c, 0, 63, 85
2, 117820, Note_on_c, 0, 63, 0
2, 117820, Note_on_c, 0, 79, 0
2, 117820, Note_on_c, 0, 75, 0
2, 117888, Note_on_c, 0, 77, 95
2, 117888, Note_on_c, 0, 74, 97
2, 117888, Note_on_c, 0, 58, 89
2, 117916, Note_on_c, 0, 58, 0
2, 117916, Note_on_c, 0, 74, 0
2, 117916, Note_on_c, 0, 77, 0
2, 117984, Note_on_c, 0, 70, 85
2, 117984, Note_on_c, 0, 75, 96
2, 117984, Note_on_c, 0, 67, 88
2, 118012, Note_on_c, 0, 67, 0
2, 118012, Note_on_c, 0, 75, 0
2, 118012, Note_on_c, 0, 70, 0
2, 118080, Note_on_c, 0, 74, 100
2, 118080, Note_on_c, 0, 77, 94
2, 118080, Note_on_c, 0, 65, 80
2, 118108, Note_on_c, 0, 65, 0
2, 118108, Note_on_c, 0, 77, 0
2, 118108, Note_on_c, 0, 74, 0
2, 118176, Note_on_c, 0, 79, 100
2, 118176, Note_on_c, 0, 63, 90
2, 118176, Note_on_c, 0, 75, 98
2, 118204, Note_on_c, 0, 75, 0
2, 118204, Note_on_c, 0, 63, 0
2, 118204, Note_on_c, 0, 79, 0
2, 118272, Note_on_c, 0, 74, 104
2, 118272, Note_on_c, 0, 58, 93
2, 118272, Note_on_c, 0, 77, 99
2, 118300, Note_on_c, 0, 77, 0
2, 118300, Note_on_c, 0, 58, 0
2, 118300, Note_on_c, 0, 74, 0
2, 118368, Note_on_c, 0, 75, 101
2, 118368, Note_on_c, 0, 67, 92
2, 118368, Note_on_c, 0, 70, 97
2, 118396, Note_on_c, 0, 70, 0
2, 118396, Note_on_c, 0, 67, 0
2, 118396, Note_on_c, 0, 75, 0
2, 118464, Note_on_c, 0, 74, 107
2, 118464, Note_on_c, 0, 65, 90
2, 118464, Note_on_c, 0, 77, 98
2, 118492, Note_on_c, 0, 77, 0
2, 118492, Note_on_c, 0, 65, 0
2, 118492, Note_on_c, 0, 74, 0
2, 118560, Note_on_c, 0, 75, 101
2, 118560, Note_on_c, 0, 79, 104
2, 118560, Note_on_c, 0, 63, 99
2, 118588, Note_on_c, 0, 63, 0
2, 118588, Note_on_c, 0, 79, 0
2, 118588, Note_on_c, 0, 75, 0
2, 118656, Note_on_c, 0, 74, 124
2, 118656, Note_on_c, 0, 77, 112
2, 118656, Note_on_c, 0, 58, 106
2, 118844, Note_on_c, 0, 58, 0
2, 118844, Note_on_c, 0, 77, 0
2, 118844, Note_on_c, 0, 74, 0
2, 119040, Note_on_c, 0, 77, 105
2, 119084, Note_on_c, 0, 77, 0
2, 119088, Note_on_c, 0, 75, 103
2, 119132, Note_on_c, 0, 75, 0
2, 119136, Note_on_c, 0, 74, 115
2, 119180, Note_on_c, 0, 74, 0
2, 119184, Note_on_c, 0, 72, 98
2, 119228, Note_on_c, 0, 72, 0
2, 119232, Note_on_c, 0, 70, 91
2, 119292, Note_on_c, 0, 70, 0
2, 119616, Note_on_c, 0, 77, 102
2, 119660, Note_on_c, 0, 77, 0
2, 119664, Note_on_c, 0, 75, 103
2, 119708, Note_on_c, 0, 75, 0
2, 119712, Note_on_c, 0, 74, 105
2, 119756, Note_on_c, 0, 74, 0
2, 119760, Note_on_c, 0, 72, 96
2, 119804, Note_on_c, 0, 72, 0
2, 119808, Note_on_c, 0, 70, 88
2, 119868, Note_on_c, 0, 70, 0
2, 120768, Note_on_c, 0, 77, 75
2, 120812, Note_on_c, 0, 77, 0
2, 120816, Note_on_c, 0, 75, 65
2, 120860, Note_on_c, 0, 75, 0
2, 120864, Note_on_c, 0, 74, 73
2, 120908, Note_on_c, 0, 74, 0
2, 120912, Note_on_c, 0, 72, 59
2, 120956, Note_on_c, 0, 72, 0
2, 120960, Note_on_c, 0, 70, 58
2, 121020, Note_on_c, 0, 70, 0
2, 121344, Note_on_c, 0, 79, 77
2, 121376, Note_on_c, 0, 79, 0
2, 121380, Note_on_c, 0, 77, 89
2, 121412, Note_on_c, 0, 77, 0
2, 121416, Note_on_c, 0, 75, 78
2, 121448, Note_on_c, 0, 75, 0
2, 121452, Note_on_c, 0, 74, 85
2, 121488, Note_on_c, 0, 74, 0
2, 121492, Note_on_c, 0, 72, 71
2, 121528, Note_on_c, 0, 72, 0
2, 121536, Note_on_c, 0, 70, 88
2, 121596, Note_on_c, 0, 70, 0
2, 121920, Note_on_c, 0, 80, 80
2, 121948, Note_on_c, 0, 80, 0
2, 121952, Note_on_c, 0, 79, 87
2, 121980, Note_on_c, 0, 79, 0
2, 121984, Note_on_c, 0, 77, 92
2, 122012, Note_on_c, 0, 77, 0
2, 122016, Note_on_c, 0, 75, 95
2, 122044, Note_on_c, 0, 75, 0
2, 122048, Note_on_c, 0, 74, 105
2, 122076, Note_on_c, 0, 74, 0
2, 122080, Note_on_c, 0, 72, 95
2, 122108, Note_on_c, 0, 72, 0
2, 122112, Note_on_c, 0, 70, 100
2, 122140, Note_on_c, 0, 70, 0
2, 122208, Note_on_c, 0, 82, 96
2, 122300, Note_on_c, 0, 82, 0
2, 122304, Note_on_c, 0, 80, 92
2, 122396, Note_on_c, 0, 80, 0
2, 122400, Note_on_c, 0, 79, 97
2, 122492, Note_on_c, 0, 79, 0
2, 122496, Note_on_c, 0, 77, 93
2, 122540, Note_on_c, 0, 77, 0
2, 122544, Note_on_c, 0, 75, 105
2, 122588, Note_on_c, 0, 75, 0
2, 122592, Note_on_c, 0, 74, 108
2, 122636, Note_on_c, 0, 74, 0
2, 122640, Note_on_c, 0, 72, 98
2, 122684, Note_on_c, 0, 72, 0
2, 122688, Note_on_c, 0, 70, 97
2, 122876, Note_on_c, 0, 70, 0
2, 122880, Note_on_c, 0, 79, 98
2, 122940, Note_on_c, 0, 79, 0
2, 123072, Note_on_c, 0, 75, 61
2, 123132, Note_on_c, 0, 75, 0
2, 123264, Note_on_c, 0, 70, 62
2, 123456, Note_on_c, 0, 58, 51
2, 123644, Note_on_c, 0, 58, 0
2, 123644, Note_on_c, 0, 70, 0
2, 123648, Note_on_c, 0, 63, 58
2, 123648, Note_on_c, 0, 67, 79
2, 123816, Note_on_c, 0, 70, 70
2, 123836, Note_on_c, 0, 70, 0
2, 123836, Note_on_c, 0, 67, 0
2, 123836, Note_on_c, 0, 63, 0
2, 123840, Note_on_c, 0, 68, 67
2, 124028, Note_on_c, 0, 68, 0
2, 124032, Note_on_c, 0, 67, 83
2, 124220, Note_on_c, 0, 67, 0
2, 124224, Note_on_c, 0, 63, 51
2, 124224, Note_on_c, 0, 68, 84
2, 124368, Note_on_c, 0, 67, 74
2, 124388, Note_on_c, 0, 67, 0
2, 124392, Note_on_c, 0, 68, 62
2, 124412, Note_on_c, 0, 68, 0
2, 124412, Note_on_c, 0, 68, 0
2, 124412, Note_on_c, 0, 63, 0
2, 124416, Note_on_c, 0, 70, 71
2, 124608, Note_on_c, 0, 58, 51
2, 124796, Note_on_c, 0, 58, 0
2, 124800, Note_on_c, 0, 63, 40
2, 124988, Note_on_c, 0, 63, 0
2, 125180, Note_on_c, 0, 70, 0
2, 125184, Note_on_c, 0, 58, 51
2, 125184, Note_on_c, 0, 68, 74
2, 125372, Note_on_c, 0, 68, 0
2, 125372, Note_on_c, 0, 58, 0
2, 125376, Note_on_c, 0, 63, 52
2, 125376, Note_on_c, 0, 67, 74
2, 125544, Note_on_c, 0, 67, 39
2, 125564, Note_on_c, 0, 67, 0
2, 125564, Note_on_c, 0, 67, 0
2, 125564, Note_on_c, 0, 63, 0
2, 125568, Note_on_c, 0, 65, 81
2, 125756, Note_on_c, 0, 65, 0
2, 125760, Note_on_c, 0, 64, 59
2, 125760, Note_on_c, 0, 56, 62
2, 125948, Note_on_c, 0, 56, 0
2, 125948, Note_on_c, 0, 64, 0
2, 125952, Note_on_c, 0, 65, 59
2, 125952, Note_on_c, 0, 60, 54
2, 126140, Note_on_c, 0, 60, 0
2, 126140, Note_on_c, 0, 65, 0
2, 126144, Note_on_c, 0, 69, 79
2, 126332, Note_on_c, 0, 69, 0
2, 126336, Note_on_c, 0, 70, 61
2, 126396, Note_on_c, 0, 70, 0
2, 126528, Note_on_c, 0, 62, 80
2, 126588, Note_on_c, 0, 62, 0
2, 126720, Note_on_c, 0, 65, 78
2, 126780, Note_on_c, 0, 65, 0
2, 126784, Note_on_c, 0, 63, 61
2, 126844, Note_on_c, 0, 63, 0
2, 126848, Note_on_c, 0, 62, 65
2, 126908, Note_on_c, 0, 62, 0
2, 126912, Note_on_c, 0, 63, 62
2, 126972, Note_on_c, 0, 63, 0
2, 126976, Note_on_c, 0, 65, 67
2, 127036, Note_on_c, 0, 65, 0
2, 127040, Note_on_c, 0, 67, 84
2, 127100, Note_on_c, 0, 67, 0
2, 127104, Note_on_c, 0, 58, 80
2, 127104, Note_on_c, 0, 68, 79
2, 127164, Note_on_c, 0, 68, 0
2, 127168, Note_on_c, 0, 70, 84
2, 127228, Note_on_c, 0, 70, 0
2, 127232, Note_on_c, 0, 72, 78
2, 127292, Note_on_c, 0, 72, 0
2, 127292, Note_on_c, 0, 58, 0
2, 127296, Note_on_c, 0, 74, 91
2, 127356, Note_on_c, 0, 74, 0
2, 127360, Note_on_c, 0, 75, 100
2, 127420, Note_on_c, 0, 75, 0
2, 127424, Note_on_c, 0, 77, 97
2, 127484, Note_on_c, 0, 77, 0
2, 127488, Note_on_c, 0, 58, 85
2, 127488, Note_on_c, 0, 79, 99
2, 127532, Note_on_c, 0, 79, 0
2, 127536, Note_on_c, 0, 80, 98
2, 127580, Note_on_c, 0, 80, 0
2, 127584, Note_on_c, 0, 79, 102
2, 127628, Note_on_c, 0, 79, 0
2, 127632, Note_on_c, 0, 77, 97
2, 127676, Note_on_c, 0, 77, 0
2, 127676, Note_on_c, 0, 58, 0
2, 127680, Note_on_c, 0, 63, 79
2, 127680, Note_on_c, 0, 75, 93
2, 127724, Note_on_c, 0, 75, 0
2, 127728, Note_on_c, 0, 74, 97
2, 127772, Note_on_c, 0, 74, 0
2, 127776, Note_on_c, 0, 72, 89
2, 127820, Note_on_c, 0, 72, 0
2, 127824, Note_on_c, 0, 70, 90
2, 127868, Note_on_c, 0, 70, 0
2, 127868, Note_on_c, 0, 63, 0
2, 127872, Note_on_c, 0, 68, 91
2, 127932, Note_on_c, 0, 68, 0
2, 127936, Note_on_c, 0, 67, 66
2, 127996, Note_on_c, 0, 67, 0
2, 128000, Note_on_c, 0, 66, 62
2, 128060, Note_on_c, 0, 66, 0
2, 128064, Note_on_c, 0, 58, 59
2, 128064, Note_on_c, 0, 67, 73
2, 128124, Note_on_c, 0, 67, 0
2, 128128, Note_on_c, 0, 66, 70
2, 128188, Note_on_c, 0, 66, 0
2, 128192, Note_on_c, 0, 67, 70
2, 128252, Note_on_c, 0, 67, 0
2, 128252, Note_on_c, 0, 58, 0
2, 128256, Note_on_c, 0, 63, 59
2, 128256, Note_on_c, 0, 66, 76
2, 128300, Note_on_c, 0, 66, 0
2, 128304, Note_on_c, 0, 67, 93
2, 128348, Note_on_c, 0, 67, 0
2, 128352, Note_on_c, 0, 66, 82
2, 128396, Note_on_c, 0, 66, 0
2, 128400, Note_on_c, 0, 67, 85
2, 128444, Note_on_c, 0, 67, 0
2, 128444, Note_on_c, 0, 63, 0
2, 128448, Note_on_c, 0, 70, 86
2, 128508, Note_on_c, 0, 70, 0
2, 128512, Note_on_c, 0, 68, 88
2, 128572, Note_on_c, 0, 68, 0
2, 128576, Note_on_c, 0, 67, 100
2, 128636, Note_on_c, 0, 67, 0
2, 128640, Note_on_c, 0, 68, 92
2, 128700, Note_on_c, 0, 68, 0
2, 128704, Note_on_c, 0, 67, 102
2, 128764, Note_on_c, 0, 67, 0
2, 128768, Note_on_c, 0, 68, 94
2, 128828, Note_on_c, 0, 68, 0
2, 128832, Note_on_c, 0, 63, 60
2, 128832, Note_on_c, 0, 67, 75
2, 128876, Note_on_c, 0, 67, 0
2, 128880, Note_on_c, 0, 68, 89
2, 128924, Note_on_c, 0, 68, 0
2, 128928, Note_on_c, 0, 67, 101
2, 128972, Note_on_c, 0, 67, 0
2, 128976, Note_on_c, 0, 68, 104
2, 129020, Note_on_c, 0, 68, 0
2, 129020, Note_on_c, 0, 63, 0
2, 129024, Note_on_c, 0, 72, 99
2, 129084, Note_on_c, 0, 72, 0
2, 129088, Note_on_c, 0, 70, 87
2, 129148, Note_on_c, 0, 70, 0
2, 129152, Note_on_c, 0, 69, 85
2, 129212, Note_on_c, 0, 69, 0
2, 129216, Note_on_c, 0, 58, 86
2, 129216, Note_on_c, 0, 70, 91
2, 129276, Note_on_c, 0, 70, 0
2, 129280, Note_on_c, 0, 72, 83
2, 129340, Note_on_c, 0, 72, 0
2, 129344, Note_on_c, 0, 74, 95
2, 129404, Note_on_c, 0, 74, 0
2, 129404, Note_on_c, 0, 58, 0
2, 129408, Note_on_c, 0, 63, 76
2, 129408, Note_on_c, 0, 75, 87
2, 129468, Note_on_c, 0, 75, 0
2, 129472, Note_on_c, 0, 77, 92
2, 129532, Note_on_c, 0, 77, 0
2, 129536, Note_on_c, 0, 79, 98
2, 129596, Note_on_c, 0, 79, 0
2, 129596, Note_on_c, 0, 63, 0
2, 129600, Note_on_c, 0, 80, 92
2, 129644, Note_on_c, 0, 80, 0
2, 129648, Note_on_c, 0, 82, 85
2, 129692, Note_on_c, 0, 82, 0
2, 129696, Note_on_c, 0, 84, 93
2, 129740, Note_on_c, 0, 84, 0
2, 129744, Note_on_c, 0, 86, 91
2, 129788, Note_on_c, 0, 86, 0
2, 129792, Note_on_c, 0, 58, 92
2, 129792, Note_on_c, 0, 87, 92
2, 129836, Note_on_c, 0, 87, 0
2, 129840, Note_on_c, 0, 89, 91
2, 129884, Note_on_c, 0, 89, 0
2, 129888, Note_on_c, 0, 87, 93
2, 129932, Note_on_c, 0, 87, 0
2, 129936, Note_on_c, 0, 86, 97
2, 129980, Note_on_c, 0, 86, 0
2, 129980, Note_on_c, 0, 58, 0
2, 129984, Note_on_c, 0, 63, 84
2, 129984, Note_on_c, 0, 84, 97
2, 130028, Note_on_c, 0, 84, 0
2, 130032, Note_on_c, 0, 82, 93
2, 130076, Note_on_c, 0, 82, 0
2, 130080, Note_on_c, 0, 80, 95
2, 130124, Note_on_c, 0, 80, 0
2, 130128, Note_on_c, 0, 79, 95
2, 130172, Note_on_c, 0, 79, 0
2, 130172, Note_on_c, 0, 63, 0
2, 130176, Note_on_c, 0, 77, 90
2, 130244, Note_on_c, 0, 77, 0
2, 130248, Note_on_c, 0, 79, 96
2, 130316, Note_on_c, 0, 79, 0
2, 130320, Note_on_c, 0, 77, 104
2, 130388, Note_on_c, 0, 77, 0
2, 130392, Note_on_c, 0, 76, 100
2, 130460, Note_on_c, 0, 76, 0
2, 130464, Note_on_c, 0, 77, 96
2, 130532, Note_on_c, 0, 77, 0
2, 130536, Note_on_c, 0, 79, 96
2, 130560, Note_on_c, 0, 60, 71
2, 130604, Note_on_c, 0, 79, 0
2, 130608, Note_on_c, 0, 80, 102
2, 130676, Note_on_c, 0, 80, 0
2, 130680, Note_on_c, 0, 81, 97
2, 130748, Note_on_c, 0, 81, 0
2, 130748, Note_on_c, 0, 60, 0
2, 130752, Note_on_c, 0, 82, 108
2, 130812, Note_on_c, 0, 82, 0
2, 131136, Note_on_c, 0, 74, 77
2, 131196, Note_on_c, 0, 74, 0
2, 131328, Note_on_c, 0, 75, 87
2, 131520, Note_on_c, 0, 58, 40
2, 131708, Note_on_c, 0, 58, 0
2, 131708, Note_on_c, 0, 75, 0
2, 131904, Note_on_c, 0, 80, 79
2, 131996, Note_on_c, 0, 80, 0
2, 132000, Note_on_c, 0, 79, 63
2, 132092, Note_on_c, 0, 79, 0
2, 132096, Note_on_c, 0, 77, 68
2, 132188, Note_on_c, 0, 77, 0
2, 132192, Note_on_c, 0, 75, 75
2, 132284, Note_on_c, 0, 75, 0
2, 132288, Note_on_c, 0, 74, 50
2, 132380, Note_on_c, 0, 74, 0
2, 132384, Note_on_c, 0, 72, 70
2, 132476, Note_on_c, 0, 72, 0
2, 132480, Note_on_c, 0, 70, 73
2, 132672, Note_on_c, 0, 62, 54
2, 132672, Note_on_c, 0, 58, 48
2, 132672, Note_on_c, 0, 65, 48
2, 132672, Note_on_c, 0, 56, 69
2, 132732, Note_on_c, 0, 56, 0
2, 132732, Note_on_c, 0, 58, 0
2, 132732, Note_on_c, 0, 65, 0
2, 132732, Note_on_c, 0, 62, 0
2, 132864, Note_on_c, 0, 62, 58
2, 132864, Note_on_c, 0, 58, 50
2, 132864, Note_on_c, 0, 56, 60
2, 132864, Note_on_c, 0, 65, 43
2, 132924, Note_on_c, 0, 65, 0
2, 132924, Note_on_c, 0, 58, 0
2, 132924, Note_on_c, 0, 56, 0
2, 132924, Note_on_c, 0, 62, 0
2, 133052, Note_on_c, 0, 70, 0
2, 133056, Note_on_c, 0, 69, 74
2, 133148, Note_on_c, 0, 69, 0
2, 133152, Note_on_c, 0, 70, 69
2, 133244, Note_on_c, 0, 70, 0
2, 133248, Note_on_c, 0, 71, 60
2, 133340, Note_on_c, 0, 71, 0
2, 133344, Note_on_c, 0, 72, 74
2, 133436, Note_on_c, 0, 72, 0
2, 133440, Note_on_c, 0, 73, 83
2, 133532, Note_on_c, 0, 73, 0
2, 133536, Note_on_c, 0, 74, 89
2, 133628, Note_on_c, 0, 74, 0
2, 133632, Note_on_c, 0, 75, 86
2, 133824, Note_on_c, 0, 63, 53
2, 133824, Note_on_c, 0, 58, 68
2, 133884, Note_on_c, 0, 58, 0
2, 133884, Note_on_c, 0, 63, 0
2, 134016, Note_on_c, 0, 55, 68
2, 134016, Note_on_c, 0, 58, 66
2, 134016, Note_on_c, 0, 63, 44
2, 134076, Note_on_c, 0, 63, 0
2, 134076, Note_on_c, 0, 58, 0
2, 134076, Note_on_c, 0, 55, 0
2, 134204, Note_on_c, 0, 75, 0
2, 134208, Note_on_c, 0, 75, 84
2, 134300, Note_on_c, 0, 75, 0
2, 134304, Note_on_c, 0, 74, 59
2, 134396, Note_on_c, 0, 74, 0
2, 134400, Note_on_c, 0, 72, 53
2, 134492, Note_on_c, 0, 72, 0
2, 134496, Note_on_c, 0, 70, 60
2, 134588, Note_on_c, 0, 70, 0
2, 134592, Note_on_c, 0, 68, 46
2, 134684, Note_on_c, 0, 68, 0
2, 134688, Note_on_c, 0, 67, 75
2, 134716, Note_on_c, 0, 67, 0
2, 134784, Note_on_c, 0, 65, 51
2, 135164, Note_on_c, 0, 65, 0
2, 135168, Note_on_c, 0, 68, 58
2, 135228, Note_on_c, 0, 68, 0
2, 135360, Note_on_c, 0, 58, 52
2, 135740, Note_on_c, 0, 58, 0
2, 135744, Note_on_c, 0, 62, 60
2, 135804, Note_on_c, 0, 62, 0
2, 135936, Note_on_c, 0, 63, 64
2, 136060, Note_on_c, 0, 63, 0
2, 136320, Note_on_c, 0, 65, 68
2, 136412, Note_on_c, 0, 65, 0
2, 136416, Note_on_c, 0, 67, 65
2, 136508, Note_on_c, 0, 67, 0
2, 136512, Note_on_c, 0, 68, 71
2, 136604, Note_on_c, 0, 68, 0
2, 136608, Note_on_c, 0, 67, 61
2, 136700, Note_on_c, 0, 67, 0
2, 136704, Note_on_c, 0, 65, 55
2, 136796, Note_on_c, 0, 65, 0
2, 136800, Note_on_c, 0, 63, 48
2, 136892, Note_on_c, 0, 63, 0
2, 136896, Note_on_c, 0, 62, 46
2, 136988, Note_on_c, 0, 62, 0
2, 136992, Note_on_c, 0, 60, 50
2, 137084, Note_on_c, 0, 60, 0
2, 137088, Note_on_c, 0, 58, 55
2, 137184, Note_on_c, 0, 68, 55
2, 137276, Note_on_c, 0, 68, 0
2, 137280, Note_on_c, 0, 74, 68
2, 137372, Note_on_c, 0, 74, 0
2, 137376, Note_on_c, 0, 77, 68
2, 137468, Note_on_c, 0, 77, 0
2, 137472, Note_on_c, 0, 80, 61
2, 137532, Note_on_c, 0, 80, 0
2, 137660, Note_on_c, 0, 58, 0
2, 137664, Note_on_c, 0, 57, 55
2, 137756, Note_on_c, 0, 57, 0
2, 137760, Note_on_c, 0, 58, 57
2, 137852, Note_on_c, 0, 58, 0
2, 137856, Note_on_c, 0, 59, 62
2, 137948, Note_on_c, 0, 59, 0
2, 137952, Note_on_c, 0, 60, 75
2, 138044, Note_on_c, 0, 60, 0
2, 138048, Note_on_c, 0, 61, 79
2, 138140, Note_on_c, 0, 61, 0
2, 138144, Note_on_c, 0, 62, 81
2, 138236, Note_on_c, 0, 62, 0
2, 138240, Note_on_c, 0, 63, 69
2, 138336, Note_on_c, 0, 67, 73
2, 138428, Note_on_c, 0, 67, 0
2, 138432, Note_on_c, 0, 70, 68
2, 138524, Note_on_c, 0, 70, 0
2, 138528, Note_on_c, 0, 75, 84
2, 138620, Note_on_c, 0, 75, 0
2, 138624, Note_on_c, 0, 79, 75
2, 138684, Note_on_c, 0, 79, 0
2, 138812, Note_on_c, 0, 63, 0
2, 138816, Note_on_c, 0, 63, 82
2, 138908, Note_on_c, 0, 63, 0
2, 138912, Note_on_c, 0, 62, 81
2, 139004, Note_on_c, 0, 62, 0
2, 139008, Note_on_c, 0, 60, 74
2, 139100, Note_on_c, 0, 60, 0
2, 139104, Note_on_c, 0, 58, 61
2, 139196, Note_on_c, 0, 58, 0
2, 139488, Note_on_c, 0, 72, 68
2, 139580, Note_on_c, 0, 72, 0
2, 139584, Note_on_c, 0, 77, 76
2, 139676, Note_on_c, 0, 77, 0
2, 139680, Note_on_c, 0, 80, 77
2, 139772, Note_on_c, 0, 80, 0
2, 139776, Note_on_c, 0, 84, 92
2, 139836, Note_on_c, 0, 84, 0
2, 140064, Note_on_c, 0, 70, 69
2, 140156, Note_on_c, 0, 70, 0
2, 140160, Note_on_c, 0, 74, 72
2, 140252, Note_on_c, 0, 74, 0
2, 140256, Note_on_c, 0, 77, 80
2, 140348, Note_on_c, 0, 77, 0
2, 140352, Note_on_c, 0, 82, 72
2, 140444, Note_on_c, 0, 82, 0
2, 140448, Note_on_c, 0, 80, 73
2, 140540, Note_on_c, 0, 80, 0
2, 140544, Note_on_c, 0, 79, 66
2, 140572, Note_on_c, 0, 79, 0
2, 140640, Note_on_c, 0, 67, 77
2, 140732, Note_on_c, 0, 67, 0
2, 140736, Note_on_c, 0, 70, 77
2, 140828, Note_on_c, 0, 70, 0
2, 140832, Note_on_c, 0, 75, 89
2, 140924, Note_on_c, 0, 75, 0
2, 140928, Note_on_c, 0, 79, 89
2, 141020, Note_on_c, 0, 79, 0
2, 141024, Note_on_c, 0, 82, 80
2, 141116, Note_on_c, 0, 82, 0
2, 141120, Note_on_c, 0, 87, 84
2, 141212, Note_on_c, 0, 87, 0
2, 141216, Note_on_c, 0, 86, 87
2, 141308, Note_on_c, 0, 86, 0
2, 141312, Note_on_c, 0, 84, 90
2, 141404, Note_on_c, 0, 84, 0
2, 141408, Note_on_c, 0, 82, 73
2, 141500, Note_on_c, 0, 82, 0
2, 141504, Note_on_c, 0, 80, 55
2, 141596, Note_on_c, 0, 80, 0
2, 141600, Note_on_c, 0, 79, 68
2, 141628, Note_on_c, 0, 79, 0
2, 141696, Note_on_c, 0, 77, 78
2, 141888, Note_on_c, 0, 56, 51
2, 141888, Note_on_c, 0, 65, 62
2, 141888, Note_on_c, 0, 60, 73
2, 141948, Note_on_c, 0, 60, 0
2, 141948, Note_on_c, 0, 65, 0
2, 141948, Note_on_c, 0, 56, 0
2, 142076, Note_on_c, 0, 77, 0
2, 142080, Note_on_c, 0, 80, 66
2, 142140, Note_on_c, 0, 80, 0
2, 142272, Note_on_c, 0, 70, 47
2, 142464, Note_on_c, 0, 58, 41
2, 142464, Note_on_c, 0, 68, 54
2, 142464, Note_on_c, 0, 65, 59
2, 142524, Note_on_c, 0, 65, 0
2, 142524, Note_on_c, 0, 68, 0
2, 142524, Note_on_c, 0, 58, 0
2, 142652, Note_on_c, 0, 70, 0
2, 142656, Note_on_c, 0, 74, 54
2, 142716, Note_on_c, 0, 74, 0
2, 142848, Note_on_c, 0, 75, 76
2, 142940, Note_on_c, 0, 75, 0
2, 142944, Note_on_c, 0, 74, 76
2, 143036, Note_on_c, 0, 74, 0
2, 143040, Note_on_c, 0, 63, 63
2, 143040, Note_on_c, 0, 67, 50
2, 143040, Note_on_c, 0, 75, 76
2, 143100, Note_on_c, 0, 67, 0
2, 143100, Note_on_c, 0, 63, 0
2, 143132, Note_on_c, 0, 75, 0
2, 143136, Note_on_c, 0, 74, 87
2, 143228, Note_on_c, 0, 74, 0
2, 143232, Note_on_c, 0, 79, 90
2, 143324, Note_on_c, 0, 79, 0
2, 143328, Note_on_c, 0, 77, 91
2, 143420, Note_on_c, 0, 77, 0
2, 143424, Note_on_c, 0, 75, 82
2, 143516, Note_on_c, 0, 75, 0
2, 143520, Note_on_c, 0, 74, 89
2, 143612, Note_on_c, 0, 74, 0
2, 143616, Note_on_c, 0, 72, 82
2, 143708, Note_on_c, 0, 72, 0
2, 143712, Note_on_c, 0, 70, 82
2, 143804, Note_on_c, 0, 70, 0
2, 143808, Note_on_c, 0, 68, 86
2, 143900, Note_on_c, 0, 68, 0
2, 143904, Note_on_c, 0, 67, 95
2, 143996, Note_on_c, 0, 67, 0
2, 144000, Note_on_c, 0, 65, 58
2, 144092, Note_on_c, 0, 65, 0
2, 144096, Note_on_c, 0, 67, 77
2, 144188, Note_on_c, 0, 67, 0
2, 144192, Note_on_c, 0, 65, 65
2, 144284, Note_on_c, 0, 65, 0
2, 144288, Note_on_c, 0, 64, 64
2, 144380, Note_on_c, 0, 64, 0
2, 144384, Note_on_c, 0, 65, 67
2, 144476, Note_on_c, 0, 65, 0
2, 144480, Note_on_c, 0, 68, 70
2, 144508, Note_on_c, 0, 68, 0
2, 144576, Note_on_c, 0, 58, 74
2, 144668, Note_on_c, 0, 58, 0
2, 144672, Note_on_c, 0, 60, 64
2, 144764, Note_on_c, 0, 60, 0
2, 144768, Note_on_c, 0, 58, 59
2, 144860, Note_on_c, 0, 58, 0
2, 144864, Note_on_c, 0, 57, 77
2, 144956, Note_on_c, 0, 57, 0
2, 144960, Note_on_c, 0, 58, 71
2, 145052, Note_on_c, 0, 58, 0
2, 145056, Note_on_c, 0, 62, 67
2, 145084, Note_on_c, 0, 62, 0
2, 145152, Note_on_c, 0, 63, 79
2, 145532, Note_on_c, 0, 63, 0
2, 145536, Note_on_c, 0, 58, 82
2, 145536, Note_on_c, 0, 46, 84
2, 145596, Note_on_c, 0, 46, 0
2, 145596, Note_on_c, 0, 58, 0
2, 145920, Note_on_c, 0, 82, 102
2, 145920, Note_on_c, 0, 70, 88
2, 145980, Note_on_c, 0, 70, 0
2, 145980, Note_on_c, 0, 82, 0
2, 146112, Note_on_c, 0, 86, 111
2, 146112, Note_on_c, 0, 74, 105
2, 146112, Note_on_c, 0, 80, 102
2, 146172, Note_on_c, 0, 80, 0
2, 146172, Note_on_c, 0, 74, 0
2, 146172, Note_on_c, 0, 86, 0
2, 146304, Note_on_c, 0, 75, 117
2, 146304, Note_on_c, 0, 87, 114
2, 146304, Note_on_c, 0, 79, 120
2, 146364, Note_on_c, 0, 79, 0
2, 146364, Note_on_c, 0, 87, 0
2, 146364, Note_on_c, 0, 75, 0
2, 146364, End_track
3, 0, Start_track
3, 0, Title_t, "Andante grazioso, quasi allegretto"
3, 0, Control_c, 0, 0, 0
3, 0, Control_c, 0, 7, 110
3, 0, Control_c, 0, 10, 48
3, 0, Control_c, 0, 32, 0
3, 1, Program_c, 0, 0
3, 1152, Note_on_c, 0, 55, 43
3, 1152, Note_on_c, 0, 51, 63
3, 1340, Note_on_c, 0, 55, 0
3, 1728, Note_on_c, 0, 53, 63
3, 1916, Note_on_c, 0, 53, 0
3, 1920, Note_on_c, 0, 56, 61
3, 2108, Note_on_c, 0, 56, 0
3, 2300, Note_on_c, 0, 51, 0
3, 2304, Note_on_c, 0, 55, 56
3, 2304, Note_on_c, 0, 51, 57
3, 2492, Note_on_c, 0, 55, 0
3, 2880, Note_on_c, 0, 55, 53
3, 3068, Note_on_c, 0, 55, 0
3, 3452, Note_on_c, 0, 51, 0
3, 3456, Note_on_c, 0, 51, 60
3, 3644, Note_on_c, 0, 51, 0
3, 4032, Note_on_c, 0, 51, 64
3, 4220, Note_on_c, 0, 51, 0
3, 4224, Note_on_c, 0, 53, 55
3, 4412, Note_on_c, 0, 53, 0
3, 4416, Note_on_c, 0, 56, 79
3, 4604, Note_on_c, 0, 56, 0
3, 4608, Note_on_c, 0, 51, 68
3, 4800, Note_on_c, 0, 55, 54
3, 4988, Note_on_c, 0, 55, 0
3, 5184, Note_on_c, 0, 55, 58
3, 5372, Note_on_c, 0, 55, 0
3, 5756, Note_on_c, 0, 51, 0
3, 5760, Note_on_c, 0, 51, 59
3, 5760, Note_on_c, 0, 55, 68
3, 5948, Note_on_c, 0, 55, 0
3, 6336, Note_on_c, 0, 53, 59
3, 6524, Note_on_c, 0, 53, 0
3, 6528, Note_on_c, 0, 56, 71
3, 6716, Note_on_c, 0, 56, 0
3, 6908, Note_on_c, 0, 51, 0
3, 6912, Note_on_c, 0, 51, 68
3, 6912, Note_on_c, 0, 55, 57
3, 7100, Note_on_c, 0, 55, 0
3, 7488, Note_on_c, 0, 55, 63
3, 7676, Note_on_c, 0, 55, 0
3, 8060, Note_on_c, 0, 51, 0
3, 8064, Note_on_c, 0, 51, 69
3, 8256, Note_on_c, 0, 56, 62
3, 8316, Note_on_c, 0, 56, 0
3, 8636, Note_on_c, 0, 51, 0
3, 8640, Note_on_c, 0, 51, 52
3, 8832, Note_on_c, 0, 53, 65
3, 8892, Note_on_c, 0, 53, 0
3, 9024, Note_on_c, 0, 56, 58
3, 9084, Note_on_c, 0, 56, 0
3, 9212, Note_on_c, 0, 51, 0
3, 9216, Note_on_c, 0, 51, 62
3, 9216, Note_on_c, 0, 55, 59
3, 9404, Note_on_c, 0, 55, 0
3, 9404, Note_on_c, 0, 51, 0
3, 9600, Note_on_c, 0, 51, 60
3, 9660, Note_on_c, 0, 51, 0
3, 10368, Note_on_c, 0, 65, 103
3, 10368, Note_on_c, 0, 46, 82
3, 10368, Note_on_c, 0, 58, 89
3, 10368, Note_on_c, 0, 38, 84
3, 10940, Note_on_c, 0, 38, 0
3, 10940, Note_on_c, 0, 65, 0
3, 10940, Note_on_c, 0, 46, 0
3, 10940, Note_on_c, 0, 58, 0
3, 11520, Note_on_c, 0, 39, 86
3, 11520, Note_on_c, 0, 63, 99
3, 11520, Note_on_c, 0, 58, 93
3, 11520, Note_on_c, 0, 46, 80
3, 12092, Note_on_c, 0, 46, 0
3, 12092, Note_on_c, 0, 39, 0
3, 12092, Note_on_c, 0, 63, 0
3, 12092, Note_on_c, 0, 58, 0
3, 13248, Note_on_c, 0, 63, 85
3, 13248, Note_on_c, 0, 58, 70
3, 13248, Note_on_c, 0, 43, 70
3, 13308, Note_on_c, 0, 43, 0
3, 13308, Note_on_c, 0, 58, 0
3, 13308, Note_on_c, 0, 63, 0
3, 25728, Note_on_c, 0, 53, 101
3, 25772, Note_on_c, 0, 53, 0
3, 25776, Note_on_c, 0, 51, 95
3, 25820, Note_on_c, 0, 51, 0
3, 25824, Note_on_c, 0, 50, 99
3, 25868, Note_on_c, 0, 50, 0
3, 25872, Note_on_c, 0, 48, 99
3, 25916, Note_on_c, 0, 48, 0
3, 25920, Note_on_c, 0, 46, 90
3, 25980, Note_on_c, 0, 46, 0
3, 28800, Note_on_c, 0, 55, 43
3, 28800, Note_on_c, 0, 51, 63
3, 28988, Note_on_c, 0, 55, 0
3, 29376, Note_on_c, 0, 53, 63
3, 29564, Note_on_c, 0, 53, 0
3, 29568, Note_on_c, 0, 56, 61
3, 29756, Note_on_c, 0, 56, 0
3, 29948, Note_on_c, 0, 51, 0
3, 29952, Note_on_c, 0, 55, 56
3, 29952, Note_on_c, 0, 51, 57
3, 30140, Note_on_c, 0, 55, 0
3, 30528, Note_on_c, 0, 55, 53
3, 30716, Note_on_c, 0, 55, 0
3, 31100, Note_on_c, 0, 51, 0
3, 31104, Note_on_c, 0, 51, 60
3, 31292, Note_on_c, 0, 51, 0
3, 31680, Note_on_c, 0, 51, 64
3, 31868, Note_on_c, 0, 51, 0
3, 31872, Note_on_c, 0, 53, 55
3, 32060, Note_on_c, 0, 53, 0
3, 32064, Note_on_c, 0, 56, 79
3, 32252, Note_on_c, 0, 56, 0
3, 32256, Note_on_c, 0, 51, 86
3, 32448, Note_on_c, 0, 55, 61
3, 32636, Note_on_c, 0, 55, 0
3, 32832, Note_on_c, 0, 55, 78
3, 33020, Note_on_c, 0, 55, 0
3, 33404, Note_on_c, 0, 51, 0
3, 33408, Note_on_c, 0, 51, 63
3, 33408, Note_on_c, 0, 55, 61
3, 33596, Note_on_c, 0, 55, 0
3, 33980, Note_on_c, 0, 51, 0
3, 33984, Note_on_c, 0, 51, 62
3, 33984, Note_on_c, 0, 53, 53
3, 34172, Note_on_c, 0, 53, 0
3, 34176, Note_on_c, 0, 56, 59
3, 34364, Note_on_c, 0, 56, 0
3, 34556, Note_on_c, 0, 51, 0
3, 34560, Note_on_c, 0, 51, 65
3, 34560, Note_on_c, 0, 55, 65
3, 34748, Note_on_c, 0, 55, 0
3, 35136, Note_on_c, 0, 55, 53
3, 35324, Note_on_c, 0, 55, 0
3, 35708, Note_on_c, 0, 51, 0
3, 35712, Note_on_c, 0, 51, 61
3, 35904, Note_on_c, 0, 56, 68
3, 36092, Note_on_c, 0, 56, 0
3, 36284, Note_on_c, 0, 51, 0
3, 36288, Note_on_c, 0, 51, 59
3, 36480, Note_on_c, 0, 53, 66
3, 36668, Note_on_c, 0, 53, 0
3, 36672, Note_on_c, 0, 56, 54
3, 36860, Note_on_c, 0, 56, 0
3, 36860, Note_on_c, 0, 51, 0
3, 36864, Note_on_c, 0, 51, 57
3, 36864, Note_on_c, 0, 63, 57
3, 36864, Note_on_c, 0, 55, 59
3, 37244, Note_on_c, 0, 55, 0
3, 37244, Note_on_c, 0, 63, 0
3, 37244, Note_on_c, 0, 51, 0
3, 38016, Note_on_c, 0, 55, 43
3, 38016, Note_on_c, 0, 51, 63
3, 38204, Note_on_c, 0, 55, 0
3, 38592, Note_on_c, 0, 53, 63
3, 38780, Note_on_c, 0, 53, 0
3, 38784, Note_on_c, 0, 56, 61
3, 38972, Note_on_c, 0, 56, 0
3, 39164, Note_on_c, 0, 51, 0
3, 39168, Note_on_c, 0, 55, 56
3, 39168, Note_on_c, 0, 51, 57
3, 39356, Note_on_c, 0, 55, 0
3, 39744, Note_on_c, 0, 55, 53
3, 39932, Note_on_c, 0, 55, 0
3, 40316, Note_on_c, 0, 51, 0
3, 40320, Note_on_c, 0, 51, 60
3, 40508, Note_on_c, 0, 51, 0
3, 40896, Note_on_c, 0, 51, 64
3, 41084, Note_on_c, 0, 51, 0
3, 41088, Note_on_c, 0, 53, 55
3, 41276, Note_on_c, 0, 53, 0
3, 41280, Note_on_c, 0, 56, 79
3, 41468, Note_on_c, 0, 56, 0
3, 41472, Note_on_c, 0, 51, 68
3, 41664, Note_on_c, 0, 55, 54
3, 41852, Note_on_c, 0, 55, 0
3, 42048, Note_on_c, 0, 55, 58
3, 42236, Note_on_c, 0, 55, 0
3, 42620, Note_on_c, 0, 51, 0
3, 42624, Note_on_c, 0, 51, 59
3, 42624, Note_on_c, 0, 55, 68
3, 42812, Note_on_c, 0, 55, 0
3, 43200, Note_on_c, 0, 53, 59
3, 43388, Note_on_c, 0, 53, 0
3, 43392, Note_on_c, 0, 56, 71
3, 43580, Note_on_c, 0, 56, 0
3, 43772, Note_on_c, 0, 51, 0
3, 43776, Note_on_c, 0, 51, 68
3, 43776, Note_on_c, 0, 55, 57
3, 43964, Note_on_c, 0, 55, 0
3, 44352, Note_on_c, 0, 55, 63
3, 44540, Note_on_c, 0, 55, 0
3, 44924, Note_on_c, 0, 51, 0
3, 44928, Note_on_c, 0, 51, 69
3, 45120, Note_on_c, 0, 56, 62
3, 45180, Note_on_c, 0, 56, 0
3, 45500, Note_on_c, 0, 51, 0
3, 45504, Note_on_c, 0, 51, 52
3, 45696, Note_on_c, 0, 53, 65
3, 45756, Note_on_c, 0, 53, 0
3, 45888, Note_on_c, 0, 56, 58
3, 45948, Note_on_c, 0, 56, 0
3, 46076, Note_on_c, 0, 51, 0
3, 46080, Note_on_c, 0, 51, 62
3, 46080, Note_on_c, 0, 55, 59
3, 46268, Note_on_c, 0, 55, 0
3, 46268, Note_on_c, 0, 51, 0
3, 46464, Note_on_c, 0, 51, 60
3, 46524, Note_on_c, 0, 51, 0
3, 47232, Note_on_c, 0, 65, 103
3, 47232, Note_on_c, 0, 46, 82
3, 47232, Note_on_c, 0, 58, 89
3, 47232, Note_on_c, 0, 38, 84
3, 47804, Note_on_c, 0, 38, 0
3, 47804, Note_on_c, 0, 65, 0
3, 47804, Note_on_c, 0, 46, 0
3, 47804, Note_on_c, 0, 58, 0
3, 48384, Note_on_c, 0, 39, 86
3, 48384, Note_on_c, 0, 63, 99
3, 48384, Note_on_c, 0, 58, 93
3, 48384, Note_on_c, 0, 46, 80
3, 48956, Note_on_c, 0, 46, 0
3, 48956, Note_on_c, 0, 39, 0
3, 48956, Note_on_c, 0, 63, 0
3, 48956, Note_on_c, 0, 58, 0
3, 50112, Note_on_c, 0, 63, 85
3, 50112, Note_on_c, 0, 58, 70
3, 50112, Note_on_c, 0, 43, 70
3, 50172, Note_on_c, 0, 43, 0
3, 50172, Note_on_c, 0, 58, 0
3, 50172, Note_on_c, 0, 63, 0
3, 62592, Note_on_c, 0, 53, 101
3, 62636, Note_on_c, 0, 53, 0
3, 62640, Note_on_c, 0, 51, 95
3, 62684, Note_on_c, 0, 51, 0
3, 62688, Note_on_c, 0, 50, 99
3, 62732, Note_on_c, 0, 50, 0
3, 62736, Note_on_c, 0, 48, 99
3, 62780, Note_on_c, 0, 48, 0
3, 62784, Note_on_c, 0, 46, 90
3, 62844, Note_on_c, 0, 46, 0
3, 65664, Note_on_c, 0, 55, 43
3, 65664, Note_on_c, 0, 51, 63
3, 65852, Note_on_c, 0, 55, 0
3, 66240, Note_on_c, 0, 53, 63
3, 66428, Note_on_c, 0, 53, 0
3, 66432, Note_on_c, 0, 56, 61
3, 66620, Note_on_c, 0, 56, 0
3, 66812, Note_on_c, 0, 51, 0
3, 66816, Note_on_c, 0, 55, 56
3, 66816, Note_on_c, 0, 51, 57
3, 67004, Note_on_c, 0, 55, 0
3, 67392, Note_on_c, 0, 55, 53
3, 67580, Note_on_c, 0, 55, 0
3, 67964, Note_on_c, 0, 51, 0
3, 67968, Note_on_c, 0, 51, 60
3, 68156, Note_on_c, 0, 51, 0
3, 68544, Note_on_c, 0, 51, 64
3, 68732, Note_on_c, 0, 51, 0
3, 68736, Note_on_c, 0, 53, 55
3, 68924, Note_on_c, 0, 53, 0
3, 68928, Note_on_c, 0, 56, 79
3, 69116, Note_on_c, 0, 56, 0
3, 69120, Note_on_c, 0, 51, 86
3, 69312, Note_on_c, 0, 55, 61
3, 69500, Note_on_c, 0, 55, 0
3, 69696, Note_on_c, 0, 55, 78
3, 69884, Note_on_c, 0, 55, 0
3, 70268, Note_on_c, 0, 51, 0
3, 70272, Note_on_c, 0, 51, 63
3, 70272, Note_on_c, 0, 55, 61
3, 70460, Note_on_c, 0, 55, 0
3, 70844, Note_on_c, 0, 51, 0
3, 70848, Note_on_c, 0, 51, 62
3, 70848, Note_on_c, 0, 53, 53
3, 71036, Note_on_c, 0, 53, 0
3, 71040, Note_on_c, 0, 56, 59
3, 71228, Note_on_c, 0, 56, 0
3, 71420, Note_on_c, 0, 51, 0
3, 71424, Note_on_c, 0, 51, 65
3, 71424, Note_on_c, 0, 55, 65
3, 71612, Note_on_c, 0, 55, 0
3, 72000, Note_on_c, 0, 55, 53
3, 72188, Note_on_c, 0, 55, 0
3, 72572, Note_on_c, 0, 51, 0
3, 72576, Note_on_c, 0, 51, 61
3, 72768, Note_on_c, 0, 56, 68
3, 72956, Note_on_c, 0, 56, 0
3, 73148, Note_on_c, 0, 51, 0
3, 73152, Note_on_c, 0, 51, 59
3, 73344, Note_on_c, 0, 53, 66
3, 73532, Note_on_c, 0, 53, 0
3, 73536, Note_on_c, 0, 56, 54
3, 73724, Note_on_c, 0, 56, 0
3, 73724, Note_on_c, 0, 51, 0
3, 73728, Note_on_c, 0, 63, 82
3, 73728, Note_on_c, 0, 51, 66
3, 73728, Note_on_c, 0, 55, 65
3, 73852, Note_on_c, 0, 55, 0
3, 73852, Note_on_c, 0, 51, 0
3, 73852, Note_on_c, 0, 63, 0
3, 75648, Note_on_c, 0, 66, 72
3, 75648, Note_on_c, 0, 54, 63
3, 75836, Note_on_c, 0, 54, 0
3, 75836, Note_on_c, 0, 66, 0
3, 76032, Note_on_c, 0, 51, 72
3, 76220, Note_on_c, 0, 51, 0
3, 76608, Note_on_c, 0, 46, 65
3, 76796, Note_on_c, 0, 46, 0
3, 77184, Note_on_c, 0, 39, 62
3, 77372, Note_on_c, 0, 39, 0
3, 77760, Note_on_c, 0, 34, 74
3, 77948, Note_on_c, 0, 34, 0
3, 80256, Note_on_c, 0, 66, 86
3, 80256, Note_on_c, 0, 54, 75
3, 80444, Note_on_c, 0, 54, 0
3, 80444, Note_on_c, 0, 66, 0
3, 80448, Note_on_c, 0, 65, 79
3, 80448, Note_on_c, 0, 53, 73
3, 80636, Note_on_c, 0, 53, 0
3, 80636, Note_on_c, 0, 65, 0
3, 80640, Note_on_c, 0, 51, 78
3, 80828, Note_on_c, 0, 51, 0
3, 81216, Note_on_c, 0, 44, 72
3, 81404, Note_on_c, 0, 44, 0
3, 81792, Note_on_c, 0, 37, 67
3, 81980, Note_on_c, 0, 37, 0
3, 81984, Note_on_c, 0, 53, 74
3, 82364, Note_on_c, 0, 53, 0
3, 82368, Note_on_c, 0, 32, 84
3, 82556, Note_on_c, 0, 32, 0
3, 82752, Note_on_c, 0, 60, 67
3, 82752, Note_on_c, 0, 54, 72
3, 82940, Note_on_c, 0, 54, 0
3, 82940, Note_on_c, 0, 60, 0
3, 82944, Note_on_c, 0, 49, 82
3, 83132, Note_on_c, 0, 49, 0
3, 83136, Note_on_c, 0, 53, 81
3, 83516, Note_on_c, 0, 53, 0
3, 83520, Note_on_c, 0, 44, 77
3, 83708, Note_on_c, 0, 44, 0
3, 83904, Note_on_c, 0, 62, 96
3, 83904, Note_on_c, 0, 56, 92
3, 84092, Note_on_c, 0, 56, 0
3, 84092, Note_on_c, 0, 62, 0
3, 84096, Note_on_c, 0, 51, 80
3, 84284, Note_on_c, 0, 51, 0
3, 84288, Note_on_c, 0, 54, 88
3, 84668, Note_on_c, 0, 54, 0
3, 84672, Note_on_c, 0, 44, 87
3, 84860, Note_on_c, 0, 44, 0
3, 85248, Note_on_c, 0, 51, 86
3, 85436, Note_on_c, 0, 51, 0
3, 85440, Note_on_c, 0, 54, 78
3, 85820, Note_on_c, 0, 54, 0
3, 85824, Note_on_c, 0, 47, 85
3, 86012, Note_on_c, 0, 47, 0
3, 95616, Note_on_c, 0, 55, 43
3, 95616, Note_on_c, 0, 51, 63
3, 95804, Note_on_c, 0, 55, 0
3, 96192, Note_on_c, 0, 53, 63
3, 96380, Note_on_c, 0, 53, 0
3, 96384, Note_on_c, 0, 56, 61
3, 96572, Note_on_c, 0, 56, 0
3, 96764, Note_on_c, 0, 51, 0
3, 96768, Note_on_c, 0, 55, 56
3, 96768, Note_on_c, 0, 51, 57
3, 96956, Note_on_c, 0, 55, 0
3, 97344, Note_on_c, 0, 55, 53
3, 97532, Note_on_c, 0, 55, 0
3, 97916, Note_on_c, 0, 51, 0
3, 97920, Note_on_c, 0, 51, 60
3, 98108, Note_on_c, 0, 51, 0
3, 98496, Note_on_c, 0, 51, 64
3, 98684, Note_on_c, 0, 51, 0
3, 98688, Note_on_c, 0, 53, 55
3, 98876, Note_on_c, 0, 53, 0
3, 98880, Note_on_c, 0, 56, 79
3, 99068, Note_on_c, 0, 56, 0
3, 99072, Note_on_c, 0, 51, 86
3, 99264, Note_on_c, 0, 55, 61
3, 99452, Note_on_c, 0, 55, 0
3, 99648, Note_on_c, 0, 55, 64
3, 99836, Note_on_c, 0, 55, 0
3, 100220, Note_on_c, 0, 51, 0
3, 100224, Note_on_c, 0, 55, 53
3, 100224, Note_on_c, 0, 51, 73
3, 100412, Note_on_c, 0, 55, 0
3, 100800, Note_on_c, 0, 53, 84
3, 100988, Note_on_c, 0, 53, 0
3, 100992, Note_on_c, 0, 56, 67
3, 101180, Note_on_c, 0, 56, 0
3, 101372, Note_on_c, 0, 51, 0
3, 101376, Note_on_c, 0, 55, 77
3, 101376, Note_on_c, 0, 51, 72
3, 101564, Note_on_c, 0, 55, 0
3, 101952, Note_on_c, 0, 55, 83
3, 102140, Note_on_c, 0, 55, 0
3, 102524, Note_on_c, 0, 51, 0
3, 102528, Note_on_c, 0, 51, 71
3, 102720, Note_on_c, 0, 56, 77
3, 102908, Note_on_c, 0, 56, 0
3, 103100, Note_on_c, 0, 51, 0
3, 103104, Note_on_c, 0, 51, 61
3, 103296, Note_on_c, 0, 53, 78
3, 103484, Note_on_c, 0, 53, 0
3, 103488, Note_on_c, 0, 56, 72
3, 103676, Note_on_c, 0, 56, 0
3, 103676, Note_on_c, 0, 51, 0
3, 103680, Note_on_c, 0, 51, 61
3, 103680, Note_on_c, 0, 55, 54
3, 103868, Note_on_c, 0, 55, 0
3, 103868, Note_on_c, 0, 51, 0
3, 104064, Note_on_c, 0, 51, 57
3, 104124, Note_on_c, 0, 51, 0
3, 105984, Note_on_c, 0, 58, 95
3, 105984, Note_on_c, 0, 63, 101
3, 105984, Note_on_c, 0, 46, 98
3, 105984, Note_on_c, 0, 39, 90
3, 106556, Note_on_c, 0, 39, 0
3, 106556, Note_on_c, 0, 58, 0
3, 106556, Note_on_c, 0, 63, 0
3, 106556, Note_on_c, 0, 46, 0
3, 107712, Note_on_c, 0, 55, 68
3, 107712, Note_on_c, 0, 63, 72
3, 107712, Note_on_c, 0, 58, 62
3, 107772, Note_on_c, 0, 58, 0
3, 107772, Note_on_c, 0, 63, 0
3, 107772, Note_on_c, 0, 55, 0
3, 108288, Note_on_c, 0, 65, 74
3, 108288, Note_on_c, 0, 62, 71
3, 108288, Note_on_c, 0, 58, 51
3, 108288, Note_on_c, 0, 46, 59
3, 108860, Note_on_c, 0, 46, 0
3, 108860, Note_on_c, 0, 65, 0
3, 108860, Note_on_c, 0, 62, 0
3, 108860, Note_on_c, 0, 58, 0
3, 120192, Note_on_c, 0, 53, 104
3, 120236, Note_on_c, 0, 53, 0
3, 120240, Note_on_c, 0, 51, 104
3, 120284, Note_on_c, 0, 51, 0
3, 120288, Note_on_c, 0, 50, 112
3, 120332, Note_on_c, 0, 50, 0
3, 120336, Note_on_c, 0, 48, 105
3, 120380, Note_on_c, 0, 48, 0
3, 120384, Note_on_c, 0, 46, 85
3, 120444, Note_on_c, 0, 46, 0
3, 123264, Note_on_c, 0, 55, 43
3, 123264, Note_on_c, 0, 51, 63
3, 123452, Note_on_c, 0, 55, 0
3, 123840, Note_on_c, 0, 53, 63
3, 124028, Note_on_c, 0, 53, 0
3, 124032, Note_on_c, 0, 56, 61
3, 124220, Note_on_c, 0, 56, 0
3, 124412, Note_on_c, 0, 51, 0
3, 124416, Note_on_c, 0, 55, 56
3, 124416, Note_on_c, 0, 51, 57
3, 124604, Note_on_c, 0, 55, 0
3, 124992, Note_on_c, 0, 55, 53
3, 125180, Note_on_c, 0, 55, 0
3, 125564, Note_on_c, 0, 51, 0
3, 125568, Note_on_c, 0, 51, 60
3, 125756, Note_on_c, 0, 51, 0
3, 126144, Note_on_c, 0, 51, 64
3, 126332, Note_on_c, 0, 51, 0
3, 126336, Note_on_c, 0, 53, 55
3, 126524, Note_on_c, 0, 53, 0
3, 126528, Note_on_c, 0, 56, 79
3, 126716, Note_on_c, 0, 56, 0
3, 126720, Note_on_c, 0, 51, 65
3, 126912, Note_on_c, 0, 55, 69
3, 127100, Note_on_c, 0, 55, 0
3, 127296, Note_on_c, 0, 55, 81
3, 127484, Note_on_c, 0, 55, 0
3, 127868, Note_on_c, 0, 51, 0
3, 127872, Note_on_c, 0, 55, 75
3, 127872, Note_on_c, 0, 51, 65
3, 128060, Note_on_c, 0, 55, 0
3, 128448, Note_on_c, 0, 53, 46
3, 128636, Note_on_c, 0, 53, 0
3, 128640, Note_on_c, 0, 56, 69
3, 128828, Note_on_c, 0, 56, 0
3, 129020, Note_on_c, 0, 51, 0
3, 129024, Note_on_c, 0, 55, 78
3, 129024, Note_on_c, 0, 51, 67
3, 129212, Note_on_c, 0, 55, 0
3, 129600, Note_on_c, 0, 55, 79
3, 129788, Note_on_c, 0, 55, 0
3, 130172, Note_on_c, 0, 51, 0
3, 130176, Note_on_c, 0, 51, 82
3, 130368, Note_on_c, 0, 56, 62
3, 130556, Note_on_c, 0, 56, 0
3, 130748, Note_on_c, 0, 51, 0
3, 130752, Note_on_c, 0, 51, 63
3, 130944, Note_on_c, 0, 53, 56
3, 131132, Note_on_c, 0, 53, 0
3, 131136, Note_on_c, 0, 56, 53
3, 131324, Note_on_c, 0, 56, 0
3, 131324, Note_on_c, 0, 51, 0
3, 131328, Note_on_c, 0, 51, 52
3, 131328, Note_on_c, 0, 55, 65
3, 131516, Note_on_c, 0, 55, 0
3, 131516, Note_on_c, 0, 51, 0
3, 131712, Note_on_c, 0, 51, 69
3, 131772, Note_on_c, 0, 51, 0
3, 133824, Note_on_c, 0, 55, 56
3, 133884, Note_on_c, 0, 55, 0
3, 134976, Note_on_c, 0, 48, 68
3, 134976, Note_on_c, 0, 53, 57
3, 134976, Note_on_c, 0, 44, 57
3, 135036, Note_on_c, 0, 44, 0
3, 135036, Note_on_c, 0, 53, 0
3, 135036, Note_on_c, 0, 48, 0
3, 135552, Note_on_c, 0, 53, 70
3, 135552, Note_on_c, 0, 56, 48
3, 135552, Note_on_c, 0, 46, 61
3, 135612, Note_on_c, 0, 46, 0
3, 135612, Note_on_c, 0, 56, 0
3, 135612, Note_on_c, 0, 53, 0
3, 136128, Note_on_c, 0, 51, 55
3, 136128, Note_on_c, 0, 55, 54
3, 136188, Note_on_c, 0, 55, 0
3, 136188, Note_on_c, 0, 51, 0
3, 139200, Note_on_c, 0, 56, 64
3, 139292, Note_on_c, 0, 56, 0
3, 139296, Note_on_c, 0, 55, 60
3, 139324, Note_on_c, 0, 55, 0
3, 139392, Note_on_c, 0, 44, 47
3, 139392, Note_on_c, 0, 53, 59
3, 139772, Note_on_c, 0, 53, 0
3, 139776, Note_on_c, 0, 56, 69
3, 139964, Note_on_c, 0, 56, 0
3, 139964, Note_on_c, 0, 44, 0
3, 139968, Note_on_c, 0, 46, 61
3, 140348, Note_on_c, 0, 46, 0
3, 140352, Note_on_c, 0, 50, 67
3, 140412, Note_on_c, 0, 50, 0
3, 140544, Note_on_c, 0, 51, 70
3, 140544, Note_on_c, 0, 39, 71
3, 140924, Note_on_c, 0, 39, 0
3, 140924, Note_on_c, 0, 51, 0
3, 144192, Note_on_c, 0, 48, 77
3, 144192, Note_on_c, 0, 53, 73
3, 144192, Note_on_c, 0, 44, 57
3, 144252, Note_on_c, 0, 44, 0
3, 144252, Note_on_c, 0, 53, 0
3, 144252, Note_on_c, 0, 48, 0
3, 144768, Note_on_c, 0, 56, 58
3, 144768, Note_on_c, 0, 53, 66
3, 144768, Note_on_c, 0, 46, 54
3, 144828, Note_on_c, 0, 46, 0
3, 144828, Note_on_c, 0, 53, 0
3, 144828, Note_on_c, 0, 56, 0
3, 145152, Note_on_c, 0, 55, 57
3, 145152, Note_on_c, 0, 51, 65
3, 145212, Note_on_c, 0, 51, 0
3, 145212, Note_on_c, 0, 55, 0
3, 145344, Note_on_c, 0, 58, 51
3, 145344, Note_on_c, 0, 46, 59
3, 145404, Note_on_c, 0, 46, 0
3, 145404, Note_on_c, 0, 58, 0
3, 145728, Note_on_c, 0, 46, 99
3, 145728, Note_on_c, 0, 58, 95
3, 145788, Note_on_c, 0, 58, 0
3, 145788, Note_on_c, 0, 46, 0
3, 145920, Note_on_c, 0, 46, 93
3, 145920, Note_on_c, 0, 56, 99
3, 145920, Note_on_c, 0, 58, 94
3, 145920, Note_on_c, 0, 53, 102
3, 145980, Note_on_c, 0, 53, 0
3, 145980, Note_on_c, 0, 46, 0
3, 145980, Note_on_c, 0, 56, 0
3, 145980, Note_on_c, 0, 58, 0
3, 146112, Note_on_c, 0, 53, 93
3, 146112, Note_on_c, 0, 56, 98
3, 146112, Note_on_c, 0, 46, 82
3, 146112, Note_on_c, 0, 58, 71
3, 146172, Note_on_c, 0, 58, 0
3, 146172, Note_on_c, 0, 53, 0
3, 146172, Note_on_c, 0, 56, 0
3, 146172, Note_on_c, 0, 46, 0
3, 146304, Note_on_c, 0, 51, 105
3, 146304, Note_on_c, 0, 39, 106
3, 146364, Note_on_c, 0, 39, 0
3, 146364, Note_on_c, 0, 51, 0
3, 146364, End_track
4, 0, Start_track
4, 0, Title_t, "Ludwig van Beethoven"
4, 0, End_track
5, 0, Start_track
5, 0, Title_t, "Performed and seqenced by:  Wesley Venable"
5, 0, End_track
6, 0, Start_track
6, 0, Title_t, "Wesley_Venable@Prodigy.com"
6, 0, End_track
0, 0, End_of_file
