0, 0, Header, 1, 6, 384
1, 0, Start_track
1, 0, Title_t, "--------"
1, 0, Sequencer_specific, 3, 0, 0, 65
1, 0, Time_signature, 3, 2, 24, 8
1, 0, Key_signature, 0, "major"
1, 0, Tempo, 285714
1, 0, End_track
2, 0, Start_track
2, 0, Title_t, "Bagatelle (No.2 of ""Seven Bagatelles"", Opus 33)"
2, 0, Control_c, 0, 0, 0
2, 0, Control_c, 0, 32, 0
2, 0, Program_c, 0, 0
2, 0, Control_c, 0, 7, 110
2, 0, Control_c, 0, 10, 79
2, 0, Note_on_c, 0, 72, 82
2, 60, Note_on_c, 0, 72, 0
2, 288, Note_on_c, 0, 72, 75
2, 380, Note_on_c, 0, 72, 0
2, 384, Note_on_c, 0, 76, 117
2, 508, Note_on_c, 0, 76, 0
2, 1152, Note_on_c, 0, 72, 70
2, 1152, Note_on_c, 0, 64, 61
2, 1152, Note_on_c, 0, 67, 54
2, 1532, Note_on_c, 0, 67, 0
2, 1532, Note_on_c, 0, 64, 0
2, 1532, Note_on_c, 0, 72, 0
2, 1536, Note_on_c, 0, 71, 64
2, 1536, Note_on_c, 0, 65, 51
2, 1536, Note_on_c, 0, 62, 57
2, 1916, Note_on_c, 0, 62, 0
2, 1916, Note_on_c, 0, 65, 0
2, 1916, Note_on_c, 0, 71, 0
2, 1920, Note_on_c, 0, 64, 55
2, 1920, Note_on_c, 0, 72, 67
2, 1920, Note_on_c, 0, 60, 51
2, 2300, Note_on_c, 0, 60, 0
2, 2300, Note_on_c, 0, 72, 0
2, 2300, Note_on_c, 0, 64, 0
2, 2304, Note_on_c, 0, 77, 64
2, 2304, Note_on_c, 0, 59, 59
2, 2304, Note_on_c, 0, 55, 51
2, 2304, Note_on_c, 0, 62, 44
2, 2304, Note_on_c, 0, 71, 41
2, 2428, Note_on_c, 0, 71, 0
2, 2428, Note_on_c, 0, 55, 0
2, 2428, Note_on_c, 0, 77, 0
2, 2428, Note_on_c, 0, 59, 0
2, 2428, Note_on_c, 0, 62, 0
2, 2688, Note_on_c, 0, 77, 71
2, 2688, Note_on_c, 0, 71, 49
2, 2688, Note_on_c, 0, 59, 65
2, 2688, Note_on_c, 0, 55, 61
2, 2688, Note_on_c, 0, 62, 49
2, 2812, Note_on_c, 0, 62, 0
2, 2812, Note_on_c, 0, 59, 0
2, 2812, Note_on_c, 0, 77, 0
2, 2812, Note_on_c, 0, 71, 0
2, 2812, Note_on_c, 0, 55, 0
2, 3072, Note_on_c, 0, 77, 64
2, 3072, Note_on_c, 0, 71, 57
2, 3072, Note_on_c, 0, 59, 54
2, 3072, Note_on_c, 0, 62, 54
2, 3072, Note_on_c, 0, 55, 59
2, 3196, Note_on_c, 0, 55, 0
2, 3196, Note_on_c, 0, 59, 0
2, 3196, Note_on_c, 0, 77, 0
2, 3196, Note_on_c, 0, 71, 0
2, 3196, Note_on_c, 0, 62, 0
2, 3456, Note_on_c, 0, 77, 81
2, 3456, Note_on_c, 0, 71, 72
2, 3456, Note_on_c, 0, 59, 44
2, 3456, Note_on_c, 0, 62, 54
2, 3456, Note_on_c, 0, 55, 71
2, 3580, Note_on_c, 0, 55, 0
2, 3580, Note_on_c, 0, 59, 0
2, 3580, Note_on_c, 0, 77, 0
2, 3580, Note_on_c, 0, 71, 0
2, 3580, Note_on_c, 0, 62, 0
2, 4608, Note_on_c, 0, 74, 88
2, 4668, Note_on_c, 0, 74, 0
2, 4896, Note_on_c, 0, 74, 77
2, 4988, Note_on_c, 0, 74, 0
2, 4992, Note_on_c, 0, 77, 115
2, 5116, Note_on_c, 0, 77, 0
2, 5760, Note_on_c, 0, 65, 59
2, 5760, Note_on_c, 0, 74, 64
2, 5760, Note_on_c, 0, 69, 47
2, 6140, Note_on_c, 0, 69, 0
2, 6140, Note_on_c, 0, 74, 0
2, 6140, Note_on_c, 0, 65, 0
2, 6144, Note_on_c, 0, 73, 70
2, 6144, Note_on_c, 0, 64, 49
2, 6144, Note_on_c, 0, 67, 69
2, 6524, Note_on_c, 0, 67, 0
2, 6524, Note_on_c, 0, 64, 0
2, 6524, Note_on_c, 0, 73, 0
2, 6528, Note_on_c, 0, 74, 74
2, 6528, Note_on_c, 0, 65, 46
2, 6528, Note_on_c, 0, 62, 58
2, 6908, Note_on_c, 0, 62, 0
2, 6908, Note_on_c, 0, 65, 0
2, 6908, Note_on_c, 0, 74, 0
2, 6912, Note_on_c, 0, 69, 56
2, 6912, Note_on_c, 0, 57, 64
2, 6912, Note_on_c, 0, 61, 59
2, 6912, Note_on_c, 0, 64, 40
2, 6912, Note_on_c, 0, 76, 59
2, 7036, Note_on_c, 0, 76, 0
2, 7036, Note_on_c, 0, 61, 0
2, 7036, Note_on_c, 0, 69, 0
2, 7036, Note_on_c, 0, 57, 0
2, 7036, Note_on_c, 0, 64, 0
2, 7296, Note_on_c, 0, 76, 79
2, 7296, Note_on_c, 0, 61, 53
2, 7296, Note_on_c, 0, 64, 46
2, 7296, Note_on_c, 0, 69, 48
2, 7296, Note_on_c, 0, 57, 43
2, 7420, Note_on_c, 0, 57, 0
2, 7420, Note_on_c, 0, 64, 0
2, 7420, Note_on_c, 0, 76, 0
2, 7420, Note_on_c, 0, 61, 0
2, 7420, Note_on_c, 0, 69, 0
2, 7680, Note_on_c, 0, 76, 79
2, 7680, Note_on_c, 0, 61, 55
2, 7680, Note_on_c, 0, 57, 68
2, 7680, Note_on_c, 0, 69, 58
2, 7680, Note_on_c, 0, 64, 54
2, 7804, Note_on_c, 0, 64, 0
2, 7804, Note_on_c, 0, 57, 0
2, 7804, Note_on_c, 0, 76, 0
2, 7804, Note_on_c, 0, 61, 0
2, 7804, Note_on_c, 0, 69, 0
2, 8064, Note_on_c, 0, 76, 77
2, 8064, Note_on_c, 0, 61, 60
2, 8064, Note_on_c, 0, 69, 67
2, 8064, Note_on_c, 0, 57, 66
2, 8064, Note_on_c, 0, 64, 55
2, 8188, Note_on_c, 0, 64, 0
2, 8188, Note_on_c, 0, 69, 0
2, 8188, Note_on_c, 0, 76, 0
2, 8188, Note_on_c, 0, 61, 0
2, 8188, Note_on_c, 0, 57, 0
2, 9216, Note_on_c, 0, 77, 85
2, 9276, Note_on_c, 0, 77, 0
2, 9504, Note_on_c, 0, 77, 70
2, 9596, Note_on_c, 0, 77, 0
2, 9600, Note_on_c, 0, 81, 104
2, 9724, Note_on_c, 0, 81, 0
2, 10368, Note_on_c, 0, 77, 73
2, 10368, Note_on_c, 0, 69, 59
2, 10368, Note_on_c, 0, 72, 44
2, 10748, Note_on_c, 0, 72, 0
2, 10748, Note_on_c, 0, 69, 0
2, 10748, Note_on_c, 0, 77, 0
2, 10752, Note_on_c, 0, 76, 68
2, 10752, Note_on_c, 0, 70, 49
2, 10752, Note_on_c, 0, 67, 71
2, 11132, Note_on_c, 0, 67, 0
2, 11132, Note_on_c, 0, 70, 0
2, 11132, Note_on_c, 0, 76, 0
2, 11136, Note_on_c, 0, 77, 73
2, 11136, Note_on_c, 0, 69, 50
2, 11136, Note_on_c, 0, 65, 54
2, 11516, Note_on_c, 0, 65, 0
2, 11516, Note_on_c, 0, 69, 0
2, 11516, Note_on_c, 0, 77, 0
2, 11520, Note_on_c, 0, 84, 79
2, 11580, Note_on_c, 0, 84, 0
2, 11808, Note_on_c, 0, 84, 77
2, 11900, Note_on_c, 0, 84, 0
2, 11904, Note_on_c, 0, 88, 118
2, 12028, Note_on_c, 0, 88, 0
2, 12672, Note_on_c, 0, 64, 65
2, 12672, Note_on_c, 0, 72, 61
2, 12672, Note_on_c, 0, 67, 37
2, 13052, Note_on_c, 0, 67, 0
2, 13052, Note_on_c, 0, 72, 0
2, 13052, Note_on_c, 0, 64, 0
2, 13056, Note_on_c, 0, 71, 67
2, 13056, Note_on_c, 0, 62, 56
2, 13056, Note_on_c, 0, 65, 48
2, 13436, Note_on_c, 0, 65, 0
2, 13436, Note_on_c, 0, 62, 0
2, 13436, Note_on_c, 0, 71, 0
2, 13440, Note_on_c, 0, 72, 61
2, 13440, Note_on_c, 0, 64, 55
2, 13440, Note_on_c, 0, 60, 55
2, 13820, Note_on_c, 0, 60, 0
2, 13820, Note_on_c, 0, 64, 0
2, 13820, Note_on_c, 0, 72, 0
2, 13824, Note_on_c, 0, 74, 114
2, 13884, Note_on_c, 0, 74, 0
2, 14112, Note_on_c, 0, 74, 82
2, 14204, Note_on_c, 0, 74, 0
2, 14208, Note_on_c, 0, 81, 111
2, 14332, Note_on_c, 0, 81, 0
2, 14592, Note_on_c, 0, 57, 114
2, 14592, Note_on_c, 0, 62, 120
2, 14592, Note_on_c, 0, 53, 108
2, 14716, Note_on_c, 0, 53, 0
2, 14716, Note_on_c, 0, 62, 0
2, 14716, Note_on_c, 0, 57, 0
2, 14976, Note_on_c, 0, 71, 107
2, 15036, Note_on_c, 0, 71, 0
2, 15264, Note_on_c, 0, 71, 70
2, 15356, Note_on_c, 0, 71, 0
2, 15360, Note_on_c, 0, 79, 111
2, 15484, Note_on_c, 0, 79, 0
2, 15744, Note_on_c, 0, 65, 105
2, 15744, Note_on_c, 0, 55, 109
2, 15744, Note_on_c, 0, 62, 101
2, 15868, Note_on_c, 0, 62, 0
2, 15868, Note_on_c, 0, 55, 0
2, 15868, Note_on_c, 0, 65, 0
2, 16128, Note_on_c, 0, 64, 98
2, 16188, Note_on_c, 0, 64, 0
2, 16416, Note_on_c, 0, 64, 81
2, 16508, Note_on_c, 0, 64, 0
2, 16512, Note_on_c, 0, 72, 96
2, 16636, Note_on_c, 0, 72, 0
2, 16896, Note_on_c, 0, 48, 91
2, 16896, Note_on_c, 0, 60, 99
2, 16896, Note_on_c, 0, 55, 97
2, 17020, Note_on_c, 0, 55, 0
2, 17020, Note_on_c, 0, 60, 0
2, 17020, Note_on_c, 0, 48, 0
2, 17280, Note_on_c, 0, 60, 97
2, 17280, Note_on_c, 0, 52, 85
2, 17280, Note_on_c, 0, 55, 92
2, 17404, Note_on_c, 0, 55, 0
2, 17404, Note_on_c, 0, 52, 0
2, 17404, Note_on_c, 0, 60, 0
2, 18048, Note_on_c, 0, 60, 99
2, 18048, Note_on_c, 0, 52, 89
2, 18048, Note_on_c, 0, 55, 96
2, 18172, Note_on_c, 0, 55, 0
2, 18172, Note_on_c, 0, 52, 0
2, 18172, Note_on_c, 0, 60, 0
2, 18432, Note_on_c, 0, 72, 82
2, 18492, Note_on_c, 0, 72, 0
2, 18720, Note_on_c, 0, 72, 75
2, 18812, Note_on_c, 0, 72, 0
2, 18816, Note_on_c, 0, 76, 117
2, 18940, Note_on_c, 0, 76, 0
2, 19584, Note_on_c, 0, 72, 70
2, 19584, Note_on_c, 0, 64, 61
2, 19584, Note_on_c, 0, 67, 54
2, 19964, Note_on_c, 0, 67, 0
2, 19964, Note_on_c, 0, 64, 0
2, 19964, Note_on_c, 0, 72, 0
2, 19968, Note_on_c, 0, 71, 64
2, 19968, Note_on_c, 0, 65, 51
2, 19968, Note_on_c, 0, 62, 57
2, 20348, Note_on_c, 0, 62, 0
2, 20348, Note_on_c, 0, 65, 0
2, 20348, Note_on_c, 0, 71, 0
2, 20352, Note_on_c, 0, 64, 55
2, 20352, Note_on_c, 0, 72, 67
2, 20352, Note_on_c, 0, 60, 51
2, 20732, Note_on_c, 0, 60, 0
2, 20732, Note_on_c, 0, 72, 0
2, 20732, Note_on_c, 0, 64, 0
2, 20736, Note_on_c, 0, 77, 64
2, 20736, Note_on_c, 0, 59, 59
2, 20736, Note_on_c, 0, 55, 51
2, 20736, Note_on_c, 0, 62, 44
2, 20736, Note_on_c, 0, 71, 41
2, 20860, Note_on_c, 0, 71, 0
2, 20860, Note_on_c, 0, 55, 0
2, 20860, Note_on_c, 0, 77, 0
2, 20860, Note_on_c, 0, 59, 0
2, 20860, Note_on_c, 0, 62, 0
2, 21120, Note_on_c, 0, 77, 71
2, 21120, Note_on_c, 0, 71, 49
2, 21120, Note_on_c, 0, 59, 65
2, 21120, Note_on_c, 0, 55, 61
2, 21120, Note_on_c, 0, 62, 49
2, 21244, Note_on_c, 0, 62, 0
2, 21244, Note_on_c, 0, 59, 0
2, 21244, Note_on_c, 0, 77, 0
2, 21244, Note_on_c, 0, 71, 0
2, 21244, Note_on_c, 0, 55, 0
2, 21504, Note_on_c, 0, 77, 64
2, 21504, Note_on_c, 0, 71, 57
2, 21504, Note_on_c, 0, 59, 54
2, 21504, Note_on_c, 0, 62, 54
2, 21504, Note_on_c, 0, 55, 59
2, 21628, Note_on_c, 0, 55, 0
2, 21628, Note_on_c, 0, 59, 0
2, 21628, Note_on_c, 0, 77, 0
2, 21628, Note_on_c, 0, 71, 0
2, 21628, Note_on_c, 0, 62, 0
2, 21888, Note_on_c, 0, 77, 81
2, 21888, Note_on_c, 0, 71, 72
2, 21888, Note_on_c, 0, 59, 44
2, 21888, Note_on_c, 0, 62, 54
2, 21888, Note_on_c, 0, 55, 71
2, 22012, Note_on_c, 0, 55, 0
2, 22012, Note_on_c, 0, 59, 0
2, 22012, Note_on_c, 0, 77, 0
2, 22012, Note_on_c, 0, 71, 0
2, 22012, Note_on_c, 0, 62, 0
2, 23040, Note_on_c, 0, 74, 88
2, 23100, Note_on_c, 0, 74, 0
2, 23328, Note_on_c, 0, 74, 77
2, 23420, Note_on_c, 0, 74, 0
2, 23424, Note_on_c, 0, 77, 115
2, 23548, Note_on_c, 0, 77, 0
2, 24192, Note_on_c, 0, 65, 59
2, 24192, Note_on_c, 0, 74, 64
2, 24192, Note_on_c, 0, 69, 47
2, 24572, Note_on_c, 0, 69, 0
2, 24572, Note_on_c, 0, 74, 0
2, 24572, Note_on_c, 0, 65, 0
2, 24576, Note_on_c, 0, 73, 70
2, 24576, Note_on_c, 0, 64, 49
2, 24576, Note_on_c, 0, 67, 69
2, 24956, Note_on_c, 0, 67, 0
2, 24956, Note_on_c, 0, 64, 0
2, 24956, Note_on_c, 0, 73, 0
2, 24960, Note_on_c, 0, 74, 74
2, 24960, Note_on_c, 0, 65, 46
2, 24960, Note_on_c, 0, 62, 58
2, 25340, Note_on_c, 0, 62, 0
2, 25340, Note_on_c, 0, 65, 0
2, 25340, Note_on_c, 0, 74, 0
2, 25344, Note_on_c, 0, 69, 56
2, 25344, Note_on_c, 0, 57, 64
2, 25344, Note_on_c, 0, 61, 59
2, 25344, Note_on_c, 0, 64, 40
2, 25344, Note_on_c, 0, 76, 59
2, 25468, Note_on_c, 0, 76, 0
2, 25468, Note_on_c, 0, 61, 0
2, 25468, Note_on_c, 0, 69, 0
2, 25468, Note_on_c, 0, 57, 0
2, 25468, Note_on_c, 0, 64, 0
2, 25728, Note_on_c, 0, 76, 79
2, 25728, Note_on_c, 0, 61, 53
2, 25728, Note_on_c, 0, 64, 46
2, 25728, Note_on_c, 0, 69, 48
2, 25728, Note_on_c, 0, 57, 43
2, 25852, Note_on_c, 0, 57, 0
2, 25852, Note_on_c, 0, 64, 0
2, 25852, Note_on_c, 0, 76, 0
2, 25852, Note_on_c, 0, 61, 0
2, 25852, Note_on_c, 0, 69, 0
2, 26112, Note_on_c, 0, 76, 79
2, 26112, Note_on_c, 0, 61, 55
2, 26112, Note_on_c, 0, 57, 68
2, 26112, Note_on_c, 0, 69, 58
2, 26112, Note_on_c, 0, 64, 54
2, 26236, Note_on_c, 0, 64, 0
2, 26236, Note_on_c, 0, 57, 0
2, 26236, Note_on_c, 0, 76, 0
2, 26236, Note_on_c, 0, 61, 0
2, 26236, Note_on_c, 0, 69, 0
2, 26496, Note_on_c, 0, 76, 77
2, 26496, Note_on_c, 0, 61, 60
2, 26496, Note_on_c, 0, 69, 67
2, 26496, Note_on_c, 0, 57, 66
2, 26496, Note_on_c, 0, 64, 55
2, 26620, Note_on_c, 0, 64, 0
2, 26620, Note_on_c, 0, 69, 0
2, 26620, Note_on_c, 0, 76, 0
2, 26620, Note_on_c, 0, 61, 0
2, 26620, Note_on_c, 0, 57, 0
2, 27648, Note_on_c, 0, 77, 85
2, 27708, Note_on_c, 0, 77, 0
2, 27936, Note_on_c, 0, 77, 70
2, 28028, Note_on_c, 0, 77, 0
2, 28032, Note_on_c, 0, 81, 104
2, 28156, Note_on_c, 0, 81, 0
2, 28800, Note_on_c, 0, 77, 73
2, 28800, Note_on_c, 0, 69, 59
2, 28800, Note_on_c, 0, 72, 44
2, 29180, Note_on_c, 0, 72, 0
2, 29180, Note_on_c, 0, 69, 0
2, 29180, Note_on_c, 0, 77, 0
2, 29184, Note_on_c, 0, 76, 68
2, 29184, Note_on_c, 0, 70, 49
2, 29184, Note_on_c, 0, 67, 71
2, 29564, Note_on_c, 0, 67, 0
2, 29564, Note_on_c, 0, 70, 0
2, 29564, Note_on_c, 0, 76, 0
2, 29568, Note_on_c, 0, 77, 73
2, 29568, Note_on_c, 0, 69, 50
2, 29568, Note_on_c, 0, 65, 54
2, 29948, Note_on_c, 0, 65, 0
2, 29948, Note_on_c, 0, 69, 0
2, 29948, Note_on_c, 0, 77, 0
2, 29952, Note_on_c, 0, 84, 79
2, 30012, Note_on_c, 0, 84, 0
2, 30240, Note_on_c, 0, 84, 77
2, 30332, Note_on_c, 0, 84, 0
2, 30336, Note_on_c, 0, 88, 118
2, 30460, Note_on_c, 0, 88, 0
2, 31104, Note_on_c, 0, 64, 65
2, 31104, Note_on_c, 0, 72, 61
2, 31104, Note_on_c, 0, 67, 37
2, 31484, Note_on_c, 0, 67, 0
2, 31484, Note_on_c, 0, 72, 0
2, 31484, Note_on_c, 0, 64, 0
2, 31488, Note_on_c, 0, 71, 67
2, 31488, Note_on_c, 0, 62, 56
2, 31488, Note_on_c, 0, 65, 48
2, 31868, Note_on_c, 0, 65, 0
2, 31868, Note_on_c, 0, 62, 0
2, 31868, Note_on_c, 0, 71, 0
2, 31872, Note_on_c, 0, 72, 61
2, 31872, Note_on_c, 0, 64, 55
2, 31872, Note_on_c, 0, 60, 55
2, 32252, Note_on_c, 0, 60, 0
2, 32252, Note_on_c, 0, 64, 0
2, 32252, Note_on_c, 0, 72, 0
2, 32256, Note_on_c, 0, 74, 114
2, 32316, Note_on_c, 0, 74, 0
2, 32544, Note_on_c, 0, 74, 82
2, 32636, Note_on_c, 0, 74, 0
2, 32640, Note_on_c, 0, 81, 111
2, 32764, Note_on_c, 0, 81, 0
2, 33024, Note_on_c, 0, 57, 114
2, 33024, Note_on_c, 0, 62, 120
2, 33024, Note_on_c, 0, 53, 108
2, 33148, Note_on_c, 0, 53, 0
2, 33148, Note_on_c, 0, 62, 0
2, 33148, Note_on_c, 0, 57, 0
2, 33408, Note_on_c, 0, 71, 107
2, 33468, Note_on_c, 0, 71, 0
2, 33696, Note_on_c, 0, 71, 70
2, 33788, Note_on_c, 0, 71, 0
2, 33792, Note_on_c, 0, 79, 111
2, 33916, Note_on_c, 0, 79, 0
2, 34176, Note_on_c, 0, 65, 105
2, 34176, Note_on_c, 0, 55, 109
2, 34176, Note_on_c, 0, 62, 101
2, 34300, Note_on_c, 0, 62, 0
2, 34300, Note_on_c, 0, 55, 0
2, 34300, Note_on_c, 0, 65, 0
2, 34560, Note_on_c, 0, 64, 98
2, 34620, Note_on_c, 0, 64, 0
2, 34848, Note_on_c, 0, 64, 81
2, 34940, Note_on_c, 0, 64, 0
2, 34944, Note_on_c, 0, 72, 96
2, 35068, Note_on_c, 0, 72, 0
2, 35328, Note_on_c, 0, 48, 91
2, 35328, Note_on_c, 0, 60, 99
2, 35328, Note_on_c, 0, 55, 97
2, 35452, Note_on_c, 0, 55, 0
2, 35452, Note_on_c, 0, 60, 0
2, 35452, Note_on_c, 0, 48, 0
2, 35712, Note_on_c, 0, 60, 97
2, 35712, Note_on_c, 0, 52, 85
2, 35712, Note_on_c, 0, 55, 92
2, 35836, Note_on_c, 0, 55, 0
2, 35836, Note_on_c, 0, 52, 0
2, 35836, Note_on_c, 0, 60, 0
2, 36480, Note_on_c, 0, 64, 74
2, 36604, Note_on_c, 0, 64, 0
2, 36864, Note_on_c, 0, 72, 74
2, 36864, Note_on_c, 0, 60, 56
2, 37116, Note_on_c, 0, 60, 0
2, 37116, Note_on_c, 0, 72, 0
2, 37632, Note_on_c, 0, 71, 61
2, 37632, Note_on_c, 0, 59, 61
2, 37756, Note_on_c, 0, 59, 0
2, 37756, Note_on_c, 0, 71, 0
2, 38016, Note_on_c, 0, 57, 71
2, 38016, Note_on_c, 0, 69, 53
2, 38268, Note_on_c, 0, 69, 0
2, 38268, Note_on_c, 0, 57, 0
2, 38784, Note_on_c, 0, 59, 73
2, 38784, Note_on_c, 0, 71, 67
2, 38908, Note_on_c, 0, 71, 0
2, 38908, Note_on_c, 0, 59, 0
2, 39168, Note_on_c, 0, 60, 91
2, 39168, Note_on_c, 0, 72, 87
2, 39356, Note_on_c, 0, 72, 0
2, 39356, Note_on_c, 0, 60, 0
2, 39744, Note_on_c, 0, 62, 81
2, 39744, Note_on_c, 0, 74, 75
2, 39804, Note_on_c, 0, 74, 0
2, 39804, Note_on_c, 0, 62, 0
2, 39936, Note_on_c, 0, 60, 80
2, 39936, Note_on_c, 0, 72, 67
2, 39996, Note_on_c, 0, 72, 0
2, 39996, Note_on_c, 0, 60, 0
2, 40128, Note_on_c, 0, 59, 56
2, 40128, Note_on_c, 0, 71, 41
2, 40188, Note_on_c, 0, 71, 0
2, 40188, Note_on_c, 0, 59, 0
2, 40320, Note_on_c, 0, 57, 71
2, 40320, Note_on_c, 0, 69, 61
2, 40572, Note_on_c, 0, 69, 0
2, 40572, Note_on_c, 0, 57, 0
2, 41088, Note_on_c, 0, 59, 63
2, 41088, Note_on_c, 0, 71, 60
2, 41212, Note_on_c, 0, 71, 0
2, 41212, Note_on_c, 0, 59, 0
2, 41472, Note_on_c, 0, 72, 60
2, 41472, Note_on_c, 0, 60, 72
2, 41724, Note_on_c, 0, 60, 0
2, 41724, Note_on_c, 0, 72, 0
2, 42240, Note_on_c, 0, 59, 79
2, 42240, Note_on_c, 0, 71, 81
2, 42364, Note_on_c, 0, 71, 0
2, 42364, Note_on_c, 0, 59, 0
2, 42624, Note_on_c, 0, 72, 91
2, 42624, Note_on_c, 0, 60, 92
2, 42876, Note_on_c, 0, 60, 0
2, 42876, Note_on_c, 0, 72, 0
2, 43392, Note_on_c, 0, 74, 99
2, 43392, Note_on_c, 0, 62, 90
2, 43516, Note_on_c, 0, 62, 0
2, 43516, Note_on_c, 0, 74, 0
2, 43776, Note_on_c, 0, 76, 120
2, 43776, Note_on_c, 0, 64, 111
2, 43776, Control_c, 0, 64, 127
2, 45608, Control_c, 0, 64, 0
2, 45692, Note_on_c, 0, 64, 0
2, 45692, Note_on_c, 0, 76, 0
2, 45696, Note_on_c, 0, 72, 60
2, 45696, Note_on_c, 0, 60, 64
2, 45756, Note_on_c, 0, 60, 0
2, 45756, Note_on_c, 0, 72, 0
2, 45888, Note_on_c, 0, 74, 69
2, 45888, Note_on_c, 0, 62, 64
2, 45948, Note_on_c, 0, 62, 0
2, 45948, Note_on_c, 0, 74, 0
2, 46080, Note_on_c, 0, 76, 74
2, 46080, Note_on_c, 0, 64, 67
2, 46332, Note_on_c, 0, 64, 0
2, 46332, Note_on_c, 0, 76, 0
2, 46848, Note_on_c, 0, 74, 75
2, 46848, Note_on_c, 0, 62, 69
2, 46972, Note_on_c, 0, 62, 0
2, 46972, Note_on_c, 0, 74, 0
2, 47232, Note_on_c, 0, 72, 73
2, 47232, Note_on_c, 0, 60, 69
2, 47484, Note_on_c, 0, 60, 0
2, 47484, Note_on_c, 0, 72, 0
2, 48000, Note_on_c, 0, 74, 85
2, 48000, Note_on_c, 0, 62, 68
2, 48124, Note_on_c, 0, 62, 0
2, 48124, Note_on_c, 0, 74, 0
2, 48384, Note_on_c, 0, 76, 95
2, 48384, Note_on_c, 0, 64, 84
2, 48572, Note_on_c, 0, 64, 0
2, 48572, Note_on_c, 0, 76, 0
2, 48960, Note_on_c, 0, 77, 90
2, 48960, Note_on_c, 0, 65, 83
2, 49020, Note_on_c, 0, 65, 0
2, 49020, Note_on_c, 0, 77, 0
2, 49152, Note_on_c, 0, 76, 83
2, 49152, Note_on_c, 0, 64, 55
2, 49212, Note_on_c, 0, 64, 0
2, 49212, Note_on_c, 0, 76, 0
2, 49344, Note_on_c, 0, 74, 56
2, 49344, Note_on_c, 0, 62, 46
2, 49404, Note_on_c, 0, 62, 0
2, 49404, Note_on_c, 0, 74, 0
2, 49536, Note_on_c, 0, 72, 56
2, 49536, Note_on_c, 0, 60, 52
2, 49788, Note_on_c, 0, 60, 0
2, 49788, Note_on_c, 0, 72, 0
2, 50304, Note_on_c, 0, 74, 77
2, 50304, Note_on_c, 0, 62, 52
2, 50428, Note_on_c, 0, 62, 0
2, 50428, Note_on_c, 0, 74, 0
2, 50688, Note_on_c, 0, 76, 98
2, 50688, Note_on_c, 0, 64, 83
2, 51452, Note_on_c, 0, 64, 0
2, 51452, Note_on_c, 0, 76, 0
2, 51456, Note_on_c, 0, 74, 84
2, 51456, Note_on_c, 0, 62, 77
2, 51836, Note_on_c, 0, 62, 0
2, 51836, Note_on_c, 0, 74, 0
2, 51840, Note_on_c, 0, 72, 89
2, 51840, Note_on_c, 0, 60, 88
2, 52604, Note_on_c, 0, 60, 0
2, 52604, Note_on_c, 0, 72, 0
2, 52608, Note_on_c, 0, 71, 99
2, 52608, Note_on_c, 0, 59, 92
2, 52988, Note_on_c, 0, 59, 0
2, 52988, Note_on_c, 0, 71, 0
2, 52992, Note_on_c, 0, 69, 70
2, 52992, Note_on_c, 0, 57, 63
2, 52992, Control_c, 0, 64, 127
2, 54824, Control_c, 0, 64, 0
2, 54908, Note_on_c, 0, 57, 0
2, 54908, Note_on_c, 0, 69, 0
2, 54912, Note_on_c, 0, 64, 60
2, 55036, Note_on_c, 0, 64, 0
2, 55296, Note_on_c, 0, 72, 74
2, 55296, Note_on_c, 0, 60, 56
2, 55548, Note_on_c, 0, 60, 0
2, 55548, Note_on_c, 0, 72, 0
2, 56064, Note_on_c, 0, 71, 61
2, 56064, Note_on_c, 0, 59, 61
2, 56188, Note_on_c, 0, 59, 0
2, 56188, Note_on_c, 0, 71, 0
2, 56448, Note_on_c, 0, 57, 71
2, 56448, Note_on_c, 0, 69, 53
2, 56700, Note_on_c, 0, 69, 0
2, 56700, Note_on_c, 0, 57, 0
2, 57216, Note_on_c, 0, 59, 73
2, 57216, Note_on_c, 0, 71, 67
2, 57340, Note_on_c, 0, 71, 0
2, 57340, Note_on_c, 0, 59, 0
2, 57600, Note_on_c, 0, 60, 91
2, 57600, Note_on_c, 0, 72, 87
2, 57788, Note_on_c, 0, 72, 0
2, 57788, Note_on_c, 0, 60, 0
2, 58176, Note_on_c, 0, 62, 81
2, 58176, Note_on_c, 0, 74, 75
2, 58236, Note_on_c, 0, 74, 0
2, 58236, Note_on_c, 0, 62, 0
2, 58368, Note_on_c, 0, 60, 80
2, 58368, Note_on_c, 0, 72, 67
2, 58428, Note_on_c, 0, 72, 0
2, 58428, Note_on_c, 0, 60, 0
2, 58560, Note_on_c, 0, 59, 56
2, 58560, Note_on_c, 0, 71, 41
2, 58620, Note_on_c, 0, 71, 0
2, 58620, Note_on_c, 0, 59, 0
2, 58752, Note_on_c, 0, 57, 71
2, 58752, Note_on_c, 0, 69, 61
2, 59004, Note_on_c, 0, 69, 0
2, 59004, Note_on_c, 0, 57, 0
2, 59520, Note_on_c, 0, 59, 63
2, 59520, Note_on_c, 0, 71, 60
2, 59644, Note_on_c, 0, 71, 0
2, 59644, Note_on_c, 0, 59, 0
2, 59904, Note_on_c, 0, 72, 60
2, 59904, Note_on_c, 0, 60, 72
2, 60156, Note_on_c, 0, 60, 0
2, 60156, Note_on_c, 0, 72, 0
2, 60672, Note_on_c, 0, 59, 79
2, 60672, Note_on_c, 0, 71, 81
2, 60796, Note_on_c, 0, 71, 0
2, 60796, Note_on_c, 0, 59, 0
2, 61056, Note_on_c, 0, 72, 91
2, 61056, Note_on_c, 0, 60, 92
2, 61308, Note_on_c, 0, 60, 0
2, 61308, Note_on_c, 0, 72, 0
2, 61824, Note_on_c, 0, 74, 99
2, 61824, Note_on_c, 0, 62, 90
2, 61948, Note_on_c, 0, 62, 0
2, 61948, Note_on_c, 0, 74, 0
2, 62208, Note_on_c, 0, 76, 120
2, 62208, Note_on_c, 0, 64, 111
2, 62208, Control_c, 0, 64, 127
2, 64040, Control_c, 0, 64, 0
2, 64124, Note_on_c, 0, 64, 0
2, 64124, Note_on_c, 0, 76, 0
2, 64128, Note_on_c, 0, 72, 60
2, 64128, Note_on_c, 0, 60, 64
2, 64188, Note_on_c, 0, 60, 0
2, 64188, Note_on_c, 0, 72, 0
2, 64320, Note_on_c, 0, 74, 69
2, 64320, Note_on_c, 0, 62, 64
2, 64380, Note_on_c, 0, 62, 0
2, 64380, Note_on_c, 0, 74, 0
2, 64512, Note_on_c, 0, 76, 74
2, 64512, Note_on_c, 0, 64, 67
2, 64764, Note_on_c, 0, 64, 0
2, 64764, Note_on_c, 0, 76, 0
2, 65280, Note_on_c, 0, 74, 75
2, 65280, Note_on_c, 0, 62, 69
2, 65404, Note_on_c, 0, 62, 0
2, 65404, Note_on_c, 0, 74, 0
2, 65664, Note_on_c, 0, 72, 73
2, 65664, Note_on_c, 0, 60, 69
2, 65916, Note_on_c, 0, 60, 0
2, 65916, Note_on_c, 0, 72, 0
2, 66432, Note_on_c, 0, 74, 85
2, 66432, Note_on_c, 0, 62, 68
2, 66556, Note_on_c, 0, 62, 0
2, 66556, Note_on_c, 0, 74, 0
2, 66816, Note_on_c, 0, 76, 95
2, 66816, Note_on_c, 0, 64, 84
2, 67004, Note_on_c, 0, 64, 0
2, 67004, Note_on_c, 0, 76, 0
2, 67392, Note_on_c, 0, 77, 90
2, 67392, Note_on_c, 0, 65, 83
2, 67452, Note_on_c, 0, 65, 0
2, 67452, Note_on_c, 0, 77, 0
2, 67584, Note_on_c, 0, 76, 83
2, 67584, Note_on_c, 0, 64, 55
2, 67644, Note_on_c, 0, 64, 0
2, 67644, Note_on_c, 0, 76, 0
2, 67776, Note_on_c, 0, 74, 56
2, 67776, Note_on_c, 0, 62, 46
2, 67836, Note_on_c, 0, 62, 0
2, 67836, Note_on_c, 0, 74, 0
2, 67968, Note_on_c, 0, 72, 56
2, 67968, Note_on_c, 0, 60, 52
2, 68220, Note_on_c, 0, 60, 0
2, 68220, Note_on_c, 0, 72, 0
2, 68736, Note_on_c, 0, 74, 77
2, 68736, Note_on_c, 0, 62, 52
2, 68860, Note_on_c, 0, 62, 0
2, 68860, Note_on_c, 0, 74, 0
2, 69120, Note_on_c, 0, 76, 98
2, 69120, Note_on_c, 0, 64, 83
2, 69884, Note_on_c, 0, 64, 0
2, 69884, Note_on_c, 0, 76, 0
2, 69888, Note_on_c, 0, 74, 84
2, 69888, Note_on_c, 0, 62, 77
2, 70268, Note_on_c, 0, 62, 0
2, 70268, Note_on_c, 0, 74, 0
2, 70272, Note_on_c, 0, 72, 89
2, 70272, Note_on_c, 0, 60, 88
2, 71036, Note_on_c, 0, 60, 0
2, 71036, Note_on_c, 0, 72, 0
2, 71040, Note_on_c, 0, 71, 99
2, 71040, Note_on_c, 0, 59, 92
2, 71420, Note_on_c, 0, 59, 0
2, 71420, Note_on_c, 0, 71, 0
2, 71424, Note_on_c, 0, 69, 70
2, 71424, Note_on_c, 0, 57, 63
2, 71424, Control_c, 0, 64, 127
2, 73256, Control_c, 0, 64, 0
2, 73340, Note_on_c, 0, 57, 0
2, 73340, Note_on_c, 0, 69, 0
2, 73344, Note_on_c, 0, 71, 75
2, 73344, Note_on_c, 0, 59, 55
2, 73724, Note_on_c, 0, 59, 0
2, 73724, Note_on_c, 0, 71, 0
2, 73728, Note_on_c, 0, 72, 82
2, 73788, Note_on_c, 0, 72, 0
2, 74016, Note_on_c, 0, 72, 75
2, 74108, Note_on_c, 0, 72, 0
2, 74112, Note_on_c, 0, 76, 117
2, 74236, Note_on_c, 0, 76, 0
2, 74880, Note_on_c, 0, 72, 70
2, 74880, Note_on_c, 0, 64, 61
2, 74880, Note_on_c, 0, 67, 54
2, 75260, Note_on_c, 0, 67, 0
2, 75260, Note_on_c, 0, 64, 0
2, 75260, Note_on_c, 0, 72, 0
2, 75264, Note_on_c, 0, 71, 64
2, 75264, Note_on_c, 0, 65, 51
2, 75264, Note_on_c, 0, 62, 57
2, 75644, Note_on_c, 0, 62, 0
2, 75644, Note_on_c, 0, 65, 0
2, 75644, Note_on_c, 0, 71, 0
2, 75648, Note_on_c, 0, 64, 55
2, 75648, Note_on_c, 0, 72, 67
2, 75648, Note_on_c, 0, 60, 51
2, 76028, Note_on_c, 0, 60, 0
2, 76028, Note_on_c, 0, 72, 0
2, 76028, Note_on_c, 0, 64, 0
2, 76032, Note_on_c, 0, 77, 64
2, 76032, Note_on_c, 0, 59, 59
2, 76032, Note_on_c, 0, 55, 51
2, 76032, Note_on_c, 0, 62, 44
2, 76032, Note_on_c, 0, 71, 41
2, 76156, Note_on_c, 0, 71, 0
2, 76156, Note_on_c, 0, 55, 0
2, 76156, Note_on_c, 0, 77, 0
2, 76156, Note_on_c, 0, 59, 0
2, 76156, Note_on_c, 0, 62, 0
2, 76416, Note_on_c, 0, 77, 71
2, 76416, Note_on_c, 0, 71, 49
2, 76416, Note_on_c, 0, 59, 65
2, 76416, Note_on_c, 0, 55, 61
2, 76416, Note_on_c, 0, 62, 49
2, 76540, Note_on_c, 0, 62, 0
2, 76540, Note_on_c, 0, 59, 0
2, 76540, Note_on_c, 0, 77, 0
2, 76540, Note_on_c, 0, 71, 0
2, 76540, Note_on_c, 0, 55, 0
2, 76800, Note_on_c, 0, 77, 64
2, 76800, Note_on_c, 0, 71, 57
2, 76800, Note_on_c, 0, 59, 54
2, 76800, Note_on_c, 0, 62, 54
2, 76800, Note_on_c, 0, 55, 59
2, 76924, Note_on_c, 0, 55, 0
2, 76924, Note_on_c, 0, 59, 0
2, 76924, Note_on_c, 0, 77, 0
2, 76924, Note_on_c, 0, 71, 0
2, 76924, Note_on_c, 0, 62, 0
2, 77184, Note_on_c, 0, 77, 81
2, 77184, Note_on_c, 0, 71, 72
2, 77184, Note_on_c, 0, 59, 44
2, 77184, Note_on_c, 0, 62, 54
2, 77184, Note_on_c, 0, 55, 71
2, 77308, Note_on_c, 0, 55, 0
2, 77308, Note_on_c, 0, 59, 0
2, 77308, Note_on_c, 0, 77, 0
2, 77308, Note_on_c, 0, 71, 0
2, 77308, Note_on_c, 0, 62, 0
2, 78336, Note_on_c, 0, 74, 88
2, 78396, Note_on_c, 0, 74, 0
2, 78624, Note_on_c, 0, 74, 77
2, 78716, Note_on_c, 0, 74, 0
2, 78720, Note_on_c, 0, 77, 115
2, 78844, Note_on_c, 0, 77, 0
2, 79488, Note_on_c, 0, 65, 59
2, 79488, Note_on_c, 0, 74, 64
2, 79488, Note_on_c, 0, 69, 47
2, 79868, Note_on_c, 0, 69, 0
2, 79868, Note_on_c, 0, 74, 0
2, 79868, Note_on_c, 0, 65, 0
2, 79872, Note_on_c, 0, 73, 70
2, 79872, Note_on_c, 0, 64, 49
2, 79872, Note_on_c, 0, 67, 69
2, 80252, Note_on_c, 0, 67, 0
2, 80252, Note_on_c, 0, 64, 0
2, 80252, Note_on_c, 0, 73, 0
2, 80256, Note_on_c, 0, 74, 74
2, 80256, Note_on_c, 0, 65, 46
2, 80256, Note_on_c, 0, 62, 58
2, 80636, Note_on_c, 0, 62, 0
2, 80636, Note_on_c, 0, 65, 0
2, 80636, Note_on_c, 0, 74, 0
2, 80640, Note_on_c, 0, 69, 56
2, 80640, Note_on_c, 0, 57, 64
2, 80640, Note_on_c, 0, 61, 59
2, 80640, Note_on_c, 0, 64, 40
2, 80640, Note_on_c, 0, 76, 59
2, 80764, Note_on_c, 0, 76, 0
2, 80764, Note_on_c, 0, 61, 0
2, 80764, Note_on_c, 0, 69, 0
2, 80764, Note_on_c, 0, 57, 0
2, 80764, Note_on_c, 0, 64, 0
2, 81024, Note_on_c, 0, 76, 79
2, 81024, Note_on_c, 0, 61, 53
2, 81024, Note_on_c, 0, 64, 46
2, 81024, Note_on_c, 0, 69, 48
2, 81024, Note_on_c, 0, 57, 43
2, 81148, Note_on_c, 0, 57, 0
2, 81148, Note_on_c, 0, 64, 0
2, 81148, Note_on_c, 0, 76, 0
2, 81148, Note_on_c, 0, 61, 0
2, 81148, Note_on_c, 0, 69, 0
2, 81408, Note_on_c, 0, 76, 79
2, 81408, Note_on_c, 0, 61, 55
2, 81408, Note_on_c, 0, 57, 68
2, 81408, Note_on_c, 0, 69, 58
2, 81408, Note_on_c, 0, 64, 54
2, 81532, Note_on_c, 0, 64, 0
2, 81532, Note_on_c, 0, 57, 0
2, 81532, Note_on_c, 0, 76, 0
2, 81532, Note_on_c, 0, 61, 0
2, 81532, Note_on_c, 0, 69, 0
2, 81792, Note_on_c, 0, 76, 77
2, 81792, Note_on_c, 0, 61, 60
2, 81792, Note_on_c, 0, 69, 67
2, 81792, Note_on_c, 0, 57, 66
2, 81792, Note_on_c, 0, 64, 55
2, 81916, Note_on_c, 0, 64, 0
2, 81916, Note_on_c, 0, 69, 0
2, 81916, Note_on_c, 0, 76, 0
2, 81916, Note_on_c, 0, 61, 0
2, 81916, Note_on_c, 0, 57, 0
2, 82944, Note_on_c, 0, 77, 85
2, 83004, Note_on_c, 0, 77, 0
2, 83232, Note_on_c, 0, 77, 70
2, 83324, Note_on_c, 0, 77, 0
2, 83328, Note_on_c, 0, 81, 104
2, 83452, Note_on_c, 0, 81, 0
2, 84096, Note_on_c, 0, 77, 73
2, 84096, Note_on_c, 0, 69, 59
2, 84096, Note_on_c, 0, 72, 44
2, 84476, Note_on_c, 0, 72, 0
2, 84476, Note_on_c, 0, 69, 0
2, 84476, Note_on_c, 0, 77, 0
2, 84480, Note_on_c, 0, 76, 68
2, 84480, Note_on_c, 0, 70, 49
2, 84480, Note_on_c, 0, 67, 71
2, 84860, Note_on_c, 0, 67, 0
2, 84860, Note_on_c, 0, 70, 0
2, 84860, Note_on_c, 0, 76, 0
2, 84864, Note_on_c, 0, 77, 73
2, 84864, Note_on_c, 0, 69, 50
2, 84864, Note_on_c, 0, 65, 54
2, 85244, Note_on_c, 0, 65, 0
2, 85244, Note_on_c, 0, 69, 0
2, 85244, Note_on_c, 0, 77, 0
2, 85248, Note_on_c, 0, 84, 79
2, 85308, Note_on_c, 0, 84, 0
2, 85536, Note_on_c, 0, 84, 77
2, 85628, Note_on_c, 0, 84, 0
2, 85632, Note_on_c, 0, 88, 118
2, 85756, Note_on_c, 0, 88, 0
2, 86400, Note_on_c, 0, 64, 65
2, 86400, Note_on_c, 0, 72, 61
2, 86400, Note_on_c, 0, 67, 37
2, 86780, Note_on_c, 0, 67, 0
2, 86780, Note_on_c, 0, 72, 0
2, 86780, Note_on_c, 0, 64, 0
2, 86784, Note_on_c, 0, 71, 67
2, 86784, Note_on_c, 0, 62, 56
2, 86784, Note_on_c, 0, 65, 48
2, 87164, Note_on_c, 0, 65, 0
2, 87164, Note_on_c, 0, 62, 0
2, 87164, Note_on_c, 0, 71, 0
2, 87168, Note_on_c, 0, 72, 61
2, 87168, Note_on_c, 0, 64, 55
2, 87168, Note_on_c, 0, 60, 55
2, 87548, Note_on_c, 0, 60, 0
2, 87548, Note_on_c, 0, 64, 0
2, 87548, Note_on_c, 0, 72, 0
2, 87552, Note_on_c, 0, 74, 114
2, 87612, Note_on_c, 0, 74, 0
2, 87840, Note_on_c, 0, 74, 82
2, 87932, Note_on_c, 0, 74, 0
2, 87936, Note_on_c, 0, 81, 111
2, 88060, Note_on_c, 0, 81, 0
2, 88320, Note_on_c, 0, 57, 114
2, 88320, Note_on_c, 0, 62, 120
2, 88320, Note_on_c, 0, 53, 108
2, 88444, Note_on_c, 0, 53, 0
2, 88444, Note_on_c, 0, 62, 0
2, 88444, Note_on_c, 0, 57, 0
2, 88704, Note_on_c, 0, 71, 107
2, 88764, Note_on_c, 0, 71, 0
2, 88992, Note_on_c, 0, 71, 70
2, 89084, Note_on_c, 0, 71, 0
2, 89088, Note_on_c, 0, 79, 111
2, 89212, Note_on_c, 0, 79, 0
2, 89472, Note_on_c, 0, 65, 105
2, 89472, Note_on_c, 0, 55, 109
2, 89472, Note_on_c, 0, 62, 101
2, 89596, Note_on_c, 0, 62, 0
2, 89596, Note_on_c, 0, 55, 0
2, 89596, Note_on_c, 0, 65, 0
2, 89856, Note_on_c, 0, 64, 98
2, 89916, Note_on_c, 0, 64, 0
2, 90144, Note_on_c, 0, 64, 81
2, 90236, Note_on_c, 0, 64, 0
2, 90240, Note_on_c, 0, 72, 96
2, 90364, Note_on_c, 0, 72, 0
2, 90624, Note_on_c, 0, 48, 91
2, 90624, Note_on_c, 0, 60, 99
2, 90624, Note_on_c, 0, 55, 97
2, 90748, Note_on_c, 0, 55, 0
2, 90748, Note_on_c, 0, 60, 0
2, 90748, Note_on_c, 0, 48, 0
2, 91008, Note_on_c, 0, 60, 97
2, 91008, Note_on_c, 0, 52, 85
2, 91008, Note_on_c, 0, 55, 92
2, 91132, Note_on_c, 0, 55, 0
2, 91132, Note_on_c, 0, 52, 0
2, 91132, Note_on_c, 0, 60, 0
2, 92160, Note_on_c, 0, 67, 74
2, 92160, Note_on_c, 0, 64, 61
2, 93308, Note_on_c, 0, 64, 0
2, 93308, Note_on_c, 0, 67, 0
2, 93312, Note_on_c, 0, 62, 56
2, 93312, Note_on_c, 0, 65, 60
2, 94460, Note_on_c, 0, 65, 0
2, 94460, Note_on_c, 0, 62, 0
2, 94464, Note_on_c, 0, 60, 67
2, 94464, Note_on_c, 0, 64, 64
2, 94524, Note_on_c, 0, 64, 0
2, 94524, Note_on_c, 0, 60, 0
2, 94656, Note_on_c, 0, 65, 73
2, 94656, Note_on_c, 0, 62, 67
2, 94716, Note_on_c, 0, 62, 0
2, 94716, Note_on_c, 0, 65, 0
2, 94848, Note_on_c, 0, 67, 84
2, 94848, Note_on_c, 0, 64, 73
2, 94908, Note_on_c, 0, 64, 0
2, 94908, Note_on_c, 0, 67, 0
2, 95040, Note_on_c, 0, 69, 79
2, 95040, Note_on_c, 0, 65, 76
2, 95100, Note_on_c, 0, 65, 0
2, 95100, Note_on_c, 0, 69, 0
2, 95232, Note_on_c, 0, 67, 84
2, 95232, Note_on_c, 0, 71, 80
2, 95292, Note_on_c, 0, 71, 0
2, 95292, Note_on_c, 0, 67, 0
2, 95424, Note_on_c, 0, 72, 81
2, 95424, Note_on_c, 0, 69, 80
2, 95484, Note_on_c, 0, 69, 0
2, 95484, Note_on_c, 0, 72, 0
2, 95616, Note_on_c, 0, 71, 79
2, 95616, Note_on_c, 0, 74, 88
2, 95676, Note_on_c, 0, 74, 0
2, 95676, Note_on_c, 0, 71, 0
2, 95808, Note_on_c, 0, 72, 79
2, 95808, Note_on_c, 0, 76, 90
2, 95868, Note_on_c, 0, 76, 0
2, 95868, Note_on_c, 0, 72, 0
2, 96000, Note_on_c, 0, 77, 89
2, 96000, Note_on_c, 0, 74, 83
2, 96060, Note_on_c, 0, 74, 0
2, 96060, Note_on_c, 0, 77, 0
2, 96192, Note_on_c, 0, 79, 97
2, 96192, Note_on_c, 0, 76, 95
2, 96252, Note_on_c, 0, 76, 0
2, 96252, Note_on_c, 0, 79, 0
2, 96384, Note_on_c, 0, 81, 90
2, 96384, Note_on_c, 0, 77, 89
2, 96444, Note_on_c, 0, 77, 0
2, 96444, Note_on_c, 0, 81, 0
2, 96576, Note_on_c, 0, 83, 97
2, 96576, Note_on_c, 0, 74, 89
2, 96636, Note_on_c, 0, 74, 0
2, 96636, Note_on_c, 0, 83, 0
2, 97152, Note_on_c, 0, 64, 115
2, 97152, Note_on_c, 0, 67, 127
2, 97916, Note_on_c, 0, 67, 0
2, 97916, Note_on_c, 0, 64, 0
2, 97920, Note_on_c, 0, 62, 88
2, 97920, Note_on_c, 0, 65, 87
2, 98044, Note_on_c, 0, 65, 0
2, 98044, Note_on_c, 0, 62, 0
2, 98304, Note_on_c, 0, 55, 111
2, 98304, Note_on_c, 0, 62, 108
2, 98304, Note_on_c, 0, 65, 107
2, 99068, Note_on_c, 0, 65, 0
2, 99068, Note_on_c, 0, 62, 0
2, 99068, Note_on_c, 0, 55, 0
2, 99072, Note_on_c, 0, 60, 75
2, 99072, Note_on_c, 0, 64, 81
2, 99132, Note_on_c, 0, 64, 0
2, 99132, Note_on_c, 0, 60, 0
2, 99264, Note_on_c, 0, 66, 79
2, 99264, Note_on_c, 0, 62, 76
2, 99324, Note_on_c, 0, 62, 0
2, 99324, Note_on_c, 0, 66, 0
2, 99456, Note_on_c, 0, 64, 76
2, 99456, Note_on_c, 0, 67, 79
2, 99516, Note_on_c, 0, 67, 0
2, 99516, Note_on_c, 0, 64, 0
2, 99648, Note_on_c, 0, 69, 89
2, 99648, Note_on_c, 0, 66, 79
2, 99708, Note_on_c, 0, 66, 0
2, 99708, Note_on_c, 0, 69, 0
2, 99840, Note_on_c, 0, 71, 83
2, 99840, Note_on_c, 0, 67, 79
2, 99900, Note_on_c, 0, 67, 0
2, 99900, Note_on_c, 0, 71, 0
2, 100032, Note_on_c, 0, 72, 84
2, 100032, Note_on_c, 0, 69, 82
2, 100092, Note_on_c, 0, 69, 0
2, 100092, Note_on_c, 0, 72, 0
2, 100224, Note_on_c, 0, 74, 91
2, 100224, Note_on_c, 0, 71, 80
2, 100284, Note_on_c, 0, 71, 0
2, 100284, Note_on_c, 0, 74, 0
2, 100416, Note_on_c, 0, 76, 97
2, 100416, Note_on_c, 0, 72, 82
2, 100476, Note_on_c, 0, 72, 0
2, 100476, Note_on_c, 0, 76, 0
2, 100608, Note_on_c, 0, 78, 91
2, 100608, Note_on_c, 0, 74, 89
2, 100668, Note_on_c, 0, 74, 0
2, 100668, Note_on_c, 0, 78, 0
2, 100800, Note_on_c, 0, 76, 104
2, 100800, Note_on_c, 0, 79, 100
2, 100860, Note_on_c, 0, 79, 0
2, 100860, Note_on_c, 0, 76, 0
2, 100992, Note_on_c, 0, 78, 100
2, 100992, Note_on_c, 0, 81, 96
2, 101052, Note_on_c, 0, 81, 0
2, 101052, Note_on_c, 0, 78, 0
2, 101184, Note_on_c, 0, 83, 102
2, 101184, Note_on_c, 0, 79, 93
2, 101244, Note_on_c, 0, 79, 0
2, 101244, Note_on_c, 0, 83, 0
2, 101376, Note_on_c, 0, 81, 83
2, 101376, Note_on_c, 0, 84, 82
2, 101500, Note_on_c, 0, 84, 0
2, 101500, Note_on_c, 0, 81, 0
2, 101760, Note_on_c, 0, 81, 109
2, 101760, Note_on_c, 0, 84, 107
2, 102524, Note_on_c, 0, 84, 0
2, 102524, Note_on_c, 0, 81, 0
2, 102528, Note_on_c, 0, 83, 87
2, 102528, Note_on_c, 0, 79, 81
2, 102652, Note_on_c, 0, 79, 0
2, 102652, Note_on_c, 0, 83, 0
2, 102912, Note_on_c, 0, 83, 107
2, 102912, Note_on_c, 0, 79, 94
2, 103676, Note_on_c, 0, 79, 0
2, 103676, Note_on_c, 0, 83, 0
2, 103680, Note_on_c, 0, 88, 94
2, 103680, Note_on_c, 0, 81, 95
2, 103680, Note_on_c, 0, 79, 95
2, 103804, Note_on_c, 0, 79, 0
2, 103804, Note_on_c, 0, 81, 0
2, 103804, Note_on_c, 0, 88, 0
2, 104064, Note_on_c, 0, 88, 104
2, 104064, Note_on_c, 0, 79, 105
2, 104064, Note_on_c, 0, 81, 100
2, 104188, Note_on_c, 0, 81, 0
2, 104188, Note_on_c, 0, 79, 0
2, 104188, Note_on_c, 0, 88, 0
2, 104448, Note_on_c, 0, 78, 103
2, 104448, Note_on_c, 0, 86, 109
2, 104448, Note_on_c, 0, 81, 103
2, 104572, Note_on_c, 0, 81, 0
2, 104572, Note_on_c, 0, 86, 0
2, 104572, Note_on_c, 0, 78, 0
2, 104832, Note_on_c, 0, 83, 104
2, 104832, Note_on_c, 0, 79, 101
2, 104832, Note_on_c, 0, 74, 99
2, 105212, Note_on_c, 0, 74, 0
2, 105212, Note_on_c, 0, 79, 0
2, 105212, Note_on_c, 0, 83, 0
2, 105984, Note_on_c, 0, 67, 74
2, 105984, Note_on_c, 0, 64, 61
2, 107132, Note_on_c, 0, 64, 0
2, 107132, Note_on_c, 0, 67, 0
2, 107136, Note_on_c, 0, 62, 56
2, 107136, Note_on_c, 0, 65, 60
2, 108284, Note_on_c, 0, 65, 0
2, 108284, Note_on_c, 0, 62, 0
2, 108288, Note_on_c, 0, 60, 67
2, 108288, Note_on_c, 0, 64, 64
2, 108348, Note_on_c, 0, 64, 0
2, 108348, Note_on_c, 0, 60, 0
2, 108480, Note_on_c, 0, 65, 73
2, 108480, Note_on_c, 0, 62, 67
2, 108540, Note_on_c, 0, 62, 0
2, 108540, Note_on_c, 0, 65, 0
2, 108672, Note_on_c, 0, 67, 84
2, 108672, Note_on_c, 0, 64, 73
2, 108732, Note_on_c, 0, 64, 0
2, 108732, Note_on_c, 0, 67, 0
2, 108864, Note_on_c, 0, 69, 79
2, 108864, Note_on_c, 0, 65, 76
2, 108924, Note_on_c, 0, 65, 0
2, 108924, Note_on_c, 0, 69, 0
2, 109056, Note_on_c, 0, 67, 84
2, 109056, Note_on_c, 0, 71, 80
2, 109116, Note_on_c, 0, 71, 0
2, 109116, Note_on_c, 0, 67, 0
2, 109248, Note_on_c, 0, 72, 81
2, 109248, Note_on_c, 0, 69, 80
2, 109308, Note_on_c, 0, 69, 0
2, 109308, Note_on_c, 0, 72, 0
2, 109440, Note_on_c, 0, 71, 79
2, 109440, Note_on_c, 0, 74, 88
2, 109500, Note_on_c, 0, 74, 0
2, 109500, Note_on_c, 0, 71, 0
2, 109632, Note_on_c, 0, 72, 79
2, 109632, Note_on_c, 0, 76, 90
2, 109692, Note_on_c, 0, 76, 0
2, 109692, Note_on_c, 0, 72, 0
2, 109824, Note_on_c, 0, 77, 89
2, 109824, Note_on_c, 0, 74, 83
2, 109884, Note_on_c, 0, 74, 0
2, 109884, Note_on_c, 0, 77, 0
2, 110016, Note_on_c, 0, 79, 97
2, 110016, Note_on_c, 0, 76, 95
2, 110076, Note_on_c, 0, 76, 0
2, 110076, Note_on_c, 0, 79, 0
2, 110208, Note_on_c, 0, 81, 90
2, 110208, Note_on_c, 0, 77, 89
2, 110268, Note_on_c, 0, 77, 0
2, 110268, Note_on_c, 0, 81, 0
2, 110400, Note_on_c, 0, 83, 97
2, 110400, Note_on_c, 0, 74, 89
2, 110460, Note_on_c, 0, 74, 0
2, 110460, Note_on_c, 0, 83, 0
2, 110976, Note_on_c, 0, 64, 115
2, 110976, Note_on_c, 0, 67, 127
2, 111740, Note_on_c, 0, 67, 0
2, 111740, Note_on_c, 0, 64, 0
2, 111744, Note_on_c, 0, 62, 88
2, 111744, Note_on_c, 0, 65, 87
2, 111868, Note_on_c, 0, 65, 0
2, 111868, Note_on_c, 0, 62, 0
2, 112128, Note_on_c, 0, 55, 111
2, 112128, Note_on_c, 0, 62, 108
2, 112128, Note_on_c, 0, 65, 107
2, 112892, Note_on_c, 0, 65, 0
2, 112892, Note_on_c, 0, 62, 0
2, 112892, Note_on_c, 0, 55, 0
2, 112896, Note_on_c, 0, 60, 75
2, 112896, Note_on_c, 0, 64, 81
2, 112956, Note_on_c, 0, 64, 0
2, 112956, Note_on_c, 0, 60, 0
2, 113088, Note_on_c, 0, 66, 79
2, 113088, Note_on_c, 0, 62, 76
2, 113148, Note_on_c, 0, 62, 0
2, 113148, Note_on_c, 0, 66, 0
2, 113280, Note_on_c, 0, 64, 76
2, 113280, Note_on_c, 0, 67, 79
2, 113340, Note_on_c, 0, 67, 0
2, 113340, Note_on_c, 0, 64, 0
2, 113472, Note_on_c, 0, 69, 89
2, 113472, Note_on_c, 0, 66, 79
2, 113532, Note_on_c, 0, 66, 0
2, 113532, Note_on_c, 0, 69, 0
2, 113664, Note_on_c, 0, 71, 83
2, 113664, Note_on_c, 0, 67, 79
2, 113724, Note_on_c, 0, 67, 0
2, 113724, Note_on_c, 0, 71, 0
2, 113856, Note_on_c, 0, 72, 84
2, 113856, Note_on_c, 0, 69, 82
2, 113916, Note_on_c, 0, 69, 0
2, 113916, Note_on_c, 0, 72, 0
2, 114048, Note_on_c, 0, 74, 91
2, 114048, Note_on_c, 0, 71, 80
2, 114108, Note_on_c, 0, 71, 0
2, 114108, Note_on_c, 0, 74, 0
2, 114240, Note_on_c, 0, 76, 97
2, 114240, Note_on_c, 0, 72, 82
2, 114300, Note_on_c, 0, 72, 0
2, 114300, Note_on_c, 0, 76, 0
2, 114432, Note_on_c, 0, 78, 91
2, 114432, Note_on_c, 0, 74, 89
2, 114492, Note_on_c, 0, 74, 0
2, 114492, Note_on_c, 0, 78, 0
2, 114624, Note_on_c, 0, 76, 104
2, 114624, Note_on_c, 0, 79, 100
2, 114684, Note_on_c, 0, 79, 0
2, 114684, Note_on_c, 0, 76, 0
2, 114816, Note_on_c, 0, 78, 100
2, 114816, Note_on_c, 0, 81, 96
2, 114876, Note_on_c, 0, 81, 0
2, 114876, Note_on_c, 0, 78, 0
2, 115008, Note_on_c, 0, 83, 102
2, 115008, Note_on_c, 0, 79, 93
2, 115068, Note_on_c, 0, 79, 0
2, 115068, Note_on_c, 0, 83, 0
2, 115200, Note_on_c, 0, 81, 83
2, 115200, Note_on_c, 0, 84, 82
2, 115324, Note_on_c, 0, 84, 0
2, 115324, Note_on_c, 0, 81, 0
2, 115584, Note_on_c, 0, 81, 109
2, 115584, Note_on_c, 0, 84, 107
2, 116348, Note_on_c, 0, 84, 0
2, 116348, Note_on_c, 0, 81, 0
2, 116352, Note_on_c, 0, 83, 87
2, 116352, Note_on_c, 0, 79, 81
2, 116476, Note_on_c, 0, 79, 0
2, 116476, Note_on_c, 0, 83, 0
2, 116736, Note_on_c, 0, 83, 107
2, 116736, Note_on_c, 0, 79, 94
2, 117500, Note_on_c, 0, 79, 0
2, 117500, Note_on_c, 0, 83, 0
2, 117504, Note_on_c, 0, 88, 94
2, 117504, Note_on_c, 0, 81, 95
2, 117504, Note_on_c, 0, 79, 95
2, 117628, Note_on_c, 0, 79, 0
2, 117628, Note_on_c, 0, 81, 0
2, 117628, Note_on_c, 0, 88, 0
2, 117888, Note_on_c, 0, 88, 104
2, 117888, Note_on_c, 0, 79, 105
2, 117888, Note_on_c, 0, 81, 100
2, 118012, Note_on_c, 0, 81, 0
2, 118012, Note_on_c, 0, 79, 0
2, 118012, Note_on_c, 0, 88, 0
2, 118272, Note_on_c, 0, 78, 103
2, 118272, Note_on_c, 0, 86, 109
2, 118272, Note_on_c, 0, 81, 103
2, 118396, Note_on_c, 0, 81, 0
2, 118396, Note_on_c, 0, 86, 0
2, 118396, Note_on_c, 0, 78, 0
2, 118656, Note_on_c, 0, 83, 104
2, 118656, Note_on_c, 0, 79, 101
2, 118656, Note_on_c, 0, 74, 99
2, 119036, Note_on_c, 0, 74, 0
2, 119036, Note_on_c, 0, 79, 0
2, 119036, Note_on_c, 0, 83, 0
2, 119808, Note_on_c, 0, 62, 79
2, 119808, Note_on_c, 0, 65, 68
2, 120956, Note_on_c, 0, 65, 0
2, 120956, Note_on_c, 0, 62, 0
2, 120960, Note_on_c, 0, 64, 76
2, 120960, Note_on_c, 0, 60, 76
2, 121084, Note_on_c, 0, 60, 0
2, 121084, Note_on_c, 0, 64, 0
2, 121344, Note_on_c, 0, 62, 82
2, 121468, Note_on_c, 0, 62, 0
2, 121728, Note_on_c, 0, 60, 89
2, 121852, Note_on_c, 0, 60, 0
2, 122112, Note_on_c, 0, 67, 83
2, 122112, Note_on_c, 0, 59, 73
2, 122300, Note_on_c, 0, 59, 0
2, 122300, Note_on_c, 0, 67, 0
2, 122304, Note_on_c, 0, 66, 71
2, 122492, Note_on_c, 0, 66, 0
2, 122496, Note_on_c, 0, 67, 84
2, 122684, Note_on_c, 0, 67, 0
2, 122688, Note_on_c, 0, 69, 74
2, 122876, Note_on_c, 0, 69, 0
2, 122880, Note_on_c, 0, 71, 83
2, 123068, Note_on_c, 0, 71, 0
2, 123072, Note_on_c, 0, 67, 74
2, 123260, Note_on_c, 0, 67, 0
2, 123264, Note_on_c, 0, 72, 79
2, 123452, Note_on_c, 0, 72, 0
2, 123456, Note_on_c, 0, 71, 78
2, 123644, Note_on_c, 0, 71, 0
2, 123648, Note_on_c, 0, 72, 87
2, 123836, Note_on_c, 0, 72, 0
2, 123840, Note_on_c, 0, 74, 85
2, 124028, Note_on_c, 0, 74, 0
2, 124032, Note_on_c, 0, 76, 95
2, 124220, Note_on_c, 0, 76, 0
2, 124224, Note_on_c, 0, 78, 91
2, 124412, Note_on_c, 0, 78, 0
2, 124416, Note_on_c, 0, 79, 103
2, 124540, Note_on_c, 0, 79, 0
2, 124800, Note_on_c, 0, 77, 111
2, 125564, Note_on_c, 0, 77, 0
2, 125568, Note_on_c, 0, 75, 77
2, 125692, Note_on_c, 0, 75, 0
2, 125952, Note_on_c, 0, 74, 77
2, 126076, Note_on_c, 0, 74, 0
2, 126336, Note_on_c, 0, 72, 73
2, 126460, Note_on_c, 0, 72, 0
2, 126720, Note_on_c, 0, 71, 74
2, 126908, Note_on_c, 0, 71, 0
2, 126912, Note_on_c, 0, 69, 81
2, 127100, Note_on_c, 0, 69, 0
2, 127104, Note_on_c, 0, 71, 87
2, 127292, Note_on_c, 0, 71, 0
2, 127296, Note_on_c, 0, 67, 95
2, 127484, Note_on_c, 0, 67, 0
2, 127488, Note_on_c, 0, 69, 87
2, 127676, Note_on_c, 0, 69, 0
2, 127680, Note_on_c, 0, 71, 86
2, 127868, Note_on_c, 0, 71, 0
2, 127872, Note_on_c, 0, 72, 86
2, 128060, Note_on_c, 0, 72, 0
2, 128064, Note_on_c, 0, 71, 94
2, 128252, Note_on_c, 0, 71, 0
2, 128256, Note_on_c, 0, 72, 88
2, 128444, Note_on_c, 0, 72, 0
2, 128448, Note_on_c, 0, 74, 95
2, 128636, Note_on_c, 0, 74, 0
2, 128640, Note_on_c, 0, 75, 100
2, 128828, Note_on_c, 0, 75, 0
2, 128832, Note_on_c, 0, 78, 101
2, 129020, Note_on_c, 0, 78, 0
2, 129024, Note_on_c, 0, 79, 92
2, 130748, Note_on_c, 0, 79, 0
2, 130752, Note_on_c, 0, 74, 94
2, 130752, Note_on_c, 0, 71, 77
2, 130940, Note_on_c, 0, 71, 0
2, 130940, Note_on_c, 0, 74, 0
2, 130944, Note_on_c, 0, 72, 94
2, 130944, Note_on_c, 0, 76, 105
2, 131132, Note_on_c, 0, 76, 0
2, 131132, Note_on_c, 0, 72, 0
2, 131136, Note_on_c, 0, 74, 120
2, 131136, Note_on_c, 0, 77, 109
2, 131324, Note_on_c, 0, 77, 0
2, 131324, Note_on_c, 0, 74, 0
2, 131328, Note_on_c, 0, 76, 114
2, 131328, Note_on_c, 0, 79, 120
2, 131452, Note_on_c, 0, 79, 0
2, 131452, Note_on_c, 0, 76, 0
2, 131712, Note_on_c, 0, 76, 124
2, 131712, Note_on_c, 0, 79, 118
2, 132476, Note_on_c, 0, 79, 0
2, 132476, Note_on_c, 0, 76, 0
2, 132480, Note_on_c, 0, 74, 89
2, 132480, Note_on_c, 0, 77, 86
2, 132604, Note_on_c, 0, 77, 0
2, 132604, Note_on_c, 0, 74, 0
2, 132864, Note_on_c, 0, 77, 125
2, 132864, Note_on_c, 0, 74, 118
2, 133628, Note_on_c, 0, 74, 0
2, 133628, Note_on_c, 0, 77, 0
2, 133632, Note_on_c, 0, 76, 93
2, 133632, Note_on_c, 0, 72, 81
2, 133692, Note_on_c, 0, 72, 0
2, 133692, Note_on_c, 0, 76, 0
2, 133824, Note_on_c, 0, 77, 88
2, 133824, Note_on_c, 0, 74, 73
2, 133884, Note_on_c, 0, 74, 0
2, 133884, Note_on_c, 0, 77, 0
2, 134016, Note_on_c, 0, 79, 87
2, 134016, Note_on_c, 0, 76, 78
2, 134076, Note_on_c, 0, 76, 0
2, 134076, Note_on_c, 0, 79, 0
2, 134208, Note_on_c, 0, 81, 92
2, 134208, Note_on_c, 0, 77, 73
2, 134268, Note_on_c, 0, 77, 0
2, 134268, Note_on_c, 0, 81, 0
2, 134400, Note_on_c, 0, 83, 85
2, 134400, Note_on_c, 0, 79, 77
2, 134460, Note_on_c, 0, 79, 0
2, 134460, Note_on_c, 0, 83, 0
2, 134592, Note_on_c, 0, 84, 93
2, 134592, Note_on_c, 0, 81, 81
2, 134652, Note_on_c, 0, 81, 0
2, 134652, Note_on_c, 0, 84, 0
2, 134784, Note_on_c, 0, 86, 93
2, 134784, Note_on_c, 0, 83, 57
2, 134844, Note_on_c, 0, 83, 0
2, 134844, Note_on_c, 0, 86, 0
2, 134976, Note_on_c, 0, 88, 84
2, 134976, Note_on_c, 0, 84, 79
2, 135036, Note_on_c, 0, 84, 0
2, 135036, Note_on_c, 0, 88, 0
2, 135168, Note_on_c, 0, 89, 103
2, 135168, Note_on_c, 0, 86, 92
2, 135228, Note_on_c, 0, 86, 0
2, 135228, Note_on_c, 0, 89, 0
2, 135360, Note_on_c, 0, 83, 92
2, 135360, Note_on_c, 0, 79, 85
2, 135420, Note_on_c, 0, 79, 0
2, 135420, Note_on_c, 0, 83, 0
2, 135552, Note_on_c, 0, 84, 93
2, 135552, Note_on_c, 0, 81, 81
2, 135612, Note_on_c, 0, 81, 0
2, 135612, Note_on_c, 0, 84, 0
2, 135744, Note_on_c, 0, 83, 92
2, 135744, Note_on_c, 0, 86, 99
2, 135804, Note_on_c, 0, 86, 0
2, 135804, Note_on_c, 0, 83, 0
2, 135936, Note_on_c, 0, 88, 104
2, 135936, Note_on_c, 0, 84, 98
2, 136060, Note_on_c, 0, 84, 0
2, 136060, Note_on_c, 0, 88, 0
2, 136320, Note_on_c, 0, 84, 125
2, 136320, Note_on_c, 0, 88, 122
2, 137084, Note_on_c, 0, 88, 0
2, 137084, Note_on_c, 0, 84, 0
2, 137088, Note_on_c, 0, 76, 101
2, 137088, Note_on_c, 0, 84, 100
2, 137212, Note_on_c, 0, 84, 0
2, 137212, Note_on_c, 0, 76, 0
2, 137472, Note_on_c, 0, 76, 124
2, 137472, Note_on_c, 0, 84, 122
2, 138236, Note_on_c, 0, 84, 0
2, 138236, Note_on_c, 0, 76, 0
2, 138240, Note_on_c, 0, 81, 88
2, 138240, Note_on_c, 0, 74, 91
2, 138240, Note_on_c, 0, 72, 84
2, 138364, Note_on_c, 0, 72, 0
2, 138364, Note_on_c, 0, 74, 0
2, 138364, Note_on_c, 0, 81, 0
2, 138624, Note_on_c, 0, 72, 84
2, 138624, Note_on_c, 0, 74, 87
2, 138624, Note_on_c, 0, 81, 91
2, 138748, Note_on_c, 0, 81, 0
2, 138748, Note_on_c, 0, 74, 0
2, 138748, Note_on_c, 0, 72, 0
2, 139008, Note_on_c, 0, 71, 95
2, 139008, Note_on_c, 0, 74, 97
2, 139008, Note_on_c, 0, 79, 100
2, 139132, Note_on_c, 0, 79, 0
2, 139132, Note_on_c, 0, 74, 0
2, 139132, Note_on_c, 0, 71, 0
2, 139392, Note_on_c, 0, 67, 98
2, 139392, Note_on_c, 0, 72, 88
2, 139392, Note_on_c, 0, 76, 93
2, 139772, Note_on_c, 0, 76, 0
2, 139772, Note_on_c, 0, 72, 0
2, 139772, Note_on_c, 0, 67, 0
2, 140544, Note_on_c, 0, 62, 79
2, 140544, Note_on_c, 0, 65, 68
2, 141692, Note_on_c, 0, 65, 0
2, 141692, Note_on_c, 0, 62, 0
2, 141696, Note_on_c, 0, 64, 76
2, 141696, Note_on_c, 0, 60, 76
2, 141820, Note_on_c, 0, 60, 0
2, 141820, Note_on_c, 0, 64, 0
2, 142080, Note_on_c, 0, 62, 82
2, 142204, Note_on_c, 0, 62, 0
2, 142464, Note_on_c, 0, 60, 89
2, 142588, Note_on_c, 0, 60, 0
2, 142848, Note_on_c, 0, 67, 83
2, 142848, Note_on_c, 0, 59, 73
2, 143036, Note_on_c, 0, 59, 0
2, 143036, Note_on_c, 0, 67, 0
2, 143040, Note_on_c, 0, 66, 71
2, 143228, Note_on_c, 0, 66, 0
2, 143232, Note_on_c, 0, 67, 84
2, 143420, Note_on_c, 0, 67, 0
2, 143424, Note_on_c, 0, 69, 74
2, 143612, Note_on_c, 0, 69, 0
2, 143616, Note_on_c, 0, 71, 83
2, 143804, Note_on_c, 0, 71, 0
2, 143808, Note_on_c, 0, 67, 74
2, 143996, Note_on_c, 0, 67, 0
2, 144000, Note_on_c, 0, 72, 79
2, 144188, Note_on_c, 0, 72, 0
2, 144192, Note_on_c, 0, 71, 78
2, 144380, Note_on_c, 0, 71, 0
2, 144384, Note_on_c, 0, 72, 87
2, 144572, Note_on_c, 0, 72, 0
2, 144576, Note_on_c, 0, 74, 85
2, 144764, Note_on_c, 0, 74, 0
2, 144768, Note_on_c, 0, 76, 95
2, 144956, Note_on_c, 0, 76, 0
2, 144960, Note_on_c, 0, 78, 91
2, 145148, Note_on_c, 0, 78, 0
2, 145152, Note_on_c, 0, 79, 103
2, 145276, Note_on_c, 0, 79, 0
2, 145536, Note_on_c, 0, 77, 111
2, 146300, Note_on_c, 0, 77, 0
2, 146304, Note_on_c, 0, 75, 77
2, 146428, Note_on_c, 0, 75, 0
2, 146688, Note_on_c, 0, 74, 77
2, 146812, Note_on_c, 0, 74, 0
2, 147072, Note_on_c, 0, 72, 73
2, 147196, Note_on_c, 0, 72, 0
2, 147456, Note_on_c, 0, 71, 74
2, 147644, Note_on_c, 0, 71, 0
2, 147648, Note_on_c, 0, 69, 81
2, 147836, Note_on_c, 0, 69, 0
2, 147840, Note_on_c, 0, 71, 87
2, 148028, Note_on_c, 0, 71, 0
2, 148032, Note_on_c, 0, 67, 95
2, 148220, Note_on_c, 0, 67, 0
2, 148224, Note_on_c, 0, 69, 87
2, 148412, Note_on_c, 0, 69, 0
2, 148416, Note_on_c, 0, 71, 86
2, 148604, Note_on_c, 0, 71, 0
2, 148608, Note_on_c, 0, 72, 86
2, 148796, Note_on_c, 0, 72, 0
2, 148800, Note_on_c, 0, 71, 94
2, 148988, Note_on_c, 0, 71, 0
2, 148992, Note_on_c, 0, 72, 88
2, 149180, Note_on_c, 0, 72, 0
2, 149184, Note_on_c, 0, 74, 95
2, 149372, Note_on_c, 0, 74, 0
2, 149376, Note_on_c, 0, 75, 100
2, 149564, Note_on_c, 0, 75, 0
2, 149568, Note_on_c, 0, 78, 101
2, 149756, Note_on_c, 0, 78, 0
2, 149760, Note_on_c, 0, 79, 92
2, 151484, Note_on_c, 0, 79, 0
2, 151488, Note_on_c, 0, 74, 94
2, 151488, Note_on_c, 0, 71, 77
2, 151676, Note_on_c, 0, 71, 0
2, 151676, Note_on_c, 0, 74, 0
2, 151680, Note_on_c, 0, 72, 94
2, 151680, Note_on_c, 0, 76, 105
2, 151868, Note_on_c, 0, 76, 0
2, 151868, Note_on_c, 0, 72, 0
2, 151872, Note_on_c, 0, 74, 120
2, 151872, Note_on_c, 0, 77, 109
2, 152060, Note_on_c, 0, 77, 0
2, 152060, Note_on_c, 0, 74, 0
2, 152064, Note_on_c, 0, 76, 114
2, 152064, Note_on_c, 0, 79, 120
2, 152188, Note_on_c, 0, 79, 0
2, 152188, Note_on_c, 0, 76, 0
2, 152448, Note_on_c, 0, 76, 124
2, 152448, Note_on_c, 0, 79, 118
2, 153212, Note_on_c, 0, 79, 0
2, 153212, Note_on_c, 0, 76, 0
2, 153216, Note_on_c, 0, 74, 89
2, 153216, Note_on_c, 0, 77, 86
2, 153340, Note_on_c, 0, 77, 0
2, 153340, Note_on_c, 0, 74, 0
2, 153600, Note_on_c, 0, 77, 125
2, 153600, Note_on_c, 0, 74, 118
2, 154364, Note_on_c, 0, 74, 0
2, 154364, Note_on_c, 0, 77, 0
2, 154368, Note_on_c, 0, 76, 93
2, 154368, Note_on_c, 0, 72, 81
2, 154428, Note_on_c, 0, 72, 0
2, 154428, Note_on_c, 0, 76, 0
2, 154560, Note_on_c, 0, 77, 88
2, 154560, Note_on_c, 0, 74, 73
2, 154620, Note_on_c, 0, 74, 0
2, 154620, Note_on_c, 0, 77, 0
2, 154752, Note_on_c, 0, 79, 87
2, 154752, Note_on_c, 0, 76, 78
2, 154812, Note_on_c, 0, 76, 0
2, 154812, Note_on_c, 0, 79, 0
2, 154944, Note_on_c, 0, 81, 92
2, 154944, Note_on_c, 0, 77, 73
2, 155004, Note_on_c, 0, 77, 0
2, 155004, Note_on_c, 0, 81, 0
2, 155136, Note_on_c, 0, 83, 85
2, 155136, Note_on_c, 0, 79, 77
2, 155196, Note_on_c, 0, 79, 0
2, 155196, Note_on_c, 0, 83, 0
2, 155328, Note_on_c, 0, 84, 93
2, 155328, Note_on_c, 0, 81, 81
2, 155388, Note_on_c, 0, 81, 0
2, 155388, Note_on_c, 0, 84, 0
2, 155520, Note_on_c, 0, 86, 93
2, 155520, Note_on_c, 0, 83, 57
2, 155580, Note_on_c, 0, 83, 0
2, 155580, Note_on_c, 0, 86, 0
2, 155712, Note_on_c, 0, 88, 84
2, 155712, Note_on_c, 0, 84, 79
2, 155772, Note_on_c, 0, 84, 0
2, 155772, Note_on_c, 0, 88, 0
2, 155904, Note_on_c, 0, 89, 103
2, 155904, Note_on_c, 0, 86, 92
2, 155964, Note_on_c, 0, 86, 0
2, 155964, Note_on_c, 0, 89, 0
2, 156096, Note_on_c, 0, 83, 92
2, 156096, Note_on_c, 0, 79, 85
2, 156156, Note_on_c, 0, 79, 0
2, 156156, Note_on_c, 0, 83, 0
2, 156288, Note_on_c, 0, 84, 93
2, 156288, Note_on_c, 0, 81, 81
2, 156348, Note_on_c, 0, 81, 0
2, 156348, Note_on_c, 0, 84, 0
2, 156480, Note_on_c, 0, 83, 92
2, 156480, Note_on_c, 0, 86, 99
2, 156540, Note_on_c, 0, 86, 0
2, 156540, Note_on_c, 0, 83, 0
2, 156672, Note_on_c, 0, 88, 104
2, 156672, Note_on_c, 0, 84, 98
2, 156796, Note_on_c, 0, 84, 0
2, 156796, Note_on_c, 0, 88, 0
2, 157056, Note_on_c, 0, 84, 125
2, 157056, Note_on_c, 0, 88, 122
2, 157820, Note_on_c, 0, 88, 0
2, 157820, Note_on_c, 0, 84, 0
2, 157824, Note_on_c, 0, 76, 101
2, 157824, Note_on_c, 0, 84, 100
2, 157948, Note_on_c, 0, 84, 0
2, 157948, Note_on_c, 0, 76, 0
2, 158208, Note_on_c, 0, 76, 124
2, 158208, Note_on_c, 0, 84, 122
2, 158972, Note_on_c, 0, 84, 0
2, 158972, Note_on_c, 0, 76, 0
2, 158976, Note_on_c, 0, 81, 88
2, 158976, Note_on_c, 0, 74, 91
2, 158976, Note_on_c, 0, 72, 84
2, 159100, Note_on_c, 0, 72, 0
2, 159100, Note_on_c, 0, 74, 0
2, 159100, Note_on_c, 0, 81, 0
2, 159360, Note_on_c, 0, 72, 84
2, 159360, Note_on_c, 0, 74, 87
2, 159360, Note_on_c, 0, 81, 91
2, 159484, Note_on_c, 0, 81, 0
2, 159484, Note_on_c, 0, 74, 0
2, 159484, Note_on_c, 0, 72, 0
2, 159744, Note_on_c, 0, 71, 95
2, 159744, Note_on_c, 0, 74, 97
2, 159744, Note_on_c, 0, 79, 100
2, 159868, Note_on_c, 0, 79, 0
2, 159868, Note_on_c, 0, 74, 0
2, 159868, Note_on_c, 0, 71, 0
2, 160128, Note_on_c, 0, 67, 98
2, 160128, Note_on_c, 0, 72, 88
2, 160128, Note_on_c, 0, 76, 93
2, 160508, Note_on_c, 0, 76, 0
2, 160508, Note_on_c, 0, 72, 0
2, 160508, Note_on_c, 0, 67, 0
2, 161280, Note_on_c, 0, 72, 82
2, 161340, Note_on_c, 0, 72, 0
2, 161568, Note_on_c, 0, 72, 75
2, 161660, Note_on_c, 0, 72, 0
2, 161664, Note_on_c, 0, 76, 117
2, 161788, Note_on_c, 0, 76, 0
2, 162432, Note_on_c, 0, 72, 70
2, 162432, Note_on_c, 0, 64, 61
2, 162432, Note_on_c, 0, 67, 54
2, 162812, Note_on_c, 0, 67, 0
2, 162812, Note_on_c, 0, 64, 0
2, 162812, Note_on_c, 0, 72, 0
2, 162816, Note_on_c, 0, 71, 64
2, 162816, Note_on_c, 0, 65, 51
2, 162816, Note_on_c, 0, 62, 57
2, 163196, Note_on_c, 0, 62, 0
2, 163196, Note_on_c, 0, 65, 0
2, 163196, Note_on_c, 0, 71, 0
2, 163200, Note_on_c, 0, 64, 55
2, 163200, Note_on_c, 0, 72, 67
2, 163200, Note_on_c, 0, 60, 51
2, 163580, Note_on_c, 0, 60, 0
2, 163580, Note_on_c, 0, 72, 0
2, 163580, Note_on_c, 0, 64, 0
2, 163584, Note_on_c, 0, 77, 64
2, 163584, Note_on_c, 0, 59, 59
2, 163584, Note_on_c, 0, 55, 51
2, 163584, Note_on_c, 0, 62, 44
2, 163584, Note_on_c, 0, 71, 41
2, 163708, Note_on_c, 0, 71, 0
2, 163708, Note_on_c, 0, 55, 0
2, 163708, Note_on_c, 0, 77, 0
2, 163708, Note_on_c, 0, 59, 0
2, 163708, Note_on_c, 0, 62, 0
2, 163968, Note_on_c, 0, 77, 71
2, 163968, Note_on_c, 0, 71, 49
2, 163968, Note_on_c, 0, 59, 65
2, 163968, Note_on_c, 0, 55, 61
2, 163968, Note_on_c, 0, 62, 49
2, 164092, Note_on_c, 0, 62, 0
2, 164092, Note_on_c, 0, 59, 0
2, 164092, Note_on_c, 0, 77, 0
2, 164092, Note_on_c, 0, 71, 0
2, 164092, Note_on_c, 0, 55, 0
2, 164352, Note_on_c, 0, 77, 64
2, 164352, Note_on_c, 0, 71, 57
2, 164352, Note_on_c, 0, 59, 54
2, 164352, Note_on_c, 0, 62, 54
2, 164352, Note_on_c, 0, 55, 59
2, 164476, Note_on_c, 0, 55, 0
2, 164476, Note_on_c, 0, 59, 0
2, 164476, Note_on_c, 0, 77, 0
2, 164476, Note_on_c, 0, 71, 0
2, 164476, Note_on_c, 0, 62, 0
2, 164736, Note_on_c, 0, 77, 81
2, 164736, Note_on_c, 0, 71, 72
2, 164736, Note_on_c, 0, 59, 44
2, 164736, Note_on_c, 0, 62, 54
2, 164736, Note_on_c, 0, 55, 71
2, 164860, Note_on_c, 0, 55, 0
2, 164860, Note_on_c, 0, 59, 0
2, 164860, Note_on_c, 0, 77, 0
2, 164860, Note_on_c, 0, 71, 0
2, 164860, Note_on_c, 0, 62, 0
2, 165888, Note_on_c, 0, 74, 88
2, 165948, Note_on_c, 0, 74, 0
2, 166176, Note_on_c, 0, 74, 77
2, 166268, Note_on_c, 0, 74, 0
2, 166272, Note_on_c, 0, 77, 115
2, 166396, Note_on_c, 0, 77, 0
2, 167040, Note_on_c, 0, 65, 59
2, 167040, Note_on_c, 0, 74, 64
2, 167040, Note_on_c, 0, 69, 47
2, 167420, Note_on_c, 0, 69, 0
2, 167420, Note_on_c, 0, 74, 0
2, 167420, Note_on_c, 0, 65, 0
2, 167424, Note_on_c, 0, 73, 70
2, 167424, Note_on_c, 0, 64, 49
2, 167424, Note_on_c, 0, 67, 69
2, 167804, Note_on_c, 0, 67, 0
2, 167804, Note_on_c, 0, 64, 0
2, 167804, Note_on_c, 0, 73, 0
2, 167808, Note_on_c, 0, 74, 74
2, 167808, Note_on_c, 0, 65, 46
2, 167808, Note_on_c, 0, 62, 58
2, 168188, Note_on_c, 0, 62, 0
2, 168188, Note_on_c, 0, 65, 0
2, 168188, Note_on_c, 0, 74, 0
2, 168192, Note_on_c, 0, 69, 56
2, 168192, Note_on_c, 0, 57, 64
2, 168192, Note_on_c, 0, 61, 59
2, 168192, Note_on_c, 0, 64, 40
2, 168192, Note_on_c, 0, 76, 59
2, 168316, Note_on_c, 0, 76, 0
2, 168316, Note_on_c, 0, 61, 0
2, 168316, Note_on_c, 0, 69, 0
2, 168316, Note_on_c, 0, 57, 0
2, 168316, Note_on_c, 0, 64, 0
2, 168576, Note_on_c, 0, 76, 79
2, 168576, Note_on_c, 0, 61, 53
2, 168576, Note_on_c, 0, 64, 46
2, 168576, Note_on_c, 0, 69, 48
2, 168576, Note_on_c, 0, 57, 43
2, 168700, Note_on_c, 0, 57, 0
2, 168700, Note_on_c, 0, 64, 0
2, 168700, Note_on_c, 0, 76, 0
2, 168700, Note_on_c, 0, 61, 0
2, 168700, Note_on_c, 0, 69, 0
2, 168960, Note_on_c, 0, 76, 79
2, 168960, Note_on_c, 0, 61, 55
2, 168960, Note_on_c, 0, 57, 68
2, 168960, Note_on_c, 0, 69, 58
2, 168960, Note_on_c, 0, 64, 54
2, 169084, Note_on_c, 0, 64, 0
2, 169084, Note_on_c, 0, 57, 0
2, 169084, Note_on_c, 0, 76, 0
2, 169084, Note_on_c, 0, 61, 0
2, 169084, Note_on_c, 0, 69, 0
2, 169344, Note_on_c, 0, 76, 77
2, 169344, Note_on_c, 0, 61, 60
2, 169344, Note_on_c, 0, 69, 67
2, 169344, Note_on_c, 0, 57, 66
2, 169344, Note_on_c, 0, 64, 55
2, 169468, Note_on_c, 0, 64, 0
2, 169468, Note_on_c, 0, 69, 0
2, 169468, Note_on_c, 0, 76, 0
2, 169468, Note_on_c, 0, 61, 0
2, 169468, Note_on_c, 0, 57, 0
2, 170496, Note_on_c, 0, 77, 85
2, 170556, Note_on_c, 0, 77, 0
2, 170784, Note_on_c, 0, 77, 70
2, 170876, Note_on_c, 0, 77, 0
2, 170880, Note_on_c, 0, 81, 104
2, 171004, Note_on_c, 0, 81, 0
2, 171648, Note_on_c, 0, 77, 73
2, 171648, Note_on_c, 0, 69, 59
2, 171648, Note_on_c, 0, 72, 44
2, 172028, Note_on_c, 0, 72, 0
2, 172028, Note_on_c, 0, 69, 0
2, 172028, Note_on_c, 0, 77, 0
2, 172032, Note_on_c, 0, 76, 68
2, 172032, Note_on_c, 0, 70, 49
2, 172032, Note_on_c, 0, 67, 71
2, 172412, Note_on_c, 0, 67, 0
2, 172412, Note_on_c, 0, 70, 0
2, 172412, Note_on_c, 0, 76, 0
2, 172416, Note_on_c, 0, 77, 73
2, 172416, Note_on_c, 0, 69, 50
2, 172416, Note_on_c, 0, 65, 54
2, 172796, Note_on_c, 0, 65, 0
2, 172796, Note_on_c, 0, 69, 0
2, 172796, Note_on_c, 0, 77, 0
2, 172800, Note_on_c, 0, 84, 79
2, 172860, Note_on_c, 0, 84, 0
2, 173088, Note_on_c, 0, 84, 77
2, 173180, Note_on_c, 0, 84, 0
2, 173184, Note_on_c, 0, 88, 118
2, 173308, Note_on_c, 0, 88, 0
2, 173952, Note_on_c, 0, 64, 65
2, 173952, Note_on_c, 0, 72, 61
2, 173952, Note_on_c, 0, 67, 37
2, 174332, Note_on_c, 0, 67, 0
2, 174332, Note_on_c, 0, 72, 0
2, 174332, Note_on_c, 0, 64, 0
2, 174336, Note_on_c, 0, 71, 67
2, 174336, Note_on_c, 0, 62, 56
2, 174336, Note_on_c, 0, 65, 48
2, 174716, Note_on_c, 0, 65, 0
2, 174716, Note_on_c, 0, 62, 0
2, 174716, Note_on_c, 0, 71, 0
2, 174720, Note_on_c, 0, 72, 61
2, 174720, Note_on_c, 0, 64, 55
2, 174720, Note_on_c, 0, 60, 55
2, 175100, Note_on_c, 0, 60, 0
2, 175100, Note_on_c, 0, 64, 0
2, 175100, Note_on_c, 0, 72, 0
2, 175104, Note_on_c, 0, 74, 114
2, 175164, Note_on_c, 0, 74, 0
2, 175392, Note_on_c, 0, 74, 82
2, 175484, Note_on_c, 0, 74, 0
2, 175488, Note_on_c, 0, 81, 111
2, 175612, Note_on_c, 0, 81, 0
2, 175872, Note_on_c, 0, 57, 114
2, 175872, Note_on_c, 0, 62, 120
2, 175872, Note_on_c, 0, 53, 108
2, 175996, Note_on_c, 0, 53, 0
2, 175996, Note_on_c, 0, 62, 0
2, 175996, Note_on_c, 0, 57, 0
2, 176256, Note_on_c, 0, 71, 107
2, 176316, Note_on_c, 0, 71, 0
2, 176544, Note_on_c, 0, 71, 70
2, 176636, Note_on_c, 0, 71, 0
2, 176640, Note_on_c, 0, 79, 111
2, 176764, Note_on_c, 0, 79, 0
2, 177024, Note_on_c, 0, 65, 105
2, 177024, Note_on_c, 0, 55, 109
2, 177024, Note_on_c, 0, 62, 101
2, 177148, Note_on_c, 0, 62, 0
2, 177148, Note_on_c, 0, 55, 0
2, 177148, Note_on_c, 0, 65, 0
2, 177408, Note_on_c, 0, 64, 98
2, 177468, Note_on_c, 0, 64, 0
2, 177696, Note_on_c, 0, 64, 81
2, 177788, Note_on_c, 0, 64, 0
2, 177792, Note_on_c, 0, 72, 96
2, 177916, Note_on_c, 0, 72, 0
2, 178176, Note_on_c, 0, 48, 91
2, 178176, Note_on_c, 0, 60, 99
2, 178176, Note_on_c, 0, 55, 97
2, 178300, Note_on_c, 0, 55, 0
2, 178300, Note_on_c, 0, 60, 0
2, 178300, Note_on_c, 0, 48, 0
2, 178560, Note_on_c, 0, 60, 97
2, 178560, Note_on_c, 0, 52, 85
2, 178560, Note_on_c, 0, 55, 92
2, 178684, Note_on_c, 0, 55, 0
2, 178684, Note_on_c, 0, 52, 0
2, 178684, Note_on_c, 0, 60, 0
2, 179328, Note_on_c, 0, 60, 99
2, 179328, Note_on_c, 0, 52, 89
2, 179328, Note_on_c, 0, 55, 96
2, 179452, Note_on_c, 0, 55, 0
2, 179452, Note_on_c, 0, 52, 0
2, 179452, Note_on_c, 0, 60, 0
2, 179712, Note_on_c, 0, 72, 82
2, 179772, Note_on_c, 0, 72, 0
2, 180000, Note_on_c, 0, 72, 75
2, 180092, Note_on_c, 0, 72, 0
2, 180096, Note_on_c, 0, 76, 117
2, 180220, Note_on_c, 0, 76, 0
2, 180864, Note_on_c, 0, 64, 68
2, 180864, Note_on_c, 0, 67, 52
2, 180924, Note_on_c, 0, 67, 0
2, 180924, Note_on_c, 0, 64, 0
2, 181056, Note_on_c, 0, 72, 72
2, 181116, Note_on_c, 0, 72, 0
2, 181248, Note_on_c, 0, 65, 65
2, 181248, Note_on_c, 0, 62, 74
2, 181308, Note_on_c, 0, 62, 0
2, 181308, Note_on_c, 0, 65, 0
2, 181440, Note_on_c, 0, 71, 73
2, 181500, Note_on_c, 0, 71, 0
2, 181632, Note_on_c, 0, 64, 69
2, 181632, Note_on_c, 0, 60, 79
2, 181692, Note_on_c, 0, 60, 0
2, 181692, Note_on_c, 0, 64, 0
2, 181824, Note_on_c, 0, 72, 81
2, 181884, Note_on_c, 0, 72, 0
2, 182208, Note_on_c, 0, 74, 74
2, 182208, Note_on_c, 0, 67, 68
2, 182208, Note_on_c, 0, 71, 54
2, 182268, Note_on_c, 0, 71, 0
2, 182268, Note_on_c, 0, 67, 0
2, 182268, Note_on_c, 0, 74, 0
2, 182400, Note_on_c, 0, 55, 71
2, 182400, Note_on_c, 0, 62, 56
2, 182400, Note_on_c, 0, 59, 64
2, 182460, Note_on_c, 0, 59, 0
2, 182460, Note_on_c, 0, 62, 0
2, 182460, Note_on_c, 0, 55, 0
2, 182592, Note_on_c, 0, 74, 61
2, 182592, Note_on_c, 0, 71, 61
2, 182592, Note_on_c, 0, 67, 64
2, 182652, Note_on_c, 0, 67, 0
2, 182652, Note_on_c, 0, 71, 0
2, 182652, Note_on_c, 0, 74, 0
2, 182784, Note_on_c, 0, 62, 64
2, 182784, Note_on_c, 0, 59, 69
2, 182784, Note_on_c, 0, 55, 67
2, 182844, Note_on_c, 0, 55, 0
2, 182844, Note_on_c, 0, 59, 0
2, 182844, Note_on_c, 0, 62, 0
2, 182976, Note_on_c, 0, 74, 69
2, 182976, Note_on_c, 0, 67, 68
2, 182976, Note_on_c, 0, 71, 56
2, 183036, Note_on_c, 0, 71, 0
2, 183036, Note_on_c, 0, 67, 0
2, 183036, Note_on_c, 0, 74, 0
2, 183168, Note_on_c, 0, 55, 70
2, 183168, Note_on_c, 0, 62, 61
2, 183168, Note_on_c, 0, 59, 66
2, 183292, Note_on_c, 0, 59, 0
2, 183292, Note_on_c, 0, 62, 0
2, 183292, Note_on_c, 0, 55, 0
2, 183552, Note_on_c, 0, 71, 65
2, 183552, Note_on_c, 0, 74, 71
2, 183552, Note_on_c, 0, 67, 62
2, 183676, Note_on_c, 0, 67, 0
2, 183676, Note_on_c, 0, 74, 0
2, 183676, Note_on_c, 0, 71, 0
2, 184320, Note_on_c, 0, 74, 88
2, 184380, Note_on_c, 0, 74, 0
2, 184608, Note_on_c, 0, 74, 77
2, 184700, Note_on_c, 0, 74, 0
2, 184704, Note_on_c, 0, 77, 115
2, 184828, Note_on_c, 0, 77, 0
2, 185472, Note_on_c, 0, 69, 64
2, 185472, Note_on_c, 0, 65, 69
2, 185532, Note_on_c, 0, 65, 0
2, 185532, Note_on_c, 0, 69, 0
2, 185664, Note_on_c, 0, 74, 79
2, 185724, Note_on_c, 0, 74, 0
2, 185856, Note_on_c, 0, 67, 60
2, 185856, Note_on_c, 0, 64, 75
2, 185916, Note_on_c, 0, 64, 0
2, 185916, Note_on_c, 0, 67, 0
2, 186048, Note_on_c, 0, 73, 75
2, 186108, Note_on_c, 0, 73, 0
2, 186240, Note_on_c, 0, 65, 72
2, 186240, Note_on_c, 0, 62, 73
2, 186300, Note_on_c, 0, 62, 0
2, 186300, Note_on_c, 0, 65, 0
2, 186432, Note_on_c, 0, 74, 79
2, 186492, Note_on_c, 0, 74, 0
2, 186624, Note_on_c, 0, 61, 66
2, 186624, Note_on_c, 0, 64, 51
2, 186624, Note_on_c, 0, 57, 71
2, 186684, Note_on_c, 0, 57, 0
2, 186684, Note_on_c, 0, 64, 0
2, 186684, Note_on_c, 0, 61, 0
2, 186816, Note_on_c, 0, 76, 76
2, 186816, Note_on_c, 0, 73, 63
2, 186816, Note_on_c, 0, 69, 67
2, 186876, Note_on_c, 0, 69, 0
2, 186876, Note_on_c, 0, 73, 0
2, 186876, Note_on_c, 0, 76, 0
2, 187008, Note_on_c, 0, 61, 63
2, 187008, Note_on_c, 0, 64, 51
2, 187008, Note_on_c, 0, 57, 62
2, 187068, Note_on_c, 0, 57, 0
2, 187068, Note_on_c, 0, 64, 0
2, 187068, Note_on_c, 0, 61, 0
2, 187200, Note_on_c, 0, 69, 69
2, 187200, Note_on_c, 0, 76, 68
2, 187200, Note_on_c, 0, 73, 69
2, 187260, Note_on_c, 0, 73, 0
2, 187260, Note_on_c, 0, 76, 0
2, 187260, Note_on_c, 0, 69, 0
2, 187392, Note_on_c, 0, 61, 55
2, 187392, Note_on_c, 0, 57, 57
2, 187392, Note_on_c, 0, 64, 46
2, 187452, Note_on_c, 0, 64, 0
2, 187452, Note_on_c, 0, 57, 0
2, 187452, Note_on_c, 0, 61, 0
2, 187584, Note_on_c, 0, 76, 61
2, 187584, Note_on_c, 0, 69, 57
2, 187584, Note_on_c, 0, 73, 59
2, 187644, Note_on_c, 0, 73, 0
2, 187644, Note_on_c, 0, 69, 0
2, 187644, Note_on_c, 0, 76, 0
2, 187776, Note_on_c, 0, 61, 65
2, 187776, Note_on_c, 0, 64, 69
2, 187776, Note_on_c, 0, 57, 73
2, 187900, Note_on_c, 0, 57, 0
2, 187900, Note_on_c, 0, 64, 0
2, 187900, Note_on_c, 0, 61, 0
2, 188160, Note_on_c, 0, 76, 68
2, 188160, Note_on_c, 0, 73, 61
2, 188160, Note_on_c, 0, 69, 69
2, 188284, Note_on_c, 0, 69, 0
2, 188284, Note_on_c, 0, 73, 0
2, 188284, Note_on_c, 0, 76, 0
2, 188928, Note_on_c, 0, 77, 83
2, 188988, Note_on_c, 0, 77, 0
2, 189216, Note_on_c, 0, 77, 71
2, 189308, Note_on_c, 0, 77, 0
2, 189312, Note_on_c, 0, 81, 95
2, 189436, Note_on_c, 0, 81, 0
2, 190080, Note_on_c, 0, 69, 74
2, 190080, Note_on_c, 0, 72, 48
2, 190140, Note_on_c, 0, 72, 0
2, 190140, Note_on_c, 0, 69, 0
2, 190272, Note_on_c, 0, 77, 73
2, 190332, Note_on_c, 0, 77, 0
2, 190464, Note_on_c, 0, 70, 59
2, 190464, Note_on_c, 0, 67, 73
2, 190524, Note_on_c, 0, 67, 0
2, 190524, Note_on_c, 0, 70, 0
2, 190656, Note_on_c, 0, 76, 82
2, 190716, Note_on_c, 0, 76, 0
2, 190848, Note_on_c, 0, 65, 73
2, 190848, Note_on_c, 0, 69, 59
2, 190908, Note_on_c, 0, 69, 0
2, 190908, Note_on_c, 0, 65, 0
2, 191040, Note_on_c, 0, 77, 77
2, 191100, Note_on_c, 0, 77, 0
2, 191232, Note_on_c, 0, 84, 97
2, 191292, Note_on_c, 0, 84, 0
2, 191520, Note_on_c, 0, 84, 92
2, 191612, Note_on_c, 0, 84, 0
2, 191616, Note_on_c, 0, 88, 111
2, 191740, Note_on_c, 0, 88, 0
2, 192384, Note_on_c, 0, 64, 67
2, 192384, Note_on_c, 0, 67, 61
2, 192444, Note_on_c, 0, 67, 0
2, 192444, Note_on_c, 0, 64, 0
2, 192576, Note_on_c, 0, 72, 75
2, 192636, Note_on_c, 0, 72, 0
2, 192768, Note_on_c, 0, 65, 73
2, 192768, Note_on_c, 0, 62, 68
2, 192828, Note_on_c, 0, 62, 0
2, 192828, Note_on_c, 0, 65, 0
2, 192960, Note_on_c, 0, 71, 71
2, 193020, Note_on_c, 0, 71, 0
2, 193152, Note_on_c, 0, 64, 64
2, 193152, Note_on_c, 0, 60, 75
2, 193212, Note_on_c, 0, 60, 0
2, 193212, Note_on_c, 0, 64, 0
2, 193344, Note_on_c, 0, 72, 76
2, 193404, Note_on_c, 0, 72, 0
2, 193536, Note_on_c, 0, 74, 108
2, 193596, Note_on_c, 0, 74, 0
2, 193824, Note_on_c, 0, 74, 101
2, 193916, Note_on_c, 0, 74, 0
2, 193920, Note_on_c, 0, 81, 100
2, 194044, Note_on_c, 0, 81, 0
2, 194304, Note_on_c, 0, 62, 101
2, 194304, Note_on_c, 0, 57, 98
2, 194304, Note_on_c, 0, 53, 94
2, 194428, Note_on_c, 0, 53, 0
2, 194428, Note_on_c, 0, 57, 0
2, 194428, Note_on_c, 0, 62, 0
2, 194688, Note_on_c, 0, 71, 92
2, 194748, Note_on_c, 0, 71, 0
2, 194976, Note_on_c, 0, 71, 72
2, 195068, Note_on_c, 0, 71, 0
2, 195072, Note_on_c, 0, 79, 115
2, 195196, Note_on_c, 0, 79, 0
2, 195456, Note_on_c, 0, 65, 91
2, 195456, Note_on_c, 0, 59, 95
2, 195456, Note_on_c, 0, 55, 89
2, 195580, Note_on_c, 0, 55, 0
2, 195580, Note_on_c, 0, 59, 0
2, 195580, Note_on_c, 0, 65, 0
2, 195840, Note_on_c, 0, 72, 107
2, 195840, Note_on_c, 0, 64, 99
2, 195900, Note_on_c, 0, 64, 0
2, 195900, Note_on_c, 0, 72, 0
2, 196032, Note_on_c, 0, 55, 100
2, 196032, Note_on_c, 0, 48, 95
2, 196032, Note_on_c, 0, 60, 96
2, 196092, Note_on_c, 0, 60, 0
2, 196092, Note_on_c, 0, 48, 0
2, 196092, Note_on_c, 0, 55, 0
2, 196224, Note_on_c, 0, 72, 96
2, 196224, Note_on_c, 0, 64, 97
2, 196284, Note_on_c, 0, 64, 0
2, 196284, Note_on_c, 0, 72, 0
2, 196608, Note_on_c, 0, 72, 93
2, 196608, Note_on_c, 0, 64, 95
2, 196668, Note_on_c, 0, 64, 0
2, 196668, Note_on_c, 0, 72, 0
2, 196800, Note_on_c, 0, 55, 105
2, 196800, Note_on_c, 0, 48, 97
2, 196800, Note_on_c, 0, 60, 90
2, 196860, Note_on_c, 0, 60, 0
2, 196860, Note_on_c, 0, 48, 0
2, 196860, Note_on_c, 0, 55, 0
2, 196992, Note_on_c, 0, 72, 98
2, 196992, Note_on_c, 0, 64, 100
2, 197116, Note_on_c, 0, 64, 0
2, 197116, Note_on_c, 0, 72, 0
2, 197376, Note_on_c, 0, 55, 97
2, 197376, Note_on_c, 0, 60, 90
2, 197376, Note_on_c, 0, 48, 95
2, 197500, Note_on_c, 0, 48, 0
2, 197500, Note_on_c, 0, 60, 0
2, 197500, Note_on_c, 0, 55, 0
2, 198144, Note_on_c, 0, 71, 78
2, 198204, Note_on_c, 0, 71, 0
2, 198432, Note_on_c, 0, 71, 64
2, 198524, Note_on_c, 0, 71, 0
2, 198528, Note_on_c, 0, 77, 127
2, 198652, Note_on_c, 0, 77, 0
2, 199296, Note_on_c, 0, 71, 56
2, 199296, Note_on_c, 0, 62, 67
2, 199296, Note_on_c, 0, 65, 46
2, 199676, Note_on_c, 0, 65, 0
2, 199676, Note_on_c, 0, 62, 0
2, 199676, Note_on_c, 0, 71, 0
2, 199680, Note_on_c, 0, 61, 63
2, 199680, Note_on_c, 0, 70, 59
2, 199680, Note_on_c, 0, 64, 50
2, 200060, Note_on_c, 0, 64, 0
2, 200060, Note_on_c, 0, 70, 0
2, 200060, Note_on_c, 0, 61, 0
2, 200064, Note_on_c, 0, 71, 65
2, 200064, Note_on_c, 0, 65, 48
2, 200064, Note_on_c, 0, 62, 49
2, 200188, Note_on_c, 0, 62, 0
2, 200188, Note_on_c, 0, 65, 0
2, 200188, Note_on_c, 0, 71, 0
2, 200448, Note_on_c, 0, 71, 75
2, 200508, Note_on_c, 0, 71, 0
2, 200736, Note_on_c, 0, 71, 71
2, 200828, Note_on_c, 0, 71, 0
2, 200832, Note_on_c, 0, 81, 107
2, 200956, Note_on_c, 0, 81, 0
2, 201600, Note_on_c, 0, 65, 45
2, 201600, Note_on_c, 0, 71, 53
2, 201600, Note_on_c, 0, 62, 59
2, 201980, Note_on_c, 0, 62, 0
2, 201980, Note_on_c, 0, 71, 0
2, 201980, Note_on_c, 0, 65, 0
2, 201984, Note_on_c, 0, 70, 62
2, 201984, Note_on_c, 0, 61, 58
2, 201984, Note_on_c, 0, 64, 47
2, 202364, Note_on_c, 0, 64, 0
2, 202364, Note_on_c, 0, 61, 0
2, 202364, Note_on_c, 0, 70, 0
2, 202368, Note_on_c, 0, 71, 78
2, 202368, Note_on_c, 0, 62, 73
2, 202368, Note_on_c, 0, 65, 47
2, 202492, Note_on_c, 0, 65, 0
2, 202492, Note_on_c, 0, 62, 0
2, 202492, Note_on_c, 0, 71, 0
2, 202752, Note_on_c, 0, 71, 107
2, 202812, Note_on_c, 0, 71, 0
2, 203040, Note_on_c, 0, 71, 92
2, 203132, Note_on_c, 0, 71, 0
2, 203136, Note_on_c, 0, 80, 115
2, 203260, Note_on_c, 0, 80, 0
2, 203520, Note_on_c, 0, 62, 107
2, 203520, Note_on_c, 0, 55, 112
2, 203520, Note_on_c, 0, 65, 102
2, 203644, Note_on_c, 0, 65, 0
2, 203644, Note_on_c, 0, 55, 0
2, 203644, Note_on_c, 0, 62, 0
2, 203904, Note_on_c, 0, 71, 92
2, 203964, Note_on_c, 0, 71, 0
2, 204192, Note_on_c, 0, 71, 79
2, 204284, Note_on_c, 0, 71, 0
2, 204288, Note_on_c, 0, 79, 114
2, 204412, Note_on_c, 0, 79, 0
2, 204672, Note_on_c, 0, 65, 93
2, 204672, Note_on_c, 0, 62, 92
2, 204672, Note_on_c, 0, 55, 94
2, 204796, Note_on_c, 0, 55, 0
2, 204796, Note_on_c, 0, 62, 0
2, 204796, Note_on_c, 0, 65, 0
2, 205056, Note_on_c, 0, 64, 76
2, 205116, Note_on_c, 0, 64, 0
2, 205344, Note_on_c, 0, 64, 73
2, 205436, Note_on_c, 0, 64, 0
2, 205440, Note_on_c, 0, 72, 69
2, 205564, Note_on_c, 0, 72, 0
2, 206208, Note_on_c, 0, 60, 70
2, 206208, Note_on_c, 0, 55, 64
2, 206208, Note_on_c, 0, 52, 60
2, 206332, Note_on_c, 0, 52, 0
2, 206332, Note_on_c, 0, 55, 0
2, 206332, Note_on_c, 0, 60, 0
2, 206976, Note_on_c, 0, 60, 69
2, 206976, Note_on_c, 0, 52, 62
2, 206976, Note_on_c, 0, 55, 73
2, 207100, Note_on_c, 0, 55, 0
2, 207100, Note_on_c, 0, 52, 0
2, 207100, Note_on_c, 0, 60, 0
2, 207360, Note_on_c, 0, 71, 107
2, 207420, Note_on_c, 0, 71, 0
2, 207648, Note_on_c, 0, 71, 96
2, 207740, Note_on_c, 0, 71, 0
2, 207744, Note_on_c, 0, 81, 104
2, 207868, Note_on_c, 0, 81, 0
2, 208128, Note_on_c, 0, 65, 100
2, 208128, Note_on_c, 0, 62, 98
2, 208128, Note_on_c, 0, 55, 104
2, 208252, Note_on_c, 0, 55, 0
2, 208252, Note_on_c, 0, 62, 0
2, 208252, Note_on_c, 0, 65, 0
2, 208512, Note_on_c, 0, 71, 97
2, 208572, Note_on_c, 0, 71, 0
2, 208800, Note_on_c, 0, 71, 80
2, 208892, Note_on_c, 0, 71, 0
2, 208896, Note_on_c, 0, 79, 114
2, 209020, Note_on_c, 0, 79, 0
2, 209280, Note_on_c, 0, 65, 107
2, 209280, Note_on_c, 0, 62, 104
2, 209280, Note_on_c, 0, 55, 112
2, 209404, Note_on_c, 0, 55, 0
2, 209404, Note_on_c, 0, 62, 0
2, 209404, Note_on_c, 0, 65, 0
2, 209664, Note_on_c, 0, 64, 74
2, 209724, Note_on_c, 0, 64, 0
2, 209952, Note_on_c, 0, 64, 73
2, 210044, Note_on_c, 0, 64, 0
2, 210048, Note_on_c, 0, 72, 93
2, 210172, Note_on_c, 0, 72, 0
2, 210432, Note_on_c, 0, 55, 69
2, 210432, Note_on_c, 0, 60, 51
2, 210432, Note_on_c, 0, 48, 61
2, 210556, Note_on_c, 0, 48, 0
2, 210556, Note_on_c, 0, 60, 0
2, 210556, Note_on_c, 0, 55, 0
2, 211968, Note_on_c, 0, 71, 105
2, 212028, Note_on_c, 0, 71, 0
2, 212256, Note_on_c, 0, 71, 87
2, 212348, Note_on_c, 0, 71, 0
2, 212352, Note_on_c, 0, 80, 102
2, 212476, Note_on_c, 0, 80, 0
2, 212736, Note_on_c, 0, 65, 102
2, 212736, Note_on_c, 0, 55, 105
2, 212736, Note_on_c, 0, 62, 107
2, 212860, Note_on_c, 0, 62, 0
2, 212860, Note_on_c, 0, 55, 0
2, 212860, Note_on_c, 0, 65, 0
2, 213120, Note_on_c, 0, 71, 95
2, 213180, Note_on_c, 0, 71, 0
2, 213408, Note_on_c, 0, 71, 84
2, 213500, Note_on_c, 0, 71, 0
2, 213504, Note_on_c, 0, 79, 94
2, 213628, Note_on_c, 0, 79, 0
2, 213888, Note_on_c, 0, 55, 111
2, 213888, Note_on_c, 0, 62, 108
2, 213888, Note_on_c, 0, 65, 112
2, 213888, Note_on_c, 0, 59, 102
2, 214012, Note_on_c, 0, 59, 0
2, 214012, Note_on_c, 0, 55, 0
2, 214012, Note_on_c, 0, 62, 0
2, 214012, Note_on_c, 0, 65, 0
2, 214272, Note_on_c, 0, 64, 73
2, 214332, Note_on_c, 0, 64, 0
2, 214560, Note_on_c, 0, 64, 75
2, 214652, Note_on_c, 0, 64, 0
2, 214656, Note_on_c, 0, 72, 83
2, 214780, Note_on_c, 0, 72, 0
2, 215040, Note_on_c, 0, 60, 57
2, 215040, Note_on_c, 0, 55, 66
2, 215040, Note_on_c, 0, 48, 54
2, 215164, Note_on_c, 0, 48, 0
2, 215164, Note_on_c, 0, 55, 0
2, 215164, Note_on_c, 0, 60, 0
2, 215424, Note_on_c, 0, 55, 67
2, 215424, Note_on_c, 0, 60, 68
2, 215424, Note_on_c, 0, 52, 66
2, 215548, Note_on_c, 0, 52, 0
2, 215548, Note_on_c, 0, 60, 0
2, 215548, Note_on_c, 0, 55, 0
2, 216576, Note_on_c, 0, 64, 84
2, 216636, Note_on_c, 0, 64, 0
2, 216864, Note_on_c, 0, 64, 78
2, 216956, Note_on_c, 0, 64, 0
2, 216960, Note_on_c, 0, 76, 85
2, 217084, Note_on_c, 0, 76, 0
2, 218880, Note_on_c, 0, 67, 95
2, 218940, Note_on_c, 0, 67, 0
2, 219168, Note_on_c, 0, 67, 89
2, 219260, Note_on_c, 0, 67, 0
2, 219264, Note_on_c, 0, 79, 94
2, 219388, Note_on_c, 0, 79, 0
2, 220032, Note_on_c, 0, 72, 97
2, 220092, Note_on_c, 0, 72, 0
2, 220320, Note_on_c, 0, 72, 87
2, 220412, Note_on_c, 0, 72, 0
2, 220416, Note_on_c, 0, 84, 109
2, 220540, Note_on_c, 0, 84, 0
2, 220800, Note_on_c, 0, 60, 87
2, 220800, Note_on_c, 0, 52, 85
2, 220800, Note_on_c, 0, 48, 78
2, 220800, Note_on_c, 0, 55, 85
2, 220924, Note_on_c, 0, 55, 0
2, 220924, Note_on_c, 0, 60, 0
2, 220924, Note_on_c, 0, 52, 0
2, 220924, Note_on_c, 0, 48, 0
2, 221184, Note_on_c, 0, 52, 99
2, 221184, Note_on_c, 0, 55, 103
2, 221184, Note_on_c, 0, 60, 111
2, 221308, Note_on_c, 0, 60, 0
2, 221308, Note_on_c, 0, 55, 0
2, 221308, Note_on_c, 0, 52, 0
2, 221952, Note_on_c, 0, 60, 104
2, 221952, Note_on_c, 0, 55, 104
2, 221952, Note_on_c, 0, 52, 97
2, 222076, Note_on_c, 0, 52, 0
2, 222076, Note_on_c, 0, 55, 0
2, 222076, Note_on_c, 0, 60, 0
2, 222720, Note_on_c, 0, 55, 105
2, 222720, Note_on_c, 0, 52, 95
2, 222720, Note_on_c, 0, 60, 103
2, 222844, Note_on_c, 0, 60, 0
2, 222844, Note_on_c, 0, 52, 0
2, 222844, Note_on_c, 0, 55, 0
2, 223488, Note_on_c, 0, 60, 107
2, 223488, Note_on_c, 0, 55, 105
2, 223488, Note_on_c, 0, 52, 93
2, 223612, Note_on_c, 0, 52, 0
2, 223612, Note_on_c, 0, 55, 0
2, 223612, Note_on_c, 0, 60, 0
2, 224256, Note_on_c, 0, 60, 112
2, 224256, Note_on_c, 0, 55, 105
2, 224256, Note_on_c, 0, 52, 97
2, 224380, Note_on_c, 0, 52, 0
2, 224380, Note_on_c, 0, 55, 0
2, 224380, Note_on_c, 0, 60, 0
2, 225024, Note_on_c, 0, 60, 112
2, 225024, Note_on_c, 0, 55, 107
2, 225024, Note_on_c, 0, 52, 98
2, 225148, Note_on_c, 0, 52, 0
2, 225148, Note_on_c, 0, 55, 0
2, 225148, Note_on_c, 0, 60, 0
2, 226944, Note_on_c, 0, 60, 75
2, 226944, Note_on_c, 0, 55, 69
2, 226944, Note_on_c, 0, 52, 64
2, 227068, Note_on_c, 0, 52, 0
2, 227068, Note_on_c, 0, 55, 0
2, 227068, Note_on_c, 0, 60, 0
2, 228096, Note_on_c, 0, 60, 60
2, 228096, Note_on_c, 0, 55, 59
2, 228096, Note_on_c, 0, 52, 48
2, 228220, Note_on_c, 0, 52, 0
2, 228220, Note_on_c, 0, 55, 0
2, 228220, Note_on_c, 0, 60, 0
2, 228220, End_track
3, 0, Start_track
3, 0, Title_t, "Scherzo (Allegro), Minore (Trio I), Trio (II)"
3, 0, Control_c, 0, 0, 0
3, 0, Control_c, 0, 7, 110
3, 0, Control_c, 0, 10, 48
3, 0, Control_c, 0, 32, 0
3, 1, Program_c, 0, 0
3, 768, Note_on_c, 0, 36, 107
3, 892, Note_on_c, 0, 36, 0
3, 5376, Note_on_c, 0, 38, 114
3, 5500, Note_on_c, 0, 38, 0
3, 9984, Note_on_c, 0, 41, 108
3, 10108, Note_on_c, 0, 41, 0
3, 12288, Note_on_c, 0, 48, 118
3, 12412, Note_on_c, 0, 48, 0
3, 17664, Note_on_c, 0, 36, 94
3, 17788, Note_on_c, 0, 36, 0
3, 19200, Note_on_c, 0, 36, 107
3, 19324, Note_on_c, 0, 36, 0
3, 23808, Note_on_c, 0, 38, 114
3, 23932, Note_on_c, 0, 38, 0
3, 28416, Note_on_c, 0, 41, 108
3, 28540, Note_on_c, 0, 41, 0
3, 30720, Note_on_c, 0, 48, 118
3, 30844, Note_on_c, 0, 48, 0
3, 36096, Note_on_c, 0, 36, 94
3, 36220, Note_on_c, 0, 36, 0
3, 36864, Note_on_c, 0, 33, 62
3, 36988, Note_on_c, 0, 33, 0
3, 36992, Note_on_c, 0, 40, 59
3, 37116, Note_on_c, 0, 40, 0
3, 37120, Note_on_c, 0, 45, 69
3, 37244, Note_on_c, 0, 45, 0
3, 37248, Note_on_c, 0, 33, 68
3, 37372, Note_on_c, 0, 33, 0
3, 37376, Note_on_c, 0, 40, 67
3, 37500, Note_on_c, 0, 40, 0
3, 37504, Note_on_c, 0, 45, 74
3, 37628, Note_on_c, 0, 45, 0
3, 37632, Note_on_c, 0, 33, 64
3, 37756, Note_on_c, 0, 33, 0
3, 37760, Note_on_c, 0, 40, 68
3, 37884, Note_on_c, 0, 40, 0
3, 37888, Note_on_c, 0, 45, 74
3, 38012, Note_on_c, 0, 45, 0
3, 38016, Note_on_c, 0, 33, 65
3, 38140, Note_on_c, 0, 33, 0
3, 38144, Note_on_c, 0, 40, 59
3, 38268, Note_on_c, 0, 40, 0
3, 38272, Note_on_c, 0, 45, 79
3, 38396, Note_on_c, 0, 45, 0
3, 38400, Note_on_c, 0, 33, 66
3, 38524, Note_on_c, 0, 33, 0
3, 38528, Note_on_c, 0, 40, 60
3, 38652, Note_on_c, 0, 40, 0
3, 38656, Note_on_c, 0, 45, 76
3, 38780, Note_on_c, 0, 45, 0
3, 38784, Note_on_c, 0, 33, 62
3, 38908, Note_on_c, 0, 33, 0
3, 38912, Note_on_c, 0, 40, 54
3, 39036, Note_on_c, 0, 40, 0
3, 39040, Note_on_c, 0, 44, 69
3, 39164, Note_on_c, 0, 44, 0
3, 39168, Note_on_c, 0, 33, 65
3, 39292, Note_on_c, 0, 33, 0
3, 39296, Note_on_c, 0, 40, 61
3, 39420, Note_on_c, 0, 40, 0
3, 39424, Note_on_c, 0, 45, 77
3, 39548, Note_on_c, 0, 45, 0
3, 39552, Note_on_c, 0, 33, 63
3, 39676, Note_on_c, 0, 33, 0
3, 39680, Note_on_c, 0, 40, 66
3, 39804, Note_on_c, 0, 40, 0
3, 39808, Note_on_c, 0, 45, 78
3, 39932, Note_on_c, 0, 45, 0
3, 39936, Note_on_c, 0, 33, 62
3, 40060, Note_on_c, 0, 33, 0
3, 40064, Note_on_c, 0, 40, 57
3, 40188, Note_on_c, 0, 40, 0
3, 40192, Note_on_c, 0, 45, 75
3, 40316, Note_on_c, 0, 45, 0
3, 40320, Note_on_c, 0, 33, 66
3, 40444, Note_on_c, 0, 33, 0
3, 40448, Note_on_c, 0, 40, 56
3, 40572, Note_on_c, 0, 40, 0
3, 40576, Note_on_c, 0, 45, 76
3, 40700, Note_on_c, 0, 45, 0
3, 40704, Note_on_c, 0, 33, 66
3, 40828, Note_on_c, 0, 33, 0
3, 40832, Note_on_c, 0, 40, 62
3, 40956, Note_on_c, 0, 40, 0
3, 40960, Note_on_c, 0, 45, 68
3, 41084, Note_on_c, 0, 45, 0
3, 41088, Note_on_c, 0, 33, 66
3, 41212, Note_on_c, 0, 33, 0
3, 41216, Note_on_c, 0, 40, 67
3, 41340, Note_on_c, 0, 40, 0
3, 41344, Note_on_c, 0, 44, 73
3, 41468, Note_on_c, 0, 44, 0
3, 41472, Note_on_c, 0, 33, 68
3, 41596, Note_on_c, 0, 33, 0
3, 41600, Note_on_c, 0, 40, 67
3, 41724, Note_on_c, 0, 40, 0
3, 41728, Note_on_c, 0, 45, 89
3, 41852, Note_on_c, 0, 45, 0
3, 41856, Note_on_c, 0, 33, 72
3, 41980, Note_on_c, 0, 33, 0
3, 41984, Note_on_c, 0, 40, 80
3, 42108, Note_on_c, 0, 40, 0
3, 42112, Note_on_c, 0, 45, 86
3, 42236, Note_on_c, 0, 45, 0
3, 42240, Note_on_c, 0, 32, 80
3, 42364, Note_on_c, 0, 32, 0
3, 42368, Note_on_c, 0, 40, 88
3, 42492, Note_on_c, 0, 40, 0
3, 42496, Note_on_c, 0, 44, 94
3, 42620, Note_on_c, 0, 44, 0
3, 42624, Note_on_c, 0, 33, 84
3, 42748, Note_on_c, 0, 33, 0
3, 42752, Note_on_c, 0, 40, 90
3, 42876, Note_on_c, 0, 40, 0
3, 42880, Note_on_c, 0, 45, 98
3, 43004, Note_on_c, 0, 45, 0
3, 43008, Note_on_c, 0, 33, 92
3, 43132, Note_on_c, 0, 33, 0
3, 43136, Note_on_c, 0, 40, 95
3, 43260, Note_on_c, 0, 40, 0
3, 43264, Note_on_c, 0, 45, 100
3, 43388, Note_on_c, 0, 45, 0
3, 43392, Note_on_c, 0, 35, 94
3, 43516, Note_on_c, 0, 35, 0
3, 43520, Note_on_c, 0, 43, 92
3, 43644, Note_on_c, 0, 43, 0
3, 43648, Note_on_c, 0, 47, 100
3, 43772, Note_on_c, 0, 47, 0
3, 43776, Note_on_c, 0, 36, 94
3, 43900, Note_on_c, 0, 36, 0
3, 43904, Note_on_c, 0, 43, 92
3, 44028, Note_on_c, 0, 43, 0
3, 44032, Note_on_c, 0, 48, 95
3, 44156, Note_on_c, 0, 48, 0
3, 44160, Note_on_c, 0, 36, 98
3, 44284, Note_on_c, 0, 36, 0
3, 44288, Note_on_c, 0, 43, 97
3, 44412, Note_on_c, 0, 43, 0
3, 44416, Note_on_c, 0, 48, 102
3, 44540, Note_on_c, 0, 48, 0
3, 44544, Note_on_c, 0, 36, 83
3, 44668, Note_on_c, 0, 36, 0
3, 44672, Note_on_c, 0, 43, 84
3, 44796, Note_on_c, 0, 43, 0
3, 44800, Note_on_c, 0, 48, 85
3, 44924, Note_on_c, 0, 48, 0
3, 44928, Note_on_c, 0, 36, 78
3, 45052, Note_on_c, 0, 36, 0
3, 45056, Note_on_c, 0, 43, 69
3, 45180, Note_on_c, 0, 43, 0
3, 45184, Note_on_c, 0, 48, 75
3, 45308, Note_on_c, 0, 48, 0
3, 45312, Note_on_c, 0, 36, 51
3, 45436, Note_on_c, 0, 36, 0
3, 45440, Note_on_c, 0, 43, 75
3, 45564, Note_on_c, 0, 43, 0
3, 45568, Note_on_c, 0, 48, 78
3, 45692, Note_on_c, 0, 48, 0
3, 45696, Note_on_c, 0, 36, 69
3, 45820, Note_on_c, 0, 36, 0
3, 45824, Note_on_c, 0, 43, 58
3, 45948, Note_on_c, 0, 43, 0
3, 45952, Note_on_c, 0, 48, 59
3, 46076, Note_on_c, 0, 48, 0
3, 46080, Note_on_c, 0, 36, 66
3, 46204, Note_on_c, 0, 36, 0
3, 46208, Note_on_c, 0, 43, 67
3, 46332, Note_on_c, 0, 43, 0
3, 46336, Note_on_c, 0, 48, 65
3, 46460, Note_on_c, 0, 48, 0
3, 46464, Note_on_c, 0, 36, 67
3, 46588, Note_on_c, 0, 36, 0
3, 46592, Note_on_c, 0, 43, 62
3, 46716, Note_on_c, 0, 43, 0
3, 46720, Note_on_c, 0, 48, 61
3, 46844, Note_on_c, 0, 48, 0
3, 46848, Note_on_c, 0, 36, 66
3, 46972, Note_on_c, 0, 36, 0
3, 46976, Note_on_c, 0, 43, 54
3, 47100, Note_on_c, 0, 43, 0
3, 47104, Note_on_c, 0, 48, 65
3, 47228, Note_on_c, 0, 48, 0
3, 47232, Note_on_c, 0, 36, 66
3, 47356, Note_on_c, 0, 36, 0
3, 47360, Note_on_c, 0, 43, 67
3, 47484, Note_on_c, 0, 43, 0
3, 47488, Note_on_c, 0, 48, 63
3, 47612, Note_on_c, 0, 48, 0
3, 47616, Note_on_c, 0, 36, 63
3, 47740, Note_on_c, 0, 36, 0
3, 47744, Note_on_c, 0, 43, 66
3, 47868, Note_on_c, 0, 43, 0
3, 47872, Note_on_c, 0, 48, 67
3, 47996, Note_on_c, 0, 48, 0
3, 48000, Note_on_c, 0, 36, 64
3, 48124, Note_on_c, 0, 36, 0
3, 48128, Note_on_c, 0, 43, 64
3, 48252, Note_on_c, 0, 43, 0
3, 48256, Note_on_c, 0, 47, 66
3, 48380, Note_on_c, 0, 47, 0
3, 48384, Note_on_c, 0, 36, 57
3, 48508, Note_on_c, 0, 36, 0
3, 48512, Note_on_c, 0, 43, 59
3, 48636, Note_on_c, 0, 43, 0
3, 48640, Note_on_c, 0, 48, 67
3, 48764, Note_on_c, 0, 48, 0
3, 48768, Note_on_c, 0, 36, 71
3, 48892, Note_on_c, 0, 36, 0
3, 48896, Note_on_c, 0, 43, 71
3, 49020, Note_on_c, 0, 43, 0
3, 49024, Note_on_c, 0, 48, 69
3, 49148, Note_on_c, 0, 48, 0
3, 49152, Note_on_c, 0, 36, 74
3, 49276, Note_on_c, 0, 36, 0
3, 49280, Note_on_c, 0, 43, 65
3, 49404, Note_on_c, 0, 43, 0
3, 49408, Note_on_c, 0, 48, 76
3, 49532, Note_on_c, 0, 48, 0
3, 49536, Note_on_c, 0, 36, 64
3, 49660, Note_on_c, 0, 36, 0
3, 49664, Note_on_c, 0, 43, 66
3, 49788, Note_on_c, 0, 43, 0
3, 49792, Note_on_c, 0, 48, 72
3, 49916, Note_on_c, 0, 48, 0
3, 49920, Note_on_c, 0, 36, 68
3, 50044, Note_on_c, 0, 36, 0
3, 50048, Note_on_c, 0, 43, 67
3, 50172, Note_on_c, 0, 43, 0
3, 50176, Note_on_c, 0, 48, 55
3, 50300, Note_on_c, 0, 48, 0
3, 50304, Note_on_c, 0, 36, 68
3, 50428, Note_on_c, 0, 36, 0
3, 50432, Note_on_c, 0, 43, 57
3, 50556, Note_on_c, 0, 43, 0
3, 50560, Note_on_c, 0, 47, 71
3, 50684, Note_on_c, 0, 47, 0
3, 50688, Note_on_c, 0, 36, 72
3, 50812, Note_on_c, 0, 36, 0
3, 50816, Note_on_c, 0, 43, 70
3, 50940, Note_on_c, 0, 43, 0
3, 50944, Note_on_c, 0, 48, 79
3, 51068, Note_on_c, 0, 48, 0
3, 51072, Note_on_c, 0, 36, 81
3, 51196, Note_on_c, 0, 36, 0
3, 51200, Note_on_c, 0, 43, 83
3, 51324, Note_on_c, 0, 43, 0
3, 51328, Note_on_c, 0, 48, 78
3, 51452, Note_on_c, 0, 48, 0
3, 51456, Note_on_c, 0, 38, 87
3, 51580, Note_on_c, 0, 38, 0
3, 51584, Note_on_c, 0, 41, 87
3, 51708, Note_on_c, 0, 41, 0
3, 51712, Note_on_c, 0, 50, 86
3, 51836, Note_on_c, 0, 50, 0
3, 51840, Note_on_c, 0, 40, 82
3, 51964, Note_on_c, 0, 40, 0
3, 51968, Note_on_c, 0, 45, 85
3, 52092, Note_on_c, 0, 45, 0
3, 52096, Note_on_c, 0, 52, 81
3, 52220, Note_on_c, 0, 52, 0
3, 52224, Note_on_c, 0, 40, 81
3, 52348, Note_on_c, 0, 40, 0
3, 52352, Note_on_c, 0, 45, 73
3, 52476, Note_on_c, 0, 45, 0
3, 52480, Note_on_c, 0, 52, 81
3, 52604, Note_on_c, 0, 52, 0
3, 52608, Note_on_c, 0, 40, 81
3, 52732, Note_on_c, 0, 40, 0
3, 52736, Note_on_c, 0, 44, 86
3, 52860, Note_on_c, 0, 44, 0
3, 52864, Note_on_c, 0, 52, 92
3, 52988, Note_on_c, 0, 52, 0
3, 52992, Note_on_c, 0, 33, 67
3, 53116, Note_on_c, 0, 33, 0
3, 53120, Note_on_c, 0, 36, 57
3, 53244, Note_on_c, 0, 36, 0
3, 53248, Note_on_c, 0, 40, 53
3, 53372, Note_on_c, 0, 40, 0
3, 53376, Note_on_c, 0, 45, 64
3, 53500, Note_on_c, 0, 45, 0
3, 53504, Note_on_c, 0, 40, 57
3, 53628, Note_on_c, 0, 40, 0
3, 53632, Note_on_c, 0, 36, 51
3, 53756, Note_on_c, 0, 36, 0
3, 53760, Note_on_c, 0, 33, 51
3, 53884, Note_on_c, 0, 33, 0
3, 53888, Note_on_c, 0, 36, 51
3, 54012, Note_on_c, 0, 36, 0
3, 54016, Note_on_c, 0, 40, 48
3, 54140, Note_on_c, 0, 40, 0
3, 54144, Note_on_c, 0, 45, 64
3, 54268, Note_on_c, 0, 45, 0
3, 54272, Note_on_c, 0, 40, 54
3, 54396, Note_on_c, 0, 40, 0
3, 54400, Note_on_c, 0, 36, 53
3, 54524, Note_on_c, 0, 36, 0
3, 54528, Note_on_c, 0, 33, 46
3, 54652, Note_on_c, 0, 33, 0
3, 54656, Note_on_c, 0, 36, 47
3, 54780, Note_on_c, 0, 36, 0
3, 54784, Note_on_c, 0, 40, 49
3, 54908, Note_on_c, 0, 40, 0
3, 54912, Note_on_c, 0, 45, 62
3, 55036, Note_on_c, 0, 45, 0
3, 55040, Note_on_c, 0, 40, 45
3, 55164, Note_on_c, 0, 40, 0
3, 55168, Note_on_c, 0, 36, 56
3, 55292, Note_on_c, 0, 36, 0
3, 55296, Note_on_c, 0, 33, 62
3, 55420, Note_on_c, 0, 33, 0
3, 55424, Note_on_c, 0, 40, 59
3, 55548, Note_on_c, 0, 40, 0
3, 55552, Note_on_c, 0, 45, 69
3, 55676, Note_on_c, 0, 45, 0
3, 55680, Note_on_c, 0, 33, 68
3, 55804, Note_on_c, 0, 33, 0
3, 55808, Note_on_c, 0, 40, 67
3, 55932, Note_on_c, 0, 40, 0
3, 55936, Note_on_c, 0, 45, 74
3, 56060, Note_on_c, 0, 45, 0
3, 56064, Note_on_c, 0, 33, 64
3, 56188, Note_on_c, 0, 33, 0
3, 56192, Note_on_c, 0, 40, 68
3, 56316, Note_on_c, 0, 40, 0
3, 56320, Note_on_c, 0, 45, 74
3, 56444, Note_on_c, 0, 45, 0
3, 56448, Note_on_c, 0, 33, 65
3, 56572, Note_on_c, 0, 33, 0
3, 56576, Note_on_c, 0, 40, 59
3, 56700, Note_on_c, 0, 40, 0
3, 56704, Note_on_c, 0, 45, 79
3, 56828, Note_on_c, 0, 45, 0
3, 56832, Note_on_c, 0, 33, 66
3, 56956, Note_on_c, 0, 33, 0
3, 56960, Note_on_c, 0, 40, 60
3, 57084, Note_on_c, 0, 40, 0
3, 57088, Note_on_c, 0, 45, 76
3, 57212, Note_on_c, 0, 45, 0
3, 57216, Note_on_c, 0, 33, 62
3, 57340, Note_on_c, 0, 33, 0
3, 57344, Note_on_c, 0, 40, 54
3, 57468, Note_on_c, 0, 40, 0
3, 57472, Note_on_c, 0, 44, 69
3, 57596, Note_on_c, 0, 44, 0
3, 57600, Note_on_c, 0, 33, 65
3, 57724, Note_on_c, 0, 33, 0
3, 57728, Note_on_c, 0, 40, 61
3, 57852, Note_on_c, 0, 40, 0
3, 57856, Note_on_c, 0, 45, 77
3, 57980, Note_on_c, 0, 45, 0
3, 57984, Note_on_c, 0, 33, 63
3, 58108, Note_on_c, 0, 33, 0
3, 58112, Note_on_c, 0, 40, 66
3, 58236, Note_on_c, 0, 40, 0
3, 58240, Note_on_c, 0, 45, 78
3, 58364, Note_on_c, 0, 45, 0
3, 58368, Note_on_c, 0, 33, 62
3, 58492, Note_on_c, 0, 33, 0
3, 58496, Note_on_c, 0, 40, 57
3, 58620, Note_on_c, 0, 40, 0
3, 58624, Note_on_c, 0, 45, 75
3, 58748, Note_on_c, 0, 45, 0
3, 58752, Note_on_c, 0, 33, 66
3, 58876, Note_on_c, 0, 33, 0
3, 58880, Note_on_c, 0, 40, 56
3, 59004, Note_on_c, 0, 40, 0
3, 59008, Note_on_c, 0, 45, 76
3, 59132, Note_on_c, 0, 45, 0
3, 59136, Note_on_c, 0, 33, 66
3, 59260, Note_on_c, 0, 33, 0
3, 59264, Note_on_c, 0, 40, 62
3, 59388, Note_on_c, 0, 40, 0
3, 59392, Note_on_c, 0, 45, 68
3, 59516, Note_on_c, 0, 45, 0
3, 59520, Note_on_c, 0, 33, 66
3, 59644, Note_on_c, 0, 33, 0
3, 59648, Note_on_c, 0, 40, 67
3, 59772, Note_on_c, 0, 40, 0
3, 59776, Note_on_c, 0, 44, 73
3, 59900, Note_on_c, 0, 44, 0
3, 59904, Note_on_c, 0, 33, 68
3, 60028, Note_on_c, 0, 33, 0
3, 60032, Note_on_c, 0, 40, 67
3, 60156, Note_on_c, 0, 40, 0
3, 60160, Note_on_c, 0, 45, 89
3, 60284, Note_on_c, 0, 45, 0
3, 60288, Note_on_c, 0, 33, 72
3, 60412, Note_on_c, 0, 33, 0
3, 60416, Note_on_c, 0, 40, 80
3, 60540, Note_on_c, 0, 40, 0
3, 60544, Note_on_c, 0, 45, 86
3, 60668, Note_on_c, 0, 45, 0
3, 60672, Note_on_c, 0, 32, 80
3, 60796, Note_on_c, 0, 32, 0
3, 60800, Note_on_c, 0, 40, 88
3, 60924, Note_on_c, 0, 40, 0
3, 60928, Note_on_c, 0, 44, 94
3, 61052, Note_on_c, 0, 44, 0
3, 61056, Note_on_c, 0, 33, 84
3, 61180, Note_on_c, 0, 33, 0
3, 61184, Note_on_c, 0, 40, 90
3, 61308, Note_on_c, 0, 40, 0
3, 61312, Note_on_c, 0, 45, 98
3, 61436, Note_on_c, 0, 45, 0
3, 61440, Note_on_c, 0, 33, 92
3, 61564, Note_on_c, 0, 33, 0
3, 61568, Note_on_c, 0, 40, 95
3, 61692, Note_on_c, 0, 40, 0
3, 61696, Note_on_c, 0, 45, 100
3, 61820, Note_on_c, 0, 45, 0
3, 61824, Note_on_c, 0, 35, 94
3, 61948, Note_on_c, 0, 35, 0
3, 61952, Note_on_c, 0, 43, 92
3, 62076, Note_on_c, 0, 43, 0
3, 62080, Note_on_c, 0, 47, 100
3, 62204, Note_on_c, 0, 47, 0
3, 62208, Note_on_c, 0, 36, 94
3, 62332, Note_on_c, 0, 36, 0
3, 62336, Note_on_c, 0, 43, 92
3, 62460, Note_on_c, 0, 43, 0
3, 62464, Note_on_c, 0, 48, 95
3, 62588, Note_on_c, 0, 48, 0
3, 62592, Note_on_c, 0, 36, 98
3, 62716, Note_on_c, 0, 36, 0
3, 62720, Note_on_c, 0, 43, 97
3, 62844, Note_on_c, 0, 43, 0
3, 62848, Note_on_c, 0, 48, 102
3, 62972, Note_on_c, 0, 48, 0
3, 62976, Note_on_c, 0, 36, 83
3, 63100, Note_on_c, 0, 36, 0
3, 63104, Note_on_c, 0, 43, 84
3, 63228, Note_on_c, 0, 43, 0
3, 63232, Note_on_c, 0, 48, 85
3, 63356, Note_on_c, 0, 48, 0
3, 63360, Note_on_c, 0, 36, 78
3, 63484, Note_on_c, 0, 36, 0
3, 63488, Note_on_c, 0, 43, 69
3, 63612, Note_on_c, 0, 43, 0
3, 63616, Note_on_c, 0, 48, 75
3, 63740, Note_on_c, 0, 48, 0
3, 63744, Note_on_c, 0, 36, 51
3, 63868, Note_on_c, 0, 36, 0
3, 63872, Note_on_c, 0, 43, 75
3, 63996, Note_on_c, 0, 43, 0
3, 64000, Note_on_c, 0, 48, 78
3, 64124, Note_on_c, 0, 48, 0
3, 64128, Note_on_c, 0, 36, 69
3, 64252, Note_on_c, 0, 36, 0
3, 64256, Note_on_c, 0, 43, 58
3, 64380, Note_on_c, 0, 43, 0
3, 64384, Note_on_c, 0, 48, 59
3, 64508, Note_on_c, 0, 48, 0
3, 64512, Note_on_c, 0, 36, 66
3, 64636, Note_on_c, 0, 36, 0
3, 64640, Note_on_c, 0, 43, 67
3, 64764, Note_on_c, 0, 43, 0
3, 64768, Note_on_c, 0, 48, 65
3, 64892, Note_on_c, 0, 48, 0
3, 64896, Note_on_c, 0, 36, 67
3, 65020, Note_on_c, 0, 36, 0
3, 65024, Note_on_c, 0, 43, 62
3, 65148, Note_on_c, 0, 43, 0
3, 65152, Note_on_c, 0, 48, 61
3, 65276, Note_on_c, 0, 48, 0
3, 65280, Note_on_c, 0, 36, 66
3, 65404, Note_on_c, 0, 36, 0
3, 65408, Note_on_c, 0, 43, 54
3, 65532, Note_on_c, 0, 43, 0
3, 65536, Note_on_c, 0, 48, 65
3, 65660, Note_on_c, 0, 48, 0
3, 65664, Note_on_c, 0, 36, 66
3, 65788, Note_on_c, 0, 36, 0
3, 65792, Note_on_c, 0, 43, 67
3, 65916, Note_on_c, 0, 43, 0
3, 65920, Note_on_c, 0, 48, 63
3, 66044, Note_on_c, 0, 48, 0
3, 66048, Note_on_c, 0, 36, 63
3, 66172, Note_on_c, 0, 36, 0
3, 66176, Note_on_c, 0, 43, 66
3, 66300, Note_on_c, 0, 43, 0
3, 66304, Note_on_c, 0, 48, 67
3, 66428, Note_on_c, 0, 48, 0
3, 66432, Note_on_c, 0, 36, 64
3, 66556, Note_on_c, 0, 36, 0
3, 66560, Note_on_c, 0, 43, 64
3, 66684, Note_on_c, 0, 43, 0
3, 66688, Note_on_c, 0, 47, 66
3, 66812, Note_on_c, 0, 47, 0
3, 66816, Note_on_c, 0, 36, 57
3, 66940, Note_on_c, 0, 36, 0
3, 66944, Note_on_c, 0, 43, 59
3, 67068, Note_on_c, 0, 43, 0
3, 67072, Note_on_c, 0, 48, 67
3, 67196, Note_on_c, 0, 48, 0
3, 67200, Note_on_c, 0, 36, 71
3, 67324, Note_on_c, 0, 36, 0
3, 67328, Note_on_c, 0, 43, 71
3, 67452, Note_on_c, 0, 43, 0
3, 67456, Note_on_c, 0, 48, 69
3, 67580, Note_on_c, 0, 48, 0
3, 67584, Note_on_c, 0, 36, 74
3, 67708, Note_on_c, 0, 36, 0
3, 67712, Note_on_c, 0, 43, 65
3, 67836, Note_on_c, 0, 43, 0
3, 67840, Note_on_c, 0, 48, 76
3, 67964, Note_on_c, 0, 48, 0
3, 67968, Note_on_c, 0, 36, 64
3, 68092, Note_on_c, 0, 36, 0
3, 68096, Note_on_c, 0, 43, 66
3, 68220, Note_on_c, 0, 43, 0
3, 68224, Note_on_c, 0, 48, 72
3, 68348, Note_on_c, 0, 48, 0
3, 68352, Note_on_c, 0, 36, 68
3, 68476, Note_on_c, 0, 36, 0
3, 68480, Note_on_c, 0, 43, 67
3, 68604, Note_on_c, 0, 43, 0
3, 68608, Note_on_c, 0, 48, 55
3, 68732, Note_on_c, 0, 48, 0
3, 68736, Note_on_c, 0, 36, 68
3, 68860, Note_on_c, 0, 36, 0
3, 68864, Note_on_c, 0, 43, 57
3, 68988, Note_on_c, 0, 43, 0
3, 68992, Note_on_c, 0, 47, 71
3, 69116, Note_on_c, 0, 47, 0
3, 69120, Note_on_c, 0, 36, 72
3, 69244, Note_on_c, 0, 36, 0
3, 69248, Note_on_c, 0, 43, 70
3, 69372, Note_on_c, 0, 43, 0
3, 69376, Note_on_c, 0, 48, 79
3, 69500, Note_on_c, 0, 48, 0
3, 69504, Note_on_c, 0, 36, 81
3, 69628, Note_on_c, 0, 36, 0
3, 69632, Note_on_c, 0, 43, 83
3, 69756, Note_on_c, 0, 43, 0
3, 69760, Note_on_c, 0, 48, 78
3, 69884, Note_on_c, 0, 48, 0
3, 69888, Note_on_c, 0, 38, 87
3, 70012, Note_on_c, 0, 38, 0
3, 70016, Note_on_c, 0, 41, 87
3, 70140, Note_on_c, 0, 41, 0
3, 70144, Note_on_c, 0, 50, 86
3, 70268, Note_on_c, 0, 50, 0
3, 70272, Note_on_c, 0, 40, 82
3, 70396, Note_on_c, 0, 40, 0
3, 70400, Note_on_c, 0, 45, 85
3, 70524, Note_on_c, 0, 45, 0
3, 70528, Note_on_c, 0, 52, 81
3, 70652, Note_on_c, 0, 52, 0
3, 70656, Note_on_c, 0, 40, 81
3, 70780, Note_on_c, 0, 40, 0
3, 70784, Note_on_c, 0, 45, 73
3, 70908, Note_on_c, 0, 45, 0
3, 70912, Note_on_c, 0, 52, 81
3, 71036, Note_on_c, 0, 52, 0
3, 71040, Note_on_c, 0, 40, 81
3, 71164, Note_on_c, 0, 40, 0
3, 71168, Note_on_c, 0, 44, 86
3, 71292, Note_on_c, 0, 44, 0
3, 71296, Note_on_c, 0, 52, 92
3, 71420, Note_on_c, 0, 52, 0
3, 71424, Note_on_c, 0, 33, 67
3, 71548, Note_on_c, 0, 33, 0
3, 71552, Note_on_c, 0, 36, 57
3, 71676, Note_on_c, 0, 36, 0
3, 71680, Note_on_c, 0, 40, 53
3, 71804, Note_on_c, 0, 40, 0
3, 71808, Note_on_c, 0, 45, 64
3, 71932, Note_on_c, 0, 45, 0
3, 71936, Note_on_c, 0, 40, 57
3, 72060, Note_on_c, 0, 40, 0
3, 72064, Note_on_c, 0, 36, 51
3, 72188, Note_on_c, 0, 36, 0
3, 72192, Note_on_c, 0, 33, 51
3, 72316, Note_on_c, 0, 33, 0
3, 72320, Note_on_c, 0, 36, 51
3, 72444, Note_on_c, 0, 36, 0
3, 72448, Note_on_c, 0, 40, 48
3, 72572, Note_on_c, 0, 40, 0
3, 72576, Note_on_c, 0, 45, 69
3, 72700, Note_on_c, 0, 45, 0
3, 72704, Note_on_c, 0, 40, 63
3, 72828, Note_on_c, 0, 40, 0
3, 72832, Note_on_c, 0, 36, 61
3, 72956, Note_on_c, 0, 36, 0
3, 72960, Note_on_c, 0, 33, 57
3, 73148, Note_on_c, 0, 33, 0
3, 73152, Note_on_c, 0, 45, 67
3, 73340, Note_on_c, 0, 45, 0
3, 73344, Note_on_c, 0, 35, 64
3, 73532, Note_on_c, 0, 35, 0
3, 73536, Note_on_c, 0, 47, 66
3, 73724, Note_on_c, 0, 47, 0
3, 74496, Note_on_c, 0, 36, 107
3, 74620, Note_on_c, 0, 36, 0
3, 79104, Note_on_c, 0, 38, 114
3, 79228, Note_on_c, 0, 38, 0
3, 83712, Note_on_c, 0, 41, 108
3, 83836, Note_on_c, 0, 41, 0
3, 86016, Note_on_c, 0, 48, 118
3, 86140, Note_on_c, 0, 48, 0
3, 91392, Note_on_c, 0, 36, 94
3, 91516, Note_on_c, 0, 36, 0
3, 91776, Note_on_c, 0, 55, 78
3, 91900, Note_on_c, 0, 55, 0
3, 92160, Note_on_c, 0, 55, 70
3, 92160, Note_on_c, 0, 36, 70
3, 92348, Note_on_c, 0, 36, 0
3, 92352, Note_on_c, 0, 38, 61
3, 92540, Note_on_c, 0, 38, 0
3, 92544, Note_on_c, 0, 40, 74
3, 92732, Note_on_c, 0, 40, 0
3, 92736, Note_on_c, 0, 41, 79
3, 92924, Note_on_c, 0, 41, 0
3, 92928, Note_on_c, 0, 43, 75
3, 93116, Note_on_c, 0, 43, 0
3, 93120, Note_on_c, 0, 45, 81
3, 93308, Note_on_c, 0, 45, 0
3, 93312, Note_on_c, 0, 47, 78
3, 93500, Note_on_c, 0, 47, 0
3, 93504, Note_on_c, 0, 48, 97
3, 93692, Note_on_c, 0, 48, 0
3, 93696, Note_on_c, 0, 50, 89
3, 93884, Note_on_c, 0, 50, 0
3, 93888, Note_on_c, 0, 43, 77
3, 94076, Note_on_c, 0, 43, 0
3, 94080, Note_on_c, 0, 45, 79
3, 94268, Note_on_c, 0, 45, 0
3, 94272, Note_on_c, 0, 47, 86
3, 94332, Note_on_c, 0, 47, 0
3, 94460, Note_on_c, 0, 55, 0
3, 94464, Note_on_c, 0, 48, 107
3, 95612, Note_on_c, 0, 48, 0
3, 95616, Note_on_c, 0, 43, 74
3, 96380, Note_on_c, 0, 43, 0
3, 96384, Note_on_c, 0, 41, 63
3, 96508, Note_on_c, 0, 41, 0
3, 96768, Note_on_c, 0, 40, 69
3, 96956, Note_on_c, 0, 40, 0
3, 96960, Note_on_c, 0, 36, 70
3, 97148, Note_on_c, 0, 36, 0
3, 97152, Note_on_c, 0, 40, 68
3, 97152, Note_on_c, 0, 55, 108
3, 97340, Note_on_c, 0, 40, 0
3, 97344, Note_on_c, 0, 41, 90
3, 97532, Note_on_c, 0, 41, 0
3, 97536, Note_on_c, 0, 43, 89
3, 97724, Note_on_c, 0, 43, 0
3, 97728, Note_on_c, 0, 45, 97
3, 97916, Note_on_c, 0, 45, 0
3, 97920, Note_on_c, 0, 47, 86
3, 98108, Note_on_c, 0, 47, 0
3, 98112, Note_on_c, 0, 48, 86
3, 98300, Note_on_c, 0, 48, 0
3, 98300, Note_on_c, 0, 55, 0
3, 98304, Note_on_c, 0, 50, 88
3, 98492, Note_on_c, 0, 50, 0
3, 98496, Note_on_c, 0, 43, 83
3, 98684, Note_on_c, 0, 43, 0
3, 98688, Note_on_c, 0, 45, 90
3, 98876, Note_on_c, 0, 45, 0
3, 98880, Note_on_c, 0, 47, 86
3, 99068, Note_on_c, 0, 47, 0
3, 99072, Note_on_c, 0, 48, 83
3, 99196, Note_on_c, 0, 48, 0
3, 99456, Note_on_c, 0, 45, 111
3, 100220, Note_on_c, 0, 45, 0
3, 100224, Note_on_c, 0, 43, 65
3, 100348, Note_on_c, 0, 43, 0
3, 100608, Note_on_c, 0, 43, 105
3, 101372, Note_on_c, 0, 43, 0
3, 101376, Note_on_c, 0, 42, 80
3, 101564, Note_on_c, 0, 42, 0
3, 101568, Note_on_c, 0, 43, 71
3, 101756, Note_on_c, 0, 43, 0
3, 101760, Note_on_c, 0, 45, 89
3, 101948, Note_on_c, 0, 45, 0
3, 101952, Note_on_c, 0, 38, 84
3, 102140, Note_on_c, 0, 38, 0
3, 102144, Note_on_c, 0, 40, 88
3, 102332, Note_on_c, 0, 40, 0
3, 102336, Note_on_c, 0, 42, 88
3, 102524, Note_on_c, 0, 42, 0
3, 102528, Note_on_c, 0, 43, 83
3, 102716, Note_on_c, 0, 43, 0
3, 102720, Note_on_c, 0, 45, 92
3, 102908, Note_on_c, 0, 45, 0
3, 102912, Note_on_c, 0, 47, 85
3, 103100, Note_on_c, 0, 47, 0
3, 103104, Note_on_c, 0, 48, 98
3, 103292, Note_on_c, 0, 48, 0
3, 103296, Note_on_c, 0, 50, 92
3, 103484, Note_on_c, 0, 50, 0
3, 103488, Note_on_c, 0, 52, 92
3, 103676, Note_on_c, 0, 52, 0
3, 103680, Note_on_c, 0, 48, 102
3, 103868, Note_on_c, 0, 48, 0
3, 103872, Note_on_c, 0, 47, 101
3, 104060, Note_on_c, 0, 47, 0
3, 104064, Note_on_c, 0, 48, 98
3, 104252, Note_on_c, 0, 48, 0
3, 104256, Note_on_c, 0, 45, 107
3, 104444, Note_on_c, 0, 45, 0
3, 104448, Note_on_c, 0, 50, 104
3, 104636, Note_on_c, 0, 50, 0
3, 104640, Note_on_c, 0, 38, 97
3, 104828, Note_on_c, 0, 38, 0
3, 104832, Note_on_c, 0, 43, 107
3, 105212, Note_on_c, 0, 43, 0
3, 105600, Note_on_c, 0, 55, 78
3, 105724, Note_on_c, 0, 55, 0
3, 105984, Note_on_c, 0, 55, 70
3, 105984, Note_on_c, 0, 36, 70
3, 106172, Note_on_c, 0, 36, 0
3, 106176, Note_on_c, 0, 38, 61
3, 106364, Note_on_c, 0, 38, 0
3, 106368, Note_on_c, 0, 40, 74
3, 106556, Note_on_c, 0, 40, 0
3, 106560, Note_on_c, 0, 41, 79
3, 106748, Note_on_c, 0, 41, 0
3, 106752, Note_on_c, 0, 43, 75
3, 106940, Note_on_c, 0, 43, 0
3, 106944, Note_on_c, 0, 45, 81
3, 107132, Note_on_c, 0, 45, 0
3, 107136, Note_on_c, 0, 47, 78
3, 107324, Note_on_c, 0, 47, 0
3, 107328, Note_on_c, 0, 48, 97
3, 107516, Note_on_c, 0, 48, 0
3, 107520, Note_on_c, 0, 50, 89
3, 107708, Note_on_c, 0, 50, 0
3, 107712, Note_on_c, 0, 43, 77
3, 107900, Note_on_c, 0, 43, 0
3, 107904, Note_on_c, 0, 45, 79
3, 108092, Note_on_c, 0, 45, 0
3, 108096, Note_on_c, 0, 47, 86
3, 108156, Note_on_c, 0, 47, 0
3, 108284, Note_on_c, 0, 55, 0
3, 108288, Note_on_c, 0, 48, 107
3, 109436, Note_on_c, 0, 48, 0
3, 109440, Note_on_c, 0, 43, 74
3, 110204, Note_on_c, 0, 43, 0
3, 110208, Note_on_c, 0, 41, 63
3, 110332, Note_on_c, 0, 41, 0
3, 110592, Note_on_c, 0, 40, 69
3, 110780, Note_on_c, 0, 40, 0
3, 110784, Note_on_c, 0, 36, 70
3, 110972, Note_on_c, 0, 36, 0
3, 110976, Note_on_c, 0, 40, 68
3, 110976, Note_on_c, 0, 55, 108
3, 111164, Note_on_c, 0, 40, 0
3, 111168, Note_on_c, 0, 41, 90
3, 111356, Note_on_c, 0, 41, 0
3, 111360, Note_on_c, 0, 43, 89
3, 111548, Note_on_c, 0, 43, 0
3, 111552, Note_on_c, 0, 45, 97
3, 111740, Note_on_c, 0, 45, 0
3, 111744, Note_on_c, 0, 47, 86
3, 111932, Note_on_c, 0, 47, 0
3, 111936, Note_on_c, 0, 48, 86
3, 112124, Note_on_c, 0, 48, 0
3, 112124, Note_on_c, 0, 55, 0
3, 112128, Note_on_c, 0, 50, 88
3, 112316, Note_on_c, 0, 50, 0
3, 112320, Note_on_c, 0, 43, 83
3, 112508, Note_on_c, 0, 43, 0
3, 112512, Note_on_c, 0, 45, 90
3, 112700, Note_on_c, 0, 45, 0
3, 112704, Note_on_c, 0, 47, 86
3, 112892, Note_on_c, 0, 47, 0
3, 112896, Note_on_c, 0, 48, 83
3, 113020, Note_on_c, 0, 48, 0
3, 113280, Note_on_c, 0, 45, 111
3, 114044, Note_on_c, 0, 45, 0
3, 114048, Note_on_c, 0, 43, 65
3, 114172, Note_on_c, 0, 43, 0
3, 114432, Note_on_c, 0, 43, 105
3, 115196, Note_on_c, 0, 43, 0
3, 115200, Note_on_c, 0, 42, 80
3, 115388, Note_on_c, 0, 42, 0
3, 115392, Note_on_c, 0, 43, 71
3, 115580, Note_on_c, 0, 43, 0
3, 115584, Note_on_c, 0, 45, 89
3, 115772, Note_on_c, 0, 45, 0
3, 115776, Note_on_c, 0, 38, 84
3, 115964, Note_on_c, 0, 38, 0
3, 115968, Note_on_c, 0, 40, 88
3, 116156, Note_on_c, 0, 40, 0
3, 116160, Note_on_c, 0, 42, 88
3, 116348, Note_on_c, 0, 42, 0
3, 116352, Note_on_c, 0, 43, 83
3, 116540, Note_on_c, 0, 43, 0
3, 116544, Note_on_c, 0, 45, 92
3, 116732, Note_on_c, 0, 45, 0
3, 116736, Note_on_c, 0, 47, 85
3, 116924, Note_on_c, 0, 47, 0
3, 116928, Note_on_c, 0, 48, 98
3, 117116, Note_on_c, 0, 48, 0
3, 117120, Note_on_c, 0, 50, 92
3, 117308, Note_on_c, 0, 50, 0
3, 117312, Note_on_c, 0, 52, 92
3, 117500, Note_on_c, 0, 52, 0
3, 117504, Note_on_c, 0, 48, 102
3, 117692, Note_on_c, 0, 48, 0
3, 117696, Note_on_c, 0, 47, 101
3, 117884, Note_on_c, 0, 47, 0
3, 117888, Note_on_c, 0, 48, 98
3, 118076, Note_on_c, 0, 48, 0
3, 118080, Note_on_c, 0, 45, 107
3, 118268, Note_on_c, 0, 45, 0
3, 118272, Note_on_c, 0, 50, 104
3, 118460, Note_on_c, 0, 50, 0
3, 118464, Note_on_c, 0, 38, 97
3, 118652, Note_on_c, 0, 38, 0
3, 118656, Note_on_c, 0, 43, 107
3, 119036, Note_on_c, 0, 43, 0
3, 119424, Note_on_c, 0, 55, 70
3, 119804, Note_on_c, 0, 55, 0
3, 119808, Note_on_c, 0, 55, 69
3, 119808, Note_on_c, 0, 43, 68
3, 119996, Note_on_c, 0, 43, 0
3, 120000, Note_on_c, 0, 42, 63
3, 120188, Note_on_c, 0, 42, 0
3, 120192, Note_on_c, 0, 43, 76
3, 120380, Note_on_c, 0, 43, 0
3, 120384, Note_on_c, 0, 45, 75
3, 120572, Note_on_c, 0, 45, 0
3, 120576, Note_on_c, 0, 47, 79
3, 120764, Note_on_c, 0, 47, 0
3, 120768, Note_on_c, 0, 43, 71
3, 120956, Note_on_c, 0, 43, 0
3, 120960, Note_on_c, 0, 48, 79
3, 121148, Note_on_c, 0, 48, 0
3, 121152, Note_on_c, 0, 47, 72
3, 121340, Note_on_c, 0, 47, 0
3, 121340, Note_on_c, 0, 55, 0
3, 121344, Note_on_c, 0, 48, 77
3, 121532, Note_on_c, 0, 48, 0
3, 121536, Note_on_c, 0, 50, 72
3, 121724, Note_on_c, 0, 50, 0
3, 121728, Note_on_c, 0, 52, 68
3, 121916, Note_on_c, 0, 52, 0
3, 121920, Note_on_c, 0, 54, 69
3, 122108, Note_on_c, 0, 54, 0
3, 122112, Note_on_c, 0, 55, 79
3, 122880, Note_on_c, 0, 53, 71
3, 123260, Note_on_c, 0, 53, 0
3, 123264, Note_on_c, 0, 52, 71
3, 123388, Note_on_c, 0, 52, 0
3, 123648, Note_on_c, 0, 50, 78
3, 123772, Note_on_c, 0, 50, 0
3, 124032, Note_on_c, 0, 48, 66
3, 124156, Note_on_c, 0, 48, 0
3, 124412, Note_on_c, 0, 55, 0
3, 124416, Note_on_c, 0, 47, 72
3, 124604, Note_on_c, 0, 47, 0
3, 124608, Note_on_c, 0, 45, 84
3, 124796, Note_on_c, 0, 45, 0
3, 124800, Note_on_c, 0, 47, 79
3, 124988, Note_on_c, 0, 47, 0
3, 124992, Note_on_c, 0, 43, 84
3, 125180, Note_on_c, 0, 43, 0
3, 125184, Note_on_c, 0, 45, 91
3, 125372, Note_on_c, 0, 45, 0
3, 125376, Note_on_c, 0, 47, 77
3, 125564, Note_on_c, 0, 47, 0
3, 125568, Note_on_c, 0, 48, 84
3, 125756, Note_on_c, 0, 48, 0
3, 125760, Note_on_c, 0, 47, 83
3, 125948, Note_on_c, 0, 47, 0
3, 125952, Note_on_c, 0, 48, 84
3, 126140, Note_on_c, 0, 48, 0
3, 126144, Note_on_c, 0, 50, 85
3, 126332, Note_on_c, 0, 50, 0
3, 126336, Note_on_c, 0, 51, 97
3, 126524, Note_on_c, 0, 51, 0
3, 126528, Note_on_c, 0, 54, 97
3, 126716, Note_on_c, 0, 54, 0
3, 126720, Note_on_c, 0, 55, 77
3, 127104, Note_on_c, 0, 53, 111
3, 127868, Note_on_c, 0, 53, 0
3, 127872, Note_on_c, 0, 51, 79
3, 127996, Note_on_c, 0, 51, 0
3, 128256, Note_on_c, 0, 50, 75
3, 128380, Note_on_c, 0, 50, 0
3, 128640, Note_on_c, 0, 48, 78
3, 128764, Note_on_c, 0, 48, 0
3, 129020, Note_on_c, 0, 55, 0
3, 129024, Note_on_c, 0, 47, 57
3, 129212, Note_on_c, 0, 47, 0
3, 129216, Note_on_c, 0, 48, 74
3, 129404, Note_on_c, 0, 48, 0
3, 129408, Note_on_c, 0, 50, 80
3, 129596, Note_on_c, 0, 50, 0
3, 129600, Note_on_c, 0, 48, 78
3, 129788, Note_on_c, 0, 48, 0
3, 129792, Note_on_c, 0, 47, 75
3, 129980, Note_on_c, 0, 47, 0
3, 129984, Note_on_c, 0, 45, 75
3, 130172, Note_on_c, 0, 45, 0
3, 130176, Note_on_c, 0, 43, 75
3, 130364, Note_on_c, 0, 43, 0
3, 130368, Note_on_c, 0, 42, 68
3, 130556, Note_on_c, 0, 42, 0
3, 130560, Note_on_c, 0, 43, 78
3, 130748, Note_on_c, 0, 43, 0
3, 130752, Note_on_c, 0, 41, 85
3, 130940, Note_on_c, 0, 41, 0
3, 130944, Note_on_c, 0, 40, 87
3, 131132, Note_on_c, 0, 40, 0
3, 131136, Note_on_c, 0, 38, 93
3, 131324, Note_on_c, 0, 38, 0
3, 131328, Note_on_c, 0, 36, 100
3, 131516, Note_on_c, 0, 36, 0
3, 131520, Note_on_c, 0, 38, 90
3, 131708, Note_on_c, 0, 38, 0
3, 131712, Note_on_c, 0, 40, 97
3, 131900, Note_on_c, 0, 40, 0
3, 131904, Note_on_c, 0, 41, 98
3, 132092, Note_on_c, 0, 41, 0
3, 132096, Note_on_c, 0, 43, 89
3, 132284, Note_on_c, 0, 43, 0
3, 132288, Note_on_c, 0, 45, 94
3, 132476, Note_on_c, 0, 45, 0
3, 132480, Note_on_c, 0, 47, 98
3, 132668, Note_on_c, 0, 47, 0
3, 132672, Note_on_c, 0, 48, 99
3, 132860, Note_on_c, 0, 48, 0
3, 132864, Note_on_c, 0, 50, 97
3, 133052, Note_on_c, 0, 50, 0
3, 133056, Note_on_c, 0, 43, 82
3, 133244, Note_on_c, 0, 43, 0
3, 133248, Note_on_c, 0, 45, 100
3, 133436, Note_on_c, 0, 45, 0
3, 133440, Note_on_c, 0, 47, 98
3, 133628, Note_on_c, 0, 47, 0
3, 133632, Note_on_c, 0, 48, 85
3, 133756, Note_on_c, 0, 48, 0
3, 134016, Note_on_c, 0, 43, 109
3, 134780, Note_on_c, 0, 43, 0
3, 134784, Note_on_c, 0, 41, 73
3, 134908, Note_on_c, 0, 41, 0
3, 135168, Note_on_c, 0, 41, 115
3, 135932, Note_on_c, 0, 41, 0
3, 135936, Note_on_c, 0, 40, 85
3, 136124, Note_on_c, 0, 40, 0
3, 136128, Note_on_c, 0, 41, 76
3, 136316, Note_on_c, 0, 41, 0
3, 136320, Note_on_c, 0, 43, 85
3, 136508, Note_on_c, 0, 43, 0
3, 136512, Note_on_c, 0, 45, 79
3, 136700, Note_on_c, 0, 45, 0
3, 136704, Note_on_c, 0, 47, 79
3, 136892, Note_on_c, 0, 47, 0
3, 136896, Note_on_c, 0, 48, 81
3, 137084, Note_on_c, 0, 48, 0
3, 137088, Note_on_c, 0, 44, 77
3, 137276, Note_on_c, 0, 44, 0
3, 137280, Note_on_c, 0, 45, 83
3, 137468, Note_on_c, 0, 45, 0
3, 137472, Note_on_c, 0, 47, 85
3, 137660, Note_on_c, 0, 47, 0
3, 137664, Note_on_c, 0, 48, 91
3, 137852, Note_on_c, 0, 48, 0
3, 137856, Note_on_c, 0, 50, 86
3, 138044, Note_on_c, 0, 50, 0
3, 138048, Note_on_c, 0, 52, 80
3, 138236, Note_on_c, 0, 52, 0
3, 138240, Note_on_c, 0, 53, 84
3, 138428, Note_on_c, 0, 53, 0
3, 138432, Note_on_c, 0, 52, 85
3, 138620, Note_on_c, 0, 52, 0
3, 138624, Note_on_c, 0, 53, 88
3, 138812, Note_on_c, 0, 53, 0
3, 138816, Note_on_c, 0, 50, 90
3, 139004, Note_on_c, 0, 50, 0
3, 139008, Note_on_c, 0, 55, 90
3, 139196, Note_on_c, 0, 55, 0
3, 139200, Note_on_c, 0, 43, 83
3, 139388, Note_on_c, 0, 43, 0
3, 139392, Note_on_c, 0, 48, 83
3, 139580, Note_on_c, 0, 48, 0
3, 139584, Note_on_c, 0, 43, 87
3, 139772, Note_on_c, 0, 43, 0
3, 139776, Note_on_c, 0, 36, 89
3, 139900, Note_on_c, 0, 36, 0
3, 140160, Note_on_c, 0, 55, 70
3, 140540, Note_on_c, 0, 55, 0
3, 140544, Note_on_c, 0, 55, 69
3, 140544, Note_on_c, 0, 43, 68
3, 140732, Note_on_c, 0, 43, 0
3, 140736, Note_on_c, 0, 42, 63
3, 140924, Note_on_c, 0, 42, 0
3, 140928, Note_on_c, 0, 43, 76
3, 141116, Note_on_c, 0, 43, 0
3, 141120, Note_on_c, 0, 45, 75
3, 141308, Note_on_c, 0, 45, 0
3, 141312, Note_on_c, 0, 47, 79
3, 141500, Note_on_c, 0, 47, 0
3, 141504, Note_on_c, 0, 43, 71
3, 141692, Note_on_c, 0, 43, 0
3, 141696, Note_on_c, 0, 48, 79
3, 141884, Note_on_c, 0, 48, 0
3, 141888, Note_on_c, 0, 47, 72
3, 142076, Note_on_c, 0, 47, 0
3, 142076, Note_on_c, 0, 55, 0
3, 142080, Note_on_c, 0, 48, 77
3, 142268, Note_on_c, 0, 48, 0
3, 142272, Note_on_c, 0, 50, 72
3, 142460, Note_on_c, 0, 50, 0
3, 142464, Note_on_c, 0, 52, 68
3, 142652, Note_on_c, 0, 52, 0
3, 142656, Note_on_c, 0, 54, 69
3, 142844, Note_on_c, 0, 54, 0
3, 142848, Note_on_c, 0, 55, 79
3, 143616, Note_on_c, 0, 53, 71
3, 143996, Note_on_c, 0, 53, 0
3, 144000, Note_on_c, 0, 52, 71
3, 144124, Note_on_c, 0, 52, 0
3, 144384, Note_on_c, 0, 50, 78
3, 144508, Note_on_c, 0, 50, 0
3, 144768, Note_on_c, 0, 48, 66
3, 144892, Note_on_c, 0, 48, 0
3, 145148, Note_on_c, 0, 55, 0
3, 145152, Note_on_c, 0, 47, 72
3, 145340, Note_on_c, 0, 47, 0
3, 145344, Note_on_c, 0, 45, 84
3, 145532, Note_on_c, 0, 45, 0
3, 145536, Note_on_c, 0, 47, 79
3, 145724, Note_on_c, 0, 47, 0
3, 145728, Note_on_c, 0, 43, 84
3, 145916, Note_on_c, 0, 43, 0
3, 145920, Note_on_c, 0, 45, 91
3, 146108, Note_on_c, 0, 45, 0
3, 146112, Note_on_c, 0, 47, 77
3, 146300, Note_on_c, 0, 47, 0
3, 146304, Note_on_c, 0, 48, 84
3, 146492, Note_on_c, 0, 48, 0
3, 146496, Note_on_c, 0, 47, 83
3, 146684, Note_on_c, 0, 47, 0
3, 146688, Note_on_c, 0, 48, 84
3, 146876, Note_on_c, 0, 48, 0
3, 146880, Note_on_c, 0, 50, 85
3, 147068, Note_on_c, 0, 50, 0
3, 147072, Note_on_c, 0, 51, 97
3, 147260, Note_on_c, 0, 51, 0
3, 147264, Note_on_c, 0, 54, 97
3, 147452, Note_on_c, 0, 54, 0
3, 147456, Note_on_c, 0, 55, 77
3, 147840, Note_on_c, 0, 53, 111
3, 148604, Note_on_c, 0, 53, 0
3, 148608, Note_on_c, 0, 51, 79
3, 148732, Note_on_c, 0, 51, 0
3, 148992, Note_on_c, 0, 50, 75
3, 149116, Note_on_c, 0, 50, 0
3, 149376, Note_on_c, 0, 48, 78
3, 149500, Note_on_c, 0, 48, 0
3, 149756, Note_on_c, 0, 55, 0
3, 149760, Note_on_c, 0, 47, 57
3, 149948, Note_on_c, 0, 47, 0
3, 149952, Note_on_c, 0, 48, 74
3, 150140, Note_on_c, 0, 48, 0
3, 150144, Note_on_c, 0, 50, 80
3, 150332, Note_on_c, 0, 50, 0
3, 150336, Note_on_c, 0, 48, 78
3, 150524, Note_on_c, 0, 48, 0
3, 150528, Note_on_c, 0, 47, 75
3, 150716, Note_on_c, 0, 47, 0
3, 150720, Note_on_c, 0, 45, 75
3, 150908, Note_on_c, 0, 45, 0
3, 150912, Note_on_c, 0, 43, 75
3, 151100, Note_on_c, 0, 43, 0
3, 151104, Note_on_c, 0, 42, 68
3, 151292, Note_on_c, 0, 42, 0
3, 151296, Note_on_c, 0, 43, 78
3, 151484, Note_on_c, 0, 43, 0
3, 151488, Note_on_c, 0, 41, 85
3, 151676, Note_on_c, 0, 41, 0
3, 151680, Note_on_c, 0, 40, 87
3, 151868, Note_on_c, 0, 40, 0
3, 151872, Note_on_c, 0, 38, 93
3, 152060, Note_on_c, 0, 38, 0
3, 152064, Note_on_c, 0, 36, 100
3, 152252, Note_on_c, 0, 36, 0
3, 152256, Note_on_c, 0, 38, 90
3, 152444, Note_on_c, 0, 38, 0
3, 152448, Note_on_c, 0, 40, 97
3, 152636, Note_on_c, 0, 40, 0
3, 152640, Note_on_c, 0, 41, 98
3, 152828, Note_on_c, 0, 41, 0
3, 152832, Note_on_c, 0, 43, 89
3, 153020, Note_on_c, 0, 43, 0
3, 153024, Note_on_c, 0, 45, 94
3, 153212, Note_on_c, 0, 45, 0
3, 153216, Note_on_c, 0, 47, 98
3, 153404, Note_on_c, 0, 47, 0
3, 153408, Note_on_c, 0, 48, 99
3, 153596, Note_on_c, 0, 48, 0
3, 153600, Note_on_c, 0, 50, 97
3, 153788, Note_on_c, 0, 50, 0
3, 153792, Note_on_c, 0, 43, 82
3, 153980, Note_on_c, 0, 43, 0
3, 153984, Note_on_c, 0, 45, 100
3, 154172, Note_on_c, 0, 45, 0
3, 154176, Note_on_c, 0, 47, 98
3, 154364, Note_on_c, 0, 47, 0
3, 154368, Note_on_c, 0, 48, 85
3, 154492, Note_on_c, 0, 48, 0
3, 154752, Note_on_c, 0, 43, 109
3, 155516, Note_on_c, 0, 43, 0
3, 155520, Note_on_c, 0, 41, 73
3, 155644, Note_on_c, 0, 41, 0
3, 155904, Note_on_c, 0, 41, 115
3, 156668, Note_on_c, 0, 41, 0
3, 156672, Note_on_c, 0, 40, 85
3, 156860, Note_on_c, 0, 40, 0
3, 156864, Note_on_c, 0, 41, 76
3, 157052, Note_on_c, 0, 41, 0
3, 157056, Note_on_c, 0, 43, 85
3, 157244, Note_on_c, 0, 43, 0
3, 157248, Note_on_c, 0, 45, 79
3, 157436, Note_on_c, 0, 45, 0
3, 157440, Note_on_c, 0, 47, 79
3, 157628, Note_on_c, 0, 47, 0
3, 157632, Note_on_c, 0, 48, 81
3, 157820, Note_on_c, 0, 48, 0
3, 157824, Note_on_c, 0, 44, 77
3, 158012, Note_on_c, 0, 44, 0
3, 158016, Note_on_c, 0, 45, 83
3, 158204, Note_on_c, 0, 45, 0
3, 158208, Note_on_c, 0, 47, 85
3, 158396, Note_on_c, 0, 47, 0
3, 158400, Note_on_c, 0, 48, 91
3, 158588, Note_on_c, 0, 48, 0
3, 158592, Note_on_c, 0, 50, 86
3, 158780, Note_on_c, 0, 50, 0
3, 158784, Note_on_c, 0, 52, 80
3, 158972, Note_on_c, 0, 52, 0
3, 158976, Note_on_c, 0, 53, 84
3, 159164, Note_on_c, 0, 53, 0
3, 159168, Note_on_c, 0, 52, 85
3, 159356, Note_on_c, 0, 52, 0
3, 159360, Note_on_c, 0, 53, 88
3, 159548, Note_on_c, 0, 53, 0
3, 159552, Note_on_c, 0, 50, 90
3, 159740, Note_on_c, 0, 50, 0
3, 159744, Note_on_c, 0, 55, 90
3, 159932, Note_on_c, 0, 55, 0
3, 159936, Note_on_c, 0, 43, 83
3, 160124, Note_on_c, 0, 43, 0
3, 160128, Note_on_c, 0, 48, 83
3, 160316, Note_on_c, 0, 48, 0
3, 160320, Note_on_c, 0, 43, 87
3, 160508, Note_on_c, 0, 43, 0
3, 160512, Note_on_c, 0, 40, 68
3, 160700, Note_on_c, 0, 40, 0
3, 160704, Note_on_c, 0, 43, 74
3, 160892, Note_on_c, 0, 43, 0
3, 160896, Note_on_c, 0, 36, 76
3, 161020, Note_on_c, 0, 36, 0
3, 162048, Note_on_c, 0, 36, 107
3, 162172, Note_on_c, 0, 36, 0
3, 166656, Note_on_c, 0, 38, 114
3, 166780, Note_on_c, 0, 38, 0
3, 171264, Note_on_c, 0, 41, 108
3, 171388, Note_on_c, 0, 41, 0
3, 173568, Note_on_c, 0, 48, 118
3, 173692, Note_on_c, 0, 48, 0
3, 178944, Note_on_c, 0, 36, 94
3, 179068, Note_on_c, 0, 36, 0
3, 180480, Note_on_c, 0, 36, 107
3, 180604, Note_on_c, 0, 36, 0
3, 182016, Note_on_c, 0, 55, 76
3, 182016, Note_on_c, 0, 59, 73
3, 182016, Note_on_c, 0, 62, 59
3, 182076, Note_on_c, 0, 62, 0
3, 182076, Note_on_c, 0, 59, 0
3, 182076, Note_on_c, 0, 55, 0
3, 185088, Note_on_c, 0, 38, 114
3, 185212, Note_on_c, 0, 38, 0
3, 189696, Note_on_c, 0, 41, 111
3, 189820, Note_on_c, 0, 41, 0
3, 192000, Note_on_c, 0, 48, 108
3, 192124, Note_on_c, 0, 48, 0
3, 196416, Note_on_c, 0, 55, 103
3, 196416, Note_on_c, 0, 60, 91
3, 196416, Note_on_c, 0, 48, 94
3, 196476, Note_on_c, 0, 48, 0
3, 196476, Note_on_c, 0, 60, 0
3, 196476, Note_on_c, 0, 55, 0
3, 198912, Note_on_c, 0, 31, 111
3, 198912, Note_on_c, 0, 43, 115
3, 199036, Note_on_c, 0, 43, 0
3, 199036, Note_on_c, 0, 31, 0
3, 201216, Note_on_c, 0, 31, 107
3, 201216, Note_on_c, 0, 43, 101
3, 201340, Note_on_c, 0, 43, 0
3, 201340, Note_on_c, 0, 31, 0
3, 205824, Note_on_c, 0, 60, 58
3, 205824, Note_on_c, 0, 55, 70
3, 205824, Note_on_c, 0, 48, 58
3, 205948, Note_on_c, 0, 48, 0
3, 205948, Note_on_c, 0, 55, 0
3, 205948, Note_on_c, 0, 60, 0
3, 206592, Note_on_c, 0, 36, 86
3, 206716, Note_on_c, 0, 36, 0
3, 210816, Note_on_c, 0, 55, 61
3, 210816, Note_on_c, 0, 60, 60
3, 210816, Note_on_c, 0, 52, 57
3, 210940, Note_on_c, 0, 52, 0
3, 210940, Note_on_c, 0, 60, 0
3, 210940, Note_on_c, 0, 55, 0
3, 211200, Note_on_c, 0, 36, 60
3, 211324, Note_on_c, 0, 36, 0
3, 211584, Note_on_c, 0, 55, 66
3, 211584, Note_on_c, 0, 60, 61
3, 211584, Note_on_c, 0, 52, 48
3, 211708, Note_on_c, 0, 52, 0
3, 211708, Note_on_c, 0, 60, 0
3, 211708, Note_on_c, 0, 55, 0
3, 215808, Note_on_c, 0, 36, 70
3, 215932, Note_on_c, 0, 36, 0
3, 216192, Note_on_c, 0, 55, 71
3, 216192, Note_on_c, 0, 60, 54
3, 216192, Note_on_c, 0, 52, 47
3, 216316, Note_on_c, 0, 52, 0
3, 216316, Note_on_c, 0, 60, 0
3, 216316, Note_on_c, 0, 55, 0
3, 217344, Note_on_c, 0, 48, 74
3, 217344, Note_on_c, 0, 55, 77
3, 217344, Note_on_c, 0, 60, 53
3, 217468, Note_on_c, 0, 60, 0
3, 217468, Note_on_c, 0, 55, 0
3, 217468, Note_on_c, 0, 48, 0
3, 217728, Note_on_c, 0, 60, 82
3, 217728, Note_on_c, 0, 52, 77
3, 217728, Note_on_c, 0, 55, 83
3, 217852, Note_on_c, 0, 55, 0
3, 217852, Note_on_c, 0, 52, 0
3, 217852, Note_on_c, 0, 60, 0
3, 218112, Note_on_c, 0, 36, 88
3, 218236, Note_on_c, 0, 36, 0
3, 218496, Note_on_c, 0, 60, 81
3, 218496, Note_on_c, 0, 55, 85
3, 218496, Note_on_c, 0, 52, 78
3, 218620, Note_on_c, 0, 52, 0
3, 218620, Note_on_c, 0, 55, 0
3, 218620, Note_on_c, 0, 60, 0
3, 219648, Note_on_c, 0, 52, 85
3, 219648, Note_on_c, 0, 60, 78
3, 219648, Note_on_c, 0, 55, 81
3, 219648, Note_on_c, 0, 48, 71
3, 219772, Note_on_c, 0, 48, 0
3, 219772, Note_on_c, 0, 52, 0
3, 219772, Note_on_c, 0, 60, 0
3, 219772, Note_on_c, 0, 55, 0
3, 221568, Note_on_c, 0, 36, 99
3, 221692, Note_on_c, 0, 36, 0
3, 222336, Note_on_c, 0, 36, 104
3, 222460, Note_on_c, 0, 36, 0
3, 223104, Note_on_c, 0, 36, 95
3, 223228, Note_on_c, 0, 36, 0
3, 223872, Note_on_c, 0, 36, 100
3, 223996, Note_on_c, 0, 36, 0
3, 224640, Note_on_c, 0, 36, 97
3, 224764, Note_on_c, 0, 36, 0
3, 225408, Note_on_c, 0, 36, 96
3, 225532, Note_on_c, 0, 36, 0
3, 225792, Note_on_c, 0, 60, 105
3, 225792, Note_on_c, 0, 52, 92
3, 225792, Note_on_c, 0, 55, 101
3, 225916, Note_on_c, 0, 55, 0
3, 225916, Note_on_c, 0, 52, 0
3, 225916, Note_on_c, 0, 60, 0
3, 226560, Note_on_c, 0, 36, 68
3, 226684, Note_on_c, 0, 36, 0
3, 227712, Note_on_c, 0, 36, 62
3, 227836, Note_on_c, 0, 36, 0
3, 228480, Note_on_c, 0, 36, 65
3, 228604, Note_on_c, 0, 36, 0
3, 228604, End_track
4, 0, Start_track
4, 0, Title_t, "Ludwig van Beethoven"
4, 0, End_track
5, 0, Start_track
5, 0, Title_t, "Performed and sequenced by:  Wesley Venable"
5, 0, End_track
6, 0, Start_track
6, 0, Title_t, "Wesley_Venable@Prodigy.com"
6, 0, End_track
0, 0, End_of_file
